<?xml version="1.0" encoding="UTF-8" standalone="no"?>
<svg xmlns:xlink="http://www.w3.org/1999/xlink" height="440.0px" width="440.0px" xmlns="http://www.w3.org/2000/svg">
  <g transform="matrix(10.0, 0.0, 0.0, 10.0, 0.0, 0.0)">
    <use height="44.0" transform="matrix(1.0, 0.0, 0.0, 1.0, 0.0, 0.0)" width="44.0" xlink:href="#shape0"/>
  </g>
  <defs>
    <g id="shape0" transform="matrix(1.0, 0.0, 0.0, 1.0, 0.0, 0.0)">
      <path d="M44.0 44.0 L0.0 44.0 0.0 0.0 44.0 0.0 44.0 44.0" fill="#43adca" fill-opacity="0.0" fill-rule="evenodd" stroke="none"/>
      <path d="M15.0 12.2 L16.1 11.95 15.8 11.55 15.1 10.4 15.05 10.4 15.05 10.35 15.05 10.25 Q14.6 9.2 14.6 8.4 L14.65 7.9 14.7 7.8 Q14.75 7.4 14.95 7.15 L15.05 6.9 15.1 6.9 15.2 6.75 15.65 6.5 17.2 6.4 17.2 6.45 Q18.25 6.6 21.85 8.5 L21.8 8.5 23.9 9.75 24.1 9.8 24.35 9.95 24.4 9.95 25.05 10.55 25.15 10.6 28.55 13.05 33.85 16.4 33.8 16.4 Q40.05 20.55 39.95 24.25 L39.95 24.3 39.9 24.8 39.85 24.85 39.55 25.6 39.25 26.1 39.05 26.45 37.75 27.15 37.65 27.15 37.5 27.2 37.3 27.25 36.3 27.3 34.7 26.95 Q31.05 25.75 25.45 21.2 L24.45 23.7 28.05 26.35 29.55 27.3 31.7 28.5 33.25 29.2 35.75 29.85 36.1 29.85 36.15 29.85 38.05 29.7 38.1 29.7 38.4 29.65 38.45 29.6 39.1 29.4 40.75 28.35 41.0 28.05 41.5 27.35 41.6 27.2 Q42.45 25.85 42.5 24.35 L42.45 24.35 Q42.7 22.35 41.5 20.25 39.75 17.25 35.25 14.3 L35.2 14.3 34.35 13.75 30.1 11.0 30.05 11.0 26.55 8.5 26.55 8.45 25.95 8.0 25.9 8.0 25.25 7.6 23.1 6.3 Q23.1 6.2 23.0 6.25 18.75 4.0 17.45 3.9 L17.4 3.9 Q14.9 3.7 13.7 4.7 L13.65 4.75 13.25 5.0 Q12.6 5.6 12.3 6.6 L12.1 7.35 12.05 8.25 12.05 8.45 Q12.0 9.2 12.3 10.05 L12.75 11.35 12.75 11.4 12.8 11.5 12.95 11.8 M37.3 27.25 Q35.95 24.2 31.25 21.1 L26.2 17.85 25.75 17.5 22.85 15.4 22.6 15.2 22.15 14.9 21.75 14.7 19.5 13.35 17.45 12.3 22.0 16.65 21.85 16.65 25.25 19.6 25.45 20.0 25.95 20.35 30.25 23.05 30.2 23.0 Q33.25 25.0 34.7 26.95 M36.8 33.2 L36.6 34.6 Q36.4 36.6 36.5 38.55 37.05 38.1 38.1 38.1 37.1 36.45 36.85 34.4 L36.8 33.2 M28.05 26.35 L24.9 30.25 23.75 31.8 Q22.25 34.0 21.05 36.2 20.85 36.45 21.0 36.85 L21.35 37.35 22.05 37.4 22.5 37.0 23.0 36.2 Q23.95 34.45 25.2 32.8 L26.35 31.2 26.85 30.5 29.55 27.3 M31.7 28.5 Q30.7 30.3 30.05 32.1 L29.7 33.0 29.1 34.9 28.4 37.7 28.15 39.6 Q28.1 39.95 28.35 40.2 28.5 40.45 28.95 40.5 L29.55 40.35 29.85 39.75 29.9 39.05 Q30.15 37.3 30.7 35.45 30.9 34.55 31.25 33.6 L31.6 32.65 33.25 29.2 M35.75 29.85 L35.2 32.3 35.0 33.7 34.85 35.55 Q34.7 37.35 34.8 39.05 L34.9 40.55 35.2 41.15 35.9 41.3 36.45 41.0 36.6 40.35 36.5 38.55 M29.9 39.05 Q33.0 37.3 34.8 39.05 M38.1 38.1 L38.55 38.6 Q38.7 38.9 39.05 38.95 L39.65 38.85 40.05 38.3 39.9 37.65 Q37.65 34.45 39.1 29.4 M16.1 11.95 L16.35 11.9 16.45 11.85 15.8 11.55 M16.45 11.85 L16.8 11.85 17.25 12.1 17.45 12.3 M14.95 7.15 L15.65 6.5 M10.2 12.8 L9.85 13.45 9.6 14.4 9.5 15.2 9.5 16.0 9.6 16.5 Q10.0 15.5 10.65 14.75 L10.65 14.25 Q10.65 13.65 10.8 13.2 M12.3 6.6 Q6.3 8.35 1.65 10.95 1.3 11.05 1.25 11.3 L1.3 12.0 1.75 12.4 2.4 12.35 3.25 11.9 Q4.75 11.1 6.55 10.4 L9.55 9.25 9.7 9.25 12.05 8.45 M11.05 12.55 L11.2 12.25 11.55 11.55 11.5 11.6 11.1 11.9 11.05 11.9 10.65 12.2 M11.55 11.55 L12.3 10.05 M12.6 16.3 L12.4 16.75 11.9 17.95 11.6 19.55 12.05 20.3 12.35 20.65 14.05 22.9 14.15 22.95 14.4 23.15 14.45 23.2 15.95 24.7 17.6 26.1 17.95 26.4 19.2 25.75 19.7 25.5 Q18.1 24.3 17.35 22.55 L17.3 22.35 Q17.1 21.85 17.35 21.35 17.5 20.7 18.15 20.45 18.75 20.25 19.35 20.45 L19.65 20.6 20.0 20.95 20.15 21.25 Q20.8 22.5 22.1 23.3 L22.3 23.05 22.75 22.35 23.4 20.8 21.4 18.95 20.6 18.25 20.5 18.2 16.25 14.0 15.65 14.1 M9.85 13.45 L6.9 16.15 5.7 17.55 Q5.5 17.85 5.55 18.2 L5.85 18.75 6.5 18.95 7.05 18.6 7.5 18.05 9.5 16.0 M7.5 18.05 L9.0 18.25 9.6 16.5 M23.75 31.8 L21.5 30.15 19.1 28.15 17.5 28.85 16.95 28.85 16.5 28.7 Q13.95 26.75 12.25 24.85 L12.05 24.75 12.05 24.6 Q10.05 22.65 8.95 20.6 8.75 20.3 8.85 20.05 L9.0 18.25 M10.65 14.75 L11.15 14.3 M25.45 20.0 L25.45 20.05 25.55 20.55 25.45 21.2 M22.1 23.3 L23.05 23.85 23.7 24.55 23.75 24.7 23.9 24.45 24.45 23.7 M23.75 24.7 L23.75 24.75 23.8 25.95 22.95 26.75 Q22.45 26.95 22.05 26.75 L21.7 26.7 20.95 27.2 21.7 27.85 23.2 29.0 24.9 30.25 M20.95 27.2 L19.1 28.15 M3.25 11.9 Q7.25 13.1 6.9 16.15 M21.7 26.7 L19.7 25.5 M23.0 36.2 Q27.0 35.05 28.4 37.7" fill="none" stroke="#000000" stroke-linecap="round" stroke-linejoin="round" stroke-opacity="0.3019608" stroke-width="0.7000000000000001"/>
      <path d="M39.85 27.55 L38.95 28.2 39.7 27.5 39.85 27.55" fill="#ac9c46" fill-rule="evenodd" stroke="none"/>
      <path d="M39.85 27.55 L40.35 26.85" fill="none" stroke="#000000" stroke-linecap="round" stroke-linejoin="round" stroke-opacity="0.3019608" stroke-width="0.05"/>
      <path d="M13.8 7.85 L13.6 7.95 Q11.55 8.5 9.65 9.25 L9.5 9.2 Q6.1 10.35 3.25 11.85 L2.35 12.35 1.75 12.4 1.2 12.0 1.15 11.3 1.6 10.9 Q6.6 8.1 13.25 6.25 13.5 6.15 13.8 6.4 L14.2 6.9 14.15 7.5 13.8 7.85 M11.45 12.2 Q13.15 10.95 15.1 9.9 L15.2 9.9 15.85 9.8 16.3 10.25 Q16.5 10.55 16.35 10.9 L16.1 11.35 15.95 11.35 12.35 13.6 Q9.55 15.6 7.45 18.0 L7.05 18.6 Q6.8 18.85 6.45 18.9 L5.85 18.75 5.55 18.15 Q5.45 17.8 5.7 17.55 L6.9 16.15 Q8.85 14.05 11.3 12.3 11.35 12.2 11.45 12.2 M15.55 15.3 L17.7 13.1 17.9 13.0 Q18.1 12.75 18.45 12.75 18.85 12.75 19.1 13.05 L19.3 13.65 19.85 13.1 Q20.15 12.8 20.5 12.9 20.8 12.85 21.1 13.2 L21.2 13.8 Q21.25 14.1 20.9 14.4 16.45 18.1 16.55 22.25 L16.35 22.85 Q16.15 23.15 15.75 23.15 L15.15 22.9 Q14.9 22.7 14.9 22.35 L14.9 21.75 Q14.9 19.15 16.4 16.85 14.55 18.95 13.2 21.2 L12.35 22.75 11.9 23.15 11.25 23.1 10.8 22.65 Q10.65 22.3 10.85 22.05 L11.55 20.75 Q13.2 17.85 15.55 15.3" fill="#847535" fill-rule="evenodd" stroke="none"/>
      <path d="M3.25 11.85 Q6.1 10.35 9.5 9.2 L9.65 9.25 Q10.25 9.2 10.95 10.1 11.65 10.95 11.3 12.05 L11.45 12.2 Q11.35 12.2 11.3 12.3 8.85 14.05 6.9 16.15 7.25 13.05 3.25 11.85 M12.35 13.6 L13.45 13.75 Q14.8 14.05 15.2 14.55 L15.55 15.3 Q13.2 17.85 11.55 20.75 11.0 18.2 7.45 18.0 9.55 15.6 12.35 13.6 M13.2 21.2 Q14.55 18.95 16.4 16.85 14.9 19.15 14.9 21.75 14.0 21.15 13.2 21.2" fill="#855e1e" fill-rule="evenodd" stroke="none"/>
      <path d="M9.65 9.25 Q11.55 8.5 13.6 7.95 L13.8 7.85 15.1 9.9 Q13.15 10.95 11.45 12.2 L11.3 12.05 Q11.65 10.95 10.95 10.1 10.25 9.2 9.65 9.25 M15.55 15.3 L15.2 14.55 Q14.8 14.05 13.45 13.75 L12.35 13.6 15.95 11.35 16.1 11.35 17.7 13.1 15.55 15.3" fill="#634616" fill-rule="evenodd" stroke="none"/>
      <path d="M9.65 9.25 Q11.55 8.5 13.6 7.95 L13.8 7.85 14.15 7.5 14.2 6.9 13.8 6.4 Q13.5 6.15 13.25 6.25 6.6 8.1 1.6 10.9 L1.15 11.3 1.2 12.0 1.75 12.4 2.35 12.35 3.25 11.85 Q6.1 10.35 9.5 9.2 L9.65 9.25 M11.45 12.2 Q13.15 10.95 15.1 9.9 L13.8 7.85 M16.1 11.35 L16.35 10.9 Q16.5 10.55 16.3 10.25 L15.85 9.8 15.2 9.9 15.1 9.9 M15.55 15.3 L17.7 13.1 16.1 11.35 15.95 11.35 12.35 13.6 Q9.55 15.6 7.45 18.0 11.0 18.2 11.55 20.75 13.2 17.85 15.55 15.3 M11.45 12.2 Q11.35 12.2 11.3 12.3 8.85 14.05 6.9 16.15 L5.7 17.55 Q5.45 17.8 5.55 18.15 L5.85 18.75 6.45 18.9 Q6.8 18.85 7.05 18.6 L7.45 18.0 M14.9 21.75 L14.9 22.35 Q14.9 22.7 15.15 22.9 L15.75 23.15 Q16.15 23.15 16.35 22.85 L16.55 22.25 Q16.45 18.1 20.9 14.4 21.25 14.1 21.2 13.8 L21.1 13.2 Q20.8 12.85 20.5 12.9 20.15 12.8 19.85 13.1 L19.3 13.65 19.1 13.05 Q18.85 12.75 18.45 12.75 18.1 12.75 17.9 13.0 L17.7 13.1 M11.55 20.75 L10.85 22.05 Q10.65 22.3 10.8 22.65 L11.25 23.1 11.9 23.15 12.35 22.75 13.2 21.2 Q14.55 18.95 16.4 16.85 14.9 19.15 14.9 21.75 14.0 21.15 13.2 21.2 M3.25 11.85 Q7.25 13.05 6.9 16.15" fill="none" stroke="#000000" stroke-linecap="round" stroke-linejoin="round" stroke-opacity="0.3019608" stroke-width="0.05"/>
      <path d="M38.4 30.6 L38.4 30.55 38.45 30.65 38.4 30.6" fill="#ab9a46" fill-rule="evenodd" stroke="none"/>
      <path d="M25.9 20.3 L25.15 19.8 21.95 17.4 21.85 17.4 21.2 16.9 21.15 16.85 20.9 16.75 18.75 15.45 Q15.35 13.65 14.3 13.55 L14.4 13.5 Q13.15 13.4 12.5 13.8 L12.35 13.95 12.3 13.95 Q12.0 14.2 12.0 14.85 L11.95 14.85 11.85 15.35 Q11.8 16.15 12.3 17.15 L12.35 17.2 12.35 17.25 Q14.0 20.6 20.0 25.75 L23.45 28.55 Q22.8 29.4 21.95 29.85 L21.45 30.1 18.4 27.65 Q11.9 22.0 10.2 18.3 L10.2 18.2 10.15 18.2 Q9.35 16.55 9.45 15.2 L9.55 14.4 Q9.8 12.9 10.6 12.2 L11.0 11.85 11.05 11.85 Q12.15 10.85 14.5 11.1 L14.55 11.1 Q15.85 11.15 19.9 13.35 L19.95 13.35 22.0 14.6 Q22.4 14.75 22.7 15.0 L23.25 15.4 23.3 15.4 25.6 17.15 25.9 20.3" fill="#877837" fill-rule="evenodd" stroke="none"/>
      <path d="M25.9 20.3 L25.6 17.15 26.6 17.85 26.65 17.9 31.45 20.95 31.5 20.95 Q38.85 25.85 38.4 30.6 L38.45 30.65 Q38.4 32.05 37.55 33.25 L37.45 33.4 37.0 34.1 36.8 34.35 Q35.7 35.15 34.6 35.55 L34.55 35.6 34.25 35.65 34.15 35.65 32.35 35.8 32.3 35.8 Q28.35 35.45 21.45 30.1 L21.95 29.85 Q22.8 29.4 23.45 28.55 29.15 32.9 32.6 33.35 L33.65 33.25 33.85 33.25 33.9 33.2 35.2 32.55 35.35 32.2 35.7 31.75 36.0 30.45 36.0 30.4 Q36.1 26.9 30.15 23.0 L30.2 23.0 25.9 20.3" fill="#6c5f2d" fill-rule="evenodd" stroke="none"/>
      <path d="M23.45 28.55 L20.0 25.75 Q14.0 20.6 12.35 17.25 L12.35 17.2 12.3 17.15 Q11.8 16.15 11.85 15.35 L11.95 14.85 12.0 14.85 Q12.0 14.2 12.3 13.95 L12.35 13.95 12.5 13.8 Q13.15 13.4 14.4 13.5 L14.3 13.55 Q15.35 13.65 18.75 15.45 L20.9 16.75 21.15 16.85 21.2 16.9 21.85 17.4 21.95 17.4 25.15 19.8 25.9 20.3 M25.6 17.15 L23.3 15.4 23.25 15.4 22.7 15.0 Q22.4 14.75 22.0 14.6 L19.95 13.35 19.9 13.35 Q15.85 11.15 14.55 11.1 L14.5 11.1 Q12.15 10.85 11.05 11.85 L11.0 11.85 10.6 12.2 Q9.8 12.9 9.55 14.4 L9.45 15.2 Q9.35 16.55 10.15 18.2 L10.2 18.2 10.2 18.3 Q11.9 22.0 18.4 27.65 L21.45 30.1 M23.45 28.55 Q29.15 32.9 32.6 33.35 L33.65 33.25 33.85 33.25 33.9 33.2 35.2 32.55 35.35 32.2 35.7 31.75 36.0 30.45 36.0 30.4 Q36.1 26.9 30.15 23.0 L30.2 23.0 25.9 20.3 M38.4 30.6 Q38.85 25.85 31.5 20.95 L31.45 20.95 26.65 17.9 26.6 17.85 25.6 17.15 M38.45 30.65 L38.4 30.55 38.4 30.6 M38.45 30.65 Q38.4 32.05 37.55 33.25 L37.45 33.4 37.0 34.1 36.8 34.35 Q35.7 35.15 34.6 35.55 L34.55 35.6 34.25 35.65 34.15 35.65 32.35 35.8 32.3 35.8 Q28.35 35.45 21.45 30.1" fill="none" stroke="#000000" stroke-linecap="round" stroke-linejoin="round" stroke-opacity="0.3019608" stroke-width="0.05"/>
      <path d="M25.55 9.55 L25.7 9.65 29.2 12.2 Q30.65 13.25 34.4 15.5 41.4 20.15 41.1 24.45 41.05 25.65 40.45 26.65 L40.35 26.7 40.35 26.75 39.75 27.45 38.4 28.4 37.9 28.55 37.7 28.6 37.6 28.25 Q36.7 24.7 31.2 21.1 L26.15 17.85 22.75 15.35 22.55 15.2 Q20.05 9.4 25.55 9.55" fill="#694a18" fill-rule="evenodd" stroke="none"/>
      <path d="M21.65 27.85 L19.3 25.85 Q10.35 18.1 10.55 14.25 10.65 13.0 11.1 12.3 L12.35 9.7 12.4 9.8 Q12.5 10.8 13.1 12.1 L13.15 12.25 Q15.2 16.4 22.6 23.3 L25.5 25.95 Q25.2 28.5 21.65 27.85" fill="#c48b2d" fill-rule="evenodd" stroke="none"/>
      <path d="M38.4 28.4 L39.9 27.5 37.35 31.45 36.8 32.25 36.45 32.65 Q35.0 34.1 32.9 33.95 28.85 33.55 21.65 27.85 25.2 28.5 25.5 25.95 L22.6 23.3 Q15.2 16.4 13.15 12.25 L13.1 12.1 Q12.5 10.8 12.4 9.8 L12.35 9.7 13.3 7.8 13.15 8.5 Q13.15 9.55 13.75 11.0 L13.85 11.1 Q15.6 14.8 22.15 20.45 L25.15 22.95 Q32.1 28.4 36.05 28.7 L37.7 28.6 37.9 28.55 38.4 28.4" fill="#855e1e" fill-rule="evenodd" stroke="none"/>
      <path d="M13.3 7.8 Q13.35 7.25 13.55 6.85 L13.7 6.6 14.05 6.1 14.3 5.9 Q15.25 5.2 17.15 5.3 18.35 5.45 22.3 7.55 L24.65 8.9 25.0 9.15 25.55 9.55 Q20.05 9.4 22.55 15.2 L22.1 14.85 21.7 14.65 19.45 13.3 Q15.6 11.25 14.45 11.15 L14.1 11.1 13.85 11.1 13.75 11.0 Q13.15 9.55 13.15 8.5 L13.3 7.8" fill="#543913" fill-rule="evenodd" stroke="none"/>
      <path d="M25.55 9.55 L25.7 9.65 29.2 12.2 Q30.65 13.25 34.4 15.5 41.4 20.15 41.1 24.45 41.05 25.65 40.45 26.65 L40.35 26.7 40.35 26.75 39.75 27.45 M38.4 28.4 L39.9 27.5 37.35 31.45 36.8 32.25 36.45 32.65 Q35.0 34.1 32.9 33.95 28.85 33.55 21.65 27.85 L19.3 25.85 Q10.35 18.1 10.55 14.25 10.65 13.0 11.1 12.3 L12.35 9.7 13.3 7.8 Q13.35 7.25 13.55 6.85 L13.7 6.6 14.05 6.1 14.3 5.9 Q15.25 5.2 17.15 5.3 18.35 5.45 22.3 7.55 L24.65 8.9 25.0 9.15 25.55 9.55 M22.55 15.2 L22.75 15.35 26.15 17.85 31.2 21.1 Q36.7 24.7 37.6 28.25 L37.7 28.6 37.9 28.55 38.4 28.4 M13.3 7.8 L13.15 8.5 Q13.15 9.55 13.75 11.0 L13.85 11.1 14.1 11.1 14.45 11.15 Q15.6 11.25 19.45 13.3 L21.7 14.65 22.1 14.85 22.55 15.2 M13.85 11.1 Q15.6 14.8 22.15 20.45 L25.15 22.95 Q32.1 28.4 36.05 28.7 L37.7 28.6" fill="none" stroke="#000000" stroke-linecap="round" stroke-linejoin="round" stroke-opacity="0.3019608" stroke-width="0.05"/>
      <path d="M35.15 32.3 Q34.55 35.7 34.8 39.05 32.95 37.25 29.85 39.05 30.3 35.85 31.55 32.65 L32.6 32.2 Q33.85 31.7 34.5 31.9 L35.15 32.3 M30.0 32.05 Q28.9 34.85 28.4 37.7 27.0 34.95 22.9 36.15 24.55 33.3 26.8 30.5 L26.9 30.4 28.5 30.45 Q29.55 30.8 29.9 31.85 L30.0 32.05" fill="#c48b2d" fill-rule="evenodd" stroke="none"/>
      <path d="M35.8 29.35 L35.9 29.15 36.3 28.6 36.9 28.55 37.35 28.9 37.6 28.1 38.0 27.6 38.7 27.55 39.15 27.95 Q39.35 28.25 39.2 28.65 37.4 34.2 39.85 37.65 L40.0 38.25 39.6 38.8 39.0 39.0 38.5 38.6 38.1 38.05 Q36.75 35.95 36.75 33.15 36.35 35.9 36.45 38.55 L36.55 40.35 36.4 40.95 35.85 41.25 35.15 41.1 34.85 40.55 34.8 39.05 Q34.55 35.7 35.15 32.3 L35.8 29.35" fill="#847535" fill-rule="evenodd" stroke="none"/>
      <path d="M35.8 29.35 L35.15 32.3 34.5 31.9 Q33.85 31.7 32.6 32.2 L31.55 32.65 Q32.35 30.75 33.45 28.75 L33.5 28.65 35.8 29.35 M36.45 38.55 Q36.35 35.9 36.75 33.15 36.75 35.95 38.1 38.05 37.05 38.1 36.45 38.55 M31.85 28.05 Q30.75 30.05 30.0 32.05 L29.9 31.85 Q29.55 30.8 28.5 30.45 L26.9 30.4 26.8 30.5 29.6 27.15 29.65 27.0 31.85 28.05" fill="#855e1e" fill-rule="evenodd" stroke="none"/>
      <path d="M31.85 28.05 L31.95 28.0 Q32.1 27.65 32.45 27.55 L33.1 27.65 33.5 28.15 33.5 28.65 33.45 28.75 Q32.35 30.75 31.55 32.65 30.3 35.85 29.85 39.05 L29.8 39.75 29.5 40.3 28.85 40.5 Q28.5 40.4 28.25 40.15 28.05 39.9 28.1 39.55 L28.4 37.7 Q28.9 34.85 30.0 32.05 30.75 30.05 31.85 28.05 M22.9 36.15 L22.45 36.95 22.0 37.4 21.35 37.3 20.9 36.8 Q20.8 36.45 21.0 36.2 23.75 31.1 28.3 26.0 28.5 25.75 28.9 25.75 L29.5 25.95 29.8 26.55 29.65 27.0 29.6 27.15 26.8 30.5 Q24.55 33.3 22.9 36.15" fill="#ab9846" fill-rule="evenodd" stroke="none"/>
      <path d="M38.1 38.05 L38.5 38.6 39.0 39.0 39.6 38.8 40.0 38.25 39.85 37.65 Q37.4 34.2 39.2 28.65 39.35 28.25 39.15 27.95 L38.7 27.55 38.0 27.6 37.6 28.1 37.35 28.9 36.9 28.55 36.3 28.6 35.9 29.15 35.8 29.35 35.15 32.3 Q34.55 35.7 34.8 39.05 L34.85 40.55 35.15 41.1 35.85 41.25 36.4 40.95 36.55 40.35 36.45 38.55 Q36.35 35.9 36.75 33.15 36.75 35.95 38.1 38.05 37.05 38.1 36.45 38.55 M33.5 28.65 L33.5 28.15 33.1 27.65 32.45 27.55 Q32.1 27.65 31.95 28.0 L31.85 28.05 Q30.75 30.05 30.0 32.05 28.9 34.85 28.4 37.7 L28.1 39.55 Q28.05 39.9 28.25 40.15 28.5 40.4 28.85 40.5 L29.5 40.3 29.8 39.75 29.85 39.05 Q30.3 35.85 31.55 32.65 32.35 30.75 33.45 28.75 L33.5 28.65 35.8 29.35 M29.65 27.0 L29.8 26.55 29.5 25.95 28.9 25.75 Q28.5 25.75 28.3 26.0 23.75 31.1 21.0 36.2 20.8 36.45 20.9 36.8 L21.35 37.3 22.0 37.4 22.45 36.95 22.9 36.15 Q24.55 33.3 26.8 30.5 L29.6 27.15 29.65 27.0 31.85 28.05 M29.85 39.05 Q32.95 37.25 34.8 39.05 M22.9 36.15 Q27.0 34.95 28.4 37.7" fill="none" stroke="#000000" stroke-linecap="round" stroke-linejoin="round" stroke-opacity="0.3019608" stroke-width="0.05"/>
      <path d="M41.45 20.25 Q42.6 22.35 42.45 24.4 L42.45 24.35 Q42.4 25.85 41.55 27.15 L41.4 27.35 41.0 28.1 40.7 28.3 38.4 29.55 38.35 29.6 38.05 29.65 38.0 29.7 36.1 29.85 36.05 29.8 Q30.95 29.45 21.4 21.25 14.6 15.35 12.75 11.45 L12.7 11.4 12.7 11.35 Q11.9 9.55 12.0 8.2 L12.1 7.35 Q12.35 5.75 13.2 5.05 L13.6 4.7 13.65 4.7 Q14.85 3.65 17.35 3.85 L17.4 3.9 Q18.7 3.95 23.0 6.25 L23.05 6.25 25.2 7.55 25.85 7.95 Q24.35 7.15 23.45 6.85 19.65 5.6 18.3 5.5 16.8 5.45 15.6 6.5 L15.15 6.7 15.05 6.85 15.0 6.85 14.85 7.1 14.6 7.8 14.6 7.9 14.55 8.3 Q14.55 9.2 14.95 10.25 L15.0 10.3 15.05 10.3 15.1 10.35 Q16.75 13.85 23.05 19.3 31.7 26.75 36.3 27.3 L37.5 27.2 37.6 27.15 37.65 27.2 37.7 27.15 39.0 26.4 39.25 26.1 39.5 25.6 39.85 24.8 39.85 24.75 Q40.9 23.45 41.35 22.15 41.65 21.3 41.45 20.25 M39.85 24.8 L39.85 24.75 39.85 24.8" fill="#ab9a46" fill-rule="evenodd" stroke="none"/>
      <path d="M41.45 20.25 Q41.65 21.3 41.35 22.15 40.9 23.45 39.85 24.75 L39.85 24.2 39.9 24.2 Q39.95 20.5 33.75 16.4 L33.8 16.4 Q29.95 14.1 28.55 13.0 L25.1 10.55 25.0 10.5 24.3 10.0 24.3 9.95 24.05 9.85 21.75 8.45 Q18.2 6.55 17.15 6.4 L15.6 6.5 Q16.8 5.45 18.3 5.5 19.65 5.6 23.45 6.85 24.35 7.15 25.85 7.95 L25.9 7.95 26.5 8.4 26.5 8.45 30.0 10.95 30.05 10.95 34.3 13.75 35.1 14.25 35.15 14.3 Q39.7 17.25 41.45 20.25" fill="#847535" fill-rule="evenodd" stroke="none"/>
      <path d="M25.85 7.95 L25.2 7.55 23.05 6.25 23.0 6.25 Q18.7 3.95 17.4 3.9 L17.35 3.85 Q14.85 3.65 13.65 4.7 L13.6 4.7 13.2 5.05 Q12.35 5.75 12.1 7.35 L12.0 8.2 Q11.9 9.55 12.7 11.35 L12.7 11.4 12.75 11.45 Q14.6 15.35 21.4 21.25 30.95 29.45 36.05 29.8 L36.1 29.85 38.0 29.7 38.05 29.65 38.35 29.6 38.4 29.55 40.7 28.3 41.0 28.1 41.4 27.35 41.55 27.15 Q42.4 25.85 42.45 24.35 L42.45 24.4 Q42.6 22.35 41.45 20.25 M39.85 24.75 L39.85 24.8 39.5 25.6 39.25 26.1 39.0 26.4 37.7 27.15 37.65 27.2 37.6 27.15 37.5 27.2 36.3 27.3 Q31.7 26.75 23.05 19.3 16.75 13.85 15.1 10.35 L15.05 10.3 15.0 10.3 14.95 10.25 Q14.55 9.2 14.55 8.3 L14.6 7.9 14.6 7.8 14.85 7.1 15.0 6.85 15.05 6.85 15.15 6.7 15.6 6.5 17.15 6.4 Q18.2 6.55 21.75 8.45 L24.05 9.85 24.3 9.95 24.3 10.0 25.0 10.5 25.1 10.55 28.55 13.0 Q29.95 14.1 33.8 16.4 L33.75 16.4 Q39.95 20.5 39.9 24.2 L39.85 24.2 39.85 24.75 39.85 24.8 M25.85 7.95 L25.9 7.95 26.5 8.4 26.5 8.45 30.0 10.95 30.05 10.95 34.3 13.75 35.1 14.25 35.15 14.3 Q39.7 17.25 41.45 20.25 M14.85 7.1 L15.6 6.5" fill="none" stroke="#000000" stroke-linecap="round" stroke-linejoin="round" stroke-opacity="0.3019608" stroke-width="0.05"/>
      <path d="M16.55 21.85 L16.15 21.6 Q15.05 20.75 15.45 19.55 16.95 18.65 17.65 18.65 18.8 18.7 17.45 21.6 17.2 22.15 16.55 21.85" fill="#847535" fill-rule="evenodd" stroke="none"/>
      <path d="M16.55 21.85 L16.15 21.6 Q15.05 20.75 15.45 19.55 16.95 18.65 17.65 18.65" fill="none" stroke="#010101" stroke-linecap="round" stroke-linejoin="round" stroke-opacity="0.0" stroke-width="0.05"/>
      <path d="M17.65 18.65 Q18.8 18.7 17.45 21.6 17.2 22.15 16.55 21.85 Z" fill="none" stroke="#000000" stroke-linecap="round" stroke-linejoin="round" stroke-opacity="0.3019608" stroke-width="0.05"/>
      <path d="M18.9 23.1 Q19.1 21.5 20.6 22.45 22.45 24.4 22.65 25.15 L20.2 25.25 Q18.7 24.75 18.85 23.15 L18.9 23.1 22.65 25.15 18.9 23.1" fill="#847535" fill-rule="evenodd" stroke="none"/>
      <path d="M18.9 23.1 Q19.1 21.5 20.6 22.45 22.45 24.4 22.65 25.15 M18.9 23.1 L22.65 25.15" fill="none" stroke="#010101" stroke-linecap="round" stroke-linejoin="round" stroke-opacity="0.0" stroke-width="0.05"/>
      <path d="M22.65 25.15 L20.2 25.25 Q18.7 24.75 18.85 23.15 L18.9 23.1 Z" fill="none" stroke="#000000" stroke-linecap="round" stroke-linejoin="round" stroke-opacity="0.3019608" stroke-width="0.05"/>
      <path d="M12.2 16.35 L12.25 15.35 12.6 15.15 12.9 15.05 13.25 15.05 Q15.1 15.85 14.5 17.1 L14.25 17.5 14.1 17.7 Q12.45 17.45 12.2 16.35" fill="#847535" fill-rule="evenodd" stroke="none"/>
      <path d="M14.5 17.1 L14.25 17.5 14.1 17.7 Q12.45 17.45 12.2 16.35" fill="none" stroke="#000000" stroke-linecap="round" stroke-linejoin="round" stroke-opacity="0.3019608" stroke-width="0.05"/>
      <path d="M12.2 16.35 L12.25 15.35 12.6 15.15 12.9 15.05 13.25 15.05 Q15.1 15.85 14.5 17.1 Z" fill="none" stroke="#010101" stroke-linecap="round" stroke-linejoin="round" stroke-opacity="0.0" stroke-width="0.05"/>
      <path d="M23.35 20.85 L22.05 19.65 21.35 18.95 23.35 20.8 23.35 20.85" fill="#dada49" fill-rule="evenodd" stroke="none"/>
      <path d="M15.3 14.25 L15.2 14.3 14.75 14.55 14.65 14.45 15.05 14.35 15.15 14.3 15.3 14.25" fill="#bab08b" fill-rule="evenodd" stroke="none"/>
      <path d="M14.75 14.55 L14.65 14.45 14.75 14.55" fill="#664817" fill-rule="evenodd" stroke="none"/>
      <path d="M23.35 20.85 L23.35 20.8 21.35 18.95 20.55 18.25 20.4 18.2 16.15 14.0 15.6 14.1 15.35 14.2 15.3 14.25 15.15 14.3 15.05 14.35 14.65 14.45 14.55 14.45 12.2 16.05 Q10.85 17.5 10.6 19.95 L11.0 20.65 Q11.85 21.95 13.15 23.25 L13.2 23.3 13.4 23.55 13.5 23.65 14.95 25.1 16.6 26.45 17.0 26.8 17.25 26.7 17.35 26.6 17.9 26.45 20.4 24.9 Q22.65 23.2 23.35 20.85 M25.5 20.55 Q24.7 26.05 17.45 28.85 L16.9 28.9 16.5 28.65 Q13.95 26.75 12.15 24.85 L12.0 24.8 12.0 24.65 Q10.0 22.7 8.9 20.6 8.7 20.35 8.8 20.1 9.05 13.05 16.3 11.9 L16.75 11.9 17.2 12.1 21.95 16.65 21.8 16.65 25.2 19.65 25.4 20.05 25.5 20.55" fill="#dba02b" fill-rule="evenodd" stroke="none"/>
      <path d="M12.25 20.65 L14.05 22.9 14.15 22.95 14.4 23.2 14.4 23.3 15.85 24.7 17.55 26.1 17.9 26.45 17.35 26.6 17.25 26.7 17.0 26.8 16.6 26.45 14.95 25.1 13.5 23.65 13.4 23.55 13.2 23.3 13.15 23.25 Q11.85 21.95 11.0 20.65 L10.6 19.95 Q10.85 17.5 12.2 16.05 L14.55 14.45 14.65 14.45 14.75 14.55 Q13.85 15.0 13.05 15.7 11.7 17.15 11.55 19.6 L11.95 20.25 12.25 20.65" fill="#85611a" fill-rule="evenodd" stroke="none"/>
      <path d="M22.05 19.65 L23.35 20.85 Q22.65 23.2 20.4 24.9 L17.9 26.45 17.55 26.1 15.85 24.7 14.4 23.3 14.4 23.2 14.15 22.95 14.05 22.9 12.25 20.65 Q16.05 16.25 22.05 19.65" fill="#847535" fill-rule="evenodd" stroke="none"/>
      <path d="M21.35 18.95 L22.05 19.65 Q16.05 16.25 12.25 20.65 L11.95 20.25 11.55 19.6 Q11.7 17.15 13.05 15.7 13.85 15.0 14.75 14.55 L15.2 14.3 15.3 14.25 15.35 14.2 15.6 14.1 16.15 14.0 20.4 18.2 20.55 18.25 21.35 18.95" fill="#665a28" fill-rule="evenodd" stroke="none"/>
      <path d="M22.05 19.65 L23.35 20.85 M21.35 18.95 L22.05 19.65 M12.25 20.65 L14.05 22.9 14.15 22.95 14.4 23.2 14.4 23.3 15.85 24.7 17.55 26.1 17.9 26.45 20.4 24.9 Q22.65 23.2 23.35 20.85 M25.5 20.55 Q24.7 26.05 17.45 28.85 L16.9 28.9 16.5 28.65 Q13.95 26.75 12.15 24.85 L12.0 24.8 12.0 24.65 Q10.0 22.7 8.9 20.6 8.7 20.35 8.8 20.1 9.05 13.05 16.3 11.9 L16.75 11.9 17.2 12.1 21.95 16.65 21.8 16.65 25.2 19.65 25.4 20.05 25.5 20.55 M21.35 18.95 L20.55 18.25 20.4 18.2 16.15 14.0 15.6 14.1 15.35 14.2 15.3 14.25 15.2 14.3 14.75 14.55 Q13.85 15.0 13.05 15.7 11.7 17.15 11.55 19.6 L11.95 20.25 12.25 20.65" fill="none" stroke="#000000" stroke-linecap="round" stroke-linejoin="round" stroke-opacity="0.3019608" stroke-width="0.05"/>
      <path d="M19.6 20.55 L20.0 20.95 19.8 21.1 19.6 20.55" fill="#bfb591" fill-rule="evenodd" stroke="none"/>
      <path d="M21.95 26.8 L21.7 26.7 Q18.5 25.25 17.25 22.5 L17.2 22.35 Q17.1 21.85 17.25 21.3 17.45 20.7 18.1 20.5 L19.3 20.4 19.6 20.55 19.8 21.1 Q20.2 22.95 22.0 24.05 22.45 24.35 22.6 25.0 L22.35 26.25 21.95 26.8" fill="#dba02b" fill-rule="evenodd" stroke="none"/>
      <path d="M20.0 20.95 L20.1 21.25 Q20.95 22.95 22.95 23.85 L23.65 24.55 23.7 24.75 Q24.0 25.35 23.75 25.95 23.5 26.55 22.9 26.7 L21.95 26.8 22.35 26.25 22.6 25.0 Q22.45 24.35 22.0 24.05 20.2 22.95 19.8 21.1 L20.0 20.95" fill="#85611a" fill-rule="evenodd" stroke="none"/>
      <path d="M21.95 26.8 L21.7 26.7 Q18.5 25.25 17.25 22.5 L17.2 22.35 Q17.1 21.85 17.25 21.3 17.45 20.7 18.1 20.5 L19.3 20.4 19.6 20.55 20.0 20.95 20.1 21.25 Q20.95 22.95 22.95 23.85 L23.65 24.55 23.7 24.75 Q24.0 25.35 23.75 25.95 23.5 26.55 22.9 26.7 L21.95 26.8 Z" fill="none" stroke="#000000" stroke-linecap="round" stroke-linejoin="round" stroke-opacity="0.3019608" stroke-width="0.05"/>
      <path d="M19.8 23.8 L19.8 23.4 17.95 21.4 Q17.8 21.3 17.85 21.55 L18.05 22.7 Q18.7 24.55 19.8 23.8" fill="#ffffff" fill-rule="evenodd" stroke="none"/>
      <path d="M23.1 18.95 L23.2 18.85 21.95 17.25 19.65 14.95 Q18.65 13.8 17.6 14.05 17.5 14.1 17.55 14.25 19.9 17.35 23.1 18.95" fill="#ffffff" fill-rule="evenodd" stroke="none"/>
      <path d="M13.15 13.95 Q13.1 13.65 12.7 13.75 11.7 13.95 11.7 14.9 13.25 15.4 13.15 13.95" fill="#ffffff" fill-rule="evenodd" stroke="none"/>
      <path d="M12.55 14.3 L5.7 10.05 13.0 13.5 14.75 10.4 13.55 13.6 15.3 15.25 13.25 14.65 10.6 19.5 12.55 14.3" fill="#fcf3d8" fill-opacity="0.7921569" fill-rule="evenodd" stroke="none"/>
      <path d="M11.75 12.5 Q12.1 11.8 11.4 10.5 12.1 11.6 13.0 11.85 L14.15 11.8 Q15.0 12.05 15.4 12.8 15.8 13.65 15.45 14.45 L17.0 15.15 15.1 15.0 14.25 15.85 13.15 16.2 12.65 16.95 12.5 16.1 12.4 16.1 Q11.6 15.8 11.2 15.15 10.85 14.3 11.2 13.45 11.4 12.9 11.75 12.5 M13.75 15.05 L14.35 14.4 Q14.5 13.9 14.3 13.55 14.1 13.15 13.7 13.05 L12.8 13.15 Q12.4 13.35 12.2 13.85 12.05 14.3 12.2 14.75 L12.85 15.15 13.75 15.05" fill="#fcf3d8" fill-opacity="0.3019608" fill-rule="evenodd" stroke="none"/>
      <path d="M13.75 15.05 L12.85 15.15 12.2 14.75 Q12.05 14.3 12.2 13.85 12.4 13.35 12.8 13.15 L13.7 13.05 Q14.1 13.15 14.3 13.55 14.5 13.9 14.35 14.4 L13.75 15.05" fill="#fcf3d8" fill-opacity="0.84313726" fill-rule="evenodd" stroke="none"/>
    </g>
  </defs>
</svg>
