<?xml version="1.0" encoding="UTF-8" standalone="no"?>
<svg xmlns:xlink="http://www.w3.org/1999/xlink" height="440.0px" width="440.0px" xmlns="http://www.w3.org/2000/svg">
  <g transform="matrix(10.0, 0.0, 0.0, 10.0, 0.0, 0.0)">
    <use height="44.0" transform="matrix(1.0, 0.0, 0.0, 1.0, 0.0, 0.0)" width="44.0" xlink:href="#shape0"/>
    <use height="7.55" transform="matrix(1.5963, 0.9216, -0.9216, 1.5963, 6.9472, 9.1764)" width="22.05" xlink:href="#sprite0"/>
    <use height="30.5" transform="matrix(1.0, 0.0, 0.0, 1.0, 2.95, 6.85)" width="40.1" xlink:href="#shape2"/>
  </g>
  <defs>
    <g id="shape0" transform="matrix(1.0, 0.0, 0.0, 1.0, 0.0, 0.0)">
      <path d="M44.0 44.0 L0.0 44.0 0.0 0.0 44.0 0.0 44.0 44.0" fill="#43adca" fill-opacity="0.0" fill-rule="evenodd" stroke="none"/>
      <path d="M42.25 29.4 L38.95 35.15 Q37.55 37.55 32.35 36.85 L35.75 30.95 38.65 31.05 Q41.4 30.95 42.25 29.4" fill="#084382" fill-rule="evenodd" stroke="none"/>
      <path d="M12.95 28.3 L8.95 25.0 12.35 19.2 12.35 19.1 16.35 22.35 Q16.15 26.15 12.95 28.3" fill="#0782b6" fill-rule="evenodd" stroke="none"/>
      <path d="M8.95 25.0 L6.25 22.3 Q2.25 17.5 3.75 14.85 L7.05 9.1 Q5.65 12.25 12.35 19.2 L8.95 25.0" fill="#0a92cf" fill-rule="evenodd" stroke="none"/>
      <path d="M15.4 30.0 L12.95 28.3 Q16.15 26.15 16.35 22.35 L18.8 24.1 Q15.25 26.5 15.4 30.0" fill="#229acf" fill-rule="evenodd" stroke="none"/>
      <path d="M7.2 8.9 Q8.8 6.35 14.85 7.45 19.1 8.2 23.75 10.45 26.05 11.45 28.45 12.85 35.7 17.05 39.75 21.85 43.55 26.25 42.6 28.85 L42.35 29.25 42.25 29.4 Q41.4 30.95 38.65 31.05 L35.75 30.95 34.6 30.75 Q28.4 29.65 21.15 25.45 L18.8 24.1 16.35 22.35 12.35 19.1 12.35 19.2 Q5.65 12.25 7.05 9.1 L7.2 8.9 M36.45 27.75 Q37.95 27.55 38.5 26.6 39.65 24.6 36.5 21.0 33.35 17.4 27.7 14.25 25.3 12.75 23.0 11.8 20.1 10.55 17.5 10.05 12.8 9.15 11.75 11.2 11.15 12.0 11.65 13.35 12.15 14.7 13.7 16.6 L13.9 16.8 17.7 20.35 22.35 23.5 Q28.0 26.65 32.7 27.55 L36.45 27.75" fill="#3bb5d6" fill-rule="evenodd" stroke="none"/>
      <path d="M32.35 36.85 L31.15 36.7 Q25.0 35.55 17.75 31.35 L15.4 30.0 Q15.25 26.5 18.8 24.1 L21.15 25.45 Q28.4 29.65 34.6 30.75 L35.75 30.95 32.35 36.85" fill="#0672a8" fill-rule="evenodd" stroke="none"/>
      <path d="M23.0 11.8 Q14.75 11.1 20.35 16.35 15.75 14.1 11.65 13.35 11.15 12.0 11.75 11.2 12.8 9.15 17.5 10.05 20.1 10.55 23.0 11.8" fill="#1b395e" fill-rule="evenodd" stroke="none"/>
      <path d="M23.0 11.8 Q25.3 12.75 27.7 14.25 33.35 17.4 36.5 21.0 39.65 24.6 38.5 26.6 37.95 27.55 36.45 27.75 L36.35 27.75 Q32.3 22.95 25.05 18.75 22.65 17.35 20.35 16.35 14.75 11.1 23.0 11.8" fill="#184c8a" fill-rule="evenodd" stroke="none"/>
      <path d="M7.2 8.9 Q8.8 6.35 14.85 7.45 19.1 8.2 23.75 10.45 26.05 11.45 28.45 12.85 35.7 17.05 39.75 21.85 43.55 26.25 42.6 28.85 L42.35 29.25 42.25 29.4 38.95 35.15 Q37.55 37.55 32.35 36.85 L31.15 36.7 Q25.0 35.55 17.75 31.35 L15.4 30.0 12.95 28.3 8.95 25.0 6.25 22.3 Q2.25 17.5 3.75 14.85 L7.05 9.1 M36.45 27.75 Q37.95 27.55 38.5 26.6 39.65 24.6 36.5 21.0 33.35 17.4 27.7 14.25 25.3 12.75 23.0 11.8 M20.35 16.35 Q22.65 17.35 25.05 18.75 32.3 22.95 36.35 27.75 L36.45 27.75 32.7 27.55 Q28.0 26.65 22.35 23.5 L17.7 20.35 13.9 16.8 13.7 16.6 Q12.15 14.7 11.65 13.35 11.15 12.0 11.75 11.2 12.8 9.15 17.5 10.05 20.1 10.55 23.0 11.8 M11.65 13.35 Q15.75 14.1 20.35 16.35" fill="none" stroke="#000000" stroke-linecap="round" stroke-linejoin="round" stroke-opacity="0.3019608" stroke-width="0.05"/>
      <path d="M18.65 24.9 L18.0 24.85 17.55 24.3 17.65 23.65 18.2 23.25 18.85 23.35 19.3 23.85 19.15 24.55 18.65 24.9" fill="#ffffff" fill-rule="evenodd" stroke="none"/>
      <path d="M23.15 11.9 Q25.45 12.85 27.9 14.3 33.5 17.5 36.7 21.1 39.8 24.7 38.65 26.7 38.1 27.65 36.6 27.85" fill="none" stroke="url(#gradient0)" stroke-linecap="round" stroke-linejoin="round" stroke-width="1.0"/>
      <path d="M6.75 9.45 Q6.45 15.9 19.2 24.6" fill="none" stroke="url(#gradient1)" stroke-linecap="round" stroke-linejoin="round" stroke-width="1.0"/>
    </g>
    <linearGradient gradientTransform="matrix(0.0065, 0.0038, -0.0093, 0.0161, 29.55, 30.8)" gradientUnits="userSpaceOnUse" id="gradient0" spreadMethod="pad" x1="-819.2" x2="819.2">
      <stop offset="0.0" stop-color="#ffffff" stop-opacity="0.0"/>
      <stop offset="0.49411764705882355" stop-color="#ffffff"/>
      <stop offset="1.0" stop-color="#ffffff" stop-opacity="0.0"/>
    </linearGradient>
    <linearGradient gradientTransform="matrix(0.0107, 0.0062, -0.0027, 0.0046, 12.95, 16.95)" gradientUnits="userSpaceOnUse" id="gradient1" spreadMethod="pad" x1="-819.2" x2="819.2">
      <stop offset="0.0" stop-color="#ffffff" stop-opacity="0.0"/>
      <stop offset="0.49411764705882355" stop-color="#ffffff"/>
      <stop offset="1.0" stop-color="#ffffff" stop-opacity="0.0"/>
    </linearGradient>
    <g id="sprite0" transform="matrix(1.0, 0.0, 0.0, 1.0, 11.0, 3.75)">
      <use height="7.55" transform="matrix(1.0, 0.0, 0.0, 1.0, -11.0, -3.75)" width="22.05" xlink:href="#shape1"/>
    </g>
    <g id="shape1" transform="matrix(1.0, 0.0, 0.0, 1.0, 11.0, 3.75)">
      <path d="M9.8 -2.0 Q11.05 -2.8 11.05 -3.65 L11.05 -0.15 Q11.05 1.35 8.4 2.4 L7.8 2.65 Q4.6 3.8 0.05 3.8 L-1.4 3.8 -3.05 3.65 -5.8 3.2 -7.8 2.65 Q-11.0 1.5 -11.0 -0.15 L-11.0 -3.75 Q-10.8 -1.9 -5.8 -0.45 L-5.8 -0.5 -3.05 -0.05 -1.4 0.1 0.05 0.1 Q4.6 0.1 7.8 -1.05 L8.4 -1.3 9.8 -2.0" fill="url(#gradient2)" fill-rule="evenodd" stroke="none"/>
    </g>
    <linearGradient gradientTransform="matrix(-0.009, -0.0015, 7.0E-4, -0.0045, -7.0, 0.15)" gradientUnits="userSpaceOnUse" id="gradient2" spreadMethod="pad" x1="-819.2" x2="819.2">
      <stop offset="0.0" stop-color="#33c5ff" stop-opacity="0.0"/>
      <stop offset="1.0" stop-color="#33ccff"/>
    </linearGradient>
    <g id="shape2" transform="matrix(1.0, 0.0, 0.0, 1.0, -2.95, -6.85)">
      <path d="M22.5 19.7 Q22.0 22.2 20.35 24.55 18.75 26.75 16.65 27.55 14.9 28.8 13.55 27.75 12.5 26.95 12.65 24.55 13.25 22.7 14.8 20.5 16.45 18.1 18.5 16.75 20.55 16.2 21.6 17.05 22.95 18.05 22.5 19.7" fill="#fc1b1b" fill-rule="evenodd" stroke="none"/>
      <path d="M22.5 19.7 Q22.95 18.05 21.6 17.05 20.55 16.2 18.5 16.75 16.45 18.1 14.8 20.5 13.25 22.7 12.65 24.55 12.5 26.95 13.55 27.75 14.9 28.8 16.65 27.55 18.75 26.75 20.35 24.55 22.0 22.2 22.5 19.7 M22.0 16.2 Q24.65 17.6 25.1 21.1 24.8 24.5 22.5 28.25 20.0 31.8 17.25 33.35 14.25 34.8 11.4 33.25 9.25 31.55 9.25 28.25 9.0 24.8 11.55 21.2 13.8 17.5 16.95 15.65 19.85 14.45 22.0 16.2" fill="#780101" fill-rule="evenodd" stroke="none"/>
      <path d="M22.0 16.2 Q19.85 14.45 16.95 15.65 13.8 17.5 11.55 21.2 9.0 24.8 9.25 28.25 9.25 31.55 11.4 33.25 14.25 34.8 17.25 33.35 20.0 31.8 22.5 28.25 24.8 24.5 25.1 21.1 24.65 17.6 22.0 16.2 Z" fill="none" stroke="#000000" stroke-linecap="round" stroke-linejoin="round" stroke-opacity="0.3019608" stroke-width="0.05"/>
      <path d="M17.3 16.8 Q16.0 17.55 15.1 18.8 14.3 20.45 14.35 21.7 14.3 22.95 15.25 23.55 L17.45 23.7 Q18.6 23.2 19.4 21.55 20.3 20.3 20.4 18.8 20.4 17.55 19.45 16.9 L17.3 16.8" fill="#ffffff" fill-rule="evenodd" stroke="none"/>
      <path d="M12.6 26.35 L11.5 27.35 Q11.1 28.15 11.1 28.75 11.1 29.4 11.6 29.7 L12.65 29.75 Q13.25 29.5 13.65 28.7 14.1 28.05 14.15 27.35 14.1 26.7 13.65 26.4 L12.6 26.35" fill="#ffffff" fill-rule="evenodd" stroke="none"/>
      <path d="M42.35 29.25 L42.2 29.5 38.95 35.15 38.4 35.85 Q36.75 37.55 32.25 36.9 L31.05 36.75 Q25.45 35.7 19.0 32.15 L17.25 33.35 Q14.25 34.8 11.4 33.25 9.25 31.55 9.25 28.25 9.15 26.95 9.45 25.65 L8.85 25.05 6.15 22.35 Q2.1 17.55 3.65 14.9 L6.95 9.15 6.85 9.5 7.05 9.1 7.2 8.9 Q8.8 6.35 14.85 7.45 19.1 8.2 23.75 10.45 26.05 11.45 28.45 12.85 35.7 17.05 39.75 21.85 43.55 26.25 42.6 28.85 L42.35 29.25 M25.05 18.75 Q32.3 22.95 36.35 27.75 L36.45 27.75 32.7 27.55 Q28.85 26.8 24.35 24.55 L25.1 21.1 Q24.9 19.45 24.2 18.25 L25.05 18.75 M16.95 15.65 Q15.65 16.4 14.55 17.5 L13.9 16.8 13.7 16.6 Q12.15 14.7 11.65 13.35 14.7 13.9 18.05 15.3 L16.95 15.65" fill="none" stroke="#000000" stroke-linecap="round" stroke-linejoin="round" stroke-opacity="0.3019608" stroke-width="0.5"/>
    </g>
  </defs>
</svg>
