<?xml version="1.0" encoding="UTF-8" standalone="no"?>
<svg xmlns:xlink="http://www.w3.org/1999/xlink" height="440.0px" width="440.0px" xmlns="http://www.w3.org/2000/svg">
  <g transform="matrix(10.0, 0.0, 0.0, 10.0, 0.0, 0.0)">
    <use height="44.0" transform="matrix(1.0, 0.0, 0.0, 1.0, 0.0, 0.0)" width="44.0" xlink:href="#shape0"/>
    <use height="15.35" transform="matrix(1.0, 0.0, 0.0, 1.0, 9.4, 19.1)" width="16.6" xlink:href="#sprite0"/>
    <use height="38.7" transform="matrix(1.0, 0.0, 0.0, 1.0, 0.85, 0.3)" width="29.85" xlink:href="#shape2"/>
  </g>
  <defs>
    <g id="shape0" transform="matrix(1.0, 0.0, 0.0, 1.0, 0.0, 0.0)">
      <path d="M44.0 44.0 L0.0 44.0 0.0 0.0 44.0 0.0 44.0 44.0" fill="#43adca" fill-opacity="0.0" fill-rule="evenodd" stroke="none"/>
      <path d="M24.3 7.9 L23.55 7.85 Q23.15 8.15 23.0 8.7 22.8 9.25 22.9 9.8 23.1 10.35 23.45 10.6 L24.2 10.55 24.85 9.8 24.85 8.6 24.3 7.9 M26.6 10.85 Q26.2 11.15 26.05 11.7 25.85 12.25 25.95 12.8 26.15 13.35 26.5 13.6 L27.25 13.55 27.9 12.8 27.9 11.6 27.35 10.9 26.6 10.85 M28.0 16.65 Q28.2 17.2 28.55 17.45 L29.3 17.4 29.95 16.65 29.95 15.45 29.4 14.75 28.65 14.7 Q28.25 15.0 28.1 15.55 27.9 16.1 28.0 16.65 M30.8 15.75 L33.5 16.85 Q33.7 16.0 32.75 15.35 L32.15 15.1 30.3 14.4 30.35 14.55 30.35 14.6 30.8 15.75 31.3 17.4 31.75 20.1 32.1 21.3 33.55 16.85 33.5 16.85 M5.9 16.4 L5.75 15.9 Q5.5 15.25 5.7 14.6 6.0 12.45 9.6 11.7 L9.8 11.45 10.2 10.85 10.3 10.85 12.2 8.95 Q12.3 8.65 12.55 8.5 L12.85 8.45 12.95 8.35 Q14.2 7.45 15.5 6.9 L15.05 7.5 Q14.85 8.0 15.0 8.5 15.1 9.0 15.45 9.15 15.75 9.35 16.1 9.15 L16.65 8.45 16.65 7.5 16.2 6.8 15.85 6.75 Q19.25 5.4 22.85 6.65 26.65 8.0 29.05 11.65 L30.3 14.4 M30.1 19.3 L29.35 19.25 Q28.95 19.55 28.8 20.1 28.6 20.65 28.7 21.2 L29.25 22.0 29.5 22.1 30.0 21.95 30.65 21.2 30.65 20.0 Q30.5 19.5 30.15 19.3 L30.1 19.3 M31.75 20.1 L31.8 20.55 31.8 20.6 31.8 23.9 M11.4 17.0 Q12.45 15.35 14.05 14.25 17.15 12.0 20.4 13.15 23.6 14.3 25.15 18.2 L25.25 18.5 M28.75 24.15 Q28.6 24.6 28.7 25.05 L29.25 25.85 30.0 25.8 30.65 25.05 30.65 23.85 30.1 23.15 29.35 23.1 29.05 23.45 29.0 23.5 28.8 23.95 28.75 24.15 M27.85 28.05 Q27.65 28.6 27.75 29.15 L28.3 29.95 29.05 29.9 29.7 29.15 29.7 27.95 29.15 27.25 28.4 27.2 Q28.0 27.5 27.85 28.05 M33.7 27.55 Q33.95 27.3 34.35 27.15 35.25 26.75 36.1 27.15 L36.65 27.45 37.3 28.4 Q37.65 29.3 37.25 30.25 36.9 31.15 36.0 31.55 35.05 31.95 34.15 31.55 33.3 31.2 32.95 30.3 L32.8 29.45 33.0 28.45 33.7 27.55 M28.15 34.25 L27.3 35.35 27.05 35.7 27.75 35.05 28.75 34.45 29.5 34.1 Q30.75 33.6 32.1 33.45 L33.3 33.35 33.6 33.35 35.9 32.8 Q38.05 32.35 38.85 31.4 L39.1 30.95 39.15 30.8 39.55 30.15 39.6 30.1 39.25 29.95 Q38.9 29.65 38.85 29.0 38.8 28.35 39.05 27.65 L39.25 27.25 39.75 26.65 40.6 26.7 40.65 26.75 40.8 26.9 40.85 26.65 41.1 25.2 41.1 24.25 41.4 23.25 Q42.0 20.8 37.9 18.05 L37.4 17.7 36.75 17.55 36.35 17.75 36.0 18.15 36.35 18.35 Q40.65 20.95 40.35 23.05 L40.25 23.4 Q39.45 24.95 35.3 25.25 34.6 25.1 34.0 24.55 L33.95 24.5 Q33.0 23.6 32.3 21.8 M34.0 24.55 L35.95 18.1 36.0 18.15 M40.8 26.9 L41.0 27.65 40.8 29.0 40.05 29.95 39.6 30.1 M26.5 31.25 L26.15 31.35 Q25.8 31.55 25.65 32.0 25.5 32.45 25.6 32.85 L25.6 33.0 Q25.7 33.5 26.05 33.65 L26.25 33.75 26.7 33.65 27.25 32.95 27.25 32.0 27.15 31.75 26.8 31.3 26.5 31.25 M27.05 35.7 L26.95 35.75 24.35 37.95 Q19.6 41.5 14.5 39.7 9.3 37.8 6.95 31.65 L6.25 29.5 6.15 29.0 Q5.95 28.8 5.9 28.45 5.75 28.1 5.9 27.7 5.7 26.75 5.65 25.8 L4.5 24.4 4.4 24.1 4.3 24.0 4.25 23.85 4.2 23.7 4.15 23.45 4.15 23.35 Q3.7 22.8 3.5 21.95 3.15 20.8 3.55 19.55 3.9 18.45 4.7 17.9 L5.35 16.35 M19.1 7.15 Q18.9 7.7 19.0 8.25 19.2 8.8 19.55 9.05 L20.3 9.0 20.95 8.25 20.95 7.05 Q20.8 6.55 20.4 6.35 L19.65 6.3 Q19.25 6.6 19.1 7.15 M12.2 8.95 L12.1 9.15 Q11.95 9.6 12.1 9.95 L12.5 10.6 13.1 10.55 13.55 10.0 13.55 9.1 13.15 8.5 12.85 8.45 M8.25 13.75 L7.95 13.8 Q7.65 14.0 7.5 14.45 7.35 14.9 7.5 15.25 L7.9 15.9 8.5 15.85 8.95 15.3 8.95 14.4 8.55 13.8 8.25 13.75 8.6 13.15 Q7.05 13.75 6.8 14.85 6.7 15.3 6.9 15.75 L7.1 16.2 7.45 15.4 7.5 15.25 M9.8 11.45 L9.75 11.5 Q9.6 11.95 9.75 12.3 9.85 12.8 10.15 12.95 L10.75 12.9 11.2 12.35 11.2 11.45 10.8 10.85 Q10.55 10.7 10.3 10.85 M8.6 13.15 L9.6 11.7 M9.45 22.75 L9.8 20.85 Q10.25 19.1 11.0 17.65 M6.6 17.7 L6.5 17.7 6.15 18.15 6.05 18.35 6.0 19.05 6.05 19.15 6.45 19.8 7.05 19.75 7.35 19.55 7.4 19.5 7.5 19.2 7.55 18.95 7.5 18.3 7.1 17.7 Q6.85 17.55 6.6 17.7 L6.65 17.5 7.1 16.2 M4.7 17.9 L4.9 17.75 6.5 17.7 M5.45 22.25 L5.85 22.9 6.45 22.85 6.9 22.3 6.9 21.4 6.5 20.8 Q6.2 20.65 5.9 20.8 5.6 21.0 5.45 21.45 5.3 21.9 5.45 22.25 M6.3 23.7 L5.9 23.75 5.75 23.9 5.6 24.15 5.45 24.4 Q5.3 24.85 5.45 25.2 L5.65 25.7 5.85 25.85 6.45 25.8 6.9 25.25 7.0 24.9 6.95 24.6 6.9 24.35 6.5 23.75 6.3 23.7 6.35 23.65 7.0 23.2 M5.6 24.15 L5.6 23.95 4.6 23.7 4.15 23.35 M5.6 23.95 L5.75 23.9 M5.65 25.8 L5.65 25.7 M6.15 29.0 L6.2 29.05 6.3 29.1 6.9 29.05 7.35 28.5 7.35 27.6 6.95 27.0 Q6.65 26.85 6.35 27.0 6.05 27.2 5.9 27.65 L5.9 27.7 M9.4 25.95 Q9.3 24.95 9.35 23.95 M22.05 34.95 L22.0 34.95 21.8 35.35 Q21.6 35.85 21.75 36.35 L21.8 36.45 22.2 37.0 22.45 37.1 22.85 37.0 23.25 36.6 23.4 36.3 23.4 35.35 22.95 34.65 22.45 34.65 22.3 34.7 22.05 34.95 M17.7 37.7 L17.75 38.3 17.85 38.55 17.85 38.6 18.2 38.95 Q18.5 39.15 18.85 38.95 L19.4 38.35 19.4 38.25 19.45 37.4 19.4 37.3 18.95 36.6 18.75 36.55 18.3 36.65 17.8 37.3 17.7 37.7 M14.0 38.3 Q14.1 38.8 14.45 38.95 14.75 39.15 15.1 38.95 L15.65 38.25 15.65 37.3 15.2 36.6 14.55 36.65 14.05 37.3 Q13.85 37.8 14.0 38.3 M16.1 38.6 L17.85 38.6 M19.4 38.35 L20.7 37.9 M9.15 33.35 Q8.85 33.55 8.7 34.0 8.55 34.45 8.7 34.8 8.8 35.3 9.1 35.45 L9.7 35.4 10.15 34.85 10.15 33.95 9.75 33.35 Q9.45 33.2 9.15 33.35 M8.1 30.15 Q7.8 30.0 7.5 30.15 L7.2 30.55 7.05 30.8 Q6.9 31.25 7.05 31.6 7.15 32.1 7.45 32.25 L8.05 32.2 8.45 31.85 8.5 31.65 8.55 30.9 8.5 30.75 8.3 30.35 8.1 30.15 M11.7 38.05 Q12.0 38.25 12.35 38.05 L12.9 37.35 12.9 36.4 Q12.75 35.9 12.45 35.7 L11.8 35.75 11.3 36.4 Q11.1 36.9 11.25 37.4 11.35 37.9 11.7 38.05" fill="none" stroke="#000000" stroke-linecap="round" stroke-linejoin="round" stroke-opacity="0.3019608" stroke-width="0.7000000000000001"/>
      <path d="M9.8 28.55 L9.75 28.5 9.8 28.5 9.8 28.55" fill="#734e38" fill-rule="evenodd" stroke="none"/>
      <path d="M29.65 26.35 L29.8 26.35 29.75 26.4 29.65 26.35" fill="#a67348" fill-rule="evenodd" stroke="none"/>
      <path d="M19.85 25.0 L20.9 25.25 20.85 25.45 Q20.35 25.15 19.85 25.0" fill="#473321" fill-rule="evenodd" stroke="none"/>
      <path d="M36.0 18.1 L36.35 18.3 Q40.65 20.9 40.35 23.0 L40.25 23.35 Q39.75 22.3 38.2 21.15 L38.2 21.1 38.2 21.05 38.15 21.1 Q36.95 20.2 35.55 19.4 L35.95 18.05 36.0 18.1 M13.9 12.35 L20.9 13.05 24.6 13.75 Q29.6 15.05 33.5 16.8 L33.55 16.8 33.1 18.1 31.9 17.6 31.65 17.5 Q28.8 16.35 25.4 15.6 L24.6 15.45 20.9 14.75 12.8 14.1 13.15 13.55 13.65 12.65 13.9 12.35" fill="#5e3e2c" fill-rule="evenodd" stroke="none"/>
      <path d="M40.25 23.35 Q39.45 24.95 35.05 25.2 L35.0 25.2 33.7 25.35 35.55 19.4 Q36.95 20.2 38.15 21.1 L38.2 21.1 38.2 21.15 Q39.75 22.3 40.25 23.35 M13.95 21.05 L13.25 20.7 12.75 19.5 12.7 19.45 Q11.75 16.65 12.8 14.1 L12.7 14.1 12.45 14.1 11.45 14.3 10.65 14.4 Q8.05 14.75 6.9 15.7 6.7 15.25 6.8 14.8 7.3 12.75 12.2 12.4 L13.9 12.35 13.65 12.65 13.15 13.55 12.8 14.1 20.9 14.75 24.6 15.45 25.4 15.6 Q28.8 16.35 31.65 17.5 L31.9 17.6 33.1 18.1 31.0 24.65 27.1 23.25 26.35 23.05 24.9 22.6 24.35 22.55 24.3 22.55 24.2 22.45 23.9 22.45 22.65 22.05 20.9 21.7 15.6 21.1 13.95 21.05" fill="#2b1f14" fill-rule="evenodd" stroke="none"/>
      <path d="M24.9 22.6 L24.4 22.6 24.35 22.55 24.9 22.6" fill="#2e1905" fill-rule="evenodd" stroke="none"/>
      <path d="M38.15 21.1 L38.2 21.05 38.2 21.1 38.15 21.1" fill="#6c2206" fill-rule="evenodd" stroke="none"/>
      <path d="M14.55 28.55 L14.45 28.55 14.5 28.5 14.55 28.55" fill="#d4a32a" fill-rule="evenodd" stroke="none"/>
      <path d="M40.3 28.55 L40.2 28.8 40.1 28.8 40.3 28.55" fill="#bf8f26" fill-rule="evenodd" stroke="none"/>
      <path d="M13.25 20.7 Q12.0 20.05 10.9 19.4 L10.85 19.4 Q7.45 17.4 6.9 15.7 8.05 14.75 10.65 14.4 L11.45 14.3 12.45 14.1 12.7 14.1 12.8 14.1 Q11.75 16.65 12.7 19.45 L12.75 19.5 13.25 20.7" fill="#0d0906" fill-rule="evenodd" stroke="none"/>
      <path d="M5.75 15.85 L5.9 16.35 Q6.7 18.1 10.05 20.1 L10.0 20.4 9.85 20.9 Q9.05 24.8 9.8 28.5 L9.75 28.5 9.35 28.35 7.05 26.95 6.7 26.7 5.9 26.0 4.5 24.35 4.4 24.05 4.3 23.95 4.25 23.8 4.2 23.65 4.15 23.4 4.15 23.25 4.05 22.6 4.05 22.3 4.05 22.2 4.0 21.2 Q4.1 18.9 5.35 16.3 L5.75 15.85 M32.3 27.75 L36.1 27.7 40.15 26.95 40.85 26.6 40.5 27.9 40.35 28.25 40.3 28.55 40.1 28.8 40.2 28.8 39.55 30.1 39.15 30.75 39.1 30.9 38.85 31.35 Q38.05 32.3 35.9 32.75 L33.3 33.3 31.4 33.4 30.45 33.5 30.0 33.45 29.95 33.45 30.6 32.5 31.55 30.3 32.3 27.9 32.3 27.8 32.3 27.75" fill="#820000" fill-rule="evenodd" stroke="none"/>
      <path d="M10.05 20.1 L10.35 20.3 Q10.65 20.45 11.0 20.7 15.65 23.4 22.4 25.0 L24.6 25.5 32.6 26.4 32.3 27.75 32.3 27.8 32.3 27.9 31.55 30.3 30.6 32.5 29.95 33.45 29.75 33.45 28.95 33.4 26.95 33.35 26.2 33.15 25.65 33.05 23.3 32.85 20.8 32.3 20.45 32.3 15.9 31.1 14.45 30.6 14.35 30.6 14.05 30.5 13.4 30.2 10.45 28.8 10.1 28.75 9.8 28.55 9.8 28.5 Q9.05 24.8 9.85 20.9 L10.0 20.4 10.05 20.1 M19.85 25.0 Q20.35 25.15 20.85 25.45 L20.9 25.25 19.85 25.0 M29.65 26.35 L29.75 26.4 29.8 26.35 29.65 26.35 M14.55 28.55 L14.5 28.5 14.45 28.55 14.55 28.55" fill="#540000" fill-rule="evenodd" stroke="none"/>
      <path d="M40.25 23.35 L40.35 23.0 Q40.65 20.9 36.35 18.3 L36.0 18.1 36.35 17.7 36.75 17.5 37.4 17.65 37.9 18.0 Q42.0 20.75 41.4 23.2 L41.1 24.2 Q40.5 25.05 39.05 25.6 L35.1 26.3 32.6 26.4 24.6 25.5 22.4 25.0 Q15.65 23.4 11.0 20.7 10.65 20.45 10.35 20.3 L10.05 20.1 Q6.7 18.1 5.9 16.35 L5.75 15.85 Q5.5 15.2 5.7 14.55 6.1 11.75 12.1 11.3 L12.15 11.3 20.9 11.95 24.6 12.7 24.8 12.75 Q28.8 13.7 32.15 15.05 L32.75 15.3 Q33.7 15.95 33.5 16.8 29.6 15.05 24.6 13.75 L20.9 13.05 13.9 12.35 12.2 12.4 Q7.3 12.75 6.8 14.8 6.7 15.25 6.9 15.7 7.45 17.4 10.85 19.4 L10.9 19.4 Q12.0 20.05 13.25 20.7 L13.95 21.05 Q17.65 22.8 22.65 24.0 L24.6 24.45 30.8 25.25 32.65 25.35 33.7 25.35 35.0 25.2 35.05 25.2 Q39.45 24.95 40.25 23.35" fill="#ffcc00" fill-rule="evenodd" stroke="none"/>
      <path d="M32.6 26.4 L35.1 26.3 39.05 25.6 Q40.5 25.05 41.1 24.2 L41.1 25.15 40.85 26.6 40.15 26.95 36.1 27.7 32.3 27.75 32.6 26.4" fill="#c90000" fill-rule="evenodd" stroke="none"/>
      <path d="M36.0 18.1 L36.35 18.3 Q40.65 20.9 40.35 23.0 L40.25 23.35 Q39.45 24.95 35.05 25.2 L35.0 25.2 33.7 25.35 32.65 25.35 30.8 25.25 24.6 24.45 22.65 24.0 Q17.65 22.8 13.95 21.05 L13.25 20.7 Q12.0 20.05 10.9 19.4 L10.85 19.4 Q7.45 17.4 6.9 15.7 6.7 15.25 6.8 14.8 7.3 12.75 12.2 12.4 L13.9 12.35 20.9 13.05 24.6 13.75 Q29.6 15.05 33.5 16.8 33.7 15.95 32.75 15.3 L32.15 15.05 Q28.8 13.7 24.8 12.75 L24.6 12.7 20.9 11.95 12.15 11.3 12.1 11.3 Q6.1 11.75 5.7 14.55 5.5 15.2 5.75 15.85 L5.9 16.35 M41.1 24.2 L41.4 23.2 Q42.0 20.75 37.9 18.0 L37.4 17.65 36.75 17.5 36.35 17.7 36.0 18.1 35.95 18.05 M38.15 21.1 L38.2 21.05 M40.85 26.6 L41.1 25.15 41.1 24.2 M40.85 26.6 L40.5 27.9 40.35 28.25 M40.3 28.55 L40.2 28.8 39.55 30.1 39.15 30.75 39.1 30.9 38.85 31.35 Q38.05 32.3 35.9 32.75 L33.3 33.3 31.4 33.4 30.45 33.5 30.0 33.45 29.95 33.45 29.75 33.45 28.95 33.4 26.95 33.35 26.2 33.15 25.65 33.05 23.3 32.85 20.8 32.3 20.45 32.3 15.9 31.1 14.45 30.6 14.35 30.6 14.05 30.5 13.4 30.2 10.45 28.8 10.1 28.75 9.8 28.55 9.75 28.5 9.35 28.35 7.05 26.95 6.7 26.7 5.9 26.0 4.5 24.35 4.4 24.05 4.3 23.95 4.25 23.8 4.2 23.65 4.15 23.4 4.15 23.25 4.05 22.6 4.05 22.3 4.05 22.2 4.0 21.2 Q4.1 18.9 5.35 16.3 M33.55 16.8 L33.5 16.8 M24.35 22.55 L24.3 22.55 24.2 22.45 23.9 22.45 22.65 22.05 20.9 21.7 15.6 21.1 13.95 21.05 M24.9 22.6 L24.4 22.6 24.35 22.55 24.9 22.6 26.35 23.05 27.1 23.25 31.0 24.65" fill="none" stroke="#000000" stroke-linecap="round" stroke-linejoin="round" stroke-opacity="0.3019608" stroke-width="0.05"/>
      <path d="M35.35 26.25 Q33.7 26.25 32.1 24.0 L31.8 23.6 31.75 20.05 Q32.6 23.15 33.95 24.45 34.6 25.05 35.35 25.2 L35.35 26.2 35.35 26.25" fill="#ffcc00" fill-rule="evenodd" stroke="none"/>
      <path d="M31.4 26.65 L31.5 26.7 Q33.1 27.6 35.3 27.75 L34.5 31.35 33.95 32.65 33.6 33.3 Q30.6 33.3 28.35 34.6 L26.95 35.7 Q29.9 32.45 31.15 27.55 L31.4 26.65" fill="#820000" fill-rule="evenodd" stroke="none"/>
      <path d="M31.8 23.6 L32.1 24.0 Q33.7 26.25 35.35 26.25 L35.3 27.75 Q33.1 27.6 31.5 26.7 L31.4 26.65 31.8 23.6" fill="#c90000" fill-rule="evenodd" stroke="none"/>
      <path d="M35.35 25.2 Q34.6 25.05 33.95 24.45 32.6 23.15 31.75 20.05 M33.6 33.3 Q30.6 33.3 28.35 34.6 L26.95 35.7" fill="none" stroke="#000000" stroke-linecap="round" stroke-linejoin="round" stroke-opacity="0.3019608" stroke-width="0.05"/>
      <path d="M37.8 28.75 Q38.15 29.75 37.75 30.75 37.3 31.8 36.3 32.25 35.25 32.7 34.3 32.25 33.3 31.85 32.95 30.85 32.55 29.85 33.0 28.8 33.4 27.8 34.45 27.35 L36.45 27.3 Q37.4 27.75 37.8 28.75" fill="#000000" fill-opacity="0.4" fill-rule="evenodd" stroke="none"/>
      <path d="M36.0 31.5 Q35.05 31.9 34.15 31.5 33.3 31.15 32.95 30.25 32.65 29.35 33.0 28.4 33.4 27.5 34.35 27.1 35.25 26.7 36.1 27.1 37.0 27.45 37.3 28.35 37.65 29.25 37.25 30.2 36.9 31.1 36.0 31.5" fill="#ffcc00" fill-rule="evenodd" stroke="none"/>
      <path d="M36.0 31.5 Q35.05 31.9 34.15 31.5 33.3 31.15 32.95 30.25 32.65 29.35 33.0 28.4 33.4 27.5 34.35 27.1 35.25 26.7 36.1 27.1 37.0 27.45 37.3 28.35 37.65 29.25 37.25 30.2 36.9 31.1 36.0 31.5 Z" fill="none" stroke="#000000" stroke-linecap="round" stroke-linejoin="round" stroke-opacity="0.3019608" stroke-width="0.05"/>
      <path d="M36.0 27.5 Q36.45 27.65 36.7 27.9 L36.65 27.9 35.2 27.85 Q34.45 28.2 34.1 29.0 33.75 29.75 34.05 30.55 L34.35 31.15 Q33.7 30.85 33.45 30.1 33.1 29.3 33.45 28.6 33.75 27.85 34.5 27.5 35.3 27.15 36.0 27.5" fill="#ffffff" fill-rule="evenodd" stroke="none"/>
      <path d="M40.8 28.95 L40.05 29.9 Q39.6 30.2 39.25 29.9 38.9 29.6 38.85 28.95 38.8 28.3 39.05 27.6 39.3 26.9 39.75 26.6 L40.6 26.65 Q40.95 26.95 41.0 27.6 L40.8 28.95" fill="#ffcc00" fill-rule="evenodd" stroke="none"/>
      <path d="M40.8 28.95 L40.05 29.9 Q39.6 30.2 39.25 29.9 38.9 29.6 38.85 28.95 38.8 28.3 39.05 27.6 39.3 26.9 39.75 26.6 L40.6 26.65 Q40.95 26.95 41.0 27.6 L40.8 28.95 Z" fill="none" stroke="#000000" stroke-linecap="round" stroke-linejoin="round" stroke-opacity="0.3019608" stroke-width="0.05"/>
      <path d="M39.4 29.25 L39.5 29.75 Q39.2 29.5 39.15 28.95 39.1 28.4 39.3 27.85 39.55 27.2 39.9 27.0 L40.6 27.05 40.85 27.4 40.85 27.35 Q40.55 27.15 40.15 27.35 39.75 27.6 39.55 28.15 L39.4 29.25" fill="#fff2c2" fill-rule="evenodd" stroke="none"/>
      <path d="M7.65 21.9 Q8.05 20.65 7.75 19.4 7.4 18.2 6.55 17.7 5.75 17.2 4.9 17.7 3.95 18.25 3.55 19.5 3.15 20.75 3.5 21.9 3.8 23.15 4.6 23.65 L6.35 23.6 Q7.25 23.15 7.65 21.9" fill="#ffcc00" fill-rule="evenodd" stroke="none"/>
      <path d="M7.65 21.9 Q8.05 20.65 7.75 19.4 7.4 18.2 6.55 17.7 5.75 17.2 4.9 17.7 3.95 18.25 3.55 19.5 3.15 20.75 3.5 21.9 3.8 23.15 4.6 23.65 L6.35 23.6 Q7.25 23.15 7.65 21.9 Z" fill="none" stroke="#000000" stroke-linecap="round" stroke-linejoin="round" stroke-opacity="0.3019608" stroke-width="0.05"/>
      <path d="M4.0 21.8 L4.35 22.75 4.35 22.7 Q4.05 21.75 4.35 20.7 4.75 19.6 5.45 19.2 6.2 18.75 6.95 19.2 L7.45 19.65 Q7.2 18.7 6.5 18.25 L5.15 18.3 Q4.35 18.75 4.05 19.8 3.7 20.8 4.0 21.8" fill="#ffffff" fill-rule="evenodd" stroke="none"/>
      <path d="M14.1 28.35 L14.2 28.35 14.15 28.3 14.1 28.35 M29.25 26.2 L29.35 26.15 29.2 26.15 29.25 26.2 M21.7 24.2 L22.0 24.25 24.6 24.75 25.25 24.8 Q27.0 22.4 30.85 18.3 L32.3 21.7 31.8 28.15 31.35 30.2 30.45 32.45 29.5 34.15 Q29.85 33.45 23.5 37.85 L20.5 32.25 20.35 32.25 15.7 31.0 14.3 30.5 14.15 30.5 13.8 30.35 13.2 30.1 Q11.6 29.45 10.15 28.65 L9.8 28.6 9.45 28.35 9.45 28.3 Q8.55 24.55 9.15 20.45 L9.2 19.95 9.35 19.4 10.55 20.2 10.95 20.3 Q11.15 20.4 11.4 20.65 L11.7 20.7 12.7 21.25 13.2 21.45 14.75 22.15 21.7 24.2 M20.35 25.15 L20.4 25.0 19.3 24.7 Q19.85 24.85 20.35 25.15" fill="#000000" fill-opacity="0.3019608" fill-rule="evenodd" stroke="none"/>
      <path d="M6.15 28.9 Q4.95 23.9 6.25 18.75 8.05 11.9 12.95 8.3 17.75 4.8 22.85 6.6 26.65 7.95 29.05 11.6 L30.35 14.5 30.35 14.55 Q30.65 19.0 29.0 23.45 26.5 29.95 21.2 33.0 16.1 35.9 11.2 33.7 7.95 32.15 6.15 28.9 M23.55 20.95 L23.0 20.6 22.65 20.55 22.55 20.45 21.85 20.45 21.35 20.75 Q20.75 21.15 20.35 22.05 19.9 22.95 19.6 24.25 19.2 26.4 19.45 27.7 19.7 28.85 20.65 29.1 L20.75 29.15 21.1 29.25 21.6 29.2 22.1 29.0 22.45 29.0 22.5 28.7 22.45 28.4 22.5 28.25 22.55 27.9 22.65 27.3 22.8 26.8 22.85 26.45 23.0 26.2 23.1 26.2 23.25 26.15 23.3 25.75 23.05 25.7 22.85 25.65 22.85 25.55 22.55 25.5 22.15 25.4 21.65 25.3 21.3 25.2 21.25 25.35 21.2 25.45 21.2 25.6 21.4 25.8 21.55 25.85 21.6 26.25 21.6 26.7 21.45 27.35 21.3 28.0 21.2 28.2 21.1 28.35 21.05 28.5 20.8 28.05 20.6 26.5 20.9 24.45 Q21.1 23.2 21.45 22.5 21.75 21.65 22.1 21.35 L22.45 21.2 22.6 21.3 22.8 21.65 22.85 22.35 22.65 23.45 22.75 23.45 22.8 23.45 22.95 23.35 23.1 22.55 23.25 21.75 23.3 21.7 23.3 21.75 23.35 22.5 23.15 23.6 23.3 23.65 23.35 23.65 23.45 23.5 23.6 22.7 23.8 21.9 24.0 21.25 23.55 20.95 M20.35 20.3 L20.15 20.2 20.1 20.15 19.85 20.1 19.45 20.0 19.05 19.9 18.8 19.85 18.65 20.0 18.6 20.25 18.7 20.4 18.85 20.45 18.95 20.65 19.05 20.9 19.05 21.35 18.8 22.55 18.5 24.15 18.4 24.5 18.3 23.5 18.2 21.9 18.0 20.55 18.0 20.05 18.0 19.8 17.85 19.7 17.6 19.6 17.5 19.6 17.5 19.55 17.45 19.55 17.25 19.5 17.15 19.5 16.75 19.4 16.45 19.3 16.45 19.4 16.35 19.35 16.15 19.3 16.15 19.25 15.85 19.2 15.4 19.05 14.9 18.95 14.6 18.9 14.6 18.95 14.4 18.9 14.3 18.9 14.3 18.8 14.15 18.8 13.9 18.75 13.6 18.65 13.2 18.55 12.95 18.5 12.95 18.55 12.7 18.45 12.55 18.45 12.55 18.4 12.2 18.35 11.85 18.25 11.3 18.15 11.05 18.05 11.0 18.2 10.95 18.45 10.95 18.6 11.1 18.65 11.2 18.85 11.25 18.95 11.25 19.4 11.0 20.5 10.7 22.1 10.45 23.3 10.25 24.2 10.05 24.95 9.95 25.5 9.7 25.75 9.6 25.7 Q9.55 25.7 9.45 25.8 L9.35 26.2 9.6 26.3 9.85 26.35 9.85 26.4 10.15 26.45 10.65 26.55 10.9 26.6 11.1 26.65 11.4 26.7 11.5 26.35 11.35 26.1 11.25 26.1 11.2 25.8 11.25 25.3 11.45 24.2 11.55 25.15 11.65 26.2 11.7 26.45 11.85 26.65 11.95 26.8 12.3 27.0 12.6 27.05 12.7 27.05 12.8 27.1 13.05 27.25 13.35 27.2 13.4 27.15 13.4 27.2 13.75 27.25 14.25 27.4 14.7 27.5 14.95 27.55 15.0 27.55 15.05 27.55 15.25 27.6 15.55 27.65 15.9 27.75 16.3 27.85 16.55 27.95 16.6 27.75 16.6 27.65 16.7 27.55 16.5 27.35 16.4 27.25 16.3 27.0 16.4 26.35 16.5 25.55 16.8 24.35 17.05 23.0 17.1 24.1 17.25 25.7 Q17.25 26.5 17.4 27.1 L17.45 28.2 17.6 28.25 17.8 28.2 17.9 28.3 17.95 28.15 17.95 28.4 18.1 28.45 18.3 28.4 18.4 28.5 18.55 27.55 18.8 26.6 19.35 23.7 19.85 21.65 20.0 21.0 20.25 20.95 20.35 20.85 20.45 20.9 20.55 20.7 20.6 20.45 20.55 20.35 20.35 20.3 M14.4 19.6 L14.65 19.55 14.7 19.5 14.75 19.65 14.8 19.8 14.75 20.2 14.65 20.9 14.5 21.7 14.25 22.75 14.0 24.1 13.8 25.15 13.55 25.95 13.5 26.35 13.25 26.55 13.15 26.55 13.15 26.25 13.05 26.15 12.9 25.15 12.75 24.25 12.65 23.25 12.55 22.25 13.8 20.15 14.15 19.65 14.4 19.6 M12.75 19.05 L12.9 19.1 13.0 19.1 13.1 19.3 13.15 19.3 13.15 19.4 13.05 19.8 12.85 20.15 12.0 21.65 12.0 21.5 12.25 20.45 12.4 19.7 12.5 19.25 12.7 19.2 12.75 19.05 M13.5 20.0 L13.35 20.35 12.4 21.8 12.1 22.25 12.1 22.1 13.3 20.0 13.6 19.5 13.65 19.5 13.65 19.55 13.5 20.0 M19.55 21.05 L19.55 21.5 19.35 22.7 19.0 24.35 18.7 25.9 18.6 26.05 18.5 25.3 18.85 23.55 19.35 21.55 19.5 20.85 19.55 20.85 19.55 21.05 M16.55 19.9 L16.65 20.1 16.65 20.5 16.65 20.95 16.3 22.55 16.0 24.15 15.7 25.45 15.5 26.2 15.35 26.6 15.2 26.85 15.0 26.95 14.9 27.0 14.8 26.95 14.75 26.65 14.85 26.25 15.0 25.0 15.4 23.15 15.75 21.55 16.0 20.55 16.05 20.1 16.25 20.0 16.3 19.9 16.5 19.95 16.55 19.9 M16.8 22.6 L16.45 24.2 16.2 25.55 15.95 26.4 15.85 26.75 15.8 26.9 15.8 26.85 15.85 26.15 16.05 25.4 16.3 24.2 16.6 22.7 16.85 21.5 16.9 22.1 16.8 22.6" fill="#c90000" fill-rule="evenodd" stroke="none"/>
      <path d="M30.35 14.55 Q31.45 17.25 31.75 20.05 L31.8 23.85 31.15 27.55 30.45 29.8 30.2 30.5 Q29.35 32.5 28.15 34.2 L26.95 35.7 24.35 37.9 Q19.6 41.45 14.5 39.65 9.3 37.75 6.95 31.6 L6.25 29.45 6.15 28.9 Q7.95 32.15 11.2 33.7 16.1 35.9 21.2 33.0 26.5 29.95 29.0 23.45 30.65 19.0 30.35 14.55" fill="#650101" fill-rule="evenodd" stroke="none"/>
      <path d="M6.15 28.9 Q4.95 23.9 6.25 18.75 8.05 11.9 12.95 8.3 17.75 4.8 22.85 6.6 26.65 7.95 29.05 11.6 L30.35 14.5 30.35 14.55 Q31.45 17.25 31.75 20.05 L31.8 23.85 M28.15 34.2 L26.95 35.7 24.35 37.9 Q19.6 41.45 14.5 39.65 9.3 37.75 6.95 31.6 L6.25 29.45 6.15 28.9 Z" fill="none" stroke="#000000" stroke-linecap="round" stroke-linejoin="round" stroke-opacity="0.3019608" stroke-width="0.05"/>
      <path d="M20.95 8.2 L20.95 7.0 Q20.8 6.5 20.4 6.3 L19.65 6.25 Q19.25 6.55 19.1 7.1 18.9 7.65 19.0 8.2 19.2 8.75 19.55 9.0 L20.3 8.95 20.95 8.2" fill="#ffcc00" fill-rule="evenodd" stroke="none"/>
      <path d="M20.95 8.2 L20.95 7.0 Q20.8 6.5 20.4 6.3 L19.65 6.25 Q19.25 6.55 19.1 7.1 18.9 7.65 19.0 8.2 19.2 8.75 19.55 9.0 L20.3 8.95 20.95 8.2 Z" fill="none" stroke="#000000" stroke-linecap="round" stroke-linejoin="round" stroke-opacity="0.3019608" stroke-width="0.05"/>
      <path d="M19.3 8.15 L19.45 8.6 19.45 8.55 Q19.3 8.15 19.5 7.65 19.6 7.2 19.95 6.95 L20.6 7.0 20.9 7.2 20.4 6.6 Q20.1 6.35 19.8 6.6 L19.3 7.25 Q19.15 7.7 19.3 8.15" fill="#ffffff" fill-rule="evenodd" stroke="none"/>
      <path d="M27.5 18.4 Q27.5 20.65 26.9 23.0 25.55 28.4 21.55 31.3 17.7 34.1 13.65 32.6 9.55 31.15 7.65 26.3 L6.95 24.05 Q6.95 21.8 7.55 19.5 8.85 14.15 12.85 11.1 16.7 8.4 20.75 9.9 24.85 11.3 26.8 16.15 L27.5 18.4" fill="#d18810" fill-rule="evenodd" stroke="none"/>
      <path d="M6.95 24.05 L7.65 26.3 Q9.55 31.15 13.65 32.6 17.7 34.1 21.55 31.3 25.55 28.4 26.9 23.0 27.5 20.65 27.5 18.4 28.45 22.35 27.3 26.6 26.0 32.05 22.0 34.9 18.15 37.7 14.1 36.2 10.0 34.75 8.15 29.9 6.95 27.05 6.95 24.05" fill="#ffcc00" fill-rule="evenodd" stroke="none"/>
      <path d="M9.55 26.8 Q9.0 23.95 9.8 20.8 10.85 16.45 14.05 14.2 17.15 11.95 20.4 13.1 23.6 14.25 25.15 18.15 L25.25 18.45 Q26.7 22.25 25.6 26.45 24.5 30.8 21.3 33.0 18.25 35.25 15.05 34.2 11.7 33.0 10.2 29.05 L9.55 26.8" fill="#ffcc00" fill-rule="evenodd" stroke="none"/>
      <path d="M9.55 26.8 Q9.0 23.95 9.8 20.8 10.85 16.45 14.05 14.2 17.15 11.95 20.4 13.1 23.6 14.25 25.15 18.15 L25.25 18.45" fill="none" stroke="#000000" stroke-linecap="round" stroke-linejoin="round" stroke-opacity="0.3019608" stroke-width="0.25"/>
    </g>
    <g id="sprite0" transform="matrix(1.0, 0.0, 0.0, 1.0, 0.0, 0.0)">
      <use height="15.35" transform="matrix(1.0, 0.0, 0.0, 1.0, 0.0, 0.0)" width="16.6" xlink:href="#shape1"/>
    </g>
    <g id="shape1" transform="matrix(1.0, 0.0, 0.0, 1.0, 0.0, 0.0)">
      <path d="M15.7 5.1 Q16.4 2.45 16.05 0.0 17.1 3.55 16.15 7.25 15.05 11.6 11.9 13.85 8.85 16.1 5.6 15.0 2.3 13.8 0.75 9.85 0.15 8.4 0.0 6.8 L0.3 7.7 Q1.85 11.65 5.1 12.8 8.4 13.9 11.45 11.65 14.6 9.45 15.7 5.1" fill="#ffe784" fill-rule="evenodd" stroke="none"/>
    </g>
    <g id="shape2" transform="matrix(1.0, 0.0, 0.0, 1.0, -0.85, -0.3)">
      <path d="M13.95 16.3 L14.15 15.65 Q14.45 14.9 15.6 14.15 16.6 13.4 17.55 13.55 18.55 13.65 17.9 14.65 17.25 15.65 16.05 14.85 14.35 15.9 13.95 16.3" fill="#ffe784" fill-rule="evenodd" stroke="none"/>
      <path d="M24.85 9.75 L24.85 8.55 24.3 7.85 23.55 7.8 Q23.15 8.1 23.0 8.65 22.8 9.2 22.9 9.75 23.1 10.3 23.45 10.55 L24.2 10.5 24.85 9.75" fill="#ffcc00" fill-rule="evenodd" stroke="none"/>
      <path d="M24.85 9.75 L24.85 8.55 24.3 7.85 23.55 7.8 Q23.15 8.1 23.0 8.65 22.8 9.2 22.9 9.75 23.1 10.3 23.45 10.55 L24.2 10.5 24.85 9.75 Z" fill="none" stroke="#000000" stroke-linecap="round" stroke-linejoin="round" stroke-opacity="0.3019608" stroke-width="0.05"/>
      <path d="M23.2 9.7 L23.35 10.15 23.35 10.1 Q23.2 9.7 23.4 9.2 23.5 8.75 23.85 8.5 L24.5 8.55 24.8 8.75 24.3 8.15 Q24.0 7.9 23.7 8.15 L23.2 8.8 Q23.05 9.25 23.2 9.7" fill="#ffffff" fill-rule="evenodd" stroke="none"/>
      <path d="M27.9 12.75 L27.9 11.55 27.35 10.85 26.6 10.8 Q26.2 11.1 26.05 11.65 25.85 12.2 25.95 12.75 26.15 13.3 26.5 13.55 L27.25 13.5 27.9 12.75" fill="#ffcc00" fill-rule="evenodd" stroke="none"/>
      <path d="M27.9 12.75 L27.9 11.55 27.35 10.85 26.6 10.8 Q26.2 11.1 26.05 11.65 25.85 12.2 25.95 12.75 26.15 13.3 26.5 13.55 L27.25 13.5 27.9 12.75 Z" fill="none" stroke="#000000" stroke-linecap="round" stroke-linejoin="round" stroke-opacity="0.3019608" stroke-width="0.05"/>
      <path d="M26.25 12.7 L26.4 13.15 26.4 13.1 Q26.25 12.7 26.45 12.2 26.55 11.75 26.9 11.5 L27.55 11.55 Q27.7 11.6 27.85 11.75 L27.35 11.15 Q27.05 10.9 26.75 11.15 26.4 11.35 26.25 11.8 26.1 12.25 26.25 12.7" fill="#ffffff" fill-rule="evenodd" stroke="none"/>
      <path d="M29.95 16.6 L29.95 15.4 29.4 14.7 28.65 14.65 Q28.25 14.95 28.1 15.5 27.9 16.05 28.0 16.6 28.2 17.15 28.55 17.4 L29.3 17.35 29.95 16.6" fill="#ffcc00" fill-rule="evenodd" stroke="none"/>
      <path d="M29.95 16.6 L29.95 15.4 29.4 14.7 28.65 14.65 Q28.25 14.95 28.1 15.5 27.9 16.05 28.0 16.6 28.2 17.15 28.55 17.4 L29.3 17.35 29.95 16.6 Z" fill="none" stroke="#000000" stroke-linecap="round" stroke-linejoin="round" stroke-opacity="0.3019608" stroke-width="0.05"/>
      <path d="M28.3 16.55 L28.45 17.0 28.45 16.95 Q28.3 16.55 28.5 16.05 28.6 15.6 28.95 15.35 L29.6 15.4 29.9 15.6 29.4 15.0 Q29.1 14.75 28.8 15.0 L28.3 15.65 Q28.15 16.1 28.3 16.55" fill="#ffffff" fill-rule="evenodd" stroke="none"/>
      <path d="M30.65 21.15 L30.65 19.95 30.1 19.25 29.35 19.2 Q28.95 19.5 28.8 20.05 28.6 20.6 28.7 21.15 L29.25 21.95 30.0 21.9 30.65 21.15" fill="#ffcc00" fill-rule="evenodd" stroke="none"/>
      <path d="M30.65 21.15 L30.65 19.95 30.1 19.25 29.35 19.2 Q28.95 19.5 28.8 20.05 28.6 20.6 28.7 21.15 L29.25 21.95 30.0 21.9 30.65 21.15 Z" fill="none" stroke="#000000" stroke-linecap="round" stroke-linejoin="round" stroke-opacity="0.3019608" stroke-width="0.05"/>
      <path d="M29.0 21.1 L29.15 21.55 29.15 21.5 Q29.0 21.1 29.2 20.6 L29.65 19.9 30.3 19.95 30.6 20.15 30.1 19.55 Q29.8 19.3 29.5 19.55 L29.0 20.2 Q28.85 20.65 29.0 21.1" fill="#ffffff" fill-rule="evenodd" stroke="none"/>
      <path d="M30.65 25.0 L30.65 23.8 30.1 23.1 29.35 23.05 Q28.95 23.35 28.8 23.9 28.6 24.45 28.7 25.0 L29.25 25.8 30.0 25.75 30.65 25.0" fill="#ffcc00" fill-rule="evenodd" stroke="none"/>
      <path d="M30.65 25.0 L30.65 23.8 30.1 23.1 29.35 23.05 Q28.95 23.35 28.8 23.9 28.6 24.45 28.7 25.0 L29.25 25.8 30.0 25.75 30.65 25.0 Z" fill="none" stroke="#000000" stroke-linecap="round" stroke-linejoin="round" stroke-opacity="0.3019608" stroke-width="0.05"/>
      <path d="M29.0 24.95 L29.15 25.4 29.15 25.35 Q29.0 24.95 29.2 24.45 L29.65 23.75 30.3 23.8 30.6 24.0 30.1 23.4 Q29.8 23.15 29.5 23.4 L29.0 24.05 Q28.85 24.5 29.0 24.95" fill="#ffffff" fill-rule="evenodd" stroke="none"/>
      <path d="M29.7 29.1 L29.7 27.9 29.15 27.2 28.4 27.15 Q28.0 27.45 27.85 28.0 27.65 28.55 27.75 29.1 L28.3 29.9 29.05 29.85 29.7 29.1" fill="#ffcc00" fill-rule="evenodd" stroke="none"/>
      <path d="M29.7 29.1 L29.7 27.9 29.15 27.2 28.4 27.15 Q28.0 27.45 27.85 28.0 27.65 28.55 27.75 29.1 L28.3 29.9 29.05 29.85 29.7 29.1 Z" fill="none" stroke="#000000" stroke-linecap="round" stroke-linejoin="round" stroke-opacity="0.3019608" stroke-width="0.05"/>
      <path d="M28.05 29.05 L28.2 29.5 28.2 29.45 Q28.05 29.05 28.25 28.55 28.35 28.1 28.7 27.85 L29.35 27.9 Q29.5 27.95 29.65 28.1 L29.15 27.5 Q28.85 27.25 28.55 27.5 L28.05 28.15 Q27.9 28.6 28.05 29.05" fill="#ffffff" fill-rule="evenodd" stroke="none"/>
      <path d="M7.5 19.15 L7.5 18.25 7.1 17.65 Q6.8 17.5 6.5 17.65 6.2 17.85 6.05 18.3 5.9 18.75 6.05 19.1 L6.45 19.75 7.05 19.7 7.5 19.15" fill="#ffcc00" fill-rule="evenodd" stroke="none"/>
      <path d="M7.5 19.15 L7.5 18.25 7.1 17.65 Q6.8 17.5 6.5 17.65 6.2 17.85 6.05 18.3 5.9 18.75 6.05 19.1 L6.45 19.75 7.05 19.7 7.5 19.15 Z" fill="none" stroke="#000000" stroke-linecap="round" stroke-linejoin="round" stroke-opacity="0.3019608" stroke-width="0.05"/>
      <path d="M6.15 19.05 L6.3 19.4 6.3 18.7 6.7 18.2 7.2 18.15 7.4 18.35 7.05 17.85 Q6.8 17.7 6.6 17.85 L6.2 18.35 Q6.05 18.7 6.15 19.05" fill="#ffffff" fill-rule="evenodd" stroke="none"/>
      <path d="M8.95 15.25 L8.95 14.35 8.55 13.75 Q8.25 13.6 7.95 13.75 7.65 13.95 7.5 14.4 7.35 14.85 7.5 15.2 L7.9 15.85 8.5 15.8 8.95 15.25" fill="#ffcc00" fill-rule="evenodd" stroke="none"/>
      <path d="M8.95 15.25 L8.95 14.35 8.55 13.75 Q8.25 13.6 7.95 13.75 7.65 13.95 7.5 14.4 7.35 14.85 7.5 15.2 L7.9 15.85 8.5 15.8 8.95 15.25 Z" fill="none" stroke="#000000" stroke-linecap="round" stroke-linejoin="round" stroke-opacity="0.3019608" stroke-width="0.05"/>
      <path d="M7.6 15.15 L7.75 15.5 7.75 14.8 Q7.9 14.4 8.15 14.3 L8.65 14.25 8.85 14.45 8.5 13.95 Q8.25 13.8 8.05 13.95 L7.65 14.45 Q7.5 14.8 7.6 15.15" fill="#ffffff" fill-rule="evenodd" stroke="none"/>
      <path d="M11.2 12.3 L11.2 11.4 10.8 10.8 Q10.5 10.65 10.2 10.8 9.9 11.0 9.75 11.45 9.6 11.9 9.75 12.25 9.85 12.75 10.15 12.9 L10.75 12.85 11.2 12.3" fill="#ffcc00" fill-rule="evenodd" stroke="none"/>
      <path d="M11.2 12.3 L11.2 11.4 10.8 10.8 Q10.5 10.65 10.2 10.8 9.9 11.0 9.75 11.45 9.6 11.9 9.75 12.25 9.85 12.75 10.15 12.9 L10.75 12.85 11.2 12.3 Z" fill="none" stroke="#000000" stroke-linecap="round" stroke-linejoin="round" stroke-opacity="0.3019608" stroke-width="0.05"/>
      <path d="M9.85 12.2 L10.0 12.55 10.0 11.85 10.4 11.35 10.9 11.3 11.1 11.5 10.75 11.0 Q10.5 10.85 10.3 11.0 L9.9 11.5 9.85 12.2" fill="#ffffff" fill-rule="evenodd" stroke="none"/>
      <path d="M13.55 9.95 L13.55 9.05 13.15 8.45 Q12.85 8.3 12.55 8.45 12.25 8.65 12.1 9.1 11.95 9.55 12.1 9.9 L12.5 10.55 13.1 10.5 13.55 9.95" fill="#ffcc00" fill-rule="evenodd" stroke="none"/>
      <path d="M13.55 9.95 L13.55 9.05 13.15 8.45 Q12.85 8.3 12.55 8.45 12.25 8.65 12.1 9.1 11.95 9.55 12.1 9.9 L12.5 10.55 13.1 10.5 13.55 9.95 Z" fill="none" stroke="#000000" stroke-linecap="round" stroke-linejoin="round" stroke-opacity="0.3019608" stroke-width="0.05"/>
      <path d="M12.2 9.85 L12.35 10.2 12.35 9.5 Q12.5 9.1 12.75 9.0 L13.25 8.95 13.45 9.15 13.1 8.65 Q12.85 8.5 12.65 8.65 L12.25 9.15 12.2 9.85" fill="#ffffff" fill-rule="evenodd" stroke="none"/>
      <path d="M16.65 8.4 L16.65 7.45 16.2 6.75 15.55 6.8 15.05 7.45 Q14.85 7.95 15.0 8.45 15.1 8.95 15.45 9.1 15.75 9.3 16.1 9.1 L16.65 8.4" fill="#ffcc00" fill-rule="evenodd" stroke="none"/>
      <path d="M16.65 8.4 L16.65 7.45 16.2 6.75 15.55 6.8 15.05 7.45 Q14.85 7.95 15.0 8.45 15.1 8.95 15.45 9.1 15.75 9.3 16.1 9.1 L16.65 8.4 Z" fill="none" stroke="#000000" stroke-linecap="round" stroke-linejoin="round" stroke-opacity="0.3019608" stroke-width="0.05"/>
      <path d="M15.15 8.4 L15.3 8.7 15.3 7.9 Q15.45 7.5 15.75 7.35 16.05 7.2 16.3 7.35 L16.5 7.55 16.15 7.0 Q15.85 6.85 15.6 7.0 15.35 7.15 15.2 7.6 15.05 8.0 15.15 8.4" fill="#ffffff" fill-rule="evenodd" stroke="none"/>
      <path d="M6.9 22.25 L6.9 21.35 6.5 20.75 Q6.2 20.6 5.9 20.75 5.6 20.95 5.45 21.4 5.3 21.85 5.45 22.2 L5.85 22.85 6.45 22.8 6.9 22.25" fill="#ffcc00" fill-rule="evenodd" stroke="none"/>
      <path d="M6.9 22.25 L6.9 21.35 6.5 20.75 Q6.2 20.6 5.9 20.75 5.6 20.95 5.45 21.4 5.3 21.85 5.45 22.2 L5.85 22.85 6.45 22.8 6.9 22.25 Z" fill="none" stroke="#000000" stroke-linecap="round" stroke-linejoin="round" stroke-opacity="0.3019608" stroke-width="0.05"/>
      <path d="M5.55 22.15 L5.7 22.5 5.7 21.8 Q5.85 21.4 6.1 21.3 L6.6 21.25 6.8 21.45 6.45 20.95 Q6.2 20.8 6.0 20.95 L5.6 21.45 Q5.45 21.8 5.55 22.15" fill="#ffffff" fill-rule="evenodd" stroke="none"/>
      <path d="M6.9 25.2 L6.9 24.3 6.5 23.7 Q6.2 23.55 5.9 23.7 5.6 23.9 5.45 24.35 5.3 24.8 5.45 25.15 L5.85 25.8 6.45 25.75 6.9 25.2" fill="#ffcc00" fill-rule="evenodd" stroke="none"/>
      <path d="M6.9 25.2 L6.9 24.3 6.5 23.7 Q6.2 23.55 5.9 23.7 5.6 23.9 5.45 24.35 5.3 24.8 5.45 25.15 L5.85 25.8 6.45 25.75 6.9 25.2 Z" fill="none" stroke="#000000" stroke-linecap="round" stroke-linejoin="round" stroke-opacity="0.3019608" stroke-width="0.05"/>
      <path d="M5.55 25.1 L5.7 25.45 5.7 24.75 Q5.85 24.35 6.1 24.25 L6.6 24.2 6.8 24.4 6.45 23.9 Q6.2 23.75 6.0 23.9 L5.6 24.4 Q5.45 24.75 5.55 25.1" fill="#ffffff" fill-rule="evenodd" stroke="none"/>
      <path d="M7.35 28.45 L7.35 27.55 6.95 26.95 Q6.65 26.8 6.35 26.95 6.05 27.15 5.9 27.6 5.75 28.05 5.9 28.4 L6.3 29.05 6.9 29.0 7.35 28.45" fill="#ffcc00" fill-rule="evenodd" stroke="none"/>
      <path d="M7.35 28.45 L7.35 27.55 6.95 26.95 Q6.65 26.8 6.35 26.95 6.05 27.15 5.9 27.6 5.75 28.05 5.9 28.4 L6.3 29.05 6.9 29.0 7.35 28.45 Z" fill="none" stroke="#000000" stroke-linecap="round" stroke-linejoin="round" stroke-opacity="0.3019608" stroke-width="0.05"/>
      <path d="M6.0 28.35 L6.15 28.7 6.15 28.0 Q6.3 27.6 6.55 27.5 L7.05 27.45 7.25 27.65 6.9 27.15 Q6.65 27.0 6.45 27.15 L6.05 27.65 6.0 28.35" fill="#ffffff" fill-rule="evenodd" stroke="none"/>
      <path d="M8.5 31.6 L8.5 30.7 8.1 30.1 Q7.8 29.95 7.5 30.1 7.2 30.3 7.05 30.75 6.9 31.2 7.05 31.55 7.15 32.05 7.45 32.2 L8.05 32.15 8.5 31.6" fill="#ffcc00" fill-rule="evenodd" stroke="none"/>
      <path d="M8.5 31.6 L8.5 30.7 8.1 30.1 Q7.8 29.95 7.5 30.1 7.2 30.3 7.05 30.75 6.9 31.2 7.05 31.55 7.15 32.05 7.45 32.2 L8.05 32.15 8.5 31.6 Z" fill="none" stroke="#000000" stroke-linecap="round" stroke-linejoin="round" stroke-opacity="0.3019608" stroke-width="0.05"/>
      <path d="M7.15 31.5 L7.3 31.85 7.3 31.15 7.7 30.65 8.2 30.6 8.4 30.8 8.05 30.3 Q7.8 30.15 7.6 30.3 L7.2 30.8 7.15 31.5" fill="#ffffff" fill-rule="evenodd" stroke="none"/>
      <path d="M10.15 34.8 L10.15 33.9 9.75 33.3 Q9.45 33.15 9.15 33.3 8.85 33.5 8.7 33.95 8.55 34.4 8.7 34.75 8.8 35.25 9.1 35.4 L9.7 35.35 10.15 34.8" fill="#ffcc00" fill-rule="evenodd" stroke="none"/>
      <path d="M10.15 34.8 L10.15 33.9 9.75 33.3 Q9.45 33.15 9.15 33.3 8.85 33.5 8.7 33.95 8.55 34.4 8.7 34.75 8.8 35.25 9.1 35.4 L9.7 35.35 10.15 34.8 Z" fill="none" stroke="#000000" stroke-linecap="round" stroke-linejoin="round" stroke-opacity="0.3019608" stroke-width="0.05"/>
      <path d="M8.8 34.7 L8.95 35.05 8.95 34.35 Q9.1 33.95 9.35 33.85 L9.85 33.8 10.05 34.0 9.7 33.5 Q9.45 33.35 9.25 33.5 L8.85 34.0 8.8 34.7" fill="#ffffff" fill-rule="evenodd" stroke="none"/>
      <path d="M12.9 37.3 L12.9 36.35 Q12.75 35.85 12.45 35.65 L11.8 35.7 11.3 36.35 Q11.1 36.85 11.25 37.35 11.35 37.85 11.7 38.0 12.0 38.2 12.35 38.0 L12.9 37.3" fill="#ffcc00" fill-rule="evenodd" stroke="none"/>
      <path d="M12.9 37.3 L12.9 36.35 Q12.75 35.85 12.45 35.65 L11.8 35.7 11.3 36.35 Q11.1 36.85 11.25 37.35 11.35 37.85 11.7 38.0 12.0 38.2 12.35 38.0 L12.9 37.3 Z" fill="none" stroke="#000000" stroke-linecap="round" stroke-linejoin="round" stroke-opacity="0.3019608" stroke-width="0.05"/>
      <path d="M11.4 37.25 L11.55 37.55 11.55 36.75 12.0 36.2 Q12.3 36.05 12.55 36.2 L12.75 36.4 12.4 35.85 Q12.1 35.7 11.85 35.85 11.6 36.0 11.45 36.45 L11.4 37.25" fill="#ffffff" fill-rule="evenodd" stroke="none"/>
      <path d="M26.2 33.7 Q23.2 37.7 18.15 38.45 16.8 38.7 15.7 38.05 L19.1 37.4 Q22.75 36.55 25.0 33.65 26.4 31.7 27.15 29.7 27.65 31.7 26.2 33.7" fill="#c90000" fill-rule="evenodd" stroke="none"/>
      <path d="M15.65 38.2 L15.65 37.25 15.2 36.55 14.55 36.6 14.05 37.25 Q13.85 37.75 14.0 38.25 14.1 38.75 14.45 38.9 14.75 39.1 15.1 38.9 L15.65 38.2" fill="#ffcc00" fill-rule="evenodd" stroke="none"/>
      <path d="M15.65 38.2 L15.65 37.25 15.2 36.55 14.55 36.6 14.05 37.25 Q13.85 37.75 14.0 38.25 14.1 38.75 14.45 38.9 14.75 39.1 15.1 38.9 L15.65 38.2 Z" fill="none" stroke="#000000" stroke-linecap="round" stroke-linejoin="round" stroke-opacity="0.3019608" stroke-width="0.05"/>
      <path d="M14.15 38.15 L14.3 38.45 14.3 37.65 Q14.45 37.25 14.75 37.1 15.05 36.95 15.3 37.1 L15.5 37.3 15.15 36.75 Q14.85 36.6 14.6 36.75 L14.2 37.35 Q14.05 37.75 14.15 38.15" fill="#ffffff" fill-rule="evenodd" stroke="none"/>
      <path d="M16.1 38.55 Q18.7 38.7 20.7 37.85 M22.85 36.7 L23.25 36.5" fill="none" stroke="#ffffff" stroke-linecap="round" stroke-linejoin="round" stroke-width="0.25"/>
      <path d="M19.4 38.2 L19.4 37.25 18.95 36.55 18.3 36.6 17.8 37.25 Q17.6 37.75 17.75 38.25 17.85 38.75 18.2 38.9 18.5 39.1 18.85 38.9 L19.4 38.2" fill="#ffcc00" fill-rule="evenodd" stroke="none"/>
      <path d="M19.4 38.2 L19.4 37.25 18.95 36.55 18.3 36.6 17.8 37.25 Q17.6 37.75 17.75 38.25 17.85 38.75 18.2 38.9 18.5 39.1 18.85 38.9 L19.4 38.2 Z" fill="none" stroke="#000000" stroke-linecap="round" stroke-linejoin="round" stroke-opacity="0.3019608" stroke-width="0.05"/>
      <path d="M17.9 38.15 L18.05 38.45 18.05 37.65 Q18.2 37.25 18.5 37.1 18.8 36.95 19.05 37.1 L19.25 37.3 18.9 36.75 Q18.6 36.6 18.35 36.75 L17.95 37.35 17.9 38.15" fill="#ffffff" fill-rule="evenodd" stroke="none"/>
      <path d="M23.4 36.25 L23.4 35.3 22.95 34.6 22.3 34.65 21.8 35.3 Q21.6 35.8 21.75 36.3 L22.2 36.95 Q22.5 37.15 22.85 36.95 L23.4 36.25" fill="#ffcc00" fill-rule="evenodd" stroke="none"/>
      <path d="M23.4 36.25 L23.4 35.3 22.95 34.6 22.3 34.65 21.8 35.3 Q21.6 35.8 21.75 36.3 L22.2 36.95 Q22.5 37.15 22.85 36.95 L23.4 36.25 Z" fill="none" stroke="#000000" stroke-linecap="round" stroke-linejoin="round" stroke-opacity="0.3019608" stroke-width="0.05"/>
      <path d="M21.9 36.2 L22.05 36.5 22.05 35.7 22.5 35.15 Q22.8 35.0 23.05 35.15 L23.25 35.35 22.9 34.8 Q22.6 34.65 22.35 34.8 22.1 34.95 21.95 35.4 L21.9 36.2" fill="#ffffff" fill-rule="evenodd" stroke="none"/>
      <path d="M27.25 32.9 L27.25 31.95 26.8 31.25 26.15 31.3 Q25.8 31.5 25.65 31.95 25.45 32.45 25.6 32.95 25.7 33.45 26.05 33.6 26.35 33.8 26.7 33.6 L27.25 32.9" fill="#ffcc00" fill-rule="evenodd" stroke="none"/>
      <path d="M27.25 32.9 L27.25 31.95 26.8 31.25 26.15 31.3 Q25.8 31.5 25.65 31.95 25.45 32.45 25.6 32.95 25.7 33.45 26.05 33.6 26.35 33.8 26.7 33.6 L27.25 32.9 Z" fill="none" stroke="#000000" stroke-linecap="round" stroke-linejoin="round" stroke-opacity="0.3019608" stroke-width="0.05"/>
      <path d="M25.75 32.85 L25.9 33.15 25.9 32.35 26.35 31.8 Q26.65 31.65 26.9 31.8 L27.1 32.0 26.75 31.45 Q26.45 31.3 26.2 31.45 25.95 31.6 25.8 32.05 L25.75 32.85" fill="#ffffff" fill-rule="evenodd" stroke="none"/>
      <path d="M14.35 10.15 L0.85 0.3 13.1 11.6 8.5 17.35 13.8 12.7 18.2 14.75 15.45 11.25 22.85 2.5 14.35 10.15" fill="#fcf3d8" fill-opacity="0.7921569" fill-rule="evenodd" stroke="none"/>
      <path d="M10.3 10.0 Q9.2 11.2 6.05 10.9 8.75 11.35 9.95 12.95 10.1 14.2 10.75 15.2 11.9 16.6 13.65 16.75 15.5 16.9 16.9 15.65 L19.4 18.0 17.75 14.55 Q18.4 13.6 18.65 12.2 18.85 10.85 18.45 9.85 L19.55 8.3 17.7 8.65 17.7 8.5 Q16.55 7.2 14.85 6.95 13.05 6.95 11.6 8.2 10.75 9.0 10.3 10.0 M16.75 11.85 Q16.6 12.95 15.9 13.5 15.05 14.2 14.2 14.05 13.3 14.0 12.8 13.3 12.15 12.45 12.35 11.55 12.45 10.6 13.2 9.8 13.95 9.15 14.85 9.15 15.7 9.3 16.2 10.05 16.8 10.95 16.75 11.85" fill="#fcf3d8" fill-opacity="0.3019608" fill-rule="evenodd" stroke="none"/>
      <path d="M16.75 11.85 Q16.8 10.95 16.2 10.05 15.7 9.3 14.85 9.15 13.95 9.15 13.2 9.8 12.45 10.6 12.35 11.55 12.15 12.45 12.8 13.3 13.3 14.0 14.2 14.05 15.05 14.2 15.9 13.5 16.6 12.95 16.75 11.85" fill="#fcf3d8" fill-opacity="0.84313726" fill-rule="evenodd" stroke="none"/>
      <path d="M22.65 20.25 L22.3 20.25 21.6 20.5 Q21.05 20.7 20.55 21.55 19.95 22.35 19.65 23.65 19.15 25.65 19.4 27.05 19.55 28.05 20.25 28.55 L20.15 28.55 Q19.1 28.05 18.85 26.85 18.55 25.45 19.15 23.45 19.45 22.15 20.0 21.35 20.4 20.55 21.1 20.25 L21.65 20.05 22.55 20.1 22.65 20.25 M22.75 25.35 L22.55 25.2 22.5 25.15 22.8 25.3 22.75 25.35 M22.35 25.1 L21.9 25.0 21.55 24.9 Q21.45 24.8 21.5 24.95 L21.45 25.1 21.5 25.25 21.6 25.4 21.75 25.55 21.9 26.0 21.85 26.4 21.7 27.15 21.6 27.8 21.4 28.0 21.25 28.1 21.15 28.25 20.95 28.15 20.6 27.95 20.7 27.85 20.8 27.7 20.95 27.5 21.15 26.85 21.3 26.25 21.3 25.75 21.25 25.35 21.1 25.25 20.85 25.0 20.85 24.85 20.9 24.8 20.95 24.65 21.35 24.8 21.95 24.95 22.35 25.1 M22.35 20.8 L22.6 20.85 23.05 21.2 23.3 21.45 23.3 21.5 23.15 22.3 22.95 23.1 22.75 23.15 22.7 23.1 22.6 23.1 22.85 22.1 22.75 21.35 22.55 20.95 22.35 20.8 M9.2 23.8 L9.0 23.75 8.8 23.6 8.85 23.2 9.0 23.2 9.15 23.25 9.35 23.05 9.5 22.55 9.75 21.95 9.95 21.2 10.3 20.1 10.7 18.8 11.0 17.9 11.0 17.5 10.95 17.35 10.85 17.2 10.75 17.15 10.8 17.05 10.85 16.85 10.9 16.7 11.1 16.9 11.4 16.95 11.3 17.0 11.3 17.05 11.25 17.25 11.2 17.45 11.3 17.45 11.5 17.55 11.5 17.65 11.45 18.05 11.15 19.0 10.8 20.3 10.45 21.35 10.2 22.15 9.95 22.75 9.8 23.2 9.6 23.45 9.5 23.35 Q9.45 23.35 9.35 23.45 L9.2 23.8 M11.65 17.05 L11.95 17.1 12.25 17.2 12.2 17.25 12.05 17.15 11.65 17.05 M12.65 17.35 L12.65 17.3 12.9 17.4 13.25 17.5 13.5 17.6 13.75 17.65 13.9 17.7 13.85 17.8 13.65 17.7 13.35 17.6 13.05 17.45 13.0 17.75 12.9 18.0 13.1 18.05 13.3 18.2 13.2 18.25 13.2 18.3 12.9 18.6 11.85 20.0 11.6 20.3 11.6 20.5 11.35 20.6 11.25 20.85 11.3 21.15 11.2 22.15 11.3 23.25 11.4 24.2 11.4 24.4 11.5 24.65 11.6 24.8 11.75 24.85 11.75 24.9 11.45 24.8 11.1 24.55 11.0 24.4 10.9 24.2 10.9 23.95 10.9 23.0 10.8 22.15 10.8 22.1 11.25 20.6 11.45 19.9 12.45 18.75 12.65 18.45 12.75 18.1 12.75 18.0 12.65 17.85 12.55 17.75 12.65 17.65 12.7 17.45 12.65 17.35 M14.15 17.85 L14.15 17.8 14.45 17.9 15.0 18.05 15.4 18.15 15.7 18.25 15.7 18.3 15.4 18.2 14.9 18.1 14.6 18.0 14.55 18.25 14.5 18.45 14.7 18.5 14.8 18.65 14.8 18.75 14.75 19.15 14.6 19.75 14.35 20.45 14.1 21.4 13.75 22.55 13.55 23.6 13.25 24.25 13.15 24.65 13.0 24.8 12.85 24.75 Q12.8 24.65 12.65 24.85 L12.55 25.15 12.5 25.15 12.6 24.85 12.5 24.6 12.35 24.6 12.35 24.55 12.45 24.55 12.7 24.4 Q12.65 24.2 12.75 24.0 L13.05 23.35 13.3 22.4 13.65 21.25 13.95 20.25 14.15 19.55 14.25 19.0 14.35 18.65 14.3 18.5 14.2 18.3 14.3 17.95 14.2 17.85 14.15 17.85 M15.95 18.35 L16.0 18.35 16.3 18.45 16.45 18.5 16.45 18.6 16.35 18.85 16.3 19.0 16.5 19.1 16.6 19.3 16.55 19.6 16.55 19.95 16.3 20.85 16.25 20.35 16.0 21.5 Q15.7 22.15 15.65 22.85 L15.25 23.95 15.05 24.55 14.95 25.15 14.95 25.25 14.9 25.35 14.65 25.45 Q14.6 25.4 14.5 25.5 L14.35 25.8 14.15 25.8 14.05 25.7 14.15 25.65 14.25 25.45 Q14.1 25.2 14.0 25.25 L14.1 25.25 14.35 25.1 14.5 24.9 14.7 24.6 14.9 23.9 15.3 22.75 15.7 21.25 16.1 19.85 16.15 19.45 16.15 19.1 16.05 18.9 16.0 18.9 16.05 18.7 16.15 18.45 15.95 18.35 M17.8 23.4 L17.9 23.1 18.3 21.65 18.65 20.55 18.65 20.15 18.55 19.8 18.45 19.6 18.25 19.6 18.15 19.45 18.2 19.25 18.4 19.1 18.65 19.2 19.05 19.3 19.5 19.45 19.75 19.55 19.75 19.6 19.55 19.5 19.1 19.4 18.85 19.35 18.8 19.4 18.7 19.65 18.7 19.85 18.9 19.85 19.05 20.0 19.1 20.05 19.1 20.1 18.95 20.75 18.35 22.55 Q18.05 23.3 17.9 24.1 L17.85 23.8 17.8 23.4 M17.1 26.95 L17.1 27.1 17.0 27.0 Q16.9 26.85 16.8 27.0 L16.65 26.9 16.6 25.8 16.5 24.35 16.45 22.85 16.4 21.8 16.45 21.75 16.8 20.55 16.85 21.5 16.9 23.0 17.0 24.55 17.15 25.95 17.1 26.85 17.1 26.95" fill="#d18810" fill-rule="evenodd" stroke="none"/>
      <path d="M22.65 20.25 L23.0 20.35 23.65 20.75 24.15 21.1 23.9 21.7 23.75 22.55 23.55 23.3 23.4 23.45 23.35 23.45 23.2 23.35 23.45 22.3 23.35 21.5 23.3 21.45 23.05 21.2 22.6 20.85 22.35 20.8 Q22.1 20.75 21.95 20.95 21.55 21.15 21.2 22.05 20.8 22.65 20.55 23.85 L20.15 25.8 Q20.1 26.8 20.35 27.45 L20.6 27.95 20.95 28.15 21.15 28.25 21.25 28.1 21.4 28.0 21.6 27.8 21.7 27.15 21.85 26.4 21.9 26.0 21.75 25.55 21.6 25.4 21.5 25.25 21.45 25.1 21.5 24.95 Q21.45 24.8 21.55 24.9 L21.9 25.0 22.35 25.1 22.45 25.15 22.5 25.15 22.55 25.2 22.75 25.35 23.05 25.45 23.35 25.6 23.3 26.0 23.1 25.95 23.0 25.95 22.8 26.2 22.75 26.55 22.6 27.05 22.45 27.7 22.35 28.0 22.3 28.15 22.3 28.5 22.25 28.8 21.85 28.7 21.25 28.85 20.85 28.75 20.65 28.8 20.25 28.55 Q19.55 28.05 19.4 27.05 19.15 25.65 19.65 23.65 19.95 22.35 20.55 21.55 21.05 20.7 21.6 20.5 L22.3 20.25 22.65 20.25 M9.2 23.8 L9.35 23.45 Q9.45 23.35 9.5 23.35 L9.6 23.45 9.8 23.2 9.95 22.75 10.2 22.15 10.45 21.35 10.8 20.3 11.15 19.0 11.45 18.05 11.5 17.65 11.5 17.55 11.3 17.45 11.2 17.45 11.25 17.25 11.3 17.05 11.3 17.0 11.4 16.95 11.6 17.05 11.65 17.05 12.05 17.15 12.2 17.25 12.4 17.25 12.65 17.35 12.7 17.45 12.65 17.65 12.55 17.75 12.55 17.8 12.35 17.75 12.3 17.9 12.15 17.9 12.0 18.25 11.85 18.95 11.55 19.8 11.45 19.9 11.25 20.6 10.8 22.1 10.8 22.15 10.55 23.0 10.45 23.5 10.5 23.75 10.6 23.75 10.7 24.1 10.6 24.3 10.3 24.25 10.15 24.2 9.9 24.1 9.45 23.9 9.2 23.85 9.2 23.8 M13.85 17.8 L14.0 17.8 14.15 17.85 14.2 17.85 14.3 17.95 14.2 18.3 14.2 18.35 13.95 18.4 13.75 18.4 13.35 18.8 12.0 20.5 12.0 21.45 12.05 22.4 12.15 23.2 12.25 24.15 12.35 24.3 12.35 24.55 12.35 24.6 12.5 24.6 12.6 24.85 12.5 25.15 12.5 25.2 12.2 25.15 11.9 25.0 11.8 24.9 11.75 24.85 11.6 24.8 11.5 24.65 11.4 24.4 11.4 24.2 11.3 23.25 11.2 22.15 11.3 21.15 11.25 20.85 11.35 20.6 11.6 20.5 11.9 20.05 11.85 20.0 12.9 18.6 13.2 18.3 13.3 18.2 13.1 18.05 12.9 18.0 13.0 17.75 13.05 17.45 13.35 17.6 13.65 17.7 13.85 17.8 M15.7 18.3 L15.9 18.35 15.95 18.35 16.15 18.45 16.05 18.7 16.0 18.9 16.0 18.95 15.8 18.85 15.75 18.95 15.55 19.0 15.5 19.4 Q15.3 19.65 15.2 20.25 14.9 20.8 14.75 21.75 L14.25 23.4 Q14.0 24.1 14.05 24.55 L13.95 24.85 13.95 25.15 14.0 25.25 Q14.1 25.2 14.25 25.45 L14.15 25.65 14.05 25.7 14.05 25.75 13.8 25.65 13.35 25.45 12.9 25.3 12.55 25.2 12.55 25.15 12.65 24.85 Q12.8 24.65 12.85 24.75 L13.0 24.8 13.15 24.65 13.25 24.25 13.55 23.6 13.75 22.55 14.1 21.4 14.35 20.45 14.6 19.75 14.75 19.15 14.8 18.75 14.8 18.65 14.7 18.5 14.5 18.45 14.55 18.25 14.6 18.0 14.9 18.1 15.4 18.2 15.7 18.3 M16.45 18.5 L16.6 18.6 16.8 18.6 16.95 18.65 17.15 18.75 17.4 18.85 Q17.5 18.85 17.6 19.0 L17.55 19.2 Q17.4 19.4 17.55 19.65 L17.75 20.9 17.75 22.45 17.8 23.4 17.85 23.8 17.9 24.1 Q18.05 23.3 18.35 22.55 L18.95 20.75 19.1 20.1 19.1 20.05 19.05 20.0 18.9 19.85 18.7 19.85 18.7 19.65 18.8 19.4 18.85 19.35 19.1 19.4 19.55 19.5 19.75 19.6 20.05 19.7 20.25 19.8 20.3 19.9 20.25 20.15 20.15 20.3 20.05 20.25 19.95 20.3 19.65 20.35 19.5 20.9 18.9 22.85 18.15 25.5 17.9 26.45 17.65 27.4 17.55 27.3 Q17.45 27.1 17.35 27.3 L17.15 27.2 17.1 26.95 17.1 26.85 17.15 25.95 17.0 24.55 16.9 23.0 16.85 21.5 16.8 20.55 16.45 21.75 16.4 21.8 Q16.1 22.3 16.1 23.0 L15.75 24.05 15.6 24.85 15.5 25.45 15.6 25.7 15.7 25.8 15.9 26.05 15.75 26.2 15.75 26.3 15.65 26.4 15.45 26.3 15.05 26.1 14.7 25.95 14.35 25.85 14.35 25.8 14.5 25.5 Q14.6 25.4 14.65 25.45 L14.9 25.35 14.95 25.25 15.0 25.15 14.95 25.15 15.05 24.55 15.25 23.95 15.65 22.85 Q15.7 22.15 16.0 21.5 L16.25 20.35 16.3 20.85 16.55 19.95 16.55 19.6 16.6 19.3 16.5 19.1 16.3 19.0 16.35 18.85 16.45 18.6 16.45 18.5" fill="#94610c" fill-rule="evenodd" stroke="none"/>
    </g>
  </defs>
</svg>
