<?xml version="1.0" encoding="UTF-8" standalone="no"?>
<svg xmlns:xlink="http://www.w3.org/1999/xlink" height="440.0px" width="440.0px" xmlns="http://www.w3.org/2000/svg">
  <g transform="matrix(10.0, 0.0, 0.0, 10.0, 0.0, 0.0)">
    <use height="44.0" transform="matrix(1.0, 0.0, 0.0, 1.0, 0.0, 0.0)" width="44.1" xlink:href="#shape0"/>
  </g>
  <defs>
    <g id="shape0" transform="matrix(1.0, 0.0, 0.0, 1.0, 0.0, 0.0)">
      <path d="M44.0 44.0 L0.0 44.0 0.0 0.0 44.0 0.0 44.0 44.0" fill="#43adca" fill-opacity="0.0" fill-rule="evenodd" stroke="none"/>
      <path d="M7.6 8.5 L7.7 9.5 Q6.0 13.45 3.85 12.35 L3.5 13.85 Q3.15 7.7 7.6 8.5" fill="#6f6622" fill-rule="evenodd" stroke="none"/>
      <path d="M7.7 9.5 L7.95 10.5 Q7.7 11.2 7.6 12.05 7.6 12.75 7.95 13.5 7.7 22.75 3.05 21.9 L2.85 20.45 Q2.6 17.95 3.5 13.85 L3.85 12.35 Q6.0 13.45 7.7 9.5" fill="#d1c669" fill-rule="evenodd" stroke="none"/>
      <path d="M2.85 20.45 L1.4 21.45 0.4 20.8 Q2.55 15.5 2.0 10.3 3.8 7.05 7.6 6.75 L7.6 8.5 Q3.15 7.7 3.5 13.85 2.6 17.95 2.85 20.45" fill="#dfd897" fill-rule="evenodd" stroke="none"/>
      <path d="M7.95 13.5 Q8.9 15.7 12.6 18.25 12.05 21.75 9.9 23.25 5.8 25.0 3.75 23.25 3.35 22.75 3.05 21.9 7.7 22.75 7.95 13.5" fill="#a1932f" fill-rule="evenodd" stroke="none"/>
      <path d="M2.85 20.45 L1.4 21.45 0.4 20.8 Q2.55 15.5 2.0 10.3 3.8 7.05 7.6 6.75 M9.9 23.25 Q5.8 25.0 3.75 23.25 3.35 22.75 3.05 21.9 L2.85 20.45 Q2.6 17.95 3.5 13.85 3.15 7.7 7.6 8.5 M3.5 13.85 L3.85 12.35 Q6.0 13.45 7.7 9.5" fill="none" stroke="#330000" stroke-linecap="round" stroke-linejoin="round" stroke-opacity="0.4117647" stroke-width="0.05"/>
      <path d="M12.6 18.25 Q12.05 21.75 9.9 23.25" fill="none" stroke="#000000" stroke-linecap="round" stroke-linejoin="round" stroke-opacity="0.4117647" stroke-width="0.05"/>
      <path d="M29.55 17.9 L30.15 14.9 31.05 13.5 Q26.5 10.2 20.35 8.6 17.15 7.7 13.45 7.35 16.05 7.05 15.3 6.8 L18.9 7.55 20.75 8.0 Q26.15 9.5 31.55 12.7 32.4 13.35 31.1 19.65 L29.7 18.3 29.7 18.2 29.75 18.05 29.6 17.95 29.55 17.9" fill="#cc9900" fill-rule="evenodd" stroke="none"/>
      <path d="M6.65 8.1 L6.9 9.5 6.25 8.65 6.65 8.1" fill="#996633" fill-rule="evenodd" stroke="none"/>
      <path d="M30.15 14.9 L30.05 15.0 29.65 15.25 28.9 15.7 25.5 17.85 25.5 17.15 25.45 17.0 25.3 16.95 22.15 16.95 22.0 17.0 21.95 17.15 21.75 19.2 19.2 18.8 19.2 16.75 19.15 16.6 19.05 16.55 16.45 15.95 16.35 15.95 16.25 16.05 16.0 16.45 15.5 15.65 14.8 14.85 10.7 12.9 10.05 12.95 10.05 12.7 10.0 12.6 9.95 12.5 8.4 11.65 8.3 11.65 8.15 11.7 8.1 11.8 7.85 13.4 6.4 12.25 6.7 10.5 6.7 10.45 6.65 10.35 5.4 8.8 5.25 8.7 5.6 8.0 5.85 7.7 Q6.4 7.55 6.65 8.1 L6.25 8.65 6.9 9.5 Q7.85 10.6 9.45 11.7 11.7 13.25 14.1 14.25 L15.95 14.95 Q20.35 16.35 25.3 15.95 L25.9 15.9 26.65 15.8 Q27.2 15.9 30.15 14.9 M10.75 6.4 L15.3 6.8 Q16.05 7.05 13.45 7.35 L11.05 7.15 10.95 6.7 10.75 6.4 M6.25 8.65 L6.0 8.15 6.25 8.65" fill="#f4ab02" fill-rule="evenodd" stroke="none"/>
      <path d="M16.2 16.9 L16.3 16.8 16.55 16.4 18.8 16.9 18.8 19.0 18.85 19.15 18.95 19.2 21.9 19.65 22.05 19.65 22.1 19.6 22.15 19.5 22.35 17.35 25.1 17.35 25.1 18.15 Q22.2 21.0 18.65 22.5 L18.5 22.55 14.05 21.2 Q9.3 18.9 7.25 17.3 5.15 15.65 4.65 14.65 L4.4 13.95 5.0 11.0 5.05 10.9 5.25 10.2 5.25 9.25 6.25 10.55 5.95 12.3 5.95 12.4 6.05 12.5 7.85 13.95 8.0 14.0 8.15 13.95 8.2 13.8 8.45 12.15 9.65 12.8 9.65 13.05 9.65 13.15 Q9.25 13.35 9.0 13.8 8.45 14.6 9.3 15.95 L9.75 16.5 Q11.45 18.45 14.55 18.95 16.25 19.05 16.3 17.7 L16.2 16.9 M11.05 7.15 L13.45 7.35 11.05 7.85 11.05 7.15" fill="#ca9662" fill-rule="evenodd" stroke="none"/>
      <path d="M9.65 13.15 L9.7 13.2 9.85 13.25 10.0 13.2 10.05 13.05 10.05 12.95 10.7 12.9 14.8 14.85 Q14.9 19.0 9.75 16.5 L9.3 15.95 Q8.45 14.6 9.0 13.8 9.25 13.35 9.65 13.15" fill="#ffcc00" fill-rule="evenodd" stroke="none"/>
      <path d="M16.0 16.45 L15.95 16.65 15.9 16.8 16.05 16.9 16.2 16.9 16.3 17.7 Q16.25 19.05 14.55 18.95 11.45 18.45 9.75 16.5 14.9 19.0 14.8 14.85 L15.5 15.65 16.0 16.45" fill="#d17c00" fill-rule="evenodd" stroke="none"/>
      <path d="M31.05 13.5 L30.45 13.7 28.7 14.85 26.6 15.2 Q21.75 12.95 18.15 11.85 11.6 8.3 20.35 8.6 26.5 10.2 31.05 13.5" fill="#6e4924" fill-rule="evenodd" stroke="none"/>
      <path d="M18.15 11.85 Q13.25 10.3 10.6 10.8 L11.05 7.85 13.45 7.35 Q17.15 7.7 20.35 8.6 11.6 8.3 18.15 11.85" fill="#402a15" fill-rule="evenodd" stroke="none"/>
      <path d="M25.1 18.15 L25.1 19.5 25.15 19.65 25.25 19.7 25.35 19.7 29.6 18.35 29.7 18.3 31.1 19.65 29.55 21.4 Q28.6 22.1 25.5 22.65 22.35 23.2 18.95 22.65 L18.55 22.55 18.5 22.55 18.65 22.5 Q22.2 21.0 25.1 18.15" fill="#80552a" fill-rule="evenodd" stroke="none"/>
      <path d="M29.65 15.25 L30.05 15.0 30.15 14.9 29.55 17.9 29.45 17.95 25.5 19.25 25.5 17.85 28.9 15.7 Q27.65 16.5 29.65 15.25" fill="#ab7e00" fill-rule="evenodd" stroke="none"/>
      <path d="M10.6 10.8 L10.55 11.1 9.45 11.7 Q7.85 10.6 6.9 9.5 L6.65 8.1 Q6.4 7.55 5.85 7.7 L5.6 8.0 5.25 8.7 5.1 8.75 5.0 8.9 5.05 9.05 5.25 9.25 5.25 10.2 5.05 10.9 5.0 11.0 4.9 10.5 4.8 10.05 4.75 9.25 4.95 7.55 Q6.8 7.0 8.15 7.85 10.1 7.9 10.95 6.7 L11.05 7.15 11.05 7.85 10.6 10.8" fill="#b58600" fill-rule="evenodd" stroke="none"/>
      <path d="M4.95 7.55 Q5.4 6.8 7.45 6.7 8.8 6.4 9.15 6.1 10.15 6.0 10.75 6.4 L10.95 6.7 Q10.1 7.9 8.15 7.85 6.8 7.0 4.95 7.55 M7.45 6.7 L9.3 6.4 7.45 6.7" fill="#ffc903" fill-rule="evenodd" stroke="none"/>
      <path d="M25.5 17.85 L25.5 19.25 29.45 17.95 29.55 17.9 29.6 17.95 29.75 18.05 29.7 18.2 29.7 18.3 29.6 18.35 25.35 19.7 25.25 19.7 25.15 19.65 25.1 19.5 25.1 18.15 25.1 17.35 22.35 17.35 22.15 19.5 22.1 19.6 22.05 19.65 21.9 19.65 18.95 19.2 18.85 19.15 18.8 19.0 18.8 16.9 16.55 16.4 16.3 16.8 16.2 16.9 16.05 16.9 15.9 16.8 15.95 16.65 16.0 16.45 16.25 16.05 16.35 15.95 16.45 15.95 19.05 16.55 19.15 16.6 19.2 16.75 19.2 18.8 21.75 19.2 21.95 17.15 22.0 17.0 22.15 16.95 25.3 16.95 25.45 17.0 25.5 17.15 25.5 17.85 M5.25 9.25 L5.05 9.05 5.0 8.9 5.1 8.75 5.25 8.7 5.4 8.8 6.65 10.35 6.7 10.45 6.7 10.5 6.4 12.25 7.85 13.4 8.1 11.8 8.15 11.7 8.3 11.65 8.4 11.65 9.95 12.5 10.0 12.6 10.05 12.7 10.05 12.95 10.05 13.05 10.0 13.2 9.85 13.25 9.7 13.2 9.65 13.15 9.65 13.05 9.65 12.8 8.45 12.15 8.2 13.8 8.15 13.95 8.0 14.0 7.85 13.95 6.05 12.5 5.95 12.4 5.95 12.3 6.25 10.55 5.25 9.25" fill="#dfd897" fill-rule="evenodd" stroke="none"/>
      <path d="M26.6 15.2 Q21.75 12.95 18.15 11.85 13.25 10.3 10.6 10.8 L10.55 11.1 9.45 11.7 Q11.7 13.25 14.1 14.25 L15.95 14.95 Q20.35 16.35 25.3 15.95 M25.9 15.9 L26.65 15.8 M18.55 22.55 L18.5 22.55 M4.4 13.95 L5.0 11.0 4.9 10.5 4.8 10.05 4.75 9.25 4.95 7.55 Q5.4 6.8 7.45 6.7 8.8 6.4 9.15 6.1 10.15 6.0 10.75 6.4 L15.3 6.8 18.9 7.55 20.75 8.0 Q26.15 9.5 31.55 12.7 32.4 13.35 31.1 19.65 M11.05 7.85 L11.05 7.15 10.95 6.7 M11.05 7.85 L10.6 10.8 M10.75 6.4 L10.95 6.7 M5.25 8.7 L5.6 8.0 5.85 7.7 Q6.4 7.55 6.65 8.1 L6.9 9.5 Q7.85 10.6 9.45 11.7 M5.0 11.0 L5.05 10.9 5.25 10.2 5.25 9.25 M6.0 8.15 L6.25 8.65 6.65 8.1 M6.25 8.65 L6.9 9.5 M9.3 6.4 L7.45 6.7 M9.65 13.15 Q9.25 13.35 9.0 13.8 8.45 14.6 9.3 15.95 L9.75 16.5 Q11.45 18.45 14.55 18.95 16.25 19.05 16.3 17.7 L16.2 16.9 M14.8 14.85 L10.7 12.9 10.05 12.95 M16.0 16.45 L15.5 15.65 14.8 14.85" fill="none" stroke="#330000" stroke-linecap="round" stroke-linejoin="round" stroke-opacity="0.4117647" stroke-width="0.05"/>
      <path d="M31.1 19.65 L29.55 21.4 Q28.6 22.1 25.5 22.65 22.35 23.2 18.95 22.65 L18.55 22.55 M18.5 22.55 L14.05 21.2 Q9.3 18.9 7.25 17.3 5.15 15.65 4.65 14.65 L4.4 13.95" fill="none" stroke="#000000" stroke-linecap="round" stroke-linejoin="round" stroke-opacity="0.5529412" stroke-width="0.05"/>
      <path d="M41.6 19.3 L41.85 18.8 41.85 17.9 Q43.4 17.6 43.85 18.6 43.55 20.25 42.45 21.2 L42.2 20.9 41.6 19.3 M38.15 22.35 L37.85 22.35 34.6 21.4 33.6 21.1 32.0 21.05 31.6 21.65 30.9 22.7 30.8 22.65 31.65 21.0 31.8 20.9 Q33.1 19.85 34.95 19.8 L38.15 20.65 38.15 22.35 M38.7 20.65 L40.25 20.3 41.1 22.0 38.7 22.35 38.7 20.65 M29.55 23.2 L29.4 23.1 29.05 22.85 28.8 22.65 28.95 22.45 30.5 23.3 30.3 23.6 29.55 23.2" fill="#877232" fill-rule="evenodd" stroke="none"/>
      <path d="M40.25 20.3 Q40.35 19.95 40.75 20.05 L41.0 19.85 41.25 19.5 Q41.35 19.3 41.6 19.3 L42.2 20.9 42.45 21.2 42.25 21.35 Q41.5 27.1 41.8 32.3 L41.3 32.2 41.05 32.25 Q41.05 27.55 41.55 21.8 L41.1 22.0 40.25 20.3 M38.45 31.3 Q38.15 27.25 38.15 22.35 L38.15 20.65 38.15 19.05 37.8 19.25 36.8 17.4 Q36.75 17.05 37.15 17.0 37.1 16.65 37.35 16.7 L38.95 18.2 38.7 18.5 38.7 20.65 38.7 22.35 38.95 31.45 38.45 31.3 M40.75 20.05 L41.45 21.1 41.55 21.8 41.45 21.1 40.75 20.05 M41.0 19.85 L41.45 21.1 41.0 19.85 M42.2 20.9 L42.25 21.35 42.2 20.9 M28.95 22.45 Q28.9 21.85 29.45 21.6 L30.8 22.65 30.9 22.7 30.5 23.3 28.95 22.45 M37.15 17.0 L38.45 18.8 38.15 19.05 38.45 18.8 37.15 17.0 M38.7 18.5 L38.45 18.8 38.7 18.5" fill="#660000" fill-rule="evenodd" stroke="none"/>
      <path d="M42.35 34.75 L41.75 36.35 Q39.85 37.65 38.35 35.95 L37.6 33.3 Q38.6 31.1 39.85 33.3 L40.1 33.85 40.3 34.35 40.55 34.8 41.35 34.8 42.35 34.75 M29.05 37.45 L29.05 38.25 27.45 39.2 26.55 39.7 25.6 39.8 24.3 20.2 24.65 19.45 Q27.05 18.2 28.1 21.7 L28.2 22.0 28.25 22.3 28.65 29.25 28.6 29.25 28.1 28.2 27.65 29.65 25.9 30.5 27.3 30.85 26.7 32.95 28.15 31.05 28.75 31.2 29.05 37.45 M41.4 35.35 L40.55 34.8 41.4 35.35" fill="#d1c669" fill-rule="evenodd" stroke="none"/>
      <path d="M28.65 29.25 L30.1 28.6 29.0 30.0 29.7 31.45 28.75 31.2 28.15 31.05 26.7 32.95 27.3 30.85 25.9 30.5 27.65 29.65 28.1 28.2 28.6 29.25 28.65 29.25" fill="#f4ab02" fill-rule="evenodd" stroke="none"/>
      <path d="M21.15 15.25 L21.3 15.15 25.15 14.6 Q27.0 13.85 27.7 13.15 L28.55 12.95 30.45 13.1 30.6 13.15 31.4 14.05 Q29.7 16.35 25.2 16.4 23.9 15.2 21.15 15.25 M28.4 13.65 Q27.15 14.35 25.15 14.6 27.15 14.35 28.4 13.65" fill="#ffc903" fill-rule="evenodd" stroke="none"/>
      <path d="M23.8 33.7 L22.85 32.95 22.85 25.25 23.45 17.0 23.3 16.5 Q22.95 15.9 22.15 15.8 L21.05 15.9 20.25 15.95 21.15 15.25 Q23.9 15.2 25.2 16.4 29.7 16.35 31.4 14.05 L30.7 19.5 29.45 21.6 Q28.9 21.85 28.95 22.45 L28.8 22.65 28.2 22.0 28.1 21.7 Q27.05 18.2 24.65 19.45 L24.3 20.2 Q23.4 22.15 23.45 25.2 L23.8 33.7" fill="#ba8900" fill-rule="evenodd" stroke="none"/>
      <path d="M34.6 21.4 Q34.8 22.05 34.6 23.3 L34.6 23.35 33.85 25.65 32.25 28.8 Q31.5 30.45 30.9 32.25 30.1 34.35 29.55 36.6 L29.05 37.45 28.75 31.2 29.7 31.45 29.0 30.0 30.1 28.6 28.65 29.25 28.25 22.3 28.2 22.0 28.8 22.65 29.05 22.85 29.4 23.1 29.55 23.2 29.7 24.45 Q31.6 25.15 32.7 24.45 L32.3 24.05 31.45 23.95 Q33.5 23.25 33.95 21.9 33.3 20.85 31.6 21.65 L32.0 21.05 33.6 21.1 34.6 21.4" fill="#754e26" fill-rule="evenodd" stroke="none"/>
      <path d="M30.3 23.6 L30.35 23.6 31.45 23.95 32.3 24.05 32.7 24.45 Q31.6 25.15 29.7 24.45 L29.55 23.2 30.3 23.6" fill="#dba36b" fill-rule="evenodd" stroke="none"/>
      <path d="M30.35 23.6 L30.3 23.6 30.5 23.3 30.35 23.6 30.5 23.3 30.9 22.7 31.6 21.65 Q33.3 20.85 33.95 21.9 33.5 23.25 31.45 23.95 L30.35 23.6" fill="#130d06" fill-rule="evenodd" stroke="none"/>
      <path d="M38.55 13.75 L39.05 13.95 38.6 15.05 38.55 13.75" fill="#695726" fill-rule="evenodd" stroke="none"/>
      <path d="M30.7 19.5 L31.3 18.9 Q32.6 18.2 35.55 17.95 L35.9 17.9 36.8 17.4 37.8 19.25 36.15 19.8 35.55 19.8 34.95 19.8 Q33.1 19.85 31.8 20.9 L31.65 21.0 30.8 22.65 29.45 21.6 30.7 19.5 M37.35 16.7 Q37.9 15.7 37.85 14.0 L38.55 13.75 38.6 15.05 39.05 13.95 39.15 13.65 Q39.7 13.65 40.1 13.95 40.15 15.9 39.25 17.6 L38.95 18.2 37.35 16.7" fill="#a3883c" fill-rule="evenodd" stroke="none"/>
      <path d="M41.8 32.3 L42.2 32.85 42.35 34.75 41.35 34.8 41.85 34.15 Q40.5 33.55 40.3 34.35 L40.1 33.85 Q40.15 32.45 41.05 32.25 L41.3 32.2 41.8 32.3 M37.6 33.3 Q37.45 31.9 38.05 31.3 L38.45 31.3 38.95 31.45 39.6 32.1 39.85 33.3 Q38.6 31.1 37.6 33.3 M25.6 39.8 Q24.5 39.75 24.05 38.8 L23.8 33.7 23.45 25.2 Q23.4 22.15 24.3 20.2 L25.6 39.8 M41.9 33.85 L41.85 34.15 41.9 33.85" fill="#fff6ad" fill-rule="evenodd" stroke="none"/>
      <path d="M40.3 34.35 Q40.5 33.55 41.85 34.15 L41.35 34.8 40.55 34.8 40.3 34.35" fill="#a89e55" fill-rule="evenodd" stroke="none"/>
      <path d="M30.35 23.6 L30.5 23.3 M31.65 21.0 L31.8 20.9" fill="none" stroke="#000000" stroke-linecap="round" stroke-linejoin="round" stroke-opacity="0.4117647" stroke-width="0.05"/>
      <path d="M40.25 20.3 Q40.35 19.95 40.75 20.05 L41.0 19.85 41.25 19.5 Q41.35 19.3 41.6 19.3 L41.85 18.8 41.85 17.9 Q43.4 17.6 43.85 18.6 43.55 20.25 42.45 21.2 L42.25 21.35 Q41.5 27.1 41.8 32.3 L42.2 32.85 42.35 34.75 41.75 36.35 Q39.85 37.65 38.35 35.95 L37.6 33.3 Q37.45 31.9 38.05 31.3 L38.45 31.3 Q38.15 27.25 38.15 22.35 L37.85 22.35 34.6 21.4 Q34.8 22.05 34.6 23.3 L34.6 23.35 33.85 25.65 32.25 28.8 Q31.5 30.45 30.9 32.25 30.1 34.35 29.55 36.6 L29.05 37.45 29.05 38.25 27.45 39.2 26.55 39.7 25.6 39.8 Q24.5 39.75 24.05 38.8 L23.8 33.7 22.85 32.95 22.85 25.25 23.45 17.0 23.3 16.5 Q22.95 15.9 22.15 15.8 L21.05 15.9 20.25 15.95 21.15 15.25 21.3 15.15 25.15 14.6 Q27.0 13.85 27.7 13.15 L28.55 12.95 30.45 13.1 30.6 13.15 31.4 14.05 30.7 19.5 31.3 18.9 Q32.6 18.2 35.55 17.95 L35.9 17.9 36.8 17.4 Q36.75 17.05 37.15 17.0 37.1 16.65 37.35 16.7 37.9 15.7 37.85 14.0 L38.55 13.75 39.05 13.95 39.15 13.65 Q39.7 13.65 40.1 13.95 40.15 15.9 39.25 17.6 L38.95 18.2 38.7 18.5 38.7 20.65 40.25 20.3 41.1 22.0 41.55 21.8 41.45 21.1 40.75 20.05 M41.6 19.3 L42.2 20.9 42.45 21.2 M42.25 21.35 L42.2 20.9 M41.45 21.1 L41.0 19.85 M41.8 32.3 L41.3 32.2 41.05 32.25 Q40.15 32.45 40.1 33.85 L40.3 34.35 40.55 34.8 41.35 34.8 41.85 34.15 41.9 33.85 M40.55 34.8 L41.4 35.35 M41.05 32.25 Q41.05 27.55 41.55 21.8 M28.2 22.0 L28.1 21.7 Q27.05 18.2 24.65 19.45 L24.3 20.2 Q23.4 22.15 23.45 25.2 L23.8 33.7 M29.55 23.2 L29.4 23.1 29.05 22.85 28.8 22.65 28.2 22.0 28.25 22.3 28.65 29.25 30.1 28.6 29.0 30.0 29.7 31.45 28.75 31.2 29.05 37.45 M28.95 22.45 L28.8 22.65 M30.3 23.6 L30.35 23.6 M30.3 23.6 L29.55 23.2 M32.3 24.05 L31.45 23.95 30.35 23.6 M29.45 21.6 Q28.9 21.85 28.95 22.45 L30.5 23.3 30.9 22.7 30.8 22.65 29.45 21.6 30.7 19.5 M25.15 14.6 Q27.15 14.35 28.4 13.65 M39.05 13.95 L38.6 15.05 38.55 13.75 M37.35 16.7 L38.95 18.2 M34.6 21.4 L33.6 21.1 32.0 21.05 31.6 21.65 Q33.3 20.85 33.95 21.9 33.5 23.25 31.45 23.95 M31.8 20.9 Q33.1 19.85 34.95 19.8 L35.55 19.8 36.15 19.8 37.8 19.25 36.8 17.4 M30.9 22.7 L31.6 21.65 M38.15 20.65 L38.15 19.05 37.8 19.25 M38.15 19.05 L38.45 18.8 37.15 17.0 M38.7 20.65 L38.7 22.35 41.1 22.0 M38.15 20.65 L38.15 22.35 M34.95 19.8 L38.15 20.65 M38.45 18.8 L38.7 18.5 M39.85 33.3 L39.6 32.1 38.95 31.45 38.45 31.3 M39.85 33.3 L40.1 33.85 M28.65 29.25 L28.6 29.25 28.1 28.2 27.65 29.65 25.9 30.5 27.3 30.85 26.7 32.95 28.15 31.05 28.75 31.2 M38.7 22.35 L38.95 31.45" fill="none" stroke="#330000" stroke-linecap="round" stroke-linejoin="round" stroke-opacity="0.4117647" stroke-width="0.05"/>
      <path d="M41.0 19.85 L41.25 19.5 Q41.35 19.3 41.6 19.3 L41.85 18.8 41.85 17.9 Q43.4 17.6 43.85 18.6 43.55 20.25 42.45 21.2 L42.25 21.35 Q41.5 27.1 41.8 32.3 L42.2 32.85 42.35 34.75 41.75 36.35 Q39.85 37.65 38.35 35.95 L37.6 33.3 Q37.45 31.9 38.05 31.3 L38.45 31.3 Q38.15 27.25 38.15 22.35 L37.85 22.35 34.6 21.4 Q34.8 22.05 34.6 23.3 L34.6 23.35 33.85 25.65 32.25 28.8 Q31.5 30.45 30.9 32.25 30.1 34.35 29.55 36.6 L29.05 37.45 29.05 38.25 27.45 39.2 26.55 39.7 25.6 39.8 Q24.5 39.75 24.05 38.8 L23.8 33.7 22.85 32.95 23.05 22.9 18.95 22.65 18.55 22.55 18.5 22.55 14.05 21.2 12.1 20.25 Q11.4 22.2 9.9 23.25 5.8 25.0 3.75 23.25 3.35 22.75 3.05 21.9 L2.85 20.45 1.4 21.45 0.4 20.8 Q2.55 15.5 2.0 10.3 3.15 8.25 5.1 7.35 5.7 6.8 7.45 6.7 8.8 6.4 9.15 6.1 10.15 6.0 10.75 6.4 L15.3 6.8 18.9 7.55 20.75 8.0 Q26.15 9.5 31.55 12.7 32.35 13.3 31.25 18.95 L31.3 18.9 Q32.6 18.2 35.55 17.95 L35.9 17.9 36.8 17.4 Q36.75 17.05 37.15 17.0 37.1 16.65 37.35 16.7 37.9 15.7 37.85 14.0 L38.55 13.75 39.05 13.95 39.15 13.65 Q39.7 13.65 40.1 13.95 40.15 15.9 39.25 17.6 L38.95 18.2 38.7 18.5 38.7 20.65 40.25 20.3 Q40.35 19.95 40.75 20.05 L41.0 19.85 M25.25 14.6 Q21.25 12.8 18.15 11.85 13.25 10.3 10.6 10.8 L10.55 11.1 9.45 11.7 Q11.7 13.25 14.1 14.25 L15.95 14.95 20.35 15.9 21.3 15.15 25.15 14.6 25.25 14.6" fill="none" stroke="#000000" stroke-linecap="round" stroke-linejoin="round" stroke-opacity="0.3019608" stroke-width="0.5"/>
    </g>
  </defs>
</svg>
