<?xml version="1.0" encoding="UTF-8" standalone="no"?>
<svg xmlns:xlink="http://www.w3.org/1999/xlink" height="440.0px" width="440.0px" xmlns="http://www.w3.org/2000/svg">
  <g transform="matrix(10.0, 0.0, 0.0, 10.0, 0.0, 0.0)">
    <use height="44.0" transform="matrix(1.0, 0.0, 0.0, 1.0, 0.0, 0.0)" width="44.0" xlink:href="#shape0"/>
  </g>
  <defs>
    <g id="shape0" transform="matrix(1.0, 0.0, 0.0, 1.0, 0.0, 0.0)">
      <path d="M44.0 44.0 L0.0 44.0 0.0 0.0 44.0 0.0 44.0 44.0" fill="#43adca" fill-opacity="0.0" fill-rule="evenodd" stroke="none"/>
      <path d="M40.7 15.7 L40.6 18.5 40.2 17.1 40.6 18.5 40.65 19.95 40.65 20.2 40.65 20.75 Q40.3 23.0 39.55 25.3 L39.5 25.35 Q38.2 26.55 35.2 28.0 L34.9 28.1 Q33.45 28.7 30.8 29.3 L27.45 30.0 27.4 30.0 26.3 27.4 26.3 26.75 26.3 26.7 26.3 26.2 26.3 26.05 26.3 25.9 26.2 22.55 26.2 22.45 26.2 22.55 26.3 25.9 26.3 26.05 26.3 26.2 26.3 26.7 26.3 26.75 26.3 27.4 26.25 30.15 26.25 30.2 22.9 30.3 22.7 30.3 22.6 30.3 15.05 29.35 14.25 29.15 14.25 29.2 Q12.2 28.75 9.95 27.6 L8.3 26.9 8.25 26.9 Q7.75 25.0 7.85 23.15 L7.85 23.05 7.85 22.9 7.9 22.6 Q8.2 20.85 8.7 19.75 8.2 20.85 7.9 22.6 L7.85 22.9 7.85 23.05 7.85 23.15 Q7.4 24.6 6.4 26.0 4.2 24.45 3.45 22.9 L3.65 20.1 Q3.9 18.15 4.5 16.45 5.2 17.8 7.4 19.05 L7.9 19.35 8.7 19.75 11.4 20.8 12.8 21.25 13.4 21.4 17.55 22.2 23.15 22.55 23.8 22.55 24.4 22.55 26.2 22.45 26.65 22.4 29.1 22.15 32.25 21.35 32.4 21.35 32.4 21.3 36.1 20.0 37.4 19.4 38.0 19.1 Q39.25 18.35 39.9 17.5 L40.2 17.1 40.65 15.5 40.7 15.7 M32.4 25.75 L32.45 25.75 32.4 25.65 32.4 25.75" fill="#d69938" fill-rule="evenodd" stroke="none"/>
      <path d="M40.6 18.5 L40.7 15.7 Q41.0 16.75 40.85 18.3 L40.75 19.1 40.6 18.5 40.75 19.1 40.7 20.1 40.65 20.2 40.65 19.95 40.6 18.5 M40.7 20.1 L40.65 19.95 40.7 20.1 M40.65 20.75 L40.6 22.55 40.65 23.6 40.85 25.9 40.8 27.0 39.2 28.65 37.8 29.85 32.55 31.75 27.85 33.15 Q27.3 33.15 27.0 32.75 26.75 32.35 26.2 32.35 L26.15 32.35 26.15 32.3 Q25.8 32.3 25.8 32.45 L25.8 32.75 Q25.6 33.25 22.45 33.25 19.3 33.25 16.0 32.2 L13.85 31.4 12.7 30.95 9.85 30.25 8.25 29.45 7.45 29.3 7.4 29.45 7.4 29.25 7.4 28.35 7.4 28.3 Q6.95 28.3 6.85 28.6 L6.75 28.85 6.55 28.95 5.0 27.8 3.4 26.6 5.2 28.9 5.3 29.05 Q3.1 27.15 3.1 25.3 L3.45 23.1 3.45 22.9 Q4.2 24.45 6.4 26.0 7.4 24.6 7.85 23.15 7.75 25.0 8.25 26.9 L8.3 26.9 9.95 27.6 Q12.2 28.75 14.25 29.2 L14.25 29.15 15.05 29.35 22.6 30.3 22.7 30.3 22.9 30.3 26.25 30.2 26.25 30.15 26.3 27.4 27.4 30.0 27.45 30.0 30.8 29.3 Q33.45 28.7 34.9 28.1 L35.2 28.0 Q38.2 26.55 39.5 25.35 L39.55 25.3 Q40.3 23.0 40.65 20.75 M25.55 34.1 L24.85 34.15 25.45 33.95 25.55 34.1 M3.65 20.1 L3.6 17.9 3.6 17.85 Q3.65 15.9 4.15 14.6 4.55 13.6 5.15 12.95 6.8 11.4 9.0 10.8 L9.15 10.75 10.05 10.6 10.2 10.55 11.95 10.3 13.2 10.15 Q22.95 9.15 31.8 11.05 L32.05 11.1 34.45 11.65 35.25 11.85 Q37.45 12.5 39.1 13.7 L39.75 14.15 40.15 14.55 39.65 14.3 39.5 14.25 39.5 14.2 39.25 14.15 39.2 14.1 38.8 14.0 38.7 13.95 38.3 13.95 38.2 13.9 38.15 13.9 38.1 13.9 34.55 14.2 34.05 14.3 33.1 14.55 32.55 14.7 32.55 14.75 32.35 14.8 31.1 15.65 31.1 15.6 31.15 15.5 31.3 15.15 30.9 15.25 30.35 15.25 28.25 14.75 Q26.75 14.15 26.75 13.4 L26.8 13.2 26.7 13.25 25.95 13.65 23.35 13.95 Q21.15 13.95 19.6 13.0 L18.7 12.25 18.35 11.75 18.3 11.75 18.25 11.8 16.6 13.2 15.2 13.45 Q13.9 13.45 12.65 12.85 11.75 12.4 11.5 12.05 L11.55 12.25 11.6 12.55 11.25 14.0 10.35 15.05 11.35 15.3 11.95 15.6 12.0 15.6 13.25 16.55 13.45 16.8 13.5 16.85 13.55 16.85 13.8 16.85 14.45 16.9 14.5 16.9 15.1 16.95 16.1 17.05 16.55 17.1 16.75 17.15 17.0 17.15 17.3 17.2 17.35 17.2 18.1 17.35 18.8 17.45 22.65 18.15 24.45 18.5 24.5 18.5 24.55 18.45 Q25.15 17.9 25.5 17.95 L25.65 18.0 26.05 18.3 26.2 18.4 26.3 18.55 26.2 18.4 26.05 18.3 26.25 18.25 26.45 18.2 27.3 18.0 27.4 17.95 27.5 17.9 27.65 17.9 28.0 17.75 28.05 17.75 26.3 18.55 25.35 19.05 24.95 18.45 25.35 19.05 25.45 19.25 25.55 19.4 25.6 19.55 25.75 20.05 25.8 20.25 25.85 20.35 25.85 20.4 25.95 20.7 Q22.8 19.2 21.25 18.55 L20.3 18.1 18.3 17.5 17.4 17.35 17.05 17.3 15.55 17.2 Q12.65 17.15 10.6 17.8 L10.45 17.8 10.55 17.75 10.6 17.7 Q11.45 16.25 10.05 15.25 L9.25 14.85 9.05 14.8 8.9 14.7 8.85 14.65 8.8 14.65 8.05 14.3 7.3 14.05 6.95 13.95 6.9 13.9 6.45 14.1 5.75 14.5 4.75 15.8 4.6 16.1 4.5 16.4 4.5 16.45 Q3.9 18.15 3.65 20.1 M29.65 17.05 L29.75 17.05 29.65 17.1 29.65 17.05 M27.05 12.6 L26.7 13.25 27.05 12.6 M24.95 18.45 L24.85 18.45 24.75 18.45 24.55 18.45 24.75 18.45 24.85 18.45 24.95 18.45 M32.4 21.3 L32.4 21.35 32.25 21.35 32.4 21.3 M31.45 14.9 L31.15 15.5 31.45 14.9 Q32.05 13.85 32.6 13.65 L32.8 13.55 33.6 13.3 32.8 13.55 32.6 13.65 Q32.05 13.85 31.45 14.9 L31.5 14.9 31.65 14.85 32.6 14.65 33.1 14.55 32.6 14.65 31.65 14.85 31.5 14.9 31.45 14.9 M30.6 18.9 L30.6 18.85 30.65 18.9 30.6 18.9 M11.3 11.7 L11.55 12.25 11.3 11.7 M18.25 11.25 L18.25 11.8 18.25 11.25 M10.35 15.05 L9.25 14.85 10.35 15.05 M4.5 16.45 Q4.05 15.55 4.15 14.6 4.05 15.55 4.5 16.45 M10.55 17.75 Q11.5 17.25 12.35 17.05 L13.1 16.9 13.15 16.85 13.35 16.85 13.5 16.85 13.35 16.85 13.15 16.85 13.1 16.9 12.35 17.05 Q11.5 17.25 10.55 17.75 M26.25 30.2 L26.25 30.25 26.15 32.3 26.25 30.25 26.25 30.2 M7.85 23.15 Q7.6 24.65 7.5 26.55 L7.4 28.3 7.5 26.55 Q7.6 24.65 7.85 23.15 M32.4 25.75 L32.4 25.65 32.45 25.75 32.4 25.75" fill="#ad651f" fill-rule="evenodd" stroke="none"/>
      <path d="M40.8 27.0 L40.15 28.4 39.8 28.9 Q38.6 30.25 34.9 31.7 L32.4 32.65 Q29.05 33.8 25.55 34.1 L25.45 33.95 26.1 33.35 25.45 33.95 24.85 34.15 24.65 34.2 23.05 34.2 22.95 34.2 Q18.0 34.2 12.8 32.5 L8.35 30.8 8.1 30.7 6.8 30.1 6.45 29.95 6.45 29.9 5.45 29.15 5.3 29.05 5.2 28.9 3.4 26.6 5.0 27.8 6.55 28.95 6.75 28.85 6.85 28.6 Q6.95 28.3 7.4 28.3 L7.4 28.35 7.4 29.25 7.4 29.45 7.45 29.3 8.25 29.45 9.85 30.25 12.7 30.95 13.85 31.4 16.0 32.2 Q19.3 33.25 22.45 33.25 25.6 33.25 25.8 32.75 L25.8 32.45 Q25.8 32.3 26.15 32.3 L26.15 32.35 26.2 32.35 Q26.75 32.35 27.0 32.75 27.3 33.15 27.85 33.15 L32.55 31.75 37.8 29.85 39.2 28.65 40.8 27.0 M26.7 13.25 L26.8 13.2 26.75 13.4 Q26.75 14.15 28.25 14.75 L30.35 15.25 30.9 15.25 31.3 15.15 31.15 15.5 31.1 15.6 31.1 15.65 31.05 15.75 30.7 16.25 30.35 16.65 29.9 16.9 29.75 17.0 29.75 17.05 29.65 17.05 29.55 17.1 29.4 17.2 29.0 17.35 28.4 17.6 28.25 17.65 28.0 17.75 27.65 17.9 27.5 17.9 27.4 17.95 27.3 18.0 26.45 18.2 Q26.25 15.4 26.45 14.4 L26.65 13.3 26.7 13.25 26.65 13.3 26.45 14.4 Q26.25 15.4 26.45 18.2 L26.25 18.25 26.05 18.3 25.65 18.0 25.5 17.95 Q25.15 17.9 24.55 18.45 L24.5 18.5 24.45 18.5 22.65 18.15 18.8 17.45 18.1 17.35 17.35 17.2 17.3 17.2 17.0 17.15 16.75 17.15 16.55 17.1 16.1 17.05 15.1 16.95 14.5 16.9 14.45 16.9 13.8 16.85 13.55 16.85 13.5 16.85 13.45 16.8 13.25 16.55 12.0 15.6 11.95 15.6 11.35 15.3 10.35 15.05 11.25 14.0 11.6 12.55 11.55 12.25 11.5 12.05 Q11.75 12.4 12.65 12.85 13.9 13.45 15.2 13.45 L16.6 13.2 18.25 11.8 18.25 11.9 Q16.8 14.1 17.35 17.2 16.8 14.1 18.25 11.9 L18.25 11.8 18.3 11.75 18.35 11.75 18.7 12.25 19.6 13.0 Q21.15 13.95 23.35 13.95 L25.95 13.65 26.7 13.25 M18.25 11.9 L18.3 11.75 18.25 11.9 M8.1 30.7 Q7.5 30.15 7.4 29.45 7.5 30.15 8.1 30.7 M26.1 33.35 L26.15 32.35 26.1 33.35" fill="#875018" fill-rule="evenodd" stroke="none"/>
      <path d="M40.65 15.5 L40.2 17.1 39.95 16.6 39.8 16.25 Q38.85 14.85 37.25 14.6 L34.1 14.45 33.9 14.5 33.1 14.55 33.9 14.5 34.1 14.45 37.25 14.6 Q38.85 14.85 39.8 16.25 L39.95 16.6 40.2 17.1 39.9 17.5 Q39.25 18.35 38.0 19.1 L37.4 19.4 36.1 20.0 32.4 21.3 32.25 21.35 29.1 22.15 26.65 22.4 26.2 22.45 24.4 22.55 23.8 22.55 23.15 22.55 17.55 22.2 13.4 21.4 12.8 21.25 11.4 20.8 8.7 19.75 Q9.1 18.8 9.65 18.3 L10.6 17.7 9.65 18.3 Q9.1 18.8 8.7 19.75 L7.9 19.35 7.4 19.05 Q5.2 17.8 4.5 16.45 L4.5 16.4 4.6 16.1 4.75 15.8 5.75 14.5 6.45 14.1 6.9 13.9 6.95 13.95 7.3 14.05 8.05 14.3 8.8 14.65 8.85 14.65 8.9 14.7 9.05 14.8 9.25 14.85 10.05 15.25 Q11.45 16.25 10.6 17.7 L10.55 17.75 10.45 17.8 10.6 17.8 Q12.65 17.15 15.55 17.2 L17.05 17.3 17.4 17.35 18.3 17.5 20.3 18.1 21.25 18.55 Q22.8 19.2 25.95 20.7 L26.0 21.0 26.05 21.15 26.05 21.25 26.2 22.1 26.2 22.45 26.2 22.1 26.05 21.25 26.05 21.15 26.0 21.0 25.95 20.7 25.85 20.4 25.85 20.35 25.8 20.25 25.75 20.05 25.6 19.55 25.55 19.4 25.45 19.25 25.35 19.05 26.3 18.55 28.05 17.75 28.15 17.7 28.25 17.65 28.4 17.6 29.0 17.35 29.4 17.2 29.55 17.1 29.65 17.05 29.65 17.1 29.75 17.05 29.75 17.0 29.9 16.9 30.35 16.65 30.7 16.25 31.05 15.75 31.1 15.65 32.35 14.8 32.55 14.75 32.55 14.7 33.1 14.55 34.05 14.3 34.55 14.2 38.1 13.9 38.15 13.9 38.3 13.95 38.7 13.95 38.8 14.0 39.2 14.1 39.25 14.15 39.45 14.2 39.5 14.2 39.5 14.25 39.65 14.3 40.15 14.55 40.65 15.5 M27.75 20.4 L27.55 20.15 27.3 19.8 27.2 19.7 26.85 19.15 26.3 18.55 26.85 19.15 27.2 19.7 27.3 19.8 27.55 20.15 27.75 20.4 M30.6 18.9 L30.65 18.9 30.6 18.85 30.6 18.9" fill="#ffc145" fill-rule="evenodd" stroke="none"/>
      <path d="M40.7 15.7 L40.65 15.5 40.2 17.1 40.6 18.5 40.75 19.1 40.85 18.3 Q41.0 16.75 40.7 15.7 M40.65 19.95 L40.7 20.1 40.75 19.1 M40.7 20.1 L40.65 20.2 40.65 20.75 40.6 22.55 40.65 23.6 40.85 25.9 40.8 27.0 40.15 28.4 39.8 28.9 Q38.6 30.25 34.9 31.7 L32.4 32.65 Q29.05 33.8 25.55 34.1 L24.85 34.15 24.65 34.2 23.05 34.2 22.95 34.2 Q18.0 34.2 12.8 32.5 L8.35 30.8 8.1 30.7 6.8 30.1 6.45 29.95 6.45 29.9 5.45 29.15 5.3 29.05 Q3.1 27.15 3.1 25.3 L3.45 23.1 3.45 22.9 3.65 20.1 3.6 17.9 3.6 17.85 Q3.65 15.9 4.15 14.6 4.55 13.6 5.15 12.95 6.8 11.4 9.0 10.8 L9.15 10.75 10.05 10.6 10.2 10.55 11.95 10.3 13.2 10.15 Q22.95 9.15 31.8 11.05 L32.05 11.1 34.45 11.65 35.25 11.85 Q37.45 12.5 39.1 13.7 L39.75 14.15 40.15 14.55 40.65 15.5 M31.1 15.65 L31.1 15.6 31.15 15.5 31.45 14.9 31.5 14.9 31.65 14.85 32.6 14.65 33.1 14.55 33.9 14.5 34.1 14.45 37.25 14.6 Q38.85 14.85 39.8 16.25 L39.95 16.6 40.2 17.1 M10.6 17.7 L9.65 18.3 Q9.1 18.8 8.7 19.75 8.2 20.85 7.9 22.6 L7.85 22.9 7.85 23.05 7.85 23.15 M38.15 13.9 L38.3 13.95 38.7 13.95 38.8 14.0 39.2 14.1 39.25 14.15 39.45 14.2 39.5 14.2 39.5 14.25 39.65 14.3 40.15 14.55 M38.15 13.9 L38.1 13.9 34.55 14.2 34.05 14.3 33.1 14.55 M33.6 13.3 L32.8 13.55 32.6 13.65 Q32.05 13.85 31.45 14.9 M7.4 28.35 L7.4 29.25 7.4 29.45 Q7.5 30.15 8.1 30.7 M7.4 28.3 L7.5 26.55 Q7.6 24.65 7.85 23.15" fill="none" stroke="#000000" stroke-linecap="round" stroke-linejoin="round" stroke-opacity="0.3019608" stroke-width="0.05"/>
      <path d="M26.7 13.25 L26.65 13.3 26.45 14.4 Q26.25 15.4 26.45 18.2 L27.3 18.0 27.4 17.95 27.5 17.9 27.65 17.9 28.0 17.75 M28.25 17.65 L28.4 17.6 29.0 17.35 29.4 17.2 29.55 17.1 29.65 17.05 29.75 17.05 29.75 17.0 29.9 16.9 30.35 16.65 30.7 16.25 31.05 15.75 31.1 15.65 M31.15 15.5 L31.3 15.15 M26.7 13.25 L27.05 12.6 M26.05 18.3 L25.65 18.0 25.5 17.95 Q25.15 17.9 24.55 18.45 L24.75 18.45 24.85 18.45 24.95 18.45 M26.3 18.55 L26.2 18.4 26.05 18.3 26.25 18.25 26.45 18.2 M28.25 17.65 L28.15 17.7 28.05 17.75 28.0 17.75 M26.3 18.55 L26.85 19.15 27.2 19.7 27.3 19.8 27.55 20.15 27.75 20.4 M29.65 17.1 L29.65 17.05 M10.45 17.8 L10.55 17.75 M17.35 17.2 L18.1 17.35 18.8 17.45 22.65 18.15 24.45 18.5 24.5 18.5 24.55 18.45 M32.25 21.35 L32.4 21.3 M11.55 12.25 L11.6 12.55 11.25 14.0 10.35 15.05 11.35 15.3 11.95 15.6 12.0 15.6 13.25 16.55 13.45 16.8 13.5 16.85 13.55 16.85 13.8 16.85 14.45 16.9 14.5 16.9 15.1 16.95 16.1 17.05 16.55 17.1 16.75 17.15 17.0 17.15 17.3 17.2 17.35 17.2 Q16.8 14.1 18.25 11.9 L18.25 11.8 18.25 11.25 M11.55 12.25 L11.3 11.7 M18.25 11.8 L18.3 11.75 18.35 11.75 M18.3 11.75 L18.25 11.9 M9.05 14.8 L9.25 14.85 10.35 15.05 M4.15 14.6 Q4.05 15.55 4.5 16.45 L4.5 16.4 M13.5 16.85 L13.35 16.85 13.15 16.85 13.1 16.9 12.35 17.05 Q11.5 17.25 10.55 17.75 M26.1 33.35 L25.45 33.95 24.85 34.15" fill="none" stroke="#332720" stroke-linecap="round" stroke-linejoin="round" stroke-opacity="0.6" stroke-width="0.05"/>
      <path d="M23.15 22.55 L23.8 22.55 24.4 22.55 26.2 22.45 M32.25 21.35 L29.1 22.15 26.65 22.4 26.2 22.45 M40.2 17.1 L39.9 17.5 Q39.25 18.35 38.0 19.1 L37.4 19.4 36.1 20.0 32.4 21.3 M4.5 16.45 Q5.2 17.8 7.4 19.05 L7.9 19.35 8.7 19.75" fill="none" stroke="#332720" stroke-linecap="round" stroke-linejoin="round" stroke-opacity="0.3019608" stroke-width="0.05"/>
      <path d="M24.95 18.45 L25.35 19.05 M26.2 22.45 L26.2 22.1 26.05 21.25 26.05 21.15 26.0 21.0 25.95 20.7 25.85 20.4 25.85 20.35 25.8 20.25 25.75 20.05 25.6 19.55 25.55 19.4 25.45 19.25 25.35 19.05 M26.2 22.45 L26.2 22.55 26.3 25.9 26.3 26.05 26.3 26.2 26.3 26.7 26.3 26.75 26.3 27.4 M26.25 30.2 L26.25 30.15 26.3 27.4 M26.15 32.3 L26.25 30.25 26.25 30.2 M26.15 32.35 L26.1 33.35 M26.15 32.3 L26.15 32.35" fill="none" stroke="#332720" stroke-linecap="round" stroke-linejoin="round" stroke-opacity="0.6" stroke-width="0.05"/>
      <path d="M8.7 19.75 L11.4 20.8 12.8 21.25 13.4 21.4 17.55 22.2 23.15 22.55" fill="none" stroke="#332720" stroke-linecap="round" stroke-linejoin="round" stroke-opacity="0.3019608" stroke-width="0.05"/>
      <path d="M35.15 20.05 L35.2 21.0" fill="none" stroke="#332720" stroke-linecap="round" stroke-linejoin="round" stroke-opacity="0.6" stroke-width="0.05"/>
      <path d="M14.35 20.95 L14.1 22.4" fill="none" stroke="#332720" stroke-linecap="round" stroke-linejoin="round" stroke-opacity="0.6" stroke-width="0.05"/>
      <path d="M14.75 21.25 L14.5 22.35" fill="none" stroke="#332720" stroke-linecap="round" stroke-linejoin="round" stroke-opacity="0.6" stroke-width="0.05"/>
      <path d="M38.55 16.25 L38.8 16.95 Q38.8 17.6 37.2 18.5 35.9 19.2 34.2 19.75 L30.9 20.9 28.95 21.65 Q28.65 21.65 28.0 20.4 L27.35 19.15 27.45 18.8 28.0 18.7 Q29.7 18.7 31.5 17.35 L33.05 15.95 Q33.9 15.3 35.2 15.4 L37.0 15.7 38.55 16.25 M34.35 16.3 L34.45 16.25 34.25 16.25 34.2 16.3 34.35 16.3 M29.2 20.35 L29.2 20.4 29.25 20.45 29.3 20.45 29.35 20.3 Q29.3 20.25 29.2 20.35" fill="#ffd277" fill-rule="evenodd" stroke="none"/>
      <path d="M15.45 20.5 L13.35 20.3 Q12.3 20.3 11.15 19.8 L10.15 19.0 Q10.15 18.7 11.6 18.3 L13.1 18.0 16.05 17.85 18.45 18.15 20.1 18.8 21.5 19.6 23.75 21.35 Q23.75 21.8 23.05 21.8 L20.45 21.4 18.25 20.9 15.45 20.5" fill="#ffd277" fill-rule="evenodd" stroke="none"/>
      <path d="M9.55 16.25 Q9.55 17.1 9.05 17.55 8.65 17.9 7.9 17.9 7.4 17.9 6.9 17.45 L6.2 16.95 5.3 16.6 5.2 16.15 Q5.2 15.5 6.05 15.0 6.75 14.6 7.2 14.65 L8.65 15.35 9.55 16.25" fill="#ffd277" fill-rule="evenodd" stroke="none"/>
      <path d="M37.95 13.75 L37.7 14.0 36.65 13.55 35.55 13.05 34.4 12.65 32.4 12.45 30.6 11.9 27.7 11.35 27.0 11.45 25.1 11.55 24.4 11.45 23.9 11.4 22.3 11.35 20.2 11.2 19.45 10.95 18.65 10.7 17.9 10.85 17.3 10.95 17.1 10.9 16.85 10.85 Q14.45 10.85 13.6 11.3 L13.2 11.6 12.9 11.7 12.25 11.6 11.2 11.45 9.1 12.35 6.75 13.3 6.55 13.2 6.55 13.1 7.35 12.45 Q8.0 12.05 8.85 11.75 L10.1 11.2 11.2 10.7 11.6 10.75 12.0 10.8 12.2 10.85 12.45 10.85 13.5 10.5 17.45 10.1 18.65 9.85 Q19.25 9.75 20.1 10.3 L21.45 11.0 21.9 10.85 22.4 10.55 23.9 10.6 25.75 10.8 27.15 10.7 27.8 10.6 30.95 11.2 33.35 11.9 36.35 12.65 Q37.95 13.2 37.95 13.75" fill="#cc7824" fill-rule="evenodd" stroke="none"/>
      <path d="M20.3 20.8 L20.45 20.85 20.3 20.8 16.2 20.15 16.25 19.6 16.0 18.5 15.95 18.5 15.65 18.45 15.6 18.45 15.85 18.4 15.65 18.35 Q12.2 17.85 9.8 20.35 8.3 21.85 7.75 23.95 L7.3 23.85 7.75 23.95 Q7.35 25.3 7.35 26.85 L7.35 27.35 Q7.5 30.85 9.45 33.7 7.0 30.45 7.0 26.4 L7.2 24.4 7.3 23.85 Q7.8 21.55 9.35 19.95 L9.45 19.85 10.2 19.15 11.15 18.55 11.45 18.4 Q13.25 17.6 15.3 17.9 18.25 18.35 20.45 20.85 L21.15 21.7 21.1 21.7 20.3 20.8 M12.7 15.8 L12.55 15.85 11.95 16.0 12.25 15.9 12.45 15.85 12.65 15.8 12.7 15.8" fill="#432101" fill-rule="evenodd" stroke="none"/>
      <path d="M9.35 19.95 Q7.8 21.55 7.3 23.85 L7.2 24.4 7.0 26.4 Q7.0 30.45 9.45 33.7 L9.6 33.95 10.2 34.65 Q12.4 37.05 15.3 37.5 L15.55 37.55 Q18.8 37.95 21.1 35.6 L21.15 35.55 21.45 35.25 21.85 34.7 22.2 34.2 22.55 33.6 23.45 34.55 23.15 35.05 21.9 36.65 21.25 37.3 Q18.7 39.4 15.3 38.9 11.4 38.25 8.65 34.6 5.9 30.9 5.9 26.3 5.9 21.7 8.45 19.1 L8.6 19.1 9.35 19.95 M22.75 33.2 L23.75 33.95 23.6 34.25 22.7 33.35 22.7 33.3 22.75 33.2" fill="#d4b954" fill-rule="evenodd" stroke="none"/>
      <path d="M10.4 17.15 L10.65 17.0 10.9 17.2 10.5 17.4 10.4 17.15" fill="#f7d991" fill-rule="evenodd" stroke="none"/>
      <path d="M15.6 18.45 L15.65 18.45 15.95 18.5 16.0 18.5 16.25 19.6 16.0 20.2 15.8 20.55 15.7 20.7 15.45 20.1 15.45 20.05 Q14.95 18.5 15.6 18.45 M21.65 23.75 Q21.35 24.6 20.15 24.2 L20.05 24.15 19.9 24.05 20.05 23.85 20.1 23.8 20.85 23.15 21.2 23.05 21.65 23.75 M8.9 22.25 Q8.7 21.9 9.0 21.45 9.85 21.25 10.35 23.0 L9.9 22.9 8.9 22.25" fill="#ffe700" fill-rule="evenodd" stroke="none"/>
      <path d="M11.45 18.4 L11.15 18.55 10.5 17.4 10.9 17.2 10.65 17.0 Q12.7 15.95 15.3 16.35 19.3 16.95 22.1 20.75 23.4 22.5 24.1 24.45 L24.3 25.05 24.35 25.3 24.55 26.0 Q24.9 27.55 24.9 29.25 24.9 33.8 22.3 36.65 L22.1 36.9 Q19.3 39.8 15.3 39.15 11.3 38.55 8.5 34.75 5.65 30.95 5.65 26.25 5.65 21.6 8.4 18.7 L8.45 19.1 8.65 18.85 8.9 18.6 9.8 17.85 Q9.65 18.4 10.2 19.15 L9.45 19.85 9.35 19.95 8.6 19.1 8.45 19.1 Q5.9 21.7 5.9 26.3 5.9 30.9 8.65 34.6 11.4 38.25 15.3 38.9 18.7 39.4 21.25 37.3 L21.9 36.65 23.15 35.05 23.45 34.55 22.55 33.6 22.7 33.3 22.7 33.35 23.6 34.25 23.75 33.95 Q24.65 31.5 24.65 29.25 24.65 27.55 24.3 26.0 L24.15 25.35 24.05 25.15 23.85 24.55 Q23.2 22.65 21.9 20.95 19.15 17.25 15.3 16.65 12.85 16.25 10.9 17.2 L11.45 18.4" fill="#ffffff" fill-rule="evenodd" stroke="none"/>
      <path d="M21.15 21.7 L20.45 20.85 Q18.25 18.35 15.3 17.9 13.25 17.6 11.45 18.4 L10.9 17.2 Q12.85 16.25 15.3 16.65 19.15 17.25 21.9 20.95 23.2 22.65 23.85 24.55 L24.05 25.15 24.15 25.35 24.3 26.0 Q24.65 27.55 24.65 29.25 24.65 31.5 23.75 33.95 L22.75 33.2 22.85 33.0 22.75 33.2 22.8 33.05 22.85 33.0 Q23.55 30.9 23.55 29.0 L23.4 26.9 23.25 26.2 23.1 25.6 22.9 25.0 Q22.35 23.4 21.3 21.95 L21.15 21.7 M11.15 18.55 L10.2 19.15 Q9.65 18.4 9.8 17.85 L10.5 17.4 11.15 18.55" fill="#e8ca5c" fill-rule="evenodd" stroke="none"/>
      <path d="M22.3 36.65 Q24.9 33.8 24.9 29.25 24.9 27.55 24.55 26.0 L24.35 25.3 24.3 25.05 24.1 24.45 Q23.4 22.5 22.1 20.75 19.3 16.95 15.3 16.35 12.7 15.95 10.65 17.0 L10.4 17.15 9.75 17.55 9.9 17.35 10.0 17.25 10.15 17.1 12.65 15.9 12.9 15.8 12.95 15.8 13.25 15.7 15.35 15.75 16.05 15.8 18.9 16.5 Q21.25 17.1 23.4 20.1 25.5 23.1 25.55 24.55 L25.6 24.7 25.65 24.8 25.7 24.9 25.75 25.25 25.8 25.25 25.85 25.45 26.0 26.05 26.3 29.45 Q26.35 31.45 25.5 32.9 L24.1 34.85 24.05 34.85 23.95 35.05 23.75 35.25 23.7 35.3 23.6 35.45 22.4 36.6 22.3 36.65 M25.65 24.8 L25.7 24.9 25.65 24.8" fill="#693301" fill-rule="evenodd" stroke="none"/>
      <path d="M20.3 20.8 L21.1 21.7 21.15 21.7 21.3 21.95 Q22.35 23.4 22.9 25.0 L23.1 25.6 23.25 26.2 23.4 26.9 23.55 29.0 Q23.55 30.9 22.85 33.0 L22.8 33.05 22.75 33.2 22.7 33.3 22.55 33.6 22.2 34.2 21.85 34.7 21.45 35.25 21.15 35.55 21.1 35.6 Q18.8 37.95 15.55 37.55 L15.3 37.5 Q12.4 37.05 10.2 34.65 L9.6 33.95 9.45 33.7 Q7.5 30.85 7.35 27.35 L7.35 26.85 Q7.35 25.3 7.75 23.95 8.3 21.85 9.8 20.35 12.2 17.85 15.65 18.35 L15.85 18.4 15.6 18.45 Q14.95 18.5 15.45 20.05 L15.45 20.1 15.7 20.7 15.8 20.55 16.0 20.2 16.25 19.6 16.2 20.15 20.3 20.8 M21.65 23.75 L21.2 23.05 20.85 23.15 20.1 23.8 20.05 23.85 19.9 24.05 20.05 24.15 20.15 24.2 Q21.35 24.6 21.65 23.75 M12.4 24.65 L7.75 23.95 12.4 24.65 M8.9 22.25 L9.9 22.9 10.35 23.0 Q9.85 21.25 9.0 21.45 8.7 21.9 8.9 22.25 M13.8 24.15 L11.85 23.85 13.8 24.15 M15.75 35.5 L10.2 34.65 15.75 35.5 M21.05 26.65 L10.65 25.05 21.05 26.65 M13.5 34.6 L21.1 35.6 13.5 34.6" fill="url(#gradient0)" fill-rule="evenodd" stroke="none"/>
      <path d="M9.75 17.55 L10.4 17.15 10.5 17.4 9.8 17.85 9.6 17.65 9.75 17.55" fill="url(#gradient1)" fill-rule="evenodd" stroke="none"/>
      <path d="M20.45 20.85 L20.3 20.8 M21.15 21.7 L20.45 20.85 Q18.25 18.35 15.3 17.9 13.25 17.6 11.45 18.4 L11.15 18.55 10.2 19.15 9.45 19.85 9.35 19.95 Q7.8 21.55 7.3 23.85 L7.75 23.95 12.4 24.65 M15.6 18.45 L15.65 18.45 15.95 18.5 16.0 18.5 16.25 19.6 M16.2 20.15 L20.3 20.8 M21.65 23.75 Q21.35 24.6 20.15 24.2 L20.05 24.15 19.9 24.05 20.05 23.85 20.1 23.8 20.85 23.15 21.2 23.05 21.65 23.75 M21.15 21.7 L21.3 21.95 Q22.35 23.4 22.9 25.0 L23.1 25.6 23.25 26.2 23.4 26.9 23.55 29.0 Q23.55 30.9 22.85 33.0 L22.75 33.2 22.8 33.05 22.85 33.0 M10.65 17.0 Q12.7 15.95 15.3 16.35 19.3 16.95 22.1 20.75 23.4 22.5 24.1 24.45 L24.3 25.05 24.35 25.3 24.55 26.0 Q24.9 27.55 24.9 29.25 24.9 33.8 22.3 36.65 M22.4 36.6 L23.6 35.45 23.7 35.3 23.75 35.25 M23.95 35.05 L24.05 34.85 M24.1 34.85 L25.5 32.9 Q26.35 31.45 26.3 29.45 L26.0 26.05 25.85 25.45 25.8 25.25 M25.7 24.9 L25.65 24.8 25.6 24.7 25.55 24.55 Q25.5 23.1 23.4 20.1 21.25 17.1 18.9 16.5 L16.05 15.8 15.35 15.75 13.25 15.7 12.95 15.8 M12.65 15.9 L10.15 17.1 10.0 17.25 M9.9 17.35 L9.75 17.55 10.4 17.15 10.65 17.0 M9.6 17.65 L9.75 17.55 M9.6 17.65 L9.35 17.8 9.2 17.95 9.05 18.05 9.1 18.0 9.2 17.95 M9.05 18.05 L8.95 18.15 8.5 18.6 8.4 18.7 Q5.65 21.6 5.65 26.25 5.65 30.95 8.5 34.75 11.3 38.55 15.3 39.15 19.3 39.8 22.1 36.9 L22.3 36.65 M9.9 17.35 L9.35 17.8 M7.3 23.85 L7.2 24.4 7.0 26.4 Q7.0 30.45 9.45 33.7 M8.9 22.25 Q8.7 21.9 9.0 21.45 9.85 21.25 10.35 23.0 L9.9 22.9 8.9 22.25 M12.7 15.8 L12.75 15.75 12.75 15.8 12.7 15.8 M11.85 23.85 L13.8 24.15 M15.6 18.45 Q14.95 18.5 15.45 20.05 L15.45 20.1 15.7 20.7 15.8 20.55 16.0 20.2 16.25 19.6 M10.2 34.65 L15.75 35.5 M22.55 33.6 L22.2 34.2 21.85 34.7 21.45 35.25 21.15 35.55 21.1 35.6 Q18.8 37.95 15.55 37.55 L15.3 37.5 Q12.4 37.05 10.2 34.65 L9.6 33.95 9.45 33.7 M22.55 33.6 L22.7 33.3 22.75 33.2 M25.7 24.9 L25.8 25.25 M22.7 33.3 L22.7 33.35 M23.95 35.05 L23.8 35.2 24.1 34.85 M23.8 35.2 L23.75 35.25 M21.1 35.6 L13.5 34.6 M10.65 25.05 L21.05 26.65" fill="none" stroke="#000000" stroke-linecap="round" stroke-linejoin="round" stroke-opacity="0.3019608" stroke-width="0.05"/>
      <path d="M15.65 17.0 L15.6 17.0 15.7 16.85 15.65 17.0" fill="#3d2609" fill-rule="evenodd" stroke="none"/>
      <path d="M15.2 17.3 L15.3 17.35 15.45 17.35 Q15.55 17.25 15.6 17.25 L15.6 17.3 15.55 17.5 15.4 17.5 15.3 17.45 15.2 17.3" fill="#57390d" fill-rule="evenodd" stroke="none"/>
      <path d="M15.6 17.0 L15.4 16.9 15.2 16.9 15.1 17.1 15.1 17.15 15.1 17.3 15.2 17.45 15.3 17.55 15.4 17.6 15.6 17.5 15.7 17.3 15.7 17.1 15.65 17.0 15.6 17.0 Z" fill="none" stroke="#332720" stroke-linecap="round" stroke-linejoin="round" stroke-opacity="0.6" stroke-width="1.5"/>
      <path d="M21.55 35.85 L21.55 35.8 21.65 35.7 21.55 35.85" fill="#3d2609" fill-rule="evenodd" stroke="none"/>
      <path d="M21.55 36.15 L21.5 36.25 21.35 36.3 21.25 36.25 21.15 36.1 21.25 36.15 21.4 36.1 21.5 36.05 21.55 36.15" fill="#57390d" fill-rule="evenodd" stroke="none"/>
      <path d="M21.55 35.85 L21.55 35.8 21.5 35.75 21.35 35.65 21.15 35.7 21.05 35.9 21.05 36.0 21.05 36.15 21.15 36.25 21.2 36.35 21.35 36.4 21.55 36.35 21.65 36.1 21.65 35.95 21.55 35.85 Z" fill="none" stroke="#332720" stroke-linecap="round" stroke-linejoin="round" stroke-opacity="0.6" stroke-width="1.5"/>
      <path d="M6.6 24.35 L6.6 24.3 6.7 24.2 6.6 24.35" fill="#3d2609" fill-rule="evenodd" stroke="none"/>
      <path d="M6.55 24.55 L6.6 24.65 6.55 24.8 6.4 24.8 6.25 24.75 6.15 24.65 6.25 24.65 6.45 24.6 6.55 24.55" fill="#57390d" fill-rule="evenodd" stroke="none"/>
      <path d="M6.6 24.3 L6.55 24.3 6.4 24.15 6.15 24.25 6.1 24.45 6.1 24.5 6.1 24.65 6.2 24.8 6.25 24.85 6.4 24.9 6.6 24.85 6.7 24.6 6.65 24.45 6.6 24.35 6.6 24.3 Z" fill="none" stroke="#332720" stroke-linecap="round" stroke-linejoin="round" stroke-opacity="0.6" stroke-width="1.5"/>
      <path d="M22.95 23.15 L22.9 23.1 23.0 23.0 22.95 23.15" fill="#3d2609" fill-rule="evenodd" stroke="none"/>
      <path d="M22.6 23.6 L22.5 23.45 22.6 23.5 22.8 23.4 22.9 23.35 22.95 23.45 22.85 23.6 22.75 23.65 22.6 23.6" fill="#57390d" fill-rule="evenodd" stroke="none"/>
      <path d="M22.9 23.1 L22.9 23.05 22.7 23.0 22.5 23.05 22.4 23.25 22.4 23.3 22.45 23.45 22.5 23.6 22.6 23.7 22.7 23.75 22.95 23.65 23.05 23.4 23.0 23.25 22.95 23.15 22.9 23.1 Z" fill="none" stroke="#332720" stroke-linecap="round" stroke-linejoin="round" stroke-opacity="0.6" stroke-width="1.5"/>
      <path d="M10.65 34.25 L11.15 33.8 10.8 34.45 10.75 34.4 10.65 34.25" fill="#3d2609" fill-rule="evenodd" stroke="none"/>
      <path d="M9.3 35.85 L10.1 35.7 Q10.5 35.4 10.55 35.4 10.75 35.45 10.75 35.8 L10.5 36.4 9.9 36.55 9.3 36.35 8.85 35.75 9.3 35.85" fill="#ffffff" fill-rule="evenodd" stroke="none"/>
      <path d="M10.8 34.45 L11.05 34.9 11.15 35.6 Q11.15 36.3 10.75 36.65 10.35 37.05 9.8 36.95 L9.25 36.75 8.9 36.35 8.55 35.8 8.55 35.75 8.45 35.1 8.5 34.8 Q8.55 34.35 8.85 34.05 9.25 33.65 9.8 33.75 10.25 33.8 10.6 34.15 L10.65 34.25 10.75 34.4 10.8 34.45 M9.3 35.85 L8.85 35.75 9.3 36.35 9.9 36.55 10.5 36.4 10.75 35.8 Q10.75 35.45 10.55 35.4 10.5 35.4 10.1 35.7 L9.3 35.85" fill="#ffcc00" fill-rule="evenodd" stroke="none"/>
      <path d="M10.8 34.45 L11.05 34.9 11.15 35.6 Q11.15 36.3 10.75 36.65 10.35 37.05 9.8 36.95 L9.25 36.75 8.9 36.35 8.55 35.8 8.55 35.75 8.45 35.1 8.5 34.8 Q8.55 34.35 8.85 34.05 9.25 33.65 9.8 33.75 10.25 33.8 10.6 34.15 L10.65 34.25 M10.8 34.45 L10.75 34.4 10.65 34.25" fill="none" stroke="#332720" stroke-linecap="round" stroke-linejoin="round" stroke-opacity="0.3019608" stroke-width="0.05"/>
      <path d="M7.45 23.5 L7.95 23.05 7.6 23.7 7.55 23.65 7.45 23.5" fill="#3d2609" fill-rule="evenodd" stroke="none"/>
      <path d="M6.1 25.1 L6.9 24.95 7.35 24.65 Q7.55 24.7 7.55 25.05 L7.3 25.65 6.7 25.8 6.1 25.6 5.65 25.0 6.1 25.1" fill="#ffffff" fill-rule="evenodd" stroke="none"/>
      <path d="M6.1 25.1 L5.65 25.0 6.1 25.6 6.7 25.8 7.3 25.65 7.55 25.05 Q7.55 24.7 7.35 24.65 L6.9 24.95 6.1 25.1 M7.6 23.7 L7.85 24.15 7.95 24.85 Q7.95 25.55 7.55 25.9 L6.6 26.2 6.05 26.0 5.7 25.6 5.35 25.05 5.35 25.0 5.25 24.35 5.3 24.05 Q5.35 23.6 5.65 23.3 6.05 22.9 6.6 23.0 7.05 23.05 7.4 23.4 L7.45 23.5 7.55 23.65 7.6 23.7" fill="#ffcc00" fill-rule="evenodd" stroke="none"/>
      <path d="M7.6 23.7 L7.85 24.15 7.95 24.85 Q7.95 25.55 7.55 25.9 L6.6 26.2 6.05 26.0 5.7 25.6 5.35 25.05 5.35 25.0 5.25 24.35 5.3 24.05 Q5.35 23.6 5.65 23.3 6.05 22.9 6.6 23.0 7.05 23.05 7.4 23.4 L7.45 23.5 M7.6 23.7 L7.55 23.65 7.45 23.5" fill="none" stroke="#332720" stroke-linecap="round" stroke-linejoin="round" stroke-opacity="0.3019608" stroke-width="0.05"/>
      <path d="M16.25 16.3 L16.75 15.85 16.4 16.5 16.35 16.45 16.25 16.3" fill="#3d2609" fill-rule="evenodd" stroke="none"/>
      <path d="M14.45 17.8 L14.9 17.9 15.7 17.75 16.15 17.45 Q16.35 17.5 16.35 17.85 L16.1 18.45 15.5 18.6 14.9 18.4 14.45 17.8" fill="#ffffff" fill-rule="evenodd" stroke="none"/>
      <path d="M16.4 16.5 L16.65 16.95 16.75 17.65 Q16.75 18.35 16.35 18.7 15.95 19.1 15.4 19.0 L14.85 18.8 14.5 18.4 14.15 17.85 14.15 17.8 14.05 17.15 14.1 16.85 Q14.15 16.4 14.45 16.1 14.85 15.7 15.4 15.8 15.85 15.85 16.2 16.2 L16.25 16.3 16.35 16.45 16.4 16.5 M14.45 17.8 L14.9 18.4 15.5 18.6 16.1 18.45 16.35 17.85 Q16.35 17.5 16.15 17.45 L15.7 17.75 14.9 17.9 14.45 17.8" fill="#ffcc00" fill-rule="evenodd" stroke="none"/>
      <path d="M16.4 16.5 L16.65 16.95 16.75 17.65 Q16.75 18.35 16.35 18.7 15.95 19.1 15.4 19.0 L14.85 18.8 14.5 18.4 14.15 17.85 14.15 17.8 14.05 17.15 14.1 16.85 Q14.15 16.4 14.45 16.1 14.85 15.7 15.4 15.8 15.85 15.85 16.2 16.2 L16.25 16.3 M16.4 16.5 L16.35 16.45 16.25 16.3" fill="none" stroke="#332720" stroke-linecap="round" stroke-linejoin="round" stroke-opacity="0.3019608" stroke-width="0.05"/>
      <path d="M23.2 22.55 L23.7 22.1 23.35 22.75 23.3 22.7 23.2 22.55" fill="#3d2609" fill-rule="evenodd" stroke="none"/>
      <path d="M21.4 24.05 L21.85 24.15 22.65 24.0 23.1 23.7 23.3 24.1 23.05 24.7 22.45 24.85 21.85 24.65 21.4 24.05" fill="#ffffff" fill-rule="evenodd" stroke="none"/>
      <path d="M21.4 24.05 L21.85 24.65 22.45 24.85 23.05 24.7 23.3 24.1 23.1 23.7 22.65 24.0 21.85 24.15 21.4 24.05 M23.35 22.75 L23.6 23.2 23.7 23.9 Q23.7 24.6 23.3 24.95 22.9 25.35 22.35 25.25 L21.8 25.05 21.45 24.65 21.1 24.1 21.1 24.05 21.0 23.4 21.05 23.1 Q21.1 22.65 21.4 22.35 21.8 21.95 22.35 22.05 22.8 22.1 23.15 22.45 L23.2 22.55 23.3 22.7 23.35 22.75" fill="#ffcc00" fill-rule="evenodd" stroke="none"/>
      <path d="M23.35 22.75 L23.6 23.2 23.7 23.9 Q23.7 24.6 23.3 24.95 22.9 25.35 22.35 25.25 L21.8 25.05 21.45 24.65 21.1 24.1 21.1 24.05 21.0 23.4 21.05 23.1 Q21.1 22.65 21.4 22.35 21.8 21.95 22.35 22.05 22.8 22.1 23.15 22.45 L23.2 22.55 M23.35 22.75 L23.3 22.7 23.2 22.55" fill="none" stroke="#332720" stroke-linecap="round" stroke-linejoin="round" stroke-opacity="0.3019608" stroke-width="0.05"/>
      <path d="M22.15 35.1 L22.65 34.65 22.3 35.3 22.25 35.25 22.15 35.1" fill="#3d2609" fill-rule="evenodd" stroke="none"/>
      <path d="M20.8 36.7 L21.6 36.55 22.05 36.25 Q22.25 36.3 22.25 36.65 L22.0 37.25 21.4 37.4 20.8 37.2 20.35 36.6 20.8 36.7" fill="#ffffff" fill-rule="evenodd" stroke="none"/>
      <path d="M22.3 35.3 L22.55 35.75 22.65 36.45 Q22.65 37.15 22.25 37.5 L21.3 37.8 20.75 37.6 20.4 37.2 20.05 36.65 20.05 36.6 19.95 35.95 20.0 35.65 Q20.05 35.2 20.35 34.9 20.75 34.5 21.3 34.6 21.75 34.65 22.1 35.0 L22.15 35.1 22.25 35.25 22.3 35.3 M20.8 36.7 L20.35 36.6 20.8 37.2 21.4 37.4 22.0 37.25 22.25 36.65 Q22.25 36.3 22.05 36.25 L21.6 36.55 20.8 36.7" fill="#ffcc00" fill-rule="evenodd" stroke="none"/>
      <path d="M22.3 35.3 L22.55 35.75 22.65 36.45 Q22.65 37.15 22.25 37.5 L21.3 37.8 20.75 37.6 20.4 37.2 20.05 36.65 20.05 36.6 19.95 35.95 20.0 35.65 Q20.05 35.2 20.35 34.9 20.75 34.5 21.3 34.6 21.75 34.65 22.1 35.0 L22.15 35.1 M22.3 35.3 L22.25 35.25 22.15 35.1" fill="none" stroke="#332720" stroke-linecap="round" stroke-linejoin="round" stroke-opacity="0.3019608" stroke-width="0.05"/>
      <path d="M18.2 34.25 L19.5 34.65 18.25 34.8 15.2 34.5 12.15 34.1 10.85 33.65 12.1 33.55 15.15 33.8 18.2 34.25" fill="#3d1d00" fill-rule="evenodd" stroke="none"/>
      <path d="M20.65 27.65 L21.15 28.25 21.15 28.9 21.2 29.0 25.05 25.4 20.65 27.65 M19.4 26.55 L19.85 26.2 20.25 27.1 Q22.85 25.8 25.45 24.6 L25.4 24.4 25.35 24.05 25.6 24.15 25.8 24.4 27.65 23.6 27.7 24.0 26.4 25.1 26.5 25.5 26.5 25.85 26.3 25.75 26.05 25.5 24.6 26.7 21.6 29.55 21.65 30.0 21.2 30.3 20.75 29.35 20.4 29.5 19.55 29.45 19.25 31.0 20.0 31.95 Q21.2 31.1 21.55 32.85 20.85 34.1 19.5 34.95 L17.5 33.2 Q16.55 33.95 15.05 33.7 L13.85 33.35 13.55 34.05 Q13.1 34.75 12.3 34.7 L11.65 34.55 11.35 34.15 11.05 33.95 10.75 33.4 Q10.65 32.9 10.95 32.5 L11.4 32.1 12.1 31.95 11.85 31.6 11.2 30.55 11.2 30.6 10.8 30.7 9.95 30.55 Q9.5 30.3 9.35 29.85 9.2 29.4 9.45 29.1 9.7 28.75 10.15 28.65 L10.6 28.7 10.55 27.65 Q10.55 25.45 11.85 24.05 12.7 23.2 13.8 23.0 L13.6 22.35 Q14.1 22.55 14.4 22.95 L14.6 23.2 14.5 22.95 Q14.2 21.85 13.5 20.7 14.5 21.05 15.15 22.4 L15.05 21.4 Q15.95 22.1 16.4 23.45 17.45 24.0 18.25 25.1 19.1 26.2 19.4 27.6 19.5 27.45 19.65 27.45 L19.8 27.45 19.4 26.55 M16.05 31.95 L16.6 32.5 16.05 31.95 15.2 32.55 Q14.2 32.05 13.45 31.05 L12.9 30.3 13.45 31.05 Q14.2 32.05 15.2 32.55 L16.05 31.95 16.4 31.6 17.1 30.85 16.4 31.6 16.05 31.95 M16.4 31.6 L17.3 31.7 16.4 31.6 M12.8 31.2 L13.45 31.05 12.8 31.2 M14.2 28.45 L14.35 29.05 14.2 28.45 M15.55 23.35 L15.2 22.45 15.55 23.35" fill="#3d1d00" fill-rule="evenodd" stroke="none"/>
      <path d="M15.2 22.45 L15.55 23.35 M12.9 30.3 L13.45 31.05 Q14.2 32.05 15.2 32.55 L16.05 31.95 16.4 31.6 17.1 30.85 M14.35 29.05 L14.2 28.45 M13.45 31.05 L12.8 31.2 M17.3 31.7 L16.4 31.6 M16.6 32.5 L16.05 31.95" fill="none" stroke="#332720" stroke-linecap="round" stroke-linejoin="round" stroke-opacity="0.6" stroke-width="1.5"/>
      <path d="M18.15 29.05 L15.95 29.45 17.65 27.1" fill="none" stroke="#332720" stroke-linecap="round" stroke-linejoin="round" stroke-opacity="0.6" stroke-width="1.5"/>
      <path d="M12.0 26.65 L13.75 29.2 11.75 28.4" fill="none" stroke="#332720" stroke-linecap="round" stroke-linejoin="round" stroke-opacity="0.6" stroke-width="1.5"/>
      <path d="M20.65 27.35 L21.1 27.9 21.2 28.25 21.1 28.6 20.95 28.3 20.5 27.3 20.6 27.3 20.65 27.35 20.6 27.35 21.1 27.95 21.2 28.25 21.1 27.95 20.6 27.35 20.5 27.3 20.6 27.35 20.65 27.35" fill="#ff9900" fill-rule="evenodd" stroke="none"/>
      <path d="M25.4 24.25 L25.7 24.75 26.0 25.15 22.75 28.15 21.45 29.3 22.75 28.15 21.45 29.3 21.15 28.7 25.05 25.1 24.95 25.15 23.9 25.7 22.8 26.25 20.6 27.3 20.5 27.3 20.45 27.25 20.25 26.75 21.25 26.3 25.4 24.25 M27.3 23.1 L27.65 23.65 26.3 24.85 26.05 24.45 25.8 24.1 27.3 23.1 M12.05 31.6 Q12.85 32.5 13.8 33.0 L13.8 33.05 13.6 33.6 13.5 33.7 Q13.05 34.4 12.25 34.35 L12.2 34.35 Q11.9 34.4 11.65 34.15 L11.3 33.8 11.25 33.8 Q11.15 33.5 11.3 33.15 11.4 32.8 11.9 32.55 11.4 32.8 11.3 33.15 11.15 33.5 11.25 33.8 L11.0 33.6 10.7 33.1 10.7 32.9 Q10.65 32.45 10.95 32.15 L11.25 31.85 11.35 31.8 12.05 31.6 13.75 33.0 13.8 33.05 13.75 33.0 12.05 31.6 M13.75 33.0 L13.6 33.6 13.75 33.0 M24.95 25.15 L25.0 25.1 23.9 25.7 25.0 25.1 24.95 25.15" fill="#b05613" fill-rule="evenodd" stroke="none"/>
      <path d="M18.8 31.45 L19.2 30.75 19.2 30.65 19.95 31.6 Q21.15 30.75 21.5 32.5 20.8 33.8 19.45 34.6 L17.45 32.9 18.2 32.3 18.8 31.45 M19.3 31.85 L19.35 31.85 19.2 31.8 19.3 31.85 M19.35 33.8 L19.4 33.7 19.4 33.65 19.3 33.65 19.25 33.7 19.35 33.8 M19.15 32.6 L19.15 32.65 19.2 32.7 19.25 32.7 19.25 32.6 19.15 32.6 M19.85 32.8 L19.95 32.8 19.9 32.75 19.85 32.75 19.8 32.8 19.85 32.8 M18.5 33.0 L18.55 33.05 18.6 33.0 18.5 33.0 M18.5 32.1 L18.5 32.2 18.55 32.25 18.55 32.15 18.5 32.1 M20.65 33.3 L20.7 33.25 20.65 33.15 20.55 33.15 20.55 33.2 20.65 33.3 M20.8 32.4 L20.8 32.45 20.85 32.45 20.9 32.45 20.8 32.4" fill="#cc9966" fill-rule="evenodd" stroke="none"/>
      <path d="M25.8 24.1 L25.75 24.1 25.55 23.85 25.3 23.7 25.55 23.85 25.75 24.1 25.8 24.1 26.05 24.45 26.3 24.85 26.4 25.15 26.45 25.5 26.15 25.35 26.0 25.15 25.7 24.75 25.4 24.25 25.35 24.05 25.3 23.7 Q25.35 23.6 25.6 23.85 L25.8 24.1 M25.75 24.1 L26.0 24.45 26.25 24.9 26.4 25.15 26.25 24.9 26.0 24.45 25.75 24.1 M19.8 25.9 L19.8 25.85 20.25 26.75 20.2 26.75 19.8 25.9 20.2 26.75 20.25 26.75 20.45 27.25 20.5 27.3 20.95 28.3 21.1 28.6 21.15 28.7 21.45 29.3 21.4 29.3 21.1 28.7 21.4 29.3 21.45 29.3 21.65 29.7 21.15 30.0 20.7 29.0 19.8 27.1 19.35 26.2 19.8 25.9 M19.3 31.85 L19.2 31.8 19.35 31.85 19.3 31.85 M18.5 32.1 L18.55 32.15 18.55 32.25 18.5 32.2 18.5 32.1 M18.5 33.0 L18.6 33.0 18.55 33.05 18.5 33.0 M19.85 32.8 L19.8 32.8 19.85 32.75 19.9 32.75 19.95 32.8 19.85 32.8 M19.15 32.6 L19.25 32.6 19.25 32.7 19.2 32.7 19.15 32.65 19.15 32.6 M19.35 33.8 L19.25 33.7 19.3 33.65 19.4 33.65 19.4 33.7 19.35 33.8 M26.3 24.85 L26.25 24.9 26.3 24.85 M21.15 28.7 L21.1 28.7 21.1 28.6 21.1 28.7 21.15 28.7 M21.15 30.0 L21.6 29.7 21.4 29.3 21.6 29.7 21.15 30.0 M20.2 26.75 L20.45 27.25 20.95 28.3 20.45 27.25 20.2 26.75 M20.8 32.4 L20.9 32.45 20.85 32.45 20.8 32.45 20.8 32.4 M20.65 33.3 L20.55 33.2 20.55 33.15 20.65 33.15 20.7 33.25 20.65 33.3" fill="#3d1d00" fill-rule="evenodd" stroke="none"/>
      <path d="M14.45 22.6 Q14.15 21.5 13.45 20.35 L13.7 20.45 Q14.5 20.8 15.1 22.0 L15.15 22.1 15.0 21.05 Q15.95 21.75 16.4 23.1 17.4 23.65 18.2 24.7 19.05 25.85 19.35 27.2 L19.6 27.1 19.75 27.1 19.8 27.1 20.7 29.0 20.5 29.1 20.35 29.15 19.5 29.15 19.45 29.15 19.5 29.15 19.2 30.65 19.2 30.75 18.8 31.45 18.15 32.3 17.4 32.9 16.85 33.25 17.4 32.9 18.15 32.3 18.8 31.45 18.2 32.3 17.45 32.9 17.45 32.95 16.85 33.25 15.0 33.35 14.9 33.35 14.5 33.25 13.8 33.0 Q12.85 32.5 12.05 31.6 L11.8 31.3 11.15 30.25 Q10.7 29.35 10.55 28.35 10.7 29.35 11.15 30.25 L11.05 30.3 10.75 30.4 10.55 30.45 10.75 30.4 11.05 30.3 10.8 30.4 10.55 30.45 9.95 30.25 9.4 29.6 Q9.3 29.2 9.45 28.8 9.7 28.4 10.1 28.3 L10.55 28.35 10.5 27.3 10.5 27.2 11.05 24.85 Q11.35 24.25 11.8 23.75 12.3 23.2 12.95 22.95 L13.7 22.7 13.75 22.7 13.55 22.05 14.35 22.6 14.55 22.9 14.45 22.6 M13.95 23.35 L13.75 22.7 13.95 23.35 M15.1 22.0 L15.1 22.1 Q14.5 20.85 13.7 20.45 14.5 20.85 15.1 22.1 L15.1 22.0 M19.6 27.1 L19.35 27.25 Q19.0 25.9 18.15 24.75 17.35 23.65 16.35 23.1 15.9 21.75 15.0 21.05 15.9 21.75 16.35 23.1 17.35 23.65 18.15 24.75 19.0 25.9 19.35 27.25 L19.6 27.1 M12.95 22.95 Q12.3 23.2 11.8 23.75 11.35 24.25 11.05 24.85 11.3 24.2 11.8 23.7 12.3 23.2 12.95 22.95 M15.5 23.0 L15.1 22.1 15.5 23.0 M19.35 27.25 L19.5 28.7 19.45 29.15 19.2 30.65 19.45 29.15 19.5 28.7 19.35 27.25 M19.75 27.1 L20.7 29.0 19.75 27.1 M17.6 26.8 L15.9 29.15 18.1 28.7 15.9 29.15 17.6 26.8 M14.15 28.15 L14.3 28.75 14.15 28.15 M12.75 30.85 L13.4 30.75 12.85 30.0 13.4 30.75 Q14.15 31.75 15.15 32.25 L16.0 31.6 16.35 31.25 17.05 30.5 16.35 31.25 16.0 31.6 15.15 32.25 Q14.15 31.75 13.4 30.75 L12.75 30.85 M11.65 28.1 L13.7 28.85 11.95 26.35 13.7 28.85 11.65 28.1 M16.35 31.25 L17.25 31.4 16.35 31.25 M16.0 31.6 L16.55 32.15 16.0 31.6 M17.45 32.95 L17.4 32.9 17.45 32.95" fill="#ffe700" fill-rule="evenodd" stroke="none"/>
      <path d="M25.3 23.7 L25.55 23.85 25.75 24.1 25.8 24.1 27.3 23.1 27.65 23.65 26.3 24.85 M25.3 23.7 L25.35 24.05 25.4 24.25 25.7 24.75 26.0 25.15 26.15 25.35 26.45 25.5 26.4 25.15 26.25 24.9 26.0 24.45 25.75 24.1 M14.45 22.6 Q14.15 21.5 13.45 20.35 L13.7 20.45 Q14.5 20.85 15.1 22.1 L15.1 22.0 15.0 21.05 Q15.9 21.75 16.35 23.1 17.35 23.65 18.15 24.75 19.0 25.9 19.35 27.25 L19.6 27.1 19.75 27.1 19.35 26.2 19.75 25.85 19.8 25.9 20.2 26.75 20.25 26.75 21.25 26.3 25.4 24.25 M14.35 22.6 L14.45 22.6 14.55 22.9 14.35 22.6 13.55 22.05 13.75 22.7 13.95 23.35 M12.95 22.95 L13.7 22.7 13.75 22.7 M11.05 24.85 Q11.35 24.25 11.8 23.75 12.3 23.2 12.95 22.95 M11.05 24.85 L10.5 27.2 10.5 27.3 10.55 28.35 Q10.7 29.35 11.15 30.25 L11.8 31.3 12.05 31.6 13.75 33.0 13.8 33.05 M14.5 33.25 L14.9 33.35 15.0 33.35 16.85 33.25 17.4 32.9 18.15 32.3 18.8 31.45 19.2 30.75 19.2 30.65 19.45 29.15 19.5 28.7 19.35 27.25 M15.1 22.1 L15.5 23.0 M19.45 29.15 L19.5 29.15 20.35 29.15 20.5 29.1 M20.7 29.0 L19.75 27.1 M19.2 30.65 L19.95 31.6 Q21.15 30.75 21.5 32.5 20.8 33.8 19.45 34.6 L17.45 32.95 M11.05 30.3 L10.75 30.4 10.55 30.45 9.95 30.25 9.4 29.6 Q9.3 29.2 9.45 28.8 9.7 28.4 10.1 28.3 L10.55 28.35 M11.05 30.3 L11.15 30.25 M12.85 30.0 L13.4 30.75 Q14.15 31.75 15.15 32.25 L16.0 31.6 16.35 31.25 17.05 30.5 M13.4 30.75 L12.75 30.85 M14.3 28.75 L14.15 28.15 M13.6 33.6 L13.5 33.7 Q13.05 34.4 12.25 34.35 L12.2 34.35 11.6 34.2 11.25 33.8 11.0 33.6 10.7 33.1 10.7 32.9 Q10.65 32.45 10.9 32.15 L11.25 31.85 11.35 31.8 12.05 31.6 M13.6 33.6 L13.75 33.0 M14.5 33.25 L13.8 33.05 M11.25 33.8 Q11.15 33.5 11.3 33.15 11.4 32.8 11.9 32.55 M17.25 31.4 L16.35 31.25 M17.4 32.9 L17.45 32.95 M16.55 32.15 L16.0 31.6 M26.25 24.9 L26.3 24.85 M23.9 25.7 L22.8 26.25 20.65 27.35 20.6 27.35 20.5 27.3 M21.2 28.25 L21.1 28.6 21.1 28.7 21.15 28.7 24.95 25.15 M23.9 25.7 L25.0 25.1 24.95 25.15 M21.45 29.3 L22.75 28.15 26.0 25.15 M21.2 28.25 L21.1 27.95 20.6 27.35 M20.95 28.3 L21.1 28.6 M20.45 27.25 L20.5 27.3 M20.7 29.0 L20.7 29.05 21.15 30.0 M20.7 29.05 L20.5 29.1 M21.1 28.7 L21.4 29.3 21.45 29.3 M21.4 29.3 L21.6 29.7 21.15 30.0 M20.95 28.3 L20.45 27.25 20.2 26.75" fill="none" stroke="#000000" stroke-linecap="round" stroke-linejoin="round" stroke-opacity="0.3019608" stroke-width="0.05"/>
      <path d="M18.1 28.7 L15.9 29.15 17.6 26.8 M11.95 26.35 L13.7 28.85 11.65 28.1" fill="none" stroke="#332720" stroke-linecap="round" stroke-linejoin="round" stroke-opacity="0.6" stroke-width="0.05"/>
      <path d="M40.7 15.7 Q41.0 16.75 40.85 18.3 L40.75 19.1 40.7 20.1 40.65 20.2 40.65 20.75 40.6 22.55 40.65 23.6 40.85 25.9 40.8 27.0 40.15 28.4 39.8 28.9 Q38.6 30.25 34.9 31.7 L32.4 32.65 Q29.05 33.8 25.55 34.1 L24.85 34.15 24.65 34.2 24.1 34.85 24.05 34.85 23.95 35.05 23.75 35.25 23.7 35.3 23.6 35.45 22.65 36.4 22.65 36.45 Q22.65 37.15 22.25 37.5 L21.3 37.8 21.15 37.8 Q18.65 39.7 15.3 39.15 12.6 38.75 10.45 36.9 L9.8 36.95 9.25 36.75 8.9 36.35 8.55 35.8 8.55 35.75 8.45 35.1 8.5 34.8 8.5 34.75 Q6.7 32.35 6.05 29.6 L5.45 29.15 5.3 29.05 Q3.1 27.15 3.1 25.3 L3.45 23.1 3.45 22.9 3.65 20.1 3.6 17.9 3.6 17.85 Q3.65 15.9 4.15 14.6 4.55 13.6 5.15 12.95 6.8 11.4 9.0 10.8 L9.15 10.75 10.05 10.6 10.2 10.55 11.95 10.3 13.2 10.15 Q22.95 9.15 31.8 11.05 L32.05 11.1 34.45 11.65 35.25 11.85 Q37.45 12.5 39.1 13.7 L39.65 14.05 39.75 14.15 40.15 14.55 40.65 15.5 40.7 15.7 Z" fill="none" stroke="#000000" stroke-linecap="round" stroke-linejoin="round" stroke-opacity="0.3019608" stroke-width="0.5"/>
    </g>
    <linearGradient gradientTransform="matrix(-0.0043, -0.0109, 0.009, -0.0039, 15.15, 27.2)" gradientUnits="userSpaceOnUse" id="gradient0" spreadMethod="pad" x1="-819.2" x2="819.2">
      <stop offset="0.0" stop-color="#7d4309"/>
      <stop offset="1.0" stop-color="#664627"/>
    </linearGradient>
    <linearGradient gradientTransform="matrix(-0.0058, -0.0127, 0.0102, -0.0054, 15.35, 27.9)" gradientUnits="userSpaceOnUse" id="gradient1" spreadMethod="pad" x1="-819.2" x2="819.2">
      <stop offset="0.0" stop-color="#966010"/>
      <stop offset="1.0" stop-color="#c2a04b"/>
    </linearGradient>
  </defs>
</svg>
