<?xml version="1.0" encoding="UTF-8" standalone="no"?>
<svg xmlns:xlink="http://www.w3.org/1999/xlink" height="440.0px" width="440.0px" xmlns="http://www.w3.org/2000/svg">
  <g transform="matrix(10.0, 0.0, 0.0, 10.0, 0.0, 0.0)">
    <use height="44.0" transform="matrix(1.0, 0.0, 0.0, 1.0, 0.0, 0.0)" width="44.0" xlink:href="#shape0"/>
    <use height="34.8" transform="matrix(-0.4967, 0.0, 0.0, 0.3908, 25.05, 14.15)" width="34.8" xlink:href="#sprite0"/>
    <use height="20.95" transform="matrix(-0.531, 0.0756, -0.1264, -0.6015, 27.55, 27.15)" width="24.45" xlink:href="#sprite1"/>
    <use height="82.7" transform="matrix(0.41, -0.0139, 0.0117, 0.2099, 6.95, 19.8)" width="82.7" xlink:href="#sprite2"/>
  </g>
  <defs>
    <g id="shape0" transform="matrix(1.0, 0.0, 0.0, 1.0, 0.0, 0.0)">
      <path d="M44.0 44.0 L0.0 44.0 0.0 0.0 44.0 0.0 44.0 44.0" fill="#43adca" fill-opacity="0.0" fill-rule="evenodd" stroke="none"/>
      <path d="M32.75 13.8 L31.0 13.3 Q26.15 12.1 21.45 12.15 15.7 12.15 10.25 14.1 L8.05 14.8 Q6.8 14.9 6.8 16.1 L5.95 23.8 Q5.25 25.75 7.35 27.3 L7.65 27.6 10.0 29.4 10.0 30.0 Q10.7 30.85 12.1 31.15 L12.3 31.05 12.75 30.45 15.6 31.05 15.65 31.3 Q16.6 32.1 18.45 32.15 L18.7 32.05 19.45 31.15 24.05 30.75 26.1 30.15 32.3 28.2 35.7 26.95 Q38.05 26.45 37.15 24.1 36.1 19.55 37.05 17.5 37.65 15.95 36.6 15.45 L32.75 13.8 Z" fill="none" stroke="#382510" stroke-linecap="round" stroke-linejoin="round" stroke-opacity="0.3019608" stroke-width="1.0"/>
      <path d="M23.1 19.65 L23.15 19.65 23.55 19.65 23.4 20.45 Q23.35 23.65 23.75 25.85 24.35 29.45 26.1 30.15 L24.05 30.75 19.0 31.15 19.55 20.45 19.95 19.55 22.1 19.65 23.1 19.65 M35.25 17.25 L35.1 17.1 Q33.8 15.65 32.05 14.9 L32.75 13.8 36.6 15.45 Q37.65 15.95 37.05 17.5 36.1 19.55 37.15 24.1 38.05 26.45 35.7 26.95 L32.3 28.2 Q34.25 25.65 33.6 18.9 L34.05 18.75 35.75 17.9 35.25 17.25 Q35.6 16.7 35.15 16.1 35.6 16.7 35.25 17.25 M21.15 13.25 L18.75 13.4 18.45 13.45 16.55 13.65 Q12.25 14.2 9.15 16.45 L9.0 16.1 8.9 15.4 9.0 16.1 7.7 16.5 Q7.8 17.8 10.35 18.75 7.3 20.85 7.65 27.6 L7.35 27.3 Q5.25 25.75 5.95 23.8 L6.8 16.1 Q6.8 14.9 8.05 14.8 L10.25 14.1 Q15.7 12.15 21.45 12.15 L21.15 13.25 M13.05 19.65 L16.9 20.3 15.75 31.05 11.75 30.15 13.05 19.65" fill="#6d3123" fill-rule="evenodd" stroke="none"/>
      <path d="M23.55 19.65 Q32.5 19.45 35.25 17.25 L35.75 17.9 34.05 18.75 33.6 18.9 Q30.35 20.35 24.5 20.35 L24.3 20.35 24.15 20.4 23.4 20.45 23.55 19.65 M19.95 19.55 L19.55 20.45 16.9 20.3 13.05 19.65 11.4 19.1 10.35 18.75 Q7.8 17.8 7.7 16.5 L9.0 16.1 9.15 16.45 Q9.8 17.85 12.4 18.5 L13.15 18.7 17.05 19.3 19.6 19.55 19.95 19.55" fill="#c86355" fill-rule="evenodd" stroke="none"/>
      <path d="M32.05 14.9 L30.9 14.45 30.75 14.4 Q26.75 13.0 21.15 13.25 L21.45 12.15 Q26.15 12.1 31.0 13.3 L32.75 13.8 32.05 14.9 M19.55 20.45 L19.0 31.15 15.75 31.05 16.9 20.3 19.55 20.45 M26.1 30.15 Q24.35 29.45 23.75 25.85 23.35 23.65 23.4 20.45 L24.15 20.4 24.3 20.35 24.5 20.35 Q30.35 20.35 33.6 18.9 34.25 25.65 32.3 28.2 L26.1 30.15 M7.65 27.6 Q7.3 20.85 10.35 18.75 L11.4 19.1 13.05 19.65 11.75 30.15 Q9.3 29.3 7.65 27.6" fill="#a24833" fill-rule="evenodd" stroke="none"/>
      <path d="M23.55 19.65 L23.15 19.65 23.1 19.65 21.65 18.7 Q23.35 17.6 29.65 17.8 24.3 16.25 19.9 17.2 18.35 15.55 18.35 14.0 L18.45 13.45 18.75 13.4 21.15 13.25 Q26.75 13.0 30.75 14.4 L30.9 14.45 32.05 14.9 Q33.8 15.65 35.1 17.1 L35.25 17.25 Q32.5 19.45 23.55 19.65" fill="url(#gradient0)" fill-rule="evenodd" stroke="none"/>
      <path d="M18.45 13.45 L18.35 14.0 Q18.35 15.55 19.9 17.2 24.3 16.25 29.65 17.8 23.35 17.6 21.65 18.7 L23.1 19.65 22.1 19.65 19.95 19.55 19.6 19.55 17.05 19.3 13.15 18.7 12.4 18.5 Q9.8 17.85 9.15 16.45 12.25 14.2 16.55 13.65 L18.45 13.45" fill="#2b1501" fill-rule="evenodd" stroke="none"/>
      <path d="M19.0 31.15 L24.05 30.75 26.1 30.15 M32.3 28.2 L35.7 26.95 Q38.05 26.45 37.15 24.1 36.1 19.55 37.05 17.5 37.65 15.95 36.6 15.45 L32.75 13.8 31.0 13.3 Q26.15 12.1 21.45 12.15 15.7 12.15 10.25 14.1 L8.05 14.8 Q6.8 14.9 6.8 16.1 L5.95 23.8 Q5.25 25.75 7.35 27.3 L7.65 27.6 M15.75 31.05 L19.0 31.15 M11.75 30.15 Q9.3 29.3 7.65 27.6 M15.75 31.05 L11.75 30.15 M32.3 28.2 L26.1 30.15" fill="none" stroke="#382510" stroke-linecap="round" stroke-linejoin="round" stroke-opacity="0.3019608" stroke-width="1.0"/>
      <path d="M23.1 19.65 L23.15 19.65 23.55 19.65 Q32.5 19.45 35.25 17.25 L35.1 17.1 Q33.8 15.65 32.05 14.9 L30.9 14.45 30.75 14.4 M23.1 19.65 L22.1 19.65 19.95 19.55 M35.25 17.25 Q35.6 16.7 35.15 16.1 M9.0 16.1 L9.15 16.45 Q9.8 17.85 12.4 18.5 L13.15 18.7 17.05 19.3 19.6 19.55 19.95 19.55 M9.0 16.1 L8.9 15.4" fill="none" stroke="#382510" stroke-linecap="round" stroke-linejoin="round" stroke-opacity="0.3019608" stroke-width="0.25"/>
      <path d="M12.95 30.1 L12.55 30.15 13.45 20.5 13.8 19.4 14.0 19.15 12.95 30.1" fill="#000000" fill-opacity="0.3019608" fill-rule="evenodd" stroke="none"/>
      <path d="M13.75 18.85 L13.1 21.1 Q12.1 19.6 10.9 19.15 L11.0 18.6 13.75 18.85" fill="#ffec04" fill-rule="evenodd" stroke="none"/>
      <path d="M14.1 18.2 L13.75 18.85 11.0 18.6 11.9 17.65 14.1 18.2 M13.1 21.1 L12.5 26.7 12.5 26.75 11.15 27.9 10.25 23.15 Q10.5 21.2 10.9 19.15 12.1 19.6 13.1 21.1" fill="#e08a23" fill-rule="evenodd" stroke="none"/>
      <path d="M13.75 18.85 L14.1 18.2 14.0 19.15 13.8 19.4 13.45 20.5 12.55 30.15 12.95 30.1 12.3 31.05 12.1 31.1 Q10.7 30.85 9.95 29.95 9.9 26.9 10.25 23.15 L11.15 27.9 12.5 26.75 12.5 26.7 13.1 21.1 13.75 18.85" fill="#a25013" fill-rule="evenodd" stroke="none"/>
      <path d="M10.25 23.15 Q9.9 26.9 9.95 29.95 10.7 30.85 12.1 31.1 L12.3 31.05 12.95 30.1 12.55 30.15 13.45 20.5 13.8 19.4 14.0 19.15 14.1 18.2 11.9 17.65 11.0 18.6 10.9 19.15 Q10.5 21.2 10.25 23.15 Z" fill="none" stroke="#382510" stroke-linecap="round" stroke-linejoin="round" stroke-opacity="0.3019608" stroke-width="0.7000000000000001"/>
      <path d="M19.5 31.05 L18.95 31.1 19.35 21.1 19.7 20.0 19.95 19.7 19.5 31.05" fill="#000000" fill-opacity="0.3019608" fill-rule="evenodd" stroke="none"/>
      <path d="M16.05 19.6 L19.55 19.45 18.95 21.8 Q17.5 20.45 15.9 20.15 L16.05 19.6" fill="#ffec04" fill-rule="evenodd" stroke="none"/>
      <path d="M20.0 18.7 L19.55 19.45 16.05 19.6 17.1 18.5 20.0 18.7 M18.95 21.8 L18.6 27.6 18.6 27.65 16.95 29.05 Q16.1 26.85 15.5 24.35 L15.9 20.15 Q17.5 20.45 18.95 21.8" fill="#e08a23" fill-rule="evenodd" stroke="none"/>
      <path d="M19.55 19.45 L20.0 18.7 19.95 19.7 19.7 20.0 19.35 21.1 18.95 31.1 19.5 31.05 18.7 32.05 18.45 32.1 Q16.6 32.05 15.65 31.25 15.25 28.2 15.5 24.35 16.1 26.85 16.95 29.05 L18.6 27.65 18.6 27.6 18.95 21.8 19.55 19.45" fill="#a25013" fill-rule="evenodd" stroke="none"/>
      <path d="M20.0 18.7 L17.1 18.5 16.05 19.6 15.9 20.15 M15.5 24.35 Q15.25 28.2 15.65 31.25 16.6 32.05 18.45 32.1 L18.7 32.05 19.5 31.05 18.95 31.1 19.35 21.1 19.7 20.0 19.95 19.7 20.0 18.7 M15.5 24.35 L15.9 20.15" fill="none" stroke="#382510" stroke-linecap="round" stroke-linejoin="round" stroke-opacity="0.3019608" stroke-width="0.7000000000000001"/>
      <path d="M23.75 26.8 L23.7 26.8 23.15 27.3 22.5 27.05 Q22.3 26.9 22.25 26.55 L22.65 26.5 22.25 26.55 22.25 26.35 Q22.2 25.9 22.45 25.55 L22.7 25.15 22.95 25.6 22.7 25.15 Q22.8 25.0 22.95 25.05 23.25 24.95 23.65 25.3 L23.75 25.5 23.9 26.05 23.75 26.8" fill="#2e1d0e" fill-rule="evenodd" stroke="none"/>
      <path d="M23.75 26.8 L23.7 26.8 23.15 27.3 22.5 27.05 Q22.3 26.9 22.25 26.55 L21.8 26.75 M23.75 26.8 L24.1 27.15 M23.75 25.5 L23.9 26.05 23.75 26.8 M22.7 25.15 Q22.8 25.0 22.95 25.05 23.25 24.95 23.65 25.3 L23.75 25.5 24.0 25.05 M22.25 26.55 L22.65 26.5 M22.25 26.55 L22.25 26.35 Q22.2 25.9 22.45 25.55 L22.7 25.15 22.4 24.15 M22.95 25.6 L22.7 25.15" fill="none" stroke="#382510" stroke-linecap="round" stroke-linejoin="round" stroke-opacity="0.3019608" stroke-width="0.25"/>
      <path d="M26.65 22.2 L26.65 21.15 31.55 20.3 31.6 21.3 31.8 24.6 31.6 21.3 33.95 20.85 33.95 21.6 31.8 24.6 31.35 25.2 27.6 26.05 26.8 25.5 24.05 23.6 24.05 22.75 26.65 22.2 26.8 25.5 26.65 22.2 M30.85 26.25 L32.45 27.35 26.4 29.0 27.95 27.0 30.85 26.25" fill="#c16100" fill-rule="evenodd" stroke="none"/>
      <path d="M31.6 21.3 L31.55 20.3 26.65 21.15 26.65 22.2 26.8 25.5 27.6 26.05 31.35 25.2 31.8 24.6 31.6 21.3 33.95 20.85 33.95 21.6 31.8 24.6 M26.65 22.2 L24.05 22.75 24.05 23.6 26.8 25.5 M30.85 26.25 L32.45 27.35 26.4 29.0 27.95 27.0 30.85 26.25" fill="none" stroke="#382510" stroke-linecap="round" stroke-linejoin="round" stroke-opacity="0.3019608" stroke-width="0.25"/>
      <path d="M30.95 23.95 L31.1 24.5 30.95 25.25 30.9 25.3 30.5 25.75 29.95 25.55 29.75 25.05 29.75 24.85 Q29.7 24.4 29.9 24.05 L30.15 23.65 Q30.15 23.5 30.3 23.55 30.55 23.4 30.85 23.75 L30.95 23.95 M30.3 24.05 L30.15 23.65 30.3 24.05 M30.1 25.0 L29.75 25.05 30.1 25.0" fill="#2e1d0e" fill-rule="evenodd" stroke="none"/>
      <path d="M30.95 23.95 L31.1 24.5 30.95 25.25 31.2 25.6 M30.15 23.65 L30.3 24.05 M29.75 25.05 L29.75 24.85 Q29.7 24.4 29.9 24.05 L30.15 23.65 29.85 22.65 M30.15 23.65 Q30.15 23.5 30.3 23.55 30.55 23.4 30.85 23.75 L30.95 23.95 31.1 23.45 M29.75 25.05 L30.1 25.0 M29.75 25.05 L29.4 25.25 M30.95 25.25 L30.9 25.3 30.5 25.75 29.95 25.55 29.75 25.05" fill="none" stroke="#382510" stroke-linecap="round" stroke-linejoin="round" stroke-opacity="0.3019608" stroke-width="0.25"/>
      <path d="M35.75 23.05 L35.6 23.4 35.2 23.5 35.0 23.1 34.95 23.0 34.9 22.9 34.85 22.2 34.9 21.7 35.0 21.55 Q35.15 21.25 35.35 21.4 L35.5 21.55 35.65 22.05 35.75 22.8 35.75 23.05 35.5 22.85 35.75 23.05 M35.35 21.9 L35.5 21.55 35.35 21.9" fill="#2e1d0e" fill-rule="evenodd" stroke="none"/>
      <path d="M35.5 21.55 L35.35 21.4 Q35.15 21.25 35.0 21.55 L34.9 21.7 34.85 22.2 34.9 22.9 34.95 23.0 35.0 23.1 35.2 23.5 35.6 23.4 35.75 23.05 35.5 22.85 M34.9 22.9 L35.0 23.1 M34.9 21.7 L34.75 21.15 M35.75 23.05 L36.0 23.25 M35.75 23.05 L35.75 22.8 35.65 22.05 35.5 21.55 35.35 21.9 M35.5 21.55 L35.7 20.65" fill="none" stroke="#382510" stroke-linecap="round" stroke-linejoin="round" stroke-opacity="0.3019608" stroke-width="0.25"/>
      <path d="M8.4 23.1 L8.55 22.7 8.4 23.1 M8.95 24.1 L8.75 24.6 8.2 24.8 7.8 24.35 7.75 24.3 7.6 23.55 7.75 23.0 7.85 22.8 Q8.15 22.45 8.4 22.6 8.55 22.55 8.55 22.7 L8.8 23.1 8.95 23.9 8.95 24.1 8.6 24.05 8.95 24.1" fill="#2e1d0e" fill-rule="evenodd" stroke="none"/>
      <path d="M8.55 22.7 L8.4 23.1 M8.95 24.1 L8.95 23.9 8.8 23.1 8.55 22.7 Q8.55 22.55 8.4 22.6 8.15 22.45 7.85 22.8 L7.75 23.0 7.6 23.55 7.75 24.3 7.8 24.35 8.2 24.8 8.75 24.6 8.95 24.1 8.6 24.05 M8.55 22.7 L8.85 21.7 M7.75 23.0 L7.6 22.5 M8.95 24.1 L9.3 24.3 M7.75 24.3 L7.5 24.65" fill="none" stroke="#382510" stroke-linecap="round" stroke-linejoin="round" stroke-opacity="0.3019608" stroke-width="0.25"/>
    </g>
    <linearGradient gradientTransform="matrix(-0.0043, -0.0074, 0.0117, -0.0068, 22.15, 16.85)" gradientUnits="userSpaceOnUse" id="gradient0" spreadMethod="pad" x1="-819.2" x2="819.2">
      <stop offset="0.0" stop-color="#54251b"/>
      <stop offset="0.8666666666666667" stop-color="#5b2e02"/>
    </linearGradient>
    <g id="sprite0" transform="matrix(1.0, 0.0, 0.0, 1.0, 0.0, 0.0)">
      <use height="34.8" transform="matrix(1.0, 0.0, 0.0, 1.0, 0.0, 0.0)" width="34.8" xlink:href="#shape1"/>
    </g>
    <g id="shape1" transform="matrix(1.0, 0.0, 0.0, 1.0, 0.0, 0.0)">
      <path d="M17.4 34.8 Q10.2 34.8 5.1 29.7 0.0 24.6 0.0 17.4 0.0 10.2 5.1 5.1 10.2 0.0 17.4 0.0 24.6 0.0 29.7 5.1 34.8 10.2 34.8 17.4 34.8 24.6 29.7 29.7 24.6 34.8 17.4 34.8" fill="url(#gradient1)" fill-rule="evenodd" stroke="none"/>
    </g>
    <radialGradient cx="0" cy="0" gradientTransform="matrix(0.0221, 0.0, 0.0, 0.0221, 17.4, 17.4)" gradientUnits="userSpaceOnUse" id="gradient1" r="819.2" spreadMethod="pad">
      <stop offset="0.0" stop-color="#ffffff"/>
      <stop offset="0.9882352941176471" stop-color="#ffffff" stop-opacity="0.0"/>
    </radialGradient>
    <g id="sprite1" transform="matrix(1.0, 0.0, 0.0, 1.0, 0.0, 0.0)">
      <use height="20.95" transform="matrix(1.0, 0.0, 0.0, 1.0, 0.0, 0.0)" width="24.45" xlink:href="#shape2"/>
    </g>
    <g id="shape2" transform="matrix(1.0, 0.0, 0.0, 1.0, 0.0, 0.0)">
      <path d="M14.85 11.4 Q15.8 11.6 16.25 12.45 16.85 13.3 16.6 14.35 16.4 15.3 15.55 15.9 14.65 16.4 13.65 16.2 12.65 15.9 12.1 15.1 11.6 14.2 11.8 13.2 12.1 12.2 12.9 11.65 13.8 11.15 14.85 11.4" fill="#ffffff" fill-opacity="0.5882353" fill-rule="evenodd" stroke="none"/>
      <path d="M18.2 11.35 L20.15 11.25 18.75 12.55 Q19.05 13.8 18.8 15.05 18.5 16.35 17.65 17.3 L19.1 20.95 16.55 18.25 Q14.8 19.3 12.8 18.85 10.8 18.35 9.75 16.65 9.05 15.5 8.95 14.3 7.75 12.35 4.85 11.5 8.3 12.45 9.7 11.4 10.3 10.4 11.35 9.75 13.1 8.75 15.1 9.15 16.95 9.5 18.1 11.15 L18.2 11.35 M14.85 11.4 Q13.8 11.15 12.9 11.65 12.1 12.2 11.8 13.2 11.6 14.2 12.1 15.1 12.65 15.9 13.65 16.2 14.65 16.4 15.55 15.9 16.4 15.3 16.6 14.35 16.85 13.3 16.25 12.45 15.8 11.6 14.85 11.4" fill="#ffffff" fill-opacity="0.1764706" fill-rule="evenodd" stroke="none"/>
      <path d="M15.4 13.55 L18.1 17.55 13.35 14.65 7.05 18.5 12.75 13.55 0.0 0.0 14.25 12.25 24.45 5.95 15.4 13.55" fill="#ffffff" fill-opacity="0.5882353" fill-rule="evenodd" stroke="none"/>
    </g>
    <g id="sprite2" transform="matrix(1.0, 0.0, 0.0, 1.0, 0.0, 0.0)">
      <use height="82.7" transform="matrix(1.0, 0.0, 0.0, 1.0, 0.0, 0.0)" width="82.7" xlink:href="#shape3"/>
    </g>
    <g id="shape3" transform="matrix(1.0, 0.0, 0.0, 1.0, 0.0, 0.0)">
      <path d="M70.6 12.1 Q82.7 24.2 82.7 41.35 82.7 58.5 70.6 70.6 58.5 82.7 41.35 82.7 24.2 82.7 12.1 70.6 0.0 58.5 0.0 41.35 0.0 24.2 12.1 12.1 24.2 0.0 41.35 0.0 58.5 0.0 70.6 12.1" fill="url(#gradient2)" fill-rule="evenodd" stroke="none"/>
    </g>
    <radialGradient cx="0" cy="0" gradientTransform="matrix(0.0508, 0.0, 0.0, 0.0508, 41.35, 41.35)" gradientUnits="userSpaceOnUse" id="gradient2" r="819.2" spreadMethod="pad">
      <stop offset="0.0" stop-color="#000000" stop-opacity="0.3019608"/>
      <stop offset="1.0" stop-color="#000000" stop-opacity="0.0"/>
    </radialGradient>
  </defs>
</svg>
