<?xml version="1.0" encoding="UTF-8" standalone="no"?>
<svg xmlns:xlink="http://www.w3.org/1999/xlink" height="440.0px" width="440.0px" xmlns="http://www.w3.org/2000/svg">
  <g transform="matrix(10.0, 0.0, 0.0, 10.0, 0.0, 0.0)">
    <use height="44.0" transform="matrix(1.0, 0.0, 0.0, 1.0, 0.0, 0.0)" width="44.0" xlink:href="#shape0"/>
    <use height="44.7" transform="matrix(0.5493, 0.0108, 0.0, 0.5493, 4.1618, 14.8362)" width="48.25" xlink:href="#sprite0"/>
    <use height="10.8" transform="matrix(1.0, 0.0, 0.0, 1.0, 5.95, 15.8)" width="8.0" xlink:href="#shape2"/>
    <use height="30.7" transform="matrix(0.6723, 0.0132, 0.0, 0.6723, 7.5907, 16.1822)" width="27.1" xlink:href="#sprite1"/>
    <use height="7.45" transform="matrix(0.0465, 0.0494, -0.0333, 0.0374, 11.7788, 26.8483)" width="7.45" xlink:href="#shape4"/>
    <use height="7.45" transform="matrix(0.0214, 0.0228, -0.0153, 0.0172, 11.6363, 28.9611)" width="7.45" xlink:href="#shape4"/>
    <use height="7.45" transform="matrix(0.0394, 0.0418, -0.0282, 0.0316, 10.8667, 28.3445)" width="7.45" xlink:href="#shape4"/>
    <use height="7.45" transform="matrix(0.0332, 0.0352, -0.0238, 0.0266, 12.7563, 28.8848)" width="7.45" xlink:href="#shape4"/>
    <use height="7.45" transform="matrix(0.023, 0.0598, -0.0507, 0.0074, 13.5704, 23.035)" width="7.45" xlink:href="#shape4"/>
    <use height="7.45" transform="matrix(0.0106, 0.0275, -0.0233, 0.0034, 12.4015, 24.374)" width="7.45" xlink:href="#shape4"/>
    <use height="7.45" transform="matrix(0.0195, 0.0506, -0.0429, 0.0063, 11.9365, 23.5103)" width="7.45" xlink:href="#shape4"/>
    <use height="7.45" transform="matrix(0.0164, 0.0426, -0.0361, 0.0053, 13.6071, 24.9323)" width="7.45" xlink:href="#shape4"/>
    <use height="7.45" transform="matrix(0.0676, 0.0718, -0.0484, 0.0543, 19.2146, 22.8614)" width="7.45" xlink:href="#shape4"/>
    <use height="7.45" transform="matrix(0.0311, 0.0331, -0.0223, 0.025, 19.0028, 25.848)" width="7.45" xlink:href="#shape4"/>
    <use height="7.45" transform="matrix(0.0572, 0.0608, -0.041, 0.046, 17.797, 24.9787)" width="7.45" xlink:href="#shape4"/>
    <use height="7.45" transform="matrix(0.0482, 0.0512, -0.0345, 0.0387, 20.6818, 25.7371)" width="7.45" xlink:href="#shape4"/>
    <use height="7.45" transform="matrix(0.0539, 0.0572, -0.0386, 0.0433, 5.5913, 25.7005)" width="7.45" xlink:href="#shape4"/>
    <use height="7.45" transform="matrix(0.0248, 0.0264, -0.0178, 0.0199, 5.442, 28.089)" width="7.45" xlink:href="#shape4"/>
    <use height="7.45" transform="matrix(0.0456, 0.0484, -0.0327, 0.0366, 4.4773, 27.4041)" width="7.45" xlink:href="#shape4"/>
    <use height="7.45" transform="matrix(0.0384, 0.0408, -0.0275, 0.0309, 6.7651, 27.9507)" width="7.45" xlink:href="#shape4"/>
    <use height="7.45" transform="matrix(0.0676, 0.0718, -0.0484, 0.0543, 18.9146, 19.3614)" width="7.45" xlink:href="#shape4"/>
    <use height="7.45" transform="matrix(0.0311, 0.0331, -0.0223, 0.025, 18.7028, 22.348)" width="7.45" xlink:href="#shape4"/>
    <use height="7.45" transform="matrix(0.0572, 0.0608, -0.041, 0.046, 17.497, 21.4787)" width="7.45" xlink:href="#shape4"/>
    <use height="7.45" transform="matrix(0.0482, 0.0512, -0.0345, 0.0387, 20.3818, 22.2371)" width="7.45" xlink:href="#shape4"/>
    <use height="7.45" transform="matrix(0.0642, -0.0339, 0.0528, 0.0834, 20.7354, 19.6791)" width="7.45" xlink:href="#shape4"/>
    <use height="7.45" transform="matrix(0.0296, -0.0156, 0.0243, 0.0384, 23.609, 21.5792)" width="7.45" xlink:href="#shape4"/>
    <use height="7.45" transform="matrix(0.0544, -0.0287, 0.0447, 0.0706, 22.849, 22.4359)" width="7.45" xlink:href="#shape4"/>
    <use height="7.45" transform="matrix(0.0458, -0.0242, 0.0376, 0.0595, 23.4043, 19.6854)" width="7.45" xlink:href="#shape4"/>
    <use height="7.45" transform="matrix(0.0827, 0.035, -0.0081, 0.0829, 20.7193, 21.8869)" width="7.45" xlink:href="#shape4"/>
    <use height="7.45" transform="matrix(0.0381, 0.0161, -0.0037, 0.0382, 21.9898, 25.1137)" width="7.45" xlink:href="#shape4"/>
    <use height="7.45" transform="matrix(0.0701, 0.0296, -0.0069, 0.0702, 20.7393, 24.9156)" width="7.45" xlink:href="#shape4"/>
    <use height="7.45" transform="matrix(0.059, 0.025, -0.0058, 0.0592, 23.1567, 23.984)" width="7.45" xlink:href="#shape4"/>
    <use height="7.45" transform="matrix(0.0343, 0.0893, -0.0757, 0.0111, 22.1292, 19.1535)" width="7.45" xlink:href="#shape4"/>
    <use height="7.45" transform="matrix(0.0158, 0.0411, -0.0349, 0.0051, 20.5016, 21.1364)" width="7.45" xlink:href="#shape4"/>
    <use height="7.45" transform="matrix(0.0291, 0.0756, -0.0641, 0.0094, 19.6787, 19.8412)" width="7.45" xlink:href="#shape4"/>
    <use height="7.45" transform="matrix(0.0245, 0.0637, -0.054, 0.0079, 22.2348, 22.0241)" width="7.45" xlink:href="#shape4"/>
    <use height="7.45" transform="matrix(0.0498, 0.0529, -0.0357, 0.04, 16.0344, 21.9267)" width="7.45" xlink:href="#shape4"/>
    <use height="7.45" transform="matrix(0.0229, 0.0244, -0.0164, 0.0184, 15.8889, 24.1511)" width="7.45" xlink:href="#shape4"/>
    <use height="7.45" transform="matrix(0.0422, 0.0448, -0.0302, 0.0339, 15.0215, 23.5263)" width="7.45" xlink:href="#shape4"/>
    <use height="7.45" transform="matrix(0.0356, 0.0378, -0.0255, 0.0285, 17.1102, 24.0694)" width="7.45" xlink:href="#shape4"/>
    <use height="7.45" transform="matrix(-0.0293, 0.071, -0.0778, -0.0553, 28.6739, 21.0439)" width="7.45" xlink:href="#shape4"/>
    <use height="7.45" transform="matrix(-0.0135, 0.0327, -0.0358, -0.0255, 25.7683, 20.6663)" width="7.45" xlink:href="#shape4"/>
    <use height="7.45" transform="matrix(-0.0248, 0.0601, -0.0659, -0.0468, 25.9012, 19.4218)" width="7.45" xlink:href="#shape4"/>
    <use height="7.45" transform="matrix(-0.0209, 0.0507, -0.0555, -0.0394, 26.738, 22.5026)" width="7.45" xlink:href="#shape4"/>
    <use height="60.75" transform="matrix(-0.2332, 0.0138, -0.0184, -0.2335, 26.3555, 27.0336)" width="57.3" xlink:href="#sprite2"/>
    <use height="12.45" transform="matrix(0.4581, -0.7099, -0.7252, -0.3806, 11.7516, 30.4587)" width="11.25" xlink:href="#sprite4"/>
    <use height="8.25" transform="matrix(1.0, 0.0, 0.0, 1.0, 25.7, 25.2)" width="8.35" xlink:href="#shape7"/>
  </g>
  <defs>
    <g id="shape0" transform="matrix(1.0, 0.0, 0.0, 1.0, 0.0, 0.0)">
      <path d="M44.0 44.0 L0.0 44.0 0.0 0.0 44.0 0.0 44.0 44.0" fill="#43adca" fill-opacity="0.0" fill-rule="evenodd" stroke="none"/>
      <path d="M38.65 3.65 Q39.15 4.3 39.15 5.25 L39.05 5.85 38.55 6.3 38.65 6.05 Q38.5 5.3 33.3 5.5 25.8 5.85 18.35 8.65 9.6 12.0 9.4 16.55 9.4 17.6 9.55 18.0 L9.5 17.95 Q9.8 18.9 10.9 19.75 L11.3 20.45 11.05 21.3 Q10.85 21.7 10.4 21.75 L9.6 21.6 Q7.85 20.3 7.45 18.7 L7.45 18.65 Q7.3 18.15 7.3 16.7 7.05 10.65 17.65 6.55 25.45 3.6 33.3 3.25 L38.65 3.65" fill="#3f3216" fill-rule="evenodd" stroke="none"/>
      <path d="M38.55 6.3 L39.05 5.85 39.15 5.25 Q39.15 4.3 38.65 3.65 40.9 4.3 40.8 6.0 41.1 7.6 36.15 10.5 32.65 12.4 32.5 15.4 32.5 18.05 33.35 20.0 L33.4 20.0 Q34.4 22.35 34.4 24.75 34.4 26.05 33.65 27.35 32.9 28.5 31.65 29.15 L30.8 29.3 30.2 28.7 Q29.95 28.25 30.15 27.85 30.3 27.4 30.7 27.2 L31.9 26.1 32.25 24.85 Q32.25 22.9 31.45 21.0 L31.45 21.05 Q30.35 18.7 30.35 15.5 30.25 11.15 35.15 8.45 L38.55 6.3" fill="#9d7437" fill-rule="evenodd" stroke="none"/>
      <path d="M38.65 3.65 L33.3 3.25 Q25.45 3.6 17.65 6.55 7.05 10.65 7.3 16.7 7.3 18.15 7.45 18.65 L7.45 18.7 Q7.85 20.3 9.6 21.6 L10.4 21.75 Q10.85 21.7 11.05 21.3 L11.3 20.45 10.9 19.75 Q9.8 18.9 9.5 17.95 L9.55 18.0 Q9.4 17.6 9.4 16.55 9.6 12.0 18.35 8.65 25.8 5.85 33.3 5.5 38.5 5.3 38.65 6.05 L38.55 6.3 35.15 8.45 Q30.25 11.15 30.35 15.5 30.35 18.7 31.45 21.05 L31.45 21.0 Q32.25 22.9 32.25 24.85 L31.9 26.1 30.7 27.2 Q30.3 27.4 30.15 27.85 29.95 28.25 30.2 28.7 L30.8 29.3 31.65 29.15 Q32.9 28.5 33.65 27.35 34.4 26.05 34.4 24.75 34.4 22.35 33.4 20.0 L33.35 20.0 Q32.5 18.05 32.5 15.4 32.65 12.4 36.15 10.5 41.1 7.6 40.8 6.0 40.9 4.3 38.65 3.65 Z" fill="none" stroke="#000000" stroke-linecap="round" stroke-linejoin="round" stroke-opacity="0.3019608" stroke-width="0.05"/>
      <path d="M9.7 16.5 L10.15 16.1 10.25 16.3 9.7 16.5 M7.35 21.15 L7.4 21.1 Q7.6 20.6 8.05 20.25 L7.55 21.3 7.35 21.15" fill="#4f6653" fill-rule="evenodd" stroke="none"/>
      <path d="M7.1 18.2 L7.6 17.65 Q7.3 18.65 8.15 19.3 L8.3 19.45 9.15 18.8 9.2 18.85 Q8.5 19.4 8.05 20.25 7.6 20.6 7.4 21.1 L7.35 21.15 7.15 20.9 Q6.7 20.35 6.6 19.55 L6.7 19.3 7.1 18.2" fill="#3f3216" fill-rule="evenodd" stroke="none"/>
      <path d="M7.85 17.4 Q8.4 16.7 8.15 15.95 L7.75 15.6 7.35 15.35 7.95 15.15 10.15 15.1 10.5 15.35 11.0 16.3 10.5 16.2 10.25 16.3 10.5 16.2 11.0 16.3 11.35 16.55 12.15 17.35 Q10.35 17.7 9.2 18.8 L9.2 18.85 9.15 18.8 9.5 17.8 9.3 17.25 8.9 16.9 7.85 17.4 M9.7 16.5 L8.9 16.9 9.7 16.5 10.25 16.3 10.15 16.1 9.7 16.5 M6.2 17.5 L6.85 18.05 7.1 18.2 6.7 19.3 6.6 19.55 6.4 19.35 Q5.75 18.65 6.05 17.75 L6.2 17.5" fill="#bf9c4e" fill-rule="evenodd" stroke="none"/>
      <path d="M7.35 15.35 L7.75 15.6 8.15 15.95 Q8.4 16.7 7.85 17.4 L8.9 16.9 9.3 17.25 9.5 17.8 9.15 18.8 8.3 19.45 8.15 19.3 Q7.3 18.65 7.6 17.65 L7.1 18.2 6.85 18.05 6.2 17.5 6.3 17.1 7.35 15.35 M7.85 17.4 L7.6 17.65 7.85 17.4" fill="#dfcea8" fill-rule="evenodd" stroke="none"/>
      <path d="M7.85 17.4 L8.9 16.9 9.7 16.5 M10.25 16.3 L10.5 16.2 11.0 16.3 10.5 15.35 10.15 15.1 7.95 15.15 7.35 15.35 6.3 17.1 6.2 17.5 M7.1 18.2 L7.6 17.65 7.85 17.4 M6.6 19.55 L6.4 19.35 Q5.75 18.65 6.05 17.75 L6.2 17.5 M7.1 18.2 L6.7 19.3 6.6 19.55 Q6.7 20.35 7.15 20.9 L7.35 21.15 M7.55 21.3 L7.35 21.15 M11.0 16.3 L11.35 16.55 12.15 17.35 M10.25 16.3 L9.7 16.5" fill="none" stroke="#000000" stroke-linecap="round" stroke-linejoin="round" stroke-opacity="0.3019608" stroke-width="0.05"/>
      <path d="M6.05 17.25 L7.1 18.1 M8.4 20.65 L8.05 20.1 7.55 19.15 M9.5 22.75 L9.7 21.1 M11.0 19.4 L10.65 20.3 M10.5 16.15 Q11.25 16.6 11.25 17.65 M7.95 15.0 Q8.6 15.1 8.8 16.45" fill="none" stroke="#000000" stroke-linecap="round" stroke-linejoin="round" stroke-opacity="0.101960786" stroke-width="0.30000000000000004"/>
      <path d="M22.65 16.65 L25.55 18.15 Q30.0 20.75 30.55 24.85 31.1 29.1 27.3 34.55 23.45 40.05 17.9 39.6 12.35 39.15 8.8 35.6 6.8 33.75 5.65 31.9 4.7 30.35 4.25 28.9 3.35 25.7 7.5 20.2 11.7 14.65 16.4 15.15 19.55 15.4 22.65 16.65 Z" fill="none" stroke="#382510" stroke-linecap="round" stroke-linejoin="round" stroke-opacity="0.5019608" stroke-width="1.0"/>
    </g>
    <g id="sprite0" transform="matrix(1.0, 0.0, 0.0, 1.0, 24.1, 44.7)">
      <use height="44.7" transform="matrix(1.0, 0.0, 0.0, 1.0, -24.1, -44.7)" width="48.25" xlink:href="#shape1"/>
    </g>
    <g id="shape1" transform="matrix(1.0, 0.0, 0.0, 1.0, 24.1, 44.7)">
      <path d="M-21.2 -13.65 Q-23.05 -16.4 -23.8 -19.05 -25.5 -24.85 -17.95 -35.1 -10.35 -45.3 -1.65 -44.65 4.05 -44.25 9.7 -42.0 13.75 -39.9 14.45 -35.05 15.2 -28.05 12.15 -22.7 7.95 -15.4 0.4 -11.45 -7.4 -7.25 -15.6 -10.5 -18.8 -11.75 -21.2 -13.65" fill="#ffc70d" fill-rule="evenodd" stroke="none"/>
      <path d="M9.7 -42.0 Q12.3 -40.9 14.9 -39.4 23.05 -34.9 24.0 -27.35 25.05 -19.75 18.1 -9.65 11.2 0.5 1.0 -0.05 -9.15 -0.7 -15.6 -7.0 -19.2 -10.3 -21.2 -13.65 -18.8 -11.75 -15.6 -10.5 -7.4 -7.25 0.4 -11.45 7.95 -15.4 12.15 -22.7 15.2 -28.05 14.45 -35.05 13.75 -39.9 9.7 -42.0" fill="url(#gradient0)" fill-rule="evenodd" stroke="none"/>
      <path d="M9.7 -42.0 Q12.3 -40.9 14.9 -39.4 23.05 -34.9 24.0 -27.35 25.05 -19.75 18.1 -9.65 11.2 0.5 1.0 -0.05 -9.15 -0.7 -15.6 -7.0 -19.2 -10.3 -21.2 -13.65 -23.05 -16.4 -23.8 -19.05 -25.5 -24.85 -17.95 -35.1 -10.35 -45.3 -1.65 -44.65 4.05 -44.25 9.7 -42.0 Z" fill="none" stroke="#b58b2a" stroke-linecap="round" stroke-linejoin="round" stroke-opacity="0.3019608" stroke-width="0.05"/>
      <path d="M16.2 -29.15 Q18.3 -32.35 20.3 -32.3 22.3 -32.25 23.05 -29.0 23.85 -25.75 22.9 -21.15 22.2 -17.9 20.95 -15.4 L20.25 -15.35 Q20.1 -17.5 18.0 -20.4 14.05 -25.9 16.2 -29.15" fill="#fee835" fill-opacity="0.47058824" fill-rule="evenodd" stroke="none"/>
      <path d="M16.25 -8.45 Q14.75 -6.5 12.05 -4.65 8.3 -1.9 4.35 -0.8 0.4 0.25 -1.35 -0.9 -3.15 -2.15 -1.7 -4.8 -0.25 -7.6 8.7 -7.8 13.5 -7.85 15.65 -8.85 L16.25 -8.45" fill="url(#gradient1)" fill-rule="evenodd" stroke="none"/>
    </g>
    <linearGradient gradientTransform="matrix(0.0076, 0.0286, -0.0247, 0.0066, -0.05, 0.3)" gradientUnits="userSpaceOnUse" id="gradient0" spreadMethod="pad" x1="-819.2" x2="819.2">
      <stop offset="0.0" stop-color="#f0b60d"/>
      <stop offset="1.0" stop-color="#b68c0d"/>
    </linearGradient>
    <linearGradient gradientTransform="matrix(0.0102, -0.0058, 0.0024, 0.004, 6.7, -5.75)" gradientUnits="userSpaceOnUse" id="gradient1" spreadMethod="pad" x1="-819.2" x2="819.2">
      <stop offset="0.0" stop-color="#cd7b0d"/>
      <stop offset="1.0" stop-color="#cd7b0d" stop-opacity="0.0"/>
    </linearGradient>
    <g id="shape2" transform="matrix(1.0, 0.0, 0.0, 1.0, -5.95, -15.8)">
      <path d="M13.7 15.8 L13.95 16.05 Q13.05 17.35 12.5 19.9 11.55 24.7 9.3 25.9 7.0 27.05 6.25 26.25 5.5 25.5 6.7 23.25 7.85 20.95 10.3 18.55 12.05 16.85 13.7 15.8" fill="#fefe45" fill-opacity="0.47058824" fill-rule="evenodd" stroke="none"/>
      <path d="M8.7 25.15 L7.1 25.05 Q6.35 24.6 6.15 23.65 6.0 22.75 6.45 21.9 6.95 21.05 7.8 20.7 L9.45 20.85 Q10.15 21.3 10.35 22.2 10.5 23.2 10.0 24.05 9.55 24.9 8.7 25.15" fill="#ffffdd" fill-rule="evenodd" stroke="none"/>
    </g>
    <g id="sprite1" transform="matrix(1.0, 0.0, 0.0, 1.0, 13.55, 30.7)">
      <use height="30.7" transform="matrix(1.0, 0.0, 0.0, 1.0, -13.55, -30.7)" width="27.1" xlink:href="#shape3"/>
    </g>
    <g id="shape3" transform="matrix(1.0, 0.0, 0.0, 1.0, 13.55, 30.7)">
      <path d="M-7.75 -13.0 L-7.2 -12.75 -7.2 -12.65 Q-7.5 -12.25 -7.85 -12.3 L-8.5 -12.9 -8.05 -13.05 -7.95 -12.95 -7.9 -13.0 -7.75 -13.0 -7.75 -12.7 -7.75 -13.0 M-9.1 -10.5 L-8.35 -11.2 -7.85 -11.0 Q-7.7 -10.7 -8.15 -10.05 -9.3 -9.5 -9.1 -10.5 M7.2 -6.2 L7.25 -6.2 Q7.15 -5.5 6.8 -5.55 6.35 -5.7 6.1 -6.15 L6.35 -6.45 6.5 -6.4 6.7 -6.4 7.2 -6.2 M6.8 -6.05 L6.7 -6.4 6.8 -6.05 M6.75 -4.05 L7.25 -3.9 Q7.5 -3.5 7.3 -2.65 6.55 -1.85 6.4 -2.75 L6.35 -2.9 6.35 -3.0 6.75 -4.05 M0.0 -5.55 L0.4 -5.8 0.45 -5.75 0.5 -5.75 0.75 -5.75 1.2 -5.6 Q1.1 -4.9 0.7 -4.9 0.3 -5.05 0.0 -5.55 M0.8 -5.45 L0.75 -5.75 0.8 -5.45 M-0.05 -2.1 L-0.05 -2.25 -0.05 -2.35 0.5 -3.4 1.0 -3.25 Q1.25 -2.95 0.95 -2.0 0.1 -1.2 -0.05 -2.1" fill="#ab8d36" fill-rule="evenodd" stroke="none"/>
      <path d="M-7.1 -15.5 L-6.65 -14.85 -7.35 -14.9 -7.1 -15.5 M-7.2 -12.75 L-6.95 -12.55 -6.85 -12.5 -6.85 -11.25 -7.1 -10.95 -7.05 -10.95 Q-7.95 -10.5 -7.8 -9.65 -9.15 -7.4 -9.25 -10.0 L-9.1 -10.5 Q-9.3 -9.5 -8.15 -10.05 -7.7 -10.7 -7.85 -11.0 L-8.35 -11.2 -8.25 -11.35 -8.15 -11.3 -8.25 -11.4 -8.2 -11.45 -8.7 -12.6 -8.5 -12.9 -7.85 -12.3 Q-7.5 -12.25 -7.2 -12.65 L-7.2 -12.75 M7.25 -6.2 L7.3 -6.2 7.55 -6.0 7.6 -5.95 8.05 -4.3 7.9 -4.0 Q7.35 -3.3 7.7 -2.15 7.4 1.0 6.45 -2.3 L6.4 -2.75 Q6.55 -1.85 7.3 -2.65 7.5 -3.5 7.25 -3.9 L6.75 -4.05 6.85 -4.2 6.75 -4.3 6.75 -4.35 Q6.2 -5.15 6.05 -5.8 L6.1 -6.15 Q6.35 -5.7 6.8 -5.55 7.15 -5.5 7.25 -6.2 M0.0 -5.55 Q0.3 -5.05 0.7 -4.9 1.1 -4.9 1.2 -5.6 L1.25 -5.5 1.25 -5.55 1.6 -5.35 1.6 -5.25 1.9 -3.7 1.75 -3.35 1.75 -3.4 Q1.05 -2.6 1.4 -1.55 0.65 1.65 0.0 -1.7 L-0.05 -2.1 Q0.1 -1.2 0.95 -2.0 1.25 -2.95 1.0 -3.25 L0.5 -3.4 0.65 -3.6 0.5 -3.7 0.55 -3.75 -0.15 -5.1 0.0 -5.55" fill="#8f7525" fill-rule="evenodd" stroke="none"/>
      <path d="M3.0 -17.25 L3.65 -17.5 3.45 -17.8 2.0 -18.9 2.1 -18.9 2.4 -18.95 3.5 -18.8 4.05 -18.55 4.5 -18.25 5.1 -17.85 5.4 -17.65 5.4 -17.5 Q5.3 -16.9 4.9 -16.6 L4.65 -16.35 4.35 -16.3 3.3 -17.1 3.15 -17.2 3.0 -17.25 M5.95 -14.45 L6.2 -14.55 Q6.9 -14.8 7.25 -15.35 L7.4 -15.65 8.05 -14.8 9.3 -13.3 8.7 -12.6 7.65 -11.8 6.85 -13.15 5.95 -14.45 M11.0 -10.75 L11.5 -9.9 12.45 -7.95 Q11.6 -7.15 10.05 -7.05 L9.65 -7.85 8.75 -9.6 9.9 -9.95 11.0 -10.75" fill="#ba651f" fill-rule="evenodd" stroke="none"/>
      <path d="M1.65 -21.1 L3.9 -20.65 4.7 -20.2 5.1 -19.9 5.4 -19.1 5.4 -18.8 5.4 -17.95 5.4 -17.65 5.1 -17.85 4.5 -18.25 4.05 -18.55 3.5 -18.8 2.4 -18.95 2.1 -18.9 2.0 -18.9 0.9 -19.4 1.65 -21.1 M7.55 -17.75 L7.95 -17.35 10.1 -14.85 9.6 -13.7 9.3 -13.3 8.05 -14.8 7.4 -15.65 7.45 -16.15 Q7.7 -17.05 7.55 -17.75 M11.0 -10.75 Q11.55 -11.25 11.7 -12.0 L11.75 -12.15 11.85 -12.6 13.55 -10.1 Q13.3 -8.7 12.45 -7.95 L11.5 -9.9 11.0 -10.75" fill="#ea6f29" fill-rule="evenodd" stroke="none"/>
      <path d="M5.1 -19.9 L6.1 -19.1 6.55 -18.75 7.0 -18.3 7.55 -17.75 Q7.7 -17.05 7.45 -16.15 L7.4 -15.65 6.7 -16.4 5.4 -17.65 5.4 -17.95 5.4 -18.8 5.4 -19.1 5.1 -19.9 M9.3 -13.3 L9.6 -13.7 10.1 -14.85 11.85 -12.6 11.75 -12.15 11.7 -12.0 Q11.55 -11.25 11.0 -10.75 L9.3 -13.3" fill="#b0621c" fill-rule="evenodd" stroke="none"/>
      <path d="M5.4 -17.65 L6.7 -16.4 7.4 -15.65 7.25 -15.35 Q6.9 -14.8 6.2 -14.55 L5.95 -14.45 5.35 -15.2 4.35 -16.3 4.65 -16.35 4.9 -16.6 Q5.3 -16.9 5.4 -17.5 L5.4 -17.65 M7.65 -11.8 L8.7 -12.6 9.3 -13.3 11.0 -10.75 9.9 -9.95 8.75 -9.6 7.65 -11.8" fill="#805812" fill-rule="evenodd" stroke="none"/>
      <path d="M-1.75 -22.5 L-1.25 -21.5 1.95 -21.8 1.65 -21.1 0.9 -19.4 2.0 -18.9 3.45 -17.8 3.65 -17.5 3.0 -17.25 2.95 -17.25 2.9 -17.25 0.65 -16.4 1.4 -13.55 -1.65 -16.1 -1.65 -16.7 0.05 -17.9 -2.85 -19.5 -2.6 -24.0 -1.75 -22.5" fill="#9c802d" fill-rule="evenodd" stroke="none"/>
      <path d="M-1.65 -16.7 L-1.65 -16.1 Q-1.75 -15.5 -2.15 -14.9 L-2.35 -14.65 -2.75 -14.5 Q-3.55 -14.4 -4.55 -14.9 L-4.4 -15.15 -4.1 -15.85 -4.15 -16.65 -4.2 -17.05 -4.35 -17.35 -4.4 -17.45 -4.65 -17.85 -4.85 -18.1 -5.35 -18.5 -6.0 -18.6 -4.9 -19.05 -4.7 -19.1 -3.35 -19.0 -2.7 -18.65 -2.55 -18.55 Q-1.85 -17.9 -1.7 -16.85 L-1.65 -16.7" fill="#ffe9a3" fill-rule="evenodd" stroke="none"/>
      <path d="M-2.6 -24.0 L-2.85 -19.5 0.05 -17.9 -1.65 -16.7 -1.7 -16.85 Q-1.85 -17.9 -2.55 -18.55 L-2.7 -18.65 -3.35 -19.0 -3.35 -19.85 -3.55 -20.65 -4.4 -21.7 -3.7 -22.8 -2.6 -24.0 M-1.65 -16.1 L1.4 -13.55 1.5 -13.1 -2.25 -14.25 -2.55 -14.4 -2.25 -14.25 Q-2.65 -12.85 -4.45 -11.9 -5.0 -12.9 -5.05 -13.85 L-3.95 -13.8 Q-3.15 -13.95 -2.55 -14.4 L-2.35 -14.65 -2.15 -14.9 Q-1.75 -15.5 -1.65 -16.1" fill="#7c6419" fill-rule="evenodd" stroke="none"/>
      <path d="M-3.35 -19.0 L-4.7 -19.1 -4.9 -19.05 -6.0 -18.6 -6.35 -18.5 -6.35 -19.35 Q-6.45 -20.0 -6.9 -20.45 -7.35 -20.85 -7.85 -20.8 L-8.6 -20.2 -8.65 -20.2 -8.45 -20.6 -8.35 -20.65 -8.1 -21.1 -8.1 -21.15 Q-7.45 -22.0 -6.4 -22.1 L-5.45 -22.1 -5.2 -22.1 -4.4 -21.7 -3.55 -20.65 -3.35 -19.85 -3.35 -19.0 M-4.55 -14.9 Q-3.55 -14.4 -2.75 -14.5 L-2.35 -14.65 -2.55 -14.4 Q-3.15 -13.95 -3.95 -13.8 L-5.05 -13.85 -6.0 -14.35 -6.2 -14.5 -5.4 -14.35 -5.1 -14.4 -4.55 -14.9 M-7.45 -17.2 L-7.65 -17.35 -8.0 -17.65 -7.3 -17.5 -7.15 -17.5 -7.25 -17.25 -7.45 -17.2" fill="#d6bb60" fill-rule="evenodd" stroke="none"/>
      <path d="M-13.5 -13.2 L-12.75 -14.85 Q-11.8 -15.55 -10.65 -16.05 L-7.95 -17.1 -7.8 -16.6 -10.2 -15.4 -13.5 -13.2" fill="#e1af3b" fill-rule="evenodd" stroke="none"/>
      <path d="M-7.95 -17.1 L-7.5 -17.2 -7.45 -17.2 -7.25 -17.25 -7.3 -17.2 -7.35 -16.75 -7.25 -16.2 -7.2 -16.05 -9.35 -14.95 -9.6 -14.75 Q-11.55 -13.65 -13.5 -12.15 L-13.5 -13.2 -10.2 -15.4 -7.8 -16.6 -7.95 -17.1" fill="#b8880d" fill-rule="evenodd" stroke="none"/>
      <path d="M-6.0 -18.6 L-5.35 -18.5 -4.85 -18.1 -4.65 -17.85 -4.4 -17.45 -4.35 -17.35 -4.2 -17.05 -4.15 -16.65 -4.1 -15.85 -4.4 -15.15 -4.55 -14.9 -5.1 -14.4 -5.4 -14.35 -6.2 -14.5 -6.65 -14.85 -7.1 -15.5 -7.2 -16.05 -7.25 -16.2 -7.35 -16.75 -7.3 -17.2 -7.25 -17.25 -7.15 -17.5 -7.3 -17.5 -8.0 -17.65 -8.25 -17.85 Q-8.7 -18.25 -8.8 -18.95 L-8.85 -19.25 -8.65 -20.2 -8.6 -20.2 -7.85 -20.8 Q-7.35 -20.85 -6.9 -20.45 -6.45 -20.0 -6.35 -19.35 L-6.35 -18.5 -6.0 -18.6" fill="#69530d" fill-rule="evenodd" stroke="none"/>
      <path d="M-1.75 -22.5 L-1.25 -21.5 1.95 -21.8 1.65 -21.1 3.9 -20.65 4.7 -20.2 5.1 -19.9 6.1 -19.1 6.55 -18.75 7.0 -18.3 7.55 -17.75 7.95 -17.35 M-2.6 -24.0 L-1.75 -22.5 M-1.65 -16.7 L-1.65 -16.1 M1.4 -13.55 L0.65 -16.4 2.9 -17.25 2.95 -17.25 3.0 -17.25 3.65 -17.5 3.45 -17.8 2.0 -18.9 0.9 -19.4 1.65 -21.1 M-2.35 -14.65 L-2.15 -14.9 Q-1.75 -15.5 -1.65 -16.1 M-1.65 -16.7 L-1.7 -16.85 Q-1.85 -17.9 -2.55 -18.55 L-2.7 -18.65 -3.35 -19.0 -4.7 -19.1 -4.9 -19.05 -6.0 -18.6 M-2.35 -14.65 L-2.55 -14.4 -2.25 -14.25 1.5 -13.1 1.4 -13.55 M3.0 -17.25 L3.15 -17.2 3.3 -17.1 4.35 -16.3 5.35 -15.2 5.95 -14.45 M10.1 -14.85 L7.95 -17.35 M-4.4 -21.7 L-3.55 -20.65 -3.35 -19.85 -3.35 -19.0 M-8.65 -20.2 L-8.45 -20.6 -8.35 -20.65 -8.1 -21.1 -8.1 -21.15 Q-7.45 -22.0 -6.4 -22.1 L-5.45 -22.1 -5.2 -22.1 -4.4 -21.7 -3.7 -22.8 -2.6 -24.0 M-13.5 -13.2 L-12.75 -14.85 Q-11.8 -15.55 -10.65 -16.05 L-7.95 -17.1 -7.5 -17.2 -7.45 -17.2 -7.65 -17.35 -8.0 -17.65 M-7.2 -16.05 L-9.35 -14.95 -9.6 -14.75 Q-11.55 -13.65 -13.5 -12.15 L-13.5 -13.2 M-7.45 -17.2 L-7.25 -17.25 M-7.35 -14.9 L-7.1 -15.5 M-6.65 -14.85 L-7.35 -14.9 M-7.75 -13.0 L-7.2 -12.75 -6.95 -12.55 -6.85 -12.5 -6.85 -11.25 -7.1 -10.95 -7.05 -10.95 Q-7.95 -10.5 -7.8 -9.65 -9.15 -7.4 -9.25 -10.0 L-9.1 -10.5 -8.35 -11.2 -8.25 -11.35 -8.15 -11.3 -8.25 -11.4 -8.2 -11.45 -8.7 -12.6 -8.5 -12.9 -8.05 -13.05 -7.95 -12.95 -7.9 -13.0 -7.75 -13.0 M-5.05 -13.85 L-3.95 -13.8 Q-3.15 -13.95 -2.55 -14.4 M-2.25 -14.25 Q-2.65 -12.85 -4.45 -11.9 -5.0 -12.9 -5.05 -13.85 L-6.0 -14.35 -6.2 -14.5 M-7.2 -12.65 L-7.2 -12.75 M12.45 -7.95 Q13.3 -8.7 13.55 -10.1 L11.85 -12.6 10.1 -14.85 M7.65 -11.8 L8.75 -9.6 9.65 -7.85 10.05 -7.05 Q11.6 -7.15 12.45 -7.95 M7.2 -6.2 L7.25 -6.2 7.3 -6.2 7.25 -6.25 7.2 -6.2 6.7 -6.4 M6.4 -2.75 L6.45 -2.3 Q7.4 1.0 7.7 -2.15 7.35 -3.3 7.9 -4.0 L8.05 -4.3 7.6 -5.95 7.55 -6.0 7.3 -6.2 7.3 -6.25 7.25 -6.25 M6.4 -2.75 L6.35 -2.9 6.35 -3.0 6.75 -4.05 6.85 -4.2 6.75 -4.3 6.75 -4.35 Q6.2 -5.15 6.05 -5.8 L6.1 -6.15 6.35 -6.45 6.5 -6.4 6.7 -6.4 M6.85 -13.15 L5.95 -14.45 M0.75 -5.75 L0.5 -5.75 0.45 -5.75 0.4 -5.8 0.0 -5.55 M1.2 -5.6 L0.75 -5.75 M1.25 -5.55 L1.2 -5.6 1.25 -5.5 1.25 -5.55 1.6 -5.35 1.6 -5.25 1.9 -3.7 1.75 -3.35 1.75 -3.4 Q1.05 -2.6 1.4 -1.55 0.65 1.65 0.0 -1.7 L-0.05 -2.1 -0.05 -2.25 -0.05 -2.35 0.5 -3.4 0.65 -3.6 0.5 -3.7 0.55 -3.75 -0.15 -5.1 0.0 -5.55 M6.85 -13.15 L7.65 -11.8" fill="none" stroke="#87691c" stroke-linecap="round" stroke-linejoin="round" stroke-opacity="0.4" stroke-width="0.05"/>
      <path d="M3.9 -20.65 L6.5 -20.8 M-1.75 -22.5 L-1.55 -22.7 M7.95 -17.35 L8.85 -19.9 M-7.35 -14.9 L-7.75 -13.0 -7.75 -12.7 M6.7 -6.4 L6.8 -6.05 M6.7 -6.4 Q6.15 -9.4 6.85 -13.15 M0.75 -5.75 L0.8 -5.45 M0.75 -5.75 Q0.2 -10.35 3.3 -17.1" fill="none" stroke="#87691c" stroke-linecap="round" stroke-linejoin="round" stroke-opacity="0.4" stroke-width="0.05"/>
      <path d="M-1.1 -30.6 Q-3.35 -31.05 -4.85 -29.45 -1.55 -25.35 -0.55 -21.4 L0.25 -20.9 Q0.6 -25.7 -1.1 -30.6 M-8.65 -25.5 Q-10.45 -23.95 -10.05 -21.75 -4.75 -21.8 -1.15 -20.25 L-0.25 -20.45 Q-3.8 -23.7 -8.65 -25.5" fill="#d3c31d" fill-opacity="0.18039216" fill-rule="evenodd" stroke="none"/>
      <path d="M-1.1 -30.6 Q-3.35 -31.05 -4.85 -29.45 -1.55 -25.35 -0.55 -21.4 L0.25 -20.9 Q0.6 -25.7 -1.1 -30.6 M-8.65 -25.5 Q-10.45 -23.95 -10.05 -21.75 -4.75 -21.8 -1.15 -20.25 L-0.25 -20.45 Q-3.8 -23.7 -8.65 -25.5" fill="none" stroke="#ffe9a3" stroke-linecap="round" stroke-linejoin="round" stroke-opacity="0.4627451" stroke-width="0.05"/>
      <path d="M12.6 -18.0 Q13.4 -15.5 11.8 -13.65 6.7 -16.8 2.2 -17.4 L1.5 -18.15 Q6.85 -19.25 12.6 -18.0 M7.9 -8.85 Q6.45 -6.6 3.9 -6.8 3.25 -12.7 1.0 -16.6 L1.1 -17.6 Q5.25 -14.1 7.9 -8.85" fill="#d3c31d" fill-opacity="0.18039216" fill-rule="evenodd" stroke="none"/>
      <path d="M12.6 -18.0 Q13.4 -15.5 11.8 -13.65 6.7 -16.8 2.2 -17.4 L1.5 -18.15 Q6.85 -19.25 12.6 -18.0 M7.9 -8.85 Q6.45 -6.6 3.9 -6.8 3.25 -12.7 1.0 -16.6 L1.1 -17.6 Q5.25 -14.1 7.9 -8.85" fill="none" stroke="#ffe9a3" stroke-linecap="round" stroke-linejoin="round" stroke-opacity="0.4627451" stroke-width="0.05"/>
    </g>
    <g id="shape4" transform="matrix(1.0, 0.0, 0.0, 1.0, 2.1, 5.3)">
      <path d="M5.35 -1.6 Q5.35 -0.1 4.2 1.0 3.1 2.15 1.6 2.15 0.1 2.15 -1.05 1.0 -2.1 -0.1 -2.1 -1.6 -2.1 -3.1 -1.05 -4.25 0.1 -5.3 1.6 -5.3 3.1 -5.3 4.2 -4.25 5.35 -3.1 5.35 -1.6" fill="#ffffff" fill-opacity="0.92156863" fill-rule="evenodd" stroke="none"/>
    </g>
    <g id="sprite2" transform="matrix(1.0, 0.0, 0.0, 1.0, 12.75, 48.0)">
      <use height="46.7" transform="matrix(1.0, 0.0, 0.0, 1.0, -12.75, -33.95)" width="25.5" xlink:href="#sprite3"/>
      <use height="46.7" transform="matrix(-0.5019, 0.5019, -0.5019, -0.5019, 44.5391, -24.5596)" width="25.5" xlink:href="#sprite3"/>
      <use height="46.7" transform="matrix(0.4243, 0.0, 0.0, 0.4243, 19.24, -20.3055)" width="25.5" xlink:href="#sprite3"/>
    </g>
    <g id="sprite3" transform="matrix(1.0, 0.0, 0.0, 1.0, 12.75, 33.95)">
      <use height="46.7" transform="matrix(1.0, 0.0, 0.0, 1.0, -12.75, -33.95)" width="25.5" xlink:href="#shape5"/>
    </g>
    <g id="shape5" transform="matrix(1.0, 0.0, 0.0, 1.0, 12.75, 33.95)">
      <path d="M1.8 -1.8 Q1.05 -2.55 0.0 -2.55 -1.05 -2.55 -1.8 -1.8 -2.55 -1.05 -2.55 0.0 -2.55 1.05 -1.8 1.8 -1.05 2.55 0.0 2.55 1.05 2.55 1.8 1.8 2.55 1.05 2.55 0.0 2.55 -1.05 1.8 -1.8 M9.0 -9.0 Q12.75 -5.25 12.75 0.0 12.75 5.25 9.0 9.0 5.25 12.75 0.0 12.75 -5.25 12.75 -9.0 9.0 -12.75 5.25 -12.75 0.0 -12.75 -5.25 -9.0 -9.0 -5.25 -12.75 0.0 -12.75 5.25 -12.75 9.0 -9.0" fill="url(#gradient2)" fill-rule="evenodd" stroke="none"/>
      <path d="M2.4 -33.8 L2.8 -33.95 3.25 -33.8 3.4 -33.35 3.25 -32.95 2.8 -32.8 Q2.55 -32.8 2.4 -32.95 L2.25 -33.35 2.4 -33.8 M-5.55 -16.15 Q-5.9 -16.5 -5.85 -16.95 -5.9 -17.45 -5.55 -17.8 -5.2 -18.15 -4.7 -18.15 -4.2 -18.15 -3.85 -17.8 -3.55 -17.45 -3.55 -16.95 -3.55 -16.5 -3.85 -16.15 -4.2 -15.8 -4.7 -15.8 -5.2 -15.8 -5.55 -16.15" fill="#ffffff" fill-rule="evenodd" stroke="none"/>
      <path d="M3.6 -3.6 Q5.1 -2.1 5.1 0.0 5.1 2.1 3.6 3.6 2.1 5.1 0.0 5.1 -2.1 5.1 -3.6 3.6 -5.1 2.1 -5.1 0.0 -5.1 -2.1 -3.6 -3.6 -2.1 -5.1 0.0 -5.1 2.1 -5.1 3.6 -3.6" fill="#ffffff" fill-rule="evenodd" stroke="none"/>
    </g>
    <radialGradient cx="0" cy="0" gradientTransform="matrix(0.0151, 0.0, 0.0, 0.0151, 0.0, 0.0)" gradientUnits="userSpaceOnUse" id="gradient2" r="819.2" spreadMethod="pad">
      <stop offset="0.0" stop-color="#80ff00" stop-opacity="0.56078434"/>
      <stop offset="1.0" stop-color="#e6ff00" stop-opacity="0.0"/>
    </radialGradient>
    <g id="sprite4" transform="matrix(1.0, 0.0, 0.0, 1.0, 0.0, -5.1)">
      <use height="12.45" transform="matrix(1.0, 0.0, 0.0, 1.0, 0.0, 5.1)" width="11.25" xlink:href="#shape6"/>
    </g>
    <g id="shape6" transform="matrix(1.0, 0.0, 0.0, 1.0, 0.0, -5.1)">
      <path d="M2.55 11.85 Q2.55 12.5 3.05 13.05 3.55 13.55 4.25 13.55 4.95 13.55 5.45 13.05 6.0 12.55 6.0 11.9 6.0 11.15 5.5 10.65 5.0 10.1 4.25 10.1 3.55 10.1 3.05 10.6 2.55 11.1 2.55 11.85 M1.6 14.1 Q0.65 13.1 0.6 11.65 0.6 10.2 1.6 9.2 2.25 8.55 3.1 8.35 4.2 7.2 4.35 5.1 4.25 7.6 5.2 8.4 5.95 8.65 6.5 9.25 7.55 10.25 7.6 11.7 7.55 13.0 6.65 14.05 L6.55 14.15 6.95 15.45 5.8 14.75 Q5.05 15.15 4.1 15.15 3.2 15.1 2.4 14.7 L0.1 16.3 1.6 14.1" fill="#fcf3d8" fill-opacity="0.3019608" fill-rule="evenodd" stroke="none"/>
      <path d="M2.55 11.85 Q2.55 11.1 3.05 10.6 3.55 10.1 4.25 10.1 5.0 10.1 5.5 10.65 6.0 11.15 6.0 11.9 6.0 12.55 5.45 13.05 4.95 13.55 4.25 13.55 3.55 13.55 3.05 13.05 2.55 12.5 2.55 11.85" fill="#fcf3d8" fill-rule="evenodd" stroke="none"/>
      <path d="M4.25 10.8 L7.65 7.55 Q6.1 9.2 5.4 11.55 L11.25 17.55 4.65 12.6 2.4 15.05 3.6 11.4 0.0 7.65 4.25 10.8" fill="#fcf3d8" fill-rule="evenodd" stroke="none"/>
    </g>
    <g id="shape7" transform="matrix(1.0, 0.0, 0.0, 1.0, -25.7, -25.2)">
      <path d="M29.8 33.45 L29.25 33.35 27.0 32.8 27.1 32.25 27.45 31.65 Q28.05 30.95 29.2 31.35 L28.2 30.35 Q28.3 30.0 28.55 29.6 L29.15 29.3 Q30.4 29.0 31.4 30.0 L31.4 30.35 Q30.9 31.6 29.5 31.55 L30.4 32.0 30.3 32.3 29.8 33.45 M29.5 31.55 L29.2 31.35 29.5 31.55" fill="#c9bb74" fill-rule="evenodd" stroke="none"/>
      <path d="M27.9 26.1 Q29.0 25.2 30.15 25.2 31.2 25.2 31.4 25.65 L31.4 25.95 Q31.5 27.45 32.7 28.6 L34.05 27.0 33.9 28.8 33.8 30.55 Q32.55 30.35 31.8 29.55 L31.7 29.45 30.3 27.3 29.95 26.85 30.15 26.0 27.9 26.1 M32.15 32.05 L31.95 32.45 Q31.4 33.45 30.2 33.45 L29.8 33.45 30.3 32.3 30.4 32.0 31.8 32.1 32.15 32.05 M25.7 29.5 L25.85 29.0 Q26.2 28.3 26.8 28.0 L26.8 28.65 27.6 29.5 26.9 29.05 Q26.4 28.7 25.7 29.5 M33.9 28.8 L32.8 28.7 32.7 28.6 32.8 28.7 33.9 28.8" fill="#3f3216" fill-rule="evenodd" stroke="none"/>
      <path d="M33.8 30.55 L33.6 30.9 Q33.0 31.65 32.15 32.05 L31.8 32.1 30.4 32.0 29.5 31.55 Q30.9 31.6 31.4 30.35 L31.4 30.0 Q30.4 29.0 29.15 29.3 L28.55 29.6 Q28.3 30.0 28.2 30.35 L27.6 29.5 28.2 30.35 29.2 31.35 Q28.05 30.95 27.45 31.65 L27.1 32.25 27.0 32.8 26.45 32.1 Q25.65 30.9 25.7 29.5 26.4 28.7 26.9 29.05 L27.6 29.5 26.8 28.65 26.8 28.0 27.0 27.45 Q27.2 26.6 27.9 26.1 L30.15 26.0 29.95 26.85 30.3 27.3 31.7 29.45 31.8 29.55 Q32.55 30.35 33.8 30.55" fill="#8f7434" fill-rule="evenodd" stroke="none"/>
      <path d="M34.05 27.0 L34.05 26.55 M27.9 26.1 Q29.0 25.2 30.15 25.2 31.2 25.2 31.4 25.65 L31.4 25.95 Q31.5 27.45 32.7 28.6 L32.8 28.7 33.9 28.8 33.8 30.55 33.6 30.9 Q33.0 31.65 32.15 32.05 L31.95 32.45 Q31.4 33.45 30.2 33.45 L29.8 33.45 29.25 33.35 27.0 32.8 26.45 32.1 Q25.65 30.9 25.7 29.5 L25.85 29.0 Q26.2 28.3 26.8 28.0 L27.0 27.45 Q27.2 26.6 27.9 26.1 M34.05 27.0 L33.9 28.8 M30.4 32.0 L31.8 32.1 32.15 32.05 M29.5 31.55 L30.4 32.0 M26.8 28.0 L26.8 28.65 27.6 29.5 28.2 30.35 29.2 31.35 29.5 31.55" fill="none" stroke="#000000" stroke-linecap="round" stroke-linejoin="round" stroke-opacity="0.3019608" stroke-width="0.05"/>
    </g>
  </defs>
</svg>
