<?xml version="1.0" encoding="UTF-8" standalone="no"?>
<svg xmlns:xlink="http://www.w3.org/1999/xlink" height="440.0px" width="440.0px" xmlns="http://www.w3.org/2000/svg">
  <g transform="matrix(10.0, 0.0, 0.0, 10.0, 0.0, 0.0)">
    <use height="44.0" transform="matrix(1.0, 0.0, 0.0, 1.0, 0.0, 0.0)" width="44.0" xlink:href="#shape0"/>
    <use height="34.5" transform="matrix(0.8791, 0.0, 0.0, 0.9384, 2.9553, 7.4953)" width="43.45" xlink:href="#sprite0"/>
  </g>
  <defs>
    <g id="shape0" transform="matrix(1.0, 0.0, 0.0, 1.0, 0.0, 0.0)">
      <path d="M44.0 44.0 L0.0 44.0 0.0 0.0 44.0 0.0 44.0 44.0" fill="#43adca" fill-opacity="0.0" fill-rule="evenodd" stroke="none"/>
    </g>
    <g id="sprite0" transform="matrix(1.0, 0.0, 0.0, 1.0, 21.55, 16.15)">
      <use height="31.8" transform="matrix(1.0708, 0.0, 0.0, 1.0708, -21.3089, -15.9549)" width="40.1" xlink:href="#sprite1"/>
      <use height="34.5" transform="matrix(1.0, 0.0, 0.0, 1.0, -21.55, -16.15)" width="43.45" xlink:href="#shape5"/>
    </g>
    <g id="sprite1" transform="matrix(1.0, 0.0, 0.0, 1.0, 19.9, 14.9)">
      <use height="30.7" transform="matrix(1.0, 0.0, 0.0, 1.0, -19.0, -13.8)" width="38.9" xlink:href="#shape1"/>
      <use height="24.55" transform="matrix(1.0, 0.0, 0.0, 1.0, -19.0, -7.7)" width="39.0" xlink:href="#sprite2"/>
      <use height="16.95" transform="matrix(0.9057, 0.0, 0.0, 0.9057, -19.9103, -14.8981)" width="44.3" xlink:href="#sprite3"/>
      <use height="10.45" transform="matrix(1.0, 0.0, 0.0, 1.0, -18.55, -13.85)" width="14.25" xlink:href="#shape4"/>
    </g>
    <g id="shape1" transform="matrix(1.0, 0.0, 0.0, 1.0, 19.0, 13.8)">
      <path d="M12.05 -1.9 L13.25 0.95 13.1 1.05 13.05 1.05 12.25 1.45 12.25 1.3 12.2 1.25 11.2 -1.3 11.8 -1.7 12.05 -1.9" fill="#735c3a" fill-rule="evenodd" stroke="none"/>
      <path d="M14.3 3.95 L14.2 3.3 14.3 3.75 14.3 3.95" fill="#7c5f8f" fill-rule="evenodd" stroke="none"/>
      <path d="M19.8 -6.2 L19.85 -0.1 Q18.15 0.2 15.95 2.3 L14.45 3.75 14.3 3.95 14.1 4.1 Q12.85 4.85 9.95 7.95 L7.95 10.2 Q5.85 12.7 5.0 14.6 L5.0 14.9 Q1.5 16.75 -1.4 16.85 L-3.0 16.8 Q-7.15 16.3 -9.95 11.95 L-10.2 11.5 -10.3 11.5 Q-11.0 7.95 -12.1 5.6 -13.35 2.75 -15.1 1.5 L-18.45 -0.85 -18.5 -0.9 -18.85 -2.9 -18.8 -4.4 -18.15 -3.9 -16.35 -2.55 -16.1 -2.4 Q-12.3 0.15 -7.8 1.2 L1.55 1.9 1.95 1.85 3.65 1.5 3.85 1.45 9.7 0.05 12.85 -0.9 16.1 -1.95 17.1 -2.65 17.35 -2.85 18.8 -4.3 19.7 -5.8 19.8 -6.2 M14.3 3.95 L14.3 3.75 14.2 3.3 14.3 3.95" fill="#f8f5e4" fill-rule="evenodd" stroke="none"/>
      <path d="M19.5 -7.4 L19.8 -8.2 19.8 -6.5 19.8 -6.25 19.8 -6.2 19.7 -5.8 18.8 -4.3 17.35 -2.85 17.1 -2.65 16.1 -1.95 12.85 -0.9 9.7 0.05 3.85 1.45 3.65 1.5 1.95 1.85 1.55 1.9 -7.8 1.2 Q-12.3 0.15 -16.1 -2.4 L-16.35 -2.55 -18.15 -3.9 -18.8 -4.4 -18.8 -4.45 -18.85 -4.45 -18.85 -4.5 -18.95 -5.95 -18.85 -6.45 -18.85 -6.4 -16.1 -4.35 -14.1 -3.15 Q-11.15 -1.5 -7.8 -0.75 L-5.0 -0.25 1.15 -0.05 2.3 -0.15 2.35 -0.15 3.35 -0.35 3.65 -0.45 4.4 -0.55 9.8 -1.9 15.05 -3.5 16.1 -3.85 17.1 -4.6 17.55 -4.95 18.8 -6.25 19.5 -7.4" fill="#e2ded8" fill-rule="evenodd" stroke="none"/>
      <path d="M-18.85 -6.45 Q-18.2 -8.0 -15.45 -9.25 L-9.35 -10.8 -8.35 -11.05 -8.25 -11.05 0.9 -11.9 1.35 -11.9 Q11.75 -12.0 17.7 -8.75 L18.85 -8.0 19.5 -7.4 18.8 -6.25 17.55 -4.95 17.1 -4.6 16.1 -3.85 15.05 -3.5 Q13.25 -4.2 11.2 -4.55 L8.55 -4.0 Q5.5 -3.0 4.4 -0.55 L3.65 -0.45 3.35 -0.35 2.35 -0.15 2.3 -0.15 1.15 -0.05 0.3 -2.35 Q-1.2 -5.05 -4.6 -5.05 L-5.15 -5.0 -5.85 -4.9 Q-9.8 -4.4 -14.1 -3.15 L-16.1 -4.35 -18.85 -6.4 -18.85 -6.45" fill="#7a7976" fill-rule="evenodd" stroke="none"/>
      <path d="M-18.85 -6.45 L-18.95 -6.9 -19.0 -7.8 Q-18.7 -9.75 -15.45 -11.2 L-9.3 -12.75 -9.1 -12.8 Q-3.85 -13.95 0.9 -13.8 L1.35 -13.8 Q11.75 -13.95 17.7 -10.75 17.75 -10.65 18.85 -10.0 19.8 -9.3 19.8 -8.35 L19.8 -8.2 19.5 -7.4 18.85 -8.0 17.7 -8.75 Q11.75 -12.0 1.35 -11.9 L0.9 -11.9 -8.25 -11.05 -8.35 -11.05 -9.35 -10.8 -15.45 -9.25 Q-18.2 -8.0 -18.85 -6.45" fill="#454442" fill-rule="evenodd" stroke="none"/>
      <path d="M19.9 -0.1 Q18.2 0.2 16.0 2.3 L14.5 3.75 14.3 3.95 14.15 4.1 Q12.9 4.85 9.95 7.95 6.25 11.9 5.05 14.6 L5.05 14.9 Q-3.45 19.35 -8.45 13.95 L-9.9 11.95 -10.2 11.75 -11.1 9.0 Q-2.45 16.3 5.0 11.9 9.35 6.6 14.05 2.3 13.65 0.75 12.1 -2.55 L16.2 -3.95 Q19.55 -6.5 19.85 -8.7 L19.9 -0.1 M14.3 3.95 L14.3 3.75 14.25 3.3 14.3 3.95" fill="#000000" fill-opacity="0.3019608" fill-rule="evenodd" stroke="none"/>
    </g>
    <g id="sprite2" transform="matrix(1.0, 0.0, 0.0, 1.0, 0.05, 0.0)">
      <use height="24.55" transform="matrix(1.0, 0.0, 0.0, 1.0, -0.05, 0.0)" width="39.0" xlink:href="#shape2"/>
    </g>
    <g id="shape2" transform="matrix(1.0, 0.0, 0.0, 1.0, 0.05, 0.0)">
      <path d="M31.9 7.2 Q27.0 9.1 23.15 9.45 24.45 12.1 24.7 14.0 24.9 15.9 24.5 17.2 23.9 19.4 21.65 21.05 19.35 22.8 16.0 22.0 13.2 21.35 11.3 19.55 9.75 18.05 9.6 15.5 9.4 12.9 10.9 11.65 12.25 10.45 14.5 10.5 16.4 10.55 18.25 11.4 19.9 12.15 20.4 12.9 20.85 13.7 20.85 15.65 20.85 17.55 20.05 18.35 19.35 19.0 17.6 19.3 15.95 19.55 14.65 18.45 13.4 17.45 13.4 16.15 13.2 14.95 14.15 14.0 15.15 13.0 16.55 13.0 17.85 13.0 18.35 13.85 18.8 14.65 18.35 15.5 17.95 16.2 17.2 16.2 L16.15 15.9 Q15.85 15.75 16.3 15.7 L17.45 15.5 Q18.3 15.2 17.6 14.1 16.95 13.05 15.55 14.35 14.0 15.75 14.7 16.9 15.3 17.95 17.35 18.2 19.1 18.4 19.6 17.3 20.0 16.4 19.6 14.3 19.1 12.0 14.95 11.8 10.75 11.65 11.0 15.6 11.2 19.25 14.35 20.5 15.95 21.15 17.5 21.05 20.25 21.05 22.05 19.5 L23.35 17.95 Q24.3 14.7 21.95 11.9 18.25 9.35 13.1 9.05 L12.85 9.0 Q5.2 7.9 1.5 4.55 L2.25 7.2 Q4.4 8.35 5.4 9.5 7.85 12.35 8.5 15.4 8.85 17.4 10.05 19.4 12.65 23.5 16.95 23.6 20.05 23.65 23.55 21.1 26.0 16.4 29.65 13.15 L29.7 13.15 Q32.4 9.6 37.8 6.65 L37.8 3.4 Q36.1 5.5 31.9 7.2 M33.75 11.5 Q27.6 15.95 24.0 22.6 21.2 24.05 18.8 24.4 L18.45 24.4 Q14.45 25.05 11.25 22.55 9.35 20.75 8.45 19.05 7.5 13.65 5.7 11.35 3.9 9.05 0.4 6.9 -0.25 4.95 0.0 2.15 6.05 6.55 15.55 7.1 L15.9 7.0 Q26.05 8.45 36.1 2.45 L38.7 0.0 Q39.1 4.25 38.85 7.55 36.35 8.35 33.75 11.5" fill="#454035" fill-rule="evenodd" stroke="none"/>
    </g>
    <g id="sprite3" transform="matrix(1.0, 0.0, 0.0, 1.0, 22.15, 8.5)">
      <use height="16.95" transform="matrix(1.0, 0.0, 0.0, 1.0, -22.15, -8.5)" width="44.3" xlink:href="#shape3"/>
    </g>
    <g id="shape3" transform="matrix(1.0, 0.0, 0.0, 1.0, 22.15, 8.5)">
      <path d="M-22.1 -0.4 L-22.0 -0.8 -21.95 -0.95 Q-21.4 -3.4 -17.8 -5.05 -17.75 -4.5 -17.15 -4.1 L-16.1 -3.65 -16.0 -3.65 Q-19.05 -2.45 -19.85 -0.75 L-19.9 -0.75 -20.65 -0.85 -21.85 -0.6 -22.1 -0.4 M-13.05 -6.7 L-11.6 -7.0 -6.55 -7.9 -6.6 -7.6 -6.35 -6.85 -5.6 -6.1 -5.55 -6.05 -10.8 -5.15 -11.15 -5.05 -11.2 -5.05 -11.25 -5.05 -11.35 -5.05 -12.55 -5.75 Q-13.0 -6.15 -13.05 -6.7 M0.25 -8.45 L0.8 -8.45 0.7 -7.9 0.75 -7.1 0.85 -6.65 0.9 -6.5 0.9 -6.45 0.45 -6.45 0.3 -6.45 0.3 -6.5 0.2 -7.15 0.15 -7.65 0.25 -8.45 M9.75 -7.95 L10.7 -7.85 Q9.85 -7.25 9.8 -6.15 L9.8 -6.05 9.8 -6.0 9.75 -6.0 8.9 -6.05 9.75 -6.0 9.8 -6.0 9.8 -5.95 8.9 -6.0 8.9 -6.05 8.85 -6.3 Q8.85 -6.8 9.45 -7.6 L9.75 -7.95 M13.85 -7.35 L13.8 -7.4 13.85 -7.4 13.85 -7.35 M19.65 -5.25 L20.55 -4.45 20.6 -4.4 20.25 -4.45 19.6 -4.3 18.8 -4.0 18.35 -3.75 18.3 -3.8 18.2 -3.85 18.1 -3.85 18.05 -3.9 Q15.5 -5.0 14.0 -5.35 15.5 -5.0 18.05 -3.9 L18.1 -3.85 18.2 -3.85 18.3 -3.8 18.35 -3.75 Q18.25 -3.8 18.25 -3.8 L18.2 -3.8 18.15 -3.8 18.1 -3.85 14.0 -5.3 14.0 -5.35 14.65 -6.3 15.5 -7.0 17.6 -6.25 18.9 -5.7 18.95 -5.65 19.65 -5.25 M22.05 -1.3 L22.15 -1.55 22.05 -1.25 22.05 -1.3 M20.75 1.3 L20.4 1.75 19.15 3.15 18.85 3.45 18.85 3.35 19.1 3.1 20.35 1.7 20.7 1.25 20.8 1.15 20.7 1.25 20.35 1.7 19.1 3.1 18.85 3.35 18.85 3.2 Q18.85 2.2 18.45 1.2 L18.35 0.95 18.75 0.45 18.8 0.4 18.9 0.3 20.0 -1.45 20.3 -1.1 Q20.8 -0.55 20.8 0.45 L20.8 1.15 20.75 1.3 M17.1 4.45 L16.45 4.75 16.4 4.8 12.85 6.25 12.8 6.25 11.3 6.7 11.3 6.65 12.75 6.2 12.8 6.2 16.35 4.75 16.4 4.7 17.05 4.4 17.15 4.35 17.05 4.4 16.4 4.7 16.35 4.75 12.8 6.2 12.75 6.2 11.3 6.65 11.25 6.15 Q11.25 5.7 11.4 5.15 L11.55 4.55 11.7 4.5 12.1 4.35 12.1 4.4 15.6 2.95 17.5 1.8 17.5 1.9 17.55 2.65 Q17.55 3.5 17.15 4.35 L17.1 4.45 M4.95 7.8 L4.05 7.9 4.0 7.9 3.65 7.95 3.65 7.9 3.95 6.85 4.0 6.8 Q4.35 6.15 4.85 5.8 L5.2 5.75 6.3 5.6 5.5 6.55 5.4 6.75 4.95 7.75 4.95 7.8 M-1.55 8.4 L-3.65 8.45 -7.1 8.1 -9.5 7.75 -9.45 7.75 -9.6 7.75 -9.6 7.7 -9.3 7.15 -8.85 6.6 Q-8.45 6.2 -8.0 5.95 L-6.8 6.1 -3.65 6.45 -0.65 6.35 -1.2 7.0 -1.4 7.35 -1.65 8.1 -1.6 8.35 -1.55 8.4 M-15.15 5.85 L-15.2 5.8 -15.85 5.35 Q-16.3 5.05 -16.8 4.8 L-16.85 4.75 -18.55 3.6 -18.85 3.4 -18.9 3.35 -20.0 2.75 -19.45 2.25 -18.3 1.65 -17.85 1.65 -17.8 1.7 -17.4 2.05 -17.35 2.1 -16.95 2.4 -16.7 2.6 -15.65 3.35 -14.1 4.3 -14.75 4.45 Q-15.25 4.7 -15.25 5.5 L-15.15 5.85 -15.25 5.75 -15.85 5.35 -15.25 5.75 -15.15 5.85 M0.3 -6.5 L0.4 -6.5 0.85 -6.5 0.9 -6.5 0.85 -6.5 0.4 -6.5 0.3 -6.5 M20.75 -4.3 L20.7 -4.3 20.75 -4.3 M19.95 -1.6 L19.95 -1.55 19.85 -1.45 19.95 -1.6 M4.95 7.75 L4.9 7.75 4.0 7.85 3.95 7.85 3.65 7.9 3.95 7.85 4.0 7.85 4.9 7.75 4.95 7.75 M-19.9 -0.75 L-19.9 -0.8 Q-19.1 -2.5 -16.1 -3.65 -19.1 -2.5 -19.9 -0.8 L-19.9 -0.75 M-5.6 -6.1 L-10.85 -5.2 -11.2 -5.1 -11.3 -5.1 -11.35 -5.05 -11.3 -5.1 -11.2 -5.1 -10.85 -5.2 -5.6 -6.1 M-1.6 8.35 L-3.7 8.4 -7.15 8.05 -9.55 7.7 -9.6 7.7 -9.55 7.7 -7.15 8.05 -3.7 8.4 -1.6 8.35 M-20.0 2.75 L-18.9 3.35 -20.0 2.75" fill="#917045" fill-rule="evenodd" stroke="none"/>
      <path d="M-21.5 1.65 Q-22.15 0.9 -22.1 -0.1 L-22.1 -0.2 -22.1 -0.35 -22.1 -0.4 -21.85 -0.6 -20.65 -0.85 -19.9 -0.75 -19.95 -0.65 -20.0 -0.25 -20.1 0.05 -20.0 0.3 -20.1 0.05 -20.0 -0.25 -19.95 -0.65 -19.9 -0.75 -19.85 -0.75 -19.9 -0.6 -19.95 -0.2 -20.05 0.1 -20.0 0.3 -19.9 0.4 -19.85 0.5 -19.55 0.75 -18.85 1.1 -18.25 1.45 -17.85 1.65 -18.3 1.65 -19.45 2.25 -20.0 2.75 -20.55 2.5 -20.55 2.45 -20.6 2.45 -21.5 1.65 -20.6 2.4 -20.6 2.45 -20.6 2.4 -21.5 1.65 M-17.8 -5.05 Q-15.9 -6.0 -13.05 -6.7 -13.0 -6.15 -12.55 -5.75 L-11.35 -5.05 -15.85 -3.8 -16.05 -3.7 -16.1 -3.65 -16.05 -3.7 -15.85 -3.8 -11.35 -5.05 -11.25 -5.05 Q-13.95 -4.5 -15.8 -3.75 L-16.0 -3.65 -16.1 -3.65 -17.15 -4.1 Q-17.75 -4.5 -17.8 -5.05 M-6.55 -7.9 L0.25 -8.45 0.15 -7.65 0.2 -7.15 0.3 -6.5 0.3 -6.45 -5.0 -6.1 -5.55 -6.05 -5.6 -6.1 -5.05 -6.15 0.25 -6.5 0.3 -6.5 0.25 -6.5 -5.05 -6.15 -5.6 -6.1 -6.35 -6.85 -6.6 -7.6 -6.55 -7.9 M0.8 -8.45 L1.15 -8.45 4.75 -8.25 7.75 -8.05 9.75 -7.95 9.45 -7.6 Q8.85 -6.8 8.85 -6.3 L8.9 -6.05 8.85 -6.05 7.65 -6.1 7.6 -6.1 4.55 -6.3 1.1 -6.5 0.9 -6.5 1.1 -6.5 4.55 -6.3 7.6 -6.1 7.65 -6.1 8.85 -6.05 8.9 -6.05 8.9 -6.0 7.7 -6.05 7.65 -6.05 4.6 -6.25 1.15 -6.45 0.9 -6.45 0.9 -6.5 0.85 -6.65 0.75 -7.1 0.7 -7.9 0.8 -8.45 M10.7 -7.85 L11.0 -7.85 13.8 -7.35 13.85 -7.35 13.85 -7.4 15.5 -7.0 14.65 -6.3 14.0 -5.35 13.95 -5.35 13.45 -5.45 12.75 -5.6 10.7 -5.9 9.8 -6.0 10.7 -5.9 12.75 -5.6 13.45 -5.45 13.95 -5.35 14.0 -5.35 14.0 -5.3 13.5 -5.4 12.8 -5.55 10.75 -5.85 9.8 -5.95 9.8 -6.0 9.8 -6.05 9.8 -6.15 Q9.85 -7.25 10.7 -7.85 M20.6 -4.4 L20.65 -4.35 20.7 -4.3 20.75 -4.3 21.25 -3.75 Q22.2 -2.7 22.1 -1.9 L22.1 -1.55 22.05 -1.3 22.05 -1.25 Q21.4 0.4 20.75 1.3 L20.8 1.15 20.8 0.45 Q20.8 -0.55 20.3 -1.1 L20.0 -1.45 20.15 -1.8 20.0 -1.6 20.1 -1.85 20.05 -1.75 20.1 -1.85 20.0 -1.6 19.95 -1.55 19.95 -1.6 20.05 -1.75 20.1 -1.9 20.05 -2.0 19.3 -2.85 19.3 -2.9 19.25 -2.95 19.0 -3.2 18.35 -3.75 19.0 -3.2 18.35 -3.75 18.8 -4.0 19.6 -4.3 20.25 -4.45 20.6 -4.4 M18.85 3.45 L17.1 4.45 17.15 4.35 18.8 3.4 18.85 3.35 18.8 3.4 17.15 4.35 Q17.55 3.5 17.55 2.65 L17.5 1.9 17.5 1.8 17.8 1.5 17.75 1.55 18.35 0.95 18.45 1.2 Q18.85 2.2 18.85 3.2 L18.85 3.35 18.85 3.45 M11.3 6.7 L4.95 7.8 4.95 7.75 11.25 6.65 11.3 6.65 11.25 6.65 4.95 7.75 5.4 6.75 5.5 6.55 6.3 5.6 6.55 5.55 11.55 4.55 11.4 5.15 Q11.25 5.7 11.25 6.15 L11.3 6.65 11.3 6.7 M3.65 7.95 L-1.55 8.4 -1.6 8.35 3.6 7.9 3.65 7.9 3.65 7.95 M-9.6 7.75 L-12.45 7.0 Q-14.55 6.35 -15.15 5.85 L-12.5 6.95 -9.65 7.7 -9.6 7.7 -9.6 7.75 M-20.0 2.75 L-20.05 2.7 -20.55 2.5 -20.05 2.7 -20.0 2.75 M21.25 -3.75 Q22.15 -2.7 22.05 -1.95 L22.0 -1.35 22.1 -1.55 22.0 -1.3 20.8 1.15 22.0 -1.3 22.1 -1.55 22.0 -1.35 22.05 -1.95 Q22.15 -2.7 21.25 -3.75 M-14.1 4.3 L-13.9 4.4 -13.65 4.5 -11.85 5.1 -9.2 5.75 -9.15 5.8 -8.0 5.95 Q-8.45 6.2 -8.85 6.6 L-9.3 7.15 -9.6 7.7 -9.65 7.7 -12.5 6.95 -15.15 5.85 -15.25 5.5 Q-15.25 4.7 -14.75 4.45 L-14.1 4.3 M-0.65 6.35 L3.8 5.9 4.85 5.8 Q4.35 6.15 4.0 6.8 L3.95 6.85 3.65 7.9 3.6 7.9 -1.6 8.35 -1.65 8.1 -1.4 7.35 -1.2 7.0 -0.65 6.35 M21.4 -0.25 L21.4 -0.2 21.45 -0.3 21.4 -0.25" fill="#af8358" fill-rule="evenodd" stroke="none"/>
      <path d="M13.8 -7.4 L13.75 -7.4 10.95 -7.9 10.65 -7.9 9.7 -8.0 7.7 -8.1 4.7 -8.3 1.1 -8.5 0.75 -8.5 0.2 -8.5 -6.6 -7.95 -11.65 -7.05 -13.1 -6.75 Q-15.95 -6.05 -17.85 -5.1 -21.45 -3.45 -22.0 -1.0 L-22.05 -0.85 -22.15 -0.45 -22.15 -0.4 -22.15 -0.25 -22.15 -0.15 Q-22.2 0.9 -21.5 1.65 L-20.6 2.4 -20.6 2.45 M13.8 -7.4 L13.75 -7.45 13.8 -7.45 15.45 -7.05 17.55 -6.3 18.9 -5.7 19.65 -5.25 20.55 -4.45 20.6 -4.4 20.65 -4.35 20.7 -4.35 21.25 -3.75 M22.1 -1.55 L22.1 -1.6 22.1 -1.55 22.0 -1.35 22.05 -1.95 Q22.15 -2.7 21.25 -3.75 M-15.85 5.35 Q-16.3 5.05 -16.8 4.8 L-16.85 4.75 -18.55 3.6 -18.9 3.35 -20.0 2.75 M-20.55 2.5 L-20.6 2.45 M-20.55 2.5 L-20.05 2.7 -20.0 2.75 M-19.85 0.5 L-19.9 0.4 M-20.0 0.3 L-20.1 0.05 -20.0 -0.25 -19.95 -0.65 -19.9 -0.75 M0.9 -6.5 L1.1 -6.5 4.55 -6.3 7.6 -6.1 7.65 -6.1 8.85 -6.05 8.9 -6.05 9.75 -6.0 9.8 -6.0 10.7 -5.9 12.75 -5.6 13.45 -5.45 13.95 -5.35 14.0 -5.35 Q15.5 -5.0 18.05 -3.9 L18.1 -3.85 18.2 -3.85 18.3 -3.8 18.35 -3.75 19.0 -3.2 19.25 -2.95 19.25 -2.9 20.0 -2.05 20.05 -2.0 20.05 -1.95 19.9 -1.65 19.8 -1.5 20.05 -1.75 20.1 -1.85 20.0 -1.6 19.95 -1.5 18.85 0.25 18.75 0.35 18.7 0.4 18.3 0.9 17.75 1.45 17.7 1.5 17.45 1.75 15.55 2.9 12.05 4.35 12.05 4.3 11.65 4.45 11.5 4.5 6.5 5.5 6.25 5.55 5.15 5.7 4.8 5.75 3.75 5.85 -0.7 6.3 -3.7 6.4 -6.85 6.05 -8.05 5.9 -9.2 5.75 -9.25 5.7 -11.9 5.05 -13.7 4.45 -13.95 4.35 -14.15 4.25 -15.7 3.3 -16.7 2.6 M0.9 -6.5 L0.85 -6.5 0.4 -6.5 0.3 -6.5 0.25 -6.5 -5.05 -6.15 -5.6 -6.1 M-20.0 0.3 L-19.95 0.35 -19.9 0.4 M20.8 1.15 L22.0 -1.3 22.1 -1.55 M20.8 1.15 L20.7 1.25 20.35 1.7 19.1 3.1 18.85 3.35 18.8 3.4 17.15 4.35 17.05 4.4 16.4 4.7 16.35 4.75 12.8 6.2 12.75 6.2 11.3 6.65 11.25 6.65 4.95 7.75 M3.65 7.9 L3.95 7.85 4.0 7.85 4.9 7.75 4.95 7.75 M-1.6 8.35 L3.6 7.9 3.65 7.9 M-11.35 -5.05 L-15.85 -3.8 -16.05 -3.7 -16.1 -3.65 Q-19.1 -2.5 -19.9 -0.8 L-19.9 -0.75 M-11.35 -5.05 L-11.3 -5.1 -11.2 -5.1 -10.85 -5.2 -5.6 -6.1 M-9.6 7.7 L-9.55 7.7 -7.15 8.05 -3.7 8.4 -1.6 8.35 M-15.15 5.85 L-12.5 6.95 -9.65 7.7 -9.6 7.7 M-15.15 5.85 L-15.25 5.75 -15.85 5.35 M-17.8 1.7 L-17.4 2.05 -17.35 2.1 -16.95 2.4 -16.7 2.6 M-17.8 1.7 L-17.9 1.6 -18.3 1.4 -18.9 1.05 -19.55 0.75 -19.6 0.7 -19.85 0.5" fill="none" stroke="#000000" stroke-linecap="round" stroke-linejoin="round" stroke-opacity="0.3019608" stroke-width="0.05"/>
      <path d="M20.75 -4.3 Q22.2 -2.85 22.1 -1.9 L22.05 -1.3 22.05 -1.25 Q21.4 0.4 20.75 1.3 L20.4 1.75 19.15 3.15 18.85 3.45 17.1 4.45 16.45 4.75 16.4 4.8 12.85 6.25 12.8 6.25 11.3 6.7 4.95 7.8 4.05 7.9 4.0 7.9 3.65 7.95 -1.55 8.4 -3.65 8.45 -7.1 8.1 -9.5 7.75 -9.6 7.75 -12.45 7.0 Q-14.55 6.35 -15.15 5.85 L-14.4 6.1 -11.55 6.85 -11.45 6.85 -9.3 7.15 -9.05 7.2 -5.6 7.55 -3.5 7.5 -1.4 7.35 1.7 7.05 2.05 7.0 2.1 7.0 3.0 6.9 4.0 6.8 5.5 6.55 9.35 5.8 10.85 5.35 10.9 5.35 11.4 5.15 14.45 3.9 14.5 3.85 15.15 3.55 16.9 2.55 17.2 2.25 17.5 1.9 18.35 0.95 18.45 0.85 18.75 0.45 18.8 0.4 18.9 0.3 20.0 -1.45 20.15 -1.8 19.95 -1.55 19.95 -1.6 20.1 -1.9 20.05 -2.0 20.1 -2.2 20.15 -2.8 Q20.2 -3.45 19.6 -4.3 L18.8 -5.2 17.6 -6.25 18.95 -5.65 20.6 -4.4 20.7 -4.3 20.75 -4.3 M21.45 -0.3 L21.4 -0.25 21.4 -0.2 21.45 -0.3" fill="#000000" fill-opacity="0.3019608" fill-rule="evenodd" stroke="none"/>
      <path d="M0.85 -7.1 L1.1 -7.1 4.5 -6.75 7.55 -6.4 7.6 -6.4 8.8 -6.3 9.7 -6.2 9.75 -6.15 10.65 -6.0 12.75 -5.55 10.7 -5.85 9.75 -5.95 8.85 -6.0 7.65 -6.05 7.6 -6.05 4.55 -6.25 1.1 -6.45 0.85 -6.45 0.4 -6.45 0.25 -6.45 -5.05 -6.1 -5.6 -6.05 -10.85 -5.15 -11.2 -5.05 -11.3 -5.05 -15.85 -3.75 -16.05 -3.65 Q-19.1 -2.45 -19.9 -0.75 L-19.95 -0.6 -20.0 -0.2 -20.1 0.1 -19.95 0.4 -20.0 0.4 Q-20.45 0.1 -20.45 -0.4 L-20.35 -0.75 -20.3 -0.8 -20.25 -1.2 -20.2 -1.35 Q-19.5 -2.95 -17.2 -4.1 L-16.2 -4.55 -16.0 -4.65 -12.6 -5.75 -11.4 -6.0 -11.3 -6.0 -10.95 -6.1 -6.4 -6.85 -5.65 -6.95 -5.1 -6.95 0.15 -7.15 0.25 -7.15 0.4 -7.15 0.7 -7.1 0.85 -7.1" fill="#000000" fill-opacity="0.3019608" fill-rule="evenodd" stroke="none"/>
    </g>
    <g id="shape4" transform="matrix(1.0, 0.0, 0.0, 1.0, 18.55, 13.85)">
      <path d="M-9.15 -12.6 Q-8.9 -8.6 -6.35 -6.35 -5.35 -5.5 -4.3 -5.1 L-5.1 -5.0 -9.5 -4.3 -10.1 -4.15 -12.95 -3.4 -18.1 -7.1 -18.5 -8.2 Q-18.7 -9.15 -18.2 -10.55 L-17.3 -11.1 Q-14.85 -12.9 -9.15 -13.85 L-9.15 -12.6" fill="#000000" fill-opacity="0.3019608" fill-rule="evenodd" stroke="none"/>
    </g>
    <g id="shape5" transform="matrix(1.0, 0.0, 0.0, 1.0, 21.55, 16.15)">
      <path d="M10.8 -15.3 L13.55 -14.85 13.6 -14.85 13.55 -14.9 13.6 -14.9 13.7 -14.9 15.2 -14.5 17.2 -13.75 18.15 -13.35 18.5 -13.25 18.55 -13.2 18.7 -13.15 19.15 -12.85 20.1 -12.0 20.2 -11.9 20.25 -11.9 20.5 -11.6 20.65 -11.45 20.75 -11.35 Q21.7 -10.3 21.6 -9.55 L21.6 -9.25 21.6 -9.2 21.6 -9.1 21.55 -8.95 21.65 -9.2 21.55 -8.9 21.25 -8.2 21.3 -0.15 21.25 -0.1 21.1 -0.05 Q18.5 0.85 15.85 4.05 9.25 8.85 5.4 15.95 L4.25 16.55 1.65 17.5 0.15 17.9 -0.25 17.95 Q-3.4 18.45 -5.9 17.3 L-8.25 15.9 Q-10.3 13.95 -11.25 12.15 L-11.55 10.65 -11.9 9.6 -11.75 9.75 Q-12.7 5.8 -14.2 3.9 -16.1 1.45 -19.85 -0.85 -20.5 -2.85 -20.3 -5.7 L-20.7 -6.1 Q-21.35 -6.85 -21.3 -7.8 L-21.3 -7.9 -21.3 -8.05 -21.3 -8.1 -21.2 -8.5 -21.15 -8.6 Q-20.85 -9.95 -19.55 -11.05 L-19.5 -11.2 -19.5 -11.3 -18.5 -11.9 -18.1 -12.15 Q-15.45 -13.85 -9.8 -14.85 L-9.8 -14.75 -6.2 -15.35 0.4 -15.9 0.95 -15.9 1.25 -15.9 4.75 -15.7 7.65 -15.5 9.6 -15.4 10.55 -15.3 10.8 -15.3 M6.25 -2.25 L6.5 -2.3 11.35 -3.3 11.5 -3.35 11.9 -3.5 11.9 -3.45 14.2 -4.35 14.1 -4.4 12.0 -4.85 9.15 -4.3 Q7.05 -3.6 5.8 -2.25 L5.75 -2.2 6.25 -2.25 M0.3 -2.5 Q-1.3 -5.4 -4.95 -5.4 L-5.05 -5.4 -5.45 -5.35 -5.5 -5.35 -6.25 -5.25 -7.2 -5.1 -10.15 -4.6 -10.65 -4.5 -10.8 -4.45 -13.75 -3.65 -13.5 -3.55 -13.35 -3.45 -13.1 -3.35 -11.35 -2.75 -8.75 -2.1 -8.7 -2.1 -8.55 -2.05 -7.6 -1.95 -6.45 -1.8 -3.4 -1.45 -0.5 -1.55 0.75 -1.65 0.7 -1.7 0.3 -2.5" fill="none" stroke="#000000" stroke-linecap="round" stroke-linejoin="round" stroke-opacity="0.3019608" stroke-width="0.5"/>
    </g>
  </defs>
</svg>
