<?xml version="1.0" encoding="UTF-8" standalone="no"?>
<svg xmlns:xlink="http://www.w3.org/1999/xlink" height="440.0px" width="440.0px" xmlns="http://www.w3.org/2000/svg">
  <g transform="matrix(10.0, 0.0, 0.0, 10.0, 0.0, 0.0)">
    <use height="44.0" transform="matrix(1.0, 0.0, 0.0, 1.0, -0.2, 0.0)" width="44.2" xlink:href="#shape0"/>
    <use height="65.0" transform="matrix(-0.1949, -0.0181, 0.0157, -0.0795, 20.224, 26.5733)" width="65.0" xlink:href="#sprite0"/>
    <use height="65.0" transform="matrix(-0.1949, -0.0181, 0.0157, -0.0795, 15.474, 19.0233)" width="65.0" xlink:href="#sprite0"/>
    <use height="65.0" transform="matrix(-0.1549, 0.1289, -0.0435, -0.0657, 34.9963, 10.7454)" width="65.0" xlink:href="#sprite0"/>
    <use height="65.0" transform="matrix(-0.1207, -0.1545, 0.0656, -0.0467, 37.7912, 26.4901)" width="65.0" xlink:href="#sprite0"/>
    <use height="27.35" transform="matrix(1.0, 0.0, 0.0, 1.0, 2.75, 7.35)" width="32.3" xlink:href="#shape2"/>
  </g>
  <defs>
    <g id="shape0" transform="matrix(1.0, 0.0, 0.0, 1.0, 0.2, 0.0)">
      <path d="M44.0 44.0 L0.0 44.0 0.0 0.0 44.0 0.0 44.0 44.0" fill="#43adca" fill-opacity="0.0" fill-rule="evenodd" stroke="none"/>
      <path d="M37.25 17.6 L40.25 18.65 41.0 19.2 40.65 19.55 40.85 19.8 42.0 21.15 42.4 21.5 41.7 22.9 Q41.2 21.05 39.7 19.65 L40.55 20.9 38.3 20.25 39.4 21.15 38.75 21.15 38.8 20.8 38.5 21.2 36.3 21.25 37.25 17.65 37.25 17.6 M41.65 23.15 L41.7 23.2 41.65 23.2 41.65 23.15 41.65 23.2 41.7 23.2 41.85 23.65 40.8 22.7 40.15 21.75 41.65 23.15" fill="#c9d9d5" fill-rule="evenodd" stroke="none"/>
      <path d="M37.25 17.65 L36.3 21.25 38.5 21.2 Q37.75 22.3 37.8 23.75 L38.2 25.15 38.75 24.45 40.35 24.55 38.4 22.7 38.75 21.15 39.4 21.15 38.3 20.25 40.55 20.9 39.7 19.65 Q41.2 21.05 41.7 22.9 L41.35 22.85 41.65 23.15 40.15 21.75 40.8 22.7 41.85 23.65 41.7 23.2 41.9 23.55 42.9 25.45 42.05 25.75 42.05 25.7 40.8 25.3 40.35 25.3 41.05 25.95 40.9 26.05 42.1 27.15 42.6 28.1 42.05 28.15 41.1 27.4 40.15 27.05 40.85 28.05 41.5 30.35 39.65 28.4 39.55 31.55 39.15 30.3 39.5 32.35 38.1 30.5 37.85 31.3 Q37.0 29.35 35.9 28.05 L35.85 28.0 Q37.85 30.4 38.55 30.8 L37.55 28.9 38.25 29.2 37.8 28.55 39.25 28.1 Q37.8 27.6 36.7 26.45 L37.65 25.45 Q36.25 24.4 34.95 24.1 L35.2 26.25 34.4 26.1 35.55 27.65 35.15 27.2 33.05 26.15 32.3 22.15 34.5 18.65 Q35.1 18.35 36.15 18.0 L37.25 17.65" fill="#acbab7" fill-rule="evenodd" stroke="none"/>
      <path d="M38.5 21.2 L38.8 20.8 38.75 21.15 38.4 22.7 40.35 24.55 38.75 24.45 38.2 25.15 37.8 23.75 Q37.75 22.3 38.5 21.2 M41.95 25.75 L41.55 25.85 41.5 25.9 41.5 25.95 42.1 27.1 42.1 27.15 40.9 26.05 41.05 25.95 40.35 25.3 40.8 25.3 42.05 25.7 41.95 25.75 M42.05 28.15 L41.8 28.1 40.85 28.05 40.15 27.05 41.1 27.4 42.05 28.15 M35.85 28.0 L35.75 27.9 35.7 27.75 35.6 27.7 35.55 27.65 34.4 26.1 35.2 26.25 34.95 24.1 Q36.25 24.4 37.65 25.45 L36.7 26.45 Q37.8 27.6 39.25 28.1 L37.8 28.55 38.25 29.2 37.55 28.9 38.55 30.8 Q37.85 30.4 35.85 28.0" fill="#909c9a" fill-rule="evenodd" stroke="none"/>
      <path d="M42.05 25.75 L41.95 25.75 42.05 25.7 42.05 25.75" fill="#956f99" fill-rule="evenodd" stroke="none"/>
      <path d="M41.7 22.9 L42.4 21.5 42.0 21.15 40.85 19.8 40.65 19.55 41.0 19.2 40.25 18.65 37.25 17.6 M41.7 22.9 L41.35 22.85 41.65 23.15 41.7 23.2 41.9 23.55 42.9 25.45 42.05 25.75 41.95 25.75 41.55 25.85 41.5 25.9 41.5 25.95 42.1 27.1 M42.1 27.15 L42.6 28.1 42.05 28.15 41.8 28.1 40.85 28.05 41.5 30.35 39.65 28.4 39.55 31.55 39.15 30.3 39.5 32.35 38.1 30.5 37.85 31.3 Q37.0 29.35 35.9 28.05 L35.85 28.0 35.75 27.9 35.7 27.75 35.6 27.7 35.55 27.65 35.15 27.2 33.05 26.15 32.3 22.15 34.5 18.65 Q35.1 18.35 36.15 18.0 L37.25 17.65 M41.7 23.2 L41.65 23.2 41.65 23.15" fill="none" stroke="#000000" stroke-linecap="round" stroke-linejoin="round" stroke-opacity="0.3019608" stroke-width="0.30000000000000004"/>
      <path d="M37.95 16.05 L38.05 16.65 37.9 16.65 37.95 16.05" fill="#595235" fill-rule="evenodd" stroke="none"/>
      <path d="M24.35 12.85 L25.45 12.75 27.95 12.6 31.3 12.7 32.85 12.9 33.35 12.95 33.95 14.25 31.3 13.85 30.7 13.8 Q28.1 13.65 25.45 13.85 L24.35 12.85 M6.85 18.75 L7.3 18.35 9.65 16.85 Q11.1 16.1 12.75 15.45 L15.15 14.65 15.55 15.8 12.75 16.9 11.6 17.45 9.6 18.5 9.05 18.85 6.85 18.75" fill="#7a6f49" fill-rule="evenodd" stroke="none"/>
      <path d="M35.0 17.5 Q34.25 18.5 32.35 19.25 30.5 19.95 31.05 20.05 L29.1 20.1 30.1 16.65 23.8 15.4 25.45 13.85 23.8 15.4 19.25 19.75 15.55 18.75 19.25 19.75 22.95 20.8 22.3 20.85 Q17.85 21.65 14.4 22.95 L13.9 23.15 10.85 22.9 Q9.25 22.6 8.55 22.15 7.95 21.8 7.6 21.0 L7.5 20.7 Q7.3 20.05 9.05 18.85 L13.15 22.0 15.55 18.75 15.55 15.8 Q17.6 15.0 19.75 14.6 L21.05 14.35 23.45 14.0 25.45 13.85 Q28.1 13.65 30.7 13.8 L31.3 13.85 33.95 14.25 32.85 14.9 35.0 17.5 M32.85 14.9 L30.1 16.65 32.85 14.9 M14.4 22.95 L13.15 22.0 14.4 22.95" fill="#262216" fill-rule="evenodd" stroke="none"/>
      <path d="M35.35 16.75 L35.0 17.5 32.85 14.9 33.95 14.25 Q35.3 14.55 35.5 15.25 35.65 16.1 35.35 16.75 M29.1 20.1 L22.95 20.8 19.25 19.75 23.8 15.4 30.1 16.65 29.1 20.1 M9.05 18.85 L9.6 18.5 11.6 17.45 12.75 16.9 15.55 15.8 15.55 18.75 13.15 22.0 9.05 18.85" fill="#302a1b" fill-rule="evenodd" stroke="none"/>
      <path d="M33.35 12.95 Q36.3 13.5 37.35 14.75 37.85 15.25 37.95 16.0 L37.95 16.05 37.9 16.65 35.35 16.75 Q35.65 16.1 35.5 15.25 35.3 14.55 33.95 14.25 L33.35 12.95 M7.6 21.0 L5.35 21.1 Q5.35 20.65 5.6 20.25 5.95 19.5 6.85 18.75 L9.05 18.85 Q7.3 20.05 7.5 20.7 L7.6 21.0 M15.15 14.65 Q17.25 14.0 19.75 13.5 L21.2 13.3 23.45 12.95 24.35 12.85 25.45 13.85 23.45 14.0 21.05 14.35 19.75 14.6 Q17.6 15.0 15.55 15.8 L15.15 14.65" fill="#756946" fill-rule="evenodd" stroke="none"/>
      <path d="M24.35 12.85 L25.45 12.75 27.95 12.6 31.3 12.7 32.85 12.9 33.35 12.95 Q36.3 13.5 37.35 14.75 37.85 15.25 37.95 16.0 L37.95 16.05 38.05 16.65 M31.05 20.05 L29.1 20.1 22.95 20.8 22.3 20.85 Q17.85 21.65 14.4 22.95 L13.9 23.15 M5.35 21.1 Q5.35 20.65 5.6 20.25 5.95 19.5 6.85 18.75 L7.3 18.35 9.65 16.85 Q11.1 16.1 12.75 15.45 L15.15 14.65 Q17.25 14.0 19.75 13.5 L21.2 13.3 23.45 12.95 24.35 12.85" fill="none" stroke="#000000" stroke-linecap="round" stroke-linejoin="round" stroke-opacity="0.3019608" stroke-width="0.5"/>
      <path d="M24.35 12.85 L25.45 13.85 23.8 15.4 30.1 16.65 32.85 14.9 33.95 14.25 33.35 12.95 M32.85 14.9 L35.0 17.5 M30.1 16.65 L29.1 20.1 M9.05 18.85 L6.85 18.75 M15.55 15.8 L15.15 14.65 M15.55 18.75 L19.25 19.75 23.8 15.4 M15.55 15.8 L15.55 18.75 13.15 22.0 14.4 22.95 M9.05 18.85 L13.15 22.0 M19.25 19.75 L22.95 20.8" fill="none" stroke="#000000" stroke-linecap="round" stroke-linejoin="round" stroke-opacity="0.3019608" stroke-width="0.05"/>
      <path d="M27.5 17.9 L28.15 18.85 29.15 19.65 30.6 19.7 30.35 20.9 30.0 21.75 Q28.65 22.35 28.4 22.0 28.1 21.65 27.9 20.4 L27.5 17.9" fill="#996b0f" fill-rule="evenodd" stroke="none"/>
      <path d="M30.6 19.7 L29.15 19.65 28.15 18.85 27.5 17.9 27.55 17.8 Q27.25 15.7 28.55 12.9 28.75 14.9 29.85 17.1 29.85 17.7 30.15 18.75 L30.6 19.7" fill="#ad7910" fill-rule="evenodd" stroke="none"/>
      <path d="M29.85 17.1 Q28.75 14.9 28.55 12.9 L28.55 12.85 Q29.95 11.05 30.9 10.7 31.45 10.75 31.5 11.65 31.65 12.6 31.3 13.1 29.75 14.4 29.85 17.1" fill="#cc951a" fill-rule="evenodd" stroke="none"/>
      <path d="M30.9 10.7 Q31.05 10.4 31.9 10.4 33.4 10.25 34.1 11.5 34.8 12.65 33.8 13.5 32.95 12.75 31.3 13.1 31.65 12.6 31.5 11.65 31.45 10.75 30.9 10.7" fill="#bd8812" fill-rule="evenodd" stroke="none"/>
      <path d="M27.5 17.9 L28.15 18.85 29.15 19.65 30.6 19.7 30.15 18.75 Q29.85 17.7 29.85 17.1 28.75 14.9 28.55 12.9 27.25 15.7 27.55 17.8 L27.5 17.9 27.9 20.4 Q28.1 21.65 28.4 22.0 M28.55 12.9 L28.55 12.85 Q29.95 11.05 30.9 10.7 31.05 10.4 31.9 10.4 33.4 10.25 34.1 11.5 34.8 12.65 33.8 13.5 32.95 12.75 31.3 13.1 29.75 14.4 29.85 17.1 M30.9 10.7 Q31.45 10.75 31.5 11.65 31.65 12.6 31.3 13.1" fill="none" stroke="#000000" stroke-linecap="round" stroke-linejoin="round" stroke-opacity="0.3019608" stroke-width="0.30000000000000004"/>
      <path d="M4.6 36.85 L4.55 36.85 4.7 35.1 4.7 34.95 4.6 35.0 Q4.65 34.9 4.75 34.95 L5.25 34.75 5.25 34.7 5.4 34.7 5.45 34.7 5.75 34.55 4.6 36.85 M2.4 33.15 L2.55 32.7 2.5 32.65 2.55 32.55 2.8 31.9 Q3.2 31.05 3.95 30.1 L3.85 30.8 2.45 33.2 2.4 33.15 M1.35 31.85 L1.25 32.05 1.1 31.85 -0.05 31.8 0.4 31.1 0.45 31.05 1.45 28.8 1.6 28.35 0.85 28.5 2.15 27.05 3.8 25.75 Q4.35 25.2 5.15 24.95 L5.4 24.85 5.4 24.9 8.7 27.0 5.85 28.4 5.2 28.25 5.6 28.55 4.6 29.0 5.6 27.55 2.75 29.65 3.2 27.9 Q1.65 30.25 1.35 31.85" fill="#c9d9d5" fill-rule="evenodd" stroke="none"/>
      <path d="M12.95 30.05 L11.85 28.4 Q10.7 29.45 9.65 31.3 L11.4 31.4 Q10.95 33.05 9.5 34.85 L11.5 33.95 11.5 34.85 12.1 33.9 12.25 36.55 Q12.75 35.55 13.25 31.85 L13.6 29.45 12.95 30.05 M5.4 24.9 L8.9 24.3 9.3 24.3 15.25 28.35 13.5 30.8 13.3 31.9 Q13.05 33.95 13.4 36.35 L12.6 35.8 12.2 38.9 11.15 36.7 11.4 38.35 9.25 35.45 7.9 39.35 Q7.35 38.25 7.25 36.45 L7.55 34.75 6.35 35.95 5.4 37.9 4.6 38.5 4.6 36.85 5.75 34.55 5.45 34.7 5.4 34.7 5.95 33.4 Q5.8 33.35 5.45 33.75 L3.65 35.4 3.65 35.45 2.0 36.1 Q2.1 34.25 2.4 33.2 L2.4 33.15 2.45 33.2 3.85 30.8 3.95 30.1 Q3.2 31.05 2.8 31.9 L1.35 31.85 Q1.65 30.25 3.2 27.9 L2.75 29.65 5.6 27.55 4.6 29.0 5.6 28.55 7.0 29.5 5.5 32.75 7.75 31.3 8.85 31.4 8.4 30.0 Q7.6 28.8 5.85 28.4 L8.7 27.0 5.4 24.9 M2.55 32.5 L2.8 31.9 2.55 32.55 2.55 32.5" fill="#acbab7" fill-rule="evenodd" stroke="none"/>
      <path d="M12.95 30.05 L13.6 29.45 13.25 31.85 Q12.75 35.55 12.25 36.55 L12.1 33.9 11.5 34.85 11.5 33.95 9.5 34.85 Q10.95 33.05 11.4 31.4 L9.65 31.3 Q10.7 29.45 11.85 28.4 L12.95 30.05 M7.25 36.45 L5.4 37.9 6.35 35.95 7.55 34.75 7.25 36.45 M4.6 35.0 L3.7 35.4 3.65 35.4 5.45 33.75 Q5.8 33.35 5.95 33.4 L5.4 34.7 5.25 34.7 5.25 34.75 4.75 34.95 Q4.65 34.9 4.6 35.0 M5.85 28.4 Q7.6 28.8 8.4 30.0 L8.85 31.4 7.75 31.3 5.5 32.75 7.0 29.5 5.6 28.55 5.2 28.25 5.85 28.4" fill="#909c9a" fill-rule="evenodd" stroke="none"/>
      <path d="M3.7 35.4 L3.65 35.45 3.65 35.4 3.7 35.4" fill="#956f99" fill-rule="evenodd" stroke="none"/>
      <path d="M2.5 32.65 L2.55 32.5 2.55 32.55 2.5 32.65" fill="#f2e8e0" fill-rule="evenodd" stroke="none"/>
      <path d="M5.4 24.9 L8.9 24.3 9.3 24.3 15.25 28.35 13.5 30.8 13.3 31.9 Q13.05 33.95 13.4 36.35 L12.6 35.8 12.2 38.9 11.15 36.7 11.4 38.35 9.25 35.45 7.9 39.35 Q7.35 38.25 7.25 36.45 L5.4 37.9 4.6 38.5 4.6 36.85 M4.55 36.85 L4.7 35.1 4.7 34.95 4.6 35.0 3.7 35.4 3.65 35.45 2.0 36.1 Q2.1 34.25 2.4 33.2 L2.4 33.15 2.55 32.7 2.5 32.65 2.55 32.5 2.8 31.9 1.35 31.85 1.25 32.05 1.1 31.85 -0.05 31.8 0.4 31.1 0.45 31.05 1.45 28.8 1.6 28.35 0.85 28.5 2.15 27.05 3.8 25.75 Q4.35 25.2 5.15 24.95" fill="none" stroke="#000000" stroke-linecap="round" stroke-linejoin="round" stroke-opacity="0.3019608" stroke-width="0.30000000000000004"/>
      <path d="M14.2 21.95 L13.75 24.45 13.3 26.1 11.65 25.95 11.35 25.15 11.1 24.0 12.55 23.85 13.5 22.95 14.2 21.95" fill="#996b0f" fill-rule="evenodd" stroke="none"/>
      <path d="M13.15 17.0 Q14.45 19.65 14.15 21.9 L14.2 21.95 13.5 22.95 12.55 23.85 11.1 24.0 11.55 22.95 11.8 21.3 Q12.95 19.0 13.15 17.0" fill="#ad7910" fill-rule="evenodd" stroke="none"/>
      <path d="M10.8 15.0 Q11.7 15.25 13.15 16.95 L13.15 17.0 Q12.95 19.0 11.8 21.3 11.9 18.55 10.35 17.4 10.0 16.85 10.15 15.95 10.2 15.05 10.8 15.0" fill="#cc951a" fill-rule="evenodd" stroke="none"/>
      <path d="M10.35 17.4 Q8.75 17.15 7.9 18.0 6.9 17.2 7.6 15.95 8.25 14.7 9.8 14.7 10.65 14.65 10.8 15.0 10.2 15.05 10.15 15.95 10.0 16.85 10.35 17.4" fill="#bd8812" fill-rule="evenodd" stroke="none"/>
      <path d="M10.35 17.4 Q8.75 17.15 7.9 18.0 6.9 17.2 7.6 15.95 8.25 14.7 9.8 14.7 10.65 14.65 10.8 15.0 11.7 15.25 13.15 16.95 L13.15 17.0 Q14.45 19.65 14.15 21.9 L14.2 21.95 13.75 24.45 13.3 26.1 M11.1 24.0 L11.55 22.95 11.8 21.3 Q11.9 18.55 10.35 17.4 10.0 16.85 10.15 15.95 10.2 15.05 10.8 15.0 M13.15 17.0 Q12.95 19.0 11.8 21.3 M14.2 21.95 L13.5 22.95 12.55 23.85 11.1 24.0" fill="none" stroke="#000000" stroke-linecap="round" stroke-linejoin="round" stroke-opacity="0.3019608" stroke-width="0.30000000000000004"/>
      <path d="M33.9 18.5 L31.95 21.5 Q27.9 23.3 22.5 24.3 L19.5 23.05 22.1 22.65 Q27.0 21.8 31.1 20.05 L31.05 20.05 Q30.5 19.95 32.35 19.25 L33.9 18.5 M6.15 23.25 L5.6 22.6 5.3 21.65 Q5.25 21.4 5.35 21.1 L7.3 20.2 Q7.95 21.8 8.55 22.15 L9.45 22.55 6.15 23.25" fill="#7a6f49" fill-rule="evenodd" stroke="none"/>
      <path d="M31.95 21.5 L31.4 23.1 36.95 21.1 38.6 20.5 39.05 23.35 39.1 23.5 39.1 23.9 39.05 24.35 38.4 23.35 36.95 21.1 38.4 23.35 36.65 27.05 34.85 28.15 30.0 30.3 29.8 27.75 24.25 27.95 19.5 26.05 24.25 27.95 22.5 32.05 16.85 32.7 11.75 32.4 11.15 32.35 12.6 29.9 11.15 32.35 Q7.5 31.7 6.65 30.25 L6.4 28.7 6.2 27.15 12.6 29.9 18.65 26.55 19.5 26.05 20.45 25.5 22.5 24.3 Q27.9 23.3 31.95 21.5 M31.4 23.1 L29.8 27.75 31.4 23.1" fill="#595235" fill-rule="evenodd" stroke="none"/>
      <path d="M37.9 16.65 L38.05 16.65 38.6 20.5 36.95 21.1 31.4 23.1 31.95 21.5 33.8 20.6 34.2 20.4 Q37.55 18.55 37.9 16.65 M22.5 24.3 L20.45 25.5 18.65 26.55 12.6 29.9 6.2 27.15 5.6 22.6 6.15 23.25 Q7.4 24.25 10.5 24.8 L10.65 24.8 22.5 24.3 M24.25 27.95 L29.8 27.75 30.0 30.3 23.6 31.85 22.5 32.05 24.25 27.95 M38.4 23.35 L39.05 24.35 Q38.6 25.65 36.65 27.05 L38.4 23.35" fill="#524b31" fill-rule="evenodd" stroke="none"/>
      <path d="M37.9 16.65 Q37.55 18.55 34.2 20.4 L33.8 20.6 31.95 21.5 33.9 18.5 35.0 17.5 35.6 16.2 37.9 16.65 M19.5 23.05 L22.5 24.3 10.65 24.8 10.5 24.8 Q7.4 24.25 6.15 23.25 L9.45 22.55 10.85 22.9 13.9 23.15 Q16.4 23.4 19.45 23.05 L19.5 23.05" fill="#756946" fill-rule="evenodd" stroke="none"/>
      <path d="M38.6 20.5 L38.05 16.65 M31.05 20.05 L31.1 20.05 Q27.0 21.8 22.1 22.65 L19.5 23.05 M5.6 22.6 L6.2 27.15 M39.05 24.35 L39.1 23.9 39.1 23.5 39.05 23.35 38.6 20.5 M5.35 21.1 Q5.25 21.4 5.3 21.65 L5.6 22.6 M19.45 23.05 Q16.4 23.4 13.9 23.15 M11.15 32.35 L11.75 32.4 16.85 32.7 22.5 32.05 M11.15 32.35 Q7.5 31.7 6.65 30.25 L6.35 29.4 Q6.3 29.0 6.4 28.7 L6.2 27.15 M6.4 28.7 L6.65 30.25 M30.0 30.3 L34.85 28.15 36.65 27.05 M30.0 30.3 L23.6 31.85 22.5 32.05 M39.05 24.35 Q38.6 25.65 36.65 27.05" fill="none" stroke="#000000" stroke-linecap="round" stroke-linejoin="round" stroke-opacity="0.3019608" stroke-width="0.5"/>
      <path d="M31.95 21.5 L31.4 23.1 36.95 21.1 38.6 20.5 M33.9 18.5 L31.95 21.5 M22.5 24.3 L20.45 25.5 19.5 26.05 24.25 27.95 29.8 27.75 31.4 23.1 M19.5 23.05 L22.5 24.3 M6.2 27.15 L12.6 29.9 18.65 26.55 19.5 26.05 M36.95 21.1 L38.4 23.35 39.05 24.35 M6.15 23.25 L9.45 22.55 M19.5 23.05 L19.45 23.05 M22.5 32.05 L24.25 27.95 M12.6 29.9 L11.15 32.35 M29.8 27.75 L30.0 30.3 M36.65 27.05 L38.4 23.35" fill="none" stroke="#000000" stroke-linecap="round" stroke-linejoin="round" stroke-opacity="0.3019608" stroke-width="0.05"/>
      <path d="M32.1 21.4 L33.95 20.5 34.35 20.3 Q37.7 18.45 38.05 16.55 L38.2 16.55 39.2 23.25 39.25 23.4 39.25 23.8 39.2 24.25 Q38.75 25.55 36.8 26.95 L35.0 28.05 Q32.85 29.25 30.15 30.2 27.25 31.15 23.75 31.75 L22.65 31.95 17.0 32.6 11.9 32.3 11.3 32.25 Q7.65 31.6 6.8 30.15 L5.75 22.5 6.3 23.15 Q7.55 24.15 10.65 24.7 L10.8 24.7 22.65 24.2 Q28.05 23.2 32.1 21.4" fill="url(#gradient0)" fill-rule="evenodd" stroke="none"/>
      <path d="M20.7 26.65 Q21.25 25.6 22.2 24.65 L23.9 23.0 Q28.8 22.0 30.1 20.65 31.45 20.65 32.6 21.3 L32.9 21.5 32.6 21.3 32.9 21.45 32.9 21.5 Q29.6 31.05 21.9 33.6 L21.35 33.35 20.7 32.8 20.8 32.75 Q22.55 32.15 24.95 28.9 26.0 26.65 20.7 26.65 M34.45 28.0 L33.2 30.2 Q31.25 32.75 28.35 33.85 L26.95 34.3 Q29.65 29.35 34.45 28.0" fill="#595235" fill-rule="evenodd" stroke="none"/>
      <path d="M23.9 23.0 L20.5 23.9 20.9 23.35 Q23.5 20.3 26.7 19.8 L27.95 19.5 Q30.2 19.6 30.1 20.65 L27.75 21.05 Q25.6 21.65 23.9 23.0 M19.0 26.5 L20.7 26.65 20.55 27.0 Q19.8 28.7 20.0 30.15 20.0 31.65 20.8 32.75 L20.7 32.8 Q18.75 31.4 18.65 29.05 18.5 28.15 18.75 27.45 L19.0 26.5 M32.6 21.3 L30.45 19.55 Q31.3 19.75 32.1 20.25 33.4 20.95 33.95 21.95 L32.9 21.5 32.9 21.45 32.6 21.3" fill="#7a6f49" fill-rule="evenodd" stroke="none"/>
      <path d="M23.9 23.0 Q25.6 21.65 27.75 21.05 L30.1 20.65 Q28.8 22.0 23.9 23.0 M32.9 21.5 L33.95 21.95 Q34.85 23.15 35.0 25.15 35.05 26.5 34.45 28.0 29.65 29.35 26.95 34.3 L25.8 34.5 22.7 34.15 21.9 33.6 Q29.6 31.05 32.9 21.5 M20.8 32.75 Q20.0 31.65 20.0 30.15 19.8 28.7 20.55 27.0 L20.7 26.65 Q26.0 26.65 24.95 28.9 22.55 32.15 20.8 32.75" fill="#4d462e" fill-rule="evenodd" stroke="none"/>
      <path d="M20.5 23.9 L23.9 23.0 22.2 24.65 Q21.25 25.6 20.7 26.65 L19.0 26.5 Q19.5 25.1 20.5 23.9 M30.1 20.65 Q30.2 19.6 27.95 19.5 L29.15 19.45 30.45 19.55 32.6 21.3 Q31.45 20.65 30.1 20.65" fill="#8a7d52" fill-rule="evenodd" stroke="none"/>
      <path d="M27.95 19.5 L26.7 19.8 Q23.5 20.3 20.9 23.35 L20.5 23.9 Q19.5 25.1 19.0 26.5 M30.45 19.55 L29.15 19.45 27.95 19.5 M33.95 21.95 Q33.4 20.95 32.1 20.25 31.3 19.75 30.45 19.55 M20.7 32.8 Q18.75 31.4 18.65 29.05 18.5 28.15 18.75 27.45 L19.0 26.5 M33.95 21.95 Q34.85 23.15 35.0 25.15 35.05 26.5 34.45 28.0 L33.2 30.2 Q31.25 32.75 28.35 33.85 L26.95 34.3 25.8 34.5 22.7 34.15 21.9 33.6 21.35 33.35 20.7 32.8" fill="none" stroke="#000000" stroke-linecap="round" stroke-linejoin="round" stroke-opacity="0.3019608" stroke-width="0.5"/>
      <path d="M20.5 23.9 L23.9 23.0 Q28.8 22.0 30.1 20.65 30.2 19.6 27.95 19.5 M19.0 26.5 L20.7 26.65 Q26.0 26.65 24.95 28.9 22.55 32.15 20.8 32.75 M32.6 21.3 L30.45 19.55 M32.9 21.5 L32.6 21.3 M20.7 32.8 L20.8 32.75 M26.95 34.3 Q29.65 29.35 34.45 28.0 M21.9 33.6 Q29.6 31.05 32.9 21.5" fill="none" stroke="#000000" stroke-linecap="round" stroke-linejoin="round" stroke-opacity="0.15294118" stroke-width="0.05"/>
      <path d="M27.0 21.9 L27.2 22.0 Q27.9 21.45 28.8 21.4 L29.1 21.3 30.1 21.5 Q30.65 21.6 30.95 22.15 L31.3 22.15 Q32.2 22.8 32.65 24.25 L32.7 24.45 32.3 24.5 32.3 24.75 32.05 24.5 31.6 24.9 30.9 23.55 30.7 23.7 29.8 23.0 Q29.15 22.75 28.4 23.0 L28.0 22.95 27.4 23.4 25.95 24.65 25.6 25.8 Q25.25 26.75 25.25 27.75 L24.85 27.85 24.4 27.75 24.3 28.1 23.6 28.4 Q23.55 27.15 24.15 25.85 L24.05 25.45 Q24.3 24.7 24.8 24.1 L25.1 23.95 Q25.65 22.85 26.65 22.1 L27.0 21.9 M38.25 20.35 L38.35 19.35 39.15 22.8 38.0 22.85 37.75 23.35 37.25 23.9 36.45 24.5 Q36.2 24.5 36.05 24.65 L36.3 24.4 36.55 23.9 36.45 23.9 35.75 24.25 35.8 24.15 36.45 23.0 37.1 22.25 37.1 21.75 Q37.05 21.45 37.35 21.35 L37.8 21.0 38.0 20.8 38.25 20.35 M14.0 27.85 L13.4 28.15 18.1 28.75 13.2 29.35 12.85 29.35 14.05 30.6 12.35 30.8 8.4 29.65 7.85 29.9 6.65 29.1 6.3 25.75 8.25 26.95 9.05 27.0 9.75 26.55 10.0 27.6 14.0 27.85 M31.35 28.25 Q31.75 27.05 31.75 26.1 L32.35 26.1 32.5 25.7 32.9 25.7 32.65 27.5 32.7 28.25 Q32.5 28.4 32.4 29.0 31.4 31.5 29.45 32.8 29.3 32.8 29.3 32.6 28.15 33.25 27.2 33.25 L25.75 32.85 Q24.45 32.0 23.95 30.6 24.65 30.4 25.35 29.9 L25.8 29.9 26.55 30.9 26.85 30.85 Q27.95 31.45 29.35 30.65 30.5 30.05 31.25 29.0 L31.15 28.5 31.35 28.25" fill="#cc6633" fill-rule="evenodd" stroke="none"/>
      <path d="M39.9 25.05 L39.2 27.15 38.15 29.0 36.3 29.3 Q34.95 29.3 35.0 28.15 L36.05 27.45 37.95 27.0 38.9 26.15 39.9 25.05" fill="#996b0f" fill-rule="evenodd" stroke="none"/>
      <path d="M39.15 19.6 Q40.3 22.7 39.9 25.0 L39.9 25.05 38.9 26.15 37.95 27.0 36.05 27.45 36.85 26.0 37.4 24.25 Q38.6 21.95 39.15 19.6" fill="#ad7910" fill-rule="evenodd" stroke="none"/>
      <path d="M36.65 17.3 Q37.65 17.7 39.15 19.55 L39.15 19.6 Q38.6 21.95 37.4 24.25 37.65 21.25 36.0 19.9 35.7 19.35 35.9 18.35 36.1 17.4 36.65 17.3" fill="#cc951a" fill-rule="evenodd" stroke="none"/>
      <path d="M36.0 19.9 Q34.85 19.1 33.55 19.15 L32.35 19.2 Q34.0 16.85 35.65 17.05 36.45 17.0 36.65 17.3 36.1 17.4 35.9 18.35 35.7 19.35 36.0 19.9" fill="#bd8812" fill-rule="evenodd" stroke="none"/>
      <path d="M36.0 19.9 Q34.85 19.1 33.55 19.15 L32.35 19.2 Q34.0 16.85 35.65 17.05 36.45 17.0 36.65 17.3 37.65 17.7 39.15 19.55 L39.15 19.6 Q40.3 22.7 39.9 25.0 L39.9 25.05 39.2 27.15 38.15 29.0 36.3 29.3 Q34.95 29.3 35.0 28.15 L36.05 27.45 36.85 26.0 37.4 24.25 Q37.65 21.25 36.0 19.9 35.7 19.35 35.9 18.35 36.1 17.4 36.65 17.3 M39.9 25.05 L38.9 26.15 37.95 27.0 36.05 27.45 M37.4 24.25 Q38.6 21.95 39.15 19.6" fill="none" stroke="#000000" stroke-linecap="round" stroke-linejoin="round" stroke-opacity="0.3019608" stroke-width="0.30000000000000004"/>
      <path d="M15.7 32.15 L16.85 32.65 Q17.1 33.75 15.8 34.1 L13.9 34.25 Q13.4 34.0 12.65 32.75 L11.6 30.8 12.75 31.6 Q13.55 32.2 13.8 32.2 L15.7 32.15" fill="#996b0f" fill-rule="evenodd" stroke="none"/>
      <path d="M14.0 29.35 L14.7 30.95 15.7 32.15 13.8 32.2 Q13.55 32.2 12.75 31.6 L11.6 30.8 11.55 30.75 Q10.9 28.6 11.55 25.3 12.4 27.4 14.0 29.35" fill="#ad7910" fill-rule="evenodd" stroke="none"/>
      <path d="M13.6 22.4 Q14.2 22.3 14.55 23.2 14.85 24.15 14.65 24.8 13.2 26.5 14.0 29.35 12.4 27.4 11.55 25.3 L11.55 25.25 Q12.7 23.05 13.6 22.4" fill="#cc951a" fill-rule="evenodd" stroke="none"/>
      <path d="M13.6 22.4 Q13.75 22.05 14.6 21.85 16.2 21.3 18.15 23.15 L16.9 23.4 Q15.6 23.7 14.65 24.8 14.85 24.15 14.55 23.2 14.2 22.3 13.6 22.4" fill="#bd8812" fill-rule="evenodd" stroke="none"/>
      <path d="M14.65 24.8 Q15.6 23.7 16.9 23.4 L18.15 23.15 Q16.2 21.3 14.6 21.85 13.75 22.05 13.6 22.4 14.2 22.3 14.55 23.2 14.85 24.15 14.65 24.8 13.2 26.5 14.0 29.35 L14.7 30.95 15.7 32.15 16.85 32.65 Q17.1 33.75 15.8 34.1 L13.9 34.25 Q13.4 34.0 12.65 32.75 L11.6 30.8 11.55 30.75 Q10.9 28.6 11.55 25.3 L11.55 25.25 Q12.7 23.05 13.6 22.4 M11.6 30.8 L12.75 31.6 Q13.55 32.2 13.8 32.2 L15.7 32.15 M11.55 25.3 Q12.4 27.4 14.0 29.35" fill="none" stroke="#000000" stroke-linecap="round" stroke-linejoin="round" stroke-opacity="0.3019608" stroke-width="0.30000000000000004"/>
      <path d="M27.2 10.95 Q28.1 10.8 29.15 9.9 30.1 9.1 31.25 9.05 L32.95 9.35 Q33.9 9.6 34.25 9.9 35.5 11.1 35.3 12.5 35.75 12.65 37.8 13.7 39.65 14.8 39.65 17.1 39.65 17.95 39.15 18.3 38.55 18.65 38.55 19.05 L39.15 20.65 39.65 22.3 Q39.65 23.35 39.15 24.05 L37.95 24.7 Q37.15 24.75 37.1 23.35 37.05 21.95 36.25 21.95 L35.9 22.25 35.5 22.45 Q35.1 22.45 34.4 21.6 33.45 20.5 32.55 20.0 L30.55 19.25 Q31.8 18.85 31.95 18.15 31.9 17.25 32.1 16.85 32.15 16.75 33.4 16.3 34.55 15.85 34.55 15.35 34.55 14.75 33.8 14.3 33.1 13.9 32.6 13.9 32.15 13.9 31.8 14.7 L31.45 15.95 Q31.45 17.7 30.25 18.1 L29.3 18.1 Q29.15 17.9 29.15 17.5 29.15 16.8 29.8 16.3 30.45 15.65 30.45 15.05 L30.3 14.25 29.3 14.25 28.65 14.85 Q28.45 14.95 28.4 15.25 L27.4 14.65 26.95 14.3 26.45 13.95 25.9 13.9 Q24.85 13.95 24.6 15.0 L24.5 16.8 Q24.5 18.55 24.2 18.9 L22.6 19.25 Q21.45 19.3 21.45 18.05 L22.2 16.6 Q22.2 14.9 20.05 14.55 L20.1 16.45 20.05 16.5 19.6 16.55 19.5 15.8 18.55 16.7 17.6 18.0 Q16.95 17.7 15.95 16.2 15.2 15.15 14.15 15.2 13.85 15.2 13.55 15.7 L13.25 16.4 13.9 17.1 13.9 18.0 Q13.55 18.0 12.95 17.55 L12.3 17.15 Q11.85 17.15 11.75 17.9 L11.7 18.7 10.9 18.6 Q10.2 18.6 9.65 19.45 9.25 20.05 8.35 19.6 8.35 20.2 8.0 20.3 7.7 20.35 7.7 20.7 7.7 21.75 8.95 22.35 9.9 22.85 10.95 22.85 11.55 22.8 13.2 21.8 14.85 20.8 15.5 20.8 16.15 20.75 17.4 21.25 L19.1 21.75 Q19.75 21.75 20.85 21.2 L22.3 20.95 22.45 21.1 20.65 22.2 20.3 23.1 Q20.05 23.75 19.6 23.85 17.9 24.25 17.9 24.85 L17.2 26.6 Q16.45 28.0 15.55 28.05 14.85 28.05 14.8 27.1 L14.95 26.1 Q14.95 24.75 14.05 24.8 13.6 24.8 13.4 25.2 L12.95 25.55 Q12.7 25.55 12.35 25.25 12.0 24.85 11.5 24.85 10.65 24.9 10.2 26.3 9.85 27.75 9.35 27.8 8.55 27.8 8.2 27.3 7.8 26.75 8.0 26.0 7.05 25.45 6.85 24.4 6.65 23.65 5.7 23.65 5.55 23.65 4.9 24.35 4.45 24.15 4.45 22.1 4.45 21.15 4.8 19.8 5.15 18.6 5.65 17.9 L5.75 17.55 Q6.3 15.6 6.7 14.95 7.5 13.75 9.9 13.65 L13.05 14.2 17.95 13.2 22.65 11.9 Q23.55 11.45 24.9 11.25 L27.2 10.95" fill="#ffca33" fill-opacity="0.5019608" fill-rule="evenodd" stroke="none"/>
      <path d="M27.2 10.95 Q28.1 10.8 29.15 9.9 30.1 9.1 31.25 9.05 L32.95 9.35 Q33.9 9.6 34.25 9.9 35.5 11.1 35.3 12.5 35.75 12.65 37.8 13.7 39.65 14.8 39.65 17.1 39.65 17.95 39.15 18.3 38.55 18.65 38.55 19.05 L39.15 20.65 39.65 22.3 Q39.65 23.35 39.15 24.05 L37.95 24.7 Q37.15 24.75 37.1 23.35 37.05 21.95 36.25 21.95 L35.9 22.25 35.5 22.45 Q35.1 22.45 34.4 21.6 33.45 20.5 32.55 20.0 L30.55 19.25 Q31.8 18.85 31.95 18.15 31.9 17.25 32.1 16.85 32.15 16.75 33.4 16.3 34.55 15.85 34.55 15.35 34.55 14.75 33.8 14.3 33.1 13.9 32.6 13.9 32.15 13.9 31.8 14.7 L31.45 15.95 Q31.45 17.7 30.25 18.1 L29.3 18.1 Q29.15 17.9 29.15 17.5 29.15 16.8 29.8 16.3 30.45 15.65 30.45 15.05 L30.3 14.25 29.3 14.25 28.65 14.85 Q28.45 14.95 28.4 15.25 L27.4 14.65 26.95 14.3 26.45 13.95 25.9 13.9 Q24.85 13.95 24.6 15.0 L24.5 16.8 Q24.5 18.55 24.2 18.9 L22.6 19.25 Q21.45 19.3 21.45 18.05 L22.2 16.6 Q22.2 14.9 20.05 14.55 L20.1 16.45 20.05 16.5 19.6 16.55 19.5 15.8 18.55 16.7 17.6 18.0 Q16.95 17.7 15.95 16.2 15.2 15.15 14.15 15.2 13.85 15.2 13.55 15.7 L13.25 16.4 13.9 17.1 13.9 18.0 Q13.55 18.0 12.95 17.55 L12.3 17.15 Q11.85 17.15 11.75 17.9 L11.7 18.7 10.9 18.6 Q10.2 18.6 9.65 19.45 9.25 20.05 8.35 19.6 8.35 20.2 8.0 20.3 7.7 20.35 7.7 20.7 7.7 21.75 8.95 22.35 9.9 22.85 10.95 22.85 11.55 22.8 13.2 21.8 14.85 20.8 15.5 20.8 16.15 20.75 17.4 21.25 L19.1 21.75 Q19.75 21.75 20.85 21.2 L22.3 20.95 22.45 21.1 20.65 22.2 20.3 23.1 Q20.05 23.75 19.6 23.85 17.9 24.25 17.9 24.85 L17.2 26.6 Q16.45 28.0 15.55 28.05 14.85 28.05 14.8 27.1 L14.95 26.1 Q14.95 24.75 14.05 24.8 13.6 24.8 13.4 25.2 L12.95 25.55 Q12.7 25.55 12.35 25.25 12.0 24.85 11.5 24.85 10.65 24.9 10.2 26.3 9.85 27.75 9.35 27.8 8.55 27.8 8.2 27.3 7.8 26.75 8.0 26.0 7.05 25.45 6.85 24.4 6.65 23.65 5.7 23.65 5.55 23.65 4.9 24.35 4.45 24.15 4.45 22.1 4.45 21.15 4.8 19.8 5.15 18.6 5.65 17.9 L5.75 17.55 Q6.3 15.6 6.7 14.95 7.5 13.75 9.9 13.65 L13.05 14.2 17.95 13.2 22.65 11.9 Q23.55 11.45 24.9 11.25 L27.2 10.95 Z" fill="none" stroke="#ff9800" stroke-linecap="round" stroke-linejoin="round" stroke-opacity="0.3019608" stroke-width="1.0"/>
      <path d="M17.2 24.9 L17.05 24.35 Q16.85 24.3 16.85 24.95 L16.2 26.5 15.6 27.6 15.9 27.8 Q16.3 27.8 16.6 27.35 L17.05 26.15 17.2 24.9" fill="#ffcc00" fill-rule="evenodd" stroke="none"/>
      <path d="M15.95 27.55 L16.1 27.7 16.35 27.6 16.5 27.35 16.55 27.05 16.4 26.9 16.15 27.0 16.0 27.25 15.95 27.55" fill="#ffffff" fill-opacity="0.3019608" fill-rule="evenodd" stroke="none"/>
      <path d="M38.7 21.2 L38.25 20.8 Q38.05 20.9 38.3 21.45 38.6 22.0 38.6 23.05 L38.55 24.3 38.95 24.3 39.3 23.6 39.15 22.35 38.7 21.2" fill="#ffcc00" fill-rule="evenodd" stroke="none"/>
      <path d="M38.85 24.1 L39.05 24.15 39.2 23.95 39.2 23.65 39.1 23.35 38.9 23.3 38.75 23.5 38.7 23.8 38.85 24.1" fill="#ffffff" fill-opacity="0.3019608" fill-rule="evenodd" stroke="none"/>
      <path d="M22.6 17.2 Q22.35 16.65 22.2 17.0 L22.0 17.75 22.2 18.4 22.6 18.85 23.0 19.0 23.15 18.65 23.05 18.1 22.6 17.2" fill="#ffcc00" fill-rule="evenodd" stroke="none"/>
      <path d="M17.0 15.85 Q16.75 15.3 16.6 15.65 L16.4 16.4 16.6 17.05 17.0 17.5 17.4 17.65 17.55 17.3 17.45 16.75 17.0 15.85" fill="#ffcc00" fill-rule="evenodd" stroke="none"/>
      <path d="M5.1 19.85 Q5.35 19.4 5.55 19.45 L5.5 20.15 Q5.2 20.7 5.2 21.75 L5.25 22.95 4.9 23.05 Q4.55 22.9 4.5 22.35 4.4 21.8 4.65 21.1 L5.1 19.85" fill="#ffcc00" fill-rule="evenodd" stroke="none"/>
      <path d="M4.95 22.8 L4.75 22.85 4.6 22.7 4.6 22.4 4.7 22.1 Q4.75 21.95 4.9 22.0 L5.05 22.2 5.1 22.55 4.95 22.8" fill="#ffffff" fill-opacity="0.3019608" fill-rule="evenodd" stroke="none"/>
      <path d="M14.7 22.35 L15.2 22.25 13.3 21.55 16.55 21.5 16.4 21.7 15.55 21.8 15.15 21.9 16.85 22.45 16.05 22.8 16.55 23.05 Q16.85 23.1 16.5 23.35 L16.15 23.4 16.45 24.1 15.55 26.35 15.6 26.7 15.6 27.15 15.25 26.35 16.15 24.15 Q15.25 24.05 15.0 23.3 L15.85 23.1 Q15.05 23.25 14.35 22.8 L14.7 22.35 M8.0 15.25 Q8.95 15.35 8.9 15.8 L6.85 16.45 7.3 16.65 7.6 16.75 Q8.25 16.75 8.05 17.2 L7.9 17.4 7.2 17.7 7.8 18.0 6.25 18.9 6.65 19.25 6.85 19.35 6.55 19.75 5.85 20.35 Q5.05 20.9 4.85 21.7 L4.9 22.15 4.95 22.9 4.55 21.75 Q5.15 20.35 6.5 19.4 L5.8 19.2 6.25 18.6 6.7 17.85 6.85 17.55 7.75 16.9 6.2 16.65 7.05 16.15 8.3 15.6 7.25 15.4 7.2 15.35 Q7.7 14.95 8.3 14.65 L10.35 14.6 Q9.35 15.3 8.0 15.25 M33.0 18.3 L33.25 17.85 34.95 16.3 Q34.3 16.65 33.6 16.95 L32.65 17.05 Q33.55 16.2 34.9 15.95 L35.6 16.0 35.4 16.35 34.2 17.4 34.85 16.85 Q35.75 16.35 36.25 16.55 L35.9 17.15 34.9 18.35 35.25 18.1 36.5 17.4 36.9 17.3 35.6 19.6 35.85 19.35 Q36.2 18.7 37.0 18.5 L36.55 20.4 36.7 20.8 Q37.35 21.8 36.8 22.4 35.9 21.15 36.45 19.35 L35.25 20.0 Q35.25 19.7 35.4 19.5 L36.3 17.75 35.3 18.55 34.5 18.8 34.8 18.1 Q35.1 17.45 35.8 16.9 L34.25 18.0 Q33.6 18.5 33.0 18.3 M24.0 12.0 L24.0 12.1 22.75 13.15 23.0 13.3 23.05 13.55 23.0 13.85 22.5 14.25 22.75 14.4 22.95 14.75 22.7 15.6 22.4 16.8 22.25 16.85 22.0 16.25 22.0 15.8 22.05 15.65 22.6 14.75 22.6 14.7 21.6 14.7 21.55 14.6 Q21.8 14.15 22.15 14.0 L22.6 13.65 22.7 13.6 21.4 13.25 22.2 12.95 21.6 13.0 21.35 13.0 21.25 12.7 24.0 12.0 M28.1 11.9 L28.05 11.8 29.9 11.75 29.15 11.15 29.2 11.0 29.8 10.8 29.45 10.25 30.95 10.05 30.65 9.75 30.55 9.6 32.15 9.7 31.8 9.3 Q33.25 9.5 34.35 10.15 L31.55 10.0 31.8 10.3 30.25 10.55 30.8 11.2 Q30.55 11.25 30.35 11.4 29.7 11.25 30.45 11.8 L29.55 12.1 29.8 12.25 29.75 12.4 28.3 12.75 28.55 13.1 Q28.7 13.55 28.15 13.65 L28.35 14.0 28.9 14.8 28.85 14.8 Q27.8 14.3 27.3 13.3 L28.3 13.2 27.6 12.3 29.3 12.35 28.1 11.9" fill="#ffffff" fill-opacity="0.3019608" fill-rule="evenodd" stroke="none"/>
    </g>
    <linearGradient gradientTransform="matrix(7.0E-4, 0.0049, -0.0097, 0.0015, 22.95, 29.0)" gradientUnits="userSpaceOnUse" id="gradient0" spreadMethod="pad" x1="-819.2" x2="819.2">
      <stop offset="0.0" stop-color="#000000" stop-opacity="0.0"/>
      <stop offset="1.0" stop-color="#000000" stop-opacity="0.36078432"/>
    </linearGradient>
    <g id="sprite0" transform="matrix(1.0, 0.0, 0.0, 1.0, 32.5, 32.5)">
      <use height="65.0" transform="matrix(1.0, 0.0, 0.0, 1.0, -32.5, -32.5)" width="65.0" xlink:href="#shape1"/>
    </g>
    <g id="shape1" transform="matrix(1.0, 0.0, 0.0, 1.0, 32.5, 32.5)">
      <path d="M22.95 -23.0 Q32.5 -13.45 32.5 0.0 32.5 13.45 22.95 22.95 13.45 32.5 0.0 32.5 -13.45 32.5 -23.0 22.95 -32.5 13.45 -32.5 0.0 -32.5 -13.45 -23.0 -23.0 -13.45 -32.5 0.0 -32.5 13.45 -32.5 22.95 -23.0" fill="url(#gradient1)" fill-rule="evenodd" stroke="none"/>
    </g>
    <radialGradient cx="0" cy="0" gradientTransform="matrix(0.0406, 0.0, 0.0, 0.0406, 0.0, 0.0)" gradientUnits="userSpaceOnUse" id="gradient1" r="819.2" spreadMethod="pad">
      <stop offset="0.0" stop-color="#fff5a5"/>
      <stop offset="1.0" stop-color="#f5ad4e" stop-opacity="0.0"/>
    </radialGradient>
    <g id="shape2" transform="matrix(1.0, 0.0, 0.0, 1.0, -2.75, -7.35)">
      <path d="M27.8 21.2 L30.15 20.8 Q31.5 20.8 32.65 21.45 L32.95 21.65 34.0 22.1 Q34.9 23.3 35.05 25.3 35.1 26.65 34.5 28.15 L33.25 30.35 Q31.3 32.9 28.4 34.0 L27.0 34.45 25.85 34.65 22.75 34.3 21.95 33.75 21.4 33.5 Q21.1 33.05 20.75 32.95 L20.85 32.9 Q20.05 31.8 20.05 30.3 19.85 28.85 20.6 27.15 L20.75 26.8 Q21.3 25.75 22.25 24.8 L23.95 23.15 Q25.65 21.8 27.8 21.2" fill="url(#gradient2)" fill-rule="evenodd" stroke="none"/>
      <path d="M8.35 14.05 L2.75 7.35 7.55 14.6 4.3 16.65 7.75 15.2 9.75 16.8 8.8 14.8 Q11.4 13.2 13.95 11.7 L8.35 14.05" fill="#fcf3d8" fill-opacity="0.7921569" fill-rule="evenodd" stroke="none"/>
      <path d="M6.3 13.35 L3.95 13.2 Q5.3 13.8 5.65 14.75 5.55 15.35 5.8 15.95 6.2 16.75 7.05 17.1 L8.9 17.05 9.85 18.55 9.5 16.7 10.3 15.7 10.6 14.55 11.4 13.95 10.35 13.9 10.4 13.8 Q9.95 12.95 9.1 12.65 L7.25 12.75 Q6.65 12.95 6.3 13.35 M9.35 15.25 L8.7 15.9 Q8.15 16.1 7.75 15.9 L7.1 15.3 Q6.9 14.85 7.15 14.4 7.35 14.0 7.85 13.75 L8.8 13.65 9.4 14.3 9.35 15.25" fill="#fcf3d8" fill-opacity="0.3019608" fill-rule="evenodd" stroke="none"/>
      <path d="M9.35 15.25 L9.4 14.3 8.8 13.65 7.85 13.75 Q7.35 14.0 7.15 14.4 6.9 14.85 7.1 15.3 L7.75 15.9 Q8.15 16.1 8.7 15.9 L9.35 15.25" fill="#fcf3d8" fill-opacity="0.84313726" fill-rule="evenodd" stroke="none"/>
    </g>
    <linearGradient gradientTransform="matrix(0.0024, 0.0089, -0.0082, 0.0022, 27.5, 27.75)" gradientUnits="userSpaceOnUse" id="gradient2" spreadMethod="pad" x1="-819.2" x2="819.2">
      <stop offset="0.0" stop-color="#000000" stop-opacity="0.0"/>
      <stop offset="1.0" stop-color="#000000" stop-opacity="0.28235295"/>
    </linearGradient>
  </defs>
</svg>
