<?xml version="1.0" encoding="UTF-8" standalone="no"?>
<svg xmlns:xlink="http://www.w3.org/1999/xlink" height="440.0px" width="440.0px" xmlns="http://www.w3.org/2000/svg">
  <g transform="matrix(10.0, 0.0, 0.0, 10.0, 0.0, 0.0)">
    <use height="44.0" transform="matrix(1.0, 0.0, 0.0, 1.0, 0.0, 0.0)" width="44.0" xlink:href="#shape0"/>
  </g>
  <defs>
    <g id="shape0" transform="matrix(1.0, 0.0, 0.0, 1.0, 0.0, 0.0)">
      <path d="M44.0 44.0 L0.0 44.0 0.0 0.0 44.0 0.0 44.0 44.0" fill="#43adca" fill-opacity="0.0" fill-rule="evenodd" stroke="none"/>
      <path d="M39.45 8.35 L39.8 8.9 39.9 12.35 39.85 12.8 39.85 12.95 Q39.8 13.55 39.15 14.15 L37.7 15.25 37.35 15.45 37.7 15.25 37.4 15.65 36.65 16.95 34.65 17.95 34.35 18.1 34.1 18.2 Q32.6 18.85 28.25 19.9 L28.15 19.95 27.85 18.9 28.15 19.95 27.85 20.0 26.0 20.45 18.05 21.8 15.45 22.0 13.25 22.1 12.8 22.1 11.7 22.1 10.75 21.7 7.75 20.65 12.8 20.95 13.25 20.95 15.45 20.9 18.05 20.65 26.0 19.3 27.85 18.9 28.2 18.8 28.25 18.8 Q32.6 17.7 34.1 17.05 L34.65 17.95 34.1 17.05 34.35 16.95 35.55 16.35 37.05 15.6 37.35 15.45 37.1 11.85 37.75 11.15 Q38.35 10.85 38.85 9.75 L39.45 8.35 M34.75 28.75 L34.45 30.1 Q34.0 32.1 31.75 35.2 29.55 36.75 27.05 37.3 L26.9 37.1 27.4 36.55 27.5 36.4 27.95 35.85 29.6 32.6 29.75 32.25 29.8 32.15 30.05 31.4 30.9 31.25 31.95 30.5 32.45 28.35 33.5 28.05 34.75 28.75 M6.0 20.2 Q5.3 19.95 4.95 19.6 L4.5 18.9 4.5 18.8 4.45 18.75 4.45 18.7 3.75 15.15 3.75 14.95 4.6 16.0 5.75 16.9 7.4 17.2 6.0 20.2 M34.05 26.5 L34.1 27.1 33.0 27.2 32.8 26.55 34.05 26.15 34.05 26.5 M35.55 16.95 L35.55 16.35 35.55 16.95 M4.5 18.8 L4.45 18.55 4.45 18.7 4.5 18.8 4.5 18.9 4.5 18.8 M15.6 21.6 L15.45 20.9 15.6 21.6 M31.65 29.6 L30.95 29.05 31.3 28.6 31.7 29.5 31.65 29.6 M25.75 30.3 L25.6 29.6 26.9 29.3 27.25 29.85 26.8 30.55 25.75 30.3 M29.65 35.1 L27.95 35.85 29.65 35.1 M28.4 36.3 L27.5 36.4 28.4 36.3" fill="#857c49" fill-rule="evenodd" stroke="none"/>
      <path d="M37.1 11.85 L37.35 15.45 37.05 15.6 35.55 16.35 34.35 16.95 34.1 17.05 Q32.6 17.7 28.25 18.8 L28.35 18.2 28.55 15.85 28.65 15.8 28.55 15.75 27.9 15.15 28.1 15.1 Q33.8 13.7 37.05 11.9 L37.1 11.85 M36.65 16.95 Q35.4 19.55 35.05 24.05 L35.05 26.7 34.75 28.75 33.5 28.05 32.45 28.35 31.95 30.5 30.9 31.25 30.05 31.4 30.55 28.85 30.65 28.9 30.7 28.8 33.0 27.2 34.1 27.1 34.05 26.5 34.1 26.45 34.25 23.05 33.75 20.7 28.8 21.7 28.75 21.7 28.5 20.95 28.15 19.95 28.25 19.9 Q32.6 18.85 34.1 18.2 L34.35 18.1 34.65 17.95 36.65 16.95 M29.25 18.05 L28.35 18.2 29.25 18.05 M29.3 20.95 L28.5 20.95 29.3 20.95 M35.55 16.05 L35.55 16.35 35.55 16.05 M33.9 16.7 L34.1 17.05 33.9 16.7 M31.65 29.6 L31.7 29.5 31.3 28.6 30.95 29.05 31.65 29.6" fill="#b9b27f" fill-rule="evenodd" stroke="none"/>
      <path d="M39.45 8.35 L38.85 9.75 Q38.35 10.85 37.75 11.15 L31.6 10.6 29.55 10.65 26.05 10.95 21.9 11.55 18.25 12.25 Q13.8 13.25 10.6 14.45 8.7 15.15 7.2 16.0 L6.0 16.7 5.85 16.8 5.75 16.9 4.6 16.0 3.75 14.95 Q3.9 13.95 7.2 12.2 11.15 10.05 18.25 8.5 25.45 6.9 31.6 6.8 37.7 6.75 39.35 8.25 L39.45 8.35 M28.8 21.8 L23.1 23.35 22.5 24.15 23.7 27.0 30.55 28.85 30.45 27.15 29.9 24.95 29.85 24.85 29.45 23.7 29.3 23.3 28.8 21.8 28.8 21.7 33.75 20.7 34.25 23.05 34.1 26.45 34.05 26.5 34.05 26.15 32.8 26.55 33.0 27.2 30.7 28.8 30.65 28.9 30.55 28.85 30.05 31.4 29.8 32.15 29.75 32.25 29.6 32.6 29.15 32.6 28.35 31.5 27.8 31.9 24.9 31.45 24.2 30.5 23.0 31.75 Q22.95 29.25 21.3 27.25 18.2 24.8 11.7 22.1 L12.8 22.1 13.25 22.1 15.45 22.0 18.05 21.8 26.0 20.45 27.85 20.0 28.15 19.95 28.5 20.95 28.75 21.7 28.8 21.8 M29.25 31.6 L30.05 31.4 29.25 31.6 M30.1 23.3 L29.45 23.7 30.1 23.3 M28.5 20.95 L27.7 21.0 28.5 20.95 M25.75 30.3 L26.8 30.55 27.25 29.85 26.9 29.3 25.6 29.6 25.75 30.3 M30.45 24.4 L29.85 24.85 30.45 24.4" fill="#d6cc93" fill-rule="evenodd" stroke="none"/>
      <path d="M19.75 35.05 Q18.4 34.35 17.7 32.55 L16.85 31.05 14.3 26.75 11.05 22.1 10.75 21.7 11.7 22.1 Q18.2 24.8 21.3 27.25 22.95 29.25 23.0 31.75 L23.0 31.85 Q23.0 33.05 22.6 34.4 22.15 35.95 20.8 35.35 L20.75 35.35 20.7 35.35 19.85 35.05 19.8 35.05 19.75 35.05 19.85 35.05 19.75 35.05 M28.1 15.1 L27.9 15.15 27.85 15.2 27.8 15.2 26.9 15.25 27.55 15.25 26.9 15.25 27.8 15.2 27.55 15.25 23.05 15.95 12.65 17.1 11.85 17.1 11.65 17.15 7.4 17.2 6.0 16.7 7.2 16.0 Q8.7 15.15 10.6 14.45 13.8 13.25 18.25 12.25 L21.9 11.55 26.05 10.95 29.55 10.65 28.5 12.9 Q28.15 13.85 28.1 15.1" fill="#4d4724" fill-rule="evenodd" stroke="none"/>
      <path d="M28.55 15.75 L28.65 15.8 28.55 15.85 28.55 15.75 M28.75 21.7 L28.8 21.7 28.8 21.8 28.75 21.7" fill="#71310f" fill-rule="evenodd" stroke="none"/>
      <path d="M7.75 20.65 L7.55 20.65 6.0 20.2 7.4 17.2 11.65 17.15 11.85 17.1 12.65 17.1 23.05 15.95 27.55 15.25 27.8 15.2 27.85 15.2 27.9 15.15 28.55 15.75 28.55 15.85 28.35 18.2 28.0 18.25 28.35 18.2 28.25 18.8 28.2 18.8 27.85 18.9 26.0 19.3 18.05 20.65 15.45 20.9 13.25 20.95 12.8 20.95 7.75 20.65 M30.55 28.85 L23.7 27.0 22.5 24.15 23.1 23.35 28.8 21.8 29.3 23.3 29.45 23.7 29.85 24.85 29.9 24.95 30.45 27.15 30.55 28.85 M28.5 24.25 L29.45 23.7 28.5 24.25 M15.45 20.9 L15.25 20.1 15.45 20.9" fill="#f0e5a5" fill-rule="evenodd" stroke="none"/>
      <path d="M26.9 37.1 L22.6 36.9 Q20.9 36.45 19.6 35.05 L19.65 35.0 19.8 35.05 19.85 35.05 20.7 35.35 20.75 35.35 20.8 35.35 Q22.15 35.95 22.6 34.4 23.0 33.05 23.0 31.85 L23.0 31.75 24.2 30.5 24.9 31.45 27.8 31.9 28.35 31.5 29.15 32.6 29.6 32.6 27.95 35.85 27.5 36.4 27.4 36.55 26.9 37.1 M26.9 36.3 Q27.45 36.1 27.95 35.85 27.45 36.1 26.9 36.3" fill="#998d54" fill-rule="evenodd" stroke="none"/>
      <path d="M7.4 17.2 L5.75 16.9 M6.0 16.7 L7.4 17.2" fill="none" stroke="#000000" stroke-linecap="round" stroke-linejoin="round" stroke-opacity="0.4509804" stroke-width="0.05"/>
      <path d="M39.45 8.35 L38.85 9.75 Q38.35 10.85 37.75 11.15 M37.35 15.45 L37.7 15.25 M19.6 35.05 L19.5 34.95 19.65 35.0 19.75 35.05 M4.5 18.8 L4.45 18.75 4.45 18.7 4.5 18.8 4.5 18.9 M28.1 15.1 L27.9 15.15 28.55 15.75 28.65 15.8 28.55 15.85 28.35 18.2 29.25 18.05 M6.0 16.7 L7.2 16.0 Q8.7 15.15 10.6 14.45 13.8 13.25 18.25 12.25 L21.9 11.55 26.05 10.95 29.55 10.65 M27.8 15.2 L27.85 15.2 27.9 15.15 M27.8 15.2 L26.9 15.25 27.55 15.25 27.8 15.2 M28.35 18.2 L28.0 18.25 M28.55 15.75 L28.55 15.85 M30.55 28.85 L30.45 27.15 29.9 24.95 29.85 24.85 29.45 23.7 28.5 24.25 M28.25 18.8 L28.2 18.8 27.85 18.9 28.15 19.95 M34.65 17.95 L34.1 17.05 Q32.6 17.7 28.25 18.8 L28.35 18.2 M28.5 20.95 L28.15 19.95 M29.6 32.6 L29.75 32.25 M29.8 32.15 L30.05 31.4 29.25 31.6 M28.5 20.95 L29.3 20.95 M28.8 21.8 L29.3 23.3 29.45 23.7 30.1 23.3 M28.75 21.7 L28.8 21.8 M30.55 28.85 L30.05 31.4 30.9 31.25 M28.5 20.95 L28.75 21.7 M15.45 20.9 L18.05 20.65 26.0 19.3 27.85 18.9 M27.7 21.0 L28.5 20.95 M7.4 17.2 L11.65 17.15 11.85 17.1 12.65 17.1 23.05 15.95 27.55 15.25 M35.55 16.35 L35.55 16.05 M35.55 16.35 L35.55 16.95 M37.35 15.45 L37.05 15.6 35.55 16.35 34.35 16.95 34.1 17.05 33.9 16.7 M5.75 16.9 L4.6 16.0 3.75 14.95 M5.75 16.9 L5.85 16.8 6.0 16.7 M4.5 18.8 L4.45 18.55 4.45 18.7 M15.45 20.9 L13.25 20.95 12.8 20.95 7.75 20.65 M15.45 20.9 L15.6 21.6 M15.25 20.1 L15.45 20.9 M19.8 35.05 L19.85 35.05 19.75 35.05 M19.8 35.05 L19.65 35.0 M27.5 36.4 L27.4 36.55 26.9 37.1 M27.95 35.85 L29.65 35.1 M29.6 32.6 L27.95 35.85 27.5 36.4 28.4 36.3 M27.95 35.85 Q27.45 36.1 26.9 36.3 M29.85 24.85 L30.45 24.4" fill="none" stroke="#000000" stroke-linecap="round" stroke-linejoin="round" stroke-opacity="0.3019608" stroke-width="0.05"/>
      <path d="M37.7 15.25 L39.15 14.15 Q39.8 13.55 39.85 12.95 L39.85 12.8 39.9 12.35 39.8 8.9 39.45 8.35 M37.75 11.15 L37.1 11.85 37.05 11.9 Q33.8 13.7 28.1 15.1 M37.7 15.25 L37.4 15.65 36.65 16.95 Q35.4 19.55 35.05 24.05 L35.05 26.7 34.75 28.75 34.45 30.1 Q34.0 32.1 31.75 35.2 29.55 36.75 27.05 37.3 L26.9 37.1 22.6 36.9 Q20.9 36.45 19.6 35.05 M19.75 35.05 Q18.4 34.35 17.7 32.55 L16.85 31.05 14.3 26.75 11.05 22.1 10.75 21.7 7.75 20.65 7.55 20.65 6.0 20.2 Q5.3 19.95 4.95 19.6 L4.5 18.9 4.5 18.8 M4.45 18.7 L3.75 15.15 3.75 14.95 Q3.9 13.95 7.2 12.2 11.15 10.05 18.25 8.5 25.45 6.9 31.6 6.8 37.7 6.75 39.35 8.25 L39.45 8.35 M29.55 10.65 L31.6 10.6 37.75 11.15 M29.55 10.65 L28.5 12.9 Q28.15 13.85 28.1 15.1 M19.75 35.05 L19.8 35.05" fill="none" stroke="#000000" stroke-linecap="round" stroke-linejoin="round" stroke-opacity="0.3019608" stroke-width="0.5"/>
      <path d="M17.9 16.8 L16.9 16.45 16.85 16.65 16.3 16.25 14.4 17.2 13.4 17.65 13.4 17.85 12.2 17.1 12.1 16.85 14.85 14.8 17.9 16.2 17.9 16.8 M12.2 17.7 L12.65 20.35 12.55 20.4 12.2 17.7" fill="#faf0c0" fill-rule="evenodd" stroke="none"/>
      <path d="M12.65 20.35 L12.7 21.55 12.55 20.4 12.65 20.35" fill="#b0a579" fill-rule="evenodd" stroke="none"/>
      <path d="M18.1 17.6 L18.1 17.75 17.55 18.1 18.05 18.65 18.05 20.7 15.85 22.75 12.7 21.55 12.65 20.35 13.2 18.4 14.4 17.2 16.3 16.25 16.85 16.65 16.9 16.45 17.9 16.8 18.05 17.1 18.1 17.6 M17.15 17.3 L16.3 17.0 15.45 17.35 16.45 18.7 17.55 18.1 16.45 18.7 15.45 17.35 16.3 17.0 17.15 17.3" fill="#c2b585" fill-rule="evenodd" stroke="none"/>
      <path d="M20.65 19.6 L20.65 21.15 19.9 21.75 19.3 21.8 19.0 21.85 17.15 23.2 15.85 22.75 18.05 20.7 18.05 18.65 17.55 18.1 18.1 17.75 18.1 17.6 19.55 18.15 19.4 18.6 20.65 19.6 M12.2 17.1 L13.4 17.85 13.4 17.65 14.4 17.2 13.2 18.4 12.65 20.35 12.2 17.7 12.2 17.1" fill="#9b8c5e" fill-rule="evenodd" stroke="none"/>
      <path d="M20.65 19.6 L19.4 18.6 19.55 18.15 M18.1 17.6 L18.1 17.75 17.55 18.1 16.45 18.7 15.45 17.35 16.3 17.0 17.15 17.3 M15.85 22.75 L17.15 23.2 19.0 21.85 19.3 21.8 M17.9 16.8 L17.9 16.2 14.85 14.8 12.1 16.85 12.2 17.1 12.2 17.7 12.65 20.35 12.7 21.55 15.85 22.75 M17.9 16.8 L18.05 17.1 18.1 17.6" fill="none" stroke="#000000" stroke-linecap="round" stroke-linejoin="round" stroke-opacity="0.15294118" stroke-width="0.25"/>
      <path d="M37.85 14.8 Q37.35 17.75 34.5 17.15 33.35 15.1 35.3 13.95 37.5 13.25 37.85 14.8 M23.0 19.2 L23.0 16.5 Q27.35 14.4 31.6 17.55 L27.75 20.85 Q24.15 22.3 23.0 19.2" fill="#000000" fill-rule="evenodd" stroke="none"/>
      <path d="M22.25 14.95 Q22.9 14.0 23.8 15.5 24.75 17.05 24.75 18.95 24.75 20.9 23.1 22.15 21.5 23.4 19.2 23.4 16.85 23.35 16.05 21.8 15.25 20.15 15.1 18.35 15.0 16.95 16.65 16.0 L18.25 16.2 Q21.55 15.95 22.25 14.95" fill="#382510" fill-opacity="0.4" fill-rule="evenodd" stroke="none"/>
      <path d="M41.85 10.8 L40.65 11.55 40.65 11.3 39.7 10.85 39.45 10.8 37.75 9.95 37.25 10.3 37.15 10.15 36.15 10.45 36.15 9.9 39.2 8.5 41.95 10.5 41.85 10.8 M41.4 14.05 L41.85 11.35 41.5 14.1 41.4 14.05" fill="#faf0c0" fill-rule="evenodd" stroke="none"/>
      <path d="M41.35 15.2 L41.4 14.05 41.5 14.1 41.35 15.2" fill="#b0a579" fill-rule="evenodd" stroke="none"/>
      <path d="M39.7 10.85 L40.85 12.1 41.4 14.05 41.35 15.2 38.2 16.4 37.4 15.65 37.4 12.8 36.0 12.8 36.0 12.3 36.5 11.75 36.0 11.45 36.0 11.25 36.0 10.8 36.15 10.45 37.15 10.15 37.25 10.3 37.75 9.95 39.45 10.8 39.7 10.85 M36.9 10.95 L37.75 10.65 38.65 11.05 37.6 12.35 36.5 11.75 37.6 12.35 38.65 11.05 37.75 10.65 36.9 10.95" fill="#c2b585" fill-rule="evenodd" stroke="none"/>
      <path d="M39.7 10.85 L40.65 11.3 40.65 11.55 41.85 10.8 41.85 11.35 41.4 14.05 40.85 12.1 39.7 10.85 M36.0 11.25 L36.0 11.45 36.5 11.75 36.0 12.3 36.0 12.8 35.25 12.8 35.25 11.55 36.0 11.25 M37.4 15.65 L38.2 16.4 37.4 16.7 37.4 15.65" fill="#9b8c5e" fill-rule="evenodd" stroke="none"/>
      <path d="M41.4 14.05 L41.35 15.2 M36.5 11.75 L36.0 11.45 36.0 11.25 M36.5 11.75 L37.6 12.35 38.65 11.05 37.75 10.65 36.9 10.95" fill="none" stroke="#000000" stroke-linecap="round" stroke-linejoin="round" stroke-opacity="0.4509804" stroke-width="0.05"/>
      <path d="M41.4 14.05 L41.85 11.35 41.85 10.8 41.95 10.5 39.2 8.5 36.15 9.9 36.15 10.45 M41.35 15.2 L41.5 14.1 M36.0 11.25 L36.0 10.8 36.15 10.45 M37.4 16.7 L38.2 16.4 41.35 15.2" fill="none" stroke="#000000" stroke-linecap="round" stroke-linejoin="round" stroke-opacity="0.3019608" stroke-width="0.5"/>
      <path d="M35.25 16.8 L35.35 16.85 35.4 16.8 35.55 17.5 35.25 16.8" fill="#914f33" fill-rule="evenodd" stroke="none"/>
      <path d="M35.6 18.45 L35.85 18.9 Q35.7 19.2 35.8 19.45 34.5 22.2 34.55 23.9 L34.6 24.05 Q34.15 25.65 32.5 26.15 L32.25 26.3 Q30.4 26.5 29.1 25.5 27.7 24.05 28.1 23.0 L28.6 22.9 28.75 22.9 29.35 22.95 31.25 22.9 Q32.35 22.0 33.75 21.35 35.25 20.65 35.35 19.45 L35.5 18.6 35.6 18.45 M35.25 19.15 L35.15 19.35 35.15 19.2 35.25 19.15 M31.8 23.45 L32.85 22.4 29.65 23.45 31.7 26.1 31.5 25.25 Q31.3 24.35 31.8 23.45" fill="#c2b585" fill-rule="evenodd" stroke="none"/>
      <path d="M31.8 23.45 Q31.3 24.35 31.5 25.25 L31.7 26.1 29.65 23.45 32.85 22.4 31.8 23.45" fill="#fbf2d3" fill-rule="evenodd" stroke="none"/>
      <path d="M35.55 17.5 L35.7 18.45 35.6 18.45 35.5 18.6 35.35 19.45 Q35.25 20.65 33.75 21.35 32.35 22.0 31.25 22.9 L29.35 22.95 28.75 22.9 28.6 22.9 28.1 23.0 Q27.7 24.05 29.1 25.5 30.4 26.5 32.25 26.3 L29.6 26.65 28.2 26.15 Q27.9 25.95 27.7 25.45 L27.4 24.85 27.4 24.75 27.15 24.35 Q26.85 23.55 27.0 22.9 L27.05 22.1 30.15 21.5 33.25 20.05 33.3 20.05 33.4 19.85 Q33.9 19.55 35.25 16.8 L35.55 17.5 M35.25 19.15 L35.15 19.2 35.15 19.35 35.25 19.15" fill="#695c41" fill-rule="evenodd" stroke="none"/>
      <path d="M35.55 17.5 L35.7 18.45 35.6 18.45 35.85 18.9 Q35.7 19.2 35.8 19.45 34.5 22.2 34.55 23.9 L34.6 24.05 Q34.15 25.65 32.5 26.15 L32.25 26.3 29.6 26.65 28.2 26.15 Q27.9 25.95 27.7 25.45 L27.4 24.85 27.4 24.75 27.15 24.35 Q26.85 23.55 27.0 22.9 M27.05 22.1 L30.15 21.5 33.25 20.05 M33.3 20.05 L33.4 19.85 Q33.9 19.55 35.25 16.8" fill="none" stroke="#000000" stroke-linecap="round" stroke-linejoin="round" stroke-opacity="0.3019608" stroke-width="0.05"/>
      <path d="M33.65 10.25 L34.85 10.95 35.75 11.0 37.9 10.25 36.7 9.65 37.3 9.4 38.7 10.15 38.7 10.0 39.75 8.15 39.55 9.75 39.1 11.2 39.15 12.1 37.3 11.0 36.7 11.05 36.25 12.9 33.85 14.85 32.4 15.3 30.0 14.5 33.3 14.55 34.55 13.65 32.2 12.45 33.65 10.25 M16.95 16.8 L16.75 16.5 16.3 15.9 16.6 15.6 16.75 15.6 18.45 16.7 19.85 16.85 21.0 16.7 21.0 16.5 19.8 15.9 18.95 16.05 19.05 15.6 19.5 15.7 21.05 16.4 24.55 15.4 26.05 14.3 26.3 15.1 23.0 16.45 21.65 18.3 21.0 17.1 21.0 17.25 20.3 17.85 18.15 17.9 16.95 16.8 M37.9 10.25 L39.1 10.85 39.1 11.2 39.1 10.85 37.9 10.25 M19.5 15.7 L19.8 15.9 19.5 15.7" fill="#c2b585" fill-rule="evenodd" stroke="none"/>
      <path d="M24.85 13.3 L26.75 13.8 26.05 14.3 26.05 14.05 24.85 13.3" fill="#b0a579" fill-rule="evenodd" stroke="none"/>
      <path d="M39.15 12.1 L39.9 14.35 35.75 18.5 35.1 18.85 30.0 21.35 25.8 22.2 23.35 21.9 21.6 19.8 Q21.8 21.8 19.6 20.3 L18.95 19.35 18.45 18.3 17.55 17.9 16.95 16.8 18.15 17.9 20.3 17.85 21.0 17.25 21.0 17.1 21.65 18.3 23.0 16.45 26.3 15.1 26.05 14.3 26.75 13.8 27.0 14.05 27.55 14.35 27.8 14.2 28.35 14.05 30.0 14.5 32.4 15.3 33.85 14.85 36.25 12.9 36.7 11.05 37.3 11.0 39.15 12.1 M29.2 17.45 L29.05 17.4 27.35 17.4 24.55 18.6 24.85 20.45 26.75 21.3 29.5 20.75 30.2 20.25 29.95 20.15 30.45 19.2 30.45 18.4 29.2 17.45 M30.0 14.5 L27.8 14.2 30.0 14.5 M36.05 17.05 L37.15 15.3 36.7 14.3 35.9 14.7 36.05 17.05 35.6 17.9 35.1 18.85 35.6 17.9 36.05 17.05 M20.85 18.5 L19.65 18.6 18.45 18.3 19.65 18.6 20.85 18.5" fill="#9b8c5e" fill-rule="evenodd" stroke="none"/>
      <path d="M33.65 10.25 L33.65 10.15 36.45 9.5 36.7 9.65 37.9 10.25 35.75 11.0 34.85 10.95 33.65 10.25 M37.3 9.4 L37.85 9.2 39.55 7.8 39.9 7.9 39.75 8.0 39.75 8.15 38.7 10.0 38.7 10.15 37.3 9.4 M16.75 15.6 L18.0 16.05 18.95 16.05 19.8 15.9 21.0 16.5 21.0 16.7 19.85 16.85 18.45 16.7 16.75 15.6 M19.05 15.6 L19.4 15.1 23.6 12.85 24.85 13.3 26.05 14.05 26.05 14.3 24.55 15.4 21.05 16.4 19.5 15.7 19.05 15.6 M28.35 14.05 L29.5 14.05 31.95 13.35 32.2 12.45 34.55 13.65 33.3 14.55 30.0 14.5 28.35 14.05" fill="#faf0c0" fill-rule="evenodd" stroke="none"/>
      <path d="M25.8 22.2 L22.3 22.9 Q20.6 21.65 19.6 20.3 21.8 21.8 21.6 19.8 L23.35 21.9 25.8 22.2 M27.35 17.4 L29.05 17.4 29.2 17.45 30.45 18.4 30.45 19.2 Q28.8 21.1 27.4 19.9 L28.5 19.4 28.6 18.4 27.35 17.4" fill="#695c41" fill-rule="evenodd" stroke="none"/>
      <path d="M30.45 19.2 L29.95 20.15 30.2 20.25 29.5 20.75 26.75 21.3 24.85 20.45 26.3 20.45 27.4 19.9 Q28.8 21.1 30.45 19.2" fill="#e7dfc2" fill-rule="evenodd" stroke="none"/>
      <path d="M27.35 17.4 L29.05 17.4 29.2 17.45" fill="none" stroke="#000000" stroke-linecap="round" stroke-linejoin="round" stroke-opacity="0.3019608" stroke-width="0.05"/>
      <path d="M36.7 9.65 L36.45 9.5 33.65 10.15 33.65 10.25 M37.9 10.25 L36.7 9.65 37.3 9.4 37.85 9.2 39.55 7.8 39.9 7.9 39.75 8.0 M39.75 8.15 L39.55 9.75 39.1 11.2 39.15 12.1 39.9 14.35 35.75 18.5 35.1 18.85 30.0 21.35 25.8 22.2 22.3 22.9 Q20.6 21.65 19.6 20.3 L18.95 19.35 18.45 18.3 17.55 17.9 16.95 16.8 M16.75 16.5 L16.3 15.9 16.6 15.6 16.75 15.6 18.0 16.05 18.95 16.05 19.05 15.6 19.4 15.1 23.6 12.85 24.85 13.3 26.75 13.8 27.0 14.05 27.8 14.2 28.35 14.05 29.5 14.05 31.95 13.35 32.2 12.45 33.65 10.25 M39.1 11.2 L39.1 10.85 37.9 10.25 M27.8 14.2 L27.55 14.35 27.0 14.05 M24.85 20.45 L24.55 18.6 27.35 17.4 28.6 18.4 28.5 19.4 27.4 19.9 M27.8 14.2 L30.0 14.5 M19.8 15.9 L21.0 16.5 21.0 16.7 M24.85 20.45 L26.3 20.45 27.4 19.9 M36.05 17.05 L35.9 14.7 36.7 14.3 37.15 15.3 36.05 17.05 35.6 17.9 35.1 18.85 M18.95 16.05 L19.8 15.9 19.5 15.7 M18.45 18.3 L19.65 18.6 20.85 18.5" fill="none" stroke="#000000" stroke-linecap="round" stroke-linejoin="round" stroke-opacity="0.15294118" stroke-width="0.25"/>
      <path d="M33.15 19.4 L33.15 19.45 33.25 19.9 33.5 21.0 33.6 21.7 33.55 21.9 33.4 22.1 32.95 22.0 32.8 21.75 32.65 21.25 32.25 20.0 32.2 19.85 32.05 19.35 33.1 19.3 33.15 19.4" fill="#e7dfc2" fill-rule="evenodd" stroke="none"/>
      <path d="M33.15 19.4 L33.1 19.3 32.05 19.35 32.2 19.85 32.25 20.0 32.65 21.25 32.8 21.75 32.95 22.0 33.4 22.1 33.55 21.9 33.6 21.7 33.5 21.0 33.25 19.9 33.15 19.45 33.15 19.4 Z" fill="none" stroke="#000000" stroke-linecap="round" stroke-linejoin="round" stroke-opacity="0.3019608" stroke-width="0.5"/>
      <path d="M34.0 18.85 L35.35 18.75 35.3 19.15 35.3 19.3 35.1 20.4 35.0 20.85 34.8 21.05 34.3 21.2 34.05 21.05 33.95 20.9 33.9 20.3 33.95 19.4 34.0 19.0 34.0 18.95 34.0 18.85" fill="#e7dfc2" fill-rule="evenodd" stroke="none"/>
      <path d="M34.0 18.85 L35.35 18.75 35.3 19.15 35.3 19.3 35.1 20.4 35.0 20.85 34.8 21.05 34.3 21.2 34.05 21.05 33.95 20.9 33.9 20.3 33.95 19.4 34.0 19.0 34.0 18.95 34.0 18.85 Z" fill="none" stroke="#000000" stroke-linecap="round" stroke-linejoin="round" stroke-opacity="0.3019608" stroke-width="0.5"/>
      <path d="M27.7 21.0 L27.8 21.1 27.9 21.15 28.25 21.5 29.15 22.5 29.7 23.15 29.85 23.45 29.9 23.75 29.6 24.05 29.35 23.95 28.9 23.6 27.8 22.6 27.7 22.5 27.25 22.1 Q27.0 20.95 27.7 21.0" fill="#e7dfc2" fill-rule="evenodd" stroke="none"/>
      <path d="M27.7 21.0 Q27.0 20.95 27.25 22.1 L27.7 22.5 27.8 22.6 28.9 23.6 29.35 23.95 29.6 24.05 29.9 23.75 29.85 23.45 29.7 23.15 29.15 22.5 28.25 21.5 27.9 21.15 27.8 21.1 27.7 21.0 Z" fill="none" stroke="#000000" stroke-linecap="round" stroke-linejoin="round" stroke-opacity="0.3019608" stroke-width="0.5"/>
      <path d="M31.2 20.85 L31.45 22.0 31.55 22.65 31.5 22.9 31.3 23.05 Q31.15 23.2 30.9 22.95 L30.75 22.7 30.55 22.2 30.2 21.0 30.15 20.85 30.0 20.3 31.05 20.25 31.1 20.35 31.1 20.45 31.2 20.85" fill="#e7dfc2" fill-rule="evenodd" stroke="none"/>
      <path d="M31.2 20.85 L31.45 22.0 31.55 22.65 31.5 22.9 31.3 23.05 Q31.15 23.2 30.9 22.95 L30.75 22.7 30.55 22.2 30.2 21.0 30.15 20.85 30.0 20.3 31.05 20.25 31.1 20.35 31.1 20.45 31.2 20.85 Z" fill="none" stroke="#000000" stroke-linecap="round" stroke-linejoin="round" stroke-opacity="0.3019608" stroke-width="0.5"/>
      <path d="M25.55 16.8 Q24.9 17.15 24.7 17.95 24.45 18.65 24.75 19.3 24.9 19.95 25.55 20.2 L26.9 20.1 27.7 19.05 Q28.0 18.4 27.7 17.7 27.45 16.95 26.75 16.75 L25.55 16.8 M26.05 18.0 L26.6 18.05 27.0 18.35 27.0 19.0 26.65 19.4 26.0 19.45 Q25.7 19.4 25.7 19.15 25.45 18.8 25.65 18.5 L26.05 18.0" fill="#b8b188" fill-rule="evenodd" stroke="none"/>
      <path d="M28.15 15.75 L25.9 15.95 Q24.8 16.6 24.45 17.9 23.9 19.15 24.4 20.35 24.9 21.55 26.05 21.95 L28.3 21.75 Q29.35 21.15 29.8 19.9 30.25 18.55 29.8 17.4 29.3 16.2 28.15 15.75 M25.55 16.8 L26.75 16.75 Q27.45 16.95 27.7 17.7 28.0 18.4 27.7 19.05 L26.9 20.1 25.55 20.2 Q24.9 19.95 24.75 19.3 24.45 18.65 24.7 17.95 24.9 17.15 25.55 16.8" fill="#5e5504" fill-rule="evenodd" stroke="none"/>
      <path d="M26.05 18.0 L25.65 18.5 Q25.45 18.8 25.7 19.15 25.7 19.4 26.0 19.45 L26.65 19.4 27.0 19.0 27.0 18.35 26.6 18.05 26.05 18.0 M26.6 18.7 L26.65 18.95 26.45 19.1 26.2 19.15 26.1 18.95 26.1 18.75 26.2 18.55 26.45 18.6 26.6 18.7" fill="#430101" fill-rule="evenodd" stroke="none"/>
      <path d="M26.6 18.7 L26.45 18.6 26.2 18.55 26.1 18.75 26.1 18.95 26.2 19.15 26.45 19.1 26.65 18.95 26.6 18.7" fill="#d2ccb5" fill-rule="evenodd" stroke="none"/>
      <path d="M28.15 15.75 L25.9 15.95 Q24.8 16.6 24.45 17.9 23.9 19.15 24.4 20.35 24.9 21.55 26.05 21.95 L28.3 21.75 Q29.35 21.15 29.8 19.9 30.25 18.55 29.8 17.4 29.3 16.2 28.15 15.75 Z" fill="none" stroke="#000000" stroke-linecap="round" stroke-linejoin="round" stroke-opacity="0.3019608" stroke-width="0.05"/>
      <path d="M34.85 13.5 Q34.4 14.0 34.3 14.8 34.15 15.55 34.4 16.05 34.55 16.6 35.05 16.6 35.5 16.65 35.95 16.1 L36.5 14.9 Q36.65 14.15 36.45 13.65 36.2 13.05 35.7 13.05 35.2 13.05 34.85 13.5 M35.3 14.45 Q35.45 14.3 35.65 14.3 L35.95 14.45 35.95 15.1 35.75 15.55 Q35.5 15.85 35.3 15.8 L35.05 15.6 Q34.9 15.4 35.0 15.05 L35.3 14.45" fill="#b8b188" fill-rule="evenodd" stroke="none"/>
      <path d="M34.85 13.5 Q35.2 13.05 35.7 13.05 36.2 13.05 36.45 13.65 36.65 14.15 36.5 14.9 L35.95 16.1 Q35.5 16.65 35.05 16.6 34.55 16.6 34.4 16.05 34.15 15.55 34.3 14.8 34.4 14.0 34.85 13.5 M35.05 12.6 Q34.3 13.55 34.1 14.85 33.8 16.15 34.25 17.1 34.65 18.05 35.45 18.1 36.3 18.1 37.05 17.15 37.75 16.35 38.05 15.0 38.25 13.7 37.9 12.75 37.5 11.8 36.65 11.75 35.85 11.7 35.05 12.6" fill="#5e5504" fill-rule="evenodd" stroke="none"/>
      <path d="M35.3 14.45 L35.0 15.05 Q34.9 15.4 35.05 15.6 L35.3 15.8 Q35.5 15.85 35.75 15.55 L35.95 15.1 35.95 14.45 35.65 14.3 Q35.45 14.3 35.3 14.45 M35.7 14.95 L35.75 15.15 35.55 15.3 35.4 15.45 35.35 15.3 35.35 15.15 35.4 14.95 35.6 14.9 35.7 14.95" fill="#430101" fill-rule="evenodd" stroke="none"/>
      <path d="M35.7 14.95 L35.6 14.9 35.4 14.95 35.35 15.15 35.35 15.3 35.4 15.45 35.55 15.3 35.75 15.15 35.7 14.95" fill="#d2ccb5" fill-rule="evenodd" stroke="none"/>
      <path d="M35.05 12.6 Q34.3 13.55 34.1 14.85 33.8 16.15 34.25 17.1 34.65 18.05 35.45 18.1 36.3 18.1 37.05 17.15 37.75 16.35 38.05 15.0 38.25 13.7 37.9 12.75 37.5 11.8 36.65 11.75 35.85 11.7 35.05 12.6 Z" fill="none" stroke="#000000" stroke-linecap="round" stroke-linejoin="round" stroke-opacity="0.3019608" stroke-width="0.05"/>
      <path d="M31.6 10.6 L33.45 10.6 32.2 12.45 31.95 13.35 29.5 14.05 28.35 14.05 28.2 14.1 28.5 12.9 29.55 10.65 31.6 10.6 M4.45 18.55 L4.5 18.8 4.45 18.7 4.45 18.55 M5.25 17.4 L5.2 17.35 5.25 17.4 M20.75 35.35 L20.7 35.35 20.8 35.35 20.75 35.35" fill="none" stroke="#000000" stroke-linecap="round" stroke-linejoin="round" stroke-opacity="0.3019608" stroke-width="0.5"/>
    </g>
  </defs>
</svg>
