<?xml version="1.0" encoding="UTF-8" standalone="no"?>
<svg xmlns:xlink="http://www.w3.org/1999/xlink" height="440.0px" width="440.0px" xmlns="http://www.w3.org/2000/svg">
  <g transform="matrix(10.0, 0.0, 0.0, 10.0, 0.0, 0.0)">
    <use height="44.0" transform="matrix(1.0, 0.0, 0.0, 1.0, 0.0, 0.0)" width="44.0" xlink:href="#shape0"/>
    <use height="17.25" transform="matrix(0.3963, 0.1727, 0.0, 0.4118, 35.3649, 11.8099)" width="19.1" xlink:href="#shape1"/>
    <use height="10.7" transform="matrix(-0.3431, -0.0507, -0.0492, 0.3592, 8.3539, 20.8941)" width="15.75" xlink:href="#shape2"/>
    <use height="17.15" transform="matrix(1.0, 0.0, 0.0, 1.0, 4.2, 23.05)" width="11.25" xlink:href="#shape3"/>
    <use height="65.5" transform="matrix(0.0096, 0.0131, -0.0107, 0.0112, 7.935, 29.5529)" width="65.5" xlink:href="#sprite0"/>
    <use height="0.3" transform="matrix(1.6667, 0.0, 0.0, 1.0, 7.7167, 30.0)" width="0.2" xlink:href="#shape5"/>
    <use height="65.5" transform="matrix(0.0096, 0.0131, -0.0107, 0.0112, 11.335, 31.6529)" width="65.5" xlink:href="#sprite0"/>
    <use height="5.95" transform="matrix(1.0, 0.0, 0.0, 1.0, 4.45, 30.85)" width="7.0" xlink:href="#shape6"/>
    <use height="65.5" transform="matrix(0.0051, 0.0213, -0.0172, 0.0102, 7.0988, 30.6661)" width="65.5" xlink:href="#sprite0"/>
    <use height="65.5" transform="matrix(0.0328, 0.0164, -0.0086, 0.0223, 7.2569, 30.9312)" width="65.5" xlink:href="#sprite0"/>
    <use height="0.7" transform="matrix(1.0, 0.0, 0.0, 1.0, 6.65, 31.3)" width="1.5" xlink:href="#shape7"/>
    <use height="65.5" transform="matrix(0.0034, 0.0144, -0.0116, 0.0069, 7.3179, 33.7039)" width="65.5" xlink:href="#sprite0"/>
    <use height="0.3" transform="matrix(1.0, 0.0, 0.0, 1.0, 7.0, 34.1)" width="0.2" xlink:href="#shape5"/>
    <use height="17.25" transform="matrix(0.393, 0.2355, -0.1203, 0.4459, 16.9813, 17.6164)" width="19.1" xlink:href="#shape1"/>
    <use height="10.7" transform="matrix(0.3904, 0.0491, -0.0477, 0.4088, 12.5876, 22.9478)" width="15.75" xlink:href="#shape2"/>
    <use height="10.7" transform="matrix(-0.262, -0.0387, -0.0537, 0.3923, 10.7415, 23.2248)" width="15.75" xlink:href="#shape2"/>
    <use height="11.6" transform="matrix(1.0, 0.0, 0.0, 1.0, 21.05, 14.55)" width="17.45" xlink:href="#shape8"/>
    <use height="17.25" transform="matrix(-0.3852, 0.1379, 0.0503, 0.4313, 40.4461, 6.274)" width="19.1" xlink:href="#shape1"/>
    <use height="10.7" transform="matrix(0.0455, -0.3903, 0.3786, 0.0477, 38.1361, 16.8114)" width="15.75" xlink:href="#shape2"/>
    <use height="17.25" transform="matrix(-0.1785, 0.3805, 0.3291, 0.2681, 15.3246, 4.0112)" width="19.1" xlink:href="#shape1"/>
    <use height="17.25" transform="matrix(-0.088, 0.3803, 0.3291, 0.2681, 6.1597, 6.3127)" width="19.1" xlink:href="#shape1"/>
    <use height="10.7" transform="matrix(-0.3026, 0.2361, 0.229, 0.3168, 13.2616, 7.3173)" width="15.75" xlink:href="#shape2"/>
    <use height="16.95" transform="matrix(1.0, 0.0, 0.0, 1.0, 1.45, 5.5)" width="34.2" xlink:href="#shape9"/>
    <use height="10.7" transform="matrix(-0.3431, -0.0507, -0.0492, 0.3592, 8.0539, 19.9441)" width="15.75" xlink:href="#shape2"/>
    <use height="34.95" transform="matrix(1.0, 0.0, 0.0, 1.0, 1.45, 5.5)" width="41.65" xlink:href="#shape10"/>
  </g>
  <defs>
    <g id="shape0" transform="matrix(1.0, 0.0, 0.0, 1.0, 0.0, 0.0)">
      <path d="M44.0 44.0 L0.0 44.0 0.0 0.0 44.0 0.0 44.0 44.0" fill="#43adca" fill-opacity="0.0" fill-rule="evenodd" stroke="none"/>
    </g>
    <g id="shape1" transform="matrix(1.0, 0.0, 0.0, 1.0, 9.55, 8.6)">
      <path d="M0.6 -5.9 L-5.95 -0.85 -5.6 1.05 -0.4 -3.7 2.0 -5.2 0.6 -5.9 M4.0 -0.3 L5.7 -2.6 3.15 -4.35 0.5 -3.5 -4.7 1.15 -4.7 2.95 -4.35 3.1 -4.65 4.4 -8.55 5.45 -9.3 2.55 -7.85 -1.1 -1.95 -6.0 2.5 -8.35 5.7 -7.8 9.3 -3.8 8.2 1.3 5.35 3.55 5.05 2.7 7.5 0.55 8.25 -3.25 6.95 -2.95 6.9 -2.95 6.85 -2.8 6.05 -0.3 4.45 1.0 4.0 -0.3 M-6.65 0.95 L-7.25 0.7 Q-7.6 0.7 -7.85 0.95 L-8.1 1.65 -7.6 2.9 -6.85 3.55 Q-6.55 3.4 -6.45 2.75 L-6.4 1.65 -6.65 0.95 M7.3 -4.25 L5.9 -5.5 4.75 -4.95 5.85 -3.7 5.95 -3.6 6.0 -3.6 7.3 -4.25" fill="#d4d3cf" fill-rule="evenodd" stroke="none"/>
      <path d="M7.3 -4.25 L6.0 -3.6 5.95 -3.6 5.85 -3.7 4.75 -4.95 5.9 -5.5 7.3 -4.25 M-6.65 0.95 L-6.4 1.65 -6.45 2.75 Q-6.55 3.4 -6.85 3.55 L-7.6 2.9 -8.1 1.65 -7.85 0.95 Q-7.6 0.7 -7.25 0.7 L-6.65 0.95" fill="#f0efeb" fill-rule="evenodd" stroke="none"/>
      <path d="M0.6 -5.9 L2.0 -5.2 -0.4 -3.7 -5.6 1.05 -5.95 -0.85 0.6 -5.9" fill="#999793" fill-rule="evenodd" stroke="none"/>
      <path d="M4.0 -0.3 L4.45 1.0 1.2 3.7 1.15 3.75 1.65 5.7 5.05 2.7 5.35 3.55 0.25 7.6 -4.45 8.4 -8.35 6.15 -8.55 5.45 -4.65 4.4 -4.35 3.1 -2.1 4.35 3.05 1.0 4.0 -0.3" fill="#696864" fill-rule="evenodd" stroke="none"/>
      <path d="M4.45 1.0 L6.05 -0.3 6.85 -2.8 6.9 -2.95 6.95 -2.95 8.25 -3.25 7.5 0.55 5.05 2.7 1.65 5.7 1.15 3.75 1.2 3.7 4.45 1.0" fill="#85837f" fill-rule="evenodd" stroke="none"/>
      <path d="M5.35 3.55 L8.2 1.3 9.3 -3.8 5.7 -7.8 2.5 -8.35 -1.95 -6.0 -7.85 -1.1 -9.3 2.55 -8.55 5.45 -8.35 6.15 -4.45 8.4 0.25 7.6 5.35 3.55" fill="none" stroke="#3d3d3d" stroke-linecap="round" stroke-linejoin="round" stroke-opacity="0.8627451" stroke-width="0.5"/>
      <path d="M-4.35 3.1 L-4.7 2.95 -4.7 1.15 0.5 -3.5 3.15 -4.35 5.7 -2.6 4.0 -0.3 M-4.35 3.1 L-2.1 4.35 3.05 1.0 4.0 -0.3" fill="none" stroke="#292929" stroke-linecap="round" stroke-linejoin="round" stroke-opacity="0.6431373" stroke-width="0.5"/>
    </g>
    <g id="shape2" transform="matrix(1.0, 0.0, 0.0, 1.0, 7.85, 5.3)">
      <path d="M-7.1 4.9 Q-8.3 3.6 -6.75 1.7 L0.6 -2.7 Q3.95 -4.85 6.05 -5.05 7.8 -4.4 7.65 -2.15 L3.75 1.05 -2.7 4.55 -7.1 4.9 M6.35 -4.0 Q6.9 -2.95 -3.0 1.75 L-2.4 2.85 -2.6 3.7 Q3.5 0.5 6.8 -2.45 7.15 -3.4 6.35 -4.0 M-4.8 2.2 L-6.45 2.4 -6.85 3.55 -6.0 4.2 -4.85 3.65 -4.8 2.2" fill="#7b7a79" fill-rule="evenodd" stroke="none"/>
      <path d="M6.35 -4.0 Q7.15 -3.4 6.8 -2.45 3.5 0.5 -2.6 3.7 L-2.4 2.85 -3.0 1.75 Q6.9 -2.95 6.35 -4.0" fill="#585753" fill-rule="evenodd" stroke="none"/>
      <path d="M-4.8 2.2 L-4.85 3.65 -6.0 4.2 -6.85 3.55 -6.45 2.4 -4.8 2.2" fill="#898988" fill-rule="evenodd" stroke="none"/>
      <path d="M-7.1 4.9 L-2.7 4.55 3.75 1.05 7.65 -2.15 Q7.8 -4.4 6.05 -5.05 M-7.15 4.9 L-7.1 4.95 -7.1 4.9 -7.15 4.9" fill="none" stroke="#2f2f2f" stroke-linecap="round" stroke-linejoin="round" stroke-opacity="0.8509804" stroke-width="0.5"/>
      <path d="M6.05 -5.05 Q3.95 -4.85 0.6 -2.7 L-6.75 1.7 Q-8.3 3.6 -7.1 4.9 Z" fill="none" stroke="#444444" stroke-linecap="round" stroke-linejoin="round" stroke-opacity="0.83137256" stroke-width="0.5"/>
    </g>
    <g id="shape3" transform="matrix(1.0, 0.0, 0.0, 1.0, -4.2, -23.05)">
      <path d="M10.9 24.8 L10.8 24.8 10.8 24.75 10.9 24.8" fill="#f0efeb" fill-rule="evenodd" stroke="none"/>
      <path d="M7.05 27.1 L7.4 25.05 9.85 23.05 13.2 23.75 Q14.15 26.8 13.65 29.35 L12.95 26.3 12.85 27.95 12.45 29.6 11.9 29.25 Q12.55 27.05 12.1 26.0 L10.95 24.85 11.95 25.0 11.85 24.3 10.75 23.95 10.8 24.65 9.9 23.75 Q8.4 25.0 7.6 27.0 L7.05 27.1" fill="#c7c6c3" fill-rule="evenodd" stroke="none"/>
      <path d="M10.8 24.65 L10.75 23.95 11.85 24.3 11.95 25.0 10.95 24.85 10.9 24.8 10.8 24.75 10.8 24.65" fill="#edece8" fill-rule="evenodd" stroke="none"/>
      <path d="M7.6 27.0 Q8.4 25.0 9.9 23.75 10.25 24.3 8.75 26.8 L8.2 29.7 6.95 29.8 7.6 27.0 M12.45 29.6 L12.85 27.95 12.95 26.3 13.65 29.35 12.45 29.6" fill="#969593" fill-rule="evenodd" stroke="none"/>
      <path d="M7.05 27.1 L7.6 27.0 6.95 29.8 6.6 29.5 7.05 27.1 M9.9 23.75 L10.8 24.65 10.8 24.75 10.8 24.8 10.9 24.8 10.95 24.85 12.1 26.0 10.35 25.2 9.6 26.7 9.0 29.15 8.2 29.7 8.75 26.8 Q10.25 24.3 9.9 23.75 M13.65 29.35 Q14.15 26.8 13.2 23.75 15.25 25.65 13.65 30.8 L13.65 29.35" fill="#737270" fill-rule="evenodd" stroke="none"/>
      <path d="M13.2 23.75 L9.85 23.05 7.4 25.05 7.05 27.1 M12.1 26.0 Q12.55 27.05 11.9 29.25 L12.45 29.6 M13.2 23.75 Q15.25 25.65 13.65 30.8 L13.65 29.35 12.45 29.6 M12.1 26.0 L10.35 25.2 9.6 26.7 9.0 29.15 8.2 29.7 6.95 29.8 6.6 29.5 7.05 27.1" fill="none" stroke="#000000" stroke-linecap="round" stroke-linejoin="round" stroke-opacity="0.2" stroke-width="0.05"/>
      <path d="M4.45 35.8 L4.7 33.55 5.05 31.4 5.4 30.4 Q6.0 29.25 7.05 28.9 L12.1 29.0 Q8.35 33.6 4.45 35.8 M13.15 29.95 L13.1 31.25 Q10.2 35.65 7.5 38.05 L6.0 37.95 Q9.15 33.7 13.15 29.95 M13.1 32.3 Q13.0 34.9 12.35 37.55 L12.25 37.95 8.1 38.2 Q9.8 35.75 13.1 32.3" fill="#e3b202" fill-rule="evenodd" stroke="none"/>
      <path d="M13.15 29.05 L13.55 29.2 13.75 29.3 14.4 29.7 14.45 29.75 14.8 30.1 Q15.65 31.1 15.4 32.7 14.95 30.85 14.3 30.7 13.8 30.55 13.1 31.55 L13.1 31.25 13.15 29.95 13.15 29.05 M14.55 39.1 Q14.05 40.1 12.75 40.2 12.4 39.15 11.65 38.45 L12.25 37.95 12.35 37.55 Q13.2 38.9 14.55 39.1" fill="#734400" fill-rule="evenodd" stroke="none"/>
      <path d="M12.1 29.0 L13.15 29.05 13.15 29.95 Q9.15 33.7 6.0 37.95 4.75 37.75 4.2 37.4 4.15 36.9 4.45 35.8 8.35 33.6 12.1 29.0 M13.1 31.25 L13.1 31.55 13.1 31.65 13.1 31.85 13.1 32.25 13.1 32.3 Q9.8 35.75 8.1 38.2 L7.5 38.05 Q10.2 35.65 13.1 31.25" fill="#fcd02d" fill-rule="evenodd" stroke="none"/>
      <path d="M15.4 32.7 L15.2 34.0 Q13.85 35.05 13.1 32.3 L13.1 32.25 13.1 31.85 13.1 31.65 13.1 31.55 Q13.8 30.55 14.3 30.7 14.95 30.85 15.4 32.7 M14.95 36.15 L14.55 39.1 Q13.2 38.9 12.35 37.55 12.8 37.2 13.05 34.3 L13.05 34.1 Q14.45 34.5 14.95 36.15" fill="#965c00" fill-rule="evenodd" stroke="none"/>
      <path d="M15.2 34.0 L14.95 36.15 Q14.45 34.5 13.05 34.1 L13.1 32.3 Q13.85 35.05 15.2 34.0" fill="#b07500" fill-rule="evenodd" stroke="none"/>
      <path d="M4.3 38.35 L4.2 37.4 Q4.75 37.75 6.0 37.95 L7.5 38.05 8.1 38.2 12.25 37.95 11.65 38.45 8.6 38.25 8.2 38.25 7.35 38.2 5.75 38.2 4.3 38.35 M13.05 34.1 L13.05 34.3 Q12.8 37.2 12.35 37.55 13.0 34.9 13.1 32.3 L13.05 34.1" fill="#ffd845" fill-rule="evenodd" stroke="none"/>
      <path d="M12.75 40.2 L7.55 40.2 7.2 40.1 6.05 39.75 4.95 39.1 4.3 38.35 5.75 38.2 7.35 38.2 8.2 38.25 8.6 38.25 11.65 38.45 Q12.4 39.15 12.75 40.2" fill="#5e3800" fill-rule="evenodd" stroke="none"/>
      <path d="M12.1 29.0 L13.15 29.05 13.55 29.2 13.75 29.3 14.4 29.7 14.45 29.75 14.8 30.1 Q15.65 31.1 15.4 32.7 L15.2 34.0 14.95 36.15 14.55 39.1 Q14.05 40.1 12.75 40.2 L7.55 40.2 7.2 40.1 6.05 39.75 4.95 39.1 4.3 38.35 4.2 37.4 Q4.15 36.9 4.45 35.8 L4.7 33.55 5.05 31.4 5.4 30.4 Q6.0 29.25 7.05 28.9 L12.1 29.0 Z" fill="none" stroke="#000000" stroke-linecap="round" stroke-linejoin="round" stroke-opacity="0.4" stroke-width="0.05"/>
      <path d="M6.0 35.55 Q6.35 35.85 6.8 35.95 L7.05 35.95 7.25 35.95 8.1 36.1 9.65 35.5 9.65 35.45 9.95 35.1 9.45 36.75 8.0 37.2 Q6.8 37.2 6.1 36.2 L6.05 36.15 5.85 35.8 5.95 35.6 6.0 35.55 M7.4 36.55 L7.35 36.8 7.4 36.55 M6.8 35.95 L6.6 36.35 6.8 35.95 M8.9 36.5 L8.8 36.8 8.9 36.5" fill="#253b5e" fill-rule="evenodd" stroke="none"/>
      <path d="M9.35 37.2 L7.95 37.5 Q6.65 37.5 5.85 36.4 L5.85 36.35 5.6 36.05 5.85 35.8 6.05 36.15 6.1 36.2 Q6.8 37.2 8.0 37.2 L9.45 36.75 9.35 37.2" fill="#6b4305" fill-rule="evenodd" stroke="none"/>
      <path d="M8.55 30.25 L8.7 30.25 9.1 30.3 9.45 30.4 9.65 30.5 9.75 30.55 10.15 30.75 10.3 30.9 10.65 31.3 10.7 31.3 10.7 31.35 10.95 31.75 10.95 31.8 11.25 32.75 11.25 32.8 11.25 33.75 11.25 34.0 11.1 33.95 10.4 33.95 9.95 35.1 9.65 35.45 9.65 35.5 8.1 36.1 7.25 35.95 7.05 35.95 6.8 35.95 Q6.35 35.85 6.0 35.55 L5.65 35.45 Q5.4 33.4 6.45 31.4 L6.55 31.4 7.15 31.15 7.3 31.15 7.55 31.15 7.85 31.2 8.25 31.3 8.45 31.4 8.45 31.3 8.55 30.45 8.55 30.25 M10.8 32.8 L11.25 32.8 10.8 32.8 M9.35 30.9 L9.35 30.65 9.35 30.9 M10.0 31.3 L10.15 31.1 10.0 31.3" fill="url(#gradient0)" fill-rule="evenodd" stroke="none"/>
      <path d="M11.25 34.0 L11.25 33.75 11.25 32.8 11.25 32.75 10.95 31.8 10.95 31.75 10.7 31.35 10.7 31.3 10.9 31.1 Q11.7 32.2 11.55 33.75 11.35 35.3 10.35 36.4 L10.15 36.2 10.55 35.7 11.05 34.65 11.25 34.0" fill="url(#gradient1)" fill-rule="evenodd" stroke="none"/>
      <path d="M8.45 31.3 L8.45 31.4 8.25 31.3 8.45 31.3 M10.9 31.1 L10.9 31.05 10.4 30.55 Q9.95 30.15 9.4 30.05 L8.75 29.95 Q7.75 29.95 6.9 30.6 L6.4 31.0 6.4 31.05 6.35 31.05 6.3 31.15 6.15 31.3 6.1 31.4 6.0 31.4 6.05 31.35 6.45 30.85 6.85 30.5 Q7.55 29.9 8.35 29.75 L8.55 29.75 8.95 29.7 9.0 29.7 9.6 29.8 Q10.2 29.95 10.7 30.35 L11.25 30.95 Q12.1 32.15 11.95 33.8 11.8 35.2 11.0 36.25 L10.7 36.65 9.6 37.45 9.2 37.6 8.2 37.75 Q6.8 37.75 5.9 36.55 L5.6 36.05 5.85 36.35 5.85 36.4 Q6.65 37.5 7.95 37.5 L9.35 37.2 9.65 37.0 9.8 36.9 10.3 36.45 10.35 36.4 Q11.35 35.3 11.55 33.75 11.7 32.2 10.9 31.1" fill="url(#gradient2)" fill-rule="evenodd" stroke="none"/>
      <path d="M10.7 31.3 L10.65 31.3 10.3 30.9 10.15 30.75 9.75 30.55 9.65 30.5 9.45 30.4 9.1 30.3 8.7 30.25 8.55 30.25 7.85 30.45 7.8 30.45 7.1 30.85 6.95 30.9 6.95 30.95 6.6 31.25 6.55 31.25 6.4 31.05 6.4 31.0 6.9 30.6 Q7.75 29.95 8.75 29.95 L9.4 30.05 Q9.95 30.15 10.4 30.55 L10.9 31.05 10.9 31.1 10.7 31.3" fill="url(#gradient3)" fill-rule="evenodd" stroke="none"/>
      <path d="M8.55 30.25 L8.55 30.45 8.45 31.3 8.25 31.3 7.85 31.2 7.55 31.15 7.3 31.15 7.15 31.15 6.55 31.4 6.45 31.4 6.55 31.3 6.55 31.25 6.6 31.25 6.95 30.95 6.95 30.9 7.1 30.85 7.8 30.45 7.85 30.45 8.55 30.25 M5.65 35.45 L6.0 35.55 5.95 35.6 5.85 35.8 5.7 35.5 5.65 35.45 M9.95 35.1 L10.4 33.95 11.1 33.95 11.25 34.0 11.05 34.65 10.55 35.7 10.15 36.2 9.75 36.6 9.45 36.75 9.95 35.1 M10.65 34.6 L11.05 34.65 10.65 34.6 M7.85 31.2 L7.85 30.45 7.85 31.2" fill="url(#gradient4)" fill-rule="evenodd" stroke="none"/>
      <path d="M6.45 31.4 Q5.4 33.4 5.65 35.45 L5.7 35.5 5.85 35.8 5.6 36.05 5.4 35.55 5.35 35.5 5.35 35.4 Q5.0 33.85 6.0 31.4 L6.1 31.4 6.15 31.3 6.3 31.15 6.35 31.05 6.4 31.05 6.55 31.25 6.55 31.3 6.45 31.4" fill="url(#gradient5)" fill-rule="evenodd" stroke="none"/>
      <path d="M10.35 36.4 L10.3 36.45 9.8 36.9 9.65 37.0 9.35 37.2 9.45 36.75 9.75 36.6 10.15 36.2 10.35 36.4" fill="url(#gradient6)" fill-rule="evenodd" stroke="none"/>
      <path d="M10.7 31.3 L10.65 31.3 10.3 30.9 10.15 30.75 9.75 30.55 9.65 30.5 9.45 30.4 9.1 30.3 8.7 30.25 8.55 30.25 M6.45 31.4 Q5.4 33.4 5.65 35.45 L5.7 35.5 5.85 35.8 M11.25 34.0 L11.25 33.75 11.25 32.8 10.8 32.8 M10.7 31.3 L10.7 31.35 10.95 31.75 10.95 31.8 11.25 32.75 11.25 32.8 M6.4 31.05 L6.4 31.0 6.9 30.6 Q7.75 29.95 8.75 29.95 L9.4 30.05 Q9.95 30.15 10.4 30.55 L10.9 31.05 10.9 31.1 Q11.7 32.2 11.55 33.75 11.35 35.3 10.35 36.4 L10.3 36.45 9.8 36.9 9.65 37.0 9.35 37.2 7.95 37.5 Q6.65 37.5 5.85 36.4 L5.85 36.35 5.6 36.05 5.9 36.55 Q6.8 37.75 8.2 37.75 L9.2 37.6 9.6 37.45 10.7 36.65 11.0 36.25 Q11.8 35.2 11.95 33.8 12.1 32.15 11.25 30.95 L10.7 30.35 Q10.2 29.95 9.6 29.8 L9.0 29.7 8.95 29.7 8.55 29.75 8.35 29.75 Q7.55 29.9 6.85 30.5 L6.45 30.85 6.05 31.35 6.0 31.4 M6.1 31.4 L6.15 31.3 6.3 31.15 6.35 31.05 6.4 31.05 M6.55 31.25 L6.6 31.25 6.95 30.95 6.95 30.9 7.1 30.85 7.8 30.45 7.85 30.45 8.55 30.25 M11.05 34.65 L10.65 34.6 M11.25 34.0 L11.05 34.65 10.55 35.7 10.15 36.2 M9.35 30.65 L9.35 30.9 M8.45 31.3 L8.25 31.3 M6.55 31.25 L6.55 31.3 6.45 31.4 M5.6 36.05 L5.4 35.55 5.35 35.5 5.35 35.4 Q5.0 33.85 6.0 31.4 M5.95 35.6 L6.0 35.55 M9.45 36.75 L8.0 37.2 Q6.8 37.2 6.1 36.2 L6.05 36.15 5.85 35.8 M6.6 36.35 L6.8 35.95 M7.35 36.8 L7.4 36.55 M9.45 36.75 L9.75 36.6 10.15 36.2 M8.8 36.8 L8.9 36.5 M7.85 30.45 L7.85 31.2 M10.15 31.1 L10.0 31.3" fill="none" stroke="#000000" stroke-linecap="round" stroke-linejoin="round" stroke-opacity="0.2" stroke-width="0.05"/>
    </g>
    <linearGradient gradientTransform="matrix(-7.0E-4, -0.0039, 0.0037, -8.0E-4, 8.4, 33.7)" gradientUnits="userSpaceOnUse" id="gradient0" spreadMethod="pad" x1="-819.2" x2="819.2">
      <stop offset="0.0" stop-color="#3d6298"/>
      <stop offset="0.4549019607843137" stop-color="#1650a5"/>
      <stop offset="0.6509803921568628" stop-color="#5181cd"/>
      <stop offset="1.0" stop-color="#588cde"/>
    </linearGradient>
    <radialGradient cx="0" cy="0" gradientTransform="matrix(0.0027, 0.0037, -0.0035, 0.0037, 11.2, 32.2)" gradientUnits="userSpaceOnUse" id="gradient1" r="819.2" spreadMethod="pad">
      <stop offset="0.0" stop-color="#ffe609"/>
      <stop offset="0.5176470588235295" stop-color="#a26409"/>
      <stop offset="0.792156862745098" stop-color="#cc9900"/>
      <stop offset="1.0" stop-color="#a26409"/>
    </radialGradient>
    <linearGradient gradientTransform="matrix(-2.0E-4, 0.0046, -0.0044, -4.0E-4, 8.6, 33.75)" gradientUnits="userSpaceOnUse" id="gradient2" spreadMethod="pad" x1="-819.2" x2="819.2">
      <stop offset="0.0" stop-color="#998e7c"/>
      <stop offset="1.0" stop-color="#453f32"/>
    </linearGradient>
    <radialGradient cx="0" cy="0" gradientTransform="matrix(0.0035, -0.0037, 0.0027, 0.0037, 7.35, 30.55)" gradientUnits="userSpaceOnUse" id="gradient3" r="819.2" spreadMethod="pad">
      <stop offset="0.0" stop-color="#ffe609"/>
      <stop offset="0.5176470588235295" stop-color="#a26409"/>
      <stop offset="0.792156862745098" stop-color="#cc9900"/>
      <stop offset="1.0" stop-color="#a26409"/>
    </radialGradient>
    <linearGradient gradientTransform="matrix(-7.0E-4, -0.0039, 0.0037, -8.0E-4, 8.4, 33.7)" gradientUnits="userSpaceOnUse" id="gradient4" spreadMethod="pad" x1="-819.2" x2="819.2">
      <stop offset="0.0" stop-color="#3d6298"/>
      <stop offset="1.0" stop-color="#588cde"/>
    </linearGradient>
    <radialGradient cx="0" cy="0" gradientTransform="matrix(-0.0027, -0.0037, 0.0035, -0.0037, 5.5, 35.3)" gradientUnits="userSpaceOnUse" id="gradient5" r="819.2" spreadMethod="pad">
      <stop offset="0.0" stop-color="#ffe609"/>
      <stop offset="0.5176470588235295" stop-color="#a26409"/>
      <stop offset="0.792156862745098" stop-color="#cc9900"/>
      <stop offset="1.0" stop-color="#a26409"/>
    </radialGradient>
    <radialGradient cx="0" cy="0" gradientTransform="matrix(-0.0035, 0.0037, -0.0027, -0.0037, 9.35, 36.95)" gradientUnits="userSpaceOnUse" id="gradient6" r="819.2" spreadMethod="pad">
      <stop offset="0.0" stop-color="#ffe609"/>
      <stop offset="0.5176470588235295" stop-color="#a26409"/>
      <stop offset="0.792156862745098" stop-color="#cc9900"/>
      <stop offset="1.0" stop-color="#a26409"/>
    </radialGradient>
    <g id="sprite0" transform="matrix(1.0, 0.0, 0.0, 1.0, 32.75, 32.75)">
      <use height="65.5" transform="matrix(1.0, 0.0, 0.0, 1.0, -32.75, -32.75)" width="65.5" xlink:href="#shape4"/>
    </g>
    <g id="shape4" transform="matrix(1.0, 0.0, 0.0, 1.0, 32.75, 32.75)">
      <path d="M22.95 -23.0 Q32.5 -13.45 32.5 0.0 32.5 13.45 22.95 22.95 13.45 32.5 0.0 32.5 -13.45 32.5 -23.0 22.95 -32.5 13.45 -32.5 0.0 -32.5 -13.45 -23.0 -23.0 -13.45 -32.5 0.0 -32.5 13.45 -32.5 22.95 -23.0" fill="url(#gradient7)" fill-rule="evenodd" stroke="none"/>
      <path d="M22.95 -23.0 Q32.5 -13.45 32.5 0.0 32.5 13.45 22.95 22.95 13.45 32.5 0.0 32.5 -13.45 32.5 -23.0 22.95 -32.5 13.45 -32.5 0.0 -32.5 -13.45 -23.0 -23.0 -13.45 -32.5 0.0 -32.5 13.45 -32.5 22.95 -23.0 Z" fill="none" stroke="#000000" stroke-linecap="round" stroke-linejoin="round" stroke-opacity="0.4" stroke-width="0.5"/>
    </g>
    <radialGradient cx="0" cy="0" gradientTransform="matrix(0.0406, 0.0, 0.0, 0.0406, 0.0, 0.0)" gradientUnits="userSpaceOnUse" id="gradient7" r="819.2" spreadMethod="pad">
      <stop offset="0.0" stop-color="#ffe609"/>
      <stop offset="1.0" stop-color="#f5ad4e" stop-opacity="0.0"/>
    </radialGradient>
    <g id="shape5" transform="matrix(1.0, 0.0, 0.0, 1.0, -7.0, -34.1)">
      <path d="M7.2 34.2 L7.2 34.3 7.15 34.4 7.1 34.4 7.05 34.3 7.05 34.2 7.1 34.15 7.15 34.15 7.2 34.2" fill="#ffffcc" fill-rule="evenodd" stroke="none"/>
    </g>
    <g id="shape6" transform="matrix(1.0, 0.0, 0.0, 1.0, -4.45, -30.85)">
      <path d="M11.4 32.25 L11.45 32.3 11.4 32.4 11.3 32.45 11.25 32.4 11.2 32.3 11.25 32.2 11.3 32.2 11.4 32.25" fill="#ffffcc" fill-rule="evenodd" stroke="none"/>
      <path d="M10.25 34.55 L10.4 34.6 10.25 34.95 10.1 34.85 10.25 34.55 M9.25 31.25 L9.35 31.1 9.6 31.2 9.5 31.4 9.25 31.25 M8.8 32.0 L8.85 32.05 8.9 32.1 9.0 32.55 7.4 32.0 7.35 31.95 7.25 31.65 7.2 31.55 8.8 32.0" fill="#ffe609" fill-rule="evenodd" stroke="none"/>
      <path d="M10.1 34.85 L9.85 34.75 10.0 34.45 10.25 34.55 10.1 34.85 M7.3 36.3 L7.15 36.6 6.95 36.5 7.1 36.15 7.3 36.3 M9.1 31.6 L9.25 31.25 9.5 31.4 9.35 31.75 9.1 31.6 M9.05 32.55 L9.05 33.3 7.4 32.7 7.4 32.3 7.4 32.05 7.4 32.0 9.0 32.55 9.05 32.55 M8.3 34.85 L8.15 35.0 7.85 35.2 7.5 35.35 6.15 34.4 6.35 34.3 6.4 34.25 6.7 34.0 8.3 34.85" fill="#a26409" fill-rule="evenodd" stroke="none"/>
      <path d="M9.85 34.75 L9.7 34.7 9.5 34.65 9.7 34.3 9.85 34.4 10.0 34.45 9.85 34.75 M7.4 36.1 L7.3 36.3 7.1 36.15 7.15 36.0 7.25 35.75 7.5 35.85 7.4 36.1 M6.7 31.15 L6.7 31.1 7.5 31.35 8.3 31.6 8.25 31.6 8.35 31.65 8.55 31.75 8.75 31.95 8.8 32.0 7.2 31.55 7.15 31.5 7.05 31.35 7.0 31.3 6.7 31.15 M9.0 31.9 L9.1 31.6 9.35 31.75 9.3 31.9 9.15 32.15 9.1 32.1 9.0 31.9 M9.05 33.3 L8.85 34.05 8.8 34.15 8.3 34.85 6.7 34.0 7.15 33.45 7.2 33.25 7.4 32.7 9.05 33.3 M7.15 33.45 L8.8 34.15 7.15 33.45" fill="#cc9900" fill-rule="evenodd" stroke="none"/>
      <path d="M6.7 35.6 L6.55 35.55 5.9 34.9 5.85 34.85 5.25 34.45 5.35 34.45 5.4 34.5 5.65 34.5 5.75 34.5 5.9 34.5 6.15 34.4 7.5 35.35 7.85 35.2 8.15 35.0 8.3 34.85 8.8 34.15 8.85 34.05 9.05 33.3 9.05 32.55 8.9 32.1 8.85 32.05 8.8 32.0 8.75 31.95 8.55 31.75 8.35 31.65 8.3 31.6 7.55 31.35 8.05 31.3 8.2 31.35 8.35 31.4 8.9 31.75 9.0 31.9 9.1 32.1 9.2 32.45 Q9.4 33.2 9.0 34.1 L8.35 35.05 7.9 35.4 6.7 35.6 M6.6 35.3 L6.65 35.35 6.8 35.4 7.5 35.35 6.8 35.4 6.65 35.35 6.6 35.3 6.35 35.2 6.55 35.3 6.6 35.3 M5.85 34.85 L6.35 35.15 6.35 35.2 6.35 35.15 5.85 34.85" fill="#2c2821" fill-rule="evenodd" stroke="none"/>
      <path d="M9.05 35.6 L8.7 35.85 8.65 35.85 7.4 36.1 7.5 35.85 7.25 35.75 7.15 36.0 6.7 35.6 7.9 35.4 8.35 35.05 9.05 35.6" fill="#38322e" fill-rule="evenodd" stroke="none"/>
      <path d="M7.15 36.6 L7.1 36.8 6.85 36.7 6.95 36.5 7.15 36.6" fill="#6b4305" fill-rule="evenodd" stroke="none"/>
      <path d="M5.25 34.45 L5.15 34.35 5.1 34.35 5.05 34.3 5.0 34.3 4.6 33.6 Q4.45 33.05 4.7 32.4 L4.75 32.3 5.25 31.5 5.65 31.25 6.0 31.1 6.65 31.1 6.7 31.15 7.0 31.3 7.05 31.35 7.15 31.5 7.2 31.55 7.25 31.65 7.35 31.95 7.4 32.0 7.4 32.05 7.4 32.3 7.4 32.7 7.2 33.25 7.15 33.45 6.7 34.0 6.4 34.25 6.35 34.3 6.15 34.4 5.9 34.5 5.75 34.5 5.65 34.5 5.4 34.5 5.35 34.45 5.25 34.45 M4.85 32.3 L4.75 32.6 4.75 33.4 5.1 33.95 5.15 34.0 5.25 34.05 5.45 34.1 5.65 34.1 5.8 34.1 6.0 34.05 6.15 33.95 6.55 33.65 6.6 33.5 6.8 33.2 6.85 33.15 6.95 32.75 7.0 32.3 6.95 32.1 6.9 31.85 6.85 31.8 6.8 31.7 6.75 31.6 6.7 31.6 6.5 31.45 6.45 31.4 6.35 31.4 5.55 31.5 4.85 32.3" fill="url(#gradient8)" fill-rule="evenodd" stroke="none"/>
      <path d="M4.85 32.3 L5.55 31.5 6.35 31.4 6.45 31.4 6.5 31.45 6.7 31.6 6.75 31.6 6.8 31.7 6.85 31.8 6.9 31.85 6.95 32.1 7.0 32.3 6.95 32.75 6.85 33.15 6.8 33.2 6.6 33.5 6.55 33.65 6.15 33.95 6.0 34.05 5.8 34.1 5.65 34.1 5.45 34.1 5.25 34.05 5.15 34.0 5.1 33.95 4.75 33.4 4.75 32.6 4.85 32.3" fill="url(#gradient9)" fill-rule="evenodd" stroke="none"/>
      <path d="M9.7 34.7 L9.05 35.6 8.35 35.05 9.0 34.1 Q9.4 33.2 9.2 32.45 L9.1 32.1 9.15 32.15 9.3 31.9 9.55 32.1 9.7 32.2 10.0 32.85 10.0 32.9 9.85 34.4 9.7 34.3 9.5 34.65 9.7 34.7" fill="url(#gradient10)" fill-rule="evenodd" stroke="none"/>
      <path d="M6.7 31.1 L7.5 31.35" fill="none" stroke="#000000" stroke-linecap="round" stroke-linejoin="round" stroke-opacity="0.4" stroke-width="0.5"/>
      <path d="M4.85 32.3 L5.55 31.5 6.35 31.4 6.45 31.4 6.5 31.45 6.7 31.6 6.75 31.6 6.8 31.7 6.85 31.8 6.9 31.85 6.95 32.1 7.0 32.3 6.95 32.75 6.85 33.15 6.8 33.2 6.6 33.5 6.55 33.65 6.15 33.95 6.0 34.05 5.8 34.1 5.65 34.1 5.45 34.1 5.25 34.05 5.15 34.0 5.1 33.95 4.75 33.4 4.75 32.6 4.85 32.3" fill="none" stroke="#000000" stroke-linecap="round" stroke-linejoin="round" stroke-opacity="0.17254902" stroke-width="0.5"/>
      <path d="M9.05 32.55 L9.0 32.55 M7.4 32.7 L9.05 33.3 M7.2 31.55 L8.8 32.0 M6.7 34.0 L8.3 34.85 M6.15 34.4 L7.5 35.35 M8.8 34.15 L7.15 33.45" fill="none" stroke="#000000" stroke-linecap="round" stroke-linejoin="round" stroke-opacity="0.2" stroke-width="0.5"/>
      <path d="M10.25 34.55 L10.4 34.6 10.25 34.95 10.1 34.85 9.85 34.75 9.7 34.7 9.05 35.6 8.7 35.85 8.65 35.85 7.4 36.1 7.3 36.3 7.15 36.6 7.1 36.8 6.85 36.7 6.95 36.5 7.1 36.15 7.15 36.0 6.7 35.6 6.55 35.55 5.9 34.9 5.85 34.85 5.25 34.45 5.15 34.35 5.1 34.35 5.05 34.3 5.0 34.3 4.6 33.6 Q4.45 33.05 4.7 32.4 L4.75 32.3 5.25 31.5 5.65 31.25 6.0 31.1 6.65 31.1 6.7 31.15 M8.3 31.6 L7.55 31.35 8.05 31.3 8.2 31.35 8.35 31.4 8.9 31.75 9.0 31.9 9.1 31.6 9.25 31.25 9.35 31.1 9.6 31.2 9.5 31.4 9.35 31.75 9.3 31.9 9.55 32.1 9.7 32.2 10.0 32.85 10.0 32.9 9.85 34.4 10.0 34.45 10.25 34.55 M9.1 32.1 L9.15 32.15 9.3 31.9 M9.1 32.1 L9.0 31.9 M8.35 35.05 L9.0 34.1 Q9.4 33.2 9.2 32.45 L9.1 32.1 M8.35 31.65 L8.3 31.6 M8.35 31.65 L8.55 31.75 8.75 31.95 8.8 32.0 8.85 32.05 8.9 32.1 9.05 32.55 9.05 33.3 8.85 34.05 8.8 34.15 8.3 34.85 8.15 35.0 7.85 35.2 7.5 35.35 6.8 35.4 6.65 35.35 6.6 35.3 6.55 35.3 6.35 35.2 6.35 35.15 5.85 34.85 M7.4 32.0 L7.4 32.05 7.4 32.3 7.4 32.7 M6.7 34.0 L7.15 33.45 7.2 33.25 7.4 32.7 M6.15 34.4 L6.35 34.3 6.4 34.25 6.7 34.0 M6.35 35.2 L6.6 35.3 M5.25 34.45 L5.35 34.45 5.4 34.5 5.65 34.5 5.75 34.5 5.9 34.5 6.15 34.4 M7.15 36.0 L7.25 35.75 7.5 35.85 7.4 36.1 M9.85 34.4 L9.7 34.3 9.5 34.65 9.7 34.7 M8.35 35.05 L7.9 35.4 6.7 35.6" fill="none" stroke="#000000" stroke-linecap="round" stroke-linejoin="round" stroke-opacity="0.2" stroke-width="0.05"/>
    </g>
    <linearGradient gradientTransform="matrix(-0.0018, 0.0045, -0.0015, -8.0E-4, 5.4, 34.85)" gradientUnits="userSpaceOnUse" id="gradient8" spreadMethod="pad" x1="-819.2" x2="819.2">
      <stop offset="0.0" stop-color="#ffffff"/>
      <stop offset="0.0196078431372549" stop-color="#ffe609"/>
      <stop offset="0.17647058823529413" stop-color="#a26409"/>
      <stop offset="0.27450980392156865" stop-color="#cc9900"/>
      <stop offset="1.0" stop-color="#a26409"/>
    </linearGradient>
    <radialGradient cx="0" cy="0" gradientTransform="matrix(0.0026, 0.0109, -0.0088, 0.0052, 4.6, 36.5)" gradientUnits="userSpaceOnUse" id="gradient9" r="819.2" spreadMethod="pad">
      <stop offset="0.0" stop-color="#ffe609"/>
      <stop offset="0.5176470588235295" stop-color="#a26409"/>
      <stop offset="0.792156862745098" stop-color="#cc9900"/>
      <stop offset="1.0" stop-color="#a26409"/>
    </radialGradient>
    <linearGradient gradientTransform="matrix(-0.0016, 0.004, -0.0032, -0.0016, 8.35, 34.0)" gradientUnits="userSpaceOnUse" id="gradient10" spreadMethod="pad" x1="-819.2" x2="819.2">
      <stop offset="0.0" stop-color="#998e7c"/>
      <stop offset="1.0" stop-color="#453f32"/>
    </linearGradient>
    <g id="shape7" transform="matrix(1.0, 0.0, 0.0, 1.0, -6.65, -31.3)">
      <path d="M6.95 31.4 L6.95 31.55 6.85 31.7 6.75 31.7 6.65 31.6 6.7 31.45 6.75 31.35 6.9 31.35 6.95 31.4" fill="#ffffcc" fill-rule="evenodd" stroke="none"/>
      <path d="M8.15 31.75 L8.15 31.85 8.05 32.0 7.95 32.0 7.9 31.9 7.9 31.75 8.0 31.65 8.1 31.65 8.15 31.75" fill="#ffffcc" fill-rule="evenodd" stroke="none"/>
    </g>
    <g id="shape8" transform="matrix(1.0, 0.0, 0.0, 1.0, -21.05, -14.55)">
      <path d="M22.0 21.35 L24.5 18.2 34.5 14.8 35.75 16.05 34.55 15.4 25.05 18.7 22.0 21.35 M37.55 17.05 L38.25 18.9 35.35 21.65 27.4 24.65 21.3 24.1 21.3 22.85 26.35 19.95 35.1 16.95 37.55 17.05 M37.0 19.1 Q37.45 18.9 37.4 18.3 L37.4 17.95 Q36.75 17.95 36.45 18.5 L36.45 18.9 Q36.65 19.2 37.0 19.1 M22.25 23.55 L22.4 23.9 22.85 24.0 23.25 23.85 23.45 23.5 23.25 23.15 Q23.1 23.0 22.85 23.0 L22.4 23.2 22.25 23.55" fill="#523919" fill-rule="evenodd" stroke="none"/>
      <path d="M22.0 21.35 L25.05 18.7 34.55 15.4 35.75 16.05 37.55 17.05 36.25 16.6 34.95 16.15 26.15 19.0 22.55 21.9 22.0 21.35 M35.75 16.05 L36.25 16.6 35.75 16.05" fill="#2b1d0d" fill-rule="evenodd" stroke="none"/>
      <path d="M21.3 22.85 L22.55 21.9 26.15 19.0 34.95 16.15 36.25 16.6 37.55 17.05 35.1 16.95 26.35 19.95 21.3 22.85" fill="#66461f" fill-rule="evenodd" stroke="none"/>
      <path d="M38.25 18.9 L36.3 22.2 Q31.8 24.6 26.6 25.9 L21.3 24.1 27.4 24.65 35.35 21.65 38.25 18.9 M37.0 19.1 Q36.65 19.2 36.45 18.9 L36.45 18.5 Q36.75 17.95 37.4 17.95 L37.4 18.3 Q37.45 18.9 37.0 19.1 M22.25 23.55 L22.4 23.2 22.85 23.0 Q23.1 23.0 23.25 23.15 L23.45 23.5 23.25 23.85 22.85 24.0 22.4 23.9 22.25 23.55" fill="#362510" fill-rule="evenodd" stroke="none"/>
      <path d="M35.75 16.05 L34.5 14.8 24.5 18.2 22.0 21.35 25.05 18.7 34.55 15.4 35.75 16.05 37.55 17.05 38.25 18.9 36.3 22.2 Q31.8 24.6 26.6 25.9 L21.3 24.1 21.3 22.85 22.55 21.9 22.0 21.35 M22.55 21.9 L26.15 19.0 34.95 16.15 36.25 16.6 35.75 16.05 M37.0 19.1 Q37.45 18.9 37.4 18.3 L37.4 17.95 Q36.75 17.95 36.45 18.5 L36.45 18.9 Q36.65 19.2 37.0 19.1 M21.3 22.85 L26.35 19.95 35.1 16.95 37.55 17.05 36.25 16.6 M22.25 23.55 L22.4 23.9 22.85 24.0 23.25 23.85 23.45 23.5 23.25 23.15 Q23.1 23.0 22.85 23.0 L22.4 23.2 22.25 23.55" fill="none" stroke="#000000" stroke-linecap="round" stroke-linejoin="round" stroke-opacity="0.3019608" stroke-width="0.5"/>
    </g>
    <g id="shape9" transform="matrix(1.0, 0.0, 0.0, 1.0, -1.45, -5.5)">
      <path d="M17.7 9.95 L20.5 7.6 33.75 8.2 35.2 10.25 34.55 12.0 31.7 14.1 Q27.4 13.1 20.7 12.85 L17.65 10.8 17.7 9.95 M34.25 10.5 L33.95 10.35 Q33.75 10.35 33.6 10.5 L33.45 10.8 33.6 11.15 33.95 11.25 34.25 11.15 34.4 10.8 34.25 10.5 M19.15 9.95 L18.75 9.8 Q18.55 9.8 18.4 9.95 L18.25 10.3 18.4 10.6 18.75 10.75 19.15 10.6 19.3 10.3 19.15 9.95" fill="#33230f" fill-rule="evenodd" stroke="none"/>
      <path d="M19.05 8.15 L20.35 7.05 34.15 7.95 34.65 9.1 35.2 10.25 33.75 8.2 20.5 7.6 17.7 9.95 17.75 9.15 19.05 8.15 M35.4 8.55 L34.35 7.25 Q27.55 6.1 20.15 6.25 L18.5 7.55 17.95 7.4 20.0 5.75 Q27.35 5.6 34.5 6.85 L35.4 8.55" fill="#473115" fill-rule="evenodd" stroke="none"/>
      <path d="M19.05 8.15 L18.5 7.55 20.15 6.25 Q27.55 6.1 34.35 7.25 L35.4 8.55 34.65 9.1 34.15 7.95 20.35 7.05 19.05 8.15" fill="#261a0b" fill-rule="evenodd" stroke="none"/>
      <path d="M19.15 9.95 L19.3 10.3 19.15 10.6 18.75 10.75 18.4 10.6 18.25 10.3 18.4 9.95 Q18.55 9.8 18.75 9.8 L19.15 9.95 M34.25 10.5 L34.4 10.8 34.25 11.15 33.95 11.25 33.6 11.15 33.45 10.8 33.6 10.5 Q33.75 10.35 33.95 10.35 L34.25 10.5" fill="#211609" fill-rule="evenodd" stroke="none"/>
      <path d="M18.5 7.55 L19.05 8.15 20.35 7.05 34.15 7.95 34.65 9.1 35.4 8.55 34.35 7.25 Q27.55 6.1 20.15 6.25 L18.5 7.55 17.95 7.4 20.0 5.75 Q27.35 5.6 34.5 6.85 L35.4 8.55 M35.2 10.25 L34.65 9.1 M35.2 10.25 L34.55 12.0 31.7 14.1 Q27.4 13.1 20.7 12.85 L17.65 10.8 17.7 9.95 17.75 9.15 19.05 8.15 M34.25 10.5 L33.95 10.35 Q33.75 10.35 33.6 10.5 L33.45 10.8 33.6 11.15 33.95 11.25 34.25 11.15 34.4 10.8 34.25 10.5 M19.15 9.95 L18.75 9.8 Q18.55 9.8 18.4 9.95 L18.25 10.3 18.4 10.6 18.75 10.75 19.15 10.6 19.3 10.3 19.15 9.95" fill="none" stroke="#000000" stroke-linecap="round" stroke-linejoin="round" stroke-opacity="0.3019608" stroke-width="0.5"/>
      <path d="M5.25 12.4 L4.5 12.8 Q1.7 16.1 3.95 21.0 L3.9 21.55 3.2 21.55 Q1.4 17.85 2.6 14.75 3.1 13.15 5.15 11.65 L5.25 12.4 M6.85 12.85 L6.95 13.05 6.8 13.3 6.55 13.4 6.3 13.3 6.25 13.05 6.35 12.85 6.6 12.75 6.85 12.85 M5.9 21.15 L5.5 21.15 5.5 20.7 Q5.75 20.4 5.95 20.55 L5.9 21.15" fill="#30200d" fill-rule="evenodd" stroke="none"/>
      <path d="M6.45 22.2 L4.4 20.65 Q2.65 16.85 5.0 13.05 L6.85 11.9 7.4 13.35 Q6.0 18.0 6.8 21.4 L6.45 22.2 M5.15 11.65 Q3.1 13.15 2.6 14.75 1.4 17.85 3.2 21.55 1.3 18.65 1.8 15.5 2.35 12.9 5.15 11.65 M6.85 12.85 L6.6 12.75 6.35 12.85 6.25 13.05 6.3 13.3 6.55 13.4 6.8 13.3 6.95 13.05 6.85 12.85 M5.9 21.15 L5.95 20.55 Q5.75 20.4 5.5 20.7 L5.5 21.15 5.9 21.15" fill="#422d13" fill-rule="evenodd" stroke="none"/>
      <path d="M3.95 21.0 Q1.7 16.1 4.5 12.8 L5.25 12.4 6.75 11.55 6.85 11.9 5.0 13.05 Q2.65 16.85 4.4 20.65 L6.45 22.2 3.95 21.0" fill="#573b19" fill-rule="evenodd" stroke="none"/>
      <path d="M5.25 12.4 L4.5 12.8 Q1.7 16.1 3.95 21.0 L6.45 22.2 M6.85 11.9 L6.75 11.55 5.25 12.4 M3.2 21.55 L3.9 21.55 3.95 21.0 M6.85 12.85 L6.6 12.75 6.35 12.85 6.25 13.05 6.3 13.3 6.55 13.4 6.8 13.3 6.95 13.05 6.85 12.85 M6.85 11.9 L7.4 13.35 Q6.0 18.0 6.8 21.4 L6.45 22.2 M5.9 21.15 L5.95 20.55 Q5.75 20.4 5.5 20.7 L5.5 21.15 5.9 21.15 M3.2 21.55 Q1.3 18.65 1.8 15.5 2.35 12.9 5.15 11.65" fill="none" stroke="#000000" stroke-linecap="round" stroke-linejoin="round" stroke-opacity="0.3019608" stroke-width="0.5"/>
    </g>
    <g id="shape10" transform="matrix(1.0, 0.0, 0.0, 1.0, -1.45, -5.5)">
      <path d="M40.8 12.2 L41.05 12.6 42.1 15.25 42.2 16.0 42.85 17.05 42.4 18.95 39.25 20.2 37.75 19.8 36.3 22.2 Q31.8 24.6 26.6 25.9 L23.5 24.85 22.75 26.25 18.9 27.15 16.95 26.4 16.8 26.15 14.35 27.15 14.05 29.45 14.4 29.7 14.45 29.75 14.8 30.1 Q15.65 31.1 15.4 32.7 L15.2 34.0 14.95 36.15 14.55 39.1 Q14.05 40.1 12.75 40.2 L7.55 40.2 7.2 40.1 6.05 39.75 4.95 39.1 4.3 38.35 4.2 37.4 Q4.15 36.9 4.45 35.8 L4.65 33.85 4.6 33.6 Q4.45 33.05 4.7 32.4 L4.75 32.3 5.0 31.9 5.05 31.4 5.4 30.4 Q5.9 29.45 6.7 29.05 L7.4 25.3 7.35 25.25 6.9 24.5 6.15 24.2 4.05 22.6 2.9 21.25 2.9 21.1 Q1.35 18.4 1.8 15.5 2.35 12.9 5.15 11.65 L5.2 10.95 6.35 9.9 8.5 8.95 9.8 9.4 10.55 10.25 11.3 10.15 12.9 10.0 13.25 8.65 14.85 7.6 17.5 6.65 18.5 6.95 20.0 5.75 Q27.35 5.6 34.5 6.85 L35.3 8.35 35.85 8.05 37.65 8.45 40.15 9.75 40.95 11.1 40.8 12.2 M41.3 17.1 L40.35 17.95 38.3 18.45 37.95 18.05 37.55 17.05 37.3 16.9 37.3 16.65 39.35 15.65 40.4 15.75 40.5 15.85 40.85 16.75 41.3 17.1 M35.0 10.85 L35.8 9.85 36.8 9.85 39.05 11.15 38.9 11.4 39.0 12.15 38.2 12.9 36.1 12.15 34.9 11.05 35.0 10.85 M21.7 20.6 L19.65 20.55 16.75 21.35 15.75 22.65 15.7 24.15 15.65 24.5 15.65 24.55 14.15 25.2 13.2 23.75 9.85 23.05 8.55 24.15 8.4 23.95 7.55 23.05 7.3 22.4 6.65 21.85 6.8 21.4 Q6.15 18.7 6.9 15.2 L7.9 15.7 10.65 14.4 11.3 12.8 11.2 12.1 13.35 11.75 13.55 12.5 15.45 13.4 18.9 12.1 19.15 11.8 20.7 12.85 Q27.4 13.1 31.7 14.1 L33.95 12.45 34.1 13.0 37.45 14.65 36.05 15.2 35.7 16.0 34.5 14.8 24.5 18.2 22.25 21.05 21.7 20.6 M21.45 22.5 L21.55 22.7 21.3 22.85 21.3 24.1 21.7 24.25 20.8 24.85 18.35 25.15 18.5 25.0 Q18.65 24.1 18.0 23.75 L17.55 23.8 17.7 23.1 20.3 22.25 21.45 22.5 M39.5 14.1 L39.7 13.9 39.75 14.05 39.5 14.1 M14.6 11.4 L16.25 11.35 17.65 10.6 17.75 9.15 18.15 8.85 17.7 8.45 15.2 9.2 14.65 9.85 Q15.4 10.1 15.35 10.7 L14.6 11.35 14.6 11.4 M6.8 11.75 L6.85 11.9 7.4 13.35 7.3 13.7 8.25 13.65 9.8 12.6 9.7 12.0 9.3 11.95 Q8.8 11.35 9.05 10.85 L8.95 10.75 6.95 11.5 6.8 11.75 M12.3 26.9 L12.0 29.0 9.05 28.95 9.5 27.2 10.0 27.15 Q10.35 26.7 10.05 25.9 L10.35 25.2 12.1 26.0 12.25 26.6 12.3 26.9" fill="none" stroke="#000000" stroke-linecap="round" stroke-linejoin="round" stroke-opacity="0.3019608" stroke-width="0.5"/>
    </g>
  </defs>
</svg>
