<?xml version="1.0" encoding="UTF-8" standalone="no"?>
<svg xmlns:xlink="http://www.w3.org/1999/xlink" height="440.0px" width="440.0px" xmlns="http://www.w3.org/2000/svg">
  <g transform="matrix(10.0, 0.0, 0.0, 10.0, 0.0, 0.0)">
    <use height="44.0" transform="matrix(1.0, 0.0, 0.0, 1.0, 0.0, 0.0)" width="44.0" xlink:href="#shape0"/>
    <use height="9.65" transform="matrix(0.8258, 0.0, 0.0, 0.8258, 11.15, 27.65)" width="20.25" xlink:href="#sprite0"/>
  </g>
  <defs>
    <g id="shape0" transform="matrix(1.0, 0.0, 0.0, 1.0, 0.0, 0.0)">
      <path d="M44.0 44.0 L0.0 44.0 0.0 0.0 44.0 0.0 44.0 44.0" fill="#33cc33" fill-opacity="0.0" fill-rule="evenodd" stroke="none"/>
      <path d="M4.9 13.85 Q4.6 13.0 4.6 12.05 L4.6 11.8 Q4.65 10.95 5.05 10.3 5.5 9.45 6.45 8.9 7.7 8.2 9.05 8.2 9.8 8.2 12.15 9.55 11.3 10.85 10.95 12.25 9.6 11.5 9.05 11.5 7.7 11.5 6.45 12.2 5.5 12.75 5.05 13.6 L4.9 13.85 5.05 13.6 Q5.5 12.75 6.45 12.2 7.7 11.5 9.05 11.5 9.6 11.5 10.95 12.25 L14.0 14.0 18.45 16.95 Q18.4 14.85 17.85 13.25 L20.2 14.8 20.75 15.15 Q21.15 17.1 22.25 18.6 L22.9 19.25 22.05 19.15 21.15 19.05 20.5 19.0 18.3 19.15 18.4 18.45 18.4 18.3 Q15.8 15.6 10.9 12.9 L10.8 13.85 Q10.8 15.5 11.45 16.9 L11.45 16.95 11.2 16.8 Q8.7 15.7 6.0 15.7 5.25 14.8 4.9 13.85 M2.95 15.35 Q3.0 17.95 5.5 20.0 6.95 21.25 9.05 21.9 L14.55 22.6 16.25 22.6 17.2 22.5 17.6 22.45 19.7 22.35 20.0 22.3 20.4 22.3 27.95 23.55 29.45 23.9 31.6 24.35 31.65 23.2 31.0 20.9 34.15 21.5 34.5 21.55 34.45 21.65 Q33.45 22.8 33.1 24.15 L33.05 24.6 40.25 25.25 40.45 25.25 Q42.0 24.35 42.0 23.6 L42.1 23.2 42.2 24.05 42.15 24.75 40.6 26.05 40.4 26.05 33.1 25.4 32.95 25.4 32.85 25.9 Q32.65 27.1 32.15 27.6 L28.4 30.9 27.2 31.7 Q25.85 32.6 23.5 33.5 L20.25 34.5 20.2 34.6 19.55 37.0 18.9 36.85 19.5 34.6 18.05 34.7 15.3 34.65 14.05 34.75 14.0 34.7 Q12.7 33.65 11.75 32.25 L11.65 32.05 10.45 29.75 Q12.65 31.8 14.5 32.65 L17.7 33.4 19.4 33.45 19.7 33.45 19.75 32.0 19.75 31.1 19.55 25.8 19.65 23.2 17.35 23.25 16.95 23.3 16.4 23.4 16.25 22.6 16.4 23.4 16.0 23.4 14.3 23.4 9.05 22.85 8.7 22.7 Q6.55 22.05 5.05 20.8 2.8 19.0 2.5 16.8 L2.65 16.3 2.95 15.35 M22.05 19.15 L20.2 18.1 18.45 16.95 20.2 18.1 22.05 19.15 M19.65 23.2 L19.7 22.35 19.65 23.2 M27.85 24.35 Q22.7 23.25 20.35 23.2 L20.25 25.8 20.45 31.0 20.45 32.0 20.4 33.4 Q24.45 33.05 27.95 29.85 30.6 27.45 31.35 25.1 L29.45 24.7 27.9 24.35 27.85 24.35 M19.7 33.45 L19.6 34.1 17.7 33.4 19.6 34.1 19.7 33.45 M19.6 34.1 L19.5 34.6 19.6 34.1 M31.6 24.35 L33.05 24.6 31.6 24.35" fill="#b5ab89" fill-rule="evenodd" stroke="none"/>
      <path d="M4.6 11.8 L4.6 12.05 Q4.6 13.0 4.9 13.85 5.25 14.8 6.0 15.7 L6.95 16.75 Q9.6 19.05 14.2 19.35 L14.4 19.35 15.45 19.35 17.9 19.15 18.25 19.15 18.3 19.15 20.5 19.0 21.15 19.05 22.05 19.15 22.9 19.25 29.3 20.55 31.0 20.9 29.3 20.55 22.9 19.25 22.25 18.6 Q21.15 17.1 20.75 15.15 24.5 17.3 29.35 17.95 L33.5 18.2 36.65 17.95 38.8 18.5 Q40.45 19.05 40.85 19.7 L40.95 19.85 41.05 20.2 Q41.05 20.95 39.6 21.9 L39.4 21.9 39.05 21.9 34.5 21.55 34.15 21.5 34.6 21.5 36.65 21.3 38.8 21.8 39.05 21.9 38.8 21.8 36.65 21.3 34.6 21.5 34.15 21.5 31.0 20.9 31.65 23.2 31.6 24.35 29.45 23.9 27.95 23.55 27.95 23.4 Q27.95 21.05 24.7 20.85 L24.5 20.85 20.5 21.05 19.9 21.0 19.8 21.0 17.65 20.95 17.6 20.95 15.55 21.0 13.5 20.6 11.55 20.35 10.85 20.45 10.3 20.6 Q9.6 20.85 9.2 21.35 L9.05 21.9 Q6.95 21.25 5.5 20.0 3.0 17.95 2.95 15.35 L3.1 15.1 4.6 11.8 M6.0 15.7 L5.95 15.7 6.0 15.7 M10.45 29.75 L9.9 28.4 Q8.25 25.3 6.1 22.5 L1.9 19.75 2.5 16.8 Q2.8 19.0 5.05 20.8 6.55 22.05 8.7 22.7 L9.05 22.85 Q9.1 25.55 11.9 28.3 13.6 29.95 15.45 30.65 16.85 31.2 18.3 31.2 L19.75 31.1 19.75 32.0 19.7 33.45 19.4 33.45 17.7 33.4 17.5 33.3 Q15.45 32.2 15.45 30.7 L15.45 30.65 15.45 30.7 Q15.45 32.2 17.5 33.3 L17.7 33.4 14.5 32.65 Q12.65 31.8 10.45 29.75 M20.45 31.0 Q22.95 30.4 25.15 28.4 27.4 26.35 27.85 24.35 L27.9 24.35 29.45 24.7 31.35 25.1 Q30.6 27.45 27.95 29.85 24.45 33.05 20.4 33.4 L20.45 32.0 20.45 31.0" fill="#e0d9c0" fill-rule="evenodd" stroke="none"/>
      <path d="M10.95 12.25 Q11.3 10.85 12.15 9.55 L14.0 10.7 17.85 13.25 Q18.4 14.85 18.45 16.95 L14.0 14.0 10.95 12.25 M18.3 19.15 L18.25 19.15 17.9 19.15 15.45 19.35 14.4 19.35 Q13.55 17.95 11.45 16.95 L11.45 16.9 Q10.8 15.5 10.8 13.85 L10.9 12.9 Q15.8 15.6 18.4 18.3 L18.4 18.45 18.3 19.15 M41.15 20.15 Q41.9 21.55 42.1 23.2 L42.0 23.6 Q42.0 24.35 40.45 25.25 L40.25 25.25 33.05 24.6 33.1 24.15 Q33.45 22.8 34.45 21.65 L34.5 21.55 39.05 21.9 39.4 21.9 39.6 21.9 Q41.05 20.95 41.05 20.2 L41.15 20.15 M42.15 24.75 Q42.1 26.15 41.65 27.7 29.95 28.45 24.05 37.5 L19.55 37.0 20.2 34.6 20.25 34.5 23.5 33.5 Q25.85 32.6 27.2 31.7 L28.4 30.9 32.15 27.6 Q32.65 27.1 32.85 25.9 L32.95 25.4 33.1 25.4 40.4 26.05 40.6 26.05 42.15 24.75 M18.9 36.85 Q16.5 36.15 14.05 34.75 L15.3 34.65 18.05 34.7 19.5 34.6 18.9 36.85" fill="#c4b995" fill-rule="evenodd" stroke="none"/>
      <path d="M9.05 21.9 L9.2 21.35 Q9.6 20.85 10.3 20.6 L10.85 20.45 11.55 20.35 13.5 20.6 15.55 21.0 17.6 20.95 17.65 20.95 19.8 21.0 19.9 21.0 20.5 21.05 24.5 20.85 24.7 20.85 Q27.95 21.05 27.95 23.4 L27.95 23.55 20.4 22.3 20.0 22.3 19.7 22.35 17.6 22.45 17.2 22.5 16.25 22.6 14.55 22.6 9.05 21.9 M15.45 30.65 Q15.45 30.1 15.95 28.15 L16.45 24.85 16.4 23.4 16.45 24.85 15.95 28.15 Q15.45 30.1 15.45 30.65 13.6 29.95 11.9 28.3 9.1 25.55 9.05 22.85 L14.3 23.4 16.0 23.4 16.4 23.4 16.95 23.3 17.35 23.25 19.65 23.2 19.55 25.8 19.75 31.1 18.3 31.2 Q16.85 31.2 15.45 30.65 M20.45 31.0 L20.25 25.8 20.35 23.2 Q22.7 23.25 27.85 24.35 27.4 26.35 25.15 28.4 22.95 30.4 20.45 31.0" fill="#fff7db" fill-rule="evenodd" stroke="none"/>
      <path d="M4.9 13.85 L5.05 13.6 Q5.5 12.75 6.45 12.2 7.7 11.5 9.05 11.5 9.6 11.5 10.95 12.25 M3.1 15.1 L2.95 15.35 Q3.0 17.95 5.5 20.0 6.95 21.25 9.05 21.9 L14.55 22.6 16.25 22.6 17.2 22.5 17.6 22.45 19.7 22.35 20.0 22.3 20.4 22.3 27.95 23.55 29.45 23.9 31.6 24.35 M14.4 19.35 L14.2 19.35 M6.0 15.7 L5.95 15.7 6.0 15.7 M40.95 19.85 L41.15 20.15 M2.95 15.35 L2.95 15.25 3.1 15.1 M18.45 16.95 L20.2 18.1 22.05 19.15 M18.45 16.95 L14.0 14.0 10.95 12.25 M16.4 23.4 L16.45 24.85 15.95 28.15 Q15.45 30.1 15.45 30.65 L15.45 30.7 Q15.45 32.2 17.5 33.3 L17.7 33.4 19.6 34.1 19.7 33.45 19.75 32.0 19.75 31.1 19.55 25.8 19.65 23.2 M16.4 23.4 L16.25 22.6 M19.7 22.35 L19.65 23.2 M14.4 19.35 L14.2 19.35 M19.5 34.6 L19.6 34.1 M19.5 34.6 L18.9 36.85 M33.05 24.6 L40.25 25.25 40.45 25.25 Q42.0 24.35 42.0 23.6 L42.1 23.2 M34.15 21.5 L34.6 21.5 36.65 21.3 38.8 21.8 39.05 21.9 M33.05 24.6 L31.6 24.35" fill="none" stroke="#000000" stroke-linecap="round" stroke-linejoin="round" stroke-opacity="0.15294118" stroke-width="0.25"/>
      <path d="M4.6 11.8 L4.6 12.05 Q4.6 13.0 4.9 13.85 M12.15 9.55 Q9.8 8.2 9.05 8.2 7.7 8.2 6.45 8.9 5.5 9.45 5.05 10.3 4.65 10.95 4.6 11.8 L3.1 15.1 M31.0 20.9 L29.3 20.55 22.9 19.25 22.05 19.15 21.15 19.05 20.5 19.0 18.3 19.15 18.25 19.15 17.9 19.15 15.45 19.35 14.4 19.35 M14.2 19.35 Q9.6 19.05 6.95 16.75 L6.0 15.7 Q5.25 14.8 4.9 13.85 M17.85 13.25 L20.2 14.8 20.75 15.15 Q24.5 17.3 29.35 17.95 L33.5 18.2 36.65 17.95 38.8 18.5 Q40.45 19.05 40.85 19.7 M41.15 20.15 Q41.9 21.55 42.1 23.2 L42.2 24.05 42.15 24.75 Q42.1 26.15 41.65 27.7 29.95 28.45 24.05 37.5 L19.55 37.0 18.9 36.85 Q16.5 36.15 14.05 34.75 L14.0 34.7 Q12.7 33.65 11.75 32.25 L11.65 32.05 10.45 29.75 9.9 28.4 Q8.25 25.3 6.1 22.5 L1.9 19.75 2.5 16.8 2.65 16.3 2.95 15.35 M12.15 9.55 L14.0 10.7 17.85 13.25 M11.45 16.95 Q13.55 17.95 14.4 19.35 M6.0 15.7 Q8.7 15.7 11.2 16.8 L11.45 16.95 M41.05 20.2 L40.95 19.85 M41.05 20.2 Q41.05 20.95 39.6 21.9 L39.4 21.9 39.05 21.9 34.5 21.55 M34.15 21.5 L34.5 21.55 M31.0 20.9 L34.15 21.5" fill="none" stroke="#000000" stroke-linecap="round" stroke-linejoin="round" stroke-opacity="0.3019608" stroke-width="0.5"/>
      <path d="M13.25 17.3 Q14.6 16.35 15.3 16.3 L15.5 16.3 16.1 16.7 16.45 17.15 Q17.0 18.0 16.75 18.3 L16.0 18.9 17.95 19.5 18.65 19.7 19.35 19.9 19.65 19.95 20.6 20.2 23.15 20.75 24.45 20.85 25.0 20.65 25.95 19.85 Q26.9 19.2 28.05 19.25 L28.35 19.25 28.55 19.3 Q29.75 19.55 30.5 20.6 30.9 21.1 30.9 21.65 L30.65 22.7 Q30.3 23.55 29.6 24.05 L28.55 24.35 27.2 24.85 27.2 24.95 27.15 26.5 27.05 27.45 Q26.75 28.4 26.05 28.9 25.4 29.4 24.55 29.45 23.55 29.5 23.05 28.8 L22.85 27.1 20.65 26.0 17.05 24.25 16.5 24.05 Q16.1 24.0 14.2 24.8 12.8 25.4 11.5 23.75 L11.4 23.5 11.2 23.15 Q10.95 22.55 11.25 22.35 L12.25 21.85 13.25 21.15 12.4 20.15 Q11.8 19.3 11.95 18.7 L11.95 18.6 Q12.2 18.0 13.25 17.3" fill="#000000" fill-opacity="0.3019608" fill-rule="evenodd" stroke="none"/>
      <path d="M18.45 18.45 Q17.7 18.5 17.7 19.0 17.7 19.65 19.1 20.1 L21.6 20.4 Q23.1 20.4 23.1 19.8 L22.95 19.45 24.25 19.55 24.7 19.4 24.7 19.6 Q24.7 20.3 25.7 20.3 27.15 20.3 27.85 19.4 L28.35 18.25 28.85 18.7 Q29.35 19.2 29.35 20.05 29.35 20.6 28.15 21.05 L26.15 21.5 24.6 21.2 24.6 21.25 25.6 21.9 25.65 21.95 25.7 22.0 25.85 22.65 Q25.85 23.55 25.45 24.4 24.95 25.5 24.2 25.5 23.7 25.5 22.6 23.7 L22.45 24.15 22.2 24.6 19.85 23.8 Q17.9 23.1 17.1 22.35 L15.8 21.7 15.15 22.05 Q14.05 22.65 12.85 22.65 L11.45 22.45 11.3 22.45 11.2 22.25 10.95 21.85 Q10.7 21.3 11.05 21.05 L12.05 20.6 13.05 19.85 12.15 18.85 Q11.6 18.0 11.7 17.4 L11.75 17.3 Q11.9 17.65 12.4 17.65 12.85 17.65 13.35 17.0 L13.9 16.1 15.0 15.1 15.1 15.0 15.3 15.0 15.9 15.4 Q15.55 15.5 15.05 15.8 14.1 16.35 14.1 17.15 14.1 18.05 14.75 18.2 L16.6 18.25 17.75 18.2 18.45 18.45 M15.2 19.75 L15.0 19.8 14.5 19.95 13.6 20.25 12.95 20.6 Q12.1 21.25 12.1 21.75 12.1 22.0 12.6 22.0 14.45 22.0 15.9 20.0 15.9 19.75 15.2 19.75 M22.65 22.95 Q22.65 24.15 23.9 24.15 25.0 24.15 25.0 23.3 25.0 22.75 24.4 22.2 23.9 21.75 23.35 21.7 23.15 21.75 23.0 21.9 22.65 22.2 22.65 22.95" fill="#fff7db" fill-rule="evenodd" stroke="none"/>
      <path d="M27.8 17.95 L28.15 17.95 28.35 18.0 Q29.55 18.25 30.3 19.3 L30.65 20.35 Q30.15 21.45 28.95 22.0 L26.6 22.4 26.6 22.45 26.8 23.05 26.95 23.6 27.0 23.55 27.0 23.65 26.95 25.2 26.85 26.15 Q25.4 27.15 24.25 27.15 L22.8 26.85 22.75 26.8 22.6 25.8 20.45 24.7 16.85 22.95 16.3 22.75 Q15.9 22.7 14.0 23.5 12.6 24.1 11.3 22.45 L11.45 22.45 12.85 22.65 Q14.05 22.65 15.15 22.05 L15.8 21.7 17.1 22.35 Q17.9 23.1 19.85 23.8 L22.2 24.6 22.45 24.15 22.6 23.7 Q23.7 25.5 24.2 25.5 24.95 25.5 25.45 24.4 25.85 23.55 25.85 22.65 L25.7 22.0 25.65 21.95 25.6 21.9 24.6 21.25 24.6 21.2 26.15 21.5 28.15 21.05 Q29.35 20.6 29.35 20.05 29.35 19.2 28.85 18.7 L28.35 18.25 27.8 17.95 M15.9 15.4 L16.2 15.85 Q16.8 16.7 16.55 17.0 L15.8 17.6 17.75 18.2 16.6 18.25 14.75 18.2 Q14.1 18.05 14.1 17.15 14.1 16.35 15.05 15.8 15.55 15.5 15.9 15.4" fill="#e8dbb0" fill-rule="evenodd" stroke="none"/>
      <path d="M18.45 18.45 L19.15 18.6 19.45 18.7 20.4 18.9 22.95 19.45 23.1 19.8 Q23.1 20.4 21.6 20.4 L19.1 20.1 Q17.7 19.65 17.7 19.0 17.7 18.5 18.45 18.45 M24.7 19.4 L24.8 19.4 25.75 18.55 Q26.7 17.9 27.8 17.95 L28.35 18.25 27.85 19.4 Q27.15 20.3 25.7 20.3 24.7 20.3 24.7 19.6 L24.7 19.4 M11.75 17.3 Q12.0 16.7 13.05 16.0 14.4 15.05 15.1 15.0 L15.0 15.1 13.9 16.1 13.35 17.0 Q12.85 17.65 12.4 17.65 11.9 17.65 11.75 17.3 M15.2 19.75 Q15.9 19.75 15.9 20.0 14.45 22.0 12.6 22.0 12.1 22.0 12.1 21.75 12.1 21.25 12.95 20.6 L13.6 20.25 14.5 19.95 15.0 19.8 15.2 19.75 M22.65 22.95 Q22.65 22.2 23.0 21.9 23.15 21.75 23.35 21.7 23.9 21.75 24.4 22.2 25.0 22.75 25.0 23.3 25.0 24.15 23.9 24.15 22.65 24.15 22.65 22.95" fill="#ffffff" fill-rule="evenodd" stroke="none"/>
      <path d="M30.65 20.35 L30.45 21.4 29.4 22.75 28.3 23.05 27.0 23.55 26.95 23.6 26.8 23.05 26.6 22.45 26.6 22.4 28.95 22.0 Q30.15 21.45 30.65 20.35 M26.85 26.15 Q26.55 27.1 25.85 27.6 L24.35 28.15 Q23.3 28.2 22.8 27.5 L22.75 26.8 22.8 26.85 24.25 27.15 Q25.4 27.15 26.85 26.15" fill="#c4b995" fill-rule="evenodd" stroke="none"/>
      <path d="M22.95 19.45 L20.4 18.9 19.45 18.7 19.15 18.6 18.45 18.45 M22.95 19.45 L24.25 19.55 24.7 19.4 24.8 19.4 25.75 18.55 Q26.7 17.9 27.8 17.95 L28.15 17.95 28.35 18.0 Q29.55 18.25 30.3 19.3 L30.65 20.35 30.45 21.4 29.4 22.75 28.3 23.05 27.0 23.55 27.0 23.65 26.95 25.2 26.85 26.15 Q26.55 27.1 25.85 27.6 L24.35 28.15 Q23.3 28.2 22.8 27.5 L22.75 26.8 22.6 25.8 20.45 24.7 16.85 22.95 16.3 22.75 Q15.9 22.7 14.0 23.5 12.6 24.1 11.3 22.45 L11.2 22.25 10.95 21.85 Q10.7 21.3 11.05 21.05 L12.05 20.6 13.05 19.85 12.15 18.85 Q11.6 18.0 11.7 17.4 L11.75 17.3 Q12.0 16.7 13.05 16.0 14.4 15.05 15.1 15.0 L15.3 15.0 15.9 15.4 16.2 15.85 Q16.8 16.7 16.55 17.0 L15.8 17.6 17.75 18.2 18.45 18.45" fill="none" stroke="#000000" stroke-linecap="round" stroke-linejoin="round" stroke-opacity="0.3019608" stroke-width="0.5"/>
    </g>
    <g id="sprite0" transform="matrix(1.0, 0.0, 0.0, 1.0, 0.0, 0.0)">
      <use height="9.65" transform="matrix(1.0, 0.0, 0.0, 1.0, 0.0, 0.0)" width="20.25" xlink:href="#shape1"/>
    </g>
    <g id="shape1" transform="matrix(1.0, 0.0, 0.0, 1.0, 0.0, 0.0)">
      <path d="M19.9 5.15 Q19.4 5.85 18.35 5.85 16.8 5.9 16.8 4.8 16.8 4.35 17.4 3.75 L17.95 3.35 18.75 3.35 19.35 3.4 19.55 3.45 Q20.25 3.65 20.25 4.1 L19.9 5.15 M9.0 9.2 Q6.65 8.6 6.65 7.6 6.65 7.05 7.9 6.55 8.95 6.1 9.8 6.1 10.25 6.1 10.8 6.4 L10.8 6.35 Q10.6 5.75 11.45 5.0 12.3 4.3 13.15 4.3 13.75 4.3 14.3 5.1 14.65 5.25 15.0 5.55 15.9 6.35 15.9 7.55 15.9 8.3 15.3 8.85 14.4 9.65 12.4 9.65 L9.0 9.2 M0.0 0.65 Q0.0 0.15 0.4 0.2 L1.2 0.0 2.45 0.4 Q3.05 0.85 3.05 1.5 L3.0 2.05 Q2.8 2.45 2.05 2.45 L0.75 2.0 Q0.0 1.45 0.0 0.65" fill="#b59c6a" fill-rule="evenodd" stroke="none"/>
    </g>
  </defs>
</svg>
