<?xml version="1.0" encoding="UTF-8" standalone="no"?>
<svg xmlns:xlink="http://www.w3.org/1999/xlink" height="520.0px" width="520.0px" xmlns="http://www.w3.org/2000/svg">
  <g transform="matrix(10.0, 0.0, 0.0, 10.0, 0.0, 0.0)">
    <use height="52.0" transform="matrix(1.0, 0.0, 0.0, 1.0, 0.0, 0.0)" width="52.0" xlink:href="#sprite0"/>
  </g>
  <defs>
    <g id="sprite0" transform="matrix(1.0, 0.0, 0.0, 1.0, 0.0, 0.0)">
      <use height="52.0" transform="matrix(1.0, 0.0, 0.0, 1.0, 0.0, 0.0)" width="52.0" xlink:href="#sprite1"/>
      <use height="34.15" transform="matrix(1.0, 0.0, 0.0, 1.0, 1.2, 7.95)" width="49.65" xlink:href="#shape1"/>
      <use height="2.0" transform="matrix(-1.1104, 0.08, 0.051, 1.2719, 46.05, 18.9)" width="1.95" xlink:href="#sprite2"/>
      <use height="32.25" transform="matrix(1.0, 0.0, 0.0, 1.0, 15.9, 12.15)" width="25.75" xlink:href="#shape3"/>
      <use height="2.0" transform="matrix(-1.1104, 0.08, 0.051, 1.2719, 47.55, 25.0)" width="1.95" xlink:href="#sprite2"/>
      <use height="37.45" transform="matrix(1.0, 0.0, 0.0, 1.0, 0.7, 7.45)" width="50.65" xlink:href="#shape4"/>
    </g>
    <g id="sprite1" transform="matrix(1.0, 0.0, 0.0, 1.0, 0.0, 0.0)">
      <use height="52.0" transform="matrix(1.0, 0.0, 0.0, 1.0, 0.0, 0.0)" width="52.0" xlink:href="#shape0"/>
    </g>
    <g id="shape0" transform="matrix(1.0, 0.0, 0.0, 1.0, 0.0, 0.0)">
      <path d="M52.0 0.0 L52.0 52.0 0.0 52.0 0.0 0.0 52.0 0.0" fill="#ffba2e" fill-opacity="0.0" fill-rule="evenodd" stroke="none"/>
    </g>
    <g id="shape1" transform="matrix(1.0, 0.0, 0.0, 1.0, -1.2, -7.95)">
      <path d="M36.85 15.5 L36.85 15.65 36.8 16.0 36.8 16.05 36.7 16.5 36.65 16.6 36.7 16.25 36.75 16.2 36.75 15.9 36.85 15.5 36.8 16.0 36.85 15.5 M33.5 21.4 L33.55 21.35 33.6 21.35 33.5 21.4 M36.7 16.25 L36.7 16.5 36.7 16.25 M33.7 21.3 L33.7 21.25 33.75 21.3 33.7 21.3" fill="#272e21" fill-rule="evenodd" stroke="none"/>
      <path d="M28.95 24.1 L29.0 24.05 28.95 24.1" fill="#36402e" fill-rule="evenodd" stroke="none"/>
      <path d="M33.55 21.35 L33.7 21.25 33.7 21.3 33.6 21.35 33.55 21.35 M17.55 28.3 L17.5 28.25 17.55 28.25 17.55 28.3" fill="#3c4733" fill-rule="evenodd" stroke="none"/>
      <path d="M45.75 16.75 L45.8 16.75 46.0 16.8 46.15 16.85 46.1 16.9 45.8 16.8 45.75 16.75" fill="#e6b100" fill-rule="evenodd" stroke="none"/>
      <path d="M32.1 36.35 L32.05 36.35 31.85 36.45 31.95 36.35 32.05 36.35 32.1 36.3 32.1 36.35 M31.8 36.5 L31.75 36.55 31.7 36.55 31.8 36.5" fill="#444f39" fill-rule="evenodd" stroke="none"/>
      <path d="M32.05 36.3 L32.1 36.3 32.05 36.35 32.05 36.3 M23.1 28.85 L23.1 28.8 23.1 28.85" fill="#313b2a" fill-rule="evenodd" stroke="none"/>
      <path d="M1.35 21.0 L1.3 20.9 1.35 21.0 1.35 20.9 1.4 21.0 1.35 21.0" fill="#3a4732" fill-rule="evenodd" stroke="none"/>
      <path d="M21.05 15.75 L21.05 15.9 21.05 15.75 M3.95 20.8 L3.95 20.75 3.95 20.8 M7.1 24.4 L7.15 24.45 7.0 24.35 7.1 24.4" fill="#3e4d36" fill-rule="evenodd" stroke="none"/>
      <path d="M45.8 16.75 L45.75 16.75 45.8 16.75 M42.05 16.55 L42.25 16.45 42.3 16.5 42.05 16.55" fill="#ffff98" fill-rule="evenodd" stroke="none"/>
      <path d="M1.35 20.9 Q0.75 19.3 2.5 16.95 4.35 14.5 7.5 12.8 10.6 11.1 13.1 10.05 15.6 9.05 19.1 8.4 L21.0 8.1 27.0 8.25 Q30.4 9.0 34.15 11.5 36.85 13.3 36.85 15.3 L36.85 15.5 36.75 15.9 36.75 16.2 36.7 16.25 36.65 16.6 36.6 16.8 35.25 19.2 Q31.5 22.45 30.2 23.05 L29.9 23.15 29.05 23.25 29.5 22.95 31.15 21.55 31.35 21.35 Q33.85 18.9 35.2 16.25 L35.15 16.0 Q34.65 14.2 32.1 12.6 L32.0 12.55 Q29.4 10.85 26.95 10.1 L26.15 9.9 25.8 9.8 25.2 9.65 Q22.9 9.35 20.75 9.65 L20.35 9.75 19.1 9.9 19.1 9.8 Q15.75 10.15 12.5 11.15 6.65 14.3 4.75 17.1 3.95 18.25 3.85 19.2 3.7 20.05 3.95 20.75 L3.95 20.8 3.95 20.85 Q4.9 22.9 6.6 24.1 L7.0 24.35 7.15 24.45 8.0 24.9 8.45 25.2 Q10.3 26.3 12.3 26.95 14.75 27.85 16.9 28.1 L17.55 28.25 17.5 28.25 17.55 28.3 18.35 29.2 14.75 28.75 Q9.55 27.9 4.25 24.75 L3.7 24.35 Q2.85 23.65 1.9 22.05 L1.4 21.0 1.35 20.9 M37.0 19.45 L39.6 18.1 41.05 18.75 36.05 21.1 33.45 23.15 33.1 23.35 32.3 23.8 30.25 23.25 33.5 21.4 33.6 21.35 33.7 21.3 33.75 21.3 36.4 19.75 37.0 19.45 M26.55 25.35 Q26.85 25.15 27.3 25.0 L27.7 24.7 28.95 24.1 30.35 24.95 22.85 28.35 22.8 28.35 22.4 27.45 22.45 27.4 22.75 27.3 25.45 26.0 26.55 25.35" fill="#c16100" fill-rule="evenodd" stroke="none"/>
      <path d="M41.05 18.75 L41.25 18.85 Q39.45 19.7 37.6 20.8 L36.65 21.25 36.1 21.55 35.95 21.6 33.45 23.15 36.05 21.1 41.05 18.75 M19.1 9.9 L16.8 10.45 13.95 11.35 Q11.8 12.2 9.2 13.7 6.5 15.1 4.9 17.25 4.1 18.35 3.85 19.2 3.95 18.25 4.75 17.1 6.65 14.3 12.5 11.15 15.75 10.15 19.1 9.8 L19.1 9.9 M32.1 12.6 Q34.65 14.2 35.15 16.0 L35.2 16.25 Q33.85 18.9 31.35 21.35 L31.15 21.55 29.5 22.95 31.0 21.5 31.2 21.25 32.1 20.3 32.55 19.7 32.75 19.5 34.05 17.1 Q34.55 15.95 34.1 14.8 33.65 13.7 32.1 12.6 M22.85 28.35 L30.35 24.95 30.4 25.0 29.35 25.6 29.0 25.8 28.7 26.05 28.55 26.1 27.25 26.85 26.35 27.35 26.2 27.45 26.05 27.45 25.75 27.65 24.3 28.35 24.3 28.4 23.1 28.85 23.1 28.8 22.85 28.35 M4.25 24.75 Q9.55 27.9 14.75 28.75 L18.35 29.2 18.8 29.75 16.6 29.75 16.55 29.75 Q14.0 29.4 11.15 28.3 L9.0 27.5 6.75 26.35 6.7 26.35 5.25 25.5 4.25 24.75" fill="#eb8621" fill-rule="evenodd" stroke="none"/>
      <path d="M36.8 16.05 L37.0 19.45 36.4 19.75 33.75 21.3 33.7 21.25 35.25 19.2 36.6 16.8 36.65 16.6 36.7 16.5 36.8 16.05" fill="#461604" fill-rule="evenodd" stroke="none"/>
      <path d="M41.45 19.4 L42.0 19.15 42.25 19.9 42.5 20.45 42.85 21.5 43.45 23.8 44.3 27.5 44.4 28.35 44.45 28.8 43.95 29.0 43.85 28.45 Q43.15 24.6 41.85 20.55 L41.6 19.8 41.45 19.4 M32.5 24.7 L34.5 34.05 33.35 34.75 32.1 35.4 32.2 34.45 32.3 33.1 Q32.55 30.4 31.0 26.35 L30.8 25.8 30.65 25.5 30.8 25.35 Q31.5 24.9 32.3 24.8 32.4 24.7 32.45 24.7 L32.5 24.7 M18.95 31.25 Q20.05 30.4 21.3 30.15 L21.7 30.1 22.05 30.05 22.95 30.25 22.75 30.9 22.7 31.05 22.5 31.3 Q22.6 35.2 23.2 37.3 L23.5 39.05 23.9 39.55 23.95 39.6 23.2 39.85 22.35 40.1 22.3 40.1 19.85 40.65 19.1 40.65 18.3 40.65 18.45 39.75 19.05 33.8 19.0 31.4 18.95 31.25" fill="#521904" fill-rule="evenodd" stroke="none"/>
      <path d="M29.05 23.25 L29.9 23.15 30.2 23.05 Q31.5 22.45 35.25 19.2 L33.7 21.25 33.55 21.35 33.5 21.4 30.25 23.25 29.3 23.8 29.2 23.85 29.2 23.9 29.0 24.05 28.95 24.1 27.7 24.7 27.3 25.0 Q26.85 25.15 26.55 25.35 L26.8 25.1 27.0 24.95 27.05 24.95 27.55 24.5 29.05 23.25" fill="#6e2106" fill-rule="evenodd" stroke="none"/>
      <path d="M41.45 19.4 L41.6 19.8 41.85 20.55 Q43.15 24.6 43.85 28.45 L43.95 29.0 43.8 29.05 43.75 29.05 42.75 28.95 42.65 28.9 Q42.25 28.65 41.7 27.3 L41.2 26.0 41.3 28.25 41.15 29.55 40.45 30.55 36.95 32.05 36.65 31.9 36.2 31.2 35.8 30.2 35.95 31.75 35.95 31.95 35.95 32.3 35.65 33.0 34.5 34.05 32.5 24.7 33.3 24.65 33.75 24.65 34.15 24.75 34.15 24.7 34.15 24.4 Q34.25 23.8 34.8 23.2 35.3 22.7 36.1 22.15 37.6 21.2 38.65 21.0 L39.05 20.95 39.35 21.0 39.5 21.45 40.65 24.45 Q40.3 22.3 40.4 21.05 40.4 20.45 40.55 20.1 40.8 19.35 41.45 19.4 M30.65 25.5 L30.8 25.8 31.0 26.35 Q32.55 30.4 32.3 33.1 L32.2 34.45 32.1 35.4 31.6 35.5 31.45 35.55 31.2 35.1 Q30.55 33.55 29.75 28.75 29.75 27.75 29.9 27.05 L30.15 26.2 Q30.35 25.7 30.65 25.5 M21.05 15.9 L20.55 17.15 Q20.1 18.3 19.1 18.6 L14.7 19.95 Q14.15 19.95 13.8 19.5 L13.75 19.55 13.75 19.5 13.7 19.5 13.75 19.6 Q13.7 20.25 12.95 20.9 L11.55 21.7 10.2 22.6 10.0 22.75 9.45 23.05 8.9 23.3 8.05 23.6 Q7.45 23.75 7.05 22.0 L6.6 19.25 6.45 17.6 Q6.45 16.8 6.85 16.25 7.15 15.6 8.65 14.55 10.15 13.45 10.95 13.45 11.75 13.45 12.15 13.75 12.5 14.0 13.65 18.95 L12.9 14.45 Q12.75 13.05 14.55 11.85 16.15 10.85 18.15 10.75 L19.2 11.5 Q20.8 13.0 21.05 15.75 L21.05 15.9 M3.95 20.8 L3.95 20.75 Q3.9 20.5 4.0 20.3 L4.3 18.75 4.8 17.75 Q5.15 17.2 5.35 17.2 5.75 17.2 6.75 22.25 L7.1 24.4 7.0 24.35 6.6 24.1 Q4.9 22.9 3.95 20.85 L3.95 20.8 M23.95 39.6 L23.9 39.55 23.5 39.05 23.2 37.3 Q22.6 35.2 22.5 31.3 L22.7 31.05 22.75 30.9 22.95 30.25 23.4 30.5 23.7 30.75 24.15 31.45 Q24.2 30.9 24.4 30.4 24.6 29.7 25.1 29.05 L25.7 28.35 Q27.2 27.1 28.8 27.05 L29.05 27.55 29.8 30.25 30.2 35.45 30.2 35.75 Q30.1 36.35 29.25 37.15 28.25 38.1 27.25 38.2 L26.75 38.1 Q26.05 37.7 25.55 36.35 L24.75 34.15 Q25.05 38.45 24.85 38.9 L24.45 39.3 23.95 39.6" fill="#963807" fill-rule="evenodd" stroke="none"/>
      <path d="M44.0 29.95 Q41.15 31.05 38.15 32.5 L36.65 33.35 34.6 34.5 34.5 34.05 35.65 33.0 35.95 32.3 35.95 31.95 35.95 31.75 35.8 30.2 36.2 31.2 36.65 31.9 36.95 32.05 40.45 30.55 41.15 29.55 41.3 28.25 41.2 26.0 41.7 27.3 Q42.25 28.65 42.65 28.9 L42.75 28.95 43.75 29.05 43.8 29.05 43.95 29.0 44.0 29.95 M31.85 36.45 L31.8 36.5 31.7 36.55 31.75 36.55 29.45 38.3 Q27.2 40.0 24.8 40.95 L23.95 39.6 24.45 39.3 24.85 38.9 Q25.05 38.45 24.75 34.15 L25.55 36.35 Q26.05 37.7 26.75 38.1 L27.25 38.2 Q28.25 38.1 29.25 37.15 30.1 36.35 30.2 35.75 L30.2 35.45 29.8 30.25 29.05 27.55 28.8 27.05 Q27.2 27.1 25.7 28.35 L25.1 29.05 Q24.6 29.7 24.4 30.4 24.2 30.9 24.15 31.45 L23.7 30.75 23.4 30.5 22.95 30.25 23.1 29.75 23.1 28.85 24.3 28.4 24.3 28.35 25.75 27.65 26.05 27.45 26.2 27.45 26.35 27.35 27.25 26.85 28.55 26.1 28.7 26.05 29.0 25.8 29.35 25.6 30.4 25.0 30.65 25.5 Q30.35 25.7 30.15 26.2 L29.9 27.05 Q29.75 27.75 29.75 28.75 30.55 33.55 31.2 35.1 L31.45 35.55 31.6 35.5 32.1 35.4 32.05 36.3 32.05 36.35 31.95 36.35 31.85 36.45 M41.25 18.85 L41.45 19.4 Q40.8 19.35 40.55 20.1 40.4 20.45 40.4 21.05 40.3 22.3 40.65 24.45 L39.5 21.45 39.35 21.0 39.05 20.95 38.65 21.0 Q37.6 21.2 36.1 22.15 35.3 22.7 34.8 23.2 34.25 23.8 34.15 24.4 L34.15 24.7 34.15 24.75 33.75 24.65 33.3 24.65 32.5 24.7 32.3 23.8 33.1 23.35 33.45 23.15 35.95 21.6 36.1 21.55 36.65 21.25 37.6 20.8 Q39.45 19.7 41.25 18.85 M16.8 10.45 L17.25 10.5 18.15 10.75 Q16.15 10.85 14.55 11.85 12.75 13.05 12.9 14.45 L13.65 18.95 Q12.5 14.0 12.15 13.75 11.75 13.45 10.95 13.45 10.15 13.45 8.65 14.55 7.15 15.6 6.85 16.25 6.45 16.8 6.45 17.6 L6.6 19.25 7.05 22.0 Q7.45 23.75 8.05 23.6 L8.9 23.3 9.45 23.05 10.0 22.75 10.2 22.6 11.55 21.7 12.95 20.9 Q13.7 20.25 13.75 19.6 L13.7 19.5 13.75 19.5 13.75 19.55 13.8 19.5 Q14.15 19.95 14.7 19.95 L19.1 18.6 Q20.1 18.3 20.55 17.15 L21.05 15.9 21.15 18.25 21.0 18.8 Q18.0 19.4 15.95 20.25 13.8 21.1 11.2 22.6 9.3 23.55 8.0 24.9 L7.15 24.45 7.1 24.4 6.75 22.25 Q5.75 17.2 5.35 17.2 5.15 17.2 4.8 17.75 L4.3 18.75 4.0 20.3 Q3.9 20.5 3.95 20.75 3.7 20.05 3.85 19.2 4.1 18.35 4.9 17.25 6.5 15.1 9.2 13.7 11.8 12.2 13.95 11.35 L16.8 10.45" fill="#a63d08" fill-rule="evenodd" stroke="none"/>
      <path d="M1.85 31.55 L1.75 30.95 1.85 30.75 1.85 30.35 1.85 26.6 1.8 24.85 1.8 24.8 1.8 24.75 2.05 23.95 2.3 23.75 Q2.85 23.7 3.7 25.15 L4.2 26.3 4.45 26.85 4.5 26.5 Q4.6 25.8 5.15 25.8 5.7 25.75 7.8 27.5 L9.15 28.85 9.3 29.95 Q9.45 31.75 8.95 34.1 L8.15 36.6 7.55 37.3 Q6.95 37.3 5.5 36.15 4.0 35.05 3.9 34.25 L4.15 30.45 Q3.8 32.5 3.3 32.75 L3.15 32.75 Q2.7 32.75 2.3 32.15 L1.85 31.55 M25.7 10.15 Q26.75 10.7 26.95 12.0 L27.8 16.65 27.6 17.6 27.1 17.65 26.6 17.75 26.0 17.85 25.6 16.0 25.3 13.65 Q25.1 10.95 25.2 10.65 L25.7 10.15 M32.55 19.7 Q30.35 19.5 28.75 17.85 28.4 17.45 28.25 16.65 L28.15 15.35 27.8 12.7 Q27.65 11.2 28.5 11.2 28.95 11.15 30.05 11.7 31.05 12.2 31.85 12.8 32.65 13.3 33.05 14.5 L33.35 16.1 33.45 15.45 Q33.6 14.8 33.85 14.8 L34.1 14.8 Q34.55 15.95 34.05 17.1 L32.75 19.5 32.55 19.7 M18.3 40.65 L17.65 39.6 17.45 38.8 17.3 35.85 17.05 38.0 16.75 39.45 16.55 39.9 Q16.4 40.35 15.55 40.35 L13.55 40.15 11.45 39.5 9.3 38.35 Q8.7 38.0 8.65 36.85 8.6 35.65 10.0 30.45 L10.15 30.25 Q10.55 29.7 10.9 29.45 11.2 29.2 11.5 29.2 L13.05 29.6 13.6 29.75 Q14.65 30.05 15.05 30.3 L15.15 30.4 16.0 31.35 16.55 32.5 17.15 34.55 17.2 34.55 Q17.0 32.75 18.75 31.4 L18.85 31.3 18.95 31.25 19.0 31.4 19.05 33.8 18.45 39.75 18.3 40.65" fill="#6c2605" fill-rule="evenodd" stroke="none"/>
      <path d="M18.0 42.1 L17.7 42.05 17.65 42.05 16.0 41.8 12.2 40.65 7.85 38.65 Q7.05 38.3 4.55 36.2 2.3 34.35 1.85 31.55 L2.3 32.15 Q2.7 32.75 3.15 32.75 L3.3 32.75 Q3.8 32.5 4.15 30.45 L3.9 34.25 Q4.0 35.05 5.5 36.15 6.95 37.3 7.55 37.3 L8.15 36.6 8.95 34.1 Q9.45 31.75 9.3 29.95 L9.15 28.85 7.8 27.5 Q5.7 25.75 5.15 25.8 4.6 25.8 4.5 26.5 L4.45 26.85 4.2 26.3 3.7 25.15 Q2.85 23.7 2.3 23.75 L2.05 23.95 1.8 24.75 1.35 21.0 1.4 21.0 1.9 22.05 Q2.85 23.65 3.7 24.35 L4.25 24.75 5.25 25.5 6.7 26.35 6.75 26.35 9.0 27.5 11.15 28.3 Q14.0 29.4 16.55 29.75 L16.6 29.75 18.8 29.75 18.85 29.95 18.9 30.4 18.95 31.25 18.85 31.3 18.75 31.4 Q17.0 32.75 17.2 34.55 L17.15 34.55 16.55 32.5 16.0 31.35 15.15 30.4 15.05 30.3 Q14.65 30.05 13.6 29.75 L13.05 29.6 11.5 29.2 Q11.2 29.2 10.9 29.45 10.55 29.7 10.15 30.25 L10.0 30.45 Q8.6 35.65 8.65 36.85 8.7 38.0 9.3 38.35 L11.45 39.5 13.55 40.15 15.55 40.35 Q16.4 40.35 16.55 39.9 L16.75 39.45 17.05 38.0 17.3 35.85 17.45 38.8 17.65 39.6 18.3 40.65 18.0 42.1 M25.7 10.15 L26.15 9.9 26.95 10.1 Q29.4 10.85 32.0 12.55 L32.1 12.6 Q33.65 13.7 34.1 14.8 L33.85 14.8 Q33.6 14.8 33.45 15.45 L33.35 16.1 33.05 14.5 Q32.65 13.3 31.85 12.8 31.05 12.2 30.05 11.7 28.95 11.15 28.5 11.2 27.65 11.2 27.8 12.7 L28.15 15.35 28.25 16.65 Q28.4 17.45 28.75 17.85 30.35 19.5 32.55 19.7 L32.1 20.3 Q29.95 19.1 27.85 18.7 L26.2 18.45 26.0 17.85 26.6 17.75 27.1 17.65 27.6 17.6 27.8 16.65 26.95 12.0 Q26.75 10.7 25.7 10.15" fill="#7a2a06" fill-rule="evenodd" stroke="none"/>
      <path d="M44.3 29.85 L44.0 29.95 43.95 29.0 44.45 28.8 44.55 29.75 44.3 29.85 M34.6 34.5 L32.55 35.9 32.15 36.35 32.1 36.35 32.1 36.3 32.05 36.3 32.1 35.4 33.35 34.75 34.5 34.05 34.6 34.5 M24.8 40.95 L23.45 41.4 20.2 42.05 18.0 42.1 18.3 40.65 19.1 40.65 19.85 40.65 22.3 40.1 22.35 40.1 23.2 39.85 23.95 39.6 24.8 40.95 M41.8 18.6 L42.0 19.15 41.45 19.4 41.25 18.85 41.8 18.6 M32.3 23.8 L32.5 24.7 32.45 24.7 Q32.4 24.7 32.3 24.8 31.5 24.9 30.8 25.35 L30.65 25.5 30.4 25.0 30.95 24.7 Q31.5 24.25 32.0 24.05 L32.3 23.8 M18.95 31.25 L18.9 30.4 18.85 29.95 18.8 29.75 18.85 29.75 20.55 29.5 22.35 29.05 23.1 28.8 23.1 28.85 23.1 29.75 22.95 30.25 22.05 30.05 21.7 30.1 21.3 30.15 Q20.05 30.4 18.95 31.25" fill="#631d05" fill-rule="evenodd" stroke="none"/>
      <path d="M39.6 18.1 L40.0 17.9 40.1 17.85 41.8 18.6 41.25 18.85 41.05 18.75 39.6 18.1 M28.95 24.1 L29.0 24.05 29.2 23.9 29.2 23.85 29.3 23.8 30.25 23.25 32.3 23.8 32.0 24.05 Q31.5 24.25 30.95 24.7 L30.4 25.0 30.35 24.95 28.95 24.1 M22.4 27.45 L22.8 28.35 22.85 28.35 23.1 28.8 22.35 29.05 20.55 29.5 18.85 29.75 18.8 29.75 18.35 29.2 17.55 28.3 17.55 28.25 21.85 27.55 22.4 27.45" fill="#802606" fill-rule="evenodd" stroke="none"/>
      <path d="M18.15 10.75 L18.25 10.75 Q19.3 10.7 20.1 11.6 20.75 12.35 20.9 13.65 L20.95 13.65 Q20.85 12.05 21.05 11.25 21.15 10.55 21.7 10.25 L22.05 10.1 22.5 10.0 23.5 9.9 25.65 10.1 25.7 10.15 25.2 10.65 Q25.1 10.95 25.3 13.65 L25.6 16.0 26.0 17.85 25.35 17.95 Q21.6 18.1 21.25 15.25 L21.15 15.3 21.05 15.75 Q20.8 13.0 19.2 11.5 L18.15 10.75" fill="#822f06" fill-rule="evenodd" stroke="none"/>
      <path d="M19.1 9.9 L20.35 9.75 20.75 9.65 Q22.9 9.35 25.2 9.65 L25.8 9.8 26.15 9.9 25.7 10.15 25.65 10.1 23.5 9.9 22.5 10.0 22.05 10.1 21.7 10.25 Q21.15 10.55 21.05 11.25 20.85 12.05 20.95 13.65 L20.9 13.65 Q20.75 12.35 20.1 11.6 19.3 10.7 18.25 10.75 L18.15 10.75 17.25 10.5 16.8 10.45 19.1 9.9 M26.0 17.85 L26.2 18.45 22.7 18.55 21.15 18.8 21.0 18.8 21.15 18.25 21.05 15.9 21.05 15.75 21.15 15.3 21.25 15.25 Q21.6 18.1 25.35 17.95 L26.0 17.85" fill="#8f3107" fill-rule="evenodd" stroke="none"/>
      <path d="M50.0 24.65 L47.65 28.95 44.95 30.1 44.95 29.65 44.85 28.7 44.8 28.3 44.6 27.05 43.85 23.4 43.75 23.0 45.05 25.65 Q45.75 26.9 47.85 26.0 L50.0 24.65" fill="#b19741" fill-rule="evenodd" stroke="none"/>
      <path d="M44.95 30.1 L44.9 30.15 44.3 29.85 44.55 29.75 44.45 28.8 44.4 28.35 44.3 27.5 43.45 23.8 42.85 21.5 42.5 20.45 42.25 19.9 42.0 19.15 41.8 18.6 40.1 17.85 40.05 17.8 40.15 17.55 40.6 17.65 40.8 17.7 41.05 17.8 41.2 17.85 42.3 18.6 42.45 18.95 43.65 22.7 43.75 23.0 43.85 23.4 44.6 27.05 44.8 28.3 44.85 28.7 44.95 29.65 44.95 30.1" fill="#75734d" fill-rule="evenodd" stroke="none"/>
      <path d="M46.1 16.9 L46.15 16.85 46.95 17.4 48.15 18.3 Q49.8 19.85 50.85 22.1 L50.0 24.65 47.85 26.0 Q45.75 26.9 45.05 25.65 L43.75 23.0 43.65 22.7 42.45 18.95 42.3 18.6 Q42.9 17.85 43.55 17.55 44.1 17.25 44.6 17.05 L46.1 16.9" fill="#d8ca7c" fill-rule="evenodd" stroke="none"/>
      <path d="M40.7 17.2 L42.05 16.55 42.3 16.5 43.4 16.1 44.15 16.3 44.35 16.45 43.65 17.3 41.6 17.85 41.2 17.85 41.05 17.8 40.8 17.7 40.6 17.5 40.7 17.2" fill="#fbf1bf" fill-rule="evenodd" stroke="none"/>
      <path d="M45.75 16.75 L45.8 16.8 46.1 16.9 44.6 17.05 Q44.1 17.25 43.55 17.55 42.9 17.85 42.3 18.6 L41.2 17.85 41.6 17.85 43.65 17.3 44.35 16.45 44.15 16.3 43.4 16.1 42.3 16.5 42.25 16.45 43.45 15.8 43.5 15.8 44.15 16.05 44.4 16.2 45.4 16.55 45.4 16.6 45.75 16.75 M40.15 17.55 L40.7 17.2 40.6 17.5 40.8 17.7 40.6 17.65 40.15 17.55" fill="#ffffff" fill-rule="evenodd" stroke="none"/>
      <path d="M45.8 16.75 L45.75 16.75 M46.15 16.85 L46.0 16.8 45.8 16.75 M46.15 16.85 L46.95 17.4 48.15 18.3 Q49.8 19.85 50.85 22.1 L50.0 24.65 47.65 28.95 44.95 30.1 44.9 30.15 44.3 29.85 44.0 29.95 Q41.15 31.05 38.15 32.5 L36.65 33.35 34.6 34.5 32.55 35.9 32.15 36.35 M31.75 36.55 L29.45 38.3 Q27.2 40.0 24.8 40.95 L23.45 41.4 20.2 42.05 18.0 42.1 17.7 42.05 17.65 42.05 16.0 41.8 12.2 40.65 7.85 38.65 Q7.05 38.3 4.55 36.2 2.3 34.35 1.85 31.55 L1.75 30.95 1.85 30.75 1.85 30.35 1.85 26.6 1.8 24.85 1.8 24.8 1.8 24.75 1.35 21.0 1.3 20.9 1.35 21.0 1.35 20.9 Q0.75 19.3 2.5 16.95 4.35 14.5 7.5 12.8 10.6 11.1 13.1 10.05 15.6 9.05 19.1 8.4 L21.0 8.1 27.0 8.25 Q30.4 9.0 34.15 11.5 36.85 13.3 36.85 15.3 L36.85 15.5 36.85 15.65 36.8 16.0 36.8 16.05 37.0 19.45 39.6 18.1 M40.1 17.85 L40.05 17.8 40.15 17.55 40.7 17.2 42.05 16.55 42.25 16.45 43.45 15.8 43.5 15.8 44.15 16.05 44.4 16.2 45.4 16.55 45.4 16.6 45.75 16.75 M36.7 16.25 L36.75 16.2 36.75 15.9 M36.85 15.5 L36.8 16.0 M26.2 18.45 L27.85 18.7 Q29.95 19.1 32.1 20.3 M21.0 18.8 L21.15 18.8 22.7 18.55 26.2 18.45 M29.0 24.05 L28.95 24.1 29.0 24.05 29.2 23.9 29.2 23.85 29.3 23.8 30.25 23.25 33.5 21.4 M26.55 25.35 Q26.85 25.15 27.3 25.0 L27.7 24.7 28.95 24.1 M26.55 25.35 L25.45 26.0 22.75 27.3 22.45 27.4 22.4 27.45 21.85 27.55 17.55 28.25 16.9 28.1 Q14.75 27.85 12.3 26.95 10.3 26.3 8.45 25.2 L8.0 24.9 Q9.3 23.55 11.2 22.6 13.8 21.1 15.95 20.25 18.0 19.4 21.0 18.8 M36.7 16.5 L36.7 16.25 M36.7 16.5 L36.8 16.05 M33.75 21.3 L36.4 19.75 37.0 19.45 M33.7 21.3 L33.75 21.3" fill="none" stroke="#000000" stroke-linecap="round" stroke-linejoin="round" stroke-opacity="0.3019608" stroke-width="0.05"/>
      <path d="M24.0 34.05 L24.45 34.4 23.95 34.05 23.9 34.0 24.0 34.05" fill="#bb6906" fill-rule="evenodd" stroke="none"/>
      <path d="M29.7 30.7 Q29.8 30.5 30.05 30.4 L30.95 30.45 31.0 30.55 31.05 30.6 31.5 31.7 31.5 31.75 31.55 31.75 31.6 31.8 31.55 31.85 31.5 31.75 Q31.0 30.65 29.7 30.7 M31.55 32.0 L31.55 32.15 31.55 32.6 31.5 33.05 31.35 33.6 31.3 33.6 30.45 34.75 29.8 34.75 30.5 34.35 Q31.5 33.4 31.55 32.0" fill="#0f130d" fill-rule="evenodd" stroke="none"/>
      <path d="M28.85 32.05 Q28.0 32.1 25.7 33.1 L27.65 31.7 Q28.95 30.85 30.35 31.1 30.9 31.55 29.45 31.95 L29.3 32.0 28.85 32.05" fill="#fbf1bf" fill-rule="evenodd" stroke="none"/>
      <path d="M24.0 34.05 L24.25 33.8 Q25.15 33.0 26.05 32.35 L26.55 31.9 28.3 31.0 28.55 30.95 28.7 30.95 29.0 30.8 29.35 30.75 29.6 30.75 Q31.1 30.95 31.2 32.05 L31.2 32.25 30.9 32.45 Q29.65 33.2 27.65 33.7 L24.55 34.05 24.45 34.05 24.0 34.05 M28.85 32.05 L29.3 32.0 29.45 31.95 Q30.9 31.55 30.35 31.1 28.95 30.85 27.65 31.7 L25.7 33.1 Q28.0 32.1 28.85 32.05" fill="#d8ca7c" fill-rule="evenodd" stroke="none"/>
      <path d="M31.55 31.85 L31.55 32.0 Q31.5 33.4 30.5 34.35 L29.8 34.75 29.7 34.8 28.05 35.35 26.0 35.05 Q25.05 34.8 24.0 34.05 L24.45 34.05 24.55 34.05 27.65 33.7 Q29.65 33.2 30.9 32.45 L31.2 32.25 31.2 32.05 Q31.1 30.95 29.6 30.75 L29.7 30.7 Q31.0 30.65 31.5 31.75 L31.55 31.85" fill="#b19741" fill-rule="evenodd" stroke="none"/>
      <path d="M29.7 30.7 Q29.8 30.5 30.05 30.4 L30.95 30.45 31.0 30.55 31.05 30.6 31.5 31.7 31.5 31.75 31.55 31.85 31.55 32.0 31.55 32.15 31.55 32.6 31.5 33.05 31.35 33.6 31.3 33.6 30.45 34.75 29.8 34.75 29.7 34.8 28.05 35.35 26.0 35.05 Q25.05 34.8 24.0 34.05 L24.45 34.4 23.95 34.05 23.9 34.0 24.0 34.05 24.25 33.8 Q25.15 33.0 26.05 32.35 L26.55 31.9 28.3 31.0 28.55 30.95 28.7 30.95 29.0 30.8 29.35 30.75 29.6 30.75 M29.7 30.7 Q31.0 30.65 31.5 31.75 M31.55 32.0 Q31.5 33.4 30.5 34.35 L29.8 34.75" fill="none" stroke="#000000" stroke-linecap="round" stroke-linejoin="round" stroke-opacity="0.3019608" stroke-width="0.05"/>
      <path d="M44.8 28.3 L44.4 28.35 43.85 28.45 42.65 28.9 M38.15 22.05 L36.4 22.95 M14.05 30.7 L12.05 30.2 M17.95 31.3 L16.0 31.1 M4.55 34.1 L3.95 33.5 3.3 32.75 2.9 32.25 M7.65 36.3 L6.0 35.25 M6.6 27.8 L4.9 26.75 M10.05 29.45 L9.15 29.05 8.4 28.7 M19.45 39.85 L18.45 39.75 17.65 39.6 M15.45 39.15 L13.45 38.65 M11.45 38.0 L9.55 37.25 M36.95 31.7 L36.65 31.9 Q36.25 32.05 35.95 32.3 L35.15 32.7 M33.5 33.7 Q32.85 34.05 32.2 34.45 L31.8 34.75 M31.3 25.7 L30.35 26.3 29.6 26.8 M28.0 27.9 L26.4 28.95 M30.1 35.85 L28.5 36.95 M23.3 39.75 L22.35 40.1 21.35 40.0 M26.7 38.1 L25.05 39.05 M22.05 31.05 L19.95 31.35 M3.35 25.55 L2.4 24.65 M34.65 23.85 L33.0 24.75 M40.5 29.85 L38.65 30.8 M41.65 20.45 L39.9 21.25" fill="none" stroke="#a1893b" stroke-linecap="round" stroke-linejoin="round" stroke-width="1.0"/>
    </g>
    <g id="sprite2" transform="matrix(1.0, 0.0, 0.0, 1.0, 0.0, 0.0)">
      <use height="2.0" transform="matrix(1.0, 0.0, 0.0, 1.0, 0.0, 0.0)" width="1.95" xlink:href="#shape2"/>
    </g>
    <g id="shape2" transform="matrix(1.0, 0.0, 0.0, 1.0, 0.0, 0.0)">
      <path d="M1.45 0.15 L1.65 0.3 1.95 1.05 1.65 1.75 0.95 2.0 Q0.55 1.95 0.25 1.65 L0.05 1.25 0.5 1.45 Q0.95 1.5 1.2 1.2 L1.5 0.5 1.45 0.15" fill="#b19741" fill-rule="evenodd" stroke="none"/>
      <path d="M1.45 0.15 L1.5 0.5 1.2 1.2 Q0.95 1.5 0.5 1.45 L0.05 1.25 0.0 0.9 Q0.0 0.45 0.25 0.2 L0.95 0.0 1.45 0.15 M0.75 0.85 L0.95 0.6 0.75 0.4 Q0.45 0.35 0.45 0.55 0.45 0.8 0.75 0.85" fill="#d8ca7c" fill-rule="evenodd" stroke="none"/>
      <path d="M0.75 0.85 Q0.45 0.8 0.45 0.55 0.45 0.35 0.75 0.4 L0.95 0.6 0.75 0.85" fill="#fbf1bf" fill-rule="evenodd" stroke="none"/>
      <path d="M0.05 1.25 L0.25 1.65 Q0.55 1.95 0.95 2.0 L1.65 1.75 1.95 1.05 1.65 0.3 1.45 0.15 M0.05 1.25 L0.0 0.9 Q0.0 0.45 0.25 0.2 L0.95 0.0 1.45 0.15" fill="none" stroke="#000000" stroke-linecap="round" stroke-linejoin="round" stroke-opacity="0.3019608" stroke-width="0.05"/>
    </g>
    <g id="shape3" transform="matrix(1.0, 0.0, 0.0, 1.0, -15.9, -12.15)">
      <path d="M28.65 31.05 Q28.2 29.2 27.1 27.65 25.9 26.05 23.95 24.7 L21.35 22.9 20.3 21.85 19.35 19.95 18.65 18.45 18.65 18.95 Q18.6 21.5 19.1 23.35 19.55 25.2 23.45 26.8 26.05 27.85 27.8 31.65 L27.1 31.8 23.45 31.15 Q22.7 29.25 21.4 27.85 17.4 23.9 17.4 22.45 L17.9 19.45 18.35 17.15 18.3 17.05 19.15 18.05 20.15 20.3 Q20.7 21.8 22.9 23.4 L26.55 26.6 27.1 27.35 Q28.1 28.7 28.75 30.35 L28.9 30.7 28.65 31.05 M24.05 40.1 L24.1 40.1 24.05 40.1" fill="#d8ca7c" fill-rule="evenodd" stroke="none"/>
      <path d="M18.3 17.05 L18.35 17.15 17.9 19.45 17.4 22.45 Q17.4 23.9 21.4 27.85 22.7 29.25 23.45 31.15 L21.85 30.65 19.25 29.7 18.7 29.25 18.25 28.9 18.0 28.75 17.65 28.6 Q16.65 27.95 16.25 26.9 L15.95 25.75 15.95 24.25 16.4 21.65 17.3 18.65 18.05 17.15 18.1 17.1 Q18.15 17.0 18.25 17.05 L18.3 17.05" fill="#b19741" fill-rule="evenodd" stroke="none"/>
      <path d="M24.1 40.1 L24.35 40.0 25.75 39.25 26.55 40.45 26.9 41.25 27.8 40.05 28.65 39.1 28.7 39.05 29.4 39.8 29.3 40.1 28.3 41.05 27.05 41.6 26.9 41.6 Q26.05 41.65 24.95 41.1 24.35 40.8 24.1 40.1" fill="#75734d" fill-rule="evenodd" stroke="none"/>
      <path d="M29.3 40.1 Q28.2 43.6 25.0 44.25 21.55 44.95 19.35 42.2 L19.3 42.1 20.25 40.85 20.8 40.05 21.05 39.85 Q21.95 39.15 22.1 39.15 L22.65 39.95 23.05 40.75 24.05 40.1 24.1 40.1 Q24.35 40.8 24.95 41.1 26.05 41.65 26.9 41.6 L27.05 41.6 28.3 41.05 29.3 40.1" fill="#575439" fill-rule="evenodd" stroke="none"/>
      <path d="M27.8 31.65 Q26.05 27.85 23.45 26.8 19.55 25.2 19.1 23.35 18.6 21.5 18.65 18.95 L18.65 18.45 19.35 19.95 20.3 21.85 21.35 22.9 23.95 24.7 Q25.9 26.05 27.1 27.65 28.2 29.2 28.65 31.05 L27.8 31.65" fill="#fbf1bf" fill-rule="evenodd" stroke="none"/>
      <path d="M28.65 31.05 L28.9 30.7 29.2 31.95 Q29.55 33.75 29.55 36.45 L29.55 38.65 29.4 39.8 28.7 39.05 28.65 39.1 27.8 40.05 26.9 41.25 26.55 40.45 25.75 39.25 24.35 40.0 24.1 40.1 24.05 40.1 24.05 40.0 24.15 39.55 Q24.6 35.25 23.8 32.25 L23.45 31.15 27.1 31.8 27.8 31.65 28.35 33.05 29.15 35.7 28.95 32.55 28.75 31.35 28.65 31.05" fill="#c4b35c" fill-rule="evenodd" stroke="none"/>
      <path d="M18.7 29.25 L19.25 29.7 21.85 30.65 23.45 31.15 23.8 32.25 Q24.6 35.25 24.15 39.55 L24.05 40.0 24.05 40.1 23.05 40.75 22.65 39.95 22.1 39.15 Q21.95 39.15 21.05 39.85 L20.8 40.05 Q21.75 38.0 20.9 34.25 20.1 30.95 18.95 29.55 L18.7 29.25" fill="#a1893b" fill-rule="evenodd" stroke="none"/>
      <path d="M27.8 31.65 L28.65 31.05 28.75 31.35 28.95 32.55 29.15 35.7 28.35 33.05 27.8 31.65" fill="#e8d886" fill-rule="evenodd" stroke="none"/>
      <path d="M28.9 30.7 L28.75 30.35 Q28.1 28.7 27.1 27.35 L26.55 26.6 22.9 23.4 Q20.7 21.8 20.15 20.3 L19.15 18.05 18.3 17.05 M18.7 29.25 L18.25 28.9 18.0 28.75 17.65 28.6 Q16.65 27.95 16.25 26.9 L15.95 25.75 15.95 24.25 16.4 21.65 17.3 18.65 18.05 17.15 18.1 17.1 Q18.15 17.0 18.25 17.05 L18.3 17.05 M29.4 39.8 L29.55 38.65 29.55 36.45 Q29.55 33.75 29.2 31.95 L28.9 30.7 M20.8 40.05 Q21.75 38.0 20.9 34.25 20.1 30.95 18.95 29.55 L18.7 29.25 M29.3 40.1 Q28.2 43.6 25.0 44.25 21.55 44.95 19.35 42.2 L19.3 42.1 20.25 40.85 20.8 40.05 M29.3 40.1 L29.4 39.8" fill="none" stroke="#000000" stroke-linecap="round" stroke-linejoin="round" stroke-opacity="0.3019608" stroke-width="0.05"/>
      <path d="M40.1 24.35 Q39.45 22.55 38.3 21.25 37.0 19.85 35.05 18.8 L32.4 17.45 31.25 16.45 30.25 14.8 29.4 13.4 29.45 13.85 Q29.7 16.35 30.3 18.15 30.9 19.85 34.75 20.9 37.3 21.6 39.35 25.05 L38.7 25.25 35.15 25.1 Q34.3 23.35 32.95 22.15 28.75 18.85 28.6 17.45 L28.8 14.5 29.0 12.2 28.95 12.15 Q29.3 12.1 29.85 12.95 L31.0 15.05 Q31.65 16.4 33.9 17.7 36.1 18.95 37.65 20.35 L38.25 20.95 40.05 23.65 40.25 24.0 40.1 24.35 M36.65 33.7 L36.7 33.7 36.65 33.7" fill="#d8ca7c" fill-rule="evenodd" stroke="none"/>
      <path d="M28.95 12.15 L29.0 12.2 28.8 14.5 28.6 17.45 Q28.75 18.85 32.95 22.15 34.3 23.35 35.15 25.1 L33.6 24.8 31.1 24.15 30.55 23.85 30.05 23.55 29.85 23.45 29.5 23.35 Q28.45 22.8 28.0 21.9 L27.6 20.8 27.45 19.35 Q27.4 18.1 27.65 16.8 L28.15 13.8 28.7 12.25 28.75 12.2 Q28.8 12.1 28.9 12.15 L28.95 12.15" fill="#b19741" fill-rule="evenodd" stroke="none"/>
      <path d="M36.7 33.7 L36.9 33.5 38.15 32.6 39.0 33.7 39.45 34.4 40.2 33.15 40.9 32.1 40.95 32.0 41.65 32.75 41.6 33.0 40.75 34.05 39.65 34.7 39.5 34.75 37.55 34.5 Q37.0 34.3 36.7 33.7" fill="#75734d" fill-rule="evenodd" stroke="none"/>
      <path d="M41.6 33.0 Q40.9 36.5 37.95 37.55 34.8 38.65 32.45 36.25 L32.4 36.15 33.15 34.85 33.6 34.0 33.8 33.75 34.7 32.95 35.3 33.65 35.8 34.45 36.65 33.7 36.7 33.7 Q37.0 34.3 37.55 34.5 L39.5 34.75 39.65 34.7 40.75 34.05 41.6 33.0" fill="#575439" fill-rule="evenodd" stroke="none"/>
      <path d="M39.35 25.05 Q37.3 21.6 34.75 20.9 30.9 19.85 30.3 18.15 29.7 16.35 29.45 13.85 L29.4 13.4 30.25 14.8 31.25 16.45 32.4 17.45 35.05 18.8 Q37.0 19.85 38.3 21.25 39.45 22.55 40.1 24.35 L39.35 25.05" fill="#fbf1bf" fill-rule="evenodd" stroke="none"/>
      <path d="M40.1 24.35 L40.25 24.0 40.7 25.2 41.45 29.45 41.65 31.55 41.65 32.75 40.95 32.0 40.9 32.1 40.2 33.15 39.45 34.4 39.0 33.7 38.15 32.6 36.9 33.5 36.7 33.7 36.65 33.7 36.65 33.6 36.65 33.1 Q36.7 28.85 35.65 26.1 L35.15 25.1 38.7 25.25 39.35 25.05 40.0 26.35 41.0 28.8 40.5 25.7 40.15 24.6 40.1 24.35" fill="#c4b35c" fill-rule="evenodd" stroke="none"/>
      <path d="M33.6 34.0 Q34.3 31.9 33.1 28.4 32.05 25.3 30.8 24.1 L30.55 23.85 31.1 24.15 33.6 24.8 35.15 25.1 35.65 26.1 Q36.7 28.85 36.65 33.1 L36.65 33.6 36.65 33.7 35.8 34.45 35.3 33.65 34.7 32.95 33.8 33.75 33.6 34.0" fill="#a1893b" fill-rule="evenodd" stroke="none"/>
      <path d="M39.35 25.05 L40.1 24.35 40.15 24.6 40.5 25.7 41.0 28.8 40.0 26.35 39.35 25.05" fill="#e8d886" fill-rule="evenodd" stroke="none"/>
      <path d="M40.25 24.0 L40.05 23.65 38.25 20.95 37.65 20.35 Q36.1 18.95 33.9 17.7 31.65 16.4 31.0 15.05 L29.85 12.95 Q29.3 12.1 28.95 12.15 M30.55 23.85 L30.05 23.55 29.85 23.45 29.5 23.35 Q28.45 22.8 28.0 21.9 L27.6 20.8 27.45 19.35 Q27.4 18.1 27.65 16.8 L28.15 13.8 28.7 12.25 28.75 12.2 Q28.8 12.1 28.9 12.15 L28.95 12.15 M41.6 33.0 Q40.9 36.5 37.95 37.55 34.8 38.65 32.45 36.25 L32.4 36.15 33.15 34.85 33.6 34.0 Q34.3 31.9 33.1 28.4 32.05 25.3 30.8 24.1 L30.55 23.85 M41.65 32.75 L41.65 31.55 41.45 29.45 40.7 25.2 40.25 24.0 M41.6 33.0 L41.65 32.75" fill="none" stroke="#000000" stroke-linecap="round" stroke-linejoin="round" stroke-opacity="0.3019608" stroke-width="0.05"/>
    </g>
    <g id="shape4" transform="matrix(1.0, 0.0, 0.0, 1.0, -0.7, -7.45)">
      <path d="M21.0 8.1 L27.0 8.25 Q30.4 9.0 34.15 11.5 36.85 13.3 36.85 15.3 L36.85 15.5 36.85 15.65 36.8 15.9 36.8 15.95 37.0 19.45 39.6 18.1 40.0 17.9 40.1 17.85 40.05 17.8 40.15 17.55 40.7 17.2 42.05 16.55 42.25 16.45 43.45 15.8 43.5 15.8 44.15 16.05 44.4 16.2 45.4 16.55 45.4 16.6 45.75 16.75 45.8 16.75 46.0 16.8 46.15 16.85 46.95 17.4 48.15 18.3 Q49.8 19.85 50.85 22.1 L50.0 24.65 47.65 28.95 44.95 30.1 44.9 30.15 44.3 29.85 44.0 29.95 41.6 30.95 41.65 31.55 41.65 32.75 41.6 33.0 Q40.9 36.5 37.95 37.55 34.8 38.65 32.45 36.25 L32.4 36.15 32.55 35.95 32.45 36.05 32.15 36.35 32.05 36.35 31.85 36.45 31.75 36.55 29.55 38.25 29.55 38.65 29.4 39.8 29.3 40.1 Q28.2 43.6 25.0 44.25 21.55 44.95 19.35 42.2 L19.3 42.1 18.0 42.1 17.7 42.05 17.65 42.05 16.0 41.8 12.2 40.65 7.85 38.65 Q7.05 38.3 4.55 36.2 2.3 34.35 1.85 31.55 L1.75 30.95 1.85 30.75 1.85 30.35 1.85 26.6 1.8 24.85 1.8 24.75 1.35 21.0 1.35 20.9 Q0.75 19.3 2.5 16.95 4.35 14.5 7.5 12.8 10.6 11.1 13.1 10.05 15.6 9.05 19.1 8.4 L21.0 8.1 M27.45 18.65 L26.2 18.45 22.7 18.55 21.15 18.8 21.0 18.8 19.65 19.1 20.15 20.3 Q20.7 21.8 22.9 23.4 L25.8 25.8 26.55 25.35 26.8 25.1 27.0 24.95 27.05 24.95 27.55 24.5 29.05 23.25 29.2 23.2 Q28.4 22.65 28.0 21.9 L27.6 20.8 27.45 19.35 27.45 18.65 M16.9 28.1 Q14.75 27.85 12.3 26.95 10.3 26.3 8.45 25.2 L8.0 24.9 Q9.3 23.55 11.2 22.6 13.8 21.1 15.95 20.25 L16.9 19.9 16.4 21.65 15.95 24.25 15.95 25.75 16.25 26.9 Q16.5 27.6 17.1 28.15 L16.9 28.1" fill="none" stroke="#000000" stroke-linecap="round" stroke-linejoin="round" stroke-opacity="0.3019608" stroke-width="1.0"/>
    </g>
  </defs>
</svg>
