<?xml version="1.0" encoding="UTF-8" standalone="no"?>
<svg xmlns:xlink="http://www.w3.org/1999/xlink" height="520.0px" width="520.0px" xmlns="http://www.w3.org/2000/svg">
  <g transform="matrix(10.0, 0.0, 0.0, 10.0, 0.0, 0.0)">
    <use height="52.0" transform="matrix(1.0, 0.0, 0.0, 1.0, 0.0, 0.0)" width="52.0" xlink:href="#shape0"/>
  </g>
  <defs>
    <g id="shape0" transform="matrix(1.0, 0.0, 0.0, 1.0, 0.0, 0.0)">
      <path d="M52.0 0.0 L52.0 52.0 0.0 52.0 0.0 0.0 52.0 0.0" fill="#33cc33" fill-opacity="0.0" fill-rule="evenodd" stroke="none"/>
      <path d="M38.7 14.15 L35.45 14.15 34.3 13.55 32.15 12.7 31.0 11.65 Q30.4 11.05 29.6 11.05 L25.4 12.15 21.05 13.35 18.95 13.65 17.5 13.7 15.6 13.95 Q14.2 14.3 14.2 15.0 L14.25 15.5 14.55 16.0 12.65 17.25 12.35 18.55 Q11.8 20.25 10.45 22.7 8.2 26.8 11.2 27.1 15.35 26.55 16.6 20.35 L16.95 18.2 Q17.4 15.25 18.9 14.85 20.95 15.35 19.8 17.2 18.65 18.95 18.5 22.7 18.2 27.4 22.35 28.0 24.85 28.2 24.8 24.35 24.75 17.35 26.4 16.2 29.35 14.05 28.9 18.3 27.0 28.5 31.45 26.3 34.5 24.45 35.85 17.35 36.5 19.9 37.85 21.65 L38.5 22.4 Q42.0 25.6 43.55 23.35 45.8 19.6 41.55 17.2 39.95 16.4 38.7 14.15 M21.95 14.4 Q22.95 13.7 24.0 13.7 24.85 13.7 25.55 14.25 26.1 14.65 26.1 14.95 L25.8 15.15 Q24.8 15.9 24.25 17.05 23.8 17.95 22.55 17.95 21.5 17.95 21.15 17.4 20.85 17.0 20.85 16.25 20.85 15.2 21.95 14.4 M29.7 14.15 Q29.95 13.9 30.4 13.9 31.1 13.9 31.5 15.0 L31.8 16.5 Q31.8 17.3 31.0 18.65 30.2 19.95 29.85 19.95 29.3 19.95 29.3 18.4 L29.4 17.25 29.45 16.4 29.35 15.7 29.3 15.5 29.2 15.1 29.2 15.0 29.7 14.15" fill="#79b2c4" fill-rule="evenodd" stroke="none"/>
      <path d="M29.7 14.15 L29.2 15.0 29.2 15.1 29.3 15.5 29.35 15.7 29.45 16.4 29.4 17.25 29.3 18.4 Q29.3 19.95 29.85 19.95 30.2 19.95 31.0 18.65 31.8 17.3 31.8 16.5 L31.5 15.0 Q31.1 13.9 30.4 13.9 29.95 13.9 29.7 14.15 M21.95 14.4 Q20.85 15.2 20.85 16.25 20.85 17.0 21.15 17.4 21.5 17.95 22.55 17.95 23.8 17.95 24.25 17.05 24.8 15.9 25.8 15.15 L26.1 14.95 Q26.1 14.65 25.55 14.25 24.85 13.7 24.0 13.7 22.95 13.7 21.95 14.4" fill="#8ed4e5" fill-rule="evenodd" stroke="none"/>
      <path d="M38.7 14.15 L38.25 13.35 37.75 12.2 36.5 12.8 36.65 11.5 30.85 7.7 13.1 11.35 11.2 13.95 12.65 16.9 12.65 17.25 14.55 16.0 14.25 15.5 14.2 15.0 Q14.2 14.3 15.6 13.95 L17.5 13.7 18.95 13.65 21.05 13.35 25.4 12.15 29.6 11.05 Q30.4 11.05 31.0 11.65 L32.15 12.7 34.3 13.55 35.45 14.15 38.7 14.15" fill="#61a7b8" fill-rule="evenodd" stroke="none"/>
      <path d="M12.65 17.25 L12.65 16.9 11.2 13.95 13.1 11.35 30.85 7.7 36.65 11.5 36.5 12.8 37.75 12.2 38.25 13.35 38.7 14.15 M12.65 17.25 L12.35 18.55 Q11.8 20.25 10.45 22.7 8.2 26.8 11.2 27.1 15.35 26.55 16.6 20.35 L16.95 18.2 Q17.4 15.25 18.9 14.85 20.95 15.35 19.8 17.2 18.65 18.95 18.5 22.7 18.2 27.4 22.35 28.0 24.85 28.2 24.8 24.35 24.75 17.35 26.4 16.2 29.35 14.05 28.9 18.3 27.0 28.5 31.45 26.3 34.5 24.45 35.85 17.35 36.5 19.9 37.85 21.65 L38.5 22.4 Q42.0 25.6 43.55 23.35 45.8 19.6 41.55 17.2 39.95 16.4 38.7 14.15 M30.85 7.7 L31.1 7.65" fill="none" stroke="#ffffff" stroke-linecap="round" stroke-linejoin="round" stroke-opacity="0.3019608" stroke-width="0.05"/>
      <path d="M32.8 16.7 Q32.3 16.55 31.95 16.1 31.65 15.65 31.75 15.15 31.75 14.65 32.2 14.3 32.6 13.95 33.15 14.05 33.6 14.1 33.9 14.55 34.25 15.0 34.2 15.6 L33.7 16.45 32.8 16.7" fill="#99e0f7" fill-rule="evenodd" stroke="none"/>
      <path d="M32.4 14.7 Q32.45 14.4 32.65 14.25 L33.05 14.15 Q33.3 14.2 33.45 14.4 L33.55 14.85 33.35 15.25 32.9 15.4 32.55 15.15 32.4 14.7" fill="#abeefe" fill-rule="evenodd" stroke="none"/>
      <path d="M29.05 11.95 Q28.7 11.9 28.5 11.6 L28.35 10.95 Q28.45 10.6 28.7 10.4 28.95 10.15 29.25 10.25 29.6 10.3 29.8 10.6 L29.95 11.25 29.65 11.8 29.05 11.95" fill="#99e0f7" fill-rule="evenodd" stroke="none"/>
      <path d="M28.8 10.7 L28.9 10.4 29.2 10.35 29.45 10.5 29.5 10.8 29.35 11.05 29.1 11.15 28.85 10.95 28.8 10.7" fill="#abeefe" fill-rule="evenodd" stroke="none"/>
      <path d="M22.15 15.4 L21.75 15.1 21.6 14.6 Q21.65 14.3 21.85 14.15 22.05 14.0 22.3 14.0 22.6 14.05 22.75 14.3 L22.85 14.8 22.6 15.25 22.15 15.4" fill="#99e0f7" fill-rule="evenodd" stroke="none"/>
      <path d="M22.0 14.3 L22.1 14.1 22.3 14.05 22.5 14.15 22.55 14.45 22.45 14.6 22.25 14.7 22.0 14.55 22.0 14.3" fill="#abeefe" fill-rule="evenodd" stroke="none"/>
      <path d="M23.15 14.8 Q22.75 14.7 22.5 14.35 22.25 14.0 22.3 13.6 22.35 13.15 22.7 12.9 L23.4 12.7 24.05 13.15 24.25 13.9 23.85 14.6 23.15 14.8" fill="#99e0f7" fill-rule="evenodd" stroke="none"/>
      <path d="M22.8 13.25 L23.0 12.95 23.3 12.85 Q23.5 12.85 23.6 13.0 L23.7 13.4 23.55 13.7 23.2 13.8 22.9 13.55 22.8 13.25" fill="#abeefe" fill-rule="evenodd" stroke="none"/>
      <path d="M27.65 25.65 Q27.65 26.7 28.05 27.05 L28.8 27.55 30.1 27.75 Q31.55 27.75 33.35 26.9 35.7 25.75 37.05 23.75 L37.85 21.65 38.25 19.85 38.8 16.75 38.45 14.15 38.35 13.8 38.25 13.35 Q37.7 11.1 37.05 10.6 36.7 10.3 35.7 9.9 L33.85 9.0 31.8 7.7 Q30.95 7.2 30.25 7.2 29.15 7.2 27.4 7.85 L25.0 8.8 21.6 9.5 17.6 10.05 15.3 10.2 Q13.75 10.3 12.45 10.9 11.15 11.5 10.55 14.0 9.95 16.45 10.75 17.3 11.5 18.1 12.35 18.55 L13.85 19.2 16.6 20.35 16.65 20.35 Q17.95 21.1 17.95 22.25 L17.85 23.3 17.7 24.4 Q17.7 25.75 18.5 27.1 19.75 29.4 22.5 29.4 24.75 29.4 25.85 27.8 26.6 26.7 26.6 25.2 L26.4 23.0 26.25 20.65 Q26.25 19.1 26.4 18.35 26.65 17.4 27.25 17.4 27.65 17.4 27.8 17.65 L28.0 18.2 27.7 20.15 Q27.4 22.2 27.4 23.4 27.4 24.45 27.55 25.3 L27.55 25.35 27.65 25.65 Q27.9 26.65 28.35 27.0 27.9 26.65 27.65 25.65" fill="url(#gradient0)" fill-rule="evenodd" stroke="none"/>
      <path d="M27.65 25.65 L27.55 25.35 27.55 25.3 Q27.4 24.45 27.4 23.4 27.4 22.2 27.7 20.15 L28.0 18.2 27.8 17.65 Q27.65 17.4 27.25 17.4 26.65 17.4 26.4 18.35 26.25 19.1 26.25 20.65 L26.4 23.0 26.6 25.2 Q26.6 26.7 25.85 27.8 24.75 29.4 22.5 29.4 19.75 29.4 18.5 27.1 17.7 25.75 17.7 24.4 L17.85 23.3 17.95 22.25 Q17.95 21.1 16.65 20.35 L16.6 20.35 13.85 19.2 12.35 18.55 Q11.5 18.1 10.75 17.3 9.95 16.45 10.55 14.0 11.15 11.5 12.45 10.9 13.75 10.3 15.3 10.2 L17.6 10.05 21.6 9.5 25.0 8.8 27.4 7.85 Q29.15 7.2 30.25 7.2 30.95 7.2 31.8 7.7 L33.85 9.0 35.7 9.9 Q36.7 10.3 37.05 10.6 37.7 11.1 38.25 13.35 L38.35 13.8 38.45 14.15 38.8 16.75 38.25 19.85 37.85 21.65 37.05 23.75 Q35.7 25.75 33.35 26.9 31.55 27.75 30.1 27.75 L28.8 27.55 28.05 27.05 Q27.65 26.7 27.65 25.65 27.9 26.65 28.35 27.0" fill="none" stroke="#ffffff" stroke-linecap="round" stroke-linejoin="round" stroke-opacity="0.3019608" stroke-width="0.05"/>
      <path d="M24.35 48.05 L24.4 47.85 Q24.85 47.0 24.85 45.7 24.85 43.8 24.05 42.35 L22.2 38.65 21.5 36.65 21.2 35.6 20.85 33.85 19.4 33.3 19.05 35.6 18.95 35.95 Q17.35 41.15 18.65 43.85 21.1 49.2 24.35 48.05 M18.45 30.9 Q18.7 29.75 19.8 28.0 L20.55 26.7 Q21.25 25.35 21.25 24.7 21.25 23.8 20.15 22.95 19.15 22.2 16.65 21.2 L11.9 19.45 Q10.5 18.95 10.5 18.45 L10.8 17.75 11.05 16.8 Q10.65 16.15 9.8 15.85 L9.55 15.75 Q8.0 17.95 5.1 20.55 3.5 22.25 2.6 24.25 1.75 26.05 1.5 28.1 1.2 30.8 1.95 33.85 2.8 37.0 4.85 37.1 L5.05 36.9 Q5.7 36.0 5.7 35.2 L5.25 32.95 Q4.8 31.6 4.8 30.9 4.8 30.2 4.95 29.6 5.1 29.0 5.4 28.5 6.1 27.35 7.35 27.35 8.3 27.35 9.15 28.0 9.8 28.5 10.05 29.15 11.0 30.15 10.25 31.85 L10.15 32.1 Q7.65 36.75 9.25 38.95 L9.8 39.45 10.2 39.45 Q11.9 39.45 13.0 38.3 14.25 37.0 14.25 34.9 L14.15 33.55 14.15 33.5 14.0 32.45 Q14.0 31.65 14.45 30.95 14.95 30.0 15.85 30.0 16.45 30.0 17.1 30.4 L18.05 30.65 18.45 30.9 M38.75 10.85 L39.0 12.25 39.1 13.65 Q39.1 15.05 38.7 16.0 L37.8 17.5 Q36.9 18.85 36.1 22.25 L35.95 22.95 38.0 24.6 Q38.9 25.55 39.25 26.4 39.7 27.4 39.7 29.0 L39.65 29.35 39.65 29.45 39.7 29.35 39.85 28.85 Q40.1 28.35 40.55 28.35 L41.05 28.5 41.25 28.25 Q42.05 27.3 42.75 29.8 L42.8 29.9 43.4 32.65 Q43.9 35.6 45.0 36.45 L45.3 36.45 Q46.5 36.45 47.4 35.4 48.15 34.45 48.15 33.6 48.15 32.1 47.5 30.45 L46.15 27.75 45.35 26.25 45.15 25.6 44.85 24.45 45.25 24.85 45.9 25.5 46.65 25.65 Q47.75 25.65 48.5 24.95 49.35 24.15 49.35 22.7 L49.25 21.3 49.15 20.9 49.1 20.8 48.7 20.05 Q47.5 18.35 45.15 17.0 L43.5 15.9 Q41.15 14.0 39.05 10.45 L38.75 10.85 M35.25 40.95 Q37.3 40.6 38.1 37.8 L38.4 36.15 38.7 32.75 Q37.8 34.3 36.35 34.75 L35.3 37.7 Q34.65 39.75 35.15 40.75 L35.25 40.95" fill="#8ed4e5" fill-rule="evenodd" stroke="none"/>
      <path d="M10.9 14.3 L10.8 14.25 10.5 14.15 9.55 15.75 9.8 15.85 Q10.65 16.15 11.05 16.8 L10.8 17.75 10.5 18.45 Q10.5 18.95 11.9 19.45 L16.65 21.2 Q19.15 22.2 20.15 22.95 21.25 23.8 21.25 24.7 21.25 25.35 20.55 26.7 L19.8 28.0 Q18.7 29.75 18.45 30.9 19.45 31.6 19.4 33.3 L20.85 33.85 21.2 35.6 21.5 36.65 22.2 38.65 24.05 42.35 Q24.85 43.8 24.85 45.7 24.85 47.0 24.4 47.85 L24.35 48.05 25.7 47.25 Q28.45 44.75 25.7 41.15 24.35 39.2 23.65 37.55 23.1 36.25 23.0 35.15 L26.6 20.3 10.9 14.3 M4.85 37.1 L5.25 37.1 Q7.6 36.35 7.0 30.45 L7.0 30.25 Q6.85 27.8 8.85 28.35 9.6 28.65 10.05 29.15 9.8 28.5 9.15 28.0 8.3 27.35 7.35 27.35 6.1 27.35 5.4 28.5 5.1 29.0 4.95 29.6 4.8 30.2 4.8 30.9 4.8 31.6 5.25 32.95 L5.7 35.2 Q5.7 36.0 5.05 36.9 L4.85 37.1 M9.8 39.45 Q12.25 41.55 14.1 37.95 14.95 36.15 15.1 33.9 L15.15 32.7 Q15.1 30.2 17.1 30.4 16.45 30.0 15.85 30.0 14.95 30.0 14.45 30.95 14.0 31.65 14.0 32.45 L14.15 33.5 14.15 33.55 14.25 34.9 Q14.25 37.0 13.0 38.3 11.9 39.45 10.2 39.45 L9.8 39.45 M41.05 28.5 L40.55 28.35 Q40.1 28.35 39.85 28.85 L39.7 29.35 39.65 29.45 39.65 29.35 39.7 29.0 Q39.7 27.4 39.25 26.4 38.9 25.55 38.0 24.6 L35.95 22.95 36.1 22.25 Q36.9 18.85 37.8 17.5 L38.7 16.0 Q39.1 15.05 39.1 13.65 L39.0 12.25 38.75 10.85 32.65 19.35 36.65 27.75 36.9 28.95 Q37.3 31.45 36.65 33.75 L36.35 34.75 Q37.8 34.3 38.7 32.75 L38.4 36.15 38.1 37.8 Q37.3 40.6 35.25 40.95 35.75 41.6 36.9 41.7 40.85 41.25 40.35 35.45 L40.3 33.45 40.3 32.45 Q40.35 30.6 40.65 29.5 L41.05 28.5 M49.15 20.9 L49.25 21.3 49.35 22.7 Q49.35 24.15 48.5 24.95 47.75 25.65 46.65 25.65 L45.9 25.5 47.0 26.3 47.3 26.45 Q49.25 27.4 49.55 25.2 50.05 22.8 49.15 20.9 M45.25 24.85 L44.85 24.45 45.15 25.6 45.35 26.25 46.15 27.75 47.5 30.45 Q48.15 32.1 48.15 33.6 48.15 34.45 47.4 35.4 46.5 36.45 45.3 36.45 L45.0 36.45 Q46.0 37.2 47.55 36.15 50.8 33.95 46.95 27.2 L45.85 25.55 45.75 25.45 45.7 25.4 45.25 24.85" fill="#79b2c4" fill-rule="evenodd" stroke="none"/>
      <path d="M10.8 14.25 L10.9 14.3" fill="none" stroke="#009933" stroke-linecap="round" stroke-linejoin="round" stroke-width="0.05"/>
      <path d="M10.9 14.3 L26.6 20.3 23.0 35.15 Q23.1 36.25 23.65 37.55 24.35 39.2 25.7 41.15 28.45 44.75 25.7 47.25 L24.35 48.05 M19.4 33.3 Q19.45 31.6 18.45 30.9 M9.55 15.75 L10.5 14.15 10.8 14.25 M9.55 15.75 Q8.0 17.95 5.1 20.55 3.5 22.25 2.6 24.25 1.75 26.05 1.5 28.1 1.2 30.8 1.95 33.85 2.8 37.0 4.85 37.1 L5.25 37.1 Q7.6 36.35 7.0 30.45 L7.0 30.25 Q6.85 27.8 8.85 28.35 9.6 28.65 10.05 29.15 11.0 30.15 10.25 31.85 L10.15 32.1 Q7.65 36.75 9.25 38.95 L9.8 39.45 Q12.25 41.55 14.1 37.95 14.95 36.15 15.1 33.9 L15.15 32.7 Q15.1 30.2 17.1 30.4 L18.05 30.65 18.45 30.9 M41.05 28.5 L40.65 29.5 Q40.35 30.6 40.3 32.45 L40.3 33.45 40.35 35.45 Q40.85 41.25 36.9 41.7 35.75 41.6 35.25 40.95 M36.35 34.75 L36.65 33.75 Q37.3 31.45 36.9 28.95 L36.65 27.75 32.65 19.35 38.75 10.85 39.05 10.45 Q41.15 14.0 43.5 15.9 L45.15 17.0 Q47.5 18.35 48.7 20.05 L49.1 20.8 49.15 20.9 M45.9 25.5 L45.25 24.85 44.85 24.45 M45.0 36.45 Q43.9 35.6 43.4 32.65 L42.8 29.9 42.75 29.8 Q42.05 27.3 41.25 28.25 L41.05 28.5 M39.0 10.3 L39.05 10.45 M36.35 34.75 L35.3 37.7 Q34.65 39.75 35.15 40.75 L35.25 40.95 M19.4 33.3 L19.05 35.6 18.95 35.95 Q17.35 41.15 18.65 43.85 21.1 49.2 24.35 48.05 M45.9 25.5 L47.0 26.3 47.3 26.45 Q49.25 27.4 49.55 25.2 50.05 22.8 49.15 20.9 M45.7 25.4 L45.25 24.85 M45.0 36.45 Q46.0 37.2 47.55 36.15 50.8 33.95 46.95 27.2 L45.85 25.55 45.75 25.45" fill="none" stroke="#ffffff" stroke-linecap="round" stroke-linejoin="round" stroke-opacity="0.3019608" stroke-width="0.05"/>
      <path d="M11.1 21.3 Q10.6 21.15 10.25 20.7 9.95 20.25 10.05 19.75 10.05 19.25 10.5 18.9 10.9 18.55 11.45 18.65 11.9 18.7 12.2 19.15 12.55 19.6 12.5 20.2 L12.0 21.05 11.1 21.3" fill="#99e0f7" fill-rule="evenodd" stroke="none"/>
      <path d="M10.65 19.3 Q10.7 19.0 10.9 18.85 L11.3 18.75 Q11.55 18.8 11.7 19.0 L11.8 19.45 11.6 19.85 11.15 20.0 10.8 19.75 10.65 19.3" fill="#abeefe" fill-rule="evenodd" stroke="none"/>
      <path d="M10.15 21.95 Q9.8 21.9 9.6 21.6 L9.45 20.95 Q9.55 20.6 9.8 20.4 10.05 20.15 10.35 20.25 10.7 20.3 10.9 20.6 L11.05 21.25 10.75 21.8 10.15 21.95" fill="#99e0f7" fill-rule="evenodd" stroke="none"/>
      <path d="M9.95 20.7 L10.05 20.4 10.35 20.35 10.6 20.5 10.65 20.8 10.5 21.05 10.25 21.15 10.0 20.95 9.95 20.7" fill="#abeefe" fill-rule="evenodd" stroke="none"/>
      <path d="M13.05 27.55 L12.65 27.25 12.5 26.75 Q12.55 26.45 12.75 26.3 12.95 26.15 13.2 26.15 L13.65 26.45 13.75 26.95 13.5 27.4 13.05 27.55" fill="#99e0f7" fill-rule="evenodd" stroke="none"/>
      <path d="M12.85 26.45 L12.95 26.25 13.15 26.2 13.35 26.3 13.4 26.6 13.3 26.75 13.1 26.85 12.85 26.7 12.85 26.45" fill="#abeefe" fill-rule="evenodd" stroke="none"/>
      <path d="M17.15 24.75 L16.75 24.45 Q16.6 24.2 16.6 23.95 16.65 23.65 16.85 23.5 L17.3 23.35 17.75 23.65 17.85 24.15 17.6 24.6 17.15 24.75" fill="#99e0f7" fill-rule="evenodd" stroke="none"/>
      <path d="M17.0 23.7 L17.1 23.5 17.3 23.45 17.5 23.55 17.55 23.85 17.45 24.0 17.25 24.1 17.0 23.95 17.0 23.7" fill="#abeefe" fill-rule="evenodd" stroke="none"/>
      <path d="M4.05 28.25 L3.4 27.8 Q3.15 27.45 3.2 27.05 3.25 26.6 3.6 26.35 3.95 26.1 4.3 26.15 L4.95 26.6 5.15 27.35 4.75 28.05 4.05 28.25" fill="#99e0f7" fill-rule="evenodd" stroke="none"/>
      <path d="M3.7 26.7 L3.9 26.4 4.2 26.3 Q4.4 26.3 4.5 26.45 L4.6 26.85 4.45 27.15 4.1 27.25 3.8 27.0 3.7 26.7" fill="#abeefe" fill-rule="evenodd" stroke="none"/>
      <path d="M8.35 26.15 L7.7 25.7 Q7.45 25.35 7.5 24.95 7.55 24.5 7.9 24.25 L8.6 24.05 Q9.0 24.15 9.25 24.5 L9.45 25.25 9.05 25.95 8.35 26.15" fill="#99e0f7" fill-rule="evenodd" stroke="none"/>
      <path d="M8.05 24.6 L8.25 24.3 8.55 24.2 8.85 24.35 8.95 24.75 8.8 25.05 8.45 25.15 8.15 24.9 8.05 24.6" fill="#abeefe" fill-rule="evenodd" stroke="none"/>
      <path d="M12.3 33.5 L11.65 33.05 Q11.4 32.7 11.45 32.3 11.5 31.85 11.85 31.6 12.2 31.35 12.55 31.4 12.95 31.5 13.2 31.85 L13.4 32.6 13.0 33.3 12.3 33.5" fill="#99e0f7" fill-rule="evenodd" stroke="none"/>
      <path d="M11.95 31.95 L12.15 31.65 12.45 31.55 12.75 31.7 12.85 32.1 12.7 32.4 12.35 32.5 12.05 32.25 11.95 31.95" fill="#abeefe" fill-rule="evenodd" stroke="none"/>
      <path d="M20.5 41.75 L19.85 41.3 Q19.6 40.95 19.65 40.55 19.7 40.1 20.05 39.85 20.4 39.6 20.75 39.65 21.15 39.75 21.4 40.1 L21.6 40.85 21.2 41.55 20.5 41.75" fill="#99e0f7" fill-rule="evenodd" stroke="none"/>
      <path d="M20.2 40.2 L20.4 39.9 20.7 39.8 Q20.9 39.8 21.0 39.95 L21.1 40.35 20.95 40.65 20.6 40.75 20.3 40.5 20.2 40.2" fill="#abeefe" fill-rule="evenodd" stroke="none"/>
      <path d="M17.45 26.5 L16.8 26.05 Q16.55 25.7 16.6 25.3 16.65 24.85 17.0 24.6 L17.7 24.4 18.35 24.85 18.55 25.6 18.15 26.3 17.45 26.5" fill="#99e0f7" fill-rule="evenodd" stroke="none"/>
      <path d="M17.1 24.95 L17.3 24.65 17.6 24.55 Q17.8 24.55 17.9 24.7 L18.0 25.1 17.85 25.4 17.5 25.5 17.2 25.25 17.1 24.95" fill="#abeefe" fill-rule="evenodd" stroke="none"/>
      <path d="M40.9 22.9 L40.05 22.3 Q39.75 21.85 39.85 21.35 39.85 20.85 40.3 20.5 40.7 20.15 41.25 20.25 41.7 20.3 42.0 20.75 42.35 21.2 42.3 21.8 L41.8 22.65 40.9 22.9" fill="#99e0f7" fill-rule="evenodd" stroke="none"/>
      <path d="M40.5 20.9 Q40.55 20.6 40.75 20.45 L41.15 20.35 41.55 20.6 41.65 21.05 41.45 21.45 41.0 21.6 40.65 21.35 40.5 20.9" fill="#abeefe" fill-rule="evenodd" stroke="none"/>
      <path d="M40.05 26.5 L39.5 26.15 39.35 25.5 Q39.45 25.15 39.7 24.95 39.95 24.7 40.25 24.8 L40.8 25.15 40.95 25.8 40.65 26.35 40.05 26.5" fill="#99e0f7" fill-rule="evenodd" stroke="none"/>
      <path d="M39.85 25.25 L39.95 24.95 40.25 24.9 40.5 25.05 40.55 25.35 40.4 25.6 40.15 25.7 39.9 25.5 39.85 25.25" fill="#abeefe" fill-rule="evenodd" stroke="none"/>
      <path d="M39.9 21.6 L39.5 21.3 39.35 20.8 Q39.4 20.5 39.6 20.35 39.8 20.2 40.05 20.2 40.35 20.25 40.5 20.5 L40.6 21.0 40.35 21.45 39.9 21.6" fill="#99e0f7" fill-rule="evenodd" stroke="none"/>
      <path d="M39.75 20.55 L39.85 20.35 40.05 20.3 40.25 20.4 40.3 20.7 40.2 20.85 40.0 20.95 39.75 20.8 39.75 20.55" fill="#abeefe" fill-rule="evenodd" stroke="none"/>
      <path d="M39.05 18.6 L38.4 18.15 Q38.15 17.8 38.2 17.4 38.25 16.95 38.6 16.7 38.95 16.45 39.3 16.5 L39.95 16.95 40.15 17.7 39.75 18.4 39.05 18.6" fill="#99e0f7" fill-rule="evenodd" stroke="none"/>
      <path d="M38.75 17.05 L38.95 16.75 39.25 16.65 39.55 16.8 39.65 17.2 39.5 17.5 39.15 17.6 38.85 17.35 38.75 17.05" fill="#abeefe" fill-rule="evenodd" stroke="none"/>
      <path d="M45.4 22.9 L44.85 22.55 44.7 21.9 Q44.8 21.55 45.05 21.35 45.3 21.1 45.6 21.2 45.95 21.25 46.15 21.55 L46.3 22.2 46.0 22.75 45.4 22.9" fill="#99e0f7" fill-rule="evenodd" stroke="none"/>
      <path d="M45.2 21.6 L45.3 21.3 45.6 21.25 45.85 21.4 45.9 21.7 45.75 21.95 45.5 22.05 45.25 21.85 45.2 21.6" fill="#abeefe" fill-rule="evenodd" stroke="none"/>
      <path d="M45.75 31.4 L45.2 31.05 45.05 30.4 Q45.15 30.05 45.4 29.85 45.65 29.6 45.95 29.7 46.3 29.75 46.5 30.05 L46.65 30.7 46.35 31.25 45.75 31.4" fill="#99e0f7" fill-rule="evenodd" stroke="none"/>
      <path d="M45.55 30.1 L45.65 29.8 45.95 29.75 46.2 29.9 46.25 30.2 46.1 30.45 45.85 30.55 45.6 30.35 45.55 30.1" fill="#abeefe" fill-rule="evenodd" stroke="none"/>
      <path d="M45.45 33.5 L44.6 32.9 Q44.3 32.45 44.4 31.95 44.4 31.45 44.85 31.1 45.25 30.75 45.8 30.85 46.25 30.9 46.55 31.35 46.9 31.8 46.85 32.4 L46.35 33.25 45.45 33.5" fill="#99e0f7" fill-rule="evenodd" stroke="none"/>
      <path d="M45.0 31.55 Q45.05 31.25 45.25 31.1 L45.65 31.0 46.05 31.25 46.15 31.7 45.95 32.1 45.5 32.25 45.15 32.0 45.0 31.55" fill="#abeefe" fill-rule="evenodd" stroke="none"/>
      <path d="M42.95 20.25 L42.1 19.65 Q41.8 19.2 41.9 18.7 41.9 18.2 42.35 17.85 42.75 17.5 43.3 17.6 43.75 17.65 44.05 18.1 44.4 18.55 44.35 19.15 L43.85 20.0 42.95 20.25" fill="#99e0f7" fill-rule="evenodd" stroke="none"/>
      <path d="M42.5 18.25 Q42.55 17.95 42.75 17.8 L43.15 17.7 43.55 17.95 43.65 18.4 43.45 18.8 43.0 18.95 42.65 18.7 42.5 18.25" fill="#abeefe" fill-rule="evenodd" stroke="none"/>
      <path d="M7.1 33.4 Q7.05 32.35 6.45 31.6 5.75 30.75 4.9 30.75 4.1 30.65 3.5 31.4 2.9 32.1 2.95 33.25 3.0 34.3 3.65 35.1 4.25 35.85 5.1 35.9 5.95 35.95 6.55 35.25 7.1 34.55 7.1 33.4" fill="#d3d3d3" fill-opacity="0.3019608" fill-rule="evenodd" stroke="none"/>
      <path d="M6.9 33.4 Q6.9 32.45 6.35 31.7 5.7 30.9 4.95 30.9 4.2 30.9 3.7 31.55 3.15 32.2 3.2 33.2 3.2 34.15 3.8 34.95 4.4 35.6 5.15 35.65 5.9 35.7 6.45 35.0 7.0 34.4 6.9 33.4" fill="url(#gradient1)" fill-rule="evenodd" stroke="none"/>
      <path d="M4.15 32.4 L4.1 32.8 4.25 33.25 Q4.35 33.4 4.5 33.35 L4.75 33.15 4.85 32.7 4.65 32.3 4.4 32.15 4.15 32.4" fill="#ffffff" fill-rule="evenodd" stroke="none"/>
      <path d="M5.75 32.25 Q6.1 32.75 5.8 33.35 5.4 34.0 5.6 34.3 L6.1 34.6 6.6 34.15 6.75 33.25 6.5 32.45 5.85 31.9 Q5.45 31.75 5.75 32.25" fill="#ffffff" fill-opacity="0.3019608" fill-rule="evenodd" stroke="none"/>
      <path d="M3.55 30.15 Q2.6 30.6 2.3 31.55 1.9 32.65 2.25 33.55 2.65 34.6 3.55 34.95 L5.35 35.0 Q6.15 34.55 6.55 33.45 L6.75 32.2 6.55 31.6 Q6.2 30.5 5.3 30.15 4.5 29.85 3.65 30.15 L3.55 30.15" fill="url(#gradient2)" fill-rule="evenodd" stroke="none"/>
      <path d="M25.2 44.0 Q25.1 42.85 24.5 42.0 23.75 41.1 22.85 41.05 21.95 41.0 21.35 41.85 20.65 42.6 20.7 43.75 20.8 44.95 21.45 45.8 22.15 46.6 23.05 46.7 23.95 46.75 24.65 46.0 25.25 45.2 25.2 44.0" fill="#d3d3d3" fill-opacity="0.3019608" fill-rule="evenodd" stroke="none"/>
      <path d="M25.0 44.0 Q25.0 42.9 24.35 42.15 23.7 41.35 22.9 41.35 22.05 41.25 21.5 42.0 20.95 42.7 20.95 43.8 21.0 44.85 21.65 45.65 22.3 46.35 23.1 46.4 23.9 46.45 24.5 45.8 25.05 45.05 25.0 44.0" fill="url(#gradient3)" fill-rule="evenodd" stroke="none"/>
      <path d="M22.05 42.85 L21.95 43.3 22.1 43.8 22.4 43.9 22.65 43.7 22.75 43.2 22.6 42.75 22.3 42.65 22.05 42.85" fill="#ffffff" fill-rule="evenodd" stroke="none"/>
      <path d="M23.75 42.7 Q24.05 43.3 23.75 43.9 23.4 44.6 23.6 44.9 L24.1 45.25 24.65 44.75 24.8 43.8 Q24.8 43.25 24.5 42.95 L23.8 42.35 Q23.4 42.15 23.75 42.7" fill="#ffffff" fill-opacity="0.3019608" fill-rule="evenodd" stroke="none"/>
      <path d="M20.9 40.15 Q19.55 40.8 19.1 42.25 18.6 43.75 19.1 45.1 19.75 46.65 20.95 47.25 L23.45 47.3 Q24.65 46.65 25.15 45.1 L25.4 43.2 25.15 42.25 Q24.6 40.7 23.35 40.15 L21.0 40.1 20.9 40.15" fill="url(#gradient4)" fill-rule="evenodd" stroke="none"/>
      <path d="M13.35 38.35 Q13.9 37.3 13.75 36.25 13.6 35.1 12.8 34.65 L11.1 34.55 Q10.15 34.9 9.6 35.95 9.1 36.9 9.25 38.05 9.45 39.1 10.15 39.65 L11.85 39.75 Q12.8 39.4 13.35 38.35" fill="#d3d3d3" fill-opacity="0.3019608" fill-rule="evenodd" stroke="none"/>
      <path d="M13.15 38.2 Q13.65 37.25 13.5 36.25 13.4 35.25 12.7 34.8 L11.1 34.75 Q10.3 35.05 9.75 36.0 9.3 36.95 9.45 37.95 9.6 38.85 10.3 39.35 L11.85 39.5 Q12.65 39.15 13.15 38.2" fill="url(#gradient5)" fill-rule="evenodd" stroke="none"/>
      <path d="M11.15 35.8 L10.85 36.15 10.75 36.6 10.9 36.85 11.3 36.8 11.6 36.45 11.7 36.0 11.45 35.7 11.15 35.8" fill="#ffffff" fill-rule="evenodd" stroke="none"/>
      <path d="M12.75 36.45 Q12.7 37.15 12.15 37.55 11.5 37.95 11.45 38.35 11.45 38.7 11.8 38.8 L12.45 38.75 13.1 37.95 13.25 37.1 12.95 36.2 Q12.7 35.85 12.75 36.45" fill="#ffffff" fill-opacity="0.3019608" fill-rule="evenodd" stroke="none"/>
      <path d="M11.8 33.35 Q10.7 33.3 9.8 34.0 8.9 34.8 8.8 35.9 8.55 37.05 9.2 37.85 9.8 38.65 10.9 38.8 11.9 38.85 12.85 38.1 13.4 37.65 13.65 37.0 L13.85 36.35 Q14.1 35.1 13.45 34.3 12.8 33.55 11.9 33.4 L11.8 33.35" fill="url(#gradient6)" fill-rule="evenodd" stroke="none"/>
      <path d="M39.25 41.45 Q39.8 40.4 39.65 39.35 39.5 38.2 38.7 37.75 L37.0 37.65 Q36.05 38.0 35.5 39.05 35.0 40.0 35.15 41.15 35.35 42.2 36.05 42.75 L37.75 42.85 Q38.7 42.5 39.25 41.45" fill="#d3d3d3" fill-opacity="0.3019608" fill-rule="evenodd" stroke="none"/>
      <path d="M39.05 41.3 Q39.55 40.35 39.4 39.35 39.3 38.35 38.6 37.9 L37.0 37.85 Q36.2 38.15 35.65 39.1 35.2 40.05 35.35 41.05 35.5 41.95 36.2 42.45 L37.75 42.6 Q38.55 42.25 39.05 41.3" fill="url(#gradient7)" fill-rule="evenodd" stroke="none"/>
      <path d="M37.05 38.9 Q36.85 39.0 36.75 39.25 L36.65 39.7 Q36.65 39.9 36.8 39.95 L37.2 39.9 37.5 39.55 37.6 39.1 37.35 38.8 37.05 38.9" fill="#ffffff" fill-rule="evenodd" stroke="none"/>
      <path d="M38.65 39.6 Q38.6 40.3 38.05 40.7 37.4 41.1 37.35 41.5 37.35 41.85 37.7 41.95 L38.35 41.9 39.0 41.1 39.15 40.25 38.85 39.35 Q38.6 39.0 38.65 39.6" fill="#ffffff" fill-opacity="0.3019608" fill-rule="evenodd" stroke="none"/>
      <path d="M37.7 36.5 Q36.6 36.45 35.7 37.15 34.8 37.95 34.7 39.05 34.45 40.2 35.1 41.0 35.7 41.8 36.8 41.95 37.8 42.0 38.75 41.25 L39.55 40.15 39.75 39.5 Q40.0 38.25 39.35 37.45 38.7 36.7 37.8 36.55 L37.7 36.5" fill="url(#gradient8)" fill-rule="evenodd" stroke="none"/>
      <path d="M48.6 33.4 Q48.85 32.25 48.45 31.25 48.0 30.25 47.1 29.95 46.25 29.7 45.45 30.3 44.65 30.9 44.4 32.05 44.1 33.2 44.55 34.2 45.0 35.15 45.9 35.45 46.75 35.7 47.55 35.15 48.35 34.55 48.6 33.4" fill="#d3d3d3" fill-opacity="0.3019608" fill-rule="evenodd" stroke="none"/>
      <path d="M48.45 33.35 Q48.65 32.3 48.3 31.35 47.85 30.45 47.1 30.15 46.3 29.9 45.55 30.55 44.8 31.0 44.55 32.05 44.35 33.1 44.75 34.05 45.15 34.9 45.9 35.15 46.75 35.45 47.5 34.9 48.2 34.35 48.45 33.35" fill="url(#gradient9)" fill-rule="evenodd" stroke="none"/>
      <path d="M45.8 31.5 L45.6 31.95 45.65 32.4 45.9 32.6 46.25 32.45 46.4 32.0 46.4 31.55 46.15 31.3 45.8 31.5" fill="#ffffff" fill-rule="evenodd" stroke="none"/>
      <path d="M47.5 31.75 Q47.7 32.4 47.2 32.9 46.7 33.5 46.75 33.85 L47.2 34.25 47.85 34.0 48.25 33.1 48.2 32.2 47.65 31.4 Q47.3 31.15 47.5 31.75" fill="#ffffff" fill-opacity="0.3019608" fill-rule="evenodd" stroke="none"/>
      <path d="M45.8 29.0 Q44.7 29.2 44.05 30.15 43.4 31.1 43.55 32.2 43.65 33.4 44.45 34.05 45.25 34.65 46.3 34.5 47.3 34.3 48.0 33.3 L48.55 32.0 48.55 31.3 Q48.5 30.1 47.65 29.45 46.85 28.9 45.9 29.0 L45.8 29.0" fill="url(#gradient10)" fill-rule="evenodd" stroke="none"/>
      <path d="M48.85 22.4 Q48.5 21.25 47.65 20.6 46.75 19.9 45.8 20.15 45.0 20.3 44.6 21.25 44.15 22.2 44.5 23.25 44.85 24.4 45.75 25.1 46.6 25.7 47.5 25.5 48.4 25.3 48.85 24.45 49.2 23.5 48.85 22.4" fill="#d3d3d3" fill-opacity="0.3019608" fill-rule="evenodd" stroke="none"/>
      <path d="M48.65 22.35 Q48.35 21.35 47.6 20.75 46.75 20.15 45.95 20.35 45.15 20.5 44.8 21.35 44.4 22.2 44.75 23.2 45.05 24.2 45.85 24.85 46.65 25.35 47.45 25.2 48.25 25.05 48.65 24.2 49.0 23.4 48.65 22.35" fill="url(#gradient11)" fill-rule="evenodd" stroke="none"/>
      <path d="M45.5 22.1 L45.55 22.6 45.8 22.95 Q46.0 23.1 46.15 23.05 L46.3 22.75 46.3 22.25 46.0 21.9 45.7 21.8 45.5 22.1" fill="#ffffff" fill-rule="evenodd" stroke="none"/>
      <path d="M47.1 21.5 Q47.55 21.95 47.4 22.7 47.25 23.4 47.5 23.7 L48.1 23.85 48.55 23.25 48.45 22.25 47.95 21.5 47.1 21.15 Q46.65 21.05 47.1 21.5" fill="#ffffff" fill-opacity="0.3019608" fill-rule="evenodd" stroke="none"/>
      <path d="M44.3 20.0 Q43.4 20.7 43.3 21.8 43.25 23.0 43.85 23.85 44.55 24.85 45.6 25.0 46.55 25.1 47.4 24.5 48.2 23.75 48.25 22.6 48.4 21.85 48.15 21.2 L47.8 20.6 Q47.15 19.6 46.05 19.45 45.15 19.35 44.35 19.95 L44.3 20.0" fill="url(#gradient12)" fill-rule="evenodd" stroke="none"/>
      <path d="M6.85 36.15 L6.6 36.95 Q6.2 39.05 7.55 40.4 L8.35 41.0 Q12.2 43.35 14.9 39.25 16.15 37.25 16.35 34.7 L16.35 33.3 Q16.3 31.75 17.25 31.15 18.7 31.0 18.25 33.05 L18.0 33.85 17.85 34.25 Q15.1 40.85 16.8 44.25 19.65 50.45 23.85 49.7 L24.6 49.5 26.65 48.55 Q30.8 45.35 27.15 40.85 25.5 38.6 24.65 36.75 L24.45 36.35 24.25 35.75 Q23.8 34.4 23.75 33.3 L26.1 26.35 25.3 20.6 11.8 15.2 11.15 12.65 Q7.9 16.9 3.75 20.45 2.15 22.1 1.55 24.2 0.95 26.2 0.65 28.85 0.4 31.5 1.25 34.85 2.3 38.25 4.7 38.4 L5.2 38.35 Q5.9 38.15 6.4 37.55 L6.85 36.15 Q7.0 35.6 7.3 35.0 L7.65 32.35 8.1 30.3 Q8.4 29.35 9.3 30.05 9.65 31.0 8.85 32.4 L8.7 32.7 Q7.9 33.75 7.4 34.75 L7.3 35.0 Q7.0 35.6 6.85 36.15" fill="url(#gradient13)" fill-rule="evenodd" stroke="none"/>
      <path d="M35.2 28.9 L35.5 30.2 Q36.0 32.9 35.25 35.45 L34.85 36.55 33.7 39.8 Q32.85 42.05 33.45 43.15 L33.6 43.35 Q34.15 44.05 35.55 44.1 40.15 43.45 40.75 40.35 L41.35 36.35 41.2 33.8 Q41.0 32.15 41.1 31.15 L41.15 29.75 Q41.1 29.4 41.35 28.8 41.6 28.2 42.4 30.9 L42.45 31.0 43.1 34.0 Q43.7 37.2 45.0 38.05 46.2 38.9 49.0 36.85 51.75 34.8 49.75 31.15 L47.4 26.9 47.75 27.05 Q49.95 28.05 50.35 25.6 50.95 22.95 49.9 20.9 L49.85 20.85 48.8 19.2 Q48.0 18.0 46.2 17.0 L43.2 14.75 39.2 10.05 Q37.2 16.45 30.55 19.85 L35.2 28.9" fill="url(#gradient14)" fill-rule="evenodd" stroke="none"/>
      <path d="M6.85 36.15 L6.6 36.95 Q6.2 39.05 7.55 40.4 L8.35 41.0 Q12.2 43.35 14.9 39.25 16.15 37.25 16.35 34.7 L16.35 33.3 Q16.3 31.75 17.25 31.15 18.7 31.0 18.25 33.05 L18.0 33.85 17.85 34.25 Q15.1 40.85 16.8 44.25 19.65 50.45 23.85 49.7 L24.6 49.5 26.65 48.55 Q30.8 45.35 27.15 40.85 25.5 38.6 24.65 36.75 L24.45 36.35 24.25 35.75 Q23.8 34.4 23.75 33.3 L26.1 26.35 25.3 20.6 11.8 15.2 11.15 12.65 Q7.9 16.9 3.75 20.45 2.15 22.1 1.55 24.2 0.95 26.2 0.65 28.85 0.4 31.5 1.25 34.85 2.3 38.25 4.7 38.4 L5.2 38.35 Q5.9 38.15 6.4 37.55 M6.85 36.15 Q7.0 35.6 7.3 35.0 L7.4 34.75 Q7.9 33.75 8.7 32.7 L8.85 32.4 Q9.65 31.0 9.3 30.05 8.4 29.35 8.1 30.3 L7.65 32.35 7.3 35.0 M35.2 28.9 L35.5 30.2 Q36.0 32.9 35.25 35.45 L34.85 36.55 33.7 39.8 Q32.85 42.05 33.45 43.15 L33.6 43.35 Q34.15 44.05 35.55 44.1 40.15 43.45 40.75 40.35 L41.35 36.35 41.2 33.8 Q41.0 32.15 41.1 31.15 L41.15 29.75 Q41.1 29.4 41.35 28.8 41.6 28.2 42.4 30.9 L42.45 31.0 43.1 34.0 Q43.7 37.2 45.0 38.05 46.2 38.9 49.0 36.85 51.75 34.8 49.75 31.15 L47.4 26.9 47.75 27.05 Q49.95 28.05 50.35 25.6 50.95 22.95 49.9 20.9 L49.85 20.85 48.8 19.2 Q48.0 18.0 46.2 17.0 L43.2 14.75 39.2 10.05 Q37.2 16.45 30.55 19.85 L35.2 28.9" fill="none" stroke="#ffffff" stroke-linecap="round" stroke-linejoin="round" stroke-opacity="0.3019608" stroke-width="0.05"/>
      <path d="M30.65 4.2 Q28.55 5.35 26.05 6.1 L25.65 6.25 25.1 6.35 25.1 6.4 22.85 6.9 21.65 7.1 21.6 7.15 19.8 7.4 Q16.85 7.85 13.15 7.25 11.65 8.1 10.3 12.2 10.95 15.6 10.65 16.5 10.45 17.25 17.85 20.45 L18.4 20.65 18.45 20.65 Q19.3 20.9 20.05 21.4 L20.0 21.35 21.55 22.4 22.55 23.35 Q23.15 23.95 23.3 25.05 L20.55 33.25 Q19.85 35.1 22.15 37.9 L23.25 39.25 24.45 40.25 Q25.05 40.8 27.3 37.6 28.7 36.05 28.65 34.45 L28.35 32.15 Q27.95 28.75 28.15 25.2 28.45 24.1 28.8 23.65 L28.9 23.55 30.3 23.6 Q31.25 24.45 31.6 26.1 L31.7 26.95 31.5 31.75 Q31.35 33.15 33.05 34.95 35.65 37.6 36.55 37.9 37.65 37.25 38.7 33.6 39.15 31.95 39.15 28.9 39.2 27.95 37.8 25.55 L37.4 24.3 Q36.9 22.6 36.95 21.5 36.65 19.75 36.95 18.15 L38.55 14.3 39.8 10.35 Q40.0 9.85 38.85 9.15 L38.9 9.15 38.35 8.9 38.15 8.75 38.05 8.75 35.7 7.25 35.05 6.8 33.4 5.35 Q31.9 4.0 30.65 4.2 M14.25 11.3 Q13.35 12.0 13.4 13.75 L13.9 13.95 Q20.05 17.3 27.85 18.85 32.2 19.1 34.55 16.15 L36.6 13.45 34.6 12.25 31.85 9.65 31.6 9.35 Q30.9 8.3 30.0 9.0 L29.75 9.1 Q25.5 10.7 20.45 11.45 L16.45 11.5 14.25 11.3" fill="none" stroke="#000000" stroke-linecap="round" stroke-linejoin="round" stroke-opacity="0.3019608" stroke-width="0.6000000000000001"/>
      <path d="M39.8 10.35 Q40.05 9.75 38.35 8.9 35.7 7.5 33.4 5.35 31.9 4.0 30.65 4.2 26.2 6.6 19.8 7.4 16.85 7.85 13.15 7.25 11.65 8.1 10.3 12.2 11.9 14.35 15.05 15.7 16.6 15.25 15.6 16.05 22.4 19.0 27.85 20.1 32.25 20.05 34.55 17.8 37.4 14.55 39.8 10.35 M14.3 8.5 L19.9 8.75 Q26.1 7.9 30.5 5.75 L32.35 5.65 32.65 5.95 Q34.6 7.8 36.2 8.9 L38.4 10.15 38.45 10.25 37.75 11.7 36.6 13.45 34.55 16.15 Q32.2 19.1 27.85 18.85 20.05 17.3 13.9 13.95 L13.4 13.75 Q11.5 12.7 11.45 11.75 11.95 9.35 13.5 8.4 L14.3 8.5" fill="url(#gradient15)" fill-rule="evenodd" stroke="none"/>
      <path d="M21.55 22.4 L22.55 23.35 Q23.15 23.95 23.3 25.05 23.6 22.95 22.6 21.95 22.85 22.85 21.55 22.4 M28.15 25.2 Q28.45 24.1 28.8 23.65 L28.9 23.55 30.3 23.6 Q31.25 24.45 31.6 26.1 31.05 22.6 29.3 22.35 28.3 22.05 28.15 25.2 M36.95 18.15 L38.55 14.3 Q37.4 17.05 37.25 16.85 L36.95 18.15 M15.6 16.05 Q16.6 15.25 15.05 15.7 15.1 18.4 15.6 16.05 M30.5 5.75 L30.6 6.8 Q30.5 7.95 29.75 9.1 L30.0 9.0 Q30.9 8.3 31.6 9.35 L31.85 9.65 31.95 7.8 Q32.1 6.45 32.65 5.95 L32.35 5.65 30.5 5.75 M16.45 11.5 Q13.65 10.85 14.3 8.5 L13.5 8.4 Q11.95 9.35 11.45 11.75 11.5 12.7 13.4 13.75 13.35 12.0 14.25 11.3 L16.45 11.5 M36.6 13.45 L37.75 11.7 38.45 10.25 38.4 10.15 36.2 8.9 35.95 10.85 Q35.55 12.1 34.6 12.25 L36.6 13.45" fill="#db6f02" fill-rule="evenodd" stroke="none"/>
      <path d="M30.5 5.75 Q26.1 7.9 19.9 8.75 L14.3 8.5 Q13.65 10.85 16.45 11.5 L20.45 11.45 Q25.5 10.7 29.75 9.1 30.5 7.95 30.6 6.8 L30.5 5.75" fill="url(#gradient16)" fill-rule="evenodd" stroke="none"/>
      <path d="M10.3 12.2 Q10.95 15.6 10.65 16.5 10.45 17.25 17.85 20.45 19.9 21.0 21.55 22.4 22.85 22.85 22.6 21.95 23.6 22.95 23.3 25.05 L20.55 33.25 Q19.85 35.1 22.15 37.9 L23.25 39.25 Q21.05 35.95 21.15 34.15 22.25 28.95 24.0 24.55 25.55 20.85 26.8 24.25 L28.35 32.15 Q27.95 28.75 28.15 25.2 28.3 22.05 29.3 22.35 31.05 22.6 31.6 26.1 L31.7 26.95 31.5 31.75 Q31.35 33.15 33.05 34.95 35.65 37.6 36.55 37.9 34.2 35.8 32.8 33.05 32.05 31.7 32.5 28.15 32.65 21.25 34.55 20.9 35.45 20.75 36.25 22.0 36.2 18.75 37.25 16.85 37.4 17.05 38.55 14.3 L39.8 10.35 Q37.4 14.55 34.55 17.8 32.25 20.05 27.85 20.1 22.4 19.0 15.6 16.05 15.1 18.4 15.05 15.7 11.9 14.35 10.3 12.2" fill="url(#gradient17)" fill-rule="evenodd" stroke="none"/>
      <path d="M36.2 8.9 Q34.6 7.8 32.65 5.95 32.1 6.45 31.95 7.8 L31.85 9.65 34.6 12.25 Q35.55 12.1 35.95 10.85 L36.2 8.9" fill="url(#gradient18)" fill-rule="evenodd" stroke="none"/>
      <path d="M36.55 37.9 Q37.65 37.25 38.7 33.6 39.15 31.95 39.15 28.9 39.2 27.95 37.8 25.55 L37.4 24.3 Q36.9 22.6 36.95 21.5 36.65 19.75 36.95 18.15 L37.25 16.85 Q36.2 18.75 36.25 22.0 35.45 20.75 34.55 20.9 32.65 21.25 32.5 28.15 32.05 31.7 32.8 33.05 34.2 35.8 36.55 37.9" fill="url(#gradient19)" fill-rule="evenodd" stroke="none"/>
      <path d="M23.25 39.25 L24.45 40.25 Q25.05 40.8 27.3 37.6 28.7 36.05 28.65 34.45 L28.35 32.15 26.8 24.25 Q25.55 20.85 24.0 24.55 22.25 28.95 21.15 34.15 21.05 35.95 23.25 39.25" fill="url(#gradient20)" fill-rule="evenodd" stroke="none"/>
      <path d="M39.8 10.35 Q40.05 9.75 38.35 8.9 35.7 7.5 33.4 5.35 31.9 4.0 30.65 4.2 26.2 6.6 19.8 7.4 16.85 7.85 13.15 7.25 11.65 8.1 10.3 12.2 10.95 15.6 10.65 16.5 10.45 17.25 17.85 20.45 19.9 21.0 21.55 22.4 L22.55 23.35 Q23.15 23.95 23.3 25.05 L20.55 33.25 Q19.85 35.1 22.15 37.9 L23.25 39.25 24.45 40.25 Q25.05 40.8 27.3 37.6 28.7 36.05 28.65 34.45 L28.35 32.15 Q27.95 28.75 28.15 25.2 28.45 24.1 28.8 23.65 L28.9 23.55 30.3 23.6 Q31.25 24.45 31.6 26.1 L31.7 26.95 31.5 31.75 Q31.35 33.15 33.05 34.95 35.65 37.6 36.55 37.9 37.65 37.25 38.7 33.6 39.15 31.95 39.15 28.9 39.2 27.95 37.8 25.55 L37.4 24.3 Q36.9 22.6 36.95 21.5 36.65 19.75 36.95 18.15 L38.55 14.3 39.8 10.35 M29.75 9.1 Q25.5 10.7 20.45 11.45 L16.45 11.5 14.25 11.3 Q13.35 12.0 13.4 13.75 L13.9 13.95 Q20.05 17.3 27.85 18.85 32.2 19.1 34.55 16.15 L36.6 13.45 37.75 11.7 38.45 10.25 M11.45 11.75 Q11.5 12.7 13.4 13.75 M31.85 9.65 L31.6 9.35 Q30.9 8.3 30.0 9.0 L29.75 9.1 M31.85 9.65 L34.6 12.25 36.6 13.45 M36.95 18.15 L37.25 16.85 M22.6 21.95 Q23.6 22.95 23.3 25.05" fill="none" stroke="#000000" stroke-linecap="round" stroke-linejoin="round" stroke-opacity="0.3019608" stroke-width="0.05"/>
      <path d="M22.85 37.1 Q21.85 34.5 21.65 33.15 21.6 31.85 22.6 31.0 23.55 30.2 24.85 30.35 26.15 30.55 26.85 31.6 27.65 32.7 27.65 33.85 27.75 35.05 27.1 36.4 26.35 37.75 25.1 38.65 23.9 39.65 22.85 37.1 M23.05 33.6 L23.7 35.65 Q24.2 37.0 24.85 36.55 L25.9 35.3 26.25 34.0 Q26.25 33.35 25.85 32.75 25.45 32.2 24.75 32.1 24.05 31.95 23.5 32.45 23.0 32.9 23.05 33.6" fill="#fdfa6b" fill-rule="evenodd" stroke="none"/>
      <path d="M22.85 37.1 Q21.85 34.5 21.65 33.15 21.6 31.85 22.6 31.0 23.55 30.2 24.85 30.35 26.15 30.55 26.85 31.6 27.65 32.7 27.65 33.85 27.75 35.05 27.1 36.4 26.35 37.75 25.1 38.65 23.9 39.65 22.85 37.1 M23.05 33.6 Q23.0 32.9 23.5 32.45 24.05 31.95 24.75 32.1 25.45 32.2 25.85 32.75 26.25 33.35 26.25 34.0 L25.9 35.3 24.85 36.55 Q24.2 37.0 23.7 35.65 L23.05 33.6" fill="none" stroke="#ffffff" stroke-linecap="round" stroke-linejoin="round" stroke-opacity="0.3019608" stroke-width="0.05"/>
      <path d="M34.95 35.0 Q33.25 33.1 32.75 31.9 32.3 30.7 32.95 29.35 33.65 28.05 34.85 27.5 L37.05 27.55 Q38.05 28.25 38.5 29.3 38.95 30.4 38.6 32.05 38.35 33.7 37.45 35.3 36.65 36.9 34.95 35.0 M34.15 31.6 L35.3 33.2 Q36.15 34.2 36.65 33.4 37.15 32.55 37.25 31.7 37.45 30.75 37.2 30.25 L36.45 29.25 35.25 29.2 Q34.6 29.45 34.25 30.15 33.9 30.95 34.15 31.6" fill="#fdfa6b" fill-rule="evenodd" stroke="none"/>
      <path d="M34.95 35.0 Q33.25 33.1 32.75 31.9 32.3 30.7 32.95 29.35 33.65 28.05 34.85 27.5 L37.05 27.55 Q38.05 28.25 38.5 29.3 38.95 30.4 38.6 32.05 38.35 33.7 37.45 35.3 36.65 36.9 34.95 35.0 M34.15 31.6 Q33.9 30.95 34.25 30.15 34.6 29.45 35.25 29.2 L36.45 29.25 37.2 30.25 Q37.45 30.75 37.25 31.7 37.15 32.55 36.65 33.4 36.15 34.2 35.3 33.2 L34.15 31.6" fill="none" stroke="#ffffff" stroke-linecap="round" stroke-linejoin="round" stroke-opacity="0.3019608" stroke-width="0.05"/>
      <path d="M17.35 19.3 L18.45 20.65 Q19.3 20.9 20.05 21.4 L18.2 19.0 16.35 17.4 Q16.15 18.05 14.95 18.55 L14.3 18.8 15.5 19.4 15.8 19.25 16.45 19.15 16.5 18.65 Q16.8 18.75 17.35 19.3 M26.35 7.55 Q26.35 8.15 25.6 9.0 24.85 9.95 24.3 9.9 23.4 9.8 22.65 9.1 L22.1 8.4 22.0 8.15 Q22.0 7.75 22.5 7.25 L22.85 6.9 21.65 7.1 21.35 7.65 21.1 8.35 21.2 8.6 22.45 9.7 23.85 10.8 25.55 10.4 26.4 9.35 Q27.3 7.95 27.3 7.25 L27.3 7.05 27.0 6.7 26.05 6.1 25.1 6.35 25.9 6.8 26.35 7.4 26.35 7.55 M38.35 8.9 L38.15 8.75 38.1 8.75 36.85 9.25 36.75 9.3 36.2 9.5 35.55 9.55 Q35.05 9.5 35.05 8.1 L35.05 8.0 35.45 7.45 35.7 7.25 34.95 6.7 Q34.35 6.85 34.2 7.35 L34.1 7.5 Q34.1 8.95 34.55 9.75 34.9 10.5 35.45 10.55 L36.05 10.55 Q36.9 10.45 37.55 9.95 L37.75 9.8 Q38.55 9.2 38.9 9.15 L38.35 8.9" fill="#ffff99" fill-opacity="0.5019608" fill-rule="evenodd" stroke="none"/>
    </g>
    <radialGradient cx="0" cy="0" gradientTransform="matrix(-0.0279, 0.0, 0.0, 0.0279, 29.1, 7.85)" gradientUnits="userSpaceOnUse" id="gradient0" r="819.2" spreadMethod="pad">
      <stop offset="0.27058823529411763" stop-color="#ffffff" stop-opacity="0.0"/>
      <stop offset="0.3843137254901961" stop-color="#66ffcc" stop-opacity="0.33333334"/>
      <stop offset="0.8392156862745098" stop-color="#66ff99" stop-opacity="0.6"/>
      <stop offset="0.9254901960784314" stop-color="#2dfd6a" stop-opacity="0.6"/>
    </radialGradient>
    <radialGradient cx="0" cy="0" gradientTransform="matrix(-2.0E-4, -0.003, -0.0023, 6.0E-4, 4.6, 32.7)" gradientUnits="userSpaceOnUse" id="gradient1" r="819.2" spreadMethod="pad">
      <stop offset="0.4470588235294118" stop-color="#ffff2f"/>
      <stop offset="0.7725490196078432" stop-color="#e6b100"/>
    </radialGradient>
    <radialGradient cx="0" cy="0" gradientTransform="matrix(-0.0011, -0.003, -0.0026, 0.0013, 4.4, 32.55)" gradientUnits="userSpaceOnUse" id="gradient2" r="819.2" spreadMethod="pad">
      <stop offset="0.17254901960784313" stop-color="#ffffff" stop-opacity="0.9019608"/>
      <stop offset="0.43137254901960786" stop-color="#b2ecf7" stop-opacity="0.4117647"/>
      <stop offset="1.0" stop-color="#b1eef7" stop-opacity="0.0"/>
    </radialGradient>
    <radialGradient cx="0" cy="0" gradientTransform="matrix(-2.0E-4, -0.0032, -0.0025, 6.0E-4, 22.45, 43.25)" gradientUnits="userSpaceOnUse" id="gradient3" r="819.2" spreadMethod="pad">
      <stop offset="0.4470588235294118" stop-color="#ffff2f"/>
      <stop offset="0.7725490196078432" stop-color="#e6b100"/>
    </radialGradient>
    <radialGradient cx="0" cy="0" gradientTransform="matrix(-0.0016, -0.0044, -0.0037, 0.0018, 22.1, 43.7)" gradientUnits="userSpaceOnUse" id="gradient4" r="819.2" spreadMethod="pad">
      <stop offset="0.17254901960784313" stop-color="#ffffff" stop-opacity="0.9019608"/>
      <stop offset="0.43137254901960786" stop-color="#b2ecf7" stop-opacity="0.4117647"/>
      <stop offset="1.0" stop-color="#b1eef7" stop-opacity="0.0"/>
    </radialGradient>
    <radialGradient cx="0" cy="0" gradientTransform="matrix(0.0014, -0.0029, -0.0025, -7.0E-4, 11.35, 36.3)" gradientUnits="userSpaceOnUse" id="gradient5" r="819.2" spreadMethod="pad">
      <stop offset="0.4470588235294118" stop-color="#ffff2f"/>
      <stop offset="0.7725490196078432" stop-color="#e6b100"/>
    </radialGradient>
    <radialGradient cx="0" cy="0" gradientTransform="matrix(6.0E-4, -0.0033, -0.0031, -2.0E-4, 11.3, 36.1)" gradientUnits="userSpaceOnUse" id="gradient6" r="819.2" spreadMethod="pad">
      <stop offset="0.17254901960784313" stop-color="#ffffff" stop-opacity="0.9019608"/>
      <stop offset="0.43137254901960786" stop-color="#b2ecf7" stop-opacity="0.4117647"/>
      <stop offset="1.0" stop-color="#b1eef7" stop-opacity="0.0"/>
    </radialGradient>
    <radialGradient cx="0" cy="0" gradientTransform="matrix(0.0014, -0.0029, -0.0025, -7.0E-4, 37.25, 39.4)" gradientUnits="userSpaceOnUse" id="gradient7" r="819.2" spreadMethod="pad">
      <stop offset="0.4470588235294118" stop-color="#ffff2f"/>
      <stop offset="0.7725490196078432" stop-color="#e6b100"/>
    </radialGradient>
    <radialGradient cx="0" cy="0" gradientTransform="matrix(6.0E-4, -0.0033, -0.0031, -2.0E-4, 37.2, 39.25)" gradientUnits="userSpaceOnUse" id="gradient8" r="819.2" spreadMethod="pad">
      <stop offset="0.17254901960784313" stop-color="#ffffff" stop-opacity="0.9019608"/>
      <stop offset="0.43137254901960786" stop-color="#b2ecf7" stop-opacity="0.4117647"/>
      <stop offset="1.0" stop-color="#b1eef7" stop-opacity="0.0"/>
    </radialGradient>
    <radialGradient cx="0" cy="0" gradientTransform="matrix(6.0E-4, -0.0032, -0.0026, -1.0E-4, 46.15, 31.95)" gradientUnits="userSpaceOnUse" id="gradient9" r="819.2" spreadMethod="pad">
      <stop offset="0.4470588235294118" stop-color="#ffff2f"/>
      <stop offset="0.7725490196078432" stop-color="#e6b100"/>
    </radialGradient>
    <radialGradient cx="0" cy="0" gradientTransform="matrix(-3.0E-4, -0.0034, -0.0031, 6.0E-4, 46.05, 31.75)" gradientUnits="userSpaceOnUse" id="gradient10" r="819.2" spreadMethod="pad">
      <stop offset="0.17254901960784313" stop-color="#ffffff" stop-opacity="0.9019608"/>
      <stop offset="0.43137254901960786" stop-color="#b2ecf7" stop-opacity="0.4117647"/>
      <stop offset="1.0" stop-color="#b1eef7" stop-opacity="0.0"/>
    </radialGradient>
    <radialGradient cx="0" cy="0" gradientTransform="matrix(-0.0011, -0.0031, -0.0023, 0.0012, 46.05, 22.3)" gradientUnits="userSpaceOnUse" id="gradient11" r="819.2" spreadMethod="pad">
      <stop offset="0.4470588235294118" stop-color="#ffff2f"/>
      <stop offset="0.7725490196078432" stop-color="#e6b100"/>
    </radialGradient>
    <radialGradient cx="0" cy="0" gradientTransform="matrix(-0.0019, -0.0028, -0.0024, 0.002, 45.8, 22.2)" gradientUnits="userSpaceOnUse" id="gradient12" r="819.2" spreadMethod="pad">
      <stop offset="0.17254901960784313" stop-color="#ffffff" stop-opacity="0.9019608"/>
      <stop offset="0.43137254901960786" stop-color="#b2ecf7" stop-opacity="0.4117647"/>
      <stop offset="1.0" stop-color="#b1eef7" stop-opacity="0.0"/>
    </radialGradient>
    <radialGradient cx="0" cy="0" gradientTransform="matrix(-0.0314, 0.0, 0.0, 0.0315, 15.15, 25.6)" gradientUnits="userSpaceOnUse" id="gradient13" r="819.2" spreadMethod="pad">
      <stop offset="0.27058823529411763" stop-color="#ffffff" stop-opacity="0.0"/>
      <stop offset="0.3843137254901961" stop-color="#66ffcc" stop-opacity="0.33333334"/>
      <stop offset="0.8392156862745098" stop-color="#66ff99" stop-opacity="0.6"/>
      <stop offset="0.9254901960784314" stop-color="#2dfd6a" stop-opacity="0.6"/>
    </radialGradient>
    <radialGradient cx="0" cy="0" gradientTransform="matrix(-0.0324, 0.0, 0.0, 0.0324, 39.25, 18.05)" gradientUnits="userSpaceOnUse" id="gradient14" r="819.2" spreadMethod="pad">
      <stop offset="0.27058823529411763" stop-color="#ffffff" stop-opacity="0.0"/>
      <stop offset="0.3843137254901961" stop-color="#66ffcc" stop-opacity="0.33333334"/>
      <stop offset="0.8392156862745098" stop-color="#66ff99" stop-opacity="0.6"/>
      <stop offset="0.9254901960784314" stop-color="#2dfd6a" stop-opacity="0.6"/>
    </radialGradient>
    <linearGradient gradientTransform="matrix(0.0145, 0.0283, 0.0139, -0.0094, 34.85, 30.3)" gradientUnits="userSpaceOnUse" id="gradient15" spreadMethod="pad" x1="-819.2" x2="819.2">
      <stop offset="0.0" stop-color="#ffcc00"/>
      <stop offset="1.0" stop-color="#ff9900"/>
    </linearGradient>
    <linearGradient gradientTransform="matrix(-0.0056, 0.0013, 6.0E-4, 0.0026, 25.3, 8.25)" gradientUnits="userSpaceOnUse" id="gradient16" spreadMethod="pad" x1="-819.2" x2="819.2">
      <stop offset="0.0" stop-color="#db6f02"/>
      <stop offset="1.0" stop-color="#ff9900"/>
    </linearGradient>
    <linearGradient gradientTransform="matrix(0.0074, 0.003, 0.0046, -0.0199, 17.7, 19.1)" gradientUnits="userSpaceOnUse" id="gradient17" spreadMethod="pad" x1="-819.2" x2="819.2">
      <stop offset="0.0" stop-color="#ec8201"/>
      <stop offset="1.0" stop-color="#ff9900"/>
    </linearGradient>
    <linearGradient gradientTransform="matrix(-0.002, -0.0015, -0.0011, 0.0021, 34.1, 9.45)" gradientUnits="userSpaceOnUse" id="gradient18" spreadMethod="pad" x1="-819.2" x2="819.2">
      <stop offset="0.0" stop-color="#db6f02"/>
      <stop offset="1.0" stop-color="#ff9900"/>
    </linearGradient>
    <linearGradient gradientTransform="matrix(-0.0018, -0.0143, -0.0043, 4.0E-4, 34.95, 23.5)" gradientUnits="userSpaceOnUse" id="gradient19" spreadMethod="pad" x1="-819.2" x2="819.2">
      <stop offset="0.0" stop-color="#ffcc00"/>
      <stop offset="1.0" stop-color="#ff9900"/>
    </linearGradient>
    <linearGradient gradientTransform="matrix(0.0, -0.0175, -0.0046, -4.0E-4, 24.9, 21.9)" gradientUnits="userSpaceOnUse" id="gradient20" spreadMethod="pad" x1="-819.2" x2="819.2">
      <stop offset="0.0" stop-color="#ffcc00"/>
      <stop offset="1.0" stop-color="#ff9900"/>
    </linearGradient>
  </defs>
</svg>
