<?xml version="1.0" encoding="UTF-8" standalone="no"?>
<svg xmlns:xlink="http://www.w3.org/1999/xlink" height="520.0px" width="520.0px" xmlns="http://www.w3.org/2000/svg">
  <g transform="matrix(10.0, 0.0, 0.0, 10.0, 0.0, 0.0)">
    <use height="52.0" transform="matrix(1.0, 0.0, 0.0, 1.0, 0.0, 0.0)" width="52.0" xlink:href="#shape0"/>
    <use height="136.85" transform="matrix(0.1996, -0.1439, 0.0778, 0.1076, 4.9752, 29.7327)" width="148.25" xlink:href="#sprite0"/>
  </g>
  <defs>
    <g id="shape0" transform="matrix(1.0, 0.0, 0.0, 1.0, 0.0, 0.0)">
      <path d="M52.0 0.0 L52.0 52.0 0.0 52.0 0.0 0.0 52.0 0.0" fill="#795fa9" fill-opacity="0.0" fill-rule="evenodd" stroke="none"/>
      <path d="M32.2 9.05 Q36.65 6.8 38.1 7.0 L38.55 7.15 40.5 9.65 Q42.3 8.05 45.6 8.5 46.85 8.7 48.3 9.2 49.1 13.75 46.75 17.05 L46.6 17.95 Q46.85 19.2 46.75 20.55 46.45 23.1 44.65 25.9 L45.1 27.35 Q42.4 31.15 38.9 31.25 32.7 34.9 27.1 40.8 L22.7 43.6 Q21.3 44.95 19.05 45.35 L15.75 46.0 13.7 45.6 12.3 43.15 Q8.7 43.95 5.25 41.95 5.45 40.25 5.85 38.9 6.35 37.2 7.1 36.0 L4.65 33.05 Q4.45 32.55 4.55 32.2 5.05 30.65 6.85 28.05 17.65 15.55 31.85 9.2 L32.2 9.05 Z" fill="none" stroke="#000000" stroke-linecap="round" stroke-linejoin="round" stroke-opacity="0.3019608" stroke-width="1.0"/>
      <path d="M6.5 40.9 Q6.7 39.65 7.2 38.5 8.0 36.8 9.55 35.4 10.6 35.75 10.0 36.95 9.25 37.45 8.55 38.1 7.4 39.2 6.5 40.9 M12.1 36.85 L11.95 36.55 Q10.4 34.25 9.7 34.55 7.45 35.5 6.45 38.7 6.1 40.0 5.9 41.65 11.9 40.2 12.1 37.15 L12.1 36.85" fill="#7a6b4d" fill-rule="evenodd" stroke="none"/>
      <path d="M6.5 40.9 Q7.4 39.2 8.55 38.1 9.25 37.45 10.0 36.95 10.6 35.75 9.55 35.4 8.0 36.8 7.2 38.5 6.7 39.65 6.5 40.9 M5.9 38.85 L5.3 41.95 Q9.9 44.65 14.75 42.3 14.8 40.5 12.85 36.95 L12.35 36.05 Q10.5 33.4 9.75 33.65 6.95 34.85 5.9 38.85 M5.9 41.65 Q6.1 40.0 6.45 38.7 7.45 35.5 9.7 34.55 10.4 34.25 11.95 36.55 L12.1 36.85 12.25 37.1 Q14.05 40.35 14.0 42.0 9.85 44.0 5.9 41.65" fill="#b6a58d" fill-rule="evenodd" stroke="none"/>
      <path d="M12.1 36.85 L12.1 37.15 Q11.9 40.2 5.9 41.65 9.85 44.0 14.0 42.0 14.05 40.35 12.25 37.1 L12.1 36.85" fill="#4e4232" fill-rule="evenodd" stroke="none"/>
      <path d="M5.9 38.85 Q6.95 34.85 9.75 33.65 10.5 33.4 12.35 36.05 L12.85 36.95 Q14.8 40.5 14.75 42.3 9.9 44.65 5.3 41.95 L5.9 38.85 Z" fill="none" stroke="#000000" stroke-linecap="round" stroke-linejoin="round" stroke-opacity="0.3019608" stroke-width="0.30000000000000004"/>
      <path d="M4.55 32.25 Q5.05 30.65 6.85 28.05 17.65 15.55 31.8 9.2 L32.15 9.05 Q36.6 6.8 38.1 7.0 38.6 8.05 38.7 9.25 38.9 11.0 38.4 13.05 L36.5 14.2 37.7 14.4 Q36.75 17.1 34.0 19.3 L25.4 25.6 24.0 25.05 24.15 26.5 Q20.75 28.6 17.7 30.15 L14.25 31.75 Q6.25 34.5 4.55 32.25 M14.3 30.05 Q18.0 28.4 23.35 24.45 33.4 18.0 34.45 16.2 L34.55 16.0 Q36.05 13.05 36.45 10.8 36.6 10.1 35.95 9.65 34.3 9.8 31.1 11.3 27.9 12.75 23.4 15.8 16.3 21.2 12.35 25.05 8.5 28.85 7.95 30.7 8.45 31.0 9.0 31.1 11.0 31.5 14.3 30.05" fill="#780101" fill-rule="evenodd" stroke="none"/>
      <path d="M24.15 26.5 L24.0 25.05 25.45 26.1 27.8 31.35 24.2 26.85 24.15 26.5 M37.7 14.4 L36.5 14.2 38.25 13.6 38.95 14.0 43.8 20.45 38.2 14.55 37.7 14.4 M34.55 16.0 L34.45 16.2 Q33.4 18.0 23.35 24.45 18.0 28.4 14.3 30.05 12.7 28.0 12.45 26.2 L12.45 25.75 Q21.0 17.2 31.4 11.65 L34.55 16.0" fill="#260000" fill-rule="evenodd" stroke="none"/>
      <path d="M34.55 16.0 L31.4 11.65 34.2 10.5 Q36.0 9.75 36.45 10.8 36.05 13.05 34.55 16.0 M12.45 25.75 L12.45 26.2 Q12.7 28.0 14.3 30.05 11.0 31.5 9.0 31.1 8.25 30.85 9.1 29.4 L12.45 25.75" fill="#090000" fill-rule="evenodd" stroke="none"/>
      <path d="M38.1 7.0 L38.55 7.2 Q39.0 8.55 39.05 9.85 L38.8 12.85 43.8 20.45 38.95 14.0 38.25 13.6 36.5 14.2 38.4 13.05 Q38.9 11.0 38.7 9.25 38.6 8.05 38.1 7.0 M4.65 33.05 Q4.4 32.5 4.55 32.25 6.25 34.5 14.25 31.75 L17.7 30.15 Q20.75 28.6 24.15 26.5 L24.2 26.85 18.15 30.4 Q15.75 31.7 13.4 32.8 8.95 34.3 6.2 33.7 L4.65 33.05 M24.0 25.05 L25.4 25.6 34.0 19.3 Q36.75 17.1 37.7 14.4 L38.2 14.55 Q36.85 17.55 33.6 20.35 L30.35 22.8 25.85 25.8 27.8 31.35 25.45 26.1 24.0 25.05 M31.4 11.65 Q21.0 17.2 12.45 25.75 L9.1 29.4 Q8.25 30.85 9.0 31.1 8.45 31.0 7.95 30.7 8.5 28.85 12.35 25.05 16.3 21.2 23.4 15.8 27.9 12.75 31.1 11.3 34.3 9.8 35.95 9.65 36.6 10.1 36.45 10.8 36.0 9.75 34.2 10.5 L31.4 11.65" fill="#980101" fill-rule="evenodd" stroke="none"/>
      <path d="M38.55 7.2 L42.85 12.7 45.25 14.8 Q47.05 17.5 46.7 20.5 44.6 19.3 42.15 15.1 L39.05 9.85 Q39.0 8.55 38.55 7.2 M15.7 46.0 Q14.55 46.0 13.7 45.6 L10.25 39.75 4.65 33.05 6.2 33.7 Q8.55 35.2 12.2 39.55 16.05 43.95 15.7 46.0 M33.6 20.35 Q35.15 25.55 34.7 27.05 L33.2 30.5 Q32.0 32.5 28.4 34.6 22.5 35.6 18.15 30.4 L24.2 26.85 27.8 31.35 25.85 25.8 30.35 22.8 33.6 20.35" fill="#540101" fill-rule="evenodd" stroke="none"/>
      <path d="M46.7 20.5 Q46.25 24.85 41.45 29.8 33.85 33.7 27.1 40.8 19.75 46.0 15.7 46.0 16.05 43.95 12.2 39.55 8.55 35.2 6.2 33.7 8.95 34.3 13.4 32.8 15.75 31.7 18.15 30.4 22.5 35.6 28.4 34.6 32.0 32.5 33.2 30.5 L34.7 27.05 Q35.15 25.55 33.6 20.35 36.85 17.55 38.2 14.55 L43.8 20.45 38.8 12.85 39.05 9.85 42.15 15.1 Q44.6 19.3 46.7 20.5" fill="#3c0000" fill-rule="evenodd" stroke="none"/>
      <path d="M4.55 32.25 Q5.05 30.65 6.85 28.05 17.65 15.55 31.8 9.2 L32.15 9.05 Q36.6 6.8 38.1 7.0 L38.55 7.2 42.85 12.7 45.25 14.8 Q47.05 17.5 46.7 20.5 46.25 24.85 41.45 29.8 33.85 33.7 27.1 40.8 19.75 46.0 15.7 46.0 14.55 46.0 13.7 45.6 L10.25 39.75 4.65 33.05 Q4.4 32.5 4.55 32.25 M14.3 30.05 Q18.0 28.4 23.35 24.45 33.4 18.0 34.45 16.2 L34.55 16.0 M14.3 30.05 Q11.0 31.5 9.0 31.1 8.45 31.0 7.95 30.7 M36.45 10.8 Q36.05 13.05 34.55 16.0" fill="none" stroke="#000000" stroke-linecap="round" stroke-linejoin="round" stroke-opacity="0.3019608" stroke-width="0.30000000000000004"/>
      <path d="M34.9 20.7 Q36.7 19.65 38.65 20.35 40.6 21.1 41.55 23.15 42.5 25.25 41.85 27.45 41.2 29.65 39.4 30.7 37.6 31.75 35.7 31.05 33.75 30.4 32.8 28.3 31.85 26.25 32.5 23.95 33.1 21.75 34.9 20.7" fill="#000000" fill-opacity="0.3019608" fill-rule="evenodd" stroke="none"/>
      <path d="M16.75 33.9 Q14.95 34.95 14.65 36.95 14.3 39.0 15.65 40.8 17.05 42.6 19.3 43.15 21.6 43.7 23.4 42.65 25.2 41.6 25.45 39.55 25.8 37.45 24.4 35.65 23.05 33.85 20.8 33.35 18.55 32.85 16.75 33.9" fill="#000000" fill-opacity="0.3019608" fill-rule="evenodd" stroke="none"/>
      <path d="M40.55 10.0 Q41.35 9.5 42.7 10.4 44.15 11.35 45.3 13.15 46.45 14.9 46.65 16.45 46.95 18.05 46.15 18.55 45.35 19.0 43.9 18.1 42.55 17.2 41.4 15.45 40.25 13.65 39.95 12.05 39.75 10.45 40.55 10.0" fill="#000000" fill-opacity="0.3019608" fill-rule="evenodd" stroke="none"/>
      <path d="M42.1 13.45 L42.35 13.6 Q45.0 14.6 47.9 9.6 48.7 14.15 45.8 17.25 44.45 16.65 42.25 13.75 L42.1 13.45" fill="#4e4232" fill-rule="evenodd" stroke="none"/>
      <path d="M42.1 13.45 L41.9 13.25 Q40.4 10.85 40.85 10.35 42.3 8.7 45.25 9.0 L47.9 9.6 Q45.0 14.6 42.35 13.6 L42.1 13.45 M41.6 10.5 Q41.6 11.65 42.8 11.55 L44.15 10.7 Q45.4 10.1 47.05 9.9 L44.85 9.6 Q43.2 9.65 41.6 10.5" fill="#7a6b4d" fill-rule="evenodd" stroke="none"/>
      <path d="M41.3 13.4 Q39.6 10.65 40.05 10.05 41.85 8.0 45.55 8.5 L48.3 9.2 Q49.2 14.5 45.9 18.1 44.35 17.4 41.9 14.2 L41.3 13.4 M47.9 9.6 L45.25 9.0 Q42.3 8.7 40.85 10.35 40.4 10.85 41.9 13.25 L42.1 13.45 42.25 13.75 Q44.45 16.65 45.8 17.25 48.7 14.15 47.9 9.6 M41.6 10.5 Q43.2 9.65 44.85 9.6 L47.05 9.9 Q45.4 10.1 44.15 10.7 L42.8 11.55 Q41.6 11.65 41.6 10.5" fill="#b6a58d" fill-rule="evenodd" stroke="none"/>
      <path d="M41.3 13.4 L41.9 14.2 Q44.35 17.4 45.9 18.1 49.2 14.5 48.3 9.2 L45.55 8.5 Q41.85 8.0 40.05 10.05 39.6 10.65 41.3 13.4 Z" fill="none" stroke="#000000" stroke-linecap="round" stroke-linejoin="round" stroke-opacity="0.3019608" stroke-width="0.30000000000000004"/>
      <path d="M13.95 38.05 Q14.25 34.35 16.8 34.25 L19.0 34.4 21.25 34.9 Q22.5 35.55 23.3 36.45 24.65 37.95 24.7 40.15 23.2 45.55 16.8 45.5 L16.35 44.95 Q14.25 42.2 13.95 39.45 L13.95 38.05 M21.0 35.35 L19.0 34.85 17.05 34.75 Q14.75 34.8 14.45 38.15 L14.45 39.45 Q14.7 41.95 16.7 44.5 L17.0 44.85 Q22.8 44.9 24.1 40.05 24.05 38.15 23.0 36.9 22.2 35.95 21.0 35.35 M17.7 36.65 Q16.95 38.6 16.5 43.1 15.0 39.15 15.55 36.9 17.5 35.3 17.7 36.65" fill="#b6a58d" fill-rule="evenodd" stroke="none"/>
      <path d="M17.0 44.85 L16.7 44.5 Q14.7 41.95 14.45 39.45 L14.45 38.15 Q14.75 34.8 17.05 34.75 L19.0 34.85 21.0 35.35 Q21.45 37.6 20.4 39.95 19.4 42.35 17.0 44.85 M17.7 36.65 Q17.5 35.3 15.55 36.9 15.0 39.15 16.5 43.1 16.95 38.6 17.7 36.65" fill="#7a6b4d" fill-rule="evenodd" stroke="none"/>
      <path d="M17.0 44.85 Q19.4 42.35 20.4 39.95 21.45 37.6 21.0 35.35 22.2 35.95 23.0 36.9 24.05 38.15 24.1 40.05 22.8 44.9 17.0 44.85" fill="#4e4232" fill-rule="evenodd" stroke="none"/>
      <path d="M13.95 38.05 L13.95 39.45 Q14.25 42.2 16.35 44.95 L16.8 45.5 Q23.2 45.55 24.7 40.15 24.65 37.95 23.3 36.45 22.5 35.55 21.25 34.9 L19.0 34.4 16.8 34.25 Q14.25 34.35 13.95 38.05 Z" fill="none" stroke="#000000" stroke-linecap="round" stroke-linejoin="round" stroke-opacity="0.3019608" stroke-width="0.30000000000000004"/>
      <path d="M34.45 22.5 L35.7 20.65 Q37.95 18.85 39.6 19.9 L41.8 21.45 Q44.1 23.45 45.15 27.35 41.25 32.75 35.85 30.7 32.9 28.5 33.55 24.7 L34.45 22.5 M44.1 27.55 L44.35 27.2 Q43.5 23.75 41.4 21.95 40.95 21.5 39.5 20.55 38.05 19.65 36.05 21.3 L34.95 22.9 34.3 24.3 34.15 24.85 Q33.55 28.2 36.15 30.15 40.75 31.9 44.1 27.55 M39.7 21.65 Q42.65 24.55 43.0 26.1 40.1 23.2 37.4 22.3 36.95 20.35 39.7 21.65" fill="#b6a58d" fill-rule="evenodd" stroke="none"/>
      <path d="M34.3 24.3 L34.95 22.9 36.05 21.3 Q38.05 19.65 39.5 20.55 40.95 21.5 41.4 21.95 43.5 23.75 44.35 27.2 L44.1 27.55 Q39.1 28.6 36.5 26.9 34.7 25.7 34.3 24.3 M39.7 21.65 Q36.95 20.35 37.4 22.3 40.1 23.2 43.0 26.1 42.65 24.55 39.7 21.65" fill="#7a6b4d" fill-rule="evenodd" stroke="none"/>
      <path d="M34.3 24.3 Q34.7 25.7 36.5 26.9 39.1 28.6 44.1 27.55 40.75 31.9 36.15 30.15 33.55 28.2 34.15 24.85 L34.3 24.3" fill="#4e4232" fill-rule="evenodd" stroke="none"/>
      <path d="M34.45 22.5 L33.55 24.7 Q32.9 28.5 35.85 30.7 41.25 32.75 45.15 27.35 44.1 23.45 41.8 21.45 L39.6 19.9 Q37.95 18.85 35.7 20.65 L34.45 22.5 Z" fill="none" stroke="#000000" stroke-linecap="round" stroke-linejoin="round" stroke-opacity="0.3019608" stroke-width="0.30000000000000004"/>
    </g>
    <g id="sprite0" transform="matrix(1.0, 0.0, 0.0, 1.0, 73.5, 65.0)">
      <use height="136.85" transform="matrix(1.0, 0.0, 0.0, 1.0, -73.5, -65.0)" width="148.25" xlink:href="#shape1"/>
    </g>
    <g id="shape1" transform="matrix(1.0, 0.0, 0.0, 1.0, 73.5, 65.0)">
      <path d="M36.65 -54.65 Q60.05 -42.0 69.75 -17.95 80.55 8.9 68.0 34.1 55.45 59.35 26.8 68.2 -1.8 77.05 -29.7 64.3 -57.6 51.6 -68.45 24.75 -79.3 -2.05 -66.75 -27.25 L-66.7 -27.3 Q-54.1 -52.5 -25.5 -61.4 3.1 -70.2 31.0 -57.5 L36.65 -54.65" fill="url(#gradient0)" fill-rule="evenodd" stroke="none"/>
    </g>
    <radialGradient cx="0" cy="0" gradientTransform="matrix(0.0914, 0.0, 0.0, 0.0914, 0.6, 3.4)" gradientUnits="userSpaceOnUse" id="gradient0" r="819.2" spreadMethod="pad">
      <stop offset="0.0" stop-color="#ffffff"/>
      <stop offset="1.0" stop-color="#ffffff" stop-opacity="0.0"/>
    </radialGradient>
  </defs>
</svg>
