<?xml version="1.0" encoding="UTF-8" standalone="no"?>
<svg xmlns:xlink="http://www.w3.org/1999/xlink" height="520.0px" width="520.0px" xmlns="http://www.w3.org/2000/svg">
  <g transform="matrix(10.0, 0.0, 0.0, 10.0, 0.0, 0.0)">
    <use height="52.0" transform="matrix(1.0, 0.0, 0.0, 1.0, 0.0, 0.0)" width="52.0" xlink:href="#shape0"/>
    <use height="136.85" transform="matrix(0.1877, 0.0252, -0.0758, 0.1811, 18.2319, 15.0751)" width="148.25" xlink:href="#sprite0"/>
  </g>
  <defs>
    <g id="shape0" transform="matrix(1.0, 0.0, 0.0, 1.0, 0.0, 0.0)">
      <path d="M52.0 0.0 L52.0 52.0 0.0 52.0 0.0 0.0 52.0 0.0" fill="#795fa9" fill-opacity="0.0" fill-rule="evenodd" stroke="none"/>
      <path d="M17.0 5.35 Q15.85 9.6 17.65 12.55 L17.8 12.7 Q15.55 13.15 13.25 12.75 L13.25 13.6 13.3 14.6 Q13.6 18.1 16.1 19.15 L17.2 19.15 Q19.45 18.95 22.4 17.55 16.85 21.2 11.3 25.8 6.4 29.8 6.6 31.8 L7.4 32.8 Q5.25 33.65 4.05 34.65 3.8 35.0 4.1 35.25 4.5 35.65 5.6 35.85 8.35 36.85 10.35 36.8 L10.85 37.5 10.9 37.35 11.45 38.05 Q10.1 39.85 9.55 41.5 9.5 42.1 10.0 42.4 L11.9 42.65 13.65 42.75 14.85 45.35 Q17.15 46.55 20.2 46.4 23.15 46.3 26.85 44.95 27.15 46.1 27.6 46.95 L28.3 47.1 29.25 46.1 Q30.75 44.45 31.35 43.0 L36.9 39.8 37.3 39.5 Q41.75 36.05 44.25 32.85 L46.3 29.55 45.85 28.8 46.65 28.75 Q47.4 26.85 47.45 24.95 47.2 23.8 45.95 22.3 46.85 20.5 46.95 17.45 47.2 16.2 46.9 15.6 46.65 15.05 46.05 15.0 43.9 15.5 41.4 17.1 L38.7 12.95 38.55 12.85 Q36.45 11.4 32.9 12.25 L33.4 12.1 Q32.8 11.25 31.7 11.15 L31.3 11.35 31.25 11.35 Q30.05 11.9 28.7 13.15 L26.7 13.75 Q26.3 12.6 25.6 12.3 L25.65 12.15 Q26.35 10.5 26.05 9.35 L25.2 8.15 23.55 7.2 Q20.3 6.15 17.75 3.15 L17.0 5.35 M22.5 17.4 L22.45 17.55 22.6 17.4 22.5 17.4" fill="none" stroke="#000000" stroke-linecap="round" stroke-linejoin="round" stroke-opacity="0.3019608" stroke-width="1.0"/>
      <path d="M13.25 13.6 Q14.95 14.65 16.55 13.8 20.2 12.5 23.1 14.4 L22.8 15.9 22.45 17.5 Q19.5 18.95 17.2 19.1 L16.1 19.15 Q13.55 18.1 13.3 14.65 L13.25 13.6" fill="#e0dfa7" fill-rule="evenodd" stroke="none"/>
      <path d="M13.25 13.6 L13.25 12.7 Q16.45 13.3 19.7 12.25 L21.45 11.9 Q22.15 11.9 22.5 12.25 23.2 12.9 23.1 14.4 20.2 12.5 16.55 13.8 14.95 14.65 13.25 13.6" fill="#f7f8d0" fill-rule="evenodd" stroke="none"/>
      <path d="M23.1 14.4 Q23.2 12.9 22.5 12.25 22.15 11.9 21.45 11.9 L19.7 12.25 Q16.45 13.3 13.25 12.7 L13.25 13.6 M23.1 14.4 L22.8 15.9 22.45 17.5 Q19.5 18.95 17.2 19.1 L16.1 19.15 Q13.55 18.1 13.3 14.65 L13.25 13.6" fill="none" stroke="#000000" stroke-linecap="round" stroke-linejoin="round" stroke-opacity="0.3019608" stroke-width="0.30000000000000004"/>
      <path d="M24.75 13.7 Q23.95 12.0 22.5 10.3 L20.25 7.8 Q19.15 6.85 20.2 6.75 23.85 7.9 25.6 12.15 L24.75 13.7 M17.0 5.35 Q17.65 9.85 20.05 12.25 21.75 13.95 24.3 14.5 L23.85 15.3 Q20.65 14.8 18.6 13.35 L17.65 12.55 Q15.85 9.55 17.0 5.35" fill="#e0dfa7" fill-rule="evenodd" stroke="none"/>
      <path d="M20.95 6.85 L20.2 6.75 20.95 6.85 M20.2 6.75 Q19.15 6.85 20.25 7.8 L22.5 10.3 Q23.95 12.0 24.75 13.7 L24.3 14.5 Q21.75 13.95 20.05 12.25 17.65 9.85 17.0 5.35 17.25 4.3 17.75 3.2 20.3 6.15 23.55 7.25 24.6 7.6 25.25 8.15 25.8 8.6 26.0 9.35 26.35 10.5 25.6 12.15 23.85 7.9 20.2 6.75" fill="#f7f8d0" fill-rule="evenodd" stroke="none"/>
      <path d="M20.2 6.75 L20.95 6.85 M24.75 13.7 Q23.95 12.0 22.5 10.3 L20.25 7.8 Q19.15 6.85 20.2 6.75 M25.6 12.15 Q26.35 10.5 26.0 9.35 25.8 8.6 25.25 8.15 24.6 7.6 23.55 7.25 20.3 6.15 17.75 3.2 17.25 4.3 17.0 5.35 15.85 9.55 17.65 12.55 L18.6 13.35 Q20.65 14.8 23.85 15.3 L24.3 14.5 24.75 13.7 25.6 12.15" fill="none" stroke="#000000" stroke-linecap="round" stroke-linejoin="round" stroke-opacity="0.3019608" stroke-width="0.30000000000000004"/>
      <path d="M21.75 17.1 L21.1 16.5 Q20.8 14.7 21.95 14.2 L22.2 14.05 22.8 15.6 Q22.75 16.7 21.75 17.1 M23.1 13.75 Q23.15 12.45 24.3 12.2 25.5 12.6 24.95 14.0 L24.6 14.85 Q23.8 17.0 23.0 15.3 L22.9 15.05 23.1 13.75" fill="#f7f8d0" fill-rule="evenodd" stroke="none"/>
      <path d="M22.2 14.05 L23.1 13.75 22.9 15.05 23.0 15.3 Q23.8 17.0 24.6 14.85 L24.95 14.0 Q25.5 12.6 24.3 12.2 L24.9 12.15 Q26.55 12.15 27.05 14.95 25.6 17.7 23.3 17.35 L21.75 17.1 Q22.75 16.7 22.8 15.6 L22.2 14.05" fill="#e0dfa7" fill-rule="evenodd" stroke="none"/>
      <path d="M21.75 17.1 L21.1 16.5 Q20.8 14.7 21.95 14.2 L22.2 14.05 23.1 13.75 Q23.15 12.45 24.3 12.2 L24.9 12.15 Q26.55 12.15 27.05 14.95 25.6 17.7 23.3 17.35 L21.75 17.1 M22.9 15.05 L23.1 13.75" fill="none" stroke="#000000" stroke-linecap="round" stroke-linejoin="round" stroke-opacity="0.3019608" stroke-width="0.30000000000000004"/>
      <path d="M9.15 32.2 L8.75 31.4 9.95 31.6 10.05 31.1 12.1 32.4 13.25 35.0 13.0 36.85 12.45 36.8 11.7 37.55 11.25 36.4 10.9 37.5 9.25 35.25 7.75 32.05 9.15 32.2" fill="#000000" fill-opacity="0.3019608" fill-rule="evenodd" stroke="none"/>
      <path d="M5.0 35.35 L7.85 35.0 4.9 34.4 10.55 32.05 Q11.7 32.45 12.4 33.6 10.5 35.75 5.0 35.35" fill="#beb87a" fill-rule="evenodd" stroke="none"/>
      <path d="M5.0 35.35 Q10.5 35.75 12.4 33.6 L13.0 35.25 12.4 36.4 Q10.0 37.4 5.65 35.8 4.5 35.6 4.1 35.25 L5.0 35.35" fill="#a59c52" fill-rule="evenodd" stroke="none"/>
      <path d="M10.55 32.05 L4.9 34.4 7.85 35.0 5.0 35.35 4.1 35.25 Q3.85 34.95 4.05 34.6 5.85 33.1 9.85 31.9 L10.55 32.05" fill="#d5d0aa" fill-rule="evenodd" stroke="none"/>
      <path d="M9.85 31.9 Q5.85 33.1 4.05 34.6 3.85 34.95 4.1 35.25 4.5 35.6 5.65 35.8 10.0 37.4 12.4 36.4 L13.0 35.25" fill="none" stroke="#000000" stroke-linecap="round" stroke-linejoin="round" stroke-opacity="0.3019608" stroke-width="0.30000000000000004"/>
      <path d="M7.65 33.15 Q12.7 34.85 26.95 25.95 32.15 22.7 35.2 20.1 44.3 31.25 27.95 44.55 19.65 47.9 14.85 45.35 L11.55 38.15 7.65 33.15" fill="#abc24d" fill-rule="evenodd" stroke="none"/>
      <path d="M35.95 14.4 L35.9 14.15 Q33.45 12.4 25.2 17.75 19.5 21.35 13.55 26.0 9.2 29.35 9.0 30.8 L9.35 31.5 9.6 31.55 Q13.0 32.1 24.75 24.55 36.4 17.05 35.95 14.4 M38.55 12.85 Q40.95 16.7 26.6 25.65 12.3 34.6 7.4 32.8 L6.6 31.8 Q6.4 29.8 11.3 25.8 18.0 20.2 24.7 16.05 34.45 9.95 38.55 12.85" fill="#bfd661" fill-rule="evenodd" stroke="none"/>
      <path d="M9.6 31.55 L9.4 31.25 Q9.65 29.8 14.0 26.45 19.95 21.8 25.6 18.2 33.3 13.25 35.95 14.4 36.4 17.05 24.75 24.55 13.0 32.1 9.6 31.55 M45.85 28.8 L44.1 25.6 46.65 28.75 45.85 28.8" fill="#6f7e2c" fill-rule="evenodd" stroke="none"/>
      <path d="M9.6 31.55 L9.35 31.5 9.0 30.8 Q9.2 29.35 13.55 26.0 19.5 21.35 25.2 17.75 33.45 12.4 35.9 14.15 L35.95 14.4 Q33.3 13.25 25.6 18.2 19.95 21.8 14.0 26.45 9.65 29.8 9.4 31.25 L9.6 31.55 M35.2 20.1 Q32.15 22.7 26.95 25.95 12.7 34.85 7.65 33.15 L7.4 32.8 Q12.3 34.6 26.6 25.65 40.95 16.7 38.55 12.85 L38.7 12.95 38.85 13.15 39.15 13.6 Q39.95 16.0 35.2 20.1" fill="#d1eb94" fill-rule="evenodd" stroke="none"/>
      <path d="M35.2 20.1 Q39.95 16.0 39.15 13.6 L42.9 19.45 Q47.05 22.75 47.45 24.95 47.4 26.85 46.65 28.75 L44.1 25.6 45.85 28.8 46.3 29.55 Q43.95 34.45 36.9 39.8 32.0 42.85 27.95 44.55 44.3 31.25 35.2 20.1" fill="#899d37" fill-rule="evenodd" stroke="none"/>
      <path d="M38.85 13.15 L38.7 12.95 38.55 12.85 Q34.45 9.95 24.7 16.05 18.0 20.2 11.3 25.8 6.4 29.8 6.6 31.8 L7.4 32.8 7.65 33.15 11.55 38.15 14.85 45.35 Q19.65 47.9 27.95 44.55 32.0 42.85 36.9 39.8 43.95 34.45 46.3 29.55 L45.85 28.8 46.65 28.75 Q47.4 26.85 47.45 24.95 47.05 22.75 42.9 19.45 L39.15 13.6 M44.1 25.6 L45.85 28.8" fill="none" stroke="#000000" stroke-linecap="round" stroke-linejoin="round" stroke-opacity="0.3019608" stroke-width="0.30000000000000004"/>
      <path d="M11.85 25.75 Q13.25 24.65 14.65 25.25 15.9 26.35 17.2 28.6 M35.7 24.5 L33.4 20.7 Q32.25 19.95 30.95 20.25 M18.05 23.95 L20.0 27.05 M15.9 29.65 Q14.7 30.7 15.1 31.8 17.0 35.15 18.35 36.55 M17.85 42.95 L20.2 46.35 M14.95 40.3 L18.1 46.2 M38.9 24.1 Q42.05 28.05 44.3 32.9 M32.25 27.6 L36.15 33.3 M32.1 30.35 Q35.5 34.75 37.3 39.5" fill="none" stroke="#000000" stroke-linecap="round" stroke-linejoin="round" stroke-opacity="0.3019608" stroke-width="0.30000000000000004"/>
      <path d="M13.6 35.8 L12.65 34.8 14.1 34.6 13.85 33.8 16.8 34.9 19.45 38.3 20.25 41.1 19.65 41.3 19.3 42.7 18.15 41.2 18.4 42.95 15.45 40.3 12.0 36.2 13.6 35.8" fill="#000000" fill-opacity="0.3019608" fill-rule="evenodd" stroke="none"/>
      <path d="M11.0 42.15 L13.75 40.45 10.4 40.85 14.95 35.05 Q16.35 35.1 17.7 36.55 17.0 40.55 11.0 42.15" fill="#beb87a" fill-rule="evenodd" stroke="none"/>
      <path d="M11.0 42.15 Q17.0 40.55 17.7 36.55 L19.35 38.75 19.4 40.7 Q17.4 43.15 11.95 42.65 L10.05 42.35 11.0 42.15" fill="#a59c52" fill-rule="evenodd" stroke="none"/>
      <path d="M14.95 35.05 L10.4 40.85 13.75 40.45 11.0 42.15 10.05 42.35 Q9.6 42.1 9.6 41.5 10.65 38.55 14.1 35.1 L14.95 35.05" fill="#d5d0aa" fill-rule="evenodd" stroke="none"/>
      <path d="M14.1 35.1 Q10.65 38.55 9.6 41.5 9.6 42.1 10.05 42.35 L11.95 42.65 Q17.4 43.15 19.4 40.7 L19.35 38.75" fill="none" stroke="#000000" stroke-linecap="round" stroke-linejoin="round" stroke-opacity="0.3019608" stroke-width="0.30000000000000004"/>
      <path d="M25.55 41.85 L26.1 40.95 25.6 40.7 27.5 39.45 30.45 39.5 32.25 40.4 32.05 40.85 32.65 41.7 31.35 41.65 32.35 42.35 29.65 42.85 25.95 42.95 26.5 41.75 25.55 41.85" fill="#000000" fill-opacity="0.3019608" fill-rule="evenodd" stroke="none"/>
      <path d="M28.7 39.7 Q30.5 42.0 28.6 46.4 L29.0 43.95 27.65 46.15 26.75 40.6 Q27.4 39.85 28.7 39.7" fill="#beb87a" fill-rule="evenodd" stroke="none"/>
      <path d="M30.6 39.8 L31.65 40.7 Q32.05 43.0 29.3 46.05 L28.3 47.1 28.6 46.4 Q30.5 42.0 28.7 39.7 L30.6 39.8" fill="#a59c52" fill-rule="evenodd" stroke="none"/>
      <path d="M28.6 46.4 L28.3 47.1 Q27.9 47.25 27.65 46.9 26.55 44.9 26.35 41.2 L26.75 40.6 27.65 46.15 29.0 43.95 28.6 46.4" fill="#d5d0aa" fill-rule="evenodd" stroke="none"/>
      <path d="M28.3 47.1 L29.3 46.05 Q32.05 43.0 31.65 40.7 L30.6 39.8 M28.3 47.1 Q27.9 47.25 27.65 46.9 26.55 44.9 26.35 41.2" fill="none" stroke="#000000" stroke-linecap="round" stroke-linejoin="round" stroke-opacity="0.3019608" stroke-width="0.30000000000000004"/>
      <path d="M39.8 18.3 L38.95 17.25 38.6 18.65 37.85 18.35 38.6 21.35 41.65 24.3 44.4 25.35 44.65 24.8 46.1 24.65 44.7 23.35 46.5 23.75 44.15 20.6 40.4 16.75 39.8 18.3" fill="#000000" fill-opacity="0.3019608" fill-rule="evenodd" stroke="none"/>
      <path d="M46.6 16.5 L44.5 19.0 45.3 15.7 38.9 19.55 Q38.85 20.95 40.05 22.4 44.25 22.2 46.6 16.5" fill="#beb87a" fill-rule="evenodd" stroke="none"/>
      <path d="M46.6 16.5 Q44.25 22.2 40.05 22.4 L42.1 24.2 44.1 24.5 Q46.8 22.85 46.95 17.45 47.25 16.2 46.95 15.6 L46.6 16.5" fill="#a59c52" fill-rule="evenodd" stroke="none"/>
      <path d="M38.9 19.55 L45.3 15.7 44.5 19.0 46.6 16.5 46.95 15.6 Q46.65 15.05 46.0 15.05 42.95 15.7 39.1 18.7 L38.9 19.55" fill="#d5d0aa" fill-rule="evenodd" stroke="none"/>
      <path d="M39.1 18.7 Q42.95 15.7 46.0 15.05 46.65 15.05 46.95 15.6 47.25 16.2 46.95 17.45 46.8 22.85 44.1 24.5 L42.1 24.2" fill="none" stroke="#000000" stroke-linecap="round" stroke-linejoin="round" stroke-opacity="0.3019608" stroke-width="0.30000000000000004"/>
      <path d="M33.1 28.85 L34.3 29.4 33.3 29.8 33.25 30.25 31.2 30.1 Q29.7 29.75 28.65 28.65 L27.7 26.75 28.25 26.8 28.3 25.8 29.0 26.3 29.2 25.15 Q30.6 24.8 32.4 25.7 34.3 27.1 34.4 28.75 L33.1 28.85" fill="#000000" fill-opacity="0.3019608" fill-rule="evenodd" stroke="none"/>
      <path d="M32.5 23.7 L32.05 25.65 31.55 23.5 29.0 27.2 Q29.4 28.05 30.55 28.65 32.85 27.6 32.5 23.7" fill="#beb87a" fill-rule="evenodd" stroke="none"/>
      <path d="M32.5 23.7 Q32.85 27.6 30.55 28.65 L32.25 29.3 33.45 29.05 Q34.5 27.5 33.0 24.2 L32.45 23.1 32.5 23.7" fill="#a59c52" fill-rule="evenodd" stroke="none"/>
      <path d="M29.0 27.2 L31.55 23.5 32.05 25.65 32.5 23.7 32.45 23.1 Q32.15 22.8 31.75 22.95 30.15 24.05 28.85 26.65 L29.0 27.2" fill="#d5d0aa" fill-rule="evenodd" stroke="none"/>
      <path d="M28.85 26.65 Q30.15 24.05 31.75 22.95 32.15 22.8 32.45 23.1 L33.0 24.2 Q34.5 27.5 33.45 29.05 L32.25 29.3" fill="none" stroke="#000000" stroke-linecap="round" stroke-linejoin="round" stroke-opacity="0.3019608" stroke-width="0.30000000000000004"/>
      <path d="M30.45 20.55 L28.8 21.75 Q27.9 20.35 27.55 18.6 L27.3 16.65 Q27.05 17.55 27.05 18.8 L27.05 19.2 27.3 21.6 Q26.75 22.6 25.25 21.3 23.95 18.75 23.85 15.9 24.2 14.25 25.1 13.9 L26.6 13.75 28.7 13.15 Q30.05 11.9 31.25 11.35 29.95 12.0 29.25 13.85 29.0 15.15 29.4 17.85 L29.4 18.0 30.45 20.55 M26.95 14.75 L26.7 14.95 26.6 15.05 26.7 14.95 26.95 14.75 27.65 14.1 25.35 14.45 Q25.35 15.45 26.95 14.75 M28.7 13.15 L27.65 14.1 28.7 13.15" fill="#f7f8d0" fill-rule="evenodd" stroke="none"/>
      <path d="M31.25 11.35 L31.3 11.35 31.7 11.15 Q32.8 11.25 33.4 12.1 L31.4 12.7 Q30.6 13.4 30.55 15.4 L31.1 17.15 Q31.6 18.5 32.15 19.3 L30.45 20.55 29.4 18.0 29.4 17.85 Q29.0 15.15 29.25 13.85 29.95 12.0 31.25 11.35 M28.8 21.75 L27.45 22.65 26.5 23.3 25.25 21.3 Q26.75 22.6 27.3 21.6 L27.05 19.2 27.05 18.8 Q27.05 17.55 27.3 16.65 L27.55 18.6 Q27.9 20.35 28.8 21.75 M31.4 12.7 L31.95 12.25 31.4 12.7 M26.95 14.75 Q25.35 15.45 25.35 14.45 L27.65 14.1 26.95 14.75" fill="#e0dfa7" fill-rule="evenodd" stroke="none"/>
      <path d="M31.25 11.35 L31.3 11.35 31.7 11.15 Q32.8 11.25 33.4 12.1 L31.4 12.7 Q30.6 13.4 30.55 15.4 L31.1 17.15 Q31.6 18.5 32.15 19.3 L30.45 20.55 28.8 21.75 27.45 22.65 26.5 23.3 25.25 21.3 Q23.95 18.75 23.85 15.9 24.2 14.25 25.1 13.9 L26.6 13.75 28.7 13.15 Q30.05 11.9 31.25 11.35 M31.95 12.25 L31.4 12.7 M26.6 15.05 L26.7 14.95 26.95 14.75 27.65 14.1 28.7 13.15" fill="none" stroke="#000000" stroke-linecap="round" stroke-linejoin="round" stroke-opacity="0.3019608" stroke-width="0.30000000000000004"/>
    </g>
    <g id="sprite0" transform="matrix(1.0, 0.0, 0.0, 1.0, 73.5, 65.0)">
      <use height="136.85" transform="matrix(1.0, 0.0, 0.0, 1.0, -73.5, -65.0)" width="148.25" xlink:href="#shape1"/>
    </g>
    <g id="shape1" transform="matrix(1.0, 0.0, 0.0, 1.0, 73.5, 65.0)">
      <path d="M36.65 -54.65 Q60.05 -42.0 69.75 -17.95 80.55 8.9 68.0 34.1 55.45 59.35 26.8 68.2 -1.8 77.05 -29.7 64.3 -57.6 51.6 -68.45 24.75 -79.3 -2.05 -66.75 -27.25 L-66.7 -27.3 Q-54.1 -52.5 -25.5 -61.4 3.1 -70.2 31.0 -57.5 L36.65 -54.65" fill="url(#gradient0)" fill-rule="evenodd" stroke="none"/>
    </g>
    <radialGradient cx="0" cy="0" gradientTransform="matrix(0.0914, 0.0, 0.0, 0.0914, 0.6, 3.4)" gradientUnits="userSpaceOnUse" id="gradient0" r="819.2" spreadMethod="pad">
      <stop offset="0.0" stop-color="#ffffff"/>
      <stop offset="1.0" stop-color="#ffffff" stop-opacity="0.0"/>
    </radialGradient>
  </defs>
</svg>
