<?xml version="1.0" encoding="UTF-8" standalone="no"?>
<svg xmlns:xlink="http://www.w3.org/1999/xlink" height="600.0px" width="600.0px" xmlns="http://www.w3.org/2000/svg">
  <g transform="matrix(10.0, 0.0, 0.0, 10.0, 0.0, 0.0)">
    <use height="60.0" transform="matrix(1.0, 0.0, 0.0, 1.0, 0.0, 0.0)" width="60.0" xlink:href="#sprite0"/>
    <use height="38.8" transform="matrix(1.0, 0.0, 0.0, 1.0, 4.95, 9.35)" width="51.15" xlink:href="#shape1"/>
    <use height="40.0" transform="matrix(0.945, 0.0, 0.0, 0.945, 5.4, 9.8)" width="53.1" xlink:href="#sprite1"/>
    <use height="41.0" transform="matrix(0.945, 0.0, 0.0, 0.945, 4.9275, 9.3275)" width="54.1" xlink:href="#sprite2"/>
    <use height="9.05" transform="matrix(1.0, 0.0, 0.0, 1.0, 14.95, 24.25)" width="11.3" xlink:href="#shape5"/>
    <use height="32.2" transform="matrix(-0.5649, 0.0, 0.0, 0.5481, 29.3, 29.5)" width="32.2" xlink:href="#sprite4"/>
  </g>
  <defs>
    <g id="sprite0" transform="matrix(1.0, 0.0, 0.0, 1.0, 0.0, 0.0)">
      <use height="60.0" transform="matrix(1.0, 0.0, 0.0, 1.0, 0.0, 0.0)" width="60.0" xlink:href="#shape0"/>
    </g>
    <g id="shape0" transform="matrix(1.0, 0.0, 0.0, 1.0, 0.0, 0.0)">
      <path d="M60.0 0.0 L60.0 60.0 0.0 60.0 0.0 0.0 60.0 0.0" fill="#ffba2e" fill-opacity="0.0" fill-rule="evenodd" stroke="none"/>
    </g>
    <g id="shape1" transform="matrix(1.0, 0.0, 0.0, 1.0, -4.95, -9.35)">
      <path d="M10.3 16.55 L10.35 16.4 Q12.0 12.95 17.5 11.1 24.55 8.85 33.7 10.6 42.85 12.4 48.85 17.35 51.15 19.25 52.5 21.2 54.4 24.0 54.05 26.9 L54.0 27.2 53.9 27.75 53.85 27.8 53.85 28.0 53.15 32.2 53.15 32.35 53.25 31.75 54.0 27.5 Q55.95 30.4 55.5 33.55 L55.45 34.45 55.4 34.5 55.4 34.45 54.55 39.6 54.3 40.2 Q52.35 44.15 46.15 46.15 L45.65 46.4 42.55 47.1 41.85 47.25 28.1 46.75 24.35 45.85 22.8 46.3 21.25 46.4 Q18.65 46.45 16.6 45.25 L14.6 44.15 14.05 43.7 13.7 43.35 12.45 42.2 Q11.6 40.95 11.4 39.85 L11.45 39.45 11.25 39.3 9.6 37.85 Q8.0 36.25 7.05 34.65 L6.05 32.65 Q5.5 31.25 5.45 29.75 L5.45 29.2 6.05 25.25 Q6.0 23.55 7.15 21.25 L10.3 16.55 Q10.0 17.05 9.85 17.5 L9.85 17.8 9.75 18.2 9.7 18.3 9.7 18.35 9.65 18.5 9.6 18.8 9.6 18.95 9.4 20.25 9.4 20.35 9.4 20.5 9.55 19.7 9.55 20.25 9.6 20.5 9.95 22.15 10.1 22.45 10.75 23.85 11.85 25.5 M54.05 26.9 L53.85 27.8 M49.15 33.35 L50.05 32.85 50.75 32.35 51.15 32.05 52.2 31.1 52.8 30.3 53.2 29.7 53.85 28.0 M55.4 34.45 L54.6 36.65 53.95 37.65 53.15 32.5 53.15 32.35 M55.4 34.45 L55.45 34.45 M53.25 31.75 L53.15 32.5 M53.15 32.2 L52.8 30.3 M22.55 20.05 L23.6 20.0 24.05 20.0 25.3 20.05 32.0 20.8 32.8 20.95 38.9 22.75 Q43.55 24.55 47.1 27.45 L49.4 29.6 Q47.7 31.35 44.5 32.45 38.45 34.4 30.6 32.9 L30.3 32.85 29.0 32.6 27.85 34.6 27.9 40.35 27.5 40.25 28.45 40.5 29.1 40.65 Q36.7 42.05 42.8 40.75 L43.4 40.65 44.65 40.35 45.35 40.1 47.3 39.35 47.8 34.05 M47.3 39.35 L47.25 39.5 48.65 41.4 48.7 41.45 48.65 41.5 48.65 41.4 M9.35 20.6 L9.35 20.65 9.3 20.8 9.15 21.95 9.4 20.5 9.35 20.6 9.4 20.35 M9.15 21.95 L8.75 25.2 8.75 25.25 Q8.75 26.05 9.1 27.0 L9.2 27.3 9.3 27.6 Q9.85 29.15 10.45 29.95 11.4 31.4 12.95 32.9 13.8 30.45 15.1 28.65 L15.3 28.35 15.5 28.1 16.25 27.25 17.0 26.45 Q15.5 25.15 14.6 23.7 L13.7 22.05 15.8 21.25 Q18.75 20.3 22.05 20.05 M16.6 29.75 L18.75 27.85 19.95 27.2 Q21.5 26.55 21.85 28.25 21.9 28.8 22.3 29.15 23.0 29.8 24.8 29.75 L25.5 29.7 25.8 30.05 25.85 30.1 25.9 30.1 25.95 30.25 Q25.35 35.2 22.5 38.8 L21.5 39.85 20.95 40.45 Q18.45 42.75 17.1 42.4 L15.65 41.65 15.2 41.35 15.0 41.1 14.15 40.2 Q13.5 39.35 13.35 38.55 L13.4 38.4 13.65 36.6 13.7 36.45 13.7 36.4 13.75 36.25 13.75 36.15 13.8 36.0 13.8 35.95 14.05 35.0 M11.45 39.45 Q11.65 37.35 12.15 35.55 L12.3 34.9 Q12.55 33.8 12.95 32.9 M23.4 32.85 L23.4 33.35 Q23.35 35.55 21.95 37.45 20.65 39.35 18.65 39.75 16.65 40.3 15.5 39.35 14.3 38.15 14.45 36.1 14.55 33.8 15.9 31.95 17.25 30.2 19.15 29.55 L21.7 29.7 22.25 30.1 Q23.3 31.0 23.4 32.85 23.05 35.1 21.7 36.9 20.4 38.8 18.45 39.25 L17.25 39.5 M6.05 25.25 L8.75 25.25 M16.6 45.25 L17.8 45.2 19.7 44.3 22.75 41.7 23.15 41.25 24.6 39.5 Q26.3 37.25 27.4 34.6 L28.15 32.3 Q28.75 30.35 28.95 28.2 L28.75 28.0 28.35 27.5 27.3 27.6 Q23.6 27.7 23.15 25.4 22.75 23.15 20.55 24.05 18.55 25.0 17.0 26.45 M28.95 28.2 L29.85 29.7 Q30.45 30.85 30.3 32.85 M27.5 40.25 L26.75 40.1 25.65 42.25 25.65 45.3 24.35 45.85" fill="none" stroke="#000000" stroke-linecap="round" stroke-linejoin="round" stroke-opacity="0.29803923" stroke-width="1.0"/>
    </g>
    <g id="sprite1" transform="matrix(1.0, 0.0, 0.0, 1.0, 0.0, 0.0)">
      <use height="40.0" transform="matrix(1.0, 0.0, 0.0, 1.0, 0.0, 0.0)" width="53.1" xlink:href="#shape2"/>
    </g>
    <g id="shape2" transform="matrix(1.0, 0.0, 0.0, 1.0, 0.0, 0.0)">
      <path d="M4.35 10.3 L4.45 9.2 4.5 9.05 4.5 8.95 Q5.45 3.8 12.75 1.35 20.25 -1.05 29.9 0.85 39.6 2.75 45.95 7.95 48.4 10.0 49.8 12.05 51.8 15.0 51.45 18.05 L51.25 19.0 51.25 19.25 50.55 21.05 49.5 22.5 48.4 23.5 Q46.4 25.1 43.15 26.2 35.65 28.7 25.9 26.8 16.25 24.9 9.95 19.7 7.0 17.3 5.65 14.85 L4.95 13.35 4.8 13.05 4.4 11.3 4.35 11.05 4.35 10.45 4.35 10.3 M46.55 20.95 L47.75 19.3 48.4 17.25 48.5 16.05 48.05 13.7 47.35 12.25 Q46.15 10.3 43.75 8.3 38.4 3.85 30.05 2.25 21.8 0.6 15.4 2.6 12.8 3.45 11.2 4.75 9.9 5.7 9.15 6.85 8.55 7.95 8.3 9.3 L8.25 10.5 Q8.25 11.75 8.75 12.95 L9.7 14.7 Q10.85 16.55 13.0 18.25 18.35 22.75 26.65 24.4 34.95 26.0 41.35 23.95 44.75 22.8 46.55 20.95" fill="#c99e50" fill-rule="evenodd" stroke="none"/>
      <path d="M8.75 12.95 Q8.25 11.75 8.25 10.5 L8.3 9.3 Q8.55 7.95 9.15 6.85 9.9 5.7 11.2 4.75 12.8 3.45 15.4 2.6 21.8 0.6 30.05 2.25 38.4 3.85 43.75 8.3 46.15 10.3 47.35 12.25 L48.05 13.7 48.5 16.05 48.4 17.25 47.75 19.3 46.55 20.95 44.1 18.65 Q37.8 13.5 28.1 11.6 18.4 9.7 10.95 12.1 L8.75 12.95" fill="url(#gradient0)" fill-rule="evenodd" stroke="none"/>
      <path d="M51.25 19.25 L49.3 30.45 Q47.8 34.8 41.35 36.95 33.85 39.4 24.1 37.55 18.7 36.45 14.4 34.4 L10.95 32.5 8.15 30.45 Q4.3 27.35 3.15 24.1 2.6 22.75 2.6 21.4 L2.65 20.1 2.8 19.25 3.0 18.2 3.6 14.85 4.35 10.45 4.35 11.05 4.4 11.3 4.8 13.05 4.95 13.35 5.65 14.85 Q7.0 17.3 9.95 19.7 16.25 24.9 25.9 26.8 35.65 28.7 43.15 26.2 46.4 25.1 48.4 23.5 L49.5 22.5 50.55 21.05 51.25 19.25" fill="url(#gradient1)" fill-rule="evenodd" stroke="none"/>
      <path d="M4.35 10.3 L4.45 9.2 4.5 9.05 4.5 8.95 Q5.45 3.8 12.75 1.35 20.25 -1.05 29.9 0.85 39.6 2.75 45.95 7.95 48.4 10.0 49.8 12.05 51.8 15.0 51.45 18.05 L51.4 18.4 51.3 18.95 51.25 19.0 51.25 19.25 49.3 30.45 Q47.8 34.8 41.35 36.95 33.85 39.4 24.1 37.55 18.7 36.45 14.4 34.4 L10.95 32.5 8.15 30.45 Q4.3 27.35 3.15 24.1 2.6 22.75 2.6 21.4 L2.65 20.1 2.65 19.9 2.8 19.25 3.0 18.2 Q2.8 17.6 2.9 17.05 L2.9 16.9 2.9 16.8 3.05 16.3 Q3.25 15.55 3.6 14.85 L4.35 10.45 4.35 11.05 4.4 11.3 4.8 13.05 4.95 13.35 5.65 14.85 Q7.0 17.3 9.95 19.7 16.25 24.9 25.9 26.8 35.65 28.7 43.15 26.2 46.4 25.1 48.4 23.5 L49.5 22.5 50.55 21.05 51.25 19.25 M46.55 20.95 Q44.75 22.8 41.35 23.95 34.95 26.0 26.65 24.4 18.35 22.75 13.0 18.25 10.85 16.55 9.7 14.7 L8.75 12.95 10.95 12.1 Q18.4 9.7 28.1 11.6 37.8 13.5 44.1 18.65 L46.55 20.95 M51.45 18.05 L51.25 19.0 M3.0 18.2 L3.6 14.85 M2.8 19.25 L2.65 20.1" fill="none" stroke="#000000" stroke-linecap="round" stroke-linejoin="round" stroke-opacity="0.34901962" stroke-width="0.05"/>
      <path d="M40.95 37.1 Q41.1 34.4 41.65 31.2 L42.0 26.6 43.15 26.2 Q46.05 25.2 47.95 23.85 L46.8 32.35 46.55 34.25 Q44.55 35.9 41.35 36.95 L40.95 37.1" fill="#433c2e" fill-rule="evenodd" stroke="none"/>
      <path d="M26.5 1.45 L21.7 1.55 Q14.6 1.65 10.7 4.4 7.45 6.7 7.45 9.85 7.45 12.25 8.9 14.75 9.55 16.0 10.9 17.25 L11.75 19.1 Q12.0 19.7 11.6 19.95 11.85 20.5 9.6 18.35 7.4 16.2 6.45 14.35 5.5 12.5 5.3 9.65 5.15 6.75 9.4 3.65 13.65 0.45 19.8 0.35 25.95 0.25 26.6 0.5 L27.2 0.95 26.95 1.45 Q26.7 1.8 26.5 1.45" fill="#edd474" fill-rule="evenodd" stroke="none"/>
      <path d="M44.95 25.55 L48.4 23.5 49.5 22.5 50.15 21.65 50.5 23.85 50.5 24.0 51.35 29.45 52.05 28.4 52.9 26.05 52.0 31.5 51.7 32.15 Q49.65 36.3 43.1 38.45 L42.55 38.7 42.55 38.5 42.85 37.2 43.25 34.6 42.55 34.75 39.1 35.7 38.55 39.6 24.0 39.1 Q17.55 37.85 12.45 35.25 L11.1 34.55 Q8.45 33.05 6.15 31.2 L4.4 29.65 4.75 27.35 5.0 25.35 Q6.85 27.2 7.65 27.55 L7.7 27.6 11.1 29.9 12.45 30.6 Q16.4 32.65 21.15 34.0 L21.4 34.05 21.5 34.15 24.9 35.0 32.05 35.9 33.3 35.9 33.4 35.95 37.2 35.8 42.25 34.75 Q45.05 33.95 45.55 33.55 L45.75 33.5 46.05 33.4 45.8 33.45 45.75 33.4 44.95 25.55 M0.65 16.3 L0.65 16.35 0.7 16.35 0.7 16.5 0.7 16.6 0.7 17.3 Q0.8 18.55 1.25 19.9 L2.05 21.55 2.25 21.85 2.3 21.95 Q1.95 23.35 1.7 26.25 L0.65 24.15 Q0.05 22.7 0.0 21.1 L0.0 20.5 0.65 16.3" fill="url(#gradient2)" fill-rule="evenodd" stroke="none"/>
      <path d="M44.95 25.55 L45.75 33.4 44.25 31.4 44.3 31.25 44.25 31.4 45.75 33.4 45.75 33.5 45.55 33.55 45.6 33.45 44.5 33.55 41.95 34.5 41.05 34.7 41.1 34.3 41.15 33.5 Q41.2 33.15 40.2 32.6 L42.25 32.05 44.3 31.25 44.85 25.6 44.95 25.55 M52.9 26.05 L52.05 28.4 51.35 29.45 50.5 24.0 50.6 23.2 51.4 18.7 Q53.45 21.8 53.0 25.1 L52.95 26.05 52.9 26.05 M0.65 16.35 L4.2 10.3 4.35 10.15 4.2 11.05 4.2 11.15 4.15 11.4 4.15 11.45 4.1 11.6 3.5 16.25 3.5 16.35 Q3.5 17.15 3.9 18.2 L4.0 18.5 4.1 18.8 3.25 18.25 2.3 17.45 1.25 16.75 1.15 16.7 0.8 16.35 0.7 16.35 0.65 16.35 M4.35 10.1 L4.35 10.0 4.4 9.65 4.35 10.1 M3.5 16.35 L0.8 16.35 3.5 16.35" fill="#e48801" fill-rule="evenodd" stroke="none"/>
      <path d="M45.55 33.55 Q45.05 33.95 42.25 34.75 L37.2 35.8 33.4 35.95 33.3 35.9 32.05 35.9 24.9 35.0 21.5 34.15 21.4 34.05 Q21.1 33.75 22.1 33.9 L26.45 34.65 32.2 35.25 36.0 35.2 41.05 34.7 41.95 34.5 44.5 33.55 45.6 33.45 45.55 33.55 M7.7 27.6 L7.65 27.55 Q6.85 27.2 5.0 25.35 L5.0 25.3 Q3.25 23.6 2.3 21.95 L2.25 21.85 2.05 21.55 1.25 19.9 Q0.8 18.55 0.7 17.3 L0.7 16.6 0.7 16.5 0.7 16.35 0.8 16.35 1.15 16.7 1.25 16.75 1.4 18.45 Q1.8 20.6 3.95 23.15 6.05 25.6 7.65 26.85 8.4 27.8 7.7 27.6" fill="#ffea9a" fill-rule="evenodd" stroke="none"/>
      <path d="M21.4 34.05 L21.15 34.0 Q16.4 32.65 12.45 30.6 L11.1 29.9 7.7 27.6 Q8.4 27.8 7.65 26.85 6.05 25.6 3.95 23.15 1.8 20.6 1.4 18.45 L1.25 16.75 2.3 17.45 3.25 18.25 4.1 18.8 Q4.65 20.45 5.3 21.3 6.65 23.4 9.15 25.45 L11.1 27.0 12.45 27.85 Q16.35 30.25 21.3 31.7 L23.4 32.25 23.6 32.3 24.35 32.45 25.05 32.6 Q33.1 34.1 39.55 32.75 L40.2 32.6 Q41.2 33.15 41.15 33.5 L41.1 34.3 41.05 34.7 36.0 35.2 32.2 35.25 26.45 34.65 22.1 33.9 Q21.1 33.75 21.4 34.05 M0.65 16.3 Q0.6 14.55 1.8 12.1 L5.25 6.8 Q4.9 7.5 4.7 8.15 L4.65 8.45 4.5 8.95 4.5 9.05 4.45 9.2 4.4 9.65 4.35 10.0 4.35 10.1 4.35 10.15 4.2 10.3 0.65 16.35 0.65 16.3" fill="#ffcc00" fill-rule="evenodd" stroke="none"/>
      <path d="M5.0 25.35 L4.75 27.35 4.4 29.65 Q2.7 27.95 1.7 26.25 1.95 23.35 2.3 21.95 3.25 23.6 5.0 25.3 L5.0 25.35 M38.55 39.6 L39.1 35.7 42.55 34.75 43.25 34.6 42.85 37.2 42.55 38.5 42.55 38.7 39.3 39.45 38.55 39.6" fill="#5e2800" fill-rule="evenodd" stroke="none"/>
      <path d="M45.75 33.4 L45.8 33.45 46.05 33.4 45.75 33.5 45.75 33.4 M45.8 33.45 L45.75 33.5 45.8 33.45 M21.3 31.7 L24.35 32.45 23.6 32.3 23.4 32.25 21.3 31.7" fill="#9a88ba" fill-rule="evenodd" stroke="none"/>
      <path d="M45.75 33.4 L45.8 33.45 M45.75 33.5 L45.55 33.55 M4.4 29.65 L6.15 31.2 Q8.45 33.05 11.1 34.55 L12.45 35.25 Q17.55 37.85 24.0 39.1 L38.55 39.6 39.3 39.45 42.55 38.7 43.1 38.45 Q49.65 36.3 51.7 32.15 L52.0 31.5 52.9 26.05 52.05 28.4 51.35 29.45 M52.9 26.05 L52.95 26.05 53.0 25.1 Q53.45 21.8 51.4 18.7 L50.6 23.2 50.5 24.0 M50.5 23.85 L50.6 23.2 M52.95 26.05 L52.9 26.1 52.9 26.05 M44.95 25.55 L44.85 25.6 44.3 31.25 44.25 31.4 45.75 33.4 M45.75 33.5 L45.8 33.45 M44.3 31.25 L42.25 32.05 40.2 32.6 M4.4 9.65 L4.45 9.2 4.5 9.05 4.5 8.95 4.65 8.45 4.7 8.15 Q4.9 7.5 5.25 6.8 L1.8 12.1 Q0.6 14.55 0.65 16.3 L0.65 16.35 0.7 16.35 M4.2 10.3 L4.35 10.15 4.35 10.1 4.35 10.0 4.4 9.65 4.35 10.1 M4.2 11.15 L4.2 11.3 4.15 11.4 4.15 11.45 4.1 11.6 3.5 16.25 3.5 16.35 Q3.5 17.15 3.9 18.2 L4.0 18.5 4.1 18.8 Q4.65 20.45 5.3 21.3 6.65 23.4 9.15 25.45 L11.1 27.0 12.45 27.85 Q16.35 30.25 21.3 31.7 L24.35 32.45 25.05 32.6 Q33.1 34.1 39.55 32.75 L40.2 32.6 M4.15 11.4 L4.2 11.15 4.2 11.05 4.35 10.15 M0.8 16.35 L0.7 16.35 M0.8 16.35 L3.5 16.35 M0.65 16.3 L0.0 20.5 0.0 21.1 Q0.05 22.7 0.65 24.15 L1.7 26.25 Q2.7 27.95 4.4 29.65" fill="none" stroke="#000000" stroke-linecap="round" stroke-linejoin="round" stroke-opacity="0.34901962" stroke-width="0.05"/>
      <path d="M51.35 29.45 L50.5 24.0 50.5 23.85 50.15 21.65 M45.75 33.4 L45.75 33.5" fill="none" stroke="#000000" stroke-linecap="round" stroke-linejoin="round" stroke-opacity="0.3019608" stroke-width="0.05"/>
      <path d="M4.85 8.5 L4.8 10.85 Q4.8 12.85 6.55 15.35 8.25 17.9 9.8 19.1 L11.15 20.15 10.95 20.1 Q9.95 20.1 8.45 18.5 6.95 16.95 6.05 15.45 5.1 13.95 4.85 13.0 4.55 12.05 4.4 10.9 L4.45 9.5 4.65 8.7 4.85 8.4 4.85 8.5" fill="#edd474" fill-rule="evenodd" stroke="none"/>
      <path d="M42.2 26.25 L44.95 25.25 46.2 24.95 Q45.95 25.25 43.8 26.05 41.7 26.9 37.75 27.45 L31.8 27.75 27.15 27.25 Q23.65 26.75 23.65 26.15 23.65 25.85 24.0 25.85 L32.7 27.1 35.85 27.15 42.2 26.25" fill="#edd474" fill-rule="evenodd" stroke="none"/>
      <path d="M23.8 18.3 L23.85 18.35 23.75 18.3 23.8 18.3 M21.7 21.6 L21.6 21.45 21.25 21.05 20.5 21.1 Q17.65 21.2 17.35 19.5 17.0 17.7 15.35 18.4 9.35 21.2 8.4 30.4 8.55 31.25 9.2 32.15 L10.15 33.1 10.35 33.35 10.8 33.7 12.35 34.5 Q13.95 34.9 17.0 31.8 21.05 27.65 21.7 21.6 M16.0 15.05 Q18.3 14.1 18.75 16.5 19.2 18.9 23.15 18.8 L24.25 18.7 24.7 19.25 24.9 19.45 Q23.95 27.9 18.3 33.75 14.1 38.0 11.8 37.5 L9.7 36.3 9.1 35.85 8.55 35.4 8.75 35.5 7.45 34.25 Q6.55 32.95 6.3 31.8 7.65 18.95 16.0 15.05 M8.75 35.5 L9.1 35.85 8.75 35.5" fill="#ffcc00" fill-rule="evenodd" stroke="none"/>
      <path d="M15.35 18.4 Q17.0 17.7 17.35 19.5 17.65 21.2 20.5 21.1 L21.25 21.05 21.6 21.45 21.7 21.6 Q21.05 27.65 17.0 31.8 13.95 34.9 12.35 34.5 L10.8 33.7 10.35 33.35 10.15 33.1 9.2 32.15 Q8.55 31.25 8.4 30.4 9.35 21.2 15.35 18.4" fill="#73735f" fill-rule="evenodd" stroke="none"/>
      <path d="M24.9 19.45 L25.85 21.05 Q26.45 22.25 26.3 24.35 L24.95 24.1 23.7 26.2 23.75 32.3 22.55 32.05 21.4 34.3 21.4 37.55 18.4 38.6 16.75 38.7 Q14.0 38.75 11.8 37.5 14.1 38.0 18.3 33.75 23.95 27.9 24.9 19.45" fill="#e48801" fill-rule="evenodd" stroke="none"/>
      <path d="M23.75 18.3 L23.8 18.3 M21.7 21.6 Q21.05 27.65 17.0 31.8 13.95 34.9 12.35 34.5 M8.4 30.4 Q9.35 21.2 15.35 18.4 M24.9 19.45 L25.85 21.05 Q26.45 22.25 26.3 24.35 L24.95 24.1 23.7 26.2 23.75 32.3 22.55 32.05 21.4 34.3 21.4 37.55 18.4 38.6 16.75 38.7 Q14.0 38.75 11.8 37.5 14.1 38.0 18.3 33.75 23.95 27.9 24.9 19.45 M6.3 31.8 Q7.65 18.95 16.0 15.05" fill="none" stroke="#000000" stroke-linecap="round" stroke-linejoin="round" stroke-opacity="0.3019608" stroke-width="0.05"/>
      <path d="M15.35 18.4 Q17.0 17.7 17.35 19.5 17.65 21.2 20.5 21.1 L21.25 21.05 21.6 21.45 21.7 21.6 M12.35 34.5 L10.8 33.7 10.35 33.35 10.15 33.1 9.2 32.15 Q8.55 31.25 8.4 30.4 M16.0 15.05 Q18.3 14.1 18.75 16.5 19.2 18.9 23.15 18.8 L24.25 18.7 24.7 19.25 24.9 19.45 M11.8 37.5 L9.7 36.3 9.1 35.85 8.75 35.5 7.45 34.25 Q6.55 32.95 6.3 31.8" fill="none" stroke="#000000" stroke-linecap="round" stroke-linejoin="round" stroke-opacity="0.34901962" stroke-width="0.05"/>
      <path d="M17.0 21.5 Q16.95 20.65 17.8 21.25 L18.85 22.3 19.65 24.15 Q20.05 25.4 19.15 28.25 18.3 31.15 15.45 31.6 12.7 32.0 11.8 30.4 11.45 29.75 11.25 28.4 L11.25 27.75 Q11.3 27.2 11.95 27.0 12.35 26.95 13.3 27.85 L14.45 28.75 Q15.85 28.45 16.6 26.15 17.2 24.35 17.05 23.1 L17.0 21.5" fill="#5e5e4d" fill-rule="evenodd" stroke="none"/>
      <path d="M48.05 10.7 Q50.5 13.35 51.0 16.0 51.5 18.65 49.9 20.7 48.3 22.75 46.95 23.05 45.6 23.35 45.15 23.6 L44.95 23.0 47.3 21.05 Q48.95 19.35 49.25 17.15 49.5 14.8 47.95 12.45 46.35 10.0 46.0 9.0 45.6 8.05 48.05 10.7" fill="#edd474" fill-rule="evenodd" stroke="none"/>
      <path d="M35.4 13.7 Q32.4 12.5 28.95 11.8 L29.55 6.9 Q30.1 4.45 30.15 2.3 33.75 2.95 36.85 4.2 L35.9 10.15 35.4 13.7 M18.25 1.95 L21.9 1.55 21.85 1.85 21.4 6.65 21.35 7.85 21.0 10.8 17.6 10.85 18.2 3.35 18.25 1.95" fill="#514839" fill-rule="evenodd" stroke="none"/>
      <path d="M12.2 21.35 Q11.2 22.45 10.3 24.5 9.35 26.5 9.2 27.7 L8.9 30.05 8.85 31.25 8.8 31.25 8.7 31.25 8.4 30.4 Q9.35 21.2 15.35 18.4 17.0 17.7 17.35 19.5 17.45 20.05 17.85 20.45 L17.2 19.75 16.15 18.75 Q15.7 18.65 14.5 19.5 L12.2 21.35" fill="#5e5e4d" fill-rule="evenodd" stroke="none"/>
      <path d="M14.0 31.65 Q11.85 32.25 10.65 31.25 9.4 30.0 9.55 27.8 9.65 25.4 11.1 23.4 12.5 21.55 14.5 20.9 16.6 20.35 17.8 21.45 19.05 22.55 19.0 24.9 18.95 27.25 17.5 29.25 16.1 31.25 14.0 31.65" fill="#821728" fill-rule="evenodd" stroke="none"/>
      <path d="M14.0 31.65 Q11.85 32.25 10.65 31.25 9.4 30.0 9.55 27.8 9.65 25.4 11.1 23.4 12.5 21.55 14.5 20.9 16.6 20.35 17.8 21.45 19.05 22.55 19.0 24.9 18.95 27.25 17.5 29.25 16.1 31.25 14.0 31.65 Z" fill="none" stroke="#000000" stroke-linecap="round" stroke-linejoin="round" stroke-opacity="0.3019608" stroke-width="0.05"/>
      <path d="M18.75 24.25 L18.75 24.35 Q18.65 26.75 17.2 28.65 15.85 30.65 13.8 31.15 L12.5 31.4 11.85 31.3 11.35 30.6 Q10.75 29.45 10.75 28.65 10.7 24.8 15.3 23.4 L18.45 23.55 18.7 23.75 18.75 24.25" fill="#c2233d" fill-rule="evenodd" stroke="none"/>
      <path d="M12.5 31.4 L13.8 31.15 Q15.85 30.65 17.2 28.65 18.65 26.75 18.75 24.35 L18.75 24.25" fill="none" stroke="#000000" stroke-linecap="round" stroke-linejoin="round" stroke-opacity="0.3019608" stroke-width="0.05"/>
      <path d="M16.65 26.05 Q17.25 26.9 15.8 28.7 14.35 30.45 12.55 30.3 10.75 30.1 11.65 27.7 12.4 25.3 14.25 25.25 16.0 25.2 16.65 26.05" fill="#fc4e4e" fill-rule="evenodd" stroke="none"/>
      <path d="M15.35 23.8 Q14.15 25.05 13.45 25.05 12.3 25.05 12.15 23.8 12.15 22.15 14.35 21.15 16.5 20.15 16.55 22.1 16.55 22.65 15.35 23.8" fill="#ffffff" fill-rule="evenodd" stroke="none"/>
      <path d="M10.95 33.7 L12.2 34.3 Q13.8 34.7 16.85 31.6 20.9 27.45 21.55 21.4 L21.7 21.75 21.7 22.9 20.95 25.8 Q20.25 27.95 18.95 29.9 17.65 31.85 15.55 33.45 13.45 35.1 12.6 34.75 L10.95 33.7" fill="#5e5e4d" fill-rule="evenodd" stroke="none"/>
      <path d="M18.7 32.95 Q14.85 37.55 13.25 37.45 L11.5 37.2 Q11.35 37.05 11.65 37.0 L12.85 37.05 Q13.75 37.15 15.85 35.25 L19.25 31.7 21.55 28.7 22.95 26.1 22.75 26.8 Q22.5 28.4 18.7 32.95" fill="#ffea9a" fill-rule="evenodd" stroke="none"/>
    </g>
    <linearGradient gradientTransform="matrix(0.0203, 0.0073, -0.0029, 0.0106, 25.75, 9.9)" gradientUnits="userSpaceOnUse" id="gradient0" spreadMethod="pad" x1="-819.2" x2="819.2">
      <stop offset="0.3254901960784314" stop-color="#312a20"/>
      <stop offset="1.0" stop-color="#6b604d"/>
    </linearGradient>
    <linearGradient gradientTransform="matrix(0.0219, -3.0E-4, 0.0, 0.0173, 34.85, 23.75)" gradientUnits="userSpaceOnUse" id="gradient1" spreadMethod="pad" x1="-819.2" x2="819.2">
      <stop offset="0.40784313725490196" stop-color="#796d59"/>
      <stop offset="1.0" stop-color="#3c3322"/>
    </linearGradient>
    <linearGradient gradientTransform="matrix(-0.0168, 0.0017, -9.0E-4, -0.0145, 39.7, 35.45)" gradientUnits="userSpaceOnUse" id="gradient2" spreadMethod="pad" x1="-819.2" x2="819.2">
      <stop offset="0.42745098039215684" stop-color="#a24500"/>
      <stop offset="1.0" stop-color="#e48801"/>
    </linearGradient>
    <g id="sprite2" transform="matrix(1.0, 0.0, 0.0, 1.0, 0.5, 0.5)">
      <clipPath id="clipPath0" transform="matrix(1.0, 0.0, 0.0, 1.0, 0.5, 0.5)">
        <use height="40.5" transform="matrix(1.0, 0.0, 0.0, 1.0, -0.25, -0.25)" width="53.6" xlink:href="#shape3"/>
      </clipPath>
      <g clip-path="url(#clipPath0)">
        <use height="41.0" transform="matrix(1.0, 0.0, 0.0, 1.0, -0.5, -0.5)" width="54.1" xlink:href="#sprite3"/>
      </g>
    </g>
    <g id="shape3" transform="matrix(1.0, 0.0, 0.0, 1.0, 0.25, 0.25)">
      <path d="M51.6 19.05 L51.55 19.4 Q53.15 22.15 52.75 25.1 L52.7 25.9 52.65 26.0 51.75 31.45 Q51.55 31.7 51.45 32.1 L51.5 32.05 Q49.45 36.1 43.05 38.25 L43.0 38.25 42.5 38.45 39.25 39.2 38.5 39.35 24.05 38.85 20.1 37.9 19.9 37.95 18.35 38.35 16.75 38.45 Q14.05 38.5 11.95 37.3 L11.9 37.3 9.85 36.1 9.25 35.65 9.0 35.45 8.9 35.35 8.9 35.3 7.65 34.1 Q6.8 32.85 6.55 31.75 L6.6 31.4 6.6 31.25 6.45 31.15 6.35 31.05 4.6 29.5 Q2.9 27.8 1.95 26.15 L1.9 26.15 Q1.25 25.15 0.9 24.1 L0.9 24.05 Q0.3 22.65 0.25 21.1 L0.25 20.55 0.25 20.5 0.9 16.35 0.9 16.3 Q0.85 14.6 2.05 12.2 L2.0 12.25 5.4 7.1 5.45 7.05 Q7.15 3.5 12.85 1.6 20.25 -0.8 29.85 1.1 39.5 3.0 45.8 8.15 48.2 10.2 49.6 12.2 51.55 15.05 51.2 18.0 L51.2 18.05 51.0 18.95 51.0 19.2 50.25 23.65 50.25 24.0 50.35 24.2 50.5 24.25 50.65 24.2 50.75 24.05 50.75 23.75 51.5 19.35 51.5 19.05 51.55 18.9 51.6 19.05 M41.45 24.2 Q44.9 23.0 46.75 21.15 L46.8 20.95 46.75 20.8 44.25 18.45 Q40.5 15.4 35.5 13.5 32.5 12.25 29.0 11.55 L28.15 11.35 21.05 10.55 20.15 10.5 19.85 10.5 17.6 10.6 Q14.05 10.85 10.9 11.85 L10.9 11.9 Q9.65 12.25 8.65 12.75 L8.55 12.85 8.55 13.05 9.5 14.85 Q10.45 16.35 12.1 17.8 L12.25 17.85 12.45 17.8 Q14.05 16.25 16.1 15.3 L17.75 15.15 Q18.3 15.5 18.5 16.55 18.95 19.15 23.15 19.05 L23.25 19.05 24.1 18.9 24.5 19.4 24.6 19.5 24.7 19.6 25.65 21.2 25.65 21.15 Q26.2 22.3 26.05 24.35 L26.1 24.5 26.2 24.6 26.3 24.6 26.6 24.65 Q34.95 26.25 41.45 24.2 M3.9 11.45 L3.85 11.55 3.7 12.8 3.75 13.0 3.9 13.1 4.1 13.05 4.2 12.9 4.35 11.65 4.3 11.8 4.35 11.65 4.4 11.45 4.4 11.4 4.45 11.25 4.45 11.15 4.45 11.1 4.6 10.2 4.6 10.15 4.55 10.0 4.4 9.9 4.2 9.95 4.1 10.1 3.95 11.0 3.95 11.15 3.95 11.3 3.9 11.4 3.9 11.45 3.95 11.4 4.0 11.3 3.95 11.45 3.9 11.45" fill="#33cc99" fill-rule="evenodd" stroke="none"/>
      <path d="M29.95 0.6 Q39.7 2.5 46.1 7.75 48.6 9.8 50.0 11.9 52.05 14.95 51.7 18.1 L51.6 18.55 Q53.7 21.75 53.25 25.15 L53.2 26.1 53.15 26.25 52.25 31.55 52.2 31.65 51.95 32.25 Q49.85 36.5 43.2 38.7 42.9 38.85 42.65 38.95 L42.6 38.95 39.35 39.7 38.6 39.85 23.95 39.35 20.0 38.45 18.45 38.85 16.75 38.95 Q13.95 39.0 11.7 37.75 L9.55 36.5 8.95 36.05 8.4 35.6 8.3 35.45 7.25 34.4 Q6.3 33.05 6.05 31.85 L6.05 31.8 6.1 31.45 6.0 31.4 4.25 29.85 Q2.5 28.1 1.5 26.4 L0.45 24.25 Q-0.2 22.75 -0.25 21.1 L-0.25 20.5 0.4 16.3 Q0.35 14.5 1.6 12.0 L5.0 6.85 Q6.75 3.1 12.7 1.15 L12.7 1.1 Q20.25 -1.3 29.95 0.6 M51.55 18.9 L51.5 19.05 51.5 19.35 50.75 23.75 50.75 24.05 50.65 24.2 50.5 24.25 50.35 24.2 50.25 24.0 50.25 23.65 51.0 19.2 51.0 18.95 51.2 18.05 51.2 18.0 Q51.55 15.05 49.6 12.2 48.2 10.2 45.8 8.15 39.5 3.0 29.85 1.1 20.25 -0.8 12.85 1.6 7.15 3.5 5.45 7.05 L5.4 7.1 2.0 12.25 2.05 12.2 Q0.85 14.6 0.9 16.3 L0.9 16.35 0.25 20.5 0.25 20.55 0.25 21.1 Q0.3 22.65 0.9 24.05 L0.9 24.1 Q1.25 25.15 1.9 26.15 L1.95 26.15 Q2.9 27.8 4.6 29.5 L6.35 31.05 6.45 31.15 6.6 31.25 6.6 31.4 6.55 31.75 Q6.8 32.85 7.65 34.1 L8.9 35.3 8.9 35.35 9.0 35.45 9.25 35.65 9.85 36.1 11.9 37.3 11.95 37.3 Q14.05 38.5 16.75 38.45 L18.35 38.35 19.9 37.95 20.1 37.9 24.05 38.85 38.5 39.35 39.25 39.2 42.5 38.45 43.0 38.25 43.05 38.25 Q49.45 36.1 51.5 32.05 L51.45 32.1 Q51.55 31.7 51.75 31.45 L52.65 26.0 52.7 25.9 52.75 25.1 Q53.15 22.15 51.55 19.4 L51.6 19.05 51.65 18.75 51.55 18.8 51.55 18.9 M41.3 23.7 L41.3 23.75 Q44.45 22.65 46.2 20.95 L43.95 18.85 Q40.2 15.8 35.3 13.95 32.3 12.75 28.9 12.05 L28.05 11.85 21.0 11.05 20.15 11.0 19.85 11.0 17.65 11.1 Q14.15 11.35 11.05 12.35 L9.1 13.1 9.9 14.55 9.9 14.6 12.25 17.25 Q13.9 15.8 15.9 14.85 L17.95 14.75 Q18.75 15.1 19.0 16.45 19.45 18.6 23.1 18.55 24.25 18.25 24.45 18.55 L24.9 19.1 25.1 19.3 26.1 20.95 Q26.65 22.1 26.6 24.15 L26.75 24.2 26.7 24.15 Q34.95 25.75 41.3 23.7 M3.9 11.45 L3.95 11.45 4.0 11.3 3.95 11.4 3.9 11.45 3.9 11.4 3.95 11.3 3.95 11.15 3.95 11.0 4.1 10.1 4.2 9.95 4.4 9.9 4.55 10.0 4.6 10.15 4.6 10.2 4.45 11.1 4.45 11.15 4.45 11.25 4.4 11.4 4.4 11.45 4.35 11.65 4.3 11.8 4.35 11.65 4.2 12.9 4.1 13.05 3.9 13.1 3.75 13.0 3.7 12.8 3.85 11.55 3.9 11.45 M41.45 24.2 Q34.95 26.25 26.6 24.65 L26.3 24.6 26.2 24.6 26.1 24.5 26.05 24.35 Q26.2 22.3 25.65 21.15 L25.65 21.2 24.7 19.6 24.6 19.5 24.5 19.4 24.1 18.9 23.25 19.05 23.15 19.05 Q18.95 19.15 18.5 16.55 18.3 15.5 17.75 15.15 L16.1 15.3 Q14.05 16.25 12.45 17.8 L12.25 17.85 12.1 17.8 Q10.45 16.35 9.5 14.85 L8.55 13.05 8.55 12.85 8.65 12.75 Q9.65 12.25 10.9 11.9 L10.9 11.85 Q14.05 10.85 17.6 10.6 L19.85 10.5 20.15 10.5 21.05 10.55 28.15 11.35 29.0 11.55 Q32.5 12.25 35.5 13.5 40.5 15.4 44.25 18.45 L46.75 20.8 46.8 20.95 46.75 21.15 Q44.9 23.0 41.45 24.2" fill="#ffee74" fill-rule="evenodd" stroke="none"/>
    </g>
    <g id="sprite3" transform="matrix(1.0, 0.0, 0.0, 1.0, 0.5, 0.5)">
      <use height="41.0" transform="matrix(1.0, 0.0, 0.0, 1.0, -0.5, -0.5)" width="54.1" xlink:href="#shape4"/>
    </g>
    <g id="shape4" transform="matrix(1.0, 0.0, 0.0, 1.0, 0.5, 0.5)">
      <path d="M23.8 18.3 L23.85 18.35 23.75 18.3 23.8 18.3" fill="#33cc99" fill-rule="evenodd" stroke="none"/>
      <path d="M51.35 18.7 Q53.45 21.8 53.0 25.1 L52.95 26.05 52.9 26.05 52.0 31.5 51.7 32.15 Q49.65 36.3 43.1 38.45 L42.55 38.7 39.3 39.45 38.55 39.6 24.0 39.1 20.0 38.15 18.4 38.6 16.75 38.7 Q14.0 38.75 11.8 37.5 L9.7 36.3 9.1 35.85 8.55 35.4 8.75 35.5 7.45 34.25 Q6.55 32.95 6.3 31.8 L6.35 31.35 6.15 31.2 4.4 29.65 Q2.7 27.95 1.7 26.25 L0.65 24.15 Q0.05 22.7 0.0 21.1 L0.0 20.5 0.65 16.3 Q0.6 14.55 1.8 12.1 L5.2 6.95 Q6.95 3.3 12.75 1.35 20.25 -1.05 29.9 0.85 39.6 2.75 45.95 7.95 48.4 10.0 49.8 12.05 51.8 15.0 51.45 18.05 L51.35 18.7 51.25 19.0 51.25 19.25 M46.55 20.95 Q44.75 22.8 41.35 23.95 34.95 26.0 26.65 24.4 L26.3 24.35 Q26.45 22.25 25.85 21.05 L24.9 19.45 24.7 19.25 24.25 18.7 23.15 18.8 Q19.2 18.9 18.75 16.5 18.3 14.1 16.0 15.05 13.9 16.05 12.25 17.6 10.65 16.2 9.7 14.7 L8.75 12.95 10.95 12.1 Q14.1 11.1 17.6 10.85 L19.85 10.75 20.15 10.75 21.0 10.8 28.1 11.6 28.95 11.8 Q32.4 12.5 35.4 13.7 40.35 15.6 44.1 18.65 L46.55 20.95" fill="none" stroke="#ffee74" stroke-linecap="round" stroke-linejoin="round" stroke-width="1.0"/>
    </g>
    <g id="shape5" transform="matrix(1.0, 0.0, 0.0, 1.0, -14.95, -24.25)">
      <path d="M18.6 29.15 L26.25 27.35 18.85 30.0 19.8 33.3 18.4 30.35 16.05 30.4 17.9 29.4 16.3 24.25 18.6 29.15" fill="#fcf3d8" fill-opacity="0.7921569" fill-rule="evenodd" stroke="none"/>
      <path d="M17.25 29.45 Q17.15 29.95 17.35 30.3 17.55 30.75 17.9 30.9 L18.65 30.75 19.25 30.15 19.15 29.2 18.55 28.6 17.75 28.75 17.25 29.45 M20.35 29.8 Q20.65 30.5 22.05 31.0 L20.0 31.15 19.25 32.0 17.65 32.1 Q16.85 31.85 16.5 31.05 L14.95 31.6 16.3 30.4 16.3 29.25 16.85 28.25 16.7 27.35 17.45 27.85 17.5 27.8 18.95 27.65 Q19.7 27.95 20.15 28.75 L20.35 29.8" fill="#fcf3d8" fill-opacity="0.3019608" fill-rule="evenodd" stroke="none"/>
      <path d="M17.25 29.45 L17.75 28.75 18.55 28.6 19.15 29.2 19.25 30.15 18.65 30.75 17.9 30.9 Q17.55 30.75 17.35 30.3 17.15 29.95 17.25 29.45" fill="#fcf3d8" fill-opacity="0.84313726" fill-rule="evenodd" stroke="none"/>
    </g>
    <g id="sprite4" transform="matrix(1.0, 0.0, 0.0, 1.0, 0.0, 0.0)">
      <use height="32.2" transform="matrix(1.0, 0.0, 0.0, 1.0, 0.0, 0.0)" width="32.2" xlink:href="#shape6"/>
    </g>
    <g id="shape6" transform="matrix(1.0, 0.0, 0.0, 1.0, 0.0, 0.0)">
      <path d="M32.2 16.1 Q32.2 22.75 27.45 27.45 22.75 32.2 16.1 32.2 9.45 32.2 4.7 27.45 0.0 22.75 0.0 16.1 0.0 9.45 4.7 4.7 9.45 0.0 16.1 0.0 22.75 0.0 27.45 4.7 32.2 9.45 32.2 16.1" fill="url(#gradient3)" fill-rule="evenodd" stroke="none"/>
    </g>
    <radialGradient cx="0" cy="0" gradientTransform="matrix(0.02, 0.0, 0.0, 0.02, 16.1, 16.1)" gradientUnits="userSpaceOnUse" id="gradient3" r="819.2" spreadMethod="pad">
      <stop offset="0.0" stop-color="#fbf1bf"/>
      <stop offset="0.5686274509803921" stop-color="#fbf1bf" stop-opacity="0.96862745"/>
      <stop offset="1.0" stop-color="#faf0be" stop-opacity="0.0"/>
    </radialGradient>
  </defs>
</svg>
