<?xml version="1.0" encoding="UTF-8" standalone="no"?>
<svg xmlns:xlink="http://www.w3.org/1999/xlink" height="440.0px" width="440.0px" xmlns="http://www.w3.org/2000/svg">
  <g transform="matrix(10.0, 0.0, 0.0, 10.0, 0.0, 0.0)">
    <use height="44.0" transform="matrix(1.0, 0.0, 0.0, 1.0, 0.0, 0.0)" width="44.0" xlink:href="#shape0"/>
  </g>
  <defs>
    <g id="shape0" transform="matrix(1.0, 0.0, 0.0, 1.0, 0.0, 0.0)">
      <path d="M44.0 44.0 L0.0 44.0 0.0 0.0 44.0 0.0 44.0 44.0" fill="#43adca" fill-opacity="0.0" fill-rule="evenodd" stroke="none"/>
      <path d="M31.9 16.2 L32.05 12.95 Q32.05 11.1 31.45 9.4 L31.45 9.25 30.45 7.4 Q30.25 6.95 30.35 6.55 30.45 6.1 30.85 5.85 L31.65 5.75 32.3 6.25 33.2 7.9 33.45 7.85 33.55 7.85 Q35.95 7.65 37.0 11.95 36.3 11.25 35.75 11.25 35.25 11.25 35.0 11.8 L34.8 12.2 Q34.45 10.65 33.95 10.25 L34.2 12.95 Q34.2 16.05 33.75 18.55 33.45 16.05 32.2 16.05 32.05 16.05 31.9 16.2 M37.7 23.2 L37.7 23.85 Q37.7 29.5 38.9 31.85 40.3 34.6 40.15 35.95 L40.15 36.0 Q39.95 37.55 38.7 38.45 37.4 39.45 35.65 39.45 33.35 39.5 30.7 37.7 L29.05 36.3 29.25 36.3 Q30.3 36.3 30.3 35.0 L30.25 34.35 31.9 35.9 Q33.9 37.2 35.65 37.25 36.6 37.25 37.4 36.75 L38.0 35.7 37.75 34.65 37.85 34.65 Q38.15 34.65 38.3 33.15 L37.9 29.35 Q37.5 26.0 37.55 24.3 L37.7 23.2" fill="#733d10" fill-rule="evenodd" stroke="none"/>
      <path d="M31.9 16.2 Q32.05 16.05 32.2 16.05 33.45 16.05 33.75 18.55 33.1 21.8 31.6 24.05 29.3 27.5 29.3 31.4 29.3 33.05 30.25 34.35 L30.3 35.0 Q30.3 36.3 29.25 36.3 L29.05 36.3 Q27.15 34.25 27.15 31.4 27.15 26.8 29.8 22.85 31.25 20.55 31.75 17.15 L31.9 16.2 M34.8 12.2 L35.0 11.8 Q35.25 11.25 35.75 11.25 36.3 11.25 37.0 11.95 L37.5 15.65 37.7 23.2 37.55 24.3 Q37.5 26.0 37.9 29.35 L38.3 33.15 Q38.15 34.65 37.85 34.65 L37.75 34.65 37.0 32.85 36.6 32.1 Q35.55 29.45 35.55 23.85 L35.3 15.85 35.0 12.95 34.8 12.2" fill="#a16925" fill-rule="evenodd" stroke="none"/>
      <path d="M37.0 11.95 Q35.95 7.65 33.55 7.85 L33.45 7.85 33.2 7.9 32.3 6.25 31.65 5.75 30.85 5.85 Q30.45 6.1 30.35 6.55 30.25 6.95 30.45 7.4 L31.45 9.25 31.45 9.4 Q32.05 11.1 32.05 12.95 L31.9 16.2 M33.75 18.55 Q34.2 16.05 34.2 12.95 L33.95 10.25 Q34.45 10.65 34.8 12.2 M37.0 11.95 L37.5 15.65 37.7 23.2 37.7 23.85 Q37.7 29.5 38.9 31.85 40.3 34.6 40.15 35.95 L40.15 36.0 Q39.95 37.55 38.7 38.45 37.4 39.45 35.65 39.45 33.35 39.5 30.7 37.7 L29.05 36.3 Q27.15 34.25 27.15 31.4 27.15 26.8 29.8 22.85 31.25 20.55 31.75 17.15 L31.9 16.2 M35.0 12.95 L35.3 15.85 35.55 23.85 Q35.55 29.45 36.6 32.1 M30.25 34.35 Q29.3 33.05 29.3 31.4 29.3 27.5 31.6 24.05 33.1 21.8 33.75 18.55 M37.75 34.65 L38.0 35.7 37.4 36.75 Q36.6 37.25 35.65 37.25 33.9 37.2 31.9 35.9 L30.25 34.35" fill="none" stroke="#000000" stroke-linecap="round" stroke-linejoin="round" stroke-opacity="0.3019608" stroke-width="0.05"/>
      <path d="M36.45 38.9 Q33.9 39.4 33.7 37.55 36.05 38.35 38.1 36.9 38.9 38.4 36.45 38.9" fill="#a16925" fill-rule="evenodd" stroke="none"/>
      <path d="M35.7 10.65 L35.65 10.7 Q34.8 10.35 34.6 9.35 L34.75 9.15 34.95 9.1 Q36.15 9.65 35.7 10.65" fill="#a16925" fill-rule="evenodd" stroke="none"/>
      <path d="M31.25 24.85 Q30.8 24.3 29.25 23.85" fill="none" stroke="#000000" stroke-linecap="round" stroke-linejoin="round" stroke-opacity="0.101960786" stroke-width="0.30000000000000004"/>
      <path d="M37.6 20.3 Q36.9 19.6 36.4 19.6 35.8 19.6 35.4 20.0" fill="none" stroke="#000000" stroke-linecap="round" stroke-linejoin="round" stroke-opacity="0.101960786" stroke-width="0.30000000000000004"/>
      <path d="M38.05 29.0 Q37.55 28.75 36.85 29.0 36.15 29.25 35.85 29.8" fill="none" stroke="#000000" stroke-linecap="round" stroke-linejoin="round" stroke-opacity="0.101960786" stroke-width="0.30000000000000004"/>
      <path d="M37.85 27.95 Q37.45 27.6 36.95 27.6 L36.35 27.65 35.9 28.15" fill="none" stroke="#000000" stroke-linecap="round" stroke-linejoin="round" stroke-opacity="0.101960786" stroke-width="0.30000000000000004"/>
      <path d="M29.45 30.85 Q29.0 31.4 28.15 31.4 L27.55 31.35 27.3 31.1" fill="none" stroke="#000000" stroke-linecap="round" stroke-linejoin="round" stroke-opacity="0.101960786" stroke-width="0.30000000000000004"/>
      <path d="M29.5 32.0 L29.05 32.35 28.4 32.45 Q27.7 32.45 27.35 32.15" fill="none" stroke="#000000" stroke-linecap="round" stroke-linejoin="round" stroke-opacity="0.101960786" stroke-width="0.30000000000000004"/>
      <path d="M32.85 38.5 Q32.25 38.4 32.25 37.75 L32.3 36.95" fill="none" stroke="#000000" stroke-linecap="round" stroke-linejoin="round" stroke-opacity="0.101960786" stroke-width="0.30000000000000004"/>
      <path d="M33.9 39.25 L33.35 38.6 33.7 37.85 34.05 37.35" fill="none" stroke="#000000" stroke-linecap="round" stroke-linejoin="round" stroke-opacity="0.101960786" stroke-width="0.30000000000000004"/>
      <path d="M31.7 23.85 Q30.4 22.9 29.8 23.05" fill="none" stroke="#000000" stroke-linecap="round" stroke-linejoin="round" stroke-opacity="0.101960786" stroke-width="0.30000000000000004"/>
      <path d="M33.3 20.6 L32.75 20.2 Q32.25 19.85 31.75 19.85 L31.4 19.9" fill="none" stroke="#000000" stroke-linecap="round" stroke-linejoin="round" stroke-opacity="0.101960786" stroke-width="0.30000000000000004"/>
      <path d="M33.35 19.4 L32.8 18.9 Q32.3 18.55 32.1 18.55 L31.45 18.7" fill="none" stroke="#000000" stroke-linecap="round" stroke-linejoin="round" stroke-opacity="0.101960786" stroke-width="0.30000000000000004"/>
      <path d="M37.45 14.95 Q36.7 14.1 36.15 14.1 L35.65 14.2" fill="none" stroke="#000000" stroke-linecap="round" stroke-linejoin="round" stroke-opacity="0.101960786" stroke-width="0.30000000000000004"/>
      <path d="M37.3 14.05 Q36.9 13.2 36.0 13.2 L35.4 13.4" fill="none" stroke="#000000" stroke-linecap="round" stroke-linejoin="round" stroke-opacity="0.101960786" stroke-width="0.30000000000000004"/>
      <path d="M32.3 3.25 L32.95 3.1 32.95 2.95 33.0 4.85 32.6 6.6 32.35 6.75 31.8 6.75 31.65 6.6 31.4 6.6 31.25 6.45 31.0 4.9 31.0 4.85 32.1 4.7 32.3 3.25" fill="#1f0e00" fill-rule="evenodd" stroke="none"/>
      <path d="M32.3 3.25 L32.1 4.7 31.0 4.85 30.7 3.0 31.05 3.15 32.3 3.25" fill="#733f10" fill-rule="evenodd" stroke="none"/>
      <path d="M32.95 2.95 L32.95 3.1 32.3 3.25 31.05 3.15 30.7 3.0 Q31.0 2.45 31.55 2.25 32.7 1.9 32.95 2.95" fill="#a16925" fill-rule="evenodd" stroke="none"/>
      <path d="M31.65 6.6 L31.8 6.75" fill="none" stroke="#000000" stroke-linecap="round" stroke-linejoin="round" stroke-opacity="0.3019608" stroke-width="0.5"/>
      <path d="M32.95 2.95 L32.95 3.1 32.3 3.25 M31.0 4.9 L31.25 6.45 M32.35 6.75 L32.6 6.6 33.0 4.85 32.95 2.95 Q32.7 1.9 31.55 2.25 31.0 2.45 30.7 3.0 M31.0 4.85 L30.7 3.0" fill="none" stroke="#000000" stroke-linecap="round" stroke-linejoin="round" stroke-opacity="0.3019608" stroke-width="0.05"/>
      <path d="M31.85 4.0 L31.45 3.45 M31.7 5.95 L31.25 5.45 M32.7 6.5 L32.2 6.25 M32.85 4.7 L32.35 4.45" fill="none" stroke="#000000" stroke-linecap="round" stroke-linejoin="round" stroke-opacity="0.101960786" stroke-width="0.30000000000000004"/>
      <path d="M36.15 4.8 L36.85 5.2 37.1 5.3 34.7 6.7 32.35 7.9 32.1 7.65 31.95 7.3 31.8 7.0 31.75 6.75 31.8 6.15 34.35 5.8 36.15 4.8" fill="#1f0e00" fill-rule="evenodd" stroke="none"/>
      <path d="M35.6 2.8 L35.55 2.9 35.55 3.25 Q35.6 4.2 36.15 4.8 L34.35 5.8 31.8 6.15 33.4 4.65 Q34.45 3.65 35.6 2.8" fill="#733f10" fill-rule="evenodd" stroke="none"/>
      <path d="M37.1 5.3 L36.85 5.2 36.15 4.8 Q35.6 4.2 35.55 3.25 L35.55 2.9 35.6 2.8 Q36.4 2.7 36.9 3.15 38.1 4.15 37.1 5.3" fill="#a16925" fill-rule="evenodd" stroke="none"/>
      <path d="M31.75 6.75 L31.8 7.0" fill="none" stroke="#000000" stroke-linecap="round" stroke-linejoin="round" stroke-opacity="0.3019608" stroke-width="0.5"/>
      <path d="M36.15 4.8 L36.85 5.2 37.1 5.3 Q38.1 4.15 36.9 3.15 36.4 2.7 35.6 2.8 L35.55 2.9 M32.1 7.65 L32.35 7.9 34.7 6.7 37.1 5.3 M31.8 6.15 L33.4 4.65 Q34.45 3.65 35.6 2.8" fill="none" stroke="#000000" stroke-linecap="round" stroke-linejoin="round" stroke-opacity="0.3019608" stroke-width="0.05"/>
      <path d="M32.6 6.3 L33.0 5.35 M32.6 7.8 L32.55 7.0 M35.1 4.85 L35.45 3.95 M34.8 6.5 L34.8 5.75" fill="none" stroke="#000000" stroke-linecap="round" stroke-linejoin="round" stroke-opacity="0.101960786" stroke-width="0.30000000000000004"/>
      <path d="M32.35 8.0 L32.45 8.0 33.35 9.05 Q34.3 10.15 34.05 11.25 L33.6 12.55 32.6 11.3 32.85 10.25 Q33.15 8.8 32.35 8.0 M30.45 15.35 L30.1 15.55 30.0 15.6 28.7 16.4 27.75 17.1 25.2 19.35 25.1 19.5 23.75 20.8 22.8 22.0 22.3 22.65 22.2 22.75 22.2 22.8 22.1 22.85 22.05 22.95 21.45 23.85 Q20.9 24.7 20.65 25.5 L19.2 25.15 19.85 24.1 20.0 23.85 20.15 23.65 Q20.9 22.5 21.75 21.5 L24.8 18.05 Q25.25 17.55 25.75 17.2 L27.45 15.65 27.6 15.55 29.25 14.3 30.45 15.35 M20.4 30.05 L20.2 30.7 19.7 31.6 Q18.7 33.3 17.15 34.7 L16.7 35.1 14.4 36.75 14.25 36.8 Q12.55 37.35 12.9 36.3 L13.0 36.0 13.2 35.85 14.6 34.7 15.0 34.3 17.1 31.7 17.55 30.85 17.7 30.7 18.5 28.95 18.55 28.9 19.2 28.25 Q19.9 27.75 20.25 28.55 L20.4 30.05" fill="#566166" fill-rule="evenodd" stroke="none"/>
      <path d="M31.5 9.5 Q31.5 8.8 30.9 8.75 L30.75 8.75 Q30.35 8.75 29.85 9.05 L29.55 9.2 28.25 10.65 Q27.8 11.55 27.8 12.2 27.9 12.9 28.45 12.95 L28.85 12.95 29.45 12.75 29.8 12.5 31.05 11.05 31.5 9.7 31.55 9.55 31.5 9.5 M31.8 7.55 L32.2 7.85 32.35 8.0 Q33.15 8.8 32.85 10.25 L32.6 11.3 31.95 12.4 31.5 12.9 31.15 13.2 31.1 13.25 Q30.25 14.1 29.25 14.3 L27.6 15.55 27.45 15.65 25.75 17.2 Q25.25 17.55 24.8 18.05 L21.75 21.5 Q20.9 22.5 20.15 23.65 L20.0 23.85 19.85 24.1 19.2 25.15 19.15 25.15 19.2 25.15 19.15 25.2 19.15 25.15 19.1 24.6 18.9 24.25 Q17.8 23.1 17.8 25.45 L17.8 27.3 17.6 29.1 16.7 30.95 15.5 32.75 11.85 36.4 11.9 36.7 11.95 36.7 Q9.7 38.1 8.0 37.85 7.45 37.8 7.05 37.55 5.8 36.95 5.65 35.05 L5.65 34.7 Q5.6 32.95 6.55 30.95 L6.75 30.75 5.95 32.6 6.25 33.2 Q7.5 30.7 9.9 27.8 10.9 26.5 12.9 24.9 15.6 22.75 17.2 22.75 L17.75 22.55 Q19.5 21.5 25.25 14.8 L26.6 12.65 27.45 10.6 Q27.85 9.4 29.25 8.65 L31.8 7.55 M22.2 22.8 L22.05 22.95 22.1 22.85 22.2 22.8 M17.75 22.55 L18.35 23.0 18.95 23.85 19.1 24.6 18.95 23.85 18.35 23.0 17.75 22.55 M17.1 31.7 L15.0 34.3 16.55 32.45 17.1 31.7" fill="#9daaae" fill-rule="evenodd" stroke="none"/>
      <path d="M28.85 12.95 L28.45 12.95 Q27.9 12.9 27.8 12.2 27.8 11.55 28.25 10.65 L29.55 9.2 29.85 9.05 Q30.35 8.75 30.75 8.75 L30.9 8.75 Q31.5 8.8 31.5 9.5 L31.55 9.55 30.9 9.8 30.55 9.95 29.25 11.4 Q28.85 12.3 28.85 12.95 M33.6 12.55 L33.25 13.2 32.7 13.95 32.55 14.1 31.55 14.9 30.45 15.35 29.25 14.3 Q30.25 14.1 31.1 13.25 L31.15 13.2 31.5 12.9 31.95 12.4 32.6 11.3 33.6 12.55 M20.65 25.5 L20.85 26.15 20.95 27.55 20.8 28.75 20.6 29.4 20.4 30.05 20.25 28.55 Q19.9 27.75 19.2 28.25 L18.55 28.9 18.75 28.15 18.95 27.55 Q19.25 26.3 19.15 25.2 L19.2 25.15 20.65 25.5 M14.25 36.8 L12.05 37.7 10.4 38.05 8.05 37.95 8.0 37.85 Q9.7 38.1 11.95 36.7 L12.0 36.7 12.05 36.65 12.6 36.3 12.9 36.1 13.0 36.0 12.9 36.3 Q12.55 37.35 14.25 36.8" fill="#495257" fill-rule="evenodd" stroke="none"/>
      <path d="M8.05 37.95 L8.0 38.0 8.0 37.85 8.05 37.95" fill="#747474" fill-rule="evenodd" stroke="none"/>
      <path d="M16.6 22.35 L18.0 21.25 20.0 19.55 23.15 16.2 23.95 15.3 25.4 13.2 25.75 12.65 25.8 12.6 25.9 12.4 26.55 11.25 Q26.85 10.0 27.9 8.85 29.0 7.65 30.35 7.4 L31.65 7.5 31.8 7.55 29.25 8.65 Q27.85 9.4 27.45 10.6 L26.6 12.65 25.25 14.8 Q19.5 21.5 17.75 22.55 L16.95 22.35 16.6 22.35 16.95 22.35 17.75 22.55 17.2 22.75 Q15.6 22.75 12.9 24.9 10.9 26.5 9.9 27.8 7.5 30.7 6.25 33.2 L5.95 32.6 6.75 30.75 6.55 30.95 6.5 30.95 6.9 30.2 7.3 29.4 Q9.15 26.25 11.95 24.1 13.6 23.0 14.85 22.6 L14.95 22.5 16.6 22.35 M11.95 36.7 L11.9 36.7 11.85 36.4 15.5 32.75 16.7 30.95 17.6 29.1 17.8 27.3 17.8 25.45 Q17.8 23.1 18.9 24.25 L19.1 24.6 19.15 25.15 19.15 25.2 Q19.25 26.3 18.95 27.55 L18.75 28.15 18.55 28.9 18.5 28.95 17.7 30.7 17.55 30.85 17.1 31.7 16.55 32.45 15.0 34.3 14.6 34.7 13.2 35.85 13.0 36.0 12.9 36.1 12.6 36.3 12.05 36.65 12.0 36.7 11.95 36.7 M6.9 30.2 L6.55 30.95 6.9 30.2" fill="#bbc5c8" fill-rule="evenodd" stroke="none"/>
      <path d="M32.45 8.0 L33.35 9.05 Q34.3 10.15 34.05 11.25 L33.6 12.55 33.25 13.2 32.7 13.95 32.55 14.1 31.55 14.9 30.45 15.35 30.1 15.55 30.0 15.6 28.7 16.4 27.75 17.1 25.2 19.35 25.1 19.5 23.75 20.8 22.8 22.0 22.3 22.65 M22.2 22.75 L22.2 22.8 M22.05 22.95 L21.45 23.85 Q20.9 24.7 20.65 25.5 L20.85 26.15 20.95 27.55 20.8 28.75 20.6 29.4 20.4 30.05 20.2 30.7 19.7 31.6 Q18.7 33.3 17.15 34.7 L16.7 35.1 14.4 36.75 14.25 36.8 12.05 37.7 10.4 38.05 8.05 37.95 M22.05 22.95 L22.1 22.85 22.2 22.8" fill="none" stroke="#000000" stroke-linecap="round" stroke-linejoin="round" stroke-opacity="0.4509804" stroke-width="0.05"/>
      <path d="M31.5 9.5 L31.55 9.55 31.5 9.7 31.05 11.05 29.8 12.5 29.45 12.75 28.85 12.95 Q28.85 12.3 29.25 11.4 L30.55 9.95 30.9 9.8 31.55 9.55 M16.6 22.35 L18.0 21.25 20.0 19.55 23.15 16.2 23.95 15.3 25.4 13.2 25.75 12.65 25.8 12.6 25.9 12.4 26.55 11.25 Q26.85 10.0 27.9 8.85 29.0 7.65 30.35 7.4 L31.65 7.5 31.8 7.55 32.2 7.85 32.35 8.0 32.45 8.0 M22.3 22.65 L22.2 22.75 M8.05 37.95 L8.0 38.0 M32.35 8.0 Q33.15 8.8 32.85 10.25 L32.6 11.3 M29.25 14.3 Q30.25 14.1 31.1 13.25 L31.15 13.2 31.5 12.9 31.95 12.4 32.6 11.3 M19.15 25.15 L19.2 25.15 M19.15 25.15 L19.15 25.2 19.2 25.15 M19.15 25.2 Q19.25 26.3 18.95 27.55 L18.75 28.15 18.55 28.9 18.5 28.95 M11.95 36.7 Q9.7 38.1 8.0 37.85 M13.0 36.0 L12.9 36.1 12.6 36.3 12.05 36.65 12.0 36.7" fill="none" stroke="#000000" stroke-linecap="round" stroke-linejoin="round" stroke-opacity="0.3019608" stroke-width="0.05"/>
      <path d="M19.2 25.15 L19.85 24.1 20.0 23.85 20.15 23.65 Q20.9 22.5 21.75 21.5 L24.8 18.05 Q25.25 17.55 25.75 17.2 L27.45 15.65 27.6 15.55 29.25 14.3" fill="none" stroke="#e1e5e6" stroke-linecap="round" stroke-linejoin="round" stroke-opacity="0.53333336" stroke-width="0.05"/>
      <path d="M16.6 22.35 L16.95 22.35 17.75 22.55 M19.1 24.6 L18.95 23.85 18.35 23.0 17.75 22.55 M19.1 24.6 L19.15 25.15" fill="none" stroke="#000000" stroke-linecap="round" stroke-linejoin="round" stroke-opacity="0.050980393" stroke-width="0.05"/>
      <path d="M8.0 37.85 Q7.45 37.8 7.05 37.55 5.8 36.95 5.65 35.05 L5.65 34.7 Q5.6 32.95 6.55 30.95 L6.9 30.2 7.3 29.4 Q9.15 26.25 11.95 24.1 13.6 23.0 14.85 22.6 L14.95 22.5 16.6 22.35" fill="none" stroke="#e1e5e6" stroke-linecap="round" stroke-linejoin="round" stroke-opacity="0.3529412" stroke-width="0.05"/>
      <path d="M18.5 28.95 L17.7 30.7 17.55 30.85 17.1 31.7 15.0 34.3 14.6 34.7 13.2 35.85 13.0 36.0" fill="none" stroke="#e1e5e6" stroke-linecap="round" stroke-linejoin="round" stroke-opacity="0.3019608" stroke-width="0.05"/>
      <path d="M17.5 27.05 Q17.5 28.75 16.3 30.8 14.95 33.2 12.85 34.7 L11.8 35.35 Q10.35 36.2 9.15 36.0 7.55 35.8 7.4 33.9 7.3 32.05 8.6 29.7 10.0 27.25 12.05 25.75 12.55 25.4 13.0 25.2 14.35 24.45 15.4 24.45 L15.85 24.45 Q17.4 24.65 17.5 26.55 L17.5 27.05" fill="url(#gradient0)" fill-rule="evenodd" stroke="none"/>
      <path d="M11.8 35.35 Q10.35 36.2 9.15 36.0 7.55 35.8 7.4 33.9 7.3 32.05 8.6 29.7 10.0 27.25 12.05 25.75 12.55 25.4 13.0 25.2 M15.4 24.45 L15.85 24.45 Q17.4 24.65 17.5 26.55 L17.5 27.05" fill="none" stroke="#000000" stroke-linecap="round" stroke-linejoin="round" stroke-opacity="0.2" stroke-width="0.05"/>
      <path d="M16.45 24.6 L15.85 24.45 15.4 24.45 Q14.35 24.45 13.0 25.2 12.55 25.4 12.05 25.75 10.0 27.25 8.6 29.7 7.3 32.05 7.4 33.9 7.5 34.95 8.0 35.5 6.95 35.05 6.85 33.5 6.75 31.65 8.05 29.35 9.45 26.9 11.55 25.35 L12.45 24.8 Q13.8 24.05 14.85 24.05 L15.3 24.05 Q16.0 24.15 16.45 24.6" fill="#ffffff" fill-opacity="0.6901961" fill-rule="evenodd" stroke="none"/>
      <path d="M16.45 30.7 L16.35 30.85 Q15.3 32.95 13.5 34.35 L13.2 34.4 11.95 34.45 Q10.1 34.45 8.9 33.55 8.0 32.85 7.75 32.0 8.7 31.4 10.3 30.85 L14.1 30.2 16.05 30.5 16.45 30.7 M9.7 36.1 Q8.7 36.35 8.6 37.4 L8.3 36.5 Q8.6 35.95 9.15 35.95 L9.7 36.1 M7.5 41.55 L7.1 41.55 6.45 41.4 Q5.75 40.95 5.15 39.55 4.45 37.85 4.45 36.3 L4.45 36.25 Q4.45 35.25 4.75 34.45 5.0 34.05 5.45 34.05 7.0 34.05 8.0 35.85 L8.3 36.5 Q7.9 37.2 7.95 38.9 8.0 40.9 7.5 41.55" fill="#e63e3e" fill-opacity="0.77254903" fill-rule="evenodd" stroke="none"/>
      <path d="M13.5 34.35 Q12.15 35.35 10.4 35.95 L10.2 35.95 9.7 36.1 9.15 35.95 Q8.6 35.95 8.3 36.5 L8.0 35.85 Q7.0 34.05 5.45 34.05 5.0 34.05 4.75 34.45 5.3 32.35 7.4 30.9 L8.6 30.2 Q7.7 30.85 7.7 31.45 L7.75 32.0 Q8.0 32.85 8.9 33.55 10.1 34.45 11.95 34.45 L13.2 34.4 13.5 34.35" fill="#ff6666" fill-opacity="0.62352943" fill-rule="evenodd" stroke="none"/>
      <path d="M8.6 30.2 L8.95 30.0 Q10.95 29.05 13.3 29.0 L13.75 29.0 Q14.95 29.05 16.65 30.05 L16.45 30.7 16.05 30.5 14.1 30.2 10.3 30.85 Q8.7 31.4 7.75 32.0 L7.7 31.45 Q7.7 30.85 8.6 30.2" fill="#bf3333" fill-opacity="0.77254903" fill-rule="evenodd" stroke="none"/>
      <path d="M8.6 37.4 L8.55 37.7 8.75 39.3 8.75 39.5 8.55 40.95 7.5 41.55 Q8.0 40.9 7.95 38.9 7.9 37.2 8.3 36.5 L8.6 37.4" fill="#b33030" fill-opacity="0.77254903" fill-rule="evenodd" stroke="none"/>
      <path d="M7.5 41.55 L7.1 41.55 6.45 41.4 Q5.75 40.95 5.15 39.55 4.45 37.85 4.45 36.3 L4.45 36.25 Q4.45 35.25 4.75 34.45 5.3 32.35 7.4 30.9 L8.6 30.2" fill="none" stroke="#ffffff" stroke-linecap="round" stroke-linejoin="round" stroke-opacity="0.3019608" stroke-width="0.05"/>
      <path d="M8.6 30.2 L8.95 30.0 Q10.95 29.05 13.3 29.0 L13.75 29.0 Q14.95 29.05 16.65 30.05 M9.7 36.1 Q8.7 36.35 8.6 37.4 L8.55 37.7 8.75 39.3 8.75 39.5 8.55 40.95 7.5 41.55 Z" fill="none" stroke="#000000" stroke-linecap="round" stroke-linejoin="round" stroke-opacity="0.3019608" stroke-width="0.05"/>
      <path d="M30.8 7.05 L31.05 6.45 Q31.35 6.05 30.75 5.7 L31.05 5.7 31.95 6.1 31.4 6.3 30.8 7.05 M33.35 6.45 Q34.05 7.1 34.05 8.0 L34.1 8.8 33.5 9.1 30.85 11.05 30.85 11.7 29.85 12.45 Q30.2 11.0 30.85 10.1 L32.5 8.6 32.8 8.3 33.4 8.25 Q33.55 7.3 33.35 6.45" fill="#1f0e00" fill-rule="evenodd" stroke="none"/>
      <path d="M28.2 7.35 L28.7 6.85 Q29.65 6.0 30.75 5.7 31.35 6.05 31.05 6.45 L30.8 7.05 30.15 7.8 30.8 7.05 31.4 6.3 31.95 6.1 32.25 6.2 33.35 6.45 Q33.55 7.3 33.4 8.25 L32.8 8.3 32.5 8.6 30.85 10.1 Q30.2 11.0 29.85 12.45 L29.4 12.0 28.8 11.15 28.5 11.05 Q27.75 10.8 27.8 9.95 L27.75 9.85 27.75 9.7 28.6 9.8 28.9 9.75 29.15 9.05 Q29.1 10.05 30.15 10.1 L30.35 10.1 Q31.15 9.1 30.95 8.25 L30.65 7.9 30.15 7.8 29.4 8.75 Q29.6 7.85 29.05 7.5 L28.6 7.35 28.2 7.35 M28.8 11.15 L28.85 10.75 Q28.7 10.3 28.9 9.75 28.7 10.3 28.85 10.75 L28.8 11.15" fill="#733f10" fill-rule="evenodd" stroke="none"/>
      <path d="M28.2 7.35 L28.6 7.35 29.05 7.5 Q29.6 7.85 29.4 8.75 L30.15 7.8 30.65 7.9 30.95 8.25 Q31.15 9.1 30.35 10.1 L30.15 10.1 Q29.1 10.05 29.15 9.05 L29.4 8.75 29.15 9.05 28.9 9.75 28.6 9.8 27.75 9.7 27.85 9.25 Q27.9 8.25 28.2 7.35" fill="#a16925" fill-rule="evenodd" stroke="none"/>
      <path d="M30.75 5.7 Q29.65 6.0 28.7 6.85 L28.2 7.35 M29.4 8.75 L30.15 7.8 30.8 7.05 M30.75 5.7 L31.05 5.7 31.95 6.1 32.25 6.2 33.35 6.45 Q34.05 7.1 34.05 8.0 L34.1 8.8 33.5 9.1 30.85 11.05 30.85 11.7 29.85 12.45 29.4 12.0 28.8 11.15 28.5 11.05 Q27.75 10.8 27.8 9.95 L27.75 9.85 27.75 9.7 27.85 9.25 Q27.9 8.25 28.2 7.35 M31.95 6.1 L31.4 6.3 30.8 7.05 M29.4 8.75 L29.15 9.05 28.9 9.75 Q28.7 10.3 28.85 10.75 L28.8 11.15" fill="none" stroke="#000000" stroke-linecap="round" stroke-linejoin="round" stroke-opacity="0.3019608" stroke-width="0.05"/>
      <path d="M27.6 9.5 L28.9 9.7 M30.85 11.0 Q30.55 10.8 30.3 10.75 29.45 10.3 29.2 9.65 M32.5 12.1 Q32.45 11.0 31.75 10.3 M31.45 6.25 Q32.55 6.25 32.8 7.95 M28.65 6.75 Q29.4 6.35 30.1 7.65" fill="none" stroke="#000000" stroke-linecap="round" stroke-linejoin="round" stroke-opacity="0.101960786" stroke-width="0.30000000000000004"/>
      <path d="M12.25 31.35 Q10.55 31.35 9.15 32.3 L7.5 33.5 7.3 33.65 5.8 33.85 Q6.65 31.75 9.9 30.3 14.35 28.35 14.35 30.45 14.35 31.05 14.05 31.2 L12.25 31.35" fill="#e7adad" fill-opacity="0.43137255" fill-rule="evenodd" stroke="none"/>
    </g>
    <radialGradient cx="0" cy="0" gradientTransform="matrix(0.016, -0.0043, 0.0043, 0.016, 17.6, 32.85)" gradientUnits="userSpaceOnUse" id="gradient0" r="819.2" spreadMethod="pad">
      <stop offset="0.0" stop-color="#42555e" stop-opacity="0.0"/>
      <stop offset="0.8549019607843137" stop-color="#121818"/>
    </radialGradient>
  </defs>
</svg>
