<?xml version="1.0" encoding="UTF-8" standalone="no"?>
<svg xmlns:xlink="http://www.w3.org/1999/xlink" height="440.0px" width="440.0px" xmlns="http://www.w3.org/2000/svg">
  <g transform="matrix(10.0, 0.0, 0.0, 10.0, 0.0, 0.0)">
    <use height="44.0" transform="matrix(1.0, 0.0, 0.0, 1.0, 0.0, 0.0)" width="44.0" xlink:href="#shape0"/>
  </g>
  <defs>
    <g id="shape0" transform="matrix(1.0, 0.0, 0.0, 1.0, 0.0, 0.0)">
      <path d="M44.0 44.0 L0.0 44.0 0.0 0.0 44.0 0.0 44.0 44.0" fill="#43adca" fill-opacity="0.0" fill-rule="evenodd" stroke="none"/>
      <path d="M15.45 26.15 L15.9 25.85" fill="none" stroke="#000000" stroke-linecap="round" stroke-linejoin="round" stroke-opacity="0.3019608" stroke-width="0.05"/>
      <path d="M12.45 22.35 Q14.85 22.3 15.65 23.1 14.6 25.35 7.35 24.95 8.65 23.3 12.3 22.45 L12.45 22.35" fill="#cde7fe" fill-rule="evenodd" stroke="none"/>
      <path d="M12.45 22.35 L14.9 21.95 Q15.85 21.3 17.5 21.15 18.2 22.35 17.05 22.8 L17.65 22.8 Q17.0 23.7 16.05 24.2 13.3 26.0 7.35 24.95 14.6 25.35 15.65 23.1 14.85 22.3 12.45 22.35" fill="#4ea1e0" fill-rule="evenodd" stroke="none"/>
      <path d="M7.35 24.95 Q13.3 26.0 16.05 24.2 17.0 23.7 17.65 22.8 L17.05 22.8 Q18.2 22.35 17.5 21.15 15.85 21.3 14.9 21.95 L12.45 22.35 M7.35 24.95 Q8.65 23.3 12.3 22.45" fill="none" stroke="#000000" stroke-linecap="round" stroke-linejoin="round" stroke-opacity="0.3019608" stroke-width="0.05"/>
      <path d="M36.4 4.95 L36.45 4.45 Q36.35 3.85 34.25 3.3 32.1 2.7 30.2 2.7 26.5 2.7 25.1 4.05 24.1 5.15 24.0 7.6 23.25 6.75 23.2 5.9 L23.4 4.65 Q23.75 3.75 24.3 3.25 25.95 1.55 30.2 1.55 L34.55 2.2 Q36.55 2.7 37.25 3.5 37.2 4.45 36.4 4.95" fill="#733f10" fill-rule="evenodd" stroke="none"/>
      <path d="M36.4 4.95 Q37.2 4.45 37.25 3.5 37.65 3.95 37.6 4.45 37.6 6.15 35.75 6.75 L35.65 6.75 35.0 6.85 34.55 6.75 32.25 6.45 Q30.85 6.45 29.7 7.1 30.75 6.3 32.25 6.05 L33.5 5.85 35.5 5.55 36.4 4.95 M23.4 4.65 L23.2 5.9 Q23.25 6.75 24.0 7.6 L24.0 8.0 24.0 8.25 Q24.1 10.2 24.95 14.1 25.9 18.4 25.9 20.1 25.9 21.7 24.7 23.0 L24.65 23.0 Q23.2 24.55 20.55 24.55 18.8 24.55 18.15 24.15 L17.9 23.8 Q17.8 23.55 18.0 23.35 L18.35 23.1 18.75 23.15 20.55 23.4 Q22.65 23.4 23.85 22.2 24.7 21.25 24.7 20.1 24.7 18.5 23.8 14.35 22.85 10.1 22.85 8.0 22.85 6.0 23.4 4.65 M27.15 24.1 L27.7 23.5 29.25 21.4 Q29.05 23.65 27.6 25.45 25.8 27.6 23.15 27.6 22.1 27.6 20.7 26.8 L18.85 25.65 18.6 25.3 Q18.5 25.1 18.7 24.85 18.8 24.65 19.05 24.6 L19.45 24.65 21.35 25.85 21.3 25.85 Q22.35 26.4 23.15 26.4 25.25 26.4 26.75 24.65 L26.7 24.65 27.15 24.1" fill="#411e00" fill-rule="evenodd" stroke="none"/>
      <path d="M29.7 7.1 Q30.85 6.45 32.25 6.45 L34.55 6.75 35.0 6.85 32.5 7.2 Q28.3 8.05 28.3 13.4 28.3 15.15 28.55 16.5 L28.8 17.45 Q29.25 19.15 29.25 20.8 L29.25 21.4 27.7 23.5 27.15 24.1 Q28.1 22.6 28.1 20.8 28.1 19.25 27.7 17.75 27.15 16.0 27.15 13.4 27.15 8.9 29.7 7.1" fill="#a16925" fill-rule="evenodd" stroke="none"/>
      <path d="M14.3 18.65 L14.5 18.7 Q15.85 20.2 15.85 21.35 14.05 22.35 10.3 17.2 11.95 16.8 14.3 18.65" fill="#cde7fe" fill-rule="evenodd" stroke="none"/>
      <path d="M10.3 17.2 Q14.05 22.35 15.85 21.35 15.85 20.2 14.5 18.7 L16.0 19.95 Q16.9 20.1 17.85 21.15 17.65 22.4 16.7 22.0 L17.05 22.4 15.45 22.45 Q13.0 21.95 10.3 17.2" fill="#4ea1e0" fill-rule="evenodd" stroke="none"/>
      <path d="M14.3 18.65 Q11.95 16.8 10.3 17.2 M14.5 18.7 L16.0 19.95 Q16.9 20.1 17.85 21.15 17.65 22.4 16.7 22.0 L17.05 22.4 15.45 22.45 Q13.0 21.95 10.3 17.2" fill="none" stroke="#000000" stroke-linecap="round" stroke-linejoin="round" stroke-opacity="0.3019608" stroke-width="0.05"/>
      <path d="M16.75 19.05 Q17.6 21.0 17.3 22.2 15.35 22.4 13.3 16.0 14.9 16.25 16.65 18.95 L16.75 19.05" fill="#cde7fe" fill-rule="evenodd" stroke="none"/>
      <path d="M16.75 19.05 L17.85 20.85 Q18.6 21.3 19.3 22.65 18.7 23.85 18.0 23.1 L18.15 23.55 Q17.35 23.5 16.7 23.05 14.5 21.6 13.3 16.0 15.35 22.4 17.3 22.2 17.6 21.0 16.75 19.05" fill="#4ea1e0" fill-rule="evenodd" stroke="none"/>
      <path d="M13.3 16.0 Q14.5 21.6 16.7 23.05 17.35 23.5 18.15 23.55 L18.0 23.1 Q18.7 23.85 19.3 22.65 18.6 21.3 17.85 20.85 L16.75 19.05 M13.3 16.0 Q14.9 16.25 16.65 18.95" fill="none" stroke="#000000" stroke-linecap="round" stroke-linejoin="round" stroke-opacity="0.3019608" stroke-width="0.05"/>
      <path d="M7.65 20.25 Q13.7 24.35 15.8 22.95 15.5 21.75 13.4 20.6 L15.65 21.5 Q16.8 21.35 18.35 22.05 18.35 23.45 17.1 23.3 L17.6 23.55 15.5 24.05 Q12.25 24.15 7.65 20.25" fill="#4ea1e0" fill-rule="evenodd" stroke="none"/>
      <path d="M13.15 20.6 L13.4 20.6 Q15.5 21.75 15.8 22.95 13.7 24.35 7.65 20.25 9.6 19.45 13.15 20.6" fill="#cde7fe" fill-rule="evenodd" stroke="none"/>
      <path d="M13.15 20.6 Q9.6 19.45 7.65 20.25 M13.4 20.6 L15.65 21.5 Q16.8 21.35 18.35 22.05 18.35 23.45 17.1 23.3 L17.6 23.55 15.5 24.05 Q12.25 24.15 7.65 20.25" fill="none" stroke="#000000" stroke-linecap="round" stroke-linejoin="round" stroke-opacity="0.3019608" stroke-width="0.05"/>
      <path d="M13.45 32.1 L13.45 32.05 13.5 32.15 13.45 32.1" fill="#780101" fill-rule="evenodd" stroke="none"/>
      <path d="M13.65 38.95 L13.7 38.95 13.55 39.0 13.65 38.95" fill="#400000" fill-rule="evenodd" stroke="none"/>
      <path d="M17.25 31.05 L17.3 31.3 17.25 31.3 17.25 31.05 M13.55 39.0 L13.55 38.95 13.65 38.95 13.55 39.0 M12.35 33.9 L12.35 33.85 12.35 33.9 M13.5 32.15 L13.45 32.05 13.5 32.15" fill="#b80101" fill-rule="evenodd" stroke="none"/>
      <path d="M13.7 38.95 L13.7 39.0 13.55 39.0 13.7 38.95 13.65 38.95 13.65 38.85 13.7 38.95" fill="#4f0000" fill-rule="evenodd" stroke="none"/>
      <path d="M12.3 30.35 L13.45 32.1 13.5 32.15 13.5 32.2 Q13.75 33.25 14.6 34.45 L13.8 34.85 13.85 34.85 10.8 36.3 10.7 36.3 10.55 36.35 Q8.55 37.45 7.65 37.4 L12.35 33.9 12.35 33.85 12.4 33.75 Q11.95 33.25 12.3 30.35" fill="#c7ba89" fill-rule="evenodd" stroke="none"/>
      <path d="M16.3 26.45 L17.1 27.25 17.75 27.8 16.45 30.15 15.7 29.55 15.3 29.4 14.25 29.65 Q13.75 30.65 13.45 32.05 L13.45 32.1 12.3 30.35 12.4 29.25 Q12.95 28.05 14.05 26.8 L16.3 26.45 M17.0 34.2 L18.85 34.1 16.65 36.95 13.7 38.95 13.65 38.85 13.65 38.95 13.55 38.95 6.55 39.65 6.95 38.65 10.55 36.35 10.7 36.3 10.8 36.3 13.85 34.85 13.8 34.85 14.6 34.45 14.65 34.5 16.9 34.25 17.0 34.2" fill="#baae80" fill-rule="evenodd" stroke="none"/>
      <path d="M14.05 26.8 Q12.95 28.05 12.4 29.25 L12.3 30.35 Q11.95 33.25 12.4 33.75 L12.35 33.85 12.35 33.9 7.65 37.4 Q8.55 37.45 10.55 36.35 L6.95 38.65 6.55 39.65 13.55 38.95 13.55 39.0 Q9.6 40.3 6.2 40.35 L6.7 41.5 11.5 41.1 5.65 41.9 5.2 40.6 6.6 37.45 Q8.4 36.4 10.8 33.9 L10.95 33.75 11.35 33.35 Q11.15 31.3 11.7 29.4 L11.85 28.9 14.05 26.8 M17.25 31.3 L17.3 31.3 17.4 32.3 17.35 33.75 17.0 34.2 16.9 34.25 14.65 34.5 14.6 34.45 Q13.75 33.25 13.5 32.2 L13.5 32.15 Q14.4 33.55 15.25 33.95 L16.45 33.6 16.9 33.4 17.15 32.45 17.25 31.4 17.25 31.3" fill="#eae6d9" fill-rule="evenodd" stroke="none"/>
      <path d="M17.75 27.8 L18.0 28.0 18.2 28.15 19.9 29.85 20.2 31.3 Q20.4 32.5 19.9 33.8 L19.1 35.3 18.85 35.55 20.5 35.95 20.0 36.6 18.6 37.75 18.45 37.85 18.35 37.95 18.15 38.1 18.1 38.1 17.9 38.2 Q15.5 39.85 14.0 40.55 L13.7 40.55 Q13.65 40.4 13.55 40.7 L13.7 39.0 13.7 38.95 16.65 36.95 18.85 34.1 17.0 34.2 17.35 33.75 17.4 32.3 17.3 31.3 17.25 31.05 16.45 30.15 17.75 27.8" fill="#9e9573" fill-rule="evenodd" stroke="none"/>
      <path d="M17.75 27.8 L17.1 27.25 16.3 26.45 18.1 27.05 18.45 27.35 19.65 28.5 20.75 29.6 21.6 30.4 Q21.8 32.65 21.3 34.3 L20.5 35.95 18.85 35.55 19.1 35.3 19.9 33.8 Q20.4 32.5 20.2 31.3 L19.9 29.85 18.2 28.15 18.0 28.0 17.75 27.8 M13.45 32.05 Q13.75 30.65 14.25 29.65 L15.3 29.4 14.5 31.25 15.25 32.5 16.45 33.6 15.25 33.95 Q14.4 33.55 13.5 32.15 L13.45 32.05 M13.7 39.0 L13.55 40.7 11.5 41.1 6.7 41.5 6.2 40.35 Q9.6 40.3 13.55 39.0 L13.7 39.0" fill="#615b46" fill-rule="evenodd" stroke="none"/>
      <path d="M20.5 35.95 L21.3 34.3 Q21.8 32.65 21.6 30.4 L20.75 29.6 19.65 28.5 18.45 27.35 18.1 27.05 16.3 26.45 14.05 26.8 11.85 28.9 11.7 29.4 Q11.15 31.3 11.35 33.35 L10.95 33.75 10.8 33.9 Q8.4 36.4 6.6 37.45 L5.2 40.6 5.65 41.9 11.5 41.1 13.55 40.7 M13.7 40.55 L14.0 40.55 Q15.5 39.85 17.9 38.2 L18.1 38.1 18.15 38.1 18.35 37.95 18.45 37.85 18.6 37.75 20.0 36.6 20.5 35.95" fill="none" stroke="#000000" stroke-linecap="round" stroke-linejoin="round" stroke-opacity="0.3019608" stroke-width="0.05"/>
      <path d="M16.45 30.15 L17.75 27.8 M10.8 36.3 L10.7 36.3 10.55 36.35" fill="none" stroke="#130f12" stroke-linecap="round" stroke-linejoin="round" stroke-opacity="0.3019608" stroke-width="0.05"/>
      <path d="M21.05 32.2 L21.05 32.05 Q21.65 30.7 22.2 31.1 22.65 34.15 20.7 37.7 20.5 35.05 21.05 32.2" fill="#cde7fe" fill-rule="evenodd" stroke="none"/>
      <path d="M21.05 32.05 L21.5 30.3 Q21.6 29.1 21.95 27.95 22.45 28.8 22.35 30.1 L22.5 29.75 22.65 32.1 Q22.55 35.55 20.7 37.7 22.65 34.15 22.2 31.1 21.65 30.7 21.05 32.05" fill="#4ea1e0" fill-rule="evenodd" stroke="none"/>
      <path d="M21.05 32.05 L21.5 30.3 Q21.6 29.1 21.95 27.95 22.45 28.8 22.35 30.1 L22.5 29.75 22.65 32.1 Q22.55 35.55 20.7 37.7 20.5 35.05 21.05 32.2" fill="none" stroke="#000000" stroke-linecap="round" stroke-linejoin="round" stroke-opacity="0.3019608" stroke-width="0.05"/>
      <path d="M20.7 26.35 L20.85 27.1 20.05 27.3 19.1 27.95 17.25 32.2 16.95 33.1 16.2 33.35 Q15.35 33.6 14.75 32.9 15.5 32.9 16.4 32.4 L16.45 31.55 16.75 30.95 Q17.4 29.55 18.2 28.25 19.05 27.0 20.7 26.35 M14.4 31.1 Q14.1 30.9 14.0 30.2 L14.0 29.75 Q14.3 30.4 14.75 29.85 L15.3 29.25 14.55 30.4 14.4 31.1" fill="#1f0e00" fill-rule="evenodd" stroke="none"/>
      <path d="M17.85 25.7 L17.9 25.3 17.8 24.2 18.0 24.15 18.1 24.15 Q18.9 23.8 19.15 24.75 L19.2 25.15 Q19.8 25.25 20.05 25.55 L20.7 26.35 Q19.05 27.0 18.2 28.25 17.4 29.55 16.75 30.95 L16.45 31.55 16.4 32.4 Q15.5 32.9 14.75 32.9 14.45 32.45 14.45 31.6 L14.4 31.1 14.55 30.4 15.3 29.25 15.95 28.1 15.3 29.25 14.75 29.85 Q14.3 30.4 14.0 29.75 14.25 28.1 15.1 26.6 L15.6 25.65 15.55 26.25 15.7 26.8 16.9 26.75 15.95 28.1 16.05 28.8 16.4 29.1 Q17.25 29.1 18.2 27.6 L18.2 27.3 Q18.15 25.95 17.15 26.35 L17.85 25.7 Q18.4 25.35 18.85 25.25 L19.2 25.15 18.85 25.25 Q18.4 25.35 17.85 25.7" fill="#733f10" fill-rule="evenodd" stroke="none"/>
      <path d="M17.8 24.2 L17.9 25.3 17.85 25.7 17.15 26.35 Q18.15 25.95 18.2 27.3 L18.2 27.6 Q17.25 29.1 16.4 29.1 L16.05 28.8 15.95 28.1 16.9 26.75 15.7 26.8 15.55 26.25 15.6 25.65 Q16.45 24.95 17.4 24.5 L17.8 24.2 M17.15 26.35 L16.9 26.75 17.15 26.35" fill="#a16925" fill-rule="evenodd" stroke="none"/>
      <path d="M17.8 24.2 L17.4 24.5 Q16.45 24.95 15.6 25.65 M16.9 26.75 L17.15 26.35 17.85 25.7 Q18.4 25.35 18.85 25.25 L19.2 25.15 19.15 24.75 Q18.9 23.8 18.1 24.15 L18.0 24.15 17.8 24.2 M19.2 25.15 Q19.8 25.25 20.05 25.55 L20.7 26.35 20.85 27.1 20.05 27.3 19.1 27.95 17.25 32.2 16.95 33.1 16.2 33.35 Q15.35 33.6 14.75 32.9 14.45 32.45 14.45 31.6 L14.4 31.1 Q14.1 30.9 14.0 30.2 L14.0 29.75 Q14.25 28.1 15.1 26.6 L15.6 25.65 M15.95 28.1 L15.3 29.25 14.55 30.4 14.4 31.1 M16.9 26.75 L15.95 28.1" fill="none" stroke="#000000" stroke-linecap="round" stroke-linejoin="round" stroke-opacity="0.3019608" stroke-width="0.05"/>
      <path d="M17.65 24.05 L17.75 25.15 M15.0 26.55 Q14.8 27.15 15.1 27.55 M18.7 29.7 L18.35 29.5 M14.6 30.4 Q14.55 30.95 14.8 31.3 M15.4 31.65 L16.1 31.6 M16.9 31.4 L17.65 31.1 M15.65 28.05 L15.9 28.15 M20.1 29.75 L19.3 29.9 M19.05 27.95 L18.85 27.25 18.8 27.15 M18.35 26.5 L17.8 26.25 17.65 26.25" fill="none" stroke="#000000" stroke-linecap="round" stroke-linejoin="round" stroke-opacity="0.101960786" stroke-width="0.30000000000000004"/>
      <path d="M21.7 30.25 L21.7 27.35 Q21.25 25.55 21.3 23.65 22.45 24.8 22.8 26.65 L22.85 26.05 24.1 29.75 Q25.35 35.0 23.45 39.0 24.95 32.8 23.0 28.35 22.0 27.95 21.7 30.25" fill="#4ea1e0" fill-rule="evenodd" stroke="none"/>
      <path d="M21.7 30.25 Q22.0 27.95 23.0 28.35 24.95 32.8 23.45 39.0 22.0 35.15 21.75 30.55 L21.7 30.25" fill="#cde7fe" fill-rule="evenodd" stroke="none"/>
      <path d="M23.45 39.0 Q25.35 35.0 24.1 29.75 L22.85 26.05 22.8 26.65 Q22.45 24.8 21.3 23.65 21.25 25.55 21.7 27.35 L21.7 30.25 M23.45 39.0 Q22.0 35.15 21.75 30.55" fill="none" stroke="#000000" stroke-linecap="round" stroke-linejoin="round" stroke-opacity="0.3019608" stroke-width="0.05"/>
      <path d="M23.55 27.7 L20.95 24.0 20.85 23.75 20.7 22.95 Q22.55 23.8 23.8 24.65 L24.3 25.6 24.5 25.65 Q25.65 26.35 26.3 27.05 27.15 29.1 25.9 32.1 L25.45 31.2 Q26.3 28.75 25.75 27.0 L23.1 24.95 Q21.8 24.65 23.55 27.7" fill="#4ea1e0" fill-rule="evenodd" stroke="none"/>
      <path d="M23.55 27.7 Q21.8 24.65 23.1 24.95 L25.75 27.0 Q26.3 28.75 25.45 31.2 L23.65 28.0 23.55 27.7" fill="#cde7fe" fill-rule="evenodd" stroke="none"/>
      <path d="M25.45 31.2 L25.9 32.1 Q27.15 29.1 26.3 27.05 25.65 26.35 24.5 25.65 L24.3 25.6 23.8 24.65 Q22.55 23.8 20.7 22.95 L20.85 23.75 20.95 24.0 23.55 27.7 M25.45 31.2 L23.65 28.0" fill="none" stroke="#000000" stroke-linecap="round" stroke-linejoin="round" stroke-opacity="0.3019608" stroke-width="0.05"/>
      <path d="M18.15 38.55 Q22.35 30.4 21.0 27.35 19.85 27.65 18.7 30.5 L19.55 27.3 Q19.5 25.7 20.25 23.55 21.6 23.75 21.4 25.5 L21.7 24.85 Q22.1 26.25 22.1 27.8 22.15 32.5 18.15 38.55" fill="#4ea1e0" fill-rule="evenodd" stroke="none"/>
      <path d="M18.15 38.55 Q17.4 35.7 18.6 30.75 L18.7 30.5 Q19.85 27.65 21.0 27.35 22.35 30.4 18.15 38.55" fill="#cde7fe" fill-rule="evenodd" stroke="none"/>
      <path d="M18.6 30.75 Q17.4 35.7 18.15 38.55 22.15 32.5 22.1 27.8 22.1 26.25 21.7 24.85 L21.4 25.5 Q21.6 23.75 20.25 23.55 19.5 25.7 19.55 27.3 L18.7 30.5" fill="none" stroke="#000000" stroke-linecap="round" stroke-linejoin="round" stroke-opacity="0.3019608" stroke-width="0.05"/>
      <path d="M11.95 24.75 Q15.0 24.35 15.85 25.15 13.85 27.8 4.75 28.35 6.85 26.25 11.7 24.85 L11.95 24.75" fill="#cde7fe" fill-rule="evenodd" stroke="none"/>
      <path d="M11.95 24.75 L15.2 23.9 Q16.55 23.05 18.75 22.6 19.25 23.9 17.65 24.6 L18.4 24.55 16.0 26.35 Q12.0 28.75 4.75 28.35 13.85 27.8 15.85 25.15 15.0 24.35 11.95 24.75" fill="#4ea1e0" fill-rule="evenodd" stroke="none"/>
      <path d="M4.75 28.35 Q12.0 28.75 16.0 26.35 L18.4 24.55 17.65 24.6 Q19.25 23.9 18.75 22.6 16.55 23.05 15.2 23.9 L11.95 24.75 M4.75 28.35 Q6.85 26.25 11.7 24.85" fill="none" stroke="#000000" stroke-linecap="round" stroke-linejoin="round" stroke-opacity="0.3019608" stroke-width="0.05"/>
      <path d="M19.45 21.2 Q19.7 21.2 20.0 21.0 L20.0 20.9 20.05 22.65 19.7 24.25 19.5 24.4 18.95 24.4 18.85 24.25 18.6 24.25 18.45 24.1 18.2 22.7 18.2 22.65 19.25 22.55 19.45 21.2" fill="#1f0e00" fill-rule="evenodd" stroke="none"/>
      <path d="M19.45 21.2 L19.25 22.55 18.2 22.65 18.0 20.95 18.25 21.05 19.45 21.2" fill="#733f10" fill-rule="evenodd" stroke="none"/>
      <path d="M20.0 20.9 L20.0 21.0 Q19.7 21.2 19.45 21.2 L18.25 21.05 18.0 20.95 Q18.2 20.45 18.75 20.25 19.8 19.9 20.0 20.9" fill="#a16925" fill-rule="evenodd" stroke="none"/>
      <path d="M18.85 24.25 L18.95 24.4" fill="none" stroke="#000000" stroke-linecap="round" stroke-linejoin="round" stroke-opacity="0.3019608" stroke-width="0.5"/>
      <path d="M20.0 20.9 L20.0 21.0 Q19.7 21.2 19.45 21.2 M18.2 22.7 L18.45 24.1 M19.5 24.4 L19.7 24.25 20.05 22.65 20.0 20.9 Q19.8 19.9 18.75 20.25 18.2 20.45 18.0 20.95 M18.2 22.65 L18.0 20.95" fill="none" stroke="#000000" stroke-linecap="round" stroke-linejoin="round" stroke-opacity="0.3019608" stroke-width="0.05"/>
      <path d="M18.85 23.65 L18.45 23.2 M19.75 24.15 L19.3 23.95 M19.0 21.85 L18.6 21.35 M19.85 22.55 L19.45 22.3" fill="none" stroke="#000000" stroke-linecap="round" stroke-linejoin="round" stroke-opacity="0.101960786" stroke-width="0.30000000000000004"/>
      <path d="M23.0 22.6 L23.6 23.0 23.85 23.05 21.65 24.35 19.5 25.45 19.25 25.2 19.1 24.9 18.95 24.6 18.9 24.4 18.95 23.85 21.3 23.5 23.0 22.6" fill="#1f0e00" fill-rule="evenodd" stroke="none"/>
      <path d="M22.45 20.8 L22.4 20.85 22.4 21.2 Q22.45 22.05 23.0 22.6 L21.3 23.5 18.95 23.85 20.4 22.45 22.45 20.8" fill="#733f10" fill-rule="evenodd" stroke="none"/>
      <path d="M23.85 23.05 L23.6 23.0 23.0 22.6 Q22.45 22.05 22.4 21.2 L22.4 20.85 22.45 20.8 Q23.2 20.65 23.65 21.05 24.8 22.0 23.85 23.05" fill="#a16925" fill-rule="evenodd" stroke="none"/>
      <path d="M18.9 24.4 L18.95 24.6" fill="none" stroke="#000000" stroke-linecap="round" stroke-linejoin="round" stroke-opacity="0.3019608" stroke-width="0.5"/>
      <path d="M23.0 22.6 L23.6 23.0 23.85 23.05 Q24.8 22.0 23.65 21.05 23.2 20.65 22.45 20.8 L22.4 20.85 M19.25 25.2 L19.5 25.45 21.65 24.35 23.85 23.05 M18.95 23.85 L20.4 22.45 22.45 20.8" fill="none" stroke="#000000" stroke-linecap="round" stroke-linejoin="round" stroke-opacity="0.3019608" stroke-width="0.05"/>
      <path d="M21.95 22.7 L22.3 21.8 M19.7 23.95 L20.0 23.1 M19.65 25.35 L19.65 24.65 M21.7 24.15 L21.7 23.45" fill="none" stroke="#000000" stroke-linecap="round" stroke-linejoin="round" stroke-opacity="0.101960786" stroke-width="0.30000000000000004"/>
      <path d="M14.8 35.05 Q15.2 35.6 14.85 36.5 14.45 37.45 13.55 38.05 12.5 38.8 11.6 38.8 10.65 38.85 10.3 38.2 9.9 37.55 10.25 36.55 10.6 35.75 11.55 34.95 12.45 34.4 13.35 34.25 14.45 34.35 14.8 35.05" fill="#615a46" fill-opacity="0.73333335" fill-rule="evenodd" stroke="none"/>
      <path d="M14.6 35.85 L13.9 36.95 Q13.2 37.6 12.5 37.7 11.7 37.85 11.2 37.35 L11.2 36.9 Q11.3 36.25 11.9 35.65 L13.15 34.95 Q13.85 34.85 14.25 35.25 L14.6 35.85" fill="#ff9933" fill-rule="evenodd" stroke="none"/>
      <path d="M11.2 37.35 Q11.7 37.85 12.5 37.7 13.2 37.6 13.9 36.95 L14.6 35.85 14.65 35.9 14.65 36.4 Q14.5 37.15 13.95 37.7 13.35 38.3 12.7 38.35 11.95 38.5 11.5 38.05 11.2 37.75 11.2 37.35" fill="#ca5202" fill-rule="evenodd" stroke="none"/>
      <path d="M14.6 35.85 L14.25 35.25 Q13.85 34.85 13.15 34.95 L11.9 35.65 Q11.3 36.25 11.2 36.9 L11.2 37.35" fill="none" stroke="#000000" stroke-linecap="round" stroke-linejoin="round" stroke-opacity="0.3019608" stroke-width="0.05"/>
      <path d="M11.2 37.35 Q11.2 37.75 11.5 38.05 11.95 38.5 12.7 38.35 13.35 38.3 13.95 37.7 14.5 37.15 14.65 36.4 L14.65 35.9 14.6 35.85 Z" fill="none" stroke="#000000" stroke-linecap="round" stroke-linejoin="round" stroke-opacity="0.5019608" stroke-width="0.05"/>
      <path d="M13.0 36.2 L12.45 36.65 12.0 36.75 Q11.75 36.75 11.8 36.45 11.75 36.25 12.0 35.95 L12.5 35.4 13.05 35.3 13.2 35.6 13.0 36.2" fill="#ffffff" fill-rule="evenodd" stroke="none"/>
    </g>
  </defs>
</svg>
