<?xml version="1.0" encoding="UTF-8" standalone="no"?>
<svg xmlns:xlink="http://www.w3.org/1999/xlink" height="440.0px" width="440.0px" xmlns="http://www.w3.org/2000/svg">
  <g transform="matrix(10.0, 0.0, 0.0, 10.0, 0.0, 0.0)">
    <use height="44.0" transform="matrix(0.9091, 0.0, 0.0, 0.9091, 2.0, 2.0)" width="44.0" xlink:href="#sprite0"/>
  </g>
  <defs>
    <g id="sprite0" transform="matrix(1.0, 0.0, 0.0, 1.0, 0.0, 0.0)">
      <use height="44.0" transform="matrix(1.0, 0.0, 0.0, 1.0, 0.0, 0.0)" width="44.0" xlink:href="#shape0"/>
    </g>
    <g id="shape0" transform="matrix(1.0, 0.0, 0.0, 1.0, 0.0, 0.0)">
      <path d="M44.0 44.0 L0.0 44.0 0.0 0.0 44.0 0.0 44.0 44.0" fill="#43adca" fill-opacity="0.0" fill-rule="evenodd" stroke="none"/>
      <path d="M32.6 5.8 L33.1 5.9 35.75 6.55 Q37.15 6.95 37.75 7.95 L37.7 8.65 35.65 9.1 36.55 8.35 Q37.25 8.2 36.95 7.9 36.7 6.85 32.35 6.3 L32.6 5.8 M33.5 9.1 L29.25 8.45 23.5 7.35 23.1 7.2 23.0 7.25 Q22.6 7.65 23.5 8.2 25.55 9.75 29.15 10.9 L29.35 10.9 Q31.15 11.95 31.45 13.1 L31.55 14.1 30.15 15.3 Q31.55 12.4 27.4 11.1 L22.4 8.4 22.35 8.35 22.3 8.35 22.2 8.3 Q21.55 7.6 22.0 7.15 L17.9 6.8 16.9 6.7 19.85 6.3 22.95 6.65 Q23.35 6.4 23.85 6.3 L24.25 6.15 26.75 6.25 Q25.3 6.35 24.25 6.8 L27.6 7.45 Q29.2 8.3 33.5 9.1 M7.9 10.9 Q8.05 13.05 8.9 13.95 11.1 16.25 13.05 17.7 L9.3 15.75 Q8.45 14.95 7.9 13.95 6.5 11.65 7.65 9.55 L7.85 9.25 7.9 10.9 M23.1 7.2 L24.25 6.8 23.1 7.2 M22.0 7.15 L22.55 6.75 22.95 6.65 22.55 6.75 22.0 7.15" fill="#65471b" fill-rule="evenodd" stroke="none"/>
      <path d="M32.6 5.8 L32.35 6.3 30.25 6.1 26.75 6.25 24.25 6.15 24.85 5.95 26.35 5.65 27.95 5.5 31.0 5.55 32.6 5.8 M36.55 8.35 L35.65 9.1 35.45 9.15 33.5 9.1 Q29.2 8.3 27.6 7.45 L33.2 8.4 Q35.6 8.6 36.55 8.35 M31.55 14.1 Q31.55 16.0 29.55 17.35 L26.3 19.3 24.2 20.05 24.2 19.3 27.35 18.0 Q29.25 17.0 30.1 15.4 L30.15 15.3 31.55 14.1 M27.4 11.1 L27.0 10.9 Q24.1 10.15 22.4 8.4 L27.4 11.1 M16.9 6.7 L12.1 6.95 10.1 7.45 12.25 6.3 Q15.75 5.7 18.85 6.15 L19.85 6.3 16.9 6.7 M9.75 7.6 L7.9 10.9 7.85 9.25 Q8.5 8.2 9.75 7.6 M13.05 17.7 L13.05 18.7 Q10.6 17.65 9.3 15.75 L13.05 17.7 M27.35 18.0 L26.3 19.3 27.35 18.0" fill="#916c1a" fill-rule="evenodd" stroke="none"/>
      <path d="M35.65 9.1 L37.7 8.65 37.75 7.95 Q37.15 6.95 35.75 6.55 L33.1 5.9 32.6 5.8 31.0 5.55 27.95 5.5 26.35 5.65 24.85 5.95 24.25 6.15 23.85 6.3 Q23.35 6.4 22.95 6.65 L22.55 6.75 22.0 7.15 17.9 6.8 16.9 6.7 12.1 6.95 10.1 7.45 Q9.95 7.45 9.75 7.6 L7.9 10.9 Q8.05 13.05 8.9 13.95 11.1 16.25 13.05 17.7 M32.35 6.3 Q36.7 6.85 36.95 7.9 37.25 8.2 36.55 8.35 35.6 8.6 33.2 8.4 L27.6 7.45 24.25 6.8 23.1 7.2 23.0 7.25 Q22.6 7.65 23.5 8.2 25.55 9.75 29.15 10.9 L29.35 10.9 Q31.15 11.95 31.45 13.1 L31.55 14.1 Q31.55 16.0 29.55 17.35 L26.3 19.3 24.2 20.05 M35.65 9.1 L35.45 9.15 33.5 9.1 29.25 8.45 23.5 7.35 23.1 7.2 M24.2 19.3 L27.35 18.0 Q29.25 17.0 30.1 15.4 L30.15 15.3 Q31.55 12.4 27.4 11.1 L27.0 10.9 Q24.1 10.15 22.4 8.4 M22.3 8.35 L22.2 8.3 Q21.55 7.6 22.0 7.15 M13.05 18.7 Q10.6 17.65 9.3 15.75 8.45 14.95 7.9 13.95 6.5 11.65 7.65 9.55 L7.85 9.25 Q8.5 8.2 9.75 7.6 M26.75 6.25 L30.25 6.1 32.35 6.3 M24.25 6.8 Q25.3 6.35 26.75 6.25 M22.3 8.35 L22.35 8.35 22.4 8.4 M22.95 6.65 L19.85 6.3 18.85 6.15 Q15.75 5.7 12.25 6.3 L10.1 7.45" fill="none" stroke="#382510" stroke-linecap="round" stroke-linejoin="round" stroke-opacity="0.2" stroke-width="0.4"/>
      <path d="M32.6 5.8 L32.35 6.3 M36.55 8.35 L35.65 9.1 M22.4 8.4 L22.3 8.35 M27.6 7.45 Q29.2 8.3 33.5 9.1 M24.25 6.15 L26.75 6.25 M22.4 8.4 L27.4 11.1 M19.85 6.3 L16.9 6.7 M26.3 19.3 L27.35 18.0 M31.55 14.1 L30.15 15.3 M7.9 10.9 L7.85 9.25 M9.3 15.75 L13.05 17.7" fill="none" stroke="#382510" stroke-linecap="round" stroke-linejoin="round" stroke-opacity="0.15294118" stroke-width="0.2"/>
      <path d="M14.65 21.0 L15.2 20.55 Q14.85 17.0 10.25 13.85 L8.6 15.0 Q11.7 18.55 14.65 21.0" fill="#575130" fill-rule="evenodd" stroke="none"/>
      <path d="M14.65 21.0 Q11.7 18.55 8.6 15.0 M10.25 13.85 Q14.85 17.0 15.2 20.55" fill="none" stroke="#382510" stroke-linecap="round" stroke-linejoin="round" stroke-opacity="0.2" stroke-width="0.4"/>
      <path d="M8.6 15.0 L10.25 13.85" fill="none" stroke="#382510" stroke-linecap="round" stroke-linejoin="round" stroke-opacity="0.15294118" stroke-width="0.2"/>
      <path d="M8.05 16.75 Q12.35 19.2 14.75 23.0 L15.25 22.8 Q14.6 19.9 10.35 17.2 L8.05 16.75" fill="#756846" fill-rule="evenodd" stroke="none"/>
      <path d="M14.75 23.0 Q12.35 19.2 8.05 16.75 M10.35 17.2 Q14.6 19.9 15.25 22.8" fill="none" stroke="#382510" stroke-linecap="round" stroke-linejoin="round" stroke-opacity="0.2" stroke-width="0.4"/>
      <path d="M8.05 16.75 L10.35 17.2" fill="none" stroke="#382510" stroke-linecap="round" stroke-linejoin="round" stroke-opacity="0.15294118" stroke-width="0.2"/>
      <path d="M11.7 17.0 L9.5 16.5 Q13.25 19.15 15.0 23.1 L15.6 22.95 Q15.35 19.9 11.7 17.0" fill="#afa57a" fill-rule="evenodd" stroke="none"/>
      <path d="M11.7 17.0 Q15.35 19.9 15.6 22.95 M15.0 23.1 Q13.25 19.15 9.5 16.5" fill="none" stroke="#382510" stroke-linecap="round" stroke-linejoin="round" stroke-opacity="0.2" stroke-width="0.4"/>
      <path d="M9.5 16.5 L11.7 17.0 Z" fill="none" stroke="#382510" stroke-linecap="round" stroke-linejoin="round" stroke-opacity="0.15294118" stroke-width="0.2"/>
      <path d="M11.7 15.25 Q13.55 19.65 15.45 23.0 L16.0 22.8 Q16.5 19.35 13.35 14.75 L11.7 15.25" fill="#b8b188" fill-rule="evenodd" stroke="none"/>
      <path d="M15.45 23.0 Q13.55 19.65 11.7 15.25 M13.35 14.75 Q16.5 19.35 16.0 22.8" fill="none" stroke="#382510" stroke-linecap="round" stroke-linejoin="round" stroke-opacity="0.2" stroke-width="0.4"/>
      <path d="M11.7 15.25 L13.35 14.75" fill="none" stroke="#382510" stroke-linecap="round" stroke-linejoin="round" stroke-opacity="0.15294118" stroke-width="0.2"/>
      <path d="M18.3 19.8 L19.25 19.75 20.55 19.85 Q22.25 20.5 23.6 22.15 25.85 24.85 25.85 28.75 25.6 30.4 24.9 31.75 L24.35 31.75 23.65 33.55 21.95 34.95 Q22.75 33.0 22.3 31.35 L21.65 30.55 Q20.7 33.55 19.6 35.3 15.2 36.15 11.8 33.6 L11.25 31.35 Q12.2 22.75 18.3 19.8" fill="#848631" fill-rule="evenodd" stroke="none"/>
      <path d="M11.25 31.35 L11.1 29.6 Q11.1 25.5 13.5 22.6 15.55 20.15 18.3 19.8 12.2 22.75 11.25 31.35" fill="#e1e690" fill-rule="evenodd" stroke="none"/>
      <path d="M19.6 35.3 Q20.7 33.55 21.65 30.55 L22.3 31.35 Q22.75 33.0 21.95 34.95 L21.05 36.6 Q22.7 35.35 23.65 33.55 L24.35 31.75 24.9 31.75 25.45 31.75 Q24.9 33.75 23.6 35.35 21.3 38.1 18.1 38.1 15.3 38.1 13.2 36.0 L12.8 35.55 13.25 36.0 Q14.6 37.15 17.1 37.45 17.9 37.2 18.6 36.55 L19.6 35.3" fill="#aead40" fill-rule="evenodd" stroke="none"/>
      <path d="M20.55 19.85 Q23.1 20.3 25.0 22.6 26.5 24.45 27.05 26.8 27.4 28.1 27.4 29.6 27.4 33.65 25.0 36.55 22.6 39.45 19.25 39.45 15.85 39.45 13.5 36.55 L13.05 36.0 12.65 35.4 12.8 35.55 13.2 36.0 Q15.3 38.1 18.1 38.1 21.3 38.1 23.6 35.35 24.9 33.75 25.45 31.75 25.85 30.35 25.85 28.75 25.85 24.85 23.6 22.15 22.25 20.5 20.55 19.85" fill="#c6cd3e" fill-rule="evenodd" stroke="none"/>
      <path d="M18.6 36.55 Q17.9 37.2 17.1 37.45 14.6 37.15 13.25 36.0 15.45 36.8 18.6 36.55 M25.45 31.75 L24.9 31.75 Q25.6 30.4 25.85 28.75 25.85 30.35 25.45 31.75 M23.65 33.55 Q22.7 35.35 21.05 36.6 L21.95 34.95 23.65 33.55" fill="#a3a33a" fill-rule="evenodd" stroke="none"/>
      <path d="M12.65 35.4 L12.45 35.05 12.25 34.6 11.8 33.6 Q15.2 36.15 19.6 35.3 L18.6 36.55 Q15.45 36.8 13.25 36.0 L12.8 35.55 12.65 35.4" fill="#8f8f34" fill-rule="evenodd" stroke="none"/>
      <path d="M18.3 19.8 L19.25 19.75 20.55 19.85 Q23.1 20.3 25.0 22.6 26.5 24.45 27.05 26.8 27.4 28.1 27.4 29.6 27.4 33.65 25.0 36.55 22.6 39.45 19.25 39.45 15.85 39.45 13.5 36.55 L13.05 36.0 12.65 35.4 12.45 35.05 M12.25 34.6 L11.8 33.6 11.25 31.35 11.1 29.6 Q11.1 25.5 13.5 22.6 15.55 20.15 18.3 19.8 Z" fill="none" stroke="#6c6c24" stroke-linecap="round" stroke-linejoin="round" stroke-opacity="0.5019608" stroke-width="1.0"/>
      <path d="M20.1 25.45 Q20.1 27.1 19.2 28.25 18.3 29.45 17.0 29.45 L15.55 29.25 Q14.6 29.1 12.8 32.6 L14.5 27.85 Q13.85 26.8 13.85 25.45 13.85 23.8 14.75 22.6 L15.0 22.4 15.8 23.4 15.8 21.75 Q16.35 21.45 17.0 21.45 18.3 21.45 19.2 22.6 L19.75 23.65 18.2 25.1 20.05 24.65 20.1 25.45" fill="#aead40" fill-rule="evenodd" stroke="none"/>
      <path d="M18.2 26.15 Q18.0 27.25 17.25 27.85 16.6 28.5 15.85 28.35 15.05 28.15 14.7 27.3 14.35 26.45 14.55 25.35 L14.7 24.9 14.05 24.4 Q13.8 23.9 13.9 23.35 14.05 22.8 14.45 22.5 14.9 22.15 15.4 22.25 L16.15 22.85 16.3 23.2 17.0 23.2 Q17.75 23.35 18.05 24.2 18.45 25.1 18.2 26.15" fill="#f8f8e4" fill-rule="evenodd" stroke="none"/>
      <path d="M25.0 32.5 Q25.85 32.25 26.0 30.7 26.15 29.2 25.7 26.95 25.25 24.65 24.25 23.4 23.25 22.05 22.7 22.05 22.1 22.0 23.1 24.55 24.1 27.15 23.45 29.25 22.85 31.35 23.45 32.05 24.1 32.7 25.0 32.5" fill="#51511e" fill-opacity="0.49019608" fill-rule="evenodd" stroke="none"/>
      <path d="M31.25 15.8 Q26.85 19.05 23.05 21.35 L22.6 20.8 Q24.3 17.35 30.05 14.55 L31.25 15.8" fill="#575130" fill-rule="evenodd" stroke="none"/>
      <path d="M23.05 21.35 Q26.85 19.05 31.25 15.8 M30.05 14.55 Q24.3 17.35 22.6 20.8" fill="none" stroke="#382510" stroke-linecap="round" stroke-linejoin="round" stroke-opacity="0.2" stroke-width="0.4"/>
      <path d="M31.25 15.8 L30.05 14.55" fill="none" stroke="#382510" stroke-linecap="round" stroke-linejoin="round" stroke-opacity="0.15294118" stroke-width="0.2"/>
      <path d="M27.35 18.0 Q29.25 17.0 30.1 15.4 L30.15 15.3 31.55 14.1 Q31.55 16.0 29.55 17.35 L26.3 19.3 27.35 18.0" fill="#916c1a" fill-rule="evenodd" stroke="none"/>
      <path d="M27.35 18.0 L26.3 19.3 M31.55 14.1 L30.15 15.3" fill="none" stroke="#382510" stroke-linecap="round" stroke-linejoin="round" stroke-opacity="0.15294118" stroke-width="0.2"/>
      <path d="M30.15 15.3 L30.1 15.4 Q29.25 17.0 27.35 18.0 M26.3 19.3 L29.55 17.35 Q31.55 16.0 31.55 14.1" fill="none" stroke="#382510" stroke-linecap="round" stroke-linejoin="round" stroke-opacity="0.2" stroke-width="0.4"/>
      <path d="M30.05 17.75 L32.5 17.75 Q27.25 19.4 23.5 22.9 L23.1 22.6 Q24.7 19.65 30.05 17.75" fill="#756846" fill-rule="evenodd" stroke="none"/>
      <path d="M30.05 17.75 Q24.7 19.65 23.1 22.6 M23.5 22.9 Q27.25 19.4 32.5 17.75" fill="none" stroke="#382510" stroke-linecap="round" stroke-linejoin="round" stroke-opacity="0.2" stroke-width="0.4"/>
      <path d="M32.5 17.75 L30.05 17.75 Z" fill="none" stroke="#382510" stroke-linecap="round" stroke-linejoin="round" stroke-opacity="0.15294118" stroke-width="0.2"/>
      <path d="M22.55 22.65 Q23.85 19.45 28.6 17.2 L31.0 17.25 Q26.2 19.15 23.1 22.95 L22.55 22.65" fill="#afa57a" fill-rule="evenodd" stroke="none"/>
      <path d="M28.6 17.2 Q23.85 19.45 22.55 22.65 M23.1 22.95 Q26.2 19.15 31.0 17.25" fill="none" stroke="#382510" stroke-linecap="round" stroke-linejoin="round" stroke-opacity="0.2" stroke-width="0.4"/>
      <path d="M31.0 17.25 L28.6 17.2 Z" fill="none" stroke="#382510" stroke-linecap="round" stroke-linejoin="round" stroke-opacity="0.15294118" stroke-width="0.2"/>
      <path d="M27.65 14.35 L29.2 15.25 Q25.8 19.55 22.7 22.7 L22.2 22.3 Q22.9 18.5 27.65 14.35" fill="#b8b188" fill-rule="evenodd" stroke="none"/>
      <path d="M27.65 14.35 Q22.9 18.5 22.2 22.3 M22.7 22.7 Q25.8 19.55 29.2 15.25" fill="none" stroke="#382510" stroke-linecap="round" stroke-linejoin="round" stroke-opacity="0.2" stroke-width="0.4"/>
      <path d="M29.2 15.25 L27.65 14.35 Z" fill="none" stroke="#382510" stroke-linecap="round" stroke-linejoin="round" stroke-opacity="0.15294118" stroke-width="0.2"/>
    </g>
  </defs>
</svg>
