<?xml version="1.0" encoding="UTF-8" standalone="no"?>
<svg xmlns:xlink="http://www.w3.org/1999/xlink" height="440.0px" width="440.0px" xmlns="http://www.w3.org/2000/svg">
  <g transform="matrix(10.0, 0.0, 0.0, 10.0, 0.0, 0.0)">
    <use height="44.0" transform="matrix(1.0, 0.0, 0.0, 1.0, 0.0, 0.0)" width="44.0" xlink:href="#shape0"/>
    <use height="18.15" transform="matrix(0.9973, -0.0708, 0.0708, 0.9973, 5.6882, 14.6792)" width="21.3" xlink:href="#sprite0"/>
    <use height="22.35" transform="matrix(1.0, 0.0, 0.0, 1.0, 4.25, 8.9)" width="34.45" xlink:href="#shape2"/>
    <use height="7.85" transform="matrix(0.801, -0.9694, 0.9694, 0.801, 31.3665, 22.4419)" width="5.5" xlink:href="#sprite1"/>
    <use height="65.0" transform="matrix(0.3457, -0.0778, 0.0623, 0.2858, 7.0384, 15.4917)" width="65.0" xlink:href="#sprite2"/>
  </g>
  <defs>
    <g id="shape0" transform="matrix(1.0, 0.0, 0.0, 1.0, 0.0, 0.0)">
      <path d="M44.0 44.0 L0.0 44.0 0.0 0.0 44.0 0.0 44.0 44.0" fill="#43adca" fill-opacity="0.0" fill-rule="evenodd" stroke="none"/>
      <path d="M28.15 18.8 L28.15 18.75 24.4 18.45 19.8 17.6 17.8 17.0 15.2 15.9 14.5 15.55 13.15 14.7 Q11.55 13.45 11.7 12.15 L11.75 12.0 11.8 11.85 11.9 11.55 Q12.65 10.05 16.0 9.35 L19.2 8.95 24.45 9.2 Q29.95 9.9 33.65 11.7 36.9 13.3 37.1 15.0 L37.1 15.2 37.1 15.5 Q36.9 16.95 34.75 17.75 L32.85 18.25 29.75 18.75 29.4 18.75 28.15 18.8 M16.7 17.05 L18.7 17.65 22.05 18.35 21.6 32.55 21.3 32.5 16.6 31.7 13.3 30.8 16.7 17.05" fill="#ffcf2b" fill-rule="evenodd" stroke="none"/>
      <path d="M19.2 8.95 L16.0 9.35 Q12.65 10.05 11.9 11.55 L11.8 11.85 11.75 12.0 11.7 12.15 Q11.55 13.45 13.15 14.7 L14.5 15.55 15.2 15.9 17.8 17.0 19.8 17.6 24.4 18.45 28.15 18.75 28.15 18.8 28.1 18.8 28.15 18.8 29.4 18.75 29.75 18.75 29.7 32.8 27.3 32.9 27.1 32.9 28.1 18.8 27.05 18.8 23.3 18.5 22.05 18.35 18.7 17.65 16.7 17.05 14.1 15.95 13.4 15.6 12.05 14.75 13.4 15.6 9.15 29.05 6.5 27.2 12.05 14.75 Q10.45 13.5 10.6 12.2 L10.65 12.05 10.7 11.9 10.8 11.6 Q11.55 10.1 14.9 9.4 L19.2 8.95" fill="#fefefe" fill-rule="evenodd" stroke="none"/>
      <path d="M10.6 12.2 Q10.45 13.5 12.05 14.75 L6.5 27.2 Q5.25 25.9 5.4 24.6 L5.65 23.85 10.55 12.2 10.6 12.2 M13.4 15.6 L14.1 15.95 16.7 17.05 13.3 30.8 Q11.4 30.15 9.75 29.35 L9.15 29.05 13.4 15.6 M22.05 18.35 L23.3 18.5 27.05 18.8 28.1 18.8 27.1 32.9 27.05 32.9 21.6 32.55 22.05 18.35" fill="#edb810" fill-rule="evenodd" stroke="none"/>
      <path d="M29.75 18.75 L32.85 18.25 34.75 17.75 Q34.3 26.85 29.75 32.8 L29.7 32.8 29.75 18.75" fill="#b98900" fill-rule="evenodd" stroke="none"/>
      <path d="M34.75 17.75 Q36.9 16.95 37.1 15.5 L37.15 15.5 38.55 27.8 38.65 28.35 38.6 28.7 Q38.3 31.15 33.25 32.25 L29.75 32.8 Q34.3 26.85 34.75 17.75" fill="#8f6900" fill-rule="evenodd" stroke="none"/>
      <path d="M19.2 8.95 L14.9 9.4 Q11.55 10.1 10.8 11.6 L10.7 11.9 10.65 12.05 10.6 12.2 Q10.45 13.5 12.05 14.75 L13.4 15.6 14.1 15.95 16.7 17.05 18.7 17.65 22.05 18.35 23.3 18.5 27.05 18.8 28.1 18.8 28.15 18.8 29.4 18.75 29.75 18.75 32.85 18.25 34.75 17.75 Q36.9 16.95 37.1 15.5 L37.1 15.2 37.1 15.0 Q36.9 13.3 33.65 11.7 29.95 9.9 24.45 9.2 L19.2 8.95 M37.1 15.2 L37.15 15.5 38.55 27.8 M29.75 32.8 L29.7 32.8 M5.65 23.85 L10.55 12.2" fill="none" stroke="#382510" stroke-linecap="round" stroke-linejoin="round" stroke-opacity="0.22352941" stroke-width="0.05"/>
      <path d="M38.55 27.8 L38.65 28.35 38.6 28.7 Q38.3 31.15 33.25 32.25 L29.75 32.8 M29.7 32.8 L27.3 32.9 27.1 32.9 M27.05 32.9 L21.6 32.55 21.3 32.5 16.6 31.7 13.3 30.8 Q11.4 30.15 9.75 29.35 L9.15 29.05 6.5 27.2 Q5.25 25.9 5.4 24.6 L5.65 23.85" fill="none" stroke="#382510" stroke-linecap="round" stroke-linejoin="round" stroke-opacity="0.4" stroke-width="0.05"/>
      <path d="M20.3 16.5 L20.35 16.35 Q21.05 13.9 23.0 10.4 L23.05 10.3 24.4 10.4 25.35 10.55 25.45 10.6 Q28.7 11.15 31.0 12.25 33.3 13.35 33.45 14.6 L33.45 14.75 33.45 14.95 Q33.3 16.35 30.45 16.9 L23.6 17.1 23.3 17.05 20.3 16.5" fill="#8f6900" fill-rule="evenodd" stroke="none"/>
      <path d="M23.6 17.1 L30.45 16.9 Q33.3 16.35 33.45 14.95 L33.45 14.75 33.45 14.6 Q33.3 13.35 31.0 12.25 28.7 11.15 25.45 10.6 L25.45 10.55 Q29.4 11.1 32.05 12.4 34.35 13.5 34.5 14.75 L34.5 14.9 34.5 15.1 Q34.35 16.5 31.5 17.05 L24.65 17.25 23.6 17.1" fill="#fefefe" fill-rule="evenodd" stroke="none"/>
      <path d="M23.05 10.3 L23.0 10.4 Q21.05 13.9 20.35 16.35 L20.3 16.5 16.95 15.25 Q14.25 13.95 14.45 12.6 L14.55 12.4 14.6 12.15 Q15.2 11.1 17.55 10.55 L23.05 10.3" fill="#735200" fill-rule="evenodd" stroke="none"/>
      <path d="M20.3 16.5 L23.3 17.05 M23.6 17.1 L30.45 16.9 Q33.3 16.35 33.45 14.95 L33.45 14.75 33.45 14.6 Q33.3 13.35 31.0 12.25 28.7 11.15 25.45 10.6 L25.35 10.55 24.4 10.4 23.05 10.3 17.55 10.55 Q15.2 11.1 14.6 12.15 L14.55 12.4 14.45 12.6 Q14.25 13.95 16.95 15.25 L20.3 16.5 Z" fill="none" stroke="#382510" stroke-linecap="round" stroke-linejoin="round" stroke-opacity="0.22352941" stroke-width="0.05"/>
      <path d="M14.6 25.75 L13.7 25.9 Q13.25 25.65 13.05 24.9 12.9 24.25 13.1 23.6 13.3 22.9 13.75 22.55 L14.7 22.45 Q15.15 22.7 15.3 23.4 L15.3 24.8 Q15.1 25.45 14.6 25.75" fill="#543a01" fill-rule="evenodd" stroke="none"/>
      <path d="M14.6 25.75 L13.7 25.9 Q13.25 25.65 13.05 24.9 12.9 24.25 13.1 23.6 13.3 22.9 13.75 22.55 L14.7 22.45 Q15.15 22.7 15.3 23.4 L15.3 24.8 Q15.1 25.45 14.6 25.75 Z" fill="none" stroke="#382510" stroke-linecap="round" stroke-linejoin="round" stroke-opacity="0.22352941" stroke-width="0.05"/>
      <path d="M15.65 21.75 L14.7 21.9 Q14.25 21.65 14.1 20.95 14.0 20.3 14.25 19.6 14.5 18.95 15.0 18.65 L15.95 18.6 Q16.45 18.85 16.5 19.5 L16.45 20.8 15.65 21.75" fill="#543a01" fill-rule="evenodd" stroke="none"/>
      <path d="M15.65 21.75 L14.7 21.9 Q14.25 21.65 14.1 20.95 14.0 20.3 14.25 19.6 14.5 18.95 15.0 18.65 L15.95 18.6 Q16.45 18.85 16.5 19.5 L16.45 20.8 15.65 21.75 Z" fill="none" stroke="#382510" stroke-linecap="round" stroke-linejoin="round" stroke-opacity="0.22352941" stroke-width="0.05"/>
    </g>
    <g id="sprite0" transform="matrix(1.0, 0.0, 0.0, 1.0, 10.65, 9.05)">
      <use height="18.15" transform="matrix(1.0, 0.0, 0.0, 1.0, -10.65, -9.05)" width="21.3" xlink:href="#shape1"/>
    </g>
    <g id="shape1" transform="matrix(1.0, 0.0, 0.0, 1.0, 10.65, 9.05)">
      <path d="M2.55 -0.75 L2.65 -0.75 5.15 -0.35 5.85 -0.5 Q6.45 -1.1 6.9 -1.2 L7.95 -1.5 8.35 -1.45 8.7 -1.4 9.05 -1.3 9.1 -1.25 9.15 -1.25 9.2 -1.2 Q9.9 -0.8 10.35 0.15 10.8 1.35 10.6 2.2 10.25 3.55 8.3 4.05 L7.75 4.3 7.65 4.55 7.65 5.6 7.65 6.8 Q7.35 7.9 6.05 8.65 4.65 9.35 3.35 9.0 2.7 8.85 2.2 8.3 L1.8 7.75 1.6 7.25 Q1.25 6.45 1.5 5.8 1.8 5.1 1.65 4.05 L1.65 3.95 1.65 3.85 1.55 3.7 1.4 3.25 0.75 2.5 Q-0.15 1.8 -1.3 1.5 L-2.05 1.35 -2.75 1.45 Q-4.3 1.7 -5.4 2.55 -6.45 3.35 -7.8 3.2 L-7.85 3.2 -8.4 3.1 -9.1 2.85 -9.65 2.55 -9.75 2.4 -10.1 2.05 Q-10.65 1.4 -10.65 0.5 L-10.6 0.0 -10.55 -0.25 Q-10.4 -1.0 -9.25 -1.85 L-8.5 -2.65 -8.2 -3.35 -8.25 -3.55 -9.2 -5.25 -9.4 -5.9 -9.35 -6.95 -8.9 -8.0 -8.1 -8.75 -7.5 -9.0 -7.35 -9.0 -7.3 -9.0 -7.1 -9.05 -5.85 -8.9 -5.6 -8.85 Q-4.8 -8.65 -4.5 -8.3 L-3.8 -6.7 -3.65 -4.8 Q-3.6 -3.6 -3.35 -3.25 L-2.7 -2.9 -2.35 -2.75 -0.3 -1.8 1.55 -1.0 2.55 -0.75" fill="#8f6900" fill-rule="evenodd" stroke="none"/>
    </g>
    <g id="shape2" transform="matrix(1.0, 0.0, 0.0, 1.0, -4.25, -8.9)">
      <path d="M16.45 21.15 L18.2 22.1 20.35 24.0 Q20.75 21.15 22.85 20.7 L22.85 20.65 23.25 20.7 23.6 20.75 23.95 20.85 24.0 20.9 24.05 20.9 Q24.7 21.25 24.7 22.3 24.7 23.25 22.7 24.25 20.75 25.15 20.7 27.4 L20.7 27.55 20.55 28.45 21.1 28.05 21.2 28.1 Q21.65 27.85 21.15 29.25 20.65 30.65 19.25 30.85 17.85 31.05 17.1 30.45 L16.7 29.9 16.5 29.4 Q16.15 28.6 16.4 27.95 16.7 27.25 16.55 26.2 L16.55 26.1 16.55 26.05 16.55 26.0 16.45 25.85 16.3 25.4 16.35 25.35 Q15.9 24.15 15.15 23.75 14.15 23.2 12.5 22.95 10.85 22.65 10.4 21.85 L10.55 22.4 Q10.55 23.6 9.5 24.5 8.45 25.45 7.1 25.35 L7.05 25.35 6.5 25.25 5.8 25.0 5.25 24.7 5.15 24.55 4.8 24.2 Q4.25 23.55 4.25 22.65 L4.3 22.15 4.35 21.9 Q4.5 21.15 5.65 20.3 L6.4 19.5 7.2 20.0 6.7 18.8 6.65 18.6 5.7 16.9 5.5 16.25 5.55 15.2 Q5.7 14.6 6.0 14.15 6.3 13.65 6.8 13.4 7.05 13.2 7.4 13.15 L7.55 13.15 7.6 13.15 7.8 13.1 9.05 13.25 9.3 13.3 9.55 13.45 Q10.45 13.95 10.4 15.25 L10.3 16.55 9.8 17.05 9.6 17.05 Q10.15 17.9 11.15 18.6 L11.55 18.9 12.2 19.25 12.55 19.4 14.6 20.35 16.45 21.15" fill="#ffcf2b" fill-rule="evenodd" stroke="none"/>
      <path d="M7.55 13.15 L7.6 13.15 7.55 13.15" fill="#b98900" fill-rule="evenodd" stroke="none"/>
      <path d="M16.45 21.15 L17.45 21.4 17.55 21.4 20.05 21.8 20.75 21.65 Q21.35 21.05 21.8 20.95 L22.85 20.65 22.85 20.7 Q20.75 21.15 20.35 24.0 L18.2 22.1 16.45 21.15 M7.6 13.15 L7.8 13.1 7.6 13.15 M9.3 13.3 L9.6 13.4 9.55 13.45 9.3 13.3" fill="#dbac18" fill-rule="evenodd" stroke="none"/>
      <path d="M24.05 20.9 Q24.8 21.3 25.25 22.3 25.7 23.5 25.5 24.35 25.15 25.7 23.2 26.2 L22.65 26.45 22.55 26.7 22.55 27.75 22.55 28.95 Q22.25 30.05 20.95 30.8 19.55 31.5 18.25 31.15 17.6 31.0 17.1 30.45 17.85 31.05 19.25 30.85 20.65 30.65 21.15 29.25 21.65 27.85 21.2 28.1 L21.1 28.05 20.55 28.45 20.7 27.55 20.7 27.4 Q20.75 25.15 22.7 24.25 24.7 23.25 24.7 22.3 24.7 21.25 24.05 20.9 M16.3 25.4 L15.65 24.65 Q14.75 23.95 13.6 23.65 L12.85 23.5 12.15 23.6 Q10.6 23.85 9.5 24.7 8.45 25.5 7.1 25.35 8.45 25.45 9.5 24.5 10.55 23.6 10.55 22.4 L10.4 21.85 Q10.85 22.65 12.5 22.95 14.15 23.2 15.15 23.75 15.9 24.15 16.35 25.35 L16.3 25.4 M6.4 19.5 L6.7 18.8 7.2 20.0 6.4 19.5 M9.6 13.4 L10.4 13.85 Q10.75 14.25 11.1 15.45 L11.25 17.35 Q11.3 18.55 11.55 18.9 L11.15 18.6 Q10.15 17.9 9.6 17.05 L9.8 17.05 10.3 16.55 10.4 15.25 Q10.45 13.95 9.55 13.45 L9.6 13.4 M22.65 26.45 Q21.45 26.85 20.7 27.4 21.45 26.85 22.65 26.45" fill="#b88614" fill-rule="evenodd" stroke="none"/>
      <path d="M22.85 20.65 L21.8 20.95 Q21.35 21.05 20.75 21.65 L20.05 21.8 17.55 21.4 17.45 21.4 16.45 21.15 M22.85 20.65 L23.25 20.7 23.6 20.75 23.95 20.85 M24.0 20.9 L24.05 20.9 Q24.8 21.3 25.25 22.3 25.7 23.5 25.5 24.35 25.15 25.7 23.2 26.2 L22.65 26.45 22.55 26.7 22.55 27.75 22.55 28.95 Q22.25 30.05 20.95 30.8 19.55 31.5 18.25 31.15 17.6 31.0 17.1 30.45 L16.7 29.9 16.5 29.4 Q16.15 28.6 16.4 27.95 16.7 27.25 16.55 26.2 L16.55 26.1 M16.55 26.0 L16.45 25.85 16.3 25.4 15.65 24.65 Q14.75 23.95 13.6 23.65 L12.85 23.5 12.15 23.6 Q10.6 23.85 9.5 24.7 8.45 25.5 7.1 25.35 M7.05 25.35 L6.5 25.25 5.8 25.0 5.25 24.7 5.15 24.55 4.8 24.2 Q4.25 23.55 4.25 22.65 L4.3 22.15 4.35 21.9 Q4.5 21.15 5.65 20.3 L6.4 19.5 6.7 18.8 6.65 18.6 5.7 16.9 5.5 16.25 5.55 15.2 Q5.7 14.6 6.0 14.15 6.3 13.65 6.8 13.4 M7.4 13.15 L7.55 13.15 7.6 13.15 7.8 13.1 9.05 13.25 9.3 13.3 9.6 13.4 10.4 13.85 Q10.75 14.25 11.1 15.45 L11.25 17.35 Q11.3 18.55 11.55 18.9 L12.2 19.25 12.55 19.4 14.6 20.35 16.45 21.15 M20.7 27.4 Q21.45 26.85 22.65 26.45 M6.7 18.8 L7.2 20.0 M11.55 18.9 L11.15 18.6 Q10.15 17.9 9.6 17.05" fill="none" stroke="#000000" stroke-linecap="round" stroke-linejoin="round" stroke-opacity="0.3019608" stroke-width="0.05"/>
      <path d="M7.65 14.9 Q7.25 15.1 7.35 15.5 7.4 16.45 6.7 16.85 6.55 16.95 6.5 16.75 5.05 14.25 8.25 13.45 9.05 14.05 7.65 14.9" fill="#ffffff" fill-rule="evenodd" stroke="none"/>
      <path d="M7.65 14.9 Q7.25 15.1 7.35 15.5 7.4 16.45 6.7 16.85 6.55 16.95 6.5 16.75 5.05 14.25 8.25 13.45 9.05 14.05 7.65 14.9 Z" fill="none" stroke="#010101" stroke-linecap="round" stroke-linejoin="round" stroke-opacity="0.0" stroke-width="0.05"/>
      <path d="M6.1 21.95 Q5.75 22.3 6.0 22.8 6.25 23.25 5.8 23.05 4.85 22.75 5.15 21.75 5.45 20.75 6.45 20.4 7.05 21.05 6.1 21.95" fill="#ffffff" fill-rule="evenodd" stroke="none"/>
      <path d="M6.1 21.95 Q5.75 22.3 6.0 22.8 6.25 23.25 5.8 23.05 4.85 22.75 5.15 21.75 5.45 20.75 6.45 20.4 7.05 21.05 6.1 21.95 Z" fill="none" stroke="#010101" stroke-linecap="round" stroke-linejoin="round" stroke-opacity="0.0" stroke-width="0.05"/>
      <path d="M6.9 24.25 Q6.65 24.25 6.9 24.05 L7.05 23.95 Q8.15 24.5 6.9 24.25" fill="#ffffff" fill-rule="evenodd" stroke="none"/>
      <path d="M6.9 24.25 Q6.65 24.25 6.9 24.05 L7.05 23.95 Q8.15 24.5 6.9 24.25 Z" fill="none" stroke="#010101" stroke-linecap="round" stroke-linejoin="round" stroke-opacity="0.0" stroke-width="0.05"/>
      <path d="M23.05 22.25 Q22.45 22.55 21.95 23.05 21.75 23.25 21.65 22.95 21.4 21.8 22.55 21.3 L23.3 21.05 Q24.35 21.55 23.05 22.25" fill="#ffffff" fill-rule="evenodd" stroke="none"/>
      <path d="M23.05 22.25 Q22.45 22.55 21.95 23.05 21.75 23.25 21.65 22.95 21.4 21.8 22.55 21.3 L23.3 21.05 Q24.35 21.55 23.05 22.25 Z" fill="none" stroke="#010101" stroke-linecap="round" stroke-linejoin="round" stroke-opacity="0.0" stroke-width="0.05"/>
      <path d="M18.1 28.8 L18.3 29.1 Q19.7 30.05 18.2 29.95 L17.45 29.55 Q16.4 28.25 17.6 27.25 18.15 27.8 18.1 28.8" fill="#ffffff" fill-rule="evenodd" stroke="none"/>
      <path d="M18.1 28.8 L18.3 29.1 Q19.7 30.05 18.2 29.95 L17.45 29.55 Q16.4 28.25 17.6 27.25 18.15 27.8 18.1 28.8 Z" fill="none" stroke="#010101" stroke-linecap="round" stroke-linejoin="round" stroke-opacity="0.0" stroke-width="0.05"/>
      <path d="M16.55 24.75 L16.55 24.8 Q15.45 24.05 15.4 22.95 L15.45 22.95 Q16.8 23.5 16.55 24.75" fill="#ffffff" fill-rule="evenodd" stroke="none"/>
      <path d="M16.55 24.75 L16.55 24.8 Q15.45 24.05 15.4 22.95 L15.45 22.95 Q16.8 23.5 16.55 24.75 Z" fill="none" stroke="#010101" stroke-linecap="round" stroke-linejoin="round" stroke-opacity="0.0" stroke-width="0.05"/>
      <path d="M12.4 25.1 L12.15 24.65 Q10.75 20.75 14.05 18.85 L15.15 18.65 15.25 18.7 Q15.75 18.85 16.1 19.35 L16.25 19.75 15.5 20.85 Q14.65 21.7 14.45 22.3 L14.45 24.05 Q14.35 25.25 13.1 25.25 L12.4 25.1" fill="#ffcf2b" fill-rule="evenodd" stroke="none"/>
      <path d="M12.4 25.1 L13.1 25.25 Q14.35 25.25 14.45 24.05 L14.45 22.3 Q14.65 21.7 15.5 20.85 L16.25 19.75 16.25 20.45 15.6 21.4 Q14.45 22.15 15.0 23.65 15.2 24.25 14.9 24.8 14.65 25.35 14.05 25.6 L12.9 25.5 12.4 25.1" fill="#b88614" fill-rule="evenodd" stroke="none"/>
      <path d="M16.25 19.75 L16.1 19.35 Q15.75 18.85 15.25 18.7 L15.15 18.65 14.05 18.85 Q10.75 20.75 12.15 24.65 L12.4 25.1 M16.25 19.75 L16.25 20.45 15.6 21.4 Q14.45 22.15 15.0 23.65 15.2 24.25 14.9 24.8 14.65 25.35 14.05 25.6 L12.9 25.5 12.4 25.1" fill="none" stroke="#382510" stroke-linecap="round" stroke-linejoin="round" stroke-opacity="0.22352941" stroke-width="0.05"/>
      <path d="M13.9 20.55 Q13.45 20.8 13.5 21.25 13.5 22.15 12.95 22.7 12.8 22.85 12.75 22.6 11.8 20.05 14.45 19.0 15.4 19.65 13.9 20.55" fill="#ffffff" fill-rule="evenodd" stroke="none"/>
      <path d="M13.45 20.85 L13.05 21.35 12.45 21.45 12.05 21.1 Q11.9 20.8 12.05 20.45 L12.45 19.95 13.0 19.85 Q13.3 19.9 13.45 20.2 L13.45 20.85" fill="#ffffff" fill-rule="evenodd" stroke="none"/>
      <path d="M13.35 21.95 L13.3 22.55 12.95 22.1 12.2 22.2 11.55 21.85 10.4 22.3 11.3 21.45 Q11.0 20.9 11.3 20.2 11.5 19.55 12.05 19.2 L12.75 18.9 Q13.4 18.5 13.8 17.5 13.35 18.65 13.65 19.1 L14.1 19.7 Q14.3 20.25 14.15 20.9 L13.4 21.9 13.35 21.95 M13.45 20.85 L13.45 20.2 Q13.3 19.9 13.0 19.85 L12.45 19.95 12.05 20.45 Q11.9 20.8 12.05 21.1 L12.45 21.45 13.05 21.35 13.45 20.85" fill="#ffffff" fill-opacity="0.3019608" fill-rule="evenodd" stroke="none"/>
      <path d="M12.75 21.05 L11.45 21.95 12.5 20.35 11.55 18.35 12.85 20.15 17.5 15.8 13.25 20.65 14.75 23.95 12.75 21.05" fill="#ffffff" fill-rule="evenodd" stroke="none"/>
      <path d="M33.6 13.95 L33.2 14.45 32.6 14.55 Q32.35 14.5 32.2 14.2 32.05 13.9 32.2 13.55 L32.6 13.05 33.15 12.95 33.6 13.3 33.6 13.95" fill="#ffffff" fill-rule="evenodd" stroke="none"/>
      <path d="M33.6 13.95 L33.6 13.3 33.15 12.95 32.6 13.05 32.2 13.55 Q32.05 13.9 32.2 14.2 32.35 14.5 32.6 14.55 L33.2 14.45 33.6 13.95 M33.5 15.05 L33.45 15.65 33.1 15.2 32.35 15.3 Q31.95 15.2 31.7 14.95 L30.55 15.4 31.45 14.55 Q31.15 14.0 31.45 13.3 31.65 12.65 32.2 12.3 L32.9 12.0 Q33.55 11.6 33.95 10.6 33.5 11.75 33.8 12.2 L34.25 12.8 Q34.45 13.35 34.3 14.0 L33.55 15.0 33.5 15.05" fill="#ffffff" fill-opacity="0.3019608" fill-rule="evenodd" stroke="none"/>
      <path d="M32.9 14.15 L31.6 15.05 32.65 13.45 31.7 11.45 33.0 13.25 37.65 8.9 33.4 13.75 34.9 17.05 32.9 14.15" fill="#ffffff" fill-rule="evenodd" stroke="none"/>
      <path d="M33.55 25.0 L33.55 24.95 33.4 24.5 Q33.05 23.6 33.2 22.6 L33.25 22.5 36.0 23.15 35.95 23.25 Q35.85 23.7 35.9 24.1 L36.1 24.8 Q36.25 25.45 36.65 25.6 L35.05 25.25 33.65 25.05 33.55 25.0 M33.55 21.7 L33.65 21.5 34.0 21.0 34.15 20.8 34.25 20.75 35.9 21.1 35.95 21.15 37.5 21.5 Q37.05 21.4 36.6 21.9 L36.3 22.35 33.55 21.7" fill="#ffcf2b" fill-rule="evenodd" stroke="none"/>
      <path d="M37.5 21.5 L37.6 21.5 Q38.1 21.55 38.3 22.25 38.6 23.0 38.4 23.8 L38.35 24.1 38.15 24.6 37.7 25.2 Q37.25 25.65 36.75 25.6 L36.65 25.6 Q36.25 25.45 36.1 24.8 L35.9 24.1 Q35.85 23.7 35.95 23.25 L36.0 23.15 36.25 22.45 36.3 22.35 36.6 21.9 Q37.05 21.4 37.5 21.5" fill="#b98900" fill-rule="evenodd" stroke="none"/>
      <path d="M33.25 22.5 L33.55 21.7 36.3 22.35 36.25 22.45 36.0 23.15 33.25 22.5" fill="#ffffff" fill-rule="evenodd" stroke="none"/>
      <path d="M34.25 20.75 Q34.7 20.35 35.15 20.5 L35.65 20.75 35.85 21.0 35.9 21.1 34.25 20.75 M33.75 25.2 L33.65 25.15 33.55 25.0 33.65 25.05 35.05 25.25 34.2 25.45 33.75 25.2" fill="#432f01" fill-rule="evenodd" stroke="none"/>
      <path d="M38.15 24.6 L38.7 28.45 Q38.45 29.5 37.8 30.15 L33.75 25.2 34.2 25.45 35.05 25.25 36.65 25.6 36.75 25.6 Q37.25 25.65 37.7 25.2 L38.15 24.6" fill="#332200" fill-opacity="0.3019608" fill-rule="evenodd" stroke="none"/>
      <path d="M33.55 25.0 L33.55 24.95 33.4 24.5 Q33.05 23.6 33.2 22.6 L33.25 22.5 33.55 21.7 33.65 21.5 34.0 21.0 34.15 20.8 34.25 20.75 Q34.7 20.35 35.15 20.5 L35.65 20.75 M35.85 21.0 L35.9 21.1 35.95 21.15 37.5 21.5 37.6 21.5 Q38.1 21.55 38.3 22.25 38.6 23.0 38.4 23.8 L38.35 24.1 38.15 24.6 37.7 25.2 Q37.25 25.65 36.75 25.6 L36.65 25.6 Q36.25 25.45 36.1 24.8 L35.9 24.1 Q35.85 23.7 35.95 23.25 L36.0 23.15 36.25 22.45 36.3 22.35 36.6 21.9 Q37.05 21.4 37.5 21.5 M33.75 25.2 L33.65 25.15 33.55 25.0 33.65 25.05 35.05 25.25 36.65 25.6 M34.25 20.75 L35.9 21.1 M35.05 25.25 L34.2 25.45 33.75 25.2" fill="none" stroke="#000000" stroke-linecap="round" stroke-linejoin="round" stroke-opacity="0.3019608" stroke-width="0.05"/>
    </g>
    <g id="sprite1" transform="matrix(1.0, 0.0, 0.0, 1.0, 2.75, 3.9)">
      <use height="7.85" transform="matrix(1.0, 0.0, 0.0, 1.0, -2.75, -3.9)" width="5.5" xlink:href="#shape3"/>
    </g>
    <g id="shape3" transform="matrix(1.0, 0.0, 0.0, 1.0, 2.75, 3.9)">
      <path d="M0.95 -1.35 L1.95 -0.75 2.55 0.1 2.65 0.5 2.75 1.2 2.75 1.4 Q2.7 2.4 2.0 3.1 L1.95 3.15 1.85 3.3 Q1.05 3.95 0.0 3.95 -1.15 3.95 -1.95 3.15 L-2.0 3.1 Q-2.75 2.3 -2.75 1.2 -2.75 0.25 -2.15 -0.5 L-1.95 -0.75 -1.9 -0.75 -1.65 -0.95 -1.45 -1.05 -0.8 -1.35 -0.35 -1.45 0.0 -1.5 0.95 -1.35 M0.35 -0.8 L0.35 -0.85 0.15 -1.15 -0.3 -1.3 -0.7 -1.15 -0.9 -0.8 -0.7 -0.4 -0.4 -0.25 -0.3 -0.25 Q0.0 -0.25 0.15 -0.4 L0.35 -0.8 M0.55 -1.15 L0.6 -1.05 Q1.4 0.1 0.2 0.9 L0.05 0.95 -0.05 1.0 Q-1.45 1.7 -2.3 0.5 -2.6 1.6 -2.1 2.45 -1.2 3.75 0.4 3.6 1.2 3.5 1.7 3.1 L1.85 2.95 2.45 1.7 2.5 1.35 2.55 0.8 2.4 0.2 2.4 0.15 Q1.7 -0.75 0.65 -1.1 L0.55 -1.15" fill="#ffcc33" fill-rule="evenodd" stroke="none"/>
      <path d="M0.35 -0.8 L0.15 -0.4 Q0.0 -0.25 -0.3 -0.25 L-0.4 -0.25 -0.7 -0.4 -0.9 -0.8 -0.7 -1.15 -0.3 -1.3 0.15 -1.15 0.35 -0.85 0.35 -0.8" fill="#ffffff" fill-rule="evenodd" stroke="none"/>
      <path d="M0.55 -1.15 L0.65 -1.1 Q1.7 -0.75 2.4 0.15 L2.4 0.2 2.55 0.8 2.5 1.35 2.45 1.7 1.85 2.95 1.7 3.1 Q1.2 3.5 0.4 3.6 -1.2 3.75 -2.1 2.45 -2.6 1.6 -2.3 0.5 -1.45 1.7 -0.05 1.0 L0.05 0.95 0.2 0.9 Q1.4 0.1 0.6 -1.05 L0.55 -1.15" fill="#b98900" fill-rule="evenodd" stroke="none"/>
      <path d="M2.0 3.1 Q2.7 2.4 2.75 1.4 L2.75 1.2 2.65 0.5 2.55 0.1 1.95 -0.75 0.95 -1.35" fill="none" stroke="#000000" stroke-linecap="round" stroke-linejoin="round" stroke-opacity="0.3019608" stroke-width="0.05"/>
      <path d="M1.85 3.3 L1.95 3.15 2.0 3.1" fill="none" stroke="#000000" stroke-linecap="round" stroke-linejoin="round" stroke-opacity="0.5529412" stroke-width="0.05"/>
      <path d="M0.95 -1.35 L0.0 -1.5 -0.35 -1.45 -0.8 -1.35 -1.45 -1.05 -1.65 -0.95 -1.9 -0.75 -1.95 -0.75 -2.15 -0.5 Q-2.75 0.25 -2.75 1.2 -2.75 2.3 -2.0 3.1 L-1.95 3.15 Q-1.15 3.95 0.0 3.95 1.05 3.95 1.85 3.3" fill="none" stroke="#000000" stroke-linecap="round" stroke-linejoin="round" stroke-opacity="0.4" stroke-width="0.05"/>
      <path d="M-0.25 -0.5 L-0.5 -0.1 -0.95 -0.05 -1.2 -0.25 -1.2 -0.7 -0.95 -1.05 -0.55 -1.1 -0.2 -0.9 -0.25 -0.5" fill="#ffffff" fill-rule="evenodd" stroke="none"/>
      <path d="M-0.3 0.3 L-0.3 0.75 -0.6 0.45 -1.1 0.45 -1.55 0.2 -2.35 0.55 -1.75 -0.05 -1.75 -0.85 -1.25 -1.6 -0.7 -1.8 Q-0.25 -2.05 -0.05 -2.7 L-0.1 -1.65 0.2 -1.25 Q0.4 -0.9 0.2 -0.45 L-0.3 0.3 M-0.25 -0.5 L-0.2 -0.9 -0.55 -1.1 -0.95 -1.05 -1.2 -0.7 -1.2 -0.25 -0.95 -0.05 -0.5 -0.1 -0.25 -0.5" fill="#ffffff" fill-opacity="0.3019608" fill-rule="evenodd" stroke="none"/>
      <path d="M-0.7 -0.35 L-1.6 0.35 -0.85 -0.8 -1.5 -2.15 -0.65 -0.9 2.55 -3.9 -0.4 -0.6 0.65 1.7 -0.7 -0.35" fill="#ffffff" fill-rule="evenodd" stroke="none"/>
    </g>
    <g id="sprite2" transform="matrix(1.0, 0.0, 0.0, 1.0, 32.5, 32.5)">
      <use height="65.0" transform="matrix(1.0, 0.0, 0.0, 1.0, -32.5, -32.5)" width="65.0" xlink:href="#shape4"/>
    </g>
    <g id="shape4" transform="matrix(1.0, 0.0, 0.0, 1.0, 32.5, 32.5)">
      <path d="M22.95 -23.0 Q32.5 -13.45 32.5 0.0 32.5 13.45 22.95 22.95 13.45 32.5 0.0 32.5 -13.45 32.5 -23.0 22.95 -32.5 13.45 -32.5 0.0 -32.5 -13.45 -23.0 -23.0 -13.45 -32.5 0.0 -32.5 13.45 -32.5 22.95 -23.0" fill="url(#gradient0)" fill-rule="evenodd" stroke="none"/>
    </g>
    <radialGradient cx="0" cy="0" gradientTransform="matrix(0.0406, 0.0, 0.0, 0.0406, 0.0, 0.0)" gradientUnits="userSpaceOnUse" id="gradient0" r="819.2" spreadMethod="pad">
      <stop offset="0.0" stop-color="#fff5a5"/>
      <stop offset="1.0" stop-color="#f5ad4e" stop-opacity="0.0"/>
    </radialGradient>
  </defs>
</svg>
