<?xml version="1.0" encoding="UTF-8" standalone="no"?>
<svg xmlns:xlink="http://www.w3.org/1999/xlink" height="440.0px" width="440.0px" xmlns="http://www.w3.org/2000/svg">
  <g transform="matrix(10.0, 0.0, 0.0, 10.0, 0.0, 0.0)">
    <use height="44.0" transform="matrix(1.0, 0.0, 0.0, 1.0, 0.0, 0.0)" width="44.0" xlink:href="#shape0"/>
    <use height="37.1" transform="matrix(0.9363, 0.0, 0.0, 0.9363, 3.6907, 4.1258)" width="22.65" xlink:href="#sprite0"/>
    <use height="37.1" transform="matrix(-1.0404, 0.0, 0.0, 1.0404, 40.8381, 3.5677)" width="22.65" xlink:href="#sprite0"/>
  </g>
  <defs>
    <g id="shape0" transform="matrix(1.0, 0.0, 0.0, 1.0, 0.0, 0.0)">
      <path d="M44.0 44.0 L0.0 44.0 0.0 0.0 44.0 0.0 44.0 44.0" fill="#43adca" fill-opacity="0.0" fill-rule="evenodd" stroke="none"/>
      <path d="M22.85 6.8 Q20.9 7.2 20.35 7.55 L20.15 7.7 20.55 7.95 20.75 8.05 22.45 8.5 23.8 8.75 Q26.7 9.25 28.25 9.95 L31.9 9.8 32.45 8.75 Q33.05 8.15 33.95 7.8 L34.6 7.7 Q34.5 7.4 33.85 7.1 L32.95 6.75 Q30.9 6.05 28.55 6.05 L23.5 6.65 M34.6 11.1 L34.75 12.25 35.0 13.3 35.1 13.0 35.2 12.9 36.15 10.3 36.7 9.25 35.65 9.85 35.25 10.0 Q34.6 10.3 34.6 11.1 M31.9 20.65 L31.15 20.7 32.3 21.45 33.0 22.05 33.5 22.65 34.6 24.35 35.3 23.35 35.4 22.55 35.25 22.45 34.5 20.7 34.15 20.1 34.15 19.3 34.2 19.3 34.15 19.25 33.95 18.95 Q31.9 13.9 31.75 11.6 L31.7 11.1 31.7 10.5 31.9 9.8 M35.0 13.3 L35.6 15.25 36.35 17.35 37.0 16.3 Q37.8 14.6 37.0 13.4 36.1 12.45 36.15 10.3 M10.75 18.75 Q13.2 19.55 16.1 19.45 L16.05 19.4 15.4 18.6 Q14.6 17.45 14.25 15.8 13.6 13.25 13.6 11.65 L13.6 11.55 Q13.55 10.55 15.05 9.9 L11.75 9.7 11.9 10.4 11.9 10.9 11.9 11.35 Q11.7 13.4 9.85 18.0 L9.7 18.25 9.7 18.3 9.2 18.65 8.2 18.7 7.95 18.55 7.55 18.3 7.45 18.1 Q7.2 17.7 7.4 17.25 L7.7 16.5 7.15 15.6 Q6.45 14.05 7.15 12.95 7.95 12.1 7.9 10.2 L7.45 9.25 Q6.55 8.55 6.7 7.85 6.5 6.0 9.85 4.9 12.1 4.15 14.75 4.15 L20.5 4.85 22.25 4.4 22.15 4.4 28.55 3.6 Q31.5 3.6 33.95 4.45 37.75 5.6 37.5 7.7 37.7 8.5 36.7 9.25 M36.35 17.35 L36.7 18.2 36.65 19.1 36.5 19.3 36.1 19.6 35.8 19.75 34.7 19.7 34.2 19.3 M36.0 29.05 L36.1 29.35 36.85 30.5 37.65 31.2 Q39.0 32.15 39.4 33.25 L39.4 33.55 Q40.75 34.35 40.85 36.4 40.55 37.8 39.9 38.85 38.65 40.95 35.95 41.75 L35.9 41.75 Q28.3 42.75 25.9 41.35 L23.45 39.9 23.4 39.9 Q22.65 38.85 22.35 36.75 21.65 36.35 20.95 36.0 20.5 35.5 20.35 34.0 20.05 35.9 19.4 36.8 L19.35 36.8 17.15 38.1 8.15 38.5 8.1 38.45 Q5.7 37.75 4.55 35.85 3.95 34.9 3.7 33.65 3.8 31.8 5.0 31.1 L5.0 30.8 Q5.35 29.8 6.6 29.0 L7.3 28.35 8.0 27.3 8.05 27.0 M21.4 31.5 L21.95 32.95 22.0 33.0 22.1 33.25 22.4 33.7 23.0 34.6 23.85 36.0 23.9 36.2 Q24.95 37.25 26.3 37.65 L28.95 37.85 29.25 37.8 29.55 37.8 Q31.7 36.7 33.7 36.2 L35.8 35.85 38.55 35.75 39.4 35.75 39.45 35.4 39.4 33.55 M34.6 24.35 Q35.45 26.0 36.0 28.35 M20.5 4.85 L19.2 5.35 19.05 5.4 Q17.9 5.9 17.45 6.6 L17.3 6.9 Q17.2 7.25 17.25 7.7 17.15 8.45 17.7 9.05 L17.9 9.25 18.25 9.55 Q19.3 10.25 21.45 10.8 L23.2 11.15 Q26.7 11.7 26.9 11.95 L26.85 12.5 26.85 13.1 26.85 13.15 26.8 13.35 26.6 14.4 26.25 16.05 26.05 16.9 M28.25 9.95 Q29.85 10.75 29.85 11.8 L29.8 11.95 Q29.8 13.75 29.1 16.55 28.7 18.35 27.85 19.65 L27.1 20.55 27.05 20.6 Q30.3 20.75 33.0 19.75 M17.0 16.1 L16.8 15.35 16.5 13.9 16.3 12.9 16.25 12.75 16.25 12.7 16.25 12.15 16.2 11.65 18.5 11.15 18.35 10.5 18.25 10.2 18.2 10.0 18.05 9.7 17.9 9.25 M18.5 11.15 L18.7 12.0 Q18.95 13.55 18.7 14.35 L18.65 14.5 18.25 15.0 18.1 15.15 17.7 15.75 Q17.6 16.15 17.85 16.75 L18.1 17.15 19.6 18.7 19.95 18.9 20.3 19.15 20.5 19.25 20.7 19.4 20.75 19.4 21.2 19.55 21.6 19.7 22.1 19.8 24.1 20.25 24.1 20.1 Q24.15 19.55 24.55 19.25 25.4 18.5 25.95 17.25 M11.75 9.7 L11.2 8.8 Q10.7 8.25 9.85 7.95 L9.3 7.85 9.95 7.3 10.8 7.0 Q12.6 6.4 14.75 6.4 L17.45 6.6 M17.7 9.05 Q16.0 9.4 15.05 9.9 M16.1 19.45 L16.65 19.9 17.55 20.15 Q18.1 20.1 18.45 19.8 L18.75 19.15 18.75 19.0 Q18.7 18.5 18.35 18.25 17.55 17.6 17.1 16.45 M11.75 19.45 L12.45 19.55 20.45 20.6 20.65 20.75 21.05 21.65 21.3 21.25 21.4 20.9 21.5 20.35 21.3 20.05 21.2 19.55 M19.95 18.9 L18.75 19.15 M12.45 19.55 Q11.9 19.8 11.4 20.2 L10.9 20.7 10.75 20.8 10.35 21.3 9.35 22.85 Q8.55 24.3 8.05 26.4 M20.95 26.45 L20.75 27.1 20.65 28.1 20.65 28.15 Q20.75 29.1 21.2 29.7 21.7 30.25 22.25 30.2 22.8 30.15 23.1 29.5 23.5 28.8 23.4 27.8 23.35 26.85 22.85 26.25 22.4 25.7 21.9 25.7 L21.8 25.7 Q21.5 25.75 21.3 25.95 L20.95 26.45 M20.65 28.15 L20.4 28.15 Q19.9 28.1 19.6 27.5 19.3 26.9 19.4 26.0 19.5 25.15 19.9 24.6 20.3 24.05 20.8 24.1 L21.35 24.4 21.5 23.65 21.5 23.55 21.15 22.25 21.05 21.65 M21.5 20.35 L21.6 19.7 M21.5 23.55 Q21.75 22.5 22.05 22.1 L22.25 21.9 31.15 20.7 M27.05 20.6 L26.45 21.1 25.4 21.4 Q24.85 21.35 24.4 21.0 L24.1 20.25 M21.35 24.4 L21.65 24.75 21.75 24.9 21.9 25.7 M7.45 9.25 L8.35 9.8 8.7 9.95 Q9.3 10.2 9.3 10.9 L9.2 11.95 8.95 12.95 8.4 14.6 7.7 16.5 M7.9 10.2 L8.75 12.5 8.95 12.95 M9.9 18.45 L9.75 19.0 9.4 19.55 8.7 21.1 8.6 21.2 8.65 21.9 9.35 22.85 M20.35 34.0 L20.35 33.9 20.5 32.0 20.5 31.9 20.6 30.8 20.3 31.2 20.25 31.3 19.7 32.15 19.0 33.3 18.95 33.45 16.8 34.8 14.4 34.95 14.15 34.9 13.9 34.9 Q11.95 33.9 10.15 33.5 L8.25 33.15 5.75 33.05 5.0 33.05 4.95 32.7 5.0 31.1 M22.35 36.75 L22.15 34.6 22.1 33.25 M20.6 30.8 L20.65 30.6 20.7 30.5 20.8 30.25 M20.65 30.6 L20.75 30.55 20.7 30.5 M20.35 34.0 L20.35 33.9" fill="none" stroke="#000000" stroke-linecap="round" stroke-linejoin="round" stroke-opacity="0.3019608" stroke-width="0.7000000000000001"/>
    </g>
    <g id="sprite0" transform="matrix(1.0, 0.0, 0.0, 1.0, 10.85, 16.9)">
      <use height="42.7" transform="matrix(-0.4124, 0.0, 0.0, 0.4124, 8.9481, -0.4182)" width="36.3" xlink:href="#sprite1"/>
      <use height="50.2" transform="matrix(-0.4124, 0.0, 0.0, 0.4124, 8.2003, -0.5147)" width="46.15" xlink:href="#sprite2"/>
      <use height="27.35" transform="matrix(1.0, 0.0, 0.0, 1.0, -7.7, -16.9)" width="19.5" xlink:href="#shape3"/>
      <use height="3.1" transform="matrix(0.9764, -0.1038, 0.0, 1.0, 2.9819, 1.0901)" width="2.7" xlink:href="#sprite3"/>
      <use height="6.05" transform="matrix(1.0, 0.0, 0.0, 1.0, -5.9, 1.95)" width="10.5" xlink:href="#shape5"/>
      <use height="3.1" transform="matrix(0.6212, -0.8354, 0.7512, 0.5564, 0.1969, 9.2154)" width="2.7" xlink:href="#sprite3"/>
      <use height="3.1" transform="matrix(0.7165, -0.0762, 0.0, 1.1703, -4.3172, 0.6389)" width="2.7" xlink:href="#sprite3"/>
      <use height="7.85" transform="matrix(1.0, 0.0, 0.0, 1.0, -3.7, 1.35)" width="6.35" xlink:href="#shape6"/>
      <use height="3.1" transform="matrix(-0.0055, -0.5975, 0.9732, -0.1128, -6.5511, 8.7314)" width="2.7" xlink:href="#sprite3"/>
      <use height="2.55" transform="matrix(1.0, 0.0, 0.0, 1.0, -6.0, 6.7)" width="8.3" xlink:href="#shape7"/>
    </g>
    <g id="sprite1" transform="matrix(1.0, 0.0, 0.0, 1.0, 16.0, 15.2)">
      <use height="42.7" transform="matrix(1.0, 0.0, 0.0, 1.0, -16.0, -15.2)" width="36.3" xlink:href="#shape1"/>
    </g>
    <g id="shape1" transform="matrix(1.0, 0.0, 0.0, 1.0, 16.0, 15.2)">
      <path d="M-13.25 5.0 L-13.15 5.5 Q-13.55 -0.5 -12.05 -4.1 L-7.4 -11.85 Q2.6 -17.2 11.2 -13.95 L18.85 -2.9 16.7 0.9 Q18.0 6.9 18.05 12.55 L17.75 17.8 Q9.55 22.25 -1.1 21.0 -7.05 19.4 -11.6 15.55 -7.05 19.4 -1.1 21.0 9.55 22.25 17.75 17.8 L18.05 12.55 20.2 16.25 Q20.55 20.8 19.45 23.9 11.95 27.4 4.65 27.5 L-1.75 26.95 -14.3 20.45 Q-16.2 18.15 -16.0 8.25 -15.5 5.75 -13.25 5.0 L-13.2 10.85 -13.25 5.0 M16.05 2.05 L16.7 0.9 16.05 2.05 M17.75 17.8 L17.6 19.1 17.75 17.8" fill="#1e1400" fill-rule="evenodd" stroke="none"/>
      <path d="M16.7 0.9 L18.85 -2.9 11.2 -13.95 Q2.6 -17.2 -7.4 -11.85 L-12.05 -4.1 Q-13.55 -0.5 -13.15 5.5 L-13.25 5.0 -13.2 10.85 M-11.6 15.55 Q-7.05 19.4 -1.1 21.0 9.55 22.25 17.75 17.8 L18.05 12.55 Q18.0 6.9 16.7 0.9 L16.05 2.05 M18.05 12.55 L20.2 16.25 Q20.55 20.8 19.45 23.9 11.95 27.4 4.65 27.5 L-1.75 26.95 -14.3 20.45 Q-16.2 18.15 -16.0 8.25 -15.5 5.75 -13.25 5.0 M17.6 19.1 L17.75 17.8" fill="none" stroke="#000000" stroke-linecap="round" stroke-linejoin="round" stroke-opacity="0.4" stroke-width="0.05"/>
    </g>
    <g id="sprite2" transform="matrix(1.0, 0.0, 0.0, 1.0, 19.4, 23.8)">
      <use height="50.2" transform="matrix(1.0, 0.0, 0.0, 1.0, -19.4, -23.8)" width="46.15" xlink:href="#shape2"/>
    </g>
    <g id="shape2" transform="matrix(1.0, 0.0, 0.0, 1.0, 19.4, 23.8)">
      <path d="M15.55 -4.7 L15.55 -4.25 15.3 -4.35 15.55 -4.7 M1.95 6.75 L1.9 6.75 1.9 6.65 1.95 6.75" fill="#879880" fill-rule="evenodd" stroke="none"/>
      <path d="M-17.15 5.0 L-17.3 4.95 -17.2 4.85 -17.15 5.0" fill="#6a7a66" fill-rule="evenodd" stroke="none"/>
      <path d="M15.4 25.4 L15.25 25.45 15.25 25.4 15.4 25.4 M-13.75 21.05 L-13.85 21.05 -13.75 21.05 M10.15 12.5 L10.2 12.45 10.15 12.5" fill="#32382f" fill-rule="evenodd" stroke="none"/>
      <path d="M1.9 6.75 L1.9 6.8 1.65 6.65 1.9 6.65 1.9 6.75 M-8.2 0.0 L-8.15 0.25 -8.25 0.05 -8.2 0.0" fill="#54604f" fill-rule="evenodd" stroke="none"/>
      <path d="M-13.85 21.05 Q-16.3 17.6 -16.75 8.7 L-16.75 8.45 -16.9 5.55 -16.15 6.65 Q-14.3 9.2 -12.85 12.0 L-12.7 12.45 Q-10.25 14.9 -7.1 15.9 -9.55 15.6 -11.45 14.85 L-13.85 21.05" fill="#1e1400" fill-rule="evenodd" stroke="none"/>
      <path d="M23.45 6.3 Q26.6 8.15 26.75 12.95 26.1 16.2 24.6 18.65 25.85 14.75 23.45 12.5 13.3 12.45 0.6 17.15 L0.4 17.3 -2.25 17.85 Q-4.3 18.2 -7.9 16.8 -8.95 20.9 -7.55 22.85 -6.1 26.2 15.25 25.4 L15.25 25.45 Q-2.4 27.7 -8.0 24.5 L-13.75 21.05 -13.85 21.05 -11.45 14.85 Q-9.55 15.6 -7.1 15.9 L-0.9 16.35 -0.2 16.25 0.45 16.2 Q5.5 13.65 10.15 12.5 16.8 10.95 21.5 11.45 L23.4 11.4 23.55 10.55 Q23.75 9.0 23.45 6.3" fill="#3d2800" fill-rule="evenodd" stroke="none"/>
      <path d="M24.6 18.65 Q21.65 23.55 15.4 25.4 L15.25 25.4 Q-6.1 26.2 -7.55 22.85 -8.95 20.9 -7.9 16.8 -4.3 18.2 -2.25 17.85 L0.4 17.3 0.6 17.15 Q13.3 12.45 23.45 12.5 25.85 14.75 24.6 18.65" fill="#583a00" fill-rule="evenodd" stroke="none"/>
      <path d="M-7.4 -22.1 L4.15 -23.6 Q12.25 -19.7 15.55 -5.85 L15.55 -5.75 15.55 -5.25 15.55 -4.7 15.3 -4.35 Q12.85 -0.7 15.25 0.9 12.55 3.45 -0.65 6.6 -9.4 5.85 -8.15 0.25 L-8.2 0.0 Q-10.9 -10.8 -7.4 -22.1" fill="#80503c" fill-rule="evenodd" stroke="none"/>
      <path d="M23.55 10.55 L23.4 11.4 21.5 11.45 Q16.8 10.95 10.15 12.5 5.5 13.65 0.45 16.2 L-0.2 16.25 Q-1.1 12.35 1.9 6.8 L1.9 6.75 1.95 6.75 Q23.75 -0.2 23.55 10.55 M10.2 12.45 L10.15 12.5 10.2 12.45" fill="#6e3f2c" fill-rule="evenodd" stroke="none"/>
      <path d="M1.9 6.8 Q-1.1 12.35 -0.2 16.25 L-0.9 16.35 -7.1 15.9 Q-10.25 14.9 -12.7 12.45 L-12.85 12.0 Q-14.3 9.2 -16.15 6.65 -15.65 3.3 -8.25 0.05 L-8.15 0.25 Q-9.4 5.85 -0.65 6.6 L1.65 6.65 1.9 6.8" fill="#583123" fill-rule="evenodd" stroke="none"/>
      <path d="M-16.9 5.55 L-17.15 5.0 -17.2 4.85 -19.4 -0.65 Q-19.3 -17.45 -17.05 -20.45 L-16.6 -20.9 -7.4 -22.1 Q-10.9 -10.8 -8.2 0.0 L-8.25 0.05 Q-15.65 3.3 -16.15 6.65 L-16.9 5.55" fill="#49281c" fill-rule="evenodd" stroke="none"/>
      <path d="M15.55 -4.25 Q15.85 -2.55 17.45 -0.8 L19.35 0.85 Q22.5 3.0 23.45 5.55 L23.45 6.3 Q23.75 9.0 23.55 10.55 23.75 -0.2 1.95 6.75 L1.9 6.65 1.65 6.65 -0.65 6.6 Q12.55 3.45 15.25 0.9 12.85 -0.7 15.3 -4.35 L15.55 -4.25" fill="#ab6a50" fill-rule="evenodd" stroke="none"/>
      <path d="M4.15 -23.6 L5.95 -23.8 M15.55 -4.7 L15.55 -4.25 Q15.85 -2.55 17.45 -0.8 L19.35 0.85 Q22.5 3.0 23.45 5.55 L23.45 6.3 Q26.6 8.15 26.75 12.95 26.1 16.2 24.6 18.65 21.65 23.55 15.4 25.4 L15.25 25.45 Q-2.4 27.7 -8.0 24.5 L-13.75 21.05 -13.85 21.05 Q-16.3 17.6 -16.75 8.7 L-16.75 8.45 -16.9 5.55 -17.15 5.0 -17.3 4.95 -17.2 4.85 -19.4 -0.65 Q-19.3 -17.45 -17.05 -20.45 L-16.6 -20.9 -7.4 -22.1 4.15 -23.6 Q12.25 -19.7 15.55 -5.85 M23.55 10.55 Q23.75 9.0 23.45 6.3 M10.15 12.5 Q16.8 10.95 21.5 11.45 L23.4 11.4 23.55 10.55 M-0.2 16.25 L0.45 16.2 Q5.5 13.65 10.15 12.5 L10.2 12.45 M-16.15 6.65 Q-14.3 9.2 -12.85 12.0 L-12.7 12.45 Q-10.25 14.9 -7.1 15.9 L-0.9 16.35 -0.2 16.25 M-17.2 4.85 L-17.15 5.0 M-16.15 6.65 L-16.9 5.55" fill="none" stroke="#000000" stroke-linecap="round" stroke-linejoin="round" stroke-opacity="0.3019608" stroke-width="0.05"/>
    </g>
    <g id="shape3" transform="matrix(1.0, 0.0, 0.0, 1.0, 7.7, 16.9)">
      <path d="M7.3 -6.9 L8.05 -6.95 Q7.1 -2.95 7.95 0.1 8.8 1.25 8.95 1.95 6.15 -0.3 7.3 -6.9 M-0.5 4.6 Q-5.05 3.75 -5.55 2.1 L-5.6 1.35 -5.5 1.25 -4.75 -0.45 Q-2.2 0.85 4.95 0.9 6.3 4.2 -0.5 4.6 M-3.9 -4.2 Q-3.85 -6.05 -4.2 -8.1 -0.5 -6.95 3.4 -6.85 -1.55 -5.45 -3.9 -4.2" fill="#80503c" fill-rule="evenodd" stroke="none"/>
      <path d="M7.3 -6.9 Q6.15 -0.3 8.95 1.95 9.15 2.6 8.85 2.8 6.15 5.2 0.9 4.8 L0.25 4.7 -0.5 4.6 Q6.3 4.2 4.95 0.9 -2.2 0.85 -4.75 -0.45 L-4.4 -1.0 Q-4.0 -2.55 -3.9 -4.2 -1.55 -5.45 3.4 -6.85 L7.3 -6.95 7.3 -6.9" fill="#49281c" fill-rule="evenodd" stroke="none"/>
      <path d="M8.95 1.95 Q8.8 1.25 7.95 0.1 7.1 -2.95 8.05 -6.95 L7.3 -6.9 M8.95 1.95 Q9.15 2.6 8.85 2.8 6.15 5.2 0.9 4.8 L0.25 4.7 -0.5 4.6 Q-5.05 3.75 -5.55 2.1 L-5.6 1.35 -5.5 1.25 -4.75 -0.45 -4.4 -1.0 Q-4.0 -2.55 -3.9 -4.2 -3.85 -6.05 -4.2 -8.1 -0.5 -6.95 3.4 -6.85 L7.3 -6.95 7.3 -6.9" fill="none" stroke="#000000" stroke-linecap="round" stroke-linejoin="round" stroke-opacity="0.3019608" stroke-width="0.05"/>
      <path d="M8.75 7.15 Q8.6 8.6 8.05 9.6 7.5 10.5 6.95 10.45 6.35 10.4 6.05 9.4 5.7 8.35 5.85 6.9 5.95 5.45 6.5 4.5 7.0 3.55 7.6 3.6 8.15 3.65 8.5 4.7 8.85 5.7 8.75 7.15" fill="#000000" fill-opacity="0.3019608" fill-rule="evenodd" stroke="none"/>
      <path d="M8.0 8.2 Q7.55 8.75 7.05 8.7 6.5 8.65 6.15 8.05 5.8 7.4 5.9 6.45 6.0 5.5 6.45 4.95 6.9 4.35 7.45 4.4 L8.3 5.1 Q8.65 5.75 8.55 6.7 8.45 7.65 8.0 8.2" fill="#996028" fill-rule="evenodd" stroke="none"/>
      <path d="M8.0 8.2 Q7.55 8.75 7.05 8.7 6.5 8.65 6.15 8.05 5.8 7.4 5.9 6.45 6.0 5.5 6.45 4.95 6.9 4.35 7.45 4.4 L8.3 5.1 Q8.65 5.75 8.55 6.7 8.45 7.65 8.0 8.2 Z" fill="none" stroke="#000000" stroke-linecap="round" stroke-linejoin="round" stroke-opacity="0.3019608" stroke-width="0.05"/>
      <path d="M7.6 7.3 L7.0 7.7 Q6.65 7.75 6.4 7.35 6.15 6.95 6.15 6.35 6.2 5.75 6.5 5.3 L7.1 4.85 Q7.45 4.85 7.7 5.25 L7.9 6.3 7.6 7.3" fill="#cca300" fill-rule="evenodd" stroke="none"/>
      <path d="M6.95 6.5 L6.6 6.65 6.3 6.4 6.2 5.8 6.4 5.2 Q6.55 5.05 6.75 5.05 6.95 5.05 7.05 5.3 L7.15 5.9 6.95 6.5" fill="#cccccc" fill-rule="evenodd" stroke="none"/>
      <path d="M-6.2 -13.45 L-5.25 -14.85 Q-1.05 -16.4 6.15 -15.45 L10.05 -14.65 9.7 -13.75 5.85 -14.5 Q-0.05 -15.25 -6.2 -13.45" fill="#6e3f2c" fill-rule="evenodd" stroke="none"/>
      <path d="M-6.2 -13.45 Q-0.05 -15.25 5.85 -14.5 L9.7 -13.75 Q6.3 -8.05 -4.85 -11.4 L-6.2 -13.45" fill="#1e1400" fill-rule="evenodd" stroke="none"/>
      <path d="M9.7 -13.75 L10.05 -14.65 6.15 -15.45 Q-1.05 -16.4 -5.25 -14.85 L-6.2 -13.45 Q-0.05 -15.25 5.85 -14.5 L9.7 -13.75 Q6.3 -8.05 -4.85 -11.4 L-6.2 -13.45" fill="none" stroke="#000000" stroke-linecap="round" stroke-linejoin="round" stroke-opacity="0.3019608" stroke-width="0.05"/>
      <path d="M-5.45 -14.95 L-5.45 -15.0 -5.35 -15.0 -5.45 -14.95" fill="#b2b9a8" fill-rule="evenodd" stroke="none"/>
      <path d="M8.7 -1.85 L8.7 -1.75 8.45 -1.7 8.7 -1.85" fill="#6a7a66" fill-rule="evenodd" stroke="none"/>
      <path d="M10.45 -10.45 L10.25 -10.25 10.2 -10.3 10.45 -10.45" fill="#54604f" fill-rule="evenodd" stroke="none"/>
      <path d="M11.0 -11.05 L10.9 -10.7 10.85 -10.5 Q10.0 -7.75 10.4 -6.55 L8.85 -6.5 8.65 -6.4 8.5 -6.35 8.5 -6.3 Q6.35 -5.65 4.2 -3.4 2.8 -4.7 8.55 -8.5 L8.65 -8.6 8.9 -8.95 10.25 -10.25 10.45 -10.45 10.45 -10.5 10.5 -10.5 10.55 -10.55 10.8 -10.8 11.0 -11.05" fill="#3b2016" fill-rule="evenodd" stroke="none"/>
      <path d="M10.4 -6.55 L10.85 -5.9 Q11.9 -5.25 10.95 -3.85 L9.5 -2.35 8.85 -1.9 8.7 -1.85 8.45 -1.7 Q5.7 -0.85 3.2 -0.6 1.05 -3.15 1.05 -4.7 1.05 -7.45 2.05 -9.15 4.7 -9.4 7.45 -10.4 L7.65 -10.45 8.55 -10.65 8.65 -10.65 8.9 -10.8 Q10.35 -11.35 10.95 -12.3 L10.8 -10.8 10.55 -10.55 10.5 -10.5 10.45 -10.5 10.45 -10.45 10.2 -10.3 10.25 -10.25 8.9 -8.95 8.65 -8.6 8.55 -8.5 Q2.8 -4.7 4.2 -3.4 6.35 -5.65 8.5 -6.3 L8.5 -6.35 8.65 -6.4 8.85 -6.5 10.4 -6.55 M-7.15 -4.7 Q-7.95 -6.3 -7.15 -7.5 -6.35 -8.4 -6.4 -10.4 -5.75 -9.05 -5.45 -7.95 L-5.4 -7.85 -5.4 -7.8 Q-4.3 -5.65 -4.55 -5.15 -4.65 -4.95 -4.95 -4.95 L-5.05 -5.1 -5.4 -5.3 -5.45 -5.3 -6.65 -7.05 Q-7.7 -6.55 -7.15 -4.7" fill="#583123" fill-rule="evenodd" stroke="none"/>
      <path d="M3.2 -0.6 Q-0.95 -0.25 -4.2 -1.7 L-5.4 -2.3 -5.45 -2.35 Q-6.6 -3.6 -7.15 -4.7 -7.7 -6.55 -6.65 -7.05 L-5.45 -5.3 -5.4 -5.3 -5.05 -5.1 -4.95 -4.95 Q-4.65 -4.95 -4.55 -5.15 -3.55 -5.8 -5.35 -9.15 L-5.35 -9.25 -5.45 -9.4 -6.0 -10.8 Q-5.7 -10.6 -6.1 -11.55 -5.4 -10.35 -2.0 -9.15 -1.9 -8.85 2.05 -9.15 1.05 -7.45 1.05 -4.7 1.05 -3.15 3.2 -0.6" fill="#6e3f2c" fill-rule="evenodd" stroke="none"/>
      <path d="M-6.4 -10.4 L-7.4 -12.6 -7.45 -12.75 Q-8.05 -14.2 -5.45 -14.95 L-5.35 -15.0 -5.05 -15.1 -5.25 -13.75 Q-5.35 -11.85 -2.4 -10.95 1.05 -10.6 3.65 -10.9 L4.8 -11.1 6.25 -11.45 Q7.7 -12.0 8.65 -12.75 L8.65 -12.8 8.8 -13.05 8.65 -14.65 8.65 -14.7 8.45 -15.1 8.65 -15.05 8.95 -14.95 Q11.95 -14.15 11.45 -12.25 L11.35 -11.8 11.0 -11.05 10.8 -10.8 10.95 -12.3 Q10.35 -11.35 8.9 -10.8 L8.65 -10.65 8.55 -10.65 7.65 -10.45 7.45 -10.4 Q4.7 -9.4 2.05 -9.15 -1.9 -8.85 -2.0 -9.15 -5.4 -10.35 -6.1 -11.55 -5.7 -10.6 -6.0 -10.8 L-5.45 -9.4 -5.35 -9.25 -5.35 -9.15 Q-3.55 -5.8 -4.55 -5.15 -4.3 -5.65 -5.4 -7.8 L-5.4 -7.85 -5.45 -7.95 Q-5.75 -9.05 -6.4 -10.4" fill="#ab6a50" fill-rule="evenodd" stroke="none"/>
      <path d="M11.0 -11.05 L10.9 -10.7 10.85 -10.5 Q10.0 -7.75 10.4 -6.55 L10.85 -5.9 Q11.9 -5.25 10.95 -3.85 L9.5 -2.35 8.85 -1.9 8.7 -1.85 M8.7 -1.75 L8.45 -1.7 Q5.7 -0.85 3.2 -0.6 -0.95 -0.25 -4.2 -1.7 L-5.4 -2.3 -5.45 -2.35 Q-6.6 -3.6 -7.15 -4.7 -7.95 -6.3 -7.15 -7.5 -6.35 -8.4 -6.4 -10.4 L-7.4 -12.6 -7.45 -12.75 Q-8.05 -14.2 -5.45 -14.95 M-5.45 -15.0 L-5.35 -15.0 -5.05 -15.1 -5.25 -13.75 Q-5.35 -11.85 -2.4 -10.95 1.05 -10.6 3.65 -10.9 M4.8 -11.1 L6.25 -11.45 Q7.7 -12.0 8.65 -12.75 M8.65 -14.7 L8.45 -15.1 8.65 -15.05 8.95 -14.95 Q11.95 -14.15 11.45 -12.25 L11.35 -11.8 11.0 -11.05 M10.55 -10.55 L10.5 -10.5 10.45 -10.5 M8.45 -1.7 L8.7 -1.85 M-5.35 -15.0 L-5.45 -14.95 M-6.4 -10.4 Q-5.75 -9.05 -5.45 -7.95 L-5.4 -7.85 M-5.4 -7.8 Q-4.3 -5.65 -4.55 -5.15 -4.65 -4.95 -4.95 -4.95 L-5.05 -5.1" fill="none" stroke="#000000" stroke-linecap="round" stroke-linejoin="round" stroke-opacity="0.3019608" stroke-width="0.05"/>
      <path d="M-6.35 -1.5 Q-4.75 -1.55 -3.5 -6.15 -2.6 -9.35 -2.5 -10.7 L-2.5 -11.0 -2.8 -11.95 Q-2.25 -11.25 -2.1 -10.25 L-2.1 -9.65 Q-2.05 -7.55 -4.25 -2.1 L-4.45 -1.85 -5.0 -1.4 -6.05 -1.35 -6.35 -1.5 M2.35 -0.6 L3.3 -0.35 Q3.85 -0.35 3.85 -1.05 L3.25 -2.8 Q2.7 -4.2 2.8 -6.5 L3.1 -4.9 3.35 -4.1 3.45 -3.75 Q3.95 -2.55 4.8 -1.85 5.2 -1.55 5.25 -1.0 5.3 -0.55 4.9 -0.15 L3.95 0.2 2.95 -0.05 2.35 -0.6 M2.5 -8.85 Q2.35 -9.45 2.95 -9.7 L4.4 -10.05 7.55 -10.7 8.85 -11.0 10.0 -11.5 Q11.45 -12.25 11.8 -12.95 12.1 -11.05 7.75 -9.95 L6.05 -9.6 2.5 -8.85" fill="#9c6800" fill-rule="evenodd" stroke="none"/>
      <path d="M-6.35 -1.5 L-6.7 -1.8 -6.85 -1.95 -6.9 -2.85 Q-4.95 -7.75 -4.9 -9.65 -4.9 -10.4 -5.5 -10.7 -7.95 -11.75 -7.65 -12.95 -7.9 -14.95 -4.25 -16.1 -1.9 -16.9 0.95 -16.9 3.8 -16.9 7.05 -16.1 L7.0 -16.1 10.05 -15.15 Q11.4 -14.55 11.75 -13.7 L11.8 -12.95 Q11.45 -12.25 10.0 -11.5 L8.85 -11.0 7.55 -10.7 4.4 -10.05 2.95 -9.7 Q2.35 -9.45 2.5 -8.85 L2.55 -8.35 2.55 -7.75 2.55 -7.7 2.6 -7.55 2.8 -6.5 Q2.7 -4.2 3.25 -2.8 L3.85 -1.05 Q3.85 -0.35 3.3 -0.35 L2.35 -0.6 1.6 -1.45 Q0.8 -2.7 0.4 -4.45 -0.25 -7.15 -0.25 -8.85 -0.6 -10.95 5.5 -11.95 L6.8 -12.2 Q9.25 -12.5 9.25 -13.3 9.25 -14.25 7.95 -14.95 6.7 -15.6 3.75 -15.9 L-2.5 -15.6 Q-5.75 -15.0 -5.75 -13.95 L-5.45 -13.3 -4.9 -12.95 -4.25 -12.85 Q-3.4 -12.5 -2.8 -11.95 L-2.5 -11.0 -2.5 -10.7 Q-2.6 -9.35 -3.5 -6.15 -4.75 -1.55 -6.35 -1.5" fill="#cca300" fill-rule="evenodd" stroke="none"/>
      <path d="M-4.9 -12.95 L-5.45 -13.3 -5.75 -13.95 Q-5.75 -15.0 -2.5 -15.6 L3.75 -15.9 Q6.7 -15.6 7.95 -14.95 9.25 -14.25 9.25 -13.3 9.25 -12.5 6.8 -12.2 8.8 -12.6 9.0 -12.95 8.75 -13.3 6.35 -13.85 L0.95 -14.5 -3.25 -13.85 -4.15 -13.5 -4.2 -13.45 -4.9 -12.95" fill="#8c5a00" fill-rule="evenodd" stroke="none"/>
      <path d="M2.8 -6.5 L2.6 -7.55 2.55 -7.7 2.55 -7.75 2.55 -8.35 2.5 -8.85 6.05 -9.6 7.75 -9.95 5.15 -8.5 Q3.5 -7.5 3.4 -5.9 L3.35 -4.1 3.1 -4.9 2.8 -6.5 M-4.45 -1.85 L-4.25 -2.1 Q-2.05 -7.55 -2.1 -9.65 L-2.1 -10.25 Q-1.3 -9.0 -1.3 -7.2 -1.3 -6.05 -1.9 -4.0 -2.6 -1.3 -3.6 -1.3 L-4.05 -1.5 -4.45 -1.85" fill="#47271c" fill-rule="evenodd" stroke="none"/>
      <path d="M11.8 -12.95 L11.75 -13.7 Q11.4 -14.55 10.05 -15.15 L7.0 -16.1 7.05 -16.1 Q3.8 -16.9 0.95 -16.9 -1.9 -16.9 -4.25 -16.1 -7.9 -14.95 -7.65 -12.95 -7.95 -11.75 -5.5 -10.7 -4.9 -10.4 -4.9 -9.65 -4.95 -7.75 -6.9 -2.85 L-6.85 -1.95 -6.7 -1.8 -6.35 -1.5 -6.05 -1.35 -5.0 -1.4 -4.45 -1.85 -4.25 -2.1 Q-2.05 -7.55 -2.1 -9.65 L-2.1 -10.25 Q-2.25 -11.25 -2.8 -11.95 -3.4 -12.5 -4.25 -12.85 L-4.9 -12.95 -4.2 -13.45 M6.8 -12.2 L5.5 -11.95 Q-0.6 -10.95 -0.25 -8.85 -0.25 -7.15 0.4 -4.45 0.8 -2.7 1.6 -1.45 L2.35 -0.6 M2.8 -6.5 L2.6 -7.55 2.55 -7.7 2.55 -7.75 2.55 -8.35 2.5 -8.85 M11.8 -12.95 Q12.1 -11.05 7.75 -9.95 L6.05 -9.6 2.5 -8.85 M3.45 -3.75 Q3.95 -2.55 4.8 -1.85 5.2 -1.55 5.25 -1.0 5.3 -0.55 4.9 -0.15 L3.95 0.2 2.95 -0.05 2.35 -0.6 M-4.15 -13.5 L-3.25 -13.85 0.95 -14.5 6.35 -13.85 Q8.75 -13.3 9.0 -12.95 8.8 -12.6 6.8 -12.2 M3.35 -4.1 L3.1 -4.9 2.8 -6.5" fill="none" stroke="#000000" stroke-linecap="round" stroke-linejoin="round" stroke-opacity="0.3019608" stroke-width="0.05"/>
      <path d="M2.0 -10.4 L2.05 -10.4 Q0.5 -8.8 1.2 -6.6 L1.05 -6.55 Q-0.25 -7.7 0.45 -9.6 0.75 -10.4 1.7 -10.55 L2.0 -10.4" fill="#cccccc" fill-rule="evenodd" stroke="none"/>
      <path d="M3.25 -0.75 Q3.05 -0.6 2.85 -0.75 1.8 -1.55 2.55 -2.2 3.9 -1.5 3.25 -0.75" fill="#cccccc" fill-rule="evenodd" stroke="none"/>
      <path d="M-6.25 -2.25 Q-6.85 -2.0 -6.6 -2.5 -6.35 -3.25 -5.7 -3.7 -4.75 -2.9 -6.25 -2.25" fill="#cccccc" fill-rule="evenodd" stroke="none"/>
      <path d="M-3.2 -10.15 Q-3.8 -11.2 -5.1 -11.95 -5.75 -12.35 -5.15 -12.7 -2.65 -12.1 -3.2 -10.15" fill="#cccccc" fill-rule="evenodd" stroke="none"/>
      <path d="M9.5 -14.15 L7.65 -15.35 Q6.45 -15.8 7.25 -15.7 10.5 -15.3 10.55 -13.3 10.55 -12.9 10.05 -12.65 L9.25 -12.6 Q10.35 -13.35 9.5 -14.15" fill="#cccccc" fill-rule="evenodd" stroke="none"/>
      <path d="M-2.05 1.65 L-1.75 1.85 -0.45 4.35 Q0.1 4.0 0.8 3.75 L0.85 3.75 1.15 3.55 1.35 3.5 1.3 3.55 Q3.4 2.6 5.1 2.25 L5.45 2.3 5.6 2.5 5.65 2.65 5.55 3.0 5.2 3.25 1.7 4.4 1.6 4.45 1.55 4.45 1.25 4.6 1.15 4.65 0.05 5.1 0.65 5.9 Q1.85 7.4 3.4 8.4 L3.5 8.5 3.7 8.85 3.6 9.2 3.3 9.45 2.9 9.35 Q1.1 8.15 -0.3 6.3 L-0.8 5.6 -2.0 6.35 -2.15 6.45 -2.2 6.45 -4.0 8.05 -4.35 8.25 -4.7 8.2 -4.75 8.1 -4.85 7.85 -4.7 7.45 -2.85 5.75 -2.65 5.6 -2.65 5.65 Q-2.1 5.2 -1.4 4.85 L-2.6 2.4 -2.6 2.0 -2.35 1.7 -2.25 1.6 -2.05 1.65" fill="#2b1710" fill-opacity="0.3529412" fill-rule="evenodd" stroke="none"/>
    </g>
    <g id="sprite3" transform="matrix(1.0, 0.0, 0.0, 1.0, 1.35, 1.55)">
      <use height="3.1" transform="matrix(1.0, 0.0, 0.0, 1.0, -1.35, -1.55)" width="2.7" xlink:href="#shape4"/>
    </g>
    <g id="shape4" transform="matrix(1.0, 0.0, 0.0, 1.0, 1.35, 1.55)">
      <path d="M-0.4 -0.65 L-0.4 -0.7 0.05 -0.9 Q0.3 -0.9 0.5 -0.7 L0.7 -0.15 0.7 -0.1 0.55 0.45 0.5 0.45 0.1 0.7 0.05 0.7 -0.4 0.45 -0.55 0.1 -0.6 -0.1 -0.4 -0.65" fill="#1e1400" fill-rule="evenodd" stroke="none"/>
      <path d="M-0.75 -1.0 L-0.4 -0.65 -0.4 -0.7 0.05 -0.9 0.05 -1.45 M0.05 -0.9 Q0.3 -0.9 0.5 -0.7 L0.7 -0.15 1.25 -0.25 M0.7 -0.15 L0.7 -0.1 0.55 0.45 0.95 0.95 M0.55 0.45 L0.5 0.45 0.1 0.7 0.15 1.45 M0.1 0.7 L0.05 0.7 -0.4 0.45 -0.55 0.1 -1.25 0.2 M-0.55 0.1 L-0.6 -0.1 -0.4 -0.65" fill="none" stroke="#000000" stroke-linecap="round" stroke-linejoin="round" stroke-opacity="0.3019608" stroke-width="0.25"/>
    </g>
    <g id="shape5" transform="matrix(1.0, 0.0, 0.0, 1.0, 5.9, -1.95)">
      <path d="M0.65 4.15 L0.1 3.3 0.3 3.25 0.25 3.3 Q2.35 2.35 4.05 2.0 L4.4 2.05 4.55 2.25 4.6 2.4 4.5 2.75 4.15 3.0 0.65 4.15" fill="#bca758" fill-rule="evenodd" stroke="none"/>
      <path d="M-5.8 7.85 L-5.9 7.6 -5.75 7.2 -3.9 5.5 -3.7 5.35 -3.7 5.4 Q-2.3 4.3 -0.25 3.5 L-0.2 3.5 0.1 3.3 0.65 4.15 0.55 4.2 0.5 4.2 0.2 4.35 0.1 4.4 -3.05 6.1 -3.2 6.2 -3.25 6.2 Q-4.3 6.95 -5.05 7.8 L-5.4 8.0 -5.75 7.95 -5.8 7.85" fill="#94813b" fill-rule="evenodd" stroke="none"/>
      <path d="M-5.8 7.85 L-5.75 7.95 -5.4 8.0 -5.05 7.8 Q-4.3 6.95 -3.25 6.2 L-3.2 6.2 -3.05 6.1 0.1 4.4 0.2 4.35 0.5 4.2 0.55 4.2 0.65 4.15 M4.55 2.25 L4.6 2.4 4.5 2.75 4.15 3.0 0.65 4.15" fill="none" stroke="#000000" stroke-linecap="round" stroke-linejoin="round" stroke-opacity="0.3019608" stroke-width="0.05"/>
    </g>
    <g id="shape6" transform="matrix(1.0, 0.0, 0.0, 1.0, 3.7, -1.35)">
      <path d="M-1.4 6.05 L-2.35 4.6 -2.4 4.65 -3.65 2.15 -3.65 1.75 -3.45 1.45 -3.3 1.35 -3.1 1.4 Q-2.9 1.45 -2.8 1.6 L-1.5 4.1 -1.5 4.05 -0.4 5.65 -0.7 5.75 -1.15 5.9 -1.4 6.05" fill="#bca758" fill-rule="evenodd" stroke="none"/>
      <path d="M-1.4 6.05 L-1.15 5.9 -0.7 5.75 -0.4 5.65 Q0.8 7.15 2.35 8.15 L2.45 8.25 2.65 8.6 2.55 8.95 2.25 9.2 1.85 9.15 Q0.05 7.9 -1.4 6.05" fill="#94813b" fill-rule="evenodd" stroke="none"/>
      <path d="M-3.3 1.35 L-3.45 1.45 -3.65 1.75 -3.65 2.15 -2.4 4.65 -2.35 4.6 -1.4 6.05 -1.15 5.9 -0.7 5.75 M-1.4 6.05 Q0.05 7.9 1.85 9.15 L2.25 9.2 2.55 8.95 2.65 8.6 2.45 8.25 2.35 8.15" fill="none" stroke="#000000" stroke-linecap="round" stroke-linejoin="round" stroke-opacity="0.3019608" stroke-width="0.05"/>
    </g>
    <g id="shape7" transform="matrix(1.0, 0.0, 0.0, 1.0, 6.0, -6.7)">
      <path d="M2.3 8.8 L2.2 9.0 1.9 9.2 1.5 9.15 Q-0.85 7.65 -3.45 7.7 L-5.5 8.0 -5.8 7.95 -5.95 7.75 -6.0 7.6 -5.85 7.25 -5.55 7.0 -3.4 6.7 -3.35 6.7 Q-0.45 6.6 2.1 8.3 L2.3 8.65 2.3 8.8" fill="#bca758" fill-rule="evenodd" stroke="none"/>
      <path d="M-6.0 7.6 L-5.95 7.75 -5.8 7.95 -5.5 8.0 -3.45 7.7 Q-0.85 7.65 1.5 9.15 L1.9 9.2 2.2 9.0 2.3 8.8" fill="none" stroke="#000000" stroke-linecap="round" stroke-linejoin="round" stroke-opacity="0.3019608" stroke-width="0.05"/>
    </g>
  </defs>
</svg>
