<?xml version="1.0" encoding="UTF-8" standalone="no"?>
<svg xmlns:xlink="http://www.w3.org/1999/xlink" height="440.0px" width="440.0px" xmlns="http://www.w3.org/2000/svg">
  <g transform="matrix(10.0, 0.0, 0.0, 10.0, 0.0, 0.0)">
    <use height="44.0" transform="matrix(1.0, 0.0, 0.0, 1.0, 0.0, 0.0)" width="44.0" xlink:href="#shape0"/>
    <use height="37.7" transform="matrix(0.98, 0.0, 0.0, 0.98, 1.1, 2.15)" width="23.9" xlink:href="#sprite0"/>
    <use height="5.2" transform="matrix(1.0, 0.0, 0.0, 1.0, 22.3, 2.9)" width="14.15" xlink:href="#shape5"/>
    <use height="42.7" transform="matrix(0.3604, 0.0176, -0.0477, 0.3852, 21.5594, 20.3143)" width="36.3" xlink:href="#sprite1"/>
    <use height="49.95" transform="matrix(0.3472, 0.0169, -0.0324, 0.2969, 24.4825, 26.2466)" width="53.55" xlink:href="#sprite2"/>
    <use height="34.9" transform="matrix(1.0, 0.0, 0.0, 1.0, 19.35, 3.3)" width="18.25" xlink:href="#shape6"/>
  </g>
  <defs>
    <g id="shape0" transform="matrix(1.0, 0.0, 0.0, 1.0, 0.0, 0.0)">
      <path d="M44.0 44.0 L0.0 44.0 0.0 0.0 44.0 0.0 44.0 44.0" fill="#43adca" fill-opacity="0.0" fill-rule="evenodd" stroke="none"/>
      <path d="M23.4 4.35 L26.0 4.0 Q30.8 3.65 35.65 5.25 L35.6 4.1 Q32.1 2.55 25.85 3.1 L23.75 3.4 23.45 3.5 23.3 3.5 22.55 3.7 22.6 4.45 22.55 4.8 22.35 5.5 22.3 5.8 22.25 5.95 22.15 6.9 22.15 8.2 22.2 8.4 Q22.25 9.0 22.45 9.4 L22.9 9.85 Q23.95 10.3 23.25 11.6 L23.25 11.7 22.25 12.95 21.75 13.4 21.6 13.5 21.4 13.65 20.8 13.9 20.55 14.0 21.35 15.0 21.9 15.45 22.05 15.55 22.2 15.65 22.85 15.9 23.2 16.05 23.8 16.2 Q29.05 17.85 33.3 16.2 L33.4 16.15 33.9 15.95 34.1 15.85 34.45 15.7 34.5 15.65 34.8 15.35 36.0 14.0 36.25 13.6 36.75 12.5 36.8 12.3 Q36.9 11.6 36.6 11.05 36.0 10.15 36.2 8.3 L35.8 9.05 35.05 10.65 34.2 12.35 34.1 12.6 34.0 13.05 34.35 13.25 M35.6 4.1 L35.6 3.95 35.85 4.05 35.95 4.1 Q38.15 4.85 37.45 6.2 L37.35 6.3 36.2 8.3 M36.8 12.3 L36.85 12.25 36.75 12.5 M36.0 14.0 L35.4 15.15 34.8 15.35 M23.35 5.5 Q24.1 6.25 25.3 6.75 27.9 7.9 32.8 7.65 35.5 6.9 35.65 5.25 M23.45 3.5 L23.5 3.45 22.5 3.65 22.55 3.7 M23.5 3.45 L23.6 3.4 23.75 3.35 23.75 3.4 M21.05 2.6 L21.05 2.5 20.45 2.45 21.05 2.6 Q22.2 2.95 22.5 3.65 M34.1 15.85 L33.9 17.7 34.3 17.45 34.1 18.1 34.2 20.3 34.0 20.9 34.25 24.25 33.75 24.8 33.95 27.3 34.8 27.9 35.3 28.2 35.8 28.85 37.45 30.9 37.1 30.65 37.15 30.8 37.95 31.55 38.7 32.0 40.25 33.05 40.4 33.3 Q41.45 33.7 42.0 34.9 L42.1 35.6 42.1 36.05 42.05 36.4 42.05 36.65 Q41.65 38.2 39.7 39.2 L39.65 39.2 39.35 39.25 37.95 39.65 Q36.0 40.25 34.2 41.0 L32.45 41.55 31.6 41.55 Q30.1 41.5 28.85 40.7 L26.15 38.95 26.1 38.95 Q25.45 38.3 25.15 37.2 L25.2 38.25 23.75 36.3 20.45 34.15 Q20.25 33.8 20.2 32.95 L18.9 34.7 19.0 34.3 18.2 35.5 18.15 35.5 15.55 37.2 Q14.3 38.05 12.8 38.15 L11.95 38.2 10.25 37.8 Q8.4 37.2 6.5 36.75 L5.15 36.45 4.8 36.4 4.75 36.4 Q2.8 35.6 2.4 34.15 L2.35 33.95 2.3 33.6 2.3 33.25 2.35 32.6 Q2.9 31.4 3.95 30.95 L4.0 30.75 Q4.55 30.15 5.6 29.65 L6.3 29.2 Q6.9 28.8 6.9 28.35 L6.65 28.6 8.65 25.9 9.5 25.5 10.1 25.15 10.25 22.7 9.75 22.25 9.95 19.15 9.7 18.5 9.75 16.55 9.55 16.0 9.9 16.2 9.7 14.45 9.35 14.3 9.3 14.25 9.15 14.1 8.3 13.9 7.45 12.45 7.2 12.0 6.75 11.25 6.95 11.3 Q6.85 10.65 7.1 10.05 7.7 9.25 7.4 7.5 L6.2 5.75 6.15 5.65 Q5.4 4.45 7.55 3.6 L7.65 3.55 7.9 3.5 7.9 3.65 Q11.3 2.0 17.55 2.15 L19.6 2.35 19.6 2.3 19.75 2.3 19.85 2.35 20.0 2.4 20.05 2.35 20.45 2.45 M19.8 2.6 L19.6 2.35 M19.95 3.15 L17.45 3.0 Q12.65 2.85 7.9 4.65 8.15 6.2 10.75 6.75 15.65 6.65 18.15 5.55 L20.05 4.25 M22.85 15.9 L22.05 15.65 20.65 15.15 21.05 16.45 21.3 16.35 21.45 16.3 22.3 18.55 22.4 18.55 22.65 18.65 23.05 17.05 23.2 17.1 23.2 16.05 M20.55 14.0 L20.45 14.05 20.5 15.05 20.6 15.0 20.65 15.15 M20.5 15.05 L20.75 16.55 21.05 16.45 M22.05 15.65 L22.2 15.65 M22.3 18.55 L22.4 18.9 22.1 19.4 22.2 19.55 22.45 20.0 22.5 20.1 22.65 20.3 23.0 18.8 22.65 18.65 M22.1 19.4 L21.35 18.5 20.75 16.55 M23.0 18.8 L23.2 17.1 M3.95 30.95 L3.55 32.0 3.45 32.2 6.65 33.2 Q9.7 34.1 11.65 34.2 11.25 34.0 11.75 33.65 L11.85 34.2 12.2 34.2 12.45 34.25 12.5 34.25 12.55 34.25 12.8 34.15 14.0 33.75 14.65 33.5 Q16.2 33.15 17.45 32.3 L17.45 32.2 17.95 31.55 19.0 30.45 19.3 30.1 19.4 29.9 19.4 29.85 19.9 29.0 20.15 28.4 Q19.75 25.35 19.05 24.35 L18.65 23.9 18.45 23.85 11.4 24.45 11.15 24.55 10.95 24.65 Q10.5 24.85 10.1 25.15 M20.45 14.05 L19.95 14.25 Q14.75 16.0 10.4 14.75 L10.5 15.35 10.6 16.4 10.55 18.65 10.2 19.4 9.9 20.7 9.85 20.75 10.0 21.4 Q10.25 21.95 11.05 22.35 12.25 22.9 14.7 23.1 L15.35 23.15 15.95 23.15 18.55 22.9 Q20.05 22.55 21.2 21.9 L22.35 21.0 22.55 20.75 22.6 20.35 22.5 20.1 M22.6 20.35 L22.65 20.3 M21.2 21.9 L21.3 22.05 21.4 22.25 22.35 21.0 M21.4 22.25 L21.5 22.45 22.05 24.05 22.65 24.5 Q23.75 25.15 25.35 25.45 L28.0 25.6 28.6 25.55 29.25 25.45 Q31.65 25.1 32.9 24.45 33.7 23.95 33.95 23.35 L34.1 22.65 34.0 22.55 33.7 21.25 33.3 20.4 Q33.15 19.2 33.25 18.0 L33.3 16.85 33.4 16.2 33.4 16.15 M22.65 24.5 L22.45 24.7 22.35 24.95 22.3 25.05 22.25 25.15 22.2 25.15 22.25 25.45 22.25 25.25 Q23.1 25.45 23.4 26.3 24.05 29.8 23.5 30.7 L20.2 32.95 M22.3 25.05 L22.2 25.1 22.25 25.15 M22.2 25.1 L22.2 25.15 M22.05 24.05 L22.2 25.1 M33.9 15.95 L33.4 16.2 M33.25 18.0 L33.9 17.7 M34.0 20.9 L33.7 21.25 M33.75 24.8 L33.7 24.55 33.15 24.9 33.55 25.75 32.85 26.75 33.15 26.9 33.95 27.3 M33.15 24.9 L32.9 24.45 M21.65 32.3 L23.4 33.75 24.85 34.5 24.85 34.35 24.85 34.25 24.8 33.3 24.75 33.05 24.65 33.05 24.7 33.0 23.9 31.45 Q24.3 28.15 24.95 27.0 L25.35 26.55 Q25.4 26.45 25.5 26.45 L32.7 26.7 32.85 26.75 M24.8 33.3 L25.2 33.6 26.25 34.75 26.75 35.4 26.85 35.55 Q28.05 36.35 29.6 36.65 L30.15 36.85 31.55 37.2 31.8 37.3 31.85 37.3 32.15 37.25 32.4 37.2 32.55 36.6 Q33.05 36.95 32.65 37.25 34.65 37.0 37.7 35.8 L40.85 34.6 40.85 34.35 40.4 33.3 M32.4 37.2 L32.4 37.3 32.55 37.25 32.6 37.25 32.4 37.2 M32.4 37.3 L32.4 37.5 32.0 37.35 31.8 37.3 31.7 37.3 Q31.15 37.3 31.55 37.2 M31.85 37.3 L32.0 37.35 32.4 37.3 M32.65 37.25 L32.6 37.25 M33.05 33.75 L32.5 35.95 M22.3 29.05 L21.45 29.9 20.3 30.7 19.35 31.15 19.2 33.65 19.4 33.45 20.2 32.95 M19.35 31.15 L19.35 31.05 19.3 31.0 19.3 30.1 M19.4 29.9 L19.45 29.9 19.4 29.85 M19.0 34.3 L19.2 33.65 M24.7 33.0 L24.75 33.05 M25.15 37.2 L25.1 37.05 Q24.5 36.95 24.65 36.85 L23.75 36.3 M25.1 37.05 Q24.8 35.95 24.85 34.5 M22.25 25.25 L22.55 27.35 M34.8 27.9 L35.8 28.85 M7.9 3.65 L7.9 4.65 M7.4 7.5 L7.8 8.25 8.5 9.5 9.55 11.25 9.65 11.45 9.7 11.85 9.35 12.05 M7.2 12.0 L6.95 11.3 M10.4 14.75 L9.9 14.55 9.7 14.45 M11.15 24.55 L10.4 23.6 10.8 22.8 10.25 22.5 10.25 22.7 M10.8 22.8 L11.05 22.35 M9.9 16.2 L10.6 16.4 M10.2 19.4 L9.95 19.15 M9.15 14.1 L7.45 12.45 M6.9 28.35 L7.15 28.1 Q8.2 26.5 9.5 25.5 M12.45 34.25 L12.5 34.25 12.55 34.25 12.6 34.2 12.8 34.15 M11.85 34.2 L11.95 34.3 12.35 34.25 12.45 34.25 M11.85 34.2 L11.65 34.2 11.75 34.25 11.95 34.3 11.95 34.5 12.35 34.25 M12.6 34.2 Q13.65 34.15 12.8 34.15" fill="none" stroke="#000000" stroke-linecap="round" stroke-linejoin="round" stroke-opacity="0.3019608" stroke-width="0.7000000000000001"/>
    </g>
    <g id="sprite0" transform="matrix(1.0, 0.0, 0.0, 1.0, 0.0, 0.0)">
      <use height="5.0" transform="matrix(1.0, 0.0, 0.0, 1.0, 6.15, 0.0)" width="14.2" xlink:href="#shape1"/>
      <use height="42.7" transform="matrix(-0.363, 0.0367, 0.0579, 0.3623, 21.4289, 16.1058)" width="36.3" xlink:href="#sprite1"/>
      <use height="49.95" transform="matrix(-0.3497, 0.0354, 0.0402, 0.2795, 18.7448, 21.8237)" width="53.55" xlink:href="#sprite2"/>
      <use height="33.1" transform="matrix(1.0, 0.0, 0.0, 1.0, 4.95, 0.1)" width="18.55" xlink:href="#shape4"/>
    </g>
    <g id="shape1" transform="matrix(1.0, 0.0, 0.0, 1.0, -6.15, 0.0)">
      <path d="M20.15 1.15 L16.65 0.8 Q11.35 0.7 6.15 2.8 L6.75 1.5 Q10.25 -0.2 16.75 0.0 L20.35 0.35 20.15 1.15" fill="#7b5247" fill-rule="evenodd" stroke="none"/>
      <path d="M6.15 2.8 Q11.35 0.7 16.65 0.8 L20.15 1.15 Q17.95 6.4 7.6 4.45 L6.15 2.8" fill="#160e0c" fill-rule="evenodd" stroke="none"/>
      <path d="M6.15 2.8 Q11.35 0.7 16.65 0.8 L20.15 1.15 20.35 0.35 16.75 0.0 Q10.25 -0.2 6.75 1.5 L6.15 2.8 7.6 4.45 Q17.95 6.4 20.15 1.15" fill="none" stroke="#000000" stroke-linecap="round" stroke-linejoin="round" stroke-opacity="0.3019608" stroke-width="0.05"/>
    </g>
    <g id="sprite1" transform="matrix(1.0, 0.0, 0.0, 1.0, 16.0, 15.2)">
      <use height="42.7" transform="matrix(1.0, 0.0, 0.0, 1.0, -16.0, -15.2)" width="36.3" xlink:href="#shape2"/>
    </g>
    <g id="shape2" transform="matrix(1.0, 0.0, 0.0, 1.0, 16.0, 15.2)">
      <path d="M-13.25 5.0 L-13.15 5.5 Q-13.55 -0.5 -12.05 -4.1 L-7.4 -11.85 Q2.6 -17.2 11.2 -13.95 L18.85 -2.9 16.7 0.9 Q18.0 6.9 18.05 12.55 L17.75 17.8 Q9.55 22.25 -1.1 21.0 -7.05 19.4 -11.6 15.55 -7.05 19.4 -1.1 21.0 9.55 22.25 17.75 17.8 L18.05 12.55 20.2 16.25 Q20.55 20.8 19.45 23.9 11.95 27.4 4.65 27.5 L-1.75 26.95 -14.3 20.45 Q-16.2 18.15 -16.0 8.25 -15.5 5.75 -13.25 5.0 L-13.2 10.85 -13.25 5.0 M17.75 17.8 L17.6 19.1 17.75 17.8 M16.05 2.05 L16.7 0.9 16.05 2.05" fill="#23251b" fill-rule="evenodd" stroke="none"/>
      <path d="M16.7 0.9 L18.85 -2.9 11.2 -13.95 Q2.6 -17.2 -7.4 -11.85 L-12.05 -4.1 Q-13.55 -0.5 -13.15 5.5 L-13.25 5.0 -13.2 10.85 M-11.6 15.55 Q-7.05 19.4 -1.1 21.0 9.55 22.25 17.75 17.8 L18.05 12.55 Q18.0 6.9 16.7 0.9 L16.05 2.05 M17.6 19.1 L17.75 17.8 M18.05 12.55 L20.2 16.25 Q20.55 20.8 19.45 23.9 11.95 27.4 4.65 27.5 L-1.75 26.95 -14.3 20.45 Q-16.2 18.15 -16.0 8.25 -15.5 5.75 -13.25 5.0" fill="none" stroke="#000000" stroke-linecap="round" stroke-linejoin="round" stroke-opacity="0.4" stroke-width="0.05"/>
    </g>
    <g id="sprite2" transform="matrix(1.0, 0.0, 0.0, 1.0, 19.4, 22.15)">
      <use height="49.95" transform="matrix(1.0, 0.0, 0.0, 1.0, -19.4, -22.15)" width="53.55" xlink:href="#shape3"/>
    </g>
    <g id="shape3" transform="matrix(1.0, 0.0, 0.0, 1.0, 19.4, 22.15)">
      <path d="M18.2 -9.55 L18.35 -9.15 18.05 -9.25 18.2 -9.55" fill="#8a9c83" fill-rule="evenodd" stroke="none"/>
      <path d="M-16.6 0.55 L-16.8 0.5 -16.65 0.35 -16.6 0.55" fill="#6d7d69" fill-rule="evenodd" stroke="none"/>
      <path d="M28.25 18.45 L28.15 18.5 28.1 18.45 28.25 18.45 M-10.6 20.1 L-10.75 20.1 -10.75 20.05 -10.6 20.1" fill="#333a30" fill-rule="evenodd" stroke="none"/>
      <path d="M7.45 0.6 L7.65 0.5 7.7 0.65 7.45 0.6 M-5.25 -5.0 L-5.15 -5.0 -5.05 -4.85 -5.25 -5.0" fill="#566251" fill-rule="evenodd" stroke="none"/>
      <path d="M17.9 -10.35 L17.9 -10.25 18.0 -9.85 18.2 -9.55 18.05 -9.25 Q16.7 -6.45 19.4 -5.3 17.6 -3.15 4.8 0.7 -6.0 0.7 -5.05 -4.85 L-5.15 -5.0 Q-9.4 -14.2 -6.5 -21.9 L4.25 -22.1 Q11.85 -19.45 17.9 -10.35" fill="#543930" fill-rule="evenodd" stroke="none"/>
      <path d="M18.35 -9.15 Q18.95 -8.0 20.9 -6.7 L23.05 -5.45 Q26.3 -3.95 27.95 -1.95 L28.3 -1.4 29.95 2.2 Q26.2 -6.4 7.7 0.65 L7.65 0.5 7.45 0.6 4.8 0.7 Q17.6 -3.15 19.4 -5.3 16.7 -6.45 18.05 -9.25 L18.35 -9.15" fill="#4b322b" fill-rule="evenodd" stroke="none"/>
      <path d="M4.8 0.7 L7.45 0.6 7.7 0.65 Q5.8 5.75 6.95 11.2 L6.8 13.2 6.0 13.35 5.15 13.45 5.05 13.45 4.25 13.35 -1.45 11.7 Q-6.05 10.95 -9.85 8.45 L-10.05 7.95 Q-12.4 4.75 -15.1 2.2 -14.65 -1.45 -5.25 -5.0 L-5.05 -4.85 Q-6.0 0.7 4.8 0.7 M6.75 13.45 Q6.65 13.75 6.7 14.15 6.05 13.7 5.6 13.6 L6.75 13.45" fill="#34231d" fill-rule="evenodd" stroke="none"/>
      <path d="M-16.25 1.1 L-16.6 0.55 -16.65 0.35 -18.4 -2.55 -18.4 -2.65 -19.4 -4.75 Q-19.35 -15.85 -17.95 -19.65 L-17.95 -17.55 -17.9 -19.8 Q-17.5 -21.0 -16.9 -21.35 L-16.35 -21.65 -6.5 -21.9 Q-9.4 -14.2 -5.15 -5.0 L-5.25 -5.0 Q-14.65 -1.45 -15.1 2.2 L-16.25 1.1" fill="#231713" fill-rule="evenodd" stroke="none"/>
      <path d="M7.7 0.65 Q26.2 -6.4 29.95 2.2 L30.15 2.95 Q29.85 2.95 21.45 7.6 13.1 12.1 7.4 13.1 8.55 12.2 6.95 11.2 8.55 12.2 7.4 13.1 L6.8 13.2 6.95 11.2 Q5.8 5.75 7.7 0.65 M5.05 13.45 L4.75 13.5 4.25 13.35 5.05 13.45" fill="#3f2923" fill-rule="evenodd" stroke="none"/>
      <path d="M34.1 9.55 Q33.55 15.0 28.25 18.45 L28.1 18.45 Q27.55 18.6 27.2 18.85 L23.3 20.45 Q13.35 24.3 7.35 24.5 1.25 24.65 -0.8 20.95 -3.3 18.5 -2.4 12.9 2.75 16.1 5.75 16.05 8.45 15.85 11.05 14.25 13.4 12.6 23.3 9.15 32.2 5.9 31.5 4.5 33.5 6.25 34.1 9.55" fill="#2f3224" fill-rule="evenodd" stroke="none"/>
      <path d="M28.3 -1.4 Q31.5 -0.15 33.55 3.95 L34.0 6.2 34.1 7.5 34.15 8.7 34.1 9.55 Q33.5 6.25 31.5 4.5 32.2 5.9 23.3 9.15 13.4 12.6 11.05 14.25 8.45 15.85 5.75 16.05 2.75 16.1 -2.4 12.9 -3.3 18.5 -0.8 20.95 1.25 24.65 7.35 24.5 13.35 24.3 23.3 20.45 18.05 22.7 13.05 25.6 10.55 26.85 8.25 27.55 L5.8 27.8 Q1.5 27.85 -2.5 25.4 -10.3 20.6 -10.6 20.1 L-10.75 20.05 -7.75 11.2 -1.45 11.7 4.25 13.35 Q1.75 13.7 4.75 13.5 L5.6 13.6 4.75 13.5 Q1.75 13.7 4.25 13.35 L4.75 13.5 5.05 13.45 5.15 13.45 5.6 13.6 5.15 13.45 6.0 13.35 6.8 13.2 6.75 13.45 5.6 13.6 Q6.05 13.7 6.7 14.15 6.65 13.75 6.75 13.45 L6.8 13.2 7.4 13.1 Q13.1 12.1 21.45 7.6 29.85 2.95 30.15 2.95 L29.95 2.2 28.3 -1.4 M28.15 18.5 L27.2 18.85 Q27.55 18.6 28.1 18.45 L28.15 18.5 M6.75 13.45 L7.2 13.25 7.4 13.1 7.2 13.25 6.75 13.45" fill="#20231a" fill-rule="evenodd" stroke="none"/>
      <path d="M-10.75 20.1 Q-15.1 15.85 -15.9 4.65 L-15.9 4.4 -16.25 1.1 -15.1 2.2 Q-12.4 4.75 -10.05 7.95 L-9.85 8.45 Q-6.05 10.95 -1.45 11.7 L-7.75 11.2 -10.75 20.05 -10.75 20.1" fill="#13150f" fill-rule="evenodd" stroke="none"/>
      <path d="M4.25 -22.1 L5.8 -22.15 M18.2 -9.55 L18.35 -9.15 Q18.95 -8.0 20.9 -6.7 L23.05 -5.45 Q26.3 -3.95 27.95 -1.95 L28.3 -1.4 Q31.5 -0.15 33.55 3.95 L34.0 6.2 34.1 7.5 34.15 8.7 34.1 9.55 Q33.55 15.0 28.25 18.45 L28.15 18.5 27.2 18.85 23.3 20.45 Q18.05 22.7 13.05 25.6 10.55 26.85 8.25 27.55 L5.8 27.8 Q1.5 27.85 -2.5 25.4 -10.3 20.6 -10.6 20.1 L-10.75 20.1 Q-15.1 15.85 -15.9 4.65 L-15.9 4.4 -16.25 1.1 -16.6 0.55 -16.8 0.5 -16.65 0.35 -18.4 -2.55 M-18.4 -2.65 L-19.4 -4.75 Q-19.35 -15.85 -17.95 -19.65 M-17.9 -19.8 Q-17.5 -21.0 -16.9 -21.35 L-16.35 -21.65 -6.5 -21.9 4.25 -22.1 Q11.85 -19.45 17.9 -10.35 M29.95 2.2 L28.3 -1.4 M7.4 13.1 Q13.1 12.1 21.45 7.6 29.85 2.95 30.15 2.95 L29.95 2.2 M6.95 11.2 Q8.55 12.2 7.4 13.1 L7.2 13.25 6.75 13.45 Q6.65 13.75 6.7 14.15 6.05 13.7 5.6 13.6 L4.75 13.5 Q1.75 13.7 4.25 13.35 L-1.45 11.7 M6.8 13.2 L6.75 13.45 5.6 13.6 5.15 13.45 5.05 13.45 4.75 13.5 4.25 13.35 5.05 13.45 M7.4 13.1 L6.8 13.2 6.95 11.2 M6.8 13.2 L6.0 13.35 5.15 13.45 M-15.1 2.2 Q-12.4 4.75 -10.05 7.95 L-9.85 8.45 Q-6.05 10.95 -1.45 11.7 M-16.65 0.35 L-16.6 0.55 M-16.25 1.1 L-15.1 2.2" fill="none" stroke="#000000" stroke-linecap="round" stroke-linejoin="round" stroke-opacity="0.3019608" stroke-width="0.05"/>
    </g>
    <g id="shape4" transform="matrix(1.0, 0.0, 0.0, 1.0, -4.95, -0.1)">
      <path d="M9.55 13.45 L8.8 10.5 15.7 10.95 19.1 10.5 19.15 10.55 Q19.1 12.2 19.3 13.6 19.8 16.95 21.8 18.15 L21.85 18.9 Q19.8 21.25 15.1 21.35 L14.5 21.4 13.85 21.35 Q19.8 20.4 18.25 18.45 17.0 16.3 16.35 14.5 L11.5 14.1 9.55 13.45" fill="#34231d" fill-rule="evenodd" stroke="none"/>
      <path d="M9.55 13.45 L11.5 14.1 16.35 14.5 Q17.0 16.3 18.25 18.45 19.8 20.4 13.85 21.35 9.75 21.0 9.05 19.6 L8.9 18.95 9.0 18.85 Q9.05 17.75 9.65 16.75 L9.55 13.45 M21.8 18.15 Q19.8 16.95 19.3 13.6 19.1 12.2 19.15 10.55 L19.75 10.45 Q19.5 14.0 20.65 16.65 21.6 17.55 21.8 18.15" fill="#543930" fill-rule="evenodd" stroke="none"/>
      <path d="M19.15 10.55 L19.1 10.5 15.7 10.95 8.8 10.5 9.55 13.45 9.65 16.75 Q9.05 17.75 9.0 18.85 L8.9 18.95 9.05 19.6 Q9.75 21.0 13.85 21.35 L14.5 21.4 15.1 21.35 Q19.8 21.25 21.85 18.9 L21.8 18.15 M19.15 10.55 L19.75 10.45 Q19.5 14.0 20.65 16.65 21.6 17.55 21.8 18.15" fill="none" stroke="#000000" stroke-linecap="round" stroke-linejoin="round" stroke-opacity="0.3019608" stroke-width="0.05"/>
      <path d="M6.65 1.4 L6.55 1.5 6.55 1.45 6.65 1.4" fill="#b6bead" fill-rule="evenodd" stroke="none"/>
      <path d="M20.7 11.7 L20.9 11.5 20.9 11.6 20.7 11.7" fill="#6d7d69" fill-rule="evenodd" stroke="none"/>
      <path d="M21.3 3.9 L21.1 4.15 21.05 4.1 21.3 3.9" fill="#566251" fill-rule="evenodd" stroke="none"/>
      <path d="M8.75 9.85 Q9.55 9.15 7.45 6.45 L7.45 6.35 7.35 6.3 6.7 5.1 7.25 5.45 7.3 5.4 Q12.8 7.05 18.65 4.3 L18.75 4.15 19.55 3.95 19.6 3.95 Q19.75 3.8 19.85 3.75 21.05 3.1 21.45 2.3 L21.55 3.6 21.4 3.8 21.35 3.85 21.3 3.85 21.3 3.9 21.05 4.1 20.05 5.1 19.85 5.35 19.8 5.45 19.8 5.5 Q14.3 9.15 14.9 10.4 L15.05 10.7 17.95 10.8 20.5 10.65 20.5 10.6 20.6 10.55 20.85 10.5 22.6 9.55 21.55 11.0 21.0 11.45 20.9 11.5 20.7 11.7 Q14.45 14.3 9.5 12.8 L8.35 12.4 8.3 12.35 6.5 10.5 Q5.75 8.95 6.6 8.4 L7.9 9.8 7.95 9.8 8.3 9.95 8.4 10.05 8.75 9.85" fill="#543930" fill-rule="evenodd" stroke="none"/>
      <path d="M6.4 5.45 L7.55 7.5 7.6 7.6 7.6 7.65 Q8.85 9.4 8.75 9.85 L8.4 10.05 8.3 9.95 7.95 9.8 7.9 9.8 6.6 8.4 Q5.75 8.95 6.5 10.5 5.55 9.15 6.1 8.1 6.75 7.2 6.4 5.45 M21.1 4.15 L20.1 5.35 19.9 5.7 19.85 5.8 Q15.3 9.6 16.7 10.55 18.3 8.45 20.1 7.7 L20.1 7.65 20.2 7.65 Q20.3 7.5 20.4 7.5 L21.8 7.3 22.2 7.85 Q23.25 8.3 22.6 9.55 L20.85 10.5 20.6 10.55 20.5 10.6 20.5 10.65 17.95 10.8 15.05 10.7 14.9 10.4 Q14.3 9.15 19.8 5.5 L19.8 5.45 19.85 5.35 20.05 5.1 21.05 4.1 21.1 4.15" fill="#3f2923" fill-rule="evenodd" stroke="none"/>
      <path d="M21.55 3.6 L21.65 3.35 21.6 3.65 21.6 3.85 Q21.25 6.3 21.8 7.3 L20.4 7.5 Q20.3 7.5 20.2 7.65 L20.1 7.65 20.1 7.7 Q18.3 8.45 16.7 10.55 15.3 9.6 19.85 5.8 L19.9 5.7 20.1 5.35 21.1 4.15 21.3 3.9 21.3 3.85 21.35 3.85 21.4 3.8 21.55 3.6" fill="#2d1e19" fill-rule="evenodd" stroke="none"/>
      <path d="M21.65 3.35 L21.55 3.6 21.45 2.3 Q21.05 3.1 19.85 3.75 19.75 3.8 19.6 3.95 L19.55 3.95 18.75 4.15 18.65 4.3 Q12.8 7.05 7.3 5.4 L7.25 5.45 6.7 5.1 7.35 6.3 7.45 6.35 7.45 6.45 Q9.55 9.15 8.75 9.85 8.85 9.4 7.6 7.65 L7.6 7.6 7.55 7.5 6.4 5.45 5.2 3.65 5.15 3.5 Q4.35 2.3 6.55 1.5 L6.65 1.4 6.9 1.3 6.9 2.45 Q7.1 4.1 9.85 4.65 14.8 4.6 17.4 3.45 L19.35 2.1 19.3 2.1 19.45 1.85 19.05 0.5 19.05 0.45 18.85 0.1 19.0 0.15 19.3 0.2 Q22.1 0.65 21.9 2.25 L21.85 2.7 21.65 3.35" fill="#7b5247" fill-rule="evenodd" stroke="none"/>
      <path d="M21.65 3.35 L21.85 2.7 21.9 2.25 Q22.1 0.65 19.3 0.2 L19.0 0.15 18.85 0.1 19.05 0.45 M19.35 2.1 L17.4 3.45 Q14.8 4.6 9.85 4.65 7.1 4.1 6.9 2.45 L6.9 1.3 6.65 1.4 6.55 1.5 Q4.35 2.3 5.15 3.5 L5.2 3.65 6.4 5.45 7.55 7.5 7.6 7.6 M7.6 7.65 Q8.85 9.4 8.75 9.85 L8.4 10.05 8.3 9.95 M21.4 3.8 L21.35 3.85 21.3 3.85 M21.8 7.3 Q21.25 6.3 21.6 3.85 L21.6 3.65 21.65 3.35 M22.6 9.55 Q23.25 8.3 22.2 7.85 L21.8 7.3 M20.7 11.7 L20.9 11.5 21.0 11.45 21.55 11.0 22.6 9.55 M20.9 11.6 L20.7 11.7 Q14.45 14.3 9.5 12.8 L8.35 12.4 8.3 12.35 6.5 10.5 Q5.55 9.15 6.1 8.1 6.75 7.2 6.4 5.45 M6.55 1.45 L6.65 1.4" fill="none" stroke="#000000" stroke-linecap="round" stroke-linejoin="round" stroke-opacity="0.3019608" stroke-width="0.05"/>
      <path d="M15.1 6.2 L16.25 6.05 19.1 5.35 20.8 4.75 21.9 8.45 19.75 9.4 17.45 9.95 Q15.05 10.45 12.2 10.0 L13.55 10.0 16.3 9.25 Q17.6 8.7 17.5 8.25 17.35 7.25 15.1 6.2" fill="#a39664" fill-rule="evenodd" stroke="none"/>
      <path d="M12.2 10.0 L11.95 10.0 9.45 9.5 Q7.95 9.05 6.85 8.4 L6.8 5.55 10.55 6.15 15.1 6.2 Q17.35 7.25 17.5 8.25 17.6 8.7 16.3 9.25 L13.55 10.0 12.2 10.0" fill="#cdc293" fill-rule="evenodd" stroke="none"/>
      <path d="M15.1 6.2 L16.25 6.05 19.1 5.35 20.8 4.75 21.9 8.45 19.75 9.4 17.45 9.95 Q15.05 10.45 12.2 10.0 L11.95 10.0 9.45 9.5 Q7.95 9.05 6.85 8.4 L6.8 5.55 10.55 6.15 15.1 6.2 Z" fill="none" stroke="#000000" stroke-linecap="round" stroke-linejoin="round" stroke-opacity="0.3019608" stroke-width="0.05"/>
      <path d="M21.5 17.75 L21.45 17.8 21.45 17.7 21.5 17.75" fill="#9b9f89" fill-rule="evenodd" stroke="none"/>
      <path d="M21.5 17.75 L21.45 17.8 21.5 17.75" fill="#b7ab71" fill-rule="evenodd" stroke="none"/>
      <path d="M21.45 17.8 L21.5 17.75 22.05 18.55 22.4 19.35 Q21.65 20.45 18.25 21.25 L17.15 21.5 17.55 21.2 Q18.7 20.45 18.6 19.7 L17.95 18.45 19.85 18.35 20.75 18.15 21.45 17.8" fill="#a39664" fill-rule="evenodd" stroke="none"/>
      <path d="M17.15 21.5 L16.7 21.55 Q10.6 22.45 8.8 20.45 L9.05 16.9 Q9.6 17.9 13.65 18.3 L16.2 18.45 17.95 18.45 18.6 19.7 Q18.7 20.45 17.55 21.2 L17.15 21.5" fill="#cdc293" fill-rule="evenodd" stroke="none"/>
      <path d="M21.45 17.8 L21.45 17.7 20.7 17.6 M21.5 17.75 L22.05 18.55 22.4 19.35 Q21.65 20.45 18.25 21.25 L17.15 21.5 16.7 21.55 Q10.6 22.45 8.8 20.45 L9.05 16.9 Q9.6 17.9 13.65 18.3 L16.2 18.45 17.95 18.45 19.85 18.35 20.75 18.15 21.45 17.8 M21.45 17.7 L21.5 17.75" fill="none" stroke="#000000" stroke-linecap="round" stroke-linejoin="round" stroke-opacity="0.3019608" stroke-width="0.05"/>
      <path d="M13.8 17.45 Q14.9 17.2 15.4 16.55 15.9 15.9 15.8 15.15 15.75 14.7 14.7 13.95 L16.35 13.9 18.6 13.5 19.9 13.1 21.15 16.75 19.55 17.55 17.7 17.85 13.8 17.45" fill="#a39664" fill-rule="evenodd" stroke="none"/>
      <path d="M14.7 13.95 Q15.75 14.7 15.8 15.15 15.9 15.9 15.4 16.55 14.9 17.2 13.8 17.45 L13.3 17.3 Q10.75 16.6 9.05 15.25 L8.75 12.45 Q9.35 12.95 11.85 13.5 L14.7 13.95" fill="#cdc293" fill-rule="evenodd" stroke="none"/>
      <path d="M13.8 17.45 L17.7 17.85 19.55 17.55 21.15 16.75 19.9 13.1 18.6 13.5 16.35 13.9 14.7 13.95 11.85 13.5 Q9.35 12.95 8.75 12.45 L9.05 15.25 Q10.75 16.6 13.3 17.3 L13.8 17.45 Z" fill="none" stroke="#000000" stroke-linecap="round" stroke-linejoin="round" stroke-opacity="0.3019608" stroke-width="0.05"/>
      <path d="M15.5 19.1 L16.35 18.55 Q16.9 18.0 16.8 17.35 16.7 16.6 16.05 16.1 L14.0 15.05 17.45 15.15 19.25 14.85 20.6 14.4 20.75 14.4 21.7 17.05 Q21.8 17.7 19.2 18.4 L15.5 19.1" fill="#a39664" fill-rule="evenodd" stroke="none"/>
      <path d="M14.0 15.05 L16.05 16.1 Q16.7 16.6 16.8 17.35 16.9 18.0 16.35 18.55 L15.5 19.1 15.05 19.15 11.35 18.6 Q8.9 17.85 8.75 16.7 L8.8 14.65 8.55 14.05 Q9.35 14.6 12.7 14.9 L13.6 14.95 14.0 15.05" fill="#cdc293" fill-rule="evenodd" stroke="none"/>
      <path d="M13.6 14.95 L12.7 14.9 Q9.35 14.6 8.55 14.05 L8.8 14.65 8.75 16.7 Q8.9 17.85 11.35 18.6 L15.05 19.15 15.5 19.1 19.2 18.4 Q21.8 17.7 21.7 17.05 L20.75 14.4 20.6 14.4 19.25 14.85 17.45 15.15 14.0 15.05" fill="none" stroke="#000000" stroke-linecap="round" stroke-linejoin="round" stroke-opacity="0.3019608" stroke-width="0.05"/>
      <path d="M15.25 8.8 L16.6 8.45 19.35 7.4 21.0 6.55 Q23.95 8.3 23.4 9.55 22.95 10.85 22.35 11.1 L20.05 11.9 16.0 12.65 16.85 12.3 Q18.25 11.6 18.1 11.15 17.85 10.15 16.45 9.35 15.95 9.0 15.25 8.8" fill="#a39664" fill-rule="evenodd" stroke="none"/>
      <path d="M16.0 12.65 L13.95 12.75 Q10.25 12.8 7.35 11.95 L5.8 9.25 10.3 9.4 15.25 8.8 Q15.95 9.0 16.45 9.35 17.85 10.15 18.1 11.15 18.25 11.6 16.85 12.3 L16.0 12.65" fill="#cdc293" fill-rule="evenodd" stroke="none"/>
      <path d="M15.25 8.8 L16.6 8.45 19.35 7.4 21.0 6.55 Q23.95 8.3 23.4 9.55 22.95 10.85 22.35 11.1 L20.05 11.9 16.0 12.65 13.95 12.75 Q10.25 12.8 7.35 11.95 L5.8 9.25 10.3 9.4 15.25 8.8 Z" fill="none" stroke="#000000" stroke-linecap="round" stroke-linejoin="round" stroke-opacity="0.3019608" stroke-width="0.05"/>
      <path d="M15.95 21.7 L17.55 21.5 20.15 20.9 21.7 20.25 22.1 22.75 20.15 24.6 17.8 25.4 16.15 25.65 16.95 24.9 Q17.5 24.2 17.4 23.45 17.25 22.4 15.95 21.7" fill="#a39664" fill-rule="evenodd" stroke="none"/>
      <path d="M16.15 25.65 L13.5 25.35 11.6 24.85 Q10.2 24.35 9.15 23.6 L9.3 20.7 Q9.9 21.15 12.55 21.5 L15.95 21.7 Q17.25 22.4 17.4 23.45 17.5 24.2 16.95 24.9 L16.15 25.65" fill="#cdc293" fill-rule="evenodd" stroke="none"/>
      <path d="M15.95 21.7 L17.55 21.5 20.15 20.9 21.7 20.25 22.1 22.75 20.15 24.6 17.8 25.4 16.15 25.65 13.5 25.35 11.6 24.85 Q10.2 24.35 9.15 23.6 L9.3 20.7 Q9.9 21.15 12.55 21.5 L15.95 21.7 Z" fill="none" stroke="#000000" stroke-linecap="round" stroke-linejoin="round" stroke-opacity="0.3019608" stroke-width="0.05"/>
      <path d="M16.0 28.75 L16.05 28.75 Q17.65 28.6 17.4 27.0 17.25 26.2 16.5 25.45 20.6 27.65 20.1 30.55 L18.15 33.2 Q18.7 30.7 16.0 28.75" fill="#a39664" fill-rule="evenodd" stroke="none"/>
      <path d="M14.35 24.5 L16.45 25.4 16.5 25.45 Q17.25 26.2 17.4 27.0 17.65 28.6 16.05 28.75 L16.0 28.75 14.65 27.9 13.15 27.2 Q11.1 26.35 9.1 26.25 L7.05 26.3 Q6.15 26.4 5.7 26.9 L7.75 24.2 Q8.25 23.85 8.9 23.8 11.6 23.5 14.35 24.5" fill="#cdc293" fill-rule="evenodd" stroke="none"/>
      <path d="M14.35 24.5 Q11.6 23.5 8.9 23.8 8.25 23.85 7.75 24.2 L5.7 26.9 Q6.15 26.4 7.05 26.3 L9.1 26.25 Q11.1 26.35 13.15 27.2 L14.65 27.9 16.0 28.75 M16.5 25.45 Q20.6 27.65 20.1 30.55 L18.15 33.2 Q18.7 30.7 16.0 28.75" fill="none" stroke="#000000" stroke-linecap="round" stroke-linejoin="round" stroke-opacity="0.3019608" stroke-width="0.05"/>
    </g>
    <g id="shape5" transform="matrix(1.0, 0.0, 0.0, 1.0, -22.3, -2.9)">
      <path d="M36.45 5.45 L35.75 4.1 Q32.25 2.5 25.85 3.05 L22.3 3.65 22.5 4.5 26.0 3.95 Q31.2 3.55 36.45 5.45" fill="#966457" fill-rule="evenodd" stroke="none"/>
      <path d="M36.45 5.45 Q31.2 3.55 26.0 3.95 L22.5 4.5 Q24.85 9.85 35.0 7.25 L36.45 5.45" fill="#1c120f" fill-rule="evenodd" stroke="none"/>
      <path d="M22.5 4.5 L22.3 3.65 25.85 3.05 Q32.25 2.5 35.75 4.1 L36.45 5.45 Q31.2 3.55 26.0 3.95 L22.5 4.5 Q24.85 9.85 35.0 7.25 L36.45 5.45" fill="none" stroke="#000000" stroke-linecap="round" stroke-linejoin="round" stroke-opacity="0.3019608" stroke-width="0.05"/>
    </g>
    <g id="shape6" transform="matrix(1.0, 0.0, 0.0, 1.0, -19.35, -3.3)">
      <path d="M23.75 14.35 L23.65 17.55 Q23.25 21.15 21.3 22.5 21.05 23.15 21.3 23.3 23.4 25.7 28.0 25.55 L28.6 25.5 29.25 25.4 Q23.35 24.75 24.8 22.65 26.05 20.3 26.6 18.35 29.1 18.45 31.35 17.7 L33.3 16.8 Q33.5 15.3 33.95 13.75 30.6 14.6 27.2 14.55 L23.75 14.3 23.75 14.35" fill="#402b24" fill-rule="evenodd" stroke="none"/>
      <path d="M23.75 14.35 L23.1 14.25 Q23.5 18.05 22.4 20.85 21.5 21.9 21.3 22.5 23.25 21.15 23.65 17.55 L23.75 14.35 M29.25 25.4 Q33.3 24.8 33.95 23.3 L34.1 22.6 34.0 22.5 Q33.9 21.35 33.3 20.35 33.1 18.65 33.3 16.8 L31.35 17.7 Q29.1 18.45 26.6 18.35 26.05 20.3 24.8 22.65 23.35 24.75 29.25 25.4" fill="#67463b" fill-rule="evenodd" stroke="none"/>
      <path d="M21.3 22.5 Q21.5 21.9 22.4 20.85 23.5 18.05 23.1 14.25 L23.75 14.35 M21.3 22.5 Q21.05 23.15 21.3 23.3 23.4 25.7 28.0 25.55 L28.6 25.5 29.25 25.4 Q33.3 24.8 33.95 23.3 L34.1 22.6 34.0 22.5 Q33.9 21.35 33.3 20.35 33.1 18.65 33.3 16.8 33.5 15.3 33.95 13.75 30.6 14.6 27.2 14.55 L23.75 14.3 23.75 14.35" fill="none" stroke="#000000" stroke-linecap="round" stroke-linejoin="round" stroke-opacity="0.3019608" stroke-width="0.05"/>
      <path d="M35.95 4.05 L35.95 4.0 35.85 4.0 35.95 4.05" fill="#dfe8d3" fill-rule="evenodd" stroke="none"/>
      <path d="M22.05 15.5 L22.05 15.6 22.2 15.6 22.05 15.5" fill="#859980" fill-rule="evenodd" stroke="none"/>
      <path d="M21.45 7.5 L21.65 7.7 21.7 7.65 21.45 7.5" fill="#6a7863" fill-rule="evenodd" stroke="none"/>
      <path d="M20.25 13.5 L21.35 14.95 21.9 15.4 22.05 15.5 22.2 15.6 Q28.45 18.05 33.3 16.15 L34.45 15.65 34.5 15.6 36.25 13.55 Q37.0 11.85 36.1 11.35 L34.85 12.9 34.8 12.9 34.45 13.1 34.35 13.2 34.0 13.0 Q33.25 12.35 35.15 9.35 L35.2 9.3 35.3 9.15 35.95 7.9 35.35 8.25 35.3 8.25 Q29.95 10.3 24.1 7.7 L23.95 7.6 23.15 7.35 23.1 7.35 22.85 7.25 Q21.7 6.65 21.25 5.8 L21.2 7.15 21.4 7.35 21.45 7.4 21.5 7.45 21.45 7.5 21.7 7.65 22.7 8.7 22.9 8.9 22.95 9.0 Q28.5 12.55 27.9 13.95 L27.8 14.2 24.95 14.55 22.4 14.5 22.4 14.45 22.3 14.4 22.05 14.4 Q21.2 14.1 20.25 13.5" fill="#67463b" fill-rule="evenodd" stroke="none"/>
      <path d="M21.1 11.1 L20.6 11.65 Q19.6 12.2 20.25 13.5 21.2 14.1 22.05 14.4 L22.3 14.4 22.4 14.45 22.4 14.5 24.95 14.55 27.8 14.2 27.9 13.95 Q28.5 12.55 22.95 9.0 L22.9 8.9 22.7 8.7 21.7 7.65 21.65 7.7 22.65 8.95 22.85 9.25 22.9 9.35 Q27.5 13.1 26.15 14.25 24.55 12.05 22.7 11.4 L22.7 11.35 22.6 11.3 22.4 11.2 21.1 11.1 M36.25 13.55 Q37.15 12.1 36.6 11.0 36.0 10.1 36.2 8.25 L35.15 10.45 35.1 10.55 35.05 10.6 Q33.9 12.5 34.0 13.0 L34.35 13.2 34.45 13.1 34.8 12.9 34.85 12.9 36.1 11.35 Q37.0 11.85 36.25 13.55" fill="#4d332b" fill-rule="evenodd" stroke="none"/>
      <path d="M21.05 6.9 L21.1 7.2 21.15 7.4 Q21.55 10.0 21.1 11.1 L22.4 11.2 22.6 11.3 22.7 11.35 22.7 11.4 Q24.55 12.05 26.15 14.25 27.5 13.1 22.9 9.35 L22.85 9.25 22.65 8.95 21.65 7.7 21.45 7.5 21.5 7.45 21.45 7.4 21.4 7.35 21.2 7.15 21.05 6.9" fill="#38251f" fill-rule="evenodd" stroke="none"/>
      <path d="M36.2 8.25 L37.35 6.25 37.45 6.15 Q38.15 4.8 35.95 4.05 L35.85 4.0 35.6 3.9 35.65 5.15 Q35.5 6.85 32.8 7.6 27.9 7.85 25.3 6.7 24.1 6.2 23.35 5.45 L23.35 5.4 23.2 5.2 23.55 3.7 23.55 3.65 23.75 3.3 23.6 3.35 23.3 3.45 Q20.55 4.05 20.75 5.8 L20.85 6.2 21.05 6.9 21.2 7.15 21.25 5.8 Q21.7 6.65 22.85 7.25 L23.1 7.35 23.15 7.35 23.95 7.6 24.1 7.7 Q29.95 10.3 35.3 8.25 L35.35 8.25 35.95 7.9 35.3 9.15 35.2 9.3 35.15 9.35 Q33.25 12.35 34.0 13.0 33.9 12.5 35.05 10.6 L35.1 10.55 35.15 10.45 36.2 8.25" fill="#966457" fill-rule="evenodd" stroke="none"/>
      <path d="M21.05 6.9 L21.1 7.2 21.15 7.4 Q21.55 10.0 21.1 11.1 L20.6 11.65 Q19.6 12.2 20.25 13.5 L21.35 14.95 21.9 15.4 22.05 15.5 M22.05 15.6 L22.2 15.6 Q28.45 18.05 33.3 16.15 L34.45 15.65 34.5 15.6 36.25 13.55 Q37.15 12.1 36.6 11.0 36.0 10.1 36.2 8.25 L37.35 6.25 37.45 6.15 Q38.15 4.8 35.95 4.05 M35.95 4.0 L35.85 4.0 35.6 3.9 35.65 5.15 Q35.5 6.85 32.8 7.6 27.9 7.85 25.3 6.7 24.1 6.2 23.35 5.45 M23.55 3.65 L23.75 3.3 23.6 3.35 23.3 3.45 Q20.55 4.05 20.75 5.8 L20.85 6.2 21.05 6.9 M21.4 7.35 L21.45 7.4 21.5 7.45 M22.2 15.6 L22.05 15.5 M35.85 4.0 L35.95 4.05 M36.2 8.25 L35.15 10.45 35.1 10.55 M35.05 10.6 Q33.9 12.5 34.0 13.0 L34.35 13.2 34.45 13.1" fill="none" stroke="#000000" stroke-linecap="round" stroke-linejoin="round" stroke-opacity="0.3019608" stroke-width="0.05"/>
      <path d="M27.6 9.5 L26.55 9.4 23.7 8.85 21.95 8.3 20.95 12.25 23.15 13.15 25.45 13.55 30.55 13.35 29.25 13.4 26.5 12.8 Q25.25 12.3 25.35 11.8 25.45 10.75 27.6 9.5" fill="#c7b87b" fill-rule="evenodd" stroke="none"/>
      <path d="M30.55 13.35 L30.9 13.25 33.35 12.6 Q34.8 12.05 35.85 11.3 L35.8 8.35 32.15 9.2 27.6 9.5 Q25.45 10.75 25.35 11.8 25.25 12.3 26.5 12.8 L29.25 13.4 30.55 13.35" fill="#faedb4" fill-rule="evenodd" stroke="none"/>
      <path d="M27.6 9.5 L26.55 9.4 23.7 8.85 21.95 8.3 20.95 12.25 23.15 13.15 25.45 13.55 30.55 13.35 30.9 13.25 33.35 12.6 Q34.8 12.05 35.85 11.3 L35.8 8.35 32.15 9.2 27.6 9.5 Z" fill="none" stroke="#000000" stroke-linecap="round" stroke-linejoin="round" stroke-opacity="0.3019608" stroke-width="0.05"/>
      <path d="M21.65 22.0 L21.6 22.05 21.65 22.1 21.65 22.0" fill="#bec2a8" fill-rule="evenodd" stroke="none"/>
      <path d="M21.65 22.1 L21.6 22.05 21.65 22.1" fill="#e0d18a" fill-rule="evenodd" stroke="none"/>
      <path d="M21.6 22.05 L21.05 22.95 20.75 23.85 Q21.5 24.95 24.95 25.6 L25.95 25.75 25.55 25.55 Q24.45 24.8 24.55 24.0 24.6 23.3 25.1 22.65 L23.25 22.6 22.35 22.45 21.65 22.1 21.6 22.05" fill="#c7b87b" fill-rule="evenodd" stroke="none"/>
      <path d="M25.95 25.75 L26.4 25.8 Q32.5 26.4 34.25 24.2 L33.95 20.4 Q33.4 21.55 29.4 22.2 L26.85 22.55 25.1 22.65 Q24.6 23.3 24.55 24.0 24.45 24.8 25.55 25.55 L25.95 25.75" fill="#faedb4" fill-rule="evenodd" stroke="none"/>
      <path d="M21.65 22.0 L21.6 22.05 21.05 22.95 20.75 23.85 Q21.5 24.95 24.95 25.6 L25.95 25.75 26.4 25.8 Q32.5 26.4 34.25 24.2 L33.95 20.4 Q33.4 21.55 29.4 22.2 L26.85 22.55 25.1 22.65 23.25 22.6 22.35 22.45 21.65 22.1 21.65 22.0 22.4 21.9" fill="none" stroke="#000000" stroke-linecap="round" stroke-linejoin="round" stroke-opacity="0.3019608" stroke-width="0.05"/>
      <path d="M29.25 21.3 Q28.15 21.1 27.55 20.45 27.05 19.8 27.15 19.0 27.2 18.5 28.2 17.65 L26.55 17.75 24.35 17.4 23.05 17.0 21.9 21.0 23.55 21.7 25.35 21.95 29.25 21.3" fill="#c7b87b" fill-rule="evenodd" stroke="none"/>
      <path d="M28.2 17.65 Q27.2 18.5 27.15 19.0 27.05 19.8 27.55 20.45 28.15 21.1 29.25 21.3 L29.7 21.1 Q32.2 20.15 33.8 18.7 L34.1 15.75 Q33.5 16.25 31.05 17.0 L28.2 17.65" fill="#faedb4" fill-rule="evenodd" stroke="none"/>
      <path d="M28.2 17.65 L31.05 17.0 Q33.5 16.25 34.1 15.75 L33.8 18.7 Q32.2 20.15 29.7 21.1 L29.25 21.3 25.35 21.95 23.55 21.7 21.9 21.0 23.05 17.0 24.35 17.4 26.55 17.75 28.2 17.65 Z" fill="none" stroke="#000000" stroke-linecap="round" stroke-linejoin="round" stroke-opacity="0.3019608" stroke-width="0.05"/>
      <path d="M28.95 18.75 L25.6 19.1 23.75 18.9 22.4 18.5 22.25 18.5 21.35 21.35 Q21.3 22.05 23.85 22.65 L27.55 23.2 26.7 22.65 Q26.15 22.05 26.25 21.35 26.35 20.6 26.9 20.0 L28.95 18.75" fill="#c7b87b" fill-rule="evenodd" stroke="none"/>
      <path d="M27.55 23.2 L28.0 23.15 Q29.6 23.2 31.7 22.35 34.05 21.45 34.2 20.25 L34.1 18.05 34.3 17.4 Q33.5 18.05 30.2 18.6 L29.35 18.7 28.95 18.75 26.9 20.0 Q26.35 20.6 26.25 21.35 26.15 22.05 26.7 22.65 L27.55 23.2" fill="#faedb4" fill-rule="evenodd" stroke="none"/>
      <path d="M28.95 18.75 L25.6 19.1 23.75 18.9 22.4 18.5 22.25 18.5 21.35 21.35 Q21.3 22.05 23.85 22.65 L27.55 23.2 28.0 23.15 Q29.6 23.2 31.7 22.35 34.05 21.45 34.2 20.25 L34.1 18.05 34.3 17.4 Q33.5 18.05 30.2 18.6 L29.35 18.7" fill="none" stroke="#000000" stroke-linecap="round" stroke-linejoin="round" stroke-opacity="0.3019608" stroke-width="0.05"/>
      <path d="M27.5 12.25 L26.15 11.95 23.35 11.0 21.75 10.2 Q18.9 12.25 19.45 13.5 19.95 14.8 20.5 15.05 L22.85 15.85 26.8 16.35 26.0 16.0 Q24.6 15.3 24.7 14.85 24.95 13.75 26.3 12.85 26.85 12.5 27.5 12.25" fill="#c7b87b" fill-rule="evenodd" stroke="none"/>
      <path d="M26.8 16.35 L28.9 16.3 Q32.6 16.1 35.4 15.1 L36.85 12.2 32.35 12.55 27.5 12.25 Q26.85 12.5 26.3 12.85 24.95 13.75 24.7 14.85 24.6 15.3 26.0 16.0 L26.8 16.35" fill="#faedb4" fill-rule="evenodd" stroke="none"/>
      <path d="M27.5 12.25 L26.15 11.95 23.35 11.0 21.75 10.2 Q18.9 12.25 19.45 13.5 19.95 14.8 20.5 15.05 L22.85 15.85 26.8 16.35 28.9 16.3 Q32.6 16.1 35.4 15.1 L36.85 12.2 32.35 12.55 27.5 12.25 Z" fill="none" stroke="#000000" stroke-linecap="round" stroke-linejoin="round" stroke-opacity="0.3019608" stroke-width="0.05"/>
      <path d="M27.15 25.95 L25.55 25.85 22.95 25.35 21.45 24.8 21.15 27.4 Q22.45 29.05 23.05 29.25 L25.4 29.95 27.1 30.1 26.2 29.4 Q25.65 28.65 25.75 27.85 25.9 26.75 27.15 25.95" fill="#c7b87b" fill-rule="evenodd" stroke="none"/>
      <path d="M27.1 30.1 L29.7 29.65 31.55 29.05 33.95 27.55 33.7 24.5 Q33.2 25.05 30.5 25.55 L27.15 25.95 Q25.9 26.75 25.75 27.85 25.65 28.65 26.2 29.4 L27.1 30.1" fill="#faedb4" fill-rule="evenodd" stroke="none"/>
      <path d="M27.15 25.95 L25.55 25.85 22.95 25.35 21.45 24.8 21.15 27.4 Q22.45 29.05 23.05 29.25 L25.4 29.95 27.1 30.1 29.7 29.65 31.55 29.05 33.95 27.55 33.7 24.5 Q33.2 25.05 30.5 25.55 L27.15 25.95 Z" fill="none" stroke="#000000" stroke-linecap="round" stroke-linejoin="round" stroke-opacity="0.3019608" stroke-width="0.05"/>
      <path d="M27.25 33.45 L27.2 33.4 Q25.6 33.3 25.8 31.6 25.9 30.75 26.7 30.0 22.75 32.5 23.25 35.55 L25.2 38.2 Q24.65 35.6 27.25 33.45" fill="#c7b87b" fill-rule="evenodd" stroke="none"/>
      <path d="M26.7 30.0 Q25.9 30.75 25.8 31.6 25.6 33.3 27.2 33.4 L27.25 33.45 27.3 33.4 28.6 32.45 30.05 31.6 Q32.1 30.6 34.05 30.4 L36.05 30.3 Q36.95 30.35 37.45 30.85 L35.3 28.15 Q34.85 27.75 34.2 27.75 31.5 27.6 28.8 28.8 27.75 29.3 26.75 29.95 L26.7 30.0" fill="#faedb4" fill-rule="evenodd" stroke="none"/>
      <path d="M28.8 28.8 Q31.5 27.6 34.2 27.75 34.85 27.75 35.3 28.15 L37.45 30.85 Q36.95 30.35 36.05 30.3 L34.05 30.4 Q32.1 30.6 30.05 31.6 L28.6 32.45 27.3 33.4 27.25 33.45 Q24.65 35.6 25.2 38.2 L23.25 35.55 Q22.75 32.5 26.7 30.0" fill="none" stroke="#000000" stroke-linecap="round" stroke-linejoin="round" stroke-opacity="0.3019608" stroke-width="0.05"/>
    </g>
  </defs>
</svg>
