<?xml version="1.0" encoding="UTF-8" standalone="no"?>
<svg xmlns:xlink="http://www.w3.org/1999/xlink" height="440.0px" width="440.0px" xmlns="http://www.w3.org/2000/svg">
  <g transform="matrix(10.0, 0.0, 0.0, 10.0, 0.0, 0.0)">
    <use height="44.0" transform="matrix(1.0, 0.0, 0.0, 1.0, 0.0, 0.0)" width="44.0" xlink:href="#shape0"/>
    <use height="38.3" transform="matrix(0.9714, 0.0136, -0.0136, 0.9714, 4.3841, 2.4241)" width="21.75" xlink:href="#sprite0"/>
    <use height="38.3" transform="matrix(1.0, 0.0, -0.0699, 1.0, 20.2499, 3.8)" width="21.75" xlink:href="#sprite0"/>
  </g>
  <defs>
    <g id="shape0" transform="matrix(1.0, 0.0, 0.0, 1.0, 0.0, 0.0)">
      <path d="M44.0 44.0 L0.0 44.0 0.0 0.0 44.0 0.0 44.0 44.0" fill="#43adca" fill-opacity="0.0" fill-rule="evenodd" stroke="none"/>
      <path d="M15.6 3.65 L16.9 2.7 15.35 2.6 Q12.7 2.55 10.25 3.45 L11.0 4.25 M9.65 3.25 L9.25 3.2 Q8.8 3.2 8.1 3.65 L7.5 4.4 8.5 4.25 M9.9 3.3 L10.25 3.45 M35.95 32.6 L35.55 34.4 35.55 34.55 35.35 36.3 31.65 42.1 26.35 41.15 24.9 40.9 20.8 40.2 18.0 39.7 18.0 39.15 17.6 39.8 12.35 38.8 10.9 38.55 6.9 37.85 4.15 37.3 3.95 35.85 3.9 34.3 4.35 31.05 4.85 29.4 5.95 27.9 5.5 24.35 7.85 21.4 Q7.35 17.3 6.9 9.9 L6.5 7.55 6.5 7.5 6.45 7.1 Q6.45 6.55 6.7 6.05 L6.85 5.85 6.3 6.4 Q6.2 5.35 6.7 4.8 6.95 4.5 7.5 4.4 M17.95 5.0 L18.9 5.05 Q19.45 5.25 19.95 6.15 L20.25 5.25 20.15 4.55 19.5 3.7 18.6 3.15 17.35 4.25 M20.25 5.25 L20.6 7.65 21.25 9.7 21.55 10.75 21.9 12.7 22.25 14.5 22.45 15.45 22.4 11.65 22.15 9.0 22.1 8.6 22.45 7.45 22.5 7.4 22.0 7.9 Q21.95 6.8 22.55 6.2 L23.3 5.75 24.0 5.0 Q24.75 4.55 25.2 4.55 L25.6 4.6 M16.9 2.7 Q17.9 2.85 18.6 3.15 M33.5 5.45 L34.85 4.35 33.15 3.9 31.75 4.85 M25.9 4.65 L26.25 4.8 Q28.8 3.8 31.55 3.8 L33.15 3.9 M34.85 4.35 L35.7 4.9 36.35 5.8 36.45 6.5 36.7 8.9 37.2 11.0 37.45 12.1 37.75 14.1 37.95 15.95 38.7 21.1 38.95 22.65 39.95 22.75 40.05 24.95 40.25 28.65 39.2 30.4 39.15 30.45 38.8 30.4 Q38.2 31.0 37.9 31.75 L37.9 31.9 Q37.45 33.8 36.4 33.8 L36.1 33.7 36.05 33.7 36.05 33.5 36.65 30.9 36.65 30.75 36.75 29.5 36.75 28.3 M36.45 6.5 L36.15 7.45 36.7 8.9 M36.65 27.05 L36.6 27.2 36.6 27.1 36.65 27.05 36.65 26.95 36.5 25.9 36.0 23.1 35.95 22.75 35.9 22.6 35.9 22.55 34.7 23.45 33.75 23.8 33.7 23.85 32.65 24.15 31.7 24.4 30.55 24.55 27.55 27.6 31.9 28.25 31.9 28.15 35.3 23.95 M37.1 22.15 Q37.25 21.7 37.6 21.6 L38.1 21.7 38.35 21.85 38.8 22.8 38.75 23.95 38.15 24.5 Q37.8 24.6 37.5 24.25 37.1 23.9 37.0 23.3 36.85 22.7 37.1 22.15 M39.95 22.75 L39.1 24.05 39.35 26.4 40.05 24.95 M39.35 26.4 L39.25 27.1 39.3 28.0 38.95 29.05 Q38.6 29.45 38.25 29.45 L37.9 29.3 37.65 29.0 Q37.45 28.55 37.5 27.9 37.6 27.3 37.9 26.85 38.25 26.45 38.6 26.5 38.95 26.5 39.2 26.9 L39.25 27.1 M34.05 6.3 Q34.5 6.15 35.1 6.3 35.65 6.5 36.15 7.45 M33.55 9.7 L32.45 10.2 32.2 10.3 31.15 10.65 26.95 11.25 25.9 11.25 25.8 11.3 27.45 24.65 28.15 24.65 30.45 24.55 29.55 23.25 29.35 22.9 29.3 22.7 29.1 21.75 29.15 18.4 29.35 17.05 29.55 16.55 M35.9 22.55 L35.25 19.65 Q34.55 15.55 34.05 10.25 L33.95 9.65 33.85 9.55 33.75 9.45 33.65 9.35 32.55 8.6 M25.45 9.5 L24.0 10.85 25.8 11.25 25.9 11.25 27.25 9.9 M25.8 11.25 L25.8 11.3 M31.7 24.4 L32.05 22.05 32.05 21.55 32.05 21.5 32.05 19.55 32.0 19.3 31.55 17.55 Q30.9 16.0 29.85 16.0 M23.3 5.75 L24.35 5.6 M24.55 7.4 L24.3 7.25 23.4 6.85 23.2 6.8 23.0 6.85 22.5 7.4 M24.9 17.5 L23.9 10.8 22.85 10.2 22.4 9.65 23.35 20.95 23.4 21.15 23.45 22.0 23.45 22.1 23.45 22.25 23.45 22.3 23.45 22.45 24.05 23.4 24.15 23.5 Q25.15 24.45 27.45 24.65 M22.4 11.65 L22.4 9.65 22.15 9.0 M23.9 10.8 L24.0 10.85 M11.45 8.5 L10.25 9.75 11.3 9.75 15.35 9.25 16.35 8.9 16.55 8.8 17.65 8.35 17.95 8.2 17.85 8.1 17.75 8.0 Q17.0 7.25 16.55 7.25 L15.9 7.6 M17.5 16.2 L18.55 22.05 19.5 21.7 20.6 20.85 19.8 18.05 Q18.9 14.05 18.1 8.9 L18.0 8.3 17.95 8.2 M19.95 6.15 L20.6 7.65 M22.45 15.45 L22.6 20.05 22.9 20.25 23.35 20.95 M22.45 23.65 L22.7 23.35 22.75 23.3 22.75 22.8 22.2 22.55 21.7 21.6 Q21.55 21.0 21.7 20.55 21.85 20.05 22.2 20.0 L22.3 20.0 22.6 20.05 M20.15 22.25 L17.0 26.3 17.0 26.4 17.35 30.65 19.8 27.55 20.2 27.0 20.15 26.35 21.5 24.8 21.4 24.2 20.75 21.45 20.65 21.1 20.6 20.9 20.6 20.85 M22.75 23.3 L22.85 23.15 23.2 22.6 22.9 22.8 22.75 22.8 M23.45 22.1 L23.4 22.25 23.35 22.45 23.45 22.3 M23.35 22.45 L23.2 22.6 M22.85 23.15 L23.45 22.45 M16.05 19.2 Q16.1 18.85 15.75 18.2 L15.1 17.5 15.35 19.9 15.65 19.8 16.05 19.6 16.05 19.2 M14.4 14.45 Q15.4 14.45 16.1 15.95 L16.65 17.65 16.7 17.9 16.8 19.8 16.8 20.35 16.6 22.6 17.55 22.35 18.55 22.05 M14.15 14.95 L13.95 15.45 Q13.8 15.95 13.8 16.75 13.75 18.8 13.95 20.0 L14.2 20.95 14.3 21.15 14.5 21.5 15.4 22.8 15.55 22.75 16.6 22.6 M18.0 39.15 L17.9 38.2 17.95 36.6 Q18.1 35.05 18.55 33.3 L19.15 31.5 20.35 29.95 20.25 27.35 19.8 27.55 M20.25 27.35 L20.2 27.05 20.2 27.0 M24.05 23.4 L22.9 25.1 23.5 24.75 24.05 25.2 24.25 25.55 24.75 24.8 M24.25 25.55 L24.3 26.25 24.3 26.4 24.1 27.0 27.5 27.6 27.55 27.6 27.5 27.65 27.85 31.95 32.05 32.65 31.9 28.25 M23.35 30.15 L23.3 27.65 22.9 27.4 22.75 27.15 22.55 26.8 22.5 26.15 22.8 25.2 22.85 25.1 22.9 25.1 M20.15 26.35 L21.5 26.55 21.65 26.35 21.7 26.3 22.2 25.7 M20.35 29.95 L20.4 30.7 21.9 30.95 21.65 26.65 21.5 26.55 M21.65 26.35 L21.65 26.65 21.75 26.65 22.25 26.75 M21.5 24.8 L22.0 24.2 M24.1 27.0 L24.05 27.15 23.95 27.25 Q23.65 27.7 23.3 27.65 M20.65 25.1 L18.9 27.25 M31.3 21.3 L31.3 20.9 31.0 19.9 Q30.75 19.2 30.45 19.15 L30.55 21.65 30.85 21.55 Q31.1 21.45 31.3 21.3 M27.5 27.6 L27.5 27.65 M30.45 24.55 L30.55 24.55 M33.7 23.85 L32.95 17.75 M34.85 30.6 L32.9 33.5 32.75 34.0 Q32.05 36.1 31.75 37.95 L31.55 40.5 31.65 42.1 M26.75 32.95 L27.4 31.9 25.75 31.6 21.9 30.95 M27.85 31.95 L27.4 31.9 M29.15 33.35 Q28.5 35.15 28.2 36.75 27.8 38.45 27.9 39.95 M26.35 41.15 L26.25 39.35 26.25 37.75 M20.0 28.7 L18.3 31.5 18.2 31.95 Q17.6 34.0 17.4 35.75 L17.35 38.25 17.6 39.8 M20.8 40.2 L20.8 40.15 20.85 37.75 Q21.1 34.75 22.4 32.1 M24.9 40.9 L24.8 39.1 24.8 37.55 M39.2 30.4 L39.15 30.35 39.05 30.0 38.8 30.35 38.8 30.4 M37.9 31.75 L38.1 30.2 38.15 29.95 M25.75 31.6 L25.5 29.55 M35.7 26.9 L33.8 29.15 M39.3 29.1 L39.05 30.0 M35.85 28.05 L32.05 32.65 M8.75 6.0 L8.5 5.85 7.6 5.45 7.4 5.4 7.2 5.45 6.85 5.85 M6.9 9.9 L6.75 8.15 8.5 20.4 8.45 20.5 8.5 20.75 9.1 21.5 9.2 21.6 Q10.25 22.6 12.55 22.8 L10.15 9.75 10.15 9.7 8.4 9.35 8.3 9.3 9.6 15.8 M10.15 9.75 L10.25 9.75 10.15 9.7 M8.3 9.3 Q7.75 9.1 7.25 8.7 6.6 8.1 6.5 7.55 M8.4 9.35 L9.75 8.05 M12.55 22.8 L13.15 22.8 15.4 22.8 M8.45 20.5 L7.85 21.4 8.45 20.65 8.5 20.75 M5.5 24.35 L6.75 24.6 6.95 24.4 9.1 21.5 M5.95 27.9 L6.0 28.6 7.45 28.85 7.45 28.75 6.95 24.7 6.75 24.6 M6.95 24.4 L6.95 24.7 8.5 24.9 9.85 22.95 M8.8 28.1 L8.5 24.9 M10.85 27.55 L11.25 29.55 12.85 29.85 13.3 29.9 12.7 25.7 12.7 25.65 9.35 25.05 M12.7 25.7 L12.75 25.65 12.7 25.65 M7.45 28.85 L11.25 29.55 M14.65 31.3 Q14.1 33.0 13.9 34.55 13.6 36.2 13.75 37.7 M6.9 37.85 L6.9 37.75 Q6.8 36.75 6.85 35.45 6.95 32.55 8.0 29.95 M12.35 38.8 L12.2 37.1 12.05 35.55 M10.9 38.55 L10.9 38.5 10.75 36.85 10.65 35.3 M12.3 30.85 L12.85 29.85 M17.35 30.65 L13.3 29.9 M12.75 25.65 L15.55 22.75 M17.0 26.4 L12.75 25.65 M26.25 4.8 Q26.7 5.05 26.95 5.6" fill="none" stroke="#000000" stroke-linecap="round" stroke-linejoin="round" stroke-opacity="0.3019608" stroke-width="0.7000000000000001"/>
    </g>
    <g id="sprite0" transform="matrix(1.0, 0.0, 0.0, 1.0, 11.6, 18.6)">
      <use height="38.3" transform="matrix(1.0, 0.0, 0.0, 1.0, -11.6, -18.6)" width="21.75" xlink:href="#shape1"/>
    </g>
    <g id="shape1" transform="matrix(1.0, 0.0, 0.0, 1.0, 11.6, 18.6)">
      <path d="M-9.0 9.85 L-9.1 9.85 -9.05 9.8 -9.0 9.85 Z" fill="none" stroke="#000000" stroke-linecap="round" stroke-linejoin="round" stroke-opacity="0.3019608" stroke-width="0.05"/>
      <path d="M9.45 0.35 L5.35 7.4 5.2 7.65 -1.75 8.05 2.9 -0.2 -1.75 8.05 -10.35 8.55 -4.0 -0.95 2.9 -0.2 9.45 0.35 M3.05 11.6 Q2.05 15.2 2.3 18.1 L2.55 19.7 -2.85 18.75 -4.35 18.5 -5.0 18.35 -6.75 18.15 -8.5 17.8 -8.6 15.35 Q-8.55 12.35 -7.45 9.7 -8.55 12.35 -8.6 15.35 L-8.5 17.8 -11.3 17.3 -11.55 15.8 -11.6 14.2 -11.2 10.9 -10.7 9.1 -7.45 9.7 -3.05 10.55 -0.6 10.95 3.05 11.6 M9.2 7.95 L9.25 8.0 9.2 8.05 9.2 7.95 M-4.65 15.15 L-4.55 16.7 -4.35 18.5 -4.55 16.7 -4.65 15.15 M-3.2 15.35 L-3.1 16.95 -2.85 18.75 -3.1 16.95 -3.2 15.35 M-1.4 17.55 Q-1.75 14.7 -0.6 10.95 -1.75 14.7 -1.4 17.55" fill="#895e2d" fill-rule="evenodd" stroke="none"/>
      <path d="M7.2 7.6 Q7.6 7.1 8.1 7.0 L8.7 7.15 8.85 7.35 9.2 7.95 9.2 8.05 7.2 7.6" fill="#3c2e1e" fill-rule="evenodd" stroke="none"/>
      <path d="M5.2 7.65 L3.2 11.1 3.05 11.6 -0.6 10.95 -3.05 10.55 -1.75 8.05 -3.05 10.55 -7.45 9.7 -10.7 9.1 -10.35 8.55 -1.75 8.05 5.2 7.65" fill="#a37e3f" fill-rule="evenodd" stroke="none"/>
      <path d="M9.65 2.2 L9.7 2.55 10.15 6.25 9.25 8.0 9.2 7.95 8.85 7.35 8.7 7.15 8.1 7.0 Q7.6 7.1 7.2 7.6 L7.15 7.7 6.6 8.65 Q6.0 10.05 5.85 12.0 L5.85 12.15 5.8 13.9 5.25 14.9 3.85 17.35 2.55 19.7 2.3 18.1 Q2.05 15.2 3.05 11.6 L3.2 11.1 5.2 7.65 5.35 7.4 9.45 0.35 9.65 2.2 M8.5 5.25 L9.7 2.55 8.5 5.25" fill="#603c15" fill-rule="evenodd" stroke="none"/>
      <path d="M9.65 2.2 L9.45 0.35 5.35 7.4 M5.2 7.65 L3.2 11.1 3.05 11.6 Q2.05 15.2 2.3 18.1 L2.55 19.7 3.85 17.35 M5.25 14.9 L5.8 13.9 5.85 12.15 5.85 12.0 Q6.0 10.05 6.6 8.65 L7.15 7.7 7.2 7.6 Q7.6 7.1 8.1 7.0 L8.7 7.15 8.85 7.35 9.2 7.95 9.25 8.0 10.15 6.25 9.7 2.55 M9.2 8.05 L9.25 8.0 M9.2 8.05 L7.2 7.6 M9.45 0.35 L2.9 -0.2 -4.0 -0.95 -10.35 8.55 -10.7 9.1 -11.2 10.9 M-8.5 17.8 L-6.75 18.15 M-5.0 18.35 L-4.35 18.5 -2.85 18.75 2.55 19.7 M-11.6 14.2 L-11.55 15.8 -11.3 17.3 -8.5 17.8" fill="none" stroke="#000000" stroke-linecap="round" stroke-linejoin="round" stroke-opacity="0.3019608" stroke-width="0.05"/>
      <path d="M9.7 2.55 L9.65 2.2 M9.7 2.55 L8.5 5.25 M2.9 -0.2 L-1.75 8.05 -3.05 10.55 M-7.45 9.7 Q-8.55 12.35 -8.6 15.35 L-8.5 17.8 M-4.35 18.5 L-4.55 16.7 -4.65 15.15 M-2.85 18.75 L-3.1 16.95 -3.2 15.35 M-0.6 10.95 Q-1.75 14.7 -1.4 17.55" fill="none" stroke="#000000" stroke-linecap="round" stroke-linejoin="round" stroke-opacity="0.15294118" stroke-width="0.05"/>
      <path d="M3.85 17.35 L5.25 14.9 M-6.75 18.15 L-5.0 18.35 M-11.2 10.9 L-11.6 14.2" fill="none" stroke="#000000" stroke-linecap="round" stroke-linejoin="round" stroke-opacity="0.0" stroke-width="0.05"/>
      <path d="M-7.2 -0.45 L-7.25 -0.85 -9.35 -13.4 -8.55 -12.2 Q-8.05 -11.8 -7.45 -11.6 L-7.35 -11.55 -5.55 -11.15 -5.45 -11.15 -4.4 -11.15 Q-2.25 -11.1 -0.2 -11.75 L0.7 -9.35 Q1.45 -7.05 1.45 -5.35 L1.25 -3.1 0.65 -4.85 Q-0.1 -6.4 -1.15 -6.4 -0.1 -6.4 0.65 -4.85 L1.25 -3.1 1.1 -2.8 0.65 -1.5 0.65 -1.1 0.25 -0.85 -0.05 -0.75 -0.35 -3.25 0.3 -2.5 0.65 -1.5 0.3 -2.5 -0.35 -3.25 -0.05 -0.75 0.25 -0.85 -1.15 0.5 -1.8 0.85 -3.15 1.15 -5.55 -11.1 -5.45 -11.15 -5.55 -11.1 -3.15 1.15 -3.6 1.15 -3.7 1.15 -5.95 0.4 -7.2 -0.45 M-1.4 -5.85 L-1.55 -5.35 -1.7 -4.0 Q-1.7 -0.85 -1.25 0.3 L-1.15 0.5 -1.25 0.3 Q-1.7 -0.85 -1.7 -4.0 L-1.55 -5.35 -1.4 -5.85 M-5.55 -11.1 L-5.55 -11.15 -5.55 -11.1 M-6.0 -4.9 L-7.45 -11.6 -6.0 -4.9" fill="#895e2d" fill-rule="evenodd" stroke="none"/>
      <path d="M1.25 -3.1 L1.3 -2.85 1.1 -2.8 1.25 -3.1" fill="#754f26" fill-rule="evenodd" stroke="none"/>
      <path d="M-9.35 -13.4 L-9.4 -13.8 -9.15 -14.95 Q-8.3 -16.45 -5.65 -17.55 -3.1 -18.6 -0.3 -18.6 L1.3 -18.5 3.05 -18.05 3.95 -17.5 4.65 -16.6 4.8 -15.9 4.45 -14.85 Q4.05 -13.95 3.05 -13.25 2.25 -12.7 1.05 -12.2 L0.8 -12.1 -0.2 -11.75 Q-2.25 -11.1 -4.4 -11.15 L-5.45 -11.15 -5.55 -11.15 -7.35 -11.55 -7.45 -11.6 Q-8.05 -11.8 -8.55 -12.2 L-9.35 -13.4 M-5.75 -13.15 L-7.35 -11.55 -5.75 -13.15 M3.05 -18.05 L1.8 -17.05 3.05 -18.05 M-0.05 -17.6 L1.3 -18.5 -0.05 -17.6 M-4.1 -12.6 L-5.45 -11.15 -4.1 -12.6" fill="#b48a45" fill-rule="evenodd" stroke="none"/>
      <path d="M4.8 -15.9 L7.8 2.65 7.95 3.0 Q8.1 3.65 7.6 4.5 L7.55 4.6 7.4 4.95 7.3 5.05 6.6 5.85 4.3 7.15 4.25 7.15 2.45 7.75 -1.2 8.2 -1.8 8.2 Q-4.2 8.15 -5.35 7.15 L-6.1 6.25 -6.2 5.9 -6.25 5.8 -6.25 5.35 -7.2 -0.45 -5.95 0.4 -3.7 1.15 -3.6 1.15 -3.15 1.15 -1.8 0.85 -1.15 0.5 -0.95 0.85 0.9 3.2 Q1.45 2.3 1.45 -0.85 L1.45 -0.9 1.3 -2.85 1.45 -0.9 1.45 -0.85 Q1.45 2.3 0.9 3.2 L-0.95 0.85 -1.15 0.5 0.25 -0.85 0.65 -1.1 0.65 -1.5 1.1 -2.8 1.3 -2.85 1.25 -3.1 1.45 -5.35 Q1.45 -7.05 0.7 -9.35 L-0.2 -11.75 0.8 -12.1 1.05 -12.2 Q2.25 -12.7 3.05 -13.25 4.05 -13.95 4.45 -14.85 L4.8 -15.9 M6.6 5.85 L3.05 -13.25 6.6 5.85 M-1.8 8.2 L-3.15 1.15 -1.8 8.2 M2.1 -4.65 L4.3 7.15 2.1 -4.65" fill="#603c15" fill-rule="evenodd" stroke="none"/>
      <path d="M-9.35 -13.4 L-9.4 -13.8 -9.15 -14.95 Q-8.3 -16.45 -5.65 -17.55 -3.1 -18.6 -0.3 -18.6 L1.3 -18.5 3.05 -18.05 3.95 -17.5 4.65 -16.6 4.8 -15.9 7.8 2.65 7.95 3.0 Q8.1 3.65 7.6 4.5 L7.55 4.6 7.4 4.95 7.3 5.05 6.6 5.85 4.3 7.15 4.25 7.15 2.45 7.75 -1.2 8.2 -1.8 8.2 Q-4.2 8.15 -5.35 7.15 L-6.1 6.25 -6.2 5.9 -6.25 5.8 -6.25 5.35 -7.2 -0.45 M-7.25 -0.85 L-9.35 -13.4 -8.55 -12.2 Q-8.05 -11.8 -7.45 -11.6 L-7.35 -11.55 M4.8 -15.9 L4.45 -14.85 Q4.05 -13.95 3.05 -13.25 2.25 -12.7 1.05 -12.2 L0.8 -12.1 -0.2 -11.75 Q-2.25 -11.1 -4.4 -11.15 L-5.45 -11.15 -5.55 -11.15 -7.35 -11.55" fill="none" stroke="#000000" stroke-linecap="round" stroke-linejoin="round" stroke-opacity="0.3019608" stroke-width="0.05"/>
      <path d="M-7.35 -11.55 L-5.75 -13.15 M3.05 -13.25 L6.6 5.85 M1.8 -17.05 L3.05 -18.05 M1.25 -3.1 L1.3 -2.85 1.45 -0.9 1.45 -0.85 Q1.45 2.3 0.9 3.2 L-0.95 0.85 -1.15 0.5 -1.25 0.3 Q-1.7 -0.85 -1.7 -4.0 L-1.55 -5.35 -1.4 -5.85 M-3.15 1.15 L-1.8 8.2 M1.25 -3.1 L0.65 -4.85 Q-0.1 -6.4 -1.15 -6.4 M0.25 -0.85 L0.65 -1.1 0.65 -1.5 0.3 -2.5 -0.35 -3.25 -0.05 -0.75 0.25 -0.85 M4.3 7.15 L2.1 -4.65 M-5.45 -11.15 L-5.55 -11.1 -3.15 1.15 M-5.55 -11.15 L-5.55 -11.1 M-7.45 -11.6 L-6.0 -4.9 M-5.45 -11.15 L-4.1 -12.6 M1.3 -18.5 L-0.05 -17.6" fill="none" stroke="#000000" stroke-linecap="round" stroke-linejoin="round" stroke-opacity="0.15294118" stroke-width="0.05"/>
      <path d="M2.45 -15.7 L2.2 -15.0 Q1.65 -13.95 -0.15 -13.25 -1.9 -12.5 -3.85 -12.5 -5.7 -12.5 -6.6 -13.25 L-7.15 -14.0 -7.25 -14.3 -7.0 -15.05 Q-6.45 -16.05 -4.7 -16.85 -2.9 -17.6 -1.05 -17.6 0.85 -17.6 1.85 -16.85 L2.35 -16.15 2.45 -15.7" fill="#3c2e1e" fill-rule="evenodd" stroke="none"/>
      <path d="M1.7 5.85 L2.15 10.25 -2.05 9.55 -2.7 5.25 -2.65 5.2 -2.7 5.25 -2.05 9.55 -4.15 9.2 -8.15 8.55 -8.65 4.25 -8.15 8.55 -9.6 8.3 -9.85 6.3 -10.05 4.65 -10.1 3.95 -8.85 4.15 -8.65 4.25 -7.05 4.5 -6.7 7.75 -6.25 4.6 -6.2 4.6 -2.7 5.2 -2.65 5.2 1.7 5.85 M-2.7 5.25 L-2.7 5.2 -2.7 5.25 M-4.55 7.15 L-4.15 9.2 -4.55 7.15" fill="#895e2d" fill-rule="evenodd" stroke="none"/>
      <path d="M6.25 -0.35 L1.7 5.75 1.7 5.85 -2.65 5.2 -2.7 5.2 -6.2 4.6 -5.7 2.4 -7.05 4.5 -8.65 4.25 -8.85 4.15 -10.1 3.95 -7.15 0.05 -6.45 1.0 -6.4 1.1 Q-5.1 2.2 -2.25 2.25 L0.15 2.15 2.2 1.75 3.25 1.4 Q5.25 0.7 6.25 -0.35 M-6.45 1.0 L-8.65 3.95 -8.85 4.15 -8.65 3.95 -6.45 1.0 M-8.65 4.25 L-8.65 3.95 -8.65 4.25 M0.15 2.15 L-2.65 5.2 0.15 2.15" fill="#b48a45" fill-rule="evenodd" stroke="none"/>
      <path d="M-6.2 4.6 L-6.25 4.6 -6.7 7.75 -7.05 4.5 -5.7 2.4 -6.2 4.6" fill="#653f17" fill-rule="evenodd" stroke="none"/>
      <path d="M3.7 6.75 L6.65 2.9 3.7 6.75 M2.15 10.25 L1.7 5.85 1.7 5.75 6.25 -0.35 6.65 2.9 6.75 4.2 2.15 10.25" fill="#603c15" fill-rule="evenodd" stroke="none"/>
      <path d="M1.7 5.85 L2.15 10.25 6.75 4.2 6.65 2.9 6.25 -0.35 1.7 5.75 1.7 5.85 -2.65 5.2 -2.7 5.2 -6.2 4.6 -6.25 4.6 M-2.05 9.55 L2.15 10.25 M-10.1 3.95 L-7.15 0.05 -6.45 1.0 -6.4 1.1 Q-5.1 2.2 -2.25 2.25 L0.15 2.15 2.2 1.75 3.25 1.4 Q5.25 0.7 6.25 -0.35 M-6.7 7.75 L-7.05 4.5 -8.65 4.25 -8.85 4.15 M-8.15 8.55 L-4.15 9.2 M-10.05 4.65 L-10.1 3.95 -8.85 4.15 M-7.05 4.5 L-5.7 2.4 M-8.15 8.55 L-9.6 8.3 -9.85 6.3 M-2.05 9.55 L-4.15 9.2" fill="none" stroke="#000000" stroke-linecap="round" stroke-linejoin="round" stroke-opacity="0.3019608" stroke-width="0.05"/>
      <path d="M6.65 2.9 L3.7 6.75 M-2.65 5.2 L-2.7 5.25 -2.05 9.55 M-2.7 5.2 L-2.7 5.25 M-8.65 4.25 L-8.15 8.55 M-4.15 9.2 L-4.55 7.15 M-8.85 4.15 L-8.65 3.95 -6.45 1.0 M-8.65 3.95 L-8.65 4.25 M-2.65 5.2 L0.15 2.15" fill="none" stroke="#000000" stroke-linecap="round" stroke-linejoin="round" stroke-opacity="0.15294118" stroke-width="0.05"/>
      <path d="M-9.85 6.3 L-10.05 4.65" fill="none" stroke="#000000" stroke-linecap="round" stroke-linejoin="round" stroke-opacity="0.0" stroke-width="0.05"/>
      <path d="M-8.4 -16.65 L-7.75 -17.4 -6.6 -17.85 -6.2 -17.8 -5.9 -17.75 -5.9 -17.4 Q-5.9 -15.5 -7.5 -15.5 L-8.25 -15.55 -8.45 -15.6 -8.65 -15.55 -9.55 -14.5 Q-9.7 -15.6 -9.15 -16.2 L-8.4 -16.65 -7.35 -16.8 -8.4 -16.65 M-7.1 -0.15 L-7.75 0.9 Q-8.4 -3.85 -9.05 -12.75 L-7.1 -0.15" fill="#a89c67" fill-rule="evenodd" stroke="none"/>
      <path d="M6.3 11.1 L5.7 8.2 4.25 8.2 5.7 5.8 4.8 1.15 4.1 0.8 2.3 -12.95 2.5 -12.75 2.65 -12.15 Q3.5 -6.85 4.5 -2.75 L5.35 0.15 5.35 0.2 6.4 4.55 6.3 4.8 6.4 4.8 6.7 7.1 6.7 8.35 6.3 11.1 M5.35 0.15 Q4.75 0.5 4.1 0.8 4.75 0.5 5.35 0.15" fill="#000000" fill-opacity="0.3529412" fill-rule="evenodd" stroke="none"/>
      <path d="M2.65 -15.6 L1.65 -15.2 2.65 -15.6 M2.3 -12.95 L2.2 -13.05 Q1.45 -13.8 1.0 -13.8 L0.3 -13.45 Q0.15 -14.4 0.9 -14.9 L1.65 -15.2 Q2.0 -16.5 3.4 -16.1 4.65 -15.7 5.85 -11.4 L6.2 -10.3 6.6 -8.3 6.95 -6.45 8.05 -1.3 Q9.35 4.65 9.2 6.4 L8.8 7.95 Q8.25 8.6 8.0 9.35 L8.0 9.5 Q7.7 11.4 6.65 11.4 L6.35 11.3 6.3 11.3 6.3 11.1 6.7 8.35 6.7 7.1 6.4 4.8 6.4 4.6 6.4 4.55 5.35 0.2 5.35 0.15 4.5 -2.75 Q3.5 -6.85 2.65 -12.15 L2.5 -12.75 2.3 -12.95 M8.15 6.6 L8.0 9.35 8.15 6.6" fill="#9c9160" fill-rule="evenodd" stroke="none"/>
      <path d="M-8.25 -15.55 L-7.5 -15.5 Q-5.9 -15.5 -5.9 -17.4 L-5.9 -17.75 Q-4.4 -17.3 -4.4 -14.6 -4.4 -14.4 -4.95 -13.95 L-5.7 -13.55 Q-6.4 -13.55 -6.7 -14.25 L-7.05 -15.0 -7.3 -15.15 -8.25 -15.55" fill="#817542" fill-rule="evenodd" stroke="none"/>
      <path d="M1.65 -15.2 L2.65 -15.6 M2.3 -12.95 L2.2 -13.05 Q1.45 -13.8 1.0 -13.8 L0.3 -13.45 Q0.15 -14.4 0.9 -14.9 L1.65 -15.2 Q2.0 -16.5 3.4 -16.1 4.65 -15.7 5.85 -11.4 L6.2 -10.3 6.6 -8.3 6.95 -6.45 8.05 -1.3 Q9.35 4.65 9.2 6.4 L8.8 7.95 Q8.25 8.6 8.0 9.35 L8.0 9.5 Q7.7 11.4 6.65 11.4 L6.35 11.3 6.3 11.3 6.3 11.1 M2.3 -12.95 L2.5 -12.75 2.65 -12.15 Q3.5 -6.85 4.5 -2.75 L5.35 0.15 5.35 0.2 6.4 4.55 6.4 4.6 6.4 4.8 6.7 7.1 6.7 8.35 6.3 11.1 M8.0 9.35 L8.15 6.6 M4.1 0.8 Q4.75 0.5 5.35 0.15 M-6.2 -17.8 L-6.6 -17.85 -7.75 -17.4 -8.4 -16.65 -7.35 -16.8 M-5.9 -17.75 Q-4.4 -17.3 -4.4 -14.6 -4.4 -14.4 -4.95 -13.95 L-5.7 -13.55 Q-6.4 -13.55 -6.7 -14.25 L-7.05 -15.0 -7.3 -15.15 -8.25 -15.55 -8.45 -15.6 -8.65 -15.55 -9.55 -14.5 Q-9.7 -15.6 -9.15 -16.2 L-8.4 -16.65 M-7.1 -0.15 L-7.75 0.9 Q-8.4 -3.85 -9.05 -12.75 L-7.1 -0.15" fill="none" stroke="#000000" stroke-linecap="round" stroke-linejoin="round" stroke-opacity="0.3019608" stroke-width="0.05"/>
      <path d="M3.6 -13.6 L3.55 -13.5 Q1.1 -13.6 1.8 -15.1 3.5 -15.1 3.6 -13.6" fill="#bfb176" fill-rule="evenodd" stroke="none"/>
      <path d="M7.1 9.85 L7.05 9.9 Q7.5 5.8 6.35 1.35 L6.45 1.25 Q8.85 5.5 7.1 9.85" fill="#bfb176" fill-rule="evenodd" stroke="none"/>
      <path d="M6.05 -0.4 L6.05 -0.3 Q4.5 -4.85 3.65 -9.9 L3.75 -9.95 Q5.65 -5.4 6.05 -0.4" fill="#bfb176" fill-rule="evenodd" stroke="none"/>
      <path d="M8.5 0.7 Q8.7 1.45 8.45 2.0 L7.75 2.6 6.85 2.35 Q6.4 1.9 6.2 1.15 6.05 0.45 6.3 -0.1 6.5 -0.7 6.95 -0.8 L7.9 -0.45 8.5 0.7" fill="#000000" fill-opacity="0.3019608" fill-rule="evenodd" stroke="none"/>
      <path d="M8.3 1.55 L7.8 2.1 Q7.4 2.2 7.05 1.85 6.65 1.5 6.5 0.9 6.35 0.3 6.5 -0.25 6.6 -0.7 7.0 -0.8 L7.75 -0.55 8.25 0.4 8.3 1.55" fill="#905a25" fill-rule="evenodd" stroke="none"/>
      <path d="M8.3 1.55 L7.8 2.1 Q7.4 2.2 7.05 1.85 6.65 1.5 6.5 0.9 6.35 0.3 6.5 -0.25 6.6 -0.7 7.0 -0.8 L7.75 -0.55 8.25 0.4 8.3 1.55 Z" fill="none" stroke="#000000" stroke-linecap="round" stroke-linejoin="round" stroke-opacity="0.3019608" stroke-width="0.05"/>
      <path d="M7.95 1.05 L7.6 1.5 7.15 1.4 6.75 0.8 6.7 0.1 7.0 -0.4 Q7.25 -0.5 7.5 -0.25 L7.85 0.35 7.95 1.05" fill="#aa8801" fill-rule="evenodd" stroke="none"/>
      <path d="M7.25 0.55 L7.1 0.75 6.8 0.7 6.6 0.3 6.6 -0.05 6.8 -0.3 7.05 -0.2 7.25 0.15 7.25 0.55" fill="#bfbfbf" fill-rule="evenodd" stroke="none"/>
      <path d="M9.35 5.95 Q9.3 6.7 8.9 7.2 L8.0 7.55 7.25 7.0 Q6.95 6.4 7.0 5.65 7.05 4.9 7.45 4.45 7.85 4.0 8.3 4.05 8.8 4.1 9.1 4.65 9.4 5.2 9.35 5.95" fill="#000000" fill-opacity="0.3019608" fill-rule="evenodd" stroke="none"/>
      <path d="M8.85 6.65 L8.2 7.05 7.55 6.6 7.35 5.5 7.65 4.45 Q8.0 4.05 8.35 4.1 8.7 4.1 8.95 4.5 L9.15 5.6 8.85 6.65" fill="#905a25" fill-rule="evenodd" stroke="none"/>
      <path d="M8.85 6.65 L8.2 7.05 7.55 6.6 7.35 5.5 7.65 4.45 Q8.0 4.05 8.35 4.1 8.7 4.1 8.95 4.5 L9.15 5.6 8.85 6.65 Z" fill="none" stroke="#000000" stroke-linecap="round" stroke-linejoin="round" stroke-opacity="0.3019608" stroke-width="0.05"/>
      <path d="M8.7 6.1 L8.25 6.4 Q8.0 6.45 7.85 6.15 L7.65 5.45 7.85 4.75 Q8.0 4.5 8.25 4.45 L8.7 4.7 8.85 5.35 8.7 6.1" fill="#aa8801" fill-rule="evenodd" stroke="none"/>
      <path d="M8.2 5.45 L7.95 5.6 7.7 5.4 7.6 5.0 7.7 4.6 8.0 4.5 8.2 4.65 8.3 5.05 8.2 5.45" fill="#bfbfbf" fill-rule="evenodd" stroke="none"/>
      <path d="M-8.15 9.3 Q-7.7 8.9 -5.95 8.8 L-8.4 4.0 -4.8 4.75 Q-2.65 4.75 2.2 9.8 1.3 10.9 -2.05 10.25 -1.65 14.8 -0.95 14.8 0.1 14.8 2.65 9.35 L3.0 7.9 3.15 7.35 3.35 6.95 4.1 8.35 Q4.95 9.5 6.05 9.5 5.6 10.9 4.7 10.9 L4.4 10.8 4.35 10.8 4.35 10.6 4.25 9.7 3.85 11.5 3.85 11.65 3.65 13.4 -0.05 19.2 -11.3 17.25 -11.3 16.9 -11.15 13.6 Q-11.15 12.2 -10.4 11.4 L-8.15 9.3 M1.8 -12.6 L2.1 -12.85 2.2 -11.95 2.4 -10.1 3.15 -4.95 3.4 -3.45 3.4 -3.4 4.4 -3.3 5.45 0.55 4.7 2.6 5.7 5.95 3.65 4.35 3.6 4.4 2.55 5.2 Q1.05 6.8 2.2 4.7 L3.5 1.95 Q3.5 1.15 3.85 0.5 L3.05 -1.05 1.75 -4.1 -0.8 -7.2 -3.75 -11.0 Q-2.05 -11.1 -0.2 -11.75 1.6 -12.45 1.8 -12.6" fill="#575300" fill-opacity="0.45882353" fill-rule="evenodd" stroke="none"/>
    </g>
  </defs>
</svg>
