<?xml version="1.0" encoding="UTF-8" standalone="no"?>
<svg xmlns:xlink="http://www.w3.org/1999/xlink" height="440.0px" width="440.0px" xmlns="http://www.w3.org/2000/svg">
  <g transform="matrix(10.0, 0.0, 0.0, 10.0, 0.0, 0.0)">
    <use height="44.0" transform="matrix(1.0, 0.0, 0.0, 1.0, 0.0, 0.0)" width="44.0" xlink:href="#shape0"/>
    <use height="82.7" transform="matrix(-0.4672, 0.0019, 0.0098, 0.231, 41.9, 23.9)" width="82.7" xlink:href="#sprite0"/>
    <use height="42.9" transform="matrix(1.0, 0.0, 0.0, 1.0, 4.4, 0.25)" width="36.2" xlink:href="#shape2"/>
  </g>
  <defs>
    <g id="shape0" transform="matrix(1.0, 0.0, 0.0, 1.0, 0.0, 0.0)">
      <path d="M44.0 44.0 L0.0 44.0 0.0 0.0 44.0 0.0 44.0 44.0" fill="#43adca" fill-opacity="0.0" fill-rule="evenodd" stroke="none"/>
    </g>
    <g id="sprite0" transform="matrix(1.0, 0.0, 0.0, 1.0, 0.0, 0.0)">
      <use height="82.7" transform="matrix(1.0, 0.0, 0.0, 1.0, 0.0, 0.0)" width="82.7" xlink:href="#shape1"/>
    </g>
    <g id="shape1" transform="matrix(1.0, 0.0, 0.0, 1.0, 0.0, 0.0)">
      <path d="M70.6 12.1 Q82.7 24.2 82.7 41.35 82.7 58.5 70.6 70.6 58.5 82.7 41.35 82.7 24.2 82.7 12.1 70.6 0.0 58.5 0.0 41.35 0.0 24.2 12.1 12.1 24.2 0.0 41.35 0.0 58.5 0.0 70.6 12.1" fill="url(#gradient0)" fill-rule="evenodd" stroke="none"/>
    </g>
    <radialGradient cx="0" cy="0" gradientTransform="matrix(0.0508, 0.0, 0.0, 0.0508, 41.35, 41.35)" gradientUnits="userSpaceOnUse" id="gradient0" r="819.2" spreadMethod="pad">
      <stop offset="0.0" stop-color="#000000" stop-opacity="0.3019608"/>
      <stop offset="1.0" stop-color="#000000" stop-opacity="0.0"/>
    </radialGradient>
    <g id="shape2" transform="matrix(1.0, 0.0, 0.0, 1.0, -4.4, -0.25)">
      <path d="M12.35 7.2 Q12.75 8.45 12.7 9.85 L12.3 11.95 Q11.75 12.7 11.1 12.6 10.4 12.4 10.0 11.3 9.5 10.25 9.5 9.0 9.55 7.6 10.0 6.6 10.4 5.95 11.1 6.1 11.7 6.3 12.35 7.2" fill="#fc1b1b" fill-rule="evenodd" stroke="none"/>
      <path d="M13.2 7.4 Q13.9 9.25 13.7 11.25 13.65 13.3 12.65 14.4 11.65 15.45 10.4 15.1 9.0 14.55 8.2 12.9 7.7 11.45 7.75 9.3 7.85 7.25 8.65 6.1 9.85 5.1 11.2 5.65 12.45 6.0 13.2 7.4 M12.35 7.2 Q11.7 6.3 11.1 6.1 10.4 5.95 10.0 6.6 9.55 7.6 9.5 9.0 9.5 10.25 10.0 11.3 10.4 12.4 11.1 12.6 11.75 12.7 12.3 11.95 L12.7 9.85 Q12.75 8.45 12.35 7.2" fill="#780101" fill-rule="evenodd" stroke="none"/>
      <path d="M13.2 7.4 Q13.9 9.25 13.7 11.25 13.65 13.3 12.65 14.4 11.65 15.45 10.4 15.1 9.0 14.55 8.2 12.9 7.7 11.45 7.75 9.3 7.85 7.25 8.65 6.1 9.85 5.1 11.2 5.65 12.45 6.0 13.2 7.4 Z" fill="none" stroke="#000000" stroke-linecap="round" stroke-linejoin="round" stroke-opacity="0.3019608" stroke-width="0.05"/>
      <path d="M12.75 7.85 L13.05 9.3 12.55 10.5 Q12.15 10.9 11.65 10.75 11.15 10.55 10.85 9.95 10.5 9.35 10.7 8.5 10.65 7.75 11.1 7.3 11.45 6.9 11.95 7.05 L12.75 7.85" fill="#ffffff" fill-rule="evenodd" stroke="none"/>
      <path d="M11.95 12.5 L12.1 13.25 11.85 13.85 11.4 13.95 11.0 13.55 Q10.85 13.25 10.95 12.85 10.95 12.5 11.1 12.25 L11.55 12.15 Q11.8 12.25 11.95 12.5" fill="#ffffff" fill-rule="evenodd" stroke="none"/>
      <path d="M19.7 0.5 L23.5 1.0 25.9 2.05 26.85 2.85 27.35 3.25 27.2 4.9 26.8 5.65 Q25.35 8.05 20.45 9.0 L18.35 9.35 17.55 9.4 17.0 9.35 13.45 8.75 Q9.55 7.8 9.3 5.8 L9.4 4.9 9.45 4.7 Q9.95 3.8 10.8 3.1 12.5 1.8 14.85 1.15 L16.75 0.7 17.8 0.6 17.9 0.6 17.8 0.7 19.7 0.5" fill="#33bcf7" fill-rule="evenodd" stroke="none"/>
      <path d="M27.35 3.25 L27.5 3.4 27.6 3.5 27.65 3.95 27.9 4.7 28.0 4.9 28.0 5.3 28.05 5.3 28.55 11.2 Q28.6 15.45 27.6 20.8 L27.2 20.8 26.95 21.9 26.95 22.5 26.85 22.7 26.95 22.7 27.8 24.75 Q28.3 26.75 27.8 28.75 27.5 29.95 26.85 30.8 25.65 32.2 23.95 33.15 L23.9 33.2 23.8 33.2 23.8 33.3 23.4 33.45 Q16.75 36.35 11.65 36.35 L8.6 35.85 Q6.75 35.05 5.85 33.95 10.5 36.25 16.9 34.25 23.35 32.2 21.75 27.55 L20.2 27.45 18.2 27.05 17.1 26.65 Q21.55 27.2 23.8 22.5 L24.05 20.8 24.05 20.4 24.2 20.4 Q24.85 11.5 20.45 9.0 25.35 8.05 26.8 5.65 L27.2 4.9 27.35 3.25 M26.15 25.05 L26.85 22.7 26.15 25.05 M24.7 26.35 L23.15 27.15 23.1 27.2 23.0 27.2 21.75 27.55 23.0 27.2 23.1 27.2 23.15 27.15 24.7 26.35 M25.65 30.4 L25.55 30.4 25.75 30.5 25.65 30.4 M23.8 33.3 L23.65 33.3 23.8 33.2 23.65 33.3 23.8 33.3 M23.4 33.45 L23.65 33.3 23.35 33.3 23.95 33.15 23.35 33.3 23.65 33.3 23.4 33.45" fill="#05618f" fill-rule="evenodd" stroke="none"/>
      <path d="M28.0 4.9 L28.05 5.3 28.0 5.3 28.0 4.9 M26.95 22.5 L26.95 22.7 26.85 22.7 26.95 22.5" fill="#084382" fill-rule="evenodd" stroke="none"/>
      <path d="M5.85 33.95 L5.3 33.05 5.2 32.9 4.9 32.2 4.65 30.5 Q4.55 25.75 8.9 22.5 10.35 21.45 11.85 20.8 L11.65 20.8 Q10.2 17.5 9.4 12.05 9.0 8.55 9.3 5.9 L9.3 5.8 Q9.55 7.8 13.45 8.75 L17.0 9.35 17.55 9.4 18.35 9.35 20.45 9.0 Q24.85 11.5 24.2 20.4 L24.05 20.4 24.05 20.8 23.8 22.5 Q21.55 27.2 17.1 26.65 15.15 25.6 13.95 23.35 L13.05 20.9 13.05 20.8 13.0 20.7 12.9 20.4 13.0 20.5 12.9 20.4 13.0 20.7 13.05 20.8 13.05 20.9 13.95 23.35 Q15.15 25.6 17.1 26.65 L18.2 27.05 20.2 27.45 21.75 27.55 Q23.35 32.2 16.9 34.25 10.5 36.25 5.85 33.95 M12.5 19.45 L12.85 20.15 12.9 20.3 12.9 20.4 12.9 20.3 12.85 20.15 12.5 19.45 M11.85 20.8 L12.9 20.4 11.85 20.8 M12.85 20.15 L13.0 20.5 13.0 20.55 13.0 20.65 12.9 20.4 13.0 20.65 13.0 20.55 13.0 20.5 12.9 20.3 13.0 20.5 12.85 20.15 M13.05 20.9 L13.05 20.8 13.0 20.55 13.05 20.8 13.05 20.9 M13.0 20.7 L13.0 20.65 13.05 20.8 13.0 20.65 13.0 20.7 M25.55 30.4 L25.65 30.4 25.75 30.5 25.55 30.4" fill="#0782b6" fill-rule="evenodd" stroke="none"/>
      <path d="M17.9 0.6 L19.7 0.5 M27.5 3.4 L27.6 3.5 27.65 3.95 27.9 4.7 28.0 4.9 28.05 5.3 28.55 11.2 Q28.6 15.45 27.6 20.8 M27.2 20.8 L26.95 21.9 26.95 22.5 26.95 22.7 27.8 24.75 Q28.3 26.75 27.8 28.75 27.5 29.95 26.85 30.8 25.65 32.2 23.95 33.15 L23.9 33.2 23.8 33.3 23.4 33.45 M5.85 33.95 L5.3 33.05 5.2 32.9 4.9 32.2 4.65 30.5 M11.65 20.8 Q10.2 17.5 9.4 12.05 9.0 8.55 9.3 5.9 L9.3 5.8 M9.4 4.9 L9.45 4.7 Q9.95 3.8 10.8 3.1 12.5 1.8 14.85 1.15 L16.75 0.7 17.8 0.6 17.9 0.6 M26.85 22.7 L26.15 25.05 M26.85 22.7 L26.95 22.5 M12.9 20.4 L12.9 20.3 12.85 20.15 12.5 19.45 M17.1 26.65 Q15.15 25.6 13.95 23.35 L13.05 20.9 13.05 20.8 13.0 20.7 12.9 20.4 13.0 20.65 13.0 20.55 13.0 20.5 12.9 20.3 M13.05 20.8 L13.0 20.65 13.0 20.7 M13.0 20.55 L13.05 20.8 13.05 20.9 M13.0 20.5 L12.85 20.15 M17.1 26.65 L18.2 27.05 20.2 27.45 21.75 27.55 23.0 27.2 23.1 27.2 23.15 27.15 24.7 26.35 M23.8 33.2 L23.65 33.3 23.8 33.3 23.8 33.2 23.9 33.2 M23.95 33.15 L23.35 33.3 23.65 33.3 23.4 33.45" fill="none" stroke="#000000" stroke-linecap="round" stroke-linejoin="round" stroke-opacity="0.15294118" stroke-width="0.05"/>
      <path d="M26.85 2.85 L27.35 3.25 M4.65 30.5 Q4.55 25.75 8.9 22.5 10.35 21.45 11.85 20.8 M9.3 5.8 L9.4 4.9 M20.45 9.0 Q25.35 8.05 26.8 5.65 L27.2 4.9 27.35 3.25 M20.45 9.0 L18.35 9.35 17.55 9.4 17.0 9.35 13.45 8.75 Q9.55 7.8 9.3 5.8 M12.9 20.4 L11.85 20.8 M13.0 20.5 L12.9 20.4 M25.55 30.4 L25.65 30.4" fill="none" stroke="#000000" stroke-linecap="round" stroke-linejoin="round" stroke-opacity="0.3019608" stroke-width="0.05"/>
      <path d="M23.4 33.45 Q16.75 36.35 11.65 36.35 L8.6 35.85 Q6.75 35.05 5.85 33.95" fill="none" stroke="#000000" stroke-linecap="round" stroke-linejoin="round" stroke-opacity="0.3019608" stroke-width="1.0"/>
      <path d="M15.2 7.7 L13.75 7.3 Q11.7 6.2 11.7 4.85 11.7 3.45 13.75 2.4 14.4 1.95 15.2 1.8 L15.2 7.7" fill="#0b2f5c" fill-rule="evenodd" stroke="none"/>
      <path d="M15.2 1.8 L16.65 1.4 18.8 1.2 22.85 1.55 Q23.25 1.6 23.7 1.95 L24.1 2.1 Q25.7 2.9 25.9 4.2 25.7 5.4 24.35 6.35 L23.7 6.85 22.85 7.25 21.85 7.4 18.8 8.05 16.65 7.95 15.2 7.7 15.2 1.8" fill="#073a78" fill-rule="evenodd" stroke="none"/>
      <path d="M13.2 17.5 Q13.7 20.3 14.75 23.4 15.15 24.45 14.35 23.5 12.65 21.4 11.85 19.0 9.65 12.5 10.7 8.45 12.25 12.9 13.2 17.5" fill="#34b6f7" fill-opacity="0.7019608" fill-rule="evenodd" stroke="none"/>
      <path d="M9.85 25.45 Q7.75 26.5 7.6 29.0 7.4 31.8 6.1 30.25 5.55 29.65 5.7 28.7 6.6 23.2 11.75 22.3 12.55 24.05 9.85 25.45" fill="#34b6f7" fill-opacity="0.84313726" fill-rule="evenodd" stroke="none"/>
      <path d="M7.2 32.9 L7.2 32.95 Q6.2 33.15 6.0 32.15 L6.2 31.8 6.45 31.7 Q7.4 32.05 7.2 32.9" fill="#34b6f7" fill-opacity="0.8901961" fill-rule="evenodd" stroke="none"/>
      <path d="M19.1 41.0 L18.2 40.1 18.05 40.05 17.55 39.3 16.9 37.7 Q15.8 32.65 20.35 28.5 21.55 27.35 23.0 26.65 L23.0 26.55 22.95 26.5 Q21.25 23.1 20.35 17.05 19.95 13.5 20.3 10.85 L20.3 10.8 Q20.5 12.8 24.45 13.75 L28.0 14.3 28.55 14.4 29.35 14.3 31.45 14.0 Q36.4 16.8 34.85 27.85 33.65 30.25 31.9 31.45 L33.1 31.55 34.55 31.3 35.05 32.2 Q36.3 35.45 31.25 38.35 25.0 42.05 19.1 41.0 M38.8 33.3 L38.65 33.2 38.7 33.2 38.8 33.3 M31.9 31.45 L31.2 31.45 29.9 31.3 Q27.6 30.5 26.05 28.55 25.1 27.6 24.6 26.35 L24.6 26.25 24.35 26.0 24.6 26.25 24.6 26.35 Q25.1 27.6 26.05 28.55 27.6 30.5 29.9 31.3 L31.2 31.45 31.9 31.45 M24.35 26.0 L23.0 26.55 24.35 26.0" fill="#0782b6" fill-rule="evenodd" stroke="none"/>
      <path d="M38.95 9.9 L39.05 10.3 38.95 10.3 38.95 9.9" fill="#084382" fill-rule="evenodd" stroke="none"/>
      <path d="M30.7 5.5 L34.45 5.95 Q35.75 6.35 36.9 7.0 L37.85 7.8 38.3 8.2 Q38.5 9.0 38.15 9.9 L37.75 10.6 Q36.3 13.0 31.45 14.0 L29.35 14.3 28.55 14.4 28.0 14.3 24.45 13.75 Q20.5 12.8 20.3 10.8 L20.35 9.9 20.45 9.65 Q20.9 8.75 21.8 8.05 23.5 6.75 25.8 6.15 L27.75 5.65 28.8 5.55 28.85 5.55 28.8 5.65 30.7 5.5" fill="#33bcf7" fill-rule="evenodd" stroke="none"/>
      <path d="M38.3 8.2 L38.5 8.35 38.55 8.45 38.65 8.95 38.9 9.65 38.95 9.9 38.95 10.3 39.05 10.3 Q39.45 12.7 39.5 16.15 39.6 20.7 38.5 26.55 L39.45 27.95 40.1 29.55 40.25 31.45 Q40.1 31.8 40.1 32.35 L36.8 37.4 Q33.6 42.05 28.05 42.5 L20.7 42.05 Q18.85 41.15 19.1 41.0 25.0 42.05 31.25 38.35 36.3 35.45 35.05 32.2 L34.55 31.3 33.1 31.55 31.9 31.45 Q33.65 30.25 34.85 27.85 36.4 16.8 31.45 14.0 36.3 13.0 37.75 10.6 L38.15 9.9 Q38.5 9.0 38.3 8.2 M38.5 26.55 L38.3 26.4 36.9 29.6 Q36.65 29.7 36.65 30.0 L35.85 30.75 Q35.6 30.65 35.85 30.8 L35.75 30.8 34.55 31.3 35.75 30.8 35.85 30.8 Q35.6 30.65 35.85 30.75 L36.65 30.0 Q36.65 29.7 36.9 29.6 L38.3 26.4 38.5 26.55 M38.8 33.3 L38.7 33.2 38.65 33.2 38.8 33.3" fill="#05618f" fill-rule="evenodd" stroke="none"/>
      <path d="M38.5 8.35 L38.55 8.45 38.65 8.95 38.9 9.65 38.95 9.9 39.05 10.3 Q39.45 12.7 39.5 16.15 39.6 20.7 38.5 26.55 L39.45 27.95 40.1 29.55 40.25 31.45 Q40.1 31.8 40.1 32.35 M19.1 41.0 L18.2 40.1 18.05 40.05 17.55 39.3 16.9 37.7 M23.0 26.65 L22.95 26.5 Q21.25 23.1 20.35 17.05 19.95 13.5 20.3 10.85 L20.3 10.8 M20.35 9.9 L20.45 9.65 Q20.9 8.75 21.8 8.05 23.5 6.75 25.8 6.15 L27.75 5.65 28.8 5.55 28.85 5.55 30.7 5.5 M31.9 31.45 L33.1 31.55 34.55 31.3 35.75 30.8 35.85 30.8 Q35.6 30.65 35.85 30.75 L36.65 30.0 Q36.65 29.7 36.9 29.6 L38.3 26.4 38.5 26.55 M24.35 26.0 L24.6 26.25 24.6 26.35 Q25.1 27.6 26.05 28.55 27.6 30.5 29.9 31.3 L31.2 31.45 31.9 31.45 M23.0 26.55 L22.95 26.5" fill="none" stroke="#000000" stroke-linecap="round" stroke-linejoin="round" stroke-opacity="0.15294118" stroke-width="0.05"/>
      <path d="M37.85 7.8 L38.3 8.2 Q38.5 9.0 38.15 9.9 L37.75 10.6 Q36.3 13.0 31.45 14.0 L29.35 14.3 28.55 14.4 28.0 14.3 24.45 13.75 Q20.5 12.8 20.3 10.8 L20.35 9.9 M16.9 37.7 Q15.8 32.65 20.35 28.5 21.55 27.35 23.0 26.65 L23.0 26.55 24.35 26.0" fill="none" stroke="#000000" stroke-linecap="round" stroke-linejoin="round" stroke-opacity="0.3019608" stroke-width="0.05"/>
      <path d="M40.1 32.35 L36.8 37.4 Q33.6 42.05 28.05 42.5 L20.7 42.05 Q18.85 41.15 19.1 41.0" fill="none" stroke="#000000" stroke-linecap="round" stroke-linejoin="round" stroke-opacity="0.15294118" stroke-width="1.0"/>
      <path d="M38.15 22.7 Q37.55 24.65 36.15 25.25 34.8 25.75 33.6 24.55 32.4 23.35 32.0 21.1 31.6 18.95 32.2 17.0 32.8 15.05 34.15 14.55 35.55 13.95 36.75 15.15 38.0 16.35 38.4 18.6 38.8 20.75 38.15 22.7" fill="#000000" fill-opacity="0.3019608" fill-rule="evenodd" stroke="none"/>
      <path d="M37.85 15.55 Q38.15 16.8 38.0 18.2 37.9 19.45 37.45 20.3 36.8 21.05 36.2 20.95 35.45 20.75 35.15 19.65 34.7 18.6 34.85 17.35 34.95 15.95 35.6 14.95 35.95 14.3 36.65 14.45 37.3 14.65 37.85 15.55" fill="#fc1b1b" fill-rule="evenodd" stroke="none"/>
      <path d="M38.7 15.75 Q39.25 17.6 38.9 19.6 38.65 21.65 37.6 22.75 36.55 23.8 35.3 23.45 33.85 22.9 33.25 21.25 32.85 19.8 33.05 17.65 33.35 15.6 34.25 14.45 35.5 13.45 36.8 14.0 38.05 14.35 38.7 15.75 M37.85 15.55 Q37.3 14.65 36.65 14.45 35.95 14.3 35.6 14.95 34.95 15.95 34.85 17.35 34.7 18.6 35.15 19.65 35.45 20.75 36.2 20.95 36.8 21.05 37.45 20.3 37.9 19.45 38.0 18.2 38.15 16.8 37.85 15.55" fill="#780101" fill-rule="evenodd" stroke="none"/>
      <path d="M38.7 15.75 Q39.25 17.6 38.9 19.6 38.65 21.65 37.6 22.75 36.55 23.8 35.3 23.45 33.85 22.9 33.25 21.25 32.85 19.8 33.05 17.65 33.35 15.6 34.25 14.45 35.5 13.45 36.8 14.0 38.05 14.35 38.7 15.75 Z" fill="none" stroke="#000000" stroke-linecap="round" stroke-linejoin="round" stroke-opacity="0.3019608" stroke-width="0.05"/>
      <path d="M38.2 16.15 Q38.45 16.85 38.35 17.6 38.15 18.45 37.75 18.8 37.4 19.2 36.9 19.05 36.4 18.85 36.1 18.25 35.9 17.65 36.1 16.8 36.15 16.05 36.55 15.6 36.95 15.2 37.45 15.35 38.0 15.55 38.2 16.15" fill="#ffffff" fill-rule="evenodd" stroke="none"/>
      <path d="M37.15 20.8 L37.2 21.55 36.9 22.15 36.45 22.25 Q36.15 22.2 36.1 21.85 L36.05 21.15 Q36.1 20.8 36.3 20.55 L36.75 20.45 Q37.0 20.55 37.15 20.8" fill="#ffffff" fill-rule="evenodd" stroke="none"/>
      <path d="M26.2 12.7 L24.75 12.3 Q22.7 11.2 22.7 9.85 22.7 8.45 24.75 7.4 25.4 6.95 26.2 6.8 L26.2 12.7" fill="#0b2f5c" fill-rule="evenodd" stroke="none"/>
      <path d="M26.2 6.8 L27.65 6.4 29.8 6.2 33.85 6.55 34.7 6.95 35.1 7.1 Q36.7 7.9 36.9 9.2 36.7 10.4 35.35 11.35 L34.7 11.85 Q34.25 12.0 33.85 12.25 L32.85 12.4 29.8 13.05 27.65 12.95 26.2 12.7 26.2 6.8" fill="#073a78" fill-rule="evenodd" stroke="none"/>
      <path d="M24.2 22.45 Q24.7 25.25 25.75 28.35 26.15 29.4 25.35 28.45 23.65 26.35 22.85 23.95 20.65 17.45 21.7 13.4 23.25 17.85 24.2 22.45" fill="#34b6f7" fill-opacity="0.7019608" fill-rule="evenodd" stroke="none"/>
      <path d="M20.15 35.65 Q20.3 38.45 18.55 37.15 17.8 36.8 17.8 36.25 17.6 36.05 17.75 36.0 17.6 35.8 17.75 35.75 17.6 29.8 23.55 27.95 24.7 29.45 22.05 31.5 19.8 32.9 20.15 35.65" fill="#34b6f7" fill-opacity="0.84313726" fill-rule="evenodd" stroke="none"/>
      <path d="M20.4 39.65 L20.4 39.75 Q19.2 40.2 18.8 39.3 18.7 38.95 19.0 38.85 L19.25 38.65 Q20.4 38.8 20.4 39.65" fill="#34b6f7" fill-opacity="0.8901961" fill-rule="evenodd" stroke="none"/>
      <path d="M34.45 5.95 Q35.75 6.35 36.9 7.0 L37.85 7.8 38.3 8.2 38.5 8.35 38.55 8.45 38.65 8.95 38.9 9.65 38.95 9.9 39.05 10.3 Q39.45 12.7 39.5 16.15 39.6 20.7 38.5 26.55 L39.45 27.95 40.1 29.55 40.25 31.45 Q40.1 31.8 40.1 32.35 L36.8 37.4 Q33.6 42.05 28.05 42.5 L20.7 42.05 Q18.85 41.15 19.1 41.0 L18.2 40.1 18.05 40.05 17.55 39.3 16.9 37.7 16.7 35.75 11.65 36.35 8.6 35.85 Q6.75 35.05 5.85 33.95 L5.3 33.05 5.2 32.9 4.9 32.2 4.65 30.5 Q4.55 25.75 8.9 22.5 10.35 21.45 11.85 20.8 L11.65 20.8 Q10.6 18.4 9.9 14.85 8.85 14.25 8.2 12.9 7.7 11.45 7.75 9.3 7.85 7.25 8.65 6.1 L9.3 5.7 9.4 4.9 9.45 4.7 Q9.95 3.8 10.8 3.1 12.5 1.8 14.85 1.15 L16.75 0.7 17.8 0.6 17.9 0.6 17.8 0.7 19.7 0.5 23.5 1.0 25.9 2.05 26.85 2.85 27.35 3.25 27.5 3.4 27.6 3.5 27.65 3.95 27.9 4.7 28.0 4.9 28.0 4.95 28.05 5.3 28.1 5.6 28.8 5.55 28.85 5.55 28.8 5.65 30.7 5.5 34.45 5.95 Z" fill="none" stroke="#000000" stroke-linecap="round" stroke-linejoin="round" stroke-opacity="0.3019608" stroke-width="0.5"/>
    </g>
  </defs>
</svg>
