<?xml version="1.0" encoding="UTF-8" standalone="no"?>
<svg xmlns:xlink="http://www.w3.org/1999/xlink" height="440.0px" width="440.0px" xmlns="http://www.w3.org/2000/svg">
  <g transform="matrix(10.0, 0.0, 0.0, 10.0, 0.0, 0.0)">
    <use height="44.0" transform="matrix(0.9091, 0.0, 0.0, 0.9091, 2.0, 2.0)" width="44.0" xlink:href="#sprite0"/>
  </g>
  <defs>
    <g id="sprite0" transform="matrix(1.0, 0.0, 0.0, 1.0, 0.0, 0.0)">
      <use height="44.0" transform="matrix(1.0, 0.0, 0.0, 1.0, 0.0, 0.0)" width="44.0" xlink:href="#shape0"/>
    </g>
    <g id="shape0" transform="matrix(1.0, 0.0, 0.0, 1.0, 0.0, 0.0)">
      <path d="M44.0 44.0 L0.0 44.0 0.0 0.0 44.0 0.0 44.0 44.0" fill="#43adca" fill-opacity="0.0" fill-rule="evenodd" stroke="none"/>
      <path d="M19.25 26.35 L18.8 26.5 16.0 27.1 Q14.5 27.35 13.45 26.65 L13.1 25.9 Q13.8 25.1 14.85 24.6 L14.35 25.7 Q13.75 26.15 14.2 26.3 15.0 27.2 19.25 25.75 L19.25 26.35" fill="#a09176" fill-rule="evenodd" stroke="none"/>
      <path d="M35.75 6.1 Q36.9 6.55 37.95 7.15 40.35 8.8 40.35 11.35 L40.35 11.75 39.45 10.15 Q38.25 8.15 37.0 7.65 33.85 6.4 31.3 5.95 L35.75 6.1 M30.8 20.1 L27.7 21.15 27.1 21.9 26.8 22.2 24.5 23.25 26.45 21.6 27.35 20.65 26.45 21.6 23.05 22.5 Q21.15 22.35 16.8 23.6 18.85 22.7 21.0 22.3 L26.85 20.75 27.35 20.65 27.35 20.6 Q27.55 20.0 26.4 19.9 23.8 19.35 19.9 19.9 L19.75 19.95 Q17.55 19.8 16.65 18.8 15.8 17.85 16.1 17.85 L16.8 16.05 Q16.95 19.5 21.4 18.85 L21.95 18.9 27.35 19.2 27.45 19.2 27.5 19.2 27.55 19.2 Q28.5 19.55 28.35 20.25 L32.3 18.7 33.25 18.3 30.8 20.1 M28.35 20.25 L28.1 20.85 27.7 21.15 28.1 20.85 28.35 20.25" fill="#996600" fill-rule="evenodd" stroke="none"/>
      <path d="M40.35 11.75 Q40.25 13.1 39.4 14.15 L39.45 10.15 40.35 11.75 M39.15 14.55 L37.7 16.6 Q34.8 18.8 31.8 19.75 L30.8 20.1 33.25 18.3 Q35.45 17.3 37.55 15.9 L39.15 14.55 M26.8 22.2 L26.35 22.7 25.15 23.65 23.7 24.55 20.85 25.85 19.25 26.35 19.25 25.75 21.3 25.0 Q23.1 24.2 24.5 23.25 L26.8 22.2 M14.85 24.6 L15.0 24.4 16.8 23.6 Q21.15 22.35 23.05 22.5 L17.45 24.1 Q15.15 25.05 14.35 25.7 L14.85 24.6 M16.1 17.85 Q15.15 16.05 16.25 13.8 L18.35 10.45 Q21.25 6.65 24.4 6.7 20.4 8.55 18.0 12.2 16.75 14.05 16.8 15.95 L16.8 16.05 16.1 17.85 M27.0 5.75 L28.3 5.35 Q32.65 4.3 35.75 6.1 L31.3 5.95 31.0 5.9 27.0 5.75 M21.95 18.9 L27.35 19.2 21.95 18.9 M18.35 10.45 L18.0 12.2 18.35 10.45" fill="#553311" fill-rule="evenodd" stroke="none"/>
      <path d="M35.75 6.1 Q36.9 6.55 37.95 7.15 40.35 8.8 40.35 11.35 L40.35 11.75 Q40.25 13.1 39.4 14.15 L39.15 14.55 37.7 16.6 Q34.8 18.8 31.8 19.75 L30.8 20.1 27.7 21.15 27.1 21.9 26.8 22.2 26.35 22.7 25.15 23.65 23.7 24.55 20.85 25.85 19.25 26.35 18.8 26.5 16.0 27.1 Q14.5 27.35 13.45 26.65 L13.1 25.9 Q13.8 25.1 14.85 24.6 L15.0 24.4 16.8 23.6 Q18.85 22.7 21.0 22.3 L26.85 20.75 27.35 20.65 27.35 20.6 Q27.55 20.0 26.4 19.9 23.8 19.35 19.9 19.9 L19.75 19.95 Q17.55 19.8 16.65 18.8 15.8 17.85 16.1 17.85 15.15 16.05 16.25 13.8 L18.35 10.45 Q21.25 6.65 24.4 6.7 L26.75 5.75 26.8 5.75 27.0 5.75 28.3 5.35 Q32.65 4.3 35.75 6.1 M31.3 5.95 Q33.85 6.4 37.0 7.65 38.25 8.15 39.45 10.15 L39.4 14.15 M39.15 14.55 L37.55 15.9 Q35.45 17.3 33.25 18.3 M31.3 5.95 L31.0 5.9 27.0 5.75 26.95 5.75 24.4 6.7 Q20.4 8.55 18.0 12.2 16.75 14.05 16.8 15.95 L16.8 16.05 Q16.95 19.5 21.4 18.85 L21.95 18.9 27.35 19.2 M27.5 19.2 L27.55 19.2 Q28.5 19.55 28.35 20.25 L32.3 18.7 33.25 18.3 M26.8 5.75 L26.95 5.75 M27.5 19.2 L27.45 19.2 27.35 19.2 M27.35 20.65 L26.45 21.6 24.5 23.25 Q23.1 24.2 21.3 25.0 L19.25 25.75 Q15.0 27.2 14.2 26.3 13.75 26.15 14.35 25.7 15.15 25.05 17.45 24.1 L23.05 22.5 M27.7 21.15 L28.1 20.85 28.35 20.25 M26.45 21.6 L23.05 22.5" fill="none" stroke="#382510" stroke-linecap="round" stroke-linejoin="round" stroke-opacity="0.2" stroke-width="0.4"/>
      <path d="M35.75 6.1 L31.3 5.95 M39.45 10.15 L40.35 11.75 M33.25 18.3 L30.8 20.1 M27.35 19.2 L27.5 19.2 M27.35 19.2 L21.95 18.9 M24.5 23.25 L26.8 22.2 M16.8 16.05 L16.1 17.85 M18.0 12.2 L18.35 10.45 M23.05 22.5 Q21.15 22.35 16.8 23.6 M14.35 25.7 L14.85 24.6 M19.25 25.75 L19.25 26.35" fill="none" stroke="#382510" stroke-linecap="round" stroke-linejoin="round" stroke-opacity="0.15294118" stroke-width="0.2"/>
      <path d="M7.25 24.9 L7.3 24.85 6.95 25.6 7.25 24.9 M10.1 33.1 L10.25 33.25 10.05 33.15 10.1 33.1" fill="#66cc33" fill-rule="evenodd" stroke="none"/>
      <path d="M7.25 24.9 L7.2 24.85 7.3 24.85 7.25 24.9" fill="#f0ff66" fill-rule="evenodd" stroke="none"/>
      <path d="M7.3 24.85 L7.2 24.85 7.2 24.8 7.45 24.1 Q9.45 25.2 10.2 27.3 10.9 29.05 10.55 31.7 10.5 29.7 9.65 27.9 8.8 26.25 7.3 24.85 M8.75 31.7 L10.1 33.1 10.05 33.15 8.55 32.0 7.2 31.3 5.5 30.8 5.45 30.3 6.95 30.75 Q7.95 31.1 8.75 31.7" fill="#ffff66" fill-rule="evenodd" stroke="none"/>
      <path d="M6.55 27.4 L6.5 26.35 6.6 26.45 6.55 27.4" fill="#445288" fill-rule="evenodd" stroke="none"/>
      <path d="M6.5 28.4 L6.45 28.4 6.45 28.1 6.55 27.65 6.5 28.4" fill="#9fa7c7" fill-rule="evenodd" stroke="none"/>
      <path d="M10.5 33.45 L10.65 33.65 10.45 33.65 10.5 33.45 M5.55 31.85 L5.45 30.8 5.5 30.8 5.55 31.85" fill="#5366ac" fill-rule="evenodd" stroke="none"/>
      <path d="M10.55 31.8 L10.55 31.7 10.55 31.8" fill="#ca8d02" fill-rule="evenodd" stroke="none"/>
      <path d="M10.55 31.7 L10.65 31.8 10.55 31.8 10.55 31.7" fill="#384472" fill-rule="evenodd" stroke="none"/>
      <path d="M10.55 31.8 L9.05 31.15 8.75 31.7 Q7.95 31.1 6.95 30.75 L6.7 30.15 6.5 29.1 6.5 28.7 6.5 28.65 6.45 28.65 6.5 28.4 6.55 27.65 6.55 27.4 6.6 26.45 6.6 26.3 6.95 25.6 7.3 24.85 Q8.8 26.25 9.65 27.9 10.5 29.7 10.55 31.7 L10.55 31.8 M10.25 33.25 L10.4 33.45 10.5 33.45 10.45 33.65 9.25 33.75 9.55 35.05 Q7.2 34.3 5.95 32.4 L5.7 31.85 5.55 31.85 5.5 30.8 7.2 31.3 8.55 32.0 10.05 33.15 10.25 33.25" fill="#e6a700" fill-rule="evenodd" stroke="none"/>
      <path d="M7.2 24.85 L7.25 24.9 M7.2 24.85 L7.2 24.8 7.45 24.1 Q9.45 25.2 10.2 27.3 10.9 29.05 10.55 31.7 L10.65 31.8 M8.75 31.7 L10.1 33.1 10.25 33.25 10.4 33.45 10.5 33.45 10.65 33.65 M9.55 35.05 Q7.2 34.3 5.95 32.4 L5.7 31.85 5.55 31.85 M5.5 30.8 L5.45 30.3 6.95 30.75 6.7 30.15 6.5 29.1 6.5 28.7 6.5 28.65 6.45 28.65 6.5 28.4 6.45 28.4 6.45 28.1 6.55 27.65 6.55 27.4 M6.6 26.45 L6.6 26.3 6.95 25.6 7.25 24.9 M6.95 30.75 Q7.95 31.1 8.75 31.7 M6.6 26.45 L6.55 27.4 M5.5 30.8 L5.55 31.85" fill="none" stroke="#000000" stroke-linecap="round" stroke-linejoin="round" stroke-opacity="0.3019608" stroke-width="0.05"/>
      <path d="M16.55 21.0 L16.75 20.3 17.0 20.45 17.05 20.6 Q18.05 22.15 18.15 23.85 L18.3 24.1 18.3 24.55 18.3 24.6 18.5 24.65 Q19.2 26.05 19.3 27.9 19.45 30.4 17.25 33.35 15.0 36.4 11.75 35.35 L9.95 34.7 9.8 34.65 10.0 34.6 Q12.55 33.6 12.45 32.6 L12.45 32.55 Q12.3 32.15 11.5 31.8 L8.35 31.45 6.8 31.6 6.8 31.05 6.8 30.7 7.25 30.7 8.25 30.9 10.0 31.1 Q12.05 31.1 14.25 30.2 17.75 28.8 17.75 26.3 17.75 25.35 17.05 24.5 L17.25 24.5 17.35 23.55 17.35 23.45 Q17.35 22.2 16.55 21.0" fill="#ffcc00" fill-rule="evenodd" stroke="none"/>
      <path d="M6.8 30.7 L6.9 29.85 6.95 29.4 6.95 29.35 7.5 27.75 Q8.2 26.05 9.6 24.9 L10.0 24.55 Q11.35 23.55 12.75 23.3 11.2 21.55 10.8 19.8 L11.5 20.0 Q13.25 20.8 14.7 22.5 L15.2 23.15 16.0 24.1 16.25 24.0 16.25 23.3 16.25 22.8 16.25 22.75 16.55 21.0 Q17.35 22.2 17.35 23.45 L17.35 23.55 17.25 24.5 17.05 24.5 Q17.75 25.35 17.75 26.3 17.75 28.8 14.25 30.2 12.05 31.1 10.0 31.1 L8.25 30.9 7.25 30.7 6.8 30.7" fill="#ffff66" fill-rule="evenodd" stroke="none"/>
      <path d="M17.05 20.6 Q18.85 21.75 19.3 24.55 L20.05 25.05 21.55 26.8 Q24.95 31.7 20.05 35.65 L19.0 36.3 Q16.6 37.6 13.85 37.4 11.05 37.1 8.95 35.3 L8.65 35.05 Q7.9 34.35 7.5 33.55 6.95 32.6 6.8 31.6 L8.35 31.45 11.5 31.8 Q12.3 32.15 12.45 32.55 L12.45 32.6 Q12.55 33.6 10.0 34.6 L9.8 34.65 9.95 34.7 11.75 35.35 Q15.0 36.4 17.25 33.35 19.45 30.4 19.3 27.9 19.2 26.05 18.5 24.65 L18.3 24.6 18.3 24.55 18.3 24.1 18.15 23.85 Q18.05 22.15 17.05 20.6 M11.5 20.0 Q14.15 20.6 16.25 22.75 L16.25 22.8 16.25 23.3 16.25 24.0 16.0 24.1 15.2 23.15 14.7 22.5 Q13.25 20.8 11.5 20.0" fill="#e6a700" fill-rule="evenodd" stroke="none"/>
      <path d="M16.55 21.0 L16.75 20.3 17.0 20.45 17.05 20.6 Q18.85 21.75 19.3 24.55 L20.05 25.05 21.55 26.8 Q24.95 31.7 20.05 35.65 L19.0 36.3 Q16.6 37.6 13.85 37.4 11.05 37.1 8.95 35.3 L8.65 35.05 Q7.9 34.35 7.5 33.55 6.95 32.6 6.8 31.6 L6.8 31.05 6.8 30.7 6.9 29.85 6.95 29.4 6.95 29.35 7.5 27.75 Q8.2 26.05 9.6 24.9 L10.0 24.55 Q11.35 23.55 12.75 23.3 11.2 21.55 10.8 19.8 L11.5 20.0 Q14.15 20.6 16.25 22.75 L16.55 21.0 M16.25 24.0 L16.25 23.3 16.25 22.8 16.25 22.75" fill="none" stroke="#000000" stroke-linecap="round" stroke-linejoin="round" stroke-opacity="0.3019608" stroke-width="0.05"/>
      <path d="M25.85 31.4 L25.8 31.45 25.75 31.35 25.85 31.4" fill="#f0ff66" fill-rule="evenodd" stroke="none"/>
      <path d="M25.3 32.2 L25.75 31.35 25.8 31.45 25.3 32.2 M15.45 35.35 L15.85 35.35 15.8 35.45 15.45 35.35" fill="#66cc33" fill-rule="evenodd" stroke="none"/>
      <path d="M16.85 33.9 L16.75 33.95 16.75 33.9 16.85 33.9 M24.85 33.1 L24.85 33.05 24.95 33.05 24.85 33.1" fill="#384472" fill-rule="evenodd" stroke="none"/>
      <path d="M24.0 33.9 L24.75 33.15 24.8 33.15 24.0 33.9" fill="#445288" fill-rule="evenodd" stroke="none"/>
      <path d="M15.05 35.5 L15.0 35.35 15.2 35.35 15.05 35.5 M20.55 38.05 L21.35 37.55 20.55 38.05" fill="#5366ac" fill-rule="evenodd" stroke="none"/>
      <path d="M23.1 34.7 L23.6 34.15 23.25 34.6 23.1 34.7" fill="#9fa7c7" fill-rule="evenodd" stroke="none"/>
      <path d="M18.15 35.45 Q19.25 35.65 20.4 36.2 L21.85 37.15 21.35 37.55 19.7 36.45 18.0 35.8 15.8 35.45 15.85 35.35 18.15 35.45 M25.75 31.35 L21.1 31.75 Q18.8 32.4 16.85 33.9 19.15 31.6 21.35 30.8 L26.4 30.6 25.85 31.4 25.75 31.35" fill="#ffff66" fill-rule="evenodd" stroke="none"/>
      <path d="M16.75 33.95 L16.85 33.9 Q18.8 32.4 21.1 31.75 L25.75 31.35 25.3 32.2 24.85 33.05 24.85 33.1 24.75 33.15 24.0 33.9 23.85 33.95 23.7 34.05 23.6 34.15 23.1 34.7 23.05 34.7 23.0 34.8 22.75 34.95 22.7 35.05 22.6 35.05 22.3 35.35 Q21.8 35.6 21.1 36.0 L20.4 36.2 Q19.25 35.65 18.15 35.45 L18.5 34.7 16.75 33.95 M15.05 35.5 L15.2 35.35 15.45 35.35 15.8 35.45 18.0 35.8 19.7 36.45 21.35 37.55 20.55 38.05 Q20.45 38.15 20.3 38.2 L20.1 38.1 19.5 38.35 Q16.75 38.8 14.35 37.35 L15.8 36.6 15.05 35.5" fill="#e6a700" fill-rule="evenodd" stroke="none"/>
      <path d="M18.15 35.45 Q19.25 35.65 20.4 36.2 L21.1 36.0 Q21.8 35.6 22.3 35.35 L22.6 35.05 22.7 35.05 22.75 34.95 23.0 34.8 23.05 34.7 23.1 34.7 23.25 34.6 23.6 34.15 23.7 34.05 23.85 33.95 24.0 33.9 24.75 33.15 24.85 33.1 24.95 33.05 24.85 33.05 25.3 32.2 M16.85 33.9 Q19.15 31.6 21.35 30.8 L26.4 30.6 25.85 31.4 25.8 31.45 25.3 32.2 M16.75 33.9 L16.85 33.9 M15.2 35.35 L15.0 35.35 M15.2 35.35 L15.45 35.35 15.85 35.35 18.15 35.45 M21.35 37.55 L21.85 37.15 20.4 36.2 M14.35 37.35 Q16.75 38.8 19.5 38.35 L20.1 38.1 20.3 38.2 Q20.45 38.15 20.55 38.05 L21.35 37.55" fill="none" stroke="#000000" stroke-linecap="round" stroke-linejoin="round" stroke-opacity="0.3019608" stroke-width="0.05"/>
      <path d="M6.0 37.6 Q6.6 38.0 8.0 37.6 L12.9 35.95 12.1 34.95 8.7 36.85 Q4.15 38.75 9.45 33.05 9.0 33.1 8.65 33.4 5.8 36.4 6.0 37.6" fill="#ffcc33" fill-rule="evenodd" stroke="none"/>
      <path d="M12.9 35.95 L8.0 37.6 Q6.6 38.0 6.0 37.6 6.15 38.6 8.35 38.45 L14.05 37.4 12.9 35.95" fill="#ba4a01" fill-rule="evenodd" stroke="none"/>
      <path d="M9.45 33.05 Q4.15 38.75 8.7 36.85 L12.1 34.95 10.65 33.5 Q10.05 32.95 9.45 33.05" fill="#a94401" fill-rule="evenodd" stroke="none"/>
      <path d="M6.0 37.6 Q6.6 38.0 8.0 37.6 L12.9 35.95 14.05 37.4 8.35 38.45 Q6.15 38.6 6.0 37.6 5.8 36.4 8.65 33.4 9.0 33.1 9.45 33.05 M12.1 34.95 L12.9 35.95 M12.1 34.95 L10.65 33.5 Q10.05 32.95 9.45 33.05" fill="none" stroke="#996600" stroke-linecap="round" stroke-linejoin="round" stroke-opacity="0.2" stroke-width="0.25"/>
      <path d="M6.15 35.95 Q5.0 38.6 8.25 37.85 L13.1 36.15 Q11.35 33.4 10.1 32.65 L11.7 35.25 7.7 36.95 Q5.8 38.3 6.15 35.95" fill="#ae7c13" fill-rule="evenodd" stroke="none"/>
      <path d="M6.25 35.7 L6.15 35.95 Q5.8 38.3 7.7 36.95 L11.7 35.25 10.1 32.65 10.1 32.6 9.9 32.45 10.65 34.6 6.4 36.85 6.25 35.7" fill="#f0ac0f" fill-rule="evenodd" stroke="none"/>
      <path d="M9.9 32.45 L9.65 32.35 Q8.8 32.1 8.1 32.8 6.8 34.5 6.25 35.7 L6.4 36.85 10.65 34.6 9.9 32.45" fill="#ffcc00" fill-rule="evenodd" stroke="none"/>
      <path d="M6.25 35.7 L6.15 35.95 Q5.0 38.6 8.25 37.85 L13.1 36.15 Q11.35 33.4 10.1 32.65 L10.1 32.6 9.9 32.45 M9.65 32.35 Q8.8 32.1 8.1 32.8 6.8 34.5 6.25 35.7 Z" fill="none" stroke="#996600" stroke-linecap="round" stroke-linejoin="round" stroke-opacity="0.2" stroke-width="0.25"/>
      <path d="M7.75 34.05 L8.1 33.35 8.3 33.1 8.7 32.95 Q8.85 32.8 8.95 32.85 L9.15 32.95 9.35 33.1 8.85 33.7 8.1 34.2 7.75 34.2 7.75 34.05" fill="#ffffcc" fill-rule="evenodd" stroke="none"/>
      <path d="M10.0 28.0 L9.5 26.8 Q9.15 26.4 8.85 26.9 8.55 27.3 8.5 28.3 L8.55 29.95 8.6 30.2 8.7 30.5 Q8.6 29.95 9.2 30.6 9.85 31.2 9.75 31.55 L9.8 31.6 10.05 31.1 10.15 30.15 10.15 29.25 10.1 29.2 9.95 29.15 9.75 28.7 9.65 28.25 Q9.65 28.0 9.8 28.0 9.85 27.85 10.0 28.0" fill="#000000" fill-rule="evenodd" stroke="none"/>
      <path d="M10.0 28.0 Q9.85 27.85 9.8 28.0 9.65 28.0 9.65 28.25 L9.75 28.7 9.95 29.15 10.1 29.2 10.15 29.25 10.2 28.9 10.15 28.45 10.05 28.05 10.0 28.0" fill="#ffffff" fill-rule="evenodd" stroke="none"/>
      <path d="M9.8 31.6 L9.75 31.55 9.75 31.6 9.8 31.6" fill="url(#gradient0)" fill-rule="evenodd" stroke="none"/>
      <path d="M9.75 31.55 Q9.85 31.2 9.2 30.6 8.6 29.95 8.7 30.5 8.85 31.4 9.15 31.65 L9.75 31.6 9.75 31.55" fill="#5b583e" fill-rule="evenodd" stroke="none"/>
      <path d="M9.3 27.85 L9.25 27.65 9.3 27.5 9.35 27.5 9.4 27.55 9.45 27.75 9.4 27.9 9.4 27.95 9.3 27.85" fill="#ffffff" fill-rule="evenodd" stroke="none"/>
      <path d="M13.6 29.85 L13.7 29.9 13.7 29.75 13.6 29.85 M13.1 33.4 L13.05 33.3 13.05 33.4 13.1 33.4" fill="#4d2601" fill-rule="evenodd" stroke="none"/>
      <path d="M13.8 31.0 L13.7 31.0 13.5 30.95 13.2 30.5 13.2 30.1 13.4 29.7 13.6 29.85 13.7 29.75 Q13.5 28.95 13.1 28.7 12.65 28.35 12.2 28.7 11.65 29.2 11.45 30.15 11.3 30.95 11.45 31.8 L11.45 32.1 11.55 32.3 Q11.55 31.8 12.35 32.45 13.1 32.95 13.05 33.3 L13.1 33.4 13.5 32.85 13.7 31.9 13.8 31.0" fill="#000000" fill-rule="evenodd" stroke="none"/>
      <path d="M13.6 29.85 L13.4 29.7 13.2 30.1 13.2 30.5 13.5 30.95 13.7 31.0 13.8 31.0 13.95 30.65 13.9 30.2 13.7 29.9 13.6 29.85" fill="#ffffff" fill-rule="evenodd" stroke="none"/>
      <path d="M13.05 33.3 Q13.1 32.95 12.35 32.45 11.55 31.8 11.55 32.3 11.75 33.1 12.1 33.35 L13.05 33.4 13.05 33.3" fill="#5b583e" fill-rule="evenodd" stroke="none"/>
      <path d="M12.85 29.65 L12.85 29.5 12.85 29.35 12.95 29.35 13.05 29.4 13.1 29.6 13.05 29.7 12.95 29.8 12.85 29.65" fill="#ffffff" fill-rule="evenodd" stroke="none"/>
      <path d="M13.45 31.4 L14.35 31.1 14.75 30.25 Q14.8 29.8 14.5 29.45 14.2 29.15 13.75 29.15 13.25 29.15 12.85 29.45 12.5 29.8 12.45 30.25 12.35 30.75 12.65 31.1 L13.45 31.4" fill="url(#gradient1)" fill-rule="evenodd" stroke="none"/>
      <path d="M9.85 29.55 L10.75 29.25 11.15 28.4 10.95 27.55 Q10.6 27.25 10.15 27.25 9.65 27.25 9.25 27.55 8.9 27.95 8.85 28.4 8.8 28.85 9.1 29.25 9.35 29.55 9.85 29.55" fill="url(#gradient2)" fill-rule="evenodd" stroke="none"/>
    </g>
    <radialGradient cx="0" cy="0" gradientTransform="matrix(0.0017, 0.0019, -2.0E-4, 0.0031, 9.3, 29.25)" gradientUnits="userSpaceOnUse" id="gradient0" r="819.2" spreadMethod="pad">
      <stop offset="0.21176470588235294" stop-color="#453929"/>
      <stop offset="0.5254901960784314" stop-color="#252016"/>
    </radialGradient>
    <radialGradient cx="0" cy="0" gradientTransform="matrix(-0.0015, 0.0, -2.0E-4, 0.0015, 13.55, 30.25)" gradientUnits="userSpaceOnUse" id="gradient1" r="819.2" spreadMethod="pad">
      <stop offset="0.6666666666666666" stop-color="#f7fed6"/>
      <stop offset="1.0" stop-color="#f7ffd6" stop-opacity="0.0"/>
    </radialGradient>
    <radialGradient cx="0" cy="0" gradientTransform="matrix(-0.0015, 0.0, -2.0E-4, 0.0015, 10.0, 28.4)" gradientUnits="userSpaceOnUse" id="gradient2" r="819.2" spreadMethod="pad">
      <stop offset="0.6666666666666666" stop-color="#f7fed6"/>
      <stop offset="1.0" stop-color="#f7ffd6" stop-opacity="0.0"/>
    </radialGradient>
  </defs>
</svg>
