<?xml version="1.0" encoding="UTF-8" standalone="no"?>
<svg xmlns:xlink="http://www.w3.org/1999/xlink" height="440.0px" width="440.0px" xmlns="http://www.w3.org/2000/svg">
  <g transform="matrix(10.0, 0.0, 0.0, 10.0, 0.0, 0.0)">
    <use height="44.0" transform="matrix(1.0, 0.0, 0.0, 1.0, 0.0, 0.0)" width="44.0" xlink:href="#shape0"/>
    <use height="32.2" transform="matrix(0.9, 0.0, 0.0, 0.9627, 0.8451, 6.2697)" width="26.85" xlink:href="#sprite0"/>
    <use height="32.2" transform="matrix(-1.0, 0.0322, 0.0, 1.0697, 42.85, 5.4567)" width="26.85" xlink:href="#sprite0"/>
  </g>
  <defs>
    <g id="shape0" transform="matrix(1.0, 0.0, 0.0, 1.0, 0.0, 0.0)">
      <path d="M44.0 44.0 L0.0 44.0 0.0 0.0 44.0 0.0 44.0 44.0" fill="#43adca" fill-opacity="0.0" fill-rule="evenodd" stroke="none"/>
      <path d="M18.95 9.45 Q19.15 9.25 19.4 9.15 L19.45 9.15 Q19.7 9.0 20.0 8.8 L20.45 8.6 Q20.65 8.45 20.8 8.4 L20.85 8.4 20.7 8.3 20.4 8.15 20.55 8.1 20.3 8.05 20.8 7.7 20.7 7.6 Q18.8 6.35 16.3 7.1 L16.0 7.2 15.5 7.0 Q11.0 5.3 6.6 7.5 L8.25 7.95 9.0 7.75 M8.25 7.95 Q6.45 9.3 6.25 11.5 L6.05 12.75 6.1 12.75 7.5 11.95 7.55 11.05 M9.35 18.3 L9.25 19.3 9.3 20.6 9.3 20.85 Q9.6 21.95 10.25 23.0 L10.35 23.2 10.85 24.15 10.9 24.2 11.0 24.0 12.4 21.95 11.85 20.4 11.35 18.6 Q11.2 17.5 11.4 16.45 L11.85 14.95 11.85 14.9 12.05 14.45 12.2 14.2 12.3 13.95 12.1 14.15 11.7 13.3 11.45 13.1 10.9 12.6 10.05 11.9 9.15 11.1 9.1 11.0 Q9.15 10.65 9.6 10.55 10.0 10.2 10.5 10.15 L14.15 9.7 17.8 10.3 18.0 10.1 M16.65 20.3 L16.75 21.35 17.15 21.6 Q17.3 20.1 18.3 18.75 L17.85 17.75 Q16.75 16.05 17.4 14.05 L16.0 14.1 16.0 14.0 16.0 13.9 Q16.1 13.2 16.35 12.6 L15.55 12.7 14.05 13.05 13.45 13.35 Q12.75 13.6 12.3 13.95 M20.8 7.7 L20.8 7.65 Q22.9 6.25 25.65 6.95 L26.0 7.05 26.55 6.75 Q31.55 4.75 36.45 7.05 L34.65 7.6 Q36.65 9.05 36.85 11.5 L37.05 12.85 36.9 12.85 35.45 12.0 Q35.35 16.65 37.75 20.35 L37.9 20.55 37.75 20.55 36.3 20.5 35.45 20.15 35.7 23.1 34.65 22.85 34.15 22.5 35.2 24.35 36.05 26.35 Q38.4 26.0 40.0 27.85 L40.05 27.85 40.15 27.9 Q41.2 28.8 41.1 30.55 41.55 30.9 41.5 31.8 L41.5 31.95 41.75 31.95 41.5 32.1 42.45 32.3 Q43.0 32.95 42.8 34.45 L41.9 36.55 41.6 36.15 41.4 36.65 Q40.55 38.8 38.05 39.7 L38.0 39.7 34.8 40.15 Q30.25 40.6 28.35 39.6 L25.75 38.25 25.7 38.25 25.15 37.4 25.1 37.4 Q23.25 37.35 21.9 36.65 20.75 36.2 19.95 35.2 L19.7 34.9 19.45 34.1 19.45 33.9 Q18.3 34.45 16.8 34.55 L16.75 34.55 16.25 35.25 16.2 35.25 13.85 36.55 Q12.15 37.5 8.05 37.2 L5.2 36.9 5.15 36.9 Q2.9 36.2 2.1 34.3 L1.95 33.9 1.7 34.25 1.55 33.95 0.9 32.35 Q0.7 31.0 1.2 30.45 L2.05 30.2 1.85 30.1 2.05 30.05 2.05 29.9 Q2.0 29.15 2.4 28.8 2.3 27.25 3.25 26.4 L3.3 26.35 3.45 26.3 Q4.85 24.65 6.95 24.85 L7.75 23.05 8.7 21.4 8.25 21.65 7.3 21.95 7.3 21.85 7.5 19.3 6.75 19.6 5.45 19.7 5.3 19.7 5.45 19.5 Q7.6 16.1 7.5 11.95 M20.85 8.4 L21.1 8.25 20.55 8.1 M17.4 14.05 L18.55 13.6 18.65 13.55 19.1 13.25 M16.35 12.6 Q16.85 11.25 17.8 10.3 M22.95 12.75 L23.85 12.8 24.75 12.9 25.0 12.9 25.1 12.9 25.2 12.95 26.5 13.15 28.15 13.45 28.85 13.8 Q29.65 14.0 30.1 14.45 L30.35 14.65 30.8 13.65 31.05 13.4 31.7 12.9 32.6 12.05 Q33.25 11.3 33.65 11.1 L33.7 11.0 Q33.6 10.65 33.05 10.5 32.7 10.15 32.1 10.15 L28.05 9.7 23.95 10.6 22.85 10.9 21.2 11.5 21.15 11.55 20.8 11.7 20.5 11.85 M34.65 7.6 L33.8 7.45 M25.3 21.6 L25.2 22.75 Q25.05 24.95 26.15 26.7 L26.55 27.25 26.85 27.65 27.4 28.3 27.35 27.8 30.0 23.3 30.65 21.6 31.15 19.55 Q31.3 18.3 31.1 17.15 L30.65 15.5 30.6 15.45 30.4 14.95 30.25 14.7 30.1 14.45 M35.45 12.0 L35.4 10.95 M30.0 23.3 L31.7 25.7 31.75 25.65 32.3 24.6 32.45 24.4 33.45 22.0 33.5 21.65 33.5 20.25 33.4 19.15 M33.45 22.0 L34.15 22.5 M31.6 28.5 L33.3 27.3 34.5 26.75 Q35.3 26.4 36.05 26.35 M29.3 36.2 L28.75 36.1 28.35 36.0 28.15 35.95 27.4 35.65 27.0 35.5 26.9 35.45 25.6 34.55 25.55 34.35 24.0 32.3 23.85 32.1 23.45 31.65 23.55 32.2 23.7 32.9 23.7 33.0 Q24.3 35.85 25.15 37.4 M41.5 32.1 L41.5 31.95 41.4 31.95 40.9 31.8 40.85 31.95 40.9 32.0 41.05 32.2 41.35 32.55 41.65 33.2 41.95 34.25 41.6 36.15 M40.7 32.35 L40.8 32.1 40.85 31.95 M40.9 31.8 L41.1 30.55 M34.35 18.3 Q35.1 18.95 35.45 20.15 M34.95 39.85 L34.8 40.15 M20.5 20.45 L20.2 21.15 20.2 21.25 20.1 21.75 20.4 23.6 20.5 24.2 20.8 25.4 20.8 25.45 20.85 25.55 20.85 25.6 21.0 26.1 21.2 26.55 21.2 26.05 21.6 25.7 Q23.15 24.15 25.2 22.75 M18.3 18.75 L18.5 19.0 18.75 19.5 18.75 19.95 18.7 20.15 18.7 20.3 19.2 19.85 19.95 18.45 Q20.3 17.25 20.0 15.55 M17.15 21.6 Q17.0 22.75 17.4 24.0 L17.45 24.1 17.5 24.1 17.75 23.7 18.8 22.8 20.1 21.75 M19.9 24.4 L20.0 23.85 18.8 22.8 M16.75 21.35 Q16.85 23.25 15.9 24.9 L15.5 25.45 15.25 25.75 14.75 26.35 14.8 25.9 12.4 21.95 M20.8 25.4 L20.8 25.85 20.85 25.55 M20.8 25.85 L20.75 26.35 20.75 26.45 20.7 27.15 20.75 27.8 20.75 28.3 20.7 28.1 20.7 28.55 20.8 28.4 20.75 28.6 20.95 30.1 M20.75 26.45 L20.7 26.3 20.75 26.35 M21.65 26.3 L21.6 25.7 M20.5 24.2 L20.35 24.6 20.35 24.2 20.0 23.85 M9.3 20.85 L8.7 21.4 M8.5 17.6 Q7.8 18.15 7.5 19.3 M11.0 26.65 Q10.3 26.05 9.45 25.6 L8.3 25.15 6.95 24.85 M13.05 33.55 L13.5 33.4 13.9 33.3 14.05 33.25 14.85 32.95 15.1 32.8 15.25 32.75 16.3 31.95 16.4 31.75 17.8 29.95 17.95 29.7 18.3 29.3 18.4 29.05 18.45 29.0 18.95 28.05 M8.05 37.2 L7.9 36.95 7.6 35.95 7.55 35.75 7.25 33.8 6.95 33.45 M19.45 33.9 L19.4 33.85 19.25 32.85 19.2 32.35 19.2 31.65 19.2 31.5 19.25 31.0 Q19.4 30.2 19.8 29.55 L20.5 28.65 20.65 28.55 20.7 28.55 M22.7 30.35 L23.25 31.4 23.35 31.45 23.45 31.65 M23.55 32.2 L22.6 31.9 21.45 30.95 M23.35 31.45 L23.2 31.45 23.25 31.4 M18.4 29.05 L18.45 29.05 18.45 29.0 M16.75 34.55 Q17.5 33.15 18.05 30.5 L18.05 30.4 18.2 29.85 18.3 29.3 M18.2 29.85 L19.05 29.45 20.1 28.6 M2.05 30.05 L2.15 30.05 2.6 29.95 2.4 28.8 M1.95 33.9 L1.65 32.1 1.95 31.2 2.2 30.6 2.45 30.25 2.6 30.1 2.6 30.05 2.6 29.95 M2.05 30.05 L2.05 30.2" fill="none" stroke="#000000" stroke-linecap="round" stroke-linejoin="round" stroke-opacity="0.3019608" stroke-width="0.7000000000000001"/>
    </g>
    <g id="sprite0" transform="matrix(1.0, 0.0, 0.0, 1.0, 14.45, 12.6)">
      <use height="36.45" transform="matrix(-0.4124, 0.0, 0.0, 0.4124, 7.7141, -0.4182)" width="32.1" xlink:href="#sprite1"/>
      <use height="8.55" transform="matrix(1.0, 0.0, 0.0, 1.0, 0.15, 8.2)" width="9.05" xlink:href="#shape2"/>
      <use height="50.2" transform="matrix(-0.4124, 0.0, -0.065, 0.3986, 8.4953, -0.3861)" width="47.6" xlink:href="#sprite2"/>
      <use height="31.1" transform="matrix(1.0, 0.0, 0.0, 1.0, -14.45, -12.6)" width="26.85" xlink:href="#shape4"/>
    </g>
    <g id="sprite1" transform="matrix(1.0, 0.0, 0.0, 1.0, 13.25, 15.2)">
      <use height="36.45" transform="matrix(1.0, 0.0, 0.0, 1.0, -13.25, -15.2)" width="32.1" xlink:href="#shape1"/>
    </g>
    <g id="shape1" transform="matrix(1.0, 0.0, 0.0, 1.0, 13.25, 15.2)">
      <path d="M16.7 0.9 Q18.0 6.9 18.05 12.55 L17.75 17.8 Q9.55 22.25 -1.1 21.0 -6.9 19.45 -11.35 15.75 L-13.2 10.85 -13.25 5.0 -13.15 5.5 Q-13.55 -0.5 -12.05 -4.1 L-7.4 -11.85 Q2.6 -17.2 11.2 -13.95 L18.85 -2.9 16.7 0.9 16.05 2.05 16.7 0.9" fill="#42211b" fill-rule="evenodd" stroke="none"/>
      <path d="M16.7 0.9 L18.85 -2.9 11.2 -13.95 Q2.6 -17.2 -7.4 -11.85 L-12.05 -4.1 Q-13.55 -0.5 -13.15 5.5 L-13.25 5.0 -13.2 10.85 -11.35 15.75 Q-6.9 19.45 -1.1 21.0 9.55 22.25 17.75 17.8 L18.05 12.55 Q18.0 6.9 16.7 0.9 L16.05 2.05" fill="none" stroke="#000000" stroke-linecap="round" stroke-linejoin="round" stroke-opacity="0.3019608" stroke-width="0.05"/>
    </g>
    <g id="shape2" transform="matrix(1.0, 0.0, 0.0, 1.0, -0.15, -8.2)">
      <path d="M7.65 8.35 L7.6 8.2 7.75 8.3 7.65 8.35" fill="#a32800" fill-rule="evenodd" stroke="none"/>
      <path d="M7.75 8.3 L7.9 8.4 8.6 9.2 9.15 10.55 9.2 11.05 9.2 11.15 9.15 12.3 9.0 13.25 8.95 13.45 8.85 13.4 8.35 13.95 Q7.85 14.55 7.0 14.7 L6.8 14.75 Q5.95 15.0 5.9 14.25 L5.9 14.05 Q5.7 13.05 5.95 12.45 L6.95 10.6 7.45 9.75 7.65 8.35 7.75 8.3" fill="#cc5e5e" fill-rule="evenodd" stroke="none"/>
      <path d="M8.95 13.45 L8.7 14.2 8.45 14.55 Q7.65 15.45 6.5 15.95 5.15 16.65 3.3 16.75 L2.4 16.75 0.15 16.25 0.15 16.2 1.4 15.0 1.45 15.1 1.5 15.05 1.65 14.05 2.0 12.45 5.15 11.8 5.15 11.75 5.8 11.5 6.95 10.6 5.95 12.45 Q5.7 13.05 5.9 14.05 L5.9 14.25 Q5.95 15.0 6.8 14.75 L7.0 14.7 Q7.85 14.55 8.35 13.95 L8.85 13.4 8.95 13.45" fill="#973838" fill-rule="evenodd" stroke="none"/>
      <path d="M7.65 8.35 L7.6 8.2 7.75 8.3 7.9 8.4 8.6 9.2 9.15 10.55 9.2 11.05 9.2 11.15 9.15 12.3 9.0 13.25 8.95 13.45 8.7 14.2 8.45 14.55 Q7.65 15.45 6.5 15.95 5.15 16.65 3.3 16.75 L2.4 16.75 0.15 16.25 M1.65 14.05 L2.0 12.45 5.15 11.8 M5.15 11.75 L5.8 11.5 6.95 10.6 M7.45 9.75 L7.65 8.35 Z" fill="none" stroke="#000000" stroke-linecap="round" stroke-linejoin="round" stroke-opacity="0.3019608" stroke-width="0.05"/>
    </g>
    <g id="sprite2" transform="matrix(1.0, 0.0, 0.0, 1.0, 20.85, 23.8)">
      <use height="50.2" transform="matrix(1.0, 0.0, 0.0, 1.0, -20.85, -23.8)" width="47.6" xlink:href="#shape3"/>
    </g>
    <g id="shape3" transform="matrix(1.0, 0.0, 0.0, 1.0, 20.85, 23.8)">
      <path d="M22.35 6.2 L22.3 6.3 22.1 6.05 22.35 6.2" fill="#bd9444" fill-rule="evenodd" stroke="none"/>
      <path d="M1.9 6.75 L1.9 6.65 1.95 6.7 1.95 6.75 1.9 6.75" fill="#879880" fill-rule="evenodd" stroke="none"/>
      <path d="M24.55 8.5 L24.85 7.9 24.9 8.3 25.0 8.95 24.7 8.95 24.45 8.95 24.55 8.5 M24.4 13.6 L24.4 13.65 24.35 13.6 24.4 13.6" fill="#583a00" fill-rule="evenodd" stroke="none"/>
      <path d="M-8.2 0.0 L-8.15 0.25 -8.25 0.05 -8.2 0.0 M1.9 6.65 L1.9 6.75 1.9 6.8 1.75 6.7 1.65 6.65 1.9 6.65" fill="#54604f" fill-rule="evenodd" stroke="none"/>
      <path d="M15.4 25.4 L15.25 25.45 15.25 25.4 15.4 25.4 M-13.75 21.05 L-13.85 21.05 -13.75 21.05 M10.2 12.45 L10.15 12.5 10.2 12.45" fill="#32382f" fill-rule="evenodd" stroke="none"/>
      <path d="M-17.15 5.0 L-17.3 4.95 -17.2 4.85 -17.15 5.0" fill="#6a7a66" fill-rule="evenodd" stroke="none"/>
      <path d="M1.35 16.85 L1.45 16.85 1.35 16.9 1.35 16.85 M0.4 17.3 L0.4 17.2 0.55 17.2 0.4 17.3 M-3.35 16.55 L-3.35 16.45 -3.35 16.55" fill="#1e1400" fill-rule="evenodd" stroke="none"/>
      <path d="M0.15 5.95 L-0.1 5.65 0.2 5.8 0.15 5.95 M1.9 6.65 L1.65 6.65 1.85 6.6 2.0 6.7 1.95 6.75 1.95 6.7 1.9 6.65" fill="#288c99" fill-rule="evenodd" stroke="none"/>
      <path d="M11.7 16.15 L12.35 16.05 11.95 16.45 11.7 16.15 M15.2 13.05 L15.25 13.05 15.2 13.05" fill="#332000" fill-rule="evenodd" stroke="none"/>
      <path d="M1.3 6.7 L1.3 6.35 1.3 6.5 1.85 6.6 1.65 6.65 1.75 6.7 1.3 6.7" fill="#79607e" fill-rule="evenodd" stroke="none"/>
      <path d="M17.6 4.4 L17.65 4.15 18.1 4.2 17.6 4.4" fill="#533659" fill-rule="evenodd" stroke="none"/>
      <path d="M0.4 17.2 L0.4 17.3 -1.0 17.65 -1.1 17.65 -1.2 17.25 -0.85 17.2 0.4 17.2" fill="#ab5a80" fill-rule="evenodd" stroke="none"/>
      <path d="M14.15 -10.75 Q-8.85 -11.95 -8.95 -4.0 L-8.2 0.0 -8.25 0.05 -8.15 0.25 Q-9.3 5.85 0.15 6.65 L1.3 6.7 1.75 6.7 1.9 6.8 1.9 6.75 1.95 6.75 2.0 6.7 1.85 6.6 1.3 6.5 1.3 6.35 3.7 6.3 12.1 5.85 Q15.05 5.6 17.6 4.4 L18.1 4.2 18.9 3.85 Q21.5 2.8 23.25 0.85 L24.25 -0.75 24.55 -1.8 24.8 -1.95 Q27.85 1.0 25.0 7.55 L24.85 7.9 24.55 8.5 24.45 8.95 24.7 8.95 24.4 9.6 24.45 9.6 24.4 9.6 23.3 11.25 Q20.3 14.65 12.35 16.05 L11.7 16.15 1.4 17.2 1.3 17.2 0.6 17.2 0.6 17.15 0.55 17.2 0.4 17.2 -0.85 17.2 -1.2 17.25 -1.7 17.15 -3.15 16.95 -3.4 16.9 -3.45 16.9 -4.5 16.65 -5.7 16.25 -7.1 15.9 -9.75 14.75 Q-11.35 13.8 -12.7 12.45 L-12.85 12.0 Q-14.3 9.2 -16.15 6.65 L-16.9 5.55 -17.15 5.0 -17.2 4.85 -18.2 2.3 -19.4 -0.65 -19.5 -0.5 -20.45 -2.55 Q-21.15 -5.15 -20.6 -8.1 -20.15 -10.6 -18.95 -12.15 -18.35 -18.7 -17.05 -20.45 L-16.6 -20.9 4.15 -23.6 Q10.7 -20.45 14.15 -10.75 M22.1 6.05 L22.3 6.3 22.35 6.2 22.1 6.05 M1.35 16.85 L1.35 16.9 1.45 16.85 1.35 16.85 M15.2 13.05 L15.25 13.05 15.2 13.05 M10.15 12.5 L10.2 12.45 10.15 12.5 M-18.95 -12.15 L-19.25 -7.15 -18.95 -12.15 M-3.35 16.55 L-3.35 16.45 -3.35 16.55" fill="#42211b" fill-rule="evenodd" stroke="none"/>
      <path d="M15.5 -6.0 L15.55 -5.85 15.55 -6.0 Q21.3 -6.55 24.45 -2.25 L24.65 -2.1 24.8 -1.95 24.55 -1.8 24.25 -0.75 23.25 0.85 Q21.5 2.8 18.9 3.85 L18.1 4.2 17.65 4.15 17.6 4.4 Q15.05 5.6 12.1 5.85 L3.7 6.3 1.3 6.35 1.3 6.7 0.15 6.65 Q-9.3 5.85 -8.15 0.25 L-8.2 0.0 -8.95 -4.0 Q-8.85 -11.95 14.15 -10.75 L15.5 -6.0 11.7 -5.2 Q7.4 -3.85 3.95 -1.35 7.4 -3.85 11.7 -5.2 L15.5 -6.0 M0.15 5.95 L0.2 5.8 -0.1 5.65 0.15 5.95" fill="#72472e" fill-rule="evenodd" stroke="none"/>
      <path d="M0.4 17.3 L0.55 17.2 0.6 17.15 0.6 17.2 1.3 17.2 1.4 17.2 11.7 16.15 11.95 16.45 11.1 17.3 Q10.35 20.1 9.2 22.9 L7.9 25.55 Q-6.4 25.55 -7.55 22.85 -8.95 20.9 -7.9 16.8 -4.3 18.2 -2.25 17.85 L-1.1 17.65 -1.0 17.65 0.4 17.3" fill="#cc5e5e" fill-rule="evenodd" stroke="none"/>
      <path d="M24.7 8.95 L25.0 8.95 24.9 8.3 24.85 7.9 25.0 7.55 25.05 7.65 25.4 8.1 25.9 9.0 Q26.7 10.6 26.75 12.95 26.1 16.2 24.6 18.65 21.65 23.55 15.4 25.4 L15.25 25.4 15.25 25.45 7.45 26.25 Q-3.75 26.95 -8.0 24.5 L-13.75 21.05 -13.85 21.05 Q-16.3 17.6 -16.75 8.7 L-16.75 8.45 -16.9 5.55 -16.15 6.65 Q-14.3 9.2 -12.85 12.0 L-12.7 12.45 Q-11.35 13.8 -9.75 14.75 L-7.1 15.9 -5.7 16.25 -4.5 16.65 -3.45 16.9 -3.4 16.9 -3.15 16.95 -1.7 17.15 -1.2 17.25 -1.1 17.65 -2.25 17.85 Q-4.3 18.2 -7.9 16.8 -8.95 20.9 -7.55 22.85 -6.4 25.55 7.9 25.55 L9.2 22.9 Q10.35 20.1 11.1 17.3 L11.95 16.45 12.35 16.05 Q20.3 14.65 23.3 11.25 L24.4 9.6 24.45 9.6 24.4 9.6 24.7 8.95 M24.4 13.6 L24.35 13.6 24.4 13.65 24.4 13.6 M7.45 26.25 L7.9 25.55 7.45 26.25" fill="#973838" fill-rule="evenodd" stroke="none"/>
      <path d="M15.5 -6.0 L15.55 -5.85 M15.55 -6.0 L15.5 -6.0 14.15 -10.75 M24.8 -1.95 L24.65 -2.1 24.45 -2.25 Q21.3 -6.55 15.55 -6.0 M4.15 -23.6 Q10.7 -20.45 14.15 -10.75 M4.15 -23.6 L5.95 -23.8 M3.95 -1.35 Q7.4 -3.85 11.7 -5.2 L15.5 -6.0 M24.85 7.9 L24.55 8.5 M24.85 7.9 L25.0 7.55 Q27.85 1.0 24.8 -1.95 M25.0 7.55 L25.05 7.65 25.4 8.1 25.9 9.0 Q26.7 10.6 26.75 12.95 26.1 16.2 24.6 18.65 21.65 23.55 15.4 25.4 L15.25 25.45 7.45 26.25 Q-3.75 26.95 -8.0 24.5 L-13.75 21.05 -13.85 21.05 Q-16.3 17.6 -16.75 8.7 L-16.75 8.45 -16.9 5.55 -17.15 5.0 -17.3 4.95 -17.2 4.85 -18.2 2.3 M-18.95 -12.15 Q-18.35 -18.7 -17.05 -20.45 L-16.6 -20.9 4.15 -23.6 M22.1 6.05 L22.35 6.2 M7.9 25.55 L7.45 26.25 M10.15 12.5 L10.2 12.45 M-19.25 -7.15 L-18.95 -12.15 M-17.2 4.85 L-17.15 5.0 M-4.5 16.65 L-5.7 16.25 -7.1 15.9 -9.75 14.75 Q-11.35 13.8 -12.7 12.45 L-12.85 12.0 Q-14.3 9.2 -16.15 6.65 L-16.9 5.55" fill="none" stroke="#000000" stroke-linecap="round" stroke-linejoin="round" stroke-opacity="0.3019608" stroke-width="0.05"/>
    </g>
    <g id="shape4" transform="matrix(1.0, 0.0, 0.0, 1.0, 14.45, 12.6)">
      <path d="M-6.25 -10.85 L-5.4 -11.05 Q-7.3 -10.25 -7.3 -8.75 L-7.0 -7.65 -7.2 -7.55 -7.6 -7.35 -8.2 -6.55 -8.55 -5.95 -8.5 -5.9 -8.6 -5.85 -8.65 -5.85 -8.45 -7.15 Q-8.25 -9.45 -6.25 -10.85 M-2.45 -3.75 L-2.4 -3.8 -2.0 -4.1 -2.2 -3.65 -2.25 -3.6 -2.3 -3.7 -2.45 -3.75 M-1.85 -4.35 L-1.95 -4.4 -1.7 -4.6 -1.85 -4.35 M9.65 -9.55 L9.65 -9.5 9.6 -9.5 9.65 -9.55 M-3.15 5.8 L-3.3 6.0 -3.35 5.95 -3.15 5.8" fill="#a39d82" fill-rule="evenodd" stroke="none"/>
      <path d="M-5.3 -7.7 Q-5.55 -7.7 -5.85 -8.15 L-6.15 -8.75 Q-6.1 -9.8 -2.85 -10.3 0.3 -10.8 3.15 -10.4 5.95 -9.9 7.15 -9.2 L7.6 -8.85 Q8.35 -8.25 8.3 -7.5 L8.15 -7.15 8.05 -7.15 7.6 -7.45 5.55 -8.15 Q2.75 -8.9 0.35 -9.05 L-3.7 -8.55 -4.65 -8.2 -4.7 -8.15 -5.3 -7.7 M11.0 3.95 L10.95 4.05 10.9 4.05 11.0 3.95 M-9.35 1.35 L-9.5 1.35 -9.35 1.15 -9.35 1.35 M8.0 0.55 L7.9 0.75 7.8 0.5 8.0 0.55 M-6.0 -0.95 L-5.95 -1.0 -5.95 -0.85 -6.0 -0.95" fill="#706344" fill-rule="evenodd" stroke="none"/>
      <path d="M-2.0 -4.1 L-1.85 -4.35 -1.75 -4.25 -2.0 -4.1 M7.4 6.05 L7.2 6.45 7.2 6.0 7.4 6.05" fill="#bdb697" fill-rule="evenodd" stroke="none"/>
      <path d="M8.05 -7.15 L8.15 -7.05 8.1 -7.05 8.05 -7.15" fill="#081e20" fill-rule="evenodd" stroke="none"/>
      <path d="M-1.95 -4.4 L-2.4 -5.3 -2.65 -5.5 -3.3 -6.0 -4.2 -6.75 Q-4.85 -7.45 -5.25 -7.6 L-5.3 -7.7 -4.7 -8.15 -4.65 -8.2 -3.7 -8.55 0.35 -9.05 Q2.75 -8.9 5.55 -8.15 L7.6 -7.45 8.05 -7.15 8.1 -7.05 7.6 -6.85 5.45 -6.4 4.55 -6.3 3.3 -6.15 3.2 -6.1 1.9 -5.9 0.25 -5.55 -0.45 -5.25 -1.7 -4.6 -1.95 -4.4" fill="#14110c" fill-rule="evenodd" stroke="none"/>
      <path d="M-0.75 1.45 L-0.95 1.55 -0.9 1.2 -0.75 1.45" fill="#ccc8b3" fill-rule="evenodd" stroke="none"/>
      <path d="M-7.0 -7.65 Q-6.55 -6.8 -5.3 -5.9 L-2.45 -3.75 -2.3 -3.7 -2.25 -3.6 -2.2 -3.65 -2.0 -4.1 -1.75 -4.25 -0.8 -4.7 0.3 -4.5 5.45 -5.05 Q7.95 -5.75 9.7 -7.6 L9.7 -7.45 12.4 -5.5 12.4 -5.35 11.0 -5.35 9.75 -5.75 9.3 -6.05 9.45 -5.6 9.5 -5.3 Q9.45 -4.7 9.55 -4.2 L9.55 -3.6 9.5 -3.3 9.45 -2.7 9.45 -2.6 9.25 -1.7 9.25 -1.2 Q9.2 -0.65 9.4 -0.2 L9.65 0.25 Q9.55 -0.3 10.1 -0.95 11.9 1.3 11.0 3.95 10.9 2.65 9.95 1.7 9.15 0.8 8.0 0.55 L7.8 0.5 7.55 0.0 Q5.9 0.0 4.8 0.85 7.75 2.05 7.2 5.6 L7.2 6.0 Q5.5 4.4 3.2 3.05 L3.1 1.95 1.3 -1.55 1.2 1.6 Q1.2 2.75 0.5 3.8 L-0.75 1.45 -0.9 1.2 -0.95 1.55 -0.9 4.8 -1.6 3.7 -2.25 2.1 Q-3.1 -0.05 -2.7 -2.0 L-2.25 -3.6 -2.7 -2.0 Q-4.9 1.6 -3.15 5.8 L-3.35 5.95 -3.9 5.0 -5.05 2.55 -5.1 0.95 -5.0 -0.1 -6.3 1.45 Q-7.2 2.7 -7.3 3.7 L-7.05 0.95 Q-6.7 -0.25 -5.95 -0.85 L-5.95 -1.0 -6.0 -0.95 -7.6 0.35 Q-8.3 0.95 -9.35 1.15 -6.95 -2.4 -7.05 -6.7 L-7.0 -7.65 M8.4 -3.85 Q7.8 -0.85 9.7 0.55 L9.7 0.4 9.65 0.25 9.7 0.4 9.7 0.55 Q7.8 -0.85 8.4 -3.85" fill="#797153" fill-rule="evenodd" stroke="none"/>
      <path d="M10.9 4.05 L10.65 3.7 8.3 1.95 8.2 1.4 7.9 0.75 8.0 0.55 Q9.15 0.8 9.95 1.7 10.9 2.65 11.0 3.95 L10.9 4.05 M-1.6 3.7 L-3.15 5.8 Q-4.9 1.6 -2.7 -2.0 -3.1 -0.05 -2.25 2.1 L-1.6 3.7 M-5.05 2.55 L-6.25 3.4 -7.3 3.7 Q-7.2 2.7 -6.3 1.45 L-5.0 -0.1 -5.1 0.95 -5.05 2.55 M-7.05 0.95 L-7.9 1.25 -9.35 1.35 -9.35 1.15 Q-8.3 0.95 -7.6 0.35 L-6.0 -0.95 -5.95 -0.85 Q-6.7 -0.25 -7.05 0.95 M-7.05 -6.7 L-8.5 -5.9 -8.55 -5.95 -8.2 -6.55 -7.6 -7.35 -7.2 -7.55 -7.0 -7.65 -7.05 -6.7" fill="#595639" fill-rule="evenodd" stroke="none"/>
      <path d="M-6.25 -10.85 L-8.05 -11.3 Q-3.15 -13.6 1.85 -11.85 L2.4 -11.65 2.75 -11.75 Q5.5 -12.5 7.6 -11.2 L8.1 -10.85 7.3 -10.65 7.6 -10.5 7.95 -10.35 8.4 -10.15 9.0 -9.85 9.45 -9.6 9.55 -9.6 Q9.55 -9.55 9.65 -9.55 L9.8 -9.4 10.4 -9.0 Q12.0 -7.65 12.4 -5.5 L9.7 -7.45 9.7 -7.6 Q7.95 -5.75 5.45 -5.05 L0.3 -4.5 -0.8 -4.7 -1.75 -4.25 -1.85 -4.35 -2.0 -4.1 -2.4 -3.8 -2.45 -3.75 -5.3 -5.9 Q-6.55 -6.8 -7.0 -7.65 L-7.3 -8.75 Q-7.3 -10.25 -5.4 -11.05 L-6.25 -10.85 M-1.95 -4.4 L-1.85 -4.35 -1.7 -4.6 -0.45 -5.25 0.25 -5.55 1.9 -5.9 3.2 -6.1 3.3 -6.15 4.55 -6.3 5.45 -6.4 7.6 -6.85 8.1 -7.05 8.15 -7.05 8.05 -7.15 8.15 -7.15 8.3 -7.5 Q8.35 -8.25 7.6 -8.85 L7.15 -9.2 Q5.95 -9.9 3.15 -10.4 0.3 -10.8 -2.85 -10.3 -6.1 -9.8 -6.15 -8.75 L-5.85 -8.15 Q-5.55 -7.7 -5.3 -7.7 L-5.25 -7.6 Q-4.85 -7.45 -4.2 -6.75 L-3.3 -6.0 -2.65 -5.5 -2.4 -5.3 -1.95 -4.4 M9.65 -9.55 L9.6 -9.5 9.65 -9.5 9.65 -9.55 M9.3 -6.05 L9.75 -5.75 11.0 -5.35 Q11.65 -3.45 10.55 -1.85 L10.1 -0.95 Q9.55 -0.3 9.65 0.25 L9.4 -0.2 Q9.2 -0.65 9.25 -1.2 L9.25 -1.7 9.45 -2.6 9.45 -2.7 9.5 -3.3 9.55 -3.6 9.55 -4.2 Q9.45 -4.7 9.5 -5.3 L9.45 -5.6 9.3 -6.05" fill="#aba075" fill-rule="evenodd" stroke="none"/>
      <path d="M8.3 1.95 L7.6 5.4 7.55 5.55 7.4 6.05 7.2 6.0 7.2 5.6 Q7.75 2.05 4.8 0.85 5.9 0.0 7.55 0.0 L7.8 0.5 7.9 0.75 8.2 1.4 8.3 1.95 M3.2 3.05 Q3.35 5.4 1.85 7.3 L1.55 7.65 1.0 8.25 1.05 7.8 -0.9 4.8 -0.95 1.55 -0.75 1.45 0.5 3.8 Q1.2 2.75 1.2 1.6 L1.3 -1.55 3.1 1.95 3.2 3.05" fill="#9c926c" fill-rule="evenodd" stroke="none"/>
      <path d="M9.65 -9.55 Q9.55 -9.55 9.55 -9.6 L9.45 -9.6 9.0 -9.85 8.4 -10.15 7.95 -10.35 7.6 -10.5 7.3 -10.65 8.1 -10.85 7.6 -11.2 Q5.5 -12.5 2.75 -11.75 L2.4 -11.65 1.85 -11.85 Q-3.15 -13.6 -8.05 -11.3 L-6.25 -10.85 -5.4 -11.05 M-2.0 -4.1 L-1.85 -4.35 M-1.95 -4.4 L-2.4 -5.3 -2.65 -5.5 -3.3 -6.0 -4.2 -6.75 Q-4.85 -7.45 -5.25 -7.6 L-5.3 -7.7 -4.7 -8.15 M5.45 -6.4 L4.55 -6.3 3.3 -6.15 3.2 -6.1 1.9 -5.9 0.25 -5.55 -0.45 -5.25 -1.7 -4.6 -1.85 -4.35 M12.4 -5.5 Q12.0 -7.65 10.4 -9.0 M9.8 -9.4 L9.65 -9.55 M-4.65 -8.2 L-3.7 -8.55 0.35 -9.05 Q2.75 -8.9 5.55 -8.15 L7.6 -7.45 8.05 -7.15 M11.0 -5.35 L9.75 -5.75 9.3 -6.05 M9.65 0.25 Q9.55 -0.3 10.1 -0.95 L10.55 -1.85 Q11.65 -3.45 11.0 -5.35 L12.4 -5.35 12.4 -5.5 M11.0 3.95 L10.95 4.05 10.9 4.05 10.65 3.7 8.3 1.95 7.6 5.4 7.55 5.55 7.4 6.05 7.2 6.45 7.2 6.0 Q5.5 4.4 3.2 3.05 3.35 5.4 1.85 7.3 L1.55 7.65 1.0 8.25 1.05 7.8 -0.9 4.8 -1.6 3.7 -3.15 5.8 -3.3 6.0 -3.35 5.95 -3.9 5.0 -5.05 2.55 -6.25 3.4 -7.3 3.7 -7.05 0.95 -7.9 1.25 -9.35 1.35 -9.5 1.35 -9.35 1.15 Q-6.95 -2.4 -7.05 -6.7 L-8.5 -5.9 -8.6 -5.85 -8.65 -5.85 -8.45 -7.15 Q-8.25 -9.45 -6.25 -10.85 M7.9 0.75 L8.2 1.4 8.3 1.95 M9.65 0.25 L9.7 0.4 9.7 0.55 Q7.8 -0.85 8.4 -3.85 M3.2 3.05 L3.1 1.95 M10.1 -0.95 Q11.9 1.3 11.0 3.95 M-7.0 -7.65 L-7.05 -6.7 M-5.95 -0.85 L-5.95 -1.0 M-2.0 -4.1 L-2.2 -3.65 -2.25 -3.6 -2.7 -2.0 Q-3.1 -0.05 -2.25 2.1 L-1.6 3.7 M-1.7 -4.6 L-1.95 -4.4 M-5.05 2.55 L-5.1 0.95 -5.0 -0.1 M-5.95 -0.85 Q-6.7 -0.25 -7.05 0.95" fill="none" stroke="#000000" stroke-linecap="round" stroke-linejoin="round" stroke-opacity="0.3019608" stroke-width="0.05"/>
      <path d="M-12.0 15.1 L-12.5 15.3 -12.6 15.3 -13.5 16.45 -13.65 16.15 -13.8 13.8 -13.2 13.25 -13.35 14.15 -11.4 13.1 -11.05 14.95 -11.15 14.95 -11.75 14.95 -12.0 15.1" fill="#a0946f" fill-rule="evenodd" stroke="none"/>
      <path d="M-13.35 12.15 L-13.1 12.1 -13.1 12.25 -13.0 12.1 -11.75 11.8 -11.4 13.1 -13.35 14.15 -13.2 13.25 -13.8 13.8 -13.65 16.15 -14.4 14.5 Q-14.6 13.1 -14.05 12.5 L-13.1 12.25 -13.35 12.15" fill="#c4c2bc" fill-rule="evenodd" stroke="none"/>
      <path d="M-13.1 12.1 L-13.35 12.15 -13.1 11.95 -13.1 12.1 -13.1 11.95 -13.0 12.1 -13.1 12.25 -13.1 12.1 -13.0 12.1 -13.1 12.1" fill="#533659" fill-rule="evenodd" stroke="none"/>
      <path d="M-13.0 12.1 L-13.1 11.95 Q-13.15 10.75 -12.2 10.55 L-11.7 10.65 -11.4 10.7 Q-10.8 10.95 -10.3 12.15 L-10.15 12.45 Q-9.8 13.45 -9.8 14.2 -9.8 15.85 -10.9 15.85 L-11.8 15.5 -12.0 15.1 -11.75 14.95 -11.15 14.95 -11.05 14.95 -11.4 13.1 -11.75 11.8 -13.0 12.1" fill="#42211b" fill-rule="evenodd" stroke="none"/>
      <path d="M-13.1 12.1 L-13.35 12.15 -13.1 12.25 M-13.0 12.1 L-13.1 12.1 M-12.0 15.1 L-12.5 15.3 -12.6 15.3 -13.5 16.45 -13.65 16.15 -14.4 14.5 Q-14.6 13.1 -14.05 12.5 L-13.1 12.25 M-13.0 12.1 L-11.75 11.8 -11.4 13.1 -11.05 14.95 -11.15 14.95 -11.75 14.95 -12.0 15.1" fill="none" stroke="#000000" stroke-linecap="round" stroke-linejoin="round" stroke-opacity="0.4" stroke-width="0.05"/>
      <path d="M-13.1 12.25 L-13.1 12.1 -13.1 11.95 Q-13.15 10.75 -12.2 10.55 L-11.7 10.65 -11.4 10.7 M-10.15 12.45 Q-9.8 13.45 -9.8 14.2 -9.8 15.85 -10.9 15.85 L-11.8 15.5 -12.0 15.1" fill="none" stroke="#000000" stroke-linecap="round" stroke-linejoin="round" stroke-opacity="0.3019608" stroke-width="0.05"/>
      <path d="M-11.4 10.7 Q-10.8 10.95 -10.3 12.15 L-10.15 12.45" fill="none" stroke="#000000" stroke-linecap="round" stroke-linejoin="round" stroke-opacity="0.0" stroke-width="0.05"/>
      <path d="M-7.7 18.2 L-8.45 17.3 -8.55 17.15 -8.55 17.1 -9.1 15.8 -9.25 14.95 -8.55 13.85 -6.9 13.65 -6.55 13.85 -6.9 16.35 -7.65 15.25 -7.7 18.2 M-8.45 17.3 L-8.55 17.1 -8.45 17.3" fill="#c4c2bc" fill-rule="evenodd" stroke="none"/>
      <path d="M-6.45 17.4 L-7.45 18.5 -7.7 18.2 -7.65 15.25 -6.9 16.35 -6.55 13.85 -5.4 14.6 -4.85 15.6 -6.45 17.4" fill="#a0946f" fill-rule="evenodd" stroke="none"/>
      <path d="M-4.45 13.25 Q-3.8 14.1 -3.8 14.9 -3.8 16.1 -4.65 16.75 -5.25 17.15 -6.45 17.4 L-4.85 15.6 -5.4 14.6 -6.55 13.85 -6.9 13.65 -8.55 13.85 -9.25 14.95 -9.1 15.8 -8.55 17.1 Q-10.1 16.65 -10.1 14.9 -10.1 13.5 -9.5 13.0 -8.9 12.5 -7.35 12.5 L-7.15 12.5 -6.8 12.6 -6.7 12.6 -5.3 12.4 -5.05 12.6 -4.45 13.25" fill="#42211b" fill-rule="evenodd" stroke="none"/>
      <path d="M-6.45 17.4 L-7.45 18.5 -7.7 18.2 -8.45 17.3 -8.55 17.15 -8.55 17.1 M-6.45 17.4 L-4.85 15.6 -5.4 14.6 -6.55 13.85 -6.9 13.65 -8.55 13.85 -9.25 14.95 -9.1 15.8 -8.55 17.1" fill="none" stroke="#000000" stroke-linecap="round" stroke-linejoin="round" stroke-opacity="0.4" stroke-width="0.05"/>
      <path d="M-4.45 13.25 Q-3.8 14.1 -3.8 14.9 -3.8 16.1 -4.65 16.75 -5.25 17.15 -6.45 17.4 M-8.55 17.1 Q-10.1 16.65 -10.1 14.9 -10.1 13.5 -9.5 13.0 -8.9 12.5 -7.35 12.5 L-7.15 12.5 -6.8 12.6 M-8.55 17.1 L-8.45 17.3" fill="none" stroke="#000000" stroke-linecap="round" stroke-linejoin="round" stroke-opacity="0.3019608" stroke-width="0.05"/>
      <path d="M1.15 12.8 Q1.6 13.35 1.6 14.15 L1.0 15.2 0.1 15.95 -2.6 16.6 -2.9 16.7 -3.0 16.7 Q-3.75 16.7 -4.3 16.05 -4.8 15.45 -4.8 14.65 -4.8 13.65 -3.8 12.7 -2.8 11.75 -1.95 11.75 L-1.9 11.75 -1.5 11.85 1.15 12.8" fill="#42211b" fill-rule="evenodd" stroke="none"/>
      <path d="M1.15 12.8 Q1.6 13.35 1.6 14.15 L1.0 15.2 0.1 15.95 -2.6 16.6 -2.9 16.7 -3.0 16.7 Q-3.75 16.7 -4.3 16.05 -4.8 15.45 -4.8 14.65 -4.8 13.65 -3.8 12.7 -2.8 11.75 -1.95 11.75 L-1.9 11.75" fill="none" stroke="#000000" stroke-linecap="round" stroke-linejoin="round" stroke-opacity="0.3019608" stroke-width="0.05"/>
      <path d="M-1.25 18.5 Q-2.2 17.7 -2.8 16.55 L-3.25 15.6 -3.55 14.7 Q-3.4 13.6 -2.05 13.3 L-1.7 13.15 -2.15 15.55 -2.55 14.6 -2.5 16.25 -1.25 18.5" fill="#c4c2bc" fill-rule="evenodd" stroke="none"/>
      <path d="M-1.7 13.15 Q-0.55 12.8 0.2 14.25 L0.05 15.55 -0.3 16.65 Q-0.6 17.6 -1.25 18.5 L-2.5 16.25 -2.55 14.6 -2.15 15.55 -1.7 13.15" fill="#a0946f" fill-rule="evenodd" stroke="none"/>
      <path d="M-1.7 13.15 Q-0.55 12.8 0.2 14.25 L0.05 15.55 -0.3 16.65 Q-0.6 17.6 -1.25 18.5 -2.2 17.7 -2.8 16.55 L-3.25 15.6 -3.55 14.7 Q-3.4 13.6 -2.05 13.3 L-1.7 13.15 Z" fill="none" stroke="#000000" stroke-linecap="round" stroke-linejoin="round" stroke-opacity="0.4" stroke-width="0.05"/>
      <path d="M1.1 13.8 L1.0 13.85 Q-0.45 13.3 -1.65 12.3 L-1.65 12.2 Q-1.45 11.9 -1.1 11.95 L-0.5 12.1 Q1.05 12.4 1.1 13.8" fill="#72472e" fill-rule="evenodd" stroke="none"/>
      <path d="M-2.95 12.7 Q-2.75 12.35 -2.3 12.3 L-2.2 12.45 Q-2.0 13.35 -2.95 12.75 L-2.95 12.7" fill="#72472e" fill-rule="evenodd" stroke="none"/>
      <path d="M-9.15 13.3 Q-8.75 12.55 -7.9 12.5 -6.65 12.3 -6.15 13.25 L-9.15 13.35 -9.15 13.3" fill="#72472e" fill-rule="evenodd" stroke="none"/>
      <path d="M-11.25 13.15 L-11.15 13.2 -11.2 13.2 -11.25 13.15 M-11.7 11.0 L-11.7 10.95 -11.7 11.0" fill="#79607e" fill-rule="evenodd" stroke="none"/>
      <path d="M-11.25 13.15 Q-11.9 12.3 -12.1 11.25 L-12.1 11.2 Q-11.95 10.95 -11.7 10.95 L-11.7 11.0 Q-10.2 11.95 -11.15 13.2 L-11.25 13.15" fill="#72472e" fill-rule="evenodd" stroke="none"/>
    </g>
  </defs>
</svg>
