<?xml version="1.0" encoding="UTF-8" standalone="no"?>
<svg xmlns:xlink="http://www.w3.org/1999/xlink" height="440.0px" width="440.0px" xmlns="http://www.w3.org/2000/svg">
  <g transform="matrix(10.0, 0.0, 0.0, 10.0, 0.0, 0.0)">
    <use height="44.0" transform="matrix(1.0, 0.0, 0.0, 1.0, 0.0, 0.0)" width="44.0" xlink:href="#shape0"/>
    <use height="82.7" transform="matrix(0.4405, -0.0102, 0.0047, 0.2741, 4.45, 14.9)" width="82.7" xlink:href="#sprite0"/>
    <use height="39.9" transform="matrix(1.0, 0.0, 0.0, 1.0, 3.6, 1.7)" width="35.4" xlink:href="#shape2"/>
  </g>
  <defs>
    <g id="shape0" transform="matrix(1.0, 0.0, 0.0, 1.0, 0.0, 0.0)">
      <path d="M44.0 44.0 L0.0 44.0 0.0 0.0 44.0 0.0 44.0 44.0" fill="#43adca" fill-opacity="0.0" fill-rule="evenodd" stroke="none"/>
    </g>
    <g id="sprite0" transform="matrix(1.0, 0.0, 0.0, 1.0, 0.0, 0.0)">
      <use height="82.7" transform="matrix(1.0, 0.0, 0.0, 1.0, 0.0, 0.0)" width="82.7" xlink:href="#shape1"/>
    </g>
    <g id="shape1" transform="matrix(1.0, 0.0, 0.0, 1.0, 0.0, 0.0)">
      <path d="M70.6 12.1 Q82.7 24.2 82.7 41.35 82.7 58.5 70.6 70.6 58.5 82.7 41.35 82.7 24.2 82.7 12.1 70.6 0.0 58.5 0.0 41.35 0.0 24.2 12.1 12.1 24.2 0.0 41.35 0.0 58.5 0.0 70.6 12.1" fill="url(#gradient0)" fill-rule="evenodd" stroke="none"/>
    </g>
    <radialGradient cx="0" cy="0" gradientTransform="matrix(0.0508, 0.0, 0.0, 0.0508, 41.35, 41.35)" gradientUnits="userSpaceOnUse" id="gradient0" r="819.2" spreadMethod="pad">
      <stop offset="0.0" stop-color="#000000" stop-opacity="0.3019608"/>
      <stop offset="1.0" stop-color="#000000" stop-opacity="0.0"/>
    </radialGradient>
    <g id="shape2" transform="matrix(1.0, 0.0, 0.0, 1.0, -3.6, -1.7)">
      <path d="M37.1 16.0 L37.85 17.2 37.85 17.3 37.9 17.4 37.9 17.55 37.85 17.3 37.75 18.3 Q37.15 19.25 34.65 19.7 L33.6 19.7 32.0 19.3 31.85 19.7 27.1 19.7 26.95 19.75 26.9 19.7 25.6 19.75 24.9 19.7 21.8 19.7 Q21.3 19.9 20.95 20.05 L21.35 19.3 21.75 15.85 28.8 15.35 30.0 15.4 30.15 15.4 30.25 15.45 37.1 16.0 M17.75 19.4 L17.8 19.5 14.05 19.8 13.05 19.75 13.05 19.45 13.05 19.4 13.0 18.95 13.05 18.7 Q14.65 17.55 17.45 16.75 L17.5 16.9 17.5 17.3 17.6 18.1 17.75 19.4 M36.05 17.85 Q35.55 15.9 28.0 16.35 L26.8 16.55 28.55 18.25 23.7 18.9 34.65 18.9 Q37.6 18.45 37.05 16.75 L36.5 17.55 36.05 17.85 M37.05 16.75 L37.05 16.7 37.0 16.75 37.05 16.75 M5.1 17.4 L6.15 17.35 6.9 18.3 6.85 18.3 4.7 17.4 5.1 17.4 M10.3 20.0 L12.0 19.85 9.1 20.7 9.5 20.5 10.3 20.0" fill="#452e18" fill-rule="evenodd" stroke="none"/>
      <path d="M37.9 17.4 L38.45 19.3 38.55 19.9 Q38.2 20.4 37.25 20.7 L34.65 21.2 33.6 19.7 34.65 19.7 Q37.15 19.25 37.75 18.3 L37.85 17.3 37.9 17.55 37.9 17.4 M18.3 20.1 L20.0 20.35 20.9 20.05 20.95 20.05 Q21.3 19.9 21.8 19.7 L24.9 19.7 25.6 19.75 26.9 19.7 26.95 19.75 27.1 19.7 31.85 19.7 34.05 21.25 31.95 21.35 29.4 21.2 26.7 21.0 17.45 21.7 13.65 22.2 11.6 22.35 10.45 22.35 9.65 22.3 9.65 20.8 10.1 20.8 10.8 20.75 12.8 20.7 18.3 20.1" fill="#18211c" fill-rule="evenodd" stroke="none"/>
      <path d="M36.05 17.85 L36.5 17.55 37.05 16.75 Q37.6 18.45 34.65 18.9 L23.7 18.9 28.55 18.25 35.1 18.25 36.05 17.85" fill="#19211e" fill-rule="evenodd" stroke="none"/>
      <path d="M38.55 19.9 L38.75 21.0 Q39.05 23.35 28.6 22.65 L20.05 22.9 9.65 23.75 9.65 22.3 10.45 22.35 11.6 22.35 13.65 22.2 17.45 21.7 26.7 21.0 29.4 21.2 31.95 21.35 34.05 21.25 35.4 22.2 34.65 21.2 37.25 20.7 Q38.2 20.4 38.55 19.9" fill="#111714" fill-rule="evenodd" stroke="none"/>
      <path d="M20.8 6.95 Q22.3 6.6 23.1 7.7 L23.5 9.2 Q22.75 8.0 21.8 7.7 21.0 11.0 22.7 12.25 L22.35 12.6 22.0 12.95 21.8 12.95 21.55 12.95 21.15 10.05 21.2 9.7 21.05 8.45 20.85 7.6 20.8 7.05 20.8 6.95 M16.95 12.85 L17.0 13.45 17.0 13.5 17.1 14.3 15.5 14.55 14.2 14.9 14.05 14.95 13.9 15.15 13.85 15.25 13.75 15.5 13.7 15.6 13.65 15.75 Q13.35 14.65 11.15 13.95 L9.1 13.3 12.2 13.5 13.7 14.15 13.45 13.45 13.6 13.4 16.95 12.85" fill="#194743" fill-rule="evenodd" stroke="none"/>
      <path d="M20.9 11.75 L21.15 10.05 20.9 11.75 20.55 13.0 19.7 14.4 Q18.95 15.35 18.5 16.45 L17.95 18.4 Q19.1 19.35 19.85 18.8 20.55 18.45 20.8 16.0 L20.9 13.0 20.9 11.75 M17.75 19.4 L17.95 18.4 17.75 19.4 17.6 18.1 17.5 17.3 17.5 16.9 17.6 16.7 Q18.45 14.65 19.9 13.15 L20.0 13.0 21.1 10.05 21.15 10.05 21.55 12.95 21.65 13.8 21.75 15.85 21.35 19.3 20.95 20.05 20.9 20.05 20.0 20.35 18.3 20.1 18.25 20.05 17.8 19.5 17.75 19.4" fill="#b59c64" fill-rule="evenodd" stroke="none"/>
      <path d="M23.5 9.2 L23.85 11.05 22.7 12.25 Q21.0 11.0 21.8 7.7 22.75 8.0 23.5 9.2" fill="#215c5a" fill-rule="evenodd" stroke="none"/>
      <path d="M32.55 13.0 L33.2 13.6 30.65 14.65 32.55 13.0 M21.75 15.85 L21.65 13.8 21.55 12.95 21.8 12.95 22.0 12.95 24.4 13.15 25.3 13.0 Q25.5 13.0 25.9 13.4 27.9 14.7 30.15 15.4 L30.0 15.4 28.8 15.35 21.75 15.85 M6.15 15.95 L6.15 17.35 5.1 17.4 Q5.1 15.6 6.15 15.95 M10.1 18.35 L10.3 20.0 9.5 20.5 Q9.4 18.95 10.1 18.35 M13.65 15.75 L13.7 15.6 13.75 15.5 13.85 15.25 13.9 15.15 14.05 14.95 14.2 14.9 15.5 14.55 17.1 14.3 17.25 15.3 17.4 16.35 17.45 16.75 Q14.65 17.55 13.05 18.7 13.05 17.2 13.65 15.75" fill="#2b1c0f" fill-rule="evenodd" stroke="none"/>
      <path d="M20.9 11.75 L20.9 13.0 20.8 16.0 Q20.55 18.45 19.85 18.8 19.1 19.35 17.95 18.4 L18.5 16.45 Q18.95 15.35 19.7 14.4 L20.55 13.0 20.9 11.75" fill="#ccb165" fill-rule="evenodd" stroke="none"/>
      <path d="M4.1 16.7 L4.2 16.15 4.5 15.75 4.4 16.25 4.4 16.6 4.7 17.4 6.85 18.3 6.9 18.3 7.35 18.75 7.25 19.45 7.2 20.1 Q7.85 20.55 9.1 20.7 L12.0 19.85 13.05 19.75 14.05 19.8 17.8 19.5 18.25 20.05 18.3 20.1 12.8 20.7 10.8 20.75 10.1 20.8 9.65 20.8 9.1 20.8 Q7.85 20.7 7.2 20.25 5.2 19.4 4.4 17.55 L4.3 17.3 4.15 17.0 4.1 16.7 M28.55 18.25 L26.8 16.55 28.0 16.35 Q35.55 15.9 36.05 17.85 L35.1 18.25 28.55 18.25" fill="#5e4022" fill-rule="evenodd" stroke="none"/>
      <path d="M33.2 13.6 L34.9 14.0 30.65 14.65 33.2 13.6" fill="#c78747" fill-rule="evenodd" stroke="none"/>
      <path d="M31.85 19.7 L32.0 19.3 35.4 22.2 34.05 21.25 31.85 19.7" fill="#070a08" fill-rule="evenodd" stroke="none"/>
      <path d="M16.95 12.15 L16.95 12.35 16.95 12.85 13.6 13.4 13.45 13.45 11.25 12.4 12.2 13.5 9.1 13.3 Q7.35 12.35 7.05 11.5 6.75 10.6 7.75 8.9 L7.8 8.85 Q8.9 8.3 10.8 7.9 5.5 12.3 16.95 12.15" fill="#3aa19f" fill-rule="evenodd" stroke="none"/>
      <path d="M4.5 15.75 L4.55 15.7 5.2 14.5 Q4.65 15.65 5.6 15.3 L4.85 16.25 4.55 15.8 4.5 15.75 M7.35 18.7 L7.65 17.55 Q7.7 19.2 9.65 17.85 L9.1 19.25 Q8.1 19.4 7.35 18.7" fill="#8c6132" fill-rule="evenodd" stroke="none"/>
      <path d="M7.35 18.75 L7.35 18.7 Q8.1 19.4 9.1 19.25 L9.1 20.25 Q8.1 19.1 7.25 19.45 L7.35 18.75 M4.4 16.25 L4.5 15.75 4.55 15.8 4.85 16.25 4.75 16.8 Q4.7 16.05 4.4 16.25" fill="#4f331a" fill-rule="evenodd" stroke="none"/>
      <path d="M5.2 14.5 L5.55 13.95 6.15 13.3 6.15 13.35 6.15 14.6 5.8 14.95 5.6 15.3 Q4.65 15.65 5.2 14.5 M7.65 17.55 L8.25 16.25 Q8.45 16.05 8.8 16.1 L8.45 18.1 8.95 17.2 9.5 16.3 9.85 16.5 9.65 17.85 Q7.7 19.2 7.65 17.55" fill="#80592e" fill-rule="evenodd" stroke="none"/>
      <path d="M5.6 15.3 L5.8 14.95 6.15 14.6 6.15 15.95 Q5.1 15.6 5.1 17.4 L4.7 17.4 4.75 16.8 4.85 16.25 5.6 15.3 M8.8 16.1 L8.95 17.2 8.45 18.1 8.8 16.1 M9.65 17.85 L9.85 16.5 10.1 18.35 Q9.4 18.95 9.5 20.5 L9.1 20.7 9.1 20.25 9.1 19.25 9.65 17.85" fill="#1c1209" fill-rule="evenodd" stroke="none"/>
      <path d="M12.2 13.5 L11.25 12.4 13.7 14.15 12.2 13.5 M6.15 14.6 L6.9 18.3 6.15 17.35 6.15 15.95 6.15 14.6 M9.85 16.5 L11.3 18.75 12.0 19.85 10.3 20.0 10.1 18.35 9.85 16.5" fill="#123331" fill-rule="evenodd" stroke="none"/>
      <path d="M3.85 18.55 L3.85 18.4 4.0 17.3 4.1 16.7 4.15 17.0 4.3 17.3 4.4 17.55 Q5.2 19.4 7.2 20.25 7.85 20.7 9.1 20.8 L9.65 20.8 9.65 22.3 Q5.65 22.05 3.85 18.55" fill="#26332e" fill-rule="evenodd" stroke="none"/>
      <path d="M4.7 17.4 L4.4 16.6 4.4 16.25 Q4.7 16.05 4.75 16.8 L4.7 17.4 M9.1 20.25 L9.1 20.7 Q7.85 20.55 7.2 20.1 L7.25 19.45 Q8.1 19.1 9.1 20.25" fill="#573a1e" fill-rule="evenodd" stroke="none"/>
      <path d="M9.65 23.75 L7.0 23.4 Q6.15 23.0 5.2 21.85 L4.15 20.35 3.85 18.55 Q5.65 22.05 9.65 22.3 L9.65 23.75" fill="#212c28" fill-rule="evenodd" stroke="none"/>
      <path d="M11.25 12.4 L13.45 13.45 13.7 14.15 11.25 12.4" fill="#42b8b5" fill-rule="evenodd" stroke="none"/>
      <path d="M6.4 11.9 Q6.8 10.0 7.75 8.9 6.75 10.6 7.05 11.5 7.35 12.35 9.1 13.3 L11.15 13.95 Q13.35 14.65 13.65 15.75 13.05 17.2 13.05 18.7 L13.0 18.95 13.05 19.4 13.05 19.45 13.05 19.75 12.0 19.85 11.3 18.75 Q10.95 17.35 9.5 15.05 6.85 11.55 6.4 11.9" fill="#1d524f" fill-rule="evenodd" stroke="none"/>
      <path d="M22.35 12.6 L30.45 12.6 30.95 12.65 32.55 13.0 30.65 14.65 34.9 14.0 36.75 15.6 37.1 16.0 30.25 15.45 30.15 15.4 Q27.9 14.7 25.9 13.4 25.5 13.0 25.3 13.0 L24.4 13.15 22.0 12.95 22.35 12.6 M32.0 19.3 L33.6 19.7 34.65 21.2 35.4 22.2 32.0 19.3" fill="url(#gradient1)" fill-rule="evenodd" stroke="none"/>
      <path d="M20.3 5.55 L20.3 5.45 19.95 5.05 19.9 5.0 Q20.85 3.05 20.85 1.95 L21.45 3.3 20.85 5.15 21.95 4.45 23.1 7.7 Q22.3 6.6 20.8 6.95 L20.5 6.1 20.3 5.55" fill="url(#gradient2)" fill-rule="evenodd" stroke="none"/>
      <path d="M20.3 5.55 L20.5 6.1 20.8 6.95 20.8 7.05 20.85 7.6 21.05 8.45 21.2 9.7 21.15 10.05 21.1 10.05 20.0 13.0 19.9 13.15 Q18.45 14.65 17.6 16.7 L17.5 16.9 17.45 16.75 17.4 16.35 17.25 15.3 17.1 14.3 17.0 13.5 17.0 13.45 17.05 12.8 Q17.15 11.75 17.4 10.65 L17.65 12.6 Q17.8 13.0 18.05 12.8 L18.9 12.4 19.3 12.2 Q20.8 11.0 20.7 8.6 L20.3 5.55" fill="url(#gradient3)" fill-rule="evenodd" stroke="none"/>
      <path d="M19.9 5.0 L19.95 5.05 20.3 5.45 19.5 5.8 19.4 5.85 18.15 6.65 Q17.8 6.9 17.55 7.45 17.15 8.35 17.05 10.1 L16.85 9.05 16.75 7.65 16.75 7.45 16.85 6.4 17.05 5.75 Q17.6 4.8 18.65 4.65 L19.35 4.7 19.9 5.0" fill="url(#gradient4)" fill-rule="evenodd" stroke="none"/>
      <path d="M20.3 5.45 L20.3 5.55 20.7 8.6 Q20.8 11.0 19.3 12.2 L18.9 12.4 18.05 12.8 Q17.8 13.0 17.65 12.6 L17.4 10.65 Q17.15 11.75 17.05 12.8 L17.0 13.45 16.95 12.85 16.95 12.35 16.95 12.15 Q16.85 10.75 17.05 10.1 17.15 8.35 17.55 7.45 17.8 6.9 18.15 6.65 L19.4 5.85 19.5 5.8 20.3 5.45" fill="url(#gradient5)" fill-rule="evenodd" stroke="none"/>
      <path d="M17.05 10.1 Q16.85 10.75 16.95 12.15 5.5 12.3 10.8 7.9 L11.85 7.75 16.75 7.45 16.75 7.65 16.85 9.05 17.05 10.1" fill="url(#gradient6)" fill-rule="evenodd" stroke="none"/>
      <path d="M6.15 13.35 L6.4 11.9 Q6.85 11.55 9.5 15.05 10.95 17.35 11.3 18.75 L9.85 16.5 9.5 16.3 8.95 17.2 8.8 16.1 Q8.45 16.05 8.25 16.25 L7.65 17.55 7.35 18.7 7.35 18.75 6.9 18.3 6.15 14.6 6.15 13.35" fill="url(#gradient7)" fill-rule="evenodd" stroke="none"/>
      <path d="M23.1 7.7 L21.95 4.45 20.85 5.15 21.45 3.3 20.85 1.95 Q20.85 3.05 19.9 5.0 M23.1 7.7 L23.5 9.2 23.85 11.05 22.7 12.25 22.35 12.6 30.45 12.6 30.95 12.65 32.55 13.0 33.2 13.6 34.9 14.0 36.75 15.6 37.1 16.0 37.85 17.2 37.85 17.3 37.9 17.4 38.45 19.3 38.55 19.9 38.75 21.0 Q39.05 23.35 28.6 22.65 L20.05 22.9 9.65 23.75 7.0 23.4 Q6.15 23.0 5.2 21.85 L4.15 20.35 3.85 18.55 3.85 18.4 4.0 17.3 4.1 16.7 4.2 16.15 4.5 15.75 M6.15 13.35 L6.4 11.9 Q6.8 10.0 7.75 8.9 L7.8 8.85 Q8.9 8.3 10.8 7.9 L11.85 7.75 16.75 7.45 M22.0 12.95 L21.8 12.95 21.55 12.95 M22.35 12.6 L22.0 12.95 M6.9 18.3 L7.35 18.75 M6.15 17.35 L6.9 18.3 M4.4 16.25 L4.5 15.75 M10.3 20.0 L12.0 19.85 M13.65 15.75 L13.7 15.6 13.75 15.5 13.85 15.25 13.9 15.15 14.05 14.95 14.2 14.9 15.5 14.55 17.1 14.3 M13.65 15.75 Q13.05 17.2 13.05 18.7 L13.0 18.95 13.05 19.4 13.05 19.45 13.05 19.75 12.0 19.85" fill="none" stroke="#000000" stroke-linecap="round" stroke-linejoin="round" stroke-opacity="0.3019608" stroke-width="0.5"/>
      <path d="M20.3 5.55 L20.5 6.1 20.8 6.95 M19.9 5.0 L19.95 5.05 20.3 5.45 M4.5 15.75 L4.55 15.7 5.2 14.5 5.55 13.95 6.15 13.3 6.15 13.35 M16.75 7.45 L16.85 6.4 17.05 5.75 Q17.6 4.8 18.65 4.65 L19.35 4.7 19.9 5.0 M21.15 10.05 L21.2 9.7 21.05 8.45 20.85 7.6 20.8 7.05 20.8 6.95 M17.8 19.5 L18.25 20.05 18.3 20.1 20.0 20.35 20.9 20.05 20.95 20.05 21.35 19.3 21.75 15.85 21.65 13.8 21.55 12.95 21.15 10.05 M17.5 16.9 L17.5 17.3 17.6 18.1 17.75 19.4 M16.75 7.45 L16.75 7.65 16.85 9.05 17.05 10.1 M6.15 14.6 L6.15 13.35 M7.35 18.7 L7.65 17.55 8.25 16.25 Q8.45 16.05 8.8 16.1 L8.95 17.2 9.5 16.3 9.85 16.5 10.1 18.35 10.3 20.0 M6.15 17.35 L6.15 15.95 6.15 14.6 M5.1 17.4 L6.15 17.35 M4.7 17.4 L4.4 16.6 4.4 16.25 M9.1 20.7 L9.5 20.5 10.3 20.0 M7.25 19.45 L7.35 18.75 M9.1 20.7 Q7.85 20.55 7.2 20.1 L7.25 19.45 M17.1 14.3 L17.0 13.5 17.0 13.45 M17.1 14.3 L17.25 15.3 17.4 16.35 17.45 16.75" fill="none" stroke="#000000" stroke-linecap="round" stroke-linejoin="round" stroke-opacity="0.15294118" stroke-width="0.5"/>
      <path d="M20.3 5.45 L19.5 5.8 19.4 5.85 18.15 6.65 Q17.8 6.9 17.55 7.45 17.15 8.35 17.05 10.1 16.85 10.75 16.95 12.15 L16.95 12.35 16.95 12.85 17.0 13.45 M21.15 10.05 L20.9 11.75 M17.95 18.4 L17.75 19.4 M17.95 18.4 L18.5 16.45 Q18.95 15.35 19.7 14.4 L20.55 13.0 20.9 11.75" fill="none" stroke="#000000" stroke-linecap="round" stroke-linejoin="round" stroke-opacity="0.15294118" stroke-width="0.25"/>
      <path d="M23.85 11.05 L22.35 12.6 30.45 12.6 30.95 12.65 32.55 13.0 33.2 13.6 34.9 14.0 36.75 15.6 37.1 16.0 37.85 17.2 37.85 17.35 37.9 17.4 38.45 19.3 38.55 19.9 38.75 21.0 Q39.05 23.35 28.6 22.65 L20.05 22.9 9.65 23.75 7.0 23.4 Q6.15 23.0 5.2 21.85 L4.15 20.35 3.85 18.55 3.85 18.4 4.0 17.3 4.1 16.7 4.2 16.15 4.25 16.15 4.5 15.75 4.55 15.7 5.2 14.5 5.55 13.95 6.15 13.3 6.15 13.35 6.4 11.9 Q6.8 10.0 7.75 8.9 L7.8 8.85 Q8.9 8.3 10.8 7.9 L11.85 7.75 16.75 7.45 16.85 6.4 17.05 5.75 Q17.6 4.8 18.65 4.65 L19.35 4.7 19.9 5.0 Q20.85 3.05 20.85 1.95 L21.45 3.3 20.85 5.15 21.95 4.45 23.1 7.7 23.5 9.2 23.85 11.05 M37.05 16.75 L37.05 16.7 37.0 16.75 37.05 16.75" fill="#000000" fill-opacity="0.3019608" fill-rule="evenodd" stroke="none"/>
      <path d="M32.45 12.7 L33.05 13.15 32.05 15.1 32.45 12.7 M37.95 21.0 L37.15 20.75 36.15 16.35 37.95 21.0 M19.3 33.35 L19.25 35.6 18.0 36.0 19.3 33.35 M26.5 38.75 L26.35 38.1 30.05 39.7 26.5 38.75 M24.4 34.0 L24.4 33.9 24.45 34.0 24.4 34.0 M24.95 37.4 L24.1 38.5 24.75 35.65 24.95 37.4" fill="#2b1c0f" fill-rule="evenodd" stroke="none"/>
      <path d="M33.05 13.15 L34.15 13.0 32.05 15.1 33.05 13.15" fill="#c78747" fill-rule="evenodd" stroke="none"/>
      <path d="M34.9 13.25 L35.35 13.45 36.5 14.1 Q34.0 14.45 32.2 16.65 34.05 17.8 35.35 19.3 L36.85 21.3 36.25 22.1 36.2 22.2 34.6 20.2 33.85 20.4 33.35 20.5 33.5 20.15 33.7 19.25 32.85 18.3 31.95 17.3 31.2 16.65 30.85 16.3 Q35.15 14.7 34.9 13.25 M33.3 34.25 L33.3 34.0 33.3 33.1 Q34.0 32.25 34.8 32.45 L34.3 34.85 33.8 36.35 32.9 37.35 32.85 36.9 32.7 35.65 32.7 35.6 32.95 35.35 33.35 34.7 33.3 34.25 M19.25 35.6 L20.45 36.15 20.45 36.2 18.0 36.05 17.8 36.0 18.0 36.0 19.25 35.6 M26.45 37.45 L24.1 38.5 24.95 37.4 26.45 37.45" fill="#452e18" fill-rule="evenodd" stroke="none"/>
      <path d="M25.5 19.35 Q25.75 19.15 26.15 19.05 L27.55 18.8 Q29.3 17.4 31.95 17.3 L32.85 18.3 Q30.8 17.35 28.35 18.8 L28.5 18.8 29.4 18.85 30.95 19.15 Q32.5 19.65 33.25 20.05 L33.5 20.15 33.35 20.5 33.85 20.4 34.8 21.15 34.95 21.3 35.45 21.7 37.05 24.1 37.05 24.15 36.0 25.1 35.95 25.05 35.55 24.05 35.4 23.75 34.6 22.25 33.1 20.8 31.6 19.95 30.35 19.4 28.25 19.05 27.35 19.05 25.5 19.35 M22.8 24.15 Q23.55 23.65 24.65 23.25 L26.2 22.8 28.1 22.75 29.7 23.15 Q30.15 23.3 30.55 23.6 31.8 24.4 32.55 25.65 L33.6 27.95 33.9 29.3 33.35 30.35 33.3 31.5 Q32.65 30.6 30.9 31.05 L29.95 31.25 28.9 31.3 28.8 31.3 27.65 31.3 27.5 31.25 23.05 30.7 23.05 30.65 24.6 30.85 25.35 30.9 25.4 30.9 26.0 30.9 27.4 30.95 29.15 30.8 29.75 30.65 30.25 30.55 Q31.7 30.15 32.25 29.2 L32.4 28.75 32.55 28.2 32.4 27.8 32.2 27.2 Q30.9 24.0 27.95 23.5 L25.25 23.55 Q23.95 23.7 22.8 24.2 L22.8 24.15" fill="#194743" fill-rule="evenodd" stroke="none"/>
      <path d="M22.7 24.25 L22.8 24.15 22.8 24.2 22.7 24.25 M33.5 20.15 L33.25 20.05 Q32.5 19.65 30.95 19.15 L29.4 18.85 28.5 18.8 28.35 18.8 Q30.8 17.35 32.85 18.3 L33.7 19.25 33.5 20.15 M37.05 24.15 L37.05 24.1 35.45 21.7 34.95 21.3 34.8 21.15 33.85 20.4 34.6 20.2 36.2 22.2 37.35 23.85 37.05 24.15" fill="#215c5a" fill-rule="evenodd" stroke="none"/>
      <path d="M36.7 28.7 L36.7 28.75 36.65 28.75 36.7 28.7 M36.7 29.15 L36.6 30.2 35.25 30.25 35.25 30.2 Q35.2 28.4 34.05 26.85 L33.9 26.65 34.25 26.7 Q35.3 27.0 36.0 27.9 L36.7 29.15 M24.1 22.5 L22.65 24.2 22.6 24.25 22.5 24.35 22.45 24.45 22.5 24.35 22.55 24.4 22.45 24.45 22.05 24.75 21.45 25.15 21.5 25.1 22.35 23.85 Q23.05 23.0 24.1 22.5" fill="#ccb165" fill-rule="evenodd" stroke="none"/>
      <path d="M18.8 31.05 L19.1 28.15 Q19.2 28.75 19.6 29.3 L19.6 30.55 20.5 30.0 20.55 30.0 20.6 30.05 22.55 30.6 23.05 30.65 23.05 30.7 27.5 31.25 27.65 31.3 28.8 31.3 28.9 31.3 29.95 31.25 30.9 31.05 Q32.65 30.6 33.3 31.5 L33.3 32.55 33.3 33.1 33.3 34.0 33.3 34.25 32.55 33.55 31.9 32.9 31.85 32.75 30.35 33.1 30.3 33.2 Q30.0 34.4 30.0 35.65 29.25 32.15 25.05 31.55 20.95 31.0 19.8 33.75 L19.3 32.0 18.9 31.05 18.8 31.05" fill="#1d524f" fill-rule="evenodd" stroke="none"/>
      <path d="M17.7 32.6 L17.8 32.45 18.3 31.75 18.8 31.05 18.9 31.05 19.3 32.0 18.85 32.65 18.6 33.0 Q16.95 34.25 17.7 32.6 M30.3 33.2 L30.35 33.1 31.85 32.75 31.9 32.9 32.2 33.7 Q32.0 36.35 30.4 34.15 L30.3 33.2 M24.4 33.9 L24.4 34.0 24.3 34.9 24.25 35.25 Q22.55 36.95 22.3 34.85 L22.75 33.75 Q23.25 33.25 24.4 33.9" fill="#80592e" fill-rule="evenodd" stroke="none"/>
      <path d="M17.8 34.1 L17.8 35.4 Q17.4 33.85 17.05 34.65 L17.0 33.75 17.15 34.05 17.8 34.1 M21.85 37.55 L21.85 36.75 21.9 36.25 23.3 36.6 23.95 37.55 24.05 37.95 Q22.5 36.25 21.85 37.55 M32.7 35.65 L32.85 36.9 Q32.3 35.75 30.6 38.0 L30.6 37.65 Q30.85 36.7 31.55 36.2 L32.7 35.65" fill="#4f331a" fill-rule="evenodd" stroke="none"/>
      <path d="M17.0 33.75 L17.7 32.6 Q16.95 34.25 18.6 33.0 L17.8 34.1 17.15 34.05 17.0 33.75 M31.55 36.2 Q30.7 35.65 30.5 34.65 L30.4 34.15 Q32.0 36.35 32.2 33.7 L32.7 35.6 32.7 35.65 31.55 36.2 M22.3 34.85 Q22.55 36.95 24.25 35.25 L24.2 35.65 Q23.85 36.4 23.3 36.6 L21.9 36.25 22.3 34.85" fill="#8c6132" fill-rule="evenodd" stroke="none"/>
      <path d="M36.5 14.1 Q37.6 15.05 38.05 16.5 38.2 17.9 37.8 19.25 L36.15 16.35 37.15 20.75 36.85 21.3 35.35 19.3 Q34.05 17.8 32.2 16.65 34.0 14.45 36.5 14.1 M17.1 36.95 L17.4 36.7 20.35 39.25 20.4 39.3 Q18.75 38.7 17.6 37.85 L17.1 36.95 M16.7 35.15 L16.85 33.75 17.7 32.6 17.0 33.75 17.05 34.65 17.05 35.25 17.8 36.0 18.0 36.05 20.45 36.2 21.85 36.75 21.85 37.55 21.85 37.85 21.9 38.1 24.1 38.5 26.45 37.45 27.5 37.35 30.05 37.1 Q30.15 37.7 30.6 38.3 32.25 38.25 32.9 37.4 L32.9 37.35 33.8 36.35 33.15 37.5 32.85 37.75 Q31.9 38.5 29.2 38.7 L26.35 38.1 26.5 38.75 25.4 38.75 23.85 38.6 21.85 38.2 Q20.7 37.85 19.6 37.25 L17.9 36.2 17.05 35.5 16.7 35.15" fill="#5e4022" fill-rule="evenodd" stroke="none"/>
      <path d="M19.1 28.15 Q19.45 27.15 20.2 26.35 L20.9 25.65 Q22.0 31.6 32.2 27.2 L32.4 27.8 32.55 28.2 32.4 28.75 32.25 29.2 Q31.7 30.15 30.25 30.55 L29.75 30.65 29.15 30.8 27.4 30.95 26.0 30.9 25.4 30.9 25.35 30.9 24.6 30.85 23.05 30.65 22.55 30.6 20.6 30.05 20.55 30.0 21.0 28.95 19.6 29.3 Q19.2 28.75 19.1 28.15" fill="#3aa19f" fill-rule="evenodd" stroke="none"/>
      <path d="M19.6 30.55 Q19.7 30.05 20.05 29.7 L21.0 28.95 20.55 30.0 20.5 30.0 19.6 30.55" fill="#44bdba" fill-rule="evenodd" stroke="none"/>
      <path d="M21.0 28.95 L20.05 29.7 Q19.7 30.05 19.6 30.55 L19.6 29.3 21.0 28.95" fill="#113330" fill-rule="evenodd" stroke="none"/>
      <path d="M19.3 32.0 L19.8 33.75 19.85 33.9 20.45 36.15 19.25 35.6 19.3 33.35 19.3 32.0 M31.9 32.9 L32.55 33.55 33.3 34.25 33.35 34.7 32.95 35.35 32.7 35.6 32.2 33.7 31.9 32.9 M24.45 34.0 L24.4 33.9 24.95 34.8 25.45 35.7 26.45 37.45 24.95 37.4 24.75 35.65 24.45 34.0" fill="#123331" fill-rule="evenodd" stroke="none"/>
      <path d="M17.8 35.4 L17.8 36.0 17.05 35.25 17.05 34.65 Q17.4 33.85 17.8 35.4 M32.9 37.35 L32.9 37.4 Q32.25 38.25 30.6 38.3 L30.6 38.0 Q32.3 35.75 32.85 36.9 L32.9 37.35 M24.1 38.5 L21.9 38.1 21.85 37.85 21.85 37.55 Q22.5 36.25 24.05 37.95 L24.1 38.5" fill="#573a1e" fill-rule="evenodd" stroke="none"/>
      <path d="M17.4 36.7 L16.7 35.95 16.7 35.15 17.05 35.5 17.9 36.2 19.6 37.25 Q20.7 37.85 21.85 38.2 L23.85 38.6 25.4 38.75 26.5 38.75 30.05 39.7 29.2 38.7 Q31.9 38.5 32.85 37.75 L33.15 37.5 33.35 39.7 32.75 39.9 Q26.65 41.0 21.4 39.65 L20.35 39.25 17.4 36.7" fill="#26332e" fill-rule="evenodd" stroke="none"/>
      <path d="M37.8 19.25 L37.95 21.0 36.15 16.35 37.8 19.25 M26.35 38.1 L29.2 38.7 30.05 39.7 26.35 38.1 M30.5 34.65 Q30.7 35.65 31.55 36.2 30.85 36.7 30.6 37.65 L30.5 34.65 M23.3 36.6 Q23.85 36.4 24.2 35.65 23.85 36.55 23.95 37.55 L23.3 36.6" fill="#9c6c38" fill-rule="evenodd" stroke="none"/>
      <path d="M38.05 16.5 Q39.25 21.05 38.05 23.25 37.15 24.8 36.45 26.7 L36.3 26.25 36.0 25.1 37.05 24.15 37.35 23.85 36.2 22.2 36.25 22.1 36.85 21.3 37.15 20.75 37.95 21.0 37.8 19.25 Q38.2 17.9 38.05 16.5 M33.4 40.55 Q27.05 42.2 21.05 40.55 18.55 39.95 16.95 38.4 L16.9 38.05 17.6 37.85 Q18.75 38.7 20.4 39.3 L20.35 39.25 21.4 39.65 Q26.65 41.0 32.75 39.9 L33.35 39.7 33.4 40.55" fill="#212c28" fill-rule="evenodd" stroke="none"/>
      <path d="M16.9 38.05 L17.1 36.95 17.6 37.85 16.9 38.05" fill="#33453e" fill-rule="evenodd" stroke="none"/>
      <path d="M36.7 28.75 L36.7 29.15 36.0 27.9 Q35.3 27.0 34.25 26.7 L33.9 26.65 34.05 26.85 Q35.2 28.4 35.25 30.2 L35.25 30.25 36.6 30.2 36.6 30.35 36.5 30.8 36.3 31.25 35.9 31.75 35.55 31.95 34.8 32.0 34.75 31.95 34.3 31.3 34.05 29.9 33.9 29.3 33.6 27.95 32.55 25.65 Q31.8 24.4 30.55 23.6 30.15 23.3 29.7 23.15 L32.05 24.0 34.1 25.1 35.25 25.8 36.25 27.15 36.65 28.75 36.7 28.75" fill="#b59c64" fill-rule="evenodd" stroke="none"/>
      <path d="M33.3 31.5 L33.35 30.35 33.9 29.3 34.05 29.9 34.3 31.3 34.75 31.95 34.75 32.0 34.8 32.1 34.8 32.45 Q34.0 32.25 33.3 33.1 L33.3 32.55 33.3 31.5" fill="#362312" fill-rule="evenodd" stroke="none"/>
      <path d="M35.9 31.75 L35.8 32.95 Q35.4 36.7 34.0 39.95 L33.4 40.55 33.35 39.7 Q34.9 37.2 35.55 31.95 L35.9 31.75 M34.75 31.95 L34.8 32.0 34.75 32.0 34.75 31.95" fill="#111714" fill-rule="evenodd" stroke="none"/>
      <path d="M33.15 37.5 L33.8 36.35 34.3 34.85 34.8 32.45 34.8 32.1 34.75 32.0 34.8 32.0 35.55 31.95 Q34.9 37.2 33.35 39.7 L33.15 37.5" fill="#18211c" fill-rule="evenodd" stroke="none"/>
      <path d="M30.0 35.65 Q30.0 34.4 30.3 33.2 L30.4 34.15 30.5 34.65 30.6 37.65 30.6 38.0 30.6 38.3 Q30.15 37.7 30.05 37.1 L30.0 36.85 30.0 35.65" fill="#664222" fill-rule="evenodd" stroke="none"/>
      <path d="M18.6 33.0 L18.85 32.65 19.3 32.0 19.3 33.35 18.0 36.0 17.8 36.0 17.8 35.4 17.8 34.1 18.6 33.0 M24.4 34.0 L24.45 34.0 24.75 35.65 24.1 38.5 24.05 37.95 23.95 37.55 Q23.85 36.55 24.2 35.65 L24.25 35.25 24.3 34.9 24.4 34.0" fill="#1c1209" fill-rule="evenodd" stroke="none"/>
      <path d="M20.95 22.0 L20.7 21.7 Q22.15 20.05 23.95 18.55 L24.75 19.05 24.45 18.15 25.15 17.6 29.35 14.95 30.85 16.3 31.2 16.65 31.95 17.3 Q29.3 17.4 27.55 18.8 L26.15 19.05 Q25.75 19.15 25.5 19.35 L25.0 19.45 Q23.85 19.75 22.8 20.6 L22.2 20.95 20.95 22.0" fill="url(#gradient8)" fill-rule="evenodd" stroke="none"/>
      <path d="M25.15 17.6 Q26.2 12.45 32.45 12.7 L32.05 15.1 34.15 13.0 34.9 13.25 Q35.15 14.7 30.85 16.3 L29.35 14.95 25.15 17.6" fill="url(#gradient9)" fill-rule="evenodd" stroke="none"/>
      <path d="M20.45 26.05 L19.75 26.8 19.75 26.65 19.9 24.15 Q20.05 22.85 20.85 22.05 L20.95 22.0 22.2 20.95 22.8 20.6 21.2 22.4 Q20.35 23.95 20.45 26.05" fill="url(#gradient10)" fill-rule="evenodd" stroke="none"/>
      <path d="M21.25 25.3 L20.85 25.65 20.45 26.05 Q20.35 23.95 21.2 22.4 L22.8 20.6 Q23.85 19.75 25.0 19.45 L25.5 19.35 27.35 19.05 28.25 19.05 30.35 19.4 31.6 19.95 27.95 19.8 Q26.95 20.05 26.05 20.75 L24.1 22.5 Q23.05 23.0 22.35 23.85 L21.5 25.1 21.45 25.15 21.25 25.3" fill="url(#gradient11)" fill-rule="evenodd" stroke="none"/>
      <path d="M36.45 26.7 L36.7 28.25 36.7 28.7 36.65 28.75 36.25 27.15 35.25 25.8 34.1 25.1 32.05 24.0 29.7 23.15 28.1 22.75 26.2 22.8 24.65 23.25 Q23.55 23.65 22.8 24.15 L22.7 24.25 22.55 24.4 22.5 24.35 22.6 24.25 22.65 24.2 24.1 22.5 26.05 20.75 Q26.95 20.05 27.95 19.8 L31.6 19.95 29.65 19.85 Q27.4 20.1 26.45 21.8 L26.85 21.75 26.9 21.75 26.9 21.8 Q29.55 22.05 31.05 23.15 33.85 24.8 35.05 24.1 L35.4 23.75 35.55 24.05 35.95 25.05 36.0 25.1 36.3 26.25 36.45 26.7" fill="url(#gradient12)" fill-rule="evenodd" stroke="none"/>
      <path d="M20.9 25.65 L21.25 25.3 21.45 25.15 22.05 24.75 22.45 24.45 22.55 24.4 22.7 24.25 22.8 24.2 Q23.95 23.7 25.25 23.55 L27.95 23.5 Q30.9 24.0 32.2 27.2 22.0 31.6 20.9 25.65" fill="url(#gradient13)" fill-rule="evenodd" stroke="none"/>
      <path d="M31.6 19.95 L33.1 20.8 34.6 22.25 35.4 23.75 35.05 24.1 Q33.85 24.8 31.05 23.15 29.55 22.05 26.9 21.8 L26.9 21.75 26.85 21.75 26.45 21.8 Q27.4 20.1 29.65 19.85 L31.6 19.95" fill="url(#gradient14)" fill-rule="evenodd" stroke="none"/>
      <path d="M19.8 33.75 Q20.95 31.0 25.05 31.55 29.25 32.15 30.0 35.65 L30.0 36.85 30.05 37.1 27.5 37.35 26.45 37.45 25.45 35.7 24.95 34.8 24.4 33.9 Q23.25 33.25 22.75 33.75 L22.3 34.85 21.9 36.25 21.85 36.75 20.45 36.2 20.45 36.15 19.85 33.9 19.8 33.75" fill="url(#gradient15)" fill-rule="evenodd" stroke="none"/>
      <path d="M20.95 22.0 L20.7 21.7 Q22.15 20.05 23.95 18.55 L24.75 19.05 24.45 18.15 25.15 17.6 Q26.2 12.45 32.45 12.7 L33.05 13.15 34.15 13.0 34.9 13.25 35.35 13.45 36.5 14.1 Q37.6 15.05 38.05 16.5 39.25 21.05 38.05 23.25 37.15 24.8 36.45 26.7 L36.7 28.25 36.7 28.7 M36.7 28.75 L36.7 29.15 36.6 30.2 36.6 30.35 36.5 30.8 36.3 31.25 35.9 31.75 35.8 32.95 Q35.4 36.7 34.0 39.95 L33.4 40.55 Q27.05 42.2 21.05 40.55 18.55 39.95 16.95 38.4 L16.9 38.05 17.1 36.95 17.4 36.7 16.7 35.95 16.7 35.15 16.85 33.75 17.7 32.6 17.8 32.45 18.3 31.75 18.8 31.05 19.1 28.15 Q19.45 27.15 20.2 26.35 L20.9 25.65 M20.45 26.05 L19.75 26.8 19.75 26.65 19.9 24.15 Q20.05 22.85 20.85 22.05 L20.95 22.0 M31.95 17.3 L31.2 16.65 30.85 16.3 29.35 14.95 25.15 17.6 M33.3 31.5 L33.35 30.35 33.9 29.3 M32.85 18.3 L31.95 17.3 M36.0 25.1 L37.05 24.15 M33.85 20.4 L33.35 20.5 33.5 20.15 33.7 19.25 32.85 18.3 M36.2 22.2 L34.6 20.2 33.85 20.4 M36.2 22.2 L37.35 23.85 37.05 24.15 M33.3 34.25 L33.3 34.0 33.3 33.1 33.3 32.55 33.3 31.5 M19.25 35.6 L20.45 36.15 M20.45 36.2 L20.45 36.15 M30.05 37.1 L27.5 37.35 26.45 37.45 24.95 37.4 M21.85 36.75 L20.45 36.2 M36.65 28.75 L36.7 28.75 M32.7 35.6 L32.95 35.35 33.35 34.7 33.3 34.25" fill="none" stroke="#000000" stroke-linecap="round" stroke-linejoin="round" stroke-opacity="0.3019608" stroke-width="0.5"/>
      <path d="M20.9 25.65 L21.25 25.3 M20.95 22.0 L22.2 20.95 22.8 20.6 Q23.85 19.75 25.0 19.45 L25.5 19.35 27.35 19.05 28.25 19.05 30.35 19.4 31.6 19.95 33.1 20.8 34.6 22.25 35.4 23.75 35.55 24.05 35.95 25.05 36.0 25.1 36.3 26.25 36.45 26.7 M21.45 25.15 L22.05 24.75 22.45 24.45 22.5 24.35 M22.55 24.4 L22.7 24.25 M22.8 24.15 Q23.55 23.65 24.65 23.25 L26.2 22.8 28.1 22.75 29.7 23.15 M22.45 24.45 L22.55 24.4 M33.9 29.3 L33.6 27.95 32.55 25.65 Q31.8 24.4 30.55 23.6 30.15 23.3 29.7 23.15 M22.8 24.2 L22.7 24.25 M18.8 31.05 L18.9 31.05 19.3 32.0 19.3 33.35 19.25 35.6 18.0 36.0 M30.0 35.65 Q30.0 34.4 30.3 33.2 L30.35 33.1 31.85 32.75 31.9 32.9 M17.0 33.75 L17.7 32.6 M17.8 36.0 L18.0 36.0 M17.05 34.65 L17.05 35.25 17.8 36.0 M32.9 37.35 L32.9 37.4 Q32.25 38.25 30.6 38.3 30.15 37.7 30.05 37.1 L30.0 36.85 30.0 35.65 M24.1 38.5 L21.9 38.1 21.85 37.85 21.85 37.55 21.85 36.75 21.9 36.25 22.3 34.85 M17.0 33.75 L17.05 34.65 M33.9 29.3 L34.05 29.9 34.3 31.3 34.75 31.95 34.8 32.0 35.55 31.95 35.9 31.75 M32.2 33.7 L31.9 32.9 M32.7 35.65 L32.85 36.9 32.9 37.35 M32.7 35.6 L32.2 33.7 M21.45 25.15 L21.25 25.3 M24.45 34.0 L24.4 33.9 Q23.25 33.25 22.75 33.75 L22.3 34.85 M24.75 35.65 L24.45 34.0 M24.95 37.4 L24.1 38.5 M24.95 37.4 L24.75 35.65" fill="none" stroke="#000000" stroke-linecap="round" stroke-linejoin="round" stroke-opacity="0.15294118" stroke-width="0.5"/>
      <path d="M22.5 24.35 L22.6 24.25 22.65 24.2 24.1 22.5 M29.7 23.15 L32.05 24.0 34.1 25.1 35.25 25.8 36.25 27.15 36.65 28.75 M22.8 20.6 L21.2 22.4 Q20.35 23.95 20.45 26.05 M31.6 19.95 L27.95 19.8 Q26.95 20.05 26.05 20.75 L24.1 22.5" fill="none" stroke="#000000" stroke-linecap="round" stroke-linejoin="round" stroke-opacity="0.15294118" stroke-width="0.25"/>
    </g>
    <linearGradient gradientTransform="matrix(-4.0E-4, 0.0023, -0.0093, -0.0015, 29.35, 15.45)" gradientUnits="userSpaceOnUse" id="gradient1" spreadMethod="pad" x1="-819.2" x2="819.2">
      <stop offset="0.0" stop-color="#7d552d"/>
      <stop offset="1.0" stop-color="#a6713b"/>
    </linearGradient>
    <linearGradient gradientTransform="matrix(3.0E-4, 0.001, -0.0014, 4.0E-4, 21.35, 5.65)" gradientUnits="userSpaceOnUse" id="gradient2" spreadMethod="pad" x1="-819.2" x2="819.2">
      <stop offset="0.0" stop-color="#349291"/>
      <stop offset="1.0" stop-color="#3fb0ad"/>
    </linearGradient>
    <linearGradient gradientTransform="matrix(-0.002, 0.0034, -0.0018, -0.0011, 18.8, 11.5)" gradientUnits="userSpaceOnUse" id="gradient3" spreadMethod="pad" x1="-819.2" x2="819.2">
      <stop offset="0.0" stop-color="#ccb165"/>
      <stop offset="1.0" stop-color="#857242"/>
    </linearGradient>
    <linearGradient gradientTransform="matrix(-0.0013, -0.0013, 0.0024, -0.0024, 16.6, 5.65)" gradientUnits="userSpaceOnUse" id="gradient4" spreadMethod="pad" x1="-819.2" x2="819.2">
      <stop offset="0.0" stop-color="#ebe39a"/>
      <stop offset="1.0" stop-color="#fff9c7"/>
    </linearGradient>
    <linearGradient gradientTransform="matrix(-3.0E-4, -0.0021, 0.0026, -4.0E-4, 18.6, 8.9)" gradientUnits="userSpaceOnUse" id="gradient5" spreadMethod="pad" x1="-819.2" x2="819.2">
      <stop offset="0.0" stop-color="#ebe39a"/>
      <stop offset="1.0" stop-color="#fff9c7"/>
    </linearGradient>
    <linearGradient gradientTransform="matrix(9.0E-4, -0.0023, 0.0046, 0.0017, 13.85, 8.95)" gradientUnits="userSpaceOnUse" id="gradient6" spreadMethod="pad" x1="-819.2" x2="819.2">
      <stop offset="0.0" stop-color="#349291"/>
      <stop offset="1.0" stop-color="#42b8b5"/>
    </linearGradient>
    <linearGradient gradientTransform="matrix(6.0E-4, -0.0022, 0.0038, 0.001, 9.05, 14.4)" gradientUnits="userSpaceOnUse" id="gradient7" spreadMethod="pad" x1="-819.2" x2="819.2">
      <stop offset="0.0" stop-color="#215c5a"/>
      <stop offset="1.0" stop-color="#2f8581"/>
    </linearGradient>
    <linearGradient gradientTransform="matrix(0.0024, -0.0014, 0.001, 0.0018, 28.45, 17.35)" gradientUnits="userSpaceOnUse" id="gradient8" spreadMethod="pad" x1="-819.2" x2="819.2">
      <stop offset="0.0" stop-color="#349291"/>
      <stop offset="1.0" stop-color="#3fb0ad"/>
    </linearGradient>
    <linearGradient gradientTransform="matrix(0.0031, 0.0, 0.0, 0.003, 31.5, 15.2)" gradientUnits="userSpaceOnUse" id="gradient9" spreadMethod="pad" x1="-819.2" x2="819.2">
      <stop offset="0.0" stop-color="#7d552d"/>
      <stop offset="1.0" stop-color="#a6713b"/>
    </linearGradient>
    <linearGradient gradientTransform="matrix(-7.0E-4, 0.0011, -9.0E-4, -5.0E-4, 20.7, 23.9)" gradientUnits="userSpaceOnUse" id="gradient10" spreadMethod="pad" x1="-819.2" x2="819.2">
      <stop offset="0.0" stop-color="#ebe39a"/>
      <stop offset="1.0" stop-color="#fff9c7"/>
    </linearGradient>
    <linearGradient gradientTransform="matrix(-0.0028, 0.0016, -0.0012, -0.002, 23.15, 22.55)" gradientUnits="userSpaceOnUse" id="gradient11" spreadMethod="pad" x1="-819.2" x2="819.2">
      <stop offset="0.0" stop-color="#ebe39a"/>
      <stop offset="1.0" stop-color="#fff9c7"/>
    </linearGradient>
    <linearGradient gradientTransform="matrix(0.0044, 0.0012, -0.0011, 0.0042, 31.95, 23.7)" gradientUnits="userSpaceOnUse" id="gradient12" spreadMethod="pad" x1="-819.2" x2="819.2">
      <stop offset="0.0" stop-color="#ccb165"/>
      <stop offset="1.0" stop-color="#857242"/>
    </linearGradient>
    <linearGradient gradientTransform="matrix(0.0021, -0.0036, 0.0056, 0.0032, 27.4, 24.9)" gradientUnits="userSpaceOnUse" id="gradient13" spreadMethod="pad" x1="-819.2" x2="819.2">
      <stop offset="0.0" stop-color="#349291"/>
      <stop offset="1.0" stop-color="#42b8b5"/>
    </linearGradient>
    <linearGradient gradientTransform="matrix(-0.001, -3.0E-4, 6.0E-4, -0.0021, 29.85, 21.35)" gradientUnits="userSpaceOnUse" id="gradient14" spreadMethod="pad" x1="-819.2" x2="819.2">
      <stop offset="0.0" stop-color="#ebe39a"/>
      <stop offset="1.0" stop-color="#fff9c7"/>
    </linearGradient>
    <linearGradient gradientTransform="matrix(3.0E-4, -0.0055, 0.0063, 4.0E-4, 25.15, 31.7)" gradientUnits="userSpaceOnUse" id="gradient15" spreadMethod="pad" x1="-819.2" x2="819.2">
      <stop offset="0.0" stop-color="#215c5a"/>
      <stop offset="1.0" stop-color="#2f8581"/>
    </linearGradient>
  </defs>
</svg>
