<?xml version="1.0" encoding="UTF-8" standalone="no"?>
<svg xmlns:xlink="http://www.w3.org/1999/xlink" height="440.0px" width="440.0px" xmlns="http://www.w3.org/2000/svg">
  <g transform="matrix(10.0, 0.0, 0.0, 10.0, 0.0, 0.0)">
    <use height="44.0" transform="matrix(1.0, 0.0, 0.0, 1.0, 0.0, 0.0)" width="44.0" xlink:href="#shape0"/>
    <use height="82.7" transform="matrix(0.3318, -0.0059, 0.0099, 0.1689, 12.1, 29.3)" width="82.7" xlink:href="#sprite0"/>
    <use height="38.85" transform="matrix(1.0, 0.0, 0.0, 1.0, 3.85, 2.9)" width="34.8" xlink:href="#shape2"/>
    <use height="34.8" transform="matrix(0.2721, 0.3877, 0.305, -0.2141, 15.25, 8.5)" width="34.8" xlink:href="#sprite1"/>
  </g>
  <defs>
    <g id="shape0" transform="matrix(1.0, 0.0, 0.0, 1.0, 0.0, 0.0)">
      <path d="M44.0 44.0 L0.0 44.0 0.0 0.0 44.0 0.0 44.0 44.0" fill="#33cc33" fill-opacity="0.0" fill-rule="evenodd" stroke="none"/>
    </g>
    <g id="sprite0" transform="matrix(1.0, 0.0, 0.0, 1.0, 0.0, 0.0)">
      <use height="82.7" transform="matrix(1.0, 0.0, 0.0, 1.0, 0.0, 0.0)" width="82.7" xlink:href="#shape1"/>
    </g>
    <g id="shape1" transform="matrix(1.0, 0.0, 0.0, 1.0, 0.0, 0.0)">
      <path d="M70.6 12.1 Q82.7 24.2 82.7 41.35 82.7 58.5 70.6 70.6 58.5 82.7 41.35 82.7 24.2 82.7 12.1 70.6 0.0 58.5 0.0 41.35 0.0 24.2 12.1 12.1 24.2 0.0 41.35 0.0 58.5 0.0 70.6 12.1" fill="url(#gradient0)" fill-rule="evenodd" stroke="none"/>
    </g>
    <radialGradient cx="0" cy="0" gradientTransform="matrix(0.0508, 0.0, 0.0, 0.0508, 41.35, 41.35)" gradientUnits="userSpaceOnUse" id="gradient0" r="819.2" spreadMethod="pad">
      <stop offset="0.0" stop-color="#000000" stop-opacity="0.3019608"/>
      <stop offset="1.0" stop-color="#000000" stop-opacity="0.0"/>
    </radialGradient>
    <g id="shape2" transform="matrix(1.0, 0.0, 0.0, 1.0, -3.85, -2.9)">
      <path d="M29.05 25.5 L29.1 25.5 29.05 25.55 29.0 25.55 29.05 25.5" fill="#666666" fill-rule="evenodd" stroke="none"/>
      <path d="M23.95 8.5 Q23.25 6.05 23.55 5.85 L23.7 5.4 Q24.45 5.8 25.0 4.65 26.05 3.8 26.95 4.25 L27.2 4.6 Q27.6 5.7 26.25 5.85 27.05 5.3 26.6 4.65 25.35 4.55 25.55 5.6 L25.8 6.15 25.6 6.0 Q25.05 6.2 25.15 6.75 25.25 7.15 24.95 7.5 L24.65 7.85 23.95 8.5 M26.75 16.6 L26.8 17.35 25.65 18.0 25.25 14.55 Q25.0 15.2 23.4 15.3 L23.6 18.85 22.55 19.05 22.6 18.25 22.95 18.2 22.7 14.65 Q24.75 14.45 25.7 13.5 L26.0 16.95 Q26.55 16.95 26.75 16.6 M18.75 35.1 L18.75 34.4 15.75 35.65 Q15.7 34.5 14.95 33.15 L17.65 31.35 17.1 30.55 17.6 30.25 Q18.35 30.8 18.45 31.7 L15.85 33.25 Q16.35 33.95 16.4 35.0 L19.35 33.6 19.35 34.75 18.75 35.1" fill="#664b27" fill-rule="evenodd" stroke="none"/>
      <path d="M26.25 5.85 L25.55 5.6 Q25.35 4.55 26.6 4.65 27.05 5.3 26.25 5.85" fill="#4d381d" fill-rule="evenodd" stroke="none"/>
      <path d="M19.25 8.55 Q20.9 8.65 21.85 7.6 22.3 6.85 22.9 6.65 23.55 6.05 23.2 5.9 L23.55 5.85 Q23.25 6.05 23.95 8.5 L23.75 8.65 Q22.25 9.95 20.95 9.65 L19.25 8.55 M25.8 6.15 Q26.45 6.85 25.8 7.95 26.65 11.95 26.75 16.6 26.55 16.95 26.0 16.95 L25.7 13.5 Q24.75 14.45 22.7 14.65 L22.6 14.65 22.25 10.2 Q26.0 7.65 24.65 7.85 L24.95 7.5 Q25.25 7.15 25.15 6.75 25.05 6.2 25.6 6.0 L25.8 6.15 M24.65 9.3 L25.8 7.95 24.65 9.3 M4.7 34.25 Q4.45 33.7 5.65 33.3 7.35 33.65 10.2 33.25 L11.35 33.1 Q14.85 31.95 17.1 30.55 L17.65 31.35 14.95 33.15 Q15.7 34.5 15.75 35.65 L18.75 34.4 18.75 35.1 Q16.1 36.4 13.15 37.0 L11.15 37.0 10.2 36.7 9.65 36.35 9.5 36.25 7.15 34.9 Q5.75 34.3 4.7 34.25" fill="#261212" fill-rule="evenodd" stroke="none"/>
      <path d="M26.95 4.25 Q26.05 3.8 25.0 4.65 24.45 5.8 23.7 5.4 23.75 4.45 25.0 3.85 26.35 3.75 26.95 4.25" fill="#876434" fill-rule="evenodd" stroke="none"/>
      <path d="M23.2 5.9 Q23.55 6.05 22.9 6.65 22.3 6.85 21.85 7.6 20.9 8.65 19.25 8.55 L18.6 8.0 Q20.35 8.3 21.4 7.05 22.15 6.15 23.2 5.9 M13.2 31.75 L12.05 31.35 Q13.6 30.6 14.1 29.7 L15.45 29.9 Q14.75 31.0 13.2 31.75" fill="#381b1c" fill-rule="evenodd" stroke="none"/>
      <path d="M22.6 14.65 L22.7 14.65 22.95 18.2 22.6 18.25 22.6 14.65" fill="#996633" fill-rule="evenodd" stroke="none"/>
      <path d="M26.3 29.1 L26.3 29.15 26.25 29.15 26.3 29.1 26.25 29.15 26.3 29.1 M26.25 29.2 L26.1 29.55 26.0 30.15 25.5 30.65 22.45 33.2 21.65 33.85 21.1 34.3 20.35 34.7 20.25 34.7 19.9 34.9 19.85 34.9 Q14.9 37.45 11.0 37.6 L10.2 37.5 8.8 37.15 Q7.2 36.65 6.15 35.85 L4.7 34.25 Q5.75 34.3 7.15 34.9 L9.5 36.25 9.65 36.35 10.2 36.7 11.15 37.0 13.15 37.0 Q16.1 36.4 18.75 35.1 L19.35 34.75 20.7 34.0 22.15 33.1 25.0 30.8 25.25 30.5 25.35 30.4 26.25 29.2 M23.3 29.7 Q24.15 29.65 23.75 30.45 L23.65 30.65 23.55 30.65 23.6 30.55 Q24.0 29.75 23.2 29.8 L23.3 29.7 M23.5 30.8 L23.45 31.0 23.1 31.35 23.3 31.05 23.35 30.8 23.5 30.8" fill="#2e1a16" fill-rule="evenodd" stroke="none"/>
      <path d="M13.35 28.95 L14.9 27.45 16.25 26.3 17.15 25.55 18.0 25.05 Q15.85 26.8 14.05 28.9 L13.35 28.95" fill="#522f28" fill-rule="evenodd" stroke="none"/>
      <path d="M26.55 25.85 L27.6 25.55 26.55 26.0 26.55 25.85" fill="#cccccc" fill-rule="evenodd" stroke="none"/>
      <path d="M6.15 35.85 L5.05 35.1 4.2 34.15 4.7 34.25 6.15 35.85" fill="#3d3731" fill-rule="evenodd" stroke="none"/>
      <path d="M23.55 30.65 L23.5 30.65 23.5 30.8 Q23.45 30.2 23.15 30.25 L23.35 30.8 23.3 31.05 23.1 31.35 22.95 31.35 22.8 31.25 22.65 31.05 Q22.7 30.25 23.2 29.8 24.0 29.75 23.6 30.55 L23.55 30.65" fill="#999999" fill-rule="evenodd" stroke="none"/>
      <path d="M23.35 30.8 L23.15 30.25 Q23.45 30.2 23.5 30.8 L23.35 30.8" fill="#333333" fill-rule="evenodd" stroke="none"/>
      <path d="M26.0 30.15 L25.8 30.85 25.7 31.05 25.0 33.15 23.6 33.95 21.65 35.1 21.65 33.85 22.45 33.2 25.5 30.65 26.0 30.15" fill="#211e1a" fill-rule="evenodd" stroke="none"/>
      <path d="M21.65 35.1 L20.95 35.05 19.9 34.9 20.25 34.7 20.35 34.7 21.1 34.3 21.65 33.85 21.65 35.1" fill="#1a1309" fill-rule="evenodd" stroke="none"/>
      <path d="M27.9 25.5 L27.65 25.45 28.4 25.1 27.85 24.75 28.55 24.7 28.35 24.0 28.75 24.35 28.9 23.55 29.25 24.1 29.45 23.3 29.5 24.05 29.9 23.3 29.7 24.3 30.25 23.7 29.8 24.6 30.25 24.45 29.7 25.05 30.15 25.25 29.5 25.5 29.85 25.9 29.25 25.85 29.4 26.65 29.0 26.05 28.9 27.15 28.7 26.2 28.3 27.35 28.45 26.6 28.6 26.35 28.7 26.2 28.85 25.95 29.15 25.75 Q29.65 25.5 29.3 24.8 L28.95 24.85 28.6 25.15 27.8 26.2 27.55 26.2 27.75 25.95 28.2 25.5 27.9 25.5" fill="url(#gradient1)" fill-rule="evenodd" stroke="none"/>
      <path d="M28.45 26.6 L28.3 26.8 28.1 27.0 26.5 28.9 26.4 29.0 26.3 29.1 26.25 29.15 26.15 29.25 25.3 29.9 25.0 30.15 Q24.75 30.25 24.55 30.5 L24.3 30.65 23.3 31.75 Q21.25 32.55 21.75 31.0 22.15 31.2 22.4 30.5 L22.55 30.1 Q22.8 29.55 23.5 29.15 L23.6 29.15 23.9 29.0 25.1 28.35 25.2 28.1 26.55 27.25 26.7 27.15 27.8 26.2 27.95 26.05 28.75 25.1 28.95 24.85 29.3 24.8 Q29.65 25.5 29.15 25.75 L28.85 25.85 28.85 25.95 28.7 26.2 28.6 26.35 28.45 26.6 M23.3 29.7 L23.5 29.15 23.3 29.7 23.2 29.8 Q22.7 30.25 22.65 31.05 L22.8 31.25 22.95 31.35 23.1 31.35 23.45 31.0 23.5 30.8 23.5 30.65 23.55 30.65 23.65 30.65 23.75 30.45 Q24.15 29.65 23.3 29.7 M29.05 25.5 L29.0 25.55 29.05 25.55 29.2 25.5 29.25 25.35 Q29.15 25.3 29.05 25.5 M28.85 25.85 L28.95 25.65 29.0 25.55 28.95 25.65 28.85 25.85" fill="url(#gradient2)" fill-rule="evenodd" stroke="none"/>
      <path d="M25.2 28.1 L25.1 28.35 23.9 29.0 23.6 29.15 23.5 29.15 Q22.8 29.55 22.55 30.1 L22.4 30.5 Q22.15 31.2 21.75 31.0 22.1 29.65 23.3 28.95 L24.0 28.6 24.95 28.25 25.2 28.1" fill="url(#gradient3)" fill-rule="evenodd" stroke="none"/>
      <path d="M27.6 25.55 L27.9 25.5 28.2 25.5 27.75 25.95 26.55 26.6 26.55 26.0 27.6 25.55" fill="url(#gradient4)" fill-rule="evenodd" stroke="none"/>
      <path d="M20.45 25.1 Q20.7 22.5 20.25 19.1 L22.55 19.05 22.25 21.9 Q21.75 24.3 20.8 25.45 L20.45 25.1" fill="url(#gradient5)" fill-rule="evenodd" stroke="none"/>
      <path d="M17.15 25.55 Q17.15 22.0 16.65 18.4 L17.8 19.05 Q18.35 22.25 18.0 25.05 L17.15 25.55" fill="url(#gradient6)" fill-rule="evenodd" stroke="none"/>
      <path d="M20.9 25.9 L20.45 27.2 19.5 28.6 17.6 30.25 Q17.05 29.8 16.1 29.55 18.15 26.85 20.45 25.1 L20.8 25.45 20.95 25.55 20.9 25.9" fill="url(#gradient7)" fill-rule="evenodd" stroke="none"/>
      <path d="M26.8 17.35 L26.55 23.55 26.45 24.4 26.55 25.85 26.55 26.0 26.55 26.6 26.55 27.2 26.55 27.25 25.2 28.1 24.95 28.25 24.0 28.6 23.3 28.95 Q22.1 29.65 21.75 31.0 21.25 32.55 23.3 31.75 L24.3 30.65 24.55 30.5 Q24.75 30.25 25.0 30.15 L25.3 29.9 26.15 29.25 26.25 29.15 26.25 29.2 25.35 30.4 25.25 30.5 25.0 30.8 22.15 33.1 20.7 34.0 19.35 34.75 19.35 33.6 16.4 35.0 Q16.35 33.95 15.85 33.25 L18.45 31.7 Q18.35 30.8 17.6 30.25 L19.5 28.6 20.45 27.2 20.9 25.9 20.95 25.55 20.8 25.45 Q21.75 24.3 22.25 21.9 L22.55 19.05 23.6 18.85 23.4 15.3 Q25.0 15.2 25.25 14.55 L25.65 18.0 26.8 17.35" fill="url(#gradient8)" fill-rule="evenodd" stroke="none"/>
      <path d="M19.25 8.55 L20.95 9.65 Q22.25 9.95 23.75 8.65 L23.95 8.5 24.65 7.85 Q26.0 7.65 22.25 10.2 L22.6 14.65 22.6 18.25 20.1 18.25 Q19.7 13.0 17.85 8.2 17.55 7.45 17.85 7.25 L18.05 7.5 18.6 8.0 19.25 8.55" fill="url(#gradient9)" fill-rule="evenodd" stroke="none"/>
      <path d="M16.5 17.75 Q15.55 10.8 13.5 6.75 14.25 7.0 15.0 8.4 17.1 12.6 17.65 18.1 L16.5 17.75" fill="url(#gradient10)" fill-rule="evenodd" stroke="none"/>
      <path d="M16.65 18.4 L16.5 17.75 17.65 18.1 Q17.1 12.6 15.0 8.4 14.25 7.0 13.5 6.75 L12.8 5.45 12.95 5.0 Q13.9 2.65 16.6 5.75 L17.85 7.25 Q17.55 7.45 17.85 8.2 19.7 13.0 20.1 18.25 L22.6 18.25 22.55 19.05 20.25 19.1 Q20.7 22.5 20.45 25.1 L18.0 25.05 Q18.35 22.25 17.8 19.05 L16.65 18.4" fill="url(#gradient11)" fill-rule="evenodd" stroke="none"/>
      <path d="M12.9 29.4 L13.35 28.95 14.05 28.9 Q15.85 26.8 18.0 25.05 L20.45 25.1 Q18.15 26.85 16.1 29.55 17.05 29.8 17.6 30.25 L17.1 30.55 16.05 30.1 Q15.1 31.55 13.1 32.2 L11.05 31.4 Q12.6 30.65 13.55 29.4 L12.9 29.4 M13.2 31.75 Q14.75 31.0 15.45 29.9 L14.1 29.7 Q13.6 30.6 12.05 31.35 L13.2 31.75" fill="url(#gradient12)" fill-rule="evenodd" stroke="none"/>
      <path d="M4.2 34.15 Q3.9 33.65 4.7 33.25 5.45 32.85 7.0 32.55 8.7 32.3 10.2 31.45 L12.25 30.05 12.9 29.4 13.55 29.4 Q12.6 30.65 11.05 31.4 L13.1 32.2 Q15.1 31.55 16.05 30.1 L17.1 30.55 Q14.85 31.95 11.35 33.1 L10.2 33.25 Q7.35 33.65 5.65 33.3 4.45 33.7 4.7 34.25 L4.2 34.15" fill="url(#gradient13)" fill-rule="evenodd" stroke="none"/>
      <path d="M23.5 29.15 L23.3 29.7 Q24.15 29.65 23.75 30.45 L23.65 30.65 23.55 30.65 23.5 30.65 23.5 30.8 23.45 31.0 23.1 31.35 22.95 31.35 22.8 31.25 22.65 31.05 Q22.7 30.25 23.2 29.8 L23.3 29.7 M23.5 30.8 Q23.45 30.2 23.15 30.25 L23.35 30.8" fill="none" stroke="#000000" stroke-linecap="round" stroke-linejoin="round" stroke-opacity="0.5019608" stroke-width="0.2"/>
      <path d="M23.55 5.85 L23.2 5.9 Q22.15 6.15 21.4 7.05 20.35 8.3 18.6 8.0 M23.7 5.4 L23.55 5.85 M26.25 5.85 L25.55 5.6 25.8 6.15 Q26.45 6.85 25.8 7.95 26.65 11.95 26.75 16.6 L26.8 17.35 26.55 23.55 26.45 24.4 26.55 25.85 27.6 25.55 27.9 25.5 27.65 25.45 28.4 25.1 27.85 24.75 28.55 24.7 28.35 24.0 28.75 24.35 28.9 23.55 29.25 24.1 29.45 23.3 29.5 24.05 29.9 23.3 29.7 24.3 30.25 23.7 29.8 24.6 30.25 24.45 29.7 25.05 30.15 25.25 29.5 25.5 29.85 25.9 29.25 25.85 29.4 26.65 29.0 26.05 28.9 27.15 28.7 26.2 28.3 27.35 28.45 26.6 28.3 26.8 28.1 27.0 26.5 28.9 26.4 29.0 26.3 29.1 26.3 29.15 M26.25 29.15 L26.25 29.2 26.1 29.55 26.0 30.15 25.8 30.85 25.7 31.05 25.0 33.15 23.6 33.95 21.65 35.1 20.95 35.05 19.9 34.9 19.85 34.9 Q14.9 37.45 11.0 37.6 L10.2 37.5 8.8 37.15 Q7.2 36.65 6.15 35.85 L5.05 35.1 4.2 34.15 Q3.9 33.65 4.7 33.25 5.45 32.85 7.0 32.55 8.7 32.3 10.2 31.45 L12.25 30.05 12.9 29.4 13.35 28.95 14.9 27.45 16.25 26.3 17.15 25.55 Q17.15 22.0 16.65 18.4 L16.5 17.75 Q15.55 10.8 13.5 6.75 L12.8 5.45 12.95 5.0 Q13.9 2.65 16.6 5.75 L17.85 7.25 18.05 7.5 18.6 8.0 M26.25 5.85 Q27.6 5.7 27.2 4.6 L26.95 4.25 M23.7 5.4 Q23.75 4.45 25.0 3.85 26.35 3.75 26.95 4.25 M25.6 6.0 L25.8 6.15 M25.8 7.95 L24.65 9.3 M4.2 34.15 L4.7 34.25 M27.75 25.95 L28.2 25.5 27.9 25.5 M26.55 27.25 L26.7 27.15 27.8 26.2 27.95 26.05 28.75 25.1 28.95 24.85 M27.8 26.2 L27.55 26.2 27.75 25.95 26.55 26.6 26.55 27.2 26.55 27.25 25.2 28.1 24.95 28.25 24.0 28.6 23.3 28.95 Q22.1 29.65 21.75 31.0 M29.05 25.5 L29.0 25.55 29.05 25.55 29.2 25.5 29.25 25.35 Q29.15 25.3 29.05 25.5 M29.15 25.75 L28.85 25.85 28.85 25.95 28.7 26.2 28.6 26.35 28.45 26.6 M29.15 25.75 Q29.65 25.5 29.3 24.8 L28.95 24.85 M29.0 25.55 L28.95 25.65 28.85 25.85 M26.55 26.0 L26.55 26.6 M26.55 25.85 L26.55 26.0 M26.25 29.15 L26.3 29.1 26.25 29.15 26.15 29.25 25.3 29.9 25.0 30.15 Q24.75 30.25 24.55 30.5 L24.3 30.65 23.3 31.75 Q21.25 32.55 21.75 31.0 M19.9 34.9 L20.25 34.7 20.35 34.7" fill="none" stroke="#000000" stroke-linecap="round" stroke-linejoin="round" stroke-opacity="0.3019608" stroke-width="0.5"/>
      <path d="M19.25 8.55 L20.95 9.65 Q22.25 9.95 23.75 8.65 L23.95 8.5 Q23.25 6.05 23.55 5.85 M18.6 8.0 L19.25 8.55 M25.55 5.6 Q25.35 4.55 26.6 4.65 27.05 5.3 26.25 5.85 M24.65 7.85 L24.95 7.5 Q25.25 7.15 25.15 6.75 25.05 6.2 25.6 6.0 M23.95 8.5 L24.65 7.85 M18.0 25.05 L20.45 25.1 M4.7 34.25 Q5.75 34.3 7.15 34.9 L9.5 36.25 9.65 36.35 10.2 36.7 11.15 37.0 13.15 37.0 Q16.1 36.4 18.75 35.1 M21.65 33.85 L22.45 33.2 25.5 30.65 26.0 30.15 M19.35 34.75 L20.7 34.0 22.15 33.1 25.0 30.8 25.25 30.5 25.35 30.4 26.25 29.2 M20.9 25.9 L20.95 25.55 20.8 25.45 20.45 25.1 M19.35 34.75 L18.75 35.1 M18.0 25.05 L17.15 25.55 M20.35 34.7 L21.1 34.3 21.65 33.85 21.65 35.1" fill="none" stroke="#000000" stroke-linecap="round" stroke-linejoin="round" stroke-opacity="0.15294118" stroke-width="0.25"/>
      <path d="M16.6 5.75 L17.85 7.25 18.05 7.5 18.6 8.0 Q20.35 8.3 21.4 7.05 22.15 6.15 23.2 5.9 L23.55 5.85 23.7 5.4 Q23.75 4.45 25.0 3.85 26.35 3.75 26.95 4.25 L27.2 4.6 Q27.6 5.7 26.25 5.85 L25.55 5.6 25.75 5.95 25.8 6.15 Q26.45 6.85 25.8 7.95 26.65 11.95 26.75 16.6 L26.8 17.35 26.55 23.55 26.45 24.4 26.55 25.85 27.6 25.55 27.9 25.5 27.65 25.45 28.4 25.1 27.85 24.75 28.55 24.7 28.35 24.0 28.75 24.35 28.9 23.55 29.25 24.1 29.45 23.3 29.5 24.05 29.9 23.3 29.7 24.3 30.25 23.7 29.8 24.6 30.25 24.45 29.7 25.05 30.15 25.25 29.5 25.5 29.85 25.9 29.25 25.85 29.4 26.65 29.0 26.05 28.9 27.15 28.7 26.2 28.3 27.35 28.45 26.6 28.3 26.8 28.1 27.0 26.5 28.9 26.4 29.0 26.3 29.1 26.3 29.15 26.25 29.15 26.25 29.2 26.1 29.55 26.0 30.15 25.8 30.85 25.7 31.05 25.0 33.15 23.6 33.95 21.65 35.1 20.95 35.05 19.9 34.9 19.85 34.9 Q14.9 37.45 11.0 37.6 L10.2 37.5 8.8 37.15 Q7.2 36.65 6.15 35.85 L5.05 35.1 4.2 34.15 Q3.9 33.65 4.7 33.25 5.45 32.85 7.0 32.55 8.7 32.3 10.2 31.45 L12.25 30.05 12.9 29.4 13.35 28.95 14.9 27.45 16.25 26.3 17.15 25.55 Q17.15 22.0 16.65 18.4 L16.5 17.75 Q15.55 10.8 13.5 6.75 L12.8 5.45 12.95 5.0 Q13.9 2.65 16.6 5.75 M28.95 24.85 L28.6 25.15 27.9 26.1 27.95 26.05 28.75 25.1 28.95 24.85 M27.55 26.2 L27.75 25.95 26.55 26.6 26.55 27.2 26.55 27.25 26.7 27.15 27.8 26.2 27.55 26.2 M28.85 25.85 L28.85 25.95 29.15 25.75 28.85 25.85 M29.05 25.5 L29.1 25.5 29.05 25.55 29.2 25.5 29.25 25.35 Q29.15 25.3 29.05 25.5" fill="#000000" fill-opacity="0.3019608" fill-rule="evenodd" stroke="none"/>
      <path d="M37.2 27.75 L37.25 27.75 37.2 27.85 37.15 27.85 37.2 27.75" fill="#666666" fill-rule="evenodd" stroke="none"/>
      <path d="M31.7 5.45 L31.85 4.95 Q32.6 5.4 33.15 4.1 34.2 3.1 35.1 3.65 L35.35 4.05 Q35.75 5.3 34.4 5.45 35.2 4.85 34.75 4.1 33.5 3.95 33.7 5.15 L33.95 5.8 33.75 5.65 Q33.2 5.85 33.3 6.5 33.4 6.95 33.1 7.35 L32.8 7.75 32.1 8.45 Q31.4 5.7 31.7 5.45 M30.85 15.45 Q32.9 15.25 33.85 14.15 L34.15 18.05 34.9 17.65 34.95 18.5 Q34.7 19.1 33.8 19.25 L33.4 15.35 Q33.15 16.1 31.55 16.2 L31.75 20.2 30.7 20.45 30.75 19.55 31.1 19.5 30.85 15.45 M26.9 38.7 L26.9 37.9 23.9 39.3 Q23.85 38.0 23.1 36.45 L25.8 34.45 25.25 33.5 25.75 33.15 Q26.5 33.8 26.6 34.8 L24.0 36.6 Q24.5 37.4 24.55 38.55 L27.5 37.0 27.5 38.3 26.9 38.7" fill="#664b27" fill-rule="evenodd" stroke="none"/>
      <path d="M33.7 5.15 Q33.5 3.95 34.75 4.1 35.2 4.85 34.4 5.45 L33.7 5.15" fill="#4d381d" fill-rule="evenodd" stroke="none"/>
      <path d="M31.7 5.45 Q31.4 5.7 32.1 8.45 L31.9 8.65 Q30.4 10.1 29.1 9.8 L27.4 8.5 Q29.05 8.65 30.0 7.45 30.45 6.6 31.05 6.35 31.7 5.7 31.35 5.5 L31.7 5.45 M32.8 7.75 L33.1 7.35 Q33.4 6.95 33.3 6.5 33.2 5.85 33.75 5.65 L33.95 5.8 Q34.6 6.6 33.95 7.85 34.8 12.4 34.9 17.65 L34.15 18.05 33.85 14.15 Q32.9 15.25 30.85 15.45 L30.75 15.45 30.4 10.4 Q34.15 7.5 32.8 7.75 M32.8 9.4 L33.95 7.85 32.8 9.4 M12.85 37.7 Q12.6 37.1 13.8 36.65 15.5 37.05 18.35 36.6 L19.5 36.4 Q23.0 35.1 25.25 33.5 L25.8 34.45 23.1 36.45 Q23.85 38.0 23.9 39.3 L26.9 37.9 26.9 38.7 Q24.25 40.15 21.3 40.85 L19.3 40.85 18.35 40.5 17.8 40.1 17.65 40.0 Q16.7 39.15 15.3 38.45 13.9 37.8 12.85 37.7" fill="#261212" fill-rule="evenodd" stroke="none"/>
      <path d="M35.1 3.65 Q34.2 3.1 33.15 4.1 32.6 5.4 31.85 4.95 31.9 3.85 33.15 3.2 34.5 3.05 35.1 3.65" fill="#876434" fill-rule="evenodd" stroke="none"/>
      <path d="M31.35 5.5 Q31.7 5.7 31.05 6.35 30.45 6.6 30.0 7.45 29.05 8.65 27.4 8.5 L26.75 7.9 Q28.5 8.25 29.55 6.8 30.3 5.8 31.35 5.5 M21.35 34.85 L20.2 34.4 Q21.75 33.55 22.25 32.55 L23.6 32.8 Q22.9 34.0 21.35 34.85" fill="#381b1c" fill-rule="evenodd" stroke="none"/>
      <path d="M30.75 15.45 L30.85 15.45 31.1 19.5 30.75 19.55 30.75 15.45" fill="#996633" fill-rule="evenodd" stroke="none"/>
      <path d="M34.45 31.85 L34.45 31.95 34.4 31.95 34.45 31.85 34.4 31.95 34.45 31.85 M34.4 32.0 L34.25 32.35 34.15 33.05 33.65 33.6 30.6 36.55 29.8 37.25 29.25 37.75 28.5 38.2 28.4 38.25 28.05 38.45 28.0 38.45 Q23.05 41.35 19.15 41.5 L18.35 41.4 16.95 41.0 Q15.35 40.45 14.3 39.55 L12.85 37.7 Q13.9 37.8 15.3 38.45 16.7 39.15 17.65 40.0 L17.8 40.1 18.35 40.5 19.3 40.85 21.3 40.85 Q24.25 40.15 26.9 38.7 L27.5 38.3 28.85 37.45 30.3 36.4 33.15 33.8 33.4 33.45 33.5 33.35 34.4 32.0 M31.45 32.55 Q32.3 32.5 31.9 33.4 L31.8 33.65 31.7 33.65 31.75 33.5 Q32.15 32.6 31.35 32.65 L31.45 32.55 M31.65 33.8 L31.6 34.0 31.25 34.4 31.45 34.1 31.5 33.8 31.65 33.8" fill="#2e1a16" fill-rule="evenodd" stroke="none"/>
      <path d="M21.5 31.7 L23.05 30.0 24.4 28.7 25.3 27.85 26.15 27.25 Q24.0 29.25 22.2 31.65 L21.5 31.7" fill="#522f28" fill-rule="evenodd" stroke="none"/>
      <path d="M34.7 28.2 L35.75 27.85 Q36.0 27.95 34.7 28.35 L34.7 28.2" fill="#cccccc" fill-rule="evenodd" stroke="none"/>
      <path d="M14.3 39.55 L13.2 38.7 12.35 37.6 12.85 37.7 14.3 39.55" fill="#3d3731" fill-rule="evenodd" stroke="none"/>
      <path d="M31.7 33.65 L31.65 33.65 31.65 33.8 Q31.6 33.1 31.3 33.2 L31.5 33.8 31.45 34.1 31.25 34.4 31.1 34.4 30.95 34.3 30.8 34.1 Q30.85 33.2 31.35 32.65 32.15 32.6 31.75 33.5 L31.7 33.65" fill="#999999" fill-rule="evenodd" stroke="none"/>
      <path d="M31.5 33.8 L31.3 33.2 Q31.6 33.1 31.65 33.8 L31.5 33.8" fill="#333333" fill-rule="evenodd" stroke="none"/>
      <path d="M34.15 33.05 L33.95 33.85 33.85 34.1 33.15 36.45 31.75 37.4 29.8 38.7 29.8 37.25 30.6 36.55 33.65 33.6 34.15 33.05" fill="#211e1a" fill-rule="evenodd" stroke="none"/>
      <path d="M29.8 38.7 L29.1 38.65 28.05 38.45 28.4 38.25 28.5 38.2 29.25 37.75 29.8 37.25 29.8 38.7" fill="#1a1309" fill-rule="evenodd" stroke="none"/>
      <path d="M36.05 27.75 L35.8 27.7 36.55 27.3 36.0 26.9 36.7 26.85 36.5 26.05 36.9 26.45 37.05 25.55 37.4 26.2 37.6 25.3 37.65 26.15 38.05 25.25 37.85 26.4 38.4 25.75 37.95 26.75 38.4 26.6 37.85 27.25 38.3 27.5 37.65 27.8 38.0 28.25 37.4 28.2 37.55 29.1 37.15 28.4 37.05 29.65 36.85 28.6 36.45 29.9 36.6 29.05 36.75 28.75 36.85 28.6 37.0 28.3 37.3 28.05 Q37.8 27.8 37.45 27.0 L37.1 27.05 36.75 27.4 35.95 28.55 35.7 28.6 35.9 28.3 36.35 27.8 36.05 27.75" fill="url(#gradient14)" fill-rule="evenodd" stroke="none"/>
      <path d="M36.6 29.05 L36.45 29.25 36.25 29.5 34.65 31.65 34.55 31.75 34.45 31.85 34.4 31.95 34.3 32.05 33.45 32.75 33.15 33.05 32.7 33.45 32.45 33.6 32.45 33.65 Q32.2 34.35 31.45 34.85 29.4 35.8 29.9 34.0 30.3 34.25 30.55 33.45 L30.7 33.0 Q30.95 32.35 31.65 31.95 L31.75 31.9 32.05 31.75 33.25 31.0 33.35 30.75 34.7 29.75 34.85 29.65 35.95 28.6 36.1 28.4 36.9 27.3 37.1 27.05 37.45 27.0 Q37.8 27.8 37.3 28.05 L37.0 28.2 37.0 28.3 36.85 28.6 36.75 28.75 36.6 29.05 M31.45 32.55 L31.65 31.95 31.45 32.55 31.35 32.65 Q30.85 33.2 30.8 34.1 L30.95 34.3 31.1 34.4 31.25 34.4 31.6 34.0 31.65 33.8 31.65 33.65 31.7 33.65 31.8 33.65 31.9 33.4 Q32.3 32.5 31.45 32.55 M37.2 27.75 L37.15 27.85 37.2 27.85 37.35 27.75 37.4 27.6 37.2 27.75 M37.0 28.2 L37.1 27.95 37.15 27.85 37.1 27.95 37.0 28.2" fill="url(#gradient15)" fill-rule="evenodd" stroke="none"/>
      <path d="M33.35 30.75 L33.25 31.0 32.05 31.75 31.75 31.9 31.65 31.95 Q30.95 32.35 30.7 33.0 L30.55 33.45 Q30.3 34.25 29.9 34.0 30.25 32.5 31.45 31.7 L32.15 31.3 33.1 30.9 33.35 30.75" fill="url(#gradient16)" fill-rule="evenodd" stroke="none"/>
      <path d="M35.75 27.85 L36.05 27.75 36.35 27.8 35.9 28.3 34.7 29.0 34.7 28.35 Q36.0 27.95 35.75 27.85" fill="url(#gradient17)" fill-rule="evenodd" stroke="none"/>
      <path d="M28.6 27.3 Q28.85 24.35 28.4 20.5 L30.7 20.45 30.4 23.7 Q29.9 26.4 28.95 27.7 L28.6 27.3" fill="url(#gradient18)" fill-rule="evenodd" stroke="none"/>
      <path d="M24.8 19.7 L25.95 20.45 Q26.5 24.1 26.15 27.25 L25.3 27.85 Q25.3 23.8 24.8 19.7" fill="url(#gradient19)" fill-rule="evenodd" stroke="none"/>
      <path d="M28.95 27.7 L29.1 27.85 29.05 28.25 28.6 29.7 27.65 31.3 25.75 33.15 Q25.2 32.65 24.25 32.35 26.3 29.3 28.6 27.3 L28.95 27.7" fill="url(#gradient20)" fill-rule="evenodd" stroke="none"/>
      <path d="M30.7 20.45 L31.75 20.2 31.55 16.2 Q33.15 16.1 33.4 15.35 L33.8 19.25 Q34.7 19.1 34.95 18.5 L34.7 25.55 34.6 26.55 34.7 28.2 34.7 28.35 34.7 29.0 34.7 29.7 34.7 29.75 33.35 30.75 33.1 30.9 32.15 31.3 31.45 31.7 Q30.25 32.5 29.9 34.0 29.4 35.8 31.45 34.85 32.2 34.35 32.45 33.65 L32.45 33.6 32.7 33.45 33.15 33.05 33.45 32.75 34.3 32.05 34.4 31.95 34.4 32.0 33.5 33.35 33.4 33.45 33.15 33.8 30.3 36.4 28.85 37.45 27.5 38.3 27.5 37.0 24.55 38.55 Q24.5 37.4 24.0 36.6 L26.6 34.8 Q26.5 33.8 25.75 33.15 L27.65 31.3 28.6 29.7 29.05 28.25 29.1 27.85 28.95 27.7 Q29.9 26.4 30.4 23.7 L30.7 20.45" fill="url(#gradient21)" fill-rule="evenodd" stroke="none"/>
      <path d="M32.1 8.45 L32.8 7.75 Q34.15 7.5 30.4 10.4 L30.75 15.45 30.75 19.55 28.25 19.55 Q27.85 13.6 26.0 8.1 25.7 7.3 26.0 7.05 L26.2 7.35 26.75 7.9 27.4 8.5 29.1 9.8 Q30.4 10.1 31.9 8.65 L32.1 8.45" fill="url(#gradient22)" fill-rule="evenodd" stroke="none"/>
      <path d="M21.65 6.5 Q22.4 6.75 23.15 8.35 25.25 13.15 25.8 19.35 L24.65 18.95 Q23.7 11.1 21.65 6.5" fill="url(#gradient23)" fill-rule="evenodd" stroke="none"/>
      <path d="M21.65 6.5 L20.95 5.0 21.1 4.5 Q22.05 1.8 24.75 5.35 L26.0 7.05 Q25.7 7.3 26.0 8.1 27.85 13.6 28.25 19.55 L30.75 19.55 30.7 20.45 28.4 20.5 Q28.85 24.35 28.6 27.3 L26.15 27.25 Q26.5 24.1 25.95 20.45 L24.8 19.7 24.65 18.95 25.8 19.35 Q25.25 13.15 23.15 8.35 22.4 6.75 21.65 6.5" fill="url(#gradient24)" fill-rule="evenodd" stroke="none"/>
      <path d="M26.15 27.25 L28.6 27.3 Q26.3 29.3 24.25 32.35 25.2 32.65 25.75 33.15 L25.25 33.5 Q24.85 33.1 24.2 33.0 23.25 34.65 21.25 35.4 L19.2 34.5 Q20.75 33.65 21.7 32.2 L21.05 32.2 21.5 31.7 22.2 31.65 Q24.0 29.25 26.15 27.25 M21.35 34.85 Q22.9 34.0 23.6 32.8 L22.25 32.55 Q21.75 33.55 20.2 34.4 L21.35 34.85" fill="url(#gradient25)" fill-rule="evenodd" stroke="none"/>
      <path d="M12.35 37.6 Q12.05 37.05 12.85 36.6 L15.15 35.8 Q16.85 35.5 18.35 34.55 L20.4 32.95 21.05 32.2 21.7 32.2 Q20.75 33.65 19.2 34.5 L21.25 35.4 Q23.25 34.65 24.2 33.0 24.85 33.1 25.25 33.5 23.0 35.1 19.5 36.4 L18.35 36.6 Q15.5 37.05 13.8 36.65 12.6 37.1 12.85 37.7 L12.35 37.6" fill="url(#gradient26)" fill-rule="evenodd" stroke="none"/>
      <path d="M31.65 31.95 L31.45 32.55 Q32.3 32.5 31.9 33.4 L31.8 33.65 31.7 33.65 31.65 33.65 31.65 33.8 31.6 34.0 31.25 34.4 31.1 34.4 30.95 34.3 30.8 34.1 Q30.85 33.2 31.35 32.65 L31.45 32.55 M31.65 33.8 Q31.6 33.1 31.3 33.2 L31.5 33.8" fill="none" stroke="#000000" stroke-linecap="round" stroke-linejoin="round" stroke-opacity="0.5019608" stroke-width="0.2"/>
      <path d="M31.85 4.95 L31.7 5.45 31.35 5.5 M33.75 5.65 L33.95 5.8 33.7 5.15 M34.4 5.45 Q35.75 5.3 35.35 4.05 L35.1 3.65 M31.85 4.95 Q31.9 3.85 33.15 3.2 34.5 3.05 35.1 3.65 M34.4 5.45 L33.7 5.15 M34.9 17.65 Q34.8 12.4 33.95 7.85 L32.8 9.4 M33.95 5.8 Q34.6 6.6 33.95 7.85 M21.65 6.5 L20.95 5.0 21.1 4.5 Q22.05 1.8 24.75 5.35 L26.0 7.05 26.2 7.35 26.75 7.9 Q28.5 8.25 29.55 6.8 30.3 5.8 31.35 5.5 M21.65 6.5 Q23.7 11.1 24.65 18.95 L24.8 19.7 M34.95 18.5 L34.9 17.65 M34.95 18.5 L34.7 25.55 34.6 26.55 34.7 28.2 35.75 27.85 36.05 27.75 35.8 27.7 36.55 27.3 36.0 26.9 36.7 26.85 36.5 26.05 36.9 26.45 37.05 25.55 37.4 26.2 37.6 25.3 37.65 26.15 38.05 25.25 37.85 26.4 38.4 25.75 37.95 26.75 38.4 26.6 37.85 27.25 38.3 27.5 37.65 27.8 38.0 28.25 37.4 28.2 37.55 29.1 37.15 28.4 37.05 29.65 36.85 28.6 36.45 29.9 36.6 29.05 36.45 29.25 36.25 29.5 34.65 31.65 34.55 31.75 34.45 31.85 34.45 31.95 M34.4 31.95 L34.4 32.0 34.25 32.35 34.15 33.05 33.95 33.85 33.85 34.1 33.15 36.45 31.75 37.4 29.8 38.7 29.1 38.65 28.05 38.45 28.0 38.45 Q23.05 41.35 19.15 41.5 L18.35 41.4 16.95 41.0 Q15.35 40.45 14.3 39.55 L13.2 38.7 12.35 37.6 Q12.05 37.05 12.85 36.6 L15.15 35.8 Q16.85 35.5 18.35 34.55 L20.4 32.95 21.05 32.2 21.5 31.7 23.05 30.0 24.4 28.7 25.3 27.85 Q25.3 23.8 24.8 19.7 M12.35 37.6 L12.85 37.7 M35.9 28.3 L36.35 27.8 36.05 27.75 M34.7 29.75 L34.85 29.65 35.95 28.6 36.1 28.4 36.9 27.3 37.1 27.05 M35.95 28.55 L35.7 28.6 35.9 28.3 34.7 29.0 34.7 29.7 34.7 29.75 33.35 30.75 33.1 30.9 32.15 31.3 31.45 31.7 Q30.25 32.5 29.9 34.0 M37.2 27.75 L37.15 27.85 37.2 27.85 37.35 27.75 37.4 27.6 37.2 27.75 M37.3 28.05 L37.0 28.2 37.0 28.3 36.85 28.6 36.75 28.75 36.6 29.05 M37.3 28.05 Q37.8 27.8 37.45 27.0 L37.1 27.05 M37.15 27.85 L37.1 27.95 37.0 28.2 M34.7 28.35 L34.7 29.0 M34.7 28.2 L34.7 28.35 M34.4 31.95 L34.45 31.85 34.4 31.95 34.3 32.05 33.45 32.75 33.15 33.05 32.7 33.45 32.45 33.6 32.45 33.65 Q32.2 34.35 31.45 34.85 29.4 35.8 29.9 34.0 M28.05 38.45 L28.4 38.25 28.5 38.2" fill="none" stroke="#000000" stroke-linecap="round" stroke-linejoin="round" stroke-opacity="0.3019608" stroke-width="0.5"/>
      <path d="M31.7 5.45 Q31.4 5.7 32.1 8.45 L32.8 7.75 33.1 7.35 Q33.4 6.95 33.3 6.5 33.2 5.85 33.75 5.65 M33.7 5.15 Q33.5 3.95 34.75 4.1 35.2 4.85 34.4 5.45 M27.4 8.5 L29.1 9.8 Q30.4 10.1 31.9 8.65 L32.1 8.45 M26.75 7.9 L27.4 8.5 M26.15 27.25 L28.6 27.3 M12.85 37.7 Q13.9 37.8 15.3 38.45 16.7 39.15 17.65 40.0 L17.8 40.1 18.35 40.5 19.3 40.85 21.3 40.85 Q24.25 40.15 26.9 38.7 L27.5 38.3 28.85 37.45 30.3 36.4 33.15 33.8 33.4 33.45 33.5 33.35 34.4 32.0 M29.8 37.25 L30.6 36.55 33.65 33.6 34.15 33.05 M29.05 28.25 L29.1 27.85 28.95 27.7 28.6 27.3 M26.15 27.25 L25.3 27.85 M28.5 38.2 L29.25 37.75 29.8 37.25 29.8 38.7" fill="none" stroke="#000000" stroke-linecap="round" stroke-linejoin="round" stroke-opacity="0.15294118" stroke-width="0.25"/>
    </g>
    <linearGradient gradientTransform="matrix(-3.0E-4, 9.0E-4, -0.0014, -3.0E-4, 29.4, 24.95)" gradientUnits="userSpaceOnUse" id="gradient1" spreadMethod="pad" x1="-819.2" x2="819.2">
      <stop offset="0.0" stop-color="#333333"/>
      <stop offset="0.5843137254901961" stop-color="#ffffff"/>
      <stop offset="0.9725490196078431" stop-color="#aaaaaa"/>
    </linearGradient>
    <linearGradient gradientTransform="matrix(0.0027, -9.0E-4, 0.0012, 0.0027, 27.1, 27.95)" gradientUnits="userSpaceOnUse" id="gradient2" spreadMethod="pad" x1="-819.2" x2="819.2">
      <stop offset="0.0" stop-color="#333333"/>
      <stop offset="0.5843137254901961" stop-color="#d5d5d5"/>
      <stop offset="0.9725490196078431" stop-color="#7b7b7b"/>
    </linearGradient>
    <linearGradient gradientTransform="matrix(0.0033, -0.0025, 4.0E-4, 4.0E-4, 24.5, 28.55)" gradientUnits="userSpaceOnUse" id="gradient3" spreadMethod="pad" x1="-819.2" x2="819.2">
      <stop offset="0.0" stop-color="#333333"/>
      <stop offset="0.5843137254901961" stop-color="#e6e6e6"/>
      <stop offset="0.9725490196078431" stop-color="#7b7b7b"/>
    </linearGradient>
    <linearGradient gradientTransform="matrix(-9.0E-4, 4.0E-4, -2.0E-4, -2.0E-4, 27.15, 26.0)" gradientUnits="userSpaceOnUse" id="gradient4" spreadMethod="pad" x1="-819.2" x2="819.2">
      <stop offset="0.0" stop-color="#333333"/>
      <stop offset="0.9725490196078431" stop-color="#cccccc"/>
    </linearGradient>
    <linearGradient gradientTransform="matrix(-4.0E-4, -0.0056, 0.0016, -1.0E-4, 21.25, 18.6)" gradientUnits="userSpaceOnUse" id="gradient5" spreadMethod="pad" x1="-819.2" x2="819.2">
      <stop offset="0.0" stop-color="#522f28"/>
      <stop offset="0.9725490196078431" stop-color="#965649"/>
    </linearGradient>
    <linearGradient gradientTransform="matrix(-3.0E-4, -0.0043, 8.0E-4, 0.0, 17.3, 18.85)" gradientUnits="userSpaceOnUse" id="gradient6" spreadMethod="pad" x1="-819.2" x2="819.2">
      <stop offset="0.0" stop-color="#522f28"/>
      <stop offset="0.9725490196078431" stop-color="#965649"/>
    </linearGradient>
    <linearGradient gradientTransform="matrix(-0.0042, 0.0037, -0.001, -9.0E-4, 15.95, 30.35)" gradientUnits="userSpaceOnUse" id="gradient7" spreadMethod="pad" x1="-819.2" x2="819.2">
      <stop offset="0.0" stop-color="#522f28"/>
      <stop offset="0.9725490196078431" stop-color="#965649"/>
    </linearGradient>
    <linearGradient gradientTransform="matrix(-0.0046, -0.0017, 0.0059, -0.0123, 20.3, 24.6)" gradientUnits="userSpaceOnUse" id="gradient8" spreadMethod="pad" x1="-819.2" x2="819.2">
      <stop offset="0.0" stop-color="#2e1a16"/>
      <stop offset="0.9725490196078431" stop-color="#080403"/>
    </linearGradient>
    <linearGradient gradientTransform="matrix(-2.0E-4, 0.005, -0.0045, -1.0E-4, 21.05, 17.9)" gradientUnits="userSpaceOnUse" id="gradient9" spreadMethod="pad" x1="-819.2" x2="819.2">
      <stop offset="0.0" stop-color="#381b1c"/>
      <stop offset="0.9725490196078431" stop-color="#693232"/>
    </linearGradient>
    <linearGradient gradientTransform="matrix(0.0013, 0.0045, -9.0E-4, 2.0E-4, 17.2, 17.4)" gradientUnits="userSpaceOnUse" id="gradient10" spreadMethod="pad" x1="-819.2" x2="819.2">
      <stop offset="0.0" stop-color="#381b1c"/>
      <stop offset="0.9725490196078431" stop-color="#693232"/>
    </linearGradient>
    <linearGradient gradientTransform="matrix(-0.0012, -0.0079, 0.0047, -5.0E-4, 18.4, 16.6)" gradientUnits="userSpaceOnUse" id="gradient11" spreadMethod="pad" x1="-819.2" x2="819.2">
      <stop offset="0.0" stop-color="#876434"/>
      <stop offset="0.9725490196078431" stop-color="#b88847"/>
    </linearGradient>
    <linearGradient gradientTransform="matrix(-0.0011, 9.0E-4, -0.0017, -0.0015, 16.1, 29.1)" gradientUnits="userSpaceOnUse" id="gradient12" spreadMethod="pad" x1="-819.2" x2="819.2">
      <stop offset="0.0" stop-color="#876434"/>
      <stop offset="0.9725490196078431" stop-color="#b88847"/>
    </linearGradient>
    <linearGradient gradientTransform="matrix(-0.0016, 3.0E-4, -5.0E-4, -0.002, 8.9, 31.8)" gradientUnits="userSpaceOnUse" id="gradient13" spreadMethod="pad" x1="-819.2" x2="819.2">
      <stop offset="0.0" stop-color="#381b1c"/>
      <stop offset="0.9725490196078431" stop-color="#663030"/>
    </linearGradient>
    <linearGradient gradientTransform="matrix(-3.0E-4, 0.001, -0.0014, -4.0E-4, 37.55, 27.15)" gradientUnits="userSpaceOnUse" id="gradient14" spreadMethod="pad" x1="-819.2" x2="819.2">
      <stop offset="0.0" stop-color="#333333"/>
      <stop offset="0.5843137254901961" stop-color="#ffffff"/>
      <stop offset="0.9725490196078431" stop-color="#aaaaaa"/>
    </linearGradient>
    <linearGradient gradientTransform="matrix(0.0027, -0.001, 0.0012, 0.003, 35.25, 30.55)" gradientUnits="userSpaceOnUse" id="gradient15" spreadMethod="pad" x1="-819.2" x2="819.2">
      <stop offset="0.0" stop-color="#333333"/>
      <stop offset="0.5843137254901961" stop-color="#d5d5d5"/>
      <stop offset="0.9725490196078431" stop-color="#7b7b7b"/>
    </linearGradient>
    <linearGradient gradientTransform="matrix(0.0033, -0.0029, 4.0E-4, 4.0E-4, 32.65, 31.25)" gradientUnits="userSpaceOnUse" id="gradient16" spreadMethod="pad" x1="-819.2" x2="819.2">
      <stop offset="0.0" stop-color="#333333"/>
      <stop offset="0.5843137254901961" stop-color="#e6e6e6"/>
      <stop offset="0.9725490196078431" stop-color="#7b7b7b"/>
    </linearGradient>
    <linearGradient gradientTransform="matrix(-9.0E-4, 5.0E-4, -2.0E-4, -3.0E-4, 35.3, 28.35)" gradientUnits="userSpaceOnUse" id="gradient17" spreadMethod="pad" x1="-819.2" x2="819.2">
      <stop offset="0.0" stop-color="#333333"/>
      <stop offset="0.9725490196078431" stop-color="#cccccc"/>
    </linearGradient>
    <linearGradient gradientTransform="matrix(-4.0E-4, -0.0063, 0.0016, -1.0E-4, 29.4, 19.95)" gradientUnits="userSpaceOnUse" id="gradient18" spreadMethod="pad" x1="-819.2" x2="819.2">
      <stop offset="0.0" stop-color="#522f28"/>
      <stop offset="0.9725490196078431" stop-color="#965649"/>
    </linearGradient>
    <linearGradient gradientTransform="matrix(-3.0E-4, -0.0049, 8.0E-4, 0.0, 25.45, 20.25)" gradientUnits="userSpaceOnUse" id="gradient19" spreadMethod="pad" x1="-819.2" x2="819.2">
      <stop offset="0.0" stop-color="#522f28"/>
      <stop offset="0.9725490196078431" stop-color="#965649"/>
    </linearGradient>
    <linearGradient gradientTransform="matrix(-0.0042, 0.0042, -0.001, -0.001, 24.1, 33.3)" gradientUnits="userSpaceOnUse" id="gradient20" spreadMethod="pad" x1="-819.2" x2="819.2">
      <stop offset="0.0" stop-color="#522f28"/>
      <stop offset="0.9725490196078431" stop-color="#965649"/>
    </linearGradient>
    <linearGradient gradientTransform="matrix(-0.0046, -0.002, 0.0059, -0.0139, 28.45, 26.75)" gradientUnits="userSpaceOnUse" id="gradient21" spreadMethod="pad" x1="-819.2" x2="819.2">
      <stop offset="0.0" stop-color="#2e1a16"/>
      <stop offset="0.9725490196078431" stop-color="#080403"/>
    </linearGradient>
    <linearGradient gradientTransform="matrix(-2.0E-4, 0.0057, -0.0045, -1.0E-4, 29.2, 19.15)" gradientUnits="userSpaceOnUse" id="gradient22" spreadMethod="pad" x1="-819.2" x2="819.2">
      <stop offset="0.0" stop-color="#381b1c"/>
      <stop offset="0.9725490196078431" stop-color="#693232"/>
    </linearGradient>
    <linearGradient gradientTransform="matrix(0.0013, 0.0051, -9.0E-4, 2.0E-4, 25.35, 18.55)" gradientUnits="userSpaceOnUse" id="gradient23" spreadMethod="pad" x1="-819.2" x2="819.2">
      <stop offset="0.0" stop-color="#381b1c"/>
      <stop offset="0.9725490196078431" stop-color="#693232"/>
    </linearGradient>
    <linearGradient gradientTransform="matrix(-0.0012, -0.009, 0.0047, -6.0E-4, 26.55, 17.65)" gradientUnits="userSpaceOnUse" id="gradient24" spreadMethod="pad" x1="-819.2" x2="819.2">
      <stop offset="0.0" stop-color="#876434"/>
      <stop offset="0.9725490196078431" stop-color="#b88847"/>
    </linearGradient>
    <linearGradient gradientTransform="matrix(-0.0011, 0.001, -0.0017, -0.0017, 24.25, 31.85)" gradientUnits="userSpaceOnUse" id="gradient25" spreadMethod="pad" x1="-819.2" x2="819.2">
      <stop offset="0.0" stop-color="#876434"/>
      <stop offset="0.9725490196078431" stop-color="#b88847"/>
    </linearGradient>
    <linearGradient gradientTransform="matrix(-0.0016, 3.0E-4, -5.0E-4, -0.0023, 17.05, 34.95)" gradientUnits="userSpaceOnUse" id="gradient26" spreadMethod="pad" x1="-819.2" x2="819.2">
      <stop offset="0.0" stop-color="#381b1c"/>
      <stop offset="0.9725490196078431" stop-color="#663030"/>
    </linearGradient>
    <g id="sprite1" transform="matrix(1.0, 0.0, 0.0, 1.0, 0.0, 0.0)">
      <use height="34.8" transform="matrix(1.0, 0.0, 0.0, 1.0, 0.0, 0.0)" width="34.8" xlink:href="#shape3"/>
    </g>
    <g id="shape3" transform="matrix(1.0, 0.0, 0.0, 1.0, 0.0, 0.0)">
      <path d="M17.4 34.8 Q10.2 34.8 5.1 29.7 0.0 24.6 0.0 17.4 0.0 10.2 5.1 5.1 10.2 0.0 17.4 0.0 24.6 0.0 29.7 5.1 34.8 10.2 34.8 17.4 34.8 24.6 29.7 29.7 24.6 34.8 17.4 34.8" fill="url(#gradient27)" fill-rule="evenodd" stroke="none"/>
    </g>
    <radialGradient cx="0" cy="0" gradientTransform="matrix(0.0221, 0.0, 0.0, 0.0221, 17.4, 17.4)" gradientUnits="userSpaceOnUse" id="gradient27" r="819.2" spreadMethod="pad">
      <stop offset="0.0" stop-color="#ffffff"/>
      <stop offset="0.9882352941176471" stop-color="#ffffff" stop-opacity="0.0"/>
    </radialGradient>
  </defs>
</svg>
