<?xml version="1.0" encoding="UTF-8" standalone="no"?>
<svg xmlns:xlink="http://www.w3.org/1999/xlink" height="440.0px" width="440.0px" xmlns="http://www.w3.org/2000/svg">
  <g transform="matrix(10.0, 0.0, 0.0, 10.0, 0.0, 0.0)">
    <use height="44.0" transform="matrix(1.0, 0.0, 0.0, 1.0, 0.0, 0.0)" width="44.0" xlink:href="#shape0"/>
    <use height="30.0" transform="matrix(-0.5575, 0.0, 0.0, -0.4561, 38.65, 39.9044)" width="60.0" xlink:href="#sprite0"/>
    <use height="27.75" transform="matrix(1.1216, 0.0, 0.0, 1.1216, 17.9818, 5.0818)" width="18.65" xlink:href="#sprite1"/>
    <use height="30.6" transform="matrix(0.5751, 0.0, 0.0, 0.5751, 7.3928, 21.797)" width="31.4" xlink:href="#sprite5"/>
    <use height="5.1" transform="matrix(1.0, 0.0, 0.0, 1.0, 7.85, 26.75)" width="14.7" xlink:href="#shape6"/>
    <use height="32.9" transform="matrix(0.5751, 0.0, 0.0, 0.5751, 6.7454, 10.9244)" width="30.05" xlink:href="#sprite6"/>
    <use height="24.55" transform="matrix(0.6305, 0.0, -0.0166, 0.5751, 10.2174, 4.6761)" width="20.05" xlink:href="#sprite7"/>
    <use height="34.95" transform="matrix(1.0, 0.0, 0.0, 1.0, 6.65, 4.55)" width="32.4" xlink:href="#shape9"/>
  </g>
  <defs>
    <g id="shape0" transform="matrix(1.0, 0.0, 0.0, 1.0, 0.0, 0.0)">
      <path d="M44.0 44.0 L0.0 44.0 0.0 0.0 44.0 0.0 44.0 44.0" fill="#43adca" fill-opacity="0.0" fill-rule="evenodd" stroke="none"/>
    </g>
    <g id="sprite0" transform="matrix(1.0, 0.0, 0.0, 1.0, 0.0, -0.1)">
      <use height="30.0" transform="matrix(1.0, 0.0, 0.0, 1.0, 0.0, 0.1)" width="60.0" xlink:href="#shape1"/>
    </g>
    <g id="shape1" transform="matrix(1.0, 0.0, 0.0, 1.0, 0.0, -0.1)">
      <path d="M60.0 15.1 Q60.0 21.25 51.2 25.65 42.45 30.05 30.0 30.1 17.55 30.05 8.8 25.65 0.0 21.25 0.0 15.1 0.0 8.9 8.8 4.45 17.55 0.05 30.0 0.1 42.45 0.05 51.2 4.45 60.0 8.9 60.0 15.1" fill="url(#gradient0)" fill-rule="evenodd" stroke="none"/>
    </g>
    <radialGradient cx="0" cy="0" gradientTransform="matrix(0.0, -0.0155, 0.0346, 0.0, 30.0, 15.1)" gradientUnits="userSpaceOnUse" id="gradient0" r="819.2" spreadMethod="pad">
      <stop offset="0.0" stop-color="#372a0e" stop-opacity="0.19607843"/>
      <stop offset="0.6627450980392157" stop-color="#372a0e" stop-opacity="0.19607843"/>
      <stop offset="1.0" stop-color="#382a0e" stop-opacity="0.0"/>
    </radialGradient>
    <g id="sprite1" transform="matrix(1.0, 0.0, 0.0, 1.0, 0.15, 0.15)">
      <use height="25.35" transform="matrix(0.5127, 0.0, 0.0, 0.5127, 0.3187, 14.6002)" width="35.5" xlink:href="#sprite2"/>
      <use height="30.65" transform="matrix(0.5127, 0.0, 0.0, 0.5127, -0.1305, 5.3136)" width="28.55" xlink:href="#sprite3"/>
      <use height="24.55" transform="matrix(0.5127, 0.0, 0.0, 0.5127, 4.528, -0.1423)" width="20.05" xlink:href="#sprite4"/>
    </g>
    <g id="sprite2" transform="matrix(1.0, 0.0, 0.0, 1.0, 18.2, 25.55)">
      <use height="25.35" transform="matrix(1.0, 0.0, 0.0, 1.0, -18.2, -25.55)" width="35.5" xlink:href="#shape2"/>
    </g>
    <g id="shape2" transform="matrix(1.0, 0.0, 0.0, 1.0, 18.2, 25.55)">
      <path d="M17.05 -9.1 L16.9 -8.9 16.95 -9.15 17.05 -9.1" fill="#072125" fill-rule="evenodd" stroke="none"/>
      <path d="M16.9 -8.9 Q16.9 -7.25 15.9 -6.1 14.85 -4.95 13.4 -4.95 L12.85 -8.0 9.25 -11.1 9.05 -11.7 15.7 -11.95 16.95 -9.15 16.9 -8.9 M6.85 -0.45 L1.8 -4.0 -2.9 -3.6 -17.95 -12.45 -17.6 -21.35 -8.95 -10.6 -0.8 -15.1 -7.0 -10.5 -7.7 -9.55 -8.0 -9.05 -0.4 -4.5 Q-0.2 -6.05 0.6 -7.1 L4.65 -9.3 7.95 -5.95 2.8 -6.6 6.85 -0.45" fill="#000000" fill-rule="evenodd" stroke="none"/>
      <path d="M10.85 -17.65 L10.95 -17.55 8.35 -13.8 9.05 -11.7 9.25 -11.1 6.85 -14.55 10.85 -17.65 M-7.7 -9.55 L-3.05 -6.7 -0.8 -7.85 -0.8 -5.55 0.6 -7.1 Q-0.2 -6.05 -0.4 -4.5 L-8.0 -9.05 -7.7 -9.55" fill="#99501e" fill-rule="evenodd" stroke="none"/>
      <path d="M10.95 -17.55 Q13.5 -17.55 15.3 -15.05 17.05 -12.6 17.05 -9.1 L16.95 -9.15 15.7 -11.95 9.05 -11.7 8.35 -13.8 10.95 -17.55 M13.4 -4.95 Q13.4 -3.1 11.5 -1.75 9.55 -0.45 6.85 -0.45 L2.8 -6.6 7.95 -5.95 4.65 -9.3 -2.6 -7.8 -7.0 -10.5 -0.8 -15.1 -8.95 -10.6 -17.6 -21.35 -17.5 -21.55 -16.8 -24.6 -2.2 -25.3 Q0.7 -24.05 10.85 -17.65 L6.85 -14.55 9.25 -11.1 12.85 -8.0 13.4 -4.95" fill="#100c07" fill-rule="evenodd" stroke="none"/>
      <path d="M4.65 -9.3 L0.6 -7.1 -0.8 -5.55 -0.8 -7.85 -3.05 -6.7 -7.7 -9.55 -7.0 -10.5 -2.6 -7.8 4.65 -9.3" fill="#987c76" fill-rule="evenodd" stroke="none"/>
      <path d="M10.85 -17.65 L10.95 -17.55 Q13.5 -17.55 15.3 -15.05 17.05 -12.6 17.05 -9.1 L16.9 -8.9 Q16.9 -7.25 15.9 -6.1 14.85 -4.95 13.4 -4.95 13.4 -3.1 11.5 -1.75 9.55 -0.45 6.85 -0.45 L1.8 -4.0 -2.9 -3.6 -17.95 -12.45 -17.6 -21.35 -17.5 -21.55 -16.8 -24.6 -2.2 -25.3 Q0.7 -24.05 10.85 -17.65 L6.85 -14.55 9.25 -11.1 9.05 -11.7 8.35 -13.8 10.95 -17.55 M0.6 -7.1 L4.65 -9.3 7.95 -5.95 2.8 -6.6 6.85 -0.45 M-7.0 -10.5 L-7.7 -9.55 M0.6 -7.1 Q-0.2 -6.05 -0.4 -4.5 L-8.0 -9.05 -7.7 -9.55 M16.95 -9.15 L15.7 -11.95 9.05 -11.7 M16.95 -9.15 L16.9 -8.9 M9.25 -11.1 L12.85 -8.0 13.4 -4.95 M-7.0 -10.5 L-0.8 -15.1 -8.95 -10.6 -17.6 -21.35" fill="none" stroke="#996002" stroke-linecap="round" stroke-linejoin="round" stroke-opacity="0.3019608" stroke-width="0.5"/>
    </g>
    <g id="sprite3" transform="matrix(1.0, 0.0, 0.0, 1.0, 14.2, 30.4)">
      <use height="30.65" transform="matrix(1.0, 0.0, 0.0, 1.0, -14.2, -30.4)" width="28.55" xlink:href="#shape3"/>
    </g>
    <g id="shape3" transform="matrix(1.0, 0.0, 0.0, 1.0, 14.2, 30.4)">
      <path d="M4.5 -4.45 L4.45 -5.9 4.5 -5.95 4.5 -4.45" fill="#001214" fill-rule="evenodd" stroke="none"/>
      <path d="M14.1 -8.05 L14.1 -6.65 -3.2 0.0 -5.15 -2.1 -5.75 -0.25 -13.95 -4.5 -13.05 -17.85 -4.5 -12.6 -12.55 -19.45 -11.9 -21.4 -9.6 -23.95 -3.0 -22.05 -8.7 -25.85 -8.45 -27.55 -5.95 -30.15 -2.2 -28.75 0.8 -27.2 -3.05 -18.1 -3.25 -15.8 3.45 -15.7 -3.35 -14.85 -3.55 -12.75 -4.9 -7.4 -4.4 -3.1 4.45 -5.9 3.95 -15.25 4.5 -14.8 4.5 -7.55 4.5 -6.75 4.5 -5.95 4.45 -5.9 4.5 -4.45 4.5 -5.95 14.1 -8.05 M-3.35 -14.85 L-3.25 -15.8 -3.35 -14.85" fill="#000000" fill-rule="evenodd" stroke="none"/>
      <path d="M14.1 -16.65 L14.1 -12.65 13.2 -8.65 4.5 -6.75 4.5 -7.55 12.5 -9.0 14.1 -16.65 M-13.05 -17.85 L-12.55 -19.45 -4.5 -12.6 -13.05 -17.85 M-11.9 -21.4 L-8.45 -27.55 -8.7 -25.85 -3.0 -22.05 -9.6 -23.95 -11.9 -21.4" fill="#99501e" fill-rule="evenodd" stroke="none"/>
      <path d="M3.45 -15.7 L3.95 -15.25 4.45 -5.9 -4.4 -3.1 -4.9 -7.4 -3.55 -12.75 -3.35 -14.85 3.45 -15.7" fill="#20180e" fill-rule="evenodd" stroke="none"/>
      <path d="M0.8 -27.2 L14.1 -20.4 14.1 -16.65 12.5 -9.0 4.5 -7.55 4.5 -14.8 3.95 -15.25 3.45 -15.7 -3.25 -15.8 -3.05 -18.1 0.8 -27.2" fill="#100c07" fill-rule="evenodd" stroke="none"/>
      <path d="M14.1 -12.65 L14.1 -8.05 4.5 -5.95 4.5 -6.75 13.2 -8.65 14.1 -12.65" fill="#987c76" fill-rule="evenodd" stroke="none"/>
      <path d="M14.1 -16.65 L14.1 -12.65 14.1 -8.05 14.1 -6.65 -3.2 0.0 -5.15 -2.1 -5.75 -0.25 -13.95 -4.5 -13.05 -17.85 -12.55 -19.45 -11.9 -21.4 -8.45 -27.55 -5.95 -30.15 -2.2 -28.75 0.8 -27.2 14.1 -20.4 14.1 -16.65 M4.5 -7.55 L4.5 -6.75 M3.95 -15.25 L3.45 -15.7 -3.35 -14.85 -3.55 -12.75 -4.9 -7.4 -4.4 -3.1 4.45 -5.9 3.95 -15.25 4.5 -14.8 4.5 -7.55 M4.5 -5.95 L4.45 -5.9 4.5 -4.45 M4.5 -5.95 L4.5 -6.75 M14.1 -8.05 L4.5 -5.95 M-8.45 -27.55 L-8.7 -25.85 -3.0 -22.05 -9.6 -23.95 -11.9 -21.4 M-3.25 -15.8 L-3.35 -14.85 M0.8 -27.2 L-3.05 -18.1 -3.25 -15.8 3.45 -15.7 M-12.55 -19.45 L-4.5 -12.6 -13.05 -17.85" fill="none" stroke="#996002" stroke-linecap="round" stroke-linejoin="round" stroke-opacity="0.3019608" stroke-width="0.5"/>
    </g>
    <g id="sprite4" transform="matrix(1.0, 0.0, 0.0, 1.0, 9.6, 23.0)">
      <use height="24.55" transform="matrix(1.0, 0.0, 0.0, 1.0, -9.6, -23.0)" width="20.05" xlink:href="#shape4"/>
    </g>
    <g id="shape4" transform="matrix(1.0, 0.0, 0.0, 1.0, 9.6, 23.0)">
      <path d="M8.25 -22.15 L2.6 -21.0 -1.0 -15.0 -1.75 -13.75 -3.2 -14.45 -7.95 -12.95 -8.05 -12.95 -8.05 -13.45 -8.05 -12.95 -8.85 -11.35 -9.35 -12.95 -8.05 -13.45 -3.5 -15.25 1.6 -22.2 8.05 -22.75 8.25 -22.15" fill="#99501e" fill-rule="evenodd" stroke="none"/>
      <path d="M8.25 -22.15 L8.8 -13.15 4.9 -11.35 8.8 -13.15 10.2 -6.35 9.8 -2.05 6.95 0.2 5.2 -3.15 5.55 -5.35 6.7 -6.0 6.95 -7.65 2.3 -9.0 4.2 -11.05 4.9 -11.35 2.6 -10.65 2.1 -11.85 2.6 -14.15 2.6 -21.0 8.25 -22.15" fill="#20180e" fill-rule="evenodd" stroke="none"/>
      <path d="M2.6 -21.0 L2.6 -14.15 2.1 -11.85 2.6 -10.65 4.9 -11.35 4.2 -11.05 2.3 -9.0 6.95 -7.65 6.7 -6.0 5.55 -5.35 1.55 -6.2 0.7 -6.9 1.55 -6.2 5.55 -5.35 5.2 -3.15 6.95 0.2 1.55 1.3 -1.35 -0.4 -2.4 -2.5 -5.0 -3.15 -5.05 -3.15 -6.1 -3.4 -8.85 -11.35 -8.05 -12.95 -5.05 -6.5 -5.05 -3.3 -4.5 -5.8 0.45 -6.75 0.7 -6.9 0.45 -6.85 0.25 -6.85 -4.6 -7.05 -7.95 -12.95 -3.2 -14.45 -1.75 -13.75 -1.0 -15.0 2.6 -21.0" fill="#000000" fill-rule="evenodd" stroke="none"/>
      <path d="M-5.05 -6.5 L-8.05 -12.95 -7.95 -12.95 -4.6 -7.05 0.25 -6.85 -5.05 -6.5" fill="#987c76" fill-rule="evenodd" stroke="none"/>
      <path d="M0.25 -6.85 L0.45 -6.85 0.7 -6.9 0.45 -6.75 -4.5 -5.8 -5.05 -3.3 -5.05 -6.5 0.25 -6.85" fill="#89471b" fill-rule="evenodd" stroke="none"/>
      <path d="M8.8 -13.15 L8.25 -22.15 2.6 -21.0 2.6 -14.15 2.1 -11.85 M4.9 -11.35 L8.8 -13.15 10.2 -6.35 9.8 -2.05 6.95 0.2 1.55 1.3 -1.35 -0.4 -2.4 -2.5 -5.0 -3.15 M-5.05 -3.15 L-6.1 -3.4 -8.85 -11.35 -9.35 -12.95 -8.05 -13.45 -3.5 -15.25 1.6 -22.2 8.05 -22.75 8.25 -22.15 M0.7 -6.9 L1.55 -6.2 5.55 -5.35 6.7 -6.0 6.95 -7.65 2.3 -9.0 4.2 -11.05 4.9 -11.35 M-8.05 -12.95 L-8.85 -11.35 M6.95 0.2 L5.2 -3.15 5.55 -5.35 M-7.95 -12.95 L-3.2 -14.45 -1.75 -13.75 -1.0 -15.0 2.6 -21.0 M-8.05 -12.95 L-7.95 -12.95 M-8.05 -13.45 L-8.05 -12.95" fill="none" stroke="#996002" stroke-linecap="round" stroke-linejoin="round" stroke-opacity="0.3019608" stroke-width="0.5"/>
    </g>
    <g id="sprite5" transform="matrix(1.0, 0.0, 0.0, 1.0, 15.75, 30.35)">
      <use height="30.6" transform="matrix(1.0, 0.0, 0.0, 1.0, -15.75, -30.35)" width="31.4" xlink:href="#shape5"/>
    </g>
    <g id="shape5" transform="matrix(1.0, 0.0, 0.0, 1.0, 15.75, 30.35)">
      <path d="M5.8 -5.75 L6.15 -5.85 10.55 -6.9 14.9 -4.45 11.3 -3.85 5.95 -3.0 5.45 -4.55 5.8 -5.75" fill="#362818" fill-rule="evenodd" stroke="none"/>
      <path d="M5.05 -25.1 L5.05 -25.15 5.1 -25.1 5.05 -25.1 M6.95 0.0 L5.35 -0.1 4.5 -2.05 3.45 -4.7 3.4 -4.65 3.4 -4.6 3.35 -4.6 3.25 -4.35 3.25 -4.4 3.3 -4.45 3.35 -4.6 3.3 -4.6 3.25 -4.65 3.3 -4.7 3.3 -4.6 3.3 -4.7 3.35 -4.75 3.4 -4.75 3.4 -4.8 3.4 -4.7 3.4 -4.8 3.4 -4.75 3.4 -4.65 3.4 -4.7 3.45 -4.7 3.4 -4.8 3.4 -4.9 3.4 -5.0 3.45 -5.0 3.45 -4.85 3.45 -4.75 3.45 -4.7 3.5 -4.85 3.5 -4.9 3.5 -4.85 3.45 -4.7 3.45 -4.75 3.45 -4.7 3.45 -4.75 3.45 -4.85 3.5 -4.9 3.55 -4.95 3.45 -5.15 3.45 -5.2 3.3 -5.6 3.45 -5.2 3.45 -5.15 3.55 -4.95 3.5 -5.0 3.45 -5.15 3.45 -5.05 3.45 -5.15 3.5 -5.0 3.45 -5.05 3.3 -5.6 6.0 -6.65 5.8 -5.75 5.45 -4.55 5.95 -3.0 6.95 0.0 M3.45 -5.15 L3.45 -5.2 3.45 -5.15 M3.35 -5.0 L3.4 -4.9 3.4 -4.8 3.45 -4.7 3.4 -4.7 3.4 -4.65 3.4 -4.75 3.35 -5.0 M3.4 -5.0 L3.4 -4.8 3.4 -5.0 M3.4 -4.65 L3.45 -4.7 3.45 -5.0 3.45 -4.7 3.4 -4.65 3.35 -4.6 3.35 -4.75 3.35 -4.6 3.4 -4.65 3.4 -4.6 3.4 -4.65 M3.45 -4.75 L3.5 -4.8 3.45 -4.75 3.5 -4.8 3.45 -4.75 M3.5 -4.85 L3.5 -4.8 3.5 -4.85 M3.25 -4.35 L3.3 -4.45 3.25 -4.35" fill="#1b140c" fill-rule="evenodd" stroke="none"/>
      <path d="M-10.0 -2.0 L-9.7 -3.45 -9.65 -3.45 -9.5 -3.6 -7.3 -3.35 -4.85 -3.05 -4.85 -2.85 -4.9 -0.9 -4.85 -2.85 -0.8 -2.8 2.85 -2.8 2.55 -1.7 2.4 -0.45 -4.9 -0.75 -4.9 -0.9 -10.0 -1.4 -10.0 -2.0 M11.7 -8.25 L11.95 -7.9 9.0 -7.85 6.0 -6.65 3.3 -5.6 3.75 -6.75 5.55 -8.1 11.7 -8.25 M15.4 -4.15 L15.05 -2.6 14.4 -1.05 Q11.15 0.1 7.05 0.0 L6.95 0.0 5.95 -3.0 11.3 -3.85 14.9 -4.45 15.4 -4.15 M4.3 -16.6 L3.85 -16.5 -5.05 -14.55 -6.5 -14.25 -4.55 -15.5 -1.4 -17.2 5.35 -16.85 4.3 -16.6" fill="#000000" fill-rule="evenodd" stroke="none"/>
      <path d="M12.4 -7.0 L12.6 -6.75 15.0 -5.45 15.3 -4.5 15.4 -4.15 14.9 -4.45 10.55 -6.9 6.15 -5.85 10.4 -7.45 12.4 -7.0 M5.1 -16.65 L-2.85 -11.5 2.3 -5.0 1.65 -5.45 -6.3 -13.0 3.85 -16.5 4.3 -16.6 5.35 -16.85 5.1 -16.65" fill="#ff8533" fill-rule="evenodd" stroke="none"/>
      <path d="M11.95 -7.9 L12.1 -7.5 12.4 -7.0 10.4 -7.45 6.15 -5.85 5.8 -5.75 6.0 -6.65 9.0 -7.85 11.95 -7.9 M-5.05 -14.55 L3.85 -16.5 -6.3 -13.0 1.65 -5.45 -8.15 -13.1 -5.05 -14.55" fill="#fecfc5" fill-rule="evenodd" stroke="none"/>
      <path d="M4.75 -26.25 Q3.7 -27.5 -1.05 -24.1 L-14.1 -15.0 -12.85 -23.55 -12.85 -23.75 -12.35 -25.9 -9.55 -29.65 -1.0 -30.1 2.9 -28.9 4.55 -27.0 4.75 -26.25" fill="url(#gradient1)" fill-rule="evenodd" stroke="none"/>
      <path d="M5.05 -25.1 L5.1 -25.1 5.25 -24.45 7.6 -21.5 10.5 -15.2 5.1 -16.65 5.35 -16.85 -1.4 -17.2 -4.55 -15.5 -6.5 -14.25 -5.05 -14.55 -8.15 -13.1 1.65 -5.45 2.3 -5.0 3.35 -5.0 3.3 -4.7 3.25 -4.65 3.25 -4.6 3.3 -4.6 3.25 -4.5 3.25 -4.6 3.25 -4.5 3.3 -4.6 3.3 -4.45 3.3 -4.6 3.35 -4.6 3.3 -4.45 3.25 -4.4 3.25 -4.35 2.85 -2.8 -0.8 -2.8 -4.85 -2.85 -4.85 -3.05 -7.3 -3.35 -9.5 -3.6 -8.45 -4.65 -9.0 -6.0 -10.85 -10.05 -12.4 -14.6 Q-10.2 -17.45 -4.55 -19.05 L0.1 -20.1 Q-1.9 -20.25 5.05 -25.1 M3.55 -4.95 L3.5 -4.9 3.45 -4.85 3.45 -5.0 3.5 -5.0 3.55 -4.95 M3.35 -5.0 L3.4 -5.0 3.4 -4.9 3.35 -5.0 3.4 -4.75 3.35 -4.75 3.35 -5.0 M3.5 -5.0 L3.5 -4.9 3.5 -5.0 M3.25 -4.4 L3.25 -4.5 3.25 -4.35 3.25 -4.5 3.25 -4.4 M-1.6 -5.0 Q-1.8 -4.8 -3.05 -4.1 -4.3 -3.35 -4.55 -3.3 L-4.85 -3.25 -4.85 -3.05 -4.85 -3.25 -4.55 -3.3 Q-4.3 -3.35 -3.05 -4.1 -1.8 -4.8 -1.6 -5.0" fill="url(#gradient2)" fill-rule="evenodd" stroke="none"/>
      <path d="M5.05 -25.15 L5.05 -25.1 Q-1.9 -20.25 0.1 -20.1 L-4.55 -19.05 Q-10.2 -17.45 -12.4 -14.6 L-10.85 -10.05 -9.0 -6.0 -8.45 -4.65 -9.5 -3.6 -9.65 -3.45 -9.7 -3.45 -10.0 -2.0 -12.95 -2.0 -14.35 -3.25 Q-13.85 -3.55 -13.6 -4.0 -13.35 -4.8 -14.1 -5.75 L-12.55 -6.85 -12.9 -8.4 -13.0 -10.1 -15.5 -16.4 -14.95 -18.1 -14.95 -18.25 Q-14.15 -21.5 -12.85 -23.55 L-14.1 -15.0 -1.05 -24.1 Q3.7 -27.5 4.75 -26.25 L5.05 -25.15" fill="url(#gradient3)" fill-rule="evenodd" stroke="none"/>
      <path d="M10.5 -15.2 L10.6 -14.85 11.45 -10.75 Q11.5 -8.7 11.7 -8.25 L5.55 -8.1 3.75 -6.75 3.3 -5.6 3.35 -5.0 3.3 -5.6 3.4 -5.0 3.3 -5.6 3.45 -5.05 3.5 -5.0 3.45 -5.0 3.4 -5.0 3.35 -5.0 2.3 -5.0 -2.85 -11.5 5.1 -16.65 10.5 -15.2 M3.45 -5.05 L3.45 -5.0 3.45 -5.05" fill="url(#gradient4)" fill-rule="evenodd" stroke="none"/>
      <path d="M5.05 -25.15 L5.05 -25.1 M5.1 -25.1 L5.05 -25.15 4.75 -26.25 Q3.7 -27.5 -1.05 -24.1 L-14.1 -15.0 -12.85 -23.55 Q-14.15 -21.5 -14.95 -18.25 L-14.95 -18.1 -15.5 -16.4 -13.0 -10.1 -12.9 -8.4 -12.55 -6.85 -14.1 -5.75 Q-13.35 -4.8 -13.6 -4.0 -13.85 -3.55 -14.35 -3.25 L-12.95 -2.0 -10.0 -2.0 -9.7 -3.45 -9.65 -3.45 M-9.5 -3.6 L-8.45 -4.65 -9.0 -6.0 -10.85 -10.05 -12.4 -14.6 Q-10.2 -17.45 -4.55 -19.05 L0.1 -20.1 Q-1.9 -20.25 5.05 -25.1 M4.75 -26.25 L4.55 -27.0 2.9 -28.9 -1.0 -30.1 -9.55 -29.65 -12.35 -25.9 -12.85 -23.75 -12.85 -23.55 M10.5 -15.2 L10.6 -14.85 11.45 -10.75 Q11.5 -8.7 11.7 -8.25 L11.95 -7.9 12.1 -7.5 12.4 -7.0 M12.6 -6.75 L15.0 -5.45 15.3 -4.5 15.4 -4.15 15.05 -2.6 14.4 -1.05 Q11.15 0.1 7.05 0.0 L6.95 0.0 5.35 -0.1 4.5 -2.05 3.45 -4.7 3.4 -4.65 3.4 -4.6 3.35 -4.6 3.25 -4.35 3.25 -4.4 3.25 -4.35 2.85 -2.8 2.55 -1.7 2.4 -0.45 -4.9 -0.75 -4.9 -0.9 -10.0 -1.4 -10.0 -2.0 M5.1 -25.1 L5.25 -24.45 7.6 -21.5 10.5 -15.2 M2.3 -5.0 L3.35 -5.0 3.3 -5.6 3.75 -6.75 5.55 -8.1 11.7 -8.25 M4.3 -16.6 L5.35 -16.85 -1.4 -17.2 -4.55 -15.5 -6.5 -14.25 -5.05 -14.55 3.85 -16.5 M6.0 -6.65 L9.0 -7.85 11.95 -7.9 M3.3 -5.6 L3.45 -5.2 3.45 -5.15 3.55 -4.95 3.5 -4.9 3.5 -4.85 3.45 -4.7 3.45 -4.75 3.45 -4.7 3.4 -4.8 3.4 -4.9 3.4 -5.0 3.45 -5.0 3.45 -5.05 3.3 -5.6 6.0 -6.65 5.8 -5.75 M3.5 -5.0 L3.45 -5.15 3.45 -5.05 3.5 -5.0 3.55 -4.95 M3.45 -5.2 L3.45 -5.15 M3.3 -4.7 L3.35 -5.0 3.4 -5.0 3.3 -5.6 M3.3 -4.7 L3.25 -4.65 3.3 -4.6 3.3 -4.7 3.35 -4.75 3.35 -5.0 3.4 -4.9 M3.4 -4.7 L3.4 -4.8 3.4 -4.75 3.4 -4.65 3.4 -4.7 3.45 -4.7 3.4 -4.65 3.4 -4.6 M3.4 -4.8 L3.4 -5.0 M3.45 -4.85 L3.45 -5.0 3.45 -4.7 M3.45 -4.75 L3.45 -4.85 3.5 -4.9 3.5 -5.0 3.45 -5.0 M3.45 -4.75 L3.5 -4.8 3.45 -4.75 M3.4 -4.75 L3.35 -4.75 3.35 -4.6 3.4 -4.65 M3.4 -4.75 L3.35 -5.0 M3.5 -4.8 L3.5 -4.85 M3.25 -4.6 L3.25 -4.5 3.3 -4.6 3.25 -4.6 3.25 -4.65 M3.25 -4.35 L3.25 -4.5 3.25 -4.4 3.3 -4.45 3.3 -4.6 3.35 -4.6 3.3 -4.45 3.25 -4.35 M5.95 -3.0 L5.45 -4.55 5.8 -5.75 M5.95 -3.0 L11.3 -3.85 M6.95 0.0 L5.95 -3.0 M-7.3 -3.35 L-9.5 -3.6 M-4.85 -3.05 L-4.85 -3.25 -4.55 -3.3 Q-4.3 -3.35 -3.05 -4.1 -1.8 -4.8 -1.6 -5.0 M-4.85 -2.85 L-4.85 -3.05 M-4.9 -0.9 L-4.85 -2.85 -0.8 -2.8" fill="none" stroke="#ffa004" stroke-linecap="round" stroke-linejoin="round" stroke-opacity="0.3019608" stroke-width="0.5"/>
    </g>
    <linearGradient gradientTransform="matrix(-0.0138, 1.0E-4, -1.0E-4, -0.0085, -1.15, -28.65)" gradientUnits="userSpaceOnUse" id="gradient1" spreadMethod="pad" x1="-819.2" x2="819.2">
      <stop offset="0.03529411764705882" stop-color="#63492c"/>
      <stop offset="1.0" stop-color="#241a10"/>
    </linearGradient>
    <linearGradient gradientTransform="matrix(0.011, 0.0084, -0.0052, 0.0068, -11.35, -11.1)" gradientUnits="userSpaceOnUse" id="gradient2" spreadMethod="pad" x1="-819.2" x2="819.2">
      <stop offset="0.0" stop-color="#63492c"/>
      <stop offset="1.0" stop-color="#241a10"/>
    </linearGradient>
    <linearGradient gradientTransform="matrix(-0.0094, 0.0083, -0.0099, -0.0113, 0.8, -17.7)" gradientUnits="userSpaceOnUse" id="gradient3" spreadMethod="pad" x1="-819.2" x2="819.2">
      <stop offset="0.0" stop-color="#63492c"/>
      <stop offset="0.00392156862745098" stop-color="#4f3a23"/>
      <stop offset="1.0" stop-color="#000000"/>
    </linearGradient>
    <linearGradient gradientTransform="matrix(-0.0065, 0.006, -0.0048, -0.0052, 9.85, -16.1)" gradientUnits="userSpaceOnUse" id="gradient4" spreadMethod="pad" x1="-819.2" x2="819.2">
      <stop offset="0.0" stop-color="#63492c"/>
      <stop offset="0.9568627450980393" stop-color="#140e09"/>
    </linearGradient>
    <g id="shape6" transform="matrix(1.0, 0.0, 0.0, 1.0, -7.85, -26.75)">
      <path d="M7.85 28.3 L8.5 26.75 11.6 26.75 17.0 28.0 21.6 28.0 22.55 30.35 18.1 31.55 13.9 31.55 12.5 30.45 12.5 31.85 7.85 28.3" fill="#000000" fill-opacity="0.5137255" fill-rule="evenodd" stroke="none"/>
    </g>
    <g id="sprite6" transform="matrix(1.0, 0.0, 0.0, 1.0, 15.05, 32.65)">
      <use height="32.9" transform="matrix(1.0, 0.0, 0.0, 1.0, -15.05, -32.65)" width="30.05" xlink:href="#shape7"/>
    </g>
    <g id="shape7" transform="matrix(1.0, 0.0, 0.0, 1.0, 15.05, 32.65)">
      <path d="M6.8 -24.25 L6.85 -24.2 5.05 -16.5 -8.2 -22.9 -8.2 -23.0 -6.15 -32.15 -6.1 -32.3 -2.35 -30.1 -1.8 -29.85 4.5 -26.0 6.6 -24.55 6.65 -24.5 6.8 -24.25 M-6.75 -1.05 Q-11.7 -3.95 -14.65 -7.0 L-14.8 -10.7 Q-14.85 -15.9 -13.7 -21.0 L-13.2 -22.5 -13.2 -22.7 -12.75 -24.0 -12.55 -24.5 Q-10.0 -28.0 -8.9 -30.25 L-7.95 -31.1 -10.0 -19.9 -9.9 -19.75 -6.6 -14.7 -6.65 -14.65 -14.4 -10.15 -13.7 -7.3 -6.75 -1.05" fill="#241a0f" fill-rule="evenodd" stroke="none"/>
      <path d="M6.85 -24.2 L8.75 -21.55 9.05 -21.1 12.85 -15.7 14.4 -3.0 14.3 -2.95 8.4 -8.15 8.5 -8.2 5.05 -16.5 6.85 -24.2" fill="#000000" fill-rule="evenodd" stroke="none"/>
      <path d="M6.9 -24.3 L6.8 -24.25 6.65 -24.5 6.9 -24.3" fill="#fecfc5" fill-rule="evenodd" stroke="none"/>
      <path d="M8.4 -8.15 L14.3 -2.95 Q8.8 -0.1 -3.0 0.0 L-3.8 0.0 -6.1 -2.15 8.3 -8.1 8.4 -8.15" fill="#0f0a06" fill-rule="evenodd" stroke="none"/>
      <path d="M-8.2 -22.9 L5.05 -16.5 8.5 -8.2 8.4 -8.15 8.3 -8.1 -6.6 -14.6 -6.6 -14.7 -8.85 -20.1 -8.2 -22.9" fill="url(#gradient5)" fill-rule="evenodd" stroke="none"/>
      <path d="M14.75 -10.45 L13.5 -17.5 13.45 -17.7 9.05 -21.1 8.75 -21.55 6.85 -24.2 6.8 -24.25 6.9 -24.3 Q10.9 -21.4 14.75 -17.75 L14.75 -10.45 M-6.1 -32.3 L-6.15 -32.15 -9.9 -19.75 -10.0 -19.9 -7.95 -31.1 -6.3 -32.4 -6.1 -32.3" fill="#ffd433" fill-rule="evenodd" stroke="none"/>
      <path d="M-8.2 -23.0 L-8.2 -22.9 -8.2 -23.0 M-6.65 -14.65 L-6.6 -14.7 -6.6 -14.6 -6.65 -14.65" fill="#362818" fill-rule="evenodd" stroke="none"/>
      <path d="M9.05 -21.1 L13.45 -17.7 13.5 -17.5 14.75 -10.45 14.75 -3.2 14.4 -3.0 12.85 -15.7 9.05 -21.1 M-6.15 -32.15 L-8.2 -23.0 -8.2 -22.9 -8.85 -20.1 -6.6 -14.7 -9.9 -19.75 -6.15 -32.15" fill="#ff8533" fill-rule="evenodd" stroke="none"/>
      <path d="M8.3 -8.1 L-6.1 -2.15 -6.1 -0.7 -6.75 -1.05 -13.7 -7.3 -14.4 -10.15 -6.65 -14.65 -6.6 -14.6 8.3 -8.1" fill="url(#gradient6)" fill-rule="evenodd" stroke="none"/>
      <path d="M14.75 -10.45 L14.75 -17.75 Q10.9 -21.4 6.9 -24.3 L6.65 -24.5 M14.4 -3.0 L14.75 -3.2 14.75 -10.45 M6.6 -24.55 L4.5 -26.0 -1.8 -29.85 -2.35 -30.1 -6.1 -32.3 M14.3 -2.95 L14.4 -3.0 M-6.1 -2.15 L-3.8 0.0 -3.0 0.0 Q8.8 -0.1 14.3 -2.95 M-7.95 -31.1 L-8.9 -30.25 Q-10.0 -28.0 -12.55 -24.5 L-12.75 -24.0 -13.2 -22.7 -13.2 -22.5 -13.7 -21.0 Q-14.85 -15.9 -14.8 -10.7 L-14.65 -7.0 Q-11.7 -3.95 -6.75 -1.05 L-6.1 -0.7 -6.1 -2.15 M-7.95 -31.1 L-6.3 -32.4 -6.1 -32.3" fill="none" stroke="#ffa004" stroke-linecap="round" stroke-linejoin="round" stroke-opacity="0.3019608" stroke-width="0.5"/>
      <path d="M9.05 -21.1 L13.45 -17.7 13.5 -17.5 14.75 -10.45 M8.75 -21.55 L9.05 -21.1 M-9.9 -19.75 L-6.15 -32.15" fill="none" stroke="#ffa005" stroke-linecap="round" stroke-linejoin="round" stroke-opacity="0.4" stroke-width="0.5"/>
      <path d="M8.45 -8.25 Q5.5 -6.65 -5.6 -2.2 L4.0 -8.1 -7.0 -14.8 Q3.55 -9.3 5.25 -9.45 5.95 -12.3 5.15 -16.75 L8.45 -8.25" fill="#ffe49e" fill-opacity="0.52156866" fill-rule="evenodd" stroke="none"/>
    </g>
    <linearGradient gradientTransform="matrix(0.0018, 0.0104, -0.0089, 0.0015, -1.2, -15.95)" gradientUnits="userSpaceOnUse" id="gradient5" spreadMethod="pad" x1="-819.2" x2="819.2">
      <stop offset="0.0" stop-color="#63492c"/>
      <stop offset="1.0" stop-color="#1c140c"/>
    </linearGradient>
    <linearGradient gradientTransform="matrix(0.011, 0.0084, -0.0052, 0.0068, -7.2, -10.55)" gradientUnits="userSpaceOnUse" id="gradient6" spreadMethod="pad" x1="-819.2" x2="819.2">
      <stop offset="0.0" stop-color="#63492c"/>
      <stop offset="1.0" stop-color="#241a10"/>
    </linearGradient>
    <g id="sprite7" transform="matrix(1.0, 0.0, 0.0, 1.0, 10.05, 24.3)">
      <use height="24.55" transform="matrix(1.0, 0.0, 0.0, 1.0, -10.05, -24.3)" width="20.05" xlink:href="#shape8"/>
    </g>
    <g id="shape8" transform="matrix(1.0, 0.0, 0.0, 1.0, 10.05, 24.3)">
      <path d="M-8.5 -14.5 L-3.35 -16.45 1.4 -22.9 5.1 -23.8 7.6 -24.05 7.8 -23.45 2.15 -22.3 -1.45 -16.3 -2.2 -15.05 -3.65 -15.75 -8.4 -14.25 -8.5 -14.25 -8.5 -14.5 -8.5 -14.25 -9.3 -12.65 -9.8 -14.25 -8.5 -14.75 -8.5 -14.5" fill="#ff8533" fill-rule="evenodd" stroke="none"/>
      <path d="M2.15 -22.3 L7.8 -23.45 8.35 -14.45 4.45 -12.65 2.15 -11.95 4.45 -12.65 8.35 -14.45 9.75 -7.65 9.35 -3.35 6.5 -1.1 4.75 -4.45 5.1 -6.65 6.25 -7.3 6.5 -8.95 1.85 -10.3 2.15 -11.95 2.15 -22.3" fill="#362818" fill-rule="evenodd" stroke="none"/>
      <path d="M-8.4 -14.25 L-3.65 -15.75 -2.2 -15.05 -1.45 -16.3 2.15 -22.3 2.15 -11.95 1.85 -10.3 6.5 -8.95 6.25 -7.3 5.1 -6.65 4.75 -4.45 6.5 -1.1 1.1 0.0 -1.8 -1.7 -2.85 -3.8 -5.45 -4.45 -5.5 -4.45 -6.55 -4.7 -9.3 -12.65 -8.5 -14.25 -5.5 -7.8 -5.5 -4.6 -4.95 -7.1 0.7 -7.45 1.1 -7.5 5.1 -6.65 1.1 -7.5 -5.05 -8.35 -8.4 -14.25" fill="#000000" fill-rule="evenodd" stroke="none"/>
      <path d="M-8.5 -14.25 L-8.4 -14.25 -5.05 -8.35 1.1 -7.5 -5.5 -7.8 -8.5 -14.25" fill="#fecfc5" fill-rule="evenodd" stroke="none"/>
      <path d="M1.1 -7.5 L0.7 -7.45 -4.95 -7.1 -5.5 -4.6 -5.5 -7.8 1.1 -7.5" fill="#e5772d" fill-rule="evenodd" stroke="none"/>
      <path d="M5.1 -23.8 L1.4 -22.9 -3.35 -16.45 -8.5 -14.5 -8.5 -14.75 -3.95 -16.55 1.15 -23.5 5.1 -23.8" fill="#ffd433" fill-rule="evenodd" stroke="none"/>
      <path d="M5.1 -23.8 L1.15 -23.5 -3.95 -16.55 -8.5 -14.75 -8.5 -14.5 -8.5 -14.25 -8.4 -14.25 -3.65 -15.75 -2.2 -15.05 -1.45 -16.3 2.15 -22.3 7.8 -23.45 7.6 -24.05 5.1 -23.8 M8.35 -14.45 L7.8 -23.45 M2.15 -11.95 L4.45 -12.65 8.35 -14.45 9.75 -7.65 9.35 -3.35 6.5 -1.1 1.1 0.0 -1.8 -1.7 -2.85 -3.8 -5.45 -4.45 M-5.5 -4.45 L-6.55 -4.7 -9.3 -12.65 -9.8 -14.25 -8.5 -14.75 M2.15 -11.95 L1.85 -10.3 6.5 -8.95 6.25 -7.3 5.1 -6.65 4.75 -4.45 6.5 -1.1 M0.7 -7.45 L1.1 -7.5 5.1 -6.65 M2.15 -22.3 L2.15 -11.95 M-8.5 -14.25 L-9.3 -12.65" fill="none" stroke="#ffa005" stroke-linecap="round" stroke-linejoin="round" stroke-opacity="0.4" stroke-width="0.5"/>
    </g>
    <g id="shape9" transform="matrix(1.0, 0.0, 0.0, 1.0, -6.65, -4.55)">
      <path d="M33.4 5.25 L29.65 5.55 26.75 9.6 23.4 10.9 23.65 11.7 22.75 11.4 22.05 12.15 21.65 10.35 21.5 5.2 21.3 4.8 17.25 5.15 13.95 9.15 10.2 10.5 10.7 11.95 10.3 12.35 8.2 15.65 8.05 15.95 7.85 16.65 7.85 16.75 7.55 17.65 Q6.9 20.6 6.9 23.55 L7.0 25.7 8.4 26.95 8.25 27.5 7.85 28.3 7.95 28.45 7.85 28.75 7.85 28.8 7.5 29.85 8.95 33.4 9.05 34.45 9.2 35.35 8.3 35.95 Q8.75 36.5 8.65 36.95 L8.2 37.4 8.95 38.1 10.65 38.1 10.65 38.45 13.65 38.75 13.65 38.8 17.85 39.0 17.9 38.3 18.3 36.75 18.35 36.7 18.35 36.6 18.3 36.6 18.3 36.55 18.35 36.6 18.4 36.6 18.4 36.55 19.0 38.1 19.5 39.2 20.4 39.25 20.45 39.25 24.75 38.65 25.05 37.75 25.3 36.85 25.25 36.7 25.05 36.1 23.65 35.4 23.4 34.95 23.35 34.7 23.15 34.5 23.0 33.1 22.7 31.55 27.3 34.25 30.0 34.05 32.9 36.05 Q34.5 36.05 35.6 35.35 36.7 34.55 36.7 33.5 37.5 33.5 38.15 32.8 38.7 32.2 38.7 31.25 L38.8 31.1 Q38.8 29.1 37.8 27.7 36.75 26.25 35.25 26.25 L35.2 26.2 33.6 25.2 34.3 24.9 34.3 17.2 34.4 17.15 34.65 14.7 33.8 10.75 33.55 5.6 33.4 5.25 Z" fill="none" stroke="#000000" stroke-linecap="round" stroke-linejoin="round" stroke-opacity="0.3019608" stroke-width="0.5"/>
    </g>
  </defs>
</svg>
