<?xml version="1.0" encoding="UTF-8" standalone="no"?>
<svg xmlns:xlink="http://www.w3.org/1999/xlink" height="440.0px" width="440.0px" xmlns="http://www.w3.org/2000/svg">
  <g transform="matrix(10.0, 0.0, 0.0, 10.0, 0.0, 0.0)">
    <use height="44.0" transform="matrix(1.0, 0.0, 0.0, 1.0, 0.0, 0.0)" width="44.0" xlink:href="#shape0"/>
  </g>
  <defs>
    <g id="shape0" transform="matrix(1.0, 0.0, 0.0, 1.0, 0.0, 0.0)">
      <path d="M44.0 44.0 L0.0 44.0 0.0 0.0 44.0 0.0 44.0 44.0" fill="#43adca" fill-opacity="0.0" fill-rule="evenodd" stroke="none"/>
      <path d="M24.3 19.95 L23.7 19.85 23.75 19.9 24.3 19.95 25.65 20.4 26.3 20.6 30.0 21.9 31.2 22.4 M11.4 18.1 L11.8 18.2 12.2 18.5 12.45 18.6 12.65 18.7 12.85 19.0 Q17.05 20.55 20.25 22.05 21.55 22.6 22.65 23.2 L23.1 23.4 24.2 24.1 27.65 26.25 27.85 26.4 28.6 27.85 28.8 28.7 28.9 30.2 28.5 31.85 27.85 33.15 27.5 33.7 27.45 33.8 27.4 33.8 27.3 33.9 27.05 34.0 26.95 34.05 26.8 34.1 26.85 34.1 27.1 34.05 28.3 33.6 29.0 32.85 Q29.8 31.6 30.0 30.2 L29.95 28.35 29.8 27.7 29.1 26.25 29.0 26.1 28.75 25.9 25.3 23.8 24.2 23.1 23.75 22.9 21.1 21.6 Q18.3 20.3 14.75 18.95 L13.95 18.55 15.45 18.6 15.6 18.6 22.15 19.5 23.3 19.8 23.55 19.8 23.65 19.85 23.7 19.85 M39.25 20.4 L39.3 19.95 39.35 19.65 39.25 20.4 38.85 20.8 38.8 20.8 38.75 21.05 38.7 21.05 37.85 21.7 37.7 21.85 36.6 22.2 36.55 22.25 36.4 22.15 36.25 22.3 36.2 22.3 35.0 22.45 34.25 22.55 33.85 22.55 33.6 22.6 32.0 22.8 31.8 22.8 30.5 22.85 30.15 22.85 29.6 22.85 29.55 22.85 29.0 22.8 28.85 22.85 28.75 22.85 28.7 22.85 28.55 22.85 28.5 22.85 28.45 22.8 28.35 22.85 28.15 22.8 27.8 22.8 27.7 22.75 27.25 22.6 27.15 22.6 26.75 22.6 26.65 22.6 24.4 22.3 22.05 21.85 21.75 21.75 21.1 21.6 M29.55 22.85 L29.6 22.8 30.15 22.85 M30.5 22.85 L31.35 22.8 31.8 22.8 M39.55 22.65 L40.55 22.8 40.65 22.8 40.65 22.6 Q40.65 21.4 39.65 21.2 L39.6 21.25 39.1 21.35 38.75 21.4 Q38.2 21.7 37.7 22.95 L37.55 23.25 Q37.2 24.35 37.2 25.15 L37.35 26.0 Q37.6 26.75 38.2 26.9 L38.45 26.9 39.4 26.5 39.55 26.0 39.35 25.85 38.75 25.9 38.7 25.9 38.6 25.9 38.6 25.85 38.95 23.65 M26.95 34.05 L26.15 33.95 26.1 33.95 26.05 33.95 Q25.65 34.3 25.35 34.6 L25.3 34.65 25.2 34.7 24.3 35.3 Q22.75 36.15 21.65 35.55 20.6 35.25 20.35 34.05 19.5 34.25 18.8 33.85 17.45 33.45 17.45 31.55 L17.7 30.1 18.0 29.35 15.5 28.1 13.85 28.95 Q13.6 28.1 13.6 27.25 L13.35 27.15 11.4 26.3 11.2 26.2 10.55 25.85 10.2 25.8 9.9 25.55 9.55 25.45 7.5 24.15 6.85 24.25 6.8 23.85 6.75 23.65 6.25 23.2 4.9 21.65 4.8 21.35 4.75 21.25 4.7 21.1 4.65 21.0 4.6 20.7 4.6 20.6 4.5 19.9 4.3 19.8 3.7 19.0 3.75 18.55 3.15 18.4 3.05 18.35 1.6 18.95 1.6 18.6 1.85 16.7 Q2.4 15.3 3.2 15.0 L4.2 15.35 4.0 15.1 4.3 15.2 4.4 15.0 Q4.85 14.05 5.65 14.2 L5.7 14.2 5.9 14.25 6.35 14.6 6.4 13.95 6.65 13.75 6.55 13.65 6.65 13.55 6.65 13.5 6.4 13.15 6.4 13.05 6.3 13.0 4.95 12.5 5.2 12.25 6.65 11.05 Q7.85 10.5 8.6 10.7 L10.05 10.2 11.85 9.75 14.35 9.7 22.15 10.5 23.45 10.7 Q28.4 11.8 32.3 13.55 L34.75 14.75 Q38.6 16.85 39.3 18.8 L39.4 19.0 39.4 19.05 39.45 19.1 39.4 19.15 39.4 19.2 39.45 19.25 39.45 19.45 39.5 19.5 39.5 19.6 39.6 20.6 39.55 20.6 39.6 20.8 39.6 21.15 39.6 21.25 M39.3 18.8 L39.4 19.05 M39.55 26.0 L40.1 26.2 40.25 26.2 41.2 27.4 41.4 27.05 42.1 25.3 Q42.25 23.8 41.65 23.15 L40.6 23.0 40.65 22.8 40.95 22.85 40.6 23.0 M38.2 26.9 L38.1 27.05 37.75 27.7 37.7 27.85 37.5 28.25 Q36.75 29.1 35.0 29.6 L34.3 31.2 32.95 30.0 32.2 30.05 32.15 30.05 30.4 30.15 30.0 30.2 M36.0 24.65 Q36.5 25.25 36.55 26.1 L36.55 26.35 35.95 27.2 35.25 27.9 35.25 28.05 35.05 29.2 35.0 29.6 M32.7 23.7 Q31.8 23.7 30.9 24.65 L30.75 24.8 Q29.75 25.85 29.75 26.9 L29.95 27.7 30.35 28.35 Q31.0 29.05 31.75 29.0 L31.9 29.0 32.15 28.85 31.75 28.25 31.4 27.5 31.35 27.3 Q31.35 26.45 32.1 26.05 L32.75 25.8 33.1 25.6 Q34.25 25.15 35.25 26.7 L35.25 26.75 35.25 27.9 M32.95 30.0 L32.45 29.3 32.4 29.2 32.15 28.85 M18.0 29.35 L18.1 29.15 18.35 28.65 18.4 28.6 Q19.0 27.65 19.75 27.1 L20.2 26.8 20.45 26.65 20.7 26.45 21.3 26.2 21.45 26.15 21.55 26.15 21.75 26.05 21.9 26.05 21.95 26.05 Q22.35 26.1 22.55 26.3 L22.75 26.95 22.65 27.6 22.2 27.6 Q21.8 27.65 21.45 27.85 L21.4 27.9 20.6 28.5 20.3 28.75 19.75 29.5 19.4 30.1 19.8 30.3 20.9 30.95 20.95 30.85 21.2 30.35 21.25 30.3 Q22.0 29.1 23.05 28.5 L23.15 28.45 23.3 28.35 23.55 28.15 24.15 27.9 24.3 27.85 24.4 27.85 24.6 27.8 24.6 27.75 24.75 27.75 25.15 27.85 Q25.6 28.05 25.6 28.65 L25.5 29.3 25.05 29.3 Q24.65 29.35 24.3 29.55 L24.25 29.6 23.45 30.2 23.15 30.45 22.6 31.2 22.35 31.6 23.15 32.3 24.6 33.1 24.6 33.05 24.75 33.1 26.05 33.95 M23.15 32.3 L22.5 32.9 22.45 32.95 21.9 33.35 Q21.9 33.85 22.2 34.05 L22.25 34.1 Q22.8 34.35 23.55 33.9 L24.6 33.1 M27.4 33.8 Q27.4 33.6 27.5 33.7 M8.6 10.7 L8.8 10.75 9.35 11.7 9.35 11.35 9.5 11.6 9.65 11.55 Q10.85 11.15 11.3 12.05 L11.4 12.6 11.4 12.95 Q11.35 13.6 10.25 14.5 L10.0 14.7 8.8 15.4 8.35 15.55 8.0 15.65 8.2 15.8 8.8 16.35 9.0 16.5 9.2 16.65 9.3 16.8 9.35 16.8 10.8 17.7 M9.5 11.6 L9.5 11.7 10.1 12.7 M9.35 11.7 Q9.45 11.55 9.5 11.6 M9.3 16.8 L9.25 16.8 9.2 16.65 M9.3 13.45 L7.2 14.5 7.15 14.4 7.0 13.8 6.8 13.65 6.65 13.75 M6.8 13.65 L6.65 13.5 M4.3 15.2 L4.4 15.25 5.5 15.55 M4.2 15.35 L4.3 15.2 M8.0 15.65 L6.85 15.65 6.8 16.7 6.8 17.05 6.3 18.75 6.25 18.85 6.2 18.95 Q5.4 20.25 4.5 19.9 M5.45 16.75 L5.35 17.0 4.65 18.85 4.55 18.8 4.45 18.75 4.0 18.5 3.75 18.55 M6.35 14.6 L6.6 14.8 6.85 15.65 M7.5 24.15 L8.35 23.95 10.75 23.45 10.7 22.8 10.8 22.25 10.15 20.8 9.9 20.45 8.25 19.5 7.15 19.95 7.05 20.0 6.8 20.9 6.55 22.25 6.55 22.55 6.75 23.65 M6.55 22.55 L6.5 22.3 6.55 22.25 6.25 21.9 Q5.5 20.75 6.3 19.5 L6.45 19.25 Q7.15 18.25 7.9 18.25 L8.55 18.35 M11.4 26.3 L13.6 27.25 13.65 26.35 13.8 25.25 13.85 25.05 13.75 24.95 13.7 24.9 13.6 24.65 Q13.35 24.05 13.65 23.35 14.0 22.6 14.8 22.2 L17.05 22.25 Q18.5 22.75 18.85 23.55 M13.85 25.05 L13.9 24.75 14.1 24.25 Q14.85 23.4 16.2 23.95 L16.6 24.0 Q17.8 24.4 17.65 26.05 L17.55 26.25 16.75 27.15 16.15 27.65 17.0 28.05 18.25 28.15 19.4 27.0 M16.15 27.65 L15.8 27.85 15.5 28.1 M22.35 31.6 L22.1 32.15 M19.1 31.0 L19.05 31.55 Q19.05 32.15 19.35 32.35 L19.4 32.4 20.4 32.35 20.55 31.8 20.9 30.95 M19.4 30.1 L19.25 30.45 M20.35 34.05 L20.3 33.55 20.3 33.25 20.4 32.35 M21.95 32.7 L21.9 33.25 21.9 33.35 M12.35 21.65 Q12.5 22.85 12.1 23.5 L12.0 23.7 Q11.35 24.5 10.35 24.5 L8.35 23.95" fill="none" stroke="#000000" stroke-linecap="round" stroke-linejoin="round" stroke-opacity="0.2" stroke-width="0.7000000000000001"/>
      <path d="M6.8 13.65 L6.4 13.15 6.4 13.05 4.95 12.5 5.2 12.25 7.6 11.4 8.3 11.85 7.3 11.95 9.0 13.6 7.2 14.5 7.15 14.4 7.0 13.8 6.8 13.65" fill="#c9ba8b" fill-rule="evenodd" stroke="none"/>
      <path d="M5.2 12.25 L6.65 11.05 Q8.05 10.4 8.8 10.75 L9.35 11.7 9.35 11.35 9.5 11.6 Q9.45 11.55 9.35 11.7 L9.5 11.7 10.2 12.9 9.0 13.6 7.3 11.95 8.3 11.85 7.6 11.4 5.2 12.25" fill="#f6f3eb" fill-rule="evenodd" stroke="none"/>
      <path d="M9.5 11.6 L9.5 11.7 9.35 11.7 Q9.45 11.55 9.5 11.6" fill="#684470" fill-rule="evenodd" stroke="none"/>
      <path d="M9.65 11.55 Q10.85 11.15 11.3 12.05 L11.4 12.6 11.4 12.95 Q11.35 13.6 10.25 14.5 L10.0 14.7 8.35 15.55 Q6.65 16.1 6.3 14.95 L6.4 13.95 6.8 13.65 7.0 13.8 7.15 14.4 7.2 14.5 9.0 13.6 10.2 12.9 9.5 11.7 9.65 11.55" fill="#990000" fill-rule="evenodd" stroke="none"/>
      <path d="M6.8 13.65 L6.4 13.15 6.4 13.05 4.95 12.5 5.2 12.25 6.65 11.05 Q8.05 10.4 8.8 10.75 L9.35 11.7 9.35 11.35 9.5 11.6 9.5 11.7 10.2 12.9 9.0 13.6 7.2 14.5 7.15 14.4 7.0 13.8 6.8 13.65" fill="none" stroke="#000000" stroke-linecap="round" stroke-linejoin="round" stroke-opacity="0.4" stroke-width="0.05"/>
      <path d="M9.65 11.55 Q10.85 11.15 11.3 12.05 L11.4 12.6 11.4 12.95 M10.0 14.7 L8.35 15.55 Q6.65 16.1 6.3 14.95 L6.4 13.95 6.8 13.65 M9.5 11.6 L9.65 11.55 M9.35 11.7 Q9.45 11.55 9.5 11.6" fill="none" stroke="#000000" stroke-linecap="round" stroke-linejoin="round" stroke-opacity="0.3019608" stroke-width="0.05"/>
      <path d="M11.4 12.95 Q11.35 13.6 10.25 14.5 L10.0 14.7" fill="none" stroke="#010101" stroke-linecap="round" stroke-linejoin="round" stroke-opacity="0.0" stroke-width="0.05"/>
      <path d="M8.95 13.9 L9.0 13.8 8.95 13.9" fill="#98789e" fill-rule="evenodd" stroke="none"/>
      <path d="M8.95 13.9 L9.0 13.8 Q9.6 12.9 10.65 12.35 L10.65 12.4 Q11.0 12.4 11.05 12.7 L11.0 12.75 Q10.55 14.45 8.95 13.9" fill="#e30000" fill-rule="evenodd" stroke="none"/>
      <path d="M36.85 18.55 L36.85 18.6 36.8 18.6 36.85 18.55" fill="#6c2206" fill-rule="evenodd" stroke="none"/>
      <path d="M39.3 18.8 L39.4 19.0 39.4 19.05 39.3 18.8" fill="#472809" fill-rule="evenodd" stroke="none"/>
      <path d="M27.25 22.6 L27.7 22.6 27.7 22.75 27.25 22.6" fill="#8a521b" fill-rule="evenodd" stroke="none"/>
      <path d="M27.7 22.6 L27.8 22.8 27.7 22.75 27.7 22.6 M28.35 22.85 L28.45 22.8 28.5 22.85 28.35 22.85 M29.55 22.85 L29.6 22.8 30.2 22.85 29.6 22.85 29.55 22.85 M30.5 22.85 L31.35 22.8 31.8 22.8 30.5 22.85 M36.2 22.15 L36.45 22.15 36.4 22.15 36.2 22.15 M39.25 20.4 L39.3 19.95 39.35 19.65 39.25 20.4" fill="#704316" fill-rule="evenodd" stroke="none"/>
      <path d="M36.2 22.3 L36.2 22.15 36.25 22.3 36.2 22.3 M23.7 19.85 L24.3 19.95 23.75 19.9 23.7 19.85" fill="#2e1905" fill-rule="evenodd" stroke="none"/>
      <path d="M39.45 19.25 L39.45 19.45 39.5 19.5 39.5 19.6 39.35 19.65 39.35 19.5 39.45 19.25 M6.55 12.55 L6.65 12.4 6.6 12.65 6.55 12.55 M14.35 25.55 L14.4 25.6 14.3 25.6 14.35 25.55" fill="#d4a32a" fill-rule="evenodd" stroke="none"/>
      <path d="M38.8 25.6 L38.7 25.85 38.6 25.85 38.8 25.6" fill="#bf8f26" fill-rule="evenodd" stroke="none"/>
      <path d="M6.45 12.85 L6.5 12.7 6.55 12.55 6.55 12.7 6.45 12.85" fill="#e0af7f" fill-rule="evenodd" stroke="none"/>
      <path d="M6.6 12.65 L6.6 12.7 6.55 12.7 6.55 12.55 6.6 12.65" fill="#ffd3ab" fill-rule="evenodd" stroke="none"/>
      <path d="M39.55 20.6 L39.6 20.8 39.5 20.8 39.5 20.75 39.55 20.6 M28.85 23.55 L28.8 23.6 28.75 23.55 28.85 23.55" fill="#a67348" fill-rule="evenodd" stroke="none"/>
      <path d="M9.2 16.65 L9.3 16.8 9.25 16.8 9.2 16.65" fill="#402f1f" fill-rule="evenodd" stroke="none"/>
      <path d="M39.6 20.8 L39.6 21.15 39.45 21.2 39.5 20.8 39.6 20.8" fill="#454234" fill-rule="evenodd" stroke="none"/>
      <path d="M19.85 21.3 L19.75 21.15 20.25 21.4 19.85 21.3" fill="#432e49" fill-rule="evenodd" stroke="none"/>
      <path d="M13.55 10.55 L13.55 10.5 13.6 10.5 13.55 10.55" fill="#2a1d2e" fill-rule="evenodd" stroke="none"/>
      <path d="M36.25 22.3 L36.2 22.15 36.4 22.15 36.25 22.3" fill="#956e99" fill-rule="evenodd" stroke="none"/>
      <path d="M6.65 12.4 L6.7 12.25 Q7.25 10.9 10.05 10.2 L11.85 9.75 14.35 9.7 22.15 10.5 23.45 10.7 Q28.4 11.8 32.3 13.55 L34.75 14.75 Q38.6 16.85 39.3 18.7 L39.3 18.8 39.4 19.05 39.45 19.1 39.4 19.15 39.4 19.2 39.45 19.25 39.35 19.5 39.35 19.65 39.3 19.95 39.25 20.4 38.85 20.8 38.8 20.8 38.75 21.05 38.7 21.05 37.85 21.7 37.7 21.85 36.6 22.2 36.55 22.25 36.4 22.15 36.45 22.15 36.2 22.15 36.2 22.3 35.0 22.45 34.25 22.55 33.85 22.55 33.6 22.6 32.0 22.8 31.8 22.8 31.35 22.8 30.5 22.85 30.2 22.85 29.6 22.8 29.55 22.85 29.0 22.8 28.85 22.85 28.75 22.85 28.7 22.85 28.55 22.85 28.5 22.85 28.45 22.8 28.35 22.85 28.15 22.8 27.8 22.8 27.7 22.6 27.25 22.6 27.15 22.6 26.75 22.6 26.65 22.6 24.4 22.3 22.05 21.85 21.75 21.75 20.25 21.4 19.75 21.15 19.85 21.3 15.25 19.85 13.85 19.25 13.35 19.05 12.45 18.6 12.2 18.5 11.8 18.2 11.4 18.1 10.8 17.7 9.35 16.8 9.3 16.8 9.2 16.65 9.0 16.5 8.8 16.35 8.2 15.8 7.2 14.7 6.85 14.25 6.75 13.9 6.55 13.65 6.65 13.55 6.6 12.7 6.6 12.65 6.65 12.4 M31.2 22.4 L32.95 22.4 34.65 22.3 Q37.65 21.95 38.3 20.7 L38.45 20.35 38.5 20.2 Q38.75 18.35 34.85 16.0 30.7 13.55 24.2 11.95 18.3 10.4 13.6 10.5 L13.55 10.5 12.85 10.5 Q7.9 10.7 7.3 12.6 L7.3 13.3 7.3 13.4 Q7.5 14.6 9.75 16.15 L10.95 16.95 12.45 17.75 13.15 18.1 13.95 18.5 15.1 18.95 Q18.05 20.05 21.6 21.05 L23.45 21.45 26.45 22.05 29.55 22.35 31.2 22.4" fill="#9e5e1f" fill-rule="evenodd" stroke="none"/>
      <path d="M7.2 14.7 L8.2 15.8 8.8 16.35 9.0 16.5 9.2 16.65 9.25 16.8 9.3 16.8 9.35 16.8 10.8 17.7 11.4 18.1 11.8 18.2 12.2 18.5 12.45 18.6 13.35 19.05 13.85 19.25 15.25 19.85 19.85 21.3 Q21.3 23.75 21.15 24.85 21.0 26.4 19.75 27.1 L13.25 24.45 11.65 23.45 Q8.75 21.55 7.2 20.0 L6.3 19.05 6.35 17.95 Q6.55 15.8 7.2 14.7" fill="#990000" fill-rule="evenodd" stroke="none"/>
      <path d="M39.5 19.6 L39.6 20.6 39.55 20.6 39.5 20.75 39.5 20.8 39.45 21.2 39.6 21.15 39.55 22.4 39.1 24.9 Q37.5 26.3 33.7 27.1 L32.6 27.3 Q32.3 25.65 30.1 24.0 L28.15 22.8 28.35 22.85 28.5 22.85 28.55 22.85 28.7 22.85 28.75 22.85 28.85 22.85 29.0 22.8 29.55 22.85 29.6 22.85 30.2 22.85 30.5 22.85 31.8 22.8 32.0 22.8 33.6 22.6 33.85 22.55 34.25 22.55 35.0 22.45 36.2 22.3 36.25 22.3 36.4 22.15 36.55 22.25 36.6 22.2 37.7 21.85 37.85 21.7 38.7 21.05 38.75 21.05 38.8 20.8 38.85 20.8 39.25 20.4 39.35 19.65 39.5 19.6" fill="#730000" fill-rule="evenodd" stroke="none"/>
      <path d="M4.8 16.45 Q5.1 15.25 5.75 13.95 L6.15 13.55 6.2 13.3 6.2 13.15 6.35 12.9 6.4 12.9 6.45 12.85 6.55 12.7 6.6 12.7 6.65 13.55 6.55 13.65 6.75 13.9 6.85 14.25 7.2 14.7 Q6.55 15.8 6.35 17.95 L6.3 19.05 Q5.25 17.75 4.8 16.45" fill="#e30000" fill-rule="evenodd" stroke="none"/>
      <path d="M34.65 22.3 Q31.0 20.0 24.1 18.05 17.2 16.15 12.45 16.05 12.0 13.9 12.75 11.95 L13.55 10.55 13.6 10.5 Q18.3 10.4 24.2 11.95 30.7 13.55 34.85 16.0 38.75 18.35 38.5 20.2 L38.45 20.35 38.3 20.7 Q37.65 21.95 34.65 22.3 M36.8 18.6 L36.85 18.6 36.85 18.55 36.8 18.6" fill="#540000" fill-rule="evenodd" stroke="none"/>
      <path d="M13.55 10.5 L13.55 10.55 12.75 11.95 Q12.0 13.9 12.45 16.05 L10.8 16.05 9.75 16.15 Q7.5 14.6 7.3 13.4 L7.3 13.3 7.3 12.6 Q7.9 10.7 12.85 10.5 L13.55 10.5" fill="#3b0000" fill-rule="evenodd" stroke="none"/>
      <path d="M26.2 30.1 L26.15 30.1 26.2 30.05 26.2 30.1 M20.25 21.4 L21.75 21.75 22.05 21.85 24.4 22.3 26.65 22.6 26.75 22.6 27.15 22.6 27.25 22.6 27.7 22.75 27.8 22.8 28.15 22.8 30.1 24.0 Q32.3 25.65 32.6 27.3 L24.05 28.0 21.4 27.65 21.4 27.7 21.2 27.65 21.05 27.6 19.75 27.1 Q21.0 26.4 21.15 24.85 21.3 23.75 19.85 21.3 L20.25 21.4 M28.85 23.55 L28.75 23.55 28.8 23.6 28.85 23.55" fill="#5e0000" fill-rule="evenodd" stroke="none"/>
      <path d="M15.7 28.0 L14.3 27.55 14.25 27.55 14.0 27.45 13.35 27.15 10.55 25.85 10.2 25.8 9.9 25.55 9.55 25.45 7.35 24.05 7.05 23.85 6.25 23.2 6.3 19.05 7.2 20.0 Q8.75 21.55 11.65 23.45 L13.25 24.45 19.75 27.1 19.4 27.25 Q17.8 28.0 15.7 28.0 M14.35 25.55 L14.3 25.6 14.4 25.6 14.35 25.55" fill="#ffcc00" fill-rule="evenodd" stroke="none"/>
      <path d="M6.25 23.2 L4.9 21.65 4.8 21.35 4.75 21.25 4.7 21.1 4.65 21.0 4.6 20.7 4.6 20.6 4.5 19.9 4.5 19.7 4.5 19.6 4.45 18.7 4.8 16.45 Q5.25 17.75 6.3 19.05 L6.25 23.2" fill="#fff300" fill-rule="evenodd" stroke="none"/>
      <path d="M39.1 24.9 L38.9 25.35 38.8 25.6 38.6 25.85 38.7 25.85 38.1 27.05 37.75 27.7 37.7 27.85 37.5 28.25 Q36.7 29.15 34.65 29.65 L32.2 30.05 32.65 27.9 32.6 27.3 33.7 27.1 Q37.5 26.3 39.1 24.9 M23.7 19.85 L23.65 19.85 23.55 19.8 23.3 19.8 22.15 19.5 15.6 18.6 15.45 18.6 13.95 18.5 13.15 18.1 12.9 17.4 12.7 17.05 12.65 16.95 12.45 16.05 Q17.2 16.15 24.1 18.05 31.0 20.0 34.65 22.3 L32.95 22.4 31.2 22.4 30.0 21.9 26.3 20.6 25.65 20.4 24.3 19.95 23.7 19.85 M19.75 27.1 L21.05 27.6 19.4 27.25 19.75 27.1" fill="#e37c00" fill-rule="evenodd" stroke="none"/>
      <path d="M32.2 30.05 L32.15 30.05 30.4 30.15 29.5 30.3 28.8 30.2 28.1 30.15 26.3 30.1 26.2 30.1 26.2 30.05 26.15 30.1 25.4 29.95 25.0 29.9 22.75 29.7 20.3 29.15 20.05 29.15 15.7 28.0 Q17.8 28.0 19.4 27.25 L21.05 27.6 21.2 27.65 21.4 27.7 21.4 27.65 24.05 28.0 32.6 27.3 32.65 27.9 32.2 30.05 M12.45 16.05 L12.65 16.95 12.7 17.05 12.9 17.4 13.15 18.1 12.45 17.75 10.95 16.95 9.75 16.15 10.8 16.05 12.45 16.05" fill="#bd6300" fill-rule="evenodd" stroke="none"/>
      <path d="M6.65 12.4 L6.7 12.25 Q7.25 10.9 10.05 10.2 L11.85 9.75 14.35 9.7 22.15 10.5 23.45 10.7 Q28.4 11.8 32.3 13.55 L34.75 14.75 Q38.6 16.85 39.3 18.7 M39.3 18.8 L39.4 19.0 39.4 19.05 39.45 19.1 39.4 19.15 39.4 19.2 39.45 19.25 39.45 19.45 39.5 19.5 39.5 19.6 39.6 20.6 39.55 20.6 39.6 20.8 39.6 21.15 39.55 22.4 39.1 24.9 38.9 25.35 M38.8 25.6 L38.7 25.85 38.1 27.05 37.75 27.7 37.7 27.85 37.5 28.25 Q36.7 29.15 34.65 29.65 L32.2 30.05 32.15 30.05 30.4 30.15 29.5 30.3 28.8 30.2 28.1 30.15 26.3 30.1 26.2 30.1 26.15 30.1 25.4 29.95 25.0 29.9 22.75 29.7 20.3 29.15 20.05 29.15 15.7 28.0 14.3 27.55 14.25 27.55 14.0 27.45 13.35 27.15 10.55 25.85 10.2 25.8 9.9 25.55 9.55 25.45 7.35 24.05 7.05 23.85 6.25 23.2 4.9 21.65 4.8 21.35 4.75 21.25 4.7 21.1 4.65 21.0 4.6 20.7 4.6 20.6 4.5 19.9 4.5 19.7 4.5 19.6 4.45 18.7 4.8 16.45 Q5.1 15.25 5.75 13.95 M6.2 13.15 L6.35 12.9 6.4 12.9 6.45 12.85 6.5 12.7 6.55 12.55 M6.65 12.4 L6.6 12.65 6.6 12.7 6.65 13.55 6.55 13.65 6.75 13.9 6.85 14.25 7.2 14.7 8.2 15.8 8.8 16.35 9.0 16.5 9.2 16.65 9.3 16.8 9.35 16.8 10.8 17.7 M11.4 18.1 L11.8 18.2 12.2 18.5 12.45 18.6 13.35 19.05 13.85 19.25 15.25 19.85 19.85 21.3 M20.25 21.4 L21.75 21.75 22.05 21.85 24.4 22.3 26.65 22.6 26.75 22.6 27.15 22.6 27.25 22.6 M27.7 22.6 L27.8 22.8 28.15 22.8 28.35 22.85 28.45 22.8 28.5 22.85 28.55 22.85 28.7 22.85 28.75 22.85 28.85 22.85 29.0 22.8 29.55 22.85 29.6 22.8 30.2 22.85 30.5 22.85 31.35 22.8 31.8 22.8 32.0 22.8 33.6 22.6 33.85 22.55 34.25 22.55 35.0 22.45 36.2 22.3 M36.4 22.15 L36.55 22.25 36.6 22.2 37.7 21.85 37.85 21.7 38.7 21.05 38.75 21.05 38.8 20.8 38.85 20.8 39.25 20.4 39.3 19.95 39.35 19.65 39.25 20.4 M13.95 18.5 L15.45 18.6 15.6 18.6 22.15 19.5 23.3 19.8 23.55 19.8 23.65 19.85 23.7 19.85 24.3 19.95 25.65 20.4 26.3 20.6 30.0 21.9 31.2 22.4 M23.7 19.85 L23.75 19.9 24.3 19.95 M20.25 21.4 L19.85 21.3 M30.2 22.85 L29.6 22.85 29.55 22.85 M27.8 22.8 L27.7 22.75 27.25 22.6 M31.8 22.8 L30.5 22.85 M39.3 18.8 L39.4 19.05 M36.85 18.55 L36.8 18.6 M36.4 22.15 L36.25 22.3 36.2 22.3 M9.3 16.8 L9.25 16.8 9.2 16.65" fill="none" stroke="#000000" stroke-linecap="round" stroke-linejoin="round" stroke-opacity="0.3019608" stroke-width="0.05"/>
      <path d="M26.15 33.95 L26.05 34.05 26.1 33.95 26.15 33.95" fill="#dbd4a6" fill-rule="evenodd" stroke="none"/>
      <path d="M27.1 34.05 L26.85 34.1 26.8 34.1 26.95 34.05 27.05 34.0 26.95 34.05 27.3 33.9 27.05 34.0 27.1 34.05 M27.5 33.7 L27.45 33.8 27.4 33.8 Q27.4 33.6 27.5 33.7" fill="#956e99" fill-rule="evenodd" stroke="none"/>
      <path d="M27.05 34.0 L27.1 34.05 27.05 34.0" fill="#744f7d" fill-rule="evenodd" stroke="none"/>
      <path d="M13.85 18.65 L14.75 18.95 Q20.15 21.0 23.75 22.9 L24.2 23.1 25.3 23.8 28.75 25.9 29.0 26.1 27.85 26.4 27.65 26.25 24.2 24.1 23.1 23.4 22.65 23.2 Q18.65 21.1 12.5 18.85 L13.85 18.65" fill="#9e5e1f" fill-rule="evenodd" stroke="none"/>
      <path d="M27.85 26.4 L29.0 26.1 29.1 26.25 Q29.6 26.85 29.95 28.35 30.3 30.75 29.0 32.85 L28.3 33.6 27.1 34.05 27.05 34.0 27.3 33.9 27.4 33.8 27.45 33.8 27.5 33.7 27.85 33.15 28.5 31.85 Q29.1 30.35 28.8 28.7 28.45 27.05 27.85 26.4" fill="#573211" fill-rule="evenodd" stroke="none"/>
      <path d="M12.5 18.85 Q18.65 21.1 22.65 23.2 L23.1 23.4 24.2 24.1 27.65 26.25 27.85 26.4 Q28.45 27.05 28.8 28.7 29.1 30.35 28.5 31.85 26.55 29.7 21.2 27.65 L13.25 24.45 11.65 23.45 12.5 18.85" fill="#990000" fill-rule="evenodd" stroke="none"/>
      <path d="M26.95 34.05 L26.15 33.95 26.1 33.95 23.05 32.25 23.05 32.2 23.0 32.2 22.5 31.9 22.2 31.65 19.8 30.3 Q16.1 28.25 11.2 26.2 L11.2 26.15 11.65 23.45 13.25 24.45 21.2 27.65 Q26.55 29.7 28.5 31.85 L27.85 33.15 27.5 33.7 Q27.4 33.6 27.4 33.8 L27.3 33.9 26.95 34.05" fill="#ffcc00" fill-rule="evenodd" stroke="none"/>
      <path d="M29.0 26.1 L28.75 25.9 25.3 23.8 24.2 23.1 23.75 22.9 Q20.15 21.0 14.75 18.95 L13.85 18.65 M12.5 18.85 Q18.65 21.1 22.65 23.2 L23.1 23.4 24.2 24.1 27.65 26.25 27.85 26.4 M29.0 26.1 L29.1 26.25 Q29.6 26.85 29.95 28.35 30.3 30.75 29.0 32.85 L28.3 33.6 27.1 34.05 26.85 34.1 26.8 34.1 26.95 34.05 26.15 33.95 M26.1 33.95 L23.05 32.25 23.05 32.2 23.0 32.2 22.5 31.9 22.2 31.65 19.8 30.3 Q16.1 28.25 11.2 26.2 L11.2 26.15 M28.5 31.85 Q29.1 30.35 28.8 28.7 28.45 27.05 27.85 26.4 M27.5 33.7 L27.85 33.15 28.5 31.85 M26.1 33.95 L26.15 33.95 M27.4 33.8 L27.45 33.8 27.5 33.7 Q27.4 33.6 27.4 33.8 L27.3 33.9 27.05 34.0 26.95 34.05 27.3 33.9" fill="none" stroke="#000000" stroke-linecap="round" stroke-linejoin="round" stroke-opacity="0.2509804" stroke-width="0.05"/>
      <path d="M25.65 30.05 Q25.3 30.25 24.85 30.05 L24.15 29.4 24.0 28.5 Q24.05 28.05 24.35 27.85 24.7 27.65 25.15 27.85 L25.85 28.5 26.05 29.4 25.65 30.05" fill="#420000" fill-rule="evenodd" stroke="none"/>
      <path d="M6.55 22.55 L6.55 22.25 6.55 22.55 6.5 22.3 6.55 22.25 6.8 20.9 7.05 20.0 8.25 19.5 9.9 20.45 10.15 20.8 8.5 22.8 8.35 21.35 6.8 23.85 6.55 22.55" fill="#f6f3eb" fill-rule="evenodd" stroke="none"/>
      <path d="M6.8 23.85 L8.35 21.35 8.5 22.8 10.15 20.8 10.8 22.25 Q10.6 22.6 10.75 23.45 L8.35 23.95 6.85 24.25 6.8 23.85" fill="#c9ba8b" fill-rule="evenodd" stroke="none"/>
      <path d="M10.15 20.8 L9.9 20.45 8.25 19.5 7.05 20.0 6.8 20.9 6.55 22.25 Q5.35 20.95 6.3 19.45 7.05 18.25 7.9 18.25 8.7 18.2 10.15 19.15 L10.3 19.25 10.55 19.65 10.65 19.7 12.05 20.4 12.2 20.75 12.35 21.65 Q12.5 22.85 12.1 23.5 11.45 24.5 10.35 24.5 L8.35 23.95 10.75 23.45 Q10.6 22.6 10.8 22.25 L10.15 20.8" fill="#990000" fill-rule="evenodd" stroke="none"/>
      <path d="M6.55 22.55 L6.8 23.85 M10.15 20.8 L9.9 20.45 8.25 19.5 7.05 20.0 6.8 20.9 6.55 22.25 M8.35 23.95 L6.85 24.25 6.8 23.85 M6.55 22.55 L6.5 22.3 6.55 22.25 M8.35 23.95 L10.75 23.45 Q10.6 22.6 10.8 22.25 L10.15 20.8" fill="none" stroke="#000000" stroke-linecap="round" stroke-linejoin="round" stroke-opacity="0.4" stroke-width="0.05"/>
      <path d="M6.55 22.25 L6.55 22.55 M6.55 22.25 Q5.35 20.95 6.3 19.45 7.05 18.25 7.9 18.25 8.7 18.2 10.15 19.15 L10.3 19.25 10.55 19.65 M12.35 21.65 Q12.5 22.85 12.1 23.5 11.45 24.5 10.35 24.5 L8.35 23.95" fill="none" stroke="#000000" stroke-linecap="round" stroke-linejoin="round" stroke-opacity="0.3019608" stroke-width="0.05"/>
      <path d="M39.55 26.0 L40.1 26.2 40.25 26.2 41.2 27.4 41.4 27.05 41.45 24.55 Q41.05 24.3 40.8 24.05 L41.0 25.0 38.9 23.9 38.6 25.9 38.75 25.9 39.35 25.85 39.55 26.0" fill="#c9ba8b" fill-rule="evenodd" stroke="none"/>
      <path d="M41.4 27.05 L42.1 25.3 Q42.25 23.8 41.65 23.15 L40.6 23.0 40.95 22.85 40.65 22.8 40.6 23.0 40.55 22.8 39.2 22.55 38.9 23.9 41.0 25.0 40.8 24.05 Q41.05 24.3 41.45 24.55 L41.4 27.05" fill="#f6f3eb" fill-rule="evenodd" stroke="none"/>
      <path d="M40.65 22.8 L40.55 22.8 40.6 23.0 40.65 22.8" fill="#684470" fill-rule="evenodd" stroke="none"/>
      <path d="M40.65 22.6 Q40.65 21.4 39.65 21.2 L39.1 21.35 38.75 21.4 Q38.2 21.7 37.7 22.95 L37.55 23.25 Q37.2 24.35 37.2 25.15 37.3 26.9 38.45 26.9 L39.4 26.5 39.55 26.0 39.35 25.85 38.75 25.9 38.6 25.9 38.9 23.9 39.2 22.55 40.55 22.8 40.65 22.6" fill="#990000" fill-rule="evenodd" stroke="none"/>
      <path d="M39.55 26.0 L40.1 26.2 40.25 26.2 41.2 27.4 41.4 27.05 42.1 25.3 Q42.25 23.8 41.65 23.15 L40.6 23.0 40.95 22.85 40.65 22.8 40.55 22.8 39.2 22.55 38.9 23.9 38.6 25.9 38.75 25.9 39.35 25.85 39.55 26.0" fill="none" stroke="#000000" stroke-linecap="round" stroke-linejoin="round" stroke-opacity="0.4" stroke-width="0.05"/>
      <path d="M40.65 22.6 Q40.65 21.4 39.65 21.2 L39.1 21.35 38.75 21.4 M37.55 23.25 Q37.2 24.35 37.2 25.15 37.3 26.9 38.45 26.9 L39.4 26.5 39.55 26.0 M40.65 22.8 L40.65 22.6 M40.6 23.0 L40.65 22.8" fill="none" stroke="#000000" stroke-linecap="round" stroke-linejoin="round" stroke-opacity="0.3019608" stroke-width="0.05"/>
      <path d="M38.75 21.4 Q38.2 21.7 37.7 22.95 L37.55 23.25" fill="none" stroke="#010101" stroke-linecap="round" stroke-linejoin="round" stroke-opacity="0.0" stroke-width="0.05"/>
      <path d="M38.65 24.05 L38.7 24.05 38.75 23.95 38.65 24.05" fill="#98789e" fill-rule="evenodd" stroke="none"/>
      <path d="M38.65 24.05 L38.75 23.95 Q39.4 23.1 39.55 21.9 L39.5 21.9 Q39.4 21.6 39.15 21.65 L39.1 21.65 Q37.6 22.75 38.65 24.05" fill="#e30000" fill-rule="evenodd" stroke="none"/>
      <path d="M32.75 23.65 L36.0 24.65 Q36.5 25.25 36.55 26.1 36.55 26.55 35.95 27.2 L35.0 28.05 32.2 28.85 Q32.05 28.85 31.9 29.0 L31.75 29.0 Q31.0 29.05 30.35 28.35 29.8 27.75 29.75 26.9 29.75 25.85 30.75 24.8 31.75 23.7 32.7 23.7 L32.75 23.65" fill="#730000" fill-rule="evenodd" stroke="none"/>
      <path d="M36.0 24.65 Q36.5 25.25 36.55 26.1 36.55 26.55 35.95 27.2 L35.0 28.05 32.2 28.85 Q32.05 28.85 31.9 29.0 L31.75 29.0 Q31.0 29.05 30.35 28.35 29.8 27.75 29.75 26.9 29.75 25.85 30.75 24.8 31.75 23.7 32.7 23.7 L32.75 23.65" fill="none" stroke="#000000" stroke-linecap="round" stroke-linejoin="round" stroke-opacity="0.3019608" stroke-width="0.05"/>
      <path d="M30.6 26.5 Q30.5 25.65 31.2 25.1 32.15 24.1 33.15 24.55 32.2 26.15 30.65 26.55 L30.6 26.5" fill="#e30000" fill-rule="evenodd" stroke="none"/>
      <path d="M34.3 31.2 Q33.15 30.45 32.4 29.2 L31.75 28.25 31.35 27.3 Q31.35 26.15 32.75 25.8 L33.1 25.6 32.9 28.15 32.4 27.15 32.65 28.9 34.3 31.2" fill="#f6f3eb" fill-rule="evenodd" stroke="none"/>
      <path d="M33.1 25.6 Q34.25 25.15 35.25 26.7 L35.25 28.05 35.05 29.2 34.3 31.2 32.65 28.9 32.4 27.15 32.9 28.15 33.1 25.6" fill="#c9ba8b" fill-rule="evenodd" stroke="none"/>
      <path d="M33.1 25.6 Q34.25 25.15 35.25 26.7 L35.25 28.05 35.05 29.2 34.3 31.2 Q33.15 30.45 32.4 29.2 L31.75 28.25 31.35 27.3 Q31.35 26.15 32.75 25.8 L33.1 25.6 Z" fill="none" stroke="#000000" stroke-linecap="round" stroke-linejoin="round" stroke-opacity="0.4" stroke-width="0.05"/>
      <path d="M8.45 18.4 L10.0 18.35 Q11.25 18.8 11.2 19.95 9.4 19.65 8.4 18.45 L8.45 18.4" fill="#e30000" fill-rule="evenodd" stroke="none"/>
      <path d="M3.75 18.55 L3.15 18.4 3.05 18.35 1.6 18.95 1.6 18.6 2.8 16.35 3.6 16.2 2.95 16.95 5.35 17.0 4.65 18.85 4.55 18.8 4.0 18.5 3.75 18.55" fill="#c9ba8b" fill-rule="evenodd" stroke="none"/>
      <path d="M1.6 18.6 L1.85 16.7 Q2.4 15.3 3.2 15.0 L4.2 15.35 4.0 15.1 4.3 15.2 4.2 15.35 4.4 15.25 5.7 15.6 5.35 17.0 2.95 16.95 3.6 16.2 2.8 16.35 1.6 18.6" fill="#f6f3eb" fill-rule="evenodd" stroke="none"/>
      <path d="M4.3 15.2 L4.4 15.25 4.2 15.35 4.3 15.2" fill="#684470" fill-rule="evenodd" stroke="none"/>
      <path d="M4.4 15.0 Q4.95 13.9 5.9 14.25 L6.35 14.6 6.6 14.8 Q7.0 15.35 6.8 16.7 L6.8 17.05 6.25 18.85 Q5.35 20.4 4.3 19.8 L3.7 19.0 3.75 18.55 4.0 18.5 4.55 18.8 4.65 18.85 5.35 17.0 5.7 15.6 4.4 15.25 4.4 15.0" fill="#990000" fill-rule="evenodd" stroke="none"/>
      <path d="M3.75 18.55 L3.15 18.4 3.05 18.35 1.6 18.95 1.6 18.6 1.85 16.7 Q2.4 15.3 3.2 15.0 L4.2 15.35 4.0 15.1 4.3 15.2 4.4 15.25 5.7 15.6 5.35 17.0 4.65 18.85 4.55 18.8 4.0 18.5 3.75 18.55" fill="none" stroke="#000000" stroke-linecap="round" stroke-linejoin="round" stroke-opacity="0.4" stroke-width="0.05"/>
      <path d="M4.4 15.0 Q4.95 13.9 5.9 14.25 L6.35 14.6 6.6 14.8 M6.8 17.05 L6.25 18.85 Q5.35 20.4 4.3 19.8 L3.7 19.0 3.75 18.55 M4.3 15.2 L4.4 15.0 M4.2 15.35 L4.3 15.2" fill="none" stroke="#000000" stroke-linecap="round" stroke-linejoin="round" stroke-opacity="0.3019608" stroke-width="0.05"/>
      <path d="M6.6 14.8 Q7.0 15.35 6.8 16.7 L6.8 17.05" fill="none" stroke="#010101" stroke-linecap="round" stroke-linejoin="round" stroke-opacity="0.0" stroke-width="0.05"/>
      <path d="M5.45 17.1 L5.5 17.2 5.45 17.2 5.45 17.1" fill="#98789e" fill-rule="evenodd" stroke="none"/>
      <path d="M5.45 17.1 Q5.3 16.05 5.65 14.9 L5.7 14.9 6.2 14.85 6.2 14.9 Q7.05 16.55 5.5 17.2 L5.45 17.1" fill="#e30000" fill-rule="evenodd" stroke="none"/>
      <path d="M19.4 27.0 L18.25 28.15 17.0 28.05 15.8 27.45 13.95 25.2 13.75 24.95 13.7 24.9 Q13.3 24.2 13.65 23.35 14.0 22.6 14.8 22.2 L17.05 22.25 Q18.5 22.75 18.85 23.55 L18.9 23.6 19.4 27.0" fill="#990000" fill-rule="evenodd" stroke="none"/>
      <path d="M19.4 27.0 L18.25 28.15 17.0 28.05 15.8 27.45 13.95 25.2 13.75 24.95 13.7 24.9 Q13.3 24.2 13.65 23.35 14.0 22.6 14.8 22.2 L17.05 22.25 Q18.5 22.75 18.85 23.55 L18.9 23.6" fill="none" stroke="#000000" stroke-linecap="round" stroke-linejoin="round" stroke-opacity="0.3019608" stroke-width="0.05"/>
      <path d="M15.4 22.8 L16.95 22.7 Q18.2 23.2 18.15 24.3 16.35 24.1 15.35 22.85 L15.4 22.8" fill="#e30000" fill-rule="evenodd" stroke="none"/>
      <path d="M13.85 28.95 Q13.45 27.7 13.65 26.35 L13.8 25.25 14.1 24.25 Q14.85 23.4 16.2 23.95 L16.6 24.0 14.8 25.85 15.0 24.75 14.05 26.25 13.85 28.95" fill="#f6f3eb" fill-rule="evenodd" stroke="none"/>
      <path d="M16.6 24.0 Q17.8 24.4 17.65 26.05 L16.75 27.15 15.8 27.85 13.85 28.95 14.05 26.25 15.0 24.75 14.8 25.85 16.6 24.0" fill="#c9ba8b" fill-rule="evenodd" stroke="none"/>
      <path d="M16.6 24.0 Q17.8 24.4 17.65 26.05 L16.75 27.15 15.8 27.85 13.85 28.95 Q13.45 27.7 13.65 26.35 L13.8 25.25 14.1 24.25 Q14.85 23.4 16.2 23.95 L16.6 24.0 Z" fill="none" stroke="#000000" stroke-linecap="round" stroke-linejoin="round" stroke-opacity="0.4" stroke-width="0.05"/>
      <path d="M22.75 28.35 Q22.4 28.55 21.95 28.35 L21.25 27.7 21.1 26.8 Q21.15 26.35 21.45 26.15 21.8 25.95 22.25 26.15 L22.95 26.8 23.15 27.7 22.75 28.35" fill="#420000" fill-rule="evenodd" stroke="none"/>
      <path d="M21.45 26.15 L21.55 26.15 21.75 26.05 21.9 26.05 Q22.75 26.15 22.75 26.95 L22.65 27.6 22.2 27.6 Q21.8 27.65 21.45 27.85 L20.6 28.5 20.3 28.75 19.75 29.5 19.25 30.45 19.1 31.0 18.85 31.6 Q18.85 32.4 19.3 33.0 L20.15 33.55 Q21.6 33.55 22.5 32.9 L21.45 33.6 Q19.9 34.45 18.8 33.85 17.45 33.45 17.45 31.55 L17.7 30.1 17.9 30.3 Q18.05 31.0 20.05 28.15 L21.55 26.4 Q21.75 26.2 21.45 26.15" fill="#999999" fill-rule="evenodd" stroke="none"/>
      <path d="M17.7 30.1 L18.1 29.15 18.35 28.65 18.4 28.6 Q19.15 27.4 20.2 26.8 L20.45 26.65 20.7 26.45 21.3 26.2 21.45 26.15 Q21.75 26.2 21.55 26.4 L20.05 28.15 Q18.05 31.0 17.9 30.3 L17.7 30.1" fill="#e1e1e1" fill-rule="evenodd" stroke="none"/>
      <path d="M19.1 31.0 L19.05 31.55 Q19.05 32.15 19.35 32.35 L19.4 32.4 20.7 32.2 21.75 31.35 21.9 31.4 23.2 32.2 22.5 32.9 Q21.6 33.55 20.15 33.55 L19.3 33.0 Q18.85 32.4 18.85 31.6 L19.1 31.0" fill="#6e6e6e" fill-rule="evenodd" stroke="none"/>
      <path d="M21.45 26.15 L21.55 26.15 21.75 26.05 21.9 26.05 Q22.75 26.15 22.75 26.95 L22.65 27.6 22.2 27.6 Q21.8 27.65 21.45 27.85 L20.6 28.5 20.3 28.75 19.75 29.5 19.25 30.45 M19.1 31.0 L19.05 31.55 Q19.05 32.15 19.35 32.35 L19.4 32.4 20.7 32.2 21.75 31.35 21.9 31.4 23.2 32.2 M22.5 32.9 L21.45 33.6 Q19.9 34.45 18.8 33.85 17.45 33.45 17.45 31.55 L17.7 30.1 18.1 29.15 18.35 28.65 18.4 28.6 Q19.15 27.4 20.2 26.8 L20.45 26.65 20.7 26.45 21.3 26.2 21.45 26.15 Z" fill="none" stroke="#000000" stroke-linecap="round" stroke-linejoin="round" stroke-opacity="0.3019608" stroke-width="0.05"/>
      <path d="M24.3 27.85 L24.4 27.85 24.6 27.75 24.75 27.75 Q25.6 27.85 25.6 28.65 L25.5 29.3 25.05 29.3 Q24.65 29.35 24.3 29.55 23.8 29.8 23.45 30.2 L23.15 30.45 22.6 31.2 22.1 32.15 21.95 32.7 21.7 33.3 Q21.7 34.1 22.15 34.7 22.6 35.25 23.0 35.25 24.4 35.25 25.3 34.65 L24.3 35.3 Q22.75 36.15 21.65 35.55 20.3 35.15 20.3 33.25 20.3 32.55 20.55 31.8 L20.75 32.0 Q20.9 32.7 22.9 29.85 L24.4 28.1 Q24.6 27.9 24.3 27.85" fill="#999999" fill-rule="evenodd" stroke="none"/>
      <path d="M20.55 31.8 L20.95 30.85 21.2 30.35 21.25 30.3 Q22.0 29.1 23.05 28.5 L23.3 28.35 23.55 28.15 24.15 27.9 24.3 27.85 Q24.6 27.9 24.4 28.1 L22.9 29.85 Q20.9 32.7 20.75 32.0 L20.55 31.8" fill="#e1e1e1" fill-rule="evenodd" stroke="none"/>
      <path d="M21.95 32.7 L21.9 33.25 Q21.9 33.85 22.2 34.05 L22.25 34.1 Q22.8 34.35 23.55 33.9 L24.6 33.05 24.75 33.1 26.05 33.9 25.35 34.6 25.3 34.65 Q24.4 35.25 23.0 35.25 22.6 35.25 22.15 34.7 21.7 34.1 21.7 33.3 L21.95 32.7" fill="#6e6e6e" fill-rule="evenodd" stroke="none"/>
      <path d="M24.3 27.85 L24.4 27.85 24.6 27.75 24.75 27.75 Q25.6 27.85 25.6 28.65 L25.5 29.3 25.05 29.3 Q24.65 29.35 24.3 29.55 23.8 29.8 23.45 30.2 L23.15 30.45 22.6 31.2 22.1 32.15 M21.95 32.7 L21.9 33.25 Q21.9 33.85 22.2 34.05 L22.25 34.1 Q22.8 34.35 23.55 33.9 L24.6 33.05 24.75 33.1 26.05 33.9 M25.35 34.6 L25.3 34.65 24.3 35.3 Q22.75 36.15 21.65 35.55 20.3 35.15 20.3 33.25 20.3 32.55 20.55 31.8 L20.95 30.85 21.2 30.35 21.25 30.3 Q22.0 29.1 23.05 28.5 L23.3 28.35 23.55 28.15 24.15 27.9 24.3 27.85 Z" fill="none" stroke="#000000" stroke-linecap="round" stroke-linejoin="round" stroke-opacity="0.3019608" stroke-width="0.05"/>
      <path d="M24.1 28.8 L24.15 28.85 Q23.6 29.75 22.65 29.7 22.55 29.0 23.2 28.7 L23.6 28.55 Q23.9 28.55 24.1 28.8" fill="#ffffff" fill-rule="evenodd" stroke="none"/>
      <path d="M21.25 34.25 L21.2 34.35 Q20.55 33.95 21.05 33.05 L21.1 33.05 Q21.55 33.55 21.25 34.25" fill="#ffffff" fill-rule="evenodd" stroke="none"/>
      <path d="M18.35 32.5 L18.35 32.55 Q17.25 32.2 18.1 31.25 L18.35 32.5" fill="#ffffff" fill-rule="evenodd" stroke="none"/>
      <path d="M21.6 26.85 L21.65 26.9 Q21.1 27.55 20.25 27.5 L20.2 27.45 Q20.05 26.9 20.7 26.7 L21.1 26.6 Q21.45 26.6 21.6 26.85" fill="#ffffff" fill-rule="evenodd" stroke="none"/>
    </g>
  </defs>
</svg>
