<?xml version="1.0" encoding="UTF-8" standalone="no"?>
<svg xmlns:xlink="http://www.w3.org/1999/xlink" height="440.0px" width="440.0px" xmlns="http://www.w3.org/2000/svg">
  <g transform="matrix(10.0, 0.0, 0.0, 10.0, 0.0, 0.0)">
    <use height="44.0" transform="matrix(1.0, 0.0, 0.0, 1.0, 0.0, 0.0)" width="44.0" xlink:href="#shape0"/>
    <use height="31.05" transform="matrix(1.0, 0.0, 0.0, 1.0, 0.45, 5.25)" width="29.85" xlink:href="#sprite0"/>
    <use height="202.6" transform="matrix(0.1736, 0.0, 0.0, 0.1736, 11.6823, 6.8367)" width="179.65" xlink:href="#sprite2"/>
    <use height="35.55" transform="matrix(1.0, 0.0, 0.0, 1.0, 11.5, 6.65)" width="31.55" xlink:href="#shape4"/>
  </g>
  <defs>
    <g id="shape0" transform="matrix(1.0, 0.0, 0.0, 1.0, 0.0, 0.0)">
      <path d="M44.0 44.0 L0.0 44.0 0.0 0.0 44.0 0.0 44.0 44.0" fill="#43adca" fill-opacity="0.0" fill-rule="evenodd" stroke="none"/>
    </g>
    <g id="sprite0" transform="matrix(1.0, 0.0, 0.0, 1.0, 1.35, 0.25)">
      <use height="31.05" transform="matrix(1.0, 0.0, 0.0, 1.0, -0.25, -0.25)" width="28.75" xlink:href="#shape1"/>
      <use height="65.0" transform="matrix(0.1383, -0.1154, 0.2245, 0.0852, -1.3398, 19.6289)" width="65.0" xlink:href="#sprite1"/>
    </g>
    <g id="shape1" transform="matrix(1.0, 0.0, 0.0, 1.0, 0.25, 0.25)">
      <path d="M23.35 19.05 L23.85 19.25 23.05 21.95 22.6 22.45 20.95 22.35 20.95 21.85 19.6 22.65 18.95 23.05 18.9 23.35 17.4 26.1 18.9 23.35 18.9 24.6 17.4 26.1 15.55 27.25 17.45 25.05 15.55 24.9 12.3 28.6 11.65 28.8 11.6 28.8 9.05 27.9 5.2 27.7 4.9 27.55 4.15 27.1 1.9 24.15 4.15 27.1 Q2.7 26.3 1.9 25.35 L1.9 24.15 1.95 22.7 4.4 26.75 5.45 26.4 12.35 26.9 14.8 24.55 17.75 23.65 23.35 19.05 17.75 23.65 14.8 24.55 12.35 26.9 5.45 26.4 4.4 26.75 1.95 22.7 1.95 22.6 3.75 22.7 1.95 22.6 6.7 18.55 15.75 15.3 Q19.55 17.2 23.35 19.05" fill="#272217" fill-rule="evenodd" stroke="none"/>
      <path d="M19.6 22.65 L20.95 21.85 20.95 22.35 20.95 23.2 19.6 22.65" fill="#17140d" fill-rule="evenodd" stroke="none"/>
      <path d="M5.2 27.7 L9.05 27.9 11.6 28.8 8.15 28.9 5.2 27.7 M12.3 28.6 L15.55 24.9 17.45 25.05 15.55 27.25 12.3 28.6 M20.95 22.35 L22.6 22.45 Q21.85 23.05 20.95 23.2 L20.95 22.35 M23.05 21.95 L23.85 19.25 23.8 21.0 23.05 21.95" fill="#201c12" fill-rule="evenodd" stroke="none"/>
      <path d="M4.15 27.1 L4.9 27.55 M1.95 22.6 L3.75 22.7 M1.95 22.6 L1.95 22.7" fill="none" stroke="#000000" stroke-linecap="round" stroke-linejoin="round" stroke-opacity="0.3019608" stroke-width="0.5"/>
      <path d="M23.35 19.05 L17.75 23.65 14.8 24.55 12.35 26.9 5.45 26.4 4.4 26.75 1.95 22.7 1.75 22.4 M1.9 24.15 L4.15 27.1 M4.9 27.55 L5.2 27.7 9.05 27.9 11.6 28.8 11.65 28.8 M12.3 28.6 L15.55 24.9 17.45 25.05 15.55 27.25 M17.4 26.1 L18.9 23.35 M20.95 22.35 L22.6 22.45 M23.05 21.95 L23.85 19.25 M20.95 23.2 L19.6 22.65" fill="none" stroke="#000000" stroke-linecap="round" stroke-linejoin="round" stroke-opacity="0.2" stroke-width="0.05"/>
      <path d="M1.95 22.7 L1.9 24.15 1.9 25.35 Q2.7 26.3 4.15 27.1 M11.65 28.8 L12.3 28.6 15.55 27.25 17.4 26.1 18.9 24.6 18.9 23.35 18.95 23.05 19.6 22.65 20.95 21.85 20.95 22.35 20.95 23.2 Q21.85 23.05 22.6 22.45 L23.05 21.95 M23.85 19.25 L23.8 21.0 23.05 21.95 M5.2 27.7 L8.15 28.9 11.6 28.8" fill="none" stroke="#000000" stroke-linecap="round" stroke-linejoin="round" stroke-opacity="0.3019608" stroke-width="0.30000000000000004"/>
      <path d="M12.7 19.4 L8.15 17.4 8.2 15.1 9.8 14.3 8.9 13.85 8.8 13.85 8.7 13.75 9.45 13.4 11.3 12.5 8.75 12.8 9.65 12.05 11.95 12.2 11.3 11.45 10.85 9.45 13.95 10.7 Q16.35 11.65 19.9 10.3 L20.5 12.05 19.65 13.95 20.85 14.95 19.65 14.9 20.9 18.0 18.95 15.9 19.85 18.55 17.55 16.85 12.7 19.4 M13.95 13.0 Q11.45 12.7 9.45 13.4 11.3 13.25 13.35 14.4 L12.75 13.45 13.95 13.0" fill="#505c5a" fill-rule="evenodd" stroke="none"/>
      <path d="M9.65 12.05 L11.3 11.45 11.95 12.2 9.65 12.05 M13.95 13.0 L12.75 13.45 13.35 14.4 Q11.3 13.25 9.45 13.4 11.45 12.7 13.95 13.0" fill="#687774" fill-rule="evenodd" stroke="none"/>
      <path d="M23.2 16.25 Q23.55 16.5 23.95 16.55 23.55 16.5 23.2 16.25 M22.75 13.05 L23.45 13.5 22.75 13.05 M10.85 9.45 L10.35 7.45 21.65 8.85 Q23.65 12.3 24.1 13.85 L23.45 13.5 Q23.8 15.2 25.5 16.4 L23.95 16.55 Q24.5 18.65 23.1 20.85 L23.15 19.8 Q22.45 21.4 21.25 21.95 L22.2 19.75 Q20.8 21.05 20.35 22.35 L19.85 21.55 18.1 22.75 15.3 20.55 12.7 19.4 17.55 16.85 19.85 18.55 18.95 15.9 20.9 18.0 19.65 14.9 20.85 14.95 19.65 13.95 20.5 12.05 19.9 10.3 Q16.35 11.65 13.95 10.7 L10.85 9.45 M23.15 18.75 L23.15 19.8 23.15 18.75 M17.05 18.0 L18.95 19.65 Q19.2 20.6 19.85 21.55 19.2 20.6 18.95 19.65 L17.05 18.0" fill="url(#gradient0)" fill-rule="evenodd" stroke="none"/>
      <path d="M23.45 13.5 L22.75 13.05 M23.95 16.55 Q23.55 16.5 23.2 16.25 M10.85 9.45 L10.35 7.45 21.65 8.85 Q23.65 12.3 24.1 13.85 L23.45 13.5 Q23.8 15.2 25.5 16.4 L23.95 16.55 Q24.5 18.65 23.1 20.85 L23.15 19.8 Q22.45 21.4 21.25 21.95 L22.2 19.75 Q20.8 21.05 20.35 22.35 L19.85 21.55 18.1 22.75 15.3 20.55 12.7 19.4 8.15 17.4 8.2 15.1 9.8 14.3 8.9 13.85 M8.8 13.85 L8.7 13.75 9.45 13.4 11.3 12.5 8.75 12.8 9.65 12.05 11.3 11.45 10.85 9.45 M23.15 19.8 L23.15 18.75 M19.85 21.55 Q19.2 20.6 18.95 19.65 L17.05 18.0" fill="none" stroke="#000000" stroke-linecap="round" stroke-linejoin="round" stroke-opacity="0.3019608" stroke-width="0.30000000000000004"/>
      <path d="M17.4 20.15 L17.4 20.1 17.3 18.95 16.95 17.85 15.65 15.75 Q17.3 16.75 18.65 18.15 20.2 20.5 19.35 21.1 18.4 21.1 17.45 20.1 L17.4 20.15" fill="#6a4a0a" fill-rule="evenodd" stroke="none"/>
      <path d="M11.15 15.6 L11.15 15.55 9.6 13.65 Q12.0 13.65 15.65 15.75 L16.95 17.85 17.3 18.95 17.4 20.1 17.4 20.15 17.35 20.05 17.3 20.0 Q13.95 16.05 11.15 15.6" fill="#78540b" fill-rule="evenodd" stroke="none"/>
      <path d="M7.7 16.35 L7.65 16.3 Q6.85 15.6 6.8 15.0 L6.8 14.9 Q7.55 13.7 9.6 13.65 L11.15 15.55 11.15 15.6 Q9.15 15.1 7.8 16.25 L7.75 16.25 7.7 16.35" fill="#8e6812" fill-rule="evenodd" stroke="none"/>
      <path d="M6.8 14.9 L6.8 15.0 Q6.85 15.6 7.65 16.3 L7.7 16.35 Q6.8 17.3 6.55 18.6 6.1 18.2 6.0 17.4 5.8 16.35 6.1 15.9 L6.8 14.9" fill="#845f0c" fill-rule="evenodd" stroke="none"/>
      <path d="M13.85 18.35 Q12.95 17.95 11.6 16.15 L11.15 15.6 Q13.95 16.05 17.3 20.0 L17.35 20.05 17.4 20.15 17.25 21.4 16.1 20.15 14.85 19.1 13.85 18.35" fill="#614308" fill-rule="evenodd" stroke="none"/>
      <path d="M6.55 18.6 Q6.8 17.3 7.7 16.35 L7.75 16.35 Q8.8 17.25 9.5 17.2 8.4 19.2 7.05 18.9 L6.95 18.8 6.55 18.6" fill="#6e4c0a" fill-rule="evenodd" stroke="none"/>
      <path d="M7.7 16.35 L7.75 16.25 7.8 16.25 Q9.15 15.1 11.15 15.6 L11.6 16.15 Q12.95 17.95 13.85 18.35 L9.5 17.2 Q8.8 17.25 7.75 16.35 L7.7 16.35" fill="#77530b" fill-rule="evenodd" stroke="none"/>
      <path d="M18.65 18.15 L19.2 18.8 19.85 19.75 Q20.5 21.0 20.45 22.1 19.3 23.95 18.65 23.05 L17.5 21.85 17.25 21.4 17.4 20.15 17.45 20.1 Q18.4 21.1 19.35 21.1 20.2 20.5 18.65 18.15" fill="#533a07" fill-rule="evenodd" stroke="none"/>
      <path d="M6.8 14.9 L6.8 15.0 Q6.85 15.6 7.65 16.3 L7.7 16.35 7.75 16.35 Q8.8 17.25 9.5 17.2 L13.85 18.35 Q12.95 17.95 11.6 16.15 L11.15 15.6 M11.15 15.55 L9.6 13.65 Q7.55 13.7 6.8 14.9 L6.1 15.9 Q5.8 16.35 6.0 17.4 6.1 18.2 6.55 18.6 M17.4 20.15 L17.4 20.1 17.3 18.95 16.95 17.85 15.65 15.75 Q12.0 13.65 9.6 13.65 M6.95 18.8 L6.55 18.6 M7.05 18.9 L6.95 18.8 7.0 18.95 7.05 18.9 Q8.4 19.2 9.5 17.2 M18.65 18.15 Q17.3 16.75 15.65 15.75 M17.25 21.4 L17.5 21.85 18.65 23.05 Q19.3 23.95 20.45 22.1 20.5 21.0 19.85 19.75 L19.2 18.8 18.65 18.15 M17.4 20.15 L17.25 21.4 16.1 20.15 14.85 19.1 13.85 18.35" fill="none" stroke="#000000" stroke-linecap="round" stroke-linejoin="round" stroke-opacity="0.3019608" stroke-width="0.30000000000000004"/>
      <path d="M0.0 26.65 Q0.4 24.0 1.2 23.45 2.2 22.7 2.85 22.95 3.15 23.95 2.9 24.95 2.65 25.55 0.0 26.65" fill="#786a4e" fill-rule="evenodd" stroke="none"/>
      <path d="M2.85 22.95 Q4.3 24.3 4.05 26.1 2.0 27.25 0.0 26.65 2.65 25.55 2.9 24.95 3.15 23.95 2.85 22.95" fill="#5a4c2e" fill-rule="evenodd" stroke="none"/>
      <path d="M2.85 22.95 Q4.3 24.3 4.05 26.1 2.0 27.25 0.0 26.65 0.4 24.0 1.2 23.45 2.2 22.7 2.85 22.95 Z" fill="none" stroke="#000000" stroke-linecap="round" stroke-linejoin="round" stroke-opacity="0.3019608" stroke-width="0.30000000000000004"/>
      <path d="M1.55 29.15 Q2.2 25.15 3.3 24.25 4.75 23.1 5.75 23.55 6.15 25.1 5.5 26.7 4.85 28.3 1.55 29.15" fill="#9d9075" fill-rule="evenodd" stroke="none"/>
      <path d="M1.55 29.15 Q4.85 28.3 5.5 26.7 6.15 25.1 5.75 23.55 7.85 25.6 7.45 28.25 4.55 30.05 1.55 29.15" fill="#83724c" fill-rule="evenodd" stroke="none"/>
      <path d="M5.75 23.55 Q4.75 23.1 3.3 24.25 2.2 25.15 1.55 29.15 M5.75 23.55 Q7.85 25.6 7.45 28.25 4.55 30.05 1.55 29.15" fill="none" stroke="#000000" stroke-linecap="round" stroke-linejoin="round" stroke-opacity="0.3019608" stroke-width="0.30000000000000004"/>
      <path d="M6.75 30.35 Q7.2 27.55 7.95 26.9 9.0 26.1 9.65 26.4 9.9 27.45 9.6 28.5 9.45 29.2 6.75 30.35" fill="#9d9075" fill-rule="evenodd" stroke="none"/>
      <path d="M9.65 26.4 Q11.1 27.85 10.85 29.7 8.8 31.0 6.75 30.35 9.45 29.2 9.6 28.5 9.9 27.45 9.65 26.4" fill="#83724c" fill-rule="evenodd" stroke="none"/>
      <path d="M9.65 26.4 Q11.1 27.85 10.85 29.7 8.8 31.0 6.75 30.35 7.2 27.55 7.95 26.9 9.0 26.1 9.65 26.4 Z" fill="none" stroke="#000000" stroke-linecap="round" stroke-linejoin="round" stroke-opacity="0.3019608" stroke-width="0.30000000000000004"/>
      <path d="M1.55 18.4 Q4.9 18.1 5.95 18.95 L6.15 20.35 7.75 19.0 10.6 21.05 10.45 18.65 12.15 19.15 9.9 17.45 14.6 18.8 15.85 19.75 14.5 20.75 Q14.35 21.65 14.6 23.1 L13.7 20.9 13.2 21.95 11.65 22.15 9.5 22.6 Q9.5 21.7 9.65 21.35 L8.4 22.8 8.75 21.65 7.35 23.25 Q7.15 23.05 7.25 21.85 5.7 21.35 4.9 20.75 L2.95 22.2 3.9 20.0 1.3 19.95 3.05 19.25 Q2.45 18.4 0.25 18.95 L1.55 18.4" fill="#586563" fill-rule="evenodd" stroke="none"/>
      <path d="M1.55 18.4 L3.7 17.65 5.65 17.15 4.95 16.75 Q3.95 16.3 2.45 16.2 5.25 15.35 9.6 16.65 12.75 17.55 14.6 18.8 L9.9 17.45 12.15 19.15 10.45 18.65 10.6 21.05 7.75 19.0 6.15 20.35 5.95 18.95 Q4.9 18.1 1.55 18.4" fill="#687774" fill-rule="evenodd" stroke="none"/>
      <path d="M15.85 19.75 L18.25 21.85 Q19.45 23.05 18.8 25.2 L17.5 22.8 17.4 25.85 16.4 24.45 Q15.7 26.15 16.0 27.4 L14.15 25.95 Q13.15 27.3 12.8 28.35 11.25 27.6 11.0 26.55 L9.5 28.15 9.55 26.25 6.7 27.95 Q6.0 26.75 5.85 24.75 5.0 25.85 5.15 27.25 3.3 25.15 2.9 23.05 L1.45 24.7 Q1.3 22.55 2.85 20.75 L1.3 19.95 3.9 20.0 2.95 22.2 4.9 20.75 Q5.7 21.35 7.25 21.85 7.15 23.05 7.35 23.25 L8.75 21.65 8.4 22.8 9.65 21.35 Q9.5 21.7 9.5 22.6 L11.65 22.15 13.2 21.95 13.7 20.9 14.6 23.1 Q14.35 21.65 14.5 20.75 L15.85 19.75 M15.2 24.55 L14.15 25.95 15.2 24.55 M10.3 25.65 L9.55 26.25 10.3 25.65 M16.95 23.3 L16.4 24.45 16.95 23.3" fill="url(#gradient1)" fill-rule="evenodd" stroke="none"/>
      <path d="M14.6 18.8 Q12.75 17.55 9.6 16.65 5.25 15.35 2.45 16.2 3.95 16.3 4.95 16.75 L5.65 17.15 3.7 17.65 1.55 18.4 M14.6 18.8 L15.85 19.75 18.25 21.85 Q19.45 23.05 18.8 25.2 L17.5 22.8 17.4 25.85 16.4 24.45 Q15.7 26.15 16.0 27.4 L14.15 25.95 Q13.15 27.3 12.8 28.35 11.25 27.6 11.0 26.55 L9.5 28.15 9.55 26.25 6.7 27.95 Q6.0 26.75 5.85 24.75 5.0 25.85 5.15 27.25 3.3 25.15 2.9 23.05 L1.45 24.7 Q1.3 22.55 2.85 20.75 L1.3 19.95 3.05 19.25 Q2.45 18.4 0.25 18.95 L1.55 18.4 M16.4 24.45 L16.95 23.3 M9.55 26.25 L10.3 25.65 M14.15 25.95 L15.2 24.55" fill="none" stroke="#000000" stroke-linecap="round" stroke-linejoin="round" stroke-opacity="0.3019608" stroke-width="0.30000000000000004"/>
      <path d="M20.75 9.8 L21.05 9.65 22.2 9.15 22.65 9.05 23.5 10.25 22.5 11.6 21.7 12.05 Q20.2 12.75 18.3 12.9 L19.7 12.0 20.25 11.4 Q20.8 10.55 20.75 9.8" fill="#473006" fill-rule="evenodd" stroke="none"/>
      <path d="M18.3 12.9 L13.05 12.5 15.15 11.5 Q16.6 10.75 17.45 10.75 L18.35 10.55 19.55 10.3 20.75 9.8 Q20.8 10.55 20.25 11.4 L19.7 12.0 18.3 12.9" fill="#553b07" fill-rule="evenodd" stroke="none"/>
      <path d="M13.05 12.5 Q11.4 11.85 11.15 10.85 L11.15 10.8 Q11.3 10.45 12.2 10.25 13.2 10.0 13.7 10.25 L17.45 10.75 Q16.6 10.75 15.15 11.5 L13.05 12.5" fill="#6a4e0d" fill-rule="evenodd" stroke="none"/>
      <path d="M11.15 10.85 L10.8 10.05 10.85 9.5 11.05 9.05 Q11.4 8.4 12.1 8.4 L12.2 8.45 Q13.3 8.6 13.7 10.25 13.2 10.0 12.2 10.25 11.3 10.45 11.15 10.8 L11.15 10.85" fill="#604308" fill-rule="evenodd" stroke="none"/>
      <path d="M20.75 9.8 L21.05 9.65 22.2 9.15 22.65 9.05 23.5 10.25 22.5 11.6 21.7 12.05 Q20.2 12.75 18.3 12.9 L13.05 12.5 Q11.4 11.85 11.15 10.85 L10.8 10.05 10.85 9.5 11.05 9.05 Q11.4 8.4 12.1 8.4 L12.1 8.35 12.2 8.45 Q13.3 8.6 13.7 10.25 L17.45 10.75 18.35 10.55 19.55 10.3 20.75 9.8 Q20.8 10.55 20.25 11.4 L19.7 12.0 18.3 12.9 M12.1 8.4 L12.2 8.45 M11.15 10.85 L11.15 10.8 Q11.3 10.45 12.2 10.25 13.2 10.0 13.7 10.25 M17.45 10.75 Q16.6 10.75 15.15 11.5 L13.05 12.5" fill="none" stroke="#000000" stroke-linecap="round" stroke-linejoin="round" stroke-opacity="0.3019608" stroke-width="0.30000000000000004"/>
      <path d="M25.1 0.85 L25.2 0.8 23.65 2.6 Q26.05 3.45 27.65 5.65 25.55 3.95 23.25 3.2 23.75 4.1 23.0 5.3 L23.85 7.05 Q24.75 9.45 24.25 11.4 22.75 7.85 21.7 6.55 L19.7 7.85 20.0 6.75 17.9 7.75 17.8 6.05 18.0 5.85 19.3 6.65 20.6 5.55 22.45 5.65 22.45 4.45 22.85 4.35 Q23.0 3.4 20.6 3.05 L17.2 2.8 15.5 2.7 15.1 2.7 Q11.2 2.7 10.4 3.7 9.85 4.1 10.4 4.3 L10.4 4.35 8.85 3.65 10.15 2.95 11.6 1.85 12.7 1.65 11.0 0.95 Q14.25 0.4 18.75 1.85 L18.05 0.35 Q19.65 1.25 20.65 2.3 21.3 2.35 22.5 2.95 23.6 1.7 25.0 0.85 L25.1 0.85 M14.05 12.4 L13.05 10.4 12.5 9.25 11.75 7.65 11.65 7.6 10.0 6.05 Q9.5 7.5 10.7 12.05 9.4 10.3 8.95 8.7 L8.7 6.6 Q7.15 7.55 5.9 10.9 6.0 7.1 8.2 4.95 L8.9 4.3 10.3 4.4 Q8.55 5.15 7.7 6.6 L11.05 5.55 13.25 9.0 16.9 5.7 16.85 6.8 17.75 6.05 Q16.1 9.2 14.05 12.4 M15.65 2.25 L16.95 1.7 12.55 1.15 Q14.55 1.4 15.65 2.25" fill="#78827f" fill-rule="evenodd" stroke="none"/>
      <path d="M27.65 5.65 L28.25 6.5 24.95 5.45 25.95 9.25 23.85 7.05 23.0 5.3 Q23.75 4.1 23.25 3.2 25.55 3.95 27.65 5.65 M24.25 11.4 L23.1 10.1 Q22.1 9.25 20.65 8.6 L20.65 9.55 20.6 11.85 19.5 9.85 19.0 9.0 17.55 11.1 17.05 11.85 17.1 10.8 17.15 9.0 14.95 11.7 14.05 12.4 Q16.1 9.2 17.75 6.05 L17.8 6.0 17.8 6.05 17.9 7.75 20.0 6.75 19.7 7.85 21.7 6.55 Q22.75 7.85 24.25 11.4 M12.1 9.95 L11.65 10.7 11.35 9.4 10.85 7.5 10.75 10.0 10.7 12.05 Q9.5 7.5 10.0 6.05 L11.65 7.6 11.75 7.65 12.5 9.25 12.1 9.95 M8.95 8.7 Q7.0 9.3 5.9 10.9 7.15 7.55 8.7 6.6 L8.95 8.7 M8.2 4.95 L5.85 4.95 5.85 4.9 8.8 3.6 8.85 3.65 10.4 4.35 10.55 4.4 10.3 4.4 8.9 4.3 8.2 4.95 M19.65 8.1 L19.0 9.0 19.65 8.1 M17.9 7.75 L17.15 9.0 17.9 7.75" fill="#646d6b" fill-rule="evenodd" stroke="none"/>
      <path d="M5.85 4.95 L5.65 4.9 5.75 4.8 Q7.95 2.65 11.6 1.85 L10.15 2.95 8.85 3.65 8.8 3.6 5.85 4.9 5.85 4.95 M18.05 0.35 L17.8 0.0 21.8 2.2 Q22.95 1.05 25.0 0.85 23.6 1.7 22.5 2.95 21.3 2.35 20.65 2.3 19.65 1.25 18.05 0.35 M22.45 4.45 L22.45 5.65 20.6 5.55 19.3 6.65 18.0 5.85 17.8 6.05 17.8 6.0 17.75 6.05 16.85 6.8 16.9 5.7 13.25 9.0 11.05 5.55 7.7 6.6 Q8.55 5.15 10.3 4.4 L10.55 4.4 10.4 4.35 10.4 4.3 10.75 4.45 12.15 4.65 15.25 4.85 21.9 4.55 22.45 4.45 M15.65 2.25 Q14.55 1.4 12.55 1.15 L16.95 1.7 15.65 2.25" fill="#8c9794" fill-rule="evenodd" stroke="none"/>
      <path d="M23.1 10.1 L23.05 11.35 Q21.95 10.2 20.65 9.55 L20.65 8.6 Q22.1 9.25 23.1 10.1 M19.5 9.85 Q18.85 11.15 17.5 12.3 L17.55 11.1 19.0 9.0 19.5 9.85 M17.1 10.8 L15.5 13.2 14.95 11.7 17.15 9.0 17.1 10.8 M13.05 10.4 L12.05 11.6 12.1 9.95 12.5 9.25 13.05 10.4 M11.35 9.4 L11.3 10.85 10.75 10.0 10.85 7.5 11.35 9.4" fill="#000000" fill-opacity="0.3019608" fill-rule="evenodd" stroke="none"/>
      <path d="M22.45 4.45 L21.9 4.55 15.25 4.85 12.15 4.65 16.35 4.25 Q18.1 4.1 18.45 3.55 18.9 3.1 17.2 2.8 L20.6 3.05 Q23.0 3.4 22.85 4.35 L22.45 4.45" fill="url(#gradient2)" fill-rule="evenodd" stroke="none"/>
      <path d="M12.15 4.65 L10.75 4.45 10.4 4.3 Q9.85 4.1 10.4 3.7 11.2 2.7 15.1 2.7 L15.5 2.7 17.2 2.8 Q18.9 3.1 18.45 3.55 18.1 4.1 16.35 4.25 L12.15 4.65" fill="url(#gradient3)" fill-rule="evenodd" stroke="none"/>
      <path d="M25.1 0.85 L25.2 0.8 23.65 2.6 Q26.05 3.45 27.65 5.65 L28.25 6.5 24.95 5.45 25.95 9.25 23.85 7.05 Q24.75 9.45 24.25 11.4 L23.1 10.1 Q22.1 9.25 20.65 8.6 L20.65 9.55 20.6 11.85 19.5 9.85 19.0 9.0 17.55 11.1 17.05 11.85 17.1 10.8 17.15 9.0 14.95 11.7 14.05 12.4 13.05 10.4 12.5 9.25 12.1 9.95 11.65 10.7 11.35 9.4 10.85 7.5 10.75 10.0 10.7 12.05 Q9.4 10.3 8.95 8.7 7.0 9.3 5.9 10.9 6.0 7.1 8.2 4.95 L5.85 4.95 5.65 4.9 5.75 4.8 Q7.95 2.65 11.6 1.85 L12.7 1.65 11.0 0.95 Q14.25 0.4 18.75 1.85 L18.05 0.35 17.8 0.0 21.8 2.2 Q22.95 1.05 25.0 0.85 M22.45 4.45 L21.9 4.55 15.25 4.85 12.15 4.65 10.75 4.45 10.4 4.3 M22.45 4.45 L22.85 4.35 M23.85 7.05 L23.0 5.3 M10.4 3.7 Q9.85 4.1 10.4 4.3 M12.5 9.25 L11.75 7.65 11.65 7.6 M19.0 9.0 L19.65 8.1 M17.15 9.0 L17.9 7.75 M8.9 4.3 L8.2 4.95 M8.7 6.6 L8.95 8.7" fill="none" stroke="#000000" stroke-linecap="round" stroke-linejoin="round" stroke-opacity="0.3019608" stroke-width="0.30000000000000004"/>
      <path d="M10.5 20.25 L11.75 19.85 11.4 20.25 12.15 19.9 Q13.15 18.7 11.55 18.55 L12.25 18.15 11.95 18.1 12.45 17.9 Q13.75 18.45 14.35 19.25 L13.85 19.1 Q14.25 20.25 13.25 21.15 L13.1 20.8 Q12.2 21.4 10.9 21.6 L9.75 21.4 10.0 21.65 Q7.9 21.2 7.35 20.5 L8.5 19.65 Q8.9 20.1 9.55 20.25 L10.6 21.0 10.5 20.25 M5.15 18.55 L6.05 18.6 6.0 19.75 5.4 19.55 5.5 19.1 5.15 18.55" fill="#8e4723" fill-rule="evenodd" stroke="none"/>
      <path d="M10.5 20.25 L10.6 21.0 9.55 20.25 10.5 20.25 M5.15 18.55 L4.85 18.4 5.4 17.75 Q5.5 17.45 7.0 16.95 L6.7 16.9 Q8.6 16.25 10.55 17.3 L10.15 17.3 10.25 17.4 9.4 18.0 8.45 17.4 8.55 17.5 Q7.65 17.3 6.5 17.85 6.45 18.15 7.05 18.6 L6.8 18.5 7.55 19.1 6.9 19.65 6.85 19.4 6.15 19.95 6.0 19.75 6.05 18.6 5.15 18.55" fill="#a25128" fill-rule="evenodd" stroke="none"/>
      <path d="M23.6 14.9 L23.45 16.2 23.75 15.7 23.7 15.75 23.4 17.45 23.35 17.95 23.1 18.4 22.65 19.35 22.25 19.35 22.05 19.25 21.7 19.25 22.0 18.35 22.3 17.9 22.45 16.9 22.05 17.35 Q22.6 16.5 22.5 14.6 L23.6 14.9 M20.95 16.2 L21.15 15.2 21.7 15.75 21.2 17.8 20.75 17.4 20.75 17.25 20.45 17.1 20.95 16.2" fill="#713719" fill-rule="evenodd" stroke="none"/>
      <path d="M23.65 2.6 Q26.05 3.45 27.65 5.65 L28.25 6.5 24.95 5.45 25.95 9.25 23.85 7.05 Q24.75 9.45 24.25 11.4 L23.45 10.45 23.1 11.0 23.05 11.35 23.0 11.3 Q23.85 12.9 24.1 13.85 L23.45 13.5 Q23.8 15.2 25.5 16.4 L23.95 16.55 Q24.3 17.9 23.85 19.3 L23.8 21.0 23.05 21.95 22.6 22.45 Q21.85 23.05 20.95 23.2 L19.95 22.8 Q19.4 23.45 19.0 23.35 19.1 24.15 18.8 25.2 L18.65 24.9 17.4 26.1 15.95 27.1 16.0 27.4 15.75 27.2 15.55 27.25 12.3 28.6 11.65 28.8 11.6 28.8 10.9 28.95 10.85 29.7 Q8.8 31.0 6.75 30.35 L7.15 28.55 7.05 28.5 Q4.35 30.0 1.55 29.15 L2.05 26.8 0.0 26.65 Q0.4 24.0 1.2 23.45 L1.55 23.2 1.8 22.45 Q2.15 21.55 2.85 20.75 L1.3 19.95 3.05 19.25 Q2.45 18.4 0.25 18.95 L1.55 18.4 3.7 17.65 5.65 17.15 4.95 16.75 Q3.95 16.3 2.45 16.2 L6.1 15.95 6.1 15.9 6.8 14.9 Q7.4 13.95 8.75 13.75 L11.3 12.5 8.75 12.8 9.65 12.05 10.45 11.7 Q9.35 10.15 8.95 8.7 7.0 9.3 5.9 10.9 6.0 7.1 8.2 4.95 L5.85 4.95 5.65 4.9 5.75 4.8 Q7.95 2.65 11.6 1.85 L12.7 1.65 11.0 0.95 Q14.25 0.4 18.75 1.85 L18.05 0.35 17.8 0.0 21.8 2.2 Q22.95 1.05 25.0 0.85 L25.1 0.85 25.2 0.8 23.65 2.6 M10.85 10.15 L10.75 10.0 10.7 11.6 11.3 11.45 11.2 11.0 11.15 10.85 11.1 10.7 10.85 10.15" fill="none" stroke="#000000" stroke-linecap="round" stroke-linejoin="round" stroke-opacity="0.4509804" stroke-width="0.5"/>
    </g>
    <linearGradient gradientTransform="matrix(0.008, 0.0052, -0.0048, 0.0076, 20.95, 17.15)" gradientUnits="userSpaceOnUse" id="gradient0" spreadMethod="pad" x1="-819.2" x2="819.2">
      <stop offset="0.0196078431372549" stop-color="#434948"/>
      <stop offset="1.0" stop-color="#303534"/>
    </linearGradient>
    <linearGradient gradientTransform="matrix(0.0042, 0.0059, -0.0043, 0.003, 16.95, 27.75)" gradientUnits="userSpaceOnUse" id="gradient1" spreadMethod="pad" x1="-819.2" x2="819.2">
      <stop offset="0.0196078431372549" stop-color="#4a504f"/>
      <stop offset="1.0" stop-color="#373c3b"/>
    </linearGradient>
    <linearGradient gradientTransform="matrix(0.0018, 0.0035, -0.0012, 6.0E-4, 16.75, 3.3)" gradientUnits="userSpaceOnUse" id="gradient2" spreadMethod="pad" x1="-819.2" x2="819.2">
      <stop offset="0.0196078431372549" stop-color="#5f6765"/>
      <stop offset="1.0" stop-color="#272a29"/>
    </linearGradient>
    <linearGradient gradientTransform="matrix(0.0055, 0.0036, -7.0E-4, 0.0011, 17.5, 3.95)" gradientUnits="userSpaceOnUse" id="gradient3" spreadMethod="pad" x1="-819.2" x2="819.2">
      <stop offset="0.03137254901960784" stop-color="#5f6765"/>
      <stop offset="1.0" stop-color="#333735"/>
    </linearGradient>
    <g id="sprite1" transform="matrix(1.0, 0.0, 0.0, 1.0, 32.5, 32.5)">
      <use height="65.0" transform="matrix(1.0, 0.0, 0.0, 1.0, -32.5, -32.5)" width="65.0" xlink:href="#shape2"/>
    </g>
    <g id="shape2" transform="matrix(1.0, 0.0, 0.0, 1.0, 32.5, 32.5)">
      <path d="M22.95 -23.0 Q32.5 -13.45 32.5 0.0 32.5 13.45 22.95 22.95 13.45 32.5 0.0 32.5 -13.45 32.5 -23.0 22.95 -32.5 13.45 -32.5 0.0 -32.5 -13.45 -23.0 -23.0 -13.45 -32.5 0.0 -32.5 13.45 -32.5 22.95 -23.0" fill="url(#gradient4)" fill-rule="evenodd" stroke="none"/>
    </g>
    <radialGradient cx="0" cy="0" gradientTransform="matrix(0.0406, 0.0, 0.0, 0.0406, 0.0, 0.0)" gradientUnits="userSpaceOnUse" id="gradient4" r="819.2" spreadMethod="pad">
      <stop offset="0.0" stop-color="#b2ab73"/>
      <stop offset="1.0" stop-color="#ab7836" stop-opacity="0.0"/>
    </radialGradient>
    <g id="sprite2" transform="matrix(1.0, 0.0, 0.0, 1.0, -1.05, 6.7)">
      <use height="202.6" transform="matrix(1.0, 0.0, 0.0, 1.0, 1.05, -6.7)" width="179.65" xlink:href="#shape3"/>
      <use height="65.0" transform="matrix(0.3363, -0.8133, 1.2585, 0.4778, 13.0694, 127.3036)" width="65.0" xlink:href="#sprite1"/>
    </g>
    <g id="shape3" transform="matrix(1.0, 0.0, 0.0, 1.0, -1.05, 6.7)">
      <path d="M24.85 146.55 L13.25 146.55 24.85 146.55 M13.25 147.1 L13.25 146.55 43.25 118.55 101.25 93.75 151.4 114.7 154.65 116.05 150.15 134.1 147.0 137.35 136.35 137.35 136.35 134.0 127.7 140.05 123.5 142.95 123.5 144.95 113.7 162.65 123.5 144.95 123.5 152.8 Q113.55 165.6 102.25 171.6 L114.25 156.2 101.95 156.2 81.4 181.45 77.45 182.75 77.05 182.9 60.25 178.45 35.25 178.45 Q31.5 176.85 28.25 175.15 18.7 170.2 13.25 164.45 L13.25 156.65 13.25 147.1 29.8 172.4 36.8 169.95 39.5 168.95 36.8 169.95 29.8 172.4 13.25 147.1 M13.25 156.65 L28.25 175.15 13.25 156.65 M102.35 155.7 L101.95 156.2 102.35 155.7 M36.8 169.95 L80.85 169.95 36.8 169.95 M81.3 170.9 L96.85 154.25 115.8 147.15 151.4 114.7 115.8 147.15 96.85 154.25 81.3 170.9" fill="#383221" fill-rule="evenodd" stroke="none"/>
      <path d="M136.35 142.85 L127.7 140.05 136.35 134.0 136.35 137.35 136.35 142.85" fill="#211d13" fill-rule="evenodd" stroke="none"/>
      <path d="M77.05 182.9 Q64.45 186.65 54.45 185.1 43.65 182.0 35.25 178.45 L60.25 178.45 77.05 182.9 M81.4 181.45 L101.95 156.2 114.25 156.2 102.25 171.6 Q91.1 178.0 81.4 181.45 M136.35 142.85 L136.35 137.35 147.0 137.35 Q142.35 141.45 136.35 142.85 M154.65 116.05 L154.65 127.7 Q152.7 131.15 150.15 134.1 L154.65 116.05" fill="#2e291b" fill-rule="evenodd" stroke="none"/>
      <path d="M13.25 146.55 L24.85 146.55 M13.25 146.55 L13.25 147.1 M35.25 178.45 Q31.5 176.85 28.25 175.15 18.7 170.2 13.25 164.45 L13.25 156.65 13.25 147.1 M35.25 178.45 Q43.65 182.0 54.45 185.1 64.45 186.65 77.05 182.9 M77.45 182.75 L81.4 181.45 Q91.1 178.0 102.25 171.6 113.55 165.6 123.5 152.8 L123.5 144.95 M127.7 140.05 L123.5 142.95 123.5 144.95 M136.35 137.35 L136.35 142.85 Q142.35 141.45 147.0 137.35 M136.35 137.35 L136.35 134.0 127.7 140.05 M150.15 134.1 Q152.7 131.15 154.65 127.7 L154.65 116.05 M150.15 134.1 L147.0 137.35" fill="none" stroke="#000000" stroke-linecap="round" stroke-linejoin="round" stroke-opacity="0.3019608" stroke-width="0.5"/>
      <path d="M13.25 147.1 L12.1 145.5 M13.25 147.1 L29.8 172.4 36.8 169.95 39.5 168.95 M33.15 178.45 L35.25 178.45 M28.25 175.15 L13.25 156.65 M77.05 182.9 L60.25 178.45 35.25 178.45 M77.05 182.9 L77.45 182.75 M81.4 181.45 L101.95 156.2 102.35 155.7 M80.85 169.95 L36.8 169.95 M151.4 114.7 L115.8 147.15 96.85 154.25 81.3 170.9 M152.0 114.1 L151.4 114.7 M136.35 142.85 L127.7 140.05 M123.5 144.95 L124.15 143.75 M147.0 137.35 L136.35 137.35 M154.65 116.05 L150.15 134.1 M102.25 171.6 L114.25 156.2 101.95 156.2 M123.5 144.95 L113.7 162.65" fill="none" stroke="#000000" stroke-linecap="round" stroke-linejoin="round" stroke-opacity="0.2" stroke-width="0.05"/>
      <path d="M89.05 79.35 Q72.6 78.3 60.1 83.85 72.2 82.05 85.3 88.8 L81.55 82.9 89.05 79.35 M68.2 57.5 L88.8 64.45 Q104.6 69.65 127.25 59.6 L131.7 70.7 126.5 83.3 134.3 89.4 126.5 89.4 135.15 108.9 122.15 96.35 128.65 113.25 113.45 102.85 82.15 121.45 52.35 110.15 52.35 95.2 62.35 89.35 56.5 86.95 55.95 86.75 55.25 86.45 60.0 83.85 60.05 83.85 71.9 77.25 Q63.05 76.35 55.65 80.2 57.45 77.25 61.1 74.9 69.65 72.85 75.95 75.1 L71.7 70.35 71.9 70.25 68.2 57.5 M60.0 83.85 L60.05 83.85 60.0 83.85" fill="#738582" fill-rule="evenodd" stroke="none"/>
      <path d="M89.05 79.35 L81.55 82.9 85.3 88.8 Q72.2 82.05 60.1 83.85 72.6 78.3 89.05 79.35 M71.7 70.35 L75.95 75.1 Q69.65 72.85 61.1 74.9 65.2 72.2 71.7 70.35" fill="#96aba7" fill-rule="evenodd" stroke="none"/>
      <path d="M146.3 76.1 L150.7 78.6 146.3 76.1 M82.15 121.45 L113.45 102.85 128.65 113.25 122.15 96.35 135.15 108.9 126.5 89.4 134.3 89.4 126.5 83.3 131.7 70.7 127.25 59.6 Q104.6 69.65 88.8 64.45 L68.2 57.5 64.5 44.8 138.3 49.55 Q152.15 70.9 155.1 81.1 L150.7 78.6 Q153.2 89.65 164.65 96.85 159.65 99.35 154.65 98.5 158.55 111.9 150.05 126.85 L150.05 119.95 Q145.75 130.5 138.45 134.7 L143.85 120.15 Q135.05 128.9 132.6 137.6 L129.0 132.75 118.05 141.35 99.35 127.95 82.15 121.45 M149.65 96.85 Q152.15 98.1 154.65 98.5 152.15 98.1 149.65 96.85 M96.0 125.55 L99.35 127.95 96.0 125.55 M150.05 113.1 L150.05 119.95 150.05 113.1 M110.15 110.6 L122.65 120.55 Q124.8 126.65 129.0 132.75 124.8 126.65 122.65 120.55 L110.15 110.6" fill="url(#gradient5)" fill-rule="evenodd" stroke="none"/>
      <path d="M150.7 78.6 L146.3 76.1 M68.2 57.5 L71.9 70.25 71.7 70.35 M61.1 74.9 Q57.45 77.25 55.65 80.2 63.05 76.35 71.9 77.25 L60.05 83.85 60.0 83.85 55.25 86.45 55.95 86.75 M56.5 86.95 L62.35 89.35 52.35 95.2 52.35 110.15 82.15 121.45 99.35 127.95 96.0 125.55 M154.65 98.5 Q152.15 98.1 149.65 96.85 M68.2 57.5 L64.5 44.8 138.3 49.55 Q152.15 70.9 155.1 81.1 L150.7 78.6 Q153.2 89.65 164.65 96.85 159.65 99.35 154.65 98.5 158.55 111.9 150.05 126.85 L150.05 119.95 Q145.75 130.5 138.45 134.7 L143.85 120.15 Q135.05 128.9 132.6 137.6 L129.0 132.75 118.05 141.35 99.35 127.95 M61.1 74.9 Q65.2 72.2 71.7 70.35 M129.0 132.75 Q124.8 126.65 122.65 120.55 L110.15 110.6 M150.05 119.95 L150.05 113.1" fill="none" stroke="#000000" stroke-linecap="round" stroke-linejoin="round" stroke-opacity="0.3019608" stroke-width="0.5"/>
      <path d="M100.7 96.7 Q111.85 102.5 120.5 110.8 131.25 125.75 125.6 129.9 119.45 130.25 113.25 124.35 L113.1 124.5 113.1 124.2 Q112.95 120.6 112.0 116.65 111.35 114.2 109.4 109.5 106.35 104.1 100.7 96.7" fill="#996b0f" fill-rule="evenodd" stroke="none"/>
      <path d="M71.55 97.4 L71.3 97.1 61.2 85.4 Q76.7 84.15 100.7 96.7 106.35 104.1 109.4 109.5 111.35 114.2 112.0 116.65 112.95 120.6 113.1 124.2 L113.1 124.5 112.65 124.0 112.45 123.75 Q89.65 99.2 71.55 97.4" fill="#ad7910" fill-rule="evenodd" stroke="none"/>
      <path d="M43.3 94.75 Q47.65 86.6 60.95 85.35 L61.0 85.35 61.2 85.4 71.3 97.1 71.55 97.4 Q58.35 95.05 49.95 103.15 L49.8 103.2 49.5 103.8 49.0 103.4 Q43.45 99.1 43.3 95.2 L43.3 94.75" fill="#cc951a" fill-rule="evenodd" stroke="none"/>
      <path d="M43.3 94.75 L43.3 95.2 Q43.45 99.1 49.0 103.4 L49.5 103.8 Q43.6 110.15 42.25 118.75 39.2 116.4 38.3 111.35 37.0 104.4 38.95 101.4 L43.3 94.75" fill="#bd8812" fill-rule="evenodd" stroke="none"/>
      <path d="M112.0 132.65 Q111.8 131.75 104.45 124.85 101.5 122.1 96.25 118.6 L89.7 114.15 Q83.45 111.85 74.3 100.75 L71.55 97.4 Q89.65 99.2 112.45 123.75 L112.65 124.0 113.1 124.5 Q113.2 128.9 112.0 132.65" fill="#8c610c" fill-rule="evenodd" stroke="none"/>
      <path d="M60.95 108.5 Q54.25 122.0 45.55 120.3 L44.85 120.1 Q43.4 119.6 42.25 118.75 43.6 110.15 49.5 103.8 L49.75 103.95 Q56.65 109.05 60.95 108.5" fill="#9e6e0f" fill-rule="evenodd" stroke="none"/>
      <path d="M49.5 103.8 L49.8 103.2 49.95 103.15 Q58.35 95.05 71.55 97.4 L74.3 100.75 Q83.45 111.85 89.7 114.15 L60.95 108.5 Q56.65 109.05 49.75 103.95 L49.5 103.8" fill="#ab7810" fill-rule="evenodd" stroke="none"/>
      <path d="M120.5 110.8 L124.3 114.7 Q127.25 117.9 128.75 121.1 133.1 128.95 133.3 136.1 125.9 148.5 121.35 143.0 116.75 137.5 113.95 135.2 111.4 133.05 112.0 132.65 113.2 128.9 113.1 124.5 L113.25 124.35 Q119.45 130.25 125.6 129.9 131.25 125.75 120.5 110.8" fill="#78540b" fill-rule="evenodd" stroke="none"/>
      <path d="M61.2 85.4 L61.0 85.35 60.95 85.35 Q47.65 86.6 43.3 94.75 L43.3 95.2 Q43.45 99.1 49.0 103.4 L49.5 103.8 49.75 103.95 Q56.65 109.05 60.95 108.5 54.25 122.0 45.55 120.3 L45.05 120.6 44.85 120.1 Q43.4 119.6 42.25 118.75 39.2 116.4 38.3 111.35 37.0 104.4 38.95 101.4 L43.3 94.75 M71.3 97.1 L61.2 85.4 Q76.7 84.15 100.7 96.7 111.85 102.5 120.5 110.8 L124.3 114.7 Q127.25 117.9 128.75 121.1 133.1 128.95 133.3 136.1 125.9 148.5 121.35 143.0 116.75 137.5 113.95 135.2 111.4 133.05 112.0 132.65 111.8 131.75 104.45 124.85 101.5 122.1 96.25 118.6 L89.7 114.15 60.95 108.5 M45.55 120.3 L44.85 120.1 M113.1 124.5 L113.1 124.2 Q112.95 120.6 112.0 116.65 111.35 114.2 109.4 109.5 106.35 104.1 100.7 96.7 M113.1 124.5 Q113.2 128.9 112.0 132.65 M89.7 114.15 Q83.45 111.85 74.3 100.75 L71.55 97.4" fill="none" stroke="#000000" stroke-linecap="round" stroke-linejoin="round" stroke-opacity="0.3019608" stroke-width="0.5"/>
      <path d="M1.3 173.95 Q3.55 156.6 8.4 152.5 14.9 147.05 19.25 148.6 21.35 155.05 19.7 161.6 18.7 165.55 1.3 173.95" fill="#ad9970" fill-rule="evenodd" stroke="none"/>
      <path d="M19.25 148.6 Q29.05 156.85 27.6 168.45 14.7 176.9 1.3 173.95 18.7 165.55 19.7 161.6 21.35 155.05 19.25 148.6" fill="#826d43" fill-rule="evenodd" stroke="none"/>
      <path d="M19.25 148.6 Q29.05 156.85 27.6 168.45 14.7 176.9 1.3 173.95 3.55 156.6 8.4 152.5 14.9 147.05 19.25 148.6 Z" fill="none" stroke="#000000" stroke-linecap="round" stroke-linejoin="round" stroke-opacity="0.3019608" stroke-width="0.5"/>
      <path d="M12.0 189.3 Q15.25 163.15 22.25 156.95 31.6 148.75 37.9 151.25 40.95 160.95 37.1 171.7 33.25 182.4 12.0 189.3" fill="#e1cfa8" fill-rule="evenodd" stroke="none"/>
      <path d="M12.0 189.3 Q33.25 182.4 37.1 171.7 40.95 160.95 37.9 151.25 52.05 163.75 49.95 181.3 31.35 193.9 12.0 189.3" fill="#bca46d" fill-rule="evenodd" stroke="none"/>
      <path d="M37.9 151.25 Q31.6 148.75 22.25 156.95 15.25 163.15 12.0 189.3 M37.9 151.25 Q52.05 163.75 49.95 181.3 31.35 193.9 12.0 189.3" fill="none" stroke="#000000" stroke-linecap="round" stroke-linejoin="round" stroke-opacity="0.3019608" stroke-width="0.5"/>
      <path d="M63.8 167.9 Q65.9 174.8 64.25 181.75 63.25 186.0 45.85 194.8 48.1 176.35 52.95 171.95 59.45 166.2 63.8 167.9" fill="#e1cfa8" fill-rule="evenodd" stroke="none"/>
      <path d="M45.85 194.8 Q63.25 186.0 64.25 181.75 65.9 174.8 63.8 167.9 73.6 176.75 72.15 189.15 59.25 198.0 45.85 194.8" fill="#bca46d" fill-rule="evenodd" stroke="none"/>
      <path d="M63.8 167.9 Q59.45 166.2 52.95 171.95 48.1 176.35 45.85 194.8 59.25 198.0 72.15 189.15 73.6 176.75 63.8 167.9 Z" fill="none" stroke="#000000" stroke-linecap="round" stroke-linejoin="round" stroke-opacity="0.3019608" stroke-width="0.5"/>
      <path d="M102.5 122.65 Q100.5 125.8 94.35 129.45 93.45 135.3 95.5 144.85 L89.1 130.75 Q88.4 135.55 86.05 137.85 84.3 137.9 75.95 139.85 67.3 141.8 62.05 143.45 62.1 137.55 63.1 135.2 61.4 136.95 55.3 145.5 L57.2 137.55 Q50.8 147.15 48.3 148.7 47.1 147.4 47.5 139.6 37.2 137.0 32.0 133.5 L19.5 143.45 25.35 128.9 Q15.4 131.3 8.35 129.35 L19.9 124.3 Q15.75 119.15 1.6 123.55 5.15 121.55 9.9 119.45 31.45 116.3 38.2 121.35 L39.95 130.3 50.15 120.55 68.95 133.2 67.7 117.5 78.5 120.0 63.65 109.95 94.55 116.8 Q99.1 119.55 102.5 122.65" fill="#7f918e" fill-rule="evenodd" stroke="none"/>
      <path d="M94.55 116.8 L63.65 109.95 78.5 120.0 67.7 117.5 68.95 133.2 50.15 120.55 39.95 130.3 38.2 121.35 Q31.45 116.3 9.9 119.45 15.85 116.8 23.7 113.95 L36.2 109.7 Q34.85 108.5 31.6 107.3 25.0 104.9 15.3 104.9 33.1 98.4 61.55 104.8 82.25 109.45 94.55 116.8" fill="#96aba7" fill-rule="evenodd" stroke="none"/>
      <path d="M8.35 129.35 Q15.4 131.3 25.35 128.9 L19.5 143.45 32.0 133.5 Q37.2 137.0 47.5 139.6 47.1 147.4 48.3 148.7 50.8 147.15 57.2 137.55 L55.3 145.5 Q61.4 136.95 63.1 135.2 62.1 137.55 62.05 143.45 67.3 141.8 75.95 139.85 84.3 137.9 86.05 137.85 88.4 135.55 89.1 130.75 L95.5 144.85 Q93.45 135.3 94.35 129.45 100.5 125.8 102.5 122.65 111.1 127.45 118.85 134.9 126.55 142.35 123.05 156.8 L113.9 141.4 113.9 161.35 107.2 152.9 Q102.85 164.45 105.2 172.15 L92.95 163.2 Q86.7 172.9 84.8 179.65 74.3 175.45 72.75 168.4 L63.25 179.65 63.25 167.15 Q54.7 174.5 45.3 179.25 40.35 171.65 38.95 158.95 33.75 166.6 34.7 175.25 22.5 162.55 19.6 148.95 L10.35 160.5 Q9.0 146.55 18.7 133.95 L8.35 129.35 M67.75 163.0 L63.25 167.15 67.75 163.0 M99.35 153.85 Q95.7 158.8 92.95 163.2 95.7 158.8 99.35 153.85 M110.6 145.15 Q108.55 149.2 107.2 152.9 108.55 149.2 110.6 145.15" fill="url(#gradient6)" fill-rule="evenodd" stroke="none"/>
      <path d="M102.5 122.65 Q99.1 119.55 94.55 116.8 82.25 109.45 61.55 104.8 33.1 98.4 15.3 104.9 25.0 104.9 31.6 107.3 34.85 108.5 36.2 109.7 L23.7 113.95 Q15.85 116.8 9.9 119.45 5.15 121.55 1.6 123.55 15.75 119.15 19.9 124.3 L8.35 129.35 18.7 133.95 Q9.0 146.55 10.35 160.5 L19.6 148.95 Q22.5 162.55 34.7 175.25 33.75 166.6 38.95 158.95 40.35 171.65 45.3 179.25 54.7 174.5 63.25 167.15 L67.75 163.0 M63.25 167.15 L63.25 179.65 72.75 168.4 Q74.3 175.45 84.8 179.65 86.7 172.9 92.95 163.2 95.7 158.8 99.35 153.85 M107.2 152.9 L113.9 161.35 113.9 141.4 123.05 156.8 Q126.55 142.35 118.85 134.9 111.1 127.45 102.5 122.65 M92.95 163.2 L105.2 172.15 Q102.85 164.45 107.2 152.9 108.55 149.2 110.6 145.15" fill="none" stroke="#000000" stroke-linecap="round" stroke-linejoin="round" stroke-opacity="0.3019608" stroke-width="0.5"/>
      <path d="M117.15 77.2 Q123.0 73.5 126.4 70.6 L129.75 66.4 Q133.1 60.85 132.6 55.85 132.15 55.5 134.6 54.6 137.3 53.7 141.95 50.95 143.35 50.15 144.7 50.5 147.7 51.25 150.35 57.95 148.95 62.6 144.05 66.9 142.3 68.7 139.35 70.2 129.45 75.3 117.15 77.2" fill="#664509" fill-rule="evenodd" stroke="none"/>
      <path d="M83.3 76.6 L96.55 69.15 Q105.9 63.75 111.35 63.5 L117.4 61.9 Q122.3 60.65 125.1 59.45 132.3 56.4 132.6 55.85 133.1 60.85 129.75 66.4 L126.4 70.6 Q123.0 73.5 117.15 77.2 95.6 80.55 83.3 76.6" fill="#7a550b" fill-rule="evenodd" stroke="none"/>
      <path d="M111.35 63.5 Q105.9 63.75 96.55 69.15 L83.3 76.6 83.15 76.55 83.1 76.55 Q72.55 73.0 70.5 66.75 L70.6 66.45 Q71.45 63.75 77.35 62.05 83.8 60.1 87.2 61.35 L111.35 63.5" fill="#997013" fill-rule="evenodd" stroke="none"/>
      <path d="M87.2 61.35 Q83.8 60.1 77.35 62.05 71.45 63.75 70.6 66.45 L70.5 66.75 68.2 61.5 Q67.6 60.1 68.2 57.9 68.55 56.55 69.45 54.85 71.65 50.5 76.25 50.4 L76.85 50.45 Q84.15 51.05 87.2 61.35" fill="#8a600c" fill-rule="evenodd" stroke="none"/>
      <path d="M111.35 63.5 Q105.9 63.75 96.55 69.15 L83.3 76.6 Q95.6 80.55 117.15 77.2 123.0 73.5 126.4 70.6 L129.75 66.4 Q133.1 60.85 132.6 55.85 132.3 56.4 125.1 59.45 122.3 60.65 117.4 61.9 L111.35 63.5 87.2 61.35 Q83.8 60.1 77.35 62.05 71.45 63.75 70.6 66.45 L70.5 66.75 Q72.55 73.0 83.1 76.55 L83.15 76.55 83.3 76.6 M132.6 55.85 Q132.15 55.5 134.6 54.6 137.3 53.7 141.95 50.95 143.35 50.15 144.7 50.5 147.7 51.25 150.35 57.95 148.95 62.6 144.05 66.9 142.3 68.7 139.35 70.2 129.45 75.3 117.15 77.2 M76.25 50.4 L76.85 50.45 76.45 50.15 76.25 50.4 Q71.65 50.5 69.45 54.85 68.55 56.55 68.2 57.9 67.6 60.1 68.2 61.5 L70.5 66.75 M76.85 50.45 Q84.15 51.05 87.2 61.35" fill="none" stroke="#000000" stroke-linecap="round" stroke-linejoin="round" stroke-opacity="0.3019608" stroke-width="0.5"/>
      <path d="M158.6 -3.95 L159.05 -4.0 159.75 -4.1 149.9 8.15 Q165.6 12.85 176.5 26.25 162.25 15.95 147.3 12.1 151.05 17.6 146.15 25.55 149.75 31.35 152.15 36.85 158.6 51.95 155.5 65.05 145.05 42.75 137.95 34.45 L125.35 43.6 127.1 36.55 113.65 43.45 112.65 32.75 114.15 31.35 122.35 36.15 130.9 28.35 143.05 28.35 142.45 20.45 145.15 19.4 Q145.75 13.25 130.1 11.9 L108.1 11.9 97.1 11.9 94.55 12.05 Q69.2 13.75 64.2 20.35 60.8 23.0 64.35 24.45 L64.25 24.75 54.1 20.7 62.4 15.55 71.75 7.95 78.8 6.25 67.7 2.15 Q88.55 -2.65 117.85 5.15 117.4 0.45 113.3 -4.35 123.8 1.05 130.55 7.0 134.75 7.15 142.7 10.75 149.55 2.3 158.6 -3.95 M89.65 75.45 L82.75 62.7 79.0 55.75 73.65 45.7 72.95 45.1 62.1 35.75 Q59.1 45.45 68.0 74.5 59.2 63.8 55.9 53.2 L56.65 52.85 55.9 53.2 Q53.85 46.65 53.85 40.15 43.8 46.95 36.45 68.85 36.5 44.3 50.4 29.4 L54.55 25.05 63.7 25.05 Q52.75 30.6 47.5 40.45 L68.7 32.1 83.95 53.8 106.95 31.0 106.95 38.05 112.35 33.0 Q102.45 54.1 89.65 75.45 M98.1 8.8 L106.2 5.0 Q93.0 1.5 77.6 3.0 90.7 4.0 98.1 8.8" fill="#acbab7" fill-rule="evenodd" stroke="none"/>
      <path d="M176.5 26.25 L180.45 31.65 Q165.4 27.15 158.85 26.05 L166.35 50.0 152.15 36.85 Q149.75 31.35 146.15 25.55 151.05 17.6 147.3 12.1 162.25 15.95 176.5 26.25 M155.5 65.05 Q152.35 60.6 147.8 56.95 141.35 51.75 132.0 48.15 L132.0 54.35 132.0 69.3 124.25 56.5 121.15 51.45 112.2 65.8 109.15 70.7 109.15 63.65 109.15 51.9 Q102.55 63.3 95.45 70.45 L89.65 75.45 Q102.45 54.1 112.35 33.0 L112.65 32.45 112.65 32.75 113.65 43.45 127.1 36.55 125.35 43.6 137.95 34.45 Q145.05 42.75 155.5 65.05 M76.6 60.15 L73.65 65.55 71.3 56.95 68.0 44.85 68.0 61.2 68.0 74.5 Q59.1 45.45 62.1 35.75 L72.95 45.1 73.65 45.7 79.0 55.75 76.6 60.15 M55.9 53.2 Q43.35 58.15 36.45 68.85 43.8 46.95 53.85 40.15 53.85 46.65 55.9 53.2 M50.4 29.4 L35.1 30.2 35.05 29.9 53.9 20.6 54.1 20.7 64.25 24.75 65.15 25.05 63.7 25.05 54.55 25.05 50.4 29.4 M113.65 43.45 L109.15 51.9 113.65 43.45 M124.95 45.35 L121.15 51.45 124.95 45.35" fill="#909c9a" fill-rule="evenodd" stroke="none"/>
      <path d="M113.3 -4.35 L111.25 -6.45 138.1 6.25 Q145.3 -1.9 158.6 -3.95 149.55 2.3 142.7 10.75 134.75 7.15 130.55 7.0 123.8 1.05 113.3 -4.35 M35.1 30.2 L33.65 30.25 34.5 29.35 Q48.0 14.5 71.75 7.95 L62.4 15.55 54.1 20.7 53.9 20.6 35.05 29.9 35.1 30.2 M75.75 26.15 Q83.5 26.5 95.75 26.05 124.4 25.45 139.15 21.45 L142.45 20.45 143.05 28.35 130.9 28.35 122.35 36.15 114.15 31.35 112.65 32.75 112.65 32.45 112.35 33.0 106.95 38.05 106.95 31.0 83.95 53.8 68.7 32.1 47.5 40.45 Q52.75 30.6 63.7 25.05 L65.15 25.05 64.25 24.75 64.35 24.45 66.7 25.15 75.75 26.15 M98.1 8.8 Q90.7 4.0 77.6 3.0 93.0 1.5 106.2 5.0 L98.1 8.8" fill="#c9d9d5" fill-rule="evenodd" stroke="none"/>
      <path d="M147.8 56.95 L147.65 65.0 Q140.15 58.05 132.0 54.35 L132.0 48.15 Q141.35 51.75 147.8 56.95 M124.25 56.5 Q120.5 65.35 112.2 73.4 L112.2 65.8 121.15 51.45 124.25 56.5 M109.15 63.65 Q104.2 73.4 98.9 79.95 L95.45 70.45 Q102.55 63.3 109.15 51.9 L109.15 63.65 M82.75 62.7 L76.8 70.85 76.6 60.15 79.0 55.75 82.75 62.7 M71.3 56.95 L71.3 66.4 68.0 61.2 68.0 44.85 71.3 56.95" fill="#000000" fill-opacity="0.3019608" fill-rule="evenodd" stroke="none"/>
      <path d="M108.1 11.9 Q119.35 13.0 116.75 16.4 114.2 19.75 102.8 21.65 L75.75 26.15 66.7 25.15 64.35 24.45 Q60.8 23.0 64.2 20.35 69.2 13.75 94.55 12.05 L97.1 11.9 108.1 11.9" fill="url(#gradient7)" fill-rule="evenodd" stroke="none"/>
      <path d="M145.15 19.4 L142.45 20.45 139.15 21.45 Q124.4 25.45 95.75 26.05 83.5 26.5 75.75 26.15 L102.8 21.65 Q114.2 19.75 116.75 16.4 119.35 13.0 108.1 11.9 L130.1 11.9 Q145.75 13.25 145.15 19.4" fill="url(#gradient8)" fill-rule="evenodd" stroke="none"/>
      <path d="M113.3 -4.35 L111.25 -6.45 138.1 6.25 Q145.3 -1.9 158.6 -3.95 M159.05 -4.0 L159.75 -4.1 149.9 8.15 Q165.6 12.85 176.5 26.25 L180.45 31.65 Q165.4 27.15 158.85 26.05 L166.35 50.0 152.15 36.85 Q158.6 51.95 155.5 65.05 152.35 60.6 147.8 56.95 141.35 51.75 132.0 48.15 L132.0 54.35 132.0 69.3 124.25 56.5 121.15 51.45 112.2 65.8 109.15 70.7 109.15 63.65 109.15 51.9 Q102.55 63.3 95.45 70.45 L89.65 75.45 82.75 62.7 79.0 55.75 73.65 45.7 72.95 45.1 M76.6 60.15 L73.65 65.55 71.3 56.95 68.0 44.85 68.0 61.2 68.0 74.5 Q59.2 63.8 55.9 53.2 43.35 58.15 36.45 68.85 36.5 44.3 50.4 29.4 L35.1 30.2 33.65 30.25 34.5 29.35 Q48.0 14.5 71.75 7.95 L78.8 6.25 67.7 2.15 Q88.55 -2.65 117.85 5.15 117.4 0.45 113.3 -4.35 M142.45 20.45 L145.15 19.4 M75.75 26.15 Q83.5 26.5 95.75 26.05 124.4 25.45 139.15 21.45 L142.45 20.45 M152.15 36.85 Q149.75 31.35 146.15 25.55 M64.2 20.35 Q60.8 23.0 64.35 24.45 L66.7 25.15 75.75 26.15 M121.15 51.45 L124.95 45.35 M109.15 51.9 L113.65 43.45 M54.55 25.05 L50.4 29.4 M79.0 55.75 L76.6 60.15 M55.9 53.2 L56.65 52.85 M53.85 40.15 Q53.85 46.65 55.9 53.2" fill="none" stroke="#000000" stroke-linecap="round" stroke-linejoin="round" stroke-opacity="0.3019608" stroke-width="0.5"/>
      <path d="M68.2 127.95 Q71.1 127.55 76.4 125.1 L74.15 127.55 Q78.05 125.35 79.0 125.0 85.1 116.9 74.85 116.45 L79.1 113.6 77.15 113.1 80.3 111.95 Q89.15 115.0 92.95 119.85 90.5 118.65 89.5 119.2 92.45 126.4 86.05 132.6 85.65 130.3 85.0 130.6 79.65 134.85 71.2 136.75 67.7 136.7 63.75 135.55 63.1 135.55 65.35 137.25 51.8 135.15 47.75 130.65 L55.15 125.0 Q57.9 127.45 62.1 128.05 L68.75 132.8 68.2 127.95 M33.1 118.95 L38.9 118.95 38.9 126.65 Q37.4 125.35 35.2 125.3 35.5 124.25 35.35 122.45 33.6 120.9 33.1 118.95" fill="#cc6633" fill-rule="evenodd" stroke="none"/>
      <path d="M68.2 127.95 L68.75 132.8 62.1 128.05 Q64.85 128.4 68.2 127.95 M33.1 118.95 Q32.95 118.5 31.15 118.15 32.25 116.35 34.85 113.5 35.2 111.55 44.85 108.05 L42.8 107.7 Q55.15 102.9 67.85 108.55 L65.2 109.15 65.9 109.8 60.8 113.55 54.4 110.25 Q53.6 109.85 54.8 111.1 48.9 109.9 41.85 113.75 41.45 115.9 45.6 118.45 L43.8 118.05 Q45.7 120.25 48.8 121.55 L44.95 125.2 44.55 124.1 40.1 127.65 38.9 126.65 38.9 118.95 33.1 118.95" fill="#e8743a" fill-rule="evenodd" stroke="none"/>
      <path d="M151.9 87.95 L151.3 96.35 153.2 93.1 153.1 93.35 Q152.95 97.4 151.35 104.35 L151.15 107.85 149.3 110.95 Q148.0 115.0 146.8 117.15 L144.35 117.55 143.05 116.75 140.5 116.75 Q142.0 113.7 142.2 110.9 L144.1 108.0 145.05 101.6 142.5 104.3 Q145.9 98.7 144.85 86.45 L151.9 87.95 M134.95 97.25 Q136.65 92.35 136.05 90.65 L139.9 94.05 Q139.35 99.9 137.0 107.6 L134.05 105.3 134.0 104.45 132.15 103.4 Q133.25 102.1 134.95 97.25" fill="#a34f25" fill-rule="evenodd" stroke="none"/>
    </g>
    <linearGradient gradientTransform="matrix(0.0529, 0.0306, -0.0295, 0.051, 135.55, 103.6)" gradientUnits="userSpaceOnUse" id="gradient5" spreadMethod="pad" x1="-819.2" x2="819.2">
      <stop offset="0.0196078431372549" stop-color="#616967"/>
      <stop offset="1.0" stop-color="#464d4b"/>
    </linearGradient>
    <linearGradient gradientTransform="matrix(0.0281, 0.0366, -0.0275, 0.0211, 111.4, 174.15)" gradientUnits="userSpaceOnUse" id="gradient6" spreadMethod="pad" x1="-819.2" x2="819.2">
      <stop offset="0.0196078431372549" stop-color="#6a7371"/>
      <stop offset="1.0" stop-color="#4f5755"/>
    </linearGradient>
    <linearGradient gradientTransform="matrix(0.0367, 0.0212, -0.0044, 0.0076, 110.45, 19.15)" gradientUnits="userSpaceOnUse" id="gradient7" spreadMethod="pad" x1="-819.2" x2="819.2">
      <stop offset="0.03137254901960784" stop-color="#899491"/>
      <stop offset="1.0" stop-color="#494f4d"/>
    </linearGradient>
    <linearGradient gradientTransform="matrix(0.0125, 0.0217, -0.0076, 0.0044, 105.3, 15.4)" gradientUnits="userSpaceOnUse" id="gradient8" spreadMethod="pad" x1="-819.2" x2="819.2">
      <stop offset="0.0196078431372549" stop-color="#899491"/>
      <stop offset="1.0" stop-color="#383d3b"/>
    </linearGradient>
    <g id="shape4" transform="matrix(1.0, 0.0, 0.0, 1.0, -11.5, -6.65)">
      <path d="M30.8 6.9 L35.45 9.1 Q36.7 7.65 39.0 7.3 L39.1 7.3 39.2 7.3 37.5 9.4 Q40.2 10.25 42.1 12.55 L42.8 13.5 39.05 12.5 40.35 16.65 37.9 14.4 Q39.0 17.0 38.45 19.3 L37.5 18.2 37.1 18.95 37.1 19.25 38.4 22.05 37.65 21.65 Q38.05 23.55 40.05 24.8 39.2 25.25 38.3 25.1 38.75 26.55 38.3 28.1 L38.3 30.15 37.55 31.25 37.0 31.8 Q36.2 32.55 35.15 32.75 L34.05 32.4 Q33.45 33.15 33.0 33.1 L32.85 35.2 32.65 34.85 Q31.2 36.55 29.65 37.5 L29.75 37.85 29.45 37.65 29.25 37.75 Q27.3 38.85 25.6 39.45 L24.95 39.7 24.85 39.7 24.05 39.95 24.0 40.8 Q21.75 42.35 19.45 41.8 L19.8 39.75 19.7 39.7 Q16.7 41.55 13.6 40.8 13.75 39.3 14.05 38.2 L11.75 38.15 Q12.1 35.15 12.95 34.45 L13.35 34.15 13.6 33.25 Q14.0 32.2 14.75 31.25 L12.95 30.45 14.95 29.55 11.8 29.4 13.2 28.7 15.6 27.75 17.8 27.0 17.0 26.6 14.15 26.2 Q15.9 25.55 18.25 25.65 L18.25 25.6 19.0 24.45 Q19.6 23.3 21.15 22.95 L21.9 22.55 23.95 21.4 Q22.45 21.25 21.15 21.9 21.45 21.4 22.1 21.0 L23.0 20.55 Q21.7 18.85 21.2 17.2 19.0 18.1 17.8 19.95 17.85 15.7 20.25 13.1 L17.35 13.25 17.5 13.1 Q19.8 10.5 23.95 9.4 L25.15 9.1 23.25 8.35 Q26.85 7.55 31.95 8.9 31.85 8.1 31.15 7.25 L30.8 6.9 M23.3 18.6 L23.3 20.4 23.95 20.2 23.9 19.95 23.7 19.55 23.35 18.65 23.3 18.6" fill="none" stroke="#000000" stroke-linecap="round" stroke-linejoin="round" stroke-opacity="0.4509804" stroke-width="0.5"/>
    </g>
  </defs>
</svg>
