<?xml version="1.0" encoding="UTF-8" standalone="no"?>
<svg xmlns:xlink="http://www.w3.org/1999/xlink" height="440.0px" width="440.0px" xmlns="http://www.w3.org/2000/svg">
  <g transform="matrix(10.0, 0.0, 0.0, 10.0, 0.0, 0.0)">
    <use height="44.0" transform="matrix(1.0, 0.0, 0.0, 1.0, 0.0, 0.0)" width="44.0" xlink:href="#shape0"/>
    <use height="7.85" transform="matrix(-0.7267, 0.81, 0.9438, 0.6237, 15.5676, 14.09)" width="5.5" xlink:href="#sprite0"/>
    <use height="25.55" transform="matrix(0.6859, 0.0, 0.0, 0.5887, 6.3, 25.3028)" width="28.4" xlink:href="#sprite1"/>
    <use height="25.6" transform="matrix(1.0, 0.0, 0.0, 1.0, 14.65, 16.9)" width="18.45" xlink:href="#shape8"/>
  </g>
  <defs>
    <g id="shape0" transform="matrix(1.0, 0.0, 0.0, 1.0, 0.0, 0.0)">
      <path d="M44.0 44.0 L0.0 44.0 0.0 0.0 44.0 0.0 44.0 44.0" fill="#43adca" fill-opacity="0.0" fill-rule="evenodd" stroke="none"/>
      <path d="M42.35 11.4 L41.45 12.15 40.45 12.2 40.45 15.0 40.45 15.6 41.3 15.5 42.15 15.1 42.35 11.4 42.35 11.2 Q42.3 8.65 41.85 6.85 L41.0 7.7 40.0 8.05 40.0 8.3 40.45 12.2 M40.45 15.6 Q40.3 17.15 37.3 18.25 L33.15 19.35 33.2 19.4 33.15 19.4 31.8 20.55 30.6 21.55 37.3 20.25 Q41.0 19.45 41.4 18.95 42.2 17.95 42.15 15.1 M38.8 4.15 L39.1 3.15 Q36.5 2.05 31.65 4.7 L32.3 4.65 Q32.55 4.7 32.7 4.9 L32.7 5.0 32.55 6.15 Q35.95 4.05 37.9 5.0 L38.8 4.15 M31.65 4.7 L31.55 4.75 31.5 4.75 31.45 4.8 31.25 4.9 30.85 5.15 Q29.15 6.0 27.55 6.45 L27.55 7.2 31.8 5.55 32.7 5.0 M37.9 5.0 Q39.35 5.65 40.0 8.05 M27.55 7.2 L26.7 8.3 29.0 7.6 30.3 7.1 32.45 6.2 32.55 6.15 M24.7 1.75 L22.65 1.8 Q20.2 2.2 17.5 3.35 20.1 2.55 22.3 2.4 23.3 2.35 23.5 2.85 23.65 3.25 23.4 3.85 L24.6 3.9 24.95 2.2 Q25.1 1.9 24.7 1.75 M26.7 8.3 L22.35 8.4 22.1 8.3 Q21.0 7.35 21.55 5.65 L21.85 4.85 21.9 4.7 Q22.2 4.15 22.1 3.75 L22.0 3.7 Q20.2 3.65 18.05 4.7 L17.25 5.15 16.65 5.55 15.2 6.9 14.95 7.3 Q13.9 8.7 13.9 9.85 13.9 10.65 14.25 11.3 L15.0 12.3 15.3 12.5 15.45 12.55 15.6 12.65 15.75 12.75 17.95 13.95 M19.25 15.15 L19.9 15.8 21.0 16.7 21.15 16.85 21.0 16.5 21.0 16.45 20.15 14.35 Q20.45 13.65 21.15 13.4 22.55 12.65 23.25 13.8 L23.3 13.9 23.85 11.25 Q24.75 10.55 25.9 10.6 28.25 10.55 28.2 12.35 L27.05 15.2 26.95 15.4 25.55 17.9 25.35 18.15 25.2 18.2 24.9 18.5 27.25 18.85 28.75 18.0 29.55 17.55 30.65 17.1 31.65 16.85 32.2 17.3 32.7 18.15 33.05 18.95 33.15 19.35 30.65 19.45 29.65 19.6 27.65 20.2 25.85 20.9 25.85 20.95 25.7 22.0 25.8 22.45 26.4 22.8 26.05 23.1 26.6 23.95 27.0 23.8 27.75 22.0 27.9 21.55 27.85 22.0 Q27.75 22.6 27.95 23.4 L29.45 22.35 30.6 21.55 M22.1 8.3 L22.45 7.9 23.6 7.15 23.1 6.65 Q22.5 5.5 23.4 3.85 22.85 3.95 22.4 4.3 L21.9 4.7 M24.6 3.9 L24.5 4.0 24.3 4.8 Q23.95 6.05 25.05 6.7 L27.05 6.55 27.55 6.45 M25.05 6.7 L23.6 7.15 26.95 7.35 27.55 7.2 M25.1 12.2 L25.9 14.2 25.9 14.25 27.05 15.2 M26.65 12.6 L27.95 12.45 28.2 12.35 M23.3 13.9 L23.15 14.5 23.15 14.7 23.7 15.85 24.1 16.7 25.55 17.9 M22.35 14.35 Q22.75 14.25 23.1 13.95 L23.25 13.8 M21.25 14.8 L22.5 15.75 22.55 15.75 23.0 15.8 23.15 14.7 M21.15 16.85 L21.2 16.9 21.65 17.0 22.2 17.15 22.85 17.1 23.0 15.8 23.7 15.85 M21.5 17.65 L21.75 17.45 21.85 17.35 21.2 16.9 20.15 17.0 20.5 17.2 21.2 17.85 21.5 17.65 M22.2 17.15 Q22.0 17.2 21.85 17.35 L22.4 17.7 23.7 17.8 M21.2 17.85 L21.6 18.55 Q22.45 18.4 23.6 18.55 L23.8 18.6 24.7 18.8 24.7 18.75 24.9 18.5 M25.2 18.2 L24.8 18.2 M25.2 20.05 L25.15 20.1 25.2 20.1 25.2 20.05 25.3 20.0 27.25 18.85 M24.7 18.8 L25.1 20.1 25.15 20.1 M25.15 20.2 L25.3 20.1 25.35 20.05 25.2 20.1 25.15 20.15 25.15 20.2 25.4 21.15 25.85 20.95 M25.1 20.1 L25.15 20.15 M21.6 18.55 L21.7 18.75 21.75 19.05 21.7 19.05 Q21.95 20.2 21.1 21.15 L20.9 21.35 19.85 22.05 19.85 23.25 19.9 23.3 Q21.4 24.1 23.8 22.65 L23.9 22.6 25.5 21.45 25.4 21.15 M20.1 19.3 L20.9 18.7 21.25 18.6 21.6 18.55 M26.05 23.1 L25.2 23.7 Q24.45 24.3 23.3 24.5 L22.95 24.55 22.5 24.55 21.75 24.45 20.75 24.05 20.2 23.75 19.4 23.8 18.65 23.55 18.2 23.3 17.35 22.15 16.65 21.8 16.5 21.7 16.0 21.3 16.05 23.2 M25.85 20.9 L27.65 19.3 Q26.55 19.95 25.35 20.05 L25.3 20.0 M15.3 24.8 L15.65 25.15 15.0 25.1 Q14.3 25.1 15.55 25.4 L16.25 25.6 16.3 25.6 20.15 26.45 22.1 27.35 22.65 27.65 Q24.0 28.4 24.75 29.35 L24.9 29.55 Q25.4 30.35 25.55 31.3 L25.6 32.05 25.45 33.25 25.2 33.9 Q24.65 35.35 23.3 37.0 L22.75 37.65 Q21.55 38.9 20.1 39.5 L19.5 39.7 18.85 39.85 Q18.25 40.6 18.25 41.25 18.15 41.7 18.4 42.2 23.45 43.35 26.2 38.8 26.55 39.2 27.15 39.0 L27.4 38.95 Q27.5 38.8 28.05 38.55 L27.7 38.85 27.75 38.8 Q28.6 38.35 28.95 37.1 29.35 35.8 29.25 33.6 L29.3 33.6 29.6 33.15 29.7 32.85 Q31.15 30.55 28.6 27.1 L27.5 25.7 26.65 24.05 26.6 23.95 M25.5 21.45 L25.7 22.0 M27.85 22.0 L27.75 22.0 M27.65 19.3 L29.55 17.55 M18.85 39.85 L18.05 40.0 17.4 40.05 16.9 40.0 16.8 40.0 Q13.15 39.75 10.7 37.8 L10.95 38.75 Q11.15 39.7 10.85 40.35 L10.2 41.15 Q6.25 40.55 5.5 37.1 L5.3 35.4 4.4 35.3 4.25 35.15 4.1 34.7 Q3.4 32.8 5.3 29.8 L5.25 29.8 5.25 29.3 5.25 29.0 Q5.2 26.45 9.05 24.3 L10.7 23.45 11.5 22.8 11.15 22.65 10.7 22.45 9.65 21.75 11.1 20.5 9.2 21.2 8.55 20.15 7.55 17.4 7.55 17.35 7.6 17.35 8.2 17.25 9.45 17.15 10.85 17.05 10.95 17.05 11.9 17.15 Q12.25 17.2 12.8 17.65 L13.45 18.35 13.5 18.35 13.9 18.85 15.3 20.75 15.5 20.65 15.25 19.85 Q15.1 18.7 15.95 17.75 L16.25 17.5 Q16.45 17.3 16.7 17.2 17.2 16.8 18.05 16.7 L18.05 16.65 18.15 16.65 17.6 16.15 Q16.7 14.8 14.8 14.2 L13.8 13.6 13.75 13.6 Q12.55 12.75 12.05 11.6 L11.95 11.3 11.75 10.75 Q11.35 9.5 12.35 7.7 L12.6 7.3 Q13.85 5.4 16.65 3.85 L17.5 3.35 M12.6 7.3 L14.15 6.6 14.2 6.55 14.25 6.55 15.05 6.8 15.2 6.9 M11.75 10.75 L12.15 10.3 12.95 10.0 13.9 9.85 M17.6 16.15 L18.1 15.55 18.25 15.45 Q18.3 15.2 19.15 15.15 L19.25 15.15 M15.45 12.55 L15.35 12.6 15.6 12.65 M18.15 16.65 Q19.25 16.55 20.15 17.0 M15.75 12.75 L18.2 14.2 M15.35 12.6 L15.0 12.65 14.25 13.05 13.75 13.6 M13.5 18.35 L13.95 21.2 14.0 21.2 14.05 21.25 15.3 20.75 M14.05 21.25 L12.2 22.3 11.5 22.8 M7.6 17.35 Q9.5 17.95 11.25 19.05 12.7 20.0 13.95 21.2 M11.15 22.65 L14.0 21.2 M16.0 21.3 L15.9 21.25 15.85 21.15 15.75 21.05 15.6 20.8 15.5 20.65 M19.85 22.05 L18.9 22.25 17.35 22.15 M19.9 23.3 L20.2 23.75 M19.75 21.05 Q17.25 21.7 16.75 20.8 M10.7 37.8 L10.5 37.65 9.8 37.05 8.5 35.65 8.4 35.5 Q7.75 34.6 7.45 33.7 L7.4 33.45 Q7.3 32.9 7.45 32.3 L7.6 32.0 7.65 31.85 7.7 31.75 Q7.9 30.95 8.5 30.1 L9.65 28.55 10.05 28.2 10.1 28.2 10.25 28.05 10.25 28.0 Q12.2 26.05 14.35 25.65 L15.8 25.55 15.9 25.55 16.25 25.6 M7.7 31.75 L7.95 31.1 8.0 31.05 8.6 30.05 9.75 28.55 10.05 28.2 M10.7 37.8 L10.65 37.7 10.6 37.65 9.75 36.9 8.6 35.6 8.5 35.45 Q7.8 34.55 7.55 33.7 L7.45 33.3 7.6 32.0 M16.9 40.0 Q13.1 39.7 10.65 37.7 M20.45 18.45 L18.65 17.6 M41.85 6.85 Q41.1 4.0 39.1 3.15" fill="none" stroke="#000000" stroke-linecap="round" stroke-linejoin="round" stroke-opacity="0.3019608" stroke-width="0.7000000000000001"/>
      <path d="M17.95 13.95 L18.2 14.2 19.25 15.15" fill="none" stroke="#000000" stroke-linecap="round" stroke-linejoin="round" stroke-opacity="0.3019608" stroke-width="0.25"/>
      <path d="M15.15 23.0 L16.25 24.2 16.65 23.6 15.4 22.5 15.35 22.6 15.25 22.8 15.15 23.0" fill="#a4bf03" fill-rule="evenodd" stroke="none"/>
      <path d="M13.4 18.4 L13.35 18.4 12.7 17.7 Q12.15 17.25 11.8 17.2 L10.85 17.1 10.75 17.1 Q12.8 19.25 11.15 19.1 L13.85 21.25 13.4 18.4" fill="#83a603" fill-rule="evenodd" stroke="none"/>
      <path d="M15.35 22.6 L15.4 22.5 15.65 21.7 15.6 21.4 15.6 21.35 Q15.3 21.0 15.45 21.2 L15.5 21.25 13.8 18.9 13.4 18.4 13.85 21.25 13.9 21.25 15.25 22.8 15.35 22.6" fill="#6b8c02" fill-rule="evenodd" stroke="none"/>
      <path d="M7.5 17.4 L7.45 17.4 7.45 17.45 7.5 17.4 M11.0 20.55 L9.55 21.8 10.6 22.5 11.05 22.7 11.75 23.0 13.95 23.85 14.35 24.0 14.65 23.6 15.15 23.0 15.25 22.8 13.9 21.25 13.85 21.25 11.15 19.1 Q11.95 19.95 11.0 20.55 M15.5 21.25 L15.45 21.2 Q15.3 21.0 15.6 21.35 L15.5 21.25 15.6 21.35 15.6 21.4 15.5 21.25" fill="#b8cf03" fill-rule="evenodd" stroke="none"/>
      <path d="M10.75 17.1 L9.35 17.2 8.1 17.3 7.5 17.4 Q9.4 18.0 11.15 19.1 12.8 19.25 10.75 17.1" fill="#96b803" fill-rule="evenodd" stroke="none"/>
      <path d="M7.45 17.45 L8.45 20.2 9.1 21.25 11.0 20.55 Q11.95 19.95 11.15 19.1 9.4 18.0 7.5 17.4 L7.45 17.45" fill="#bbd904" fill-rule="evenodd" stroke="none"/>
      <path d="M15.4 22.5 L15.65 21.7 M15.5 21.25 L13.8 18.9 13.4 18.4 M13.35 18.4 L12.7 17.7 Q12.15 17.25 11.8 17.2 L10.85 17.1 10.75 17.1 9.35 17.2 8.1 17.3 7.5 17.4 7.45 17.4 7.45 17.45 8.45 20.2 9.1 21.25 M9.55 21.8 L10.6 22.5 11.05 22.7 11.75 23.0 13.95 23.85 14.35 24.0 14.65 23.6 15.15 23.0 M15.6 21.35 L15.6 21.4" fill="none" stroke="#000000" stroke-linecap="round" stroke-linejoin="round" stroke-opacity="0.3019608" stroke-width="0.05"/>
      <path d="M15.35 22.6 L15.4 22.5 M15.65 21.7 L15.6 21.4 15.7 21.55 15.75 21.6 M15.15 23.0 L15.25 22.8 15.35 22.6 M15.5 21.25 L15.45 21.2 Q15.3 21.0 15.6 21.35 L15.5 21.25 15.6 21.4 15.6 21.35 M15.6 21.4 L15.7 21.55" fill="none" stroke="#000000" stroke-linecap="round" stroke-linejoin="round" stroke-opacity="0.2509804" stroke-width="0.05"/>
      <path d="M16.45 23.4 L16.55 23.55 16.55 23.7 16.45 23.9 16.35 24.05 16.25 24.1 16.1 24.0 15.95 23.9 15.85 23.7 M15.8 23.7 L15.65 23.55 15.55 23.4 15.4 23.25 15.35 23.15 15.15 23.0 M15.4 22.5 L15.5 22.65 15.65 22.8 15.8 22.85 15.95 23.05 16.1 23.15 16.25 23.3 16.4 23.4 M13.35 18.4 L13.4 18.4 M9.55 21.8 L9.7 21.7 9.9 21.55 10.05 21.4 10.25 21.25 10.4 21.1 10.6 20.95 10.75 20.8 10.9 20.6 10.95 20.65 M10.9 20.6 L10.85 20.65 10.75 20.7 10.6 20.8 10.35 20.85 10.15 20.95 9.95 21.0 9.75 21.1 9.6 21.1 M9.6 21.15 L9.35 21.2 9.2 21.25 9.1 21.25" fill="none" stroke="#000000" stroke-linecap="round" stroke-linejoin="round" stroke-opacity="0.3019608" stroke-width="0.1"/>
      <path d="M13.4 18.4 L13.4 18.55 13.45 18.8 13.5 19.1 13.55 19.3 13.6 19.5 M14.6 22.0 L14.7 22.15 14.85 22.3 14.95 22.45 15.1 22.6 15.2 22.8 15.25 22.8 M12.2 22.1 L12.4 22.0 12.55 21.95 12.75 21.85 12.95 21.75 13.15 21.65 13.35 21.55 13.55 21.45 13.7 21.4 13.9 21.25 14.05 21.4 14.15 21.55 14.3 21.7 14.4 21.85 14.55 22.0 M13.85 21.15 L13.85 21.25 13.8 21.2 13.65 21.1 13.55 21.0 13.4 20.85 M13.85 21.25 L13.9 21.25 13.85 21.25 M13.55 19.55 L13.65 19.75 13.7 20.0 13.7 20.2 13.75 20.4 13.75 20.65 13.8 20.9 13.85 21.1 M12.2 22.15 Q12.05 22.15 12.0 22.25 L11.8 22.3 11.6 22.45 11.45 22.55 11.25 22.65 M11.2 22.6 L11.05 22.7 M12.05 19.7 L12.15 19.85 12.35 19.95 12.5 20.05 12.65 20.2 12.85 20.3 12.95 20.45 13.1 20.6 13.2 20.75 13.35 20.85 M10.6 18.75 L10.8 18.85 10.95 18.95 11.1 19.05 11.25 19.15 11.4 19.25 11.6 19.35 11.75 19.45 11.9 19.55 12.0 19.7 M9.6 18.25 L9.75 18.35 9.9 18.45 10.1 18.5 10.3 18.55 10.45 18.65 10.6 18.75 M8.7 17.85 L8.9 18.0 9.1 18.05 9.2 18.05 9.4 18.15 9.55 18.2 M7.5 17.4 L7.65 17.45 7.85 17.55 8.0 17.55 8.15 17.65 8.35 17.7 8.55 17.8 8.7 17.85" fill="none" stroke="#000000" stroke-linecap="round" stroke-linejoin="round" stroke-opacity="0.15294118" stroke-width="0.1"/>
      <path d="M5.15 29.05 Q5.1 26.5 8.95 24.35 9.7 23.95 10.6 23.5 L12.1 22.35 Q14.45 20.8 17.0 20.25 L17.85 20.1 20.15 20.0 21.0 20.15 Q21.95 20.35 22.25 20.85 22.6 23.3 21.0 24.5 20.05 25.2 18.35 25.5 L17.85 25.6 Q19.45 25.6 21.0 26.2 L23.15 27.35 24.55 28.1 Q23.25 24.85 25.3 23.85 L25.3 24.5 Q24.8 24.8 24.7 25.25 24.55 25.8 25.1 26.2 L25.3 26.3 25.3 29.45 24.8 29.05 Q23.15 28.35 21.55 28.15 L21.2 28.0 21.0 27.9 19.95 27.55 17.85 26.8 14.1 26.7 Q11.55 28.0 10.15 29.6 L10.25 29.4 10.8 28.5 11.25 27.3 Q10.05 29.15 8.95 29.85 8.3 30.25 7.65 30.25 L7.55 30.45 Q5.55 35.05 4.0 34.75 3.3 32.85 5.2 29.85 6.1 31.55 8.95 27.15 L10.1 25.2 Q12.15 25.95 17.0 22.85 L17.85 22.35 19.15 21.45 17.85 22.25 17.0 22.7 Q11.8 25.7 10.0 24.6 L8.95 26.15 Q6.5 29.5 5.15 29.05 M17.85 24.95 L18.1 24.85 Q18.65 24.6 18.4 23.65 L17.85 23.55 17.0 23.7 Q16.55 23.9 16.0 24.25 15.95 24.6 17.0 24.85 L17.75 24.95 17.85 24.95 M20.2 20.6 L20.15 20.65 17.85 20.55 17.0 20.7 Q15.45 21.0 13.7 22.0 15.15 21.3 17.0 21.05 L17.85 21.0 19.75 21.05 Q19.7 21.35 19.95 21.55 L20.65 21.7 21.0 21.7 21.4 21.55 21.85 21.05 21.65 20.6 21.0 20.4 20.95 20.4 20.5 20.45 20.2 20.6" fill="#786423" fill-rule="evenodd" stroke="none"/>
      <path d="M5.15 29.05 Q6.5 29.5 8.95 26.15 L10.0 24.6 Q11.8 25.7 17.0 22.7 L17.85 22.25 19.15 21.45 17.85 22.35 17.0 22.85 Q12.15 25.95 10.1 25.2 L8.95 27.15 Q6.1 31.55 5.2 29.85 L5.15 29.85 5.15 29.35 5.15 29.05 M23.15 27.35 L21.0 26.2 Q19.45 25.6 17.85 25.6 L18.35 25.5 Q20.05 25.2 21.0 24.5 22.6 23.3 22.25 20.85 23.65 22.4 21.45 25.3 L21.4 25.35 21.5 25.5 Q22.15 26.65 23.15 27.35" fill="#614e17" fill-rule="evenodd" stroke="none"/>
      <path d="M10.25 39.55 L9.75 39.45 Q7.65 36.8 8.4 35.65 9.6 35.5 10.15 39.1 L10.25 39.55 M25.0 34.4 Q24.0 33.15 23.25 31.1 L23.9 30.95 23.9 31.0 25.3 32.4 25.3 34.75 25.0 34.4 M25.3 35.8 L25.3 36.4 25.8 36.4 25.75 37.15 25.75 37.25 25.4 37.85 Q24.7 38.8 23.65 39.1 21.7 39.6 22.05 38.3 L22.4 37.45 Q23.4 35.75 24.8 35.6 L25.3 35.8" fill="#6b581b" fill-rule="evenodd" stroke="none"/>
      <path d="M4.0 34.75 Q5.55 35.05 7.55 30.45 L7.65 30.25 Q8.3 30.25 8.95 29.85 10.05 29.15 11.25 27.3 L10.8 28.5 10.25 29.4 10.15 29.6 Q11.55 28.0 14.1 26.7 L17.85 26.8 19.95 27.55 19.7 27.45 17.85 27.15 13.85 27.4 Q11.35 28.8 10.25 30.8 9.05 32.85 9.4 35.5 10.6 37.45 10.85 38.8 11.05 39.75 10.75 40.4 8.3 40.8 7.75 37.55 L7.05 34.25 7.8 32.25 7.85 32.15 9.1 30.85 9.65 30.1 9.4 30.3 8.95 30.65 7.85 31.1 7.85 31.15 Q6.3 34.9 5.2 35.45 L4.3 35.35 4.15 35.2 4.0 34.75 M21.55 28.15 Q23.15 28.35 24.8 29.05 L25.3 29.45 25.3 30.8 24.6 30.0 24.35 29.9 24.35 29.85 Q23.0 28.8 21.55 28.15 M10.25 39.55 L10.15 39.1 Q9.6 35.5 8.4 35.65 7.65 36.8 9.75 39.45 L10.25 39.55 M23.9 31.0 L25.3 31.65 25.3 32.4 23.9 31.0 M25.45 38.95 L24.45 39.9 21.25 39.6 21.2 39.55 Q21.9 37.5 23.95 34.8 L25.1 34.8 25.0 34.7 25.3 34.85 25.3 35.8 24.8 35.6 Q23.4 35.75 22.4 37.45 L22.05 38.3 Q21.7 39.6 23.65 39.1 24.7 38.8 25.4 37.85 L25.75 37.25 25.75 37.15 25.8 36.4 26.9 36.4 25.45 38.95 26.9 36.4 27.45 36.4 Q26.85 37.55 25.45 38.95" fill="#544314" fill-rule="evenodd" stroke="none"/>
      <path d="M21.2 28.0 L21.55 28.15 Q23.0 28.8 24.35 29.85 L24.35 29.9 24.6 30.0 25.3 30.8 25.3 31.65 23.9 31.0 23.9 30.95 23.25 31.1 Q24.0 33.15 25.0 34.4 L24.55 34.2 24.0 33.5 24.55 34.2 25.0 34.4 25.3 34.75 25.3 34.85 25.0 34.7 25.1 34.8 23.95 34.8 Q21.9 37.5 21.2 39.55 L21.25 39.6 24.45 39.9 25.45 38.95 Q23.7 41.35 21.2 41.55 18.4 41.55 22.1 35.75 L24.0 33.5 22.75 31.75 Q21.9 30.15 21.3 28.05 L21.2 28.0 M5.2 35.45 Q6.3 34.9 7.85 31.15 L7.85 31.1 8.95 30.65 9.4 30.3 9.65 30.1 9.1 30.85 7.85 32.15 7.8 32.25 7.05 34.25 7.75 37.55 Q8.3 40.8 10.75 40.4 L10.1 41.2 Q5.25 40.45 5.2 35.45" fill="#3b2e0c" fill-rule="evenodd" stroke="none"/>
      <path d="M25.3 26.3 L25.1 26.2 Q24.55 25.8 24.7 25.25 24.8 24.8 25.3 24.5 L25.3 26.3 M20.2 20.6 L20.5 20.45 20.95 20.4 21.0 20.4 21.65 20.6 21.85 21.05 21.4 21.55 21.0 21.7 20.65 21.7 19.95 21.55 Q19.7 21.35 19.75 21.05 L17.85 21.0 17.0 21.05 Q15.15 21.3 13.7 22.0 15.45 21.0 17.0 20.7 L17.85 20.55 20.15 20.65 20.2 20.6 M17.85 24.95 L17.75 24.95 17.0 24.85 Q15.95 24.6 16.0 24.25 16.55 23.9 17.0 23.7 L17.85 23.55 18.4 23.65 Q18.65 24.6 18.1 24.85 L17.85 24.95" fill="#8a7732" fill-rule="evenodd" stroke="none"/>
      <path d="M22.25 20.85 Q21.95 20.35 21.0 20.15 L20.15 20.0 17.85 20.1 17.0 20.25 Q14.45 20.8 12.1 22.35 L10.6 23.5 Q9.7 23.95 8.95 24.35 5.1 26.5 5.15 29.05 M5.2 29.85 Q3.3 32.85 4.0 34.75 M19.95 27.55 L21.0 27.9 21.2 28.0 21.55 28.15 M25.3 23.85 Q23.25 24.85 24.55 28.1 L23.15 27.35 M22.25 20.85 Q23.65 22.4 21.45 25.3 L21.4 25.35 21.5 25.5 Q22.15 26.65 23.15 27.35 M10.75 40.4 Q11.05 39.75 10.85 38.8 10.6 37.45 9.4 35.5 9.05 32.85 10.25 30.8 11.35 28.8 13.85 27.4 L17.85 27.15 19.7 27.45 19.95 27.55 M9.65 30.1 L9.1 30.85 M10.75 40.4 L10.1 41.2 Q5.25 40.45 5.2 35.45 L4.3 35.35 4.15 35.2 4.0 34.75 M21.2 28.0 L21.3 28.05 Q21.9 30.15 22.75 31.75 L24.0 33.5 24.55 34.2 25.0 34.4 M24.6 30.0 L24.35 29.9 M26.9 36.4 L27.3 35.25 M24.0 33.5 L22.1 35.75 Q18.4 41.55 21.2 41.55 23.7 41.35 25.45 38.95 L26.9 36.4 M5.2 29.85 L5.15 29.85 5.15 29.35 5.15 29.05" fill="none" stroke="#000000" stroke-linecap="round" stroke-linejoin="round" stroke-opacity="0.3019608" stroke-width="0.05"/>
      <path d="M14.05 6.65 L14.1 6.6 13.95 6.85 14.05 6.65 M14.9 12.7 L15.2 12.55 15.35 12.6 14.9 12.7 15.35 12.6 15.25 12.7 14.9 12.7 M31.4 4.8 L31.45 4.8 31.4 4.8 31.35 4.85 31.4 4.8" fill="#997237" fill-rule="evenodd" stroke="none"/>
      <path d="M13.95 6.85 L14.05 6.65 13.95 6.85 M30.95 20.0 L30.3 20.1 Q24.1 20.6 21.65 19.2 19.15 17.85 17.5 16.2 L18.0 15.6 18.15 15.5 Q18.2 15.25 19.05 15.2 L19.15 15.2 19.8 15.85 Q23.4 19.3 29.4 18.85 L31.05 19.75 28.4 20.1 31.25 19.85 31.35 19.9 30.95 20.0 M15.25 12.7 L15.35 12.6 15.5 12.7 15.25 12.7" fill="#614a22" fill-rule="evenodd" stroke="none"/>
      <path d="M23.3 3.9 L24.5 3.95 24.4 4.05 24.2 4.85 Q23.85 6.1 24.95 6.75 L23.5 7.2 24.95 6.75 26.95 6.6 27.45 6.5 27.45 7.25 27.45 6.5 Q29.05 6.05 30.75 5.2 L31.15 4.95 31.35 4.85 31.4 4.8 31.45 4.8 31.55 4.75 Q36.4 2.1 39.0 3.2 41.0 4.05 41.75 6.9 L40.9 7.75 Q39.9 5.2 38.7 4.2 L38.65 4.2 Q35.95 3.25 32.6 4.95 L32.6 5.05 31.7 5.6 Q30.5 6.35 27.45 7.25 L26.85 7.4 23.5 7.2 23.0 6.7 Q22.4 5.55 23.3 3.9 M14.15 6.6 Q14.7 6.6 14.95 6.85 L15.1 6.95 14.85 7.35 Q13.8 8.75 13.8 9.9 L12.85 10.05 13.8 9.9 Q13.8 11.4 14.9 12.35 L15.2 12.55 14.9 12.7 Q14.25 12.6 13.8 12.15 12.85 11.35 12.85 10.05 12.85 8.85 13.6 7.45 L13.95 6.85 14.15 6.6 M42.25 11.45 L42.05 15.15 Q42.1 18.0 41.3 19.0 40.5 19.95 27.55 22.05 L27.9 21.25 Q40.9 19.35 41.2 15.55 L41.35 12.2 42.25 11.45 M31.55 4.75 L32.2 4.7 32.6 4.95 32.2 4.7 31.55 4.75 31.4 4.8 31.55 4.75 M39.0 3.2 L38.7 4.2 39.0 3.2 M42.05 15.15 L41.2 15.55 42.05 15.15" fill="#c79447" fill-rule="evenodd" stroke="none"/>
      <path d="M23.3 3.9 Q23.55 3.3 23.4 2.9 23.2 2.4 22.2 2.45 20.0 2.6 17.4 3.4 20.1 2.25 22.55 1.85 L24.6 1.8 Q25.0 1.95 24.85 2.25 L24.5 3.95 23.3 3.9 M14.05 6.65 L14.35 6.25 Q14.7 5.75 15.55 5.5 L16.55 5.6 15.1 6.95 14.95 6.85 Q14.7 6.6 14.15 6.6 L14.1 6.6 14.15 6.6 13.95 6.85 14.1 6.6 14.05 6.65 M41.75 6.9 Q42.2 8.7 42.25 11.25 L42.25 11.45 41.35 12.2 40.9 7.75 41.75 6.9" fill="#b88942" fill-rule="evenodd" stroke="none"/>
      <path d="M22.0 8.35 L22.35 7.95 23.5 7.2 26.85 7.4 27.45 7.25 26.6 8.35 22.25 8.45 22.0 8.35 M32.35 6.25 L30.2 7.15 28.9 7.65 26.6 8.35 27.45 7.25 Q30.5 6.35 31.7 5.6 L32.6 5.05 32.45 6.2 32.35 6.25" fill="#876430" fill-rule="evenodd" stroke="none"/>
      <path d="M21.8 4.75 L22.3 4.35 Q22.75 4.0 23.3 3.9 22.4 5.55 23.0 6.7 L23.5 7.2 22.35 7.95 22.0 8.35 Q20.9 7.4 21.45 5.7 L21.75 4.9 21.8 4.75 M32.6 5.05 L32.6 4.95 Q35.95 3.25 38.65 4.2 L38.7 4.2 Q39.9 5.2 40.9 7.75 L39.9 8.1 Q39.25 5.7 37.8 5.05 35.85 4.1 32.45 6.2 L32.6 5.05 M38.7 4.2 L37.8 5.05 38.7 4.2" fill="#75572a" fill-rule="evenodd" stroke="none"/>
      <path d="M17.4 3.4 Q20.0 2.6 22.2 2.45 23.2 2.4 23.4 2.9 23.55 3.3 23.3 3.9 22.75 4.0 22.3 4.35 L21.8 4.75 Q22.1 4.2 22.0 3.8 L21.9 3.75 Q20.1 3.7 17.95 4.75 17.55 4.9 17.15 5.2 L16.55 5.6 15.55 5.5 Q14.7 5.75 14.35 6.25 L14.05 6.65 12.5 7.35 14.05 6.65 13.95 6.85 13.6 7.45 Q12.85 8.85 12.85 10.05 L12.05 10.35 11.65 10.8 12.05 10.35 12.85 10.05 Q12.85 11.35 13.8 12.15 14.25 12.6 14.9 12.7 14.55 12.85 14.15 13.1 L13.65 13.65 Q12.45 12.8 11.95 11.65 L11.65 10.8 Q11.25 9.55 12.25 7.75 L12.5 7.35 Q13.75 5.45 16.55 3.9 L17.4 3.4 M27.9 21.25 L30.95 20.0 31.35 19.9 31.25 19.85 31.05 19.75 31.25 19.85 28.4 20.1 31.05 19.75 Q40.05 18.35 40.35 15.65 L40.35 15.05 40.35 12.25 39.9 8.35 39.9 8.1 40.9 7.75 41.35 12.2 40.35 12.25 41.35 12.2 41.2 15.55 40.35 15.65 41.2 15.55 Q40.9 19.35 27.9 21.25" fill="#694e25" fill-rule="evenodd" stroke="none"/>
      <path d="M13.65 13.65 L14.15 13.1 Q14.55 12.85 14.9 12.7 L15.25 12.7 15.5 12.7 18.2 14.1 17.85 14.0 19.15 15.2 19.05 15.2 Q18.2 15.25 18.15 15.5 L18.0 15.6 17.5 16.2 Q16.6 14.85 14.65 14.25 L14.75 14.05 13.7 13.65 13.65 13.65 M15.55 13.0 L17.85 14.0 15.55 13.0" fill="#6b4f26" fill-rule="evenodd" stroke="none"/>
      <path d="M17.4 3.4 Q20.0 2.6 22.2 2.45 23.2 2.4 23.4 2.9 23.55 3.3 23.3 3.9 22.4 5.55 23.0 6.7 L23.5 7.2 26.85 7.4 27.45 7.25 M24.5 3.95 L24.85 2.25 Q25.0 1.95 24.6 1.8 L22.55 1.85 Q20.1 2.25 17.4 3.4 L16.55 3.9 Q13.75 5.45 12.5 7.35 L12.25 7.75 Q11.25 9.55 11.65 10.8 L11.95 11.65 Q12.45 12.8 13.65 13.65 M16.55 5.6 L17.15 5.2 Q17.55 4.9 17.95 4.75 20.1 3.7 21.9 3.75 L22.0 3.8 Q22.1 4.2 21.8 4.75 L21.75 4.9 21.45 5.7 Q20.9 7.4 22.0 8.35 M24.95 6.75 Q23.85 6.1 24.2 4.85 L24.4 4.05 M15.1 6.95 L16.55 5.6 M13.8 9.9 Q13.8 8.75 14.85 7.35 L15.1 6.95 M15.2 12.55 L14.9 12.35 Q13.8 11.4 13.8 9.9 M15.35 12.6 L15.2 12.55 M27.45 6.5 L26.95 6.6 24.95 6.75 M32.35 6.25 L30.2 7.15 28.9 7.65 26.6 8.35 22.25 8.45 22.0 8.35 M30.3 20.1 Q24.1 20.6 21.65 19.2 19.15 17.85 17.5 16.2 16.6 14.85 14.65 14.25 M14.75 14.05 L13.7 13.65 M31.35 4.85 L31.15 4.95 30.75 5.2 Q29.05 6.05 27.45 6.5 M32.6 5.05 L31.7 5.6 Q30.5 6.35 27.45 7.25 M31.35 4.85 L31.4 4.8 M31.05 19.75 L31.25 19.85 31.35 19.9 M19.15 15.2 L19.8 15.85 Q23.4 19.3 29.4 18.85 L31.05 19.75 M18.0 15.6 L17.5 16.2 M17.85 14.0 L15.55 13.0 M15.25 12.7 L15.5 12.7 15.35 12.6 M15.5 12.7 L18.2 14.1" fill="none" stroke="#000000" stroke-linecap="round" stroke-linejoin="round" stroke-opacity="0.21960784" stroke-width="0.05"/>
      <path d="M23.3 3.9 L24.5 3.95 M12.5 7.35 L14.05 6.65 14.1 6.6 14.15 6.6 Q14.7 6.6 14.95 6.85 L15.1 6.95 M21.8 4.75 L22.3 4.35 Q22.75 4.0 23.3 3.9 M23.5 7.2 L24.95 6.75 M24.4 4.05 L24.5 3.95 M12.85 10.05 L13.8 9.9 M11.65 10.8 L12.05 10.35 12.85 10.05 M13.65 13.65 L14.15 13.1 Q14.55 12.85 14.9 12.7 L15.35 12.6 M22.0 8.35 L22.35 7.95 23.5 7.2 M27.45 7.25 L27.45 6.5 M27.45 7.25 L26.6 8.35 M31.4 4.8 L31.45 4.8 M13.7 13.65 L13.65 13.65 M18.0 15.6 L18.15 15.5 Q18.2 15.25 19.05 15.2 L19.15 15.2" fill="none" stroke="#000000" stroke-linecap="round" stroke-linejoin="round" stroke-opacity="0.14901961" stroke-width="0.05"/>
      <path d="M31.55 4.75 Q36.4 2.1 39.0 3.2 41.0 4.05 41.75 6.9 42.2 8.7 42.25 11.25 L42.25 11.45 42.05 15.15 Q42.1 18.0 41.3 19.0 40.5 19.95 27.55 22.05 M32.6 4.95 L32.6 5.05 32.45 6.2 Q35.85 4.1 37.8 5.05 L38.7 4.2 39.0 3.2 M32.6 4.95 L32.2 4.7 31.55 4.75 M31.4 4.8 L31.55 4.75 M32.35 6.25 L32.45 6.2 M31.4 4.8 L31.35 4.85 M40.9 7.75 L41.75 6.9 M37.8 5.05 Q39.25 5.7 39.9 8.1 L40.9 7.75 M41.35 12.2 L42.25 11.45 M39.9 8.1 L39.9 8.35 40.35 12.25 41.35 12.2 M41.2 15.55 L42.05 15.15 M40.35 15.65 L41.2 15.55 M40.35 12.25 L40.35 15.05 40.35 15.65 Q40.05 18.35 31.05 19.75 L28.4 20.1" fill="none" stroke="#333333" stroke-linecap="round" stroke-linejoin="round" stroke-opacity="0.3019608" stroke-width="0.05"/>
      <path d="M22.3 18.35 L22.45 18.4 23.3 18.3 23.6 18.15 23.5 16.0 23.15 13.85 23.0 14.0 22.25 14.4 22.4 16.1 Q22.4 16.4 20.85 16.5 L20.9 16.5 20.9 16.55 21.65 18.2 21.95 18.35 22.3 18.35" fill="#57441f" fill-rule="evenodd" stroke="none"/>
      <path d="M20.05 14.4 L20.9 16.5 20.85 16.5 Q22.4 16.4 22.4 16.1 L22.25 14.4 20.55 14.55 20.15 14.45 20.05 14.4" fill="#997337" fill-rule="evenodd" stroke="none"/>
      <path d="M23.15 13.85 Q22.45 12.7 21.05 13.45 20.35 13.7 20.05 14.4 L20.15 14.45 20.55 14.55 22.25 14.4 23.0 14.0 23.15 13.85" fill="#c79447" fill-rule="evenodd" stroke="none"/>
      <path d="M22.3 18.35 L22.45 18.4" fill="none" stroke="#000000" stroke-linecap="round" stroke-linejoin="round" stroke-opacity="0.3019608" stroke-width="0.5"/>
      <path d="M23.3 18.3 L23.6 18.15 23.5 16.0 23.15 13.85 Q22.45 12.7 21.05 13.45 20.35 13.7 20.05 14.4 L20.9 16.5 20.9 16.55 21.65 18.2 M20.15 14.45 L20.05 14.4 M22.25 14.4 L23.0 14.0 23.15 13.85" fill="none" stroke="#000000" stroke-linecap="round" stroke-linejoin="round" stroke-opacity="0.3019608" stroke-width="0.05"/>
      <path d="M22.2 17.7 L21.5 17.2 M23.7 18.05 L22.95 17.9 M21.95 15.4 L21.25 14.85 M23.4 16.0 L22.65 15.85" fill="none" stroke="#000000" stroke-linecap="round" stroke-linejoin="round" stroke-opacity="0.101960786" stroke-width="0.30000000000000004"/>
      <path d="M18.95 17.65 L19.2 17.45 19.25 17.45 Q20.35 16.65 21.55 17.05 L22.1 17.2 Q23.1 17.05 24.1 17.2 L24.65 17.35 Q23.5 18.35 23.5 19.65 L23.7 22.05 23.8 22.65 24.5 23.15 Q23.65 24.05 22.4 24.6 21.45 24.5 20.65 24.1 L20.1 23.8 19.75 23.3 19.75 22.15 19.5 22.9 Q19.3 23.45 18.1 23.35 17.0 22.3 16.85 20.85 L16.85 20.0 17.25 20.3 18.05 20.6 Q19.15 20.6 19.9 19.65 L19.75 21.05 19.75 22.15 19.75 21.05 20.5 21.4 21.35 21.3 Q22.7 20.7 22.75 19.25 L22.55 19.05 Q21.2 18.4 20.0 19.3 L20.45 18.45 20.15 18.2 18.95 17.65 M22.1 17.2 Q21.85 17.3 21.65 17.5 L20.45 18.45 21.65 17.5 Q21.85 17.3 22.1 17.2" fill="#997337" fill-rule="evenodd" stroke="none"/>
      <path d="M16.85 20.0 Q17.5 19.0 18.5 18.1 L18.95 17.65 20.15 18.2 20.45 18.45 20.0 19.3 Q21.2 18.4 22.55 19.05 L22.75 19.25 Q22.7 20.7 21.35 21.3 L20.5 21.4 19.75 21.05 19.9 19.65 Q19.15 20.6 18.05 20.6 L17.25 20.3 16.85 20.0 M20.0 19.3 L19.9 19.65 20.0 19.3" fill="#c79447" fill-rule="evenodd" stroke="none"/>
      <path d="M24.65 17.35 L25.5 17.75 25.45 17.75 24.6 18.8 25.7 22.5 26.3 22.85 25.1 23.75 Q24.1 24.55 22.4 24.6 23.65 24.05 24.5 23.15 L23.8 22.65 23.7 22.05 23.5 19.65 Q23.5 18.35 24.65 17.35 M20.1 23.8 L18.55 23.6 18.1 23.35 Q19.3 23.45 19.5 22.9 L19.75 22.15 19.75 23.3 20.1 23.8" fill="#614a22" fill-rule="evenodd" stroke="none"/>
      <path d="M18.95 17.65 L19.2 17.45 19.25 17.45 Q20.35 16.65 21.55 17.05 L22.1 17.2 Q23.1 17.05 24.1 17.2 L24.65 17.35 25.5 17.75 25.5 17.8 25.45 17.75 24.6 18.8 25.7 22.5 26.3 22.85 25.1 23.75 Q24.1 24.55 22.4 24.6 21.45 24.5 20.65 24.1 L20.1 23.8 18.55 23.6 18.1 23.35 Q17.0 22.3 16.85 20.85 L16.85 20.0 Q17.5 19.0 18.5 18.1 L18.95 17.65 M20.45 18.45 L21.65 17.5 Q21.85 17.3 22.1 17.2 M19.9 19.65 L20.0 19.3 20.45 18.45 M19.75 21.05 L19.75 22.15 19.75 23.3 20.1 23.8 M19.9 19.65 L19.75 21.05 M25.45 17.75 L25.5 17.75" fill="none" stroke="#000000" stroke-linecap="round" stroke-linejoin="round" stroke-opacity="0.3019608" stroke-width="0.05"/>
      <path d="M16.65 20.85 Q16.95 21.35 17.8 21.35 M18.55 17.65 L19.75 18.2 M24.35 22.25 L25.3 21.5 M25.6 20.05 L24.9 20.15 M19.1 21.25 L19.65 21.1 M19.7 23.3 Q20.25 23.65 20.9 23.65 M22.25 23.4 L23.35 22.85 M27.9 19.1 L26.75 19.7 M24.5 18.85 L23.5 18.6 23.35 18.55 M21.95 18.55 L20.8 18.75 20.6 18.85" fill="none" stroke="#000000" stroke-linecap="round" stroke-linejoin="round" stroke-opacity="0.101960786" stroke-width="0.30000000000000004"/>
      <path d="M24.7 18.25 L25.25 18.2 26.85 15.45 28.1 12.4 27.85 12.5 26.55 12.65 25.4 14.9 Q24.5 16.2 22.75 17.15 L23.35 17.65 23.4 17.7 23.6 17.85 24.15 18.1 24.7 18.25" fill="#57441f" fill-rule="evenodd" stroke="none"/>
      <path d="M22.75 17.15 Q24.5 16.2 25.4 14.9 L26.55 12.65 Q25.25 12.55 24.25 11.8 L23.8 11.4 23.75 11.3 23.05 14.55 22.75 17.15" fill="#997337" fill-rule="evenodd" stroke="none"/>
      <path d="M26.55 12.65 L27.85 12.5 28.1 12.4 Q28.15 10.6 25.8 10.65 24.65 10.6 23.75 11.3 L23.8 11.4 24.25 11.8 Q25.25 12.55 26.55 12.65" fill="#c79447" fill-rule="evenodd" stroke="none"/>
      <path d="M23.6 17.85 L23.4 17.7" fill="none" stroke="#000000" stroke-linecap="round" stroke-linejoin="round" stroke-opacity="0.3019608" stroke-width="0.5"/>
      <path d="M28.1 12.4 L26.85 15.45 25.25 18.2 24.7 18.25 M26.55 12.65 L27.85 12.5 28.1 12.4 Q28.15 10.6 25.8 10.65 24.65 10.6 23.75 11.3 L23.05 14.55 22.75 17.15 M23.8 11.4 L23.75 11.3" fill="none" stroke="#000000" stroke-linecap="round" stroke-linejoin="round" stroke-opacity="0.3019608" stroke-width="0.05"/>
      <path d="M25.45 13.5 L25.0 12.4 M24.0 16.65 L23.4 15.55 M25.55 18.0 L24.75 17.3 M26.8 15.15 L26.05 14.5" fill="none" stroke="#000000" stroke-linecap="round" stroke-linejoin="round" stroke-opacity="0.101960786" stroke-width="0.30000000000000004"/>
    </g>
    <g id="sprite0" transform="matrix(1.0, 0.0, 0.0, 1.0, 2.75, 3.9)">
      <use height="7.85" transform="matrix(1.0, 0.0, 0.0, 1.0, -2.75, -3.9)" width="5.5" xlink:href="#shape1"/>
    </g>
    <g id="shape1" transform="matrix(1.0, 0.0, 0.0, 1.0, 2.75, 3.9)">
      <path d="M0.0 -1.5 Q1.15 -1.5 1.95 -0.75 L2.55 0.1 2.65 0.5 2.75 1.2 2.75 1.4 Q2.7 2.45 1.95 3.15 1.15 3.95 0.0 3.95 -1.15 3.95 -1.95 3.15 L-2.0 3.1 Q-2.75 2.3 -2.75 1.2 -2.75 0.1 -1.95 -0.75 L-1.9 -0.75 -0.8 -1.35 -0.35 -1.45 0.0 -1.5 M0.35 -0.8 L0.15 -1.15 -0.3 -1.3 -0.7 -1.15 -0.9 -0.8 -0.7 -0.4 -0.3 -0.25 Q0.0 -0.25 0.15 -0.4 L0.35 -0.8 M2.45 1.7 L2.5 1.35 2.55 0.8 2.4 0.2 2.4 0.15 Q1.65 -0.8 0.55 -1.15 1.5 0.15 0.05 0.95 -1.4 1.75 -2.3 0.5 -2.6 1.6 -2.1 2.45 -1.2 3.75 0.4 3.6 2.15 3.35 2.45 1.7" fill="#ffcc33" fill-rule="evenodd" stroke="none"/>
      <path d="M0.35 -0.8 L0.15 -0.4 Q0.0 -0.25 -0.3 -0.25 L-0.7 -0.4 -0.9 -0.8 -0.7 -1.15 -0.3 -1.3 0.15 -1.15 0.35 -0.8" fill="#ffffff" fill-rule="evenodd" stroke="none"/>
      <path d="M2.45 1.7 Q2.15 3.35 0.4 3.6 -1.2 3.75 -2.1 2.45 -2.6 1.6 -2.3 0.5 -1.4 1.75 0.05 0.95 1.5 0.15 0.55 -1.15 1.65 -0.8 2.4 0.15 L2.4 0.2 2.55 0.8 2.5 1.35 2.45 1.7" fill="#b17c01" fill-rule="evenodd" stroke="none"/>
      <path d="M0.0 -1.5 L-0.35 -1.45 -0.8 -1.35 -1.9 -0.75 -1.95 -0.75 Q-2.75 0.1 -2.75 1.2 -2.75 2.3 -2.0 3.1 L-1.95 3.15 Q-1.15 3.95 0.0 3.95 1.15 3.95 1.95 3.15 2.7 2.45 2.75 1.4 L2.75 1.2 2.65 0.5 2.55 0.1 1.95 -0.75 Q1.15 -1.5 0.0 -1.5 Z" fill="none" stroke="#000000" stroke-linecap="round" stroke-linejoin="round" stroke-opacity="0.3019608" stroke-width="0.05"/>
      <path d="M-0.25 -0.5 L-0.5 -0.1 -0.95 -0.05 -1.2 -0.25 -1.2 -0.7 -0.95 -1.05 -0.55 -1.1 -0.2 -0.9 -0.25 -0.5" fill="#ffffff" fill-rule="evenodd" stroke="none"/>
      <path d="M-0.3 0.3 L-0.3 0.75 -0.6 0.45 -1.1 0.45 -1.55 0.2 -2.35 0.55 -1.75 -0.05 -1.75 -0.85 -1.25 -1.6 -0.7 -1.8 Q-0.25 -2.05 -0.05 -2.7 L-0.1 -1.65 0.2 -1.25 Q0.4 -0.9 0.2 -0.45 L-0.3 0.3 M-0.25 -0.5 L-0.2 -0.9 -0.55 -1.1 -0.95 -1.05 -1.2 -0.7 -1.2 -0.25 -0.95 -0.05 -0.5 -0.1 -0.25 -0.5" fill="#ffffff" fill-opacity="0.3019608" fill-rule="evenodd" stroke="none"/>
      <path d="M-0.7 -0.35 L-1.6 0.35 -0.85 -0.8 -1.5 -2.15 -0.65 -0.9 2.55 -3.9 -0.4 -0.6 0.65 1.7 -0.7 -0.35" fill="#ffffff" fill-rule="evenodd" stroke="none"/>
    </g>
    <g id="sprite1" transform="matrix(1.0, 0.0, 0.0, 1.0, 0.0, 0.25)">
      <use height="25.55" transform="matrix(1.0, 0.0, 0.0, 1.0, 0.9, -0.25)" width="27.5" xlink:href="#shape2"/>
      <use height="25.05" transform="matrix(1.0, 0.0, 0.0, 1.0, 1.45, 0.0)" width="26.5" xlink:href="#sprite2"/>
      <use height="10.8" transform="matrix(1.0, 0.0, 0.0, 1.0, 3.25, 0.95)" width="8.0" xlink:href="#shape4"/>
      <use height="7.45" transform="matrix(0.0465, 0.0494, -0.0333, 0.0374, 9.0788, 11.9983)" width="7.45" xlink:href="#shape5"/>
      <use height="7.45" transform="matrix(0.0214, 0.0228, -0.0153, 0.0172, 8.9363, 14.1111)" width="7.45" xlink:href="#shape5"/>
      <use height="7.45" transform="matrix(0.0394, 0.0418, -0.0282, 0.0316, 8.1667, 13.4945)" width="7.45" xlink:href="#shape5"/>
      <use height="7.45" transform="matrix(0.0332, 0.0352, -0.0238, 0.0266, 10.0563, 14.0348)" width="7.45" xlink:href="#shape5"/>
      <use height="7.45" transform="matrix(0.023, 0.0598, -0.0507, 0.0074, 10.8704, 8.185)" width="7.45" xlink:href="#shape5"/>
      <use height="7.45" transform="matrix(0.0106, 0.0275, -0.0233, 0.0034, 9.7015, 9.524)" width="7.45" xlink:href="#shape5"/>
      <use height="7.45" transform="matrix(0.0195, 0.0506, -0.0429, 0.0063, 9.2365, 8.6603)" width="7.45" xlink:href="#shape5"/>
      <use height="7.45" transform="matrix(0.0164, 0.0426, -0.0361, 0.0053, 10.9071, 10.0823)" width="7.45" xlink:href="#shape5"/>
      <use height="7.45" transform="matrix(0.0676, 0.0718, -0.0484, 0.0543, 16.5146, 8.0114)" width="7.45" xlink:href="#shape5"/>
      <use height="7.45" transform="matrix(0.0311, 0.0331, -0.0223, 0.025, 16.3028, 10.998)" width="7.45" xlink:href="#shape5"/>
      <use height="7.45" transform="matrix(0.0572, 0.0608, -0.041, 0.046, 15.097, 10.1287)" width="7.45" xlink:href="#shape5"/>
      <use height="7.45" transform="matrix(0.0482, 0.0512, -0.0345, 0.0387, 17.9818, 10.8871)" width="7.45" xlink:href="#shape5"/>
      <use height="7.45" transform="matrix(0.0539, 0.0572, -0.0386, 0.0433, 2.8913, 10.8505)" width="7.45" xlink:href="#shape5"/>
      <use height="7.45" transform="matrix(0.0248, 0.0264, -0.0178, 0.0199, 2.742, 13.239)" width="7.45" xlink:href="#shape5"/>
      <use height="7.45" transform="matrix(0.0456, 0.0484, -0.0327, 0.0366, 1.7773, 12.5541)" width="7.45" xlink:href="#shape5"/>
      <use height="7.45" transform="matrix(0.0384, 0.0408, -0.0275, 0.0309, 4.0651, 13.1007)" width="7.45" xlink:href="#shape5"/>
      <use height="7.45" transform="matrix(0.0676, 0.0718, -0.0484, 0.0543, 16.2146, 4.5114)" width="7.45" xlink:href="#shape5"/>
      <use height="7.45" transform="matrix(0.0311, 0.0331, -0.0223, 0.025, 16.0028, 7.498)" width="7.45" xlink:href="#shape5"/>
      <use height="7.45" transform="matrix(0.0572, 0.0608, -0.041, 0.046, 14.797, 6.6287)" width="7.45" xlink:href="#shape5"/>
      <use height="7.45" transform="matrix(0.0482, 0.0512, -0.0345, 0.0387, 17.6818, 7.3871)" width="7.45" xlink:href="#shape5"/>
      <use height="7.45" transform="matrix(0.0642, -0.0339, 0.0528, 0.0834, 18.0354, 4.8291)" width="7.45" xlink:href="#shape5"/>
      <use height="7.45" transform="matrix(0.0296, -0.0156, 0.0243, 0.0384, 20.909, 6.7292)" width="7.45" xlink:href="#shape5"/>
      <use height="7.45" transform="matrix(0.0544, -0.0287, 0.0447, 0.0706, 20.149, 7.5859)" width="7.45" xlink:href="#shape5"/>
      <use height="7.45" transform="matrix(0.0458, -0.0242, 0.0376, 0.0595, 20.7043, 4.8354)" width="7.45" xlink:href="#shape5"/>
      <use height="7.45" transform="matrix(0.0827, 0.035, -0.0081, 0.0829, 18.0193, 7.0369)" width="7.45" xlink:href="#shape5"/>
      <use height="7.45" transform="matrix(0.0381, 0.0161, -0.0037, 0.0382, 19.2898, 10.2637)" width="7.45" xlink:href="#shape5"/>
      <use height="7.45" transform="matrix(0.0701, 0.0296, -0.0069, 0.0702, 18.0393, 10.0656)" width="7.45" xlink:href="#shape5"/>
      <use height="7.45" transform="matrix(0.059, 0.025, -0.0058, 0.0592, 20.4567, 9.134)" width="7.45" xlink:href="#shape5"/>
      <use height="7.45" transform="matrix(0.0343, 0.0893, -0.0757, 0.0111, 19.4292, 4.3035)" width="7.45" xlink:href="#shape5"/>
      <use height="7.45" transform="matrix(0.0158, 0.0411, -0.0349, 0.0051, 17.8016, 6.2864)" width="7.45" xlink:href="#shape5"/>
      <use height="7.45" transform="matrix(0.0291, 0.0756, -0.0641, 0.0094, 16.9787, 4.9912)" width="7.45" xlink:href="#shape5"/>
      <use height="7.45" transform="matrix(0.0245, 0.0637, -0.054, 0.0079, 19.5348, 7.1741)" width="7.45" xlink:href="#shape5"/>
      <use height="7.45" transform="matrix(0.0498, 0.0529, -0.0357, 0.04, 13.3344, 7.0767)" width="7.45" xlink:href="#shape5"/>
      <use height="7.45" transform="matrix(0.0229, 0.0244, -0.0164, 0.0184, 13.1889, 9.3011)" width="7.45" xlink:href="#shape5"/>
      <use height="7.45" transform="matrix(0.0422, 0.0448, -0.0302, 0.0339, 12.3215, 8.6763)" width="7.45" xlink:href="#shape5"/>
      <use height="7.45" transform="matrix(0.0356, 0.0378, -0.0255, 0.0285, 14.4102, 9.2194)" width="7.45" xlink:href="#shape5"/>
      <use height="7.45" transform="matrix(-0.0293, 0.071, -0.0778, -0.0553, 25.9739, 6.1939)" width="7.45" xlink:href="#shape5"/>
      <use height="7.45" transform="matrix(-0.0135, 0.0327, -0.0358, -0.0255, 23.0683, 5.8163)" width="7.45" xlink:href="#shape5"/>
      <use height="7.45" transform="matrix(-0.0248, 0.0601, -0.0659, -0.0468, 23.2012, 4.5718)" width="7.45" xlink:href="#shape5"/>
      <use height="7.45" transform="matrix(-0.0209, 0.0507, -0.0555, -0.0394, 24.038, 7.6526)" width="7.45" xlink:href="#shape5"/>
      <use height="57.95" transform="matrix(-0.2332, 0.0138, -0.0184, -0.2335, 24.8852, 14.5626)" width="61.75" xlink:href="#sprite4"/>
      <use height="12.45" transform="matrix(0.4581, -0.7099, -0.7252, -0.3806, 9.0516, 15.6087)" width="11.25" xlink:href="#sprite6"/>
    </g>
    <g id="shape2" transform="matrix(1.0, 0.0, 0.0, 1.0, -0.9, 0.25)">
      <path d="M22.85 3.3 Q27.3 5.9 27.85 10.0 28.4 14.25 24.6 19.7 20.75 25.2 15.2 24.75 9.65 24.3 6.1 20.75 4.1 18.9 2.95 17.05 2.0 15.5 1.55 14.05 0.65 10.85 4.8 5.35 9.0 -0.2 13.7 0.3 16.85 0.55 19.95 1.8 L22.85 3.3 Z" fill="none" stroke="#382510" stroke-linecap="round" stroke-linejoin="round" stroke-opacity="0.5019608" stroke-width="1.0"/>
    </g>
    <g id="sprite2" transform="matrix(1.0, 0.0, 0.0, 1.0, 0.0, 0.0)">
      <use height="44.7" transform="matrix(0.5493, 0.0108, 0.0, 0.5493, 0.0118, -0.0138)" width="48.25" xlink:href="#sprite3"/>
    </g>
    <g id="sprite3" transform="matrix(1.0, 0.0, 0.0, 1.0, 24.1, 44.7)">
      <use height="44.7" transform="matrix(1.0, 0.0, 0.0, 1.0, -24.1, -44.7)" width="48.25" xlink:href="#shape3"/>
    </g>
    <g id="shape3" transform="matrix(1.0, 0.0, 0.0, 1.0, 24.1, 44.7)">
      <path d="M9.7 -42.0 Q13.75 -39.9 14.45 -35.05 15.2 -28.05 12.15 -22.7 7.95 -15.4 0.4 -11.45 -7.4 -7.25 -15.6 -10.5 -18.8 -11.75 -21.2 -13.65 -23.05 -16.4 -23.8 -19.05 -25.5 -24.85 -17.95 -35.1 -10.35 -45.3 -1.65 -44.65 4.05 -44.25 9.7 -42.0" fill="#ffc10d" fill-rule="evenodd" stroke="none"/>
      <path d="M-21.2 -13.65 Q-18.8 -11.75 -15.6 -10.5 -7.4 -7.25 0.4 -11.45 7.95 -15.4 12.15 -22.7 15.2 -28.05 14.45 -35.05 13.75 -39.9 9.7 -42.0 12.3 -40.9 14.9 -39.4 23.05 -34.9 24.0 -27.35 25.05 -19.75 18.1 -9.65 11.2 0.5 1.0 -0.05 -9.15 -0.7 -15.6 -7.0 -19.2 -10.3 -21.2 -13.65" fill="url(#gradient0)" fill-rule="evenodd" stroke="none"/>
      <path d="M9.7 -42.0 Q4.05 -44.25 -1.65 -44.65 -10.35 -45.3 -17.95 -35.1 -25.5 -24.85 -23.8 -19.05 -23.05 -16.4 -21.2 -13.65 -19.2 -10.3 -15.6 -7.0 -9.15 -0.7 1.0 -0.05 11.2 0.5 18.1 -9.65 25.05 -19.75 24.0 -27.35 23.05 -34.9 14.9 -39.4 12.3 -40.9 9.7 -42.0 Z" fill="none" stroke="#d59e1e" stroke-linecap="round" stroke-linejoin="round" stroke-opacity="0.3019608" stroke-width="0.05"/>
      <path d="M16.2 -29.15 Q18.3 -32.35 20.3 -32.3 22.3 -32.25 23.05 -29.0 23.85 -25.75 22.9 -21.15 22.2 -17.9 20.95 -15.4 L20.25 -15.35 Q20.1 -17.5 18.0 -20.4 14.05 -25.9 16.2 -29.15" fill="#ffd524" fill-opacity="0.47058824" fill-rule="evenodd" stroke="none"/>
      <path d="M16.25 -8.45 Q14.75 -6.5 12.05 -4.65 8.3 -1.9 4.35 -0.8 0.4 0.25 -1.35 -0.9 -3.15 -2.15 -1.7 -4.8 -0.25 -7.6 8.7 -7.8 13.5 -7.85 15.65 -8.85 L16.25 -8.45" fill="url(#gradient1)" fill-rule="evenodd" stroke="none"/>
    </g>
    <linearGradient gradientTransform="matrix(0.0076, 0.0286, -0.0247, 0.0066, -0.05, 0.3)" gradientUnits="userSpaceOnUse" id="gradient0" spreadMethod="pad" x1="-819.2" x2="819.2">
      <stop offset="0.0" stop-color="#f7b70d"/>
      <stop offset="1.0" stop-color="#d59f0d"/>
    </linearGradient>
    <linearGradient gradientTransform="matrix(0.0102, -0.0058, 0.0024, 0.004, 6.7, -5.75)" gradientUnits="userSpaceOnUse" id="gradient1" spreadMethod="pad" x1="-819.2" x2="819.2">
      <stop offset="0.0" stop-color="#e3940d"/>
      <stop offset="1.0" stop-color="#e3940d" stop-opacity="0.0"/>
    </linearGradient>
    <g id="shape4" transform="matrix(1.0, 0.0, 0.0, 1.0, -3.25, -0.95)">
      <path d="M11.0 0.95 L11.25 1.2 Q10.35 2.5 9.8 5.05 8.85 9.85 6.6 11.05 4.3 12.2 3.55 11.4 2.8 10.65 4.0 8.4 5.15 6.1 7.6 3.7 9.35 2.0 11.0 0.95" fill="#fefe45" fill-opacity="0.47058824" fill-rule="evenodd" stroke="none"/>
      <path d="M6.0 10.3 L4.4 10.2 Q3.65 9.75 3.45 8.8 3.3 7.9 3.75 7.05 4.25 6.2 5.1 5.85 L6.75 6.0 Q7.45 6.45 7.65 7.35 7.8 8.35 7.3 9.2 6.85 10.05 6.0 10.3" fill="#ffffdd" fill-rule="evenodd" stroke="none"/>
    </g>
    <g id="shape5" transform="matrix(1.0, 0.0, 0.0, 1.0, 2.1, 5.3)">
      <path d="M5.35 -1.6 Q5.35 -0.1 4.2 1.0 3.1 2.15 1.6 2.15 0.1 2.15 -1.05 1.0 -2.1 -0.1 -2.1 -1.6 -2.1 -3.1 -1.05 -4.25 0.1 -5.3 1.6 -5.3 3.1 -5.3 4.2 -4.25 5.35 -3.1 5.35 -1.6" fill="#ffffff" fill-opacity="0.92156863" fill-rule="evenodd" stroke="none"/>
    </g>
    <g id="sprite4" transform="matrix(1.0, 0.0, 0.0, 1.0, 17.2, 58.45)">
      <use height="46.7" transform="matrix(1.0, 0.0, 0.0, 1.0, -17.2, -58.45)" width="25.5" xlink:href="#sprite5"/>
      <use height="46.7" transform="matrix(-0.5019, 0.5019, -0.5019, -0.5019, 44.5391, -24.5596)" width="25.5" xlink:href="#sprite5"/>
      <use height="46.7" transform="matrix(0.4243, 0.0, 0.0, 0.4243, 19.24, -20.3055)" width="25.5" xlink:href="#sprite5"/>
    </g>
    <g id="sprite5" transform="matrix(1.0, 0.0, 0.0, 1.0, 12.75, 33.95)">
      <use height="46.7" transform="matrix(1.0, 0.0, 0.0, 1.0, -12.75, -33.95)" width="25.5" xlink:href="#shape6"/>
    </g>
    <g id="shape6" transform="matrix(1.0, 0.0, 0.0, 1.0, 12.75, 33.95)">
      <path d="M9.0 -9.0 Q12.75 -5.25 12.75 0.0 12.75 5.25 9.0 9.0 5.25 12.75 0.0 12.75 -5.25 12.75 -9.0 9.0 -12.75 5.25 -12.75 0.0 -12.75 -5.25 -9.0 -9.0 -5.25 -12.75 0.0 -12.75 5.25 -12.75 9.0 -9.0 M1.8 -1.8 Q1.05 -2.55 0.0 -2.55 -1.05 -2.55 -1.8 -1.8 -2.55 -1.05 -2.55 0.0 -2.55 1.05 -1.8 1.8 -1.05 2.55 0.0 2.55 1.05 2.55 1.8 1.8 2.55 1.05 2.55 0.0 2.55 -1.05 1.8 -1.8" fill="url(#gradient2)" fill-rule="evenodd" stroke="none"/>
      <path d="M3.4 -33.35 L3.25 -32.95 2.8 -32.8 Q2.55 -32.8 2.4 -32.95 L2.25 -33.35 2.4 -33.8 2.8 -33.95 3.25 -33.8 3.4 -33.35 M-5.55 -16.15 Q-5.9 -16.5 -5.85 -16.95 -5.9 -17.45 -5.55 -17.8 -5.2 -18.15 -4.7 -18.15 -4.2 -18.15 -3.85 -17.8 -3.55 -17.45 -3.55 -16.95 -3.55 -16.5 -3.85 -16.15 -4.2 -15.8 -4.7 -15.8 -5.2 -15.8 -5.55 -16.15" fill="#ffffff" fill-rule="evenodd" stroke="none"/>
      <path d="M3.6 -3.6 Q5.1 -2.1 5.1 0.0 5.1 2.1 3.6 3.6 2.1 5.1 0.0 5.1 -2.1 5.1 -3.6 3.6 -5.1 2.1 -5.1 0.0 -5.1 -2.1 -3.6 -3.6 -2.1 -5.1 0.0 -5.1 2.1 -5.1 3.6 -3.6" fill="#ffffff" fill-rule="evenodd" stroke="none"/>
    </g>
    <radialGradient cx="0" cy="0" gradientTransform="matrix(0.0151, 0.0, 0.0, 0.0151, 0.0, 0.0)" gradientUnits="userSpaceOnUse" id="gradient2" r="819.2" spreadMethod="pad">
      <stop offset="0.0" stop-color="#80ff00" stop-opacity="0.56078434"/>
      <stop offset="1.0" stop-color="#e6ff00" stop-opacity="0.0"/>
    </radialGradient>
    <g id="sprite6" transform="matrix(1.0, 0.0, 0.0, 1.0, 0.0, -5.1)">
      <use height="12.45" transform="matrix(1.0, 0.0, 0.0, 1.0, 0.0, 5.1)" width="11.25" xlink:href="#shape7"/>
    </g>
    <g id="shape7" transform="matrix(1.0, 0.0, 0.0, 1.0, 0.0, -5.1)">
      <path d="M1.6 14.1 Q0.65 13.1 0.6 11.65 0.6 10.2 1.6 9.2 2.25 8.55 3.1 8.35 4.2 7.2 4.35 5.1 4.25 7.6 5.2 8.4 5.95 8.65 6.5 9.25 7.55 10.25 7.6 11.7 7.55 13.0 6.65 14.05 L6.55 14.15 6.95 15.45 5.8 14.75 Q5.05 15.15 4.1 15.15 3.2 15.1 2.4 14.7 L0.1 16.3 1.6 14.1 M2.55 11.85 Q2.55 12.5 3.05 13.05 3.55 13.55 4.25 13.55 4.95 13.55 5.45 13.05 6.0 12.55 6.0 11.9 6.0 11.15 5.5 10.65 5.0 10.1 4.25 10.1 3.55 10.1 3.05 10.6 2.55 11.1 2.55 11.85" fill="#fcf3d8" fill-opacity="0.3019608" fill-rule="evenodd" stroke="none"/>
      <path d="M2.55 11.85 Q2.55 11.1 3.05 10.6 3.55 10.1 4.25 10.1 5.0 10.1 5.5 10.65 6.0 11.15 6.0 11.9 6.0 12.55 5.45 13.05 4.95 13.55 4.25 13.55 3.55 13.55 3.05 13.05 2.55 12.5 2.55 11.85" fill="#fcf3d8" fill-rule="evenodd" stroke="none"/>
      <path d="M4.25 10.8 L7.65 7.55 Q6.1 9.2 5.4 11.55 L11.25 17.55 4.65 12.6 2.4 15.05 3.6 11.4 0.0 7.65 4.25 10.8" fill="#fcf3d8" fill-rule="evenodd" stroke="none"/>
    </g>
    <g id="shape8" transform="matrix(1.0, 0.0, 0.0, 1.0, -14.65, -16.9)">
      <path d="M33.05 19.45 L29.35 22.4 27.85 23.45 Q27.6 22.4 27.8 21.6 28.15 20.35 29.55 19.65 L33.05 19.4 33.05 19.45" fill="#bbd904" fill-rule="evenodd" stroke="none"/>
      <path d="M33.05 19.4 L33.1 19.45 33.05 19.45 33.05 19.4 M27.8 21.6 L26.9 23.85 25.65 24.2 25.2 24.2 24.55 24.2 22.65 24.15 22.25 24.15 22.6 23.5 22.75 23.25 22.8 23.25 22.8 23.2 23.0 22.75 23.4 22.45 23.45 22.15 23.55 22.05 Q24.7 21.45 25.75 21.0 L25.75 20.95 Q27.8 20.05 29.55 19.65 28.15 20.35 27.8 21.6 M24.95 20.2 L25.1 20.1 25.2 20.05 Q25.5 19.95 25.0 20.25 L24.95 20.2 M25.1 20.1 L25.0 20.25 25.1 20.1" fill="#b8cf03" fill-rule="evenodd" stroke="none"/>
      <path d="M29.45 17.6 L30.55 17.15 Q31.3 16.85 31.55 16.9 L32.1 17.35 32.05 17.4 Q28.65 19.0 29.55 19.65 27.8 20.05 25.75 20.95 L29.45 17.6" fill="#83a603" fill-rule="evenodd" stroke="none"/>
      <path d="M32.1 17.35 L32.6 18.2 32.95 19.0 33.05 19.4 29.55 19.65 Q28.65 19.0 32.05 17.4 L32.1 17.35" fill="#96b803" fill-rule="evenodd" stroke="none"/>
      <path d="M23.6 21.8 L23.65 21.75 24.5 20.55 24.9 20.25 25.0 20.25 Q25.5 19.95 25.2 20.05 27.5 18.6 28.65 18.05 L29.45 17.6 25.75 20.95 25.75 21.0 Q24.7 21.45 23.55 22.05 L23.6 21.9 23.65 21.75 23.6 21.8" fill="#6b8c02" fill-rule="evenodd" stroke="none"/>
      <path d="M23.0 22.75 L22.8 22.95 Q21.8 23.05 22.8 22.25 L23.6 21.8 23.65 21.75 23.6 21.9 23.55 22.05 23.45 22.15 23.4 22.45 23.0 22.75" fill="#a4bf03" fill-rule="evenodd" stroke="none"/>
      <path d="M32.1 17.35 L32.6 18.2 32.95 19.0 33.05 19.4 33.1 19.45 33.05 19.45 29.35 22.4 27.85 23.45 M26.9 23.85 L25.65 24.2 25.2 24.2 24.55 24.2 22.65 24.15 22.25 24.15 22.6 23.5 22.75 23.25 M22.8 23.2 L23.0 22.75 M23.65 21.75 L24.5 20.55 M25.2 20.05 Q27.5 18.6 28.65 18.05 L29.45 17.6 30.55 17.15 Q31.3 16.85 31.55 16.9 L32.1 17.35 32.05 17.4 M25.0 20.25 L24.9 20.25" fill="none" stroke="#000000" stroke-linecap="round" stroke-linejoin="round" stroke-opacity="0.3019608" stroke-width="0.05"/>
      <path d="M23.6 21.8 L23.65 21.75 M24.5 20.55 L24.9 20.25 Q24.8 20.25 24.75 20.35 L24.95 20.2 25.1 20.1 25.2 20.05 Q25.5 19.95 25.0 20.25 L25.1 20.1 M24.95 20.2 L25.0 20.25 M24.9 20.25 L24.95 20.2" fill="none" stroke="#000000" stroke-linecap="round" stroke-linejoin="round" stroke-opacity="0.2509804" stroke-width="0.05"/>
      <path d="M26.9 23.85 L27.3 22.55 27.55 22.1 27.65 22.4 27.85 23.45 M23.65 21.75 Q23.55 21.75 22.8 22.25 M22.8 22.95 L23.4 22.45" fill="none" stroke="#000000" stroke-linecap="round" stroke-linejoin="round" stroke-opacity="0.3019608" stroke-width="0.1"/>
      <path d="M29.45 17.6 L28.5 18.55 27.45 19.45 26.5 19.85 Q26.25 19.95 25.75 20.95 26.35 20.4 27.1 20.3 L28.35 19.95 29.55 19.55 31.05 19.4 32.1 19.4 33.05 19.4 M25.75 20.95 L25.75 21.0 Q25.4 21.6 25.55 22.25 25.7 22.9 25.5 23.15 25.3 23.4 25.2 24.2 M25.75 21.0 Q24.85 21.3 24.75 21.5 24.75 21.75 23.55 22.05" fill="none" stroke="#000000" stroke-linecap="round" stroke-linejoin="round" stroke-opacity="0.15294118" stroke-width="0.1"/>
      <path d="M22.45 21.05 Q24.2 21.95 25.2 23.15 24.0 21.6 22.7 20.7 L21.95 20.25 Q20.85 19.6 19.7 19.45 L19.65 19.4 19.4 19.1 19.05 18.95 19.0 18.95 18.25 18.85 Q17.9 18.95 17.9 19.2 17.75 19.45 18.0 19.8 L18.3 20.1 18.65 20.3 19.4 20.35 19.85 19.95 21.75 20.65 22.45 21.05 M29.6 32.9 Q28.05 32.85 27.55 28.8 L27.4 26.95 Q25.05 27.3 21.6 22.6 L21.1 21.8 20.4 20.8 21.05 21.9 21.5 22.7 Q24.55 27.4 26.95 27.5 L27.0 29.75 Q27.35 34.9 29.15 33.65 29.35 37.95 27.65 38.85 26.1 37.4 26.55 33.25 L26.55 33.1 Q26.0 32.85 25.55 32.2 24.9 31.15 24.7 28.95 L24.5 30.25 24.45 31.3 Q23.9 29.45 22.3 27.35 20.5 26.35 18.6 26.05 L15.6 25.05 15.9 24.3 Q17.7 24.3 19.25 24.95 L18.8 24.65 Q17.35 23.7 16.8 22.7 15.95 21.0 17.55 18.85 L19.15 18.65 20.05 18.85 22.25 19.85 22.9 20.3 Q25.1 21.7 26.55 24.1 L27.4 25.75 28.5 27.15 Q31.05 30.6 29.6 32.9 M21.75 24.35 L21.1 23.45 Q20.7 23.15 20.35 23.0 L19.75 22.9 Q19.05 23.7 19.4 24.15 L19.6 24.35 19.65 24.35 20.4 24.5 21.75 24.35" fill="#786423" fill-rule="evenodd" stroke="none"/>
      <path d="M22.45 21.05 L21.75 20.65 19.85 19.95 19.4 20.35 18.65 20.3 18.3 20.1 18.0 19.8 Q17.75 19.45 17.9 19.2 17.9 18.95 18.25 18.85 L19.0 18.95 19.05 18.95 19.4 19.1 19.65 19.4 19.7 19.45 Q20.85 19.6 21.95 20.25 L22.7 20.7 Q24.0 21.6 25.2 23.15 24.2 21.95 22.45 21.05 M21.75 24.35 L20.4 24.5 19.65 24.35 19.6 24.35 19.4 24.15 Q19.05 23.7 19.75 22.9 L20.35 23.0 Q20.7 23.15 21.1 23.45 L21.75 24.35" fill="#8a7732" fill-rule="evenodd" stroke="none"/>
      <path d="M29.15 33.65 Q27.35 34.9 27.0 29.75 L26.95 27.5 Q24.55 27.4 21.5 22.7 L21.05 21.9 20.4 20.8 21.1 21.8 21.6 22.6 Q25.05 27.3 27.4 26.95 L27.55 28.8 Q28.05 32.85 29.6 32.9 L29.5 33.2 29.2 33.65 29.15 33.65 M17.55 18.85 Q15.95 21.0 16.8 22.7 17.35 23.7 18.8 24.65 L19.25 24.95 Q17.7 24.3 15.9 24.3 L16.25 23.65 15.8 23.45 15.95 23.35 15.95 23.25 Q15.4 19.75 17.55 18.85" fill="#614e17" fill-rule="evenodd" stroke="none"/>
      <path d="M15.6 25.05 L18.6 26.05 Q20.5 26.35 22.3 27.35 23.9 29.45 24.45 31.3 L24.5 30.25 24.7 28.95 Q24.9 31.15 25.55 32.2 26.0 32.85 26.55 33.1 L26.55 33.25 Q26.1 37.4 27.65 38.85 L27.55 38.9 28.0 39.1 27.3 39.0 27.05 39.05 Q26.45 39.25 26.1 38.85 25.35 37.9 25.9 33.85 L25.9 33.75 25.1 33.0 24.85 32.45 24.75 32.2 24.85 33.1 25.35 34.75 25.35 34.85 25.0 37.0 22.6 39.8 Q20.25 42.6 18.15 41.3 18.15 40.6 18.85 39.8 19.8 38.65 22.1 37.3 23.85 34.95 23.8 32.6 23.8 30.35 22.15 28.1 20.3 26.85 18.5 26.3 L15.45 25.45 Q14.2 25.15 14.9 25.15 L15.55 25.2 15.2 24.85 15.6 25.05 M19.05 40.65 L19.6 40.75 Q23.05 39.1 22.9 37.8 21.85 37.2 19.35 40.3 L19.05 40.65" fill="#544314" fill-rule="evenodd" stroke="none"/>
      <path d="M26.1 38.85 Q23.35 43.4 18.3 42.25 18.05 41.75 18.15 41.3 20.25 42.6 22.6 39.8 L25.0 37.0 25.35 34.85 25.35 34.75 24.85 33.1 24.75 32.2 24.85 32.45 25.1 33.0 25.9 33.75 25.9 33.85 Q25.35 37.9 26.1 38.85" fill="#3b2e0c" fill-rule="evenodd" stroke="none"/>
      <path d="M19.05 40.65 L19.35 40.3 Q21.85 37.2 22.9 37.8 23.05 39.1 19.6 40.75 L19.05 40.65" fill="#6b581b" fill-rule="evenodd" stroke="none"/>
      <path d="M29.15 33.65 L29.2 33.65 29.5 33.2 29.6 32.9 Q31.05 30.6 28.5 27.15 L27.4 25.75 26.55 24.1 Q25.1 21.7 22.9 20.3 L22.25 19.85 20.05 18.85 19.15 18.65 17.55 18.85 Q15.4 19.75 15.95 23.25 L15.95 23.35 15.8 23.45 M27.65 38.85 Q29.35 37.95 29.15 33.65 M18.15 41.3 Q18.15 40.6 18.85 39.8 19.8 38.65 22.1 37.3 23.85 34.95 23.8 32.6 23.8 30.35 22.15 28.1 20.3 26.85 18.5 26.3 L15.45 25.45 Q14.2 25.15 14.9 25.15 L15.55 25.2 15.2 24.85 M26.1 38.85 Q23.35 43.4 18.3 42.25 18.05 41.75 18.15 41.3 M24.85 33.1 L24.75 32.2 M27.55 38.9 L27.65 38.85" fill="none" stroke="#000000" stroke-linecap="round" stroke-linejoin="round" stroke-opacity="0.3019608" stroke-width="0.05"/>
    </g>
  </defs>
</svg>
