<?xml version="1.0" encoding="UTF-8" standalone="no"?>
<svg xmlns:xlink="http://www.w3.org/1999/xlink" height="520.0px" width="520.0px" xmlns="http://www.w3.org/2000/svg">
  <g transform="matrix(10.0, 0.0, 0.0, 10.0, 0.0, 0.0)">
    <use height="52.0" transform="matrix(1.0, 0.0, 0.0, 1.0, 0.0, 0.0)" width="52.0" xlink:href="#shape0"/>
    <use height="82.7" transform="matrix(0.5461, 0.0054, 0.0018, 0.2479, 1.25, 28.55)" width="82.7" xlink:href="#sprite0"/>
    <use height="31.1" transform="matrix(1.0, 0.0, 0.0, 1.0, 7.6, 4.5)" width="14.35" xlink:href="#shape2"/>
    <use height="104.0" transform="matrix(0.2942, 0.0, 0.0, 0.2942, 7.7, 4.7)" width="47.1" xlink:href="#sprite1"/>
    <use height="107.0" transform="matrix(0.2942, 0.0, 0.0, 0.2942, 3.9265, 9.8265)" width="92.2" xlink:href="#sprite2"/>
    <use height="16.1" transform="matrix(1.0, 0.0, 0.0, 1.0, 8.7, 6.05)" width="25.15" xlink:href="#shape5"/>
    <use height="106.5" transform="matrix(0.2942, 0.0, 0.0, 0.2942, 4.0, 9.8875)" width="91.7" xlink:href="#sprite3"/>
    <use height="53.1" transform="matrix(0.2942, 0.0, 0.0, 0.2942, 9.0, 6.25)" width="83.7" xlink:href="#sprite4"/>
    <use height="42.95" transform="matrix(1.0, 0.0, 0.0, 1.0, 14.35, 5.85)" width="36.1" xlink:href="#shape8"/>
    <use height="34.8" transform="matrix(0.2123, 0.2897, 0.4378, -0.2237, 15.6, 38.35)" width="34.8" xlink:href="#sprite5"/>
  </g>
  <defs>
    <g id="shape0" transform="matrix(1.0, 0.0, 0.0, 1.0, 0.0, 0.0)">
      <path d="M52.0 0.0 L52.0 52.0 0.0 52.0 0.0 0.0 52.0 0.0" fill="#33cc33" fill-opacity="0.0" fill-rule="evenodd" stroke="none"/>
    </g>
    <g id="sprite0" transform="matrix(1.0, 0.0, 0.0, 1.0, 0.0, 0.0)">
      <use height="82.7" transform="matrix(1.0, 0.0, 0.0, 1.0, 0.0, 0.0)" width="82.7" xlink:href="#shape1"/>
    </g>
    <g id="shape1" transform="matrix(1.0, 0.0, 0.0, 1.0, 0.0, 0.0)">
      <path d="M70.6 12.1 Q82.7 24.2 82.7 41.35 82.7 58.5 70.6 70.6 58.5 82.7 41.35 82.7 24.2 82.7 12.1 70.6 0.0 58.5 0.0 41.35 0.0 24.2 12.1 12.1 24.2 0.0 41.35 0.0 58.5 0.0 70.6 12.1" fill="url(#gradient0)" fill-rule="evenodd" stroke="none"/>
    </g>
    <radialGradient cx="0" cy="0" gradientTransform="matrix(0.0508, 0.0, 0.0, 0.0508, 41.35, 41.35)" gradientUnits="userSpaceOnUse" id="gradient0" r="819.2" spreadMethod="pad">
      <stop offset="0.0" stop-color="#000000" stop-opacity="0.3019608"/>
      <stop offset="1.0" stop-color="#000000" stop-opacity="0.0"/>
    </radialGradient>
    <g id="shape2" transform="matrix(1.0, 0.0, 0.0, 1.0, -7.6, -4.5)">
      <path d="M13.75 11.2 L11.8 6.85 10.9 4.85 12.1 4.75 Q14.45 4.9 15.9 6.85 L15.7 6.75 Q14.2 6.1 14.4 8.55 13.95 9.65 13.75 11.2 13.95 9.65 14.4 8.55 14.6 10.9 16.3 16.1 L16.05 17.0 13.75 11.2 M18.6 24.85 L16.7 18.85 16.95 17.85 18.8 22.85 18.7 24.35 18.65 24.65 18.6 24.85" fill="#c2b570" fill-rule="evenodd" stroke="none"/>
      <path d="M11.8 6.85 L13.75 11.2 16.05 17.0 16.7 18.85 18.6 24.85 19.7 29.0 21.7 35.35 20.6 34.3 19.2 29.4 19.1 29.0 19.2 29.4 17.0 28.75 16.05 27.7 19.1 29.0 18.3 25.8 17.65 23.45 18.3 25.8 Q14.95 22.65 12.35 22.1 L12.1 20.05 Q14.05 20.45 16.1 22.05 L17.65 23.45 17.5 22.9 16.3 18.95 17.5 22.9 Q17.0 21.9 16.0 21.0 14.45 19.65 11.8 18.55 L11.5 17.5 11.3 17.0 10.8 15.75 Q13.75 16.6 16.3 18.95 L15.75 17.25 13.6 11.25 11.8 6.85 13.6 11.25 15.75 17.25 Q13.05 14.8 9.9 13.95 L8.7 11.9 Q8.0 10.1 7.85 8.75 7.7 7.05 8.45 6.05 9.2 5.1 10.9 4.85 L11.8 6.85 M13.6 11.25 Q10.65 8.9 7.85 8.75 10.65 8.9 13.6 11.25" fill="#fbf1bf" fill-rule="evenodd" stroke="none"/>
      <path d="M14.4 8.55 Q14.2 6.1 15.7 6.75 L15.9 6.85 Q17.65 9.1 18.1 13.9 16.9 14.15 16.3 16.1 14.6 10.9 14.4 8.55 14.9 7.45 15.7 6.75 14.9 7.45 14.4 8.55 M18.25 15.55 L18.25 15.85 Q18.15 18.2 19.55 20.2 19.0 21.35 18.8 22.85 L16.95 17.85 Q17.4 16.15 18.25 15.55 M19.65 28.5 L20.85 24.1 21.25 25.25 19.7 29.0 19.65 28.5" fill="#d8ca7c" fill-rule="evenodd" stroke="none"/>
      <path d="M15.75 17.25 L16.3 18.95 Q13.75 16.6 10.8 15.75 L9.9 13.95 Q13.05 14.8 15.75 17.25 M18.3 25.8 L19.1 29.0 Q17.6 26.75 15.8 25.45 14.2 24.25 12.3 23.85 L12.35 22.1 Q14.95 22.65 18.3 25.8" fill="#e3d698" fill-rule="evenodd" stroke="none"/>
      <path d="M19.7 29.0 L18.6 24.85 18.65 24.65 18.7 24.35 Q19.2 22.05 20.1 20.85 L21.2 21.95 Q19.25 24.4 19.65 28.5 L19.7 29.0 M16.7 18.85 L16.05 17.0 16.3 16.1 Q16.9 14.15 18.1 13.9 L18.25 15.55 Q17.4 16.15 16.95 17.85 L16.7 18.85" fill="#b3a355" fill-rule="evenodd" stroke="none"/>
      <path d="M11.8 6.85 L13.75 11.2 M15.9 6.85 Q14.45 4.9 12.1 4.75 L10.9 4.85 Q9.2 5.1 8.45 6.05 7.7 7.05 7.85 8.75 8.0 10.1 8.7 11.9 L9.9 13.95 M11.8 6.85 L13.6 11.25 15.75 17.25 16.3 18.95 17.5 22.9 17.65 23.45 18.3 25.8 19.1 29.0 19.2 29.4 20.6 34.3 21.7 35.35 19.7 29.0 18.6 24.85 16.7 18.85 16.05 17.0 13.75 11.2 M19.1 29.0 Q17.6 26.75 15.8 25.45 14.2 24.25 12.3 23.85 L12.35 22.1 12.1 20.05 Q14.05 20.45 16.1 22.05 L17.65 23.45 M17.5 22.9 Q17.0 21.9 16.0 21.0 14.45 19.65 11.8 18.55 L11.5 17.5 11.3 17.0 10.8 15.75 9.9 13.95 M18.25 15.55 L18.25 15.85 Q18.15 18.2 19.55 20.2 19.0 21.35 18.8 22.85 L18.7 24.35 Q19.2 22.05 20.1 20.85 L21.2 21.95 Q19.25 24.4 19.65 28.5 L20.85 24.1 21.25 25.25 19.7 29.0 19.65 28.5 M18.25 15.55 L18.1 13.9 M18.7 24.35 L18.65 24.65 18.6 24.85 M15.9 6.85 Q17.65 9.1 18.1 13.9 M19.2 29.4 L17.0 28.75 16.05 27.7 19.1 29.0" fill="none" stroke="#000000" stroke-linecap="round" stroke-linejoin="round" stroke-opacity="0.3019608" stroke-width="0.5"/>
      <path d="M13.75 11.2 Q13.95 9.65 14.4 8.55 14.9 7.45 15.7 6.75 M7.85 8.75 Q10.65 8.9 13.6 11.25 M9.9 13.95 Q13.05 14.8 15.75 17.25 M16.95 17.85 Q17.4 16.15 18.25 15.55 M18.1 13.9 Q16.9 14.15 16.3 16.1 L16.05 17.0 M16.7 18.85 L16.95 17.85 M18.3 25.8 Q14.95 22.65 12.35 22.1 M16.3 18.95 Q13.75 16.6 10.8 15.75" fill="none" stroke="#000000" stroke-linecap="round" stroke-linejoin="round" stroke-opacity="0.15294118" stroke-width="0.25"/>
    </g>
    <g id="sprite1" transform="matrix(1.0, 0.0, 0.0, 1.0, 0.0, 0.0)">
      <use height="104.0" transform="matrix(1.0, 0.0, 0.0, 1.0, 0.0, 0.0)" width="47.1" xlink:href="#shape3"/>
    </g>
    <g id="shape3" transform="matrix(1.0, 0.0, 0.0, 1.0, 0.0, 0.0)">
      <path d="M35.45 36.7 L35.5 37.6 Q35.1 45.75 39.85 52.4 38.0 56.35 37.3 61.55 37.05 63.9 36.95 66.5 38.7 58.75 41.65 54.7 L45.5 58.4 Q38.9 66.8 40.15 80.75 L44.3 65.8 45.6 69.65 40.3 82.4 40.3 82.45 47.1 104.0 43.5 100.4 38.75 83.8 31.2 81.6 27.9 78.0 38.35 82.3 Q33.2 74.75 27.2 70.35 21.6 66.2 15.3 64.8 15.55 62.0 15.35 59.0 15.2 55.6 14.55 51.9 21.2 53.25 28.2 58.8 30.8 60.85 33.45 63.45 L32.9 61.65 Q31.15 58.25 27.8 55.25 22.6 50.55 13.45 46.85 L12.45 43.3 11.8 41.65 10.05 37.4 Q8.65 34.15 7.05 31.2 5.15 27.55 2.95 24.25 0.55 18.15 0.1 13.55 -0.45 7.7 2.15 4.4 4.75 1.1 10.4 0.3 L14.5 0.0 Q22.5 0.45 27.45 7.0 33.4 14.7 35.0 31.0 L35.45 36.7" fill="#000000" fill-opacity="0.3019608" fill-rule="evenodd" stroke="none"/>
    </g>
    <g id="sprite2" transform="matrix(1.0, 0.0, 0.0, 1.0, 0.25, 0.25)">
      <use height="107.0" transform="matrix(1.0, 0.0, 0.0, 1.0, -0.25, -0.25)" width="92.2" xlink:href="#shape4"/>
    </g>
    <g id="shape4" transform="matrix(1.0, 0.0, 0.0, 1.0, 0.25, 0.25)">
      <path d="M72.95 28.8 L72.9 28.75 72.95 28.75 72.95 28.8 M43.45 56.65 L43.3 56.55 43.55 56.55 43.45 56.65" fill="#868664" fill-rule="evenodd" stroke="none"/>
      <path d="M88.85 70.75 L88.85 70.7 88.9 70.75 88.85 70.75 M68.75 83.25 L68.9 83.2 68.8 83.25 Q65.85 87.75 63.65 93.65 L63.6 93.75 62.55 94.2 63.55 93.75 Q65.8 87.8 68.75 83.25 M46.3 98.4 L45.65 98.5 45.6 98.5 45.55 98.5 46.25 98.4 46.3 98.4 M91.7 69.25 L91.6 69.2 91.65 69.15 91.65 69.2 91.7 69.2 91.7 69.25" fill="#6e1f0c" fill-rule="evenodd" stroke="none"/>
      <path d="M16.25 76.1 L16.45 76.55 16.2 76.55 16.25 76.1" fill="#997d04" fill-rule="evenodd" stroke="none"/>
      <path d="M1.5 84.25 L1.5 84.2 1.55 84.25 1.5 84.25 M1.55 84.25 L3.15 88.35 3.1 88.3 1.55 84.25" fill="#694b00" fill-rule="evenodd" stroke="none"/>
      <path d="M24.3 80.15 L24.2 80.05 24.3 80.1 24.3 80.15" fill="#978a00" fill-rule="evenodd" stroke="none"/>
      <path d="M42.55 98.75 L41.05 98.85 40.65 98.85 40.45 98.9 40.35 98.9 39.1 98.9 38.55 98.9 42.55 98.75 M3.3 88.9 L3.35 89.05 3.2 88.95 3.3 88.9" fill="#501608" fill-rule="evenodd" stroke="none"/>
      <path d="M3.3 88.9 L3.3 88.8 3.3 88.65 3.5 89.2 6.2 90.55 3.45 89.2 3.4 89.05 3.35 89.05 3.3 88.9 M3.2 88.5 L3.1 88.3 3.15 88.35 3.2 88.5" fill="#594100" fill-rule="evenodd" stroke="none"/>
      <path d="M82.3 71.1 L82.25 71.1 82.25 71.05 82.3 71.1" fill="#90280f" fill-rule="evenodd" stroke="none"/>
      <path d="M21.05 96.45 L20.4 96.4 20.35 96.2 21.05 96.45 M3.35 89.05 L3.4 89.05 3.45 89.2 3.35 89.05" fill="#320d05" fill-rule="evenodd" stroke="none"/>
      <path d="M82.2 28.5 L81.9 28.55 82.15 28.35 82.2 28.5 M50.0 38.65 L50.15 38.95 49.4 38.9 Q49.15 38.85 50.0 38.65" fill="#2d7183" fill-rule="evenodd" stroke="none"/>
      <path d="M72.95 28.9 L72.9 28.85 72.95 28.8 72.95 28.9 M24.3 80.1 L24.35 80.2 24.3 80.15 24.3 80.1" fill="#557f89" fill-rule="evenodd" stroke="none"/>
      <path d="M45.55 98.5 L44.25 98.6 44.35 98.3 45.55 98.5 M55.95 40.05 L56.2 40.2 56.1 40.3 55.95 40.05 M33.4 64.3 L31.2 64.2 31.25 63.9 33.4 64.3 M3.15 88.35 L3.25 88.4 3.2 88.5 3.15 88.35" fill="#215060" fill-rule="evenodd" stroke="none"/>
      <path d="M35.05 41.35 L34.95 41.1 35.3 41.25 35.05 41.35" fill="#275f72" fill-rule="evenodd" stroke="none"/>
      <path d="M83.5 74.05 L83.7 74.5 88.85 70.75 88.9 70.75 Q88.85 72.7 87.4 74.8 86.5 76.25 85.45 76.9 L85.4 76.95 Q84.4 77.5 83.4 77.5 L83.3 77.5 Q82.5 77.4 81.65 76.7 80.85 75.85 80.0 75.8 L79.95 75.8 78.45 75.95 Q77.7 76.05 76.95 76.5 75.3 77.35 73.0 79.45 L72.6 79.7 Q67.25 87.5 64.3 95.35 L47.55 100.3 47.5 100.25 47.05 100.3 46.9 100.3 33.25 100.75 32.5 100.7 26.85 100.15 24.3 99.5 13.9 96.05 20.4 96.4 21.05 96.45 22.15 96.75 29.05 98.5 33.2 98.8 33.85 98.85 34.15 98.85 34.5 98.85 34.75 98.9 35.0 98.9 36.25 98.9 38.55 98.9 39.1 98.9 40.35 98.9 40.45 98.9 40.65 98.85 41.05 98.85 42.55 98.75 43.6 98.65 43.85 98.65 44.05 98.65 44.25 98.6 45.55 98.5 45.6 98.5 45.65 98.5 46.3 98.4 62.55 94.2 63.6 93.75 63.65 93.65 Q65.85 87.75 68.8 83.25 L68.9 83.2 68.75 83.25 Q73.8 75.45 80.85 71.75 L81.35 71.55 Q81.75 71.25 82.25 71.1 L82.3 71.1 82.4 71.1 83.5 74.05" fill="#996002" fill-rule="evenodd" stroke="none"/>
      <path d="M88.85 70.7 L89.4 70.3 Q90.5 69.75 91.6 69.15 L91.6 69.2 91.7 69.25 91.05 77.45 88.75 80.4 88.6 80.45 Q84.95 83.95 80.2 83.25 L80.1 83.25 79.5 77.8 Q77.55 79.6 75.85 81.55 L75.85 81.6 Q69.95 88.45 67.7 98.55 L67.7 98.6 66.55 99.1 63.2 100.75 Q62.95 100.9 62.65 101.0 L60.65 101.75 60.6 101.75 Q57.45 102.85 53.5 103.85 L52.45 104.05 51.9 104.2 51.65 104.2 51.35 104.3 45.2 105.5 44.5 105.6 44.15 105.65 44.1 105.65 Q38.3 104.35 33.25 100.75 L46.9 100.3 47.05 100.3 47.5 100.25 47.55 100.3 64.3 95.35 Q67.25 87.5 72.6 79.7 L73.0 79.45 Q75.3 77.35 76.95 76.5 77.7 76.05 78.45 75.95 L79.95 75.8 80.0 75.8 Q80.85 75.85 81.65 76.7 82.5 77.4 83.3 77.5 L83.4 77.5 Q84.4 77.5 85.4 76.95 L85.45 76.9 Q86.5 76.25 87.4 74.8 88.85 72.7 88.9 70.75 L88.85 70.7 M20.4 96.4 L13.9 96.05 Q6.65 93.4 1.0 90.0 L0.55 89.8 0.45 89.7 0.1 85.35 1.5 84.25 1.55 84.25 3.1 88.3 3.2 88.5 3.3 88.65 3.3 88.8 3.3 88.9 3.2 88.95 3.35 89.05 3.45 89.2 6.2 90.55 6.5 90.7 19.7 96.0 20.35 96.2 20.4 96.4" fill="#8d5501" fill-rule="evenodd" stroke="none"/>
      <path d="M13.9 96.05 L24.3 99.5 26.85 100.15 32.5 100.7 33.25 100.75 Q38.3 104.35 44.1 105.65 L44.15 105.65 43.6 105.75 39.1 106.4 38.35 106.5 30.4 106.05 Q12.45 101.9 2.9 95.85 L0.55 89.8 1.0 90.0 Q6.65 93.4 13.9 96.05" fill="#7e4b01" fill-rule="evenodd" stroke="none"/>
      <path d="M80.1 83.25 L75.85 81.6 75.85 81.55 Q77.55 79.6 79.5 77.8 L80.1 83.25" fill="#5b3600" fill-rule="evenodd" stroke="none"/>
      <path d="M82.25 71.05 L82.4 71.1 82.3 71.1 82.25 71.05" fill="url(#gradient1)" fill-rule="evenodd" stroke="none"/>
      <path d="M43.55 56.55 L43.45 56.7 43.45 56.65 43.55 56.55" fill="url(#gradient2)" fill-rule="evenodd" stroke="none"/>
      <path d="M35.45 60.35 L35.5 60.3 35.5 60.35 35.45 60.35" fill="url(#gradient3)" fill-rule="evenodd" stroke="none"/>
      <path d="M24.25 80.25 L24.3 80.15 24.35 80.2 24.25 80.25" fill="url(#gradient4)" fill-rule="evenodd" stroke="none"/>
      <path d="M44.25 98.6 L44.05 98.65 43.85 98.65 43.6 98.65 42.55 98.75 38.55 98.9 36.25 98.9 35.0 98.9 34.75 98.9 34.5 98.85 34.15 98.85 33.85 98.85 33.2 98.8 29.05 98.5 22.15 96.75 21.05 96.45 20.35 96.2 19.7 96.0 6.5 90.7 6.2 90.55 3.5 89.2 3.3 88.65 3.2 88.5 3.25 88.4 Q14.35 93.55 11.3 83.9 10.35 81.65 10.1 79.45 9.5 74.15 14.05 69.55 18.45 65.0 25.9 63.1 L27.95 63.35 29.3 63.5 31.25 63.9 31.2 64.2 Q28.05 64.7 22.9 67.8 18.85 70.25 17.3 73.05 16.35 74.55 16.25 76.1 L16.2 76.55 16.25 77.7 Q17.05 85.1 27.8 91.75 35.75 96.6 44.35 98.3 L44.25 98.6 M55.25 37.75 L50.0 38.65 Q49.15 38.85 49.4 38.9 L50.15 38.95 55.95 40.05 56.1 40.3 Q50.4 43.95 44.65 43.6 39.4 43.35 35.3 41.25 L34.95 41.1 33.55 36.25 Q44.2 38.95 55.25 37.75" fill="#222b2e" fill-rule="evenodd" stroke="none"/>
      <path d="M82.15 28.35 L81.9 28.55 81.5 28.4 78.55 27.8 76.5 27.9 77.75 31.9 78.05 32.8 78.1 32.95 78.1 33.0 78.25 33.5 79.05 36.35 81.0 43.3 Q84.75 57.55 84.8 65.95 L84.8 66.45 84.75 67.7 84.45 70.75 84.15 71.95 83.5 74.05 82.4 71.1 82.25 71.05 82.8 66.95 Q83.15 58.5 79.15 43.2 L77.25 36.4 76.25 33.2 76.25 33.15 75.95 32.15 74.7 28.2 74.65 28.1 75.4 4.4 82.25 9.9 81.05 24.85 82.15 28.35 M72.9 28.75 Q70.55 29.6 67.05 31.8 L62.05 35.0 61.5 35.35 59.6 36.0 56.55 35.85 48.55 35.35 37.15 32.5 Q34.7 31.9 32.35 30.8 31.1 30.3 30.4 29.8 36.95 36.2 55.25 37.75 44.2 38.95 33.55 36.25 28.45 34.95 26.6 32.65 L23.4 23.75 25.3 10.35 70.0 0.0 73.65 2.95 72.95 28.75 72.9 28.75 M56.2 40.2 Q60.4 44.2 59.75 52.4 59.05 60.7 49.9 58.95 45.1 57.0 43.55 56.55 L43.3 56.55 43.45 56.65 43.45 56.7 48.05 60.6 Q52.15 63.95 52.7 64.55 L45.6 62.8 45.3 62.75 42.45 62.5 40.45 62.35 Q48.7 65.15 54.6 74.1 L57.5 79.15 59.0 82.65 57.15 79.85 56.65 79.2 Q49.75 70.65 37.45 65.6 L35.5 64.85 33.4 64.3 31.25 63.9 29.3 63.5 35.45 60.35 35.5 60.35 35.5 60.3 Q35.2 58.85 35.35 57.75 35.8 54.75 39.85 54.4 L35.05 41.35 35.3 41.25 Q39.4 43.35 44.65 43.6 50.4 43.95 56.1 40.3 L56.2 40.2 M1.5 84.2 L0.0 79.55 Q-0.5 68.5 12.7 64.55 18.0 62.3 25.9 63.1 18.45 65.0 14.05 69.55 9.5 74.15 10.1 79.45 10.35 81.65 11.3 83.9 14.35 93.55 3.25 88.4 L3.15 88.35 1.55 84.25 1.5 84.2 M40.55 60.3 L35.5 60.35 40.55 60.3 M51.3 56.2 Q46.8 53.55 39.85 54.4 46.8 53.55 51.3 56.2" fill="#303a40" fill-rule="evenodd" stroke="none"/>
      <path d="M81.9 28.55 L82.2 28.5 85.35 38.8 86.2 40.65 Q92.0 54.0 91.6 69.15 90.5 69.75 89.4 70.3 L88.85 70.7 88.85 70.75 83.7 74.5 83.5 74.05 84.15 71.95 84.45 70.75 84.75 67.7 84.8 66.45 84.8 65.95 Q87.0 64.45 88.1 61.55 89.65 57.5 87.9 50.6 86.2 43.65 83.25 38.5 80.85 34.4 78.25 33.5 L78.1 33.0 78.1 32.95 78.05 32.8 77.75 31.9 76.5 27.9 78.55 27.8 81.5 28.4 81.9 28.55 M80.85 71.75 Q73.8 75.45 68.75 83.25 65.8 87.8 63.55 93.75 L62.55 94.2 46.3 98.4 46.25 98.4 45.55 98.5 44.35 98.3 Q35.75 96.6 27.8 91.75 17.05 85.1 16.25 77.7 L16.2 76.55 16.45 76.55 16.25 76.1 Q16.35 74.55 17.3 73.05 18.85 70.25 22.9 67.8 28.05 64.7 31.2 64.2 L33.4 64.3 35.5 64.85 37.45 65.6 Q49.75 70.65 56.65 79.2 L57.15 79.85 59.0 82.65 57.5 79.15 54.6 74.1 Q48.7 65.15 40.45 62.35 L42.45 62.5 45.3 62.75 45.6 62.8 52.7 64.55 Q52.15 63.95 48.05 60.6 L43.45 56.7 43.55 56.55 Q45.1 57.0 49.9 58.95 59.05 60.7 59.75 52.4 60.4 44.2 56.2 40.2 L55.95 40.05 50.15 38.95 50.0 38.65 55.25 37.75 Q36.95 36.2 30.4 29.8 31.1 30.3 32.35 30.8 34.7 31.9 37.15 32.5 L48.55 35.35 56.55 35.85 59.6 36.0 61.5 35.35 62.05 35.0 67.05 31.8 Q70.55 29.6 72.9 28.75 L72.95 28.8 72.9 28.85 72.95 28.9 74.2 32.95 74.5 33.85 Q72.75 34.9 71.65 37.85 69.8 42.75 69.75 51.15 69.7 59.5 73.1 64.0 76.45 68.5 79.2 68.0 L81.2 67.5 81.15 68.75 80.85 71.75 M27.7 68.3 Q27.0 68.7 26.2 69.25 L26.2 69.3 Q22.55 72.4 23.0 76.3 23.3 78.95 24.3 80.1 L24.2 80.05 24.3 80.15 24.25 80.25 Q24.8 81.9 29.95 83.85 35.45 86.1 40.55 86.4 L43.4 86.5 43.45 86.5 44.85 86.3 Q47.95 85.9 49.5 84.1 50.95 82.35 50.75 80.0 L50.7 79.85 Q50.1 74.45 43.0 70.7 36.35 67.05 33.35 66.65 L33.35 66.6 33.0 66.6 32.95 66.6 Q31.1 66.55 28.9 67.6 L28.85 67.65 27.7 68.3 M22.9 82.7 L23.0 82.75 23.0 82.7 22.9 82.7" fill="#47565d" fill-rule="evenodd" stroke="none"/>
      <path d="M78.25 33.5 Q80.85 34.4 83.25 38.5 86.2 43.65 87.9 50.6 89.65 57.5 88.1 61.55 87.0 64.45 84.8 65.95 84.75 57.55 81.0 43.3 L79.05 36.35 78.25 33.5 M75.4 4.4 L74.65 28.1 74.7 28.2 75.95 32.15 76.25 33.15 76.25 33.2 77.25 36.4 79.15 43.2 Q83.15 58.5 82.8 66.95 L82.25 71.05 82.25 71.1 Q81.75 71.25 81.35 71.55 L80.85 71.75 81.15 68.75 81.2 67.5 79.2 68.0 Q76.45 68.5 73.1 64.0 69.7 59.5 69.75 51.15 69.8 42.75 71.65 37.85 72.75 34.9 74.5 33.85 L74.2 32.95 72.95 28.9 72.95 28.8 72.95 28.75 73.65 2.95 75.4 4.4 M27.7 68.3 L28.85 67.65 28.9 67.6 Q31.1 66.55 32.95 66.6 L33.0 66.6 33.35 66.65 Q36.35 67.05 43.0 70.7 50.1 74.45 50.7 79.85 L50.75 80.0 Q50.95 82.35 49.5 84.1 47.95 85.9 44.85 86.3 L43.45 86.5 43.4 86.5 40.55 86.4 Q35.45 86.1 29.95 83.85 24.8 81.9 24.25 80.25 L24.35 80.2 24.3 80.1 Q23.3 78.95 23.0 76.3 22.55 72.4 26.2 69.3 L27.7 68.3" fill="#607078" fill-rule="evenodd" stroke="none"/>
      <path d="M82.2 28.5 L82.15 28.35 81.05 24.85 82.25 9.9 75.4 4.4 M91.6 69.15 Q92.0 54.0 86.2 40.65 L85.35 38.8 82.2 28.5 M59.0 82.65 L57.15 79.85 56.65 79.2 Q49.75 70.65 37.45 65.6 L35.5 64.85 33.4 64.3 M91.7 69.25 L91.7 69.2 M91.7 69.25 L91.05 77.45 88.75 80.4 88.6 80.45 Q84.95 83.95 80.2 83.25 L80.1 83.25 75.85 81.6 Q69.95 88.45 67.7 98.55 L67.7 98.6 66.55 99.1 63.2 100.75 Q62.95 100.9 62.65 101.0 L60.65 101.75 53.55 103.85 52.45 104.05 51.9 104.2 51.65 104.2 51.35 104.3 45.2 105.5 44.5 105.6 44.15 105.65 43.6 105.75 39.1 106.4 38.35 106.5 30.4 106.05 Q12.45 101.9 2.9 95.85 L0.55 89.8 0.45 89.7 0.1 85.35 1.5 84.25 M1.5 84.2 L0.0 79.55 Q-0.5 68.5 12.7 64.55 18.0 62.3 25.9 63.1 L27.95 63.35 29.3 63.5 35.45 60.35 35.5 60.3 Q35.2 58.85 35.35 57.75 35.8 54.75 39.85 54.4 L35.05 41.35 34.95 41.1 33.55 36.25 Q28.45 34.95 26.6 32.65 L23.4 23.75 25.3 10.35 70.0 0.0 73.65 2.95 75.4 4.4 M75.85 81.55 L75.85 81.6" fill="none" stroke="#000000" stroke-linecap="round" stroke-linejoin="round" stroke-opacity="0.3019608" stroke-width="0.5"/>
      <path d="M83.7 74.5 L88.85 70.75 88.85 70.7 89.4 70.3 Q90.5 69.75 91.6 69.15 M75.4 4.4 L74.65 28.1 74.7 28.2 75.95 32.15 76.25 33.15 76.25 33.2 77.25 36.4 79.15 43.2 Q83.15 58.5 82.8 66.95 L82.25 71.05 82.25 71.1 Q81.75 71.25 81.35 71.55 L80.85 71.75 Q73.8 75.45 68.75 83.25 M82.3 71.1 L82.25 71.05 M45.6 98.5 L45.55 98.5 44.25 98.6 44.05 98.65 43.85 98.65 43.6 98.65 42.55 98.75 41.05 98.85 M40.45 98.9 L40.35 98.9 39.1 98.9 38.55 98.9 36.25 98.9 35.0 98.9 34.75 98.9 34.5 98.85 34.15 98.85 33.85 98.85 33.2 98.8 29.05 98.5 22.15 96.75 21.05 96.45 M1.5 84.25 L1.5 84.2 M35.45 60.35 L35.5 60.35 40.55 60.3 M31.25 63.9 L29.3 63.5 M31.25 63.9 L33.4 64.3 M1.55 84.25 L3.15 88.35 M6.2 90.55 L6.5 90.7 19.7 96.0 20.35 96.2 21.05 96.45 M3.3 88.9 L3.35 89.05 M6.2 90.55 L3.5 89.2 3.3 88.65 3.2 88.5 3.15 88.35 M63.55 93.75 Q65.8 87.8 68.75 83.25 M39.85 54.4 Q46.8 53.55 51.3 56.2 M33.55 36.25 Q44.2 38.95 55.25 37.75" fill="none" stroke="#000000" stroke-linecap="round" stroke-linejoin="round" stroke-opacity="0.15294118" stroke-width="0.5"/>
      <path d="M83.7 38.75 L83.55 39.75 Q83.05 40.55 81.2 40.95 L78.65 40.35 78.65 40.25 78.2 40.2 77.45 40.05 Q75.35 39.5 71.85 37.45 67.3 34.65 65.8 34.3 L63.75 34.1 63.3 34.65 Q63.4 35.25 64.7 35.7 66.05 36.2 66.15 37.2 L65.8 38.8 64.3 38.45 62.95 38.2 61.75 38.35 Q61.5 38.6 61.7 40.25 L64.6 51.35 67.35 61.55 Q67.5 63.0 67.3 63.5 66.95 64.35 65.5 64.25 63.2 64.15 62.35 62.95 61.35 61.55 61.2 57.7 61.1 55.95 60.05 52.4 58.95 48.7 58.75 47.15 L58.8 43.05 Q58.65 41.7 58.35 41.1 57.65 39.95 55.75 39.85 L49.85 40.2 47.9 39.85 Q47.1 39.5 47.0 38.4 46.75 36.15 49.8 34.05 L53.45 31.25 53.05 31.05 52.9 30.8 48.5 29.75 Q47.2 29.25 47.1 28.3 46.95 27.2 48.9 26.25 50.95 25.2 54.1 25.4 L55.9 25.55 65.5 24.8 67.0 26.8 68.15 28.65 Q68.2 29.2 66.45 29.8 64.6 30.35 66.45 33.0 68.25 35.7 75.05 35.9 L75.35 35.95 75.65 35.95 76.55 36.0 Q79.9 35.9 81.6 35.05 84.1 34.75 83.7 38.75 M51.1 52.35 Q50.05 52.3 49.95 51.25 49.7 49.2 52.0 48.15 54.25 47.1 54.45 49.2 53.4 52.5 51.1 52.35 M55.65 53.05 Q55.8 53.2 55.9 53.15 L56.4 53.1 Q57.0 53.15 57.15 53.35 L57.3 54.5 57.0 54.7 56.85 54.95 55.1 54.85 Q55.0 53.9 55.65 53.05" fill="#000d0f" fill-rule="evenodd" stroke="none"/>
      <path d="M27.65 68.3 Q26.95 68.7 26.2 69.25 L26.2 69.3 Q23.2 71.85 23.0 75.05 20.3 75.05 20.45 76.5 L21.6 78.25 Q22.65 79.8 22.7 80.5 22.85 81.85 21.65 82.95 20.6 83.85 18.95 84.2 16.6 81.0 16.25 77.7 L16.2 76.55 16.45 76.55 16.25 76.1 Q16.35 74.55 17.3 73.05 18.85 70.25 22.9 67.8 27.1 65.25 30.1 64.5 30.7 64.85 30.75 65.45 30.9 66.8 26.7 68.25 L27.65 68.3 M46.05 86.1 Q48.25 85.45 49.5 84.1 L50.4 82.7 Q51.8 83.6 53.05 84.9 54.55 86.45 54.65 87.4 54.85 89.1 52.9 89.0 51.3 88.9 46.05 86.1 M50.15 80.9 L50.2 80.55 51.7 80.6 53.25 81.0 54.95 81.25 55.05 82.05 54.4 82.5 Q54.15 82.7 53.9 82.7 52.95 82.65 50.15 80.9 M35.95 84.9 Q37.95 85.8 38.9 86.45 39.85 87.15 39.95 88.0 L39.9 88.85 Q39.6 89.3 38.45 89.25 35.65 89.1 34.6 87.7 34.1 86.95 33.15 84.05 L33.0 83.75 33.05 83.5 33.05 83.45 Q33.6 83.55 34.4 84.05 L35.95 84.9" fill="#000d0f" fill-rule="evenodd" stroke="none"/>
      <path d="M27.65 68.3 L34.55 68.75 Q42.1 69.7 42.4 72.05 42.55 73.4 39.9 73.25 L34.6 72.75 Q31.0 72.55 29.35 72.8 27.25 73.15 27.35 74.25 27.55 75.75 31.45 76.65 L40.9 78.55 Q42.3 78.9 45.55 80.3 48.75 81.6 49.9 82.35 L50.4 82.7 49.5 84.1 Q48.25 85.45 46.05 86.1 L45.55 85.75 34.75 79.7 Q26.65 75.2 23.75 75.05 L23.0 75.05 Q23.2 71.85 26.2 69.3 L26.2 69.25 Q26.95 68.7 27.65 68.3" fill="#001215" fill-rule="evenodd" stroke="none"/>
      <path d="M12.5 71.4 L10.9 71.75 7.8 72.15 Q4.5 71.95 4.3 70.3 4.1 68.25 6.75 67.3 8.4 66.7 10.1 66.7 L10.5 66.7 13.15 66.5 16.1 66.25 16.05 65.8 15.35 65.1 Q15.3 64.45 20.85 64.05 L23.55 63.8 Q17.7 65.7 14.05 69.55 L12.5 71.4 M10.9 82.8 Q9.2 81.5 8.9 79.4 8.65 77.3 9.4 76.65 L10.35 75.75 Q9.9 77.55 10.1 79.45 10.3 81.1 10.9 82.8" fill="#000607" fill-rule="evenodd" stroke="none"/>
      <path d="M23.55 63.8 L27.35 63.7 Q29.15 63.8 30.05 64.45 L30.1 64.5 Q27.1 65.25 22.9 67.8 18.85 70.25 17.3 73.05 16.35 74.55 16.25 76.1 L16.45 76.55 16.2 76.55 16.25 77.7 Q16.6 81.0 18.95 84.2 L15.55 84.4 Q12.75 84.25 10.95 82.85 L10.9 82.8 Q10.3 81.1 10.1 79.45 9.9 77.55 10.35 75.75 L11.0 75.2 Q11.9 74.5 13.45 73.65 14.85 72.85 14.8 72.25 L14.6 71.65 13.25 71.3 12.5 71.4 14.05 69.55 Q17.7 65.7 23.55 63.8" fill="#000304" fill-rule="evenodd" stroke="none"/>
      <path d="M87.15 64.3 L84.0 68.65 Q77.85 69.05 71.1 64.9 L70.35 58.45 Q78.75 63.9 87.15 64.3" fill="#4c5b62" fill-rule="evenodd" stroke="none"/>
      <path d="M87.15 64.3 Q78.75 63.9 70.35 58.45 M71.1 64.9 Q77.85 69.05 84.0 68.65" fill="none" stroke="#000000" stroke-linecap="round" stroke-linejoin="round" stroke-opacity="0.3019608" stroke-width="0.5"/>
    </g>
    <linearGradient gradientTransform="matrix(0.0029, 0.0111, -0.0095, 7.0E-4, 79.0, 28.0)" gradientUnits="userSpaceOnUse" id="gradient1" spreadMethod="pad" x1="-819.2" x2="819.2">
      <stop offset="0.0" stop-color="#7a7a5c"/>
      <stop offset="0.9882352941176471" stop-color="#5c5c44"/>
    </linearGradient>
    <linearGradient gradientTransform="matrix(-0.0376, -0.0166, 0.0139, -0.036, 37.4, 47.65)" gradientUnits="userSpaceOnUse" id="gradient2" spreadMethod="pad" x1="-819.2" x2="819.2">
      <stop offset="0.0" stop-color="#868664"/>
      <stop offset="0.9882352941176471" stop-color="#999972"/>
    </linearGradient>
    <linearGradient gradientTransform="matrix(0.0104, 0.003, -0.0045, 0.0241, 54.7, 68.2)" gradientUnits="userSpaceOnUse" id="gradient3" spreadMethod="pad" x1="-819.2" x2="819.2">
      <stop offset="0.0" stop-color="#7a7a5c"/>
      <stop offset="0.9882352941176471" stop-color="#5c5c44"/>
    </linearGradient>
    <linearGradient gradientTransform="matrix(1.0061, 0.0545, 0.1034, 0.9173, -49.55, -33.05)" gradientUnits="userSpaceOnUse" id="gradient4" spreadMethod="pad" x1="-819.2" x2="819.2">
      <stop offset="0.0" stop-color="#906a00"/>
      <stop offset="0.9882352941176471" stop-color="#997d35"/>
    </linearGradient>
    <g id="shape5" transform="matrix(1.0, 0.0, 0.0, 1.0, -8.7, -6.05)">
      <path d="M21.7 7.0 L19.6 8.6 Q16.55 8.75 14.25 9.35 12.7 9.8 12.1 10.3 L11.55 9.65 11.55 9.5 Q11.7 8.5 14.25 7.8 17.05 7.0 21.2 7.0 L21.7 7.0 M33.05 10.1 L32.9 11.4 32.9 11.45 Q33.95 13.4 33.45 15.35 33.05 16.75 31.9 18.15 L31.85 18.25 31.75 19.35 Q31.5 20.5 28.35 21.25 L26.7 20.4 28.4 20.1 Q31.45 19.35 31.85 18.25 31.45 19.35 28.4 20.1 L26.7 20.4 Q22.05 17.85 19.05 14.45 L17.8 13.0 21.05 13.15 Q25.75 13.25 29.25 12.3 32.55 11.35 33.05 10.1 M9.7 10.3 L9.7 9.85 9.9 10.35 9.7 10.3 M32.9 11.45 Q32.55 12.8 29.1 13.7 L20.95 14.55 19.05 14.45 20.95 14.55 29.1 13.7 Q32.55 12.8 32.9 11.45" fill="#00171a" fill-rule="evenodd" stroke="none"/>
      <path d="M30.35 10.45 L30.95 9.8 30.95 9.55 Q30.85 8.55 28.2 7.85 25.55 7.05 21.7 7.0 L21.2 7.0 Q17.05 7.0 14.25 7.8 11.7 8.5 11.55 9.5 L11.55 9.65 12.1 10.3 Q12.75 10.85 14.35 11.35 L17.0 11.85 21.05 12.15 27.85 11.45 Q29.55 11.05 30.35 10.45 M9.7 9.85 L9.65 9.65 Q9.75 8.35 12.8 7.4 16.25 6.25 21.25 6.3 L24.1 6.4 Q27.35 6.55 29.8 7.4 32.95 8.4 33.05 9.75 L33.05 10.1 Q32.55 11.35 29.25 12.3 25.75 13.25 21.05 13.15 L17.8 13.0 14.95 12.55 13.05 12.1 Q10.55 11.3 9.9 10.35 L9.7 9.85" fill="#001e24" fill-rule="evenodd" stroke="none"/>
      <path d="M28.35 21.25 L28.25 21.25 23.25 21.9 22.6 20.7 Q20.45 16.9 17.4 14.35 L19.05 14.45 Q22.05 17.85 26.7 20.4 L28.35 21.25 M17.8 13.0 L19.05 14.45 17.4 14.35 14.95 12.55 17.8 13.0 M22.6 20.7 L26.7 20.4 22.6 20.7" fill="#000608" fill-rule="evenodd" stroke="none"/>
      <path d="M21.7 7.0 Q25.55 7.05 28.2 7.85 30.85 8.55 30.95 9.55 L30.95 9.8 30.35 10.45 Q29.7 9.95 28.1 9.45 25.2 8.65 21.15 8.6 L19.6 8.6 21.7 7.0 M23.25 21.9 L20.75 21.9 18.3 21.75 13.45 20.8 Q10.65 20.0 10.4 18.9 L10.3 17.95 10.3 17.85 10.3 17.8 10.25 17.75 10.25 17.7 10.25 17.65 Q8.95 15.9 8.95 14.15 L9.05 13.7 Q9.1 12.5 9.8 11.35 L9.75 11.3 9.7 10.3 9.9 10.35 Q10.55 11.3 13.05 12.1 L14.95 12.55 17.4 14.35 Q20.45 16.9 22.6 20.7 L20.75 20.7 Q16.45 20.6 13.4 19.7 10.65 18.85 10.3 17.8 L10.25 17.7 10.3 17.8 Q10.65 18.85 13.4 19.7 16.45 20.6 20.75 20.7 L22.6 20.7 23.25 21.9 M9.8 11.35 Q10.2 12.55 13.1 13.45 L17.4 14.35 13.1 13.45 Q10.2 12.55 9.8 11.35" fill="#000b0d" fill-rule="evenodd" stroke="none"/>
      <path d="M19.6 8.6 L21.15 8.6 Q25.2 8.65 28.1 9.45 29.7 9.95 30.35 10.45 29.55 11.05 27.85 11.45 L21.05 12.15 17.0 11.85 14.35 11.35 Q12.75 10.85 12.1 10.3 12.7 9.8 14.25 9.35 16.55 8.75 19.6 8.6" fill="#000000" fill-rule="evenodd" stroke="none"/>
      <path d="M33.05 10.1 L32.9 11.4 32.9 11.45 Q33.95 13.4 33.45 15.35 33.05 16.75 31.9 18.15 L31.85 18.25 31.75 19.35 Q31.5 20.5 28.35 21.25 L28.25 21.25 23.25 21.9 20.75 21.9 18.3 21.75 13.45 20.8 Q10.65 20.0 10.4 18.9 L10.3 17.95 10.3 17.85 10.3 17.8 10.25 17.75 10.25 17.65 Q8.95 15.9 8.95 14.15 L9.05 13.7 Q9.1 12.5 9.8 11.35 L9.75 11.3 9.7 10.3 9.7 9.85 9.65 9.65 Q9.75 8.35 12.8 7.4 16.25 6.25 21.25 6.3 L24.1 6.4 Q27.35 6.55 29.8 7.4 32.95 8.4 33.05 9.75 L33.05 10.1 M19.05 14.45 L20.95 14.55 29.1 13.7 Q32.55 12.8 32.9 11.45 M31.85 18.25 Q31.45 19.35 28.4 20.1 L26.7 20.4 22.6 20.7 M9.9 10.35 L9.7 9.85 M10.25 17.7 L10.3 17.8 Q10.65 18.85 13.4 19.7 16.45 20.6 20.75 20.7 L22.6 20.7 M17.4 14.35 L13.1 13.45 Q10.2 12.55 9.8 11.35 M10.25 17.65 L10.25 17.7 10.25 17.75 M17.4 14.35 L19.05 14.45" fill="none" stroke="#000000" stroke-linecap="round" stroke-linejoin="round" stroke-opacity="0.3019608" stroke-width="0.5"/>
      <path d="M33.05 10.1 Q32.55 11.35 29.25 12.3 25.75 13.25 21.05 13.15 L17.8 13.0 14.95 12.55 13.05 12.1 Q10.55 11.3 9.9 10.35" fill="none" stroke="#526a7a" stroke-linecap="round" stroke-linejoin="round" stroke-opacity="0.3019608" stroke-width="0.5"/>
      <path d="M20.2 15.2 Q20.9 19.0 25.4 19.95 L16.05 19.55 15.7 18.6 Q15.05 16.65 15.3 14.6 L18.05 15.05 20.2 15.2" fill="#9c8c4a" fill-rule="evenodd" stroke="none"/>
      <path d="M25.4 16.1 L23.6 16.25 23.65 15.05 23.6 16.25 25.4 16.1 25.65 19.95 25.4 19.95 Q20.9 19.0 20.2 15.2 L23.65 15.05 25.4 16.1" fill="#ab9a51" fill-rule="evenodd" stroke="none"/>
      <path d="M23.65 15.05 L23.6 16.25 25.4 16.1 23.65 15.05 20.2 15.2 M25.4 19.95 L25.65 19.95 25.4 16.1 M25.4 19.95 L16.05 19.55 15.7 18.6 Q15.05 16.65 15.3 14.6 L18.05 15.05 20.2 15.2" fill="none" stroke="#000000" stroke-linecap="round" stroke-linejoin="round" stroke-opacity="0.3019608" stroke-width="0.5"/>
    </g>
    <g id="sprite3" transform="matrix(1.0, 0.0, 0.0, 1.0, 0.0, 16.7)">
      <use height="106.5" transform="matrix(1.0, 0.0, 0.0, 1.0, 0.0, -16.7)" width="91.7" xlink:href="#shape6"/>
    </g>
    <g id="shape6" transform="matrix(1.0, 0.0, 0.0, 1.0, 0.0, 16.7)">
      <path d="M86.2 23.95 Q92.0 37.3 91.6 52.45 L91.6 52.5 91.65 52.45 91.65 52.5 91.7 52.5 91.7 52.55 91.05 60.75 88.75 63.7 88.6 63.75 Q84.95 67.25 80.2 66.55 L80.1 66.55 75.85 64.9 Q69.95 71.75 67.7 81.85 L67.7 81.9 66.55 82.4 63.2 84.05 Q62.95 84.2 62.65 84.3 L60.65 85.05 60.6 85.05 Q57.45 86.15 53.5 87.15 L52.45 87.35 51.9 87.5 51.65 87.5 51.35 87.6 45.2 88.8 44.5 88.9 44.15 88.95 43.6 89.05 39.1 89.7 38.35 89.8 30.4 89.35 Q12.45 85.2 2.9 79.15 L0.55 73.1 0.45 73.0 0.1 68.65 1.5 67.55 1.5 67.5 0.0 62.85 Q-0.35 55.65 5.2 51.45 L5.55 51.2 Q8.4 49.15 12.7 47.85 18.0 45.6 25.9 46.4 L27.95 46.65 29.3 46.8 35.45 43.65 35.5 43.6 Q35.2 42.15 35.35 41.05 35.8 38.05 39.85 37.7 L34.95 24.4 33.55 19.55 Q28.45 18.25 26.6 15.95 L23.4 7.05 25.3 -6.35 70.0 -16.7 82.25 -6.8 81.05 8.15 85.35 22.1 86.2 23.95 M22.9 66.0 L23.0 66.05 23.0 66.0 22.9 66.0 M33.35 49.9 L33.0 49.9 33.35 49.95 33.35 49.9" fill="#2b2b2b" fill-opacity="0.3019608" fill-rule="evenodd" stroke="none"/>
    </g>
    <g id="sprite4" transform="matrix(1.0, 0.0, 0.0, 1.0, 0.0, 0.0)">
      <use height="53.1" transform="matrix(1.0, 0.0, 0.0, 1.0, 0.0, 0.0)" width="83.7" xlink:href="#shape7"/>
    </g>
    <g id="shape7" transform="matrix(1.0, 0.0, 0.0, 1.0, 0.0, 0.0)">
      <path d="M0.15 25.1 Q0.5 21.2 2.8 17.25 L2.7 17.1 2.25 11.4 Q2.6 6.95 13.05 3.7 24.65 -0.1 41.65 0.0 L51.5 0.35 Q62.35 1.0 70.7 3.8 81.55 7.2 81.95 11.75 L81.25 17.3 81.3 17.55 Q84.8 24.1 83.15 30.95 81.8 35.65 77.95 40.4 L77.75 40.7 77.3 44.35 Q76.55 48.3 65.9 50.85 L65.55 50.95 Q57.9 52.65 48.45 53.05 L40.0 53.05 31.65 52.45 Q22.4 51.6 15.2 49.5 5.6 46.6 4.8 42.95 L4.5 39.7 4.4 39.3 4.45 39.15 4.45 39.05 4.4 38.9 4.4 38.8 4.3 38.55 Q-0.1 32.8 0.0 26.65 0.0 25.85 0.15 25.1" fill="#212121" fill-opacity="0.3019608" fill-rule="evenodd" stroke="none"/>
    </g>
    <g id="shape8" transform="matrix(1.0, 0.0, 0.0, 1.0, -14.35, -5.85)">
      <path d="M28.3 32.4 L28.3 32.35 28.4 32.35 28.3 32.4" fill="#e0e0a7" fill-rule="evenodd" stroke="none"/>
      <path d="M41.2 36.15 L41.25 36.15 41.2 36.15 M27.6 45.85 L27.75 45.8 Q30.5 45.3 33.0 44.0 L33.45 43.05 33.05 43.95 33.05 44.0 Q30.5 45.3 27.8 45.8 L27.6 45.85" fill="#b83414" fill-rule="evenodd" stroke="none"/>
      <path d="M19.7 39.15 L19.75 39.3 19.65 39.3 19.7 39.15" fill="#ffd007" fill-rule="evenodd" stroke="none"/>
      <path d="M15.45 43.55 L15.4 43.5 15.45 43.5 15.45 43.55 M25.3 46.1 L26.1 46.05 27.6 45.85 27.2 45.95 26.95 45.95 26.2 46.05 26.1 46.05 26.05 46.1 26.0 46.1 25.65 46.1 25.3 46.1" fill="#85250e" fill-rule="evenodd" stroke="none"/>
      <path d="M16.25 43.95 L15.5 43.6 16.25 43.95 M15.45 43.5 L15.45 43.45 15.5 43.6 15.5 43.55 15.45 43.55 15.45 43.5" fill="#946d00" fill-rule="evenodd" stroke="none"/>
      <path d="M39.25 36.35 L39.3 36.35 39.25 36.35" fill="#f0431a" fill-rule="evenodd" stroke="none"/>
      <path d="M20.25 45.6 L20.25 45.55 20.4 45.6 20.25 45.6 M15.5 43.6 L15.45 43.55 15.5 43.55 15.5 43.6" fill="#541709" fill-rule="evenodd" stroke="none"/>
      <path d="M40.65 22.6 L40.7 22.65 40.55 22.65 40.65 22.6" fill="#4cbcdb" fill-rule="evenodd" stroke="none"/>
      <path d="M37.95 22.95 L37.9 22.9 37.95 22.9 37.95 22.85 37.95 22.95 M38.85 36.6 L38.9 36.5 38.95 36.5 38.85 36.6" fill="#8ed4e5" fill-rule="evenodd" stroke="none"/>
      <path d="M32.55 26.8 L32.65 26.9 32.55 26.8 M25.15 35.05 L24.5 35.05 24.5 34.95 25.15 35.05 M15.45 43.45 L15.4 43.3 15.5 43.35 15.45 43.45" fill="#3885a1" fill-rule="evenodd" stroke="none"/>
      <path d="M26.4 27.6 L26.35 27.5 26.45 27.6 26.4 27.6" fill="#429ebf" fill-rule="evenodd" stroke="none"/>
      <path d="M42.1 35.6 L42.15 35.6 41.65 38.25 40.85 39.25 40.8 39.3 Q39.65 40.45 38.25 40.3 L38.25 38.6 37.05 39.85 Q35.1 42.2 34.05 45.5 L33.7 45.7 32.7 46.25 32.5 46.35 31.9 46.65 31.85 46.65 29.7 47.45 29.4 47.5 29.25 47.6 29.15 47.6 29.1 47.65 27.25 48.15 27.05 48.15 26.9 48.2 Q25.25 47.85 23.9 46.8 L27.9 46.4 27.95 46.4 28.05 46.4 28.1 46.4 33.2 44.5 Q34.3 41.9 36.15 39.3 L36.25 39.2 37.55 38.2 Q37.75 38.05 38.0 38.0 L38.4 37.95 38.45 37.95 38.9 38.2 Q39.15 38.4 39.35 38.4 L39.4 38.4 40.0 38.2 40.65 37.45 41.25 36.2 41.2 36.15 41.4 35.95 42.1 35.55 42.1 35.6 M41.2 36.15 L41.25 36.15 41.2 36.15" fill="#ffa004" fill-rule="evenodd" stroke="none"/>
      <path d="M42.1 35.55 L42.1 35.6 42.1 35.55 M14.65 43.85 L14.6 43.8 14.65 42.4 15.1 42.05 15.4 43.3 15.45 43.45 15.45 43.5 15.4 43.5 15.45 43.55 15.5 43.6 16.25 43.95 16.35 44.05 20.25 45.55 20.25 45.6 18.35 45.6 Q16.3 44.9 14.75 43.9 L14.65 43.85" fill="#ec8e02" fill-rule="evenodd" stroke="none"/>
      <path d="M38.25 40.3 L37.05 39.85 38.25 38.6 38.25 40.3" fill="#985b01" fill-rule="evenodd" stroke="none"/>
      <path d="M37.95 22.9 L37.9 22.85 37.95 22.85 37.95 22.9 M25.95 24.25 L25.8 24.35 25.4 23.95 25.95 24.25 M30.85 26.5 L30.9 26.55 30.65 26.55 30.85 26.5" fill="url(#gradient5)" fill-rule="evenodd" stroke="none"/>
      <path d="M28.4 32.35 L28.3 32.4 28.4 32.35" fill="url(#gradient6)" fill-rule="evenodd" stroke="none"/>
      <path d="M21.9 40.3 L21.95 40.3 21.9 40.3" fill="url(#gradient7)" fill-rule="evenodd" stroke="none"/>
      <path d="M22.95 34.8 L23.55 34.8 23.95 34.85 24.5 34.95 24.5 35.05 Q23.55 35.25 21.9 36.35 20.65 37.2 20.1 38.15 19.75 38.65 19.7 39.15 L19.65 39.3 19.6 39.65 Q19.6 42.05 22.55 44.0 24.9 45.55 27.6 45.85 L26.1 46.05 25.3 46.1 24.8 46.15 24.45 46.15 24.35 46.15 24.3 46.15 24.2 46.15 24.1 46.15 23.95 46.15 22.7 46.15 20.75 45.7 20.4 45.6 20.25 45.55 16.35 44.05 16.25 43.95 15.5 43.6 15.45 43.45 15.5 43.35 Q18.55 44.8 18.0 41.75 L17.8 40.35 Q17.8 38.65 19.25 37.05 20.7 35.5 22.95 34.8 M26.35 27.5 L26.1 26.0 Q29.15 26.65 32.45 26.1 L30.85 26.5 30.65 26.55 30.9 26.55 32.55 26.8 32.65 26.9 Q30.8 28.15 29.1 28.15 27.6 28.15 26.45 27.6 L26.35 27.5" fill="#3a484e" fill-rule="evenodd" stroke="none"/>
      <path d="M39.45 14.95 L41.3 16.6 40.45 21.45 40.65 22.6 40.55 22.65 40.45 22.6 39.6 22.45 39.0 22.55 39.25 23.8 39.3 24.1 39.3 24.15 39.35 24.3 39.5 25.2 39.85 27.45 Q40.45 31.95 40.15 34.7 L40.15 34.85 40.1 35.25 39.9 36.2 39.8 36.6 39.55 37.3 39.3 36.35 39.6 35.0 Q39.95 32.3 39.3 27.45 L38.95 25.25 38.75 24.25 38.7 23.9 38.5 22.65 38.45 22.6 39.45 14.95 M15.1 42.05 L15.1 42.0 14.8 40.55 Q15.0 37.0 19.05 35.5 20.65 34.65 22.95 34.8 20.7 35.5 19.25 37.05 17.8 38.65 17.8 40.35 L18.0 41.75 Q18.55 44.8 15.5 43.35 L15.4 43.3 15.1 42.05 M23.95 34.85 L25.85 33.7 Q25.8 33.25 25.9 32.9 26.15 31.9 27.35 31.7 L26.4 27.6 26.45 27.6 Q27.6 28.15 29.1 28.15 30.8 28.15 32.65 26.9 33.75 28.05 33.25 30.75 32.8 33.45 30.15 33.0 L28.4 32.35 28.3 32.35 28.3 32.4 29.55 33.6 30.8 34.8 28.8 34.35 28.7 34.3 27.85 34.3 27.25 34.3 Q29.6 35.05 31.0 37.8 L31.7 39.4 32.05 40.5 31.6 39.65 31.45 39.45 Q29.7 36.8 26.25 35.4 L25.75 35.2 25.15 35.05 24.5 34.95 23.95 34.85 M26.1 26.0 Q24.65 25.65 24.2 24.95 L23.5 22.15 24.5 17.8 38.0 13.65 39.0 14.55 37.95 22.85 37.9 22.85 36.1 23.95 34.55 25.1 34.35 25.2 33.75 25.45 32.9 25.45 30.55 25.45 27.25 24.75 25.95 24.25 25.4 23.95 25.8 24.35 Q27.65 25.95 32.45 26.1 29.15 26.65 26.1 26.0 M27.35 33.6 L25.85 33.7 27.35 33.6 M30.65 32.1 Q29.4 31.35 27.35 31.7 29.4 31.35 30.65 32.1" fill="#51626b" fill-rule="evenodd" stroke="none"/>
      <path d="M40.7 22.65 L41.25 25.9 41.45 26.5 Q42.7 30.65 42.1 35.55 L41.4 35.95 41.2 36.15 39.6 37.45 39.55 37.3 39.8 36.6 39.9 36.2 40.1 35.25 40.15 34.85 40.15 34.7 41.3 33.2 Q41.9 31.85 41.6 29.65 41.35 27.45 40.65 25.85 40.1 24.55 39.35 24.3 L39.3 24.15 39.3 24.1 39.25 23.8 39.0 22.55 39.6 22.45 40.45 22.6 40.55 22.65 40.7 22.65 M37.95 22.9 L37.9 22.9 37.95 22.95 38.15 24.2 38.2 24.5 Q37.7 24.85 37.25 25.85 36.55 27.45 36.25 30.15 35.95 32.85 36.8 34.25 37.65 35.65 38.5 35.4 L39.05 35.25 39.05 35.65 38.9 36.5 38.85 36.6 Q36.6 37.95 34.9 40.55 L34.85 40.65 33.45 43.05 33.0 44.0 Q30.5 45.3 27.75 45.8 L27.6 45.85 Q24.9 45.55 22.55 44.0 19.6 42.05 19.6 39.65 L19.65 39.3 19.75 39.3 19.7 39.15 Q19.75 38.65 20.1 38.15 20.65 37.2 21.9 36.35 23.55 35.25 24.5 35.05 L25.15 35.05 25.75 35.2 26.25 35.4 Q29.7 36.8 31.45 39.45 L31.6 39.65 32.05 40.5 31.7 39.4 31.0 37.8 Q29.6 35.05 27.25 34.3 L27.85 34.3 28.7 34.3 28.8 34.35 30.8 34.8 29.55 33.6 28.3 32.4 28.4 32.35 30.15 33.0 Q32.8 33.45 33.25 30.75 33.75 28.05 32.65 26.9 L32.55 26.8 30.9 26.55 30.85 26.5 32.45 26.1 Q27.65 25.95 25.8 24.35 L25.95 24.25 27.25 24.75 30.55 25.45 32.9 25.45 33.75 25.45 34.35 25.2 34.55 25.1 36.1 23.95 37.9 22.85 37.95 22.9 M22.85 36.75 Q21.65 37.8 21.65 39.1 21.65 39.9 21.9 40.3 22.0 40.85 23.45 41.4 L26.5 42.05 27.35 42.0 27.75 41.9 Q28.7 41.75 29.2 41.1 29.7 40.55 29.7 39.8 L29.7 39.75 Q29.7 38.0 27.75 36.9 25.9 35.9 25.05 35.8 L24.95 35.8 24.9 35.8 Q24.35 35.8 23.7 36.2 L23.65 36.2 23.3 36.4 22.85 36.75" fill="#77909c" fill-rule="evenodd" stroke="none"/>
      <path d="M39.0 14.55 L39.45 14.95 38.45 22.6 38.5 22.65 38.7 23.9 38.75 24.25 38.95 25.25 39.3 27.45 Q39.95 32.3 39.6 35.0 L39.3 36.35 39.25 36.35 38.95 36.5 38.9 36.5 39.05 35.65 39.05 35.25 38.5 35.4 Q37.65 35.65 36.8 34.25 35.95 32.85 36.25 30.15 36.55 27.45 37.25 25.85 37.7 24.85 38.2 24.5 L38.15 24.2 37.95 22.95 37.95 22.85 39.0 14.55 M40.15 34.7 Q40.45 31.95 39.85 27.45 L39.5 25.2 39.35 24.3 Q40.1 24.55 40.65 25.85 41.35 27.45 41.6 29.65 41.9 31.85 41.3 33.2 L40.15 34.7 M22.85 36.75 L23.3 36.4 23.65 36.2 23.7 36.2 Q24.35 35.8 24.9 35.8 L24.95 35.8 25.05 35.8 Q25.9 35.9 27.75 36.9 29.7 38.0 29.7 39.75 L29.7 39.8 Q29.7 40.55 29.2 41.1 28.7 41.75 27.75 41.9 L27.35 42.0 26.5 42.05 23.45 41.4 Q22.0 40.85 21.9 40.3 21.65 39.9 21.65 39.1 21.65 37.8 22.85 36.75 M21.9 40.3 L21.95 40.3 21.9 40.3" fill="#8da7b5" fill-rule="evenodd" stroke="none"/>
      <path d="M39.3 36.35 L39.55 37.3 39.6 37.45 41.2 36.15 41.25 36.2 40.65 37.45 40.0 38.2 39.4 38.4 39.35 38.4 Q39.15 38.4 38.9 38.2 L38.45 37.95 38.4 37.95 38.0 38.0 Q37.75 38.05 37.55 38.2 L36.25 39.2 36.15 39.3 Q34.3 41.9 33.2 44.5 L28.1 46.4 28.05 46.4 27.95 46.4 27.9 46.4 23.9 46.8 23.65 46.8 22.0 46.7 21.25 46.55 18.35 45.6 20.25 45.6 20.4 45.6 20.75 45.7 22.7 46.15 23.95 46.15 24.1 46.15 24.2 46.15 24.3 46.15 24.35 46.15 24.45 46.15 24.8 46.15 25.3 46.1 25.65 46.1 26.0 46.1 26.05 46.1 26.1 46.05 26.2 46.05 26.95 45.95 27.2 45.95 27.6 45.85 27.8 45.8 Q30.5 45.3 33.05 44.0 L33.05 43.95 33.45 43.05 34.85 40.65 34.9 40.55 Q36.6 37.95 38.85 36.6 L38.95 36.5 39.25 36.35 39.3 36.35" fill="#ffca05" fill-rule="evenodd" stroke="none"/>
      <path d="M26.9 48.2 L26.75 48.2 25.4 48.55 25.2 48.55 22.85 48.55 Q17.7 47.5 15.1 45.75 L14.65 43.85 14.75 43.9 Q16.3 44.9 18.35 45.6 L21.25 46.55 22.0 46.7 23.65 46.8 23.9 46.8 Q25.25 47.85 26.9 48.2" fill="#d17404" fill-rule="evenodd" stroke="none"/>
      <path d="M39.45 14.95 L41.3 16.6 40.45 21.45 40.65 22.6 40.7 22.65 41.25 25.9 41.45 26.5 Q42.7 30.65 42.1 35.55 M42.15 35.6 L41.65 38.25 40.85 39.25 40.8 39.3 Q39.65 40.45 38.25 40.3 L37.05 39.85 Q35.1 42.2 34.05 45.5 L33.7 45.7 32.7 46.25 32.5 46.35 31.9 46.65 29.75 47.45 29.4 47.5 29.25 47.6 29.15 47.6 29.1 47.65 27.25 48.15 27.05 48.15 26.9 48.2 26.75 48.2 25.4 48.55 25.2 48.55 22.85 48.55 Q17.7 47.5 15.1 45.75 L14.65 43.85 14.6 43.8 14.65 42.4 15.1 42.05 M15.1 42.0 L14.8 40.55 Q15.0 37.0 19.05 35.5 20.65 34.65 22.95 34.8 L23.55 34.8 23.95 34.85 25.85 33.7 Q25.8 33.25 25.9 32.9 26.15 31.9 27.35 31.7 L26.4 27.6 26.35 27.5 26.1 26.0 Q24.65 25.65 24.2 24.95 L23.5 22.15 24.5 17.8 38.0 13.65 39.0 14.55 39.45 14.95 M32.05 40.5 L31.6 39.65 31.45 39.45 Q29.7 36.8 26.25 35.4 L25.75 35.2 25.15 35.05" fill="none" stroke="#000000" stroke-linecap="round" stroke-linejoin="round" stroke-opacity="0.3019608" stroke-width="0.5"/>
      <path d="M15.1 42.05 L15.1 42.0 M39.45 14.95 L38.45 22.6 38.5 22.65 38.7 23.9 38.75 24.25 38.95 25.25 39.3 27.45 Q39.95 32.3 39.6 35.0 L39.3 36.35 M42.1 35.55 L41.4 35.95 41.2 36.15 M33.0 44.0 L33.45 43.05 34.85 40.65 34.9 40.55 Q36.6 37.95 38.85 36.6 M20.25 45.55 L16.35 44.05 16.25 43.95 M15.45 43.45 L15.4 43.3 15.1 42.05 M38.95 36.5 L39.25 36.35 39.3 36.35 M38.95 36.5 L38.85 36.6 M39.6 37.45 L41.2 36.15 M25.85 33.7 L27.35 33.6 M24.5 34.95 L25.15 35.05 M23.95 34.85 L24.5 34.95 M15.45 43.45 L15.5 43.6 16.25 43.95 M20.4 45.6 L20.75 45.7 22.7 46.15 23.95 46.15 24.1 46.15 24.2 46.15 24.3 46.15 24.35 46.15 24.45 46.15 24.8 46.15 25.3 46.1 25.65 46.1 26.0 46.1 26.05 46.1 M27.6 45.85 L27.2 45.95 26.95 45.95 26.2 46.05 M15.45 43.5 L15.45 43.55 M20.25 45.55 L20.4 45.6 M27.6 45.85 L27.8 45.8 Q30.5 45.3 33.05 44.0 L33.05 43.95 33.45 43.05 M27.35 31.7 Q29.4 31.35 30.65 32.1 M26.1 26.0 Q29.15 26.65 32.45 26.1" fill="none" stroke="#000000" stroke-linecap="round" stroke-linejoin="round" stroke-opacity="0.15294118" stroke-width="0.5"/>
      <path d="M40.8 25.95 L40.7 26.25 40.0 26.65 39.25 26.5 39.1 26.5 38.9 26.45 37.35 25.7 Q36.1 24.9 35.65 24.8 L35.1 24.75 34.95 24.95 35.3 25.25 35.65 25.75 35.5 26.25 35.1 26.15 34.7 26.1 34.35 26.15 34.25 26.8 34.75 30.3 35.2 33.55 35.15 34.2 Q35.0 34.5 34.6 34.5 33.9 34.5 33.7 34.1 33.45 33.65 33.55 32.4 L33.35 30.75 33.15 29.05 33.3 27.75 33.25 27.1 Q33.1 26.75 32.55 26.75 L30.75 27.0 30.2 26.9 30.0 26.45 Q30.0 25.75 30.95 25.0 L32.15 24.05 32.05 23.95 32.0 23.9 30.7 23.65 Q30.35 23.5 30.35 23.2 30.35 22.85 30.95 22.5 31.6 22.1 32.55 22.1 L33.05 22.15 35.9 21.75 36.25 22.35 36.55 22.95 36.0 23.35 Q35.45 23.55 35.9 24.35 36.35 25.2 38.35 25.15 L38.4 25.15 38.5 25.15 38.75 25.15 40.3 24.75 Q41.05 24.6 40.8 25.95 M30.75 30.85 Q30.45 30.85 30.45 30.55 30.45 29.9 31.15 29.5 31.85 29.15 31.85 29.8 31.4 30.85 30.75 30.85 M32.5 31.45 L32.4 31.55 32.35 31.6 31.85 31.6 32.05 31.0 32.15 31.05 32.3 31.0 32.5 31.1 32.5 31.45" fill="#00171a" fill-rule="evenodd" stroke="none"/>
      <path d="M23.55 22.1 L24.55 17.75 38.05 13.65 41.3 16.6 40.45 21.45 40.9 23.9 40.0 24.35 39.9 24.4 Q37.8 25.3 35.05 25.85 L32.6 26.2 30.15 26.35 26.15 26.25 26.1 26.0 Q24.65 25.65 24.2 24.95 L23.55 22.1" fill="#000000" fill-opacity="0.3019608" fill-rule="evenodd" stroke="none"/>
      <path d="M29.5 40.1 L29.55 40.0 30.0 40.0 30.45 40.1 30.9 40.1 30.9 40.4 30.7 40.55 30.6 40.6 29.5 40.1 M23.35 36.45 L22.85 36.75 22.85 36.8 Q21.9 37.65 21.7 38.7 20.95 38.75 20.95 39.2 L21.2 39.75 21.45 40.45 Q21.45 40.9 21.05 41.25 L20.25 41.7 Q19.65 40.75 19.65 39.65 L19.7 39.3 19.75 39.3 19.7 39.15 20.1 38.15 Q20.7 37.2 21.95 36.35 23.25 35.45 24.15 35.15 L24.35 35.45 Q24.35 35.9 23.05 36.4 L23.35 36.45 M28.15 41.85 L29.2 41.15 29.55 40.65 30.25 41.35 30.6 42.1 Q30.6 42.65 30.05 42.65 29.6 42.65 28.15 41.85 M25.2 41.65 L26.0 42.1 26.3 42.55 26.25 42.85 25.8 43.0 Q25.0 43.0 24.7 42.55 L24.4 41.4 24.4 41.3 24.4 41.25 24.8 41.4 25.2 41.65" fill="#00171a" fill-rule="evenodd" stroke="none"/>
      <path d="M23.35 36.45 L25.35 36.45 Q27.55 36.65 27.55 37.4 27.55 37.8 26.75 37.8 L25.2 37.75 23.65 37.85 Q23.05 38.0 23.05 38.35 23.05 38.85 24.15 39.05 L26.85 39.5 28.2 40.0 Q29.1 40.35 29.4 40.6 L29.55 40.65 29.2 41.15 28.15 41.85 28.0 41.75 25.05 40.0 Q22.8 38.65 21.95 38.65 L21.7 38.7 Q21.9 37.65 22.85 36.8 L22.85 36.75 23.35 36.45" fill="#001e24" fill-rule="evenodd" stroke="none"/>
      <path d="M18.75 37.7 L18.3 37.85 17.35 38.0 Q16.4 38.0 16.4 37.5 16.4 36.85 17.2 36.5 L18.2 36.2 18.35 36.2 19.1 36.1 20.0 36.0 20.0 35.85 19.8 35.6 Q19.8 35.4 21.45 35.15 L22.25 35.05 Q20.5 35.75 19.3 37.05 L18.75 37.7 M17.9 41.4 Q17.45 41.0 17.45 40.35 17.45 39.65 17.7 39.45 L18.0 39.15 17.8 40.35 17.9 41.4" fill="#000b0d" fill-rule="evenodd" stroke="none"/>
      <path d="M22.25 35.05 L23.4 34.95 24.15 35.15 Q23.25 35.45 21.95 36.35 20.7 37.2 20.1 38.15 L19.7 39.15 19.75 39.3 19.7 39.3 19.65 39.65 Q19.65 40.75 20.25 41.7 L19.2 41.85 Q18.4 41.85 17.95 41.4 L17.9 41.4 17.8 40.35 18.0 39.15 18.2 38.95 18.95 38.4 19.4 37.95 19.35 37.75 19.0 37.65 18.75 37.7 19.3 37.05 Q20.5 35.75 22.25 35.05" fill="#000608" fill-rule="evenodd" stroke="none"/>
      <path d="M21.2 12.3 L20.55 11.6 20.5 11.45 Q20.5 11.05 20.8 10.65 21.3 9.9 22.85 9.15 25.45 7.85 29.5 7.3 L30.05 7.2 28.3 9.3 Q25.3 9.85 23.2 10.9 L22.35 11.35 21.2 12.3 M18.75 12.15 L19.0 12.6 18.85 12.55 18.75 12.15" fill="#00171a" fill-rule="evenodd" stroke="none"/>
      <path d="M36.5 6.2 L38.05 6.45 Q41.4 7.1 41.75 8.55 L41.8 8.95 Q41.5 10.45 38.5 11.95 35.2 13.5 30.5 14.1 L27.35 14.45 24.4 14.35 22.45 14.1 Q19.85 13.6 19.0 12.6 L18.75 12.15 18.65 11.9 Q18.6 10.95 19.7 10.0 L20.65 10.6 20.8 10.65 Q20.5 11.05 20.5 11.45 L20.55 11.6 21.2 12.3 Q21.95 12.8 23.6 13.05 L26.3 13.3 30.35 13.0 Q34.2 12.45 36.9 11.25 38.55 10.5 39.2 9.8 L39.65 8.95 39.65 8.7 Q39.35 7.65 37.0 7.25 L36.5 6.2" fill="#001e24" fill-rule="evenodd" stroke="none"/>
      <path d="M24.4 14.35 L27.35 14.45 28.8 15.85 27.15 15.95 24.4 14.35 M39.25 22.0 L39.2 22.05 Q37.1 22.95 34.35 23.5 L33.5 22.25 Q30.7 18.35 27.15 15.95 L28.8 15.85 Q32.45 19.15 37.45 21.25 L39.25 22.0 M37.45 21.25 L33.5 22.25 37.45 21.25" fill="#000608" fill-rule="evenodd" stroke="none"/>
      <path d="M37.0 7.25 Q39.35 7.65 39.65 8.7 L39.65 8.95 39.2 9.8 Q38.5 9.25 36.75 8.95 33.75 8.45 29.75 9.05 L28.3 9.3 30.05 7.2 Q33.8 6.7 36.6 7.15 L37.0 7.25 M19.0 12.6 Q19.85 13.6 22.45 14.1 L24.4 14.35 27.15 15.95 22.8 15.6 Q19.75 15.05 19.15 13.75 19.75 15.05 22.8 15.6 L27.15 15.95 Q30.7 18.35 33.5 22.25 L34.35 23.5 31.9 23.85 29.45 24.0 24.55 23.75 Q21.6 23.25 21.15 22.05 L20.9 21.0 20.85 20.85 20.85 20.8 20.8 20.75 20.8 20.7 20.85 20.8 Q21.4 21.95 24.25 22.45 27.45 23.0 31.7 22.5 L33.5 22.25 31.7 22.5 Q27.45 23.0 24.25 22.45 21.4 21.95 20.85 20.8 L20.8 20.7 20.75 20.65 Q19.15 18.95 18.85 16.95 L18.8 16.45 Q18.7 15.15 19.15 13.75 L19.1 13.7 18.85 12.55 19.0 12.6" fill="#000b0d" fill-rule="evenodd" stroke="none"/>
      <path d="M39.2 9.8 Q38.55 10.5 36.9 11.25 34.2 12.45 30.35 13.0 L26.3 13.3 23.6 13.05 Q21.95 12.8 21.2 12.3 L22.35 11.35 23.2 10.9 Q25.3 9.85 28.3 9.3 L29.75 9.05 Q33.75 8.45 36.75 8.95 38.5 9.25 39.2 9.8" fill="#000000" fill-rule="evenodd" stroke="none"/>
      <path d="M41.9 10.5 Q43.25 12.45 43.15 14.75 43.05 16.35 42.2 18.1 L42.15 18.15 Q41.9 19.45 39.1 20.7 L37.45 21.25 Q32.45 19.15 28.8 15.85 L30.75 15.65 Q35.35 15.05 38.6 13.55 41.8 12.0 41.9 10.5" fill="url(#gradient8)" fill-rule="evenodd" stroke="none"/>
      <path d="M27.35 14.45 L30.5 14.1 Q35.2 13.5 38.5 11.95 41.5 10.45 41.8 8.95 L41.85 10.4 41.9 10.5 Q41.8 12.0 38.6 13.55 35.35 15.05 30.75 15.65 L28.8 15.85 27.35 14.45" fill="url(#gradient9)" fill-rule="evenodd" stroke="none"/>
      <path d="M42.15 18.15 L42.25 19.4 Q42.25 20.7 39.25 22.0 L37.45 21.25 39.1 20.7 Q41.9 19.45 42.15 18.15" fill="url(#gradient10)" fill-rule="evenodd" stroke="none"/>
      <path d="M36.5 6.2 L37.0 7.25 36.6 7.15 Q33.8 6.7 30.05 7.2 L29.5 7.3 Q25.45 7.85 22.85 9.15 21.3 9.9 20.8 10.65 L20.65 10.6 19.7 10.0 Q20.35 9.45 21.35 8.9 24.5 7.15 29.45 6.45 L32.3 6.15 Q34.55 6.0 36.5 6.2" fill="#002933" fill-rule="evenodd" stroke="none"/>
      <path d="M41.8 8.95 L41.75 8.55 Q41.4 7.1 38.05 6.45 L36.5 6.2 Q34.55 6.0 32.3 6.15 L29.45 6.45 Q24.5 7.15 21.35 8.9 20.35 9.45 19.7 10.0 18.6 10.95 18.65 11.9 L18.75 12.15 19.0 12.6 M41.8 8.95 L41.85 10.4 41.9 10.5 Q43.25 12.45 43.15 14.75 43.05 16.35 42.2 18.1 L42.15 18.15 42.25 19.4 Q42.25 20.7 39.25 22.0 L39.2 22.05 Q37.1 22.95 34.35 23.5 L31.9 23.85 29.45 24.0 24.55 23.75 Q21.6 23.25 21.15 22.05 L20.9 21.0 20.85 20.85 20.85 20.8 20.8 20.75 20.75 20.65 Q19.15 18.95 18.85 16.95 L18.8 16.45 Q18.7 15.15 19.15 13.75 L19.1 13.7 18.85 12.55 18.75 12.15 M28.8 15.85 L30.75 15.65 Q35.35 15.05 38.6 13.55 41.8 12.0 41.9 10.5 M19.15 13.75 Q19.75 15.05 22.8 15.6 L27.15 15.95 M33.5 22.25 L31.7 22.5 Q27.45 23.0 24.25 22.45 21.4 21.95 20.85 20.8 L20.8 20.7 20.8 20.75 M28.8 15.85 L27.15 15.95 M33.5 22.25 L37.45 21.25 M42.15 18.15 Q41.9 19.45 39.1 20.7 L37.45 21.25 M20.75 20.65 L20.8 20.7" fill="none" stroke="#000000" stroke-linecap="round" stroke-linejoin="round" stroke-opacity="0.3019608" stroke-width="0.5"/>
      <path d="M19.0 12.6 Q19.85 13.6 22.45 14.1 L24.4 14.35 27.35 14.45 30.5 14.1 Q35.2 13.5 38.5 11.95 41.5 10.45 41.8 8.95 Z" fill="none" stroke="#526a7a" stroke-linecap="round" stroke-linejoin="round" stroke-opacity="0.3019608" stroke-width="0.5"/>
      <path d="M39.8 15.25 Q39.9 12.55 42.0 10.85 L43.5 12.6 41.3 16.65 40.45 21.5 41.2 25.5 Q40.4 26.25 39.95 27.15 L39.8 27.65 41.35 26.3 41.4 26.25 41.45 26.5 42.1 29.35 41.6 29.7 Q39.85 31.0 38.35 33.2 L41.4 31.95 40.45 33.0 38.25 33.65 36.85 38.55 35.75 39.6 37.75 33.25 36.2 29.5 36.6 28.35 37.8 32.75 Q38.2 28.65 36.25 26.2 L37.35 25.1 Q38.25 26.3 38.75 28.55 L38.65 27.1 Q38.45 25.6 37.9 24.4 39.3 22.45 39.2 20.05 39.3 17.3 39.8 15.25" fill="#000000" fill-opacity="0.3019608" fill-rule="evenodd" stroke="none"/>
      <path d="M25.55 16.45 L29.0 16.35 30.95 17.5 31.95 21.75 31.7 21.8 Q26.95 20.75 25.55 16.45 M30.95 17.5 L29.2 17.7 29.0 16.35 29.2 17.7 30.95 17.5" fill="#fbf1bf" fill-rule="evenodd" stroke="none"/>
      <path d="M31.7 21.8 L22.2 21.35 21.95 20.85 23.1 20.7 21.65 20.25 Q20.65 18.1 20.45 15.85 L22.35 16.2 23.15 17.6 23.35 16.35 25.55 16.45 Q26.95 20.75 31.7 21.8" fill="#d8ca7c" fill-rule="evenodd" stroke="none"/>
      <path d="M31.7 21.8 L22.2 21.35 21.95 20.85 23.1 20.7 21.65 20.25 Q20.65 18.1 20.45 15.85 L22.35 16.2 23.15 17.6 23.35 16.35 25.55 16.45 29.0 16.35 30.95 17.5 31.95 21.75 31.7 21.8 M29.0 16.35 L29.2 17.7 30.95 17.5" fill="none" stroke="#000000" stroke-linecap="round" stroke-linejoin="round" stroke-opacity="0.3019608" stroke-width="0.5"/>
      <path d="M39.35 28.8 L39.25 27.35 41.1 22.3 41.35 23.35 39.45 29.35 39.4 29.15 39.35 28.8 M42.15 11.3 Q43.6 9.4 45.95 9.25 L47.15 9.35 46.25 11.3 44.3 15.7 42.0 21.5 41.7 20.6 Q43.45 15.4 43.65 13.05 43.85 10.6 42.3 11.25 L42.15 11.3 M43.65 13.05 L44.3 15.7 43.65 13.05" fill="#c2b570" fill-rule="evenodd" stroke="none"/>
      <path d="M47.15 9.35 Q48.8 9.6 49.6 10.55 50.35 11.55 50.2 13.25 50.05 14.6 49.35 16.4 L48.15 18.45 Q44.95 19.25 42.3 21.75 L41.7 23.45 40.55 27.4 41.7 23.45 Q44.3 21.05 47.25 20.25 L46.75 21.5 46.55 22.0 46.25 23.05 Q43.55 24.1 42.0 25.5 41.05 26.4 40.55 27.4 L40.35 27.9 41.9 26.55 Q43.95 24.9 45.95 24.5 45.75 25.6 45.7 26.6 43.1 27.15 39.7 30.3 L38.9 33.45 42.0 32.2 41.05 33.25 38.8 33.9 37.4 38.75 36.35 39.85 38.35 33.5 39.45 29.35 41.35 23.35 42.0 21.5 44.3 15.7 46.25 11.3 47.15 9.35 M50.2 13.25 Q47.4 13.35 44.45 15.75 L46.25 11.3 44.45 15.75 Q47.4 13.35 50.2 13.25 M44.45 15.75 L42.3 21.75 44.45 15.75 M40.35 27.9 L39.7 30.3 40.35 27.9 M38.9 33.45 L38.8 33.9 38.9 33.45" fill="#fbf1bf" fill-rule="evenodd" stroke="none"/>
      <path d="M38.35 33.5 L36.8 29.75 37.2 28.6 38.4 33.0 38.35 33.5 M39.25 27.35 Q39.05 25.85 38.5 24.65 39.9 22.7 39.75 20.3 L39.8 20.05 Q40.65 20.65 41.1 22.3 L39.25 27.35 M39.9 18.35 Q40.4 13.6 42.15 11.3 L42.3 11.25 Q43.85 10.6 43.65 13.05 43.45 15.4 41.7 20.6 41.15 18.65 39.9 18.35 M43.65 13.05 Q43.15 11.9 42.3 11.25 43.15 11.9 43.65 13.05" fill="#d8ca7c" fill-rule="evenodd" stroke="none"/>
      <path d="M48.15 18.45 L47.25 20.25 Q44.3 21.05 41.7 23.45 L42.3 21.75 Q44.95 19.25 48.15 18.45 M45.7 26.6 L45.7 28.3 Q43.85 28.75 42.2 29.95 40.45 31.25 38.9 33.45 L39.7 30.3 Q43.1 27.15 45.7 26.6" fill="#e3d698" fill-rule="evenodd" stroke="none"/>
      <path d="M38.4 33.0 Q38.75 28.9 36.8 26.45 L37.95 25.35 Q38.8 26.5 39.35 28.8 L39.4 29.15 39.45 29.35 38.35 33.5 38.4 33.0 M39.8 20.05 L39.9 18.35 Q41.15 18.65 41.7 20.6 L42.0 21.5 41.35 23.35 41.1 22.3 Q40.65 20.65 39.8 20.05" fill="#b3a355" fill-rule="evenodd" stroke="none"/>
      <path d="M47.15 9.35 Q48.8 9.6 49.6 10.55 50.35 11.55 50.2 13.25 50.05 14.6 49.35 16.4 L48.15 18.45 47.25 20.25 46.75 21.5 46.55 22.0 46.25 23.05 Q43.55 24.1 42.0 25.5 41.05 26.4 40.55 27.4 L40.35 27.9 41.9 26.55 Q43.95 24.9 45.95 24.5 45.75 25.6 45.7 26.6 L45.7 28.3 Q43.85 28.75 42.2 29.95 40.45 31.25 38.9 33.45 L42.0 32.2 41.05 33.25 38.8 33.9 37.4 38.75 36.35 39.85 38.35 33.5 36.8 29.75 37.2 28.6 38.4 33.0 Q38.75 28.9 36.8 26.45 L37.95 25.35 Q38.8 26.5 39.35 28.8 L39.25 27.35 Q39.05 25.85 38.5 24.65 39.9 22.7 39.75 20.3 L39.8 20.05 39.9 18.35 Q40.4 13.6 42.15 11.3 43.6 9.4 45.95 9.25 L47.15 9.35 M38.35 33.5 L38.4 33.0 M39.35 28.8 L39.4 29.15 39.45 29.35 M38.8 33.9 L38.9 33.45" fill="none" stroke="#000000" stroke-linecap="round" stroke-linejoin="round" stroke-opacity="0.3019608" stroke-width="0.5"/>
      <path d="M46.25 11.3 L44.45 15.75 Q47.4 13.35 50.2 13.25 M46.25 11.3 L44.3 15.7 42.0 21.5 41.35 23.35 39.45 29.35 38.35 33.5 M42.3 11.25 Q43.15 11.9 43.65 13.05 M44.3 15.7 L43.65 13.05 M41.7 20.6 L42.0 21.5 M41.1 22.3 Q40.65 20.65 39.8 20.05 M41.35 23.35 L41.1 22.3 M41.7 23.45 L42.3 21.75 44.45 15.75 M40.55 27.4 L41.7 23.45 Q44.3 21.05 47.25 20.25 M38.9 33.45 L39.7 30.3 40.35 27.9 M39.7 30.3 Q43.1 27.15 45.7 26.6 M39.9 18.35 Q41.15 18.65 41.7 20.6 M42.3 21.75 Q44.95 19.25 48.15 18.45" fill="none" stroke="#000000" stroke-linecap="round" stroke-linejoin="round" stroke-opacity="0.15294118" stroke-width="0.25"/>
      <path d="M40.95 34.1 L39.9 35.55 Q38.1 35.8 36.25 34.55 L36.25 32.5 Q38.5 34.1 40.95 34.1" fill="#7f98a4" fill-rule="evenodd" stroke="none"/>
      <path d="M40.95 34.1 Q38.5 34.1 36.25 32.5 M36.25 34.55 Q38.1 35.8 39.9 35.55" fill="none" stroke="#000000" stroke-linecap="round" stroke-linejoin="round" stroke-opacity="0.3019608" stroke-width="0.5"/>
    </g>
    <linearGradient gradientTransform="matrix(-0.0043, -0.0024, 0.0079, -0.0138, 31.85, 34.4)" gradientUnits="userSpaceOnUse" id="gradient5" spreadMethod="pad" x1="-819.2" x2="819.2">
      <stop offset="0.0" stop-color="#4cbcdb"/>
      <stop offset="0.9647058823529412" stop-color="#59d4ff"/>
    </linearGradient>
    <linearGradient gradientTransform="matrix(-0.0105, -0.0047, 0.0053, -0.0119, 26.85, 29.55)" gradientUnits="userSpaceOnUse" id="gradient6" spreadMethod="pad" x1="-819.2" x2="819.2">
      <stop offset="0.0" stop-color="#e0e0a7"/>
      <stop offset="0.9882352941176471" stop-color="#ffffbf"/>
    </linearGradient>
    <linearGradient gradientTransform="matrix(0.2941, 0.0, 0.0, 0.2941, 3.95, 5.05)" gradientUnits="userSpaceOnUse" id="gradient7" spreadMethod="pad" x1="-819.2" x2="819.2">
      <stop offset="0.0" stop-color="#f0b100"/>
      <stop offset="0.9882352941176471" stop-color="#ffd059"/>
    </linearGradient>
    <linearGradient gradientTransform="matrix(-0.0099, 0.002, -0.0012, -0.0058, 29.6, 17.9)" gradientUnits="userSpaceOnUse" id="gradient8" spreadMethod="pad" x1="-819.2" x2="819.2">
      <stop offset="0.0" stop-color="#00171a"/>
      <stop offset="0.9647058823529412" stop-color="#003038"/>
    </linearGradient>
    <linearGradient gradientTransform="matrix(-0.0078, 5.0E-4, -3.0E-4, -0.0036, 25.75, 13.1)" gradientUnits="userSpaceOnUse" id="gradient9" spreadMethod="pad" x1="-819.2" x2="819.2">
      <stop offset="0.0" stop-color="#00171a"/>
      <stop offset="0.9647058823529412" stop-color="#003038"/>
    </linearGradient>
    <linearGradient gradientTransform="matrix(-0.0087, 0.0012, -3.0E-4, -0.0021, 33.35, 21.1)" gradientUnits="userSpaceOnUse" id="gradient10" spreadMethod="pad" x1="-819.2" x2="819.2">
      <stop offset="0.0" stop-color="#00171a"/>
      <stop offset="0.9647058823529412" stop-color="#003038"/>
    </linearGradient>
    <g id="sprite5" transform="matrix(1.0, 0.0, 0.0, 1.0, 0.0, 0.0)">
      <use height="34.8" transform="matrix(1.0, 0.0, 0.0, 1.0, 0.0, 0.0)" width="34.8" xlink:href="#shape9"/>
    </g>
    <g id="shape9" transform="matrix(1.0, 0.0, 0.0, 1.0, 0.0, 0.0)">
      <path d="M17.4 34.8 Q10.2 34.8 5.1 29.7 0.0 24.6 0.0 17.4 0.0 10.2 5.1 5.1 10.2 0.0 17.4 0.0 24.6 0.0 29.7 5.1 34.8 10.2 34.8 17.4 34.8 24.6 29.7 29.7 24.6 34.8 17.4 34.8" fill="url(#gradient11)" fill-rule="evenodd" stroke="none"/>
    </g>
    <radialGradient cx="0" cy="0" gradientTransform="matrix(0.0221, 0.0, 0.0, 0.0221, 17.4, 17.4)" gradientUnits="userSpaceOnUse" id="gradient11" r="819.2" spreadMethod="pad">
      <stop offset="0.0" stop-color="#ffffff"/>
      <stop offset="0.9882352941176471" stop-color="#ffffff" stop-opacity="0.0"/>
    </radialGradient>
  </defs>
</svg>
