<?xml version="1.0" encoding="UTF-8" standalone="no"?>
<svg xmlns:xlink="http://www.w3.org/1999/xlink" height="520.0px" width="520.0px" xmlns="http://www.w3.org/2000/svg">
  <g transform="matrix(10.0, 0.0, 0.0, 10.0, 0.0, 0.0)">
    <use height="52.0" transform="matrix(1.0, 0.0, 0.0, 1.0, 0.0, 0.0)" width="52.0" xlink:href="#sprite0"/>
  </g>
  <defs>
    <g id="sprite0" transform="matrix(1.0, 0.0, 0.0, 1.0, 0.0, 0.0)">
      <use height="52.0" transform="matrix(1.0, 0.0, 0.0, 1.0, 0.0, 0.0)" width="52.0" xlink:href="#sprite1"/>
      <use height="23.85" transform="matrix(1.0, 0.0, 0.0, 1.0, 1.05, 25.2)" width="46.55" xlink:href="#shape1"/>
      <use height="44.15" transform="matrix(-0.8511, 0.0, 0.0, 0.8511, 50.4255, 2.6745)" width="33.95" xlink:href="#sprite2"/>
      <use height="44.15" transform="matrix(1.0, 0.0, 0.0, 1.0, 0.65, 6.15)" width="33.95" xlink:href="#sprite2"/>
    </g>
    <g id="sprite1" transform="matrix(1.0, 0.0, 0.0, 1.0, 0.0, 0.0)">
      <use height="52.0" transform="matrix(1.0, 0.0, 0.0, 1.0, 0.0, 0.0)" width="52.0" xlink:href="#shape0"/>
    </g>
    <g id="shape0" transform="matrix(1.0, 0.0, 0.0, 1.0, 0.0, 0.0)">
      <path d="M52.0 0.0 L52.0 52.0 0.0 52.0 0.0 0.0 52.0 0.0" fill="#dea558" fill-opacity="0.0" fill-rule="evenodd" stroke="none"/>
    </g>
    <g id="shape1" transform="matrix(1.0, 0.0, 0.0, 1.0, -1.05, -25.2)">
      <path d="M40.8 27.6 Q47.6 30.55 47.6 35.45 47.6 40.3 40.8 44.25 34.0 48.2 24.35 48.9 14.65 49.6 7.9 46.65 1.05 43.7 1.05 38.85 1.05 33.95 7.9 30.0 14.65 26.05 24.35 25.35 34.0 24.65 40.8 27.6" fill="url(#gradient0)" fill-rule="evenodd" stroke="none"/>
    </g>
    <radialGradient cx="0" cy="0" gradientTransform="matrix(0.0286, -0.0021, 0.0, 0.0145, 24.35, 37.15)" gradientUnits="userSpaceOnUse" id="gradient0" r="819.2" spreadMethod="pad">
      <stop offset="0.34901960784313724" stop-color="#000000" stop-opacity="0.3019608"/>
      <stop offset="1.0" stop-color="#000000" stop-opacity="0.0"/>
    </radialGradient>
    <g id="sprite2" transform="matrix(1.0, 0.0, 0.0, 1.0, 0.5, 0.5)">
      <use height="44.15" transform="matrix(1.0, 0.0, 0.0, 1.0, -0.5, -0.5)" width="33.95" xlink:href="#shape2"/>
    </g>
    <g id="shape2" transform="matrix(1.0, 0.0, 0.0, 1.0, 0.5, 0.5)">
      <path d="M20.45 1.8 L20.7 1.8 21.0 1.75 21.4 1.7 22.55 2.05 24.85 2.9 25.25 3.05 Q29.45 4.55 28.45 6.1 24.5 8.1 19.75 7.8 19.5 7.35 19.5 6.7 19.5 3.4 20.45 1.8 M31.5 12.15 L31.5 12.3 Q31.5 13.1 32.0 14.15 L32.3 14.75 Q32.1 15.55 31.5 15.55 29.5 14.75 29.5 13.9 29.5 13.6 30.6 12.8 L31.5 12.15 M11.1 21.45 L11.95 21.0 12.1 20.95 12.3 20.75 14.05 20.75 14.3 20.8 14.1 21.05 13.25 21.7 12.7 21.85 12.6 21.8 12.35 21.75 12.7 21.85 12.0 21.65 11.1 21.45 M9.95 16.3 Q9.4 16.05 9.3 15.4 L9.8 15.45 11.25 14.8 12.15 13.85 11.75 13.4 11.75 13.35 11.7 13.25 12.65 13.75 12.8 13.8 12.95 14.1 12.2 15.2 12.0 15.3 11.5 15.75 10.75 16.3 Q10.35 16.6 9.95 16.3 M11.15 12.1 Q8.5 9.3 7.4 6.75 8.7 7.95 13.35 9.2 L18.0 10.0 21.8 10.35 23.1 10.15 Q22.65 10.8 22.65 11.45 L22.5 14.05 21.3 14.15 Q14.1 14.4 11.5 12.4 L11.15 12.1 M23.45 15.2 L25.2 16.35 25.3 16.7 25.35 16.95 25.35 17.1 25.35 17.15 Q25.25 17.45 24.65 17.45 23.65 17.45 21.25 16.25 18.6 15.0 16.95 14.55 L18.7 14.35 22.4 14.9 23.45 15.2 M21.55 15.55 L22.5 16.5 Q23.2 16.95 23.9 16.95 24.4 16.95 24.4 16.5 24.4 16.0 22.9 15.55 21.35 15.1 21.55 15.55 M14.85 22.6 Q15.7 22.5 16.4 21.65 L16.6 21.35 19.25 22.2 Q18.1 23.8 16.6 23.6 L14.9 22.65 14.85 22.6 M3.4 28.7 L3.65 28.85 3.9 29.05 4.25 29.3 6.65 30.3 7.3 30.5 Q6.5 32.6 6.05 35.35 3.95 32.0 3.45 29.2 L3.4 28.7" fill="#ba9437" fill-rule="evenodd" stroke="none"/>
      <path d="M28.45 6.1 Q29.45 4.55 25.25 3.05 L24.85 2.9 22.55 2.05 21.4 1.7 21.0 1.75 20.7 1.8 20.45 1.8 19.65 1.9 19.3 1.95 Q10.65 3.3 11.5 5.6 13.2 6.95 18.05 7.6 L19.75 7.8 Q24.5 8.1 28.45 6.1 L30.0 5.25 28.45 6.1 M29.95 5.1 L30.0 5.25 Q30.0 6.0 29.45 6.8 L29.6 6.85 31.1 6.1 31.65 5.2 Q31.65 4.45 30.85 3.7 30.05 2.95 27.65 1.95 25.2 0.85 22.05 0.5 L22.0 0.55 27.15 2.55 Q29.75 3.65 29.95 5.1 M7.4 6.75 L7.3 6.5 Q8.0 4.9 9.5 3.6 L10.1 3.15 Q15.85 0.55 21.1 0.0 24.85 0.45 27.4 1.45 29.2 2.15 30.8 3.2 L31.5 3.65 31.8 3.9 32.05 4.35 31.95 4.35 Q32.3 4.95 32.2 5.9 32.1 6.8 27.4 8.6 L23.1 10.15 21.8 10.35 18.0 10.0 13.35 9.2 Q8.7 7.95 7.4 6.75 M5.45 22.5 L5.85 22.2 7.15 21.7 8.7 21.35 10.2 21.35 9.05 21.75 7.1 22.65 6.95 22.75 6.8 22.95 5.85 24.25 5.25 25.45 5.45 25.45 7.9 25.85 8.1 25.45 Q8.9 24.0 10.6 22.9 11.5 22.3 12.7 21.85 L12.35 21.75 12.6 21.8 12.7 21.85 14.85 22.6 14.9 22.65 13.9 23.0 13.5 23.2 Q12.7 23.5 12.05 24.0 10.55 24.95 9.35 26.45 8.1 28.15 7.3 30.5 L6.65 30.3 4.25 29.3 3.9 29.05 3.65 28.85 3.4 28.7 Q3.2 26.95 3.6 25.45 3.85 24.3 4.45 23.4 L4.55 23.3 4.65 23.2 5.45 22.5 M9.3 15.4 L9.2 14.9 Q9.2 14.15 10.05 13.8 L11.35 13.1 11.15 12.1 11.5 12.4 11.45 12.7 11.7 13.25 11.75 13.35 11.75 13.4 12.15 13.85 11.25 14.8 9.8 15.45 9.3 15.4 M9.55 5.0 L9.65 4.25 Q8.05 5.45 7.85 5.95 7.7 6.75 15.05 8.8 9.35 5.75 9.55 5.0 M10.6 4.4 Q10.75 5.05 11.5 5.6 10.75 5.05 10.6 4.4 M21.55 15.55 Q21.35 15.1 22.9 15.55 24.4 16.0 24.4 16.5 24.4 16.95 23.9 16.95 23.2 16.95 22.5 16.5 L21.55 15.55 M11.35 13.1 Q11.4 13.3 11.75 13.35 11.4 13.3 11.35 13.1 M11.0 14.25 Q11.6 13.35 10.55 13.8 9.45 14.3 9.45 14.7 9.45 15.15 9.95 15.15 L11.0 14.25" fill="#cfb05a" fill-rule="evenodd" stroke="none"/>
      <path d="M20.45 1.8 Q19.5 3.4 19.5 6.7 19.5 7.35 19.75 7.8 L18.05 7.6 Q13.2 6.95 11.5 5.6 10.65 3.3 19.3 1.95 L19.65 1.9 20.45 1.8 M32.05 4.35 Q33.2 7.0 32.9 9.85 L31.7 11.7 31.65 11.7 31.5 12.0 31.5 12.15 30.6 12.8 Q29.5 13.6 29.5 13.9 29.5 14.75 31.5 15.55 32.1 15.55 32.3 14.75 L32.5 15.35 Q32.5 16.6 31.15 16.6 L30.15 16.5 Q29.4 16.3 28.85 15.8 27.9 15.0 27.4 15.0 26.5 15.0 26.5 15.6 L27.05 17.75 Q27.05 18.9 24.55 18.9 L24.5 18.9 23.2 18.65 Q21.6 18.2 19.05 16.8 15.15 14.65 14.05 14.6 12.95 14.55 12.2 15.2 L12.95 14.1 12.8 13.8 12.65 13.75 11.7 13.25 11.45 12.7 11.5 12.4 Q14.1 14.4 21.3 14.15 L22.5 14.05 22.65 11.45 Q22.65 10.8 23.1 10.15 L27.4 8.6 Q32.1 6.8 32.2 5.9 32.3 4.95 31.95 4.35 L32.05 4.35 M25.0 13.85 L23.95 13.95 22.5 14.05 23.95 13.95 25.0 13.85 M23.45 15.2 Q22.25 14.5 21.3 14.15 22.25 14.5 23.45 15.2 L22.4 14.9 18.7 14.35 16.95 14.55 Q18.6 15.0 21.25 16.25 23.65 17.45 24.65 17.45 25.25 17.45 25.35 17.15 L25.35 17.1 25.35 16.95 25.3 16.7 25.2 16.35 23.45 15.2 M17.15 20.35 L18.95 21.0 19.75 21.3 19.25 22.2 16.6 21.35 17.15 20.35 M12.95 20.1 L14.15 19.95 14.85 20.0 14.3 20.8 14.05 20.75 12.3 20.75 12.55 20.45 12.9 20.15 12.95 20.1" fill="#ab7a00" fill-rule="evenodd" stroke="none"/>
      <path d="M30.0 5.25 L29.95 5.1 Q29.75 3.65 27.15 2.55 L22.0 0.55 22.05 0.5 Q25.2 0.85 27.65 1.95 30.05 2.95 30.85 3.7 31.65 4.45 31.65 5.2 L31.1 6.1 29.6 6.85 29.45 6.8 Q30.0 6.0 30.0 5.25 M9.55 5.0 Q9.35 5.75 15.05 8.8 7.7 6.75 7.85 5.95 8.05 5.45 9.65 4.25 L9.55 5.0 M11.0 14.25 L9.95 15.15 Q9.45 15.15 9.45 14.7 9.45 14.3 10.55 13.8 11.6 13.35 11.0 14.25" fill="#dbdbaf" fill-rule="evenodd" stroke="none"/>
      <path d="M30.15 16.5 L31.4 19.5 31.65 20.2 30.0 20.8 28.7 21.3 Q26.95 21.45 25.85 20.85 24.85 20.2 24.55 18.9 27.05 18.9 27.05 17.75 L26.5 15.6 Q26.5 15.0 27.4 15.0 27.9 15.0 28.85 15.8 29.4 16.3 30.15 16.5 M2.25 34.2 Q1.45 30.75 1.65 27.75 L1.8 27.8 Q2.3 27.9 3.4 28.7 L3.45 29.2 Q3.95 32.0 6.05 35.35 6.5 32.6 7.3 30.5 L7.35 30.5 10.45 31.0 13.25 30.95 15.05 30.75 Q16.5 32.55 16.1 34.95 15.7 37.3 14.8 37.9 L13.4 38.1 Q7.75 38.3 2.85 36.0 L2.25 34.2 M11.95 21.0 Q10.6 20.55 9.25 19.15 L9.2 18.9 9.25 18.85 11.2 17.45 Q12.2 16.9 13.15 16.85 17.45 17.95 18.8 18.55 L22.4 20.2 Q24.65 21.35 26.15 21.65 25.35 21.9 24.9 23.1 24.55 24.3 24.85 24.95 22.7 22.65 19.75 21.3 L18.95 21.0 17.15 20.35 14.85 20.0 14.15 19.95 12.95 20.1 12.85 20.1 12.9 20.15 12.55 20.45 12.3 20.75 12.1 20.95 11.95 21.0 M11.9 20.2 L12.85 20.1 11.9 20.2 M7.05 34.0 L7.0 34.3 7.05 34.6 Q7.2 34.85 7.55 34.85 L8.3 33.6 8.7 32.15 8.65 31.9 8.2 31.7 Q7.75 31.7 7.35 32.95 L7.05 34.0 M26.35 21.7 L26.15 21.65 26.15 21.6 26.35 21.7" fill="#7a4629" fill-rule="evenodd" stroke="none"/>
      <path d="M14.85 20.0 L17.15 20.35 16.6 21.35 Q15.55 21.0 14.3 20.8 L14.85 20.0" fill="#43160a" fill-rule="evenodd" stroke="none"/>
      <path d="M1.65 27.75 L1.65 27.6 Q1.65 26.7 1.8 25.85 L1.8 25.75 3.45 24.05 4.4 23.35 4.45 23.4 Q3.85 24.3 3.6 25.45 3.2 26.95 3.4 28.7 2.3 27.9 1.8 27.8 L1.65 27.6 1.8 27.8 1.65 27.75 M9.2 18.8 Q9.2 18.05 9.95 16.3 10.35 16.6 10.75 16.3 L11.5 15.75 12.0 15.3 12.2 15.2 Q12.95 14.55 14.05 14.6 15.15 14.65 19.05 16.8 21.6 18.2 23.2 18.65 L24.5 18.9 24.55 18.9 Q24.85 20.2 25.85 20.85 26.95 21.45 28.7 21.3 L26.8 21.75 26.35 21.7 26.15 21.6 26.15 21.65 Q24.65 21.35 22.4 20.2 L18.8 18.55 Q17.45 17.95 13.15 16.85 12.2 16.9 11.2 17.45 L9.25 18.85 9.2 18.8 M14.1 23.7 Q13.75 23.4 12.7 24.05 11.55 24.85 11.3 25.4 L11.2 25.65 11.25 25.95 Q11.35 26.15 11.7 26.15 L14.15 24.1 14.1 23.7 M7.3 30.5 Q8.1 28.15 9.35 26.45 10.55 24.95 12.05 24.0 12.7 23.5 13.5 23.2 L13.9 23.0 14.9 22.65 16.6 23.6 Q18.1 23.8 19.25 22.2 20.35 22.65 21.3 23.2 L21.85 23.6 22.05 23.7 Q21.4 24.55 20.6 27.2 20.4 29.45 15.05 30.75 L13.25 30.95 10.45 31.0 7.35 30.5 7.3 30.5 M19.05 25.9 L17.55 24.3 17.3 24.1 16.6 23.6 17.3 24.1 17.55 24.3 19.05 25.9 M8.8 29.4 L8.8 29.5 8.8 29.95 Q8.85 30.3 9.25 30.3 9.5 30.3 10.75 27.8 L10.7 27.35 Q10.5 26.9 9.8 27.65 8.9 28.45 8.8 29.3 L8.8 29.35 8.8 29.4" fill="#a45e37" fill-rule="evenodd" stroke="none"/>
      <path d="M14.3 20.8 Q15.55 21.0 16.6 21.35 L16.4 21.65 Q15.7 22.5 14.85 22.6 L12.7 21.85 13.25 21.7 14.1 21.05 14.3 20.8" fill="#802e00" fill-rule="evenodd" stroke="none"/>
      <path d="M10.2 21.35 L10.75 21.4 11.1 21.45 12.0 21.65 12.7 21.85 Q11.5 22.3 10.6 22.9 8.9 24.0 8.1 25.45 L7.9 25.85 5.45 25.45 5.25 25.45 5.85 24.25 6.8 22.95 6.95 22.75 7.1 22.65 9.05 21.75 10.2 21.35" fill="#af511d" fill-rule="evenodd" stroke="none"/>
      <path d="M11.3 25.4 Q11.55 24.85 12.7 24.05 13.75 23.4 14.1 23.7 L11.7 25.55 11.3 25.4" fill="#d5cbad" fill-rule="evenodd" stroke="none"/>
      <path d="M11.3 25.4 L11.7 25.55 14.1 23.7 14.15 24.1 11.7 26.15 Q11.35 26.15 11.25 25.95 L11.2 25.65 11.3 25.4" fill="#a89767" fill-rule="evenodd" stroke="none"/>
      <path d="M8.8 29.5 L8.8 29.4 9.25 29.7 10.7 27.35 10.75 27.8 Q9.5 30.3 9.25 30.3 8.85 30.3 8.8 29.95 L8.8 29.5 M8.65 31.9 L8.7 32.15 8.3 33.6 7.55 34.85 Q7.2 34.85 7.05 34.6 L7.0 34.3 7.05 34.0 Q7.2 34.25 7.55 34.25 L8.3 33.0 8.65 31.9" fill="#92845a" fill-rule="evenodd" stroke="none"/>
      <path d="M8.8 29.4 L8.8 29.35 8.8 29.3 Q8.9 28.45 9.8 27.65 10.5 26.9 10.7 27.35 L9.25 29.7 8.8 29.4 M7.05 34.0 L7.35 32.95 Q7.75 31.7 8.2 31.7 L8.65 31.9 8.3 33.0 7.55 34.25 Q7.2 34.25 7.05 34.0" fill="#c0b28a" fill-rule="evenodd" stroke="none"/>
      <path d="M29.1 23.5 L29.4 24.95 Q26.75 26.8 24.85 26.8 24.5 26.8 24.05 26.05 L23.65 25.25 Q22.9 24.2 22.05 23.7 L21.85 23.6 21.3 23.2 Q20.35 22.65 19.25 22.2 L19.75 21.3 Q22.7 22.65 24.85 24.95 L24.9 25.0 25.5 25.1 Q26.9 25.15 28.85 23.7 L29.1 23.5" fill="#4c240d" fill-rule="evenodd" stroke="none"/>
      <path d="M31.65 20.2 L31.8 20.85 31.75 21.0 29.1 23.5 28.85 23.7 Q26.9 25.15 25.5 25.1 L24.9 25.0 24.85 24.95 Q24.55 24.3 24.9 23.1 25.35 21.9 26.15 21.65 L26.35 21.7 26.8 21.75 28.7 21.3 30.0 20.8 31.65 20.2 M29.4 24.95 L29.4 25.2 29.4 25.5 29.1 26.55 Q27.65 27.65 26.45 28.0 25.15 28.4 23.7 30.2 L23.35 32.35 21.65 35.05 Q19.2 37.15 14.8 37.9 15.7 37.3 16.1 34.95 16.5 32.55 15.05 30.75 20.4 29.45 20.6 27.2 21.4 24.55 22.05 23.7 22.9 24.2 23.65 25.25 L24.05 26.05 Q24.5 26.8 24.85 26.8 26.75 26.8 29.4 24.95 M23.35 28.45 L23.6 29.35 23.6 29.5 23.65 29.7 23.7 30.2 23.65 29.7 23.6 29.5 23.6 29.35 23.35 28.45" fill="#622f12" fill-rule="evenodd" stroke="none"/>
      <path d="M29.4 25.5 Q30.0 25.95 30.05 26.45 L30.0 26.75 Q29.8 27.5 28.15 28.3 L26.95 28.9 Q24.9 30.1 24.5 31.5 L24.45 32.5 24.15 33.6 24.15 33.65 22.5 36.3 Q20.5 38.05 17.2 38.9 L14.2 39.4 Q9.4 39.55 1.7 37.2 L0.8 36.1 2.25 34.2 2.85 36.0 Q7.75 38.3 13.4 38.1 L14.8 37.9 Q19.2 37.15 21.65 35.05 L23.35 32.35 23.7 30.2 Q25.15 28.4 26.45 28.0 27.65 27.65 29.1 26.55 L29.4 25.5" fill="#4a3e33" fill-rule="evenodd" stroke="none"/>
      <path d="M30.0 26.75 Q30.25 28.95 29.5 30.9 L28.3 31.6 27.15 32.25 27.05 32.25 26.35 32.1 Q26.1 31.65 26.1 30.45 26.1 29.65 26.3 29.4 L26.95 28.9 28.15 28.3 Q29.8 27.5 30.0 26.75 M24.6 36.7 L24.5 37.05 Q23.75 38.7 22.85 39.8 21.25 41.25 17.95 42.4 17.25 42.3 16.9 41.65 16.6 41.1 16.6 39.9 L16.65 39.25 17.2 38.9 Q20.5 38.05 22.5 36.3 L24.15 33.65 24.6 36.7" fill="#2e2318" fill-rule="evenodd" stroke="none"/>
      <path d="M27.05 32.35 Q25.2 33.5 24.8 34.9 L24.6 36.7 24.15 33.65 24.15 33.6 24.45 32.5 24.5 31.5 Q24.9 30.1 26.95 28.9 L26.3 29.4 Q26.1 29.65 26.1 30.45 26.1 31.65 26.35 32.1 L27.05 32.25 27.05 32.35" fill="#1e1812" fill-rule="evenodd" stroke="none"/>
      <path d="M17.95 42.4 L14.8 43.1 Q10.1 43.35 2.55 41.2 L1.65 40.15 Q0.9 38.05 0.8 36.1 L1.7 37.2 Q9.4 39.55 14.2 39.4 L17.2 38.9 16.65 39.25 16.6 39.9 Q16.6 41.1 16.9 41.65 17.25 42.3 17.95 42.4" fill="#3b2c1f" fill-rule="evenodd" stroke="none"/>
      <path d="M7.4 6.75 L7.3 6.5 Q8.0 4.9 9.5 3.6 L10.1 3.15 Q15.85 0.55 21.1 0.0 24.85 0.45 27.4 1.45 29.2 2.15 30.8 3.2 L31.5 3.65 31.8 3.9 32.05 4.35 Q33.2 7.0 32.9 9.85 L31.7 11.7 31.65 11.7 31.5 12.0 31.5 12.15 31.5 12.3 Q31.5 13.1 32.0 14.15 L32.3 14.75 32.5 15.35 Q32.5 16.6 31.15 16.6 L30.15 16.5 31.4 19.5 31.65 20.2 31.8 20.85 31.75 21.0 29.1 23.5 29.4 24.95 29.4 25.2 29.4 25.5 Q30.0 25.95 30.05 26.45 L30.0 26.75 Q30.25 28.95 29.5 30.9 L28.3 31.6 27.15 32.25 M27.05 32.35 Q25.2 33.5 24.8 34.9 L24.6 36.7 24.5 37.05 Q23.75 38.7 22.85 39.8 21.25 41.25 17.95 42.4 L14.8 43.1 Q10.1 43.35 2.55 41.2 L1.65 40.15 Q0.9 38.05 0.8 36.1 L2.25 34.2 Q1.45 30.75 1.65 27.75 L1.65 27.6 Q0.0 26.1 0.0 24.45 L0.0 24.0 0.2 23.4 0.25 23.35 Q0.5 22.65 1.05 22.25 1.8 21.6 3.05 21.6 4.25 21.55 4.95 22.05 L5.45 22.5 5.85 22.2 7.15 21.7 8.7 21.35 10.2 21.35 10.75 21.4 11.1 21.45 11.95 21.0 Q10.6 20.55 9.25 19.15 L9.2 18.9 M9.2 18.8 Q9.2 18.05 9.95 16.3 9.4 16.05 9.3 15.4 L9.2 14.9 Q9.2 14.15 10.05 13.8 L11.35 13.1 11.15 12.1 Q8.5 9.3 7.4 6.75 M4.4 23.35 L3.45 24.05 1.8 25.75 1.8 25.85 Q1.65 26.7 1.65 27.6 L1.8 27.8 M4.55 23.3 L4.65 23.2 5.45 22.5" fill="none" stroke="#000000" stroke-linecap="round" stroke-linejoin="round" stroke-opacity="0.3019608" stroke-width="1.0"/>
      <path d="M19.75 7.8 Q24.5 8.1 28.45 6.1 L30.0 5.25 29.95 5.1 M27.15 32.25 L27.05 32.35 M9.2 18.9 L9.2 18.8 M11.5 5.6 Q10.75 5.05 10.6 4.4 M11.5 5.6 Q13.2 6.95 18.05 7.6 L19.75 7.8 M22.5 14.05 L23.95 13.95 25.0 13.85 M22.5 14.05 L21.3 14.15 Q22.25 14.5 23.45 15.2 M14.85 20.0 L17.15 20.35 18.95 21.0 19.75 21.3 Q22.7 22.65 24.85 24.95 L24.9 25.0 25.5 25.1 Q26.9 25.15 28.85 23.7 L29.1 23.5 M12.95 20.1 L14.15 19.95 14.85 20.0 M12.2 15.2 Q12.95 14.55 14.05 14.6 15.15 14.65 19.05 16.8 21.6 18.2 23.2 18.65 L24.5 18.9 24.55 18.9 Q27.05 18.9 27.05 17.75 L26.5 15.6 Q26.5 15.0 27.4 15.0 27.9 15.0 28.85 15.8 29.4 16.3 30.15 16.5 M11.5 12.4 L11.15 12.1 M12.2 15.2 L12.0 15.3 11.5 15.75 10.75 16.3 Q10.35 16.6 9.95 16.3 M11.75 13.35 Q11.4 13.3 11.35 13.1 M12.9 20.15 L12.95 20.1 12.85 20.1 11.9 20.2 M12.3 20.75 L12.55 20.45 12.9 20.15 M12.7 21.85 L13.25 21.7 14.1 21.05 14.3 20.8 M12.1 20.95 L11.95 21.0 M12.7 21.85 L12.35 21.75 M11.1 21.45 L12.0 21.65 12.7 21.85 14.85 22.6 Q15.7 22.5 16.4 21.65 L16.6 21.35 M19.25 22.2 L19.75 21.3 M12.7 21.85 Q11.5 22.3 10.6 22.9 8.9 24.0 8.1 25.45 L7.9 25.85 5.45 25.45 5.25 25.45 5.85 24.25 6.8 22.95 6.95 22.75 7.1 22.65 9.05 21.75 10.2 21.35 M14.1 23.7 Q13.75 23.4 12.7 24.05 11.55 24.85 11.3 25.4 M14.1 23.7 L14.15 24.1 11.7 26.15 Q11.35 26.15 11.25 25.95 L11.2 25.65 11.3 25.4 M14.9 22.65 L13.9 23.0 13.5 23.2 Q12.7 23.5 12.05 24.0 10.55 24.95 9.35 26.45 8.1 28.15 7.3 30.5 6.5 32.6 6.05 35.35 3.95 32.0 3.45 29.2 L3.4 28.7 Q3.2 26.95 3.6 25.45 3.85 24.3 4.45 23.4 L4.55 23.3 4.45 23.35 4.4 23.35 M19.25 22.2 Q18.1 23.8 16.6 23.6 L17.3 24.1 17.55 24.3 19.05 25.9 M4.45 23.35 L4.55 23.25 4.55 23.3 M8.8 29.4 L8.8 29.35 M8.8 29.3 Q8.9 28.45 9.8 27.65 10.5 26.9 10.7 27.35 L10.75 27.8 Q9.5 30.3 9.25 30.3 8.85 30.3 8.8 29.95 L8.8 29.5 M8.65 31.9 L8.7 32.15 8.3 33.6 7.55 34.85 Q7.2 34.85 7.05 34.6 L7.0 34.3 7.05 34.0 7.35 32.95 Q7.75 31.7 8.2 31.7 L8.65 31.9 M14.85 22.6 L14.9 22.65 16.6 23.6 M21.3 14.15 Q14.1 14.4 11.5 12.4 M29.4 25.5 L29.1 26.55 Q27.65 27.65 26.45 28.0 25.15 28.4 23.7 30.2 L23.35 32.35 21.65 35.05 Q19.2 37.15 14.8 37.9 L13.4 38.1 Q7.75 38.3 2.85 36.0 L2.25 34.2 M26.95 28.9 L28.15 28.3 Q29.8 27.5 30.0 26.75 M23.7 30.2 L23.65 29.7 23.6 29.5 23.6 29.35 23.35 28.45 M24.15 33.65 L24.15 33.6 24.45 32.5 24.5 31.5 Q24.9 30.1 26.95 28.9 M17.2 38.9 L14.2 39.4 Q9.4 39.55 1.7 37.2 L0.8 36.1 M17.2 38.9 Q20.5 38.05 22.5 36.3 L24.15 33.65" fill="none" stroke="#000000" stroke-linecap="round" stroke-linejoin="round" stroke-opacity="0.3019608" stroke-width="0.05"/>
      <path d="M3.6 34.2 L3.1 33.3 Q2.6 32.2 2.9 31.9 L3.35 31.75 3.8 32.7 Q4.3 33.8 4.1 34.0 L3.6 34.2" fill="#c0b28a" fill-rule="evenodd" stroke="none"/>
      <path d="M3.35 31.75 L3.55 31.85 4.2 33.1 Q4.7 34.2 4.5 34.4 4.25 34.65 4.0 34.6 L3.75 34.45 3.6 34.2 4.1 34.0 Q4.3 33.8 3.8 32.7 L3.35 31.75" fill="#92845a" fill-rule="evenodd" stroke="none"/>
      <path d="M3.35 31.75 L3.55 31.85 4.2 33.1 Q4.7 34.2 4.5 34.4 4.25 34.65 4.0 34.6 L3.75 34.45 3.6 34.2 3.1 33.3 Q2.6 32.2 2.9 31.9 L3.35 31.75 Z" fill="none" stroke="#000000" stroke-linecap="round" stroke-linejoin="round" stroke-opacity="0.3019608" stroke-width="0.05"/>
      <path d="M2.0 29.1 L1.9 28.1 Q1.9 26.9 2.3 26.75 L2.8 26.8 2.85 27.85 Q2.85 29.05 2.55 29.15 L2.0 29.1" fill="#c0b28a" fill-rule="evenodd" stroke="none"/>
      <path d="M2.8 26.8 L2.9 26.95 3.05 28.35 Q3.05 29.6 2.75 29.7 L2.25 29.65 2.1 29.45 2.0 29.1 2.55 29.15 Q2.85 29.05 2.85 27.85 L2.8 26.8" fill="#92845a" fill-rule="evenodd" stroke="none"/>
      <path d="M2.0 29.1 L1.9 28.1 Q1.9 26.9 2.3 26.75 L2.8 26.8 2.9 26.95 3.05 28.35 Q3.05 29.6 2.75 29.7 L2.25 29.65 2.1 29.45 2.0 29.1 Z" fill="none" stroke="#000000" stroke-linecap="round" stroke-linejoin="round" stroke-opacity="0.3019608" stroke-width="0.05"/>
      <path d="M6.3 24.7 L7.5 24.75 7.6 24.9 Q8.0 25.1 8.05 25.8 8.1 26.9 7.4 28.05 L6.5 29.05 5.5 29.35 Q4.25 29.5 4.0 28.25 L4.0 28.1 3.9 27.65 4.0 27.2 4.1 26.9 4.55 25.9 5.25 25.1 Q5.75 24.75 6.3 24.7" fill="#000000" fill-opacity="0.3019608" fill-rule="evenodd" stroke="none"/>
      <path d="M3.4 22.9 Q4.75 22.6 5.85 23.6 L5.0 22.65 4.15 22.05 3.05 21.75 2.45 21.85 Q2.25 21.85 2.2 21.95 1.9 21.95 1.8 22.15 1.65 22.2 1.6 22.6 1.5 23.25 3.4 22.9 M0.3 23.4 Q0.55 22.75 1.1 22.35 1.85 21.65 3.1 21.65 4.3 21.6 5.0 22.15 L6.05 23.35 6.3 23.7 7.05 24.4 7.8 24.8 7.85 24.85 8.0 24.95 8.05 25.2 8.05 25.4 8.05 25.85 7.95 26.3 7.8 26.55 Q6.45 26.95 5.2 26.25 4.05 25.55 3.45 24.6 2.9 23.55 1.65 23.3 L0.3 23.4" fill="#af511d" fill-rule="evenodd" stroke="none"/>
      <path d="M7.8 26.55 L7.65 26.9 Q7.1 28.0 6.0 28.55 2.55 28.3 1.85 27.8 0.05 26.3 0.05 24.55 L0.05 24.05 0.25 23.45 0.3 23.4 1.65 23.3 Q2.9 23.55 3.45 24.6 4.05 25.55 5.2 26.25 6.45 26.95 7.8 26.55" fill="#802e00" fill-rule="evenodd" stroke="none"/>
      <path d="M3.4 22.9 Q1.5 23.25 1.6 22.6 1.65 22.2 1.8 22.15 1.9 21.95 2.2 21.95 2.25 21.85 2.45 21.85 L3.05 21.75 4.15 22.05 5.0 22.65 5.85 23.6 Q4.75 22.6 3.4 22.9" fill="#d4c499" fill-rule="evenodd" stroke="none"/>
      <path d="M0.3 23.4 Q0.55 22.75 1.1 22.35 1.85 21.65 3.1 21.65 4.3 21.6 5.0 22.15 L6.05 23.35 6.3 23.7 7.05 24.4 M8.05 25.85 L7.95 26.3 7.8 26.55 7.65 26.9 Q7.1 28.0 6.0 28.55 L6.1 28.55 5.95 28.6 6.0 28.55 Q2.55 28.3 1.85 27.8 0.05 26.3 0.05 24.55 L0.05 24.05 0.25 23.45 0.3 23.4 Z" fill="none" stroke="#000000" stroke-linecap="round" stroke-linejoin="round" stroke-opacity="0.3019608" stroke-width="0.05"/>
    </g>
  </defs>
</svg>
