<?xml version="1.0" encoding="UTF-8" standalone="no"?>
<svg xmlns:xlink="http://www.w3.org/1999/xlink" height="440.0px" width="440.0px" xmlns="http://www.w3.org/2000/svg">
  <g transform="matrix(10.0, 0.0, 0.0, 10.0, 0.0, 0.0)">
    <use height="44.0" transform="matrix(1.0, 0.0, 0.0, 1.0, 0.0, 0.0)" width="44.0" xlink:href="#shape0"/>
    <use height="45.2" transform="matrix(0.7639, 0.0, 0.0, 0.7639, 2.2294, 2.4348)" width="38.8" xlink:href="#sprite0"/>
    <use height="45.2" transform="matrix(0.8203, 0.0, 0.0, 0.8203, 11.0353, 3.9602)" width="38.8" xlink:href="#sprite0"/>
    <use height="49.4" transform="matrix(0.2638, 0.0, 0.0, 0.2638, 23.4, 13.35)" width="55.7" xlink:href="#sprite1"/>
    <use height="49.4" transform="matrix(0.0, 0.1892, -0.1892, 0.0, 19.6, 32.45)" width="55.7" xlink:href="#sprite1"/>
    <use height="0.0" transform="matrix(0.6032, 0.0, 0.2314, 0.6032, 21.6, 18.3)" width="0.0" xlink:href="#sprite3"/>
    <use height="0.0" transform="matrix(0.3116, 0.1271, -0.1645, 0.2031, 16.2, 31.65)" width="0.0" xlink:href="#sprite3"/>
    <use height="0.0" transform="matrix(0.3898, 0.1591, -0.2058, 0.2541, 15.15, 31.85)" width="0.0" xlink:href="#sprite3"/>
  </g>
  <defs>
    <g id="shape0" transform="matrix(1.0, 0.0, 0.0, 1.0, 0.0, 0.0)">
      <path d="M44.0 44.0 L0.0 44.0 0.0 0.0 44.0 0.0 44.0 44.0" fill="#43adca" fill-opacity="0.0" fill-rule="evenodd" stroke="none"/>
      <path d="M27.05 38.95 Q26.2 38.95 25.85 38.55 L24.85 38.45 24.25 38.25 Q24.0 38.05 24.0 37.5 24.0 36.0 28.7 33.15 33.4 30.25 33.4 33.15 33.4 33.65 30.8 36.25 28.05 38.95 27.05 38.95" fill="#000000" fill-opacity="0.3019608" fill-rule="evenodd" stroke="none"/>
      <path d="M34.95 9.85 L34.5 13.1 34.15 13.75 33.65 16.75 Q36.15 15.75 40.15 14.9 L40.6 14.85 40.6 14.9 39.65 16.4 38.55 17.6 40.95 17.1 Q42.2 16.9 42.7 17.1 L42.85 17.15 42.9 17.3 42.7 17.7 40.05 19.75 40.1 19.7 39.8 19.95 39.2 20.35 38.8 20.55 40.85 20.95 40.95 21.0 Q39.85 22.3 37.35 23.45 L35.2 24.25 34.85 24.35 Q35.2 26.9 34.9 29.75 L34.5 32.05 33.85 32.95 33.8 32.95 Q32.8 34.0 31.6 33.85 L31.55 33.85 30.5 33.45 Q28.85 35.5 28.0 38.35 L27.8 38.4 26.8 39.0 26.65 39.05 26.5 39.1 26.4 39.15 26.2 39.25 26.1 39.25 26.05 39.3 24.2 40.05 24.1 40.1 23.9 40.1 21.6 40.7 20.45 40.95 20.25 41.0 18.25 41.0 Q13.8 40.1 11.55 38.55 L11.1 36.9 11.05 36.9 10.8 36.95 8.95 36.95 Q4.8 36.1 2.7 34.65 L2.3 33.1 2.25 33.05 2.3 31.9 2.7 31.65 2.45 30.45 Q2.6 27.6 5.85 26.4 7.2 25.7 9.05 25.8 L9.5 25.85 9.85 25.9 9.85 25.85 11.35 24.95 11.4 24.25 Q11.6 23.5 12.55 23.35 L11.85 20.0 11.8 20.0 11.4 18.6 10.0 17.85 9.5 15.6 9.55 15.55 9.45 15.5 9.05 15.25 9.0 15.25 7.25 11.55 7.35 11.2 5.95 9.95 6.55 7.75 6.7 7.5 7.1 6.75 7.15 6.7 Q7.65 5.8 8.5 5.05 10.15 3.6 12.3 2.95 L13.05 2.7 Q16.1 2.05 20.05 2.8 L22.65 3.45 23.45 4.15 30.15 4.4 32.95 5.0 35.35 7.25 35.5 8.35 34.95 9.85 Z" fill="none" stroke="#000000" stroke-linecap="round" stroke-linejoin="round" stroke-opacity="0.3019608" stroke-width="0.7000000000000001"/>
    </g>
    <g id="sprite0" transform="matrix(1.0, 0.0, 0.0, 1.0, 19.4, 22.6)">
      <use height="45.2" transform="matrix(1.0, 0.0, 0.0, 1.0, -19.4, -22.6)" width="38.8" xlink:href="#shape1"/>
    </g>
    <g id="shape1" transform="matrix(1.0, 0.0, 0.0, 1.0, 19.4, 22.6)">
      <path d="M3.5 -20.8 L6.3 -20.0 Q9.6 -18.55 8.95 -17.1 7.5 -15.15 4.1 -13.85 L3.2 -13.55 2.0 -14.65 Q0.65 -15.4 -1.7 -15.55 L-1.7 -15.65 Q-1.65 -15.65 0.5 -16.4 L3.35 -17.1 3.45 -17.1 3.35 -17.2 2.05 -17.4 -0.4 -17.6 -3.8 -17.25 -7.05 -16.55 -9.85 -15.4 -11.0 -14.65 Q-12.05 -13.85 -12.15 -13.15 L-12.75 -13.75 Q-13.15 -14.95 -12.05 -16.4 L-10.7 -17.8 -10.35 -18.1 Q-8.6 -19.5 -4.25 -21.05 L3.5 -20.8" fill="#2c0c04" fill-rule="evenodd" stroke="none"/>
      <path d="M3.2 -13.55 L0.8 -12.85 Q-2.6 -13.4 -6.6 -12.85 L-7.1 -12.8 -9.3 -12.75 -12.15 -13.15 Q-12.05 -13.85 -11.0 -14.65 L-9.85 -15.4 -7.05 -16.55 -3.8 -17.25 -0.4 -17.6 2.05 -17.4 3.35 -17.2 3.35 -17.1 0.5 -16.4 Q-1.65 -15.65 -1.7 -15.65 L-1.85 -15.55 -1.7 -15.55 Q0.65 -15.4 2.0 -14.65 L3.2 -13.55 M-2.4 -3.75 L-2.35 -3.7 -2.4 -3.7 -2.4 -3.75" fill="#130000" fill-rule="evenodd" stroke="none"/>
      <path d="M8.1 -4.8 L8.1 -4.75 8.05 -4.75 8.1 -4.8 M3.35 -17.1 L3.35 -17.2 3.45 -17.1 3.35 -17.1 M-7.4 -3.05 L-7.55 -2.85 -7.65 -2.95 -8.0 -3.35 -7.4 -3.05" fill="#80240d" fill-rule="evenodd" stroke="none"/>
      <path d="M-6.9 0.45 L-6.95 0.4 -6.9 0.45 M-8.25 8.35 L-8.95 8.35 -8.95 8.25 -8.25 8.35" fill="#9d2c10" fill-rule="evenodd" stroke="none"/>
      <path d="M6.1 -3.25 L6.25 -3.2 6.2 -3.15 6.1 -3.25" fill="#993110" fill-rule="evenodd" stroke="none"/>
      <path d="M-1.7 -15.65 L-1.7 -15.55 -1.85 -15.55 -1.7 -15.65" fill="#5c1909" fill-rule="evenodd" stroke="none"/>
      <path d="M-13.05 -16.9 L-13.0 -16.95 -13.0 -16.9 -13.05 -16.9" fill="#2a0000" fill-rule="evenodd" stroke="none"/>
      <path d="M-9.5 8.15 L-9.5 8.1 -8.25 8.3 -7.6 8.45 -7.05 8.65 Q-5.2 9.4 -3.85 10.5 -5.2 9.45 -7.05 8.7 L-7.6 8.45 -8.25 8.35 -8.95 8.25 -9.5 8.15 M-1.0 13.95 L-0.95 14.1 -1.45 13.2 -1.55 12.95 -1.4 13.15 -1.0 13.95 M-18.85 15.7 L-18.5 17.0 -18.45 17.05 -18.5 17.05 -18.85 15.7" fill="#581809" fill-rule="evenodd" stroke="none"/>
      <path d="M-4.85 5.5 L-4.9 5.55 -4.9 5.5 -4.85 5.5" fill="#9c9c74" fill-rule="evenodd" stroke="none"/>
      <path d="M-19.35 17.6 L-19.4 17.55 -19.35 16.05 -18.85 15.7 -18.5 17.05 -18.45 17.2 -18.5 17.25 -18.45 17.3 -18.4 17.35 -17.65 17.75 -17.55 17.8 -13.65 19.35 -13.4 19.4 -13.3 19.45 -13.25 19.45 -13.2 19.45 -13.0 19.55 -12.9 19.55 -12.1 19.75 -10.8 20.0 -9.15 20.05 -7.7 20.0 -7.35 19.95 -7.3 19.95 -7.25 19.95 -7.1 19.9 -6.3 19.8 -6.1 19.8 -5.7 19.7 -5.65 19.7 -5.45 19.7 -3.95 19.9 -5.1 20.3 -5.3 20.3 -9.6 20.7 -9.8 20.7 -11.55 20.6 -12.3 20.45 -15.45 19.45 Q-17.6 18.7 -19.2 17.65 L-19.35 17.6 M0.1 17.75 L0.05 17.8 0.05 17.75 0.1 17.75 M-13.0 19.55 L-13.25 19.45 -13.0 19.55" fill="#b0a100" fill-rule="evenodd" stroke="none"/>
      <path d="M-18.45 17.05 L-18.4 17.35 -18.45 17.3 -18.45 17.2 -18.5 17.05 -18.45 17.05 M-12.9 19.55 L-12.85 19.55 -12.1 19.75 -12.9 19.55" fill="#491407" fill-rule="evenodd" stroke="none"/>
      <path d="M9.65 8.9 L9.15 11.7 8.35 12.75 8.3 12.75 Q7.6 13.45 6.9 13.75 L5.6 13.9 5.6 12.05 5.55 12.05 4.3 13.4 Q2.25 15.85 1.2 19.35 L1.0 19.45 -0.25 20.15 -0.45 20.25 -0.6 20.3 -0.7 20.35 -0.95 20.5 -1.05 20.5 -1.1 20.55 -1.15 20.55 -3.4 21.4 -3.55 21.45 -3.75 21.5 -6.55 22.25 -6.4 22.2 Q-8.1 21.85 -9.6 20.7 L-5.3 20.3 -5.1 20.3 -3.95 19.9 0.25 18.3 Q1.1 16.25 2.4 14.25 L2.6 13.95 2.75 13.75 3.35 12.85 3.5 12.7 3.75 12.5 4.05 12.25 4.85 11.65 5.3 11.45 5.65 11.35 5.8 11.35 Q6.05 11.35 6.3 11.6 L6.8 11.9 7.4 11.65 7.6 11.5 7.85 11.25 8.15 10.9 Q8.65 10.15 8.75 9.5 L8.75 9.45 8.9 9.3 9.65 8.9 M-18.45 17.2 L-18.45 17.3 -18.5 17.25 -18.45 17.2 M-3.75 21.5 L-6.4 22.2 -3.75 21.5" fill="#7b5800" fill-rule="evenodd" stroke="none"/>
      <path d="M-6.55 22.25 L-7.95 22.55 -8.2 22.6 -10.65 22.6 Q-16.1 21.5 -18.85 19.6 L-19.35 17.6 -19.2 17.65 Q-17.6 18.7 -15.45 19.45 L-12.3 20.45 -11.55 20.6 -9.8 20.7 -9.6 20.7 Q-8.1 21.85 -6.4 22.2 L-6.55 22.25 M0.55 16.75 L0.1 17.75 0.1 17.7 0.55 16.75" fill="#a77b00" fill-rule="evenodd" stroke="none"/>
      <path d="M5.6 13.9 L5.55 13.9 4.3 13.4 5.55 12.05 5.6 12.05 5.6 13.9 M7.05 10.85 L8.25 9.85 8.75 9.45 8.75 9.5 Q8.65 10.15 8.15 10.9 L7.85 11.25 7.6 11.5 7.4 11.65 6.8 11.9 6.3 11.6 Q6.05 11.35 5.8 11.35 L5.65 11.35 5.3 11.45 4.85 11.65 4.05 12.25 3.75 12.5 3.5 12.7 3.35 12.85 2.75 13.75 2.6 13.95 2.4 14.25 Q1.1 16.25 0.25 18.3 L-3.95 19.9 -5.45 19.7 -5.45 19.65 -4.75 19.55 0.05 17.8 0.1 17.75 0.55 16.75 2.0 14.2 2.05 14.1 2.3 13.8 3.8 11.9 4.45 11.4 4.5 11.35 4.45 11.35 7.05 10.85 7.0 10.85 7.05 10.85" fill="#483500" fill-rule="evenodd" stroke="none"/>
      <path d="M8.75 -10.65 L7.9 -6.0 8.1 -4.8 8.05 -4.75 7.9 -4.8 7.05 -4.95 6.4 -4.85 5.25 -4.5 Q4.65 -4.25 3.8 -3.65 L3.3 -3.35 1.65 -2.15 1.45 -2.05 0.85 -1.8 -0.1 -1.8 -2.55 -1.8 -6.0 -2.55 -7.4 -3.05 -8.0 -3.35 -7.65 -2.95 -7.55 -2.85 Q-5.8 -1.2 -2.7 -0.65 -5.25 -0.35 -7.4 -1.35 L-9.25 -2.35 -9.95 -5.3 -9.9 -5.35 -10.0 -5.4 -10.55 -5.75 -10.6 -5.75 -12.9 -10.6 -12.75 -11.05 -12.75 -11.1 -14.6 -12.7 Q-11.6 -11.1 -9.4 -10.85 L-3.85 -11.4 0.65 -10.9 0.7 -10.85 0.85 -10.9 Q4.5 -11.75 6.7 -12.95 6.6 -8.55 -0.7 -3.9 1.5 -4.25 3.3 -5.3 L3.8 -5.6 5.0 -6.55 6.45 -8.05 8.45 -10.2 8.75 -10.65 M-10.55 8.05 L-9.95 8.1 -9.5 8.15 -8.95 8.25 -8.95 8.35 Q-9.95 8.55 -11.65 9.7 -12.95 10.6 -13.55 11.6 L-14.0 12.65 -14.05 12.8 -14.05 13.2 Q-14.05 15.7 -10.95 17.75 -9.1 18.95 -7.0 19.5 L-5.7 19.7 -6.1 19.8 -6.3 19.8 -7.1 19.9 -7.25 19.95 -7.3 19.95 -7.35 19.95 -7.7 20.0 -9.15 20.05 -10.8 20.0 -12.1 19.75 -12.85 19.55 -12.9 19.55 -13.0 19.55 -13.2 19.45 -13.25 19.45 -13.3 19.45 -13.4 19.4 -13.65 19.35 -17.55 17.8 -17.65 17.75 -18.4 17.35 -18.45 17.05 Q-15.2 18.65 -15.8 15.4 L-16.0 13.9 Q-16.0 12.1 -14.45 10.45 -12.95 8.85 -10.55 8.05 M-9.5 8.1 L-7.5 6.95 -7.5 6.9 -7.45 6.05 Q-7.2 5.05 -5.9 4.8 L-6.9 0.45 Q-5.65 1.05 -4.05 1.05 -2.45 1.05 -0.75 0.0 L-0.35 -0.3 -0.05 0.1 Q0.75 1.35 0.3 3.8 -0.15 6.6 -2.95 6.2 L-4.85 5.5 -4.9 5.5 -4.9 5.55 -3.6 6.8 -2.3 8.05 -4.4 7.6 -4.5 7.55 -5.4 7.5 -6.0 7.5 Q-3.55 8.35 -2.05 11.25 L-1.6 12.2 -1.4 12.6 -1.3 12.9 -1.0 13.95 -1.4 13.15 -1.55 12.95 -3.85 10.5 Q-5.2 9.4 -7.05 8.65 L-7.6 8.45 -8.25 8.3 -9.5 8.1 M-13.0 -16.95 L-11.2 -19.1 Q-9.1 -21.0 -6.25 -21.9 L-5.25 -22.15 Q-1.3 -23.05 3.85 -22.05 L3.5 -20.8 -4.25 -21.05 Q-8.6 -19.5 -10.35 -18.1 L-10.7 -17.8 -12.05 -16.4 -12.15 -16.45 -13.0 -16.9 -13.0 -16.95 M-2.4 -3.75 L-2.4 -3.7 -2.35 -3.7 -2.4 -3.75 M-5.9 6.8 L-7.5 6.95 -5.9 6.8 M-2.45 5.2 Q-3.75 4.4 -5.9 4.8 -3.75 4.4 -2.45 5.2" fill="#871a1b" fill-rule="evenodd" stroke="none"/>
      <path d="M-0.05 0.1 L0.55 -0.25 2.25 -0.95 4.0 -1.45 4.4 -1.45 Q4.8 0.75 3.55 3.85 5.95 5.25 6.15 6.45 L6.65 9.7 6.7 9.7 6.7 10.05 7.05 10.85 7.0 10.85 7.05 10.85 4.45 11.35 Q1.05 11.35 0.45 9.25 L1.25 12.85 0.85 12.7 -0.05 12.45 -0.35 12.35 -1.2 12.15 -1.45 12.15 -1.6 12.2 -2.05 11.25 Q-3.55 8.35 -6.0 7.5 L-5.4 7.5 -4.5 7.55 -4.4 7.6 -2.3 8.05 -3.6 6.8 -4.9 5.55 -4.85 5.5 -2.95 6.2 Q-0.15 6.6 0.3 3.8 0.75 1.35 -0.05 0.1 M0.05 17.8 L-4.75 19.55 -5.45 19.65 -5.45 19.7 -5.65 19.7 -5.7 19.7 -7.0 19.5 Q-9.1 18.95 -10.95 17.75 -14.05 15.7 -14.05 13.2 L-14.05 12.8 -14.0 12.65 -13.55 11.6 Q-12.95 10.6 -11.65 9.7 -9.95 8.55 -8.95 8.35 L-8.25 8.35 -7.6 8.45 -7.05 8.7 Q-5.2 9.45 -3.85 10.5 L-1.55 12.95 -1.45 13.2 -0.95 14.1 -1.0 13.95 -1.3 12.9 -1.4 12.6 -1.15 12.7 -1.0 12.95 -0.85 13.55 -0.75 13.75 -0.7 14.1 -0.6 14.45 -0.35 15.1 -0.15 15.75 -0.1 16.25 0.05 17.2 0.05 17.75 0.05 17.8 M6.65 9.75 L6.65 9.7 6.65 9.75" fill="#5e1212" fill-rule="evenodd" stroke="none"/>
      <path d="M3.85 -22.05 L7.3 -21.25 10.2 -18.5 10.4 -17.2 9.7 -15.35 9.15 -11.45 8.75 -10.65 8.45 -10.2 6.45 -8.05 5.0 -6.55 3.8 -5.6 3.3 -5.3 Q1.5 -4.25 -0.7 -3.9 6.6 -8.55 6.7 -12.95 4.5 -11.75 0.85 -10.9 L0.7 -10.85 0.65 -10.9 -3.85 -11.4 -9.4 -10.85 Q-11.6 -11.1 -14.6 -12.7 -14.35 -14.25 -13.75 -15.6 L-13.6 -15.95 -13.05 -16.9 -13.0 -16.9 -12.15 -16.45 -12.05 -16.4 Q-13.15 -14.95 -12.75 -13.75 L-12.15 -13.15 -9.3 -12.75 -7.1 -12.8 -6.6 -12.85 Q-2.6 -13.4 0.8 -12.85 L3.2 -13.55 4.1 -13.85 Q7.5 -15.15 8.95 -17.1 9.6 -18.55 6.3 -20.0 L3.5 -20.8 3.85 -22.05 M-18.85 15.7 L-19.15 14.15 Q-18.95 10.4 -14.7 8.8 -12.95 7.95 -10.55 8.05 -12.95 8.85 -14.45 10.45 -16.0 12.1 -16.0 13.9 L-15.8 15.4 Q-15.2 18.65 -18.45 17.05 L-18.5 17.0 -18.85 15.7 M8.85 -13.15 L9.7 -15.35 8.85 -13.15" fill="#ab2222" fill-rule="evenodd" stroke="none"/>
      <path d="M8.1 -4.75 L8.75 -1.3 8.95 -0.7 Q10.25 3.7 9.65 8.9 L8.9 9.3 8.75 9.45 8.25 9.85 7.05 10.85 6.7 10.05 6.7 9.7 6.65 9.7 6.15 6.45 Q5.95 5.25 3.55 3.85 4.8 0.75 4.4 -1.45 L4.0 -1.45 2.25 -0.95 0.55 -0.25 -0.05 0.1 -0.35 -0.3 -0.75 0.0 Q-2.45 1.05 -4.05 1.05 -5.65 1.05 -6.9 0.45 L-6.95 0.4 -7.4 -1.35 Q-5.25 -0.35 -2.7 -0.65 -5.8 -1.2 -7.55 -2.85 L-7.4 -3.05 -6.0 -2.55 -2.55 -1.8 -0.1 -1.8 0.85 -1.8 1.45 -2.05 1.65 -2.15 3.3 -3.35 3.8 -3.65 Q4.65 -4.25 5.25 -4.5 L6.4 -4.85 7.05 -4.95 7.9 -4.8 8.05 -4.75 8.1 -4.75 M6.1 -3.25 L6.2 -3.15 6.25 -3.2 6.1 -3.25 M4.45 11.4 L3.8 11.9 2.3 13.8 2.05 14.1 2.0 14.2 0.55 16.75 0.1 17.7 0.1 17.75 0.05 17.75 0.05 17.2 -0.1 16.25 -0.15 15.75 -0.35 15.1 -0.6 14.45 -0.7 14.1 -0.75 13.75 -0.85 13.55 -1.0 12.95 -1.15 12.7 -1.4 12.6 -1.6 12.2 -1.45 12.15 -1.2 12.15 -0.35 12.35 -0.05 12.45 0.85 12.7 1.25 12.85 0.45 9.25 Q1.05 11.35 4.45 11.35 L4.5 11.35 4.45 11.4 4.45 11.35 4.45 11.4" fill="#4f0f0f" fill-rule="evenodd" stroke="none"/>
      <path d="M3.85 -22.05 L7.3 -21.25 10.2 -18.5 10.4 -17.2 9.7 -15.35 9.15 -11.45 8.75 -10.65 7.9 -6.0 8.1 -4.8 8.1 -4.75 8.75 -1.3 8.95 -0.7 Q10.25 3.7 9.65 8.9 L9.15 11.7 8.35 12.75 8.3 12.75 Q7.6 13.45 6.9 13.75 L5.6 13.9 5.55 13.9 4.3 13.4 Q2.25 15.85 1.2 19.35 L1.0 19.45 -0.25 20.15 -0.45 20.25 -0.6 20.3 -0.7 20.35 -0.95 20.5 -1.05 20.5 -1.1 20.55 -1.15 20.55 -3.4 21.4 -3.55 21.45 -3.75 21.5 M-6.55 22.25 L-7.95 22.55 -8.2 22.6 -10.65 22.6 Q-16.1 21.5 -18.85 19.6 L-19.35 17.6 -19.4 17.55 -19.35 16.05 -18.85 15.7 -19.15 14.15 Q-18.95 10.4 -14.7 8.8 -12.95 7.95 -10.55 8.05 L-9.95 8.1 -9.5 8.15 -9.5 8.1 -7.5 6.95 -7.5 6.9 -7.45 6.05 Q-7.2 5.05 -5.9 4.8 L-6.9 0.45 -6.95 0.4 -7.4 -1.35 -9.25 -2.35 -9.95 -5.3 -9.9 -5.35 -10.0 -5.4 -10.55 -5.75 -10.6 -5.75 -12.9 -10.6 -12.75 -11.05 M-12.75 -11.1 L-14.6 -12.7 Q-14.35 -14.25 -13.75 -15.6 L-13.6 -15.95 -13.05 -16.9 -13.0 -16.95 -11.2 -19.1 Q-9.1 -21.0 -6.25 -21.9 L-5.25 -22.15 Q-1.3 -23.05 3.85 -22.05 M9.7 -15.35 L8.85 -13.15 M8.75 -10.65 L8.45 -10.2 6.45 -8.05 M-6.4 22.2 L-6.55 22.25 M-6.4 22.2 L-3.75 21.5" fill="none" stroke="#000000" stroke-linecap="round" stroke-linejoin="round" stroke-opacity="0.3019608" stroke-width="0.05"/>
      <path d="M3.5 -20.8 L6.3 -20.0 Q9.6 -18.55 8.95 -17.1 7.5 -15.15 4.1 -13.85 L3.2 -13.55 0.8 -12.85 Q-2.6 -13.4 -6.6 -12.85 L-7.1 -12.8 -9.3 -12.75 -12.15 -13.15 -12.75 -13.75 Q-13.15 -14.95 -12.05 -16.4 M6.7 9.7 L6.7 10.05 7.05 10.85 8.25 9.85 M4.45 11.4 L3.8 11.9 2.3 13.8 2.05 14.1 2.0 14.2 0.55 16.75 0.1 17.75 0.05 17.8 -4.75 19.55 -5.45 19.65 -5.45 19.7 M4.45 11.35 L7.05 10.85 7.0 10.85 7.05 10.85 M4.45 11.35 L4.45 11.4 M6.65 9.7 L6.65 9.75 M0.05 17.75 L0.1 17.75 0.1 17.7 0.55 16.75 M-0.95 14.1 L-1.45 13.2 -1.55 12.95 -3.85 10.5 Q-5.2 9.45 -7.05 8.7 L-7.6 8.45 -8.25 8.35 -8.95 8.25 -9.5 8.15 M-5.7 19.7 L-5.65 19.7 -5.45 19.7 M3.5 -20.8 L-4.25 -21.05 Q-8.6 -19.5 -10.35 -18.1 L-10.7 -17.8 -12.05 -16.4 M-2.7 -0.65 Q-5.25 -0.35 -7.4 -1.35 M-7.5 6.95 L-5.9 6.8 M-9.5 8.1 L-8.25 8.3 -7.6 8.45 -7.05 8.65 Q-5.2 9.4 -3.85 10.5 M-5.9 4.8 Q-3.75 4.4 -2.45 5.2 M-18.45 17.05 L-18.4 17.35 -17.65 17.75 -17.55 17.8 -13.65 19.35 -13.4 19.4 -13.3 19.45 M-13.25 19.45 L-13.2 19.45 -13.0 19.55 -12.9 19.55 -12.85 19.55 -12.1 19.75 -10.8 20.0 -9.15 20.05 -7.7 20.0 -7.35 19.95 -7.3 19.95 M-7.1 19.9 L-6.3 19.8 -6.1 19.8 -5.7 19.7 M-18.85 15.7 L-18.5 17.0 -18.45 17.05 M-18.45 17.2 L-18.45 17.3 M-13.25 19.45 L-13.0 19.55 M-12.9 19.55 L-12.1 19.75 M-1.55 12.95 L-1.4 13.15 -1.0 13.95" fill="none" stroke="#000000" stroke-linecap="round" stroke-linejoin="round" stroke-opacity="0.15294118" stroke-width="0.05"/>
      <path d="M19.35 -6.5 L19.4 -6.35 19.15 -5.85 Q18.55 -5.15 15.95 -3.35 L16.0 -3.4 15.6 -3.1 14.9 -2.6 14.45 -2.35 13.6 -2.3 13.3 -2.35 11.95 -2.6 Q13.45 -2.6 15.9 -3.9 18.3 -5.25 19.35 -6.5 M16.9 -1.9 L17.0 -1.85 Q15.7 -0.2 12.6 1.15 L10.05 2.15 8.35 2.45 7.15 3.95 Q6.6 4.45 6.1 4.55 L5.95 4.6 5.7 4.55 5.7 4.6 Q4.7 4.7 3.85 4.25 2.35 3.4 2.15 1.8 2.55 2.7 3.6 2.7 4.3 2.7 4.7 2.15 L5.5 3.05 6.8 3.5 Q7.65 3.5 8.7 1.85 L9.05 0.8 9.3 -0.85 Q9.35 -1.9 8.95 -2.3 L7.5 -2.25 Q6.55 -1.8 6.8 0.3 L6.6 -0.55 6.4 -1.35 Q6.4 -3.8 8.9 -3.8 9.8 -3.8 10.35 -3.1 11.0 -2.3 11.0 -0.85 L10.65 0.6 10.6 0.75 Q13.85 0.1 16.9 -1.9 M16.6 -9.35 L16.6 -9.3 15.45 -7.4 14.1 -5.95 13.7 -5.6 12.85 -4.85 10.1 -5.1 Q13.4 -6.45 15.5 -8.3 L16.6 -9.35 M8.35 2.45 L8.7 1.85 8.35 2.45" fill="#7d5c12" fill-rule="evenodd" stroke="none"/>
      <path d="M14.1 -5.95 L17.0 -6.6 Q18.6 -6.8 19.15 -6.6 L19.35 -6.5 Q18.3 -5.25 15.9 -3.9 13.45 -2.6 11.95 -2.6 L13.3 -2.35 13.6 -2.3 14.45 -2.35 16.9 -1.9 Q13.85 0.1 10.6 0.75 L10.65 0.6 11.0 -0.85 Q11.0 -2.3 10.35 -3.1 9.8 -3.8 8.9 -3.8 6.4 -3.8 6.4 -1.35 L6.6 -0.55 6.8 0.3 Q6.55 -1.8 7.5 -2.25 L8.95 -2.3 Q9.35 -1.9 9.3 -0.85 L9.05 0.8 8.7 1.85 Q7.65 3.5 6.8 3.5 L5.5 3.05 4.7 2.15 Q4.3 2.7 3.6 2.7 2.55 2.7 2.15 1.8 L2.15 1.55 2.15 0.65 Q2.2 -0.6 2.8 -2.55 3.85 -6.8 16.05 -9.25 L16.6 -9.35 15.5 -8.3 Q13.4 -6.45 10.1 -5.1 L12.85 -4.85 13.7 -5.6 14.1 -5.95" fill="#a77b00" fill-rule="evenodd" stroke="none"/>
      <path d="M14.1 -5.95 L17.0 -6.6 Q18.6 -6.8 19.15 -6.6 L19.35 -6.5 19.4 -6.35 19.15 -5.85 Q18.55 -5.15 15.95 -3.35 L15.6 -3.1 14.9 -2.6 14.45 -2.35 16.9 -1.9 M17.0 -1.85 Q15.7 -0.2 12.6 1.15 L10.05 2.15 8.35 2.45 7.15 3.95 Q6.6 4.45 6.1 4.55 L5.95 4.6 5.7 4.6 Q4.7 4.7 3.85 4.25 2.35 3.4 2.15 1.8 L2.15 1.55 2.15 0.65 Q2.2 -0.6 2.8 -2.55 3.85 -6.8 16.05 -9.25 L16.6 -9.35 16.6 -9.3 15.45 -7.4 14.1 -5.95 13.7 -5.6 12.85 -4.85 M6.8 0.3 Q6.55 -1.8 7.5 -2.25 L8.95 -2.3 Q9.35 -1.9 9.3 -0.85 L9.05 0.8 8.7 1.85 8.35 2.45 M16.0 -3.4 L15.6 -3.1 M13.3 -2.35 L13.6 -2.3 14.45 -2.35" fill="none" stroke="#000000" stroke-linecap="round" stroke-linejoin="round" stroke-opacity="0.3019608" stroke-width="0.05"/>
      <path d="M7.5 -5.15 Q5.0 -3.5 3.75 0.9 2.2 -1.85 4.9 -4.3 7.1 -6.35 12.45 -7.9 9.95 -6.85 7.5 -5.15" fill="#b0a100" fill-rule="evenodd" stroke="none"/>
      <path d="M8.3 -2.05 L8.3 -2.0 Q7.6 -1.3 7.65 -0.25 L7.55 -0.05 Q6.5 -0.65 7.5 -1.85 L8.0 -2.2 8.3 -2.05" fill="#b0a100" fill-rule="evenodd" stroke="none"/>
      <path d="M-7.45 -6.45 L-7.4 -10.5 -5.35 -5.95 -4.55 -10.85 -2.25 -1.8 -2.55 -1.8 -6.0 -2.55 -7.4 -3.05 -8.0 -3.35 Q-7.5 -2.75 -6.8 -2.25 L-8.4 -2.5 -8.85 -4.95 -9.8 -10.25 -7.45 -6.45 M-5.3 -4.2 L-8.85 -4.95 -5.3 -4.2" fill="#a77b00" fill-rule="evenodd" stroke="none"/>
      <path d="M-6.8 -2.25 Q-7.5 -2.75 -8.0 -3.35 L-7.4 -3.05 -6.0 -2.55 -2.55 -1.8 -2.25 -1.8 -2.2 -1.8 -2.05 -1.15 -6.8 -2.25" fill="#784c00" fill-rule="evenodd" stroke="none"/>
      <path d="M-8.85 -4.95 L-5.3 -4.2 M-8.85 -4.95 L-9.25 -5.1 -9.9 -5.35" fill="none" stroke="#000000" stroke-linecap="round" stroke-linejoin="round" stroke-opacity="0.15294118" stroke-width="0.05"/>
      <path d="M-7.45 -6.45 L-9.8 -10.25 M-2.25 -1.8 L-4.55 -10.85 M-5.35 -5.95 L-7.4 -10.5 M-6.8 -2.25 L-8.4 -2.5 M-2.25 -1.8 L-2.2 -1.8 -2.05 -1.15 -6.8 -2.25" fill="none" stroke="#7d5c12" stroke-linecap="round" stroke-linejoin="round" stroke-width="0.05"/>
    </g>
    <g id="sprite1" transform="matrix(1.0, 0.0, 0.0, 1.0, 0.0, 0.0)">
      <use height="15.35" transform="matrix(1.409, -1.409, 1.409, 1.409, 0.0, 27.75)" width="19.7" xlink:href="#sprite2"/>
      <use height="39.45" transform="matrix(1.0, 0.0, 0.0, 1.0, 11.1, 1.6)" width="44.6" xlink:href="#shape3"/>
    </g>
    <g id="sprite2" transform="matrix(1.0, 0.0, 0.0, 1.0, 0.0, 0.0)">
      <use height="15.35" transform="matrix(1.0, 0.0, 0.0, 1.0, 0.0, 0.0)" width="19.7" xlink:href="#shape2"/>
    </g>
    <g id="shape2" transform="matrix(1.0, 0.0, 0.0, 1.0, 0.0, 0.0)">
      <path d="M13.55 8.2 L0.0 4.55 12.95 9.7 10.55 15.35 13.7 10.25 17.9 10.6 14.75 8.8 18.7 0.0 13.55 8.2" fill="#fcf3d8" fill-opacity="0.5921569" fill-rule="evenodd" stroke="none"/>
      <path d="M10.25 9.3 Q9.6 10.5 7.0 11.1 9.3 10.7 10.6 11.6 11.05 12.5 11.9 13.05 13.15 13.85 14.6 13.45 16.25 13.05 17.05 11.7 L19.7 12.8 17.45 10.65 Q17.8 9.75 17.65 8.6 17.45 7.5 16.9 6.85 L17.4 5.35 16.0 6.2 15.95 6.05 Q14.65 5.35 13.2 5.65 11.75 6.15 10.85 7.5 10.35 8.35 10.25 9.3 M15.95 8.85 Q16.1 9.7 15.65 10.3 15.2 11.1 14.45 11.25 13.7 11.45 13.1 11.05 12.35 10.6 12.25 9.85 12.15 9.05 12.6 8.3 13.0 7.55 13.8 7.3 14.45 7.2 15.15 7.6 15.8 8.1 15.95 8.85" fill="#fcf3d8" fill-opacity="0.22352941" fill-rule="evenodd" stroke="none"/>
      <path d="M15.95 8.85 Q15.8 8.1 15.15 7.6 14.45 7.2 13.8 7.3 13.0 7.55 12.6 8.3 12.15 9.05 12.25 9.85 12.35 10.6 13.1 11.05 13.7 11.45 14.45 11.25 15.2 11.1 15.65 10.3 16.1 9.7 15.95 8.85" fill="#fcf3d8" fill-opacity="0.6313726" fill-rule="evenodd" stroke="none"/>
    </g>
    <g id="shape3" transform="matrix(1.0, 0.0, 0.0, 1.0, -11.1, -1.6)">
      <path d="M52.95 34.75 Q48.75 40.75 39.9 41.05 31.15 41.35 22.85 35.55 14.9 30.0 12.0 21.9 9.5 13.75 13.9 7.75 18.1 1.8 26.85 1.6 35.6 1.6 43.7 7.15 51.85 12.75 54.75 20.8 57.35 28.9 52.95 34.75" fill="url(#gradient0)" fill-rule="evenodd" stroke="none"/>
    </g>
    <radialGradient cx="0" cy="0" gradientTransform="matrix(-0.031, -0.0213, 0.0165, -0.0225, 33.5, 21.3)" gradientUnits="userSpaceOnUse" id="gradient0" r="819.2" spreadMethod="pad">
      <stop offset="0.0" stop-color="#ffffde" stop-opacity="0.3882353"/>
      <stop offset="0.4117647058823529" stop-color="#ffffcc" stop-opacity="0.0"/>
    </radialGradient>
  </defs>
</svg>
