<?xml version="1.0" encoding="UTF-8" standalone="no"?>
<svg xmlns:xlink="http://www.w3.org/1999/xlink" height="520.0px" width="520.0px" xmlns="http://www.w3.org/2000/svg">
  <g transform="matrix(10.0, 0.0, 0.0, 10.0, 0.0, 0.0)">
    <use height="52.0" transform="matrix(1.0, 0.0, 0.0, 1.0, 0.0, 0.0)" width="52.0" xlink:href="#shape0"/>
    <use height="67.55" transform="matrix(-0.7612, 0.0, -0.0594, 0.7616, 51.0173, 0.6435)" width="62.1" xlink:href="#sprite0"/>
  </g>
  <defs>
    <g id="shape0" transform="matrix(1.0, 0.0, 0.0, 1.0, 0.0, 0.0)">
      <path d="M52.0 0.0 L52.0 52.0 0.0 52.0 0.0 0.0 52.0 0.0" fill="#33cc33" fill-opacity="0.0" fill-rule="evenodd" stroke="none"/>
    </g>
    <g id="sprite0" transform="matrix(1.0, 0.0, 0.0, 1.0, 4.95, -5.9)">
      <clipPath id="clipPath0" transform="matrix(1.0, 0.0, 0.0, 1.0, 4.95, -5.9)">
        <use height="66.75" transform="matrix(1.0, 0.0, 0.0, 1.0, -1.1, 5.9)" width="58.25" xlink:href="#shape1"/>
      </clipPath>
      <g clip-path="url(#clipPath0)">
        <use height="51.8" transform="matrix(1.0, 0.0, 0.0, 1.0, 15.6, 12.0)" width="36.65" xlink:href="#shape2"/>
        <use height="65.75" transform="matrix(0.9263, -0.1916, 0.0679, 0.8415, 7.3537, 14.7596)" width="46.15" xlink:href="#sprite1"/>
        <use height="64.6" transform="matrix(1.0, 0.0, 0.0, 1.0, 0.85, 7.2)" width="38.9" xlink:href="#shape8"/>
        <use height="65.75" transform="matrix(1.0, 0.0, 0.0, 1.0, -4.95, 7.7)" width="46.15" xlink:href="#sprite1"/>
      </g>
    </g>
    <g id="shape1" transform="matrix(1.0, 0.0, 0.0, 1.0, 1.1, -5.9)">
      <path d="M57.15 72.65 L-1.1 72.65 -1.1 5.9 57.15 5.9 57.15 72.65" fill="#003366" fill-rule="evenodd" stroke="none"/>
    </g>
    <g id="shape2" transform="matrix(1.0, 0.0, 0.0, 1.0, -15.6, -12.0)">
      <path d="M49.0 47.75 Q49.15 44.65 47.45 44.5 L47.4 44.5 46.4 44.35 44.35 44.05 Q43.8 43.0 42.85 42.35 41.75 41.5 39.95 41.35 L38.75 41.3 37.45 41.4 35.75 41.45 Q35.45 41.65 35.35 41.8 L32.6 40.5 32.5 39.4 Q32.25 36.55 32.35 33.9 L32.4 33.05 Q32.6 30.2 33.2 27.55 33.7 25.15 34.6 22.95 37.2 21.85 36.4 20.75 L36.3 20.5 35.9 20.3 33.55 18.05 30.25 15.65 Q26.6 13.35 22.6 12.8 L16.85 12.95 Q15.95 13.5 16.3 14.7 15.95 18.2 16.25 21.4 16.7 27.7 19.35 32.9 L19.85 33.9 20.45 34.9 21.05 35.9 21.7 37.85 21.65 40.4 Q20.15 42.2 20.55 43.7 19.7 44.75 19.15 45.9 18.6 47.35 18.8 48.95 L17.0 50.0 Q16.45 50.35 16.25 51.55 L16.6 53.45 17.3 54.45 18.4 54.6 18.7 55.8 Q19.15 57.7 19.1 59.65 L19.45 59.95 19.45 60.7 Q21.15 61.65 24.0 61.75 L25.0 61.55 31.25 58.0 31.05 62.5 Q31.7 63.05 32.9 63.25 L36.8 63.05 36.9 63.05 38.0 62.6 Q41.0 60.45 44.35 58.75 L46.95 57.45 47.55 56.65 47.3 54.0 47.4 53.3 47.5 52.5 51.3 50.45 51.75 48.85 51.1 47.9 49.0 47.75 Z" fill="none" stroke="#000000" stroke-linecap="round" stroke-linejoin="round" stroke-opacity="0.3019608" stroke-width="1.0"/>
    </g>
    <g id="sprite1" transform="matrix(1.0, 0.0, 0.0, 1.0, 0.05, 0.0)">
      <clipPath id="clipPath1" transform="matrix(1.0, 0.0, 0.0, 1.0, 0.05, 0.0)">
        <use height="63.6" transform="matrix(1.0, 0.0, 0.0, 1.0, 6.25, 0.0)" width="37.9" xlink:href="#shape3"/>
      </clipPath>
      <g clip-path="url(#clipPath1)">
        <use height="25.2" transform="matrix(1.0, 0.0, 0.0, 1.0, 6.25, 38.4)" width="37.9" xlink:href="#shape4"/>
        <use height="141.85" transform="matrix(0.1344, 0.0468, -0.0887, 0.0381, 26.2, 42.55)" width="148.25" xlink:href="#sprite2"/>
        <use height="52.75" transform="matrix(1.0, 0.0, 0.0, 1.0, 8.8, 0.0)" width="32.65" xlink:href="#shape6"/>
        <use height="136.85" transform="matrix(0.1539, 0.0412, 0.0243, 0.2537, 13.6627, 16.9767)" width="148.25" xlink:href="#sprite3"/>
        <use height="141.85" transform="matrix(0.2386, 0.0529, -0.0032, 0.1026, 0.4, 43.35)" width="148.25" xlink:href="#sprite2"/>
      </g>
    </g>
    <g id="shape3" transform="matrix(1.0, 0.0, 0.0, 1.0, -6.25, 0.0)">
      <path d="M41.35 48.6 L43.55 49.3 44.15 50.55 43.55 52.35 39.35 53.85 39.2 54.75 39.05 55.55 Q38.85 57.1 39.0 58.65 L38.35 59.5 35.45 60.35 Q31.75 61.55 28.4 63.35 L27.2 63.6 27.1 63.6 22.95 62.85 Q21.65 62.35 21.0 61.5 21.5 58.65 21.6 56.35 L14.7 58.95 13.6 58.95 Q10.6 58.2 8.85 56.65 L8.9 55.75 8.6 55.3 Q8.8 53.05 8.5 50.75 L8.25 49.25 Q7.7 49.05 7.15 48.8 L6.5 47.5 6.25 45.15 Q6.6 43.8 7.2 43.55 L9.15 42.75 Q9.1 40.85 9.85 39.3 10.45 38.05 11.5 37.0 11.2 35.2 12.95 33.45 L13.2 30.5 12.7 28.05 12.15 26.75 11.6 25.4 11.1 24.1 Q8.75 17.4 8.8 9.95 8.8 6.1 9.45 2.1 9.2 0.6 10.2 0.2 11.7 -0.5 16.3 1.35 20.5 3.05 24.2 6.6 L27.45 10.15 29.8 13.35 30.15 13.75 30.3 14.05 Q31.05 15.5 28.2 16.15 27.05 18.55 26.3 21.2 25.4 24.15 25.0 27.45 L24.85 28.4 Q24.5 31.5 24.55 34.9 L24.55 36.2 27.35 38.4 Q27.5 38.2 27.8 38.1 29.75 37.2 29.65 38.45 L31.05 38.6 Q32.2 38.2 32.3 38.95 34.15 39.55 35.3 40.85 36.2 41.85 36.7 43.2 L38.85 44.05 39.95 44.45 40.0 44.45 Q41.8 45.05 41.35 48.6" fill="#003333" fill-rule="evenodd" stroke="none"/>
    </g>
    <g id="shape4" transform="matrix(1.0, 0.0, 0.0, 1.0, -6.25, -38.4)">
      <path d="M35.3 40.85 Q36.25 41.9 36.75 43.35 L27.2 39.8 Q27.3 38.95 28.55 38.55 L35.3 41.85 35.3 40.85" fill="#b76a1e" fill-rule="evenodd" stroke="none"/>
      <path d="M28.55 38.55 L29.15 38.4 Q33.25 38.55 35.3 40.85 L35.3 41.85 28.55 38.55" fill="#dc8526" fill-rule="evenodd" stroke="none"/>
      <path d="M35.3 40.85 Q36.25 41.9 36.75 43.35 L27.2 39.8 Q27.3 38.95 28.55 38.55 L29.15 38.4 Q33.25 38.55 35.3 40.85 Z" fill="none" stroke="#000000" stroke-linecap="round" stroke-linejoin="round" stroke-opacity="0.3019608" stroke-width="0.05"/>
      <path d="M9.4 45.6 L7.2 43.55 10.7 42.05 20.4 41.7 43.55 49.3 39.9 50.55 39.15 50.75 35.7 49.9 34.9 49.6 37.75 51.1 30.55 52.95 Q28.95 53.7 27.3 52.95 L25.95 52.4 Q20.4 49.6 12.3 46.8 L9.4 45.6 M39.2 54.75 L39.05 55.55 Q34.55 58.1 35.45 60.35 31.75 61.55 28.4 63.35 L27.35 61.25 27.55 57.95 30.2 57.95 39.2 54.75 M19.95 57.0 L14.7 58.95 14.0 56.85 14.05 54.7 17.6 53.95 19.95 57.0 M8.85 56.35 L8.9 55.75 10.25 57.15 8.85 56.35 M8.25 49.25 Q7.7 49.05 7.15 48.8 L6.5 47.5 18.05 53.15 14.5 51.75 11.35 50.5 8.25 49.25" fill="#523c1b" fill-rule="evenodd" stroke="none"/>
      <path d="M44.15 50.55 L43.55 52.35 39.35 53.85 29.85 57.25 Q29.45 56.85 29.85 54.95 L30.55 52.95 37.75 51.1 38.4 52.85 38.4 51.9 39.15 50.75 39.9 50.55 44.15 50.55 M8.5 50.75 L8.25 49.25 11.35 50.5 14.5 51.75 14.2 52.95 11.35 52.0 11.35 53.55 10.35 51.5 8.5 50.75 M11.35 52.0 L11.35 50.5 11.35 52.0 M21.65 55.35 L21.6 54.55 26.05 56.3 27.7 56.95 27.55 57.95 25.9 57.35 25.45 58.55 25.05 56.95 21.65 55.35 M26.05 56.3 L25.9 57.35 26.05 56.3" fill="#805d28" fill-rule="evenodd" stroke="none"/>
      <path d="M6.25 45.15 L9.4 45.6 12.3 46.8 20.2 50.85 25.95 52.4 27.3 52.95 Q28.5 54.05 28.9 55.45 L28.55 57.25 27.7 56.95 26.05 56.3 21.6 54.55 18.05 53.15 6.5 47.5 6.25 45.15 M27.1 63.6 L22.95 62.85 Q21.65 62.35 21.0 61.5 21.5 58.65 21.6 56.35 L21.65 55.35 25.05 56.95 25.45 58.55 25.9 57.35 27.55 57.95 27.35 61.25 27.1 63.6 M13.6 58.95 Q10.6 58.2 8.85 56.65 L8.85 56.35 10.25 57.15 8.9 55.75 8.6 55.3 Q8.8 53.05 8.5 50.75 L10.35 51.5 11.35 53.55 11.35 52.0 14.2 52.95 14.05 54.7 14.0 56.85 13.6 58.95 M23.45 59.55 L22.95 62.85 23.45 59.55" fill="#946a2e" fill-rule="evenodd" stroke="none"/>
      <path d="M6.25 45.15 Q6.6 43.8 7.2 43.55 L9.4 45.6 6.25 45.15 M43.55 49.3 L44.15 50.55 39.9 50.55 43.55 49.3 M28.4 63.35 L27.2 63.6 27.1 63.6 27.35 61.25 28.4 63.35 M14.7 58.95 L13.6 58.95 14.0 56.85 14.7 58.95 M12.3 46.8 Q20.4 49.6 25.95 52.4 L20.2 50.85 12.3 46.8 M27.3 52.95 Q28.95 53.7 30.55 52.95 L29.85 54.95 Q29.45 56.85 29.85 57.25 L28.55 57.25 28.9 55.45 Q28.5 54.05 27.3 52.95 M35.7 49.9 L39.15 50.75 38.4 51.9 38.4 50.95 38.35 50.95 35.7 49.9" fill="#a87935" fill-rule="evenodd" stroke="none"/>
      <path d="M37.75 51.1 L34.9 49.6 35.7 49.9 38.35 50.95 38.4 50.95 38.4 51.9 38.4 52.85 37.75 51.1" fill="#302018" fill-rule="evenodd" stroke="none"/>
      <path d="M39.35 53.85 L39.2 54.75 30.2 57.95 27.55 57.95 27.7 56.95 28.55 57.25 29.85 57.25 39.35 53.85 M39.05 55.55 Q38.85 57.1 39.0 58.65 L38.35 59.5 35.45 60.35 Q34.55 58.1 39.05 55.55 M21.6 56.35 L19.95 57.0 17.6 53.95 14.05 54.7 14.2 52.95 14.5 51.75 18.05 53.15 21.6 54.55 21.65 55.35 21.6 56.35" fill="#402f15" fill-rule="evenodd" stroke="none"/>
      <path d="M7.2 43.55 Q6.6 43.8 6.25 45.15 M7.2 43.55 L10.7 42.05 20.4 41.7 43.55 49.3 44.15 50.55 43.55 52.35 39.35 53.85 39.2 54.75 39.05 55.55 Q38.85 57.1 39.0 58.65 L38.35 59.5 35.45 60.35 Q31.75 61.55 28.4 63.35 L27.2 63.6 27.1 63.6 22.95 62.85 Q21.65 62.35 21.0 61.5 21.5 58.65 21.6 56.35 L19.95 57.0 14.7 58.95 13.6 58.95 Q10.6 58.2 8.85 56.65 L8.85 56.35 8.9 55.75 8.6 55.3 Q8.8 53.05 8.5 50.75 L8.25 49.25 Q7.7 49.05 7.15 48.8 L6.5 47.5 6.25 45.15 M14.5 51.75 L11.35 50.5 11.35 52.0 11.35 53.55 M8.25 49.25 L11.35 50.5 M21.6 54.55 L21.65 55.35 M25.45 58.55 L25.9 57.35 26.05 56.3 21.6 54.55 18.05 53.15 14.5 51.75 M29.85 57.25 L39.35 53.85 M26.05 56.3 L27.7 56.95 28.55 57.25 29.85 57.25 M22.95 62.85 L23.45 59.55 M8.9 55.75 L10.25 57.15 M21.6 56.35 L21.65 55.35" fill="none" stroke="#000000" stroke-linecap="round" stroke-linejoin="round" stroke-opacity="0.3019608" stroke-width="0.05"/>
    </g>
    <g id="sprite2" transform="matrix(1.0, 0.0, 0.0, 1.0, 0.0, 0.0)">
      <use height="141.85" transform="matrix(1.0, 0.0, 0.0, 1.0, 0.0, 0.0)" width="148.25" xlink:href="#shape5"/>
    </g>
    <g id="shape5" transform="matrix(1.0, 0.0, 0.0, 1.0, 0.0, 0.0)">
      <path d="M104.5 7.8 L110.15 10.7 Q133.55 23.85 143.25 48.75 154.05 76.6 141.5 102.75 128.95 128.9 100.3 138.05 71.7 147.25 43.8 134.05 15.9 120.85 5.05 93.05 -5.8 65.25 6.75 39.15 L6.8 39.05 Q19.4 12.95 48.0 3.75 76.6 -5.4 104.5 7.8" fill="url(#gradient0)" fill-rule="evenodd" stroke="none"/>
    </g>
    <radialGradient cx="0" cy="0" gradientTransform="matrix(0.0914, 0.0, 0.0, 0.0948, 74.1, 70.9)" gradientUnits="userSpaceOnUse" id="gradient0" r="819.2" spreadMethod="pad">
      <stop offset="0.0" stop-color="#000000"/>
      <stop offset="0.8862745098039215" stop-color="#000000" stop-opacity="0.0"/>
    </radialGradient>
    <g id="shape6" transform="matrix(1.0, 0.0, 0.0, 1.0, -8.8, 0.0)">
      <path d="M11.1 45.25 Q9.35 44.35 9.15 43.35 8.95 41.1 9.85 39.3 10.45 38.05 11.5 37.0 11.2 35.2 12.95 33.45 L13.2 30.5 12.7 28.05 12.15 26.75 11.6 25.4 11.1 24.1 Q8.75 17.4 8.8 9.95 8.8 6.1 9.45 2.1 9.2 0.6 10.2 0.2 L10.05 0.9 Q9.65 5.05 14.7 9.9 18.6 13.7 25.9 15.4 L25.95 15.4 29.25 14.95 Q29.95 14.6 30.3 14.05 31.05 15.5 28.2 16.15 L27.2 16.35 25.75 16.25 Q22.4 15.8 20.4 14.4 18.85 17.25 18.25 19.7 17.9 20.85 17.8 21.95 15.6 23.05 12.0 23.9 15.6 23.05 17.8 21.95 L17.7 23.3 Q17.6 25.5 17.8 27.5 L17.85 28.25 18.2 30.7 Q18.55 32.9 20.35 34.9 L21.3 35.85 20.15 35.5 Q17.0 34.4 15.0 32.6 17.0 34.4 20.15 35.5 L21.3 35.85 21.45 35.9 21.4 35.95 22.6 36.9 Q20.0 39.7 24.0 41.75 L20.0 42.9 17.75 43.95 16.05 44.55 Q13.2 42.95 13.65 39.1 13.85 37.55 14.5 35.7 15.0 34.0 15.0 32.6 15.05 31.05 14.5 29.9 L13.05 26.9 12.75 26.15 14.45 27.05 17.85 28.25 14.45 27.05 12.75 26.15 12.0 23.9 Q11.1 20.95 10.8 17.8 10.75 15.8 10.85 14.05 11.0 10.65 11.75 8.35 10.5 6.85 9.9 4.7 9.6 3.5 9.45 2.1 9.6 3.5 9.9 4.7 9.15 7.7 9.25 11.2 9.35 13.9 9.9 16.9 10.3 20.4 11.5 24.0 L11.1 24.1 11.5 24.0 12.15 25.8 11.6 25.4 12.15 25.8 12.55 26.8 13.4 28.7 13.65 31.15 13.4 33.6 Q11.6 35.75 12.1 36.3 L13.3 35.5 Q11.4 37.4 10.5 39.35 9.85 40.6 9.65 41.9 9.35 43.95 11.1 45.25 M29.5 39.75 L29.9 39.95 28.65 40.35 28.8 40.25 29.5 39.75 M28.4 52.6 L25.45 51.55 24.4 51.15 24.35 51.1 24.4 50.95 Q24.65 49.6 25.2 48.45 25.65 47.45 26.3 46.6 27.65 44.8 29.85 43.55 L31.3 44.45 Q28.7 45.3 26.3 46.6 28.7 45.3 31.3 44.45 L32.3 45.1 Q30.95 46.15 29.8 48.0 28.45 50.6 28.4 52.6 M9.85 39.3 L10.5 39.35 9.85 39.3 M12.2 8.85 L11.75 8.35 12.2 8.85 M19.8 13.95 L20.4 14.4 19.8 13.95 M9.25 11.2 L8.8 9.95 9.25 11.2 M10.85 14.05 Q13.4 17.65 18.25 19.7 13.4 17.65 10.85 14.05 M21.45 35.9 L21.4 35.9 19.8 36.85 Q16.5 38.55 13.65 39.1 16.5 38.55 19.8 36.85 L21.4 35.9 21.45 35.9 M11.5 37.0 L12.1 36.3 11.5 37.0 M13.65 31.15 L13.2 30.5 13.65 31.15 M25.2 48.45 L25.25 50.2 25.45 51.55 25.25 50.2 25.2 48.45" fill="#e6d795" fill-rule="evenodd" stroke="none"/>
      <path d="M40.3 49.7 Q39.2 49.55 36.95 48.8 L37.3 48.8 Q37.2 46.1 39.85 45.4 L40.45 46.15 Q40.95 47.1 40.3 49.7" fill="#c7ba81" fill-rule="evenodd" stroke="none"/>
      <path d="M29.9 39.95 L32.25 41.2 32.9 41.5 33.6 42.35 33.8 42.6 33.75 42.65 30.3 43.3 Q30.05 43.4 29.85 43.55 27.65 44.8 26.3 46.6 L25.3 47.15 25.3 46.85 Q25.8 42.65 28.65 40.35 25.8 42.65 25.3 46.85 L25.3 47.15 26.3 46.6 Q25.65 47.45 25.2 48.45 24.65 49.6 24.4 50.95 L24.35 51.1 24.25 51.05 Q19.5 49.1 17.4 47.2 13.85 46.45 11.85 45.6 L16.05 44.55 17.75 43.95 20.0 42.9 24.0 41.75 28.65 40.35 29.9 39.95 M11.6 3.7 Q11.35 2.8 11.55 1.95 12.6 0.9 18.3 4.2 L21.85 6.7 Q25.4 9.4 27.05 11.55 L28.2 13.35 Q28.0 14.15 26.35 14.0 L25.4 13.8 Q20.45 6.8 11.6 3.7 M25.2 48.45 L25.3 47.15 25.2 48.45 M35.4 44.35 L36.2 44.3 Q39.25 44.75 39.85 45.4 37.2 46.1 37.3 48.8 L36.95 48.8 36.0 48.5 31.55 47.2 Q33.25 44.6 35.4 44.35" fill="#958859" fill-rule="evenodd" stroke="none"/>
      <path d="M38.85 44.05 L39.95 44.45 40.0 44.45 Q41.95 45.1 41.25 49.25 L41.2 49.6 40.3 49.7 Q40.95 47.1 40.45 46.15 L39.85 45.4 Q39.25 44.75 36.2 44.3 L35.4 44.35 Q33.25 44.6 31.55 47.2 30.85 48.25 30.25 49.65 L29.75 51.3 29.65 51.65 Q29.1 53.0 28.8 52.7 L28.4 52.6 Q28.45 50.6 29.8 48.0 30.95 46.15 32.3 45.1 33.05 44.4 33.9 44.0 L34.25 43.85 Q35.4 43.9 35.4 44.35 35.4 43.9 34.25 43.85 L36.5 43.55 38.85 44.05" fill="#f0e7c1" fill-rule="evenodd" stroke="none"/>
      <path d="M36.95 48.8 Q31.85 48.9 29.75 51.3 L30.25 49.65 Q30.85 48.25 31.55 47.2 L36.0 48.5 36.95 48.8" fill="#000000" fill-opacity="0.3019608" fill-rule="evenodd" stroke="none"/>
      <path d="M11.6 3.7 Q20.45 6.8 25.4 13.8 23.4 13.35 19.95 11.95 12.55 7.15 11.6 3.7" fill="#706643" fill-rule="evenodd" stroke="none"/>
      <path d="M11.85 45.6 L11.1 45.25 Q9.35 43.95 9.65 41.9 9.85 40.6 10.5 39.35 11.4 37.4 13.3 35.5 L12.1 36.3 Q11.6 35.75 13.4 33.6 L13.65 31.15 13.4 28.7 12.55 26.8 12.15 25.8 11.5 24.0 Q10.3 20.4 9.9 16.9 9.35 13.9 9.25 11.2 9.15 7.7 9.9 4.7 10.5 6.85 11.75 8.35 11.0 10.65 10.85 14.05 10.75 15.8 10.8 17.8 11.1 20.95 12.0 23.9 L11.5 24.0 12.0 23.9 12.75 26.15 13.05 26.9 14.5 29.9 Q15.05 31.05 15.0 32.6 L13.65 31.15 15.0 32.6 Q15.0 34.0 14.5 35.7 13.85 37.55 13.65 39.1 L10.5 39.35 13.65 39.1 Q13.2 42.95 16.05 44.55 L11.85 45.6 M9.25 11.2 Q9.9 12.75 10.85 14.05 9.9 12.75 9.25 11.2 M12.75 26.15 L12.15 25.8 12.75 26.15" fill="#cfc286" fill-rule="evenodd" stroke="none"/>
      <path d="M11.55 1.95 Q11.35 2.8 11.6 3.7 12.55 7.15 19.95 11.95 23.4 13.35 25.4 13.8 L26.35 14.0 Q28.0 14.15 28.2 13.35 L27.05 11.55 Q25.4 9.4 21.85 6.7 L18.3 4.2 Q12.6 0.9 11.55 1.95 M10.05 0.9 Q12.05 0.35 15.0 1.5 19.95 3.55 22.95 6.25 L27.3 10.7 28.45 12.0 Q29.9 13.8 29.25 14.95 L25.95 15.4 25.9 15.4 Q18.6 13.7 14.7 9.9 9.65 5.05 10.05 0.9 M21.85 6.7 Q22.35 6.25 22.95 6.25 22.35 6.25 21.85 6.7 M20.4 14.4 Q22.4 15.8 25.75 16.25 L27.2 16.35 Q26.15 18.8 25.45 21.3 L24.25 21.3 Q22.4 21.2 20.05 20.4 L19.95 20.35 18.25 19.7 19.95 20.35 20.05 20.4 Q22.4 21.2 24.25 21.3 L25.45 21.3 Q24.5 24.65 24.15 28.1 L24.1 28.3 Q23.75 31.85 24.0 35.55 23.2 36.15 21.9 36.0 L21.45 35.9 21.9 36.0 Q23.2 36.15 24.0 35.55 L24.1 36.8 28.8 40.25 28.65 40.35 24.0 41.75 Q20.0 39.7 22.6 36.9 L21.4 35.95 21.45 35.9 21.3 35.85 20.35 34.9 Q18.55 32.9 18.2 30.7 L17.85 28.25 17.8 27.5 Q17.6 25.5 17.7 23.3 L17.8 21.95 Q17.9 20.85 18.25 19.7 18.85 17.25 20.4 14.4 M19.95 20.35 Q19.15 21.2 17.8 21.95 19.15 21.2 19.95 20.35 M24.15 28.1 L23.85 28.25 22.1 28.75 20.9 28.8 17.85 28.25 20.9 28.8 22.1 28.75 23.85 28.25 24.15 28.1 M29.85 43.55 Q30.05 43.4 30.3 43.3 L33.75 42.65 33.8 42.6 33.6 42.35 36.5 43.55 34.25 43.85 33.9 44.0 Q33.05 44.4 32.3 45.1 L31.3 44.45 29.85 43.55 M31.3 44.45 L31.95 44.25 33.2 43.85 34.25 43.85 33.2 43.85 31.95 44.25 31.3 44.45" fill="#f9e79e" fill-rule="evenodd" stroke="none"/>
      <path d="M10.2 0.2 Q11.7 -0.5 16.3 1.35 20.5 3.05 24.2 6.6 L27.45 10.15 29.8 13.35 30.15 13.75 30.3 14.05 Q29.95 14.6 29.25 14.95 29.9 13.8 28.45 12.0 L27.3 10.7 22.95 6.25 Q19.95 3.55 15.0 1.5 12.05 0.35 10.05 0.9 L10.2 0.2 M28.2 16.15 Q27.05 18.55 26.3 21.2 25.4 24.15 25.0 27.45 L24.85 28.4 Q24.5 31.5 24.55 34.9 L24.55 36.2 Q26.65 38.1 29.5 39.75 L28.8 40.25 24.1 36.8 24.0 35.55 Q23.75 31.85 24.1 28.3 L24.15 28.1 Q24.5 24.65 25.45 21.3 26.15 18.8 27.2 16.35 L28.2 16.15 M32.9 41.5 Q33.65 41.85 34.3 42.15 L38.85 44.05 36.5 43.55 33.6 42.35 32.9 41.5 M24.2 6.6 Q23.55 6.2 22.95 6.25 23.55 6.2 24.2 6.6 M24.15 28.1 L25.0 27.45 24.15 28.1 M26.3 21.2 L25.45 21.3 26.3 21.2 M24.55 34.9 L24.0 35.55 24.55 34.9" fill="#fbf0c8" fill-rule="evenodd" stroke="none"/>
      <path d="M11.1 45.25 Q9.35 44.35 9.15 43.35 8.95 41.1 9.85 39.3 10.45 38.05 11.5 37.0 11.2 35.2 12.95 33.45 L13.2 30.5 12.7 28.05 12.15 26.75 11.6 25.4 11.1 24.1 Q8.75 17.4 8.8 9.95 8.8 6.1 9.45 2.1 9.2 0.6 10.2 0.2 11.7 -0.5 16.3 1.35 20.5 3.05 24.2 6.6 L27.45 10.15 29.8 13.35 30.15 13.75 M30.3 14.05 Q31.05 15.5 28.2 16.15 27.05 18.55 26.3 21.2 25.4 24.15 25.0 27.45 L24.85 28.4 Q24.5 31.5 24.55 34.9 L24.55 36.2 Q26.65 38.1 29.5 39.75 L29.9 39.95 32.25 41.2 32.9 41.5 Q33.65 41.85 34.3 42.15 L38.85 44.05 39.95 44.45 40.0 44.45 Q41.95 45.1 41.25 49.25 L41.2 49.6 40.3 49.7 Q39.2 49.55 36.95 48.8 L36.0 48.5 31.55 47.2 Q30.85 48.25 30.25 49.65 L29.75 51.3 M29.65 51.65 Q29.1 53.0 28.8 52.7 L28.4 52.6 25.45 51.55 24.4 51.15 M24.35 51.1 L24.25 51.05 Q19.5 49.1 17.4 47.2 13.85 46.45 11.85 45.6 L11.1 45.25 M10.5 39.35 L9.85 39.3 M9.45 2.1 Q9.6 3.5 9.9 4.7 10.5 6.85 11.75 8.35 L12.2 8.85 M11.55 1.95 Q11.35 2.8 11.6 3.7 12.55 7.15 19.95 11.95 23.4 13.35 25.4 13.8 L26.35 14.0 Q28.0 14.15 28.2 13.35 M22.95 6.25 Q23.55 6.2 24.2 6.6 M20.4 14.4 L19.8 13.95 M22.95 6.25 Q22.35 6.25 21.85 6.7 M27.2 16.35 L25.75 16.25 Q22.4 15.8 20.4 14.4 M18.25 19.7 L19.95 20.35 20.05 20.4 Q22.4 21.2 24.25 21.3 L25.45 21.3 26.3 21.2 M27.2 16.35 L28.2 16.15 M8.8 9.95 L9.25 11.2 M10.85 14.05 Q9.9 12.75 9.25 11.2 M11.5 24.0 L12.0 23.9 Q15.6 23.05 17.8 21.95 19.15 21.2 19.95 20.35 M11.5 24.0 L11.1 24.1 M11.6 25.4 L12.15 25.8 12.75 26.15 M18.25 19.7 Q13.4 17.65 10.85 14.05 M15.0 32.6 Q17.0 34.4 20.15 35.5 L21.3 35.85 M17.85 28.25 L14.45 27.05 12.75 26.15 M13.65 31.15 L15.0 32.6 M13.65 39.1 Q16.5 38.55 19.8 36.85 L21.4 35.9 21.45 35.9 21.3 35.85 M17.85 28.25 L20.9 28.8 22.1 28.75 23.85 28.25 24.15 28.1 M25.0 27.45 L24.15 28.1 M24.0 35.55 L24.55 34.9 M21.45 35.9 L21.9 36.0 Q23.2 36.15 24.0 35.55 M28.8 40.25 L29.5 39.75 M28.65 40.35 L28.8 40.25 M10.5 39.35 L13.65 39.1 M12.1 36.3 L11.5 37.0 M28.65 40.35 Q25.8 42.65 25.3 46.85 L25.3 47.15 26.3 46.6 Q28.7 45.3 31.3 44.45 M25.3 47.15 L25.2 48.45 M25.45 51.55 L25.25 50.2 25.2 48.45 M13.2 30.5 L13.65 31.15 M34.25 43.85 L33.2 43.85 31.95 44.25 31.3 44.45 M34.25 43.85 Q35.4 43.9 35.4 44.35 L36.2 44.3 Q39.25 44.75 39.85 45.4 M31.55 47.2 Q33.25 44.6 35.4 44.35" fill="none" stroke="#000000" stroke-linecap="round" stroke-linejoin="round" stroke-opacity="0.3019608" stroke-width="0.05"/>
      <path d="M32.25 40.7 Q32.75 41.2 32.5 41.6 23.5 45.2 22.35 52.15 L15.2 49.35 Q15.25 48.6 15.45 47.9 18.25 49.85 21.6 50.1 23.4 45.8 26.25 43.65 28.75 41.9 32.25 40.7" fill="#b76a1e" fill-rule="evenodd" stroke="none"/>
      <path d="M32.25 40.7 Q28.75 41.9 26.25 43.65 23.4 45.8 21.6 50.1 18.25 49.85 15.45 47.9 16.85 42.15 25.65 38.8 28.2 38.8 30.75 39.75 31.8 40.25 32.25 40.7" fill="#dc8526" fill-rule="evenodd" stroke="none"/>
      <path d="M15.45 47.9 Q15.25 48.6 15.2 49.35 L22.35 52.15 Q23.5 45.2 32.5 41.6 32.75 41.2 32.25 40.7 M15.45 47.9 Q16.85 42.15 25.65 38.8 28.2 38.8 30.75 39.75 31.8 40.25 32.25 40.7" fill="none" stroke="#000000" stroke-linecap="round" stroke-linejoin="round" stroke-opacity="0.3019608" stroke-width="0.05"/>
      <path d="M19.15 51.15 Q19.9 49.15 20.7 50.2 L20.7 50.25 Q21.15 51.05 19.8 52.75 19.1 52.35 19.05 51.75 L19.15 51.15" fill="#000000" fill-opacity="0.2" fill-rule="evenodd" stroke="none"/>
      <path d="M20.35 49.85 L19.4 51.55 18.7 51.4 18.8 50.8 Q19.55 48.8 20.35 49.85" fill="#ffcc00" fill-rule="evenodd" stroke="none"/>
      <path d="M20.35 49.85 L20.35 49.9 Q20.8 50.7 19.45 52.4 18.75 52.0 18.7 51.4 L19.4 51.55 20.35 49.85" fill="#f4a33c" fill-rule="evenodd" stroke="none"/>
      <path d="M18.7 51.4 Q18.75 52.0 19.45 52.4 20.8 50.7 20.35 49.9 L20.35 49.85 M18.7 51.4 L18.8 50.8 Q19.55 48.8 20.35 49.85" fill="none" stroke="#000000" stroke-linecap="round" stroke-linejoin="round" stroke-opacity="0.3019608" stroke-width="0.05"/>
      <path d="M16.15 50.2 Q16.9 48.2 17.7 49.25 L17.7 49.3 Q18.15 50.1 16.8 51.8 16.1 51.4 16.05 50.8 L16.15 50.2" fill="#000000" fill-opacity="0.2" fill-rule="evenodd" stroke="none"/>
      <path d="M15.85 50.25 L15.95 49.65 Q16.7 47.65 17.5 48.7 L16.55 50.4 15.85 50.25" fill="#ffcc00" fill-rule="evenodd" stroke="none"/>
      <path d="M15.85 50.25 L16.55 50.4 17.5 48.7 17.5 48.75 Q17.95 49.55 16.6 51.25 15.9 50.85 15.85 50.25" fill="#f4a33c" fill-rule="evenodd" stroke="none"/>
      <path d="M17.5 48.7 Q16.7 47.65 15.95 49.65 L15.85 50.25 M17.5 48.7 L17.5 48.75 Q17.95 49.55 16.6 51.25 15.9 50.85 15.85 50.25" fill="none" stroke="#000000" stroke-linecap="round" stroke-linejoin="round" stroke-opacity="0.3019608" stroke-width="0.05"/>
      <path d="M30.5 39.3 Q32.4 38.4 32.25 39.75 L32.2 39.8 Q31.95 40.65 29.8 40.9 29.6 40.1 29.95 39.65 L30.5 39.3" fill="#000000" fill-opacity="0.2" fill-rule="evenodd" stroke="none"/>
      <path d="M30.0 39.15 Q30.15 38.95 30.45 38.85 32.45 37.9 32.3 39.25 L30.4 39.8 30.0 39.15" fill="#ffcc00" fill-rule="evenodd" stroke="none"/>
      <path d="M30.0 39.15 L30.4 39.8 32.3 39.25 32.25 39.3 Q31.95 40.2 29.85 40.45 29.6 39.65 30.0 39.15" fill="#f4a33c" fill-rule="evenodd" stroke="none"/>
      <path d="M32.3 39.25 Q32.45 37.9 30.45 38.85 30.15 38.95 30.0 39.15 M32.3 39.25 L32.25 39.3 Q31.95 40.2 29.85 40.45 29.6 39.65 30.0 39.15" fill="none" stroke="#000000" stroke-linecap="round" stroke-linejoin="round" stroke-opacity="0.3019608" stroke-width="0.05"/>
      <path d="M27.85 38.55 Q29.75 37.65 29.6 39.0 L29.55 39.05 Q29.3 39.9 27.15 40.15 26.95 39.35 27.3 38.9 L27.85 38.55" fill="#000000" fill-opacity="0.2" fill-rule="evenodd" stroke="none"/>
      <path d="M29.65 38.5 L27.75 39.05 27.35 38.4 Q27.5 38.2 27.8 38.1 29.8 37.15 29.65 38.5" fill="#ffcc00" fill-rule="evenodd" stroke="none"/>
      <path d="M29.65 38.5 L29.6 38.55 Q29.3 39.45 27.2 39.7 26.95 38.9 27.35 38.4 L27.75 39.05 29.65 38.5" fill="#f4a33c" fill-rule="evenodd" stroke="none"/>
      <path d="M27.35 38.4 Q26.95 38.9 27.2 39.7 29.3 39.45 29.6 38.55 L29.65 38.5 M27.35 38.4 Q27.5 38.2 27.8 38.1 29.8 37.15 29.65 38.5" fill="none" stroke="#000000" stroke-linecap="round" stroke-linejoin="round" stroke-opacity="0.3019608" stroke-width="0.05"/>
    </g>
    <g id="sprite3" transform="matrix(1.0, 0.0, 0.0, 1.0, 73.5, 65.0)">
      <use height="136.85" transform="matrix(1.0, 0.0, 0.0, 1.0, -73.5, -65.0)" width="148.25" xlink:href="#shape7"/>
    </g>
    <g id="shape7" transform="matrix(1.0, 0.0, 0.0, 1.0, 73.5, 65.0)">
      <path d="M36.65 -54.65 Q60.05 -42.0 69.75 -17.95 80.55 8.9 68.0 34.1 55.45 59.35 26.8 68.2 -1.8 77.05 -29.7 64.3 -57.6 51.6 -68.45 24.75 -79.3 -2.05 -66.75 -27.25 L-66.7 -27.3 Q-54.1 -52.5 -25.5 -61.4 3.1 -70.2 31.0 -57.5 L36.65 -54.65" fill="url(#gradient1)" fill-rule="evenodd" stroke="none"/>
    </g>
    <radialGradient cx="0" cy="0" gradientTransform="matrix(0.0914, 0.0, 0.0, 0.0914, 0.6, 3.4)" gradientUnits="userSpaceOnUse" id="gradient1" r="819.2" spreadMethod="pad">
      <stop offset="0.0" stop-color="#ffffff"/>
      <stop offset="1.0" stop-color="#ffffff" stop-opacity="0.0"/>
    </radialGradient>
    <g id="shape8" transform="matrix(1.0, 0.0, 0.0, 1.0, -0.85, -7.2)">
      <path d="M36.45 56.3 Q36.9 52.75 35.1 52.15 L35.05 52.15 33.95 51.75 31.8 50.9 Q31.3 49.55 30.4 48.55 29.25 47.25 27.4 46.65 27.3 45.9 26.15 46.3 L24.75 46.15 Q24.85 44.9 22.9 45.8 22.6 45.9 22.45 46.1 20.9 45.05 19.65 43.9 L19.65 42.6 Q19.6 39.2 19.95 36.1 L20.1 35.15 Q20.5 31.85 21.4 28.9 22.15 26.25 23.3 23.85 26.15 23.2 25.4 21.75 L25.25 21.45 24.9 21.05 22.55 17.85 19.3 14.3 Q15.6 10.75 11.4 9.05 6.8 7.2 5.3 7.9 4.3 8.3 4.55 9.8 3.9 13.8 3.9 17.65 3.85 25.1 6.2 31.8 L6.7 33.1 7.25 34.45 7.8 35.75 8.3 38.2 8.05 41.15 Q6.3 42.9 6.6 44.7 5.55 45.75 4.95 47.0 4.2 48.55 4.25 50.45 L2.3 51.25 Q1.7 51.5 1.35 52.85 L1.6 55.2 2.25 56.5 3.35 56.95 3.6 58.45 Q3.9 60.75 3.7 63.0 L4.0 63.45 3.95 64.35 Q5.7 65.9 8.7 66.65 L9.8 66.65 16.7 64.05 Q16.6 66.35 16.1 69.2 16.75 70.05 18.05 70.55 L22.2 71.3 22.3 71.3 23.5 71.05 Q26.85 69.25 30.55 68.05 L33.45 67.2 34.1 66.35 Q33.95 64.8 34.15 63.25 L34.3 62.45 34.45 61.55 38.65 60.05 39.25 58.25 38.65 57.0 36.45 56.3 Z" fill="none" stroke="#000000" stroke-linecap="round" stroke-linejoin="round" stroke-opacity="0.3019608" stroke-width="1.0"/>
    </g>
  </defs>
</svg>
