<?xml version="1.0" encoding="UTF-8" standalone="no"?>
<svg xmlns:xlink="http://www.w3.org/1999/xlink" height="520.0px" width="520.0px" xmlns="http://www.w3.org/2000/svg">
  <g transform="matrix(10.0, 0.0, 0.0, 10.0, 0.0, 0.0)">
    <use height="0.1" transform="matrix(1.0, 0.0, 0.0, 1.0, 0.0, 0.0)" width="0.05" xlink:href="#shape0"/>
    <use height="52.0" transform="matrix(1.0, 0.0, 0.0, 1.0, 0.0, 0.0)" width="52.0" xlink:href="#sprite0"/>
  </g>
  <defs>
    <g id="shape0" transform="matrix(1.0, 0.0, 0.0, 1.0, 0.0, 0.0)">
      <path d="M0.05 0.1 L0.0 0.1 0.0 0.0 0.05 0.1" fill="#910f0a" fill-rule="evenodd" stroke="none"/>
    </g>
    <g id="sprite0" transform="matrix(1.0, 0.0, 0.0, 1.0, 0.0, 0.0)">
      <use height="32.2" transform="matrix(0.9857, 0.0, 0.0, 1.0, 1.7, 5.75)" width="30.9" xlink:href="#sprite1"/>
      <use height="41.95" transform="matrix(1.0, 0.0, 0.0, 1.0, 1.2, 5.25)" width="49.4" xlink:href="#shape2"/>
      <use height="52.0" transform="matrix(1.0, 0.0, 0.0, 1.0, 0.0, 0.0)" width="52.0" xlink:href="#sprite2"/>
    </g>
    <g id="sprite1" transform="matrix(1.0, 0.0, 0.0, 1.0, 0.0, 0.0)">
      <use height="32.2" transform="matrix(1.0, 0.0, 0.0, 1.0, 0.0, 0.0)" width="30.9" xlink:href="#shape1"/>
    </g>
    <g id="shape1" transform="matrix(1.0, 0.0, 0.0, 1.0, 0.0, 0.0)">
      <path d="M4.1 27.45 Q3.85 25.6 4.0 23.75 4.15 21.05 5.1 19.5 6.0 18.8 9.9 17.55 L10.8 17.35 11.95 17.25 Q15.75 17.4 19.8 21.6 22.2 24.0 22.5 25.95 22.6 27.55 21.25 28.75 18.85 30.7 15.3 31.45 L9.3 32.15 11.9 31.6 Q13.6 30.9 13.3 30.4 13.0 29.65 11.25 28.65 L8.95 27.55 6.65 26.7 5.2 26.65 Q4.7 26.65 4.25 27.15 L4.1 27.45" fill="#753c15" fill-rule="evenodd" stroke="none"/>
      <path d="M9.3 32.15 L7.9 32.2 7.8 32.2 6.2 32.0 5.9 31.85 5.2 31.2 5.0 30.95 4.4 29.3 4.2 28.35 4.1 27.45 4.25 27.15 Q4.7 26.65 5.2 26.65 L6.65 26.7 8.95 27.55 11.25 28.65 Q13.0 29.65 13.3 30.4 13.6 30.9 11.9 31.6 L9.3 32.15" fill="#98501c" fill-rule="evenodd" stroke="none"/>
      <path d="M4.1 27.45 Q3.85 25.6 4.0 23.75 4.15 21.05 5.1 19.5 6.0 18.8 9.9 17.55 L10.8 17.35 11.95 17.25 Q15.75 17.4 19.8 21.6 22.2 24.0 22.5 25.95 22.6 27.55 21.25 28.75 18.85 30.7 15.3 31.45 L9.3 32.15 7.9 32.2 7.8 32.2 6.2 32.0 5.9 31.85 5.2 31.2 5.0 30.95 4.4 29.3 4.2 28.35 4.1 27.45 Z" fill="none" stroke="#000000" stroke-linecap="round" stroke-linejoin="round" stroke-opacity="0.3019608" stroke-width="0.05"/>
      <path d="M16.7 11.65 L16.7 11.6 16.7 11.65 M7.7 21.2 L8.05 20.8 8.0 20.7 7.45 20.0 6.45 22.45 7.15 21.7 7.7 21.2 M14.55 26.15 L14.5 26.15 14.55 26.15" fill="#ae6003" fill-rule="evenodd" stroke="none"/>
      <path d="M20.75 9.45 L22.1 8.75 23.15 8.0 23.35 7.85 Q24.6 6.8 24.75 5.7 L24.8 5.25 Q24.8 4.5 24.35 3.9 22.3 2.35 20.35 1.95 L16.5 1.75 Q16.0 2.3 15.35 3.75 14.65 5.45 14.65 10.7 L14.45 10.75 15.65 10.65 15.75 10.65 Q18.3 10.4 20.25 9.65 L20.75 9.45" fill="#683502" fill-rule="evenodd" stroke="none"/>
      <path d="M23.85 7.55 L23.8 7.55 23.85 7.6 23.85 7.55 M28.8 16.8 L28.75 16.8 28.8 16.85 28.8 16.8" fill="#d68b12" fill-rule="evenodd" stroke="none"/>
      <path d="M28.35 20.85 Q28.9 20.55 29.4 20.35 L28.5 20.3 26.2 19.85 26.7 20.7 27.0 21.2 27.4 21.1 28.2 20.9 28.35 20.85 M29.2 18.95 L30.35 19.45 30.35 19.15 30.55 17.15 29.8 15.4 29.75 15.25 Q28.9 13.55 28.3 13.1 29.7 15.75 29.95 18.65 L29.1 17.95 28.3 17.3 Q26.8 16.15 25.95 14.85 25.05 13.6 25.0 13.0 L24.6 14.4 23.65 15.75 23.6 15.8 23.3 16.25 21.55 13.95 Q21.95 15.0 22.0 16.65 L22.05 16.95 22.05 17.0 22.8 17.65 22.85 17.65 23.35 17.0 23.55 16.6 23.6 16.5 24.0 15.8 Q24.45 16.75 29.2 18.95 M29.55 7.2 L29.55 7.15 30.7 7.5 Q29.1 5.95 26.75 6.15 28.45 6.55 29.55 7.2 M26.0 6.5 L25.5 6.55 Q26.35 7.0 26.65 7.7 L24.25 7.5 24.1 7.65 Q29.55 9.6 30.3 14.95 30.55 12.25 29.85 10.35 29.25 8.85 28.05 7.9 L26.95 7.25 27.8 7.5 28.95 8.0 Q28.05 6.8 26.0 6.5 M27.2 11.2 Q28.65 12.35 29.3 13.35 28.3 10.65 26.5 9.3 24.7 7.95 23.55 8.2 L23.55 8.35 23.45 8.55 24.75 10.65 Q23.85 10.15 22.5 9.75 24.65 11.35 26.6 13.8 L28.7 16.65 Q27.65 13.2 26.55 11.15 L26.05 10.4 Q26.8 10.85 27.2 11.2" fill="#954307" fill-rule="evenodd" stroke="none"/>
      <path d="M30.7 7.5 Q29.7 5.25 26.1 2.8 L26.0 2.7 25.65 2.5 Q23.45 0.85 20.6 0.25 L16.35 0.0 Q11.6 0.2 7.9 2.45 11.7 1.05 15.4 1.05 19.1 0.95 21.2 1.75 23.4 2.6 24.35 3.9 24.45 3.35 24.45 3.7 L24.35 3.9 Q24.8 4.5 24.8 5.25 L24.75 5.7 Q24.6 6.8 23.35 7.85 L23.15 8.0 22.1 8.75 20.75 9.45 21.25 9.6 22.35 10.05 Q23.2 11.2 23.3 12.7 L23.5 14.1 23.65 15.75 24.6 14.4 25.0 13.0 Q25.05 13.6 25.95 14.85 26.8 16.15 28.3 17.3 L29.1 17.95 29.95 18.65 Q29.7 15.75 28.3 13.1 28.9 13.55 29.75 15.25 L29.8 15.4 30.55 17.15 30.75 15.45 Q31.3 11.65 29.55 7.2 28.45 6.55 26.75 6.15 29.1 5.95 30.7 7.5 M25.05 26.9 L25.3 26.6 26.05 25.6 27.65 22.65 27.75 22.4 28.35 20.85 28.2 20.9 27.4 21.1 27.0 21.2 26.7 20.7 26.2 19.85 28.5 20.3 29.4 20.35 29.65 20.3 29.2 18.95 Q24.45 16.75 24.0 15.8 L23.6 16.5 23.55 16.6 23.35 17.0 Q23.05 21.9 22.1 23.95 L20.55 26.9 19.65 28.15 Q22.75 25.3 25.0 19.3 25.5 22.95 23.6 26.9 26.15 23.2 26.75 21.7 26.65 24.65 25.05 26.85 L25.05 26.9 M26.0 6.5 Q28.05 6.8 28.95 8.0 L27.8 7.5 26.95 7.25 28.05 7.9 Q29.25 8.85 29.85 10.35 30.55 12.25 30.3 14.95 29.55 9.6 24.1 7.65 L24.25 7.5 26.65 7.7 Q26.35 7.0 25.5 6.55 L26.0 6.5 M23.85 7.55 L23.85 7.6 23.8 7.55 23.85 7.55 M27.2 11.2 Q26.8 10.85 26.05 10.4 L26.55 11.15 Q27.65 13.2 28.7 16.65 L26.6 13.8 Q24.65 11.35 22.5 9.75 23.85 10.15 24.75 10.65 L23.45 8.55 23.55 8.35 23.55 8.2 Q24.7 7.95 26.5 9.3 28.3 10.65 29.3 13.35 28.65 12.35 27.2 11.2 M28.75 16.8 L28.75 16.7 28.8 16.8 28.8 16.85 28.75 16.8 M22.35 10.05 L22.0 9.6 22.05 9.65 22.35 10.05" fill="#a75102" fill-rule="evenodd" stroke="none"/>
      <path d="M28.75 16.8 L28.8 16.8 28.75 16.7 28.75 16.8 M22.35 10.05 L22.05 9.65 22.0 9.6 22.35 10.05" fill="#c26703" fill-rule="evenodd" stroke="none"/>
      <path d="M1.5 15.3 Q1.6 18.0 2.05 20.95 L2.3 22.35 2.7 22.85 Q3.25 23.65 3.75 23.6 4.2 23.6 4.65 23.2 L5.05 22.5 Q5.2 23.0 6.05 23.45 7.15 24.15 7.8 24.05 L8.05 23.9 8.25 23.65 8.3 23.7 Q8.5 24.3 9.5 24.95 10.55 25.65 11.3 25.55 11.7 25.55 11.75 24.65 11.85 25.25 12.35 25.65 13.15 26.25 14.5 26.15 L14.55 26.15 Q13.75 24.4 13.65 22.0 L13.9 22.85 14.55 24.05 Q14.45 23.85 15.05 20.35 14.95 23.15 17.25 27.1 L17.4 26.5 Q17.45 25.65 18.55 23.55 19.3 28.0 19.55 28.25 L19.65 28.15 20.55 26.9 22.1 23.95 Q23.05 21.9 23.35 17.0 L22.85 17.65 22.8 17.65 22.05 17.0 22.05 17.6 22.0 18.6 Q18.8 18.1 16.65 16.55 L10.35 21.65 10.25 21.75 9.6 21.3 9.45 21.25 7.45 22.5 7.7 21.2 7.15 21.7 6.45 22.45 6.4 22.35 6.0 19.15 5.1 19.7 4.55 18.7 4.3 18.8 4.15 18.3 Q3.6 16.35 3.95 14.05 L2.8 15.55 2.4 14.5 1.6 15.25 1.5 15.3" fill="url(#gradient0)" fill-rule="evenodd" stroke="none"/>
      <path d="M7.9 2.45 L6.75 3.2 6.3 3.55 5.6 4.15 5.55 4.15 5.5 4.25 Q4.0 5.3 2.65 6.8 0.4 9.3 0.0 11.95 3.15 10.2 4.05 9.25 2.85 11.15 2.75 11.75 L2.85 12.9 2.95 13.25 3.9 12.85 5.05 12.25 4.25 13.6 3.95 14.05 Q3.6 16.35 4.15 18.3 L4.3 18.8 4.55 18.7 5.95 18.05 Q6.1 12.4 10.1 10.7 10.3 12.45 10.65 13.4 12.4 11.35 13.95 11.2 12.8 11.9 12.4 14.65 12.15 16.75 8.7 20.25 L8.55 20.4 8.6 19.9 8.9 16.85 Q9.0 16.3 7.45 20.0 L8.0 20.7 8.05 20.8 8.3 21.1 8.95 20.65 Q11.15 19.25 12.45 17.85 13.8 16.45 13.85 15.8 L13.55 15.45 Q13.2 14.85 13.2 14.0 L13.5 14.35 13.95 14.8 15.75 12.05 Q15.9 12.85 16.4 13.7 L16.85 14.2 17.0 14.35 19.85 16.7 Q21.35 17.6 21.8 17.75 L22.05 16.95 22.0 16.65 Q21.95 15.0 21.55 13.95 L23.3 16.25 23.6 15.8 23.65 15.75 23.5 14.1 23.3 12.7 Q23.2 11.2 22.35 10.05 L21.25 9.6 20.75 9.45 20.25 9.65 Q18.3 10.4 15.75 10.65 L15.65 10.65 14.45 10.75 Q11.4 10.8 9.15 9.85 6.45 8.75 6.45 6.85 6.45 6.2 6.75 5.55 L8.1 4.35 Q11.0 2.15 15.55 1.75 L16.5 1.75 20.35 1.95 Q22.3 2.35 24.35 3.9 L24.45 3.7 Q24.45 3.35 24.35 3.9 23.4 2.6 21.2 1.75 19.1 0.95 15.4 1.05 11.7 1.05 7.9 2.45 M8.0 10.45 L6.9 13.0 Q6.2 15.1 4.5 17.8 4.25 14.85 5.05 13.1 5.9 11.35 8.0 10.45 M16.45 11.2 L16.4 11.05 Q18.7 11.95 19.55 12.85 18.5 11.2 17.8 10.85 19.5 11.2 20.05 11.85 20.7 12.5 21.2 14.5 21.5 15.45 21.4 16.85 L20.75 15.6 Q20.2 14.5 17.5 12.7 L18.3 14.7 Q16.8 13.4 16.6 12.35 L16.45 11.2" fill="url(#gradient1)" fill-rule="evenodd" stroke="none"/>
      <path d="M7.45 20.0 Q9.0 16.3 8.9 16.85 L8.6 19.9 8.55 20.4 8.7 20.25 Q12.15 16.75 12.4 14.65 12.8 11.9 13.95 11.2 12.4 11.35 10.65 13.4 10.3 12.45 10.1 10.7 6.1 12.4 5.95 18.05 L6.0 19.15 6.4 22.35 6.45 22.45 7.45 20.0 M8.0 10.45 Q5.9 11.35 5.05 13.1 4.25 14.85 4.5 17.8 6.2 15.1 6.9 13.0 L8.0 10.45 M16.7 11.65 L16.7 11.6 16.7 11.65 M16.45 11.2 L16.6 12.35 Q16.8 13.4 18.3 14.7 L17.5 12.7 Q20.2 14.5 20.75 15.6 L21.4 16.85 Q21.5 15.45 21.2 14.5 20.7 12.5 20.05 11.85 19.5 11.2 17.8 10.85 18.5 11.2 19.55 12.85 18.7 11.95 16.4 11.05 L16.45 11.2" fill="#d69331" fill-rule="evenodd" stroke="none"/>
      <path d="M0.0 11.95 L1.75 11.25 1.65 12.3 Q1.5 13.75 1.5 15.3 L1.6 15.25 2.4 14.5 2.8 15.55 3.95 14.05 4.25 13.6 5.05 12.25 3.9 12.85 2.95 13.25 2.85 12.9 2.75 11.75 Q2.85 11.15 4.05 9.25 3.15 10.2 0.0 11.95 M2.3 22.35 L2.7 24.3 4.0 24.15 Q4.55 23.8 5.1 23.85 L7.2 24.8 7.95 24.65 9.2 25.65 10.65 26.45 11.7 26.3 15.3 28.9 16.7 28.85 17.55 29.5 19.1 30.25 19.3 30.3 19.65 30.15 21.15 29.45 22.95 28.25 22.85 28.95 22.95 28.9 25.05 26.9 25.05 26.85 Q26.65 24.65 26.75 21.7 26.15 23.2 23.6 26.9 25.5 22.95 25.0 19.3 22.75 25.3 19.65 28.15 L19.55 28.25 Q19.3 28.0 18.55 23.55 17.45 25.65 17.4 26.5 L17.25 27.1 Q14.95 23.15 15.05 20.35 14.45 23.85 14.55 24.05 L13.9 22.85 13.65 22.0 Q13.75 24.4 14.55 26.15 L14.5 26.15 Q13.15 26.25 12.35 25.65 11.85 25.25 11.75 24.65 11.7 25.55 11.3 25.55 10.55 25.65 9.5 24.95 8.5 24.3 8.3 23.7 L8.25 23.65 8.05 23.9 7.8 24.05 Q7.15 24.15 6.05 23.45 5.2 23.0 5.05 22.5 L4.65 23.2 Q4.2 23.6 3.75 23.6 3.25 23.65 2.7 22.85 L2.3 22.35 M14.45 10.75 L14.65 10.7 Q14.65 5.45 15.35 3.75 16.0 2.3 16.5 1.75 L15.55 1.75 Q11.0 2.15 8.1 4.35 L6.75 5.55 Q6.45 6.2 6.45 6.85 6.45 8.75 9.15 9.85 11.4 10.8 14.45 10.75 M22.05 17.0 L22.05 16.95 21.8 17.75 Q21.35 17.6 19.85 16.7 L17.0 14.35 16.85 14.2 16.4 13.7 Q15.9 12.85 15.75 12.05 L13.95 14.8 13.5 14.35 13.2 14.0 Q13.2 14.85 13.55 15.45 L13.85 15.8 Q13.8 16.45 12.45 17.85 11.15 19.25 8.95 20.65 L8.3 21.1 8.05 20.8 7.7 21.2 7.45 22.5 9.45 21.25 9.6 21.3 10.25 21.75 10.35 21.65 16.65 16.55 14.9 14.8 14.05 16.0 13.85 15.8 14.05 16.0 14.9 14.8 16.65 16.55 Q18.8 18.1 22.0 18.6 L22.05 17.6 22.05 17.0 M5.95 18.05 L4.55 18.7 5.1 19.7 6.0 19.15 5.95 18.05 M14.55 26.15 L15.6 27.8 16.7 28.85 15.6 27.8 14.55 26.15 M22.95 28.2 L23.0 28.2 22.95 28.25 22.95 28.2 Q23.05 27.7 22.75 27.1 23.05 27.7 22.95 28.2" fill="#84450b" fill-rule="evenodd" stroke="none"/>
      <path d="M30.7 7.5 Q29.7 5.25 26.1 2.8 L26.0 2.7 25.65 2.5 Q23.45 0.85 20.6 0.25 L16.35 0.0 Q11.6 0.2 7.9 2.45 L6.75 3.2 6.3 3.55 5.6 4.15 5.55 4.15 5.5 4.25 Q4.0 5.3 2.65 6.8 0.4 9.3 0.0 11.95 L1.75 11.25 1.65 12.3 Q1.5 13.75 1.5 15.3 1.6 18.0 2.05 20.95 M2.3 22.35 L2.7 24.3 4.0 24.15 Q4.55 23.8 5.1 23.85 L7.2 24.8 7.95 24.65 9.2 25.65 10.65 26.45 11.7 26.3 15.3 28.9 16.7 28.85 17.55 29.5 19.1 30.25 19.3 30.3 19.65 30.15 21.15 29.45 22.95 28.25 22.85 28.95 22.95 28.9 25.05 26.9 25.3 26.6 26.05 25.6 27.65 22.65 27.75 22.4 28.35 20.85 Q28.9 20.55 29.4 20.35 L29.65 20.3 29.2 18.95 30.35 19.45 30.35 19.15 30.55 17.15 30.75 15.45 Q31.3 11.65 29.55 7.2 L29.55 7.15 30.7 7.5 M29.2 18.95 Q24.45 16.75 24.0 15.8 L23.6 16.5 23.55 16.6 23.35 17.0 22.85 17.65 22.8 17.65 22.05 17.0 M28.35 20.85 L28.2 20.9 27.4 21.1 27.0 21.2 26.7 20.7 26.2 19.85 M5.95 18.05 L4.55 18.7 4.3 18.8 4.15 18.3 Q3.6 16.35 3.95 14.05 M7.7 21.2 L8.05 20.8 8.3 21.1 8.95 20.65 Q11.15 19.25 12.45 17.85 13.8 16.45 13.85 15.8 L14.05 16.0 14.9 14.8 16.65 16.55 Q18.8 18.1 22.0 18.6 L22.05 17.6 22.05 17.0 M13.2 14.0 Q13.2 14.85 13.55 15.45 L13.85 15.8 M13.65 22.0 Q13.75 24.4 14.55 26.15 M5.95 18.05 L6.0 19.15 6.4 22.35 6.45 22.45 7.15 21.7 7.7 21.2 M8.05 20.8 L8.0 20.7 7.45 20.0 M16.7 28.85 L15.6 27.8 14.55 26.15 M22.95 28.25 L22.95 28.2 Q23.05 27.7 22.75 27.1" fill="none" stroke="#000000" stroke-linecap="round" stroke-linejoin="round" stroke-opacity="0.3019608" stroke-width="0.05"/>
    </g>
    <radialGradient cx="0" cy="0" gradientTransform="matrix(-0.0154, 0.0013, -1.0E-4, 0.0154, 11.7, 14.15)" gradientUnits="userSpaceOnUse" id="gradient0" r="819.2" spreadMethod="pad">
      <stop offset="0.0" stop-color="#d68b12"/>
      <stop offset="1.0" stop-color="#ae6003"/>
    </radialGradient>
    <radialGradient cx="0" cy="0" gradientTransform="matrix(-0.0192, 0.0017, -1.0E-4, 0.0247, 5.75, 13.8)" gradientUnits="userSpaceOnUse" id="gradient1" r="819.2" spreadMethod="pad">
      <stop offset="0.18823529411764706" stop-color="#d68b12"/>
      <stop offset="1.0" stop-color="#ae6003"/>
    </radialGradient>
    <g id="shape2" transform="matrix(1.0, 0.0, 0.0, 1.0, -1.2, -5.25)">
      <path d="M45.5 41.65 L45.75 38.0 Q45.75 35.25 44.8 33.75 44.0 33.05 40.2 32.0 L39.3 31.85 38.2 31.8 Q34.5 32.15 30.3 36.6 27.85 39.05 27.5 41.05 27.35 42.7 28.6 43.8 30.85 45.7 34.35 46.3 L40.2 46.7 37.65 46.25 Q36.0 45.65 36.3 45.05 36.65 44.35 38.45 43.2 39.85 42.35 40.75 42.0 42.3 41.2 43.0 41.05 L44.4 40.9 Q44.9 40.9 45.35 41.4 L45.5 41.65" fill="#8c481a" fill-rule="evenodd" stroke="none"/>
      <path d="M40.2 46.7 L41.55 46.7 41.65 46.7 43.25 46.4 43.55 46.2 44.2 45.55 44.45 45.3 45.1 43.55 45.35 42.6 45.5 41.65 45.35 41.4 Q44.9 40.9 44.4 40.9 L43.0 41.05 Q42.3 41.2 40.75 42.0 39.85 42.35 38.45 43.2 36.65 44.35 36.3 45.05 36.0 45.65 37.65 46.25 L40.2 46.7" fill="#b56022" fill-rule="evenodd" stroke="none"/>
      <path d="M45.5 41.65 L45.75 38.0 Q45.75 35.25 44.8 33.75 44.0 33.05 40.2 32.0 L39.3 31.85 38.2 31.8 Q34.5 32.15 30.3 36.6 27.85 39.05 27.5 41.05 27.35 42.7 28.6 43.8 30.85 45.7 34.35 46.3 L40.2 46.7 41.55 46.7 41.65 46.7 43.25 46.4 43.55 46.2 44.2 45.55 44.45 45.3 45.1 43.55 45.35 42.6 45.5 41.65 Z" fill="none" stroke="#000000" stroke-linecap="round" stroke-linejoin="round" stroke-opacity="0.3019608" stroke-width="0.05"/>
      <path d="M33.8 26.3 L33.8 26.25 33.8 26.3 M42.2 35.55 L41.85 35.15 41.9 35.05 42.45 34.3 43.35 36.75 42.65 36.0 42.2 35.55 M35.3 40.8 L35.35 40.8 35.3 40.8" fill="#d07304" fill-rule="evenodd" stroke="none"/>
      <path d="M29.9 24.3 L28.6 23.65 27.65 22.95 27.45 22.8 Q26.2 21.85 26.1 20.75 L26.05 20.3 Q26.1 19.5 26.55 18.85 28.65 17.25 30.55 16.75 L34.45 16.35 35.4 18.3 Q36.05 19.95 35.85 25.25 L36.05 25.3 34.85 25.25 34.75 25.25 30.35 24.5 29.9 24.3" fill="#7c4003" fill-rule="evenodd" stroke="none"/>
      <path d="M27.0 22.55 L26.95 22.6 26.95 22.55 27.0 22.55 M21.7 32.1 L21.75 32.1 21.7 32.15 21.7 32.1" fill="#ffa616" fill-rule="evenodd" stroke="none"/>
      <path d="M22.0 36.15 L20.95 35.7 21.85 35.6 24.15 35.05 23.6 35.95 23.2 36.45 22.95 36.4 22.15 36.2 22.0 36.15 M21.2 34.35 L20.1 34.9 20.1 34.6 19.95 32.55 20.8 30.75 20.85 30.6 Q21.7 28.85 22.3 28.35 20.85 31.1 20.5 34.05 L21.35 33.25 22.15 32.55 24.55 30.0 25.55 28.1 Q25.55 28.65 25.9 29.5 L26.8 30.8 26.85 30.85 27.1 31.25 28.9 28.9 Q28.45 29.95 28.35 31.6 L28.3 31.9 28.3 31.95 27.5 32.7 27.45 32.7 27.05 32.0 26.85 31.65 26.8 31.55 26.45 30.9 Q25.95 31.8 21.2 34.35 M21.35 22.45 L21.35 22.4 20.2 22.8 Q21.85 21.2 24.15 21.3 22.45 21.75 21.35 22.45 M24.85 21.6 L25.35 21.65 Q24.5 22.15 24.2 22.85 L26.55 22.55 26.7 22.7 Q21.25 24.85 20.3 30.35 20.15 27.65 20.95 25.65 21.55 24.15 22.8 23.15 L23.9 22.4 23.1 22.7 21.9 23.25 Q22.85 22.05 24.85 21.6 M23.45 26.35 Q22.0 27.65 21.3 28.65 22.45 25.85 24.25 24.45 26.05 23.0 27.2 23.2 L27.2 23.35 27.3 23.55 25.9 25.7 Q26.85 25.15 28.15 24.7 25.95 26.4 23.95 29.0 22.1 31.2 21.8 31.95 22.95 28.45 24.15 26.3 L24.7 25.5 23.45 26.35" fill="#b25009" fill-rule="evenodd" stroke="none"/>
      <path d="M20.2 22.8 Q21.3 20.5 24.9 17.85 L25.0 17.75 25.35 17.5 Q27.65 15.75 30.4 15.05 L34.6 14.6 Q39.25 14.6 42.8 16.65 39.1 15.4 35.5 15.6 31.9 15.7 29.75 16.6 27.55 17.5 26.55 18.85 26.5 18.3 26.5 18.65 L26.55 18.85 Q26.1 19.5 26.05 20.3 L26.1 20.75 Q26.2 21.85 27.45 22.8 L27.65 22.95 28.6 23.65 29.9 24.3 29.4 24.5 28.3 25.0 Q27.45 26.15 27.25 27.7 L27.0 29.15 26.8 30.8 25.9 29.5 Q25.55 28.65 25.55 28.1 L24.55 30.0 22.15 32.55 21.35 33.25 20.5 34.05 Q20.85 31.1 22.3 28.35 21.7 28.85 20.85 30.6 L20.8 30.75 19.95 32.55 19.85 30.8 Q19.4 27.05 21.35 22.45 22.45 21.75 24.15 21.3 21.85 21.2 20.2 22.8 M24.9 42.15 L24.75 41.85 24.0 40.85 Q23.1 39.6 22.55 37.95 L22.5 37.7 22.0 36.15 22.15 36.2 22.95 36.4 23.2 36.45 23.6 35.95 24.15 35.05 21.85 35.6 20.95 35.7 20.75 35.65 21.2 34.35 Q25.95 31.8 26.45 30.9 L26.8 31.55 26.85 31.65 27.05 32.0 Q27.1 36.95 27.95 38.95 L29.35 41.9 30.2 43.1 Q27.25 40.4 25.3 34.45 24.65 38.1 26.4 42.05 24.0 38.4 23.45 36.9 23.45 39.9 24.9 42.1 L24.9 42.15 M24.85 21.6 Q22.85 22.05 21.9 23.25 L23.1 22.7 23.9 22.4 22.8 23.15 Q21.55 24.15 20.95 25.65 20.15 27.65 20.3 30.35 21.25 24.85 26.7 22.7 L26.55 22.55 24.2 22.85 Q24.5 22.15 25.35 21.65 L24.85 21.6 M27.0 22.55 L26.95 22.55 26.95 22.6 27.0 22.55 M23.45 26.35 L24.7 25.5 24.15 26.3 Q22.95 28.45 21.8 31.95 22.1 31.2 23.95 29.0 25.95 26.4 28.15 24.7 26.85 25.15 25.9 25.7 L27.3 23.55 27.2 23.35 27.2 23.2 Q26.05 23.0 24.25 24.45 22.45 25.85 21.3 28.65 22.0 27.65 23.45 26.35 M21.75 32.1 L21.75 32.0 21.7 32.1 21.7 32.15 21.75 32.1 M28.3 25.0 L28.65 24.5 28.6 24.55 28.3 25.0" fill="#c76103" fill-rule="evenodd" stroke="none"/>
      <path d="M21.75 32.1 L21.7 32.1 21.75 32.0 21.75 32.1 M28.3 25.0 L28.6 24.55 28.65 24.5 28.3 25.0" fill="#e87b04" fill-rule="evenodd" stroke="none"/>
      <path d="M48.45 29.3 L47.7 35.05 47.4 36.45 47.0 36.95 45.9 37.8 45.0 37.4 44.7 36.75 Q44.55 37.2 43.65 37.75 42.55 38.45 41.95 38.4 L41.7 38.25 41.5 38.0 41.45 38.05 Q41.2 38.7 40.2 39.4 39.15 40.1 38.45 40.1 38.05 40.05 38.05 39.15 L37.45 40.2 Q36.65 40.85 35.35 40.8 L35.3 40.8 Q36.1 39.05 36.35 36.65 L36.0 37.5 35.35 38.7 35.05 35.05 Q35.0 37.85 32.6 41.95 L32.45 41.35 Q32.45 40.45 31.45 38.4 30.55 42.95 30.3 43.2 L30.2 43.1 29.35 41.9 27.95 38.95 Q27.1 36.95 27.05 32.0 L27.45 32.7 27.5 32.7 28.3 31.95 28.25 32.55 28.3 33.55 Q31.45 32.95 33.65 31.25 37.55 34.75 39.55 36.1 L39.65 36.25 40.3 35.75 40.45 35.65 42.35 36.85 42.2 35.55 42.65 36.0 43.35 36.75 43.4 36.65 43.9 33.35 44.75 33.9 45.35 32.85 45.6 32.9 45.75 32.4 Q46.4 30.45 46.1 28.15 L47.15 29.6 47.6 28.55 48.4 29.25 48.45 29.3" fill="url(#gradient2)" fill-rule="evenodd" stroke="none"/>
      <path d="M42.8 16.65 L43.8 17.35 44.25 17.7 44.9 18.25 44.95 18.25 45.0 18.3 47.7 20.75 Q49.8 23.2 50.1 25.85 47.05 24.2 46.25 23.3 L47.4 25.75 47.25 26.9 47.1 27.25 46.25 26.95 45.15 26.4 45.85 27.7 46.1 28.15 Q46.4 30.45 45.75 32.4 L45.6 32.9 45.35 32.85 44.0 32.25 Q44.1 26.55 40.25 25.05 40.0 26.85 39.55 27.8 38.05 25.8 36.5 25.75 37.6 26.4 37.85 29.15 38.05 31.25 41.2 34.65 L41.35 34.8 41.35 34.25 41.15 31.2 42.45 34.3 41.9 35.05 41.85 35.15 41.6 35.45 40.95 35.1 Q38.9 33.7 37.7 32.4 36.4 31.05 36.35 30.4 L36.7 30.0 37.1 28.55 36.75 28.9 36.3 29.4 34.7 26.65 34.0 28.4 33.5 28.9 33.35 29.05 30.45 31.55 28.5 32.7 28.3 31.9 28.35 31.6 Q28.45 29.95 28.9 28.9 L27.1 31.25 26.85 30.85 26.8 30.8 27.0 29.15 27.25 27.7 Q27.45 26.15 28.3 25.0 L29.4 24.5 29.9 24.3 30.35 24.5 34.75 25.25 34.85 25.25 36.05 25.3 Q39.0 25.25 41.2 24.15 43.9 22.95 43.95 21.05 L43.7 19.7 42.45 18.55 Q39.8 16.5 35.35 16.3 L34.45 16.35 30.55 16.75 Q28.65 17.25 26.55 18.85 L26.5 18.65 Q26.5 18.3 26.55 18.85 27.55 17.5 29.75 16.6 31.9 15.7 35.5 15.6 39.1 15.4 42.8 16.65 M42.35 24.7 L43.25 27.2 Q43.85 29.35 45.4 31.95 45.8 28.95 45.05 27.25 44.35 25.5 42.35 24.7 M34.1 25.85 L34.1 25.7 Q31.8 26.7 30.9 27.7 32.0 25.95 32.75 25.6 31.05 26.0 30.45 26.7 29.75 27.4 29.25 29.45 28.9 30.4 28.95 31.8 L29.6 30.5 Q30.2 29.4 32.9 27.45 L32.05 29.5 Q33.6 28.1 33.85 27.05 L34.1 25.85" fill="url(#gradient3)" fill-rule="evenodd" stroke="none"/>
      <path d="M42.45 34.3 L41.15 31.2 41.35 34.25 41.35 34.8 41.2 34.65 Q38.05 31.25 37.85 29.15 37.6 26.4 36.5 25.75 38.05 25.8 39.55 27.8 40.0 26.85 40.25 25.05 44.1 26.55 44.0 32.25 L43.9 33.35 43.4 36.65 43.35 36.75 42.45 34.3 M42.35 24.7 Q44.35 25.5 45.05 27.25 45.8 28.95 45.4 31.95 43.85 29.35 43.25 27.2 L42.35 24.7 M33.8 26.3 L33.8 26.25 33.8 26.3 M34.1 25.85 L33.85 27.05 Q33.6 28.1 32.05 29.5 L32.9 27.45 Q30.2 29.4 29.6 30.5 L28.95 31.8 Q28.9 30.4 29.25 29.45 29.75 27.4 30.45 26.7 31.05 26.0 32.75 25.6 32.0 25.95 30.9 27.7 31.8 26.7 34.1 25.7 L34.1 25.85" fill="#ffb03b" fill-rule="evenodd" stroke="none"/>
      <path d="M50.1 25.85 L48.4 25.2 48.5 26.25 48.45 29.3 48.4 29.25 47.6 28.55 47.15 29.6 46.1 28.15 45.85 27.7 45.15 26.4 46.25 26.95 47.1 27.25 47.25 26.9 47.4 25.75 46.25 23.3 Q47.05 24.2 50.1 25.85 M47.4 36.45 L46.9 38.4 45.65 38.3 44.55 38.1 Q43.8 38.6 42.45 39.15 L41.75 39.0 40.45 40.05 39.05 40.95 38.05 40.8 Q36.45 42.35 34.45 43.7 L33.1 43.65 32.2 44.35 30.65 45.2 30.45 45.25 30.1 45.1 28.7 44.5 27.0 43.35 27.0 44.1 26.95 44.0 24.9 42.15 24.9 42.1 Q23.45 39.9 23.45 36.9 24.0 38.4 26.4 42.05 24.65 38.1 25.3 34.45 27.25 40.4 30.2 43.1 L30.3 43.2 Q30.55 42.95 31.45 38.4 32.45 40.45 32.45 41.35 L32.6 41.95 Q35.0 37.85 35.05 35.05 L35.35 38.7 36.0 37.5 36.35 36.65 Q36.1 39.05 35.3 40.8 L35.35 40.8 Q36.65 40.85 37.45 40.2 L38.05 39.15 Q38.05 40.05 38.45 40.1 39.15 40.1 40.2 39.4 41.2 38.7 41.45 38.05 L41.5 38.0 41.7 38.25 41.95 38.4 Q42.55 38.45 43.65 37.75 44.55 37.2 44.7 36.75 L45.0 37.4 45.9 37.8 47.0 36.95 47.4 36.45 M36.05 25.3 L35.85 25.25 Q36.05 19.95 35.4 18.3 L34.45 16.35 35.35 16.3 Q39.8 16.5 42.45 18.55 L43.7 19.7 43.95 21.05 Q43.9 22.95 41.2 24.15 39.0 25.25 36.05 25.3 M28.3 31.95 L28.3 31.9 28.5 32.7 30.45 31.55 33.35 29.05 33.5 28.9 34.0 28.4 34.7 26.65 36.3 29.4 36.75 28.9 37.1 28.55 36.7 30.0 36.35 30.4 Q36.4 31.05 37.7 32.4 38.9 33.7 40.95 35.1 L41.6 35.45 41.85 35.15 42.2 35.55 42.35 36.85 40.45 35.65 40.3 35.75 39.65 36.25 39.55 36.1 Q37.55 34.75 33.65 31.25 L35.4 29.45 36.15 30.6 36.35 30.4 36.15 30.6 35.4 29.45 33.65 31.25 Q31.45 32.95 28.3 33.55 L28.25 32.55 28.3 31.95 M44.0 32.25 L45.35 32.85 44.75 33.9 43.9 33.35 44.0 32.25 M35.3 40.8 L34.15 42.55 33.1 43.65 34.15 42.55 35.3 40.8 M27.0 43.3 L26.95 43.3 27.0 43.35 27.0 43.3 Q26.9 42.8 27.15 42.25 26.9 42.8 27.0 43.3" fill="#9e530e" fill-rule="evenodd" stroke="none"/>
      <path d="M20.2 22.8 Q21.3 20.5 24.9 17.85 L25.0 17.75 25.35 17.5 Q27.65 15.75 30.4 15.05 L34.6 14.6 Q39.25 14.6 42.8 16.65 L43.8 17.35 44.25 17.7 44.9 18.25 44.95 18.25 45.0 18.3 47.7 20.75 Q49.8 23.2 50.1 25.85 L48.4 25.2 48.5 26.25 48.45 29.3 47.7 35.05 M47.4 36.45 L46.9 38.4 45.65 38.3 44.55 38.1 Q43.8 38.6 42.45 39.15 L41.75 39.0 40.45 40.05 39.05 40.95 38.05 40.8 Q36.45 42.35 34.45 43.7 L33.1 43.65 32.2 44.35 30.65 45.2 30.45 45.25 30.1 45.1 28.7 44.5 27.0 43.35 27.0 44.1 26.95 44.0 24.9 42.15 24.75 41.85 24.0 40.85 Q23.1 39.6 22.55 37.95 L22.5 37.7 22.0 36.15 20.95 35.7 20.75 35.65 21.2 34.35 20.1 34.9 20.1 34.6 19.95 32.55 19.85 30.8 Q19.4 27.05 21.35 22.45 L21.35 22.4 20.2 22.8 M21.2 34.35 Q25.95 31.8 26.45 30.9 L26.8 31.55 26.85 31.65 27.05 32.0 27.45 32.7 27.5 32.7 28.3 31.95 M22.0 36.15 L22.15 36.2 22.95 36.4 23.2 36.45 23.6 35.95 24.15 35.05 M44.0 32.25 L45.35 32.85 45.6 32.9 45.75 32.4 Q46.4 30.45 46.1 28.15 M42.2 35.55 L41.85 35.15 41.6 35.45 40.95 35.1 Q38.9 33.7 37.7 32.4 36.4 31.05 36.35 30.4 L36.15 30.6 35.4 29.45 33.65 31.25 Q31.45 32.95 28.3 33.55 L28.25 32.55 28.3 31.95 M37.1 28.55 L36.7 30.0 36.35 30.4 M36.35 36.65 Q36.1 39.05 35.3 40.8 M44.0 32.25 L43.9 33.35 43.4 36.65 43.35 36.75 42.65 36.0 42.2 35.55 M41.85 35.15 L41.9 35.05 42.45 34.3 M33.1 43.65 L34.15 42.55 35.3 40.8 M27.0 43.35 L27.0 43.3 Q26.9 42.8 27.15 42.25" fill="none" stroke="#000000" stroke-linecap="round" stroke-linejoin="round" stroke-opacity="0.3019608" stroke-width="0.05"/>
      <path d="M47.75 20.75 Q49.8 23.2 50.1 25.85 49.2 25.6 48.45 25.2 L48.5 26.25 48.5 29.3 47.75 35.05 47.45 36.45 46.95 38.4 45.75 38.3 45.5 41.65 45.35 42.6 45.15 43.55 44.5 45.3 44.25 45.55 43.55 46.2 43.25 46.4 41.65 46.7 41.6 46.7 40.2 46.7 34.4 46.3 Q32.35 45.95 30.8 45.2 L30.7 45.2 30.5 45.25 30.15 45.1 28.7 44.5 Q27.6 44.0 26.95 43.35 L27.05 44.1 26.95 44.0 24.95 42.15 24.75 41.85 24.05 40.85 Q23.15 39.6 22.55 37.95 L22.5 37.7 22.0 36.15 21.25 35.85 21.05 35.9 20.75 36.05 20.55 36.0 20.45 35.95 Q18.8 36.75 16.8 37.2 L10.85 37.9 9.5 37.95 9.4 37.95 7.8 37.75 7.5 37.6 6.85 36.95 6.65 36.7 6.05 35.05 5.85 34.1 5.75 33.2 Q5.55 31.55 5.65 29.9 L4.35 30.05 3.95 28.1 3.7 26.7 Q3.3 23.75 3.2 21.05 3.2 19.5 3.35 18.05 L3.45 17.0 1.7 17.7 Q2.1 15.05 4.3 12.55 L7.1 10.0 7.15 9.9 7.2 9.9 7.9 9.3 8.35 8.95 9.5 8.2 Q13.15 5.95 17.8 5.75 L22.0 6.0 Q24.8 6.6 27.0 8.25 L27.35 8.45 27.45 8.55 Q31.0 11.0 31.95 13.25 L30.85 12.9 30.85 12.95 31.45 14.85 34.65 14.6 Q39.25 14.6 42.8 16.65 L43.8 17.35 44.25 17.7 44.95 18.25 45.0 18.25 45.05 18.3 47.75 20.75 Z" fill="none" stroke="#000000" stroke-linecap="round" stroke-linejoin="round" stroke-opacity="0.3019608" stroke-width="1.0"/>
    </g>
    <radialGradient cx="0" cy="0" gradientTransform="matrix(0.015, 6.0E-4, -6.0E-4, 0.0155, 38.55, 28.6)" gradientUnits="userSpaceOnUse" id="gradient2" r="819.2" spreadMethod="pad">
      <stop offset="0.0" stop-color="#ffa616"/>
      <stop offset="1.0" stop-color="#d07304"/>
    </radialGradient>
    <radialGradient cx="0" cy="0" gradientTransform="matrix(0.0188, 8.0E-4, -9.0E-4, 0.0248, 44.35, 28.0)" gradientUnits="userSpaceOnUse" id="gradient3" r="819.2" spreadMethod="pad">
      <stop offset="0.18823529411764706" stop-color="#ffa616"/>
      <stop offset="1.0" stop-color="#d07304"/>
    </radialGradient>
    <g id="sprite2" transform="matrix(1.0, 0.0, 0.0, 1.0, 0.0, 0.0)">
      <use height="52.0" transform="matrix(1.0, 0.0, 0.0, 1.0, 0.0, 0.0)" width="52.0" xlink:href="#shape3"/>
    </g>
    <g id="shape3" transform="matrix(1.0, 0.0, 0.0, 1.0, 0.0, 0.0)">
      <path d="M52.0 0.0 L52.0 52.0 0.0 52.0 0.0 0.0 52.0 0.0" fill="#ffba2e" fill-opacity="0.0" fill-rule="evenodd" stroke="none"/>
    </g>
  </defs>
</svg>
