<?xml version="1.0" encoding="UTF-8" standalone="no"?>
<svg xmlns:xlink="http://www.w3.org/1999/xlink" height="520.0px" width="520.0px" xmlns="http://www.w3.org/2000/svg">
  <g transform="matrix(10.0, 0.0, 0.0, 10.0, 0.0, 0.0)">
    <use height="52.0" transform="matrix(1.0, 0.0, 0.0, 1.0, 0.0, 0.0)" width="52.0" xlink:href="#shape0"/>
    <use height="136.85" transform="matrix(0.1418, 0.0, 0.0, 0.1035, 6.8277, 15.0225)" width="148.25" xlink:href="#sprite0"/>
    <use height="136.85" transform="matrix(0.0235, 0.0875, -0.064, 0.0171, 34.6848, 9.0554)" width="148.25" xlink:href="#sprite0"/>
    <use height="25.9" transform="matrix(1.0, 0.0, 0.0, 1.0, 15.5, 19.65)" width="34.05" xlink:href="#shape2"/>
    <use height="136.85" transform="matrix(0.1418, 0.0, 0.0, 0.1035, 17.7277, 26.0725)" width="148.25" xlink:href="#sprite0"/>
    <use height="136.85" transform="matrix(0.0235, 0.0875, -0.064, 0.0171, 45.5848, 20.1554)" width="148.25" xlink:href="#sprite0"/>
  </g>
  <defs>
    <g id="shape0" transform="matrix(1.0, 0.0, 0.0, 1.0, 0.0, 0.0)">
      <path d="M52.0 0.0 L52.0 52.0 0.0 52.0 0.0 0.0 52.0 0.0" fill="#795fa9" fill-opacity="0.0" fill-rule="evenodd" stroke="none"/>
      <path d="M37.6 14.1 L37.4 12.55 Q36.55 11.25 35.8 10.9 32.3 9.3 28.0 9.3 L27.5 9.45 25.6 9.1 24.45 9.15 Q22.95 9.35 21.85 10.05 L21.25 10.55 Q17.8 9.75 15.45 13.1 L15.4 13.6 14.45 13.45 Q9.5 14.85 7.65 16.55 7.0 17.15 6.7 17.85 L6.3 19.1 5.6 19.6 5.6 19.65 5.55 19.7 5.15 21.3 Q4.9 23.55 5.85 26.95 L6.4 27.35 6.6 28.6 Q10.65 32.55 17.85 33.95 L20.15 33.9 Q22.65 33.5 27.45 29.2 L27.55 27.8 30.5 25.75 30.75 25.6 31.2 25.7 Q32.0 25.9 32.9 25.35 34.75 24.3 36.6 22.2 L36.85 21.9 37.2 20.55 37.55 20.25 Q38.25 17.85 38.15 15.65 L38.1 14.45 38.0 13.9 37.6 13.55 37.6 14.1 M6.25 19.55 L6.2 19.75 6.2 19.8 6.25 19.55" fill="none" stroke="#000000" stroke-linecap="round" stroke-linejoin="round" stroke-opacity="0.3019608" stroke-width="1.0"/>
      <path d="M35.8 10.9 Q36.35 11.95 33.65 13.2 L29.45 13.55 Q23.75 12.6 23.35 11.5 25.6 10.05 28.0 9.3 32.3 9.3 35.8 10.9" fill="#79ebff" fill-rule="evenodd" stroke="none"/>
      <path d="M34.5 13.25 Q32.8 14.2 32.55 15.6 31.7 20.65 32.9 25.35 32.0 25.9 31.2 25.7 32.55 20.45 31.45 16.2 30.5 14.1 28.1 13.6 L26.25 13.15 25.7 13.05 24.65 12.9 21.8 13.05 Q22.7 11.9 23.35 11.5 23.75 12.6 29.45 13.55 L33.65 13.2 Q36.35 11.95 35.8 10.9 36.55 11.25 37.4 12.55 L36.7 12.45 35.05 12.95 34.5 13.25" fill="#a3ecfe" fill-rule="evenodd" stroke="none"/>
      <path d="M34.5 13.25 Q36.7 12.4 37.3 14.6 37.5 17.15 36.6 22.2 34.75 24.3 32.9 25.35 31.7 20.65 32.55 15.6 32.8 14.2 34.5 13.25" fill="#03809e" fill-rule="evenodd" stroke="none"/>
      <path d="M36.6 22.2 Q37.5 17.15 37.3 14.6 36.7 12.4 34.5 13.25 L35.05 12.95 36.7 12.45 37.4 12.55 Q38.15 16.85 36.85 21.9 L36.6 22.2 M21.8 13.05 L24.65 12.9 25.7 13.05 26.25 13.15 28.1 13.6 Q30.5 14.1 31.45 16.2 32.55 20.45 31.2 25.7 22.8 23.8 21.55 21.55 20.35 18.3 21.8 13.05" fill="#02b7e3" fill-rule="evenodd" stroke="none"/>
      <path d="M32.9 25.35 Q34.75 24.3 36.6 22.2 L36.85 21.9 Q38.15 16.85 37.4 12.55 36.55 11.25 35.8 10.9 32.3 9.3 28.0 9.3 25.6 10.05 23.35 11.5 22.7 11.9 21.8 13.05 M31.2 25.7 Q32.0 25.9 32.9 25.35 M31.2 25.7 Q22.8 23.8 21.55 21.55 20.35 18.3 21.8 13.05" fill="none" stroke="#000000" stroke-linecap="round" stroke-linejoin="round" stroke-opacity="0.3019608" stroke-width="0.30000000000000004"/>
      <path d="M29.2 17.0 L29.2 16.7 28.95 14.15 Q28.6 13.15 28.05 12.45 L27.8 12.15 Q26.4 10.7 24.0 11.1 L23.4 11.0 23.15 10.95 23.5 10.85 25.25 10.55 Q27.85 10.4 29.45 14.15 L29.9 14.9 29.9 14.95 Q30.45 15.7 30.55 16.85 30.6 17.7 29.85 17.7 29.15 17.65 29.2 17.0 M15.65 13.4 Q17.05 11.6 19.15 11.1 L21.65 11.25 Q24.3 12.85 17.85 13.9 15.85 14.0 15.65 13.4" fill="#f3f3f1" fill-rule="evenodd" stroke="none"/>
      <path d="M23.95 11.75 Q24.3 11.5 24.95 11.55 27.15 11.9 27.5 13.1 28.05 15.1 26.65 15.95 L25.5 13.45 Q24.8 12.4 23.95 11.75" fill="#c9c9be" fill-rule="evenodd" stroke="none"/>
      <path d="M24.0 11.1 Q26.4 10.7 27.8 12.15 L28.05 12.45 Q28.6 13.15 28.95 14.15 L29.2 16.7 29.2 17.0 Q29.1 18.65 28.05 20.0 L27.55 20.55 27.05 17.55 26.65 15.95 Q28.05 15.1 27.5 13.1 27.15 11.9 24.95 11.55 24.3 11.5 23.95 11.75 L23.45 11.4 23.3 11.35 23.75 11.15 24.0 11.1" fill="#adad9e" fill-rule="evenodd" stroke="none"/>
      <path d="M29.2 17.0 Q29.15 17.65 29.85 17.7 30.6 17.7 30.55 16.85 30.45 15.7 29.9 14.95 30.5 15.65 31.15 14.95 31.4 13.7 29.85 11.05 31.35 12.8 31.85 15.95 32.4 19.75 31.35 22.75 L26.25 26.4 17.05 22.4 Q17.45 19.85 16.35 18.85 L21.65 21.25 22.9 21.45 27.1 22.1 22.9 21.45 Q25.9 16.75 23.15 12.05 L24.8 13.9 Q26.6 17.15 27.1 22.1 L27.7 22.2 27.55 20.55 28.05 20.0 Q29.1 18.65 29.2 17.0" fill="#d7d9d0" fill-rule="evenodd" stroke="none"/>
      <path d="M23.15 10.95 L23.4 11.0 24.0 11.1 23.75 11.15 23.3 11.35 23.25 11.3 22.7 11.05 21.25 10.55 21.85 10.05 Q21.9 10.7 23.15 10.95 M22.9 21.45 L21.65 21.25 16.35 18.85 Q15.8 18.35 14.9 18.2 L15.35 13.85 15.65 13.4 Q15.85 14.0 17.85 13.9 24.3 12.85 21.65 11.25 L22.9 11.9 23.15 12.05 Q25.9 16.75 22.9 21.45" fill="#e2e4de" fill-rule="evenodd" stroke="none"/>
      <path d="M29.9 14.95 L29.9 14.9 29.45 14.15 Q27.85 10.4 25.25 10.55 L23.5 10.85 23.15 10.95 Q21.9 10.7 21.85 10.05 22.95 9.35 24.45 9.15 L25.6 9.1 Q28.3 9.25 29.85 11.05 31.4 13.7 31.15 14.95 30.5 15.65 29.9 14.95 M23.3 11.35 L23.45 11.4 23.95 11.75 Q24.8 12.4 25.5 13.45 L26.65 15.95 27.05 17.55 27.55 20.55 27.7 22.2 27.1 22.1 Q26.6 17.15 24.8 13.9 L23.15 12.05 22.9 11.9 21.65 11.25 19.15 11.1 Q17.05 11.6 15.65 13.4 L15.35 13.85 15.45 13.1 Q17.8 9.75 21.25 10.55 L22.7 11.05 23.25 11.3 23.3 11.35" fill="#ffffff" fill-rule="evenodd" stroke="none"/>
      <path d="M24.0 11.1 Q26.4 10.7 27.8 12.15 L28.05 12.45 Q28.6 13.15 28.95 14.15 L29.2 16.7 29.2 17.0 M24.0 11.1 L23.75 11.15 23.3 11.35 23.45 11.4 23.95 11.75 Q24.8 12.4 25.5 13.45 L26.65 15.95 27.05 17.55 27.55 20.55 28.05 20.0 Q29.1 18.65 29.2 17.0 M29.85 11.05 Q28.3 9.25 25.6 9.1 L24.45 9.15 Q22.95 9.35 21.85 10.05 M27.55 20.55 L27.7 22.2 27.1 22.1 22.9 21.45 21.65 21.25 16.35 18.85 Q17.45 19.85 17.05 22.4 L26.25 26.4 31.35 22.75 Q32.4 19.75 31.85 15.95 31.35 12.8 29.85 11.05 M21.25 10.55 L21.85 10.05 M21.25 10.55 L22.7 11.05 23.25 11.3 23.3 11.35 M15.35 13.85 L14.9 18.2 Q15.8 18.35 16.35 18.85 M15.35 13.85 L15.45 13.1 Q17.8 9.75 21.25 10.55" fill="none" stroke="#000000" stroke-linecap="round" stroke-linejoin="round" stroke-opacity="0.3019608" stroke-width="0.30000000000000004"/>
      <path d="M20.15 33.9 L17.85 33.95 Q18.45 33.4 18.65 31.95 18.8 27.7 18.25 24.6 17.95 22.55 17.2 21.6 18.25 22.05 19.0 23.6 L19.0 23.85 19.1 29.25 Q19.1 32.2 20.15 33.9 M22.05 19.15 Q20.05 20.05 19.3 19.85 10.4 18.85 8.7 16.5 8.55 15.8 12.1 14.4 13.75 13.8 15.5 13.9 21.25 14.9 24.7 17.1 L23.6 18.3 Q22.75 18.75 22.05 19.15" fill="#79ebff" fill-rule="evenodd" stroke="none"/>
      <path d="M6.2 19.75 L6.7 17.85 Q7.0 17.15 7.65 16.55 9.5 14.85 14.45 13.45 20.45 14.05 25.95 17.25 L26.65 18.7 Q25.8 17.4 24.45 17.85 24.0 18.1 23.6 18.3 L24.7 17.1 Q21.25 14.9 15.5 13.9 13.75 13.8 12.1 14.4 8.55 15.8 8.7 16.5 10.4 18.85 19.3 19.85 20.05 20.05 22.05 19.15 L21.7 19.4 21.55 19.5 21.45 19.6 Q19.1 21.35 19.0 23.6 18.25 22.05 17.2 21.6 8.25 16.8 6.2 19.75" fill="#a3ecfe" fill-rule="evenodd" stroke="none"/>
      <path d="M17.85 33.95 Q10.65 32.55 6.6 28.6 5.75 23.15 6.2 19.75 8.25 16.8 17.2 21.6 17.95 22.55 18.25 24.6 18.8 27.7 18.65 31.95 18.45 33.4 17.85 33.95" fill="#02b7e3" fill-rule="evenodd" stroke="none"/>
      <path d="M26.65 18.7 Q28.0 22.3 27.45 29.2 22.65 33.5 20.15 33.9 19.1 32.2 19.1 29.25 L19.0 23.85 19.0 23.6 Q19.1 21.35 21.45 19.6 L21.55 19.5 21.7 19.4 22.05 19.15 Q22.75 18.75 23.6 18.3 24.0 18.1 24.45 17.85 25.8 17.4 26.65 18.7" fill="#03809e" fill-rule="evenodd" stroke="none"/>
      <path d="M6.2 19.75 L6.7 17.85 Q7.0 17.15 7.65 16.55 9.5 14.85 14.45 13.45 20.45 14.05 25.95 17.25 L26.65 18.7 Q28.0 22.3 27.45 29.2 22.65 33.5 20.15 33.9 L17.85 33.95 Q10.65 32.55 6.6 28.6 5.75 23.15 6.2 19.75 Z" fill="none" stroke="#000000" stroke-linecap="round" stroke-linejoin="round" stroke-opacity="0.3019608" stroke-width="0.30000000000000004"/>
      <path d="M5.55 19.7 Q5.45 19.9 5.65 20.15 10.65 22.6 17.1 24.95 L17.55 25.1 19.35 25.0 19.4 24.95 36.6 15.35 36.75 15.25 Q37.7 14.65 38.0 13.9 L38.1 14.45 38.15 15.65 37.3 15.55 Q35.85 16.15 33.1 17.65 L29.6 19.55 Q30.3 21.95 28.35 25.4 30.25 21.35 29.05 19.85 L28.9 19.95 Q21.6 24.1 19.55 25.8 18.95 27.5 19.45 30.5 19.8 32.25 21.55 31.65 L21.05 31.95 Q19.3 32.85 17.45 32.4 L16.9 32.25 Q18.6 32.4 18.7 30.15 18.6 27.55 17.05 25.55 14.35 24.15 11.4 22.9 8.7 21.8 5.8 20.85 5.45 20.8 5.15 21.3 L5.55 19.7" fill="#ead29d" fill-rule="evenodd" stroke="none"/>
      <path d="M38.0 13.9 Q37.7 14.65 36.75 15.25 L36.6 15.35 19.4 24.95 19.35 25.0 17.55 25.1 17.1 24.95 Q10.65 22.6 5.65 20.15 5.45 19.9 5.55 19.7 L5.6 19.65 5.6 19.6 Q5.8 19.35 6.35 19.1 L6.2 19.8 Q11.1 22.1 17.95 24.5 L18.85 24.5 37.6 14.1 37.6 13.55 38.0 13.9" fill="#deb75c" fill-rule="evenodd" stroke="none"/>
      <path d="M5.15 21.3 Q5.45 20.8 5.8 20.85 8.7 21.8 11.4 22.9 14.7 27.85 10.4 29.7 7.9 28.5 5.85 26.95 4.9 23.55 5.15 21.3" fill="#d3a434" fill-rule="evenodd" stroke="none"/>
      <path d="M28.35 25.4 Q30.3 21.95 29.6 19.55 L33.1 17.65 Q30.65 21.7 30.5 25.75 L25.95 28.9 Q27.45 27.05 28.35 25.4" fill="#75591c" fill-rule="evenodd" stroke="none"/>
      <path d="M21.55 31.65 Q19.8 32.25 19.45 30.5 18.95 27.5 19.55 25.8 21.6 24.1 28.9 19.95 L29.05 19.85 Q30.25 21.35 28.35 25.4 27.45 27.05 25.95 28.9 L21.55 31.65 M33.1 17.65 Q35.85 16.15 37.3 15.55 38.05 15.4 37.55 20.25 L30.5 25.75 Q30.65 21.7 33.1 17.65" fill="#896921" fill-rule="evenodd" stroke="none"/>
      <path d="M11.4 22.9 Q14.35 24.15 17.05 25.55 18.6 27.55 18.7 30.15 18.6 32.4 16.9 32.25 13.35 31.2 10.4 29.7 14.7 27.85 11.4 22.9 M37.3 15.55 L38.15 15.65 Q38.25 17.85 37.55 20.25 38.05 15.4 37.3 15.55" fill="#b58a28" fill-rule="evenodd" stroke="none"/>
      <path d="M38.0 13.9 L37.6 13.55 37.6 14.1 18.85 24.5 17.95 24.5 Q11.1 22.1 6.2 19.8 L6.35 19.1 Q5.8 19.35 5.6 19.6 L5.6 19.65 5.55 19.7 5.15 21.3 M16.9 32.25 L17.45 32.4 Q19.3 32.85 21.05 31.95 L21.55 31.65 M38.15 15.65 L38.1 14.45 38.0 13.9 M37.55 20.25 Q38.25 17.85 38.15 15.65 M25.95 28.9 L30.5 25.75 M25.95 28.9 L21.55 31.65 M37.55 20.25 L30.5 25.75 M10.4 29.7 Q7.9 28.5 5.85 26.95 4.9 23.55 5.15 21.3 M10.4 29.7 Q13.35 31.2 16.9 32.25" fill="none" stroke="#000000" stroke-linecap="round" stroke-linejoin="round" stroke-opacity="0.3019608" stroke-width="0.30000000000000004"/>
      <path d="M26.1 25.75 Q26.3 26.6 25.8 27.6 25.35 28.6 24.45 29.1 L22.85 29.3 Q22.2 29.05 22.1 28.2 22.0 27.35 22.5 26.35 23.0 25.35 23.8 24.85 24.65 24.35 25.3 24.6 25.95 24.85 26.1 25.75" fill="#000000" fill-opacity="0.3019608" fill-rule="evenodd" stroke="none"/>
      <path d="M24.15 24.85 L23.55 25.5 23.4 26.3 Q23.45 26.7 23.75 26.8 L24.4 26.7 25.0 26.05 25.15 25.25 24.75 24.75 24.15 24.85 M25.25 24.4 Q25.8 24.6 25.95 25.35 26.1 26.15 25.7 26.95 25.3 27.8 24.55 28.25 L23.2 28.45 Q22.65 28.2 22.55 27.45 22.45 26.75 22.9 25.9 23.3 25.05 24.0 24.65 24.7 24.2 25.25 24.4" fill="#d3a434" fill-rule="evenodd" stroke="none"/>
      <path d="M24.15 24.85 L24.75 24.75 25.15 25.25 25.0 26.05 24.4 26.7 23.75 26.8 Q23.45 26.7 23.4 26.3 L23.55 25.5 24.15 24.85" fill="#ead29d" fill-rule="evenodd" stroke="none"/>
      <path d="M25.3 24.0 Q25.95 24.25 26.1 25.15 26.3 26.05 25.8 27.05 25.35 28.05 24.45 28.5 23.55 29.0 22.85 28.75 22.2 28.5 22.1 27.6 22.0 26.75 22.5 25.8 23.0 24.8 23.8 24.3 24.65 23.75 25.3 24.0 M25.25 24.4 Q24.7 24.2 24.0 24.65 23.3 25.05 22.9 25.9 22.45 26.75 22.55 27.45 22.65 28.2 23.2 28.45 L24.55 28.25 Q25.3 27.8 25.7 26.95 26.1 26.15 25.95 25.35 25.8 24.6 25.25 24.4" fill="#ad8527" fill-rule="evenodd" stroke="none"/>
      <path d="M25.3 24.0 Q25.95 24.25 26.1 25.15 26.3 26.05 25.8 27.05 25.35 28.05 24.45 28.5 23.55 29.0 22.85 28.75 22.2 28.5 22.1 27.6 22.0 26.75 22.5 25.8 23.0 24.8 23.8 24.3 24.65 23.75 25.3 24.0 Z" fill="none" stroke="#000000" stroke-linecap="round" stroke-linejoin="round" stroke-opacity="0.3019608" stroke-width="0.30000000000000004"/>
      <path d="M36.0 19.35 Q36.2 20.15 35.75 21.05 35.3 21.95 34.5 22.4 L33.05 22.6 Q32.45 22.4 32.35 21.6 32.25 20.8 32.7 19.9 33.2 19.0 33.9 18.55 34.65 18.05 35.25 18.3 35.85 18.55 36.0 19.35" fill="#000000" fill-opacity="0.3019608" fill-rule="evenodd" stroke="none"/>
      <path d="M34.2 18.55 L33.7 19.15 33.55 19.85 33.85 20.3 34.45 20.25 35.0 19.65 35.15 18.9 34.8 18.45 34.2 18.55 M35.25 18.1 Q35.75 18.3 35.9 19.0 36.05 19.7 35.65 20.45 L34.6 21.6 33.35 21.8 Q32.85 21.6 32.8 20.95 32.7 20.25 33.1 19.5 33.45 18.7 34.1 18.35 34.75 17.9 35.25 18.1" fill="#d3a434" fill-rule="evenodd" stroke="none"/>
      <path d="M34.2 18.55 L34.8 18.45 35.15 18.9 35.0 19.65 34.45 20.25 33.85 20.3 33.55 19.85 33.7 19.15 34.2 18.55" fill="#ead29d" fill-rule="evenodd" stroke="none"/>
      <path d="M35.25 18.1 Q34.75 17.9 34.1 18.35 33.45 18.7 33.1 19.5 32.7 20.25 32.8 20.95 32.85 21.6 33.35 21.8 L34.6 21.6 35.65 20.45 Q36.05 19.7 35.9 19.0 35.75 18.3 35.25 18.1 M36.0 18.8 Q36.2 19.6 35.75 20.55 35.3 21.45 34.5 21.85 L33.05 22.1 Q32.45 21.85 32.35 21.05 32.25 20.25 32.7 19.4 33.2 18.5 33.9 18.0 34.65 17.55 35.25 17.75 35.85 18.0 36.0 18.8" fill="#ad8527" fill-rule="evenodd" stroke="none"/>
      <path d="M36.0 18.8 Q36.2 19.6 35.75 20.55 35.3 21.45 34.5 21.85 L33.05 22.1 Q32.45 21.85 32.35 21.05 32.25 20.25 32.7 19.4 33.2 18.5 33.9 18.0 34.65 17.55 35.25 17.75 35.85 18.0 36.0 18.8 Z" fill="none" stroke="#000000" stroke-linecap="round" stroke-linejoin="round" stroke-opacity="0.3019608" stroke-width="0.30000000000000004"/>
      <path d="M12.95 27.3 Q12.75 28.15 13.25 29.15 13.7 30.15 14.6 30.65 L16.2 30.85 Q16.85 30.6 16.95 29.75 17.05 28.9 16.55 27.9 16.05 26.9 15.25 26.4 14.4 25.9 13.75 26.15 13.1 26.4 12.95 27.3" fill="#000000" fill-opacity="0.3019608" fill-rule="evenodd" stroke="none"/>
      <path d="M13.9 26.8 L14.05 27.6 14.65 28.25 15.35 28.35 15.65 27.85 15.5 27.05 14.9 26.4 14.3 26.3 13.9 26.8 M13.8 25.95 Q14.35 25.75 15.05 26.2 15.75 26.6 16.2 27.45 16.6 28.3 16.5 29.0 16.4 29.75 15.85 30.0 15.3 30.2 14.55 29.8 13.75 29.35 13.35 28.5 12.95 27.7 13.1 26.9 13.25 26.15 13.8 25.95" fill="#d3a434" fill-rule="evenodd" stroke="none"/>
      <path d="M13.9 26.8 L14.3 26.3 14.9 26.4 15.5 27.05 15.65 27.85 15.35 28.35 14.65 28.25 14.05 27.6 13.9 26.8" fill="#ead29d" fill-rule="evenodd" stroke="none"/>
      <path d="M13.8 25.95 Q13.25 26.15 13.1 26.9 12.95 27.7 13.35 28.5 13.75 29.35 14.55 29.8 15.3 30.2 15.85 30.0 16.4 29.75 16.5 29.0 16.6 28.3 16.2 27.45 15.75 26.6 15.05 26.2 14.35 25.75 13.8 25.95 M12.95 26.7 Q13.1 25.8 13.8 25.55 14.45 25.3 15.25 25.85 16.05 26.35 16.55 27.35 17.05 28.3 16.95 29.15 16.85 30.05 16.2 30.3 15.5 30.55 14.6 30.05 13.7 29.6 13.25 28.6 12.75 27.6 12.95 26.7" fill="#deb75c" fill-rule="evenodd" stroke="none"/>
      <path d="M12.95 26.7 Q12.75 27.6 13.25 28.6 13.7 29.6 14.6 30.05 15.5 30.55 16.2 30.3 16.85 30.05 16.95 29.15 17.05 28.3 16.55 27.35 16.05 26.35 15.25 25.85 14.45 25.3 13.8 25.55 13.1 25.8 12.95 26.7 Z" fill="none" stroke="#000000" stroke-linecap="round" stroke-linejoin="round" stroke-opacity="0.3019608" stroke-width="0.30000000000000004"/>
      <path d="M6.3 24.1 Q6.1 24.95 6.6 25.95 7.05 26.95 7.95 27.45 L9.55 27.65 Q10.2 27.4 10.3 26.55 10.4 25.7 9.9 24.7 9.4 23.7 8.6 23.2 7.75 22.7 7.1 22.95 6.45 23.2 6.3 24.1" fill="#000000" fill-opacity="0.3019608" fill-rule="evenodd" stroke="none"/>
      <path d="M7.65 23.1 L7.25 23.6 7.4 24.4 8.0 25.05 8.7 25.15 9.0 24.65 8.85 23.85 8.25 23.2 7.65 23.1 M7.15 22.75 L8.4 22.95 9.55 24.25 Q9.95 25.05 9.85 25.8 9.75 26.55 9.2 26.75 L7.9 26.55 Q7.1 26.15 6.7 25.3 6.3 24.45 6.45 23.7 6.6 22.95 7.15 22.75" fill="#d3a434" fill-rule="evenodd" stroke="none"/>
      <path d="M7.65 23.1 L8.25 23.2 8.85 23.85 9.0 24.65 8.7 25.15 8.0 25.05 7.4 24.4 7.25 23.6 7.65 23.1" fill="#ead29d" fill-rule="evenodd" stroke="none"/>
      <path d="M6.3 23.5 Q6.45 22.6 7.15 22.35 7.8 22.1 8.6 22.6 9.4 23.1 9.9 24.1 10.4 25.1 10.3 25.95 10.2 26.8 9.55 27.1 L8.0 26.85 Q7.1 26.35 6.6 25.35 6.1 24.4 6.3 23.5 M7.15 22.75 Q6.6 22.95 6.45 23.7 6.3 24.45 6.7 25.3 7.1 26.15 7.9 26.55 L9.2 26.75 Q9.75 26.55 9.85 25.8 9.95 25.05 9.55 24.25 L8.4 22.95 7.15 22.75" fill="#deb75c" fill-rule="evenodd" stroke="none"/>
      <path d="M6.3 23.5 Q6.1 24.4 6.6 25.35 7.1 26.35 8.0 26.85 L9.55 27.1 Q10.2 26.8 10.3 25.95 10.4 25.1 9.9 24.1 9.4 23.1 8.6 22.6 7.8 22.1 7.15 22.35 6.45 22.6 6.3 23.5 Z" fill="none" stroke="#000000" stroke-linecap="round" stroke-linejoin="round" stroke-opacity="0.3019608" stroke-width="0.30000000000000004"/>
    </g>
    <g id="sprite0" transform="matrix(1.0, 0.0, 0.0, 1.0, 73.5, 65.0)">
      <use height="136.85" transform="matrix(1.0, 0.0, 0.0, 1.0, -73.5, -65.0)" width="148.25" xlink:href="#shape1"/>
    </g>
    <g id="shape1" transform="matrix(1.0, 0.0, 0.0, 1.0, 73.5, 65.0)">
      <path d="M36.65 -54.65 Q60.05 -42.0 69.75 -17.95 80.55 8.9 68.0 34.1 55.45 59.35 26.8 68.2 -1.8 77.05 -29.7 64.3 -57.6 51.6 -68.45 24.75 -79.3 -2.05 -66.75 -27.25 L-66.7 -27.3 Q-54.1 -52.5 -25.5 -61.4 3.1 -70.2 31.0 -57.5 L36.65 -54.65" fill="url(#gradient0)" fill-rule="evenodd" stroke="none"/>
    </g>
    <radialGradient cx="0" cy="0" gradientTransform="matrix(0.0914, 0.0, 0.0, 0.0914, 0.6, 3.4)" gradientUnits="userSpaceOnUse" id="gradient0" r="819.2" spreadMethod="pad">
      <stop offset="0.0" stop-color="#ffffff"/>
      <stop offset="1.0" stop-color="#ffffff" stop-opacity="0.0"/>
    </radialGradient>
    <g id="shape2" transform="matrix(1.0, 0.0, 0.0, 1.0, -15.5, -19.65)">
      <path d="M48.5 25.15 L48.3 23.6 Q47.45 22.3 46.7 21.95 43.2 20.35 38.9 20.35 L38.4 20.5 36.5 20.15 35.35 20.2 Q33.85 20.4 32.75 21.1 L32.15 21.6 Q28.7 20.8 26.35 24.15 L26.3 24.65 25.35 24.5 Q20.4 25.9 18.55 27.6 17.9 28.2 17.6 28.9 L17.2 30.15 16.5 30.65 16.5 30.7 16.45 30.75 16.05 32.35 Q15.8 34.6 16.75 38.0 L17.3 38.4 17.5 39.65 Q21.55 43.6 28.75 45.0 L31.05 44.95 Q33.55 44.55 38.35 40.25 L38.45 38.85 41.4 36.8 41.65 36.65 42.1 36.75 Q42.9 36.95 43.8 36.4 45.65 35.35 47.5 33.25 L47.75 32.95 48.1 31.6 48.45 31.3 Q49.15 28.9 49.05 26.7 L49.0 25.5 48.9 24.95 48.5 24.6 48.5 25.15 M17.15 30.6 L17.1 30.8 17.1 30.85 17.15 30.6" fill="none" stroke="#000000" stroke-linecap="round" stroke-linejoin="round" stroke-opacity="0.3019608" stroke-width="1.0"/>
      <path d="M46.7 21.95 Q47.25 23.0 44.55 24.25 L40.35 24.6 Q34.65 23.65 34.25 22.55 36.5 21.1 38.9 20.35 43.2 20.35 46.7 21.95" fill="#79ebff" fill-rule="evenodd" stroke="none"/>
      <path d="M48.3 23.6 L47.6 23.5 45.95 24.0 45.4 24.3 Q43.7 25.25 43.45 26.65 42.6 31.7 43.8 36.4 42.9 36.95 42.1 36.75 43.45 31.5 42.35 27.25 41.4 25.15 39.0 24.65 L37.15 24.2 36.6 24.1 35.55 23.95 32.7 24.1 Q33.6 22.95 34.25 22.55 34.65 23.65 40.35 24.6 L44.55 24.25 Q47.25 23.0 46.7 21.95 47.45 22.3 48.3 23.6" fill="#a3ecfe" fill-rule="evenodd" stroke="none"/>
      <path d="M43.8 36.4 Q42.6 31.7 43.45 26.65 43.7 25.25 45.4 24.3 47.6 23.45 48.2 25.65 48.4 28.2 47.5 33.25 45.65 35.35 43.8 36.4" fill="#03809e" fill-rule="evenodd" stroke="none"/>
      <path d="M45.4 24.3 L45.95 24.0 47.6 23.5 48.3 23.6 Q49.05 27.9 47.75 32.95 L47.5 33.25 Q48.4 28.2 48.2 25.65 47.6 23.45 45.4 24.3 M32.7 24.1 L35.55 23.95 36.6 24.1 37.15 24.2 39.0 24.65 Q41.4 25.15 42.35 27.25 43.45 31.5 42.1 36.75 33.7 34.85 32.45 32.6 31.25 29.35 32.7 24.1" fill="#02b7e3" fill-rule="evenodd" stroke="none"/>
      <path d="M48.3 23.6 Q47.45 22.3 46.7 21.95 M34.25 22.55 Q33.6 22.95 32.7 24.1 M42.1 36.75 Q42.9 36.95 43.8 36.4 45.65 35.35 47.5 33.25 L47.75 32.95 Q49.05 27.9 48.3 23.6 M34.25 22.55 Q36.5 21.1 38.9 20.35 43.2 20.35 46.7 21.95 M42.1 36.75 Q33.7 34.85 32.45 32.6 31.25 29.35 32.7 24.1" fill="none" stroke="#000000" stroke-linecap="round" stroke-linejoin="round" stroke-opacity="0.3019608" stroke-width="0.30000000000000004"/>
      <path d="M34.05 22.0 L34.4 21.9 36.15 21.6 Q38.75 21.45 40.35 25.2 L40.8 25.95 40.8 26.0 Q41.35 26.75 41.45 27.9 41.5 28.75 40.75 28.75 40.05 28.7 40.1 28.05 L40.1 27.75 39.85 25.2 Q39.5 24.2 38.95 23.5 L38.7 23.2 Q37.3 21.75 34.9 22.15 L34.3 22.05 34.05 22.0 M26.55 24.45 Q27.95 22.65 30.05 22.15 L32.55 22.3 Q35.2 23.9 28.75 24.95 26.75 25.05 26.55 24.45" fill="#f3f3f1" fill-rule="evenodd" stroke="none"/>
      <path d="M34.85 22.8 L35.85 22.6 Q38.05 22.95 38.4 24.15 38.95 26.15 37.55 27.0 L36.4 24.5 Q35.7 23.45 34.85 22.8" fill="#c9c9be" fill-rule="evenodd" stroke="none"/>
      <path d="M40.1 28.05 Q40.0 29.7 38.95 31.05 L38.45 31.6 37.95 28.6 37.55 27.0 Q38.95 26.15 38.4 24.15 38.05 22.95 35.85 22.6 L34.85 22.8 34.35 22.45 34.2 22.4 34.65 22.2 34.9 22.15 Q37.3 21.75 38.7 23.2 L38.95 23.5 Q39.5 24.2 39.85 25.2 L40.1 27.75 40.1 28.05" fill="#adad9e" fill-rule="evenodd" stroke="none"/>
      <path d="M40.8 26.0 Q41.4 26.7 42.05 26.0 42.3 24.75 40.75 22.1 42.25 23.85 42.75 27.0 43.3 30.8 42.25 33.8 L37.15 37.45 27.95 33.45 Q28.35 30.9 27.25 29.9 L32.55 32.3 33.8 32.5 38.0 33.15 33.8 32.5 Q36.8 27.8 34.05 23.1 L35.7 24.95 Q37.5 28.2 38.0 33.15 L38.6 33.25 38.45 31.6 38.95 31.05 Q40.0 29.7 40.1 28.05 40.05 28.7 40.75 28.75 41.5 28.75 41.45 27.9 41.35 26.75 40.8 26.0" fill="#d7d9d0" fill-rule="evenodd" stroke="none"/>
      <path d="M32.75 21.1 Q32.8 21.75 34.05 22.0 L34.3 22.05 34.9 22.15 34.65 22.2 34.2 22.4 34.15 22.35 33.6 22.1 32.15 21.6 32.75 21.1 M33.8 32.5 L32.55 32.3 27.25 29.9 Q26.7 29.4 25.8 29.25 L26.25 24.9 26.55 24.45 Q26.75 25.05 28.75 24.95 35.2 23.9 32.55 22.3 L33.8 22.95 34.05 23.1 Q36.8 27.8 33.8 32.5" fill="#e2e4de" fill-rule="evenodd" stroke="none"/>
      <path d="M40.75 22.1 Q42.3 24.75 42.05 26.0 41.4 26.7 40.8 26.0 L40.8 25.95 40.35 25.2 Q38.75 21.45 36.15 21.6 L34.4 21.9 34.05 22.0 Q32.8 21.75 32.75 21.1 33.85 20.4 35.35 20.2 L36.5 20.15 Q39.2 20.3 40.75 22.1 M38.45 31.6 L38.6 33.25 38.0 33.15 Q37.5 28.2 35.7 24.95 L34.05 23.1 33.8 22.95 32.55 22.3 30.05 22.15 Q27.95 22.65 26.55 24.45 L26.25 24.9 26.35 24.15 Q28.7 20.8 32.15 21.6 L33.6 22.1 34.15 22.35 34.2 22.4 34.35 22.45 34.85 22.8 Q35.7 23.45 36.4 24.5 L37.55 27.0 37.95 28.6 38.45 31.6" fill="#ffffff" fill-rule="evenodd" stroke="none"/>
      <path d="M40.75 22.1 Q39.2 20.3 36.5 20.15 L35.35 20.2 Q33.85 20.4 32.75 21.1 M40.1 28.05 Q40.0 29.7 38.95 31.05 L38.45 31.6 38.6 33.25 38.0 33.15 33.8 32.5 32.55 32.3 27.25 29.9 Q28.35 30.9 27.95 33.45 L37.15 37.45 42.25 33.8 Q43.3 30.8 42.75 27.0 42.25 23.85 40.75 22.1 M34.9 22.15 Q37.3 21.75 38.7 23.2 L38.95 23.5 Q39.5 24.2 39.85 25.2 L40.1 27.75 40.1 28.05 M37.55 27.0 L37.95 28.6 38.45 31.6 M37.55 27.0 L36.4 24.5 Q35.7 23.45 34.85 22.8 L34.35 22.45 34.2 22.4 34.15 22.35 33.6 22.1 32.15 21.6 Q28.7 20.8 26.35 24.15 L26.25 24.9 25.8 29.25 Q26.7 29.4 27.25 29.9 M34.2 22.4 L34.65 22.2 34.9 22.15 M32.15 21.6 L32.75 21.1" fill="none" stroke="#000000" stroke-linecap="round" stroke-linejoin="round" stroke-opacity="0.3019608" stroke-width="0.30000000000000004"/>
      <path d="M31.05 44.95 L28.75 45.0 Q29.35 44.45 29.55 43.0 29.7 38.75 29.15 35.65 28.85 33.6 28.1 32.65 29.15 33.1 29.9 34.65 L29.9 34.9 30.0 40.3 Q30.0 43.25 31.05 44.95 M32.95 30.2 Q30.95 31.1 30.2 30.9 21.3 29.9 19.6 27.55 19.45 26.85 23.0 25.45 24.65 24.85 26.4 24.95 32.15 25.95 35.6 28.15 L34.5 29.35 32.95 30.2" fill="#79ebff" fill-rule="evenodd" stroke="none"/>
      <path d="M17.1 30.8 Q17.25 29.65 17.6 28.9 17.9 28.2 18.55 27.6 20.4 25.9 25.35 24.5 31.35 25.1 36.85 28.3 L37.55 29.75 Q36.7 28.45 35.35 28.9 L34.5 29.35 35.6 28.15 Q32.15 25.95 26.4 24.95 24.65 24.85 23.0 25.45 19.45 26.85 19.6 27.55 21.3 29.9 30.2 30.9 30.95 31.1 32.95 30.2 L32.6 30.45 32.45 30.55 32.35 30.65 Q30.0 32.4 29.9 34.65 29.15 33.1 28.1 32.65 19.15 27.85 17.1 30.8" fill="#a3ecfe" fill-rule="evenodd" stroke="none"/>
      <path d="M28.75 45.0 Q21.55 43.6 17.5 39.65 16.65 34.2 17.1 30.8 19.15 27.85 28.1 32.65 28.85 33.6 29.15 35.65 29.7 38.75 29.55 43.0 29.35 44.45 28.75 45.0" fill="#02b7e3" fill-rule="evenodd" stroke="none"/>
      <path d="M37.55 29.75 Q38.9 33.35 38.35 40.25 33.55 44.55 31.05 44.95 30.0 43.25 30.0 40.3 L29.9 34.9 29.9 34.65 Q30.0 32.4 32.35 30.65 L32.45 30.55 32.6 30.45 32.95 30.2 34.5 29.35 35.35 28.9 Q36.7 28.45 37.55 29.75" fill="#03809e" fill-rule="evenodd" stroke="none"/>
      <path d="M17.1 30.8 Q17.25 29.65 17.6 28.9 17.9 28.2 18.55 27.6 20.4 25.9 25.35 24.5 31.35 25.1 36.85 28.3 L37.55 29.75 Q38.9 33.35 38.35 40.25 33.55 44.55 31.05 44.95 L28.75 45.0 Q21.55 43.6 17.5 39.65 16.65 34.2 17.1 30.8 Z" fill="none" stroke="#000000" stroke-linecap="round" stroke-linejoin="round" stroke-opacity="0.3019608" stroke-width="0.30000000000000004"/>
      <path d="M48.9 24.95 L49.0 25.5 49.05 26.7 48.2 26.6 Q46.75 27.2 44.0 28.7 L40.5 30.6 Q41.2 33.0 39.25 36.45 41.15 32.4 39.95 30.9 L39.8 31.0 Q32.5 35.15 30.45 36.85 29.85 38.55 30.35 41.55 30.7 43.3 32.45 42.7 L31.95 43.0 Q30.2 43.9 28.35 43.45 L27.8 43.3 Q29.5 43.45 29.6 41.2 29.5 38.6 27.95 36.6 25.25 35.2 22.3 33.95 19.6 32.85 16.7 31.9 16.35 31.85 16.05 32.35 L16.45 30.75 Q16.35 30.95 16.55 31.2 21.55 33.65 28.0 36.0 L28.45 36.15 30.25 36.05 30.3 36.0 47.5 26.4 47.65 26.3 Q48.6 25.7 48.9 24.95" fill="#ead29d" fill-rule="evenodd" stroke="none"/>
      <path d="M16.45 30.75 L16.5 30.7 16.5 30.65 Q16.7 30.4 17.25 30.15 L17.1 30.85 Q22.0 33.15 28.85 35.55 L29.75 35.55 48.5 25.15 48.5 24.6 48.9 24.95 Q48.6 25.7 47.65 26.3 L47.5 26.4 30.3 36.0 30.25 36.05 28.45 36.15 28.0 36.0 Q21.55 33.65 16.55 31.2 16.35 30.95 16.45 30.75" fill="#deb75c" fill-rule="evenodd" stroke="none"/>
      <path d="M21.3 40.75 Q18.8 39.55 16.75 38.0 15.8 34.6 16.05 32.35 16.35 31.85 16.7 31.9 19.6 32.85 22.3 33.95 25.6 38.9 21.3 40.75" fill="#d3a434" fill-rule="evenodd" stroke="none"/>
      <path d="M41.4 36.8 L36.85 39.95 39.25 36.45 Q41.2 33.0 40.5 30.6 L44.0 28.7 Q41.55 32.75 41.4 36.8" fill="#75591c" fill-rule="evenodd" stroke="none"/>
      <path d="M48.45 31.3 Q45.1 34.15 41.4 36.8 41.55 32.75 44.0 28.7 46.75 27.2 48.2 26.6 48.95 26.45 48.45 31.3 M36.85 39.95 L32.45 42.7 Q30.7 43.3 30.35 41.55 29.85 38.55 30.45 36.85 32.5 35.15 39.8 31.0 L39.95 30.9 Q41.15 32.4 39.25 36.45 L36.85 39.95" fill="#896921" fill-rule="evenodd" stroke="none"/>
      <path d="M49.05 26.7 Q49.15 28.9 48.45 31.3 48.95 26.45 48.2 26.6 L49.05 26.7 M27.8 43.3 Q24.25 42.25 21.3 40.75 25.6 38.9 22.3 33.95 25.25 35.2 27.95 36.6 29.5 38.6 29.6 41.2 29.5 43.45 27.8 43.3" fill="#b58a28" fill-rule="evenodd" stroke="none"/>
      <path d="M48.9 24.95 L49.0 25.5 49.05 26.7 Q49.15 28.9 48.45 31.3 45.1 34.15 41.4 36.8 L36.85 39.95 32.45 42.7 31.95 43.0 Q30.2 43.9 28.35 43.45 L27.8 43.3 Q24.25 42.25 21.3 40.75 18.8 39.55 16.75 38.0 15.8 34.6 16.05 32.35 L16.45 30.75 16.5 30.7 16.5 30.65 Q16.7 30.4 17.25 30.15 L17.1 30.85 Q22.0 33.15 28.85 35.55 L29.75 35.55 48.5 25.15 48.5 24.6 48.9 24.95 Z" fill="none" stroke="#000000" stroke-linecap="round" stroke-linejoin="round" stroke-opacity="0.3019608" stroke-width="0.30000000000000004"/>
      <path d="M37.0 36.85 Q37.2 37.7 36.7 38.7 36.25 39.7 35.35 40.2 L33.75 40.4 Q33.1 40.15 33.0 39.3 32.9 38.45 33.4 37.45 33.9 36.45 34.7 35.95 35.55 35.45 36.2 35.7 36.85 35.95 37.0 36.85" fill="#000000" fill-opacity="0.3019608" fill-rule="evenodd" stroke="none"/>
      <path d="M35.05 35.95 L34.45 36.6 Q34.25 37.05 34.3 37.4 34.35 37.8 34.65 37.9 L35.3 37.8 35.9 37.15 36.05 36.35 Q35.95 35.95 35.65 35.85 L35.05 35.95 M36.15 35.5 Q36.7 35.7 36.85 36.45 37.0 37.25 36.6 38.05 36.2 38.9 35.45 39.35 L34.1 39.55 Q33.55 39.3 33.45 38.55 33.35 37.85 33.8 37.0 34.2 36.15 34.9 35.75 35.6 35.3 36.15 35.5" fill="#d3a434" fill-rule="evenodd" stroke="none"/>
      <path d="M35.05 35.95 L35.65 35.85 Q35.95 35.95 36.05 36.35 L35.9 37.15 35.3 37.8 34.65 37.9 Q34.35 37.8 34.3 37.4 34.25 37.05 34.45 36.6 L35.05 35.95" fill="#ead29d" fill-rule="evenodd" stroke="none"/>
      <path d="M36.15 35.5 Q35.6 35.3 34.9 35.75 34.2 36.15 33.8 37.0 33.35 37.85 33.45 38.55 33.55 39.3 34.1 39.55 L35.45 39.35 Q36.2 38.9 36.6 38.05 37.0 37.25 36.85 36.45 36.7 35.7 36.15 35.5 M37.0 36.25 Q37.2 37.15 36.7 38.15 36.25 39.15 35.35 39.6 34.45 40.1 33.75 39.85 33.1 39.6 33.0 38.7 32.9 37.85 33.4 36.9 33.9 35.9 34.7 35.4 35.55 34.85 36.2 35.1 36.85 35.35 37.0 36.25" fill="#ad8527" fill-rule="evenodd" stroke="none"/>
      <path d="M37.0 36.25 Q37.2 37.15 36.7 38.15 36.25 39.15 35.35 39.6 34.45 40.1 33.75 39.85 33.1 39.6 33.0 38.7 32.9 37.85 33.4 36.9 33.9 35.9 34.7 35.4 35.55 34.85 36.2 35.1 36.85 35.35 37.0 36.25 Z" fill="none" stroke="#000000" stroke-linecap="round" stroke-linejoin="round" stroke-opacity="0.3019608" stroke-width="0.30000000000000004"/>
      <path d="M46.9 30.4 Q47.1 31.2 46.65 32.1 L45.4 33.45 43.95 33.65 Q43.35 33.45 43.25 32.65 43.15 31.85 43.6 30.95 44.1 30.05 44.8 29.6 45.55 29.1 46.15 29.35 46.75 29.6 46.9 30.4" fill="#000000" fill-opacity="0.3019608" fill-rule="evenodd" stroke="none"/>
      <path d="M45.1 29.6 L44.6 30.2 44.45 30.9 44.75 31.35 45.35 31.3 45.9 30.7 46.05 29.95 45.7 29.5 45.1 29.6 M46.8 30.05 Q46.95 30.75 46.55 31.5 L45.5 32.65 44.25 32.85 Q43.75 32.65 43.7 32.0 43.6 31.3 44.0 30.55 44.35 29.75 45.0 29.4 45.65 28.95 46.15 29.15 46.65 29.35 46.8 30.05" fill="#d3a434" fill-rule="evenodd" stroke="none"/>
      <path d="M45.1 29.6 L45.7 29.5 46.05 29.95 45.9 30.7 45.35 31.3 44.75 31.35 44.45 30.9 44.6 30.2 45.1 29.6" fill="#ead29d" fill-rule="evenodd" stroke="none"/>
      <path d="M46.9 29.85 Q47.1 30.65 46.65 31.6 46.2 32.5 45.4 32.9 L43.95 33.15 Q43.35 32.9 43.25 32.1 43.15 31.3 43.6 30.45 L44.8 29.05 Q45.55 28.6 46.15 28.8 46.75 29.05 46.9 29.85 M46.8 30.05 Q46.65 29.35 46.15 29.15 45.65 28.95 45.0 29.4 44.35 29.75 44.0 30.55 43.6 31.3 43.7 32.0 43.75 32.65 44.25 32.85 L45.5 32.65 46.55 31.5 Q46.95 30.75 46.8 30.05" fill="#ad8527" fill-rule="evenodd" stroke="none"/>
      <path d="M46.9 29.85 Q47.1 30.65 46.65 31.6 46.2 32.5 45.4 32.9 L43.95 33.15 Q43.35 32.9 43.25 32.1 43.15 31.3 43.6 30.45 L44.8 29.05 Q45.55 28.6 46.15 28.8 46.75 29.05 46.9 29.85 Z" fill="none" stroke="#000000" stroke-linecap="round" stroke-linejoin="round" stroke-opacity="0.3019608" stroke-width="0.30000000000000004"/>
      <path d="M23.85 38.35 Q23.65 39.2 24.15 40.2 24.6 41.2 25.5 41.7 L27.1 41.9 Q27.75 41.65 27.85 40.8 27.95 39.95 27.45 38.95 26.95 37.95 26.15 37.45 25.3 36.95 24.65 37.2 24.0 37.45 23.85 38.35" fill="#000000" fill-opacity="0.3019608" fill-rule="evenodd" stroke="none"/>
      <path d="M24.7 37.0 Q25.25 36.8 25.95 37.25 L27.1 38.5 Q27.5 39.35 27.4 40.05 27.3 40.8 26.75 41.05 L25.45 40.85 Q24.65 40.4 24.25 39.55 23.85 38.75 24.0 37.95 24.15 37.2 24.7 37.0 M24.95 38.65 L25.55 39.3 26.25 39.4 26.55 38.9 26.4 38.1 25.8 37.45 25.2 37.35 24.8 37.85 24.95 38.65" fill="#d3a434" fill-rule="evenodd" stroke="none"/>
      <path d="M24.95 38.65 L24.8 37.85 25.2 37.35 25.8 37.45 26.4 38.1 26.55 38.9 26.25 39.4 25.55 39.3 24.95 38.65" fill="#ead29d" fill-rule="evenodd" stroke="none"/>
      <path d="M23.85 37.75 Q24.0 36.85 24.7 36.6 25.35 36.35 26.15 36.9 26.95 37.4 27.45 38.4 27.95 39.35 27.85 40.2 27.75 41.1 27.1 41.35 26.4 41.6 25.5 41.1 24.6 40.65 24.15 39.65 23.65 38.65 23.85 37.75 M24.7 37.0 Q24.15 37.2 24.0 37.95 23.85 38.75 24.25 39.55 24.65 40.4 25.45 40.85 L26.75 41.05 Q27.3 40.8 27.4 40.05 27.5 39.35 27.1 38.5 L25.95 37.25 Q25.25 36.8 24.7 37.0" fill="#deb75c" fill-rule="evenodd" stroke="none"/>
      <path d="M23.85 37.75 Q23.65 38.65 24.15 39.65 24.6 40.65 25.5 41.1 26.4 41.6 27.1 41.35 27.75 41.1 27.85 40.2 27.95 39.35 27.45 38.4 26.95 37.4 26.15 36.9 25.35 36.35 24.7 36.6 24.0 36.85 23.85 37.75 Z" fill="none" stroke="#000000" stroke-linecap="round" stroke-linejoin="round" stroke-opacity="0.3019608" stroke-width="0.30000000000000004"/>
      <path d="M17.2 35.15 Q17.0 36.0 17.5 37.0 17.95 38.0 18.85 38.5 L20.45 38.7 Q21.1 38.45 21.2 37.6 21.3 36.75 20.8 35.75 20.3 34.75 19.5 34.25 18.65 33.75 18.0 34.0 17.35 34.25 17.2 35.15" fill="#000000" fill-opacity="0.3019608" fill-rule="evenodd" stroke="none"/>
      <path d="M18.05 33.8 Q18.6 33.55 19.3 34.0 L20.45 35.3 Q20.85 36.1 20.75 36.85 20.65 37.6 20.1 37.8 L18.8 37.6 Q18.0 37.2 17.6 36.35 17.2 35.5 17.35 34.75 17.5 34.0 18.05 33.8 M18.55 34.15 Q18.25 34.25 18.15 34.65 L18.3 35.45 18.9 36.1 19.6 36.2 19.9 35.7 19.75 34.9 19.15 34.25 18.55 34.15" fill="#d3a434" fill-rule="evenodd" stroke="none"/>
      <path d="M18.55 34.15 L19.15 34.25 19.75 34.9 19.9 35.7 19.6 36.2 18.9 36.1 18.3 35.45 18.15 34.65 Q18.25 34.25 18.55 34.15" fill="#ead29d" fill-rule="evenodd" stroke="none"/>
      <path d="M18.05 33.8 Q17.5 34.0 17.35 34.75 17.2 35.5 17.6 36.35 18.0 37.2 18.8 37.6 L20.1 37.8 Q20.65 37.6 20.75 36.85 20.85 36.1 20.45 35.3 L19.3 34.0 Q18.6 33.55 18.05 33.8 M17.2 34.55 Q17.35 33.65 18.05 33.4 18.7 33.15 19.5 33.65 20.3 34.15 20.8 35.15 21.3 36.15 21.2 37.0 21.1 37.85 20.45 38.15 L18.9 37.9 Q18.0 37.4 17.5 36.4 17.0 35.45 17.2 34.55" fill="#deb75c" fill-rule="evenodd" stroke="none"/>
      <path d="M17.2 34.55 Q17.0 35.45 17.5 36.4 18.0 37.4 18.9 37.9 L20.45 38.15 Q21.1 37.85 21.2 37.0 21.3 36.15 20.8 35.15 20.3 34.15 19.5 33.65 18.7 33.15 18.05 33.4 17.35 33.65 17.2 34.55 Z" fill="none" stroke="#000000" stroke-linecap="round" stroke-linejoin="round" stroke-opacity="0.3019608" stroke-width="0.30000000000000004"/>
    </g>
  </defs>
</svg>
