<?xml version="1.0" encoding="UTF-8" standalone="no"?>
<svg xmlns:xlink="http://www.w3.org/1999/xlink" height="520.0px" width="520.0px" xmlns="http://www.w3.org/2000/svg">
  <g transform="matrix(10.0, 0.0, 0.0, 10.0, 0.0, 0.0)">
    <use height="52.0" transform="matrix(1.0, 0.0, 0.0, 1.0, 0.0, 0.0)" width="52.0" xlink:href="#shape0"/>
    <use height="136.85" transform="matrix(0.088, -0.0026, 0.004, 0.1227, 23.2722, 5.5658)" width="148.25" xlink:href="#sprite0"/>
    <use height="136.85" transform="matrix(0.088, -0.0026, 0.004, 0.1227, 9.5222, 16.4158)" width="148.25" xlink:href="#sprite0"/>
    <use height="136.85" transform="matrix(0.0866, -0.0026, 0.0024, 0.0751, 13.5277, 29.2099)" width="148.25" xlink:href="#sprite0"/>
    <use height="136.85" transform="matrix(0.0866, -0.0026, 0.0024, 0.0751, 27.3277, 19.4099)" width="148.25" xlink:href="#sprite0"/>
    <use height="136.85" transform="matrix(0.0358, -0.0011, 0.0019, 0.0598, 6.7407, 27.1945)" width="148.25" xlink:href="#sprite0"/>
    <use height="81.5" transform="matrix(0.1322, -0.0051, 0.0052, 0.1322, 27.35, 8.25)" width="81.5" xlink:href="#sprite1"/>
    <use height="81.5" transform="matrix(0.1322, -0.0051, 0.0052, 0.1322, 15.5, 17.05)" width="81.5" xlink:href="#sprite1"/>
  </g>
  <defs>
    <g id="shape0" transform="matrix(1.0, 0.0, 0.0, 1.0, 0.0, 0.0)">
      <path d="M52.0 0.0 L52.0 52.0 0.0 52.0 0.0 0.0 52.0 0.0" fill="#795fa9" fill-opacity="0.0" fill-rule="evenodd" stroke="none"/>
      <path d="M37.0 7.1 L37.05 7.25 37.75 7.7 Q38.45 8.25 38.75 8.9 L38.8 8.95 38.8 9.1 38.8 8.95 38.95 9.4 39.0 9.8 39.0 9.9 38.85 10.7 38.7 11.05 38.0 11.9 38.4 12.8 38.45 13.45 38.5 13.7 38.55 14.0 38.55 14.2 38.5 14.3 38.5 14.35 38.6 14.5 38.6 14.55 38.65 14.6 38.75 14.75 38.8 14.85 38.85 15.05 39.0 15.35 39.05 15.7 39.05 15.9 39.05 16.4 39.0 16.5 38.85 16.95 39.05 17.0 39.1 17.05 39.1 17.0 39.15 17.05 39.55 17.2 39.6 17.25 39.75 17.4 40.35 17.95 40.75 18.55 40.75 18.6 40.95 19.0 41.0 19.2 41.1 20.05 41.1 20.2 40.55 21.0 40.5 21.05 40.45 21.05 Q39.9 21.5 39.05 21.5 L38.85 21.45 38.75 21.45 38.6 21.4 Q40.2 22.05 41.65 23.25 L42.25 23.35 Q43.8 23.55 44.65 24.4 45.5 24.6 46.6 25.55 L47.4 26.8 47.65 27.35 Q48.55 29.65 48.4 33.4 L48.35 33.65 45.85 32.05 43.8 31.0 43.4 31.15 42.6 30.95 Q42.9 32.55 42.85 34.45 L42.7 36.3 40.3 34.3 Q38.25 33.4 37.45 32.4 L36.3 31.75 35.85 32.15 35.7 32.25 Q35.65 34.4 35.05 37.3 L34.9 37.2 32.55 35.55 Q31.05 34.6 30.4 33.75 L28.05 33.15 27.45 32.9 25.8 30.9 25.25 30.05 23.1 30.1 Q19.75 28.9 20.05 26.55 20.75 24.65 22.1 23.3 22.25 21.2 23.2 19.8 L22.85 17.85 22.8 17.85 22.65 16.5 21.5 15.95 Q19.65 14.9 19.1 13.75 L19.0 13.4 18.9 12.55 18.95 12.45 19.0 12.05 19.2 11.65 19.15 11.8 19.2 11.55 19.65 11.05 19.6 11.0 19.45 10.65 19.3 9.85 19.35 9.7 19.4 9.35 19.5 8.9 19.5 9.05 19.55 8.85 Q19.9 8.1 20.75 7.5 L21.25 7.15 21.2 6.85 21.2 6.55 21.25 6.45 21.45 6.2 21.75 5.9 22.35 5.5 Q24.0 4.65 27.8 4.5 L27.85 4.5 28.35 4.5 Q33.45 4.65 36.4 6.65 L37.0 7.1 M38.8 9.1 L38.8 9.15 38.8 9.1 M22.2 9.0 L21.05 9.55 20.75 9.8 20.55 9.95 20.85 10.15 22.0 9.65 22.25 9.55 22.25 9.1 22.2 9.0 M20.65 12.45 L20.3 12.65 20.15 12.75 21.15 13.6 22.25 14.15 22.45 14.2 22.4 13.75 22.35 13.1 22.2 13.0 20.9 12.3 20.65 12.45 M37.85 10.05 L36.85 10.7 36.25 11.0 36.05 10.85 36.0 10.85 35.9 10.8 34.9 10.3 35.0 9.9 36.2 9.1 37.4 9.7 37.75 10.0 37.85 10.05 M34.75 13.6 L34.75 13.8 34.95 13.6 35.15 13.45 34.75 13.6" fill="none" stroke="#000000" stroke-linecap="round" stroke-linejoin="round" stroke-opacity="0.3019608" stroke-width="1.0"/>
      <path d="M38.25 14.2 L38.35 13.65 38.25 12.8 38.2 12.65 38.2 12.75 38.05 12.9 37.9 12.85 37.85 12.75 37.8 12.7 37.75 12.6 37.8 12.3 37.9 12.2 37.95 12.2 38.05 12.2 38.0 12.15 37.9 12.05 Q37.7 11.7 37.35 11.8 37.1 11.8 37.15 12.3 L37.15 12.4 37.2 12.6 37.3 13.75 Q37.3 14.2 37.7 14.3 L38.05 14.3 38.25 14.2 M37.0 11.85 L37.15 11.7 36.7 12.05 36.7 12.15 36.8 12.15 37.0 11.85" fill="#ffde4f" fill-rule="evenodd" stroke="none"/>
      <path d="M38.5 13.55 L38.4 12.8 38.0 11.9 37.35 11.65 37.15 11.7 37.0 11.85 37.15 12.3 Q37.1 11.8 37.35 11.8 37.7 11.7 37.9 12.05 L38.0 12.15 38.05 12.2 37.95 12.2 37.9 12.2 37.8 12.3 37.75 12.6 37.8 12.7 37.85 12.75 37.9 12.85 38.05 12.9 38.2 12.75 38.2 12.65 38.25 12.8 38.35 13.65 38.25 14.2 38.5 13.55" fill="#ffff98" fill-rule="evenodd" stroke="none"/>
      <path d="M38.5 13.55 L38.25 14.2 38.05 14.3 37.7 14.3 Q37.3 14.2 37.3 13.75 L37.2 12.6 37.15 12.4 37.15 12.3 37.0 11.85 36.8 12.15 37.05 12.5 37.05 12.6 37.1 12.65 37.15 13.15 37.15 14.05 37.2 14.1 Q37.15 14.4 37.65 14.45 L37.75 14.45 Q38.45 14.4 38.45 14.0 L38.5 13.55" fill="#f4a33c" fill-rule="evenodd" stroke="none"/>
      <path d="M37.2 14.1 Q36.95 14.25 37.2 14.4 L37.6 14.55 38.0 14.5 Q38.45 14.45 38.6 14.2 L38.45 14.0 Q38.45 14.4 37.75 14.45 L37.65 14.45 Q37.15 14.4 37.2 14.1" fill="#000000" fill-opacity="0.2" fill-rule="evenodd" stroke="none"/>
      <path d="M37.15 11.7 L37.35 11.65 38.0 11.9 38.4 12.8 38.5 13.55 M37.15 11.7 L36.7 12.05 36.7 12.15 36.8 12.15 37.05 12.5 37.05 12.6 37.1 12.65 37.15 13.15 37.15 14.05 37.2 14.1 Q37.15 14.4 37.65 14.45 L37.75 14.45 Q38.45 14.4 38.45 14.0 L38.5 13.55" fill="none" stroke="#000000" stroke-linecap="round" stroke-linejoin="round" stroke-opacity="0.3019608" stroke-width="0.05"/>
      <path d="M34.5 15.45 L34.5 15.5 34.55 15.7 34.6 15.75 34.65 15.85 34.45 15.8 34.25 15.65 34.05 15.55 34.0 15.55 34.5 15.45 M37.45 21.8 L37.35 21.65 37.25 21.35 37.2 21.25 36.9 20.2 36.8 19.95 37.25 20.6 37.5 20.85 37.6 20.95 37.75 21.05 37.95 21.15 38.15 21.25 38.25 21.4 38.35 21.6 37.45 21.8 M38.0 17.15 L38.15 16.7 38.15 16.6 38.2 16.05 39.05 15.9 39.0 16.35 39.05 16.5 38.85 16.95 38.0 17.15" fill="#a34100" fill-rule="evenodd" stroke="none"/>
      <path d="M37.8 13.6 L37.9 13.65 37.9 13.7 38.6 14.5 Q37.95 14.25 37.75 14.7 L37.85 14.85 37.85 15.0 37.9 15.05 38.0 15.3 38.1 15.55 38.2 15.95 38.2 16.05 38.15 16.6 38.15 16.7 38.0 17.15 38.2 17.25 38.25 17.25 38.3 17.25 38.7 17.4 38.75 17.45 39.0 17.7 Q39.9 17.8 39.75 17.35 L40.4 17.95 40.75 18.55 40.75 18.6 Q40.25 18.45 40.0 18.95 L40.1 19.2 40.15 19.45 40.25 20.4 40.15 20.55 39.7 21.25 39.6 21.3 39.4 21.4 39.05 21.5 38.8 21.45 38.75 21.45 38.15 21.25 37.95 21.15 37.75 21.05 37.6 20.95 37.5 20.85 37.25 20.6 36.8 19.95 36.9 20.2 37.2 21.25 37.25 21.35 37.35 21.65 37.45 21.8 37.85 22.4 37.95 22.5 38.0 22.6 38.05 22.6 Q38.75 22.7 38.9 22.4 L39.15 22.6 39.15 22.7 39.25 22.85 38.4 23.05 38.4 23.3 38.2 23.2 38.05 22.9 37.65 22.3 37.1 21.5 Q36.55 20.15 36.7 19.45 L37.0 20.0 Q37.5 20.7 38.25 21.0 L39.45 21.1 39.65 20.95 Q40.05 20.65 40.0 20.05 40.05 19.3 39.55 18.5 39.05 17.8 38.3 17.5 L37.65 17.35 37.5 17.3 37.55 17.3 Q37.95 16.95 37.95 16.3 L37.5 14.8 36.3 13.8 Q35.65 13.45 35.1 13.8 35.05 13.8 34.95 13.9 34.6 14.25 34.65 14.8 L34.8 15.8 35.05 16.35 34.25 15.8 Q33.5 15.5 32.95 15.8 L32.9 15.85 Q32.45 16.15 32.4 16.85 32.4 17.6 32.9 18.3 33.45 19.1 34.15 19.4 34.9 19.7 35.4 19.4 L35.65 19.2 35.7 19.85 35.5 20.5 34.8 21.15 Q34.55 21.1 34.35 21.5 L34.2 21.4 34.4 21.1 34.7 21.0 35.1 20.6 35.5 20.05 35.55 19.55 35.55 19.45 35.5 19.55 35.25 19.7 35.2 19.7 34.6 19.8 34.55 19.8 33.75 19.45 32.95 18.8 32.6 18.2 Q32.1 17.3 32.25 16.55 32.4 15.8 33.0 15.6 L33.05 15.6 33.55 15.45 33.65 15.5 33.95 15.55 34.0 15.55 34.05 15.55 34.25 15.65 34.45 15.8 34.65 15.85 34.6 15.75 34.55 15.7 34.5 15.5 34.5 15.45 34.4 15.25 34.45 14.45 Q34.55 13.9 34.95 13.6 L35.2 13.4 36.55 13.15 36.7 13.1 36.7 13.2 36.75 13.15 36.85 13.2 36.95 13.2 35.8 13.35 35.85 13.35 35.9 13.35 35.95 13.35 36.0 13.35 36.25 13.45 36.3 13.45 36.35 13.5 36.4 13.5 36.65 13.65 36.8 13.7 Q37.6 13.9 37.75 13.55 L37.8 13.6" fill="#f97117" fill-rule="evenodd" stroke="none"/>
      <path d="M37.75 13.55 Q37.6 13.9 36.8 13.7 L36.65 13.65 36.4 13.5 36.35 13.5 36.3 13.45 36.25 13.45 36.0 13.35 35.95 13.35 35.9 13.35 35.85 13.35 35.8 13.35 36.95 13.2 37.1 13.2 37.15 13.25 37.2 13.25 37.25 13.3 37.5 13.45 37.75 13.55 M35.7 19.85 L35.65 19.2 Q34.5 19.3 33.5 18.3 32.45 17.2 32.9 15.85 L32.95 15.8 Q33.5 15.5 34.25 15.8 L35.05 16.35 35.65 16.85 34.95 14.8 34.95 13.9 Q35.05 13.8 35.1 13.8 35.65 13.45 36.3 13.8 L37.5 14.8 37.95 16.3 Q37.95 16.95 37.55 17.3 L37.5 17.3 37.65 17.35 38.3 17.5 Q39.05 17.8 39.55 18.5 40.05 19.3 40.0 20.05 40.05 20.65 39.65 20.95 38.7 21.15 37.95 20.45 L36.75 18.85 36.7 19.45 Q36.55 20.15 37.1 21.5 L37.65 22.3 Q37.05 22.35 36.25 21.35 35.8 20.85 35.7 19.85 M40.15 20.55 L40.25 20.4 40.15 19.45 40.1 19.2 40.0 18.95 Q40.25 18.45 40.75 18.6 L40.95 19.0 41.05 19.2 41.1 20.05 40.15 20.55 M38.2 16.05 L38.2 15.95 38.1 15.55 38.0 15.3 37.9 15.05 37.85 15.0 37.85 14.85 37.75 14.7 Q37.95 14.25 38.6 14.5 L38.65 14.6 38.75 14.75 38.8 14.8 38.85 15.1 38.95 15.35 39.05 15.75 39.05 15.9 38.2 16.05" fill="#ea6004" fill-rule="evenodd" stroke="none"/>
      <path d="M34.4 15.25 L34.5 15.45 34.0 15.55 33.95 15.55 33.65 15.5 33.55 15.45 33.05 15.6 34.2 15.3 34.35 15.25 34.4 15.25 M34.35 21.5 Q34.55 21.1 34.8 21.15 L35.5 20.5 35.7 19.85 Q35.8 20.85 36.25 21.35 37.05 22.35 37.65 22.3 L38.05 22.9 38.2 23.2 34.35 21.5 M35.65 19.2 L35.4 19.4 Q34.9 19.7 34.15 19.4 33.45 19.1 32.9 18.3 32.4 17.6 32.4 16.85 32.45 16.15 32.9 15.85 32.45 17.2 33.5 18.3 34.5 19.3 35.65 19.2 M35.05 16.35 L34.8 15.8 34.65 14.8 Q34.6 14.25 34.95 13.9 L34.95 14.8 35.65 16.85 35.05 16.35 M39.65 20.95 L39.45 21.1 38.25 21.0 Q37.5 20.7 37.0 20.0 L36.7 19.45 36.75 18.85 37.95 20.45 Q38.7 21.15 39.65 20.95 M38.4 23.3 L38.4 23.05 39.25 22.85 39.3 23.1 38.4 23.3 M38.9 22.4 Q38.75 22.7 38.05 22.6 L38.0 22.6 37.95 22.5 37.85 22.4 37.45 21.8 38.35 21.6 38.8 22.25 38.9 22.35 38.9 22.4 M39.05 21.5 L39.4 21.4 39.6 21.3 39.7 21.25 40.15 20.55 41.1 20.05 41.05 20.2 Q41.0 20.7 40.55 21.0 L40.45 21.05 Q39.9 21.5 39.05 21.5 M39.75 17.35 Q39.9 17.8 39.0 17.7 L38.75 17.45 38.7 17.4 38.3 17.25 38.25 17.25 38.2 17.25 38.0 17.15 38.85 16.95 39.05 17.0 39.1 17.0 39.2 17.0 39.5 17.2 39.6 17.25 39.75 17.35" fill="#ca5202" fill-rule="evenodd" stroke="none"/>
      <path d="M38.6 14.5 L37.9 13.7 37.9 13.65 37.8 13.6 M36.95 13.2 L36.85 13.2 36.75 13.15 36.7 13.2 36.7 13.1 36.55 13.15 35.2 13.4 34.95 13.6 Q34.55 13.9 34.45 14.45 L34.4 15.25 34.35 15.25 34.2 15.3 33.05 15.6 33.0 15.6 Q32.4 15.8 32.25 16.55 32.1 17.3 32.6 18.2 L32.95 18.8 33.75 19.45 34.55 19.8 34.6 19.8 35.2 19.7 35.25 19.7 35.5 19.55 35.55 19.45 35.55 19.55 35.5 20.05 35.1 20.6 34.7 21.0 34.4 21.1 34.2 21.4 34.35 21.5 38.2 23.2 38.4 23.3 39.3 23.1 39.25 22.85 39.15 22.7 39.15 22.6 38.9 22.4 38.9 22.35 38.8 22.25 38.35 21.6 38.25 21.4 38.15 21.25 38.75 21.45 38.8 21.45 39.05 21.5 Q39.9 21.5 40.45 21.05 L40.55 21.0 Q41.0 20.7 41.05 20.2 L41.1 20.05 41.05 19.2 40.95 19.0 40.75 18.6 40.75 18.55 40.4 17.95 39.75 17.35 M33.05 15.6 L33.0 15.6 M38.6 14.5 L38.65 14.6 38.75 14.75 38.8 14.8 38.85 15.1 38.95 15.35 39.05 15.75 39.05 15.9 39.0 16.35 39.05 16.5 38.85 16.95 39.05 17.0 39.1 17.0 39.2 17.0 39.5 17.2 39.6 17.25 39.75 17.35 M37.75 13.55 L37.5 13.45 37.25 13.3 37.2 13.25 37.15 13.25 37.1 13.2 36.95 13.2 M36.7 13.1 L36.55 13.15" fill="none" stroke="#000000" stroke-linecap="round" stroke-linejoin="round" stroke-opacity="0.3019608" stroke-width="0.05"/>
      <path d="M36.9 13.9 L35.7 13.1 35.55 13.0 34.9 12.7 34.85 12.65 Q32.3 11.5 28.85 11.2 L23.55 11.45 21.95 11.9 21.8 11.95 20.65 12.45 20.6 11.8 21.15 10.65 Q22.35 10.05 23.7 9.75 L25.7 9.5 Q31.65 8.95 35.75 11.3 L35.95 11.45 36.9 12.05 37.05 13.15 36.9 13.9" fill="#c08602" fill-rule="evenodd" stroke="none"/>
      <path d="M20.45 10.35 Q21.1 9.95 22.0 9.65 L23.75 9.15 25.0 8.95 28.0 8.85 29.05 8.9 30.1 9.05 33.0 9.65 Q34.6 10.05 35.9 10.8 L36.0 10.85 36.05 10.9 37.4 11.9 37.35 12.4 36.9 12.05 35.95 11.45 35.75 11.3 Q31.65 8.95 25.7 9.5 L23.7 9.75 Q22.35 10.05 21.15 10.65 L20.4 11.1 20.45 10.35" fill="#ffde4f" fill-rule="evenodd" stroke="none"/>
      <path d="M37.35 12.4 L37.2 14.15 36.9 13.9 37.05 13.15 36.9 12.05 37.35 12.4 M20.65 12.45 L20.3 12.65 20.4 11.1 21.15 10.65 20.6 11.8 20.65 12.45" fill="#9d7200" fill-rule="evenodd" stroke="none"/>
      <path d="M20.45 10.35 Q21.1 9.95 22.0 9.65 L23.75 9.15 25.0 8.95 28.0 8.85 29.05 8.9 30.1 9.05 33.0 9.65 Q34.6 10.05 35.9 10.8 L36.0 10.85 36.05 10.9 37.4 11.9 M37.2 14.15 L36.9 13.9 35.7 13.1 35.55 13.0 34.9 12.7 34.85 12.65 Q32.3 11.5 28.85 11.2 L23.55 11.45 21.95 11.9 21.8 11.95 20.65 12.45 20.3 12.65" fill="none" stroke="#000000" stroke-linecap="round" stroke-linejoin="round" stroke-opacity="0.3019608" stroke-width="0.05"/>
      <path d="M37.4 9.75 L36.15 9.05 36.0 8.95 35.35 8.65 35.2 8.6 Q32.65 7.7 29.2 7.7 L23.95 8.35 22.4 8.85 22.2 8.95 Q21.6 9.2 21.1 9.55 L21.0 8.85 Q21.05 8.35 21.45 7.75 22.6 7.05 23.95 6.65 L25.85 6.25 Q31.8 5.2 36.05 7.25 L36.25 7.35 37.25 7.9 37.5 8.95 37.4 9.75" fill="#c08602" fill-rule="evenodd" stroke="none"/>
      <path d="M20.75 7.5 L22.2 6.65 23.95 6.05 25.15 5.75 28.1 5.4 29.2 5.4 30.25 5.4 33.2 5.75 Q34.8 6.1 36.15 6.75 L36.25 6.8 36.3 6.8 37.8 7.7 37.8 8.25 37.25 7.9 36.25 7.35 36.05 7.25 Q31.8 5.2 25.85 6.25 L23.95 6.65 Q22.6 7.05 21.45 7.75 L20.75 8.2 20.75 7.5" fill="#ffde4f" fill-rule="evenodd" stroke="none"/>
      <path d="M37.8 8.25 L37.8 10.0 37.4 9.75 37.5 8.95 37.25 7.9 37.8 8.25 M21.1 9.55 L20.75 9.75 20.75 8.2 21.45 7.75 Q21.05 8.35 21.0 8.85 L21.1 9.55" fill="#9d7200" fill-rule="evenodd" stroke="none"/>
      <path d="M20.75 7.5 L22.2 6.65 23.95 6.05 25.15 5.75 28.1 5.4 29.2 5.4 30.25 5.4 33.2 5.75 Q34.8 6.1 36.15 6.75 L36.25 6.8 36.3 6.8 37.8 7.7 M37.8 10.0 L37.4 9.75 36.15 9.05 36.0 8.95 35.35 8.65 35.2 8.6 Q32.65 7.7 29.2 7.7 L23.95 8.35 22.4 8.85 22.2 8.95 Q21.6 9.2 21.1 9.55 L20.75 9.75" fill="none" stroke="#000000" stroke-linecap="round" stroke-linejoin="round" stroke-opacity="0.3019608" stroke-width="0.05"/>
      <path d="M29.4 5.5 Q34.35 5.85 34.9 7.15 34.2 8.15 30.85 8.35 L29.6 8.35 Q29.7 6.8 29.4 5.55 L29.4 5.5" fill="#532772" fill-rule="evenodd" stroke="none"/>
      <path d="M28.35 4.5 Q29.05 4.7 29.4 5.5 L27.8 5.55 24.65 5.7 Q23.35 6.0 23.15 6.55 24.1 8.05 27.85 8.3 L29.6 8.35 30.85 8.35 Q31.5 8.6 31.55 9.35 L30.15 9.45 27.85 9.25 Q24.85 8.8 22.45 7.3 21.15 6.45 22.35 5.5 24.0 4.65 27.8 4.5 L27.9 4.5 28.35 4.5 M23.05 6.4 L23.15 6.55 23.05 6.4 M27.8 20.3 L27.95 20.2 28.45 19.85 Q30.1 18.75 32.0 18.3 L32.45 18.45 Q30.5 18.95 28.6 20.05 L27.95 20.4 27.2 20.95 27.35 20.7 27.5 20.55 27.55 20.5 Q27.7 20.35 27.8 20.3 M35.95 31.45 Q36.7 29.8 35.6 27.6 L35.0 26.65 Q37.2 28.65 36.5 31.2 L36.4 31.5 36.3 31.75 36.4 31.5 Q36.9 31.9 38.1 32.35 L39.4 32.4 39.1 32.8 Q37.35 32.6 36.3 31.75 L35.85 32.1 35.45 32.4 35.95 31.45 M37.5 24.8 L38.35 24.85 38.85 25.25 35.35 25.6 36.95 24.9 37.5 24.8" fill="#f9f4e3" fill-rule="evenodd" stroke="none"/>
      <path d="M35.1 6.6 L34.9 7.15 35.1 6.6 M36.45 6.65 Q36.65 7.25 36.1 7.7 33.7 9.5 31.55 9.35 31.5 8.6 30.85 8.35 34.2 8.15 34.9 7.15 34.35 5.85 29.4 5.5 29.05 4.7 28.35 4.5 33.45 4.7 36.45 6.65 M34.8 17.85 L34.6 16.45 Q34.3 13.65 34.75 10.05 L35.0 9.85 34.9 10.9 Q34.6 13.55 34.9 16.45 L35.2 18.4 Q36.9 19.4 38.5 21.25 L38.65 21.45 Q40.2 22.0 41.65 23.25 L42.25 23.3 Q45.15 23.75 45.6 26.25 45.9 30.4 43.4 31.1 L42.5 30.9 41.75 31.9 Q41.15 32.6 39.1 32.8 L39.4 32.4 39.85 32.4 Q41.25 32.25 42.15 30.95 42.05 29.2 40.85 27.25 L40.15 26.25 38.85 25.25 38.35 24.85 Q39.4 25.0 40.3 25.95 L40.8 26.45 Q42.8 29.4 42.6 30.65 L43.5 30.75 Q45.25 29.8 45.25 27.4 45.1 24.95 43.7 24.15 42.9 23.8 42.1 23.6 L39.95 23.3 41.1 23.3 Q39.9 22.2 38.3 21.5 L36.5 20.85 37.35 21.0 38.05 21.2 38.45 21.3 38.65 21.45 38.45 21.3 38.05 21.2 Q36.5 19.55 34.4 18.3 L32.45 18.45 32.0 18.3 34.1 18.1 34.55 18.05 34.9 18.2 34.8 17.85 M42.5 30.9 L42.6 30.65 42.5 30.9 M35.2 18.4 L34.9 18.2 35.2 18.4" fill="#ceafe2" fill-rule="evenodd" stroke="none"/>
      <path d="M31.2 16.85 Q33.6 16.3 34.8 17.85 L34.9 18.2 34.55 18.05 Q33.15 16.95 32.2 17.15 L30.85 17.45 29.75 18.1 29.15 18.55 28.25 19.5 27.95 20.0 27.8 20.3 Q27.7 20.35 27.55 20.5 L27.5 20.55 27.35 20.7 27.2 20.95 Q26.4 22.0 26.35 23.35 26.25 26.6 28.0 27.5 L29.95 27.75 30.55 27.65 Q31.4 27.1 32.35 27.05 33.8 26.85 35.6 27.6 36.7 29.8 35.95 31.45 L35.1 32.05 Q32.0 33.9 28.05 32.55 L27.6 32.4 26.15 30.65 24.2 27.85 25.05 29.7 Q22.8 30.1 20.75 28.1 20.45 27.75 20.5 26.55 21.45 24.3 23.25 22.7 L22.65 23.0 Q22.8 21.45 23.3 20.15 L23.4 20.65 23.7 21.55 23.2 16.95 22.65 9.5 23.05 9.8 24.3 10.8 22.55 8.95 21.55 7.55 Q21.25 6.9 21.3 6.4 L21.45 6.15 21.75 5.9 Q21.45 6.2 21.6 6.85 22.55 9.7 27.85 10.95 L28.4 11.05 27.9 11.25 Q26.7 11.65 26.0 12.7 L25.5 14.45 Q25.3 15.8 25.55 16.85 25.85 17.8 26.6 18.5 L27.9 18.8 27.95 18.8 28.0 18.8 28.5 18.1 Q29.7 17.15 31.2 16.85 M29.6 8.35 L27.85 8.3 Q24.1 8.05 23.15 6.55 23.35 6.0 24.65 5.7 L27.8 5.55 29.4 5.5 29.4 5.55 Q29.7 6.8 29.6 8.35" fill="#d8c1c5" fill-rule="evenodd" stroke="none"/>
      <path d="M31.55 9.35 Q33.7 9.5 36.1 7.7 36.65 7.25 36.45 6.65 L37.05 7.1 36.65 8.1 Q34.95 10.05 32.2 10.95 L33.1 10.75 Q34.0 10.35 34.75 10.05 34.3 13.65 34.6 16.45 L34.8 17.85 Q33.6 16.3 31.2 16.85 L31.25 16.6 31.0 15.9 Q30.4 14.55 30.7 11.45 L31.1 11.1 31.55 9.35 M38.05 21.2 L37.35 21.0 36.5 20.85 38.3 21.5 Q39.9 22.2 41.1 23.3 L39.95 23.3 42.1 23.6 Q42.9 23.8 43.7 24.15 45.1 24.95 45.25 27.4 45.25 29.8 43.5 30.75 L42.6 30.65 Q42.8 29.4 40.8 26.45 L40.3 25.95 Q39.4 25.0 38.35 24.85 L37.5 24.8 Q37.25 23.55 36.65 22.65 L35.75 21.85 Q34.4 19.2 32.45 18.45 L34.4 18.3 Q36.5 19.55 38.05 21.2 M39.4 32.4 Q40.45 30.8 40.15 28.75 L39.75 26.75 Q39.4 25.85 38.85 25.25 L40.15 26.25 40.85 27.25 Q42.05 29.2 42.15 30.95 41.25 32.25 39.85 32.4 L39.4 32.4" fill="#c292da" fill-rule="evenodd" stroke="none"/>
      <path d="M34.75 10.05 Q34.0 10.35 33.1 10.75 L32.2 10.95 Q34.95 10.05 36.65 8.1 L37.05 7.1 Q37.55 8.5 35.0 9.85 L34.75 10.05" fill="#934fc1" fill-rule="evenodd" stroke="none"/>
      <path d="M31.55 9.35 L31.1 11.1 30.7 11.45 Q30.4 14.55 31.0 15.9 L31.25 16.6 31.2 16.85 Q29.7 17.15 28.5 18.1 L28.0 18.8 27.95 18.8 27.9 18.8 26.6 18.5 Q25.85 17.8 25.55 16.85 25.3 15.8 25.5 14.45 L26.0 12.7 Q26.7 11.65 27.9 11.25 L28.4 11.05 27.85 10.95 Q22.55 9.7 21.6 6.85 21.45 6.2 21.75 5.9 22.0 5.65 22.35 5.5 21.15 6.45 22.45 7.3 24.85 8.8 27.85 9.25 L30.15 9.45 31.55 9.35 M21.3 6.4 Q21.25 6.9 21.55 7.55 L22.55 8.95 24.3 10.8 23.05 9.8 22.65 9.5 22.3 9.05 22.65 9.5 23.2 16.95 23.7 21.55 23.4 20.65 23.3 20.15 23.2 19.75 23.3 20.15 Q22.8 21.45 22.65 23.0 L22.1 23.3 Q22.25 21.2 23.2 19.75 L22.75 16.95 Q22.25 13.2 22.3 9.05 21.45 8.1 21.2 6.85 L21.25 6.5 21.3 6.4 M35.45 32.4 L35.3 32.55 Q31.95 34.65 28.05 33.15 L27.45 32.9 25.8 30.9 25.25 30.05 23.15 30.1 Q19.75 28.9 20.1 26.5 20.8 24.65 22.1 23.3 L22.65 23.0 23.25 22.7 Q21.45 24.3 20.5 26.55 20.45 27.75 20.75 28.1 22.8 30.1 25.05 29.7 L24.2 27.85 26.15 30.65 27.6 32.4 28.05 32.55 Q32.0 33.9 35.1 32.05 L35.95 31.45 35.45 32.4 M27.2 20.95 L27.95 20.4 28.6 20.05 Q30.5 18.95 32.45 18.45 34.4 19.2 35.75 21.85 L36.65 22.65 Q37.25 23.55 37.5 24.8 L36.95 24.9 35.35 25.6 38.85 25.25 Q39.4 25.85 39.75 26.75 L40.15 28.75 Q40.45 30.8 39.4 32.4 L38.1 32.35 Q36.9 31.9 36.4 31.5 L36.5 31.2 Q37.2 28.65 35.0 26.65 L35.6 27.6 Q33.8 26.85 32.35 27.05 31.4 27.1 30.55 27.65 L29.95 27.75 28.0 27.5 Q26.25 26.6 26.35 23.35 26.4 22.0 27.2 20.95 M25.25 30.05 L25.05 29.7 25.25 30.05" fill="#f3ecc7" fill-rule="evenodd" stroke="none"/>
      <path d="M32.0 18.3 Q30.1 18.75 28.45 19.85 L27.95 20.2 27.8 20.3 27.95 20.0 28.25 19.5 29.15 18.55 29.75 18.1 Q29.15 18.95 30.45 18.5 31.55 17.8 34.1 18.1 L32.0 18.3" fill="#a39310" fill-rule="evenodd" stroke="none"/>
      <path d="M34.1 18.1 Q31.55 17.8 30.45 18.5 29.15 18.95 29.75 18.1 L30.85 17.45 32.2 17.15 Q33.15 16.95 34.55 18.05 L34.1 18.1" fill="#d8c416" fill-rule="evenodd" stroke="none"/>
      <path d="M34.9 7.15 L35.1 6.6 M34.75 10.05 Q34.0 10.35 33.1 10.75 M37.05 7.1 L36.45 6.65 Q33.45 4.7 28.35 4.5 M34.9 7.15 Q34.2 8.15 30.85 8.35 M22.35 5.5 Q22.0 5.65 21.75 5.9 M23.15 6.55 Q24.1 8.05 27.85 8.3 L29.6 8.35 30.85 8.35 M23.15 6.55 L23.05 6.4 M21.3 6.4 L21.25 6.5 21.2 6.85 Q21.45 8.1 22.3 9.05 L22.65 9.5 23.05 9.8 24.3 10.8 M21.3 6.4 L21.45 6.15 21.75 5.9 M22.35 5.5 Q24.0 4.65 27.8 4.5 L27.9 4.5 28.35 4.5 M23.2 19.75 L23.3 20.15 23.4 20.65 M35.45 32.4 L35.3 32.55 Q31.95 34.65 28.05 33.15 L27.45 32.9 25.8 30.9 25.25 30.05 23.15 30.1 Q19.75 28.9 20.1 26.5 20.8 24.65 22.1 23.3 22.25 21.2 23.2 19.75 L22.75 16.95 Q22.25 13.2 22.3 9.05 M32.0 18.3 Q30.1 18.75 28.45 19.85 L27.95 20.2 27.8 20.3 Q27.7 20.35 27.55 20.5 L27.5 20.55 M32.0 18.3 L34.1 18.1 34.55 18.05 Q33.15 16.95 32.2 17.15 L30.85 17.45 29.75 18.1 29.15 18.55 28.25 19.5 27.95 20.0 27.8 20.3 M22.65 23.0 L22.1 23.3 M25.05 29.7 L24.2 27.85 M25.05 29.7 L25.25 30.05 M23.25 22.7 L22.65 23.0 M35.0 9.85 L34.9 10.9 Q34.6 13.55 34.9 16.45 L35.2 18.4 Q36.9 19.4 38.5 21.25 L38.65 21.45 Q40.2 22.0 41.65 23.25 L42.25 23.3 Q45.15 23.75 45.6 26.25 45.9 30.4 43.4 31.1 L42.5 30.9 41.75 31.9 Q41.15 32.6 39.1 32.8 37.35 32.6 36.3 31.75 L35.85 32.1 35.45 32.4 M38.65 21.45 L38.45 21.3 38.05 21.2 37.35 21.0 M42.6 30.65 L42.5 30.9 M35.0 9.85 L34.75 10.05 M34.55 18.05 L34.9 18.2 35.2 18.4 M37.5 24.8 L38.35 24.85 Q39.4 25.0 40.3 25.95 L40.8 26.45 Q42.8 29.4 42.6 30.65 M37.5 24.8 L36.95 24.9 M36.4 31.5 L36.5 31.2 Q37.2 28.65 35.0 26.65 M36.3 31.75 L36.4 31.5 M37.05 7.1 Q37.55 8.5 35.0 9.85" fill="none" stroke="#000000" stroke-linecap="round" stroke-linejoin="round" stroke-opacity="0.3019608" stroke-width="0.05"/>
      <path d="M29.6 7.05 L29.6 7.8 M31.05 8.4 L30.85 8.35 M28.35 4.5 Q28.7 4.6 29.0 4.85 M30.65 13.95 L30.6 13.2 M30.6 12.5 L30.65 11.8 M31.1 11.1 L31.35 10.45 M31.5 9.7 L31.55 9.35 31.45 9.05 M30.85 17.45 L31.2 16.85 31.25 16.6 31.1 16.1 M32.0 18.3 L32.45 18.45 32.7 18.55 M34.45 19.85 L34.9 20.45 M33.3 18.95 L33.9 19.4 M30.85 15.45 L30.7 14.75 M37.05 23.4 L37.3 24.1 M36.2 22.2 L36.65 22.65 36.7 22.75 M39.85 27.2 L39.75 26.75 39.6 26.5 M39.3 25.85 L38.85 25.25 M39.1 32.8 L39.4 32.4 39.5 32.15 M39.8 31.55 L40.05 30.85 M40.2 30.15 L40.2 29.4 M40.15 28.65 L40.05 27.95 M35.3 21.05 L35.65 21.7 M29.4 5.55 L29.5 6.3" fill="none" stroke="#000000" stroke-linecap="round" stroke-linejoin="round" stroke-opacity="0.2" stroke-width="0.30000000000000004"/>
      <path d="M41.65 33.25 L42.7 35.95 42.7 36.25 40.3 34.25 Q37.5 33.05 37.0 31.65 L37.05 30.9 37.2 29.25 Q37.55 27.7 38.4 26.3 38.2 27.75 38.65 28.95 L38.7 29.0 39.35 30.1 40.15 30.95 Q40.9 31.85 41.65 33.25 M34.85 37.2 L32.6 35.55 Q30.55 34.25 30.05 33.2 L29.95 32.75 Q30.0 31.0 30.7 29.4 31.4 27.85 32.6 27.2 32.1 28.25 32.0 29.1 31.9 29.95 32.15 30.6 L33.0 32.25 33.5 32.9 34.25 34.35 34.85 37.2 M43.45 24.6 Q43.3 26.25 44.3 27.55 L44.5 27.75 45.0 28.2 45.35 28.5 Q46.3 29.15 47.1 30.55 L48.35 33.4 48.35 33.65 Q47.15 32.7 45.85 32.05 L43.3 30.65 Q42.95 30.25 42.7 28.15 L42.65 27.9 Q42.6 26.05 43.45 24.6" fill="#d7b15b" fill-rule="evenodd" stroke="none"/>
      <path d="M38.7 29.0 L38.65 28.95 Q38.45 27.05 39.2 26.5 40.2 27.25 40.9 28.35 42.3 30.55 42.5 34.2 L41.65 33.25 Q40.9 31.85 40.15 30.95 L39.35 30.1 38.7 29.0 M32.0 29.1 Q32.65 27.6 33.15 27.8 34.45 27.65 34.75 28.8 L35.05 30.25 34.95 35.75 34.25 34.35 33.5 32.9 33.0 32.25 32.15 30.6 Q31.9 29.95 32.0 29.1 M44.5 27.75 L44.4 27.5 Q43.55 25.1 44.15 24.65 45.8 25.05 46.8 26.9 47.7 28.65 48.05 31.65 L47.1 30.55 Q46.3 29.15 45.35 28.5 L45.0 28.2 44.5 27.75" fill="#edd6a3" fill-rule="evenodd" stroke="none"/>
      <path d="M41.65 33.25 L42.5 34.2 Q42.3 30.55 40.9 28.35 40.2 27.25 39.2 26.5 38.45 27.05 38.65 28.95 L38.7 29.0 38.65 28.95 Q38.2 27.75 38.4 26.3 L38.45 26.15 Q39.2 25.45 40.25 26.55 L41.55 28.2 42.0 29.2 Q42.95 31.4 42.85 34.4 L42.7 35.95 41.65 33.25 M32.6 27.2 L32.75 27.15 Q34.15 26.55 35.05 28.55 L35.4 29.7 35.65 31.35 Q35.75 33.75 35.0 37.3 L34.85 37.2 34.25 34.35 34.95 35.75 35.05 30.25 34.75 28.8 Q34.45 27.65 33.15 27.8 32.65 27.6 32.0 29.1 32.1 28.25 32.6 27.2 M43.45 24.6 L43.55 24.4 Q44.75 23.95 46.6 25.55 L47.4 26.8 47.65 27.35 Q48.5 29.65 48.35 33.4 L47.1 30.55 48.05 31.65 Q47.7 28.65 46.8 26.9 45.8 25.05 44.15 24.65 43.55 25.1 44.4 27.5 L44.5 27.75 44.3 27.55 Q43.3 26.25 43.45 24.6" fill="#f8efdc" fill-rule="evenodd" stroke="none"/>
      <path d="M42.7 35.95 L42.85 34.4 Q42.95 31.4 42.0 29.2 L41.55 28.2 40.25 26.55 Q39.2 25.45 38.45 26.15 L38.4 26.3 Q37.55 27.7 37.2 29.25 L37.05 30.9 37.0 31.65 Q37.5 33.05 40.3 34.25 L42.7 36.25 42.7 35.95 M32.6 27.2 L32.75 27.15 Q34.15 26.55 35.05 28.55 L35.4 29.7 35.65 31.35 Q35.75 33.75 35.0 37.3 L34.85 37.2 32.6 35.55 Q30.55 34.25 30.05 33.2 L29.95 32.75 Q30.0 31.0 30.7 29.4 31.4 27.85 32.6 27.2 M48.35 33.4 Q48.5 29.65 47.65 27.35 L47.4 26.8 46.6 25.55 Q44.75 23.95 43.55 24.4 L43.45 24.6 M48.35 33.4 L48.35 33.65 Q47.15 32.7 45.85 32.05 L43.3 30.65 Q42.95 30.25 42.7 28.15 L42.65 27.9 Q42.6 26.05 43.45 24.6" fill="none" stroke="#000000" stroke-linecap="round" stroke-linejoin="round" stroke-opacity="0.3019608" stroke-width="0.05"/>
      <path d="M28.1 18.95 Q25.1 18.7 22.8 17.8 L22.5 15.45 Q24.95 16.4 28.4 16.7 L34.85 16.35 35.15 18.2 34.95 18.3 Q32.7 17.9 30.35 19.05 L28.1 18.95 M34.7 12.25 L34.7 14.35 Q31.8 15.3 27.75 14.95 24.75 14.7 22.4 13.7 L22.15 11.45 Q24.55 12.45 28.0 12.75 L34.7 12.25" fill="#000000" fill-opacity="0.2" fill-rule="evenodd" stroke="none"/>
      <path d="M20.1 12.75 Q20.45 13.2 21.1 13.6 L22.2 14.15 Q24.85 15.3 28.6 15.6 L35.1 15.2 36.3 14.85 37.35 14.25 Q38.0 13.8 37.85 13.2 L37.65 12.7 37.45 12.45 37.35 12.4 37.4 11.9 38.35 13.2 38.35 13.25 38.4 13.35 38.35 13.4 38.3 13.7 38.0 14.25 37.25 14.9 35.3 15.8 Q32.45 16.75 28.45 16.4 24.5 16.1 21.7 14.7 L19.95 13.5 19.35 12.7 19.15 12.1 19.15 11.8 19.2 11.6 Q19.55 10.9 20.45 10.35 L20.4 11.1 20.15 11.3 20.0 11.45 19.85 11.7 Q19.65 12.25 20.1 12.75" fill="#ffde4f" fill-rule="evenodd" stroke="none"/>
      <path d="M19.15 11.8 L19.15 12.1 19.35 12.7 19.95 13.5 21.7 14.7 Q24.5 16.1 28.45 16.4 32.45 16.75 35.3 15.8 L37.25 14.9 38.0 14.25 38.3 13.7 38.35 13.4 38.4 13.4 38.4 13.5 38.3 13.95 38.0 14.55 37.55 14.95 Q36.8 15.65 35.3 16.05 32.4 17.05 28.4 16.7 24.45 16.4 21.7 14.95 20.3 14.25 19.65 13.45 L19.35 13.0 19.15 12.4 19.15 11.9 19.15 11.8" fill="#ffff98" fill-rule="evenodd" stroke="none"/>
      <path d="M38.4 13.25 L38.45 13.7 38.5 14.05 38.5 14.2 38.25 15.0 38.1 15.3 Q37.4 16.4 35.35 17.15 32.35 18.2 28.3 17.85 24.25 17.5 21.45 16.0 19.65 14.9 19.1 13.7 L18.95 13.4 Q18.85 13.0 18.9 12.6 L18.9 12.45 18.95 12.1 19.15 11.65 19.15 11.8 19.15 11.9 19.15 12.4 19.35 13.0 19.65 13.45 Q20.3 14.25 21.7 14.95 24.45 16.4 28.4 16.7 32.4 17.05 35.3 16.05 36.8 15.65 37.55 14.95 L38.0 14.55 38.3 13.95 38.4 13.5 38.4 13.4 38.4 13.35 38.4 13.25" fill="#eeb000" fill-rule="evenodd" stroke="none"/>
      <path d="M20.1 12.75 Q19.65 12.25 19.85 11.7 L20.0 11.45 20.15 11.3 20.4 11.1 20.3 12.65 20.1 12.75 M37.35 12.4 L37.45 12.45 37.65 12.7 37.85 13.2 Q38.0 13.8 37.35 14.25 L37.2 14.15 37.35 12.4" fill="#9d7200" fill-rule="evenodd" stroke="none"/>
      <path d="M37.35 14.25 L36.3 14.85 35.1 15.2 28.6 15.6 Q24.85 15.3 22.2 14.15 L21.1 13.6 Q20.45 13.2 20.1 12.75 19.65 12.25 19.85 11.7 L20.0 11.45 20.15 11.3 M20.45 10.35 Q19.55 10.9 19.2 11.6 M38.35 13.2 L37.4 11.9 M37.35 14.25 L37.2 14.15 M38.4 13.25 L38.45 13.7 38.5 14.05 38.5 14.2 38.25 15.0 38.1 15.3 Q37.4 16.4 35.35 17.15 32.35 18.2 28.3 17.85 24.25 17.5 21.45 16.0 19.65 14.9 19.1 13.7 L18.95 13.4 Q18.85 13.0 18.9 12.6 L18.9 12.45 18.95 12.1 19.15 11.65 19.2 11.6 M38.35 13.2 L38.4 13.25 M20.1 12.75 L20.3 12.65" fill="none" stroke="#000000" stroke-linecap="round" stroke-linejoin="round" stroke-opacity="0.3019608" stroke-width="0.05"/>
      <path d="M35.75 13.85 Q35.75 13.5 35.9 13.25 L36.35 12.5 36.4 12.5 36.4 12.55 36.35 12.55 36.45 12.75 36.65 12.75 36.65 12.65 36.75 12.6 36.85 12.55 36.9 12.3 36.85 12.15 36.8 12.15 36.75 12.1 36.85 12.0 36.9 12.0 Q37.25 11.8 37.55 12.0 37.8 12.15 37.55 12.55 L37.45 12.65 37.35 12.75 36.75 13.8 Q36.6 14.25 36.25 14.15 L35.85 14.0 35.75 13.85 M37.8 12.2 L37.8 12.0 38.05 12.5 38.0 12.6 37.9 12.55 37.8 12.2" fill="#ffde4f" fill-rule="evenodd" stroke="none"/>
      <path d="M35.75 13.15 L36.15 12.45 36.95 11.85 37.6 11.9 37.8 12.0 37.8 12.2 37.55 12.55 Q37.8 12.15 37.55 12.0 37.25 11.8 36.9 12.0 L36.85 12.0 36.75 12.1 36.8 12.15 36.85 12.15 36.9 12.3 36.85 12.55 36.75 12.6 36.65 12.65 36.65 12.75 36.45 12.75 36.35 12.55 36.4 12.55 36.4 12.5 36.35 12.5 35.9 13.25 Q35.75 13.5 35.75 13.85 L35.75 13.15" fill="#ffff98" fill-rule="evenodd" stroke="none"/>
      <path d="M35.75 13.15 L35.75 13.85 35.85 14.0 36.25 14.15 Q36.6 14.25 36.75 13.8 L37.35 12.75 37.45 12.65 37.55 12.55 37.8 12.2 37.9 12.55 37.55 12.8 37.45 12.8 37.45 12.85 37.15 13.25 36.75 14.15 36.75 14.2 36.2 14.25 36.05 14.25 Q35.4 13.95 35.6 13.55 L35.6 13.5 35.75 13.15" fill="#f4a33c" fill-rule="evenodd" stroke="none"/>
      <path d="M36.75 14.2 Q36.95 14.35 36.6 14.4 L36.15 14.4 35.85 14.2 Q35.4 13.95 35.4 13.7 L35.6 13.5 35.6 13.55 Q35.4 13.95 36.05 14.25 L36.2 14.25 36.75 14.2" fill="#000000" fill-opacity="0.2" fill-rule="evenodd" stroke="none"/>
      <path d="M37.8 12.0 L37.6 11.9 36.95 11.85 36.15 12.45 35.75 13.15 M37.8 12.0 L38.05 12.5 38.0 12.6 37.9 12.55 37.55 12.8 37.45 12.8 37.45 12.85 37.15 13.25 36.75 14.15 36.75 14.2 36.2 14.25 36.05 14.25 Q35.4 13.95 35.6 13.55 L35.6 13.5 35.75 13.15" fill="none" stroke="#000000" stroke-linecap="round" stroke-linejoin="round" stroke-opacity="0.3019608" stroke-width="0.05"/>
      <path d="M20.6 9.9 L21.65 10.65 22.8 11.15 Q25.5 12.1 29.3 12.1 33.05 12.1 35.75 11.2 L36.9 10.75 37.9 10.1 Q38.5 9.55 38.3 8.95 L38.05 8.5 37.85 8.3 37.8 8.25 37.8 7.7 Q38.5 8.3 38.8 8.95 L38.85 9.1 38.8 9.15 38.8 9.4 38.55 10.0 37.85 10.75 36.0 11.75 Q33.2 12.9 29.2 12.9 25.2 12.9 22.35 11.65 21.2 11.2 20.55 10.65 L19.85 9.9 19.6 9.3 19.55 9.05 19.6 8.8 Q19.9 8.1 20.75 7.5 L20.75 8.2 20.5 8.45 20.35 8.6 20.25 8.85 Q20.1 9.45 20.6 9.9" fill="#ffde4f" fill-rule="evenodd" stroke="none"/>
      <path d="M19.55 9.05 L19.6 9.3 19.85 9.9 20.55 10.65 Q21.2 11.2 22.35 11.65 25.2 12.9 29.2 12.9 33.2 12.9 36.0 11.75 L37.85 10.75 38.55 10.0 38.8 9.4 38.8 9.15 38.85 9.15 38.85 9.25 38.8 9.7 38.55 10.25 38.2 10.75 36.0 12.05 Q33.15 13.15 29.15 13.15 25.15 13.15 22.35 11.95 20.9 11.35 20.2 10.65 L19.85 10.15 19.6 9.6 19.55 9.15 19.55 9.05" fill="#ffff98" fill-rule="evenodd" stroke="none"/>
      <path d="M38.85 9.0 L39.0 9.4 39.05 9.8 39.05 9.9 38.9 10.75 38.75 11.05 Q38.1 12.2 36.15 13.1 33.2 14.35 29.15 14.35 25.05 14.35 22.2 13.0 20.3 12.1 19.65 10.95 L19.5 10.65 19.35 9.8 19.35 9.7 19.4 9.3 19.55 8.9 19.55 9.05 19.55 9.15 19.6 9.6 19.85 10.15 20.2 10.65 Q20.9 11.35 22.35 11.95 25.15 13.15 29.15 13.15 33.15 13.15 36.0 12.05 L38.2 10.75 38.55 10.25 38.8 9.7 38.85 9.25 38.85 9.15 38.85 9.1 38.85 9.0" fill="#eeb000" fill-rule="evenodd" stroke="none"/>
      <path d="M20.6 9.9 Q20.1 9.45 20.25 8.85 L20.35 8.6 20.5 8.45 20.75 8.2 20.75 9.75 20.6 9.9 M37.8 8.25 L37.85 8.3 38.05 8.5 38.3 8.95 Q38.5 9.55 37.9 10.1 L37.8 10.0 37.8 8.25" fill="#9d7200" fill-rule="evenodd" stroke="none"/>
      <path d="M37.9 10.1 L36.9 10.75 35.75 11.2 Q33.05 12.1 29.3 12.1 25.5 12.1 22.8 11.15 L21.65 10.65 20.6 9.9 Q20.1 9.45 20.25 8.85 L20.35 8.6 20.5 8.45 M20.75 7.5 Q19.9 8.1 19.6 8.8 M38.8 8.95 Q38.5 8.3 37.8 7.7 M37.9 10.1 L37.8 10.0 M38.85 9.0 L39.0 9.4 39.05 9.8 39.05 9.9 38.9 10.75 38.75 11.05 Q38.1 12.2 36.15 13.1 33.2 14.35 29.15 14.35 25.05 14.35 22.2 13.0 20.3 12.1 19.65 10.95 L19.5 10.65 19.35 9.8 19.35 9.7 19.4 9.3 19.55 8.9 19.6 8.8 M38.8 8.95 L38.85 8.95 38.85 9.0 M20.6 9.9 L20.75 9.75" fill="none" stroke="#000000" stroke-linecap="round" stroke-linejoin="round" stroke-opacity="0.3019608" stroke-width="0.05"/>
      <path d="M24.95 15.2 L25.75 15.7 26.95 16.9 26.95 16.95 27.0 17.1 27.0 16.95 27.15 17.4 27.25 17.8 27.3 17.95 27.2 18.85 27.05 19.2 26.1 20.45 26.9 21.55 26.9 21.6 26.95 21.7 26.95 21.6 27.1 22.05 27.15 22.45 27.15 22.6 27.0 23.5 26.8 23.85 Q26.15 25.05 24.05 26.05 L23.65 26.2 23.9 27.3 23.9 27.45 Q25.8 28.4 27.75 30.25 L27.9 30.4 Q29.65 30.9 31.3 32.1 L31.95 32.1 Q33.6 32.2 34.6 33.0 35.55 33.15 36.85 34.15 L37.85 35.35 38.15 35.95 Q39.35 38.35 39.5 42.4 L39.5 42.7 Q38.15 41.8 36.65 41.2 L34.35 40.2 33.9 40.4 33.0 40.3 Q33.55 41.95 33.65 44.0 L33.65 46.05 30.85 44.05 Q28.6 43.3 27.65 42.35 L26.3 41.7 25.85 42.15 25.7 42.3 Q25.85 44.6 25.45 47.8 L25.3 47.7 22.65 46.1 Q20.9 45.2 20.15 44.4 L17.55 43.95 16.9 43.75 14.9 41.75 14.25 40.9 12.0 41.1 Q8.2 40.15 8.4 37.55 L8.7 36.6 5.85 35.5 5.7 35.4 5.95 35.05 6.3 34.9 6.85 34.5 7.4 33.85 7.6 33.3 7.6 33.2 7.5 33.3 7.2 33.5 7.15 33.5 6.5 33.6 6.45 33.6 5.6 33.35 4.85 32.75 4.55 32.1 Q4.25 31.2 4.6 30.35 4.9 29.55 5.6 29.25 L5.65 29.25 5.65 29.2 6.95 28.8 7.2 28.8 7.25 28.8 7.45 27.9 Q7.65 27.25 8.15 26.95 L8.5 26.7 9.15 26.45 Q9.2 26.35 9.3 26.35 L9.3 26.15 9.0 26.05 Q6.9 25.05 6.2 23.85 L6.05 23.5 Q5.9 23.05 5.9 22.6 L5.9 22.45 5.95 22.05 6.1 21.6 6.1 21.75 6.15 21.5 6.55 20.9 6.5 20.85 6.3 20.5 6.1 19.6 6.1 19.5 6.1 19.1 6.2 18.6 6.25 18.8 6.25 18.5 Q6.55 17.7 7.4 17.0 L7.95 16.55 7.8 16.25 7.8 15.9 7.85 15.8 8.05 15.5 8.35 15.15 8.95 14.7 Q10.65 13.65 14.75 13.15 L14.8 13.15 15.3 13.1 Q20.8 12.8 24.2 14.7 L24.9 15.1 24.95 15.2 M24.2 17.3 L22.95 18.3 22.9 18.75 24.05 19.15 24.1 19.25 24.2 19.25 24.4 19.35 25.05 19.0 26.05 18.25 25.95 18.15 25.5 17.9 Q24.95 17.55 24.2 17.3 M23.0 22.3 L23.05 22.9 23.25 24.1 23.6 24.0 24.85 23.5 25.9 22.8 25.8 22.7 25.4 22.4 24.2 21.75 23.0 22.3 M27.0 17.1 L27.0 17.15 27.0 17.1 M26.95 21.7 L26.95 21.75 26.9 21.75 26.95 21.7 M9.2 18.55 L9.1 18.45 7.9 19.2 7.6 19.45 7.4 19.6 7.75 19.85 9.0 19.15 9.25 19.05 9.2 18.55 M7.75 22.3 L7.4 22.55 7.25 22.7 Q7.65 23.1 8.4 23.5 L9.6 24.0 9.85 24.1 9.75 23.4 9.6 22.85 9.45 22.8 8.0 22.15 7.75 22.3" fill="none" stroke="#000000" stroke-linecap="round" stroke-linejoin="round" stroke-opacity="0.3019608" stroke-width="1.0"/>
      <path d="M25.4 22.45 L24.05 21.65 23.85 21.6 23.2 21.35 23.05 21.25 Q20.25 20.25 16.5 20.25 13.35 20.25 10.85 21.0 9.95 21.25 9.15 21.6 L9.0 21.65 7.75 22.35 7.65 21.6 Q7.7 21.05 8.15 20.4 9.4 19.6 10.85 19.15 L12.9 18.7 Q19.35 17.6 23.95 19.75 L24.1 19.85 25.25 20.45 25.5 21.6 25.4 22.45" fill="#c08602" fill-rule="evenodd" stroke="none"/>
      <path d="M7.4 20.1 Q8.05 19.6 9.0 19.2 9.85 18.8 10.85 18.5 L12.15 18.2 15.35 17.8 16.5 17.8 17.65 17.8 20.85 18.2 Q22.55 18.55 24.05 19.2 L24.1 19.25 24.2 19.25 25.8 20.25 25.8 20.8 25.25 20.45 24.1 19.85 23.95 19.75 Q19.35 17.6 12.9 18.7 L10.85 19.15 Q9.4 19.6 8.15 20.4 L7.4 20.9 7.4 20.1" fill="#ffde4f" fill-rule="evenodd" stroke="none"/>
      <path d="M25.8 20.8 L25.8 22.7 25.4 22.45 25.5 21.6 25.25 20.45 25.8 20.8 M7.75 22.35 L7.4 22.6 7.4 20.9 8.15 20.4 Q7.7 21.05 7.65 21.6 L7.75 22.35" fill="#9d7200" fill-rule="evenodd" stroke="none"/>
      <path d="M7.4 20.1 Q8.05 19.6 9.0 19.2 9.85 18.8 10.85 18.5 L12.15 18.2 15.35 17.8 16.5 17.8 17.65 17.8 20.85 18.2 Q22.55 18.55 24.05 19.2 L24.1 19.25 24.2 19.25 25.8 20.25 M25.8 22.7 L25.4 22.45 24.05 21.65 23.85 21.6 23.2 21.35 23.05 21.25 Q20.25 20.25 16.5 20.25 13.35 20.25 10.85 21.0 9.95 21.25 9.15 21.6 L9.0 21.65 7.75 22.35 7.4 22.6" fill="none" stroke="#000000" stroke-linecap="round" stroke-linejoin="round" stroke-opacity="0.3019608" stroke-width="0.05"/>
      <path d="M25.55 17.95 L24.1 17.25 23.95 17.2 23.25 17.0 23.1 16.9 16.55 16.45 Q13.35 16.7 10.9 17.65 L9.3 18.35 9.15 18.4 7.95 19.2 7.8 18.5 Q7.8 17.9 8.2 17.25 L10.75 15.8 Q11.7 15.4 12.8 15.15 19.1 13.55 23.9 15.35 L24.05 15.45 25.25 15.95 25.6 17.05 25.55 17.95" fill="#c08602" fill-rule="evenodd" stroke="none"/>
      <path d="M7.4 17.0 Q8.05 16.5 8.95 15.95 9.75 15.5 10.7 15.2 L12.0 14.7 15.2 14.1 16.35 14.0 17.5 13.95 20.65 14.05 Q22.4 14.25 23.9 14.8 L24.0 14.85 24.1 14.9 25.8 15.7 25.8 16.25 25.25 15.95 24.05 15.45 23.9 15.35 Q19.1 13.55 12.8 15.15 11.7 15.4 10.75 15.8 L8.2 17.25 7.5 17.8 7.4 17.0" fill="#ffde4f" fill-rule="evenodd" stroke="none"/>
      <path d="M25.8 16.25 L25.95 18.15 25.55 17.95 25.6 17.05 25.25 15.95 25.8 16.25 M7.95 19.2 L7.6 19.5 7.5 17.8 8.2 17.25 Q7.8 17.9 7.8 18.5 L7.95 19.2" fill="#9d7200" fill-rule="evenodd" stroke="none"/>
      <path d="M7.4 17.0 Q8.05 16.5 8.95 15.95 9.75 15.5 10.7 15.2 L12.0 14.7 15.2 14.1 16.35 14.0 17.5 13.95 20.65 14.05 Q22.4 14.25 23.9 14.8 L24.0 14.85 24.1 14.9 25.8 15.7 M25.95 18.15 L25.55 17.95 24.1 17.25 23.95 17.2 23.25 17.0 23.1 16.9 16.55 16.45 Q13.35 16.7 10.9 17.65 L9.3 18.35 9.15 18.4 7.95 19.2 7.6 19.5" fill="none" stroke="#000000" stroke-linecap="round" stroke-linejoin="round" stroke-opacity="0.3019608" stroke-width="0.05"/>
      <path d="M18.35 17.0 Q21.95 16.55 22.6 15.4 21.85 14.05 16.5 14.1 16.1 13.2 15.3 13.1 20.8 12.8 24.2 14.7 24.45 15.3 23.95 15.85 21.5 17.95 19.15 18.05 19.05 17.25 18.35 17.0 M22.7 14.75 L22.6 15.4 22.7 14.75 M22.95 18.3 L22.9 19.4 Q22.85 22.25 23.45 25.4 L23.9 27.45 Q25.8 28.4 27.75 30.25 L27.9 30.4 Q29.65 30.9 31.3 32.1 L31.95 32.1 Q35.1 32.3 35.8 35.0 36.5 39.4 33.9 40.4 L32.9 40.25 32.2 41.4 Q31.6 42.25 29.4 42.6 L29.65 42.15 30.15 42.1 Q31.7 41.85 32.45 40.3 32.3 38.5 30.8 36.5 L29.95 35.45 Q29.2 34.75 28.45 34.55 L27.9 34.1 Q29.05 34.2 30.15 35.15 L30.65 35.65 Q33.1 38.6 32.95 39.95 L33.95 39.95 Q35.75 38.8 35.5 36.3 35.15 33.65 33.6 32.9 L31.8 32.4 29.45 32.3 30.7 32.2 Q29.3 31.1 27.5 30.5 L25.55 29.95 26.45 30.05 27.2 30.2 Q25.45 28.6 23.05 27.4 L20.95 27.75 20.45 27.65 22.7 27.2 23.2 27.15 23.6 27.3 23.45 26.9 23.1 25.45 Q22.5 22.45 22.65 18.45 L22.95 18.3 M23.9 27.45 L23.6 27.3 23.9 27.45 M27.9 30.4 L27.65 30.3 27.2 30.2 27.65 30.3 27.9 30.4 M32.95 39.95 L32.9 40.25 32.95 39.95" fill="#f9f4e3" fill-rule="evenodd" stroke="none"/>
      <path d="M22.6 15.4 Q21.95 16.55 18.35 17.0 L17.0 17.15 Q16.95 15.4 16.5 14.15 L16.5 14.1 Q21.85 14.05 22.6 15.4 M24.9 15.1 Q25.55 16.55 22.95 18.3 L22.65 18.45 20.95 19.4 20.0 19.65 Q22.9 18.45 24.6 16.2 L24.9 15.1 M23.45 26.9 L23.6 27.3 23.2 27.15 Q21.6 26.1 20.55 26.4 19.5 26.65 19.2 26.85 L19.5 26.1 Q22.0 25.3 23.45 26.9" fill="#d8c1c5" fill-rule="evenodd" stroke="none"/>
      <path d="M19.15 18.05 Q21.5 17.95 23.95 15.85 24.45 15.3 24.2 14.7 L24.9 15.1 24.6 16.2 Q22.9 18.45 20.0 19.65 L20.95 19.4 22.65 18.45 Q22.5 22.45 23.1 25.45 L23.45 26.9 Q22.0 25.3 19.5 26.1 L19.5 25.85 19.2 25.15 Q18.4 23.75 18.45 20.4 L18.85 19.95 Q19.25 18.8 19.15 18.05 M20.95 27.75 L23.05 27.4 Q25.45 28.6 27.2 30.2 L26.45 30.05 25.55 29.95 27.5 30.5 Q29.3 31.1 30.7 32.2 L29.45 32.3 31.8 32.4 33.6 32.9 Q35.15 33.65 35.5 36.3 35.75 38.8 33.95 39.95 L32.95 39.95 Q33.1 38.6 30.65 35.65 L30.15 35.15 Q29.05 34.2 27.9 34.1 L26.95 34.15 Q26.6 32.75 25.85 31.95 L24.8 31.1 Q23.1 28.4 20.95 27.75 M28.45 34.55 Q29.2 34.75 29.95 35.45 L30.8 36.5 Q32.3 38.5 32.45 40.3 31.7 41.85 30.15 42.1 L29.65 42.15 Q30.65 40.35 30.2 38.2 L29.55 36.05 Q29.1 35.15 28.45 34.55" fill="#f3ecc7" fill-rule="evenodd" stroke="none"/>
      <path d="M16.5 14.15 Q16.95 15.4 17.0 17.15 L16.95 17.15 15.1 17.25 Q11.05 17.3 9.85 15.75 10.05 15.15 11.4 14.75 L14.85 14.25 16.5 14.1 16.5 14.15" fill="#532772" fill-rule="evenodd" stroke="none"/>
      <path d="M18.35 17.0 Q19.05 17.25 19.15 18.05 L17.7 18.25 15.2 18.25 Q11.9 18.05 9.15 16.6 7.75 15.8 8.95 14.7 10.65 13.65 14.75 13.15 L14.8 13.15 15.3 13.1 Q16.1 13.2 16.5 14.1 L14.85 14.25 11.4 14.75 Q10.05 15.15 9.85 15.75 11.05 17.3 15.1 17.25 L16.95 17.15 17.0 17.15 18.35 17.0 M9.85 15.75 L9.75 15.6 9.85 15.75" fill="#ceafe2" fill-rule="evenodd" stroke="none"/>
      <path d="M25.45 42.5 L25.3 42.65 Q21.9 45.25 17.55 43.95 L16.9 43.75 14.9 41.75 14.25 40.9 12.0 41.1 Q8.2 40.15 8.4 37.55 8.95 35.45 10.3 33.85 10.25 31.6 11.15 30.0 10.7 28.5 10.4 27.0 9.5 22.95 9.2 18.55 8.2 17.55 7.8 16.25 L7.8 15.9 7.85 15.8 Q7.9 16.3 8.3 17.0 L9.45 18.4 11.5 20.2 10.05 19.3 9.65 19.0 10.85 26.95 11.8 31.9 11.4 30.9 11.25 30.4 11.15 30.0 11.25 30.4 Q10.8 31.8 10.85 33.5 L11.4 33.15 Q9.65 35.0 8.6 37.85 L9.25 39.2 Q11.65 41.1 14.0 40.55 L12.9 38.6 15.25 41.45 17.0 43.2 17.5 43.3 Q21.9 44.45 25.0 42.15 L25.9 41.4 25.45 42.5 M8.35 15.15 L8.95 14.7 Q7.75 15.8 9.15 16.6 11.9 18.05 15.2 18.25 L17.7 18.25 19.15 18.05 Q19.25 18.8 18.85 19.95 L18.45 20.4 Q18.4 23.75 19.2 25.15 L19.5 25.85 19.5 26.1 Q17.9 26.65 16.7 27.75 L16.15 28.5 16.05 28.5 14.65 28.35 Q13.8 27.6 13.45 26.6 13.05 25.5 13.15 24.05 L13.5 22.1 Q14.15 20.95 15.4 20.4 L15.95 20.2 15.35 20.1 Q9.55 19.15 8.25 16.2 8.05 15.6 8.35 15.15 M9.2 18.55 L9.65 19.0 9.2 18.55 M25.15 37.35 Q23.2 36.7 21.6 37.0 20.6 37.2 19.75 37.8 L19.1 37.95 17.0 37.85 Q15.05 37.1 14.8 33.55 14.75 32.05 15.5 30.9 L16.3 30.25 16.9 29.8 Q18.9 28.45 20.95 27.75 23.1 28.4 24.8 31.1 L25.85 31.95 Q26.6 32.75 26.95 34.15 L26.4 34.3 24.75 35.2 Q26.5 34.5 28.45 34.55 29.1 35.15 29.55 36.05 L30.2 38.2 Q30.65 40.35 29.65 42.15 L28.3 42.25 Q26.95 41.85 26.4 41.45 L26.45 41.15 Q26.95 38.3 24.4 36.35 L25.15 37.35 M10.3 33.85 L10.85 33.5 10.3 33.85 M14.25 40.9 L14.0 40.55 14.25 40.9" fill="#c292da" fill-rule="evenodd" stroke="none"/>
      <path d="M7.85 15.8 L8.05 15.5 8.35 15.15 Q8.05 15.6 8.25 16.2 9.55 19.15 15.35 20.1 L15.95 20.2 15.4 20.4 Q14.15 20.95 13.5 22.1 L13.15 24.05 Q13.05 25.5 13.45 26.6 13.8 27.6 14.65 28.35 L16.05 28.5 16.15 28.5 16.7 27.75 Q17.9 26.65 19.5 26.1 L19.2 26.85 18.05 27.55 17.4 28.15 16.55 29.25 16.25 29.8 16.15 30.15 15.85 30.4 15.8 30.5 15.7 30.65 15.5 30.9 Q14.75 32.05 14.8 33.55 15.05 37.1 17.0 37.85 L19.1 37.95 19.75 37.8 Q20.6 37.2 21.6 37.0 23.2 36.7 25.15 37.35 26.55 39.55 25.9 41.4 L25.0 42.15 Q21.9 44.45 17.5 43.3 L17.0 43.2 15.25 41.45 12.9 38.6 14.0 40.55 Q11.65 41.1 9.25 39.2 L8.6 37.85 Q9.65 35.0 11.4 33.15 L10.85 33.5 Q10.8 31.8 11.25 30.4 L11.4 30.9 11.8 31.9 10.85 26.95 9.65 19.0 10.05 19.3 11.5 20.2 9.45 18.4 8.3 17.0 Q7.9 16.3 7.85 15.8" fill="#934fc1" fill-rule="evenodd" stroke="none"/>
      <path d="M22.7 27.2 Q19.95 27.15 18.8 27.95 17.4 28.55 18.05 27.55 L19.2 26.85 Q19.5 26.65 20.55 26.4 21.6 26.1 23.2 27.15 L22.7 27.2" fill="#d8c416" fill-rule="evenodd" stroke="none"/>
      <path d="M18.05 27.55 Q17.4 28.55 18.8 27.95 19.95 27.15 22.7 27.2 L20.45 27.65 Q18.45 28.3 16.75 29.6 L16.3 30.0 16.15 30.15 16.25 29.8 16.55 29.25 17.4 28.15 18.05 27.55" fill="#a39310" fill-rule="evenodd" stroke="none"/>
      <path d="M29.4 42.6 Q27.5 42.5 26.3 41.7 L25.85 42.15 25.45 42.5 25.9 41.4 Q26.55 39.55 25.15 37.35 L24.4 36.35 Q26.95 38.3 26.45 41.15 L26.4 41.45 26.3 41.7 26.4 41.45 Q26.95 41.85 28.3 42.25 L29.65 42.15 29.4 42.6 M16.15 30.15 L16.3 30.0 16.75 29.6 Q18.45 28.3 20.45 27.65 L20.95 27.75 Q18.9 28.45 16.9 29.8 L16.3 30.25 15.5 30.9 15.7 30.65 15.8 30.5 15.85 30.4 16.15 30.15 M26.95 34.15 L27.9 34.1 28.45 34.55 Q26.5 34.5 24.75 35.2 L26.4 34.3 26.95 34.15" fill="#d0b4e4" fill-rule="evenodd" stroke="none"/>
      <path d="M22.6 15.4 Q21.95 16.55 18.35 17.0 M24.2 14.7 Q20.8 12.8 15.3 13.1 M22.6 15.4 L22.7 14.75 M24.2 14.7 L24.9 15.1 Q25.55 16.55 22.95 18.3 L22.9 19.4 Q22.85 22.25 23.45 25.4 L23.9 27.45 Q25.8 28.4 27.75 30.25 L27.9 30.4 Q29.65 30.9 31.3 32.1 L31.95 32.1 Q35.1 32.3 35.8 35.0 36.5 39.4 33.9 40.4 L32.9 40.25 32.2 41.4 Q31.6 42.25 29.4 42.6 27.5 42.5 26.3 41.7 L25.85 42.15 25.45 42.5 25.3 42.65 Q21.9 45.25 17.55 43.95 L16.9 43.75 14.9 41.75 14.25 40.9 12.0 41.1 Q8.2 40.15 8.4 37.55 8.95 35.45 10.3 33.85 10.25 31.6 11.15 30.0 10.7 28.5 10.4 27.0 9.5 22.95 9.2 18.55 8.2 17.55 7.8 16.25 L7.8 15.9 7.85 15.8 8.05 15.5 8.35 15.15 8.95 14.7 Q10.65 13.65 14.75 13.15 L14.8 13.15 15.3 13.1 M22.95 18.3 L22.65 18.45 20.95 19.4 M23.6 27.3 L23.9 27.45 M17.0 17.15 L18.35 17.0 M9.65 19.0 L10.05 19.3 11.5 20.2 M9.85 15.75 Q11.05 17.3 15.1 17.25 L16.95 17.15 17.0 17.15 M22.7 27.2 L23.2 27.15 Q21.6 26.1 20.55 26.4 19.5 26.65 19.2 26.85 L18.05 27.55 17.4 28.15 16.55 29.25 16.25 29.8 16.15 30.15 16.3 30.0 16.75 29.6 Q18.45 28.3 20.45 27.65 L22.7 27.2 M9.65 19.0 L9.2 18.55 M11.25 30.4 L11.4 30.9 M11.15 30.0 L11.25 30.4 M10.85 33.5 L11.4 33.15 M14.0 40.55 L12.9 38.6 M15.8 30.5 L15.85 30.4 16.15 30.15 M10.85 33.5 L10.3 33.85 M26.95 34.15 L27.9 34.1 Q29.05 34.2 30.15 35.15 L30.65 35.65 Q33.1 38.6 32.95 39.95 M26.45 30.05 L27.2 30.2 27.65 30.3 27.9 30.4 M23.2 27.15 L23.6 27.3 M26.95 34.15 L26.4 34.3 M26.4 41.45 L26.45 41.15 Q26.95 38.3 24.4 36.35 M26.3 41.7 L26.4 41.45 M14.0 40.55 L14.25 40.9 M9.75 15.6 L9.85 15.75 M32.9 40.25 L32.95 39.95" fill="none" stroke="#000000" stroke-linecap="round" stroke-linejoin="round" stroke-opacity="0.3019608" stroke-width="0.05"/>
      <path d="M16.85 15.6 L16.7 14.8 M16.5 14.1 L16.1 13.5 M15.4 13.1 L15.3 13.1 M18.5 21.55 L18.45 20.75 M18.85 19.95 L19.05 19.2 M19.2 18.45 L19.15 18.05 19.05 17.7 M18.55 17.1 L18.35 17.0 M17.0 17.15 L16.95 16.35 M19.2 26.85 L19.5 26.1 19.5 25.85 19.3 25.35 M18.95 24.65 L18.75 23.9 M22.2 28.35 L21.5 27.95 M20.7 27.7 L20.45 27.65 M25.45 31.55 L24.8 31.1 M24.35 30.45 L23.9 29.85 M29.0 35.15 L28.45 34.5 27.9 34.1 M26.95 34.15 L26.75 33.45 M26.4 32.75 L25.95 32.05 M23.4 29.3 L22.85 28.8 M18.6 23.1 L18.5 22.3 M29.75 36.5 L29.55 36.05 29.4 35.8 M30.15 38.05 L30.0 37.3 M30.35 39.65 L30.3 38.85 M30.05 41.2 L30.25 40.45 M29.4 42.6 L29.65 42.15 29.8 41.9" fill="none" stroke="#000000" stroke-linecap="round" stroke-linejoin="round" stroke-opacity="0.2" stroke-width="0.30000000000000004"/>
      <path d="M12.2 26.6 L12.25 26.6 12.4 26.65 12.5 26.65 12.55 26.65 12.6 26.7 12.7 26.7 12.95 26.85 13.15 26.95 13.2 27.0 13.3 27.1 13.35 27.15 13.9 27.9 13.95 27.95 13.95 28.0 14.0 28.15 14.05 28.25 14.1 28.45 14.15 28.8 14.15 29.15 14.1 29.35 14.0 29.9 13.95 30.0 13.65 30.5 13.85 30.55 13.9 30.55 13.95 30.55 14.0 30.6 14.35 30.75 14.4 30.8 14.6 30.9 15.15 31.45 15.4 32.05 15.4 32.1 15.55 32.55 15.55 32.75 15.45 33.65 15.4 33.8 14.7 34.75 14.55 34.8 Q13.85 35.35 12.9 35.35 L12.7 35.35 12.6 35.35 12.0 35.2 12.05 35.4 12.1 35.6 12.5 36.25 12.55 36.35 12.55 36.4 12.75 36.6 12.8 36.7 12.85 36.85 12.9 37.05 11.9 37.35 11.65 37.3 7.75 35.8 7.6 35.7 7.9 35.4 8.25 35.2 8.8 34.8 9.3 34.15 9.5 33.6 9.5 33.55 9.4 33.65 9.1 33.8 9.05 33.8 8.65 33.95 8.65 32.0 6.35 32.0 Q6.25 31.3 6.5 30.65 6.8 29.85 7.5 29.6 L7.55 29.55 8.85 29.15 9.1 29.1 9.15 29.1 9.35 28.2 10.05 27.25 10.4 27.0 Q11.05 26.65 11.95 26.6 L11.95 26.65 12.1 26.6 12.15 26.6 12.2 26.6" fill="#000000" fill-opacity="0.2" fill-rule="evenodd" stroke="none"/>
      <path d="M32.2 42.85 L33.65 45.65 33.65 46.05 30.85 44.05 Q27.75 43.0 27.1 41.6 L27.05 40.75 27.15 38.95 Q27.35 37.25 28.05 35.65 28.05 37.25 28.65 38.45 L28.7 38.55 29.5 39.7 30.45 40.55 32.2 42.85 M25.3 47.7 L22.65 46.1 Q20.4 44.95 19.75 43.85 L19.6 43.35 Q19.5 41.45 20.15 39.65 20.7 37.95 22.0 37.15 21.55 38.3 21.5 39.25 21.45 40.15 21.8 40.85 22.25 41.8 22.85 42.55 L23.45 43.2 24.35 44.75 25.3 47.7 M33.4 33.4 Q33.4 35.2 34.6 36.45 L34.85 36.7 35.4 37.15 35.8 37.4 Q36.85 38.05 37.85 39.5 L39.5 42.4 39.5 42.7 Q38.15 41.8 36.65 41.2 L33.75 39.95 Q33.35 39.55 32.95 37.25 L32.9 37.05 Q32.6 35.0 33.4 33.4" fill="#d7b15b" fill-rule="evenodd" stroke="none"/>
      <path d="M28.7 38.55 L28.65 38.45 Q28.25 36.45 29.0 35.85 30.15 36.5 31.0 37.65 32.7 39.9 33.25 43.8 L32.2 42.85 30.45 40.55 29.5 39.7 28.7 38.55 M21.5 39.25 Q22.05 37.6 22.6 37.75 24.0 37.45 24.4 38.7 L24.85 40.2 25.25 46.15 24.35 44.75 23.45 43.2 22.85 42.55 Q22.25 41.8 21.8 40.85 21.45 40.15 21.5 39.25 M34.85 36.7 L34.75 36.4 Q33.55 33.9 34.2 33.4 35.95 33.65 37.2 35.6 38.35 37.35 39.0 40.6 L37.85 39.5 Q36.85 38.05 35.8 37.4 L35.4 37.15 34.85 36.7" fill="#edd6a3" fill-rule="evenodd" stroke="none"/>
      <path d="M32.2 42.85 L33.25 43.8 Q32.7 39.9 31.0 37.65 30.15 36.5 29.0 35.85 28.25 36.45 28.65 38.45 L28.7 38.55 28.65 38.45 Q28.05 37.25 28.05 35.65 L28.15 35.5 Q28.9 34.7 30.2 35.75 L31.7 37.45 32.3 38.5 Q33.45 40.75 33.65 44.0 L33.65 45.65 32.2 42.85 M22.0 37.15 L22.15 37.05 Q23.55 36.3 24.7 38.35 L25.25 39.6 25.65 41.35 Q25.95 43.9 25.45 47.8 L25.3 47.7 24.35 44.75 25.25 46.15 24.85 40.2 24.4 38.7 Q24.0 37.45 22.6 37.75 22.05 37.6 21.5 39.25 21.55 38.3 22.0 37.15 M33.4 33.4 L33.5 33.15 Q34.8 32.55 36.85 34.15 L37.85 35.35 38.15 35.95 Q39.35 38.35 39.5 42.4 L37.85 39.5 39.0 40.6 Q38.35 37.35 37.2 35.6 35.95 33.65 34.2 33.4 33.55 33.9 34.75 36.4 L34.85 36.7 34.6 36.45 Q33.4 35.2 33.4 33.4" fill="#f8efdc" fill-rule="evenodd" stroke="none"/>
      <path d="M33.65 45.65 L33.65 44.0 Q33.45 40.75 32.3 38.5 L31.7 37.45 30.2 35.75 Q28.9 34.7 28.15 35.5 L28.05 35.65 Q27.35 37.25 27.15 38.95 L27.05 40.75 27.1 41.6 Q27.75 43.0 30.85 44.05 L33.65 46.05 33.65 45.65 M22.0 37.15 L22.15 37.05 Q23.55 36.3 24.7 38.35 L25.25 39.6 25.65 41.35 Q25.95 43.9 25.45 47.8 L25.3 47.7 22.65 46.1 Q20.4 44.95 19.75 43.85 L19.6 43.35 Q19.5 41.45 20.15 39.65 20.7 37.95 22.0 37.15 M39.5 42.4 Q39.35 38.35 38.15 35.95 L37.85 35.35 36.85 34.15 Q34.8 32.55 33.5 33.15 L33.4 33.4 M39.5 42.4 L39.5 42.7 Q38.15 41.8 36.65 41.2 L33.75 39.95 Q33.35 39.55 32.95 37.25 L32.9 37.05 Q32.6 35.0 33.4 33.4" fill="none" stroke="#000000" stroke-linecap="round" stroke-linejoin="round" stroke-opacity="0.3019608" stroke-width="0.05"/>
      <path d="M16.4 28.65 L10.6 27.9 10.05 25.4 16.5 26.25 Q20.55 26.25 23.45 25.25 L23.9 27.3 23.75 27.35 Q21.2 27.15 18.85 28.55 L16.4 28.65 M22.9 20.85 L23.1 23.1 Q20.05 24.4 15.65 24.4 12.35 24.4 9.75 23.55 L9.3 21.15 Q12.0 21.95 15.75 21.95 19.8 21.95 22.9 20.85" fill="#000000" fill-opacity="0.2" fill-rule="evenodd" stroke="none"/>
      <path d="M5.65 29.2 L5.65 29.25 5.65 29.2" fill="#eeb000" fill-rule="evenodd" stroke="none"/>
      <path d="M7.25 29.0 L7.3 29.0 7.3 29.2 7.3 29.25 7.35 29.4 7.2 29.35 6.95 29.2 6.7 29.15 7.25 29.0 M9.2 35.5 L9.15 35.4 9.05 35.1 9.0 34.95 8.9 33.85 8.9 33.65 9.25 34.25 9.45 34.5 9.55 34.55 9.7 34.65 9.9 34.8 10.05 34.9 10.15 35.1 10.2 35.25 Q9.65 35.15 9.2 35.5 M10.75 30.5 L11.05 30.0 11.1 29.85 11.2 29.3 Q11.7 29.45 12.2 29.0 L12.05 29.55 12.05 29.7 11.75 30.2 10.75 30.5" fill="#a34100" fill-rule="evenodd" stroke="none"/>
      <path d="M11.25 26.7 L11.4 26.75 11.45 26.8 12.0 27.6 Q11.35 27.4 11.0 27.85 L11.05 28.0 11.1 28.15 11.15 28.25 11.2 28.45 11.25 28.8 11.25 29.15 11.2 29.3 11.1 29.85 11.05 30.0 10.75 30.5 10.95 30.55 11.0 30.55 11.05 30.55 11.1 30.55 11.45 30.7 11.5 30.8 11.8 30.95 Q12.75 31.0 12.65 30.55 L13.2 31.1 13.5 31.75 Q13.0 31.65 12.6 32.25 L12.65 32.55 12.65 32.75 12.5 33.75 12.45 33.95 11.8 34.75 11.75 34.75 11.65 34.8 11.4 34.9 11.0 35.05 10.8 35.05 10.7 35.05 10.05 34.9 9.9 34.8 9.7 34.65 9.55 34.55 9.45 34.5 9.25 34.25 8.9 33.65 8.9 33.85 9.0 34.95 9.05 35.1 9.15 35.4 9.2 35.5 9.5 36.15 9.6 36.25 9.6 36.3 9.65 36.35 Q10.4 36.4 10.65 36.1 L10.85 36.3 10.85 36.35 10.95 36.5 9.95 36.8 9.95 37.05 9.75 37.0 9.6 36.65 9.25 36.05 8.85 35.3 Q8.55 33.85 8.85 33.1 L9.05 33.6 Q9.45 34.35 10.2 34.65 L11.6 34.55 11.8 34.4 12.4 33.4 Q12.55 32.6 12.15 31.85 11.75 31.1 11.05 30.8 L10.35 30.7 10.15 30.7 10.25 30.65 Q10.75 30.3 10.9 29.55 11.1 28.75 10.7 28.0 10.35 27.25 9.65 27.0 L8.35 27.1 8.1 27.25 Q7.7 27.6 7.55 28.25 L7.55 29.3 7.7 29.85 6.9 29.4 5.5 29.45 5.45 29.5 Q4.85 29.9 4.65 30.65 4.5 31.45 4.9 32.2 L6.05 33.25 7.45 33.15 7.8 32.9 7.65 33.6 7.3 34.35 6.45 35.05 5.85 35.5 5.7 35.4 5.95 35.05 6.3 34.9 6.85 34.5 7.4 33.85 7.6 33.3 7.6 33.2 7.5 33.3 7.2 33.5 7.15 33.5 6.5 33.6 6.45 33.6 5.6 33.35 4.85 32.75 4.55 32.1 Q4.25 31.2 4.6 30.35 4.9 29.55 5.6 29.25 L5.65 29.25 Q5.95 29.1 6.2 29.1 L6.3 29.1 6.65 29.15 6.7 29.1 6.7 29.15 6.95 29.2 7.2 29.35 7.35 29.4 7.3 29.25 7.3 29.2 7.3 29.0 7.25 29.0 7.25 28.8 7.45 27.9 Q7.65 27.25 8.15 26.95 L8.5 26.7 Q9.15 26.35 10.05 26.3 L10.0 26.3 10.2 26.3 10.25 26.3 10.3 26.3 10.35 26.3 10.5 26.3 9.15 26.6 9.2 26.6 9.25 26.6 9.3 26.6 9.35 26.6 9.6 26.65 9.65 26.65 9.7 26.7 9.8 26.7 10.05 26.85 10.15 26.9 11.25 26.65 11.25 26.7" fill="#f97117" fill-rule="evenodd" stroke="none"/>
      <path d="M11.25 26.65 L10.15 26.9 10.05 26.85 9.8 26.7 9.7 26.7 9.65 26.65 9.6 26.65 9.35 26.6 9.3 26.6 9.25 26.6 9.2 26.6 9.15 26.6 10.5 26.3 10.6 26.35 10.65 26.35 10.7 26.35 10.8 26.4 11.05 26.5 11.25 26.65 M7.65 33.6 L7.8 32.9 Q6.45 33.1 5.55 32.15 4.6 31.0 5.45 29.5 L5.5 29.45 6.9 29.4 7.7 29.85 8.25 30.4 Q7.9 29.45 7.9 28.2 L8.1 27.25 8.35 27.1 9.65 27.0 Q10.35 27.25 10.7 28.0 11.1 28.75 10.9 29.55 10.75 30.3 10.25 30.65 L10.15 30.7 10.35 30.7 11.05 30.8 Q11.75 31.1 12.15 31.85 12.55 32.6 12.4 33.4 L11.8 34.4 Q10.7 34.7 10.0 34.05 9.25 33.3 9.0 32.4 L8.85 33.1 Q8.55 33.85 8.85 35.3 L9.25 36.05 Q8.65 36.15 7.95 35.2 7.55 34.65 7.65 33.6 M12.45 33.95 L12.5 33.75 12.65 32.75 12.65 32.55 12.6 32.25 Q13.0 31.65 13.5 31.75 L13.65 32.2 13.65 32.45 13.55 33.3 Q13.0 33.9 12.45 33.95 M11.2 29.3 L11.25 29.15 11.25 28.8 11.2 28.45 11.15 28.25 11.1 28.15 11.05 28.0 11.0 27.85 Q11.35 27.4 12.0 27.6 L12.05 27.7 12.1 27.85 12.15 27.9 12.2 28.15 12.25 28.45 12.25 28.85 12.2 29.0 Q11.7 29.45 11.2 29.3" fill="#ea6004" fill-rule="evenodd" stroke="none"/>
      <path d="M7.25 28.8 L7.25 29.0 6.7 29.15 6.7 29.1 6.65 29.15 6.3 29.1 6.2 29.1 Q5.95 29.1 5.65 29.25 L5.65 29.2 6.95 28.8 7.2 28.8 7.25 28.8 M5.85 35.5 L6.45 35.05 7.3 34.35 7.65 33.6 Q7.55 34.65 7.95 35.2 8.65 36.15 9.25 36.05 L9.6 36.65 9.75 37.0 5.85 35.5 M7.8 32.9 L7.45 33.15 6.05 33.25 4.9 32.2 Q4.5 31.45 4.65 30.65 4.85 29.9 5.45 29.5 4.6 31.0 5.55 32.15 6.45 33.1 7.8 32.9 M7.7 29.85 L7.55 29.3 7.55 28.25 Q7.7 27.6 8.1 27.25 L7.9 28.2 Q7.9 29.45 8.25 30.4 L7.7 29.85 M11.8 34.4 L11.6 34.55 10.2 34.65 Q9.45 34.35 9.05 33.6 L8.85 33.1 9.0 32.4 Q9.25 33.3 10.0 34.05 10.7 34.7 11.8 34.4 M9.95 37.05 L9.95 36.8 10.95 36.5 10.95 36.75 9.95 37.05 M10.65 36.1 Q10.4 36.4 9.65 36.35 L9.6 36.3 9.6 36.25 9.5 36.15 9.2 35.5 Q9.65 35.15 10.2 35.25 L10.55 35.9 10.6 36.0 10.65 36.1 M11.0 35.05 L11.4 34.9 11.65 34.8 11.75 34.75 11.8 34.75 12.45 33.95 Q13.0 33.9 13.55 33.3 L13.5 33.45 12.8 34.4 12.65 34.45 12.65 34.5 Q11.95 35.0 11.0 35.05 M12.65 30.55 Q12.75 31.0 11.8 30.95 L11.5 30.8 11.45 30.7 11.1 30.55 11.05 30.55 11.0 30.55 10.95 30.55 10.75 30.5 11.75 30.2 11.95 30.2 12.0 30.25 12.1 30.25 12.45 30.4 12.5 30.45 12.65 30.55" fill="#ca5202" fill-rule="evenodd" stroke="none"/>
      <path d="M12.0 27.6 L11.45 26.8 11.4 26.75 11.25 26.7 M10.5 26.3 L10.35 26.3 10.3 26.3 10.25 26.3 10.2 26.3 10.0 26.3 M10.05 26.3 Q9.15 26.35 8.5 26.7 L8.15 26.95 Q7.65 27.25 7.45 27.9 L7.25 28.8 7.2 28.8 6.95 28.8 5.65 29.2 5.6 29.25 Q4.9 29.55 4.6 30.35 4.25 31.2 4.55 32.1 L4.85 32.75 5.6 33.35 6.45 33.6 6.5 33.6 7.15 33.5 7.2 33.5 7.5 33.3 7.6 33.2 7.6 33.3 7.4 33.85 6.85 34.5 6.3 34.9 5.95 35.05 5.7 35.4 5.85 35.5 9.75 37.0 9.95 37.05 10.95 36.75 10.95 36.5 10.85 36.35 10.85 36.3 10.65 36.1 10.6 36.0 10.55 35.9 10.2 35.25 10.15 35.1 10.05 34.9 10.7 35.05 10.8 35.05 11.0 35.05 Q11.95 35.0 12.65 34.5 L12.65 34.45 12.8 34.4 13.5 33.45 13.55 33.3 13.65 32.45 13.65 32.2 13.5 31.75 13.2 31.1 12.65 30.55 M5.65 29.25 L5.6 29.25 M12.0 27.6 L12.05 27.7 12.1 27.85 12.15 27.9 12.2 28.15 12.25 28.45 12.25 28.85 12.2 29.0 12.05 29.55 12.05 29.7 11.75 30.2 11.95 30.2 12.0 30.25 12.1 30.25 12.45 30.4 12.5 30.45 12.65 30.55 M11.25 26.65 L11.05 26.5 10.8 26.4 10.7 26.35 10.65 26.35 10.6 26.35 10.5 26.3 M10.2 26.3 L10.05 26.3" fill="none" stroke="#000000" stroke-linecap="round" stroke-linejoin="round" stroke-opacity="0.3019608" stroke-width="0.05"/>
      <path d="M7.25 22.7 Q7.65 23.15 8.4 23.5 L9.6 24.0 Q12.5 25.0 16.6 25.0 20.7 25.0 23.6 24.0 L24.85 23.5 25.9 22.8 Q26.55 22.25 26.35 21.6 L26.1 21.1 25.9 20.85 25.8 20.8 25.8 20.25 26.9 21.55 26.9 21.6 26.95 21.75 26.9 21.8 26.9 22.1 26.6 22.7 25.9 23.5 23.9 24.65 Q20.85 25.9 16.5 25.9 12.2 25.9 9.15 24.65 L7.15 23.5 6.4 22.7 6.15 22.1 6.1 21.8 6.15 21.55 Q6.5 20.75 7.4 20.1 L7.4 20.9 7.1 21.15 7.0 21.3 6.85 21.6 Q6.7 22.2 7.25 22.7" fill="#ffde4f" fill-rule="evenodd" stroke="none"/>
      <path d="M6.1 21.8 L6.15 22.1 6.4 22.7 7.15 23.5 9.15 24.65 Q12.2 25.9 16.5 25.9 20.85 25.9 23.9 24.65 L25.9 23.5 26.6 22.7 26.9 22.1 26.9 21.8 26.95 21.8 26.95 21.9 26.9 22.4 26.6 23.0 26.25 23.5 23.9 24.95 Q20.85 26.2 16.5 26.2 12.2 26.2 9.15 24.95 7.55 24.3 6.8 23.5 L6.4 23.0 6.15 22.4 6.1 21.9 6.1 21.8" fill="#ffff98" fill-rule="evenodd" stroke="none"/>
      <path d="M26.95 21.6 L27.1 22.1 27.15 22.5 27.15 22.6 27.0 23.5 26.8 23.85 Q26.15 25.1 24.05 26.05 20.9 27.45 16.5 27.45 12.1 27.45 9.0 26.05 6.9 25.1 6.2 23.85 L6.05 23.5 Q5.9 23.1 5.9 22.6 L5.9 22.5 5.95 22.1 6.1 21.65 6.1 21.8 6.1 21.9 6.15 22.4 6.4 23.0 6.8 23.5 Q7.55 24.3 9.15 24.95 12.2 26.2 16.5 26.2 20.85 26.2 23.9 24.95 L26.25 23.5 26.6 23.0 26.9 22.4 26.95 21.9 26.95 21.8 26.95 21.75 26.95 21.6" fill="#eeb000" fill-rule="evenodd" stroke="none"/>
      <path d="M7.25 22.7 Q6.7 22.2 6.85 21.6 L7.0 21.3 7.1 21.15 7.4 20.9 7.4 22.6 7.25 22.7 M25.8 20.8 L25.9 20.85 26.1 21.1 26.35 21.6 Q26.55 22.25 25.9 22.8 L25.8 22.7 25.8 20.8" fill="#9d7200" fill-rule="evenodd" stroke="none"/>
      <path d="M25.9 22.8 L24.85 23.5 23.6 24.0 Q20.7 25.0 16.6 25.0 12.5 25.0 9.6 24.0 L8.4 23.5 Q7.65 23.15 7.25 22.7 6.7 22.2 6.85 21.6 L7.0 21.3 7.1 21.15 M7.4 20.1 Q6.5 20.75 6.15 21.55 M26.9 21.55 L25.8 20.25 M25.9 22.8 L25.8 22.7 M26.95 21.6 L27.1 22.1 27.15 22.5 27.15 22.6 27.0 23.5 26.8 23.85 Q26.15 25.1 24.05 26.05 20.9 27.45 16.5 27.45 12.1 27.45 9.0 26.05 6.9 25.1 6.2 23.85 L6.05 23.5 Q5.9 23.1 5.9 22.6 L5.9 22.5 5.95 22.1 6.1 21.65 6.15 21.55 M26.9 21.55 L26.95 21.6 M7.25 22.7 L7.4 22.6" fill="none" stroke="#000000" stroke-linecap="round" stroke-linejoin="round" stroke-opacity="0.3019608" stroke-width="0.05"/>
      <path d="M7.45 19.6 Q7.9 20.05 8.7 20.3 L9.9 20.7 17.0 21.15 Q21.05 20.85 23.85 19.6 L25.1 19.0 26.1 18.25 Q26.7 17.65 26.45 17.0 L26.1 16.55 25.95 16.3 25.8 16.25 25.8 15.7 27.0 16.9 27.0 16.95 27.0 17.1 27.0 17.15 26.95 17.45 26.75 18.1 26.15 18.95 24.2 20.2 Q21.25 21.7 16.95 22.05 12.6 22.35 9.5 21.35 L7.45 20.4 6.6 19.7 6.3 19.1 6.25 18.8 6.3 18.55 Q6.55 17.7 7.4 17.0 L7.5 17.8 7.2 18.05 7.1 18.25 7.0 18.55 Q6.9 19.15 7.45 19.6" fill="#ffde4f" fill-rule="evenodd" stroke="none"/>
      <path d="M6.25 18.8 L6.3 19.1 6.6 19.7 7.45 20.4 9.5 21.35 Q12.6 22.35 16.95 22.05 21.25 21.7 24.2 20.2 L26.15 18.95 26.75 18.1 26.95 17.45 27.0 17.15 27.0 17.25 27.0 17.75 26.8 18.4 26.45 18.9 Q25.75 19.8 24.25 20.55 21.3 22.05 17.0 22.4 12.65 22.7 9.55 21.7 L7.1 20.45 6.65 20.0 6.35 19.4 6.25 18.9 6.25 18.8" fill="#ffff98" fill-rule="evenodd" stroke="none"/>
      <path d="M27.0 16.95 L27.2 17.45 27.3 17.85 27.3 17.95 27.2 18.85 27.05 19.2 Q26.45 20.5 24.45 21.65 21.45 23.3 17.1 23.65 12.7 24.0 9.5 22.8 7.3 22.05 6.5 20.85 L6.35 20.5 6.1 19.6 6.1 19.5 6.1 19.1 6.25 18.65 6.25 18.8 6.25 18.9 6.35 19.4 6.65 20.0 7.1 20.45 9.55 21.7 Q12.65 22.7 17.0 22.4 21.3 22.05 24.25 20.55 25.75 19.8 26.45 18.9 L26.8 18.4 27.0 17.75 27.0 17.25 27.0 17.15 27.0 17.1 27.0 16.95" fill="#eeb000" fill-rule="evenodd" stroke="none"/>
      <path d="M7.45 19.6 Q6.9 19.15 7.0 18.55 L7.1 18.25 7.2 18.05 7.5 17.8 7.6 19.5 7.45 19.6 M25.8 16.25 L25.95 16.3 26.1 16.55 26.45 17.0 Q26.7 17.65 26.1 18.25 L25.95 18.15 25.8 16.25" fill="#9d7200" fill-rule="evenodd" stroke="none"/>
      <path d="M26.1 18.25 L25.1 19.0 23.85 19.6 Q21.05 20.85 17.0 21.15 L9.9 20.7 8.7 20.3 Q7.9 20.05 7.45 19.6 6.9 19.15 7.0 18.55 L7.1 18.25 7.2 18.05 M7.4 17.0 Q6.55 17.7 6.3 18.55 M27.0 16.9 L25.8 15.7 M26.1 18.25 L25.95 18.15 M27.0 16.95 L27.2 17.45 27.3 17.85 27.3 17.95 27.2 18.85 27.05 19.2 Q26.45 20.5 24.45 21.65 21.45 23.3 17.1 23.65 12.7 24.0 9.5 22.8 7.3 22.05 6.5 20.85 L6.35 20.5 6.1 19.6 6.1 19.5 6.1 19.1 6.25 18.65 6.3 18.55 M27.0 16.9 L27.0 16.95 M7.45 19.6 L7.6 19.5" fill="none" stroke="#000000" stroke-linecap="round" stroke-linejoin="round" stroke-opacity="0.3019608" stroke-width="0.05"/>
      <path d="M9.55 26.6 L9.45 25.95 9.65 25.05 9.7 24.95 9.7 25.05 9.85 25.2 10.05 25.15 10.1 25.05 10.1 25.0 10.15 24.9 10.15 24.6 10.05 24.45 10.0 24.45 9.95 24.45 10.0 24.4 10.05 24.3 Q10.35 24.0 10.7 24.05 11.0 24.1 10.9 24.65 L10.85 24.75 10.8 24.95 Q10.6 25.45 10.55 26.2 10.55 26.7 10.15 26.75 L9.7 26.7 9.55 26.6 M11.05 24.2 L10.95 24.0 11.35 24.4 11.35 24.5 11.25 24.55 11.05 24.2" fill="#ffde4f" fill-rule="evenodd" stroke="none"/>
      <path d="M9.35 25.9 Q9.35 25.45 9.5 25.05 9.7 24.4 10.05 24.15 L10.75 23.95 10.95 24.0 11.05 24.2 10.9 24.65 Q11.0 24.1 10.7 24.05 10.35 24.0 10.05 24.3 L10.0 24.4 9.95 24.45 10.0 24.45 10.05 24.45 10.15 24.6 10.15 24.9 10.1 25.0 10.1 25.05 10.05 25.15 9.85 25.2 9.7 25.05 9.7 24.95 9.65 25.05 9.45 25.95 9.55 26.6 9.35 25.9" fill="#ffff98" fill-rule="evenodd" stroke="none"/>
      <path d="M9.35 25.9 L9.55 26.6 9.7 26.7 10.15 26.75 Q10.55 26.7 10.55 26.2 10.6 25.45 10.8 24.95 L10.85 24.75 10.9 24.65 11.05 24.2 11.25 24.55 10.95 24.85 10.95 24.95 10.9 25.0 10.75 25.5 10.7 26.5 10.7 26.6 Q10.65 26.9 10.15 26.9 L10.0 26.9 Q9.3 26.8 9.3 26.35 L9.35 25.9" fill="#f4a33c" fill-rule="evenodd" stroke="none"/>
      <path d="M10.7 26.6 Q10.95 26.7 10.6 26.9 L10.15 27.0 9.75 26.95 9.15 26.6 Q9.1 26.35 9.3 26.35 9.3 26.8 10.0 26.9 L10.15 26.9 Q10.65 26.9 10.7 26.6" fill="#000000" fill-opacity="0.2" fill-rule="evenodd" stroke="none"/>
      <path d="M10.95 24.0 L10.75 23.95 10.05 24.15 Q9.7 24.4 9.5 25.05 9.35 25.45 9.35 25.9 M10.95 24.0 L11.35 24.4 11.35 24.5 11.25 24.55 10.95 24.85 10.95 24.95 10.9 25.0 10.75 25.5 10.7 26.5 10.7 26.6 Q10.65 26.9 10.15 26.9 L10.0 26.9 Q9.3 26.8 9.3 26.35 L9.35 25.9" fill="none" stroke="#000000" stroke-linecap="round" stroke-linejoin="round" stroke-opacity="0.3019608" stroke-width="0.05"/>
    </g>
    <g id="sprite0" transform="matrix(1.0, 0.0, 0.0, 1.0, 73.5, 65.0)">
      <use height="136.85" transform="matrix(1.0, 0.0, 0.0, 1.0, -73.5, -65.0)" width="148.25" xlink:href="#shape1"/>
    </g>
    <g id="shape1" transform="matrix(1.0, 0.0, 0.0, 1.0, 73.5, 65.0)">
      <path d="M36.65 -54.65 Q60.05 -42.0 69.75 -17.95 80.55 8.9 68.0 34.1 55.45 59.35 26.8 68.2 -1.8 77.05 -29.7 64.3 -57.6 51.6 -68.45 24.75 -79.3 -2.05 -66.75 -27.25 L-66.7 -27.3 Q-54.1 -52.5 -25.5 -61.4 3.1 -70.2 31.0 -57.5 L36.65 -54.65" fill="url(#gradient0)" fill-rule="evenodd" stroke="none"/>
    </g>
    <radialGradient cx="0" cy="0" gradientTransform="matrix(0.0914, 0.0, 0.0, 0.0914, 0.6, 3.4)" gradientUnits="userSpaceOnUse" id="gradient0" r="819.2" spreadMethod="pad">
      <stop offset="0.0" stop-color="#ffffff"/>
      <stop offset="1.0" stop-color="#ffffff" stop-opacity="0.0"/>
    </radialGradient>
    <g id="sprite1" transform="matrix(1.0, 0.0, 0.0, 1.0, 0.0, 0.0)">
      <use height="26.7" transform="matrix(0.0042, -1.3515, 1.3935, 0.02, 22.09, 56.0263)" width="26.7" xlink:href="#sprite2"/>
      <use height="26.7" transform="matrix(0.0095, -3.0486, 0.372, 0.0053, 36.507, 81.3775)" width="26.7" xlink:href="#sprite2"/>
      <use height="26.7" transform="matrix(3.0486, 0.0095, -0.0053, 0.372, 0.1225, 31.607)" width="26.7" xlink:href="#sprite2"/>
    </g>
    <g id="sprite2" transform="matrix(1.0, 0.0, 0.0, 1.0, 13.35, 13.35)">
      <use height="26.7" transform="matrix(1.0, 0.0, 0.0, 1.0, -13.35, -13.35)" width="26.7" xlink:href="#shape2"/>
    </g>
    <g id="shape2" transform="matrix(1.0, 0.0, 0.0, 1.0, 13.35, 13.35)">
      <path d="M9.3 -9.85 Q13.35 -5.8 13.35 0.0 13.35 5.8 9.3 9.3 5.8 13.35 0.0 13.35 -5.8 13.35 -9.85 9.3 -13.35 5.8 -13.35 0.0 -13.35 -5.8 -9.85 -9.85 -5.8 -13.35 0.0 -13.35 5.8 -13.35 9.3 -9.85" fill="url(#gradient1)" fill-rule="evenodd" stroke="none"/>
    </g>
    <radialGradient cx="0" cy="0" gradientTransform="matrix(0.0213, 0.0, 0.0, 0.0213, 0.0, 0.0)" gradientUnits="userSpaceOnUse" id="gradient1" r="819.2" spreadMethod="pad">
      <stop offset="0.19607843137254902" stop-color="#fee3bc" stop-opacity="0.42745098"/>
      <stop offset="0.5019607843137255" stop-color="#fee3bc" stop-opacity="0.06666667"/>
      <stop offset="0.7607843137254902" stop-color="#ffe3bd" stop-opacity="0.0"/>
    </radialGradient>
  </defs>
</svg>
