<?xml version="1.0" encoding="UTF-8" standalone="no"?>
<svg xmlns:xlink="http://www.w3.org/1999/xlink" height="520.0px" width="520.0px" xmlns="http://www.w3.org/2000/svg">
  <g transform="matrix(10.0, 0.0, 0.0, 10.0, 0.0, 0.0)">
    <use height="52.0" transform="matrix(1.0, 0.0, 0.0, 1.0, 0.0, 0.0)" width="52.0" xlink:href="#shape0"/>
    <use height="33.05" transform="matrix(1.0793, 0.0, 0.0, 1.0798, 15.8103, 3.5601)" width="29.2" xlink:href="#sprite0"/>
    <use height="38.1" transform="matrix(1.0, 0.0, 0.0, 1.0, 4.9, 10.5)" width="36.3" xlink:href="#shape3"/>
    <use height="136.85" transform="matrix(0.137, 0.0034, 0.0356, 0.0756, 7.8162, 33.1398)" width="148.25" xlink:href="#sprite1"/>
    <use height="136.85" transform="matrix(0.0455, -0.1087, 0.0733, 0.0204, 7.3413, 31.9179)" width="148.25" xlink:href="#sprite1"/>
  </g>
  <defs>
    <g id="shape0" transform="matrix(1.0, 0.0, 0.0, 1.0, 0.0, 0.0)">
      <path d="M52.0 0.0 L52.0 52.0 0.0 52.0 0.0 0.0 52.0 0.0" fill="#795fa9" fill-opacity="0.0" fill-rule="evenodd" stroke="none"/>
    </g>
    <g id="sprite0" transform="matrix(1.0, 0.0, 0.0, 1.0, 0.5, 0.5)">
      <use height="33.05" transform="matrix(1.0, 0.0, 0.0, 1.0, -0.5, -0.5)" width="29.2" xlink:href="#shape1"/>
      <use height="136.85" transform="matrix(0.1099, 0.0018, 0.015, 0.065, 2.3976, 19.2436)" width="148.25" xlink:href="#sprite1"/>
      <use height="136.85" transform="matrix(0.0565, -0.0943, 0.0555, 0.017, 2.1896, 18.1272)" width="148.25" xlink:href="#sprite1"/>
    </g>
    <g id="shape1" transform="matrix(1.0, 0.0, 0.0, 1.0, 0.5, 0.5)">
      <path d="M0.1 20.95 Q-0.1 22.25 0.05 23.85 0.05 24.5 0.5 25.55 L1.2 26.05 Q1.85 26.4 2.9 26.55 L4.75 26.65 7.15 28.5 9.05 29.8 12.75 32.05 13.1 32.0 Q13.65 31.65 12.2 30.05 L13.1 29.35 Q13.6 29.0 14.2 28.8 L14.7 28.65 14.9 28.55 13.6 27.6 15.6 28.4 15.75 28.3 16.2 28.15 20.0 27.35 Q21.65 28.25 25.65 28.55 26.05 28.5 25.7 28.15 25.2 27.65 23.15 26.6 23.3 25.5 24.15 24.4 L22.6 23.9 24.5 24.05 26.15 22.4 28.15 22.1 Q28.5 21.8 27.2 21.35 L26.15 21.0 22.5 20.3 18.2 19.9 Q14.25 19.9 11.65 19.0 L10.55 18.65 10.65 18.15 11.2 17.6 11.3 17.55 11.4 17.35 12.2 16.5 13.55 14.85 Q17.85 9.15 18.95 2.9 L19.05 1.35 Q18.95 0.15 17.95 0.0 15.6 0.5 12.55 4.65 10.4 6.15 8.4 8.65 L7.55 9.85 Q6.15 8.8 4.5 9.1 3.55 9.3 2.6 9.85 L2.35 10.4 Q1.55 12.3 3.15 13.65 L2.25 16.8 Q0.5 18.3 0.1 20.95 Z" fill="none" stroke="#000000" stroke-linecap="round" stroke-linejoin="round" stroke-opacity="0.3019608" stroke-width="1.0"/>
      <path d="M0.4 24.25 L0.4 22.85 0.55 21.2 1.05 19.2 Q1.7 17.7 2.95 17.05 2.0 18.05 2.45 19.1 L3.2 19.75 3.5 20.1 4.5 20.55 3.5 20.1 3.2 19.75 3.55 19.85 6.4 19.65 8.6 18.9 11.1 17.25 12.2 16.5 11.45 17.35 11.25 17.55 11.2 17.6 10.7 18.15 Q9.25 19.5 7.8 20.2 L7.45 20.35 7.1 20.45 4.5 20.55 Q3.75 21.0 3.4 21.6 L3.1 22.05 2.95 22.25 Q2.2 23.6 3.1 24.95 L3.3 25.25 3.05 25.2 Q1.35 24.9 0.4 24.25 M3.35 14.7 L3.2 13.65 4.05 14.15 5.25 14.4 Q4.65 14.85 3.95 14.8 L3.35 14.7 M15.45 9.55 Q15.05 12.05 13.5 14.15 L13.0 14.85 10.95 16.75 10.2 17.1 9.95 17.25 Q6.3 18.15 6.1 16.3 6.35 16.65 7.45 16.7 L9.1 16.65 10.7 16.0 12.1 14.85 Q13.65 13.4 14.95 10.75 L15.45 9.55 M10.15 14.65 L10.25 14.65 Q11.0 14.4 11.7 13.25 11.4 14.25 10.75 14.9 L10.45 15.15 10.0 15.45 9.55 14.95 Q9.35 14.45 9.95 13.55 L10.3 13.05 10.0 13.85 Q9.8 14.65 10.15 14.65" fill="#113030" fill-rule="evenodd" stroke="none"/>
      <path d="M2.95 17.05 Q1.7 17.7 1.05 19.2 L0.55 21.2 0.4 22.85 0.4 24.25 0.05 23.85 Q-0.1 22.3 0.1 20.95 0.5 18.3 2.3 16.75 L3.2 13.65 3.35 14.7 2.95 17.05 M3.1 22.05 L3.4 21.6 Q3.75 21.0 4.5 20.55 L7.1 20.45 7.45 20.35 6.25 20.95 8.5 20.6 Q10.1 19.7 10.55 18.6 L11.65 19.05 Q14.25 19.85 18.25 19.9 L22.55 20.3 26.2 21.05 27.15 21.35 Q28.5 21.8 28.2 22.1 L22.35 21.15 21.1 21.1 Q17.35 20.85 16.35 21.8 16.1 22.15 16.55 22.45 L16.55 22.5 17.25 23.15 19.75 24.8 20.75 25.35 22.2 26.05 23.15 26.55 25.7 28.15 Q22.7 27.7 18.6 25.5 16.95 24.6 15.3 24.2 L13.15 23.8 10.4 23.9 10.15 24.0 Q9.45 24.45 9.4 25.3 L9.45 25.95 9.45 26.15 9.9 27.1 11.15 28.85 11.45 29.2 12.05 29.85 12.2 30.05 Q13.65 31.65 13.15 32.0 L7.85 28.15 3.85 24.75 3.15 23.75 Q2.8 23.0 3.0 22.3 L3.1 22.05 M10.3 13.05 L11.55 10.5 Q13.8 6.3 15.25 6.5 15.7 6.95 15.75 7.75 15.3 6.85 14.1 8.2 12.1 10.55 10.25 14.55 L10.15 14.65 Q9.8 14.65 10.0 13.85 L10.3 13.05 M6.1 16.3 Q5.85 16.05 6.0 15.6 L6.2 15.1 Q7.3 12.5 8.8 10.0 L9.75 8.5 8.7 9.55 Q7.9 10.5 7.05 12.05 L6.1 12.95 Q5.35 13.7 4.1 13.3 L4.0 13.25 Q2.55 12.75 2.4 10.45 L2.6 9.9 Q3.6 9.3 4.5 9.15 6.1 8.8 7.5 9.85 7.9 9.2 8.4 8.7 10.4 6.1 12.55 4.65 15.65 0.45 17.9 0.0 18.9 0.15 19.05 1.35 17.75 0.35 15.3 2.5 11.75 6.3 9.05 10.8 L8.55 11.6 Q7.4 13.75 7.15 15.05 6.9 16.3 7.45 16.7 6.35 16.65 6.1 16.3 M9.75 8.5 L12.1 5.35 12.55 4.65 12.1 5.35 9.75 8.5 M6.9 10.65 L7.5 9.85 6.9 10.65 4.35 10.85 3.6 11.35 Q3.65 11.95 4.2 12.2 L5.9 12.3 6.9 10.65 M3.7 10.7 L3.6 11.35 3.7 10.7" fill="#1c5b4e" fill-rule="evenodd" stroke="none"/>
      <path d="M0.4 24.25 Q1.35 24.9 3.05 25.2 L3.3 25.25 4.8 26.6 2.9 26.5 Q1.9 26.45 1.15 26.05 L0.45 25.55 0.05 23.85 0.4 24.25 M24.95 23.65 L24.5 24.05 22.65 23.9 21.2 23.5 24.95 23.65 M16.25 28.15 L15.8 28.3 15.55 28.4 13.65 27.65 12.35 26.95 16.25 28.15 M9.45 25.95 L9.45 25.7 9.6 25.45 Q9.95 25.1 11.0 25.0 L12.95 24.95 13.55 25.1 13.6 25.05 15.5 25.5 13.65 25.5 12.6 25.65 11.85 25.8 11.8 25.95 11.55 26.2 11.5 26.25 Q10.7 27.3 11.25 28.75 L11.45 29.2 11.15 28.85 9.9 27.1 9.45 26.15 9.45 25.95 M16.55 22.45 L19.35 22.05 Q21.05 21.85 22.75 22.0 L22.9 22.0 23.3 22.05 Q20.05 22.35 19.5 22.95 19.5 23.7 20.3 24.55 L22.2 26.05 20.75 25.35 19.75 24.8 17.25 23.15 16.55 22.5 16.55 22.45" fill="#a46201" fill-rule="evenodd" stroke="none"/>
      <path d="M3.3 25.25 L3.1 24.95 Q2.2 23.6 2.95 22.25 L3.1 22.05 3.0 22.3 Q2.8 23.0 3.15 23.75 L3.85 24.75 7.85 28.15 13.15 32.0 12.8 32.05 9.05 29.8 7.15 28.5 4.8 26.6 3.3 25.25 M3.2 19.75 L2.45 19.1 Q2.0 18.05 2.95 17.05 L3.35 14.7 3.95 14.8 Q4.65 14.85 5.25 14.4 L4.05 14.15 3.2 13.65 Q1.6 12.3 2.4 10.45 2.55 12.75 4.0 13.25 L4.1 13.3 Q5.35 13.7 6.1 12.95 L7.05 12.05 Q7.9 10.5 8.7 9.55 L9.75 8.5 8.8 10.0 Q7.3 12.5 6.2 15.1 L6.0 15.6 Q5.85 16.05 6.1 16.3 6.3 18.15 9.95 17.25 L10.2 17.1 10.95 16.75 13.0 14.85 13.5 14.15 Q15.05 12.05 15.45 9.55 15.8 8.5 15.75 7.75 15.8 8.5 15.45 9.55 L14.95 10.75 Q13.65 13.4 12.1 14.85 L10.7 16.0 9.1 16.65 7.45 16.7 Q6.9 16.3 7.15 15.05 7.4 13.75 8.55 11.6 L9.05 10.8 Q11.75 6.3 15.3 2.5 17.75 0.35 19.05 1.35 L19.0 2.9 Q17.85 9.15 13.55 14.85 L12.2 16.5 11.1 17.25 8.6 18.9 6.4 19.65 3.55 19.85 3.2 19.75 M15.75 7.75 Q15.7 6.95 15.25 6.5 13.8 6.3 11.55 10.5 L10.3 13.05 9.95 13.55 Q9.35 14.45 9.55 14.95 L10.0 15.45 10.45 15.15 10.75 14.9 Q11.4 14.25 11.7 13.25 11.0 14.4 10.25 14.65 L10.15 14.65 10.25 14.55 Q12.1 10.55 14.1 8.2 15.3 6.85 15.75 7.75 M10.7 18.15 L10.55 18.6 Q10.1 19.7 8.5 20.6 L6.25 20.95 7.45 20.35 7.8 20.2 Q9.25 19.5 10.7 18.15 M28.2 22.1 L26.2 22.4 26.55 22.1 23.3 22.05 22.9 22.0 22.75 22.0 Q21.05 21.85 19.35 22.05 L16.55 22.45 Q16.1 22.15 16.35 21.8 17.35 20.85 21.1 21.1 L22.35 21.15 28.2 22.1 M25.7 28.15 Q26.05 28.55 25.65 28.55 21.65 28.3 20.0 27.35 L20.8 27.3 17.2 26.0 15.5 25.5 13.6 25.05 13.55 25.1 12.95 24.95 11.0 25.0 Q9.95 25.1 9.6 25.45 L9.45 25.7 9.45 25.95 9.4 25.3 Q9.45 24.45 10.15 24.0 L10.4 23.9 13.15 23.8 15.3 24.2 Q16.95 24.6 18.6 25.5 22.7 27.7 25.7 28.15 M6.9 10.65 L5.9 12.3 4.2 12.2 Q3.65 11.95 3.6 11.35 L4.35 10.85 6.9 10.65" fill="#173f3f" fill-rule="evenodd" stroke="none"/>
      <path d="M26.2 22.4 L24.95 23.65 21.2 23.5 22.65 23.9 24.1 24.4 Q23.3 25.45 23.15 26.55 L22.2 26.05 20.3 24.55 Q19.5 23.7 19.5 22.95 20.05 22.35 23.3 22.05 L26.55 22.1 26.2 22.4 M20.0 27.35 Q18.0 27.5 16.25 28.15 L12.35 26.95 13.65 27.65 14.9 28.55 14.65 28.65 14.15 28.75 Q13.65 29.0 13.15 29.35 L12.2 30.05 12.05 29.85 11.45 29.2 11.25 28.75 Q10.7 27.3 11.5 26.25 L11.55 26.2 11.8 25.95 11.85 25.8 12.6 25.65 13.65 25.5 15.5 25.5 17.2 26.0 20.8 27.3 20.0 27.35" fill="#c77d03" fill-rule="evenodd" stroke="none"/>
      <path d="M0.4 24.25 Q1.35 24.9 3.05 25.2 L3.3 25.25 M4.5 20.55 L3.5 20.1 3.2 19.75 2.45 19.1 M3.2 13.65 L2.3 16.75 Q0.5 18.3 0.1 20.95 -0.1 22.3 0.05 23.85 L0.4 24.25 M0.05 23.85 L0.45 25.55 1.15 26.05 Q1.9 26.45 2.9 26.5 L4.8 26.6 3.3 25.25 M10.3 13.05 L11.55 10.5 Q13.8 6.3 15.25 6.5 15.7 6.95 15.75 7.75 15.8 8.5 15.45 9.55 M6.1 16.3 Q5.85 16.05 6.0 15.6 L6.2 15.1 Q7.3 12.5 8.8 10.0 L9.75 8.5 M2.4 10.45 Q1.6 12.3 3.2 13.65 M10.15 14.65 L10.25 14.65 Q11.0 14.4 11.7 13.25 M10.3 13.05 L10.0 13.85 Q9.8 14.65 10.15 14.65 M7.45 16.7 L9.1 16.65 10.7 16.0 12.1 14.85 Q13.65 13.4 14.95 10.75 L15.45 9.55 M19.05 1.35 Q18.9 0.15 17.9 0.0 15.65 0.45 12.55 4.65 L12.1 5.35 9.75 8.5 M19.05 1.35 L19.0 2.9 Q17.85 9.15 13.55 14.85 L12.2 16.5 11.45 17.35 11.25 17.55 11.2 17.6 10.7 18.15 10.55 18.6 11.65 19.05 Q14.25 19.85 18.25 19.9 L22.55 20.3 26.2 21.05 27.15 21.35 Q28.5 21.8 28.2 22.1 L26.2 22.4 24.95 23.65 24.5 24.05 22.65 23.9 24.1 24.4 Q23.3 25.45 23.15 26.55 L25.7 28.15 Q26.05 28.55 25.65 28.55 21.65 28.3 20.0 27.35 18.0 27.5 16.25 28.15 L15.8 28.3 15.55 28.4 13.65 27.65 14.9 28.55 14.65 28.65 14.15 28.75 Q13.65 29.0 13.15 29.35 L12.2 30.05 Q13.65 31.65 13.15 32.0 L12.8 32.05 9.05 29.8 7.15 28.5 4.8 26.6 M12.55 4.65 Q10.4 6.1 8.4 8.7 7.9 9.2 7.5 9.85 L6.9 10.65 5.9 12.3 4.2 12.2 Q3.65 11.95 3.6 11.35 L3.7 10.7 M2.4 10.45 L2.6 9.9 Q3.6 9.3 4.5 9.15 6.1 8.8 7.5 9.85 M6.1 16.3 Q6.35 16.65 7.45 16.7 M9.45 25.95 L9.45 25.7 9.6 25.45 Q9.95 25.1 11.0 25.0 L12.95 24.95 13.55 25.1 13.6 25.05 15.5 25.5 17.2 26.0 20.8 27.3 20.0 27.35 M7.45 20.35 L7.1 20.45 4.5 20.55 M8.5 20.6 Q10.1 19.7 10.55 18.6 M10.7 18.15 Q9.25 19.5 7.8 20.2 L7.45 20.35 M11.45 29.2 L11.15 28.85 9.9 27.1 9.45 26.15 9.45 25.95 M12.2 30.05 L12.05 29.85 11.45 29.2 M16.55 22.45 L19.35 22.05 Q21.05 21.85 22.75 22.0 L22.9 22.0 23.3 22.05 26.55 22.1 26.2 22.4 M22.2 26.05 L20.75 25.35 19.75 24.8 17.25 23.15 16.55 22.5 16.55 22.45 Q16.1 22.15 16.35 21.8 M23.15 26.55 L22.2 26.05" fill="none" stroke="#000000" stroke-linecap="round" stroke-linejoin="round" stroke-opacity="0.3019608" stroke-width="0.30000000000000004"/>
      <path d="M2.8 23.65 L3.45 22.7 4.2 22.8 Q4.7 23.55 3.95 23.9 3.1 24.35 2.8 23.65 M16.4 2.95 L16.15 3.4 15.85 3.55 15.45 3.45 15.35 3.2 15.5 2.9 15.75 2.7 16.2 2.6 Q16.5 2.55 16.4 2.95 M17.1 4.8 Q16.75 6.7 16.05 6.55 15.5 6.5 15.8 5.1 16.6 3.55 16.9 3.5 L17.1 4.8 M11.85 7.55 Q11.8 7.05 12.75 6.35 14.05 5.55 13.95 6.65 13.7 7.35 12.75 7.45 L11.85 7.55 M5.25 15.95 Q5.15 17.4 4.75 17.4 L3.15 17.65 Q3.0 17.25 4.1 15.75 4.8 15.1 5.25 15.95 M13.35 21.35 Q13.8 20.7 15.05 21.05 14.75 21.6 13.35 21.35 M13.75 22.2 Q14.1 22.7 12.6 22.8 11.2 22.3 11.3 22.05 L13.75 22.2 M5.2 24.35 L5.3 22.9 Q5.5 22.05 7.25 23.45 8.4 24.75 7.0 24.75 5.1 25.1 5.2 24.35 M4.6 24.9 Q5.9 25.4 5.5 26.1 5.1 26.45 4.65 25.35 L4.6 24.9 M5.85 19.0 Q5.55 19.8 4.75 20.0 4.2 19.55 4.55 18.75 L5.5 18.65 5.85 19.0" fill="#c7ad3d" fill-opacity="0.4117647" fill-rule="evenodd" stroke="none"/>
    </g>
    <g id="sprite1" transform="matrix(1.0, 0.0, 0.0, 1.0, 73.5, 65.0)">
      <use height="136.85" transform="matrix(1.0, 0.0, 0.0, 1.0, -73.5, -65.0)" width="148.25" xlink:href="#shape2"/>
    </g>
    <g id="shape2" transform="matrix(1.0, 0.0, 0.0, 1.0, 73.5, 65.0)">
      <path d="M36.65 -54.65 Q60.05 -42.0 69.75 -17.95 80.55 8.9 68.0 34.1 55.45 59.35 26.8 68.2 -1.8 77.05 -29.7 64.3 -57.6 51.6 -68.45 24.75 -79.3 -2.05 -66.75 -27.25 L-66.7 -27.3 Q-54.1 -52.5 -25.5 -61.4 3.1 -70.2 31.0 -57.5 L36.65 -54.65" fill="url(#gradient0)" fill-rule="evenodd" stroke="none"/>
    </g>
    <radialGradient cx="0" cy="0" gradientTransform="matrix(0.0914, 0.0, 0.0, 0.0914, 0.6, 3.4)" gradientUnits="userSpaceOnUse" id="gradient0" r="819.2" spreadMethod="pad">
      <stop offset="0.0" stop-color="#c7c7c7"/>
      <stop offset="1.0" stop-color="#c7c7c7" stop-opacity="0.0"/>
    </radialGradient>
    <g id="shape3" transform="matrix(1.0, 0.0, 0.0, 1.0, -4.9, -10.5)">
      <path d="M5.45 35.1 Q5.55 36.6 6.15 38.45 6.3 39.2 7.1 40.45 L8.15 41.0 10.4 41.6 12.75 41.7 16.25 43.9 18.9 45.5 24.15 48.1 24.5 48.05 Q25.1 47.7 22.85 45.75 L23.8 44.95 Q24.35 44.6 25.0 44.35 L25.55 44.15 25.85 44.1 24.0 43.0 26.6 43.9 26.9 43.8 27.35 43.65 Q29.45 42.9 31.85 42.75 34.2 43.85 39.15 44.2 39.7 44.2 39.15 43.8 L35.6 41.9 Q35.45 40.6 36.2 39.4 L34.2 38.75 36.55 38.95 38.25 37.1 40.65 36.75 Q40.95 36.4 39.15 35.85 L37.85 35.45 33.15 34.6 27.7 34.1 Q22.75 34.0 19.3 33.0 L17.8 32.45 17.85 32.0 17.85 31.95 18.4 31.35 18.45 31.25 18.6 31.05 19.3 30.05 20.55 28.15 Q24.45 21.6 24.15 14.4 L23.85 12.6 Q23.35 11.2 22.15 11.0 19.35 11.55 16.7 16.35 14.4 18.0 12.5 20.9 L11.75 22.25 Q9.8 21.05 7.8 21.4 6.75 21.6 5.65 22.3 L5.5 22.9 Q5.0 25.05 7.35 26.65 L7.05 30.2 Q5.25 32.0 5.45 35.1 Z" fill="none" stroke="#000000" stroke-linecap="round" stroke-linejoin="round" stroke-opacity="0.3019608" stroke-width="1.0"/>
      <path d="M6.7 38.9 L6.35 37.3 6.1 35.35 Q6.0 34.05 6.15 33.05 6.6 31.35 7.95 30.55 7.05 31.8 7.9 33.0 L8.95 33.8 9.45 34.1 10.8 34.65 9.45 34.1 8.95 33.8 9.4 33.9 12.95 33.6 15.4 32.8 18.15 31.0 19.3 30.1 18.6 31.1 18.4 31.25 18.35 31.4 17.85 32.0 Q16.4 33.55 14.8 34.3 L14.4 34.45 14.0 34.55 10.8 34.65 9.65 35.85 9.45 36.35 9.3 36.7 Q8.7 38.2 10.2 39.8 10.3 39.95 10.55 40.1 L10.2 40.1 Q8.0 39.75 6.7 38.9 M7.85 27.9 L7.4 26.65 Q8.0 27.05 8.55 27.25 L10.15 27.55 Q9.5 28.05 8.65 28.0 L7.85 27.9 M11.65 29.8 Q12.1 30.2 13.45 30.25 L15.55 30.2 Q16.5 30.0 17.3 29.45 L18.8 28.2 Q20.3 26.45 21.25 23.45 L21.55 22.05 Q21.65 24.9 20.3 27.35 L19.8 28.15 Q18.95 29.5 17.75 30.3 L17.0 30.8 16.7 30.95 Q12.4 31.95 11.65 29.8 M16.3 27.9 L16.4 27.9 Q17.2 27.65 17.8 26.3 17.75 27.45 17.1 28.25 L16.75 28.55 16.35 28.8 Q15.8 28.65 15.55 28.25 15.25 27.7 15.7 26.7 L16.05 26.05 15.9 27.0 Q15.8 27.95 16.3 27.9" fill="#173e3e" fill-rule="evenodd" stroke="none"/>
      <path d="M7.95 30.55 Q6.6 31.35 6.15 33.05 6.0 34.05 6.1 35.35 L6.35 37.3 6.7 38.9 6.15 38.45 Q5.5 36.65 5.45 35.15 5.25 32.0 7.05 30.25 L7.4 26.65 7.85 27.9 7.95 30.55 M9.45 36.35 L9.65 35.85 10.8 34.65 14.0 34.55 14.4 34.45 13.1 35.15 15.75 34.8 Q17.55 33.75 17.8 32.5 L19.3 33.0 Q22.75 34.05 27.7 34.1 L33.1 34.65 37.8 35.45 39.2 35.85 Q40.9 36.4 40.6 36.75 L33.1 35.6 31.55 35.5 Q26.85 35.2 25.9 36.25 25.65 36.7 26.2 37.1 L27.3 37.85 30.8 39.8 32.2 40.45 34.2 41.3 35.55 41.9 39.1 43.75 Q35.3 43.2 29.6 40.55 27.35 39.5 25.2 39.0 L22.4 38.55 Q20.65 38.4 19.0 38.6 L18.7 38.75 Q17.95 39.25 18.15 40.25 L18.35 41.05 18.4 41.1 18.45 41.3 19.25 42.3 21.25 44.35 21.65 44.8 22.65 45.6 22.85 45.8 Q25.05 47.7 24.5 48.1 L16.95 43.6 11.15 39.5 10.0 38.4 Q9.35 37.55 9.4 36.75 L9.45 36.35 M23.8 12.6 Q22.0 11.4 19.45 13.9 16.1 18.25 13.9 23.4 L13.5 24.35 Q12.65 26.85 12.65 28.3 12.65 29.75 13.45 30.25 12.1 30.2 11.65 29.8 11.3 29.45 11.4 29.0 L11.5 28.4 Q12.2 25.4 13.4 22.55 L14.15 20.85 Q15.05 18.9 16.2 17.15 L16.65 16.35 16.2 17.15 Q15.05 18.9 14.15 20.85 L13.1 22.0 Q12.4 23.1 11.75 24.85 L10.75 25.9 Q10.05 26.75 8.45 26.3 L8.25 26.25 Q6.35 25.6 5.5 22.95 L5.65 22.3 Q6.75 21.6 7.8 21.4 9.75 21.1 11.75 22.3 L12.55 20.95 Q14.4 18.0 16.65 16.35 19.35 11.5 22.1 11.05 23.35 11.15 23.8 12.6 M21.4 20.0 Q20.6 18.9 19.5 20.45 17.6 23.15 16.35 27.75 L16.3 27.9 Q15.8 27.95 15.9 27.0 L16.05 26.05 16.9 23.15 Q18.6 18.25 20.45 18.5 21.15 19.0 21.4 20.0 M11.2 23.25 L11.75 22.3 11.2 23.25 8.05 23.4 7.3 24.0 Q7.5 24.7 8.25 25.0 L10.35 25.1 11.2 23.25 M7.2 23.25 L7.3 24.0 7.2 23.25" fill="#247564" fill-rule="evenodd" stroke="none"/>
      <path d="M6.7 38.9 Q8.0 39.75 10.2 40.1 L10.55 40.1 12.75 41.7 10.4 41.6 8.1 41.05 7.1 40.45 Q6.3 39.2 6.15 38.45 L6.7 38.9 M37.0 38.5 L36.55 38.95 34.2 38.75 32.3 38.3 37.0 38.5 M27.35 43.65 L26.85 43.85 26.6 43.95 24.0 43.0 22.25 42.15 27.35 43.65 M18.35 41.05 L18.3 40.75 18.45 40.45 Q18.8 40.0 20.0 39.9 L22.45 39.9 23.25 40.05 23.3 40.05 25.8 40.55 23.5 40.5 22.25 40.65 21.35 40.85 21.2 41.05 21.0 41.3 20.95 41.4 Q20.3 42.6 21.4 44.3 L21.65 44.8 21.25 44.35 19.25 42.3 18.45 41.3 18.4 41.1 18.35 41.05 M26.2 37.1 L29.65 36.55 Q31.7 36.35 33.8 36.6 L34.05 36.6 34.55 36.6 Q30.55 36.95 30.05 37.6 30.25 38.55 31.45 39.5 32.45 40.4 34.2 41.3 L32.2 40.45 30.8 39.8 27.3 37.85 26.2 37.1" fill="#d27e02" fill-rule="evenodd" stroke="none"/>
      <path d="M10.55 40.1 Q10.3 39.95 10.2 39.8 8.7 38.2 9.3 36.7 L9.45 36.35 9.4 36.75 Q9.35 37.55 10.0 38.4 L11.15 39.5 16.95 43.6 24.5 48.1 24.1 48.15 Q21.4 46.9 18.9 45.5 L16.2 43.95 12.75 41.7 10.55 40.1 M8.95 33.8 L7.9 33.0 Q7.05 31.8 7.95 30.55 L7.85 27.9 8.65 28.0 Q9.5 28.05 10.15 27.55 L8.55 27.25 Q8.0 27.05 7.4 26.65 5.0 25.05 5.5 22.95 6.35 25.6 8.25 26.25 L8.45 26.3 Q10.05 26.75 10.75 25.9 L11.75 24.85 Q12.4 23.1 13.1 22.0 L14.15 20.85 13.4 22.55 Q12.2 25.4 11.5 28.4 L11.4 29.0 Q11.3 29.45 11.65 29.8 12.4 31.95 16.7 30.95 L17.0 30.8 17.75 30.3 Q18.95 29.5 19.8 28.15 L20.3 27.35 Q21.65 24.9 21.55 22.05 L21.25 23.45 Q20.3 26.45 18.8 28.2 L17.3 29.45 Q16.5 30.0 15.55 30.2 L13.45 30.25 Q12.65 29.75 12.65 28.3 12.65 26.85 13.5 24.35 L13.9 23.4 Q16.1 18.25 19.45 13.9 22.0 11.4 23.8 12.6 L24.15 14.4 Q24.4 21.6 20.55 28.15 L19.3 30.1 18.15 31.0 15.4 32.8 12.95 33.6 9.4 33.9 8.95 33.8 M17.85 32.0 L17.8 32.5 Q17.55 33.75 15.75 34.8 L13.1 35.15 14.4 34.45 14.8 34.3 Q16.4 33.55 17.85 32.0 M40.6 36.75 L38.25 37.1 38.55 36.75 34.55 36.6 34.05 36.6 33.8 36.6 Q31.7 36.35 29.65 36.55 L26.2 37.1 Q25.65 36.7 25.9 36.25 26.85 35.2 31.55 35.5 L33.1 35.6 40.6 36.75 M39.1 43.75 Q39.65 44.15 39.1 44.25 34.15 43.85 31.85 42.75 L32.75 42.65 28.05 41.15 25.8 40.55 23.3 40.05 23.25 40.05 22.45 39.9 20.0 39.9 Q18.8 40.0 18.45 40.45 L18.3 40.75 18.35 41.05 18.15 40.25 Q17.95 39.25 18.7 38.75 L19.0 38.6 Q20.65 38.4 22.4 38.55 L25.2 39.0 Q27.35 39.5 29.6 40.55 35.3 43.2 39.1 43.75 M21.4 20.0 Q21.65 20.85 21.55 22.05 21.65 20.85 21.4 20.0 21.15 19.0 20.45 18.5 18.6 18.25 16.9 23.15 L16.05 26.05 15.7 26.7 Q15.25 27.7 15.55 28.25 15.8 28.65 16.35 28.8 L16.75 28.55 17.1 28.25 Q17.75 27.45 17.8 26.3 17.2 27.65 16.4 27.9 L16.3 27.9 16.35 27.75 Q17.6 23.15 19.5 20.45 20.6 18.9 21.4 20.0 M11.2 23.25 L10.35 25.1 8.25 25.0 Q7.5 24.7 7.3 24.0 L8.05 23.4 11.2 23.25" fill="#1e5151" fill-rule="evenodd" stroke="none"/>
      <path d="M38.25 37.1 L37.0 38.5 32.3 38.3 34.2 38.75 36.2 39.45 Q35.45 40.65 35.55 41.9 L34.2 41.3 Q32.45 40.4 31.45 39.5 30.25 38.55 30.05 37.6 30.55 36.95 34.55 36.6 L38.55 36.75 38.25 37.1 M31.85 42.75 Q29.45 42.95 27.35 43.65 L22.25 42.15 24.0 43.0 25.8 44.1 25.55 44.2 25.0 44.35 Q24.35 44.6 23.8 44.95 23.25 45.3 22.85 45.8 L22.65 45.6 21.65 44.8 21.4 44.3 Q20.3 42.6 20.95 41.4 L21.0 41.3 21.2 41.05 21.35 40.85 22.25 40.65 23.5 40.5 25.8 40.55 28.05 41.15 32.75 42.65 31.85 42.75" fill="#ffa004" fill-rule="evenodd" stroke="none"/>
      <path d="M6.7 38.9 Q8.0 39.75 10.2 40.1 L10.55 40.1 M10.8 34.65 L9.45 34.1 8.95 33.8 7.9 33.0 M7.4 26.65 L7.05 30.25 Q5.25 32.0 5.45 35.15 5.5 36.65 6.15 38.45 L6.7 38.9 M6.15 38.45 Q6.3 39.2 7.1 40.45 L8.1 41.05 10.4 41.6 12.75 41.7 10.55 40.1 M23.8 12.6 L24.15 14.4 Q24.4 21.6 20.55 28.15 L19.3 30.1 18.6 31.1 18.4 31.25 18.35 31.4 17.85 32.0 17.8 32.5 19.3 33.0 Q22.75 34.05 27.7 34.1 L33.1 34.65 37.8 35.45 39.2 35.85 Q40.9 36.4 40.6 36.75 L38.25 37.1 37.0 38.5 36.55 38.95 34.2 38.75 36.2 39.45 Q35.45 40.65 35.55 41.9 L39.1 43.75 Q39.65 44.15 39.1 44.25 34.15 43.85 31.85 42.75 29.45 42.95 27.35 43.65 L26.85 43.85 26.6 43.95 24.0 43.0 25.8 44.1 25.55 44.2 25.0 44.35 Q24.35 44.6 23.8 44.95 23.25 45.3 22.85 45.8 25.05 47.7 24.5 48.1 L24.1 48.15 Q21.4 46.9 18.9 45.5 L16.2 43.95 12.75 41.7 M23.8 12.6 Q23.35 11.15 22.1 11.05 19.35 11.5 16.65 16.35 L16.2 17.15 Q15.05 18.9 14.15 20.85 L13.4 22.55 Q12.2 25.4 11.5 28.4 L11.4 29.0 Q11.3 29.45 11.65 29.8 12.1 30.2 13.45 30.25 L15.55 30.2 Q16.5 30.0 17.3 29.45 L18.8 28.2 Q20.3 26.45 21.25 23.45 L21.55 22.05 Q21.65 20.85 21.4 20.0 M16.3 27.9 L16.4 27.9 Q17.2 27.65 17.8 26.3 M16.05 26.05 L16.9 23.15 Q18.6 18.25 20.45 18.5 21.15 19.0 21.4 20.0 M16.65 16.35 Q14.4 18.0 12.55 20.95 L11.75 22.3 11.2 23.25 10.35 25.1 8.25 25.0 Q7.5 24.7 7.3 24.0 L7.2 23.25 M5.5 22.95 L5.65 22.3 Q6.75 21.6 7.8 21.4 9.75 21.1 11.75 22.3 M5.5 22.95 Q5.0 25.05 7.4 26.65 M16.05 26.05 L15.9 27.0 Q15.8 27.95 16.3 27.9 M18.35 41.05 L18.3 40.75 18.45 40.45 Q18.8 40.0 20.0 39.9 L22.45 39.9 23.25 40.05 23.3 40.05 25.8 40.55 28.05 41.15 32.75 42.65 31.85 42.75 M17.85 32.0 Q16.4 33.55 14.8 34.3 L14.4 34.45 14.0 34.55 10.8 34.65 M15.75 34.8 Q17.55 33.75 17.8 32.5 M21.65 44.8 L21.25 44.35 19.25 42.3 18.45 41.3 18.4 41.1 M22.85 45.8 L22.65 45.6 21.65 44.8 M34.55 36.6 L38.55 36.75 38.25 37.1 M26.2 37.1 L29.65 36.55 Q31.7 36.35 33.8 36.6 L34.05 36.6 34.55 36.6 M34.2 41.3 L35.55 41.9 M26.2 37.1 Q25.65 36.7 25.9 36.25 M34.2 41.3 L32.2 40.45 30.8 39.8 27.3 37.85 26.2 37.1" fill="none" stroke="#000000" stroke-linecap="round" stroke-linejoin="round" stroke-opacity="0.3019608" stroke-width="0.30000000000000004"/>
      <path d="M9.6 38.25 L10.05 37.15 11.05 37.25 Q11.9 38.2 11.0 38.55 10.05 39.05 9.6 38.25 M19.8 14.3 L20.15 14.1 20.65 14.0 Q20.95 13.95 20.95 14.35 L20.8 14.9 20.4 15.05 19.95 15.0 19.7 14.65 19.8 14.3 M22.35 16.55 Q22.35 18.75 21.45 18.55 20.85 18.5 20.8 16.9 21.45 15.15 21.75 15.05 L22.35 16.55 M16.5 19.75 Q16.35 19.05 17.3 18.3 18.75 17.35 18.95 18.6 18.8 19.45 17.6 19.55 L16.5 19.75 M10.35 31.1 L8.4 31.35 Q8.05 30.75 9.0 29.05 9.75 28.3 10.55 29.35 10.8 31.05 10.35 31.1 M22.7 36.7 Q23.25 37.25 21.5 37.4 19.6 36.8 19.65 36.5 L22.7 36.7 M22.0 35.75 Q22.4 34.95 24.05 35.35 23.85 36.0 22.0 35.75 M12.1 39.75 Q13.85 40.3 13.5 41.15 13.1 41.5 12.3 40.25 L12.1 39.75 M12.6 39.15 L12.45 37.45 Q12.45 36.45 14.95 38.05 16.75 39.6 15.0 39.55 12.7 39.95 12.6 39.15 M11.6 32.5 L12.05 32.85 Q11.95 33.8 10.95 34.0 10.15 33.55 10.35 32.55 L11.6 32.5" fill="#ffde4f" fill-opacity="0.4117647" fill-rule="evenodd" stroke="none"/>
    </g>
  </defs>
</svg>
