<?xml version="1.0" encoding="UTF-8" standalone="no"?>
<svg xmlns:xlink="http://www.w3.org/1999/xlink" height="520.0px" width="520.0px" xmlns="http://www.w3.org/2000/svg">
  <g transform="matrix(10.0, 0.0, 0.0, 10.0, 0.0, 0.0)">
    <use height="52.0" transform="matrix(1.0, 0.0, 0.0, 1.0, 0.0, 0.0)" width="52.0" xlink:href="#shape0"/>
    <use height="383.85" transform="matrix(0.1259, 0.0, 0.0, 0.1259, 6.3934, 1.9)" width="312.1" xlink:href="#sprite0"/>
  </g>
  <defs>
    <g id="shape0" transform="matrix(1.0, 0.0, 0.0, 1.0, 0.0, 0.0)">
      <path d="M52.0 0.0 L52.0 52.0 0.0 52.0 0.0 0.0 52.0 0.0" fill="#52514f" fill-opacity="0.0" fill-rule="evenodd" stroke="none"/>
      <path d="M13.75 3.0 L13.55 2.85 13.8 3.0 Q13.55 1.9 13.25 1.85 12.65 1.85 12.05 7.05 12.0 9.35 12.1 11.4 L11.9 11.7 11.85 11.8 11.65 12.05 11.65 12.35 Q11.5 12.8 11.6 13.3 L11.6 13.35 11.6 13.4 11.65 13.65 11.75 13.95 12.35 16.0 11.25 16.65 10.4 17.55 Q9.95 18.4 10.9 19.2 L11.05 19.3 13.05 20.5 13.45 20.65 13.5 21.05 13.5 21.4 13.45 22.5 Q12.7 22.9 12.35 23.35 L12.3 23.4 12.1 23.8 12.1 24.05 12.1 24.8 11.0 25.5 10.6 25.6 Q10.1 25.55 9.4 26.15 8.45 26.95 7.7 28.4 7.0 29.75 6.9 30.95 L6.75 32.3 6.55 33.35 6.55 33.4 Q6.35 34.95 7.1 36.15 L6.95 36.65 6.9 37.1 Q6.85 37.8 7.3 38.4 L8.85 39.65 10.1 40.2 10.5 40.35 13.45 40.95 14.8 41.05 15.4 41.05 15.4 41.1 15.4 41.15 Q15.15 42.95 16.1 44.35 L15.9 44.95 15.85 45.5 Q15.8 46.25 16.3 46.95 16.85 47.75 18.15 48.45 L19.6 49.1 20.05 49.25 23.5 50.0 25.1 50.1 27.85 49.95 Q30.1 49.55 31.6 48.25 L31.9 48.0 33.75 46.3 34.6 45.3 Q37.4 43.9 39.3 44.1 L41.1 42.85 41.1 41.3 40.8 40.95 41.4 39.05 41.5 38.1 41.3 36.6 40.8 35.3 40.0 33.8 40.1 33.5 40.3 30.5 40.35 30.3 41.6 30.25 41.7 30.25 43.2 29.9 44.65 29.35 45.3 28.9 Q46.4 27.85 43.75 25.95 43.2 25.55 42.45 25.1 L42.35 25.05 41.1 24.35 Q41.7 21.0 42.55 17.95 L42.6 17.8 42.65 17.55 42.65 17.5 42.65 17.0 42.6 16.6 42.45 16.15 42.35 15.9 42.2 15.65 Q41.45 14.6 39.8 13.75 38.1 12.9 36.05 12.5 L35.9 11.8 34.95 7.45 Q34.45 5.95 34.1 5.9 33.4 5.9 33.0 10.2 L32.85 12.15 31.7 12.15 29.95 12.2 29.85 12.0 29.75 11.8 29.6 11.55 Q29.0 10.65 27.6 9.95 26.15 9.2 24.35 8.85 L24.25 8.3 23.45 4.55 Q23.05 3.25 22.75 3.25 22.15 3.2 21.8 6.9 L21.65 8.55 20.65 8.55 16.15 9.15 15.9 9.2 15.0 9.5 14.95 9.55 14.0 4.1 13.75 3.0 Z" fill="none" stroke="#000000" stroke-linecap="round" stroke-linejoin="round" stroke-opacity="0.3019608" stroke-width="1.0"/>
    </g>
    <g id="sprite0" transform="matrix(1.0, 0.0, 0.0, 1.0, 0.45, 0.0)">
      <use height="364.3" transform="matrix(0.8562, 0.0, -0.0055, 0.8562, 1.5703, 0.0199)" width="241.45" xlink:href="#sprite1"/>
      <use height="364.3" transform="matrix(1.0, 0.0, 0.0, 1.0, 70.2, 19.55)" width="241.45" xlink:href="#sprite1"/>
      <use height="20.95" transform="matrix(0.6554, 3.4743, -3.9252, 1.0115, 208.05, 116.85)" width="24.45" xlink:href="#sprite2"/>
      <use height="37.7" transform="matrix(0.2921, 3.4398, -3.4011, 0.465, 213.05, 193.3)" width="37.7" xlink:href="#sprite3"/>
    </g>
    <g id="sprite1" transform="matrix(1.0, 0.0, 0.0, 1.0, 6.8, 62.05)">
      <use height="364.3" transform="matrix(1.0, 0.0, 0.0, 1.0, -6.8, -62.05)" width="241.45" xlink:href="#shape1"/>
    </g>
    <g id="shape1" transform="matrix(1.0, 0.0, 0.0, 1.0, 6.8, 62.05)">
      <path d="M80.1 190.3 L81.2 137.9 185.15 169.35 Q191.65 176.35 195.6 183.65 198.4 188.85 199.8 194.25 201.4 200.2 201.45 206.3 201.45 210.1 200.85 214.05 197.75 207.7 189.7 221.95 182.7 236.95 159.7 216.8 L154.65 212.55 Q140.15 200.65 146.8 196.75 L128.6 195.85 Q97.4 194.2 82.5 190.85 L80.1 190.3" fill="#d8d8bd" fill-rule="evenodd" stroke="none"/>
      <path d="M200.85 214.05 Q199.55 221.35 196.1 229.0 L184.1 241.9 Q166.9 240.25 140.1 255.0 132.6 259.05 124.35 264.4 L78.7 256.5 79.6 214.0 80.1 190.3 82.5 190.85 Q97.4 194.2 128.6 195.85 L146.8 196.75 Q140.15 200.65 154.65 212.55 L159.7 216.8 Q182.7 236.95 189.7 221.95 197.75 207.7 200.85 214.05 M94.3 208.2 L79.6 214.0 94.3 208.2" fill="#95815e" fill-rule="evenodd" stroke="none"/>
      <path d="M198.35 233.05 L198.35 244.1 185.95 252.6 187.85 244.45 194.95 238.55 198.35 233.05 M27.4 293.85 Q21.35 291.6 16.05 288.75 5.8 283.2 1.25 276.85 -2.7 271.3 -2.5 265.15 -2.45 263.0 -1.75 260.8 L2.65 244.1 32.7 232.4 33.0 232.25 37.25 264.6 82.1 288.15 Q59.4 293.25 25.55 280.25 23.95 290.6 27.4 293.85" fill="#017068" fill-rule="evenodd" stroke="none"/>
      <path d="M196.1 229.0 L198.35 231.8 198.35 233.05 194.95 238.55 187.85 244.45 186.45 245.85 Q171.25 244.45 148.7 255.75 146.7 260.3 139.9 271.6 134.3 277.3 125.2 285.1 L123.0 287.0 Q110.95 297.2 92.9 300.4 83.0 302.05 71.3 301.7 L58.45 300.8 Q43.5 299.2 31.2 295.15 28.75 295.1 27.4 293.85 23.95 290.6 25.55 280.25 59.4 293.25 82.1 288.15 L37.25 264.6 33.0 232.25 33.55 232.05 79.6 214.0 78.7 256.5 124.35 264.4 Q132.6 259.05 140.1 255.0 166.9 240.25 184.1 241.9 L196.1 229.0 M31.2 295.15 L27.4 293.85 31.2 295.15" fill="#00342d" fill-rule="evenodd" stroke="none"/>
      <path d="M185.95 252.6 L184.05 253.9 Q169.05 252.55 146.75 263.55 144.5 266.85 139.9 271.6 146.7 260.3 148.7 255.75 171.25 244.45 186.45 245.85 L187.85 244.45 185.95 252.6" fill="#375e3d" fill-rule="evenodd" stroke="none"/>
      <path d="M80.1 190.3 L81.2 137.9 185.15 169.35 Q191.65 176.35 195.6 183.65 198.4 188.85 199.8 194.25 201.4 200.2 201.45 206.3 201.45 210.1 200.85 214.05 199.55 221.35 196.1 229.0 L198.35 231.8 198.35 233.05 198.35 244.1 185.95 252.6 184.05 253.9 Q169.05 252.55 146.75 263.55 144.5 266.85 139.9 271.6 134.3 277.3 125.2 285.1 L123.0 287.0 Q110.95 297.2 92.9 300.4 83.0 302.05 71.3 301.7 L58.45 300.8 Q43.5 299.2 31.2 295.15 M27.4 293.85 Q21.35 291.6 16.05 288.75 5.8 283.2 1.25 276.85 -2.7 271.3 -2.5 265.15 -2.45 263.0 -1.75 260.8 L2.65 244.1 32.7 232.4 M33.55 232.05 L79.6 214.0 80.1 190.3 M196.1 229.0 L184.1 241.9 Q166.9 240.25 140.1 255.0 132.6 259.05 124.35 264.4 L78.7 256.5 79.6 214.0 94.3 208.2 M27.4 293.85 L31.2 295.15" fill="none" stroke="#000000" stroke-linecap="round" stroke-linejoin="round" stroke-opacity="0.2" stroke-width="1.0"/>
      <path d="M28.75 83.7 Q30.85 79.6 36.55 75.4 34.75 79.55 34.1 84.45 L33.3 84.4 31.05 84.15 28.75 83.7 M50.65 81.35 Q52.1 76.85 54.7 73.2 L55.3 72.4 Q56.65 70.7 58.05 69.4 L58.7 68.85 59.8 68.0 58.6 72.35 57.85 74.0 Q55.3 78.7 50.65 81.35" fill="#d8d8bd" fill-rule="evenodd" stroke="none"/>
      <path d="M34.1 84.45 Q34.75 79.55 36.55 75.4 44.5 69.55 59.55 63.55 L60.35 64.0 59.8 68.0 58.7 68.85 58.05 69.4 Q56.65 70.7 55.3 72.4 L54.7 73.2 Q52.1 76.85 50.65 81.35 L50.5 81.4 Q48.05 82.8 45.3 83.6 L41.95 84.6 36.2 84.75 34.1 84.45" fill="#604e30" fill-rule="evenodd" stroke="none"/>
      <path d="M53.55 110.8 Q44.5 107.25 35.05 100.0 33.45 94.4 33.8 87.75 L34.1 84.45 36.2 84.75 41.95 84.6 45.3 83.6 Q48.05 82.8 50.5 81.4 L50.65 81.35 Q49.2 85.8 48.9 91.1 48.5 98.35 50.5 104.4 51.4 107.2 52.85 109.75 L52.95 109.9 53.15 110.25 53.55 110.8 M59.8 68.0 L60.35 64.0 63.0 66.15 Q61.35 66.85 59.8 68.0" fill="#392a17" fill-rule="evenodd" stroke="none"/>
      <path d="M28.75 83.7 L31.05 84.15 33.3 84.4 34.1 84.45 33.8 87.75 Q33.45 94.4 35.05 100.0 L33.75 98.95 Q24.8 91.45 28.75 83.7 M59.55 63.55 L60.4 63.2 62.7 62.3 64.65 65.6 Q65.9 68.15 66.8 71.4 69.7 81.75 68.85 98.85 68.45 105.9 67.45 114.2 63.45 113.9 59.35 112.8 L53.55 110.8 53.15 110.25 52.95 109.9 52.85 109.75 Q51.4 107.2 50.5 104.4 48.5 98.35 48.9 91.1 49.2 85.8 50.65 81.35 55.3 78.7 57.85 74.0 L58.6 72.35 59.8 68.0 Q61.35 66.85 63.0 66.15 L60.35 64.0 59.55 63.55 M60.35 64.0 L60.4 63.2 60.35 64.0" fill="#866d48" fill-rule="evenodd" stroke="none"/>
      <path d="M36.55 75.4 Q30.85 79.6 28.75 83.7 M36.55 75.4 Q44.5 69.55 59.55 63.55 L60.4 63.2 62.7 62.3 M67.45 114.2 Q63.45 113.9 59.35 112.8 L53.55 110.8 Q44.5 107.25 35.05 100.0 L33.75 98.95 Q24.8 91.45 28.75 83.7 M60.4 63.2 L60.35 64.0" fill="none" stroke="#000000" stroke-linecap="round" stroke-linejoin="round" stroke-opacity="0.2" stroke-width="1.0"/>
      <path d="M40.35 32.65 Q42.55 36.95 42.75 33.45 42.7 37.4 43.1 38.55 47.45 51.9 69.1 61.25 L69.75 61.55 Q89.15 69.65 113.95 71.1 119.7 71.45 125.75 71.4 L132.15 71.35 136.6 71.15 Q155.55 69.9 171.4 64.8 176.6 63.1 181.5 61.0 204.0 51.1 207.6 37.0 L207.75 36.55 207.9 36.25 209.15 32.0 210.2 35.4 210.25 35.45 210.7 38.9 210.6 42.85 210.55 43.15 210.25 44.95 210.05 45.55 209.9 46.1 Q208.55 50.95 204.95 55.35 L202.05 58.45 Q195.25 64.95 183.15 70.25 176.85 72.95 170.05 75.0 154.25 79.7 135.5 80.75 L132.35 80.9 125.75 80.95 104.65 79.9 Q88.0 78.05 73.9 73.05 L68.1 70.8 Q55.85 65.6 48.9 59.2 L43.7 53.3 Q41.7 50.35 40.65 47.15 L40.0 44.85 39.95 44.7 39.85 44.1 39.8 43.9 Q38.95 39.4 40.0 35.2 L40.35 32.65" fill="#00342d" fill-rule="evenodd" stroke="none"/>
      <path d="M209.15 32.0 L207.9 36.25 207.75 36.55 207.6 37.0 Q204.0 51.1 181.5 61.0 176.6 63.1 171.4 64.8 155.55 69.9 136.6 71.15 L132.15 71.35 125.75 71.4 Q119.7 71.45 113.95 71.1 89.15 69.65 69.75 61.55 L69.1 61.25 Q47.45 51.9 43.1 38.55 42.7 37.4 42.75 33.45 42.55 36.95 40.35 32.65 40.7 32.6 41.95 30.35 L42.7 29.0 Q47.65 20.75 60.55 13.85 69.2 9.2 79.4 6.1 L81.55 5.5 81.65 5.5 81.75 5.45 81.65 5.5 81.55 5.5 81.75 5.45 81.8 5.4 Q100.3 0.2 123.75 0.0 161.8 -0.35 187.85 12.8 201.15 19.6 206.9 27.9 L208.2 30.1 209.15 32.0 M43.7 53.3 L48.9 59.2 45.8 56.05 43.7 53.3 M178.25 35.5 L178.55 33.75 Q179.1 24.55 163.4 18.0 147.2 11.4 124.2 11.5 100.9 11.7 85.3 18.6 69.9 25.35 71.1 34.45 L71.3 35.7 Q72.05 39.1 75.35 42.15 79.55 46.05 88.1 49.35 103.7 55.1 125.25 55.1 146.6 54.9 162.1 48.85 170.5 45.5 174.7 41.55 177.45 38.65 178.25 35.5" fill="#017068" fill-rule="evenodd" stroke="none"/>
      <path d="M170.05 75.0 Q176.85 72.95 183.15 70.25 195.25 64.95 202.05 58.45 L204.95 55.35 Q208.55 50.95 209.9 46.1 L210.05 45.55 210.25 44.95 209.95 46.1 Q196.7 91.75 192.0 145.85 191.0 157.6 190.35 169.7 190.6 170.85 189.6 172.3 L187.0 168.8 186.7 168.5 Q176.85 154.75 183.0 127.35 184.8 103.65 166.45 94.25 164.35 96.25 170.05 75.0" fill="#c4bea1" fill-rule="evenodd" stroke="none"/>
      <path d="M178.25 35.5 Q177.45 38.65 174.7 41.55 170.5 45.5 162.1 48.85 146.6 54.9 125.25 55.1 103.7 55.1 88.1 49.35 79.55 46.05 75.35 42.15 72.05 39.1 71.3 35.7 L71.1 34.45 Q69.9 25.35 85.3 18.6 100.9 11.7 124.2 11.5 147.2 11.4 163.4 18.0 179.1 24.55 178.55 33.75 L178.25 35.5" fill="#001b17" fill-rule="evenodd" stroke="none"/>
      <path d="M40.0 44.85 L40.65 47.15 Q41.7 50.35 43.7 53.3 L45.8 56.05 48.9 59.2 Q55.85 65.6 68.1 70.8 L73.9 73.05 Q88.0 78.05 104.65 79.9 L125.75 80.95 132.35 80.9 135.5 80.75 Q154.25 79.7 170.05 75.0 164.35 96.25 166.45 94.25 184.8 103.65 183.0 127.35 176.85 154.75 186.7 168.5 L187.0 168.8 189.6 172.3 Q195.0 180.15 196.45 186.2 197.35 186.55 196.75 187.8 191.15 185.1 188.45 191.55 185.75 198.0 161.9 178.05 L160.85 176.65 160.7 176.45 160.65 176.3 160.65 176.35 160.45 176.9 160.45 176.95 161.45 178.95 163.95 183.7 159.9 178.4 159.5 179.4 159.85 176.7 159.75 176.6 159.8 176.7 159.8 176.8 159.75 176.65 Q152.65 162.65 144.65 153.3 145.15 173.45 129.2 158.5 113.05 143.65 91.3 136.1 72.35 131.35 53.4 143.0 44.5 148.4 47.15 137.7 L47.4 137.4 Q50.4 133.1 57.3 129.4 57.95 124.8 57.9 119.45 L57.9 119.25 57.75 115.9 Q56.85 102.9 51.8 85.9 L41.25 50.2 40.45 47.45 40.0 44.85 M196.45 186.2 L196.75 187.8 196.45 186.2 M57.3 129.4 Q82.25 115.7 111.0 129.75 L111.9 130.2 Q122.15 135.35 132.9 144.05 122.15 135.35 111.9 130.2 L111.0 129.75 Q82.25 115.7 57.3 129.4 M160.0 178.05 Q160.95 178.8 160.15 177.65 L160.0 178.05" fill="#d8d8bd" fill-rule="evenodd" stroke="none"/>
      <path d="M196.75 187.8 Q197.75 194.3 193.7 198.5 190.15 202.15 182.8 204.05 L182.6 204.0 Q179.9 204.25 166.85 185.6 L161.9 178.05 Q185.75 198.0 188.45 191.55 191.15 185.1 196.75 187.8 M159.85 176.7 L159.8 176.7 159.75 176.6 159.85 176.7 M159.75 176.65 L159.4 176.55 150.25 172.65 Q143.25 169.7 160.3 246.25 153.35 241.1 134.4 260.3 L133.55 261.15 133.6 260.3 Q135.4 191.95 133.25 192.05 L127.55 192.2 112.15 191.35 Q95.75 189.45 82.5 183.35 62.8 174.15 54.65 170.7 L53.7 170.2 Q50.25 167.95 50.65 161.4 44.7 158.95 44.95 144.05 45.0 142.85 45.3 141.75 45.85 139.65 47.15 137.7 44.5 148.4 53.4 143.0 72.35 131.35 91.3 136.1 113.05 143.65 129.2 158.5 145.15 173.45 144.65 153.3 152.65 162.65 159.75 176.65 M50.65 161.4 L53.7 170.2 50.65 161.4" fill="#95815e" fill-rule="evenodd" stroke="none"/>
      <path d="M209.15 32.0 L208.2 30.1 206.9 27.9 Q201.15 19.6 187.85 12.8 161.8 -0.35 123.75 0.0 100.3 0.2 81.8 5.4 L81.75 5.45 81.65 5.5 81.55 5.5 79.4 6.1 Q69.2 9.2 60.55 13.85 47.65 20.75 42.7 29.0 L41.95 30.35 Q40.7 32.6 40.35 32.65 L40.0 35.2 Q38.95 39.4 39.8 43.9 L39.85 44.1 39.95 44.7 40.0 44.85 40.65 47.15 Q41.7 50.35 43.7 53.3 M48.9 59.2 Q55.85 65.6 68.1 70.8 L73.9 73.05 Q88.0 78.05 104.65 79.9 L125.75 80.95 132.35 80.9 135.5 80.75 Q154.25 79.7 170.05 75.0 176.85 72.95 183.15 70.25 195.25 64.95 202.05 58.45 L204.95 55.35 Q208.55 50.95 209.9 46.1 L210.05 45.55 210.25 44.95 210.55 43.15 210.6 42.85 210.7 38.9 210.25 35.45 210.2 35.4 209.15 32.0 M210.25 44.95 L209.95 46.1 Q196.7 91.75 192.0 145.85 191.0 157.6 190.35 169.7 M189.6 172.3 Q195.0 180.15 196.45 186.2 197.35 186.55 196.75 187.8 197.75 194.3 193.7 198.5 190.15 202.15 182.8 204.05 M50.65 161.4 Q44.7 158.95 44.95 144.05 45.0 142.85 45.3 141.75 45.85 139.65 47.15 137.7 L47.4 137.4 Q50.4 133.1 57.3 129.4 57.95 124.8 57.9 119.45 L57.9 119.25 57.75 115.9 Q56.85 102.9 51.8 85.9 L41.25 50.2 40.45 47.45 40.0 44.85 M178.25 35.5 Q177.45 38.65 174.7 41.55 170.5 45.5 162.1 48.85 146.6 54.9 125.25 55.1 103.7 55.1 88.1 49.35 79.55 46.05 75.35 42.15 72.05 39.1 71.3 35.7 L71.1 34.45 Q69.9 25.35 85.3 18.6 100.9 11.7 124.2 11.5 147.2 11.4 163.4 18.0 179.1 24.55 178.55 33.75 L178.25 35.5 M186.7 168.5 L187.0 168.8 189.6 172.3 M196.75 187.8 L196.45 186.2 M81.55 5.5 L81.75 5.45 M48.9 59.2 L45.8 56.05 43.7 53.3 M53.7 170.2 L50.65 161.4 M132.9 144.05 Q122.15 135.35 111.9 130.2 L111.0 129.75 Q82.25 115.7 57.3 129.4 M81.55 5.5 Q80.35 5.25 79.4 6.1" fill="none" stroke="#000000" stroke-linecap="round" stroke-linejoin="round" stroke-opacity="0.2509804" stroke-width="1.0"/>
      <path d="M171.6 60.25 Q184.9 56.85 189.95 52.55 195.0 48.2 188.3 48.3 181.65 48.35 178.15 50.15 174.6 52.05 166.45 57.85 158.3 63.65 171.6 60.25 M204.05 40.85 L203.95 40.1 Q193.65 34.15 185.35 42.75 L185.45 43.25 Q195.65 47.25 204.05 40.85" fill="#42d9d9" fill-rule="evenodd" stroke="none"/>
      <path d="M-5.85 230.25 Q-2.55 206.5 10.35 185.85 37.75 142.15 74.85 144.3 111.9 146.45 141.6 183.0 148.05 195.55 148.9 203.3 149.75 211.0 149.4 220.85 149.05 230.65 147.3 237.95 146.5 241.2 144.95 244.55 138.5 253.45 127.05 263.25 105.75 281.4 72.1 279.15 38.5 276.85 14.8 261.75 -5.0 249.05 -5.85 230.25" fill="#d8d8bd" fill-rule="evenodd" stroke="none"/>
      <path d="M144.95 244.55 Q139.15 257.0 122.85 271.3 102.15 289.45 69.5 287.2 36.85 284.9 13.85 269.8 -9.15 254.65 -5.9 230.7 L-5.85 230.25 Q-5.0 249.05 14.8 261.75 38.5 276.85 72.1 279.15 105.75 281.4 127.05 263.25 138.5 253.45 144.95 244.55" fill="#95815e" fill-rule="evenodd" stroke="none"/>
      <path d="M-5.85 230.25 Q-2.55 206.5 10.35 185.85 37.75 142.15 74.85 144.3 111.9 146.45 141.6 183.0 148.05 195.55 148.9 203.3 M147.3 237.95 Q146.5 241.2 144.95 244.55 139.15 257.0 122.85 271.3 102.15 289.45 69.5 287.2 36.85 284.9 13.85 269.8 -9.15 254.65 -5.9 230.7 L-5.85 230.25 Z" fill="none" stroke="#000000" stroke-linecap="round" stroke-linejoin="round" stroke-opacity="0.2" stroke-width="1.0"/>
      <path d="M57.4 -52.75 Q54.55 -53.15 54.65 -31.05 L82.2 76.6 82.25 76.6 82.3 76.8 82.45 78.2 82.45 78.4 Q82.85 83.5 81.25 87.05 L79.55 89.75 79.4 89.9 78.45 90.9 74.6 92.4 76.3 92.5 Q74.0 93.85 70.9 94.6 70.8 94.4 71.15 93.75 61.75 97.3 66.0 95.0 L66.25 94.9 59.6 96.7 55.1 97.2 Q42.95 54.2 43.45 -13.8 48.85 -62.35 54.55 -62.05 57.15 -61.9 59.8 -51.55 58.4 -52.95 57.4 -52.75 M127.25 77.95 L133.9 -15.15 Q137.3 -49.65 142.6 -49.3 145.65 -49.2 149.3 -37.3 146.0 -45.95 144.4 -19.0 142.8 7.9 154.75 107.7 L127.1 81.0 127.25 77.95 127.6 77.95 127.25 77.95 M127.0 82.4 Q112.45 85.25 97.4 81.85 91.45 80.5 85.45 78.2 L83.3 77.35 83.15 77.3 83.05 77.25 82.7 77.1 82.85 76.8 82.75 76.6 83.7 76.6 85.45 76.6 85.45 77.1 97.15 79.7 Q111.45 82.3 127.0 82.4 M83.7 76.6 L85.45 77.1 83.7 76.6" fill="#d8d8bd" fill-rule="evenodd" stroke="none"/>
      <path d="M149.3 -37.3 Q152.9 -25.6 157.15 -2.45 L181.15 134.0 Q162.6 149.6 154.75 107.7 142.8 7.9 144.4 -19.0 146.0 -45.95 149.3 -37.3" fill="#866d48" fill-rule="evenodd" stroke="none"/>
      <path d="M57.4 -52.75 Q58.25 -52.65 59.35 -51.55 60.45 -47.3 61.55 -41.25 L81.15 66.25 81.75 72.0 82.2 76.3 82.25 76.6 82.2 76.6 54.65 -31.05 Q54.55 -53.15 57.4 -52.75 M82.2 72.15 L95.85 75.1 Q110.45 77.6 127.25 77.95 L127.1 81.0 127.0 80.9 127.0 82.4 Q111.45 82.3 97.15 79.7 L85.45 77.1 85.45 76.6 83.7 76.6 82.75 76.6 82.65 76.3 82.2 72.15 M83.7 76.6 L82.65 76.3 83.7 76.6" fill="#95815e" fill-rule="evenodd" stroke="none"/>
      <path d="M55.1 97.2 Q42.95 54.2 43.45 -13.8 48.85 -62.35 54.55 -62.05 57.15 -61.9 59.8 -51.55 60.9 -47.3 62.0 -41.25 L81.6 66.25 82.2 72.15 95.85 75.1 Q110.45 77.6 127.25 77.95 L133.9 -15.15 Q137.3 -49.65 142.6 -49.3 145.65 -49.2 149.3 -37.3 152.9 -25.6 157.15 -2.45 L181.15 134.0 M127.1 81.0 L127.0 82.4 127.0 80.9 M82.7 77.1 L82.65 76.3 82.2 72.15 81.75 72.0 M85.45 77.1 L97.15 79.7 Q111.45 82.3 127.0 82.4 M127.1 81.0 L127.25 77.95 127.6 77.95 M85.45 77.1 L83.7 76.6 M82.85 76.8 L82.7 77.1 M82.65 76.3 L83.7 76.6" fill="none" stroke="#000000" stroke-linecap="round" stroke-linejoin="round" stroke-opacity="0.2" stroke-width="0.05"/>
      <path d="M208.15 102.6 L207.5 103.2 204.75 106.3 Q198.95 114.15 198.35 125.3 L198.35 126.05 185.45 125.5 179.65 124.9 Q177.35 95.65 190.85 93.15 200.6 98.1 208.15 102.6 M213.5 127.55 Q214.1 117.2 219.25 109.75 240.3 124.75 231.6 133.45 229.25 132.05 226.75 131.05 221.2 128.85 215.35 127.85 L213.5 127.55" fill="#d8d8bd" fill-rule="evenodd" stroke="none"/>
      <path d="M179.65 124.9 L185.45 125.5 198.35 126.05 Q197.9 136.3 202.3 143.8 L202.4 143.9 192.45 144.5 Q179.95 143.3 179.65 124.9 M213.5 127.55 L215.35 127.85 Q221.2 128.85 226.75 131.05 229.25 132.05 231.6 133.45 229.75 135.3 226.5 136.85 220.7 139.4 215.05 141.15 213.05 135.2 213.45 127.9 L213.5 127.55" fill="#866d48" fill-rule="evenodd" stroke="none"/>
      <path d="M198.35 126.05 L198.35 125.3 Q198.95 114.15 204.75 106.3 L207.5 103.2 208.15 102.6 209.15 103.2 219.25 109.75 Q214.1 117.2 213.5 127.55 L206.15 126.6 198.35 126.05" fill="#604e30" fill-rule="evenodd" stroke="none"/>
      <path d="M198.35 126.05 L206.15 126.6 213.5 127.55 213.45 127.9 Q213.05 135.2 215.05 141.15 208.95 142.95 203.05 143.8 L202.4 143.9 202.3 143.8 Q197.9 136.3 198.35 126.05" fill="#392a17" fill-rule="evenodd" stroke="none"/>
      <path d="M208.15 102.6 Q200.6 98.1 190.85 93.15 M219.25 109.75 L209.15 103.2 208.15 102.6 M215.05 141.15 Q220.7 139.4 226.5 136.85 229.75 135.3 231.6 133.45 240.3 124.75 219.25 109.75 M215.05 141.15 Q208.95 142.95 203.05 143.8 L202.4 143.9 192.45 144.5" fill="none" stroke="#000000" stroke-linecap="round" stroke-linejoin="round" stroke-opacity="0.2" stroke-width="1.0"/>
      <path d="M57.75 211.45 Q59.1 206.65 61.45 201.85 69.55 185.6 85.55 179.7 101.55 173.95 115.95 182.05 130.35 190.15 134.75 207.55 139.2 224.85 131.05 241.2 128.6 246.0 125.55 250.0 101.0 265.15 79.1 253.85 52.3 238.45 57.75 211.45" fill="#d8d8bd" fill-rule="evenodd" stroke="none"/>
      <path d="M125.55 250.0 Q118.2 259.25 107.0 263.3 91.0 269.1 76.55 261.0 62.15 252.8 57.75 235.5 54.65 223.2 57.75 211.45 52.3 238.45 79.1 253.85 101.0 265.15 125.55 250.0" fill="#978361" fill-opacity="0.5019608" fill-rule="evenodd" stroke="none"/>
      <path d="M57.75 211.45 Q59.1 206.65 61.45 201.85 69.55 185.6 85.55 179.7 101.55 173.95 115.95 182.05 130.35 190.15 134.75 207.55 139.2 224.85 131.05 241.2 128.6 246.0 125.55 250.0" fill="none" stroke="#000000" stroke-linecap="round" stroke-linejoin="round" stroke-opacity="0.2" stroke-width="1.0"/>
      <path d="M110.4 184.45 Q122.9 191.5 126.75 206.5 130.55 221.5 123.55 235.65 116.5 249.85 102.65 254.8 88.75 259.85 76.3 252.8 63.85 245.75 59.95 230.7 56.15 215.75 63.2 201.6 70.25 187.45 84.1 182.4 97.9 177.4 110.4 184.45" fill="#262623" fill-rule="evenodd" stroke="none"/>
      <path d="M110.4 184.45 Q122.9 191.5 126.75 206.5 130.55 221.5 123.55 235.65 116.5 249.85 102.65 254.8 88.75 259.85 76.3 252.8 63.85 245.75 59.95 230.7 56.15 215.75 63.2 201.6 70.25 187.45 84.1 182.4 97.9 177.4 110.4 184.45 Z" fill="none" stroke="#000000" stroke-linecap="round" stroke-linejoin="round" stroke-opacity="0.2" stroke-width="1.0"/>
      <path d="M-1.8 203.55 Q1.8 189.65 10.65 176.9 20.65 162.0 30.9 158.25 33.8 156.95 36.4 157.2 41.95 157.35 44.45 164.3 45.4 167.1 45.85 171.05 46.1 178.6 43.05 189.15 39.95 198.95 34.95 207.8 L34.25 208.9 31.75 212.9 Q23.1 224.95 9.75 221.9 L7.6 221.7 -1.8 203.55" fill="#d8d8bd" fill-rule="evenodd" stroke="none"/>
      <path d="M31.75 212.9 L29.25 216.6 Q20.1 228.5 11.45 232.1 8.6 233.1 6.45 233.35 1.2 233.55 -1.55 228.75 -3.0 226.3 -3.55 223.3 -5.0 216.7 -2.6 206.8 L-1.8 203.55 7.6 221.7 9.75 221.9 Q23.1 224.95 31.75 212.9" fill="#b7ae8f" fill-rule="evenodd" stroke="none"/>
      <path d="M-1.8 203.55 Q1.8 189.65 10.65 176.9 20.65 162.0 30.9 158.25 33.8 156.95 36.4 157.2 41.95 157.35 44.45 164.3 45.4 167.1 45.85 171.05 46.1 178.6 43.05 189.15 39.95 198.95 34.95 207.8 L34.25 208.9 31.75 212.9" fill="none" stroke="#000000" stroke-linecap="round" stroke-linejoin="round" stroke-opacity="0.2" stroke-width="1.0"/>
      <path d="M20.2 163.15 Q29.0 155.8 34.75 158.9 40.45 162.05 39.75 173.9 39.05 185.65 32.3 199.25 25.55 212.8 16.65 220.15 7.8 227.5 2.1 224.35 -3.65 221.25 -2.9 209.4 -2.15 197.65 4.6 184.1 11.35 170.5 20.2 163.15" fill="#262623" fill-rule="evenodd" stroke="none"/>
      <path d="M20.2 163.15 Q29.0 155.8 34.75 158.9 40.45 162.05 39.75 173.9 39.05 185.65 32.3 199.25 25.55 212.8 16.65 220.15 7.8 227.5 2.1 224.35 -3.65 221.25 -2.9 209.4 -2.15 197.65 4.6 184.1 11.35 170.5 20.2 163.15 Z" fill="none" stroke="#000000" stroke-linecap="round" stroke-linejoin="round" stroke-opacity="0.2" stroke-width="1.0"/>
      <path d="M102.35 187.15 Q107.75 185.0 112.45 187.85 117.2 190.75 118.55 196.95 119.85 203.25 117.0 209.2 114.15 215.15 108.8 217.3 103.4 219.55 98.65 216.65 93.95 213.8 92.6 207.5 91.25 201.25 94.1 195.3 96.95 189.35 102.35 187.15" fill="#5f5f5d" fill-rule="evenodd" stroke="none"/>
      <path d="M88.15 224.75 Q93.5 222.6 97.5 225.0 101.5 227.45 101.85 233.1 102.15 238.7 98.55 244.2 95.0 249.7 89.6 251.9 84.2 254.05 80.2 251.6 76.2 249.2 75.9 243.55 75.6 237.95 79.15 232.45 82.75 226.95 88.15 224.75" fill="#5f5f5d" fill-rule="evenodd" stroke="none"/>
      <path d="M84.0 190.7 Q91.85 185.9 97.65 189.45 103.5 192.95 104.0 202.85 104.5 212.8 99.35 223.25 94.25 233.7 86.45 238.6 78.65 243.5 72.8 240.0 67.0 236.45 66.45 226.45 66.0 216.55 71.1 206.1 76.25 195.65 84.0 190.7" fill="#d9d9d9" fill-rule="evenodd" stroke="none"/>
      <path d="M28.1 164.0 Q32.4 161.1 35.75 163.1 39.1 165.1 39.6 170.85 40.05 176.65 37.35 182.85 34.6 189.05 30.35 192.05 26.05 195.0 22.7 193.0 19.35 191.0 18.85 185.2 18.4 179.4 21.15 173.2 23.85 167.0 28.1 164.0" fill="#5f5f5d" fill-rule="evenodd" stroke="none"/>
      <path d="M22.1 196.0 Q24.6 198.4 23.95 204.05 23.4 209.6 19.9 215.15 16.5 220.65 12.2 222.85 8.0 225.05 5.45 222.7 2.95 220.3 3.6 214.65 4.2 209.0 7.65 203.55 11.1 198.0 15.3 195.8 19.55 193.65 22.1 196.0" fill="#5f5f5d" fill-rule="evenodd" stroke="none"/>
      <path d="M26.5 170.15 Q31.35 164.7 34.1 166.25 36.9 167.85 36.05 175.6 35.2 183.35 31.15 192.75 27.15 202.15 22.3 207.65 17.45 213.2 14.65 211.6 11.9 210.05 12.75 202.2 13.6 194.45 17.6 185.05 21.65 175.65 26.5 170.15" fill="#d9d9d9" fill-rule="evenodd" stroke="none"/>
    </g>
    <g id="sprite2" transform="matrix(1.0, 0.0, 0.0, 1.0, 0.0, 0.0)">
      <use height="20.95" transform="matrix(1.0, 0.0, 0.0, 1.0, 0.0, 0.0)" width="24.45" xlink:href="#shape2"/>
    </g>
    <g id="shape2" transform="matrix(1.0, 0.0, 0.0, 1.0, 0.0, 0.0)">
      <path d="M15.1 9.15 Q16.95 9.5 18.1 11.15 L18.2 11.35 20.15 11.25 18.75 12.55 Q19.05 13.8 18.8 15.05 18.5 16.35 17.65 17.3 L19.1 20.95 16.55 18.25 Q14.8 19.3 12.8 18.85 10.8 18.35 9.75 16.65 9.05 15.5 8.95 14.3 7.75 12.4 4.95 11.55 L9.7 11.4 Q10.3 10.4 11.35 9.75 13.1 8.75 15.1 9.15 M14.85 11.4 Q13.8 11.15 12.9 11.65 12.1 12.2 11.8 13.2 11.6 14.2 12.1 15.1 12.65 15.9 13.65 16.2 14.65 16.4 15.55 15.9 16.4 15.3 16.6 14.35 16.85 13.3 16.25 12.45 15.8 11.6 14.85 11.4" fill="#ffffff" fill-opacity="0.1764706" fill-rule="evenodd" stroke="none"/>
      <path d="M14.85 11.4 Q15.8 11.6 16.25 12.45 16.85 13.3 16.6 14.35 16.4 15.3 15.55 15.9 14.65 16.4 13.65 16.2 12.65 15.9 12.1 15.1 11.6 14.2 11.8 13.2 12.1 12.2 12.9 11.65 13.8 11.15 14.85 11.4" fill="#ffffff" fill-opacity="0.5882353" fill-rule="evenodd" stroke="none"/>
      <path d="M14.25 12.25 L24.45 5.95 15.4 13.55 18.1 17.55 13.35 14.65 7.05 18.5 12.75 13.55 0.0 0.0 14.25 12.25" fill="#ffffff" fill-opacity="0.5882353" fill-rule="evenodd" stroke="none"/>
    </g>
    <g id="sprite3" transform="matrix(1.0, 0.0, 0.0, 1.0, 0.0, 0.0)">
      <use height="37.7" transform="matrix(1.0, 0.0, 0.0, 1.0, 0.0, 0.0)" width="37.7" xlink:href="#shape3"/>
    </g>
    <g id="shape3" transform="matrix(1.0, 0.0, 0.0, 1.0, 0.0, 0.0)">
      <path d="M32.15 32.15 Q26.65 37.7 18.85 37.7 11.05 37.7 5.5 32.15 0.0 26.65 0.0 18.85 0.0 11.05 5.5 5.5 11.05 0.0 18.85 0.0 26.65 0.0 32.15 5.5 37.7 11.05 37.7 18.85 37.7 26.65 32.15 32.15" fill="url(#gradient0)" fill-rule="evenodd" stroke="none"/>
    </g>
    <radialGradient cx="0" cy="0" gradientTransform="matrix(0.0244, 0.0, 0.0, 0.0244, 18.85, 18.85)" gradientUnits="userSpaceOnUse" id="gradient0" r="819.2" spreadMethod="pad">
      <stop offset="0.0" stop-color="#ffffcc"/>
      <stop offset="1.0" stop-color="#ffffcc" stop-opacity="0.0"/>
    </radialGradient>
  </defs>
</svg>
