<?xml version="1.0" encoding="UTF-8" standalone="no"?>
<svg xmlns:xlink="http://www.w3.org/1999/xlink" height="520.0px" width="520.0px" xmlns="http://www.w3.org/2000/svg">
  <g transform="matrix(10.0, 0.0, 0.0, 10.0, 0.0, 0.0)">
    <use height="52.0" transform="matrix(1.0, 0.0, 0.0, 1.0, 0.0, 0.0)" width="52.0" xlink:href="#shape0"/>
    <use height="31.25" transform="matrix(0.8857, 0.0, 0.0, 0.8857, 5.6, 4.2)" width="36.6" xlink:href="#sprite0"/>
    <use height="31.5" transform="matrix(1.0, 0.0, 0.0, 1.0, 9.45, 16.3)" width="37.0" xlink:href="#shape2"/>
  </g>
  <defs>
    <g id="shape0" transform="matrix(1.0, 0.0, 0.0, 1.0, 0.0, 0.0)">
      <path d="M52.0 0.0 L52.0 52.0 0.0 52.0 0.0 0.0 52.0 0.0" fill="#52514f" fill-opacity="0.0" fill-rule="evenodd" stroke="none"/>
      <path d="M23.75 7.5 L22.7 6.5 Q20.3 4.8 17.3 4.95 14.95 5.1 12.3 6.35 L12.25 6.5 11.15 8.8 Q10.9 8.45 10.5 8.55 L10.2 8.75 Q9.85 9.0 9.85 9.25 L10.05 9.55 10.7 9.75 10.45 10.2 10.85 11.65 Q9.6 13.5 8.6 16.8 L7.5 18.5 7.4 20.2 7.3 20.55 Q6.8 23.05 6.95 25.1 L6.4 25.55 6.4 26.55 Q6.55 29.7 9.25 30.95 L11.75 31.6 11.9 31.65 11.85 31.8 11.15 32.9 Q10.8 36.55 10.9 39.0 L10.9 39.05 10.95 40.2 10.45 40.55 10.45 41.65 Q10.65 45.3 13.75 46.75 L16.6 47.5 Q19.0 48.0 21.75 47.6 25.05 47.15 28.7 45.35 L31.1 44.15 31.1 42.8 30.55 42.4 Q31.05 40.1 32.55 37.65 L34.25 37.65 34.55 36.4 34.55 36.35 35.15 35.7 35.5 35.3 36.0 34.55 36.7 33.25 36.85 33.1 38.25 39.75 40.25 40.65 42.25 39.55 Q42.35 33.85 44.2 27.65 46.15 27.05 46.45 26.1 L46.4 21.6 Q44.2 15.5 35.75 16.45 L35.45 16.55 36.05 14.2 Q37.8 13.65 38.05 12.8 L38.0 8.85 Q36.05 3.5 28.7 4.35 L26.7 4.85 24.0 7.35 23.75 7.5 Z" fill="none" stroke="#000000" stroke-linecap="round" stroke-linejoin="round" stroke-opacity="0.2" stroke-width="1.0"/>
    </g>
    <g id="sprite0" transform="matrix(1.0, 0.0, 0.0, 1.0, 0.0, 0.0)">
      <use height="31.25" transform="matrix(1.0, 0.0, 0.0, 1.0, 0.0, 0.0)" width="36.6" xlink:href="#shape1"/>
    </g>
    <g id="shape1" transform="matrix(1.0, 0.0, 0.0, 1.0, 0.0, 0.0)">
      <path d="M12.0 31.05 Q9.3 31.45 6.9 30.95 L4.1 30.2 Q3.15 28.7 4.1 27.15 L12.0 28.55 Q13.15 30.2 12.0 31.05 M0.85 25.2 L0.85 24.1 2.45 22.8 3.35 25.2 Q1.9 23.85 0.85 25.2" fill="#76726e" fill-rule="evenodd" stroke="none"/>
      <path d="M18.9 28.85 Q15.25 30.6 12.0 31.05 13.15 30.2 12.0 28.55 L18.9 25.9 Q20.0 27.95 18.9 28.85" fill="#3a3937" fill-rule="evenodd" stroke="none"/>
      <path d="M18.9 25.9 L20.1 25.45 21.25 26.3 21.25 27.65 18.9 28.85 Q20.0 27.95 18.9 25.9" fill="#1f1e1d" fill-rule="evenodd" stroke="none"/>
      <path d="M4.1 30.2 Q1.05 28.8 0.85 25.2 1.9 23.85 3.35 25.2 L4.1 27.15 Q3.15 28.7 4.1 30.2" fill="#8f8983" fill-rule="evenodd" stroke="none"/>
      <path d="M18.9 25.9 L20.1 25.45 21.25 26.3 21.25 27.65 18.9 28.85 Q15.25 30.6 12.0 31.05 9.3 31.45 6.9 30.95 L4.1 30.2 Q1.05 28.8 0.85 25.2 L0.85 24.1 2.45 22.8 3.35 25.2 4.1 27.15 12.0 28.55 18.9 25.9 Z" fill="none" stroke="#000000" stroke-linecap="round" stroke-linejoin="round" stroke-opacity="0.2509804" stroke-width="0.05"/>
      <path d="M35.1 6.1 Q35.05 4.75 33.7 3.25 30.8 0.6 24.95 1.8 L22.1 4.45 15.65 7.6 11.9 12.4 9.75 13.3 14.25 6.95 20.75 3.55 23.8 0.7 26.05 0.15 Q34.35 -0.8 36.55 5.25 35.45 4.8 35.1 6.1" fill="#565552" fill-rule="evenodd" stroke="none"/>
      <path d="M27.0 12.5 L31.5 9.5 32.5 7.3 Q32.0 2.85 25.9 3.6 L23.55 5.65 Q21.05 6.8 15.65 7.95 L15.65 7.6 22.1 4.45 24.95 1.8 Q30.8 0.6 33.7 3.25 35.05 4.75 35.1 6.1 L35.2 8.7 27.0 12.5 M9.75 13.3 L11.9 12.4 20.65 18.2 21.55 17.6 21.05 18.15 20.9 18.2 20.7 18.2 20.9 18.35 20.4 18.8 20.15 19.8 12.85 22.65 Q3.95 23.9 3.0 18.05 L2.95 17.7 2.95 17.65 3.95 16.45 9.75 13.3 M20.65 18.2 L20.7 18.2 20.65 18.2" fill="#3b312e" fill-rule="evenodd" stroke="none"/>
      <path d="M15.65 7.95 Q21.05 6.8 23.55 5.65 L25.9 3.6 Q32.0 2.85 32.5 7.3 L31.5 9.5 27.0 12.5 25.65 13.1 25.25 13.55 25.0 13.8 15.65 7.95 25.0 13.8 25.25 13.55 21.55 17.6 20.65 18.2 11.9 12.4 15.65 7.6 15.65 7.95 M20.9 18.35 L20.7 18.2 20.9 18.2 20.9 18.35" fill="#281f16" fill-rule="evenodd" stroke="none"/>
      <path d="M28.95 13.8 L29.15 13.65 29.15 13.7 28.95 13.8 29.15 13.7 30.55 24.05 30.45 24.1 28.5 23.2 27.1 16.65 24.35 18.95 23.5 18.95 20.9 21.9 20.9 21.3 21.45 20.85 21.7 19.8 21.8 19.75 23.05 18.35 21.8 19.75 21.7 19.8 21.75 19.7 23.05 18.35 23.2 18.2 23.35 18.0 23.65 17.65 25.5 15.55 25.6 15.4 25.5 15.55 25.5 15.45 25.6 15.4 28.15 14.2 28.95 13.8" fill="#1f1e1d" fill-rule="evenodd" stroke="none"/>
      <path d="M25.25 13.55 L25.65 13.1 27.0 12.5 35.2 8.7 35.1 6.1 Q35.45 4.8 36.55 5.25 L36.6 9.7 Q36.3 10.65 34.35 11.25 L29.15 13.7 29.15 13.65 28.95 13.8 28.15 14.2 25.7 15.3 25.6 15.4 25.5 15.45 25.5 15.55 23.65 17.65 23.35 18.0 23.2 18.2 23.05 18.35 21.75 19.7 21.7 19.8 21.45 20.85 20.9 21.3 12.6 24.4 Q3.4 25.65 1.9 18.45 1.75 17.8 2.95 17.65 L2.9 17.75 3.0 18.05 Q3.95 23.9 12.85 22.65 L20.15 19.8 20.4 18.8 20.9 18.35 20.9 18.2 21.05 18.15 21.55 17.6 25.25 13.55" fill="#76726e" fill-rule="evenodd" stroke="none"/>
      <path d="M29.15 13.7 L34.35 11.25 Q32.55 17.4 32.45 23.0 L30.55 24.05 29.15 13.7 M28.15 14.2 L25.6 15.4 25.7 15.3 28.15 14.2" fill="url(#gradient0)" fill-rule="evenodd" stroke="none"/>
      <path d="M20.9 21.3 L20.9 21.9 23.5 18.95 24.35 18.95 Q21.3 22.85 20.8 26.35 8.5 32.4 2.95 27.8 L2.2 26.85 Q1.9 26.4 1.9 25.95 1.0 22.85 1.9 18.45 3.4 25.65 12.6 24.4 L20.9 21.3" fill="#2e2d2b" fill-rule="evenodd" stroke="none"/>
      <path d="M2.95 17.65 L2.95 17.7 3.0 18.05 2.9 17.75 2.95 17.65" fill="#d9d9d9" fill-rule="evenodd" stroke="none"/>
      <path d="M15.65 7.95 L25.0 13.8 25.25 13.55 25.65 13.1 27.0 12.5 35.2 8.7 35.1 6.1 Q35.05 4.75 33.7 3.25 30.8 0.6 24.95 1.8 L22.1 4.45 15.65 7.6 15.65 7.95 M11.9 12.4 L15.65 7.6 M9.75 13.3 L11.9 12.4 20.65 18.2 21.55 17.6 25.25 13.55 M36.55 5.25 Q34.35 -0.8 26.05 0.15 L23.8 0.7 20.75 3.55 14.25 6.95 9.75 13.3 3.95 16.45 2.95 17.65 2.95 17.7 3.0 18.05 Q3.95 23.9 12.85 22.65 L20.15 19.8 M20.9 18.35 L20.7 18.2 20.65 18.2 M28.95 13.8 L29.15 13.7 34.35 11.25 Q36.3 10.65 36.6 9.7 L36.55 5.25 M25.5 15.55 L25.6 15.4 M25.5 15.55 L23.65 17.65 23.35 18.0 23.2 18.2 M23.05 18.35 L21.8 19.75 21.7 19.8 21.45 20.85 20.9 21.3 M20.9 21.9 L23.5 18.95 24.35 18.95 27.1 16.65 28.5 23.2 30.45 24.1 30.55 24.05 32.45 23.0 Q32.55 17.4 34.35 11.25 M28.15 14.2 L25.7 15.3 25.6 15.4 M20.9 18.2 L21.05 18.15 21.55 17.6 M1.9 18.45 Q3.4 25.65 12.6 24.4 L20.9 21.3 M1.9 18.45 Q1.0 22.85 1.9 25.95 1.9 26.4 2.2 26.85 L2.95 27.8 Q8.5 32.4 20.8 26.35 21.3 22.85 24.35 18.95 M2.95 17.65 Q1.75 17.8 1.9 18.45 M3.0 18.05 L2.9 17.75 2.95 17.65 M28.95 13.8 L28.15 14.2" fill="none" stroke="#000000" stroke-linecap="round" stroke-linejoin="round" stroke-opacity="0.2" stroke-width="0.05"/>
      <path d="M8.15 26.9 L9.05 27.05 Q9.65 27.2 10.0 28.05 L10.1 28.6 9.8 28.75 8.65 28.8 7.55 28.75 Q6.05 28.5 4.7 27.85 3.95 27.5 3.8 26.75 L3.95 26.5 4.25 26.2 Q5.3 27.2 6.5 27.4 L6.9 27.3 8.15 26.9 M13.5 27.8 L12.85 28.25 11.4 28.1 11.45 27.65 Q11.8 26.8 12.75 26.85 13.45 27.15 13.5 27.8" fill="#393937" fill-rule="evenodd" stroke="none"/>
      <path d="M33.75 10.0 L33.05 10.45 Q32.7 10.75 32.8 11.0 32.85 11.25 33.25 11.2 L34.05 11.1 34.8 10.55 35.0 10.1 34.6 9.8 33.75 10.0 M30.85 11.45 L28.7 12.45 25.4 14.1 24.95 14.3 26.55 13.8 Q32.15 11.8 32.1 11.55 L31.7 11.25 30.85 11.45" fill="#a5a09b" fill-rule="evenodd" stroke="none"/>
      <path d="M25.5 14.6 Q23.8 5.25 15.0 2.75 11.85 2.2 8.7 4.15 L6.65 6.3 5.8 11.15 6.95 13.1 15.05 12.1 13.4 15.2 14.75 17.4 19.65 18.1 19.7 18.1 19.65 18.15 19.35 19.2 20.75 20.85 25.0 20.85 25.5 18.55 25.5 14.6" fill="#000000" fill-opacity="0.2" fill-rule="evenodd" stroke="none"/>
      <path d="M12.5 5.15 Q9.4 4.65 7.15 6.85 4.95 9.0 3.3 14.5 1.65 19.95 5.05 21.4 8.45 22.8 12.25 22.85 16.1 22.85 21.05 21.0 26.0 19.15 23.3 14.9 20.6 10.6 18.1 8.1 15.6 5.6 12.5 5.15" fill="#241e1c" fill-rule="evenodd" stroke="none"/>
      <path d="M12.5 5.15 Q9.4 4.65 7.15 6.85 4.95 9.0 3.3 14.5 1.65 19.95 5.05 21.4 8.45 22.8 12.25 22.85 16.1 22.85 21.05 21.0 26.0 19.15 23.3 14.9 20.6 10.6 18.1 8.1 15.6 5.6 12.5 5.15 Z" fill="none" stroke="#000000" stroke-linecap="round" stroke-linejoin="round" stroke-opacity="0.2509804" stroke-width="0.05"/>
      <path d="M8.8 8.55 Q9.8 8.15 10.15 9.3 10.45 10.45 9.8 12.4 9.4 13.9 8.3 15.25 7.3 16.45 6.1 17.1 5.3 17.05 4.9 16.0 4.5 14.95 5.15 13.3 L5.2 12.95 Q5.85 11.15 6.75 10.05 7.7 8.7 8.65 8.5 L8.8 8.55" fill="#d98c22" fill-rule="evenodd" stroke="none"/>
      <path d="M8.8 8.55 Q9.8 8.15 10.15 9.3 10.45 10.45 9.8 12.4 9.4 13.9 8.3 15.25 7.3 16.45 6.1 17.1 5.3 17.05 4.9 16.0 4.5 14.95 5.15 13.3 L5.2 12.95 Q5.85 11.15 6.75 10.05 7.7 8.7 8.65 8.5 L8.8 8.55 Z" fill="none" stroke="#000000" stroke-linecap="round" stroke-linejoin="round" stroke-opacity="0.3019608" stroke-width="0.05"/>
      <path d="M10.4 11.0 Q9.6 14.1 7.6 16.25 5.65 18.45 3.55 18.9 1.4 19.55 0.65 17.65 -0.4 16.1 0.25 13.35 1.15 10.3 3.1 8.2 5.25 5.7 7.05 5.35 9.3 5.1 10.1 6.65 11.05 8.3 10.4 11.0" fill="url(#gradient1)" fill-rule="evenodd" stroke="none"/>
      <path d="M9.65 10.1 Q9.8 10.9 9.35 12.15 9.1 13.4 8.2 14.5 7.5 15.4 6.85 15.4 6.15 15.5 6.0 14.75 5.75 14.1 6.1 12.7 6.45 11.6 7.15 10.75 8.0 9.45 8.7 9.45 9.35 9.35 9.65 10.1" fill="#d9d653" fill-rule="evenodd" stroke="none"/>
      <path d="M15.45 11.75 Q16.7 11.35 17.35 12.5 17.9 13.65 17.5 15.55 17.35 17.05 16.1 18.4 14.95 19.65 13.45 20.25 12.4 20.25 11.65 19.2 10.95 18.15 11.4 16.5 L11.4 16.1 Q12.0 14.3 12.95 13.25 13.95 11.9 15.15 11.7 L15.45 11.75" fill="#d98c22" fill-rule="evenodd" stroke="none"/>
      <path d="M15.45 11.75 Q16.7 11.35 17.35 12.5 17.9 13.65 17.5 15.55 17.35 17.05 16.1 18.4 14.95 19.65 13.45 20.25 12.4 20.25 11.65 19.2 10.95 18.15 11.4 16.5 L11.4 16.1 Q12.0 14.3 12.95 13.25 13.95 11.9 15.15 11.7 L15.45 11.75 Z" fill="none" stroke="#000000" stroke-linecap="round" stroke-linejoin="round" stroke-opacity="0.3019608" stroke-width="0.05"/>
      <path d="M8.65 17.1 Q9.4 14.05 11.3 11.95 13.45 9.45 15.2 9.1 17.35 8.85 18.25 10.4 19.2 12.05 18.6 14.75 17.8 17.85 15.85 20.0 13.95 22.2 11.9 22.65 9.85 23.3 9.05 21.4 8.0 19.85 8.65 17.1" fill="url(#gradient2)" fill-rule="evenodd" stroke="none"/>
      <path d="M13.3 13.8 Q14.25 12.5 15.15 12.5 16.0 12.4 16.55 13.15 16.9 13.95 16.6 15.2 16.5 16.45 15.55 17.55 14.8 18.45 13.9 18.45 13.0 18.55 12.65 17.8 12.15 17.15 12.4 15.75 12.55 14.65 13.3 13.8" fill="#d9d653" fill-rule="evenodd" stroke="none"/>
      <path d="M24.0 17.05 L23.35 15.0 19.6 13.95 20.3 9.4 12.15 9.6 12.05 5.5 6.4 6.05 7.5 2.6 7.55 2.4 Q10.55 1.0 13.2 0.85 16.6 0.7 19.3 2.6 24.4 6.95 26.05 13.85 L26.25 15.95 24.0 17.05 M21.7 6.65 Q21.3 6.05 20.5 5.9 L19.25 6.1 Q18.65 6.6 18.55 7.2 18.25 7.9 18.65 8.3 L19.55 8.95 20.9 8.8 Q21.55 8.55 21.85 7.75 22.15 7.15 21.7 6.65 M16.45 3.65 Q15.35 3.5 14.55 3.95 13.65 4.6 13.6 5.5 13.45 6.3 13.8 7.1 L15.2 8.0 Q16.3 8.1 17.1 7.6 17.9 7.25 18.05 6.25 18.45 5.35 17.75 4.6 17.35 3.75 16.45 3.65 M10.55 2.85 Q10.35 3.55 10.85 4.15 11.15 4.55 11.85 4.8 L13.2 4.65 Q13.85 4.15 13.9 3.55 14.1 2.75 13.6 2.25 13.35 1.6 12.5 1.65 L11.1 1.75 Q10.65 2.2 10.55 2.85" fill="url(#gradient3)" fill-rule="evenodd" stroke="none"/>
      <path d="M7.5 2.6 L6.4 6.05 12.05 5.5 12.15 9.6 20.3 9.4 19.6 13.95 23.35 15.0 24.0 17.05 23.35 17.1 22.7 15.5 18.9 14.75 16.1 16.0 18.25 14.35 18.85 14.2 19.3 13.8 19.15 13.35 18.8 13.05 19.0 10.3 12.3 10.8 11.3 12.15 11.2 9.9 11.5 9.8 11.95 9.4 Q12.15 9.1 11.95 8.85 11.75 8.5 11.2 8.65 L11.15 8.0 11.0 6.55 6.85 6.95 6.25 9.25 6.15 9.25 5.45 6.8 5.75 6.25 6.05 6.15 6.4 5.75 6.25 5.2 7.5 2.6" fill="#76726e" fill-rule="evenodd" stroke="none"/>
      <path d="M10.55 2.85 Q10.65 2.2 11.1 1.75 L12.5 1.65 Q13.35 1.6 13.6 2.25 14.1 2.75 13.9 3.55 13.85 4.15 13.2 4.65 L11.85 4.8 Q11.15 4.55 10.85 4.15 10.35 3.55 10.55 2.85 M16.45 3.65 Q17.35 3.75 17.75 4.6 18.45 5.35 18.05 6.25 17.9 7.25 17.1 7.6 16.3 8.1 15.2 8.0 L13.8 7.1 Q13.45 6.3 13.6 5.5 13.65 4.6 14.55 3.95 15.35 3.5 16.45 3.65 M21.7 6.65 Q22.15 7.15 21.85 7.75 21.55 8.55 20.9 8.8 L19.55 8.95 18.65 8.3 Q18.25 7.9 18.55 7.2 18.65 6.6 19.25 6.1 L20.5 5.9 Q21.3 6.05 21.7 6.65" fill="#454443" fill-rule="evenodd" stroke="none"/>
      <path d="M6.25 5.2 L6.4 5.75 6.05 6.15 5.75 6.25 5.0 6.05 4.8 5.7 5.2 5.15 5.55 4.9 Q6.0 4.8 6.25 5.2 M11.2 8.65 Q11.75 8.5 11.95 8.85 12.15 9.1 11.95 9.4 L11.5 9.8 11.2 9.9 10.85 9.95 Q10.5 9.85 10.25 9.15 L10.4 9.0 10.65 8.85 11.15 8.65 11.2 8.65 M18.8 13.05 L19.15 13.35 19.3 13.8 18.85 14.2 18.25 14.35 17.7 14.05 Q17.25 13.45 17.8 13.2 L18.35 13.05 18.8 13.05" fill="#d7d77d" fill-rule="evenodd" stroke="none"/>
      <path d="M6.25 9.25 L6.85 6.95 11.0 6.55 11.15 8.0 11.05 7.95 6.25 9.25 M11.3 12.15 L12.3 10.8 19.0 10.3 18.8 13.05 18.35 13.05 17.8 13.2 Q17.25 13.45 17.7 14.05 L18.25 14.35 16.1 16.0 18.9 14.75 22.7 15.5 16.1 16.0 16.7 12.4 11.25 12.3 11.3 12.15 M16.7 12.4 L19.0 10.3 16.7 12.4" fill="#2e2d2b" fill-rule="evenodd" stroke="none"/>
      <path d="M24.0 17.05 L26.25 15.95 M7.55 2.4 L7.5 2.6 6.25 5.2 M5.75 6.25 L5.45 6.8 6.15 9.25 6.25 9.25 M11.15 8.0 L11.2 8.65 M11.2 9.9 L11.3 12.15 M19.0 10.3 L18.8 13.05 M22.7 15.5 L23.35 17.1 24.0 17.05 M11.15 8.0 L11.05 7.95 6.25 9.25 M22.7 15.5 L16.1 16.0 16.7 12.4 11.25 12.3 11.3 12.15 M19.0 10.3 L16.7 12.4" fill="none" stroke="#000000" stroke-linecap="round" stroke-linejoin="round" stroke-opacity="0.3019608" stroke-width="0.05"/>
      <path d="M17.3 19.0 L16.7 19.15 16.05 18.25 16.1 16.0 15.45 17.85 10.7 21.05 9.1 17.45 8.6 17.35 8.35 16.95 8.45 16.5 Q8.65 16.3 8.9 16.25 L9.15 14.65 6.4 16.4 5.7 16.75 4.95 14.2 5.25 13.0 5.7 12.05 4.7 12.15 2.15 16.15 4.3 13.4 5.05 18.65 7.55 16.9 10.4 22.25 15.3 19.15 17.65 21.0 21.65 19.6 21.3 19.2 18.85 19.95 18.0 20.4 17.3 19.0" fill="#76726e" fill-rule="evenodd" stroke="none"/>
      <path d="M17.9 18.4 L17.9 18.25 Q18.25 17.6 17.4 17.75 L17.15 17.7 Q16.3 17.95 16.05 18.25 L16.7 19.15 17.3 19.0 17.55 18.95 17.9 18.4 M4.95 14.2 L5.1 14.15 5.35 14.15 5.5 13.85 Q5.65 13.4 5.25 13.0 L4.95 14.2 M9.1 17.45 L9.4 17.3 9.6 16.8 Q9.75 16.35 9.55 16.35 L8.9 16.25 Q8.65 16.3 8.45 16.5 L8.35 16.95 8.6 17.35 9.1 17.45" fill="#d7d77d" fill-rule="evenodd" stroke="none"/>
      <path d="M17.9 18.4 L17.55 18.95 17.3 19.0 18.0 20.4 18.85 19.95 17.9 18.4 M16.05 18.25 Q16.3 17.95 17.15 17.7 L17.4 17.75 16.1 16.0 11.35 19.3 9.15 14.65 8.9 16.25 9.55 16.35 Q9.75 16.35 9.6 16.8 L9.4 17.3 9.1 17.45 10.7 21.05 15.45 17.85 16.1 16.0 16.05 18.25 M6.4 16.4 L5.7 12.05 5.25 13.0 Q5.65 13.4 5.5 13.85 L5.35 14.15 5.1 14.15 4.95 14.2 5.7 16.75 6.4 16.4 M11.35 19.3 L10.7 21.05 11.35 19.3" fill="#2e2d2b" fill-rule="evenodd" stroke="none"/>
      <path d="M7.8 20.8 Q8.0 20.15 7.65 19.55 L6.45 18.65 5.35 19.0 Q4.65 19.3 4.55 20.0 4.4 20.75 4.65 21.3 4.9 21.9 5.55 22.1 L6.95 22.0 Q7.75 21.7 7.8 20.8 M9.4 23.95 L10.0 23.05 Q10.15 22.4 9.75 22.1 9.4 21.7 8.85 21.65 8.3 21.55 7.8 21.9 L7.2 22.8 Q7.05 23.25 7.35 23.65 7.7 24.1 8.25 24.1 L9.4 23.95 M3.9 17.3 Q3.45 17.35 3.05 17.8 2.65 18.1 2.5 18.6 2.4 19.05 2.55 19.35 2.85 19.85 3.2 19.8 L4.2 19.7 4.65 18.9 4.65 17.9 3.9 17.3" fill="#454443" fill-rule="evenodd" stroke="none"/>
      <path d="M2.15 16.15 Q1.8 19.75 1.9 22.2 2.35 23.45 4.05 24.35 8.9 26.7 18.2 23.1 L20.8 21.9 21.65 19.6 17.65 21.0 15.3 19.15 10.4 22.25 7.55 16.9 5.05 18.65 4.3 13.4 2.15 16.15 M7.8 20.8 Q7.75 21.7 6.95 22.0 L5.55 22.1 Q4.9 21.9 4.65 21.3 4.4 20.75 4.55 20.0 4.65 19.3 5.35 19.0 L6.45 18.65 7.65 19.55 Q8.0 20.15 7.8 20.8 M3.9 17.3 L4.65 17.9 4.65 18.9 4.2 19.7 3.2 19.8 Q2.85 19.85 2.55 19.35 2.4 19.05 2.5 18.6 2.65 18.1 3.05 17.8 3.45 17.35 3.9 17.3 M9.4 23.95 L8.25 24.1 Q7.7 24.1 7.35 23.65 7.05 23.25 7.2 22.8 L7.8 21.9 Q8.3 21.55 8.85 21.65 9.4 21.7 9.75 22.1 10.15 22.4 10.0 23.05 L9.4 23.95" fill="url(#gradient4)" fill-rule="evenodd" stroke="none"/>
      <path d="M17.4 17.75 L16.1 16.0 11.35 19.3 9.15 14.65 6.4 16.4 5.7 12.05 4.7 12.15 2.15 16.15 M20.8 21.9 L21.65 19.6 21.3 19.2 18.85 19.95 17.9 18.4 M15.45 17.85 L10.7 21.05 11.35 19.3" fill="none" stroke="#000000" stroke-linecap="round" stroke-linejoin="round" stroke-opacity="0.3019608" stroke-width="0.05"/>
      <path d="M23.75 11.95 Q22.05 12.8 20.85 14.65 19.65 16.6 19.65 18.5 19.65 20.4 20.85 21.1 L23.75 21.05 Q25.45 20.25 26.65 18.3 27.85 16.45 27.85 14.55 27.85 12.65 26.65 11.85 L23.75 11.95" fill="#454443" fill-rule="evenodd" stroke="none"/>
      <path d="M23.75 11.95 Q22.05 12.8 20.85 14.65 19.65 16.6 19.65 18.5 19.65 20.4 20.85 21.1 L23.75 21.05 Q25.45 20.25 26.65 18.3 27.85 16.45 27.85 14.55 27.85 12.65 26.65 11.85 L23.75 11.95 Z" fill="none" stroke="#000000" stroke-linecap="round" stroke-linejoin="round" stroke-opacity="0.2" stroke-width="0.05"/>
      <path d="M24.75 11.6 L23.75 11.95 23.45 12.1 Q23.95 14.3 23.95 16.7 L25.25 15.75 23.95 16.7 Q22.05 17.85 19.65 18.8 19.7 19.55 19.9 20.1 22.1 19.25 23.85 18.3 L23.2 21.3 23.75 21.05 24.55 20.6 24.8 20.45 25.25 17.45 23.85 18.3 25.25 17.45 27.8 15.4 27.85 14.55 27.75 13.7 25.25 15.75 24.75 11.6" fill="#252422" fill-rule="evenodd" stroke="none"/>
      <path d="M24.75 11.6 L23.75 11.95 23.45 12.1 Q21.95 12.95 20.85 14.65 19.65 16.6 19.65 18.5 L19.65 18.8 Q19.7 19.55 19.9 20.1 L20.85 21.1 Q21.85 21.8 23.2 21.3 L23.75 21.05 24.55 20.6 24.8 20.45 26.65 18.3 Q27.6 16.85 27.8 15.4 L27.85 14.55 27.75 13.7 Q27.55 12.45 26.65 11.85 25.8 11.35 24.75 11.6 L25.25 15.75 23.95 16.7 Q23.95 14.3 23.45 12.1 M23.85 18.3 L25.25 17.45 24.8 20.45 M27.75 13.7 L25.25 15.75 M25.25 17.45 L27.8 15.4 M19.9 20.1 Q22.1 19.25 23.85 18.3 L23.2 21.3 M23.95 16.7 Q22.05 17.85 19.65 18.8" fill="none" stroke="#000000" stroke-linecap="round" stroke-linejoin="round" stroke-opacity="0.2" stroke-width="0.05"/>
      <path d="M23.0 15.95 L22.45 16.15 22.2 16.7 22.45 17.25 Q22.65 17.5 23.0 17.5 L23.55 17.25 23.75 16.7 23.55 16.15 23.0 15.95" fill="#827d75" fill-rule="evenodd" stroke="none"/>
    </g>
    <linearGradient gradientTransform="matrix(0.0, 0.0, 0.0, 0.0, 511.1, 12.7)" gradientUnits="userSpaceOnUse" id="gradient0" spreadMethod="pad" x1="-819.2" x2="819.2">
      <stop offset="0.0" stop-color="#2e2d2b"/>
      <stop offset="1.0" stop-color="#454443"/>
    </linearGradient>
    <radialGradient cx="0" cy="0" gradientTransform="matrix(0.006, -0.0069, 0.0027, 0.0051, 5.35, 12.2)" gradientUnits="userSpaceOnUse" id="gradient1" r="819.2" spreadMethod="pad">
      <stop offset="0.0" stop-color="#d98c22"/>
      <stop offset="1.0" stop-color="#d98b22" stop-opacity="0.0"/>
    </radialGradient>
    <radialGradient cx="0" cy="0" gradientTransform="matrix(0.0058, -0.0069, 0.0027, 0.0051, 13.6, 15.95)" gradientUnits="userSpaceOnUse" id="gradient2" r="819.2" spreadMethod="pad">
      <stop offset="0.0" stop-color="#d98c22"/>
      <stop offset="1.0" stop-color="#d98b22" stop-opacity="0.0"/>
    </radialGradient>
    <linearGradient gradientTransform="matrix(0.0023, -0.0027, -0.0058, -0.0046, 16.95, 5.25)" gradientUnits="userSpaceOnUse" id="gradient3" spreadMethod="pad" x1="-819.2" x2="819.2">
      <stop offset="0.0" stop-color="#454443"/>
      <stop offset="1.0" stop-color="#2e2d2b"/>
    </linearGradient>
    <linearGradient gradientTransform="matrix(-0.0018, 0.0028, -0.0065, -0.0017, 7.3, 21.0)" gradientUnits="userSpaceOnUse" id="gradient4" spreadMethod="pad" x1="-819.2" x2="819.2">
      <stop offset="0.0" stop-color="#454443"/>
      <stop offset="1.0" stop-color="#2e2d2b"/>
    </linearGradient>
    <g id="shape2" transform="matrix(1.0, 0.0, 0.0, 1.0, -9.45, -16.3)">
      <path d="M21.75 47.6 Q19.0 48.0 16.6 47.5 L13.75 46.75 Q12.8 45.2 13.75 43.65 L21.75 45.05 Q22.9 46.75 21.75 47.6 M10.45 41.65 L10.45 40.55 12.1 39.25 13.0 41.65 Q11.55 40.3 10.45 41.65" fill="#8b8782" fill-rule="evenodd" stroke="none"/>
      <path d="M28.7 45.35 Q25.05 47.15 21.75 47.6 22.9 46.75 21.75 45.05 L28.7 42.4 Q29.85 44.45 28.7 45.35" fill="#454441" fill-rule="evenodd" stroke="none"/>
      <path d="M28.7 42.4 L29.95 41.95 31.1 42.8 31.1 44.15 28.7 45.35 Q29.85 44.45 28.7 42.4" fill="#252423" fill-rule="evenodd" stroke="none"/>
      <path d="M13.75 46.75 Q10.65 45.3 10.45 41.65 11.55 40.3 13.0 41.65 L13.75 43.65 Q12.8 45.2 13.75 46.75" fill="#a8a29a" fill-rule="evenodd" stroke="none"/>
      <path d="M28.7 42.4 L29.95 41.95 31.1 42.8 31.1 44.15 28.7 45.35 Q25.05 47.15 21.75 47.6 19.0 48.0 16.6 47.5 L13.75 46.75 Q10.65 45.3 10.45 41.65 L10.45 40.55 12.1 39.25 13.0 41.65 13.75 43.65 21.75 45.05 28.7 42.4 Z" fill="none" stroke="#000000" stroke-linecap="round" stroke-linejoin="round" stroke-opacity="0.2509804" stroke-width="0.05"/>
      <path d="M25.3 24.0 L21.45 28.85 Q20.3 29.25 19.3 29.75 L23.85 23.35 30.4 19.9 33.5 17.0 35.75 16.45 Q44.2 15.5 46.4 21.6 45.3 21.15 44.95 22.45 44.9 21.1 43.5 19.55 40.6 16.9 34.65 18.1 L31.8 20.8 25.3 24.0" fill="#666461" fill-rule="evenodd" stroke="none"/>
      <path d="M25.3 24.35 L25.3 24.0 31.8 20.8 34.65 18.1 Q40.6 16.9 43.5 19.55 44.9 21.1 44.95 22.45 L45.05 25.1 36.75 28.9 39.7 26.7 40.4 24.95 Q38.5 20.15 34.6 21.15 L33.25 22.0 Q30.7 23.15 25.3 24.35 M21.45 28.85 L30.35 34.7 31.25 34.1 30.7 34.65 30.6 34.7 30.35 34.7 30.6 34.85 30.05 35.3 29.85 36.3 22.45 39.2 Q13.45 40.45 12.5 34.55 L12.45 34.2 12.45 34.15 13.45 32.95 19.3 29.75 Q20.3 29.25 21.45 28.85" fill="#463a37" fill-rule="evenodd" stroke="none"/>
      <path d="M25.3 24.0 L25.3 24.35 34.7 30.25 35.0 30.0 34.7 30.25 25.3 24.35 Q30.7 23.15 33.25 22.0 L34.6 21.15 Q38.5 20.15 40.4 24.95 L39.7 26.7 36.75 28.9 35.35 29.55 35.0 30.0 31.25 34.1 30.35 34.7 21.45 28.85 25.3 24.0 M30.35 34.7 L30.6 34.7 30.6 34.85 30.35 34.7" fill="#30251b" fill-rule="evenodd" stroke="none"/>
      <path d="M38.75 30.25 L38.9 30.1 38.9 30.15 38.75 30.25 38.9 30.15 40.35 40.6 40.25 40.65 38.25 39.75 36.85 33.1 34.05 35.45 33.2 35.45 30.6 38.45 30.6 37.8 31.1 37.35 31.4 36.3 31.5 36.25 32.75 34.85 31.5 36.25 31.4 36.3 31.45 36.2 32.75 34.85 32.9 34.7 33.05 34.5 33.4 34.15 35.25 32.0 35.25 31.95 35.35 31.9 37.9 30.65 Q38.3 30.4 38.75 30.25 M35.25 32.0 L35.35 31.9 35.25 32.0" fill="#252423" fill-rule="evenodd" stroke="none"/>
      <path d="M31.25 34.1 L35.0 30.0 35.35 29.55 36.75 28.9 45.05 25.1 44.95 22.45 Q45.3 21.15 46.4 21.6 L46.45 26.1 Q46.15 27.05 44.2 27.65 L38.9 30.15 38.9 30.1 38.75 30.25 Q38.3 30.4 37.9 30.65 L35.4 31.75 35.35 31.9 35.25 31.95 35.25 32.0 33.4 34.15 33.05 34.5 32.9 34.7 32.75 34.85 31.45 36.2 31.4 36.3 31.1 37.35 30.6 37.8 22.2 40.95 Q12.9 42.25 11.35 34.95 11.2 34.25 12.45 34.15 L12.4 34.25 12.5 34.55 Q13.45 40.45 22.45 39.2 L29.85 36.3 30.05 35.3 30.6 34.85 30.6 34.7 30.7 34.65 31.25 34.1" fill="#8b8782" fill-rule="evenodd" stroke="none"/>
      <path d="M34.05 35.45 Q31.0 39.4 30.45 42.95 18.05 49.05 12.45 44.4 L11.7 43.45 Q11.35 43.0 11.35 42.55 10.45 39.4 11.35 34.95 12.9 42.25 22.2 40.95 L30.6 37.8 30.6 38.45 33.2 35.45 34.05 35.45" fill="#373633" fill-rule="evenodd" stroke="none"/>
      <path d="M12.5 34.55 L12.4 34.25 12.45 34.15 12.45 34.2 12.5 34.55" fill="#ffffff" fill-rule="evenodd" stroke="none"/>
      <path d="M38.9 30.15 L44.2 27.65 Q42.35 33.85 42.25 39.55 L40.35 40.6 38.9 30.15 M37.9 30.65 L35.35 31.9 35.4 31.75 37.9 30.65" fill="url(#gradient5)" fill-rule="evenodd" stroke="none"/>
      <path d="M25.3 24.35 L25.3 24.0 21.45 28.85 30.35 34.7 31.25 34.1 35.0 30.0 34.7 30.25 25.3 24.35 M36.75 28.9 L45.05 25.1 44.95 22.45 Q44.9 21.1 43.5 19.55 40.6 16.9 34.65 18.1 L31.8 20.8 25.3 24.0 M46.4 21.6 Q44.2 15.5 35.75 16.45 L33.5 17.0 30.4 19.9 23.85 23.35 19.3 29.75 Q20.3 29.25 21.45 28.85 M44.2 27.65 Q46.15 27.05 46.45 26.1 L46.4 21.6 M38.75 30.25 L38.9 30.15 44.2 27.65 Q42.35 33.85 42.25 39.55 L40.35 40.6 40.25 40.65 38.25 39.75 36.85 33.1 34.05 35.45 Q31.0 39.4 30.45 42.95 18.05 49.05 12.45 44.4 L11.7 43.45 Q11.35 43.0 11.35 42.55 10.45 39.4 11.35 34.95 11.2 34.25 12.45 34.15 L13.45 32.95 19.3 29.75 M38.75 30.25 Q38.3 30.4 37.9 30.65 L35.4 31.75 35.35 31.9 35.25 32.0 33.4 34.15 33.05 34.5 32.9 34.7 M32.75 34.85 L31.5 36.25 31.4 36.3 31.1 37.35 30.6 37.8 M30.6 38.45 L33.2 35.45 34.05 35.45 M36.75 28.9 L35.35 29.55 35.0 30.0 M30.6 34.7 L30.7 34.65 31.25 34.1 M29.85 36.3 L22.45 39.2 Q13.45 40.45 12.5 34.55 L12.4 34.25 12.45 34.15 12.45 34.2 12.5 34.55 M30.35 34.7 L30.6 34.85 M11.35 34.95 Q12.9 42.25 22.2 40.95 L30.6 37.8" fill="none" stroke="#000000" stroke-linecap="round" stroke-linejoin="round" stroke-opacity="0.2" stroke-width="0.05"/>
      <path d="M22.7 44.55 L22.0 45.05 Q21.25 45.45 20.55 44.85 L20.6 44.4 Q20.95 43.55 21.95 43.6 22.65 43.9 22.7 44.55 M19.15 44.8 L19.25 45.4 18.95 45.5 17.8 45.55 16.65 45.5 13.8 44.65 Q13.05 44.3 12.9 43.5 L13.05 43.25 13.35 42.95 Q14.4 43.95 15.6 44.15 L16.05 44.05 Q16.65 43.8 17.3 43.65 L18.2 43.8 Q18.8 43.95 19.15 44.8" fill="#444341" fill-rule="evenodd" stroke="none"/>
      <path d="M42.95 26.25 L42.2 26.7 Q41.85 27.0 41.95 27.25 42.0 27.5 42.4 27.45 L43.25 27.35 44.0 26.8 44.2 26.35 Q44.1 26.1 43.8 26.05 L42.95 26.25 M40.0 27.7 L37.8 28.75 34.5 30.4 34.05 30.6 35.65 30.1 Q41.3 28.1 41.25 27.85 L40.85 27.5 40.0 27.7" fill="#c2bdb7" fill-rule="evenodd" stroke="none"/>
      <path d="M34.75 31.3 Q33.05 21.85 24.15 19.35 20.95 18.8 17.8 20.75 L15.7 22.95 14.85 27.85 16.0 29.8 24.2 28.8 22.55 31.95 23.9 34.15 28.85 34.85 28.9 34.85 28.85 34.9 28.55 35.95 29.95 37.65 34.25 37.65 34.75 35.3 34.75 31.3" fill="#000000" fill-opacity="0.2" fill-rule="evenodd" stroke="none"/>
      <path d="M21.35 21.65 Q18.2 21.15 15.9 23.4 13.7 25.55 12.05 31.1 10.35 36.65 13.8 38.1 17.25 39.5 21.1 39.55 24.95 39.55 30.0 37.7 35.0 35.8 32.25 31.5 29.55 27.2 27.0 24.65 24.45 22.1 21.35 21.65" fill="#2b2422" fill-rule="evenodd" stroke="none"/>
      <path d="M21.35 21.65 Q18.2 21.15 15.9 23.4 13.7 25.55 12.05 31.1 10.35 36.65 13.8 38.1 17.25 39.5 21.1 39.55 24.95 39.55 30.0 37.7 35.0 35.8 32.25 31.5 29.55 27.2 27.0 24.65 24.45 22.1 21.35 21.65 Z" fill="none" stroke="#000000" stroke-linecap="round" stroke-linejoin="round" stroke-opacity="0.2509804" stroke-width="0.05"/>
      <path d="M16.25 26.45 Q17.25 25.1 18.2 24.9 18.4 24.85 18.35 24.95 19.35 24.55 19.7 25.7 20.05 26.85 19.35 28.8 18.95 30.35 17.85 31.7 16.85 32.95 15.6 33.6 14.8 33.55 14.4 32.5 14.0 31.45 14.65 29.75 L14.7 29.4 Q15.4 27.6 16.25 26.45" fill="#ffa529" fill-rule="evenodd" stroke="none"/>
      <path d="M16.25 26.45 Q17.25 25.1 18.2 24.9 18.4 24.85 18.35 24.95 19.35 24.55 19.7 25.7 20.05 26.85 19.35 28.8 18.95 30.35 17.85 31.7 16.85 32.95 15.6 33.6 14.8 33.55 14.4 32.5 14.0 31.45 14.65 29.75 L14.7 29.4 Q15.4 27.6 16.25 26.45 Z" fill="none" stroke="#000000" stroke-linecap="round" stroke-linejoin="round" stroke-opacity="0.3019608" stroke-width="0.05"/>
      <path d="M10.1 34.15 Q9.05 32.6 9.7 29.8 10.6 26.7 12.6 24.6 14.75 22.05 16.55 21.7 18.85 21.45 19.65 23.0 20.6 24.7 20.0 27.4 19.15 30.55 17.15 32.7 15.15 35.0 13.05 35.4 10.85 36.1 10.1 34.15" fill="url(#gradient6)" fill-rule="evenodd" stroke="none"/>
      <path d="M15.15 31.3 Q14.9 30.7 15.25 29.25 15.55 28.1 16.25 27.25 17.2 25.95 17.9 25.95 18.55 25.85 18.85 26.6 L18.55 28.7 Q18.3 29.95 17.35 31.1 16.65 31.95 15.95 31.95 15.35 32.05 15.15 31.3" fill="#fffc62" fill-rule="evenodd" stroke="none"/>
      <path d="M26.9 31.9 Q26.65 33.45 25.45 34.8 24.3 36.05 22.85 36.65 21.75 36.6 20.95 35.55 20.25 34.5 20.8 32.85 L20.8 32.5 Q21.4 30.7 22.3 29.55 23.3 28.2 24.55 28.0 L24.8 28.0 Q26.1 27.65 26.8 28.8 27.35 29.95 26.9 31.9" fill="#ffa529" fill-rule="evenodd" stroke="none"/>
      <path d="M26.9 31.9 Q26.65 33.45 25.45 34.8 24.3 36.05 22.85 36.65 21.75 36.6 20.95 35.55 20.25 34.5 20.8 32.85 L20.8 32.5 Q21.4 30.7 22.3 29.55 23.3 28.2 24.55 28.0 L24.8 28.0 Q26.1 27.65 26.8 28.8 27.35 29.95 26.9 31.9 Z" fill="none" stroke="#000000" stroke-linecap="round" stroke-linejoin="round" stroke-opacity="0.3019608" stroke-width="0.05"/>
      <path d="M25.05 36.6 Q23.2 38.85 21.1 39.3 19.0 40.0 18.2 38.05 17.15 36.5 17.8 33.7 18.55 30.6 20.5 28.45 22.65 25.95 24.4 25.6 26.6 25.35 27.5 26.9 28.45 28.6 27.9 31.3 27.0 34.45 25.05 36.6" fill="url(#gradient7)" fill-rule="evenodd" stroke="none"/>
      <path d="M25.85 29.7 Q26.15 30.5 25.85 31.8 25.8 33.05 24.75 34.15 24.0 35.05 23.1 35.05 22.2 35.15 21.85 34.4 21.4 33.75 21.6 32.3 21.75 31.2 22.55 30.35 23.45 29.05 24.4 29.05 25.25 28.95 25.85 29.7" fill="#fffc62" fill-rule="evenodd" stroke="none"/>
      <path d="M26.4 23.95 Q25.55 24.45 24.45 24.35 L23.05 23.4 Q22.7 22.6 22.85 21.8 22.9 20.9 23.8 20.25 24.65 19.8 25.75 19.9 26.6 20.05 27.0 20.9 27.75 21.65 27.35 22.6 27.2 23.6 26.4 23.95 M31.05 23.0 Q31.5 23.45 31.2 24.1 30.9 24.9 30.2 25.15 L28.9 25.3 27.95 24.65 Q27.55 24.25 27.85 23.55 27.95 22.95 28.55 22.4 L29.8 22.2 Q30.6 22.35 31.05 23.0 M20.35 18.0 L21.75 17.95 Q22.6 17.9 22.85 18.55 23.35 19.05 23.15 19.85 23.1 20.45 22.45 20.95 L21.1 21.1 20.05 20.45 Q19.55 19.85 19.75 19.1 19.85 18.45 20.35 18.0" fill="#52514f" fill-rule="evenodd" stroke="none"/>
      <path d="M31.05 23.0 Q30.6 22.35 29.8 22.2 L28.55 22.4 Q27.95 22.95 27.85 23.55 27.55 24.25 27.95 24.65 L28.9 25.3 30.2 25.15 Q30.9 24.9 31.2 24.1 31.5 23.45 31.05 23.0 M26.4 23.95 Q27.2 23.6 27.35 22.6 27.75 21.65 27.0 20.9 26.6 20.05 25.75 19.9 24.65 19.8 23.8 20.25 22.9 20.9 22.85 21.8 22.7 22.6 23.05 23.4 L24.45 24.35 Q25.55 24.45 26.4 23.95 M33.35 33.45 L32.7 31.45 28.95 30.35 29.65 25.75 21.4 25.95 21.25 21.8 15.55 22.35 16.65 18.9 16.75 18.7 Q19.75 17.25 22.45 17.15 25.85 16.95 28.6 18.9 33.75 23.3 35.45 30.25 L35.65 32.35 33.35 33.45 M20.35 18.0 Q19.85 18.45 19.75 19.1 19.55 19.85 20.05 20.45 L21.1 21.1 22.45 20.95 Q23.1 20.45 23.15 19.85 23.35 19.05 22.85 18.55 22.6 17.9 21.75 17.95 L20.35 18.0" fill="url(#gradient8)" fill-rule="evenodd" stroke="none"/>
      <path d="M28.1 29.45 L28.45 29.75 28.6 30.2 28.15 30.6 27.55 30.75 Q27.25 30.75 27.0 30.45 26.55 29.85 27.1 29.6 L27.65 29.45 28.1 29.45 M15.4 21.5 L15.55 22.05 15.2 22.5 14.9 22.6 14.15 22.35 13.95 22.0 Q13.95 21.7 14.35 21.45 L14.7 21.2 Q15.15 21.1 15.4 21.5 M20.4 25.0 Q20.95 24.85 21.2 25.2 21.4 25.45 21.2 25.75 L20.75 26.15 20.4 26.25 20.05 26.3 Q19.7 26.2 19.45 25.5 19.55 25.35 19.65 25.35 L19.85 25.2 20.4 25.0" fill="#fdfd93" fill-rule="evenodd" stroke="none"/>
      <path d="M27.55 30.75 L28.15 30.6 28.6 30.2 28.45 29.75 28.1 29.45 28.3 26.65 21.55 27.2 20.5 28.55 20.4 26.25 20.75 26.15 21.2 25.75 Q21.4 25.45 21.2 25.2 20.95 24.85 20.4 25.0 L20.4 24.35 20.2 22.9 16.05 23.3 15.4 25.6 15.35 25.6 14.6 23.1 14.9 22.6 15.2 22.5 15.55 22.05 15.4 21.5 16.65 18.9 15.55 22.35 21.25 21.8 21.4 25.95 29.65 25.75 28.95 30.35 32.7 31.45 33.35 33.45 32.7 33.55 32.05 31.9 28.2 31.15 25.4 32.4 27.55 30.75" fill="#8b8782" fill-rule="evenodd" stroke="none"/>
      <path d="M28.1 29.45 L27.65 29.45 27.1 29.6 Q26.55 29.85 27.0 30.45 27.25 30.75 27.55 30.75 L25.4 32.4 28.2 31.15 32.05 31.9 25.4 32.4 25.95 28.8 28.3 26.65 25.95 28.8 20.45 28.7 20.5 28.55 21.55 27.2 28.3 26.65 28.1 29.45 M15.4 25.6 L16.05 23.3 20.2 22.9 20.4 24.35 20.25 24.3 15.4 25.6" fill="#373633" fill-rule="evenodd" stroke="none"/>
      <path d="M32.05 31.9 L32.7 33.55 33.35 33.45 35.65 32.35 M16.65 18.9 L15.4 21.5 M14.9 22.6 L14.6 23.1 15.35 25.6 15.4 25.6 20.25 24.3 20.4 24.35 20.4 25.0 M20.4 26.25 L20.5 28.55 20.45 28.7 25.95 28.8 25.4 32.4 32.05 31.9 M28.3 26.65 L28.1 29.45 M28.3 26.65 L25.95 28.8 M16.75 18.7 L16.65 18.9" fill="none" stroke="#000000" stroke-linecap="round" stroke-linejoin="round" stroke-opacity="0.3019608" stroke-width="0.05"/>
      <path d="M26.5 35.75 L25.85 35.9 25.2 35.0 25.25 32.75 24.6 34.6 19.8 37.85 18.2 34.2 17.7 34.1 17.45 33.7 17.55 33.25 Q17.75 33.05 18.0 33.0 L18.25 31.35 15.45 33.15 14.75 33.5 14.0 30.9 14.3 29.7 14.75 28.75 13.75 28.85 11.15 32.9 13.35 30.1 14.1 35.4 16.6 33.65 19.5 39.05 24.45 35.9 26.85 37.8 30.9 36.4 30.5 35.95 28.05 36.75 27.2 37.2 26.5 35.75" fill="#8b8782" fill-rule="evenodd" stroke="none"/>
      <path d="M27.1 35.15 L27.1 35.0 Q27.45 34.35 26.6 34.5 L26.3 34.45 Q25.45 34.7 25.2 35.0 L25.85 35.9 26.5 35.75 26.75 35.7 27.1 35.15 M14.0 30.9 L14.15 30.85 14.4 30.85 14.55 30.55 Q14.7 30.1 14.3 29.7 L14.0 30.9 M18.2 34.2 L18.5 34.05 18.7 33.55 Q18.85 33.1 18.65 33.1 L18.0 33.0 Q17.75 33.05 17.55 33.25 L17.45 33.7 17.7 34.1 18.2 34.2" fill="#fdfd93" fill-rule="evenodd" stroke="none"/>
      <path d="M27.1 35.15 L26.75 35.7 26.5 35.75 27.2 37.2 28.05 36.75 27.1 35.15 M25.2 35.0 Q25.45 34.7 26.3 34.45 L26.6 34.5 25.25 32.75 20.45 36.05 18.25 31.35 18.0 33.0 18.65 33.1 Q18.85 33.1 18.7 33.55 L18.5 34.05 18.2 34.2 19.8 37.85 24.6 34.6 25.25 32.75 25.2 35.0 M15.45 33.15 L14.75 28.75 14.3 29.7 Q14.7 30.1 14.55 30.55 L14.4 30.85 14.15 30.85 14.0 30.9 14.75 33.5 15.45 33.15 M20.45 36.05 L19.8 37.85 20.45 36.05" fill="#373633" fill-rule="evenodd" stroke="none"/>
      <path d="M16.85 37.6 Q17.05 36.95 16.7 36.35 16.2 35.65 15.5 35.4 14.95 35.45 14.4 35.75 13.7 36.05 13.6 36.8 13.45 37.55 13.7 38.1 13.95 38.7 14.6 38.9 L16.0 38.8 Q16.8 38.5 16.85 37.6 M18.5 40.8 L19.1 39.85 Q19.25 39.2 18.85 38.9 18.5 38.5 17.95 38.45 17.4 38.35 16.85 38.7 L16.25 39.6 Q16.1 40.05 16.4 40.45 16.75 40.95 17.3 40.95 L18.5 40.8 M12.95 34.05 Q12.45 34.1 12.05 34.55 11.65 34.85 11.5 35.35 L11.55 36.15 Q11.85 36.65 12.2 36.6 L13.25 36.5 13.7 35.65 13.7 34.65 12.95 34.05" fill="#52514f" fill-rule="evenodd" stroke="none"/>
      <path d="M11.15 32.9 Q10.8 36.55 10.9 39.0 11.35 40.25 13.1 41.2 18.0 43.55 27.4 39.9 L30.0 38.7 30.9 36.4 26.85 37.8 24.45 35.9 19.5 39.05 16.6 33.65 14.1 35.4 13.35 30.1 11.15 32.9 M16.85 37.6 Q16.8 38.5 16.0 38.8 L14.6 38.9 Q13.95 38.7 13.7 38.1 13.45 37.55 13.6 36.8 13.7 36.05 14.4 35.75 14.95 35.45 15.5 35.4 16.2 35.65 16.7 36.35 17.05 36.95 16.85 37.6 M12.95 34.05 L13.7 34.65 13.7 35.65 13.25 36.5 12.2 36.6 Q11.85 36.65 11.55 36.15 L11.5 35.35 Q11.65 34.85 12.05 34.55 12.45 34.1 12.95 34.05 M18.5 40.8 L17.3 40.95 Q16.75 40.95 16.4 40.45 16.1 40.05 16.25 39.6 L16.85 38.7 Q17.4 38.35 17.95 38.45 18.5 38.5 18.85 38.9 19.25 39.2 19.1 39.85 L18.5 40.8" fill="url(#gradient9)" fill-rule="evenodd" stroke="none"/>
      <path d="M26.6 34.5 L25.25 32.75 20.45 36.05 18.25 31.35 15.45 33.15 14.75 28.75 13.75 28.85 11.15 32.9 M30.0 38.7 L30.9 36.4 30.5 35.95 28.05 36.75 27.1 35.15 M24.6 34.6 L19.8 37.85 20.45 36.05" fill="none" stroke="#000000" stroke-linecap="round" stroke-linejoin="round" stroke-opacity="0.3019608" stroke-width="0.05"/>
      <path d="M33.05 28.15 Q31.3 29.0 30.1 30.85 28.9 32.85 28.9 34.75 28.9 36.7 30.1 37.4 L33.05 37.35 Q34.75 36.55 36.0 34.55 37.2 32.7 37.2 30.75 37.2 28.85 36.0 28.05 L33.05 28.15" fill="#52514f" fill-rule="evenodd" stroke="none"/>
      <path d="M33.05 28.15 Q31.3 29.0 30.1 30.85 28.9 32.85 28.9 34.75 28.9 36.7 30.1 37.4 L33.05 37.35 Q34.75 36.55 36.0 34.55 37.2 32.7 37.2 30.75 37.2 28.85 36.0 28.05 L33.05 28.15 Z" fill="none" stroke="#000000" stroke-linecap="round" stroke-linejoin="round" stroke-opacity="0.2" stroke-width="0.05"/>
      <path d="M34.05 27.8 L33.05 28.15 32.75 28.3 Q33.25 30.5 33.25 32.95 L34.55 32.0 33.25 32.95 Q31.3 34.1 28.9 35.05 L29.15 36.4 33.15 34.55 32.5 37.6 33.05 37.35 33.85 36.9 34.1 36.75 34.55 33.7 33.15 34.55 34.55 33.7 37.15 31.65 37.2 30.75 37.1 29.9 34.55 32.0 34.05 27.8" fill="#2c2b29" fill-rule="evenodd" stroke="none"/>
      <path d="M34.05 27.8 L33.05 28.15 32.75 28.3 Q31.2 29.15 30.1 30.85 28.9 32.85 28.9 34.75 L28.9 35.05 29.15 36.4 30.1 37.4 32.5 37.6 33.05 37.35 33.85 36.9 34.1 36.75 Q35.15 35.9 36.0 34.55 36.95 33.1 37.15 31.65 L37.2 30.75 37.1 29.9 Q36.9 28.65 36.0 28.05 35.1 27.55 34.05 27.8 L34.55 32.0 33.25 32.95 Q33.25 30.5 32.75 28.3 M33.15 34.55 L34.55 33.7 34.1 36.75 M37.1 29.9 L34.55 32.0 M34.55 33.7 L37.15 31.65 M29.15 36.4 L33.15 34.55 32.5 37.6 M33.25 32.95 Q31.3 34.1 28.9 35.05" fill="none" stroke="#000000" stroke-linecap="round" stroke-linejoin="round" stroke-opacity="0.2" stroke-width="0.05"/>
      <path d="M31.7 32.75 Q31.35 32.75 31.15 32.95 L30.9 33.5 31.15 34.1 Q31.35 34.3 31.7 34.3 L32.25 34.1 32.5 33.5 32.25 32.95 31.7 32.75" fill="#99938a" fill-rule="evenodd" stroke="none"/>
    </g>
    <linearGradient gradientTransform="matrix(0.0, 0.0, 0.0, 0.0, 526.3, 29.15)" gradientUnits="userSpaceOnUse" id="gradient5" spreadMethod="pad" x1="-819.2" x2="819.2">
      <stop offset="0.0" stop-color="#373633"/>
      <stop offset="1.0" stop-color="#52514f"/>
    </linearGradient>
    <radialGradient cx="0" cy="0" gradientTransform="matrix(0.0061, -0.0069, 0.0027, 0.0051, 14.85, 28.65)" gradientUnits="userSpaceOnUse" id="gradient6" r="819.2" spreadMethod="pad">
      <stop offset="0.0" stop-color="#ffa529"/>
      <stop offset="1.0" stop-color="#ffa429" stop-opacity="0.0"/>
    </radialGradient>
    <radialGradient cx="0" cy="0" gradientTransform="matrix(0.0059, -0.0069, 0.0028, 0.0051, 22.8, 32.55)" gradientUnits="userSpaceOnUse" id="gradient7" r="819.2" spreadMethod="pad">
      <stop offset="0.0" stop-color="#ffa529"/>
      <stop offset="1.0" stop-color="#ffa429" stop-opacity="0.0"/>
    </radialGradient>
    <linearGradient gradientTransform="matrix(0.0023, -0.0027, -0.0059, -0.0047, 26.25, 21.55)" gradientUnits="userSpaceOnUse" id="gradient8" spreadMethod="pad" x1="-819.2" x2="819.2">
      <stop offset="0.0" stop-color="#52514f"/>
      <stop offset="1.0" stop-color="#373633"/>
    </linearGradient>
    <linearGradient gradientTransform="matrix(-0.0018, 0.0029, -0.0066, -0.0017, 16.35, 37.8)" gradientUnits="userSpaceOnUse" id="gradient9" spreadMethod="pad" x1="-819.2" x2="819.2">
      <stop offset="0.0" stop-color="#52514f"/>
      <stop offset="1.0" stop-color="#373633"/>
    </linearGradient>
  </defs>
</svg>
