<?xml version="1.0" encoding="UTF-8" standalone="no"?>
<svg xmlns:xlink="http://www.w3.org/1999/xlink" height="440.0px" width="440.0px" xmlns="http://www.w3.org/2000/svg">
  <g transform="matrix(10.0, 0.0, 0.0, 10.0, 0.0, 0.0)">
    <use height="44.0" transform="matrix(1.0, 0.0, 0.0, 1.0, 0.0, 0.0)" width="44.0" xlink:href="#shape0"/>
  </g>
  <defs>
    <g id="shape0" transform="matrix(1.0, 0.0, 0.0, 1.0, 0.0, 0.0)">
      <path d="M44.0 44.0 L0.0 44.0 0.0 0.0 44.0 0.0 44.0 44.0" fill="#43adca" fill-opacity="0.0" fill-rule="evenodd" stroke="none"/>
      <path d="M12.85 23.15 L12.05 22.0 7.0 22.1 10.25 23.3 12.85 23.15" fill="#929123" fill-rule="evenodd" stroke="none"/>
      <path d="M12.05 22.0 L12.85 23.15 Q19.35 22.7 23.05 20.35 L22.65 19.85 Q17.5 21.55 12.05 22.0" fill="#5a5225" fill-rule="evenodd" stroke="none"/>
      <path d="M12.05 22.0 Q17.5 21.55 22.65 19.85 M23.05 20.35 Q19.35 22.7 12.85 23.15 L10.25 23.3 M7.0 22.1 L12.05 22.0" fill="none" stroke="#382510" stroke-linecap="round" stroke-linejoin="round" stroke-opacity="0.2" stroke-width="0.4"/>
      <path d="M10.25 23.3 L7.0 22.1" fill="none" stroke="#382510" stroke-linecap="round" stroke-linejoin="round" stroke-opacity="0.15294118" stroke-width="0.2"/>
      <path d="M7.55 31.7 L7.9 30.55 Q13.9 22.4 19.45 20.45 L19.75 21.2 Q14.65 24.75 10.55 29.6 L7.55 31.7" fill="#978e24" fill-rule="evenodd" stroke="none"/>
      <path d="M10.55 29.6 Q8.5 32.05 6.7 34.75 L7.55 31.7 10.55 29.6" fill="#baaf38" fill-rule="evenodd" stroke="none"/>
      <path d="M7.9 30.55 Q13.9 22.4 19.45 20.45 M19.75 21.2 Q14.65 24.75 10.55 29.6 8.5 32.05 6.7 34.75" fill="none" stroke="#382510" stroke-linecap="round" stroke-linejoin="round" stroke-opacity="0.2" stroke-width="0.4"/>
      <path d="M7.55 31.7 L7.9 30.55 M6.7 34.75 L7.55 31.7" fill="none" stroke="#382510" stroke-linecap="round" stroke-linejoin="round" stroke-opacity="0.15294118" stroke-width="0.2"/>
      <path d="M10.7 33.5 Q12.1 26.05 16.3 21.85 L17.15 22.3 Q14.6 27.0 13.25 31.9 L10.7 33.5" fill="#978e24" fill-rule="evenodd" stroke="none"/>
      <path d="M13.25 31.9 Q12.0 36.6 11.9 41.6 L10.15 37.5 10.7 33.5 13.25 31.9" fill="#bbaf2b" fill-rule="evenodd" stroke="none"/>
      <path d="M10.7 33.5 Q12.1 26.05 16.3 21.85 M17.15 22.3 Q14.6 27.0 13.25 31.9 12.0 36.6 11.9 41.6 M10.15 37.5 L10.7 33.5" fill="none" stroke="#382510" stroke-linecap="round" stroke-linejoin="round" stroke-opacity="0.2" stroke-width="0.4"/>
      <path d="M11.9 41.6 L10.15 37.5" fill="none" stroke="#382510" stroke-linecap="round" stroke-linejoin="round" stroke-opacity="0.15294118" stroke-width="0.2"/>
      <path d="M28.45 27.1 L29.35 26.85 Q30.7 26.8 31.3 27.75 31.75 28.35 31.85 29.25 L31.7 30.4 Q32.7 29.3 33.05 27.9 33.35 26.4 33.1 25.5 32.75 25.1 31.95 24.85 31.2 24.65 30.9 24.35 L29.45 23.45 28.25 23.4 26.65 23.6 24.95 23.9 24.25 24.25 Q26.5 24.4 28.05 25.5 28.75 25.95 28.45 26.7 L28.45 27.1 M26.6 32.1 L20.6 31.9 Q16.0 31.45 13.75 26.7 12.55 26.7 13.45 29.65 16.15 34.65 21.4 34.35 26.7 33.85 27.5 32.7 28.0 31.9 26.6 32.1 M17.95 25.6 Q21.5 23.35 26.55 23.05 18.85 21.4 17.95 25.6" fill="#823909" fill-rule="evenodd" stroke="none"/>
      <path d="M30.75 27.6 L30.9 27.95 29.95 29.2 Q28.8 30.3 27.45 30.75 L25.5 31.25 24.8 31.15 25.55 30.6 27.05 29.5 27.35 29.35 27.6 29.2 29.05 27.6 29.25 27.3 Q30.2 26.85 30.75 27.6 M31.7 30.4 L31.85 29.25 Q31.75 28.35 31.3 27.75 30.7 26.8 29.35 26.85 L28.45 27.1 Q27.8 28.2 26.5 29.0 L26.4 28.8 26.2 29.15 Q24.0 30.15 21.45 30.1 19.15 30.0 17.8 29.05 17.05 28.35 17.25 27.75 17.85 26.4 19.5 25.5 21.6 24.3 24.25 24.25 L24.95 23.9 26.65 23.6 28.25 23.4 29.45 23.45 30.9 24.35 Q31.2 24.65 31.95 24.85 32.75 25.1 33.1 25.5 33.05 23.9 31.95 22.65 L29.15 23.2 Q24.55 20.55 18.75 23.25 L17.4 24.05 Q16.45 24.7 15.9 26.95 L16.95 28.85 Q17.9 30.15 21.15 30.65 14.95 30.2 14.55 25.8 15.35 23.25 19.25 20.4 18.3 20.8 17.4 21.45 13.65 23.45 12.9 26.55 11.85 30.05 14.85 32.6 17.3 34.65 21.4 34.75 25.35 34.85 28.65 32.95 30.65 31.85 31.7 30.4 M26.6 32.1 Q28.0 31.9 27.5 32.7 26.7 33.85 21.4 34.35 16.15 34.65 13.45 29.65 12.55 26.7 13.75 26.7 16.0 31.45 20.6 31.9 L26.6 32.1 M17.95 25.6 Q18.85 21.4 26.55 23.05 21.5 23.35 17.95 25.6" fill="#cb7f13" fill-rule="evenodd" stroke="none"/>
      <path d="M30.75 27.6 Q30.2 26.85 29.25 27.3 L29.05 27.6 27.6 29.2 27.35 29.35 27.05 29.5 25.55 30.6 24.8 31.15 25.5 31.25 27.45 30.75 Q28.8 30.3 29.95 29.2 L30.9 27.95 30.75 27.6" fill="#f5b527" fill-rule="evenodd" stroke="none"/>
      <path d="M17.45 23.65 L18.1 22.95 Q18.7 22.05 18.25 22.3 17.75 22.25 17.3 22.7 15.8 24.25 16.15 24.45 L16.45 24.7 16.65 24.6 17.45 23.65" fill="#ffff42" fill-rule="evenodd" stroke="none"/>
      <path d="M19.25 20.4 Q15.35 23.25 14.55 25.8 14.95 30.2 21.15 30.65 17.9 30.15 16.95 28.85 L15.9 26.95 Q16.45 24.7 17.4 24.05 L18.75 23.25 Q24.55 20.55 29.15 23.2 L31.95 22.65 31.0 21.7 Q28.55 19.7 24.45 19.55 21.8 19.65 19.25 20.4 M17.45 23.65 L16.65 24.6 16.45 24.7 16.15 24.45 Q15.8 24.25 17.3 22.7 17.75 22.25 18.25 22.3 18.7 22.05 18.1 22.95 L17.45 23.65" fill="#f9cc64" fill-rule="evenodd" stroke="none"/>
      <path d="M28.45 27.1 L28.45 26.7 Q28.75 25.95 28.05 25.5 26.5 24.4 24.25 24.25 M33.1 25.5 Q33.35 26.4 33.05 27.9 32.7 29.3 31.7 30.4 30.65 31.85 28.65 32.95 25.35 34.85 21.4 34.75 17.3 34.65 14.85 32.6 11.85 30.05 12.9 26.55 13.65 23.45 17.4 21.45 18.3 20.8 19.25 20.4 21.8 19.65 24.45 19.55 28.55 19.7 31.0 21.7 L31.95 22.65 Q33.05 23.9 33.1 25.5 M28.45 27.1 Q27.8 28.2 26.5 29.0 L26.4 28.8 26.2 29.15 Q24.0 30.15 21.45 30.1 19.15 30.0 17.8 29.05 17.05 28.35 17.25 27.75 17.85 26.4 19.5 25.5 21.6 24.3 24.25 24.25" fill="none" stroke="#000000" stroke-linecap="round" stroke-linejoin="miter" stroke-opacity="0.5019608" stroke-width="0.05"/>
      <path d="M36.0 25.6 Q37.95 27.0 40.15 28.25 L36.75 27.6 34.55 26.15 36.0 25.6" fill="#929123" fill-rule="evenodd" stroke="none"/>
      <path d="M34.55 26.15 Q29.35 22.4 27.6 18.55 L28.2 18.3 Q31.6 22.4 36.0 25.6 L34.55 26.15" fill="#5a5225" fill-rule="evenodd" stroke="none"/>
      <path d="M36.0 25.6 Q37.95 27.0 40.15 28.25 M36.75 27.6 L34.55 26.15 Q29.35 22.4 27.6 18.55 M28.2 18.3 Q31.6 22.4 36.0 25.6" fill="none" stroke="#382510" stroke-linecap="round" stroke-linejoin="round" stroke-opacity="0.2" stroke-width="0.4"/>
      <path d="M40.15 28.25 L36.75 27.6" fill="none" stroke="#382510" stroke-linecap="round" stroke-linejoin="round" stroke-opacity="0.15294118" stroke-width="0.2"/>
      <path d="M32.9 32.75 L34.2 36.05 33.2 39.0 32.9 32.75" fill="#929123" fill-rule="evenodd" stroke="none"/>
      <path d="M34.55 34.9 L34.2 36.05 32.9 32.75 Q32.15 26.6 29.9 21.0 L30.55 20.5 Q34.15 25.0 34.55 34.9" fill="#5a5225" fill-rule="evenodd" stroke="none"/>
      <path d="M34.55 34.9 Q34.15 25.0 30.55 20.5 M29.9 21.0 Q32.15 26.6 32.9 32.75 M33.2 39.0 L32.9 32.75" fill="none" stroke="#382510" stroke-linecap="round" stroke-linejoin="round" stroke-opacity="0.2" stroke-width="0.4"/>
      <path d="M34.2 36.05 L34.55 34.9 M34.2 36.05 L33.2 39.0" fill="none" stroke="#382510" stroke-linecap="round" stroke-linejoin="round" stroke-opacity="0.15294118" stroke-width="0.2"/>
      <path d="M29.25 33.25 L30.55 35.95 28.7 39.55 24.9 42.05 Q27.6 37.85 29.25 33.25" fill="#929123" fill-rule="evenodd" stroke="none"/>
      <path d="M32.4 23.3 Q33.6 28.95 30.55 35.95 L29.25 33.25 Q30.9 28.45 31.4 23.25 L32.4 23.3" fill="#5a5225" fill-rule="evenodd" stroke="none"/>
      <path d="M30.55 35.95 Q33.6 28.95 32.4 23.3 M31.4 23.25 Q30.9 28.45 29.25 33.25 M30.55 35.95 L28.7 39.55 M24.9 42.05 Q27.6 37.85 29.25 33.25" fill="none" stroke="#382510" stroke-linecap="round" stroke-linejoin="round" stroke-opacity="0.2" stroke-width="0.4"/>
      <path d="M28.7 39.55 L24.9 42.05" fill="none" stroke="#382510" stroke-linecap="round" stroke-linejoin="round" stroke-opacity="0.15294118" stroke-width="0.2"/>
      <path d="M31.35 24.6 Q32.3 23.3 32.65 21.7 32.9 20.0 32.65 19.05 L31.5 18.45 Q30.7 18.3 30.35 18.0 29.75 17.3 28.9 17.1 L27.7 17.25 Q26.8 17.15 26.05 17.6 25.25 17.65 24.45 18.15 L23.7 18.65 Q25.95 18.5 27.6 19.55 28.3 20.0 28.0 20.9 L28.0 21.3 Q28.4 21.0 28.9 20.95 30.3 20.8 30.85 21.75 L31.5 23.35 31.35 24.6 M26.25 27.05 L20.2 27.5 Q15.6 27.5 13.25 22.5 12.05 22.55 13.0 25.8 15.75 30.95 21.05 30.05 26.45 28.95 27.2 27.55 27.7 26.65 26.25 27.05 M17.45 20.8 Q20.9 17.9 25.95 17.0 18.25 16.0 17.45 20.8" fill="#823909" fill-rule="evenodd" stroke="none"/>
      <path d="M31.35 24.6 L31.5 23.35 30.85 21.75 Q30.3 20.8 28.9 20.95 28.4 21.0 28.0 21.3 L26.05 23.65 25.95 23.5 25.8 23.8 Q23.6 25.2 21.05 25.4 18.75 25.5 17.3 24.65 16.6 23.95 16.8 23.2 17.35 21.7 18.9 20.55 21.05 18.95 23.7 18.65 L24.45 18.15 Q25.25 17.65 26.05 17.6 26.8 17.15 27.7 17.25 L28.9 17.1 Q29.75 17.3 30.35 18.0 30.7 18.3 31.5 18.45 L32.65 19.05 Q32.55 17.3 31.45 16.0 L28.6 16.9 Q23.95 14.45 18.15 18.1 L16.85 19.1 Q15.8 19.95 15.4 22.5 L16.5 24.45 Q17.5 25.85 20.8 26.0 14.45 26.2 13.95 21.35 14.75 18.45 18.55 14.9 L16.75 16.25 Q13.0 18.9 12.3 22.4 11.3 26.4 14.45 28.9 16.95 30.85 21.1 30.55 25.05 30.25 28.35 27.75 30.3 26.3 31.35 24.6 M30.3 21.6 L30.45 21.95 Q30.2 22.85 29.55 23.45 28.4 24.8 27.1 25.4 L25.15 26.2 24.45 26.2 25.2 25.5 26.7 24.1 26.9 23.95 27.25 23.75 28.65 21.8 Q28.55 21.6 28.8 21.45 29.8 20.8 30.3 21.6 M26.25 27.05 Q27.7 26.65 27.2 27.55 26.45 28.95 21.05 30.05 15.75 30.95 13.0 25.8 12.05 22.55 13.25 22.5 15.6 27.5 20.2 27.5 L26.25 27.05 M17.45 20.8 Q18.25 16.0 25.95 17.0 20.9 17.9 17.45 20.8" fill="#cb7f13" fill-rule="evenodd" stroke="none"/>
      <path d="M30.3 21.6 Q29.8 20.8 28.8 21.45 28.55 21.6 28.65 21.8 L27.25 23.75 26.9 23.95 26.7 24.1 25.2 25.5 24.45 26.2 25.15 26.2 27.1 25.4 Q28.4 24.8 29.55 23.45 30.2 22.85 30.45 21.95 L30.3 21.6" fill="#f5b527" fill-rule="evenodd" stroke="none"/>
      <path d="M16.85 18.7 L17.5 17.85 Q18.1 16.8 17.65 17.05 17.15 17.1 16.7 17.65 15.25 19.5 15.55 19.7 L15.8 19.95 16.1 19.8 16.85 18.7" fill="#ffff42" fill-rule="evenodd" stroke="none"/>
      <path d="M31.45 16.0 L30.5 15.05 Q27.95 13.05 23.8 13.35 21.15 13.75 18.55 14.9 14.75 18.45 13.95 21.35 14.45 26.2 20.8 26.0 17.5 25.85 16.5 24.45 L15.4 22.5 Q15.8 19.95 16.85 19.1 L18.15 18.1 Q23.95 14.45 28.6 16.9 L31.45 16.0 M16.85 18.7 L16.1 19.8 15.8 19.95 15.55 19.7 Q15.25 19.5 16.7 17.65 17.15 17.1 17.65 17.05 18.1 16.8 17.5 17.85 L16.85 18.7" fill="#f9cc64" fill-rule="evenodd" stroke="none"/>
      <path d="M32.65 19.05 Q32.9 20.0 32.65 21.7 32.3 23.3 31.35 24.6 M28.0 21.3 L28.0 20.9 Q28.3 20.0 27.6 19.55 25.95 18.5 23.7 18.65 M32.65 19.05 Q32.55 17.3 31.45 16.0 L30.5 15.05 Q27.95 13.05 23.8 13.35 21.15 13.75 18.55 14.9 L16.75 16.25 Q13.0 18.9 12.3 22.4 11.3 26.4 14.45 28.9 16.95 30.85 21.1 30.55 25.05 30.25 28.35 27.75 30.3 26.3 31.35 24.6 M28.0 21.3 L26.05 23.65 25.95 23.5 25.8 23.8 Q23.6 25.2 21.05 25.4 18.75 25.5 17.3 24.65 16.6 23.95 16.8 23.2 17.35 21.7 18.9 20.55 21.05 18.95 23.7 18.65" fill="none" stroke="#000000" stroke-linecap="round" stroke-linejoin="miter" stroke-opacity="0.5019608" stroke-width="0.05"/>
      <path d="M26.2 15.2 Q26.55 14.9 27.05 14.75 28.35 14.45 28.9 15.4 L29.55 17.0 29.4 18.35 Q30.35 16.9 30.65 15.2 30.85 13.4 30.6 12.4 30.2 12.0 29.45 11.9 L28.35 11.55 Q27.75 10.9 26.95 10.75 26.2 10.7 25.8 11.0 24.9 11.0 24.25 11.55 23.45 11.65 22.7 12.3 L22.0 12.85 Q24.15 12.45 25.75 13.45 26.4 13.8 26.15 14.8 L26.2 15.2 M24.6 21.4 Q23.25 22.0 18.8 22.4 14.4 22.85 12.05 17.85 10.9 18.05 11.9 21.3 14.65 26.45 19.7 25.0 24.8 23.35 25.5 21.85 25.95 20.85 24.6 21.4 M16.05 15.65 Q19.3 12.3 24.15 10.9 16.7 10.6 16.05 15.65" fill="#823909" fill-rule="evenodd" stroke="none"/>
      <path d="M28.4 15.35 L28.55 15.7 27.7 17.35 Q26.65 18.85 25.35 19.6 L23.5 20.6 22.85 20.65 23.55 19.85 24.95 18.25 25.2 18.05 25.5 17.85 26.8 15.7 Q26.7 15.5 26.9 15.3 L28.4 15.35 M29.4 18.35 L29.55 17.0 28.9 15.4 Q28.35 14.45 27.05 14.75 26.55 14.9 26.2 15.2 25.6 16.6 24.35 17.85 L24.25 17.7 24.1 18.05 Q22.0 19.7 19.6 20.15 17.4 20.45 16.0 19.7 15.3 19.05 15.45 18.25 15.95 16.65 17.45 15.25 19.45 13.4 22.0 12.85 L22.7 12.3 Q23.45 11.65 24.25 11.55 24.9 11.0 25.8 11.0 26.2 10.7 26.95 10.75 27.75 10.9 28.35 11.55 L29.45 11.9 Q30.2 12.0 30.6 12.4 30.45 10.6 29.35 9.4 L26.65 10.55 Q22.15 8.45 16.65 12.8 L15.45 14.0 Q14.45 14.95 14.1 17.65 L15.2 19.6 Q16.2 20.95 19.35 20.8 13.3 21.65 12.7 16.6 13.4 13.45 17.0 9.4 L15.3 11.0 Q11.75 14.1 11.15 17.85 10.3 22.1 13.35 24.4 15.75 26.25 19.75 25.5 23.5 24.8 26.6 21.9 28.5 20.2 29.4 18.35 M24.6 21.4 Q25.95 20.85 25.5 21.85 24.8 23.35 19.7 25.0 14.65 26.45 11.9 21.3 10.9 18.05 12.05 17.85 14.4 22.85 18.8 22.4 23.25 22.0 24.6 21.4 M16.05 15.65 Q16.7 10.6 24.15 10.9 19.3 12.3 16.05 15.65" fill="#cb7f13" fill-rule="evenodd" stroke="none"/>
      <path d="M28.4 15.35 L26.9 15.3 Q26.7 15.5 26.8 15.7 L25.5 17.85 25.2 18.05 24.95 18.25 23.55 19.85 22.85 20.65 23.5 20.6 25.35 19.6 Q26.65 18.85 27.7 17.35 L28.55 15.7 28.4 15.35" fill="#f5b527" fill-rule="evenodd" stroke="none"/>
      <path d="M15.45 13.55 L16.05 12.6 Q16.6 11.45 16.15 11.75 L15.25 12.45 Q13.9 14.5 14.2 14.75 L14.45 14.95 14.75 14.75 15.45 13.55" fill="#ffff42" fill-rule="evenodd" stroke="none"/>
      <path d="M17.0 9.4 Q13.4 13.45 12.7 16.6 13.3 21.65 19.35 20.8 16.2 20.95 15.2 19.6 L14.1 17.65 Q14.45 14.95 15.45 14.0 L16.65 12.8 Q22.15 8.45 26.65 10.55 L29.35 9.4 28.4 8.45 Q25.95 6.6 21.95 7.35 19.45 8.0 17.0 9.4 M15.45 13.55 L14.75 14.75 14.45 14.95 14.2 14.75 Q13.9 14.5 15.25 12.45 L16.15 11.75 Q16.6 11.45 16.05 12.6 L15.45 13.55" fill="#f9cc64" fill-rule="evenodd" stroke="none"/>
      <path d="M26.2 15.2 L26.15 14.8 Q26.4 13.8 25.75 13.45 24.15 12.45 22.0 12.85 M30.6 12.4 Q30.85 13.4 30.65 15.2 30.35 16.9 29.4 18.35 28.5 20.2 26.6 21.9 23.5 24.8 19.75 25.5 15.75 26.25 13.35 24.4 10.3 22.1 11.15 17.85 11.75 14.1 15.3 11.0 L17.0 9.4 Q19.45 8.0 21.95 7.35 25.95 6.6 28.4 8.45 L29.35 9.4 Q30.45 10.6 30.6 12.4 M26.2 15.2 Q25.6 16.6 24.35 17.85 L24.25 17.7 24.1 18.05 Q22.0 19.7 19.6 20.15 17.4 20.45 16.0 19.7 15.3 19.05 15.45 18.25 15.95 16.65 17.45 15.25 19.45 13.4 22.0 12.85" fill="none" stroke="#000000" stroke-linecap="round" stroke-linejoin="miter" stroke-opacity="0.5019608" stroke-width="0.05"/>
      <path d="M27.3 13.2 Q28.25 11.75 28.55 10.05 28.75 8.25 28.5 7.25 28.1 6.85 27.35 6.75 L26.25 6.4 Q25.65 5.75 24.85 5.6 24.1 5.55 23.7 5.85 22.8 5.85 22.15 6.4 21.35 6.5 20.6 7.15 L19.9 7.7 Q22.05 7.3 23.65 8.3 24.3 8.65 24.05 9.65 L24.1 10.05 Q24.45 9.75 24.95 9.6 26.25 9.3 26.8 10.25 L27.45 11.85 27.3 13.2 M22.5 16.25 L16.7 17.25 Q12.3 17.7 9.95 12.7 8.8 12.9 9.8 16.15 12.55 21.3 17.6 19.85 22.7 18.2 23.4 16.7 23.85 15.7 22.5 16.25 M13.95 10.5 Q17.2 7.15 22.05 5.75 14.6 5.45 13.95 10.5" fill="#823909" fill-rule="evenodd" stroke="none"/>
      <path d="M27.3 13.2 L27.45 11.85 26.8 10.25 Q26.25 9.3 24.95 9.6 24.45 9.75 24.1 10.05 23.5 11.45 22.25 12.7 L22.15 12.55 22.0 12.9 Q19.9 14.55 17.5 15.0 15.3 15.3 13.9 14.55 13.2 13.9 13.35 13.1 13.85 11.5 15.35 10.1 17.35 8.25 19.9 7.7 L20.6 7.15 Q21.35 6.5 22.15 6.4 22.8 5.85 23.7 5.85 24.1 5.55 24.85 5.6 25.65 5.75 26.25 6.4 L27.35 6.75 Q28.1 6.85 28.5 7.25 28.35 5.45 27.25 4.25 L24.55 5.4 Q20.05 3.3 14.55 7.65 L13.35 8.85 Q12.35 9.8 12.0 12.5 L13.1 14.45 Q14.1 15.8 17.25 15.65 11.2 16.5 10.6 11.45 11.3 8.3 14.9 4.25 L13.2 5.85 Q9.65 8.95 9.05 12.7 8.2 16.95 11.25 19.25 13.65 21.1 17.65 20.35 21.4 19.65 24.5 16.75 26.4 15.05 27.3 13.2 M26.3 10.2 L26.45 10.55 25.6 12.2 Q24.55 13.7 23.25 14.45 L21.4 15.45 20.75 15.5 21.45 14.7 22.85 13.1 23.1 12.9 23.4 12.7 24.7 10.55 Q24.6 10.35 24.8 10.15 L26.3 10.2 M22.5 16.25 Q23.85 15.7 23.4 16.7 22.7 18.2 17.6 19.85 12.55 21.3 9.8 16.15 8.8 12.9 9.95 12.7 12.3 17.7 16.7 17.25 L22.5 16.25 M13.95 10.5 Q14.6 5.45 22.05 5.75 17.2 7.15 13.95 10.5" fill="#cb7f13" fill-rule="evenodd" stroke="none"/>
      <path d="M26.3 10.2 L24.8 10.15 Q24.6 10.35 24.7 10.55 L23.4 12.7 23.1 12.9 22.85 13.1 21.45 14.7 20.75 15.5 21.4 15.45 23.25 14.45 Q24.55 13.7 25.6 12.2 L26.45 10.55 26.3 10.2" fill="#f5b527" fill-rule="evenodd" stroke="none"/>
      <path d="M13.35 8.4 L13.95 7.45 Q14.5 6.3 14.05 6.6 13.6 6.7 13.15 7.3 11.8 9.35 12.1 9.6 L12.35 9.8 12.65 9.6 13.35 8.4" fill="#ffff42" fill-rule="evenodd" stroke="none"/>
      <path d="M27.25 4.25 L26.3 3.3 Q23.85 1.45 19.85 2.2 17.35 2.85 14.9 4.25 11.3 8.3 10.6 11.45 11.2 16.5 17.25 15.65 14.1 15.8 13.1 14.45 L12.0 12.5 Q12.35 9.8 13.35 8.85 L14.55 7.65 Q20.05 3.3 24.55 5.4 L27.25 4.25 M13.35 8.4 L12.65 9.6 12.35 9.8 12.1 9.6 Q11.8 9.35 13.15 7.3 13.6 6.7 14.05 6.6 14.5 6.3 13.95 7.45 L13.35 8.4" fill="#f9cc64" fill-rule="evenodd" stroke="none"/>
      <path d="M28.5 7.25 Q28.75 8.25 28.55 10.05 28.25 11.75 27.3 13.2 M24.1 10.05 L24.05 9.65 Q24.3 8.65 23.65 8.3 22.05 7.3 19.9 7.7 M28.5 7.25 Q28.35 5.45 27.25 4.25 L26.3 3.3 Q23.85 1.45 19.85 2.2 17.35 2.85 14.9 4.25 L13.2 5.85 Q9.65 8.95 9.05 12.7 8.2 16.95 11.25 19.25 13.65 21.1 17.65 20.35 21.4 19.65 24.5 16.75 26.4 15.05 27.3 13.2 M24.1 10.05 Q23.5 11.45 22.25 12.7 L22.15 12.55 22.0 12.9 Q19.9 14.55 17.5 15.0 15.3 15.3 13.9 14.55 13.2 13.9 13.35 13.1 13.85 11.5 15.35 10.1 17.35 8.25 19.9 7.7" fill="none" stroke="#000000" stroke-linecap="round" stroke-linejoin="miter" stroke-opacity="0.5019608" stroke-width="0.05"/>
      <path d="M14.7 26.3 Q15.5 27.3 17.15 23.85 16.85 25.0 16.75 26.8 L16.75 29.75 Q15.55 29.85 14.15 34.6 14.2 29.5 14.7 26.3" fill="#7b6020" fill-rule="evenodd" stroke="none"/>
      <path d="M17.15 23.85 Q15.5 27.3 14.7 26.3 15.65 18.7 18.45 21.65 17.6 22.05 17.15 23.85 M14.15 34.6 Q15.55 29.85 16.75 29.75 L16.6 38.9 14.1 36.65 14.15 34.6" fill="#4b340e" fill-rule="evenodd" stroke="none"/>
      <path d="M17.15 23.85 Q17.6 22.05 18.45 21.65 15.65 18.7 14.7 26.3 14.2 29.5 14.15 34.6 M16.75 29.75 L16.75 26.8 Q16.85 25.0 17.15 23.85 M16.75 29.75 L16.6 38.9 14.1 36.65 14.15 34.6" fill="none" stroke="#382510" stroke-linecap="round" stroke-linejoin="round" stroke-opacity="0.3019608" stroke-width="0.6000000000000001"/>
      <path d="M17.55 35.85 Q18.4 36.8 18.25 38.0 18.15 39.25 17.15 39.95 16.2 40.7 15.0 40.6 13.75 40.45 13.0 39.55 12.3 38.65 12.4 37.4 12.55 36.2 13.4 35.45 14.35 34.6 15.6 34.75 16.8 34.85 17.55 35.85 M16.8 37.15 Q16.85 36.4 16.35 35.75 15.85 35.15 15.05 35.05 14.25 34.95 13.65 35.45 13.05 36.0 13.0 36.75 12.9 37.55 13.4 38.1 13.9 38.8 14.7 38.9 15.5 39.0 16.1 38.4 16.7 37.95 16.8 37.15" fill="#6c2206" fill-rule="evenodd" stroke="none"/>
      <path d="M16.8 37.15 Q16.7 37.95 16.1 38.4 15.5 39.0 14.7 38.9 13.9 38.8 13.4 38.1 12.9 37.55 13.0 36.75 13.05 36.0 13.65 35.45 14.25 34.95 15.05 35.05 15.85 35.15 16.35 35.75 16.85 36.4 16.8 37.15" fill="#c16100" fill-rule="evenodd" stroke="none"/>
      <path d="M17.55 35.85 Q18.4 36.8 18.25 38.0 18.15 39.25 17.15 39.95 16.2 40.7 15.0 40.6 13.75 40.45 13.0 39.55 12.3 38.65 12.4 37.4 12.55 36.2 13.4 35.45 14.35 34.6 15.6 34.75 16.8 34.85 17.55 35.85 Z" fill="none" stroke="#382510" stroke-linecap="round" stroke-linejoin="round" stroke-opacity="0.3019608" stroke-width="0.30000000000000004"/>
      <path d="M14.65 36.7 L14.1 36.9 13.65 36.6 13.5 36.1 Q13.55 35.75 13.75 35.55 L14.25 35.4 14.75 35.65 14.95 36.25 14.65 36.7" fill="#ffa004" fill-rule="evenodd" stroke="none"/>
      <path d="M18.8 17.05 Q21.55 16.4 21.75 19.0 L18.85 20.25 Q18.85 20.55 18.95 20.45 21.75 19.5 22.35 21.75 22.85 23.9 20.7 25.0 18.05 25.6 17.65 23.4 L19.15 22.85 19.4 22.0 18.55 21.3 16.5 19.6 Q16.9 18.15 18.95 18.15 L19.2 18.05 19.15 17.9 18.9 17.3 18.8 17.05" fill="#000000" fill-opacity="0.3019608" fill-rule="evenodd" stroke="none"/>
      <path d="M18.55 21.3 L19.4 22.0 19.15 22.85 17.65 23.4 Q15.15 24.0 13.8 21.65 16.15 23.1 17.25 21.45 L18.55 21.3" fill="#823909" fill-rule="evenodd" stroke="none"/>
      <path d="M18.8 17.05 L18.9 17.3 19.15 17.9 19.2 18.05 18.95 18.15 Q16.9 18.15 16.5 19.6 16.35 20.05 16.5 20.7 L17.25 21.45 Q16.15 23.1 13.8 21.65 L13.65 21.0 Q12.1 17.2 15.3 16.55 17.95 16.1 18.55 16.6 L18.7 16.85 18.8 17.05" fill="#f5b527" fill-rule="evenodd" stroke="none"/>
      <path d="M18.95 18.15 Q16.9 18.15 16.5 19.6 16.35 20.05 16.5 20.7 L17.25 21.45 18.55 21.3 M19.4 22.0 L19.15 22.85 17.65 23.4 Q15.15 24.0 13.8 21.65 L13.65 21.0 Q12.1 17.2 15.3 16.55 17.95 16.1 18.55 16.6" fill="none" stroke="#000000" stroke-linecap="round" stroke-linejoin="round" stroke-opacity="0.3019608" stroke-width="0.4"/>
      <path d="M14.55 19.25 L13.9 19.3 Q13.7 19.05 13.95 18.15 14.05 17.3 14.95 17.0 L16.6 16.95 Q17.4 17.05 17.6 17.35 17.8 17.65 17.15 17.9 L15.75 18.5 Q14.9 18.9 14.55 19.25" fill="#ffff42" fill-rule="evenodd" stroke="none"/>
      <path d="M18.75 25.35 Q20.4 28.2 21.25 27.45 21.65 31.45 21.7 37.75 L18.95 40.1 18.85 27.0 18.75 25.35" fill="#7b6020" fill-rule="evenodd" stroke="none"/>
      <path d="M18.75 25.35 Q18.3 22.1 16.95 21.45 20.15 18.15 21.25 27.45 20.4 28.2 18.75 25.35" fill="#4b340e" fill-rule="evenodd" stroke="none"/>
      <path d="M21.25 27.45 Q20.15 18.15 16.95 21.45 18.3 22.1 18.75 25.35 M21.25 27.45 Q21.65 31.45 21.7 37.75 L18.95 40.1 18.85 27.0 18.75 25.35" fill="none" stroke="#382510" stroke-linecap="round" stroke-linejoin="round" stroke-opacity="0.3019608" stroke-width="0.6000000000000001"/>
      <path d="M21.95 38.3 Q22.05 37.5 21.5 36.8 20.95 36.15 20.1 36.05 19.2 35.95 18.6 36.5 17.95 37.1 17.85 37.9 17.75 38.75 18.3 39.4 18.8 40.1 19.7 40.2 20.55 40.3 21.2 39.7 21.85 39.15 21.95 38.3 M22.8 36.9 Q23.65 37.95 23.5 39.25 23.4 40.55 22.35 41.35 21.3 42.2 20.0 42.1 18.7 41.95 17.85 40.9 17.05 39.95 17.15 38.65 17.3 37.35 18.3 36.45 19.35 35.6 20.65 35.75 21.95 35.85 22.8 36.9" fill="#6c2206" fill-rule="evenodd" stroke="none"/>
      <path d="M21.95 38.3 Q21.85 39.15 21.2 39.7 20.55 40.3 19.7 40.2 18.8 40.1 18.3 39.4 17.75 38.75 17.85 37.9 17.95 37.1 18.6 36.5 19.2 35.95 20.1 36.05 20.95 36.15 21.5 36.8 22.05 37.5 21.95 38.3" fill="#c16100" fill-rule="evenodd" stroke="none"/>
      <path d="M22.8 36.9 Q23.65 37.95 23.5 39.25 23.4 40.55 22.35 41.35 21.3 42.2 20.0 42.1 18.7 41.95 17.85 40.9 17.05 39.95 17.15 38.65 17.3 37.35 18.3 36.45 19.35 35.6 20.65 35.75 21.95 35.85 22.8 36.9 Z" fill="none" stroke="#382510" stroke-linecap="round" stroke-linejoin="round" stroke-opacity="0.3019608" stroke-width="0.30000000000000004"/>
      <path d="M19.6 37.85 L19.1 38.05 18.5 37.75 18.35 37.2 18.65 36.65 19.25 36.45 19.75 36.75 19.95 37.35 19.6 37.85" fill="#ffa004" fill-rule="evenodd" stroke="none"/>
      <path d="M27.25 4.25 Q28.35 5.45 28.5 7.25 L28.65 8.7 29.35 9.4 Q30.45 10.6 30.6 12.4 30.85 13.4 30.65 15.2 L31.45 16.0 Q32.55 17.3 32.65 19.05 32.9 20.0 32.65 21.7 L32.4 22.7 36.0 25.6 Q37.95 27.0 40.15 28.25 L36.75 27.6 34.55 26.15 33.05 25.05 33.1 25.5 33.15 25.7 Q34.35 29.5 34.55 34.9 L33.2 39.0 32.9 32.75 32.45 29.85 Q31.95 32.75 30.55 35.95 L28.7 39.55 24.9 42.05 Q27.6 37.85 29.25 33.25 L29.55 32.45 28.65 32.95 Q25.45 34.8 21.65 34.75 L21.7 36.0 22.8 36.9 Q23.65 37.95 23.5 39.25 23.4 40.55 22.35 41.35 21.3 42.2 20.0 42.1 18.7 41.95 17.85 40.9 L17.3 39.85 17.15 39.95 Q16.2 40.7 15.0 40.6 13.75 40.45 13.0 39.55 12.3 38.65 12.4 37.4 12.55 36.2 13.4 35.45 13.75 35.15 14.15 35.0 L14.15 34.6 14.2 32.0 13.5 31.1 13.25 31.9 Q12.0 36.6 11.9 41.6 L10.15 37.5 10.7 33.5 Q11.35 30.1 12.6 27.35 L10.55 29.6 Q8.5 32.05 6.7 34.75 L7.9 30.55 Q10.05 27.6 12.2 25.5 11.95 24.4 12.15 23.25 L12.1 23.2 10.25 23.3 7.0 22.1 11.45 22.05 Q10.85 20.7 11.0 19.05 8.25 16.75 9.05 12.7 9.65 8.95 13.2 5.85 L14.9 4.25 Q17.35 2.85 19.85 2.2 23.85 1.45 26.3 3.3 L27.25 4.25 M17.55 35.85 L18.1 36.7 18.3 36.45 18.95 36.05 18.9 34.5 16.7 33.75 16.7 35.05 17.55 35.85" fill="none" stroke="#000000" stroke-linecap="round" stroke-linejoin="round" stroke-opacity="0.3019608" stroke-width="0.5"/>
    </g>
  </defs>
</svg>
