<?xml version="1.0" encoding="UTF-8" standalone="no"?>
<svg xmlns:xlink="http://www.w3.org/1999/xlink" height="440.0px" width="440.0px" xmlns="http://www.w3.org/2000/svg">
  <g transform="matrix(10.0, 0.0, 0.0, 10.0, 0.0, 0.0)">
    <use height="44.0" transform="matrix(1.0, 0.0, 0.0, 1.0, 0.0, 0.0)" width="44.0" xlink:href="#shape0"/>
    <use height="5.45" transform="matrix(-0.8121, -0.4438, -0.4438, 0.8121, 22.299, 15.3521)" width="5.5" xlink:href="#sprite0"/>
    <use height="6.25" transform="matrix(1.0, 0.0, 0.0, 1.0, 15.15, 11.3)" width="7.55" xlink:href="#shape2"/>
  </g>
  <defs>
    <g id="shape0" transform="matrix(1.0, 0.0, 0.0, 1.0, 0.0, 0.0)">
      <path d="M44.0 44.0 L0.0 44.0 0.0 0.0 44.0 0.0 44.0 44.0" fill="#43adca" fill-opacity="0.0" fill-rule="evenodd" stroke="none"/>
      <path d="M21.7 11.6 L21.4 11.85 Q20.95 9.0 19.5 6.3 L18.6 4.95 18.0 4.2 Q16.65 2.7 15.1 2.1 L12.75 1.65 Q10.7 1.65 8.8 3.05 L7.4 4.3 Q4.75 7.15 4.75 10.85 L4.75 11.45 4.85 12.85 4.9 13.0 Q5.3 16.6 7.15 19.2 L7.7 19.85 7.8 20.0 9.75 21.75 8.8 21.95 8.8 22.2 Q9.05 27.85 6.15 31.15 L8.05 34.1 Q5.85 35.2 6.15 37.1 L8.6 36.6 8.95 36.9 Q8.6 37.55 8.35 38.8 8.35 39.65 8.9 40.1 L9.55 40.55 Q9.85 40.85 10.25 40.9 L10.8 40.95 12.05 40.65 12.35 40.55 Q13.4 40.1 14.05 37.6 L14.25 41.2 15.75 41.85 16.95 41.85 17.0 41.8 Q18.9 39.85 19.35 37.15 20.55 35.35 21.0 36.8 L19.4 41.1 19.95 41.25 22.05 41.3 22.05 41.25 Q23.5 40.4 23.4 36.15 L23.65 36.1 24.0 35.95 Q26.2 35.95 26.2 34.1 L26.2 34.0 26.6 33.95 26.85 35.45 27.05 36.3 27.35 37.15 Q28.25 39.65 30.2 40.35 L31.85 40.6 33.0 40.55 34.3 40.25 Q36.5 39.55 38.0 37.55 L38.75 36.4 39.45 34.9 Q39.85 33.65 39.85 32.4 L39.8 31.3 39.5 30.15 Q38.45 27.5 34.6 26.2 L34.1 26.05 33.5 25.95 30.6 25.45 28.6 25.15 28.1 25.1 28.25 23.85 28.55 21.45 28.7 19.7 28.75 19.45 28.75 18.35 Q28.75 15.4 27.6 13.8 L26.65 12.8 Q25.95 12.2 25.05 11.95 L23.65 11.75 22.6 12.0 22.35 11.75 21.7 11.6 M26.45 14.6 Q27.35 16.0 27.35 18.35 L27.3 19.45 27.15 21.35 27.0 22.55 Q25.45 21.15 22.4 20.75 L22.45 20.6 22.65 20.35 22.6 20.3 22.6 20.05 22.7 18.25 22.65 18.1 22.75 17.65 22.65 17.65 22.65 17.6 22.45 17.15 22.0 16.85 Q21.85 16.95 21.8 17.2 L21.4 17.25 21.3 17.05 Q21.55 16.4 21.35 15.6 L21.3 15.6 21.15 15.3 21.25 15.15 21.6 15.25 21.5 14.8 21.45 14.7 21.45 14.65 21.5 14.3 22.05 13.9 21.5 14.1 21.5 14.05 Q22.95 13.2 23.65 13.15 L24.75 13.3 25.85 13.9 26.45 14.6 M21.3 17.25 L21.4 17.25 21.3 17.1 21.25 17.2 21.3 17.25 M17.5 5.8 L18.3 7.0 Q19.45 9.15 19.9 11.3 L19.75 11.35 Q19.45 11.4 19.35 11.7 L19.45 12.6 19.45 12.65 19.45 12.75 19.5 12.85 19.4 12.85 19.1 12.9 17.65 12.95 17.3 13.2 17.2 13.25 17.15 13.3 16.2 14.55 16.2 14.75 16.45 15.4 16.45 15.5 16.4 15.7 15.15 16.05 16.35 15.8 16.3 16.5 15.85 16.65 15.15 17.05 14.85 17.25 14.35 18.05 14.35 18.1 14.4 18.35 14.3 20.75 13.75 20.8 11.65 21.3 11.15 21.0 Q9.85 20.15 8.9 19.05 L8.3 18.3 Q6.7 16.1 6.3 13.1 L6.2 12.1 6.15 10.85 Q6.15 7.7 8.4 5.25 L10.05 3.9 Q11.35 3.05 12.75 3.05 13.9 3.05 14.9 3.55 16.05 4.05 17.0 5.15 L17.5 5.8 M33.9 27.5 Q37.3 28.55 38.2 30.85 L38.45 32.4 Q38.45 33.55 38.0 34.7 L37.55 35.65 36.85 36.7 Q35.6 38.4 33.75 38.95 L32.9 39.15 31.85 39.2 30.9 39.05 Q29.3 38.55 28.6 36.45 L28.4 35.85 28.25 35.3 Q27.95 34.05 27.8 32.35 29.05 29.4 28.75 26.6 L30.0 26.75 32.85 27.2 33.65 27.4 33.9 27.5" fill="none" stroke="#000000" stroke-linecap="round" stroke-linejoin="round" stroke-opacity="0.3019608" stroke-width="1.0"/>
      <path d="M26.7 24.9 L26.85 23.65 27.35 18.35 Q27.35 16.0 26.45 14.6 25.45 13.15 23.65 13.15 22.95 13.2 21.5 14.05 L21.45 14.65 21.15 15.1 20.65 15.2 20.2 14.95 20.1 14.85 19.0 15.65 18.5 15.75 18.0 15.5 Q17.8 15.3 17.9 15.0 L18.15 14.5 20.1 13.2 Q19.95 10.05 18.3 7.0 16.05 3.1 12.75 3.05 10.45 3.05 8.4 5.25 6.15 7.7 6.15 10.85 6.15 17.7 11.15 21.0 14.7 23.2 22.45 24.25 L26.7 24.9 28.1 25.1 26.7 24.9 M26.6 26.25 L22.25 25.65 Q14.15 24.6 10.35 22.15 4.75 18.55 4.75 10.85 4.75 7.15 7.4 4.3 9.9 1.65 12.75 1.65 16.75 1.6 19.5 6.3 21.15 9.3 21.5 12.5 22.9 11.75 23.65 11.75 26.15 11.75 27.6 13.8 28.75 15.4 28.75 18.35 L28.25 23.85 28.1 25.1 28.6 25.15 34.1 26.05 Q39.95 27.8 39.85 32.4 39.85 35.05 38.0 37.55 35.7 40.6 31.85 40.6 28.3 40.65 27.05 36.3 26.3 33.85 26.3 29.25 26.3 28.15 26.6 26.25 L27.95 26.55 27.7 29.25 Q27.7 33.6 28.4 35.85 29.3 39.15 31.85 39.2 35.0 39.2 36.85 36.7 38.45 34.6 38.45 32.4 38.4 28.8 33.65 27.4 L28.5 26.55 27.95 26.5 27.95 26.55 26.6 26.25" fill="#733f10" fill-rule="evenodd" stroke="none"/>
      <path d="M26.7 24.9 L22.45 24.25 Q14.7 23.2 11.15 21.0 6.15 17.7 6.15 10.85 6.15 7.7 8.4 5.25 10.45 3.05 12.75 3.05 16.05 3.1 18.3 7.0 19.95 10.05 20.1 13.2 L18.15 14.5 17.9 15.0 Q17.8 15.3 18.0 15.5 L18.5 15.75 19.0 15.65 20.1 14.85 20.2 14.95 20.65 15.2 21.15 15.1 21.45 14.65 21.5 14.05 Q22.95 13.2 23.65 13.15 25.45 13.15 26.45 14.6 27.35 16.0 27.35 18.35 L26.85 23.65 26.7 24.9 28.1 25.1 28.25 23.85 28.75 18.35 Q28.75 15.4 27.6 13.8 26.15 11.75 23.65 11.75 22.9 11.75 21.5 12.5 21.15 9.3 19.5 6.3 16.75 1.6 12.75 1.65 9.9 1.65 7.4 4.3 4.75 7.15 4.75 10.85 4.75 18.55 10.35 22.15 14.15 24.6 22.25 25.65 L26.6 26.25 27.95 26.55 27.95 26.5 28.5 26.55 33.65 27.4 Q38.4 28.8 38.45 32.4 38.45 34.6 36.85 36.7 35.0 39.2 31.85 39.2 29.3 39.15 28.4 35.85 27.7 33.6 27.7 29.25 L27.95 26.55 28.5 26.55 M26.6 26.25 Q26.3 28.15 26.3 29.25 26.3 33.85 27.05 36.3 28.3 40.65 31.85 40.6 35.7 40.6 38.0 37.55 39.85 35.05 39.85 32.4 39.95 27.8 34.1 26.05 L28.6 25.15 28.1 25.1" fill="none" stroke="#000000" stroke-linecap="round" stroke-linejoin="round" stroke-opacity="0.3019608" stroke-width="0.05"/>
      <path d="M8.75 3.05 L9.35 3.05 10.1 4.0" fill="none" stroke="#000000" stroke-linecap="round" stroke-linejoin="round" stroke-opacity="0.3019608" stroke-width="0.05"/>
      <path d="M4.65 13.0 Q4.9 12.7 5.45 12.7 L5.9 12.7 6.35 13.15" fill="none" stroke="#000000" stroke-linecap="round" stroke-linejoin="round" stroke-opacity="0.3019608" stroke-width="0.05"/>
      <path d="M4.8 11.45 L5.3 11.4 Q5.55 11.4 6.2 12.1" fill="none" stroke="#000000" stroke-linecap="round" stroke-linejoin="round" stroke-opacity="0.3019608" stroke-width="0.05"/>
      <path d="M14.95 3.45 Q15.3 3.25 15.3 2.85 L15.05 2.2" fill="none" stroke="#000000" stroke-linecap="round" stroke-linejoin="round" stroke-opacity="0.3019608" stroke-width="0.05"/>
      <path d="M17.35 5.75 L18.3 5.6 18.6 4.85" fill="none" stroke="#000000" stroke-linecap="round" stroke-linejoin="round" stroke-opacity="0.3019608" stroke-width="0.05"/>
      <path d="M17.0 5.15 Q17.95 4.9 18.0 4.15" fill="none" stroke="#000000" stroke-linecap="round" stroke-linejoin="round" stroke-opacity="0.3019608" stroke-width="0.05"/>
      <path d="M9.0 19.05 Q7.65 18.9 7.65 20.1" fill="none" stroke="#000000" stroke-linecap="round" stroke-linejoin="round" stroke-opacity="0.3019608" stroke-width="0.05"/>
      <path d="M8.35 18.3 L7.85 18.2 Q6.95 18.2 7.25 19.1" fill="none" stroke="#000000" stroke-linecap="round" stroke-linejoin="round" stroke-opacity="0.3019608" stroke-width="0.05"/>
      <path d="M24.75 13.2 Q25.3 12.85 25.3 12.35 L25.05 11.95" fill="none" stroke="#000000" stroke-linecap="round" stroke-linejoin="round" stroke-opacity="0.3019608" stroke-width="0.05"/>
      <path d="M25.75 13.9 L26.3 13.6 26.6 12.85" fill="none" stroke="#000000" stroke-linecap="round" stroke-linejoin="round" stroke-opacity="0.3019608" stroke-width="0.05"/>
      <path d="M27.25 19.4 Q27.85 19.75 28.25 19.75 28.75 19.75 28.95 19.45" fill="none" stroke="#000000" stroke-linecap="round" stroke-linejoin="round" stroke-opacity="0.3019608" stroke-width="0.05"/>
      <path d="M27.15 21.35 L27.85 21.75 28.6 21.4" fill="none" stroke="#000000" stroke-linecap="round" stroke-linejoin="round" stroke-opacity="0.3019608" stroke-width="0.05"/>
      <path d="M24.0 25.95 L24.05 24.6" fill="none" stroke="#000000" stroke-linecap="round" stroke-linejoin="round" stroke-opacity="0.3019608" stroke-width="0.05"/>
      <path d="M22.35 25.6 L22.6 24.25" fill="none" stroke="#000000" stroke-linecap="round" stroke-linejoin="round" stroke-opacity="0.3019608" stroke-width="0.05"/>
      <path d="M30.0 26.7 Q30.75 26.55 30.6 25.5" fill="none" stroke="#000000" stroke-linecap="round" stroke-linejoin="round" stroke-opacity="0.3019608" stroke-width="0.05"/>
      <path d="M32.85 27.1 Q33.55 26.9 33.55 26.2 L33.45 25.85" fill="none" stroke="#000000" stroke-linecap="round" stroke-linejoin="round" stroke-opacity="0.3019608" stroke-width="0.05"/>
      <path d="M33.9 27.4 L34.3 26.95 34.55 26.25" fill="none" stroke="#000000" stroke-linecap="round" stroke-linejoin="round" stroke-opacity="0.3019608" stroke-width="0.05"/>
      <path d="M26.8 35.4 Q27.0 35.8 27.7 35.8 L28.2 35.3" fill="none" stroke="#000000" stroke-linecap="round" stroke-linejoin="round" stroke-opacity="0.3019608" stroke-width="0.05"/>
      <path d="M27.35 37.1 L27.75 37.2 Q28.25 37.2 28.5 36.45" fill="none" stroke="#000000" stroke-linecap="round" stroke-linejoin="round" stroke-opacity="0.3019608" stroke-width="0.05"/>
      <path d="M30.2 40.25 L30.7 39.75 30.9 39.05" fill="none" stroke="#000000" stroke-linecap="round" stroke-linejoin="round" stroke-opacity="0.3019608" stroke-width="0.05"/>
      <path d="M33.0 40.45 L33.3 40.0 Q33.3 39.55 32.9 39.15" fill="none" stroke="#000000" stroke-linecap="round" stroke-linejoin="round" stroke-opacity="0.3019608" stroke-width="0.05"/>
      <path d="M34.3 40.2 L34.35 39.75 Q34.35 39.15 33.75 38.95" fill="none" stroke="#000000" stroke-linecap="round" stroke-linejoin="round" stroke-opacity="0.3019608" stroke-width="0.05"/>
      <path d="M38.6 36.3 Q38.6 35.85 38.25 35.65 37.9 35.5 37.5 35.65" fill="none" stroke="#000000" stroke-linecap="round" stroke-linejoin="round" stroke-opacity="0.3019608" stroke-width="0.05"/>
      <path d="M39.45 34.9 Q38.95 34.4 38.55 34.4 L38.05 34.7" fill="none" stroke="#000000" stroke-linecap="round" stroke-linejoin="round" stroke-opacity="0.3019608" stroke-width="0.05"/>
      <path d="M39.65 31.3 Q39.5 31.15 39.25 31.15 38.9 31.15 38.6 31.4" fill="none" stroke="#000000" stroke-linecap="round" stroke-linejoin="round" stroke-opacity="0.3019608" stroke-width="0.05"/>
      <path d="M39.5 30.15 L38.9 30.15 Q38.1 30.65 38.1 31.05" fill="none" stroke="#000000" stroke-linecap="round" stroke-linejoin="round" stroke-opacity="0.3019608" stroke-width="0.05"/>
      <path d="M26.1 29.0 L26.5 29.2 26.85 29.35 27.4 29.2 27.85 28.8" fill="none" stroke="#000000" stroke-linecap="round" stroke-linejoin="round" stroke-opacity="0.3019608" stroke-width="0.05"/>
      <path d="M26.1 30.15 L26.9 30.8 Q27.5 30.8 27.85 30.1" fill="none" stroke="#000000" stroke-linecap="round" stroke-linejoin="round" stroke-opacity="0.3019608" stroke-width="0.05"/>
      <path d="M9.05 31.75 L10.5 33.45 10.1 37.2 Q7.75 37.15 8.1 33.85 L9.05 31.75" fill="#7a6638" fill-rule="evenodd" stroke="none"/>
      <path d="M9.05 31.75 L8.1 33.85 Q7.75 37.15 10.1 37.2 L10.5 33.45 9.05 31.75 Z" fill="none" stroke="#382510" stroke-linecap="round" stroke-linejoin="round" stroke-opacity="0.2509804" stroke-width="0.4"/>
      <path d="M8.8 22.2 L8.8 21.95 13.75 20.8 14.7 20.75 15.8 21.25 12.6 23.05 13.85 23.9 12.5 23.85 12.35 23.7 10.75 23.3 Q9.6 23.0 8.8 22.2" fill="#c2b585" fill-rule="evenodd" stroke="none"/>
      <path d="M13.85 23.9 L12.6 23.05 15.8 21.25 14.7 20.75 18.75 20.5 20.2 21.4 20.95 21.9 19.5 21.85 Q17.95 21.9 16.75 22.8 15.5 23.65 14.05 23.85 L13.85 23.9 M16.15 32.3 L19.05 32.3 Q20.65 31.95 22.35 30.1 21.45 32.9 20.1 33.7 18.45 34.2 17.3 33.7 L16.15 32.3 M8.8 32.0 L8.65 30.45 11.05 32.0 8.8 32.0" fill="#faf0c0" fill-rule="evenodd" stroke="none"/>
      <path d="M18.75 20.5 Q25.6 20.45 27.7 23.3 L27.85 23.55 27.7 24.35 27.5 25.85 28.15 25.65 28.55 25.55 Q29.45 29.55 27.05 33.9 L26.2 34.0 26.2 34.1 Q24.25 36.15 22.6 34.6 L23.65 36.1 23.4 36.15 Q23.5 40.4 22.05 41.25 L22.05 41.3 19.95 41.25 19.4 41.1 21.0 36.8 Q20.55 35.35 19.35 37.15 18.9 39.85 17.0 41.8 L16.95 41.85 15.75 41.85 14.95 41.5 16.15 41.1 Q17.25 40.55 17.55 39.35 17.9 38.15 18.55 37.15 L20.2 35.3 21.9 33.6 23.2 31.65 23.85 29.65 23.85 27.2 Q23.7 25.85 23.1 24.9 L21.9 22.85 20.95 21.9 20.2 21.4 18.75 20.5 M14.05 37.6 Q13.4 40.1 12.35 40.55 L12.05 40.65 10.8 40.95 10.25 40.9 Q9.85 40.85 9.55 40.55 L8.9 40.1 Q12.35 40.7 14.0 36.85 L14.05 37.6 M27.5 25.85 L25.35 28.25 25.35 31.5 25.35 28.25 27.5 25.85 M25.35 31.5 Q26.05 33.0 26.2 34.0 26.05 33.0 25.35 31.5" fill="#695c41" fill-rule="evenodd" stroke="none"/>
      <path d="M27.7 24.35 L28.15 25.65 27.5 25.85 27.7 24.35" fill="#7c6c38" fill-rule="evenodd" stroke="none"/>
      <path d="M26.2 34.1 Q26.2 35.95 24.0 35.95 L23.65 36.1 22.6 34.6 Q24.25 36.15 26.2 34.1" fill="#685731" fill-rule="evenodd" stroke="none"/>
      <path d="M8.8 22.2 Q9.6 23.0 10.75 23.3 L12.35 23.7 12.5 23.85 13.85 23.9 14.05 23.85 Q15.5 23.65 16.75 22.8 17.95 21.9 19.5 21.85 L20.95 21.9 21.9 22.85 23.1 24.9 Q23.7 25.85 23.85 27.2 L23.85 29.65 23.2 31.65 21.9 33.6 20.2 35.3 18.55 37.15 Q17.9 38.15 17.55 39.35 17.25 40.55 16.15 41.1 L14.95 41.5 14.25 41.2 14.05 37.6 14.0 36.85 Q12.35 40.7 8.9 40.1 8.35 39.65 8.35 38.8 8.7 37.1 9.25 36.45 L6.15 37.1 Q5.85 35.2 8.05 34.1 L6.15 31.15 Q9.05 27.85 8.8 22.2 M16.15 32.3 L17.3 33.7 Q18.45 34.2 20.1 33.7 21.45 32.9 22.35 30.1 20.65 31.95 19.05 32.3 L16.15 32.3 M8.8 32.0 L11.05 32.0 8.65 30.45 8.8 32.0 M10.15 35.3 L9.25 36.45 10.15 35.3" fill="url(#gradient0)" fill-rule="evenodd" stroke="none"/>
      <path d="M13.85 23.9 L12.6 23.05 15.8 21.25 14.7 20.75 M27.85 23.55 L27.7 24.35 27.5 25.85 28.15 25.65 28.55 25.55 M25.35 31.5 L25.35 28.25 27.5 25.85" fill="none" stroke="#382510" stroke-linecap="round" stroke-linejoin="round" stroke-opacity="0.2509804" stroke-width="0.05"/>
      <path d="M14.7 20.75 L13.75 20.8 8.8 21.95 8.8 22.2 M14.7 20.75 L18.75 20.5 Q25.6 20.45 27.7 23.3 L27.85 23.55 M27.7 24.35 L28.15 25.65 M28.55 25.55 Q29.45 29.55 27.05 33.9 L26.2 34.0 26.2 34.1 Q26.2 35.95 24.0 35.95 L23.65 36.1 23.4 36.15 Q23.5 40.4 22.05 41.25 M22.05 41.3 L19.95 41.25 19.4 41.1 M21.0 36.8 Q20.55 35.35 19.35 37.15 18.9 39.85 17.0 41.8 L16.95 41.85 15.75 41.85 14.95 41.5 14.25 41.2 14.05 37.6 Q13.4 40.1 12.35 40.55 L12.05 40.65 10.8 40.95 10.25 40.9 Q9.85 40.85 9.55 40.55 L8.9 40.1 Q8.35 39.65 8.35 38.8 8.7 37.1 9.25 36.45 L6.15 37.1 Q5.85 35.2 8.05 34.1 L6.15 31.15 Q9.05 27.85 8.8 22.2 M14.0 36.85 L14.05 37.6 M9.25 36.45 L10.15 35.3 M26.2 34.0 Q26.05 33.0 25.35 31.5" fill="none" stroke="#382510" stroke-linecap="round" stroke-linejoin="round" stroke-opacity="0.5019608" stroke-width="0.05"/>
      <path d="M22.05 41.25 L22.05 41.3" fill="none" stroke="#382510" stroke-linecap="round" stroke-linejoin="round" stroke-opacity="0.3019608" stroke-width="0.05"/>
      <path d="M14.55 35.1 L13.75 35.5 12.9 33.55 13.55 33.55 14.55 35.1 M11.95 33.85 L11.55 34.05 11.25 33.3 11.65 33.0 11.95 33.85" fill="#695c41" fill-rule="evenodd" stroke="none"/>
      <path d="M12.9 33.55 L12.8 33.5 11.95 33.85 11.65 33.0 13.45 31.45 15.5 34.6 14.55 35.1 13.55 33.55 12.9 33.55" fill="#161c1d" fill-rule="evenodd" stroke="none"/>
      <path d="M10.0 25.5 L10.1 25.4 10.4 24.95 Q10.8 24.55 11.35 24.5 L11.55 24.45 11.75 24.5 Q11.35 24.75 11.0 25.3 L10.5 26.15 Q10.2 27.0 10.2 28.0 L10.25 28.75 Q10.4 29.85 11.0 30.7 L11.25 31.0 Q10.55 30.9 10.1 30.1 9.65 29.4 9.55 28.65 L9.45 27.7 Q9.45 26.5 10.0 25.5 M14.65 25.95 L14.9 25.35 14.9 25.3 15.2 24.75 15.4 24.5 15.5 24.25 Q16.2 23.4 17.05 23.1 L18.0 22.95 Q18.9 22.95 19.7 23.5 L18.85 23.4 Q17.6 23.4 16.7 24.6 15.8 25.95 15.8 27.7 15.8 29.55 16.7 30.85 L17.5 31.7 Q16.35 31.5 15.5 30.4 L15.25 29.95 Q14.55 28.9 14.55 27.3 L14.65 25.95" fill="#695c41" fill-rule="evenodd" stroke="none"/>
      <path d="M11.25 31.0 L11.0 30.7 Q10.4 29.85 10.25 28.75 L10.2 28.0 Q10.2 27.0 10.5 26.15 L11.0 25.3 Q11.35 24.75 11.75 24.5 12.5 24.55 13.0 25.4 13.7 26.4 13.7 27.7 13.7 29.1 13.0 30.1 12.4 31.05 11.55 31.05 L11.25 31.0 M19.7 23.5 L20.45 24.25 Q21.4 25.5 21.4 27.3 21.4 29.1 20.45 30.4 19.4 31.7 18.0 31.7 L17.5 31.7 16.7 30.85 Q15.8 29.55 15.8 27.7 15.8 25.95 16.7 24.6 17.6 23.4 18.85 23.4 L19.7 23.5" fill="#161c1d" fill-rule="evenodd" stroke="none"/>
      <path d="M10.4 24.95 L10.1 25.4 10.0 25.5 M9.55 28.65 Q9.65 29.4 10.1 30.1 10.55 30.9 11.25 31.0 M11.75 24.5 L11.55 24.45 11.35 24.5 M17.05 23.1 L18.0 22.95 Q18.9 22.95 19.7 23.5 L20.45 24.25 Q21.4 25.5 21.4 27.3 21.4 29.1 20.45 30.4 19.4 31.7 18.0 31.7 L17.5 31.7 Q16.35 31.5 15.5 30.4 L15.25 29.95 Q14.55 28.9 14.55 27.3 L14.65 25.95 M11.75 24.5 Q12.5 24.55 13.0 25.4 13.7 26.4 13.7 27.7 13.7 29.1 13.0 30.1 12.4 31.05 11.55 31.05 L11.25 31.0" fill="none" stroke="#382510" stroke-linecap="round" stroke-linejoin="round" stroke-opacity="0.2" stroke-width="0.4"/>
      <path d="M19.4 29.0 Q18.6 29.0 18.0 28.4 17.35 27.8 17.35 26.95 L17.45 26.5 21.5 26.5 21.5 26.95 Q21.5 27.8 20.85 28.4 20.25 29.0 19.4 29.0" fill="#78929c" fill-rule="evenodd" stroke="none"/>
      <path d="M13.6 27.35 L13.3 28.0 12.75 28.25 12.1 28.0 11.8 27.35 12.0 26.85 13.45 26.85 13.6 27.35" fill="#78929c" fill-rule="evenodd" stroke="none"/>
      <path d="M15.25 21.65 L15.2 21.65 14.4 20.9 14.3 20.75 14.4 18.35 14.35 18.1 14.35 18.05 14.85 17.25 15.15 17.05 15.85 16.65 Q17.15 16.15 18.95 16.15 L20.4 16.25 20.65 16.35 21.3 17.25 21.8 17.2 Q21.85 16.95 22.0 16.85 L22.45 17.15 22.65 17.6 22.65 17.65 22.75 17.65 22.65 18.1 22.7 18.25 22.65 18.25 22.5 18.55 21.85 19.1 21.4 19.3 21.2 19.4 21.15 19.45 14.45 18.7 15.2 19.55 Q15.8 21.1 15.25 21.65" fill="#c49d44" fill-rule="evenodd" stroke="none"/>
      <path d="M15.2 19.55 L14.45 18.7 21.15 19.45 19.7 19.8 19.05 19.9 18.45 20.0 18.2 20.0 17.6 20.1 Q15.95 19.75 15.3 19.4 L15.15 19.25 15.05 19.25 15.2 19.55" fill="#e9db6b" fill-rule="evenodd" stroke="none"/>
      <path d="M16.1 22.0 L15.3 21.65 15.25 21.65 Q15.8 21.1 15.2 19.55 L15.05 19.25 15.15 19.25 15.3 19.4 Q15.95 19.75 17.6 20.1 15.85 20.35 16.1 22.0" fill="#d8ca7c" fill-rule="evenodd" stroke="none"/>
      <path d="M22.7 18.25 L22.6 20.05 22.6 20.3 22.65 20.35 22.45 20.6 22.35 19.55 22.5 18.55 22.65 18.25 22.7 18.25 M17.45 22.25 L16.8 22.1 16.2 22.0 16.1 22.0 Q15.85 20.35 17.6 20.1 L18.2 20.0 18.45 20.0 19.05 19.9 19.7 19.8 Q16.35 21.0 17.45 22.25" fill="#ae8a37" fill-rule="evenodd" stroke="none"/>
      <path d="M21.8 21.35 L21.1 21.7 19.55 22.15 18.5 22.0 18.3 22.25 18.05 22.2 17.45 22.25 Q16.35 21.0 19.7 19.8 L21.15 19.45 21.2 19.4 21.4 19.3 21.6 19.5 Q22.05 19.8 21.8 21.35" fill="#816629" fill-rule="evenodd" stroke="none"/>
      <path d="M22.45 20.6 L21.8 21.35 Q22.05 19.8 21.6 19.5 L21.4 19.3 21.85 19.1 22.5 18.55 22.35 19.55 22.45 20.6" fill="#6c5624" fill-rule="evenodd" stroke="none"/>
      <path d="M20.4 16.25 L20.65 16.35 21.3 17.25 M21.8 17.2 Q21.85 16.95 22.0 16.85" fill="none" stroke="#382510" stroke-linecap="round" stroke-linejoin="round" stroke-opacity="0.3019608" stroke-width="0.05"/>
      <path d="M15.25 21.65 L15.2 21.65 14.4 20.9 14.3 20.75 14.4 18.35 14.35 18.1 14.35 18.05 14.85 17.25 15.15 17.05 15.85 16.65 Q17.15 16.15 18.95 16.15 L20.4 16.25 M22.0 16.85 L22.45 17.15 22.65 17.6 M22.75 17.65 L22.65 18.1 22.7 18.25 22.6 20.05 22.6 20.3 22.65 20.35 22.45 20.6 21.8 21.35 21.1 21.7 19.55 22.15 18.5 22.0 18.3 22.25 18.05 22.2 17.45 22.25 16.8 22.1 16.2 22.0 16.1 22.0 15.3 21.65 15.25 21.65" fill="none" stroke="#665122" stroke-linecap="round" stroke-linejoin="round" stroke-opacity="0.5529412" stroke-width="0.05"/>
      <path d="M15.05 27.25 Q15.2 25.7 16.3 24.8 17.45 23.8 18.9 24.0 20.35 24.15 21.2 25.35 22.1 26.6 21.95 28.1 21.7 29.65 20.6 30.5 19.5 31.5 18.05 31.35 16.65 31.15 15.7 29.95 14.8 28.75 15.05 27.25 M15.35 27.25 Q15.25 28.1 15.75 28.75 16.25 29.45 17.0 29.5 17.85 29.65 18.5 29.15 19.2 28.6 19.3 27.75 19.35 26.85 18.85 26.2 18.35 25.5 17.5 25.35 16.75 25.3 16.1 25.8 15.4 26.35 15.35 27.25" fill="#5e0605" fill-rule="evenodd" stroke="none"/>
      <path d="M15.35 27.25 Q15.4 26.35 16.1 25.8 16.75 25.3 17.5 25.35 18.35 25.5 18.85 26.2 19.35 26.85 19.3 27.75 19.2 28.6 18.5 29.15 17.85 29.65 17.0 29.5 16.25 29.45 15.75 28.75 15.25 28.1 15.35 27.25 M17.0 27.05 L16.65 27.65 16.85 28.3 17.4 28.65 Q17.75 28.7 18.05 28.4 L18.35 27.85 18.25 27.15 17.65 26.85 Q17.25 26.8 17.0 27.05" fill="#b8b188" fill-rule="evenodd" stroke="none"/>
      <path d="M17.0 27.05 Q17.25 26.8 17.65 26.85 L18.25 27.15 18.35 27.85 18.05 28.4 Q17.75 28.7 17.4 28.65 L16.85 28.3 16.65 27.65 17.0 27.05 M17.5 28.2 L17.75 28.15 17.9 27.9 17.8 27.7 17.65 27.5 Q17.45 27.5 17.35 27.65 L17.25 27.8 17.3 28.1 17.5 28.2" fill="#b80101" fill-rule="evenodd" stroke="none"/>
      <path d="M17.5 28.2 L17.3 28.1 17.25 27.8 17.35 27.65 Q17.45 27.5 17.65 27.5 L17.8 27.7 17.9 27.9 17.75 28.15 17.5 28.2" fill="#e0c585" fill-rule="evenodd" stroke="none"/>
      <path d="M15.05 27.25 Q14.8 28.75 15.7 29.95 16.65 31.15 18.05 31.35 19.5 31.5 20.6 30.5 21.7 29.65 21.95 28.1 22.1 26.6 21.2 25.35 20.35 24.15 18.9 24.0 17.45 23.8 16.3 24.8 15.2 25.7 15.05 27.25 Z" fill="none" stroke="#000000" stroke-linecap="round" stroke-linejoin="round" stroke-opacity="0.3019608" stroke-width="0.6000000000000001"/>
      <path d="M11.45 24.55 Q12.4 24.5 13.15 25.3 13.85 26.15 14.0 27.35 14.05 28.65 13.45 29.5 12.8 30.45 11.9 30.5 10.95 30.55 10.1 29.75 9.4 28.95 9.35 27.7 9.2 26.45 9.85 25.55 10.5 24.6 11.45 24.55 M11.4 26.3 Q11.1 26.85 11.15 27.6 11.2 28.25 11.55 28.7 12.05 29.2 12.55 29.15 13.1 29.05 13.45 28.6 13.8 28.0 13.75 27.35 13.7 26.65 13.25 26.2 12.85 25.7 12.3 25.75 11.8 25.8 11.4 26.3" fill="#5e0605" fill-rule="evenodd" stroke="none"/>
      <path d="M11.4 26.3 Q11.8 25.8 12.3 25.75 12.85 25.7 13.25 26.2 13.7 26.65 13.75 27.35 13.8 28.0 13.45 28.6 13.1 29.05 12.55 29.15 12.05 29.2 11.55 28.7 11.2 28.25 11.15 27.6 11.1 26.85 11.4 26.3 M12.65 27.15 Q12.5 26.9 12.2 26.9 L11.8 27.2 11.7 27.7 11.95 28.2 12.3 28.35 12.75 28.15 12.85 27.6 12.65 27.15" fill="#b8b188" fill-rule="evenodd" stroke="none"/>
      <path d="M12.65 27.15 L12.85 27.6 12.75 28.15 12.3 28.35 11.95 28.2 11.7 27.7 11.8 27.2 12.2 26.9 Q12.5 26.9 12.65 27.15 M12.4 27.5 L12.25 27.45 12.1 27.5 12.05 27.75 12.1 27.9 12.3 28.0 12.4 27.9 12.5 27.75 12.4 27.5" fill="#b80101" fill-rule="evenodd" stroke="none"/>
      <path d="M12.4 27.5 L12.5 27.75 12.4 27.9 12.3 28.0 12.1 27.9 12.05 27.75 12.1 27.5 12.25 27.45 12.4 27.5" fill="#e0c585" fill-rule="evenodd" stroke="none"/>
      <path d="M11.45 24.55 Q12.4 24.5 13.15 25.3 13.85 26.15 14.0 27.35 14.05 28.65 13.45 29.5 12.8 30.45 11.9 30.5 10.95 30.55 10.1 29.75 9.4 28.95 9.35 27.7 9.2 26.45 9.85 25.55 10.5 24.6 11.45 24.55 Z" fill="none" stroke="#000000" stroke-linecap="round" stroke-linejoin="round" stroke-opacity="0.3019608" stroke-width="0.6000000000000001"/>
    </g>
    <linearGradient gradientTransform="matrix(0.0069, 0.0099, -0.0105, 0.0073, 14.3, 30.3)" gradientUnits="userSpaceOnUse" id="gradient0" spreadMethod="pad" x1="-819.2" x2="819.2">
      <stop offset="0.0" stop-color="#faf0c0"/>
      <stop offset="0.4235294117647059" stop-color="#9e8f61"/>
      <stop offset="1.0" stop-color="#9b8c5e"/>
    </linearGradient>
    <g id="sprite0" transform="matrix(1.0, 0.0, 0.0, 1.0, 2.75, 1.5)">
      <use height="5.45" transform="matrix(1.0, 0.0, 0.0, 1.0, -2.75, -1.5)" width="5.5" xlink:href="#shape1"/>
    </g>
    <g id="shape1" transform="matrix(1.0, 0.0, 0.0, 1.0, 2.75, 1.5)">
      <path d="M0.0 -1.5 Q1.15 -1.5 1.95 -0.75 L2.55 0.1 2.65 0.5 2.75 1.2 2.75 1.4 Q2.7 2.45 1.95 3.15 1.15 3.95 0.0 3.95 -1.15 3.95 -1.95 3.15 L-2.0 3.1 Q-2.75 2.3 -2.75 1.2 -2.75 0.1 -1.95 -0.75 L-1.9 -0.75 -0.8 -1.35 -0.35 -1.45 0.0 -1.5 M0.35 -0.8 L0.15 -1.15 -0.3 -1.3 -0.7 -1.15 -0.9 -0.8 -0.7 -0.4 -0.3 -0.25 Q0.0 -0.25 0.15 -0.4 L0.35 -0.8 M2.45 1.7 L2.5 1.35 2.55 0.8 2.4 0.2 2.4 0.15 Q1.65 -0.8 0.55 -1.15 1.5 0.15 0.05 0.95 -1.4 1.75 -2.3 0.5 -2.6 1.6 -2.1 2.45 -1.2 3.75 0.4 3.6 2.15 3.35 2.45 1.7" fill="#ffcc33" fill-rule="evenodd" stroke="none"/>
      <path d="M0.35 -0.8 L0.15 -0.4 Q0.0 -0.25 -0.3 -0.25 L-0.7 -0.4 -0.9 -0.8 -0.7 -1.15 -0.3 -1.3 0.15 -1.15 0.35 -0.8" fill="#ffffff" fill-rule="evenodd" stroke="none"/>
      <path d="M2.45 1.7 Q1.8 1.45 1.85 1.15 1.85 0.8 2.55 0.8 L2.5 1.35 2.45 1.7" fill="#bd954d" fill-rule="evenodd" stroke="none"/>
      <path d="M2.55 0.8 Q1.85 0.8 1.85 1.15 1.8 1.45 2.45 1.7 2.15 3.35 0.4 3.6 -1.2 3.75 -2.1 2.45 -2.6 1.6 -2.3 0.5 -1.4 1.75 0.05 0.95 1.5 0.15 0.55 -1.15 1.65 -0.8 2.4 0.15 L2.4 0.2 2.55 0.8" fill="#b17c01" fill-rule="evenodd" stroke="none"/>
      <path d="M0.0 -1.5 L-0.35 -1.45 -0.8 -1.35 -1.9 -0.75 -1.95 -0.75 Q-2.75 0.1 -2.75 1.2 -2.75 2.3 -2.0 3.1 L-1.95 3.15 Q-1.15 3.95 0.0 3.95 1.15 3.95 1.95 3.15 2.7 2.45 2.75 1.4 L2.75 1.2 2.65 0.5 2.55 0.1 1.95 -0.75 Q1.15 -1.5 0.0 -1.5 M2.55 0.8 Q1.85 0.8 1.85 1.15 1.8 1.45 2.45 1.7" fill="none" stroke="#000000" stroke-linecap="round" stroke-linejoin="round" stroke-opacity="0.3019608" stroke-width="0.05"/>
      <path d="M2.05 2.2 L1.6 2.55 1.25 2.15 1.15 1.4 1.45 0.6 Q1.7 0.3 1.9 0.35 L2.25 0.65 2.4 1.45 2.05 2.2" fill="#42341f" fill-rule="evenodd" stroke="none"/>
    </g>
    <g id="shape2" transform="matrix(1.0, 0.0, 0.0, 1.0, -15.15, -11.3)">
      <path d="M19.9 15.35 L20.4 15.25 20.7 14.95 20.65 14.5 Q20.5 14.3 20.2 14.25 L19.75 14.3 19.45 14.7 19.55 15.05 19.9 15.35" fill="#ffffff" fill-rule="evenodd" stroke="none"/>
      <path d="M19.9 15.35 L19.55 15.05 19.45 14.7 19.75 14.3 20.2 14.25 Q20.5 14.3 20.65 14.5 L20.7 14.95 20.4 15.25 19.9 15.35 M20.7 15.65 L21.15 15.9 20.95 15.5 21.3 15.0 21.25 14.45 22.05 13.9 21.15 14.2 20.35 13.65 19.35 13.75 18.95 14.2 17.65 14.3 Q18.55 14.5 18.75 14.8 L18.95 15.3 19.7 15.8 20.65 15.7 20.7 15.65" fill="#ffffff" fill-opacity="0.3019608" fill-rule="evenodd" stroke="none"/>
      <path d="M20.3 14.95 L21.4 14.45 19.95 14.55 19.0 13.15 19.75 14.7 15.15 16.05 19.9 15.1 21.45 17.35 20.3 14.95" fill="#ffffff" fill-rule="evenodd" stroke="none"/>
      <path d="M21.5 14.8 L21.6 15.25 21.0 15.1 20.2 15.15 18.6 16.8 18.35 17.15 17.75 17.05 Q17.15 17.0 16.65 16.45 L18.0 16.65 18.0 16.2 18.3 16.0 19.55 15.1 Q20.25 14.6 21.5 14.8 M16.45 15.4 L16.2 14.75 16.2 14.55 Q16.5 15.0 16.8 14.85 L17.3 14.7 16.65 15.1 16.45 15.4" fill="#1f0e00" fill-rule="evenodd" stroke="none"/>
      <path d="M19.4 13.6 L19.45 13.45 19.4 12.85 19.55 12.85 19.6 12.9 Q20.3 12.95 20.4 13.5 L20.45 13.7 21.1 14.2 21.5 14.8 Q20.25 14.6 19.55 15.1 L18.3 16.0 18.0 16.2 18.0 16.65 16.65 16.45 16.45 15.65 16.45 15.4 16.65 15.1 17.3 14.7 17.8 14.3 17.3 14.7 16.8 14.85 Q16.5 15.0 16.2 14.55 L17.2 13.25 17.65 12.95 17.55 13.25 17.7 13.6 Q17.85 13.95 18.6 13.9 L17.8 14.3 17.85 14.7 18.15 14.95 19.55 14.7 19.55 14.55 Q19.6 13.85 18.8 13.75 L19.4 13.6 20.15 13.65 20.45 13.7 20.15 13.65 19.4 13.6" fill="#733f10" fill-rule="evenodd" stroke="none"/>
      <path d="M19.4 12.85 L19.45 13.45 19.4 13.6 18.8 13.75 Q19.6 13.85 19.55 14.55 L19.55 14.7 18.15 14.95 17.85 14.7 17.8 14.3 18.6 13.9 Q17.85 13.95 17.7 13.6 L17.55 13.25 17.65 12.95 19.1 12.9 19.4 12.85 M18.8 13.75 L18.6 13.9 18.8 13.75" fill="#a16925" fill-rule="evenodd" stroke="none"/>
      <path d="M19.4 12.85 L19.1 12.9 17.65 12.95 M18.6 13.9 L18.8 13.75 19.4 13.6 20.15 13.65 20.45 13.7 20.4 13.5 Q20.3 12.95 19.6 12.9 L19.55 12.85 19.4 12.85 M20.45 13.7 L21.1 14.2 21.5 14.8 21.6 15.25 21.0 15.1 20.2 15.15 18.6 16.8 18.35 17.15 17.75 17.05 Q17.15 17.0 16.65 16.45 L16.45 15.65 16.45 15.4 16.2 14.75 16.2 14.55 17.2 13.25 17.65 12.95 M17.8 14.3 L17.3 14.7 16.65 15.1 16.45 15.4 M18.6 13.9 L17.8 14.3" fill="none" stroke="#000000" stroke-linecap="round" stroke-linejoin="round" stroke-opacity="0.3019608" stroke-width="0.05"/>
      <path d="M19.4 12.55 L19.4 13.15 M17.2 13.05 Q17.0 13.3 17.25 13.55 M19.85 15.8 L19.65 15.55 M16.7 14.9 L16.8 15.4 M17.3 15.8 L17.85 16.0 M18.4 16.1 L19.05 16.15 M17.65 14.0 L17.85 14.1 M20.95 16.2 L20.35 16.05 M20.25 14.95 L20.1 14.55 20.05 14.45 M19.8 14.05 L19.35 13.7 19.25 13.65" fill="none" stroke="#000000" stroke-linecap="round" stroke-linejoin="round" stroke-opacity="0.101960786" stroke-width="0.30000000000000004"/>
      <path d="M20.1 11.85 L20.4 11.75 20.4 11.65 20.45 12.6 20.25 13.45 20.15 13.5 19.85 13.5 19.8 13.45 19.65 13.45 19.55 13.35 19.45 12.65 19.45 12.6 20.0 12.55 20.1 11.85" fill="#1f0e00" fill-rule="evenodd" stroke="none"/>
      <path d="M20.1 11.85 L20.0 12.55 19.45 12.6 19.35 11.7 19.5 11.75 20.1 11.85" fill="#733f10" fill-rule="evenodd" stroke="none"/>
      <path d="M20.4 11.65 L20.4 11.75 20.1 11.85 19.5 11.75 19.35 11.7 Q19.45 11.4 19.75 11.35 20.3 11.15 20.4 11.65" fill="#a16925" fill-rule="evenodd" stroke="none"/>
      <path d="M19.8 13.45 L19.85 13.5" fill="none" stroke="#000000" stroke-linecap="round" stroke-linejoin="round" stroke-opacity="0.3019608" stroke-width="0.5"/>
      <path d="M20.4 11.65 L20.4 11.75 20.1 11.85 M19.45 12.65 L19.55 13.35 M20.15 13.5 L20.25 13.45 20.45 12.6 20.4 11.65 Q20.3 11.15 19.75 11.35 19.45 11.4 19.35 11.7 M19.45 12.6 L19.35 11.7" fill="none" stroke="#000000" stroke-linecap="round" stroke-linejoin="round" stroke-opacity="0.3019608" stroke-width="0.05"/>
      <path d="M19.85 13.15 L19.6 12.85 M20.35 13.4 L20.05 13.25 M19.9 12.15 L19.7 11.9 M20.35 12.5 L20.15 12.4" fill="none" stroke="#000000" stroke-linecap="round" stroke-linejoin="round" stroke-opacity="0.101960786" stroke-width="0.30000000000000004"/>
      <path d="M22.0 12.55 L22.3 12.8 22.45 12.8 21.25 13.5 20.15 14.1 20.0 13.95 19.9 13.8 19.85 13.65 19.8 13.5 19.85 13.25 21.1 13.05 Q21.55 12.9 22.0 12.55" fill="#1f0e00" fill-rule="evenodd" stroke="none"/>
      <path d="M21.7 11.6 L21.65 11.65 21.65 11.85 Q21.7 12.3 22.0 12.55 21.55 12.9 21.1 13.05 L19.85 13.25 20.6 12.5 21.7 11.6" fill="#733f10" fill-rule="evenodd" stroke="none"/>
      <path d="M22.45 12.8 L22.3 12.8 22.0 12.55 Q21.7 12.3 21.65 11.85 L21.65 11.65 21.7 11.6 22.35 11.75 Q22.95 12.25 22.45 12.8" fill="#a16925" fill-rule="evenodd" stroke="none"/>
      <path d="M19.8 13.5 L19.85 13.65" fill="none" stroke="#000000" stroke-linecap="round" stroke-linejoin="round" stroke-opacity="0.3019608" stroke-width="0.5"/>
      <path d="M22.0 12.55 L22.3 12.8 22.45 12.8 Q22.95 12.25 22.35 11.75 L21.7 11.6 21.65 11.65 M20.0 13.95 L20.15 14.1 21.25 13.5 22.45 12.8 M19.85 13.25 L20.6 12.5 21.7 11.6" fill="none" stroke="#000000" stroke-linecap="round" stroke-linejoin="round" stroke-opacity="0.3019608" stroke-width="0.05"/>
      <path d="M21.35 12.7 L21.55 12.3 M20.1 13.35 L20.3 12.95 M20.1 14.15 L20.1 13.75 M21.2 13.5 L21.2 13.15" fill="none" stroke="#000000" stroke-linecap="round" stroke-linejoin="round" stroke-opacity="0.101960786" stroke-width="0.30000000000000004"/>
    </g>
  </defs>
</svg>
