<?xml version="1.0" encoding="UTF-8" standalone="no"?>
<svg xmlns:xlink="http://www.w3.org/1999/xlink" height="440.0px" width="440.0px" xmlns="http://www.w3.org/2000/svg">
  <g transform="matrix(10.0, 0.0, 0.0, 10.0, 0.0, 0.0)">
    <use height="44.0" transform="matrix(1.0, 0.0, 0.0, 1.0, 0.0, 0.0)" width="44.0" xlink:href="#shape0"/>
  </g>
  <defs>
    <g id="shape0" transform="matrix(1.0, 0.0, 0.0, 1.0, 0.0, 0.0)">
      <path d="M44.0 44.0 L0.0 44.0 0.0 0.0 44.0 0.0 44.0 44.0" fill="#43adca" fill-opacity="0.0" fill-rule="evenodd" stroke="none"/>
      <path d="M41.7 9.7 Q41.6 8.45 41.1 6.9 40.7 5.5 38.45 4.55 L37.25 4.1 33.75 3.35 34.0 3.4 27.6 3.0 26.1 3.1 25.55 3.2 25.35 3.25 Q28.65 3.15 30.85 4.45 32.55 5.45 32.6 6.4 L32.6 6.55 Q32.6 7.4 31.3 7.75 L23.8 8.3 17.35 7.8 14.15 6.8 12.25 9.1 11.25 10.65 Q10.4 12.05 10.4 13.6 L10.45 14.0 10.55 14.65 10.75 15.5 13.0 16.6 13.55 20.25 Q13.75 24.25 12.4 25.85 L9.35 28.85 9.2 28.9 10.25 28.8 10.35 30.85 11.95 28.9 13.2 28.95 12.85 30.7 12.7 31.7 13.45 31.9 13.35 31.0 13.35 30.7 13.35 30.4 18.9 30.25 18.6 32.0 18.35 33.25 19.9 33.7 30.55 21.4 29.0 17.8 33.0 16.35 34.6 17.5 34.9 17.2 38.25 14.45 38.5 14.2 Q40.3 12.85 41.1 11.45 L41.7 9.7 M42.05 6.95 L42.45 8.55 Q42.65 10.2 42.25 11.45 41.7 13.35 39.95 14.35 L38.6 15.35 36.1 17.2 35.1 18.0 Q37.95 20.75 37.8 24.85 L34.8 25.65 Q31.75 27.2 28.95 30.05 26.1 32.8 24.15 35.3 22.1 37.7 21.7 39.45 21.35 41.55 18.75 41.55 L12.9 40.7 Q8.95 40.2 7.45 37.0 L6.7 35.45 5.2 33.55 Q2.4 30.7 1.1 28.3 L1.25 27.4 0.65 24.7 1.15 24.85 1.15 24.75 1.15 24.45 6.75 24.3 6.5 25.9 Q7.6 25.1 9.0 22.95 10.5 19.6 5.85 14.8 L6.05 14.4 Q8.05 14.5 10.15 15.25 L9.9 14.0 Q9.65 11.45 11.65 8.9 L12.15 8.4 13.7 6.55 13.7 6.5 13.45 6.2 13.2 5.85 Q13.05 4.65 18.7 3.55 L27.6 2.65 28.6 2.65 33.75 3.1 33.25 3.0 37.8 3.8 38.65 4.1 Q41.05 5.0 41.95 6.75 L42.05 6.95 M32.1 6.4 Q32.0 5.55 30.2 4.6 27.75 3.4 23.85 3.65 21.85 3.55 18.45 4.7 15.4 5.75 14.6 6.5 L17.6 7.45 23.75 7.9 30.85 7.4 31.45 7.2 31.7 7.05 31.75 7.05 32.1 6.4 M21.15 3.5 Q19.65 3.8 17.1 4.8 14.9 5.65 14.05 6.2 L13.85 6.0 13.75 5.85 Q13.7 5.35 16.7 4.45 L20.35 3.5 21.15 3.5" fill="none" stroke="#000000" stroke-linecap="round" stroke-linejoin="round" stroke-opacity="0.3019608" stroke-width="0.5"/>
      <path d="M29.0 17.8 L31.55 22.4 28.95 24.8 Q26.35 27.0 25.6 28.15 L21.45 33.55 20.75 33.65 20.15 33.7 19.9 33.7 20.6 32.9 30.55 21.4 29.0 17.8 M5.9 26.2 Q7.2 25.7 9.0 22.95 10.5 19.6 5.85 14.8 L6.05 14.4 7.05 15.25 Q11.5 20.05 9.55 23.1 7.4 25.85 5.9 26.2 M20.6 32.9 L20.75 33.65 20.6 32.9" fill="#faf0c0" fill-rule="evenodd" stroke="none"/>
      <path d="M33.75 23.7 L34.25 23.55 Q34.75 23.15 35.2 23.1 35.5 23.0 35.5 21.75 35.5 20.5 35.1 19.7 34.65 18.9 33.8 19.25 L33.25 19.5 33.2 19.5 Q32.8 19.7 32.7 20.05 L32.85 21.6 Q33.0 22.9 33.45 23.5 L33.75 23.7 M20.75 33.65 L21.45 33.55 25.6 28.15 Q26.35 27.0 28.95 24.8 L31.55 22.4 29.0 17.8 33.0 16.35 Q38.0 19.45 37.8 24.85 L34.8 25.65 Q31.75 27.2 28.95 30.05 26.1 32.8 24.15 35.3 22.1 37.7 21.7 39.45 L21.1 37.05 21.05 36.2 22.1 35.8 21.1 37.05 22.1 35.8 22.9 35.45 22.6 35.1 20.75 33.65 M23.95 33.15 L22.6 35.1 23.95 33.15 M19.9 33.7 L20.15 33.7 20.0 33.9 19.9 33.7 M29.6 26.15 Q28.65 26.8 28.25 27.2 28.65 26.8 29.6 26.15 M30.8 26.45 L27.9 28.85 25.15 31.4 27.9 28.85 30.8 26.45" fill="#968752" fill-rule="evenodd" stroke="none"/>
      <path d="M33.75 23.7 L34.2 22.95 34.4 22.3 34.0 20.6 33.25 19.5 33.8 19.25 Q34.65 18.9 35.1 19.7 35.5 20.5 35.5 21.75 35.5 23.0 35.2 23.1 34.75 23.15 34.25 23.55 L33.75 23.7" fill="#70653d" fill-rule="evenodd" stroke="none"/>
      <path d="M0.65 24.7 L1.9 25.1 5.75 26.2 5.9 26.2 Q7.4 25.85 9.55 23.1 11.5 20.05 7.05 15.25 L6.05 14.4 Q9.5 14.6 13.0 16.6 L13.55 20.25 Q13.75 24.25 12.4 25.85 L9.35 28.85 Q9.15 28.9 9.0 29.05 L6.9 30.1 0.65 24.7 M11.7 23.5 Q11.1 25.85 10.3 27.2 L9.0 29.05 10.3 27.2 Q11.1 25.85 11.7 23.5" fill="#4f462a" fill-rule="evenodd" stroke="none"/>
      <path d="M20.75 33.65 L22.6 35.1 22.4 35.45 22.6 35.1 22.9 35.45 22.4 35.45 Q19.05 35.1 20.0 33.9 L20.15 33.7 20.75 33.65 M21.7 39.45 Q21.35 41.55 18.75 41.55 L12.9 40.7 Q8.95 40.2 7.45 37.0 L6.7 35.45 5.2 33.55 Q2.4 30.7 1.1 28.3 L1.25 27.4 3.05 29.15 Q3.6 29.35 4.0 29.7 L6.25 31.45 Q11.7 34.1 21.05 36.2 L21.1 37.05 21.7 39.45 M8.15 36.2 L8.45 37.0 9.0 36.65 9.5 36.25 8.45 34.8 Q7.7 33.65 7.1 33.65 6.7 34.7 6.7 35.45 6.7 34.7 7.1 33.65 7.7 33.65 8.45 34.8 L9.5 36.25 9.0 36.65 8.45 37.0 8.15 36.2" fill="#b9a882" fill-rule="evenodd" stroke="none"/>
      <path d="M1.25 27.4 L0.65 24.7 6.9 30.1 19.9 33.7 20.0 33.9 Q19.05 35.1 22.4 35.45 L22.1 35.7 22.4 35.45 22.9 35.45 22.1 35.8 21.05 36.2 Q11.7 34.1 6.25 31.45 L4.0 29.7 3.75 29.15 3.05 29.15 1.25 27.4 M22.1 35.7 L21.05 36.2 22.1 35.7 22.1 35.8 22.1 35.7 22.9 35.45 22.1 35.7" fill="#dbd09b" fill-rule="evenodd" stroke="none"/>
      <path d="M22.1 35.7 L22.4 35.45 22.6 35.1 M22.1 35.8 L22.1 35.7" fill="none" stroke="#000000" stroke-linecap="round" stroke-linejoin="round" stroke-opacity="0.15294118" stroke-width="0.5"/>
      <path d="M33.25 19.5 L34.0 20.6 34.4 22.3 34.2 22.95 33.75 23.7 M33.25 19.5 L33.2 19.5 Q32.8 19.7 32.7 20.05 L32.85 21.6 Q33.0 22.9 33.45 23.5 L33.75 23.7 M20.75 33.65 L22.6 35.1 23.95 33.15 M19.9 33.7 L20.6 32.9 30.55 21.4 29.0 17.8 33.0 16.35 Q38.0 19.45 37.8 24.85 L34.8 25.65 Q31.75 27.2 28.95 30.05 26.1 32.8 24.15 35.3 22.1 37.7 21.7 39.45 21.35 41.55 18.75 41.55 L12.9 40.7 Q8.95 40.2 7.45 37.0 L6.7 35.45 5.2 33.55 Q2.4 30.7 1.1 28.3 L1.25 27.4 M1.9 25.1 L5.75 26.2 5.9 26.2 Q7.2 25.7 9.0 22.95 10.5 19.6 5.85 14.8 L6.05 14.4 Q9.5 14.6 13.0 16.6 L13.55 20.25 Q13.75 24.25 12.4 25.85 L9.35 28.85 M6.9 30.1 L19.9 33.7 M20.75 33.65 L20.6 32.9 M21.05 36.2 L22.1 35.7 22.9 35.45 M6.7 35.45 Q6.7 34.7 7.1 33.65 7.7 33.65 8.45 34.8 L9.5 36.25 9.0 36.65 8.45 37.0 8.15 36.2 M9.0 29.05 L10.3 27.2 Q11.1 25.85 11.7 23.5 M28.25 27.2 Q28.65 26.8 29.6 26.15 M21.05 36.2 L21.1 37.05 22.1 35.8 M22.6 35.1 L22.9 35.45 M25.15 31.4 L27.9 28.85 30.8 26.45 M21.1 37.05 L21.7 39.45 M0.65 24.7 L6.9 30.1" fill="none" stroke="#000000" stroke-linecap="round" stroke-linejoin="round" stroke-opacity="0.2" stroke-width="0.05"/>
      <path d="M13.35 31.0 L13.8 32.5 Q15.15 34.4 17.95 33.5 L18.6 32.0 17.8 34.55 Q15.1 35.6 13.6 33.5 L13.35 31.0" fill="#9c8e5a" fill-rule="evenodd" stroke="none"/>
      <path d="M13.35 31.0 L13.35 30.7 13.35 30.4 18.9 30.25 18.6 32.0 17.95 33.5 Q15.15 34.4 13.8 32.5 L13.35 31.0" fill="#ffffff" fill-rule="evenodd" stroke="none"/>
      <path d="M18.6 32.0 L18.9 30.25 13.35 30.4 13.35 30.7 13.35 31.0 M18.6 32.0 L17.8 34.55 Q15.1 35.6 13.6 33.5 L13.35 31.0" fill="none" stroke="#000000" stroke-linecap="round" stroke-linejoin="round" stroke-opacity="0.2" stroke-width="0.05"/>
      <path d="M1.15 24.75 L1.15 24.45 6.75 24.3 6.45 26.05 Q6.3 27.25 5.6 28.65 2.9 29.65 1.45 27.6 1.15 25.95 1.15 24.75" fill="#ffffff" fill-rule="evenodd" stroke="none"/>
      <path d="M1.15 24.75 Q1.15 25.95 1.45 27.6 2.9 29.65 5.6 28.65 6.3 27.25 6.45 26.05 L6.75 24.3 1.15 24.45 1.15 24.75 Z" fill="none" stroke="#000000" stroke-linecap="round" stroke-linejoin="round" stroke-opacity="0.2" stroke-width="0.05"/>
      <path d="M2.95 27.4 L3.4 29.2 Q4.8 31.05 7.65 30.25 8.15 29.35 8.25 28.65 8.15 29.85 7.4 31.25 4.7 32.3 3.25 30.25 2.95 28.5 2.95 27.4" fill="#9c8e5a" fill-rule="evenodd" stroke="none"/>
      <path d="M8.25 28.65 Q8.15 29.35 7.65 30.25 4.8 31.05 3.4 29.2 L2.95 27.4 2.95 27.1 8.55 26.95 8.25 28.65" fill="#ffffff" fill-rule="evenodd" stroke="none"/>
      <path d="M2.95 27.4 Q2.95 28.5 3.25 30.25 4.7 32.3 7.4 31.25 8.15 29.85 8.25 28.65 L8.55 26.95 2.95 27.1 2.95 27.4 Z" fill="none" stroke="#000000" stroke-linecap="round" stroke-linejoin="round" stroke-opacity="0.2" stroke-width="0.05"/>
      <path d="M7.65 29.5 L7.95 31.25 Q9.45 33.2 12.25 32.3 L12.85 30.7 Q12.75 32.0 12.0 33.35 9.3 34.4 7.85 32.3 L7.65 29.5" fill="#9c8e5a" fill-rule="evenodd" stroke="none"/>
      <path d="M7.65 29.5 L7.65 29.2 10.25 28.8 10.35 30.85 11.95 28.9 13.2 28.95 12.85 30.7 12.25 32.3 Q9.45 33.2 7.95 31.25 L7.65 29.5" fill="#ffffff" fill-rule="evenodd" stroke="none"/>
      <path d="M12.85 30.7 L13.2 28.95 11.95 28.9 10.35 30.85 10.25 28.8 7.65 29.2 7.65 29.5 M12.85 30.7 Q12.75 32.0 12.0 33.35 9.3 34.4 7.85 32.3 L7.65 29.5" fill="none" stroke="#000000" stroke-linecap="round" stroke-linejoin="round" stroke-opacity="0.2" stroke-width="0.05"/>
      <path d="M33.95 20.6 L34.35 22.25 34.2 22.95 33.65 23.7 33.45 23.5 Q33.0 22.85 32.85 21.6 L32.7 20.0 Q32.75 19.7 33.15 19.5 L33.2 19.5 33.95 20.6 Z" fill="none" stroke="#000000" stroke-linecap="round" stroke-linejoin="round" stroke-opacity="0.2" stroke-width="0.05"/>
      <path d="M38.45 4.55 L37.25 4.1 33.75 3.35 34.0 3.4 27.6 3.0 26.1 3.1 25.55 3.2 25.35 3.25 21.2 3.5 21.15 3.5 20.35 3.5 16.7 4.45 Q13.7 5.35 13.75 5.85 L13.85 6.0 14.05 6.2 14.6 6.5 17.6 7.45 23.75 7.9 30.85 7.4 31.45 7.2 31.7 7.05 31.75 7.05 32.6 6.55 Q32.6 7.4 31.3 7.75 L23.8 8.3 17.35 7.8 14.15 6.8 13.7 6.55 13.7 6.5 13.45 6.2 13.2 5.85 Q13.05 4.65 18.7 3.55 L27.6 2.65 28.6 2.65 33.75 3.1 33.25 3.0 37.8 3.8 38.45 4.55 M12.25 9.1 L11.25 10.65 Q10.4 12.05 10.4 13.6 L10.45 14.0 10.55 14.65 10.45 15.15 10.2 15.75 9.9 14.0 Q9.65 11.45 11.65 8.9 L12.15 8.4 12.25 8.85 12.25 9.1 M10.55 17.6 L10.0 17.5 Q9.35 17.35 9.35 17.2 L9.45 17.1 9.7 16.95 9.8 16.95 10.35 17.2 10.55 17.55 10.55 17.6 M36.1 17.2 L35.05 18.0 34.8 19.2 Q34.5 20.5 34.0 21.1 L33.85 21.15 33.55 21.75 32.7 22.1 32.35 22.1 32.3 22.1 32.95 21.45 32.9 21.4 33.4 20.65 33.9 19.55 34.1 18.65 34.4 17.65 34.9 17.2 36.1 17.2" fill="#524b28" fill-rule="evenodd" stroke="none"/>
      <path d="M34.9 17.2 L38.25 14.45 38.5 14.2 Q40.3 12.85 41.1 11.45 L41.7 9.7 Q41.6 8.45 41.1 6.9 40.7 5.5 38.45 4.55 L37.8 3.8 38.65 4.1 Q41.05 5.0 41.95 6.75 L42.05 6.95 42.45 8.55 Q42.65 10.2 42.25 11.45 41.7 13.35 39.95 14.35 L38.6 15.35 36.1 17.2 34.9 17.2 M25.35 3.25 Q28.65 3.15 30.85 4.45 32.55 5.45 32.6 6.4 L32.6 6.55 31.75 7.05 32.1 6.4 Q32.0 5.55 30.2 4.6 27.75 3.4 23.85 3.65 21.85 3.55 18.45 4.7 15.4 5.75 14.6 6.5 L14.05 6.2 Q14.9 5.65 17.1 4.8 19.65 3.8 21.15 3.5 L21.2 3.5 25.35 3.25 M14.15 6.8 L12.25 9.1 12.25 8.85 12.15 8.4 13.7 6.55 14.15 6.8 M10.55 14.65 L11.1 16.5 11.65 17.65 11.65 17.75 11.6 17.75 11.55 17.85 11.55 17.95 11.55 18.25 11.1 18.55 10.75 18.35 10.95 18.0 10.55 17.6 10.55 17.55 10.35 17.2 9.8 16.95 10.55 17.05 10.2 15.9 10.2 15.75 10.45 15.15 10.55 14.65 M34.0 21.1 L34.2 21.4 34.0 22.15 Q33.75 22.55 33.25 22.6 L33.1 22.55 32.3 22.3 32.2 22.25 32.3 22.1 32.35 22.1 32.7 22.1 33.55 21.75 33.85 21.15 34.0 21.1" fill="#332e19" fill-rule="evenodd" stroke="none"/>
    </g>
  </defs>
</svg>
