<?xml version="1.0" encoding="UTF-8" standalone="no"?>
<svg xmlns:xlink="http://www.w3.org/1999/xlink" height="440.0px" width="440.0px" xmlns="http://www.w3.org/2000/svg">
  <g transform="matrix(10.0, 0.0, 0.0, 10.0, 0.0, 0.0)">
    <use height="44.0" transform="matrix(1.0, 0.0, 0.0, 1.0, 0.0, 0.0)" width="44.0" xlink:href="#shape0"/>
    <use height="15.35" transform="matrix(-0.0536, 0.6551, -0.5497, -0.0639, 26.65, 13.85)" width="19.7" xlink:href="#sprite0"/>
  </g>
  <defs>
    <g id="shape0" transform="matrix(1.0, 0.0, 0.0, 1.0, 0.0, 0.0)">
      <path d="M44.0 44.0 L0.0 44.0 0.0 0.0 44.0 0.0 44.0 44.0" fill="#43adca" fill-opacity="0.0" fill-rule="evenodd" stroke="none"/>
      <path d="M39.95 10.9 Q41.5 14.65 41.9 19.35 L41.5 19.5 Q41.2 15.35 39.7 11.15 L39.95 10.9 M37.45 12.5 L37.65 10.9 37.65 10.85 37.65 10.45 37.35 10.55 30.85 10.8 30.4 10.35 37.6 10.1 37.65 10.15 37.7 9.6 Q38.1 12.15 37.95 14.95 37.35 14.15 37.45 12.5 M3.3 16.1 L3.15 15.85 Q0.9 12.6 2.1 10.45 L3.75 8.85 Q4.4 8.35 5.1 7.95 L5.25 8.2 5.3 8.4 5.0 8.6 4.75 8.7 3.95 9.35 Q2.85 10.3 2.4 11.6 2.3 13.75 3.55 15.2 L3.7 15.35 3.5 15.7 3.3 16.1 M15.05 7.55 L16.2 8.0 Q20.5 10.0 25.7 10.0 28.4 8.3 31.3 7.3 33.1 6.9 35.45 7.65 L35.5 7.65 35.55 7.65 36.4 7.85 36.45 7.85 36.5 7.85 36.65 7.9 36.7 7.9 36.9 7.95 Q37.2 8.6 36.55 8.7 L36.3 8.7 35.75 8.55 35.6 8.5 35.55 8.45 35.5 8.5 35.5 8.45 34.55 8.25 30.6 7.95 Q28.75 8.7 26.9 9.75 L26.6 9.9 25.9 10.4 25.6 10.55 Q23.7 11.8 21.95 13.4 L21.45 14.0 21.2 13.75 Q23.0 11.95 24.9 10.5 19.85 10.5 15.75 8.55 L15.45 8.45 Q14.95 8.0 15.05 7.55 M39.45 7.75 L40.55 7.2 40.65 7.2 40.8 7.15 41.0 7.15 42.25 7.3 42.3 7.4 42.3 7.95 42.05 8.6 41.0 9.5 39.6 10.05 38.9 10.2 38.4 10.35 38.4 10.0 38.85 9.9 39.45 9.75 Q41.25 9.3 41.3 8.7 41.6 8.2 41.4 7.85 40.95 7.75 39.95 8.3 L39.6 8.4 39.45 7.75 M42.05 8.6 Q41.85 7.85 41.4 7.85 41.85 7.85 42.05 8.6 M37.65 10.15 L37.65 10.45 37.65 10.15 M36.65 7.9 L36.45 7.85 36.65 7.9 M25.7 10.0 L24.9 10.5 25.7 10.0 M18.55 15.95 L18.9 15.7 19.2 15.65 19.35 15.65 19.65 15.75 19.25 16.05 19.05 16.2 Q16.7 17.55 14.4 18.3 13.6 18.3 13.5 17.8 16.4 17.3 18.55 15.95" fill="#664422" fill-rule="evenodd" stroke="none"/>
      <path d="M4.3 20.8 Q3.35 19.95 3.05 18.6 2.75 17.25 3.3 16.1 L3.5 15.7 3.7 15.35 Q4.5 14.25 5.75 13.95 L6.05 13.9 Q7.35 13.7 8.4 14.45 9.7 15.3 10.0 16.85 L10.1 18.2 9.9 18.2 9.8 17.4 Q9.45 15.85 8.2 15.05 7.45 14.55 6.65 14.5 L6.8 14.95 Q6.85 16.6 5.4 17.55 L5.15 17.7 Q4.1 18.3 3.95 19.35 3.95 20.05 4.3 20.8 M4.95 6.6 Q5.0 5.95 5.35 5.35 6.0 4.3 7.1 4.0 L7.8 3.9 8.8 4.15 9.2 4.4 10.25 5.55 10.5 6.25 10.5 6.45 10.5 7.05 10.3 8.2 10.25 8.35 10.1 8.6 Q9.5 9.65 8.4 9.9 L8.15 9.95 9.1 9.4 9.55 8.9 9.7 8.7 9.8 8.45 Q10.15 7.85 10.1 7.15 L10.1 6.6 10.05 6.4 9.8 5.65 8.85 4.55 Q8.9 6.45 6.3 6.85 L6.25 6.75 5.65 6.55 5.35 6.55 Q5.5 5.95 5.8 5.5 L6.0 5.25 6.05 5.35 Q6.1 5.65 6.5 5.65 L7.3 5.5 7.95 4.95 8.15 4.4 8.05 4.3 7.6 4.1 7.55 4.1 7.45 4.1 7.35 4.05 7.2 4.1 6.8 4.2 6.45 4.45 Q6.0 4.75 5.65 5.35 L5.25 6.5 4.95 6.6 M35.55 7.65 L35.75 7.25 35.85 7.05 36.3 6.7 36.7 6.5 37.6 6.6 37.85 6.7 37.9 6.75 Q38.4 7.15 38.5 7.75 L38.55 7.9 38.55 8.05 38.45 8.75 38.35 8.9 38.35 8.95 38.2 9.15 38.1 9.3 38.0 9.35 37.7 9.6 37.35 9.7 36.35 9.6 36.25 9.5 35.6 8.65 35.55 8.5 35.6 8.5 35.75 8.55 36.3 8.7 36.35 9.35 36.5 9.4 37.3 9.55 37.4 9.55 37.5 9.5 37.85 9.35 38.1 9.25 38.1 9.15 38.2 8.95 38.35 8.15 38.3 7.95 38.0 7.25 37.7 7.0 37.65 6.95 Q37.6 7.25 37.05 7.3 36.4 7.5 36.4 7.85 L35.55 7.65 M36.05 7.0 L36.05 7.25 36.3 7.3 36.6 7.25 36.85 7.0 36.9 6.7 36.65 6.65 36.35 6.7 36.05 7.0 M21.4 17.35 L21.3 17.75 21.4 18.15 21.7 18.35 22.0 18.2 22.15 17.8 22.0 17.4 Q21.95 17.25 21.7 17.2 21.55 17.2 21.4 17.35 M21.95 19.15 L21.35 18.75 21.0 17.95 Q21.0 17.55 21.3 17.25 21.6 16.95 21.95 17.0 22.8 18.1 21.95 19.15 M23.35 21.45 L23.25 21.4 Q22.35 21.2 21.5 22.0 20.65 22.85 20.45 24.25 20.2 25.65 20.65 26.75 L20.85 27.1 20.75 27.25 Q20.4 28.8 20.85 30.15 L20.9 30.3 Q21.2 31.05 21.7 31.05 L22.2 30.9 Q22.9 30.3 22.55 28.8 22.1 27.95 21.6 28.65 L21.7 27.95 22.1 28.1 22.75 28.05 23.1 30.5 Q22.85 32.25 21.75 32.2 20.6 32.05 19.7 29.65 18.75 26.6 20.05 23.75 20.55 22.45 21.5 21.5 L21.65 21.4 22.9 20.5 25.2 19.9 25.85 21.3 Q24.95 21.55 24.5 22.35 L24.2 21.95 Q24.4 21.4 24.05 21.1 23.6 20.95 23.35 21.45 M23.6 27.65 L23.85 27.45 24.4 26.7 24.5 27.15 Q24.85 28.45 24.55 29.8 24.9 30.05 25.1 29.6 25.35 28.9 25.1 28.15 26.3 29.2 25.8 31.35 L25.75 31.65 25.85 31.7 24.0 34.05 22.85 33.55 23.8 32.5 24.25 30.0 23.8 28.2 23.6 27.65 M25.75 27.1 L27.1 28.4 26.75 29.65 26.65 29.3 26.6 29.25 25.75 27.1 M32.75 21.3 L32.15 20.3 32.0 20.25 32.2 20.75 32.25 21.65 32.3 21.75 32.15 22.05 32.05 22.05 32.0 22.0 31.4 21.6 31.1 20.8 Q31.1 20.35 31.25 20.1 L31.7 19.9 31.85 19.95 31.85 20.0 32.15 20.15 32.2 20.2 32.45 20.4 32.75 21.2 32.75 21.3 M31.45 20.15 L31.3 20.3 Q31.2 20.4 31.25 20.65 L31.4 21.0 31.7 21.15 31.85 20.9 31.9 20.8 31.9 20.55 31.85 20.4 31.7 20.25 31.45 20.15 M5.85 14.45 L5.8 14.45 5.75 14.4 5.7 14.45 5.6 14.45 5.5 14.45 5.45 14.45 5.05 14.6 Q4.85 14.65 4.7 14.8 L3.9 15.65 Q3.55 16.25 3.45 16.9 L3.6 16.85 Q3.7 16.3 4.05 15.85 L4.25 15.65 4.25 15.7 4.75 16.0 5.55 15.85 6.2 15.3 Q6.45 15.0 6.3 14.7 L6.3 14.65 5.85 14.45 M18.35 32.9 Q18.3 31.45 17.6 31.2 17.8 32.4 17.35 33.2 L17.0 33.75 16.8 33.65 15.95 32.85 Q15.7 32.3 15.8 31.7 15.95 31.1 16.4 30.85 L17.4 30.75 17.5 30.8 18.0 31.2 18.25 31.55 Q18.5 32.15 18.35 32.75 L18.35 32.9 M17.1 31.1 L16.75 30.9 Q16.5 30.9 16.3 31.05 L16.2 31.55 16.25 32.1 16.7 32.35 17.05 32.15 17.25 31.6 17.1 31.1 M31.65 35.1 L31.4 34.9 31.05 34.0 Q31.05 33.55 31.35 33.15 31.55 33.0 31.8 32.95 L31.9 33.15 32.15 33.7 Q32.25 34.3 31.85 34.85 L31.65 35.1 M31.95 34.05 L32.05 33.7 31.9 33.35 Q31.85 33.2 31.65 33.2 31.55 33.2 31.45 33.35 L31.3 33.65 31.4 34.05 31.65 34.1 31.95 34.05" fill="#cc0066" fill-rule="evenodd" stroke="none"/>
      <path d="M21.4 17.35 Q21.55 17.2 21.7 17.2 21.95 17.25 22.0 17.4 L22.15 17.8 22.0 18.2 21.7 18.35 21.4 18.15 21.3 17.75 21.4 17.35 M31.45 20.15 L31.7 20.25 31.85 20.4 31.9 20.55 31.9 20.8 31.85 20.9 31.7 21.15 31.4 21.0 31.25 20.65 Q31.2 20.4 31.3 20.3 L31.45 20.15 M17.1 31.1 L17.25 31.6 17.05 32.15 16.7 32.35 16.25 32.1 16.2 31.55 16.3 31.05 Q16.5 30.9 16.75 30.9 L17.1 31.1 M31.95 34.05 L31.65 34.1 31.4 34.05 31.3 33.65 31.45 33.35 Q31.55 33.2 31.65 33.2 31.85 33.2 31.9 33.35 L32.05 33.7 31.95 34.05" fill="#fd3599" fill-rule="evenodd" stroke="none"/>
      <path d="M36.45 7.85 L36.4 7.85 Q36.4 7.5 37.05 7.3 37.6 7.25 37.65 6.95 L37.7 7.0 38.0 7.25 37.7 7.75 Q37.0 8.05 37.3 9.55 L36.5 9.4 36.35 9.35 36.3 8.7 36.55 8.7 Q37.2 8.6 36.9 7.95 L36.7 7.9 36.65 7.9 36.5 7.85 36.45 7.85" fill="#2b0015" fill-rule="evenodd" stroke="none"/>
      <path d="M7.85 21.4 L7.35 21.5 5.95 21.55 Q5.05 19.7 5.55 18.3 L6.35 17.05 Q7.45 15.85 8.2 15.65 9.4 16.8 9.55 18.2 L9.15 18.15 8.85 17.15 8.65 18.05 7.05 17.6 6.65 17.4 Q6.05 17.7 6.45 18.3 L6.9 18.45 8.45 18.85 Q8.15 19.45 7.1 19.7 6.4 19.8 6.2 20.55 6.2 21.3 6.95 21.2 8.0 20.95 8.6 20.3 L9.2 18.95 9.45 19.0 Q9.2 20.4 7.85 21.4 M37.3 9.55 Q37.0 8.05 37.7 7.75 L38.0 7.25 38.3 7.95 38.35 8.15 38.2 8.95 38.1 9.15 38.1 9.25 37.85 9.35 37.5 9.5 37.4 9.55 37.3 9.55 M21.95 17.0 L22.25 17.05 22.7 17.4 22.8 17.45 23.0 18.2 22.75 18.9 22.65 19.0 22.2 19.15 22.05 19.15 21.95 19.15 Q22.8 18.1 21.95 17.0 M27.05 21.25 Q26.55 20.65 26.65 20.0 29.35 20.9 30.35 22.2 L30.45 22.3 Q32.3 24.95 32.25 27.8 31.95 29.65 31.3 30.55 30.35 31.55 30.0 30.8 L30.2 30.35 Q31.15 28.7 31.2 27.45 31.35 26.15 30.65 24.3 L29.9 23.05 29.65 22.65 28.25 21.55 27.05 21.25 M29.95 28.55 Q30.05 30.2 28.75 31.75 28.2 32.35 27.7 33.5 L27.35 34.05 Q27.45 31.1 27.85 28.8 L28.55 28.95 Q29.35 29.0 29.95 28.55 M32.75 21.3 L32.65 21.9 32.6 21.9 32.4 22.0 32.3 22.0 32.15 22.05 32.3 21.75 32.25 21.65 32.2 20.75 32.0 20.25 32.15 20.3 32.75 21.3 M17.0 33.75 L17.35 33.2 Q17.8 32.4 17.6 31.2 18.3 31.45 18.35 32.9 L17.8 33.55 17.8 33.65 17.45 33.8 17.0 33.75 M31.95 32.9 L32.15 32.95 32.65 33.15 32.9 33.35 Q33.25 33.75 33.2 34.2 33.3 34.75 32.95 35.1 L32.65 35.2 32.15 35.3 31.85 35.25 31.65 35.1 31.85 34.85 Q32.25 34.3 32.15 33.7 L31.9 33.15 31.8 32.95 31.95 32.9 M29.45 31.65 L30.3 31.7 Q29.9 32.6 28.65 33.25 28.7 32.35 29.45 31.65" fill="#76013c" fill-rule="evenodd" stroke="none"/>
      <path d="M42.3 7.4 L42.35 7.45 42.45 8.2 42.35 8.3 Q42.15 9.2 41.1 9.85 L39.8 10.35 39.75 10.35 39.95 10.9 39.7 11.15 Q41.2 15.35 41.5 19.5 41.05 19.75 40.75 19.25 40.65 15.05 39.45 11.5 L39.1 10.5 38.4 10.7 Q38.65 14.55 37.7 17.4 L37.95 14.95 Q38.1 12.15 37.7 9.6 L38.0 9.35 38.1 9.3 38.2 9.15 38.35 9.6 38.4 10.0 38.4 10.35 38.9 10.2 39.6 10.05 41.0 9.5 42.05 8.6 42.3 7.95 42.3 7.4 M37.65 10.85 L37.45 10.9 Q33.05 11.35 28.5 10.9 L27.3 10.8 26.1 10.7 Q24.15 11.95 22.4 13.55 L21.1 14.95 20.9 14.6 20.75 14.4 20.65 14.25 21.0 13.9 21.2 13.75 21.45 14.0 21.95 13.4 Q23.7 11.8 25.6 10.55 L25.9 10.4 26.6 9.9 26.9 9.75 Q28.75 8.7 30.6 7.95 L34.55 8.25 31.1 8.1 Q29.0 8.85 27.05 10.05 L27.7 10.1 29.0 10.3 Q28.65 10.4 28.55 10.6 L30.85 10.8 37.35 10.55 37.65 10.45 37.65 10.85 M19.1 16.55 L18.55 16.85 Q15.0 18.75 11.65 19.05 L10.2 19.05 9.95 19.05 9.45 19.0 9.2 18.95 8.45 18.85 6.9 18.45 6.45 18.3 Q6.05 17.7 6.65 17.4 L7.05 17.6 8.65 18.05 9.15 18.15 9.55 18.2 9.9 18.2 10.1 18.2 10.9 18.15 11.75 18.1 Q11.5 18.35 11.6 18.85 L14.4 18.3 Q16.7 17.55 19.05 16.2 L19.25 16.05 19.65 15.75 19.85 16.05 Q19.7 16.2 19.5 16.3 L19.4 16.35 19.1 16.55 M12.45 6.7 L13.75 7.1 13.75 7.75 12.4 7.3 12.45 6.7 M38.55 7.9 L38.65 7.9 39.45 7.75 39.6 8.4 38.9 8.65 39.45 9.75 38.85 9.9 38.4 8.9 38.35 8.9 38.45 8.75 38.55 8.05 38.55 7.9 M38.4 10.7 L38.4 10.35 38.4 10.7 M38.55 8.05 L38.65 8.25 38.9 8.65 38.65 8.25 38.55 8.05 M39.75 10.35 L39.1 10.5 39.75 10.35 M27.05 10.05 L26.1 10.7 27.05 10.05" fill="#392613" fill-rule="evenodd" stroke="none"/>
      <path d="M35.55 8.5 L35.55 8.45 35.6 8.5 35.55 8.5" fill="#31c6c6" fill-rule="evenodd" stroke="none"/>
      <path d="M37.7 17.4 Q36.8 17.75 36.4 16.85 L37.45 12.5 Q37.35 14.15 37.95 14.95 L37.7 17.4 M13.75 7.1 Q14.4 7.25 15.05 7.55 14.95 8.0 15.45 8.45 L13.75 7.75 13.75 7.1 M29.0 10.3 L30.4 10.35 30.85 10.8 28.55 10.6 Q28.65 10.4 29.0 10.3 M11.75 18.1 L13.5 17.8 Q13.6 18.3 14.4 18.3 L11.6 18.85 Q11.5 18.35 11.75 18.1" fill="#bf8040" fill-rule="evenodd" stroke="none"/>
      <path d="M23.65 16.6 Q24.2 16.6 24.55 16.9 25.2 17.5 25.35 18.25 L25.55 18.6 25.85 19.15 Q25.6 19.45 24.95 19.5 L24.75 19.5 24.3 19.5 24.25 19.0 Q24.0 17.85 23.35 16.65 L23.4 16.65 23.65 16.6 M34.3 24.6 L34.8 25.2 34.9 25.65 Q34.7 27.15 34.05 26.7 L33.95 25.2 34.15 25.0 34.3 24.6 M34.75 26.95 L35.15 28.6 Q34.95 30.05 33.9 29.8 33.7 28.95 33.9 28.05 L34.35 27.7 34.75 26.95 M23.05 39.6 L21.35 39.85 20.65 39.5 Q22.25 38.05 21.15 35.1 19.8 36.15 19.4 38.2 19.2 37.25 19.3 36.35 19.8 35.1 20.75 34.3 L21.45 33.85 21.75 34.35 22.05 35.15 22.2 36.45 Q22.3 38.3 23.05 39.6 M26.15 19.35 L26.55 18.05 26.65 17.45 27.35 18.15 27.4 18.5 27.45 18.85 27.6 19.45 26.4 19.5 26.15 19.35 M27.8 19.85 Q27.95 19.05 28.5 18.3 28.8 18.55 28.95 19.35 L28.95 19.7 28.95 20.0 27.95 19.9 27.8 19.85 M21.1 20.1 L21.2 20.45 Q20.4 20.25 19.8 19.25 L20.05 18.7 Q20.8 19.25 21.1 20.1 M20.55 20.9 L20.4 21.3 20.2 21.6 Q18.85 21.95 19.15 19.85 L19.7 20.2 20.6 20.65 20.55 20.9 M19.15 22.35 L19.15 22.9 18.85 23.75 Q17.7 24.15 17.5 22.0 L18.15 22.15 19.15 22.35 M18.25 24.5 Q18.5 25.6 18.0 26.35 16.6 26.75 16.4 24.75 L16.85 24.75 18.25 24.5 M17.95 27.0 L18.2 27.8 18.35 29.0 18.35 29.05 18.5 29.5 17.15 28.95 16.8 28.8 Q15.95 28.65 15.3 29.05 L15.55 28.25 16.75 27.75 Q17.5 27.45 17.95 27.0 M24.9 35.35 L25.3 35.75 25.6 36.7 Q26.15 38.4 27.15 39.25 L25.1 39.35 25.35 38.55 Q25.6 37.2 24.9 35.35 M29.45 20.5 L29.25 20.4 Q29.4 19.6 29.8 18.95 L29.8 18.6 Q30.1 18.75 30.05 19.15 29.6 19.75 29.45 20.5 M33.2 23.15 L33.95 22.9 34.2 23.4 Q34.4 24.45 33.7 24.45 L33.2 23.15 M33.85 30.95 L34.2 30.9 34.6 30.6 Q34.4 33.45 33.45 32.6 33.35 31.7 33.85 30.95 M29.95 34.2 L30.3 34.6 31.35 36.1 31.6 36.65 Q31.3 37.3 30.7 37.2 29.85 36.1 29.95 34.2 M28.2 35.95 L29.3 37.25 30.05 37.75 Q29.55 38.7 28.45 38.5 27.75 37.45 28.2 35.95" fill="#d7ae0f" fill-rule="evenodd" stroke="none"/>
      <path d="M24.55 16.9 L24.95 16.7 Q25.75 17.55 25.85 18.4 26.55 18.0 26.35 17.15 L25.95 16.7 26.25 16.8 26.55 17.0 26.7 17.1 26.75 17.15 27.2 17.1 Q27.7 18.05 27.65 18.85 28.35 18.7 28.4 17.8 L28.1 17.35 28.4 17.55 28.5 17.7 28.65 17.95 28.65 18.0 29.0 17.95 29.05 17.95 Q29.3 18.0 29.65 18.2 L29.8 18.25 30.2 18.5 30.5 18.7 30.05 19.15 Q30.1 18.75 29.8 18.6 L29.8 18.95 Q29.4 19.6 29.25 20.4 L29.05 20.3 28.95 20.0 28.95 19.7 28.95 19.35 Q28.8 18.55 28.5 18.3 27.95 19.05 27.8 19.85 L27.6 19.45 27.45 18.85 27.4 18.5 27.35 18.15 27.0 17.45 26.75 17.15 27.0 17.45 27.35 18.15 26.65 17.45 26.55 18.05 26.15 19.35 25.85 19.15 25.55 18.6 25.35 18.25 Q25.2 17.5 24.55 16.9 M34.2 23.4 L34.4 24.0 33.95 24.85 33.25 25.6 Q33.55 24.3 33.05 23.25 L33.2 23.15 33.7 24.45 Q34.4 24.45 34.2 23.4 M34.9 25.65 L34.8 26.75 34.75 26.95 34.25 27.45 33.4 28.0 Q33.95 26.7 33.65 25.6 L33.95 25.2 34.05 26.7 Q34.7 27.15 34.9 25.65 M35.15 28.6 L35.2 29.05 35.1 29.55 35.0 30.05 34.1 30.65 32.9 30.85 Q33.75 29.55 33.65 28.2 L33.9 28.05 Q33.7 28.95 33.9 29.8 34.95 30.05 35.15 28.6 M34.6 30.6 Q34.85 31.5 34.5 32.6 L34.2 33.5 34.15 33.5 33.45 32.6 Q34.4 33.45 34.6 30.6 M30.05 37.75 Q29.85 38.55 29.0 39.1 L29.0 39.15 28.95 39.15 28.95 39.1 Q28.2 39.3 27.45 38.65 28.2 37.1 27.3 35.0 L27.8 35.25 28.2 35.95 Q27.75 37.45 28.45 38.5 29.55 38.7 30.05 37.75 M27.15 39.25 L27.15 39.3 26.0 40.05 25.35 40.2 25.15 40.2 24.85 40.25 24.65 40.25 23.9 40.15 23.05 39.6 Q22.3 38.3 22.2 36.45 L22.05 35.15 22.3 35.0 22.85 34.8 Q21.75 37.75 24.3 39.7 25.75 37.65 24.1 34.95 L24.9 35.35 Q25.6 37.2 25.35 38.55 L25.1 39.35 27.15 39.25 M28.65 18.0 L28.95 19.35 28.65 18.0 M29.05 17.95 Q29.35 18.75 29.15 19.5 29.7 19.15 29.7 18.55 L29.05 17.95 M20.2 21.6 L20.1 21.8 Q19.1 21.95 18.3 21.3 19.15 20.55 18.85 19.8 L19.15 19.85 Q18.85 21.95 20.2 21.6 M18.85 23.75 L18.75 23.95 Q17.55 24.3 16.85 23.95 17.6 22.8 17.25 21.95 L17.5 22.0 Q17.7 24.15 18.85 23.75 M18.0 26.35 L17.8 26.7 16.6 27.3 16.5 27.35 15.35 27.8 Q17.0 26.2 16.1 24.8 L16.4 24.75 Q16.6 26.75 18.0 26.35 M33.2 31.15 L33.85 30.95 Q33.35 31.7 33.45 32.6 L32.8 32.05 Q33.35 31.45 33.2 31.15 M29.1 34.0 L29.4 33.8 29.95 34.2 Q29.85 36.1 30.7 37.2 31.3 37.3 31.6 36.65 L31.35 37.3 31.1 37.55 Q30.3 37.7 29.65 36.85 30.3 35.65 29.1 34.0 M29.0 39.1 L28.95 39.1 29.0 39.1" fill="#977a0b" fill-rule="evenodd" stroke="none"/>
      <path d="M24.95 16.7 L25.6 16.65 25.95 16.7 26.35 17.15 Q26.55 18.0 25.85 18.4 25.75 17.55 24.95 16.7 M27.2 17.1 L27.7 17.15 28.05 17.3 28.1 17.35 28.4 17.8 Q28.35 18.7 27.65 18.85 27.7 18.05 27.2 17.1 M34.4 24.0 L34.3 24.6 34.15 25.0 33.95 25.2 33.65 25.6 Q33.95 26.7 33.4 28.0 L34.25 27.45 34.75 26.95 34.35 27.7 33.9 28.05 33.65 28.2 33.05 28.7 32.75 29.0 33.05 28.7 33.65 28.2 Q33.75 29.55 32.9 30.85 L34.1 30.65 35.0 30.05 34.6 30.6 34.2 30.9 33.85 30.95 33.2 31.15 32.6 31.25 Q32.3 31.35 32.05 31.55 32.3 31.35 32.6 31.25 L33.2 31.15 Q33.35 31.45 32.8 32.05 L32.45 31.85 32.05 31.55 Q31.85 30.9 32.05 30.3 L32.15 30.05 32.25 29.85 32.25 29.8 32.25 29.7 32.75 29.0 32.55 28.25 32.6 27.3 Q32.65 26.9 32.85 26.6 L32.4 25.65 32.4 25.5 32.3 25.0 Q32.2 24.7 32.25 24.4 32.25 24.1 32.4 23.85 L32.6 23.65 33.05 23.25 Q33.55 24.3 33.25 25.6 L33.95 24.85 34.4 24.0 M30.35 37.8 L30.1 37.75 30.05 37.75 29.3 37.25 28.2 35.95 27.8 35.25 Q27.95 34.8 28.35 34.45 L28.4 34.4 28.75 34.15 29.1 34.0 Q30.3 35.65 29.65 36.85 30.3 37.7 31.1 37.55 L30.35 37.8 M28.95 39.15 L28.9 39.15 27.15 39.25 Q26.15 38.4 25.6 36.7 L25.3 35.75 Q25.6 35.25 26.35 35.05 L27.3 35.0 Q28.2 37.1 27.45 38.65 28.2 39.3 28.95 39.1 L28.95 39.15 M19.9 39.3 L19.15 38.8 18.55 38.4 19.3 36.35 Q19.2 37.25 19.4 38.2 19.8 36.15 21.15 35.1 22.25 38.05 20.65 39.5 L19.9 39.3 19.4 38.2 19.9 39.3 M13.65 30.1 L13.65 29.9 13.9 29.25 13.9 29.15 13.55 27.4 13.55 26.6 Q13.7 26.05 14.15 25.65 L14.25 25.55 Q14.05 25.0 14.15 24.3 L14.15 24.1 14.4 23.4 14.6 22.95 Q15.0 22.35 15.7 22.1 15.65 21.45 15.95 20.85 L16.3 20.25 Q17.0 19.5 17.55 19.45 L17.75 19.5 Q17.9 18.85 18.4 18.4 L18.85 18.2 Q19.55 18.3 20.05 18.7 L19.8 19.25 Q20.4 20.25 21.2 20.45 21.2 20.65 20.65 20.65 L20.6 20.65 19.7 20.2 19.15 19.85 18.85 19.8 Q19.15 20.55 18.3 21.3 19.1 21.95 20.1 21.8 19.7 22.3 19.25 22.3 L19.15 22.35 18.15 22.15 17.5 22.0 17.25 21.95 Q17.6 22.8 16.85 23.95 17.55 24.3 18.75 23.95 L18.25 24.5 16.85 24.75 16.4 24.75 16.1 24.8 Q14.95 25.0 14.25 25.55 14.95 25.0 16.1 24.8 17.0 26.2 15.35 27.8 L16.5 27.35 16.6 27.3 17.8 26.7 17.95 27.0 Q17.5 27.45 16.75 27.75 L15.55 28.25 15.3 29.05 Q15.05 29.1 14.85 29.3 L13.7 30.8 13.65 30.1 M26.25 17.3 L26.2 17.05 Q26.15 16.9 25.95 16.85 L25.65 16.9 Q25.5 16.9 25.5 17.05 L25.55 17.3 25.8 17.45 26.15 17.45 26.25 17.3 M28.0 17.5 L27.8 17.5 27.65 17.65 27.7 17.8 27.9 17.95 28.15 18.0 28.25 17.85 28.2 17.65 28.0 17.5 M29.35 18.35 L29.25 18.4 29.25 18.6 29.4 18.7 29.5 18.75 29.65 18.7 29.65 18.55 29.5 18.4 29.35 18.35 M29.05 17.95 L29.7 18.55 Q29.7 19.15 29.15 19.5 29.35 18.75 29.05 17.95 M22.85 34.8 L23.35 34.85 23.75 34.85 24.1 34.95 Q25.75 37.65 24.3 39.7 21.75 37.75 22.85 34.8 M32.8 23.8 Q32.65 23.75 32.6 24.0 L32.5 24.35 32.55 24.75 32.8 24.95 33.05 24.8 33.15 24.35 33.1 24.05 32.8 23.8 M18.65 18.5 L18.35 18.8 18.35 19.2 18.6 19.35 19.05 19.3 19.35 18.95 19.35 18.65 19.1 18.4 18.65 18.5 M18.1 20.6 L18.2 20.05 Q18.05 19.85 17.75 19.8 L17.05 19.9 Q16.7 20.1 16.5 20.4 L16.5 21.0 16.95 21.3 17.6 21.15 18.1 20.6 M18.85 19.8 L17.75 19.5 18.85 19.8 M16.65 22.55 L16.2 22.25 15.5 22.45 15.0 22.95 Q14.9 23.25 14.95 23.55 15.15 23.8 15.45 23.8 L16.1 23.65 16.55 23.1 16.65 22.55 M15.7 22.1 L17.25 21.95 15.7 22.1 M15.8 25.65 L15.35 25.3 14.65 25.5 14.15 26.0 14.15 26.6 Q14.3 26.8 14.65 26.85 L15.3 26.7 15.8 26.2 15.8 25.65 M13.9 29.15 Q14.4 28.3 15.35 27.8 14.4 28.3 13.9 29.15 M32.9 26.7 L32.9 27.1 33.15 27.3 33.4 27.25 33.6 26.9 33.6 26.5 33.45 26.2 33.15 26.35 Q32.95 26.45 32.9 26.7 M32.85 26.6 L33.1 26.15 33.65 25.6 33.1 26.15 32.85 26.6 M33.25 29.0 L33.0 29.0 32.7 29.3 32.6 29.7 32.7 29.95 33.0 30.0 33.3 29.7 33.45 29.3 33.25 29.0 M23.35 35.3 L22.95 36.0 Q22.85 36.35 23.0 36.7 23.0 37.1 23.25 37.2 L23.8 37.0 24.2 36.35 24.2 35.65 23.8 35.2 23.35 35.3 M26.95 35.25 L26.4 35.45 Q26.15 35.65 26.05 36.1 L26.05 36.8 Q26.15 37.2 26.4 37.25 L26.9 37.15 27.25 36.55 27.3 36.5 27.25 35.7 26.95 35.25 M29.15 34.65 L28.75 34.55 28.5 34.85 28.5 35.45 28.75 35.95 29.1 36.1 29.4 35.75 29.45 35.15 29.15 34.65" fill="#f2cc37" fill-rule="evenodd" stroke="none"/>
      <path d="M22.2 15.65 L22.85 16.1 23.35 16.6 23.35 16.65 Q24.0 17.85 24.25 19.0 L24.3 19.5 24.25 19.8 22.75 20.05 22.2 20.4 21.85 20.65 21.5 20.95 21.2 20.45 21.5 20.95 21.4 21.05 21.2 21.1 Q20.8 21.2 20.55 20.9 L20.6 20.65 20.65 20.65 Q21.2 20.65 21.2 20.45 L21.1 20.1 Q21.7 20.3 22.2 19.15 L22.65 19.0 22.2 19.75 Q23.3 19.75 24.05 19.25 23.8 17.6 23.0 16.7 L22.8 17.45 22.7 17.4 22.25 17.05 22.2 16.25 22.15 15.75 22.2 15.65 M31.1 18.3 L31.65 18.4 32.15 19.7 Q32.9 21.15 34.15 21.9 L34.25 21.95 Q34.7 22.8 34.2 23.4 L33.95 22.9 33.2 23.15 33.05 23.25 32.6 23.65 32.4 23.85 Q32.25 24.1 32.25 24.4 L32.05 24.35 31.75 23.55 32.0 22.0 32.05 22.05 32.15 22.05 32.3 22.0 32.5 23.15 Q32.95 22.3 33.75 22.05 L32.75 21.3 32.75 21.2 32.45 20.4 32.2 20.2 32.15 20.15 31.85 20.0 31.85 19.95 31.7 19.9 31.1 18.3 M34.4 33.85 L34.4 33.9 34.45 33.95 34.7 34.5 Q34.85 35.1 34.35 35.55 33.3 36.1 32.65 37.65 L32.3 38.1 31.95 38.25 31.1 37.65 31.35 37.3 31.6 36.65 31.75 37.05 Q32.15 36.05 31.85 35.25 L32.15 35.3 32.65 35.2 Q32.25 36.05 32.25 37.05 33.7 36.0 34.3 34.35 33.55 32.75 32.4 32.35 32.4 32.75 32.65 33.15 L32.15 32.95 31.95 32.9 Q32.3 32.15 32.05 31.55 L32.45 31.85 32.8 32.05 33.45 32.6 34.15 33.5 34.4 33.85 M19.15 38.8 L18.2 39.1 Q17.45 39.05 17.05 38.5 L16.9 38.2 16.7 37.4 16.6 36.8 17.45 33.8 17.8 33.65 Q17.25 36.1 17.65 38.5 L18.0 36.65 19.6 34.5 Q19.95 31.85 18.2 30.05 17.9 30.4 18.0 31.2 L17.5 30.8 17.15 28.95 18.5 29.5 19.0 29.8 Q19.6 32.5 21.85 33.7 L21.75 34.35 21.45 33.85 20.75 34.3 Q19.8 35.1 19.3 36.35 L18.55 38.4 19.15 38.8 M20.65 14.25 L20.75 14.4 Q20.6 15.15 20.8 16.7 L20.55 16.75 Q20.4 16.85 20.3 16.9 L19.85 16.65 20.4 16.7 20.25 16.4 Q20.85 15.4 20.1 14.15 L20.1 14.1 20.15 14.05 20.6 14.1 20.65 14.25 M20.55 16.75 L20.4 16.7 20.55 16.75 M27.1 28.4 L27.15 28.25 Q27.5 27.95 27.25 27.45 L27.95 27.8 28.05 27.85 28.2 27.9 Q27.95 28.4 28.55 28.95 L27.85 28.8 27.75 28.75 Q27.45 28.65 27.1 28.4 M26.2 21.9 L26.05 21.75 26.05 21.7 25.85 21.3 26.35 21.25 26.7 21.25 27.05 21.25 Q26.95 21.45 27.2 21.65 L26.05 21.7 27.2 21.65 Q27.8 21.95 27.8 22.35 L26.35 22.45 26.2 21.9 M31.9 37.5 L31.75 37.05 31.9 37.5" fill="#765301" fill-rule="evenodd" stroke="none"/>
      <path d="M21.1 14.95 L21.6 16.25 20.8 16.7 Q20.6 15.15 20.75 14.4 L20.9 14.6 21.1 14.95 M25.85 19.15 L26.15 19.35 26.4 19.5 27.6 19.45 27.8 19.85 27.95 19.9 28.95 20.0 29.05 20.3 29.25 20.4 29.45 20.5 29.4 20.75 29.6 20.9 29.7 21.0 30.7 22.0 31.45 23.05 31.75 23.55 32.05 24.35 32.25 24.4 Q32.2 24.7 32.3 25.0 L32.4 25.5 32.4 25.65 32.85 26.6 Q32.65 26.9 32.6 27.3 L32.55 28.25 32.75 29.0 32.25 29.7 32.25 29.8 32.25 29.85 32.15 30.0 32.15 30.05 32.05 30.3 Q31.85 30.9 32.05 31.55 L31.75 31.4 31.55 31.3 31.05 31.05 30.7 31.55 30.75 32.2 29.85 32.95 29.4 33.0 29.0 33.35 Q28.75 33.55 28.75 34.15 L28.4 34.4 28.35 34.45 Q27.95 34.8 27.8 35.25 L27.3 35.0 26.35 35.05 Q25.6 35.25 25.3 35.75 L24.9 35.35 24.1 34.95 23.75 34.85 23.35 34.85 22.85 34.8 22.3 35.0 22.05 35.15 21.75 34.35 21.85 33.7 Q19.6 32.5 19.0 29.8 L18.5 29.5 18.35 29.0 18.2 27.8 17.95 27.0 17.8 26.7 18.0 26.35 Q18.5 25.6 18.25 24.5 L18.75 23.95 18.85 23.75 19.15 22.9 19.15 22.35 19.25 22.3 Q19.7 22.3 20.1 21.8 L20.2 21.6 20.4 21.3 20.55 20.9 Q20.8 21.2 21.2 21.1 L21.4 21.05 21.5 20.95 21.85 20.65 22.2 20.4 22.75 20.05 24.25 19.8 24.3 19.5 24.75 19.5 24.95 19.5 Q25.6 19.45 25.85 19.15 M22.8 17.45 L23.0 16.7 Q23.8 17.6 24.05 19.25 23.3 19.75 22.2 19.75 L22.65 19.0 22.75 18.9 23.0 18.2 22.8 17.45 M21.65 21.4 L20.9 21.3 20.2 22.15 Q19.25 23.55 18.8 25.05 18.3 26.9 18.85 29.05 L19.1 29.3 Q19.75 31.55 21.3 33.2 L22.2 33.65 22.3 34.6 23.9 34.7 24.0 34.05 26.2 34.55 27.35 34.05 27.7 33.5 Q28.2 32.35 28.75 31.75 30.05 30.2 29.95 28.55 30.85 27.9 30.85 26.45 30.85 25.0 29.95 23.65 L29.75 23.35 29.5 23.0 29.0 22.55 28.2 22.0 27.75 21.8 27.2 21.65 27.75 21.8 28.2 22.0 29.0 22.55 29.5 23.0 29.75 23.35 29.95 23.65 Q30.85 25.0 30.85 26.45 30.85 27.9 29.95 28.55 29.35 29.0 28.55 28.95 27.95 28.4 28.2 27.9 L28.5 28.0 Q29.1 28.05 29.55 27.7 L29.9 27.4 29.9 27.35 Q30.25 26.85 30.25 26.05 30.25 24.95 29.55 23.85 L29.5 23.75 Q28.85 22.8 27.9 22.4 L27.85 22.4 27.8 22.35 Q27.8 21.95 27.2 21.65 26.95 21.45 27.05 21.25 L28.25 21.55 29.65 22.65 29.9 23.05 30.65 24.3 Q31.35 26.15 31.2 27.45 31.15 28.7 30.2 30.35 L30.0 30.8 Q30.35 31.55 31.3 30.55 31.95 29.65 32.25 27.8 32.3 24.95 30.45 22.3 L30.35 22.2 Q29.35 20.9 26.65 20.0 L25.2 19.9 22.9 20.5 21.65 21.4 M22.7 33.45 Q23.5 31.5 23.5 29.85 23.4 28.25 22.6 26.45 L22.8 26.55 23.35 27.8 23.75 29.3 Q23.85 31.3 23.25 32.6 L22.7 33.45 M21.7 31.05 Q22.5 30.35 22.55 28.8 22.9 30.3 22.2 30.9 L21.7 31.05 M24.7 24.2 L24.8 25.05 24.85 25.35 24.85 25.6 Q24.9 26.7 25.5 27.95 L24.9 27.2 Q24.5 26.05 24.6 24.95 L24.7 24.2 M25.85 31.7 L25.75 31.65 25.8 31.35 Q26.7 31.05 26.6 29.25 L26.65 29.3 26.75 29.65 26.95 30.5 Q26.7 31.75 25.85 31.7 M32.3 22.0 L32.4 22.0 32.6 21.9 32.65 21.9 32.75 21.3 33.75 22.05 Q32.95 22.3 32.5 23.15 L32.3 22.0 M18.35 32.9 L18.35 32.75 Q18.5 32.15 18.25 31.55 L18.0 31.2 Q17.9 30.4 18.2 30.05 19.95 31.85 19.6 34.5 L18.0 36.65 17.65 38.5 Q17.25 36.1 17.8 33.65 L17.8 33.55 18.35 32.9 M32.65 33.15 Q32.4 32.75 32.4 32.35 33.55 32.75 34.3 34.35 33.7 36.0 32.25 37.05 32.25 36.05 32.65 35.2 L32.95 35.1 Q33.3 34.75 33.2 34.2 33.25 33.75 32.9 33.35 L32.65 33.15 M29.45 31.65 Q28.7 32.35 28.65 33.25 29.9 32.6 30.3 31.7 L29.45 31.65" fill="#b17c01" fill-rule="evenodd" stroke="none"/>
      <path d="M21.6 16.25 L21.75 16.2 22.15 15.75 22.2 16.25 21.7 16.5 Q21.1 16.7 20.7 17.05 L19.95 17.8 Q21.2 19.0 21.1 20.1 20.8 19.25 20.05 18.7 19.55 18.3 18.85 18.2 L18.4 18.4 18.75 17.3 19.9 17.05 20.3 16.9 Q20.4 16.85 20.55 16.75 L20.8 16.7 21.6 16.25 M30.5 18.7 Q30.8 18.4 31.1 18.3 30.15 19.35 30.05 20.4 31.6 21.95 31.45 23.05 L30.7 22.0 29.7 21.0 29.6 20.9 29.4 20.75 29.45 20.5 Q29.6 19.75 30.05 19.15 L30.5 18.7 M14.9 34.15 L14.1 33.5 12.85 32.4 13.1 31.55 13.65 30.8 13.7 30.8 14.85 29.3 Q15.05 29.1 15.3 29.05 15.95 28.65 16.8 28.8 L17.15 28.95 Q13.95 30.3 14.15 32.65 14.75 33.35 14.9 34.15 M20.1 14.1 L20.1 14.15 Q18.9 14.7 19.35 15.65 L19.2 15.65 18.9 15.7 18.55 15.95 Q18.5 15.5 18.85 15.05 19.2 14.5 19.7 14.2 L20.1 14.1 M23.15 22.25 L23.2 21.95 23.35 21.45 Q23.6 20.95 24.05 21.1 23.25 21.9 23.25 23.2 L23.15 22.25 M20.85 27.1 Q21.35 25.75 22.3 26.15 L22.45 26.2 22.6 26.35 22.8 26.55 22.6 26.45 Q22.15 26.25 21.8 26.45 21.35 26.7 21.05 27.55 20.55 28.8 20.85 30.15 20.4 28.8 20.75 27.25 L20.85 27.1 M28.75 34.15 Q28.75 33.55 29.0 33.35 L29.4 33.0 29.85 32.95 30.75 32.2 30.7 31.55 31.05 31.05 31.55 31.3 31.75 31.4 Q30.55 32.55 30.35 33.85 31.15 34.95 31.35 36.1 L30.3 34.6 29.95 34.2 29.4 33.8 29.1 34.0 28.75 34.15 M22.55 28.8 Q22.2 28.55 22.2 29.3 21.9 30.2 21.6 29.85 21.4 29.55 21.35 29.1 L21.6 28.65 Q22.1 27.95 22.55 28.8 M24.7 24.2 L24.7 24.05 24.75 23.35 24.75 23.25 24.8 23.2 24.8 23.1 24.85 23.0 Q25.05 22.4 25.6 21.95 L25.65 21.95 25.7 21.95 Q25.9 21.8 26.05 21.75 L26.2 21.9 25.95 22.05 Q25.45 22.45 25.25 23.1 25.1 23.55 25.1 24.15 L25.15 25.1 25.25 25.45 25.3 25.55 25.95 26.95 26.1 27.2 27.15 28.25 27.1 28.4 25.75 27.1 25.6 26.9 24.9 25.45 24.85 25.35 24.8 25.05 24.7 24.2" fill="#fecb56" fill-rule="evenodd" stroke="none"/>
      <path d="M16.6 36.8 L16.0 35.65 14.9 34.15 Q14.75 33.35 14.15 32.65 13.95 30.3 17.15 28.95 L17.5 30.8 17.4 30.75 16.4 30.85 Q15.95 31.1 15.8 31.7 15.7 32.3 15.95 32.85 L16.8 33.65 17.0 33.75 17.45 33.8 16.6 36.8 M19.9 17.05 L19.1 16.55 19.4 16.35 19.85 16.65 20.3 16.9 19.9 17.05 M20.1 14.15 Q20.85 15.4 20.25 16.4 L19.85 16.05 19.65 15.75 19.35 15.65 Q18.9 14.7 20.1 14.15 M21.95 17.0 Q21.6 16.95 21.3 17.25 21.0 17.55 21.0 17.95 L21.35 18.75 21.95 19.15 22.05 19.15 22.2 19.15 Q21.7 20.3 21.1 20.1 21.2 19.0 19.95 17.8 L20.7 17.05 Q21.1 16.7 21.7 16.5 L22.2 16.25 22.25 17.05 21.95 17.0 M24.4 26.7 Q24.0 25.2 24.3 23.3 L23.65 23.7 Q23.3 23.7 23.25 23.2 23.25 21.9 24.05 21.1 24.4 21.4 24.2 21.95 L23.8 22.5 Q23.55 23.4 24.5 22.35 24.95 21.55 25.85 21.3 L26.05 21.7 25.7 21.95 26.05 21.7 26.05 21.75 Q25.9 21.8 25.7 21.95 L25.65 21.95 25.6 21.95 Q25.05 22.4 24.85 23.0 L24.8 23.1 24.8 23.2 24.75 23.25 24.75 23.35 24.7 24.05 24.7 24.2 24.6 24.95 Q24.5 26.05 24.9 27.2 L25.5 27.95 26.6 29.25 Q26.7 31.05 25.8 31.35 26.3 29.2 25.1 28.15 25.35 28.9 25.1 29.6 24.9 30.05 24.55 29.8 24.85 28.45 24.5 27.15 L24.4 26.7 M31.75 31.4 L32.05 31.55 Q32.3 32.15 31.95 32.9 L31.8 32.95 Q31.55 33.0 31.35 33.15 31.05 33.55 31.05 34.0 L31.4 34.9 31.65 35.1 31.85 35.25 Q32.15 36.05 31.75 37.05 L31.6 36.65 31.35 36.1 Q31.15 34.95 30.35 33.85 30.55 32.55 31.75 31.4 M31.75 23.55 L31.45 23.05 Q31.6 21.95 30.05 20.4 30.15 19.35 31.1 18.3 L31.7 19.9 31.25 20.1 Q31.1 20.35 31.1 20.8 L31.4 21.6 32.0 22.0 31.75 23.55 M21.65 21.4 L21.5 21.5 Q20.55 22.45 20.05 23.75 18.75 26.6 19.7 29.65 20.6 32.05 21.75 32.2 22.85 32.25 23.1 30.5 L22.75 28.05 22.4 27.1 22.2 27.0 Q21.75 26.65 21.45 27.75 L21.25 28.25 21.35 29.1 Q21.4 29.55 21.6 29.85 21.9 30.2 22.2 29.3 22.2 28.55 22.55 28.8 22.5 30.35 21.7 31.05 21.2 31.05 20.9 30.3 L20.85 30.15 Q20.55 28.8 21.05 27.55 21.35 26.7 21.8 26.45 22.15 26.25 22.6 26.45 23.4 28.25 23.5 29.85 23.5 31.5 22.7 33.45 L22.85 33.55 24.0 34.05 23.9 34.7 22.3 34.6 22.2 33.65 21.3 33.2 Q19.75 31.55 19.1 29.3 L18.85 29.05 Q18.3 26.9 18.8 25.05 19.25 23.55 20.2 22.15 L20.9 21.3 21.65 21.4 M27.15 28.25 L26.1 27.2 25.95 26.95 25.3 25.55 25.25 25.45 25.15 25.1 25.1 24.15 Q25.1 23.55 25.25 23.1 25.45 22.45 25.95 22.05 L26.2 21.9 26.35 22.45 26.2 22.5 Q25.55 23.0 25.55 24.15 25.6 25.25 26.3 26.35 L27.15 27.35 27.25 27.45 Q27.5 27.95 27.15 28.25" fill="#fdb40b" fill-rule="evenodd" stroke="none"/>
      <path d="M20.25 16.4 L20.4 16.7 19.85 16.65 19.4 16.35 19.5 16.3 Q19.7 16.2 19.85 16.05 L20.25 16.4" fill="#221700" fill-rule="evenodd" stroke="none"/>
      <path d="M26.25 17.3 L26.15 17.45 25.8 17.45 25.55 17.3 25.5 17.05 Q25.5 16.9 25.65 16.9 L25.95 16.85 Q26.15 16.9 26.2 17.05 L26.25 17.3 M28.0 17.5 L28.2 17.65 28.25 17.85 28.15 18.0 27.9 17.95 27.7 17.8 27.65 17.65 27.8 17.5 28.0 17.5 M29.35 18.35 L29.5 18.4 29.65 18.55 29.65 18.7 29.5 18.75 29.4 18.7 29.25 18.6 29.25 18.4 29.35 18.35 M32.8 23.8 L33.1 24.05 33.15 24.35 33.05 24.8 32.8 24.95 32.55 24.75 32.5 24.35 32.6 24.0 Q32.65 23.75 32.8 23.8 M18.65 18.5 L19.1 18.4 19.35 18.65 19.35 18.95 19.05 19.3 18.6 19.35 18.35 19.2 18.35 18.8 18.65 18.5 M18.1 20.6 L17.6 21.15 16.95 21.3 16.5 21.0 16.5 20.4 Q16.7 20.1 17.05 19.9 L17.75 19.8 Q18.05 19.85 18.2 20.05 L18.1 20.6 M16.65 22.55 L16.55 23.1 16.1 23.65 15.45 23.8 Q15.15 23.8 14.95 23.55 14.9 23.25 15.0 22.95 L15.5 22.45 16.2 22.25 16.65 22.55 M15.8 25.65 L15.8 26.2 15.3 26.7 14.65 26.85 Q14.3 26.8 14.15 26.6 L14.15 26.0 14.65 25.5 15.35 25.3 15.8 25.65 M32.9 26.7 Q32.95 26.45 33.15 26.35 L33.45 26.2 33.6 26.5 33.6 26.9 33.4 27.25 33.15 27.3 32.9 27.1 32.9 26.7 M33.25 29.0 L33.45 29.3 33.3 29.7 33.0 30.0 32.7 29.95 32.6 29.7 32.7 29.3 33.0 29.0 33.25 29.0 M23.35 35.3 L23.8 35.2 24.2 35.65 24.2 36.35 23.8 37.0 23.25 37.2 Q23.0 37.1 23.0 36.7 22.85 36.35 22.95 36.0 L23.35 35.3 M26.95 35.25 L27.25 35.7 27.3 36.5 27.25 36.55 26.9 37.15 26.4 37.25 Q26.15 37.2 26.05 36.8 L26.05 36.1 Q26.15 35.65 26.4 35.45 L26.95 35.25 M29.15 34.65 L29.45 35.15 29.4 35.75 29.1 36.1 28.75 35.95 28.5 35.45 28.5 34.85 28.75 34.55 29.15 34.65" fill="#f8e28f" fill-rule="evenodd" stroke="none"/>
      <path d="M10.5 8.55 L10.25 8.35 10.3 8.2 10.5 7.05 10.5 6.45 10.5 6.25 10.25 5.55 11.0 6.5 Q11.8 6.5 11.8 6.0 L12.1 6.5 12.1 6.55 12.15 6.7 12.15 6.85 12.15 7.5 12.0 7.9 11.65 8.35 Q12.15 7.45 11.8 6.65 L11.65 6.7 Q10.65 7.25 10.5 8.55 M6.1 9.95 L5.95 10.0 Q6.9 8.5 6.05 7.55 L5.25 8.2 5.1 7.95 Q5.9 7.65 5.75 6.8 L5.95 6.95 6.05 7.0 6.4 7.35 6.65 7.85 6.7 8.05 6.7 8.2 6.7 8.8 6.5 9.45 6.3 9.7 6.25 9.85 6.1 9.95 M4.75 10.0 L4.5 9.85 Q4.2 9.35 4.75 8.7 L5.0 8.6 Q4.6 9.25 4.75 10.0" fill="#795128" fill-rule="evenodd" stroke="none"/>
      <path d="M3.75 8.85 L3.7 8.8 Q3.6 8.05 3.95 7.35 4.25 6.7 4.95 6.6 L5.25 6.5 5.35 6.55 5.65 6.55 6.25 6.75 6.3 6.85 6.7 7.2 6.9 7.75 6.95 7.95 7.0 8.1 7.05 8.6 6.8 9.3 6.65 9.5 6.5 9.65 6.25 9.85 6.1 9.95 6.25 9.85 6.3 9.7 6.5 9.45 6.7 8.8 6.7 8.2 6.7 8.05 6.65 7.85 6.4 7.35 6.05 7.0 5.95 6.95 5.75 6.8 Q5.9 7.65 5.1 7.95 4.4 8.35 3.75 8.85 M10.25 5.55 L10.45 5.45 10.6 5.4 Q11.2 5.2 11.75 5.6 12.25 5.9 12.4 6.45 L12.45 6.65 12.45 6.7 12.4 7.3 12.2 7.8 12.0 8.2 11.9 8.25 11.85 8.3 11.55 8.45 11.45 8.5 11.6 8.4 11.65 8.35 12.0 7.9 12.15 7.5 12.15 6.85 12.15 6.7 12.1 6.55 12.1 6.5 11.8 6.0 Q11.8 6.5 11.0 6.5 L10.25 5.55 M4.5 9.85 L3.95 9.35 4.75 8.7 Q4.2 9.35 4.5 9.85 M11.55 5.65 L11.5 5.6 11.4 5.55 11.35 5.55 11.3 5.5 11.2 5.5 10.8 5.6 10.7 5.8 10.8 6.05 11.15 6.2 11.55 6.1 11.65 5.85 11.55 5.65 M4.75 6.8 L4.6 6.9 4.3 7.25 Q4.15 7.45 4.25 7.6 4.3 7.75 4.55 7.75 L4.95 7.65 5.3 7.3 5.35 6.95 5.1 6.75 5.0 6.75 4.9 6.75 4.75 6.8" fill="#cc9966" fill-rule="evenodd" stroke="none"/>
      <path d="M6.3 6.85 Q8.9 6.45 8.85 4.55 L9.8 5.65 10.05 6.4 10.1 6.6 10.1 7.15 Q10.15 7.85 9.8 8.45 L9.7 8.7 9.55 8.9 9.1 9.4 8.15 9.95 Q9.45 9.3 9.8 7.85 10.0 6.35 9.3 5.9 8.15 6.1 7.0 8.1 L6.95 7.95 6.9 7.75 6.7 7.2 6.3 6.85" fill="#35160f" fill-rule="evenodd" stroke="none"/>
      <path d="M11.55 5.65 L11.65 5.85 11.55 6.1 11.15 6.2 10.8 6.05 10.7 5.8 10.8 5.6 11.2 5.5 11.3 5.5 11.1 5.6 11.0 5.7 11.1 5.85 11.3 5.9 11.55 5.85 11.55 5.7 11.55 5.65 M4.75 6.8 L4.6 7.0 4.6 7.2 4.75 7.3 5.0 7.25 5.2 7.05 5.2 6.85 5.1 6.75 5.35 6.95 5.3 7.3 4.95 7.65 4.55 7.75 Q4.3 7.75 4.25 7.6 4.15 7.45 4.3 7.25 L4.6 6.9 4.75 6.8" fill="#dfb497" fill-rule="evenodd" stroke="none"/>
      <path d="M11.55 8.45 L11.45 8.55 11.35 8.55 11.3 8.6 10.6 8.6 10.55 8.6 10.5 8.55 Q10.65 7.25 11.65 6.7 L11.8 6.65 Q12.15 7.45 11.65 8.35 L11.6 8.4 11.45 8.5 11.55 8.45 M5.95 10.0 L5.7 10.1 4.75 10.0 Q4.6 9.25 5.0 8.6 L5.3 8.4 5.25 8.2 6.05 7.55 Q6.9 8.5 5.95 10.0 M11.25 8.1 L11.0 8.1 10.75 8.1 10.65 8.3 10.75 8.35 11.0 8.45 11.2 8.4 11.25 8.4 11.6 8.1 11.3 8.25 11.25 8.1 M10.6 8.6 L11.45 8.5 10.6 8.6 M5.55 9.9 L5.65 9.9 6.15 9.5 5.8 9.7 5.65 9.5 5.35 9.45 5.0 9.5 4.85 9.7 5.0 9.85 5.3 10.0 5.55 9.9" fill="#a66f37" fill-rule="evenodd" stroke="none"/>
      <path d="M11.25 8.1 L11.3 8.25 11.6 8.1 11.25 8.4 11.2 8.4 11.0 8.45 10.75 8.35 10.65 8.3 10.75 8.1 11.0 8.1 11.25 8.1 M5.55 9.9 L5.3 10.0 5.0 9.85 4.85 9.7 5.0 9.5 5.35 9.45 5.65 9.5 5.8 9.7 6.15 9.5 5.65 9.9 5.55 9.9" fill="#a6a6a6" fill-rule="evenodd" stroke="none"/>
      <path d="M8.15 9.95 Q7.25 10.15 6.5 9.65 L6.65 9.5 6.8 9.3 8.5 9.35 Q8.95 9.2 9.2 8.55 L8.65 9.1 Q8.05 9.4 7.6 8.95 7.6 8.35 7.0 8.1 8.15 6.1 9.3 5.9 10.0 6.35 9.8 7.85 9.45 9.3 8.15 9.95" fill="#5e261a" fill-rule="evenodd" stroke="none"/>
      <path d="M36.05 7.0 L36.35 6.7 36.65 6.65 36.9 6.7 36.85 7.0 36.6 7.25 36.3 7.3 36.05 7.25 36.05 7.0 M11.3 5.5 L11.35 5.55 11.4 5.55 11.5 5.6 11.55 5.65 11.55 5.7 11.55 5.85 11.3 5.9 11.1 5.85 11.0 5.7 11.1 5.6 11.3 5.5 M7.2 4.1 L7.35 4.05 7.45 4.1 7.55 4.1 7.85 4.25 7.75 4.6 7.45 4.8 7.05 4.8 6.85 4.65 6.9 4.35 7.2 4.1 M5.1 6.75 L5.2 6.85 5.2 7.05 5.0 7.25 4.75 7.3 4.6 7.2 4.6 7.0 4.75 6.8 4.9 6.75 5.0 6.75 5.1 6.75 M5.5 14.45 L5.6 14.45 5.7 14.45 5.75 14.4 5.8 14.45 5.85 14.45 6.05 14.6 6.0 14.95 5.7 15.15 5.3 15.2 5.05 15.0 5.15 14.7 Q5.25 14.55 5.45 14.5 L5.5 14.45" fill="#ffffff" fill-rule="evenodd" stroke="none"/>
      <path d="M5.45 14.45 L5.5 14.45 5.45 14.5 5.45 14.45" fill="#33c4c2" fill-rule="evenodd" stroke="none"/>
      <path d="M23.35 21.45 L23.2 21.95 23.15 22.25 Q22.85 21.95 22.5 21.9 22.0 21.85 21.65 22.45 21.25 22.95 21.2 23.7 21.2 24.55 21.55 25.1 21.9 25.65 22.4 25.7 22.9 25.7 23.25 25.1 L23.6 23.85 23.65 23.7 24.3 23.3 Q24.0 25.2 24.4 26.7 L23.85 27.45 23.6 27.65 23.25 26.95 22.8 26.55 22.6 26.35 22.45 26.2 22.3 26.15 Q21.35 25.75 20.85 27.1 L20.65 26.75 Q20.2 25.65 20.45 24.25 20.65 22.85 21.5 22.0 22.35 21.2 23.25 21.4 L23.35 21.45 M22.2 27.0 L22.4 27.1 22.75 28.05 22.1 28.1 21.7 27.95 Q21.75 27.2 22.2 27.0 M7.55 4.1 L7.6 4.1 8.05 4.3 8.15 4.4 7.95 4.95 7.3 5.5 6.5 5.65 Q6.1 5.65 6.05 5.35 L6.0 5.25 5.8 5.5 Q5.5 5.95 5.35 6.55 L5.25 6.5 5.65 5.35 Q6.0 4.75 6.45 4.45 L6.8 4.2 7.2 4.1 6.9 4.35 6.85 4.65 7.05 4.8 7.45 4.8 7.75 4.6 7.85 4.25 7.55 4.1 M5.85 14.45 L6.3 14.65 6.3 14.7 Q6.45 15.0 6.2 15.3 L5.55 15.85 4.75 16.0 4.25 15.7 4.25 15.65 4.05 15.85 Q3.7 16.3 3.6 16.85 L3.45 16.9 Q3.55 16.25 3.9 15.65 L4.7 14.8 Q4.85 14.65 5.05 14.6 L5.45 14.45 5.45 14.5 Q5.25 14.55 5.15 14.7 L5.05 15.0 5.3 15.2 5.7 15.15 6.0 14.95 6.05 14.6 5.85 14.45" fill="#f4027b" fill-rule="evenodd" stroke="none"/>
      <path d="M23.65 23.7 L23.6 23.85 23.25 25.1 Q22.9 25.7 22.4 25.7 21.9 25.65 21.55 25.1 21.2 24.55 21.2 23.7 21.25 22.95 21.65 22.45 22.0 21.85 22.5 21.9 22.85 21.95 23.15 22.25 L23.25 23.2 Q23.3 23.7 23.65 23.7" fill="#fe45a2" fill-rule="evenodd" stroke="none"/>
      <path d="M7.0 8.1 Q7.6 8.35 7.6 8.95 8.05 9.4 8.65 9.1 L9.2 8.55 Q8.95 9.2 8.5 9.35 L6.8 9.3 7.05 8.6 7.0 8.1 M8.65 18.05 L8.85 17.15 9.15 18.15 8.65 18.05 M8.45 18.85 L9.2 18.95 8.6 20.3 Q8.0 20.95 6.95 21.2 6.2 21.3 6.2 20.55 6.4 19.8 7.1 19.7 8.15 19.45 8.45 18.85" fill="#666666" fill-rule="evenodd" stroke="none"/>
      <path d="M5.95 21.55 L4.75 21.15 4.65 21.05 4.3 20.8 Q3.95 20.05 3.95 19.35 4.1 18.3 5.15 17.7 L5.4 17.55 Q6.85 16.6 6.8 14.95 L6.65 14.5 Q7.45 14.55 8.2 15.05 9.45 15.85 9.8 17.4 L9.9 18.2 9.55 18.2 Q9.4 16.8 8.2 15.65 7.45 15.85 6.35 17.05 L5.55 18.3 Q5.05 19.7 5.95 21.55 M22.8 26.55 L23.25 26.95 23.6 27.65 23.8 28.2 24.25 30.0 23.8 32.5 22.85 33.55 22.7 33.45 23.25 32.6 Q23.85 31.3 23.75 29.3 L23.35 27.8 22.8 26.55 M21.35 29.1 L21.25 28.25 21.45 27.75 Q21.75 26.65 22.2 27.0 21.75 27.2 21.7 27.95 L21.6 28.65 21.35 29.1 M24.5 22.35 Q23.55 23.4 23.8 22.5 L24.2 21.95 24.5 22.35 M25.85 21.3 L25.2 19.9 26.65 20.0 Q26.55 20.65 27.05 21.25 L26.7 21.25 26.35 21.25 25.85 21.3 M24.85 25.35 L24.9 25.45 25.6 26.9 25.75 27.1 26.6 29.25 25.5 27.95 Q24.9 26.7 24.85 25.6 L24.85 25.35 M27.35 34.05 L26.2 34.55 24.0 34.05 25.85 31.7 Q26.7 31.75 26.95 30.5 L26.75 29.65 27.1 28.4 Q27.45 28.65 27.75 28.75 L27.85 28.8 Q27.45 31.1 27.35 34.05" fill="#4b0126" fill-rule="evenodd" stroke="none"/>
      <path d="M9.95 19.05 L9.55 19.8 Q8.9 20.9 7.85 21.4 9.2 20.4 9.45 19.0 L9.95 19.05" fill="#0d2f2f" fill-rule="evenodd" stroke="none"/>
      <path d="M28.6 27.6 L28.25 27.5 28.15 27.45 27.5 27.05 27.4 27.0 Q28.65 24.4 26.35 22.45 L27.8 22.35 27.85 22.4 27.9 22.4 Q27.4 22.55 28.1 24.2 28.5 25.1 28.55 26.1 L28.6 27.6" fill="#da0370" fill-rule="evenodd" stroke="none"/>
      <path d="M26.2 22.5 L26.35 22.45 Q28.65 24.4 27.4 27.0 L26.6 26.05 Q25.9 24.95 25.85 23.8 25.85 23.0 26.2 22.5" fill="#fc4b9b" fill-rule="evenodd" stroke="none"/>
      <path d="M29.85 27.35 L28.85 27.65 28.6 27.6 28.55 26.1 Q28.5 25.1 28.1 24.2 27.4 22.55 27.9 22.4 28.85 22.8 29.5 23.75 L29.55 23.85 Q30.25 24.95 30.25 26.05 30.25 26.85 29.9 27.35 L29.85 27.35 M28.85 27.25 L29.75 27.1 30.05 26.05 Q29.9 24.65 29.25 23.95 29.6 25.75 28.85 27.25" fill="#fb1e8c" fill-rule="evenodd" stroke="none"/>
      <path d="M27.25 27.45 L27.15 27.35 26.3 26.35 Q25.6 25.25 25.55 24.15 25.55 23.0 26.2 22.5 25.85 23.0 25.85 23.8 25.9 24.95 26.6 26.05 L27.4 27.0 27.5 27.05 28.15 27.45 28.25 27.5 28.6 27.6 28.85 27.65 29.85 27.35 29.9 27.4 29.55 27.7 Q29.1 28.05 28.5 28.0 L28.2 27.9 28.05 27.85 27.95 27.8 27.25 27.45" fill="#fd93c8" fill-rule="evenodd" stroke="none"/>
      <path d="M29.9 27.4 L29.85 27.35 29.9 27.35 29.9 27.4" fill="#2eafae" fill-rule="evenodd" stroke="none"/>
      <path d="M28.85 27.25 Q29.6 25.75 29.25 23.95 29.9 24.65 30.05 26.05 L29.75 27.1 28.85 27.25" fill="#fa77b3" fill-rule="evenodd" stroke="none"/>
      <path d="M35.45 7.65 L35.5 7.65 35.55 7.65 M38.4 10.35 L38.4 10.7 M39.45 9.75 L38.85 9.9 M38.4 10.0 L38.4 10.35 M41.4 7.85 Q41.85 7.85 42.05 8.6 M36.4 7.85 L36.45 7.85 36.65 7.9 36.7 7.9 36.9 7.95 Q37.2 8.6 36.55 8.7 L36.3 8.7 35.75 8.55 35.6 8.5 35.55 8.45 M36.4 7.85 L35.55 7.65 M37.65 10.15 L37.7 9.6 38.0 9.35 38.1 9.3 38.2 9.15 38.35 8.95 38.35 8.9 M35.55 8.5 L35.55 8.45 M20.65 14.25 L20.75 14.4 20.9 14.6 21.1 14.95 M37.65 10.45 L37.65 10.15 M38.9 8.65 L38.65 8.25 38.55 8.05 38.45 8.75 38.35 8.9 M38.55 8.05 L38.55 7.9 M39.1 10.5 L39.75 10.35 M37.65 10.45 L37.65 10.85 M24.9 10.5 L25.7 10.0 M26.1 10.7 L27.05 10.05 M27.35 18.15 L27.0 17.45 26.75 17.15 M24.55 16.9 Q25.2 17.5 25.35 18.25 L25.55 18.6 25.85 19.15 26.15 19.35 26.4 19.5 27.6 19.45 27.8 19.85 M27.35 18.15 L27.4 18.5 27.45 18.85 27.6 19.45 M28.95 19.35 L28.65 18.0 28.65 17.95 M20.25 16.4 L20.4 16.7 20.55 16.75 20.8 16.7 21.6 16.25 M18.55 15.95 L18.9 15.7 19.2 15.65 19.35 15.65 M19.65 15.75 L19.85 16.05 20.25 16.4 M21.95 19.15 L21.35 18.75 21.0 17.95 Q21.0 17.55 21.3 17.25 21.6 16.95 21.95 17.0 L22.25 17.05 22.7 17.4 22.8 17.45 23.0 18.2 22.75 18.9 22.65 19.0 22.2 19.15 22.05 19.15 21.95 19.15 M20.3 16.9 Q20.4 16.85 20.55 16.75 M19.9 17.05 L20.3 16.9 M19.4 16.35 L19.1 16.55 M23.4 16.65 L23.35 16.6 23.35 16.65 M24.3 19.5 L24.25 19.0 Q24.0 17.85 23.35 16.65 M22.15 15.75 L22.2 15.65 M21.5 20.95 L21.85 20.65 22.2 20.4 22.75 20.05 24.25 19.8 24.3 19.5 24.75 19.5 24.95 19.5 Q25.6 19.45 25.85 19.15 M23.15 22.25 L23.2 21.95 23.35 21.45 M20.85 27.1 Q21.35 25.75 22.3 26.15 L22.45 26.2 22.6 26.35 22.8 26.55 23.35 27.8 23.75 29.3 Q23.85 31.3 23.25 32.6 L22.7 33.45 M24.4 26.7 Q24.0 25.2 24.3 23.3 L23.65 23.7 M23.15 22.25 L23.25 23.2 Q23.3 23.7 23.65 23.7 M24.05 21.1 Q23.6 20.95 23.35 21.45 M24.2 21.95 Q24.4 21.4 24.05 21.1 M21.1 20.1 L21.2 20.45 21.5 20.95 21.4 21.05 21.2 21.1 Q20.8 21.2 20.55 20.9 L20.4 21.3 20.2 21.6 20.1 21.8 Q19.7 22.3 19.25 22.3 L19.15 22.35 19.15 22.9 18.85 23.75 18.75 23.95 18.25 24.5 Q18.5 25.6 18.0 26.35 L17.8 26.7 17.95 27.0 18.2 27.8 18.35 29.0 18.5 29.5 19.0 29.8 Q19.6 32.5 21.85 33.7 L21.75 34.35 22.05 35.15 22.3 35.0 22.85 34.8 23.35 34.85 23.75 34.85 24.1 34.95 24.9 35.35 25.3 35.75 Q25.6 35.25 26.35 35.05 L27.3 35.0 27.8 35.25 Q27.95 34.8 28.35 34.45 L28.4 34.4 28.75 34.15 Q28.75 33.55 29.0 33.35 L29.4 33.0 29.85 32.95 30.75 32.2 30.7 31.55 31.05 31.05 31.55 31.3 31.75 31.4 32.05 31.55 Q31.85 30.9 32.05 30.3 L32.15 30.05 32.15 30.0 32.25 29.85 32.25 29.8 32.25 29.7 32.75 29.0 32.55 28.25 32.6 27.3 Q32.65 26.9 32.85 26.6 L32.4 25.65 32.4 25.5 32.3 25.0 Q32.2 24.7 32.25 24.4 L32.05 24.35 31.75 23.55 31.45 23.05 30.7 22.0 29.7 21.0 29.6 20.9 29.4 20.75 29.45 20.5 29.25 20.4 29.05 20.3 28.95 20.0 27.95 19.9 27.8 19.85 M20.6 20.65 L20.65 20.65 Q21.2 20.65 21.2 20.45 M20.05 18.7 Q19.55 18.3 18.85 18.2 L18.4 18.4 M20.55 20.9 L20.6 20.65 19.7 20.2 19.15 19.85 18.85 19.8 M22.75 28.05 L23.1 30.5 Q22.85 32.25 21.75 32.2 20.6 32.05 19.7 29.65 18.75 26.6 20.05 23.75 20.55 22.45 21.5 21.5 L21.65 21.4 M24.0 34.05 L22.85 33.55 22.7 33.45 M20.85 30.15 L20.9 30.3 Q21.2 31.05 21.7 31.05 M21.6 29.85 Q21.4 29.55 21.35 29.1 L21.25 28.25 21.45 27.75 Q21.75 26.65 22.2 27.0 L22.4 27.1 22.75 28.05 M21.6 28.65 Q22.1 27.95 22.55 28.8 22.9 30.3 22.2 30.9 L21.7 31.05 M24.5 22.35 Q23.55 23.4 23.8 22.5 L24.2 21.95 M24.5 22.35 Q24.95 21.55 25.85 21.3 L26.35 21.25 26.7 21.25 27.05 21.25 28.25 21.55 29.65 22.65 29.9 23.05 30.65 24.3 Q31.35 26.15 31.2 27.45 31.15 28.7 30.2 30.35 L30.0 30.8 Q30.35 31.55 31.3 30.55 31.95 29.65 32.25 27.8 32.3 24.95 30.45 22.3 L30.35 22.2 Q29.35 20.9 26.65 20.0 L25.2 19.9 22.9 20.5 21.65 21.4 M25.7 21.95 L25.65 21.95 25.6 21.95 Q25.05 22.4 24.85 23.0 L24.8 23.1 24.8 23.2 24.75 23.25 24.75 23.35 24.7 24.05 24.7 24.2 24.8 25.05 24.85 25.35 24.9 25.45 25.6 26.9 25.75 27.1 27.1 28.4 Q27.45 28.65 27.75 28.75 L27.85 28.8 28.55 28.95 Q29.35 29.0 29.95 28.55 30.05 30.2 28.75 31.75 28.2 32.35 27.7 33.5 L27.35 34.05 26.2 34.55 24.0 34.05 M25.7 21.95 L26.05 21.7 M28.95 20.0 L28.95 19.7 28.95 19.35 M27.2 21.65 L27.75 21.8 28.2 22.0 29.0 22.55 29.5 23.0 29.75 23.35 29.95 23.65 Q30.85 25.0 30.85 26.45 30.85 27.9 29.95 28.55 M25.85 31.7 L25.75 31.65 25.8 31.35 Q26.3 29.2 25.1 28.15 25.35 28.9 25.1 29.6 24.9 30.05 24.55 29.8 24.85 28.45 24.5 27.15 L24.4 26.7 M27.2 21.65 L26.05 21.7 M26.2 22.5 L26.35 22.45 M26.2 22.5 Q25.55 23.0 25.55 24.15 25.6 25.25 26.3 26.35 L27.15 27.35 27.25 27.45 27.95 27.8 28.05 27.85 28.2 27.9 28.5 28.0 Q29.1 28.05 29.55 27.7 L29.9 27.4 M27.9 22.4 L27.85 22.4 27.8 22.35 26.35 22.45 M27.9 22.4 Q28.85 22.8 29.5 23.75 L29.55 23.85 Q30.25 24.95 30.25 26.05 30.25 26.85 29.9 27.35 L29.9 27.4 M20.05 18.7 Q20.8 19.25 21.1 20.1 M30.05 19.15 L30.5 18.7 M32.75 21.3 L32.65 21.9 32.6 21.9 32.4 22.0 32.3 22.0 M32.15 22.05 L32.3 22.0 M31.7 19.9 L31.85 19.95 31.85 20.0 32.15 20.15 32.2 20.2 32.45 20.4 32.75 21.2 32.75 21.3 M32.0 22.0 L31.4 21.6 31.1 20.8 Q31.1 20.35 31.25 20.1 L31.7 19.9 M32.15 22.05 L32.05 22.05 32.0 22.0 M33.2 23.15 L33.95 22.9 34.2 23.4 M33.2 23.15 L33.05 23.25 M32.25 24.4 Q32.25 24.1 32.4 23.85 L32.6 23.65 33.05 23.25 M11.35 8.55 L11.3 8.6 M29.45 20.5 Q29.6 19.75 30.05 19.15 M10.25 5.55 L10.5 6.25 10.5 6.45 10.5 7.05 10.3 8.2 10.25 8.35 M6.8 9.3 L6.65 9.5 6.5 9.65 M12.45 6.7 L12.4 7.3 M5.35 6.55 L5.65 6.55 6.25 6.75 6.3 6.85 6.7 7.2 6.9 7.75 6.95 7.95 7.0 8.1 7.05 8.6 6.8 9.3 M5.25 6.5 L5.35 6.55 M4.95 6.6 L5.25 6.5 M5.25 8.2 L5.3 8.4 5.0 8.6 4.75 8.7 3.95 9.35 M5.1 7.95 L5.25 8.2 M3.75 8.85 Q4.4 8.35 5.1 7.95 M9.9 18.2 L10.1 18.2 M8.45 18.85 L6.9 18.45 6.45 18.3 Q6.05 17.7 6.65 17.4 L7.05 17.6 8.65 18.05 9.15 18.15 9.55 18.2 9.9 18.2 M9.2 18.95 L9.45 19.0 9.95 19.05 M8.45 18.85 L9.2 18.95 M3.3 16.1 L3.5 15.7 3.7 15.35 M19.4 16.35 L19.5 16.3 Q19.7 16.2 19.85 16.05 M19.65 15.75 L19.35 15.65 M17.5 22.0 L17.25 21.95 15.7 22.1 M17.75 19.5 L18.85 19.8 M16.1 24.8 L16.4 24.75 16.85 24.75 18.25 24.5 M17.5 22.0 L18.15 22.15 19.15 22.35 M17.8 26.7 L16.6 27.3 16.5 27.35 15.35 27.8 Q14.4 28.3 13.9 29.15 M13.7 30.8 L14.85 29.3 Q15.05 29.1 15.3 29.05 M17.15 28.95 L16.8 28.8 Q15.95 28.65 15.3 29.05 M18.5 29.5 L18.35 29.05 18.35 29.0 M17.15 28.95 L18.5 29.5 M14.15 25.65 L14.25 25.55 M13.65 30.8 L13.7 30.8 M18.35 32.9 L18.35 32.75 Q18.5 32.15 18.25 31.55 L18.0 31.2 17.5 30.8 17.4 30.75 16.4 30.85 Q15.95 31.1 15.8 31.7 15.7 32.3 15.95 32.85 L16.8 33.65 17.0 33.75 17.45 33.8 17.8 33.65 17.8 33.55 18.35 32.9 M19.15 38.8 L18.55 38.4 19.3 36.35 Q19.8 35.1 20.75 34.3 L21.45 33.85 21.75 34.35 M19.3 36.35 Q19.2 37.25 19.4 38.2 L19.9 39.3 M33.65 25.6 L33.95 25.2 34.15 25.0 34.3 24.6 M33.65 25.6 L33.1 26.15 32.85 26.6 M32.15 30.05 L32.25 29.85 M33.65 28.2 L33.9 28.05 34.35 27.7 34.75 26.95 M32.75 29.0 L33.05 28.7 33.65 28.2 M33.85 30.95 L34.2 30.9 34.6 30.6 M33.45 32.6 L34.15 33.5 34.2 33.5 M32.05 31.55 Q32.3 31.35 32.6 31.25 L33.2 31.15 33.85 30.95 M33.45 32.6 L32.8 32.05 32.45 31.85 32.05 31.55 M31.95 32.9 L32.15 32.95 32.65 33.15 32.9 33.35 Q33.25 33.75 33.2 34.2 33.3 34.75 32.95 35.1 L32.65 35.2 32.15 35.3 31.85 35.25 31.65 35.1 M31.75 37.05 L31.9 37.5 M31.8 32.95 Q31.55 33.0 31.35 33.15 31.05 33.55 31.05 34.0 L31.4 34.9 31.65 35.1 M31.8 32.95 L31.95 32.9 M29.95 34.2 L30.3 34.6 31.35 36.1 M25.5 27.95 Q24.9 26.7 24.85 25.6 L24.85 25.35 M26.75 29.65 L26.65 29.3 26.6 29.25 M26.75 29.65 L26.95 30.5 Q26.7 31.75 25.85 31.7 M25.5 27.95 L26.6 29.25 M20.85 30.15 Q20.4 28.8 20.75 27.25 L20.85 27.1 M21.6 28.65 L21.35 29.1 M29.45 31.65 L30.3 31.7 Q29.9 32.6 28.65 33.25 28.7 32.35 29.45 31.65 M29.1 34.0 L28.75 34.15 M29.1 34.0 L29.4 33.8 29.95 34.2 M31.6 36.65 L31.35 36.1 M28.2 35.95 L27.8 35.25 M25.35 40.2 L25.15 40.2 24.85 40.25 M27.15 39.25 Q26.15 38.4 25.6 36.7 L25.3 35.75 M23.05 39.6 Q22.3 38.3 22.2 36.45 L22.05 35.15 M31.35 37.3 L31.6 36.65 31.75 37.05 M31.35 37.3 L31.1 37.55 M31.1 37.65 L31.35 37.3 M30.05 37.75 L29.3 37.25 28.2 35.95 M16.1 24.8 Q14.95 25.0 14.25 25.55" fill="none" stroke="#000000" stroke-linecap="round" stroke-linejoin="round" stroke-opacity="0.3019608" stroke-width="0.05"/>
      <path d="M42.3 7.4 L42.35 7.45 42.45 8.2 42.35 8.3 Q42.15 9.2 41.1 9.85 L39.8 10.35 39.75 10.35 39.95 10.9 Q41.5 14.65 41.9 19.35 L41.5 19.5 Q41.05 19.75 40.75 19.25 40.65 15.05 39.45 11.5 L39.1 10.5 38.4 10.7 Q38.65 14.55 37.7 17.4 36.8 17.75 36.4 16.85 L37.45 12.5 37.65 10.9 37.65 10.85 37.45 10.9 Q33.05 11.35 28.5 10.9 L27.3 10.8 26.1 10.7 Q24.15 11.95 22.4 13.55 L21.1 14.95 21.6 16.25 21.75 16.2 22.2 15.65 22.85 16.1 23.35 16.6 23.65 16.6 Q24.2 16.6 24.55 16.9 L24.95 16.7 25.6 16.65 25.95 16.7 26.25 16.8 26.55 17.0 26.7 17.1 26.75 17.15 27.2 17.1 27.7 17.15 28.05 17.3 28.1 17.35 28.4 17.55 28.5 17.7 28.65 17.95 29.0 17.95 29.05 17.95 Q29.3 18.0 29.65 18.2 L29.8 18.25 30.2 18.5 30.5 18.7 Q30.8 18.4 31.1 18.3 L31.65 18.4 32.15 19.7 Q32.9 21.15 34.15 21.9 L34.25 21.95 Q34.7 22.8 34.2 23.4 L34.4 24.0 34.3 24.6 34.8 25.2 34.9 25.65 34.8 26.75 34.75 26.95 35.15 28.6 35.2 29.05 35.1 29.55 35.0 30.05 34.6 30.6 Q34.85 31.5 34.5 32.6 L34.2 33.5 34.4 33.85 34.4 33.9 34.45 33.95 34.7 34.5 Q34.85 35.1 34.35 35.55 33.3 36.1 32.65 37.65 L32.3 38.1 31.95 38.25 31.1 37.65 30.35 37.8 30.1 37.75 30.05 37.75 Q29.85 38.55 29.0 39.1 L29.0 39.15 28.95 39.15 28.9 39.15 27.15 39.25 27.15 39.3 26.0 40.05 25.35 40.2 24.85 40.25 24.65 40.25 23.9 40.15 23.05 39.6 21.35 39.85 19.9 39.3 19.15 38.8 18.2 39.1 Q17.45 39.05 17.05 38.5 L16.9 38.2 16.7 37.4 16.6 36.8 16.0 35.65 14.9 34.15 14.1 33.5 12.85 32.4 13.1 31.55 13.65 30.8 13.65 30.1 13.65 29.9 13.9 29.25 13.9 29.15 13.55 27.4 13.55 26.6 Q13.7 26.05 14.15 25.65 14.0 25.0 14.15 24.3 L14.15 24.1 14.4 23.4 14.6 22.95 Q15.0 22.35 15.7 22.1 15.65 21.45 15.95 20.85 L16.3 20.25 Q17.0 19.5 17.55 19.45 L17.75 19.5 Q17.9 18.85 18.4 18.4 L18.75 17.3 19.9 17.05 19.1 16.55 18.55 16.85 Q15.0 18.75 11.65 19.05 L10.2 19.05 9.95 19.05 9.55 19.8 Q8.9 20.9 7.85 21.4 L7.35 21.5 5.95 21.55 4.75 21.15 4.65 21.05 4.3 20.8 Q3.35 19.95 3.05 18.6 2.75 17.25 3.3 16.1 L3.15 15.85 Q0.9 12.6 2.1 10.45 L3.75 8.85 3.7 8.8 Q3.6 8.05 3.95 7.35 4.25 6.7 4.95 6.6 5.0 5.95 5.35 5.35 6.0 4.3 7.1 4.0 L7.8 3.9 8.8 4.15 9.2 4.4 10.25 5.55 10.45 5.45 10.6 5.4 Q11.2 5.2 11.75 5.6 12.25 5.9 12.4 6.45 L12.45 6.65 12.45 6.7 13.75 7.1 Q14.4 7.25 15.05 7.55 L16.2 8.0 Q20.5 10.0 25.7 10.0 28.4 8.3 31.3 7.3 33.1 6.9 35.45 7.65 M35.55 7.65 L35.75 7.25 35.85 7.05 36.3 6.7 36.7 6.5 37.6 6.6 37.85 6.7 37.9 6.75 Q38.4 7.15 38.5 7.75 L38.55 7.9 38.65 7.9 39.45 7.75 40.55 7.2 40.65 7.2 40.8 7.15 41.0 7.15 42.25 7.3 42.3 7.4 M39.45 9.75 Q41.25 9.3 41.3 8.7 41.6 8.2 41.4 7.85 40.95 7.75 39.95 8.3 L39.6 8.4 38.9 8.65 39.45 9.75 M38.85 9.9 L38.4 10.0 38.35 9.6 38.2 9.15 M34.55 8.25 L31.1 8.1 Q29.0 8.85 27.05 10.05 L27.7 10.1 29.0 10.3 30.4 10.35 37.6 10.1 M37.7 9.6 L37.35 9.7 36.35 9.6 36.25 9.5 35.6 8.65 35.55 8.5 M35.55 8.45 L35.5 8.5 35.5 8.45 34.55 8.25 M21.2 13.75 L21.0 13.9 20.65 14.25 20.6 14.1 20.15 14.05 20.1 14.1 19.7 14.2 Q19.2 14.5 18.85 15.05 18.5 15.5 18.55 15.95 M38.35 8.9 L38.4 8.9 38.85 9.9 M21.2 13.75 Q23.0 11.95 24.9 10.5 19.85 10.5 15.75 8.55 L15.45 8.45 13.75 7.75 12.4 7.3 12.2 7.8 12.0 8.2 11.9 8.25 11.85 8.3 11.55 8.45 M10.6 8.6 L10.55 8.6 10.5 8.55 10.25 8.35 10.1 8.6 Q9.5 9.65 8.4 9.9 L8.15 9.95 Q7.25 10.15 6.5 9.65 L6.25 9.85 6.1 9.95 5.95 10.0 5.7 10.1 4.75 10.0 4.5 9.85 3.95 9.35 Q2.85 10.3 2.4 11.6 2.3 13.75 3.55 15.2 L3.7 15.35 Q4.5 14.25 5.75 13.95 L6.05 13.9 Q7.35 13.7 8.4 14.45 9.7 15.3 10.0 16.85 L10.1 18.2 10.9 18.15 11.75 18.1 13.5 17.8 Q16.4 17.3 18.55 15.95 M11.45 8.5 L11.55 8.45 M11.45 8.5 L10.6 8.6" fill="none" stroke="#000000" stroke-linecap="round" stroke-linejoin="round" stroke-opacity="0.4" stroke-width="0.5"/>
      <path d="M28.95 39.1 L29.0 39.1" fill="none" stroke="#00ff00" stroke-linecap="round" stroke-linejoin="round" stroke-width="0.05"/>
      <path d="M14.4 22.75 Q14.2 20.3 16.05 18.4 17.9 16.45 20.7 16.25 23.35 15.95 25.4 17.4 27.4 19.0 27.5 21.45 27.65 23.85 25.8 25.7 23.9 27.55 21.25 27.85 18.5 28.1 16.45 26.65 14.45 25.15 14.4 22.75" fill="url(#gradient0)" fill-rule="evenodd" stroke="none"/>
    </g>
    <radialGradient cx="0" cy="0" gradientTransform="matrix(0.0104, -0.0011, 4.0E-4, 0.0092, 20.9, 22.05)" gradientUnits="userSpaceOnUse" id="gradient0" r="819.2" spreadMethod="pad">
      <stop offset="0.0" stop-color="#ffffde" stop-opacity="0.52156866"/>
      <stop offset="0.4117647058823529" stop-color="#ffffcc" stop-opacity="0.0"/>
    </radialGradient>
    <g id="sprite0" transform="matrix(1.0, 0.0, 0.0, 1.0, 0.0, 0.0)">
      <use height="15.35" transform="matrix(1.0, 0.0, 0.0, 1.0, 0.0, 0.0)" width="19.7" xlink:href="#shape1"/>
    </g>
    <g id="shape1" transform="matrix(1.0, 0.0, 0.0, 1.0, 0.0, 0.0)">
      <path d="M13.55 8.2 L0.0 4.55 12.95 9.7 10.55 15.35 13.7 10.25 17.9 10.6 14.75 8.8 18.7 0.0 13.55 8.2" fill="#fcf3d8" fill-opacity="0.39607844" fill-rule="evenodd" stroke="none"/>
      <path d="M10.25 9.3 Q9.6 10.5 7.0 11.1 9.3 10.7 10.6 11.6 11.05 12.5 11.9 13.05 13.15 13.85 14.6 13.45 16.25 13.05 17.05 11.7 L19.7 12.8 17.45 10.65 Q17.8 9.75 17.65 8.6 17.45 7.5 16.9 6.85 L17.4 5.35 16.0 6.2 15.95 6.05 Q14.65 5.35 13.2 5.65 11.75 6.15 10.85 7.5 10.35 8.35 10.25 9.3 M15.95 8.85 Q16.1 9.7 15.65 10.3 15.2 11.1 14.45 11.25 13.7 11.45 13.1 11.05 12.35 10.6 12.25 9.85 12.15 9.05 12.6 8.3 13.0 7.55 13.8 7.3 14.45 7.2 15.15 7.6 15.8 8.1 15.95 8.85" fill="#fcf3d8" fill-opacity="0.14901961" fill-rule="evenodd" stroke="none"/>
      <path d="M15.95 8.85 Q15.8 8.1 15.15 7.6 14.45 7.2 13.8 7.3 13.0 7.55 12.6 8.3 12.15 9.05 12.25 9.85 12.35 10.6 13.1 11.05 13.7 11.45 14.45 11.25 15.2 11.1 15.65 10.3 16.1 9.7 15.95 8.85" fill="#fcf3d8" fill-opacity="0.41960785" fill-rule="evenodd" stroke="none"/>
    </g>
  </defs>
</svg>
