<?xml version="1.0" encoding="UTF-8" standalone="no"?>
<svg xmlns:xlink="http://www.w3.org/1999/xlink" height="440.0px" width="440.0px" xmlns="http://www.w3.org/2000/svg">
  <g transform="matrix(10.0, 0.0, 0.0, 10.0, 0.0, 0.0)">
    <use height="44.0" transform="matrix(1.0, 0.0, 0.0, 1.0, 0.0, 0.0)" width="44.0" xlink:href="#shape0"/>
    <use height="15.35" transform="matrix(-0.0544, 0.5576, -0.5576, -0.0544, 27.0, 15.6)" width="19.7" xlink:href="#sprite0"/>
  </g>
  <defs>
    <g id="shape0" transform="matrix(1.0, 0.0, 0.0, 1.0, 0.0, 0.0)">
      <path d="M44.0 44.0 L0.0 44.0 0.0 0.0 44.0 0.0 44.0 44.0" fill="#43adca" fill-opacity="0.0" fill-rule="evenodd" stroke="none"/>
      <path d="M36.9 7.9 L36.95 7.9 36.95 7.95 36.9 7.9" fill="#cc0066" fill-rule="evenodd" stroke="none"/>
      <path d="M36.1 8.8 L36.3 8.45 36.4 8.2 36.9 7.9 36.95 7.95 36.65 8.2 36.65 8.45 36.85 8.5 37.2 8.45 37.4 8.2 37.5 7.95 37.2 7.85 36.95 7.95 36.95 7.9 37.25 7.75 38.2 7.8 38.45 7.9 38.55 8.0 39.1 8.85 39.15 9.05 39.15 9.15 39.05 9.8 38.95 9.95 38.95 10.0 38.8 10.15 38.75 10.35 38.6 10.4 38.25 10.6 37.95 10.7 37.9 10.7 36.95 10.6 36.8 10.55 Q36.3 10.25 36.15 9.75 L36.1 9.6 36.1 9.55 36.15 9.6 36.3 9.65 36.85 9.75 36.95 10.4 37.05 10.45 37.85 10.6 38.0 10.6 38.05 10.55 38.45 10.4 38.7 10.3 38.75 10.15 38.8 10.0 38.95 9.25 38.9 9.1 38.6 8.45 38.25 8.2 38.25 8.15 Q38.15 8.45 37.65 8.5 37.0 8.65 37.0 9.0 L36.1 8.8" fill="#31c6c6" fill-rule="evenodd" stroke="none"/>
      <path d="M40.05 8.85 Q40.7 8.7 41.2 8.35 L41.3 8.35 41.45 8.3 41.65 8.3 42.85 8.5 43.0 8.6 42.95 9.1 42.65 9.7 41.6 10.55 40.25 11.05 39.55 11.2 38.95 11.3 38.95 11.0 39.45 10.9 40.05 10.75 Q41.85 10.35 41.95 9.75 42.25 9.35 42.05 9.0 41.55 8.9 40.6 9.4 L40.25 9.55 Q40.4 9.15 40.05 8.85 M40.6 11.8 Q42.2 15.35 42.55 19.75 L42.2 19.85 Q41.8 16.0 40.3 12.1 L40.6 11.8 M38.05 13.35 L38.25 11.85 38.25 11.75 38.25 11.45 37.9 11.5 31.35 11.7 30.85 11.3 38.2 11.05 38.25 11.1 38.25 11.45 38.25 11.1 38.25 10.6 Q38.7 13.05 38.55 15.6 37.95 14.9 38.05 13.35 M3.4 16.7 L3.2 16.45 Q1.0 13.45 2.15 11.45 L3.9 9.95 5.2 9.1 5.4 9.35 5.4 9.55 5.1 9.7 4.9 9.75 4.05 10.4 Q2.95 11.3 2.45 12.5 2.35 14.5 3.7 15.85 L3.85 16.0 3.6 16.3 3.4 16.7 M15.3 8.7 L16.55 9.1 Q20.85 11.0 26.1 11.0 28.85 9.4 31.75 8.5 L36.0 8.8 36.05 8.8 36.1 8.8 37.0 9.0 37.05 9.0 37.2 9.05 37.25 9.05 37.5 9.1 Q37.8 9.7 37.1 9.75 L36.85 9.75 36.3 9.65 36.15 9.6 36.1 9.55 36.05 9.6 36.05 9.55 35.1 9.35 31.15 9.1 Q29.15 9.75 27.3 10.75 L27.0 10.9 26.3 11.35 26.05 11.5 Q24.1 12.65 22.35 14.15 L21.8 14.7 Q21.75 14.55 21.5 14.5 L25.3 11.5 Q20.25 11.5 16.05 9.65 L15.75 9.55 Q15.2 9.1 15.3 8.7 M42.65 9.7 Q42.5 9.0 42.05 9.0 42.5 9.0 42.65 9.7 M37.0 9.0 L37.2 9.05 37.0 9.0 M26.1 11.0 L25.3 11.5 26.1 11.0 M18.9 16.5 L19.25 16.3 19.55 16.25 19.65 16.25 20.0 16.35 19.55 16.65 19.35 16.75 Q16.95 18.0 14.7 18.7 13.9 18.7 13.75 18.25 16.7 17.8 18.9 16.5" fill="#664422" fill-rule="evenodd" stroke="none"/>
      <path d="M36.95 7.95 L37.2 7.85 37.5 7.95 37.4 8.2 37.2 8.45 36.85 8.5 36.65 8.45 36.65 8.2 36.95 7.95" fill="#93e3e2" fill-rule="evenodd" stroke="none"/>
      <path d="M8.0 21.6 L7.5 21.7 6.05 21.75 Q5.2 20.0 5.7 18.75 L6.5 17.6 Q7.6 16.45 8.4 16.25 9.55 17.35 9.75 18.65 L9.35 18.6 9.0 17.65 Q9.15 18.0 8.8 18.5 L7.15 18.05 6.8 17.9 Q6.2 18.15 6.6 18.7 L7.05 18.9 8.65 19.25 7.25 20.0 Q6.55 20.1 6.3 20.85 6.3 21.5 7.1 21.45 8.15 21.25 8.75 20.6 9.35 19.95 9.4 19.3 L9.65 19.4 Q9.4 20.7 8.0 21.6 M22.35 17.5 L22.6 17.6 Q22.9 17.65 23.05 17.9 L23.2 17.95 23.35 18.65 Q23.45 19.0 23.15 19.3 L23.05 19.4 22.55 19.55 22.4 19.55 Q23.2 18.55 22.35 17.5 M33.3 21.45 L33.3 21.5 33.15 22.05 33.1 22.05 32.95 22.2 32.8 22.2 32.65 22.25 32.8 21.95 32.75 21.85 32.7 21.0 32.5 20.55 32.65 20.6 33.3 21.45 M8.35 10.95 L6.65 10.65 6.8 10.55 6.9 10.35 8.65 10.4 9.4 9.65 Q9.2 10.0 8.8 10.15 L7.8 10.0 Q7.75 9.5 7.15 9.2 8.3 7.35 9.5 7.15 10.2 7.6 9.95 9.0 9.6 10.35 8.35 10.95 M18.1 32.95 L18.05 33.1 17.75 33.2 17.25 33.15 17.65 32.6 Q18.1 31.85 17.9 30.75 18.65 31.0 18.7 32.35 L18.1 32.95 M32.45 32.35 L32.6 32.4 33.2 32.6 Q33.3 32.6 33.45 32.75 L33.7 33.55 Q33.85 34.1 33.5 34.35 L33.2 34.5 32.65 34.55 32.35 34.55 32.2 34.35 32.4 34.15 Q32.75 33.65 32.6 33.1 L32.5 32.75 32.4 32.6 32.3 32.4 32.45 32.35" fill="#155151" fill-rule="evenodd" stroke="none"/>
      <path d="M10.15 19.45 L9.75 20.1 Q9.05 21.15 8.0 21.6 9.4 20.7 9.65 19.4 L10.15 19.45 M6.05 21.75 L4.9 21.4 4.75 21.3 4.4 21.05 Q4.05 20.4 4.1 19.75 4.2 18.75 5.25 18.15 L5.55 18.0 Q6.95 17.15 6.9 15.6 L6.8 15.2 Q7.6 15.2 8.4 15.65 9.65 16.45 9.95 17.9 L10.1 18.65 9.75 18.65 Q9.55 17.35 8.4 16.25 7.6 16.45 6.5 17.6 L5.7 18.75 Q5.2 20.0 6.05 21.75 M36.85 9.75 L37.1 9.75 Q37.8 9.7 37.5 9.1 L37.25 9.05 37.2 9.05 37.05 9.0 37.0 9.0 Q37.0 8.65 37.65 8.5 38.15 8.45 38.25 8.15 L38.25 8.2 38.6 8.45 38.25 8.85 Q37.6 9.15 37.85 10.6 L37.05 10.45 36.95 10.4 36.85 9.75 M8.55 10.9 L8.35 10.95 Q9.6 10.35 9.95 9.0 10.2 7.6 9.5 7.15 8.3 7.35 7.15 9.2 L7.1 9.1 7.05 8.85 6.85 8.35 6.5 8.05 Q9.05 7.7 9.0 5.9 9.65 6.25 9.95 6.9 L10.25 7.65 10.3 7.8 10.3 8.3 9.95 9.55 9.85 9.75 9.75 9.95 9.3 10.45 8.55 10.9" fill="#0d2f2f" fill-rule="evenodd" stroke="none"/>
      <path d="M38.6 8.45 L38.9 9.1 38.95 9.25 38.8 10.0 38.75 10.15 38.7 10.3 38.45 10.4 38.05 10.55 38.0 10.6 37.85 10.6 Q37.6 9.15 38.25 8.85 L38.6 8.45" fill="#208282" fill-rule="evenodd" stroke="none"/>
      <path d="M43.0 8.6 L43.05 8.65 43.1 9.35 43.05 9.4 Q42.8 10.25 41.75 10.85 L40.45 11.3 40.4 11.3 40.6 11.8 40.3 12.1 Q41.8 16.0 42.2 19.85 41.7 20.05 41.4 19.6 41.3 15.65 40.0 12.4 L39.7 11.5 39.0 11.65 Q39.2 15.2 38.25 17.9 L38.55 15.6 Q38.7 13.05 38.25 10.6 L38.6 10.4 38.75 10.35 38.8 10.15 38.95 10.6 38.95 11.0 38.95 11.3 39.55 11.2 40.25 11.05 41.6 10.55 42.65 9.7 42.95 9.1 43.0 8.6 M38.25 11.75 L38.05 11.8 Q33.55 12.25 28.9 11.85 L27.75 11.7 26.55 11.65 Q24.55 12.8 22.75 14.3 L21.45 15.6 21.25 15.25 21.1 15.1 21.05 15.0 21.35 14.6 21.5 14.5 Q21.75 14.55 21.8 14.7 L22.35 14.15 Q24.1 12.65 26.05 11.5 L26.3 11.35 27.0 10.9 27.3 10.75 Q29.15 9.75 31.15 9.1 L35.1 9.35 31.6 9.2 Q29.45 9.95 27.5 11.05 L28.15 11.05 29.45 11.3 29.0 11.55 31.35 11.7 37.9 11.5 38.25 11.45 38.25 11.75 M19.4 17.1 L18.85 17.35 Q15.25 19.1 11.9 19.45 L10.4 19.45 10.15 19.45 9.65 19.4 9.4 19.3 8.65 19.25 7.05 18.9 6.6 18.7 Q6.2 18.15 6.8 17.9 L7.15 18.05 8.8 18.5 9.35 18.6 9.75 18.65 10.1 18.65 10.3 18.65 11.1 18.6 11.95 18.55 Q11.7 18.8 11.8 19.25 L14.7 18.7 Q16.95 18.0 19.35 16.75 L19.55 16.65 20.0 16.35 20.25 16.65 19.8 16.9 19.75 16.95 19.4 17.1 M12.65 7.95 L14.0 8.25 14.0 8.9 12.6 8.5 12.65 7.95 M39.15 9.05 L39.3 9.05 40.05 8.85 Q40.4 9.15 40.25 9.55 L39.55 9.75 40.05 10.75 39.45 10.9 38.95 9.95 39.05 9.8 39.15 9.15 39.15 9.05 M39.0 11.65 L38.95 11.3 39.0 11.65 M39.15 9.15 L39.2 9.35 39.55 9.75 39.2 9.35 39.15 9.15 M27.5 11.05 L26.55 11.65 27.5 11.05 M40.4 11.3 L39.7 11.5 40.4 11.3" fill="#392613" fill-rule="evenodd" stroke="none"/>
      <path d="M38.25 17.9 Q37.35 18.2 37.0 17.35 37.7 15.35 38.05 13.35 37.95 14.9 38.55 15.6 L38.25 17.9 M14.0 8.25 L15.3 8.7 Q15.2 9.1 15.75 9.55 L14.0 8.9 14.0 8.25 M30.85 11.3 L31.35 11.7 29.0 11.55 29.45 11.3 30.85 11.3 M11.95 18.55 L13.75 18.25 Q13.9 18.7 14.7 18.7 L11.8 19.25 Q11.7 18.8 11.95 18.55" fill="#bf8040" fill-rule="evenodd" stroke="none"/>
      <path d="M23.7 17.15 L23.8 17.15 24.05 17.15 25.0 17.4 Q25.65 18.0 25.8 18.7 L25.95 19.0 26.3 19.55 Q26.05 19.8 25.35 19.85 L25.15 19.85 24.75 19.85 24.6 19.4 Q24.35 18.3 23.7 17.15 M34.85 24.55 L35.35 25.2 35.45 25.55 Q35.25 26.95 34.55 26.55 34.4 25.95 34.5 25.2 L34.65 25.0 34.85 24.55 M35.25 26.8 Q35.65 27.5 35.7 28.3 35.45 29.7 34.4 29.45 34.25 28.7 34.4 27.85 L34.9 27.45 35.25 26.8 M23.45 38.6 L21.7 38.8 20.95 38.45 Q22.6 37.15 21.5 34.4 20.15 35.35 19.75 37.25 19.55 36.4 19.6 35.55 20.15 34.35 21.1 33.65 L21.75 33.25 22.15 33.7 22.4 34.45 22.55 35.65 Q22.65 37.4 23.45 38.6 M21.45 20.45 L21.55 20.75 Q20.75 20.55 20.15 19.6 L20.4 19.1 Q21.15 19.6 21.45 20.45 M20.9 20.9 L20.85 21.15 20.7 21.5 20.55 21.8 Q19.1 22.15 19.5 20.2 L20.0 20.5 20.9 20.9 M29.75 20.7 Q29.85 19.95 30.3 19.3 L30.3 19.0 Q30.6 19.1 30.55 19.55 30.05 20.05 29.9 20.8 L29.75 20.7 M29.4 19.7 L29.4 20.0 29.4 20.35 28.4 20.2 28.25 20.15 28.9 18.7 Q29.3 18.95 29.4 19.7 M33.7 23.25 L34.45 23.05 34.75 23.45 Q34.95 24.45 34.2 24.45 L33.7 23.25 M27.8 18.6 L27.85 18.9 27.85 19.25 28.05 19.8 26.8 19.85 26.6 19.75 Q26.7 19.0 26.95 18.5 L27.05 17.95 Q27.3 17.9 27.8 18.6 M19.5 22.5 L19.5 23.05 19.1 23.8 Q18.0 24.2 17.8 22.2 L18.5 22.35 19.5 22.5 M18.55 24.5 Q18.8 25.5 18.3 26.25 16.9 26.6 16.7 24.75 L17.15 24.75 18.55 24.5 M18.3 26.85 L18.5 27.65 18.7 28.7 18.7 28.75 18.8 29.15 17.45 28.7 17.1 28.45 Q16.25 28.35 15.6 28.75 L15.85 28.05 17.05 27.55 18.3 26.85 M25.3 34.6 Q25.6 34.75 25.7 35.05 L26.05 35.9 Q26.55 37.45 27.65 38.25 L25.5 38.35 Q25.5 38.0 25.8 37.6 26.0 36.35 25.3 34.6 M34.35 30.55 L34.75 30.45 35.15 30.2 Q34.95 32.8 34.0 32.05 33.9 31.2 34.35 30.55 M32.15 35.85 Q31.75 36.45 31.2 36.3 30.35 35.3 30.45 33.55 L30.8 33.9 Q31.4 34.45 31.85 35.3 L32.15 35.85 M30.55 36.85 Q30.0 37.75 28.9 37.55 28.2 36.55 28.7 35.2 L29.8 36.4 Q30.2 36.7 30.55 36.85" fill="#d7ae0f" fill-rule="evenodd" stroke="none"/>
      <path d="M25.0 17.4 L25.35 17.25 Q26.15 18.0 26.25 18.85 26.95 18.5 26.75 17.65 L26.4 17.25 26.7 17.35 26.95 17.5 27.15 17.6 27.15 17.65 27.65 17.6 Q28.15 18.5 28.05 19.25 28.8 19.1 28.85 18.25 L28.5 17.8 28.85 18.0 28.95 18.15 29.1 18.4 29.1 18.5 29.4 19.7 29.1 18.5 29.5 18.4 29.55 18.4 30.1 18.65 30.25 18.7 30.65 18.9 30.95 19.1 30.55 19.55 Q30.6 19.1 30.3 19.0 L30.3 19.3 Q29.85 19.95 29.75 20.7 L29.55 20.6 29.4 20.35 29.4 20.0 29.4 19.7 Q29.3 18.95 28.9 18.7 L28.25 20.15 28.05 19.8 27.85 19.25 27.85 18.9 27.8 18.6 27.45 17.95 27.15 17.65 27.45 17.95 27.8 18.6 Q27.3 17.9 27.05 17.95 L26.95 18.5 Q26.7 19.0 26.6 19.75 L26.3 19.55 25.95 19.0 25.8 18.7 Q25.65 18.0 25.0 17.4 M34.75 23.45 L34.95 24.05 34.5 24.8 33.75 25.5 Q34.1 24.35 33.55 23.35 L33.7 23.25 34.2 24.45 Q34.95 24.45 34.75 23.45 M35.45 25.55 L35.35 26.6 35.25 26.8 34.85 27.25 33.95 27.8 Q34.5 26.5 34.15 25.5 L34.5 25.2 Q34.4 25.95 34.55 26.55 35.25 26.95 35.45 25.55 M35.7 28.3 L35.75 28.75 35.7 29.2 35.5 29.7 34.6 30.2 33.45 30.45 Q34.3 29.2 34.15 27.95 L34.4 27.85 Q34.25 28.7 34.4 29.45 35.45 29.7 35.7 28.3 M35.15 30.2 Q35.4 31.05 35.05 32.05 L34.75 32.85 34.65 32.85 34.0 32.05 Q34.95 32.8 35.15 30.2 M30.55 36.85 Q30.35 37.6 29.5 38.1 L29.45 38.15 29.4 38.15 29.4 38.1 Q28.7 38.3 27.9 37.7 28.65 36.25 27.75 34.3 L28.25 34.55 28.7 35.2 Q28.2 36.55 28.9 37.55 30.0 37.75 30.55 36.85 M27.65 38.25 L26.4 39.0 26.2 39.1 25.8 39.15 25.75 39.15 25.6 39.15 25.2 39.15 25.05 39.15 24.3 39.1 Q23.8 38.95 23.45 38.6 22.65 37.4 22.55 35.65 L22.4 34.45 22.65 34.3 23.25 34.15 Q22.15 36.85 24.7 38.7 26.15 36.8 24.5 34.25 L25.3 34.6 Q26.0 36.35 25.8 37.6 25.5 38.0 25.5 38.35 L27.65 38.25 M19.5 20.2 Q19.1 22.15 20.55 21.8 L20.45 21.95 Q19.4 22.15 18.65 21.5 19.5 20.85 19.2 20.1 L19.5 20.2 M29.55 18.4 Q29.8 19.1 29.6 19.85 30.2 19.55 30.2 18.95 L29.55 18.4 M19.1 23.8 L19.05 24.0 Q17.85 24.35 17.15 24.0 17.9 22.9 17.55 22.2 L17.8 22.2 Q18.0 24.2 19.1 23.8 M18.3 26.25 L18.05 26.5 16.9 27.15 16.75 27.15 Q16.1 27.35 15.65 27.65 17.3 26.1 16.35 24.75 L16.7 24.75 Q16.9 26.6 18.3 26.25 M33.3 31.55 Q33.9 31.0 33.7 30.7 L34.35 30.55 Q33.9 31.2 34.0 32.05 L33.3 31.55 M31.85 36.45 L31.6 36.65 Q30.8 36.8 30.1 36.05 30.75 34.85 29.6 33.35 L29.85 33.2 30.45 33.55 Q30.35 35.3 31.2 36.3 31.75 36.45 32.15 35.85 L31.85 36.45 M29.5 38.1 L29.4 38.1 29.5 38.1 M25.75 39.15 L26.2 39.1 25.75 39.15" fill="#977a0b" fill-rule="evenodd" stroke="none"/>
      <path d="M25.35 17.25 L26.0 17.15 26.35 17.25 26.4 17.25 26.75 17.65 Q26.95 18.5 26.25 18.85 26.15 18.0 25.35 17.25 M27.65 17.6 L28.1 17.65 28.5 17.8 28.85 18.25 Q28.8 19.1 28.05 19.25 28.15 18.5 27.65 17.6 M34.95 24.05 L34.85 24.55 34.65 25.0 34.5 25.2 34.15 25.5 33.6 26.1 33.35 26.45 33.6 26.1 34.15 25.5 Q34.5 26.5 33.95 27.8 L34.85 27.25 35.25 26.8 34.9 27.45 34.4 27.85 34.15 27.95 Q34.3 29.2 33.45 30.45 L34.6 30.2 35.5 29.7 35.15 30.2 34.75 30.45 34.35 30.55 33.7 30.7 Q33.9 31.0 33.3 31.55 L33.0 31.35 32.55 31.05 Q32.8 30.85 33.1 30.8 L33.7 30.7 33.1 30.8 Q32.8 30.85 32.55 31.05 32.35 30.5 32.55 29.9 L32.6 29.7 32.75 29.5 32.75 29.45 32.75 29.35 33.3 28.7 33.1 28.05 33.1 27.15 33.35 26.45 32.95 25.55 32.9 25.4 32.8 25.0 32.75 24.4 32.95 23.9 33.1 23.7 Q33.35 23.45 33.55 23.35 34.1 24.35 33.75 25.5 L34.5 24.8 34.95 24.05 M30.8 36.9 L30.7 36.9 30.6 36.85 30.55 36.85 Q30.2 36.7 29.8 36.4 L28.7 35.2 28.25 34.55 28.8 33.75 28.85 33.7 29.15 33.5 29.6 33.35 Q30.75 34.85 30.1 36.05 30.8 36.8 31.6 36.65 31.25 36.95 30.8 36.9 M29.4 38.15 L27.65 38.25 Q26.55 37.45 26.05 35.9 L25.7 35.05 Q26.05 34.55 26.75 34.35 L27.75 34.3 Q28.65 36.25 27.9 37.7 28.7 38.3 29.4 38.1 L29.4 38.15 M20.25 38.25 L19.5 37.85 18.9 37.45 19.6 35.55 Q19.55 36.4 19.75 37.25 20.15 35.35 21.5 34.4 22.6 37.15 20.95 38.45 L20.25 38.25 19.75 37.25 20.25 38.25 M13.9 29.7 L13.9 29.6 14.1 28.9 14.15 28.85 13.8 27.2 13.8 26.45 Q13.95 25.95 14.35 25.55 L14.5 25.45 Q14.3 25.0 14.35 24.35 L14.4 24.15 14.7 23.45 14.85 23.05 Q15.25 22.5 15.95 22.3 15.9 21.65 16.25 21.05 L16.6 20.55 Q17.25 19.85 17.85 19.8 L18.0 19.85 18.7 18.85 19.1 18.65 Q19.85 18.75 20.4 19.1 L20.15 19.6 Q20.75 20.55 21.55 20.75 L20.95 20.9 20.9 20.9 20.0 20.5 19.5 20.2 19.2 20.1 Q19.5 20.85 18.65 21.5 19.4 22.15 20.45 21.95 20.0 22.45 19.55 22.45 L19.5 22.5 18.5 22.35 17.8 22.2 17.55 22.2 Q17.9 22.9 17.15 24.0 17.85 24.35 19.05 24.0 L18.55 24.5 17.15 24.75 16.7 24.75 16.35 24.75 Q17.3 26.1 15.65 27.65 16.1 27.35 16.75 27.15 L16.9 27.15 18.05 26.5 18.3 26.85 17.05 27.55 15.85 28.05 15.6 28.75 Q15.3 28.8 15.1 28.95 L13.95 30.4 13.9 29.7 M26.65 17.6 L26.35 17.35 26.1 17.4 25.9 17.6 25.95 17.8 26.2 17.95 26.55 17.95 26.7 17.8 26.65 17.6 M28.5 18.0 L28.25 18.0 28.05 18.1 28.1 18.25 28.35 18.4 28.6 18.5 28.7 18.3 28.7 18.1 28.5 18.0 M30.1 19.1 L30.1 18.95 30.0 18.85 29.8 18.8 29.7 18.85 29.75 19.0 29.85 19.1 30.0 19.1 30.1 19.1 M29.55 18.4 L30.2 18.95 Q30.2 19.55 29.6 19.85 29.8 19.1 29.55 18.4 M33.3 23.85 L33.1 24.05 33.05 24.35 Q33.0 24.55 33.1 24.75 L33.3 24.95 33.55 24.75 33.7 24.35 33.6 24.1 33.3 23.85 M18.0 20.1 L17.4 20.2 16.8 20.7 16.8 21.3 Q16.9 21.5 17.2 21.5 L17.9 21.4 18.45 20.85 18.5 20.4 Q18.35 20.15 18.0 20.1 M19.4 18.85 L18.95 18.9 18.7 19.2 18.7 19.55 18.9 19.7 19.35 19.65 19.65 19.3 19.65 19.05 Q19.6 18.9 19.4 18.85 M23.25 34.15 L23.7 34.15 24.15 34.15 24.5 34.25 Q26.15 36.8 24.7 38.7 22.15 36.85 23.25 34.15 M19.2 20.1 L18.0 19.85 19.2 20.1 M16.95 22.7 L16.5 22.4 15.8 22.6 Q15.4 22.75 15.25 23.05 15.15 23.35 15.2 23.6 L15.7 23.85 16.35 23.7 16.85 23.25 16.95 22.7 M15.95 22.3 L17.55 22.2 15.95 22.3 M16.05 25.55 L15.65 25.25 14.95 25.4 14.4 25.9 14.4 26.45 14.9 26.75 15.6 26.55 16.05 26.1 Q16.25 25.85 16.05 25.55 M14.15 28.85 Q14.7 28.05 15.65 27.65 14.7 28.05 14.15 28.85 M33.65 26.25 L33.45 26.5 Q33.35 26.75 33.4 26.95 L33.65 27.15 33.95 27.1 34.15 26.75 34.15 26.35 33.95 26.1 33.65 26.25 M33.1 29.35 L33.25 29.6 33.5 29.65 33.85 29.35 33.95 29.0 33.75 28.7 33.5 28.7 33.25 28.95 33.1 29.35 M34.15 27.95 L33.55 28.4 33.3 28.7 33.55 28.4 34.15 27.95 M24.2 34.5 L23.7 34.55 23.3 35.25 23.35 35.9 23.65 36.3 24.2 36.15 24.55 35.55 Q24.75 35.2 24.55 34.85 L24.2 34.5 M27.45 34.55 L26.85 34.7 Q26.6 34.95 26.5 35.3 26.35 35.65 26.5 36.0 L26.8 36.4 27.3 36.3 27.7 35.7 27.75 35.65 27.7 35.0 27.45 34.55 M29.25 33.85 L28.9 34.15 28.9 34.7 29.15 35.2 29.6 35.3 29.85 35.05 29.9 34.45 29.6 33.95 29.25 33.85 M14.5 25.45 Q15.2 25.0 16.35 24.75 15.2 25.0 14.5 25.45" fill="#f2cc37" fill-rule="evenodd" stroke="none"/>
      <path d="M22.55 16.25 L23.25 16.7 23.7 17.15 Q24.35 18.3 24.6 19.4 L24.75 19.85 24.6 20.1 23.1 20.4 22.6 20.65 22.2 20.9 21.85 21.25 21.55 20.75 21.85 21.25 21.7 21.3 21.5 21.35 Q21.15 21.45 20.85 21.15 L20.9 20.9 20.95 20.9 21.55 20.75 21.45 20.45 Q22.05 20.6 22.55 19.55 L23.05 19.4 Q22.65 19.75 22.6 20.05 L24.4 19.6 Q24.2 18.05 23.35 17.2 L23.2 17.95 23.05 17.9 Q22.9 17.65 22.6 17.6 L22.55 16.85 22.5 16.35 22.55 16.25 M31.6 18.75 L32.2 18.85 32.65 20.0 Q33.4 21.4 34.65 22.05 L34.85 22.15 Q35.25 22.9 34.75 23.45 L34.45 23.05 33.7 23.25 33.55 23.35 Q33.35 23.45 33.1 23.7 L32.95 23.9 32.75 24.4 32.55 24.35 32.25 23.65 32.5 22.2 32.55 22.25 32.65 22.25 32.8 22.2 33.05 23.25 Q33.5 22.45 34.3 22.25 L33.3 21.5 33.3 21.45 33.0 20.7 32.7 20.5 32.65 20.45 32.4 20.35 32.4 20.25 32.35 20.25 32.2 20.2 31.6 18.75 M34.95 33.25 L34.95 33.3 35.0 33.3 35.25 33.8 Q35.4 34.35 34.9 34.75 33.85 35.3 33.15 36.8 L32.8 37.2 32.45 37.3 Q32.0 37.2 31.6 36.8 L31.85 36.45 32.15 35.85 32.25 36.2 Q32.6 35.25 32.35 34.55 L32.65 34.55 33.2 34.5 Q32.75 35.25 32.75 36.2 34.2 35.25 34.85 33.7 34.1 32.2 32.95 31.8 L33.2 32.6 32.6 32.4 32.45 32.35 Q32.8 31.65 32.55 31.05 L33.0 31.35 33.3 31.55 34.0 32.05 34.65 32.85 34.95 33.25 M19.5 37.85 L18.5 38.1 Q18.0 38.1 17.4 37.5 L16.9 35.9 17.75 33.2 18.05 33.1 18.1 32.95 Q17.6 35.25 17.95 37.55 L18.3 35.85 19.9 33.8 Q20.3 31.35 18.5 29.7 18.2 30.0 18.3 30.75 L17.8 30.4 17.45 28.7 18.8 29.15 19.35 29.45 Q19.95 31.95 22.2 33.1 L22.15 33.7 21.75 33.25 21.1 33.65 Q20.15 34.35 19.6 35.55 L18.9 37.45 19.5 37.85 M21.05 15.0 L21.1 15.1 Q20.9 15.8 21.15 17.2 L20.85 17.3 20.65 17.4 20.2 17.15 20.75 17.2 20.6 16.95 Q21.2 16.05 20.45 14.9 L20.45 14.75 20.5 14.75 20.9 14.85 21.05 15.0 M20.75 17.2 L20.85 17.3 20.75 17.2 M26.5 21.9 L26.3 21.5 26.75 21.5 27.15 21.5 27.5 21.5 27.65 21.85 26.5 21.9 27.65 21.85 Q28.25 22.15 28.25 22.5 L26.75 22.6 26.65 22.05 26.5 21.95 26.5 21.9 M27.7 27.25 L28.4 27.65 28.5 27.65 28.65 27.7 Q28.4 28.15 29.0 28.7 L28.25 28.45 28.2 28.45 27.55 28.15 27.65 28.05 Q27.95 27.75 27.7 27.25 M32.4 36.6 L32.25 36.2 32.4 36.6" fill="#765301" fill-rule="evenodd" stroke="none"/>
      <path d="M21.45 15.6 L22.0 16.85 21.15 17.2 Q20.9 15.8 21.1 15.1 L21.25 15.25 21.45 15.6 M23.2 17.95 L23.35 17.2 Q24.2 18.05 24.4 19.6 L22.6 20.05 Q22.65 19.75 23.05 19.4 L23.15 19.3 Q23.45 19.0 23.35 18.65 L23.2 17.95 M21.85 21.25 L22.2 20.9 22.6 20.65 23.1 20.4 24.6 20.1 24.75 19.85 25.15 19.85 25.35 19.85 Q26.05 19.8 26.3 19.55 L26.6 19.75 26.8 19.85 28.05 19.8 28.25 20.15 28.4 20.2 29.4 20.35 29.55 20.6 29.75 20.7 29.9 20.8 29.85 21.0 30.05 21.15 30.2 21.3 31.2 22.2 32.0 23.2 32.25 23.65 32.55 24.35 32.75 24.4 32.8 25.0 32.9 25.4 32.95 25.55 33.35 26.45 33.1 27.15 33.1 28.05 33.3 28.7 32.75 29.35 32.75 29.45 32.75 29.5 32.6 29.65 32.6 29.7 32.55 29.9 Q32.35 30.5 32.55 31.05 L32.25 30.9 32.05 30.85 31.55 30.65 31.2 31.05 31.25 31.7 30.35 32.4 29.85 32.45 29.45 32.75 Q29.15 32.95 29.15 33.5 L28.85 33.7 28.8 33.75 28.25 34.55 27.75 34.3 26.75 34.35 Q26.05 34.55 25.7 35.05 25.6 34.75 25.3 34.6 L24.5 34.25 24.15 34.15 23.7 34.15 23.25 34.15 22.65 34.3 22.4 34.45 22.15 33.7 22.2 33.1 Q19.95 31.95 19.35 29.45 L18.8 29.15 18.7 28.7 18.5 27.65 18.3 26.85 18.05 26.5 18.3 26.25 Q18.8 25.5 18.55 24.5 L19.05 24.0 19.1 23.8 19.5 23.05 19.5 22.5 19.55 22.45 Q20.0 22.45 20.45 21.95 L20.55 21.8 20.7 21.5 20.85 21.15 Q21.15 21.45 21.5 21.35 L21.7 21.3 21.85 21.25 M25.65 20.2 L23.25 20.8 22.0 21.6 21.3 21.5 20.55 22.35 Q19.55 23.65 19.1 25.0 18.65 26.75 19.1 28.75 L19.45 28.95 Q20.05 31.05 21.65 32.6 L22.6 33.1 22.65 33.9 24.3 34.05 24.35 33.45 26.65 33.85 27.8 33.4 28.15 32.85 Q28.65 31.8 29.25 31.3 30.5 29.8 30.45 28.25 31.35 27.7 31.35 26.3 31.35 25.0 30.45 23.7 L30.25 23.45 29.95 23.15 29.5 22.7 28.7 22.2 28.2 21.95 27.65 21.85 28.2 21.95 28.7 22.2 29.5 22.7 29.95 23.15 30.25 23.45 30.45 23.7 Q31.35 25.0 31.35 26.3 31.35 27.7 30.45 28.25 29.8 28.7 29.0 28.7 28.4 28.15 28.65 27.7 L28.95 27.8 30.0 27.45 30.4 27.2 30.4 27.15 30.7 25.95 Q30.7 24.95 30.0 23.9 L29.95 23.8 Q29.35 22.9 28.35 22.55 L28.25 22.55 28.25 22.5 Q28.25 22.15 27.65 21.85 L27.5 21.5 28.7 21.75 30.1 22.8 30.4 23.2 31.15 24.35 Q31.8 26.05 31.7 27.25 31.65 28.4 30.65 29.95 L30.45 30.4 Q30.85 31.05 31.75 30.15 32.45 29.3 32.75 27.65 32.8 24.95 30.9 22.45 L30.85 22.4 Q29.8 21.15 27.1 20.35 L25.65 20.2 M22.95 28.45 Q23.25 29.9 22.6 30.5 L22.05 30.65 Q22.9 29.95 22.95 28.45 M23.05 32.8 Q23.9 31.05 23.9 29.5 23.8 28.0 23.0 26.3 L23.2 26.4 23.7 27.65 24.15 29.0 Q24.25 30.85 23.6 32.05 L23.05 32.8 M25.9 27.75 Q25.45 27.5 25.3 27.0 24.9 25.95 25.0 24.95 L25.1 24.25 25.2 25.0 25.25 25.3 25.25 25.4 25.25 25.5 Q25.3 26.5 25.9 27.75 M33.3 21.5 L34.3 22.25 Q33.5 22.45 33.05 23.25 L32.8 22.2 32.95 22.2 33.1 22.05 33.15 22.05 33.3 21.5 M26.3 31.2 L26.15 31.15 26.2 30.85 Q27.15 30.65 27.0 28.9 L27.1 29.0 27.15 29.3 27.45 30.1 Q27.15 31.3 26.3 31.2 M18.7 32.35 L18.7 32.2 Q18.8 31.65 18.55 31.05 L18.3 30.75 Q18.2 30.0 18.5 29.7 20.3 31.35 19.9 33.8 L18.3 35.85 17.95 37.55 Q17.6 35.25 18.1 32.95 L18.7 32.35 M33.2 32.6 L32.95 31.8 Q34.1 32.2 34.85 33.7 34.2 35.25 32.75 36.2 32.75 35.25 33.2 34.5 L33.5 34.35 Q33.85 34.1 33.7 33.55 L33.45 32.75 Q33.3 32.6 33.2 32.6 M29.9 31.15 Q29.1 31.8 29.1 32.65 30.4 32.05 30.75 31.2 L29.9 31.15" fill="#b17c01" fill-rule="evenodd" stroke="none"/>
      <path d="M22.0 16.85 L22.15 16.75 22.5 16.35 22.55 16.85 22.05 17.05 21.1 17.6 20.3 18.25 Q21.5 19.4 21.45 20.45 21.15 19.6 20.4 19.1 19.85 18.75 19.1 18.65 L18.7 18.85 19.05 17.8 20.25 17.6 20.65 17.4 20.85 17.3 21.15 17.2 22.0 16.85 M30.95 19.1 L31.6 18.75 Q30.65 19.75 30.55 20.7 32.15 22.2 32.0 23.2 L31.2 22.2 30.2 21.3 30.05 21.15 29.85 21.0 29.9 20.8 Q30.05 20.05 30.55 19.55 L30.95 19.1 M15.2 33.4 L13.85 32.45 13.1 32.2 Q13.2 31.05 13.9 30.4 L13.95 30.4 15.1 28.95 Q15.3 28.8 15.6 28.75 16.25 28.35 17.1 28.45 L17.45 28.7 Q14.2 29.9 14.35 32.1 14.95 32.7 15.2 33.4 M18.9 16.5 Q18.8 16.1 19.1 15.65 L20.0 14.95 20.45 14.75 20.45 14.9 Q19.25 15.4 19.65 16.25 L19.55 16.25 19.25 16.3 18.9 16.5 M21.2 26.95 Q21.7 25.65 22.65 26.05 L22.85 26.1 23.0 26.25 23.2 26.4 23.0 26.3 Q22.5 26.15 22.2 26.3 21.7 26.55 21.4 27.35 20.85 28.45 21.2 29.8 20.7 28.55 21.1 27.1 L21.2 26.95 M23.5 22.4 L23.55 22.15 23.7 21.65 Q24.0 21.25 24.45 21.35 23.65 22.05 23.6 23.3 L23.5 22.4 M22.0 28.35 Q22.45 27.75 22.95 28.45 22.55 28.25 22.55 29.0 22.25 29.8 22.0 29.55 21.7 29.2 21.7 28.8 L22.0 28.35 M25.1 24.25 L25.1 24.15 25.15 23.45 25.15 23.35 25.2 23.3 25.2 23.25 25.2 23.15 26.0 22.2 26.15 22.15 26.5 21.95 26.65 22.05 26.35 22.25 Q25.9 22.6 25.7 23.25 25.45 23.65 25.45 24.2 L25.6 25.1 25.7 25.4 25.7 25.45 26.35 26.8 26.55 27.0 27.65 28.05 27.55 28.15 Q26.75 27.7 26.15 26.95 L26.05 26.75 25.3 25.4 25.25 25.3 25.2 25.0 25.1 24.25 M29.15 33.5 Q29.15 32.95 29.45 32.75 L29.85 32.45 30.35 32.4 31.25 31.7 31.2 31.05 31.55 30.65 32.05 30.85 32.25 30.9 Q31.1 32.0 30.85 33.25 31.65 34.25 31.85 35.3 31.4 34.45 30.8 33.9 L30.45 33.55 29.85 33.2 29.6 33.35 29.15 33.5" fill="#fecb56" fill-rule="evenodd" stroke="none"/>
      <path d="M16.9 35.9 L16.5 35.1 15.2 33.4 Q14.95 32.7 14.35 32.1 14.2 29.9 17.45 28.7 L17.8 30.4 17.7 30.3 17.0 30.25 16.7 30.45 Q16.6 30.45 16.55 30.55 16.15 30.8 16.05 31.2 15.95 31.75 16.25 32.3 L17.1 33.1 17.25 33.15 17.75 33.2 16.9 35.9 M20.25 17.6 L19.4 17.1 19.75 16.95 20.2 17.15 20.65 17.4 20.25 17.6 M19.65 16.25 Q19.25 15.4 20.45 14.9 21.2 16.05 20.6 16.95 L20.25 16.65 20.0 16.35 19.65 16.25 M21.45 20.45 Q21.5 19.4 20.3 18.25 L21.1 17.6 22.05 17.05 22.55 16.85 22.6 17.6 22.35 17.5 Q22.0 17.45 21.65 17.75 21.35 18.0 21.35 18.4 21.4 18.85 21.7 19.1 L22.35 19.55 22.4 19.55 22.55 19.55 Q22.05 20.6 21.45 20.45 M24.8 26.55 Q24.35 25.2 24.75 23.4 L24.05 23.75 Q23.7 23.75 23.6 23.3 23.65 22.05 24.45 21.35 24.8 21.6 24.55 22.15 L24.2 22.65 Q23.95 23.45 24.9 22.5 25.35 21.75 26.3 21.5 L26.5 21.9 26.15 22.15 26.5 21.9 26.5 21.95 26.15 22.15 26.0 22.2 25.2 23.15 25.2 23.25 25.2 23.3 25.15 23.35 25.15 23.45 25.1 24.15 25.1 24.25 25.0 24.95 Q24.9 25.95 25.3 27.0 25.45 27.5 25.9 27.75 L27.0 28.9 Q27.15 30.65 26.2 30.85 26.75 28.9 25.45 27.9 25.75 28.65 25.45 29.25 25.3 29.7 24.95 29.45 25.2 28.2 24.9 26.95 L24.8 26.55 M22.0 21.6 L21.85 21.7 Q20.85 22.6 20.4 23.8 19.05 26.45 20.0 29.3 20.9 31.55 22.15 31.7 23.25 31.75 23.45 30.1 23.5 28.95 23.15 27.85 L22.75 26.95 22.6 26.85 Q22.15 26.5 21.75 27.5 L21.6 28.0 21.7 28.8 Q21.7 29.2 22.0 29.55 22.25 29.8 22.55 29.0 22.55 28.25 22.95 28.45 22.9 29.95 22.05 30.65 21.55 30.65 21.3 29.9 L21.2 29.8 Q20.85 28.45 21.4 27.35 21.7 26.55 22.2 26.3 22.5 26.15 23.0 26.3 23.8 28.0 23.9 29.5 23.9 31.05 23.05 32.8 L23.25 32.9 24.35 33.45 24.3 34.05 22.65 33.9 22.6 33.1 21.65 32.6 Q20.05 31.05 19.45 28.95 L19.1 28.75 Q18.65 26.75 19.1 25.0 19.55 23.65 20.55 22.35 L21.3 21.5 22.0 21.6 M32.0 23.2 Q32.15 22.2 30.55 20.7 30.65 19.75 31.6 18.75 L32.2 20.2 Q32.0 20.2 31.75 20.45 L31.7 20.55 31.55 21.05 31.9 21.8 32.5 22.2 32.25 23.65 32.0 23.2 M27.65 28.05 L26.55 27.0 26.35 26.8 25.7 25.45 25.7 25.4 25.6 25.1 25.45 24.2 Q25.45 23.65 25.7 23.25 25.9 22.6 26.35 22.25 L26.65 22.05 26.75 22.6 26.65 22.65 Q25.95 23.15 25.95 24.2 26.0 25.2 26.75 26.25 L27.65 27.15 27.7 27.25 Q27.95 27.75 27.65 28.05 M32.25 30.9 L32.55 31.05 Q32.8 31.65 32.45 32.35 L32.3 32.4 31.85 32.6 Q31.55 32.9 31.55 33.35 31.55 33.8 31.9 34.2 L32.2 34.35 32.35 34.55 Q32.6 35.25 32.25 36.2 L32.15 35.85 31.85 35.3 Q31.65 34.25 30.85 33.25 31.1 32.0 32.25 30.9" fill="#fdb40b" fill-rule="evenodd" stroke="none"/>
      <path d="M20.25 16.65 L20.6 16.95 20.75 17.2 20.2 17.15 19.75 16.95 19.8 16.9 20.25 16.65" fill="#221700" fill-rule="evenodd" stroke="none"/>
      <path d="M26.65 17.6 L26.7 17.8 26.55 17.95 26.2 17.95 25.95 17.8 25.9 17.6 26.1 17.4 26.35 17.35 26.65 17.6 M28.5 18.0 L28.7 18.1 28.7 18.3 28.6 18.5 28.35 18.4 28.1 18.25 28.05 18.1 28.25 18.0 28.5 18.0 M30.1 19.1 L30.0 19.1 29.85 19.1 29.75 19.0 29.7 18.85 29.8 18.8 30.0 18.85 30.1 18.95 30.1 19.1 M33.3 23.85 L33.6 24.1 33.7 24.35 33.55 24.75 33.3 24.95 33.1 24.75 Q33.0 24.55 33.05 24.35 L33.1 24.05 33.3 23.85 M19.4 18.85 Q19.6 18.9 19.65 19.05 L19.65 19.3 19.35 19.65 18.9 19.7 18.7 19.55 18.7 19.2 18.95 18.9 19.4 18.85 M18.0 20.1 Q18.35 20.15 18.5 20.4 L18.45 20.85 17.9 21.4 17.2 21.5 Q16.9 21.5 16.8 21.3 L16.8 20.7 17.4 20.2 18.0 20.1 M16.95 22.7 L16.85 23.25 16.35 23.7 15.7 23.85 15.2 23.6 Q15.15 23.35 15.25 23.05 15.4 22.75 15.8 22.6 L16.5 22.4 16.95 22.7 M16.05 25.55 Q16.25 25.85 16.05 26.1 L15.6 26.55 14.9 26.75 14.4 26.45 14.4 25.9 14.95 25.4 15.65 25.25 16.05 25.55 M33.65 26.25 L33.95 26.1 34.15 26.35 34.15 26.75 33.95 27.1 33.65 27.15 33.4 26.95 Q33.35 26.75 33.45 26.5 L33.65 26.25 M33.1 29.35 L33.25 28.95 33.5 28.7 33.75 28.7 33.95 29.0 33.85 29.35 33.5 29.65 33.25 29.6 33.1 29.35 M24.2 34.5 L24.55 34.85 Q24.75 35.2 24.55 35.55 L24.2 36.15 23.65 36.3 23.35 35.9 23.3 35.25 23.7 34.55 24.2 34.5 M29.25 33.85 L29.6 33.95 29.9 34.45 29.85 35.05 29.6 35.3 29.15 35.2 28.9 34.7 28.9 34.15 29.25 33.85 M27.45 34.55 L27.7 35.0 27.75 35.65 27.7 35.7 27.3 36.3 26.8 36.4 26.5 36.0 Q26.35 35.65 26.5 35.3 26.6 34.95 26.85 34.7 L27.45 34.55" fill="#f8e28f" fill-rule="evenodd" stroke="none"/>
      <path d="M4.4 21.05 Q3.45 20.25 3.15 19.0 2.85 17.8 3.4 16.7 L3.6 16.3 3.85 16.0 Q4.6 15.0 5.85 14.65 L6.2 14.6 Q7.5 14.45 8.6 15.15 9.85 15.95 10.2 17.35 L10.3 18.65 10.1 18.65 9.95 17.9 Q9.65 16.45 8.4 15.65 7.6 15.2 6.8 15.2 L6.9 15.6 Q6.95 17.15 5.55 18.0 L5.25 18.15 Q4.2 18.75 4.1 19.75 4.05 20.4 4.4 21.05 M7.5 5.4 L7.95 5.3 8.95 5.55 9.4 5.8 Q10.1 6.2 10.4 6.85 L10.65 7.55 10.7 7.7 10.7 8.2 10.5 9.35 10.4 9.5 10.3 9.7 Q9.7 10.65 8.55 10.9 L9.3 10.45 9.75 9.95 9.85 9.75 9.95 9.55 10.3 8.3 10.3 7.8 10.25 7.65 9.95 6.9 Q9.65 6.25 9.0 5.9 9.05 7.7 6.5 8.05 L6.4 8.0 5.8 7.8 5.5 7.8 Q5.65 7.2 5.95 6.8 L6.1 6.6 6.15 6.7 Q6.25 6.9 6.65 6.9 L7.45 6.8 8.1 6.25 Q8.4 6.0 8.3 5.8 L8.25 5.7 7.8 5.45 7.7 5.45 7.6 5.45 7.5 5.4 M22.4 19.55 L22.35 19.55 21.7 19.1 Q21.4 18.85 21.35 18.4 21.35 18.0 21.65 17.75 22.0 17.45 22.35 17.5 23.2 18.55 22.4 19.55 M21.7 17.85 L21.65 18.2 Q21.6 18.5 21.7 18.6 21.85 18.8 22.1 18.8 L22.4 18.65 22.5 18.25 22.4 17.9 22.1 17.7 Q21.95 17.7 21.7 17.85 M32.2 20.2 L32.35 20.25 32.4 20.25 32.4 20.35 32.65 20.45 32.7 20.5 33.0 20.7 33.3 21.45 32.65 20.6 32.5 20.55 32.7 21.0 32.75 21.85 32.8 21.95 32.65 22.25 32.55 22.25 32.5 22.2 31.9 21.8 31.55 21.05 31.7 20.55 31.75 20.45 Q32.0 20.2 32.2 20.2 M27.85 26.85 L27.0 25.95 Q26.3 24.95 26.3 23.85 26.25 23.15 26.65 22.65 L26.75 22.6 Q29.1 24.4 27.85 26.85 M32.0 20.45 Q31.8 20.45 31.75 20.6 L31.75 20.9 31.9 21.3 32.2 21.4 32.4 21.15 32.4 21.05 32.4 20.85 32.35 20.7 32.2 20.55 32.0 20.45 M5.65 15.15 L5.6 15.15 5.2 15.25 4.8 15.45 4.0 16.25 3.55 17.4 3.7 17.35 4.15 16.45 4.3 16.25 4.3 16.3 4.85 16.55 5.7 16.45 6.3 15.95 Q6.6 15.6 6.5 15.4 L6.5 15.35 6.25 15.2 6.0 15.15 5.95 15.15 5.85 15.1 5.85 15.15 5.75 15.15 5.65 15.15 M16.6 30.65 L16.5 31.05 Q16.45 31.4 16.55 31.6 L16.95 31.8 17.4 31.65 17.55 31.1 17.4 30.65 17.0 30.45 16.6 30.65 M17.25 33.15 L17.1 33.1 16.25 32.3 Q15.95 31.75 16.05 31.2 16.15 30.8 16.55 30.55 16.6 30.45 16.7 30.45 L17.0 30.25 17.7 30.3 17.8 30.4 18.3 30.75 18.55 31.05 Q18.8 31.65 18.7 32.2 L18.7 32.35 Q18.65 31.0 17.9 30.75 18.1 31.85 17.65 32.6 L17.25 33.15 M32.55 33.1 L32.4 32.75 Q32.4 32.6 32.2 32.6 L32.0 32.75 Q31.8 32.8 31.75 33.1 L31.9 33.4 32.2 33.5 32.45 33.4 32.55 33.1 M32.3 32.4 L32.4 32.6 32.5 32.75 32.6 33.1 Q32.75 33.65 32.4 34.15 L32.2 34.35 31.9 34.2 Q31.55 33.8 31.55 33.35 31.55 32.9 31.85 32.6 L32.3 32.4" fill="#248e8d" fill-rule="evenodd" stroke="none"/>
      <path d="M21.7 17.85 Q21.95 17.7 22.1 17.7 L22.4 17.9 22.5 18.25 22.4 18.65 22.1 18.8 Q21.85 18.8 21.7 18.6 21.6 18.5 21.65 18.2 L21.7 17.85 M32.0 20.45 L32.2 20.55 32.35 20.7 32.4 20.85 32.4 21.05 32.4 21.15 32.2 21.4 31.9 21.3 31.75 20.9 31.75 20.6 Q31.8 20.45 32.0 20.45 M16.6 30.65 L17.0 30.45 17.4 30.65 17.55 31.1 17.4 31.65 16.95 31.8 16.55 31.6 Q16.45 31.4 16.5 31.05 L16.6 30.65 M32.55 33.1 L32.45 33.4 32.2 33.5 31.9 33.4 31.75 33.1 Q31.8 32.8 32.0 32.75 L32.2 32.6 Q32.4 32.6 32.4 32.75 L32.55 33.1" fill="#50d1d1" fill-rule="evenodd" stroke="none"/>
      <path d="M10.7 9.65 L10.4 9.5 10.5 9.35 10.7 8.2 10.7 7.7 10.65 7.55 10.4 6.85 11.25 7.75 Q12.05 7.75 12.05 7.25 L12.35 7.75 12.35 7.8 12.35 7.95 12.35 8.05 12.35 8.65 12.2 9.05 11.9 9.5 Q12.35 8.65 12.05 7.85 11.95 7.85 11.9 7.95 10.85 8.45 10.7 9.65 M6.4 10.85 L6.25 10.95 6.05 11.0 Q7.05 9.6 6.15 8.7 5.7 8.95 5.4 9.35 L5.2 9.1 Q6.05 8.8 5.85 8.0 L6.05 8.15 6.2 8.2 6.55 8.55 6.8 9.0 6.85 9.15 6.85 9.35 6.85 9.85 6.65 10.5 6.5 10.7 6.4 10.85 M4.85 11.0 L4.6 10.85 Q4.3 10.4 4.9 9.75 L5.1 9.7 Q4.75 10.3 4.85 11.0" fill="#795128" fill-rule="evenodd" stroke="none"/>
      <path d="M3.9 9.95 L3.85 9.85 Q3.7 9.15 4.05 8.55 4.35 7.95 5.05 7.8 L5.35 7.75 5.5 7.8 5.8 7.8 6.4 8.0 6.5 8.05 6.85 8.35 7.05 8.85 7.1 9.1 7.15 9.2 7.15 9.7 6.9 10.35 6.8 10.55 6.65 10.65 6.4 10.85 6.5 10.7 6.65 10.5 6.85 9.85 6.85 9.35 6.85 9.15 6.8 9.0 6.55 8.55 6.2 8.2 6.05 8.15 5.85 8.0 Q6.05 8.8 5.2 9.1 L3.9 9.95 M10.4 6.85 L10.6 6.75 10.8 6.7 11.95 6.9 Q12.45 7.15 12.6 7.7 L12.65 7.85 12.65 7.95 12.6 8.5 12.4 8.95 12.2 9.35 12.15 9.35 12.1 9.4 11.9 9.5 12.2 9.05 12.35 8.65 12.35 8.05 12.35 7.95 12.35 7.8 12.35 7.75 12.05 7.25 Q12.05 7.75 11.25 7.75 L10.4 6.85 M4.6 10.85 L4.05 10.4 4.9 9.75 Q4.3 10.4 4.6 10.85 M11.5 6.8 L11.4 6.8 11.05 6.9 10.85 7.1 11.05 7.3 11.35 7.4 11.7 7.35 11.9 7.15 11.75 6.9 11.7 6.9 11.6 6.85 11.55 6.85 11.5 6.8 M5.2 8.0 L5.15 8.0 5.0 8.0 4.9 8.0 4.75 8.1 Q4.5 8.2 4.4 8.45 L4.3 8.75 4.7 8.85 5.05 8.8 5.4 8.5 5.5 8.15 Q5.4 8.0 5.2 8.0" fill="#cc9966" fill-rule="evenodd" stroke="none"/>
      <path d="M11.5 6.8 L11.3 6.9 11.25 7.0 11.3 7.15 11.5 7.15 11.7 7.15 11.75 7.0 11.75 6.9 11.9 7.15 11.7 7.35 11.35 7.4 11.05 7.3 10.85 7.1 11.05 6.9 11.4 6.8 11.5 6.8 M5.2 8.0 Q5.4 8.0 5.5 8.15 L5.4 8.5 5.05 8.8 4.7 8.85 4.3 8.75 4.4 8.45 Q4.5 8.2 4.75 8.1 L4.9 8.0 4.75 8.2 4.75 8.35 4.9 8.5 5.15 8.45 5.3 8.2 5.3 8.05 5.2 8.0" fill="#dfb497" fill-rule="evenodd" stroke="none"/>
      <path d="M11.9 9.5 L11.8 9.55 11.75 9.55 11.65 9.65 11.55 9.65 11.5 9.7 10.8 9.7 10.75 9.7 10.7 9.65 Q10.85 8.45 11.9 7.95 11.95 7.85 12.05 7.85 12.35 8.65 11.9 9.5 L11.75 9.55 11.65 9.6 10.8 9.7 11.65 9.6 11.75 9.55 11.9 9.5 M6.05 11.0 L5.85 11.05 4.85 11.0 Q4.75 10.3 5.1 9.7 L5.4 9.55 5.4 9.35 Q5.7 8.95 6.15 8.7 7.05 9.6 6.05 11.0 M11.8 9.2 L11.5 9.35 11.45 9.2 11.25 9.2 11.0 9.2 10.85 9.4 10.9 9.5 11.25 9.55 11.4 9.55 11.45 9.55 11.8 9.2 M4.95 10.7 L5.1 10.85 5.4 11.0 5.7 10.9 5.8 10.9 6.25 10.55 5.9 10.7 5.8 10.55 5.5 10.5 5.15 10.55 4.95 10.7" fill="#a66f37" fill-rule="evenodd" stroke="none"/>
      <path d="M11.8 9.2 L11.45 9.55 11.4 9.55 11.25 9.55 10.9 9.5 10.85 9.4 11.0 9.2 11.25 9.2 11.45 9.2 11.5 9.35 11.8 9.2 M4.95 10.7 L5.15 10.55 5.5 10.5 5.8 10.55 5.9 10.7 6.25 10.55 5.8 10.9 5.7 10.9 5.4 11.0 5.1 10.85 4.95 10.7" fill="#a6a6a6" fill-rule="evenodd" stroke="none"/>
      <path d="M11.75 6.9 L11.75 7.0 11.7 7.15 11.5 7.15 11.3 7.15 11.25 7.0 11.3 6.9 11.5 6.8 11.55 6.85 11.6 6.85 11.7 6.9 11.75 6.9 M7.8 5.5 L8.0 5.6 7.9 5.95 7.6 6.15 7.15 6.15 6.95 6.05 7.05 5.75 7.4 5.45 7.5 5.4 7.6 5.45 7.7 5.45 7.8 5.5 M4.9 8.0 L5.0 8.0 5.15 8.0 5.2 8.0 5.3 8.05 5.3 8.2 5.15 8.45 4.9 8.5 4.75 8.35 4.75 8.2 4.9 8.0 M6.0 15.15 L6.15 15.3 6.1 15.6 5.85 15.85 5.4 15.85 5.2 15.6 5.25 15.4 Q5.4 15.2 5.6 15.2 L5.65 15.15 5.75 15.15 5.85 15.15 5.85 15.1 5.95 15.15 6.0 15.15" fill="#ffffff" fill-rule="evenodd" stroke="none"/>
      <path d="M5.05 7.8 Q5.15 7.2 5.5 6.7 L6.5 5.75 6.9 5.5 7.25 5.4 7.4 5.4 7.5 5.4 7.4 5.45 7.05 5.75 6.95 6.05 7.15 6.15 7.6 6.15 7.9 5.95 8.0 5.6 7.8 5.5 7.8 5.45 8.25 5.7 8.3 5.8 Q8.4 6.0 8.1 6.25 L7.45 6.8 6.65 6.9 Q6.25 6.9 6.15 6.7 L6.1 6.6 5.95 6.8 Q5.65 7.2 5.5 7.8 L5.35 7.75 5.05 7.8 M6.0 15.15 L6.25 15.2 6.5 15.35 6.5 15.4 Q6.6 15.6 6.3 15.95 L5.7 16.45 4.85 16.55 4.3 16.3 4.3 16.25 4.15 16.45 3.7 17.35 3.55 17.4 4.0 16.25 4.8 15.45 5.2 15.25 5.6 15.15 5.65 15.15 5.6 15.2 Q5.4 15.2 5.25 15.4 L5.2 15.6 5.4 15.85 5.85 15.85 6.1 15.6 6.15 15.3 6.0 15.15" fill="#33c4c2" fill-rule="evenodd" stroke="none"/>
      <path d="M7.8 5.45 L7.8 5.5 7.7 5.45 7.8 5.45" fill="#f4027b" fill-rule="evenodd" stroke="none"/>
      <path d="M6.9 10.35 L7.15 9.7 7.15 9.2 Q7.75 9.5 7.8 10.0 L8.8 10.15 Q9.2 10.0 9.4 9.65 L8.65 10.4 6.9 10.35 M8.8 18.5 Q9.15 18.0 9.0 17.65 L9.35 18.6 8.8 18.5 M9.4 19.3 Q9.35 19.95 8.75 20.6 8.15 21.25 7.1 21.45 6.3 21.5 6.3 20.85 6.55 20.1 7.25 20.0 L8.65 19.25 9.4 19.3" fill="#666666" fill-rule="evenodd" stroke="none"/>
      <path d="M27.5 21.5 Q26.95 20.9 27.1 20.35 29.8 21.15 30.85 22.4 L30.9 22.45 Q32.8 24.95 32.75 27.65 32.45 29.3 31.75 30.15 30.85 31.05 30.45 30.4 L30.65 29.95 Q31.65 28.4 31.7 27.25 31.8 26.05 31.15 24.35 L30.4 23.2 30.1 22.8 28.7 21.75 27.5 21.5 M30.45 28.25 Q30.5 29.8 29.25 31.3 28.65 31.8 28.15 32.85 L27.8 33.4 Q27.9 30.65 28.25 28.45 L29.0 28.7 Q29.8 28.7 30.45 28.25 M29.9 31.15 L30.75 31.2 Q30.4 32.05 29.1 32.65 29.1 31.8 29.9 31.15" fill="#0b2825" fill-rule="evenodd" stroke="none"/>
      <path d="M23.2 26.4 L23.65 26.8 24.0 27.4 24.2 27.95 24.6 29.65 24.15 31.95 23.25 32.9 23.05 32.8 23.6 32.05 Q24.25 30.85 24.15 29.0 L23.7 27.65 23.2 26.4 M24.55 22.15 L24.9 22.5 Q23.95 23.45 24.2 22.65 L24.55 22.15 M26.3 21.5 L25.65 20.2 27.1 20.35 Q26.95 20.9 27.5 21.5 L27.15 21.5 26.75 21.5 26.3 21.5 M22.6 26.85 Q22.15 27.0 22.1 27.75 L22.0 28.35 21.7 28.8 21.6 28.0 21.75 27.5 Q22.15 26.5 22.6 26.85 M25.9 27.75 Q25.3 26.5 25.25 25.5 L25.25 25.4 25.3 25.4 26.05 26.75 26.15 26.95 27.0 28.9 25.9 27.75 M27.8 33.4 L26.65 33.85 24.35 33.45 Q25.6 32.4 26.3 31.2 27.15 31.3 27.45 30.1 L27.15 29.3 27.55 28.15 28.2 28.45 28.25 28.45 Q27.9 30.65 27.8 33.4" fill="#000000" fill-rule="evenodd" stroke="none"/>
      <path d="M29.05 27.35 L28.7 27.3 28.6 27.25 27.95 26.9 27.85 26.85 Q29.1 24.4 26.75 22.6 L28.25 22.5 28.25 22.55 28.35 22.55 Q27.85 22.7 28.55 24.25 L29.0 26.0 29.05 27.35" fill="#103d3d" fill-rule="evenodd" stroke="none"/>
      <path d="M30.4 27.15 L30.35 27.15 29.35 27.4 29.05 27.35 29.0 26.0 28.55 24.25 Q27.85 22.7 28.35 22.55 29.35 22.9 29.95 23.8 L30.0 23.9 Q30.7 24.95 30.7 25.95 L30.4 27.15 M30.25 26.95 L30.5 25.95 Q30.4 24.65 29.7 24.0 30.05 25.65 29.35 27.1 L30.25 26.95" fill="#1b6565" fill-rule="evenodd" stroke="none"/>
      <path d="M26.65 22.65 Q26.25 23.15 26.3 23.85 26.3 24.95 27.0 25.95 L27.85 26.85 27.95 26.9 28.6 27.25 28.7 27.3 29.05 27.35 29.35 27.4 30.35 27.15 30.4 27.15 30.4 27.2 30.0 27.45 28.95 27.8 28.65 27.7 28.5 27.65 28.4 27.65 27.7 27.25 27.65 27.15 26.75 26.25 Q26.0 25.2 25.95 24.2 25.95 23.15 26.65 22.65" fill="#2eafae" fill-rule="evenodd" stroke="none"/>
      <path d="M30.25 26.95 L29.35 27.1 Q30.05 25.65 29.7 24.0 30.4 24.65 30.5 25.95 L30.25 26.95" fill="#7e5801" fill-rule="evenodd" stroke="none"/>
      <path d="M23.7 21.65 L23.65 21.6 Q22.7 21.45 21.85 22.2 21.05 22.95 20.8 24.3 20.55 25.55 21.05 26.6 L21.2 26.95 21.1 27.1 Q20.7 28.55 21.2 29.8 L21.3 29.9 Q21.55 30.65 22.05 30.65 L22.6 30.5 Q23.25 29.9 22.95 28.45 22.45 27.75 22.0 28.35 L22.1 27.75 Q22.15 27.0 22.6 26.85 L22.75 26.95 23.15 27.85 Q23.5 28.95 23.45 30.1 23.25 31.75 22.15 31.7 20.9 31.55 20.0 29.3 19.05 26.45 20.4 23.8 20.85 22.6 21.85 21.7 L22.0 21.6 23.25 20.8 25.65 20.2 26.3 21.5 Q25.35 21.75 24.9 22.5 L24.55 22.15 Q24.8 21.6 24.45 21.35 24.0 21.25 23.7 21.65 M24.0 27.4 L24.25 27.25 24.8 26.55 24.9 26.95 Q25.2 28.2 24.95 29.45 25.3 29.7 25.45 29.25 25.75 28.65 25.45 27.9 26.75 28.9 26.2 30.85 L26.15 31.15 26.3 31.2 Q25.6 32.4 24.35 33.45 L23.25 32.9 24.15 31.95 24.6 29.65 24.2 27.95 24.0 27.4 M26.15 26.95 Q26.75 27.7 27.55 28.15 L27.15 29.3 27.1 29.0 27.0 28.9 26.15 26.95" fill="#134a49" fill-rule="evenodd" stroke="none"/>
      <path d="M21.2 26.95 L21.05 26.6 Q20.55 25.55 20.8 24.3 21.05 22.95 21.85 22.2 22.7 21.45 23.65 21.6 L23.7 21.65 23.55 22.15 23.5 22.4 22.9 22.05 Q22.4 22.0 22.0 22.6 21.6 23.05 21.55 23.75 21.55 24.55 21.95 25.05 L22.6 25.65 22.75 25.65 Q23.25 25.65 23.6 25.1 24.0 24.6 24.0 23.9 L24.05 23.75 24.75 23.4 Q24.35 25.2 24.8 26.55 L24.25 27.25 24.0 27.4 23.65 26.8 23.2 26.4 23.0 26.25 22.85 26.1 22.65 26.05 Q21.7 25.65 21.2 26.95" fill="#1d6b63" fill-rule="evenodd" stroke="none"/>
      <path d="M24.05 23.75 L24.0 23.9 Q24.0 24.6 23.6 25.1 23.25 25.65 22.75 25.65 L22.6 25.65 21.95 25.05 Q21.55 24.55 21.55 23.75 21.6 23.05 22.0 22.6 22.4 22.0 22.9 22.05 L23.5 22.4 23.6 23.3 Q23.7 23.75 24.05 23.75" fill="#2ea79a" fill-rule="evenodd" stroke="none"/>
      <path d="M25.25 25.4 L25.25 25.3 25.3 25.4 25.25 25.4" fill="#4b0126" fill-rule="evenodd" stroke="none"/>
      <path d="M25.8 39.15 L25.75 39.15 M25.6 39.15 L25.2 39.15 M36.0 8.8 L36.05 8.8 36.1 8.8 M42.05 9.0 Q42.5 9.0 42.65 9.7 M38.95 11.3 L39.0 11.65 M38.25 11.45 L38.25 11.1 38.25 10.6 38.6 10.4 38.75 10.35 38.8 10.15 38.95 10.0 38.95 9.95 39.05 9.8 39.15 9.15 39.15 9.05 M21.05 15.0 L21.1 15.1 21.25 15.25 21.45 15.6 M36.1 9.55 L36.15 9.6 36.3 9.65 36.85 9.75 37.1 9.75 Q37.8 9.7 37.5 9.1 L37.25 9.05 37.2 9.05 37.0 9.0 36.1 8.8 M36.1 9.6 L36.1 9.55 M38.25 11.45 L38.25 11.75 M39.55 9.75 L39.2 9.35 39.15 9.15 M38.95 11.3 L38.95 11.0 M39.45 10.9 L40.05 10.75 M39.7 11.5 L40.4 11.3 M26.55 11.65 L27.5 11.05 M25.3 11.5 L26.1 11.0 M27.8 18.6 L27.45 17.95 27.15 17.65 M18.9 16.5 L19.25 16.3 19.55 16.25 19.65 16.25 M22.5 16.35 L22.55 16.25 M20.0 16.35 L20.25 16.65 20.6 16.95 M20.75 17.2 L20.6 16.95 M19.75 16.95 L19.4 17.1 M20.25 17.6 L20.65 17.4 20.85 17.3 20.75 17.2 M20.85 17.3 L21.15 17.2 22.0 16.85 M22.35 17.5 L22.6 17.6 Q22.9 17.65 23.05 17.9 L23.2 17.95 23.35 18.65 Q23.45 19.0 23.15 19.3 L23.05 19.4 22.55 19.55 M21.45 20.45 L21.55 20.75 21.85 21.25 22.2 20.9 22.6 20.65 23.1 20.4 24.6 20.1 24.75 19.85 24.6 19.4 Q24.35 18.3 23.7 17.15 M22.4 19.55 L22.35 19.55 21.7 19.1 Q21.4 18.85 21.35 18.4 21.35 18.0 21.65 17.75 22.0 17.45 22.35 17.5 M22.4 19.55 L22.55 19.55 M24.75 19.85 L25.15 19.85 25.35 19.85 Q26.05 19.8 26.3 19.55 L25.95 19.0 25.8 18.7 Q25.65 18.0 25.0 17.4 M21.2 26.95 Q21.7 25.65 22.65 26.05 L22.85 26.1 23.0 26.25 23.2 26.4 23.7 27.65 24.15 29.0 Q24.25 30.85 23.6 32.05 L23.05 32.8 M24.8 26.55 Q24.35 25.2 24.75 23.4 L24.05 23.75 M23.5 22.4 L23.55 22.15 23.7 21.65 Q24.0 21.25 24.45 21.35 24.8 21.6 24.55 22.15 M24.9 22.5 Q25.35 21.75 26.3 21.5 L26.75 21.5 27.15 21.5 27.5 21.5 28.7 21.75 30.1 22.8 30.4 23.2 31.15 24.35 Q31.8 26.05 31.7 27.25 31.65 28.4 30.65 29.95 L30.45 30.4 Q30.85 31.05 31.75 30.15 32.45 29.3 32.75 27.65 32.8 24.95 30.9 22.45 L30.85 22.4 Q29.8 21.15 27.1 20.35 L25.65 20.2 23.25 20.8 22.0 21.6 21.85 21.7 Q20.85 22.6 20.4 23.8 19.05 26.45 20.0 29.3 20.9 31.55 22.15 31.7 23.25 31.75 23.45 30.1 23.5 28.95 23.15 27.85 L22.75 26.95 22.6 26.85 M22.0 28.35 Q22.45 27.75 22.95 28.45 23.25 29.9 22.6 30.5 L22.05 30.65 Q21.55 30.65 21.3 29.9 L21.2 29.8 Q20.7 28.55 21.1 27.1 L21.2 26.95 M20.4 19.1 Q19.85 18.75 19.1 18.65 L18.7 18.85 M20.85 21.15 L20.9 20.9 20.0 20.5 19.5 20.2 19.2 20.1 M20.55 21.8 L20.7 21.5 20.85 21.15 Q21.15 21.45 21.5 21.35 L21.7 21.3 21.85 21.25 M20.9 20.9 L20.95 20.9 21.55 20.75 M20.4 19.1 Q21.15 19.6 21.45 20.45 M24.35 33.45 L23.25 32.9 23.05 32.8 M20.45 21.95 L20.55 21.8 M24.9 22.5 Q23.95 23.45 24.2 22.65 L24.55 22.15 M25.1 24.25 L25.1 24.15 25.15 23.45 25.15 23.35 25.2 23.3 25.2 23.25 25.2 23.15 26.0 22.2 26.15 22.15 26.5 21.9 27.65 21.85 28.2 21.95 28.7 22.2 29.5 22.7 29.95 23.15 30.25 23.45 30.45 23.7 Q31.35 25.0 31.35 26.3 31.35 27.7 30.45 28.25 30.5 29.8 29.25 31.3 28.65 31.8 28.15 32.85 L27.8 33.4 26.65 33.85 24.35 33.45 M23.6 23.3 L23.5 22.4 M25.9 27.75 Q25.3 26.5 25.25 25.5 L25.25 25.4 25.25 25.3 25.2 25.0 25.1 24.25 M23.6 23.3 Q23.7 23.75 24.05 23.75 M29.75 20.7 L29.9 20.8 Q30.05 20.05 30.55 19.55 L30.95 19.1 M29.4 20.35 L29.4 20.0 29.4 19.7 29.1 18.5 29.1 18.4 M28.25 20.15 L28.4 20.2 29.4 20.35 29.55 20.6 29.75 20.7 M29.9 20.8 L29.85 21.0 30.05 21.15 30.2 21.3 31.2 22.2 32.0 23.2 32.25 23.65 32.55 24.35 32.75 24.4 32.95 23.9 33.1 23.7 Q33.35 23.45 33.55 23.35 L33.7 23.25 34.45 23.05 34.75 23.45 M32.2 20.2 L32.35 20.25 32.4 20.25 32.4 20.35 32.65 20.45 32.7 20.5 33.0 20.7 33.3 21.45 33.3 21.5 33.15 22.05 33.1 22.05 32.95 22.2 32.8 22.2 32.65 22.25 32.55 22.25 32.5 22.2 31.9 21.8 31.55 21.05 31.7 20.55 31.75 20.45 Q32.0 20.2 32.2 20.2 M28.05 19.8 L28.25 20.15 M27.8 18.6 L27.85 18.9 27.85 19.25 28.05 19.8 26.8 19.85 26.6 19.75 26.3 19.55 M26.65 22.65 Q25.95 23.15 25.95 24.2 26.0 25.2 26.75 26.25 L27.65 27.15 27.7 27.25 28.4 27.65 28.5 27.65 28.65 27.7 28.95 27.8 30.0 27.45 30.4 27.2 30.4 27.15 M26.75 22.6 L26.65 22.65 M26.75 22.6 L28.25 22.5 M26.3 31.2 L26.15 31.15 26.2 30.85 Q26.75 28.9 25.45 27.9 25.75 28.65 25.45 29.25 25.3 29.7 24.95 29.45 25.2 28.2 24.9 26.95 L24.8 26.55 M28.35 22.55 L28.25 22.55 28.25 22.5 M28.35 22.55 Q29.35 22.9 29.95 23.8 L30.0 23.9 Q30.7 24.95 30.7 25.95 L30.4 27.15 M11.55 9.65 L11.5 9.7 M12.65 7.95 L12.6 8.5 M10.4 6.85 L10.65 7.55 10.7 7.7 10.7 8.2 10.5 9.35 10.4 9.5 M5.5 7.8 L5.35 7.75 5.05 7.8 M6.5 8.05 L6.4 8.0 5.8 7.8 5.5 7.8 M5.4 9.35 L5.4 9.55 5.1 9.7 4.9 9.75 4.05 10.4 M5.2 9.1 L5.4 9.35 M6.9 10.35 L7.15 9.7 7.15 9.2 7.1 9.1 7.05 8.85 6.85 8.35 6.5 8.05 M6.9 10.35 L6.8 10.55 6.65 10.65 M3.9 9.95 L5.2 9.1 M10.1 18.65 L10.3 18.65 M8.65 19.25 L7.05 18.9 6.6 18.7 Q6.2 18.15 6.8 17.9 L7.15 18.05 8.8 18.5 9.35 18.6 9.75 18.65 10.1 18.65 M3.4 16.7 L3.6 16.3 3.85 16.0 M9.4 19.3 L8.65 19.25 M19.75 16.95 L19.8 16.9 20.25 16.65 M20.0 16.35 L19.65 16.25 M9.65 19.4 L10.15 19.45 M9.4 19.3 L9.65 19.4 M20.45 21.95 Q20.0 22.45 19.55 22.45 L19.5 22.5 19.5 23.05 19.1 23.8 19.05 24.0 18.55 24.5 Q18.8 25.5 18.3 26.25 L18.05 26.5 18.3 26.85 18.5 27.65 18.7 28.7 18.8 29.15 19.35 29.45 Q19.95 31.95 22.2 33.1 L22.15 33.7 22.4 34.45 22.65 34.3 23.25 34.15 23.7 34.15 24.15 34.15 24.5 34.25 25.3 34.6 Q25.6 34.75 25.7 35.05 26.05 34.55 26.75 34.35 L27.75 34.3 28.25 34.55 28.8 33.75 28.85 33.7 29.15 33.5 Q29.15 32.95 29.45 32.75 L29.85 32.45 30.35 32.4 31.25 31.7 31.2 31.05 31.55 30.65 32.05 30.85 32.25 30.9 32.55 31.05 Q32.35 30.5 32.55 29.9 L32.6 29.7 32.6 29.65 32.75 29.5 32.75 29.45 32.75 29.35 33.3 28.7 33.1 28.05 33.1 27.15 33.35 26.45 32.95 25.55 32.9 25.4 32.8 25.0 32.75 24.4 M18.0 19.85 L19.2 20.1 M16.7 24.75 L17.15 24.75 18.55 24.5 M16.35 24.75 L16.7 24.75 M19.5 22.5 L18.5 22.35 17.8 22.2 17.55 22.2 15.95 22.3 M18.05 26.5 L16.9 27.15 16.75 27.15 Q16.1 27.35 15.65 27.65 14.7 28.05 14.15 28.85 M17.25 33.15 L17.1 33.1 16.25 32.3 Q15.95 31.75 16.05 31.2 16.15 30.8 16.55 30.55 16.6 30.45 16.7 30.45 L17.0 30.25 17.7 30.3 17.8 30.4 M17.45 28.7 L17.1 28.45 Q16.25 28.35 15.6 28.75 15.3 28.8 15.1 28.95 L13.95 30.4 13.9 30.4 M18.8 29.15 L18.7 28.75 18.7 28.7 M18.7 32.35 L18.7 32.2 Q18.8 31.65 18.55 31.05 L18.3 30.75 17.8 30.4 M17.45 28.7 L18.8 29.15 M14.35 25.55 L14.5 25.45 M18.1 32.95 L18.05 33.1 17.75 33.2 17.25 33.15 M18.7 32.35 L18.1 32.95 M19.6 35.55 Q19.55 36.4 19.75 37.25 L20.25 38.25 M19.5 37.85 L18.9 37.45 19.6 35.55 Q20.15 34.35 21.1 33.65 L21.75 33.25 22.15 33.7 M33.35 26.45 L33.6 26.1 34.15 25.5 34.5 25.2 34.65 25.0 34.85 24.55 M34.15 27.95 L34.4 27.85 34.9 27.45 35.25 26.8 M32.6 29.7 L32.75 29.5 M32.55 31.05 L33.0 31.35 33.3 31.55 M33.7 30.7 L33.1 30.8 Q32.8 30.85 32.55 31.05 M32.45 32.35 L32.6 32.4 33.2 32.6 Q33.3 32.6 33.45 32.75 L33.7 33.55 Q33.85 34.1 33.5 34.35 L33.2 34.5 32.65 34.55 32.35 34.55 M32.25 36.2 L32.4 36.6 M34.35 30.55 L34.75 30.45 35.15 30.2 M34.0 32.05 L34.65 32.85 34.75 32.85 M33.7 30.7 L34.35 30.55 M34.0 32.05 L33.3 31.55 M33.3 28.7 L33.55 28.4 34.15 27.95 M32.3 32.4 L31.85 32.6 Q31.55 32.9 31.55 33.35 31.55 33.8 31.9 34.2 L32.2 34.35 32.35 34.55 M32.3 32.4 L32.45 32.35 M32.15 35.85 L32.25 36.2 M31.85 36.45 L31.6 36.65 M29.6 33.35 L29.15 33.5 M31.6 36.8 L31.85 36.45 32.15 35.85 M30.45 33.55 L29.85 33.2 29.6 33.35 M31.85 35.3 L32.15 35.85 M30.45 33.55 L30.8 33.9 Q31.4 34.45 31.85 35.3 M26.15 26.95 L26.05 26.75 25.3 25.4 25.25 25.3 M27.55 28.15 L28.2 28.45 28.25 28.45 29.0 28.7 Q29.8 28.7 30.45 28.25 M27.55 28.15 Q26.75 27.7 26.15 26.95 M27.0 28.9 L27.1 29.0 27.15 29.3 27.45 30.1 Q27.15 31.3 26.3 31.2 M25.9 27.75 L27.0 28.9 M21.7 28.8 L21.6 28.0 21.75 27.5 Q22.15 26.5 22.6 26.85 M22.0 28.35 L21.7 28.8 Q21.7 29.2 22.0 29.55 M23.45 38.6 Q22.65 37.4 22.55 35.65 L22.4 34.45 M27.65 38.25 Q26.55 37.45 26.05 35.9 L25.7 35.05 M30.55 36.85 Q30.2 36.7 29.8 36.4 L28.7 35.2 28.25 34.55 M29.9 31.15 L30.75 31.2 Q30.4 32.05 29.1 32.65 29.1 31.8 29.9 31.15 M16.35 24.75 Q15.2 25.0 14.5 25.45" fill="none" stroke="#000000" stroke-linecap="round" stroke-linejoin="round" stroke-opacity="0.3019608" stroke-width="0.05"/>
      <path d="M40.05 8.85 Q40.7 8.7 41.2 8.35 L41.3 8.35 41.45 8.3 41.65 8.3 42.85 8.5 43.0 8.6 43.05 8.65 43.1 9.35 43.05 9.4 Q42.8 10.25 41.75 10.85 L40.45 11.3 40.4 11.3 40.6 11.8 Q42.2 15.35 42.55 19.75 L42.2 19.85 Q41.7 20.05 41.4 19.6 41.3 15.65 40.0 12.4 L39.7 11.5 39.0 11.65 Q39.2 15.2 38.25 17.9 37.35 18.2 37.0 17.35 37.7 15.35 38.05 13.35 L38.25 11.85 38.25 11.75 38.05 11.8 Q33.55 12.25 28.9 11.85 L27.75 11.7 26.55 11.65 Q24.55 12.8 22.75 14.3 L21.45 15.6 22.0 16.85 22.15 16.75 22.55 16.25 23.25 16.7 23.7 17.15 23.8 17.15 24.05 17.15 25.0 17.4 25.35 17.25 26.0 17.15 26.35 17.25 26.4 17.25 26.7 17.35 26.95 17.5 27.15 17.6 27.15 17.65 27.65 17.6 28.1 17.65 28.5 17.8 28.85 18.0 28.95 18.15 29.1 18.4 29.5 18.4 29.55 18.4 30.1 18.65 30.25 18.7 30.65 18.9 30.95 19.1 31.6 18.75 32.2 18.85 32.65 20.0 Q33.4 21.4 34.65 22.05 L34.85 22.15 Q35.25 22.9 34.75 23.45 L34.95 24.05 34.85 24.55 35.35 25.2 35.45 25.55 35.35 26.6 35.25 26.8 Q35.65 27.5 35.7 28.3 L35.75 28.75 35.7 29.2 35.5 29.7 35.15 30.2 Q35.4 31.05 35.05 32.05 L34.75 32.85 34.95 33.25 34.95 33.3 35.0 33.3 35.25 33.8 Q35.4 34.35 34.9 34.75 33.85 35.3 33.15 36.8 L32.8 37.2 32.45 37.3 Q32.0 37.2 31.6 36.8 L30.8 36.9 30.7 36.9 30.6 36.85 30.55 36.85 Q30.35 37.6 29.5 38.1 L29.45 38.15 29.4 38.15 27.65 38.25 26.4 39.0 26.2 39.1 25.75 39.15 25.6 39.15 M25.2 39.15 L25.05 39.15 24.3 39.1 Q23.8 38.95 23.45 38.6 L21.7 38.8 20.25 38.25 19.5 37.85 18.5 38.1 Q18.0 38.1 17.4 37.5 L16.9 35.9 16.5 35.1 15.2 33.4 13.85 32.45 13.1 32.2 Q13.2 31.05 13.9 30.4 L13.9 29.7 13.9 29.6 14.1 28.9 14.15 28.85 13.8 27.2 13.8 26.45 Q13.95 25.95 14.35 25.55 L14.35 24.35 14.4 24.15 14.7 23.45 14.85 23.05 Q15.25 22.5 15.95 22.3 15.9 21.65 16.25 21.05 L16.6 20.55 Q17.25 19.85 17.85 19.8 L18.0 19.85 18.7 18.85 19.05 17.8 20.25 17.6 19.4 17.1 18.85 17.35 Q15.25 19.1 11.9 19.45 L10.4 19.45 10.15 19.45 9.75 20.1 Q9.05 21.15 8.0 21.6 L7.5 21.7 6.05 21.75 4.9 21.4 4.75 21.3 4.4 21.05 Q3.45 20.25 3.15 19.0 2.85 17.8 3.4 16.7 L3.2 16.45 Q1.0 13.45 2.15 11.45 L3.9 9.95 3.85 9.85 Q3.7 9.15 4.05 8.55 4.35 7.95 5.05 7.8 5.15 7.2 5.5 6.7 L6.5 5.75 6.9 5.5 7.25 5.4 7.4 5.4 7.5 5.4 7.95 5.3 8.95 5.55 9.4 5.8 Q10.1 6.2 10.4 6.85 L10.6 6.75 10.8 6.7 11.95 6.9 Q12.45 7.15 12.6 7.7 L12.65 7.85 12.65 7.95 14.0 8.25 15.3 8.7 16.55 9.1 Q20.85 11.0 26.1 11.0 28.85 9.4 31.75 8.5 L36.0 8.8 M36.1 8.8 L36.3 8.45 36.4 8.2 36.9 7.9 M36.95 7.9 L37.25 7.75 38.2 7.8 38.45 7.9 38.55 8.0 39.1 8.85 39.15 9.05 39.3 9.05 40.05 8.85 M40.25 9.55 L40.6 9.4 Q41.55 8.9 42.05 9.0 M40.05 10.75 Q41.85 10.35 41.95 9.75 42.25 9.35 42.05 9.0 M38.2 11.05 L30.85 11.3 29.45 11.3 M35.1 9.35 L31.6 9.2 Q29.45 9.95 27.5 11.05 L28.15 11.05 29.45 11.3 M21.5 14.5 L21.35 14.6 21.05 15.0 M35.1 9.35 L36.05 9.55 36.05 9.6 36.1 9.55 M38.25 10.6 L37.95 10.7 37.9 10.7 36.95 10.6 36.8 10.55 Q36.3 10.25 36.15 9.75 L36.1 9.6 M38.95 11.0 L39.45 10.9 38.95 9.95 M38.95 11.0 L38.95 10.6 38.8 10.15 M40.05 10.75 L39.55 9.75 40.25 9.55 M20.45 14.75 L20.0 14.95 19.1 15.65 Q18.8 16.1 18.9 16.5 M20.45 14.75 L20.5 14.75 20.9 14.85 21.05 15.0 M21.5 14.5 L25.3 11.5 Q20.25 11.5 16.05 9.65 L15.75 9.55 14.0 8.9 12.6 8.5 12.4 8.95 12.2 9.35 12.15 9.35 12.1 9.4 11.9 9.5 11.75 9.55 11.65 9.6 10.8 9.7 10.75 9.7 10.7 9.65 10.4 9.5 10.3 9.7 Q9.7 10.65 8.55 10.9 L8.35 10.95 6.65 10.65 6.4 10.85 6.25 10.95 6.05 11.0 5.85 11.05 4.85 11.0 4.6 10.85 4.05 10.4 Q2.95 11.3 2.45 12.5 2.35 14.5 3.7 15.85 L3.85 16.0 Q4.6 15.0 5.85 14.65 L6.2 14.6 Q7.5 14.45 8.6 15.15 9.85 15.95 10.2 17.35 L10.3 18.65 11.1 18.6 11.95 18.55 13.75 18.25 Q16.7 17.8 18.9 16.5" fill="none" stroke="#000000" stroke-linecap="round" stroke-linejoin="round" stroke-opacity="0.4" stroke-width="0.5"/>
      <path d="M29.4 38.1 L29.5 38.1" fill="none" stroke="#00ff00" stroke-linecap="round" stroke-linejoin="round" stroke-width="0.05"/>
      <path d="M14.6 23.2 Q14.4 21.15 16.3 19.55 18.15 17.85 21.0 17.7 23.7 17.45 25.8 18.7 27.8 20.0 27.9 22.1 28.0 24.15 26.15 25.75 24.25 27.3 21.5 27.55 18.75 27.8 16.65 26.6 14.7 25.3 14.6 23.2" fill="url(#gradient0)" fill-rule="evenodd" stroke="none"/>
    </g>
    <radialGradient cx="0" cy="0" gradientTransform="matrix(0.0105, -9.0E-4, 4.0E-4, 0.0078, 21.2, 22.65)" gradientUnits="userSpaceOnUse" id="gradient0" r="819.2" spreadMethod="pad">
      <stop offset="0.0" stop-color="#ffffde" stop-opacity="0.52156866"/>
      <stop offset="0.4117647058823529" stop-color="#ffffcc" stop-opacity="0.0"/>
    </radialGradient>
    <g id="sprite0" transform="matrix(1.0, 0.0, 0.0, 1.0, 0.0, 0.0)">
      <use height="15.35" transform="matrix(1.0, 0.0, 0.0, 1.0, 0.0, 0.0)" width="19.7" xlink:href="#shape1"/>
    </g>
    <g id="shape1" transform="matrix(1.0, 0.0, 0.0, 1.0, 0.0, 0.0)">
      <path d="M13.55 8.2 L0.0 4.55 12.95 9.7 10.55 15.35 13.7 10.25 17.9 10.6 14.75 8.8 18.7 0.0 13.55 8.2" fill="#fcf3d8" fill-opacity="0.39607844" fill-rule="evenodd" stroke="none"/>
      <path d="M10.25 9.3 Q9.6 10.5 7.0 11.1 9.3 10.7 10.6 11.6 11.05 12.5 11.9 13.05 13.15 13.85 14.6 13.45 16.25 13.05 17.05 11.7 L19.7 12.8 17.45 10.65 Q17.8 9.75 17.65 8.6 17.45 7.5 16.9 6.85 L17.4 5.35 16.0 6.2 15.95 6.05 Q14.65 5.35 13.2 5.65 11.75 6.15 10.85 7.5 10.35 8.35 10.25 9.3 M15.95 8.85 Q16.1 9.7 15.65 10.3 15.2 11.1 14.45 11.25 13.7 11.45 13.1 11.05 12.35 10.6 12.25 9.85 12.15 9.05 12.6 8.3 13.0 7.55 13.8 7.3 14.45 7.2 15.15 7.6 15.8 8.1 15.95 8.85" fill="#fcf3d8" fill-opacity="0.14901961" fill-rule="evenodd" stroke="none"/>
      <path d="M15.95 8.85 Q15.8 8.1 15.15 7.6 14.45 7.2 13.8 7.3 13.0 7.55 12.6 8.3 12.15 9.05 12.25 9.85 12.35 10.6 13.1 11.05 13.7 11.45 14.45 11.25 15.2 11.1 15.65 10.3 16.1 9.7 15.95 8.85" fill="#fcf3d8" fill-opacity="0.41960785" fill-rule="evenodd" stroke="none"/>
    </g>
  </defs>
</svg>
