<?xml version="1.0" encoding="UTF-8" standalone="no"?>
<svg xmlns:xlink="http://www.w3.org/1999/xlink" height="440.0px" width="440.0px" xmlns="http://www.w3.org/2000/svg">
  <g transform="matrix(10.0, 0.0, 0.0, 10.0, 0.0, 0.0)">
    <use height="44.0" transform="matrix(1.0, 0.0, 0.0, 1.0, 0.0, 0.0)" width="44.0" xlink:href="#shape0"/>
  </g>
  <defs>
    <g id="shape0" transform="matrix(1.0, 0.0, 0.0, 1.0, 0.0, 0.0)">
      <path d="M44.0 44.0 L0.0 44.0 0.0 0.0 44.0 0.0 44.0 44.0" fill="#43adca" fill-opacity="0.0" fill-rule="evenodd" stroke="none"/>
      <path d="M30.95 4.75 L30.15 3.1 Q32.3 3.9 34.25 5.75 38.0 9.3 36.7 17.7 35.35 26.15 38.55 28.4 L36.7 28.6 Q34.85 25.75 35.45 20.75 35.95 15.7 36.45 13.5 36.9 11.2 36.15 9.95 L34.0 7.4 32.0 5.45 30.95 4.75 M25.45 7.45 L24.4 8.45 23.9 7.8 Q23.0 6.95 21.0 7.4 17.35 8.3 14.0 10.95 11.35 13.1 9.85 15.35 L8.45 14.85 Q10.05 12.8 12.45 10.65 17.2 6.45 21.5 5.95 23.95 5.65 25.15 6.95 L25.45 7.45" fill="#1a1003" fill-rule="evenodd" stroke="none"/>
      <path d="M30.95 4.75 Q30.2 4.3 28.65 3.95 25.55 3.3 21.75 4.0 14.25 5.25 10.8 7.9 6.6 11.15 6.8 12.95 6.9 13.45 7.35 14.15 7.9 14.9 8.45 14.85 L9.85 15.35 12.95 15.45 Q17.15 14.95 21.05 12.65 24.65 10.3 24.5 8.85 L24.4 8.45 25.45 7.45 25.8 8.65 Q26.05 10.9 22.3 13.55 18.35 16.35 13.25 16.95 11.6 17.15 10.3 16.95 L9.05 16.8 7.8 16.3 9.05 16.8 Q8.5 16.85 8.15 20.2 7.8 23.6 8.5 25.1 L6.65 25.35 Q5.95 23.35 6.15 21.15 6.35 18.2 7.8 16.3 6.85 15.75 6.2 14.7 5.6 13.9 5.5 13.05 5.2 10.4 9.55 7.5 14.35 4.2 18.9 3.25 26.2 1.55 30.15 3.1 L30.95 4.75" fill="#422909" fill-rule="evenodd" stroke="none"/>
      <path d="M8.45 14.85 Q7.9 14.9 7.35 14.15 6.9 13.45 6.8 12.95 6.6 11.15 10.8 7.9 14.25 5.25 21.75 4.0 25.55 3.3 28.65 3.95 30.2 4.3 30.95 4.75 L32.0 5.45 34.0 7.4 36.15 9.95 Q36.9 11.2 36.45 13.5 35.95 15.7 35.45 20.75 34.85 25.75 36.7 28.6 L38.55 28.4 Q35.35 26.15 36.7 17.7 38.0 9.3 34.25 5.75 32.3 3.9 30.15 3.1 26.2 1.55 18.9 3.25 14.35 4.2 9.55 7.5 5.2 10.4 5.5 13.05 5.6 13.9 6.2 14.7 6.85 15.75 7.8 16.3 L9.05 16.8 10.3 16.95 Q11.6 17.15 13.25 16.95 18.35 16.35 22.3 13.55 26.05 10.9 25.8 8.65 L25.45 7.45 M24.4 8.45 L24.5 8.85 Q24.65 10.3 21.05 12.65 17.15 14.95 12.95 15.45 L9.85 15.35 8.45 14.85 Q10.05 12.8 12.45 10.65 17.2 6.45 21.5 5.95 23.95 5.65 25.15 6.95 L25.45 7.45 M24.4 8.45 L23.9 7.8 Q23.0 6.95 21.0 7.4 17.35 8.3 14.0 10.95 11.35 13.1 9.85 15.35 M6.65 25.35 Q5.95 23.35 6.15 21.15 6.35 18.2 7.8 16.3 M9.05 16.8 Q8.5 16.85 8.15 20.2 7.8 23.6 8.5 25.1" fill="none" stroke="#000000" stroke-linecap="round" stroke-linejoin="round" stroke-opacity="0.3019608" stroke-width="0.5"/>
      <path d="M39.55 27.9 L39.55 27.8 38.95 26.3 Q38.3 25.6 37.45 25.4 L36.6 25.4 36.4 25.5 36.25 25.55 36.1 25.7 36.05 25.75 35.85 26.15 37.1 26.6 37.4 26.7 Q38.3 26.9 38.35 27.55 L38.55 28.3 Q38.75 28.7 39.05 28.7 L39.2 28.6 39.5 27.9 39.55 27.9 M38.95 27.6 L38.65 27.1 Q38.5 26.55 37.85 26.25 L36.55 25.9 Q36.45 25.15 37.75 25.65 39.05 26.15 39.15 27.3 L39.1 27.4 38.95 27.6 M39.15 28.25 Q39.0 28.3 38.95 28.15 L38.9 28.05 38.9 27.85 39.1 27.75 39.4 28.0 39.15 28.25" fill="#5e5e5e" fill-rule="evenodd" stroke="none"/>
      <path d="M36.05 25.75 L35.85 26.0 35.8 26.1 35.65 26.4 35.65 26.5 35.6 26.9 Q35.8 27.5 36.2 27.6 L36.45 27.55 36.65 27.2 37.05 27.1 37.1 27.15 37.65 27.55 37.95 28.2 37.85 28.6 37.8 28.7 37.75 28.75 38.15 29.25 38.9 29.5 39.2 29.2 39.55 28.45 39.55 28.2 39.55 28.15 39.6 27.95 39.55 27.9 39.5 27.9 39.2 28.6 39.05 28.7 Q38.75 28.7 38.55 28.3 L38.35 27.55 Q38.3 26.9 37.4 26.7 L37.1 26.6 35.85 26.15 36.05 25.75" fill="#4f4f4f" fill-rule="evenodd" stroke="none"/>
      <path d="M37.05 27.1 L36.65 27.2 36.45 27.55 36.45 27.65 36.8 28.35 37.3 28.75 37.75 28.75 37.8 28.7 37.85 28.6 37.95 28.2 37.9 28.2 37.4 27.75 37.05 27.15 37.05 27.1" fill="#1c1c1c" fill-rule="evenodd" stroke="none"/>
      <path d="M35.6 26.9 L35.6 27.05 35.65 27.3 Q35.75 28.05 36.3 28.75 36.8 29.4 37.45 29.65 L38.4 29.7 38.9 29.5 38.15 29.25 37.75 28.75 37.3 28.75 36.8 28.35 36.45 27.65 36.45 27.55 36.2 27.6 Q35.8 27.5 35.6 26.9" fill="#363636" fill-rule="evenodd" stroke="none"/>
      <path d="M39.15 28.25 L39.4 28.0 39.1 27.75 38.9 27.85 38.9 28.05 38.95 28.15 Q39.0 28.3 39.15 28.25 M38.95 27.6 L39.1 27.4 39.15 27.3 Q39.05 26.15 37.75 25.65 36.45 25.15 36.55 25.9 L37.85 26.25 Q38.5 26.55 38.65 27.1 L38.95 27.6" fill="#aeaeae" fill-rule="evenodd" stroke="none"/>
      <path d="M39.55 27.9 L39.55 27.8 38.95 26.3 Q38.3 25.6 37.45 25.4 L36.6 25.4 36.4 25.5 36.25 25.55 36.1 25.7 36.05 25.75 35.85 26.0 35.8 26.1 35.65 26.4 35.65 26.5 35.6 26.9 35.6 27.05 35.65 27.3 Q35.75 28.05 36.3 28.75 36.8 29.4 37.45 29.65 L38.4 29.7 38.9 29.5 39.2 29.2 39.55 28.45 39.55 28.2 39.55 28.15 39.6 27.95 39.55 27.9 M37.05 27.1 L36.65 27.2 36.45 27.55 36.45 27.65 36.8 28.35 37.3 28.75 37.75 28.75 37.8 28.7 37.85 28.6 37.95 28.2 37.9 28.2 37.4 27.75 37.05 27.15 37.05 27.1 37.1 27.15 37.65 27.55 37.95 28.2" fill="none" stroke="#000000" stroke-linecap="round" stroke-linejoin="round" stroke-opacity="0.3019608" stroke-width="0.05"/>
      <path d="M35.35 22.6 L33.85 24.6 34.2 27.1 33.9 25.75 33.5 24.15 34.3 22.8 35.35 22.6 M31.15 41.25 L30.05 42.0 30.25 41.6 Q30.8 40.0 30.7 38.4 L30.7 38.3 30.65 37.8 30.65 37.35 30.75 37.9 30.8 38.25 31.15 41.25 M24.6 36.5 L23.3 29.8 22.3 28.1 23.2 27.15 24.05 26.5 25.5 26.95 29.9 29.5 28.7 29.0 28.5 29.0 25.0 27.6 23.2 27.15 23.35 27.55 24.1 29.3 24.75 33.7 24.9 34.25 25.1 35.1 25.35 35.85 24.6 36.5 M23.5 25.55 L22.7 24.85 24.35 21.65 31.5 20.8 32.95 21.6 31.85 21.65 30.0 21.7 29.5 21.65 28.75 21.7 27.0 21.8 25.95 21.8 25.85 21.85 24.35 21.65 25.85 21.85 25.1 22.45 24.7 23.1 Q23.95 24.25 23.5 25.55" fill="#948052" fill-rule="evenodd" stroke="none"/>
      <path d="M38.65 36.4 L38.6 36.4 38.65 36.4" fill="#1c1c1c" fill-rule="evenodd" stroke="none"/>
      <path d="M30.75 37.9 L30.9 38.2 30.8 38.25 30.75 37.9" fill="#4f4f4f" fill-rule="evenodd" stroke="none"/>
      <path d="M30.2 33.95 L30.25 34.0 30.2 33.95" fill="#595959" fill-rule="evenodd" stroke="none"/>
      <path d="M30.2 34.0 L30.2 33.95 30.25 34.0 30.2 34.0" fill="#c47e21" fill-rule="evenodd" stroke="none"/>
      <path d="M25.5 26.95 L23.5 25.55 Q23.95 24.25 24.7 23.1 L25.1 22.45 24.25 24.65 24.05 25.4 25.5 26.95 M28.5 29.0 L24.75 27.9 23.35 27.55 23.2 27.15 25.0 27.6 28.5 29.0" fill="#c7ac6f" fill-rule="evenodd" stroke="none"/>
      <path d="M37.95 35.9 L37.45 37.05 35.45 36.35 36.05 36.5 Q37.3 36.85 37.95 35.9" fill="#615436" fill-rule="evenodd" stroke="none"/>
      <path d="M24.8 33.7 L24.9 34.25 24.75 33.7 24.8 33.7" fill="#ffcc00" fill-rule="evenodd" stroke="none"/>
      <path d="M28.05 40.5 L26.45 39.45 26.25 38.75 Q26.0 37.85 25.4 37.15 L24.6 36.5 25.35 35.85 26.0 36.5 26.35 36.85 27.55 38.45 27.8 39.2 28.05 40.5" fill="#7a6944" fill-rule="evenodd" stroke="none"/>
      <path d="M28.25 22.8 L27.9 23.3 28.35 22.95 Q29.5 24.3 30.05 25.95 30.6 27.7 30.8 29.6 30.95 31.75 30.35 33.7 L30.25 34.0 30.2 33.95 29.9 33.45 28.25 31.25 27.2 30.5 27.05 30.45 26.6 30.2 24.1 29.3 23.35 27.55 24.75 27.9 28.5 29.0 28.7 29.0 29.9 29.5 25.5 26.95 24.05 25.4 Q28.0 26.65 27.6 23.45 27.0 22.4 25.85 21.85 L25.95 21.8 27.0 21.8 27.65 22.3 28.25 22.8 M25.1 35.1 L25.75 35.2 Q27.45 35.2 29.0 35.95 29.05 36.35 26.35 36.85 L26.0 36.5 25.35 35.85 25.1 35.1" fill="#f5e9b2" fill-rule="evenodd" stroke="none"/>
      <path d="M30.05 42.0 L28.8 40.95 29.7 41.4 30.7 38.4 Q30.8 40.0 30.25 41.6 L30.05 42.0" fill="#ded090" fill-rule="evenodd" stroke="none"/>
      <path d="M29.25 22.1 L31.2 25.6 32.5 29.15 Q32.95 30.95 33.0 32.75 33.0 34.65 32.3 36.35 L31.7 37.45 31.65 37.35 30.25 34.0 30.35 33.7 Q30.95 31.75 30.8 29.6 30.6 27.7 30.05 25.95 29.5 24.3 28.35 22.95 L29.25 22.1 M28.75 21.7 L28.25 22.8 27.65 22.3 27.0 21.8 28.75 21.7 M29.0 35.95 L30.15 37.25 30.65 37.8 30.7 38.3 28.25 38.55 27.55 38.45 26.35 36.85 Q29.05 36.35 29.0 35.95" fill="#d1c17d" fill-rule="evenodd" stroke="none"/>
      <path d="M34.3 42.15 L32.55 42.25 31.15 41.25 30.8 38.25 30.9 38.2 31.25 38.75 32.75 40.75 34.3 42.15 M28.8 40.95 L28.05 40.5 27.8 39.2 27.55 38.45 28.25 38.55 30.7 38.3 30.7 38.4 29.7 41.4 28.8 40.95 M30.0 21.7 L30.5 22.3 Q31.75 23.85 32.65 25.65 L34.05 29.0 Q34.7 30.85 34.9 32.8 35.2 34.7 35.0 36.6 34.75 38.45 33.7 39.9 L33.15 39.4 31.7 37.45 32.3 36.35 Q33.0 34.65 33.0 32.75 32.95 30.95 32.5 29.15 L31.2 25.6 29.25 22.1 29.5 21.65 30.0 21.7" fill="#c2b062" fill-rule="evenodd" stroke="none"/>
      <path d="M35.85 26.9 L36.9 27.05 37.0 27.7 38.5 30.95 38.65 36.4 38.6 36.4 36.45 29.25 37.9 35.4 37.95 35.9 Q37.3 36.85 36.05 36.5 L35.45 36.35 37.45 37.05 37.95 37.25 38.1 39.4 35.85 41.15 Q34.45 41.15 33.75 39.9 L33.7 39.9 Q34.75 38.45 35.0 36.6 35.2 34.7 34.9 32.8 34.7 30.85 34.05 29.0 L32.65 25.65 Q31.75 23.85 30.5 22.3 L30.0 21.7 31.85 21.65 31.75 21.8 31.55 21.85 Q31.65 24.4 33.9 25.75 L34.2 27.1 35.3 26.9 35.4 33.3 35.85 26.9 M35.55 34.65 L35.6 35.3 Q35.85 35.85 36.45 35.8 36.95 35.75 37.05 35.15 L37.15 34.4 Q37.0 33.3 36.2 33.4 35.6 33.45 35.5 34.0 L35.55 34.65" fill="#ad9943" fill-rule="evenodd" stroke="none"/>
      <path d="M25.85 21.85 Q27.0 22.4 27.6 23.45 28.0 26.65 24.05 25.4 L24.25 24.65 25.1 22.45 25.85 21.85 M27.05 30.45 L27.2 30.5 28.25 31.25 29.9 33.45 30.2 33.95 30.2 34.0 29.95 34.5 29.0 35.95 Q27.45 35.2 25.75 35.2 L25.1 35.1 24.9 34.25 24.8 33.7 24.5 30.25 25.05 30.15 Q26.1 29.95 27.05 30.45" fill="#cdcd22" fill-rule="evenodd" stroke="none"/>
      <path d="M29.5 21.65 L29.25 22.1 28.35 22.95 27.9 23.3 28.25 22.8 28.75 21.7 29.5 21.65" fill="#abab0d" fill-rule="evenodd" stroke="none"/>
      <path d="M29.0 35.95 L29.95 34.5 30.2 34.0 30.25 34.0 31.65 37.35 30.9 38.2 30.75 37.9 30.65 37.35 30.65 37.8 30.15 37.25 29.0 35.95" fill="#969600" fill-rule="evenodd" stroke="none"/>
      <path d="M32.95 21.6 L33.5 24.15 33.9 25.75 Q31.65 24.4 31.55 21.85 L31.75 21.8 31.85 21.65 32.95 21.6 M31.7 37.45 L33.15 39.4 33.7 39.9 33.75 39.9 33.05 40.55 32.75 40.75 31.25 38.75 30.9 38.2 31.65 37.35 31.7 37.45" fill="#7d7d00" fill-rule="evenodd" stroke="none"/>
      <path d="M36.9 27.05 L35.85 26.9 35.45 25.15 35.2 24.65 35.3 26.9 34.2 27.1 33.85 24.6 35.35 22.6 Q36.35 24.05 36.65 25.8 L36.9 27.05 M35.85 41.15 L35.25 41.6 Q34.85 42.05 34.3 42.15 L32.75 40.75 33.05 40.55 33.75 39.9 Q34.45 41.15 35.85 41.15 M35.55 34.65 L35.5 34.0 Q35.6 33.45 36.2 33.4 37.0 33.3 37.15 34.4 L37.05 35.15 Q36.95 35.75 36.45 35.8 35.85 35.85 35.6 35.3 L35.55 34.65" fill="#696900" fill-rule="evenodd" stroke="none"/>
      <path d="M24.1 29.3 L26.6 30.2 27.05 30.45 Q26.1 29.95 25.05 30.15 L24.5 30.25 24.8 33.7 24.75 33.7 24.1 29.3" fill="#e6e626" fill-rule="evenodd" stroke="none"/>
      <path d="M35.3 26.9 L35.2 24.65 35.45 25.15 35.85 26.9 35.4 33.3 35.3 26.9 M38.6 36.4 L37.9 35.4 36.45 29.25 38.6 36.4" fill="#806a19" fill-rule="evenodd" stroke="none"/>
      <path d="M36.9 27.05 L36.65 25.8 Q36.35 24.05 35.35 22.6 M36.9 27.05 L37.0 27.7 M35.85 41.15 L35.25 41.6 Q34.85 42.05 34.3 42.15 L32.55 42.25 31.15 41.25 30.05 42.0 28.8 40.95 28.05 40.5 26.45 39.45 26.25 38.75 Q26.0 37.85 25.4 37.15 L24.6 36.5 23.3 29.8 22.3 28.1 23.2 27.15 24.05 26.5 25.5 26.95 23.5 25.55 22.7 24.85 24.35 21.65 31.5 20.8 32.95 21.6 33.5 24.15 34.3 22.8 35.35 22.6 M25.95 21.8 L25.85 21.85 24.35 21.65 M23.35 27.55 L24.1 29.3 M30.65 37.8 L30.65 37.35 30.75 37.9 30.8 38.25 31.15 41.25 M30.7 38.3 L30.7 38.4 Q30.8 40.0 30.25 41.6 L30.05 42.0 M30.65 37.8 L30.7 38.3 M27.55 38.45 L27.8 39.2 28.05 40.5 M38.65 36.4 L38.6 36.4 M25.1 22.45 L25.85 21.85 M23.5 25.55 Q23.95 24.25 24.7 23.1 L25.1 22.45 M23.2 27.15 L23.35 27.55 M24.9 34.25 L25.1 35.1 M26.35 36.85 L27.55 38.45 M25.35 35.85 L25.1 35.1 M24.6 36.5 L25.35 35.85 26.0 36.5 26.35 36.85 M24.9 34.25 L24.75 33.7 24.1 29.3" fill="none" stroke="#000000" stroke-linecap="round" stroke-linejoin="round" stroke-opacity="0.3019608" stroke-width="0.05"/>
      <path d="M6.65 25.35 L8.5 25.1 8.55 25.2 Q9.7 27.55 10.9 28.2 L12.0 28.55 10.35 30.0 Q9.35 29.7 8.75 28.95 7.3 27.25 6.65 25.35 M21.3 28.4 Q23.5 29.55 25.25 32.65 25.3 33.2 22.9 34.55 22.0 32.5 20.05 30.65 19.6 30.3 19.15 30.05 L21.3 28.4" fill="#422909" fill-rule="evenodd" stroke="none"/>
      <path d="M12.0 28.55 Q13.35 28.7 15.3 28.05 18.65 26.95 21.3 28.4 L19.15 30.05 14.35 29.9 10.35 30.0 12.0 28.55" fill="#1a1003" fill-rule="evenodd" stroke="none"/>
      <path d="M8.5 25.1 L8.55 25.2 Q9.7 27.55 10.9 28.2 L12.0 28.55 Q13.35 28.7 15.3 28.05 18.65 26.95 21.3 28.4 23.5 29.55 25.25 32.65 25.3 33.2 22.9 34.55 22.0 32.5 20.05 30.65 19.6 30.3 19.15 30.05 L14.35 29.9 10.35 30.0 Q9.35 29.7 8.75 28.95 7.3 27.25 6.65 25.35" fill="none" stroke="#000000" stroke-linecap="round" stroke-linejoin="round" stroke-opacity="0.3019608" stroke-width="0.5"/>
      <path d="M26.3 34.6 L26.35 34.55 26.1 32.55 Q25.55 31.55 24.65 31.05 24.1 30.75 23.6 30.8 L23.3 30.8 23.2 30.9 22.95 30.95 22.85 31.0 22.9 31.0 22.55 31.4 Q22.5 31.75 23.8 32.3 L24.15 32.5 Q25.1 33.05 25.0 33.85 L25.0 34.8 Q25.1 35.35 25.5 35.4 L25.7 35.4 26.25 34.6 26.3 34.6 M25.7 34.95 L25.5 34.75 25.45 34.6 25.55 34.35 25.8 34.35 Q26.1 34.4 26.05 34.7 L25.7 34.95 25.7 35.0 25.7 34.95 M25.7 34.05 Q25.5 34.05 25.5 33.45 25.5 32.75 24.85 32.15 24.1 31.5 23.35 31.35 23.5 30.45 24.9 31.45 26.3 32.4 26.05 33.8 L25.95 33.95 25.7 34.05" fill="#5e5e5e" fill-rule="evenodd" stroke="none"/>
      <path d="M22.85 31.0 L22.55 31.25 22.45 31.3 22.15 31.65 22.15 31.75 21.95 32.25 Q22.05 33.0 22.45 33.25 L22.75 33.3 23.1 32.9 Q23.3 32.75 23.6 32.9 L23.7 32.95 24.15 33.65 24.3 34.5 24.3 34.55 24.05 35.0 23.95 35.0 23.9 35.1 24.25 35.8 25.0 36.3 25.5 36.15 26.1 35.35 26.2 35.0 26.2 34.95 26.3 34.7 26.3 34.6 26.25 34.6 25.7 35.4 25.5 35.4 Q25.1 35.35 25.0 34.8 L25.0 33.85 Q25.1 33.05 24.15 32.5 L23.8 32.3 Q22.5 31.75 22.55 31.4 L22.9 31.0 22.85 31.0" fill="#4f4f4f" fill-rule="evenodd" stroke="none"/>
      <path d="M23.6 32.9 Q23.3 32.75 23.1 32.9 L22.75 33.3 22.7 33.45 Q22.65 33.85 22.9 34.3 L23.4 34.95 23.9 35.1 23.95 35.0 24.05 35.0 24.3 34.55 24.25 34.5 23.8 33.8 Q23.55 33.35 23.6 32.95 L23.6 32.9" fill="#1c1c1c" fill-rule="evenodd" stroke="none"/>
      <path d="M21.95 32.25 L21.95 32.4 21.9 32.75 Q21.75 33.65 22.2 34.6 22.6 35.55 23.25 36.0 L24.4 36.45 25.0 36.3 24.25 35.8 23.9 35.1 23.4 34.95 22.9 34.3 Q22.65 33.85 22.7 33.45 L22.75 33.3 22.45 33.25 Q22.05 33.0 21.95 32.25" fill="#363636" fill-rule="evenodd" stroke="none"/>
      <path d="M25.7 34.95 L26.05 34.7 Q26.1 34.4 25.8 34.35 L25.55 34.35 25.45 34.6 25.5 34.75 25.7 34.95 M25.7 34.05 L25.95 33.95 26.05 33.8 Q26.3 32.4 24.9 31.45 23.5 30.45 23.35 31.35 24.1 31.5 24.85 32.15 25.5 32.75 25.5 33.45 25.5 34.05 25.7 34.05" fill="#aeaeae" fill-rule="evenodd" stroke="none"/>
      <path d="M26.3 34.6 L26.35 34.55 26.1 32.55 Q25.55 31.55 24.65 31.05 24.1 30.75 23.6 30.8 L23.3 30.8 23.2 30.9 22.95 30.95 22.85 31.0 22.55 31.25 22.45 31.3 22.15 31.65 22.15 31.75 21.95 32.25 21.95 32.4 21.9 32.75 Q21.75 33.65 22.2 34.6 22.6 35.55 23.25 36.0 L24.4 36.45 25.0 36.3 25.5 36.15 26.1 35.35 26.2 35.0 26.2 34.95 26.3 34.7 26.3 34.6 M24.3 34.55 L24.3 34.5 24.15 33.65 23.7 32.95 23.6 32.9 Q23.3 32.75 23.1 32.9 L22.75 33.3 M23.6 32.9 L23.6 32.95 Q23.55 33.35 23.8 33.8 L24.25 34.5 24.3 34.55 24.05 35.0 23.95 35.0 23.9 35.1 23.4 34.95 22.9 34.3 Q22.65 33.85 22.7 33.45 L22.75 33.3" fill="none" stroke="#000000" stroke-linecap="round" stroke-linejoin="round" stroke-opacity="0.3019608" stroke-width="0.05"/>
      <path d="M23.45 32.7 L23.3 32.75 23.1 33.0 Q22.75 33.7 23.2 34.3 L24.05 34.75 24.5 34.65 24.65 34.15 Q24.75 33.6 24.4 33.2 24.15 32.8 23.6 32.75 L23.45 32.7 M23.6 33.45 Q23.65 33.0 24.0 33.05 24.4 33.1 24.35 33.55 L23.9 33.85 Q23.55 33.8 23.6 33.45" fill="#945b07" fill-rule="evenodd" stroke="none"/>
      <path d="M23.6 33.45 Q23.55 33.8 23.9 33.85 L24.35 33.55 Q24.4 33.1 24.0 33.05 23.65 33.0 23.6 33.45" fill="#f7a833" fill-rule="evenodd" stroke="none"/>
      <path d="M23.3 32.75 L22.65 32.95 Q22.2 33.25 22.1 33.8 22.0 34.35 22.35 34.75 22.6 35.15 23.2 35.25 23.75 35.3 24.1 35.0 L24.5 34.65 24.05 34.75 23.2 34.3 Q22.75 33.7 23.1 33.0 L23.3 32.75" fill="#663e04" fill-rule="evenodd" stroke="none"/>
      <path d="M23.3 32.75 L22.65 32.95 Q22.2 33.25 22.1 33.8 22.0 34.35 22.35 34.75 22.6 35.15 23.2 35.25 23.75 35.3 24.1 35.0 L24.5 34.65 24.65 34.15 Q24.75 33.6 24.4 33.2 24.15 32.8 23.6 32.75 L23.45 32.7" fill="none" stroke="#000000" stroke-linecap="round" stroke-linejoin="round" stroke-opacity="0.3019608" stroke-width="0.05"/>
    </g>
  </defs>
</svg>
