<?xml version="1.0" encoding="UTF-8" standalone="no"?>
<svg xmlns:xlink="http://www.w3.org/1999/xlink" height="440.0px" width="440.0px" xmlns="http://www.w3.org/2000/svg">
  <g transform="matrix(10.0, 0.0, 0.0, 10.0, 0.0, 0.0)">
    <use height="44.0" transform="matrix(1.0, 0.0, 0.0, 1.0, 0.0, 0.0)" width="44.0" xlink:href="#shape0"/>
    <use height="115.05" transform="matrix(0.3579, 0.0, 0.0, 0.3579, 4.5181, 1.6275)" width="103.05" xlink:href="#sprite0"/>
  </g>
  <defs>
    <g id="shape0" transform="matrix(1.0, 0.0, 0.0, 1.0, 0.0, 0.0)">
      <path d="M44.0 44.0 L0.0 44.0 0.0 0.0 44.0 0.0 44.0 44.0" fill="#43adca" fill-opacity="0.0" fill-rule="evenodd" stroke="none"/>
    </g>
    <g id="sprite0" transform="matrix(1.0, 0.0, 0.0, 1.0, 53.45, 99.8)">
      <use height="0.0" transform="matrix(1.0, 0.0, 0.0, 1.0, 0.0, 0.0)" width="0.0" xlink:href="#sprite1"/>
      <use height="29.5" transform="matrix(-2.1022, 0.0, 0.0, 1.0511, 30.8082, -15.7535)" width="29.5" xlink:href="#sprite2"/>
      <use height="14.4" transform="matrix(0.9, 0.0, 0.0, 0.9, -1.1349, -13.9599)" width="23.35" xlink:href="#sprite3"/>
      <use height="10.25" transform="matrix(0.9, 0.0, 0.0, 0.9, 0.155, -21.5749)" width="8.15" xlink:href="#sprite4"/>
      <use height="8.0" transform="matrix(0.9, 0.0, 0.0, 0.9, 1.465, -26.0)" width="12.35" xlink:href="#sprite5"/>
      <use height="18.15" transform="matrix(0.9, 0.0, 0.0, 0.9, -22.3499, -5.3349)" width="22.0" xlink:href="#sprite6"/>
      <use height="11.15" transform="matrix(0.9, 0.0, 0.0, 0.9, -19.6, -11.9349)" width="8.95" xlink:href="#sprite7"/>
      <use height="11.8" transform="matrix(0.9, 0.0, 0.0, 0.9, -19.26, -19.6699)" width="14.75" xlink:href="#sprite8"/>
      <use height="44.85" transform="matrix(0.9, 0.0, 0.0, 0.9, -8.9099, -71.2647)" width="31.8" xlink:href="#sprite9"/>
      <use height="112.2" transform="matrix(0.9, 0.0, 0.0, 0.5996, -48.5249, -99.8145)" width="36.55" xlink:href="#sprite10"/>
      <use height="53.25" transform="matrix(0.9, 0.0, 0.0, 0.5996, -26.4249, -71.7284)" width="20.5" xlink:href="#sprite11"/>
      <use height="48.0" transform="matrix(0.9, 0.0, 0.0, 0.5996, -51.1399, -65.1305)" width="46.15" xlink:href="#sprite12"/>
      <use height="44.9" transform="matrix(0.9, 0.0, 0.0, 0.9, -27.3699, -51.8097)" width="43.6" xlink:href="#sprite13"/>
      <use height="39.35" transform="matrix(0.9, 0.0, -0.0527, 0.9, -24.0828, -45.6148)" width="41.7" xlink:href="#sprite14"/>
      <use height="36.5" transform="matrix(0.9, 0.0, 0.0, 0.9, -34.3949, -60.7998)" width="48.1" xlink:href="#sprite15"/>
      <use height="0.0" transform="matrix(1.0, 0.0, 0.0, 1.0, -1.8, -36.35)" width="0.0" xlink:href="#sprite16"/>
      <use height="14.8" transform="matrix(0.9, 0.0, 0.0, 0.9, 5.145, -24.8199)" width="10.95" xlink:href="#sprite17"/>
      <use height="24.7" transform="matrix(0.9, 0.0, 0.0, 0.9, 12.595, -28.6798)" width="7.9" xlink:href="#sprite18"/>
      <use height="35.6" transform="matrix(0.9, 0.0, 0.0, 0.9, -53.4749, -40.1398)" width="45.5" xlink:href="#sprite19"/>
      <use height="18.0" transform="matrix(0.855, 0.0, 0.0, 0.855, 20.7608, -42.1899)" width="16.7" xlink:href="#sprite20"/>
      <use height="17.3" transform="matrix(0.855, 0.0, 0.0, 0.855, 2.976, -50.0414)" width="17.6" xlink:href="#sprite21"/>
      <use height="31.45" transform="matrix(0.855, 0.0, 0.0, 0.855, 7.7598, -45.6396)" width="29.1" xlink:href="#sprite22"/>
      <use height="17.05" transform="matrix(0.855, 0.0, 0.0, 0.855, 1.9138, -34.7277)" width="19.55" xlink:href="#sprite23"/>
      <use height="21.15" transform="matrix(0.855, 0.0, 0.0, 0.855, 9.9608, -39.2332)" width="16.75" xlink:href="#sprite24"/>
      <use height="16.75" transform="matrix(0.855, 0.0, 0.0, 0.855, 13.5563, -23.9857)" width="32.5" xlink:href="#sprite25"/>
      <use height="41.6" transform="matrix(0.855, 0.0, 0.0, 0.855, 13.3241, -41.4678)" width="42.45" xlink:href="#sprite26"/>
      <use height="21.1" transform="matrix(0.855, 0.0, 0.0, 0.855, 9.5898, -37.3904)" width="17.1" xlink:href="#sprite27"/>
      <use height="0.0" transform="matrix(1.0, 0.0, 0.0, 1.0, 17.55, 9.4)" width="0.0" xlink:href="#sprite28"/>
    </g>
    <g id="sprite2" transform="matrix(1.0, 0.0, 0.0, 1.0, 14.75, 14.75)">
      <use height="29.5" transform="matrix(1.0, 0.0, 0.0, 1.0, -14.75, -14.75)" width="29.5" xlink:href="#shape1"/>
    </g>
    <g id="shape1" transform="matrix(1.0, 0.0, 0.0, 1.0, 14.75, 14.75)">
      <path d="M10.4 -10.45 Q14.75 -6.1 14.75 0.0 14.75 6.1 10.4 10.4 6.1 14.75 0.0 14.75 -6.1 14.75 -10.45 10.4 -14.75 6.1 -14.75 0.0 -14.75 -6.1 -10.45 -10.45 -6.1 -14.75 0.0 -14.75 6.1 -14.75 10.4 -10.45" fill="url(#gradient0)" fill-rule="evenodd" stroke="none"/>
    </g>
    <radialGradient cx="0" cy="0" gradientTransform="matrix(0.0172, 0.0, 0.0, 0.0172, 0.0, 0.0)" gradientUnits="userSpaceOnUse" id="gradient0" r="819.2" spreadMethod="pad">
      <stop offset="0.5882352941176471" stop-color="#0e171d" stop-opacity="0.49803922"/>
      <stop offset="1.0" stop-color="#101a24" stop-opacity="0.0"/>
    </radialGradient>
    <g id="sprite3" transform="matrix(1.0, 0.0, 0.0, 1.0, 11.65, 14.4)">
      <use height="14.4" transform="matrix(1.0, 0.0, 0.0, 1.0, -11.65, -14.4)" width="23.35" xlink:href="#shape2"/>
    </g>
    <g id="shape2" transform="matrix(1.0, 0.0, 0.0, 1.0, 11.65, 14.4)">
      <path d="M9.15 -10.0 Q9.95 -9.6 10.5 -8.8 11.9 -7.15 11.65 -3.85 L10.5 -4.0 Q4.2 -4.8 3.65 -9.75 4.2 -10.35 4.85 -10.55 L6.95 -10.8 Q7.95 -10.75 9.15 -10.0 M4.55 -3.65 L4.75 0.0 Q-3.25 -1.65 -3.75 -7.0 L-3.75 -7.05 -3.35 -7.55 Q-2.1 -8.7 -0.65 -8.8 L0.4 -8.65 Q1.7 -8.4 2.75 -7.5 4.15 -6.25 4.55 -3.65" fill="#fcdc94" fill-rule="evenodd" stroke="none"/>
      <path d="M11.65 -3.85 L8.95 -3.5 4.55 -3.65 Q4.15 -6.25 2.75 -7.5 L2.55 -7.8 3.1 -8.85 3.65 -9.75 Q4.2 -4.8 10.5 -4.0 L11.65 -3.85 M4.75 0.0 Q1.05 0.0 -1.45 -0.8 L-2.8 -1.4 Q-3.8 -1.95 -4.05 -2.25 -4.9 -3.15 -4.75 -4.75 -4.5 -6.0 -3.75 -7.0 -3.25 -1.65 4.75 0.0" fill="#e3c685" fill-rule="evenodd" stroke="none"/>
      <path d="M2.85 -12.15 L3.5 -12.35 Q5.7 -12.95 7.3 -12.0 8.75 -11.3 9.15 -10.0 7.95 -10.75 6.95 -10.8 L4.85 -10.55 Q2.7 -11.25 2.85 -12.15 M-5.9 -8.5 Q-4.35 -9.65 -2.3 -9.85 L-0.55 -9.7 Q0.65 -9.5 1.55 -8.75 L2.55 -7.8 2.75 -7.5 Q1.7 -8.4 0.4 -8.65 L-0.65 -8.8 Q-2.1 -8.7 -3.35 -7.55 L-3.75 -7.05 -3.75 -7.0 Q-5.4 -7.8 -5.9 -8.5" fill="#c6a691" fill-rule="evenodd" stroke="none"/>
      <path d="M-1.45 -0.8 L-2.3 -0.65 Q-4.6 -0.5 -6.3 -1.75 -7.6 -2.75 -7.8 -4.2 L-9.45 -5.85 Q-10.95 -7.5 -11.3 -8.25 L-11.65 -10.05 Q-11.65 -10.95 -11.3 -11.7 -10.75 -13.05 -9.15 -13.75 L-7.3 -14.35 -5.25 -14.4 -3.1 -14.2 Q-0.15 -13.6 2.1 -11.85 L2.85 -12.15 Q2.7 -11.25 4.85 -10.55 4.2 -10.35 3.65 -9.75 L3.1 -8.85 2.55 -7.8 1.55 -8.75 Q0.65 -9.5 -0.55 -9.7 L-2.3 -9.85 Q-4.35 -9.65 -5.9 -8.5 L-6.3 -8.2 Q-7.85 -6.7 -7.85 -4.8 L-7.8 -4.2 -7.85 -4.8 Q-7.85 -6.7 -6.3 -8.2 L-5.9 -8.5 Q-5.4 -7.8 -3.75 -7.0 -4.5 -6.0 -4.75 -4.75 -4.9 -3.15 -4.05 -2.25 -3.8 -1.95 -2.8 -1.4 L-1.45 -0.8 M2.1 -11.85 Q0.75 -11.2 -0.35 -10.0 L-0.55 -9.7 -0.35 -10.0 Q0.75 -11.2 2.1 -11.85" fill="#855f45" fill-rule="evenodd" stroke="none"/>
      <path d="M2.85 -12.15 L3.5 -12.35 Q5.7 -12.95 7.3 -12.0 8.75 -11.3 9.15 -10.0 9.95 -9.6 10.5 -8.8 11.9 -7.15 11.65 -3.85 L8.95 -3.5 4.55 -3.65 4.75 0.0 Q1.05 0.0 -1.45 -0.8 L-2.3 -0.65 Q-4.6 -0.5 -6.3 -1.75 -7.6 -2.75 -7.8 -4.2 L-9.45 -5.85 Q-10.95 -7.5 -11.3 -8.25 L-11.65 -10.05 Q-11.65 -10.95 -11.3 -11.7 -10.75 -13.05 -9.15 -13.75 L-7.3 -14.35 -5.25 -14.4 -3.1 -14.2 Q-0.15 -13.6 2.1 -11.85 L2.85 -12.15 M4.85 -10.55 L6.95 -10.8 Q7.95 -10.75 9.15 -10.0 M-7.8 -4.2 L-7.85 -4.8 Q-7.85 -6.7 -6.3 -8.2 L-5.9 -8.5 Q-4.35 -9.65 -2.3 -9.85 L-0.55 -9.7 -0.35 -10.0 Q0.75 -11.2 2.1 -11.85 M-3.75 -7.0 L-3.75 -7.05 -3.35 -7.55 Q-2.1 -8.7 -0.65 -8.8 L0.4 -8.65 Q1.7 -8.4 2.75 -7.5 L2.55 -7.8 1.55 -8.75 Q0.65 -9.5 -0.55 -9.7 M-3.75 -7.0 Q-4.5 -6.0 -4.75 -4.75 -4.9 -3.15 -4.05 -2.25 -3.8 -1.95 -2.8 -1.4 L-1.45 -0.8 M4.85 -10.55 Q4.2 -10.35 3.65 -9.75 M2.55 -7.8 L3.1 -8.85 3.65 -9.75 M2.75 -7.5 Q4.15 -6.25 4.55 -3.65" fill="none" stroke="#000000" stroke-linecap="round" stroke-linejoin="round" stroke-opacity="0.3019608" stroke-width="0.05"/>
    </g>
    <g id="sprite4" transform="matrix(1.0, 0.0, 0.0, 1.0, 4.05, 10.25)">
      <use height="10.25" transform="matrix(1.0, 0.0, 0.0, 1.0, -4.05, -10.25)" width="8.15" xlink:href="#shape3"/>
    </g>
    <g id="shape3" transform="matrix(1.0, 0.0, 0.0, 1.0, 4.05, 10.25)">
      <path d="M-3.4 -1.35 L-3.65 -2.25 -4.05 -10.25 2.6 -9.95 3.35 -5.35 4.1 -1.35 Q2.1 1.4 -3.4 -1.35" fill="#855f45" fill-rule="evenodd" stroke="none"/>
      <path d="M4.1 -1.35 L3.35 -5.35 2.6 -9.95 -4.05 -10.25 -3.65 -2.25 -3.4 -1.35" fill="none" stroke="#000000" stroke-linecap="round" stroke-linejoin="round" stroke-opacity="0.3019608" stroke-width="0.05"/>
    </g>
    <g id="sprite5" transform="matrix(1.0, 0.0, 0.0, 1.0, 6.15, 8.0)">
      <use height="8.0" transform="matrix(1.0, 0.0, 0.0, 1.0, -6.15, -8.0)" width="12.35" xlink:href="#shape4"/>
    </g>
    <g id="shape4" transform="matrix(1.0, 0.0, 0.0, 1.0, 6.15, 8.0)">
      <path d="M-6.15 -3.35 Q-5.7 -3.6 -5.4 -3.8 L1.35 -8.0 6.2 -4.9 -0.2 -0.05 Q-4.05 0.5 -6.15 -3.35" fill="#855f45" fill-rule="evenodd" stroke="none"/>
      <path d="M-6.15 -3.35 Q-5.7 -3.6 -5.4 -3.8 L1.35 -8.0 6.2 -4.9 -0.2 -0.05" fill="none" stroke="#000000" stroke-linecap="round" stroke-linejoin="round" stroke-opacity="0.3019608" stroke-width="0.05"/>
    </g>
    <g id="sprite6" transform="matrix(1.0, 0.0, 0.0, 1.0, 11.0, 18.15)">
      <use height="18.15" transform="matrix(1.0, 0.0, 0.0, 1.0, -11.0, -18.15)" width="22.0" xlink:href="#shape5"/>
    </g>
    <g id="shape5" transform="matrix(1.0, 0.0, 0.0, 1.0, 11.0, 18.15)">
      <path d="M-9.45 -13.65 Q-9.0 -14.25 -8.4 -14.25 L-8.0 -14.1 -7.6 -13.75 Q-8.35 -10.3 -11.0 -10.0 -10.5 -12.8 -9.45 -13.65 M10.15 -9.5 Q11.45 -7.2 10.8 -4.15 8.35 -8.2 3.5 -11.3 4.35 -12.55 5.6 -12.65 L6.95 -12.25 8.6 -11.45 10.15 -9.5 M3.55 -4.3 L3.75 0.0 Q0.1 -6.05 -4.05 -8.7 L-4.1 -8.75 Q-2.35 -10.4 -1.45 -10.45 L-0.3 -10.1 0.95 -9.6 Q2.15 -8.75 2.85 -7.1 L3.25 -5.85 3.55 -4.3" fill="#fef7e0" fill-rule="evenodd" stroke="none"/>
      <path d="M-7.6 -13.75 L-7.35 -13.15 Q-7.15 -12.35 -7.25 -11.35 -7.4 -10.5 -7.8 -10.05 L-8.5 -9.65 Q-9.45 -9.3 -11.0 -10.0 -8.35 -10.3 -7.6 -13.75 M2.55 -8.9 Q2.7 -10.25 3.4 -11.25 L3.5 -11.3 Q8.35 -8.2 10.8 -4.15 7.35 -3.2 4.9 -4.55 L4.55 -4.65 3.25 -5.85 2.85 -7.1 2.85 -7.2 2.55 -8.9 M3.75 0.0 Q-0.75 -0.5 -2.95 -1.55 L-3.4 -1.9 Q-4.1 -2.15 -4.6 -2.85 -5.5 -4.05 -5.25 -5.85 -5.0 -7.5 -4.1 -8.75 L-4.05 -8.7 Q0.1 -6.05 3.75 0.0" fill="#fcdc94" fill-rule="evenodd" stroke="none"/>
      <path d="M0.3 -11.6 L1.25 -10.8 Q1.35 -10.25 0.95 -9.6 L-0.3 -10.1 -1.45 -10.45 Q-2.35 -10.4 -4.1 -8.75 -5.15 -10.1 -3.9 -11.65 L-2.4 -12.05 0.3 -11.6 M3.4 -11.25 Q1.35 -12.3 1.85 -13.75 2.7 -14.5 3.8 -14.85 L5.0 -15.15 7.45 -14.7 7.95 -14.45 Q9.8 -12.3 8.6 -11.45 L6.95 -12.25 5.6 -12.65 Q4.35 -12.55 3.5 -11.3 L3.4 -11.25" fill="#c6a691" fill-rule="evenodd" stroke="none"/>
      <path d="M-7.6 -13.75 L-8.0 -14.1 -8.4 -14.25 Q-9.0 -14.25 -9.45 -13.65 -9.35 -16.15 -7.15 -17.5 L-5.5 -18.1 -3.5 -18.1 -1.45 -17.95 Q1.1 -17.3 3.0 -15.6 0.4 -14.45 -0.55 -12.3 -2.5 -13.3 -4.45 -12.55 -7.55 -11.55 -7.8 -8.65 L-8.5 -9.65 -7.8 -10.05 Q-7.4 -10.5 -7.25 -11.35 -7.15 -12.35 -7.35 -13.15 L-7.6 -13.75 M0.3 -11.6 Q0.55 -12.45 1.3 -13.25 L1.85 -13.75 Q1.35 -12.3 3.4 -11.25 2.7 -10.25 2.55 -8.9 2.15 -10.0 1.25 -10.8 2.15 -10.0 2.55 -8.9 L2.85 -7.2 2.85 -7.1 Q2.15 -8.75 0.95 -9.6 1.35 -10.25 1.25 -10.8 L0.3 -11.6 M7.95 -14.45 L8.65 -13.9 Q10.2 -12.45 10.2 -10.3 L10.15 -9.5 8.6 -11.45 Q9.8 -12.3 7.95 -14.45 M-2.95 -1.55 Q-4.75 -1.75 -6.1 -2.95 -7.6 -4.3 -7.6 -6.4 L-7.35 -8.0 Q-7.0 -9.25 -6.1 -10.25 -5.1 -11.25 -3.9 -11.65 -5.15 -10.1 -4.1 -8.75 -5.0 -7.5 -5.25 -5.85 -5.5 -4.05 -4.6 -2.85 -4.1 -2.15 -3.4 -1.9 L-2.95 -1.55" fill="#a87757" fill-rule="evenodd" stroke="none"/>
      <path d="M-7.8 -8.65 Q-7.55 -11.55 -4.45 -12.55 -2.5 -13.3 -0.55 -12.3 0.4 -14.45 3.0 -15.6 L3.8 -14.85 Q2.7 -14.5 1.85 -13.75 L1.3 -13.25 Q0.55 -12.45 0.3 -11.6 L-2.4 -12.05 -3.9 -11.65 Q-5.1 -11.25 -6.1 -10.25 -7.0 -9.25 -7.35 -8.0 L-7.8 -8.65 M4.55 -4.65 L3.55 -4.3 3.25 -5.85 4.55 -4.65" fill="#855f45" fill-rule="evenodd" stroke="none"/>
      <path d="M-9.45 -13.65 Q-9.0 -14.25 -8.4 -14.25 L-8.0 -14.1 -7.6 -13.75 -7.35 -13.15 Q-7.15 -12.35 -7.25 -11.35 -7.4 -10.5 -7.8 -10.05 L-8.5 -9.65 -7.8 -8.65 M3.0 -15.6 Q1.1 -17.3 -1.45 -17.95 L-3.5 -18.1 -5.5 -18.1 -7.15 -17.5 Q-9.35 -16.15 -9.45 -13.65 -10.5 -12.8 -11.0 -10.0 M1.85 -13.75 L1.3 -13.25 Q0.55 -12.45 0.3 -11.6 L1.25 -10.8 Q2.15 -10.0 2.55 -8.9 2.7 -10.25 3.4 -11.25 L3.5 -11.3 M1.85 -13.75 Q2.7 -14.5 3.8 -14.85 L3.0 -15.6 M3.8 -14.85 L5.0 -15.15 7.45 -14.7 7.95 -14.45 8.65 -13.9 Q10.2 -12.45 10.2 -10.3 L10.15 -9.5 Q11.45 -7.2 10.8 -4.15 7.35 -3.2 4.9 -4.55 L4.55 -4.65 3.55 -4.3 3.75 0.0 Q-0.75 -0.5 -2.95 -1.55 -4.75 -1.75 -6.1 -2.95 -7.6 -4.3 -7.6 -6.4 L-7.35 -8.0 -7.8 -8.65 M10.15 -9.5 L8.6 -11.45 6.95 -12.25 5.6 -12.65 Q4.35 -12.55 3.5 -11.3 M2.85 -7.1 L2.85 -7.2 2.55 -8.9 M3.25 -5.85 L3.55 -4.3 M4.55 -4.65 L3.25 -5.85 2.85 -7.1 Q2.15 -8.75 0.95 -9.6 L-0.3 -10.1 -1.45 -10.45 Q-2.35 -10.4 -4.1 -8.75 L-4.05 -8.7 M0.3 -11.6 L-2.4 -12.05 -3.9 -11.65 Q-5.1 -11.25 -6.1 -10.25 -7.0 -9.25 -7.35 -8.0 M-4.1 -8.75 Q-5.0 -7.5 -5.25 -5.85 -5.5 -4.05 -4.6 -2.85 -4.1 -2.15 -3.4 -1.9 L-2.95 -1.55 M-8.5 -9.65 Q-9.45 -9.3 -11.0 -10.0" fill="none" stroke="#000000" stroke-linecap="round" stroke-linejoin="round" stroke-opacity="0.3019608" stroke-width="0.05"/>
    </g>
    <g id="sprite7" transform="matrix(1.0, 0.0, 0.0, 1.0, 4.5, 11.15)">
      <use height="11.15" transform="matrix(1.0, 0.0, 0.0, 1.0, -4.5, -11.15)" width="8.95" xlink:href="#shape6"/>
    </g>
    <g id="shape6" transform="matrix(1.0, 0.0, 0.0, 1.0, 4.5, 11.15)">
      <path d="M-3.6 -1.45 L-4.5 -11.15 -1.45 -10.95 2.7 -10.8 4.45 -1.45 Q2.55 1.5 -3.6 -1.45" fill="#a87757" fill-rule="evenodd" stroke="none"/>
      <path d="M4.45 -1.45 L2.7 -10.8 -1.45 -10.95 -4.5 -11.15 -3.6 -1.45" fill="none" stroke="#000000" stroke-linecap="round" stroke-linejoin="round" stroke-opacity="0.3019608" stroke-width="0.05"/>
    </g>
    <g id="sprite8" transform="matrix(1.0, 0.0, 0.0, 1.0, 7.4, 11.8)">
      <use height="11.8" transform="matrix(1.0, 0.0, 0.0, 1.0, -7.4, -11.8)" width="14.75" xlink:href="#shape7"/>
    </g>
    <g id="shape7" transform="matrix(1.0, 0.0, 0.0, 1.0, 7.4, 11.8)">
      <path d="M-7.4 -4.0 L3.1 -11.8 Q6.15 -9.25 7.35 -8.45 L-2.3 -0.3 Q-6.7 1.05 -7.4 -4.0" fill="#855f45" fill-rule="evenodd" stroke="none"/>
      <path d="M-7.4 -4.0 L3.1 -11.8 Q6.15 -9.25 7.35 -8.45 L-2.3 -0.3" fill="none" stroke="#000000" stroke-linecap="round" stroke-linejoin="round" stroke-opacity="0.3019608" stroke-width="0.05"/>
    </g>
    <g id="sprite9" transform="matrix(1.0, 0.0, 0.0, 1.0, 15.9, 44.85)">
      <use height="44.85" transform="matrix(1.0, 0.0, 0.0, 1.0, -15.9, -44.85)" width="31.8" xlink:href="#shape8"/>
    </g>
    <g id="shape8" transform="matrix(1.0, 0.0, 0.0, 1.0, 15.9, 44.85)">
      <path d="M11.9 -27.05 Q9.05 -27.2 8.95 -32.3 L9.15 -34.2 Q10.7 -33.15 11.9 -27.05" fill="#ffefc0" fill-rule="evenodd" stroke="none"/>
      <path d="M8.95 -32.3 Q9.05 -27.2 11.9 -27.05 L12.45 -24.6 Q11.25 -22.0 8.5 -25.95 8.55 -29.55 8.95 -32.3" fill="#ffce94" fill-rule="evenodd" stroke="none"/>
      <path d="M8.95 -32.3 Q8.55 -29.55 8.5 -25.95 M12.45 -24.6 L11.9 -27.05 Q10.7 -33.15 9.15 -34.2 L8.95 -32.3 Z" fill="none" stroke="#000000" stroke-linecap="round" stroke-linejoin="round" stroke-opacity="0.3019608" stroke-width="0.05"/>
      <path d="M5.05 -36.3 Q7.65 -33.65 9.1 -30.3 L10.6 -26.4 9.75 -23.15 Q9.5 -24.8 7.65 -29.8 5.95 -34.6 5.05 -36.3" fill="#ffb937" fill-rule="evenodd" stroke="none"/>
      <path d="M5.05 -36.3 Q5.95 -34.6 7.65 -29.8 9.5 -24.8 9.75 -23.15 L10.6 -26.4 11.55 -28.85 Q11.65 -27.3 13.2 -23.0 14.7 -18.5 15.6 -17.05 16.2 -16.1 15.65 -8.85 9.8 -5.7 5.05 -14.0 3.05 -17.25 2.55 -21.05 2.1 -24.65 1.95 -28.15 1.85 -30.55 -0.5 -38.15 L2.6 -34.8 4.75 -32.2 5.05 -36.3" fill="#963807" fill-rule="evenodd" stroke="none"/>
      <path d="M9.1 -30.3 Q7.65 -33.65 5.05 -36.3 L4.75 -32.2 2.6 -34.8 -0.5 -38.15 Q1.85 -30.55 1.95 -28.15 2.1 -24.65 2.55 -21.05 3.05 -17.25 5.05 -14.0 9.8 -5.7 15.65 -8.85 16.2 -16.1 15.6 -17.05 14.7 -18.5 13.2 -23.0 11.65 -27.3 11.55 -28.85 L10.6 -26.4 M9.75 -23.15 L10.6 -26.4" fill="none" stroke="#000000" stroke-linecap="round" stroke-linejoin="round" stroke-opacity="0.3019608" stroke-width="0.05"/>
      <path d="M4.35 -33.95 Q4.15 -36.95 5.3 -36.9 10.4 -31.35 10.25 -24.95 6.45 -26.8 4.35 -33.95" fill="#ffefc0" fill-rule="evenodd" stroke="none"/>
      <path d="M10.25 -24.95 Q10.45 -24.2 10.2 -23.65 9.4 -21.1 6.25 -26.25 L6.05 -26.7 Q4.55 -31.6 4.35 -33.95 6.45 -26.8 10.25 -24.95" fill="#ffce94" fill-rule="evenodd" stroke="none"/>
      <path d="M4.35 -33.95 Q4.15 -36.95 5.3 -36.9 10.4 -31.35 10.25 -24.95 10.45 -24.2 10.2 -23.65 M6.25 -26.25 L6.35 -25.9 6.7 -24.8 M6.35 -25.9 L6.2 -26.25 6.15 -26.5 6.0 -26.85 6.05 -26.7 Q4.55 -31.6 4.35 -33.95 M6.15 -26.5 L6.05 -26.7 6.25 -26.25" fill="none" stroke="#000000" stroke-linecap="round" stroke-linejoin="round" stroke-opacity="0.3019608" stroke-width="0.05"/>
      <path d="M1.45 -0.25 L1.45 -14.15 1.5 -14.2 8.95 -17.05 Q15.0 -16.75 14.05 -9.9 L13.2 -8.75 Q12.3 -7.4 11.1 -6.35 10.05 -5.4 1.85 0.0 L1.45 -0.25" fill="#963807" fill-rule="evenodd" stroke="none"/>
      <path d="M1.45 -14.15 L1.5 -14.2 8.95 -17.05 M14.05 -9.9 L13.2 -8.75 Q12.3 -7.4 11.1 -6.35 10.05 -5.4 1.85 0.0 L1.45 -0.25" fill="none" stroke="#000000" stroke-linecap="round" stroke-linejoin="round" stroke-opacity="0.3019608" stroke-width="0.05"/>
      <path d="M-5.8 -43.8 L-5.95 -44.35 Q-0.55 -40.65 3.5 -33.95 3.5 -31.1 1.9 -32.1 -1.55 -38.9 -5.8 -43.8" fill="#ffefc0" fill-rule="evenodd" stroke="none"/>
      <path d="M3.5 -33.95 Q5.4 -30.95 6.55 -25.75 L5.1 -26.5 Q-1.75 -33.5 -5.8 -43.8 -1.55 -38.9 1.9 -32.1 3.5 -31.1 3.5 -33.95" fill="#ffce94" fill-rule="evenodd" stroke="none"/>
      <path d="M3.5 -33.95 Q5.4 -30.95 6.55 -25.75 M5.1 -26.5 Q-1.75 -33.5 -5.8 -43.8 L-5.95 -44.35 Q-0.55 -40.65 3.5 -33.95 Z" fill="none" stroke="#000000" stroke-linecap="round" stroke-linejoin="round" stroke-opacity="0.3019608" stroke-width="0.05"/>
      <path d="M5.45 -26.95 Q2.4 -25.65 3.95 -20.95 -13.15 -35.1 -13.7 -44.35 -1.95 -37.3 5.45 -26.95" fill="#ffefc0" fill-rule="evenodd" stroke="none"/>
      <path d="M5.45 -26.95 Q-1.95 -37.3 -13.7 -44.35 -13.15 -35.1 3.95 -20.95" fill="none" stroke="#000000" stroke-linecap="round" stroke-linejoin="round" stroke-opacity="0.3019608" stroke-width="0.05"/>
      <path d="M-15.85 -43.7 L-15.75 -44.25 -15.7 -44.85 Q-7.4 -40.9 0.85 -28.05 L0.85 -27.85 Q0.35 -26.3 2.3 -23.65 1.95 -22.6 2.3 -21.6 -9.15 -30.3 -15.85 -43.7" fill="#ffefc0" fill-rule="evenodd" stroke="none"/>
      <path d="M2.3 -21.6 Q2.55 -20.55 3.2 -19.45 4.45 -17.4 6.9 -15.05 L2.0 -18.75 Q-16.6 -34.05 -15.85 -43.7 -9.15 -30.3 2.3 -21.6" fill="#ffce94" fill-rule="evenodd" stroke="none"/>
      <path d="M-15.85 -43.7 L-15.75 -44.25 -15.7 -44.85 Q-7.4 -40.9 0.85 -28.05 L0.85 -27.85 M6.9 -15.05 L2.0 -18.75 Q-16.6 -34.05 -15.85 -43.7 Z" fill="none" stroke="#000000" stroke-linecap="round" stroke-linejoin="round" stroke-opacity="0.3019608" stroke-width="0.05"/>
    </g>
    <g id="sprite10" transform="matrix(1.0, 0.0, 0.0, 1.0, 18.25, 112.1)">
      <use height="112.2" transform="matrix(1.0, 0.0, 0.0, 1.0, -18.25, -112.1)" width="36.55" xlink:href="#shape9"/>
    </g>
    <g id="shape9" transform="matrix(1.0, 0.0, 0.0, 1.0, 18.25, 112.1)">
      <path d="M13.65 -24.45 L18.1 -4.15 18.1 -3.65 Q18.6 1.1 16.75 -0.35 L16.55 -0.45 15.9 -3.95 10.45 -30.2 Q6.95 -44.1 3.0 -54.05 L-1.15 -63.35 -3.2 -67.2 -3.75 -68.2 -3.55 -68.25 -2.1 -65.85 Q-1.2 -64.7 4.15 -53.75 8.0 -44.55 11.75 -31.65 L13.65 -24.45" fill="#663300" fill-rule="evenodd" stroke="none"/>
      <path d="M13.65 -24.45 L18.1 -4.15 18.1 -3.65 Q18.6 1.1 16.75 -0.35 L16.55 -0.45 15.9 -3.95 10.45 -30.2 Q6.95 -44.1 3.0 -54.05 L-1.15 -63.35 -3.2 -67.2 -3.75 -68.2 -3.55 -68.25 -2.1 -65.85 Q-1.2 -64.7 4.15 -53.75 8.0 -44.55 11.75 -31.65 L13.65 -24.45 Z" fill="none" stroke="#000000" stroke-linecap="butt" stroke-linejoin="miter" stroke-miterlimit="3.0" stroke-opacity="0.18039216" stroke-width="0.25"/>
      <path d="M-15.35 -112.1 Q-8.7 -108.35 -5.35 -101.0 -1.0 -91.4 0.7 -80.8 L-0.3 -82.0 Q1.25 -77.9 1.15 -73.2 L1.05 -70.1 -6.9 -86.8 -3.8 -84.55 Q-3.45 -85.3 -3.5 -85.85 -2.0 -102.3 -15.35 -112.1" fill="#a04001" fill-rule="evenodd" stroke="none"/>
      <path d="M-15.35 -112.1 Q-2.0 -102.3 -3.5 -85.85 -3.45 -85.3 -3.8 -84.55 L-6.9 -86.8 -7.25 -87.65 Q-8.85 -89.8 -11.55 -95.6 -14.2 -101.45 -15.35 -112.1" fill="#ec8e02" fill-rule="evenodd" stroke="none"/>
      <path d="M-6.9 -86.8 L1.05 -70.1 1.15 -73.2 Q1.25 -77.9 -0.3 -82.0 L0.7 -80.8 Q-1.0 -91.4 -5.35 -101.0 -8.7 -108.35 -15.35 -112.1 M-7.25 -87.65 Q-8.85 -89.8 -11.55 -95.6 -14.2 -101.45 -15.35 -112.1" fill="none" stroke="#000000" stroke-linecap="round" stroke-linejoin="round" stroke-opacity="0.3019608" stroke-width="0.05"/>
      <path d="M-9.0 -86.15 L-6.35 -67.6 -8.15 -70.1 Q-9.9 -72.6 -11.95 -76.6 -16.35 -86.3 -17.9 -96.8 -19.2 -104.85 -15.85 -112.0 -21.4 -95.65 -11.25 -83.25 L-10.3 -82.4 -9.0 -86.15" fill="#a04001" fill-rule="evenodd" stroke="none"/>
      <path d="M-15.85 -112.0 Q-10.9 -102.6 -9.95 -96.15 -9.05 -89.85 -9.15 -87.1 L-9.0 -86.15 -10.3 -82.4 -11.25 -83.25 Q-21.4 -95.65 -15.85 -112.0" fill="#ec8e02" fill-rule="evenodd" stroke="none"/>
      <path d="M-15.85 -112.0 Q-10.9 -102.6 -9.95 -96.15 -9.05 -89.85 -9.15 -87.1 M-9.0 -86.15 L-6.35 -67.6 -8.15 -70.1 Q-9.9 -72.6 -11.95 -76.6 -16.35 -86.3 -17.9 -96.8 -19.2 -104.85 -15.85 -112.0 Z" fill="none" stroke="#000000" stroke-linecap="round" stroke-linejoin="round" stroke-opacity="0.3019608" stroke-width="0.05"/>
      <path d="M4.45 -71.2 L2.6 -67.65 Q0.1 -64.95 -3.5 -64.1 -7.2 -63.05 -9.85 -64.4 -12.1 -65.8 -12.1 -69.05 L-10.65 -81.9 Q-11.05 -74.6 -7.35 -69.6 L-4.1 -67.8 0.3 -68.95 4.45 -71.2" fill="#ffce94" fill-rule="evenodd" stroke="none"/>
      <path d="M-10.65 -81.9 L-10.65 -99.25 2.7 -78.35 Q3.9 -76.15 4.25 -73.75 L4.45 -72.3 4.45 -71.2 0.3 -68.95 -4.1 -67.8 -7.35 -69.6 Q-11.05 -74.6 -10.65 -81.9" fill="#ffefc0" fill-rule="evenodd" stroke="none"/>
      <path d="M-10.65 -81.9 L-10.65 -99.25 2.7 -78.35 Q3.9 -76.15 4.25 -73.75 L4.45 -72.3 4.45 -71.2 2.6 -67.65 Q0.1 -64.95 -3.5 -64.1 -7.2 -63.05 -9.85 -64.4 -12.1 -65.8 -12.1 -69.05 L-10.65 -81.9 M-7.35 -69.6 L-4.1 -67.8" fill="none" stroke="#000000" stroke-linecap="round" stroke-linejoin="round" stroke-opacity="0.3019608" stroke-width="0.05"/>
      <path d="M-0.05 -68.45 Q-1.4 -66.3 -3.2 -65.7 -5.05 -65.15 -6.65 -66.4 -7.95 -67.75 -7.95 -70.15 -7.95 -72.6 -6.65 -74.8 -5.05 -77.1 -3.2 -77.65 -1.4 -78.25 -0.05 -76.85 1.5 -75.6 1.5 -73.15 1.5 -70.75 -0.05 -68.45" fill="#ff9900" fill-rule="evenodd" stroke="none"/>
      <path d="M-0.6 -68.85 Q-1.7 -67.05 -3.25 -66.55 -4.75 -66.05 -6.1 -67.15 -7.15 -68.3 -7.15 -70.3 -7.15 -72.35 -6.1 -74.15 -4.75 -76.05 -3.25 -76.55 -1.7 -77.05 -0.6 -75.85 0.7 -74.85 0.7 -72.8 0.7 -70.8 -0.6 -68.85" fill="#cc6600" fill-rule="evenodd" stroke="none"/>
      <path d="M-1.8 -70.2 Q-2.45 -69.1 -3.3 -68.85 -4.2 -68.55 -4.95 -69.2 -5.6 -69.85 -5.6 -71.0 -5.6 -72.2 -4.95 -73.25 -4.2 -74.35 -3.3 -74.65 -2.45 -74.9 -1.8 -74.25 -1.05 -73.65 -1.05 -72.45 -1.05 -71.3 -1.8 -70.2" fill="#663300" fill-rule="evenodd" stroke="none"/>
    </g>
    <g id="sprite11" transform="matrix(1.0, 0.0, 0.0, 1.0, 10.25, 53.25)">
      <use height="53.25" transform="matrix(1.0, 0.0, 0.0, 1.0, -10.25, -53.25)" width="20.5" xlink:href="#shape10"/>
    </g>
    <g id="shape10" transform="matrix(1.0, 0.0, 0.0, 1.0, 10.25, 53.25)">
      <path d="M8.8 -27.0 L2.8 -27.0 Q2.45 -36.4 9.7 -46.25 10.85 -36.15 9.5 -30.3 L8.8 -27.0" fill="#ffb937" fill-rule="evenodd" stroke="none"/>
      <path d="M9.7 -46.25 Q2.45 -36.4 2.8 -27.0 L2.0 -25.5 Q2.3 -29.7 2.8 -32.45 4.15 -40.05 9.7 -46.25" fill="#a04001" fill-rule="evenodd" stroke="none"/>
      <path d="M8.8 -27.0 L9.5 -30.3 Q10.85 -36.15 9.7 -46.25 M2.0 -25.5 Q2.3 -29.7 2.8 -32.45 4.15 -40.05 9.7 -46.25" fill="none" stroke="#000000" stroke-linecap="round" stroke-linejoin="round" stroke-opacity="0.3019608" stroke-width="0.05"/>
      <path d="M3.85 -8.2 L2.15 -0.95 Q1.65 0.0 1.3 0.0 L3.05 -7.55 3.85 -8.2" fill="#663300" fill-rule="evenodd" stroke="none"/>
      <path d="M5.3 -17.3 L3.85 -8.2 3.05 -7.55 4.5 -16.45 5.3 -17.3" fill="#cc6600" fill-rule="evenodd" stroke="none"/>
      <path d="M4.5 -16.45 L5.0 -21.2 Q5.4 -22.65 5.75 -21.55 L5.3 -17.3 4.5 -16.45" fill="#ff9900" fill-rule="evenodd" stroke="none"/>
      <path d="M8.1 -22.3 Q6.7 -19.05 5.3 -17.3 L5.75 -21.55 Q5.4 -22.65 5.0 -21.2 L4.5 -16.45 Q2.95 -15.0 1.25 -15.1 1.4 -19.9 1.8 -23.9 2.55 -28.4 4.4 -31.75 6.15 -35.2 7.35 -34.35 8.85 -34.1 8.85 -29.0 8.75 -26.2 8.1 -22.3" fill="#ffefc0" fill-rule="evenodd" stroke="none"/>
      <path d="M5.3 -17.3 Q6.7 -19.05 8.1 -22.3 L6.9 -16.1 5.6 -10.7 Q4.45 -6.35 2.15 -0.95 L3.85 -8.2 5.3 -17.3 M1.25 -15.1 Q2.95 -15.0 4.5 -16.45 L3.05 -7.55 1.3 0.0 Q0.95 -0.1 1.2 -7.65 L1.25 -15.1" fill="#ffce94" fill-rule="evenodd" stroke="none"/>
      <path d="M2.15 -0.95 Q4.45 -6.35 5.6 -10.7 L6.9 -16.1 8.1 -22.3 Q8.75 -26.2 8.85 -29.0 8.85 -34.1 7.35 -34.35 6.15 -35.2 4.4 -31.75 2.55 -28.4 1.8 -23.9 1.4 -19.9 1.25 -15.1 L1.2 -7.65 Q0.95 -0.1 1.3 0.0 1.65 0.0 2.15 -0.95 Z" fill="none" stroke="#000000" stroke-linecap="round" stroke-linejoin="round" stroke-opacity="0.3019608" stroke-width="0.05"/>
      <path d="M6.0 -25.8 L5.4 -24.2 4.85 -25.05 Q4.05 -26.5 4.25 -27.85 4.4 -29.25 5.0 -30.35 5.55 -31.5 6.25 -31.85 6.9 -32.2 7.2 -31.6 7.5 -30.9 7.25 -29.55 7.05 -28.25 6.0 -25.8" fill="#ca7902" fill-rule="evenodd" stroke="none"/>
      <path d="M-5.95 -26.75 Q-7.2 -29.35 -8.85 -35.45 -10.7 -42.05 -10.1 -53.25 1.1 -41.55 -1.45 -26.75 L-5.95 -26.75" fill="#ffb937" fill-rule="evenodd" stroke="none"/>
      <path d="M-1.45 -26.75 Q1.1 -41.55 -10.1 -53.25 -3.75 -48.05 -1.55 -39.75 0.25 -33.35 0.1 -25.1 L-1.45 -26.75" fill="#a04001" fill-rule="evenodd" stroke="none"/>
      <path d="M-10.1 -53.25 Q-10.7 -42.05 -8.85 -35.45 -7.2 -29.35 -5.95 -26.75 M-10.1 -53.25 Q-3.75 -48.05 -1.55 -39.75 0.25 -33.35 0.1 -25.1" fill="none" stroke="#000000" stroke-linecap="round" stroke-linejoin="round" stroke-opacity="0.3019608" stroke-width="0.05"/>
      <path d="M0.15 -9.1 L2.3 -1.9 Q2.75 -1.25 2.95 -1.5 1.8 -5.05 0.8 -8.95 L0.15 -9.1" fill="#663300" fill-rule="evenodd" stroke="none"/>
      <path d="M-2.05 -18.55 L0.15 -9.1 0.8 -8.95 -1.45 -18.25 -2.05 -18.55" fill="#cc6600" fill-rule="evenodd" stroke="none"/>
      <path d="M-1.45 -18.25 L-2.45 -23.35 Q-2.85 -24.7 -2.9 -23.2 L-2.05 -18.55 -1.45 -18.25" fill="#ff9900" fill-rule="evenodd" stroke="none"/>
      <path d="M-4.6 -22.25 Q-3.2 -19.55 -2.05 -18.55 L-2.9 -23.2 Q-2.85 -24.7 -2.45 -23.35 L-1.45 -18.25 Q-0.25 -17.7 0.85 -19.15 L-0.75 -28.9 Q-1.9 -33.65 -3.55 -36.15 -5.15 -38.8 -5.8 -36.85 -6.75 -35.4 -6.0 -29.5 L-4.6 -22.25" fill="#ffefc0" fill-rule="evenodd" stroke="none"/>
      <path d="M-2.05 -18.55 Q-3.2 -19.55 -4.6 -22.25 L-2.85 -15.9 -1.35 -10.65 Q0.05 -6.45 2.3 -1.9 L0.15 -9.1 -2.05 -18.55 M0.85 -19.15 Q-0.25 -17.7 -1.45 -18.25 L0.8 -8.95 Q1.8 -5.05 2.95 -1.5 3.2 -1.95 1.95 -10.5 L0.85 -19.15" fill="#ffce94" fill-rule="evenodd" stroke="none"/>
      <path d="M2.3 -1.9 Q0.05 -6.45 -1.35 -10.65 L-2.85 -15.9 -4.6 -22.25 -6.0 -29.5 Q-6.75 -35.4 -5.8 -36.85 -5.15 -38.8 -3.55 -36.15 -1.9 -33.65 -0.75 -28.9 L0.85 -19.15 1.95 -10.5 Q3.2 -1.95 2.95 -1.5 2.75 -1.25 2.3 -1.9 Z" fill="none" stroke="#000000" stroke-linecap="round" stroke-linejoin="round" stroke-opacity="0.3019608" stroke-width="0.05"/>
      <path d="M-3.7 -28.0 L-3.1 -26.55 -2.9 -27.95 Q-2.55 -30.25 -2.85 -31.7 -3.15 -33.2 -3.7 -34.05 -4.25 -34.95 -4.75 -34.85 -5.2 -34.8 -5.3 -33.7 L-5.05 -31.35 Q-4.75 -30.0 -3.7 -28.0" fill="#ca7902" fill-rule="evenodd" stroke="none"/>
    </g>
    <g id="sprite12" transform="matrix(1.0, 0.0, 0.0, 1.0, 23.1, 48.0)">
      <use height="48.0" transform="matrix(1.0, 0.0, 0.0, 1.0, -23.1, -48.0)" width="46.15" xlink:href="#shape11"/>
    </g>
    <g id="shape11" transform="matrix(1.0, 0.0, 0.0, 1.0, 23.1, 48.0)">
      <path d="M4.2 -30.1 L4.2 -29.25 3.2 -24.05 Q-10.4 -31.5 -12.25 -48.0 -3.25 -41.35 0.6 -35.7 L4.2 -30.1" fill="#ffb937" fill-rule="evenodd" stroke="none"/>
      <path d="M3.2 -24.05 L3.2 -20.35 Q-2.7 -26.05 -7.4 -32.8 -12.25 -39.85 -12.25 -48.0 -10.4 -31.5 3.2 -24.05" fill="#a04001" fill-rule="evenodd" stroke="none"/>
      <path d="M3.2 -20.35 Q-2.7 -26.05 -7.4 -32.8 -12.25 -39.85 -12.25 -48.0 -3.25 -41.35 0.6 -35.7 L4.2 -30.1" fill="none" stroke="#000000" stroke-linecap="round" stroke-linejoin="round" stroke-opacity="0.3019608" stroke-width="0.05"/>
      <path d="M13.95 -12.3 L17.55 -5.75 Q17.6 -4.95 17.2 -4.85 L13.5 -11.7 13.95 -12.3" fill="#663300" fill-rule="evenodd" stroke="none"/>
      <path d="M8.75 -20.45 L13.95 -12.3 13.5 -11.7 8.35 -19.65 8.75 -20.45" fill="#cc6600" fill-rule="evenodd" stroke="none"/>
      <path d="M8.75 -20.45 L8.35 -19.65 5.4 -23.9 Q4.8 -25.15 6.0 -24.25 L8.75 -20.45" fill="#ff9900" fill-rule="evenodd" stroke="none"/>
      <path d="M8.3 -25.1 Q9.1 -22.1 8.75 -20.45 L6.0 -24.25 Q4.8 -25.15 5.4 -23.9 L8.35 -19.65 Q7.65 -18.25 5.5 -18.25 2.0 -22.5 -0.5 -26.1 -3.15 -30.1 -3.5 -33.2 -4.0 -36.4 -1.9 -35.7 0.15 -35.6 4.05 -31.05 L8.3 -25.1" fill="#ffefc0" fill-rule="evenodd" stroke="none"/>
      <path d="M8.3 -25.1 L11.65 -19.5 14.25 -14.65 Q16.15 -10.7 17.55 -5.75 L13.95 -12.3 8.75 -20.45 Q9.1 -22.1 8.3 -25.1 M17.2 -4.85 Q16.65 -5.0 11.2 -11.65 L5.5 -18.25 Q7.65 -18.25 8.35 -19.65 L13.5 -11.7 17.2 -4.85" fill="#ffce94" fill-rule="evenodd" stroke="none"/>
      <path d="M17.55 -5.75 Q16.15 -10.7 14.25 -14.65 L11.65 -19.5 8.3 -25.1 M17.55 -5.75 Q17.6 -4.95 17.2 -4.85 16.65 -5.0 11.2 -11.65 L5.5 -18.25 Q2.0 -22.5 -0.5 -26.1 -3.15 -30.1 -3.5 -33.2 -4.0 -36.4 -1.9 -35.7 0.15 -35.6 4.05 -31.05 L8.3 -25.1" fill="none" stroke="#000000" stroke-linecap="round" stroke-linejoin="round" stroke-opacity="0.3019608" stroke-width="0.05"/>
      <path d="M3.05 -28.05 L3.55 -26.6 2.25 -27.3 Q0.15 -28.5 -0.7 -29.75 -1.55 -30.95 -1.65 -32.0 -1.85 -33.1 -1.35 -33.45 -0.8 -33.8 0.1 -33.2 1.0 -32.65 1.7 -31.45 L3.05 -28.05" fill="#ca7902" fill-rule="evenodd" stroke="none"/>
      <path d="M-23.1 -25.9 Q-11.7 -25.45 -5.8 -21.85 -2.2 -19.75 -0.05 -18.1 L-0.15 -18.1 1.35 -9.75 Q-15.45 -8.1 -23.1 -25.9" fill="#ffb937" fill-rule="evenodd" stroke="none"/>
      <path d="M-23.1 -25.9 Q-15.45 -8.1 1.35 -9.75 L1.35 -6.3 Q-6.65 -8.0 -12.6 -11.5 -20.05 -15.85 -23.1 -25.9" fill="#a04001" fill-rule="evenodd" stroke="none"/>
      <path d="M-0.05 -18.1 Q-2.2 -19.75 -5.8 -21.85 -11.7 -25.45 -23.1 -25.9 M1.35 -6.3 Q-6.65 -8.0 -12.6 -11.5 -20.05 -15.85 -23.1 -25.9" fill="none" stroke="#000000" stroke-linecap="round" stroke-linejoin="round" stroke-opacity="0.3019608" stroke-width="0.05"/>
      <path d="M16.45 -6.0 L22.9 -1.45 Q23.25 -0.5 22.9 -0.05 L16.25 -4.75 16.45 -6.0" fill="#663300" fill-rule="evenodd" stroke="none"/>
      <path d="M7.7 -10.85 Q12.2 -8.65 16.45 -6.0 L16.25 -4.75 Q12.25 -7.25 7.65 -9.55 L7.7 -10.85" fill="#cc6600" fill-rule="evenodd" stroke="none"/>
      <path d="M7.7 -10.85 L7.65 -9.55 2.85 -11.8 Q1.7 -12.75 3.35 -12.8 L7.7 -10.85" fill="#ff9900" fill-rule="evenodd" stroke="none"/>
      <path d="M5.3 -16.1 Q7.35 -13.25 7.7 -10.85 L3.35 -12.8 Q1.7 -12.75 2.85 -11.8 L7.65 -9.55 Q7.55 -7.05 5.45 -4.95 0.1 -6.75 -4.0 -8.6 -8.4 -11.0 -10.1 -14.45 -11.95 -17.85 -9.5 -19.1 -7.5 -20.9 -1.6 -19.15 1.55 -18.2 5.3 -16.1" fill="#ffefc0" fill-rule="evenodd" stroke="none"/>
      <path d="M5.3 -16.1 L11.0 -12.4 15.7 -9.1 Q19.35 -6.2 22.9 -1.45 L16.45 -6.0 Q12.2 -8.65 7.7 -10.85 7.35 -13.25 5.3 -16.1 M22.9 -0.05 Q22.3 0.4 13.9 -2.45 L5.45 -4.95 Q7.55 -7.05 7.65 -9.55 12.25 -7.25 16.25 -4.75 L22.9 -0.05" fill="#ffce94" fill-rule="evenodd" stroke="none"/>
      <path d="M22.9 -1.45 Q19.35 -6.2 15.7 -9.1 L11.0 -12.4 5.3 -16.1 M22.9 -1.45 Q23.25 -0.5 22.9 -0.05 22.3 0.4 13.9 -2.45 L5.45 -4.95 Q0.1 -6.75 -4.0 -8.6 -8.4 -11.0 -10.1 -14.45 -11.95 -17.85 -9.5 -19.1 -7.5 -20.9 -1.6 -19.15 1.55 -18.2 5.3 -16.1" fill="none" stroke="#000000" stroke-linecap="round" stroke-linejoin="round" stroke-opacity="0.3019608" stroke-width="0.05"/>
      <path d="M-1.3 -14.55 L-0.15 -13.25 -1.7 -12.85 -5.75 -12.95 Q-7.15 -13.65 -7.7 -14.75 -8.35 -15.9 -8.0 -16.85 -7.65 -17.8 -6.45 -17.95 -5.35 -18.15 -4.1 -17.35 -2.85 -16.65 -1.3 -14.55" fill="#ca7902" fill-rule="evenodd" stroke="none"/>
    </g>
    <g id="sprite13" transform="matrix(1.0, 0.0, 0.0, 1.0, 21.8, 44.9)">
      <use height="44.9" transform="matrix(1.0, 0.0, 0.0, 1.0, -21.8, -44.9)" width="43.6" xlink:href="#shape12"/>
    </g>
    <g id="shape12" transform="matrix(1.0, 0.0, 0.0, 1.0, 21.8, 44.9)">
      <path d="M20.85 -6.75 L20.75 -6.65 20.65 -6.75 20.85 -6.75" fill="#5da9f7" fill-rule="evenodd" stroke="none"/>
      <path d="M12.65 -1.95 Q7.05 -0.4 3.25 -0.05 -1.35 0.15 -6.35 -0.95 L-9.2 -1.5 Q-12.15 -2.25 -15.35 -3.65 -20.55 -7.55 -21.35 -13.9 -22.8 -23.25 -19.5 -32.65 L-17.9 -35.3 -17.2 -35.75 Q-18.15 -32.45 -18.55 -29.05 L-17.2 -23.15 Q-17.0 -21.75 -13.75 -13.45 -13.55 -12.85 -10.1 -9.55 3.7 -0.7 20.65 -6.75 L20.75 -6.65 Q16.3 -3.0 12.65 -1.95" fill="#963807" fill-rule="evenodd" stroke="none"/>
      <path d="M-19.35 -40.05 L-18.2 -40.1 -17.65 -40.05 -14.45 -39.35 Q-14.7 -40.7 -14.45 -42.05 -14.25 -43.55 -13.45 -44.9 L-10.35 -40.6 -7.4 -42.2 -6.0 -42.4 -6.55 -41.45 -6.95 -40.2 -5.75 -39.95 Q-5.2 -39.85 0.05 -37.45 L6.9 -34.0 10.9 -31.1 Q16.95 -26.25 19.55 -21.85 L19.65 -21.65 19.65 -12.85 13.05 -8.05 Q0.5 -9.3 -6.8 -13.95 -11.7 -19.25 -14.2 -26.35 L-14.7 -27.9 -14.7 -37.8 -15.55 -38.45 -16.85 -38.8 -18.9 -39.7 -19.35 -40.05" fill="#ffb937" fill-rule="evenodd" stroke="none"/>
      <path d="M-18.9 -39.7 L-16.85 -38.8 -15.55 -38.45 -14.7 -37.8 -14.7 -27.9 -14.2 -26.35 Q-11.7 -19.25 -6.8 -13.95 0.5 -9.3 13.05 -8.05 L19.65 -12.85 19.65 -21.65 Q20.95 -19.35 21.3 -17.2 22.2 -10.85 21.55 -7.9 21.45 -7.2 20.85 -6.75 L20.65 -6.75 Q3.7 -0.7 -10.1 -9.55 -13.55 -12.85 -13.75 -13.45 -17.0 -21.75 -17.2 -23.15 L-18.55 -29.05 Q-18.15 -32.45 -17.2 -35.75 L-17.9 -35.3 -20.4 -35.55 Q-18.0 -37.3 -17.1 -37.55 -17.75 -38.75 -18.9 -39.7" fill="#e87a02" fill-rule="evenodd" stroke="none"/>
      <path d="M19.55 -21.85 Q16.95 -26.25 10.9 -31.1 L6.9 -34.0 0.05 -37.45 Q-5.2 -39.85 -5.75 -39.95 L-6.95 -40.2 -6.55 -41.45 -6.0 -42.4 -7.4 -42.2 -10.35 -40.6 -13.45 -44.9 Q-14.25 -43.55 -14.45 -42.05 -14.7 -40.7 -14.45 -39.35 L-17.65 -40.05 -18.2 -40.1 -19.35 -40.05 M12.65 -1.95 Q7.05 -0.4 3.25 -0.05 -1.35 0.15 -6.35 -0.95 L-9.2 -1.5 Q-12.15 -2.25 -15.35 -3.65 -20.55 -7.55 -21.35 -13.9 -22.8 -23.25 -19.5 -32.65 L-17.9 -35.3 -20.4 -35.55 Q-18.0 -37.3 -17.1 -37.55 -17.75 -38.75 -18.9 -39.7 M20.85 -6.75 L20.75 -6.65 M20.85 -6.75 Q21.45 -7.2 21.55 -7.9 22.2 -10.85 21.3 -17.2 20.95 -19.35 19.65 -21.65" fill="none" stroke="#000000" stroke-linecap="round" stroke-linejoin="round" stroke-opacity="0.3019608" stroke-width="0.05"/>
    </g>
    <g id="sprite14" transform="matrix(1.0, 0.0, 0.0, 1.0, 24.45, 39.35)">
      <use height="39.35" transform="matrix(1.0, 0.0, 0.0, 1.0, -24.45, -39.35)" width="41.7" xlink:href="#shape13"/>
    </g>
    <g id="shape13" transform="matrix(1.0, 0.0, 0.0, 1.0, 24.45, 39.35)">
      <path d="M-18.35 -25.95 L-18.15 -26.0 Q-17.1 -24.55 -17.6 -22.3 -17.85 -22.2 -18.05 -22.05 L-21.6 -19.85 -22.25 -19.3 Q-24.0 -21.05 -23.15 -23.1 L-22.4 -23.55 -18.35 -25.95" fill="#a36a37" fill-rule="evenodd" stroke="none"/>
      <path d="M-23.15 -23.1 Q-24.0 -21.05 -22.25 -19.3 L-24.45 -18.0 -24.45 -22.35 -23.15 -23.1 M-17.6 -22.3 Q-17.1 -24.55 -18.15 -26.0 L-10.15 -30.5 -9.45 -30.95 -7.0 -28.75 -7.4 -28.5 -17.6 -22.3" fill="#6b4125" fill-rule="evenodd" stroke="none"/>
      <path d="M-18.35 -25.95 L-22.4 -23.55 -23.15 -23.1 -24.45 -22.35 M-22.25 -19.3 L-21.6 -19.85 -18.05 -22.05 M-18.15 -26.0 L-10.15 -30.5 -9.45 -30.95 -7.0 -28.75 -7.4 -28.5 -17.6 -22.3 M-24.45 -18.0 L-22.25 -19.3" fill="none" stroke="#32251b" stroke-linecap="round" stroke-linejoin="round" stroke-opacity="0.4509804" stroke-width="0.05"/>
      <path d="M-11.05 -11.75 Q-8.55 -12.1 -6.25 -11.3 -6.2 -11.1 -6.3 -10.9 L-6.55 -9.95 Q-10.6 -8.2 -12.25 -8.95 L-11.75 -9.95 -11.05 -11.75" fill="#a36a37" fill-rule="evenodd" stroke="none"/>
      <path d="M-11.05 -11.75 L-6.65 -23.25 -6.25 -23.9 -0.8 -26.65 -1.0 -26.1 -6.25 -11.3 Q-8.55 -12.1 -11.05 -11.75 M-6.55 -9.95 Q-8.4 -4.75 -9.55 0.0 L-14.8 -1.75 Q-13.6 -5.75 -12.25 -8.95 -10.6 -8.2 -6.55 -9.95" fill="#6b4125" fill-rule="evenodd" stroke="none"/>
      <path d="M-6.25 -11.3 L-1.0 -26.1 -0.8 -26.65 -6.25 -23.9 -6.65 -23.25 -11.05 -11.75 M-6.25 -11.3 Q-6.2 -11.1 -6.3 -10.9 L-6.55 -9.95 Q-8.4 -4.75 -9.55 0.0 L-14.8 -1.75 Q-13.6 -5.75 -12.25 -8.95 L-11.75 -9.95 -11.05 -11.75" fill="none" stroke="#32251b" stroke-linecap="round" stroke-linejoin="round" stroke-opacity="0.4509804" stroke-width="0.05"/>
      <path d="M13.15 -25.25 L14.4 -24.45 11.65 -24.9 13.15 -25.25" fill="#a31834" fill-rule="evenodd" stroke="none"/>
      <path d="M11.35 -24.8 Q7.8 -23.0 5.15 -20.75 2.4 -18.4 -2.55 -12.35 L-7.0 -6.9 -7.8 -6.5 -8.55 -6.25 -8.8 -6.45 -12.2 -6.55 Q-9.6 -15.9 -12.35 -25.45 -10.5 -27.2 -8.3 -31.5 L-12.3 -27.6 Q-9.85 -35.15 -6.55 -39.25 -0.7 -29.25 8.85 -27.1 L10.3 -27.25 14.2 -29.35 Q16.15 -27.75 17.25 -23.4 15.5 -24.35 14.55 -24.35 L13.15 -25.25 11.65 -24.9 11.35 -24.8" fill="#6b5a52" fill-rule="evenodd" stroke="none"/>
      <path d="M11.35 -24.8 L11.65 -24.9 13.15 -25.25 14.55 -24.35 Q15.5 -24.35 17.25 -23.4 16.15 -27.75 14.2 -29.35 L10.3 -27.25 8.85 -27.1 Q-0.7 -29.25 -6.55 -39.25 -9.85 -35.15 -12.3 -27.6 L-8.3 -31.5 Q-10.5 -27.2 -12.35 -25.45 -9.6 -15.9 -12.2 -6.55 L-8.8 -6.45 -8.55 -6.25 -7.8 -6.5 -7.0 -6.9 -2.55 -12.35 Q2.4 -18.4 5.15 -20.75 7.8 -23.0 11.35 -24.8 Z" fill="none" stroke="#000000" stroke-linecap="round" stroke-linejoin="round" stroke-opacity="0.4509804" stroke-width="0.05"/>
      <path d="M-8.55 -6.25 L-8.75 -6.4 -8.7 -6.5 Q-7.9 -12.15 -8.4 -14.85 -8.9 -16.85 -8.95 -25.4 -7.4 -16.45 -7.0 -15.7 L-4.35 -15.75 -1.9 -17.55 Q-5.5 -12.8 -7.3 -9.35 L-7.35 -9.0 -8.4 -6.6 -8.55 -6.25" fill="#000000" fill-opacity="0.5019608" fill-rule="evenodd" stroke="none"/>
      <path d="M0.65 -20.55 Q5.2 -21.2 2.85 -18.55 L-7.0 -6.9 -8.55 -6.25 -8.4 -6.6 -7.35 -9.0 -7.3 -9.35 Q-5.5 -12.8 -1.9 -17.55 L-4.35 -15.75 -7.0 -15.7 Q-7.4 -16.45 -8.95 -25.4 -8.9 -16.85 -8.4 -14.85 -7.9 -12.15 -8.7 -6.5 L-12.05 -6.65 Q-9.8 -14.85 -12.15 -25.5 -9.9 -27.9 -8.45 -31.15 L-12.25 -27.5 Q-10.15 -34.55 -6.65 -39.35 L-4.8 -33.55 Q-8.45 -23.75 -3.75 -18.2 L-1.55 -18.4 -1.15 -18.8 0.65 -20.55" fill="#000000" fill-opacity="0.2" fill-rule="evenodd" stroke="none"/>
      <path d="M-1.15 -18.8 Q1.15 -23.85 5.9 -27.9 L8.65 -27.05 8.8 -27.1 10.25 -27.25 Q4.7 -24.2 0.65 -20.55 L-1.15 -18.8" fill="#000000" fill-opacity="0.3529412" fill-rule="evenodd" stroke="none"/>
      <path d="M-9.7 -28.2 L-10.35 -27.5 -11.2 -27.15 Q-11.7 -27.1 -11.85 -27.35 L-11.8 -28.0 -11.15 -28.75 -10.25 -29.1 -9.65 -28.9 Q-9.45 -28.65 -9.7 -28.2" fill="#514d39" fill-rule="evenodd" stroke="none"/>
      <path d="M-9.7 -28.2 L-10.35 -27.5 -11.2 -27.15 Q-11.7 -27.1 -11.85 -27.35 L-11.8 -28.0 -11.15 -28.75 -10.25 -29.1 -9.65 -28.9 Q-9.45 -28.65 -9.7 -28.2 Z" fill="none" stroke="#000000" stroke-linecap="round" stroke-linejoin="round" stroke-opacity="0.4509804" stroke-width="0.05"/>
      <path d="M-7.8 -11.25 Q-8.0 -10.8 -8.45 -10.55 -8.85 -10.25 -9.3 -10.2 -9.8 -10.15 -9.95 -10.4 L-9.9 -11.05 -9.25 -11.8 -8.35 -12.15 Q-7.9 -12.2 -7.75 -11.95 -7.55 -11.7 -7.8 -11.25" fill="#514d39" fill-rule="evenodd" stroke="none"/>
      <path d="M-7.8 -11.25 Q-8.0 -10.8 -8.45 -10.55 -8.85 -10.25 -9.3 -10.2 -9.8 -10.15 -9.95 -10.4 L-9.9 -11.05 -9.25 -11.8 -8.35 -12.15 Q-7.9 -12.2 -7.75 -11.95 -7.55 -11.7 -7.8 -11.25 Z" fill="none" stroke="#000000" stroke-linecap="round" stroke-linejoin="round" stroke-opacity="0.4509804" stroke-width="0.05"/>
    </g>
    <g id="sprite15" transform="matrix(1.0, 0.0, 0.0, 1.0, 24.05, 36.5)">
      <use height="36.5" transform="matrix(1.0, 0.0, 0.0, 1.0, -24.05, -36.5)" width="48.1" xlink:href="#shape14"/>
    </g>
    <g id="shape14" transform="matrix(1.0, 0.0, 0.0, 1.0, 24.05, 36.5)">
      <path d="M8.55 -21.65 L8.8 -20.95 Q8.8 -16.95 3.25 -16.65 2.2 -19.45 0.25 -21.25 L-1.45 -22.2 -1.65 -22.15 -1.9 -22.4 -2.25 -22.7 -4.1 -23.6 -4.4 -23.8 -4.7 -23.85 -7.2 -24.25 -7.25 -24.25 Q-5.45 -26.85 -1.9 -27.2 L0.2 -27.2 1.55 -26.9 Q3.2 -26.6 4.85 -25.5 4.85 -25.4 5.05 -25.4 5.25 -25.2 5.4 -25.1 L5.8 -24.75 6.2 -24.4 Q7.65 -23.1 8.55 -21.65 M21.65 -28.7 Q20.35 -24.9 17.5 -23.75 14.35 -23.55 10.9 -26.6 L10.75 -26.6 10.0 -27.25 9.7 -27.5 9.55 -27.6 7.95 -28.65 Q7.15 -28.95 6.8 -29.2 L6.75 -29.2 4.0 -29.5 Q5.3 -32.15 6.35 -33.4 L8.75 -35.65 9.2 -35.95 11.85 -36.5 Q13.35 -36.6 17.25 -33.65 19.95 -31.55 21.65 -28.7 M-8.95 -0.7 Q-9.95 -0.15 -11.15 -0.05 -13.05 0.2 -15.0 -0.85 L-17.7 -2.8 Q-21.15 -5.7 -22.9 -10.2 -24.65 -14.6 -23.7 -17.85 -22.95 -20.8 -20.2 -21.3 L-19.75 -21.35 -12.95 -21.85 -10.95 -21.75 -9.5 -21.5 Q-7.9 -21.2 -6.25 -19.9 L-6.2 -19.9 -5.9 -19.75 -4.3 -18.25 -3.75 -17.6 Q-2.8 -16.45 -2.2 -15.15 L-2.05 -14.9 -1.95 -14.65 Q-2.85 -10.05 -7.4 -9.25 L-8.25 -12.0 Q-9.8 -15.75 -11.95 -17.55 L-14.8 -19.95 Q-17.45 -21.5 -19.75 -21.35 -17.45 -21.5 -14.8 -19.95 L-11.95 -17.55 Q-9.8 -15.75 -8.25 -12.0 L-7.4 -9.25 Q-6.9 -7.65 -6.95 -6.5 -6.9 -4.45 -7.15 -3.5 -7.5 -2.35 -8.95 -0.7 M8.4 -11.8 L8.4 -11.95 8.45 -11.95 8.4 -11.8 M-15.25 -7.85 Q-14.7 -8.15 -14.45 -8.6 -14.1 -9.1 -14.35 -9.8 -14.45 -10.8 -15.75 -12.4 -16.6 -13.4 -17.6 -13.15 -18.65 -12.75 -19.05 -10.9 -18.95 -9.25 -17.45 -7.25 L-16.55 -6.2 -15.75 -5.5 -15.0 -5.1 -14.85 -5.05 -14.65 -5.0 -13.6 -5.1 Q-12.3 -5.75 -12.4 -7.85 L-12.5 -8.4 -12.4 -7.85 Q-12.3 -5.75 -13.6 -5.1 L-14.65 -5.0 -14.85 -5.05 -15.0 -5.1 -15.75 -5.5 -16.55 -6.2 -17.45 -7.25 Q-18.95 -9.25 -19.05 -10.9 -18.65 -12.75 -17.6 -13.15 -16.6 -13.4 -15.75 -12.4 -14.45 -10.8 -14.35 -9.8 -14.1 -9.1 -14.45 -8.6 -14.7 -8.15 -15.25 -7.85 M-15.0 -0.85 Q-14.7 -1.9 -15.65 -2.85 -19.4 -6.85 -20.25 -10.1 -21.35 -14.2 -19.9 -15.4 -17.8 -16.45 -15.45 -14.0 -13.0 -11.7 -12.5 -8.4 L-12.35 -8.35 Q-12.55 -12.15 -14.6 -14.6 -16.75 -17.15 -19.45 -17.05 -22.8 -16.9 -21.5 -10.8 -20.3 -5.6 -15.0 -0.85" fill="#c6a691" fill-rule="evenodd" stroke="none"/>
      <path d="M12.6 -14.0 L12.65 -14.3 13.65 -15.85 Q14.2 -16.8 14.3 -17.95 14.5 -19.8 13.75 -21.85 L13.0 -23.45 12.4 -24.3 11.35 -25.8 10.9 -26.6 Q14.35 -23.55 17.5 -23.75 20.35 -24.9 21.65 -28.7 L22.75 -26.3 Q24.55 -21.75 23.9 -19.55 23.1 -17.4 21.9 -16.6 L17.95 -14.9 Q15.35 -14.0 12.45 -13.95 L12.6 -14.0 M8.8 -20.95 L9.3 -19.4 Q10.6 -16.05 10.05 -14.65 L9.2 -12.8 8.55 -12.15 8.5 -12.05 8.45 -11.95 8.4 -11.95 8.4 -11.8 8.25 -11.7 Q5.6 -8.95 1.1 -8.7 L1.35 -8.9 1.5 -9.0 2.6 -10.55 2.8 -11.2 Q3.65 -13.45 2.55 -16.45 L2.3 -16.8 2.25 -16.95 Q1.45 -18.85 0.25 -20.35 L0.1 -20.6 -1.65 -22.15 -1.45 -22.2 0.25 -21.25 Q2.2 -19.45 3.25 -16.65 8.8 -16.95 8.8 -20.95 M-7.4 -9.25 Q-2.85 -10.05 -1.95 -14.65 L-1.7 -14.15 Q-0.55 -10.7 -1.75 -8.05 L-1.85 -7.65 Q-2.35 -6.6 -2.9 -6.15 -3.85 -4.65 -5.25 -3.25 -6.75 -2.0 -8.95 -0.7 -7.5 -2.35 -7.15 -3.5 -6.9 -4.45 -6.95 -6.5 -6.9 -7.65 -7.4 -9.25 M-12.5 -8.4 Q-13.0 -11.7 -15.45 -14.0 -17.8 -16.45 -19.9 -15.4 -21.35 -14.2 -20.25 -10.1 -19.4 -6.85 -15.65 -2.85 -14.7 -1.9 -15.0 -0.85 -20.3 -5.6 -21.5 -10.8 -22.8 -16.9 -19.45 -17.05 -16.75 -17.15 -14.6 -14.6 -12.55 -12.15 -12.35 -8.35 L-12.5 -8.4" fill="#a87757" fill-rule="evenodd" stroke="none"/>
      <path d="M12.4 -24.3 L13.0 -23.45 13.75 -21.85 Q14.5 -19.8 14.3 -17.95 14.2 -16.8 13.65 -15.85 L12.65 -14.3 12.6 -14.0 12.4 -14.0 Q10.45 -12.6 8.45 -11.95 L8.5 -12.05 8.55 -12.15 9.2 -12.8 10.05 -14.65 Q10.6 -16.05 9.3 -19.4 L8.8 -20.95 8.55 -21.65 Q11.9 -21.3 12.4 -24.3 M-1.95 -14.65 L-2.05 -14.9 -2.2 -15.15 Q1.7 -14.65 2.25 -16.95 L2.3 -16.8 2.55 -16.45 Q3.65 -13.45 2.8 -11.2 L2.6 -10.55 1.5 -9.0 1.35 -8.9 1.1 -8.7 Q-0.8 -6.9 -2.9 -6.15 -2.35 -6.6 -1.85 -7.65 L-1.75 -8.05 Q-0.55 -10.7 -1.7 -14.15 L-1.95 -14.65" fill="#2b2520" fill-rule="evenodd" stroke="none"/>
      <path d="M6.75 -29.2 L6.8 -29.2 Q7.15 -28.95 7.95 -28.65 L9.55 -27.6 9.7 -27.5 Q5.75 -26.9 4.85 -25.5 3.2 -26.6 1.55 -26.9 5.4 -27.85 6.75 -29.2 M-6.25 -19.9 Q-7.9 -21.2 -9.5 -21.5 -6.15 -22.6 -4.7 -23.85 L-4.4 -23.8 -4.1 -23.6 -2.25 -22.7 -1.9 -22.4 Q-5.55 -21.9 -6.25 -19.9" fill="#958373" fill-rule="evenodd" stroke="none"/>
      <path d="M12.4 -24.3 Q11.9 -21.3 8.55 -21.65 7.65 -23.1 6.2 -24.4 L5.8 -24.75 5.4 -25.1 Q5.25 -25.2 5.05 -25.4 4.85 -25.4 4.85 -25.5 5.75 -26.9 9.7 -27.5 L10.0 -27.25 10.75 -26.6 10.9 -26.6 11.35 -25.8 12.4 -24.3 M4.0 -29.5 L6.75 -29.2 Q5.4 -27.85 1.55 -26.9 L0.2 -27.2 -1.9 -27.2 Q0.05 -28.8 2.65 -29.4 L3.45 -29.5 3.9 -29.5 4.0 -29.5 M-12.95 -21.85 Q-11.05 -23.3 -8.55 -23.85 L-7.7 -24.05 Q-7.6 -24.05 -7.45 -24.15 -7.3 -24.15 -7.2 -24.25 L-4.7 -23.85 Q-6.15 -22.6 -9.5 -21.5 L-10.95 -21.75 -12.95 -21.85 M-2.2 -15.15 Q-2.8 -16.45 -3.75 -17.6 L-4.3 -18.25 -5.9 -19.75 -6.2 -19.9 -6.25 -19.9 Q-5.55 -21.9 -1.9 -22.4 L-1.65 -22.15 0.1 -20.6 0.25 -20.35 Q1.45 -18.85 2.25 -16.95 1.7 -14.65 -2.2 -15.15 M10.75 -26.6 L10.35 -23.85 6.2 -24.4 10.35 -23.85 10.75 -26.6 M-4.3 -18.25 L-0.35 -17.8 0.1 -20.6 -0.35 -17.8 -4.3 -18.25" fill="#4d433a" fill-rule="evenodd" stroke="none"/>
      <path d="M12.6 -14.0 L12.65 -14.3 13.65 -15.85 Q14.2 -16.8 14.3 -17.95 14.5 -19.8 13.75 -21.85 L13.0 -23.45 12.4 -24.3 M8.55 -21.65 L8.8 -20.95 9.3 -19.4 Q10.6 -16.05 10.05 -14.65 L9.2 -12.8 8.55 -12.15 8.5 -12.05 8.45 -11.95 Q10.45 -12.6 12.4 -14.0 L12.6 -14.0 12.45 -13.95 Q15.35 -14.0 17.95 -14.9 L21.9 -16.6 Q23.1 -17.4 23.9 -19.55 24.55 -21.75 22.75 -26.3 L21.65 -28.7 Q19.95 -31.55 17.25 -33.65 13.35 -36.6 11.85 -36.5 L9.2 -35.95 8.75 -35.65 6.35 -33.4 Q5.3 -32.15 4.0 -29.5 L6.75 -29.2 M10.9 -26.6 L11.35 -25.8 12.4 -24.3 M6.8 -29.2 Q7.15 -28.95 7.95 -28.65 L9.55 -27.6 9.7 -27.5 M10.0 -27.25 L10.75 -26.6 10.9 -26.6 M-8.95 -0.7 Q-9.95 -0.15 -11.15 -0.05 -13.05 0.2 -15.0 -0.85 L-17.7 -2.8 Q-21.15 -5.7 -22.9 -10.2 -24.65 -14.6 -23.7 -17.85 -22.95 -20.8 -20.2 -21.3 L-19.75 -21.35 -12.95 -21.85 Q-11.05 -23.3 -8.55 -23.85 L-7.7 -24.05 Q-7.6 -24.05 -7.45 -24.15 L-7.25 -24.25 Q-5.45 -26.85 -1.9 -27.2 0.05 -28.8 2.65 -29.4 L3.45 -29.5 3.9 -29.5 4.0 -29.5 M-7.2 -24.25 Q-7.3 -24.15 -7.45 -24.15 M-9.5 -21.5 L-10.95 -21.75 -12.95 -21.85 M-1.95 -14.65 L-2.05 -14.9 -2.2 -15.15 Q-2.8 -16.45 -3.75 -17.6 L-4.3 -18.25 -5.9 -19.75 -6.2 -19.9 -6.25 -19.9 Q-7.9 -21.2 -9.5 -21.5 M-4.7 -23.85 L-7.2 -24.25 M1.55 -26.9 L0.2 -27.2 -1.9 -27.2 M-4.7 -23.85 L-4.4 -23.8 -4.1 -23.6 -2.25 -22.7 -1.9 -22.4 -1.65 -22.15 0.1 -20.6 0.25 -20.35 Q1.45 -18.85 2.25 -16.95 L2.3 -16.8 2.55 -16.45 Q3.65 -13.45 2.8 -11.2 L2.6 -10.55 1.5 -9.0 1.35 -8.9 1.1 -8.7 Q5.6 -8.95 8.25 -11.7 L8.4 -11.8 M8.4 -11.95 L8.45 -11.95 8.4 -11.8 M5.8 -24.75 L5.4 -25.1 Q5.25 -25.2 5.05 -25.4 4.85 -25.4 4.85 -25.5 3.2 -26.6 1.55 -26.9 M8.55 -21.65 Q7.65 -23.1 6.2 -24.4 M-1.95 -14.65 L-1.7 -14.15 Q-0.55 -10.7 -1.75 -8.05 L-1.85 -7.65 Q-2.35 -6.6 -2.9 -6.15 -0.8 -6.9 1.1 -8.7 M-2.9 -6.15 Q-3.85 -4.65 -5.25 -3.25 -6.75 -2.0 -8.95 -0.7 M-12.5 -8.4 L-12.4 -7.85 Q-12.3 -5.75 -13.6 -5.1 L-14.65 -5.0 -14.85 -5.05 -15.0 -5.1 -15.75 -5.5 -16.55 -6.2 -17.45 -7.25 Q-18.95 -9.25 -19.05 -10.9 -18.65 -12.75 -17.6 -13.15 -16.6 -13.4 -15.75 -12.4 -14.45 -10.8 -14.35 -9.8 -14.1 -9.1 -14.45 -8.6 -14.7 -8.15 -15.25 -7.85 M-15.0 -0.85 Q-14.7 -1.9 -15.65 -2.85 -19.4 -6.85 -20.25 -10.1 -21.35 -14.2 -19.9 -15.4 -17.8 -16.45 -15.45 -14.0 -13.0 -11.7 -12.5 -8.4" fill="none" stroke="#000000" stroke-linecap="round" stroke-linejoin="round" stroke-opacity="0.4509804" stroke-width="0.05"/>
      <path d="M6.2 -24.4 L5.8 -24.75 M6.2 -24.4 L10.35 -23.85 10.75 -26.6 M0.1 -20.6 L-0.35 -17.8 -4.3 -18.25" fill="none" stroke="#000000" stroke-linecap="round" stroke-linejoin="round" stroke-opacity="0.4509804" stroke-width="0.25"/>
      <path d="M-19.75 -21.35 Q-17.45 -21.5 -14.8 -19.95 L-11.95 -17.55 Q-9.8 -15.75 -8.25 -12.0 L-7.4 -9.25 M-8.95 -0.7 Q-7.5 -2.35 -7.15 -3.5 -6.9 -4.45 -6.95 -6.5 -6.9 -7.65 -7.4 -9.25" fill="none" stroke="#e9ddd6" stroke-linecap="round" stroke-linejoin="round" stroke-opacity="0.6" stroke-width="0.05"/>
      <path d="M-2.0 -19.45 Q-2.1 -19.2 -2.45 -19.2 -2.75 -19.2 -3.05 -19.45 L-3.3 -19.95 -3.15 -20.5 -2.6 -20.65 -2.1 -20.5 -1.8 -19.95 Q-1.75 -19.6 -2.0 -19.45" fill="#1e1a15" fill-rule="evenodd" stroke="none"/>
      <path d="M-2.0 -19.45 Q-2.1 -19.2 -2.45 -19.2 -2.75 -19.2 -3.05 -19.45 L-3.3 -19.95 -3.15 -20.5 -2.6 -20.65 -2.1 -20.5 -1.8 -19.95 Q-1.75 -19.6 -2.0 -19.45 Z" fill="none" stroke="#000000" stroke-linecap="round" stroke-linejoin="round" stroke-opacity="0.4509804" stroke-width="0.25"/>
      <path d="M8.9 -25.2 Q8.8 -24.95 8.45 -24.95 L7.85 -25.2 Q7.65 -25.35 7.6 -25.7 L7.75 -26.25 8.3 -26.4 8.8 -26.25 9.1 -25.7 8.9 -25.2" fill="#1e1a15" fill-rule="evenodd" stroke="none"/>
      <path d="M8.9 -25.2 Q8.8 -24.95 8.45 -24.95 L7.85 -25.2 Q7.65 -25.35 7.6 -25.7 L7.75 -26.25 8.3 -26.4 8.8 -26.25 9.1 -25.7 8.9 -25.2 Z" fill="none" stroke="#000000" stroke-linecap="round" stroke-linejoin="round" stroke-opacity="0.4509804" stroke-width="0.25"/>
    </g>
    <g id="sprite17" transform="matrix(1.0, 0.0, 0.0, 1.0, 5.45, 14.8)">
      <use height="14.8" transform="matrix(1.0, 0.0, 0.0, 1.0, -5.45, -14.8)" width="10.95" xlink:href="#shape15"/>
    </g>
    <g id="shape15" transform="matrix(1.0, 0.0, 0.0, 1.0, 5.45, 14.8)">
      <path d="M-4.95 -8.55 Q-3.15 -7.25 1.55 -5.2 L5.5 -2.3 3.95 0.0 Q1.05 -1.95 0.25 -2.75 L-3.55 -3.85 -4.95 -8.55 M-3.05 -6.0 L0.25 -2.75 -3.05 -6.0" fill="#963807" fill-rule="evenodd" stroke="none"/>
      <path d="M5.5 -5.4 L5.5 -2.3 1.55 -5.2 Q-3.15 -7.25 -4.95 -8.55 L-5.45 -10.35 -5.35 -10.6 Q-3.65 -14.8 -1.45 -14.8 L5.5 -5.4" fill="#e87a02" fill-rule="evenodd" stroke="none"/>
      <path d="M5.5 -5.4 L-1.45 -14.8 M3.95 0.0 Q1.05 -1.95 0.25 -2.75 L-3.55 -3.85 M0.25 -2.75 L-3.05 -6.0" fill="none" stroke="#000000" stroke-linecap="round" stroke-linejoin="round" stroke-opacity="0.3019608" stroke-width="0.05"/>
    </g>
    <g id="sprite18" transform="matrix(1.0, 0.0, 0.0, 1.0, 3.95, 24.7)">
      <use height="24.7" transform="matrix(1.0, 0.0, 0.0, 1.0, -3.95, -24.7)" width="7.9" xlink:href="#shape16"/>
    </g>
    <g id="shape16" transform="matrix(1.0, 0.0, 0.0, 1.0, 3.95, 24.7)">
      <path d="M-3.95 -24.55 Q-0.15 -25.8 2.1 -16.75 L2.5 -16.2 Q0.5 -15.5 -1.5 -17.3 L-1.05 -8.55 -1.2 -8.55 -1.1 -8.45 -1.05 -8.4 1.85 -3.9 3.2 -2.7 2.7 0.0 Q2.1 -0.3 -0.35 -2.7 L-2.8 -5.0 Q-3.65 -6.8 -3.8 -9.8 L-3.05 -11.2 -3.15 -13.6 -2.85 -15.55 Q-2.55 -16.2 -3.95 -24.55" fill="#963807" fill-rule="evenodd" stroke="none"/>
      <path d="M-1.1 -8.45 L-1.2 -8.55 -1.05 -8.55 -1.1 -8.45" fill="#d15401" fill-rule="evenodd" stroke="none"/>
      <path d="M2.5 -16.2 L3.3 -14.45 Q4.6 -5.5 3.2 -2.7 L1.85 -3.9 -1.05 -8.4 -1.1 -8.45 -1.05 -8.55 -1.5 -17.3 Q0.5 -15.5 2.5 -16.2" fill="#e87a02" fill-rule="evenodd" stroke="none"/>
      <path d="M3.3 -14.45 Q4.6 -5.5 3.2 -2.7 L2.7 0.0 Q2.1 -0.3 -0.35 -2.7 L-2.8 -5.0 M-3.05 -11.2 L-3.15 -13.6 -2.85 -15.55 Q-2.55 -16.2 -3.95 -24.55" fill="none" stroke="#000000" stroke-linecap="round" stroke-linejoin="round" stroke-opacity="0.3019608" stroke-width="0.05"/>
    </g>
    <g id="sprite19" transform="matrix(1.0, 0.0, 0.0, 1.0, 22.75, 35.6)">
      <use height="35.6" transform="matrix(1.0, 0.0, 0.0, 1.0, -22.75, -35.6)" width="45.5" xlink:href="#shape17"/>
    </g>
    <g id="shape17" transform="matrix(1.0, 0.0, 0.0, 1.0, 22.75, 35.6)">
      <path d="M-6.3 -17.7 Q-8.4 -21.4 -5.9 -22.2 5.6 -21.95 10.7 -16.9 2.4 -11.35 -6.3 -17.7" fill="#ffce94" fill-rule="evenodd" stroke="none"/>
      <path d="M7.45 -20.2 Q4.6 -20.1 3.95 -25.15 L3.95 -27.05 Q5.65 -26.15 7.45 -20.2" fill="#ffefc0" fill-rule="evenodd" stroke="none"/>
      <path d="M3.95 -25.15 Q4.6 -20.1 7.45 -20.2 L8.3 -17.8 4.25 -18.75 Q3.85 -22.35 3.95 -25.15" fill="#ffce94" fill-rule="evenodd" stroke="none"/>
      <path d="M3.95 -25.15 Q3.85 -22.35 4.25 -18.75 M8.3 -17.8 L7.45 -20.2 Q5.65 -26.15 3.95 -27.05 L3.95 -25.15 Z" fill="none" stroke="#000000" stroke-linecap="round" stroke-linejoin="round" stroke-opacity="0.3019608" stroke-width="0.05"/>
      <path d="M21.6 -9.1 L21.6 -9.15 21.7 -9.15 21.7 -9.1 21.6 -9.1" fill="#5da9f7" fill-rule="evenodd" stroke="none"/>
      <path d="M15.05 -17.35 Q20.75 -9.15 10.0 -5.65 L9.4 -5.65 6.35 -5.9 -0.8 -10.7 -2.95 -12.15 -5.05 -14.0 -7.3 -18.35 -7.3 -18.4 -7.3 -21.2 0.6 -24.0 Q3.65 -18.6 7.8 -13.9 L6.35 -16.7 4.95 -19.4 4.95 -19.45 Q4.65 -20.35 4.65 -20.95 4.65 -21.6 5.05 -21.95 L6.0 -22.0 Q6.55 -21.75 6.85 -20.95 7.2 -20.15 8.35 -18.95 L8.4 -18.8 8.55 -18.6 9.4 -17.6 10.1 -16.9 10.45 -16.55 10.1 -16.9 9.4 -17.6 8.55 -18.6 Q12.85 -16.7 15.05 -17.35" fill="#ffb937" fill-rule="evenodd" stroke="none"/>
      <path d="M15.05 -17.35 L17.25 -17.9 Q23.6 -17.55 22.6 -10.35 L21.7 -9.15 21.6 -9.15 21.6 -9.1 Q19.65 -6.3 13.0 -5.8 L10.0 -5.65 Q20.75 -9.15 15.05 -17.35 M4.95 -19.4 L6.35 -16.7 7.8 -13.9 Q3.65 -18.6 0.6 -24.0 L0.6 -24.3 4.95 -19.4" fill="#d15401" fill-rule="evenodd" stroke="none"/>
      <path d="M10.0 -5.65 L13.0 -5.8 Q19.65 -6.3 21.6 -9.1 L21.7 -9.1 19.5 -6.65 Q18.45 -5.65 9.8 0.0 L9.4 -0.25 Q3.3 -4.3 0.7 -7.1 L-2.65 -10.7 -5.05 -14.0 -2.95 -12.15 -0.8 -10.7 6.35 -5.9 9.4 -5.65 10.0 -5.65" fill="#963807" fill-rule="evenodd" stroke="none"/>
      <path d="M17.25 -17.9 L15.05 -17.35 Q12.85 -16.7 8.55 -18.6 L8.4 -18.8 8.35 -18.95 Q7.2 -20.15 6.85 -20.95 6.55 -21.75 6.0 -22.0 M21.6 -9.15 L21.7 -9.15 22.6 -10.35 M4.95 -19.45 L4.95 -19.4 6.35 -16.7 7.8 -13.9 M-7.3 -18.4 L-7.3 -18.35 -5.05 -14.0 M4.95 -19.4 L0.6 -24.3 M8.55 -18.6 L9.4 -17.6 10.1 -16.9 10.45 -16.55 M21.7 -9.1 L19.5 -6.65 Q18.45 -5.65 9.8 0.0 L9.4 -0.25 Q3.3 -4.3 0.7 -7.1 L-2.65 -10.7 -5.05 -14.0 M21.7 -9.15 L21.7 -9.1" fill="none" stroke="#000000" stroke-linecap="round" stroke-linejoin="round" stroke-opacity="0.3019608" stroke-width="0.05"/>
      <path d="M-2.6 -28.65 Q-3.2 -31.55 -2.05 -31.6 3.65 -26.7 4.25 -20.25 0.2 -21.7 -2.6 -28.65" fill="#ffefc0" fill-rule="evenodd" stroke="none"/>
      <path d="M-2.6 -28.65 Q0.2 -21.7 4.25 -20.25 4.5 -19.55 4.35 -19.0 L0.75 -19.75 0.5 -19.9 0.4 -20.2 Q-2.1 -25.9 -2.6 -28.65" fill="#ffce94" fill-rule="evenodd" stroke="none"/>
      <path d="M4.25 -20.25 Q3.65 -26.7 -2.05 -31.6 -3.2 -31.55 -2.6 -28.65 M4.25 -20.25 Q4.5 -19.55 4.35 -19.0 M0.75 -19.75 L0.5 -19.9 0.4 -20.2 Q-2.1 -25.9 -2.6 -28.65" fill="none" stroke="#000000" stroke-linecap="round" stroke-linejoin="round" stroke-opacity="0.3019608" stroke-width="0.05"/>
      <path d="M-2.55 -26.2 Q-2.25 -23.4 -3.95 -24.25 -8.1 -30.65 -12.9 -35.05 L-13.1 -35.6 Q-7.25 -32.5 -2.55 -26.2" fill="#ffefc0" fill-rule="evenodd" stroke="none"/>
      <path d="M-12.9 -35.05 Q-8.1 -30.65 -3.95 -24.25 -2.25 -23.4 -2.55 -26.2 -0.4 -23.5 1.45 -20.25 L0.45 -18.35 Q-7.7 -25.25 -12.9 -35.05" fill="#ffce94" fill-rule="evenodd" stroke="none"/>
      <path d="M-2.55 -26.2 Q-7.25 -32.5 -13.1 -35.6 L-12.9 -35.05 Q-7.7 -25.25 0.45 -18.35 M1.45 -20.25 Q-0.4 -23.5 -2.55 -26.2 Z" fill="none" stroke="#000000" stroke-linecap="round" stroke-linejoin="round" stroke-opacity="0.3019608" stroke-width="0.05"/>
      <path d="M-0.55 -12.5 Q-19.2 -24.7 -20.7 -33.85 -8.3 -28.2 0.2 -18.7 -2.65 -17.0 -0.55 -12.5" fill="#ffefc0" fill-rule="evenodd" stroke="none"/>
      <path d="M0.2 -18.7 Q-8.3 -28.2 -20.7 -33.85 -19.2 -24.7 -0.55 -12.5" fill="none" stroke="#000000" stroke-linecap="round" stroke-linejoin="round" stroke-opacity="0.3019608" stroke-width="0.05"/>
      <path d="M-22.75 -32.95 L-22.75 -33.55 -22.75 -34.05 Q-14.05 -31.1 -4.45 -19.2 L-4.45 -19.1 Q-4.75 -17.45 -2.5 -14.95 -2.75 -13.9 -2.3 -13.0 -14.6 -20.4 -22.75 -32.95" fill="#ffefc0" fill-rule="evenodd" stroke="none"/>
      <path d="M-2.3 -13.0 L-1.15 -10.95 Q0.35 -9.0 3.0 -7.0 L-2.3 -10.15 Q-22.4 -23.3 -22.75 -32.95 -14.6 -20.4 -2.3 -13.0" fill="#ffce94" fill-rule="evenodd" stroke="none"/>
      <path d="M-22.75 -32.95 L-22.75 -33.55 -22.75 -34.05 Q-14.05 -31.1 -4.45 -19.2 L-4.45 -19.1 M3.0 -7.0 L-2.3 -10.15 Q-22.4 -23.3 -22.75 -32.95 Z" fill="none" stroke="#000000" stroke-linecap="round" stroke-linejoin="round" stroke-opacity="0.3019608" stroke-width="0.05"/>
    </g>
    <g id="sprite20" transform="matrix(1.0, 0.0, 0.0, 1.0, 8.35, 18.0)">
      <use height="18.0" transform="matrix(1.0, 0.0, 0.0, 1.0, -8.35, -18.0)" width="16.7" xlink:href="#shape18"/>
    </g>
    <g id="shape18" transform="matrix(1.0, 0.0, 0.0, 1.0, 8.35, 18.0)">
      <path d="M-4.95 -12.05 Q-3.45 -15.9 -1.4 -16.35 L0.9 -16.8 Q5.9 -14.15 6.1 -11.25 L6.3 -6.3 -0.9 -9.15 Q-3.45 -10.1 -5.55 -8.3 L-5.7 -8.0 -6.3 -7.35 -6.7 -7.35 Q-7.4 -9.8 -4.95 -12.05 -1.0 -13.9 1.55 -12.05 -1.0 -13.9 -4.95 -12.05" fill="#524c34" fill-rule="evenodd" stroke="none"/>
      <path d="M-6.3 -7.35 L-5.7 -8.0 -5.55 -8.3 Q-3.45 -10.1 -0.9 -9.15 L6.3 -6.3 6.1 -11.25 Q5.9 -14.15 0.9 -16.8 L2.25 -16.8 Q4.3 -16.45 5.7 -15.15 7.15 -13.9 7.9 -11.5 8.5 -9.3 8.3 -7.45 L8.25 -6.9 8.0 -6.35 7.6 -4.7 Q-0.35 -8.0 -5.95 -7.25 L-6.3 -7.35 M8.3 -7.45 L8.0 -6.35 8.3 -7.45" fill="#383323" fill-rule="evenodd" stroke="none"/>
      <path d="M0.9 -16.8 L-1.4 -16.35 Q-3.45 -15.9 -4.95 -12.05 -1.0 -13.9 1.55 -12.05 M-6.7 -7.35 Q-7.4 -9.8 -4.95 -12.05 M-5.95 -7.25 Q-0.35 -8.0 7.6 -4.7 L8.0 -6.35 8.3 -7.45 M5.7 -15.15 Q4.3 -16.45 2.25 -16.8 L0.9 -16.8" fill="none" stroke="#000000" stroke-linecap="round" stroke-linejoin="round" stroke-opacity="0.3019608" stroke-width="0.05"/>
      <path d="M-5.55 -8.3 L-5.7 -8.0 -6.3 -7.35 -5.95 -7.25" fill="none" stroke="#000000" stroke-linecap="round" stroke-linejoin="round" stroke-opacity="0.3019608" stroke-width="1.0"/>
      <path d="M-0.7 -11.85 Q1.05 -11.6 2.0 -10.7 L3.1 -9.2 1.25 -10.15 -4.05 -10.4 Q-4.05 -11.95 -0.7 -11.85" fill="#faf0be" fill-opacity="0.3019608" fill-rule="evenodd" stroke="none"/>
      <path d="M-5.95 -12.65 Q-6.05 -15.6 -3.15 -16.5 L-0.55 -16.95 Q4.15 -14.7 4.5 -9.5 L4.6 -8.95 Q2.3 -10.35 0.5 -10.75 -3.3 -11.9 -6.45 -9.1 L-6.65 -8.85 -6.9 -8.15 -7.55 -8.15 Q-8.25 -10.5 -5.95 -12.65 -2.2 -14.45 0.3 -12.65 -2.2 -14.45 -5.95 -12.65" fill="#524c34" fill-rule="evenodd" stroke="none"/>
      <path d="M-0.55 -16.95 L-0.45 -16.95 Q1.65 -17.2 3.65 -15.8 5.65 -14.45 6.3 -12.15 6.95 -9.8 6.65 -7.75 L6.0 -6.5 4.15 -8.1 0.7 -9.75 Q-3.15 -11.0 -5.75 -9.4 L-6.45 -9.1 Q-3.3 -11.9 0.5 -10.75 2.3 -10.35 4.6 -8.95 L4.5 -9.5 Q4.15 -14.7 -0.55 -16.95" fill="#383323" fill-rule="evenodd" stroke="none"/>
      <path d="M-6.45 -9.1 L-5.75 -9.4 Q-3.15 -11.0 0.7 -9.75 L4.15 -8.1 6.0 -6.5 M-6.45 -9.1 L-6.65 -8.85 -6.9 -8.15" fill="none" stroke="#000000" stroke-linecap="round" stroke-linejoin="round" stroke-opacity="0.3019608" stroke-width="1.0"/>
      <path d="M-0.55 -16.95 L-3.15 -16.5 Q-6.05 -15.6 -5.95 -12.65 -2.2 -14.45 0.3 -12.65 M-0.45 -16.95 L-0.55 -16.95 M-7.55 -8.15 Q-8.25 -10.5 -5.95 -12.65" fill="none" stroke="#000000" stroke-linecap="round" stroke-linejoin="round" stroke-opacity="0.3019608" stroke-width="0.05"/>
      <path d="M-0.15 -14.4 L0.3 -16.35 -0.45 -16.95 Q-1.2 -15.25 -0.75 -14.45 L-0.15 -14.4" fill="#faf0be" fill-opacity="0.3019608" fill-rule="evenodd" stroke="none"/>
      <path d="M-1.85 -12.5 L-5.05 -11.15 0.05 -10.95 Q0.95 -10.4 1.8 -10.0 L1.15 -11.0 Q-0.2 -11.95 -1.85 -12.5" fill="#faf0be" fill-opacity="0.3019608" fill-rule="evenodd" stroke="none"/>
      <path d="M2.75 -0.6 Q0.0 0.75 -3.15 -0.9 -6.05 -2.4 -7.45 -5.95 -8.9 -9.45 -7.95 -12.8 -6.9 -16.2 -4.15 -17.45 -1.25 -18.7 1.7 -17.1 4.7 -15.55 6.2 -12.05 7.6 -8.5 6.65 -5.15 5.65 -1.8 2.75 -0.6" fill="#1c1306" fill-rule="evenodd" stroke="none"/>
    </g>
    <g id="sprite21" transform="matrix(1.0, 0.0, 0.0, 1.0, 8.8, 17.3)">
      <use height="17.3" transform="matrix(1.0, 0.0, 0.0, 1.0, -8.8, -17.3)" width="17.6" xlink:href="#shape19"/>
    </g>
    <g id="shape19" transform="matrix(1.0, 0.0, 0.0, 1.0, 8.8, 17.3)">
      <path d="M2.15 0.0 Q-1.85 -1.7 -5.2 -4.4 L-6.95 -5.95 Q-2.3 -4.75 1.85 -5.15 L5.3 -5.85 Q6.05 -2.55 2.15 0.0" fill="#ffce94" fill-rule="evenodd" stroke="none"/>
      <path d="M5.3 -5.85 L1.85 -5.15 Q-2.3 -4.75 -6.95 -5.95 L-5.2 -4.4 Q-1.85 -1.7 2.15 0.0" fill="none" stroke="#000000" stroke-linecap="round" stroke-linejoin="round" stroke-opacity="0.3019608" stroke-width="0.05"/>
      <path d="M-0.95 -15.05 Q-0.25 -13.55 0.85 -12.95 4.1 -11.5 5.65 -11.75 L5.65 -11.8 6.6 -11.5 Q7.7 -11.15 8.8 -10.6 7.8 -8.55 5.3 -7.45 L5.05 -6.65 4.65 -7.1 2.85 -6.55 Q0.6 -9.7 -0.6 -13.5 L-0.95 -15.05" fill="#ffefc0" fill-rule="evenodd" stroke="none"/>
      <path d="M-0.95 -15.05 L-1.1 -15.65 Q2.0 -12.85 5.65 -11.8 L5.65 -11.75 Q4.1 -11.5 0.85 -12.95 -0.25 -13.55 -0.95 -15.05" fill="#fff8e1" fill-rule="evenodd" stroke="none"/>
      <path d="M5.65 -11.8 Q2.0 -12.85 -1.1 -15.65 L-0.95 -15.05 M5.65 -11.8 L6.6 -11.5 Q7.7 -11.15 8.8 -10.6 M2.85 -6.55 Q0.6 -9.7 -0.6 -13.5 L-0.95 -15.05" fill="none" stroke="#000000" stroke-linecap="round" stroke-linejoin="round" stroke-opacity="0.3019608" stroke-width="0.05"/>
      <path d="M3.6 -4.05 Q-3.25 -8.45 -7.15 -13.75 L-8.75 -17.15 Q-7.1 -14.9 -4.7 -13.0 -1.25 -10.3 2.65 -10.2 L4.55 -10.2 6.75 -9.9 6.1 -7.1 Q6.55 -5.55 4.05 -4.35 L4.15 -3.65 3.6 -4.05 M-8.7 -17.15 L-8.75 -17.15 -8.8 -17.3 -8.7 -17.15" fill="#ffefc0" fill-rule="evenodd" stroke="none"/>
      <path d="M3.6 -4.05 Q2.2 -2.95 0.3 -2.35 -4.0 -7.45 -7.15 -13.75 -3.25 -8.45 3.6 -4.05" fill="#ffce94" fill-rule="evenodd" stroke="none"/>
      <path d="M4.55 -10.2 L2.65 -10.2 Q-1.25 -10.3 -4.7 -13.0 -7.1 -14.9 -8.75 -17.15 L-8.7 -17.15 Q-3.25 -12.65 2.05 -10.85 L4.55 -10.2" fill="#fff8e1" fill-rule="evenodd" stroke="none"/>
      <path d="M-7.15 -13.75 Q-4.0 -7.45 0.3 -2.35 M6.75 -9.9 L4.55 -10.2 2.05 -10.85 Q-3.25 -12.65 -8.7 -17.15 M-8.75 -17.15 L-7.15 -13.75 M-8.8 -17.3 L-8.7 -17.15" fill="none" stroke="#000000" stroke-linecap="round" stroke-linejoin="round" stroke-opacity="0.3019608" stroke-width="0.05"/>
    </g>
    <g id="sprite22" transform="matrix(1.0, 0.0, 0.0, 1.0, 14.55, 31.45)">
      <use height="31.45" transform="matrix(1.0, 0.0, 0.0, 1.0, -14.55, -31.45)" width="29.1" xlink:href="#shape20"/>
    </g>
    <g id="shape20" transform="matrix(1.0, 0.0, 0.0, 1.0, 14.55, 31.45)">
      <path d="M-7.05 -29.5 L-6.85 -29.5 -6.85 -29.4 -7.05 -29.5" fill="#a0b3d0" fill-rule="evenodd" stroke="none"/>
      <path d="M11.35 -24.65 L8.75 -24.8 8.7 -24.8 Q6.6 -24.55 5.4 -23.2 L5.3 -23.15 4.55 -22.2 4.25 -21.6 2.25 -18.2 Q1.9 -17.55 -3.5 -17.2 -8.95 -16.9 -12.85 -23.4 L-12.3 -24.35 -10.25 -26.75 -7.6 -29.1 Q-7.45 -29.25 -7.25 -29.35 L-7.15 -29.5 -7.05 -29.5 -6.7 -29.7 Q-5.8 -30.45 -5.0 -30.6 L-0.85 -31.4 Q1.55 -31.7 6.2 -28.5 L11.35 -24.65 M-7.05 -29.5 L-6.85 -29.4 -6.85 -29.5 -7.05 -29.5" fill="#ffefc0" fill-rule="evenodd" stroke="none"/>
      <path d="M-12.85 -23.4 Q-8.95 -16.9 -3.5 -17.2 1.9 -17.55 2.25 -18.2 L4.25 -21.6 4.55 -22.2 5.3 -23.15 5.4 -23.2 Q6.6 -24.55 8.7 -24.8 L8.75 -24.8 11.35 -24.65 12.15 -23.6 Q14.55 -19.9 14.55 -15.25 L14.55 -15.2 Q14.75 -8.6 12.3 -5.4 9.85 -2.2 1.7 -0.4 -6.45 1.4 -10.5 -4.45 -14.55 -10.25 -14.55 -16.45 -14.55 -20.35 -12.85 -23.4" fill="#ffce94" fill-rule="evenodd" stroke="none"/>
      <path d="M-12.85 -23.4 Q-14.55 -20.35 -14.55 -16.45 -14.55 -10.25 -10.5 -4.45 -6.45 1.4 1.7 -0.4 9.85 -2.2 12.3 -5.4 14.75 -8.6 14.55 -15.2 L14.55 -15.25 Q14.55 -19.9 12.15 -23.6 L11.35 -24.65 6.2 -28.5 Q1.55 -31.7 -0.85 -31.4 L-5.0 -30.6 M-12.3 -24.35 L-12.85 -23.4 Z" fill="none" stroke="#000000" stroke-linecap="round" stroke-linejoin="round" stroke-opacity="0.3019608" stroke-width="0.05"/>
      <path d="M8.65 -25.7 L7.95 -25.45 7.25 -24.95 Q1.1 -30.3 -0.75 -30.3 L-5.1 -29.95 -2.2 -30.8 0.4 -31.05 Q1.7 -31.15 6.25 -28.05 10.8 -24.95 8.65 -25.7" fill="#fcfcfc" fill-opacity="0.7019608" fill-rule="evenodd" stroke="none"/>
    </g>
    <g id="sprite23" transform="matrix(1.0, 0.0, 0.0, 1.0, 9.75, 17.05)">
      <use height="17.05" transform="matrix(1.0, 0.0, 0.0, 1.0, -9.75, -17.05)" width="19.55" xlink:href="#shape21"/>
    </g>
    <g id="shape21" transform="matrix(1.0, 0.0, 0.0, 1.0, 9.75, 17.05)">
      <path d="M9.8 -1.95 Q3.75 0.2 -0.9 0.0 L-3.45 -0.2 Q1.05 -2.4 4.0 -5.7 L6.1 -8.7 Q9.2 -6.2 9.8 -1.95" fill="#ffce94" fill-rule="evenodd" stroke="none"/>
      <path d="M6.1 -8.7 L4.0 -5.7 Q1.05 -2.4 -3.45 -0.2 L-0.9 0.0 Q3.75 0.2 9.8 -1.95" fill="none" stroke="#000000" stroke-linecap="round" stroke-linejoin="round" stroke-opacity="0.3019608" stroke-width="0.05"/>
      <path d="M-9.6 -11.05 L-9.75 -11.15 Q-7.8 -12.05 -4.95 -11.95 L-4.85 -12.0 Q-4.8 -9.35 -3.15 -7.35 -6.05 -7.8 -9.6 -11.05" fill="#ffefc0" fill-rule="evenodd" stroke="none"/>
      <path d="M-1.15 -10.95 L-0.45 -10.6 1.95 -8.95 2.3 -7.95 Q3.45 -3.6 0.95 -1.9 -2.6 -3.9 -5.6 -6.65 -7.75 -8.65 -9.6 -11.05 -6.05 -7.8 -3.15 -7.35 -4.8 -9.35 -4.85 -12.0 -3.05 -11.8 -1.15 -10.95" fill="#ffce94" fill-rule="evenodd" stroke="none"/>
      <path d="M0.95 -1.9 Q-2.6 -3.9 -5.6 -6.65 -7.75 -8.65 -9.6 -11.05 L-9.75 -11.15 Q-7.8 -12.05 -4.95 -11.95 L-4.85 -12.0 Q-3.05 -11.8 -1.15 -10.95" fill="none" stroke="#000000" stroke-linecap="round" stroke-linejoin="round" stroke-opacity="0.3019608" stroke-width="0.05"/>
      <path d="M-0.7 -14.2 Q0.2 -12.8 -1.25 -10.8 -3.55 -12.0 -6.05 -14.95 L-7.1 -17.05 Q-3.85 -14.7 -0.7 -14.2" fill="#ffefc0" fill-rule="evenodd" stroke="none"/>
      <path d="M-1.45 -8.6 Q-4.0 -11.35 -6.05 -14.95 -3.55 -12.0 -1.25 -10.8 0.2 -12.8 -0.7 -14.2 L1.95 -14.15 Q1.9 -10.45 -1.45 -8.6" fill="#ffce94" fill-rule="evenodd" stroke="none"/>
      <path d="M-6.05 -14.95 Q-4.0 -11.35 -1.45 -8.6 M1.95 -14.15 L-0.7 -14.2 M-6.05 -14.95 L-7.1 -17.05 Q-3.85 -14.7 -0.7 -14.2" fill="none" stroke="#000000" stroke-linecap="round" stroke-linejoin="round" stroke-opacity="0.3019608" stroke-width="0.05"/>
      <path d="M1.2 -7.1 Q3.3 -5.45 4.05 -3.65 0.15 -3.8 -1.4 -5.7 0.2 -5.95 1.2 -7.1" fill="#ffefc0" fill-rule="evenodd" stroke="none"/>
      <path d="M1.2 -7.1 Q0.2 -5.95 -1.4 -5.7 0.15 -3.8 4.05 -3.65" fill="none" stroke="#000000" stroke-linecap="round" stroke-linejoin="round" stroke-opacity="0.3019608" stroke-width="0.05"/>
    </g>
    <g id="sprite24" transform="matrix(1.0, 0.0, 0.0, 1.0, 8.35, 21.15)">
      <use height="21.15" transform="matrix(1.0, 0.0, 0.0, 1.0, -8.35, -21.15)" width="16.75" xlink:href="#shape22"/>
    </g>
    <g id="shape22" transform="matrix(1.0, 0.0, 0.0, 1.0, 8.35, 21.15)">
      <path d="M-7.7 -6.0 Q-8.65 -8.6 -8.2 -11.7 -7.6 -16.05 -4.8 -18.75 -2.0 -21.55 1.4 -21.1 -0.7 -21.05 -2.45 -18.9 -4.35 -16.55 -4.8 -13.1 -5.15 -10.15 -4.2 -7.85 -5.7 -4.65 -7.7 -6.0" fill="#ffefc0" fill-rule="evenodd" stroke="none"/>
      <path d="M1.4 -21.1 Q2.85 -20.9 4.05 -20.15 5.7 -19.15 6.8 -17.2 8.85 -13.8 8.25 -9.45 7.6 -5.05 4.8 -2.45 1.95 0.45 -1.5 -0.05 -4.85 -0.5 -6.8 -4.0 L-7.7 -6.0 Q-5.7 -4.65 -4.2 -7.85 -5.15 -10.15 -4.8 -13.1 -4.35 -16.55 -2.45 -18.9 -0.7 -21.05 1.4 -21.1" fill="#ffce94" fill-rule="evenodd" stroke="none"/>
    </g>
    <g id="sprite25" transform="matrix(1.0, 0.0, 0.0, 1.0, 16.25, 16.65)">
      <use height="16.75" transform="matrix(1.0, 0.0, 0.0, 1.0, -16.25, -16.65)" width="32.5" xlink:href="#shape23"/>
    </g>
    <g id="shape23" transform="matrix(1.0, 0.0, 0.0, 1.0, 16.25, 16.65)">
      <path d="M-6.6 -16.4 Q27.4 5.7 3.0 -6.35 L-13.9 -15.4 Q-9.95 -13.45 -6.6 -16.4" fill="#5c2501" fill-rule="evenodd" stroke="none"/>
      <path d="M-13.9 -15.4 L3.0 -6.35 Q27.4 5.7 -6.6 -16.4 L-5.45 -16.55 5.35 -8.9 Q14.6 -2.1 15.9 -0.6 17.35 0.85 9.55 -1.15 L-13.85 -10.35 Q-16.25 -13.65 -16.15 -14.65 L-16.1 -15.4 -13.9 -15.4 M15.9 -0.6 Q15.0 -0.2 7.9 -3.3 L-16.15 -14.65 7.9 -3.3 Q15.0 -0.2 15.9 -0.6" fill="#855f45" fill-rule="evenodd" stroke="none"/>
      <path d="M-16.1 -15.4 L-16.15 -14.65 7.9 -3.3 Q15.0 -0.2 15.9 -0.6 14.6 -2.1 5.35 -8.9 L-5.45 -16.55 M15.9 -0.6 Q17.35 0.85 9.55 -1.15 L-13.85 -10.35 Q-16.25 -13.65 -16.15 -14.65" fill="none" stroke="#996600" stroke-linecap="round" stroke-linejoin="round" stroke-opacity="0.2" stroke-width="0.25"/>
    </g>
    <g id="sprite26" transform="matrix(1.0, 0.0, 0.0, 1.0, 21.2, 41.6)">
      <use height="41.6" transform="matrix(1.0, 0.0, 0.0, 1.0, -21.2, -41.6)" width="42.45" xlink:href="#shape24"/>
    </g>
    <g id="shape24" transform="matrix(1.0, 0.0, 0.0, 1.0, 21.2, 41.6)">
      <path d="M15.35 -20.65 Q13.6 -27.15 8.9 -29.25 L-2.6 -34.25 Q-1.75 -36.75 2.3 -36.8 L5.2 -35.6 11.9 -32.95 Q18.05 -30.85 20.3 -24.1 L15.35 -20.65 M-9.65 -23.1 Q-9.1 -23.25 -4.65 -21.1 0.2 -18.65 2.4 -16.5 7.15 -11.65 8.55 -7.75 L10.15 -3.35 -12.1 -18.45 -14.1 -19.25 -11.85 -21.25 -9.65 -23.1" fill="#c6a691" fill-rule="evenodd" stroke="none"/>
      <path d="M15.35 -20.65 L20.3 -24.1 Q21.95 -18.5 20.8 -9.6 20.55 -7.5 18.55 -2.1 14.8 0.1 14.65 0.0 L15.7 -4.7 Q16.05 -7.45 15.8 -13.95 L15.35 -20.65 M10.15 -3.35 L10.15 -2.9 -3.1 -11.4 Q-16.4 -17.35 -20.35 -17.7 -22.75 -20.6 -18.4 -20.75 L-14.1 -19.25 -12.1 -18.45 10.15 -3.35" fill="#a87757" fill-rule="evenodd" stroke="none"/>
      <path d="M2.3 -36.8 Q-1.75 -36.75 -2.6 -34.25 L8.9 -29.25 Q13.6 -27.15 15.35 -20.65 L15.8 -13.95 Q16.05 -7.45 15.7 -4.7 L14.65 0.0 Q14.4 0.15 10.15 -2.9 L10.15 -3.35 8.55 -7.75 Q7.15 -11.65 2.4 -16.5 0.2 -18.65 -4.65 -21.1 -9.1 -23.25 -9.65 -23.1 -7.65 -26.4 -6.7 -36.05 -7.45 -36.85 -5.0 -38.25 -2.6 -39.7 -1.25 -38.65 -0.35 -38.0 2.3 -36.8" fill="#855f45" fill-rule="evenodd" stroke="none"/>
      <path d="M20.3 -24.1 Q18.05 -30.85 11.9 -32.95 L5.2 -35.6 2.3 -36.8 Q-0.35 -38.0 -1.25 -38.65 -2.6 -39.7 -5.0 -38.25 -7.45 -36.85 -6.7 -36.05 -7.65 -26.4 -9.65 -23.1 M10.15 -2.9 Q14.4 0.15 14.65 0.0 M-14.1 -19.25 L-11.85 -21.25 -9.65 -23.1 M10.15 -2.9 L-3.1 -11.4 Q-16.4 -17.35 -20.35 -17.7 -22.75 -20.6 -18.4 -20.75 L-14.1 -19.25 M20.3 -24.1 Q21.95 -18.5 20.8 -9.6 20.55 -7.5 18.55 -2.1 14.8 0.1 14.65 0.0" fill="none" stroke="#000000" stroke-linecap="round" stroke-linejoin="round" stroke-opacity="0.3019608" stroke-width="0.05"/>
      <path d="M2.0 -30.15 Q0.8 -31.1 1.0 -31.45 1.15 -32.1 2.6 -32.05 L5.8 -31.3 Q7.6 -30.6 8.7 -29.75 9.95 -28.95 9.7 -28.3 9.65 -27.7 8.15 -27.85 L4.9 -28.55 2.0 -30.15" fill="#fff8e0" fill-opacity="0.6" fill-rule="evenodd" stroke="none"/>
      <path d="M-7.85 -37.4 L-7.8 -38.05 Q-7.7 -39.0 -7.05 -40.05 -6.25 -41.5 -4.2 -41.6 -2.15 -41.75 -1.2 -40.7 -0.3 -39.7 0.55 -39.25 L0.9 -39.05 0.85 -38.8 Q0.7 -38.1 0.05 -38.55 L-2.55 -38.45 Q-4.45 -37.9 -6.5 -35.25 -6.9 -35.85 -7.15 -37.0 -7.2 -37.2 -7.85 -37.4" fill="#524c34" fill-rule="evenodd" stroke="none"/>
      <path d="M-7.85 -37.4 Q-7.2 -37.2 -7.15 -37.0 -6.9 -35.85 -6.5 -35.25 -4.45 -37.9 -2.55 -38.45 L0.05 -38.55 Q0.7 -38.1 0.85 -38.8 L0.9 -39.05 Q1.3 -38.7 1.2 -38.1 1.05 -37.4 0.4 -37.85 L-2.2 -37.75 Q-4.2 -37.15 -5.85 -34.7 L-6.05 -34.55 Q-6.8 -33.85 -7.1 -31.35 -6.35 -26.35 -7.25 -25.05 L-9.0 -22.95 -10.75 -21.3 -9.8 -24.55 -8.75 -26.25 Q-8.2 -27.25 -9.0 -33.4 L-7.85 -37.4" fill="#383323" fill-rule="evenodd" stroke="none"/>
      <path d="M0.9 -39.05 L0.55 -39.25 Q-0.3 -39.7 -1.2 -40.7 -2.15 -41.75 -4.2 -41.6 -6.25 -41.5 -7.05 -40.05 -7.7 -39.0 -7.8 -38.05 L-7.85 -37.4 Q-7.2 -37.2 -7.15 -37.0 M0.9 -39.05 Q1.3 -38.7 1.2 -38.1 1.05 -37.4 0.4 -37.85 L-2.2 -37.75 Q-4.2 -37.15 -5.85 -34.7 L-6.05 -34.55 Q-6.8 -33.85 -7.1 -31.35 -6.35 -26.35 -7.25 -25.05 L-9.0 -22.95 -10.75 -21.3 M-9.8 -24.55 L-8.75 -26.25 Q-8.2 -27.25 -9.0 -33.4 L-7.85 -37.4" fill="none" stroke="#000000" stroke-linecap="round" stroke-linejoin="round" stroke-opacity="0.3019608" stroke-width="0.05"/>
    </g>
    <g id="sprite27" transform="matrix(1.0, 0.0, 0.0, 1.0, 8.55, 21.1)">
      <use height="21.1" transform="matrix(1.0, 0.0, 0.0, 1.0, -8.55, -21.1)" width="17.1" xlink:href="#shape25"/>
    </g>
    <g id="shape25" transform="matrix(1.0, 0.0, 0.0, 1.0, 8.55, 21.1)">
      <path d="M-4.6 -18.7 Q-1.8 -21.5 1.55 -21.0 5.0 -20.55 7.0 -17.1 9.0 -13.75 8.4 -9.45 7.8 -5.1 4.95 -2.35 2.15 0.4 -1.3 -0.05 -4.65 -0.55 -6.65 -3.95 -8.65 -7.35 -8.05 -11.7 -7.45 -16.0 -4.6 -18.7" fill="#1a1207" fill-rule="evenodd" stroke="none"/>
      <path d="M6.95 -9.6 Q6.75 -7.95 6.15 -6.6 5.35 -4.85 3.95 -3.45 1.5 -1.1 -1.4 -1.5 -4.4 -1.9 -6.05 -4.8 -7.0 -6.5 -7.25 -8.45 -7.45 -9.9 -7.25 -11.55 -6.75 -15.3 -4.3 -17.6 -1.9 -20.05 1.1 -19.65 4.0 -19.25 5.7 -16.25 7.45 -13.35 6.95 -9.6" fill="#faeaaf" fill-rule="evenodd" stroke="none"/>
      <path d="M6.95 -9.6 Q6.75 -7.95 6.15 -6.6 5.35 -4.85 3.95 -3.45 1.5 -1.1 -1.4 -1.5 -4.4 -1.9 -6.05 -4.8 -7.0 -6.5 -7.25 -8.45 -7.45 -9.9 -7.25 -11.55 -6.75 -15.3 -4.3 -17.6 -1.9 -20.05 1.1 -19.65 4.0 -19.25 5.7 -16.25 7.45 -13.35 6.95 -9.6 Z" fill="none" stroke="#000000" stroke-linecap="round" stroke-linejoin="round" stroke-opacity="0.3019608" stroke-width="0.05"/>
      <path d="M-2.15 -2.8 Q-4.9 -3.35 -6.15 -7.85 -5.65 -7.05 -1.15 -6.4 3.3 -5.7 4.8 -6.35 2.9 -1.8 -2.15 -2.8" fill="#d1be72" fill-rule="evenodd" stroke="none"/>
      <path d="M-4.5 -15.6 Q-2.0 -19.05 0.6 -18.95 2.6 -18.9 4.4 -16.65 -2.2 -21.25 -6.3 -11.1 -6.2 -12.5 -5.55 -13.75 L-4.5 -15.6" fill="#fffed9" fill-rule="evenodd" stroke="none"/>
      <path d="M4.1 -4.5 Q3.45 -3.65 2.5 -3.6 1.6 -3.55 0.85 -4.3 0.2 -5.05 0.2 -6.15 0.3 -7.3 0.9 -8.15 1.7 -9.0 2.6 -9.05 3.55 -9.15 4.2 -8.35 4.95 -7.6 4.85 -6.45 4.85 -5.35 4.1 -4.5" fill="#000000" fill-rule="evenodd" stroke="none"/>
      <path d="M4.1 -4.5 Q3.45 -3.65 2.5 -3.6 1.6 -3.55 0.85 -4.3 0.2 -5.05 0.2 -6.15 0.3 -7.3 0.9 -8.15 1.7 -9.0 2.6 -9.05 3.55 -9.15 4.2 -8.35 4.95 -7.6 4.85 -6.45 4.85 -5.35 4.1 -4.5 Z" fill="none" stroke="#6f5122" stroke-linecap="round" stroke-linejoin="round" stroke-width="0.05"/>
      <path d="M1.1 -6.3 Q0.7 -5.8 0.25 -5.8 -0.2 -5.75 -0.6 -6.2 -1.0 -6.5 -1.0 -7.15 -1.0 -7.75 -0.6 -8.25 -0.25 -8.7 0.3 -8.75 0.8 -8.75 1.2 -8.3 L1.55 -7.3 Q1.5 -6.65 1.1 -6.3" fill="#ffffff" fill-rule="evenodd" stroke="none"/>
      <path d="M-5.85 -15.95 Q-3.6 -19.95 -1.3 -20.2 L1.3 -20.3 Q6.4 -16.65 6.15 -13.45 L5.7 -7.95 -1.8 -12.15 Q-4.45 -13.6 -7.05 -11.95 L-7.3 -11.65 -8.05 -10.95 -8.45 -11.05 Q-8.85 -13.9 -5.85 -15.95 -1.25 -17.45 1.3 -15.0 -1.25 -17.45 -5.85 -15.95" fill="#524c34" fill-rule="evenodd" stroke="none"/>
      <path d="M-8.05 -10.95 L-7.3 -11.65 -7.05 -11.95 Q-4.45 -13.6 -1.8 -12.15 L5.7 -7.95 6.15 -13.45 Q6.4 -16.65 1.3 -20.3 L2.8 -20.1 Q5.0 -19.4 6.35 -17.8 7.75 -16.2 8.2 -13.45 8.5 -10.95 8.05 -8.9 L7.9 -8.35 7.55 -7.75 6.8 -6.0 Q-1.4 -10.85 -7.65 -10.85 L-8.05 -10.95 M8.05 -8.9 L7.55 -7.75 8.05 -8.9" fill="#383323" fill-rule="evenodd" stroke="none"/>
      <path d="M1.3 -20.3 L-1.3 -20.2 Q-3.6 -19.95 -5.85 -15.95 -1.25 -17.45 1.3 -15.0 M-8.45 -11.05 Q-8.85 -13.9 -5.85 -15.95 M-7.65 -10.85 Q-1.4 -10.85 6.8 -6.0 L7.55 -7.75 8.05 -8.9 M6.35 -17.8 Q5.0 -19.4 2.8 -20.1 L1.3 -20.3" fill="none" stroke="#000000" stroke-linecap="round" stroke-linejoin="round" stroke-opacity="0.3019608" stroke-width="0.05"/>
      <path d="M-7.05 -11.95 L-7.3 -11.65 -8.05 -10.95 -7.65 -10.85" fill="none" stroke="#000000" stroke-linecap="round" stroke-linejoin="round" stroke-opacity="0.3019608" stroke-width="1.0"/>
      <path d="M-1.2 -15.1 Q0.7 -14.55 1.65 -13.4 2.5 -12.35 2.6 -11.6 L0.65 -12.95 Q-2.0 -14.5 -5.1 -14.0 -4.9 -15.7 -1.2 -15.1" fill="#faf0be" fill-opacity="0.3019608" fill-rule="evenodd" stroke="none"/>
    </g>
  </defs>
</svg>
