<?xml version="1.0" encoding="UTF-8" standalone="no"?>
<svg xmlns:xlink="http://www.w3.org/1999/xlink" height="520.0px" width="520.0px" xmlns="http://www.w3.org/2000/svg">
  <g transform="matrix(10.0, 0.0, 0.0, 10.0, 0.0, 0.0)">
    <use height="52.0" transform="matrix(1.0, 0.0, 0.0, 1.0, 0.0, 0.0)" width="52.0" xlink:href="#shape0"/>
  </g>
  <defs>
    <g id="shape0" transform="matrix(1.0, 0.0, 0.0, 1.0, 0.0, 0.0)">
      <path d="M52.0 0.0 L52.0 52.0 0.0 52.0 0.0 0.0 52.0 0.0" fill="#33cc33" fill-opacity="0.0" fill-rule="evenodd" stroke="none"/>
      <path d="M29.15 12.4 L29.1 12.35 29.2 12.4 29.15 12.4" fill="#9ca841" fill-rule="evenodd" stroke="none"/>
      <path d="M5.95 19.45 Q5.65 18.75 5.65 18.1 5.7 14.0 10.25 12.3 L11.05 12.1 11.65 11.9 18.4 10.95 21.35 10.8 26.7 10.6 26.9 10.8 27.3 11.15 21.55 11.4 Q13.95 11.7 10.45 12.9 6.1 14.5 5.85 18.3 L5.85 18.4 5.85 18.7 5.95 19.45 M4.5 19.85 Q5.2 21.7 7.5 23.55 10.05 25.55 13.15 26.7 L13.35 26.75 13.75 26.7 14.1 26.25 14.15 26.1 14.3 26.3 14.3 26.35 14.3 26.85 13.95 27.3 13.35 27.3 Q10.25 26.15 7.7 24.15 5.0 22.0 4.5 19.85 M26.4 7.0 L26.35 6.7 Q26.45 5.3 28.45 4.4 30.4 3.45 32.7 3.45 33.7 3.45 35.3 4.15 L35.35 4.15 Q37.0 4.8 37.1 5.55 L37.05 5.95 37.05 6.0 Q36.7 5.35 35.35 4.8 L35.3 4.8 Q33.7 4.1 32.7 4.1 30.4 4.1 28.45 5.05 26.7 5.8 26.4 7.0 M28.85 10.5 L29.3 10.5 29.45 10.45 29.6 10.45 29.9 10.45 32.7 10.15 33.4 10.0 34.95 9.6 Q38.55 8.35 38.55 5.55 L38.6 5.95 38.6 6.2 Q38.75 9.7 32.9 10.75 L30.85 11.0 30.55 11.0 30.4 11.0 29.5 11.05 28.85 10.5 M48.2 26.85 L48.6 29.0 48.6 29.1 48.6 29.45 Q48.6 32.0 47.1 34.15 44.85 37.4 39.5 38.6 L38.95 38.5 38.65 38.0 Q38.55 37.75 38.7 37.55 L38.7 37.5 39.25 37.6 Q44.6 36.4 46.85 33.15 48.35 31.0 48.35 28.45 L48.35 28.1 48.2 26.85" fill="#5f6b1a" fill-rule="evenodd" stroke="none"/>
      <path d="M26.9 10.8 L26.7 10.6 21.35 10.8 18.4 10.95 11.65 11.9 11.05 12.1 10.25 12.3 Q5.7 14.0 5.65 18.1 5.65 18.75 5.95 19.45 6.4 21.2 8.65 23.0 10.95 24.85 13.85 25.9 L14.15 26.1 14.1 26.25 13.75 26.7 13.35 26.75 13.15 26.7 Q10.05 25.55 7.5 23.55 5.2 21.7 4.5 19.85 L4.35 18.7 4.35 18.35 4.35 18.25 Q4.55 13.5 9.95 11.5 13.55 10.2 21.5 9.9 L25.85 9.75 25.45 9.2 25.45 9.15 25.4 9.1 Q24.8 8.2 24.85 7.35 L24.85 7.1 24.85 7.0 Q25.0 4.95 27.8 3.7 30.1 2.6 32.7 2.6 33.9 2.6 35.9 3.4 38.15 4.3 38.55 5.55 38.55 8.35 34.95 9.6 L33.4 10.0 32.7 10.15 29.9 10.45 29.6 10.45 29.45 10.45 29.3 10.5 28.85 10.5 27.85 9.65 28.85 10.5 29.5 11.05 Q30.9 11.8 37.15 15.75 46.4 21.5 48.2 26.85 L48.35 28.1 48.35 28.45 Q48.35 31.0 46.85 33.15 44.6 36.4 39.25 37.6 L38.7 37.5 38.75 37.45 Q38.9 37.2 39.2 37.15 43.85 36.1 45.85 33.3 47.1 31.5 47.1 29.45 L47.1 29.25 47.1 29.15 Q46.7 23.45 36.35 17.0 L29.5 12.65 29.45 12.6 29.4 12.6 29.15 12.4 29.2 12.4 29.1 12.35 29.15 12.4 29.05 12.35 27.3 11.15 26.9 10.8 M26.4 7.0 L26.4 7.1 26.35 7.35 Q26.4 8.3 27.65 9.45 L27.85 9.65 28.45 9.6 28.55 9.6 32.65 9.25 Q36.95 8.5 37.1 6.2 L37.05 6.05 37.05 6.0 37.05 5.95 37.1 5.55 Q37.0 4.8 35.35 4.15 L35.3 4.15 Q33.7 3.45 32.7 3.45 30.4 3.45 28.45 4.4 26.45 5.3 26.35 6.7 L26.4 7.0 M26.7 10.6 L25.85 9.75 26.7 10.6" fill="#bdcf50" fill-rule="evenodd" stroke="none"/>
      <path d="M5.95 19.45 L5.85 18.7 5.85 18.4 5.85 18.3 Q6.1 14.5 10.45 12.9 13.95 11.7 21.55 11.4 L27.3 11.15 26.9 10.8 M25.85 9.75 L21.5 9.9 Q13.55 10.2 9.95 11.5 4.55 13.5 4.35 18.25 L4.35 18.35 4.35 18.7 4.5 19.85 Q5.0 22.0 7.7 24.15 10.25 26.15 13.35 27.3 L13.95 27.3 14.3 26.85 14.3 26.35 14.3 26.3 14.15 26.1 13.85 25.9 Q10.95 24.85 8.65 23.0 6.4 21.2 5.95 19.45 M27.85 9.65 L27.65 9.45 Q26.4 8.3 26.35 7.35 L26.4 7.1 26.4 7.0 Q26.7 5.8 28.45 5.05 30.4 4.1 32.7 4.1 33.7 4.1 35.3 4.8 L35.35 4.8 Q36.7 5.35 37.05 6.0 L37.05 6.05 37.1 6.2 Q36.95 8.5 32.65 9.25 L28.55 9.6 28.45 9.6 27.85 9.65 28.85 10.5 29.5 11.05 Q30.9 11.8 37.15 15.75 46.4 21.5 48.2 26.85 L48.6 29.0 48.6 29.1 48.6 29.45 Q48.6 32.0 47.1 34.15 44.85 37.4 39.5 38.6 L38.95 38.5 38.65 38.0 Q38.55 37.75 38.7 37.55 M38.55 5.55 Q38.15 4.3 35.9 3.4 33.9 2.6 32.7 2.6 30.1 2.6 27.8 3.7 25.0 4.95 24.85 7.0 L24.85 7.1 24.85 7.35 Q24.8 8.2 25.4 9.1 L25.45 9.15 25.45 9.2 25.85 9.75 26.7 10.6 M29.5 11.05 L30.4 11.0 30.55 11.0 30.85 11.0 32.9 10.75 Q38.75 9.7 38.6 6.2 L38.6 5.95 38.55 5.55 M38.7 37.5 L38.75 37.45 Q38.9 37.2 39.2 37.15 43.85 36.1 45.85 33.3 47.1 31.5 47.1 29.45 L47.1 29.25 M47.1 29.15 Q46.7 23.45 36.35 17.0 L29.5 12.65 29.35 12.6 29.4 12.6 29.05 12.35 27.3 11.15 M29.15 12.4 L29.4 12.6 29.45 12.6 29.5 12.65 29.4 12.6 M29.15 12.4 L29.1 12.35 29.2 12.4 29.15 12.4 29.05 12.35" fill="none" stroke="#000000" stroke-linecap="round" stroke-linejoin="round" stroke-opacity="0.3019608" stroke-width="0.05"/>
      <path d="M28.65 23.75 L27.65 23.65 16.35 29.15 15.2 28.95 Q8.7 27.6 4.55 24.3 L15.85 18.8 16.4 18.65 28.65 23.75" fill="#f7e7dd" fill-rule="evenodd" stroke="none"/>
      <path d="M16.35 29.15 L27.65 23.65 28.65 23.75 28.75 24.45 28.75 38.0 Q28.75 39.35 27.65 39.9 L17.2 45.0 Q15.4 44.95 15.2 41.55 L15.2 40.95 15.2 31.6 15.2 31.05 15.2 30.65 Q15.35 29.6 16.35 29.15" fill="#cfc2b9" fill-rule="evenodd" stroke="none"/>
      <path d="M15.2 31.6 L15.2 40.95 Q15.1 45.15 12.55 44.25 L5.15 41.4 Q3.4 40.7 3.4 39.7 L3.4 26.2 Q9.55 27.35 15.2 31.6" fill="#ebdcd3" fill-rule="evenodd" stroke="none"/>
      <path d="M15.2 40.95 L15.2 41.55 Q15.4 44.95 17.2 45.0 L16.35 45.4 15.45 45.45 12.55 44.25 Q15.1 45.15 15.2 40.95" fill="#dbcdc4" fill-rule="evenodd" stroke="none"/>
      <path d="M4.55 24.3 Q8.7 27.6 15.2 28.95 L16.35 29.15 Q15.35 29.6 15.2 30.65 L15.2 31.05 15.2 31.6 Q9.55 27.35 3.4 26.2 3.4 24.8 4.55 24.3" fill="#fefefe" fill-rule="evenodd" stroke="none"/>
      <path d="M28.65 23.75 L16.4 18.65 15.85 18.8 4.55 24.3 Q3.4 24.8 3.4 26.2 L3.4 39.7 Q3.4 40.7 5.15 41.4 L12.55 44.25 15.45 45.45 16.35 45.4 17.2 45.0 27.65 39.9 Q28.75 39.35 28.75 38.0 L28.75 24.45 28.65 23.75 Z" fill="none" stroke="#000000" stroke-linecap="round" stroke-linejoin="round" stroke-opacity="0.15294118" stroke-width="0.1"/>
      <path d="M9.55 37.7 Q9.05 38.3 8.4 38.05 7.7 37.75 7.2 36.75 6.7 35.75 6.7 34.65 6.7 33.5 7.2 32.95 7.7 32.35 8.4 32.65 9.05 32.9 9.55 33.9 10.05 34.85 10.05 36.0 10.05 37.1 9.55 37.7" fill="#b0a49c" fill-rule="evenodd" stroke="none"/>
      <path d="M9.55 37.7 Q9.05 38.3 8.4 38.05 7.7 37.75 7.2 36.75 6.7 35.75 6.7 34.65 6.7 33.5 7.2 32.95 7.7 32.35 8.4 32.65 9.05 32.9 9.55 33.9 10.05 34.85 10.05 36.0 10.05 37.1 9.55 37.7 Z" fill="none" stroke="#000000" stroke-linecap="round" stroke-linejoin="round" stroke-opacity="0.15294118" stroke-width="0.1"/>
      <path d="M10.55 37.65 Q10.05 38.25 9.4 38.0 8.7 37.7 8.2 36.7 7.7 35.7 7.7 34.6 7.7 33.45 8.2 32.9 8.7 32.3 9.4 32.6 10.05 32.85 10.55 33.85 11.05 34.8 11.05 35.95 11.05 37.05 10.55 37.65" fill="#990000" fill-rule="evenodd" stroke="none"/>
      <path d="M10.55 37.65 Q10.05 38.25 9.4 38.0 8.7 37.7 8.2 36.7 7.7 35.7 7.7 34.6 7.7 33.45 8.2 32.9 8.7 32.3 9.4 32.6 10.05 32.85 10.55 33.85 11.05 34.8 11.05 35.95 11.05 37.05 10.55 37.65 Z" fill="none" stroke="#000000" stroke-linecap="round" stroke-linejoin="round" stroke-opacity="0.15294118" stroke-width="0.1"/>
      <path d="M13.75 21.65 Q13.2 21.2 13.55 20.7 13.9 20.25 14.95 20.0 L17.1 19.9 Q18.2 20.0 18.75 20.45 19.3 20.9 18.95 21.35 18.6 21.85 17.55 22.1 L15.35 22.25 Q14.25 22.1 13.75 21.65" fill="#b0a49c" fill-rule="evenodd" stroke="none"/>
      <path d="M13.75 21.65 Q13.2 21.2 13.55 20.7 13.9 20.25 14.95 20.0 L17.1 19.9 Q18.2 20.0 18.75 20.45 19.3 20.9 18.95 21.35 18.6 21.85 17.55 22.1 L15.35 22.25 Q14.25 22.1 13.75 21.65 Z" fill="none" stroke="#000000" stroke-linecap="round" stroke-linejoin="round" stroke-opacity="0.15294118" stroke-width="0.1"/>
      <path d="M13.65 22.4 Q13.1 21.95 13.45 21.45 13.8 21.0 14.85 20.75 L17.0 20.65 Q18.1 20.75 18.65 21.2 19.2 21.65 18.85 22.1 18.5 22.6 17.45 22.85 L15.25 23.0 Q14.15 22.85 13.65 22.4" fill="#990000" fill-rule="evenodd" stroke="none"/>
      <path d="M13.65 22.4 Q13.1 21.95 13.45 21.45 13.8 21.0 14.85 20.75 L17.0 20.65 Q18.1 20.75 18.65 21.2 19.2 21.65 18.85 22.1 18.5 22.6 17.45 22.85 L15.25 23.0 Q14.15 22.85 13.65 22.4 Z" fill="none" stroke="#000000" stroke-linecap="round" stroke-linejoin="round" stroke-opacity="0.15294118" stroke-width="0.1"/>
      <path d="M13.2 26.65 Q12.65 26.2 13.0 25.7 13.35 25.25 14.4 25.0 L16.55 24.9 Q17.65 25.0 18.2 25.45 18.75 25.9 18.4 26.35 L17.0 27.1 14.8 27.25 Q13.7 27.1 13.2 26.65" fill="#b0a49c" fill-rule="evenodd" stroke="none"/>
      <path d="M13.2 26.65 Q12.65 26.2 13.0 25.7 13.35 25.25 14.4 25.0 L16.55 24.9 Q17.65 25.0 18.2 25.45 18.75 25.9 18.4 26.35 L17.0 27.1 14.8 27.25 Q13.7 27.1 13.2 26.65 Z" fill="none" stroke="#000000" stroke-linecap="round" stroke-linejoin="round" stroke-opacity="0.15294118" stroke-width="0.1"/>
      <path d="M13.15 27.35 Q12.6 26.9 12.95 26.4 13.3 25.95 14.35 25.7 L16.5 25.6 Q17.6 25.7 18.15 26.15 18.7 26.6 18.35 27.05 18.0 27.55 16.95 27.8 L14.75 27.95 Q13.65 27.8 13.15 27.35" fill="#990000" fill-rule="evenodd" stroke="none"/>
      <path d="M13.15 27.35 Q12.6 26.9 12.95 26.4 13.3 25.95 14.35 25.7 L16.5 25.6 Q17.6 25.7 18.15 26.15 18.7 26.6 18.35 27.05 18.0 27.55 16.95 27.8 L14.75 27.95 Q13.65 27.8 13.15 27.35 Z" fill="none" stroke="#000000" stroke-linecap="round" stroke-linejoin="round" stroke-opacity="0.15294118" stroke-width="0.1"/>
      <path d="M25.75 30.5 Q26.25 31.1 26.9 30.85 27.6 30.55 28.1 29.55 28.6 28.55 28.6 27.45 28.6 26.3 28.1 25.75 27.6 25.15 26.9 25.45 26.25 25.7 25.75 26.7 25.25 27.65 25.25 28.8 25.25 29.9 25.75 30.5" fill="#b0a49c" fill-rule="evenodd" stroke="none"/>
      <path d="M25.75 30.5 Q26.25 31.1 26.9 30.85 27.6 30.55 28.1 29.55 28.6 28.55 28.6 27.45 28.6 26.3 28.1 25.75 27.6 25.15 26.9 25.45 26.25 25.7 25.75 26.7 25.25 27.65 25.25 28.8 25.25 29.9 25.75 30.5 Z" fill="none" stroke="#000000" stroke-linecap="round" stroke-linejoin="round" stroke-opacity="0.15294118" stroke-width="0.1"/>
      <path d="M24.75 30.45 Q25.25 31.05 25.9 30.8 26.6 30.5 27.1 29.5 27.6 28.5 27.6 27.4 27.6 26.25 27.1 25.7 26.6 25.1 25.9 25.4 25.25 25.65 24.75 26.65 24.25 27.6 24.25 28.75 24.25 29.85 24.75 30.45" fill="#990000" fill-rule="evenodd" stroke="none"/>
      <path d="M24.75 30.45 Q25.25 31.05 25.9 30.8 26.6 30.5 27.1 29.5 27.6 28.5 27.6 27.4 27.6 26.25 27.1 25.7 26.6 25.1 25.9 25.4 25.25 25.65 24.75 26.65 24.25 27.6 24.25 28.75 24.25 29.85 24.75 30.45 Z" fill="none" stroke="#000000" stroke-linecap="round" stroke-linejoin="round" stroke-opacity="0.15294118" stroke-width="0.1"/>
      <path d="M21.8 36.85 Q22.3 37.45 22.95 37.2 23.65 36.9 24.15 35.9 24.65 34.9 24.65 33.8 24.65 32.65 24.15 32.1 23.65 31.5 22.95 31.8 22.3 32.05 21.8 33.05 21.3 34.0 21.3 35.15 21.3 36.25 21.8 36.85" fill="#b0a49c" fill-rule="evenodd" stroke="none"/>
      <path d="M21.8 36.85 Q22.3 37.45 22.95 37.2 23.65 36.9 24.15 35.9 24.65 34.9 24.65 33.8 24.65 32.65 24.15 32.1 23.65 31.5 22.95 31.8 22.3 32.05 21.8 33.05 21.3 34.0 21.3 35.15 21.3 36.25 21.8 36.85 Z" fill="none" stroke="#000000" stroke-linecap="round" stroke-linejoin="round" stroke-opacity="0.15294118" stroke-width="0.1"/>
      <path d="M20.85 36.85 Q21.35 37.45 22.0 37.2 22.7 36.9 23.2 35.9 23.7 34.9 23.7 33.8 23.7 32.65 23.2 32.1 22.7 31.5 22.0 31.8 21.35 32.05 20.85 33.05 20.35 34.0 20.35 35.15 20.35 36.25 20.85 36.85" fill="#990000" fill-rule="evenodd" stroke="none"/>
      <path d="M20.85 36.85 Q21.35 37.45 22.0 37.2 22.7 36.9 23.2 35.9 23.7 34.9 23.7 33.8 23.7 32.65 23.2 32.1 22.7 31.5 22.0 31.8 21.35 32.05 20.85 33.05 20.35 34.0 20.35 35.15 20.35 36.25 20.85 36.85 Z" fill="none" stroke="#000000" stroke-linecap="round" stroke-linejoin="round" stroke-opacity="0.15294118" stroke-width="0.1"/>
      <path d="M17.85 43.35 Q18.35 43.95 19.0 43.7 19.7 43.4 20.2 42.4 20.7 41.4 20.7 40.3 20.7 39.15 20.2 38.6 19.7 38.0 19.0 38.3 18.35 38.55 17.85 39.55 17.35 40.5 17.35 41.65 17.35 42.75 17.85 43.35" fill="#b0a49c" fill-rule="evenodd" stroke="none"/>
      <path d="M17.85 43.35 Q18.35 43.95 19.0 43.7 19.7 43.4 20.2 42.4 20.7 41.4 20.7 40.3 20.7 39.15 20.2 38.6 19.7 38.0 19.0 38.3 18.35 38.55 17.85 39.55 17.35 40.5 17.35 41.65 17.35 42.75 17.85 43.35 Z" fill="none" stroke="#000000" stroke-linecap="round" stroke-linejoin="round" stroke-opacity="0.15294118" stroke-width="0.1"/>
      <path d="M16.85 43.3 Q17.35 43.9 18.0 43.65 18.7 43.35 19.2 42.35 19.7 41.35 19.7 40.25 19.7 39.1 19.2 38.55 18.7 37.95 18.0 38.25 17.35 38.5 16.85 39.5 16.35 40.45 16.35 41.6 16.35 42.7 16.85 43.3" fill="#990000" fill-rule="evenodd" stroke="none"/>
      <path d="M16.85 43.3 Q17.35 43.9 18.0 43.65 18.7 43.35 19.2 42.35 19.7 41.35 19.7 40.25 19.7 39.1 19.2 38.55 18.7 37.95 18.0 38.25 17.35 38.5 16.85 39.5 16.35 40.45 16.35 41.6 16.35 42.7 16.85 43.3 Z" fill="none" stroke="#000000" stroke-linecap="round" stroke-linejoin="round" stroke-opacity="0.15294118" stroke-width="0.1"/>
      <path d="M28.65 21.85 L28.3 22.75 30.7 35.1 30.2 36.15 Q27.2 42.05 22.95 45.2 L20.55 32.9 20.55 32.35 28.65 21.85" fill="#f7e7dd" fill-rule="evenodd" stroke="none"/>
      <path d="M30.7 35.1 L28.3 22.75 28.65 21.85 29.35 21.9 42.45 25.4 Q43.75 25.75 44.0 27.0 L46.25 38.35 Q45.7 40.1 42.35 39.4 L42.2 39.35 32.75 36.85 32.25 36.7 31.85 36.6 Q30.9 36.15 30.7 35.1" fill="#ebdcd3" fill-rule="evenodd" stroke="none"/>
      <path d="M32.75 36.85 L42.2 39.35 42.35 39.4 Q45.7 40.6 44.3 42.65 L39.65 49.1 Q38.5 50.6 37.5 50.3 L24.45 46.8 Q27.2 41.2 32.75 36.85" fill="#cfc2b9" fill-rule="evenodd" stroke="none"/>
      <path d="M42.35 39.4 Q45.7 40.1 46.25 38.35 L46.4 39.3 Q46.5 39.95 46.2 40.15 L44.3 42.65 Q45.7 40.6 42.35 39.4" fill="#dbcdc4" fill-rule="evenodd" stroke="none"/>
      <path d="M30.7 35.1 Q30.9 36.15 31.85 36.6 L32.25 36.7 32.75 36.85 Q27.2 41.2 24.45 46.8 23.15 46.45 22.95 45.2 27.2 42.05 30.2 36.15 L30.7 35.1" fill="#fefefe" fill-rule="evenodd" stroke="none"/>
      <path d="M46.25 38.35 L44.0 27.0 Q43.75 25.75 42.45 25.4 L29.35 21.9 28.65 21.85 20.55 32.35 20.55 32.9 22.95 45.2 Q23.15 46.45 24.45 46.8 L37.5 50.3 Q38.5 50.6 39.65 49.1 L44.3 42.65 46.2 40.15 Q46.5 39.95 46.4 39.3 L46.25 38.35 Z" fill="none" stroke="#000000" stroke-linecap="round" stroke-linejoin="round" stroke-opacity="0.15294118" stroke-width="0.1"/>
      <path d="M37.15 43.9 Q37.65 44.5 37.2 45.1 36.75 45.7 35.6 45.95 L33.45 45.85 Q32.4 45.55 31.9 44.95 31.5 44.3 31.95 43.7 32.4 43.1 33.45 42.9 L35.65 42.95 Q36.75 43.25 37.15 43.9" fill="#b0a49c" fill-rule="evenodd" stroke="none"/>
      <path d="M37.15 43.9 Q37.65 44.5 37.2 45.1 36.75 45.7 35.6 45.95 L33.45 45.85 Q32.4 45.55 31.9 44.95 31.5 44.3 31.95 43.7 32.4 43.1 33.45 42.9 L35.65 42.95 Q36.75 43.25 37.15 43.9 Z" fill="none" stroke="#000000" stroke-linecap="round" stroke-linejoin="round" stroke-opacity="0.15294118" stroke-width="0.1"/>
      <path d="M37.45 42.9 Q37.9 43.6 37.45 44.2 37.0 44.8 35.9 45.0 L33.75 44.95 Q32.7 44.65 32.2 44.0 31.75 43.35 32.2 42.75 32.65 42.15 33.75 41.95 L35.95 42.0 Q37.0 42.3 37.45 42.9" fill="#000000" fill-rule="evenodd" stroke="none"/>
      <path d="M37.45 42.9 Q37.9 43.6 37.45 44.2 37.0 44.8 35.9 45.0 L33.75 44.95 Q32.7 44.65 32.2 44.0 31.75 43.35 32.2 42.75 32.65 42.15 33.75 41.95 L35.95 42.0 Q37.0 42.3 37.45 42.9 Z" fill="none" stroke="#000000" stroke-linecap="round" stroke-linejoin="round" stroke-opacity="0.15294118" stroke-width="0.1"/>
      <path d="M22.75 35.75 L21.8 35.65 Q21.45 35.2 21.45 34.15 21.5 33.05 21.9 32.0 22.35 30.95 22.85 30.6 L23.8 30.65 Q24.2 31.15 24.15 32.2 24.2 33.25 23.75 34.3 23.35 35.35 22.75 35.75" fill="#b0a49c" fill-rule="evenodd" stroke="none"/>
      <path d="M22.75 35.75 L21.8 35.65 Q21.45 35.2 21.45 34.15 21.5 33.05 21.9 32.0 22.35 30.95 22.85 30.6 L23.8 30.65 Q24.2 31.15 24.15 32.2 24.2 33.25 23.75 34.3 23.35 35.35 22.75 35.75 Z" fill="none" stroke="#000000" stroke-linecap="round" stroke-linejoin="round" stroke-opacity="0.15294118" stroke-width="0.1"/>
      <path d="M23.45 36.0 L22.5 35.9 Q22.15 35.45 22.15 34.4 22.2 33.3 22.6 32.25 23.05 31.2 23.55 30.85 L24.5 30.9 Q24.9 31.4 24.85 32.45 24.9 33.5 24.45 34.55 24.05 35.6 23.45 36.0" fill="#333333" fill-rule="evenodd" stroke="none"/>
      <path d="M23.45 36.0 L22.5 35.9 Q22.15 35.45 22.15 34.4 22.2 33.3 22.6 32.25 23.05 31.2 23.55 30.85 L24.5 30.9 Q24.9 31.4 24.85 32.45 24.9 33.5 24.45 34.55 24.05 35.6 23.45 36.0 Z" fill="none" stroke="#000000" stroke-linecap="round" stroke-linejoin="round" stroke-opacity="0.15294118" stroke-width="0.1"/>
      <path d="M27.45 37.55 L26.5 37.45 Q26.15 37.0 26.15 35.95 26.2 34.85 26.6 33.8 27.05 32.75 27.55 32.4 L28.5 32.45 Q28.9 32.95 28.85 34.0 28.9 35.05 28.45 36.1 28.05 37.15 27.45 37.55" fill="#b0a49c" fill-rule="evenodd" stroke="none"/>
      <path d="M27.45 37.55 L26.5 37.45 Q26.15 37.0 26.15 35.95 26.2 34.85 26.6 33.8 27.05 32.75 27.55 32.4 L28.5 32.45 Q28.9 32.95 28.85 34.0 28.9 35.05 28.45 36.1 28.05 37.15 27.45 37.55 Z" fill="none" stroke="#000000" stroke-linecap="round" stroke-linejoin="round" stroke-opacity="0.15294118" stroke-width="0.1"/>
      <path d="M28.15 37.8 L27.2 37.7 Q26.85 37.25 26.85 36.2 26.9 35.1 27.3 34.05 27.75 33.0 28.25 32.65 L29.2 32.7 Q29.6 33.2 29.55 34.25 29.6 35.3 29.15 36.35 28.75 37.4 28.15 37.8" fill="#333333" fill-rule="evenodd" stroke="none"/>
      <path d="M28.15 37.8 L27.2 37.7 Q26.85 37.25 26.85 36.2 26.9 35.1 27.3 34.05 27.75 33.0 28.25 32.65 L29.2 32.7 Q29.6 33.2 29.55 34.25 29.6 35.3 29.15 36.35 28.75 37.4 28.15 37.8 Z" fill="none" stroke="#000000" stroke-linecap="round" stroke-linejoin="round" stroke-opacity="0.15294118" stroke-width="0.1"/>
      <path d="M34.45 26.8 Q35.15 26.5 35.1 25.75 35.0 25.0 34.15 24.25 33.3 23.55 32.2 23.25 31.15 22.95 30.45 23.25 29.75 23.6 29.85 24.35 29.9 25.1 30.75 25.8 31.6 26.55 32.65 26.85 L34.45 26.8" fill="#b0a49c" fill-rule="evenodd" stroke="none"/>
      <path d="M34.45 26.8 Q35.15 26.5 35.1 25.75 35.0 25.0 34.15 24.25 33.3 23.55 32.2 23.25 31.15 22.95 30.45 23.25 29.75 23.6 29.85 24.35 29.9 25.1 30.75 25.8 31.6 26.55 32.65 26.85 L34.45 26.8 Z" fill="none" stroke="#000000" stroke-linecap="round" stroke-linejoin="round" stroke-opacity="0.15294118" stroke-width="0.1"/>
      <path d="M34.2 27.75 Q34.9 27.45 34.85 26.7 34.75 25.95 33.9 25.2 33.05 24.5 31.95 24.2 30.9 23.9 30.2 24.2 29.5 24.55 29.6 25.3 29.65 26.05 30.5 26.75 31.35 27.5 32.4 27.8 L34.2 27.75" fill="#000000" fill-rule="evenodd" stroke="none"/>
      <path d="M34.2 27.75 Q34.9 27.45 34.85 26.7 34.75 25.95 33.9 25.2 33.05 24.5 31.95 24.2 30.9 23.9 30.2 24.2 29.5 24.55 29.6 25.3 29.65 26.05 30.5 26.75 31.35 27.5 32.4 27.8 L34.2 27.75 Z" fill="none" stroke="#000000" stroke-linecap="round" stroke-linejoin="round" stroke-opacity="0.15294118" stroke-width="0.1"/>
      <path d="M36.05 35.1 Q36.75 34.8 36.7 34.05 36.6 33.3 35.75 32.55 34.9 31.85 33.8 31.55 32.75 31.25 32.05 31.55 31.35 31.9 31.45 32.65 31.5 33.4 32.35 34.1 33.2 34.85 34.25 35.15 L36.05 35.1" fill="#b0a49c" fill-rule="evenodd" stroke="none"/>
      <path d="M36.05 35.1 Q36.75 34.8 36.7 34.05 36.6 33.3 35.75 32.55 34.9 31.85 33.8 31.55 32.75 31.25 32.05 31.55 31.35 31.9 31.45 32.65 31.5 33.4 32.35 34.1 33.2 34.85 34.25 35.15 L36.05 35.1 Z" fill="none" stroke="#000000" stroke-linecap="round" stroke-linejoin="round" stroke-opacity="0.15294118" stroke-width="0.1"/>
      <path d="M35.8 36.0 Q36.5 35.7 36.45 34.95 36.35 34.2 35.5 33.45 34.65 32.75 33.55 32.45 32.5 32.15 31.8 32.45 31.1 32.8 31.2 33.55 31.25 34.3 32.1 35.0 32.95 35.75 34.0 36.05 L35.8 36.0" fill="#000000" fill-rule="evenodd" stroke="none"/>
      <path d="M35.8 36.0 Q36.5 35.7 36.45 34.95 36.35 34.2 35.5 33.45 34.65 32.75 33.55 32.45 32.5 32.15 31.8 32.45 31.1 32.8 31.2 33.55 31.25 34.3 32.1 35.0 32.95 35.75 34.0 36.05 L35.8 36.0 Z" fill="none" stroke="#000000" stroke-linecap="round" stroke-linejoin="round" stroke-opacity="0.15294118" stroke-width="0.1"/>
      <path d="M44.8 37.4 Q45.5 37.1 45.45 36.35 45.35 35.6 44.5 34.85 43.65 34.15 42.55 33.85 41.5 33.55 40.8 33.85 40.1 34.2 40.2 34.95 40.25 35.7 41.1 36.4 41.95 37.15 43.0 37.45 L44.8 37.4" fill="#b0a49c" fill-rule="evenodd" stroke="none"/>
      <path d="M44.8 37.4 Q45.5 37.1 45.45 36.35 45.35 35.6 44.5 34.85 43.65 34.15 42.55 33.85 41.5 33.55 40.8 33.85 40.1 34.2 40.2 34.95 40.25 35.7 41.1 36.4 41.95 37.15 43.0 37.45 L44.8 37.4 Z" fill="none" stroke="#000000" stroke-linecap="round" stroke-linejoin="round" stroke-opacity="0.15294118" stroke-width="0.1"/>
      <path d="M44.5 38.3 Q45.2 38.0 45.15 37.25 45.05 36.5 44.2 35.75 43.35 35.05 42.25 34.75 41.2 34.45 40.5 34.75 39.8 35.1 39.9 35.85 39.95 36.6 40.8 37.3 41.65 38.05 42.7 38.35 L44.5 38.3" fill="#000000" fill-rule="evenodd" stroke="none"/>
      <path d="M44.5 38.3 Q45.2 38.0 45.15 37.25 45.05 36.5 44.2 35.75 43.35 35.05 42.25 34.75 41.2 34.45 40.5 34.75 39.8 35.1 39.9 35.85 39.95 36.6 40.8 37.3 41.65 38.05 42.7 38.35 L44.5 38.3 Z" fill="none" stroke="#000000" stroke-linecap="round" stroke-linejoin="round" stroke-opacity="0.15294118" stroke-width="0.1"/>
      <path d="M43.25 29.45 Q43.95 29.15 43.9 28.4 43.8 27.65 42.95 26.9 42.1 26.2 41.0 25.9 39.95 25.6 39.25 25.9 38.55 26.25 38.65 27.0 38.7 27.75 39.55 28.45 40.4 29.2 41.45 29.5 L43.25 29.45" fill="#b0a49c" fill-rule="evenodd" stroke="none"/>
      <path d="M43.25 29.45 Q43.95 29.15 43.9 28.4 43.8 27.65 42.95 26.9 42.1 26.2 41.0 25.9 39.95 25.6 39.25 25.9 38.55 26.25 38.65 27.0 38.7 27.75 39.55 28.45 40.4 29.2 41.45 29.5 L43.25 29.45 Z" fill="none" stroke="#000000" stroke-linecap="round" stroke-linejoin="round" stroke-opacity="0.15294118" stroke-width="0.1"/>
      <path d="M43.0 30.4 Q43.7 30.1 43.65 29.35 43.55 28.6 42.7 27.85 41.85 27.15 40.75 26.85 39.7 26.55 39.0 26.85 38.3 27.2 38.4 27.95 38.45 28.7 39.3 29.4 40.15 30.15 41.2 30.45 L43.0 30.4" fill="#000000" fill-rule="evenodd" stroke="none"/>
      <path d="M43.0 30.4 Q43.7 30.1 43.65 29.35 43.55 28.6 42.7 27.85 41.85 27.15 40.75 26.85 39.7 26.55 39.0 26.85 38.3 27.2 38.4 27.95 38.45 28.7 39.3 29.4 40.15 30.15 41.2 30.45 L43.0 30.4 Z" fill="none" stroke="#000000" stroke-linecap="round" stroke-linejoin="round" stroke-opacity="0.15294118" stroke-width="0.1"/>
    </g>
  </defs>
</svg>
