<?xml version="1.0" encoding="UTF-8" standalone="no"?>
<svg xmlns:xlink="http://www.w3.org/1999/xlink" height="520.0px" width="520.0px" xmlns="http://www.w3.org/2000/svg">
  <g transform="matrix(10.0, 0.0, 0.0, 10.0, 0.0, 0.0)">
    <use height="52.0" transform="matrix(1.0, 0.0, 0.0, 1.0, 0.0, 0.0)" width="52.0" xlink:href="#shape0"/>
    <use height="136.85" transform="matrix(0.115, 0.066, -0.0304, 0.051, 8.1707, 28.5846)" width="148.25" xlink:href="#sprite0"/>
    <use height="136.85" transform="matrix(0.0844, 0.0484, -0.0165, 0.0276, 27.8203, 6.5442)" width="148.25" xlink:href="#sprite0"/>
  </g>
  <defs>
    <g id="shape0" transform="matrix(1.0, 0.0, 0.0, 1.0, 0.0, 0.0)">
      <path d="M52.0 0.0 L52.0 52.0 0.0 52.0 0.0 0.0 52.0 0.0" fill="#795fa9" fill-opacity="0.0" fill-rule="evenodd" stroke="none"/>
      <path d="M25.8 4.45 L27.05 4.9 27.55 5.1 28.45 5.65 28.55 5.8 29.4 6.65 29.45 6.7 29.5 6.8 30.05 7.6 30.15 7.7 30.15 7.75 30.15 7.9 30.05 8.95 29.85 10.45 31.65 10.8 Q31.45 10.15 31.8 9.5 L32.1 8.85 32.2 8.85 32.15 8.8 Q32.35 7.55 31.55 7.1 L32.5 6.7 34.3 8.15 34.65 8.8 35.2 10.4 Q35.25 11.05 34.9 11.6 L34.75 11.85 36.95 12.95 37.55 13.4 37.7 13.15 Q38.15 12.6 38.7 12.4 L40.35 12.15 41.1 12.25 Q41.8 12.3 43.2 13.2 L43.25 14.2 Q42.5 13.7 41.45 14.45 L41.4 14.4 41.4 14.45 41.0 15.05 40.1 15.7 41.1 17.05 42.25 16.35 43.15 15.85 43.3 15.75 43.35 15.75 43.5 15.8 44.45 15.9 44.55 15.95 44.65 15.95 45.7 16.3 45.9 16.35 Q46.3 16.5 46.8 16.95 L47.25 17.25 48.15 18.15 48.2 18.85 46.85 18.7 46.65 18.75 46.65 18.8 46.6 18.85 Q46.2 19.3 45.45 19.45 L45.35 19.5 44.95 19.6 44.6 19.6 43.8 19.6 43.7 19.65 42.65 19.55 42.4 19.5 42.35 19.55 42.25 19.5 42.8 22.0 Q42.95 24.05 42.5 26.35 41.2 30.1 38.5 32.55 32.55 37.0 23.65 37.0 L24.2 38.05 Q24.4 38.8 23.8 39.05 24.25 40.05 24.35 41.25 24.35 42.9 23.6 44.3 L23.7 44.3 23.5 44.4 22.55 45.7 22.0 46.3 Q20.45 47.65 18.25 47.75 15.75 48.0 13.85 46.4 12.6 45.25 12.2 43.65 L12.05 42.25 12.05 41.8 11.9 41.75 Q11.55 41.7 11.3 41.45 L10.45 41.6 Q7.85 41.8 6.0 40.2 4.75 39.05 4.3 37.5 L4.15 36.05 Q4.15 35.25 4.3 34.55 4.4 33.85 4.65 33.3 L5.8 31.65 Q7.5 29.7 10.15 29.5 L10.35 29.45 Q10.45 28.75 11.3 28.7 L11.85 28.7 Q11.25 24.2 13.25 19.3 16.15 13.4 20.95 11.35 L22.75 10.7 27.2 10.3 27.15 10.2 27.0 10.0 26.5 9.15 26.4 9.0 26.05 8.2 26.0 8.0 25.85 7.55 25.85 7.4 Q25.75 6.7 25.9 6.2 L25.9 6.05 25.95 6.05 25.9 5.85 25.2 4.7 25.8 4.45 M19.75 14.7 Q15.2 17.65 14.0 22.45 L13.6 24.95 Q13.45 27.3 14.4 29.2 L14.45 29.2 15.4 30.05 Q15.75 30.75 15.4 31.65 L15.3 31.8 15.4 32.05 Q16.35 33.25 16.45 35.05 L16.45 36.0 18.0 35.7 19.65 35.75 Q19.85 35.4 20.3 35.25 L21.15 35.1 Q21.85 34.95 22.5 35.65 33.05 34.9 37.35 29.55 L38.1 28.5 Q41.85 21.2 34.75 15.0 27.2 10.55 20.1 14.45 L19.75 14.7" fill="none" stroke="#000000" stroke-linecap="round" stroke-linejoin="round" stroke-opacity="0.3019608" stroke-width="1.0"/>
      <path d="M26.5 6.5 L26.55 5.9 Q27.0 5.65 27.4 5.35 L28.35 6.0 28.55 5.8 28.45 5.65 27.55 5.1 27.05 4.9 25.8 4.45 25.2 4.7 25.9 5.85 25.95 6.05 25.9 6.05 25.9 6.2 Q25.75 6.7 25.85 7.4 26.0 6.7 26.5 6.5 M45.45 19.45 Q46.2 19.3 46.6 18.85 L46.65 18.8 46.65 18.75 46.85 18.7 48.2 18.85 48.15 18.15 47.25 17.25 46.8 16.95 Q46.3 16.5 45.9 16.35 L45.7 16.3 45.7 16.6 46.6 17.15 46.55 18.2 46.0 18.5 Q46.05 19.0 45.45 19.45" fill="#120c0a" fill-rule="evenodd" stroke="none"/>
      <path d="M28.35 6.0 L27.4 5.35 Q27.0 5.65 26.55 5.9 L26.5 6.5 26.6 6.55 28.35 6.0 M46.0 18.5 L46.55 18.2 46.6 17.15 45.7 16.6 Q45.65 17.1 45.95 18.35 L46.0 18.5" fill="#180f0c" fill-rule="evenodd" stroke="none"/>
      <path d="M26.5 6.5 Q26.0 6.7 25.85 7.4 L25.85 7.55 26.0 8.0 Q26.15 7.7 26.45 7.5 L26.5 6.5 M28.55 5.8 L28.35 6.0 29.4 6.65 28.55 5.8 M44.95 19.6 L45.35 19.5 45.45 19.45 Q46.05 19.0 46.0 18.5 L45.1 19.0 44.95 19.6 M45.7 16.3 L44.65 15.95 45.7 16.6 45.7 16.3" fill="#583f1d" fill-rule="evenodd" stroke="none"/>
      <path d="M28.35 6.0 L26.6 6.55 26.5 6.5 26.45 7.5 26.85 7.4 27.8 7.4 Q28.25 6.8 28.9 6.65 L29.0 6.7 29.4 6.95 29.5 6.8 29.45 6.7 29.4 6.65 28.35 6.0 M44.65 15.95 L44.55 15.95 44.45 15.9 44.3 16.1 44.75 16.35 44.8 16.4 44.65 17.75 45.05 18.55 45.1 19.0 46.0 18.5 45.95 18.35 Q45.65 17.1 45.7 16.6 L44.65 15.95" fill="#8b642e" fill-rule="evenodd" stroke="none"/>
      <path d="M27.8 7.4 L26.85 7.4 26.45 7.5 26.4 8.45 27.15 10.2 27.2 10.3 27.35 10.5 27.4 10.55 27.7 11.1 29.75 11.2 29.85 10.55 29.0 11.15 27.85 10.75 Q27.25 9.9 27.0 8.8 L27.05 8.65 Q27.4 7.85 27.8 7.4 M40.9 17.25 L40.4 17.65 Q40.1 19.1 41.35 19.4 L42.0 19.5 42.1 19.45 42.35 19.55 42.4 19.5 44.3 19.45 45.1 19.0 45.05 18.55 44.65 17.75 43.85 18.95 43.75 19.0 41.6 19.15 40.8 18.25 40.9 17.25" fill="#703210" fill-rule="evenodd" stroke="none"/>
      <path d="M26.45 7.5 Q26.15 7.7 26.0 8.0 L26.05 8.2 26.4 9.0 26.5 9.15 27.0 10.0 27.15 10.2 26.4 8.45 26.45 7.5 M42.4 19.5 L42.65 19.55 43.7 19.65 43.8 19.6 44.6 19.6 44.95 19.6 45.1 19.0 44.3 19.45 42.4 19.5" fill="#411d0a" fill-rule="evenodd" stroke="none"/>
      <path d="M29.5 6.8 L29.4 6.95 Q29.05 7.4 27.8 7.4 27.4 7.85 27.05 8.65 L27.0 8.8 Q27.25 9.9 27.85 10.75 L29.0 11.15 29.85 10.55 29.85 10.5 30.05 8.95 30.15 7.9 30.15 7.75 30.15 7.7 30.05 7.6 29.5 6.8 M32.1 8.85 L31.8 9.5 Q31.15 10.95 32.75 12.3 L34.15 12.55 34.9 11.6 Q35.25 11.05 35.2 10.4 L33.15 9.3 32.1 8.85 M38.7 12.4 Q38.15 12.6 37.7 13.15 L37.2 14.3 38.05 15.4 Q40.0 16.3 41.0 15.05 L41.4 14.45 40.55 13.75 38.7 12.4 M44.45 15.9 L43.5 15.8 43.35 15.75 43.3 15.75 43.15 15.85 42.25 16.35 40.9 17.2 40.9 17.25 40.8 18.25 41.6 19.15 43.75 19.0 43.85 18.95 44.65 17.75 Q44.1 16.6 44.3 16.1 L44.45 15.9" fill="#bb541b" fill-rule="evenodd" stroke="none"/>
      <path d="M29.4 6.95 L29.0 6.7 28.9 6.65 Q28.25 6.8 27.8 7.4 29.05 7.4 29.4 6.95 M34.65 8.8 L33.4 8.35 32.15 8.8 32.2 8.85 32.1 8.85 33.15 9.3 35.2 10.4 34.65 8.8 M40.35 12.15 L38.7 12.4 40.55 13.75 41.4 14.45 41.4 14.4 41.45 14.45 41.3 13.15 40.35 12.15 M44.3 16.1 Q44.1 16.6 44.65 17.75 L44.8 16.4 44.75 16.35 44.3 16.1" fill="#ddb477" fill-rule="evenodd" stroke="none"/>
      <path d="M34.65 8.8 L34.3 8.15 32.5 6.7 31.55 7.1 Q32.35 7.55 32.15 8.8 L33.4 8.35 34.65 8.8 M41.45 14.45 Q42.5 13.7 43.25 14.2 L43.2 13.2 Q41.8 12.3 41.1 12.25 L40.35 12.15 41.3 13.15 41.45 14.45" fill="#231510" fill-rule="evenodd" stroke="none"/>
      <path d="M25.85 7.4 Q25.75 6.7 25.9 6.2 L25.9 6.05 25.95 6.05 25.9 5.85 25.2 4.7 25.8 4.45 27.05 4.9 M27.55 5.1 L28.45 5.65 28.55 5.8 29.4 6.65 M26.0 8.0 L25.85 7.55 M27.15 10.2 L27.0 10.0 26.5 9.15 26.4 9.0 26.05 8.2 26.0 8.0 M29.45 6.7 L29.5 6.8 30.05 7.6 30.15 7.7 30.15 7.75 M32.15 8.8 Q32.35 7.55 31.55 7.1 L32.5 6.7 34.3 8.15 34.65 8.8 M32.15 8.8 L32.2 8.85 32.1 8.85 31.8 9.5 Q31.15 10.95 32.75 12.3 L34.15 12.55 34.9 11.6 Q35.25 11.05 35.2 10.4 L34.65 8.8 M30.15 7.9 L30.05 8.95 29.85 10.5 29.85 10.55 29.75 11.2 27.7 11.1 M27.4 10.55 L27.35 10.5 27.2 10.3 27.15 10.2" fill="none" stroke="#000000" stroke-linecap="round" stroke-linejoin="round" stroke-opacity="0.3019608" stroke-width="0.05"/>
      <path d="M41.45 14.45 Q42.5 13.7 43.25 14.2 L43.2 13.2 Q41.8 12.3 41.1 12.25 L40.35 12.15 38.7 12.4 Q38.15 12.6 37.7 13.15 L37.2 14.3 38.05 15.4 Q40.0 16.3 41.0 15.05 L41.4 14.45 41.4 14.4 41.45 14.45 M44.45 15.9 L43.5 15.8 43.35 15.75 43.3 15.75 M43.15 15.85 L42.25 16.35 40.9 17.2 40.9 17.25 40.4 17.65 Q40.1 19.1 41.35 19.4 M42.0 19.5 L42.1 19.45 42.35 19.55 42.4 19.5 42.65 19.55 43.7 19.65 43.8 19.6 44.6 19.6 44.95 19.6 45.35 19.5 M45.45 19.45 Q46.2 19.3 46.6 18.85 L46.65 18.8 46.65 18.75 46.85 18.7 48.2 18.85 48.15 18.15 47.25 17.25 M46.8 16.95 Q46.3 16.5 45.9 16.35 L45.7 16.3 44.65 15.95 M44.55 15.95 L44.45 15.9" fill="none" stroke="#000000" stroke-linecap="round" stroke-linejoin="round" stroke-opacity="0.3019608" stroke-width="0.30000000000000004"/>
      <path d="M42.8 22.0 Q42.3 16.6 36.95 12.95 30.75 9.2 22.75 10.7 L20.95 11.35 Q16.15 13.4 13.25 19.3 11.25 24.2 11.85 28.7 L11.3 28.7 Q10.1 28.75 10.4 30.15 11.35 29.4 12.4 29.45 L13.7 29.8 14.15 30.0 15.4 30.05 14.45 29.2 14.4 29.2 Q13.45 27.3 13.6 24.95 L14.0 22.45 Q14.65 17.85 18.8 14.65 L20.05 13.75 Q26.05 9.85 32.85 12.55 37.65 14.6 39.75 19.6 41.3 25.65 37.35 29.55 33.05 34.9 22.5 35.65 21.85 34.95 21.15 35.1 L20.3 35.25 Q19.55 35.5 19.55 36.35 L22.45 37.75 Q22.95 37.65 22.95 37.15 L22.8 36.45 Q31.15 36.2 37.25 32.25 42.5 28.15 42.8 22.0 M22.95 36.15 L22.5 35.65 22.95 36.15" fill="#006633" fill-rule="evenodd" stroke="none"/>
      <path d="M42.8 22.0 Q42.5 28.15 37.25 32.25 31.15 36.2 22.8 36.45 L22.95 37.15 Q22.95 37.65 22.45 37.75 L19.55 36.35 19.55 36.4 22.95 39.2 Q24.5 39.15 24.2 38.05 L23.65 37.0 Q32.55 37.0 38.5 32.55 41.2 30.1 42.5 26.35 42.95 24.05 42.8 22.0 M14.0 22.45 Q15.2 17.65 19.75 14.7 L20.1 14.45 Q27.2 10.55 34.75 15.0 41.85 21.2 38.1 28.5 L37.35 29.55 Q41.3 25.65 39.75 19.6 37.65 14.6 32.85 12.55 26.05 9.85 20.05 13.75 L18.8 14.65 Q14.65 17.85 14.0 22.45 M15.4 30.05 L14.15 30.0 13.7 29.8 12.4 29.45 Q11.35 29.4 10.4 30.15 L15.1 32.15 15.4 31.65 Q15.75 30.75 15.4 30.05" fill="#014321" fill-rule="evenodd" stroke="none"/>
      <path d="M10.4 30.15 Q10.1 28.75 11.3 28.7 L11.85 28.7 Q11.25 24.2 13.25 19.3 16.15 13.4 20.95 11.35 L22.75 10.7 Q30.75 9.2 36.95 12.95 42.3 16.6 42.8 22.0 42.95 24.05 42.5 26.35 41.2 30.1 38.5 32.55 32.55 37.0 23.65 37.0 L24.2 38.05 Q24.5 39.15 22.95 39.2 L19.55 36.4 19.55 36.35 Q19.55 35.5 20.3 35.25 L21.15 35.1 Q21.85 34.95 22.5 35.65 L22.95 36.15 M37.35 29.55 L38.1 28.5 Q41.85 21.2 34.75 15.0 27.2 10.55 20.1 14.45 L19.75 14.7 Q15.2 17.65 14.0 22.45 L13.6 24.95 Q13.45 27.3 14.4 29.2 L14.45 29.2 15.4 30.05 M37.35 29.55 Q33.05 34.9 22.5 35.65 M10.4 30.15 L15.1 32.15 15.4 31.65 Q15.75 30.75 15.4 30.05" fill="none" stroke="#000000" stroke-linecap="round" stroke-linejoin="round" stroke-opacity="0.3019608" stroke-width="0.30000000000000004"/>
      <path d="M12.7 29.95 Q11.55 29.35 10.15 29.5 7.5 29.7 5.8 31.65 4.1 33.5 4.15 36.05 L4.3 37.5 Q6.0 39.5 8.95 39.95 14.0 40.4 15.7 38.15 16.5 36.75 16.45 35.05 16.35 33.25 15.4 32.05 15.95 32.85 15.95 33.95 15.95 35.8 14.7 37.1 13.4 38.3 11.5 38.45 9.6 38.55 8.2 37.3 6.9 36.1 6.85 34.2 6.8 32.4 8.1 31.05 9.4 29.75 11.3 29.7 L12.7 29.95" fill="#9fd51b" fill-rule="evenodd" stroke="none"/>
      <path d="M12.7 29.95 L11.3 29.7 Q9.4 29.75 8.1 31.05 6.8 32.4 6.85 34.2 6.9 36.1 8.2 37.3 9.6 38.55 11.5 38.45 13.4 38.3 14.7 37.1 15.95 35.8 15.95 33.95 15.95 32.85 15.4 32.05 15.15 31.45 14.5 30.95 13.85 30.25 12.9 30.0 L12.7 29.95 M14.15 31.0 L14.7 31.7 15.1 32.85 Q15.0 34.1 14.2 34.95 13.4 35.8 12.15 35.85 10.95 35.85 10.1 35.0 9.25 34.25 9.15 33.1 9.15 31.95 10.0 31.1 10.8 30.2 12.05 30.25 L13.05 30.35 14.15 31.0" fill="#b6de10" fill-rule="evenodd" stroke="none"/>
      <path d="M14.15 31.0 L13.05 30.35 12.05 30.25 Q10.8 30.2 10.0 31.1 9.15 31.95 9.15 33.1 9.25 34.25 10.1 35.0 10.95 35.85 12.15 35.85 13.4 35.8 14.2 34.95 15.0 34.1 15.1 32.85 L14.7 31.7 14.15 31.0" fill="#e3f88f" fill-rule="evenodd" stroke="none"/>
      <path d="M15.7 38.15 Q14.0 40.4 8.95 39.95 6.0 39.5 4.3 37.5 4.75 39.05 6.0 40.2 7.85 41.8 10.45 41.6 12.55 41.4 14.1 40.1 L14.75 39.55 15.65 38.2 15.85 38.1 15.7 38.15 15.65 38.2 15.7 38.15" fill="#7aa516" fill-rule="evenodd" stroke="none"/>
      <path d="M4.3 37.5 L4.15 36.05 Q4.1 33.5 5.8 31.65 7.5 29.7 10.15 29.5 11.55 29.35 12.7 29.95 M15.4 32.05 Q16.35 33.25 16.45 35.05 16.5 36.75 15.7 38.15 L15.65 38.2 M4.3 37.5 Q4.75 39.05 6.0 40.2 7.85 41.8 10.45 41.6 12.55 41.4 14.1 40.1 L14.75 39.55 15.65 38.2 M15.4 32.05 Q15.15 31.45 14.5 30.95 13.85 30.25 12.9 30.0 L12.7 29.95" fill="none" stroke="#000000" stroke-linecap="round" stroke-linejoin="round" stroke-opacity="0.3019608" stroke-width="0.30000000000000004"/>
      <path d="M10.7 40.2 Q10.9 41.45 11.85 41.7 12.85 41.95 14.05 41.1 15.2 40.25 15.95 38.75 16.65 37.3 16.4 36.1 16.2 34.9 15.2 34.65 14.25 34.4 13.05 35.2 11.9 36.05 11.2 37.5 10.45 39.0 10.7 40.2" fill="#143410" fill-opacity="0.18039216" fill-rule="evenodd" stroke="none"/>
      <path d="M23.3 38.2 Q23.75 39.0 23.85 40.15 23.85 41.95 22.6 43.3 21.25 44.55 19.35 44.65 17.5 44.7 16.1 43.5 14.75 42.2 14.75 40.4 14.65 38.6 16.0 37.25 17.2 35.9 19.2 35.9 L20.6 36.05 Q19.45 35.55 18.0 35.7 15.4 35.9 13.65 37.8 11.95 39.7 12.05 42.25 L12.2 43.65 Q13.9 45.7 16.85 46.1 21.8 46.55 23.6 44.3 24.35 42.9 24.35 41.25 24.25 39.45 23.3 38.2" fill="#9fd51b" fill-rule="evenodd" stroke="none"/>
      <path d="M17.0 39.3 Q17.05 38.1 17.8 37.3 18.7 36.4 19.9 36.4 L20.95 36.55 Q21.55 36.75 21.95 37.2 L22.55 37.85 22.9 39.1 Q22.85 40.2 22.1 41.1 21.2 41.95 20.05 41.95 18.85 42.0 18.0 41.2 17.15 40.45 17.0 39.3 M20.6 36.05 L19.2 35.9 Q17.2 35.9 16.0 37.25 14.65 38.6 14.75 40.4 14.75 42.2 16.1 43.5 17.5 44.7 19.35 44.65 21.25 44.55 22.6 43.3 23.85 41.95 23.85 40.15 23.75 39.0 23.3 38.2 L22.4 37.1 Q21.7 36.35 20.75 36.1 L20.6 36.05" fill="#b6de10" fill-rule="evenodd" stroke="none"/>
      <path d="M17.0 39.3 Q17.15 40.45 18.0 41.2 18.85 42.0 20.05 41.95 21.2 41.95 22.1 41.1 22.85 40.2 22.9 39.1 L22.55 37.85 21.95 37.2 Q21.55 36.75 20.95 36.55 L19.9 36.4 Q18.7 36.4 17.8 37.3 17.05 38.1 17.0 39.3" fill="#e3f88f" fill-rule="evenodd" stroke="none"/>
      <path d="M23.6 44.3 Q21.8 46.55 16.85 46.1 13.9 45.7 12.2 43.65 12.6 45.25 13.85 46.4 15.75 48.0 18.25 47.75 20.45 47.65 22.0 46.3 L22.55 45.7 23.5 44.4 23.7 44.3 23.6 44.3 23.5 44.4 23.6 44.3" fill="#7aa516" fill-rule="evenodd" stroke="none"/>
      <path d="M23.3 38.2 Q24.25 39.45 24.35 41.25 24.35 42.9 23.6 44.3 L23.5 44.4 22.55 45.7 22.0 46.3 Q20.45 47.65 18.25 47.75 15.75 48.0 13.85 46.4 12.6 45.25 12.2 43.65 L12.05 42.25 Q11.95 39.7 13.65 37.8 15.4 35.9 18.0 35.7 19.45 35.55 20.6 36.05 L20.75 36.1 Q21.7 36.35 22.4 37.1 L23.3 38.2 Z" fill="none" stroke="#000000" stroke-linecap="round" stroke-linejoin="round" stroke-opacity="0.3019608" stroke-width="0.30000000000000004"/>
      <path d="M14.55 40.65 Q12.55 41.35 12.25 41.9 11.95 42.45 13.1 43.35 14.25 44.25 17.5 45.65 20.8 47.0 21.55 46.2 22.3 45.35 22.1 44.15 21.85 42.85 20.75 41.95 19.75 40.9 18.15 40.45 L14.55 40.65" fill="#fbf1bf" fill-rule="evenodd" stroke="none"/>
      <path d="M14.55 40.65 Q12.55 41.35 12.25 41.9 11.95 42.45 13.1 43.35 14.25 44.25 17.5 45.65 20.8 47.0 21.55 46.2 22.3 45.35 22.1 44.15 21.85 42.85 20.75 41.95 19.75 40.9 18.15 40.45 L14.55 40.65 Z" fill="none" stroke="#d2d202" stroke-linecap="round" stroke-linejoin="round" stroke-opacity="0.73333335" stroke-width="0.05"/>
      <path d="M15.35 41.85 L14.95 41.3 Q14.7 41.2 14.45 41.55 14.15 41.75 14.1 42.25 14.0 42.7 14.2 43.15 L14.55 43.55 15.1 43.45 15.4 42.7 15.35 41.85" fill="#000000" fill-rule="evenodd" stroke="none"/>
      <path d="M15.35 41.85 L14.95 41.3 Q14.7 41.2 14.45 41.55 14.15 41.75 14.1 42.25 14.0 42.7 14.2 43.15 L14.55 43.55 15.1 43.45 15.4 42.7 15.35 41.85 Z" fill="none" stroke="#000000" stroke-linecap="round" stroke-linejoin="round" stroke-opacity="0.3019608" stroke-width="0.05"/>
      <path d="M14.9 41.7 L14.95 42.15 15.3 42.5 15.8 42.55 16.1 42.3 16.1 42.0 15.7 41.7 15.2 41.55 Q14.95 41.55 14.9 41.7" fill="#ffffff" fill-rule="evenodd" stroke="none"/>
      <path d="M4.15 36.15 L4.2 36.85 4.5 37.1 Q6.25 38.7 7.0 38.9 7.75 39.15 7.9 38.5 7.95 37.8 7.4 35.65 6.95 33.4 6.2 32.55 L5.55 31.95 Q3.9 33.7 4.15 36.15" fill="#fbf1bf" fill-rule="evenodd" stroke="none"/>
      <path d="M4.15 36.15 Q3.9 33.7 5.55 31.95 L6.2 32.55 Q6.95 33.4 7.4 35.65 7.95 37.8 7.9 38.5 7.75 39.15 7.0 38.9 6.25 38.7 4.5 37.1 L4.2 36.85 4.15 36.15 Z" fill="none" stroke="#d2d202" stroke-linecap="round" stroke-linejoin="round" stroke-opacity="0.73333335" stroke-width="0.05"/>
      <path d="M7.0 35.9 L6.75 35.4 Q6.6 35.35 6.45 35.65 L6.05 36.35 6.0 37.2 Q6.0 37.55 6.15 37.6 L6.55 37.5 6.9 36.7 7.0 35.9" fill="#000000" fill-rule="evenodd" stroke="none"/>
      <path d="M7.0 35.9 L6.75 35.4 Q6.6 35.35 6.45 35.65 L6.05 36.35 6.0 37.2 Q6.0 37.55 6.15 37.6 L6.55 37.5 6.9 36.7 7.0 35.9 Z" fill="none" stroke="#000000" stroke-linecap="round" stroke-linejoin="round" stroke-opacity="0.3019608" stroke-width="0.05"/>
      <path d="M6.75 35.8 Q6.6 35.95 6.7 36.2 L6.9 36.55 7.25 36.55 7.5 36.3 7.55 36.0 7.25 35.75 6.95 35.65 Q6.8 35.65 6.75 35.8" fill="#ffffff" fill-rule="evenodd" stroke="none"/>
    </g>
    <g id="sprite0" transform="matrix(1.0, 0.0, 0.0, 1.0, 73.5, 65.0)">
      <use height="136.85" transform="matrix(1.0, 0.0, 0.0, 1.0, -73.5, -65.0)" width="148.25" xlink:href="#shape1"/>
    </g>
    <g id="shape1" transform="matrix(1.0, 0.0, 0.0, 1.0, 73.5, 65.0)">
      <path d="M36.65 -54.65 Q60.05 -42.0 69.75 -17.95 80.55 8.9 68.0 34.1 55.45 59.35 26.8 68.2 -1.8 77.05 -29.7 64.3 -57.6 51.6 -68.45 24.75 -79.3 -2.05 -66.75 -27.25 L-66.7 -27.3 Q-54.1 -52.5 -25.5 -61.4 3.1 -70.2 31.0 -57.5 L36.65 -54.65" fill="url(#gradient0)" fill-rule="evenodd" stroke="none"/>
    </g>
    <radialGradient cx="0" cy="0" gradientTransform="matrix(0.0914, 0.0, 0.0, 0.0914, 0.6, 3.4)" gradientUnits="userSpaceOnUse" id="gradient0" r="819.2" spreadMethod="pad">
      <stop offset="0.0" stop-color="#ffffff"/>
      <stop offset="1.0" stop-color="#ffffff" stop-opacity="0.0"/>
    </radialGradient>
  </defs>
</svg>
