<?xml version="1.0" encoding="UTF-8" standalone="no"?>
<svg xmlns:xlink="http://www.w3.org/1999/xlink" height="520.0px" width="520.0px" xmlns="http://www.w3.org/2000/svg">
  <g transform="matrix(10.0, 0.0, 0.0, 10.0, 0.0, 0.0)">
    <use height="47.1" transform="matrix(1.0, 0.0, 0.0, 1.0, 2.0, 2.45)" width="45.6" xlink:href="#shape0"/>
    <use height="20.95" transform="matrix(0.1729, 0.3937, 0.4631, -0.1682, 33.55, 32.9)" width="24.45" xlink:href="#sprite0"/>
    <use height="37.7" transform="matrix(0.1685, 0.2973, 0.2767, -0.1387, 33.55, 34.05)" width="37.7" xlink:href="#sprite1"/>
  </g>
  <defs>
    <g id="shape0" transform="matrix(1.0, 0.0, 0.0, 1.0, -2.0, -2.45)">
      <path d="M28.95 18.8 Q29.25 14.05 26.25 10.35 L26.2 10.3 Q22.5 5.9 17.55 3.7 12.15 1.45 8.4 5.95 L7.8 6.6 7.65 6.8 Q4.5 11.05 2.95 16.4 L3.0 16.4 Q1.95 19.95 3.2 23.4 L3.4 24.1 Q4.15 26.1 5.9 26.55 L6.15 26.6 Q11.9 26.15 14.0 19.4 15.4 14.55 18.4 11.2 L19.05 11.5 Q20.05 11.75 20.9 12.35 L23.4 14.45 23.4 14.5 Q25.65 16.7 27.6 19.5 L27.45 19.65 27.3 20.15 26.9 20.45 Q25.6 21.65 25.6 23.35 25.55 24.35 25.95 25.2 L26.75 26.3 26.8 26.35 23.9 27.65 22.45 32.15 22.55 34.4 27.45 47.05 Q29.6 48.65 32.35 49.05 L32.25 49.0 32.35 49.0 Q39.2 47.0 45.45 43.5 46.85 41.45 47.1 38.85 L40.05 24.3 39.3 24.0 Q39.15 23.5 38.8 23.25 38.2 22.75 37.4 22.85 L36.95 22.9 35.8 22.35 34.0 23.15 33.8 22.2 Q33.5 21.3 32.85 20.55 31.85 19.5 30.45 19.35 L30.05 19.0 29.25 18.95 28.95 19.05 28.95 18.8 M30.0 21.8 L30.65 21.4 30.75 21.35 Q31.15 21.45 31.45 21.85 L32.05 22.85 32.15 23.5 32.1 24.0 31.8 24.15 31.5 24.0 30.5 24.05 29.35 24.5 Q28.85 24.75 28.65 25.2 L28.6 25.45 28.15 25.1 27.7 24.5 Q27.45 24.0 27.45 23.4 27.45 22.6 28.0 22.0 L28.05 22.05 28.95 22.1 30.0 21.8 M22.45 8.35 L24.3 10.2 Q25.4 11.35 26.15 12.75 27.0 14.25 27.4 15.9 L27.5 17.3 27.4 17.1 26.75 16.35 26.7 16.3 25.1 14.55 22.95 12.55 20.55 10.85 Q19.7 10.3 18.65 10.0 L17.95 9.95 Q16.55 11.3 15.55 13.1 L14.25 15.35 13.25 17.7 12.15 20.35 10.95 22.55 9.4 24.15 Q7.9 25.2 6.2 25.3 L5.35 24.65 Q4.85 24.25 4.65 23.65 4.15 21.9 4.05 20.25 4.0 18.45 4.35 16.7 4.65 15.45 5.2 14.25 5.65 13.0 6.25 11.85 L7.4 9.5 Q7.95 8.45 8.7 7.55 L8.85 7.4 9.15 7.05 9.2 7.0 10.05 6.1 Q10.95 5.45 12.0 4.95 13.25 4.2 14.95 4.3 16.8 4.6 18.25 5.5 L20.4 6.8 22.45 8.35" fill="none" stroke="#000000" stroke-linecap="round" stroke-linejoin="round" stroke-opacity="0.3019608" stroke-width="1.0"/>
      <path d="M3.2 23.45 Q2.0 19.95 3.05 16.45 L3.0 16.45 Q4.5 11.1 7.65 6.8 L7.8 6.65 8.35 5.95 Q12.15 1.45 17.55 3.75 22.45 5.9 26.2 10.35 L26.25 10.4 Q29.2 14.1 28.95 18.9 29.05 19.4 28.45 19.8 L28.0 19.85 Q26.4 18.35 26.85 17.75 L26.15 16.95 23.6 14.1 Q22.1 12.7 21.0 12.0 L18.5 10.7 Q17.8 10.05 18.6 10.1 19.65 10.35 20.55 10.85 21.85 11.6 22.95 12.55 L25.1 14.55 26.7 16.35 26.75 16.35 27.4 17.1 27.45 17.3 27.35 15.95 Q26.95 14.25 26.1 12.75 25.4 11.35 24.3 10.2 L22.45 8.35 20.4 6.8 18.25 5.55 Q16.8 4.6 14.9 4.35 13.3 4.25 11.95 4.95 11.0 5.45 10.05 6.1 L9.15 7.0 9.1 7.05 8.85 7.4 9.0 7.2 8.7 7.6 Q6.5 9.85 5.15 12.65 3.6 15.75 3.35 18.35 3.1 20.9 3.6 22.9 3.55 23.6 3.2 23.45 M8.85 7.4 L8.7 7.6 8.85 7.4" fill="#8b8782" fill-rule="evenodd" stroke="none"/>
      <path d="M3.2 23.45 Q3.55 23.6 3.6 22.9 3.1 20.9 3.35 18.35 3.6 15.75 5.15 12.65 6.5 9.85 8.7 7.6 7.95 8.5 7.4 9.55 L6.2 11.85 5.2 14.25 4.35 16.75 Q4.0 18.5 4.05 20.2 4.15 21.95 4.7 23.7 L5.3 24.65 6.2 25.35 Q7.9 25.25 9.4 24.15 L10.95 22.6 12.15 20.4 13.25 17.75 14.25 15.4 15.55 13.15 Q16.55 11.35 18.0 9.95 L18.6 10.1 Q17.8 10.05 18.5 10.7 L21.0 12.0 Q22.1 12.7 23.6 14.1 L26.15 16.95 26.85 17.75 Q26.4 18.35 28.0 19.85 27.75 19.8 27.6 19.6 25.65 16.75 23.4 14.55 L23.4 14.5 Q22.25 13.4 20.9 12.4 20.05 11.75 19.05 11.5 L18.4 11.25 Q15.4 14.55 14.0 19.4 11.9 26.15 6.15 26.65 L5.95 26.6 Q4.1 26.15 3.4 24.15 L3.2 23.45 M27.45 17.3 L27.4 17.1 27.45 17.3" fill="#5b5957" fill-rule="evenodd" stroke="none"/>
      <path d="M28.0 19.85 L28.45 19.8 Q29.05 19.4 28.95 18.9 29.2 14.1 26.25 10.4 L26.2 10.35 Q22.45 5.9 17.55 3.75 12.15 1.45 8.35 5.95 L7.8 6.65 7.65 6.8 Q4.5 11.1 3.0 16.45 L3.05 16.45 Q2.0 19.95 3.2 23.45 M8.7 7.6 L8.85 7.4 9.1 7.05 9.15 7.0 10.05 6.1 Q11.0 5.45 11.95 4.95 13.3 4.25 14.9 4.35 16.8 4.6 18.25 5.55 L20.4 6.8 22.45 8.35 24.3 10.2 Q25.4 11.35 26.1 12.75 26.95 14.25 27.35 15.95 L27.45 17.3 M27.4 17.1 L26.75 16.35 26.7 16.35 25.1 14.55 22.95 12.55 Q21.85 11.6 20.55 10.85 19.65 10.35 18.6 10.1 M28.0 19.85 Q27.75 19.8 27.6 19.6 25.65 16.75 23.4 14.55 L23.4 14.5 Q22.25 13.4 20.9 12.4 20.05 11.75 19.05 11.5 L18.4 11.25 Q15.4 14.55 14.0 19.4 11.9 26.15 6.15 26.65 L5.95 26.6 Q4.1 26.15 3.4 24.15 L3.2 23.45 M27.4 17.1 L27.45 17.3 M8.7 7.6 Q7.95 8.5 7.4 9.55 L6.2 11.85 5.2 14.25 4.35 16.75 Q4.0 18.5 4.05 20.2 4.15 21.95 4.7 23.7 L5.3 24.65 6.2 25.35 Q7.9 25.25 9.4 24.15 L10.95 22.6 12.15 20.4 13.25 17.75 14.25 15.4 15.55 13.15 Q16.55 11.35 18.0 9.95 L18.6 10.1" fill="none" stroke="#000000" stroke-linecap="round" stroke-linejoin="round" stroke-opacity="0.14901961" stroke-width="0.05"/>
      <path d="M27.75 24.5 Q27.4 25.85 26.0 25.2 25.6 24.35 25.65 23.35 25.65 21.65 26.95 20.45 28.2 19.25 29.95 19.3 31.7 19.35 32.85 20.55 33.55 21.3 33.8 22.2 33.7 23.7 32.05 22.85 L31.5 21.85 Q30.9 21.15 29.9 21.15 28.95 21.1 28.2 21.75 27.5 22.45 27.5 23.4 27.45 24.0 27.75 24.5" fill="#353533" fill-rule="evenodd" stroke="none"/>
      <path d="M27.75 24.5 L28.15 25.1 Q28.85 25.75 29.8 25.8 30.8 25.8 31.45 25.2 32.1 24.45 32.15 23.5 L32.05 22.85 Q33.7 23.7 33.8 22.2 L34.0 23.55 Q33.95 25.3 32.75 26.45 31.5 27.7 29.75 27.65 28.05 27.6 26.8 26.3 26.25 25.8 26.0 25.2 27.4 25.85 27.75 24.5" fill="#232322" fill-rule="evenodd" stroke="none"/>
      <path d="M32.05 22.85 L32.15 23.5 Q32.1 24.45 31.45 25.2 30.8 25.8 29.8 25.8 28.85 25.75 28.15 25.1 L27.75 24.5 M26.0 25.2 Q26.25 25.8 26.8 26.3 28.05 27.6 29.75 27.65 31.5 27.7 32.75 26.45 33.95 25.3 34.0 23.55 L33.8 22.2 Q33.55 21.3 32.85 20.55 31.7 19.35 29.95 19.3 28.2 19.25 26.95 20.45 25.65 21.65 25.65 23.35 25.6 24.35 26.0 25.2 M32.05 22.85 L31.5 21.85 Q30.9 21.15 29.9 21.15 28.95 21.1 28.2 21.75 27.5 22.45 27.5 23.4 27.45 24.0 27.75 24.5" fill="none" stroke="#000000" stroke-linecap="round" stroke-linejoin="round" stroke-opacity="0.2" stroke-width="0.05"/>
      <path d="M30.0 21.85 L28.95 22.1 28.05 22.05 27.6 21.65 27.3 20.35 Q27.2 20.05 27.45 19.7 27.7 19.35 28.2 19.25 L29.25 19.0 30.05 19.05 30.5 19.5 30.85 20.8 30.65 21.4 30.0 21.85" fill="#353533" fill-rule="evenodd" stroke="none"/>
      <path d="M30.0 21.85 L30.65 21.4 30.85 20.8 30.5 19.5 30.05 19.05 29.25 19.0 28.2 19.25 Q27.7 19.35 27.45 19.7 27.2 20.05 27.3 20.35 L27.6 21.65 28.05 22.05 28.95 22.1 30.0 21.85 Z" fill="none" stroke="#000000" stroke-linecap="round" stroke-linejoin="round" stroke-opacity="0.2" stroke-width="0.05"/>
      <path d="M28.95 19.35 L29.9 19.35 30.4 19.8 30.1 20.35 Q29.75 20.65 29.2 20.75 L28.25 20.7 Q27.8 20.6 27.75 20.3 27.7 20.05 28.05 19.7 28.4 19.45 28.95 19.35" fill="#5b5b56" fill-rule="evenodd" stroke="none"/>
      <path d="M22.45 32.15 L23.95 27.65 35.8 22.35 40.1 24.3 40.5 25.2 45.3 36.2 Q45.2 38.45 43.95 40.75 38.9 44.25 32.2 46.0 L32.15 46.0 27.75 44.0 22.45 32.15" fill="url(#gradient0)" fill-rule="evenodd" stroke="none"/>
      <path d="M22.45 32.15 L27.75 44.0 27.45 47.05 22.55 34.4 22.45 32.15" fill="#5f5e57" fill-rule="evenodd" stroke="none"/>
      <path d="M32.2 46.0 Q38.9 44.25 43.95 40.75 L45.45 43.5 Q39.25 47.0 32.4 49.0 L32.3 49.0 32.3 48.7 32.25 48.2 32.2 47.1 32.2 46.0" fill="#373633" fill-rule="evenodd" stroke="none"/>
      <path d="M43.95 40.75 Q45.2 38.45 45.3 36.2 L47.1 38.85 Q46.9 41.45 45.45 43.5 L43.95 40.75" fill="#2e2d2b" fill-rule="evenodd" stroke="none"/>
      <path d="M32.3 49.0 L32.4 49.05 Q29.65 48.65 27.45 47.1 L27.45 47.05 28.05 45.0 30.1 45.15 31.55 46.5 32.3 48.7 32.3 49.0" fill="#484742" fill-rule="evenodd" stroke="none"/>
      <path d="M45.3 36.2 L40.5 25.2 47.1 38.85 45.3 36.2" fill="#070606" fill-rule="evenodd" stroke="none"/>
      <path d="M27.75 44.0 L32.15 46.0 32.2 46.0 32.2 47.1 32.25 48.2 32.3 48.7 31.55 46.5 30.1 45.15 28.05 45.0 27.45 47.05 27.75 44.0 M32.15 46.0 L32.2 47.1 32.15 46.0" fill="#8b8782" fill-rule="evenodd" stroke="none"/>
      <path d="M40.5 25.2 L40.1 24.3 35.8 22.35 23.95 27.65 22.45 32.15 27.75 44.0 M32.15 46.0 L32.2 46.0 Q38.9 44.25 43.95 40.75 45.2 38.45 45.3 36.2 L40.5 25.2 47.1 38.85 Q46.9 41.45 45.45 43.5 39.25 47.0 32.4 49.0 L32.3 49.0 32.4 49.05 Q29.65 48.65 27.45 47.1 L27.45 47.05 22.55 34.4 22.45 32.15 M27.45 47.05 L27.75 44.0 M32.25 48.2 L32.2 47.1 32.15 46.0 M43.95 40.75 L45.45 43.5 M32.3 49.0 L32.3 48.7 M47.1 38.85 L45.3 36.2" fill="none" stroke="#000000" stroke-linecap="round" stroke-linejoin="round" stroke-opacity="0.2" stroke-width="0.05"/>
      <path d="M39.9 24.25 L40.05 24.35 45.3 36.2 Q45.2 38.45 43.9 40.75 38.9 44.3 32.15 46.0 29.5 45.5 27.7 44.0 L22.45 32.2 22.55 31.95 28.05 43.15 Q29.75 44.55 32.3 45.1 38.6 43.4 43.2 40.15 44.3 37.9 44.5 35.8 L39.9 24.25" fill="#8b8782" fill-rule="evenodd" stroke="none"/>
      <path d="M38.4 29.65 L40.85 34.95 Q42.5 38.55 39.35 40.05 L35.2 41.85 33.8 42.3 Q31.65 42.4 30.45 39.75 L28.0 34.5 27.55 33.15 Q27.0 30.6 29.5 29.4 L33.65 27.5 Q36.75 26.1 38.4 29.65 M38.6 38.9 L38.75 38.85 Q40.85 37.85 39.8 35.45 L37.35 30.15 Q36.25 27.75 34.15 28.75 L30.05 30.6 Q28.75 31.2 28.7 32.4 28.65 33.05 29.0 33.95 L31.5 39.25 Q32.6 41.65 34.7 40.7 L38.6 38.9" fill="#8b8782" fill-rule="evenodd" stroke="none"/>
      <path d="M28.7 32.4 Q28.75 31.2 30.05 30.6 L34.15 28.75 Q36.25 27.75 37.35 30.15 L39.8 35.45 Q40.85 37.85 38.75 38.85 L38.6 38.9 38.25 37.3 35.75 32.0 Q34.7 29.6 32.65 30.6 L28.7 32.4" fill="#ffa528" fill-rule="evenodd" stroke="none"/>
      <path d="M38.4 29.65 Q36.75 26.1 33.65 27.5 L29.5 29.4 Q27.0 30.6 27.55 33.15 L28.0 34.5 30.45 39.75 Q31.65 42.4 33.8 42.3 L35.2 41.85 39.35 40.05 Q42.5 38.55 40.85 34.95 L38.4 29.65 M28.7 32.4 Q28.75 31.2 30.05 30.6 L34.15 28.75 Q36.25 27.75 37.35 30.15 L39.8 35.45 Q40.85 37.85 38.75 38.85 L38.6 38.9" fill="none" stroke="#040404" stroke-linecap="round" stroke-linejoin="round" stroke-opacity="0.2" stroke-width="0.05"/>
      <path d="M44.35 35.05 Q44.55 38.9 42.55 41.45 40.2 44.25 36.5 43.55 33.1 43.35 30.3 40.15 27.7 37.0 27.55 32.9 27.4 28.7 29.7 26.35 32.4 23.65 35.75 24.15 38.9 24.65 41.7 27.5 44.55 30.75 44.35 35.05" fill="url(#gradient1)" fill-rule="evenodd" stroke="none"/>
      <path d="M38.6 38.9 L34.7 40.7 Q32.6 41.65 31.5 39.25 L29.0 33.95 Q28.65 33.05 28.7 32.4 L32.65 30.6 Q34.7 29.6 35.75 32.0 L38.25 37.3 38.6 38.9" fill="#fffc62" fill-rule="evenodd" stroke="none"/>
      <path d="M38.6 38.9 L34.7 40.7 Q32.6 41.65 31.5 39.25 L29.0 33.95 Q28.65 33.05 28.7 32.4" fill="none" stroke="#040404" stroke-linecap="round" stroke-linejoin="round" stroke-opacity="0.2" stroke-width="0.05"/>
      <path d="M27.7 30.1 L27.65 30.4 Q27.35 31.15 26.7 31.55 L25.3 31.8 Q24.6 31.55 24.2 30.85 23.8 30.15 24.0 29.4 24.2 28.65 24.9 28.25 L26.35 28.1 Q27.1 28.25 27.5 29.0 L27.7 30.1" fill="#353533" fill-rule="evenodd" stroke="none"/>
      <path d="M27.7 30.1 L27.65 30.4 Q27.35 31.15 26.7 31.55 L25.3 31.8 Q24.6 31.55 24.2 30.85 23.8 30.15 24.0 29.4 24.2 28.65 24.9 28.25 L26.35 28.1 Q27.1 28.25 27.5 29.0 L27.7 30.1 Z" fill="none" stroke="#000000" stroke-linecap="round" stroke-linejoin="round" stroke-opacity="0.14901961" stroke-width="0.05"/>
      <path d="M26.45 31.3 L25.05 31.55 Q24.35 31.3 23.95 30.6 23.55 29.9 23.75 29.15 23.95 28.4 24.65 28.0 L26.1 27.85 Q26.85 28.0 27.25 28.75 L27.45 29.85 27.4 30.15 Q27.1 30.9 26.45 31.3" fill="#666563" fill-rule="evenodd" stroke="none"/>
      <path d="M26.45 31.3 L25.05 31.55 Q24.35 31.3 23.95 30.6 23.55 29.9 23.75 29.15 23.95 28.4 24.65 28.0 L26.1 27.85 Q26.85 28.0 27.25 28.75 L27.45 29.85 27.4 30.15 Q27.1 30.9 26.45 31.3 Z" fill="none" stroke="#000000" stroke-linecap="round" stroke-linejoin="round" stroke-opacity="0.14901961" stroke-width="0.05"/>
      <path d="M25.35 30.9 L24.65 30.7 Q24.45 29.25 25.45 28.05 L26.15 28.2 Q26.25 29.75 25.35 30.9" fill="#8b8782" fill-rule="evenodd" stroke="none"/>
      <path d="M25.35 30.9 L24.65 30.7 Q24.45 29.25 25.45 28.05 L26.15 28.2 Q26.25 29.75 25.35 30.9 Z" fill="none" stroke="#000000" stroke-linecap="round" stroke-linejoin="round" stroke-opacity="0.14901961" stroke-width="0.05"/>
      <path d="M25.5 28.45 L25.2 28.45 24.9 28.25 Q24.8 28.1 24.85 27.95 L25.05 27.7 25.4 27.65 25.65 27.9 25.75 28.2 25.5 28.45" fill="#fdfd93" fill-rule="evenodd" stroke="none"/>
      <path d="M36.05 26.55 L36.3 26.75 37.6 27.2 Q38.35 27.2 38.9 26.65 39.4 26.05 39.4 25.25 39.35 24.5 38.75 23.95 38.25 23.5 37.4 23.55 36.55 23.6 36.1 24.15 35.55 24.7 35.65 25.5 L36.05 26.55" fill="#353533" fill-rule="evenodd" stroke="none"/>
      <path d="M36.05 26.55 L36.3 26.75 37.6 27.2 Q38.35 27.2 38.9 26.65 39.4 26.05 39.4 25.25 39.35 24.5 38.75 23.95 38.25 23.5 37.4 23.55 36.55 23.6 36.1 24.15 35.55 24.7 35.65 25.5 L36.05 26.55 Z" fill="none" stroke="#000000" stroke-linecap="round" stroke-linejoin="round" stroke-opacity="0.14901961" stroke-width="0.05"/>
      <path d="M37.6 26.5 Q38.35 26.5 38.9 25.95 39.4 25.35 39.4 24.55 39.35 23.8 38.75 23.25 38.25 22.8 37.4 22.85 36.55 22.9 36.1 23.45 35.55 24.0 35.65 24.8 L36.05 25.85 36.3 26.05 37.6 26.5" fill="#666563" fill-rule="evenodd" stroke="none"/>
      <path d="M37.6 26.5 Q38.35 26.5 38.9 25.95 39.4 25.35 39.4 24.55 39.35 23.8 38.75 23.25 38.25 22.8 37.4 22.85 36.55 22.9 36.1 23.45 35.55 24.0 35.65 24.8 L36.05 25.85 36.3 26.05 37.6 26.5 Z" fill="none" stroke="#000000" stroke-linecap="round" stroke-linejoin="round" stroke-opacity="0.14901961" stroke-width="0.05"/>
      <path d="M38.25 25.75 L38.8 25.3 Q38.45 23.95 37.15 23.1 L36.55 23.6 Q37.05 25.0 38.25 25.75" fill="#8b8782" fill-rule="evenodd" stroke="none"/>
      <path d="M38.25 25.75 L38.8 25.3 Q38.45 23.95 37.15 23.1 L36.55 23.6 Q37.05 25.0 38.25 25.75 Z" fill="none" stroke="#000000" stroke-linecap="round" stroke-linejoin="round" stroke-opacity="0.14901961" stroke-width="0.05"/>
      <path d="M37.75 23.75 L38.05 23.6 38.15 23.3 38.0 23.0 37.7 22.9 37.45 23.05 37.3 23.35 37.45 23.65 37.75 23.75" fill="#fdfd93" fill-rule="evenodd" stroke="none"/>
      <path d="M32.2 41.85 L32.0 41.65 30.65 41.55 Q29.95 41.7 29.65 42.3 29.3 42.95 29.5 43.65 29.65 44.4 30.3 44.7 L31.65 44.8 Q32.4 44.6 32.7 44.0 33.05 43.4 32.85 42.7 L32.2 41.85" fill="#353533" fill-rule="evenodd" stroke="none"/>
      <path d="M32.2 41.85 L32.0 41.65 30.65 41.55 Q29.95 41.7 29.65 42.3 29.3 42.95 29.5 43.65 29.65 44.4 30.3 44.7 L31.65 44.8 Q32.4 44.6 32.7 44.0 33.05 43.4 32.85 42.7 L32.2 41.85 Z" fill="none" stroke="#000000" stroke-linecap="round" stroke-linejoin="round" stroke-opacity="0.14901961" stroke-width="0.05"/>
      <path d="M30.25 41.3 Q29.55 41.45 29.25 42.05 28.9 42.7 29.1 43.4 29.25 44.15 29.9 44.45 L31.25 44.55 Q32.0 44.35 32.3 43.75 32.65 43.15 32.45 42.45 L31.8 41.6 31.6 41.4 30.25 41.3" fill="#666563" fill-rule="evenodd" stroke="none"/>
      <path d="M30.25 41.3 Q29.55 41.45 29.25 42.05 28.9 42.7 29.1 43.4 29.25 44.15 29.9 44.45 L31.25 44.55 Q32.0 44.35 32.3 43.75 32.65 43.15 32.45 42.45 L31.8 41.6 31.6 41.4 30.25 41.3 Z" fill="none" stroke="#000000" stroke-linecap="round" stroke-linejoin="round" stroke-opacity="0.14901961" stroke-width="0.05"/>
      <path d="M30.15 41.7 L29.6 42.15 Q30.05 43.4 31.35 44.05 L31.85 43.6 Q31.3 42.3 30.15 41.7" fill="#8b8782" fill-rule="evenodd" stroke="none"/>
      <path d="M30.15 41.7 L29.6 42.15 Q30.05 43.4 31.35 44.05 L31.85 43.6 Q31.3 42.3 30.15 41.7 Z" fill="none" stroke="#000000" stroke-linecap="round" stroke-linejoin="round" stroke-opacity="0.14901961" stroke-width="0.05"/>
      <path d="M30.45 40.95 L30.2 41.15 30.15 41.5 30.35 41.75 30.6 41.75 30.85 41.5 30.9 41.2 30.75 41.0 30.45 40.95" fill="#fdfd93" fill-rule="evenodd" stroke="none"/>
      <path d="M41.1 38.45 L41.1 38.15 Q41.15 37.4 41.7 36.9 42.2 36.35 42.95 36.4 43.7 36.4 44.25 37.0 44.8 37.55 44.7 38.3 44.7 39.05 44.05 39.55 43.5 40.1 42.75 40.1 42.05 40.1 41.5 39.45 L41.1 38.45" fill="#353533" fill-rule="evenodd" stroke="none"/>
      <path d="M41.1 38.45 L41.1 38.15 Q41.15 37.4 41.7 36.9 42.2 36.35 42.95 36.4 43.7 36.4 44.25 37.0 44.8 37.55 44.7 38.3 44.7 39.05 44.05 39.55 43.5 40.1 42.75 40.1 42.05 40.1 41.5 39.45 L41.1 38.45 Z" fill="none" stroke="#000000" stroke-linecap="round" stroke-linejoin="round" stroke-opacity="0.14901961" stroke-width="0.05"/>
      <path d="M41.7 36.65 Q42.2 36.1 42.95 36.15 43.7 36.15 44.25 36.75 44.8 37.3 44.7 38.05 44.7 38.8 44.05 39.3 43.5 39.85 42.75 39.85 42.05 39.85 41.5 39.2 L41.1 38.2 41.1 37.9 Q41.15 37.15 41.7 36.65" fill="#666563" fill-rule="evenodd" stroke="none"/>
      <path d="M41.7 36.65 Q42.2 36.1 42.95 36.15 43.7 36.15 44.25 36.75 44.8 37.3 44.7 38.05 44.7 38.8 44.05 39.3 43.5 39.85 42.75 39.85 42.05 39.85 41.5 39.2 L41.1 38.2 41.1 37.9 Q41.15 37.15 41.7 36.65 Z" fill="none" stroke="#000000" stroke-linecap="round" stroke-linejoin="round" stroke-opacity="0.14901961" stroke-width="0.05"/>
      <path d="M42.7 36.7 L43.45 36.75 Q43.95 38.0 43.35 39.4 L42.55 39.35 Q42.2 37.95 42.7 36.7" fill="#8b8782" fill-rule="evenodd" stroke="none"/>
      <path d="M42.7 36.7 L43.45 36.75 Q43.95 38.0 43.35 39.4 L42.55 39.35 Q42.2 37.95 42.7 36.7 Z" fill="none" stroke="#000000" stroke-linecap="round" stroke-linejoin="round" stroke-opacity="0.14901961" stroke-width="0.05"/>
      <path d="M42.0 36.8 L42.35 36.75 42.65 36.85 42.75 37.15 42.65 37.4 42.35 37.5 42.0 37.35 41.9 37.05 42.0 36.8" fill="#fdfd93" fill-rule="evenodd" stroke="none"/>
      <path d="M31.8 24.6 Q32.35 24.8 32.55 25.25 L33.45 27.3 Q33.65 27.8 33.45 28.35 L32.75 29.1 31.6 29.6 Q31.1 29.8 30.6 29.6 30.05 29.4 29.85 28.85 L28.95 26.8 Q28.75 26.35 28.95 25.85 29.15 25.35 29.65 25.1 L30.8 24.65 31.8 24.6" fill="#353533" fill-opacity="0.2509804" fill-rule="evenodd" stroke="none"/>
      <path d="M31.55 24.0 Q32.1 24.2 32.3 24.65 L33.2 26.7 Q33.4 27.2 33.2 27.75 L32.5 28.5 31.35 29.0 Q30.85 29.2 30.35 29.0 29.8 28.8 29.6 28.25 L28.7 26.2 Q28.5 25.75 28.7 25.25 28.9 24.75 29.4 24.5 L30.55 24.05 31.55 24.0" fill="#666563" fill-rule="evenodd" stroke="none"/>
      <path d="M31.55 24.0 L30.55 24.05 29.4 24.5 Q28.9 24.75 28.7 25.25 28.5 25.75 28.7 26.2 L29.6 28.25 Q29.8 28.8 30.35 29.0 30.85 29.2 31.35 29.0 L32.5 28.5 33.2 27.75 Q33.4 27.2 33.2 26.7 L32.3 24.65 Q32.1 24.2 31.55 24.0 Z" fill="none" stroke="#000000" stroke-linecap="round" stroke-linejoin="round" stroke-opacity="0.101960786" stroke-width="0.4"/>
      <path d="M29.65 25.2 Q29.75 24.9 30.1 24.75 L30.8 24.45 31.4 24.4 31.85 24.85 32.4 26.1 32.4 26.7 32.0 27.2 31.25 27.45 30.65 27.45 30.2 27.05 29.65 25.8 29.65 25.2" fill="#8b8782" fill-rule="evenodd" stroke="none"/>
    </g>
    <linearGradient gradientTransform="matrix(0.0, 0.0139, -0.0144, 0.0, 33.85, 34.15)" gradientUnits="userSpaceOnUse" id="gradient0" spreadMethod="pad" x1="-819.2" x2="819.2">
      <stop offset="0.0" stop-color="#52514f"/>
      <stop offset="1.0" stop-color="#3e3d3b"/>
    </linearGradient>
    <radialGradient cx="0" cy="0" gradientTransform="matrix(-5.0E-4, -0.0125, 0.0108, 0.0013, 36.2, 34.0)" gradientUnits="userSpaceOnUse" id="gradient1" r="819.2" spreadMethod="pad">
      <stop offset="0.0" stop-color="#ffa529"/>
      <stop offset="1.0" stop-color="#ffa429" stop-opacity="0.0"/>
    </radialGradient>
    <g id="sprite0" transform="matrix(1.0, 0.0, 0.0, 1.0, 0.0, 0.0)">
      <use height="20.95" transform="matrix(1.0, 0.0, 0.0, 1.0, 0.0, 0.0)" width="24.45" xlink:href="#shape1"/>
    </g>
    <g id="shape1" transform="matrix(1.0, 0.0, 0.0, 1.0, 0.0, 0.0)">
      <path d="M15.1 9.15 Q16.95 9.5 18.1 11.15 L18.2 11.35 20.15 11.25 18.75 12.55 Q19.05 13.8 18.8 15.05 18.5 16.35 17.65 17.3 L19.1 20.95 16.55 18.25 Q14.8 19.3 12.8 18.85 10.8 18.35 9.75 16.65 9.05 15.5 8.95 14.3 7.75 12.4 4.95 11.55 L9.7 11.4 Q10.3 10.4 11.35 9.75 13.1 8.75 15.1 9.15 M14.85 11.4 Q13.8 11.15 12.9 11.65 12.1 12.2 11.8 13.2 11.6 14.2 12.1 15.1 12.65 15.9 13.65 16.2 14.65 16.4 15.55 15.9 16.4 15.3 16.6 14.35 16.85 13.3 16.25 12.45 15.8 11.6 14.85 11.4" fill="#ffffff" fill-opacity="0.1764706" fill-rule="evenodd" stroke="none"/>
      <path d="M14.85 11.4 Q15.8 11.6 16.25 12.45 16.85 13.3 16.6 14.35 16.4 15.3 15.55 15.9 14.65 16.4 13.65 16.2 12.65 15.9 12.1 15.1 11.6 14.2 11.8 13.2 12.1 12.2 12.9 11.65 13.8 11.15 14.85 11.4" fill="#ffffff" fill-opacity="0.5882353" fill-rule="evenodd" stroke="none"/>
      <path d="M14.25 12.25 L24.45 5.95 15.4 13.55 18.1 17.55 13.35 14.65 7.05 18.5 12.75 13.55 0.0 0.0 14.25 12.25" fill="#ffffff" fill-opacity="0.5882353" fill-rule="evenodd" stroke="none"/>
    </g>
    <g id="sprite1" transform="matrix(1.0, 0.0, 0.0, 1.0, 0.0, 0.0)">
      <use height="37.7" transform="matrix(1.0, 0.0, 0.0, 1.0, 0.0, 0.0)" width="37.7" xlink:href="#shape2"/>
    </g>
    <g id="shape2" transform="matrix(1.0, 0.0, 0.0, 1.0, 0.0, 0.0)">
      <path d="M37.7 18.85 Q37.7 26.65 32.15 32.15 26.65 37.7 18.85 37.7 11.05 37.7 5.5 32.15 0.0 26.65 0.0 18.85 0.0 11.05 5.5 5.5 11.05 0.0 18.85 0.0 26.65 0.0 32.15 5.5 37.7 11.05 37.7 18.85" fill="url(#gradient2)" fill-rule="evenodd" stroke="none"/>
    </g>
    <radialGradient cx="0" cy="0" gradientTransform="matrix(0.0244, 0.0, 0.0, 0.0244, 18.85, 18.85)" gradientUnits="userSpaceOnUse" id="gradient2" r="819.2" spreadMethod="pad">
      <stop offset="0.0" stop-color="#ffffcc"/>
      <stop offset="1.0" stop-color="#ffffcc" stop-opacity="0.0"/>
    </radialGradient>
  </defs>
</svg>
