<?xml version="1.0" encoding="UTF-8" standalone="no"?>
<svg xmlns:xlink="http://www.w3.org/1999/xlink" height="520.0px" width="520.0px" xmlns="http://www.w3.org/2000/svg">
  <g transform="matrix(10.0, 0.0, 0.0, 10.0, 0.0, 0.0)">
    <use height="52.0" transform="matrix(1.0, 0.0, 0.0, 1.0, 0.0, 0.0)" width="52.0" xlink:href="#shape0"/>
    <use height="83.3" transform="matrix(0.7248, 0.0, 0.0, 0.6734, 4.2737, -5.6901)" width="53.1" xlink:href="#sprite0"/>
  </g>
  <defs>
    <g id="shape0" transform="matrix(1.0, 0.0, 0.0, 1.0, 0.0, 0.0)">
      <path d="M52.0 0.0 L52.0 52.0 0.0 52.0 0.0 0.0 52.0 0.0" fill="#33cc33" fill-opacity="0.0" fill-rule="evenodd" stroke="none"/>
      <path d="M9.7 1.6 L9.65 1.5 9.75 1.5 9.7 1.6" fill="#006666" fill-rule="evenodd" stroke="none"/>
      <path d="M9.7 1.6 L12.65 2.35 Q15.8 3.4 17.5 4.55 L18.25 5.15 19.55 6.5 Q20.05 7.25 20.35 8.15 L21.1 10.95 22.0 10.4 22.05 10.45 22.4 10.2 23.45 9.55 25.35 9.2 Q27.3 9.2 28.7 10.45 L29.2 11.05 29.5 11.55 29.8 12.05 30.05 13.6 29.85 14.95 Q31.35 14.1 32.9 13.2 L33.1 13.0 33.2 13.0 33.25 13.0 33.3 12.95 34.25 12.6 34.75 12.6 Q35.45 12.6 37.35 13.45 39.4 14.35 41.45 15.6 L44.45 17.8 44.75 18.05 46.15 19.6 Q46.75 20.45 46.7 21.2 L46.6 21.75 46.55 21.8 46.0 22.5 42.6 24.2 42.55 24.25 42.0 24.95 41.05 25.5 40.15 25.7 38.4 25.4 37.6 25.0 36.65 24.35 37.6 25.05 38.05 25.3 35.5 26.65 35.1 26.95 34.8 27.05 34.3 27.15 33.05 26.8 Q32.45 26.55 31.1 24.95 L31.05 24.95 31.05 25.0 32.0 26.05 30.4 27.0 29.9 27.3 29.05 27.45 28.7 27.45 28.65 27.45 28.4 27.4 28.1 27.25 27.3 26.65 27.05 26.35 26.95 26.2 26.9 26.2 27.0 26.35 27.25 26.6 24.3 50.1 24.25 50.1 24.25 50.4 23.55 50.4 19.45 22.65 18.65 24.65 18.4 24.75 18.25 24.75 17.9 24.6 Q17.45 24.35 17.0 23.3 16.45 22.3 16.85 21.35 L16.3 21.45 16.2 21.45 15.5 21.2 Q14.8 20.65 14.2 19.6 13.65 18.45 13.7 17.65 L14.2 16.3 14.15 16.3 13.45 16.3 13.25 16.3 13.05 16.3 12.95 16.3 12.8 16.3 11.9 16.0 Q11.15 15.4 10.65 14.6 10.05 13.55 10.15 12.35 L10.4 11.4 10.85 10.55 10.8 10.55 10.6 10.55 10.55 10.55 9.55 10.35 8.1 9.55 Q7.1 8.7 6.25 7.1 5.4 5.7 5.15 4.25 L5.1 4.25 5.0 3.9 5.05 3.9 5.15 3.9 5.3 3.95 5.5 3.95 9.1 1.45 9.3 1.5 9.7 1.6 Z" fill="none" stroke="#000000" stroke-linecap="round" stroke-linejoin="round" stroke-opacity="0.3019608" stroke-width="1.0"/>
      <path d="M9.75 1.6 L9.7 1.5 9.75 1.5 9.75 1.6 M32.9 13.2 L33.15 13.0 33.25 12.95 32.9 13.2 M26.85 26.2 L26.75 25.95 26.95 26.2 26.85 26.2 M5.5 4.0 L5.15 4.2 5.05 3.9 5.25 3.9 5.5 4.0 M29.8 15.15 L29.15 15.4 29.1 15.45 28.95 15.55 29.05 15.45 29.1 15.45 29.9 14.95 29.8 15.15 M26.25 25.35 L26.35 25.45 26.25 25.35" fill="#00cc99" fill-rule="evenodd" stroke="none"/>
      <path d="M9.75 1.6 L12.65 2.35 Q15.85 3.4 17.5 4.55 L18.3 5.15 Q18.3 7.95 14.1 7.45 L13.4 7.0 Q12.45 6.25 10.9 5.65 L8.55 4.75 5.65 4.0 5.5 4.0 9.15 1.45 9.35 1.5 9.75 1.6 M21.15 10.9 L22.05 10.4 22.1 10.45 22.4 10.2 Q22.9 9.75 23.5 9.55 L25.4 9.15 Q27.35 9.15 28.7 10.45 L29.25 11.0 29.55 11.55 Q28.55 14.0 25.45 13.9 L25.15 13.45 24.6 12.85 Q23.25 11.6 21.3 11.6 L21.25 11.6 Q20.15 11.6 19.25 12.05 L21.15 10.9 M29.9 14.95 L32.9 13.2 33.25 12.95 33.3 12.95 34.25 12.55 34.75 12.55 Q35.45 12.55 37.4 13.45 39.45 14.35 41.5 15.6 L44.5 17.8 44.75 18.0 46.2 19.6 Q45.05 21.2 41.75 21.6 L40.7 20.45 40.4 20.2 37.4 18.0 Q35.35 16.8 33.3 15.85 L31.55 15.15 30.7 15.0 30.15 15.0 29.8 15.15 29.9 14.95 M27.05 28.6 L25.8 38.55 25.3 38.85 24.1 39.15 23.85 39.15 23.75 39.15 23.55 39.15 23.45 30.05 Q25.7 28.4 27.05 28.6" fill="#8f0101" fill-rule="evenodd" stroke="none"/>
      <path d="M18.3 5.15 L19.6 6.5 20.4 8.1 21.15 10.9 19.25 12.05 18.0 12.85 17.2 13.9 17.15 13.9 16.3 10.55 15.5 8.95 14.85 8.2 14.95 8.05 14.75 8.1 14.1 7.45 Q18.3 7.95 18.3 5.15 M29.55 11.55 L29.85 12.05 30.1 13.6 29.9 14.95 29.1 15.45 29.05 15.45 28.95 15.55 28.2 16.3 27.5 17.55 23.85 19.75 24.6 19.1 Q26.0 17.8 26.0 16.0 L25.75 14.45 25.45 13.9 Q28.55 14.0 29.55 11.55 M46.2 19.6 Q46.75 20.45 46.75 21.2 L46.6 21.75 46.6 21.8 46.05 22.5 42.55 24.2 42.65 23.6 42.55 23.0 42.4 22.55 41.75 21.6 Q45.05 21.2 46.2 19.6 M38.05 25.25 L35.15 26.85 35.95 26.1 Q36.6 25.35 36.6 24.7 L36.6 24.25 Q37.4 24.95 38.05 25.25 M32.05 26.05 L30.15 27.1 Q30.7 26.7 30.95 25.65 L30.95 24.85 32.05 26.05 M27.3 26.6 L27.05 28.6 Q25.7 28.4 23.45 30.05 L23.45 25.7 23.55 25.7 23.85 26.45 24.2 26.95 24.45 27.2 24.5 27.2 25.0 27.4 Q25.5 27.6 26.45 27.1 27.05 26.75 26.85 26.2 L26.95 26.2 27.05 26.35 27.3 26.6" fill="#4e2000" fill-rule="evenodd" stroke="none"/>
      <path d="M27.5 17.55 L26.45 19.45 Q25.35 21.6 24.5 22.3 24.1 22.75 23.55 22.9 L23.75 19.75 23.85 19.75 27.5 17.55" fill="#301300" fill-rule="evenodd" stroke="none"/>
      <path d="M25.8 38.55 L24.35 50.1 23.6 50.1 23.55 39.15 23.75 39.15 23.85 39.15 24.1 39.15 25.3 38.85 25.8 38.55" fill="#666666" fill-rule="evenodd" stroke="none"/>
      <path d="M23.45 25.7 L23.45 25.3 23.55 25.7 23.45 25.7" fill="#333333" fill-rule="evenodd" stroke="none"/>
      <path d="M9.75 1.6 L12.65 2.35 Q15.85 3.4 17.5 4.55 L18.3 5.15 19.6 6.5 20.4 8.1 21.15 10.9 22.05 10.4 22.4 10.2 Q22.9 9.75 23.5 9.55 L25.4 9.15 Q27.35 9.15 28.7 10.45 L29.25 11.0 29.55 11.55 29.85 12.05 30.1 13.6 29.9 14.95 32.9 13.2 33.15 13.0 33.25 12.95 33.3 12.95 34.25 12.55 34.75 12.55 Q35.45 12.55 37.4 13.45 39.45 14.35 41.5 15.6 L44.5 17.8 44.75 18.0 46.2 19.6 Q46.75 20.45 46.75 21.2 L46.6 21.75 46.6 21.8 46.05 22.5 42.55 24.2 42.5 24.2 41.95 24.95 Q41.5 25.3 40.95 25.5 L39.05 25.65 38.4 25.4 38.05 25.25 35.15 26.85 35.0 26.9 34.75 27.05 33.05 26.8 32.05 26.05 30.15 27.1 29.8 27.3 28.7 27.4 28.4 27.4 28.1 27.25 27.3 26.6 27.05 28.6 25.8 38.55 24.35 50.1 M23.6 50.1 L23.55 39.15 23.45 30.05 23.45 25.7 23.45 25.3 23.55 25.7 23.85 26.45 24.2 26.95 24.45 27.2 24.5 27.2 25.0 27.4 Q25.5 27.6 26.45 27.1 27.05 26.75 26.85 26.2 L26.75 25.95 26.95 26.2 27.05 26.35 27.3 26.6 M5.5 4.0 L9.15 1.45 9.35 1.5 9.75 1.6 M14.1 7.45 L13.4 7.0 Q12.45 6.25 10.9 5.65 L8.55 4.75 5.65 4.0 5.5 4.0 5.15 4.2 Q5.45 5.7 6.25 7.1 7.1 8.7 8.1 9.55 8.65 10.0 9.55 10.3 L10.85 10.5 10.4 11.4 10.15 12.35 Q10.05 13.5 10.65 14.6 L11.9 16.0 14.2 16.25 13.7 17.65 Q13.65 18.45 14.2 19.55 14.8 20.65 15.5 21.2 L16.2 21.4 16.85 21.3 Q16.45 22.25 17.0 23.3 17.45 24.3 17.9 24.6 18.3 24.8 18.55 24.6 L19.1 23.5 M5.5 4.0 L5.25 3.9 5.05 3.9 5.15 4.2 M14.75 8.1 L14.1 7.45 M14.75 8.1 L14.85 8.2 14.95 8.05 14.75 8.1 M19.25 12.05 L18.0 12.85 17.2 13.9 17.15 13.9 16.3 10.55 15.5 8.95 14.85 8.2 M17.2 13.9 L17.15 13.9 M28.95 15.55 L28.2 16.3 27.5 17.55 26.45 19.45 Q25.35 21.6 24.5 22.3 24.1 22.75 23.55 22.9 L23.75 19.75 23.85 19.75 24.6 19.1 Q26.0 17.8 26.0 16.0 L25.75 14.45 25.45 13.9 25.15 13.45 24.6 12.85 Q23.25 11.6 21.3 11.6 L21.25 11.6 Q20.15 11.6 19.25 12.05 L21.15 10.9 M29.8 15.15 L29.15 15.4 29.1 15.45 28.95 15.55 29.05 15.45 29.1 15.45 29.9 14.95 29.8 15.15 30.15 15.0 30.7 15.0 31.55 15.15 33.3 15.85 Q35.35 16.8 37.4 18.0 L40.4 20.2 40.7 20.45 41.75 21.6 M22.1 10.45 L22.4 10.2 M23.85 19.75 L27.5 17.55 M35.15 26.85 L35.95 26.1 Q36.6 25.35 36.6 24.7 L36.6 24.25 Q37.4 24.95 38.05 25.25 M42.55 24.2 L42.65 23.6 42.55 23.0 42.4 22.55 41.75 21.6 M42.5 24.2 L42.55 24.2 M33.25 12.95 L32.9 13.2 M30.15 27.1 Q30.7 26.7 30.95 25.65 L30.95 24.85 32.05 26.05" fill="none" stroke="#000000" stroke-linecap="round" stroke-linejoin="round" stroke-opacity="0.3019608" stroke-width="0.05"/>
      <path d="M5.7 4.0 L5.65 3.9 5.75 3.9 5.7 4.0" fill="#ffa203" fill-rule="evenodd" stroke="none"/>
      <path d="M17.35 17.75 L17.3 17.8 17.35 17.75" fill="#ffcc00" fill-rule="evenodd" stroke="none"/>
      <path d="M5.3 3.9 L5.7 4.0 8.65 4.75 Q11.85 5.8 13.5 6.95 L15.55 8.9 Q16.05 9.65 16.35 10.55 17.15 12.8 17.8 17.6 18.25 20.25 18.95 21.7 L19.5 22.5 18.65 24.6 Q18.4 24.8 17.95 24.6 L17.05 23.3 Q16.55 22.25 16.95 21.3 L16.3 21.4 15.55 21.2 Q14.9 20.65 14.3 19.55 13.7 18.4 13.75 17.65 L14.25 16.25 12.0 16.0 10.7 14.6 Q10.15 13.5 10.2 12.3 L10.5 11.4 10.95 10.45 9.6 10.3 8.15 9.55 Q7.15 8.7 6.3 7.05 5.4 5.5 5.15 3.85 L5.3 3.9 M17.35 17.75 Q16.6 11.8 15.3 9.65 13.8 6.95 9.55 5.5 L9.2 5.4 9.15 5.5 Q12.65 6.65 12.55 8.85 L12.5 10.35 Q12.65 11.05 13.6 11.35 L14.2 11.5 14.75 11.4 16.05 14.6 17.3 17.8 17.35 17.75" fill="#c16100" fill-rule="evenodd" stroke="none"/>
      <path d="M17.3 17.8 L16.05 14.6 14.75 11.4 14.2 11.5 13.6 11.35 Q12.65 11.05 12.5 10.35 L12.55 8.85 Q12.65 6.65 9.15 5.5 L9.2 5.4 9.55 5.5 Q13.8 6.95 15.3 9.65 16.6 11.8 17.35 17.75 L17.3 17.8" fill="#d66b00" fill-rule="evenodd" stroke="none"/>
      <path d="M5.65 3.9 L5.3 3.9 5.7 4.0 M5.75 3.9 L5.65 3.9 M10.95 10.45 L9.6 10.3 8.15 9.55 Q7.15 8.7 6.3 7.05 5.4 5.5 5.15 3.85 L5.3 3.9 M18.95 21.7 L19.5 22.4 19.5 22.5 18.65 24.6 Q18.4 24.8 17.95 24.6 L17.05 23.3 Q16.55 22.25 16.95 21.3 L16.3 21.4 15.55 21.2 Q14.9 20.65 14.3 19.55 13.7 18.4 13.75 17.65" fill="none" stroke="#000000" stroke-linecap="round" stroke-linejoin="round" stroke-opacity="0.3019608" stroke-width="0.05"/>
      <path d="M5.7 4.0 L8.65 4.75 Q11.85 5.8 13.5 6.95 L15.55 8.9" fill="none" stroke="url(#gradient0)" stroke-linecap="round" stroke-linejoin="round" stroke-width="1.0"/>
      <path d="M14.25 16.25 L12.0 16.0 10.7 14.6 Q10.15 13.5 10.2 12.3 L10.5 11.4 10.95 10.45" fill="none" stroke="url(#gradient1)" stroke-linecap="round" stroke-linejoin="round" stroke-width="1.0"/>
      <path d="M13.75 17.65 L14.25 16.25" fill="none" stroke="url(#gradient2)" stroke-linecap="round" stroke-linejoin="round" stroke-width="1.0"/>
      <path d="M10.9 9.45 L10.75 9.5 Q7.55 9.35 6.85 6.05 6.8 5.85 7.05 5.95 8.65 8.2 10.9 9.45" fill="#d66b00" fill-rule="evenodd" stroke="none"/>
      <path d="M11.1 13.2 L11.3 13.15 Q12.75 14.55 14.25 15.35 L14.15 15.5 Q11.45 16.05 10.9 13.25 L11.1 13.2" fill="#d66b00" fill-rule="evenodd" stroke="none"/>
      <path d="M16.45 20.1 L16.5 20.15 Q13.8 19.85 14.55 17.35 L14.8 17.25 16.45 20.1" fill="#d66b00" fill-rule="evenodd" stroke="none"/>
      <path d="M18.15 23.3 Q17.9 23.35 17.65 23.05 16.7 21.85 17.7 21.45 19.1 22.9 18.15 23.3" fill="#d66b00" fill-rule="evenodd" stroke="none"/>
      <path d="M23.95 18.7 L23.2 19.3 22.5 19.55 22.4 19.55 21.45 19.65 19.6 19.3 18.9 18.75 18.8 18.4 Q18.9 18.0 19.5 17.7 L21.35 17.45 23.1 17.7 23.95 18.45 23.95 18.7 M23.75 39.15 L23.5 35.45 24.0 26.7 24.1 39.15 23.85 39.15 23.75 39.15" fill="#ffc903" fill-rule="evenodd" stroke="none"/>
      <path d="M18.9 18.75 L19.6 19.3 21.45 19.65 22.4 19.55 22.5 19.55 23.2 19.3 23.95 18.7 24.0 26.6 24.0 26.7 23.5 35.45 23.75 39.15 22.3 38.85 21.85 38.5 18.95 19.25 Q18.85 19.0 18.9 18.75 M24.1 43.15 L24.15 43.4 24.1 43.7 24.1 43.15" fill="#c16100" fill-rule="evenodd" stroke="none"/>
      <path d="M24.0 43.15 L24.1 43.15 24.1 43.7 24.1 43.85 24.0 43.15" fill="#febb56" fill-rule="evenodd" stroke="none"/>
      <path d="M21.85 38.5 L22.3 38.85 23.75 39.15 24.0 43.15 24.1 43.85 24.1 43.7 24.2 50.4 23.55 50.4 21.85 38.5" fill="#cccccc" fill-rule="evenodd" stroke="none"/>
      <path d="M24.1 39.15 L24.1 43.15 24.0 43.15 23.75 39.15 23.85 39.15 24.1 39.15" fill="#ffffff" fill-rule="evenodd" stroke="none"/>
      <path d="M18.9 18.75 L19.6 19.3 21.45 19.65 22.4 19.55 22.5 19.55 23.2 19.3 23.95 18.7 23.95 18.45 23.1 17.7 21.35 17.45 19.5 17.7 Q18.9 18.0 18.8 18.4 L18.9 18.75 Q18.85 19.0 18.95 19.25 M24.0 26.6 L23.95 18.7 M24.1 43.15 L24.15 43.4 24.1 43.7 24.2 50.4 23.55 50.4" fill="none" stroke="#000000" stroke-linecap="round" stroke-linejoin="round" stroke-opacity="0.3019608" stroke-width="0.05"/>
      <path d="M26.75 25.95 L26.35 25.45 26.35 25.4 26.75 25.95" fill="#ffa203" fill-rule="evenodd" stroke="none"/>
      <path d="M29.15 15.4 L30.2 15.0 30.7 15.0 Q31.4 15.0 33.3 15.85 35.35 16.75 37.4 18.0 L40.4 20.2 40.7 20.45 Q42.7 22.25 42.65 23.6 L42.55 24.15 42.5 24.2 41.95 24.9 41.0 25.5 38.4 25.4 Q37.65 25.1 36.6 24.25 L36.15 23.85 35.85 23.65 35.85 23.7 35.3 24.1 35.25 24.1 35.25 24.05 35.2 23.85 Q34.8 22.9 33.1 22.0 L30.35 20.85 33.1 22.0 Q34.8 22.9 35.2 23.85 L35.25 24.05 35.25 24.1 35.6 25.45 35.45 26.4 35.05 26.9 34.75 27.05 33.05 26.8 Q32.45 26.5 31.0 24.85 L30.75 24.55 Q30.7 26.0 29.3 25.1 L29.35 25.55 29.15 26.85 28.7 27.4 28.4 27.35 28.1 27.25 27.05 26.3 26.95 26.2 26.75 25.95 26.85 26.2 Q26.4 26.85 25.8 26.5 L25.7 26.85 Q25.45 27.35 25.05 27.25 L24.5 27.15 24.45 27.15 24.25 26.95 23.85 26.4 Q23.5 25.85 22.8 22.9 23.75 23.0 24.55 22.3 25.35 21.6 26.45 19.4 L28.2 16.3 29.05 15.4 29.15 15.4 M26.35 25.4 L26.35 25.45 26.75 25.95 26.35 25.4 26.25 25.3 26.25 25.35 26.35 25.4 M27.35 22.4 L28.9 24.15 29.3 25.1 28.9 24.15 27.35 22.4 M29.15 18.25 Q29.8 18.8 30.45 18.8 31.3 18.8 31.95 18.1 L32.7 17.35 35.4 18.15 37.65 18.95 37.6 18.9 34.5 17.45 Q31.25 15.95 30.65 15.95 28.8 15.95 27.7 18.45 26.75 20.75 25.75 21.8 L27.05 20.5 Q28.35 18.9 29.15 18.25" fill="#c16100" fill-rule="evenodd" stroke="none"/>
      <path d="M24.5 27.15 L25.05 27.25 Q25.45 27.35 25.7 26.85 L25.8 26.5 Q26.4 26.85 26.85 26.2 27.05 26.75 26.5 27.05 L25.05 27.4 24.5 27.15 M28.7 27.4 L29.15 26.85 29.35 25.55 29.3 25.1 Q30.7 26.0 30.75 24.55 L31.0 24.85 31.0 25.65 Q30.65 26.95 29.8 27.25 L28.7 27.4 M36.6 24.25 L36.6 24.65 Q36.6 25.35 36.0 26.1 L35.05 26.9 35.45 26.4 35.6 25.45 35.25 24.1 35.3 24.1 35.85 23.7 35.85 23.65 36.15 23.85 36.6 24.25" fill="#963807" fill-rule="evenodd" stroke="none"/>
      <path d="M29.15 18.25 Q28.35 18.9 27.05 20.5 L25.75 21.8 Q26.75 20.75 27.7 18.45 28.8 15.95 30.65 15.95 31.25 15.95 34.5 17.45 L37.6 18.9 37.65 18.95 35.4 18.15 32.7 17.35 31.95 18.1 Q31.3 18.8 30.45 18.8 29.8 18.8 29.15 18.25" fill="#d66b00" fill-rule="evenodd" stroke="none"/>
      <path d="M22.8 22.9 Q23.5 25.85 23.85 26.4 L24.25 26.95 24.45 27.15 24.5 27.15 M26.85 26.2 L26.75 25.95 26.35 25.45 26.35 25.4 26.25 25.35 26.25 25.3 26.35 25.4 26.75 25.95 26.95 26.2 27.05 26.3 28.1 27.25 28.4 27.35 28.7 27.4 M41.95 24.9 L41.0 25.5 38.4 25.4 Q37.65 25.1 36.6 24.25 L36.6 24.65 Q36.6 25.35 36.0 26.1 L35.05 26.9 34.75 27.05 33.05 26.8 Q32.45 26.5 31.0 24.85 L31.0 25.65 Q30.65 26.95 29.8 27.25 L28.7 27.4 M35.85 23.7 L35.85 23.65 36.15 23.85 36.6 24.25 M26.85 26.2 Q27.05 26.75 26.5 27.05 L25.05 27.4 24.5 27.15" fill="none" stroke="#000000" stroke-linecap="round" stroke-linejoin="round" stroke-opacity="0.3019608" stroke-width="0.05"/>
      <path d="M40.7 20.45 L40.4 20.2 37.4 18.0 Q35.35 16.75 33.3 15.85 31.4 15.0 30.7 15.0 L30.2 15.0 29.15 15.4" fill="none" stroke="url(#gradient3)" stroke-linecap="round" stroke-linejoin="round" stroke-width="1.0"/>
      <path d="M29.15 15.4 L29.05 15.4 28.2 16.3 26.45 19.4 Q25.35 21.6 24.55 22.3 23.75 23.0 22.8 22.9" fill="none" stroke="url(#gradient4)" stroke-linecap="round" stroke-linejoin="round" stroke-width="1.0"/>
      <path d="M30.35 20.85 L33.1 22.0 Q34.8 22.9 35.2 23.85 L35.25 24.05 35.25 24.1" fill="none" stroke="url(#gradient5)" stroke-linecap="round" stroke-linejoin="round" stroke-width="1.0"/>
      <path d="M29.3 25.1 L28.9 24.15 27.35 22.4" fill="none" stroke="url(#gradient6)" stroke-linecap="round" stroke-linejoin="round" stroke-width="1.0"/>
      <path d="M30.65 21.65 L30.95 21.65 Q35.35 22.3 33.85 25.5 33.8 25.7 33.7 25.45 32.8 23.0 30.1 22.0 30.2 21.65 30.65 21.65" fill="#d66b00" fill-rule="evenodd" stroke="none"/>
      <path d="M38.5 20.65 L38.65 20.45 39.15 20.25 Q42.85 21.55 41.1 24.3 L41.0 24.35 Q40.7 22.3 38.65 20.95 L38.5 20.65" fill="#d66b00" fill-rule="evenodd" stroke="none"/>
      <path d="M27.55 23.8 L27.65 23.75 27.8 23.7 Q30.6 24.95 28.4 26.8 28.2 26.95 28.2 26.6 28.25 25.15 27.45 23.9 L27.55 23.8" fill="#d66b00" fill-rule="evenodd" stroke="none"/>
      <path d="M25.4 27.1 L25.25 27.15 Q24.4 26.25 24.95 25.1 L25.05 25.0 Q26.3 25.8 25.4 27.1" fill="#d66b00" fill-rule="evenodd" stroke="none"/>
      <path d="M23.35 23.2 L23.35 23.15 24.85 22.75 Q25.05 23.9 23.35 23.2" fill="#d66b00" fill-rule="evenodd" stroke="none"/>
      <path d="M20.3 11.95 L20.15 11.95 19.75 12.05 19.15 12.3 18.35 12.85 18.25 12.7 Q18.9 12.1 19.7 11.9 L20.15 11.75 20.2 11.75 20.3 11.95" fill="#c16100" fill-rule="evenodd" stroke="none"/>
      <path d="M19.75 12.05 L19.2 12.4 19.15 12.3 19.75 12.05 M20.7 12.0 L20.65 12.0 20.4 11.95 20.3 11.95 20.7 11.95 20.7 12.0" fill="#ffb403" fill-rule="evenodd" stroke="none"/>
      <path d="M19.75 12.05 L20.15 11.95 20.3 11.95 20.4 11.95 20.65 12.0 20.7 12.0 21.05 12.2 Q21.35 12.5 21.3 13.0 21.25 13.55 20.8 13.9 20.4 14.3 19.85 14.35 L19.2 14.3 18.95 14.15 Q18.6 13.8 18.7 13.3 18.75 12.8 19.2 12.4 L19.75 12.05 M20.95 16.3 L20.95 16.6 20.6 17.25 19.9 17.6 19.45 17.55 19.25 17.45 Q19.0 17.2 19.1 16.8 19.15 16.45 19.45 16.2 19.75 15.9 20.15 15.85 L20.3 15.85 20.55 15.9 20.8 16.0 20.95 16.3" fill="#ffffff" fill-rule="evenodd" stroke="none"/>
      <path d="M25.15 13.45 L25.75 14.45 26.0 16.0 Q26.0 17.8 24.6 19.1 23.25 20.4 21.3 20.4 19.35 20.4 18.0 19.1 17.1 18.25 16.75 17.25 L17.25 17.8 Q18.7 19.1 20.6 19.1 22.55 19.1 23.95 17.8 25.3 16.5 25.3 14.7 L25.3 14.65 25.15 13.45" fill="#004d33" fill-rule="evenodd" stroke="none"/>
      <path d="M20.3 11.95 L20.2 11.75 21.3 11.6 Q23.25 11.6 24.6 12.9 L25.15 13.45 25.3 14.65 25.3 14.7 Q25.3 16.5 23.95 17.8 22.55 19.1 20.6 19.1 18.7 19.1 17.25 17.8 L16.75 17.25 Q16.6 16.65 16.6 16.05 L16.6 16.0 Q16.6 14.2 18.0 12.9 L18.25 12.7 18.35 12.85 Q17.5 13.65 17.4 14.65 17.25 15.65 17.9 16.3 L18.45 16.6 19.1 16.8 Q19.0 17.2 19.25 17.45 L19.45 17.55 19.9 17.6 20.6 17.25 20.95 16.6 20.95 16.3 21.6 15.85 Q22.4 15.05 22.55 14.05 22.7 13.05 22.05 12.45 L21.35 12.05 20.7 11.95 20.3 11.95" fill="#007a51" fill-rule="evenodd" stroke="none"/>
      <path d="M19.2 12.4 Q18.75 12.8 18.7 13.3 18.6 13.8 18.95 14.15 L19.2 14.3 19.85 14.35 Q20.4 14.3 20.8 13.9 21.25 13.55 21.3 13.0 21.35 12.5 21.05 12.2 L20.7 12.0 20.7 11.95 21.35 12.05 22.05 12.45 Q22.7 13.05 22.55 14.05 22.4 15.05 21.6 15.85 L20.95 16.3 20.8 16.0 20.55 15.9 20.3 15.85 20.15 15.85 Q19.75 15.9 19.45 16.2 19.15 16.45 19.1 16.8 L18.45 16.6 17.9 16.3 Q17.25 15.65 17.4 14.65 17.5 13.65 18.35 12.85 L19.15 12.3 19.2 12.4" fill="#009966" fill-rule="evenodd" stroke="none"/>
      <path d="M20.2 11.75 L20.15 11.75 19.7 11.9 Q18.9 12.1 18.25 12.7 M20.2 11.75 L21.3 11.6 Q23.25 11.6 24.6 12.9 L25.15 13.45 M16.75 17.25 Q16.6 16.65 16.6 16.05 L16.6 16.0 Q16.6 14.2 18.0 12.9 L18.25 12.7" fill="none" stroke="url(#gradient7)" stroke-linecap="round" stroke-linejoin="round" stroke-width="1.0"/>
      <path d="M25.15 13.45 L25.75 14.45 26.0 16.0 Q26.0 17.8 24.6 19.1 23.25 20.4 21.3 20.4 19.35 20.4 18.0 19.1 17.1 18.25 16.75 17.25" fill="none" stroke="#000000" stroke-linecap="round" stroke-linejoin="round" stroke-opacity="0.3019608" stroke-width="0.05"/>
      <path d="M19.9 12.75 L26.9 17.0 19.5 13.55 17.9 16.65 18.9 13.5 17.1 11.9 19.15 12.45 21.5 7.65 19.9 12.75" fill="#fcf3d8" fill-opacity="0.7921569" fill-rule="evenodd" stroke="none"/>
      <path d="M20.8 14.55 Q20.45 15.25 21.2 16.55 20.45 15.45 19.55 15.25 L18.4 15.3 Q17.55 15.0 17.15 14.25 16.7 13.45 16.95 12.65 L15.4 11.95 17.25 12.1 Q17.55 11.6 18.1 11.25 L19.2 10.9 19.65 10.15 19.8 11.0 19.9 11.0 Q20.75 11.3 21.15 11.95 21.55 12.8 21.25 13.65 L20.8 14.55 M18.65 12.0 Q18.2 12.3 18.1 12.7 17.95 13.2 18.2 13.55 L18.8 14.05 19.7 13.95 20.25 13.2 Q20.4 12.75 20.2 12.35 L19.55 11.95 18.65 12.0" fill="#fcf3d8" fill-opacity="0.3019608" fill-rule="evenodd" stroke="none"/>
      <path d="M18.65 12.0 L19.55 11.95 20.2 12.35 Q20.4 12.75 20.25 13.2 L19.7 13.95 18.8 14.05 18.2 13.55 Q17.95 13.2 18.1 12.7 18.2 12.3 18.65 12.0" fill="#fcf3d8" fill-opacity="0.84313726" fill-rule="evenodd" stroke="none"/>
      <path d="M36.5 16.8 L40.25 13.7 36.95 17.15 38.6 18.45 36.8 17.45 35.5 18.15 36.2 17.15 33.55 15.15 36.5 16.8" fill="#fcf3d8" fill-opacity="0.7921569" fill-rule="evenodd" stroke="none"/>
      <path d="M37.75 16.6 L39.1 16.65 Q38.3 16.9 38.0 17.35 L37.8 18.0 37.0 18.5 35.95 18.35 35.3 19.05 35.65 18.1 35.25 17.5 35.25 16.9 34.85 16.5 35.4 16.55 35.4 16.5 Q35.7 16.1 36.2 16.0 L37.25 16.2 37.75 16.6 M35.85 17.35 L36.2 17.75 36.7 17.8 37.1 17.55 37.2 17.1 36.85 16.65 36.3 16.55 35.9 16.85 Q35.8 17.1 35.85 17.35" fill="#fcf3d8" fill-opacity="0.3019608" fill-rule="evenodd" stroke="none"/>
      <path d="M35.85 17.35 Q35.8 17.1 35.9 16.85 L36.3 16.55 36.85 16.65 37.2 17.1 37.1 17.55 36.7 17.8 36.2 17.75 35.85 17.35" fill="#fcf3d8" fill-opacity="0.84313726" fill-rule="evenodd" stroke="none"/>
      <path d="M23.6 33.45 L23.9 28.8 24.15 33.45 26.4 33.25 24.3 33.75 23.95 35.05 23.65 33.9 20.25 34.2 23.6 33.45" fill="#fcf3d8" fill-opacity="0.7921569" fill-rule="evenodd" stroke="none"/>
      <path d="M24.35 32.5 L25.35 31.7 Q24.95 32.35 25.1 32.9 L25.45 33.4 Q25.6 33.9 25.25 34.35 L24.4 34.95 24.5 35.85 24.0 34.95 23.3 34.8 22.8 34.35 22.2 34.4 22.65 34.0 Q22.55 33.5 22.8 33.05 23.15 32.65 23.7 32.55 L24.35 32.5 M23.55 34.25 L24.1 34.35 24.55 34.05 24.65 33.6 24.3 33.25 23.75 33.15 Q23.45 33.2 23.3 33.4 23.2 33.6 23.25 33.9 L23.55 34.25" fill="#fcf3d8" fill-opacity="0.3019608" fill-rule="evenodd" stroke="none"/>
      <path d="M23.55 34.25 L23.25 33.9 Q23.2 33.6 23.3 33.4 23.45 33.2 23.75 33.15 L24.3 33.25 24.65 33.6 24.55 34.05 24.1 34.35 23.55 34.25" fill="#fcf3d8" fill-opacity="0.84313726" fill-rule="evenodd" stroke="none"/>
    </g>
    <linearGradient gradientTransform="matrix(0.0059, 7.0E-4, -4.0E-4, 0.003, 10.65, 6.45)" gradientUnits="userSpaceOnUse" id="gradient0" spreadMethod="pad" x1="-819.2" x2="819.2">
      <stop offset="0.0" stop-color="#ffffff" stop-opacity="0.0"/>
      <stop offset="0.5019607843137255" stop-color="#ffffff"/>
      <stop offset="0.9921568627450981" stop-color="#ffffff" stop-opacity="0.0"/>
    </linearGradient>
    <linearGradient gradientTransform="matrix(7.0E-4, 0.0022, -0.0037, 0.001, 11.55, 11.7)" gradientUnits="userSpaceOnUse" id="gradient1" spreadMethod="pad" x1="-819.2" x2="819.2">
      <stop offset="0.0" stop-color="#ffffff" stop-opacity="0.0"/>
      <stop offset="0.5019607843137255" stop-color="#ffffff"/>
      <stop offset="0.9921568627450981" stop-color="#ffffff" stop-opacity="0.0"/>
    </linearGradient>
    <linearGradient gradientTransform="matrix(3.0E-4, 0.0, 0.0, 9.0E-4, 14.0, 16.9)" gradientUnits="userSpaceOnUse" id="gradient2" spreadMethod="pad" x1="-819.2" x2="819.2">
      <stop offset="0.0" stop-color="#ffffff" stop-opacity="0.0"/>
      <stop offset="0.5019607843137255" stop-color="#ffffff"/>
      <stop offset="0.9921568627450981" stop-color="#ffffff" stop-opacity="0.0"/>
    </linearGradient>
    <linearGradient gradientTransform="matrix(0.006, 0.0044, -0.0052, 0.0061, 33.1, 20.55)" gradientUnits="userSpaceOnUse" id="gradient3" spreadMethod="pad" x1="-819.2" x2="819.2">
      <stop offset="0.0" stop-color="#ffffff" stop-opacity="0.0"/>
      <stop offset="0.5019607843137255" stop-color="#ffffff"/>
      <stop offset="0.9921568627450981" stop-color="#ffffff" stop-opacity="0.0"/>
    </linearGradient>
    <linearGradient gradientTransform="matrix(0.0037, -0.001, 0.0014, 0.0044, 26.0, 19.15)" gradientUnits="userSpaceOnUse" id="gradient4" spreadMethod="pad" x1="-819.2" x2="819.2">
      <stop offset="0.0" stop-color="#ffffff" stop-opacity="0.0"/>
      <stop offset="0.5019607843137255" stop-color="#ffffff"/>
      <stop offset="0.9921568627450981" stop-color="#ffffff" stop-opacity="0.0"/>
    </linearGradient>
    <linearGradient gradientTransform="matrix(0.003, 0.0, 0.0, 0.002, 32.8, 22.5)" gradientUnits="userSpaceOnUse" id="gradient5" spreadMethod="pad" x1="-819.2" x2="819.2">
      <stop offset="0.0" stop-color="#ffffff" stop-opacity="0.0"/>
      <stop offset="0.5019607843137255" stop-color="#ffffff"/>
      <stop offset="0.9921568627450981" stop-color="#ffffff" stop-opacity="0.0"/>
    </linearGradient>
    <linearGradient gradientTransform="matrix(7.0E-4, 8.0E-4, -0.0013, 0.0011, 28.3, 23.75)" gradientUnits="userSpaceOnUse" id="gradient6" spreadMethod="pad" x1="-819.2" x2="819.2">
      <stop offset="0.0" stop-color="#ffffff" stop-opacity="0.0"/>
      <stop offset="0.5019607843137255" stop-color="#ffffff"/>
      <stop offset="0.9921568627450981" stop-color="#ffffff" stop-opacity="0.0"/>
    </linearGradient>
    <linearGradient gradientTransform="matrix(0.0048, -0.0015, 0.0019, 0.0053, 20.8, 15.65)" gradientUnits="userSpaceOnUse" id="gradient7" spreadMethod="pad" x1="-819.2" x2="819.2">
      <stop offset="0.0" stop-color="#ffffff" stop-opacity="0.0"/>
      <stop offset="0.5019607843137255" stop-color="#ffffff"/>
      <stop offset="0.9921568627450981" stop-color="#ffffff" stop-opacity="0.0"/>
    </linearGradient>
    <g id="sprite0" transform="matrix(1.0, 0.0, 0.0, 1.0, 22.8, 38.3)">
      <clipPath id="clipPath0" transform="matrix(1.0, 0.0, 0.0, 1.0, 22.8, 38.3)">
        <use height="69.05" transform="matrix(1.0, 0.0, 0.0, 1.0, -21.55, -24.05)" width="51.85" xlink:href="#shape1"/>
      </clipPath>
      <g clip-path="url(#clipPath0)">
        <use height="97.45" transform="matrix(0.5244, 0.0, 0.0, 0.5244, 6.0981, -21.1772)" width="44.65" xlink:href="#sprite1"/>
        <use height="97.45" transform="matrix(0.5244, 0.0, 0.0, 0.5244, -22.8019, -38.2772)" width="44.65" xlink:href="#sprite1"/>
      </g>
    </g>
    <g id="shape1" transform="matrix(1.0, 0.0, 0.0, 1.0, 21.55, 24.05)">
      <path d="M5.45 -1.45 L4.45 -0.6 4.5 3.95 5.3 3.3 Q6.45 2.25 7.95 -0.95 L10.35 -5.6 11.55 -6.9 11.7 -6.95 13.1 -7.55 13.8 -7.55 Q14.75 -7.55 17.4 -6.25 L23.05 -3.05 27.2 0.2 27.6 0.55 Q30.35 3.25 30.3 5.25 L30.15 6.1 30.1 6.15 29.35 7.2 28.0 8.05 24.45 7.9 Q23.4 7.45 21.95 6.2 L21.95 6.85 Q21.95 7.85 21.1 8.95 L19.8 10.15 19.4 10.35 Q18.5 10.65 17.05 10.0 16.2 9.6 14.2 7.1 L14.2 8.3 Q13.75 10.2 12.6 10.7 L11.05 10.9 10.65 10.85 10.25 10.65 8.8 9.3 8.65 9.1 8.6 9.05 8.35 8.75 8.5 9.1 Q8.8 9.9 8.0 10.4 6.65 11.15 6.0 10.9 L5.25 10.55 5.2 10.55 4.9 10.2 4.55 9.8 4.7 34.25 4.75 34.65 4.7 35.1 4.8 45.0 3.95 45.0 -1.7 3.6 -1.75 3.5 -2.45 2.4 -1.75 3.6 Q-2.55 6.5 -2.9 6.75 L-3.85 6.7 Q-4.45 6.3 -5.1 4.8 -5.8 3.25 -5.25 1.8 L-6.15 2.0 Q-6.8 2.0 -7.15 1.65 -8.1 0.85 -8.9 -0.75 -9.7 -2.45 -9.65 -3.6 L-8.95 -5.7 Q-11.3 -5.4 -12.1 -6.05 -13.15 -7.0 -13.85 -8.15 -14.65 -9.75 -14.55 -11.5 L-14.15 -12.9 -13.55 -14.25 -15.35 -14.5 Q-16.6 -14.95 -17.35 -15.65 -18.75 -16.9 -19.9 -19.3 -21.15 -21.6 -21.55 -24.05 L-21.3 -24.0 -20.75 -23.85 Q-18.15 -23.3 -16.7 -22.75 -12.3 -21.2 -10.0 -19.45 -8.25 -18.2 -7.15 -16.55 -6.45 -15.45 -6.05 -14.15 L-4.85 -9.15 -3.7 -10.7 Q-1.8 -12.6 0.85 -12.6 3.55 -12.6 5.45 -10.7 L6.15 -9.85 7.0 -8.35 Q7.35 -7.3 7.35 -6.05 7.35 -3.4 5.45 -1.45 M7.7 7.85 L7.8 7.95 7.7 7.8 7.7 7.85" fill="#a90156" fill-rule="evenodd" stroke="none"/>
    </g>
    <g id="sprite1" transform="matrix(1.0, 0.0, 0.0, 1.0, 26.7, 41.05)">
      <use height="97.45" transform="matrix(1.0, 0.0, 0.0, 1.0, -26.7, -41.05)" width="44.65" xlink:href="#shape2"/>
    </g>
    <g id="shape2" transform="matrix(1.0, 0.0, 0.0, 1.0, 26.7, 41.05)">
      <path d="M9.95 -8.05 L12.75 -7.2 -21.3 53.75 -26.7 56.4 -4.4 18.1 9.95 -8.05 M6.85 -41.05 Q1.2 -14.1 17.95 -28.5 L-20.1 39.6 Q-19.3 26.55 -23.45 19.75 L6.85 -41.05" fill="#ffc903" fill-rule="evenodd" stroke="none"/>
    </g>
  </defs>
</svg>
