<?xml version="1.0" encoding="UTF-8" standalone="no"?>
<svg xmlns:xlink="http://www.w3.org/1999/xlink" height="440.0px" width="440.0px" xmlns="http://www.w3.org/2000/svg">
  <g transform="matrix(10.0, 0.0, 0.0, 10.0, 0.0, 0.0)">
    <use height="44.0" transform="matrix(1.0, 0.0, 0.0, 1.0, 0.0, 0.0)" width="44.0" xlink:href="#shape0"/>
    <use height="20.95" transform="matrix(-0.0746, 0.6236, -0.7115, -0.0393, 29.35, 12.7)" width="24.45" xlink:href="#sprite0"/>
    <use height="3.4" transform="matrix(1.0, 0.0, 0.0, 1.0, 24.35, 29.15)" width="3.15" xlink:href="#shape2"/>
    <use height="20.95" transform="matrix(0.0746, 0.6236, 0.7115, -0.0393, 17.5, 26.5)" width="24.45" xlink:href="#sprite0"/>
    <use height="3.25" transform="matrix(1.0, 0.0, 0.0, 1.0, 14.35, 26.1)" width="3.25" xlink:href="#shape3"/>
  </g>
  <defs>
    <g id="shape0" transform="matrix(1.0, 0.0, 0.0, 1.0, 0.0, 0.0)">
      <path d="M44.0 44.0 L0.0 44.0 0.0 0.0 44.0 0.0 44.0 44.0" fill="#43adca" fill-opacity="0.0" fill-rule="evenodd" stroke="none"/>
      <path d="M28.9 37.9 Q25.45 38.95 23.95 38.9 L23.7 38.9 23.05 38.85 22.5 38.85 22.45 38.85 18.9 38.25 15.25 35.95 13.3 34.2 14.2 33.1 18.5 36.05 22.1 36.85 22.85 37.8 23.9 36.75 26.65 36.25 29.35 33.65 30.4 29.9 29.4 28.75 26.75 26.5 23.7 24.55 25.7 23.25 25.7 23.2 26.3 23.05 26.3 23.0 26.35 22.8 28.2 21.75 28.15 23.2 Q28.1 23.8 28.2 24.3 L29.05 25.55 30.9 26.4 31.0 26.1 31.2 24.8 31.3 22.95 31.25 21.1 31.2 20.15 31.05 18.5 31.0 18.3 31.45 18.1 32.85 25.95 32.85 26.2 32.75 31.75 28.9 37.9 M21.9 41.95 L19.3 42.15 Q19.85 39.1 22.35 39.6 L21.9 41.95 M18.9 42.05 L16.45 39.85 Q17.1 37.55 18.9 38.9 L18.9 42.05 M10.55 31.2 L9.25 29.3 7.5 20.7 Q8.6 14.6 11.5 9.9 13.6 7.05 16.25 4.9 L16.8 4.45 Q18.0 3.55 19.35 2.8 L19.85 3.9 18.8 6.05 18.7 6.2 18.4 7.0 15.75 12.3 15.8 16.4 15.75 16.7 15.55 18.6 15.5 18.95 16.45 19.05 16.55 19.05 16.5 19.1 18.9 20.9 19.4 21.1 18.65 22.2 16.9 21.6 16.55 21.45 13.8 20.8 12.15 20.65 11.55 20.6 10.2 20.85 10.75 25.45 10.95 26.3 9.85 27.55 11.4 27.85 11.7 29.05 11.7 30.15 10.55 31.2 M11.8 12.9 Q10.85 15.5 10.6 18.4 L12.3 19.1 14.15 18.75 14.2 18.5 14.3 16.7 14.5 15.2 14.65 14.5 Q14.9 12.65 15.45 11.0 L16.45 8.2 17.8 5.7 Q15.15 7.65 13.05 10.25 L12.75 10.55 11.8 12.9" fill="#cccc99" fill-rule="evenodd" stroke="none"/>
      <path d="M17.35 17.1 L19.55 17.45 Q17.8 17.8 18.05 19.2 L16.55 19.05 16.45 19.05 15.5 18.95 17.35 17.1 M31.75 8.9 L32.4 10.45 32.5 10.75 Q31.9 12.2 31.9 14.75 L31.9 15.85 30.05 12.35 30.0 12.25 29.4 10.75 29.85 10.8 30.4 10.7 Q31.5 10.45 31.75 8.9 M33.7 21.55 L33.7 17.3 34.6 26.75 34.6 26.8 34.6 27.0 33.7 24.35 33.7 21.55 M14.05 11.45 Q13.55 10.6 11.8 12.9 L12.75 10.55 13.05 10.25 Q15.15 7.65 17.8 5.7 L16.45 8.2 14.7 10.35 Q14.3 10.85 14.05 11.45 M28.45 13.85 L27.95 10.15 30.1 15.5 Q29.5 15.65 28.8 16.75 28.45 15.25 28.45 13.85 M12.8 24.0 L13.45 27.35 11.7 29.05 11.4 27.85 12.9 26.1 10.95 26.3 10.75 25.45 Q11.6 22.35 12.8 24.0" fill="#616044" fill-rule="evenodd" stroke="none"/>
      <path d="M26.55 5.85 L27.05 3.05 28.7 9.15 26.55 5.85 M31.9 15.85 L33.2 18.25 33.0 23.7 32.85 25.95 31.45 18.1 30.05 12.35 31.9 15.85 M33.7 17.3 L34.5 20.5 35.2 23.65 35.15 24.25 34.6 26.75 33.7 17.3 M14.15 18.75 L12.3 19.1 10.6 18.4 12.4 18.0 14.15 18.75 M19.85 3.9 L19.35 2.8 20.7 1.9 19.85 3.9 M18.7 6.2 L18.75 6.2 18.05 9.35 15.8 16.4 15.75 12.3 18.4 7.0 18.7 6.2 M28.8 16.75 L29.05 17.65 28.6 19.55 28.25 21.3 28.25 19.75 27.85 17.85 Q28.45 16.15 28.45 13.85 28.45 15.25 28.8 16.75 M30.9 26.4 L29.05 25.55 28.2 24.3 29.65 24.75 30.9 26.4 M27.85 34.2 L30.4 29.9 29.35 33.65 26.65 36.25 23.9 36.75 22.85 37.8 24.5 34.55 24.4 35.45 26.65 36.25 27.85 34.2 M22.1 36.85 L18.5 36.05 22.2 36.05 22.1 36.85 M11.7 29.05 L11.9 29.95 11.7 30.15 11.7 29.05 M12.9 26.1 L11.4 27.85 9.85 27.55 12.9 26.1 M34.6 26.8 L34.75 26.25 34.6 27.0 34.6 26.8" fill="#e9e8d1" fill-rule="evenodd" stroke="none"/>
      <path d="M35.35 29.3 L35.35 29.35 35.0 29.9 32.35 34.6 31.35 35.6 28.9 37.9 32.75 31.75 35.35 29.3 35.0 29.9 31.35 35.6 35.0 29.9 35.35 29.3 M23.7 38.9 L23.15 41.3 21.9 41.95 22.35 39.6 22.5 38.85 23.05 38.85 23.7 38.9 M22.35 0.9 Q20.8 3.85 19.6 7.35 18.85 8.05 18.05 9.35 L18.75 6.2 18.7 6.2 18.8 6.05 19.85 3.9 20.7 1.9 22.35 0.9 M19.55 17.45 L21.6 17.9 22.4 18.25 20.95 18.6 Q20.05 18.85 19.5 19.35 L18.05 19.2 Q17.8 17.8 19.55 17.45 M27.05 3.05 L27.7 1.85 29.15 3.55 30.2 5.5 31.75 8.9 Q31.5 10.45 30.4 10.7 L29.85 10.8 29.4 10.75 28.7 9.15 27.05 3.05 M14.05 11.45 L12.95 14.15 12.35 16.7 10.6 18.4 Q10.85 15.5 11.8 12.9 13.55 10.6 14.05 11.45 M28.25 21.3 L28.6 19.55 29.05 17.65 28.8 16.75 Q29.5 15.65 30.1 15.5 L30.0 18.05 29.9 18.85 29.6 20.95 29.6 21.0 29.4 22.05 29.15 23.1 29.15 23.15 28.2 24.3 Q28.1 23.8 28.15 23.2 L28.2 21.75 28.25 21.3 M22.85 37.8 L22.1 36.85 22.2 36.05 24.5 34.55 22.85 37.8 M17.8 31.6 L20.7 33.9 20.7 33.95 18.5 36.05 14.65 31.9 12.75 30.55 Q13.4 30.05 14.55 30.3 L16.25 30.85 17.8 31.6" fill="#777755" fill-rule="evenodd" stroke="none"/>
      <path d="M35.05 19.75 L35.4 21.7 Q35.75 24.9 35.35 29.3 L32.75 31.75 32.85 26.2 32.85 25.95 33.0 23.7 Q33.25 22.45 33.7 21.55 L33.7 24.35 34.6 27.0 34.75 26.25 34.6 26.8 34.6 26.75 35.15 24.25 35.2 23.65 34.5 20.5 35.05 19.75 M16.8 4.45 L19.45 1.65 22.4 0.7 22.4 0.75 22.4 0.85 22.35 0.9 22.4 0.75 22.35 0.9 20.7 1.9 19.35 2.8 Q18.0 3.55 16.8 4.45" fill="#c0c083" fill-rule="evenodd" stroke="none"/>
      <path d="M32.5 10.75 Q33.65 13.75 34.4 16.85 L35.05 19.75 34.5 20.5 33.7 17.3 33.7 21.55 Q33.25 22.45 33.0 23.7 L33.2 18.25 31.9 15.85 31.9 14.75 Q31.9 12.2 32.5 10.75 M19.6 7.35 L19.55 7.65 Q18.15 11.9 17.8 16.65 L17.35 17.1 15.5 18.95 15.55 18.6 15.75 16.7 15.8 16.4 18.05 9.35 Q18.85 8.05 19.6 7.35 M22.4 18.25 L22.6 18.35 22.3 18.2 23.8 18.8 Q24.4 19.05 26.8 20.25 L26.75 20.6 26.4 22.65 26.35 22.8 26.3 23.0 25.05 22.05 24.1 21.35 Q23.65 20.9 22.65 20.5 L20.35 19.65 19.5 19.35 Q20.05 18.85 20.95 18.6 L22.4 18.25" fill="#99996a" fill-rule="evenodd" stroke="none"/>
      <path d="M12.2 33.15 L10.55 31.2 11.7 30.15 13.1 32.05 12.2 33.15 M26.8 20.25 Q27.5 12.8 26.4 6.35 L26.55 5.85 28.7 9.15 29.4 10.75 30.0 12.25 30.05 12.35 31.45 18.1 31.0 18.3 30.25 15.95 30.1 15.5 27.95 10.15 28.45 13.85 Q28.45 16.15 27.85 17.85 L28.25 19.75 26.75 20.6 26.8 20.25 M10.6 18.4 L12.35 16.7 14.3 16.7 14.2 18.5 14.15 18.75 12.4 18.0 10.6 18.4 M28.2 24.3 L29.15 23.15 31.2 24.8 31.0 26.1 30.9 26.4 29.65 24.75 28.2 24.3 M22.9 34.15 L27.85 34.2 26.65 36.25 24.4 35.45 24.5 34.55 22.2 36.05 18.5 36.05 20.7 33.95 20.7 33.9 22.9 34.15 M18.65 22.2 L19.4 21.1 24.2 22.05 22.05 23.65 20.55 22.95 18.65 22.2" fill="#bbb477" fill-rule="evenodd" stroke="none"/>
      <path d="M16.55 19.05 L18.05 19.2 19.5 19.35 20.35 19.65 22.65 20.5 Q23.65 20.9 24.1 21.35 L25.05 22.05 24.2 22.05 19.4 21.1 18.9 20.9 16.5 19.1 16.55 19.05 M18.5 36.05 L14.2 33.1 13.5 32.65 13.1 32.05 11.7 30.15 11.9 29.95 12.75 30.55 14.65 31.9 18.5 36.05" fill="#ffffff" fill-rule="evenodd" stroke="none"/>
      <path d="M19.3 42.15 L18.9 42.05 18.9 38.9 18.9 38.25 22.45 38.85 22.5 38.85 22.35 39.6 Q19.85 39.1 19.3 42.15 M16.45 39.85 L15.95 39.25 15.25 35.95 18.9 38.25 18.9 38.9 Q17.1 37.55 16.45 39.85 M13.3 34.2 L12.2 33.15 13.1 32.05 13.5 32.65 14.2 33.1 13.3 34.2 M25.05 22.05 L26.3 23.0 26.3 23.05 25.7 23.2 25.7 23.25 23.7 24.55 23.15 24.2 22.05 23.65 24.2 22.05 25.05 22.05 M26.35 22.8 L26.4 22.65 26.75 20.6 28.25 19.75 28.25 21.3 28.2 21.75 26.35 22.8" fill="#ddddbb" fill-rule="evenodd" stroke="none"/>
      <path d="M13.45 27.35 L13.95 27.9 15.45 29.4 16.6 30.5 17.8 31.6 16.25 30.85 14.55 30.3 Q13.4 30.05 12.75 30.55 L11.9 29.95 11.7 29.05 13.45 27.35 M10.75 25.45 L10.2 20.85 11.55 20.6 12.15 20.65 12.8 24.0 Q11.6 22.35 10.75 25.45 M10.95 26.3 L12.9 26.1 9.85 27.55 10.95 26.3" fill="#454332" fill-rule="evenodd" stroke="none"/>
      <path d="M12.35 16.7 L12.95 14.15 14.05 11.45 Q14.3 10.85 14.7 10.35 L16.45 8.2 15.45 11.0 Q14.25 11.2 13.4 14.65 13.8 15.05 14.5 15.2 L14.3 16.7 12.35 16.7 M30.1 15.5 L30.25 15.95 31.0 18.3 31.05 18.5 Q30.4 18.35 29.95 20.8 L29.8 21.6 Q30.25 22.5 31.3 22.95 L31.2 24.8 29.15 23.15 29.15 23.1 29.4 22.05 29.6 21.0 29.6 20.95 29.9 18.85 30.0 18.05 30.1 15.5 M22.05 23.65 L23.15 24.2 21.95 23.75 Q19.7 22.8 18.3 22.7 L18.0 22.65 Q16.3 22.75 16.1 23.75 L15.9 25.8 15.95 27.45 16.45 28.4 17.3 29.85 18.05 30.9 18.4 31.35 20.7 33.9 17.8 31.6 16.6 30.5 15.45 29.4 13.95 27.9 13.45 27.35 12.8 24.0 12.15 20.65 13.8 20.8 16.55 21.45 16.9 21.6 18.65 22.2 20.55 22.95 22.05 23.65 M15.45 24.45 L15.4 22.8 Q14.5 21.4 13.4 22.0 13.15 23.15 13.4 24.9 13.6 26.65 14.9 26.65 15.5 25.8 15.45 24.45" fill="#304312" fill-rule="evenodd" stroke="none"/>
      <path d="M14.5 15.2 Q13.8 15.05 13.4 14.65 14.25 11.2 15.45 11.0 14.9 12.65 14.65 14.5 L14.5 15.2 M31.05 18.5 L31.2 20.15 31.25 21.1 31.3 22.95 Q30.25 22.5 29.8 21.6 L29.95 20.8 Q30.4 18.35 31.05 18.5 M22.8 25.8 Q26.2 26.9 27.65 28.45 29.1 30.6 27.95 32.05 L27.85 32.15 Q26.2 34.0 22.9 34.15 L20.7 33.9 18.4 31.35 Q23.75 32.4 24.4 28.4 24.7 26.55 22.8 25.8 M15.45 24.45 Q15.5 25.8 14.9 26.65 13.6 26.65 13.4 24.9 13.15 23.15 13.4 22.0 14.5 21.4 15.4 22.8 L15.45 24.45" fill="#648c26" fill-rule="evenodd" stroke="none"/>
      <path d="M26.75 26.5 L29.4 28.75 30.4 29.9 27.85 34.2 22.9 34.15 Q26.2 34.0 27.85 32.15 L27.95 32.05 Q29.1 30.6 27.65 28.45 26.2 26.9 22.8 25.8 L22.2 25.65 20.1 25.15 18.85 24.9 20.45 24.9 22.75 25.2 Q24.5 25.6 26.75 26.5" fill="#3e5717" fill-rule="evenodd" stroke="none"/>
      <path d="M18.85 24.9 L20.1 25.15 22.2 25.65 22.8 25.8 Q24.7 26.55 24.4 28.4 23.75 32.4 18.4 31.35 L18.05 30.9 17.45 29.65 Q17.05 28.7 16.95 27.9 16.6 26.3 17.4 25.35 L18.85 24.9" fill="#7bad30" fill-rule="evenodd" stroke="none"/>
      <path d="M23.15 24.2 L23.7 24.55 26.75 26.5 Q24.5 25.6 22.75 25.2 L20.45 24.9 18.85 24.9 17.4 25.35 Q16.6 26.3 16.95 27.9 17.05 28.7 17.45 29.65 L18.05 30.9 17.3 29.85 16.45 28.4 15.95 27.45 15.9 25.8 16.1 23.75 Q16.3 22.75 18.0 22.65 L18.3 22.7 Q19.7 22.8 21.95 23.75 L23.15 24.2" fill="#8ec837" fill-rule="evenodd" stroke="none"/>
      <path d="M32.5 10.75 Q33.65 13.75 34.4 16.85 L35.05 19.75 35.4 21.7 Q35.75 24.9 35.35 29.3 L35.35 29.35 35.0 29.9 32.35 34.6 31.35 35.6 28.9 37.9 Q25.45 38.95 23.95 38.9 M23.7 38.9 L23.15 41.3 21.9 41.95 19.3 42.15 M18.9 42.05 L16.45 39.85 15.95 39.25 15.25 35.95 13.3 34.2 12.2 33.15 10.55 31.2 9.25 29.3 7.5 20.7 Q8.6 14.6 11.5 9.9 13.6 7.05 16.25 4.9 L16.8 4.45 19.45 1.65 22.4 0.7 M22.35 0.9 Q20.8 3.85 19.6 7.35 L19.55 7.65 Q18.15 11.9 17.8 16.65 L17.35 17.1 19.55 17.45 21.6 17.9 22.4 18.25 22.6 18.35 22.3 18.2 23.8 18.8 Q24.4 19.05 26.8 20.25 27.5 12.8 26.4 6.35 L26.55 5.85 27.05 3.05 27.7 1.85 29.15 3.55 30.2 5.5 31.75 8.9 32.4 10.45 32.5 10.75 M22.35 0.9 L22.4 0.75 M35.35 29.3 L35.0 29.9 31.35 35.6" fill="none" stroke="#000000" stroke-linecap="round" stroke-linejoin="round" stroke-opacity="0.3019608" stroke-width="0.5"/>
      <path d="M23.95 38.9 L23.7 38.9 M22.5 38.85 L23.05 38.85 23.7 38.9 M18.9 38.9 L18.9 38.25 15.25 35.95 M18.9 38.9 L18.9 42.05" fill="none" stroke="#000000" stroke-linecap="round" stroke-linejoin="round" stroke-opacity="0.3019608" stroke-width="0.05"/>
    </g>
    <g id="sprite0" transform="matrix(1.0, 0.0, 0.0, 1.0, 0.0, 0.0)">
      <use height="20.95" transform="matrix(1.0, 0.0, 0.0, 1.0, 0.0, 0.0)" width="24.45" xlink:href="#shape1"/>
    </g>
    <g id="shape1" transform="matrix(1.0, 0.0, 0.0, 1.0, 0.0, 0.0)">
      <path d="M14.85 11.4 Q15.8 11.6 16.25 12.45 16.85 13.3 16.6 14.35 16.4 15.3 15.55 15.9 14.65 16.4 13.65 16.2 12.65 15.9 12.1 15.1 11.6 14.2 11.8 13.2 12.1 12.2 12.9 11.65 13.8 11.15 14.85 11.4" fill="#ffffff" fill-opacity="0.5882353" fill-rule="evenodd" stroke="none"/>
      <path d="M14.85 11.4 Q13.8 11.15 12.9 11.65 12.1 12.2 11.8 13.2 11.6 14.2 12.1 15.1 12.65 15.9 13.65 16.2 14.65 16.4 15.55 15.9 16.4 15.3 16.6 14.35 16.85 13.3 16.25 12.45 15.8 11.6 14.85 11.4 M18.2 11.35 L20.15 11.25 18.75 12.55 Q19.05 13.8 18.8 15.05 18.5 16.35 17.65 17.3 L19.1 20.95 16.55 18.25 Q14.8 19.3 12.8 18.85 10.8 18.35 9.75 16.65 9.05 15.5 8.95 14.3 7.75 12.35 4.85 11.5 8.3 12.45 9.7 11.4 10.3 10.4 11.35 9.75 13.1 8.75 15.1 9.15 16.95 9.5 18.1 11.15 L18.2 11.35" fill="#ffffff" fill-opacity="0.1764706" fill-rule="evenodd" stroke="none"/>
      <path d="M15.4 13.55 L18.1 17.55 13.35 14.65 7.05 18.5 12.75 13.55 0.0 0.0 14.25 12.25 24.45 5.95 15.4 13.55" fill="#ffffff" fill-opacity="0.5882353" fill-rule="evenodd" stroke="none"/>
    </g>
    <g id="shape2" transform="matrix(1.0, 0.0, 0.0, 1.0, -24.35, -29.15)">
      <path d="M26.2 30.0 Q26.65 30.0 27.05 30.3 L27.1 30.35 Q27.5 30.7 27.5 31.25 L27.45 31.5 27.35 31.8 27.1 32.15 26.55 32.5 26.2 32.55 Q25.6 32.55 25.25 32.15 L25.0 31.85 24.9 31.55 24.85 31.25 Q24.85 30.7 25.25 30.35 25.6 30.0 26.2 30.0" fill="#55730d" fill-rule="evenodd" stroke="none"/>
      <path d="M24.7 31.25 L24.6 30.95 24.6 30.65 Q24.6 30.15 24.95 29.75 25.35 29.4 25.9 29.4 26.4 29.4 26.75 29.7 L26.8 29.75 Q27.1 30.25 27.0 30.55 L26.7 30.05 Q26.45 31.25 25.0 31.05 25.1 31.5 25.65 31.75 L25.6 31.75 25.35 31.75 24.7 31.25 M26.3 31.9 L26.25 31.9 26.3 31.9 M25.75 29.55 Q25.6 29.55 25.3 29.7 25.0 29.9 25.0 30.15 25.0 30.65 25.85 30.65 L26.4 30.5 26.65 30.05 26.15 29.6 25.75 29.55" fill="#504b27" fill-rule="evenodd" stroke="none"/>
      <path d="M25.45 29.85 Q25.15 30.05 25.25 30.3 L25.45 30.2 25.85 30.1 26.3 30.2 26.45 30.0 Q26.55 29.65 25.95 29.65 L25.45 29.85 M25.75 29.55 L26.15 29.6 26.65 30.05 26.4 30.5 25.85 30.65 Q25.0 30.65 25.0 30.15 25.0 29.9 25.3 29.7 25.6 29.55 25.75 29.55" fill="#666133" fill-rule="evenodd" stroke="none"/>
      <path d="M25.45 29.85 L25.95 29.65 Q26.55 29.65 26.45 30.0 L26.3 30.2 25.85 30.1 25.45 30.2 25.25 30.3 Q25.15 30.05 25.45 29.85" fill="#7c763f" fill-rule="evenodd" stroke="none"/>
      <path d="M26.8 29.75 Q27.2 30.15 27.2 30.65 L27.2 30.95 27.1 31.2 26.8 31.55 26.3 31.9 26.25 31.9 25.9 31.95 Q25.35 31.95 24.95 31.55 L24.7 31.25 25.35 31.75 25.6 31.75 25.65 31.75 Q25.1 31.5 25.0 31.05 26.45 31.25 26.7 30.05 L27.0 30.55 Q27.1 30.25 26.8 29.75" fill="#2e2b16" fill-rule="evenodd" stroke="none"/>
      <path d="M24.7 31.25 L24.6 30.95 24.6 30.65 Q24.6 30.15 24.95 29.75 25.35 29.4 25.9 29.4 26.4 29.4 26.75 29.7 L26.8 29.75 Q27.2 30.15 27.2 30.65 L27.2 30.95 27.1 31.2 26.8 31.55 26.3 31.9 M26.25 31.9 L25.9 31.95 Q25.35 31.95 24.95 31.55 L24.7 31.25 Z" fill="none" stroke="#000000" stroke-linecap="round" stroke-linejoin="round" stroke-opacity="0.3019608" stroke-width="0.5"/>
    </g>
    <g id="shape3" transform="matrix(1.0, 0.0, 0.0, 1.0, -14.35, -26.1)">
      <path d="M16.3 26.8 Q16.75 26.8 17.15 27.1 L17.2 27.15 Q17.6 27.5 17.6 28.05 L17.55 28.3 17.45 28.6 17.2 28.95 16.65 29.3 16.3 29.35 Q15.7 29.35 15.35 28.95 L15.1 28.65 15.0 28.35 14.95 28.05 Q14.95 27.5 15.35 27.15 15.7 26.8 16.3 26.8" fill="#55730d" fill-rule="evenodd" stroke="none"/>
      <path d="M14.7 28.2 L14.6 27.9 14.6 27.6 Q14.6 27.1 14.95 26.7 15.35 26.35 15.9 26.35 16.4 26.35 16.75 26.65 L16.8 26.7 Q17.1 27.2 17.0 27.5 L16.7 27.0 Q16.45 28.2 15.0 28.0 15.1 28.45 15.65 28.7 L15.6 28.7 15.35 28.7 14.7 28.2 M16.3 28.85 L16.25 28.85 16.3 28.85 M15.75 26.5 L15.3 26.65 Q15.0 26.85 15.0 27.1 15.0 27.6 15.85 27.6 L16.4 27.45 16.65 27.0 16.15 26.55 15.75 26.5" fill="#504b27" fill-rule="evenodd" stroke="none"/>
      <path d="M15.75 26.5 L16.15 26.55 16.65 27.0 16.4 27.45 15.85 27.6 Q15.0 27.6 15.0 27.1 15.0 26.85 15.3 26.65 L15.75 26.5 M15.45 26.8 Q15.15 27.0 15.25 27.25 L15.45 27.15 15.85 27.05 16.3 27.15 16.45 26.95 Q16.55 26.6 15.95 26.6 L15.45 26.8" fill="#666133" fill-rule="evenodd" stroke="none"/>
      <path d="M15.45 26.8 L15.95 26.6 Q16.55 26.6 16.45 26.95 L16.3 27.15 15.85 27.05 15.45 27.15 15.25 27.25 Q15.15 27.0 15.45 26.8" fill="#7c763f" fill-rule="evenodd" stroke="none"/>
      <path d="M16.8 26.7 Q17.2 27.1 17.2 27.6 L17.2 27.9 17.1 28.15 16.8 28.5 16.3 28.85 16.25 28.85 15.9 28.9 Q15.35 28.9 14.95 28.5 L14.7 28.2 15.35 28.7 15.6 28.7 15.65 28.7 Q15.1 28.45 15.0 28.0 16.45 28.2 16.7 27.0 L17.0 27.5 Q17.1 27.2 16.8 26.7" fill="#2e2b16" fill-rule="evenodd" stroke="none"/>
      <path d="M14.7 28.2 L14.6 27.9 14.6 27.6 Q14.6 27.1 14.95 26.7 15.35 26.35 15.9 26.35 16.4 26.35 16.75 26.65 L16.8 26.7 Q17.2 27.1 17.2 27.6 L17.2 27.9 17.1 28.15 16.8 28.5 16.3 28.85 M16.25 28.85 L15.9 28.9 Q15.35 28.9 14.95 28.5 L14.7 28.2 Z" fill="none" stroke="#000000" stroke-linecap="round" stroke-linejoin="round" stroke-opacity="0.3019608" stroke-width="0.5"/>
    </g>
  </defs>
</svg>
