<?xml version="1.0" encoding="UTF-8" standalone="no"?>
<svg xmlns:xlink="http://www.w3.org/1999/xlink" height="440.0px" width="440.0px" xmlns="http://www.w3.org/2000/svg">
  <g transform="matrix(10.0, 0.0, 0.0, 10.0, 0.0, 0.0)">
    <use height="44.0" transform="matrix(1.0, 0.0, 0.0, 1.0, 0.0, 0.0)" width="44.0" xlink:href="#shape0"/>
    <use height="20.95" transform="matrix(-0.6, -0.0697, 0.0379, -0.6644, 32.05, 16.75)" width="24.45" xlink:href="#sprite0"/>
    <use height="20.95" transform="matrix(-0.2397, 0.5545, 0.5943, 0.2994, 28.05, 23.4)" width="24.45" xlink:href="#sprite0"/>
  </g>
  <defs>
    <g id="shape0" transform="matrix(1.0, 0.0, 0.0, 1.0, 0.0, 0.0)">
      <path d="M44.0 44.0 L0.0 44.0 0.0 0.0 44.0 0.0 44.0 44.0" fill="#43adca" fill-opacity="0.0" fill-rule="evenodd" stroke="none"/>
      <path d="M24.8 27.2 Q26.45 26.25 27.85 25.75 30.75 24.85 32.3 26.25 L32.2 26.55 32.2 26.65 32.0 27.4 31.05 31.25 30.5 33.25 29.85 33.0 29.3 32.75 27.1 31.45 25.75 30.55 26.25 30.7 26.85 30.5 26.9 30.25 25.4 29.35 24.0 29.0 24.8 27.2" fill="#3e5717" fill-rule="evenodd" stroke="none"/>
      <path d="M28.9 22.05 L30.3 21.9 33.35 21.95 33.0 23.4 29.1 23.9 Q26.2 24.8 24.8 27.2 L24.0 29.0 23.9 29.05 24.8 29.9 25.75 30.55 27.1 31.45 29.3 32.75 29.85 33.0 26.6 32.05 20.65 30.2 20.8 29.65 Q21.5 26.4 23.15 24.2 25.45 22.45 28.9 22.05" fill="#304312" fill-rule="evenodd" stroke="none"/>
      <path d="M32.3 26.25 Q30.75 24.85 27.85 25.75 26.45 26.25 24.8 27.2 26.2 24.8 29.1 23.9 L33.0 23.4 32.3 26.25" fill="#7bad30" fill-rule="evenodd" stroke="none"/>
      <path d="M24.0 29.0 L25.4 29.35 26.9 30.25 26.85 30.5 26.25 30.7 25.75 30.55 24.8 29.9 23.9 29.05 24.0 29.0" fill="#648c26" fill-rule="evenodd" stroke="none"/>
      <path d="M34.4 39.2 L30.35 40.3 32.4 38.85 35.2 28.3 35.85 25.15 36.4 22.2 Q35.95 20.05 34.45 18.75 L35.85 18.75 37.3 19.15 39.35 18.9 38.25 20.6 37.2 25.05 35.15 33.5 33.85 38.7 34.4 39.2" fill="#fef0bc" fill-rule="evenodd" stroke="none"/>
      <path d="M10.65 18.35 Q8.9 20.25 7.95 22.4 L9.2 24.0 10.8 26.05 12.7 28.45 10.7 26.35 8.95 24.5 7.7 23.15 7.1 25.15 8.3 26.55 10.0 28.5 13.75 33.0 9.8 29.35 8.15 27.7 6.55 26.25 Q4.15 28.05 2.3 31.55 4.4 24.0 10.05 18.95 L10.65 18.35 M18.9 18.5 L18.95 16.0 20.8 13.7 20.5 14.7 Q20.05 16.4 19.9 18.1 L19.85 19.35 19.25 23.35 18.55 21.15 18.9 18.5 M30.6 18.3 L28.35 19.9 30.35 16.95 30.6 18.3 M19.9 32.6 L20.9 32.8 24.3 33.0 24.6 33.2 25.15 33.6 27.4 34.7 29.9 35.7 26.95 35.2 24.05 34.95 23.3 34.9 21.95 33.85 20.65 33.0 19.9 32.6" fill="#fee481" fill-rule="evenodd" stroke="none"/>
      <path d="M19.8 6.95 L20.35 6.6 21.95 5.7 22.0 5.7 23.9 6.2 Q24.75 6.55 25.4 7.05 L26.25 7.75 26.95 8.35 26.95 9.1 26.7 10.6 25.25 8.35 25.3 8.0 Q25.3 7.6 24.55 7.25 L23.75 7.05 23.3 7.0 22.1 7.1 21.6 7.25 20.75 7.65 Q19.2 8.5 19.2 9.45 19.2 10.05 21.15 10.05 22.9 10.05 24.2 9.35 L24.85 8.8 24.95 8.8 26.2 10.7 25.4 10.85 Q24.65 11.0 23.95 11.3 L23.65 11.35 Q21.2 12.2 18.95 13.65 L17.35 14.7 14.7 16.9 12.9 18.7 Q10.4 21.45 9.2 24.0 L7.95 22.4 Q8.9 20.25 10.65 18.35 12.2 16.7 14.8 15.25 L14.9 14.7 Q15.3 12.55 16.3 10.55 L16.35 10.5 17.4 9.15 Q18.1 8.35 18.9 7.7 19.25 7.4 19.75 7.05 L19.8 7.1 19.8 6.95 M17.9 13.3 L18.95 13.65 17.9 13.3 M21.3 21.1 L21.8 20.75 22.0 20.65 22.05 20.6 22.1 20.6 22.25 20.45 22.3 20.45 22.4 20.3 22.7 20.1 22.75 20.05 Q24.35 19.05 26.3 18.6 L28.35 19.9 30.6 18.3 31.55 18.3 31.95 18.35 30.3 21.9 28.9 22.05 30.2 20.35 Q28.55 20.15 23.75 21.6 19.3 23.85 16.7 28.25 16.1 29.55 15.85 30.7 L15.8 30.7 15.85 30.0 16.0 29.5 Q16.55 26.8 18.2 24.6 L18.7 24.0 19.25 23.35 21.05 21.45 21.2 21.3 21.45 21.1 21.3 21.1 M8.8 33.55 L2.3 31.55 Q4.15 28.05 6.55 26.25 L8.15 27.7 8.1 28.3 Q8.1 29.4 8.25 30.2 L8.3 30.4 8.8 33.55 M8.3 26.55 L7.1 25.15 7.7 23.15 8.95 24.5 Q8.5 25.55 8.3 26.55" fill="#ffcc00" fill-rule="evenodd" stroke="none"/>
      <path d="M16.3 10.55 Q15.3 12.55 14.9 14.7 L14.8 15.25 Q12.2 16.7 10.65 18.35 L13.05 15.25 13.45 14.7 16.3 10.55 M24.55 38.4 L22.2 37.7 24.05 34.95 26.95 35.2 26.6 35.6 25.5 36.95 24.55 38.4 M16.15 35.85 L12.2 34.6 15.6 32.85 15.7 32.8 18.95 30.9 18.65 32.2 19.9 32.6 20.65 33.0 16.15 35.85 M14.95 20.95 L12.9 18.7 18.7 24.0 18.2 24.6 14.95 20.95 M35.85 25.15 L35.2 28.3 Q34.3 28.8 33.5 29.4 L31.05 31.25 32.0 27.4 Q33.85 26.15 35.85 25.15" fill="#fdd535" fill-rule="evenodd" stroke="none"/>
      <path d="M26.95 8.35 L26.25 7.75 25.4 7.05 Q24.75 6.55 23.9 6.2 L22.0 5.7 23.8 4.35 24.8 5.8 25.55 6.4 26.35 6.75 27.55 6.55 26.95 8.35 M24.85 8.8 L24.2 9.35 Q22.9 10.05 21.15 10.05 19.2 10.05 19.2 9.45 19.2 8.5 20.75 7.65 L21.6 7.25 22.1 7.1 23.3 7.0 23.75 7.05 24.55 7.25 Q25.3 7.6 25.3 8.0 L25.25 8.35 22.15 7.65 24.85 8.8" fill="#fdde68" fill-rule="evenodd" stroke="none"/>
      <path d="M30.35 40.3 L24.55 38.4 25.5 36.95 26.6 35.6 26.95 35.2 29.9 35.7 30.5 33.25 31.05 31.25 33.5 29.4 Q34.3 28.8 35.2 28.3 L32.4 38.85 30.35 40.3 M22.2 37.7 L19.0 36.7 Q19.7 34.9 21.95 33.85 L23.3 34.9 24.05 34.95 22.2 37.7 M12.2 34.6 L9.95 33.85 Q9.65 32.85 9.65 31.55 9.65 30.4 9.8 29.35 L13.75 33.0 10.0 28.5 Q10.2 27.4 10.7 26.35 L12.7 28.45 10.8 26.05 Q12.15 23.2 14.95 20.95 L18.2 24.6 Q16.55 26.8 16.0 29.5 L15.85 30.0 15.8 30.7 15.85 30.7 Q16.1 29.55 16.7 28.25 19.3 23.85 23.75 21.6 28.55 20.15 30.2 20.35 L28.9 22.05 Q25.45 22.45 23.15 24.2 20.05 26.45 18.95 30.9 L15.7 32.8 Q15.6 32.0 15.75 31.25 L15.8 30.7 15.75 31.25 Q15.6 32.0 15.7 32.8 L15.6 32.85 12.2 34.6 M26.7 10.6 L26.95 9.1 Q28.5 10.0 29.2 8.3 L29.95 9.15 30.05 9.45 Q30.25 9.95 30.05 10.5 L29.1 10.45 26.7 10.6 M15.45 20.6 Q17.0 19.4 18.9 18.5 L18.55 21.15 19.25 23.35 15.45 20.6 M36.4 22.2 L35.85 25.15 Q33.85 26.15 32.0 27.4 L32.2 26.65 32.2 26.55 32.3 26.25 32.7 24.85 Q34.55 22.75 36.4 22.2" fill="#fdb914" fill-rule="evenodd" stroke="none"/>
      <path d="M9.2 24.0 Q10.4 21.45 12.9 18.7 L14.7 16.9 17.35 14.7 18.95 13.65 20.8 13.7 18.95 13.65 Q21.2 12.2 23.65 11.35 L23.95 11.3 Q24.65 11.0 25.4 10.85 L26.2 10.7 26.45 11.1 Q25.3 13.1 22.6 14.0 L21.75 13.3 Q22.8 12.7 23.65 11.35 22.8 12.7 21.75 13.3 L20.8 13.7 18.95 16.0 18.9 18.5 Q17.0 19.4 15.45 20.6 L12.9 18.7 14.95 20.95 Q12.15 23.2 10.8 26.05 L9.2 24.0 M24.6 3.5 Q26.35 5.45 28.9 5.5 L27.55 6.55 26.35 6.75 25.55 6.4 24.8 5.8 23.8 4.35 24.6 3.5 M30.75 6.75 Q32.2 7.85 31.2 9.55 L29.85 10.9 29.1 11.6 26.7 12.1 26.7 11.85 26.7 11.8 26.7 11.55 26.7 10.6 29.1 10.45 30.05 10.5 Q30.25 9.95 30.05 9.45 L29.95 9.15 29.2 8.3 30.75 6.75 M21.2 17.8 L21.25 18.65 21.3 21.1 21.3 21.2 21.2 21.3 21.05 21.45 19.25 23.35 19.85 19.35 Q20.4 18.3 20.9 17.8 L21.2 17.8 M22.1 20.6 L22.8 19.8 Q23.75 18.35 27.0 17.0 28.8 16.4 30.15 16.35 L32.9 16.3 37.45 17.0 Q38.3 18.35 35.85 18.75 L34.45 18.75 34.4 18.75 31.95 18.35 31.55 18.3 30.6 18.3 30.35 16.95 26.3 18.6 Q24.35 19.05 22.75 20.05 L22.7 20.1 22.4 20.3 22.3 20.45 22.25 20.45 22.1 20.6 M37.5 31.85 L36.1 37.55 34.4 39.2 33.85 38.7 35.15 33.5 Q36.85 31.0 37.5 31.85 M9.95 33.85 L8.8 33.55 8.3 30.4 8.25 30.2 Q8.1 29.4 8.1 28.3 L8.15 27.7 9.8 29.35 Q9.65 30.4 9.65 31.55 9.65 32.85 9.95 33.85 M8.95 24.5 L10.7 26.35 Q10.2 27.4 10.0 28.5 L8.3 26.55 Q8.5 25.55 8.95 24.5 M29.85 33.0 L30.5 33.25 29.9 35.7 27.4 34.7 25.15 33.6 24.6 33.2 26.6 32.05 29.85 33.0" fill="#d89500" fill-rule="evenodd" stroke="none"/>
      <path d="M22.0 5.7 L21.95 5.7 20.35 6.6 19.8 6.95 20.65 5.95 21.65 4.9 21.9 4.7 Q22.55 4.2 23.05 4.0 L24.6 3.5 23.8 4.35 22.0 5.7 M28.35 7.9 L29.55 7.5 30.5 6.9 30.75 6.75 29.2 8.3 Q28.5 10.0 26.95 9.1 L28.35 7.9 M26.7 12.1 L26.7 12.75 23.2 15.25 22.1 14.75 21.9 14.65 21.75 14.45 21.75 14.15 21.75 13.3 22.6 14.0 Q25.3 13.1 26.45 11.1 L26.2 10.7 24.95 8.8 24.85 8.8 22.15 7.65 25.25 8.35 26.7 10.6 26.7 11.55 26.7 11.8 26.65 11.85 26.7 11.85 26.7 12.1 M39.2 24.55 L37.5 31.85 Q36.85 31.0 35.15 33.5 L37.2 25.05 37.75 24.3 Q38.35 23.45 38.8 23.8 L39.2 24.55 M19.0 36.7 L16.15 35.85 20.65 33.0 21.95 33.85 Q19.7 34.9 19.0 36.7 M12.9 18.7 L15.45 20.6 19.25 23.35 18.7 24.0 12.9 18.7 M30.3 21.9 L31.95 18.35 34.4 18.75 34.45 18.75 Q35.95 20.05 36.4 22.2 34.55 22.75 32.7 24.85 L33.35 21.95 30.3 21.9 M26.45 11.1 L26.7 11.55 26.45 11.1 M20.65 30.2 L26.6 32.05 24.6 33.2 24.3 33.0 20.9 32.8 19.9 32.6 18.65 32.2 20.65 30.2" fill="#ba8201" fill-rule="evenodd" stroke="none"/>
      <path d="M28.9 5.5 L28.35 7.9 26.95 9.1 26.95 8.35 27.55 6.55 28.9 5.5 M21.9 14.65 Q21.7 14.7 21.55 15.1 L21.4 16.1 21.25 17.2 21.2 17.8 20.9 17.8 Q20.4 18.3 19.85 19.35 L19.9 18.1 Q20.05 16.4 20.5 14.7 L20.8 13.7 21.75 13.3 21.75 14.15 21.75 14.45 21.9 14.65 M37.45 17.0 Q38.8 17.2 40.35 18.1 L40.55 19.2 39.2 24.55 38.8 23.8 Q38.35 23.45 37.75 24.3 L37.2 25.05 38.25 20.6 39.35 18.9 37.3 19.15 35.85 18.75 Q38.3 18.35 37.45 17.0 M28.35 19.9 L26.3 18.6 30.35 16.95 28.35 19.9 M18.95 30.9 Q20.05 26.45 23.15 24.2 21.5 26.4 20.8 29.65 L20.65 30.2 18.65 32.2 18.95 30.9" fill="#744c12" fill-rule="evenodd" stroke="none"/>
      <path d="M19.8 6.95 L19.8 7.1 19.75 7.05 Q19.25 7.4 18.9 7.7 18.1 8.35 17.4 9.15 L16.35 10.5 16.3 10.55 M21.65 4.9 L21.9 4.7 21.75 4.85 21.65 4.9 20.65 5.95 19.8 6.95 M21.65 4.9 L21.6 4.95 21.75 4.85 M21.9 4.7 Q22.55 4.2 23.05 4.0 L24.6 3.5 Q26.35 5.45 28.9 5.5 L28.35 7.9 29.55 7.5 30.5 6.9 30.75 6.75 Q32.2 7.85 31.2 9.55 L29.85 10.9 29.1 11.6 26.7 12.1 26.7 12.75 23.2 15.25 22.1 14.75 21.9 14.65 Q21.7 14.7 21.55 15.1 L21.4 16.1 21.25 17.2 21.2 17.8 21.25 18.65 21.3 21.1 21.8 20.75 22.0 20.65 22.05 20.6 22.1 20.6 22.8 19.8 Q23.75 18.35 27.0 17.0 28.8 16.4 30.15 16.35 L32.9 16.3 37.45 17.0 Q38.8 17.2 40.35 18.1 L40.55 19.2 39.2 24.55 37.5 31.85 36.1 37.55 34.4 39.2 30.35 40.3 24.55 38.4 22.2 37.7 19.0 36.7 16.15 35.85 12.2 34.6 9.95 33.85 8.8 33.55 2.3 31.55 Q4.4 24.0 10.05 18.95 L10.65 18.35 13.05 15.25 13.45 14.7 16.3 10.55 M21.3 21.2 L21.3 21.1" fill="none" stroke="#000000" stroke-linecap="round" stroke-linejoin="round" stroke-opacity="0.3019608" stroke-width="0.5"/>
      <path d="M18.95 13.65 L17.9 13.3 M24.85 8.8 L22.15 7.65 M26.7 10.6 L26.95 9.1 26.95 8.35 M23.95 11.3 L23.65 11.35 Q22.8 12.7 21.75 13.3 L21.75 14.15 21.75 14.45 M26.45 11.1 L26.2 10.7 24.95 8.8 24.85 8.8 M20.8 13.7 L18.95 13.65 M20.8 13.7 L21.75 13.3 M18.2 24.6 L18.7 24.0 M19.25 23.35 L18.7 24.0 M18.2 24.6 Q16.55 26.8 16.0 29.5 L15.85 30.0 15.8 30.7 15.75 31.25 Q15.6 32.0 15.7 32.8 M26.7 11.8 L26.7 11.85 26.7 12.1 M26.7 11.8 L26.7 11.55 26.45 11.1 M26.7 10.6 L26.7 11.55 M15.6 32.85 L15.7 32.8" fill="none" stroke="#000000" stroke-linecap="round" stroke-linejoin="round" stroke-opacity="0.3019608" stroke-width="0.05"/>
    </g>
    <g id="sprite0" transform="matrix(1.0, 0.0, 0.0, 1.0, 0.0, 0.0)">
      <use height="20.95" transform="matrix(1.0, 0.0, 0.0, 1.0, 0.0, 0.0)" width="24.45" xlink:href="#shape1"/>
    </g>
    <g id="shape1" transform="matrix(1.0, 0.0, 0.0, 1.0, 0.0, 0.0)">
      <path d="M14.85 11.4 Q15.8 11.6 16.25 12.45 16.85 13.3 16.6 14.35 16.4 15.3 15.55 15.9 14.65 16.4 13.65 16.2 12.65 15.9 12.1 15.1 11.6 14.2 11.8 13.2 12.1 12.2 12.9 11.65 13.8 11.15 14.85 11.4" fill="#ffffff" fill-opacity="0.5882353" fill-rule="evenodd" stroke="none"/>
      <path d="M14.85 11.4 Q13.8 11.15 12.9 11.65 12.1 12.2 11.8 13.2 11.6 14.2 12.1 15.1 12.65 15.9 13.65 16.2 14.65 16.4 15.55 15.9 16.4 15.3 16.6 14.35 16.85 13.3 16.25 12.45 15.8 11.6 14.85 11.4 M18.2 11.35 L20.15 11.25 18.75 12.55 Q19.05 13.8 18.8 15.05 18.5 16.35 17.65 17.3 L19.1 20.95 16.55 18.25 Q14.8 19.3 12.8 18.85 10.8 18.35 9.75 16.65 9.05 15.5 8.95 14.3 7.75 12.35 4.85 11.5 8.3 12.45 9.7 11.4 10.3 10.4 11.35 9.75 13.1 8.75 15.1 9.15 16.95 9.5 18.1 11.15 L18.2 11.35" fill="#ffffff" fill-opacity="0.1764706" fill-rule="evenodd" stroke="none"/>
      <path d="M15.4 13.55 L18.1 17.55 13.35 14.65 7.05 18.5 12.75 13.55 0.0 0.0 14.25 12.25 24.45 5.95 15.4 13.55" fill="#ffffff" fill-opacity="0.5882353" fill-rule="evenodd" stroke="none"/>
    </g>
  </defs>
</svg>
