<?xml version="1.0" encoding="UTF-8" standalone="no"?>
<svg xmlns:xlink="http://www.w3.org/1999/xlink" height="440.0px" width="440.0px" xmlns="http://www.w3.org/2000/svg">
  <g transform="matrix(10.0, 0.0, 0.0, 10.0, 0.0, 0.0)">
    <use height="44.0" transform="matrix(1.0, 0.0, 0.0, 1.0, 0.0, 0.0)" width="44.0" xlink:href="#shape0"/>
    <use height="20.95" transform="matrix(-0.0905, 0.7794, -0.863, -0.0492, 29.85, 16.5)" width="24.45" xlink:href="#sprite0"/>
    <use height="20.95" transform="matrix(-0.6345, -0.0737, 0.04, -0.7025, 33.45, 17.3)" width="24.45" xlink:href="#sprite0"/>
  </g>
  <defs>
    <g id="shape0" transform="matrix(1.0, 0.0, 0.0, 1.0, 0.0, 0.0)">
      <path d="M44.0 44.0 L0.0 44.0 0.0 0.0 44.0 0.0 44.0 44.0" fill="#43adca" fill-opacity="0.0" fill-rule="evenodd" stroke="none"/>
      <path d="M31.75 12.5 L34.05 12.6 34.05 12.65 31.2 13.5 31.75 12.5 M42.5 20.55 L42.5 23.75 Q41.45 23.35 39.6 26.35 L39.05 28.1 39.0 28.1 39.05 27.85 38.8 25.75 Q38.05 22.75 36.7 21.75 L35.8 22.1 35.9 17.65 36.75 19.6 39.45 24.15 39.5 24.15 Q41.3 23.95 42.5 20.55 M5.2 17.15 L8.55 13.45 6.75 17.55 5.2 17.15 M32.25 18.65 L29.25 17.55 27.05 16.65 30.15 14.5 32.25 18.65 M21.4 37.75 L21.9 37.7 23.7 37.45 Q26.65 36.7 29.15 34.7 L31.15 32.85 Q30.65 34.55 29.7 35.65 L29.6 35.7 29.1 36.2 Q26.05 38.75 19.75 40.15 20.5 38.8 21.4 37.75 M9.95 34.15 L9.0 31.45 8.4 29.6 8.45 29.5 12.15 32.75 13.95 35.6 15.05 37.3 10.35 35.25 9.95 34.15" fill="#ebebd8" fill-rule="evenodd" stroke="none"/>
      <path d="M30.95 2.6 L32.0 3.95 Q30.85 7.65 28.3 7.65 L27.3 6.3 Q30.25 6.35 30.95 2.6 M25.2 14.4 L27.3 14.2 27.7 14.05 27.0 14.35 Q25.9 14.8 25.3 15.4 24.3 16.35 24.3 17.7 L21.5 18.15 21.45 18.15 25.2 14.4" fill="#88845e" fill-rule="evenodd" stroke="none"/>
      <path d="M23.85 4.5 L26.4 1.85 Q28.2 0.7 30.65 2.4 L30.95 2.6 Q30.25 6.35 27.3 6.3 L27.05 6.05 26.4 5.75 Q24.7 4.3 23.85 4.5 M27.7 14.05 Q29.75 13.6 31.75 12.5 L31.2 13.5 30.15 14.5 27.05 16.65 24.85 17.55 24.3 17.7 Q24.3 16.35 25.3 15.4 25.9 14.8 27.0 14.35 L27.7 14.05 M37.0 16.5 L37.75 15.75 39.6 15.75 Q41.45 17.3 42.5 20.55 41.3 23.95 39.5 24.15 L39.45 24.15 36.75 19.6 35.9 17.65 37.0 16.5 M1.2 25.4 L3.3 23.3 3.35 26.6 1.2 25.4 M23.7 37.45 Q22.05 36.55 20.65 35.65 24.05 35.95 25.25 32.6 L25.25 30.5 26.2 29.0 Q27.85 28.1 29.15 28.7 30.45 29.35 31.45 31.45 L31.15 32.85 29.15 34.7 Q26.65 36.7 23.7 37.45" fill="#a2a077" fill-rule="evenodd" stroke="none"/>
      <path d="M24.6 8.4 L24.2 7.55 23.7 6.9 26.4 5.75 27.05 6.05 27.3 6.3 28.3 7.65 28.65 9.65 28.6 11.65 28.35 11.9 27.95 12.3 Q26.65 13.55 25.3 13.55 L25.2 13.55 Q23.9 14.3 23.1 15.1 21.35 16.55 19.65 16.2 15.6 15.85 12.2 16.9 9.55 17.75 7.3 19.45 9.75 16.85 12.75 15.1 L12.8 15.1 Q16.15 13.85 17.7 14.5 L22.2 11.9 22.25 11.9 24.2 11.7 Q25.6 10.8 24.6 8.4" fill="#e9e8d1" fill-rule="evenodd" stroke="none"/>
      <path d="M8.55 13.45 L9.6 12.45 10.4 13.0 10.4 16.35 Q16.2 9.85 24.6 8.4 25.6 10.8 24.2 11.7 L22.25 11.9 22.2 11.9 22.0 11.95 16.5 12.2 12.8 15.1 12.75 15.1 Q9.75 16.85 7.3 19.45 L7.1 19.7 6.95 19.75 6.75 17.55 8.55 13.45 M32.0 3.95 Q32.9 5.6 32.25 7.95 L28.6 11.65 28.65 9.65 28.3 7.65 Q30.85 7.65 32.0 3.95 M25.3 13.55 L25.2 14.4 21.45 18.15 Q21.45 16.65 23.1 15.1 23.9 14.3 25.2 13.55 L25.3 13.55 M34.05 12.65 L34.85 13.55 34.9 13.55 35.4 14.2 36.7 16.05 33.05 19.75 32.3 18.7 32.25 18.65 30.15 14.5 31.2 13.5 34.05 12.65 M42.5 23.75 L42.5 25.2 42.3 26.0 42.15 26.85 41.25 29.55 35.45 35.35 36.1 34.6 37.05 33.25 37.6 32.35 40.8 27.25 38.35 30.6 38.9 28.5 39.0 28.1 39.05 28.1 39.6 26.35 Q41.45 23.35 42.5 23.75 M9.9 25.1 L10.25 26.55 11.1 28.5 11.9 29.75 12.35 30.4 13.6 31.95 14.05 32.4 14.95 33.35 15.4 33.75 13.95 35.6 12.15 32.75 8.45 29.5 8.4 29.6 8.3 29.4 8.0 28.6 7.7 27.35 9.9 25.1 M26.2 29.0 Q27.6 27.2 29.15 27.45 30.4 27.65 31.75 29.15 L31.55 30.25 31.45 31.45 Q30.45 29.35 29.15 28.7 27.85 28.1 26.2 29.0 M19.75 25.4 Q20.3 23.4 21.2 22.4 L21.8 21.9 Q22.15 21.6 22.55 21.45 L22.7 21.45 23.95 21.25 19.75 25.4" fill="#616044" fill-rule="evenodd" stroke="none"/>
      <path d="M8.85 36.25 L7.05 34.7 9.0 31.45 9.95 34.15 8.85 36.25 M29.25 17.55 Q27.35 19.05 25.6 20.7 L25.0 21.15 24.85 21.3 24.6 21.25 23.95 21.25 22.7 21.45 22.55 21.45 Q22.15 21.6 21.8 21.9 L21.2 22.4 Q20.3 23.4 19.75 25.4 19.4 23.8 18.85 22.65 L17.9 21.15 Q19.2 19.95 20.65 18.8 19.55 15.75 12.2 16.9 15.6 15.85 19.65 16.2 21.35 16.55 23.1 15.1 21.45 16.65 21.45 18.15 L21.5 18.15 24.3 17.7 24.85 17.55 27.05 16.65 29.25 17.55" fill="#f3f2e9" fill-rule="evenodd" stroke="none"/>
      <path d="M15.9 41.1 L12.15 38.7 8.85 36.25 9.95 34.15 10.35 35.25 15.05 37.3 15.25 37.45 16.85 38.5 15.9 41.1 M35.8 22.1 L36.7 21.75 Q38.05 22.75 38.8 25.75 L39.05 27.85 39.0 28.1 38.9 28.5 38.35 30.6 36.3 29.95 35.55 26.85 Q34.6 24.05 32.85 22.3 31.35 20.7 29.2 19.9 L27.15 22.1 Q26.0 21.45 24.85 21.3 L25.0 21.15 25.6 20.7 Q27.35 19.05 29.25 17.55 L32.25 18.65 32.3 18.7 33.05 19.75 Q35.0 22.8 36.2 26.6 36.5 25.0 35.8 22.1 M35.9 30.8 L37.6 32.35 37.05 33.25 36.1 34.6 35.45 35.35 35.15 35.7 34.95 35.9 34.85 36.0 33.7 36.95 32.3 38.0 Q33.55 37.05 34.35 35.7 35.55 33.75 35.9 30.8" fill="#99996a" fill-rule="evenodd" stroke="none"/>
      <path d="M24.85 21.3 Q26.0 21.45 27.15 22.1 L28.25 22.9 26.65 22.65 Q24.6 22.65 22.35 23.8 21.05 24.4 19.75 25.4 L23.95 21.25 24.6 21.25 24.85 21.3 M31.5 27.2 L31.5 27.35 31.6 27.85 31.75 29.15 Q30.4 27.65 29.15 27.45 27.6 27.2 26.2 29.0 L25.25 30.5 25.25 32.6 Q24.05 35.95 20.65 35.65 22.05 36.55 23.7 37.45 L21.9 37.7 21.4 37.75 18.1 35.7 17.95 35.6 15.9 34.15 15.4 33.75 14.95 33.35 14.05 32.4 13.6 31.95 12.35 30.4 11.9 29.75 11.1 28.5 10.25 26.55 9.9 25.1 9.85 24.7 Q9.65 22.75 10.2 20.6 L10.3 20.3 10.5 19.8 10.6 19.45 Q12.05 18.75 13.55 18.95 L12.95 19.15 12.8 19.45 12.65 19.95 12.55 20.3 Q11.95 22.45 12.2 24.4 L12.6 26.25 12.75 26.5 13.7 28.55 14.2 29.4 15.7 31.4 15.95 31.8 16.35 32.3 17.7 33.4 19.0 33.85 19.35 33.95 20.3 34.0 Q21.45 33.9 22.35 33.15 23.6 32.05 23.6 30.3 23.6 28.95 22.8 27.7 L22.35 27.15 22.15 26.85 20.85 25.95 Q22.3 26.1 23.3 26.9 24.05 27.55 24.6 28.55 26.2 25.1 30.5 25.1 L31.35 26.85 31.5 27.2" fill="#7d7957" fill-rule="evenodd" stroke="none"/>
      <path d="M19.75 25.4 Q21.05 24.4 22.35 23.8 24.6 22.65 26.65 22.65 L28.25 22.9 Q29.4 23.75 30.5 25.1 26.2 25.1 24.6 28.55 24.05 27.55 23.3 26.9 22.3 26.1 20.85 25.95 L20.55 25.8 19.35 25.45 Q17.6 25.15 16.35 26.3 15.1 27.35 15.1 29.05 L15.15 29.55 15.4 30.7 15.7 31.4 14.2 29.4 13.7 28.55 12.75 26.5 12.6 26.25 12.2 24.4 Q11.95 22.45 12.55 20.3 L12.65 19.95 12.8 19.45 12.95 19.15 13.55 18.95 Q15.25 19.05 17.05 20.3 L17.9 21.15 18.85 22.65 Q19.4 23.8 19.75 25.4" fill="#aca886" fill-rule="evenodd" stroke="none"/>
      <path d="M7.05 34.7 L4.05 31.75 1.2 25.4 3.35 26.6 3.3 23.3 Q3.45 19.65 5.2 17.15 L6.75 17.55 6.95 19.75 7.1 19.7 7.3 19.45 Q9.55 17.75 12.2 16.9 19.55 15.75 20.65 18.8 19.2 19.95 17.9 21.15 L17.05 20.3 Q15.25 19.05 13.55 18.95 12.05 18.75 10.6 19.45 9.8 19.85 9.1 20.4 L8.4 21.55 8.05 22.35 8.0 22.45 8.0 22.55 8.0 22.65 Q7.35 25.15 7.7 27.35 L8.0 28.6 8.3 29.4 8.4 29.6 9.0 31.45 7.05 34.7 M27.15 22.1 L29.2 19.9 Q31.35 20.7 32.85 22.3 30.5 22.4 31.4 26.85 L31.5 27.2 31.35 26.85 30.5 25.1 Q29.4 23.75 28.25 22.9 L27.15 22.1" fill="#d8d8af" fill-rule="evenodd" stroke="none"/>
      <path d="M10.6 19.45 L10.5 19.8 10.3 20.3 10.2 20.6 Q9.65 22.75 9.85 24.7 L9.9 25.1 7.7 27.35 Q7.35 25.15 8.0 22.65 L8.0 22.55 8.0 22.45 8.05 22.35 8.4 21.55 9.1 20.4 Q9.8 19.85 10.6 19.45" fill="#323023" fill-rule="evenodd" stroke="none"/>
      <path d="M23.7 6.9 L23.85 4.5 Q24.7 4.3 26.4 5.75 L23.7 6.9 M12.8 15.1 L16.5 12.2 22.0 11.95 22.2 11.9 17.7 14.5 Q16.15 13.85 12.8 15.1" fill="#ffffff" fill-rule="evenodd" stroke="none"/>
      <path d="M24.55 42.4 L19.15 42.8 15.9 41.1 16.85 38.5 19.75 40.15 Q26.05 38.75 29.1 36.2 L29.6 35.7 29.7 35.65 Q30.65 34.55 31.15 32.85 L31.45 31.45 31.55 30.25 31.75 29.15 31.6 27.85 31.5 27.35 31.5 27.2 31.4 26.85 Q30.5 22.4 32.85 22.3 34.6 24.05 35.55 26.85 L36.3 29.95 34.25 29.3 35.9 30.8 Q35.55 33.75 34.35 35.7 33.55 37.05 32.3 38.0 L32.25 38.1 32.15 38.1 32.0 38.2 Q31.9 38.2 31.85 38.3 28.25 40.8 24.55 42.4 M21.45 18.15 L21.5 18.15 21.45 18.15" fill="#cccc99" fill-rule="evenodd" stroke="none"/>
      <path d="M20.85 25.95 L22.15 26.85 Q21.8 30.05 20.05 31.05 L16.7 30.85 16.55 30.75 16.6 30.9 Q16.85 32.8 19.15 33.65 L20.3 34.0 19.35 33.95 19.0 33.85 17.7 33.4 16.35 32.3 15.95 31.8 15.7 31.4 15.4 30.7 15.15 29.55 15.1 29.05 Q15.1 27.35 16.35 26.3 17.6 25.15 19.35 25.45 L20.55 25.8 20.85 25.95 M16.25 27.75 Q15.85 29.2 17.65 29.4 L18.0 29.4 18.1 28.75 Q18.35 27.7 19.35 27.2 L20.9 26.7 20.1 26.3 Q17.85 25.2 16.25 27.75" fill="#9e0303" fill-rule="evenodd" stroke="none"/>
      <path d="M22.15 26.85 L22.35 27.15 22.8 27.7 Q23.6 28.95 23.6 30.3 23.6 32.05 22.35 33.15 21.45 33.9 20.3 34.0 L19.15 33.65 Q16.85 32.8 16.6 30.9 L16.55 30.75 16.7 30.85 20.05 31.05 Q21.8 30.05 22.15 26.85 M19.35 33.25 L20.55 33.45 Q22.1 33.0 22.75 31.55 23.05 29.3 22.3 30.15 21.6 31.95 19.75 32.45 L18.85 32.65 Q18.85 32.95 19.35 33.25" fill="#430101" fill-rule="evenodd" stroke="none"/>
      <path d="M16.25 27.75 Q17.85 25.2 20.1 26.3 L20.9 26.7 19.35 27.2 Q18.35 27.7 18.1 28.75 L18.0 29.4 17.65 29.4 Q15.85 29.2 16.25 27.75" fill="#f00606" fill-rule="evenodd" stroke="none"/>
      <path d="M15.4 33.75 L15.9 34.15 17.95 35.6 18.1 35.7 21.4 37.75 Q20.5 38.8 19.75 40.15 L16.85 38.5 15.25 37.45 15.05 37.3 13.95 35.6 15.4 33.75" fill="#727152" fill-rule="evenodd" stroke="none"/>
      <path d="M36.7 16.05 L37.0 16.5 35.9 17.65 35.8 22.1 Q36.5 25.0 36.2 26.6 35.0 22.8 33.05 19.75 L36.7 16.05 M41.25 29.55 Q39.85 33.2 37.5 35.7 35.5 37.9 32.75 39.3 L27.95 41.3 25.1 42.3 24.55 42.4 Q28.25 40.8 31.85 38.3 31.9 38.2 32.0 38.2 L32.15 38.1 32.25 38.1 32.3 38.0 33.7 36.95 34.85 36.0 34.95 35.9 35.15 35.7 35.45 35.35 41.25 29.55 M36.3 29.95 L38.35 30.6 40.8 27.25 37.6 32.35 35.9 30.8 34.25 29.3 36.3 29.95" fill="#413f2e" fill-rule="evenodd" stroke="none"/>
      <path d="M19.35 33.25 Q18.85 32.95 18.85 32.65 L19.75 32.45 Q21.6 31.95 22.3 30.15 23.05 29.3 22.75 31.55 22.1 33.0 20.55 33.45 L19.35 33.25" fill="#3c0000" fill-rule="evenodd" stroke="none"/>
      <path d="M8.55 13.45 L9.6 12.45 10.4 13.0 10.4 16.35 Q16.2 9.85 24.6 8.4 L24.2 7.55 23.7 6.9 23.85 4.5 26.4 1.85 Q28.2 0.7 30.65 2.4 L30.95 2.6 32.0 3.95 Q32.9 5.6 32.25 7.95 L28.6 11.65 28.35 11.9 27.95 12.3 Q26.65 13.55 25.3 13.55 L25.2 14.4 27.3 14.2 27.7 14.05 Q29.75 13.6 31.75 12.5 L34.05 12.6 34.05 12.65 34.85 13.55 M34.9 13.55 L35.4 14.2 36.7 16.05 37.0 16.5 37.75 15.75 39.6 15.75 Q41.45 17.3 42.5 20.55 L42.5 23.75 42.5 25.2 42.3 26.0 42.15 26.85 41.25 29.55 Q39.85 33.2 37.5 35.7 35.5 37.9 32.75 39.3 L27.95 41.3 25.1 42.3 24.55 42.4 19.15 42.8 15.9 41.1 12.15 38.7 8.85 36.25 7.05 34.7 4.05 31.75 1.2 25.4 3.3 23.3 Q3.45 19.65 5.2 17.15 L8.55 13.45" fill="none" stroke="#000000" stroke-linecap="round" stroke-linejoin="round" stroke-opacity="0.3019608" stroke-width="0.5"/>
      <path d="M24.85 21.3 Q26.0 21.45 27.15 22.1 M28.25 22.9 L27.15 22.1 M31.75 29.15 L31.6 27.85 31.5 27.35 31.5 27.2 31.35 26.85 30.5 25.1 M20.85 25.95 L22.15 26.85 22.35 27.15 22.8 27.7 Q23.6 28.95 23.6 30.3 23.6 32.05 22.35 33.15 21.45 33.9 20.3 34.0 L19.35 33.95 19.0 33.85 17.7 33.4 16.35 32.3 15.95 31.8 15.7 31.4 15.4 30.7 15.15 29.55 15.1 29.05 Q15.1 27.35 16.35 26.3 17.6 25.15 19.35 25.45 L20.55 25.8 20.85 25.95 M13.55 18.95 Q12.05 18.75 10.6 19.45 L10.5 19.8 10.3 20.3 10.2 20.6 Q9.65 22.75 9.85 24.7 L9.9 25.1 10.25 26.55 11.1 28.5 11.9 29.75 12.35 30.4 13.6 31.95 14.05 32.4 14.95 33.35 15.4 33.75 15.9 34.15 17.95 35.6 18.1 35.7 21.4 37.75 21.9 37.7 23.7 37.45 Q26.65 36.7 29.15 34.7 L31.15 32.85 M31.75 29.15 L31.55 30.25 31.45 31.45 31.15 32.85 M28.25 22.9 Q29.4 23.75 30.5 25.1 M17.9 21.15 L18.85 22.65 Q19.4 23.8 19.75 25.4 M23.95 21.25 L24.6 21.25 24.85 21.3 M13.55 18.95 Q15.25 19.05 17.05 20.3 L17.9 21.15 M23.95 21.25 L19.75 25.4" fill="none" stroke="#000000" stroke-linecap="round" stroke-linejoin="round" stroke-opacity="0.3019608" stroke-width="0.05"/>
    </g>
    <g id="sprite0" transform="matrix(1.0, 0.0, 0.0, 1.0, 0.0, 0.0)">
      <use height="20.95" transform="matrix(1.0, 0.0, 0.0, 1.0, 0.0, 0.0)" width="24.45" xlink:href="#shape1"/>
    </g>
    <g id="shape1" transform="matrix(1.0, 0.0, 0.0, 1.0, 0.0, 0.0)">
      <path d="M14.85 11.4 Q15.8 11.6 16.25 12.45 16.85 13.3 16.6 14.35 16.4 15.3 15.55 15.9 14.65 16.4 13.65 16.2 12.65 15.9 12.1 15.1 11.6 14.2 11.8 13.2 12.1 12.2 12.9 11.65 13.8 11.15 14.85 11.4" fill="#ffffff" fill-opacity="0.5882353" fill-rule="evenodd" stroke="none"/>
      <path d="M14.85 11.4 Q13.8 11.15 12.9 11.65 12.1 12.2 11.8 13.2 11.6 14.2 12.1 15.1 12.65 15.9 13.65 16.2 14.65 16.4 15.55 15.9 16.4 15.3 16.6 14.35 16.85 13.3 16.25 12.45 15.8 11.6 14.85 11.4 M18.2 11.35 L20.15 11.25 18.75 12.55 Q19.05 13.8 18.8 15.05 18.5 16.35 17.65 17.3 L19.1 20.95 16.55 18.25 Q14.8 19.3 12.8 18.85 10.8 18.35 9.75 16.65 9.05 15.5 8.95 14.3 7.75 12.35 4.85 11.5 8.3 12.45 9.7 11.4 10.3 10.4 11.35 9.75 13.1 8.75 15.1 9.15 16.95 9.5 18.1 11.15 L18.2 11.35" fill="#ffffff" fill-opacity="0.1764706" fill-rule="evenodd" stroke="none"/>
      <path d="M15.4 13.55 L18.1 17.55 13.35 14.65 7.05 18.5 12.75 13.55 0.0 0.0 14.25 12.25 24.45 5.95 15.4 13.55" fill="#ffffff" fill-opacity="0.5882353" fill-rule="evenodd" stroke="none"/>
    </g>
  </defs>
</svg>
