<?xml version="1.0" encoding="UTF-8" standalone="no"?>
<svg xmlns:xlink="http://www.w3.org/1999/xlink" height="440.0px" width="440.0px" xmlns="http://www.w3.org/2000/svg">
  <g transform="matrix(10.0, 0.0, 0.0, 10.0, 0.0, 0.0)">
    <use height="44.0" transform="matrix(1.0, 0.0, 0.0, 1.0, 0.0, 0.0)" width="44.0" xlink:href="#shape0"/>
    <use height="20.95" transform="matrix(0.5514, 0.0688, 0.1249, -0.5098, 11.1, 12.75)" width="24.45" xlink:href="#sprite0"/>
    <use height="20.95" transform="matrix(0.0643, 0.4695, 0.613, -0.0296, 23.2, 31.75)" width="24.45" xlink:href="#sprite0"/>
  </g>
  <defs>
    <g id="shape0" transform="matrix(1.0, 0.0, 0.0, 1.0, 0.0, 0.0)">
      <path d="M44.0 44.0 L0.0 44.0 0.0 0.0 44.0 0.0 44.0 44.0" fill="#43adca" fill-opacity="0.0" fill-rule="evenodd" stroke="none"/>
      <path d="M17.7 12.15 L17.65 11.6 Q17.65 9.05 19.95 7.6 21.95 6.2 24.8 6.2 25.7 6.2 25.95 6.5 L25.95 6.8" fill="none" stroke="#00ff00" stroke-linecap="round" stroke-linejoin="round" stroke-width="0.05"/>
      <path d="M11.7 6.85 Q10.6 6.85 9.85 7.5 L13.55 4.25 Q14.65 3.65 16.35 3.95 L18.1 5.0 Q17.8 6.55 16.1 7.45 L14.7 7.9 16.35 9.9 14.75 10.35 13.95 10.7 13.85 10.4 Q12.8 9.75 12.05 9.75 11.0 9.75 10.4 10.75 10.2 11.6 10.65 12.65 9.85 13.3 9.75 14.0 L9.75 14.45 9.35 14.1 8.9 13.55 8.9 13.3 Q8.9 11.85 11.05 9.85 12.6 8.35 14.45 7.75 L13.95 7.4 16.1 5.15 11.75 6.85 11.7 6.85 M20.25 4.6 L23.45 1.8 23.55 1.75 Q25.3 1.05 27.05 2.5 26.6 4.7 23.7 5.3 L23.15 4.95 24.85 2.55 21.6 4.35 21.15 4.35 20.25 4.6 M31.8 5.85 L32.6 5.9 32.75 5.95 Q33.65 6.1 34.3 6.4 33.9 7.8 32.3 8.7 L31.0 9.25 Q30.3 8.95 29.4 8.8 L28.4 8.7 31.8 5.85 M33.45 15.45 Q36.05 15.35 37.65 16.55 L37.85 16.7 37.9 16.8 Q37.85 17.95 36.4 18.7 L35.05 19.2 34.75 19.0 32.65 18.1 31.7 17.75 31.0 17.6 33.45 15.45 M7.25 28.8 L7.25 28.75 Q8.3 27.7 10.05 26.75 L9.6 27.6 9.45 28.4 Q8.55 28.65 8.0 29.0 L7.25 28.8 M17.6 11.7 L17.65 11.45 Q17.65 9.35 20.15 7.7 L20.4 7.55 Q22.65 6.2 24.15 6.2 L24.7 6.3 25.05 6.75 25.15 7.05 25.45 7.85 25.55 8.7 25.55 9.0 25.5 8.8 25.25 8.5 25.25 8.4 25.15 8.3 Q24.75 7.8 23.8 7.8 L22.55 8.05 Q21.95 7.5 21.05 7.65 L20.25 7.85 20.25 7.9 19.55 8.8 19.35 9.85 17.6 11.7 M29.8 14.4 L28.85 15.35 27.1 15.8 25.45 16.85 24.95 17.0 21.65 17.65 21.3 17.65 22.9 16.3 24.85 16.15 26.55 15.65 28.8 14.85 29.8 14.4 M9.15 20.85 L10.8 19.45 13.45 19.25 16.85 18.15 16.85 18.6 16.15 19.05 13.45 19.7 11.65 20.7 9.15 20.85 M26.6 20.45 Q27.9 19.5 28.95 18.95 L29.05 18.95 31.6 18.35 34.75 19.0 33.65 19.3 Q32.5 19.65 31.4 20.15 L31.2 20.15 29.6 20.0 29.3 20.05 26.6 20.45 M17.45 26.5 L17.9 26.15 17.9 26.25 17.0 26.95 16.85 27.05 16.55 27.3 16.1 27.65 14.95 28.6 14.95 28.65 14.8 28.7 13.9 29.35 11.65 30.4 Q10.5 30.2 9.9 29.55 10.2 28.2 11.85 28.2 12.4 28.65 13.35 28.9 14.0 28.75 15.65 27.75 L16.7 27.05 17.45 26.5 M20.1 27.05 L19.9 26.35 19.65 25.85 19.45 25.3 19.0 24.2 19.3 24.2 21.4 24.4 22.1 26.55 22.2 26.85 22.25 27.05 22.45 27.9 20.2 27.3 20.1 27.05 M18.15 30.2 L18.35 30.3 Q19.2 31.5 20.55 31.5 L20.45 32.55 19.75 33.0 18.35 32.65 16.85 32.25 16.5 31.85 16.35 31.7 Q16.9 29.7 18.15 30.2 M28.05 29.05 L28.8 29.6 29.8 30.05 29.5 31.2 28.45 31.45 Q27.5 31.45 26.45 30.5 L28.05 29.05 M27.75 23.15 L28.6 22.45 29.3 22.7 30.9 23.1 33.45 23.15 32.75 24.2 Q31.8 24.85 30.15 24.7 L30.0 24.7 27.75 23.15 M23.4 23.5 L23.8 25.5 Q22.9 26.85 22.9 28.3 L23.0 29.0 22.25 27.05 22.25 26.75 Q22.25 25.7 22.5 25.1 L22.75 24.5 23.4 23.5" fill="#fdb914" fill-rule="evenodd" stroke="none"/>
      <path d="M11.7 6.85 L11.75 6.85 16.1 5.15 11.7 8.05 11.7 6.85 M8.9 13.55 L9.35 14.1 9.75 14.45 9.95 14.7 9.9 14.7 9.8 14.65 7.55 14.45 Q6.65 14.65 5.95 15.15 L8.55 13.0 8.9 13.55 M27.05 2.5 L27.9 3.2 Q28.6 4.05 28.85 5.05 27.65 7.4 25.45 7.85 L25.15 7.05 25.05 6.75 24.7 6.3 24.45 6.05 23.7 5.3 Q26.6 4.7 27.05 2.5 M31.8 15.65 L33.45 15.45 31.0 17.6 29.5 17.4 31.35 16.05 31.55 15.8 Q31.65 15.75 31.8 15.65 M34.55 25.35 Q35.0 26.45 34.8 27.7 34.55 29.1 33.95 30.0 L33.8 30.25 31.15 32.5 31.65 31.35 31.9 30.75 32.75 29.05 31.55 27.45 31.4 27.2 30.25 25.95 30.9 26.2 Q33.0 26.6 34.55 25.35 M10.4 24.95 L12.1 23.2 17.75 21.8 10.4 24.95 M27.6 28.5 L28.05 29.05 26.45 30.5 26.4 30.5 25.9 29.85 24.55 27.6 26.3 26.25 26.6 26.9 27.6 28.5" fill="#d89500" fill-rule="evenodd" stroke="none"/>
      <path d="M10.65 12.65 Q10.2 11.6 10.4 10.75 11.0 9.75 12.05 9.75 12.0 10.55 12.4 11.5 L13.35 13.05 14.35 14.75 13.45 15.45 11.7 14.45 11.65 14.45 10.65 12.65 M28.85 5.05 L28.8 7.2 25.35 10.05 25.55 9.0 25.55 8.7 25.45 7.85 Q27.65 7.4 28.85 5.05 M34.3 6.4 Q36.15 7.25 36.3 9.25 34.55 8.2 33.0 11.95 L32.95 12.15 32.9 11.5 32.75 11.15 Q32.3 9.9 31.0 9.25 L32.3 8.7 Q33.9 7.8 34.3 6.4 M37.9 16.8 Q38.7 17.65 39.0 18.6 L39.05 18.7 39.1 19.1 Q37.9 18.95 36.2 21.5 36.05 20.35 35.05 19.2 L36.4 18.7 Q37.85 17.95 37.9 16.8 M24.35 32.8 L21.6 35.15 22.4 33.65 Q23.15 31.4 22.45 27.9 L22.25 27.05 23.0 29.0 23.95 30.9 24.95 32.2 24.8 32.4 24.35 32.8 M8.3 29.75 L7.25 28.8 8.0 29.0 8.95 29.3 8.3 29.75 M21.6 4.35 L24.85 2.55 21.6 6.05 21.6 4.35 M19.35 9.85 L19.55 8.8 20.25 7.9 20.25 7.85 21.05 7.65 Q20.9 8.2 20.9 8.8 L20.85 9.35 20.85 10.15 21.15 12.2 21.6 13.45 22.4 15.35 22.45 15.45 22.85 16.3 22.9 16.3 21.3 17.65 20.45 15.95 20.45 13.1 19.35 10.4 19.35 9.85 M8.25 20.6 L8.15 19.15 6.45 20.3 6.45 19.15 Q6.2 18.55 6.65 17.65 7.25 16.6 8.4 16.15 L8.3 16.25 Q7.4 18.35 9.9 19.2 L10.8 19.45 9.15 20.85 8.25 20.6 M23.4 23.5 L23.3 22.05 24.55 21.25 24.9 21.05 25.0 21.7 25.35 23.7 26.3 26.25 24.55 27.6 23.8 25.5 23.4 23.5 M11.85 28.2 Q10.2 28.2 9.9 29.55 L9.45 28.4 9.6 27.6 10.05 26.75 Q10.6 26.2 11.6 25.55 L11.35 26.1 11.35 26.25 Q11.2 27.15 11.6 27.85 L11.85 28.2 M17.0 26.95 L17.9 26.25 17.8 26.55 17.75 27.1 Q17.55 29.1 18.15 30.2 16.9 29.7 16.35 31.7 15.75 30.75 15.95 29.05 L17.0 26.95" fill="#ba8201" fill-rule="evenodd" stroke="none"/>
      <path d="M9.75 14.45 L9.75 14.0 Q9.85 13.3 10.65 12.65 L11.65 14.45 11.7 14.45 10.8 15.8 8.4 16.15 Q7.25 16.6 6.65 17.65 6.2 18.55 6.45 19.15 L6.45 20.3 8.25 20.6 9.15 20.85 11.65 20.7 14.45 20.35 14.55 20.35 16.15 19.05 16.85 18.6 16.85 18.15 16.65 16.75 16.6 16.45 16.1 14.45 15.7 13.6 14.95 12.25 13.95 10.7 14.75 10.35 16.35 9.9 Q17.2 11.35 17.9 13.5 L17.6 12.2 17.55 11.95 17.6 11.7 19.35 9.85 19.35 10.4 18.75 13.15 20.45 15.95 21.3 17.65 21.65 17.65 24.95 17.0 25.45 16.85 27.5 16.6 28.85 15.35 29.8 14.4 Q30.25 13.45 30.1 11.95 29.6 11.2 28.7 10.9 L28.4 10.85 Q27.7 10.7 26.9 10.85 L26.6 10.85 26.25 10.9 25.45 11.55 24.45 12.65 24.35 11.35 24.0 9.95 23.45 8.85 22.65 8.1 22.55 8.05 23.8 7.8 Q24.75 7.8 25.15 8.3 L25.25 8.4 25.25 8.5 25.5 8.8 25.55 9.0 25.35 10.05 25.25 10.5 25.9 9.85 Q26.55 9.3 27.2 9.0 L28.4 8.7 29.4 8.8 Q30.3 8.95 31.0 9.25 32.3 9.9 32.75 11.15 L32.9 11.5 32.95 12.15 32.9 13.6 32.35 14.85 31.7 15.65 31.55 15.8 31.35 16.05 29.5 17.4 27.1 18.45 22.4 19.65 21.15 19.9 20.25 19.95 19.95 19.25 Q18.95 17.1 18.4 15.2 L19.0 18.4 19.05 18.8 19.25 19.85 Q14.8 21.95 11.6 22.55 7.4 23.3 5.15 21.45 2.45 18.45 5.6 15.5 L5.7 15.35 5.95 15.15 Q6.65 14.65 7.55 14.45 L9.8 14.65 9.9 14.7 9.95 14.7 9.75 14.45 M34.75 25.1 L34.65 25.2 34.55 25.35 Q33.0 26.6 30.9 26.2 L30.25 25.95 31.4 27.2 31.55 27.45 31.5 29.65 31.9 30.75 31.65 31.35 31.15 32.5 30.2 33.45 29.85 33.6 28.4 33.9 27.35 33.85 28.65 36.9 32.6 38.5 29.4 41.25 Q25.4 37.45 24.35 32.8 L24.8 32.4 24.95 32.2 23.95 30.9 23.0 29.0 22.9 28.3 Q22.9 26.85 23.8 25.5 L24.55 27.6 25.9 29.85 26.4 30.5 26.45 30.5 Q27.5 31.45 28.45 31.45 L29.5 31.2 29.8 30.05 Q29.85 28.9 29.45 28.0 L28.65 26.3 27.75 24.9 30.0 24.7 30.15 24.7 Q31.8 24.85 32.75 24.2 L33.45 23.15 Q33.85 22.3 33.6 21.45 L33.0 20.6 32.75 20.3 32.4 20.3 32.3 20.3 31.4 20.15 Q32.5 19.65 33.65 19.3 L34.75 19.0 35.05 19.2 Q36.05 20.35 36.2 21.5 36.45 22.6 35.9 23.65 L34.75 25.1 M21.6 35.15 Q18.55 37.95 15.65 34.75 14.0 33.0 14.85 30.25 13.05 32.4 10.75 32.0 9.65 31.85 8.9 31.35 L8.95 29.3 8.0 29.0 Q8.55 28.65 9.45 28.4 L9.9 29.55 Q10.5 30.2 11.65 30.4 L13.9 29.35 14.8 28.7 14.95 28.65 14.8 28.7 15.95 29.05 Q15.75 30.75 16.35 31.7 L16.5 31.85 16.85 32.25 18.05 33.65 19.75 33.0 20.45 32.55 20.55 31.5 20.55 30.3 20.5 29.45 Q20.55 28.65 20.2 27.3 L22.45 27.9 Q23.15 31.4 22.4 33.65 L21.6 35.15" fill="#ffcc00" fill-rule="evenodd" stroke="none"/>
      <path d="M16.35 9.9 L14.7 7.9 16.1 7.45 Q17.8 6.55 18.1 5.0 L18.7 5.6 18.6 5.65 Q16.9 7.7 17.55 11.75 L17.55 11.95 17.6 12.2 17.9 13.5 Q17.2 11.35 16.35 9.9 M28.8 7.2 L28.65 7.7 Q29.45 6.7 30.4 6.3 L30.55 6.2 31.8 5.85 28.4 8.7 27.2 9.0 Q26.55 9.3 25.9 9.85 L25.25 10.5 25.35 10.05 28.8 7.2 M36.3 9.25 L36.2 10.85 35.15 12.75 31.8 15.65 Q31.65 15.75 31.55 15.8 L31.7 15.65 32.35 14.85 32.9 13.6 32.95 12.15 33.0 11.95 Q34.55 8.2 36.3 9.25 M39.1 19.1 Q39.3 20.65 37.95 22.15 L37.5 22.7 36.9 23.15 34.75 25.1 35.9 23.65 Q36.45 22.6 36.2 21.5 37.9 18.95 39.1 19.1 M30.2 33.45 Q31.95 35.15 34.65 36.75 L32.6 38.5 30.1 35.15 28.4 33.9 29.85 33.6 30.2 33.45 M11.1 23.2 L11.6 22.55 Q14.8 21.95 19.25 19.85 L19.05 18.8 19.0 18.4 18.4 15.2 Q18.95 17.1 19.95 19.25 L20.25 19.95 21.15 19.9 22.4 19.65 27.1 18.45 26.75 18.6 26.7 18.6 24.0 19.55 23.9 19.6 Q22.55 20.15 21.05 20.85 L21.85 25.4 21.5 24.4 20.55 22.15 20.5 22.15 20.9 20.0 18.45 21.05 18.35 21.05 Q13.85 21.8 11.1 23.2" fill="#744c12" fill-rule="evenodd" stroke="none"/>
      <path d="M16.1 5.15 L13.95 7.4 13.9 7.4 11.7 8.05 16.1 5.15 M8.9 31.35 L8.3 29.75 8.95 29.3 8.9 31.35 M24.85 2.55 L23.15 4.95 21.6 6.05 24.85 2.55 M28.85 15.35 L27.5 16.6 25.45 16.85 27.1 15.8 28.85 15.35 M20.45 15.95 L18.75 13.15 19.35 10.4 20.45 13.1 20.45 15.95 M6.45 20.3 L8.15 19.15 8.25 20.6 6.45 20.3 M18.35 21.05 L18.45 21.05 20.9 20.0 20.5 22.15 18.35 21.05 M26.75 18.6 L27.1 18.45 29.5 17.4 31.0 17.6 31.7 17.75 32.65 18.1 34.75 19.0 31.6 18.35 29.05 18.95 28.95 18.95 26.75 18.6 M11.7 14.45 L13.45 15.45 10.8 15.8 11.7 14.45 M11.65 20.7 L13.45 19.7 16.15 19.05 14.55 20.35 14.45 20.35 11.65 20.7 M14.95 28.65 L14.95 28.6 16.1 27.65 16.55 27.3 16.85 27.05 17.0 26.95 15.95 29.05 14.8 28.7 14.95 28.65 M17.75 21.8 L12.8 24.45 10.4 24.95 17.75 21.8 M27.75 24.2 L27.75 23.15 30.0 24.7 27.75 24.9 27.75 24.2 M31.9 30.75 L31.5 29.65 31.55 27.45 32.75 29.05 31.9 30.75 M28.4 33.9 L30.1 35.15 32.6 38.5 28.65 36.9 27.35 33.85 28.4 33.9 M16.85 32.25 L18.35 32.65 19.75 33.0 18.05 33.65 16.85 32.25" fill="#fef0bc" fill-rule="evenodd" stroke="none"/>
      <path d="M9.85 7.5 Q10.6 6.85 11.7 6.85 L11.7 8.05 13.9 7.4 13.95 7.4 14.45 7.75 Q12.6 8.35 11.05 9.85 8.9 11.85 8.9 13.3 L8.9 13.55 8.55 13.0 8.5 12.95 Q8.0 11.8 8.2 10.5 8.55 8.4 9.75 7.55 L9.8 7.55 9.85 7.5 M7.25 28.75 Q7.1 28.05 7.25 27.15 8.05 24.75 11.1 23.2 13.85 21.8 18.35 21.05 L20.5 22.15 21.4 24.4 19.3 24.2 19.0 24.2 18.55 23.2 Q15.7 23.6 13.9 24.4 13.65 24.45 13.4 24.65 12.35 25.05 11.6 25.55 10.6 26.2 10.05 26.75 8.3 27.7 7.25 28.75 M20.25 4.6 L21.15 4.35 21.6 4.35 21.6 6.05 23.15 4.95 23.7 5.3 24.45 6.05 24.7 6.3 24.15 6.2 Q22.65 6.2 20.4 7.55 L20.15 7.7 Q17.65 9.35 17.65 11.45 L17.6 11.7 17.55 11.95 17.55 11.75 Q16.9 7.7 18.6 5.65 L18.7 5.6 Q19.4 4.9 20.25 4.6 M21.85 25.4 L21.05 20.85 Q22.55 20.15 23.9 19.6 L24.0 19.55 26.7 18.6 26.75 18.6 28.95 18.95 Q27.9 19.5 26.6 20.45 L24.9 21.05 24.55 21.25 23.3 22.05 23.4 23.5 22.75 24.5 22.5 25.1 Q22.25 25.7 22.25 26.75 L22.25 27.05 22.2 26.85 22.1 26.55 21.85 25.4 M10.4 24.95 L12.8 24.45 17.75 21.8 12.1 23.2 10.4 24.95" fill="#fee481" fill-rule="evenodd" stroke="none"/>
      <path d="M20.5 22.15 L20.55 22.15 21.5 24.4 21.85 25.4 22.1 26.55 21.4 24.4 20.5 22.15" fill="#777755" fill-rule="evenodd" stroke="none"/>
      <path d="M24.45 12.65 L25.45 11.55 26.25 10.9 26.6 10.85 24.45 12.65" fill="#616044" fill-rule="evenodd" stroke="none"/>
      <path d="M17.9 26.25 L18.75 27.95 Q18.4 29.2 19.1 29.85 19.55 30.25 20.55 30.3 L20.55 31.5 Q19.2 31.5 18.35 30.3 L18.15 30.2 Q17.55 29.1 17.75 27.1 L17.8 26.55 17.9 26.25" fill="#3e5717" fill-rule="evenodd" stroke="none"/>
      <path d="M17.9 26.25 L17.9 26.15 17.45 26.5 Q14.85 26.5 13.7 27.15 L13.3 27.45 13.3 27.5 13.15 27.85 13.15 27.55 13.2 26.9 Q14.15 25.5 16.25 25.4 L19.65 25.85 19.9 26.35 20.1 27.05 Q19.8 27.1 19.65 27.25 19.15 27.6 19.1 28.45 19.1 29.9 20.55 30.3 19.55 30.25 19.1 29.85 18.4 29.2 18.75 27.95 L17.9 26.25 M26.8 22.6 L26.85 22.6 26.85 22.55 26.9 22.5 29.3 20.95 29.75 20.85 32.15 20.95 32.05 21.05 31.9 21.2 31.1 21.65 29.3 22.7 28.6 22.45 27.75 23.15 27.75 24.2 27.65 24.25 27.3 24.85 Q27.1 27.25 28.8 29.6 L28.05 29.05 27.6 28.5 27.05 26.55 26.9 26.15 26.8 25.65 Q26.6 24.05 26.8 22.6" fill="#c1ef54" fill-rule="evenodd" stroke="none"/>
      <path d="M12.05 9.75 Q12.8 9.75 13.85 10.4 L13.95 10.7 14.95 12.25 Q14.2 14.4 14.95 15.65 11.8 15.8 10.6 17.45 L10.5 17.65 10.35 17.95 Q10.0 18.5 9.9 19.2 7.4 18.35 8.3 16.25 L8.4 16.15 10.8 15.8 13.45 15.45 14.35 14.75 13.35 13.05 12.4 11.5 Q12.0 10.55 12.05 9.75 M21.05 7.65 Q21.95 7.5 22.55 8.05 L22.65 8.1 23.45 8.85 Q22.75 8.8 22.4 9.75 21.6 12.05 22.65 15.45 L22.9 16.3 22.85 16.3 22.45 15.45 22.4 15.35 21.6 13.45 21.15 12.2 20.85 10.15 20.85 9.35 20.9 8.8 Q20.9 8.2 21.05 7.65 M24.9 21.05 L26.6 20.45 29.3 20.05 29.6 20.0 31.2 20.15 31.2 20.2 29.5 20.35 Q27.9 20.85 26.9 22.5 L26.85 22.55 26.8 22.6 Q26.6 24.05 26.8 25.65 L26.9 26.15 27.05 26.55 27.6 28.5 26.6 26.9 26.3 26.25 25.35 23.7 25.0 21.7 24.9 21.05 M13.35 28.9 Q12.4 28.65 11.85 28.2 L11.6 27.85 Q11.2 27.15 11.35 26.25 L11.35 26.1 11.6 25.55 Q12.35 25.05 13.4 24.65 13.65 24.45 13.9 24.4 15.7 23.6 18.55 23.2 L19.0 24.2 19.45 25.3 Q18.0 23.85 14.75 25.3 L13.95 25.9 13.2 26.9 13.15 27.55 13.15 27.85 13.2 28.05 13.35 28.9" fill="#304312" fill-rule="evenodd" stroke="none"/>
      <path d="M23.45 8.85 L24.0 9.95 Q23.55 9.85 22.85 11.1 22.25 12.1 22.5 14.3 L22.5 14.45 22.65 15.45 Q21.6 12.05 22.4 9.75 22.75 8.8 23.45 8.85 M16.1 14.45 Q15.5 14.65 14.95 15.65 14.2 14.4 14.95 12.25 L15.7 13.6 16.1 14.45 M19.65 25.85 L16.25 25.4 Q14.15 25.5 13.2 26.9 L13.95 25.9 14.75 25.3 Q18.0 23.85 19.45 25.3 L19.65 25.85 M32.15 20.95 L29.75 20.85 29.3 20.95 26.9 22.5 Q27.9 20.85 29.5 20.35 L31.2 20.2 32.3 20.3 32.4 20.3 32.75 20.3 33.0 20.6 33.6 21.45 33.45 21.8 Q33.15 21.35 32.15 20.95" fill="#daf49b" fill-rule="evenodd" stroke="none"/>
      <path d="M24.0 9.95 L24.35 11.35 24.45 12.65 Q26.6 11.05 28.4 10.85 L28.7 10.9 28.15 12.1 27.9 12.35 Q26.95 13.25 25.95 13.25 L24.9 13.2 Q23.7 13.2 23.0 13.55 22.45 13.85 22.5 14.3 22.25 12.1 22.85 11.1 23.55 9.85 24.0 9.95 M14.95 15.65 Q15.5 14.65 16.1 14.45 L16.6 16.45 15.8 16.6 12.5 16.75 Q11.05 17.0 10.6 17.45 11.8 15.8 14.95 15.65 M17.45 26.5 L16.7 27.05 15.65 27.75 Q14.0 28.75 13.35 28.9 L13.2 28.05 13.15 27.85 13.3 27.5 13.3 27.45 13.7 27.15 Q14.85 26.5 17.45 26.5 M20.55 30.3 Q19.1 29.9 19.1 28.45 19.15 27.6 19.65 27.25 19.8 27.1 20.1 27.05 L20.2 27.3 Q20.55 28.65 20.5 29.45 L20.55 30.3 M28.8 29.6 Q27.1 27.25 27.3 24.85 L27.65 24.25 27.75 24.2 27.75 24.9 28.65 26.3 29.45 28.0 Q29.85 28.9 29.8 30.05 L28.8 29.6" fill="#648c26" fill-rule="evenodd" stroke="none"/>
      <path d="M10.8 19.45 L9.9 19.2 Q10.0 18.5 10.35 17.95 L10.5 17.65 10.6 17.45 Q11.05 17.0 12.5 16.75 L15.8 16.6 16.6 16.45 16.65 16.75 Q15.75 18.55 13.45 19.25 L10.8 19.45 M22.5 14.3 Q22.45 13.85 23.0 13.55 23.7 13.2 24.9 13.2 L25.95 13.25 Q26.95 13.25 27.9 12.35 L28.15 12.1 Q28.8 12.55 28.95 13.25 29.25 14.75 24.85 16.15 L22.9 16.3 22.65 15.45 22.5 14.45 22.5 14.3 M29.3 22.7 L31.1 21.65 31.9 21.2 32.05 21.05 32.15 20.95 Q33.15 21.35 33.45 21.8 32.75 23.0 30.9 23.1 L29.3 22.7" fill="#99cc33" fill-rule="evenodd" stroke="none"/>
      <path d="M26.6 10.85 L26.9 10.85 Q27.7 10.7 28.4 10.85 26.6 11.05 24.45 12.65 L26.6 10.85 M28.7 10.9 Q29.6 11.2 30.1 11.95 30.25 13.45 29.8 14.4 L28.8 14.85 26.55 15.65 24.85 16.15 Q29.25 14.75 28.95 13.25 28.8 12.55 28.15 12.1 L28.7 10.9 M16.85 18.15 L13.45 19.25 Q15.75 18.55 16.65 16.75 L16.85 18.15 M26.85 22.55 L26.85 22.6 26.8 22.6 26.85 22.55 M31.4 20.15 L32.3 20.3 31.2 20.2 31.2 20.15 31.4 20.15 M33.6 21.45 Q33.85 22.3 33.45 23.15 L30.9 23.1 Q32.75 23.0 33.45 21.8 L33.6 21.45" fill="#55730d" fill-rule="evenodd" stroke="none"/>
      <path d="M18.1 5.0 L16.35 3.95 Q14.65 3.65 13.55 4.25 L9.85 7.5 9.8 7.55 9.75 7.55 Q8.55 8.4 8.2 10.5 8.0 11.8 8.5 12.95 L8.55 13.0 M20.25 4.6 L23.45 1.8 23.55 1.75 Q25.3 1.05 27.05 2.5 L27.9 3.2 Q28.6 4.05 28.85 5.05 L28.8 7.2 28.65 7.7 Q29.45 6.7 30.4 6.3 L30.55 6.2 31.8 5.85 32.6 5.9 32.75 5.95 Q33.65 6.1 34.3 6.4 36.15 7.25 36.3 9.25 L36.2 10.85 35.15 12.75 31.8 15.65 33.45 15.45 Q36.05 15.35 37.65 16.55 L37.85 16.7 37.9 16.8 Q38.7 17.65 39.0 18.6 M39.05 18.7 L39.1 19.1 Q39.3 20.65 37.95 22.15 L37.5 22.7 36.9 23.15 34.75 25.1 34.65 25.2 34.55 25.35 Q35.0 26.45 34.8 27.7 34.55 29.1 33.95 30.0 L33.8 30.25 31.15 32.5 30.2 33.45 Q31.95 35.15 34.65 36.75 L32.6 38.5 29.4 41.25 Q25.4 37.45 24.35 32.8 L21.6 35.15 Q18.55 37.95 15.65 34.75 14.0 33.0 14.85 30.25 13.05 32.4 10.75 32.0 9.65 31.85 8.9 31.35 L8.3 29.75 7.25 28.8 M7.25 28.75 Q7.1 28.05 7.25 27.15 8.05 24.75 11.1 23.2 L11.6 22.55 Q7.4 23.3 5.15 21.45 2.45 18.45 5.6 15.5 L5.7 15.35 5.95 15.15 8.55 13.0 M18.7 5.6 L18.1 5.0 M18.7 5.6 Q19.4 4.9 20.25 4.6 M31.8 15.65 Q31.65 15.75 31.55 15.8" fill="none" stroke="#000000" stroke-linecap="round" stroke-linejoin="round" stroke-opacity="0.3019608" stroke-width="0.5"/>
      <path d="M12.05 9.75 Q12.8 9.75 13.85 10.4 L13.95 10.7 M21.05 7.65 Q21.95 7.5 22.55 8.05 L22.65 8.1 23.45 8.85 24.0 9.95 24.35 11.35 24.45 12.65 25.45 11.55 26.25 10.9 26.6 10.85 26.9 10.85 Q27.7 10.7 28.4 10.85 L28.7 10.9 Q29.6 11.2 30.1 11.95 30.25 13.45 29.8 14.4 L28.8 14.85 26.55 15.65 24.85 16.15 22.9 16.3 M22.85 16.3 L22.45 15.45 22.4 15.35 21.6 13.45 21.15 12.2 20.85 10.15 20.85 9.35 20.9 8.8 Q20.9 8.2 21.05 7.65 M10.8 19.45 L9.9 19.2 Q7.4 18.35 8.3 16.25 L8.4 16.15 10.8 15.8 13.45 15.45 14.35 14.75 13.35 13.05 12.4 11.5 Q12.0 10.55 12.05 9.75 M22.5 14.45 L22.5 14.3 M24.9 21.05 L26.6 20.45 M14.95 12.25 L13.95 10.7 M16.6 16.45 L16.1 14.45 15.7 13.6 14.95 12.25 M13.45 19.25 L10.8 19.45 M16.85 18.15 L13.45 19.25 M16.65 16.75 L16.6 16.45 M16.65 16.75 L16.85 18.15 M17.9 26.25 L17.9 26.15 17.45 26.5 16.7 27.05 15.65 27.75 Q14.0 28.75 13.35 28.9 12.4 28.65 11.85 28.2 M20.1 27.05 L19.9 26.35 19.65 25.85 19.45 25.3 19.0 24.2 18.55 23.2 Q15.7 23.6 13.9 24.4 13.65 24.45 13.4 24.65 12.35 25.05 11.6 25.55 L11.35 26.1 11.35 26.25 Q11.2 27.15 11.6 27.85 L11.85 28.2 M17.9 26.25 L17.8 26.55 17.75 27.1 Q17.55 29.1 18.15 30.2 L18.35 30.3 Q19.2 31.5 20.55 31.5 L20.55 30.3 20.5 29.45 Q20.55 28.65 20.2 27.3 L20.1 27.05 M27.6 28.5 L28.05 29.05 28.8 29.6 29.8 30.05 M27.75 24.2 L27.75 23.15 28.6 22.45 29.3 22.7 M27.6 28.5 L26.6 26.9 26.3 26.25 25.35 23.7 25.0 21.7 24.9 21.05 M31.4 20.15 L32.3 20.3 32.4 20.3 32.75 20.3 33.0 20.6 33.6 21.45 Q33.85 22.3 33.45 23.15 L30.9 23.1 29.3 22.7 M27.75 24.9 L28.65 26.3 29.45 28.0 Q29.85 28.9 29.8 30.05 M31.2 20.15 L29.6 20.0 29.3 20.05 26.6 20.45 M31.4 20.15 L31.2 20.15 M27.75 24.9 L27.75 24.2" fill="none" stroke="#000000" stroke-linecap="round" stroke-linejoin="round" stroke-opacity="0.3019608" stroke-width="0.05"/>
    </g>
    <g id="sprite0" transform="matrix(1.0, 0.0, 0.0, 1.0, 0.0, 0.0)">
      <use height="20.95" transform="matrix(1.0, 0.0, 0.0, 1.0, 0.0, 0.0)" width="24.45" xlink:href="#shape1"/>
    </g>
    <g id="shape1" transform="matrix(1.0, 0.0, 0.0, 1.0, 0.0, 0.0)">
      <path d="M14.85 11.4 Q15.8 11.6 16.25 12.45 16.85 13.3 16.6 14.35 16.4 15.3 15.55 15.9 14.65 16.4 13.65 16.2 12.65 15.9 12.1 15.1 11.6 14.2 11.8 13.2 12.1 12.2 12.9 11.65 13.8 11.15 14.85 11.4" fill="#ffffff" fill-opacity="0.5882353" fill-rule="evenodd" stroke="none"/>
      <path d="M14.85 11.4 Q13.8 11.15 12.9 11.65 12.1 12.2 11.8 13.2 11.6 14.2 12.1 15.1 12.65 15.9 13.65 16.2 14.65 16.4 15.55 15.9 16.4 15.3 16.6 14.35 16.85 13.3 16.25 12.45 15.8 11.6 14.85 11.4 M18.2 11.35 L20.15 11.25 18.75 12.55 Q19.05 13.8 18.8 15.05 18.5 16.35 17.65 17.3 L19.1 20.95 16.55 18.25 Q14.8 19.3 12.8 18.85 10.8 18.35 9.75 16.65 9.05 15.5 8.95 14.3 7.75 12.35 4.85 11.5 8.3 12.45 9.7 11.4 10.3 10.4 11.35 9.75 13.1 8.75 15.1 9.15 16.95 9.5 18.1 11.15 L18.2 11.35" fill="#ffffff" fill-opacity="0.1764706" fill-rule="evenodd" stroke="none"/>
      <path d="M15.4 13.55 L18.1 17.55 13.35 14.65 7.05 18.5 12.75 13.55 0.0 0.0 14.25 12.25 24.45 5.95 15.4 13.55" fill="#ffffff" fill-opacity="0.5882353" fill-rule="evenodd" stroke="none"/>
    </g>
  </defs>
</svg>
