<?xml version="1.0" encoding="UTF-8" standalone="no"?>
<svg xmlns:xlink="http://www.w3.org/1999/xlink" height="440.0px" width="440.0px" xmlns="http://www.w3.org/2000/svg">
  <g transform="matrix(10.0, 0.0, 0.0, 10.0, 0.0, 0.0)">
    <use height="44.0" transform="matrix(1.0, 0.0, 0.0, 1.0, 0.0, 0.0)" width="44.0" xlink:href="#shape0"/>
    <use height="32.05" transform="matrix(0.8244, 0.0, 0.0, 0.8244, 6.2337, 10.6993)" width="23.3" xlink:href="#sprite0"/>
    <use height="38.3" transform="matrix(1.0, 0.0, 0.0, 1.0, 1.8, 2.95)" width="39.7" xlink:href="#shape2"/>
  </g>
  <defs>
    <g id="shape0" transform="matrix(1.0, 0.0, 0.0, 1.0, 0.0, 0.0)">
      <path d="M44.0 44.0 L0.0 44.0 0.0 0.0 44.0 0.0 44.0 44.0" fill="#43adca" fill-opacity="0.0" fill-rule="evenodd" stroke="none"/>
      <path d="M2.7 24.85 L7.4 24.3 8.8 25.3 4.35 25.3 2.7 24.85" fill="#aea873" fill-rule="evenodd" stroke="none"/>
      <path d="M2.7 24.85 L2.7 24.9 2.6 24.75 2.4 23.45 2.3 23.35 5.1 22.1 2.1 20.0 2.25 18.5 5.25 17.75 5.15 17.65 3.85 15.2 3.8 15.15 4.95 14.25 8.9 17.55 Q6.7 21.1 7.4 24.3 L2.7 24.85" fill="#dadab6" fill-rule="evenodd" stroke="none"/>
      <path d="M7.4 24.3 Q6.7 21.1 8.9 17.55 L4.95 14.25 3.8 15.15 3.85 15.2 5.15 17.65 5.25 17.75 2.25 18.5 2.1 20.0 5.1 22.1 2.3 23.35 2.4 23.45 2.6 24.75 2.7 24.9 2.7 24.85 M7.4 24.3 L8.8 25.3 4.35 25.3 2.7 24.85" fill="none" stroke="#000000" stroke-linecap="round" stroke-linejoin="round" stroke-opacity="0.3019608" stroke-width="0.05"/>
      <path d="M6.75 28.55 L6.6 28.5 6.7 28.5 6.75 28.55" fill="#ffcc00" fill-rule="evenodd" stroke="none"/>
      <path d="M20.25 10.8 L20.25 10.9 20.1 10.8 20.25 10.8" fill="#85570c" fill-rule="evenodd" stroke="none"/>
      <path d="M28.7 27.55 L28.6 27.55 28.7 27.55 M29.75 32.35 L29.8 32.35 29.85 32.5 29.8 32.5 29.75 32.35" fill="#c29e19" fill-rule="evenodd" stroke="none"/>
      <path d="M29.85 32.3 L29.9 32.5 29.85 32.5 29.8 32.35 29.85 32.3" fill="#d89500" fill-rule="evenodd" stroke="none"/>
      <path d="M31.85 27.85 L31.9 27.95 31.8 28.0 31.85 27.85" fill="#6e481d" fill-rule="evenodd" stroke="none"/>
      <path d="M31.8 28.0 L31.8 28.7 31.8 28.95 31.4 31.65 29.9 32.5 29.85 32.3 28.9 30.3 28.7 28.05 17.15 29.95 17.15 30.05 16.0 39.8 15.9 40.9 15.4 40.3 12.4 36.7 11.75 36.1 Q8.6 33.2 7.05 29.4 L6.75 28.55 6.7 28.5 11.8 26.25 Q21.45 23.2 27.25 15.8 L27.85 16.55 28.65 17.55 Q30.75 20.7 31.5 24.65 L31.85 27.85 31.8 28.0 M20.25 10.9 Q22.45 11.6 24.5 13.25 17.9 21.7 5.9 25.7 L5.75 24.55 5.65 22.15 10.95 21.2 Q14.4 19.3 16.25 16.7 L20.25 10.9 M28.7 27.55 L28.6 27.55 28.7 27.55" fill="#ca6809" fill-rule="evenodd" stroke="none"/>
      <path d="M24.5 13.25 L25.7 14.25 27.25 15.8 Q21.45 23.2 11.8 26.25 L6.7 28.5 5.9 25.7 Q17.9 21.7 24.5 13.25" fill="#db791a" fill-rule="evenodd" stroke="none"/>
      <path d="M24.2 9.55 L20.25 10.8 20.1 10.8 Q18.05 10.15 15.85 10.2 L15.35 10.25 13.25 10.65 17.2 9.35 Q18.6 8.8 20.4 8.7 22.55 8.65 24.6 9.25 L24.9 9.4 24.4 9.5 24.2 9.55" fill="#e08d3d" fill-rule="evenodd" stroke="none"/>
      <path d="M30.45 37.5 L31.75 35.3 Q33.85 31.15 33.95 27.6 34.25 27.05 33.85 23.1 33.3 17.95 30.3 14.7 28.05 12.15 24.2 9.55 L24.4 9.5 24.9 9.4 25.25 9.5 Q27.85 10.5 30.25 12.75 34.85 17.0 36.0 23.15 L36.45 27.2 Q36.25 30.9 34.3 33.9 32.75 36.35 30.45 37.5" fill="#541e00" fill-rule="evenodd" stroke="none"/>
      <path d="M31.9 27.95 L31.85 27.85 31.5 24.65 Q30.75 20.7 28.65 17.55 L27.85 16.55 27.25 15.8 25.7 14.25 24.5 13.25 Q22.45 11.6 20.25 10.9 L20.25 10.8 24.2 9.55 Q28.05 12.15 30.3 14.7 33.3 17.95 33.85 23.1 34.25 27.05 33.95 27.6 33.85 31.15 31.75 35.3 L30.45 37.5 Q29.6 37.95 28.6 38.2 L28.35 38.3 25.2 39.35 25.2 39.3 26.6 38.6 27.55 37.9 Q28.75 36.85 29.75 35.4 L30.35 34.35 31.4 31.65 31.8 28.95 31.8 28.7 31.8 28.0 31.9 27.95" fill="#823c00" fill-rule="evenodd" stroke="none"/>
      <path d="M13.25 10.65 L15.35 10.25 15.85 10.2 Q18.05 10.15 20.1 10.8 L20.25 10.9 16.25 16.7 Q14.4 19.3 10.95 21.2 L5.65 22.15 Q5.6 20.55 5.9 19.15 L6.15 18.35 6.4 17.65 Q6.7 16.6 7.3 15.65 L7.7 15.0 Q9.85 11.65 13.25 10.65" fill="#de852f" fill-rule="evenodd" stroke="none"/>
      <path d="M31.4 31.65 L30.35 34.35 29.75 35.4 Q28.75 36.85 27.55 37.9 L26.6 38.6 25.2 39.3 25.2 39.35 24.65 39.55 21.6 40.15 21.3 40.15 Q18.8 40.2 16.15 40.95 L15.95 40.95 15.9 40.9 16.0 39.8 17.15 30.05 17.15 29.95 28.7 28.05 28.9 30.3 29.85 32.3 29.75 32.35 29.8 32.5 29.85 32.5 29.9 32.5 31.4 31.65" fill="#ae4f00" fill-rule="evenodd" stroke="none"/>
      <path d="M31.9 27.95 L31.8 28.0 M25.2 39.35 L28.35 38.3 28.6 38.2 Q29.6 37.95 30.45 37.5 32.75 36.35 34.3 33.9 36.25 30.9 36.45 27.2 L36.0 23.15 Q34.85 17.0 30.25 12.75 27.85 10.5 25.25 9.5 L24.9 9.4 M31.85 27.85 L31.8 28.0 M20.25 10.9 L20.1 10.8 M25.2 39.35 L24.65 39.55 21.6 40.15 21.3 40.15 Q18.8 40.2 16.15 40.95 L15.95 40.95 15.9 40.9 15.4 40.3 12.4 36.7 11.75 36.1 Q8.6 33.2 7.05 29.4 L6.75 28.55 6.7 28.5 5.9 25.7 5.75 24.55 5.65 22.15 Q5.6 20.55 5.9 19.15 L6.15 18.35 6.4 17.65 Q6.7 16.6 7.3 15.65 L7.7 15.0 Q9.85 11.65 13.25 10.65" fill="none" stroke="#000000" stroke-linecap="round" stroke-linejoin="round" stroke-opacity="0.3019608" stroke-width="0.05"/>
      <path d="M20.25 10.9 Q22.45 11.6 24.5 13.25 L25.7 14.25 27.25 15.8 27.85 16.55 28.65 17.55 Q30.75 20.7 31.5 24.65 L31.85 27.85 M17.15 29.95 L28.7 28.05 M16.0 39.8 L17.15 30.05" fill="none" stroke="#a04c00" stroke-linecap="round" stroke-linejoin="round" stroke-opacity="0.3019608" stroke-width="1.0"/>
      <path d="M17.95 28.05 Q17.95 30.55 16.25 32.0 L15.6 32.45 14.85 32.8 12.2 33.0 Q9.85 32.5 8.2 30.35 6.45 28.3 6.45 25.75 6.45 23.25 8.2 21.8 8.5 21.45 8.95 21.2 10.3 20.35 12.2 20.75 14.6 21.2 16.25 23.4 17.95 25.55 17.95 28.05" fill="#e68900" fill-rule="evenodd" stroke="none"/>
      <path d="M30.35 32.4 Q30.35 35.3 28.45 36.95 L27.7 37.45 26.85 37.8 23.85 38.05 Q21.15 37.5 19.3 35.1 17.35 32.7 17.35 29.85 17.35 27.0 19.3 25.4 19.7 24.95 20.15 24.7 21.7 23.75 23.85 24.15 26.55 24.7 28.45 27.15 30.35 29.6 30.35 32.4" fill="#e68900" fill-rule="evenodd" stroke="none"/>
      <path d="M9.05 20.8 Q10.35 19.95 12.1 20.3 14.35 20.8 16.0 22.8 17.6 24.8 17.6 27.2 17.6 29.65 16.0 31.0 L15.4 31.45 15.3 31.3 Q16.9 29.95 16.9 27.55 16.9 25.2 15.3 23.15 13.65 21.05 11.45 20.6 L9.05 20.8" fill="#6f5122" fill-rule="evenodd" stroke="none"/>
      <path d="M14.65 31.75 L12.1 31.9 Q9.85 31.45 8.3 29.45 6.65 27.45 6.65 25.05 6.65 22.65 8.3 21.25 8.65 20.95 9.05 20.8 L11.45 20.6 Q13.65 21.05 15.3 23.15 16.9 25.2 16.9 27.55 16.9 29.95 15.3 31.3 L14.65 31.75 M13.9 29.4 L14.1 28.85 13.85 28.35 13.2 28.15 Q12.95 28.15 12.7 28.4 L12.5 28.95 12.7 29.45 13.3 29.65 13.9 29.4" fill="#f6af64" fill-rule="evenodd" stroke="none"/>
      <path d="M13.9 29.4 L13.3 29.65 12.7 29.45 12.5 28.95 12.7 28.4 Q12.95 28.15 13.2 28.15 L13.85 28.35 14.1 28.85 13.9 29.4" fill="#a04c00" fill-rule="evenodd" stroke="none"/>
      <path d="M9.05 20.8 Q10.35 19.95 12.1 20.3 14.35 20.8 16.0 22.8 17.6 24.8 17.6 27.2 17.6 29.65 16.0 31.0 L15.4 31.45 14.65 31.75 12.1 31.9 Q9.85 31.45 8.3 29.45 6.65 27.45 6.65 25.05 6.65 22.65 8.3 21.25 8.65 20.95 9.05 20.8 L11.45 20.6 Q13.65 21.05 15.3 23.15 16.9 25.2 16.9 27.55 16.9 29.95 15.3 31.3 L14.65 31.75 M13.9 29.4 L13.3 29.65 12.7 29.45 12.5 28.95 12.7 28.4 Q12.95 28.15 13.2 28.15 L13.85 28.35 14.1 28.85 13.9 29.4" fill="none" stroke="#000000" stroke-linecap="round" stroke-linejoin="round" stroke-opacity="0.3019608" stroke-width="0.05"/>
      <path d="M27.55 36.3 Q29.45 34.85 29.45 32.0 29.45 29.25 27.55 26.9 25.75 24.55 23.1 24.05 L20.35 24.15 Q21.85 23.2 23.95 23.6 26.55 24.15 28.4 26.5 30.25 28.9 30.25 31.6 30.25 34.4 28.4 36.05 L27.65 36.5 27.55 36.3" fill="#6f5122" fill-rule="evenodd" stroke="none"/>
      <path d="M20.35 24.15 L23.1 24.05 Q25.75 24.55 27.55 26.9 29.45 29.25 29.45 32.0 29.45 34.85 27.55 36.3 L26.85 36.85 23.95 37.1 Q21.35 36.55 19.55 34.2 17.6 31.9 17.6 29.15 17.6 26.35 19.55 24.8 L20.35 24.15 M21.1 30.65 L20.8 30.1 20.1 29.9 Q19.75 29.9 19.5 30.15 19.25 30.4 19.25 30.8 19.25 31.1 19.55 31.35 L20.2 31.6 20.85 31.3 21.1 30.65" fill="#f6af64" fill-rule="evenodd" stroke="none"/>
      <path d="M20.35 24.15 L23.1 24.05 Q25.75 24.55 27.55 26.9 29.45 29.25 29.45 32.0 29.45 34.85 27.55 36.3 M27.65 36.5 L28.4 36.05 Q30.25 34.4 30.25 31.6 30.25 28.9 28.4 26.5 26.55 24.15 23.95 23.6 21.85 23.2 20.35 24.15 L19.55 24.8 Q17.6 26.35 17.6 29.15 17.6 31.9 19.55 34.2 21.35 36.55 23.95 37.1 L26.85 36.85 27.55 36.3 M27.65 36.5 L26.85 36.85" fill="none" stroke="#000000" stroke-linecap="round" stroke-linejoin="round" stroke-opacity="0.3019608" stroke-width="0.05"/>
      <path d="M21.1 30.65 L20.85 31.3 20.2 31.6 19.55 31.35 Q19.25 31.1 19.25 30.8 19.25 30.4 19.5 30.15 19.75 29.9 20.1 29.9 L20.8 30.1 21.1 30.65" fill="#a04c00" fill-rule="evenodd" stroke="none"/>
      <path d="M21.1 30.65 L20.85 31.3 20.2 31.6 19.55 31.35 Q19.25 31.1 19.25 30.8 19.25 30.4 19.5 30.15 19.75 29.9 20.1 29.9 L20.8 30.1 21.1 30.65 Z" fill="none" stroke="#000000" stroke-linecap="round" stroke-linejoin="round" stroke-opacity="0.3019608" stroke-width="0.05"/>
      <path d="M26.15 12.8 L26.3 12.75 26.2 12.85 26.15 12.8" fill="#f0e4b3" fill-rule="evenodd" stroke="none"/>
      <path d="M28.55 7.35 L28.55 7.5 28.45 7.45 28.55 7.35" fill="#d6c99a" fill-rule="evenodd" stroke="none"/>
      <path d="M28.55 7.2 L28.55 7.35 28.45 7.45 28.55 7.2" fill="#b5a879" fill-rule="evenodd" stroke="none"/>
      <path d="M28.6 7.2 L28.55 7.2 28.55 7.15 28.6 7.2" fill="#deb756" fill-rule="evenodd" stroke="none"/>
      <path d="M28.55 7.15 L28.55 7.1 28.6 7.2 28.55 7.15" fill="#dec690" fill-rule="evenodd" stroke="none"/>
      <path d="M19.25 3.7 L16.95 4.0 20.7 3.25 19.25 3.7" fill="#feeeb4" fill-rule="evenodd" stroke="none"/>
      <path d="M16.95 4.0 L19.25 3.7 20.45 7.35 21.65 5.5 22.3 4.4 24.5 5.1 25.6 8.6 25.75 8.6 28.55 7.2 28.6 7.2 29.9 9.0 26.3 12.75 26.15 12.8 Q21.75 9.45 17.9 9.25 L16.95 4.0 M28.55 7.35 L28.55 7.2 28.45 7.45 28.55 7.5 28.55 7.35" fill="#dadab6" fill-rule="evenodd" stroke="none"/>
      <path d="M29.9 9.0 L28.6 7.2 28.55 7.1 29.8 6.15 31.6 8.25 31.4 8.3 29.9 9.0 M24.5 5.1 L22.3 4.4 23.9 3.85 26.05 4.45 24.5 5.1" fill="#eeecdd" fill-rule="evenodd" stroke="none"/>
      <path d="M26.3 12.75 L29.9 9.0 31.4 8.3 28.35 11.45 26.3 12.75 M25.75 8.6 L25.6 8.6 24.5 5.1 26.05 4.45 27.0 7.55 25.75 8.6 M21.65 5.5 L20.45 7.35 19.25 3.7 20.7 3.25 21.65 5.5" fill="#777755" fill-rule="evenodd" stroke="none"/>
      <path d="M28.55 7.2 L25.75 8.6 27.0 7.55 29.8 6.15 28.55 7.1 28.55 7.15 28.55 7.2" fill="#cccc99" fill-rule="evenodd" stroke="none"/>
      <path d="M26.15 12.8 L26.3 12.75 29.9 9.0 M25.75 8.6 L25.6 8.6 M22.3 4.4 L21.65 5.5 20.45 7.35 19.25 3.7 20.7 3.25 16.95 4.0 M21.65 5.5 L20.7 3.25 M26.05 4.45 L23.9 3.85 22.3 4.4 M26.05 4.45 L27.0 7.55 29.8 6.15 31.6 8.25 31.4 8.3 28.35 11.45 26.3 12.75 26.2 12.85 26.15 12.8 M28.55 7.2 L28.55 7.15 28.55 7.1 M28.6 7.2 L28.55 7.15 M31.4 8.3 L29.9 9.0 M27.0 7.55 L25.75 8.6" fill="none" stroke="#000000" stroke-linecap="round" stroke-linejoin="round" stroke-opacity="0.3019608" stroke-width="0.05"/>
      <path d="M16.95 4.0 L17.9 9.25 Q21.75 9.45 26.15 12.8 Z" fill="none" stroke="#feeeb4" stroke-linecap="round" stroke-linejoin="round" stroke-opacity="0.3019608" stroke-width="1.0"/>
      <path d="M18.5 10.05 L30.95 7.45 18.95 11.45 20.8 16.65 18.2 11.95 14.4 12.05 17.3 10.5 14.25 2.35 18.5 10.05" fill="#fcf3d8" fill-opacity="0.7921569" fill-rule="evenodd" stroke="none"/>
      <path d="M21.45 11.15 Q21.95 12.3 24.3 13.0 22.25 12.55 20.95 13.3 L19.75 14.5 17.25 14.75 Q15.85 14.25 15.2 13.0 L12.7 13.9 14.8 12.05 Q14.55 11.2 14.75 10.2 14.95 9.25 15.5 8.65 L15.15 7.25 16.35 8.1 16.45 7.95 18.9 7.75 Q20.25 8.25 20.95 9.55 21.4 10.4 21.45 11.15 M16.3 10.5 Q16.1 11.3 16.45 11.9 16.85 12.6 17.55 12.75 L18.8 12.7 Q19.4 12.25 19.6 11.6 19.75 10.9 19.35 10.2 L18.35 9.25 17.1 9.45 Q16.45 9.9 16.3 10.5" fill="#fcf3d8" fill-opacity="0.3019608" fill-rule="evenodd" stroke="none"/>
      <path d="M16.3 10.5 Q16.45 9.9 17.1 9.45 L18.35 9.25 19.35 10.2 Q19.75 10.9 19.6 11.6 19.4 12.25 18.8 12.7 L17.55 12.75 Q16.85 12.6 16.45 11.9 16.1 11.3 16.3 10.5" fill="#fcf3d8" fill-opacity="0.84313726" fill-rule="evenodd" stroke="none"/>
      <path d="M36.5 37.55 L36.7 37.4 36.7 37.45 36.5 37.55" fill="#d6c99a" fill-rule="evenodd" stroke="none"/>
      <path d="M36.7 28.05 L36.75 28.0 36.7 28.05" fill="#ad8c64" fill-rule="evenodd" stroke="none"/>
      <path d="M36.7 37.45 L36.7 37.4 36.7 37.45" fill="#d4c7a7" fill-rule="evenodd" stroke="none"/>
      <path d="M38.25 24.4 L38.25 24.45 39.05 26.15 39.05 26.2 36.75 28.0 36.7 28.05 39.3 30.8 38.85 32.6 37.25 32.65 35.2 32.9 37.45 36.05 37.3 36.1 36.7 37.4 36.5 37.55 32.1 33.85 Q34.0 30.75 33.15 25.45 L38.25 24.4" fill="#dadab6" fill-rule="evenodd" stroke="none"/>
      <path d="M36.7 37.4 L37.3 36.1 37.45 36.05 38.7 35.8 37.95 37.2 36.7 37.45 36.7 37.4 M38.85 32.6 L39.3 30.8 41.1 30.9 40.6 32.55 38.85 32.6 M39.05 26.15 L38.25 24.45 40.4 24.2 41.2 25.95 39.05 26.15" fill="#aea873" fill-rule="evenodd" stroke="none"/>
      <path d="M36.75 28.0 L39.05 26.2 39.05 26.15 41.2 25.95 38.95 28.05 36.75 28.0" fill="#777755" fill-rule="evenodd" stroke="none"/>
      <path d="M37.45 36.05 L35.2 32.9 37.25 32.65 38.7 35.8 37.45 36.05 M39.3 30.8 L36.7 28.05 36.75 28.0 38.95 28.05 41.1 30.9 39.3 30.8" fill="#b8b183" fill-rule="evenodd" stroke="none"/>
      <path d="M38.25 24.45 L38.5 24.35 38.25 24.4 33.15 25.45 Q34.0 30.75 32.1 33.85 L36.5 37.55 36.7 37.4 37.3 36.1 37.45 36.05 35.2 32.9 37.25 32.65 38.85 32.6 39.3 30.8 36.7 28.05 36.75 28.0 39.05 26.2 39.05 26.15 38.25 24.45 40.4 24.2 41.2 25.95 38.95 28.05 41.1 30.9 40.6 32.55 38.85 32.6 M38.95 28.05 L36.75 28.0 M39.05 26.15 L41.2 25.95 M39.3 30.8 L41.1 30.9 M36.7 37.45 L36.5 37.55 M36.7 37.45 L37.95 37.2 38.7 35.8 37.45 36.05 M37.25 32.65 L38.7 35.8" fill="none" stroke="#000000" stroke-linecap="round" stroke-linejoin="round" stroke-opacity="0.3019608" stroke-width="0.05"/>
      <path d="M37.0 30.45 L35.1 21.3 38.0 30.15 41.95 28.75 38.4 30.7 38.5 33.5 37.35 31.3 31.35 33.6 37.0 30.45" fill="#fcf3d8" fill-opacity="0.7921569" fill-rule="evenodd" stroke="none"/>
      <path d="M37.85 28.3 Q38.7 27.95 39.2 26.2 38.85 27.7 39.4 28.7 L40.35 29.55 Q40.8 30.45 40.5 31.4 40.15 32.45 39.2 32.9 L39.9 34.75 38.5 33.15 37.1 33.25 Q36.4 33.05 35.95 32.65 L34.95 32.95 35.6 32.0 35.5 31.95 Q35.1 31.1 35.35 30.15 35.7 29.15 36.65 28.65 37.25 28.3 37.85 28.3 M37.35 32.1 L38.35 31.95 39.0 31.2 Q39.15 30.7 38.95 30.3 38.7 29.8 38.15 29.7 L37.15 29.85 Q36.6 30.1 36.4 30.6 36.35 31.05 36.6 31.55 36.9 31.95 37.35 32.1" fill="#fcf3d8" fill-opacity="0.3019608" fill-rule="evenodd" stroke="none"/>
      <path d="M37.35 32.1 Q36.9 31.95 36.6 31.55 36.35 31.05 36.4 30.6 36.6 30.1 37.15 29.85 L38.15 29.7 Q38.7 29.8 38.95 30.3 39.15 30.7 39.0 31.2 L38.35 31.95 37.35 32.1" fill="#fcf3d8" fill-opacity="0.84313726" fill-rule="evenodd" stroke="none"/>
    </g>
    <g id="sprite0" transform="matrix(1.0, 0.0, 0.0, 1.0, 1.9, 0.85)">
      <use height="32.05" transform="matrix(1.0, 0.0, 0.0, 1.0, -1.9, -0.85)" width="23.3" xlink:href="#shape1"/>
    </g>
    <g id="shape1" transform="matrix(1.0, 0.0, 0.0, 1.0, 1.9, 0.85)">
      <path d="M19.2 6.0 L18.1 10.45 Q16.75 15.35 16.75 19.35 16.75 21.75 17.5 26.15 L18.2 30.4 18.05 31.2 Q16.85 30.75 15.8 30.0 L14.85 29.05 14.3 25.8 13.8 19.35 Q13.8 16.2 15.35 15.65 14.35 12.95 15.45 8.95 16.1 6.55 16.2 4.7 L14.35 4.5 Q13.0 4.5 9.85 5.35 L9.1 5.6 8.45 6.85 Q6.3 11.8 6.3 15.4 6.3 19.5 7.3 23.75 L8.05 26.8 6.95 27.05 4.55 26.6 Q4.1 25.05 3.85 22.7 L3.4 15.4 Q3.4 12.3 3.55 11.8 3.75 11.2 4.85 11.2 4.45 9.15 4.95 7.55 L3.25 8.85 Q1.35 10.3 0.75 10.3 -0.55 10.3 -1.35 9.1 L-1.9 7.8 Q-1.9 6.15 1.75 3.4 5.05 0.9 7.65 0.0 12.9 -1.9 17.5 0.5 21.4 2.5 21.4 4.7 21.4 6.3 19.95 6.3 L19.2 6.0" fill="#ffffff" fill-rule="evenodd" stroke="none"/>
    </g>
    <g id="shape2" transform="matrix(1.0, 0.0, 0.0, 1.0, -1.8, -2.95)">
      <path d="M23.8 3.9 L26.1 4.3 27.1 7.5 29.95 6.05 31.8 8.15 28.7 11.4 30.3 12.75 Q34.9 17.0 36.0 23.15 L36.3 24.65 40.4 24.1 41.25 25.95 Q40.1 26.9 38.9 27.9 L41.15 30.9 40.7 32.6 37.3 32.75 38.7 35.9 37.9 37.4 36.7 37.65 36.45 37.8 33.35 35.1 32.2 36.4 Q28.15 38.6 24.95 39.5 21.75 40.4 19.75 40.3 17.65 40.2 15.9 41.0 13.3 37.45 12.35 36.75 L11.35 35.8 8.95 32.8 Q7.3 30.65 6.6 28.05 L5.85 25.3 4.4 25.35 2.7 24.95 2.6 25.0 2.4 23.5 2.25 23.35 5.1 22.15 2.05 19.95 2.25 18.4 5.35 17.55 5.2 17.5 3.75 14.95 4.95 14.1 7.1 15.9 Q7.35 15.25 9.2 13.15 11.05 11.0 15.15 10.0 L17.2 9.3 17.85 9.1 16.7 3.9 20.55 3.2 21.55 5.5 22.3 4.3 23.8 3.9 Z" fill="none" stroke="#000000" stroke-linecap="round" stroke-linejoin="round" stroke-opacity="0.4509804" stroke-width="0.5"/>
    </g>
  </defs>
</svg>
