<?xml version="1.0" encoding="UTF-8" standalone="no"?>
<svg xmlns:xlink="http://www.w3.org/1999/xlink" height="440.0px" width="440.0px" xmlns="http://www.w3.org/2000/svg">
  <g transform="matrix(10.0, 0.0, 0.0, 10.0, 0.0, 0.0)">
    <use height="44.0" transform="matrix(1.0, 0.0, 0.0, 1.0, 0.0, 0.0)" width="44.0" xlink:href="#shape0"/>
    <use height="20.95" transform="matrix(-0.0829, 0.7137, -0.7903, -0.045, 30.95, 26.1)" width="24.45" xlink:href="#sprite0"/>
    <use height="20.95" transform="matrix(0.691, 0.1941, 0.2582, -0.7474, 11.35, 16.85)" width="24.45" xlink:href="#sprite0"/>
  </g>
  <defs>
    <g id="shape0" transform="matrix(1.0, 0.0, 0.0, 1.0, 0.0, 0.0)">
      <path d="M44.0 44.0 L0.0 44.0 0.0 0.0 44.0 0.0 44.0 44.0" fill="#43adca" fill-opacity="0.0" fill-rule="evenodd" stroke="none"/>
      <path d="M20.05 13.95 L21.45 16.3 18.55 19.6 16.95 17.0 Q17.55 17.5 18.2 17.25 L19.45 16.0 19.45 15.8 18.95 13.7 Q18.15 12.9 17.5 13.0 L16.95 13.1 17.95 12.1 19.15 12.35 20.05 13.95" fill="#cccc99" fill-rule="evenodd" stroke="none"/>
      <path d="M29.05 18.25 L29.15 18.4 29.0 18.3 Q27.0 16.45 25.55 16.6 L25.6 14.6 24.95 12.35 29.05 18.25 M16.95 32.85 L16.95 32.8 17.0 32.95 16.95 32.85" fill="#8f8b67" fill-rule="evenodd" stroke="none"/>
      <path d="M26.5 21.0 L27.15 20.95 27.5 20.95 27.85 21.3 27.95 21.5 28.6 22.95 Q29.15 24.3 29.15 25.6 L29.15 25.9 28.9 27.3 28.6 27.75 28.5 27.85 28.35 26.3 27.9 25.0 26.65 23.35 26.0 22.55 25.75 22.05 Q25.75 21.65 26.0 21.35 L26.5 21.0 M20.05 32.9 L19.3 33.1 19.25 33.1 Q18.75 33.1 18.0 32.4 17.4 31.8 17.15 31.05 L16.95 29.85 Q16.95 28.95 17.35 28.4 L17.55 28.15 17.75 28.75 Q17.85 29.5 18.1 29.9 L18.15 30.0 Q18.55 30.8 19.5 31.45 L20.25 32.2 20.25 32.35 20.05 32.9 M16.5 16.3 L15.55 14.7 16.95 13.1 17.5 13.0 Q18.15 12.9 18.95 13.7 18.7 17.05 16.5 16.3" fill="#ffffff" fill-rule="evenodd" stroke="none"/>
      <path d="M10.6 23.8 L10.6 14.4 Q12.8 11.3 17.95 12.1 L16.95 13.1 15.6 12.7 13.3 14.7 13.3 20.65 13.8 21.5 Q14.5 22.15 15.95 22.0 L17.7 21.7 Q18.9 21.15 20.1 20.2 21.65 18.9 22.45 17.6 L22.5 16.55 Q22.5 15.75 22.05 15.1 21.6 14.45 20.65 14.1 L20.05 13.95 19.15 12.35 22.1 13.65 22.65 14.25 Q23.85 15.9 23.05 18.3 22.45 19.95 20.85 20.55 L22.7 20.0 Q24.35 19.05 24.5 16.7 L24.55 16.15 24.6 17.95 Q23.7 20.25 21.3 21.4 L19.65 21.75 Q16.7 22.25 16.5 27.15 L16.5 27.95 16.75 31.6 16.95 32.8 14.8 29.85 12.7 26.8 10.6 23.8 M12.25 18.55 L11.65 21.45 11.65 21.9 11.85 22.95 12.45 24.75 Q12.8 25.7 13.45 26.5 14.65 27.5 15.45 27.4 16.65 25.55 15.9 24.25 15.0 24.3 14.05 23.6 L12.7 22.35 Q12.25 20.9 12.25 19.0 L12.25 18.55 M23.1 25.8 Q23.25 27.5 22.95 28.65 21.65 31.05 20.4 29.45 21.2 25.55 23.1 25.8" fill="#1a0121" fill-rule="evenodd" stroke="none"/>
      <path d="M26.5 21.0 L26.0 21.35 Q25.75 21.65 25.75 22.05 L26.0 22.55 26.65 23.35 27.9 25.0 28.35 26.3 28.5 27.85 28.6 27.75 27.5 31.0 Q25.85 33.4 22.15 33.7 20.95 33.4 20.05 32.9 L20.25 32.35 20.25 32.2 19.5 31.45 Q18.55 30.8 18.15 30.0 L18.1 29.9 Q17.85 29.5 17.75 28.75 L17.55 28.15 17.35 28.4 17.35 28.05 17.35 26.95 Q17.5 25.6 17.95 24.4 L18.3 23.75 18.75 23.3 Q19.55 22.65 21.15 22.2 L22.15 22.6 Q24.45 23.15 26.0 20.65 L26.5 21.0 M23.1 25.8 L21.9 23.75 18.9 27.0 20.4 29.45 21.9 31.95 24.8 28.6 23.1 25.8" fill="#e8e7d2" fill-rule="evenodd" stroke="none"/>
      <path d="M20.05 13.95 L20.65 14.1 Q21.6 14.45 22.05 15.1 22.5 15.75 22.5 16.55 L22.45 17.6 Q21.65 18.9 20.1 20.2 18.9 21.15 17.7 21.7 L15.95 22.0 Q14.5 22.15 13.8 21.5 L13.3 20.65 Q14.8 16.4 16.5 16.3 L16.95 17.0 18.55 19.6 21.45 16.3 20.05 13.95 M12.25 18.55 L12.25 19.0 Q12.25 20.9 12.7 22.35 L14.05 23.6 Q15.0 24.3 15.9 24.25 16.65 25.55 15.45 27.4 14.65 27.5 13.45 26.5 12.8 25.7 12.45 24.75 L11.85 22.95 11.65 21.9 11.65 21.45 12.25 18.55 M23.1 25.8 Q21.2 25.55 20.4 29.45 L18.9 27.0 21.9 23.75 23.1 25.8" fill="#280239" fill-rule="evenodd" stroke="none"/>
      <path d="M25.1 18.2 Q26.4 18.4 27.5 19.1 28.4 19.65 29.15 20.55 L30.05 21.9 30.55 25.15 Q30.85 28.35 30.45 30.8 29.55 32.5 28.5 33.55 25.8 34.7 21.75 34.2 L17.0 32.95 16.95 32.8 16.75 31.6 16.5 27.95 16.5 27.15 Q16.7 22.25 19.65 21.75 L21.3 21.4 22.5 20.95 22.6 20.95 Q24.45 20.0 25.1 18.2 M28.6 27.75 L28.9 27.3 29.15 25.9 29.15 25.6 Q29.15 24.3 28.6 22.95 L27.95 21.5 27.85 21.3 27.5 20.95 27.15 20.95 26.5 21.0 26.0 20.65 Q24.45 23.15 22.15 22.6 L21.15 22.2 Q19.55 22.65 18.75 23.3 L18.3 23.75 17.95 24.4 Q17.5 25.6 17.35 26.95 L17.35 28.05 17.35 28.4 Q16.95 28.95 16.95 29.85 L17.15 31.05 Q17.4 31.8 18.0 32.4 18.75 33.1 19.25 33.1 L19.3 33.1 20.05 32.9 Q20.95 33.4 22.15 33.7 25.85 33.4 27.5 31.0 L28.6 27.75" fill="#d9d6b7" fill-rule="evenodd" stroke="none"/>
      <path d="M29.15 18.4 L29.15 18.45 30.2 19.95 31.05 21.15 31.05 24.9 31.05 31.6 27.1 35.65 21.75 34.2 Q25.8 34.7 28.5 33.55 29.55 32.5 30.45 30.8 30.85 28.35 30.55 25.15 L30.05 21.9 29.15 20.55 Q28.4 19.65 27.5 19.1 26.4 18.4 25.1 18.2 L25.55 16.6 Q27.0 16.45 29.0 18.3 L29.15 18.4 M19.15 12.35 L17.95 12.1 18.55 11.4 18.55 11.45 19.15 12.35" fill="#b5b377" fill-rule="evenodd" stroke="none"/>
      <path d="M10.6 12.65 L14.4 9.25 19.15 10.5 22.45 11.35 24.1 11.85 24.65 12.0 24.95 12.35 25.6 14.6 25.55 16.6 25.1 18.2 Q24.45 20.0 22.6 20.95 L22.5 20.95 21.3 21.4 Q23.7 20.25 24.6 17.95 L24.55 16.15 Q24.6 14.05 23.6 12.9 L23.45 12.9 Q21.7 12.45 22.1 13.65 L19.15 12.35 18.55 11.45 18.55 11.4 17.95 12.1 Q12.8 11.3 10.6 14.4 L10.6 12.65 M20.4 29.45 Q21.65 31.05 22.95 28.65 23.25 27.5 23.1 25.8 L24.8 28.6 21.9 31.95 20.4 29.45" fill="#000000" fill-rule="evenodd" stroke="none"/>
      <path d="M16.5 16.3 Q14.8 16.4 13.3 20.65 L13.3 14.7 15.6 12.7 16.95 13.1 15.55 14.7 16.5 16.3" fill="#552e5a" fill-rule="evenodd" stroke="none"/>
      <path d="M16.95 17.0 L16.5 16.3 Q18.7 17.05 18.95 13.7 L19.45 15.8 19.45 16.0 18.2 17.25 Q17.55 17.5 16.95 17.0" fill="#e2e1c7" fill-rule="evenodd" stroke="none"/>
      <path d="M22.1 13.65 Q21.7 12.45 23.45 12.9 L23.6 12.9 Q24.6 14.05 24.55 16.15 L24.5 16.7 Q24.35 19.05 22.7 20.0 L20.85 20.55 Q22.45 19.95 23.05 18.3 23.85 15.9 22.65 14.25 L22.1 13.65" fill="#403c44" fill-rule="evenodd" stroke="none"/>
      <path d="M14.4 35.3 L14.45 35.3 14.45 35.35 14.4 35.3" fill="#ebebd8" fill-rule="evenodd" stroke="none"/>
      <path d="M27.85 3.55 L28.15 4.6 Q27.6 6.0 26.6 6.75 L25.65 7.2 24.7 7.15 21.2 6.75 18.0 6.0 Q15.8 5.35 15.35 4.4 L15.4 3.0 10.7 7.35 13.0 6.55 16.8 7.05 20.5 8.05 19.15 10.5 14.4 9.25 10.6 12.65 8.0 14.85 6.95 21.65 7.35 22.75 5.1 24.1 5.1 12.3 9.5 7.85 16.25 1.95 19.15 1.2 21.4 1.9 20.15 5.65 25.45 2.9 27.85 3.55 M23.6 9.35 L24.1 9.6 25.05 10.15 25.45 10.35 27.3 11.8 30.1 15.45 31.2 17.2 29.85 17.85 29.05 18.25 24.95 12.35 24.65 12.0 24.1 11.85 22.45 11.35 23.6 9.35 M29.85 12.3 L28.3 9.95 28.0 8.8 Q27.8 6.75 29.95 6.8 L33.1 8.15 33.15 8.15 34.35 9.85 Q29.95 7.1 29.85 12.3 M8.0 25.35 L8.0 26.1 10.15 29.15 12.3 32.2 13.25 32.4 Q15.0 32.4 14.8 30.05 L14.8 29.85 16.95 32.8 16.95 32.85 14.45 35.3 14.4 35.3 12.85 33.0 12.25 34.15 11.5 35.6 5.25 26.7 8.0 25.35" fill="#ffa004" fill-rule="evenodd" stroke="none"/>
      <path d="M5.1 24.1 L7.35 22.75 8.0 24.5 8.0 25.35 5.25 26.7 5.1 26.5 5.1 24.1 M19.15 10.5 L20.5 8.05 23.6 9.35 22.45 11.35 19.15 10.5 M30.1 15.45 L31.2 14.45 32.15 15.95 33.2 17.7 34.7 18.6 Q35.7 18.6 36.7 17.05 L36.95 16.65 36.9 13.5 37.85 17.2 32.8 20.55 32.1 19.0 31.2 17.2 30.1 15.45 M10.15 29.15 Q10.65 25.9 12.7 26.8 L14.8 29.85 14.8 30.05 Q15.0 32.4 13.25 32.4 L12.3 32.2 10.15 29.15 M37.85 26.65 L38.55 27.85 38.0 27.9 35.7 28.3 37.85 26.65 M34.2 34.3 L34.1 34.4 26.0 41.5 15.0 38.5 Q15.8 37.25 16.7 36.15 L19.15 37.7 24.65 38.05 27.1 35.65 31.05 31.6 31.05 24.9 33.35 23.95 34.1 32.75 34.2 32.75 34.2 34.3" fill="#c16100" fill-rule="evenodd" stroke="none"/>
      <path d="M8.0 26.1 L10.6 23.8 12.7 26.8 Q10.65 25.9 10.15 29.15 L8.0 26.1 M35.85 12.0 L36.9 13.5 36.95 16.65 36.7 17.05 Q35.7 18.6 34.7 18.6 L33.2 17.7 32.15 15.95 Q36.05 16.15 35.85 12.0 M38.55 20.0 L38.55 24.2 Q36.85 20.6 34.45 27.6 L34.9 21.1 Q36.15 18.55 37.75 18.7 L38.55 20.0 M38.55 27.85 L38.55 29.95 34.2 34.3 34.2 32.75 34.2 31.15 Q36.1 31.15 38.0 27.9 L38.55 27.85 M15.0 38.5 L13.15 38.0 13.15 37.95 14.45 35.35 14.45 35.3 16.1 35.75 16.7 36.15 Q15.8 37.25 15.0 38.5 M30.2 19.95 L32.1 19.0 32.8 20.55 33.2 21.6 33.2 21.65 33.35 23.95 31.05 24.9 31.05 21.15 30.2 19.95" fill="#6c2206" fill-rule="evenodd" stroke="none"/>
      <path d="M20.15 5.65 L21.4 1.9 22.0 3.3 20.15 5.65 M31.2 14.45 L29.85 12.3 Q29.95 7.1 34.35 9.85 L35.85 12.0 Q36.05 16.15 32.15 15.95 L31.2 14.45 M13.15 37.95 L11.5 35.6 12.25 34.15 12.85 33.0 14.4 35.3 14.45 35.35 13.15 37.95 M31.2 17.2 L32.1 19.0 30.2 19.95 29.15 18.45 29.15 18.4 29.05 18.25 29.85 17.85 31.2 17.2 M35.7 28.3 L38.0 27.9 Q36.1 31.15 34.2 31.15 L34.45 27.6 Q36.85 20.6 38.55 24.2 L35.7 28.3" fill="#963807" fill-rule="evenodd" stroke="none"/>
      <path d="M8.0 14.85 L10.6 12.65 10.6 14.4 10.6 23.8 8.0 26.1 8.0 25.35 8.0 24.5 9.15 21.5 9.2 21.4 8.0 14.85 M38.55 24.2 L37.85 26.65 35.7 28.3 38.55 24.2" fill="#4f0f00" fill-rule="evenodd" stroke="none"/>
      <path d="M20.5 8.05 L16.8 7.05 13.0 6.55 10.7 7.35 15.4 3.0 15.35 4.4 Q15.8 5.35 18.0 6.0 L21.2 6.75 24.7 7.15 25.65 7.2 26.6 6.75 Q27.6 6.0 28.15 4.6 L27.85 3.55 33.1 8.1 33.1 8.15 29.95 6.8 Q27.8 6.75 28.0 8.8 L28.3 9.95 29.85 12.3 31.2 14.45 30.1 15.45 27.3 11.8 25.45 10.35 25.05 10.15 24.1 9.6 23.6 9.35 20.5 8.05 M25.45 2.9 L20.15 5.65 22.0 3.3 25.45 2.9 M7.35 22.75 L6.95 21.65 8.0 14.85 9.2 21.4 9.15 21.5 8.0 24.5 7.35 22.75 M37.85 17.2 L38.55 20.0 37.75 18.7 Q36.15 18.55 34.9 21.1 L34.45 27.6 34.2 31.15 34.2 32.75 34.1 32.75 33.35 23.95 33.2 21.65 33.2 21.6 32.8 20.55 37.85 17.2 M21.75 34.2 L27.1 35.65 24.65 38.05 20.1 35.75 16.1 35.75 14.45 35.3 16.95 32.85 17.0 32.95 21.75 34.2" fill="#fbb541" fill-rule="evenodd" stroke="none"/>
      <path d="M16.7 36.15 L16.1 35.75 20.1 35.75 24.65 38.05 19.15 37.7 16.7 36.15" fill="#fad541" fill-rule="evenodd" stroke="none"/>
      <path d="M27.85 3.55 L25.45 2.9 M21.4 1.9 L19.15 1.2 16.25 1.95 9.5 7.85 5.1 12.3 5.1 24.1 M33.1 8.15 L33.1 8.1 27.85 3.55 M21.4 1.9 L22.0 3.3 25.45 2.9 M5.25 26.7 L5.1 26.5 5.1 24.1 M35.85 12.0 L36.9 13.5 37.85 17.2 38.55 20.0 38.55 24.2 37.85 26.65 38.55 27.85 38.55 29.95 34.2 34.3 34.1 34.4 26.0 41.5 15.0 38.5 13.15 38.0 13.15 37.95 11.5 35.6 5.25 26.7 M33.1 8.15 L33.15 8.15 34.35 9.85 35.85 12.0" fill="none" stroke="#000000" stroke-linecap="round" stroke-linejoin="round" stroke-opacity="0.3019608" stroke-width="0.5"/>
      <path d="M10.6 12.65 L14.4 9.25 19.15 10.5 M10.6 23.8 L10.6 14.4 M12.7 26.8 L10.6 23.8 M29.15 18.4 L29.15 18.45 30.2 19.95 M21.75 34.2 L27.1 35.65 31.05 31.6 31.05 24.9 31.05 21.15 30.2 19.95 M22.45 11.35 L19.15 10.5 M24.1 11.85 L22.45 11.35 M16.95 32.8 L14.8 29.85 12.7 26.8 M17.0 32.95 L16.95 32.8 M17.0 32.95 L21.75 34.2 M24.95 12.35 L29.05 18.25" fill="none" stroke="#000000" stroke-linecap="round" stroke-linejoin="round" stroke-opacity="0.3019608" stroke-width="0.05"/>
    </g>
    <g id="sprite0" transform="matrix(1.0, 0.0, 0.0, 1.0, 0.0, 0.0)">
      <use height="20.95" transform="matrix(1.0, 0.0, 0.0, 1.0, 0.0, 0.0)" width="24.45" xlink:href="#shape1"/>
    </g>
    <g id="shape1" transform="matrix(1.0, 0.0, 0.0, 1.0, 0.0, 0.0)">
      <path d="M14.85 11.4 Q15.8 11.6 16.25 12.45 16.85 13.3 16.6 14.35 16.4 15.3 15.55 15.9 14.65 16.4 13.65 16.2 12.65 15.9 12.1 15.1 11.6 14.2 11.8 13.2 12.1 12.2 12.9 11.65 13.8 11.15 14.85 11.4" fill="#ffffff" fill-opacity="0.5882353" fill-rule="evenodd" stroke="none"/>
      <path d="M14.85 11.4 Q13.8 11.15 12.9 11.65 12.1 12.2 11.8 13.2 11.6 14.2 12.1 15.1 12.65 15.9 13.65 16.2 14.65 16.4 15.55 15.9 16.4 15.3 16.6 14.35 16.85 13.3 16.25 12.45 15.8 11.6 14.85 11.4 M18.2 11.35 L20.15 11.25 18.75 12.55 Q19.05 13.8 18.8 15.05 18.5 16.35 17.65 17.3 L19.1 20.95 16.55 18.25 Q14.8 19.3 12.8 18.85 10.8 18.35 9.75 16.65 9.05 15.5 8.95 14.3 7.75 12.35 4.85 11.5 8.3 12.45 9.7 11.4 10.3 10.4 11.35 9.75 13.1 8.75 15.1 9.15 16.95 9.5 18.1 11.15 L18.2 11.35" fill="#ffffff" fill-opacity="0.1764706" fill-rule="evenodd" stroke="none"/>
      <path d="M15.4 13.55 L18.1 17.55 13.35 14.65 7.05 18.5 12.75 13.55 0.0 0.0 14.25 12.25 24.45 5.95 15.4 13.55" fill="#ffffff" fill-opacity="0.5882353" fill-rule="evenodd" stroke="none"/>
    </g>
  </defs>
</svg>
