<?xml version="1.0" encoding="UTF-8" standalone="no"?>
<svg xmlns:xlink="http://www.w3.org/1999/xlink" height="440.0px" width="440.0px" xmlns="http://www.w3.org/2000/svg">
  <g transform="matrix(10.0, 0.0, 0.0, 10.0, 0.0, 0.0)">
    <use height="44.0" transform="matrix(1.0, 0.0, 0.0, 1.0, 0.0, 0.0)" width="44.0" xlink:href="#shape0"/>
    <use height="20.95" transform="matrix(-0.451, 0.0624, -0.1022, -0.4621, 21.75, 17.0)" width="24.45" xlink:href="#sprite0"/>
    <use height="20.95" transform="matrix(0.2257, 0.3716, 0.4495, -0.2093, 16.2, 34.25)" width="24.45" xlink:href="#sprite0"/>
  </g>
  <defs>
    <g id="shape0" transform="matrix(1.0, 0.0, 0.0, 1.0, 0.0, 0.0)">
      <path d="M44.0 44.0 L0.0 44.0 0.0 0.0 44.0 0.0 44.0 44.0" fill="#43adca" fill-opacity="0.0" fill-rule="evenodd" stroke="none"/>
      <path d="M12.55 22.7 Q11.8 23.55 10.85 23.55 9.0 23.55 9.0 21.95 9.0 21.0 9.6 20.3 L10.75 19.15 12.15 18.7 Q11.3 19.5 11.3 20.85 L11.4 21.7 11.75 22.35 Q12.0 22.6 12.55 22.7 M14.05 16.05 L14.2 15.9 12.85 15.5 12.65 15.45 12.5 15.4 9.45 15.2 Q7.75 15.2 7.75 13.55 7.75 12.85 8.35 12.3 L8.45 12.2 Q9.1 11.65 10.3 11.35 L10.85 11.2 14.3 12.5 14.4 12.5 Q14.25 12.85 14.25 13.35 14.25 14.3 15.2 15.9 L15.6 16.55 Q16.2 17.75 16.3 18.8 15.75 17.0 14.05 16.05 M19.95 10.5 L18.2 8.2 Q17.45 7.1 17.55 6.65 17.7 6.2 18.0 5.85 L18.3 5.55 Q19.3 4.8 21.85 4.8 L22.65 5.15 23.1 5.3 22.35 6.2 Q21.6 7.35 21.6 8.55 21.6 9.5 22.2 10.7 L22.7 11.65 22.85 12.45 Q22.85 13.5 21.7 14.85 L21.1 15.65 21.85 16.2 22.15 16.9 21.95 17.5 21.35 17.85 Q20.7 18.2 19.85 19.65 L18.8 20.9 Q18.0 20.65 18.0 19.5 18.0 18.4 18.3 17.6 L18.45 17.4 Q18.65 16.95 18.95 16.85 L19.35 16.55 19.6 16.3 20.2 17.6 20.2 17.25 20.35 16.7 20.5 16.1 20.85 14.2 20.85 13.4 20.85 13.3 20.85 12.7 Q20.7 11.45 20.05 10.4 L19.85 10.05 19.25 9.35 19.15 9.25 19.15 9.2 19.6 10.05 19.7 10.1 19.95 10.5 M24.55 20.0 L24.75 19.85 25.05 19.5 25.2 19.35 Q26.35 18.3 27.65 18.1 L28.6 17.95 29.25 18.0 Q30.15 18.15 30.75 18.6 L31.0 18.8 29.8 18.65 Q27.6 18.65 25.65 19.5 L24.55 20.0 M21.45 27.05 Q20.55 29.55 22.95 30.85 L22.85 30.9 Q22.6 31.45 21.85 31.45 21.25 31.45 20.75 31.05 20.3 30.6 20.3 29.85 20.3 28.85 21.0 27.8 L21.45 27.05" fill="#765301" fill-rule="evenodd" stroke="none"/>
      <path d="M28.1 4.05 L28.15 4.1 29.05 5.45 29.9 7.8 Q29.0 8.65 27.5 11.95 L27.5 11.85 Q28.1 8.8 27.05 7.15 L28.1 4.05 24.05 8.65 24.4 7.0 24.5 6.5 25.4 5.3 28.1 4.05 M33.35 16.2 L33.75 16.5 34.05 16.9 Q32.85 17.7 31.9 19.15 L31.7 19.65 31.55 19.5 31.15 18.95 31.0 18.8 30.75 18.6 33.35 16.2 M31.5 21.9 L32.15 23.2 Q31.1 24.05 30.0 26.05 L30.0 25.8 29.9 24.9 29.5 24.1 29.35 23.9 31.5 21.9 M18.1 15.9 L18.45 13.95 20.85 12.7 20.85 13.3 18.1 15.9" fill="#2b1e00" fill-rule="evenodd" stroke="none"/>
      <path d="M29.9 7.8 L30.0 8.2 30.05 9.55 Q30.05 11.95 28.8 13.65 L25.65 16.6 26.7 15.15 Q27.5 13.75 27.5 11.95 29.0 8.65 29.9 7.8 M24.25 17.7 L24.25 18.15 24.65 18.65 25.4 18.8 26.8 17.85 27.5 17.2 27.85 16.9 28.15 16.65 28.9 16.15 30.2 15.65 30.3 15.65 27.65 18.1 Q26.35 18.3 25.2 19.35 L25.05 19.5 24.75 19.85 24.55 20.0 24.5 20.0 24.4 20.15 24.25 20.3 24.1 20.4 23.1 21.0 22.35 20.85 22.15 20.85 21.95 20.5 21.9 20.35 Q21.9 19.95 22.05 19.65 L22.85 18.75 24.25 17.7 M34.05 16.9 L34.25 17.15 34.4 17.9 34.35 18.45 31.65 21.05 31.15 21.5 31.7 21.0 31.7 20.85 31.7 20.9 31.75 20.85 31.85 20.35 31.7 19.65 31.9 19.15 Q32.85 17.7 34.05 16.9 M32.15 23.2 L32.15 23.3 32.15 23.75 32.15 24.0 31.75 25.15 31.55 25.55 29.15 27.85 29.25 27.7 29.0 28.0 29.6 27.15 30.0 26.05 Q31.1 24.05 32.15 23.2 M10.75 19.15 L14.05 16.05 Q15.75 17.0 16.3 18.8 L16.35 18.8 16.35 19.1 16.55 19.95 16.0 19.5 Q14.95 18.8 13.55 18.6 L13.0 18.6 12.65 18.6 12.15 18.7 10.75 19.15 M20.85 14.2 L20.5 16.1 20.35 16.7 20.2 17.25 20.2 17.6 19.6 16.3 19.55 16.15 20.85 14.2 M18.45 13.95 L17.55 12.8 17.75 12.6 20.05 10.4 Q20.7 11.45 20.85 12.7 L18.45 13.95 M27.9 21.7 L26.9 22.6 25.6 22.55 23.75 22.65 23.45 22.7 24.2 22.0 Q24.8 21.15 25.8 21.15 L26.05 21.2 27.9 21.7" fill="#3c2900" fill-rule="evenodd" stroke="none"/>
      <path d="M23.25 4.6 L23.55 4.6 Q24.5 4.7 25.4 5.3 L24.5 6.5 Q23.95 5.75 23.1 5.3 L22.65 5.15 21.85 4.8 23.25 4.6 M27.05 7.15 Q28.1 8.8 27.5 11.85 L26.6 9.55 25.85 8.5 27.05 7.15 M17.55 12.8 L17.5 12.75 15.95 12.65 14.4 12.5 14.3 12.5 10.85 11.2 13.55 9.9 14.8 10.25 15.8 10.45 17.75 12.6 17.55 12.8" fill="#db9902" fill-rule="evenodd" stroke="none"/>
      <path d="M30.3 15.65 L31.15 15.5 31.3 15.5 Q29.95 16.5 29.25 18.0 L28.6 17.95 27.65 18.1 30.3 15.65 M8.45 12.2 L10.95 9.9 Q11.45 9.45 12.5 9.15 L15.9 8.95 Q15.0 9.4 14.8 10.25 L13.55 9.9 10.85 11.2 10.3 11.35 Q9.1 11.65 8.45 12.2 M18.3 5.55 L20.55 3.45 Q22.5 1.85 24.1 2.3 23.45 3.25 23.25 4.6 L21.85 4.8 Q19.3 4.8 18.3 5.55" fill="#c18702" fill-rule="evenodd" stroke="none"/>
      <path d="M24.1 2.3 Q25.85 2.3 26.4 2.75 L28.1 4.05 25.4 5.3 Q24.5 4.7 23.55 4.6 L23.25 4.6 Q23.45 3.25 24.1 2.3 M31.3 15.5 L31.85 15.55 Q32.7 15.65 33.3 16.15 L33.35 16.2 30.75 18.6 Q30.15 18.15 29.25 18.0 29.95 16.5 31.3 15.5 M31.15 21.5 L31.45 21.8 31.5 21.9 29.35 23.9 29.5 24.1 29.9 24.9 30.0 25.8 30.0 26.05 29.6 27.15 29.0 28.0 29.25 27.7 29.15 27.85 28.6 28.3 28.45 28.35 28.3 28.45 Q26.35 29.15 25.8 27.75 L26.0 25.9 Q28.8 27.95 28.2 23.65 L27.95 24.1 27.65 24.4 26.8 23.8 Q26.25 23.15 24.7 23.15 23.9 23.15 23.0 23.6 L22.1 24.0 22.1 23.95 22.8 23.2 Q23.3 22.8 23.55 22.7 L23.75 22.65 25.6 22.55 26.9 22.6 27.9 21.7 28.4 21.85 29.2 22.15 29.3 22.2 29.65 22.15 30.85 21.7 30.95 21.65 31.15 21.5 M15.9 8.95 L17.6 9.25 Q18.75 9.55 19.95 10.5 L19.7 10.1 19.6 10.05 19.15 9.2 19.15 9.25 19.25 9.35 19.85 10.05 20.05 10.4 17.75 12.6 15.8 10.45 14.8 10.25 Q15.0 9.4 15.9 8.95 M28.1 4.05 L27.05 7.15 25.85 8.5 24.05 8.65 28.1 4.05" fill="#8f6401" fill-rule="evenodd" stroke="none"/>
      <path d="M16.5 22.55 L16.35 22.35 15.65 21.65 Q14.75 21.0 14.25 21.0 13.8 21.0 12.9 22.25 L12.55 22.7 Q12.0 22.6 11.75 22.35 L11.4 21.7 Q11.6 19.45 13.55 18.6 14.95 18.8 16.0 19.5 L16.55 19.95 16.35 19.1 16.35 18.8 16.3 18.8 Q16.2 17.75 15.6 16.55 14.45 13.65 15.95 12.65 L17.5 12.75 17.55 12.8 18.45 13.95 18.1 15.9 19.55 16.15 19.6 16.3 19.35 16.55 18.95 16.85 Q18.65 16.95 18.45 17.4 L18.3 17.6 Q18.0 18.4 18.0 19.5 18.0 20.65 18.8 20.9 L19.85 19.65 Q20.7 18.2 21.35 17.85 L21.95 17.5 22.15 16.9 21.85 16.2 21.1 15.65 21.7 14.85 Q22.85 13.5 22.85 12.45 L22.7 11.65 Q21.85 6.85 24.4 7.0 L24.05 8.65 25.85 8.5 26.6 9.55 Q25.85 14.25 23.1 16.9 20.95 18.95 21.85 20.4 L21.9 20.35 21.95 20.5 22.15 20.85 22.35 20.85 23.1 21.0 24.1 20.4 24.25 20.3 24.4 20.15 24.5 20.0 24.55 20.0 25.65 19.5 Q27.6 18.65 29.8 18.65 L31.0 18.8 31.15 18.95 31.55 19.5 31.7 19.65 Q30.5 21.45 26.05 21.2 L25.8 21.15 Q24.8 21.15 24.2 22.0 L23.45 22.7 23.75 22.65 23.55 22.7 Q23.3 22.8 22.8 23.2 L22.1 23.95 22.1 24.0 23.0 23.6 Q23.9 23.15 24.7 23.15 26.25 23.15 26.8 23.8 L27.65 24.4 27.95 24.1 28.2 23.65 Q28.8 27.95 26.0 25.9 L25.95 25.1 25.6 24.75 24.75 24.75 24.65 24.95 24.6 24.75 24.4 24.7 23.8 24.5 Q22.5 25.25 22.0 26.3 22.85 27.35 23.1 29.0 L23.1 29.6 22.95 30.85 Q20.55 29.55 21.45 27.05 L21.6 26.7 21.7 26.25 21.7 26.15 Q21.7 24.9 21.1 24.2 L20.55 23.65 18.6 24.7 18.05 24.15 16.6 22.6 16.5 22.55" fill="#6b4a00" fill-rule="evenodd" stroke="none"/>
      <path d="M25.65 16.6 L25.45 16.75 24.7 17.4 24.25 17.7 22.85 18.75 22.05 19.65 Q21.9 19.95 21.9 20.35 L21.85 20.4 Q20.95 18.95 23.1 16.9 25.85 14.25 26.6 9.55 L27.5 11.85 27.5 11.95 Q27.5 13.75 26.7 15.15 L25.65 16.6 M23.1 5.3 Q23.95 5.75 24.5 6.5 L24.4 7.0 Q21.85 6.85 22.7 11.65 L22.2 10.7 Q21.6 9.5 21.6 8.55 21.6 7.35 22.35 6.2 L23.1 5.3 M15.95 12.65 Q14.45 13.65 15.6 16.55 L15.2 15.9 Q14.25 14.3 14.25 13.35 14.25 12.85 14.4 12.5 L15.95 12.65 M13.55 18.6 Q11.6 19.45 11.4 21.7 L11.3 20.85 Q11.3 19.5 12.15 18.7 L12.65 18.6 13.0 18.6 13.55 18.6 M30.85 21.7 L29.65 22.15 29.3 22.2 29.2 22.15 28.4 21.85 27.9 21.7 26.05 21.2 Q30.5 21.45 31.7 19.65 L31.85 20.35 31.75 20.85 31.7 20.9 31.7 21.0 31.15 21.5 30.95 21.65 30.85 21.7 M23.1 29.0 Q22.85 27.35 22.0 26.3 22.5 25.25 23.8 24.5 L23.6 24.8 Q23.0 25.9 22.9 26.5 L22.85 26.65 23.1 29.0" fill="#654601" fill-rule="evenodd" stroke="none"/>
      <path d="M20.85 13.3 L20.85 13.4 20.85 14.2 19.55 16.15 18.1 15.9 20.85 13.3" fill="#b17c01" fill-rule="evenodd" stroke="none"/>
      <path d="M10.0 29.1 L10.75 28.4 Q13.6 26.0 16.3 24.8 L16.3 26.45 16.55 26.8 Q15.15 27.45 13.8 28.7 L12.5 28.0 13.0 29.4 Q10.8 31.6 8.5 35.15 L10.0 29.1 M18.05 24.15 L18.6 24.7 20.55 23.65 21.1 24.2 Q21.7 24.9 21.7 26.15 L21.7 26.25 Q19.7 25.65 17.7 26.3 L17.55 25.9 16.6 24.65 18.05 24.15 M23.8 24.5 L24.4 24.7 23.75 27.15 22.9 26.5 Q23.0 25.9 23.6 24.8 L23.8 24.5" fill="#d5d5aa" fill-rule="evenodd" stroke="none"/>
      <path d="M28.3 28.45 L28.45 29.0 Q27.45 29.35 26.05 31.0 L26.15 29.8 24.85 26.05 24.65 24.95 24.75 24.75 25.6 24.75 25.95 25.1 26.0 25.9 25.8 27.75 Q26.35 29.15 28.3 28.45" fill="#363427" fill-rule="evenodd" stroke="none"/>
      <path d="M17.5 37.85 L11.65 36.1 Q15.8 35.95 18.65 34.3 L19.3 34.7 19.45 34.8 18.95 34.15 Q20.7 33.1 21.85 31.45 22.6 31.45 22.85 30.9 L22.95 30.85 23.1 29.6 23.75 27.15 24.4 24.7 24.6 24.75 24.65 24.95 24.85 26.05 24.85 29.8 Q24.65 34.15 23.6 36.45 21.7 38.95 17.5 37.85" fill="#bebd7c" fill-rule="evenodd" stroke="none"/>
      <path d="M28.75 30.85 L30.15 38.35 28.3 39.45 28.3 39.35 27.25 34.8 Q27.7 32.05 28.75 30.85 M30.95 21.65 L30.85 21.7 30.95 21.65" fill="#777755" fill-rule="evenodd" stroke="none"/>
      <path d="M11.65 36.1 L8.5 35.15 Q10.8 31.6 13.0 29.4 L13.75 31.7 18.65 34.3 Q15.8 35.95 11.65 36.1 M21.7 26.25 L21.6 26.7 21.45 27.05 21.0 27.8 Q20.3 28.85 20.3 29.85 20.3 30.6 20.75 31.05 21.25 31.45 21.85 31.45 20.7 33.1 18.95 34.15 L15.85 29.8 13.8 28.7 Q15.15 27.45 16.55 26.8 L18.45 30.0 17.7 26.3 Q19.7 25.65 21.7 26.25 M23.1 29.6 L23.1 29.0 22.85 26.65 22.9 26.5 23.75 27.15 23.1 29.6" fill="#cccc99" fill-rule="evenodd" stroke="none"/>
      <path d="M24.95 40.1 L17.5 37.85 Q21.7 38.95 23.6 36.45 24.65 34.15 24.85 29.8 L25.95 32.15 25.95 32.25 24.95 40.1" fill="#afaf61" fill-rule="evenodd" stroke="none"/>
      <path d="M28.45 29.0 L28.75 30.85 Q27.7 32.05 27.25 34.8 L25.95 32.25 25.95 32.15 26.05 31.0 Q27.45 29.35 28.45 29.0 M18.95 34.15 L19.45 34.8 19.3 34.7 12.5 28.0 13.8 28.7 15.85 29.8 18.95 34.15 M16.55 26.8 L16.3 26.45 16.3 24.8 16.3 24.25 18.45 30.0 16.55 26.8" fill="#616044" fill-rule="evenodd" stroke="none"/>
      <path d="M28.3 39.35 L24.95 40.1 25.95 32.25 27.25 34.8 28.3 39.35 M8.5 35.15 L6.35 32.85 10.0 29.1 8.5 35.15 M10.75 28.4 L16.35 22.55 16.5 22.55 16.55 22.7 16.6 22.6 18.05 24.15 16.6 24.65 17.55 25.9 17.7 26.3 18.45 30.0 16.3 24.25 16.3 24.8 Q13.6 26.0 10.75 28.4 M24.85 26.05 L26.15 29.8 26.05 31.0 25.95 32.15 24.85 29.8 24.85 26.05 M19.3 34.7 L18.65 34.3 13.75 31.7 13.0 29.4 12.5 28.0 19.3 34.7" fill="#ffffff" fill-rule="evenodd" stroke="none"/>
      <path d="M24.1 2.3 Q25.85 2.3 26.4 2.75 L28.1 4.05 28.15 4.1 29.05 5.45 29.9 7.8 30.0 8.2 30.05 9.55 Q30.05 11.95 28.8 13.65 L25.65 16.6 25.45 16.75 24.7 17.4 24.25 17.7 24.25 18.15 24.65 18.65 25.4 18.8 26.8 17.85 27.5 17.2 27.85 16.9 28.15 16.65 28.9 16.15 30.2 15.65 30.3 15.65 31.15 15.5 31.3 15.5 31.85 15.55 Q32.7 15.65 33.3 16.15 L33.35 16.2 33.75 16.5 34.05 16.9 34.25 17.15 34.4 17.9 34.35 18.45 31.65 21.05 31.15 21.5 31.45 21.8 31.5 21.9 32.15 23.2 32.15 23.3 32.15 23.75 32.15 24.0 31.75 25.15 31.55 25.55 29.15 27.85 28.6 28.3 28.45 28.35 28.3 28.45 28.45 29.0 28.75 30.85 30.15 38.35 28.3 39.45 28.3 39.35 24.95 40.1 17.5 37.85 11.65 36.1 8.5 35.15 6.35 32.85 10.0 29.1 10.75 28.4 16.35 22.55 16.5 22.55 16.35 22.35 15.65 21.65 Q14.75 21.0 14.25 21.0 13.8 21.0 12.9 22.25 L12.55 22.7 Q11.8 23.55 10.85 23.55 9.0 23.55 9.0 21.95 9.0 21.0 9.6 20.3 L10.75 19.15 14.05 16.05 M14.2 15.9 L12.85 15.5 12.65 15.45 12.5 15.4 9.45 15.2 Q7.75 15.2 7.75 13.55 7.75 12.85 8.35 12.3 L8.45 12.2 10.95 9.9 Q11.45 9.45 12.5 9.15 L15.9 8.95 17.6 9.25 Q18.75 9.55 19.95 10.5 L18.2 8.2 Q17.45 7.1 17.55 6.65 17.7 6.2 18.0 5.85 L18.3 5.55 20.55 3.45 Q22.5 1.85 24.1 2.3 M19.6 10.05 L19.7 10.1 19.95 10.5" fill="none" stroke="#000000" stroke-linecap="round" stroke-linejoin="round" stroke-opacity="0.3019608" stroke-width="0.5"/>
      <path d="M26.0 25.9 L25.8 27.75 Q26.35 29.15 28.3 28.45 M24.65 24.95 L24.75 24.75 25.6 24.75 25.95 25.1 26.0 25.9 M18.05 24.15 L18.6 24.7 20.55 23.65 21.1 24.2 Q21.7 24.9 21.7 26.15 L21.7 26.25 21.6 26.7 M23.8 24.5 L24.4 24.7 24.6 24.75 24.65 24.95 M23.1 29.0 L22.85 26.65 22.9 26.5 Q23.0 25.9 23.6 24.8 L23.8 24.5 M21.85 31.45 Q21.25 31.45 20.75 31.05 20.3 30.6 20.3 29.85 20.3 28.85 21.0 27.8 L21.45 27.05 M29.15 27.85 L29.25 27.7 M16.6 22.6 L18.05 24.15" fill="none" stroke="#000000" stroke-linecap="round" stroke-linejoin="round" stroke-opacity="0.3019608" stroke-width="0.05"/>
    </g>
    <g id="sprite0" transform="matrix(1.0, 0.0, 0.0, 1.0, 0.0, 0.0)">
      <use height="20.95" transform="matrix(1.0, 0.0, 0.0, 1.0, 0.0, 0.0)" width="24.45" xlink:href="#shape1"/>
    </g>
    <g id="shape1" transform="matrix(1.0, 0.0, 0.0, 1.0, 0.0, 0.0)">
      <path d="M14.85 11.4 Q15.8 11.6 16.25 12.45 16.85 13.3 16.6 14.35 16.4 15.3 15.55 15.9 14.65 16.4 13.65 16.2 12.65 15.9 12.1 15.1 11.6 14.2 11.8 13.2 12.1 12.2 12.9 11.65 13.8 11.15 14.85 11.4" fill="#ffffff" fill-opacity="0.5882353" fill-rule="evenodd" stroke="none"/>
      <path d="M14.85 11.4 Q13.8 11.15 12.9 11.65 12.1 12.2 11.8 13.2 11.6 14.2 12.1 15.1 12.65 15.9 13.65 16.2 14.65 16.4 15.55 15.9 16.4 15.3 16.6 14.35 16.85 13.3 16.25 12.45 15.8 11.6 14.85 11.4 M18.2 11.35 L20.15 11.25 18.75 12.55 Q19.05 13.8 18.8 15.05 18.5 16.35 17.65 17.3 L19.1 20.95 16.55 18.25 Q14.8 19.3 12.8 18.85 10.8 18.35 9.75 16.65 9.05 15.5 8.95 14.3 7.75 12.35 4.85 11.5 8.3 12.45 9.7 11.4 10.3 10.4 11.35 9.75 13.1 8.75 15.1 9.15 16.95 9.5 18.1 11.15 L18.2 11.35" fill="#ffffff" fill-opacity="0.1764706" fill-rule="evenodd" stroke="none"/>
      <path d="M15.4 13.55 L18.1 17.55 13.35 14.65 7.05 18.5 12.75 13.55 0.0 0.0 14.25 12.25 24.45 5.95 15.4 13.55" fill="#ffffff" fill-opacity="0.5882353" fill-rule="evenodd" stroke="none"/>
    </g>
  </defs>
</svg>
