<?xml version="1.0" encoding="UTF-8" standalone="no"?>
<svg xmlns:xlink="http://www.w3.org/1999/xlink" height="520.0px" width="520.0px" xmlns="http://www.w3.org/2000/svg">
  <g transform="matrix(10.0, 0.0, 0.0, 10.0, 0.0, 0.0)">
    <use height="52.0" transform="matrix(1.0, 0.0, 0.0, 1.0, 0.0, 0.0)" width="52.0" xlink:href="#shape0"/>
    <use height="20.95" transform="matrix(0.0528, 0.4502, 0.5029, -0.0662, 27.7, 24.5)" width="24.45" xlink:href="#sprite0"/>
    <use height="20.95" transform="matrix(0.0881, 0.752, 0.84, -0.1107, 13.7, 4.7)" width="24.45" xlink:href="#sprite0"/>
  </g>
  <defs>
    <g id="shape0" transform="matrix(1.0, 0.0, 0.0, 1.0, 0.0, 0.0)">
      <path d="M0.0 52.0 L0.0 0.0 52.0 0.0 52.0 52.0 0.0 52.0" fill="#33cc33" fill-opacity="0.0" fill-rule="evenodd" stroke="none"/>
      <path d="M17.15 4.8 L17.15 4.85 17.1 4.8 17.15 4.8 M42.9 30.0 L42.85 30.05 42.85 30.0 42.9 30.0" fill="#fee481" fill-rule="evenodd" stroke="none"/>
      <path d="M40.2 13.85 L40.1 13.85 40.2 13.8 40.2 13.85" fill="#d89500" fill-rule="evenodd" stroke="none"/>
      <path d="M41.2 13.3 L44.35 11.8 Q43.85 15.45 44.2 18.8 L44.45 20.55 43.7 19.5 Q41.6 17.15 40.35 22.05 L40.25 22.5 40.2 22.15 Q39.75 19.2 39.95 16.0 L41.2 13.3 M47.9 29.55 L45.2 35.65 Q44.4 34.5 42.1 37.05 L45.1 30.9 47.9 29.55" fill="#560000" fill-rule="evenodd" stroke="none"/>
      <path d="M40.25 22.5 L40.35 22.05 Q41.6 17.15 43.7 19.5 L44.45 20.55 45.2 23.8 Q43.3 21.35 41.4 24.9 L41.0 25.65 40.8 24.85 40.25 22.5 M45.2 35.65 L41.65 43.8 38.05 45.95 39.65 42.05 42.1 37.05 Q44.4 34.5 45.2 35.65" fill="#6c2206" fill-rule="evenodd" stroke="none"/>
      <path d="M40.2 22.15 L40.25 22.5 40.8 24.85 40.55 24.85 Q33.3 24.85 27.05 27.8 20.35 31.0 19.65 35.9 L14.75 33.05 17.15 30.15 Q21.8 25.4 28.1 24.75 36.1 23.85 39.5 22.45 39.85 22.25 40.2 22.15 M41.0 25.65 L41.4 24.9 Q43.3 21.35 45.2 23.8 L46.35 26.75 47.9 29.55 45.1 30.9 42.9 30.0 42.85 30.0 Q41.7 27.9 41.0 25.65" fill="#963807" fill-rule="evenodd" stroke="none"/>
      <path d="M30.9 11.15 L39.95 16.0 Q39.75 19.2 40.2 22.15 39.85 22.25 39.5 22.45 36.1 23.85 28.1 24.75 21.8 25.4 17.15 30.15 L14.75 33.05 10.3 30.5 10.45 24.8 13.25 24.95 Q22.2 24.95 27.05 19.4 30.05 15.9 30.9 11.15 M42.85 30.05 L42.9 30.0 45.1 30.9 42.1 37.05 39.65 42.05 42.85 30.05" fill="#fdb03e" fill-rule="evenodd" stroke="none"/>
      <path d="M17.15 4.85 L17.15 4.8 21.35 2.9 44.35 11.8 41.2 13.3 24.0 7.55 17.15 4.85 M19.65 35.9 Q20.35 31.0 27.05 27.8 33.3 24.85 40.55 24.85 L40.8 24.85 41.0 25.65 Q41.7 27.9 42.85 30.0 L42.85 30.05 39.65 42.05 38.05 45.95 37.7 46.2 19.65 35.9 M35.8 30.4 L35.0 31.85 Q33.8 33.45 31.7 33.7 28.35 34.1 28.35 36.7 L28.35 36.8 32.4 39.5 Q34.6 40.95 36.25 40.95 38.05 40.95 39.3 38.1 40.25 35.8 40.25 34.2 40.25 32.0 38.7 30.65 37.6 29.65 36.85 29.65 36.25 29.65 35.8 30.4" fill="#c16100" fill-rule="evenodd" stroke="none"/>
      <path d="M17.15 4.85 L24.0 7.55 30.9 11.15 Q30.05 15.9 27.05 19.4 22.2 24.95 13.25 24.95 L10.45 24.8 10.7 17.1 Q16.05 12.6 17.15 4.85 M18.9 15.65 L21.25 15.3 23.8 14.85 Q24.85 14.75 25.2 14.3 L25.45 12.95 Q25.45 10.45 22.3 9.15 L19.1 8.35 18.4 8.35 17.8 9.7 Q17.4 11.2 17.4 13.25 17.4 15.0 18.1 15.45 L18.9 15.65" fill="#ffa004" fill-rule="evenodd" stroke="none"/>
      <path d="M35.8 30.4 Q36.25 29.65 36.85 29.65 37.6 29.65 38.7 30.65 40.25 32.0 40.25 34.2 40.25 35.8 39.3 38.1 38.05 40.95 36.25 40.95 34.6 40.95 32.4 39.5 L28.35 36.8 28.35 36.7 Q28.35 34.1 31.7 33.7 33.8 33.45 35.0 31.85 L35.8 30.4" fill="#d66b00" fill-rule="evenodd" stroke="none"/>
      <path d="M18.9 15.65 L18.1 15.45 Q17.4 15.0 17.4 13.25 17.4 11.2 17.8 9.7 L18.4 8.35 19.1 8.35 22.3 9.15 Q25.45 10.45 25.45 12.95 L25.2 14.3 Q24.85 14.75 23.8 14.85 L21.25 15.3 18.9 15.65" fill="#ffaf2b" fill-rule="evenodd" stroke="none"/>
      <path d="M24.0 7.55 L41.2 13.3 39.95 16.0 30.9 11.15 24.0 7.55 M40.2 13.85 L40.2 13.8 40.1 13.85 40.2 13.85" fill="#fcc067" fill-rule="evenodd" stroke="none"/>
      <path d="M17.15 4.8 L17.1 4.8 17.15 4.85 M44.35 11.8 L21.35 2.9 17.15 4.8 M44.45 20.55 L44.2 18.8 Q43.85 15.45 44.35 11.8 M45.2 23.8 L44.45 20.55 M45.2 23.8 L46.35 26.75 47.9 29.55 45.2 35.65 41.65 43.8 38.05 45.95 37.7 46.2 19.65 35.9 14.75 33.05 10.3 30.5 10.45 24.8 10.7 17.1 Q16.05 12.6 17.15 4.85" fill="none" stroke="#000000" stroke-linecap="round" stroke-linejoin="round" stroke-opacity="0.3019608" stroke-width="0.5"/>
      <path d="M19.2 16.5 Q20.0 16.9 20.85 18.3 L20.9 18.4 20.9 18.55 20.85 18.5 20.45 18.1 19.75 18.0 19.55 18.25 Q19.3 19.85 20.85 19.7 L20.9 23.35 Q20.0 22.9 19.2 21.35 L19.2 16.5 M20.85 18.5 L20.85 18.3 20.85 18.5" fill="#744c12" fill-rule="evenodd" stroke="none"/>
      <path d="M20.9 23.35 L20.9 23.8 Q19.35 24.65 17.85 21.8 L19.2 21.35 Q20.0 22.9 20.9 23.35" fill="#452c0b" fill-rule="evenodd" stroke="none"/>
      <path d="M17.85 21.8 L17.85 16.45 19.2 16.5 19.2 21.35 17.85 21.8" fill="#3b2409" fill-rule="evenodd" stroke="none"/>
      <path d="M17.85 21.8 L17.85 16.45 19.2 16.5 Q20.0 16.9 20.85 18.3 L20.85 18.5 20.45 18.1 19.75 18.0 19.55 18.25 Q19.3 19.85 20.85 19.7 L20.9 23.35 20.9 23.8 Q19.35 24.65 17.85 21.8 Z" fill="none" stroke="#000000" stroke-linecap="round" stroke-linejoin="round" stroke-opacity="0.15294118" stroke-width="0.25"/>
      <path d="M27.9 19.9 Q28.7 20.3 29.55 21.7 L29.6 21.8 29.6 21.95 29.55 21.9 29.15 21.5 28.45 21.4 28.25 21.65 Q28.0 23.25 29.55 23.1 L29.6 26.75 Q28.7 26.3 27.9 24.75 L27.9 19.9 M29.55 21.9 L29.55 21.7 29.55 21.9" fill="#744c12" fill-rule="evenodd" stroke="none"/>
      <path d="M29.6 26.75 L29.6 27.2 Q28.05 28.05 26.55 25.2 L27.9 24.75 Q28.7 26.3 29.6 26.75" fill="#452c0b" fill-rule="evenodd" stroke="none"/>
      <path d="M26.55 25.2 L26.55 19.85 27.9 19.9 27.9 24.75 26.55 25.2" fill="#3b2409" fill-rule="evenodd" stroke="none"/>
      <path d="M26.55 25.2 L26.55 19.85 27.9 19.9 Q28.7 20.3 29.55 21.7 L29.55 21.9 29.15 21.5 28.45 21.4 28.25 21.65 Q28.0 23.25 29.55 23.1 L29.6 26.75 29.6 27.2 Q28.05 28.05 26.55 25.2 Z" fill="none" stroke="#000000" stroke-linecap="round" stroke-linejoin="round" stroke-opacity="0.15294118" stroke-width="0.25"/>
      <path d="M37.95 34.7 L38.8 35.0 38.8 35.3 38.45 35.5 37.95 34.7" fill="#fee481" fill-rule="evenodd" stroke="none"/>
      <path d="M14.3 33.85 L14.4 32.75 14.75 32.55 14.3 33.85" fill="#d89500" fill-rule="evenodd" stroke="none"/>
      <path d="M14.25 33.85 L14.3 33.85 14.3 33.9 14.25 33.85" fill="#37392d" fill-rule="evenodd" stroke="none"/>
      <path d="M37.45 32.45 L36.8 34.25 36.75 34.3 34.25 35.5 34.5 34.65 Q37.25 30.25 37.45 32.45" fill="#4b0117" fill-rule="evenodd" stroke="none"/>
      <path d="M28.15 31.2 L28.15 30.3 Q32.15 28.15 34.65 32.3 L34.65 33.75 Q33.45 35.25 30.05 34.1 L28.15 33.4 28.15 31.2 M30.85 30.65 L29.95 30.4 29.7 30.35 Q28.85 30.35 28.7 31.0 L28.65 31.95 28.75 32.6 Q28.85 32.8 29.3 32.8 L31.15 32.15 Q31.75 32.0 31.75 31.6 31.75 31.05 30.85 30.65" fill="#db0244" fill-rule="evenodd" stroke="none"/>
      <path d="M34.95 27.3 L38.05 28.3 Q37.8 28.85 35.7 29.25 L32.35 28.4 Q31.0 26.55 34.95 27.3" fill="#fd608f" fill-rule="evenodd" stroke="none"/>
      <path d="M38.05 28.3 L38.4 29.75 Q37.9 29.5 36.2 30.1 35.2 31.55 34.75 33.5 L34.65 33.75 34.65 32.3 34.65 30.0 34.55 29.95 Q31.7 28.55 28.15 27.85 L29.0 26.75 Q30.25 27.65 32.1 28.3 L32.35 28.4 35.7 29.25 Q37.8 28.85 38.05 28.3" fill="#ffa1a1" fill-rule="evenodd" stroke="none"/>
      <path d="M28.15 30.3 L28.15 27.85 Q31.7 28.55 34.55 29.95 L34.65 30.0 34.65 32.3 Q32.15 28.15 28.15 30.3" fill="#b30230" fill-rule="evenodd" stroke="none"/>
      <path d="M29.0 26.75 L31.25 26.05 34.95 27.3 Q31.0 26.55 32.35 28.4 L32.1 28.3 Q30.25 27.65 29.0 26.75" fill="#fd3e77" fill-rule="evenodd" stroke="none"/>
      <path d="M34.65 33.75 L34.5 34.65 34.25 35.5 34.0 35.6 30.05 34.1 Q33.45 35.25 34.65 33.75" fill="#cf0238" fill-rule="evenodd" stroke="none"/>
      <path d="M38.4 29.75 L37.45 32.45 Q37.25 30.25 34.5 34.65 L34.65 33.75 34.75 33.5 Q35.2 31.55 36.2 30.1 37.9 29.5 38.4 29.75" fill="#3d0110" fill-rule="evenodd" stroke="none"/>
      <path d="M30.85 30.65 Q31.75 31.05 31.75 31.6 31.75 32.0 31.15 32.15 L29.3 32.8 Q28.85 32.8 28.75 32.6 L28.65 31.95 28.7 31.0 Q28.85 30.35 29.7 30.35 L29.95 30.4 30.85 30.65" fill="#f20241" fill-rule="evenodd" stroke="none"/>
      <path d="M36.8 34.25 L37.95 34.7 36.95 36.15 35.8 36.7 33.25 36.75 16.95 29.85 18.7 29.6 20.3 30.1 25.75 30.3 28.15 31.2 28.15 33.4 30.05 34.1 34.0 35.6 34.25 35.5 36.75 34.3 36.8 34.25 M13.05 44.3 L5.7 40.1 4.65 37.4 4.65 37.05 11.4 34.3 14.25 35.75 14.3 34.4 22.3 37.85 14.3 33.9 14.3 33.85 14.25 33.85 12.95 34.35 12.15 33.9 13.45 33.25 14.4 32.75 14.3 33.85 14.75 32.55 16.9 31.35 33.25 36.75 33.65 40.25 33.65 41.25 29.5 40.95 Q22.25 40.95 15.85 43.6 L14.7 36.35 13.05 44.3 M4.2 23.5 L10.25 22.7 14.15 25.15 14.15 25.55 15.8 28.2 14.7 28.25 14.0 27.8 12.55 26.75 12.5 26.75 11.95 27.65 4.2 23.5" fill="#ffa004" fill-rule="evenodd" stroke="none"/>
      <path d="M33.75 49.45 L33.75 49.5 25.9 49.85 18.6 46.5 Q18.6 44.85 22.05 43.35 26.05 41.6 32.45 41.6 L33.65 41.65 33.7 47.25 33.75 49.45 M4.65 37.05 L4.65 33.5 5.1 33.5 8.75 32.95 11.4 34.3 4.65 37.05 M14.4 32.75 L13.45 33.25 12.15 33.9 9.6 32.65 Q10.95 32.0 12.05 30.9 13.55 29.35 14.0 27.8 L14.7 28.25 14.4 32.75 M14.75 32.55 L15.35 30.8 16.9 31.35 14.75 32.55" fill="#c16100" fill-rule="evenodd" stroke="none"/>
      <path d="M38.3 41.1 L38.05 42.4 38.05 42.5 37.35 46.95 33.75 49.45 33.7 47.25 34.05 45.6 Q36.65 39.8 38.3 41.1 M18.6 46.5 L17.05 45.75 15.95 43.8 14.95 43.95 15.85 43.6 Q22.25 40.95 29.5 40.95 L33.65 41.25 33.65 41.65 32.45 41.6 Q26.05 41.6 22.05 43.35 18.6 44.85 18.6 46.5" fill="#963807" fill-rule="evenodd" stroke="none"/>
      <path d="M4.65 33.5 L4.65 30.85 8.75 32.95 5.1 33.5 4.65 33.5 M3.95 29.7 L3.3 29.4 3.25 25.15 11.95 27.65 12.5 26.75 12.55 26.75 14.0 27.8 Q13.55 29.35 12.05 30.9 10.95 32.0 9.6 32.65 L3.95 29.7" fill="#e37302" fill-rule="evenodd" stroke="none"/>
      <path d="M39.05 36.45 L38.3 41.1 Q36.65 39.8 34.05 45.6 L35.8 36.7 36.95 36.15 39.05 36.45 M14.95 43.95 L13.05 44.3 14.7 36.35 15.85 43.6 14.95 43.95 M4.65 30.85 L4.65 30.75 4.6 30.75 3.95 29.7 9.6 32.65 12.15 33.9 12.95 34.35 14.25 33.85 14.3 33.9 22.3 37.85 14.3 34.4 14.25 35.75 11.4 34.3 8.75 32.95 4.65 30.85 M15.8 28.2 L16.05 28.65 18.7 29.6 16.95 29.85 15.35 30.8 14.75 32.55 14.4 32.75 14.7 28.25 15.8 28.2" fill="#560000" fill-rule="evenodd" stroke="none"/>
      <path d="M38.45 35.5 L39.05 36.45 36.95 36.15 37.95 34.7 38.45 35.5 M35.8 36.7 L34.05 45.6 33.7 47.25 33.65 41.65 33.65 41.25 33.65 40.25 33.25 36.75 35.8 36.7" fill="#6c2206" fill-rule="evenodd" stroke="none"/>
      <path d="M3.25 25.15 L4.2 23.5 11.95 27.65 3.25 25.15 M15.35 30.8 L16.95 29.85 33.25 36.75 16.9 31.35 15.35 30.8" fill="#fdb03e" fill-rule="evenodd" stroke="none"/>
      <path d="M37.35 46.95 L33.75 49.45 33.75 49.5 25.9 49.85 18.6 46.5 17.05 45.75 15.95 43.8 14.95 43.95 13.05 44.3 5.7 40.1 4.65 37.4 4.65 37.05 4.65 33.5 4.65 30.85 4.65 30.75 4.6 30.75 3.95 29.7 3.3 29.4 3.25 25.15 4.2 23.5 10.25 22.7" fill="none" stroke="#000000" stroke-linecap="round" stroke-linejoin="round" stroke-opacity="0.3019608" stroke-width="0.5"/>
      <path d="M29.0 26.75 L31.25 26.05 34.95 27.3 38.05 28.3 38.4 29.75 37.45 32.45 36.8 34.25 37.95 34.7 38.45 35.5 39.05 36.45 38.3 41.1 38.05 42.4 M38.05 42.5 L37.35 46.95 M10.25 22.7 L14.15 25.15 M25.75 30.3 L28.15 31.2 28.15 30.3 28.15 27.85 29.0 26.75 M34.25 35.5 L36.75 34.3 36.8 34.25 M30.05 34.1 L34.0 35.6 34.25 35.5 M30.05 34.1 L28.15 33.4 28.15 31.2" fill="none" stroke="#000000" stroke-linecap="round" stroke-linejoin="round" stroke-opacity="0.15294118" stroke-width="0.25"/>
      <path d="M20.35 30.1 L20.3 30.1 16.05 28.65 15.8 25.35 15.9 25.35 20.35 26.5 Q21.3 28.3 20.35 30.1" fill="#e37302" fill-rule="evenodd" stroke="none"/>
      <path d="M23.95 26.6 L25.5 26.65 26.4 30.3 22.45 30.2 Q21.1 28.4 22.6 26.6 L23.95 26.6" fill="#963807" fill-rule="evenodd" stroke="none"/>
      <path d="M22.45 30.2 L20.35 30.1 Q21.3 28.3 20.35 26.5 L22.6 26.6 Q21.1 28.4 22.45 30.2" fill="#6c2206" fill-rule="evenodd" stroke="none"/>
      <path d="M25.5 26.65 L25.5 26.35 24.65 22.85 Q25.3 24.35 26.0 25.25 L26.5 30.3 26.4 30.3 25.5 26.65" fill="#560000" fill-rule="evenodd" stroke="none"/>
      <path d="M16.75 22.65 L22.7 22.05 24.65 22.85 25.5 26.35 25.5 26.65 23.95 26.6 Q15.05 24.85 16.75 22.65 M16.05 28.65 L14.15 25.55 14.15 23.1 15.8 25.35 16.05 28.65" fill="#ffa004" fill-rule="evenodd" stroke="none"/>
      <path d="M16.75 22.65 Q15.05 24.85 23.95 26.6 L22.6 26.6 20.35 26.5 15.9 25.35 15.8 25.35 14.15 23.1 14.15 22.9 16.75 22.65" fill="#fdb03e" fill-rule="evenodd" stroke="none"/>
      <path d="M24.65 22.85 L22.7 22.05 16.75 22.65 M24.65 22.85 Q25.3 24.35 26.0 25.25 L26.5 30.3 26.4 30.3 22.45 30.2 20.35 30.1 20.3 30.1 16.05 28.65 14.15 25.55 14.15 23.1 14.15 22.9 16.75 22.65" fill="none" stroke="#000000" stroke-linecap="round" stroke-linejoin="round" stroke-opacity="0.15294118" stroke-width="0.25"/>
      <path d="M24.35 15.6 L23.85 21.8 12.95 14.8 14.1 12.95 15.8 14.4 21.5 18.25 22.3 18.7 23.0 19.2 24.35 15.6" fill="#000000" fill-opacity="0.3019608" fill-rule="evenodd" stroke="none"/>
      <path d="M16.85 5.45 L19.0 4.5 24.35 11.2 23.5 12.5 Q22.0 14.2 20.05 12.55 16.55 8.4 16.85 5.45" fill="#ffa004" fill-rule="evenodd" stroke="none"/>
      <path d="M24.65 12.2 L25.1 13.6 24.35 15.6 23.0 19.2 Q21.85 16.0 23.8 12.95 L24.65 12.2" fill="#963807" fill-rule="evenodd" stroke="none"/>
      <path d="M14.9 6.25 L16.85 5.45 Q16.55 8.4 20.05 12.55 L19.35 11.85 14.9 6.25" fill="#fdb03e" fill-rule="evenodd" stroke="none"/>
      <path d="M24.35 11.2 L24.65 12.2 23.8 12.95 Q21.85 16.0 23.0 19.2 L22.3 18.7 21.5 18.25 Q21.85 16.7 20.75 14.45 17.9 10.5 14.6 8.8 L14.9 6.25 19.35 11.85 20.05 12.55 Q22.0 14.2 23.5 12.5 L24.35 11.2" fill="#6c2206" fill-rule="evenodd" stroke="none"/>
      <path d="M14.1 12.95 L14.0 12.9 14.6 8.8 Q17.9 10.5 20.75 14.45 21.85 16.7 21.5 18.25 L15.8 14.4 14.1 12.95" fill="#e37302" fill-rule="evenodd" stroke="none"/>
      <path d="M16.85 5.45 L19.0 4.5 24.35 11.2 24.65 12.2 25.1 13.6 24.35 15.6 M14.1 12.95 L14.0 12.9 14.6 8.8 14.9 6.25 16.85 5.45 M14.1 12.95 L15.8 14.4 21.5 18.25 22.3 18.7 23.0 19.2 24.35 15.6" fill="none" stroke="#000000" stroke-linecap="round" stroke-linejoin="round" stroke-opacity="0.15294118" stroke-width="0.25"/>
      <path d="M42.7 16.85 L43.05 16.85 42.75 17.5 42.7 16.85 M42.8 17.95 L42.8 19.65 38.25 23.35 23.85 21.8 24.1 19.3 24.2 20.05 37.3 21.55 37.45 21.55 42.8 17.95" fill="#000000" fill-opacity="0.3019608" fill-rule="evenodd" stroke="none"/>
      <path d="M33.75 16.45 L33.7 16.45 33.7 16.4 33.75 16.45" fill="#d89500" fill-rule="evenodd" stroke="none"/>
      <path d="M33.7 16.45 L33.65 16.4 33.7 16.4 33.7 16.45" fill="#a6a07e" fill-rule="evenodd" stroke="none"/>
      <path d="M32.3 10.8 L32.5 10.75 34.15 10.25 36.2 16.3 33.8 16.45 33.75 16.45 33.7 16.4 33.65 16.4 33.7 16.45 32.75 18.05 29.3 17.1 33.65 16.4 31.9 15.75 29.2 16.8 23.75 17.25 23.95 16.45 Q26.85 12.5 32.3 10.8" fill="#ffa004" fill-rule="evenodd" stroke="none"/>
      <path d="M42.25 14.05 L42.7 16.85 42.75 17.5 42.8 17.95 37.45 21.55 37.3 21.55 37.1 20.65 36.2 16.3 42.25 14.05" fill="#560000" fill-rule="evenodd" stroke="none"/>
      <path d="M34.15 10.25 Q37.05 9.5 40.35 10.15 L42.25 14.05 36.2 16.3 34.15 10.25" fill="#6c2206" fill-rule="evenodd" stroke="none"/>
      <path d="M23.95 18.5 L23.75 17.25 29.2 16.8 31.9 15.75 33.65 16.4 29.3 17.1 32.75 18.05 33.7 16.45 33.75 16.45 33.8 16.45 36.2 16.3 37.1 20.65 Q29.05 15.65 23.95 18.5" fill="#963807" fill-rule="evenodd" stroke="none"/>
      <path d="M24.1 19.3 L23.95 18.5 Q29.05 15.65 37.1 20.65 L37.3 21.55 24.2 20.05 24.1 19.3" fill="#e37302" fill-rule="evenodd" stroke="none"/>
      <path d="M23.95 16.45 L24.8 12.9 32.3 10.8 Q26.85 12.5 23.95 16.45" fill="#fdb03e" fill-rule="evenodd" stroke="none"/>
      <path d="M23.95 16.45 L24.8 12.9 32.3 10.8 32.5 10.75 34.15 10.25 Q37.05 9.5 40.35 10.15 L42.25 14.05 42.7 16.85 M42.75 17.5 L42.8 17.95 M24.1 19.3 L23.95 18.5 23.75 17.25 23.95 16.45 M37.3 21.55 L37.45 21.55 42.8 17.95 M24.1 19.3 L24.2 20.05 37.3 21.55 M42.75 17.5 L42.7 16.85" fill="none" stroke="#000000" stroke-linecap="round" stroke-linejoin="round" stroke-opacity="0.15294118" stroke-width="0.25"/>
    </g>
    <g id="sprite0" transform="matrix(1.0, 0.0, 0.0, 1.0, 0.0, 0.0)">
      <use height="20.95" transform="matrix(1.0, 0.0, 0.0, 1.0, 0.0, 0.0)" width="24.45" xlink:href="#shape1"/>
    </g>
    <g id="shape1" transform="matrix(1.0, 0.0, 0.0, 1.0, 0.0, 0.0)">
      <path d="M14.85 11.4 Q15.8 11.6 16.25 12.45 16.85 13.3 16.6 14.35 16.4 15.3 15.55 15.9 14.65 16.4 13.65 16.2 12.65 15.9 12.1 15.1 11.6 14.2 11.8 13.2 12.1 12.2 12.9 11.65 13.8 11.15 14.85 11.4" fill="#ffffff" fill-opacity="0.5882353" fill-rule="evenodd" stroke="none"/>
      <path d="M14.85 11.4 Q13.8 11.15 12.9 11.65 12.1 12.2 11.8 13.2 11.6 14.2 12.1 15.1 12.65 15.9 13.65 16.2 14.65 16.4 15.55 15.9 16.4 15.3 16.6 14.35 16.85 13.3 16.25 12.45 15.8 11.6 14.85 11.4 M18.2 11.35 L20.15 11.25 18.75 12.55 Q19.05 13.8 18.8 15.05 18.5 16.35 17.65 17.3 L19.1 20.95 16.55 18.25 Q14.8 19.3 12.8 18.85 10.8 18.35 9.75 16.65 9.05 15.5 8.95 14.3 7.75 12.35 4.85 11.5 8.3 12.45 9.7 11.4 10.3 10.4 11.35 9.75 13.1 8.75 15.1 9.15 16.95 9.5 18.1 11.15 L18.2 11.35" fill="#ffffff" fill-opacity="0.1764706" fill-rule="evenodd" stroke="none"/>
      <path d="M15.4 13.55 L18.1 17.55 13.35 14.65 7.05 18.5 12.75 13.55 0.0 0.0 14.25 12.25 24.45 5.95 15.4 13.55" fill="#ffffff" fill-opacity="0.5882353" fill-rule="evenodd" stroke="none"/>
    </g>
  </defs>
</svg>
