<?xml version="1.0" encoding="UTF-8" standalone="no"?>
<svg xmlns:xlink="http://www.w3.org/1999/xlink" height="520.0px" width="520.0px" xmlns="http://www.w3.org/2000/svg">
  <g transform="matrix(10.0, 0.0, 0.0, 10.0, 0.0, 0.0)">
    <use height="52.0" transform="matrix(1.0, 0.0, 0.0, 1.0, 0.0, 0.0)" width="52.0" xlink:href="#shape0"/>
    <use height="136.85" transform="matrix(-0.0486, 0.066, -0.2024, -0.1507, 37.8309, 36.4968)" width="148.25" xlink:href="#sprite0"/>
    <use height="136.85" transform="matrix(-0.0347, 0.0443, -0.1558, -0.1161, 46.2332, 25.3891)" width="148.25" xlink:href="#sprite0"/>
    <use height="20.95" transform="matrix(-0.3907, 0.2301, 0.4069, 0.5753, 38.45, 25.75)" width="24.45" xlink:href="#sprite1"/>
    <use height="20.95" transform="matrix(-0.2907, 0.1712, 0.3027, 0.428, 29.8, 9.4)" width="24.45" xlink:href="#sprite1"/>
    <use height="20.95" transform="matrix(-0.3932, 0.0262, 0.3027, 0.428, 15.45, 14.4)" width="24.45" xlink:href="#sprite1"/>
  </g>
  <defs>
    <g id="shape0" transform="matrix(1.0, 0.0, 0.0, 1.0, 0.0, 0.0)">
      <path d="M52.0 0.0 L52.0 52.0 0.0 52.0 0.0 0.0 52.0 0.0" fill="#795fa9" fill-opacity="0.0" fill-rule="evenodd" stroke="none"/>
      <path d="M32.45 14.35 L32.5 14.35 32.5 14.4 32.45 14.35" fill="#fef081" fill-rule="evenodd" stroke="none"/>
      <path d="M10.0 23.0 Q8.0 20.45 7.3 18.1 L7.05 16.95 7.0 16.8 Q6.75 15.6 7.0 14.55 L7.85 12.95 Q7.3 14.3 7.6 16.15 L7.9 17.35 Q8.7 20.0 11.2 22.95 L12.4 24.35 13.6 19.25 14.2 32.15 12.8 26.1 10.0 23.0 M18.4 9.6 L19.7 10.8 19.65 13.2 19.05 11.4 18.4 9.6 M37.05 22.3 L36.55 21.75 Q33.0 18.75 28.55 17.0 28.25 16.8 27.95 16.75 L26.7 16.3 24.55 15.8 Q21.9 15.25 19.95 15.8 18.4 16.15 17.7 17.05 18.15 15.5 20.3 15.05 L23.5 14.8 26.05 15.3 26.75 15.45 28.3 15.95 32.5 17.85 Q34.85 19.3 36.9 21.05 40.65 24.25 41.1 27.1 L41.15 27.95 40.7 29.45 40.7 27.8 40.7 27.7 Q40.2 25.15 37.05 22.3 M23.05 32.45 L26.2 33.95 26.25 34.0 30.1 35.6 32.2 36.3 36.2 37.35 41.15 37.8 44.15 37.4 44.55 37.35 Q46.5 36.75 47.6 35.7 L45.65 37.45 43.9 38.1 43.55 38.2 41.1 38.5 35.55 38.1 30.15 36.65 Q29.8 36.45 29.5 36.35 L27.05 35.4 26.15 35.0 21.8 32.75 Q18.3 30.75 15.2 28.2 L15.45 27.5 13.9 20.8 16.55 28.0 Q19.6 30.45 23.05 32.45" fill="#fcbd61" fill-rule="evenodd" stroke="none"/>
      <path d="M7.85 12.95 Q8.85 10.7 12.35 9.8 L15.05 9.45 18.2 9.55 18.4 9.6 19.05 11.4 17.4 10.1 Q13.65 9.85 10.2 11.9 9.05 12.75 8.85 15.2 8.85 18.6 11.2 22.95 8.7 20.0 7.9 17.35 L7.6 16.15 Q7.3 14.3 7.85 12.95 M22.9 10.45 L24.3 10.9 24.8 12.1 24.8 12.2 26.05 15.3 23.5 14.8 Q23.7 13.15 23.35 11.8 L23.35 11.65 22.9 10.45 M32.5 14.35 L33.3 14.75 Q37.7 17.15 41.4 20.45 L42.1 21.1 Q48.0 26.35 48.75 31.1 49.15 33.35 48.2 34.85 L48.2 34.9 47.6 35.65 47.6 35.7 Q46.5 36.75 44.55 37.35 L44.15 37.4 41.15 37.8 36.2 37.35 32.2 36.3 30.1 35.6 26.25 34.0 26.2 33.95 23.05 32.45 24.1 30.25 Q24.5 28.6 24.5 26.65 L26.4 27.8 30.45 29.65 32.85 30.4 Q34.65 33.85 35.1 36.7 L41.2 37.0 44.45 36.4 Q46.4 35.7 47.05 34.25 48.05 30.7 46.15 27.65 44.45 25.1 42.0 22.5 38.25 18.6 32.85 14.7 L32.5 14.4 32.5 14.35" fill="#feb445" fill-rule="evenodd" stroke="none"/>
      <path d="M29.3 44.0 L26.15 42.95 25.95 42.9 24.85 42.5 21.75 41.15 22.25 39.45 Q22.65 37.55 22.5 35.5 L21.8 32.75 26.15 35.0 27.05 35.4 29.5 36.35 Q29.8 36.45 30.15 36.65 L29.75 37.3 Q29.25 38.05 29.0 38.9 28.35 41.25 29.3 44.0 M24.55 15.8 L26.7 16.3 27.95 16.75 Q28.25 16.8 28.55 17.0 27.75 18.8 28.05 21.15 28.35 23.3 29.7 26.0 L26.5 24.25 24.5 23.45 Q25.6 21.95 25.55 19.75 25.45 18.05 24.55 15.8" fill="#f49302" fill-rule="evenodd" stroke="none"/>
      <path d="M21.2 10.1 L21.35 10.1 22.9 10.45 23.35 11.65 23.35 11.8 Q23.7 13.15 23.5 14.8 L20.3 15.05 Q18.15 15.5 17.7 17.05 L17.6 17.5 17.65 18.55 Q17.95 20.3 19.45 22.2 L19.9 22.7 21.85 24.6 Q23.1 25.7 24.5 26.65 24.5 28.6 24.1 30.25 L23.05 32.45 Q19.6 30.45 16.55 28.0 L13.9 20.8 13.6 19.25 12.4 24.35 11.2 22.95 Q8.85 18.6 8.85 15.2 9.05 12.75 10.2 11.9 13.65 9.85 17.4 10.1 L19.05 11.4 19.65 13.2 21.2 10.1 M28.8 12.55 Q30.7 13.35 32.45 14.35 L32.5 14.4 32.85 14.7 Q38.25 18.6 42.0 22.5 44.45 25.1 46.15 27.65 48.05 30.7 47.05 34.25 46.4 35.7 44.45 36.4 L40.1 29.95 39.9 30.2 38.45 30.7 35.3 30.9 34.05 29.5 Q36.35 28.35 36.95 25.7 37.3 24.25 37.05 22.3 40.2 25.15 40.7 27.7 L40.7 27.8 40.7 29.45 41.15 27.95 41.1 27.1 Q40.65 24.25 36.9 21.05 34.85 19.3 32.5 17.85 L29.5 13.6 29.45 13.45 28.8 12.55 M40.7 29.45 L40.1 29.95 40.7 29.45" fill="#e37302" fill-rule="evenodd" stroke="none"/>
      <path d="M7.05 16.95 Q6.05 17.85 5.15 19.7 L3.6 23.4 Q3.25 21.15 4.25 19.65 L7.0 14.55 Q6.75 15.6 7.0 16.8 L7.05 16.95 M48.2 34.9 L44.55 41.65 44.1 42.5 Q43.05 43.95 40.8 44.65 L40.55 44.7 40.8 44.45 Q42.8 42.85 44.1 40.9 L45.65 37.45 47.6 35.7 47.6 35.65 48.2 34.9 M28.55 17.0 Q33.0 18.75 36.55 21.75 L37.05 22.3 Q37.3 24.25 36.95 25.7 36.35 28.35 34.05 29.5 L32.85 28.4 29.7 26.0 Q28.35 23.3 28.05 21.15 27.75 18.8 28.55 17.0" fill="#963807" fill-rule="evenodd" stroke="none"/>
      <path d="M10.4 33.65 Q4.45 28.15 3.6 23.5 L3.6 23.4 5.15 19.7 Q6.05 17.85 7.05 16.95 L7.3 18.1 Q8.0 20.45 10.0 23.0 9.6 23.85 9.55 24.7 8.7 28.45 10.4 33.65 M19.7 10.8 L21.2 10.1 19.65 13.2 19.7 10.8 M24.3 10.9 L26.3 11.6 26.8 11.8 28.8 12.55 29.45 13.45 29.5 13.6 32.5 17.85 28.3 15.95 26.75 15.45 26.05 15.3 24.8 12.2 24.8 12.1 24.3 10.9 M40.55 44.7 L40.15 44.8 38.6 45.1 37.1 42.95 34.8 45.1 34.75 45.15 32.2 44.75 29.3 44.0 Q28.35 41.25 29.0 38.9 29.25 38.05 29.75 37.3 L30.15 36.65 35.55 38.1 41.1 38.5 43.55 38.2 43.9 38.1 45.65 37.45 44.1 40.9 Q42.8 42.85 40.8 44.45 L40.55 44.7 M44.45 36.4 L41.2 37.0 35.1 36.7 Q34.65 33.85 32.85 30.4 L35.3 30.9 38.45 30.7 39.9 30.2 40.1 29.95 44.45 36.4 M13.6 19.25 L13.9 20.8 15.45 27.5 15.2 28.2 14.2 32.15 13.6 19.25" fill="#6c2206" fill-rule="evenodd" stroke="none"/>
      <path d="M10.4 33.65 Q8.7 28.45 9.55 24.7 9.6 23.85 10.0 23.0 L12.8 26.1 14.2 32.15 15.2 28.2 Q18.3 30.75 21.8 32.75 L22.5 35.5 Q22.65 37.55 22.25 39.45 L21.75 41.15 Q15.9 38.35 11.05 34.2 L10.4 33.65 M38.6 45.1 L36.7 44.65 34.85 45.15 34.8 45.1 37.1 42.95 38.6 45.1 M17.7 17.05 Q18.4 16.15 19.95 15.8 21.9 15.25 24.55 15.8 25.45 18.05 25.55 19.75 25.6 21.95 24.5 23.45 L24.3 23.35 Q21.55 22.4 19.45 22.2 17.95 20.3 17.65 18.55 L17.6 17.5 17.7 17.05" fill="#560000" fill-rule="evenodd" stroke="none"/>
      <path d="M3.6 23.4 L3.6 23.5 Q4.45 28.15 10.4 33.65 M3.6 23.4 Q3.25 21.15 4.25 19.65 L7.0 14.55 7.85 12.95 Q8.85 10.7 12.35 9.8 L15.05 9.45 18.2 9.55 18.4 9.6 19.7 10.8 21.2 10.1 21.35 10.1 22.9 10.45 24.3 10.9 26.3 11.6 26.8 11.8 28.8 12.55 Q30.7 13.35 32.45 14.35 L32.5 14.35 33.3 14.75 Q37.7 17.15 41.4 20.45 L42.1 21.1 Q48.0 26.35 48.75 31.1 49.15 33.35 48.2 34.85 L48.2 34.9 44.55 41.65 44.1 42.5 Q43.05 43.95 40.8 44.65 L40.55 44.7 40.15 44.8 38.6 45.1 36.7 44.65 34.85 45.15 34.75 45.15 32.2 44.75 29.3 44.0 26.15 42.95 25.95 42.9 24.85 42.5 21.75 41.15 Q15.9 38.35 11.05 34.2 L10.4 33.65 M29.7 26.0 L32.85 28.4 34.05 29.5 35.3 30.9 38.45 30.7 39.9 30.2 40.1 29.95 40.7 29.45 M32.85 30.4 L30.45 29.65 26.4 27.8 24.5 26.65 Q23.1 25.7 21.85 24.6 L19.9 22.7 19.45 22.2 Q17.95 20.3 17.65 18.55 L17.6 17.5 17.7 17.05 M47.6 35.7 L47.6 35.65 M24.5 23.45 L26.5 24.25 29.7 26.0 M19.45 22.2 Q21.55 22.4 24.3 23.35 L24.5 23.45 M35.3 30.9 L32.85 30.4 M34.75 45.15 L34.8 45.1" fill="none" stroke="#000000" stroke-linecap="round" stroke-linejoin="round" stroke-opacity="0.3019608" stroke-width="0.5"/>
      <path d="M44.5 41.25 L44.25 41.6 43.15 42.4 41.4 43.05 41.05 43.15 40.8 43.2 38.6 43.45 35.55 43.45 33.1 43.05 31.15 42.65 28.7 41.95 28.45 41.8 27.65 41.6 27.0 41.25 24.55 40.3 23.65 39.9 20.1 38.1 19.35 37.65 16.05 35.65 Q14.3 34.5 12.7 33.15 L10.35 31.05 9.2 29.9 7.5 27.95 6.8 26.95 6.65 26.8 Q5.35 24.8 4.8 23.0 L4.55 21.85 4.5 21.75 Q4.25 20.65 4.45 19.7 4.55 21.95 5.15 23.0 L5.3 23.15 5.7 24.1 Q6.15 25.35 7.35 26.95 L10.3 30.45 10.5 30.7 Q12.85 32.85 16.25 35.1 L16.6 35.35 17.45 35.85 17.55 35.9 20.7 37.8 21.4 38.2 Q24.5 40.05 28.7 41.35 L29.8 41.65 30.5 41.9 32.65 42.45 34.25 42.7 34.55 42.7 35.05 42.75 Q37.9 43.05 39.95 42.7 L41.35 42.45 44.15 41.5 Q44.3 41.3 44.5 41.25" fill="#feeba3" fill-rule="evenodd" stroke="none"/>
      <path d="M45.35 39.75 L45.35 39.7 45.35 39.75" fill="#7d4713" fill-rule="evenodd" stroke="none"/>
      <path d="M5.15 18.3 L5.15 18.15 6.1 17.4 6.1 18.15 6.15 18.95 6.25 19.4 6.5 20.15 Q7.05 22.1 8.5 24.2 L9.2 25.05 9.75 25.75 11.0 27.15 15.1 30.85 15.35 31.05 Q18.25 33.35 21.65 35.25 L24.75 36.75 24.8 36.8 25.95 37.3 26.1 37.4 24.2 37.55 22.4 37.7 20.05 36.4 19.95 36.3 16.3 33.15 12.3 30.45 9.6 26.95 8.45 26.95 8.1 26.6 7.0 25.0 6.6 24.35 5.95 20.95 5.7 22.4 5.45 21.7 5.3 21.2 5.2 20.6 5.2 20.55 5.15 20.45 5.1 20.2 Q4.95 19.2 5.15 18.3 M42.9 40.2 L43.1 40.15 45.25 39.2 45.35 39.7 44.5 40.6 43.8 41.05 43.75 41.15 42.05 41.7 41.75 41.8 42.9 40.2" fill="#ff0000" fill-rule="evenodd" stroke="none"/>
      <path d="M26.1 37.4 L27.0 37.75 28.65 38.4 30.75 39.1 34.7 40.15 36.3 40.45 37.45 40.55 35.0 42.0 34.4 41.9 33.75 41.7 32.05 41.35 31.85 41.3 30.75 41.0 24.2 37.55 26.1 37.4 M13.35 31.85 L11.0 29.75 Q9.55 28.35 8.45 26.95 L9.6 26.95 12.3 30.45 13.35 31.85" fill="#aa0000" fill-rule="evenodd" stroke="none"/>
      <path d="M37.45 40.55 L39.7 40.6 42.7 40.2 42.8 40.2 42.9 40.2 41.75 41.8 41.7 41.8 39.25 42.1 36.3 42.1 35.15 42.0 35.0 42.0 37.45 40.55 M29.2 40.55 L28.3 40.25 27.95 40.1 27.65 39.95 25.2 39.0 24.3 38.6 22.4 37.7 24.2 37.55 30.75 41.0 29.45 40.6 29.2 40.55" fill="#660000" fill-rule="evenodd" stroke="none"/>
      <path d="M20.05 36.4 L19.95 36.35 19.85 36.3 Q17.0 34.7 14.45 32.7 L14.15 32.5 13.35 31.85 12.3 30.45 16.3 33.15 19.95 36.3 20.05 36.4 M6.6 24.35 L5.7 22.45 5.7 22.4 5.95 20.95 6.6 24.35" fill="#ff2b2b" fill-rule="evenodd" stroke="none"/>
      <path d="M4.45 19.7 L4.5 19.5 5.15 18.3 Q4.95 19.2 5.1 20.2 L5.15 20.45 5.2 20.55 5.2 20.6 5.3 21.2 5.45 21.7 5.7 22.4 5.7 22.45 6.6 24.35 7.0 25.0 8.1 26.6 8.45 26.95 Q9.55 28.35 11.0 29.75 L13.35 31.85 14.15 32.5 14.45 32.7 Q17.0 34.7 19.85 36.3 L19.95 36.35 20.05 36.4 22.4 37.7 24.3 38.6 25.2 39.0 27.65 39.95 27.95 40.1 28.3 40.25 29.2 40.55 28.7 41.35 Q24.5 40.05 21.4 38.2 L20.7 37.8 17.55 35.9 17.45 35.85 16.6 35.35 16.25 35.1 Q12.85 32.85 10.5 30.7 L10.3 30.45 7.35 26.95 Q6.15 25.35 5.7 24.1 L5.3 23.15 5.15 23.0 Q4.55 21.95 4.45 19.7 M44.5 40.6 L45.35 39.75 45.25 40.1 44.95 40.5 44.5 41.25 Q44.3 41.3 44.15 41.5 L41.35 42.45 39.95 42.7 Q37.9 43.05 35.05 42.75 L34.55 42.7 35.15 42.0 36.3 42.1 39.25 42.1 41.7 41.8 41.75 41.8 42.05 41.7 43.75 41.15 43.8 41.05 44.5 40.6" fill="#560000" fill-rule="evenodd" stroke="none"/>
      <path d="M28.7 41.35 L29.2 40.55 29.45 40.6 30.75 41.0 31.85 41.3 32.05 41.35 33.75 41.7 34.4 41.9 35.0 42.0 35.15 42.0 34.55 42.7 34.25 42.7 32.65 42.45 30.5 41.9 29.8 41.65 28.7 41.35" fill="#6c2206" fill-rule="evenodd" stroke="none"/>
      <path d="M5.15 18.3 L5.15 18.15 6.1 17.4 6.1 18.15 6.15 18.95 6.25 19.4 6.5 20.15 Q7.05 22.1 8.5 24.2 L9.2 25.05 9.75 25.75 11.0 27.15 15.1 30.85 15.35 31.05 Q18.25 33.35 21.65 35.25 L24.75 36.75 24.8 36.8 25.95 37.3 26.1 37.4 27.0 37.75 28.65 38.4 30.75 39.1 34.7 40.15 36.3 40.45 37.45 40.55 39.7 40.6 42.7 40.2 42.8 40.2 42.9 40.2 43.1 40.15 45.25 39.2 45.35 39.7 44.5 40.6" fill="none" stroke="#000000" stroke-linecap="round" stroke-linejoin="round" stroke-opacity="0.3019608" stroke-width="0.5"/>
    </g>
    <g id="sprite0" transform="matrix(1.0, 0.0, 0.0, 1.0, 73.5, 65.0)">
      <use height="136.85" transform="matrix(1.0, 0.0, 0.0, 1.0, -73.5, -65.0)" width="148.25" xlink:href="#shape1"/>
    </g>
    <g id="shape1" transform="matrix(1.0, 0.0, 0.0, 1.0, 73.5, 65.0)">
      <path d="M36.65 -54.65 Q60.05 -42.0 69.75 -17.95 80.55 8.9 68.0 34.1 55.45 59.35 26.8 68.2 -1.8 77.05 -29.7 64.3 -57.6 51.6 -68.45 24.75 -79.3 -2.05 -66.75 -27.25 L-66.7 -27.3 Q-54.1 -52.5 -25.5 -61.4 3.1 -70.2 31.0 -57.5 L36.65 -54.65" fill="url(#gradient0)" fill-rule="evenodd" stroke="none"/>
    </g>
    <radialGradient cx="0" cy="0" gradientTransform="matrix(0.0914, 0.0, 0.0, 0.0914, 0.6, 3.4)" gradientUnits="userSpaceOnUse" id="gradient0" r="819.2" spreadMethod="pad">
      <stop offset="0.0" stop-color="#ffffff"/>
      <stop offset="1.0" stop-color="#ffffff" stop-opacity="0.0"/>
    </radialGradient>
    <g id="sprite1" transform="matrix(1.0, 0.0, 0.0, 1.0, 0.0, 0.0)">
      <use height="20.95" transform="matrix(1.0, 0.0, 0.0, 1.0, 0.0, 0.0)" width="24.45" xlink:href="#shape2"/>
    </g>
    <g id="shape2" transform="matrix(1.0, 0.0, 0.0, 1.0, 0.0, 0.0)">
      <path d="M14.85 11.4 Q15.8 11.6 16.25 12.45 16.85 13.3 16.6 14.35 16.4 15.3 15.55 15.9 14.65 16.4 13.65 16.2 12.65 15.9 12.1 15.1 11.6 14.2 11.8 13.2 12.1 12.2 12.9 11.65 13.8 11.15 14.85 11.4" fill="#ffffff" fill-opacity="0.7882353" fill-rule="evenodd" stroke="none"/>
      <path d="M14.85 11.4 Q13.8 11.15 12.9 11.65 12.1 12.2 11.8 13.2 11.6 14.2 12.1 15.1 12.65 15.9 13.65 16.2 14.65 16.4 15.55 15.9 16.4 15.3 16.6 14.35 16.85 13.3 16.25 12.45 15.8 11.6 14.85 11.4 M18.2 11.35 L20.15 11.25 18.75 12.55 Q19.05 13.8 18.8 15.05 18.5 16.35 17.65 17.3 L19.1 20.95 16.55 18.25 Q14.8 19.3 12.8 18.85 10.8 18.35 9.75 16.65 9.05 15.5 8.95 14.3 7.75 12.4 4.95 11.55 L9.7 11.4 Q10.3 10.4 11.35 9.75 13.1 8.75 15.1 9.15 16.95 9.5 18.1 11.15 L18.2 11.35" fill="#ffffff" fill-opacity="0.23529412" fill-rule="evenodd" stroke="none"/>
      <path d="M15.4 13.55 L18.1 17.55 13.35 14.65 7.05 18.5 12.75 13.55 0.0 0.0 14.25 12.25 24.45 5.95 15.4 13.55" fill="#ffffff" fill-opacity="0.7882353" fill-rule="evenodd" stroke="none"/>
    </g>
  </defs>
</svg>
