<?xml version="1.0" encoding="UTF-8" standalone="no"?>
<svg xmlns:xlink="http://www.w3.org/1999/xlink" height="520.0px" width="520.0px" xmlns="http://www.w3.org/2000/svg">
  <g transform="matrix(10.0, 0.0, 0.0, 10.0, 0.0, 0.0)">
    <use height="52.0" transform="matrix(1.0, 0.0, 0.0, 1.0, 0.0, 0.0)" width="52.0" xlink:href="#shape0"/>
    <use height="136.85" transform="matrix(-0.0486, 0.066, -0.2024, -0.1507, 38.0309, 34.9968)" width="148.25" xlink:href="#sprite0"/>
    <use height="136.85" transform="matrix(-0.0347, 0.0443, -0.1558, -0.1161, 46.4332, 23.8891)" width="148.25" xlink:href="#sprite0"/>
    <use height="20.95" transform="matrix(-0.3907, 0.2301, 0.4069, 0.5753, 38.65, 24.25)" width="24.45" xlink:href="#sprite1"/>
    <use height="20.95" transform="matrix(-0.2907, 0.1712, 0.3027, 0.428, 30.0, 7.9)" width="24.45" xlink:href="#sprite1"/>
    <use height="20.95" transform="matrix(-0.3932, 0.0262, 0.3027, 0.428, 15.65, 12.9)" width="24.45" xlink:href="#sprite1"/>
  </g>
  <defs>
    <g id="shape0" transform="matrix(1.0, 0.0, 0.0, 1.0, 0.0, 0.0)">
      <path d="M52.0 0.0 L52.0 52.0 0.0 52.0 0.0 0.0 52.0 0.0" fill="#795fa9" fill-opacity="0.0" fill-rule="evenodd" stroke="none"/>
      <path d="M44.65 34.85 Q46.65 34.15 47.3 32.7 48.3 29.15 46.4 26.15 44.65 23.55 42.2 20.95 38.5 17.1 33.05 13.2 L32.65 12.85 32.7 12.85 Q33.05 13.05 33.55 13.25 37.9 15.65 41.6 18.9 L42.3 19.55 Q48.25 24.8 49.0 29.55 49.4 31.8 48.45 33.3 L48.45 33.35 47.85 34.1 47.85 34.15 Q46.75 35.2 44.75 35.8 L44.35 35.85 41.35 36.25 36.4 35.8 32.4 34.75 35.35 35.15 41.4 35.45 44.65 34.85 M19.25 9.85 L17.6 8.55 Q13.85 8.3 10.45 10.35 9.3 11.2 9.05 13.7 9.05 17.1 11.4 21.4 8.95 18.45 8.15 15.8 L7.85 14.6 Q7.5 12.8 8.1 11.4 9.05 9.15 12.55 8.25 L15.25 7.9 18.4 8.0 18.6 8.05 19.25 9.85" fill="#fef081" fill-rule="evenodd" stroke="none"/>
      <path d="M23.1 8.9 L23.6 10.1 23.6 10.25 Q23.95 11.6 23.75 13.3 L20.55 13.5 Q18.35 14.0 17.9 15.55 L17.8 16.0 17.85 17.05 Q18.15 18.75 19.65 20.65 L20.1 21.15 22.1 23.05 24.75 25.15 Q24.75 27.1 24.3 28.7 L23.3 30.9 Q19.8 28.95 16.75 26.5 L14.1 19.25 13.8 17.7 12.65 22.8 11.4 21.4 Q9.05 17.1 9.05 13.7 9.3 11.2 10.45 10.35 13.85 8.3 17.6 8.55 L19.25 9.85 19.85 11.65 21.45 8.55 21.6 8.55 23.1 8.9" fill="#fdb713" fill-rule="evenodd" stroke="none"/>
      <path d="M35.05 43.55 L37.35 41.45 38.85 43.55 36.95 43.1 35.1 43.6 35.05 43.55 M21.45 8.55 L19.85 11.65 19.9 9.25 21.45 8.55 M13.8 17.7 L14.1 19.25 15.65 26.0 15.4 26.7 14.4 30.6 13.8 17.7" fill="#c18908" fill-rule="evenodd" stroke="none"/>
      <path d="M32.4 34.75 L36.4 35.8 41.35 36.25 44.35 35.85 44.75 35.8 Q46.75 35.2 47.85 34.15 47.15 35.15 45.85 35.9 L44.1 36.55 43.75 36.65 41.3 36.95 35.8 36.55 30.35 35.1 29.7 34.8 27.25 33.85 26.35 33.45 22.05 31.2 Q18.5 29.25 15.4 26.7 L15.65 26.0 14.1 19.25 16.75 26.5 Q19.8 28.95 23.3 30.9 L26.4 32.4 26.45 32.45 30.3 34.05 32.4 34.75 M32.7 16.35 Q35.1 17.75 37.1 19.5 40.85 22.7 41.3 25.6 L41.35 26.4 Q41.3 27.25 40.9 27.9 L40.9 26.3 40.9 26.2 Q40.4 23.6 37.3 20.75 L36.75 20.2 Q33.2 17.2 28.75 15.45 L28.15 15.25 26.9 14.8 24.8 14.25 Q22.15 13.75 20.15 14.25 18.6 14.6 17.9 15.55 18.35 14.0 20.55 13.5 L23.75 13.3 26.25 13.8 26.95 13.95 28.5 14.45 32.7 16.35 M19.85 11.65 L19.25 9.85 18.6 8.05 19.9 9.25 19.85 11.65 M11.4 21.4 L12.65 22.8 13.8 17.7 14.4 30.6 13.05 24.55 10.2 21.45 Q8.25 18.9 7.5 16.55 L7.25 15.4 7.2 15.3 Q6.95 14.1 7.2 13.05 L8.1 11.4 Q7.5 12.8 7.85 14.6 L8.15 15.8 Q8.95 18.45 11.4 21.4" fill="#fffabf" fill-rule="evenodd" stroke="none"/>
      <path d="M35.35 35.15 L32.4 34.75 30.3 34.05 26.45 32.45 26.4 32.4 23.3 30.9 24.3 28.7 Q24.75 27.1 24.75 25.15 L26.6 26.3 30.65 28.15 33.05 28.9 Q34.9 32.3 35.35 35.15 M23.75 13.3 Q23.95 11.6 23.6 10.25 L23.6 10.1 23.1 8.9 24.5 9.35 25.0 10.55 25.0 10.65 26.25 13.8 23.75 13.3" fill="#ffed58" fill-rule="evenodd" stroke="none"/>
      <path d="M32.65 12.85 L33.05 13.2 Q38.5 17.1 42.2 20.95 44.65 23.55 46.4 26.15 48.3 29.15 47.3 32.7 46.65 34.15 44.65 34.85 L40.3 28.45 40.9 27.9 40.3 28.45 40.1 28.65 38.65 29.15 35.55 29.35 34.3 28.0 Q36.6 26.8 37.15 24.15 37.5 22.7 37.3 20.75 40.4 23.6 40.9 26.2 L40.9 26.3 40.9 27.9 Q41.3 27.25 41.35 26.4 L41.3 25.6 Q40.85 22.7 37.1 19.5 35.1 17.75 32.7 16.35 L29.7 12.05 29.65 11.9 29.0 11.0 Q30.9 11.8 32.65 12.85" fill="#ffe014" fill-rule="evenodd" stroke="none"/>
      <path d="M47.85 34.15 L47.85 34.1 48.45 33.35 44.75 40.1 44.3 41.0 Q43.25 42.4 41.0 43.1 L40.75 43.15 41.0 42.95 Q43.0 41.35 44.3 39.4 L45.85 35.9 Q47.15 35.15 47.85 34.15 M7.2 13.05 Q6.95 14.1 7.2 15.3 L7.25 15.4 Q6.25 16.35 5.35 18.15 L3.8 21.85 Q3.45 19.6 4.45 18.1 L7.2 13.05" fill="#ffcc00" fill-rule="evenodd" stroke="none"/>
      <path d="M44.65 34.85 L41.4 35.45 35.35 35.15 Q34.9 32.3 33.05 28.9 L35.55 29.35 38.65 29.15 40.1 28.65 40.3 28.45 44.65 34.85 M29.0 11.0 L29.65 11.9 29.7 12.05 32.7 16.35 28.5 14.45 26.95 13.95 26.25 13.8 25.0 10.65 25.0 10.55 24.5 9.35 26.5 10.05 27.0 10.25 29.0 11.0" fill="#eca602" fill-rule="evenodd" stroke="none"/>
      <path d="M45.85 35.9 L44.3 39.4 Q43.0 41.35 41.0 42.95 L40.75 43.15 40.35 43.25 38.85 43.55 37.35 41.45 35.05 43.55 35.0 43.6 32.4 43.2 29.5 42.5 Q28.55 39.7 29.2 37.35 29.45 36.5 29.95 35.75 L30.35 35.1 35.8 36.55 41.3 36.95 43.75 36.65 44.1 36.55 45.85 35.9 M29.9 24.45 Q28.55 21.75 28.25 19.6 27.95 17.25 28.75 15.45 33.2 17.2 36.75 20.2 L37.3 20.75 Q37.5 22.7 37.15 24.15 36.6 26.8 34.3 28.0 L33.05 26.9 29.9 24.45 M7.25 15.4 L7.5 16.55 Q8.25 18.9 10.2 21.45 L9.75 23.15 Q8.95 26.95 10.65 32.1 4.65 26.65 3.8 21.95 L3.8 21.85 5.35 18.15 Q6.25 16.35 7.25 15.4" fill="#e3b602" fill-rule="evenodd" stroke="none"/>
      <path d="M19.65 20.65 Q18.15 18.75 17.85 17.05 L17.8 16.0 17.9 15.55 Q18.6 14.6 20.15 14.25 22.15 13.75 24.8 14.25 25.65 16.5 25.75 18.25 25.8 20.4 24.75 21.9 L24.5 21.8 Q21.8 20.85 19.65 20.65 M10.2 21.45 L13.05 24.55 14.4 30.6 15.4 26.7 Q18.5 29.25 22.05 31.2 L22.7 33.95 Q22.9 36.0 22.5 37.95 L22.0 39.65 Q16.1 36.8 11.25 32.65 L10.65 32.1 Q8.95 26.95 9.75 23.15 L10.2 21.45" fill="#7c541a" fill-rule="evenodd" stroke="none"/>
      <path d="M30.35 35.1 L29.95 35.75 Q29.45 36.5 29.2 37.35 28.55 39.7 29.5 42.5 L26.35 41.45 26.15 41.4 25.05 41.0 22.0 39.65 22.5 37.95 Q22.9 36.0 22.7 33.95 L22.05 31.2 26.35 33.45 27.25 33.85 29.7 34.8 30.35 35.1 M24.8 14.25 L26.9 14.8 28.15 15.25 28.75 15.45 Q27.95 17.25 28.25 19.6 28.55 21.75 29.9 24.45 28.35 23.45 26.7 22.7 L24.75 21.9 Q25.8 20.4 25.75 18.25 25.65 16.5 24.8 14.25" fill="#fede5f" fill-rule="evenodd" stroke="none"/>
      <path d="M47.85 34.15 L47.85 34.1 M48.45 33.35 L48.45 33.3 Q49.4 31.8 49.0 29.55 48.25 24.8 42.3 19.55 L41.6 18.9 Q37.9 15.65 33.55 13.25 33.05 13.05 32.7 12.85 L32.65 12.85 Q30.9 11.8 29.0 11.0 M40.9 27.9 L40.3 28.45 M40.75 43.15 L41.0 43.1 Q43.25 42.4 44.3 41.0 L44.75 40.1 48.45 33.35 M29.5 42.5 L32.4 43.2 35.0 43.6 35.05 43.55 M38.85 43.55 L40.35 43.25 40.75 43.15 M24.5 9.35 L23.1 8.9 21.6 8.55 21.45 8.55 M24.75 25.15 L22.1 23.05 20.1 21.15 19.65 20.65 Q18.15 18.75 17.85 17.05 L17.8 16.0 17.9 15.55 M24.5 9.35 L26.5 10.05 27.0 10.25 29.0 11.0 M24.75 21.9 L26.7 22.7 Q28.35 23.45 29.9 24.45 M8.1 11.4 L7.2 13.05 M8.1 11.4 Q9.05 9.15 12.55 8.25 L15.25 7.9 18.4 8.0 18.6 8.05 19.9 9.25 21.45 8.55 M3.8 21.85 L3.8 21.95 Q4.65 26.65 10.65 32.1 M3.8 21.85 Q3.45 19.6 4.45 18.1 L7.2 13.05 M22.0 39.65 Q16.1 36.8 11.25 32.65 L10.65 32.1 M22.0 39.65 L25.05 41.0 26.15 41.4 26.35 41.45 29.5 42.5 M34.3 28.0 L35.55 29.35 38.65 29.15 40.1 28.65 40.3 28.45 M34.3 28.0 L33.05 26.9 29.9 24.45 M19.65 20.65 Q21.8 20.85 24.5 21.8 L24.75 21.9 M33.05 28.9 L30.65 28.15 26.6 26.3 24.75 25.15 M35.55 29.35 L33.05 28.9 M38.85 43.55 L36.95 43.1 35.1 43.6 35.0 43.6" fill="none" stroke="#000000" stroke-linecap="round" stroke-linejoin="round" stroke-opacity="0.3019608" stroke-width="0.5"/>
      <path d="M4.65 18.2 L4.7 18.0 5.35 16.8 Q5.15 17.7 5.3 18.7 L5.35 18.95 5.4 19.05 5.4 19.1 5.5 19.7 5.65 20.2 5.9 20.9 5.9 20.95 6.8 22.85 7.25 23.5 8.35 25.1 8.65 25.45 Q9.75 26.85 11.2 28.25 L13.55 30.35 14.35 31.0 14.65 31.2 Q17.2 33.2 20.1 34.8 L20.2 34.85 20.25 34.9 22.6 36.2 24.5 37.1 25.4 37.5 27.85 38.45 28.15 38.55 28.5 38.8 29.4 39.1 28.9 39.9 Q24.7 38.5 21.65 36.7 L20.95 36.3 17.75 34.4 17.65 34.35 16.8 33.85 16.45 33.6 Q13.05 31.35 10.7 29.2 L10.5 28.95 7.6 25.45 Q6.35 23.85 5.9 22.6 L5.45 21.65 5.35 21.5 Q4.75 20.45 4.65 18.2" fill="#9b5917" fill-rule="evenodd" stroke="none"/>
      <path d="M44.7 39.8 L44.45 40.1 43.35 40.9 41.6 41.55 41.25 41.65 41.0 41.7 38.8 41.95 35.75 41.95 33.3 41.55 31.3 41.15 28.9 40.45 28.65 40.35 27.85 40.1 27.2 39.8 24.75 38.85 23.85 38.4 20.3 36.6 19.5 36.15 16.25 34.15 12.9 31.65 10.55 29.55 9.4 28.4 7.7 26.45 6.95 25.45 6.85 25.3 Q5.55 23.3 5.0 21.5 L4.75 20.35 4.7 20.25 Q4.45 19.15 4.65 18.2 4.75 20.45 5.35 21.5 L5.45 21.65 5.9 22.6 Q6.35 23.85 7.6 25.45 L10.5 28.95 10.7 29.2 Q13.05 31.35 16.45 33.6 L16.8 33.85 17.65 34.35 17.75 34.4 20.95 36.3 21.65 36.7 Q24.7 38.5 28.9 39.9 L30.0 40.2 30.7 40.4 32.85 40.95 34.45 41.2 34.75 41.2 35.25 41.25 Q38.1 41.55 40.15 41.2 L41.55 40.95 44.35 40.0 44.7 39.8" fill="#feeba3" fill-rule="evenodd" stroke="none"/>
      <path d="M44.7 39.15 L45.6 38.2 45.6 38.15 45.6 38.25 45.5 38.6 45.15 39.0 44.7 39.8 44.35 40.0 41.55 40.95 40.15 41.2 Q38.1 41.55 35.25 41.25 L34.75 41.2 35.35 40.5 36.5 40.65 39.45 40.65 41.9 40.35 41.95 40.35 42.25 40.25 43.95 39.65 44.0 39.6 44.7 39.15" fill="#7d4713" fill-rule="evenodd" stroke="none"/>
      <path d="M30.9 39.55 L32.0 39.85 32.25 39.9 33.95 40.25 34.6 40.4 35.2 40.5 35.35 40.5 34.75 41.2 34.45 41.2 32.85 40.95 30.7 40.4 30.0 40.2 28.9 39.9 29.4 39.1 29.65 39.15 30.9 39.55" fill="#a9611b" fill-rule="evenodd" stroke="none"/>
      <path d="M43.05 38.75 L43.3 38.65 45.5 37.7 45.6 38.15 44.7 39.15 44.0 39.6 43.95 39.65 42.25 40.25 41.95 40.35 43.05 38.75 M5.35 16.8 L5.35 16.7 6.25 15.95 6.25 16.7 6.35 17.45 6.45 17.9 6.65 18.65 Q7.3 20.6 8.75 22.7 L9.4 23.55 9.95 24.25 11.2 25.65 15.3 29.35 15.55 29.55 Q18.45 31.85 21.85 33.75 L24.95 35.25 25.0 35.3 26.15 35.8 26.3 35.9 24.4 36.05 22.6 36.2 20.25 34.9 20.2 34.8 16.5 31.65 12.5 28.95 9.85 25.45 8.65 25.45 8.35 25.1 7.25 23.5 6.8 22.85 6.15 19.45 5.9 20.9 5.65 20.2 5.5 19.7 5.4 19.1 5.4 19.05 5.35 18.95 5.3 18.7 Q5.15 17.7 5.35 16.8" fill="#ff0000" fill-rule="evenodd" stroke="none"/>
      <path d="M26.3 35.9 L27.2 36.25 28.85 36.9 30.95 37.6 34.95 38.65 36.5 38.95 37.65 39.1 35.2 40.5 34.6 40.4 33.95 40.25 32.25 39.9 32.0 39.85 30.9 39.55 24.4 36.05 26.3 35.9 M13.55 30.35 L11.2 28.25 Q9.75 26.85 8.65 25.45 L9.85 25.45 12.5 28.95 13.55 30.35" fill="#aa0000" fill-rule="evenodd" stroke="none"/>
      <path d="M37.65 39.1 L39.9 39.15 42.9 38.75 43.0 38.75 43.05 38.75 41.95 40.35 41.9 40.35 39.45 40.65 36.5 40.65 35.35 40.5 35.2 40.5 37.65 39.1 M22.6 36.2 L24.4 36.05 30.9 39.55 29.65 39.15 29.4 39.1 28.5 38.8 28.15 38.55 27.85 38.45 25.4 37.5 24.5 37.1 22.6 36.2" fill="#660000" fill-rule="evenodd" stroke="none"/>
      <path d="M20.25 34.9 L20.2 34.85 20.1 34.8 Q17.2 33.2 14.65 31.2 L14.35 31.0 13.55 30.35 12.5 28.95 16.5 31.65 20.2 34.8 20.25 34.9 M6.8 22.85 L5.9 20.95 5.9 20.9 6.15 19.45 6.8 22.85" fill="#ff2b2b" fill-rule="evenodd" stroke="none"/>
      <path d="M43.05 38.75 L43.3 38.65 45.5 37.7 45.6 38.15 44.7 39.15 M5.35 16.8 L5.35 16.7 6.25 15.95 6.25 16.7 6.35 17.45 6.45 17.9 6.65 18.65 Q7.3 20.6 8.75 22.7 L9.4 23.55 9.95 24.25 11.2 25.65 15.3 29.35 15.55 29.55 Q18.45 31.85 21.85 33.75 L24.95 35.25 25.0 35.3 26.15 35.8 26.3 35.9 27.2 36.25 28.85 36.9 30.95 37.6 34.95 38.65 36.5 38.95 37.65 39.1 39.9 39.15 42.9 38.75 43.0 38.75 43.05 38.75 Z" fill="none" stroke="#000000" stroke-linecap="round" stroke-linejoin="round" stroke-opacity="0.3019608" stroke-width="0.5"/>
    </g>
    <g id="sprite0" transform="matrix(1.0, 0.0, 0.0, 1.0, 73.5, 65.0)">
      <use height="136.85" transform="matrix(1.0, 0.0, 0.0, 1.0, -73.5, -65.0)" width="148.25" xlink:href="#shape1"/>
    </g>
    <g id="shape1" transform="matrix(1.0, 0.0, 0.0, 1.0, 73.5, 65.0)">
      <path d="M36.65 -54.65 Q60.05 -42.0 69.75 -17.95 80.55 8.9 68.0 34.1 55.45 59.35 26.8 68.2 -1.8 77.05 -29.7 64.3 -57.6 51.6 -68.45 24.75 -79.3 -2.05 -66.75 -27.25 L-66.7 -27.3 Q-54.1 -52.5 -25.5 -61.4 3.1 -70.2 31.0 -57.5 L36.65 -54.65" fill="url(#gradient0)" fill-rule="evenodd" stroke="none"/>
    </g>
    <radialGradient cx="0" cy="0" gradientTransform="matrix(0.0914, 0.0, 0.0, 0.0914, 0.6, 3.4)" gradientUnits="userSpaceOnUse" id="gradient0" r="819.2" spreadMethod="pad">
      <stop offset="0.0" stop-color="#ffffff"/>
      <stop offset="1.0" stop-color="#ffffff" stop-opacity="0.0"/>
    </radialGradient>
    <g id="sprite1" transform="matrix(1.0, 0.0, 0.0, 1.0, 0.0, 0.0)">
      <use height="20.95" transform="matrix(1.0, 0.0, 0.0, 1.0, 0.0, 0.0)" width="24.45" xlink:href="#shape2"/>
    </g>
    <g id="shape2" transform="matrix(1.0, 0.0, 0.0, 1.0, 0.0, 0.0)">
      <path d="M14.85 11.4 Q15.8 11.6 16.25 12.45 16.85 13.3 16.6 14.35 16.4 15.3 15.55 15.9 14.65 16.4 13.65 16.2 12.65 15.9 12.1 15.1 11.6 14.2 11.8 13.2 12.1 12.2 12.9 11.65 13.8 11.15 14.85 11.4" fill="#ffffff" fill-opacity="0.7882353" fill-rule="evenodd" stroke="none"/>
      <path d="M14.85 11.4 Q13.8 11.15 12.9 11.65 12.1 12.2 11.8 13.2 11.6 14.2 12.1 15.1 12.65 15.9 13.65 16.2 14.65 16.4 15.55 15.9 16.4 15.3 16.6 14.35 16.85 13.3 16.25 12.45 15.8 11.6 14.85 11.4 M18.2 11.35 L20.15 11.25 18.75 12.55 Q19.05 13.8 18.8 15.05 18.5 16.35 17.65 17.3 L19.1 20.95 16.55 18.25 Q14.8 19.3 12.8 18.85 10.8 18.35 9.75 16.65 9.05 15.5 8.95 14.3 7.75 12.4 4.95 11.55 L9.7 11.4 Q10.3 10.4 11.35 9.75 13.1 8.75 15.1 9.15 16.95 9.5 18.1 11.15 L18.2 11.35" fill="#ffffff" fill-opacity="0.23529412" fill-rule="evenodd" stroke="none"/>
      <path d="M15.4 13.55 L18.1 17.55 13.35 14.65 7.05 18.5 12.75 13.55 0.0 0.0 14.25 12.25 24.45 5.95 15.4 13.55" fill="#ffffff" fill-opacity="0.7882353" fill-rule="evenodd" stroke="none"/>
    </g>
  </defs>
</svg>
