<?xml version="1.0" encoding="UTF-8" standalone="no"?>
<svg xmlns:xlink="http://www.w3.org/1999/xlink" height="520.0px" width="520.0px" xmlns="http://www.w3.org/2000/svg">
  <g transform="matrix(10.0, 0.0, 0.0, 10.0, 0.0, 0.0)">
    <use height="52.0" transform="matrix(1.0, 0.0, 0.0, 1.0, 0.0, 0.0)" width="52.0" xlink:href="#shape0"/>
    <use height="20.95" transform="matrix(0.0903, 0.7708, 0.861, -0.1134, 24.5, 7.35)" width="24.45" xlink:href="#sprite0"/>
    <use height="20.95" transform="matrix(-0.357, -0.3595, -0.3965, 0.4052, 24.1, 38.55)" width="24.45" xlink:href="#sprite0"/>
  </g>
  <defs>
    <g id="shape0" transform="matrix(1.0, 0.0, 0.0, 1.0, 0.0, 0.0)">
      <path d="M0.0 52.0 L0.0 0.0 52.0 0.0 52.0 52.0 0.0 52.0" fill="#33cc33" fill-opacity="0.0" fill-rule="evenodd" stroke="none"/>
      <path d="M28.65 10.55 L23.4 6.35 28.5 7.75 Q31.05 9.9 28.65 10.55 M17.4 18.85 L19.5 16.05 21.0 13.4 21.6 11.75 36.35 16.85 36.85 27.25 36.55 27.3 Q31.9 28.9 27.7 31.5 18.45 37.3 17.1 44.15 L7.05 41.35 7.05 28.4 9.85 26.35 12.25 28.35 11.05 25.35 12.45 24.0 15.8 20.65 Q14.8 21.05 13.55 20.65 L12.4 20.1 11.45 19.25 Q14.7 20.1 13.35 17.9 L14.15 18.6 14.75 19.05 15.5 19.35 15.55 19.35 16.8 19.55 17.1 19.55 17.4 18.85 M22.5 23.7 L22.05 23.5 20.65 23.4 Q19.9 23.45 19.3 23.9 18.15 24.8 18.0 26.55 L18.1 27.65 Q18.3 28.8 18.95 29.9 L19.3 30.45 20.35 31.4 20.4 34.6 22.15 32.15 Q23.35 32.35 24.35 31.65 L25.05 30.9 Q25.5 30.1 25.6 29.0 25.65 27.95 25.3 26.95 L25.05 26.5 24.6 25.65 25.1 18.85 22.5 23.7 M27.0 21.5 Q27.2 22.55 27.75 23.5 L28.35 24.3 Q29.25 25.25 30.35 25.6 31.95 26.1 33.15 25.25 L33.95 24.3 Q34.35 23.6 34.4 22.6 L34.35 21.4 34.05 20.4 33.45 19.25 33.05 18.7 Q32.15 17.55 30.85 17.1 L28.95 17.05 28.15 17.5 Q27.0 18.35 26.85 20.15 L27.0 21.5 M28.2 10.65 L20.4 10.45 14.8 9.15 14.6 9.1 14.55 9.1 8.7 6.15 13.35 3.55 16.75 4.45 16.9 4.55 28.2 10.65 M16.0 32.5 Q15.1 31.55 14.0 31.2 L12.55 31.05 Q11.8 31.15 11.25 31.6 10.1 32.4 10.0 34.15 9.95 35.2 10.25 36.25 L10.9 37.6 11.35 38.2 Q12.25 39.25 13.5 39.65 15.1 40.2 16.25 39.3 L17.05 38.5 17.55 36.7 Q17.6 35.35 17.05 34.1 L16.6 33.3 16.0 32.5 M33.7 43.15 L32.9 44.0 Q31.7 44.9 30.15 44.35 29.25 44.0 28.5 43.35 31.0 43.8 30.35 42.05 31.1 42.7 32.0 42.95 L33.25 43.15 33.7 43.15" fill="#ffa004" fill-rule="evenodd" stroke="none"/>
      <path d="M23.4 6.35 L28.65 10.55 29.95 11.6 21.25 6.1 23.4 6.35 M12.25 28.35 L9.85 26.35 7.05 23.9 7.75 20.8 12.25 28.35 M36.85 27.25 L36.35 16.85 21.6 11.75 16.8 10.0 14.75 9.25 14.8 9.15 20.4 10.45 37.3 14.4 41.7 13.05 38.45 17.5 38.1 24.2 37.9 29.65 37.4 38.85 37.0 30.0 36.85 27.25 M21.4 29.2 L21.95 29.75 22.8 30.35 23.15 30.55 23.6 30.7 25.05 30.9 24.35 31.65 Q23.35 32.35 22.15 32.15 L20.4 34.6 21.5 31.2 20.35 31.4 19.3 30.45 Q22.25 31.45 21.4 29.2 M24.6 25.65 L23.75 23.9 25.1 18.85 24.6 25.65 M33.95 24.3 L33.15 25.25 Q31.95 26.1 30.35 25.6 29.25 25.25 28.35 24.3 31.15 25.15 30.15 23.05 30.95 23.9 32.0 24.2 L32.7 24.35 33.95 24.3 M38.7 49.0 L36.05 49.35 35.9 49.35 Q37.1 45.3 37.4 40.6 37.35 42.4 37.55 44.0 37.85 46.7 38.7 49.0 M8.7 6.15 L14.55 9.1 7.05 8.5 8.7 6.15 M13.45 36.95 Q14.35 37.9 15.55 38.3 L17.05 38.5 16.25 39.3 Q15.1 40.2 13.5 39.65 12.25 39.25 11.35 38.2 14.25 38.85 13.45 36.95" fill="#fdb03e" fill-rule="evenodd" stroke="none"/>
      <path d="M21.25 6.1 L29.95 11.6 28.2 10.65 16.9 4.55 16.9 4.5 17.7 4.7 21.2 6.1 21.25 6.1 M11.05 25.35 L12.25 28.35 7.75 20.8 7.05 16.05 9.45 21.55 11.05 25.35 M43.6 21.3 L43.6 26.45 Q41.35 20.05 37.9 29.65 L38.1 24.2 Q41.75 16.85 43.6 21.3 M43.4 36.05 L43.6 36.7 43.6 40.5 Q41.65 46.25 37.55 44.0 37.35 42.4 37.4 40.6 L37.4 38.85 Q40.55 41.4 43.4 36.05" fill="#6c2206" fill-rule="evenodd" stroke="none"/>
      <path d="M21.6 11.75 L21.0 13.4 19.5 16.05 17.4 18.85 17.6 17.7 Q17.65 16.4 17.1 15.1 L17.0 14.85 16.95 14.8 16.65 14.3 16.6 14.2 16.9 11.45 16.8 10.0 21.6 11.75 M12.4 20.1 L13.55 20.65 Q14.8 21.05 15.8 20.65 L12.45 24.0 11.05 25.35 9.45 21.55 12.4 20.1 M9.85 26.35 L7.05 28.4 7.05 23.9 9.85 26.35 M35.9 49.35 L22.35 45.6 22.1 43.05 Q22.1 37.55 26.9 33.8 31.0 30.55 37.0 30.0 L37.4 38.85 37.4 40.6 Q37.1 45.3 35.9 49.35 M27.05 41.35 L27.5 42.25 28.5 43.35 Q29.25 44.0 30.15 44.35 31.7 44.9 32.9 44.0 L33.7 43.15 Q34.1 42.4 34.15 41.35 34.25 39.85 33.5 38.5 L33.2 38.0 31.95 36.6 Q31.35 36.1 30.6 35.85 L29.0 35.75 Q28.35 35.85 27.9 36.25 26.75 37.1 26.6 38.85 26.6 40.1 27.05 41.35" fill="#c16100" fill-rule="evenodd" stroke="none"/>
      <path d="M22.55 23.7 L22.5 23.7 22.55 23.7 M16.9 4.5 L16.9 4.55 16.9 4.5 M43.4 36.0 L43.4 36.05 43.4 36.0" fill="#ba8201" fill-rule="evenodd" stroke="none"/>
      <path d="M13.35 17.9 Q14.7 20.1 11.45 19.25 L10.95 18.6 Q10.45 17.8 10.25 17.0 10.9 14.85 12.25 15.6 12.45 16.45 12.9 17.3 L13.35 17.9 M17.1 44.15 Q18.45 37.3 27.7 31.5 31.9 28.9 36.55 27.3 L36.85 27.25 37.0 30.0 Q31.0 30.55 26.9 33.8 22.1 37.55 22.1 43.05 L22.35 45.6 17.1 44.15 M22.55 23.7 L22.5 23.7 25.1 18.85 23.75 23.9 22.55 23.7 M20.15 26.4 Q20.35 27.5 21.0 28.6 L21.4 29.2 Q22.25 31.45 19.3 30.45 L18.95 29.9 Q18.3 28.8 18.1 27.65 19.05 25.15 20.15 26.4 M28.35 24.3 L27.75 23.5 Q27.2 22.55 27.0 21.5 27.8 19.05 28.65 20.4 28.85 21.25 29.4 22.15 L30.15 23.05 Q31.15 25.15 28.35 24.3 M43.6 26.45 L43.6 29.55 40.25 26.85 43.4 36.0 43.4 36.05 Q40.55 41.4 37.4 38.85 L37.9 29.65 Q41.35 20.05 43.6 26.45 M12.45 35.25 L12.9 36.25 13.45 36.95 Q14.25 38.85 11.35 38.2 L10.9 37.6 10.25 36.25 Q10.85 32.9 12.45 35.25 M20.4 34.6 L20.35 31.4 21.5 31.2 20.4 34.6 M28.5 43.35 L27.5 42.25 27.05 41.35 Q27.2 39.1 29.0 40.05 L29.4 40.9 30.35 42.05 Q31.0 43.8 28.5 43.35" fill="#963807" fill-rule="evenodd" stroke="none"/>
      <path d="M15.5 19.35 L14.75 19.05 14.15 18.6 13.35 17.9 12.9 17.3 Q12.45 16.45 12.25 15.6 L12.0 13.9 Q12.1 12.8 12.6 12.05 L14.1 12.2 Q15.55 12.7 16.6 14.2 L16.65 14.3 16.95 14.8 16.55 14.25 15.55 14.1 14.35 14.2 Q13.35 14.6 13.35 15.9 13.35 17.6 14.65 18.75 L15.5 19.35 M22.5 23.7 L22.55 23.7 23.75 23.9 24.6 25.65 25.05 26.5 24.7 25.9 Q24.45 25.6 24.05 25.6 23.45 25.6 22.7 26.15 21.75 26.85 21.75 27.9 21.75 28.65 22.15 29.35 L22.35 29.7 22.8 30.35 21.95 29.75 21.4 29.2 21.0 28.6 Q20.35 27.5 20.15 26.4 L20.05 25.25 Q20.15 24.15 20.65 23.4 L22.05 23.5 22.5 23.7 M28.95 17.05 L30.85 17.1 Q32.15 17.55 33.05 18.7 L32.95 18.7 Q32.2 18.7 31.65 19.05 30.6 19.6 30.6 21.05 30.6 22.15 31.5 23.25 L31.65 23.35 32.7 24.35 32.0 24.2 Q30.95 23.9 30.15 23.05 L29.4 22.15 Q28.85 21.25 28.65 20.4 L28.5 18.75 Q28.6 17.75 28.95 17.05 M16.0 32.5 Q15.4 32.55 14.75 33.15 13.7 34.0 13.7 35.2 13.7 36.05 14.35 37.0 L14.5 37.25 15.55 38.3 Q14.35 37.9 13.45 36.95 L12.9 36.25 12.45 35.25 Q12.0 34.05 12.0 32.8 12.1 31.75 12.55 31.05 L14.0 31.2 Q15.1 31.55 16.0 32.5 M29.0 35.75 L30.6 35.85 Q31.35 36.1 31.95 36.6 31.0 37.5 31.0 39.25 31.0 40.9 31.7 41.9 L32.0 42.35 Q32.5 42.9 33.25 43.15 L32.0 42.95 Q31.1 42.7 30.35 42.05 L29.4 40.9 29.0 40.05 Q28.4 38.8 28.5 37.5 28.6 36.45 29.0 35.75" fill="#154040" fill-rule="evenodd" stroke="none"/>
      <path d="M20.65 23.4 Q20.15 24.15 20.05 25.25 L20.15 26.4 Q19.05 25.15 18.1 27.65 L18.0 26.55 Q18.15 24.8 19.3 23.9 19.9 23.45 20.65 23.4 M27.0 21.5 L26.85 20.15 Q27.0 18.35 28.15 17.5 L28.95 17.05 Q28.6 17.75 28.5 18.75 L28.65 20.4 Q27.8 19.05 27.0 21.5 M41.7 13.05 L43.6 11.95 43.6 21.3 Q41.75 16.85 38.1 24.2 L38.45 17.5 41.7 13.05 M43.6 29.55 L42.9 30.8 40.25 26.85 43.6 29.55 M43.6 40.5 L43.6 46.25 38.7 49.0 Q37.85 46.7 37.55 44.0 41.65 46.25 43.6 40.5 M12.6 12.05 Q12.1 12.8 12.0 13.9 L12.25 15.6 Q10.9 14.85 10.25 17.0 L10.05 15.2 Q10.2 13.45 11.35 12.6 11.9 12.15 12.6 12.05 M12.55 31.05 Q12.1 31.75 12.0 32.8 12.0 34.05 12.45 35.25 10.85 32.9 10.25 36.25 9.95 35.2 10.0 34.15 10.1 32.4 11.25 31.6 11.8 31.15 12.55 31.05 M27.05 41.35 Q26.6 40.1 26.6 38.85 26.75 37.1 27.9 36.25 28.35 35.85 29.0 35.75 28.6 36.45 28.5 37.5 28.4 38.8 29.0 40.05 27.2 39.1 27.05 41.35" fill="#560000" fill-rule="evenodd" stroke="none"/>
      <path d="M16.95 14.8 L17.0 14.85 17.1 15.1 Q16.2 15.3 15.45 15.9 14.5 16.7 14.5 17.95 L14.65 18.75 Q13.35 17.6 13.35 15.9 13.35 14.6 14.35 14.2 L15.55 14.1 16.55 14.25 16.95 14.8 M22.15 29.35 Q21.75 28.65 21.75 27.9 21.75 26.85 22.7 26.15 23.45 25.6 24.05 25.6 24.45 25.6 24.7 25.9 L25.05 26.5 25.3 26.95 23.5 27.4 Q22.05 27.95 22.05 28.9 L22.15 29.35 M33.05 18.7 L33.45 19.25 34.05 20.4 33.4 20.25 Q32.4 20.25 31.9 21.1 31.45 21.75 31.45 22.55 L31.5 23.25 Q30.6 22.15 30.6 21.05 30.6 19.6 31.65 19.05 32.2 18.7 32.95 18.7 L33.05 18.7 M14.35 37.0 Q13.7 36.05 13.7 35.2 13.7 34.0 14.75 33.15 15.4 32.55 16.0 32.5 L16.6 33.3 17.05 34.1 16.95 34.1 Q16.0 34.1 15.15 34.8 14.3 35.55 14.3 36.55 L14.35 37.0 M31.95 36.6 L33.2 38.0 33.5 38.5 32.85 38.85 Q31.55 39.6 31.55 41.0 31.55 41.6 31.7 41.9 31.0 40.9 31.0 39.25 31.0 37.5 31.95 36.6" fill="#53c6c5" fill-rule="evenodd" stroke="none"/>
      <path d="M17.4 18.85 L17.1 19.55 16.8 19.55 15.55 19.35 15.5 19.35 14.65 18.75 14.5 17.95 Q14.5 16.7 15.45 15.9 16.2 15.3 17.1 15.1 17.65 16.4 17.6 17.7 L17.4 18.85 M22.8 30.35 L22.35 29.7 22.15 29.35 22.05 28.9 Q22.05 27.95 23.5 27.4 L25.3 26.95 Q25.65 27.95 25.6 29.0 25.5 30.1 25.05 30.9 L23.6 30.7 23.15 30.55 22.8 30.35 M34.05 20.4 L34.35 21.4 34.4 22.6 Q34.35 23.6 33.95 24.3 L32.7 24.35 31.65 23.35 31.5 23.25 31.45 22.55 Q31.45 21.75 31.9 21.1 32.4 20.25 33.4 20.25 L34.05 20.4 M32.8 23.7 Q33.2 23.7 33.65 23.25 L34.05 22.6 Q34.05 22.45 33.7 22.35 L33.25 22.2 33.15 22.25 Q32.25 22.2 32.25 23.15 32.25 23.7 32.8 23.7 M17.05 18.3 L16.4 17.8 16.3 17.75 16.15 17.75 Q15.55 18.0 15.55 18.6 15.55 19.05 16.2 19.05 L16.9 18.75 17.05 18.3 M15.55 38.3 L14.5 37.25 14.35 37.0 14.3 36.55 Q14.3 35.55 15.15 34.8 16.0 34.1 16.95 34.1 L17.05 34.1 Q17.6 35.35 17.55 36.7 L17.05 38.5 15.55 38.3 M16.85 36.75 L16.6 36.35 16.15 36.3 16.1 36.3 Q15.35 36.65 15.35 37.25 15.35 37.7 15.95 37.7 L16.65 37.3 16.85 36.75 M23.5 29.15 Q23.2 29.4 23.2 29.75 23.2 30.1 23.7 30.1 L24.65 29.8 25.05 29.3 24.95 29.15 24.5 29.0 24.0 28.9 Q23.75 28.9 23.5 29.15 M33.5 38.5 Q34.25 39.85 34.15 41.35 34.1 42.4 33.7 43.15 L33.25 43.15 Q32.5 42.9 32.0 42.35 L31.7 41.9 Q31.55 41.6 31.55 41.0 31.55 39.6 32.85 38.85 L33.5 38.5 M32.85 41.0 L32.55 41.3 32.45 41.75 Q32.45 42.15 32.9 42.15 33.45 42.15 33.55 41.35 L33.4 41.1 33.15 40.95 33.0 41.1 32.85 41.0" fill="#077877" fill-rule="evenodd" stroke="none"/>
      <path d="M32.8 23.7 Q32.25 23.7 32.25 23.15 32.25 22.2 33.15 22.25 L33.25 22.2 33.7 22.35 Q34.05 22.45 34.05 22.6 L33.65 23.25 Q33.2 23.7 32.8 23.7 M17.05 18.3 L16.9 18.75 16.2 19.05 Q15.55 19.05 15.55 18.6 15.55 18.0 16.15 17.75 L16.3 17.75 16.4 17.8 17.05 18.3 M16.85 36.75 L16.65 37.3 15.95 37.7 Q15.35 37.7 15.35 37.25 15.35 36.65 16.1 36.3 L16.15 36.3 16.6 36.35 16.85 36.75 M23.5 29.15 Q23.75 28.9 24.0 28.9 L24.5 29.0 24.95 29.15 25.05 29.3 24.65 29.8 23.7 30.1 Q23.2 30.1 23.2 29.75 23.2 29.4 23.5 29.15 M32.85 41.0 L33.0 41.1 33.15 40.95 33.4 41.1 33.55 41.35 Q33.45 42.15 32.9 42.15 32.45 42.15 32.45 41.75 L32.55 41.3 32.85 41.0" fill="#339999" fill-rule="evenodd" stroke="none"/>
      <path d="M29.95 11.6 L28.65 10.55 Q31.05 9.9 28.5 7.75 L43.6 11.95 41.7 13.05 37.3 14.4 20.4 10.45 28.2 10.65 29.95 11.6 M11.45 19.25 L12.4 20.1 9.45 21.55 7.05 16.05 7.05 8.5 14.55 9.1 14.6 9.1 14.8 9.15 14.75 9.25 16.8 10.0 16.9 11.45 16.6 14.2 Q15.55 12.7 14.1 12.2 L12.6 12.05 Q11.9 12.15 11.35 12.6 10.2 13.45 10.05 15.2 L10.25 17.0 Q10.45 17.8 10.95 18.6 L11.45 19.25 M42.9 30.8 L43.4 36.0 40.25 26.85 42.9 30.8" fill="#e37302" fill-rule="evenodd" stroke="none"/>
      <path d="M43.4 36.0 L43.4 36.05 43.4 36.0 M16.75 4.45 L16.9 4.5 16.9 4.55 16.75 4.45" fill="#fee481" fill-rule="evenodd" stroke="none"/>
      <path d="M14.55 9.1 L14.6 9.1 14.55 9.1" fill="#ffcc00" fill-rule="evenodd" stroke="none"/>
      <path d="M23.4 6.35 L21.25 6.1 M28.5 7.75 L23.4 6.35 M16.9 4.5 L17.7 4.7 21.2 6.1 21.25 6.1 M17.4 18.85 L17.1 19.55 16.8 19.55 15.55 19.35 15.5 19.35 14.75 19.05 14.15 18.6 13.35 17.9 M7.05 28.4 L7.05 41.35 17.1 44.15 M16.6 14.2 L16.65 14.3 16.95 14.8 M17.0 14.85 L17.1 15.1 Q17.65 16.4 17.6 17.7 L17.4 18.85 M22.5 23.7 L22.55 23.7 M22.5 23.7 L22.05 23.5 20.65 23.4 Q20.15 24.15 20.05 25.25 L20.15 26.4 Q20.35 27.5 21.0 28.6 L21.4 29.2 21.95 29.75 22.8 30.35 M25.05 26.5 L24.6 25.65 23.75 23.9 22.55 23.7 M28.95 17.05 L30.85 17.1 Q32.15 17.55 33.05 18.7 L33.45 19.25 34.05 20.4 34.35 21.4 34.4 22.6 Q34.35 23.6 33.95 24.3 M30.15 23.05 L29.4 22.15 Q28.85 21.25 28.65 20.4 L28.5 18.75 Q28.6 17.75 28.95 17.05 M43.6 11.95 L28.5 7.75 M43.6 11.95 L43.6 21.3 43.6 26.45 43.6 29.55 42.9 30.8 43.4 36.0 43.4 36.05 43.6 36.7 43.6 40.5 43.6 46.25 38.7 49.0 36.05 49.35 35.9 49.35 22.35 45.6 17.1 44.15 M16.75 4.45 L16.9 4.5 M16.9 4.55 L16.75 4.45 13.35 3.55 8.7 6.15 7.05 8.5 7.05 16.05 M16.6 14.2 Q15.55 12.7 14.1 12.2 L12.6 12.05 Q12.1 12.8 12.0 13.9 L12.25 15.6 Q12.45 16.45 12.9 17.3 L13.35 17.9 M7.05 23.9 L7.75 20.8 7.05 16.05 M16.0 32.5 Q15.1 31.55 14.0 31.2 L12.55 31.05 Q12.1 31.75 12.0 32.8 12.0 34.05 12.45 35.25 L12.9 36.25 13.45 36.95 Q14.35 37.9 15.55 38.3 M17.05 34.1 L16.6 33.3 16.0 32.5 M17.05 34.1 Q17.6 35.35 17.55 36.7 L17.05 38.5 15.55 38.3 M25.05 30.9 L23.6 30.7 23.15 30.55 M30.15 23.05 Q30.95 23.9 32.0 24.2 L32.7 24.35 33.95 24.3 M25.05 26.5 L25.3 26.95 Q25.65 27.95 25.6 29.0 25.5 30.1 25.05 30.9 M29.0 35.75 L30.6 35.85 Q31.35 36.1 31.95 36.6 L33.2 38.0 33.5 38.5 Q34.25 39.85 34.15 41.35 34.1 42.4 33.7 43.15 M30.35 42.05 L29.4 40.9 29.0 40.05 M30.35 42.05 Q31.1 42.7 32.0 42.95 L33.25 43.15 33.7 43.15 M29.0 35.75 Q28.6 36.45 28.5 37.5 28.4 38.8 29.0 40.05 M7.05 28.4 L7.05 23.9" fill="none" stroke="#000000" stroke-linecap="round" stroke-linejoin="round" stroke-opacity="0.3019608" stroke-width="0.5"/>
    </g>
    <g id="sprite0" transform="matrix(1.0, 0.0, 0.0, 1.0, 0.0, 0.0)">
      <use height="20.95" transform="matrix(1.0, 0.0, 0.0, 1.0, 0.0, 0.0)" width="24.45" xlink:href="#shape1"/>
    </g>
    <g id="shape1" transform="matrix(1.0, 0.0, 0.0, 1.0, 0.0, 0.0)">
      <path d="M14.85 11.4 Q15.8 11.6 16.25 12.45 16.85 13.3 16.6 14.35 16.4 15.3 15.55 15.9 14.65 16.4 13.65 16.2 12.65 15.9 12.1 15.1 11.6 14.2 11.8 13.2 12.1 12.2 12.9 11.65 13.8 11.15 14.85 11.4" fill="#ffffff" fill-opacity="0.5882353" fill-rule="evenodd" stroke="none"/>
      <path d="M14.85 11.4 Q13.8 11.15 12.9 11.65 12.1 12.2 11.8 13.2 11.6 14.2 12.1 15.1 12.65 15.9 13.65 16.2 14.65 16.4 15.55 15.9 16.4 15.3 16.6 14.35 16.85 13.3 16.25 12.45 15.8 11.6 14.85 11.4 M18.2 11.35 L20.15 11.25 18.75 12.55 Q19.05 13.8 18.8 15.05 18.5 16.35 17.65 17.3 L19.1 20.95 16.55 18.25 Q14.8 19.3 12.8 18.85 10.8 18.35 9.75 16.65 9.05 15.5 8.95 14.3 7.75 12.35 4.85 11.5 8.3 12.45 9.7 11.4 10.3 10.4 11.35 9.75 13.1 8.75 15.1 9.15 16.95 9.5 18.1 11.15 L18.2 11.35" fill="#ffffff" fill-opacity="0.1764706" fill-rule="evenodd" stroke="none"/>
      <path d="M15.4 13.55 L18.1 17.55 13.35 14.65 7.05 18.5 12.75 13.55 0.0 0.0 14.25 12.25 24.45 5.95 15.4 13.55" fill="#ffffff" fill-opacity="0.5882353" fill-rule="evenodd" stroke="none"/>
    </g>
  </defs>
</svg>
