<?xml version="1.0" encoding="UTF-8" standalone="no"?>
<svg xmlns:xlink="http://www.w3.org/1999/xlink" height="520.0px" width="520.0px" xmlns="http://www.w3.org/2000/svg">
  <g transform="matrix(10.0, 0.0, 0.0, 10.0, 0.0, 0.0)">
    <use height="52.0" transform="matrix(1.0, 0.0, 0.0, 1.0, 0.0, 0.0)" width="52.0" xlink:href="#shape0"/>
    <use height="136.85" transform="matrix(-0.0426, 0.0667, -0.0981, -0.1004, 28.0587, 36.1707)" width="148.25" xlink:href="#sprite0"/>
    <use height="136.85" transform="matrix(-0.0569, -0.009, 0.0153, -0.0742, 28.2872, 19.1319)" width="148.25" xlink:href="#sprite0"/>
    <use height="136.85" transform="matrix(-0.0569, -0.009, 0.0153, -0.0742, 40.0872, 39.2819)" width="148.25" xlink:href="#sprite0"/>
    <use height="20.95" transform="matrix(-0.5395, 0.0927, 0.2458, 0.7485, 37.25, 12.95)" width="24.45" xlink:href="#sprite1"/>
    <use height="20.95" transform="matrix(-0.3582, 0.1652, 0.3107, 0.4752, 13.55, 26.0)" width="24.45" xlink:href="#sprite1"/>
    <use height="20.95" transform="matrix(-0.3888, 0.0668, 0.1772, 0.5394, 27.95, 4.15)" width="24.45" xlink:href="#sprite1"/>
  </g>
  <defs>
    <g id="shape0" transform="matrix(1.0, 0.0, 0.0, 1.0, 0.0, 0.0)">
      <path d="M52.0 0.0 L52.0 52.0 0.0 52.0 0.0 0.0 52.0 0.0" fill="#795fa9" fill-opacity="0.0" fill-rule="evenodd" stroke="none"/>
      <path d="M6.75 27.05 L6.8 27.1 6.45 27.4 6.75 27.05 M15.15 36.3 L14.95 36.45 15.1 36.25 15.15 36.3" fill="#fd9b0b" fill-rule="evenodd" stroke="none"/>
      <path d="M5.55 28.55 L5.7 30.3 Q5.25 32.0 5.85 32.05 L7.45 31.3 Q5.9 30.65 8.0 28.3 L10.2 27.5 Q11.25 27.85 9.9 29.8 L11.8 28.1 9.5 30.8 9.4 30.85 7.3 31.85 4.8 33.1 5.55 28.55 M13.7 27.4 L11.4 26.8 10.25 26.1 10.8 25.6 Q12.2 25.6 13.4 26.15 14.3 26.6 15.1 27.4 L13.7 27.4 M15.45 27.75 Q16.9 29.5 16.9 31.85 16.9 34.1 15.5 35.85 L15.45 35.9 15.3 36.1 15.1 36.25 14.95 36.45 14.5 36.85 13.2 36.3 11.8 35.0 Q10.75 33.95 10.55 31.5 10.95 29.5 12.65 28.4 L15.45 27.75 M6.8 27.1 L8.1 26.2 Q9.1 25.7 10.3 25.6 L8.65 27.15 6.25 27.6 6.45 27.4 6.8 27.1" fill="#2e7b8d" fill-rule="evenodd" stroke="none"/>
      <path d="M15.5 35.85 Q17.25 34.0 17.25 31.5 17.25 28.9 15.45 27.05 13.85 25.45 11.7 25.3 L13.4 24.65 Q15.2 24.95 16.6 26.35 18.4 28.2 18.4 30.8 18.4 33.35 16.6 35.2 L15.15 36.3 15.1 36.25 15.3 36.1 15.45 35.9 15.5 35.85" fill="#4aadc6" fill-rule="evenodd" stroke="none"/>
      <path d="M12.35 27.4 L9.7 26.65 8.65 27.15 5.55 28.55 6.25 27.6 8.65 27.15 10.3 25.6 Q9.1 25.7 8.1 26.2 L6.8 27.1 Q7.55 26.3 8.45 25.85 9.65 25.25 11.15 25.25 L11.7 25.3 Q13.85 25.45 15.45 27.05 17.25 28.9 17.25 31.5 17.25 34.0 15.5 35.85 16.9 34.1 16.9 31.85 16.9 29.5 15.45 27.75 L15.1 27.4 Q14.3 26.6 13.4 26.15 12.2 25.6 10.8 25.6 L10.25 26.1 11.4 26.8 13.7 27.4 12.35 27.4 M5.7 30.3 L7.2 28.6 8.0 28.3 Q5.9 30.65 7.45 31.3 L5.85 32.05 Q5.25 32.0 5.7 30.3" fill="#72bed1" fill-rule="evenodd" stroke="none"/>
      <path d="M7.3 31.85 L8.95 31.85 9.2 32.35 Q9.5 35.15 6.65 35.5 L5.3 34.15 4.8 33.1 7.3 31.85" fill="#286979" fill-rule="evenodd" stroke="none"/>
      <path d="M11.8 28.1 L12.35 27.4 13.7 27.4 15.1 27.4 15.45 27.75 12.65 28.4 Q10.95 29.5 10.55 31.5 10.75 33.95 11.8 35.0 L13.2 36.3 14.5 36.85 Q13.05 37.95 11.2 38.1 L8.25 37.55 Q6.3 36.05 5.3 34.15 L6.65 35.5 8.05 36.8 9.85 36.05 10.7 35.3 10.4 34.25 9.4 30.85 9.5 30.8 11.8 28.1" fill="#183e56" fill-rule="evenodd" stroke="none"/>
      <path d="M9.2 32.35 L10.4 34.25 10.7 35.3 9.85 36.05 8.05 36.8 6.65 35.5 Q9.5 35.15 9.2 32.35" fill="#24708e" fill-rule="evenodd" stroke="none"/>
      <path d="M5.55 28.55 L8.65 27.15 9.7 26.65 12.35 27.4 11.8 28.1 9.9 29.8 Q11.25 27.85 10.2 27.5 L8.0 28.3 7.2 28.6 5.7 30.3 5.55 28.55 M9.2 32.35 L8.95 31.85 7.3 31.85 9.4 30.85 10.4 34.25 9.2 32.35" fill="#26b0bf" fill-rule="evenodd" stroke="none"/>
      <path d="M11.7 25.3 L11.15 25.25 Q9.65 25.25 8.45 25.85 7.55 26.3 6.8 27.1 L6.75 27.05 Q8.1 25.4 10.0 25.0 11.05 24.55 12.25 24.55 L13.4 24.65 11.7 25.3" fill="#47ccda" fill-rule="evenodd" stroke="none"/>
      <path d="M13.4 24.65 L12.25 24.55 Q11.05 24.55 10.0 25.0 8.1 25.4 6.75 27.05 M6.45 27.4 L6.25 27.6 M5.55 28.55 L6.25 27.6 M6.45 27.4 L6.75 27.05 M4.8 33.1 L5.3 34.15 Q6.3 36.05 8.25 37.55 L11.2 38.1 Q13.05 37.95 14.5 36.85 M4.8 33.1 L5.55 28.55 M13.4 24.65 Q15.2 24.95 16.6 26.35 18.4 28.2 18.4 30.8 18.4 33.35 16.6 35.2 L15.15 36.3 14.95 36.45 14.5 36.85" fill="none" stroke="#000000" stroke-linecap="round" stroke-linejoin="round" stroke-opacity="0.3019608" stroke-width="0.5"/>
      <path d="M11.1 24.7 L11.15 24.65 13.1 22.25 13.3 22.05 14.1 21.2 16.1 19.75 13.8 22.5 12.2 23.6 11.1 24.7" fill="#febe5f" fill-rule="evenodd" stroke="none"/>
      <path d="M34.65 22.1 L36.1 23.45 Q34.85 23.2 34.2 23.9 L33.75 24.5 Q33.55 25.0 33.5 25.7 L31.35 23.9 32.6 23.65 Q34.55 23.15 34.65 22.1" fill="#a96501" fill-rule="evenodd" stroke="none"/>
      <path d="M17.1 42.15 L16.5 42.35 16.5 41.6 16.5 40.35 17.1 42.15" fill="#fd9b0b" fill-rule="evenodd" stroke="none"/>
      <path d="M18.75 43.45 L17.1 42.15 16.5 40.35 18.15 42.6 18.75 43.45" fill="#8f5601" fill-rule="evenodd" stroke="none"/>
      <path d="M36.15 39.8 L36.2 39.85 36.25 39.9 36.15 39.8" fill="#c17402" fill-rule="evenodd" stroke="none"/>
      <path d="M20.8 21.3 L27.25 21.8 Q29.5 22.6 31.35 23.9 L33.5 25.7 35.05 27.45 35.15 27.6 34.3 27.15 34.65 28.35 34.45 27.85 Q31.15 23.7 25.6 22.05 L25.2 21.95 Q20.65 21.8 23.45 33.6 L23.8 34.9 23.35 33.7 Q21.35 27.85 20.8 21.3 M36.85 29.3 L37.1 31.15 37.2 31.35 Q37.7 32.85 37.7 34.35 L37.45 36.95 36.6 39.2 36.2 39.85 36.15 39.8 37.0 37.55 Q37.7 34.65 36.65 31.75 L35.65 30.45 36.85 29.3" fill="#ffb711" fill-rule="evenodd" stroke="none"/>
      <path d="M20.75 44.15 L20.55 44.05 18.75 43.45 18.15 42.6 Q19.95 42.5 19.3 36.85 L18.05 29.95 Q19.15 32.8 19.85 36.4 20.5 39.95 20.75 44.15 M16.5 42.35 L14.2 40.8 12.4 39.05 11.8 37.85 Q13.15 39.65 14.45 40.6 15.5 41.35 16.5 41.6 L16.5 42.35" fill="#7e4b01" fill-rule="evenodd" stroke="none"/>
      <path d="M9.55 34.55 Q8.45 31.6 9.15 28.55 9.6 26.75 10.65 25.35 L10.95 24.9 11.0 24.85 11.1 24.7 12.2 23.6 13.8 22.5 16.1 19.75 17.4 19.1 Q18.5 18.65 19.65 18.35 16.35 20.15 15.75 21.1 L15.65 21.6 17.6 21.0 22.7 20.75 26.05 21.4 27.25 21.8 20.8 21.3 Q17.65 21.2 14.8 22.4 L13.8 22.9 Q12.0 23.95 10.3 26.95 8.55 29.95 9.55 34.55 M34.65 28.35 L34.3 27.15 35.15 27.6 35.25 27.7 35.25 27.65 36.85 29.3 35.65 30.45 35.6 30.3 34.65 28.35" fill="#fff1bb" fill-rule="evenodd" stroke="none"/>
      <path d="M36.25 39.9 L35.7 40.5 35.6 40.7 35.3 41.0 Q33.75 42.65 31.35 43.7 L28.85 44.5 Q25.75 40.0 23.8 34.9 L23.45 33.6 Q20.65 21.8 25.2 21.95 L25.6 22.05 Q31.15 23.7 34.45 27.85 L34.65 28.35 35.6 30.3 35.65 30.45 36.65 31.75 Q37.7 34.65 37.0 37.55 L36.15 39.8 36.25 39.9 M11.8 37.85 L10.95 36.1 9.55 34.55 Q8.55 29.95 10.3 26.95 12.0 23.95 13.8 22.9 16.4 25.6 18.05 29.95 L19.3 36.85 Q19.95 42.5 18.15 42.6 L16.5 40.35 16.5 41.6 Q15.5 41.35 14.45 40.6 13.15 39.65 11.8 37.85" fill="#ffd633" fill-rule="evenodd" stroke="none"/>
      <path d="M28.85 44.5 L20.75 44.15 Q20.5 39.95 19.85 36.4 19.15 32.8 18.05 29.95 16.4 25.6 13.8 22.9 L14.8 22.4 Q17.65 21.2 20.8 21.3 21.35 27.85 23.35 33.7 L23.8 34.9 Q25.75 40.0 28.85 44.5" fill="#eca602" fill-rule="evenodd" stroke="none"/>
      <path d="M19.65 18.35 Q23.65 17.4 28.2 18.75 30.15 19.35 31.85 20.2 L34.65 22.1 Q34.55 23.15 32.6 23.65 L31.35 23.9 Q29.5 22.6 27.25 21.8 L26.05 21.4 22.7 20.75 17.6 21.0 15.65 21.6 15.75 21.1 Q16.35 20.15 19.65 18.35 M39.9 31.35 Q39.95 32.8 39.6 34.25 L39.05 35.95 37.6 38.2 36.25 39.9 36.2 39.85 36.6 39.2 37.45 36.95 37.7 34.35 38.3 34.1 Q39.25 33.4 39.9 31.35" fill="#fef0bc" fill-rule="evenodd" stroke="none"/>
      <path d="M36.1 23.45 L37.4 25.0 37.5 25.15 38.15 27.4 39.6 29.5 39.9 31.35 Q39.25 33.4 38.3 34.1 L37.7 34.35 Q37.7 32.85 37.2 31.35 L37.1 31.15 36.85 29.3 35.25 27.65 35.25 27.7 35.15 27.6 35.05 27.45 33.5 25.7 Q33.55 25.0 33.75 24.5 L34.2 23.9 Q34.85 23.2 36.1 23.45" fill="#fee481" fill-rule="evenodd" stroke="none"/>
      <path d="M9.55 34.55 Q8.45 31.6 9.15 28.55 9.6 26.75 10.65 25.35 L10.95 24.9 11.0 24.85 M11.15 24.65 L13.1 22.25 13.3 22.05 14.1 21.2 16.1 19.75 17.4 19.1 Q18.5 18.65 19.65 18.35 23.65 17.4 28.2 18.75 30.15 19.35 31.85 20.2 L34.65 22.1 36.1 23.45 37.4 25.0 37.5 25.15 38.15 27.4 39.6 29.5 39.9 31.35 Q39.95 32.8 39.6 34.25 L39.05 35.95 37.6 38.2 36.25 39.9 35.7 40.5 35.6 40.7 35.3 41.0 Q33.75 42.65 31.35 43.7 L28.85 44.5 20.75 44.15 20.55 44.05 18.75 43.45 17.1 42.15 16.5 42.35 14.2 40.8 12.4 39.05 11.8 37.85 10.95 36.1 9.55 34.55 Z" fill="none" stroke="#000000" stroke-linecap="round" stroke-linejoin="round" stroke-opacity="0.3019608" stroke-width="0.5"/>
      <path d="M38.25 33.2 L39.35 33.95 Q39.05 34.7 39.35 35.45 38.75 35.1 38.25 33.2 M39.85 32.4 Q39.05 32.25 39.2 33.35 L38.0 32.3 39.45 31.1 40.95 32.85 39.85 32.4" fill="#202324" fill-rule="evenodd" stroke="none"/>
      <path d="M37.75 32.8 L38.25 33.15 38.25 33.2 Q38.75 35.1 39.35 35.45 L39.45 35.7 Q40.0 36.85 41.9 38.05 L37.5 38.05 Q38.5 36.1 37.75 32.8" fill="#101212" fill-rule="evenodd" stroke="none"/>
      <path d="M39.35 33.95 L43.2 36.7 44.8 38.05 41.9 38.05 Q40.0 36.85 39.45 35.7 L39.35 35.45 Q39.05 34.7 39.35 33.95" fill="#2d3131" fill-rule="evenodd" stroke="none"/>
      <path d="M43.2 36.7 L40.4 34.35 Q39.0 32.8 39.85 32.4 L40.95 32.85 44.8 38.05 43.2 36.7" fill="#485051" fill-rule="evenodd" stroke="none"/>
      <path d="M37.75 32.8 L38.0 32.3 39.2 33.35 Q39.05 32.25 39.85 32.4 39.0 32.8 40.4 34.35 L43.2 36.7 39.35 33.95 38.25 33.2 38.25 33.15 37.75 32.8" fill="#596162" fill-rule="evenodd" stroke="none"/>
      <path d="M38.0 32.3 L37.75 32.8 M38.0 32.3 L39.45 31.1 40.95 32.85 44.8 38.05 41.9 38.05 37.5 38.05 Q38.5 36.1 37.75 32.8" fill="none" stroke="#000000" stroke-linecap="round" stroke-linejoin="round" stroke-opacity="0.3019608" stroke-width="0.5"/>
      <path d="M33.85 12.65 L33.9 11.6 34.0 11.5 34.75 10.2 34.7 11.1 34.6 11.25 34.3 11.85 33.85 12.65" fill="#fed192" fill-rule="evenodd" stroke="none"/>
      <path d="M27.2 18.45 L28.6 16.5 30.5 14.05 30.75 13.65 30.65 14.55 29.55 16.1 29.15 16.65 27.4 19.05 27.4 19.15 27.35 19.1 27.4 19.05 27.2 18.45 M22.7 9.0 L22.55 9.25 22.5 9.15 22.7 9.0" fill="#a96501" fill-rule="evenodd" stroke="none"/>
      <path d="M20.75 8.55 L20.7 8.55 20.75 8.55" fill="#fd9b0b" fill-rule="evenodd" stroke="none"/>
      <path d="M21.75 13.75 L22.4 16.1 23.65 18.35 22.65 18.5 22.55 18.5 21.4 18.35 20.7 17.95 20.65 17.9 20.65 17.7 21.35 17.0 21.65 15.55 21.25 14.25 20.95 14.15 20.85 14.15 21.05 13.4 21.35 12.25 21.75 13.75 M28.6 16.5 L27.8 16.15 27.1 15.3 26.75 14.0 27.1 13.15 27.15 13.1 30.1 12.1 30.8 12.55 30.5 14.05 28.6 16.5 M24.45 9.1 L26.25 8.4 29.95 8.85 30.3 10.15 28.55 10.9 25.2 9.85 24.45 9.1 M24.6 11.6 L25.2 11.9 25.7 13.75 25.5 16.1 24.9 17.55 24.05 17.0 22.55 14.7 22.3 12.15 22.4 11.45 24.6 11.6" fill="#2e7b8d" fill-rule="evenodd" stroke="none"/>
      <path d="M20.65 17.9 L20.7 17.95 21.4 18.35 22.55 18.5 22.65 18.5 23.65 18.35 22.4 16.1 21.75 13.75 22.85 15.9 23.4 16.7 24.6 18.25 25.8 17.95 26.15 15.55 27.8 16.15 28.6 16.5 27.2 18.45 26.6 19.25 25.5 19.0 24.95 18.9 23.95 18.85 22.85 18.75 22.7 18.75 21.95 18.8 21.45 18.8 21.3 18.8 20.85 18.85 20.7 18.4 20.7 18.15 20.65 17.9 M24.8 7.95 Q26.45 7.4 28.5 7.55 L28.95 7.6 30.2 8.6 Q31.2 9.8 31.65 11.7 L30.15 11.8 30.05 11.8 28.35 11.85 29.4 11.45 30.3 10.15 29.95 8.85 26.25 8.4 24.45 9.1 23.7 8.35 24.8 7.95" fill="#225966" fill-rule="evenodd" stroke="none"/>
      <path d="M21.75 13.75 L21.35 12.25 21.7 11.3 21.85 10.95 22.25 10.0 24.6 11.6 22.4 11.45 22.3 12.15 22.15 13.85 23.4 16.7 22.85 15.9 21.75 13.75 M20.85 14.15 L20.95 14.15 21.25 14.25 21.65 15.55 21.35 17.0 20.65 17.7 Q20.5 16.65 20.65 15.6 L20.65 15.55 20.75 14.6 20.8 14.55 20.85 14.15 M27.8 16.15 L26.15 15.55 25.7 13.75 25.2 11.9 27.1 11.9 25.25 11.35 22.7 9.0 23.1 8.7 23.7 8.35 24.45 9.1 25.2 9.85 28.55 10.9 30.3 10.15 29.4 11.45 28.35 11.85 30.05 11.8 26.4 12.75 26.5 14.45 27.1 15.3 27.8 16.15" fill="#3ea0b9" fill-rule="evenodd" stroke="none"/>
      <path d="M26.15 15.55 L25.8 17.95 24.6 18.25 23.4 16.7 22.15 13.85 22.3 12.15 22.55 14.7 24.05 17.0 24.9 17.55 25.5 16.1 25.7 13.75 26.15 15.55 M30.05 11.8 L30.15 11.8 31.65 11.7 31.4 12.85 30.75 13.65 30.5 14.05 30.8 12.55 30.1 12.1 27.15 13.1 27.1 13.15 26.75 14.0 27.1 15.3 26.5 14.45 26.4 12.75 30.05 11.8 M22.55 9.25 L22.7 9.0 25.25 11.35 27.1 11.9 25.2 11.9 24.6 11.6 22.25 10.0 22.55 9.25" fill="#59b3c8" fill-rule="evenodd" stroke="none"/>
      <path d="M32.85 5.45 L33.7 6.35 34.0 6.8 Q33.0 6.65 33.15 8.15 L33.2 8.35 Q33.75 9.5 33.9 11.2 L33.9 11.4 33.9 11.45 33.9 11.6 33.85 12.65 33.7 12.85 33.5 13.3 33.55 11.95 33.55 11.7 33.5 11.6 33.5 11.1 Q33.25 8.8 31.95 7.5 30.8 6.4 28.9 6.0 L28.25 5.95 27.6 5.95 25.9 6.15 24.35 6.55 Q23.6 6.8 22.95 7.15 L22.45 7.4 21.7 7.9 21.15 8.5 20.6 9.35 19.8 11.05 20.2 10.05 20.75 8.85 Q20.7 8.4 19.95 9.5 L20.1 9.15 20.15 9.1 20.85 8.05 Q20.3 8.9 21.55 7.85 L22.35 7.3 22.95 6.95 24.3 6.35 26.05 5.85 26.85 5.75 27.45 5.7 27.9 5.6 29.25 5.65 Q30.75 6.0 31.75 6.7 L32.45 6.65 Q33.05 6.4 32.85 5.45 M20.75 8.55 L20.7 8.55 20.75 8.55" fill="#fff1bb" fill-rule="evenodd" stroke="none"/>
      <path d="M33.9 11.6 L33.9 11.45 34.0 11.5 33.9 11.6" fill="#febe5f" fill-rule="evenodd" stroke="none"/>
      <path d="M19.95 9.5 Q20.7 8.4 20.75 8.85 L20.2 10.05 19.8 11.05 19.5 12.1 19.2 13.5 19.0 14.25 18.85 15.8 18.75 17.35 18.7 17.55 18.85 21.0 Q18.45 19.2 18.45 17.5 L18.4 17.15 18.45 16.1 Q18.45 15.0 18.6 13.95 L18.8 12.95 19.15 11.55 19.8 9.85 19.95 9.5 M21.15 8.5 L21.7 7.9 22.45 7.4 22.8 8.1 23.1 8.7 22.7 9.0 22.5 9.15 Q22.2 8.7 21.15 8.5 M33.55 11.7 L33.55 11.95 33.5 13.3 32.55 14.65 32.2 15.25 31.7 15.85 32.45 14.4 33.45 12.0 33.55 11.7 M29.55 16.1 L29.7 16.35 30.3 16.95 30.65 17.25 30.1 18.0 29.85 17.65 29.3 16.9 29.15 16.65 29.55 16.1" fill="#ffb711" fill-rule="evenodd" stroke="none"/>
      <path d="M26.6 19.25 L27.2 18.45 27.4 19.05 27.35 19.1 26.7 20.0 26.6 19.25 M31.65 11.7 L31.85 13.0 30.65 14.55 30.75 13.65 31.4 12.85 31.65 11.7 M22.5 9.15 L22.55 9.25 22.25 10.0 21.85 10.95 21.7 11.3 20.95 12.15 21.15 11.65 21.5 10.75 22.2 9.4 22.5 9.15" fill="#7e4b01" fill-rule="evenodd" stroke="none"/>
      <path d="M22.45 7.4 L22.95 7.15 Q23.6 6.8 24.35 6.55 L24.8 7.95 23.7 8.35 23.1 8.7 22.8 8.1 22.45 7.4 M27.9 20.8 L27.85 20.65 27.75 20.35 27.4 19.15 27.4 19.05 29.15 16.65 29.3 16.9 29.85 17.65 30.1 18.0 27.9 20.8" fill="#8f5601" fill-rule="evenodd" stroke="none"/>
      <path d="M22.95 19.4 L22.6 19.4 21.5 19.45 21.95 18.8 22.7 18.75 22.85 18.75 23.95 18.85 24.95 18.9 25.5 19.0 25.15 19.6 23.35 19.4 22.95 19.4" fill="#da8303" fill-rule="evenodd" stroke="none"/>
      <path d="M25.5 19.0 L26.6 19.25 26.7 20.0 26.0 19.75 25.8 19.75 25.15 19.6 25.5 19.0" fill="#af6a03" fill-rule="evenodd" stroke="none"/>
      <path d="M21.5 19.45 L21.25 19.5 20.1 19.65 20.85 18.85 21.3 18.8 21.45 18.8 21.95 18.8 21.5 19.45" fill="#c97903" fill-rule="evenodd" stroke="none"/>
      <path d="M24.35 6.55 L25.9 6.15 27.6 5.95 28.25 5.95 28.9 6.0 Q30.8 6.4 31.95 7.5 33.25 8.8 33.5 11.1 L33.5 11.6 33.55 11.7 33.45 12.0 32.45 14.4 31.7 15.85 30.65 17.25 30.3 16.95 29.7 16.35 29.55 16.1 30.65 14.55 31.85 13.0 31.65 11.7 Q31.2 9.8 30.2 8.6 L28.95 7.6 28.5 7.55 Q26.45 7.4 24.8 7.95 L24.35 6.55 M18.85 21.0 L18.7 17.55 18.75 17.35 18.85 15.8 19.0 14.25 19.2 13.5 19.5 12.1 20.5 13.9 20.25 14.9 20.25 15.0 20.25 15.25 Q20.05 16.55 20.0 17.95 L20.05 18.0 20.1 19.65 21.25 19.5 21.5 19.45 22.6 19.4 22.95 19.4 23.05 19.65 23.5 20.85 21.05 20.8 18.85 21.0" fill="#ffd633" fill-rule="evenodd" stroke="none"/>
      <path d="M19.8 11.05 L20.6 9.35 21.15 8.5 Q22.2 8.7 22.5 9.15 L22.2 9.4 21.5 10.75 21.15 11.65 20.95 12.15 21.7 11.3 21.35 12.25 21.05 13.4 20.85 14.15 20.8 14.55 20.75 14.6 20.65 15.55 20.65 15.6 Q20.5 16.65 20.65 17.7 L20.65 17.9 20.7 18.15 20.7 18.4 20.85 18.85 20.1 19.65 20.05 18.0 20.0 17.95 Q20.05 16.55 20.25 15.25 L20.25 15.0 20.25 14.9 20.5 13.9 19.5 12.1 19.8 11.05 M23.5 20.85 L23.05 19.65 22.95 19.4 23.35 19.4 25.15 19.6 25.8 19.75 26.0 19.75 26.7 20.0 27.35 19.1 27.4 19.15 27.75 20.35 27.85 20.65 27.9 20.8 27.4 21.4 25.9 21.05 25.6 21.0 24.35 20.9 23.5 20.85" fill="#eca602" fill-rule="evenodd" stroke="none"/>
      <path d="M32.85 5.45 Q33.05 6.4 32.45 6.65 L31.75 6.7 Q30.75 6.0 29.25 5.65 L27.9 5.6 27.45 5.7 26.85 5.75 Q26.5 5.35 27.05 4.95 L27.1 4.9 Q27.7 4.55 29.1 4.25 L30.05 4.25 31.55 4.7 32.85 5.45" fill="#fee481" fill-rule="evenodd" stroke="none"/>
      <path d="M26.85 5.75 L26.05 5.85 24.3 6.35 22.95 6.95 22.35 7.3 21.55 7.85 Q20.3 8.9 20.85 8.05 L21.3 7.35 22.0 6.7 23.1 5.95 24.05 5.45 Q25.2 4.85 26.55 4.55 L26.75 4.5 29.1 4.25 Q27.7 4.55 27.1 4.9 L27.05 4.95 Q26.5 5.35 26.85 5.75 M33.9 11.45 L33.9 11.4 33.9 11.2 Q33.75 9.5 33.2 8.35 L33.15 8.15 Q33.0 6.65 34.0 6.8 34.75 8.15 34.75 10.05 L34.8 10.1 34.75 10.2 34.0 11.5 33.9 11.45" fill="#feedab" fill-rule="evenodd" stroke="none"/>
      <path d="M34.0 6.8 L33.7 6.35 32.85 5.45 M20.85 8.05 L20.15 9.1 20.1 9.15 19.95 9.5 19.8 9.85 19.15 11.55 18.8 12.95 18.6 13.95 Q18.45 15.0 18.45 16.1 L18.4 17.15 18.45 17.5 Q18.45 19.2 18.85 21.0 L21.05 20.8 23.5 20.85 24.35 20.9 25.6 21.0 25.9 21.05 27.4 21.4 27.9 20.8 30.1 18.0 30.65 17.25 31.7 15.85 32.2 15.25 32.55 14.65 33.5 13.3 33.7 12.85 33.85 12.65 M34.0 6.8 Q34.75 8.15 34.75 10.05 L34.8 10.1 34.75 10.2 34.7 11.1 34.6 11.25 34.3 11.85 33.85 12.65 M29.1 4.25 L26.75 4.5 26.55 4.55 Q25.2 4.85 24.05 5.45 L23.1 5.95 22.0 6.7 21.3 7.35 20.85 8.05 M29.1 4.25 L30.05 4.25 31.55 4.7 32.85 5.45 M21.35 12.25 L21.05 13.4 20.85 14.15 M20.65 17.7 L20.65 17.9 20.7 18.15 20.7 18.4 20.85 18.85 21.3 18.8 21.45 18.8 21.95 18.8 22.7 18.75 22.85 18.75 23.95 18.85 24.95 18.9 25.5 19.0 26.6 19.25 27.2 18.45 28.6 16.5 30.5 14.05 30.75 13.65 M24.8 7.95 Q26.45 7.4 28.5 7.55 L28.95 7.6 30.2 8.6 Q31.2 9.8 31.65 11.7 L31.85 13.0 M31.65 11.7 L31.4 12.85 30.75 13.65 M23.1 8.7 L23.7 8.35 24.8 7.95 M22.55 9.25 L22.7 9.0 22.5 9.15 M22.55 9.25 L22.25 10.0 M22.7 9.0 L23.1 8.7 M21.7 11.3 L21.85 10.95 22.25 10.0 M22.2 9.4 L22.5 9.15 M21.35 12.25 L21.7 11.3 M20.65 17.7 Q20.5 16.65 20.65 15.6 L20.65 15.55 20.75 14.6 20.8 14.55 20.85 14.15" fill="none" stroke="#000000" stroke-linecap="round" stroke-linejoin="round" stroke-opacity="0.3019608" stroke-width="0.5"/>
      <path d="M13.4 26.1 Q14.4 24.9 15.3 24.75 15.75 25.15 15.85 25.95 L14.55 29.25 14.75 33.1 14.4 34.05 14.15 32.85 13.7 29.4 12.85 27.45 13.4 26.1 M16.8 26.75 L16.1 30.75 Q15.8 33.45 15.75 36.75 14.95 37.7 14.1 37.45 13.05 37.25 12.3 35.85 L12.2 35.15 13.3 36.8 14.55 37.05 15.4 34.45 15.4 30.0 16.8 26.75 M24.6 26.4 Q24.05 28.6 23.75 31.15 23.2 35.4 23.15 40.7 22.05 42.1 20.95 41.75 19.5 41.45 18.55 39.45 L18.4 38.4 19.9 40.8 21.6 41.15 22.65 37.45 22.65 31.05 24.6 26.4 M19.35 27.25 L20.05 25.4 Q21.35 23.7 22.5 23.55 23.15 24.05 23.3 25.2 L21.5 29.95 21.8 35.5 21.35 36.85 20.8 34.05 20.5 30.35 19.35 27.25 M27.75 28.1 Q29.0 26.65 30.1 26.45 30.7 26.95 30.85 27.95 L29.15 32.1 29.4 37.05 29.0 38.2 28.45 35.7 28.15 32.55 27.15 29.5 27.75 28.1 M32.05 29.0 Q30.75 34.15 30.7 41.6 29.65 42.8 28.6 42.5 27.25 42.25 26.3 40.5 L26.2 39.6 27.6 41.7 29.2 42.0 30.25 38.7 30.25 33.05 32.05 29.0" fill="#202324" fill-rule="evenodd" stroke="none"/>
      <path d="M12.35 34.4 L13.2 35.7 14.25 35.15 14.95 33.5 14.95 29.45 16.2 26.5 Q16.6 25.15 15.75 24.45 L16.35 24.5 Q17.05 25.1 16.9 26.5 L16.8 26.75 15.4 30.0 15.4 34.45 14.55 37.05 13.3 36.8 12.2 35.15 12.1 34.05 12.35 34.4 M23.15 23.05 L23.95 23.15 Q24.85 24.0 24.65 26.0 L24.6 26.4 22.65 31.05 22.65 37.45 21.6 41.15 19.9 40.8 18.4 38.4 18.3 36.85 18.6 37.4 19.75 39.2 21.15 38.45 22.1 36.1 22.1 30.2 23.75 26.0 Q24.25 24.05 23.15 23.05 M26.35 38.65 L27.45 40.25 28.8 39.65 29.7 37.5 29.7 32.35 31.3 28.65 Q31.75 26.95 30.7 26.05 L31.45 26.1 Q32.35 26.85 32.15 28.65 L32.05 29.0 30.25 33.05 30.25 38.7 29.2 42.0 27.6 41.7 26.2 39.6 26.05 38.2 26.35 38.65" fill="#000000" fill-rule="evenodd" stroke="none"/>
      <path d="M14.4 34.05 L14.15 34.75 13.55 35.15 12.35 34.4 12.1 34.05 12.05 33.85 Q11.95 32.15 12.15 30.55 L12.65 28.25 13.55 30.15 14.15 32.85 14.4 34.05 M18.3 36.85 L18.25 36.6 Q18.1 33.6 18.5 30.9 L19.0 28.5 20.25 31.25 20.8 34.05 21.35 36.85 21.05 37.85 20.2 38.45 18.6 37.4 18.3 36.85 M29.0 38.2 L28.7 39.05 27.9 39.6 26.35 38.65 26.05 38.2 26.05 38.0 Q25.8 34.4 26.6 31.3 L26.75 30.85 27.95 33.3 28.45 35.7 29.0 38.2" fill="#2d3131" fill-rule="evenodd" stroke="none"/>
      <path d="M15.7 24.45 L15.75 24.45 Q16.6 25.15 16.2 26.5 L14.95 29.45 14.95 33.5 14.25 35.15 13.2 35.7 12.35 34.4 13.55 35.15 14.15 34.75 14.4 34.05 14.75 33.1 14.55 29.25 15.85 25.95 Q15.75 25.15 15.3 24.75 14.4 24.9 13.4 26.1 L13.75 25.4 Q14.85 24.5 15.7 24.45 M12.65 28.25 L12.85 27.45 13.7 29.4 14.15 32.85 13.55 30.15 12.65 28.25 M19.0 28.5 L19.35 27.25 20.5 30.35 20.8 34.05 20.25 31.25 19.0 28.5 M20.05 25.4 L20.5 24.45 Q21.95 23.15 23.1 23.05 L23.15 23.05 Q24.25 24.05 23.75 26.0 L22.1 30.2 22.1 36.1 21.15 38.45 19.75 39.2 18.6 37.4 20.2 38.45 21.05 37.85 21.35 36.85 21.8 35.5 21.5 29.95 23.3 25.2 Q23.15 24.05 22.5 23.55 21.35 23.7 20.05 25.4 M29.0 38.2 L29.4 37.05 29.15 32.1 30.85 27.95 Q30.7 26.95 30.1 26.45 29.0 26.65 27.75 28.1 L28.15 27.3 Q29.55 26.15 30.65 26.05 L30.7 26.05 Q31.75 26.95 31.3 28.65 L29.7 32.35 29.7 37.5 28.8 39.65 27.45 40.25 26.35 38.65 27.9 39.6 28.7 39.05 29.0 38.2 M27.15 29.5 L28.15 32.55 28.45 35.7 27.95 33.3 26.75 30.85 27.15 29.5" fill="#3d4243" fill-rule="evenodd" stroke="none"/>
      <path d="M15.7 24.45 Q14.85 24.5 13.75 25.4 L13.4 26.1 M15.75 24.45 L16.35 24.5 Q17.05 25.1 16.9 26.5 L16.8 26.75 16.1 30.75 Q15.8 33.45 15.75 36.75 14.95 37.7 14.1 37.45 13.05 37.25 12.3 35.85 L12.2 35.15 12.1 34.05 M12.05 33.85 Q11.95 32.15 12.15 30.55 L12.65 28.25 12.85 27.45 13.4 26.1 M23.15 23.05 L23.95 23.15 Q24.85 24.0 24.65 26.0 L24.6 26.4 Q24.05 28.6 23.75 31.15 23.2 35.4 23.15 40.7 22.05 42.1 20.95 41.75 19.5 41.45 18.55 39.45 L18.4 38.4 18.3 36.85 M18.25 36.6 Q18.1 33.6 18.5 30.9 L19.0 28.5 19.35 27.25 20.05 25.4 20.5 24.45 Q21.95 23.15 23.1 23.05 M30.65 26.05 Q29.55 26.15 28.15 27.3 L27.75 28.1 27.15 29.5 M30.7 26.05 L31.45 26.1 Q32.35 26.85 32.15 28.65 L32.05 29.0 Q30.75 34.15 30.7 41.6 29.65 42.8 28.6 42.5 27.25 42.25 26.3 40.5 L26.2 39.6 26.05 38.2 M26.05 38.0 Q25.8 34.4 26.6 31.3 L26.75 30.85 27.15 29.5" fill="none" stroke="#000000" stroke-linecap="round" stroke-linejoin="round" stroke-opacity="0.3019608" stroke-width="0.5"/>
      <path d="M24.3 24.15 Q25.25 25.0 25.05 27.05 L24.95 27.4 24.15 32.15 Q23.6 36.45 23.55 41.75 22.45 43.1 21.35 42.8 19.9 42.45 18.95 40.45 L18.8 39.45 18.65 37.85 18.65 37.65 Q18.45 34.6 18.9 31.9 L19.4 29.55 19.75 28.3 20.4 26.45 20.85 25.45 Q22.3 24.2 23.5 24.1 L24.3 24.15 M16.1 25.45 L16.15 25.45 16.75 25.5 Q17.45 26.1 17.3 27.5 L17.2 27.8 16.5 31.8 Q16.15 34.5 16.15 37.75 15.35 38.7 14.5 38.5 13.4 38.25 12.7 36.85 L12.55 36.15 12.45 35.05 12.45 34.9 Q12.35 33.15 12.55 31.6 12.7 30.4 13.0 29.25 L13.25 28.5 13.8 27.1 14.15 26.45 Q15.2 25.55 16.1 25.45 M31.05 27.05 L31.8 27.15 Q32.7 27.85 32.5 29.65 L32.45 30.0 Q31.15 35.15 31.1 42.6 30.05 43.85 29.0 43.55 27.65 43.25 26.7 41.5 L26.6 40.6 26.45 39.2 26.4 39.0 Q26.2 35.4 27.0 32.3 L27.1 31.85 27.55 30.5 28.1 29.15 28.55 28.3 Q29.95 27.15 31.05 27.05" fill="#000000" fill-opacity="0.5019608" fill-rule="evenodd" stroke="none"/>
      <path d="M24.6 26.4 Q24.05 28.6 23.75 31.15 23.2 35.4 23.15 40.7 22.05 42.1 20.95 41.75 19.5 41.45 18.55 39.45 L18.4 38.4 19.9 40.8 21.6 41.15 22.65 37.45 22.65 31.05 24.6 26.4 M19.35 27.25 L20.05 25.4 Q21.35 23.7 22.5 23.55 23.15 24.05 23.3 25.2 L21.5 29.95 21.8 35.5 21.35 36.85 20.8 34.05 20.5 30.35 19.35 27.25 M13.4 26.1 Q14.4 24.9 15.3 24.75 15.75 25.15 15.85 25.95 L14.55 29.25 14.75 33.1 14.4 34.05 14.15 32.85 13.7 29.4 12.85 27.45 13.4 26.1 M16.8 26.75 L16.1 30.75 Q15.8 33.45 15.75 36.75 14.95 37.7 14.1 37.45 13.05 37.25 12.3 35.85 L12.2 35.15 13.3 36.8 14.55 37.05 15.4 34.45 15.4 30.0 16.8 26.75 M32.05 29.0 Q30.75 34.15 30.7 41.6 29.65 42.8 28.6 42.5 27.25 42.25 26.3 40.5 L26.2 39.6 27.6 41.7 29.2 42.0 30.25 38.7 30.25 33.05 32.05 29.0 M27.15 29.5 L27.75 28.1 Q29.0 26.65 30.1 26.45 30.7 26.95 30.85 27.95 L29.15 32.1 29.4 37.05 29.0 38.2 28.45 35.7 28.15 32.55 27.15 29.5" fill="#202324" fill-rule="evenodd" stroke="none"/>
      <path d="M23.15 23.05 L23.95 23.15 Q24.85 24.0 24.65 26.0 L24.6 26.4 22.65 31.05 22.65 37.45 21.6 41.15 19.9 40.8 18.4 38.4 18.3 36.85 18.6 37.4 19.75 39.2 21.15 38.45 22.1 36.1 22.1 30.2 23.75 26.0 Q24.25 24.05 23.15 23.05 M12.35 34.4 L13.2 35.7 14.25 35.15 14.95 33.5 14.95 29.45 16.2 26.5 Q16.6 25.15 15.75 24.45 L16.35 24.5 Q17.05 25.1 16.9 26.5 L16.8 26.75 15.4 30.0 15.4 34.45 14.55 37.05 13.3 36.8 12.2 35.15 12.1 34.05 12.35 34.4 M30.7 26.05 L31.45 26.1 Q32.35 26.85 32.15 28.65 L32.05 29.0 30.25 33.05 30.25 38.7 29.2 42.0 27.6 41.7 26.2 39.6 26.05 38.2 26.35 38.65 27.45 40.25 28.8 39.65 29.7 37.5 29.7 32.35 31.3 28.65 Q31.75 26.95 30.7 26.05" fill="#000000" fill-rule="evenodd" stroke="none"/>
      <path d="M18.3 36.85 L18.25 36.6 Q18.1 33.6 18.5 30.9 L19.0 28.5 20.25 31.25 20.8 34.05 21.35 36.85 21.05 37.85 20.2 38.45 18.6 37.4 18.3 36.85 M14.4 34.05 L14.15 34.75 13.55 35.15 12.35 34.4 12.1 34.05 12.05 33.85 Q11.95 32.15 12.15 30.55 L12.65 28.25 13.55 30.15 14.15 32.85 14.4 34.05 M26.05 38.2 L26.05 38.0 Q25.8 34.4 26.6 31.3 L26.75 30.85 27.95 33.3 28.45 35.7 29.0 38.2 28.7 39.05 27.9 39.6 26.35 38.65 26.05 38.2" fill="#2d3131" fill-rule="evenodd" stroke="none"/>
      <path d="M23.1 23.05 L23.15 23.05 Q24.25 24.05 23.75 26.0 L22.1 30.2 22.1 36.1 21.15 38.45 19.75 39.2 18.6 37.4 20.2 38.45 21.05 37.85 21.35 36.85 21.8 35.5 21.5 29.95 23.3 25.2 Q23.15 24.05 22.5 23.55 21.35 23.7 20.05 25.4 L20.5 24.45 Q21.95 23.15 23.1 23.05 M19.0 28.5 L19.35 27.25 20.5 30.35 20.8 34.05 20.25 31.25 19.0 28.5 M15.7 24.45 L15.75 24.45 Q16.6 25.15 16.2 26.5 L14.95 29.45 14.95 33.5 14.25 35.15 13.2 35.7 12.35 34.4 13.55 35.15 14.15 34.75 14.4 34.05 14.75 33.1 14.55 29.25 15.85 25.95 Q15.75 25.15 15.3 24.75 14.4 24.9 13.4 26.1 L13.75 25.4 Q14.85 24.5 15.7 24.45 M12.65 28.25 L12.85 27.45 13.7 29.4 14.15 32.85 13.55 30.15 12.65 28.25 M26.75 30.85 L27.15 29.5 28.15 32.55 28.45 35.7 27.95 33.3 26.75 30.85 M27.75 28.1 L28.15 27.3 Q29.55 26.15 30.65 26.05 L30.7 26.05 Q31.75 26.95 31.3 28.65 L29.7 32.35 29.7 37.5 28.8 39.65 27.45 40.25 26.35 38.65 27.9 39.6 28.7 39.05 29.0 38.2 29.4 37.05 29.15 32.1 30.85 27.95 Q30.7 26.95 30.1 26.45 29.0 26.65 27.75 28.1" fill="#3d4243" fill-rule="evenodd" stroke="none"/>
      <path d="M23.15 23.05 L23.95 23.15 Q24.85 24.0 24.65 26.0 L24.6 26.4 Q24.05 28.6 23.75 31.15 23.2 35.4 23.15 40.7 22.05 42.1 20.95 41.75 19.5 41.45 18.55 39.45 L18.4 38.4 18.3 36.85 M18.25 36.6 Q18.1 33.6 18.5 30.9 L19.0 28.5 19.35 27.25 20.05 25.4 20.5 24.45 Q21.95 23.15 23.1 23.05 M15.7 24.45 Q14.85 24.5 13.75 25.4 L13.4 26.1 M15.75 24.45 L16.35 24.5 Q17.05 25.1 16.9 26.5 L16.8 26.75 16.1 30.75 Q15.8 33.45 15.75 36.75 14.95 37.7 14.1 37.45 13.05 37.25 12.3 35.85 L12.2 35.15 12.1 34.05 M12.05 33.85 Q11.95 32.15 12.15 30.55 L12.65 28.25 12.85 27.45 13.4 26.1 M30.7 26.05 L31.45 26.1 Q32.35 26.85 32.15 28.65 L32.05 29.0 Q30.75 34.15 30.7 41.6 29.65 42.8 28.6 42.5 27.25 42.25 26.3 40.5 L26.2 39.6 26.05 38.2 M26.05 38.0 Q25.8 34.4 26.6 31.3 L26.75 30.85 27.15 29.5 27.75 28.1 28.15 27.3 Q29.55 26.15 30.65 26.05" fill="none" stroke="#000000" stroke-linecap="round" stroke-linejoin="round" stroke-opacity="0.3019608" stroke-width="0.5"/>
      <path d="M44.35 23.55 L44.9 22.8 45.0 22.8 46.25 22.25 45.75 22.9 45.6 22.95 45.05 23.2 44.35 23.55" fill="#fed192" fill-rule="evenodd" stroke="none"/>
      <path d="M41.0 23.3 L39.4 23.85 38.85 24.0 36.3 24.9 36.3 25.0 36.3 24.9 36.5 24.4 38.55 23.65 41.15 22.85 41.55 22.7 41.0 23.3 M38.0 15.1 L37.95 15.1 37.8 15.15 37.75 15.05 38.0 15.1" fill="#a96501" fill-rule="evenodd" stroke="none"/>
      <path d="M36.8 13.7 L36.75 13.75 36.8 13.7" fill="#fd9b0b" fill-rule="evenodd" stroke="none"/>
      <path d="M31.95 20.55 L32.05 20.4 32.9 20.25 33.9 19.35 34.3 18.2 34.1 17.95 34.0 17.9 34.5 17.4 35.35 16.75 34.9 18.05 34.15 20.15 33.95 22.4 33.15 22.05 33.05 21.95 32.3 21.25 31.95 20.6 31.95 20.55 M38.05 22.0 L38.5 20.85 39.1 20.4 39.15 20.45 41.9 21.2 42.15 21.9 41.15 22.85 38.55 23.65 38.05 23.0 38.05 22.0 M43.0 19.9 L41.35 19.55 39.4 17.0 39.25 16.05 40.9 16.5 43.4 18.75 43.0 19.9 M38.3 18.55 L37.75 20.1 36.45 21.75 35.25 22.5 34.9 21.65 35.0 19.2 36.1 17.2 36.5 16.7 38.1 17.95 38.3 18.55" fill="#2e7b8d" fill-rule="evenodd" stroke="none"/>
      <path d="M31.6 21.3 L31.8 20.9 31.85 20.75 31.95 20.55 31.95 20.6 32.3 21.25 33.05 21.95 33.15 22.05 33.95 22.4 34.15 20.15 34.9 18.05 34.6 20.2 34.6 21.05 34.65 22.85 35.7 23.3 37.2 21.7 38.05 23.0 38.55 23.65 36.5 24.4 35.6 24.65 34.95 23.85 34.6 23.5 33.9 22.9 33.15 22.35 33.0 22.25 32.4 21.85 32.1 21.6 32.0 21.55 31.6 21.3 M40.1 15.4 Q41.55 15.9 42.95 17.05 L43.35 17.3 43.7 18.7 Q43.85 20.1 43.2 21.75 L42.0 21.0 41.95 20.95 40.7 20.1 41.65 20.35 43.0 19.9 43.4 18.75 40.9 16.5 39.25 16.05 39.05 15.15 40.1 15.4" fill="#225966" fill-rule="evenodd" stroke="none"/>
      <path d="M32.05 20.4 L33.15 18.8 33.15 18.85 33.7 18.2 33.75 18.15 34.0 17.9 34.1 17.95 34.3 18.2 33.9 19.35 32.9 20.25 32.05 20.4 M35.35 16.75 L36.05 16.25 36.35 16.05 37.15 15.5 38.1 17.95 36.5 16.7 36.1 17.2 35.15 18.35 34.6 21.05 34.6 20.2 34.9 18.05 35.35 16.75 M41.95 20.95 L38.8 19.75 38.0 21.05 38.05 22.0 38.05 23.0 37.2 21.7 37.75 20.1 38.3 18.55 39.75 19.5 38.65 18.1 38.0 15.1 38.45 15.1 39.05 15.15 39.25 16.05 39.4 17.0 41.35 19.55 43.0 19.9 41.65 20.35 40.7 20.1 41.95 20.95" fill="#3ea0b9" fill-rule="evenodd" stroke="none"/>
      <path d="M41.15 22.85 L42.15 21.9 41.9 21.2 39.15 20.45 39.1 20.4 38.5 20.85 38.05 22.0 38.0 21.05 38.8 19.75 41.95 20.95 42.0 21.0 43.2 21.75 42.4 22.4 41.55 22.7 41.15 22.85 M38.0 15.1 L38.65 18.1 39.75 19.5 38.3 18.55 38.1 17.95 37.15 15.5 37.8 15.15 37.95 15.1 38.0 15.1 M37.75 20.1 L37.2 21.7 35.7 23.3 34.65 22.85 34.6 21.05 35.15 18.35 36.1 17.2 35.0 19.2 34.9 21.65 35.25 22.5 36.45 21.75 37.75 20.1" fill="#59b3c8" fill-rule="evenodd" stroke="none"/>
      <path d="M47.45 19.4 Q46.75 18.75 46.15 19.85 L46.0 20.05 Q45.9 21.25 45.1 22.5 L45.0 22.7 44.95 22.75 44.9 22.8 44.35 23.55 44.1 23.65 43.75 23.8 44.5 22.9 44.6 22.7 44.65 22.65 44.9 22.25 Q45.9 20.45 45.55 18.8 45.25 17.4 44.1 16.1 L43.6 15.75 43.15 15.4 41.75 14.7 40.45 14.2 39.1 13.85 38.55 13.75 37.85 13.8 37.1 13.9 36.25 14.25 34.85 15.1 35.6 14.55 36.6 13.95 35.7 14.0 36.0 13.9 36.05 13.8 37.05 13.45 Q36.25 13.75 37.7 13.65 L38.6 13.65 39.2 13.75 40.55 14.0 42.05 14.55 42.7 14.85 43.15 15.1 43.5 15.35 44.5 16.05 Q45.4 17.05 45.8 18.1 L46.4 18.45 Q46.95 18.6 47.25 17.75 L47.45 18.9 47.45 19.4 M36.8 13.7 L36.75 13.75 36.8 13.7" fill="#fff1bb" fill-rule="evenodd" stroke="none"/>
      <path d="M44.9 22.8 L44.95 22.75 45.0 22.8 44.9 22.8" fill="#febe5f" fill-rule="evenodd" stroke="none"/>
      <path d="M35.7 14.0 L36.6 13.95 35.6 14.55 34.85 15.1 34.05 15.65 34.05 15.7 33.1 16.55 32.6 17.05 31.7 18.05 30.85 19.15 30.7 19.3 29.05 21.9 30.55 19.05 30.7 18.8 31.25 18.05 32.5 16.6 33.1 15.95 34.1 15.1 Q34.7 14.6 35.45 14.2 L35.7 14.0 M37.1 13.9 L37.85 13.8 38.55 13.75 38.5 14.5 38.45 15.1 38.0 15.1 37.75 15.05 Q37.75 14.6 37.1 13.9 M44.6 22.7 L44.5 22.9 43.75 23.8 42.4 24.35 41.8 24.6 41.1 24.8 42.4 24.15 Q43.9 23.4 44.4 22.9 L44.6 22.7 M39.4 23.85 L39.4 24.1 39.55 24.9 39.65 25.25 38.8 25.55 38.85 25.15 38.85 24.3 38.85 24.0 39.4 23.85" fill="#ffb711" fill-rule="evenodd" stroke="none"/>
      <path d="M36.05 16.25 L35.15 16.45 35.5 16.2 Q35.8 16.0 36.15 15.75 L37.45 15.1 37.75 15.05 37.8 15.15 37.15 15.5 36.35 16.05 36.05 16.25 M43.2 21.75 L42.7 22.75 41.0 23.3 41.55 22.7 42.4 22.4 43.2 21.75 M35.6 24.65 L36.5 24.4 36.3 24.9 35.35 25.2 35.6 24.65" fill="#7e4b01" fill-rule="evenodd" stroke="none"/>
      <path d="M38.55 13.75 L39.1 13.85 40.45 14.2 40.1 15.4 39.05 15.15 38.45 15.1 38.5 14.5 38.55 13.75 M35.85 26.4 L35.85 26.3 35.95 26.05 36.3 25.0 36.3 24.9 38.85 24.0 38.85 24.3 38.85 25.15 38.8 25.55 35.85 26.4" fill="#8f5601" fill-rule="evenodd" stroke="none"/>
      <path d="M32.85 22.8 L32.65 22.65 31.75 22.1 32.4 21.85 33.0 22.25 33.15 22.35 33.9 22.9 34.6 23.5 34.95 23.85 34.45 24.1 33.2 23.0 32.85 22.8" fill="#da8303" fill-rule="evenodd" stroke="none"/>
      <path d="M34.95 23.85 L35.6 24.65 35.35 25.2 34.9 24.7 34.85 24.55 34.45 24.1 34.95 23.85" fill="#af6a03" fill-rule="evenodd" stroke="none"/>
      <path d="M31.75 22.1 L31.55 22.05 30.65 21.55 31.6 21.3 32.0 21.55 32.1 21.6 32.4 21.85 31.75 22.1" fill="#c97903" fill-rule="evenodd" stroke="none"/>
      <path d="M40.45 14.2 L41.75 14.7 43.15 15.4 43.6 15.75 44.1 16.1 Q45.25 17.4 45.55 18.8 45.9 20.45 44.9 22.25 L44.65 22.65 44.6 22.7 44.4 22.9 Q43.9 23.4 42.4 24.15 L41.1 24.8 39.65 25.25 39.55 24.9 39.4 24.1 39.4 23.85 41.0 23.3 42.7 22.75 43.2 21.75 Q43.85 20.1 43.7 18.7 L43.35 17.3 42.95 17.05 Q41.55 15.9 40.1 15.4 L40.45 14.2 M29.05 21.9 L30.7 19.3 30.85 19.15 31.7 18.05 32.6 17.05 33.1 16.55 34.05 15.7 33.85 17.5 33.2 18.15 33.15 18.25 33.05 18.35 31.45 20.25 31.45 20.3 30.65 21.55 31.55 22.05 31.75 22.1 32.65 22.65 32.85 22.8 32.85 23.05 32.55 24.15 30.75 22.85 Q29.95 22.3 29.05 21.9" fill="#ffd633" fill-rule="evenodd" stroke="none"/>
      <path d="M34.85 15.1 L36.25 14.25 37.1 13.9 Q37.75 14.6 37.75 15.05 L37.45 15.1 36.15 15.75 Q35.8 16.0 35.5 16.2 L35.15 16.45 36.05 16.25 35.35 16.75 34.5 17.4 34.0 17.9 33.75 18.15 33.7 18.2 33.15 18.85 33.15 18.8 32.05 20.4 31.95 20.55 31.85 20.75 31.8 20.9 31.6 21.3 30.65 21.55 31.45 20.3 31.45 20.25 33.05 18.35 33.15 18.25 33.2 18.15 33.85 17.5 34.05 15.7 34.05 15.65 34.85 15.1 M32.55 24.15 L32.85 23.05 32.85 22.8 33.2 23.0 34.45 24.1 34.85 24.55 34.9 24.7 35.35 25.2 36.3 24.9 36.3 25.0 35.95 26.05 35.85 26.3 35.85 26.4 35.2 26.6 35.15 26.6 34.2 25.6 34.05 25.45 33.15 24.65 32.55 24.15" fill="#eca602" fill-rule="evenodd" stroke="none"/>
      <path d="M47.25 17.75 Q46.95 18.6 46.4 18.45 L45.8 18.1 Q45.4 17.05 44.5 16.05 L43.5 15.35 43.15 15.1 42.7 14.85 Q42.6 14.4 43.25 14.35 L43.35 14.35 45.15 14.9 45.8 15.4 46.65 16.5 47.25 17.75" fill="#fee481" fill-rule="evenodd" stroke="none"/>
      <path d="M44.95 22.75 L45.0 22.7 45.1 22.5 Q45.9 21.25 46.0 20.05 L46.15 19.85 Q46.75 18.75 47.45 19.4 47.3 20.75 46.3 22.15 L46.25 22.25 45.0 22.8 44.95 22.75 M42.7 14.85 L42.05 14.55 40.55 14.0 39.2 13.75 38.6 13.65 37.7 13.65 Q36.25 13.75 37.05 13.45 L37.8 13.15 38.6 13.05 39.85 13.05 40.8 13.2 43.1 13.8 43.25 13.85 45.15 14.9 43.35 14.35 43.25 14.35 Q42.6 14.4 42.7 14.85" fill="#feedab" fill-rule="evenodd" stroke="none"/>
      <path d="M47.45 19.4 L47.45 18.9 47.25 17.75 M37.05 13.45 L36.05 13.8 36.0 13.9 35.7 14.0 35.45 14.2 Q34.7 14.6 34.1 15.1 L33.1 15.95 32.5 16.6 31.25 18.05 30.7 18.8 30.55 19.05 29.05 21.9 Q29.95 22.3 30.75 22.85 L32.55 24.15 33.15 24.65 34.05 25.45 34.2 25.6 35.15 26.6 35.2 26.6 35.85 26.4 38.8 25.55 39.65 25.25 41.1 24.8 41.8 24.6 42.4 24.35 43.75 23.8 44.1 23.65 44.35 23.55 45.05 23.2 45.6 22.95 45.75 22.9 46.25 22.25 46.3 22.15 Q47.3 20.75 47.45 19.4 M45.15 14.9 L43.25 13.85 43.1 13.8 40.8 13.2 39.85 13.05 38.6 13.05 37.8 13.15 37.05 13.45 M45.15 14.9 L45.8 15.4 46.65 16.5 47.25 17.75 M31.6 21.3 L31.8 20.9 31.85 20.75 31.95 20.55 32.05 20.4 33.15 18.8 33.15 18.85 33.7 18.2 33.75 18.15 34.0 17.9 34.5 17.4 35.35 16.75 36.05 16.25 36.35 16.05 37.15 15.5 M37.45 15.1 L37.75 15.05 M40.1 15.4 Q41.55 15.9 42.95 17.05 L43.35 17.3 43.7 18.7 Q43.85 20.1 43.2 21.75 L42.7 22.75 M41.15 22.85 L41.55 22.7 42.4 22.4 43.2 21.75 M38.55 23.65 L41.15 22.85 M39.05 15.15 L38.45 15.1 38.0 15.1 37.75 15.05 M37.8 15.15 L37.95 15.1 38.0 15.1 M37.8 15.15 L37.15 15.5 M39.05 15.15 L40.1 15.4 M32.4 21.85 L33.0 22.25 33.15 22.35 33.9 22.9 34.6 23.5 34.95 23.85 35.6 24.65 36.5 24.4 38.55 23.65 M32.4 21.85 L32.1 21.6 32.0 21.55 31.6 21.3" fill="none" stroke="#000000" stroke-linecap="round" stroke-linejoin="round" stroke-opacity="0.3019608" stroke-width="0.5"/>
    </g>
    <g id="sprite0" transform="matrix(1.0, 0.0, 0.0, 1.0, 73.5, 65.0)">
      <use height="136.85" transform="matrix(1.0, 0.0, 0.0, 1.0, -73.5, -65.0)" width="148.25" xlink:href="#shape1"/>
    </g>
    <g id="shape1" transform="matrix(1.0, 0.0, 0.0, 1.0, 73.5, 65.0)">
      <path d="M36.65 -54.65 Q60.05 -42.0 69.75 -17.95 80.55 8.9 68.0 34.1 55.45 59.35 26.8 68.2 -1.8 77.05 -29.7 64.3 -57.6 51.6 -68.45 24.75 -79.3 -2.05 -66.75 -27.25 L-66.7 -27.3 Q-54.1 -52.5 -25.5 -61.4 3.1 -70.2 31.0 -57.5 L36.65 -54.65" fill="url(#gradient0)" fill-rule="evenodd" stroke="none"/>
    </g>
    <radialGradient cx="0" cy="0" gradientTransform="matrix(0.0914, 0.0, 0.0, 0.0914, 0.6, 3.4)" gradientUnits="userSpaceOnUse" id="gradient0" r="819.2" spreadMethod="pad">
      <stop offset="0.0" stop-color="#ffffff"/>
      <stop offset="1.0" stop-color="#ffffff" stop-opacity="0.0"/>
    </radialGradient>
    <g id="sprite1" transform="matrix(1.0, 0.0, 0.0, 1.0, 0.0, 0.0)">
      <use height="20.95" transform="matrix(1.0, 0.0, 0.0, 1.0, 0.0, 0.0)" width="24.45" xlink:href="#shape2"/>
    </g>
    <g id="shape2" transform="matrix(1.0, 0.0, 0.0, 1.0, 0.0, 0.0)">
      <path d="M14.85 11.4 Q15.8 11.6 16.25 12.45 16.85 13.3 16.6 14.35 16.4 15.3 15.55 15.9 14.65 16.4 13.65 16.2 12.65 15.9 12.1 15.1 11.6 14.2 11.8 13.2 12.1 12.2 12.9 11.65 13.8 11.15 14.85 11.4" fill="#ffffff" fill-opacity="0.7882353" fill-rule="evenodd" stroke="none"/>
      <path d="M14.85 11.4 Q13.8 11.15 12.9 11.65 12.1 12.2 11.8 13.2 11.6 14.2 12.1 15.1 12.65 15.9 13.65 16.2 14.65 16.4 15.55 15.9 16.4 15.3 16.6 14.35 16.85 13.3 16.25 12.45 15.8 11.6 14.85 11.4 M18.2 11.35 L20.15 11.25 18.75 12.55 Q19.05 13.8 18.8 15.05 18.5 16.35 17.65 17.3 L19.1 20.95 16.55 18.25 Q14.8 19.3 12.8 18.85 10.8 18.35 9.75 16.65 9.05 15.5 8.95 14.3 7.75 12.4 4.95 11.55 L9.7 11.4 Q10.3 10.4 11.35 9.75 13.1 8.75 15.1 9.15 16.95 9.5 18.1 11.15 L18.2 11.35" fill="#ffffff" fill-opacity="0.23529412" fill-rule="evenodd" stroke="none"/>
      <path d="M15.4 13.55 L18.1 17.55 13.35 14.65 7.05 18.5 12.75 13.55 0.0 0.0 14.25 12.25 24.45 5.95 15.4 13.55" fill="#ffffff" fill-opacity="0.7882353" fill-rule="evenodd" stroke="none"/>
    </g>
  </defs>
</svg>
