<?xml version="1.0" encoding="UTF-8" standalone="no"?>
<svg xmlns:xlink="http://www.w3.org/1999/xlink" height="520.0px" width="520.0px" xmlns="http://www.w3.org/2000/svg">
  <g transform="matrix(10.0, 0.0, 0.0, 10.0, 0.0, 0.0)">
    <use height="52.0" transform="matrix(1.0, 0.0, 0.0, 1.0, 0.0, 0.0)" width="52.0" xlink:href="#shape0"/>
    <use height="136.85" transform="matrix(-0.0827, -0.0037, 0.0522, -0.1862, 33.8856, 36.4745)" width="148.25" xlink:href="#sprite0"/>
    <use height="20.95" transform="matrix(-0.424, 0.1955, 0.3287, 0.5805, 24.7, 7.0)" width="24.45" xlink:href="#sprite1"/>
    <use height="20.95" transform="matrix(-0.3311, 0.1527, 0.2477, 0.4373, 33.2, 18.1)" width="24.45" xlink:href="#sprite1"/>
    <use height="41.75" transform="matrix(0.6523, 0.0, 0.0, 0.6523, 5.85, 13.65)" width="22.8" xlink:href="#sprite2"/>
  </g>
  <defs>
    <g id="shape0" transform="matrix(1.0, 0.0, 0.0, 1.0, 0.0, 0.0)">
      <path d="M52.0 0.0 L52.0 52.0 0.0 52.0 0.0 0.0 52.0 0.0" fill="#795fa9" fill-opacity="0.0" fill-rule="evenodd" stroke="none"/>
      <path d="M24.75 11.5 L26.65 10.4 25.95 13.25 23.9 14.3 20.15 17.95 20.75 17.95 23.05 18.0 24.45 18.0 21.95 24.35 20.85 26.7 20.6 25.75 21.3 22.95 21.65 21.4 22.0 19.95 20.95 19.95 18.55 19.95 15.95 23.35 13.95 29.75 14.3 30.05 15.25 30.85 16.55 32.0 18.3 31.8 17.2 33.9 15.95 33.5 15.4 33.25 12.6 29.9 19.35 15.1 24.75 11.5 M38.4 7.35 L42.15 6.75 39.15 15.2 35.9 21.15 31.35 26.45 25.7 31.4 22.45 33.0 21.3 33.4 19.7 33.85 20.55 31.55 21.9 31.35 21.4 29.2 22.75 26.05 23.35 28.85 23.6 29.9 24.65 29.45 26.35 28.8 27.3 28.45 30.2 23.65 30.7 22.9 31.0 22.45 28.95 21.25 28.9 21.25 27.65 21.05 26.45 20.85 28.5 18.1 30.9 18.05 31.95 19.3 32.95 20.55 35.9 17.3 36.3 16.5 38.15 12.85 38.8 11.4 39.9 9.35 37.5 9.65 35.7 9.85 38.4 7.35" fill="#ffb711" fill-rule="evenodd" stroke="none"/>
      <path d="M42.15 6.75 L43.6 7.55 41.35 11.4 39.15 15.2 42.15 6.75 M22.45 33.0 L25.7 31.4 31.35 26.45 26.75 31.8 22.45 33.0" fill="#fff1bb" fill-rule="evenodd" stroke="none"/>
      <path d="M11.8 30.35 L18.4 15.15 24.75 11.5 19.35 15.1 12.6 29.9 15.4 33.25 13.15 31.75 11.8 30.35 M34.8 7.85 L38.4 7.35 35.7 9.85 37.5 9.65 32.0 10.75 25.05 14.35 24.25 14.8 20.75 17.95 20.15 17.95 23.9 14.3 25.95 13.25 31.8 10.25 32.9 10.15 34.8 7.85 M14.3 30.05 L13.95 29.75 15.95 23.35 18.55 19.95 20.95 19.95 18.75 20.5 16.4 23.6 14.3 30.05 M27.65 21.05 L24.9 21.1 23.25 25.7 23.35 28.85 22.75 26.05 22.7 25.8 24.25 20.5 25.6 20.7 27.2 18.05 28.5 18.1 26.45 20.85 27.65 21.05" fill="#ffe600" fill-rule="evenodd" stroke="none"/>
      <path d="M26.65 10.4 L29.75 8.65 34.8 7.85 32.9 10.15 31.8 10.25 25.95 13.25 26.65 10.4 M24.45 18.0 L25.0 18.0 27.0 18.05 27.2 18.05 25.6 20.7 24.25 20.5 22.7 25.8 22.75 26.05 21.4 29.2 21.4 29.1 20.85 26.7 21.95 24.35 24.45 18.0 M17.2 33.9 L18.3 31.8 20.55 31.55 19.7 33.85 19.15 33.95 18.5 34.05 17.2 33.9" fill="#cc6b22" fill-rule="evenodd" stroke="none"/>
      <path d="M43.6 7.55 Q45.45 9.25 45.9 11.55 45.5 14.6 43.7 18.25 44.6 12.55 41.35 11.4 L43.6 7.55 M33.05 33.3 L28.7 37.55 21.25 38.65 Q20.05 35.95 21.3 33.4 L22.45 33.0 26.75 31.8 31.35 26.45 Q34.5 27.1 33.05 33.3 M32.0 10.75 L32.55 11.6 Q30.7 12.55 28.95 13.45 L25.6 15.0 25.05 14.35 32.0 10.75 M15.25 30.85 L14.3 30.05 16.4 23.6 17.35 24.05 16.8 26.0 16.6 26.6 16.15 28.0 15.25 30.85 M23.35 28.85 L23.25 25.7 24.4 25.45 24.65 29.45 23.6 29.9 23.35 28.85" fill="#ffffbb" fill-rule="evenodd" stroke="none"/>
      <path d="M19.95 38.85 L18.55 38.05 15.95 36.2 15.35 35.7 15.1 35.5 15.15 35.45 Q13.45 33.05 13.15 31.75 L15.4 33.25 15.95 33.5 17.2 33.9 18.5 34.05 19.95 38.85 M37.5 9.65 L39.9 9.35 38.8 11.4 35.85 10.9 32.55 11.6 32.0 10.75 37.5 9.65 M20.95 19.95 L22.0 19.95 21.65 21.4 20.45 21.7 19.3 22.0 18.75 20.5 20.95 19.95 M27.65 21.05 L28.9 21.25 28.95 21.25 31.0 22.45 30.7 22.9 29.1 21.95 27.3 21.85 25.55 21.7 24.9 21.1 27.65 21.05" fill="#9a5410" fill-rule="evenodd" stroke="none"/>
      <path d="M43.7 18.25 Q41.35 22.7 38.4 26.85 34.8 26.3 35.9 21.15 L39.15 15.2 41.35 11.4 Q44.6 12.55 43.7 18.25 M21.25 38.65 L19.95 38.85 18.5 34.05 19.15 33.95 19.7 33.85 21.3 33.4 Q20.05 35.95 21.25 38.65" fill="#ffffe6" fill-rule="evenodd" stroke="none"/>
      <path d="M38.4 26.85 L33.05 33.3 Q34.5 27.1 31.35 26.45 L35.9 21.15 Q34.8 26.3 38.4 26.85 M15.1 35.5 Q12.55 33.05 11.8 30.35 L13.15 31.75 Q13.45 33.05 15.15 35.45 L15.1 35.5 M20.75 17.95 L24.25 14.8 25.05 14.35 25.6 15.0 23.05 18.0 20.75 17.95 M24.9 21.1 L25.55 21.7 24.4 25.45 23.25 25.7 24.9 21.1 M19.3 22.0 L17.35 24.05 16.4 23.6 18.75 20.5 19.3 22.0" fill="#f7db6f" fill-rule="evenodd" stroke="none"/>
      <path d="M32.55 11.6 L35.85 10.9 33.85 13.55 30.85 14.15 29.2 13.65 28.95 13.45 Q30.7 12.55 32.55 11.6 M25.85 16.55 L28.4 15.65 27.35 17.4 27.0 18.05 25.0 18.0 25.85 16.55 M27.75 23.55 L28.1 23.7 27.6 24.5 26.85 25.75 26.5 25.5 25.9 24.4 26.3 23.75 27.75 23.55 M20.45 21.7 L19.7 22.95 17.8 25.2 16.8 26.0 17.35 24.05 19.3 22.0 20.45 21.7" fill="#92fa27" fill-rule="evenodd" stroke="none"/>
      <path d="M35.85 10.9 L38.8 11.4 38.15 12.85 36.65 13.1 33.85 13.55 35.85 10.9 M25.8 15.75 L25.85 16.55 25.0 18.0 24.45 18.0 23.05 18.0 25.6 15.0 25.8 15.75 M31.85 16.1 L30.45 15.9 29.6 15.45 31.0 14.5 32.8 14.4 34.3 15.3 31.85 16.1 M16.55 32.0 L15.25 30.85 16.15 28.0 16.55 32.0 M21.3 22.95 L20.6 25.75 20.85 26.7 21.4 29.1 20.05 28.3 19.85 28.0 19.2 27.2 18.5 24.85 19.6 23.65 20.8 22.95 21.3 22.95 M25.55 21.7 L27.3 21.85 26.95 22.2 26.0 23.15 25.25 24.5 24.4 25.45 25.55 21.7 M28.1 23.7 L30.2 23.65 27.3 28.45 26.35 28.8 26.45 28.3 27.6 24.5 28.1 23.7" fill="#78e806" fill-rule="evenodd" stroke="none"/>
      <path d="M35.3 15.9 L33.15 14.2 36.65 13.1 38.15 12.85 36.3 16.5 35.3 15.9 M27.35 17.4 L28.9 16.25 31.85 16.1 31.95 19.3 30.9 18.05 28.5 18.1 27.2 18.05 27.0 18.05 27.35 17.4 M21.65 21.4 L21.3 22.95 20.8 22.95 19.7 22.95 20.45 21.7 21.65 21.4 M27.3 21.85 L29.1 21.95 30.7 22.9 30.2 23.65 28.1 23.7 27.75 23.55 26.85 23.4 26.95 22.2 27.3 21.85 M21.4 29.1 L21.4 29.2 21.9 31.35 20.55 31.55 18.3 31.8 18.7 30.75 19.85 28.0 20.05 28.3 21.4 29.1" fill="#55a604" fill-rule="evenodd" stroke="none"/>
      <path d="M35.3 15.9 L36.3 16.5 35.9 17.3 32.95 20.55 31.95 19.3 31.85 16.1 34.3 15.3 35.3 15.9 M28.95 13.45 L29.2 14.45 27.95 15.2 25.8 15.75 25.6 15.0 28.95 13.45 M18.3 31.8 L16.55 32.0 16.15 28.0 16.6 26.6 17.8 26.0 19.05 27.65 18.7 30.75 18.3 31.8 M26.35 28.8 L24.65 29.45 24.4 25.45 25.25 24.5 26.5 25.5 26.85 25.75 26.45 28.3 26.35 28.8" fill="#407c03" fill-rule="evenodd" stroke="none"/>
      <path d="M36.65 13.1 L33.15 14.2 35.3 15.9 34.3 15.3 32.8 14.4 31.0 14.5 29.6 15.45 30.45 15.9 31.85 16.1 28.9 16.25 27.35 17.4 28.4 15.65 25.85 16.55 25.8 15.75 27.95 15.2 29.2 14.45 28.95 13.45 29.2 13.65 30.85 14.15 33.85 13.55 36.65 13.1 M26.85 25.75 L27.6 24.5 26.45 28.3 26.85 25.75 M26.95 22.2 L26.85 23.4 27.75 23.55 26.3 23.75 25.9 24.4 26.5 25.5 25.25 24.5 26.0 23.15 26.95 22.2 M19.85 28.0 L18.7 30.75 19.05 27.65 17.8 26.0 16.6 26.6 16.8 26.0 17.8 25.2 19.7 22.95 20.8 22.95 19.6 23.65 18.5 24.85 19.2 27.2 19.85 28.0" fill="#c9fc94" fill-rule="evenodd" stroke="none"/>
      <path d="M42.15 6.75 L43.6 7.55 Q45.45 9.25 45.9 11.55 45.5 14.6 43.7 18.25 41.35 22.7 38.4 26.85 L33.05 33.3 28.7 37.55 21.25 38.65 19.95 38.85 18.55 38.05 15.95 36.2 15.35 35.7 15.1 35.5 Q12.55 33.05 11.8 30.35 L18.4 15.15 24.75 11.5 26.65 10.4 29.75 8.65 34.8 7.85 38.4 7.35 42.15 6.75 M32.55 11.6 L35.85 10.9 38.8 11.4 39.9 9.35 M20.15 17.95 L20.75 17.95 M36.3 16.5 L38.15 12.85 38.8 11.4 M25.6 15.0 L28.95 13.45 Q30.7 12.55 32.55 11.6 M25.6 15.0 L23.05 18.0 24.45 18.0 25.0 18.0 M18.3 31.8 L16.55 32.0 15.25 30.85 14.3 30.05 13.95 29.75 M22.0 19.95 L21.65 21.4 21.3 22.95 20.6 25.75 20.85 26.7 M23.05 18.0 L20.75 17.95 M31.95 19.3 L32.95 20.55 35.9 17.3 36.3 16.5 M28.5 18.1 L30.9 18.05 31.95 19.3 M25.55 21.7 L27.3 21.85 29.1 21.95 30.7 22.9 31.0 22.45 28.95 21.25 M28.5 18.1 L27.2 18.05 27.0 18.05 25.0 18.0 M30.2 23.65 L30.7 22.9 M30.2 23.65 L27.3 28.45 26.35 28.8 24.65 29.45 23.6 29.9 M24.4 25.45 L25.55 21.7 M21.4 29.2 L21.4 29.1 20.85 26.7 M18.3 31.8 L20.55 31.55 21.9 31.35 21.4 29.2 M24.65 29.45 L24.4 25.45 M16.8 26.0 L16.6 26.6 16.15 28.0 15.25 30.85 M21.65 21.4 L20.45 21.7 19.3 22.0 17.35 24.05 16.8 26.0" fill="none" stroke="#000000" stroke-linecap="round" stroke-linejoin="round" stroke-opacity="0.3019608" stroke-width="0.5"/>
      <path d="M31.0 10.6 Q31.9 13.55 31.6 17.65 31.25 22.75 30.1 27.6 29.15 31.65 27.7 35.7 L26.95 37.65 19.8 38.6 18.35 37.8 Q16.95 36.85 15.85 35.9 L15.25 35.35 15.05 35.15 Q12.5 32.7 11.75 30.0 L18.65 14.85 28.15 9.65 31.0 10.6" fill="#502727" fill-opacity="0.3019608" fill-rule="evenodd" stroke="none"/>
      <path d="M13.65 39.55 L13.6 39.55 13.65 39.55 13.6 39.55 13.65 39.55" fill="#596162" fill-rule="evenodd" stroke="none"/>
      <path d="M9.1 18.7 L10.2 16.8 11.0 19.6 9.7 21.55 8.3 26.6 8.85 26.3 10.9 25.2 12.05 24.5 13.05 31.3 13.25 33.9 12.6 33.15 11.8 30.4 11.3 28.8 10.9 27.4 10.0 27.95 7.9 29.15 7.35 33.45 8.8 39.95 9.3 40.05 10.5 40.25 12.2 40.6 13.6 39.55 13.65 39.55 13.75 41.9 12.45 42.2 11.8 42.25 7.75 40.75 6.2 24.55 9.1 18.7 M18.8 8.3 L21.75 5.85 23.4 14.75 23.55 21.5 22.25 28.4 19.85 35.5 17.9 38.5 17.0 39.4 15.9 40.6 15.4 38.2 16.5 37.35 15.05 35.75 14.65 32.35 16.55 34.45 17.3 35.25 18.0 34.35 19.15 32.9 19.75 32.15 19.9 26.5 19.9 25.6 19.9 25.05 17.55 25.05 17.55 25.1 16.35 25.55 15.2 26.0 15.6 22.5 17.7 21.3 19.15 21.9 20.7 22.5 21.6 18.2 21.55 17.3 21.3 13.15 21.2 11.6 21.1 9.3 19.15 10.7 17.7 11.8 18.8 8.3" fill="#ffb711" fill-rule="evenodd" stroke="none"/>
      <path d="M21.75 5.85 L23.4 5.85 23.4 10.3 23.4 14.75 21.75 5.85 M17.9 38.5 L19.85 35.5 22.25 28.4 20.95 35.3 17.9 38.5" fill="#fff1bb" fill-rule="evenodd" stroke="none"/>
      <path d="M7.3 41.6 L5.35 25.05 9.1 18.7 6.2 24.55 7.75 40.75 11.8 42.25 9.2 42.1 7.3 41.6 M15.95 10.5 L18.8 8.3 17.7 11.8 19.15 10.7 14.95 14.45 10.75 21.05 10.25 21.8 8.85 26.3 8.3 26.6 9.7 21.55 11.0 19.6 14.55 14.1 15.45 13.45 15.95 10.5 M9.3 40.05 L8.8 39.95 7.35 33.45 7.9 29.15 10.0 27.95 8.4 29.55 7.85 33.4 9.3 40.05 M14.45 23.15 L15.6 22.5 15.2 26.0 16.35 25.55 13.95 26.95 14.85 31.8 16.55 34.45 14.65 32.35 14.45 32.15 13.1 26.8 14.4 26.25 14.45 23.15" fill="#ffe600" fill-rule="evenodd" stroke="none"/>
      <path d="M10.2 16.8 L12.0 13.7 15.95 10.5 15.45 13.45 14.55 14.1 11.0 19.6 10.2 16.8 M12.05 24.5 L12.55 24.25 14.25 23.25 14.45 23.15 14.4 26.25 13.1 26.8 14.45 32.15 14.65 32.35 15.05 35.75 14.95 35.65 13.25 33.9 13.05 31.3 12.05 24.5 M13.75 41.9 L13.65 39.55 15.4 38.2 15.9 40.6 15.5 41.0 14.9 41.4 13.75 41.9" fill="#cc6b22" fill-rule="evenodd" stroke="none"/>
      <path d="M23.4 5.85 Q25.9 6.4 27.4 8.15 28.6 11.0 28.85 15.1 26.8 9.7 23.4 10.3 L23.4 5.85 M27.2 33.45 L25.5 39.3 19.7 44.0 Q17.2 42.25 17.0 39.4 L17.9 38.5 20.95 35.3 22.25 28.4 Q25.35 27.35 27.2 33.45 M14.95 14.45 L15.8 14.9 13.65 18.3 11.55 21.3 10.75 21.05 14.95 14.45 M10.5 40.25 L9.3 40.05 7.85 33.4 8.95 33.3 9.4 35.3 9.5 35.9 9.85 37.35 10.5 40.25 M18.0 34.35 L17.3 35.25 16.55 34.45 14.85 31.8 15.75 30.95 18.0 34.35" fill="#ffffbb" fill-rule="evenodd" stroke="none"/>
      <path d="M18.6 44.9 L17.0 44.9 13.8 44.55 13.05 44.4 12.7 44.35 12.7 44.3 Q10.0 43.1 9.2 42.1 L11.8 42.25 12.45 42.2 13.75 41.9 14.9 41.4 18.6 44.9 M19.15 10.7 L21.1 9.3 21.2 11.6 18.4 12.65 15.8 14.9 14.95 14.45 19.15 10.7 M10.0 27.95 L10.9 27.4 11.3 28.8 10.45 29.7 9.6 30.55 8.4 29.55 10.0 27.95 M16.35 25.55 L17.55 25.1 17.55 25.05 19.9 25.05 19.9 25.6 18.1 25.6 16.45 26.4 14.85 27.15 13.95 26.95 16.35 25.55" fill="#9a5410" fill-rule="evenodd" stroke="none"/>
      <path d="M28.85 15.1 Q29.05 20.15 28.55 25.2 25.2 26.5 23.55 21.5 L23.4 14.75 23.4 10.3 Q26.8 9.7 28.85 15.1 M19.7 44.0 L18.6 44.9 14.9 41.4 15.5 41.0 15.9 40.6 17.0 39.4 Q17.2 42.25 19.7 44.0" fill="#ffffe6" fill-rule="evenodd" stroke="none"/>
      <path d="M28.55 25.2 Q28.15 29.3 27.2 33.45 25.35 27.35 22.25 28.4 L23.55 21.5 Q25.2 26.5 28.55 25.2 M12.7 44.35 Q9.3 43.55 7.3 41.6 L9.2 42.1 Q10.0 43.1 12.7 44.3 L12.7 44.35 M8.85 26.3 L10.25 21.8 10.75 21.05 11.55 21.3 10.9 25.2 8.85 26.3 M14.85 27.15 L15.75 30.95 14.85 31.8 13.95 26.95 14.85 27.15 M8.4 29.55 L9.6 30.55 8.95 33.3 7.85 33.4 8.4 29.55" fill="#f7db6f" fill-rule="evenodd" stroke="none"/>
      <path d="M15.8 14.9 L18.4 12.65 17.95 15.95 15.65 18.0 13.95 18.35 13.65 18.3 15.8 14.9 M12.55 24.25 L12.55 22.5 14.25 20.5 14.25 22.5 14.25 23.25 12.55 24.25 M17.7 27.7 L18.05 27.6 18.05 28.55 18.05 30.0 17.55 30.0 16.5 29.3 16.5 28.55 17.7 27.7 M10.45 29.7 L10.35 31.2 9.85 34.1 9.4 35.3 8.95 33.3 9.6 30.55 10.45 29.7" fill="#92fa27" fill-rule="evenodd" stroke="none"/>
      <path d="M18.4 12.65 L21.2 11.6 21.3 13.15 20.15 14.15 17.95 15.95 18.4 12.65 M11.55 21.3 L12.05 21.9 12.55 22.5 12.55 24.25 12.05 24.5 10.9 25.2 11.55 21.3 M12.2 40.6 L10.5 40.25 9.85 37.35 12.2 40.6 M11.8 30.4 L12.6 33.15 13.25 33.9 14.95 35.65 13.4 35.65 13.05 35.5 12.15 35.1 10.35 33.45 10.7 31.85 11.35 30.65 11.8 30.4 M19.9 26.5 L19.75 32.15 19.15 32.9 18.95 32.4 18.05 28.55 18.05 27.6 19.9 26.5 M17.5 19.15 L16.2 19.7 15.2 19.7 16.0 18.2 17.5 17.25 19.25 17.25 17.5 19.15 M16.3 26.9 L16.0 28.25 16.0 29.8 15.75 30.95 14.85 27.15 16.45 26.4 16.3 26.9" fill="#78e806" fill-rule="evenodd" stroke="none"/>
      <path d="M20.15 14.15 L21.3 13.15 21.55 17.3 20.4 17.3 17.7 16.85 20.15 14.15 M11.3 28.8 L11.8 30.4 11.35 30.65 10.35 31.2 10.45 29.7 11.3 28.8 M19.15 21.9 L17.7 21.3 15.6 22.5 14.45 23.15 14.25 23.25 14.25 22.5 15.05 20.7 17.5 19.15 19.15 21.9 M19.9 25.6 L19.9 26.5 18.05 27.6 17.7 27.7 16.85 27.95 16.3 26.9 16.45 26.4 18.1 25.6 19.9 25.6 M15.05 35.75 L16.5 37.35 15.4 38.2 13.65 39.55 13.6 39.55 13.45 38.45 13.05 35.5 13.4 35.65 14.95 35.65 15.05 35.75" fill="#55a604" fill-rule="evenodd" stroke="none"/>
      <path d="M20.4 17.3 L21.55 17.3 21.6 18.2 20.7 22.5 19.15 21.9 17.5 19.15 19.25 17.25 20.4 17.3 M11.55 21.3 L13.65 18.3 14.35 19.1 13.7 20.35 12.05 21.9 11.55 21.3 M13.6 39.55 L12.2 40.6 9.85 37.35 9.5 35.9 10.25 34.8 12.2 35.6 13.45 38.45 13.6 39.55 M19.15 32.9 L18.0 34.35 15.75 30.95 16.0 29.8 17.55 30.0 18.05 30.0 18.95 32.4 19.15 32.9" fill="#407c03" fill-rule="evenodd" stroke="none"/>
      <path d="M17.95 15.95 L20.15 14.15 17.7 16.85 20.4 17.3 19.25 17.25 17.5 17.25 16.0 18.2 15.2 19.7 16.2 19.7 17.5 19.15 15.05 20.7 14.25 22.5 14.25 20.5 12.55 22.5 12.05 21.9 13.7 20.35 14.35 19.1 13.65 18.3 13.95 18.35 15.65 18.0 17.95 15.95 M18.05 30.0 L18.05 28.55 18.95 32.4 18.05 30.0 M16.3 26.9 L16.85 27.95 17.7 27.7 16.5 28.55 16.5 29.3 17.55 30.0 16.0 29.8 16.0 28.25 16.3 26.9 M13.05 35.5 L13.45 38.45 12.2 35.6 10.25 34.8 9.5 35.9 9.4 35.3 9.85 34.1 10.35 31.2 11.35 30.65 10.7 31.85 10.35 33.45 12.15 35.1 13.05 35.5" fill="#c9fc94" fill-rule="evenodd" stroke="none"/>
      <path d="M21.75 5.85 L23.4 5.85 Q25.9 6.4 27.4 8.15 28.6 11.0 28.85 15.1 29.05 20.15 28.55 25.2 28.15 29.3 27.2 33.45 L25.5 39.3 19.7 44.0 18.6 44.9 17.0 44.9 13.8 44.55 13.05 44.4 12.7 44.35 Q9.3 43.55 7.3 41.6 L5.35 25.05 9.1 18.7 10.2 16.8 12.0 13.7 15.95 10.5 18.8 8.3 21.75 5.85 M15.8 14.9 L18.4 12.65 21.2 11.6 21.1 9.3 M8.3 26.6 L8.85 26.3 M21.3 13.15 L21.2 11.6 M21.55 17.3 L21.3 13.15 M11.55 21.3 L13.65 18.3 15.8 14.9 M11.55 21.3 L10.9 25.2 12.05 24.5 12.55 24.25 14.25 23.25 14.45 23.15 15.6 22.5 17.7 21.3 19.15 21.9 20.7 22.5 21.6 18.2 21.55 17.3 M10.9 25.2 L8.85 26.3 M13.6 39.55 L12.2 40.6 10.5 40.25 9.3 40.05 8.8 39.95 M10.9 27.4 L11.3 28.8 11.8 30.4 12.6 33.15 13.25 33.9 M17.55 25.05 L19.9 25.05 19.9 25.6 19.9 26.5 19.75 32.15 19.15 32.9 18.0 34.35 17.3 35.25 M15.05 35.75 L16.5 37.35 15.4 38.2 M16.45 26.4 L18.1 25.6 19.9 25.6 M16.45 26.4 L14.85 27.15 15.75 30.95 M15.05 35.75 L14.95 35.65 13.25 33.9 M13.65 39.55 L15.4 38.2 M18.0 34.35 L15.75 30.95 M11.3 28.8 L10.45 29.7 M8.95 33.3 L9.6 30.55 10.45 29.7 M9.4 35.3 L9.5 35.9 9.85 37.35 10.5 40.25 M8.95 33.3 L9.4 35.3 M13.6 39.55 L13.65 39.55" fill="none" stroke="#000000" stroke-linecap="round" stroke-linejoin="round" stroke-opacity="0.3019608" stroke-width="0.5"/>
    </g>
    <g id="sprite0" transform="matrix(1.0, 0.0, 0.0, 1.0, 73.5, 65.0)">
      <use height="136.85" transform="matrix(1.0, 0.0, 0.0, 1.0, -73.5, -65.0)" width="148.25" xlink:href="#shape1"/>
    </g>
    <g id="shape1" transform="matrix(1.0, 0.0, 0.0, 1.0, 73.5, 65.0)">
      <path d="M36.65 -54.65 Q60.05 -42.0 69.75 -17.95 80.55 8.9 68.0 34.1 55.45 59.35 26.8 68.2 -1.8 77.05 -29.7 64.3 -57.6 51.6 -68.45 24.75 -79.3 -2.05 -66.75 -27.25 L-66.7 -27.3 Q-54.1 -52.5 -25.5 -61.4 3.1 -70.2 31.0 -57.5 L36.65 -54.65" fill="url(#gradient0)" fill-rule="evenodd" stroke="none"/>
    </g>
    <radialGradient cx="0" cy="0" gradientTransform="matrix(0.0914, 0.0, 0.0, 0.0914, 0.6, 3.4)" gradientUnits="userSpaceOnUse" id="gradient0" r="819.2" spreadMethod="pad">
      <stop offset="0.0" stop-color="#ffffff"/>
      <stop offset="1.0" stop-color="#ffffff" stop-opacity="0.0"/>
    </radialGradient>
    <g id="sprite1" transform="matrix(1.0, 0.0, 0.0, 1.0, 0.0, 0.0)">
      <use height="20.95" transform="matrix(1.0, 0.0, 0.0, 1.0, 0.0, 0.0)" width="24.45" xlink:href="#shape2"/>
    </g>
    <g id="shape2" transform="matrix(1.0, 0.0, 0.0, 1.0, 0.0, 0.0)">
      <path d="M14.85 11.4 Q15.8 11.6 16.25 12.45 16.85 13.3 16.6 14.35 16.4 15.3 15.55 15.9 14.65 16.4 13.65 16.2 12.65 15.9 12.1 15.1 11.6 14.2 11.8 13.2 12.1 12.2 12.9 11.65 13.8 11.15 14.85 11.4" fill="#ffffff" fill-opacity="0.7882353" fill-rule="evenodd" stroke="none"/>
      <path d="M14.85 11.4 Q13.8 11.15 12.9 11.65 12.1 12.2 11.8 13.2 11.6 14.2 12.1 15.1 12.65 15.9 13.65 16.2 14.65 16.4 15.55 15.9 16.4 15.3 16.6 14.35 16.85 13.3 16.25 12.45 15.8 11.6 14.85 11.4 M18.2 11.35 L20.15 11.25 18.75 12.55 Q19.05 13.8 18.8 15.05 18.5 16.35 17.65 17.3 L19.1 20.95 16.55 18.25 Q14.8 19.3 12.8 18.85 10.8 18.35 9.75 16.65 9.05 15.5 8.95 14.3 7.75 12.4 4.95 11.55 L9.7 11.4 Q10.3 10.4 11.35 9.75 13.1 8.75 15.1 9.15 16.95 9.5 18.1 11.15 L18.2 11.35" fill="#ffffff" fill-opacity="0.23529412" fill-rule="evenodd" stroke="none"/>
      <path d="M15.4 13.55 L18.1 17.55 13.35 14.65 7.05 18.5 12.75 13.55 0.0 0.0 14.25 12.25 24.45 5.95 15.4 13.55" fill="#ffffff" fill-opacity="0.7882353" fill-rule="evenodd" stroke="none"/>
    </g>
    <g id="sprite2" transform="matrix(1.0, 0.0, 0.0, 1.0, 0.0, 0.0)">
      <use height="41.75" transform="matrix(1.0, 0.0, 0.0, 1.0, 0.0, 0.0)" width="22.8" xlink:href="#shape3"/>
    </g>
    <g id="shape3" transform="matrix(1.0, 0.0, 0.0, 1.0, 0.0, 0.0)">
      <path d="M11.45 26.3 Q11.95 27.35 11.55 28.75 11.3 30.3 10.25 31.45 9.35 32.45 8.25 32.55 7.15 32.4 6.65 31.35 6.15 30.2 6.45 28.75 6.8 27.2 7.75 26.1 8.85 25.1 9.85 25.05 10.9 25.1 11.45 26.3" fill="#ffffff" fill-opacity="0.7882353" fill-rule="evenodd" stroke="none"/>
      <path d="M11.45 26.3 Q10.9 25.1 9.85 25.05 8.85 25.1 7.75 26.1 6.8 27.2 6.45 28.75 6.15 30.2 6.65 31.35 7.15 32.4 8.25 32.55 9.35 32.45 10.25 31.45 11.3 30.3 11.55 28.75 11.95 27.35 11.45 26.3 M13.85 28.9 L15.35 30.4 13.3 30.9 Q12.45 32.7 11.3 34.1 9.95 35.45 8.6 35.95 L6.65 41.75 7.0 36.3 Q4.9 36.2 3.85 34.0 2.8 31.75 3.45 28.8 3.9 26.8 4.8 25.2 5.5 21.85 4.2 18.5 5.85 22.35 7.75 22.15 9.0 21.4 10.3 21.4 12.35 21.55 13.5 23.65 14.5 25.6 14.0 28.6 L13.85 28.9" fill="#ffffff" fill-opacity="0.23529412" fill-rule="evenodd" stroke="none"/>
      <path d="M10.05 29.45 L8.75 36.65 7.65 29.15 0.0 28.95 8.15 27.3 10.15 0.0 10.3 26.9 22.8 27.2 10.05 29.45" fill="#ffffff" fill-opacity="0.7882353" fill-rule="evenodd" stroke="none"/>
    </g>
  </defs>
</svg>
