<?xml version="1.0" encoding="UTF-8" standalone="no"?>
<svg xmlns:xlink="http://www.w3.org/1999/xlink" height="520.0px" width="520.0px" xmlns="http://www.w3.org/2000/svg">
  <g transform="matrix(10.0, 0.0, 0.0, 10.0, 0.0, 0.0)">
    <use height="52.0" transform="matrix(1.0, 0.0, 0.0, 1.0, 0.0, 0.0)" width="52.0" xlink:href="#shape0"/>
    <use height="61.6" transform="matrix(0.3021, 0.0, 0.0, 0.325, 12.4059, 17.6451)" width="66.8" xlink:href="#sprite0"/>
    <use height="38.35" transform="matrix(1.0, 0.0, 0.0, 1.0, 3.7, 10.6)" width="37.15" xlink:href="#shape2"/>
    <use height="15.55" transform="matrix(1.0, 0.0, 0.0, 1.0, 27.6, 4.45)" width="20.65" xlink:href="#sprite1"/>
    <use height="61.6" transform="matrix(0.2246, 0.2246, -0.1785, 0.1785, 21.1845, 13.9546)" width="66.8" xlink:href="#sprite0"/>
  </g>
  <defs>
    <g id="shape0" transform="matrix(1.0, 0.0, 0.0, 1.0, 0.0, 0.0)">
      <path d="M52.0 52.0 L0.0 52.0 0.0 0.0 52.0 0.0 52.0 52.0" fill="#43adca" fill-opacity="0.0" fill-rule="evenodd" stroke="none"/>
      <path d="M44.1 5.1 L44.1 4.85 43.5 5.25 Q42.6 5.95 42.4 7.05 L41.5 7.4 40.15 8.0 40.2 8.05 Q39.8 7.7 39.3 7.5 L39.25 7.5 36.8 7.65 34.1 9.15 Q32.95 9.75 32.65 11.0 L32.7 11.05 32.6 11.95 31.2 13.5 30.85 14.05 30.55 14.0 30.5 14.05 29.7 14.1 Q28.85 14.25 28.25 14.95 L27.95 15.25 27.1 15.2 26.9 15.35 26.95 15.45 Q26.3 17.45 24.9 18.05 L22.9 17.7 19.15 10.75 15.55 19.05 Q15.0 19.3 14.5 19.65 13.85 20.1 13.35 20.6 L4.95 19.8 4.2 19.65 9.05 27.55 9.0 27.75 Q8.65 29.45 8.85 31.25 L4.25 37.3 3.85 37.95 11.7 38.45 13.6 40.25 15.7 41.65 18.45 48.8 19.0 48.25 22.85 42.85 22.9 42.85 Q25.9 42.5 28.3 40.95 L28.4 40.9 37.9 42.5 37.65 41.75 33.25 34.8 Q33.9 32.95 34.0 31.05 L40.7 25.9 32.05 23.5 31.55 22.75 Q32.0 21.5 33.5 20.6 L33.6 20.6 33.7 20.5 Q33.85 20.15 33.15 19.2 33.85 18.35 33.75 17.15 L33.65 16.55 33.9 16.25 34.9 15.1 34.8 15.05 34.75 15.0 37.15 14.85 38.0 14.5 39.9 13.45 Q40.95 12.9 41.35 11.8 L42.85 10.95 44.85 9.5 45.3 8.65 45.2 8.5 45.3 8.55 45.15 7.9 44.95 7.6 44.9 7.6 44.6 7.25 44.55 7.25 44.35 7.1 44.65 6.8 45.3 6.25 45.35 6.2 45.45 5.9 Q45.55 5.55 45.25 5.1 L44.65 4.6 Q44.4 4.55 44.15 4.85 L44.1 5.1 M45.45 9.2 L45.85 9.15 46.3 8.95 46.7 8.6 46.75 8.65 Q47.05 8.45 47.2 8.5 L47.8 9.0 Q48.15 9.45 48.1 9.85 L48.0 9.95 47.95 10.05 47.85 10.1 47.9 10.1 47.8 10.15 47.45 10.5 Q46.4 11.25 45.1 11.05 L45.1 11.0 45.0 10.95 44.3 10.75 43.9 10.5 Q45.05 9.75 45.2 9.1 L45.45 9.2 M41.1 9.1 L41.2 9.3 42.15 8.9 42.5 8.75 42.45 8.55 42.15 8.6 41.1 9.05 41.1 9.1 M38.6 9.25 L39.2 10.0 38.7 10.3 38.8 10.3 39.35 10.1 39.5 10.05 39.45 10.0 39.15 9.65 38.95 9.45 38.6 9.2 38.6 9.25 M37.2 9.6 L36.2 10.15 36.4 10.25 36.55 10.35 36.65 10.2 36.9 9.9 36.95 9.85 37.2 9.6 M29.95 15.95 L29.9 16.35 29.65 16.15 29.95 15.95 M37.65 12.55 L37.1 12.15 36.7 12.95 35.3 13.25 35.4 13.3 35.45 13.25 36.3 13.2 Q37.0 12.9 37.65 12.55 M35.25 12.4 L35.2 12.45 35.1 12.5 34.8 12.85 35.0 13.05 35.25 12.4 M33.75 14.5 L33.95 14.6 33.55 14.25 32.75 15.1 32.35 15.65 32.35 15.7 32.85 15.2 32.95 15.3 33.75 14.5 M31.8 17.85 L31.65 17.7 31.8 17.7 31.85 17.7 31.8 17.85" fill="none" stroke="#000000" stroke-linecap="round" stroke-linejoin="round" stroke-opacity="0.3019608" stroke-width="1.0"/>
      <path d="M28.3 40.95 Q25.9 42.5 22.9 42.85 17.7 43.5 13.6 40.25 9.45 37.05 8.9 31.8 8.35 27.7 10.3 24.25 10.8 23.3 11.55 22.5 12.75 20.9 14.5 19.65 12.65 27.55 16.9 33.95 20.0 40.2 28.3 40.95" fill="#473f38" fill-rule="evenodd" stroke="none"/>
      <path d="M31.5 38.0 L31.35 38.05 Q29.95 39.85 28.3 40.95 20.0 40.2 16.9 33.95 12.65 27.55 14.5 19.65 15.55 18.95 16.9 18.45 31.7 21.15 31.5 38.0" fill="#6b6255" fill-rule="evenodd" stroke="none"/>
      <path d="M16.9 18.45 Q18.3 17.9 19.95 17.7 25.1 17.15 29.25 20.3 L30.8 21.8 Q33.35 24.75 33.9 28.85 34.45 33.9 31.5 38.0 31.7 21.15 16.9 18.45" fill="#9d8b84" fill-rule="evenodd" stroke="none"/>
      <path d="M16.9 18.45 Q18.3 17.9 19.95 17.7 25.1 17.15 29.25 20.3 L30.8 21.8 Q33.35 24.75 33.9 28.85 34.45 33.9 31.5 38.0 L31.35 38.05 Q29.95 39.85 28.3 40.95 25.9 42.5 22.9 42.85 17.7 43.5 13.6 40.25 9.45 37.05 8.9 31.8 8.35 27.7 10.3 24.25 10.8 23.3 11.55 22.5 12.75 20.9 14.5 19.65 15.55 18.95 16.9 18.45 Z" fill="none" stroke="#000000" stroke-linecap="round" stroke-linejoin="round" stroke-opacity="0.3019608" stroke-width="0.30000000000000004"/>
      <path d="M24.0 25.6 Q22.4 25.2 21.5 24.05 20.55 22.9 20.95 21.6 21.15 20.45 22.5 19.95 L25.4 19.8 Q26.95 20.35 27.9 21.45 28.75 22.6 28.45 23.8 28.1 25.05 26.9 25.6 25.55 26.05 24.0 25.6" fill="#ab9d98" fill-rule="evenodd" stroke="none"/>
    </g>
    <g id="sprite0" transform="matrix(1.0, 0.0, 0.0, 1.0, 32.75, 27.4)">
      <use height="61.6" transform="matrix(1.0, 0.0, 0.0, 1.0, -32.75, -27.4)" width="66.8" xlink:href="#shape1"/>
    </g>
    <g id="shape1" transform="matrix(1.0, 0.0, 0.0, 1.0, 32.75, 27.4)">
      <path d="M31.75 -6.25 Q36.65 5.85 31.0 17.2 25.35 28.6 12.4 32.55 -0.45 36.55 -13.05 30.8 -25.6 25.1 -30.5 13.0 -35.35 0.95 -29.7 -10.4 L-29.7 -10.45 Q-24.0 -21.8 -11.15 -25.8 1.75 -29.75 14.3 -24.05 L16.85 -22.75 Q27.4 -17.05 31.75 -6.25" fill="url(#gradient0)" fill-rule="evenodd" stroke="none"/>
    </g>
    <radialGradient cx="0" cy="0" gradientTransform="matrix(0.0412, 0.0, 0.0, 0.0412, 0.6, 3.4)" gradientUnits="userSpaceOnUse" id="gradient0" r="819.2" spreadMethod="pad">
      <stop offset="0.0" stop-color="#ffffff"/>
      <stop offset="1.0" stop-color="#ffffff" stop-opacity="0.0"/>
    </radialGradient>
    <g id="shape2" transform="matrix(1.0, 0.0, 0.0, 1.0, -3.7, -10.6)">
      <path d="M19.15 19.6 Q18.75 18.7 18.6 17.65 L18.65 17.05 Q19.0 14.0 19.65 13.0 L22.65 18.6 21.6 19.05 19.15 19.6 M21.0 25.75 Q22.0 25.85 22.9 26.4 23.6 27.2 23.95 28.15 24.2 30.35 23.45 31.1 L22.95 31.15 Q20.9 31.15 18.9 30.35 L18.8 30.4 18.8 30.35 Q18.65 27.95 19.0 26.45 L21.0 25.75 M32.4 26.55 L34.3 26.35 38.65 26.55 32.4 31.0 Q31.65 29.75 30.8 27.4 L31.95 26.8 32.4 26.55" fill="#7b6b62" fill-rule="evenodd" stroke="none"/>
      <path d="M15.55 19.05 L19.15 10.75 19.5 11.35 Q18.4 14.65 18.55 17.1 L18.6 17.65 Q18.75 18.7 19.15 19.6 17.2 20.0 15.55 19.05 M9.2 27.8 L4.2 19.65 4.95 19.8 7.2 22.4 Q8.65 23.8 10.15 24.45 L11.05 24.8 12.0 25.0 Q11.2 27.0 9.2 27.8 M4.25 37.3 L6.25 37.2 Q8.4 36.9 9.95 36.05 L10.6 35.7 10.9 35.4 12.0 34.35 12.7 36.75 12.75 38.5 3.85 37.95 4.25 37.3 M23.5 32.05 Q22.5 33.3 21.0 33.55 19.2 33.75 17.95 32.75 16.7 31.75 16.55 30.2 16.3 28.45 17.65 26.35 L18.8 30.35 18.8 30.4 18.95 30.75 23.5 32.05 M15.25 40.45 L17.15 40.05 19.25 40.15 18.75 41.1 Q18.05 42.65 18.25 44.85 18.4 46.35 19.0 48.25 L18.45 48.8 15.25 40.45 M40.15 26.35 L34.35 26.05 32.4 26.55 31.95 26.8 30.8 27.4 Q30.2 25.2 30.95 23.15 L40.7 25.9 40.15 26.35 M37.65 41.75 L37.9 42.5 27.35 40.7 27.45 40.15 Q27.85 38.35 29.0 36.9 L30.05 38.25 30.35 38.55 31.05 39.15 Q33.4 40.9 37.65 41.75" fill="#473f38" fill-rule="evenodd" stroke="none"/>
      <path d="M13.25 21.5 L12.0 25.0 11.05 24.8 10.25 24.35 7.75 22.15 6.85 20.8 13.25 21.5 M9.95 36.05 Q8.2 36.8 6.7 36.7 L5.9 36.6 9.3 31.0 10.4 32.25 12.0 34.35 10.9 35.4 10.6 35.7 9.95 36.05 M18.75 41.1 L19.25 40.15 Q22.3 40.9 23.45 41.65 L19.25 46.4 Q18.65 45.85 18.55 44.65 18.4 43.25 18.75 41.1 M29.0 36.9 Q31.0 35.05 32.3 34.5 L32.5 34.35 36.25 40.75 Q33.85 40.4 31.15 38.95 L30.4 38.5 30.05 38.25 29.0 36.9" fill="#6b6255" fill-rule="evenodd" stroke="none"/>
      <path d="M18.6 17.65 L18.55 17.1 Q18.4 14.65 19.5 11.35 L23.2 18.3 22.65 18.6 19.65 13.0 Q19.0 14.0 18.65 17.05 L18.6 17.65 M4.95 19.8 L13.35 20.6 13.25 21.5 6.85 20.8 7.75 22.15 10.25 24.35 11.05 24.8 10.15 24.45 Q8.65 23.8 7.2 22.4 L4.95 19.8 M9.1 30.85 L9.3 31.0 5.9 36.6 6.7 36.7 Q8.2 36.8 9.95 36.05 8.4 36.9 6.25 37.2 L4.25 37.3 9.1 30.85 M17.65 26.35 Q18.0 26.0 18.9 25.9 L20.0 25.75 21.0 25.75 19.0 26.45 Q18.65 27.95 18.8 30.35 L17.65 26.35 M23.95 28.15 L24.15 29.15 Q24.45 30.75 23.6 31.9 L23.55 31.95 23.5 32.05 18.95 30.75 18.8 30.4 18.9 30.35 Q20.9 31.15 22.95 31.15 L23.45 31.1 Q24.2 30.35 23.95 28.15 M19.0 48.25 Q18.4 46.35 18.25 44.85 18.05 42.65 18.75 41.1 18.4 43.25 18.55 44.65 18.65 45.85 19.25 46.4 L23.45 41.65 23.6 41.75 19.0 48.25 M32.4 26.55 L34.35 26.05 40.15 26.35 32.95 31.8 32.4 31.0 38.65 26.55 34.3 26.35 32.4 26.55 M32.5 34.35 L32.9 34.25 37.65 41.75 Q33.4 40.9 31.05 39.15 L30.35 38.55 30.05 38.25 30.4 38.5 31.15 38.95 Q33.85 40.4 36.25 40.75 L32.5 34.35" fill="#b8aaa5" fill-rule="evenodd" stroke="none"/>
      <path d="M19.5 11.35 L19.15 10.75 15.55 19.05 M19.5 11.35 L23.2 18.3 M9.2 27.8 L4.2 19.65 4.95 19.8 13.35 20.6 M9.1 30.85 L4.25 37.3 M12.75 38.5 L3.85 37.95 4.25 37.3 M23.5 32.05 Q22.5 33.3 21.0 33.55 19.2 33.75 17.95 32.75 16.7 31.75 16.55 30.2 16.3 28.45 17.65 26.35 18.0 26.0 18.9 25.9 L20.0 25.75 21.0 25.75 Q22.0 25.85 22.9 26.4 23.6 27.2 23.95 28.15 L24.15 29.15 Q24.45 30.75 23.6 31.9 L23.55 31.95 23.5 32.05 M15.25 40.45 L18.45 48.8 19.0 48.25 M23.6 41.75 L19.0 48.25 M32.95 31.8 L40.15 26.35 40.7 25.9 30.95 23.15 M32.9 34.25 L37.65 41.75 37.9 42.5 27.35 40.7" fill="none" stroke="#000000" stroke-linecap="round" stroke-linejoin="round" stroke-opacity="0.3019608" stroke-width="0.30000000000000004"/>
      <path d="M27.65 17.3 L27.6 17.9 27.2 18.6 26.45 18.85 Q26.15 18.85 25.95 18.65 25.85 18.45 26.0 18.15 L26.5 17.4 Q26.8 17.2 27.15 17.15 L27.65 17.3" fill="#ffffff" fill-rule="evenodd" stroke="none"/>
      <path d="M28.6 17.6 L29.75 18.6 32.3 20.25 33.5 20.6 Q31.7 21.65 31.4 23.25 L30.05 23.05 27.6 21.4 26.4 20.4 Q27.3 20.9 28.2 19.8 29.05 18.65 28.6 17.6" fill="#473f38" fill-rule="evenodd" stroke="none"/>
      <path d="M26.95 15.45 L27.65 16.5 28.6 17.6 Q29.05 18.65 28.2 19.8 27.3 20.9 26.4 20.4 L25.4 19.3 Q24.5 18.45 24.8 18.1 26.3 17.5 26.95 15.45 M27.65 17.3 L27.15 17.15 Q26.8 17.2 26.5 17.4 L26.0 18.15 Q25.85 18.45 25.95 18.65 26.15 18.85 26.45 18.85 L27.2 18.6 27.6 17.9 27.65 17.3" fill="#6b6255" fill-rule="evenodd" stroke="none"/>
      <path d="M28.6 17.6 L27.65 16.5 26.95 15.45 26.9 15.35 27.1 15.2 Q27.3 14.95 28.45 15.45 L30.85 17.1 33.1 19.15 Q33.85 20.15 33.7 20.5 L33.6 20.6 33.5 20.6 32.3 20.25 29.75 18.6 28.6 17.6" fill="#7b6b62" fill-rule="evenodd" stroke="none"/>
      <path d="M33.5 20.6 L33.6 20.6 33.7 20.5 Q33.85 20.15 33.1 19.15 L30.85 17.1 28.45 15.45 Q27.3 14.95 27.1 15.2 L26.9 15.35 26.95 15.45 Q26.3 17.5 24.8 18.1 24.5 18.45 25.4 19.3 L26.4 20.4 27.6 21.4 30.05 23.05 31.4 23.25 Q31.7 21.65 33.5 20.6 Z" fill="none" stroke="#000000" stroke-linecap="round" stroke-linejoin="round" stroke-opacity="0.3019608" stroke-width="0.30000000000000004"/>
    </g>
    <g id="sprite1" transform="matrix(1.0, 0.0, 0.0, 1.0, 0.15, 0.15)">
      <use height="15.55" transform="matrix(1.0, 0.0, 0.0, 1.0, -0.15, -0.15)" width="20.65" xlink:href="#shape3"/>
    </g>
    <g id="shape3" transform="matrix(1.0, 0.0, 0.0, 1.0, 0.15, 0.15)">
      <path d="M7.0 10.4 L9.4 10.25 10.25 9.9 9.55 8.95 9.35 8.2 8.55 8.6 7.7 8.65 7.65 8.7 7.4 8.55 7.3 8.55 6.45 8.0 Q6.0 7.45 6.25 6.65 6.45 5.85 8.25 4.7 10.1 3.6 11.25 4.2 L12.0 4.85 12.4 4.65 13.1 4.2 Q12.5 3.3 11.55 2.9 L11.5 2.9 9.05 3.05 6.35 4.55 Q5.2 5.15 4.9 6.4 L4.95 6.45 Q4.6 7.7 5.25 8.85 5.85 10.0 7.0 10.45 L7.0 10.4" fill="#5b5b5b" fill-rule="evenodd" stroke="none"/>
      <path d="M7.0 10.4 L7.0 10.45 7.05 10.45 7.0 10.4" fill="#000000" fill-opacity="0.3019608" fill-rule="evenodd" stroke="none"/>
      <path d="M13.1 4.2 L12.4 4.65 12.0 4.85 11.25 4.2 Q10.1 3.6 8.25 4.7 6.45 5.85 6.25 6.65 6.0 7.45 6.45 8.0 L7.3 8.55 7.4 8.55 6.85 7.95 Q6.6 7.45 6.75 6.85 6.85 6.35 7.25 6.15 L10.0 4.7 10.85 4.65 10.85 4.6 11.2 4.85 11.4 5.05 11.7 5.4 Q11.95 5.95 11.8 6.4 L11.3 7.15 9.6 8.1 9.35 8.2 9.55 8.95 10.25 9.9 12.15 8.85 Q13.3 8.25 13.65 6.9 13.95 5.65 13.35 4.5 L13.1 4.2" fill="#525252" fill-rule="evenodd" stroke="none"/>
      <path d="M10.25 9.9 L9.4 10.25 7.0 10.4 7.05 10.45 7.0 10.45 Q5.85 10.0 5.25 8.85 4.6 7.7 4.95 6.45 L4.9 6.4 Q5.2 5.15 6.35 4.55 L9.05 3.05 11.5 2.9 11.55 2.9 Q12.5 3.3 13.1 4.2 M7.4 8.55 L7.65 8.7 7.7 8.65 8.55 8.6 9.35 8.2 M10.25 9.9 L12.15 8.85 Q13.3 8.25 13.65 6.9 13.95 5.65 13.35 4.5 L13.1 4.2 M11.2 4.85 L10.85 4.6 10.85 4.65 10.0 4.7 7.25 6.15 Q6.85 6.35 6.75 6.85 6.6 7.45 6.85 7.95 L7.4 8.55 M9.6 8.1 L11.3 7.15 11.8 6.4 Q11.95 5.95 11.7 5.4 L11.4 5.05" fill="none" stroke="#000000" stroke-linecap="round" stroke-linejoin="round" stroke-opacity="0.3019608" stroke-width="0.30000000000000004"/>
      <path d="M8.65 5.65 Q9.3 5.95 9.45 6.75 L9.45 6.8 9.45 7.15 9.35 7.5 9.3 7.45 8.65 7.2 8.05 7.4 7.8 7.5 7.65 7.65 7.4 7.8 7.45 7.85 7.35 7.9 6.95 8.3 5.0 10.5 4.6 11.05 4.6 11.1 4.55 11.15 4.55 11.2 4.45 11.35 4.55 11.7 4.7 11.95 5.15 12.55 4.55 12.95 4.5 12.95 4.05 13.1 3.45 13.0 3.3 12.9 Q3.0 12.6 3.05 12.0 3.05 11.3 3.4 10.5 3.8 9.65 4.95 8.0 6.0 6.5 6.75 6.05 7.4 5.6 8.65 5.65 M2.25 12.05 Q2.05 11.75 2.25 11.15 L2.25 11.6 2.25 12.05" fill="#5b5b5b" fill-rule="evenodd" stroke="none"/>
      <path d="M3.45 13.0 L3.05 12.9 3.0 12.9 2.65 12.65 2.25 12.2 2.3 12.15 2.25 12.05 2.25 11.6 2.25 11.15 Q2.55 10.15 3.45 8.9 L4.85 7.3 5.15 6.95 Q5.8 6.3 6.5 5.85 6.95 5.45 7.5 5.35 8.2 5.35 8.65 5.65 7.4 5.6 6.75 6.05 6.0 6.5 4.95 8.0 3.8 9.65 3.4 10.5 3.05 11.3 3.05 12.0 3.0 12.6 3.3 12.9 L3.45 13.0" fill="#525252" fill-rule="evenodd" stroke="none"/>
      <path d="M9.35 7.5 L9.35 7.55 8.95 8.35 7.1 8.6 7.5 7.8 7.45 7.85 7.4 7.8 7.65 7.65 7.8 7.5 8.05 7.4 8.65 7.2 9.3 7.45 9.35 7.5 M4.55 11.15 L5.1 10.8 6.0 9.9 7.15 10.5 6.15 11.65 5.4 12.3 5.15 12.55 4.7 11.95 4.55 11.7 4.45 11.35 4.55 11.2 4.55 11.15 M7.65 7.65 L7.6 7.75 7.5 7.8 7.6 7.75 7.65 7.65" fill="#484848" fill-rule="evenodd" stroke="none"/>
      <path d="M8.65 5.65 Q9.3 5.95 9.45 6.75 L9.45 6.8 9.45 7.15 9.35 7.5 9.35 7.55 8.95 8.35 7.1 8.6 7.5 7.8 7.45 7.85 7.35 7.9 6.95 8.3 5.0 10.5 4.6 11.05 4.6 11.1 4.55 11.15 5.1 10.8 6.0 9.9 7.15 10.5 6.15 11.65 5.4 12.3 5.15 12.55 4.55 12.95 4.5 12.95 4.05 13.1 3.45 13.0 3.05 12.9 3.0 12.9 2.65 12.65 2.25 12.2 2.25 12.05 2.25 11.6 2.25 11.15 Q2.55 10.15 3.45 8.9 L4.85 7.3 5.15 6.95 Q5.8 6.3 6.5 5.85 6.95 5.45 7.5 5.35 8.2 5.35 8.65 5.65 M7.5 7.8 L7.6 7.75 7.65 7.65 M4.55 11.7 L4.45 11.35 4.55 11.2 4.55 11.15" fill="none" stroke="#000000" stroke-linecap="round" stroke-linejoin="round" stroke-opacity="0.3019608" stroke-width="0.30000000000000004"/>
      <path d="M15.05 2.4 L15.85 2.35 15.9 2.35 16.35 2.4 16.8 2.65 16.85 2.65 16.85 2.7 16.9 2.85 16.75 3.8 15.85 4.95 Q15.1 5.6 13.25 6.65 11.8 7.55 10.95 7.65 10.1 7.75 9.05 7.2 8.6 6.75 8.7 5.9 L8.75 5.85 8.9 5.6 9.15 5.3 9.2 5.35 9.65 5.75 10.4 5.85 10.6 5.85 10.75 5.8 10.9 5.75 11.0 5.8 10.95 5.7 11.05 5.7 11.6 5.5 14.4 4.3 14.95 4.0 15.0 3.9 15.15 3.8 15.25 3.45 15.25 3.15 15.05 2.4 M17.55 4.05 L17.1 4.9 17.35 4.55 17.55 4.05" fill="#5b5b5b" fill-rule="evenodd" stroke="none"/>
      <path d="M9.05 7.2 Q10.1 7.75 10.95 7.65 11.8 7.55 13.25 6.65 15.1 5.6 15.85 4.95 L16.75 3.8 16.9 2.85 16.85 2.7 16.85 2.65 17.15 3.0 17.2 3.0 17.4 3.3 17.55 3.95 17.45 3.9 17.55 4.05 17.35 4.55 17.1 4.9 Q16.5 5.65 15.1 6.35 L13.2 7.35 12.75 7.55 11.05 8.0 10.0 8.0 9.05 7.2" fill="#525252" fill-rule="evenodd" stroke="none"/>
      <path d="M15.05 2.4 L15.25 3.15 15.25 3.45 15.15 3.8 15.0 3.9 14.4 4.0 13.3 4.45 12.4 3.4 13.75 2.8 14.8 2.4 15.05 2.4 M10.95 5.7 L11.0 5.8 10.9 5.75 10.75 5.8 10.6 5.85 10.4 5.85 9.65 5.75 9.2 5.35 9.15 5.3 9.2 5.25 10.15 4.5 10.55 4.3 11.45 5.4 10.95 5.7 10.9 5.75 10.85 5.75 Q10.75 5.7 10.75 5.8 10.75 5.7 10.85 5.75 L10.9 5.75 10.95 5.7" fill="#484848" fill-rule="evenodd" stroke="none"/>
      <path d="M16.85 2.65 L16.8 2.65 16.35 2.4 15.9 2.35 15.85 2.35 15.05 2.4 M15.25 3.45 L15.15 3.8 15.0 3.9 14.95 4.0 14.4 4.3 11.6 5.5 11.05 5.7 10.95 5.7 10.9 5.75 10.85 5.75 Q10.75 5.7 10.75 5.8 M9.15 5.3 L8.9 5.6 8.75 5.85 8.7 5.9 Q8.6 6.75 9.05 7.2 M16.85 2.65 L17.15 3.0 17.2 3.0 17.4 3.3 17.55 3.95 17.55 4.05 17.35 4.55 17.1 4.9 Q16.5 5.65 15.1 6.35 L13.2 7.35 12.75 7.55 11.05 8.0 10.0 8.0 9.05 7.2 M15.0 3.9 L14.4 4.0 13.3 4.45 12.4 3.4 13.75 2.8 14.8 2.4 15.05 2.4 M9.15 5.3 L9.2 5.25 10.15 4.5 10.55 4.3 11.45 5.4 10.95 5.7" fill="none" stroke="#000000" stroke-linecap="round" stroke-linejoin="round" stroke-opacity="0.3019608" stroke-width="0.30000000000000004"/>
      <path d="M16.6 1.25 L16.3 0.65 16.3 0.6 16.35 0.5 16.35 0.25 15.75 0.65 Q14.7 1.45 14.6 2.8 14.55 3.6 14.8 4.25 L15.65 3.85 Q15.1 3.3 15.55 2.4 15.8 1.8 16.6 1.25" fill="#5b5b5b" fill-rule="evenodd" stroke="none"/>
      <path d="M16.35 0.5 L16.3 0.6 16.3 0.65 16.6 1.25 16.65 1.3 Q17.0 1.65 17.35 1.65 L17.6 1.6 17.7 1.3 Q17.8 0.95 17.5 0.5 L16.9 0.0 Q16.65 -0.05 16.4 0.25 L16.35 0.5 M19.0 4.05 L18.9 4.4 Q18.9 4.75 19.2 5.15 L19.7 5.7 20.05 5.55 20.15 5.5 20.1 5.5 20.2 5.45 20.25 5.35 20.35 5.25 Q20.4 4.85 20.05 4.4 L19.45 3.9 Q19.3 3.85 19.0 4.05" fill="#424242" fill-rule="evenodd" stroke="none"/>
      <path d="M16.6 1.25 Q15.8 1.8 15.55 2.4 15.1 3.3 15.65 3.85 16.45 3.4 16.45 3.0 L16.55 2.95 Q16.45 2.4 16.9 2.2 L17.55 1.65 17.6 1.6 17.35 1.65 Q17.0 1.65 16.65 1.3 L16.6 1.25 M19.0 4.05 L18.95 4.0 18.55 4.35 18.1 4.55 17.7 4.6 17.45 4.5 Q17.3 5.15 16.15 5.9 L16.55 6.15 17.25 6.35 17.35 6.4 17.35 6.45 Q18.65 6.65 19.7 5.9 L20.05 5.55 19.7 5.7 19.2 5.15 Q18.9 4.75 18.9 4.4 L19.0 4.05" fill="#525252" fill-rule="evenodd" stroke="none"/>
      <path d="M15.65 3.85 L14.8 4.25 Q14.55 3.6 14.6 2.8 14.7 1.45 15.75 0.65 L16.35 0.25 M16.4 0.25 Q16.65 -0.05 16.9 0.0 L17.5 0.5 Q17.8 0.95 17.7 1.3 L17.6 1.6 17.55 1.65 16.9 2.2 Q16.45 2.4 16.55 2.95 L16.45 3.0 Q16.45 3.4 15.65 3.85 M20.05 5.55 L19.7 5.9 Q18.65 6.65 17.35 6.45 L17.35 6.4 17.25 6.35 16.55 6.15 16.15 5.9 Q17.3 5.15 17.45 4.5 L17.7 4.6 18.1 4.55 18.55 4.35 18.95 4.0 19.0 4.05 M20.15 5.5 L20.1 5.5 20.2 5.45 20.25 5.35 20.35 5.25 Q20.4 4.85 20.05 4.4 L19.45 3.9 Q19.3 3.85 19.0 4.05" fill="none" stroke="#000000" stroke-linecap="round" stroke-linejoin="round" stroke-opacity="0.3019608" stroke-width="0.30000000000000004"/>
      <path d="M4.1 12.45 L4.1 12.7 4.15 12.75 3.85 13.5 3.3 14.15 Q3.15 14.4 3.6 14.85 4.0 15.25 4.35 15.25 L4.8 15.25 5.2 14.8 Q6.1 13.9 6.0 12.55 L5.85 11.85 5.7 11.45 5.4 11.4 5.05 11.5 4.35 12.0 4.1 12.45 M1.95 9.5 Q1.1 9.65 0.5 10.35 L0.05 10.8 0.0 11.05 Q0.3 12.1 1.3 12.15 L1.8 11.6 1.9 11.55 Q1.4 10.55 1.95 9.5" fill="#5b5b5b" fill-rule="evenodd" stroke="none"/>
      <path d="M5.7 11.45 L5.1 10.6 Q4.3 11.35 4.05 11.8 L4.0 12.1 4.1 12.45 4.35 12.0 5.05 11.5 5.4 11.4 5.7 11.45 M1.9 11.55 L2.35 11.3 2.4 11.1 Q2.55 10.35 3.25 9.5 L2.8 9.4 2.75 9.45 1.95 9.5 Q1.4 10.55 1.9 11.55" fill="#525252" fill-rule="evenodd" stroke="none"/>
      <path d="M4.1 12.45 L4.1 12.7 4.15 12.75 3.85 13.5 3.3 14.15 Q3.15 14.4 3.6 14.85 4.0 15.25 4.35 15.25 L4.8 15.25 5.2 14.8 Q6.1 13.9 6.0 12.55 L5.85 11.85 5.7 11.45 5.1 10.6 Q4.3 11.35 4.05 11.8 L4.0 12.1 4.1 12.45 M1.95 9.5 Q1.1 9.65 0.5 10.35 L0.05 10.8 0.0 11.05 Q0.3 12.1 1.3 12.15 L1.8 11.6 1.9 11.55 2.35 11.3 2.4 11.1 Q2.55 10.35 3.25 9.5 L2.8 9.4 2.75 9.4 2.75 9.45 1.95 9.5" fill="none" stroke="#000000" stroke-linecap="round" stroke-linejoin="round" stroke-opacity="0.3019608" stroke-width="0.30000000000000004"/>
      <path d="M4.8 14.3 L5.05 13.0 Q5.4 12.45 4.85 11.9" fill="none" stroke="#656565" stroke-linecap="round" stroke-linejoin="round" stroke-width="0.30000000000000004"/>
      <path d="M15.85 1.25 L15.35 1.75 Q14.9 2.35 15.05 2.95" fill="none" stroke="#656565" stroke-linecap="round" stroke-linejoin="round" stroke-width="0.30000000000000004"/>
      <path d="M19.0 5.7 Q18.2 6.25 17.5 6.0" fill="none" stroke="#656565" stroke-linecap="round" stroke-linejoin="round" stroke-width="0.30000000000000004"/>
      <path d="M9.55 6.2 Q9.4 6.6 10.1 6.65 11.05 6.9 12.95 5.95" fill="none" stroke="#656565" stroke-linecap="round" stroke-linejoin="round" stroke-width="0.30000000000000004"/>
      <path d="M13.95 5.4 L14.35 5.15" fill="none" stroke="#656565" stroke-linecap="round" stroke-linejoin="round" stroke-width="0.30000000000000004"/>
      <path d="M11.6 3.75 Q11.2 3.45 10.6 3.45 9.25 3.3 7.9 4.3" fill="none" stroke="#656565" stroke-linecap="round" stroke-linejoin="round" stroke-width="0.30000000000000004"/>
      <path d="M7.1 4.8 L6.7 5.05" fill="none" stroke="#656565" stroke-linecap="round" stroke-linejoin="round" stroke-width="0.30000000000000004"/>
      <path d="M6.85 9.75 L7.65 9.9 Q8.6 9.85 9.45 9.15" fill="none" stroke="#656565" stroke-linecap="round" stroke-linejoin="round" stroke-width="0.30000000000000004"/>
      <path d="M7.85 6.6 Q7.35 6.55 6.75 6.85 5.55 7.4 4.9 8.95" fill="none" stroke="#656565" stroke-linecap="round" stroke-linejoin="round" stroke-width="0.30000000000000004"/>
      <path d="M4.45 9.8 L4.2 10.2" fill="none" stroke="#656565" stroke-linecap="round" stroke-linejoin="round" stroke-width="0.30000000000000004"/>
    </g>
  </defs>
</svg>
