<?xml version="1.0" encoding="UTF-8" standalone="no"?>
<svg xmlns:xlink="http://www.w3.org/1999/xlink" height="440.0px" width="440.0px" xmlns="http://www.w3.org/2000/svg">
  <g transform="matrix(10.0, 0.0, 0.0, 10.0, 0.0, 0.0)">
    <use height="44.0" transform="matrix(0.9091, 0.0, 0.0, 0.9091, 2.0, 2.0)" width="44.0" xlink:href="#sprite0"/>
  </g>
  <defs>
    <g id="sprite0" transform="matrix(1.0, 0.0, 0.0, 1.0, 0.0, 0.0)">
      <use height="44.0" transform="matrix(1.0, 0.0, 0.0, 1.0, 0.0, 0.0)" width="44.0" xlink:href="#shape0"/>
      <use height="20.25" transform="matrix(1.5966, 0.0, 0.0, 1.5957, 2.3315, 5.85)" width="24.2" xlink:href="#sprite1"/>
    </g>
    <g id="shape0" transform="matrix(1.0, 0.0, 0.0, 1.0, 0.0, 0.0)">
      <path d="M44.0 44.0 L0.0 44.0 0.0 0.0 44.0 0.0 44.0 44.0" fill="#43adca" fill-opacity="0.0" fill-rule="evenodd" stroke="none"/>
    </g>
    <g id="sprite1" transform="matrix(1.0, 0.0, 0.0, 1.0, 0.45, 0.0)">
      <use height="20.25" transform="matrix(1.0, 0.0, 0.0, 1.0, -0.45, 0.0)" width="24.2" xlink:href="#sprite2"/>
    </g>
    <g id="sprite2" transform="matrix(1.0, 0.0, 0.0, 1.0, 14.05, 25.9)">
      <use height="14.1" transform="matrix(1.0, 0.0, 0.0, 1.0, -14.05, -19.75)" width="22.35" xlink:href="#shape1"/>
      <use height="18.85" transform="matrix(0.3345, 0.0267, -0.037, 0.3541, -0.1889, -15.478)" width="26.35" xlink:href="#shape2"/>
      <use height="16.8" transform="matrix(1.0, 0.0, 0.0, 1.0, -6.55, -25.9)" width="16.7" xlink:href="#shape3"/>
    </g>
    <g id="shape1" transform="matrix(1.0, 0.0, 0.0, 1.0, 14.05, 19.75)">
      <path d="M-13.5 -15.2 L-13.25 -15.55 Q-13.0 -16.0 -12.3 -16.05 L-12.0 -16.1 Q-10.95 -16.0 -9.95 -15.35 L-9.15 -14.7 -9.1 -14.6 -8.45 -12.45 -8.75 -12.45 Q-11.2 -12.65 -12.6 -14.1 L-13.5 -15.2" fill="#a1803e" fill-rule="evenodd" stroke="none"/>
      <path d="M-8.45 -12.45 L-8.3 -11.25 -9.3 -11.15 -11.55 -11.8 -12.45 -12.15 Q-13.55 -13.3 -13.6 -14.05 L-13.5 -15.2 -12.6 -14.1 Q-11.2 -12.65 -8.75 -12.45 L-8.45 -12.45" fill="#806133" fill-rule="evenodd" stroke="none"/>
      <path d="M-9.25 -15.4 L-9.8 -14.65 M-11.7 -11.4 L-11.45 -12.2 M-10.8 -11.05 L-10.55 -11.95 M-9.9 -10.75 L-9.6 -11.65 M-8.95 -10.7 L-9.05 -11.65 M-8.0 -12.55 L-8.9 -12.35 M-8.2 -13.5 L-9.1 -13.2 M-8.55 -14.45 L-9.4 -14.1 M-11.95 -16.55 L-12.05 -15.65 M-10.85 -16.25 L-11.2 -15.45 M-10.0 -15.9 L-10.45 -15.1 M-12.35 -16.5 L-12.25 -15.6 M-7.85 -11.6 L-8.75 -11.5 M-13.6 -12.85 L-12.9 -13.4 M-14.05 -14.0 L-13.15 -14.1 M-13.9 -15.25 L-13.05 -14.9 M-13.5 -15.95 L-12.75 -15.4 M-13.0 -12.05 L-12.25 -12.6" fill="none" stroke="#655027" stroke-linecap="round" stroke-linejoin="round" stroke-width="0.05"/>
      <path d="M4.65 -16.9 L5.15 -16.5 7.0 -14.25 Q8.05 -12.95 8.3 -11.4 L8.3 -11.0 7.6 -10.45 5.8 -13.55 4.45 -12.65 4.35 -12.6 4.35 -12.55 2.85 -15.55 2.9 -15.6 Q3.4 -16.5 4.25 -16.9 L4.65 -16.9" fill="#a1803e" fill-rule="evenodd" stroke="none"/>
      <path d="M4.35 -12.55 L4.35 -12.6 4.45 -12.65 5.8 -13.55 7.6 -10.45 6.35 -9.65 Q6.15 -9.45 5.6 -10.15 L4.3 -12.65 4.35 -12.55" fill="url(#gradient0)" fill-rule="evenodd" stroke="none"/>
      <path d="M7.6 -10.45 L8.3 -11.0 8.3 -11.4 Q8.05 -12.95 7.0 -14.25 L5.15 -16.5 4.65 -16.9 M2.85 -15.55 L4.35 -12.55 M7.6 -10.45 L6.35 -9.65 Q6.15 -9.45 5.6 -10.15 L4.3 -12.65" fill="none" stroke="#655027" stroke-linecap="round" stroke-linejoin="round" stroke-width="0.05"/>
      <path d="M-5.0 -8.1 L-5.65 -8.05 -6.35 -8.1 Q-8.6 -8.35 -9.55 -10.25 L-10.0 -12.0 -9.95 -12.9 -9.95 -13.15 -9.85 -13.2 -9.5 -13.45 Q-8.85 -13.85 -7.95 -13.85 -6.25 -13.85 -5.55 -12.35 -5.0 -11.15 -5.3 -9.7 -5.45 -9.2 -5.2 -8.6 L-5.0 -8.1 M-4.7 -19.25 L-1.65 -19.7 Q0.65 -19.5 1.6 -17.55 2.15 -16.4 2.25 -14.7 L-0.15 -13.0 -1.35 -11.95 Q-1.85 -13.1 -2.9 -14.25 -4.9 -16.45 -4.9 -17.95 L-4.7 -19.25" fill="#a1803e" fill-rule="evenodd" stroke="none"/>
      <path d="M-0.15 -13.0 L-1.5 -10.9 -3.35 -8.95 Q-3.85 -8.2 -5.0 -8.1 L-5.2 -8.6 Q-5.45 -9.2 -5.3 -9.7 -5.0 -11.15 -5.55 -12.35 -6.25 -13.85 -7.95 -13.85 -8.85 -13.85 -9.5 -13.45 L-9.85 -13.2 -9.95 -13.15 -9.55 -14.55 -9.15 -15.25 Q-8.15 -17.15 -6.2 -18.45 -5.5 -18.95 -4.7 -19.25 L-4.9 -17.95 Q-4.9 -16.45 -2.9 -14.25 -1.85 -13.1 -1.35 -11.95 L-0.15 -13.0" fill="#806133" fill-rule="evenodd" stroke="none"/>
      <path d="M-0.15 -13.0 L-1.5 -10.9 -3.35 -8.95 Q-3.85 -8.2 -5.0 -8.1 L-5.65 -8.05 -6.35 -8.1 Q-8.6 -8.35 -9.55 -10.25 L-10.0 -12.0 -9.95 -12.9 -9.95 -13.15 -9.55 -14.55 -9.15 -15.25 Q-8.15 -17.15 -6.2 -18.45 -5.5 -18.95 -4.7 -19.25 L-1.65 -19.7 Q0.65 -19.5 1.6 -17.55 2.15 -16.4 2.25 -14.7 L-0.15 -13.0 Z" fill="none" stroke="#000000" stroke-linecap="round" stroke-linejoin="round" stroke-opacity="0.4509804" stroke-width="0.05"/>
      <path d="M-4.7 -13.2 L-4.65 -13.25 Q-4.35 -14.2 -3.65 -14.75 L-3.25 -14.85 -2.65 -14.55 Q-1.45 -13.8 -0.4 -12.75 0.85 -11.7 1.45 -10.25 L1.55 -9.8 1.0 -9.2 -1.4 -11.8 -2.55 -10.65 -2.65 -10.6 -2.65 -10.55 -4.7 -13.2" fill="#a1803e" fill-rule="evenodd" stroke="none"/>
      <path d="M-2.65 -10.55 L-2.65 -10.6 -2.55 -10.65 -1.4 -11.8 1.0 -9.2 -0.1 -8.1 Q-0.2 -7.9 -0.9 -8.45 L-2.65 -10.6 -2.65 -10.55" fill="url(#gradient1)" fill-rule="evenodd" stroke="none"/>
      <path d="M-4.7 -13.2 L-2.65 -10.55 M1.0 -9.2 L1.55 -9.8 1.45 -10.25 Q0.85 -11.7 -0.4 -12.75 -1.45 -13.8 -2.65 -14.55 L-3.25 -14.85 M-2.65 -10.6 L-0.9 -8.45 Q-0.2 -7.9 -0.1 -8.1 L1.0 -9.2" fill="none" stroke="#655027" stroke-linecap="round" stroke-linejoin="round" stroke-width="0.05"/>
      <path d="M-8.4 -16.8 L-6.15 -17.2 Q-5.95 -17.4 -6.95 -17.6 L-4.05 -18.1 -5.0 -17.25 -4.35 -16.0 Q-5.35 -16.8 -8.4 -16.8" fill="#806133" fill-rule="evenodd" stroke="none"/>
      <path d="M-5.0 -13.15 L-2.65 -15.35 -2.75 -14.15 -2.25 -13.45 -5.0 -13.15" fill="#806133" fill-rule="evenodd" stroke="none"/>
      <path d="M-4.85 -14.3 L-6.85 -14.55 Q-5.5 -15.2 -4.0 -15.3 L-4.85 -14.3" fill="#806133" fill-rule="evenodd" stroke="none"/>
      <path d="M4.9 -14.05 Q4.55 -13.35 4.8 -13.1 L4.45 -13.5 4.15 -13.6 4.9 -14.05" fill="#8b6e35" fill-rule="evenodd" stroke="none"/>
      <path d="M-6.4 -13.05 Q-5.35 -11.25 -4.75 -9.65 -4.0 -8.4 -3.85 -7.0 L-3.85 -6.65 -4.6 -6.15 -6.35 -9.05 -7.95 -8.15 -9.75 -10.85 -9.3 -11.1 Q-8.6 -11.85 -7.7 -12.2 -7.5 -12.15 -6.4 -13.05" fill="#a1803e" fill-rule="evenodd" stroke="none"/>
      <path d="M-7.95 -8.15 L-6.35 -9.05 -4.6 -6.15 -5.65 -5.8 Q-6.15 -5.45 -6.55 -6.05 L-7.95 -8.15" fill="url(#gradient2)" fill-rule="evenodd" stroke="none"/>
      <path d="M-4.6 -6.15 L-3.85 -6.65 -3.85 -7.0 Q-4.0 -8.4 -4.75 -9.65 -5.35 -11.25 -6.4 -13.05 M-9.75 -10.85 L-7.95 -8.15 M-4.6 -6.15 L-5.65 -5.8 Q-6.15 -5.45 -6.55 -6.05 L-7.95 -8.15" fill="none" stroke="#655027" stroke-linecap="round" stroke-linejoin="round" stroke-width="0.05"/>
    </g>
    <linearGradient gradientTransform="matrix(-0.001, -0.0018, -0.0017, 0.0011, 6.55, -11.9)" gradientUnits="userSpaceOnUse" id="gradient0" spreadMethod="pad" x1="-819.2" x2="819.2">
      <stop offset="0.0" stop-color="#c29d67"/>
      <stop offset="0.9882352941176471" stop-color="#a1803e"/>
    </linearGradient>
    <linearGradient gradientTransform="matrix(-0.0014, -0.0015, -0.0014, 0.0014, -0.35, -10.3)" gradientUnits="userSpaceOnUse" id="gradient1" spreadMethod="pad" x1="-819.2" x2="819.2">
      <stop offset="0.0" stop-color="#c29d67"/>
      <stop offset="0.9882352941176471" stop-color="#a1803e"/>
    </linearGradient>
    <linearGradient gradientTransform="matrix(-9.0E-4, -0.0017, -0.002, 0.001, -5.75, -7.45)" gradientUnits="userSpaceOnUse" id="gradient2" spreadMethod="pad" x1="-819.2" x2="819.2">
      <stop offset="0.0" stop-color="#c29d67"/>
      <stop offset="0.9882352941176471" stop-color="#a1803e"/>
    </linearGradient>
    <g id="shape2" transform="matrix(1.0, 0.0, 0.0, 1.0, 8.15, 3.7)">
      <path d="M6.45 0.75 L8.75 3.65 8.7 3.65 9.0 3.95 9.35 4.35 10.0 5.05 7.95 4.8 6.65 4.85 6.15 5.3 3.95 5.4 -0.5 2.55 Q-3.5 0.6 -4.65 0.2 L2.4 -2.3 6.45 0.75" fill="#b0482d" fill-rule="evenodd" stroke="none"/>
      <path d="M10.0 5.05 L11.15 6.45 Q12.3 8.1 12.6 9.15 10.85 8.65 7.35 7.05 L5.7 6.35 5.6 6.45 3.95 5.4 6.15 5.3 6.65 4.85 7.95 4.8 10.0 5.05" fill="#eb613d" fill-rule="evenodd" stroke="none"/>
      <path d="M12.6 9.15 Q12.3 8.1 11.15 6.45 L10.0 5.05 9.35 4.35 9.0 3.95 8.7 3.65 8.75 3.65 6.45 0.75 9.9 3.3 10.5 3.2 16.45 6.45 Q14.85 8.3 12.6 9.15" fill="#843621" fill-rule="evenodd" stroke="none"/>
      <path d="M16.45 6.45 L10.5 3.2 M9.9 3.3 L6.45 0.75 2.4 -2.3 -4.65 0.2" fill="none" stroke="#000000" stroke-linecap="round" stroke-linejoin="round" stroke-opacity="0.4509804" stroke-width="0.05"/>
      <path d="M6.45 0.75 L8.75 3.65 M8.7 3.65 L9.0 3.95 9.35 4.35 10.0 5.05 M6.45 0.75 L2.1 -3.7" fill="none" stroke="#000000" stroke-linecap="round" stroke-linejoin="round" stroke-opacity="0.3019608" stroke-width="0.05"/>
      <path d="M12.3 10.4 L11.25 5.75 Q10.25 6.6 9.9 7.6 9.5 8.7 9.5 9.8 L12.3 10.4" fill="#f0e2a8" fill-rule="evenodd" stroke="none"/>
      <path d="M12.3 10.4 L9.5 9.8 Q9.5 8.7 9.9 7.6 10.25 6.6 11.25 5.75 L12.3 10.4 Z" fill="none" stroke="#000000" stroke-linecap="round" stroke-linejoin="round" stroke-opacity="0.4509804" stroke-width="0.05"/>
      <path d="M10.1 7.3 Q9.95 7.85 9.95 8.3 9.95 8.7 10.2 8.75 L10.65 8.5 11.1 7.6 11.2 6.65 Q11.2 6.25 11.0 6.2 10.75 6.15 10.5 6.45 L10.1 7.3" fill="#ffffd2" fill-rule="evenodd" stroke="none"/>
      <path d="M17.45 6.9 Q17.8 7.5 18.15 9.6 18.45 11.7 15.95 12.75 L14.15 13.65 13.7 13.2 13.35 13.05 Q12.5 12.3 12.65 11.75 11.95 11.9 11.85 11.4 11.75 10.9 14.6 8.2 14.85 8.25 17.45 6.9" fill="#a1803e" fill-rule="evenodd" stroke="none"/>
      <path d="M8.3 10.65 L6.55 9.7 Q-3.05 4.8 -8.15 3.9 L-5.85 1.55 -5.3 0.7 Q-2.9 0.0 -0.5 1.75 L8.5 8.5 6.95 8.65 8.3 10.65" fill="#78602e" fill-rule="evenodd" stroke="none"/>
      <path d="M14.6 8.2 Q11.75 10.9 11.85 11.4 11.95 11.9 12.65 11.75 12.5 12.3 13.35 13.05 L8.3 10.65 6.95 8.65 8.5 8.5 -0.5 1.75 Q1.95 2.75 5.2 4.7 8.15 7.7 14.6 8.2" fill="#8b6e35" fill-rule="evenodd" stroke="none"/>
      <path d="M17.45 6.9 Q14.85 8.25 14.6 8.2 M-5.85 1.55 L-5.3 0.7 Q-2.9 0.0 -0.5 1.75 1.95 2.75 5.2 4.7 8.15 7.7 14.6 8.2" fill="none" stroke="#000000" stroke-linecap="round" stroke-linejoin="round" stroke-opacity="0.3019608" stroke-width="0.05"/>
      <path d="M13.35 13.05 L13.7 13.2 14.15 13.65 15.95 12.75 Q18.45 11.7 18.15 9.6 17.8 7.5 17.45 6.9 M13.35 13.05 L8.3 10.65 6.55 9.7 Q-3.05 4.8 -8.15 3.9 L-5.85 1.55" fill="none" stroke="#000000" stroke-linecap="round" stroke-linejoin="round" stroke-opacity="0.4509804" stroke-width="0.05"/>
      <path d="M13.05 12.8 L12.65 12.85 Q12.4 13.85 12.45 15.0 L13.3 15.15 Q12.9 14.0 13.05 12.8" fill="#a1803e" fill-rule="evenodd" stroke="none"/>
      <path d="M12.65 12.85 Q12.4 13.85 12.45 15.0 L13.3 15.15 Q12.9 14.0 13.05 12.8" fill="none" stroke="#000000" stroke-linecap="round" stroke-linejoin="round" stroke-opacity="0.3019608" stroke-width="0.05"/>
      <path d="M13.1 12.75 L12.95 12.85 Q13.0 13.35 13.35 13.85 L13.85 13.8 13.1 12.75" fill="#a1803e" fill-rule="evenodd" stroke="none"/>
      <path d="M12.95 12.85 Q13.0 13.35 13.35 13.85 L13.85 13.8 13.1 12.75" fill="none" stroke="#000000" stroke-linecap="round" stroke-linejoin="round" stroke-opacity="0.3019608" stroke-width="0.05"/>
    </g>
    <g id="shape3" transform="matrix(1.0, 0.0, 0.0, 1.0, 6.55, 25.9)">
      <path d="M7.55 -23.9 L7.6 -23.95 8.15 -24.15 7.7 -22.65 7.1 -21.2 6.8 -20.55 6.25 -19.55 6.3 -19.45 6.25 -19.5 6.1 -19.4 6.1 -19.35 Q5.85 -19.1 4.35 -19.85 L5.55 -20.6 5.3 -19.9 5.25 -19.65 5.8 -20.0 5.9 -19.9 6.1 -19.6 6.1 -19.7 6.6 -20.6 7.5 -22.65 7.5 -22.75 7.0 -22.4 6.15 -21.7 6.05 -21.6 4.75 -20.75 Q5.0 -21.5 6.1 -22.65 L5.35 -22.45 7.55 -23.9" fill="#a1803e" fill-rule="evenodd" stroke="none"/>
      <path d="M4.35 -19.85 L4.35 -19.9 5.4 -21.0 6.05 -21.6 6.15 -21.7 7.0 -22.4 7.5 -22.75 Q6.15 -20.45 5.3 -19.9 L5.55 -20.6 4.35 -19.85" fill="#a4603f" fill-rule="evenodd" stroke="none"/>
      <path d="M4.35 -19.9 L3.25 -20.55 3.6 -21.0 4.7 -22.25 5.05 -22.45 5.75 -22.95 6.55 -23.4 7.55 -23.9 5.35 -22.45 6.1 -22.65 Q5.0 -21.5 4.75 -20.75 L6.05 -21.6 5.4 -21.0 4.35 -19.9" fill="#685227" fill-rule="evenodd" stroke="none"/>
      <path d="M7.5 -22.75 L7.5 -22.65 6.6 -20.6 6.1 -19.7 6.1 -19.6 5.9 -19.9 5.8 -20.0 5.25 -19.65 5.3 -19.9 Q6.15 -20.45 7.5 -22.75" fill="#693c27" fill-rule="evenodd" stroke="none"/>
      <path d="M7.55 -23.9 L7.6 -23.95 8.15 -24.15 7.7 -22.65 7.1 -21.2 6.8 -20.55 6.25 -19.55 6.3 -19.45 6.25 -19.5 6.1 -19.4 M4.35 -19.85 L4.35 -19.9 M3.25 -20.55 L3.6 -21.0 4.7 -22.25 5.05 -22.45 5.75 -22.95 6.55 -23.4 7.55 -23.9 M6.05 -21.6 L6.15 -21.7 7.0 -22.4 7.5 -22.75 M7.5 -22.65 L6.6 -20.6 6.1 -19.7 6.1 -19.6 5.9 -19.9 5.8 -20.0 5.25 -19.65 5.3 -19.9 5.55 -20.6 4.35 -19.85 M6.05 -21.6 L5.4 -21.0 4.35 -19.9" fill="none" stroke="#000000" stroke-linecap="round" stroke-linejoin="round" stroke-opacity="0.4509804" stroke-width="0.05"/>
      <path d="M1.0 -20.2 L2.4 -21.4 3.05 -20.7 3.0 -21.25 3.75 -20.95 4.9 -20.25 5.4 -20.5 5.3 -19.95 5.95 -19.85 5.7 -19.4 6.5 -18.65 7.05 -18.0 7.25 -16.55 5.8 -16.25 2.4 -17.4 1.55 -17.3 1.9 -16.1 1.5 -14.5 2.6 -14.4 Q3.9 -13.6 5.05 -12.95 6.25 -12.3 5.15 -14.1 L5.8 -14.45 6.05 -14.4 6.1 -14.45 6.35 -14.45 6.55 -14.55 7.15 -14.55 7.25 -14.45 7.45 -14.3 8.5 -13.5 9.8 -12.6 10.1 -12.1 10.15 -11.4 10.05 -10.6 9.65 -10.75 9.55 -10.65 9.55 -10.7 7.75 -10.4 7.4 -10.9 7.25 -10.15 Q8.4 -9.7 8.6 -9.35 L7.6 -9.1 6.95 -9.2 6.15 -9.8 4.85 -10.85 Q3.85 -11.8 2.1 -12.35 L1.1 -10.85 1.1 -11.85 Q-0.05 -10.65 -0.15 -10.0 -0.9 -10.7 -1.0 -11.45 -2.2 -11.3 -3.85 -11.45 -3.35 -12.15 -3.45 -12.6 L-5.4 -13.1 -3.3 -14.6 Q-4.0 -15.2 -6.55 -15.55 -4.8 -17.5 -3.0 -18.35 L-5.1 -20.35 Q-3.5 -20.6 -1.55 -20.3 L-2.25 -22.15 1.0 -20.2 M9.75 -10.65 L9.65 -10.75 9.8 -10.65 10.05 -10.6 9.9 -10.6 10.05 -10.6 9.9 -10.55 9.75 -10.65 9.8 -10.65 9.9 -10.6 9.9 -10.55 9.9 -10.6 9.8 -10.65 9.75 -10.65" fill="#a1803e" fill-rule="evenodd" stroke="none"/>
      <path d="M8.6 -9.35 Q8.4 -9.7 7.25 -10.15 L7.4 -10.9 7.75 -10.4 9.55 -10.7 9.55 -10.65 9.65 -10.75 10.05 -10.6 9.8 -10.65 9.65 -10.75 9.75 -10.65 9.9 -10.55 10.05 -10.6 9.75 -9.75 8.6 -9.35 M7.45 -14.3 L7.25 -14.45 7.15 -14.55 6.55 -14.55 6.35 -14.45 6.1 -14.45 6.05 -14.4 5.8 -14.45 5.15 -14.1 Q6.25 -12.3 5.05 -12.95 3.9 -13.6 2.6 -14.4 L1.5 -14.5 1.9 -16.1 1.55 -17.3 2.4 -17.4 5.8 -16.25 7.25 -16.55 7.2 -15.0 7.25 -14.95 7.45 -14.3 M4.1 -14.1 L2.6 -14.4 4.1 -14.1" fill="#8b6e35" fill-rule="evenodd" stroke="none"/>
      <path d="M1.0 -20.2 L-2.25 -22.15 -1.55 -20.3 Q-3.5 -20.6 -5.1 -20.35 L-3.0 -18.35 Q-4.8 -17.5 -6.55 -15.55 -4.0 -15.2 -3.3 -14.6 L-5.4 -13.1 -3.45 -12.6 Q-3.35 -12.15 -3.85 -11.45 -2.2 -11.3 -1.0 -11.45 -0.9 -10.7 -0.15 -10.0 -0.05 -10.65 1.1 -11.85 L1.1 -10.85 2.1 -12.35 Q3.85 -11.8 4.85 -10.85 L6.15 -9.8 6.95 -9.2 7.6 -9.1 8.6 -9.35 M9.55 -10.7 L9.55 -10.65 M10.05 -10.6 L10.15 -11.4 10.1 -12.1 9.8 -12.6 8.5 -13.5 7.45 -14.3 7.25 -14.45 7.15 -14.55 M7.25 -16.55 L7.05 -18.0 6.5 -18.65 5.7 -19.4 5.95 -19.85 5.3 -19.95 5.4 -20.5 4.9 -20.25 3.75 -20.95 M7.2 -15.0 L7.25 -14.95 7.45 -14.3 M9.75 -10.65 L9.8 -10.65 9.65 -10.75 M9.8 -10.65 L10.05 -10.6 9.75 -9.75 8.6 -9.35 M9.9 -10.55 L9.9 -10.6 9.8 -10.65 M10.05 -10.6 L9.9 -10.6 M9.9 -10.55 L10.05 -10.6 M9.9 -10.55 L9.75 -10.65" fill="none" stroke="#000000" stroke-linecap="round" stroke-linejoin="round" stroke-opacity="0.4509804" stroke-width="0.05"/>
      <path d="M7.25 -16.55 L7.2 -15.0" fill="none" stroke="#000000" stroke-linecap="round" stroke-linejoin="round" stroke-opacity="0.3019608" stroke-width="0.05"/>
      <path d="M2.6 -14.4 L4.1 -14.1" fill="none" stroke="#000000" stroke-linecap="round" stroke-linejoin="round" stroke-opacity="0.12156863" stroke-width="0.05"/>
      <path d="M7.9 -11.75 Q9.5 -11.65 10.0 -12.15 10.15 -11.4 9.75 -10.75 8.2 -10.5 7.9 -11.75" fill="#44505c" fill-rule="evenodd" stroke="none"/>
      <path d="M7.9 -11.75 Q8.2 -10.5 9.75 -10.75 L9.6 -10.55 9.35 -10.3 8.05 -10.2 Q8.5 -10.3 8.4 -10.45 L8.15 -10.6 7.8 -10.45 Q6.85 -11.05 7.5 -11.75 L7.9 -11.75" fill="#303841" fill-rule="evenodd" stroke="none"/>
      <path d="M9.75 -10.75 Q10.15 -11.4 10.0 -12.15 9.5 -11.65 7.9 -11.75 M9.75 -10.75 L9.6 -10.55 9.35 -10.3 8.05 -10.2 Q8.5 -10.3 8.4 -10.45 L8.15 -10.6 7.8 -10.45 Q6.85 -11.05 7.5 -11.75 L7.9 -11.75" fill="none" stroke="#000000" stroke-linecap="round" stroke-linejoin="round" stroke-opacity="0.4509804" stroke-width="0.05"/>
      <path d="M9.1 -11.2 L9.5 -11.2 9.9 -11.35 10.05 -11.55 9.85 -11.7 9.45 -11.7 9.05 -11.55 8.95 -11.4 9.1 -11.2" fill="#7893ad" fill-rule="evenodd" stroke="none"/>
      <path d="M0.7 -15.85 L1.55 -16.1 2.45 -18.1 3.7 -15.95 4.25 -16.7 Q4.9 -15.45 4.8 -15.0 4.05 -14.4 5.3 -13.6 L2.4 -13.8 0.6 -14.0 1.1 -14.75 0.2 -15.4 1.05 -15.6 0.7 -15.85" fill="#8b6e35" fill-rule="evenodd" stroke="none"/>
      <path d="M-0.55 -18.0 Q-1.4 -18.45 -2.2 -19.75 L-2.3 -18.7 -5.0 -20.45 Q-1.75 -20.7 -0.85 -20.0 L-2.1 -22.05 Q-0.55 -21.45 0.9 -20.55 L0.55 -18.0 -0.55 -18.0" fill="#806133" fill-rule="evenodd" stroke="none"/>
      <path d="M1.0 -18.25 L0.15 -17.7 -0.75 -17.8 -1.9 -17.45 -1.2 -18.15 -0.65 -19.8 1.0 -18.25" fill="#685227" fill-rule="evenodd" stroke="none"/>
      <path d="M0.8 -20.45 L0.8 -20.6 0.8 -20.85 Q0.45 -20.0 -0.35 -19.4 L0.05 -21.25 Q0.5 -22.8 1.25 -24.3 1.7 -23.4 2.0 -21.05 L1.25 -20.25 0.8 -20.45" fill="#d97f53" fill-rule="evenodd" stroke="none"/>
      <path d="M2.3 -20.25 Q2.4 -20.15 2.55 -20.1 L2.3 -20.0 2.05 -19.6 0.1 -19.25 0.8 -20.45 1.1 -19.7 1.75 -20.55 2.05 -20.25 2.15 -20.2 2.3 -20.25 M2.6 -20.2 Q2.35 -23.15 1.55 -25.1 L1.5 -25.2 1.25 -25.05 1.35 -25.7 1.4 -25.8 1.5 -25.9 1.5 -25.75 1.65 -25.55 Q2.4 -23.8 2.55 -22.2 L2.8 -20.45 2.6 -20.2" fill="#a1803e" fill-rule="evenodd" stroke="none"/>
      <path d="M0.8 -20.45 L1.25 -20.25 2.0 -21.05 Q1.7 -23.4 1.25 -24.3 L1.5 -24.75 Q2.25 -22.9 2.3 -20.3 L2.3 -20.25 2.15 -20.2 2.05 -20.25 1.75 -20.55 1.1 -19.7 0.8 -20.45" fill="#a4603f" fill-rule="evenodd" stroke="none"/>
      <path d="M0.8 -20.6 L0.8 -20.45 0.1 -19.25 -0.15 -19.25 Q-0.6 -18.75 -0.8 -18.9 -1.0 -19.35 -1.35 -19.45 -0.5 -22.7 1.0 -25.2 L1.35 -25.7 1.25 -25.05 1.5 -25.2 1.55 -25.1 Q2.35 -23.15 2.6 -20.2 L2.55 -20.1 Q2.4 -20.15 2.3 -20.25 L2.3 -20.3 Q2.25 -22.9 1.5 -24.75 L1.25 -24.3 Q0.5 -22.8 0.05 -21.25 L-0.35 -19.4 Q0.45 -20.0 0.8 -20.85 L0.8 -20.6" fill="#685227" fill-rule="evenodd" stroke="none"/>
      <path d="M1.25 -24.3 Q0.5 -22.8 0.05 -21.25 L-0.35 -19.4 Q0.45 -20.0 0.8 -20.85 L0.8 -20.6 M1.25 -24.3 L1.5 -24.75 Q2.25 -22.9 2.3 -20.3 L2.3 -20.25 2.15 -20.2 M1.35 -25.7 L1.0 -25.2 Q-0.5 -22.7 -1.35 -19.45 M2.05 -20.25 L1.75 -20.55 1.1 -19.7 0.8 -20.45 M1.35 -25.7 L1.4 -25.8 1.5 -25.9 1.5 -25.75 1.65 -25.55 Q2.4 -23.8 2.55 -22.2 L2.8 -20.45" fill="none" stroke="#000000" stroke-linecap="round" stroke-linejoin="round" stroke-opacity="0.4509804" stroke-width="0.05"/>
      <path d="M0.8 -20.5 Q0.75 -21.45 1.0 -22.5 0.95 -20.95 1.15 -20.25 1.1 -19.85 0.8 -20.5" fill="#a4603f" fill-rule="evenodd" stroke="none"/>
      <path d="M4.65 -16.95 L4.95 -18.0 5.4 -17.9 Q5.45 -17.8 5.55 -17.85 L5.4 -17.75 Q5.05 -17.4 4.95 -16.85 L4.85 -16.45 Q4.85 -15.65 5.3 -15.15 5.7 -14.75 6.45 -14.75 L6.35 -14.7 Q5.55 -14.45 4.95 -15.35 4.5 -16.05 4.65 -16.95" fill="#856821" fill-rule="evenodd" stroke="none"/>
      <path d="M5.2 -15.45 Q4.85 -16.05 4.95 -16.8 5.0 -17.55 5.55 -18.0 6.05 -18.45 6.7 -18.4 L7.75 -17.75 Q8.15 -17.15 8.1 -16.4 8.0 -15.65 7.4 -15.2 6.9 -14.7 6.25 -14.8 5.6 -14.85 5.2 -15.45" fill="#f0e2a8" fill-rule="evenodd" stroke="none"/>
      <path d="M5.2 -15.45 Q4.85 -16.05 4.95 -16.8 5.0 -17.55 5.55 -18.0 6.05 -18.45 6.7 -18.4 L7.75 -17.75 Q8.15 -17.15 8.1 -16.4 8.0 -15.65 7.4 -15.2 6.9 -14.7 6.25 -14.8 5.6 -14.85 5.2 -15.45 Z" fill="none" stroke="#000000" stroke-linecap="round" stroke-linejoin="round" stroke-opacity="0.4509804" stroke-width="0.05"/>
      <path d="M6.6 -16.8 L6.85 -16.05 7.3 -15.85 Q7.5 -15.9 7.7 -16.1 L7.75 -16.9 7.55 -17.45 7.15 -17.85 6.8 -17.4 6.6 -16.8 M7.5 -17.3 L7.4 -17.1 7.25 -17.2 7.15 -17.35 7.3 -17.65 7.5 -17.3 M7.25 -16.3 L7.4 -16.2 7.3 -15.95 7.15 -16.1 7.25 -16.3" fill="#000000" fill-rule="evenodd" stroke="none"/>
      <path d="M7.25 -16.3 L7.15 -16.1 7.3 -15.95 7.4 -16.2 7.25 -16.3 M7.5 -17.3 L7.3 -17.65 7.15 -17.35 7.25 -17.2 7.4 -17.1 7.5 -17.3" fill="#ffffff" fill-rule="evenodd" stroke="none"/>
      <path d="M5.45 -15.8 L5.35 -15.55 5.15 -15.8 5.05 -16.3 5.15 -16.85 5.35 -17.0 5.45 -16.85 5.4 -16.3 5.45 -15.8" fill="#fbf7ea" fill-rule="evenodd" stroke="none"/>
      <path d="M5.85 -15.05 L5.7 -14.95 5.65 -15.0 5.6 -15.1 5.65 -15.25 5.75 -15.3 5.85 -15.3 5.95 -15.15 5.85 -15.05" fill="#fbf7ea" fill-rule="evenodd" stroke="none"/>
      <path d="M3.7 -14.1 L3.6 -14.05 Q2.5 -13.9 1.7 -14.9 1.15 -15.75 1.3 -16.9 L1.65 -18.1 2.3 -17.9 2.5 -17.9 2.3 -17.8 Q1.85 -17.3 1.75 -16.7 L1.6 -16.15 Q1.6 -15.3 2.2 -14.75 2.8 -14.1 3.7 -14.1" fill="#856821" fill-rule="evenodd" stroke="none"/>
      <path d="M2.0 -15.0 Q1.45 -15.7 1.6 -16.65 1.7 -17.55 2.4 -18.1 3.05 -18.65 3.9 -18.55 4.75 -18.45 5.3 -17.75 5.85 -17.0 5.75 -16.1 5.6 -15.15 4.9 -14.65 4.2 -14.0 3.35 -14.1 2.5 -14.2 2.0 -15.0" fill="#f0e2a8" fill-rule="evenodd" stroke="none"/>
      <path d="M2.0 -15.0 Q1.45 -15.7 1.6 -16.65 1.7 -17.55 2.4 -18.1 3.05 -18.65 3.9 -18.55 4.75 -18.45 5.3 -17.75 5.85 -17.0 5.75 -16.1 5.6 -15.15 4.9 -14.65 4.2 -14.0 3.35 -14.1 2.5 -14.2 2.0 -15.0 Z" fill="none" stroke="#000000" stroke-linecap="round" stroke-linejoin="round" stroke-opacity="0.4509804" stroke-width="0.05"/>
      <path d="M4.6 -17.3 L4.5 -17.55 Q4.2 -17.55 4.15 -17.15 L4.3 -16.95 4.55 -17.0 4.6 -17.3 M4.1 -17.4 Q4.3 -17.8 4.7 -17.8 L5.2 -17.35 5.45 -16.6 5.15 -15.65 4.65 -15.5 4.05 -15.7 Q3.8 -16.15 3.85 -16.7 3.85 -17.1 4.1 -17.4 M4.75 -15.7 L4.65 -16.0 4.4 -15.75 Q4.4 -15.6 4.55 -15.6 4.75 -15.55 4.75 -15.7" fill="#000000" fill-rule="evenodd" stroke="none"/>
      <path d="M4.6 -17.3 L4.55 -17.0 4.3 -16.95 4.15 -17.15 Q4.2 -17.55 4.5 -17.55 L4.6 -17.3 M4.75 -15.7 Q4.75 -15.55 4.55 -15.6 4.4 -15.6 4.4 -15.75 L4.65 -16.0 4.75 -15.7" fill="#ffffff" fill-rule="evenodd" stroke="none"/>
      <path d="M2.45 -15.45 L2.3 -15.2 2.1 -15.45 Q1.95 -15.75 1.95 -16.1 1.95 -16.5 2.1 -16.7 L2.3 -16.95 2.45 -16.7 2.45 -16.05 2.45 -15.45" fill="#fbf7ea" fill-rule="evenodd" stroke="none"/>
      <path d="M3.0 -14.55 L2.85 -14.5 2.7 -14.55 2.65 -14.7 2.7 -14.85 2.85 -14.9 3.0 -14.85 3.05 -14.7 3.0 -14.55" fill="#fbf7ea" fill-rule="evenodd" stroke="none"/>
      <path d="M7.1 -15.85 L7.05 -15.95 7.05 -16.15 7.05 -16.35 7.15 -16.45 7.2 -16.35 7.25 -16.15 7.2 -15.95 7.1 -15.85" fill="#fbf7ea" fill-rule="evenodd" stroke="none"/>
    </g>
  </defs>
</svg>
