<?xml version="1.0" encoding="UTF-8" standalone="no"?>
<svg xmlns:xlink="http://www.w3.org/1999/xlink" height="440.0px" width="440.0px" xmlns="http://www.w3.org/2000/svg">
  <g transform="matrix(10.0, 0.0, 0.0, 10.0, 0.0, 0.0)">
    <use height="44.0" transform="matrix(0.9091, 0.0, 0.0, 0.9091, 2.0, 2.0)" width="44.0" xlink:href="#sprite0"/>
  </g>
  <defs>
    <g id="sprite0" transform="matrix(1.0, 0.0, 0.0, 1.0, 0.0, 0.0)">
      <use height="44.0" transform="matrix(1.0, 0.0, 0.0, 1.0, 0.0, 0.0)" width="44.0" xlink:href="#shape0"/>
      <use height="14.65" transform="matrix(1.52, 0.0, 0.0, 1.52, 3.05, 10.9)" width="25.0" xlink:href="#sprite1"/>
    </g>
    <g id="shape0" transform="matrix(1.0, 0.0, 0.0, 1.0, 0.0, 0.0)">
      <path d="M44.0 44.0 L0.0 44.0 0.0 0.0 44.0 0.0 44.0 44.0" fill="#43adca" fill-opacity="0.0" fill-rule="evenodd" stroke="none"/>
    </g>
    <g id="sprite1" transform="matrix(1.0, 0.0, 0.0, 1.0, 0.0, 0.0)">
      <use height="14.65" transform="matrix(1.0, 0.0, 0.0, 1.0, 0.0, 0.0)" width="25.0" xlink:href="#sprite2"/>
    </g>
    <g id="sprite2" transform="matrix(1.0, 0.0, 0.0, 1.0, 11.35, 18.3)">
      <use height="14.65" transform="matrix(1.0, 0.0, 0.0, 1.0, -11.35, -18.3)" width="25.0" xlink:href="#shape1"/>
    </g>
    <g id="shape1" transform="matrix(1.0, 0.0, 0.0, 1.0, 11.35, 18.3)">
      <path d="M0.5 -17.15 L1.95 -16.3 0.5 -17.15 M1.65 -18.2 L1.35 -18.25 Q5.65 -17.8 10.3 -13.1 L11.3 -12.05 10.7 -11.5 Q7.55 -16.1 3.4 -17.05 3.0 -16.25 3.95 -15.1 L7.6 -11.3 4.45 -11.1 Q-0.9 -11.1 -3.3 -14.1 L-2.35 -15.65 Q-0.5 -17.95 1.65 -18.2 M3.4 -14.45 L4.85 -11.85 4.45 -11.1 4.85 -11.85 3.4 -14.45 M-0.4 -18.1 Q-2.55 -17.3 -4.7 -15.05 L-6.0 -14.95 -3.35 -16.85 Q-1.8 -17.8 -0.4 -18.1 M-5.2 -9.15 Q-0.4 -8.05 4.85 -8.2 L5.6 -8.2 5.8 -7.95 5.6 -8.2 10.2 -8.65 12.85 -5.4 9.5 -4.35 8.95 -4.7 7.95 -5.3 7.5 -6.9 7.4 -7.35 5.8 -7.95 5.6 -8.0 4.4 -6.75 4.1 -6.65 2.25 -6.25 1.65 -5.5 1.55 -5.35 0.95 -4.65 -0.4 -4.25 -0.75 -4.15 -2.5 -3.65 -4.3 -4.9 -5.95 -6.1 -5.2 -9.15 M11.95 -9.15 L12.8 -9.9 13.65 -8.2 12.85 -5.4 Q12.5 -7.95 11.95 -9.15 M4.1 -6.65 L4.85 -8.2 4.1 -6.65 M-10.65 -7.5 L-10.95 -7.45 -11.35 -7.4 -11.0 -8.45 Q-10.4 -9.9 -9.45 -11.2 L-9.05 -10.7 -10.2 -8.35 -10.65 -7.5 M-11.0 -8.45 L-10.2 -8.35 -11.0 -8.45 M-3.7 -5.25 L-4.3 -4.9 -3.7 -5.25 -2.35 -6.1 -3.7 -5.25 -0.75 -4.15 -3.7 -5.25" fill="#f8ebcf" fill-rule="evenodd" stroke="none"/>
      <path d="M7.6 -11.3 L3.95 -15.1 Q3.0 -16.25 3.4 -17.05 7.55 -16.1 10.7 -11.5 L7.6 -11.3 M12.85 -5.4 L10.2 -8.65 11.95 -9.15 Q12.5 -7.95 12.85 -5.4" fill="#ffffff" fill-rule="evenodd" stroke="none"/>
      <path d="M1.35 -18.25 L1.65 -18.2 Q-0.5 -17.95 -2.35 -15.65 L-3.3 -14.1 Q-3.95 -14.85 -4.7 -15.05 -2.55 -17.3 -0.4 -18.1 L1.35 -18.25 M-5.95 -6.1 L-7.85 -8.05 -10.65 -7.5 -10.2 -8.35 -9.05 -10.7 Q-7.95 -9.6 -5.2 -9.15 L-5.95 -6.1 M-10.2 -8.35 L-7.85 -8.05 -10.2 -8.35" fill="#c8ac80" fill-rule="evenodd" stroke="none"/>
      <path d="M-3.3 -14.1 Q-0.9 -11.1 4.45 -11.1 L4.0 -10.2 5.15 -8.8 4.85 -8.2 5.15 -8.8 4.0 -10.2 4.45 -11.1 7.6 -11.3 10.2 -8.65 5.6 -8.2 4.85 -8.2 Q-0.4 -8.05 -5.2 -9.15 L-3.3 -14.1 M10.7 -11.5 L11.3 -12.05 12.8 -9.9 11.95 -9.15 10.7 -11.5 M5.15 -8.8 L5.6 -8.2 5.15 -8.8 M-9.45 -11.2 L-7.55 -13.55 -6.65 -14.4 -6.0 -14.95 -4.7 -15.05 Q-6.4 -13.85 -9.05 -10.7 L-9.45 -11.2" fill="#d3bd98" fill-rule="evenodd" stroke="none"/>
      <path d="M4.1 -6.65 L4.4 -6.75 5.6 -8.0 5.8 -7.95 7.4 -7.35 7.5 -6.9 5.9 -7.3 5.15 -6.5 1.65 -5.5 2.25 -6.25 4.1 -6.65" fill="#716044" fill-rule="evenodd" stroke="none"/>
      <path d="M7.5 -6.9 L7.95 -5.3 8.95 -4.7 8.55 -4.45 5.7 -6.05 1.55 -5.35 1.65 -5.5 5.15 -6.5 5.9 -7.3 7.5 -6.9" fill="#b5a379" fill-rule="evenodd" stroke="none"/>
      <path d="M7.6 -11.3 L10.7 -11.5 11.95 -9.15 10.2 -8.65 7.6 -11.3" fill="#ede3d3" fill-rule="evenodd" stroke="none"/>
      <path d="M-4.7 -15.05 Q-3.95 -14.85 -3.3 -14.1 L-5.2 -9.15 Q-7.95 -9.6 -9.05 -10.7 -6.4 -13.85 -4.7 -15.05" fill="#bb9168" fill-rule="evenodd" stroke="none"/>
      <path d="M1.35 -18.25 L1.65 -18.2 M11.3 -12.05 L10.3 -13.1 Q5.65 -17.8 1.35 -18.25 L-0.4 -18.1 M12.8 -9.9 L11.3 -12.05 M4.1 -6.65 L4.4 -6.75 5.6 -8.0 5.8 -7.95 7.4 -7.35 7.5 -6.9 7.95 -5.3 8.95 -4.7 9.5 -4.35 12.85 -5.4 M4.1 -6.65 L2.25 -6.25 1.65 -5.5 1.55 -5.35 5.7 -6.05 8.55 -4.45 8.95 -4.7 M1.55 -5.35 L0.95 -4.65 -0.4 -4.25 M-0.75 -4.15 L-2.5 -3.65 -4.3 -4.9 -5.95 -6.1 -7.85 -8.05 -10.65 -7.5 M-10.95 -7.45 L-11.35 -7.4 -11.0 -8.45 Q-10.4 -9.9 -9.45 -11.2 L-7.55 -13.55 -6.65 -14.4 -6.0 -14.95 -3.35 -16.85 Q-1.8 -17.8 -0.4 -18.1 M12.8 -9.9 L13.65 -8.2 12.85 -5.4" fill="none" stroke="#000000" stroke-linecap="round" stroke-linejoin="round" stroke-opacity="0.3019608" stroke-width="0.05"/>
      <path d="M1.95 -16.3 L0.5 -17.15 M4.45 -11.1 L4.85 -11.85 3.4 -14.45 M4.85 -8.2 L5.15 -8.8 4.0 -10.2 4.45 -11.1 M5.8 -7.95 L5.6 -8.2 5.15 -8.8 M4.85 -8.2 L4.1 -6.65 M-0.4 -4.25 L-0.75 -4.15 M-10.2 -8.35 L-11.0 -8.45 M-2.35 -6.1 L-3.7 -5.25 -0.75 -4.15 M-4.3 -4.9 L-3.7 -5.25 M-7.85 -8.05 L-10.2 -8.35" fill="none" stroke="#000000" stroke-linecap="round" stroke-linejoin="round" stroke-opacity="0.2" stroke-width="0.05"/>
    </g>
  </defs>
</svg>
