<?xml version="1.0" encoding="UTF-8" standalone="no"?>
<svg xmlns:xlink="http://www.w3.org/1999/xlink" height="520.0px" width="520.0px" xmlns="http://www.w3.org/2000/svg">
  <g transform="matrix(10.0, 0.0, 0.0, 10.0, 0.0, 0.0)">
    <use height="52.0" transform="matrix(1.0, 0.0, 0.0, 1.0, 0.0, 0.0)" width="52.0" xlink:href="#shape0"/>
    <use height="45.45" transform="matrix(0.6428, 0.0, 0.0, 0.2826, 14.1726, 15.2324)" width="49.25" xlink:href="#sprite0"/>
  </g>
  <defs>
    <g id="shape0" transform="matrix(1.0, 0.0, 0.0, 1.0, 0.0, 0.0)">
      <path d="M52.0 52.0 L0.0 52.0 0.0 0.0 52.0 0.0 52.0 52.0" fill="#43adca" fill-opacity="0.0" fill-rule="evenodd" stroke="none"/>
      <path d="M47.45 18.35 Q43.1 15.55 36.5 14.85 32.5 14.4 27.55 14.75 L23.55 15.15 Q22.35 15.5 21.15 16.15 L20.05 16.7 18.95 17.15 Q18.6 17.25 18.4 17.45 L18.05 17.55 18.05 17.6 17.7 17.7 Q15.7 18.75 13.9 20.05 L13.35 20.3 11.3 21.95 Q6.75 25.75 4.15 30.6 L4.05 31.05 4.0 31.25 Q3.65 32.1 4.25 32.75 L4.25 32.8 5.75 34.2 7.05 33.7 7.85 35.05 Q10.3 35.35 12.7 34.95 16.8 35.15 21.0 34.75 L22.45 34.45 22.55 34.3 23.0 33.45 24.6 34.2 24.95 34.05 26.15 33.75 26.3 33.7 Q27.3 31.55 27.5 30.35 L27.8 31.2 27.85 31.15 28.6 33.1 31.5 32.45 32.95 31.9 33.6 30.75 33.85 31.55 36.05 30.75 Q39.6 29.3 43.0 27.3 L45.8 25.35 46.05 24.0 46.8 24.65 47.4 24.3 47.05 22.7 48.25 22.7 48.4 22.65 Q49.05 21.05 48.45 19.95 L48.4 20.0 48.35 19.9 48.3 19.55 47.75 18.65 47.45 18.35 Z" fill="none" stroke="#000000" stroke-linecap="round" stroke-linejoin="round" stroke-opacity="0.3019608" stroke-width="1.5"/>
      <path d="M11.3 21.95 L13.35 20.3 13.9 20.05 Q15.7 18.75 17.7 17.7 L18.05 17.55 18.05 17.6 17.95 17.65 Q15.9 19.45 15.3 21.0 L14.85 21.2 14.6 21.45 12.2 21.9 11.3 21.95 M12.45 23.25 L13.55 23.05 13.7 23.15 14.15 23.55 13.8 24.1 13.05 24.7 12.0 24.8 11.55 24.8 11.45 24.6 Q11.3 24.15 11.6 23.75 L12.45 23.25" fill="#5c2a04" fill-rule="evenodd" stroke="none"/>
      <path d="M18.25 25.1 L19.65 25.75 21.15 26.25 21.25 26.2 21.3 26.25 22.35 26.5 23.5 26.75 25.1 26.95 24.2 28.35 22.9 29.1 21.05 29.6 17.65 29.4 Q16.15 28.85 15.95 27.95 L15.9 27.35 Q16.0 26.65 17.0 25.95 L18.25 25.1 M9.2 28.35 L9.35 28.3 10.0 28.05 10.95 28.05 12.55 28.5 12.6 28.6 Q13.2 29.05 13.2 29.55 L13.05 29.85 12.45 30.4 11.9 30.55 10.75 30.6 10.2 30.6 9.2 30.15 Q8.65 29.65 8.65 29.2 8.65 28.8 8.8 28.7 L9.2 28.35" fill="#592803" fill-rule="evenodd" stroke="none"/>
      <path d="M48.3 20.75 L48.4 20.0 48.45 19.95 Q49.05 21.05 48.4 22.65 L48.25 22.7 47.7 21.35 47.7 21.3 48.3 20.75 M47.05 22.7 L47.4 24.3 46.8 24.65 46.05 24.0 45.8 25.35 43.0 27.3 Q39.6 29.3 36.05 30.75 L33.85 31.55 33.6 30.75 32.95 31.9 31.5 32.45 28.6 33.1 27.85 31.15 Q32.6 30.05 35.85 28.4 44.65 24.75 46.15 23.2 L46.75 22.7 47.05 22.7 M25.35 31.7 L25.5 31.7 25.3 31.8 25.35 31.7" fill="#a68b68" fill-rule="evenodd" stroke="none"/>
      <path d="M23.25 16.55 L23.3 16.5 23.35 16.55 23.25 16.55" fill="#5c3614" fill-rule="evenodd" stroke="none"/>
      <path d="M47.4 18.4 L47.45 18.35 47.75 18.65 47.4 18.4" fill="#ffffff" fill-rule="evenodd" stroke="none"/>
      <path d="M46.15 23.2 Q44.65 24.75 35.85 28.4 32.6 30.05 27.85 31.15 L27.5 30.35 26.65 28.2 25.35 31.7 25.3 31.8 22.6 32.35 22.45 32.3 22.9 29.4 21.15 32.5 12.35 33.55 10.7 33.8 9.75 33.65 6.75 33.25 7.8 31.7 4.9 33.05 4.25 32.8 Q6.15 27.9 12.2 21.9 L14.6 21.45 14.85 21.2 15.3 21.0 15.3 22.2 Q15.35 23.05 16.15 23.65 16.8 24.45 18.25 25.1 L17.0 25.95 Q16.0 26.65 15.9 27.35 L15.95 27.95 Q16.15 28.85 17.65 29.4 L21.05 29.6 22.9 29.1 24.2 28.35 25.1 26.95 26.55 26.85 Q31.4 27.0 37.95 25.55 L39.45 25.05 46.15 23.2 M12.45 23.25 L11.6 23.75 Q11.3 24.15 11.45 24.6 L11.55 24.8 12.0 24.8 13.05 24.7 13.8 24.1 14.15 23.55 13.7 23.15 13.55 23.05 12.45 23.25 M8.8 28.7 Q8.65 28.8 8.65 29.2 8.65 29.65 9.2 30.15 L10.2 30.6 10.75 30.6 11.9 30.55 12.45 30.4 13.05 29.85 13.2 29.55 Q13.2 29.05 12.6 28.6 L12.55 28.5 10.95 28.05 10.0 28.05 9.35 28.3 9.2 28.35 8.8 28.7" fill="#7b3902" fill-rule="evenodd" stroke="none"/>
      <path d="M36.5 14.85 L35.95 15.45 Q44.5 17.7 48.3 20.75 L47.7 21.3 47.7 21.35 47.55 21.5 45.0 20.85 46.95 22.2 46.95 22.5 46.75 22.7 46.15 23.2 39.45 25.05 37.95 25.55 Q31.4 27.0 26.55 26.85 L25.1 26.95 25.2 26.3 Q25.05 25.65 24.4 25.2 L24.25 25.25 Q24.0 24.95 23.5 24.75 L21.05 24.45 20.1 24.55 20.05 24.6 18.25 25.1 Q16.8 24.45 16.15 23.65 15.35 23.05 15.3 22.2 L15.3 21.0 Q16.55 20.3 17.3 19.6 18.45 18.6 18.2 17.75 L18.1 17.7 18.05 17.6 18.4 17.45 Q18.6 17.25 18.95 17.15 L20.05 16.7 21.15 16.15 25.85 15.4 27.0 15.4 27.05 15.6 27.5 16.25 Q27.8 16.55 28.55 16.7 30.05 16.95 31.95 16.65 L32.9 16.55 35.4 15.8 35.95 15.45 27.0 15.4 27.55 14.75 Q32.5 14.4 36.5 14.85 M4.25 32.8 L4.25 32.75 Q3.65 32.1 4.0 31.25 L4.05 31.05 4.15 30.6 Q6.75 25.75 11.3 21.95 L12.2 21.9 Q6.15 27.9 4.25 32.8 M23.25 16.55 L23.15 16.85 Q23.4 17.1 23.6 17.05 L24.2 17.0 24.75 16.6 24.8 16.3 24.75 16.2 Q24.8 16.05 24.5 16.0 L23.85 16.2 23.3 16.5 23.25 16.55 M22.8 22.05 L24.35 21.6 26.45 20.35 26.55 20.3 Q27.2 19.4 26.8 18.65 26.65 17.95 25.45 17.95 24.3 17.8 22.9 18.4 21.6 18.85 20.8 19.65 L20.7 19.7 Q20.0 20.55 20.3 21.3 L20.35 21.45 Q20.75 22.0 21.85 22.1 L22.8 22.05 M36.3 16.6 Q35.9 16.75 35.85 17.05 L35.9 17.1 36.25 17.6 36.45 17.6 Q36.75 17.85 37.2 17.9 L37.85 17.9 38.1 17.9 38.3 17.8 38.7 17.45 38.2 16.85 Q37.95 16.6 37.4 16.5 L36.3 16.6 M33.4 24.1 L34.25 24.4 35.6 24.25 Q35.85 24.15 36.2 24.0 L36.5 23.9 38.15 22.7 38.4 22.25 Q38.75 21.7 38.4 21.35 L37.9 20.7 37.2 20.55 36.0 20.75 34.95 21.0 Q33.85 21.45 33.3 22.2 L33.2 22.8 Q32.85 23.3 33.05 23.8 L33.1 23.85 33.4 24.1" fill="#b55303" fill-rule="evenodd" stroke="none"/>
      <path d="M36.3 16.6 L37.4 16.5 Q37.95 16.6 38.2 16.85 L38.7 17.45 38.3 17.8 38.1 17.9 37.85 17.9 37.2 17.9 Q36.75 17.85 36.45 17.6 L36.25 17.6 35.9 17.1 35.85 17.05 Q35.9 16.75 36.3 16.6" fill="#8a4106" fill-rule="evenodd" stroke="none"/>
      <path d="M22.8 22.05 L21.85 22.1 Q20.75 22.0 20.35 21.45 L20.3 21.3 Q20.0 20.55 20.7 19.7 L20.8 19.65 Q21.6 18.85 22.9 18.4 24.3 17.8 25.45 17.95 26.65 17.95 26.8 18.65 27.2 19.4 26.55 20.3 L26.45 20.35 24.35 21.6 22.8 22.05 M17.95 17.65 L18.1 17.7 18.2 17.75 Q18.45 18.6 17.3 19.6 16.55 20.3 15.3 21.0 15.9 19.45 17.95 17.65 M18.25 25.1 L20.05 24.6 20.1 24.55 21.05 24.45 23.5 24.75 Q24.0 24.95 24.25 25.25 L24.4 25.2 Q25.05 25.65 25.2 26.3 L25.1 26.95 23.5 26.75 22.35 26.5 21.3 26.25 21.25 26.2 21.15 26.25 19.65 25.75 18.25 25.1" fill="#7f3a06" fill-rule="evenodd" stroke="none"/>
      <path d="M23.1 33.5 L23.0 33.45 22.55 34.3 21.15 32.5 22.9 29.4 22.45 32.3 22.6 32.35 23.1 33.5" fill="#60513c" fill-rule="evenodd" stroke="none"/>
      <path d="M22.55 34.3 L22.45 34.45 21.0 34.75 Q16.8 35.15 12.7 34.95 10.3 35.35 7.85 35.05 L7.05 33.7 6.75 33.25 9.75 33.65 9.0 33.8 Q10.25 35.05 12.35 33.55 L21.15 32.5 22.55 34.3" fill="#77644a" fill-rule="evenodd" stroke="none"/>
      <path d="M26.15 33.75 L24.95 34.05 24.6 34.2 23.1 33.5 22.6 32.35 25.3 31.8 25.5 31.7 26.15 33.75" fill="#8e7e66" fill-rule="evenodd" stroke="none"/>
      <path d="M33.4 24.1 L33.1 23.85 33.05 23.8 Q32.85 23.3 33.2 22.8 L33.3 22.2 Q33.85 21.45 34.95 21.0 L36.0 20.75 37.2 20.55 37.9 20.7 38.4 21.35 Q38.75 21.7 38.4 22.25 L38.15 22.7 36.5 23.9 36.2 24.0 Q35.85 24.15 35.6 24.25 L34.25 24.4 33.4 24.1" fill="#e06804" fill-rule="evenodd" stroke="none"/>
      <path d="M47.45 18.35 L47.4 18.4 47.75 18.65 48.3 19.55 48.35 19.9 48.4 20.0 48.3 20.75 Q44.5 17.7 35.95 15.45 L36.5 14.85 Q43.1 15.55 47.45 18.35 M18.05 17.55 L18.4 17.45 18.05 17.6 18.05 17.55 M21.15 16.15 Q22.35 15.5 23.55 15.15 L27.55 14.75 27.0 15.4 25.85 15.4 21.15 16.15 M46.95 22.2 L47.25 22.4 46.95 22.5 46.95 22.2" fill="url(#gradient0)" fill-rule="evenodd" stroke="none"/>
      <path d="M35.95 15.45 L35.4 15.8 32.9 16.55 31.95 16.65 Q30.05 16.95 28.55 16.7 27.8 16.55 27.5 16.25 L27.05 15.6 27.0 15.4 35.95 15.45 M23.3 16.5 L23.85 16.2 24.5 16.0 Q24.8 16.05 24.75 16.2 L24.8 16.3 24.75 16.6 24.2 17.0 23.6 17.05 Q23.4 17.1 23.15 16.85 L23.25 16.55 23.35 16.55 23.3 16.5 M17.95 17.65 L18.05 17.6 18.1 17.7 17.95 17.65" fill="url(#gradient1)" fill-rule="evenodd" stroke="none"/>
      <path d="M27.5 30.35 Q27.3 31.55 26.3 33.7 L26.15 33.75 25.5 31.7 25.35 31.7 26.65 28.2 27.5 30.35 M7.05 33.7 L5.75 34.2 4.25 32.8 4.9 33.05 7.8 31.7 6.75 33.25 7.05 33.7 M46.95 22.5 L47.05 22.7 46.75 22.7 46.95 22.5 M9.75 33.65 L10.7 33.8 12.35 33.55 Q10.25 35.05 9.0 33.8 L9.75 33.65" fill="url(#gradient2)" fill-rule="evenodd" stroke="none"/>
      <path d="M27.85 31.15 L27.8 31.2 27.5 30.35 27.85 31.15" fill="url(#gradient3)" fill-rule="evenodd" stroke="none"/>
      <path d="M48.25 22.7 L47.05 22.7 46.95 22.5 47.25 22.4 46.95 22.2 45.0 20.85 47.55 21.5 47.7 21.35 48.25 22.7" fill="url(#gradient4)" fill-rule="evenodd" stroke="none"/>
      <path d="M47.4 18.4 L47.75 18.65 47.45 18.35 Q43.1 15.55 36.5 14.85 M48.4 20.0 L48.35 19.9 48.3 19.55 47.75 18.65 M48.45 19.95 L48.35 19.9 M48.4 20.0 L48.45 19.95 Q49.05 21.05 48.4 22.65 L48.25 22.7 47.05 22.7 47.4 24.3 46.8 24.65 46.05 24.0 45.8 25.35 43.0 27.3 Q39.6 29.3 36.05 30.75 L33.85 31.55 33.6 30.75 32.95 31.9 31.5 32.45 28.6 33.1 27.85 31.15 27.8 31.2 27.5 30.35 Q27.3 31.55 26.3 33.7 L26.15 33.75 24.95 34.05 24.6 34.2 23.1 33.5 23.0 33.45 22.55 34.3 22.45 34.45 21.0 34.75 Q16.8 35.15 12.7 34.95 10.3 35.35 7.85 35.05 L7.05 33.7 5.75 34.2 4.25 32.8 4.25 32.75 Q3.65 32.1 4.0 31.25 L4.05 31.05 4.15 30.6 Q6.75 25.75 11.3 21.95 L13.35 20.3 M13.9 20.05 Q15.7 18.75 17.7 17.7 L18.05 17.55 18.4 17.45 Q18.6 17.25 18.95 17.15 L20.05 16.7 21.15 16.15 Q22.35 15.5 23.55 15.15 L27.55 14.75 Q32.5 14.4 36.5 14.85 M46.95 22.2 L45.0 20.85 47.55 21.5 47.7 21.35 47.7 21.3 M46.95 22.5 L47.25 22.4 46.95 22.2 46.95 22.5 47.05 22.7 46.75 22.7 46.15 23.2 M27.85 31.15 L27.5 30.35 26.65 28.2 M46.75 22.7 L46.95 22.5 M18.05 17.6 L18.4 17.45 M4.25 32.8 L4.9 33.05 M7.8 31.7 L6.75 33.25 M25.3 31.8 L25.35 31.7 M9.2 28.35 L8.8 28.7 M7.05 33.7 L6.75 33.25 M23.1 33.5 L22.6 32.35 M25.3 31.8 L25.5 31.7" fill="none" stroke="#000000" stroke-linecap="round" stroke-linejoin="round" stroke-opacity="0.3019608" stroke-width="0.5"/>
    </g>
    <linearGradient gradientTransform="matrix(-0.0056, 0.0099, 0.0038, 0.0022, 18.55, 13.3)" gradientUnits="userSpaceOnUse" id="gradient0" spreadMethod="pad" x1="-819.2" x2="819.2">
      <stop offset="0.00784313725490196" stop-color="#e06804"/>
      <stop offset="1.0" stop-color="#ad5003"/>
    </linearGradient>
    <linearGradient gradientTransform="matrix(-0.0118, 0.0089, 9.0E-4, 0.0012, 25.7, 18.1)" gradientUnits="userSpaceOnUse" id="gradient1" spreadMethod="pad" x1="-819.2" x2="819.2">
      <stop offset="0.00784313725490196" stop-color="#914507"/>
      <stop offset="1.0" stop-color="#783706"/>
    </linearGradient>
    <linearGradient gradientTransform="matrix(0.0022, 0.0051, -0.0061, 0.0025, 27.0, 28.25)" gradientUnits="userSpaceOnUse" id="gradient2" spreadMethod="pad" x1="-819.2" x2="819.2">
      <stop offset="0.0" stop-color="#7d694e"/>
      <stop offset="1.0" stop-color="#594b38"/>
    </linearGradient>
    <linearGradient gradientTransform="matrix(-0.0039, 0.0107, 0.0041, 0.0015, -0.35, 27.7)" gradientUnits="userSpaceOnUse" id="gradient3" spreadMethod="pad" x1="-819.2" x2="819.2">
      <stop offset="0.00784313725490196" stop-color="#914302"/>
      <stop offset="1.0" stop-color="#662f02"/>
    </linearGradient>
    <linearGradient gradientTransform="matrix(-0.5982, 0.2689, 0.2742, 0.5963, 201.0, -126.7)" gradientUnits="userSpaceOnUse" id="gradient4" spreadMethod="pad" x1="-819.2" x2="819.2">
      <stop offset="0.0" stop-color="#392f24"/>
      <stop offset="1.0" stop-color="#594b38"/>
    </linearGradient>
    <g id="sprite0" transform="matrix(1.0, 0.0, 0.0, 1.0, 24.0, 19.35)">
      <use height="45.45" transform="matrix(1.0, 0.0, 0.0, 1.0, -24.0, -19.35)" width="49.25" xlink:href="#shape1"/>
    </g>
    <g id="shape1" transform="matrix(1.0, 0.0, 0.0, 1.0, 24.0, 19.35)">
      <path d="M23.6 -3.7 Q27.2 5.2 23.0 13.6 18.85 22.0 9.3 24.9 -0.2 27.85 -9.45 23.65 -18.75 19.4 -22.35 10.5 -25.95 1.55 -21.8 -6.8 L-21.75 -6.85 Q-17.6 -15.2 -8.1 -18.15 1.45 -21.1 10.7 -16.85 L12.6 -15.9 Q20.35 -11.7 23.6 -3.7" fill="url(#gradient5)" fill-rule="evenodd" stroke="none"/>
    </g>
    <radialGradient cx="0" cy="0" gradientTransform="matrix(0.0304, 0.0, 0.0, 0.0304, 0.6, 3.4)" gradientUnits="userSpaceOnUse" id="gradient5" r="819.2" spreadMethod="pad">
      <stop offset="0.0" stop-color="#ffffff"/>
      <stop offset="1.0" stop-color="#ffffff" stop-opacity="0.0"/>
    </radialGradient>
  </defs>
</svg>
