<?xml version="1.0" encoding="UTF-8" standalone="no"?>
<svg xmlns:xlink="http://www.w3.org/1999/xlink" height="600.0px" width="600.0px" xmlns="http://www.w3.org/2000/svg">
  <g transform="matrix(10.0, 0.0, 0.0, 10.0, 0.0, 0.0)">
    <use height="60.0" transform="matrix(1.0, 0.0, 0.0, 1.0, 0.0, 0.0)" width="60.0" xlink:href="#sprite0"/>
  </g>
  <defs>
    <g id="sprite0" transform="matrix(1.0, 0.0, 0.0, 1.0, 0.0, 0.0)">
      <use height="60.0" transform="matrix(1.0, 0.0, 0.0, 1.0, 0.0, 0.0)" width="60.0" xlink:href="#sprite1"/>
      <use height="48.9" transform="matrix(1.0, 0.0, 0.0, 1.0, 2.7, 4.95)" width="54.25" xlink:href="#shape1"/>
      <clipPath id="clipPath0" transform="matrix(1.0, 0.0, 0.0, 1.0, 0.0, 0.0)">
        <use height="47.9" transform="matrix(1.0, 0.0, 0.0, 1.0, 3.2, 5.45)" width="53.25" xlink:href="#shape2"/>
      </clipPath>
      <g clip-path="url(#clipPath0)">
        <use height="37.7" transform="matrix(1.0, 0.0, 0.1393, 1.3581, 15.95, 1.8)" width="37.7" xlink:href="#sprite2"/>
      </g>
    </g>
    <g id="sprite1" transform="matrix(1.0, 0.0, 0.0, 1.0, 0.0, 0.0)">
      <use height="60.0" transform="matrix(1.0, 0.0, 0.0, 1.0, 0.0, 0.0)" width="60.0" xlink:href="#shape0"/>
    </g>
    <g id="shape0" transform="matrix(1.0, 0.0, 0.0, 1.0, 0.0, 0.0)">
      <path d="M60.0 0.0 L60.0 60.0 0.0 60.0 0.0 0.0 60.0 0.0" fill="#ffba2e" fill-opacity="0.0" fill-rule="evenodd" stroke="none"/>
    </g>
    <g id="shape1" transform="matrix(1.0, 0.0, 0.0, 1.0, -2.7, -4.95)">
      <path d="M30.9 43.9 Q29.45 48.5 26.2 50.9 20.0 55.3 13.2 51.8 10.4 50.5 6.8 43.4 L9.95 42.85 Q12.55 48.15 14.3 49.0 21.1 52.5 27.3 48.1 29.55 46.5 30.9 43.9" fill="#ffaf2b" fill-rule="evenodd" stroke="none"/>
      <path d="M9.95 42.85 L29.45 35.95 31.55 37.5 Q31.65 41.2 30.9 43.9 29.55 46.5 27.3 48.1 21.1 52.5 14.3 49.0 12.55 48.15 9.95 42.85" fill="#ba6008" fill-rule="evenodd" stroke="none"/>
      <path d="M9.95 42.85 L29.45 35.95 31.55 37.5 Q31.65 41.2 30.9 43.9 29.45 48.5 26.2 50.9 20.0 55.3 13.2 51.8 10.4 50.5 6.8 43.4 L9.95 42.85 Z" fill="none" stroke="#000000" stroke-linecap="round" stroke-linejoin="round" stroke-opacity="0.3019608" stroke-width="0.05"/>
      <path d="M53.55 31.75 L53.55 31.65 53.55 31.4 53.5 29.75 52.85 27.95 Q52.15 26.4 50.85 25.05 48.15 22.3 44.1 22.3 L42.3 22.55 Q42.7 21.7 43.3 21.1 44.7 20.6 46.35 20.6 50.5 20.6 53.1 23.35 54.45 24.7 55.2 26.25 55.5 27.1 56.1 27.7 56.6 28.25 56.4 28.95 L55.95 29.8 55.95 29.75 55.9 29.85 Q55.2 30.85 53.55 31.75 M55.9 31.1 Q55.45 34.1 53.5 36.35 L52.3 36.7 Q53.3 35.0 53.55 32.95 55.2 32.05 55.9 31.1" fill="url(#gradient0)" fill-rule="evenodd" stroke="none"/>
      <path d="M43.3 21.1 Q42.7 21.7 42.3 22.55 L44.1 22.3 Q48.15 22.3 50.85 25.05 52.15 26.4 52.85 27.95 L53.5 29.75 53.55 31.4 53.55 31.65 53.55 31.75 53.45 31.8 Q50.55 33.1 46.6 33.2 L42.75 32.9 Q41.1 32.5 39.75 31.8 37.7 30.85 37.1 29.5 L37.05 29.4 Q36.6 27.75 37.05 27.3 L37.6 26.55 Q38.3 24.85 39.65 23.35 41.1 22.1 42.75 21.4 L43.3 21.1 M53.5 36.35 L53.1 36.7 51.05 38.3 50.75 38.5 Q48.8 39.45 46.35 39.45 42.55 39.45 39.65 36.7 37.35 34.25 37.1 30.95 38.3 32.4 39.75 33.0 41.65 34.0 43.9 34.3 L46.6 34.45 Q50.55 34.3 53.45 33.0 L53.55 32.95 Q53.3 35.0 52.3 36.7 L53.5 36.35" fill="url(#gradient1)" fill-rule="evenodd" stroke="none"/>
      <path d="M53.55 31.75 Q55.2 30.85 55.9 29.85 L55.95 29.75 55.95 29.8 55.95 30.0 55.95 30.95 55.9 31.1 Q55.2 32.05 53.55 32.95 L53.45 33.0 Q50.55 34.3 46.6 34.45 L43.9 34.3 Q41.65 34.0 39.75 33.0 38.3 32.4 37.1 30.95 L37.05 30.7 37.05 30.0 37.05 29.5 37.05 29.4 37.1 29.5 Q37.7 30.85 39.75 31.8 41.1 32.5 42.75 32.9 L46.6 33.2 Q50.55 33.1 53.45 31.8 L53.55 31.75 M55.9 29.85 L55.95 29.8 55.9 29.85" fill="#8d4803" fill-rule="evenodd" stroke="none"/>
      <path d="M55.95 29.8 L56.4 28.95 Q56.6 28.25 56.1 27.7 55.5 27.1 55.2 26.25 54.45 24.7 53.1 23.35 50.5 20.6 46.35 20.6 44.7 20.6 43.3 21.1 L42.75 21.4 Q41.1 22.1 39.65 23.35 38.3 24.85 37.6 26.55 L37.05 27.3 Q36.6 27.75 37.05 29.4 M55.9 31.1 Q55.45 34.1 53.5 36.35 L53.1 36.7 51.05 38.3 50.75 38.5 Q48.8 39.45 46.35 39.45 42.55 39.45 39.65 36.7 37.35 34.25 37.1 30.95 L37.05 30.7 37.05 30.0 37.05 29.5 37.05 29.4 M55.95 29.8 L55.9 29.85" fill="none" stroke="#000000" stroke-linecap="round" stroke-linejoin="round" stroke-opacity="0.3019608" stroke-width="0.05"/>
      <path d="M42.5 29.6 L50.5 29.9 Q51.25 30.8 47.25 31.25 44.7 31.65 40.95 29.65 L42.5 29.6" fill="#de8810" fill-rule="evenodd" stroke="none"/>
      <path d="M17.7 20.15 Q19.35 19.45 21.15 18.9 28.5 17.05 33.3 20.0 38.1 23.3 37.75 30.5 37.5 36.1 34.6 38.05 L32.95 38.6 Q31.65 39.0 30.05 39.7 26.35 41.3 21.4 44.4 L19.85 45.25 Q14.45 47.4 10.6 45.35 5.6 42.45 5.6 36.6 5.6 30.8 10.35 25.55 13.75 22.05 17.7 20.15" fill="#11663c" fill-rule="evenodd" stroke="none"/>
      <path d="M19.85 45.25 Q13.65 48.4 9.3 45.95 4.25 43.1 4.25 37.2 4.25 31.4 9.05 26.1 12.9 22.2 17.7 20.15 13.75 22.05 10.35 25.55 5.6 30.8 5.6 36.6 5.6 42.45 10.6 45.35 14.45 47.4 19.85 45.25" fill="#157c4c" fill-rule="evenodd" stroke="none"/>
      <path d="M17.7 20.15 Q19.35 19.45 21.15 18.9 28.5 17.05 33.3 20.0 38.1 23.3 37.75 30.5 37.5 36.1 34.6 38.05 L32.95 38.6 Q31.65 39.0 30.05 39.7 26.35 41.3 21.4 44.4 L19.85 45.25 Q13.65 48.4 9.3 45.95 4.25 43.1 4.25 37.2 4.25 31.4 9.05 26.1 12.9 22.2 17.7 20.15 Z" fill="none" stroke="#000000" stroke-linecap="round" stroke-linejoin="round" stroke-opacity="0.3019608" stroke-width="0.05"/>
      <path d="M30.55 28.95 Q39.95 24.0 42.15 21.95 L43.25 20.9 43.25 19.9 Q43.25 16.8 42.85 15.2 46.9 20.2 47.6 28.2 48.2 33.95 46.65 37.2 L46.3 37.75 44.85 38.15 Q42.15 38.8 38.65 40.35 L38.1 40.6 39.5 28.05 30.55 28.95 M14.1 18.1 Q15.95 18.7 17.75 19.6 21.2 21.45 24.55 24.4 L26.2 25.8 29.2 28.95 Q12.65 29.2 13.5 19.6 L14.1 18.1 M7.15 16.6 L8.25 16.65 8.85 16.75 Q5.0 23.25 6.0 30.8 7.4 39.85 15.2 44.9 21.4 48.85 29.15 45.7 19.95 50.75 12.55 46.2 4.9 41.1 3.4 32.1 2.3 23.75 7.15 16.6" fill="url(#gradient2)" fill-rule="evenodd" stroke="none"/>
      <path d="M42.85 15.2 Q43.25 16.8 43.25 19.9 L43.25 20.9 42.15 21.95 Q39.95 24.0 30.55 28.95 L29.2 28.95 26.2 25.8 24.55 24.4 Q21.2 21.45 17.75 19.6 15.95 18.7 14.1 18.1 15.25 15.25 17.1 12.7 19.25 10.1 21.75 8.25 L22.95 7.85 Q31.9 6.7 39.0 11.5 41.15 13.15 42.85 15.2 M18.35 7.6 Q15.1 9.4 12.35 12.15 L10.4 14.35 8.85 16.75 8.25 16.65 7.15 16.6 7.85 15.55 9.85 13.45 Q13.55 9.65 18.35 7.6" fill="url(#gradient3)" fill-rule="evenodd" stroke="none"/>
      <path d="M46.3 37.75 L46.65 37.2 Q48.2 33.95 47.6 28.2 46.9 20.2 42.85 15.2 L42.5 14.1 41.45 11.65 39.35 8.8 39.25 8.75 37.9 7.45 37.75 7.4 37.35 7.2 36.95 7.05 Q39.35 7.9 41.5 9.4 48.95 14.8 50.05 26.0 50.75 33.95 47.75 36.95 L46.3 37.75" fill="url(#gradient4)" fill-rule="evenodd" stroke="none"/>
      <path d="M42.85 15.2 Q41.15 13.15 39.0 11.5 31.9 6.7 22.95 7.85 L21.75 8.25 Q23.35 6.8 25.3 5.65 31.15 4.95 36.2 6.75 L36.5 6.85 36.65 6.9 36.75 6.95 36.85 7.0 36.95 7.05 37.35 7.2 37.75 7.4 37.9 7.45 39.25 8.75 39.35 8.8 41.45 11.65 42.5 14.1 42.85 15.2" fill="url(#gradient5)" fill-rule="evenodd" stroke="none"/>
      <path d="M21.75 8.25 Q19.25 10.1 17.1 12.7 15.25 15.25 14.1 18.1 L13.5 17.9 14.0 18.0 Q10.95 16.9 8.85 16.75 L10.4 14.35 12.35 12.15 Q15.1 9.4 18.35 7.6 20.85 6.55 23.65 5.9 L25.3 5.65 Q23.35 6.8 21.75 8.25" fill="url(#gradient6)" fill-rule="evenodd" stroke="none"/>
      <path d="M30.55 28.95 L39.5 28.05 38.1 40.6 Q34.2 42.4 29.6 45.3 29.45 45.3 29.45 45.4 L29.15 45.7 Q21.4 48.85 15.2 44.9 7.4 39.85 6.0 30.8 5.0 23.25 8.85 16.75 10.95 16.9 14.0 18.0 L13.5 17.9 14.1 18.1 13.5 19.6 Q12.65 29.2 29.2 28.95 L30.55 28.95" fill="url(#gradient7)" fill-rule="evenodd" stroke="none"/>
      <path d="M38.1 40.6 L38.65 40.35 Q42.15 38.8 44.85 38.15 L46.3 37.75 47.75 36.95 Q50.75 33.95 50.05 26.0 48.95 14.8 41.5 9.4 39.35 7.9 36.95 7.05 L37.35 7.2 37.75 7.4 37.9 7.45 M36.95 7.05 L36.85 7.0 36.75 6.95 36.65 6.9 36.5 6.85 36.2 6.75 Q31.15 4.95 25.3 5.65 L23.65 5.9 Q20.85 6.55 18.35 7.6 13.55 9.65 9.85 13.45 L7.85 15.55 7.15 16.6 Q2.3 23.75 3.4 32.1 4.9 41.1 12.55 46.2 19.95 50.75 29.15 45.7 L29.45 45.4 Q29.45 45.3 29.6 45.3 34.2 42.4 38.1 40.6 Z" fill="none" stroke="#000000" stroke-linecap="round" stroke-linejoin="round" stroke-opacity="0.3019608" stroke-width="0.05"/>
      <path d="M8.1 23.25 Q10.65 23.25 13.9 27.4 17.1 31.6 18.15 37.55 19.15 43.55 16.7 44.65 14.35 45.75 11.25 43.9 9.25 42.65 6.8 39.3 L6.8 39.4 Q5.45 37.3 4.75 35.05 2.9 29.45 4.25 26.3 5.55 23.15 8.1 23.25" fill="#035043" fill-rule="evenodd" stroke="none"/>
      <path d="M24.3 40.4 L23.55 35.25 Q22.85 30.5 25.65 25.85 28.45 21.15 33.65 19.75 36.6 18.9 40.65 18.7 44.7 18.45 48.75 22.85 52.75 27.15 49.15 38.15 47.15 43.35 34.55 44.15 L31.85 43.5 28.45 42.2 24.3 40.4 M31.5 27.2 Q29.15 29.45 30.6 28.65 36.55 33.15 37.75 37.2 38.9 41.25 42.45 39.75 46.45 39.05 48.25 36.85 51.9 30.35 48.8 24.2 45.65 18.0 35.65 22.95 L31.5 27.2" fill="url(#gradient8)" fill-rule="evenodd" stroke="none"/>
      <path d="M24.3 40.4 L28.45 42.2 31.85 43.5 Q38.6 45.95 41.6 45.35 46.05 44.45 48.8 41.55 L48.65 42.25 Q45.85 45.3 41.35 46.15 36.8 47.05 24.5 41.3 L24.3 40.4" fill="url(#gradient9)" fill-rule="evenodd" stroke="none"/>
      <path d="M31.85 43.5 L34.55 44.15 Q47.15 43.35 49.15 38.15 49.3 39.95 48.9 41.5 L48.8 41.55 Q46.05 44.45 41.6 45.35 38.6 45.95 31.85 43.5" fill="#19804c" fill-rule="evenodd" stroke="none"/>
      <path d="M31.5 27.2 L35.65 22.95 Q45.65 18.0 48.8 24.2 51.9 30.35 48.25 36.85 46.45 39.05 42.45 39.75 38.9 41.25 37.75 37.2 36.55 33.15 30.6 28.65 29.15 29.45 31.5 27.2" fill="url(#gradient10)" fill-rule="evenodd" stroke="none"/>
      <path d="M49.15 38.15 Q52.75 27.15 48.75 22.85 44.7 18.45 40.65 18.7 36.6 18.9 33.65 19.75 28.45 21.15 25.65 25.85 22.85 30.5 23.55 35.25 L24.3 40.4 M49.15 38.15 Q49.3 39.95 48.9 41.5 L48.8 41.55 48.65 42.25 Q45.85 45.3 41.35 46.15 36.8 47.05 24.5 41.3 L24.3 40.4" fill="none" stroke="#000000" stroke-linecap="round" stroke-linejoin="round" stroke-opacity="0.3019608" stroke-width="0.05"/>
      <path d="M41.5 43.05 Q38.45 43.4 40.35 43.55 42.15 43.75 44.8 42.4 47.35 41.05 47.75 39.5 L46.2 41.15 Q44.55 42.75 41.5 43.05" fill="#73ae37" fill-rule="evenodd" stroke="none"/>
      <path d="M43.6 42.15 L38.0 42.9 44.8 42.6 Q47.3 41.0 48.8 37.9 46.7 41.0 43.6 42.15" fill="url(#gradient11)" fill-rule="evenodd" stroke="none"/>
      <path d="M44.05 43.1 L44.85 42.85 45.6 42.4 45.9 41.95 Q45.9 41.8 45.55 41.75 45.25 41.8 44.8 42.0 44.3 42.2 44.0 42.45 L43.75 42.9 44.05 43.1" fill="#fdfdfd" fill-rule="evenodd" stroke="none"/>
      <path d="M39.25 32.3 Q37.8 33.0 36.0 32.95 L32.1 29.65 Q28.5 26.9 29.05 25.5 29.65 24.05 30.4 23.6 31.85 22.4 33.75 21.6 41.6 18.85 44.85 20.45 48.0 22.0 49.45 25.1 50.95 28.2 46.45 29.6 41.95 31.0 39.25 32.3" fill="url(#gradient12)" fill-rule="evenodd" stroke="none"/>
      <path d="M49.3 19.45 Q46.95 20.65 45.65 18.55 47.55 16.45 50.25 14.8 50.05 17.0 49.3 19.45 M30.35 24.65 Q29.9 21.6 30.55 18.4 L33.45 22.4 Q33.5 25.3 30.35 24.65" fill="#d05f18" fill-rule="evenodd" stroke="none"/>
      <path d="M49.3 19.45 L47.35 23.75 44.95 23.95 Q42.95 22.5 43.7 21.1 L44.5 19.95 45.65 18.55 Q46.95 20.65 49.3 19.45 M33.45 22.4 L33.45 22.35 35.4 25.4 35.95 26.7 35.95 26.9 Q34.85 30.95 31.05 27.55 30.55 26.05 30.35 24.65 33.5 25.3 33.45 22.4" fill="#b64616" fill-rule="evenodd" stroke="none"/>
      <path d="M16.15 38.55 Q15.7 36.85 16.15 36.4 L16.7 35.65 Q17.45 33.95 18.8 32.5 20.2 31.2 21.85 30.5 L22.4 30.25 21.4 31.65 23.2 31.4 Q27.25 31.4 29.95 34.15 31.25 35.5 31.95 37.05 L32.6 38.85 32.7 40.55 32.7 40.8 32.7 40.85 32.55 40.9 Q29.65 42.2 25.75 42.35 L21.85 42.0 Q20.2 41.65 18.85 40.9 16.8 39.95 16.2 38.6 L16.15 38.55 M30.15 47.4 L29.85 47.6 Q27.9 48.6 25.45 48.6 21.65 48.6 18.8 45.8 16.45 43.35 16.2 40.1 17.45 41.5 18.85 42.15 20.75 43.1 23.05 43.45 L25.75 43.55 Q29.65 43.45 32.55 42.15 L32.7 42.1 Q32.4 44.15 31.4 45.8 L32.6 45.5 32.25 45.8 30.15 47.4" fill="url(#gradient13)" fill-rule="evenodd" stroke="none"/>
      <path d="M16.2 40.1 L16.15 39.85 16.15 39.1 16.15 38.6 16.15 38.55 16.2 38.6 Q16.8 39.95 18.85 40.9 20.2 41.65 21.85 42.0 L25.75 42.35 Q29.65 42.2 32.55 40.9 L32.7 40.85 Q34.3 39.95 35.0 39.0 L35.05 38.85 35.05 38.95 35.05 39.1 35.05 40.1 35.0 40.2 Q34.3 41.2 32.7 42.1 L32.55 42.15 Q29.65 43.45 25.75 43.55 L23.05 43.45 Q20.75 43.1 18.85 42.15 17.45 41.5 16.2 40.1 M35.0 39.0 L35.05 38.95 35.0 39.0" fill="#8d4803" fill-rule="evenodd" stroke="none"/>
      <path d="M22.4 30.25 L23.35 29.75 26.45 29.3 Q30.55 29.3 33.2 32.05 34.5 33.35 35.25 34.95 L35.85 36.75 35.95 38.4 35.95 38.6 35.95 39.55 Q35.55 42.7 33.6 44.95 L33.2 45.35 Q32.1 46.45 30.8 47.15 L30.15 47.4 32.25 45.8 32.6 45.5 Q34.55 43.25 35.0 40.2 L35.05 40.1 35.05 39.1 35.05 38.95 35.5 38.1 Q35.7 37.4 35.2 36.8 34.6 36.2 34.3 35.4 33.6 33.85 32.25 32.5 29.6 29.75 25.45 29.75 L22.4 30.25" fill="#000000" fill-opacity="0.29803923" fill-rule="evenodd" stroke="none"/>
      <path d="M32.7 40.85 L32.7 40.8 32.7 40.55 32.6 38.85 31.95 37.05 Q31.25 35.5 29.95 34.15 27.25 31.4 23.2 31.4 L21.4 31.65 22.4 30.25 25.45 29.75 Q29.6 29.75 32.25 32.5 33.6 33.85 34.3 35.4 34.6 36.2 35.2 36.8 35.7 37.4 35.5 38.1 L35.05 38.95 35.05 38.85 35.0 39.0 Q34.3 39.95 32.7 40.85 M35.0 40.2 Q34.55 43.25 32.6 45.5 L31.4 45.8 Q32.4 44.15 32.7 42.1 34.3 41.2 35.0 40.2" fill="url(#gradient14)" fill-rule="evenodd" stroke="none"/>
      <path d="M16.15 38.55 Q15.7 36.85 16.15 36.4 L16.7 35.65 Q17.45 33.95 18.8 32.5 20.2 31.2 21.85 30.5 L22.4 30.25 25.45 29.75 Q29.6 29.75 32.25 32.5 33.6 33.85 34.3 35.4 34.6 36.2 35.2 36.8 35.7 37.4 35.5 38.1 L35.05 38.95 35.0 39.0 M30.15 47.4 L29.85 47.6 Q27.9 48.6 25.45 48.6 21.65 48.6 18.8 45.8 16.45 43.35 16.2 40.1 L16.15 39.85 16.15 39.1 16.15 38.6 16.15 38.55 M35.0 40.2 Q34.55 43.25 32.6 45.5 L32.25 45.8 30.15 47.4" fill="none" stroke="#000000" stroke-linecap="round" stroke-linejoin="round" stroke-opacity="0.3019608" stroke-width="0.05"/>
      <path d="M21.6 38.5 L29.55 38.85 Q30.35 39.75 26.3 40.25 23.7 40.6 20.0 38.6 L21.6 38.5" fill="#de8810" fill-rule="evenodd" stroke="none"/>
      <path d="M8.7 39.35 Q10.55 40.65 12.0 40.3 13.4 39.9 13.5 38.0 13.55 36.15 12.3 33.9 11.0 31.65 9.15 30.3 7.25 29.05 5.85 29.45 4.4 29.8 4.35 31.65 4.25 33.55 5.55 35.8 6.8 38.05 8.7 39.35" fill="url(#gradient15)" fill-rule="evenodd" stroke="none"/>
      <path d="M11.15 35.1 L11.1 34.85 Q10.45 33.25 9.2 32.3 7.95 31.35 6.8 31.65 5.7 31.95 5.4 33.3 5.05 34.65 5.7 36.25 L5.8 36.5 Q9.85 38.4 11.15 35.1" fill="#9b2d17" fill-rule="evenodd" stroke="none"/>
      <path d="M5.8 36.5 Q6.45 38.0 7.65 38.9 8.85 39.8 10.0 39.5 11.1 39.2 11.45 37.9 11.75 36.6 11.15 35.1 9.85 38.4 5.8 36.5" fill="#7d1d13" fill-rule="evenodd" stroke="none"/>
      <path d="M11.15 35.1 L11.1 34.85 Q10.45 33.25 9.2 32.3 7.95 31.35 6.8 31.65 5.7 31.95 5.4 33.3 5.05 34.65 5.7 36.25 L5.8 36.5 Q6.45 38.0 7.65 38.9 8.85 39.8 10.0 39.5 11.1 39.2 11.45 37.9 11.75 36.6 11.15 35.1 Z" fill="none" stroke="#000000" stroke-linecap="round" stroke-linejoin="round" stroke-opacity="0.28627452" stroke-width="0.05"/>
      <path d="M7.9 32.75 L8.4 32.9 8.7 32.5 8.65 31.9 8.2 31.35 7.7 31.25 Q7.45 31.3 7.4 31.6 L7.5 32.25 7.9 32.75" fill="#ffe353" fill-rule="evenodd" stroke="none"/>
      <path d="M26.2 50.9 Q20.0 55.3 13.2 51.8 10.65 50.6 7.5 44.7 4.25 41.9 4.25 37.2 L4.35 35.8 Q3.7 34.05 3.4 32.1 2.3 23.75 7.15 16.6 L7.85 15.55 9.85 13.45 Q13.55 9.65 18.35 7.6 20.85 6.55 23.65 5.9 L25.3 5.65 Q31.15 4.95 36.2 6.75 L36.5 6.85 Q39.15 7.75 41.5 9.4 45.4 12.25 47.6 16.7 L50.25 14.8 Q50.05 17.0 49.3 19.45 L49.0 20.3 49.2 21.0 Q51.45 21.6 53.1 23.35 54.45 24.7 55.2 26.25 55.5 27.1 56.1 27.7 56.6 28.25 56.4 28.95 L55.95 29.8 55.95 30.0 55.95 30.95 55.9 31.1 Q55.45 34.1 53.5 36.35 L53.1 36.7 51.05 38.3 50.75 38.5 49.2 39.1 48.9 41.5 48.8 41.55 48.65 42.25 Q45.85 45.3 41.35 46.15 38.75 46.65 33.55 45.0 L33.2 45.35 Q32.1 46.45 30.8 47.15 L30.15 47.4 29.85 47.6 29.0 48.0 Q27.8 49.7 26.2 50.9 Z" fill="none" stroke="#000000" stroke-linecap="round" stroke-linejoin="round" stroke-opacity="0.3019608" stroke-width="1.0"/>
    </g>
    <radialGradient cx="0" cy="0" gradientTransform="matrix(0.0221, 0.0221, -0.0116, 0.0116, 49.75, 23.15)" gradientUnits="userSpaceOnUse" id="gradient0" r="819.2" spreadMethod="pad">
      <stop offset="0.34901960784313724" stop-color="#ffe353"/>
      <stop offset="0.5725490196078431" stop-color="#ff9900"/>
      <stop offset="0.9921568627450981" stop-color="#c97318"/>
    </radialGradient>
    <radialGradient cx="0" cy="0" gradientTransform="matrix(0.0225, 0.0, 0.0, 0.0225, 46.1, 20.15)" gradientUnits="userSpaceOnUse" id="gradient1" r="819.2" spreadMethod="pad">
      <stop offset="0.34901960784313724" stop-color="#ffe353"/>
      <stop offset="0.5725490196078431" stop-color="#ff9900"/>
      <stop offset="0.9921568627450981" stop-color="#c97318"/>
    </radialGradient>
    <radialGradient cx="0" cy="0" gradientTransform="matrix(0.0446, 0.0, 0.0, 0.0446, 25.2, 8.15)" gradientUnits="userSpaceOnUse" id="gradient2" r="819.2" spreadMethod="pad">
      <stop offset="0.0" stop-color="#a7ca2c"/>
      <stop offset="0.5490196078431373" stop-color="#19804c"/>
      <stop offset="1.0" stop-color="#11663c"/>
    </radialGradient>
    <radialGradient cx="0" cy="0" fx="-1632.0" fy="0" gradientTransform="matrix(0.0371, 0.0, 0.0, 0.0371, 23.4, -0.65)" gradientUnits="userSpaceOnUse" id="gradient3" r="819.2" spreadMethod="pad">
      <stop offset="0.34901960784313724" stop-color="#ffe353"/>
      <stop offset="0.5725490196078431" stop-color="#ff9900"/>
      <stop offset="0.9921568627450981" stop-color="#c97318"/>
    </radialGradient>
    <radialGradient cx="0" cy="0" gradientTransform="matrix(0.078, 0.0416, -0.0213, 0.04, 30.45, 3.2)" gradientUnits="userSpaceOnUse" id="gradient4" r="819.2" spreadMethod="pad">
      <stop offset="0.0" stop-color="#a7ca2c"/>
      <stop offset="0.5490196078431373" stop-color="#147c4d"/>
      <stop offset="0.9725490196078431" stop-color="#19804c"/>
    </radialGradient>
    <radialGradient cx="0" cy="0" fx="-1632.0" fy="0" gradientTransform="matrix(0.0295, 0.0, 0.0, 0.0295, 30.1, 3.65)" gradientUnits="userSpaceOnUse" id="gradient5" r="819.2" spreadMethod="pad">
      <stop offset="0.34901960784313724" stop-color="#ffe353"/>
      <stop offset="0.5725490196078431" stop-color="#ff9900"/>
      <stop offset="0.9921568627450981" stop-color="#c97318"/>
    </radialGradient>
    <radialGradient cx="0" cy="0" fx="-1632.0" fy="0" gradientTransform="matrix(0.0671, 0.0, 0.0, 0.0671, 23.5, 60.4)" gradientUnits="userSpaceOnUse" id="gradient6" r="819.2" spreadMethod="pad">
      <stop offset="0.34901960784313724" stop-color="#ffe353"/>
      <stop offset="0.5725490196078431" stop-color="#ff9900"/>
      <stop offset="0.9921568627450981" stop-color="#c97318"/>
    </radialGradient>
    <radialGradient cx="0" cy="0" gradientTransform="matrix(0.0609, 0.0, 0.0, 0.0609, 47.5, 46.75)" gradientUnits="userSpaceOnUse" id="gradient7" r="819.2" spreadMethod="pad">
      <stop offset="0.0" stop-color="#a7ca2c"/>
      <stop offset="0.5490196078431373" stop-color="#19804c"/>
      <stop offset="1.0" stop-color="#11663c"/>
    </radialGradient>
    <radialGradient cx="0" cy="0" gradientTransform="matrix(-0.0389, 0.0058, 0.0014, 0.0228, 37.85, 22.75)" gradientUnits="userSpaceOnUse" id="gradient8" r="819.2" spreadMethod="pad">
      <stop offset="0.0" stop-color="#a7ca2c"/>
      <stop offset="0.5490196078431373" stop-color="#19804c"/>
      <stop offset="1.0" stop-color="#11663c"/>
    </radialGradient>
    <radialGradient cx="0" cy="0" gradientTransform="matrix(-0.0162, 0.0024, 7.0E-4, 0.0122, 36.65, 42.65)" gradientUnits="userSpaceOnUse" id="gradient9" r="819.2" spreadMethod="pad">
      <stop offset="0.0" stop-color="#a7ca2c"/>
      <stop offset="0.5490196078431373" stop-color="#147c4d"/>
      <stop offset="0.9725490196078431" stop-color="#11663c"/>
    </radialGradient>
    <radialGradient cx="0" cy="0" gradientTransform="matrix(-0.0377, 0.0056, 0.0052, 0.0261, 39.4, 24.75)" gradientUnits="userSpaceOnUse" id="gradient10" r="819.2" spreadMethod="pad">
      <stop offset="0.0" stop-color="#a7ca2c"/>
      <stop offset="0.5490196078431373" stop-color="#147c4d"/>
      <stop offset="0.9725490196078431" stop-color="#19804c"/>
    </radialGradient>
    <radialGradient cx="0" cy="0" gradientTransform="matrix(-0.0116, 0.0053, 4.0E-4, 0.006, 43.45, 41.75)" gradientUnits="userSpaceOnUse" id="gradient11" r="819.2" spreadMethod="pad">
      <stop offset="0.0" stop-color="#a7ca2c"/>
      <stop offset="0.5490196078431373" stop-color="#11663c"/>
    </radialGradient>
    <radialGradient cx="0" cy="0" gradientTransform="matrix(-0.0331, 0.0049, 8.0E-4, 0.0131, 39.6, 22.6)" gradientUnits="userSpaceOnUse" id="gradient12" r="819.2" spreadMethod="pad">
      <stop offset="0.41568627450980394" stop-color="#a7ca2c"/>
      <stop offset="0.788235294117647" stop-color="#a7ca2c" stop-opacity="0.0"/>
    </radialGradient>
    <radialGradient cx="0" cy="0" fx="-1635.2" fy="0" gradientTransform="matrix(0.0225, 0.0, 0.0, 0.0225, 25.2, 29.25)" gradientUnits="userSpaceOnUse" id="gradient13" r="819.2" spreadMethod="pad">
      <stop offset="0.34901960784313724" stop-color="#ffe353"/>
      <stop offset="0.5725490196078431" stop-color="#ff9900"/>
      <stop offset="0.9921568627450981" stop-color="#c97318"/>
    </radialGradient>
    <radialGradient cx="0" cy="0" fx="-1635.2" fy="0" gradientTransform="matrix(0.0221, 0.0221, -0.0116, 0.0116, 28.85, 32.25)" gradientUnits="userSpaceOnUse" id="gradient14" r="819.2" spreadMethod="pad">
      <stop offset="0.34901960784313724" stop-color="#ffe353"/>
      <stop offset="0.5725490196078431" stop-color="#ff9900"/>
      <stop offset="0.9921568627450981" stop-color="#c97318"/>
    </radialGradient>
    <radialGradient cx="0" cy="0" gradientTransform="matrix(-0.005, 0.0014, 0.0038, 0.0066, 8.9, 34.85)" gradientUnits="userSpaceOnUse" id="gradient15" r="819.2" spreadMethod="pad">
      <stop offset="0.2901960784313726" stop-color="#081544"/>
      <stop offset="0.792156862745098" stop-color="#081544" stop-opacity="0.0"/>
    </radialGradient>
    <g id="shape2" transform="matrix(1.0, 0.0, 0.0, 1.0, -3.2, -5.45)">
      <path d="M26.2 50.9 Q20.0 55.3 13.2 51.8 10.65 50.6 7.5 44.7 4.25 41.9 4.25 37.2 L4.35 35.8 Q3.7 34.05 3.4 32.1 2.3 23.75 7.15 16.6 L7.85 15.55 9.85 13.45 Q13.55 9.65 18.35 7.6 20.85 6.55 23.65 5.9 L25.3 5.65 Q31.15 4.95 36.2 6.75 L36.5 6.85 36.65 6.9 36.75 6.95 36.85 7.0 36.95 7.05 37.7 7.3 37.8 7.35 Q39.75 8.15 41.5 9.4 45.45 12.25 47.6 16.7 L50.25 14.8 Q50.05 17.0 49.3 19.45 L49.0 20.3 49.15 20.95 Q51.45 21.6 53.1 23.35 54.45 24.7 55.2 26.25 55.5 27.1 56.1 27.7 56.6 28.25 56.4 28.95 L55.95 29.8 55.95 30.0 55.95 30.95 55.9 31.1 Q55.45 34.1 53.5 36.35 L53.1 36.7 51.05 38.3 50.75 38.5 49.2 39.1 48.9 41.5 48.8 41.55 48.65 42.25 Q45.85 45.3 41.35 46.15 38.75 46.65 33.55 45.0 L33.2 45.35 Q32.1 46.45 30.8 47.15 L30.15 47.4 29.85 47.6 29.0 48.0 Q27.8 49.7 26.2 50.9" fill="#ff0000" fill-rule="evenodd" stroke="none"/>
    </g>
    <g id="sprite2" transform="matrix(1.0, 0.0, 0.0, 1.0, 0.0, 0.0)">
      <use height="37.7" transform="matrix(1.0, 0.0, 0.0, 1.0, 0.0, 0.0)" width="37.7" xlink:href="#shape3"/>
    </g>
    <g id="shape3" transform="matrix(1.0, 0.0, 0.0, 1.0, 0.0, 0.0)">
      <path d="M37.7 18.85 Q37.7 26.65 32.15 32.15 26.65 37.7 18.85 37.7 11.05 37.7 5.5 32.15 0.0 26.65 0.0 18.85 0.0 11.05 5.5 5.5 11.05 0.0 18.85 0.0 26.65 0.0 32.15 5.5 37.7 11.05 37.7 18.85" fill="url(#gradient16)" fill-rule="evenodd" stroke="none"/>
    </g>
    <radialGradient cx="0" cy="0" gradientTransform="matrix(0.0244, 0.0, 0.0, 0.0244, 18.85, 18.85)" gradientUnits="userSpaceOnUse" id="gradient16" r="819.2" spreadMethod="pad">
      <stop offset="0.0" stop-color="#ffffcc"/>
      <stop offset="1.0" stop-color="#ffffcc" stop-opacity="0.0"/>
    </radialGradient>
  </defs>
</svg>
