<?xml version="1.0" encoding="UTF-8" standalone="no"?>
<svg xmlns:xlink="http://www.w3.org/1999/xlink" height="440.0px" width="440.0px" xmlns="http://www.w3.org/2000/svg">
  <g transform="matrix(10.0, 0.0, 0.0, 10.0, 0.0, 0.0)">
    <use height="44.0" transform="matrix(0.9091, 0.0, 0.0, 0.9091, 2.0, 2.0)" width="44.0" xlink:href="#sprite0"/>
  </g>
  <defs>
    <g id="sprite0" transform="matrix(1.0, 0.0, 0.0, 1.0, 0.0, 0.0)">
      <use height="44.0" transform="matrix(1.0, 0.0, 0.0, 1.0, 0.0, 0.0)" width="44.0" xlink:href="#shape0"/>
      <use height="22.55" transform="matrix(1.4259, 0.0, 0.0, 1.4259, 3.0, 5.95)" width="26.65" xlink:href="#sprite1"/>
    </g>
    <g id="shape0" transform="matrix(1.0, 0.0, 0.0, 1.0, 0.0, 0.0)">
      <path d="M44.0 44.0 L0.0 44.0 0.0 0.0 44.0 0.0 44.0 44.0" fill="#43adca" fill-opacity="0.0" fill-rule="evenodd" stroke="none"/>
    </g>
    <g id="sprite1" transform="matrix(1.0, 0.0, 0.0, 1.0, 0.0, 0.0)">
      <use height="22.55" transform="matrix(1.0, 0.0, 0.0, 1.0, 0.0, 0.0)" width="26.65" xlink:href="#sprite2"/>
    </g>
    <g id="sprite2" transform="matrix(1.0, 0.0, 0.0, 1.0, 13.45, 23.9)">
      <use height="22.55" transform="matrix(1.0, 0.0, 0.0, 1.0, -13.45, -23.9)" width="26.65" xlink:href="#shape1"/>
    </g>
    <g id="shape1" transform="matrix(1.0, 0.0, 0.0, 1.0, 13.45, 23.9)">
      <path d="M4.95 -18.25 Q4.8 -18.65 5.1 -19.8 L5.25 -20.05 7.45 -20.55 8.65 -21.0 8.8 -21.0 8.85 -20.95 8.85 -21.0 9.1 -22.85 Q9.15 -24.9 11.5 -22.95 L12.4 -22.05 12.9 -21.25 Q12.75 -21.35 12.85 -20.45 L12.55 -18.95 12.45 -18.65 12.4 -18.55 Q12.05 -17.75 10.5 -17.55 L7.85 -17.3 6.95 -17.2 6.55 -17.2 6.4 -17.15 5.55 -18.1 4.95 -18.25 M11.55 -22.45 L11.55 -22.55 11.5 -22.55 11.05 -22.95 10.3 -23.55 9.95 -23.65 9.7 -23.6 Q9.5 -23.55 9.65 -23.35 L9.95 -23.1 Q10.1 -22.95 10.8 -22.7 11.35 -22.4 11.55 -22.45" fill="url(#gradient0)" fill-rule="evenodd" stroke="none"/>
      <path d="M12.9 -21.25 Q13.3 -20.05 13.15 -19.15 L13.05 -18.1 13.0 -18.1 12.75 -17.6 12.1 -16.95 12.05 -16.9 11.85 -16.75 6.4 -15.1 6.0 -15.4 5.05 -17.8 4.95 -18.25 5.55 -18.1 6.4 -17.15 6.55 -17.2 6.95 -17.2 7.85 -17.3 10.5 -17.55 Q12.05 -17.75 12.4 -18.55 L12.45 -18.65 12.55 -18.95 12.85 -20.45 Q12.75 -21.35 12.9 -21.25" fill="url(#gradient1)" fill-rule="evenodd" stroke="none"/>
      <path d="M11.55 -22.45 Q11.35 -22.4 10.8 -22.7 10.1 -22.95 9.95 -23.1 L9.65 -23.35 Q9.5 -23.55 9.7 -23.6 L9.95 -23.65 10.3 -23.55 11.05 -22.95 11.5 -22.55 11.55 -22.55 11.55 -22.45" fill="#da9147" fill-rule="evenodd" stroke="none"/>
      <path d="M4.95 -18.25 Q4.8 -18.65 5.1 -19.8 L5.25 -20.05 7.45 -20.55 8.65 -21.0 8.8 -21.0 8.85 -20.95 8.85 -21.0 9.1 -22.85 Q9.15 -24.9 11.5 -22.95 L12.4 -22.05 12.9 -21.25 M12.05 -16.9 L11.85 -16.75" fill="none" stroke="#000000" stroke-linecap="round" stroke-linejoin="round" stroke-opacity="0.4509804" stroke-width="0.05"/>
      <path d="M11.25 -12.3 Q11.4 -11.15 10.95 -10.1 L10.5 -9.4 9.9 -9.5 9.95 -9.65 9.9 -9.9 9.75 -10.35 9.6 -10.75 10.45 -11.2 11.25 -12.3 M-9.0 -5.35 L-9.25 -5.85 Q-9.65 -6.8 -9.55 -7.7 L-10.75 -7.95 Q-12.2 -8.55 -12.8 -10.0 -13.4 -11.4 -12.85 -12.85 L-12.65 -13.2 -13.1 -14.0 Q-13.75 -15.4 -13.15 -16.8 L-13.0 -17.2 -12.85 -16.15 Q-12.8 -15.45 -11.3 -14.8 L-11.25 -14.7 -11.3 -14.65 Q-12.2 -14.15 -12.65 -13.2 L-12.55 -12.15 Q-12.5 -11.4 -10.65 -10.7 L-9.15 -10.3 -8.0 -10.35 -8.0 -10.4 -8.55 -11.4 Q-9.05 -12.85 -8.4 -14.25 L-8.2 -14.55 -8.15 -13.5 Q-8.15 -12.8 -6.35 -11.95 L-5.9 -11.8 -5.6 -11.7 -4.65 -11.45 -4.5 -11.45 -4.5 -11.35 -4.45 -10.3 Q-4.45 -9.75 -3.55 -9.2 L-2.7 -8.75 -2.6 -8.7 -2.15 -8.55 -1.5 -8.35 Q-0.5 -8.1 0.35 -8.35 L0.55 -8.4 0.7 -8.45 Q1.95 -8.95 2.4 -10.0 L2.35 -10.25 2.65 -10.1 2.85 -10.6 2.95 -10.75 3.05 -10.95 3.1 -10.7 3.1 -10.0 3.1 -9.9 Q3.1 -9.2 4.9 -8.35 L4.95 -8.35 5.05 -8.3 Q5.1 -7.65 4.6 -7.0 3.85 -6.2 2.65 -6.2 L1.8 -6.4 2.7 -6.5 2.8 -6.55 3.3 -6.75 2.95 -7.3 1.95 -7.6 1.35 -6.8 1.15 -7.1 Q0.7 -6.0 -0.05 -5.25 L-1.2 -4.5 Q-1.8 -4.95 -2.2 -5.55 L-2.35 -5.8 -2.4 -5.8 -2.5 -5.6 -2.95 -4.9 -2.2 -4.45 -2.05 -4.4 -1.75 -4.25 -2.2 -4.15 -4.2 -3.9 -4.25 -3.95 -4.3 -3.9 -4.4 -3.9 Q-7.25 -3.9 -9.0 -5.35 M10.3 -16.0 L10.2 -14.35 10.0 -13.8 Q9.45 -12.7 8.4 -12.1 L7.85 -12.4 6.75 -12.75 Q6.2 -13.85 5.05 -14.4 L2.9 -14.75 Q2.75 -15.4 2.9 -16.05 L3.55 -15.9 Q3.8 -15.5 4.5 -15.05 L5.25 -14.7 5.3 -14.7 Q7.0 -13.9 8.45 -14.35 L9.5 -14.9 10.3 -16.0 M-2.95 -14.95 L-1.5 -14.05 -1.45 -14.0 -0.85 -13.8 0.6 -13.5 0.25 -12.95 0.25 -12.85 0.15 -12.85 -2.6 -12.95 -3.25 -12.65 -3.65 -13.45 Q-4.0 -14.5 -3.8 -15.5 L-2.95 -14.95 M7.6 -7.9 L7.65 -7.75 6.15 -7.5 Q5.75 -7.5 5.2 -8.2 L5.2 -8.25 5.7 -8.05 7.35 -7.85 7.6 -7.9 M-4.2 -7.0 L-4.85 -8.2 -5.05 -8.9 -6.4 -9.15 -7.45 -8.25 -7.85 -8.05 -8.9 -7.75 Q-8.6 -7.15 -7.1 -6.55 L-4.2 -6.3 -3.9 -6.45 -3.85 -6.45 -3.7 -6.5 -4.2 -7.0" fill="#ba9501" fill-rule="evenodd" stroke="none"/>
      <path d="M10.2 -14.35 L11.05 -13.0 11.25 -12.3 10.45 -11.2 9.6 -10.75 9.75 -10.35 9.9 -9.9 9.95 -9.65 9.9 -9.5 9.75 -9.55 9.7 -9.55 8.3 -8.05 8.15 -8.0 8.1 -8.0 8.05 -7.95 7.6 -7.9 7.35 -7.85 5.7 -8.05 5.2 -8.25 5.05 -8.3 4.95 -8.35 4.9 -8.35 Q3.1 -9.2 3.1 -9.9 L3.1 -10.0 3.1 -10.7 3.05 -10.95 2.95 -10.75 2.85 -10.6 2.65 -10.1 2.35 -10.25 2.4 -10.0 Q1.95 -8.95 0.7 -8.45 L0.55 -8.4 0.35 -8.35 Q-0.5 -8.1 -1.5 -8.35 L-2.15 -8.55 -2.6 -8.7 -2.7 -8.75 -3.55 -9.2 Q-4.45 -9.75 -4.45 -10.3 L-4.5 -11.35 -4.45 -11.45 -4.5 -11.45 -4.65 -11.45 -5.6 -11.7 -5.9 -11.8 -6.35 -11.95 Q-8.15 -12.8 -8.15 -13.5 L-8.2 -14.55 -8.4 -14.25 Q-9.05 -12.85 -8.55 -11.4 L-8.0 -10.4 -8.0 -10.35 -9.15 -10.3 -9.6 -11.85 -9.65 -12.25 -10.25 -12.6 Q-11.15 -13.4 -11.25 -14.6 L-11.3 -14.65 -11.25 -14.7 -11.15 -14.75 -11.3 -14.8 -11.25 -15.35 Q-12.35 -16.35 -12.75 -17.6 -12.2 -18.45 -11.15 -18.9 L-11.0 -18.95 Q-10.05 -16.1 -7.85 -15.5 L-6.7 -15.4 Q-5.45 -15.4 -4.4 -16.05 L-3.8 -15.5 Q-4.0 -14.5 -3.65 -13.45 L-3.25 -12.65 -2.6 -12.95 0.15 -12.85 0.25 -12.8 0.25 -12.85 0.25 -12.95 0.6 -13.5 -0.85 -13.8 -1.45 -14.0 -1.5 -14.05 -2.95 -14.95 -2.1 -14.8 Q-0.45 -14.8 0.5 -15.65 1.3 -16.4 1.1 -17.2 L1.25 -17.2 Q1.9 -16.35 2.9 -16.05 2.75 -15.4 2.9 -14.75 L5.05 -14.4 Q6.2 -13.85 6.75 -12.75 L7.85 -12.4 8.4 -12.1 Q9.45 -12.7 10.0 -13.8 L10.2 -14.35 M9.25 -18.05 L10.1 -16.7 10.3 -16.0 9.5 -14.9 8.45 -14.35 Q7.0 -13.9 5.3 -14.7 L5.25 -14.7 4.5 -15.05 Q3.8 -15.5 3.55 -15.9 L3.95 -15.9 Q5.2 -15.9 6.2 -16.75 7.2 -17.55 7.0 -18.4 7.75 -17.8 8.25 -17.8 L9.25 -18.05 M-7.45 -8.25 L-6.4 -9.15 -5.05 -8.9 -4.85 -8.2 -4.2 -7.0 Q-6.0 -7.1 -7.45 -8.25" fill="#f5ce31" fill-rule="evenodd" stroke="none"/>
      <path d="M-11.0 -18.95 L-10.0 -19.2 -9.75 -17.75 Q-9.2 -16.3 -7.8 -15.6 L-7.5 -15.45 -7.45 -15.45 -6.25 -16.2 -5.55 -16.35 Q-6.5 -16.95 -6.5 -17.45 L-6.5 -17.95 -6.55 -18.5 -6.75 -18.15 -6.8 -18.05 -7.0 -18.1 -7.55 -18.3 Q-8.45 -18.75 -8.9 -19.15 L-9.35 -19.9 -9.4 -20.95 Q-8.75 -22.1 -7.5 -22.55 L-4.6 -22.4 -4.55 -22.35 Q-3.95 -23.2 -2.85 -23.6 L0.0 -23.45 Q1.05 -22.95 1.65 -21.95 L2.0 -22.15 4.9 -22.0 Q6.25 -21.35 6.8 -19.9 L6.95 -19.2 6.95 -19.1 7.0 -19.1 8.2 -18.75 Q8.8 -18.5 9.25 -18.05 L8.25 -17.8 Q7.75 -17.8 7.0 -18.4 7.2 -17.55 6.2 -16.75 5.2 -15.9 3.95 -15.9 L3.55 -15.9 3.45 -16.25 3.4 -17.3 3.45 -17.45 1.95 -17.9 1.6 -18.1 1.5 -18.15 1.45 -18.1 1.5 -18.1 1.6 -18.05 1.9 -17.85 3.1 -16.65 2.9 -16.05 Q1.9 -16.35 1.25 -17.2 L1.1 -17.2 Q1.3 -16.4 0.5 -15.65 -0.45 -14.8 -2.1 -14.8 L-2.95 -14.95 -3.25 -15.6 -3.3 -16.65 -3.5 -16.3 -3.8 -15.5 -4.4 -16.05 Q-5.45 -15.4 -6.7 -15.4 L-7.85 -15.5 Q-10.05 -16.1 -11.0 -18.95 M0.15 -19.45 L0.1 -20.55 -0.1 -20.2 -0.45 -19.0 -0.1 -18.45 1.45 -18.1 Q0.6 -18.6 0.3 -19.05 L0.15 -19.45 M-7.85 -15.5 L-7.8 -15.6 -7.85 -15.5" fill="#dd1111" fill-rule="evenodd" stroke="none"/>
      <path d="M6.95 -19.2 L7.0 -19.1 6.95 -19.1 6.95 -19.2 M0.25 -12.85 L0.25 -12.8 0.15 -12.85 0.25 -12.85 M1.95 -17.9 L1.9 -17.85 1.6 -18.05 1.5 -18.1 1.5 -18.15 1.6 -18.1 1.95 -17.9 M6.5 -5.3 L6.6 -5.35 6.7 -5.3 6.5 -5.3 M-4.5 -11.35 L-4.5 -11.45 -4.45 -11.45 -4.5 -11.35 M-11.25 -14.7 L-11.3 -14.8 -11.15 -14.75 -11.25 -14.7" fill="#e2d9b6" fill-rule="evenodd" stroke="none"/>
      <path d="M-10.0 -19.2 L-9.6 -20.6 -9.4 -20.95 -9.35 -19.9 -8.9 -19.15 Q-8.45 -18.75 -7.55 -18.3 L-7.0 -18.1 -6.8 -18.05 -6.75 -18.15 -6.55 -18.5 -6.5 -17.95 -6.5 -17.45 Q-6.5 -16.95 -5.55 -16.35 L-6.25 -16.2 -7.45 -15.45 -7.5 -15.45 -7.8 -15.6 Q-9.2 -16.3 -9.75 -17.75 L-10.0 -19.2 M0.15 -19.45 L0.3 -19.05 Q0.6 -18.6 1.45 -18.1 L-0.1 -18.45 -0.45 -19.0 -0.1 -20.2 0.1 -20.55 0.15 -19.45 M1.95 -17.9 L3.45 -17.45 3.4 -17.3 3.45 -16.25 3.55 -15.9 2.9 -16.05 3.1 -16.65 1.9 -17.85 1.95 -17.9 M-3.8 -15.5 L-3.5 -16.3 -3.3 -16.65 -3.25 -15.6 -2.95 -14.95 -3.8 -15.5" fill="#b00303" fill-rule="evenodd" stroke="none"/>
      <path d="M1.5 -18.15 L1.5 -18.1 1.45 -18.1 1.5 -18.15 M9.7 -9.55 L9.75 -9.55 9.7 -9.55 M3.6 -4.8 L3.5 -4.85 3.6 -4.9 3.6 -4.8 M-7.85 -15.5 L-7.8 -15.6 -7.85 -15.5" fill="#f1edc9" fill-rule="evenodd" stroke="none"/>
      <path d="M9.75 -9.55 L9.9 -9.5 Q9.45 -8.5 8.3 -8.05 L9.7 -9.55 9.75 -9.55 M1.8 -6.4 L1.45 -6.4 1.0 -6.45 1.35 -6.8 1.8 -6.4 M5.65 -4.6 L5.2 -4.55 3.6 -4.8 3.6 -4.9 4.15 -5.6 4.3 -5.85 4.65 -5.65 5.2 -5.4 6.5 -5.3 5.65 -4.6" fill="#b7cc5e" fill-rule="evenodd" stroke="none"/>
      <path d="M10.5 -9.4 L10.0 -8.85 9.65 -7.45 Q9.1 -6.3 8.0 -5.75 L7.95 -5.35 7.9 -5.1 7.05 -5.2 6.9 -5.1 6.55 -4.95 6.35 -4.85 6.3 -4.8 6.25 -4.8 6.05 -4.75 5.65 -4.6 5.2 -4.4 3.45 -4.05 Q1.5 -4.05 -0.05 -5.25 0.7 -6.0 1.15 -7.1 L1.35 -6.8 1.0 -6.45 1.45 -6.4 1.8 -6.4 2.65 -6.2 Q3.85 -6.2 4.6 -7.0 5.1 -7.65 5.05 -8.3 L5.2 -8.25 5.2 -8.2 Q5.75 -7.5 6.15 -7.5 L7.65 -7.75 7.6 -7.9 8.05 -7.95 8.1 -8.0 8.15 -7.95 8.3 -8.05 Q9.45 -8.5 9.9 -9.5 L10.5 -9.4 M3.6 -4.8 L5.2 -4.55 5.65 -4.6 6.5 -5.3 5.2 -5.4 4.65 -5.65 4.3 -5.85 4.15 -5.6 3.6 -4.9 3.5 -4.85 3.6 -4.8 M6.5 -5.3 L6.7 -5.3 6.6 -5.35 6.5 -5.3" fill="#8ca233" fill-rule="evenodd" stroke="none"/>
      <path d="M8.3 -8.05 L8.15 -7.95 8.1 -8.0 8.15 -8.0 8.3 -8.05" fill="#e4dca8" fill-rule="evenodd" stroke="none"/>
      <path d="M-13.0 -17.2 L-12.75 -17.6 Q-12.35 -16.35 -11.25 -15.35 L-11.3 -14.8 Q-12.8 -15.45 -12.85 -16.15 L-13.0 -17.2 M-9.15 -10.3 L-10.65 -10.7 Q-12.5 -11.4 -12.55 -12.15 L-12.65 -13.2 Q-12.2 -14.15 -11.3 -14.65 L-11.25 -14.6 Q-11.15 -13.4 -10.25 -12.6 L-9.65 -12.25 -9.6 -11.85 -9.15 -10.3 M1.35 -6.8 L1.95 -7.6 2.95 -7.3 3.3 -6.75 2.8 -6.55 2.7 -6.5 1.8 -6.4 1.35 -6.8 M-4.2 -7.0 L-3.7 -6.5 -3.85 -6.45 -3.9 -6.45 -4.2 -6.3 -7.1 -6.55 Q-8.6 -7.15 -8.9 -7.75 L-7.85 -8.05 -7.45 -8.25 Q-6.0 -7.1 -4.2 -7.0 M-1.75 -4.25 L-2.05 -4.4 -2.2 -4.45 -2.95 -4.9 -2.5 -5.6 -2.4 -5.8 -2.35 -5.8 -2.2 -5.55 Q-1.8 -4.95 -1.2 -4.5 L-1.75 -4.25" fill="#eabd0d" fill-rule="evenodd" stroke="none"/>
      <path d="M7.9 -5.1 L7.9 -4.95 7.7 -4.35 7.65 -4.3 7.65 -4.25 7.6 -4.15 Q6.95 -2.75 5.5 -2.25 L5.2 -2.15 2.65 -2.35 2.2 -2.65 Q1.55 -1.95 0.55 -1.6 L-2.2 -1.65 -2.3 -1.7 Q-3.7 -2.35 -4.2 -3.85 L-4.2 -3.9 -2.2 -4.15 -1.75 -4.25 0.3 -3.9 -0.65 -4.2 -1.2 -4.5 -0.05 -5.25 Q1.5 -4.05 3.45 -4.05 L5.2 -4.4 5.65 -4.6 6.05 -4.75 6.25 -4.8 6.3 -4.8 6.35 -4.85 6.55 -4.95 6.9 -5.1 7.05 -5.2 7.9 -5.1 M-4.35 -3.9 L-7.15 -3.85 Q-8.35 -4.35 -9.0 -5.35 -7.25 -3.9 -4.4 -3.9 L-4.35 -3.9" fill="#6c7d24" fill-rule="evenodd" stroke="none"/>
      <path d="M-8.0 -10.4 L-8.0 -10.35 -8.0 -10.4" fill="#ffffff" fill-rule="evenodd" stroke="none"/>
      <path d="M-1.75 -4.25 L-1.2 -4.5 -0.65 -4.2 0.3 -3.9 -1.75 -4.25" fill="#9fb839" fill-rule="evenodd" stroke="none"/>
      <path d="M-4.3 -3.9 L-4.35 -3.9 -4.4 -3.9 -4.3 -3.9" fill="#bcb35d" fill-rule="evenodd" stroke="none"/>
      <path d="M10.2 -14.35 L11.05 -13.0 11.25 -12.3 Q11.4 -11.15 10.95 -10.1 L10.5 -9.4 10.0 -8.85 9.65 -7.45 Q9.1 -6.3 8.0 -5.75 L7.95 -5.35 7.9 -5.1 7.9 -4.95 7.7 -4.35 7.65 -4.3 7.65 -4.25 7.6 -4.15 Q6.95 -2.75 5.5 -2.25 L5.2 -2.15 2.65 -2.35 2.2 -2.65 Q1.55 -1.95 0.55 -1.6 L-2.2 -1.65 -2.3 -1.7 Q-3.7 -2.35 -4.2 -3.85 L-4.2 -3.9 -4.35 -3.9 -7.15 -3.85 Q-8.35 -4.35 -9.0 -5.35 L-9.25 -5.85 Q-9.65 -6.8 -9.55 -7.7 L-10.75 -7.95 Q-12.2 -8.55 -12.8 -10.0 -13.4 -11.4 -12.85 -12.85 L-12.65 -13.2 -13.1 -14.0 Q-13.75 -15.4 -13.15 -16.8 L-13.0 -17.2 M-12.75 -17.6 Q-12.2 -18.45 -11.15 -18.9 L-11.0 -18.95 -10.0 -19.2 -9.6 -20.6 -9.4 -20.95 Q-8.75 -22.1 -7.5 -22.55 L-4.6 -22.4 -4.55 -22.35 Q-3.95 -23.2 -2.85 -23.6 L0.0 -23.45 Q1.05 -22.95 1.65 -21.95 L2.0 -22.15 4.9 -22.0 Q6.25 -21.35 6.8 -19.9 L6.95 -19.2 M7.0 -19.1 L8.2 -18.75 Q8.8 -18.5 9.25 -18.05 L10.1 -16.7 10.3 -16.0 10.2 -14.35 M-4.35 -3.9 L-4.3 -3.9 -4.25 -3.95 -4.2 -3.9 M-4.4 -3.9 L-4.35 -3.9" fill="none" stroke="#000000" stroke-linecap="round" stroke-linejoin="round" stroke-opacity="0.4509804" stroke-width="0.05"/>
      <path d="M-3.55 -8.05 L-2.9 -8.55 -0.9 -7.9 -0.9 -8.2 Q-3.75 -9.5 -5.8 -11.85 L-6.25 -11.25 -6.25 -11.15 -4.55 -9.5 -4.85 -8.95 -4.8 -8.9 -3.7 -8.15 -3.55 -8.05" fill="#a19a6f" fill-rule="evenodd" stroke="none"/>
      <path d="M-0.9 -7.9 L-2.9 -8.55 -3.55 -8.05 -1.4 -6.9 Q-0.95 -7.25 -0.9 -7.9 M-4.85 -8.95 L-4.55 -9.5 -6.25 -11.15 -6.4 -10.35 -4.85 -8.95" fill="#6b6439" fill-rule="evenodd" stroke="none"/>
      <path d="M-3.7 -8.15 L-4.8 -8.9 M-6.25 -11.25 L-5.8 -11.85 Q-3.75 -9.5 -0.9 -8.2 L-0.9 -7.9 Q-0.95 -7.25 -1.4 -6.9 L-3.55 -8.05 M-6.25 -11.15 L-6.4 -10.35 -4.85 -8.95" fill="none" stroke="#000000" stroke-linecap="round" stroke-linejoin="round" stroke-opacity="0.4509804" stroke-width="0.05"/>
      <path d="M-5.55 -6.55 Q-5.55 -7.25 -4.85 -8.5 L-3.3 -10.8 -1.85 -11.65 Q-2.15 -12.05 -2.6 -12.15 -4.9 -10.25 -6.15 -7.4 -5.95 -6.9 -5.55 -6.55" fill="#a19a6f" fill-rule="evenodd" stroke="none"/>
      <path d="M-5.55 -6.55 L-4.75 -6.1 Q-3.8 -9.0 -1.5 -11.05 L-1.85 -11.65 -3.3 -10.8 -4.85 -8.5 Q-5.55 -7.25 -5.55 -6.55" fill="#6b6439" fill-rule="evenodd" stroke="none"/>
      <path d="M-1.85 -11.65 L-1.5 -11.05 Q-3.8 -9.0 -4.75 -6.1 L-5.55 -6.55 M-1.85 -11.65 Q-2.15 -12.05 -2.6 -12.15 -4.9 -10.25 -6.15 -7.4 -5.95 -6.9 -5.55 -6.55" fill="none" stroke="#000000" stroke-linecap="round" stroke-linejoin="round" stroke-opacity="0.4509804" stroke-width="0.05"/>
      <path d="M-12.0 -18.05 L-11.45 -18.8 -11.1 -18.95 -10.85 -18.95 Q-10.75 -18.95 -10.8 -18.7 L-11.05 -18.4 -11.7 -17.9 Q-12.2 -17.45 -12.35 -17.5 L-12.4 -17.6 -12.3 -17.6 -12.0 -18.05" fill="#da9147" fill-rule="evenodd" stroke="none"/>
      <path d="M-13.4 -16.0 L-13.05 -16.9 -12.9 -17.3 -12.5 -17.75 -12.4 -17.95 Q-10.65 -20.35 -10.15 -18.4 -10.15 -17.65 -9.55 -16.55 L-9.55 -16.5 -9.55 -16.6 -9.4 -16.6 -8.75 -16.55 -8.15 -16.45 -6.75 -16.45 -6.7 -16.45 -6.55 -16.45 -6.05 -16.45 -6.0 -16.4 -5.8 -16.2 Q-5.3 -15.3 -5.35 -14.7 L-5.85 -14.45 -6.45 -13.3 -6.6 -13.35 -7.0 -13.25 -7.85 -13.2 -10.3 -12.9 Q-11.85 -12.8 -12.3 -13.5 L-12.35 -13.55 -12.55 -13.8 -13.2 -15.25 Q-13.25 -16.15 -13.4 -16.0 M-12.0 -18.05 L-12.3 -17.6 -12.4 -17.6 -12.35 -17.5 Q-12.2 -17.45 -11.7 -17.9 L-11.05 -18.4 -10.8 -18.7 Q-10.75 -18.95 -10.85 -18.95 L-11.1 -18.95 -11.45 -18.8 -12.0 -18.05" fill="url(#gradient2)" fill-rule="evenodd" stroke="none"/>
      <path d="M-13.4 -16.0 Q-13.25 -16.15 -13.2 -15.25 L-12.55 -13.8 -12.35 -13.55 -12.3 -13.5 Q-11.85 -12.8 -10.3 -12.9 L-7.85 -13.2 -7.0 -13.25 -6.6 -13.35 -6.45 -13.3 -5.85 -14.45 -5.35 -14.7 -5.3 -14.25 -5.7 -11.7 -5.7 -11.3 -6.0 -11.35 -6.05 -11.3 -6.15 -11.3 -7.6 -11.55 -8.7 -11.5 -9.85 -11.6 -10.35 -11.6 -10.45 -11.6 -11.45 -11.8 -11.7 -12.0 -12.4 -12.5 -12.85 -12.95 -12.9 -12.9 -13.15 -13.9 Q-13.5 -14.75 -13.4 -16.0" fill="url(#gradient3)" fill-rule="evenodd" stroke="none"/>
      <path d="M-5.35 -14.7 Q-5.3 -15.3 -5.8 -16.2 L-6.0 -16.4 -6.05 -16.45 -6.55 -16.45 -6.7 -16.45 -6.75 -16.45 -8.15 -16.45 -8.75 -16.55 -9.4 -16.6 -9.55 -16.6 -9.55 -16.5 -9.55 -16.55 Q-10.15 -17.65 -10.15 -18.4 -10.65 -20.35 -12.4 -17.95 L-12.5 -17.75 -12.9 -17.3 -13.05 -16.9 -13.4 -16.0" fill="none" stroke="#000000" stroke-linecap="round" stroke-linejoin="round" stroke-opacity="0.4509804" stroke-width="0.05"/>
    </g>
    <radialGradient cx="0" cy="0" gradientTransform="matrix(0.0057, -0.002, 0.0018, 0.0051, -10.65, -16.6)" gradientUnits="userSpaceOnUse" id="gradient0" r="819.2" spreadMethod="pad">
      <stop offset="0.0" stop-color="#b67023"/>
      <stop offset="1.0" stop-color="#87511b"/>
    </radialGradient>
    <linearGradient gradientTransform="matrix(-0.0028, -4.0E-4, 4.0E-4, -0.0019, -12.0, -12.8)" gradientUnits="userSpaceOnUse" id="gradient1" spreadMethod="pad" x1="-819.2" x2="819.2">
      <stop offset="0.0" stop-color="#734415"/>
      <stop offset="1.0" stop-color="#a66620"/>
    </linearGradient>
    <radialGradient cx="0" cy="0" gradientTransform="matrix(-0.0058, -8.0E-4, -6.0E-4, 0.0054, 9.5, -16.2)" gradientUnits="userSpaceOnUse" id="gradient2" r="819.2" spreadMethod="pad">
      <stop offset="0.0" stop-color="#b67023"/>
      <stop offset="1.0" stop-color="#87511b"/>
    </radialGradient>
    <linearGradient gradientTransform="matrix(0.0025, -0.001, -8.0E-4, -0.0018, 11.55, -12.8)" gradientUnits="userSpaceOnUse" id="gradient3" spreadMethod="pad" x1="-819.2" x2="819.2">
      <stop offset="0.0" stop-color="#734415"/>
      <stop offset="1.0" stop-color="#a66620"/>
    </linearGradient>
  </defs>
</svg>
