<?xml version="1.0" encoding="UTF-8" standalone="no"?>
<svg xmlns:xlink="http://www.w3.org/1999/xlink" height="440.0px" width="440.0px" xmlns="http://www.w3.org/2000/svg">
  <g transform="matrix(10.0, 0.0, 0.0, 10.0, 0.0, 0.0)">
    <use height="44.0" transform="matrix(0.9091, 0.0, 0.0, 0.9091, 2.0, 2.0)" width="44.0" xlink:href="#sprite0"/>
  </g>
  <defs>
    <g id="sprite0" transform="matrix(1.0, 0.0, 0.0, 1.0, 0.0, 0.0)">
      <use height="44.0" transform="matrix(1.0, 0.0, 0.0, 1.0, 0.0, 0.0)" width="44.0" xlink:href="#shape0"/>
      <use height="15.45" transform="matrix(1.2541, 0.0, 0.0, 1.2541, 3.0, 12.3)" width="30.3" xlink:href="#sprite1"/>
    </g>
    <g id="shape0" transform="matrix(1.0, 0.0, 0.0, 1.0, 0.0, 0.0)">
      <path d="M44.0 44.0 L0.0 44.0 0.0 0.0 44.0 0.0 44.0 44.0" fill="#43adca" fill-opacity="0.0" fill-rule="evenodd" stroke="none"/>
    </g>
    <g id="sprite1" transform="matrix(1.0, 0.0, 0.0, 1.0, 0.0, 0.0)">
      <use height="15.45" transform="matrix(1.0, 0.0, 0.0, 1.0, 0.0, 0.0)" width="30.3" xlink:href="#sprite2"/>
    </g>
    <g id="sprite2" transform="matrix(1.0, 0.0, 0.0, 1.0, 14.75, 18.3)">
      <use height="15.45" transform="matrix(1.0, 0.0, 0.0, 1.0, -14.75, -18.3)" width="30.3" xlink:href="#shape1"/>
    </g>
    <g id="shape1" transform="matrix(1.0, 0.0, 0.0, 1.0, 14.75, 18.3)">
      <path d="M1.4 -18.2 L1.6 -18.3 0.4 -16.9 -0.15 -16.3 -4.65 -10.45 -5.55 -9.2 -5.95 -9.4 -2.35 -14.2 1.4 -18.2" fill="#426dac" fill-rule="evenodd" stroke="none"/>
      <path d="M1.45 -18.3 L1.4 -18.2 1.35 -18.2 1.45 -18.3" fill="#9b9a42" fill-rule="evenodd" stroke="none"/>
      <path d="M-10.4 -14.0 Q-5.95 -16.2 -3.4 -17.0 L0.15 -17.95 1.45 -18.3 1.35 -18.2 0.05 -17.1 -0.7 -16.45 -4.45 -12.9 -7.6 -9.8 Q-10.95 -11.6 -10.4 -14.0 M-7.05 -14.65 Q-7.1 -14.05 -6.1 -13.5 L-4.45 -12.9 -6.1 -13.5 Q-7.1 -14.05 -7.05 -14.65 M-5.55 -9.2 L-4.65 -10.45 -0.15 -16.3 0.4 -16.9 1.6 -18.3 1.7 -18.3 3.4 -17.55 7.15 -15.2 Q10.05 -13.4 14.1 -9.2 L15.55 -7.9 Q15.4 -7.2 14.6 -6.6 L15.15 -5.9 14.7 -5.55 14.0 -6.25 Q12.85 -5.6 10.7 -5.25 L10.6 -5.2 11.4 -2.85 10.55 -2.9 9.85 -5.15 3.5 -4.9 3.4 -3.85 2.75 -4.0 3.05 -4.9 3.4 -4.9 3.5 -4.9 3.4 -4.9 Q-1.9 -6.3 -5.9 -8.65 L-5.55 -9.2 M-3.6 -15.15 L-6.1 -13.5 -3.6 -15.15 M10.6 -5.2 L9.85 -5.15 10.6 -5.2 M10.45 -10.65 L12.85 -8.35 14.1 -9.2 12.85 -8.35 Q9.85 -6.9 3.1 -7.35 9.85 -6.9 12.85 -8.35 L10.45 -10.65 M14.6 -6.6 L14.0 -6.25 14.6 -6.6 M2.0 -9.1 Q-2.85 -9.55 -4.65 -10.45 -2.85 -9.55 2.0 -9.1" fill="#d8ca7c" fill-rule="evenodd" stroke="none"/>
      <path d="M-10.4 -14.0 Q-10.95 -11.6 -7.6 -9.8 L-4.45 -12.9 -0.7 -16.45 0.05 -17.1 1.35 -18.2 1.4 -18.2 -2.35 -14.2 -6.55 -9.7 -6.6 -9.6 -8.2 -7.9 -8.3 -7.95 -9.6 -7.5 -10.75 -8.05 -11.35 -8.35 -13.7 -6.9 -14.6 -7.35 -12.15 -8.8 Q-14.6 -10.3 -14.75 -11.7 L-10.4 -14.0 M3.05 -4.9 L-0.2 -5.25 Q-4.1 -5.8 -7.2 -6.75 L-6.8 -7.35 -5.9 -8.65 Q-1.9 -6.3 3.4 -4.9 L3.05 -4.9 M-12.15 -8.8 L-11.35 -8.35 -12.15 -8.8 M-9.6 -7.5 L-7.6 -9.8 -6.6 -9.6 -7.6 -9.8 -9.6 -7.5" fill="#b19741" fill-rule="evenodd" stroke="none"/>
      <path d="M-2.35 -14.2 L-5.95 -9.4 -5.55 -9.2 -5.9 -8.65 -6.8 -7.35 -8.2 -7.9 -6.6 -9.6 -6.55 -9.7 -5.95 -9.4 -6.55 -9.7 -2.35 -14.2" fill="#2e393d" fill-rule="evenodd" stroke="none"/>
      <path d="M1.45 -18.3 L0.15 -17.95 -3.4 -17.0 Q-5.95 -16.2 -10.4 -14.0 M-7.6 -9.8 L-4.45 -12.9 -6.1 -13.5 Q-7.1 -14.05 -7.05 -14.65 M1.6 -18.3 L1.4 -18.2 -2.35 -14.2 -6.55 -9.7 -6.6 -9.6 -8.2 -7.9 -8.3 -7.95 -9.6 -7.5 -10.75 -8.05 -11.35 -8.35 -13.7 -6.9 -14.6 -7.35 -12.15 -8.8 Q-14.6 -10.3 -14.75 -11.7 L-10.4 -14.0 M-5.95 -9.4 L-5.55 -9.2 -4.65 -10.45 -0.15 -16.3 0.4 -16.9 1.6 -18.3 1.7 -18.3 3.4 -17.55 7.15 -15.2 Q10.05 -13.4 14.1 -9.2 L15.55 -7.9 Q15.4 -7.2 14.6 -6.6 L15.15 -5.9 14.7 -5.55 14.0 -6.25 Q12.85 -5.6 10.7 -5.25 L10.6 -5.2 11.4 -2.85 10.55 -2.9 9.85 -5.15 3.5 -4.9 3.4 -3.85 2.75 -4.0 3.05 -4.9 -0.2 -5.25 Q-4.1 -5.8 -7.2 -6.75 L-6.8 -7.35 -8.2 -7.9 M1.4 -18.2 L1.45 -18.3 1.35 -18.2 0.05 -17.1 -0.7 -16.45 -4.45 -12.9 M3.4 -4.9 L3.05 -4.9 M3.5 -4.9 L3.4 -4.9 M-5.9 -8.65 L-6.8 -7.35 M14.0 -6.25 L14.6 -6.6 M14.1 -9.2 L12.85 -8.35 Q9.85 -6.9 3.1 -7.35 M12.85 -8.35 L10.45 -10.65 M9.85 -5.15 L10.6 -5.2 M-6.1 -13.5 L-3.6 -15.15 M-11.35 -8.35 L-12.15 -8.8 M-6.55 -9.7 L-5.95 -9.4 M-5.9 -8.65 L-5.55 -9.2 M-6.6 -9.6 L-7.6 -9.8 -9.6 -7.5 M-4.65 -10.45 Q-2.85 -9.55 2.0 -9.1" fill="none" stroke="#000000" stroke-linecap="round" stroke-linejoin="round" stroke-opacity="0.3019608" stroke-width="0.05"/>
      <path d="M5.2 -16.05 Q10.65 -12.9 13.95 -8.25 L12.5 -7.8 Q9.0 -12.95 2.35 -17.6 3.8 -16.8 5.2 -16.05" fill="#fbf1bf" fill-rule="evenodd" stroke="none"/>
      <path d="M5.3 -14.7 L4.3 -14.6 Q3.75 -12.75 1.8 -11.45 L2.8 -11.6 Q4.35 -12.35 4.7 -13.5 L5.8 -13.75 Q7.45 -12.85 8.85 -12.3 L10.5 -12.35 Q7.75 -13.0 5.3 -14.7 M3.5 -9.8 L6.6 -10.2 7.1 -8.85 6.25 -8.8 5.25 -9.6 4.75 -9.5 5.7 -8.7 4.8 -8.65 5.05 -7.95 9.7 -8.5 9.45 -9.25 8.75 -9.15 9.0 -10.0 8.55 -10.0 8.3 -9.05 7.55 -9.0 6.95 -10.3 10.15 -10.6 9.95 -11.15 7.0 -10.8 6.7 -11.8 8.05 -11.9 7.85 -12.55 3.9 -12.05 4.1 -11.35 6.0 -11.65 6.35 -10.7 3.25 -10.35 3.5 -9.8" fill="#243a5b" fill-rule="evenodd" stroke="none"/>
      <path d="M10.75 -7.35 Q6.85 -5.65 2.9 -6.15 L3.1 -7.35 Q7.5 -6.65 12.7 -8.35 L10.75 -7.35" fill="#fbf1bf" fill-rule="evenodd" stroke="none"/>
      <path d="M-7.6 -12.05 Q-10.35 -10.2 -10.85 -10.8 -11.35 -11.4 -10.85 -12.45 -10.35 -13.5 -8.6 -14.45 -6.75 -15.35 -5.35 -15.7 -3.95 -16.05 -3.5 -15.5 L-2.85 -15.0 -4.0 -14.7 Q-4.9 -13.9 -7.6 -12.05" fill="#c5b15e" fill-rule="evenodd" stroke="none"/>
      <path d="M-2.5 -8.85 Q-5.75 -9.05 -4.8 -8.4 -5.95 -8.8 -5.8 -9.1 L-2.5 -8.85" fill="#000000" fill-opacity="0.3019608" fill-rule="evenodd" stroke="none"/>
      <path d="M-4.8 -8.4 L-2.9 -8.05 M-4.8 -8.4 Q-5.95 -8.8 -5.8 -9.1 L-2.5 -8.85" fill="none" stroke="#000000" stroke-linecap="round" stroke-linejoin="round" stroke-opacity="0.3019608" stroke-width="0.05"/>
      <path d="M-9.0 -9.6 L-6.75 -9.75 Q-6.9 -10.3 -8.5 -11.15 -7.0 -9.75 -9.0 -9.6" fill="#000000" fill-opacity="0.3019608" fill-rule="evenodd" stroke="none"/>
      <path d="M-9.0 -9.6 L-6.75 -9.75 Q-6.9 -10.3 -8.5 -11.15 M-9.0 -9.6 L-10.7 -10.25" fill="none" stroke="#000000" stroke-linecap="round" stroke-linejoin="round" stroke-opacity="0.3019608" stroke-width="0.05"/>
      <path d="M-7.55 -10.05 Q-6.55 -9.2 -4.4 -9.05 L-5.15 -8.45 Q-7.85 -8.6 -8.3 -9.45 L-7.55 -10.05" fill="#ffa004" fill-rule="evenodd" stroke="none"/>
      <path d="M-7.55 -10.05 L-8.3 -9.45 Q-7.85 -8.6 -5.15 -8.45 L-4.4 -9.05 Q-6.55 -9.2 -7.55 -10.05 Z" fill="none" stroke="#000000" stroke-linecap="round" stroke-linejoin="round" stroke-opacity="0.3019608" stroke-width="0.05"/>
      <path d="M-2.9 -11.95 Q-3.8 -12.2 -3.7 -12.5 L-1.05 -12.35 Q-3.65 -12.45 -2.9 -11.95" fill="#000000" fill-opacity="0.3019608" fill-rule="evenodd" stroke="none"/>
      <path d="M-2.9 -11.95 Q-3.8 -12.2 -3.7 -12.5 L-1.05 -12.35 M-2.9 -11.95 L-1.3 -11.6" fill="none" stroke="#000000" stroke-linecap="round" stroke-linejoin="round" stroke-opacity="0.3019608" stroke-width="0.05"/>
      <path d="M-5.95 -14.2 Q-4.7 -12.95 -6.4 -12.9 L-4.55 -13.0 Q-4.6 -13.5 -5.95 -14.2" fill="#000000" fill-opacity="0.3019608" fill-rule="evenodd" stroke="none"/>
      <path d="M-6.4 -12.9 L-7.8 -13.45 M-6.4 -12.9 L-4.55 -13.0 Q-4.6 -13.5 -5.95 -14.2" fill="none" stroke="#000000" stroke-linecap="round" stroke-linejoin="round" stroke-opacity="0.3019608" stroke-width="0.05"/>
      <path d="M-5.2 -13.25 Q-4.35 -12.55 -2.6 -12.4 L-3.2 -11.95 Q-5.45 -12.05 -5.8 -12.8 L-5.2 -13.25" fill="#ffa004" fill-rule="evenodd" stroke="none"/>
      <path d="M-5.2 -13.25 L-5.8 -12.8 Q-5.45 -12.05 -3.2 -11.95 L-2.6 -12.4 Q-4.35 -12.55 -5.2 -13.25 Z" fill="none" stroke="#000000" stroke-linecap="round" stroke-linejoin="round" stroke-opacity="0.3019608" stroke-width="0.05"/>
    </g>
  </defs>
</svg>
