<?xml version="1.0" encoding="UTF-8" standalone="no"?>
<svg xmlns:xlink="http://www.w3.org/1999/xlink" height="440.0px" width="440.0px" xmlns="http://www.w3.org/2000/svg">
  <g transform="matrix(10.0, 0.0, 0.0, 10.0, 0.0, 0.0)">
    <use height="44.0" transform="matrix(0.9091, 0.0, 0.0, 0.9091, 2.0, 2.0)" width="44.0" xlink:href="#sprite0"/>
  </g>
  <defs>
    <g id="sprite0" transform="matrix(1.0, 0.0, 0.0, 1.0, 0.0, 0.0)">
      <use height="44.0" transform="matrix(1.0, 0.0, 0.0, 1.0, 0.0, 0.0)" width="44.0" xlink:href="#shape0"/>
      <use height="27.05" transform="matrix(1.3333, 0.0, 0.0, 1.3333, 3.0, 4.0)" width="28.5" xlink:href="#sprite1"/>
    </g>
    <g id="shape0" transform="matrix(1.0, 0.0, 0.0, 1.0, 0.0, 0.0)">
      <path d="M44.0 44.0 L0.0 44.0 0.0 0.0 44.0 0.0 44.0 44.0" fill="#43adca" fill-opacity="0.0" fill-rule="evenodd" stroke="none"/>
    </g>
    <g id="sprite1" transform="matrix(1.0, 0.0, 0.0, 1.0, 0.0, 0.0)">
      <use height="27.05" transform="matrix(1.0, 0.0, 0.0, 1.0, 0.0, 0.0)" width="28.5" xlink:href="#sprite2"/>
    </g>
    <g id="sprite2" transform="matrix(1.0, 0.0, 0.0, 1.0, 13.4, 25.8)">
      <use height="27.05" transform="matrix(1.0, 0.0, 0.0, 1.0, -13.4, -25.8)" width="28.5" xlink:href="#shape1"/>
    </g>
    <g id="shape1" transform="matrix(1.0, 0.0, 0.0, 1.0, 13.4, 25.8)">
      <path d="M6.55 -16.05 L8.05 -15.0 Q10.15 -13.5 10.25 -11.5 10.35 -9.55 8.95 -6.65 L7.95 -4.25 7.45 -2.5 7.05 -2.45 6.9 -3.65 Q8.25 -5.55 9.4 -10.9 8.85 -13.45 6.55 -16.05" fill="#c3b3a3" fill-rule="evenodd" stroke="none"/>
      <path d="M7.45 -2.5 L7.15 -1.25 7.05 -2.45 7.45 -2.5" fill="#ffffff" fill-rule="evenodd" stroke="none"/>
      <path d="M6.9 -3.65 L6.2 -10.55 Q4.8 -15.0 2.25 -17.65 L3.5 -17.95 5.35 -16.8 Q5.45 -16.7 5.55 -16.7 L6.55 -16.05 Q8.85 -13.45 9.4 -10.9 8.25 -5.55 6.9 -3.65" fill="#9e7e69" fill-rule="evenodd" stroke="none"/>
      <path d="M6.55 -16.05 L8.05 -15.0 Q10.15 -13.5 10.25 -11.5 10.35 -9.55 8.95 -6.65 L7.95 -4.25 M7.45 -2.5 L7.15 -1.25 7.05 -2.45 6.9 -3.65 6.2 -10.55 Q4.8 -15.0 2.25 -17.65 L3.5 -17.95 5.35 -16.8 M5.55 -16.7 L6.55 -16.05 Z" fill="none" stroke="#000000" stroke-linecap="round" stroke-linejoin="round" stroke-opacity="0.4" stroke-width="0.05"/>
      <path d="M-1.6 -4.3 L-1.6 -4.2 -6.45 -4.1 Q-7.85 -5.35 -7.75 -8.45 -6.45 -10.55 -6.25 -12.75 L-6.15 -12.85 Q-4.6 -14.55 -4.25 -16.1 L-3.3 -17.05 -2.55 -14.4 -2.5 -14.2 -2.3 -11.9 -2.2 -10.8 -2.2 -6.85 -1.6 -4.3" fill="#c3b3a3" fill-rule="evenodd" stroke="none"/>
      <path d="M-1.6 -4.3 L-1.15 -2.9 -0.55 -1.55 Q0.1 -0.15 1.05 1.25 0.55 0.85 -0.55 0.35 L-1.15 0.1 -3.4 -0.75 -3.85 -0.95 -5.1 -1.45 Q-7.35 -2.55 -8.8 -3.8 -9.75 -4.7 -9.15 -7.15 -8.6 -9.75 -6.25 -12.75 -6.45 -10.55 -7.75 -8.45 -7.85 -5.35 -6.45 -4.1 L-1.6 -4.2 -1.6 -4.3" fill="#ffffff" fill-rule="evenodd" stroke="none"/>
      <path d="M-6.25 -12.75 Q-8.6 -9.75 -9.15 -7.15 -9.75 -4.7 -8.8 -3.8 -7.35 -2.55 -5.1 -1.45 L-3.85 -0.95 -3.4 -0.75 -1.15 0.1 -0.55 0.35 Q0.55 0.85 1.05 1.25 0.1 -0.15 -0.55 -1.55 L-1.15 -2.9 -1.6 -4.3 M-6.25 -12.75 L-6.15 -12.85 Q-4.6 -14.55 -4.25 -16.1 L-3.3 -17.05 -2.55 -14.4 M-2.5 -14.2 L-2.3 -11.9 M-2.2 -10.8 L-2.2 -6.85 -1.6 -4.3" fill="none" stroke="#000000" stroke-linecap="round" stroke-linejoin="round" stroke-opacity="0.4" stroke-width="0.05"/>
      <path d="M4.9 -17.35 L5.8 -17.65 5.9 -17.65 5.95 -17.75 6.15 -17.75 6.2 -17.75 6.75 -18.05 8.55 -18.7 9.0 -18.85 10.2 -19.35 12.0 -20.05 14.15 -22.9 15.05 -25.1 15.05 -25.2 15.05 -24.45 14.95 -23.65 14.95 -23.4 14.6 -22.1 14.6 -22.0 14.55 -21.85 14.4 -21.5 13.65 -19.9 13.3 -19.35 12.8 -18.8 12.25 -18.15 12.2 -18.15 12.2 -18.1 12.15 -18.0 11.15 -17.2 11.05 -17.1 11.1 -17.2 11.7 -17.7 Q12.85 -18.75 13.2 -19.35 11.85 -18.1 10.45 -17.55 L6.6 -15.9 Q4.45 -15.0 4.3 -14.7 L4.15 -15.0 Q3.8 -15.7 3.75 -16.25 L3.75 -16.3 3.9 -16.9 4.5 -17.15 4.9 -17.35 M9.05 -18.95 L9.1 -18.95 9.15 -19.0 9.25 -19.0 9.05 -18.95 M15.05 -25.7 L15.05 -25.3 15.05 -25.45 15.1 -25.7 15.05 -25.7 M6.3 -14.75 L6.05 -14.65 5.9 -14.65 6.0 -14.65 6.05 -14.7 6.3 -14.75 M14.95 -23.65 L15.0 -24.45 15.05 -25.1 15.0 -24.45 14.95 -23.65 M12.8 -18.8 L13.3 -19.35 13.6 -19.9 14.4 -21.5 14.55 -21.85 14.4 -21.5 13.6 -19.9 13.3 -19.35 12.8 -18.8 M11.1 -17.2 L12.1 -18.0 12.2 -18.1 12.1 -18.0 11.1 -17.2" fill="#505140" fill-rule="evenodd" stroke="none"/>
      <path d="M10.15 -19.45 L10.6 -19.7 Q11.6 -20.25 12.4 -21.0 L12.65 -21.3 12.75 -21.45 12.8 -21.45 13.25 -22.1 13.45 -22.45 14.4 -24.05 14.5 -24.3 14.6 -24.55 15.05 -25.7 15.1 -25.7 15.05 -25.45 15.05 -25.1 14.15 -22.9 12.0 -20.05 10.2 -19.35 10.15 -19.45 M11.05 -17.1 L9.8 -16.35 9.15 -16.05 8.15 -15.5 7.9 -15.4 7.75 -15.35 7.6 -15.25 Q6.95 -14.95 6.3 -14.75 L6.05 -14.7 6.0 -14.65 5.9 -14.65 5.5 -14.5 4.85 -14.35 4.75 -14.35 4.7 -14.3 4.6 -14.35 4.3 -14.7 Q4.45 -15.0 6.6 -15.9 L10.45 -17.55 Q11.85 -18.1 13.2 -19.35 12.85 -18.75 11.7 -17.7 L11.1 -17.2 11.05 -17.1" fill="#343429" fill-rule="evenodd" stroke="none"/>
      <path d="M8.8 -18.85 L8.95 -18.85 9.0 -18.85 9.05 -18.9 9.05 -18.95 9.25 -19.0 9.5 -19.1 10.0 -19.35 10.15 -19.45 10.2 -19.35 9.0 -18.85 8.8 -18.85 M14.5 -24.3 L14.55 -24.45 14.6 -24.55 14.5 -24.3 M15.05 -25.7 L15.05 -25.8 15.05 -25.7 15.1 -25.7 15.05 -25.7 M15.05 -25.3 L15.05 -25.25 15.05 -25.2 15.05 -25.1 15.05 -25.45 15.05 -25.3 M9.8 -16.35 L9.55 -16.2 9.15 -16.05 9.8 -16.35 M4.6 -14.35 L4.3 -14.65 4.3 -14.7 4.6 -14.35 M6.0 -14.65 L5.9 -14.65 6.0 -14.65 M15.05 -25.8 L15.1 -25.7 15.05 -25.8" fill="#000000" fill-opacity="0.2509804" fill-rule="evenodd" stroke="none"/>
      <path d="M4.9 -17.35 L5.8 -17.65 5.9 -17.65 5.95 -17.75 6.15 -17.75 6.75 -18.05 8.55 -18.7 8.8 -18.85 8.95 -18.85 9.0 -18.85 9.05 -18.9 9.05 -18.95 9.1 -18.95 9.15 -19.0 9.2 -19.0 10.0 -19.35 10.15 -19.45 10.6 -19.7 Q11.6 -20.25 12.4 -21.0 L12.65 -21.3 12.75 -21.45 12.8 -21.45 13.25 -22.1 13.45 -22.45 14.4 -24.05 14.5 -24.3 14.6 -24.55 15.05 -25.7 15.05 -25.8 M14.55 -24.45 L14.6 -24.55 M14.95 -23.65 L14.95 -23.4 14.6 -22.1 14.6 -22.0 14.55 -21.85 14.4 -21.5 13.6 -19.9 13.3 -19.35 12.8 -18.8 12.25 -18.15 12.2 -18.15 12.2 -18.1 12.1 -18.0 11.1 -17.2 11.05 -17.1 9.8 -16.35 M9.15 -16.05 L8.15 -15.5 7.9 -15.4 7.6 -15.25 Q6.95 -14.95 6.3 -14.75 M5.9 -14.65 L5.5 -14.5 4.85 -14.35 4.75 -14.35 4.7 -14.3 4.6 -14.35 4.3 -14.7 4.15 -14.95 3.75 -16.25 3.75 -16.3 3.85 -16.9 4.45 -17.15 4.9 -17.35 M6.0 -14.65 L6.05 -14.7 6.3 -14.75 M5.9 -14.65 L6.0 -14.65 M15.1 -25.7 L15.05 -25.45 15.05 -25.1 15.0 -24.45 14.95 -23.65 M15.1 -25.7 L15.05 -25.8 M9.15 -16.05 L9.8 -16.35" fill="none" stroke="#000000" stroke-linecap="round" stroke-linejoin="round" stroke-opacity="0.3019608" stroke-width="0.05"/>
      <path d="M-9.35 -12.7 L-9.2 -12.75 -8.8 -12.8 -8.35 -12.95 -8.15 -12.95 -7.9 -13.05 -7.2 -13.15 -5.6 -13.7 -4.85 -13.95 -3.65 -14.4 -2.7 -14.8 -1.7 -15.15 -1.15 -14.9 -8.7 -12.6 -9.35 -12.7" fill="#3e3e31" fill-rule="evenodd" stroke="none"/>
      <path d="M-9.35 -12.7 L-8.7 -12.6 -1.15 -14.9 -0.9 -14.6 Q-0.6 -14.1 -0.55 -13.05 L-0.55 -13.0 -0.6 -12.65 Q-4.2 -10.85 -8.85 -10.8 L-10.5 -11.95 -10.8 -13.4 -9.15 -16.8 -9.4 -16.55 -9.45 -16.55 -9.15 -16.8 -9.15 -16.85 -8.4 -17.7 Q-8.3 -17.15 -8.65 -16.5 L-9.0 -15.95 -9.2 -15.5 -9.75 -14.65 -9.95 -14.25 -10.4 -13.1 -10.35 -13.0 Q-10.45 -12.75 -10.1 -12.65 L-9.8 -12.7 -9.5 -12.7 -9.35 -12.7 M-8.2 -9.85 L-8.3 -9.85 -9.05 -9.75 -9.3 -9.75 -8.2 -9.85 M-9.15 -16.8 L-9.4 -16.55 -9.15 -16.8" fill="#505140" fill-rule="evenodd" stroke="none"/>
      <path d="M-0.6 -12.65 L-0.9 -12.1 -2.2 -11.3 -2.3 -11.3 -2.4 -11.3 -2.5 -11.2 -3.7 -10.85 -4.55 -10.6 -6.25 -10.15 -6.7 -10.05 -7.15 -10.0 -7.2 -10.0 -7.45 -9.95 -7.85 -9.9 -8.2 -9.85 -9.3 -9.75 -10.35 -9.7 Q-12.4 -9.7 -13.05 -10.2 L-13.4 -10.7 Q-13.45 -11.85 -12.85 -13.0 L-11.7 -14.45 -11.55 -14.6 -10.5 -15.6 -10.2 -15.9 -9.9 -16.15 -9.8 -16.2 -9.6 -16.35 -9.4 -16.55 -9.15 -16.8 -10.8 -13.4 -10.5 -11.95 -8.85 -10.8 Q-4.2 -10.85 -0.6 -12.65" fill="#343429" fill-rule="evenodd" stroke="none"/>
      <path d="M-9.6 -16.35 L-9.45 -16.55 -9.4 -16.55 -9.6 -16.35 M-9.5 -12.7 L-9.45 -12.7 -9.35 -12.7 -9.5 -12.7" fill="#000000" fill-opacity="0.2509804" fill-rule="evenodd" stroke="none"/>
      <path d="M-1.15 -14.9 L-1.7 -15.15 -2.7 -14.8 -3.65 -14.4 -4.85 -13.95 -5.6 -13.7 -7.2 -13.15 -7.9 -13.05 -8.15 -12.95 -8.35 -12.95 -8.8 -12.8 -9.2 -12.75 -9.35 -12.7 M-1.15 -14.9 L-0.9 -14.6 Q-0.6 -14.1 -0.55 -13.05 L-0.55 -13.0 -0.6 -12.65 -0.9 -12.1 -2.2 -11.3 -2.3 -11.3 -2.4 -11.3 -2.5 -11.2 -3.7 -10.85 -4.55 -10.6 -6.25 -10.15 -6.7 -10.05 -7.15 -10.0 -7.2 -10.0 -7.85 -9.9 M-8.3 -9.85 L-9.05 -9.75 -9.3 -9.75 -10.35 -9.7 Q-12.4 -9.7 -13.05 -10.2 L-13.4 -10.7 Q-13.45 -11.85 -12.85 -13.0 L-11.7 -14.45 -11.55 -14.6 -10.5 -15.6 -10.2 -15.9 -9.9 -16.15 -9.8 -16.2 -9.6 -16.35 M-9.15 -16.8 L-9.15 -16.85 -8.4 -17.7 Q-8.3 -17.15 -8.65 -16.5 L-9.0 -15.95 -9.2 -15.5 -9.75 -14.65 -9.95 -14.25 -10.4 -13.1 -10.35 -13.0 Q-10.45 -12.75 -10.1 -12.65 L-9.8 -12.7 -9.5 -12.7 -9.45 -12.7 -9.35 -12.7 M-9.4 -16.55 L-9.15 -16.8 M-9.4 -16.55 L-9.6 -16.35" fill="none" stroke="#000000" stroke-linecap="round" stroke-linejoin="round" stroke-opacity="0.3019608" stroke-width="0.05"/>
      <path d="M2.7 -13.95 L3.2 -15.45 4.9 -16.6 4.9 -18.0 5.9 -17.25 6.25 -15.5 Q5.0 -14.55 2.7 -13.95" fill="#ffffff" fill-rule="evenodd" stroke="none"/>
      <path d="M2.7 -13.95 L2.65 -13.95 -2.1 -14.2 -3.75 -15.3 -3.35 -16.95 Q-2.45 -18.15 0.05 -18.7 2.65 -18.9 4.65 -18.15 L4.9 -18.0 4.9 -16.6 3.2 -15.45 2.7 -13.95" fill="#c3b3a3" fill-rule="evenodd" stroke="none"/>
      <path d="M4.9 -18.0 L4.65 -18.15 Q2.65 -18.9 0.05 -18.7 -2.45 -18.15 -3.35 -16.95 L-3.75 -15.3 -2.1 -14.2 2.65 -13.95 M4.9 -18.0 L5.9 -17.25 6.25 -15.5 Q5.0 -14.55 2.7 -13.95" fill="none" stroke="#000000" stroke-linecap="round" stroke-linejoin="round" stroke-opacity="0.4" stroke-width="0.05"/>
      <path d="M2.1 -13.65 L1.7 -13.6 1.15 -13.6 -0.2 -14.9 0.6 -14.95 2.1 -13.65 M1.25 -14.95 Q3.2 -15.1 4.55 -15.65 L4.95 -14.5 4.6 -14.35 3.05 -13.85 2.7 -13.8 1.25 -14.95 M4.9 -15.8 L4.95 -15.8 4.95 -15.85 5.45 -16.2 5.8 -15.1 5.3 -14.75 4.9 -15.8" fill="#ffcf2b" fill-rule="evenodd" stroke="none"/>
      <path d="M0.6 -14.95 L1.0 -14.95 1.25 -14.95 2.7 -13.8 2.1 -13.65 0.6 -14.95" fill="#a77700" fill-rule="evenodd" stroke="none"/>
      <path d="M4.55 -15.65 L4.6 -15.65 4.9 -15.8 5.3 -14.75 4.95 -14.5 4.55 -15.65 M5.45 -16.2 L5.55 -16.3 5.85 -16.7 6.3 -15.65 5.8 -15.1 5.45 -16.2" fill="#ffffd7" fill-rule="evenodd" stroke="none"/>
      <path d="M1.15 -13.6 Q-2.25 -13.7 -3.3 -14.45 L-3.2 -15.6 Q-1.9 -15.0 -0.2 -14.9 L1.15 -13.6" fill="#7b4b00" fill-rule="evenodd" stroke="none"/>
      <path d="M1.15 -13.6 Q-2.25 -13.7 -3.3 -14.45 L-3.2 -15.6 Q-1.9 -15.0 -0.2 -14.9" fill="none" stroke="#000000" stroke-linecap="round" stroke-linejoin="round" stroke-opacity="0.4" stroke-width="0.05"/>
      <path d="M2.1 -13.65 L1.7 -13.6 1.15 -13.6 M-0.2 -14.9 L0.6 -14.95 1.0 -14.95 1.25 -14.95 Q3.2 -15.1 4.55 -15.65 M4.6 -15.65 L4.9 -15.8 M4.95 -15.8 L4.95 -15.85 M4.95 -14.5 L4.6 -14.35 3.05 -13.85 2.7 -13.8 2.1 -13.65" fill="none" stroke="#000000" stroke-linecap="round" stroke-linejoin="round" stroke-opacity="0.4" stroke-width="0.05"/>
      <path d="M4.95 -15.85 L5.45 -16.2 M5.55 -16.3 L5.85 -16.7 6.3 -15.65 5.8 -15.1 5.3 -14.75 4.95 -14.5" fill="none" stroke="#000000" stroke-linecap="round" stroke-linejoin="round" stroke-opacity="0.4" stroke-width="0.05"/>
      <path d="M2.5 -14.95 L2.5 -15.0 3.3 -15.15 3.4 -14.85 3.2 -14.6 2.5 -14.95 M3.85 -13.6 L3.5 -13.5 3.35 -13.6 3.8 -14.25 3.75 -15.3 3.65 -15.35 3.05 -16.55 4.1 -16.05 4.25 -15.35 4.2 -14.35 3.85 -13.6" fill="#ffcf2b" fill-rule="evenodd" stroke="none"/>
      <path d="M3.35 -13.6 L2.35 -14.25 2.5 -14.95 3.2 -14.6 3.4 -14.85 3.3 -15.15 3.0 -15.95 3.65 -15.35 3.75 -15.3 3.8 -14.25 3.35 -13.6" fill="#d1a100" fill-rule="evenodd" stroke="none"/>
      <path d="M4.25 -16.05 L4.7 -15.25 4.35 -13.8 3.85 -13.6 4.2 -14.35 4.25 -15.35 4.1 -16.05 4.25 -16.05" fill="#ffffd7" fill-rule="evenodd" stroke="none"/>
      <path d="M3.8 -17.7 Q3.7 -17.3 3.75 -16.9 L4.25 -16.05 4.1 -16.05 3.05 -16.55 1.15 -18.8 Q1.0 -19.35 1.5 -20.05 L3.8 -17.7" fill="#b18100" fill-rule="evenodd" stroke="none"/>
      <path d="M3.0 -15.95 L2.85 -16.25 Q2.7 -16.75 0.65 -18.25 0.25 -18.75 0.25 -19.85 0.6 -21.1 1.65 -21.95 L4.25 -22.4 4.95 -21.35 5.1 -21.1 Q3.2 -21.25 1.5 -20.05 1.0 -19.35 1.15 -18.8 L3.05 -16.55 3.65 -15.35 3.0 -15.95" fill="#dfaf0b" fill-rule="evenodd" stroke="none"/>
      <path d="M5.1 -21.1 L5.05 -19.35 Q4.05 -18.45 3.8 -17.7 L1.5 -20.05 Q3.2 -21.25 5.1 -21.1" fill="#714100" fill-rule="evenodd" stroke="none"/>
      <path d="M3.35 -13.6 L2.35 -14.25 2.5 -14.95 2.5 -15.0 3.3 -15.15 3.0 -15.95 2.85 -16.25 Q2.7 -16.75 0.65 -18.25 0.25 -18.75 0.25 -19.85 0.6 -21.1 1.65 -21.95 L4.25 -22.4 4.95 -21.35 5.1 -21.1 5.05 -19.35 Q4.05 -18.45 3.8 -17.7 3.7 -17.3 3.75 -16.9 L4.25 -16.05 4.7 -15.25 4.35 -13.8 3.85 -13.6 3.5 -13.5 3.35 -13.6 M3.3 -15.15 L3.4 -14.85" fill="none" stroke="#926030" stroke-linecap="round" stroke-linejoin="round" stroke-width="0.05"/>
      <path d="M3.85 -23.15 L4.0 -23.15 4.05 -23.0 3.85 -23.15 M5.8 -19.85 L5.75 -19.85 5.65 -19.7 5.1 -19.35 5.1 -19.3 5.1 -19.35 5.0 -19.25 4.95 -19.25 4.45 -19.3 Q2.8 -19.7 2.15 -20.4 L2.05 -20.6 2.45 -20.55 3.15 -20.55 3.55 -20.75 3.4 -21.0 2.75 -21.15 2.7 -21.15 2.05 -21.1 1.8 -21.05 Q1.35 -21.3 1.3 -21.95 L1.55 -22.1 1.45 -22.25 Q0.65 -22.85 0.35 -22.55 L1.85 -22.7 2.0 -22.65 2.35 -22.7 2.35 -22.8 2.4 -23.0 Q2.5 -23.35 3.05 -22.7 3.35 -23.65 4.05 -22.3 L4.05 -23.0 Q4.7 -22.65 5.05 -21.55 5.75 -21.75 6.05 -21.0 L6.05 -20.9 Q6.1 -20.2 5.8 -19.85 M4.2 -21.1 L2.7 -21.15 4.2 -21.1" fill="#ffcf2b" fill-rule="evenodd" stroke="none"/>
      <path d="M5.1 -19.3 L5.0 -19.25 5.1 -19.35 5.1 -19.3" fill="#d1a100" fill-rule="evenodd" stroke="none"/>
      <path d="M2.05 -20.6 L1.8 -20.7 1.65 -20.9 1.8 -21.05 2.05 -21.1 2.7 -21.15 2.75 -21.15 3.4 -21.0 3.55 -20.75 3.15 -20.55 2.45 -20.55 2.05 -20.6" fill="#f40bae" fill-opacity="0.32156864" fill-rule="evenodd" stroke="none"/>
      <path d="M2.75 -23.8 L2.7 -24.1 2.65 -24.4 3.8 -23.2 2.75 -23.8 M4.35 -24.45 Q4.75 -24.95 5.65 -25.25 4.4 -24.45 4.7 -23.35 L4.35 -24.45 M5.55 -22.35 L5.8 -22.15 5.95 -22.0 Q6.45 -21.45 6.3 -20.7 L6.05 -20.2 5.8 -19.85 Q6.1 -20.2 6.05 -20.9 L6.05 -21.0 5.7 -21.95 5.55 -22.35 M5.95 -22.0 L5.7 -21.95 5.95 -22.0" fill="#ffffd7" fill-rule="evenodd" stroke="none"/>
      <path d="M1.0 -19.4 L0.95 -19.5 0.45 -20.1 Q0.35 -20.45 0.65 -21.1 L1.3 -21.95 Q1.35 -21.3 1.8 -21.05 L1.65 -20.9 1.8 -20.7 2.05 -20.6 2.15 -20.4 Q2.8 -19.7 4.45 -19.3 L4.25 -19.3 2.25 -19.45 Q2.15 -19.5 2.15 -19.5 L1.85 -19.5 2.0 -19.55 1.4 -19.65 1.0 -19.4" fill="#dfaf0b" fill-rule="evenodd" stroke="none"/>
      <path d="M2.75 -18.8 Q1.85 -18.8 1.25 -19.3 L1.0 -19.4 1.4 -19.65 2.0 -19.55 1.85 -19.5 2.15 -19.5 2.75 -18.8" fill="#b18100" fill-rule="evenodd" stroke="none"/>
      <path d="M2.4 -23.0 L2.35 -23.25 1.65 -23.75 Q2.45 -23.85 2.95 -23.25 L2.75 -23.8 3.8 -23.2 3.85 -23.15 4.05 -23.0 4.0 -23.15 Q3.85 -23.95 4.35 -24.45 L4.7 -23.35 4.75 -23.15 4.8 -23.0 5.05 -22.6 5.2 -22.5 5.3 -22.5 Q5.4 -22.45 5.55 -22.35 L5.7 -21.95 6.05 -21.0 Q5.75 -21.75 5.05 -21.55 4.7 -22.65 4.05 -23.0 L4.05 -22.3 Q3.35 -23.65 3.05 -22.7 2.5 -23.35 2.4 -23.0 M2.95 -23.25 L3.0 -23.25 3.05 -22.7 3.0 -23.25 2.95 -23.25 M5.05 -21.55 L5.7 -21.95 5.05 -21.55" fill="#ffe541" fill-rule="evenodd" stroke="none"/>
      <path d="M4.95 -19.25 L4.2 -18.9 2.75 -18.8 2.15 -19.5 Q2.15 -19.5 2.25 -19.45 L4.25 -19.3 4.45 -19.3 4.95 -19.25" fill="#714100" fill-rule="evenodd" stroke="none"/>
      <path d="M5.3 -22.5 Q5.4 -22.45 5.55 -22.35 L5.8 -22.15 5.95 -22.0 Q6.45 -21.45 6.3 -20.7 L6.05 -20.2 M0.45 -20.1 Q0.35 -20.45 0.65 -21.1 L1.3 -21.95 1.55 -22.1" fill="none" stroke="#000000" stroke-linecap="round" stroke-linejoin="round" stroke-opacity="0.4" stroke-width="0.05"/>
      <path d="M2.4 -23.0 L2.35 -23.25 1.65 -23.75 Q2.45 -23.85 2.95 -23.25 L2.75 -23.8 M2.7 -24.1 L2.65 -24.4 3.8 -23.2 3.85 -23.15 4.0 -23.15 Q3.85 -23.95 4.35 -24.45 4.75 -24.95 5.65 -25.25 4.4 -24.45 4.7 -23.35 M4.75 -23.15 L4.8 -23.0 5.05 -22.6 5.2 -22.5 5.3 -22.5 M1.55 -22.1 L1.45 -22.25 Q0.65 -22.85 0.35 -22.55 L1.85 -22.7 2.0 -22.65 2.35 -22.7 2.35 -22.8 2.4 -23.0 M3.05 -22.7 L3.0 -23.25 2.95 -23.25 M3.85 -23.15 L4.05 -23.0 4.0 -23.15 M4.05 -23.0 L4.05 -22.3" fill="none" stroke="#4d2e1a" stroke-linecap="round" stroke-linejoin="round" stroke-opacity="0.4" stroke-width="0.05"/>
      <path d="M6.05 -20.2 L5.8 -19.85 5.75 -19.85 5.65 -19.7 5.1 -19.35 5.0 -19.25 4.95 -19.25 M4.45 -19.3 L4.25 -19.3 2.25 -19.45 Q2.15 -19.5 2.15 -19.5 L1.85 -19.5 M4.45 -19.3 L4.95 -19.25 M2.7 -21.15 L4.2 -21.1 M5.7 -21.95 L5.95 -22.0 M5.7 -21.95 L5.05 -21.55" fill="none" stroke="#926030" stroke-linecap="round" stroke-linejoin="round" stroke-width="0.05"/>
    </g>
  </defs>
</svg>
