<?xml version="1.0" encoding="UTF-8" standalone="no"?>
<svg xmlns:xlink="http://www.w3.org/1999/xlink" height="440.0px" width="440.0px" xmlns="http://www.w3.org/2000/svg">
  <g transform="matrix(10.0, 0.0, 0.0, 10.0, 0.0, 0.0)">
    <use height="44.0" transform="matrix(0.9091, 0.0, 0.0, 0.9091, 2.0, 2.0)" width="44.0" xlink:href="#sprite0"/>
  </g>
  <defs>
    <g id="sprite0" transform="matrix(1.0, 0.0, 0.0, 1.0, 0.0, 0.0)">
      <use height="44.0" transform="matrix(1.0, 0.0, 0.0, 1.0, 0.0, 0.0)" width="44.0" xlink:href="#shape0"/>
      <use height="21.2" transform="matrix(1.1603, 0.0, 0.0, 1.1603, 3.0, 9.7)" width="32.75" xlink:href="#sprite1"/>
    </g>
    <g id="shape0" transform="matrix(1.0, 0.0, 0.0, 1.0, 0.0, 0.0)">
      <path d="M44.0 44.0 L0.0 44.0 0.0 0.0 44.0 0.0 44.0 44.0" fill="#43adca" fill-opacity="0.0" fill-rule="evenodd" stroke="none"/>
    </g>
    <g id="sprite1" transform="matrix(1.0, 0.0, 0.0, 1.0, 0.0, 0.0)">
      <use height="21.2" transform="matrix(1.0, 0.0, 0.0, 1.0, 0.0, 0.0)" width="32.75" xlink:href="#sprite2"/>
    </g>
    <g id="sprite2" transform="matrix(1.0, 0.0, 0.0, 1.0, 16.85, 20.8)">
      <use height="21.2" transform="matrix(1.0, 0.0, 0.0, 1.0, -16.85, -20.8)" width="32.75" xlink:href="#shape1"/>
    </g>
    <g id="shape1" transform="matrix(1.0, 0.0, 0.0, 1.0, 16.85, 20.8)">
      <path d="M-14.8 -8.9 L-13.95 -8.4 -14.0 -8.3 -14.35 -7.1 -14.6 -6.75 -14.75 -8.1 -14.8 -8.9" fill="#9c9238" fill-rule="evenodd" stroke="none"/>
      <path d="M-14.75 -8.95 L-14.7 -9.4 Q-14.55 -10.35 -14.05 -10.9 L-12.65 -11.1 -13.75 -9.05 -13.95 -8.4 -14.8 -8.9 -14.75 -8.95" fill="#766d2c" fill-rule="evenodd" stroke="none"/>
      <path d="M-14.05 -10.9 Q-14.55 -10.35 -14.7 -9.4 L-14.75 -8.95 M-13.95 -8.4 L-13.75 -9.05 -12.65 -11.1 M-14.8 -8.9 L-14.75 -8.1 -14.6 -6.75 -14.35 -7.1 -14.0 -8.3" fill="none" stroke="#000000" stroke-linecap="round" stroke-linejoin="round" stroke-opacity="0.3019608" stroke-width="0.05"/>
      <path d="M-12.65 -11.1 L-14.05 -10.9 Z" fill="none" stroke="#000000" stroke-linecap="round" stroke-linejoin="round" stroke-opacity="0.101960786" stroke-width="0.05"/>
      <path d="M-9.75 -2.3 L-9.85 -3.15 -9.3 -3.0 -9.25 -3.0 Q-9.2 -1.7 -9.75 -2.3" fill="#77752b" fill-rule="evenodd" stroke="none"/>
      <path d="M-9.95 -3.8 L-11.2 -6.35 -12.2 -4.55 -13.35 -7.85 -14.0 -6.7 -14.0 -6.9 -13.9 -9.1 Q-12.95 -7.65 -10.15 -6.5 L-10.2 -5.9 -9.95 -3.8" fill="#9c9238" fill-rule="evenodd" stroke="none"/>
      <path d="M-10.15 -6.5 Q-12.95 -7.65 -13.9 -9.1 -14.05 -10.4 -13.35 -10.85 L-9.25 -9.1 Q-10.05 -8.25 -10.15 -6.5" fill="#766d2c" fill-rule="evenodd" stroke="none"/>
      <path d="M-14.0 -6.7 L-13.35 -7.85 -12.2 -4.55 -11.2 -6.35 -9.95 -3.8 -9.85 -3.15 -9.75 -2.3 Q-12.2 -3.9 -13.75 -4.3 L-13.95 -5.5 -12.75 -5.0 -14.0 -5.95 -14.0 -6.7" fill="#a89d3e" fill-rule="evenodd" stroke="none"/>
      <path d="M-9.95 -3.8 L-10.2 -5.9 -10.15 -6.5 M-13.9 -9.1 L-14.0 -6.9 -14.0 -6.7 -14.0 -5.95 M-13.95 -5.5 L-13.75 -4.3 Q-12.2 -3.9 -9.75 -2.3 -9.2 -1.7 -9.25 -3.0 L-9.3 -3.0 -9.85 -3.15 -9.95 -3.8 M-13.9 -9.1 Q-14.05 -10.4 -13.35 -10.85 M-9.25 -9.1 Q-10.05 -8.25 -10.15 -6.5" fill="none" stroke="#000000" stroke-linecap="round" stroke-linejoin="round" stroke-opacity="0.3019608" stroke-width="0.05"/>
      <path d="M-13.35 -10.85 L-9.25 -9.1" fill="none" stroke="#000000" stroke-linecap="round" stroke-linejoin="round" stroke-opacity="0.101960786" stroke-width="0.05"/>
      <path d="M-14.0 -6.7 L-13.35 -7.85 -12.2 -4.55 -11.2 -6.35 -9.95 -3.8 Z" fill="none" stroke="#000000" stroke-linecap="round" stroke-linejoin="round" stroke-opacity="0.2" stroke-width="0.05"/>
      <path d="M12.15 -7.85 L12.8 -8.7 13.0 -8.3 13.5 -7.0 13.85 -5.45 13.55 -5.75 12.35 -7.55 12.15 -7.85" fill="#adb42c" fill-rule="evenodd" stroke="none"/>
      <path d="M12.8 -8.7 L12.15 -7.85 10.75 -9.25 11.95 -9.65 12.8 -8.7" fill="#77752b" fill-rule="evenodd" stroke="none"/>
      <path d="M12.8 -8.7 L11.95 -9.65 M10.75 -9.25 L12.15 -7.85 12.35 -7.55 13.55 -5.75 13.85 -5.45 13.5 -7.0 13.0 -8.3 12.8 -8.7" fill="none" stroke="#000000" stroke-linecap="round" stroke-linejoin="round" stroke-opacity="0.3019608" stroke-width="0.05"/>
      <path d="M11.95 -9.65 L10.75 -9.25" fill="none" stroke="#000000" stroke-linecap="round" stroke-linejoin="round" stroke-opacity="0.101960786" stroke-width="0.05"/>
      <path d="M-3.25 -4.85 L-3.3 -4.15 -3.0 -1.8 -4.75 -4.05 -6.2 -1.95 -7.9 -4.9 -8.9 -3.55 -8.9 -4.0 -8.8 -6.7 Q-7.3 -5.3 -3.25 -4.85" fill="#adb42c" fill-rule="evenodd" stroke="none"/>
      <path d="M-8.8 -6.7 Q-9.0 -8.2 -8.0 -9.0 L-1.95 -8.25 Q-3.1 -7.0 -3.25 -4.85 -7.3 -5.3 -8.8 -6.7 M-2.85 -0.85 L-1.9 -0.85 Q-1.85 0.65 -2.7 0.1 L-2.85 -0.85" fill="#77752b" fill-rule="evenodd" stroke="none"/>
      <path d="M-3.0 -1.8 L-2.85 -0.85 -2.7 0.1 Q-6.3 -0.9 -8.6 -0.9 L-8.85 -2.25 -7.1 -2.05 -8.9 -2.8 -8.9 -3.55 -7.9 -4.9 -6.2 -1.95 -4.75 -4.05 -3.0 -1.8" fill="#a8b808" fill-rule="evenodd" stroke="none"/>
      <path d="M-8.8 -6.7 Q-9.0 -8.2 -8.0 -9.0 M-1.95 -8.25 Q-3.1 -7.0 -3.25 -4.85 L-3.3 -4.15 -3.0 -1.8 -2.85 -0.85 -1.9 -0.85 Q-1.85 0.65 -2.7 0.1 -6.3 -0.9 -8.6 -0.9 L-8.85 -2.25 M-8.9 -2.8 L-8.9 -3.55 -8.9 -4.0 -8.8 -6.7" fill="none" stroke="#000000" stroke-linecap="round" stroke-linejoin="round" stroke-opacity="0.3019608" stroke-width="0.05"/>
      <path d="M-8.0 -9.0 L-1.95 -8.25" fill="none" stroke="#000000" stroke-linecap="round" stroke-linejoin="round" stroke-opacity="0.101960786" stroke-width="0.05"/>
      <path d="M-8.9 -3.55 L-7.9 -4.9 -6.2 -1.95 -4.75 -4.05 -3.0 -1.8" fill="none" stroke="#000000" stroke-linecap="round" stroke-linejoin="round" stroke-opacity="0.2" stroke-width="0.05"/>
      <path d="M11.1 -6.7 L12.1 -7.25 12.15 -6.45 12.2 -3.9 12.15 -1.2 11.85 -1.95 11.25 -5.95 11.1 -6.7" fill="#adb42c" fill-rule="evenodd" stroke="none"/>
      <path d="M12.1 -7.25 L11.1 -6.7 10.15 -10.35 11.55 -9.65 12.1 -7.25" fill="#77752b" fill-rule="evenodd" stroke="none"/>
      <path d="M12.1 -7.25 L11.55 -9.65 M10.15 -10.35 L11.1 -6.7 11.25 -5.95 11.85 -1.95 12.15 -1.2 12.2 -3.9 12.15 -6.45 12.1 -7.25" fill="none" stroke="#000000" stroke-linecap="round" stroke-linejoin="round" stroke-opacity="0.3019608" stroke-width="0.05"/>
      <path d="M11.55 -9.65 L10.15 -10.35" fill="none" stroke="#000000" stroke-linecap="round" stroke-linejoin="round" stroke-opacity="0.101960786" stroke-width="0.05"/>
      <path d="M3.8 -1.35 L4.2 -4.0 4.15 -4.7 10.9 -6.7 10.95 -6.35 11.05 -4.0 11.05 -2.8 10.55 -2.6 9.4 -4.05 7.4 -1.25 5.75 -3.45 3.8 -1.35" fill="#adb42c" fill-rule="evenodd" stroke="none"/>
      <path d="M3.45 0.25 Q2.4 0.8 2.5 -0.7 L3.65 -0.7 3.45 0.25 M4.15 -4.7 L4.05 -5.4 Q3.7 -7.05 2.55 -8.1 L9.95 -8.95 Q11.15 -8.2 10.9 -6.7 L4.15 -4.7" fill="#77752b" fill-rule="evenodd" stroke="none"/>
      <path d="M3.65 -0.7 L3.8 -1.35 5.75 -3.45 7.4 -1.25 9.4 -4.05 10.55 -2.6 8.85 -2.0 11.0 -2.25 Q10.9 -1.2 10.65 -0.9 7.85 -0.85 3.45 0.25 L3.65 -0.7" fill="#a8b808" fill-rule="evenodd" stroke="none"/>
      <path d="M3.45 0.25 Q2.4 0.8 2.5 -0.7 L3.65 -0.7 3.8 -1.35 4.2 -4.0 4.15 -4.7 4.05 -5.4 Q3.7 -7.05 2.55 -8.1 M9.95 -8.95 Q11.15 -8.2 10.9 -6.7 L10.95 -6.35 11.05 -4.0 11.05 -2.8 M11.0 -2.25 Q10.9 -1.2 10.65 -0.9 7.85 -0.85 3.45 0.25" fill="none" stroke="#000000" stroke-linecap="round" stroke-linejoin="round" stroke-opacity="0.3019608" stroke-width="0.05"/>
      <path d="M2.55 -8.1 L9.95 -8.95" fill="none" stroke="#000000" stroke-linecap="round" stroke-linejoin="round" stroke-opacity="0.101960786" stroke-width="0.05"/>
      <path d="M3.8 -1.35 L5.75 -3.45 7.4 -1.25 9.4 -4.05 10.55 -2.6" fill="none" stroke="#000000" stroke-linecap="round" stroke-linejoin="round" stroke-opacity="0.2" stroke-width="0.05"/>
      <path d="M4.7 -13.45 Q9.45 -10.05 8.0 -8.45 L13.0 -9.5 14.3 -10.15 Q10.2 -11.05 7.45 -13.95 L6.85 -13.8 4.7 -13.45 M-15.75 -11.7 Q-13.3 -13.4 -8.25 -14.65 L-8.05 -14.75 -8.75 -15.15 Q-12.2 -14.15 -15.2 -12.75 L-15.95 -12.35 -16.0 -12.3 Q-16.2 -12.1 -15.75 -11.7" fill="#bb3301" fill-rule="evenodd" stroke="none"/>
      <path d="M-4.7 -13.75 L-4.95 -13.8 -8.15 -12.25 -5.6 -13.95 -7.15 -14.4 -7.95 -14.7 -8.25 -14.65 Q-13.3 -13.4 -15.75 -11.7 L-14.15 -10.75 -11.2 -9.7 -9.45 -10.45 -9.6 -9.3 -8.5 -9.3 -6.1 -10.85 -7.45 -8.85 Q-2.9 -7.9 0.3 -7.8 1.0 -8.95 1.0 -10.95 L2.15 -7.9 3.5 -7.9 3.55 -8.8 4.55 -7.75 8.0 -8.45 Q9.45 -10.05 4.7 -13.45 L4.1 -13.4 3.05 -13.25 2.55 -13.25 2.5 -13.25 2.5 -13.35 1.05 -13.25 -4.7 -13.75" fill="#5e0605" fill-rule="evenodd" stroke="none"/>
      <path d="M8.55 -14.25 L7.45 -13.95 Q10.2 -11.05 14.3 -10.15 L15.25 -11.1 14.65 -11.55 9.4 -14.45 9.35 -14.45 8.55 -14.25" fill="#871c01" fill-rule="evenodd" stroke="none"/>
      <path d="M8.0 -8.45 L4.55 -7.75 3.55 -8.8 3.5 -7.9 2.15 -7.9 2.45 -7.15 5.2 -7.3 6.9 -7.5 8.5 -7.7 12.7 -8.6 15.9 -10.6 15.25 -11.1 14.3 -10.15 13.0 -9.5 8.0 -8.45 M0.3 -7.8 Q-2.9 -7.9 -7.45 -8.85 L-6.1 -10.85 -8.5 -9.3 -9.6 -9.3 -9.45 -10.45 -11.2 -9.7 -14.15 -10.75 -15.75 -11.7 Q-16.2 -12.1 -16.0 -12.3 L-16.05 -12.3 -16.85 -11.9 -13.85 -9.9 Q-7.15 -7.4 -0.15 -7.15 L0.3 -7.8" fill="#8f1d01" fill-rule="evenodd" stroke="none"/>
      <path d="M1.05 -13.25 L2.5 -13.35 2.35 -14.15 -2.35 -14.85 2.15 -14.95 Q1.3 -18.3 -0.2 -20.0 -4.7 -17.95 -8.05 -14.75 L-7.95 -14.7 1.05 -13.25" fill="#756846" fill-rule="evenodd" stroke="none"/>
      <path d="M2.55 -13.25 L3.05 -13.25 4.1 -13.4 4.7 -13.45 6.85 -13.8 7.45 -13.95 8.55 -14.25 0.9 -19.85 2.0 -19.85 0.3 -20.8 0.05 -20.7 Q-4.8 -18.35 -8.75 -15.15 L-8.05 -14.75 Q-4.7 -17.95 -0.2 -20.0 1.3 -18.3 2.15 -14.95 L-2.35 -14.85 2.35 -14.15 2.5 -13.35 2.55 -13.25" fill="#938352" fill-rule="evenodd" stroke="none"/>
      <path d="M2.0 -19.85 L0.9 -19.85 8.55 -14.25 9.35 -14.45 Q5.9 -17.6 2.0 -19.85" fill="#c2ae59" fill-rule="evenodd" stroke="none"/>
      <path d="M-5.6 -13.95 L-8.15 -12.25 -4.95 -13.8 -4.7 -13.75 1.05 -13.25 -7.95 -14.7 -7.15 -14.4 -5.6 -13.95 -5.1 -13.85 -4.95 -13.8 -5.1 -13.85 -5.6 -13.95" fill="#280202" fill-rule="evenodd" stroke="none"/>
      <path d="M-4.7 -13.75 L1.05 -13.25 2.5 -13.35 2.5 -13.25 2.55 -13.25 3.05 -13.25 4.1 -13.4 4.7 -13.45 M2.15 -7.9 L1.0 -10.95 Q1.0 -8.95 0.3 -7.8 L-0.15 -7.15 Q-7.15 -7.4 -13.85 -9.9 L-16.85 -11.9 -16.05 -12.3 -15.95 -12.35 -16.0 -12.3 M-8.25 -14.65 L-7.95 -14.7 -7.15 -14.4 -5.6 -13.95 -5.1 -13.85 -4.95 -13.8 M-8.05 -14.75 L-8.25 -14.65 M-8.05 -14.75 L-7.95 -14.7 M-8.75 -15.15 L-8.05 -14.75 M-15.95 -12.35 L-15.2 -12.75 Q-12.2 -14.15 -8.75 -15.15 -4.8 -18.35 0.05 -20.7 L0.3 -20.8 2.0 -19.85 M8.55 -14.25 L7.45 -13.95 6.85 -13.8 4.7 -13.45 M9.35 -14.45 L9.4 -14.45 14.65 -11.55 15.25 -11.1 15.9 -10.6 12.7 -8.6 8.5 -7.7 6.9 -7.5 5.2 -7.3 2.45 -7.15 2.15 -7.9 M8.55 -14.25 L9.35 -14.45 Q5.9 -17.6 2.0 -19.85 M2.55 -13.25 L2.5 -13.35" fill="none" stroke="#000000" stroke-linecap="round" stroke-linejoin="round" stroke-opacity="0.3019608" stroke-width="0.05"/>
      <path d="M6.65 -9.65 L5.75 -9.4 M6.1 -12.95 L6.65 -12.5 M7.2 -13.1 L7.9 -12.7 M5.45 -13.55 L5.7 -13.3 M10.8 -12.25 L10.4 -12.2 M12.9 -11.4 L12.45 -11.25 M7.05 -12.1 L7.45 -11.85 6.45 -11.75 M9.65 -12.15 L8.9 -12.05 8.5 -12.35 M8.45 -11.0 L7.45 -11.85 8.9 -12.05 9.45 -11.7 M9.6 -9.95 L9.15 -10.35 10.9 -10.8 11.4 -10.5 M12.05 -11.15 L10.9 -10.8 9.9 -11.4 M8.85 -10.6 L9.15 -10.35 8.2 -10.05 M11.85 -10.25 L12.7 -9.7 M9.95 -9.7 L10.75 -9.05 M5.85 -11.7 L4.2 -11.45" fill="none" stroke="#000000" stroke-linecap="round" stroke-linejoin="round" stroke-opacity="0.2" stroke-width="0.05"/>
      <path d="M-5.75 -12.55 L-6.15 -12.3 -7.6 -12.5 -7.2 -12.8 M-8.35 -12.6 L-7.6 -12.5 -8.15 -12.15 M-9.5 -12.7 L-9.1 -12.65 M-4.15 -14.0 L-4.4 -13.75 M-5.9 -13.55 L-6.6 -13.15 M-4.8 -13.4 L-5.35 -12.95 M-8.3 -10.4 L-7.85 -10.8 -6.9 -10.5 M-8.65 -10.15 L-9.45 -9.5 M-10.75 -11.6 L-9.6 -11.25 -10.1 -10.95 M-7.55 -11.05 L-7.85 -10.8 -9.6 -11.25 -8.6 -11.85 M-7.15 -11.45 L-6.15 -12.3 -5.15 -12.2 M-4.55 -12.15 L-2.9 -11.9 M-5.35 -10.1 L-4.45 -9.85 M-10.55 -10.7 L-11.4 -10.15 M-11.6 -11.85 L-11.15 -11.7" fill="none" stroke="#ffffff" stroke-linecap="round" stroke-linejoin="round" stroke-opacity="0.2" stroke-width="0.05"/>
      <path d="M2.3 -18.8 Q2.5 -18.5 2.3 -18.55 2.1 -18.6 1.8 -18.8 L1.45 -19.15 1.5 -19.3 0.45 -18.95 0.05 -18.75 -0.4 -18.1 -0.35 -17.25 0.7 -15.8 Q1.6 -14.7 2.6 -14.4 L4.6 -14.1 5.85 -14.15 6.3 -14.1 8.8 -14.75 9.3 -14.7 9.3 -14.1 8.1 -13.9 6.9 -13.7 5.65 -13.4 Q4.5 -13.15 2.6 -13.9 L2.2 -14.15 2.25 -13.85 2.1 -13.6 Q1.95 -13.45 1.8 -13.75 L1.5 -14.15 1.55 -14.35 1.65 -14.4 0.15 -15.8 Q-0.55 -16.65 -0.8 -17.6 -0.65 -17.9 -0.65 -18.15 L-0.55 -18.6 Q-0.2 -19.2 0.55 -19.35 L1.65 -19.5 1.8 -19.45 2.0 -19.4 2.1 -19.35 2.65 -19.25 4.3 -17.95 4.7 -17.25 4.75 -17.0 5.15 -16.85 5.5 -16.35 Q5.95 -16.0 5.5 -16.1 L4.95 -16.3 4.8 -16.35 Q4.75 -15.85 4.2 -15.7 L4.1 -15.6 4.05 -15.6 2.6 -15.85 1.5 -16.65 1.35 -16.95 1.25 -17.3 1.2 -17.35 1.05 -17.5 1.1 -17.85 Q1.15 -18.1 1.3 -17.95 L1.7 -17.7 1.8 -17.45 1.85 -17.3 1.6 -17.1 1.25 -17.3 1.45 -17.0 1.65 -16.65 2.55 -15.95 3.85 -15.8 3.9 -15.8 4.5 -16.6 4.4 -16.95 4.05 -17.95 2.55 -19.15 2.15 -19.2 2.2 -19.15 2.3 -18.8" fill="#312c1c" fill-rule="evenodd" stroke="none"/>
      <path d="M11.15 -8.3 L11.55 -9.05 Q11.55 -9.5 11.25 -9.55 L10.65 -8.55 Q10.7 -7.95 11.15 -8.3" fill="#d3e232" fill-rule="evenodd" stroke="none"/>
      <path d="M10.65 -8.55 L10.1 -7.9 9.8 -7.6 Q10.0 -7.35 10.35 -7.6 L10.75 -7.9 11.15 -8.3 Q10.7 -7.95 10.65 -8.55" fill="#809311" fill-rule="evenodd" stroke="none"/>
      <path d="M11.15 -8.3 L11.55 -9.05 Q11.55 -9.5 11.25 -9.55 L10.65 -8.55 10.1 -7.9 9.8 -7.6 Q10.0 -7.35 10.35 -7.6 L10.75 -7.9 11.15 -8.3 Z" fill="none" stroke="#382510" stroke-linecap="round" stroke-linejoin="round" stroke-opacity="0.4" stroke-width="0.05"/>
      <path d="M3.1 -7.5 Q2.85 -7.8 2.7 -8.2 2.7 -8.65 3.0 -8.7 L3.55 -7.7 Q3.5 -7.15 3.1 -7.5" fill="#d3e232" fill-rule="evenodd" stroke="none"/>
      <path d="M3.55 -7.7 L4.1 -7.1 4.35 -6.8 Q4.15 -6.6 3.85 -6.8 L3.45 -7.1 3.1 -7.5 Q3.5 -7.15 3.55 -7.7" fill="#809311" fill-rule="evenodd" stroke="none"/>
      <path d="M3.1 -7.5 Q2.85 -7.8 2.7 -8.2 2.7 -8.65 3.0 -8.7 L3.55 -7.7 4.1 -7.1 4.35 -6.8 Q4.15 -6.6 3.85 -6.8 L3.45 -7.1 3.1 -7.5 Z" fill="none" stroke="#382510" stroke-linecap="round" stroke-linejoin="round" stroke-opacity="0.4" stroke-width="0.05"/>
    </g>
  </defs>
</svg>
