<?xml version="1.0" encoding="UTF-8" standalone="no"?>
<svg xmlns:xlink="http://www.w3.org/1999/xlink" height="440.0px" width="440.0px" xmlns="http://www.w3.org/2000/svg">
  <g transform="matrix(10.0, 0.0, 0.0, 10.0, 0.0, 0.0)">
    <use height="44.0" transform="matrix(0.9091, 0.0, 0.0, 0.9091, 2.0, 2.0)" width="44.0" xlink:href="#sprite0"/>
  </g>
  <defs>
    <g id="sprite0" transform="matrix(1.0, 0.0, 0.0, 1.0, 0.0, 0.0)">
      <use height="44.0" transform="matrix(1.0, 0.0, 0.0, 1.0, 0.0, 0.0)" width="44.0" xlink:href="#shape0"/>
      <use height="10.9" transform="matrix(1.5768, 0.0, 0.0, 1.5768, 3.0, 13.4)" width="24.1" xlink:href="#sprite1"/>
    </g>
    <g id="shape0" transform="matrix(1.0, 0.0, 0.0, 1.0, 0.0, 0.0)">
      <path d="M44.0 44.0 L0.0 44.0 0.0 0.0 44.0 0.0 44.0 44.0" fill="#43adca" fill-opacity="0.0" fill-rule="evenodd" stroke="none"/>
    </g>
    <g id="sprite1" transform="matrix(1.0, 0.0, 0.0, 1.0, 0.0, 0.0)">
      <use height="10.9" transform="matrix(1.0, 0.0, 0.0, 1.0, 0.0, 0.0)" width="24.1" xlink:href="#sprite2"/>
    </g>
    <g id="sprite2" transform="matrix(1.0, 0.0, 0.0, 1.0, 10.65, 21.95)">
      <use height="10.9" transform="matrix(1.0, 0.0, 0.0, 1.0, -10.65, -21.95)" width="24.0" xlink:href="#shape1"/>
      <use height="0.0" id="base" transform="matrix(-0.216, 0.0, 0.0, 0.216, 1.7, -16.45)" width="0.0" xlink:href="#sprite3"/>
      <use height="21.8" id="croix" transform="matrix(-0.216, 0.0, 0.0, 0.216, 6.7372, -20.0546)" width="47.05" xlink:href="#sprite4"/>
      <use height="9.45" transform="matrix(1.0, 0.0, 0.0, 1.0, -9.9, -20.5)" width="23.35" xlink:href="#shape3"/>
    </g>
    <g id="shape1" transform="matrix(1.0, 0.0, 0.0, 1.0, 10.65, 21.95)">
      <path d="M-8.8 -19.8 L-8.9 -19.75 -8.9 -18.6 -8.75 -18.65 -8.2 -18.85 -8.75 -18.65 -8.7 -18.15 -8.65 -18.05 -8.65 -18.2 -8.45 -18.55 -8.0 -18.55 -8.15 -18.95 -8.2 -18.85 -8.25 -19.65 -8.8 -19.8" fill="#a87343" fill-rule="evenodd" stroke="none"/>
      <path d="M-8.8 -19.8 L-8.25 -19.65 -8.2 -18.85 -8.15 -18.95 -8.05 -18.95 -8.0 -19.6 -7.85 -19.15 -7.2 -18.8 -7.05 -18.7 -6.95 -19.6 -7.95 -20.15 -8.8 -19.8" fill="url(#gradient0)" fill-rule="evenodd" stroke="none"/>
      <path d="M-7.2 -18.8 L-7.85 -19.15 -8.0 -19.6 -8.05 -18.95 -8.15 -18.95 -8.0 -18.55 -7.6 -18.5 -7.1 -18.25 -7.1 -18.2 -7.2 -18.8" fill="url(#gradient1)" fill-rule="evenodd" stroke="none"/>
      <path d="M-7.55 -18.2 L-7.6 -18.3 -7.55 -18.2" fill="#f0c106" fill-rule="evenodd" stroke="none"/>
      <path d="M-8.75 -17.3 L-8.8 -17.25 -8.8 -17.15 -8.75 -17.3" fill="#bd8812" fill-rule="evenodd" stroke="none"/>
      <path d="M-8.9 -19.75 L-8.8 -19.8 M-8.0 -18.55 L-8.45 -18.55 -8.65 -18.2 M-7.1 -18.2 L-7.1 -18.25 -7.6 -18.5 -8.0 -18.55" fill="none" stroke="#1a1210" stroke-linecap="round" stroke-linejoin="round" stroke-opacity="0.56078434" stroke-width="0.05"/>
      <path d="M-8.2 -18.85 L-8.75 -18.65 -8.9 -18.6 -8.9 -19.75 M-7.2 -18.8 L-7.85 -19.15 -8.0 -19.6 -8.05 -18.95 -8.15 -18.95 -8.2 -18.85 M-8.65 -18.05 L-8.7 -18.15 -8.75 -18.65 M-8.8 -19.8 L-7.95 -20.15 -6.95 -19.6 -7.05 -18.7 -7.2 -18.8 -7.1 -18.2" fill="none" stroke="#000000" stroke-linecap="round" stroke-linejoin="round" stroke-opacity="0.3529412" stroke-width="0.05"/>
      <path d="M-8.8 -18.8 L-8.9 -18.75 -9.05 -17.5 -8.9 -17.6 -8.25 -17.85 -8.9 -17.6 -8.9 -17.15 -8.85 -17.05 -8.85 -17.15 -8.55 -17.55 -8.1 -17.5 -8.15 -17.85 -8.25 -17.85 -8.15 -18.6 -8.8 -18.8" fill="#a87343" fill-rule="evenodd" stroke="none"/>
      <path d="M-8.8 -18.8 L-8.15 -18.6 -8.25 -17.85 -8.15 -17.85 -8.1 -17.9 -7.9 -18.55 -7.8 -18.1 -7.15 -17.75 -7.0 -17.65 -6.75 -18.6 -7.8 -19.1 -8.8 -18.8" fill="url(#gradient2)" fill-rule="evenodd" stroke="none"/>
      <path d="M-7.15 -17.75 L-7.8 -18.1 -7.9 -18.55 -8.1 -17.9 -8.15 -17.85 -8.1 -17.5 -7.65 -17.45 -7.1 -17.15 -7.15 -17.75" fill="url(#gradient3)" fill-rule="evenodd" stroke="none"/>
      <path d="M-7.6 -17.15 L-7.65 -17.2 -7.6 -17.1 -7.6 -17.15" fill="#f0c106" fill-rule="evenodd" stroke="none"/>
      <path d="M-9.1 -16.25 L-9.15 -16.2 -9.2 -16.05 -9.1 -16.25" fill="#bd8812" fill-rule="evenodd" stroke="none"/>
      <path d="M-8.9 -18.75 L-8.8 -18.8 M-8.1 -17.5 L-8.55 -17.55 -8.85 -17.15 M-8.1 -17.5 L-7.65 -17.45 -7.1 -17.15" fill="none" stroke="#1a1210" stroke-linecap="round" stroke-linejoin="round" stroke-opacity="0.56078434" stroke-width="0.05"/>
      <path d="M-8.25 -17.85 L-8.9 -17.6 -9.05 -17.5 -8.9 -18.75 M-7.15 -17.75 L-7.8 -18.1 -7.9 -18.55 -8.1 -17.9 -8.15 -17.85 -8.25 -17.85 M-8.85 -17.05 L-8.9 -17.15 -8.9 -17.6 M-7.1 -17.15 L-7.15 -17.75 -7.0 -17.65 -6.75 -18.6 -7.8 -19.1 -8.8 -18.8" fill="none" stroke="#000000" stroke-linecap="round" stroke-linejoin="round" stroke-opacity="0.3529412" stroke-width="0.05"/>
      <path d="M-9.7 -13.7 L-9.75 -13.7 -9.75 -13.9 -9.7 -13.9 -9.7 -13.95 -9.7 -14.0 -9.7 -14.4 -9.65 -14.8 -9.7 -13.7" fill="#c2ae59" fill-rule="evenodd" stroke="none"/>
      <path d="M-9.7 -13.95 L-9.75 -14.0 -9.7 -14.0 -9.7 -13.95" fill="#938352" fill-rule="evenodd" stroke="none"/>
      <path d="M-7.7 -17.45 L-7.65 -17.45 -6.5 -16.75 -7.05 -16.85 -6.05 -15.55 Q-6.4 -15.2 -7.1 -15.2 L-7.0 -13.95 -7.45 -14.0 -7.1 -13.7 -7.15 -13.65 -7.9 -14.0 -8.25 -14.2 -8.25 -13.85 -8.55 -14.2 -8.85 -13.85 -9.6 -13.3 -9.7 -13.45 Q-8.6 -14.45 -8.4 -15.45 L-7.65 -15.4 -7.9 -16.35 -8.2 -17.05 -7.85 -16.8 -7.8 -16.9 -7.75 -17.2 -7.7 -17.3 -7.7 -17.45 M-9.75 -14.0 L-9.85 -14.75 -10.65 -14.95 -8.9 -16.6 -8.2 -17.05 -8.7 -16.5 -9.15 -16.0 -9.45 -15.5 -9.5 -15.2 -9.6 -15.15 -9.65 -14.8 -9.7 -14.4 -9.7 -14.0 -9.75 -14.0 M-7.05 -16.85 L-7.8 -16.9 -7.05 -16.85 M-7.9 -14.0 L-7.45 -14.0 -7.9 -14.0 M-7.9 -16.35 L-6.95 -15.6 -7.0 -15.5 -7.15 -15.65 -7.1 -15.2 -7.15 -15.65 -7.0 -15.5 -6.95 -15.6 -7.9 -16.35" fill="#b95d8e" fill-rule="evenodd" stroke="none"/>
      <path d="M-9.7 -13.45 L-9.7 -13.7 -9.65 -14.8 -9.6 -15.15 -9.5 -15.2 -9.45 -15.5 -9.15 -16.0 -8.7 -16.5 -8.2 -17.05 -7.9 -16.35 -7.65 -15.4 -8.4 -15.45 Q-8.6 -14.45 -9.7 -13.45 M-10.65 -14.95 L-10.2 -15.85 -10.6 -16.0 -9.95 -16.65 -9.7 -16.9 Q-9.3 -17.3 -8.9 -17.35 L-8.85 -17.4 -7.7 -17.45 -7.7 -17.3 -7.75 -17.2 -7.8 -16.9 -7.85 -16.8 -8.2 -17.05 -8.9 -16.6 -10.65 -14.95 M-9.95 -16.65 Q-10.0 -16.1 -10.2 -15.85 -10.0 -16.1 -9.95 -16.65" fill="#f77eb9" fill-rule="evenodd" stroke="none"/>
      <path d="M-7.7 -17.45 L-7.65 -17.45 -6.5 -16.75 -7.05 -16.85 -6.05 -15.55 Q-6.4 -15.2 -7.1 -15.2 L-7.0 -13.95 -7.45 -14.0 -7.1 -13.7 -7.15 -13.65 -7.9 -14.0 -8.25 -14.2 -8.25 -13.85 -8.55 -14.2 -8.85 -13.85 -9.6 -13.3 -9.7 -13.45 -9.7 -13.7 M-9.75 -13.7 L-9.75 -13.9 M-9.7 -13.9 L-9.7 -13.95 M-9.75 -14.0 L-9.85 -14.75 -10.65 -14.95 -10.2 -15.85 -10.6 -16.0 -9.95 -16.65 -9.7 -16.9 Q-9.3 -17.3 -8.9 -17.35 L-8.85 -17.4 -7.7 -17.45 M-7.8 -16.9 L-7.05 -16.85 M-8.2 -17.05 L-8.7 -16.5 -9.15 -16.0 -9.45 -15.5 -9.5 -15.2 -9.6 -15.15 -9.65 -14.8 -9.7 -13.7 M-7.1 -15.2 L-7.15 -15.65 -7.0 -15.5 -6.95 -15.6 -7.9 -16.35 M-7.45 -14.0 L-7.9 -14.0 M-10.2 -15.85 Q-10.0 -16.1 -9.95 -16.65 M-9.65 -14.8 L-9.7 -14.4 -9.7 -14.0 M-9.75 -14.0 L-9.7 -14.0" fill="none" stroke="#000000" stroke-linecap="round" stroke-linejoin="round" stroke-opacity="0.3019608" stroke-width="0.05"/>
      <path d="M-1.55 -18.4 L-1.55 -17.9 -3.45 -17.6 -4.15 -18.1 -1.55 -18.4 M5.75 -15.7 L4.55 -16.5 4.8 -16.95 6.55 -15.85 5.75 -15.7" fill="#b9ac79" fill-rule="evenodd" stroke="none"/>
      <path d="M-4.7 -15.9 L-4.7 -16.05 -10.0 -20.0 -10.0 -20.45 2.9 -21.95 13.15 -16.0 Q13.55 -15.6 13.15 -15.45 L6.0 -14.55 6.0 -14.45 -0.5 -13.7 -1.7 -13.8 -4.7 -15.9 M4.8 -16.95 L4.8 -17.3 6.7 -17.65 4.25 -19.15 1.7 -18.85 -0.2 -20.1 -3.25 -19.85 -1.55 -18.75 -1.55 -18.4 -4.15 -18.1 -3.45 -17.6 -1.95 -16.55 1.3 -16.9 3.6 -15.45 5.75 -15.7 6.55 -15.85 4.8 -16.95 M6.7 -17.65 L7.3 -17.75 6.7 -17.65 M7.1 -15.9 L6.55 -15.85 7.1 -15.9" fill="#dccd63" fill-rule="evenodd" stroke="none"/>
      <path d="M-4.7 -15.9 L-1.7 -13.8 -0.5 -13.7 6.0 -14.45 5.75 -12.45 5.35 -12.1 4.75 -11.7 4.7 -11.65 Q3.05 -10.9 -0.2 -11.1 -3.55 -11.95 -4.5 -13.7 L-4.75 -14.1 -4.7 -15.9" fill="#bfac2b" fill-rule="evenodd" stroke="none"/>
      <path d="M6.0 -14.45 L5.75 -12.45 5.35 -12.1 4.75 -11.7 4.7 -11.65 Q3.05 -10.9 -0.2 -11.1 -3.55 -11.95 -4.5 -13.7 L-4.75 -14.1 -4.7 -15.9" fill="none" stroke="#000000" stroke-linecap="round" stroke-linejoin="round" stroke-opacity="0.4" stroke-width="0.05"/>
      <path d="M6.0 -14.45 L6.0 -14.55 13.15 -15.45 Q13.55 -15.6 13.15 -16.0 L2.9 -21.95 -10.0 -20.45 -10.0 -20.0 -4.7 -16.05 -4.7 -15.9 -1.7 -13.8 -0.5 -13.7 6.0 -14.45 M4.8 -16.95 L4.8 -17.3 6.7 -17.65 4.25 -19.15 1.7 -18.85 -0.2 -20.1 -3.25 -19.85 -1.55 -18.75 -1.55 -18.4 M-3.45 -17.6 L-1.95 -16.55 1.3 -16.9 3.6 -15.45 5.75 -15.7 6.55 -15.85 7.1 -15.9 M4.8 -16.95 L6.55 -15.85 M7.3 -17.75 L6.7 -17.65 M-3.45 -17.6 L-4.15 -18.1 -1.55 -18.4" fill="none" stroke="#000000" stroke-linecap="round" stroke-linejoin="round" stroke-opacity="0.3019608" stroke-width="0.05"/>
    </g>
    <linearGradient gradientTransform="matrix(3.0E-4, -8.0E-4, 6.0E-4, 4.0E-4, -7.95, -19.4)" gradientUnits="userSpaceOnUse" id="gradient0" spreadMethod="pad" x1="-819.2" x2="819.2">
      <stop offset="0.0" stop-color="#91613a"/>
      <stop offset="1.0" stop-color="#664328"/>
    </linearGradient>
    <linearGradient gradientTransform="matrix(2.0E-4, -4.0E-4, 5.0E-4, 3.0E-4, -7.6, -18.7)" gradientUnits="userSpaceOnUse" id="gradient1" spreadMethod="pad" x1="-819.2" x2="819.2">
      <stop offset="0.0" stop-color="#91613a"/>
      <stop offset="1.0" stop-color="#664328"/>
    </linearGradient>
    <linearGradient gradientTransform="matrix(4.0E-4, -8.0E-4, 6.0E-4, 4.0E-4, -7.9, -18.35)" gradientUnits="userSpaceOnUse" id="gradient2" spreadMethod="pad" x1="-819.2" x2="819.2">
      <stop offset="0.0" stop-color="#91613a"/>
      <stop offset="1.0" stop-color="#664328"/>
    </linearGradient>
    <linearGradient gradientTransform="matrix(2.0E-4, -5.0E-4, 5.0E-4, 3.0E-4, -7.6, -17.6)" gradientUnits="userSpaceOnUse" id="gradient3" spreadMethod="pad" x1="-819.2" x2="819.2">
      <stop offset="0.0" stop-color="#91613a"/>
      <stop offset="1.0" stop-color="#664328"/>
    </linearGradient>
    <g id="sprite4" transform="matrix(1.0, 0.0, 0.0, 1.0, 23.55, 10.9)">
      <use height="21.8" transform="matrix(1.0, 0.0, 0.0, 1.0, -23.55, -10.9)" width="47.05" xlink:href="#shape2"/>
    </g>
    <g id="shape2" transform="matrix(1.0, 0.0, 0.0, 1.0, 23.55, 10.9)">
      <path d="M14.85 -0.55 L23.5 0.85 16.4 5.75 1.5 4.05 -9.2 10.9 -19.15 9.55 -13.6 5.85 -14.55 3.8 -14.55 2.05 -23.55 0.65 -12.15 -6.3 -0.3 -4.9 8.65 -10.9 22.45 -9.45 14.85 -4.55 14.8 -4.55 14.85 -4.55 14.85 -0.55" fill="#f0eee2" fill-rule="evenodd" stroke="none"/>
    </g>
    <g id="shape3" transform="matrix(1.0, 0.0, 0.0, 1.0, 9.9, 20.5)">
      <path d="M-3.35 -17.5 L-1.45 -17.85 -1.45 -18.35 -4.0 -18.0 -3.35 -17.5 M-0.1 -20.05 L-3.1 -19.75 -2.55 -19.4 -0.15 -19.6 1.55 -18.35 4.3 -18.65 6.15 -17.45 6.85 -17.55 4.35 -19.05 1.8 -18.75 -0.1 -20.05 M6.65 -15.75 L4.9 -16.9 4.7 -16.45 5.9 -15.65 6.65 -15.75" fill="#000000" fill-opacity="0.3019608" fill-rule="evenodd" stroke="none"/>
      <path d="M-4.4 -14.85 L-4.4 -13.65 -4.65 -14.0 -4.65 -16.0 -9.9 -19.95 -9.9 -20.4 -8.85 -20.5 Q-9.7 -20.3 -9.6 -20.05 L-1.3 -13.95 13.0 -15.7 12.85 -16.2 13.25 -15.95 Q13.65 -15.55 13.25 -15.4 L6.1 -14.45 5.8 -12.4 5.45 -12.1 5.7 -13.6 5.8 -14.4 -0.4 -13.6 -1.6 -13.75 -4.4 -15.85 -4.4 -14.85" fill="#ffffff" fill-opacity="0.2901961" fill-rule="evenodd" stroke="none"/>
      <path d="M5.7 -13.6 L5.65 -13.5 5.3 -12.0 Q4.05 -11.3 2.45 -11.1 L-0.75 -11.35 -1.05 -11.4 -2.75 -13.25 -3.8 -14.15 -4.4 -14.85 -4.4 -15.85 -1.6 -13.75 -0.4 -13.6 5.8 -14.4 5.7 -13.6 M4.35 -19.5 L7.4 -17.7 6.8 -17.6 4.35 -19.1 1.8 -18.75 -0.15 -20.05 -3.1 -19.75 -3.55 -20.05 -0.15 -20.4 1.85 -19.15 4.35 -19.5 M4.85 -17.3 L7.2 -15.85 6.65 -15.75 4.85 -16.9 4.85 -17.3 M-4.45 -18.25 L-1.5 -18.7 -1.5 -18.35 -4.05 -18.0 -4.45 -18.25" fill="#000000" fill-opacity="0.3019608" fill-rule="evenodd" stroke="none"/>
    </g>
  </defs>
</svg>
