<?xml version="1.0" encoding="UTF-8" standalone="no"?>
<svg xmlns:xlink="http://www.w3.org/1999/xlink" height="440.0px" width="440.0px" xmlns="http://www.w3.org/2000/svg">
  <g transform="matrix(10.0, 0.0, 0.0, 10.0, 0.0, 0.0)">
    <use height="44.0" transform="matrix(0.9091, 0.0, 0.0, 0.9091, 2.0, 2.0)" width="44.0" xlink:href="#sprite0"/>
  </g>
  <defs>
    <g id="sprite0" transform="matrix(1.0, 0.0, 0.0, 1.0, 0.0, 0.0)">
      <use height="44.0" transform="matrix(1.0, 0.0, 0.0, 1.0, 0.0, 0.0)" width="44.0" xlink:href="#shape0"/>
      <use height="27.55" transform="matrix(1.3743, 0.0, 0.0, 1.3743, 3.0, 3.1)" width="27.65" xlink:href="#sprite1"/>
    </g>
    <g id="shape0" transform="matrix(1.0, 0.0, 0.0, 1.0, 0.0, 0.0)">
      <path d="M44.0 44.0 L0.0 44.0 0.0 0.0 44.0 0.0 44.0 44.0" fill="#43adca" fill-opacity="0.0" fill-rule="evenodd" stroke="none"/>
    </g>
    <g id="sprite1" transform="matrix(1.0, 0.0, 0.0, 1.0, 0.0, 0.0)">
      <use height="27.55" transform="matrix(1.0, 0.0, 0.0, 1.0, 0.0, 0.0)" width="27.65" xlink:href="#sprite2"/>
    </g>
    <g id="sprite2" transform="matrix(1.0, 0.0, 0.0, 1.0, 15.0, 22.15)">
      <use height="27.55" transform="matrix(1.0, 0.0, 0.0, 1.0, -15.0, -22.15)" width="27.65" xlink:href="#shape1"/>
    </g>
    <g id="shape1" transform="matrix(1.0, 0.0, 0.0, 1.0, 15.0, 22.15)">
      <path d="M7.4 -19.1 L7.35 -20.35 8.65 -20.4 8.5 -20.9 Q7.0 -21.3 6.6 -20.7 L6.7 -19.2 6.45 -19.05 6.8 -18.25 7.4 -19.1 M5.6 -19.75 L5.05 -20.0 5.8 -21.1 Q5.1 -21.75 1.75 -22.15 L1.25 -21.85 4.0 -21.2 3.45 -20.3 4.55 -19.3 Q4.7 -19.65 5.6 -19.75 M2.85 -20.05 L0.4 -21.15 -3.35 -21.25 Q-3.7 -20.9 -3.5 -20.7 L-1.15 -20.5 -0.8 -19.8 -0.4 -19.5 -0.7 -19.6 -1.05 -19.75 -2.9 -18.65 -4.85 -18.7 Q-7.7 -18.5 -8.05 -16.95 L-7.8 -16.9 -8.2 -16.35 -9.85 -16.15 -11.4 -15.55 Q-12.2 -14.85 -11.45 -14.6 L-9.5 -15.6 -8.2 -15.5 -7.25 -14.95 -6.4 -15.35 -6.1 -15.3 -8.75 -13.55 -8.95 -13.35 -8.75 -13.55 Q-9.65 -13.65 -10.35 -14.25 L-10.85 -13.9 Q-11.7 -12.65 -11.1 -11.55 -13.2 -10.85 -13.85 -10.35 -14.3 -9.65 -14.15 -9.0 -12.45 -10.15 -10.15 -10.6 -10.55 -11.25 -10.55 -12.65 L-8.95 -13.35 -9.9 -12.45 -9.9 -11.85 -9.05 -11.0 Q-8.45 -10.9 -7.3 -11.85 -7.0 -12.9 -4.8 -14.35 L-1.55 -13.45 0.65 -14.55 1.0 -14.7 1.05 -15.5 -0.1 -15.4 -2.1 -15.0 -2.45 -15.15 -4.05 -15.65 -3.95 -15.65 -3.05 -15.7 -2.4 -17.15 -1.8 -17.95 0.1 -17.3 1.7 -16.9 Q1.8 -17.85 1.15 -18.75 L0.55 -19.05 0.7 -19.0 2.75 -18.95 3.15 -18.95 Q3.35 -19.3 2.85 -20.05 M8.65 -15.35 L8.65 -16.35 8.35 -15.65 8.65 -15.35 M9.1 -17.4 L9.35 -18.15 10.35 -17.8 10.4 -18.5 Q9.35 -19.3 8.85 -19.35 8.3 -19.25 7.65 -18.65 L7.55 -18.5 7.3 -17.45 7.7 -17.1 8.3 -16.9 9.1 -17.4 M-7.8 -16.9 L-6.3 -18.25 -3.35 -18.1 -2.9 -18.65 -3.35 -18.1 -6.3 -18.25 -7.8 -16.9 M-0.4 -19.5 L0.55 -19.05 -0.4 -19.5 M-5.35 -15.6 L-6.1 -15.3 -5.35 -15.6 -5.75 -15.65 -5.2 -15.65 -5.35 -15.6 M-4.05 -15.65 L-4.65 -15.75 -5.2 -15.65 -4.65 -15.75 -4.05 -15.65 M-5.75 -15.65 L-6.4 -15.35 -5.75 -15.65 M-8.2 -15.5 L-8.4 -15.9 -8.2 -16.35 -8.4 -15.9 -8.2 -15.5" fill="#5c4932" fill-rule="evenodd" stroke="none"/>
      <path d="M7.4 -19.1 L6.8 -18.25 6.45 -19.05 6.7 -19.2 5.6 -19.75 Q4.7 -19.65 4.55 -19.3 L3.45 -20.3 3.45 -20.05 3.85 -19.4 2.85 -20.05 Q3.35 -19.3 3.15 -18.95 L2.75 -18.95 0.7 -19.0 0.55 -19.05 1.15 -18.75 Q1.8 -17.85 1.7 -16.9 L0.1 -17.3 -1.8 -17.95 -2.4 -17.15 -3.05 -15.7 -3.95 -15.65 -4.05 -15.65 -2.45 -15.15 -2.1 -15.0 -0.1 -15.4 1.05 -15.5 1.0 -14.7 0.65 -14.55 -1.55 -13.45 -4.8 -14.35 Q-7.0 -12.9 -7.3 -11.85 -8.45 -10.9 -9.05 -11.0 L-9.9 -11.85 -9.9 -12.45 -8.95 -13.35 -10.55 -12.65 Q-10.55 -11.25 -10.15 -10.6 -12.45 -10.15 -14.15 -9.0 L-13.55 -8.05 -11.55 -8.9 Q-12.75 -8.05 -13.3 -7.2 -13.9 -5.9 -13.6 -4.85 L-13.55 -4.7 -12.8 -4.1 Q-12.2 -3.9 -11.05 -4.1 -10.55 -4.3 -10.1 -6.15 L-8.65 -7.0 -8.5 -7.1 -4.5 -5.9 Q-2.45 -5.25 4.8 -6.1 L5.85 -7.3 Q8.6 -10.75 8.65 -15.35 L8.35 -15.65 8.25 -15.3 8.35 -15.65 8.65 -16.35 9.1 -17.4 8.3 -16.9 7.7 -17.1 7.3 -17.45 7.55 -18.5 7.65 -18.65 7.5 -18.55 7.35 -18.75 7.4 -18.85 7.4 -19.1 M-0.8 -19.8 L-0.7 -19.6 -0.4 -19.5 -0.8 -19.8 M-11.45 -14.6 L-8.65 -14.9 -9.6 -14.65 -10.35 -14.25 Q-9.65 -13.65 -8.75 -13.55 L-6.1 -15.3 -6.4 -15.35 -7.25 -14.95 -8.2 -15.5 -9.5 -15.6 -11.45 -14.6 M7.5 -18.55 L7.1 -18.15 7.35 -18.75 7.1 -18.15 6.8 -17.95 7.1 -18.15 7.5 -18.55 M4.4 -16.9 L1.15 -18.75 4.4 -16.9 M3.85 -19.4 L4.4 -19.1 3.85 -19.4 M-5.35 -15.6 L-5.2 -15.65 -5.75 -15.65 -5.35 -15.6 M0.75 -12.55 Q-3.15 -12.3 -4.05 -12.55 -5.65 -12.1 -6.0 -11.45 -6.85 -8.8 -7.95 -8.65 -9.85 -10.05 -9.9 -11.85 -9.85 -10.05 -7.95 -8.65 -6.85 -8.8 -6.0 -11.45 -5.65 -12.1 -4.05 -12.55 -3.15 -12.3 0.75 -12.55 M-2.45 -15.15 L-1.95 -15.1 -0.45 -15.75 -0.1 -15.4 -0.45 -15.75 -1.95 -15.1 -2.45 -15.15 M2.4 -15.6 L1.05 -15.5 2.4 -15.6 M6.45 -19.05 L5.65 -18.5 6.45 -19.05" fill="#362a1d" fill-rule="evenodd" stroke="none"/>
      <path d="M-4.85 4.1 L-4.7 3.75 -4.5 3.05 -4.85 4.1" fill="#2f271e" fill-rule="evenodd" stroke="none"/>
      <path d="M-13.55 -4.7 Q-14.65 -4.1 -14.95 -3.25 L-14.9 -1.8 -14.35 -3.2 -12.8 -4.1 -13.55 -4.7" fill="#302217" fill-rule="evenodd" stroke="none"/>
      <path d="M-14.9 -1.8 Q-14.55 -0.55 -13.0 -0.2 -11.85 -2.1 -10.95 -2.55 -11.2 -2.35 -10.35 -1.1 -12.0 0.25 -11.95 1.35 -11.8 2.35 -10.3 2.85 L-8.05 2.5 -8.4 0.95 -8.4 0.9 -8.35 0.9 -8.0 -0.05 Q-7.25 0.7 -7.0 1.6 -7.15 2.55 -7.7 3.15 L-7.65 4.2 -7.0 5.0 Q-6.5 5.35 -5.6 5.3 L-5.4 5.1 -4.85 4.1 -4.5 3.05 -4.45 2.4 -4.15 2.8 -4.6 4.15 -3.7 5.2 -2.55 5.4 Q-1.85 5.35 -1.5 4.8 L-1.05 3.95 -0.85 3.2 -1.15 0.9 Q-0.3 1.6 -0.4 2.55 L-0.5 4.2 Q2.3 5.2 2.6 2.5 L2.35 0.05 Q8.05 -2.35 7.95 -6.35 L5.85 -7.3 4.8 -6.1 Q-2.45 -5.25 -4.5 -5.9 L-8.5 -7.1 -8.65 -7.0 -10.1 -6.15 Q-10.55 -4.3 -11.05 -4.1 -12.2 -3.9 -12.8 -4.1 L-14.35 -3.2 -14.9 -1.8 M-4.5 1.1 L-4.45 2.4 -4.5 1.1 M-8.35 0.15 L-8.35 0.9 -8.35 0.15" fill="#261d14" fill-rule="evenodd" stroke="none"/>
      <path d="M-8.4 0.95 L-8.35 0.9 -8.4 0.95" fill="#29211b" fill-rule="evenodd" stroke="none"/>
      <path d="M-8.4 0.9 L-8.4 0.95 -8.35 0.9 -8.4 0.9" fill="#1a1411" fill-rule="evenodd" stroke="none"/>
      <path d="M6.7 -19.2 L6.6 -20.7 Q7.0 -21.3 8.5 -20.9 L8.65 -20.4 7.35 -20.35 7.4 -19.1 M6.45 -19.05 L6.7 -19.2 5.6 -19.75 5.05 -20.0 5.8 -21.1 Q5.1 -21.75 1.75 -22.15 L1.25 -21.85 4.0 -21.2 3.45 -20.3 3.45 -20.05 3.85 -19.4 2.85 -20.05 0.4 -21.15 -3.35 -21.25 Q-3.7 -20.9 -3.5 -20.7 L-1.15 -20.5 -0.8 -19.8 -0.7 -19.6 -1.05 -19.75 -2.9 -18.65 -4.85 -18.7 Q-7.7 -18.5 -8.05 -16.95 L-7.8 -16.9 -8.2 -16.35 -9.85 -16.15 -11.4 -15.55 Q-12.2 -14.85 -11.45 -14.6 L-8.65 -14.9 -9.6 -14.65 -10.35 -14.25 -10.85 -13.9 Q-11.7 -12.65 -11.1 -11.55 -13.2 -10.85 -13.85 -10.35 -14.3 -9.65 -14.15 -9.0 L-13.55 -8.05 -11.55 -8.9 Q-12.75 -8.05 -13.3 -7.2 -13.9 -5.9 -13.6 -4.85 L-13.55 -4.7 Q-14.65 -4.1 -14.95 -3.25 L-14.9 -1.8 Q-14.55 -0.55 -13.0 -0.2 -11.85 -2.1 -10.95 -2.55 -11.2 -2.35 -10.35 -1.1 -12.0 0.25 -11.95 1.35 -11.8 2.35 -10.3 2.85 L-8.05 2.5 -8.4 0.95 -8.35 0.9 -8.0 -0.05 Q-7.25 0.7 -7.0 1.6 -7.15 2.55 -7.7 3.15 L-7.65 4.2 -7.0 5.0 Q-6.5 5.35 -5.6 5.3 L-5.4 5.1 -4.85 4.1 -4.7 3.75 -4.5 3.05 -4.45 2.4 -4.15 2.8 -4.6 4.15 -3.7 5.2 -2.55 5.4 Q-1.85 5.35 -1.5 4.8 L-1.05 3.95 -0.85 3.2 -1.15 0.9 Q-0.3 1.6 -0.4 2.55 L-0.5 4.2 Q2.3 5.2 2.6 2.5 L2.35 0.05 Q8.05 -2.35 7.95 -6.35 M8.65 -16.35 L9.1 -17.4 9.35 -18.15 10.35 -17.8 10.4 -18.5 Q9.35 -19.3 8.85 -19.35 8.3 -19.25 7.65 -18.65 L7.5 -18.55 M7.35 -18.75 L7.4 -18.85 7.4 -19.1 M7.35 -18.75 L7.1 -18.15 6.8 -17.95 M7.1 -18.15 L7.5 -18.55 M8.35 -15.65 L8.25 -15.3 M8.65 -16.35 L8.35 -15.65 M-0.4 -19.5 L-0.7 -19.6 M1.15 -18.75 L4.4 -16.9 M-2.9 -18.65 L-3.35 -18.1 -6.3 -18.25 -7.8 -16.9 M4.4 -19.1 L3.85 -19.4 M1.15 -18.75 L0.55 -19.05 -0.4 -19.5 M-9.9 -11.85 L-9.9 -12.45 -8.95 -13.35 -8.75 -13.55 -6.1 -15.3 -5.35 -15.6 -5.2 -15.65 -4.65 -15.75 -4.05 -15.65 -2.45 -15.15 -2.1 -15.0 -0.1 -15.4 1.05 -15.5 2.4 -15.6 M-0.1 -15.4 L-0.45 -15.75 -1.95 -15.1 -2.45 -15.15 M-9.9 -11.85 Q-9.85 -10.05 -7.95 -8.65 -6.85 -8.8 -6.0 -11.45 -5.65 -12.1 -4.05 -12.55 -3.15 -12.3 0.75 -12.55 M-8.2 -15.5 L-7.25 -14.95 -6.4 -15.35 -5.75 -15.65 -5.35 -15.6 M-8.2 -16.35 L-8.4 -15.9 -8.2 -15.5 M5.65 -18.5 L6.45 -19.05 M-12.8 -4.1 L-13.55 -4.7 M-8.65 -7.0 L-10.1 -6.15 Q-10.55 -4.3 -11.05 -4.1 -12.2 -3.9 -12.8 -4.1 M-8.4 0.9 L-8.4 0.95 -8.4 0.9 -8.4 0.95 M-8.35 0.9 L-8.35 0.15 M-4.45 2.4 L-4.5 1.1 M-4.5 3.05 L-4.85 4.1" fill="none" stroke="#211712" stroke-linecap="round" stroke-linejoin="round" stroke-opacity="0.5019608" stroke-width="0.05"/>
      <path d="M3.55 -17.9 Q6.75 -18.3 9.2 -15.25 11.65 -12.15 11.9 -7.35 12.15 -2.6 10.05 1.1 8.0 4.8 4.8 5.2 1.6 5.65 -0.85 2.55 -3.3 -0.6 -3.55 -5.35 -3.8 -10.1 -1.75 -13.85 0.35 -17.5 3.55 -17.9" fill="#7c6f50" fill-rule="evenodd" stroke="none"/>
      <path d="M3.55 -17.9 Q6.75 -18.3 9.2 -15.25 11.65 -12.15 11.9 -7.35 12.15 -2.6 10.05 1.1 8.0 4.8 4.8 5.2 1.6 5.65 -0.85 2.55 -3.3 -0.6 -3.55 -5.35 -3.8 -10.1 -1.75 -13.85 0.35 -17.5 3.55 -17.9 Z" fill="none" stroke="#332720" stroke-linecap="round" stroke-linejoin="round" stroke-opacity="0.3019608" stroke-width="0.05"/>
      <path d="M-2.65 -3.65 L-2.85 -5.25 Q-3.1 -10.05 -1.05 -13.7 1.05 -17.4 4.25 -17.8 7.45 -18.2 9.9 -15.15 12.15 -12.25 12.6 -7.9 12.05 -5.95 10.9 -7.45 L-0.65 -4.2 Q-1.65 -2.2 -2.65 -3.65 M2.65 4.35 Q7.3 5.25 10.25 1.45 7.3 6.2 2.65 4.35" fill="#f0e4b3" fill-rule="evenodd" stroke="none"/>
      <path d="M12.6 -7.9 L12.6 -7.25 Q12.75 -4.4 12.1 -1.95 6.95 -4.65 -0.55 2.05 -2.2 -0.3 -2.65 -3.65 -1.65 -2.2 -0.65 -4.2 L10.9 -7.45 Q12.05 -5.95 12.6 -7.9" fill="#91815e" fill-rule="evenodd" stroke="none"/>
      <path d="M12.1 -1.95 Q11.6 -0.3 10.75 1.2 8.7 4.85 5.5 5.3 2.3 5.7 -0.15 2.6 L-0.55 2.05 Q6.95 -4.65 12.1 -1.95 M2.65 4.35 Q7.3 6.2 10.25 1.45 7.3 5.25 2.65 4.35" fill="#979668" fill-rule="evenodd" stroke="none"/>
      <path d="M-2.65 -3.65 L-2.85 -5.25 Q-3.1 -10.05 -1.05 -13.7 1.05 -17.4 4.25 -17.8 7.45 -18.2 9.9 -15.15 12.15 -12.25 12.6 -7.9 L12.6 -7.25 Q12.75 -4.4 12.1 -1.95 11.6 -0.3 10.75 1.2 8.7 4.85 5.5 5.3 2.3 5.7 -0.15 2.6 L-0.55 2.05 Q-2.2 -0.3 -2.65 -3.65 Z" fill="none" stroke="#332720" stroke-linecap="round" stroke-linejoin="round" stroke-opacity="0.3019608" stroke-width="0.05"/>
      <path d="M-1.95 -10.65 L-0.8 -10.25" fill="none" stroke="#14100d" stroke-linecap="round" stroke-linejoin="round" stroke-opacity="0.3019608" stroke-width="0.05"/>
      <path d="M-1.4 -10.4 Q-1.25 -11.95 -0.5 -13.55" fill="none" stroke="#14100d" stroke-linecap="round" stroke-linejoin="round" stroke-opacity="0.3019608" stroke-width="0.05"/>
      <path d="M-0.5 -13.55 L1.1 -15.85" fill="none" stroke="#14100d" stroke-linecap="round" stroke-linejoin="round" stroke-opacity="0.3019608" stroke-width="0.05"/>
      <path d="M4.35 -17.8 L4.8 -17.6" fill="none" stroke="#14100d" stroke-linecap="round" stroke-linejoin="round" stroke-opacity="0.3019608" stroke-width="0.05"/>
      <path d="M4.8 -17.6 L4.85 -17.25" fill="none" stroke="#14100d" stroke-linecap="round" stroke-linejoin="round" stroke-opacity="0.3019608" stroke-width="0.05"/>
      <path d="M9.15 -16.0 L8.8 -15.4" fill="none" stroke="#14100d" stroke-linecap="round" stroke-linejoin="round" stroke-opacity="0.3019608" stroke-width="0.05"/>
      <path d="M9.0 -15.7 Q10.25 -14.55 10.9 -13.15" fill="none" stroke="#14100d" stroke-linecap="round" stroke-linejoin="round" stroke-opacity="0.3019608" stroke-width="0.05"/>
      <path d="M10.9 -13.15 L10.6 -12.95" fill="none" stroke="#14100d" stroke-linecap="round" stroke-linejoin="round" stroke-opacity="0.3019608" stroke-width="0.05"/>
      <path d="M12.0 -9.45 L12.3 -6.9" fill="none" stroke="#14100d" stroke-linecap="round" stroke-linejoin="round" stroke-opacity="0.3019608" stroke-width="0.05"/>
      <path d="M12.3 -6.9 L12.1 -3.75" fill="none" stroke="#14100d" stroke-linecap="round" stroke-linejoin="round" stroke-opacity="0.3019608" stroke-width="0.05"/>
      <path d="M12.1 -3.75 L12.4 -3.6" fill="none" stroke="#14100d" stroke-linecap="round" stroke-linejoin="round" stroke-opacity="0.3019608" stroke-width="0.05"/>
      <path d="M-2.1 -9.5 Q-2.65 -7.25 -2.5 -5.0" fill="none" stroke="#14100d" stroke-linecap="round" stroke-linejoin="round" stroke-opacity="0.3019608" stroke-width="0.05"/>
      <path d="M-2.55 -5.75 L-2.3 -5.65" fill="none" stroke="#14100d" stroke-linecap="round" stroke-linejoin="round" stroke-opacity="0.3019608" stroke-width="0.05"/>
      <path d="M4.9 -16.4 Q7.7 -16.75 9.8 -14.05 11.9 -11.3 12.1 -7.15 12.35 -3.0 10.55 0.25 8.8 3.45 6.0 3.8 3.25 4.15 1.15 1.45 -0.95 -1.25 -1.2 -5.4 -1.4 -9.55 0.4 -12.85 2.15 -16.05 4.9 -16.4" fill="#693d1f" fill-rule="evenodd" stroke="none"/>
      <path d="M4.9 -16.4 Q7.7 -16.75 9.8 -14.05 11.9 -11.3 12.1 -7.15 12.35 -3.0 10.55 0.25 8.8 3.45 6.0 3.8 3.25 4.15 1.15 1.45 -0.95 -1.25 -1.2 -5.4 -1.4 -9.55 0.4 -12.85 2.15 -16.05 4.9 -16.4 Z" fill="none" stroke="#332720" stroke-linecap="round" stroke-linejoin="round" stroke-opacity="0.3019608" stroke-width="0.05"/>
      <path d="M8.3 -10.8 Q8.85 -8.85 9.05 -6.6 9.45 -2.4 8.55 1.0 L8.15 1.4 Q7.2 2.15 6.05 2.3 L5.7 2.35 Q4.45 2.4 3.4 1.6 L1.95 0.25 Q0.2 -2.1 -0.15 -5.7 -0.35 -9.1 0.85 -11.75 6.45 -8.8 8.3 -10.8" fill="#8a890f" fill-rule="evenodd" stroke="none"/>
      <path d="M9.15 -12.8 Q10.65 -10.55 10.9 -7.2 11.25 -3.6 9.75 -0.8 9.25 0.3 8.55 1.0 9.45 -2.4 9.05 -6.6 8.85 -8.85 8.3 -10.8 8.95 -11.5 9.15 -12.8" fill="#746f35" fill-rule="evenodd" stroke="none"/>
      <path d="M8.15 2.3 Q7.05 3.15 5.75 3.3 L5.35 3.35 Q3.85 3.4 2.65 2.6 L1.05 1.05 Q-1.0 -1.55 -1.2 -5.55 -1.4 -9.2 0.05 -12.2 L0.3 -12.6 Q1.95 -15.6 4.6 -16.0 L4.65 -16.05 5.35 -16.1 5.8 -16.05 6.3 -15.35 6.45 -15.15 5.7 -15.3 5.3 -15.35 4.7 -15.3 4.65 -15.3 Q2.45 -14.95 1.05 -12.2 L0.85 -11.75 Q-0.35 -9.1 -0.15 -5.7 0.2 -2.1 1.95 0.25 L3.4 1.6 Q4.45 2.4 5.7 2.35 L6.05 2.3 Q7.2 2.15 8.15 1.4 L8.55 1.0 8.15 2.3" fill="#64630b" fill-rule="evenodd" stroke="none"/>
      <path d="M5.8 -16.05 Q7.7 -15.8 9.25 -14.0 L9.35 -13.8 Q11.45 -11.2 11.65 -7.2 11.85 -3.2 10.1 -0.15 L8.15 2.3 8.55 1.0 Q9.25 0.3 9.75 -0.8 11.25 -3.6 10.9 -7.2 10.65 -10.55 9.15 -12.8 L8.85 -13.25 Q7.7 -14.75 6.45 -15.15 L6.3 -15.35 5.8 -16.05" fill="#524d25" fill-rule="evenodd" stroke="none"/>
      <path d="M0.85 -11.75 L1.05 -12.2 Q2.45 -14.95 4.65 -15.3 L4.7 -15.3 5.3 -15.35 5.7 -15.3 6.45 -15.15 Q7.65 -13.25 8.3 -10.8 6.45 -8.8 0.85 -11.75" fill="#a0a012" fill-rule="evenodd" stroke="none"/>
      <path d="M6.45 -15.15 Q7.7 -14.75 8.85 -13.25 L9.15 -12.8 Q8.95 -11.5 8.3 -10.8 7.65 -13.25 6.45 -15.15" fill="#867e3e" fill-rule="evenodd" stroke="none"/>
      <path d="M5.8 -16.05 Q7.7 -15.8 9.25 -14.0 L9.35 -13.8 Q11.45 -11.2 11.65 -7.2 11.85 -3.2 10.1 -0.15 L8.15 2.3 Q7.05 3.15 5.75 3.3 L5.35 3.35 Q3.85 3.4 2.65 2.6 L1.05 1.05 Q-1.0 -1.55 -1.2 -5.55 -1.4 -9.2 0.05 -12.2 L0.3 -12.6 Q1.95 -15.6 4.6 -16.0 L4.65 -16.05 5.35 -16.1 5.8 -16.05 Z" fill="none" stroke="#332720" stroke-linecap="round" stroke-linejoin="round" stroke-opacity="0.3019608" stroke-width="0.05"/>
      <path d="M3.45 -11.5 L2.2 -15.25" fill="none" stroke="#332720" stroke-linecap="round" stroke-linejoin="round" stroke-opacity="0.3019608" stroke-width="0.05"/>
      <path d="M1.85 -9.2 Q2.7 -5.55 2.3 -2.45" fill="none" stroke="#332720" stroke-linecap="round" stroke-linejoin="round" stroke-opacity="0.3019608" stroke-width="0.05"/>
      <path d="M2.8 2.5 L3.3 0.55" fill="none" stroke="#332720" stroke-linecap="round" stroke-linejoin="round" stroke-opacity="0.3019608" stroke-width="0.05"/>
      <path d="M8.05 -1.65 L7.4 2.55" fill="none" stroke="#332720" stroke-linecap="round" stroke-linejoin="round" stroke-opacity="0.3019608" stroke-width="0.05"/>
      <path d="M8.5 -13.85 L9.5 -10.1" fill="none" stroke="#332720" stroke-linecap="round" stroke-linejoin="round" stroke-opacity="0.3019608" stroke-width="0.05"/>
      <path d="M10.95 -7.55 L9.8 -7.2" fill="none" stroke="#332720" stroke-linecap="round" stroke-linejoin="round" stroke-opacity="0.3019608" stroke-width="0.05"/>
      <path d="M2.95 -13.05 L2.35 -12.75" fill="none" stroke="#332720" stroke-linecap="round" stroke-linejoin="round" stroke-opacity="0.3019608" stroke-width="0.05"/>
      <path d="M4.85 1.7 L7.55 1.45" fill="none" stroke="#332720" stroke-linecap="round" stroke-linejoin="round" stroke-opacity="0.3019608" stroke-width="0.05"/>
      <path d="M8.75 -13.5 L8.4 -13.95 8.25 -14.15 7.95 -14.45 8.05 -15.45 9.05 -14.45 8.75 -13.5" fill="#877901" fill-rule="evenodd" stroke="none"/>
      <path d="M7.95 -14.45 L8.25 -14.15 8.4 -13.95 8.75 -13.5 7.75 -10.9 7.95 -14.45 M10.55 -3.0 L10.25 -3.55 9.15 -5.15 8.9 -5.5 10.95 -5.5 10.55 -3.0" fill="#baa701" fill-rule="evenodd" stroke="none"/>
      <path d="M2.0 -13.65 L2.2 -13.5 5.1 -10.75 1.1 -12.25 2.0 -13.65 M0.5 -2.85 L4.75 -4.35 2.25 0.45 1.95 0.1 Q1.0 -1.2 0.5 -2.85" fill="#cab502" fill-rule="evenodd" stroke="none"/>
      <path d="M1.1 -12.25 L0.2 -12.55 Q0.75 -13.55 1.25 -14.05 L2.0 -13.65 1.1 -12.25 M2.25 0.45 L1.5 1.7 0.75 0.7 Q0.05 -0.25 -0.6 -2.35 L0.25 -2.75 0.5 -2.85 Q1.0 -1.2 1.95 0.1 L2.25 0.45 M10.95 -5.5 L11.65 -5.55 Q11.5 -3.8 11.0 -2.25 L10.7 -2.8 10.55 -3.0 10.95 -5.5" fill="#988801" fill-rule="evenodd" stroke="none"/>
      <path d="M1.1 -12.25 L0.2 -12.55 Q0.75 -13.55 1.25 -14.05 L2.0 -13.65 2.2 -13.5 5.1 -10.75 1.1 -12.25 M2.25 0.45 L1.5 1.7 0.75 0.7 Q0.05 -0.25 -0.6 -2.35 L0.25 -2.75 0.5 -2.85 4.75 -4.35 2.25 0.45 M7.95 -14.45 L7.75 -10.9 8.75 -13.5 9.05 -14.45 8.05 -15.45 7.95 -14.45 M10.55 -3.0 L10.25 -3.55 9.15 -5.15 8.9 -5.5 10.95 -5.5 11.65 -5.55 Q11.5 -3.8 11.0 -2.25 L10.7 -2.8 10.55 -3.0" fill="none" stroke="#332720" stroke-linecap="round" stroke-linejoin="round" stroke-opacity="0.3019608" stroke-width="0.05"/>
      <path d="M5.0 -9.95 Q5.6 -9.2 5.6 -8.0 5.6 -6.85 5.0 -5.95 4.4 -5.05 3.5 -4.9 2.65 -4.8 2.0 -5.5 1.45 -6.25 1.45 -7.4 1.45 -8.55 2.0 -9.5 2.65 -10.4 3.5 -10.5 4.4 -10.65 5.0 -9.95" fill="#543001" fill-opacity="0.73333335" fill-rule="evenodd" stroke="none"/>
      <path d="M8.45 -2.8 Q9.05 -2.25 9.05 -1.05 9.05 0.1 8.45 1.2 7.8 2.3 6.95 2.75 L5.45 2.65 Q4.85 2.1 4.85 0.95 4.85 -0.2 5.45 -1.35 6.1 -2.45 6.95 -2.85 L8.45 -2.8" fill="#543001" fill-opacity="0.73333335" fill-rule="evenodd" stroke="none"/>
      <path d="M9.85 -11.6 Q10.3 -10.85 10.3 -9.65 10.3 -8.5 9.85 -7.6 9.45 -6.7 8.85 -6.55 8.25 -6.45 7.85 -7.15 7.45 -7.9 7.45 -9.05 7.45 -10.2 7.85 -11.15 8.25 -12.05 8.85 -12.15 9.45 -12.3 9.85 -11.6" fill="#543001" fill-opacity="0.73333335" fill-rule="evenodd" stroke="none"/>
      <path d="M3.65 -10.9 L3.95 -11.0 3.95 -11.05 4.2 -11.1 Q5.1 -11.35 5.7 -10.8 6.2 -10.3 6.25 -9.35 L6.25 -9.3 6.25 -9.1 6.25 -9.05 6.15 -8.55 Q6.0 -8.15 5.75 -8.4 L5.65 -9.25 5.65 -8.95 5.45 -7.75 5.0 -7.15 4.5 -6.9 4.25 -6.8 Q3.8 -6.85 3.5 -7.05 L3.15 -7.35 3.05 -7.7 3.0 -8.4 3.05 -8.6 3.0 -8.4 2.95 -8.15 3.0 -7.4 Q2.8 -7.25 2.6 -7.25 L2.3 -7.7 2.25 -8.4 2.2 -8.6 Q2.3 -9.3 2.65 -9.8 L3.65 -10.9 M5.65 -9.25 L5.45 -9.9 5.3 -10.1 Q4.9 -10.5 4.35 -10.35 L4.0 -10.2 3.4 -9.6 3.25 -9.35 3.05 -8.6 3.25 -9.35 3.4 -9.6 4.0 -10.2 4.35 -10.35 Q4.9 -10.5 5.3 -10.1 L5.45 -9.9 5.65 -9.25" fill="#f0e4b3" fill-rule="evenodd" stroke="none"/>
      <path d="M6.25 -9.05 Q6.25 -7.9 5.9 -7.3 L5.15 -6.45 Q4.8 -6.2 4.2 -6.05 L3.85 -6.0 3.8 -6.0 2.95 -6.05 2.85 -6.1 2.35 -6.75 Q2.2 -7.15 2.2 -7.95 L2.15 -8.15 2.2 -8.35 2.25 -8.4 2.3 -7.7 2.6 -7.25 Q2.8 -7.25 3.0 -7.4 L2.95 -8.15 3.0 -8.4 3.05 -7.7 3.15 -7.35 3.5 -7.05 Q3.8 -6.85 4.25 -6.8 L4.5 -6.9 5.0 -7.15 5.45 -7.75 5.65 -8.95 5.65 -9.25 5.75 -8.4 Q6.0 -8.15 6.15 -8.55 L6.25 -9.05" fill="#91815e" fill-rule="evenodd" stroke="none"/>
      <path d="M2.2 -8.6 L2.25 -8.4 2.2 -8.35 2.2 -8.6 M3.0 -8.4 L3.05 -8.6 3.0 -8.4" fill="#7d6f51" fill-rule="evenodd" stroke="none"/>
      <path d="M3.8 -6.0 Q2.5 -5.75 1.9 -6.6 1.7 -7.0 1.65 -7.65 L1.7 -8.65 2.2 -9.65 Q2.6 -10.4 3.65 -10.9 L2.65 -9.8 Q2.3 -9.3 2.2 -8.6 L2.2 -8.35 2.15 -8.15 2.2 -7.95 Q2.2 -7.15 2.35 -6.75 L2.85 -6.1 2.95 -6.05 3.8 -6.0" fill="#7c6f50" fill-rule="evenodd" stroke="none"/>
      <path d="M3.65 -10.9 L3.95 -11.0 3.95 -11.05 4.2 -11.1 Q5.1 -11.35 5.7 -10.8 6.2 -10.3 6.25 -9.35 L6.25 -9.3 6.25 -9.1 M6.25 -9.05 Q6.25 -7.9 5.9 -7.3 L5.15 -6.45 Q4.8 -6.2 4.2 -6.05 L3.85 -6.0 3.8 -6.0 Q2.5 -5.75 1.9 -6.6 1.7 -7.0 1.65 -7.65 L1.7 -8.65 2.2 -9.65 Q2.6 -10.4 3.65 -10.9 L2.65 -9.8 Q2.3 -9.3 2.2 -8.6 L2.2 -8.35 2.15 -8.15 2.2 -7.95 Q2.2 -7.15 2.35 -6.75 L2.85 -6.1 2.95 -6.05 3.8 -6.0" fill="none" stroke="#14100d" stroke-linecap="round" stroke-linejoin="round" stroke-opacity="0.3019608" stroke-width="0.05"/>
      <path d="M3.15 -9.5 Q2.85 -9.0 2.7 -8.2 L2.9 -7.45" fill="none" stroke="#14100d" stroke-linecap="round" stroke-linejoin="round" stroke-opacity="0.3019608" stroke-width="0.05"/>
      <path d="M3.05 -7.65 Q2.95 -7.45 2.65 -7.4" fill="none" stroke="#14100d" stroke-linecap="round" stroke-linejoin="round" stroke-opacity="0.3019608" stroke-width="0.05"/>
      <path d="M6.1 -9.0 L5.7 -7.35 4.95 -6.75" fill="none" stroke="#14100d" stroke-linecap="round" stroke-linejoin="round" stroke-opacity="0.3019608" stroke-width="0.05"/>
      <path d="M5.9 -8.1 L5.55 -8.1" fill="none" stroke="#14100d" stroke-linecap="round" stroke-linejoin="round" stroke-opacity="0.3019608" stroke-width="0.05"/>
      <path d="M4.25 -10.0 L4.5 -10.1 5.35 -9.9 5.5 -9.7 5.65 -9.15 5.65 -8.95 5.5 -7.9 5.1 -7.35 4.7 -7.15 4.45 -7.1 Q5.1 -7.35 5.3 -8.55 L5.3 -8.6 Q5.45 -9.95 4.25 -10.0" fill="#43392c" fill-rule="evenodd" stroke="none"/>
      <path d="M4.25 -10.0 Q5.45 -9.95 5.3 -8.6 L5.3 -8.55 Q5.1 -7.35 4.45 -7.1 L3.8 -7.3 3.5 -7.55 3.4 -7.85 3.4 -8.4 3.45 -8.6 3.6 -9.25 3.7 -9.45 4.25 -10.0" fill="#13100f" fill-rule="evenodd" stroke="none"/>
      <path d="M4.45 -7.1 L4.7 -7.15 5.1 -7.35 5.5 -7.9 5.65 -8.95 5.65 -9.15 5.5 -9.7 5.35 -9.9 4.5 -10.1 4.25 -10.0 Q5.45 -9.95 5.3 -8.6 L5.3 -8.55 Q5.1 -7.35 4.45 -7.1 L3.8 -7.3 3.5 -7.55 3.4 -7.85 3.4 -8.4 3.45 -8.6 3.6 -9.25 3.7 -9.45 4.25 -10.0" fill="none" stroke="#14100d" stroke-linecap="round" stroke-linejoin="round" stroke-opacity="0.3019608" stroke-width="0.05"/>
      <path d="M4.35 -8.6 L4.2 -8.5 4.15 -8.3 4.2 -8.25 Q4.25 -8.15 4.35 -8.2 L4.45 -8.3 4.5 -8.45 4.45 -8.55 4.35 -8.6" fill="#cb0000" fill-rule="evenodd" stroke="none"/>
      <path d="M4.35 -8.6 L4.2 -8.5 4.15 -8.3 4.2 -8.25 Q4.25 -8.15 4.35 -8.2 L4.45 -8.3 4.5 -8.45 4.45 -8.55 4.35 -8.6 Z" fill="none" stroke="#14100d" stroke-linecap="round" stroke-linejoin="round" stroke-opacity="0.3019608" stroke-width="0.05"/>
      <path d="M8.0 -4.05 L8.0 -3.45 7.7 -3.45 7.7 -3.75 7.1 -3.45 5.9 -2.15 5.9 -2.35 Q6.55 -3.35 7.35 -3.9 L8.0 -4.05" fill="#8d7a50" fill-rule="evenodd" stroke="none"/>
      <path d="M5.9 -2.35 L5.9 -2.15 7.1 -3.45 7.7 -3.75 7.7 -3.45 8.0 -3.45 8.0 -4.05 9.05 -3.6 Q9.5 -2.9 9.3 -1.1 9.0 0.2 7.6 1.6 6.4 2.4 5.5 1.8 4.9 0.45 5.5 -1.65 L5.9 -2.35 M8.8 -1.2 Q8.9 -2.45 8.55 -2.95 L7.25 -3.1 Q6.45 -2.5 5.95 -1.4 5.55 0.15 6.05 1.05 6.75 1.5 7.6 0.8 8.6 -0.2 8.8 -1.2" fill="#483e2f" fill-rule="evenodd" stroke="none"/>
      <path d="M7.35 -3.9 Q6.55 -3.35 5.9 -2.35 L5.5 -1.65 Q4.9 0.45 5.5 1.8 6.4 2.4 7.6 1.6 6.4 2.55 5.4 1.85 4.8 0.5 5.35 -1.6 6.1 -3.1 7.35 -3.9 M8.8 -1.2 Q8.6 -0.2 7.6 0.8 6.75 1.5 6.05 1.05 5.55 0.15 5.95 -1.4 6.45 -2.5 7.25 -3.1 L8.55 -2.95 Q8.9 -2.45 8.8 -1.2 M8.05 -0.25 L8.4 -1.0 Q8.55 -2.15 8.3 -2.6 8.0 -3.05 7.3 -2.95 6.5 -2.4 6.05 -1.55 5.6 -0.15 6.0 0.7 L6.45 0.9 7.3 0.65 8.05 -0.25" fill="#211712" fill-rule="evenodd" stroke="none"/>
      <path d="M6.45 0.9 L6.0 0.7 Q5.6 -0.15 6.05 -1.55 6.5 -2.4 7.3 -2.95 8.0 -3.05 8.3 -2.6 8.55 -2.15 8.4 -1.0 L8.05 -0.25 Q8.4 -1.7 8.15 -2.25 L7.2 -2.4 Q6.35 -1.85 6.1 -0.65 5.9 0.65 6.45 0.9" fill="#bfaf7a" fill-rule="evenodd" stroke="none"/>
      <path d="M6.45 0.9 Q5.9 0.65 6.1 -0.65 6.35 -1.85 7.2 -2.4 L8.15 -2.25 Q8.4 -1.7 8.05 -0.25 L7.3 0.65 6.45 0.9" fill="#e8dfa1" fill-rule="evenodd" stroke="none"/>
      <path d="M8.0 -4.05 L7.35 -3.9 Q6.55 -3.35 5.9 -2.35 L5.5 -1.65 Q4.9 0.45 5.5 1.8 6.4 2.4 7.6 1.6 9.0 0.2 9.3 -1.1 9.5 -2.9 9.05 -3.6 L8.0 -4.05 M8.8 -1.2 Q8.6 -0.2 7.6 0.8 6.75 1.5 6.05 1.05 5.55 0.15 5.95 -1.4 6.45 -2.5 7.25 -3.1 L8.55 -2.95 Q8.9 -2.45 8.8 -1.2 M8.05 -0.25 L8.4 -1.0 Q8.55 -2.15 8.3 -2.6 8.0 -3.05 7.3 -2.95 6.5 -2.4 6.05 -1.55 5.6 -0.15 6.0 0.7 L6.45 0.9 M8.05 -0.25 L7.3 0.65 6.45 0.9 M7.35 -3.9 Q6.1 -3.1 5.35 -1.6 4.8 0.5 5.4 1.85 6.4 2.55 7.6 1.6" fill="none" stroke="#332720" stroke-linecap="round" stroke-linejoin="round" stroke-opacity="0.3019608" stroke-width="0.05"/>
      <path d="M5.8 -0.5 L6.4 0.0 7.1 -1.6 7.8 -0.8 8.45 -2.05" fill="none" stroke="#332720" stroke-linecap="round" stroke-linejoin="round" stroke-opacity="0.3019608" stroke-width="0.05"/>
      <path d="M8.7 -12.6 L8.95 -12.7 8.95 -12.75 9.1 -12.85 Q9.7 -13.15 10.2 -12.6 L10.75 -11.2 10.75 -11.15 10.75 -10.95 10.7 -10.4 Q10.65 -10.05 10.45 -10.25 L10.3 -11.05 10.3 -10.8 10.25 -9.6 10.0 -8.95 9.7 -8.65 9.5 -8.6 Q9.15 -8.6 8.95 -8.75 L8.65 -9.05 8.5 -9.35 8.45 -10.05 8.5 -10.3 8.45 -10.05 8.45 -9.8 8.55 -9.1 8.25 -8.9 8.0 -9.3 7.9 -10.0 7.85 -10.25 Q7.9 -10.95 8.1 -11.5 L8.7 -12.6 M10.3 -11.05 L10.1 -11.7 9.95 -11.95 9.25 -12.1 9.05 -11.9 8.65 -11.3 Q8.55 -11.2 8.6 -11.0 L8.5 -10.3 8.6 -11.0 Q8.55 -11.2 8.65 -11.3 L9.05 -11.9 9.25 -12.1 9.95 -11.95 10.1 -11.7 10.3 -11.05" fill="#f0e4b3" fill-rule="evenodd" stroke="none"/>
      <path d="M10.75 -10.95 Q10.85 -9.8 10.6 -9.15 L10.2 -8.25 9.5 -7.85 9.25 -7.7 9.2 -7.7 8.6 -7.75 8.55 -7.8 Q8.25 -7.95 8.1 -8.4 7.95 -8.75 7.9 -9.6 L7.9 -9.8 7.85 -10.0 7.9 -10.0 8.0 -9.3 8.25 -8.9 8.55 -9.1 8.45 -9.8 8.45 -10.05 8.5 -9.35 8.65 -9.05 8.95 -8.75 Q9.15 -8.6 9.5 -8.6 L9.7 -8.65 10.0 -8.95 10.25 -9.6 10.3 -10.8 10.3 -11.05 10.45 -10.25 Q10.65 -10.05 10.7 -10.4 L10.75 -10.95" fill="#91815e" fill-rule="evenodd" stroke="none"/>
      <path d="M7.85 -10.25 L7.9 -10.0 7.85 -10.0 7.85 -10.25 M8.45 -10.05 L8.5 -10.3 8.45 -10.05" fill="#7d6f51" fill-rule="evenodd" stroke="none"/>
      <path d="M9.2 -7.7 Q8.35 -7.4 7.8 -8.2 L7.6 -9.25 7.5 -10.2 7.75 -11.3 Q8.0 -12.1 8.7 -12.6 L8.1 -11.5 Q7.9 -10.95 7.85 -10.25 L7.85 -10.0 7.9 -9.8 7.9 -9.6 Q7.95 -8.75 8.1 -8.4 8.25 -7.95 8.55 -7.8 L8.6 -7.75 9.2 -7.7" fill="#7c6f50" fill-rule="evenodd" stroke="none"/>
      <path d="M8.7 -12.6 L8.95 -12.7 8.95 -12.75 9.1 -12.85 Q9.7 -13.15 10.2 -12.6 L10.75 -11.2 10.75 -11.15 10.75 -10.95 Q10.85 -9.8 10.6 -9.15 L10.2 -8.25 9.5 -7.85 9.25 -7.7 9.2 -7.7 Q8.35 -7.4 7.8 -8.2 L7.6 -9.25 7.5 -10.2 7.75 -11.3 Q8.0 -12.1 8.7 -12.6 L8.1 -11.5 Q7.9 -10.95 7.85 -10.25 M7.85 -10.0 L7.9 -9.8 7.9 -9.6 Q7.95 -8.75 8.1 -8.4 8.25 -7.95 8.55 -7.8 L8.6 -7.75 9.2 -7.7 M7.85 -10.0 L7.85 -10.25" fill="none" stroke="#14100d" stroke-linecap="round" stroke-linejoin="round" stroke-opacity="0.3019608" stroke-width="0.05"/>
      <path d="M8.45 -11.3 L8.25 -9.9 8.45 -9.3" fill="none" stroke="#14100d" stroke-linecap="round" stroke-linejoin="round" stroke-opacity="0.3019608" stroke-width="0.05"/>
      <path d="M8.6 -9.4 L8.3 -9.15" fill="none" stroke="#14100d" stroke-linecap="round" stroke-linejoin="round" stroke-opacity="0.3019608" stroke-width="0.05"/>
      <path d="M10.7 -10.9 L10.5 -9.25 10.0 -8.65" fill="none" stroke="#14100d" stroke-linecap="round" stroke-linejoin="round" stroke-opacity="0.3019608" stroke-width="0.05"/>
      <path d="M10.6 -10.0 L10.35 -9.95" fill="none" stroke="#14100d" stroke-linecap="round" stroke-linejoin="round" stroke-opacity="0.3019608" stroke-width="0.05"/>
      <path d="M9.2 -11.75 L9.4 -11.9 Q9.75 -12.05 9.95 -11.75 L10.1 -11.55 10.3 -11.0 10.3 -10.8 10.25 -9.75 10.05 -9.2 9.75 -9.0 9.55 -8.85 Q10.05 -9.15 10.1 -10.4 L10.1 -10.45 Q10.05 -11.8 9.2 -11.75" fill="#43392c" fill-rule="evenodd" stroke="none"/>
      <path d="M9.2 -11.75 Q10.05 -11.8 10.1 -10.45 L10.1 -10.4 Q10.05 -9.15 9.55 -8.85 9.3 -8.9 9.1 -9.05 L8.9 -9.25 8.8 -9.55 8.7 -10.15 8.75 -10.35 8.85 -10.95 8.85 -11.25 9.2 -11.75" fill="#13100f" fill-rule="evenodd" stroke="none"/>
      <path d="M9.55 -8.85 L9.75 -9.0 10.05 -9.2 10.25 -9.75 10.3 -10.8 10.3 -11.0 10.1 -11.55 9.95 -11.75 Q9.75 -12.05 9.4 -11.9 L9.2 -11.75 Q10.05 -11.8 10.1 -10.45 L10.1 -10.4 Q10.05 -9.15 9.55 -8.85 9.3 -8.9 9.1 -9.05 L8.9 -9.25 8.8 -9.55 8.7 -10.15 8.75 -10.35 8.85 -10.95 8.85 -11.25 9.2 -11.75" fill="none" stroke="#14100d" stroke-linecap="round" stroke-linejoin="round" stroke-opacity="0.3019608" stroke-width="0.05"/>
      <path d="M9.4 -10.4 L9.3 -10.3 9.3 -10.1 9.3 -10.05 Q9.4 -9.95 9.45 -10.0 L9.5 -10.15 9.55 -10.25 9.5 -10.4 9.4 -10.4" fill="#cb0000" fill-rule="evenodd" stroke="none"/>
      <path d="M9.4 -10.4 L9.3 -10.3 9.3 -10.1 9.3 -10.05 Q9.4 -9.95 9.45 -10.0 L9.5 -10.15 9.55 -10.25 9.5 -10.4 9.4 -10.4 Z" fill="none" stroke="#14100d" stroke-linecap="round" stroke-linejoin="round" stroke-opacity="0.3019608" stroke-width="0.05"/>
    </g>
  </defs>
</svg>
