<?xml version="1.0" encoding="UTF-8" standalone="no"?>
<svg xmlns:xlink="http://www.w3.org/1999/xlink" height="440.0px" width="440.0px" xmlns="http://www.w3.org/2000/svg">
  <g transform="matrix(10.0, 0.0, 0.0, 10.0, 0.0, 0.0)">
    <use height="44.0" transform="matrix(1.0, 0.0, 0.0, 1.0, 0.0, 0.0)" width="44.0" xlink:href="#shape0"/>
    <use height="44.05" transform="matrix(0.9612, 0.0, 0.0, 0.9612, 3.6199, 0.8092)" width="37.55" xlink:href="#sprite0"/>
  </g>
  <defs>
    <g id="shape0" transform="matrix(1.0, 0.0, 0.0, 1.0, 0.0, 0.0)">
      <path d="M44.0 44.0 L0.0 44.0 0.0 0.0 44.0 0.0 44.0 44.0" fill="#43adca" fill-opacity="0.0" fill-rule="evenodd" stroke="none"/>
    </g>
    <g id="sprite0" transform="matrix(1.0, 0.0, 0.0, 1.0, 22.4, 40.15)">
      <use height="44.05" transform="matrix(1.0, 0.0, 0.0, 1.0, -22.4, -40.15)" width="32.05" xlink:href="#shape1"/>
      <use height="34.8" transform="matrix(0.3828, 0.4666, 0.3671, -0.3011, -10.95, -21.05)" width="34.8" xlink:href="#sprite1"/>
      <use height="20.95" transform="matrix(0.4429, -0.1889, 0.2494, 0.4923, -5.45, -23.55)" width="24.45" xlink:href="#sprite2"/>
    </g>
    <g id="shape1" transform="matrix(1.0, 0.0, 0.0, 1.0, 22.4, 40.15)">
      <path d="M-6.0 -36.7 L-4.55 -35.15 1.85 -29.35 2.4 -29.9 -1.75 -34.2 2.7 -30.75 3.2 -30.1 1.9 -28.35 0.35 -29.25 -0.45 -29.8 -0.65 -30.0 -0.75 -30.05 -1.6 -30.85 -1.05 -30.45 -2.7 -31.9 -4.55 -33.7 -7.8 -36.75 -8.6 -37.85 -8.3 -38.8 -8.05 -38.75 -6.0 -36.7 M0.65 -19.55 L-1.0 -19.05 -2.15 -21.15 -2.4 -23.15 -2.0 -23.3 -1.9 -23.3 -0.3 -20.4 0.65 -19.55" fill="#cd9f07" fill-rule="evenodd" stroke="none"/>
      <path d="M2.7 -30.75 L-1.75 -34.2 2.4 -29.9 1.85 -29.35 -4.55 -35.15 -6.0 -36.7 -4.55 -36.8 -1.5 -35.0 0.85 -32.8 2.7 -30.75 M-8.05 -38.75 L-8.3 -38.8 -7.85 -39.55 -6.95 -39.9 -6.85 -39.9 -6.65 -39.75 -3.75 -37.1 -5.25 -37.6 -8.05 -38.75 M-7.2 -28.55 L-4.25 -27.5 -3.85 -28.7 -3.65 -29.25 -3.3 -30.1 -3.5 -28.6 -2.85 -25.6 -2.45 -25.6 -2.4 -25.6 -1.9 -24.7 -1.9 -23.3 -2.0 -23.3 -2.4 -23.15 -2.55 -23.1 -2.4 -21.0 -2.8 -17.3 Q-3.9 -19.2 -4.4 -20.9 L-6.6 -20.65 -7.6 -22.55 -4.75 -23.2 -4.75 -23.25 -4.8 -23.75 -4.6 -26.1 -7.1 -26.9 -7.3 -28.45 -7.2 -28.55" fill="#ffcc00" fill-rule="evenodd" stroke="none"/>
      <path d="M-6.0 -36.7 L-8.05 -38.75 -5.25 -37.6 -3.75 -37.1 -1.5 -35.0 -4.55 -36.8 -6.0 -36.7 M0.65 -19.55 L1.35 -19.85 2.65 -18.4 -0.25 -18.95 -1.15 -19.05 -1.0 -19.05 0.65 -19.55 M-7.2 -28.55 L-6.5 -29.2 -3.85 -28.7 -4.25 -27.5 -7.2 -28.55 M-4.8 -23.75 L-4.75 -23.25 -4.75 -23.2 -7.6 -22.55 -4.8 -23.75" fill="#ffff2f" fill-rule="evenodd" stroke="none"/>
      <path d="M3.55 -15.8 Q2.9 -15.8 2.25 -15.0 1.7 -14.25 1.6 -13.75 L-0.95 -15.6 -1.05 -15.6 -1.9 -17.15 0.5 -18.35 0.55 -18.3 Q2.1 -17.45 3.55 -15.8 M-0.5 -16.75 L0.1 -16.15 -0.95 -15.6 0.1 -16.15 -0.5 -16.75" fill="#8d4803" fill-rule="evenodd" stroke="none"/>
      <path d="M-4.55 -33.7 L-2.7 -31.9 -1.05 -30.45 -1.6 -30.85 -0.75 -30.05 -0.65 -30.0 -0.45 -29.8 0.35 -29.25 -0.55 -28.15 Q-1.95 -28.25 -3.25 -30.95 -3.25 -31.65 -3.75 -32.6 L-4.0 -32.95 -4.55 -33.7 M0.5 -18.35 L-1.9 -17.15 -1.05 -15.6 -0.95 -15.6 1.6 -13.75 Q1.75 -13.0 1.2 -13.0 L-0.95 -13.4 -2.95 -16.75 -2.9 -16.85 -2.8 -17.1 -2.75 -17.2 -2.2 -18.75 -1.55 -18.9 -1.15 -19.05 -1.55 -18.9 -2.4 -20.7 -2.4 -21.0 -2.55 -23.1 -2.4 -23.15 -2.15 -21.15 -1.0 -19.05 -1.15 -19.05 -0.25 -18.95 0.5 -18.35" fill="#bb6906" fill-rule="evenodd" stroke="none"/>
      <path d="M3.55 -15.8 Q2.1 -17.45 0.55 -18.3 L0.5 -18.35 -0.25 -18.95 2.65 -18.4 4.55 -15.65 7.75 -10.3 3.55 -15.8 M-3.25 -30.95 Q-1.95 -28.25 -0.55 -28.15 L-0.6 -28.1 Q-1.55 -26.85 -1.8 -25.5 L-1.9 -24.7 -2.4 -25.6 -2.4 -25.65 -2.45 -25.6 -2.85 -25.6 -3.5 -28.6 -3.3 -30.1 -3.25 -30.95 M-2.8 -17.3 L-2.4 -21.0 -2.4 -20.7 -1.55 -18.9 -2.2 -18.75 -2.75 -17.2 -2.8 -17.3" fill="#e6b100" fill-rule="evenodd" stroke="none"/>
      <path d="M-2.4 -25.6 L-2.45 -25.6 -2.4 -25.65 -2.4 -25.6" fill="#b0a579" fill-rule="evenodd" stroke="none"/>
      <path d="M-8.3 -38.8 L-8.6 -37.85 -7.8 -36.75 -4.55 -33.7 -2.7 -31.9 M-0.75 -30.05 L-0.65 -30.0 -0.45 -29.8 0.35 -29.25 1.9 -28.35 3.2 -30.1 2.7 -30.75 0.85 -32.8 -1.5 -35.0 M0.5 -18.35 L-1.9 -17.15 -1.05 -15.6 -0.95 -15.6 0.1 -16.15 -0.5 -16.75 M2.65 -18.4 L1.35 -19.85 0.65 -19.55 -1.0 -19.05 -1.15 -19.05 -1.55 -18.9 -2.2 -18.75 -2.75 -17.2 -2.8 -17.1 M2.65 -18.4 L4.55 -15.65 M-3.75 -37.1 L-6.65 -39.75 -6.85 -39.9 -6.95 -39.9 -7.85 -39.55 -8.3 -38.8 M-3.75 -37.1 L-1.5 -35.0 M-4.55 -33.7 L-4.0 -32.95 -3.75 -32.6 Q-3.25 -31.65 -3.25 -30.95 M-0.55 -28.15 L0.35 -29.25 M-3.85 -28.7 L-6.5 -29.2 -7.2 -28.55 -7.3 -28.45 -7.1 -26.9 -4.6 -26.1 -4.8 -23.75 -4.75 -23.25 -4.75 -23.2 M-4.25 -27.5 L-3.85 -28.7 -3.65 -29.25 -3.3 -30.1 -3.25 -30.95 M-7.6 -22.55 L-6.6 -20.65 -4.4 -20.9 Q-3.9 -19.2 -2.8 -17.3 L-2.75 -17.2 M-2.0 -23.3 L-1.9 -23.3 -1.9 -24.7 -1.8 -25.5 Q-1.55 -26.85 -0.6 -28.1 M-2.9 -16.85 L-2.95 -16.75 -0.95 -13.4 M0.65 -19.55 L-0.3 -20.4 -1.9 -23.3 M-4.8 -23.75 L-7.6 -22.55" fill="none" stroke="#000000" stroke-linecap="round" stroke-linejoin="round" stroke-opacity="0.3019608" stroke-width="0.5"/>
      <path d="M-2.4 -21.0 L-2.55 -23.1 -2.4 -23.15 -2.0 -23.3 M-1.55 -18.9 L-2.4 -20.7 -2.4 -21.0" fill="none" stroke="#000000" stroke-linecap="round" stroke-linejoin="round" stroke-opacity="0.3019608" stroke-width="0.25"/>
      <path d="M6.85 -7.75 L6.85 -8.35 6.95 -8.0 7.3 -6.5 7.5 -5.5 7.5 -5.0 Q7.75 -0.5 7.35 2.6 L6.55 2.0 Q6.7 -2.2 5.95 -3.85 L6.65 -4.15 6.75 -5.7 6.85 -7.45 6.85 -7.75 M2.4 3.15 L1.7 2.65 1.4 0.25 Q0.25 -5.05 -3.95 -7.25 -4.15 -7.45 -4.5 -7.5 L-4.6 -7.55 -8.7 -9.6 Q-10.55 -10.6 -11.25 -12.05 -11.8 -16.05 -10.25 -18.3 -11.75 -14.15 -1.75 -8.25 1.35 -5.9 2.15 -0.55 L2.4 2.65 2.4 3.15" fill="#8d4803" fill-rule="evenodd" stroke="none"/>
      <path d="M-8.5 -19.9 Q-10.15 -15.95 -6.25 -14.6 -2.35 -13.25 0.9 -8.85 2.1 -6.15 2.65 -1.2 L2.95 1.4 3.05 3.65 2.4 3.15 2.4 2.65 2.15 -0.55 Q1.35 -5.9 -1.75 -8.25 -11.75 -14.15 -10.25 -18.3 L-8.5 -19.9 M4.0 -5.15 L4.5 -8.45 4.65 -7.3 5.05 -4.6 5.25 -3.5 4.75 -4.15 4.0 -5.15 M-4.6 -7.55 Q-7.1 -8.7 -10.5 -8.75 L-11.25 -12.05 Q-10.55 -10.6 -8.7 -9.6 L-4.6 -7.55" fill="#bb6906" fill-rule="evenodd" stroke="none"/>
      <path d="M8.1 -15.2 L7.2 -13.85 8.6 -12.6 8.75 -12.25 6.95 -8.0 6.85 -8.35 6.85 -7.75 5.05 -4.6 4.65 -7.3 4.5 -8.45 4.0 -5.15 4.05 -3.05 2.65 -1.2 Q2.1 -6.15 0.9 -8.85 -2.35 -13.25 -6.25 -14.6 -10.15 -15.95 -8.5 -19.9 -5.55 -21.95 -0.8 -22.15 6.4 -21.65 8.1 -15.2 M7.3 -6.5 L9.4 -8.9 9.35 -7.8 8.35 2.2 7.35 2.6 Q7.75 -0.5 7.5 -5.0 L7.5 -5.5 7.3 -6.5 M5.95 -3.85 L5.35 -3.55 6.75 -5.7 6.65 -4.15 5.95 -3.85 M4.1 -1.1 L4.2 3.4 3.05 3.65 2.95 1.4 4.1 -1.1" fill="#e6b100" fill-rule="evenodd" stroke="none"/>
      <path d="M2.65 -1.2 L4.05 -3.05 4.1 -1.1 2.95 1.4 2.65 -1.2" fill="#fdb713" fill-rule="evenodd" stroke="none"/>
      <path d="M5.05 -4.6 L6.85 -7.75 6.85 -7.45 6.75 -5.7 5.35 -3.55 5.25 -3.5 5.05 -4.6" fill="#fdca02" fill-rule="evenodd" stroke="none"/>
      <path d="M6.95 -8.0 L8.75 -12.25 Q9.4 -11.25 9.4 -8.9 L7.3 -6.5 6.95 -8.0" fill="#fdd124" fill-rule="evenodd" stroke="none"/>
      <path d="M8.1 -15.2 Q6.4 -21.65 -0.8 -22.15 -5.55 -21.95 -8.5 -19.9 M4.05 -3.05 L4.0 -5.15 M6.85 -7.75 L6.85 -8.35 6.95 -8.0 7.3 -6.5 7.5 -5.5 M8.75 -12.25 L8.6 -12.6 M9.4 -8.9 Q9.4 -11.25 8.75 -12.25 M6.75 -5.7 L6.85 -7.45 6.85 -7.75 M9.4 -8.9 L9.35 -7.8 8.35 2.2 7.35 2.6 6.55 2.0 Q6.7 -2.2 5.95 -3.85 L5.35 -3.55 5.25 -3.5 4.75 -4.15 4.0 -5.15 M4.1 -1.1 L4.05 -3.05 M5.95 -3.85 L6.65 -4.15 6.75 -5.7 M3.05 3.65 L4.2 3.4 4.1 -1.1 M3.05 3.65 L2.4 3.15 1.7 2.65 1.4 0.25 Q0.25 -5.05 -3.95 -7.25 -4.15 -7.45 -4.5 -7.5 L-4.6 -7.55 Q-7.1 -8.7 -10.5 -8.75 L-11.25 -12.05 Q-11.8 -16.05 -10.25 -18.3 L-8.5 -19.9" fill="none" stroke="#000000" stroke-linecap="round" stroke-linejoin="round" stroke-opacity="0.2" stroke-width="0.5"/>
      <path d="M-1.5 -22.1 Q-0.45 -21.8 -0.5 -21.0 -1.6 -20.6 -1.8 -19.65 L-1.85 -18.85 -4.35 -18.15 -1.45 -17.85 -1.15 -17.55 Q-0.3 -16.6 2.3 -15.9 4.8 -15.25 5.6 -15.35 L4.85 -16.8 6.1 -15.5 Q6.5 -15.8 6.5 -16.6 6.55 -17.75 5.55 -19.0 4.5 -20.25 2.85 -20.9 L2.2 -21.05 1.8 -21.15 Q0.65 -21.7 -1.5 -22.1" fill="#ffff2f" fill-rule="evenodd" stroke="none"/>
      <path d="M8.15 -12.85 L8.55 -12.75 Q8.4 -12.25 7.2 -11.75 L7.4 -12.4 8.15 -12.85" fill="#e6b100" fill-rule="evenodd" stroke="none"/>
      <path d="M7.25 -17.5 L8.8 -17.1 8.45 -15.55 Q7.75 -15.15 7.35 -15.55 L7.25 -17.5 M7.9 -14.0 L7.7 -13.8 7.4 -12.4 7.2 -11.75 6.2 -12.7 6.75 -13.85 Q7.5 -14.7 7.9 -14.0" fill="#ffcc00" fill-rule="evenodd" stroke="none"/>
      <path d="M8.45 -15.55 L7.9 -14.0 Q7.5 -14.7 6.75 -13.85 L7.35 -15.55 Q7.75 -15.15 8.45 -15.55" fill="#ffff2f" fill-rule="evenodd" stroke="none"/>
      <path d="M7.7 -13.8 L8.15 -12.85 7.4 -12.4 7.7 -13.8" fill="#26185e" fill-rule="evenodd" stroke="none"/>
      <path d="M7.25 -17.5 L8.8 -17.1 8.45 -15.55 7.9 -14.0 7.7 -13.8 8.15 -12.85 8.55 -12.75 M7.4 -12.4 L7.7 -13.8 M7.4 -12.4 L7.2 -11.75" fill="none" stroke="#000000" stroke-linecap="round" stroke-linejoin="round" stroke-opacity="0.2" stroke-width="0.5"/>
      <path d="M6.2 -12.7 L6.75 -13.85 7.35 -15.55 7.25 -17.5 Z" fill="none" stroke="#000000" stroke-linecap="round" stroke-linejoin="round" stroke-opacity="0.2" stroke-width="0.25"/>
      <path d="M-4.5 -18.1 L-5.1 -16.95 -3.9 -15.45 0.05 -13.55 0.25 -13.5 -0.45 -13.1 -3.65 -14.4 -4.65 -15.3 -5.35 -16.05 -5.65 -16.6 -6.25 -17.1 -6.85 -17.7 -5.55 -19.5 -4.5 -18.1" fill="#ffcc00" fill-rule="evenodd" stroke="none"/>
      <path d="M4.95 -12.0 L4.95 -11.05 4.0 -11.2 0.3 -11.85 -2.85 -13.5 -4.75 -14.55 -5.35 -15.95 -5.45 -16.2 -5.35 -16.05 -4.65 -15.3 -3.65 -14.4 -0.45 -13.1 0.7 -12.6 4.95 -12.0" fill="#8d4803" fill-rule="evenodd" stroke="none"/>
      <path d="M0.25 -13.5 L4.1 -12.75 3.55 -13.1 4.05 -13.6 4.5 -13.3 4.95 -13.05 4.95 -12.0 0.7 -12.6 -0.45 -13.1 0.25 -13.5 M1.7 -10.0 L0.1 -9.7 -2.8 -10.55 1.7 -10.0 M-5.55 -19.5 L-5.5 -19.55 -4.1 -18.85 -4.5 -18.1 -5.55 -19.5" fill="#ffff2f" fill-rule="evenodd" stroke="none"/>
      <path d="M4.0 -11.2 L4.0 -10.55 2.45 -10.2 2.45 -10.8 2.5 -10.8 4.0 -11.2 M-3.4 -10.95 L-3.9 -12.1 -6.25 -14.2 -6.25 -17.1 -5.65 -16.6 -5.45 -16.2 -5.35 -15.95 -4.75 -14.55 -2.85 -13.5 Q-3.4 -11.95 -2.85 -11.45 L-2.8 -11.4 -3.4 -10.95" fill="#bb6906" fill-rule="evenodd" stroke="none"/>
      <path d="M2.45 -10.2 L1.7 -10.0 -2.8 -10.55 -3.2 -10.65 -3.4 -10.95 -2.8 -11.4 0.0 -10.4 2.45 -10.8 2.45 -10.2" fill="#e6b100" fill-rule="evenodd" stroke="none"/>
      <path d="M2.45 -10.8 L0.0 -10.4 -2.8 -11.4 -2.85 -11.45 Q-3.4 -11.95 -2.85 -13.5 L0.3 -11.85 4.0 -11.2 2.5 -10.8 2.45 -10.8" fill="#221540" fill-rule="evenodd" stroke="none"/>
      <path d="M4.1 -12.75 L3.55 -13.1 4.05 -13.6 4.5 -13.3 4.95 -13.05 4.95 -12.0 4.95 -11.05 4.0 -11.2 0.3 -11.85 -2.85 -13.5 Q-3.4 -11.95 -2.85 -11.45 L-2.8 -11.4 M-6.25 -17.1 L-6.85 -17.7 -5.55 -19.5 -5.5 -19.55 -4.1 -18.85 -4.5 -18.1 M2.45 -10.8 L0.0 -10.4 -2.8 -11.4 M2.5 -10.8 L4.0 -11.2 M-5.35 -16.05 L-5.45 -16.2 -5.35 -15.95 -4.75 -14.55 -2.85 -13.5 M-5.65 -16.6 L-5.35 -16.05 -4.65 -15.3 M-5.65 -16.6 L-6.25 -17.1 M-5.45 -16.2 L-5.65 -16.6" fill="none" stroke="#000000" stroke-linecap="round" stroke-linejoin="round" stroke-opacity="0.2" stroke-width="0.25"/>
      <path d="M-19.15 -33.8 Q-18.85 -34.5 -17.55 -34.1 L-13.95 -32.45 -11.1 -30.35 -8.8 -28.25 -14.15 -31.6 -9.0 -27.3 -9.55 -26.55 -17.35 -32.3 -19.15 -33.8 M-16.65 -34.5 L-18.4 -34.9 -21.65 -35.85 -21.95 -35.85 -21.5 -36.75 -20.55 -37.25 -20.4 -37.3 -20.2 -37.1 -16.65 -34.5 M-15.4 -26.8 L-15.4 -25.15 -14.35 -21.9 -13.85 -21.95 -13.8 -21.95 -13.2 -21.05 -13.05 -19.5 -13.15 -19.5 -13.75 -19.25 -13.3 -16.9 -13.3 -12.75 Q-14.75 -14.75 -15.5 -16.55 L-17.9 -16.05 -19.25 -18.0 -16.2 -19.05 -16.2 -19.1 -16.3 -19.65 -16.35 -22.3 -19.2 -22.85 -19.6 -24.6 -19.55 -24.65 -16.15 -23.85 -15.85 -25.25 -15.7 -25.9 -15.4 -26.8" fill="#ffcc00" fill-rule="evenodd" stroke="none"/>
      <path d="M-13.95 -32.45 L-17.55 -34.1 Q-18.85 -34.5 -19.15 -33.8 L-21.65 -35.85 -18.4 -34.9 -16.65 -34.5 -13.95 -32.45 M-15.85 -25.25 L-16.15 -23.85 -19.55 -24.65 -18.8 -25.45 -15.85 -25.25 M-16.3 -19.65 L-16.2 -19.1 -16.2 -19.05 -19.25 -18.0 -16.3 -19.65 M-9.8 -15.65 L-9.05 -16.05 -7.45 -14.6 -10.7 -14.85 -11.7 -14.9 -11.55 -14.95 -9.8 -15.65" fill="#ffff2f" fill-rule="evenodd" stroke="none"/>
      <path d="M-19.15 -33.8 L-17.35 -32.3 -9.55 -26.55 -9.0 -27.3 -14.15 -31.6 -8.8 -28.25 -8.2 -27.6 -9.4 -25.5 -11.25 -26.3 -12.2 -26.85 -12.45 -27.05 -12.55 -27.1 -13.6 -27.85 -12.95 -27.5 -14.9 -28.9 -16.35 -30.0 -17.15 -30.65 -21.1 -33.65 -22.15 -34.85 -21.95 -35.85 -21.65 -35.85 -19.15 -33.8 M-13.15 -19.5 L-13.05 -19.5 -10.95 -16.45 -9.8 -15.65 -11.55 -14.95 -13.05 -17.1 -13.55 -19.3 -13.15 -19.5" fill="#cd9f07" fill-rule="evenodd" stroke="none"/>
      <path d="M-6.1 -11.8 Q-6.8 -11.8 -7.45 -10.75 -8.05 -9.85 -8.05 -9.3 L-11.1 -11.15 -11.2 -11.1 -12.3 -12.65 -9.8 -14.3 -9.75 -14.25 Q-7.95 -13.5 -6.1 -11.8 M-10.7 -12.45 L-9.95 -11.8 -11.1 -11.15 -9.95 -11.8 -10.7 -12.45" fill="#8d4803" fill-rule="evenodd" stroke="none"/>
      <path d="M-15.4 -26.8 L-15.4 -27.8 Q-15.5 -28.55 -16.2 -29.55 L-16.45 -29.9 -16.35 -30.0 -14.9 -28.9 -12.95 -27.5 -13.6 -27.85 -12.55 -27.1 -12.45 -27.05 -12.2 -26.85 -11.25 -26.3 -12.15 -24.95 Q-13.05 -23.45 -13.15 -21.95 L-13.2 -21.05 -13.8 -21.95 -13.85 -22.05 -13.85 -21.95 -14.35 -21.9 -15.4 -25.15 -15.4 -26.8 M-13.3 -12.75 L-13.3 -16.9 -13.25 -16.6 -12.15 -14.7 -12.8 -14.4 -13.25 -12.7 -13.3 -12.75 M-10.7 -14.85 L-7.45 -14.6 -5.0 -11.8 -0.9 -6.25 -6.1 -11.8 Q-7.95 -13.5 -9.75 -14.25 L-9.8 -14.3 -10.7 -14.85" fill="#e6b100" fill-rule="evenodd" stroke="none"/>
      <path d="M-13.85 -21.95 L-13.85 -22.05 -13.8 -21.95 -13.85 -21.95" fill="#b0a579" fill-rule="evenodd" stroke="none"/>
      <path d="M-13.3 -16.9 L-13.75 -19.25 -13.55 -19.3 -13.05 -17.1 -11.55 -14.95 -11.7 -14.9 -10.7 -14.85 -9.8 -14.3 -12.3 -12.65 -11.2 -11.1 -11.1 -11.15 -8.05 -9.3 Q-7.9 -8.85 -8.05 -8.65 -8.15 -8.5 -8.4 -8.5 L-10.8 -8.65 -13.45 -12.1 -13.4 -12.25 -13.3 -12.5 -13.25 -12.7 -12.8 -14.4 -12.15 -14.7 -13.25 -16.6 -13.3 -16.9 M-12.15 -14.7 L-11.7 -14.9 -12.15 -14.7" fill="#bb6906" fill-rule="evenodd" stroke="none"/>
      <path d="M-8.8 -28.25 L-11.1 -30.35 -13.95 -32.45 -16.65 -34.5 -20.2 -37.1 -20.4 -37.3 -20.55 -37.25 -21.5 -36.75 -21.95 -35.85 M-16.45 -29.9 L-16.2 -29.55 Q-15.5 -28.55 -15.4 -27.8 L-15.4 -26.8 -15.7 -25.9 -15.85 -25.25 -16.15 -23.85 M-13.2 -21.05 L-13.15 -21.95 Q-13.05 -23.45 -12.15 -24.95 L-11.25 -26.3 -12.2 -26.85 -12.45 -27.05 -12.55 -27.1 M-14.9 -28.9 L-16.35 -30.0 -17.15 -30.65 -21.1 -33.65 -22.15 -34.85 -21.95 -35.85 M-16.45 -29.9 L-17.15 -30.65 M-19.55 -24.65 L-19.6 -24.6 -19.2 -22.85 -16.35 -22.3 -16.3 -19.65 -16.2 -19.1 -16.2 -19.05 M-19.25 -18.0 L-17.9 -16.05 -15.5 -16.55 Q-14.75 -14.75 -13.3 -12.75 M-13.15 -19.5 L-13.05 -19.5 -13.2 -21.05 M-15.85 -25.25 L-18.8 -25.45 -19.55 -24.65 M-11.25 -26.3 L-9.4 -25.5 -8.2 -27.6 -8.8 -28.25 M-8.05 -8.65 Q-8.15 -8.5 -8.4 -8.5 L-10.8 -8.65 -13.45 -12.1 -13.4 -12.25 M-13.3 -12.5 L-13.25 -12.7 -13.3 -12.75 M-16.3 -19.65 L-19.25 -18.0 M-9.8 -15.65 L-10.95 -16.45 -13.05 -19.5" fill="none" stroke="#000000" stroke-linecap="round" stroke-linejoin="round" stroke-opacity="0.3019608" stroke-width="0.5"/>
      <path d="M-13.3 -16.9 L-13.75 -19.25 -13.55 -19.3 -13.15 -19.5 M-7.45 -14.6 L-9.05 -16.05 -9.8 -15.65 -11.55 -14.95 -11.7 -14.9 -12.15 -14.7 -13.25 -16.6 -13.3 -16.9 M-7.45 -14.6 L-5.0 -11.8 M-9.8 -14.3 L-12.3 -12.65 -11.2 -11.1 -11.1 -11.15 -9.95 -11.8 -10.7 -12.45 M-13.25 -12.7 L-12.8 -14.4 -12.15 -14.7" fill="none" stroke="#000000" stroke-linecap="round" stroke-linejoin="round" stroke-opacity="0.3019608" stroke-width="0.25"/>
    </g>
    <g id="sprite1" transform="matrix(1.0, 0.0, 0.0, 1.0, 0.0, 0.0)">
      <use height="34.8" transform="matrix(1.0, 0.0, 0.0, 1.0, 0.0, 0.0)" width="34.8" xlink:href="#shape2"/>
    </g>
    <g id="shape2" transform="matrix(1.0, 0.0, 0.0, 1.0, 0.0, 0.0)">
      <path d="M17.4 34.8 Q10.2 34.8 5.1 29.7 0.0 24.6 0.0 17.4 0.0 10.2 5.1 5.1 10.2 0.0 17.4 0.0 24.6 0.0 29.7 5.1 34.8 10.2 34.8 17.4 34.8 24.6 29.7 29.7 24.6 34.8 17.4 34.8" fill="url(#gradient0)" fill-rule="evenodd" stroke="none"/>
    </g>
    <radialGradient cx="0" cy="0" gradientTransform="matrix(0.0221, 0.0, 0.0, 0.0221, 17.4, 17.4)" gradientUnits="userSpaceOnUse" id="gradient0" r="819.2" spreadMethod="pad">
      <stop offset="0.0" stop-color="#ffffff"/>
      <stop offset="0.9882352941176471" stop-color="#ffffff" stop-opacity="0.0"/>
    </radialGradient>
    <g id="sprite2" transform="matrix(1.0, 0.0, 0.0, 1.0, 0.0, 0.0)">
      <use height="20.95" transform="matrix(1.0, 0.0, 0.0, 1.0, 0.0, 0.0)" width="24.45" xlink:href="#shape3"/>
    </g>
    <g id="shape3" transform="matrix(1.0, 0.0, 0.0, 1.0, 0.0, 0.0)">
      <path d="M14.85 11.4 Q15.8 11.6 16.25 12.45 16.85 13.3 16.6 14.35 16.4 15.3 15.55 15.9 14.65 16.4 13.65 16.2 12.65 15.9 12.1 15.1 11.6 14.2 11.8 13.2 12.1 12.2 12.9 11.65 13.8 11.15 14.85 11.4" fill="#ffffff" fill-opacity="0.5882353" fill-rule="evenodd" stroke="none"/>
      <path d="M18.2 11.35 L20.15 11.25 18.75 12.55 Q19.05 13.8 18.8 15.05 18.5 16.35 17.65 17.3 L19.1 20.95 16.55 18.25 Q14.8 19.3 12.8 18.85 10.8 18.35 9.75 16.65 9.05 15.5 8.95 14.3 7.75 12.35 4.85 11.5 8.3 12.45 9.7 11.4 10.3 10.4 11.35 9.75 13.1 8.75 15.1 9.15 16.95 9.5 18.1 11.15 L18.2 11.35 M14.85 11.4 Q13.8 11.15 12.9 11.65 12.1 12.2 11.8 13.2 11.6 14.2 12.1 15.1 12.65 15.9 13.65 16.2 14.65 16.4 15.55 15.9 16.4 15.3 16.6 14.35 16.85 13.3 16.25 12.45 15.8 11.6 14.85 11.4" fill="#ffffff" fill-opacity="0.1764706" fill-rule="evenodd" stroke="none"/>
      <path d="M15.4 13.55 L18.1 17.55 13.35 14.65 7.05 18.5 12.75 13.55 0.0 0.0 14.25 12.25 24.45 5.95 15.4 13.55" fill="#ffffff" fill-opacity="0.5882353" fill-rule="evenodd" stroke="none"/>
    </g>
  </defs>
</svg>
