<?xml version="1.0" encoding="UTF-8" standalone="no"?>
<svg xmlns:xlink="http://www.w3.org/1999/xlink" height="440.0px" width="440.0px" xmlns="http://www.w3.org/2000/svg">
  <g transform="matrix(10.0, 0.0, 0.0, 10.0, 0.0, 0.0)">
    <use height="44.0" transform="matrix(1.0, 0.0, 0.0, 1.0, 0.0, 0.0)" width="44.0" xlink:href="#shape0"/>
    <use height="29.9" transform="matrix(1.5326, -0.1723, 0.161, 1.2887, 4.883, 5.0082)" width="17.8" xlink:href="#sprite0"/>
    <use height="38.25" transform="matrix(1.0, 0.0, 0.0, 1.0, 6.65, 3.5)" width="27.55" xlink:href="#shape14"/>
  </g>
  <defs>
    <g id="shape0" transform="matrix(1.0, 0.0, 0.0, 1.0, 0.0, 0.0)">
      <path d="M44.0 44.0 L0.0 44.0 0.0 0.0 44.0 0.0 44.0 44.0" fill="#43adca" fill-opacity="0.0" fill-rule="evenodd" stroke="none"/>
    </g>
    <g id="sprite0" transform="matrix(1.0, 0.0, 0.0, 1.0, 8.9, 20.35)">
      <use height="58.35" transform="matrix(0.3379, 0.0, 0.0, 0.3379, -8.8905, -20.3277)" width="52.65" xlink:href="#sprite1"/>
      <use height="15.05" transform="matrix(0.3941, -0.0101, 0.0193, 0.3861, -1.2188, -8.1475)" width="21.7" xlink:href="#sprite8"/>
      <use height="7.6" transform="matrix(0.5523, 0.0, 0.0, 0.5523, 3.9797, 4.8012)" width="4.65" xlink:href="#sprite9"/>
      <use height="4.25" transform="matrix(1.0, 0.0, 0.0, 1.0, 2.35, 5.3)" width="2.15" xlink:href="#shape11"/>
      <use height="18.15" transform="matrix(0.5523, 0.0, 0.0, 0.5523, -1.8961, -4.5431)" width="16.0" xlink:href="#sprite10"/>
      <use height="1.9" transform="matrix(1.0, 0.0, 0.0, 1.0, 3.0, 3.75)" width="1.8" xlink:href="#shape13"/>
    </g>
    <g id="sprite1" transform="matrix(1.0, 0.0, 0.0, 1.0, 27.35, 31.9)">
      <use height="26.0" transform="matrix(1.0, 0.0, 0.0, 1.0, -26.0, -2.7)" width="43.55" xlink:href="#shape1"/>
      <use height="41.5" transform="matrix(1.0374, 0.0, 0.0, 1.0374, 9.1707, -25.0885)" width="15.4" xlink:href="#sprite2"/>
      <use height="27.45" transform="matrix(1.0374, 0.0, 0.0, 1.0374, -27.3362, -2.512)" width="28.65" xlink:href="#sprite3"/>
      <use height="43.45" transform="matrix(1.0374, 0.0, 0.0, 1.0374, -24.8834, -22.1609)" width="33.85" xlink:href="#sprite4"/>
      <use height="47.1" transform="matrix(1.0374, 0.0, 0.0, 1.0374, -12.4232, -31.8819)" width="28.05" xlink:href="#sprite5"/>
      <use height="14.15" transform="matrix(1.0, 0.0, 0.0, 1.0, 9.15, -8.05)" width="5.65" xlink:href="#shape6"/>
      <use height="13.55" transform="matrix(0.9689, -0.0549, 0.0, 0.9375, -4.8329, 13.7701)" width="23.6" xlink:href="#sprite6"/>
      <use height="42.35" transform="matrix(1.0, 0.0, 0.0, 1.0, -18.35, -22.25)" width="43.65" xlink:href="#shape8"/>
      <use height="0.0" transform="matrix(1.0374, 0.0, 0.0, 1.0374, 6.7, 24.6)" width="0.0" xlink:href="#sprite7"/>
    </g>
    <g id="shape1" transform="matrix(1.0, 0.0, 0.0, 1.0, 26.0, 2.7)">
      <path d="M15.95 20.75 L17.1 19.15 17.25 19.05 17.55 18.7" fill="none" stroke="#000000" stroke-linecap="round" stroke-linejoin="round" stroke-opacity="0.15294118" stroke-width="0.05"/>
      <path d="M-24.9 -2.5 L-26.0 -2.7 M2.65 23.3 L2.4 22.9 M10.2 16.75 L10.25 17.0" fill="none" stroke="#ffffff" stroke-linecap="round" stroke-linejoin="round" stroke-opacity="0.3019608" stroke-width="0.05"/>
    </g>
    <g id="sprite2" transform="matrix(1.0, 0.0, 0.0, 1.0, 10.15, 21.1)">
      <use height="41.5" transform="matrix(1.0, 0.0, 0.0, 1.0, -10.15, -21.1)" width="15.4" xlink:href="#shape2"/>
    </g>
    <g id="shape2" transform="matrix(1.0, 0.0, 0.0, 1.0, 10.15, 21.1)">
      <path d="M-5.0 -20.75 L-4.55 -20.9 -4.45 -20.95 -3.0 -21.0 Q-2.3 -20.9 -1.6 -20.45 0.2 -19.0 1.75 -14.25 4.95 -5.55 5.05 -0.95 5.3 1.5 5.2 4.7 L5.15 5.2 4.45 5.4 Q3.6 5.45 2.95 4.85 3.25 -6.2 -2.75 -16.95 L-5.0 -20.75" fill="#a89f57" fill-rule="evenodd" stroke="none"/>
      <path d="M-5.0 -20.75 L-2.75 -16.95 Q3.25 -6.2 2.95 4.85 3.6 5.45 4.45 5.4 L5.15 5.2 5.15 5.55 4.8 7.65 Q4.35 9.25 2.5 12.65 L2.15 12.55 -2.0 11.7 Q-0.45 -0.05 -2.2 -8.95 -3.45 -15.25 -6.25 -20.1 L-5.0 -20.75" fill="#8c8548" fill-rule="evenodd" stroke="none"/>
      <path d="M2.5 12.65 L2.25 12.95 -1.95 20.4 Q-2.0 20.0 -3.3 19.2 L-3.25 18.95 -3.05 17.9 -2.0 11.7 2.15 12.55 2.5 12.65" fill="#70693a" fill-rule="evenodd" stroke="none"/>
      <path d="M-3.3 19.2 L-3.25 18.65 -2.9 11.55 -3.0 6.55 Q-3.25 3.25 -4.65 -3.85 -5.9 -10.1 -6.3 -11.25 -7.85 -16.2 -10.15 -20.85 L-8.1 -20.45 -6.25 -20.1 Q-3.45 -15.25 -2.2 -8.95 -0.45 -0.05 -2.0 11.7 L-3.05 17.9 -3.25 18.95 -3.3 19.2 M-3.05 17.9 Q-0.55 2.45 -4.55 -11.25 -6.15 -16.8 -8.1 -20.45 -6.15 -16.8 -4.55 -11.25 -0.55 2.45 -3.05 17.9" fill="#3d3621" fill-rule="evenodd" stroke="none"/>
      <path d="M-10.15 -20.85 L-8.1 -20.45 -6.25 -20.1 -5.0 -20.75" fill="none" stroke="#000000" stroke-linecap="round" stroke-linejoin="round" stroke-opacity="0.15294118" stroke-width="0.05"/>
      <path d="M-8.1 -20.45 Q-6.15 -16.8 -4.55 -11.25 -0.55 2.45 -3.05 17.9" fill="none" stroke="#ffffff" stroke-linecap="round" stroke-linejoin="round" stroke-opacity="0.3019608" stroke-width="0.05"/>
      <path d="M-0.05 0.4 L0.25 0.45 0.55 0.85 0.4 1.3 0.15 1.5 -0.3 1.5 -0.5 1.15 -0.5 0.6 -0.3 0.45 -0.15 0.35 -0.05 0.4 M0.9 8.85 L0.5 9.15 Q0.25 9.2 0.15 9.05 L-0.15 8.75 -0.1 8.2 0.3 7.95 0.7 8.0 0.95 8.35 0.9 8.85" fill="#f0b77d" fill-rule="evenodd" stroke="none"/>
      <path d="M-0.3 0.45 L-0.5 0.6 -0.5 1.15 -0.3 1.5 0.15 1.5 0.4 1.3 0.55 0.85 0.25 0.45 -0.05 0.4 0.05 0.35 0.95 0.4 Q1.35 0.65 1.4 1.2 L1.3 2.3 0.55 2.85 -0.4 2.7 -0.9 1.85 Q-1.0 1.35 -0.7 0.85 L-0.3 0.45 M3.1 3.7 Q3.3 3.5 3.6 3.45 L4.2 3.45 4.45 4.05 4.4 4.7 3.95 5.05 3.35 5.0 3.05 4.45 Q2.95 4.1 3.1 3.7" fill="#000033" fill-rule="evenodd" stroke="none"/>
    </g>
    <g id="sprite3" transform="matrix(1.0, 0.0, 0.0, 1.0, 14.35, 13.7)">
      <use height="27.45" transform="matrix(1.0, 0.0, 0.0, 1.0, -14.35, -13.7)" width="28.65" xlink:href="#shape3"/>
    </g>
    <g id="shape3" transform="matrix(1.0, 0.0, 0.0, 1.0, 14.35, 13.7)">
      <path d="M-12.4 -12.7 L-12.0 -13.7 Q-0.8 -10.7 5.55 -2.55 11.9 5.6 14.3 10.8 13.7 11.2 13.15 11.55 L10.6 7.55 7.1 2.7 5.0 0.1 Q3.2 -1.8 -2.75 -6.35 -9.5 -11.55 -12.4 -12.7 M12.3 12.1 Q10.35 13.3 8.9 13.75 L4.1 11.75 -1.9 9.35 Q-4.2 8.25 -8.55 4.6 -13.9 0.15 -13.95 -2.05 L-13.85 -2.8 Q-12.95 0.15 1.15 7.6 10.45 10.9 12.3 12.1" fill="#3d3621" fill-rule="evenodd" stroke="none"/>
      <path d="M-13.85 -2.8 Q-15.35 -9.7 -12.4 -12.7 -9.5 -11.55 -2.75 -6.35 3.2 -1.8 5.0 0.1 4.75 4.4 -0.3 4.2 -6.7 -0.95 -13.85 -2.8" fill="#a89f57" fill-rule="evenodd" stroke="none"/>
      <path d="M-13.85 -2.8 Q-6.7 -0.95 -0.3 4.2 4.75 4.4 5.0 0.1 L7.1 2.7 Q4.1 4.7 1.15 7.6 -12.95 0.15 -13.85 -2.8" fill="#8c8548" fill-rule="evenodd" stroke="none"/>
      <path d="M13.15 11.55 L12.3 12.1 Q10.45 10.9 1.15 7.6 4.1 4.7 7.1 2.7 L10.6 7.55 13.15 11.55" fill="#70693a" fill-rule="evenodd" stroke="none"/>
      <path d="M-13.85 -2.8 Q-15.35 -9.7 -12.4 -12.7 L-12.0 -13.7 M8.9 13.75 L4.1 11.75 -1.9 9.35 Q-4.2 8.25 -8.55 4.6 -13.9 0.15 -13.95 -2.05 L-13.85 -2.8" fill="none" stroke="#000000" stroke-linecap="round" stroke-linejoin="round" stroke-opacity="0.15294118" stroke-width="0.05"/>
      <path d="M-12.0 -13.7 Q-0.8 -10.7 5.55 -2.55 11.9 5.6 14.3 10.8" fill="none" stroke="#ffffff" stroke-linecap="round" stroke-linejoin="round" stroke-opacity="0.3019608" stroke-width="0.05"/>
    </g>
    <g id="sprite4" transform="matrix(1.0, 0.0, 0.0, 1.0, 16.95, 21.7)">
      <use height="43.45" transform="matrix(1.0, 0.0, 0.0, 1.0, -16.95, -21.7)" width="33.85" xlink:href="#shape4"/>
    </g>
    <g id="shape4" transform="matrix(1.0, 0.0, 0.0, 1.0, 16.95, 21.7)">
      <path d="M2.85 -13.4 L5.05 -10.65 Q10.25 -3.6 13.45 4.85 8.55 8.5 6.2 4.85 2.85 -3.6 -3.8 -10.2 -8.4 -14.45 -14.45 -17.95 -14.05 -18.65 -12.2 -19.65 L-10.05 -20.7 Q-3.6 -16.75 -0.05 -11.85 2.75 -11.45 2.85 -13.4" fill="#a89f57" fill-rule="evenodd" stroke="none"/>
      <path d="M-10.05 -20.7 Q-5.4 -22.25 -4.95 -21.35 L-1.45 -17.95 2.85 -13.4 Q2.75 -11.45 -0.05 -11.85 -3.6 -16.75 -10.05 -20.7" fill="#bab479" fill-rule="evenodd" stroke="none"/>
      <path d="M11.05 20.55 L9.35 21.75 Q6.95 16.55 0.6 8.4 -5.75 0.25 -16.95 -2.75 L-16.7 -4.0 Q-10.35 -3.65 -4.85 -0.15 1.0 4.1 6.0 11.35 L10.55 19.55 11.05 20.55" fill="#3d3621" fill-rule="evenodd" stroke="none"/>
      <path d="M13.45 4.85 L14.75 8.4 Q11.3 8.55 6.0 11.35 1.0 4.1 -4.85 -0.15 -10.35 -3.65 -16.7 -4.0 -16.85 -5.85 -16.1 -11.05 -15.35 -16.75 -14.45 -17.95 -8.4 -14.45 -3.8 -10.2 2.85 -3.6 6.2 4.85 8.55 8.5 13.45 4.85" fill="#8c8548" fill-rule="evenodd" stroke="none"/>
      <path d="M14.75 8.4 L16.9 16.05 12.0 19.8 11.05 20.55 10.55 19.55 6.0 11.35 Q11.3 8.55 14.75 8.4" fill="#70693a" fill-rule="evenodd" stroke="none"/>
      <path d="M-16.95 -2.75 L-16.7 -4.0 Q-16.85 -5.85 -16.1 -11.05 -15.35 -16.75 -14.45 -17.95 -14.05 -18.65 -12.2 -19.65 L-10.05 -20.7 Q-5.4 -22.25 -4.95 -21.35" fill="none" stroke="#000000" stroke-linecap="round" stroke-linejoin="round" stroke-opacity="0.15294118" stroke-width="0.05"/>
      <path d="M6.25 2.8 L5.15 3.0 4.2 2.35 Q3.8 1.7 3.9 1.2 3.95 0.6 4.45 0.3 L5.5 0.15 Q6.05 0.25 6.4 0.9 6.85 1.4 6.8 2.0 L6.25 2.8 M-0.75 -8.15 L-1.85 -9.0 -2.4 -10.3 Q-2.4 -10.95 -2.0 -11.25 L-0.85 -11.3 Q-0.25 -11.1 0.25 -10.45 L0.8 -9.15 Q0.8 -8.55 0.3 -8.15 -0.1 -7.95 -0.75 -8.15 M4.75 -6.85 Q4.2 -7.05 3.8 -7.6 3.35 -8.2 3.35 -8.75 3.35 -9.3 3.7 -9.55 4.1 -9.8 4.65 -9.55 L5.65 -8.8 Q6.05 -8.25 6.05 -7.65 6.05 -7.2 5.65 -6.9 L4.75 -6.85 M3.95 5.75 L4.7 5.65 5.25 6.1 5.5 6.8 5.1 7.35 4.45 7.45 3.9 7.05 3.6 6.3 3.95 5.75" fill="#000033" fill-rule="evenodd" stroke="none"/>
      <path d="M-4.2 -3.2 Q-4.85 -2.75 -5.7 -3.0 -6.5 -3.2 -7.0 -3.9 -7.55 -4.65 -7.55 -5.45 -7.45 -6.2 -6.8 -6.65 L-5.3 -6.85 Q-4.45 -6.65 -3.95 -5.9 -3.4 -5.2 -3.45 -4.4 -3.5 -3.65 -4.2 -3.2" fill="#000033" fill-rule="evenodd" stroke="none"/>
      <path d="M-5.3 -4.95 L-5.55 -5.6 -5.2 -6.2 -4.5 -6.25 Q-4.1 -6.2 -3.85 -5.85 L-3.65 -5.15 Q-3.7 -4.8 -4.05 -4.6 L-4.7 -4.5 Q-5.1 -4.65 -5.3 -4.95" fill="#f0b77d" fill-rule="evenodd" stroke="none"/>
      <path d="M6.4 1.2 L6.1 1.65 5.65 1.65 5.3 1.4 Q5.05 1.2 5.1 0.9 L5.3 0.5 5.85 0.35 6.25 0.7 6.4 1.2 M4.3 -8.15 L4.55 -8.55 5.05 -8.65 5.5 -8.35 5.7 -7.85 5.45 -7.3 4.9 -7.3 4.45 -7.65 Q4.2 -8.0 4.3 -8.15 M-1.9 3.9 L-1.7 3.4 -1.2 3.35 Q-0.95 3.4 -0.75 3.7 L-0.55 4.15 Q-0.55 4.5 -0.85 4.65 L-1.3 4.7 -1.8 4.35 -1.9 3.9" fill="#f0b77d" fill-rule="evenodd" stroke="none"/>
    </g>
    <g id="sprite5" transform="matrix(1.0, 0.0, 0.0, 1.0, 14.0, 23.6)">
      <use height="47.1" transform="matrix(1.0, 0.0, 0.0, 1.0, -14.0, -23.6)" width="28.05" xlink:href="#shape5"/>
    </g>
    <g id="shape5" transform="matrix(1.0, 0.0, 0.0, 1.0, 14.0, 23.6)">
      <path d="M0.15 -21.05 Q4.6 -18.75 6.8 -16.8 9.1 -12.15 10.65 -7.2 8.25 -5.25 7.5 -7.05 4.6 -13.95 0.15 -21.05" fill="#bab479" fill-rule="evenodd" stroke="none"/>
      <path d="M0.15 -21.05 Q4.6 -13.95 7.5 -7.05 8.25 -5.25 10.65 -7.2 L12.3 0.2 Q13.7 7.3 13.95 10.6 12.5 12.9 10.95 11.75 9.1 3.9 5.45 -3.7 0.55 -13.75 -7.55 -23.4 -5.55 -24.05 -3.1 -22.75 L0.15 -21.05" fill="#a89f57" fill-rule="evenodd" stroke="none"/>
      <path d="M13.95 10.6 L14.05 15.6 Q10.55 15.25 7.3 15.65 5.75 4.4 1.0 -3.5 -2.2 -8.55 -12.7 -15.85 L-11.15 -20.15 Q-9.6 -22.8 -7.55 -23.4 0.55 -13.75 5.45 -3.7 9.1 3.9 10.95 11.75 12.5 12.9 13.95 10.6" fill="#8c8548" fill-rule="evenodd" stroke="none"/>
      <path d="M7.85 23.5 L7.8 23.35 7.8 23.25 5.7 15.85 4.4 12.3 Q1.2 3.85 -4.0 -3.2 L-6.2 -5.95 -10.5 -10.5 -14.0 -13.9 -13.8 -14.15 -13.1 -15.15 -12.7 -15.85 Q-2.2 -8.55 1.0 -3.5 5.75 4.4 7.3 15.65 L7.85 23.5 M7.8 23.25 Q6.1 6.1 -1.35 -3.3 -8.75 -12.7 -13.1 -15.15 -8.75 -12.7 -1.35 -3.3 6.1 6.1 7.8 23.25" fill="#3d3621" fill-rule="evenodd" stroke="none"/>
      <path d="M14.05 15.6 L13.7 22.7 13.5 23.3 12.85 22.65 Q11.65 21.55 11.0 21.7 10.35 21.85 9.05 22.7 L7.85 23.5 7.3 15.65 Q10.55 15.25 14.05 15.6" fill="#70693a" fill-rule="evenodd" stroke="none"/>
      <path d="M6.8 -16.8 Q4.6 -18.75 0.15 -21.05 M-14.0 -13.9 L-13.8 -14.15 -13.1 -15.15 -12.7 -15.85 -11.15 -20.15 Q-9.6 -22.8 -7.55 -23.4 -5.55 -24.05 -3.1 -22.75 L0.15 -21.05" fill="none" stroke="#000000" stroke-linecap="round" stroke-linejoin="round" stroke-opacity="0.15294118" stroke-width="0.05"/>
      <path d="M-13.1 -15.15 Q-8.75 -12.7 -1.35 -3.3 6.1 6.1 7.8 23.25" fill="none" stroke="#ffffff" stroke-linecap="round" stroke-linejoin="round" stroke-opacity="0.3019608" stroke-width="0.05"/>
    </g>
    <g id="shape6" transform="matrix(1.0, 0.0, 0.0, 1.0, -9.15, 8.05)">
      <path d="M10.4 -3.55 L11.5 -3.5 Q11.95 -3.25 12.15 -2.6 L11.9 -1.6 Q11.5 -1.2 10.95 -0.95 10.3 -0.8 9.8 -0.95 9.25 -1.25 9.15 -1.75 9.05 -2.35 9.45 -2.85 L10.4 -3.55 M14.45 -7.2 L14.3 -6.35 Q14.0 -5.9 13.45 -5.75 12.95 -5.55 12.55 -5.75 12.1 -5.95 11.95 -6.45 11.85 -6.95 12.25 -7.3 L13.05 -8.0 14.0 -7.9 14.45 -7.2 M14.1 -7.15 L13.8 -7.65 13.4 -7.65 13.0 -7.35 13.0 -6.85 13.2 -6.4 13.55 -6.4 Q13.85 -6.45 13.95 -6.65 L14.1 -7.15" fill="#000033" fill-rule="evenodd" stroke="none"/>
      <path d="M14.1 -7.15 L13.95 -6.65 Q13.85 -6.45 13.55 -6.4 L13.2 -6.4 13.0 -6.85 13.0 -7.35 13.4 -7.65 13.8 -7.65 14.1 -7.15" fill="#f0b77d" fill-rule="evenodd" stroke="none"/>
      <path d="M14.75 3.65 Q14.9 4.45 14.5 5.15 L13.4 6.0 12.1 5.9 Q11.55 5.5 11.4 4.7 11.25 3.9 11.6 3.2 12.0 2.5 12.7 2.3 L14.0 2.45 Q14.6 2.85 14.75 3.65" fill="#000033" fill-rule="evenodd" stroke="none"/>
      <path d="M13.1 4.0 L12.55 3.9 12.15 3.35 12.3 2.65 Q12.45 2.35 12.8 2.25 L13.35 2.35 13.7 2.9 13.6 3.6 13.1 4.0" fill="#f0b77d" fill-rule="evenodd" stroke="none"/>
    </g>
    <g id="sprite6" transform="matrix(1.0, 0.0, 0.0, 1.0, 11.8, 6.75)">
      <use height="13.55" transform="matrix(1.0, 0.0, 0.0, 1.0, -11.8, -6.75)" width="23.6" xlink:href="#shape7"/>
    </g>
    <g id="shape7" transform="matrix(1.0, 0.0, 0.0, 1.0, 11.8, 6.75)">
      <path d="M7.75 -6.7 L7.8 -6.75 Q9.25 -6.0 10.0 -4.9 L11.8 -1.3 11.55 -0.9 9.55 -2.55 7.75 -3.6 7.75 -6.7" fill="#2b2517" fill-rule="evenodd" stroke="none"/>
      <path d="M7.75 -6.7 L7.75 -3.6 7.6 -3.6 Q6.9 -3.5 5.6 -2.65 L4.4 -1.85 2.55 -0.45 -0.5 1.9 -1.45 2.65 -2.4 0.8 1.5 -3.15 Q2.4 -4.05 4.2 -5.2 L5.9 -6.1 7.75 -6.7 M-4.3 4.6 L-5.15 5.15 -7.25 4.0 -5.35 2.95 -4.3 4.6" fill="#3d3521" fill-rule="evenodd" stroke="none"/>
      <path d="M-1.45 2.65 L-3.15 3.85 -4.3 4.6 -5.35 2.95 -4.05 2.05 -2.4 0.8 -1.45 2.65 M-5.15 5.15 Q-7.1 6.35 -8.55 6.8 L-10.7 6.2 Q-11.85 5.7 -11.8 5.45 -9.5 5.05 -7.25 4.0 L-5.15 5.15" fill="#3d3621" fill-rule="evenodd" stroke="none"/>
    </g>
    <g id="shape8" transform="matrix(1.0, 0.0, 0.0, 1.0, 18.35, 22.25)">
      <path d="M22.8 -5.8 Q24.4 -3.05 25.3 0.15 25.2 0.25 19.1 -6.55 12.2 -14.25 8.85 -16.55 4.1 -19.75 -1.05 -18.15 -3.65 -17.6 -8.55 -10.95 -12.85 -5.15 -13.8 -2.55 -17.25 7.4 -17.65 18.55 -17.75 19.2 -18.15 19.05 L-18.35 13.5 Q-18.4 7.3 -17.65 3.75 -15.45 -7.4 -10.45 -13.9 L-6.6 -18.15 Q1.15 -25.05 8.4 -20.3 10.4 -18.75 15.7 -13.5 21.15 -8.05 22.8 -5.8" fill="#8a5e10" fill-opacity="0.4509804" fill-rule="evenodd" stroke="none"/>
      <path d="M-5.9 20.1 Q-6.5 20.1 -7.0 19.55 -7.4 19.0 -7.4 18.3 -7.4 17.5 -7.0 16.95 -6.5 16.45 -5.9 16.45 -5.3 16.45 -4.8 16.95 -4.35 17.5 -4.35 18.3 -4.35 19.0 -4.8 19.55 -5.3 20.1 -5.9 20.1" fill="#000000" fill-rule="evenodd" stroke="none"/>
    </g>
    <g id="sprite8" transform="matrix(1.0, 0.0, 0.0, 1.0, 10.85, 7.4)">
      <use height="15.05" transform="matrix(1.0, 0.0, 0.0, 1.0, -10.85, -7.4)" width="21.7" xlink:href="#shape9"/>
    </g>
    <g id="shape9" transform="matrix(1.0, 0.0, 0.0, 1.0, 10.85, 7.4)">
      <path d="M1.5 0.4 Q1.6 1.6 1.05 2.8 0.0 5.2 -2.4 5.95 -4.75 6.65 -7.05 5.3 -9.45 3.9 -10.25 1.2 L-10.85 -0.6 -8.7 -0.65 -8.45 0.85 Q-7.65 3.1 -5.7 4.25 -3.8 5.4 -1.8 4.85 0.2 4.2 1.05 2.2 L1.5 0.4" fill="#1f1d1f" fill-rule="evenodd" stroke="none"/>
      <path d="M-8.7 -0.65 L1.55 0.1 1.5 0.4 1.05 2.2 Q0.2 4.2 -1.8 4.85 -3.8 5.4 -5.7 4.25 -7.65 3.1 -8.45 0.85 L-8.7 -0.65" fill="url(#gradient0)" fill-rule="evenodd" stroke="none"/>
      <path d="M1.5 0.4 Q1.6 1.6 1.05 2.8 0.0 5.2 -2.4 5.95 -4.75 6.65 -7.05 5.3 -9.45 3.9 -10.25 1.2 L-10.85 -0.6 -8.7 -0.65 1.55 0.1 1.5 0.4 1.05 2.2 Q0.2 4.2 -1.8 4.85 -3.8 5.4 -5.7 4.25 -7.65 3.1 -8.45 0.85 L-8.7 -0.65" fill="none" stroke="#000000" stroke-linecap="round" stroke-linejoin="round" stroke-opacity="0.3019608" stroke-width="0.05"/>
      <path d="M1.6 0.35 Q2.4 -2.25 0.5 -5.8" fill="none" stroke="#000000" stroke-linecap="round" stroke-linejoin="round" stroke-opacity="0.3019608" stroke-width="0.05"/>
      <path d="M0.7 3.75 Q0.0 6.45 -3.55 7.4" fill="none" stroke="#000000" stroke-linecap="round" stroke-linejoin="round" stroke-opacity="0.3019608" stroke-width="0.5"/>
      <path d="M5.5 -0.45 Q5.45 0.8 5.75 1.85 6.15 4.0 7.2 4.0 8.25 3.9 9.25 1.7 10.25 -0.55 10.6 -3.6 L10.85 -5.65 9.95 -4.95 9.85 -3.35 Q9.5 -0.8 8.65 1.05 7.8 2.9 6.9 3.0 6.05 3.05 5.7 1.25 L5.5 -0.45" fill="#1f1d1f" fill-rule="evenodd" stroke="none"/>
      <path d="M5.5 -0.45 L5.7 1.25 Q6.05 3.05 6.9 3.0 7.8 2.9 8.65 1.05 9.5 -0.8 9.85 -3.35 L9.95 -4.95 5.45 -0.75 5.5 -0.45" fill="url(#gradient1)" fill-rule="evenodd" stroke="none"/>
      <path d="M9.95 -4.95 L10.85 -5.65 10.6 -3.6 Q10.25 -0.55 9.25 1.7 8.25 3.9 7.2 4.0 6.15 4.0 5.75 1.85 5.45 0.8 5.5 -0.45 L5.7 1.25 Q6.05 3.05 6.9 3.0 7.8 2.9 8.65 1.05 9.5 -0.8 9.85 -3.35 L9.95 -4.95 5.45 -0.75 5.5 -0.45" fill="none" stroke="#000000" stroke-linecap="round" stroke-linejoin="round" stroke-opacity="0.3019608" stroke-width="0.05"/>
      <path d="M5.55 -0.7 Q5.25 -3.15 6.05 -7.4" fill="none" stroke="#000000" stroke-linecap="round" stroke-linejoin="round" stroke-opacity="0.3019608" stroke-width="0.05"/>
      <path d="M5.95 2.5 Q6.25 5.05 7.8 4.8" fill="none" stroke="#000000" stroke-linecap="round" stroke-linejoin="round" stroke-opacity="0.3019608" stroke-width="0.5"/>
    </g>
    <radialGradient cx="0" cy="0" gradientTransform="matrix(-0.0074, -0.0017, -0.0014, 0.0064, -3.0, 0.3)" gradientUnits="userSpaceOnUse" id="gradient0" r="819.2" spreadMethod="pad">
      <stop offset="0.6941176470588235" stop-color="#fff4dd"/>
      <stop offset="0.7450980392156863" stop-color="#d1b579"/>
    </radialGradient>
    <radialGradient cx="0" cy="0" gradientTransform="matrix(0.0032, -0.0042, 6.0E-4, 0.0062, 7.5, -2.05)" gradientUnits="userSpaceOnUse" id="gradient1" r="819.2" spreadMethod="pad">
      <stop offset="0.6941176470588235" stop-color="#fff4dd"/>
      <stop offset="0.7450980392156863" stop-color="#d1b579"/>
    </radialGradient>
    <g id="sprite9" transform="matrix(1.0, 0.0, 0.0, 1.0, 2.3, 3.8)">
      <use height="7.6" transform="matrix(1.0, 0.0, 0.0, 1.0, -2.3, -3.8)" width="4.65" xlink:href="#shape10"/>
    </g>
    <g id="shape10" transform="matrix(1.0, 0.0, 0.0, 1.0, 2.3, 3.8)">
      <path d="M1.15 0.1 L1.4 1.35 2.35 1.55 1.5 2.3 1.85 3.3 0.8 3.05 -0.1 3.8 -0.35 3.75 -0.55 2.85 -1.4 2.75 -0.95 1.75 -1.4 1.0 -1.4 0.95 -0.85 1.15 -1.1 0.85 -1.35 0.15 -1.85 -1.25 -2.0 -2.05 -2.3 -2.9 -2.3 -3.55 -1.75 -3.7 -1.4 -2.0 -0.9 -0.45 -1.85 -1.25 -0.9 -0.45 -0.25 1.1 -0.1 2.15 0.4 1.65 1.0 1.65 1.15 0.1 M-2.3 -2.9 L-1.4 -2.0 -2.3 -2.9 M-1.35 0.15 L-0.25 1.1 -1.35 0.15" fill="url(#gradient2)" fill-rule="evenodd" stroke="none"/>
      <path d="M-1.75 -3.7 L-1.25 -3.8 -1.05 -3.05 -0.35 -1.25 0.25 0.05 Q0.45 0.75 0.9 0.4 L1.15 0.1 1.0 1.65 0.4 1.65 -0.1 2.15 -0.25 1.1 -0.9 -0.45 -1.4 -2.0 -0.55 -1.45 -0.35 -1.25 -0.55 -1.45 -1.4 -2.0 -1.75 -3.7 -1.05 -3.05 -1.75 -3.7 M-1.4 0.95 L-1.1 0.85 -0.85 1.15 -1.4 0.95 M0.25 0.05 L-0.9 -0.45 0.25 0.05" fill="url(#gradient3)" fill-rule="evenodd" stroke="none"/>
      <path d="M-1.25 -3.8 L-1.05 -3.05 -0.35 -1.25 0.25 0.05 Q0.45 0.75 0.9 0.4 L1.15 0.1 1.4 1.35 M2.35 1.55 L1.5 2.3 1.85 3.3 0.8 3.05 -0.1 3.8 M-0.35 3.75 L-0.55 2.85 -1.4 2.75 M-1.4 1.0 L-1.4 0.95 -1.1 0.85 -1.35 0.15 -1.85 -1.25 -2.0 -2.05 -2.3 -2.9 -2.3 -3.55 M-1.75 -3.7 L-1.05 -3.05 M-1.4 -2.0 L-2.3 -2.9 M-1.85 -1.25 L-0.9 -0.45 0.25 0.05 M-1.4 -2.0 L-0.55 -1.45 -0.35 -1.25 M-0.85 1.15 L-1.1 0.85 M-0.25 1.1 L-0.1 2.15 M-0.25 1.1 L-1.35 0.15" fill="none" stroke="#000000" stroke-linecap="round" stroke-linejoin="round" stroke-opacity="0.3019608" stroke-width="0.05"/>
    </g>
    <linearGradient gradientTransform="matrix(0.0019, 0.0061, -3.0E-4, 1.0E-4, -0.3, -2.35)" gradientUnits="userSpaceOnUse" id="gradient2" spreadMethod="pad" x1="-819.2" x2="819.2">
      <stop offset="0.0" stop-color="#856c32"/>
      <stop offset="1.0" stop-color="#574829"/>
    </linearGradient>
    <linearGradient gradientTransform="matrix(0.0019, 0.0061, -3.0E-4, 1.0E-4, -0.3, -2.35)" gradientUnits="userSpaceOnUse" id="gradient3" spreadMethod="pad" x1="-819.2" x2="819.2">
      <stop offset="0.0" stop-color="#987e44"/>
      <stop offset="1.0" stop-color="#846e3b"/>
    </linearGradient>
    <g id="shape11" transform="matrix(1.0, 0.0, 0.0, 1.0, -2.35, -5.3)">
      <path d="M3.45 5.7 L3.75 5.3 3.45 5.7 3.5 5.35 3.75 5.3 3.8 6.25 3.4 6.85 3.8 6.25 3.8 7.15 3.65 8.1 3.65 8.15 3.5 8.25 Q2.95 8.45 2.75 7.75 L3.0 7.85 3.25 7.6 3.4 6.85 3.45 5.7 M4.1 7.85 L4.25 7.85 4.0 8.05 4.1 7.85 M3.25 7.6 L3.8 7.15 3.25 7.6" fill="url(#gradient4)" fill-rule="evenodd" stroke="none"/>
      <path d="M3.8 6.25 L3.75 5.3 4.1 5.3 4.2 5.65 4.15 6.6 4.1 7.1 4.1 7.4 4.1 7.85 4.0 8.05 4.25 7.85 4.15 8.35 4.5 8.8 4.1 8.95 4.1 9.5 4.0 9.5 3.4 9.3 2.85 9.55 2.9 8.95 2.35 8.7 2.55 8.6 2.8 8.4 2.85 8.45 2.75 7.75 Q2.95 8.45 3.5 8.25 L3.65 8.15 3.65 8.1 4.1 7.4 3.65 8.1 3.8 7.15 3.8 6.25 4.2 5.65 3.8 6.25 M2.55 8.6 L2.85 8.45 2.55 8.6 M4.15 6.6 L3.85 7.1 3.8 7.15 3.85 7.1 4.15 6.6" fill="url(#gradient5)" fill-rule="evenodd" stroke="none"/>
      <path d="M3.75 5.3 L3.45 5.7 3.4 6.85 3.8 6.25 M4.1 5.3 L4.2 5.65 4.15 6.6 4.1 7.1 4.1 7.4 4.1 7.85 4.25 7.85 M4.5 8.8 L4.1 8.95 4.1 9.5 M4.0 9.5 L3.4 9.3 2.85 9.55 2.9 8.95 2.35 8.7 2.55 8.6 M2.85 8.45 L2.75 7.75 3.0 7.85 3.25 7.6 3.4 6.85 M3.45 5.7 L3.5 5.35 M3.8 7.15 L3.85 7.1 4.15 6.6 M2.85 8.45 L2.55 8.6 M3.65 8.1 L3.65 8.15 M4.1 7.85 L4.0 8.05 M3.65 8.1 L4.1 7.4 M3.8 7.15 L3.25 7.6 M4.2 5.65 L3.8 6.25" fill="none" stroke="#000000" stroke-linecap="round" stroke-linejoin="round" stroke-opacity="0.3019608" stroke-width="0.05"/>
    </g>
    <linearGradient gradientTransform="matrix(-2.0E-4, 0.0035, 2.0E-4, 0.0, 3.2, 6.2)" gradientUnits="userSpaceOnUse" id="gradient4" spreadMethod="pad" x1="-819.2" x2="819.2">
      <stop offset="0.0" stop-color="#bf9e56"/>
      <stop offset="1.0" stop-color="#a68a4a"/>
    </linearGradient>
    <linearGradient gradientTransform="matrix(-2.0E-4, 0.0035, 2.0E-4, 0.0, 3.2, 6.2)" gradientUnits="userSpaceOnUse" id="gradient5" spreadMethod="pad" x1="-819.2" x2="819.2">
      <stop offset="0.0" stop-color="#a7873f"/>
      <stop offset="1.0" stop-color="#6d5b34"/>
    </linearGradient>
    <g id="sprite10" transform="matrix(1.0, 0.0, 0.0, 1.0, 8.05, 8.95)">
      <use height="18.15" transform="matrix(1.0, 0.0, 0.0, 1.0, -8.05, -8.95)" width="16.0" xlink:href="#shape12"/>
    </g>
    <g id="shape12" transform="matrix(1.0, 0.0, 0.0, 1.0, 8.05, 8.95)">
      <path d="M6.25 -7.5 L6.85 -7.1 7.2 -7.7 7.75 -7.3 7.75 -7.25 7.3 -4.9 7.1 -5.1 Q6.65 -5.55 6.05 -5.45 L5.85 -5.45 6.25 -7.5 M5.4 -3.35 L5.65 -3.4 6.5 -2.95 6.8 -2.7 6.3 -0.6 5.95 -1.0 Q5.5 -1.4 5.05 -1.4 L4.95 -1.4 5.4 -3.25 5.4 -3.35 M4.35 0.95 L5.2 1.45 5.25 1.5 5.45 1.75 5.6 2.0 5.1 3.85 4.65 3.45 4.6 3.4 3.8 2.85 4.2 1.45 4.35 0.95 M4.55 5.55 L4.05 7.05 3.95 7.0 3.6 6.75 Q3.05 6.4 2.7 6.4 L3.25 4.7 4.1 5.2 4.55 5.55" fill="#8a723c" fill-rule="evenodd" stroke="none"/>
      <path d="M5.85 -5.45 L6.05 -5.45 Q6.65 -5.55 7.1 -5.1 L7.3 -4.9 6.8 -2.7 6.5 -2.95 5.65 -3.4 5.4 -3.35 5.85 -5.45 M7.75 -7.25 L7.75 -7.3 7.2 -7.7 7.85 -8.95 7.95 -8.4 7.9 -7.9 7.75 -7.25 M4.95 -1.4 L5.05 -1.4 Q5.5 -1.4 5.95 -1.0 L6.3 -0.6 5.75 1.45 5.6 2.0 5.45 1.75 5.25 1.5 5.2 1.45 4.35 0.95 4.95 -1.4 M5.1 3.85 L5.05 3.95 4.55 5.55 4.1 5.2 3.25 4.7 3.6 3.5 3.8 2.85 4.6 3.4 4.65 3.45 5.1 3.85 M4.05 7.05 L3.55 8.45 3.1 9.1 2.7 9.2 Q3.1 8.8 3.1 8.4 L3.05 8.15 2.75 7.8 2.35 7.45 2.7 6.4 Q3.05 6.4 3.6 6.75 L3.95 7.0 4.05 7.05" fill="#ad8f4b" fill-rule="evenodd" stroke="none"/>
      <path d="M6.25 -7.5 L5.85 -5.45 6.05 -5.45 Q6.65 -5.55 7.1 -5.1 L7.3 -4.9 7.75 -7.25 7.75 -7.3 7.2 -7.7 M7.85 -8.95 L7.95 -8.4 7.9 -7.9 7.75 -7.25 M5.85 -5.45 L5.4 -3.35 5.65 -3.4 6.5 -2.95 6.8 -2.7 7.3 -4.9 M5.4 -3.35 L5.4 -3.25 4.95 -1.4 5.05 -1.4 Q5.5 -1.4 5.95 -1.0 L6.3 -0.6 6.8 -2.7 M5.6 2.0 L5.75 1.45 6.3 -0.6 M4.35 0.95 L5.2 1.45 5.25 1.5 5.45 1.75 5.6 2.0 5.1 3.85 5.05 3.95 4.55 5.55 4.05 7.05 3.55 8.45 3.1 9.1 2.7 9.2 Q3.1 8.8 3.1 8.4 L3.05 8.15 2.75 7.8 2.35 7.45 2.7 6.4 Q3.05 6.4 3.6 6.75 L3.95 7.0 4.05 7.05 M3.25 4.7 L3.6 3.5 3.8 2.85 4.2 1.45 4.35 0.95 4.95 -1.4 M3.25 4.7 L4.1 5.2 4.55 5.55 M5.1 3.85 L4.65 3.45 4.6 3.4 3.8 2.85" fill="none" stroke="#000000" stroke-linecap="round" stroke-linejoin="round" stroke-opacity="0.3019608" stroke-width="0.05"/>
      <path d="M7.85 -8.95 L7.95 -8.4 7.9 -7.9 7.75 -7.3 7.1 -5.1 6.5 -2.95 5.95 -1.0 5.25 1.5 4.65 3.45 4.1 5.2 3.6 6.75 3.05 8.15 2.75 7.8 2.35 7.45 2.7 6.4 3.25 4.7 3.6 3.5 3.8 2.85 4.35 0.95 4.95 -1.4 5.4 -3.25 5.4 -3.35 5.85 -5.45 6.25 -7.5 6.85 -7.1 7.85 -8.95" fill="#000000" fill-opacity="0.3019608" fill-rule="evenodd" stroke="none"/>
      <path d="M-6.9 -3.3 L-8.0 -6.55 -7.95 -7.1 -7.5 -7.5 -6.95 -7.45 -6.6 -7.0 -6.05 -5.35 Q-6.1 -4.6 -6.3 -4.05 L-6.9 -3.3 M-5.1 -2.55 L-4.4 -0.5 -4.1 0.2 -4.1 0.5 Q-4.1 1.35 -4.75 2.15 L-5.75 0.1 -5.8 0.05 -5.85 -0.1 -5.65 -0.4 Q-5.15 -1.3 -5.1 -2.55 M-2.65 2.8 L-0.7 5.3 -0.65 6.05 -0.9 7.15 -3.1 4.75 -3.0 4.45 Q-2.65 3.55 -2.65 2.8 M0.4 6.3 Q1.3 7.0 2.3 7.5 L2.35 7.45 2.75 7.8 3.05 8.15 3.1 8.4 Q3.1 8.8 2.7 9.2 L2.45 9.15 0.3 8.1 0.5 7.25 0.4 6.3" fill="#8a723c" fill-rule="evenodd" stroke="none"/>
      <path d="M-6.9 -3.3 L-6.3 -4.05 Q-6.1 -4.6 -6.05 -5.35 L-5.1 -2.55 Q-5.15 -1.3 -5.65 -0.4 L-5.85 -0.1 -6.9 -3.3 M-4.1 0.2 L-2.65 2.8 Q-2.65 3.55 -3.0 4.45 L-3.1 4.75 -4.75 2.15 Q-4.1 1.35 -4.1 0.5 L-4.1 0.2 M-0.7 5.3 L0.4 6.3 0.5 7.25 0.3 8.1 -0.9 7.15 -0.65 6.05 -0.7 5.3" fill="#ad8f4b" fill-rule="evenodd" stroke="none"/>
      <path d="M-6.05 -5.35 L-6.6 -7.0 -6.95 -7.45 -7.5 -7.5 -7.95 -7.1 -8.0 -6.55 -6.9 -3.3 -6.3 -4.05 Q-6.1 -4.6 -6.05 -5.35 L-5.1 -2.55 -4.4 -0.5 -4.1 0.2 -2.65 2.8 -0.7 5.3 0.4 6.3 Q1.3 7.0 2.3 7.5 L2.35 7.45 M2.7 9.2 L2.45 9.15 0.3 8.1 -0.9 7.15 -3.1 4.75 -4.75 2.15 -5.75 0.1 -5.8 0.05 -5.85 -0.1 -6.9 -3.3 M-5.85 -0.1 L-5.65 -0.4 Q-5.15 -1.3 -5.1 -2.55 M-3.1 4.75 L-3.0 4.45 Q-2.65 3.55 -2.65 2.8 M-4.1 0.2 L-4.1 0.5 Q-4.1 1.35 -4.75 2.15 M-0.9 7.15 L-0.65 6.05 -0.7 5.3 M0.4 6.3 L0.5 7.25 0.3 8.1" fill="none" stroke="#000000" stroke-linecap="round" stroke-linejoin="round" stroke-opacity="0.3019608" stroke-width="0.05"/>
    </g>
    <g id="shape13" transform="matrix(1.0, 0.0, 0.0, 1.0, -3.0, -3.75)">
      <path d="M3.9 4.75 L3.9 4.8 3.9 4.75" fill="#000000" fill-opacity="0.3019608" fill-rule="evenodd" stroke="none"/>
      <path d="M4.75 4.8 Q4.75 5.25 4.25 5.5 L3.55 5.6 3.3 5.4 3.25 5.2 Q3.9 5.35 3.95 5.0 L3.95 4.9 4.35 5.05 4.75 4.8 4.35 5.05 3.95 4.9 3.95 4.6 3.95 4.7 3.85 4.6 3.55 4.4 3.0 4.05 Q3.2 3.75 3.7 3.75 L4.0 3.8 Q4.8 3.9 4.75 4.75 L4.75 4.8 M3.55 4.4 L3.5 4.2 3.75 3.9 4.0 3.8 3.75 3.9 3.5 4.2 3.55 4.4" fill="#9c8143" fill-rule="evenodd" stroke="none"/>
      <path d="M3.95 4.9 L3.95 5.0 Q3.9 5.35 3.25 5.2 L3.3 5.4 3.55 5.6 4.25 5.5 Q4.75 5.25 4.75 4.8 L4.35 5.05 3.95 4.9 3.95 4.6 3.95 4.7 3.85 4.6 3.55 4.4 3.0 4.05 Q3.2 3.75 3.7 3.75 L4.0 3.8 Q4.8 3.9 4.75 4.75 L4.75 4.8 M4.0 3.8 L3.75 3.9 3.5 4.2 3.55 4.4" fill="none" stroke="#000000" stroke-linecap="round" stroke-linejoin="round" stroke-opacity="0.3019608" stroke-width="0.05"/>
      <path d="M3.65 4.3 L4.4 4.55 4.7 4.45 4.75 4.4 4.8 4.75 4.8 4.8 Q4.8 5.25 4.3 5.5 L4.25 5.5 3.55 5.6 3.3 5.4 3.25 5.2 Q3.95 5.35 3.95 5.0 L3.95 4.7 3.9 4.6 3.55 4.4 3.55 4.3 3.65 4.3" fill="#000000" fill-opacity="0.3019608" fill-rule="evenodd" stroke="none"/>
    </g>
    <g id="shape14" transform="matrix(1.0, 0.0, 0.0, 1.0, -6.65, -3.5)">
      <path d="M27.05 5.75 Q26.65 5.85 26.35 6.1 L25.35 6.05 24.3 6.0 Q22.9 5.3 20.4 4.55 L18.55 3.95 Q17.1 3.55 16.1 3.95 15.05 4.35 14.35 5.6 L13.8 7.65 13.65 8.0 13.25 8.5 13.15 8.6 Q12.85 8.25 10.5 9.2 L9.35 9.8 8.25 10.7 Q7.85 11.35 7.75 13.9 7.65 16.3 7.85 17.15 L7.75 17.7 7.8 17.7 7.8 17.75 7.65 18.15 Q6.25 19.7 7.4 22.75 L7.4 23.05 Q7.55 24.05 10.7 25.75 L12.5 26.7 12.6 26.75 14.55 27.45 17.9 28.2 19.7 28.6 20.05 28.75 20.85 30.3 20.85 30.35 21.95 31.7 23.55 33.4 25.6 34.9 26.75 35.45 27.65 35.75 27.6 35.75 27.7 36.0 27.75 36.1 28.05 36.25 28.0 36.45 28.15 37.95 28.0 38.95 Q28.15 39.4 27.65 39.3 L27.3 39.25 27.55 40.1 27.45 40.05 27.1 40.35 26.8 40.5 27.65 40.75 27.7 41.5 28.5 41.1 29.45 41.25 29.6 41.25 29.5 40.55 30.15 40.25 29.55 39.75 29.6 39.05 29.35 39.1 29.2 36.55 29.3 37.0 30.1 38.4 29.95 38.55 30.35 39.05 30.1 39.8 30.75 39.8 31.0 40.4 31.2 40.4 31.95 39.75 32.9 39.85 32.45 39.2 33.15 38.6 32.25 38.5 31.95 37.65 31.8 37.9 Q31.4 38.2 31.2 37.75 L30.55 36.85 29.85 35.65 29.85 35.6 29.9 35.1 29.9 35.0 29.75 34.6 29.85 34.35 30.1 33.25 30.4 32.05 30.45 32.0 30.65 30.6 30.75 30.2 31.05 28.7 31.3 27.15 31.5 25.55 31.65 23.85 31.65 23.8 Q31.65 23.6 31.8 23.35 L31.7 23.0 31.7 22.75 32.85 20.5 32.95 20.35 33.9 17.95 33.95 17.0 33.95 16.85 33.95 16.6 33.9 15.95 33.95 16.0 33.9 15.85 33.5 14.05 Q33.2 12.0 31.05 8.25 29.95 6.2 28.9 5.65 L28.1 5.5 27.35 5.6 27.3 5.6 Q27.15 5.7 27.05 5.75 M29.0 23.35 L29.65 23.5 30.1 23.75 30.15 23.7 Q30.6 23.85 30.9 24.05 L30.35 23.8 30.25 25.3 30.25 25.5 30.05 26.85 30.1 26.9 29.85 28.25 29.55 30.0 29.45 30.35 29.25 31.4 29.15 31.9 28.95 32.8 28.65 33.85 28.55 33.85 28.1 33.85 Q27.3 33.9 27.1 34.35 L26.65 34.15 25.65 33.55 Q24.65 32.9 23.75 32.0 L22.3 30.3 21.95 29.8 21.5 28.85 22.95 27.9 23.35 27.65 23.9 27.2 24.7 26.6 25.15 26.25 26.55 25.0 27.4 24.3 27.95 23.85 28.95 23.35 29.0 23.35" fill="none" stroke="#000000" stroke-linecap="round" stroke-linejoin="round" stroke-opacity="0.3019608" stroke-width="0.5"/>
    </g>
  </defs>
</svg>
