<?xml version="1.0" encoding="UTF-8" standalone="no"?>
<svg xmlns:xlink="http://www.w3.org/1999/xlink" height="440.0px" width="440.0px" xmlns="http://www.w3.org/2000/svg">
  <g transform="matrix(10.0, 0.0, 0.0, 10.0, 0.0, 0.0)">
    <use height="44.0" transform="matrix(1.0, 0.0, 0.0, 1.0, 0.0, 0.0)" width="44.0" xlink:href="#shape0"/>
  </g>
  <defs>
    <g id="shape0" transform="matrix(1.0, 0.0, 0.0, 1.0, 0.0, 0.0)">
      <path d="M44.0 44.0 L0.0 44.0 0.0 0.0 44.0 0.0 44.0 44.0" fill="#43adca" fill-opacity="0.0" fill-rule="evenodd" stroke="none"/>
      <path d="M33.9 33.45 L34.0 33.6 33.85 33.5 33.9 33.45" fill="#004166" fill-rule="evenodd" stroke="none"/>
      <path d="M20.25 26.35 L20.2 26.35 20.2 26.3 20.25 26.35" fill="#005280" fill-rule="evenodd" stroke="none"/>
      <path d="M33.1 32.75 L33.05 32.75 33.1 32.7 33.1 32.75" fill="#005b8f" fill-rule="evenodd" stroke="none"/>
      <path d="M37.8 30.85 L37.9 30.9 38.35 31.0 38.25 31.15 37.35 31.6 Q36.5 32.05 36.3 32.2 L35.1 32.1 37.15 31.2 37.8 30.85 M34.25 34.1 Q34.6 35.1 34.4 35.4 L33.95 35.9 33.65 35.8 33.45 35.65 33.65 35.8 33.1 35.95 33.35 35.75 33.45 35.65 33.7 35.4 33.85 35.3 Q34.25 34.7 34.25 34.1 M27.55 39.65 L29.1 40.25 Q26.3 41.65 24.75 41.5 23.2 41.35 22.95 40.45 L25.15 40.5 27.55 39.65" fill="#ffcc00" fill-rule="evenodd" stroke="none"/>
      <path d="M28.95 22.95 L28.85 22.75 29.3 24.05 Q30.15 27.2 29.85 28.85 L29.05 29.85 27.6 30.1 25.2 29.35 Q23.6 28.75 22.25 27.65 20.9 26.55 20.25 26.35 L20.2 26.3 20.2 26.35 20.7 26.85 20.8 27.5 Q21.05 28.2 24.65 33.45 26.25 36.05 28.85 37.2 L28.6 37.35 Q26.35 37.0 22.5 34.35 L20.45 32.85 19.7 32.05 19.65 31.75 19.55 31.45 19.3 30.45 19.3 30.4 19.25 30.2 18.7 27.95 18.65 27.65 16.85 20.15 Q14.45 9.7 7.85 6.2 8.0 5.8 8.75 5.85 L9.55 5.75 9.1 5.45 9.35 5.2 9.85 5.65 10.0 5.8 Q16.5 12.4 18.8 21.7 L19.65 24.55 19.7 24.85 Q20.05 25.35 22.5 27.15 24.95 28.95 26.95 29.5 28.9 30.0 29.15 28.55 29.35 27.1 28.95 25.7 L28.75 24.25 27.85 20.65 26.0 17.65 Q17.35 4.25 12.85 2.85 L13.6 2.8 14.0 2.6 14.1 2.5 Q19.9 6.55 26.3 16.6 30.6 24.9 34.15 28.45 38.1 32.75 32.35 31.6 L32.15 30.25 32.1 29.9 32.05 29.8 30.7 26.15 30.15 25.1 28.95 22.9 28.95 22.95 M25.1 32.45 L27.45 33.6 31.9 33.8 Q32.4 32.95 32.35 31.65 L33.0 32.65 33.1 32.7 33.05 32.75 33.45 33.35 Q34.1 34.25 33.75 34.75 L33.35 35.3 33.25 35.35 33.2 35.15 Q32.8 34.15 31.9 33.8 32.8 34.15 33.2 35.15 L33.25 35.35 33.15 35.4 30.15 35.4 Q27.5 35.4 25.0 33.0 L24.05 31.95 25.75 32.9 25.1 32.45 M27.1 39.55 L27.55 39.65 25.15 40.5 24.7 39.2 23.5 37.65 Q25.0 38.85 26.85 39.45 L27.1 39.55 M9.85 5.65 L9.55 5.75 9.85 5.65" fill="#669999" fill-rule="evenodd" stroke="none"/>
      <path d="M34.0 33.6 L34.25 34.1 Q34.25 34.7 33.85 35.3 L33.7 35.4 33.45 35.65 33.25 35.35 33.45 35.65 33.35 35.75 33.1 35.95 31.7 36.15 32.75 35.7 33.15 35.4 33.25 35.35 33.35 35.3 33.75 34.75 Q34.1 34.25 33.45 33.35 L33.05 32.75 33.1 32.75 33.35 33.05 33.55 33.2 33.85 33.5 34.0 33.6 M8.75 5.85 L9.1 5.45 9.55 5.75 8.75 5.85" fill="#537d7d" fill-rule="evenodd" stroke="none"/>
      <path d="M22.95 40.45 Q22.15 39.15 20.75 35.2 L19.95 32.95 21.5 35.5 22.6 36.8 23.5 37.65 24.7 39.2 25.15 40.5 22.95 40.45" fill="#74adad" fill-rule="evenodd" stroke="none"/>
      <path d="M36.3 32.2 L34.7 33.1 33.9 33.45 33.85 33.5 33.55 33.2 35.1 32.1 36.3 32.2" fill="#dbac00" fill-rule="evenodd" stroke="none"/>
      <path d="M33.65 35.8 L32.25 37.0 31.1 37.4 31.0 37.4 29.5 37.65 29.4 37.7 28.6 37.35 28.85 37.2 28.9 37.2 30.05 37.0 31.3 36.7 31.6 36.6 33.1 35.95 33.65 35.8" fill="#e6b500" fill-rule="evenodd" stroke="none"/>
      <path d="M29.4 37.7 Q27.45 38.35 27.1 39.55 L26.85 39.45 Q27.0 38.85 27.5 38.25 27.95 37.65 28.6 37.35 L29.4 37.7" fill="#bf9600" fill-rule="evenodd" stroke="none"/>
      <path d="M19.65 24.55 L19.7 24.7 Q29.5 32.7 28.95 25.7 29.35 27.1 29.15 28.55 28.9 30.0 26.95 29.5 24.95 28.95 22.5 27.15 20.05 25.35 19.7 24.85 L19.65 24.55" fill="#7cbaba" fill-rule="evenodd" stroke="none"/>
      <path d="M28.95 22.95 L29.0 23.0 29.3 24.05 28.85 22.75 28.95 22.95" fill="#598585" fill-rule="evenodd" stroke="none"/>
      <path d="M23.8 31.55 Q24.5 32.1 25.1 32.45 L25.75 32.9 24.05 31.95 23.8 31.55 M31.6 36.6 Q27.3 35.5 25.0 33.0 27.5 35.4 30.15 35.4 L33.15 35.4 32.75 35.7 31.7 36.15 33.1 35.95 31.6 36.6" fill="#70a8a8" fill-rule="evenodd" stroke="none"/>
      <path d="M34.15 28.45 L36.35 30.2 36.95 30.55 37.55 30.8 37.8 30.85 37.15 31.2 35.1 32.1 34.5 32.15 33.05 32.0 Q32.55 31.9 32.35 31.6 38.1 32.75 34.15 28.45 M19.95 32.95 L19.85 32.5 19.7 32.05 20.45 32.85 22.5 34.35 Q26.35 37.0 28.6 37.35 27.95 37.65 27.5 38.25 27.0 38.85 26.85 39.45 25.0 38.85 23.5 37.65 L22.6 36.8 21.5 35.5 19.95 32.95" fill="#5a8787" fill-rule="evenodd" stroke="none"/>
      <path d="M29.85 28.85 Q29.2 33.1 20.7 26.7 L20.85 27.0 Q22.55 30.65 23.8 31.55 L24.05 31.95 25.0 33.0 Q27.3 35.5 31.6 36.6 L31.3 36.7 30.05 37.0 28.9 37.2 28.85 37.2 Q26.25 36.05 24.65 33.45 21.05 28.2 20.8 27.5 L20.7 26.85 20.2 26.35 20.25 26.35 Q20.9 26.55 22.25 27.65 23.6 28.75 25.2 29.35 L27.6 30.1 29.05 29.85 29.85 28.85 M32.35 31.65 L32.35 31.6 Q32.55 31.9 33.05 32.0 L34.5 32.15 35.1 32.1 33.55 33.2 33.35 33.05 33.1 32.75 33.1 32.7 33.0 32.65 32.35 31.65" fill="#507878" fill-rule="evenodd" stroke="none"/>
      <path d="M19.95 32.95 L21.5 35.5 22.6 36.8 23.5 37.65 Q25.0 38.85 26.85 39.45" fill="none" stroke="#000000" stroke-linecap="round" stroke-linejoin="round" stroke-opacity="0.3019608" stroke-width="0.30000000000000004"/>
      <path d="M29.3 24.05 L29.0 23.0 28.95 22.95 M29.3 24.05 Q30.15 27.2 29.85 28.85 29.2 33.1 20.7 26.7 L20.85 27.0 Q22.55 30.65 23.8 31.55 24.5 32.1 25.1 32.45 L27.45 33.6 31.9 33.8 Q32.4 32.95 32.35 31.65 L32.35 31.6 32.15 30.25 32.1 29.9 32.05 29.8 30.7 26.15 30.15 25.1 28.95 22.9 28.95 22.95 M28.95 25.7 L28.75 24.25 27.85 20.65 26.0 17.65 Q17.35 4.25 12.85 2.85 L13.6 2.8 14.0 2.6 14.1 2.5 Q19.9 6.55 26.3 16.6 30.6 24.9 34.15 28.45 L36.35 30.2 36.95 30.55 37.55 30.8 37.8 30.85 37.9 30.9 38.35 31.0 38.25 31.15 37.35 31.6 Q36.5 32.05 36.3 32.2 L34.7 33.1 33.9 33.45 34.0 33.6 34.25 34.1 Q34.6 35.1 34.4 35.4 L33.95 35.9 33.65 35.8 32.25 37.0 31.1 37.4 31.0 37.4 29.5 37.65 29.4 37.7 Q27.45 38.35 27.1 39.55 L27.55 39.65 29.1 40.25 Q26.3 41.65 24.75 41.5 23.2 41.35 22.95 40.45 22.15 39.15 20.75 35.2 L19.95 32.95 19.85 32.5 19.7 32.05 19.65 31.75 19.55 31.45 19.3 30.45 19.3 30.4 19.25 30.2 18.7 27.95 M18.65 27.65 L16.85 20.15 Q14.45 9.7 7.85 6.2 8.0 5.8 8.75 5.85 L9.1 5.45 9.35 5.2 9.85 5.65 10.0 5.8 Q16.5 12.4 18.8 21.7 L19.65 24.55 19.7 24.7 Q29.5 32.7 28.95 25.7 M9.55 5.75 L9.85 5.65 M8.75 5.85 L9.55 5.75 M33.25 35.35 L33.45 35.65 33.65 35.8 M31.9 33.8 Q32.8 34.15 33.2 35.15 L33.25 35.35 M26.85 39.45 L27.1 39.55" fill="none" stroke="#000000" stroke-linecap="round" stroke-linejoin="round" stroke-opacity="0.4509804" stroke-width="0.4"/>
      <path d="M32.35 34.7 L32.2 34.45 32.2 34.15 32.45 33.95 32.7 33.9 32.8 34.45 32.35 34.7" fill="#ffcc00" fill-rule="evenodd" stroke="none"/>
      <path d="M32.7 33.9 L32.8 33.95 33.0 34.2 33.0 34.55 32.75 34.75 32.4 34.75 32.35 34.7 32.8 34.45 32.7 33.9" fill="#dbac00" fill-rule="evenodd" stroke="none"/>
      <path d="M32.35 34.7 L32.2 34.45 32.2 34.15 32.45 33.95 32.7 33.9 32.8 33.95 33.0 34.2 33.0 34.55 32.75 34.75 32.4 34.75 32.35 34.7 Z" fill="none" stroke="#000000" stroke-linecap="round" stroke-linejoin="round" stroke-opacity="0.3019608" stroke-width="0.5"/>
      <path d="M32.55 34.3 L32.55 34.35 32.55 34.45 32.5 34.45 32.4 34.5 32.35 34.4 32.4 34.35 32.4 34.25 32.55 34.3" fill="#7d6200" fill-rule="evenodd" stroke="none"/>
      <path d="M32.85 34.25 L32.85 34.3 32.85 34.4 32.8 34.4 32.7 34.45 32.65 34.35 32.7 34.3 32.7 34.2 32.85 34.25" fill="#7d6200" fill-rule="evenodd" stroke="none"/>
      <path d="M33.45 35.5 L33.4 35.55 33.15 35.5 32.9 35.25 Q32.85 35.05 32.95 34.9 L33.1 34.75 33.6 35.05 33.45 35.5" fill="#ffcc00" fill-rule="evenodd" stroke="none"/>
      <path d="M33.1 34.75 L33.2 34.75 33.55 34.7 33.75 35.0 33.7 35.3 33.45 35.5 33.6 35.05 33.1 34.75" fill="#dbac00" fill-rule="evenodd" stroke="none"/>
      <path d="M33.1 34.75 L33.2 34.75 33.55 34.7 33.75 35.0 33.7 35.3 33.45 35.5 33.4 35.55 33.15 35.5 32.9 35.25 Q32.85 35.05 32.95 34.9 L33.1 34.75 Z" fill="none" stroke="#000000" stroke-linecap="round" stroke-linejoin="round" stroke-opacity="0.3019608" stroke-width="0.5"/>
      <path d="M33.25 35.2 L33.3 35.2 33.35 35.3 33.35 35.35 33.3 35.4 33.2 35.4 33.2 35.3 33.15 35.25 33.25 35.2" fill="#7d6200" fill-rule="evenodd" stroke="none"/>
      <path d="M33.4 34.95 L33.45 34.95 33.5 35.05 33.5 35.1 33.45 35.15 33.35 35.15 33.35 35.05 33.3 35.0 33.4 34.95" fill="#7d6200" fill-rule="evenodd" stroke="none"/>
      <path d="M32.2 34.4 L32.35 32.55 32.4 34.4 33.2 34.35 32.5 34.5 32.35 35.05 32.25 34.6 31.0 34.7 32.2 34.4" fill="#fcf3d8" fill-opacity="0.7921569" fill-rule="evenodd" stroke="none"/>
      <path d="M32.5 34.05 L32.9 33.7 32.75 34.2 32.9 34.4 32.85 34.75 32.5 34.95 32.55 35.4 32.35 35.0 32.1 34.95 31.9 34.75 31.7 34.75 31.85 34.6 31.95 34.25 Q32.05 34.1 32.25 34.05 L32.5 34.05 M32.5 34.3 L32.3 34.3 32.1 34.4 32.1 34.55 32.2 34.75 32.4 34.75 32.55 34.65 32.6 34.45 32.5 34.3" fill="#fcf3d8" fill-opacity="0.3019608" fill-rule="evenodd" stroke="none"/>
      <path d="M32.5 34.3 L32.6 34.45 32.55 34.65 32.4 34.75 32.2 34.75 32.1 34.55 32.1 34.4 32.3 34.3 32.5 34.3" fill="#fcf3d8" fill-opacity="0.84313726" fill-rule="evenodd" stroke="none"/>
      <path d="M20.35 26.25 L20.3 26.3 20.05 26.25 19.8 26.0 19.85 25.65 20.0 25.5 Q20.35 25.55 20.5 25.8 L20.35 26.25" fill="#ffcc00" fill-rule="evenodd" stroke="none"/>
      <path d="M20.0 25.5 L20.1 25.5 20.45 25.45 20.65 25.75 20.6 26.05 20.35 26.25 20.5 25.8 Q20.35 25.55 20.0 25.5" fill="#dbac00" fill-rule="evenodd" stroke="none"/>
      <path d="M20.35 26.25 L20.3 26.3 20.05 26.25 19.8 26.0 19.85 25.65 20.0 25.5 20.1 25.5 20.45 25.45 20.65 25.75 20.6 26.05 20.35 26.25 Z" fill="none" stroke="#000000" stroke-linecap="round" stroke-linejoin="round" stroke-opacity="0.3019608" stroke-width="0.5"/>
      <path d="M20.2 26.05 L20.25 26.05 20.3 26.15 20.3 26.2 20.25 26.25 20.15 26.25 20.15 26.15 20.1 26.1 20.2 26.05" fill="#7d6200" fill-rule="evenodd" stroke="none"/>
      <path d="M20.4 25.75 L20.45 25.75 20.5 25.85 20.5 25.9 20.45 25.95 20.35 25.95 20.35 25.85 20.3 25.8 20.4 25.75" fill="#7d6200" fill-rule="evenodd" stroke="none"/>
      <path d="M28.7 22.5 L28.5 22.35 28.45 22.0 28.65 21.7 28.85 21.65 29.15 22.15 Q29.1 22.4 28.7 22.5" fill="#ffcc00" fill-rule="evenodd" stroke="none"/>
      <path d="M28.85 21.65 L28.95 21.65 29.2 21.9 29.3 22.15 29.1 22.45 28.8 22.5 28.7 22.5 Q29.1 22.4 29.15 22.15 L28.85 21.65" fill="#dbac00" fill-rule="evenodd" stroke="none"/>
      <path d="M28.7 22.5 L28.5 22.35 28.45 22.0 28.65 21.7 28.85 21.65 28.95 21.65 29.2 21.9 29.3 22.15 29.1 22.45 28.8 22.5 28.7 22.5 Z" fill="none" stroke="#000000" stroke-linecap="round" stroke-linejoin="round" stroke-opacity="0.3019608" stroke-width="0.5"/>
      <path d="M28.7 22.15 L28.8 22.2 28.8 22.25 28.75 22.35 28.7 22.35 28.6 22.3 28.6 22.25 28.65 22.15 28.7 22.15" fill="#7d6200" fill-rule="evenodd" stroke="none"/>
      <path d="M28.9 22.0 L29.0 22.05 29.0 22.1 28.95 22.2 28.9 22.2 28.8 22.15 28.8 22.1 28.85 22.0 28.9 22.0" fill="#7d6200" fill-rule="evenodd" stroke="none"/>
      <path d="M19.65 25.7 L19.8 23.85 19.85 25.7 20.65 25.65 19.95 25.8 19.8 26.35 19.7 25.9 18.45 26.0 19.65 25.7" fill="#fcf3d8" fill-opacity="0.7921569" fill-rule="evenodd" stroke="none"/>
      <path d="M19.95 25.35 L20.35 25.0 20.2 25.5 20.35 25.7 20.3 26.05 19.95 26.25 20.0 26.7 19.8 26.3 19.55 26.25 19.35 26.05 19.15 26.05 19.3 25.9 19.4 25.55 Q19.5 25.4 19.7 25.35 L19.95 25.35 M19.65 26.05 L19.85 26.05 20.0 25.95 20.05 25.75 19.95 25.6 19.75 25.6 19.55 25.7 19.55 25.85 19.65 26.05" fill="#fcf3d8" fill-opacity="0.3019608" fill-rule="evenodd" stroke="none"/>
      <path d="M19.65 26.05 L19.55 25.85 19.55 25.7 19.75 25.6 19.95 25.6 20.05 25.75 20.0 25.95 19.85 26.05 19.65 26.05" fill="#fcf3d8" fill-opacity="0.84313726" fill-rule="evenodd" stroke="none"/>
      <path d="M28.35 21.8 L28.4 20.45 28.45 21.8 29.1 21.75 28.55 21.9 28.45 22.25 28.35 21.95 27.4 22.0 28.35 21.8" fill="#fcf3d8" fill-opacity="0.7921569" fill-rule="evenodd" stroke="none"/>
      <path d="M28.5 21.7 L28.4 21.75 28.25 21.8 28.2 21.95 28.3 22.05 28.45 22.05 28.6 22.0 28.6 21.8 28.5 21.7 M28.15 21.7 Q28.2 21.6 28.4 21.55 L28.5 21.55 28.85 21.3 28.7 21.65 28.85 21.8 28.8 22.05 28.55 22.25 28.55 22.5 28.4 22.25 28.25 22.15 28.1 22.1 27.95 22.05 28.1 21.95 Q28.05 21.8 28.15 21.7" fill="#fcf3d8" fill-opacity="0.3019608" fill-rule="evenodd" stroke="none"/>
      <path d="M28.5 21.7 L28.6 21.8 28.6 22.0 28.45 22.05 28.3 22.05 28.2 21.95 28.25 21.8 28.4 21.75 28.5 21.7" fill="#fcf3d8" fill-opacity="0.84313726" fill-rule="evenodd" stroke="none"/>
    </g>
  </defs>
</svg>
