<?xml version="1.0" encoding="UTF-8" standalone="no"?>
<svg xmlns:xlink="http://www.w3.org/1999/xlink" height="440.0px" width="440.0px" xmlns="http://www.w3.org/2000/svg">
  <g transform="matrix(10.0, 0.0, 0.0, 10.0, 0.0, 0.0)">
    <use height="44.0" transform="matrix(1.0, 0.0, 0.0, 1.0, 0.0, 0.0)" width="44.0" xlink:href="#shape0"/>
  </g>
  <defs>
    <g id="shape0" transform="matrix(1.0, 0.0, 0.0, 1.0, 0.0, 0.0)">
      <path d="M44.0 44.0 L0.0 44.0 0.0 0.0 44.0 0.0 44.0 44.0" fill="#43adca" fill-opacity="0.0" fill-rule="evenodd" stroke="none"/>
      <path d="M33.45 19.2 Q34.4 19.45 34.65 20.35 L34.65 20.75 33.0 21.7 30.75 22.55 25.95 23.4 15.25 24.0 16.1 23.35 22.45 23.1 Q28.85 22.85 32.7 21.2 L33.1 21.0 Q34.55 20.0 33.45 19.2 M31.7 31.15 Q32.75 30.25 32.7 28.55 L32.6 27.9 33.2 26.85 33.25 28.0 Q33.35 29.3 32.95 30.25 L32.05 31.25 31.7 31.15 M27.4 30.9 L28.3 30.6 27.55 32.3 26.25 33.7 24.45 33.75 24.0 33.45 Q25.7 33.95 26.85 32.05 L27.4 30.9" fill="#595959" fill-rule="evenodd" stroke="none"/>
      <path d="M15.25 24.0 L25.95 23.4 30.75 22.55 33.0 21.7 Q32.3 22.55 29.85 24.0 L29.75 24.0 29.75 24.05 Q29.9 27.35 29.6 28.15 28.55 31.3 25.1 30.65 L24.8 30.6 23.65 30.2 Q22.6 30.0 22.2 30.2 L21.55 31.0 20.95 31.95 Q21.6 31.25 22.5 31.3 L22.25 31.95 Q22.1 32.85 22.25 33.5 22.6 34.9 24.3 35.05 25.05 35.9 24.4 36.6 L23.8 37.1 20.15 36.7 Q20.55 35.9 20.15 34.9 L19.65 34.1 17.55 33.5 16.9 33.05 Q15.0 31.25 14.95 27.6 L15.25 24.0" fill="#262626" fill-rule="evenodd" stroke="none"/>
      <path d="M33.0 21.7 L34.65 20.75 34.25 24.55 34.25 24.95 34.15 26.05 Q34.0 29.2 34.25 30.35 L33.9 31.95 33.1 33.35 32.55 33.85 32.1 33.3 32.55 32.55 32.1 32.45 Q31.8 32.3 32.6 31.4 L33.6 30.45 Q34.15 29.3 34.0 27.35 L34.0 26.9 34.25 24.95 Q33.45 26.05 33.2 26.85 L32.6 27.9 32.55 27.9 31.8 28.7 31.3 29.05 Q30.8 29.1 30.5 28.25 L30.1 26.1 29.75 24.05 29.75 24.0 29.85 24.0 Q32.3 22.55 33.0 21.7 M31.4 32.55 L30.35 32.2 29.45 32.95 28.6 33.95 27.5 35.8 Q26.35 37.1 23.8 37.1 L24.4 36.6 Q25.05 35.9 24.3 35.05 L25.95 34.9 26.0 35.15 25.35 35.9 Q26.5 36.2 27.55 34.6 28.6 32.85 28.6 31.5 29.85 29.95 30.1 30.0 L30.9 30.65 Q30.9 31.75 31.4 32.55 M20.15 36.7 L19.1 36.55 Q19.1 35.0 17.95 33.95 L17.55 33.5 19.65 34.1 20.15 34.9 Q20.55 35.9 20.15 36.7" fill="#1a1a1a" fill-rule="evenodd" stroke="none"/>
      <path d="M33.45 19.2 Q34.55 20.0 33.1 21.0 L32.7 21.2 33.45 19.2 M32.1 33.3 L31.4 32.55 Q30.9 31.75 30.9 30.65 L30.1 30.0 Q29.85 29.95 28.6 31.5 28.6 32.85 27.55 34.6 26.5 36.2 25.35 35.9 L26.0 35.15 25.95 34.9 24.3 35.05 Q22.6 34.9 22.25 33.5 22.1 32.85 22.25 31.95 L22.5 31.3 Q21.6 31.25 20.95 31.95 L21.55 31.0 22.2 30.2 Q22.6 30.0 23.65 30.2 23.4 30.9 23.4 31.8 23.4 32.85 24.0 33.45 L24.45 33.75 26.25 33.7 27.55 32.3 28.3 30.6 27.4 30.9 25.1 30.65 Q28.55 31.3 29.6 28.15 29.9 27.35 29.75 24.05 L30.1 26.1 30.5 28.25 Q30.8 29.1 31.3 29.05 L31.8 28.7 32.55 27.9 32.6 27.9 31.65 29.2 31.05 29.8 31.7 31.15 32.05 31.25 32.95 30.25 Q33.35 29.3 33.25 28.0 L33.2 26.85 Q33.45 26.05 34.25 24.95 L34.0 26.9 34.0 27.35 Q34.15 29.3 33.6 30.45 L32.6 31.4 Q31.8 32.3 32.1 32.45 L32.55 32.55 32.1 33.3" fill="#000000" fill-rule="evenodd" stroke="none"/>
      <path d="M34.65 20.75 L34.65 20.35 Q34.4 19.45 33.45 19.2 L32.7 21.2 Q28.85 22.85 22.45 23.1 L16.1 23.35 15.25 24.0 M34.65 20.75 L34.25 24.55 34.25 24.95 34.15 26.05 Q34.0 29.2 34.25 30.35 L33.9 31.95 33.1 33.35 32.55 33.85 32.1 33.3 31.4 32.55 30.35 32.2 29.45 32.95 28.6 33.95 27.5 35.8 Q26.35 37.1 23.8 37.1 L20.15 36.7 19.1 36.55 Q19.1 35.0 17.95 33.95 L17.55 33.5 16.9 33.05 Q15.0 31.25 14.95 27.6 L15.25 24.0" fill="none" stroke="#000000" stroke-linecap="round" stroke-linejoin="round" stroke-opacity="0.3019608" stroke-width="0.05"/>
      <path d="M21.6 34.55 L21.35 35.4 Q21.1 35.75 20.75 35.75 20.3 35.75 20.1 35.4 19.8 35.05 19.8 34.55 19.8 34.1 20.1 33.75 20.3 33.4 20.75 33.4 21.1 33.4 21.35 33.75 L21.6 34.55" fill="#595959" fill-opacity="0.3019608" fill-rule="evenodd" stroke="none"/>
      <path d="M20.3 27.45 Q20.3 28.55 19.7 29.25 19.2 30.05 18.4 30.05 17.5 30.05 16.95 29.25 16.35 28.55 16.35 27.45 16.35 26.4 16.95 25.65 17.5 24.9 18.4 24.9 19.2 24.9 19.7 25.65 20.3 26.4 20.3 27.45" fill="#595959" fill-opacity="0.3019608" fill-rule="evenodd" stroke="none"/>
      <path d="M25.05 28.9 L24.9 29.4 24.5 29.6 Q24.25 29.6 24.1 29.4 23.95 29.2 23.95 28.9 23.95 28.6 24.1 28.4 24.25 28.2 24.5 28.2 L24.9 28.4 25.05 28.9" fill="#595959" fill-opacity="0.3019608" fill-rule="evenodd" stroke="none"/>
      <path d="M28.8 27.55 L28.75 28.5 28.35 29.2 27.65 29.3 27.2 28.65 Q27.1 28.2 27.25 27.7 27.35 27.2 27.75 26.95 L28.35 26.9 28.8 27.55" fill="#595959" fill-opacity="0.3019608" fill-rule="evenodd" stroke="none"/>
      <path d="M27.55 25.8 L27.4 26.3 27.0 26.5 Q26.75 26.5 26.6 26.3 L26.45 25.8 Q26.45 25.5 26.6 25.3 26.75 25.1 27.0 25.1 L27.4 25.3 27.55 25.8" fill="#595959" fill-opacity="0.3019608" fill-rule="evenodd" stroke="none"/>
      <path d="M20.45 32.7 L20.3 33.2 19.9 33.4 Q19.65 33.4 19.5 33.2 L19.35 32.7 Q19.35 32.4 19.5 32.2 19.65 32.0 19.9 32.0 L20.3 32.2 20.45 32.7" fill="#595959" fill-opacity="0.3019608" fill-rule="evenodd" stroke="none"/>
      <path d="M35.7 12.05 L35.2 15.9 38.6 13.6 M32.65 12.75 L35.05 15.9 35.2 15.9 35.15 15.95 38.6 17.0 M35.05 15.9 L35.05 15.95 35.05 15.9 35.15 15.95 35.15 16.1 37.4 19.2 M35.05 15.95 L35.15 16.1 34.6 19.95 M31.95 17.9 L35.05 15.95 M31.0 14.7 L35.05 15.9" fill="none" stroke="#ffcc00" stroke-linecap="round" stroke-linejoin="round" stroke-width="1.0"/>
      <path d="M33.95 11.85 L35.0 15.7 35.2 15.7 36.95 12.35 M35.1 15.85 L35.1 15.8 35.0 15.7 35.0 15.8 35.1 15.85 36.1 19.6 M35.1 15.8 L35.2 15.7 39.15 14.8 M33.15 19.35 L35.1 15.85 M31.35 16.5 L35.0 15.8 M31.7 13.15 L35.0 15.7 M38.05 18.0 L35.1 15.8" fill="none" stroke="#ff9900" stroke-linecap="round" stroke-linejoin="round" stroke-width="0.5"/>
      <path d="M35.35 16.1 L35.4 16.0 35.4 15.95 35.35 15.95 35.35 16.1 35.85 19.55 M35.4 16.0 L35.5 15.95 35.4 15.95 M32.75 13.25 L35.35 15.95 34.95 12.35 M33.3 18.95 L35.35 16.1 M32.0 16.2 L35.35 15.95 M37.6 13.15 L35.5 15.95 39.25 15.7 M37.7 18.4 L35.4 16.0" fill="none" stroke="#ffcc00" stroke-linecap="round" stroke-linejoin="round" stroke-width="0.30000000000000004"/>
      <path d="M1.15 27.0 Q2.65 26.1 3.85 24.9 7.95 21.05 9.95 13.65 L10.7 14.05 Q8.65 21.55 4.6 25.3 L2.0 27.5 1.15 27.0 M10.8 12.2 L11.9 10.8 Q13.8 8.75 15.85 7.6 20.3 5.25 24.3 7.85 20.65 5.9 16.55 8.1 14.55 9.25 12.65 11.2 L11.5 12.6 10.8 12.2" fill="#ff0000" fill-rule="evenodd" stroke="none"/>
      <path d="M9.95 13.65 Q9.95 13.55 10.3 13.0 10.6 12.35 10.8 12.2 L11.5 12.6 10.7 14.05 9.95 13.65" fill="#cc0000" fill-rule="evenodd" stroke="none"/>
      <path d="M30.5 16.25 L32.75 16.6 32.85 16.6 33.5 17.05 32.55 17.05 31.15 16.65 30.5 16.25" fill="#990000" fill-rule="evenodd" stroke="none"/>
      <path d="M2.95 29.05 L2.3 28.65 1.15 27.0 2.0 27.5 2.95 29.05" fill="#800000" fill-rule="evenodd" stroke="none"/>
      <path d="M24.3 7.85 Q26.35 8.9 28.2 11.3 29.35 15.45 30.5 16.25 L31.15 16.65 32.55 17.05 33.5 17.05 33.6 17.05 32.1 19.45 23.5 20.75 Q22.2 20.9 17.6 22.35 L11.75 24.55 Q5.5 28.05 2.95 29.05 L2.0 27.5 4.6 25.3 Q8.65 21.55 10.7 14.05 L11.5 12.6 12.65 11.2 Q14.55 9.25 16.55 8.1 20.65 5.9 24.3 7.85" fill="url(#gradient0)" fill-rule="evenodd" stroke="none"/>
      <path d="M24.3 7.85 Q26.35 8.9 28.2 11.3 29.35 15.45 30.5 16.25 L32.75 16.6 M32.85 16.6 L33.5 17.05 33.6 17.05 32.1 19.45 23.5 20.75 Q22.2 20.9 17.6 22.35 L11.75 24.55 Q5.5 28.05 2.95 29.05 M2.3 28.65 L1.15 27.0 Q2.65 26.1 3.85 24.9 7.95 21.05 9.95 13.65 M10.8 12.2 L11.9 10.8 Q13.8 8.75 15.85 7.6 20.3 5.25 24.3 7.85 Z" fill="none" stroke="#000000" stroke-linecap="round" stroke-linejoin="round" stroke-opacity="0.3019608" stroke-width="0.05"/>
      <path d="M11.6 21.85 L11.5 20.8 Q11.5 16.1 14.85 12.75 18.2 9.4 22.9 9.4 27.65 9.4 31.0 12.75 34.3 16.1 34.3 20.8 L34.25 21.85 Q33.9 23.1 31.0 24.0 27.65 25.05 22.9 25.05 18.2 25.05 14.85 24.0 12.0 23.1 11.6 21.85" fill="#cc0000" fill-rule="evenodd" stroke="none"/>
      <path d="M11.6 21.85 L11.5 20.8 Q11.5 16.1 14.85 12.75 18.2 9.4 22.9 9.4 27.65 9.4 31.0 12.75 34.3 16.1 34.3 20.8 L34.25 21.85" fill="none" stroke="#000000" stroke-linecap="round" stroke-linejoin="round" stroke-opacity="0.3019608" stroke-width="0.05"/>
      <path d="M14.0 19.35 Q12.85 18.2 13.35 16.1 13.9 14.05 15.8 12.35 17.75 10.6 20.0 10.15 22.25 9.8 23.4 10.95 24.6 12.1 24.1 14.15 23.55 16.25 21.6 18.0 19.7 19.7 17.45 20.05 15.2 20.5 14.0 19.35" fill="#ff0000" fill-opacity="0.5019608" fill-rule="evenodd" stroke="none"/>
      <path d="M18.9 12.8 L18.45 13.5 Q18.05 13.85 17.65 13.9 L17.0 13.8 Q16.75 13.55 16.85 13.15 16.95 12.75 17.35 12.45 17.7 12.1 18.1 12.05 L18.75 12.2 Q19.0 12.4 18.9 12.8" fill="#ffffff" fill-opacity="0.5019608" fill-rule="evenodd" stroke="none"/>
      <path d="M25.95 19.65 Q25.7 21.45 24.15 24.15 22.85 26.35 20.9 28.45 L21.45 26.5 Q13.3 28.7 9.5 27.25 8.25 26.75 7.6 26.05 L7.3 25.4 Q11.35 22.1 11.75 18.45 L12.15 19.2 13.95 20.4 Q17.8 21.8 25.95 19.65" fill="#cc0000" fill-rule="evenodd" stroke="none"/>
      <path d="M7.3 25.4 L7.6 26.05 Q8.25 26.75 9.5 27.25 13.3 28.7 21.45 26.5 L20.9 28.45 Q18.3 31.25 14.55 33.75 L2.0 28.45 5.15 26.75 7.3 25.4" fill="#990000" fill-rule="evenodd" stroke="none"/>
      <path d="M20.9 28.45 Q22.85 26.35 24.15 24.15 25.7 21.45 25.95 19.65 M11.75 18.45 Q11.35 22.1 7.3 25.4 M20.9 28.45 Q18.3 31.25 14.55 33.75 L2.0 28.45 5.15 26.75 7.3 25.4" fill="none" stroke="#000000" stroke-linecap="round" stroke-linejoin="round" stroke-opacity="0.3019608" stroke-width="0.05"/>
      <path d="M12.6 31.15 L12.85 31.2 14.5 33.7 Q8.15 31.85 2.35 28.9 L1.3 27.15 3.0 28.0 Q6.95 30.0 12.6 31.15" fill="#990000" fill-rule="evenodd" stroke="none"/>
      <path d="M14.5 33.7 L12.85 31.2 12.6 31.15 13.65 30.7 13.7 30.7 15.4 33.2 14.5 33.7" fill="#660000" fill-rule="evenodd" stroke="none"/>
      <path d="M13.65 30.7 L12.6 31.15 Q6.95 30.0 3.0 28.0 L1.3 27.15 1.15 26.95 2.05 26.5 Q6.5 29.25 13.65 30.7" fill="#ff0000" fill-rule="evenodd" stroke="none"/>
      <path d="M14.5 33.7 L15.4 33.2 13.7 30.7 13.65 30.7 M1.3 27.15 L2.35 28.9 Q8.15 31.85 14.5 33.7 M1.3 27.15 L1.15 26.95 2.05 26.5 Q6.5 29.25 13.65 30.7" fill="none" stroke="#000000" stroke-linecap="round" stroke-linejoin="round" stroke-opacity="0.3019608" stroke-width="0.05"/>
      <path d="M12.85 20.7 L12.35 24.55 15.75 22.25 M9.8 21.4 L12.2 24.55 12.35 24.55 12.3 24.6 15.75 25.65 M12.2 24.55 L12.2 24.6 12.2 24.55 12.3 24.6 12.3 24.75 14.55 27.85 M12.2 24.6 L12.3 24.75 11.75 28.6 M9.1 26.55 L12.2 24.6 M8.15 23.35 L12.2 24.55" fill="none" stroke="#ffcc00" stroke-linecap="round" stroke-linejoin="round" stroke-width="1.0"/>
      <path d="M11.1 20.55 L12.15 24.4 12.35 24.4 14.1 21.05 M12.25 24.55 L12.25 24.5 12.15 24.4 12.15 24.5 12.25 24.55 13.25 28.3 M12.25 24.5 L12.35 24.4 16.3 23.5 M10.3 28.05 L12.25 24.55 M8.5 25.2 L12.15 24.5 M8.85 21.85 L12.15 24.4 M15.2 26.7 L12.25 24.5" fill="none" stroke="#ff9900" stroke-linecap="round" stroke-linejoin="round" stroke-width="0.5"/>
      <path d="M12.5 24.8 L12.55 24.7 12.55 24.65 12.5 24.65 12.5 24.8 13.0 28.25 M12.55 24.7 L12.65 24.65 12.55 24.65 M9.9 21.95 L12.5 24.65 12.1 21.05 M10.45 27.65 L12.5 24.8 M9.15 24.9 L12.5 24.65 M14.75 21.85 L12.65 24.65 16.4 24.4 M14.85 27.1 L12.55 24.7" fill="none" stroke="#ffcc00" stroke-linecap="round" stroke-linejoin="round" stroke-width="0.30000000000000004"/>
      <path d="M42.45 21.4 L42.55 21.4 41.55 23.75 35.45 24.3 34.3 24.3 34.25 24.55 34.25 24.95 34.15 26.05 Q34.0 29.2 34.25 30.35 L33.9 31.95 33.1 33.35 32.55 33.85 32.1 33.3 31.4 32.55 30.35 32.2 29.45 32.95 28.6 33.95 27.5 35.8 Q26.35 37.1 23.8 37.1 L19.1 36.55 Q19.1 35.0 17.95 33.95 L17.55 33.5 16.9 33.05 16.45 32.6 14.6 33.75 14.55 33.75 14.3 33.65 Q8.05 31.8 2.35 28.9 L2.1 28.5 2.0 28.45 2.05 28.45 1.15 27.0 1.2 27.0 1.15 26.95 1.55 26.75 3.85 24.9 Q7.95 21.05 9.95 13.65 9.95 13.55 10.3 13.0 10.6 12.35 10.8 12.2 L11.9 10.8 Q13.8 8.75 15.85 7.6 L16.8 7.15 17.05 7.05 18.9 6.55 19.4 6.5 19.5 6.5 20.35 6.5 20.9 6.55 21.1 6.6 21.65 6.7 22.3 6.9 22.65 7.0 23.6 7.45 24.3 7.85 24.65 8.05 24.9 8.2 25.75 8.75 26.25 8.6 28.3 8.25 30.65 8.85 Q31.55 9.1 33.0 10.05 L34.65 11.6 35.15 12.4 35.5 13.8 35.7 14.7 35.95 15.4 35.95 15.45 36.0 15.55 36.1 15.9 36.25 16.3 36.45 16.85 36.7 17.35 Q37.3 18.6 38.05 19.5 L38.5 19.9 39.45 20.5 41.75 20.8 42.45 21.4 M31.05 29.8 L31.7 31.15 Q32.75 30.25 32.7 28.55 L32.6 27.9 31.65 29.2 31.05 29.8 M25.1 30.65 L27.4 30.9 26.85 32.05 Q25.7 33.95 24.0 33.45 23.4 32.85 23.4 31.8 23.4 30.9 23.65 30.2 L24.8 30.6 25.1 30.65" fill="none" stroke="#000000" stroke-linecap="round" stroke-linejoin="round" stroke-opacity="0.4" stroke-width="0.5"/>
      <path d="M21.4 4.3 L20.9 8.15 24.3 5.85 M18.35 5.0 L20.75 8.15 20.9 8.15 20.85 8.2 24.3 9.25 M20.75 8.15 L20.75 8.2 20.75 8.15 20.85 8.2 20.85 8.35 23.1 11.45 M20.75 8.2 L20.85 8.35 20.3 12.2 M17.65 10.15 L20.75 8.2 M16.7 6.95 L20.75 8.15" fill="none" stroke="#ffcc00" stroke-linecap="round" stroke-linejoin="round" stroke-width="1.0"/>
      <path d="M19.7 4.15 L20.75 8.0 20.95 8.0 22.7 4.65 M23.8 10.3 L20.85 8.1 20.85 8.15 21.85 11.9 M20.85 8.1 L20.75 8.0 20.75 8.1 20.85 8.15 18.9 11.65 M17.45 5.45 L20.75 8.0 M17.1 8.8 L20.75 8.1 M20.85 8.1 L20.95 8.0 24.9 7.1" fill="none" stroke="#ff9900" stroke-linecap="round" stroke-linejoin="round" stroke-width="0.5"/>
      <path d="M23.45 10.7 L21.15 8.3 21.1 8.4 21.6 11.85 M21.15 8.25 L21.15 8.3 21.25 8.25 21.15 8.25 21.1 8.25 21.1 8.4 19.05 11.25 M17.75 8.5 L21.1 8.25 18.5 5.55 M21.1 8.25 L20.7 4.65 M23.35 5.45 L21.25 8.25 25.0 8.0" fill="none" stroke="#ffcc00" stroke-linecap="round" stroke-linejoin="round" stroke-width="0.30000000000000004"/>
      <path d="M42.45 21.4 L41.65 21.4 Q40.85 21.4 40.1 21.0 L38.5 19.9 39.45 20.5 41.75 20.8 42.45 21.4 M30.65 8.85 L29.25 8.75 27.65 9.0 26.4 9.35 Q22.9 10.7 20.65 14.3 L19.65 14.3 19.9 13.9 Q22.2 10.25 25.75 8.75 L26.25 8.6 28.3 8.25 30.65 8.85 M20.05 15.2 L19.1 18.05 18.85 20.65 18.1 20.55 18.45 17.55 18.75 16.4 19.25 15.1 20.05 15.2 M18.7 21.7 L18.35 23.65 Q17.8 26.75 16.25 28.45 14.75 30.2 13.0 31.1 L12.35 30.6 Q14.1 29.7 15.6 28.0 17.15 26.2 17.7 23.1 L17.95 21.7 18.7 21.7" fill="#ff0000" fill-rule="evenodd" stroke="none"/>
      <path d="M20.65 14.3 L24.4 19.45 20.8 15.85 19.65 14.3 20.65 14.3 M18.85 20.65 L21.3 23.75 19.5 22.3 18.1 20.55 18.85 20.65 M13.0 31.1 L14.6 33.75 13.9 33.2 12.35 30.6 13.0 31.1 M26.2 10.15 Q27.4 9.55 28.55 9.5 32.35 9.1 34.55 12.4 L35.15 15.3 Q35.95 18.35 37.5 19.75 L38.9 21.2 Q39.6 22.55 36.75 22.1 L39.6 22.85 39.35 22.85 35.85 22.6 Q30.4 22.75 23.25 26.6 L19.0 29.2 14.85 32.3 15.2 31.9 Q21.7 25.3 27.05 22.85 29.9 21.65 31.3 21.8 30.5 21.15 30.15 20.1 L29.9 18.8 Q33.0 18.2 33.6 15.2 L33.5 12.2 Q31.25 9.75 27.95 9.9 L25.2 10.55 26.2 10.15" fill="#660000" fill-rule="evenodd" stroke="none"/>
      <path d="M38.5 19.9 L40.1 21.0 Q40.85 21.4 41.65 21.4 L42.45 21.4 42.55 21.4 41.55 23.75 35.45 24.3 Q30.65 24.15 27.55 25.85 L21.35 29.45 14.6 33.75 13.0 31.1 Q14.75 30.2 16.25 28.45 17.8 26.75 18.35 23.65 L18.7 21.7 19.5 22.3 21.3 23.75 18.85 20.65 19.1 18.05 20.05 15.2 20.8 15.85 24.4 19.45 20.65 14.3 Q22.9 10.7 26.4 9.35 L27.65 9.0 29.25 8.75 30.65 8.85 Q31.55 9.1 33.0 10.05 L34.65 11.6 35.15 12.4 Q36.1 17.25 38.05 19.5 L38.5 19.9 M26.2 10.15 L25.2 10.55 27.95 9.9 Q31.25 9.75 33.5 12.2 L33.6 15.2 Q33.0 18.2 29.9 18.8 L30.15 20.1 Q30.5 21.15 31.3 21.8 29.9 21.65 27.05 22.85 21.7 25.3 15.2 31.9 L14.85 32.3 19.0 29.2 23.25 26.6 Q30.4 22.75 35.85 22.6 L39.35 22.85 39.6 22.85 36.75 22.1 Q39.6 22.55 38.9 21.2 L37.5 19.75 Q35.95 18.35 35.15 15.3 L34.55 12.4 Q32.35 9.1 28.55 9.5 27.4 9.55 26.2 10.15" fill="url(#gradient1)" fill-rule="evenodd" stroke="none"/>
      <path d="M38.5 19.9 L38.05 19.5 Q36.1 17.25 35.15 12.4 L34.65 11.6 33.0 10.05 Q31.55 9.1 30.65 8.85 L28.3 8.25 26.25 8.6 25.75 8.75 Q22.2 10.25 19.9 13.9 L19.65 14.3 M20.8 15.85 L20.05 15.2 M19.5 22.3 L18.7 21.7 M14.6 33.75 L21.35 29.45 27.55 25.85 Q30.65 24.15 35.45 24.3 L41.55 23.75 42.55 21.4 M42.45 21.4 L41.75 20.8 39.45 20.5 38.5 19.9 M18.1 20.55 L18.45 17.55 18.75 16.4 19.25 15.1 20.05 15.2 M12.35 30.6 Q14.1 29.7 15.6 28.0 17.15 26.2 17.7 23.1 L17.95 21.7 18.7 21.7 M19.5 22.3 L18.1 20.55 M12.35 30.6 L13.9 33.2 14.6 33.75 M20.8 15.85 L19.65 14.3" fill="none" stroke="#000000" stroke-linecap="round" stroke-linejoin="round" stroke-opacity="0.3019608" stroke-width="0.05"/>
    </g>
    <linearGradient gradientTransform="matrix(0.0033, 0.0072, -0.0123, 0.0056, 17.25, 16.7)" gradientUnits="userSpaceOnUse" id="gradient0" spreadMethod="pad" x1="-819.2" x2="819.2">
      <stop offset="0.06274509803921569" stop-color="#660000"/>
      <stop offset="1.0" stop-color="#2b0000"/>
    </linearGradient>
    <linearGradient gradientTransform="matrix(0.0102, 0.0059, -0.0076, 0.0132, 20.7, 15.1)" gradientUnits="userSpaceOnUse" id="gradient1" spreadMethod="pad" x1="-819.2" x2="819.2">
      <stop offset="0.06274509803921569" stop-color="#c90000"/>
      <stop offset="1.0" stop-color="#8c0000"/>
    </linearGradient>
  </defs>
</svg>
