<?xml version="1.0" encoding="UTF-8" standalone="no"?>
<svg xmlns:xlink="http://www.w3.org/1999/xlink" height="520.0px" width="520.0px" xmlns="http://www.w3.org/2000/svg">
  <g transform="matrix(10.0, 0.0, 0.0, 10.0, 0.0, 0.0)">
    <use height="52.0" transform="matrix(1.0, 0.0, 0.0, 1.0, 0.0, 0.0)" width="52.0" xlink:href="#shape0"/>
  </g>
  <defs>
    <g id="shape0" transform="matrix(1.0, 0.0, 0.0, 1.0, 0.0, 0.0)">
      <path d="M0.0 52.0 L0.0 0.0 52.0 0.0 52.0 52.0 0.0 52.0" fill="#43adca" fill-opacity="0.0" fill-rule="evenodd" stroke="none"/>
      <path d="M44.8 12.15 Q45.8 12.35 46.3 16.95 46.65 21.35 46.45 22.7 L46.25 24.3 Q48.95 29.5 48.3 35.65 L48.0 37.1 47.4 39.45 47.55 39.3 47.55 39.45 Q47.55 41.75 46.7 43.95 L45.1 44.4 42.6 44.85 41.9 44.95 38.8 44.85 38.1 44.85 34.6 44.55 31.95 44.25 30.95 44.1 30.35 43.95 27.15 43.35 26.6 43.25 25.0 42.8 23.35 42.35 22.2 42.05 19.3 41.05 18.4 40.75 Q17.55 40.3 16.5 40.15 L15.5 39.85 12.9 38.55 12.45 38.4 9.55 36.5 8.35 35.65 7.35 34.5 7.35 34.35 7.35 33.45 7.35 32.75 7.35 32.45 7.5 31.8 7.65 31.0 Q7.8 30.1 8.95 29.25 8.95 28.65 9.1 28.2 L9.25 27.85 Q11.0 22.15 16.05 18.1 L15.5 18.45 Q16.1 13.35 16.65 11.45 L18.0 7.95 Q18.4 7.1 19.15 6.35 L19.75 5.75 20.45 5.2 Q22.2 4.15 23.25 6.5 25.4 11.45 25.7 13.7 28.1 13.4 30.65 13.65 33.7 13.95 36.4 15.1 37.4 14.4 38.9 13.65 L40.4 13.0 40.9 12.85 Q43.35 12.0 44.8 12.15 M41.05 17.4 L40.55 17.5 Q39.0 17.85 37.6 19.4 L36.8 20.85 36.35 21.75 35.65 23.0 Q36.9 23.4 37.45 23.9 L37.85 24.85 37.75 25.15 37.9 25.0 38.75 24.0 Q40.7 21.7 41.2 20.05 L41.4 19.4 41.2 18.05 41.05 17.4 40.55 15.15 M19.45 9.85 L18.25 14.95 17.75 16.75 17.55 17.55 Q19.45 14.95 21.2 16.1 L20.55 15.15 Q20.2 14.3 20.0 12.9 L20.0 12.6 19.75 10.3 19.45 9.85 19.45 9.7 19.75 10.3 M21.2 16.1 L21.35 16.4 21.75 16.4 Q22.35 16.55 23.8 15.8 L24.25 15.55 25.65 14.35 25.7 14.2 25.7 13.95 25.7 13.7 M36.4 15.1 Q35.2 15.9 34.65 16.6 L34.3 17.25 Q33.95 17.8 33.75 18.3 L33.35 19.7 Q33.35 20.7 35.45 23.15 L35.65 23.15 35.65 23.0 M46.25 24.3 Q45.8 26.4 44.8 28.1 L43.7 29.75 43.0 30.4 Q41.55 31.85 40.25 31.7 L38.95 31.5 Q36.0 30.7 36.3 27.6 L36.95 26.1 37.75 25.15 M23.6 32.85 L23.5 32.95 23.65 32.85 23.6 32.85 Q21.2 31.5 19.3 31.15 M15.8 31.15 L11.55 30.85 9.1 31.25 10.55 32.45 13.75 34.2 13.75 34.35 16.95 35.65 17.4 35.8 Q18.55 35.95 19.45 36.35 L20.9 36.8 23.25 37.7 24.25 37.95 22.65 35.5 Q20.9 33.0 19.6 32.3 M24.25 37.95 L24.55 38.0 26.15 38.4 27.9 38.85 31.15 39.5 29.25 37.25 26.8 35.0 24.4 33.3 23.65 32.85 Q27.5 29.8 33.0 29.4 M24.25 37.95 L24.45 38.35 24.55 38.0 M14.75 31.25 Q16.6 32.8 18.05 28.9 17.4 32.25 19.6 33.6 M31.15 39.5 L31.85 39.6 33.3 39.85 33.45 39.85 33.85 40.0 35.45 40.15 38.95 40.45 40.3 40.45 42.75 40.6 44.05 40.45 45.95 40.15 47.4 39.45 M34.6 44.55 Q35.9 42.2 35.45 40.15 M31.85 39.6 L31.95 40.6 Q31.95 42.4 30.95 44.1 M31.15 39.5 L31.95 40.6 M20.9 36.8 Q19.6 38.55 19.3 41.05 M27.9 38.85 Q28.35 41.05 27.15 43.35 M26.6 43.25 Q25.65 40.5 24.45 38.35 L23.35 42.35 M23.6 32.85 Q27.35 29.5 33.0 29.1 M45.1 44.4 Q46.4 42.2 45.95 40.15 M42.75 40.6 Q43.2 42.65 41.9 44.95 M38.1 44.85 Q39.4 42.65 38.95 40.45 M16.05 18.1 Q16.55 17.8 17.55 17.55 M16.25 29.8 Q14.1 28.75 12.2 28.3 L10.0 27.9 9.25 27.85 M8.95 31.25 L8.85 31.35 9.1 31.25 9.1 31.15 8.95 31.25 M8.95 29.25 Q8.95 30.7 9.1 31.15 M10.55 32.45 Q9.25 33.9 9.55 36.5 M13.75 34.35 Q12.75 36.1 12.45 38.4 M7.35 34.35 Q7.5 32.35 8.85 31.35 8.15 31.5 7.5 31.8 M16.95 35.65 Q15.8 37.25 15.5 39.85 M13.95 28.4 L13.35 22.4" fill="none" stroke="#000000" stroke-linecap="round" stroke-linejoin="round" stroke-opacity="0.3019608" stroke-width="0.7000000000000001"/>
      <path d="M13.45 37.8 L13.6 37.85 14.1 38.15 13.45 37.8" fill="#4d4d4d" fill-rule="evenodd" stroke="none"/>
      <path d="M7.35 34.35 L7.35 34.5 7.35 34.35 M47.55 39.45 L47.55 39.3 47.4 39.45 47.55 39.45 M9.1 31.25 L9.1 31.15 8.95 31.25 9.1 31.25" fill="#cc9900" fill-rule="evenodd" stroke="none"/>
      <path d="M22.65 14.35 L22.35 14.5 21.75 14.65 Q18.7 15.8 16.1 18.0 10.85 22.25 9.1 28.2 8.95 28.65 8.95 29.25 L8.8 29.25 Q7.8 30.1 7.65 31.0 L7.35 32.45 7.35 32.75 7.35 33.45 7.35 34.35 Q7.5 32.3 8.95 31.25 L9.1 31.15 9.1 31.25 10.55 32.45 13.75 34.2 13.75 34.35 13.75 34.2 10.55 32.45 Q9.25 33.9 9.55 36.5 L12.45 38.4 Q12.75 36.1 13.75 34.35 L16.95 35.65 17.4 35.8 Q18.55 35.95 19.45 36.35 L20.9 36.8 19.45 36.35 Q18.55 35.95 17.4 35.8 L16.95 35.65 Q15.8 37.25 15.5 39.85 L16.5 40.15 Q17.55 40.3 18.4 40.75 L19.3 41.05 Q19.6 38.55 20.9 36.8 L23.25 37.7 24.55 38.0 26.15 38.4 27.9 38.85 26.15 38.4 24.55 38.0 23.35 42.35 25.0 42.8 27.15 43.35 Q28.35 41.05 27.9 38.85 L31.85 39.6 33.3 39.85 33.45 39.85 33.3 39.85 31.85 39.6 Q32.25 41.9 30.95 44.1 L31.95 44.25 Q33.6 42.05 33.6 40.3 L33.45 39.85 33.85 40.0 36.65 39.0 37.2 38.7 Q41.3 29.4 35.75 20.8 34.15 18.3 31.7 16.7 29.35 15.25 26.75 14.35 L22.65 14.35 M8.95 29.25 Q8.95 30.7 9.1 31.15 8.95 30.7 8.95 29.25" fill="#b38400" fill-rule="evenodd" stroke="none"/>
      <path d="M27.15 43.35 L30.35 43.95 30.95 44.1 Q32.25 41.9 31.85 39.6 L27.9 38.85 Q28.35 41.05 27.15 43.35 M31.95 44.25 L34.6 44.55 Q35.9 42.2 35.45 40.15 L38.95 40.45 Q39.4 42.65 38.1 44.85 L38.8 44.85 41.9 44.95 Q43.2 42.65 42.75 40.6 L40.3 40.45 38.95 40.45 40.3 40.45 42.75 40.6 44.05 40.45 45.95 40.15 Q46.4 42.2 45.1 44.4 L46.7 43.95 Q47.55 41.75 47.55 39.45 L47.4 39.45 45.95 40.15 47.4 39.45 48.0 37.1 48.3 35.65 48.3 35.5 Q49.15 27.5 44.05 20.9 38.7 14.5 30.65 13.65 26.45 13.2 22.65 14.35 L26.75 14.35 Q29.35 15.25 31.7 16.7 34.15 18.3 35.75 20.8 41.3 29.4 37.2 38.7 L36.65 39.0 33.85 40.0 33.45 39.85 33.6 40.3 Q33.6 42.05 31.95 44.25 M33.85 40.0 L35.45 40.15 33.85 40.0" fill="#e0a600" fill-rule="evenodd" stroke="none"/>
      <path d="M34.6 44.55 L38.1 44.85 Q39.4 42.65 38.95 40.45 L35.45 40.15 Q35.9 42.2 34.6 44.55 M41.9 44.95 L42.6 44.85 45.1 44.4 Q46.4 42.2 45.95 40.15 L44.05 40.45 42.75 40.6 Q43.2 42.65 41.9 44.95" fill="#fcba00" fill-rule="evenodd" stroke="none"/>
      <path d="M7.35 34.5 L8.35 35.65 9.55 36.5 Q9.25 33.9 10.55 32.45 L9.1 31.25 8.95 31.25 Q7.5 32.3 7.35 34.35 L7.35 34.5 M12.45 38.4 L12.9 38.55 15.5 39.85 Q15.8 37.25 16.95 35.65 L13.75 34.35 Q12.75 36.1 12.45 38.4 M19.3 41.05 L22.2 42.05 23.35 42.35 24.55 38.0 23.25 37.7 20.9 36.8 Q19.6 38.55 19.3 41.05" fill="#d19500" fill-rule="evenodd" stroke="none"/>
      <path d="M22.65 14.35 L22.35 14.5 21.75 14.65 Q18.7 15.8 16.1 18.0 10.85 22.25 9.1 28.2 8.95 28.65 8.95 29.25 M8.8 29.25 Q7.8 30.1 7.65 31.0 L7.35 32.45 7.35 32.75 7.35 33.45 7.35 34.35 7.35 34.5 8.35 35.65 9.55 36.5 12.45 38.4 12.9 38.55 15.5 39.85 16.5 40.15 Q17.55 40.3 18.4 40.75 L19.3 41.05 22.2 42.05 23.35 42.35 25.0 42.8 27.15 43.35 30.35 43.95 30.95 44.1 31.95 44.25 34.6 44.55 38.1 44.85 38.8 44.85 41.9 44.95 42.6 44.85 45.1 44.4 46.7 43.95 Q47.55 41.75 47.55 39.45 L47.55 39.3 47.4 39.45 48.0 37.1 48.3 35.65 M48.3 35.5 Q49.15 27.5 44.05 20.9 38.7 14.5 30.65 13.65 26.45 13.2 22.65 14.35 M33.85 40.0 L33.45 39.85 33.3 39.85 31.85 39.6 27.9 38.85 26.15 38.4 24.55 38.0 23.25 37.7 20.9 36.8 19.45 36.35 Q18.55 35.95 17.4 35.8 L16.95 35.65 13.75 34.35 13.75 34.2 10.55 32.45 9.1 31.25 9.1 31.15 Q8.95 30.7 8.95 29.25 M38.95 40.45 L40.3 40.45 42.75 40.6 M38.95 40.45 L35.45 40.15 33.85 40.0 M45.95 40.15 L44.05 40.45 42.75 40.6 M45.95 40.15 L47.4 39.45" fill="none" stroke="#000000" stroke-linecap="round" stroke-linejoin="round" stroke-opacity="0.3019608" stroke-width="0.05"/>
      <path d="M8.95 31.25 L9.1 31.15 M8.95 31.25 Q7.5 32.3 7.35 34.35 L7.35 34.5 M10.55 32.45 Q9.25 33.9 9.55 36.5 M24.55 38.0 L23.35 42.35 M20.9 36.8 Q19.6 38.55 19.3 41.05 M16.95 35.65 Q15.8 37.25 15.5 39.85 M13.75 34.35 Q12.75 36.1 12.45 38.4 M38.1 44.85 Q39.4 42.65 38.95 40.45 M42.75 40.6 Q43.2 42.65 41.9 44.95 M31.85 39.6 Q32.25 41.9 30.95 44.1 M34.6 44.55 Q35.9 42.2 35.45 40.15 M45.1 44.4 Q46.4 42.2 45.95 40.15 M27.9 38.85 Q28.35 41.05 27.15 43.35" fill="none" stroke="#000000" stroke-linecap="round" stroke-linejoin="round" stroke-opacity="0.101960786" stroke-width="0.05"/>
      <path d="M35.45 23.15 L35.65 23.15 35.65 23.0 35.45 23.15" fill="#cc9900" fill-rule="evenodd" stroke="none"/>
      <path d="M35.65 23.0 Q38.25 23.8 37.75 25.15 L38.75 24.0 Q40.7 21.7 41.2 20.05 39.55 18.55 36.8 20.85 L35.65 23.0" fill="#bf5757" fill-rule="evenodd" stroke="none"/>
      <path d="M43.0 30.4 L43.7 29.75 44.8 28.1 Q46.15 25.8 46.45 22.7 46.65 21.35 46.3 16.95 45.8 12.35 44.8 12.15 43.35 12.0 40.9 12.85 42.2 13.8 42.7 14.95 43.2 16.1 43.2 18.9 43.2 21.7 41.55 24.15 40.05 26.8 40.05 27.95 40.05 30.4 42.7 30.4 L43.0 30.4" fill="#e0a600" fill-rule="evenodd" stroke="none"/>
      <path d="M43.0 30.4 L42.7 30.4 Q40.05 30.4 40.05 27.95 40.05 26.8 41.55 24.15 43.2 21.7 43.2 18.9 43.2 16.1 42.7 14.95 42.2 13.8 40.9 12.85 L40.4 13.0 38.9 13.65 Q35.65 15.3 34.65 16.6 L34.3 17.25 Q33.35 18.75 33.35 19.7 33.35 20.7 35.45 23.15 L35.65 23.0 36.8 20.85 37.6 19.4 Q39.25 17.6 41.05 17.4 L41.4 19.4 41.2 20.05 Q40.7 21.7 38.75 24.0 L37.75 25.15 36.95 26.1 36.3 27.6 Q35.95 31.35 40.25 31.7 41.55 31.85 43.0 30.4 M40.55 15.15 L41.05 17.4 40.55 15.15" fill="#b38400" fill-rule="evenodd" stroke="none"/>
      <path d="M41.05 17.4 Q39.25 17.6 37.6 19.4 L36.8 20.85 Q39.55 18.55 41.2 20.05 L41.4 19.4 41.05 17.4" fill="#944343" fill-rule="evenodd" stroke="none"/>
      <path d="M40.9 12.85 Q43.35 12.0 44.8 12.15 45.8 12.35 46.3 16.95 46.65 21.35 46.45 22.7 46.15 25.8 44.8 28.1 L43.7 29.75 43.0 30.4 M40.9 12.85 L40.4 13.0 38.9 13.65 Q35.65 15.3 34.65 16.6 L34.3 17.25 Q33.35 18.75 33.35 19.7 33.35 20.7 35.45 23.15 L35.65 23.15 35.65 23.0 Q38.25 23.8 37.75 25.15 L36.95 26.1 36.3 27.6 Q35.95 31.35 40.25 31.7 41.55 31.85 43.0 30.4 M41.05 17.4 Q39.25 17.6 37.6 19.4 L36.8 20.85 35.65 23.0 M41.2 20.05 L41.4 19.4 41.05 17.4 40.55 15.15 M37.75 25.15 L38.75 24.0 Q40.7 21.7 41.2 20.05" fill="none" stroke="#000000" stroke-linecap="round" stroke-linejoin="round" stroke-opacity="0.3019608" stroke-width="0.05"/>
      <path d="M17.55 17.55 Q19.45 14.95 21.2 16.1 20.3 15.25 20.0 12.9 L20.0 12.6 Q19.15 12.75 18.25 14.95 L17.55 17.55 M19.45 9.7 L19.45 9.85 19.75 10.3 19.45 9.7" fill="#bf5757" fill-rule="evenodd" stroke="none"/>
      <path d="M23.8 15.8 L24.25 15.55 25.7 14.2 25.7 14.05 25.7 13.95 Q25.55 11.75 23.25 6.5 22.2 4.15 20.45 5.2 L19.75 5.75 Q20.75 6.2 21.05 9.85 21.75 15.25 23.8 15.8" fill="#e0a600" fill-rule="evenodd" stroke="none"/>
      <path d="M19.75 5.75 L19.15 6.35 Q18.4 7.1 18.0 7.95 L16.65 11.45 Q16.1 13.35 15.5 18.45 15.8 18.0 17.55 17.55 L18.25 14.95 19.45 9.85 19.45 9.7 19.45 9.55 19.75 10.3 20.0 12.6 20.0 12.9 Q20.3 15.25 21.2 16.1 L21.35 16.4 21.75 16.4 Q22.35 16.55 23.8 15.8 21.75 15.25 21.05 9.85 20.75 6.2 19.75 5.75" fill="#b38400" fill-rule="evenodd" stroke="none"/>
      <path d="M19.45 9.85 L18.25 14.95 Q19.15 12.75 20.0 12.6 L19.75 10.3 19.45 9.85" fill="#944343" fill-rule="evenodd" stroke="none"/>
      <path d="M23.8 15.8 L24.25 15.55 25.7 14.2 25.7 14.05 25.7 13.95 Q25.55 11.75 23.25 6.5 22.2 4.15 20.45 5.2 L19.75 5.75 19.15 6.35 Q18.4 7.1 18.0 7.95 L16.65 11.45 Q16.1 13.35 15.5 18.45 15.8 18.0 17.55 17.55 19.45 14.95 21.2 16.1 L21.35 16.4 21.75 16.4 Q22.35 16.55 23.8 15.8 M19.45 9.55 L19.45 9.7 19.45 9.85 18.25 14.95 17.55 17.55 M19.45 9.7 L19.75 10.3 19.45 9.85 M21.2 16.1 Q20.3 15.25 20.0 12.9 L20.0 12.6 19.75 10.3" fill="none" stroke="#000000" stroke-linecap="round" stroke-linejoin="round" stroke-opacity="0.3019608" stroke-width="0.05"/>
      <path d="M18.05 28.75 L16.9 27.0 Q16.4 26.35 16.6 25.95 16.8 25.5 17.5 25.5 L19.25 26.0 20.55 27.05 Q21.1 27.65 20.95 28.1 20.75 28.5 19.95 28.5 L18.05 28.75" fill="#000000" fill-rule="evenodd" stroke="none"/>
      <path d="M19.15 26.9 L18.4 27.0 17.55 26.7 Q17.15 26.45 17.1 26.2 17.05 25.95 17.35 25.75 L18.1 25.65 18.95 25.95 19.4 26.45 19.15 26.9" fill="#fefefe" fill-rule="evenodd" stroke="none"/>
      <path d="M23.35 32.75 Q27.3 29.5 33.0 29.1" fill="none" stroke="#000000" stroke-linecap="round" stroke-linejoin="round" stroke-opacity="0.6117647" stroke-width="0.05"/>
      <path d="M13.95 28.4 L13.35 22.4" fill="none" stroke="#000000" stroke-linecap="round" stroke-linejoin="round" stroke-opacity="0.15294118" stroke-width="3.0"/>
      <path d="M13.95 28.4 L13.35 22.4" fill="none" stroke="#000000" stroke-linecap="round" stroke-linejoin="round" stroke-opacity="0.6117647" stroke-width="0.05"/>
      <path d="M18.15 28.5 Q17.25 32.15 19.6 33.6" fill="none" stroke="#bf5757" stroke-linecap="round" stroke-linejoin="round" stroke-opacity="0.83137256" stroke-width="0.05"/>
      <path d="M18.15 28.65 Q16.65 32.85 14.75 31.25" fill="none" stroke="#bf5757" stroke-linecap="round" stroke-linejoin="round" stroke-opacity="0.83137256" stroke-width="0.05"/>
      <path d="M27.55 36.35 Q28.45 37.25 29.6 37.25 30.75 37.25 31.65 36.35 32.5 35.5 32.5 34.2 32.5 33.0 31.65 32.15 30.75 31.25 29.6 31.25 28.45 31.25 27.55 32.15 26.7 33.0 26.7 34.2 26.7 35.5 27.55 36.35" fill="#ff9999" fill-rule="evenodd" stroke="none"/>
      <path d="M23.35 33.05 Q27.3 29.8 33.0 29.4" fill="none" stroke="#000000" stroke-linecap="round" stroke-linejoin="round" stroke-opacity="0.15294118" stroke-width="3.0"/>
      <path d="M10.0 28.6 Q10.05 29.5 10.5 29.65 10.95 29.8 11.55 29.15 12.15 28.6 12.55 27.5 12.9 26.55 12.8 25.65 12.7 24.85 12.25 24.7 11.8 24.55 11.25 25.1 10.65 25.75 10.3 26.7 9.9 27.8 10.0 28.6" fill="#ff9999" fill-rule="evenodd" stroke="none"/>
      <path d="M19.6 32.3 Q20.9 33.0 22.65 35.5 26.15 40.15 28.05 48.2" fill="none" stroke="#000000" stroke-linecap="round" stroke-linejoin="round" stroke-opacity="0.4509804" stroke-width="0.05"/>
      <path d="M19.3 31.15 Q21.5 31.55 24.4 33.3 28.9 36.1 31.95 40.6" fill="none" stroke="#000000" stroke-linecap="round" stroke-linejoin="round" stroke-opacity="0.4509804" stroke-width="0.05"/>
      <path d="M16.25 29.8 Q9.25 26.45 5.0 28.8" fill="none" stroke="#000000" stroke-linecap="round" stroke-linejoin="round" stroke-opacity="0.4509804" stroke-width="0.05"/>
      <path d="M15.8 31.15 L11.55 30.85 Q6.6 31.25 2.7 34.75" fill="none" stroke="#000000" stroke-linecap="round" stroke-linejoin="round" stroke-opacity="0.4509804" stroke-width="0.05"/>
    </g>
  </defs>
</svg>
