<?xml version="1.0" encoding="UTF-8" standalone="no"?>
<svg xmlns:xlink="http://www.w3.org/1999/xlink" height="520.0px" width="520.0px" xmlns="http://www.w3.org/2000/svg">
  <g transform="matrix(10.0, 0.0, 0.0, 10.0, 0.0, 0.0)">
    <use height="52.0" transform="matrix(1.0, 0.0, 0.0, 1.0, 0.0, 0.0)" width="52.0" xlink:href="#sprite0"/>
  </g>
  <defs>
    <g id="sprite0" transform="matrix(1.0, 0.0, 0.0, 1.0, 0.0, 0.0)">
      <use height="52.0" transform="matrix(1.0, 0.0, 0.0, 1.0, 0.0, 0.0)" width="52.0" xlink:href="#sprite1"/>
      <use height="50.0" transform="matrix(1.0, 0.0, 0.0, 1.0, 16.55, 1.0)" width="33.6" xlink:href="#shape1"/>
      <use height="5.85" transform="matrix(1.0, 0.0, 0.0, 1.0, 21.7, 41.6)" width="4.55" xlink:href="#sprite2"/>
      <use height="25.75" transform="matrix(1.0, 0.0, 0.0, 1.0, 1.85, 19.05)" width="23.55" xlink:href="#shape3"/>
      <use height="40.95" transform="matrix(-0.1839, -0.4854, 0.4263, -0.0809, 25.5, 35.55)" width="40.95" xlink:href="#sprite3"/>
      <use height="51.0" transform="matrix(1.0, 0.0, 0.0, 1.0, 1.55, 0.5)" width="49.1" xlink:href="#shape5"/>
    </g>
    <g id="sprite1" transform="matrix(1.0, 0.0, 0.0, 1.0, 0.0, 0.0)">
      <use height="52.0" transform="matrix(1.0, 0.0, 0.0, 1.0, 0.0, 0.0)" width="52.0" xlink:href="#shape0"/>
    </g>
    <g id="shape0" transform="matrix(1.0, 0.0, 0.0, 1.0, 0.0, 0.0)">
      <path d="M52.0 0.0 L52.0 52.0 0.0 52.0 0.0 0.0 52.0 0.0" fill="#ffba2e" fill-opacity="0.0" fill-rule="evenodd" stroke="none"/>
    </g>
    <g id="shape1" transform="matrix(1.0, 0.0, 0.0, 1.0, -16.55, -1.0)">
      <path d="M38.35 15.8 Q39.85 9.4 39.75 2.0 L39.75 1.0 40.0 1.2 40.1 1.3 40.55 2.0 Q42.3 4.9 44.3 11.1 L44.6 7.85 Q47.25 15.15 47.45 19.4 L43.9 18.05 43.9 19.85 41.75 19.85 Q39.9 15.9 38.35 15.8" fill="#b9ae9a" fill-rule="evenodd" stroke="none"/>
      <path d="M38.35 15.8 Q39.9 15.9 41.75 19.85 L43.9 19.85 43.9 18.05 47.45 19.4 Q47.25 15.15 44.6 7.85 L44.3 11.1 Q42.3 4.9 40.55 2.0 L40.1 1.3 40.9 2.0 Q50.15 10.45 50.15 21.1 L47.85 25.05 45.15 25.05 46.85 22.75 41.9 25.05 Q40.8 19.05 37.5 16.65 L38.35 15.8" fill="#a09176" fill-rule="evenodd" stroke="none"/>
      <path d="M50.15 21.1 Q50.15 23.85 49.5 26.75 L38.2 28.15 Q32.4 25.4 34.1 18.35 L37.5 16.65 Q40.8 19.05 41.9 25.05 L46.85 22.75 45.15 25.05 47.85 25.05 50.15 21.1" fill="#534631" fill-rule="evenodd" stroke="none"/>
      <path d="M40.1 1.3 L40.0 1.2 39.75 1.0 39.75 2.0 Q39.85 9.4 38.35 15.8 M40.1 1.3 L40.9 2.0 Q50.15 10.45 50.15 21.1 50.15 23.85 49.5 26.75 L38.2 28.15 Q32.4 25.4 34.1 18.35 L37.5 16.65 38.35 15.8" fill="none" stroke="#000000" stroke-linecap="round" stroke-linejoin="round" stroke-opacity="0.3019608" stroke-width="0.05"/>
      <path d="M48.15 21.5 Q47.95 21.75 47.85 21.25 47.75 20.8 47.8 19.85 L47.9 18.65 49.0 19.75 Q48.45 14.0 46.6 9.2 50.55 18.65 49.45 19.95 L48.15 21.5" fill="#8e7e66" fill-rule="evenodd" stroke="none"/>
      <path d="M41.35 8.85 L40.55 6.6 Q40.3 5.35 40.35 4.65 40.45 3.95 40.8 4.25 L41.6 5.5 Q42.05 6.45 42.3 7.75 L42.5 9.55 Q42.5 10.35 42.05 10.1 L41.35 8.85" fill="#ffffff" fill-rule="evenodd" stroke="none"/>
      <path d="M43.1 9.15 L43.45 9.75 43.8 10.85 43.95 11.75 Q43.9 12.1 43.7 11.9 L43.35 11.35 42.95 10.3 42.9 9.4 43.1 9.15" fill="#ffffff" fill-rule="evenodd" stroke="none"/>
      <path d="M44.7 14.65 Q44.55 15.95 43.8 15.2 43.1 14.6 42.05 12.4 41.0 10.2 40.35 7.75 39.75 5.35 39.75 4.0 39.85 2.8 40.6 3.35 41.35 4.05 42.4 6.3 43.45 8.4 44.1 10.95 44.75 13.4 44.7 14.65" fill="#ffffee" fill-opacity="0.3019608" fill-rule="evenodd" stroke="none"/>
      <path d="M43.75 35.05 L44.05 35.15 44.15 35.3 44.3 35.45 44.2 35.45 Q43.95 35.5 43.75 35.7 L43.55 35.9 43.35 36.2 43.05 36.65 43.5 38.45 43.9 41.9 43.9 42.35 Q43.65 39.6 42.7 36.8 L41.65 35.95 41.15 35.7 42.4 36.15 43.15 36.0 43.55 35.75 43.85 35.5 Q44.05 35.25 43.75 35.1 L43.75 35.05" fill="#b9ae9a" fill-rule="evenodd" stroke="none"/>
      <path d="M44.05 45.05 Q38.1 40.7 35.35 37.85 32.65 35.15 29.45 28.4 L36.2 26.6 37.55 31.0 36.55 31.0 36.15 31.0 Q36.2 32.55 36.7 33.4 39.15 35.0 41.65 35.95 L42.7 36.8 Q43.65 39.6 43.9 42.35 L43.9 41.9 44.05 45.05" fill="#544732" fill-rule="evenodd" stroke="none"/>
      <path d="M37.55 31.0 L37.6 31.35 37.95 32.25 36.7 33.4 Q36.2 32.55 36.15 31.0 L36.55 31.0 37.55 31.0 M44.3 35.45 L44.7 36.95 Q45.2 39.35 45.35 43.9 L44.05 45.05 43.9 41.9 43.5 38.45 43.05 36.65 43.35 36.2 43.55 35.9 43.75 35.7 Q43.95 35.5 44.2 35.45 L44.3 35.45" fill="#80715c" fill-rule="evenodd" stroke="none"/>
      <path d="M37.95 32.25 Q40.8 34.1 43.7 35.05 L43.75 35.1 Q44.05 35.25 43.85 35.5 L43.55 35.75 43.15 36.0 42.4 36.15 41.15 35.7 41.65 35.95 Q39.15 35.0 36.7 33.4 L37.95 32.25" fill="#9c8a70" fill-rule="evenodd" stroke="none"/>
      <path d="M43.7 35.05 L43.75 35.05 43.75 35.1 43.7 35.05" fill="#d9d2c5" fill-rule="evenodd" stroke="none"/>
      <path d="M16.6 25.85 L16.55 25.65 16.55 25.45 Q16.6 23.9 18.0 22.6 L18.05 22.6 20.1 21.25 22.5 20.35 23.8 20.0 25.4 19.7 28.7 19.5 Q33.0 19.5 36.2 20.8 L37.3 21.25 Q38.55 21.9 39.35 22.65 L39.45 22.65 40.6 24.15 40.75 24.7 40.8 24.85 Q40.65 26.2 39.65 27.55 38.75 28.75 37.3 29.8 L36.45 30.2 36.2 30.3 33.15 31.2 30.7 31.5 30.35 31.55 30.2 31.55 27.25 31.4 23.75 30.95 21.7 30.45 20.5 30.0 20.0 29.8 20.1 29.8 18.05 28.45 18.0 28.45 Q16.7 27.3 16.6 25.85 M23.9 37.1 Q26.15 39.6 28.7 41.3 L28.65 41.3 28.7 41.35 Q29.1 41.65 28.4 41.95 L27.15 42.0 26.05 41.3 25.75 41.05 24.2 39.75 24.0 39.5 22.4 37.85 23.9 37.1 M20.35 29.85 L20.35 29.8 20.3 29.8 20.35 29.85" fill="#b9ae9a" fill-rule="evenodd" stroke="none"/>
      <path d="M30.2 31.55 L30.35 31.55 30.7 31.5 33.15 31.2 36.2 30.3 36.45 30.2 37.3 29.8 39.35 28.45 39.45 28.45 Q40.5 27.45 40.8 26.3 L40.85 26.1 40.85 29.7 40.85 29.95 40.85 30.2 40.85 30.75 40.1 32.35 Q39.2 33.5 37.3 34.5 L36.2 35.0 34.6 35.55 33.15 35.9 28.7 36.25 26.95 36.2 Q25.75 34.3 25.4 31.6 L30.2 31.55 M23.8 35.75 L23.8 36.15 23.9 37.1 22.4 37.85 Q22.15 36.9 22.5 35.4 L22.9 35.55 23.8 35.75 M29.2 41.85 L29.2 43.35 Q29.0 45.8 28.0 50.25 L26.45 51.0 26.85 49.2 27.05 48.4 Q27.8 44.5 27.65 42.65 27.8 42.5 28.05 42.3 L28.35 42.1 28.6 41.95 29.05 41.85 29.2 41.85" fill="#8e7e66" fill-rule="evenodd" stroke="none"/>
      <path d="M16.6 25.85 Q16.7 27.3 18.0 28.45 L18.05 28.45 20.1 29.8 20.0 29.8 20.5 30.0 20.6 30.1 22.65 30.95 24.15 31.4 25.4 31.6 Q25.75 34.3 26.95 36.2 L23.8 35.75 22.9 35.55 22.5 35.4 Q22.15 36.9 22.4 37.85 L24.0 39.5 24.2 39.75 25.75 41.05 26.05 41.3 Q27.0 42.05 27.3 42.75 27.5 45.7 27.05 48.4 L26.85 49.2 26.45 51.0 Q21.85 45.3 19.9 41.85 18.05 38.55 16.7 31.2 L16.65 31.0 16.65 30.95 16.55 30.25 16.55 25.85 16.6 25.85" fill="#716044" fill-rule="evenodd" stroke="none"/>
      <path d="M20.5 30.0 L21.7 30.45 23.75 30.95 27.25 31.4 30.2 31.55 25.4 31.6 24.15 31.4 22.65 30.95 20.6 30.1 20.5 30.0 M37.3 29.8 Q38.75 28.75 39.65 27.55 40.65 26.2 40.8 24.85 L40.85 25.0 40.85 25.05 40.85 25.35 40.85 25.75 40.85 26.05 40.85 26.1 40.8 26.3 Q40.5 27.45 39.45 28.45 L39.35 28.45 37.3 29.8 M28.7 41.35 L28.75 41.35 29.2 41.85 29.05 41.85 28.6 41.95 28.35 42.1 28.05 42.3 Q27.8 42.5 27.65 42.65 27.8 44.5 27.05 48.4 27.5 45.7 27.3 42.75 27.0 42.05 26.05 41.3 L27.15 42.0 28.4 41.95 Q29.1 41.65 28.7 41.35 M20.35 29.85 L20.3 29.8 20.35 29.8 20.35 29.85" fill="#d9d2c5" fill-rule="evenodd" stroke="none"/>
      <path d="M39.25 32.25 Q39.9 31.85 40.45 31.95 L40.45 31.7 40.2 31.3 Q40.1 31.9 39.0 31.75 L39.2 32.1 39.25 32.25" fill="#b9ae9a" fill-rule="evenodd" stroke="none"/>
      <path d="M38.95 33.25 L40.15 32.85 40.45 32.3 40.45 31.95 Q39.9 31.85 39.25 32.25 L39.2 32.7 38.95 33.25" fill="#8e7e66" fill-rule="evenodd" stroke="none"/>
      <path d="M40.2 31.3 Q39.7 30.75 38.9 30.3 38.35 30.35 37.7 30.7 38.55 31.15 39.0 31.75 40.1 31.9 40.2 31.3" fill="#a09176" fill-rule="evenodd" stroke="none"/>
      <path d="M38.95 33.25 L39.2 32.7 39.25 32.25 39.2 32.1 39.0 31.75 Q38.55 31.15 37.7 30.7 37.2 31.55 37.3 32.65 L38.1 33.05 38.2 33.05 38.95 33.2 38.95 33.25 M38.35 32.25 L37.95 32.65 Q37.7 32.4 37.7 31.95 37.9 31.45 38.2 31.35 L39.0 32.45 38.2 33.05 39.0 32.45 38.2 31.35 Q37.9 31.45 37.7 31.95 37.7 32.4 37.95 32.65 L38.35 32.25" fill="#716044" fill-rule="evenodd" stroke="none"/>
      <path d="M40.45 31.95 L40.45 32.3 40.15 32.85 38.95 33.25 39.2 32.7 39.25 32.25 39.2 32.1 39.0 31.75 Q38.55 31.15 37.7 30.7 37.2 31.55 37.3 32.65 L38.1 33.05 38.2 33.05 38.95 33.2 38.95 33.25 M40.45 31.95 L40.45 31.7 40.2 31.3 Q39.7 30.75 38.9 30.3 38.35 30.35 37.7 30.7 M38.2 33.05 L39.0 32.45 38.2 31.35 Q37.9 31.45 37.7 31.95 37.7 32.4 37.95 32.65 L38.35 32.25" fill="none" stroke="#000000" stroke-linecap="round" stroke-linejoin="round" stroke-opacity="0.32156864" stroke-width="0.05"/>
      <path d="M34.05 33.85 L34.1 33.85 34.05 33.85" fill="#b0a180" fill-rule="evenodd" stroke="none"/>
      <path d="M30.9 38.35 L31.2 38.9 31.9 39.8 32.3 40.1 34.1 40.7 Q36.65 40.25 38.9 39.2 L39.15 39.05 Q40.3 38.25 40.55 37.15 L40.55 36.95 Q40.35 34.45 39.4 32.5 L39.35 32.3 39.3 32.25 38.95 31.85 Q38.9 32.3 37.55 32.15 36.3 31.55 36.6 31.3 36.3 31.55 36.35 31.95 L36.35 32.0 Q36.75 31.75 37.5 32.4 37.9 32.7 38.05 33.35 L38.2 34.45 Q37.5 36.0 36.65 34.05 36.8 34.85 36.5 35.25 37.3 34.9 38.2 36.65 38.55 36.1 38.55 35.15 L38.35 33.4 Q38.3 32.9 38.65 32.5 L38.9 32.4 39.45 32.95 Q40.15 34.75 40.25 37.2 40.2 38.0 39.35 38.55 37.5 39.8 34.5 40.25 L34.35 40.2 Q33.35 40.05 32.95 38.75 33.1 36.25 33.55 34.4 34.25 33.45 34.8 34.3 L34.8 34.2 Q34.85 33.75 34.5 33.35 34.25 33.75 33.25 33.55 L33.1 33.55 33.1 33.5 33.05 33.45 33.0 33.45 33.0 33.4 32.45 33.05 32.15 32.95 32.2 32.7 31.9 32.9 31.55 33.7 31.7 33.4 32.35 33.25 Q32.9 33.6 33.05 34.35 33.2 36.0 32.6 38.6 L32.55 38.75 32.45 39.15 32.35 39.25 Q31.6 39.25 30.9 38.35 M34.5 33.35 L34.55 33.35 34.5 33.35 M34.05 33.85 L34.1 33.85 34.05 33.85" fill="#b9ae9a" fill-rule="evenodd" stroke="none"/>
      <path d="M34.65 35.75 L34.8 34.3 Q34.25 33.45 33.55 34.4 33.1 36.25 32.95 38.75 33.35 40.05 34.35 40.2 L34.5 40.25 Q37.5 39.8 39.35 38.55 40.2 38.0 40.25 37.2 40.15 34.75 39.45 32.95 L38.9 32.4 38.65 32.5 Q38.3 32.9 38.35 33.4 L38.55 35.15 Q38.55 36.1 38.2 36.65 36.6 37.65 35.5 37.55 34.7 37.2 34.65 35.75" fill="#8e7e66" fill-rule="evenodd" stroke="none"/>
      <path d="M38.95 31.85 Q38.1 31.0 37.45 31.0 37.05 31.0 36.6 31.3 36.3 31.55 37.55 32.15 38.9 32.3 38.95 31.85 M36.5 35.25 Q35.75 35.7 34.65 35.75 34.7 37.2 35.5 37.55 36.6 37.65 38.2 36.65 37.3 34.9 36.5 35.25 M34.5 33.35 Q33.7 32.35 33.05 32.5 32.65 32.45 32.2 32.7 L32.15 32.95 32.45 33.05 33.0 33.4 33.0 33.45 33.05 33.45 33.1 33.5 33.1 33.55 33.25 33.55 Q34.25 33.75 34.5 33.35" fill="#a09176" fill-rule="evenodd" stroke="none"/>
      <path d="M36.35 32.0 L36.65 34.05 Q37.5 36.0 38.2 34.45 L38.05 33.35 Q37.9 32.7 37.5 32.4 36.75 31.75 36.35 32.0 M31.55 33.7 L31.5 33.9 Q31.0 35.55 30.9 37.35 L30.9 38.35 Q31.6 39.25 32.35 39.25 L32.45 39.15 32.55 38.75 32.6 38.6 Q33.2 36.0 33.05 34.35 32.9 33.6 32.35 33.25 L31.7 33.4 31.55 33.7" fill="#716044" fill-rule="evenodd" stroke="none"/>
      <path d="M30.9 38.35 L31.2 38.9 31.9 39.8 32.3 40.1 34.1 40.7 Q36.65 40.25 38.9 39.2 L39.15 39.05 Q40.3 38.25 40.55 37.15 L40.55 36.95 Q40.35 34.45 39.4 32.5 L39.35 32.3 39.3 32.25 38.95 31.85 Q38.1 31.0 37.45 31.0 37.05 31.0 36.6 31.3 36.3 31.55 36.35 31.95 L36.35 32.0 36.65 34.05 Q36.8 34.85 36.5 35.25 35.75 35.7 34.65 35.75 L34.8 34.3 34.8 34.2 Q34.85 33.75 34.5 33.35 33.7 32.35 33.05 32.5 32.65 32.45 32.2 32.7 L31.9 32.9 31.55 33.7 31.5 33.9 Q31.0 35.55 30.9 37.35 L30.9 38.35 Q31.6 39.25 32.35 39.25 M34.5 33.35 L34.55 33.35 34.5 33.35" fill="none" stroke="#000000" stroke-linecap="round" stroke-linejoin="round" stroke-opacity="0.32156864" stroke-width="0.05"/>
      <path d="M32.15 34.5 Q32.9 34.1 33.45 34.2 L33.35 33.95 33.1 33.55 Q33.1 34.15 31.95 34.0 L32.15 34.35 32.15 34.5" fill="#b9ae9a" fill-rule="evenodd" stroke="none"/>
      <path d="M31.85 35.45 Q32.7 35.45 33.1 35.1 L33.4 34.55 33.45 34.2 Q32.9 34.1 32.15 34.5 L32.15 34.95 31.85 35.45" fill="#8e7e66" fill-rule="evenodd" stroke="none"/>
      <path d="M33.1 33.55 L31.9 32.55 Q31.25 32.55 30.65 32.95 31.5 33.35 31.95 34.0 33.1 34.15 33.1 33.55" fill="#a09176" fill-rule="evenodd" stroke="none"/>
      <path d="M31.85 35.45 L32.15 34.95 32.15 34.5 32.15 34.35 31.95 34.0 Q31.5 33.35 30.65 32.95 30.15 33.85 30.2 34.85 L31.05 35.3 31.15 35.3 31.85 35.45 M31.35 34.45 L30.9 34.9 30.65 34.2 Q30.85 33.7 31.15 33.6 31.75 33.95 31.95 34.7 L31.15 35.3 31.95 34.7 Q31.75 33.95 31.15 33.6 30.85 33.7 30.65 34.2 L30.9 34.9 31.35 34.45" fill="#716044" fill-rule="evenodd" stroke="none"/>
      <path d="M33.45 34.2 L33.4 34.55 33.1 35.1 Q32.7 35.45 31.85 35.45 L32.15 34.95 32.15 34.5 32.15 34.35 31.95 34.0 Q31.5 33.35 30.65 32.95 30.15 33.85 30.2 34.85 L31.05 35.3 31.15 35.3 31.85 35.45 M33.45 34.2 L33.35 33.95 33.1 33.55 31.9 32.55 Q31.25 32.55 30.65 32.95 M31.15 35.3 L31.95 34.7 Q31.75 33.95 31.15 33.6 30.85 33.7 30.65 34.2 L30.9 34.9 31.35 34.45" fill="none" stroke="#000000" stroke-linecap="round" stroke-linejoin="round" stroke-opacity="0.3019608" stroke-width="0.05"/>
      <path d="M36.25 16.8 L36.5 17.05 37.45 18.2 37.6 18.45 Q38.95 20.35 39.45 22.6 L39.45 22.65 39.45 22.6 39.05 23.35 38.25 24.25 35.3 26.2 Q33.45 27.05 31.35 27.5 L25.85 27.9 25.2 27.9 24.05 27.9 22.65 27.7 22.6 27.7 20.85 27.15 Q18.2 26.05 17.75 24.35 L17.85 23.25 18.0 22.6 18.3 21.55 Q19.1 19.05 20.95 17.05 L21.0 17.05 21.6 16.4 21.6 16.6 21.65 17.05 21.95 18.0 22.7 18.9 23.2 19.3 Q25.7 21.25 30.45 21.25 L31.25 21.2 33.9 20.6 34.4 20.45 Q36.3 19.6 36.55 18.35 L36.6 17.95 36.35 17.05 36.25 16.8 M35.8 23.6 L33.15 24.15 30.3 24.35 24.3 23.65 30.3 24.35 33.15 24.15 35.8 23.6 M26.3 27.2 L24.4 27.25 24.25 27.2 21.15 26.45 Q18.6 25.4 17.85 23.25 18.6 25.4 21.15 26.45 L24.25 27.2 24.4 27.25 26.3 27.2 M37.45 18.2 Q36.9 20.1 34.8 21.25 32.75 22.35 29.95 22.35 L27.2 22.05 Q25.7 21.75 24.9 21.35 25.7 21.75 27.2 22.05 L29.95 22.35 Q32.75 22.35 34.8 21.25 36.9 20.1 37.45 18.2 M31.2 25.45 L28.95 25.9 27.55 25.95 23.95 25.65 23.05 25.45 22.75 25.35 20.45 24.5 22.75 25.35 23.05 25.45 23.95 25.65 27.55 25.95 28.95 25.9 31.2 25.45 M33.2 23.5 Q35.45 23.2 36.65 22.5 38.05 21.7 38.25 20.15 38.05 21.7 36.65 22.5 35.45 23.2 33.2 23.5 M38.85 21.2 Q38.4 23.35 35.85 24.85 33.7 26.1 30.6 26.75 33.7 26.1 35.85 24.85 38.4 23.35 38.85 21.2 M21.85 21.7 L21.75 21.2 21.5 21.1 21.4 21.1 21.0 21.2 20.7 21.5 Q20.7 21.95 21.15 22.4 L21.7 22.75 22.1 22.85 22.5 22.9 23.25 22.7 Q23.65 22.45 23.65 22.0 23.65 21.0 22.6 20.3 L22.25 20.1 21.5 19.8 20.75 19.65 Q20.0 19.65 19.7 19.95 19.35 20.25 19.35 20.9 19.35 22.85 22.0 23.85 L22.45 24.0 22.55 24.0 28.4 24.9 22.55 24.0 22.45 24.0 22.0 23.85 Q19.35 22.85 19.35 20.9 19.35 20.25 19.7 19.95 20.0 19.65 20.75 19.65 L21.5 19.8 22.25 20.1 22.6 20.3 Q23.65 21.0 23.65 22.0 23.65 22.45 23.25 22.7 L22.5 22.9 22.1 22.85 21.7 22.75 21.15 22.4 Q20.7 21.95 20.7 21.5 L21.0 21.2 21.4 21.1 21.5 21.1 21.75 21.2 21.85 21.7 M22.65 27.7 L22.6 27.7 22.65 27.7 M22.6 27.7 L22.5 27.65 22.6 27.7" fill="#7c2f05" fill-rule="evenodd" stroke="none"/>
      <path d="M39.45 22.65 L39.75 25.4 39.75 25.65 39.7 26.05 39.05 27.45 38.95 27.65 Q38.1 28.6 36.5 29.4 L35.5 29.85 35.45 29.85 Q33.35 30.7 30.8 30.95 L28.7 31.0 25.4 30.75 24.3 30.55 23.05 30.25 Q21.9 29.9 20.95 29.4 19.3 28.6 18.55 27.65 17.95 26.95 17.8 26.25 L17.7 25.8 17.7 25.55 17.7 25.4 17.75 24.35 Q18.2 26.05 20.85 27.15 L22.6 27.7 22.65 27.7 23.4 27.95 25.3 28.3 25.85 28.35 28.25 28.4 Q32.35 28.4 35.95 26.3 38.95 24.55 39.05 23.35 L39.45 22.6 39.45 22.65 M31.25 21.2 L30.45 21.25 Q25.7 21.25 23.2 19.3 L22.7 18.9 21.95 18.0 21.65 17.05 21.65 16.8 21.65 16.55 21.75 16.55 Q21.65 17.0 22.1 17.55 L22.9 18.4 23.8 19.1 Q26.0 20.7 31.25 21.2 M39.5 25.8 L38.7 26.7 37.8 27.45 35.8 28.6 Q33.55 29.6 31.35 30.15 L30.6 30.3 31.35 30.15 Q33.55 29.6 35.8 28.6 L37.8 27.45 38.7 26.7 39.5 25.8 M34.7 28.25 L31.25 29.55 29.45 29.85 28.55 29.95 28.05 29.95 25.45 29.7 21.25 28.5 25.45 29.7 28.05 29.95 28.55 29.95 29.45 29.85 31.25 29.55 34.7 28.25 M38.55 25.45 Q35.0 27.8 33.3 28.45 31.25 29.2 28.1 29.2 L27.35 29.2 26.7 29.2 26.6 29.2 25.2 29.0 26.6 29.2 26.7 29.2 27.35 29.2 28.1 29.2 Q31.25 29.2 33.3 28.45 35.0 27.8 38.55 25.45" fill="#662604" fill-rule="evenodd" stroke="none"/>
      <path d="M26.9 13.85 L27.3 13.75 28.7 13.65 Q30.9 13.65 32.8 14.45 L33.25 14.65 Q34.55 15.3 35.75 16.35 L36.25 16.8 36.35 17.05 36.6 17.95 36.55 18.35 Q36.3 19.6 34.4 20.45 L33.9 20.6 31.25 21.2 Q26.0 20.7 23.8 19.1 L22.9 18.4 22.1 17.55 Q21.65 17.0 21.75 16.55 L21.65 16.55 21.65 16.8 21.65 17.05 21.6 16.6 21.6 16.4 Q22.65 15.45 23.85 14.85 L23.8 15.0 23.7 15.3 23.65 15.6 Q23.65 16.15 24.05 16.7 24.7 17.6 26.55 18.4 24.7 17.6 24.05 16.7 23.65 16.15 23.65 15.6 L23.7 15.3 23.8 15.0 23.85 14.85 24.0 14.75 24.65 14.45 25.4 14.2 26.9 13.85 Q26.55 13.9 26.5 14.25 L26.45 14.5 Q26.45 15.4 27.45 15.85 L29.9 16.3 31.45 16.0 Q32.45 15.6 32.45 15.25 32.65 14.75 31.2 14.4 32.65 14.75 32.45 15.25 32.45 15.6 31.45 16.0 L29.9 16.3 27.45 15.85 Q26.45 15.4 26.45 14.5 L26.5 14.25 Q26.55 13.9 26.9 13.85 M33.65 17.6 Q34.15 16.9 34.05 16.35 34.05 15.35 33.25 14.65 34.05 15.35 34.05 16.35 34.15 16.9 33.65 17.6 M34.25 15.5 L35.3 16.4 35.4 16.95 Q35.4 17.9 33.95 18.6 32.65 19.2 31.15 19.2 L29.85 19.15 31.15 19.2 Q32.65 19.2 33.95 18.6 35.4 17.9 35.4 16.95 L35.3 16.4 34.25 15.5 M32.75 15.65 L33.4 16.65 Q33.4 17.15 32.65 17.6 31.9 18.05 30.95 18.05 L27.7 17.35 Q25.35 16.55 25.15 15.4 L25.1 15.15 25.2 14.65 25.4 14.2 25.2 14.65 25.1 15.15 25.15 15.4 Q25.35 16.55 27.7 17.35 L30.95 18.05 Q31.9 18.05 32.65 17.6 33.4 17.15 33.4 16.65 L32.75 15.65 M22.65 27.7 L24.05 27.9 25.2 27.9 25.85 27.9 31.35 27.5 Q33.45 27.05 35.3 26.2 L38.25 24.25 39.05 23.35 Q38.95 24.55 35.95 26.3 32.35 28.4 28.25 28.4 L25.85 28.35 25.3 28.3 23.4 27.95 22.65 27.7 M34.2 19.15 Q32.8 20.05 30.25 20.05 27.8 20.05 25.55 18.85 L23.5 17.45 22.7 16.55 22.6 16.4 22.6 15.8 22.6 16.4 22.7 16.55 23.5 17.45 25.55 18.85 Q27.8 20.05 30.25 20.05 32.8 20.05 34.2 19.15 M22.6 27.7 L22.5 27.65 22.6 27.7" fill="#963807" fill-rule="evenodd" stroke="none"/>
      <path d="M32.8 14.45 L33.25 14.65 Q34.05 15.35 34.05 16.35 34.15 16.9 33.65 17.6 M17.85 23.25 L17.75 22.85 M26.9 13.85 Q26.55 13.9 26.5 14.25 L26.45 14.5 Q26.45 15.4 27.45 15.85 L29.9 16.3 31.45 16.0 Q32.45 15.6 32.45 15.25 32.65 14.75 31.2 14.4 M25.4 14.2 L25.2 14.65 25.1 15.15 25.15 15.4 Q25.35 16.55 27.7 17.35 L30.95 18.05 Q31.9 18.05 32.65 17.6 33.4 17.15 33.4 16.65 L32.75 15.65 M29.85 19.15 L31.15 19.2 Q32.65 19.2 33.95 18.6 35.4 17.9 35.4 16.95 L35.3 16.4 34.25 15.5 M17.85 23.25 Q18.6 25.4 21.15 26.45 L24.25 27.2 24.4 27.25 26.3 27.2 M24.3 23.65 L30.3 24.35 33.15 24.15 35.8 23.6 M30.6 26.75 Q33.7 26.1 35.85 24.85 38.4 23.35 38.85 21.2 M38.25 20.15 Q38.05 21.7 36.65 22.5 35.45 23.2 33.2 23.5 M20.45 24.5 L22.75 25.35 23.05 25.45 23.95 25.65 27.55 25.95 28.95 25.9 31.2 25.45 M24.9 21.35 Q25.7 21.75 27.2 22.05 L29.95 22.35 Q32.75 22.35 34.8 21.25 36.9 20.1 37.45 18.2 M25.2 29.0 L26.6 29.2 26.7 29.2 27.35 29.2 28.1 29.2 Q31.25 29.2 33.3 28.45 35.0 27.8 38.55 25.45 M21.25 28.5 L25.45 29.7 28.05 29.95 28.55 29.95 29.45 29.85 31.25 29.55 34.7 28.25 M30.6 30.3 L31.35 30.15 Q33.55 29.6 35.8 28.6 L37.8 27.45 38.7 26.7 39.5 25.8 M22.6 15.8 L22.6 16.4 22.7 16.55 23.5 17.45 25.55 18.85 Q27.8 20.05 30.25 20.05 32.8 20.05 34.2 19.15 M23.85 14.85 L23.8 15.0 23.7 15.3 23.65 15.6 Q23.65 16.15 24.05 16.7 24.7 17.6 26.55 18.4 M23.85 14.85 L24.0 14.75 M28.4 24.9 L22.55 24.0 22.45 24.0 22.0 23.85 Q19.35 22.85 19.35 20.9 19.35 20.25 19.7 19.95 20.0 19.65 20.75 19.65 L21.5 19.8 22.25 20.1 22.6 20.3 Q23.65 21.0 23.65 22.0 23.65 22.45 23.25 22.7 L22.5 22.9 22.1 22.85 21.7 22.75 21.15 22.4 Q20.7 21.95 20.7 21.5 L21.0 21.2 21.4 21.1 21.5 21.1 21.75 21.2 21.85 21.7" fill="none" stroke="#000000" stroke-linecap="round" stroke-linejoin="round" stroke-opacity="0.101960786" stroke-width="0.25"/>
      <path d="M26.9 13.85 L27.3 13.75 28.7 13.65 Q30.9 13.65 32.8 14.45 M33.25 14.65 Q34.55 15.3 35.75 16.35 L36.25 16.8 36.5 17.05 37.45 18.2 37.6 18.45 Q38.95 20.35 39.45 22.6 L39.45 22.65 39.75 25.4 39.75 25.65 39.7 26.05 39.05 27.45 38.95 27.65 Q38.1 28.6 36.5 29.4 L35.5 29.85 35.45 29.85 Q33.35 30.7 30.8 30.95 L28.7 31.0 25.4 30.75 24.3 30.55 23.05 30.25 Q21.9 29.9 20.95 29.4 19.3 28.6 18.55 27.65 17.95 26.95 17.8 26.25 L17.7 25.8 17.7 25.55 17.7 25.4 17.75 24.35 17.85 23.25 M36.25 16.8 L36.35 17.05 36.6 17.95 36.55 18.35 Q36.3 19.6 34.4 20.45 L33.9 20.6 31.25 21.2 30.45 21.25 Q25.7 21.25 23.2 19.3 L22.7 18.9 21.95 18.0 21.65 17.05 M21.6 16.4 L21.0 17.05 20.95 17.05 Q19.1 19.05 18.3 21.55 L18.0 22.6 17.85 23.25 M22.65 27.7 L24.05 27.9 25.2 27.9 25.85 27.9 31.35 27.5 Q33.45 27.05 35.3 26.2 L38.25 24.25 39.05 23.35 39.45 22.6 39.45 22.65 M22.6 27.7 L20.85 27.15 Q18.2 26.05 17.75 24.35 M24.0 14.75 L24.65 14.45 25.4 14.2 26.9 13.85 M21.6 16.4 Q22.65 15.45 23.85 14.85 M22.6 27.7 L22.65 27.7" fill="none" stroke="#000000" stroke-linecap="round" stroke-linejoin="round" stroke-opacity="0.3019608" stroke-width="0.25"/>
      <path d="M22.2 27.45 L22.25 27.4 22.15 27.45 22.2 27.45 M30.25 23.35 Q29.35 21.45 28.3 19.9 27.3 18.55 26.1 17.45 25.8 17.2 24.9 16.9 L24.05 16.65 24.05 16.7 23.6 17.3 23.5 17.45 23.3 17.65 22.9 18.4 22.75 18.7 22.7 18.9 22.25 20.05 22.25 20.1 22.05 21.1 22.05 21.5 22.1 22.85 22.15 23.2 22.35 23.75 22.45 24.0 22.6 24.35 23.05 25.45 23.25 25.7 23.8 26.55 24.1 26.9 24.4 27.25 24.9 27.65 25.15 27.9 25.85 28.35 26.75 28.85 27.35 29.2 27.45 29.2 28.0 29.45 29.4 29.85 29.45 29.85 30.85 30.1 31.35 30.15 31.5 30.15 32.55 30.2 32.25 29.15 31.55 26.7 30.9 25.0 30.85 24.7 30.25 23.35 M26.6 14.0 L26.9 14.0 27.0 13.95 27.05 13.95 27.35 13.9 29.6 14.7 29.7 14.75 Q33.25 16.3 36.15 23.0 L36.3 23.25 Q36.85 25.3 35.85 30.0 L32.65 30.7 30.8 30.95 28.7 31.0 25.4 30.75 24.3 30.55 23.05 30.25 Q21.9 29.9 20.95 29.4 19.3 28.6 18.55 27.65 17.95 26.95 17.8 26.25 L17.7 25.8 17.7 25.55 17.7 25.4 17.75 24.35 17.85 23.25 18.0 22.6 18.3 21.55 Q19.1 19.05 20.95 17.05 L21.0 17.05 21.5 16.5 Q24.75 14.2 25.8 14.1 L26.9 13.85 Q26.7 13.85 26.6 14.0" fill="#000000" fill-opacity="0.3019608" fill-rule="evenodd" stroke="none"/>
      <path d="M28.95 13.55 Q29.9 13.8 31.1 14.35 L31.15 14.35 Q34.55 15.95 36.8 22.65 L36.9 22.9 Q37.35 25.5 37.3 28.55 L37.25 29.8 36.85 30.15 37.0 29.4 36.65 23.5 Q35.7 25.45 32.55 24.25 33.25 26.4 33.55 28.95 L33.9 31.0 33.25 31.1 Q32.35 26.05 31.5 23.1 L31.5 23.2 Q31.0 20.15 30.1 18.7 29.2 17.35 27.3 16.5 L27.45 16.65 27.1 16.45 Q26.15 16.05 25.0 15.8 L25.25 15.8 24.0 15.65 21.85 16.0 22.05 15.8 27.05 15.65 Q31.75 16.25 31.35 14.65 30.1 13.9 28.7 13.6 L28.6 13.6 28.95 13.55 M31.65 22.2 L31.65 22.25 31.65 22.2" fill="#b9ae9a" fill-rule="evenodd" stroke="none"/>
      <path d="M21.85 16.0 L24.0 15.65 25.25 15.8 25.0 15.8 Q26.15 16.05 27.1 16.45 L27.45 16.65 27.95 17.0 Q29.25 18.35 30.35 20.1 L30.5 20.45 31.5 23.1 Q32.35 26.05 33.25 31.1 L32.55 30.75 32.25 28.8 31.85 26.35 31.4 24.65 31.35 24.35 30.9 22.95 29.25 19.55 Q28.4 18.15 27.3 17.1 27.05 16.8 26.15 16.5 L23.55 16.1 Q21.75 16.05 20.9 17.05 L21.0 16.9 21.6 16.25 21.85 16.0" fill="#716044" fill-rule="evenodd" stroke="none"/>
      <path d="M28.6 13.6 L28.7 13.6 Q30.1 13.9 31.35 14.65 31.75 16.25 27.05 15.65 L22.05 15.8 Q23.05 14.95 24.6 14.35 26.05 13.75 28.45 13.6 L28.55 13.6 28.6 13.6" fill="#a09176" fill-rule="evenodd" stroke="none"/>
      <path d="M33.9 31.0 L33.55 28.95 Q33.25 26.4 32.55 24.25 35.7 25.45 36.65 23.5 L37.0 29.4 36.85 30.15 Q35.25 31.35 33.9 31.0" fill="#8e7e66" fill-rule="evenodd" stroke="none"/>
      <path d="M27.45 16.65 L27.3 16.5 Q29.2 17.35 30.1 18.7 31.0 20.15 31.5 23.2 L31.5 23.1 30.5 20.45 30.35 20.1 Q29.25 18.35 27.95 17.0 L27.45 16.65 M31.65 22.2 L31.65 22.25 31.65 22.2" fill="#d9d2c5" fill-rule="evenodd" stroke="none"/>
      <path d="M37.25 29.8 L37.3 28.55 Q37.35 25.5 36.9 22.9 L36.8 22.65 Q34.55 15.95 31.15 14.35 L31.1 14.35 Q29.9 13.8 28.95 13.55 M32.25 28.8 L31.85 26.35 31.4 24.65 31.35 24.35 30.9 22.95 29.25 19.55 Q28.4 18.15 27.3 17.1 27.05 16.8 26.15 16.5 L23.55 16.1 Q21.75 16.05 20.9 17.05 L21.0 16.9" fill="none" stroke="#000000" stroke-linecap="round" stroke-linejoin="round" stroke-opacity="0.32156864" stroke-width="0.05"/>
      <path d="M28.95 13.55 L28.6 13.6 28.55 13.6 28.45 13.6 Q26.05 13.75 24.6 14.35 23.05 14.95 22.05 15.8 L21.85 16.0 M21.0 16.9 L21.6 16.25 21.85 16.0" fill="none" stroke="#000000" stroke-linecap="round" stroke-linejoin="round" stroke-opacity="0.3019608" stroke-width="0.05"/>
      <path d="M30.0 15.0 Q30.05 15.85 29.15 16.0 L28.85 16.0 28.25 15.8 27.1 15.6 26.1 15.35 25.65 15.15 26.1 15.25 Q25.9 14.85 26.3 14.6 26.8 14.2 28.0 13.95 28.75 13.4 30.0 15.0" fill="#716044" fill-rule="evenodd" stroke="none"/>
      <path d="M26.45 10.95 L25.7 11.1 26.2 12.55 26.05 13.8 25.7 13.95 25.7 14.0 25.4 13.6 25.5 12.7 25.3 10.9 26.05 10.75 26.45 10.95" fill="#b9ae9a" fill-rule="evenodd" stroke="none"/>
      <path d="M25.35 13.95 L25.5 14.5 Q25.85 14.9 26.45 14.5 L26.95 13.85 27.15 12.95 Q27.35 12.1 27.5 12.1 27.65 12.0 28.0 12.25 L27.85 12.05 28.05 12.25 28.35 12.65 28.5 12.95 Q28.75 14.15 27.55 14.85 26.75 15.3 26.05 15.05 L25.25 14.4 25.3 14.25 25.35 13.95" fill="#8e7e66" fill-rule="evenodd" stroke="none"/>
      <path d="M25.4 13.6 L25.7 14.0 25.7 13.95 26.05 13.8 26.2 12.55 25.7 11.1 26.45 10.95 27.1 11.35 27.35 11.5 27.85 12.05 28.0 12.25 Q27.65 12.0 27.5 12.1 27.35 12.1 27.15 12.95 L26.95 13.85 26.45 14.5 Q25.85 14.9 25.5 14.5 L25.35 13.95 25.4 13.6" fill="#a09176" fill-rule="evenodd" stroke="none"/>
      <path d="M28.5 12.95 L28.8 13.65 28.9 13.75 28.9 14.7 28.8 14.85 28.3 15.3 27.4 15.55 26.5 15.55 26.1 15.4 25.8 15.25 Q25.15 14.9 25.25 14.4 L26.05 15.05 Q26.75 15.3 27.55 14.85 28.75 14.15 28.5 12.95" fill="#716044" fill-rule="evenodd" stroke="none"/>
      <path d="M26.45 10.95 L26.05 10.75 25.3 10.9 25.5 12.7 25.4 13.6 25.35 13.95 M27.85 12.05 L27.35 11.5 27.1 11.35 26.45 10.95 M28.5 12.95 L28.8 13.65 28.9 13.75 28.9 14.7 28.8 14.85 28.3 15.3 27.4 15.55 26.5 15.55 26.1 15.4 25.8 15.25 Q25.15 14.9 25.25 14.4 L25.3 14.25 25.35 13.95 M28.5 12.95 L28.35 12.65 28.05 12.25 27.85 12.05" fill="none" stroke="#000000" stroke-linecap="round" stroke-linejoin="round" stroke-opacity="0.3019608" stroke-width="0.05"/>
      <path d="M30.25 18.15 L29.8 17.75 30.25 17.95 Q30.15 17.45 30.5 17.0 30.95 16.4 31.9 16.25 32.65 15.5 33.5 18.2 33.5 19.6 32.65 19.7 L32.45 19.8 32.0 19.3 31.05 18.8 30.25 18.15" fill="#716044" fill-rule="evenodd" stroke="none"/>
      <path d="M32.85 12.8 L32.1 12.6 31.55 14.3 30.55 15.45 30.1 15.45 30.1 14.95 30.85 14.05 31.85 12.2 32.65 12.45 32.85 12.8" fill="#b9ae9a" fill-rule="evenodd" stroke="none"/>
      <path d="M29.85 15.2 Q29.6 15.55 29.65 15.9 29.65 16.45 30.45 16.35 L31.3 15.9 32.05 15.05 Q32.8 14.3 33.0 14.4 L33.25 14.75 33.3 14.55 33.3 14.75 33.3 15.3 33.25 15.65 Q32.65 16.95 31.1 17.15 30.1 17.2 29.7 16.7 29.3 16.15 29.45 15.7 L29.6 15.5 29.85 15.2" fill="#8e7e66" fill-rule="evenodd" stroke="none"/>
      <path d="M30.1 14.95 L30.1 15.45 30.55 15.45 31.55 14.3 32.1 12.6 32.85 12.8 33.15 13.5 33.2 13.75 33.3 14.55 33.25 14.75 33.0 14.4 Q32.8 14.3 32.05 15.05 L31.3 15.9 30.45 16.35 Q29.65 16.45 29.65 15.9 29.6 15.55 29.85 15.2 L30.1 14.95" fill="#a09176" fill-rule="evenodd" stroke="none"/>
      <path d="M33.25 15.65 L33.05 16.55 33.0 16.65 32.35 17.55 32.2 17.65 31.45 17.9 30.5 17.8 29.75 17.35 29.5 17.05 29.35 16.75 Q29.05 16.1 29.45 15.7 29.3 16.15 29.7 16.7 30.1 17.2 31.1 17.15 32.65 16.95 33.25 15.65" fill="#716044" fill-rule="evenodd" stroke="none"/>
      <path d="M32.85 12.8 L32.65 12.45 31.85 12.2 30.85 14.05 30.1 14.95 29.85 15.2 M33.3 14.55 L33.2 13.75 33.15 13.5 32.85 12.8 M29.45 15.7 L29.6 15.5 29.85 15.2 M33.25 15.65 L33.05 16.55 33.0 16.65 32.35 17.55 32.2 17.65 31.45 17.9 30.5 17.8 29.75 17.35 29.5 17.05 29.35 16.75 Q29.05 16.1 29.45 15.7 M33.25 15.65 L33.3 15.3 33.3 14.75 33.3 14.55" fill="none" stroke="#000000" stroke-linecap="round" stroke-linejoin="round" stroke-opacity="0.3019608" stroke-width="0.05"/>
      <path d="M34.05 22.9 L33.1 22.3 32.45 21.55 32.1 20.45 32.55 20.05 Q32.5 20.8 32.85 20.3 33.4 19.8 34.35 19.75 35.25 18.95 35.7 21.95 35.4 23.4 34.65 23.4 L34.4 23.45 34.05 22.9" fill="#716044" fill-rule="evenodd" stroke="none"/>
      <path d="M33.35 18.7 Q33.55 18.6 33.8 18.45 L35.05 17.25 35.05 17.3 35.15 17.3 35.5 17.9 35.55 18.1 35.55 18.15 35.6 18.15 35.55 18.25 35.6 18.45 35.6 18.5 35.6 18.6 Q35.4 17.9 35.05 17.7 L34.15 18.75 33.1 19.45 Q32.7 19.55 33.35 18.7" fill="#b9ae9a" fill-rule="evenodd" stroke="none"/>
      <path d="M35.55 19.45 L35.55 19.55 35.5 19.65 35.45 20.1 35.4 20.2 Q34.9 20.95 33.8 21.05 L32.55 20.7 Q32.2 20.2 32.35 19.6 L32.65 19.2 32.85 19.05 32.6 19.55 Q32.5 19.8 32.75 20.05 33.0 20.3 33.8 19.8 34.85 19.05 35.2 19.1 L35.5 19.5 35.55 19.45" fill="#8e7e66" fill-rule="evenodd" stroke="none"/>
      <path d="M35.6 18.6 L35.6 18.7 35.6 19.0 35.55 19.2 35.55 19.4 35.55 19.45 35.5 19.5 35.2 19.1 Q34.85 19.05 33.8 19.8 33.0 20.3 32.75 20.05 32.5 19.8 32.6 19.55 L32.85 19.05 33.35 18.7 Q32.7 19.55 33.1 19.45 L34.15 18.75 35.05 17.7 Q35.4 17.9 35.6 18.6 M35.55 19.4 L35.55 19.45 35.55 19.4" fill="#a09176" fill-rule="evenodd" stroke="none"/>
      <path d="M35.4 20.2 L35.05 20.95 35.0 21.0 34.45 21.45 34.35 21.5 33.8 21.6 33.2 21.55 32.65 21.35 32.25 20.95 32.1 20.2 32.35 19.6 Q32.2 20.2 32.55 20.7 L33.8 21.05 Q34.9 20.95 35.4 20.2" fill="#716044" fill-rule="evenodd" stroke="none"/>
      <path d="M33.35 18.7 Q33.55 18.6 33.8 18.45 L35.05 17.25 35.05 17.3 35.15 17.3 35.5 17.9 35.55 18.1 35.55 18.15 35.6 18.15 35.55 18.25 35.6 18.45 35.6 18.5 35.6 18.6 35.6 18.7 35.6 19.0 35.55 19.2 35.55 19.4 35.55 19.45 35.55 19.55 35.5 19.65 35.45 20.1 35.4 20.2 35.05 20.95 35.0 21.0 34.45 21.45 34.35 21.5 33.8 21.6 33.2 21.55 32.65 21.35 32.25 20.95 32.1 20.2 32.35 19.6 32.65 19.2 32.85 19.05 33.35 18.7" fill="none" stroke="#000000" stroke-linecap="round" stroke-linejoin="round" stroke-opacity="0.3019608" stroke-width="0.05"/>
      <path d="M35.55 19.45 L35.55 19.4" fill="none" stroke="#2b9fba" stroke-linecap="round" stroke-linejoin="round" stroke-width="0.05"/>
    </g>
    <g id="sprite2" transform="matrix(1.0, 0.0, 0.0, 1.0, 0.0, 0.0)">
      <use height="5.85" transform="matrix(1.0, 0.0, 0.0, 1.0, 0.0, 0.0)" width="4.55" xlink:href="#shape2"/>
    </g>
    <g id="shape2" transform="matrix(1.0, 0.0, 0.0, 1.0, 0.0, 0.0)">
      <path d="M3.5 5.4 L3.3 4.5 Q3.2 3.95 3.35 3.65 3.45 3.3 3.75 3.35 L4.2 3.8 4.55 4.75 4.45 5.55 4.05 5.85 3.5 5.4" fill="#3c1811" fill-rule="evenodd" stroke="none"/>
      <path d="M2.85 4.8 L3.4 3.75 3.55 2.95 3.7 3.05 4.25 3.85 4.3 4.75 3.75 5.2 2.95 4.95 2.85 4.8 M3.6 3.75 L3.6 4.05 3.8 4.35 4.0 4.4 4.2 4.2 4.25 3.8 4.05 3.55 3.8 3.55 3.6 3.75" fill="#846747" fill-rule="evenodd" stroke="none"/>
      <path d="M3.55 2.95 L3.4 3.75 2.85 4.8 2.75 4.7 3.55 2.95" fill="#432c19" fill-rule="evenodd" stroke="none"/>
      <path d="M3.55 2.95 L2.75 4.7 2.5 3.8 Q2.5 3.35 2.8 3.05 L3.55 2.95" fill="#977450" fill-rule="evenodd" stroke="none"/>
      <path d="M3.6 3.75 L3.8 3.55 4.05 3.55 4.25 3.8 4.2 4.2 4.0 4.4 3.8 4.35 3.6 4.05 3.6 3.75" fill="#ca914a" fill-rule="evenodd" stroke="none"/>
      <path d="M2.85 4.8 L2.95 4.95 3.75 5.2 4.3 4.75 4.25 3.85 3.7 3.05 3.55 2.95 2.8 3.05 Q2.5 3.35 2.5 3.8 L2.75 4.7" fill="none" stroke="#362314" stroke-linecap="round" stroke-linejoin="round" stroke-opacity="0.4" stroke-width="0.05"/>
      <path d="M1.0 2.5 L0.8 1.6 Q0.7 1.05 0.85 0.75 0.95 0.4 1.25 0.45 L1.7 0.9 2.05 1.85 1.95 2.65 Q1.8 3.0 1.55 2.95 L1.0 2.5" fill="#3c1811" fill-rule="evenodd" stroke="none"/>
      <path d="M0.35 1.9 L0.9 0.85 1.05 0.05 1.2 0.15 1.75 0.95 1.8 1.85 1.25 2.3 0.45 2.05 0.35 1.9 M1.1 0.85 L1.1 1.15 1.3 1.45 1.5 1.5 1.7 1.3 1.75 0.9 1.55 0.65 1.3 0.65 1.1 0.85" fill="#846747" fill-rule="evenodd" stroke="none"/>
      <path d="M1.05 0.05 L0.9 0.85 0.35 1.9 0.25 1.8 1.05 0.05" fill="#432c19" fill-rule="evenodd" stroke="none"/>
      <path d="M1.05 0.05 L0.25 1.8 0.0 0.9 Q0.0 0.45 0.3 0.15 L1.05 0.05" fill="#977450" fill-rule="evenodd" stroke="none"/>
      <path d="M1.1 0.85 L1.3 0.65 1.55 0.65 1.75 0.9 1.7 1.3 1.5 1.5 1.3 1.45 1.1 1.15 1.1 0.85" fill="#ca914a" fill-rule="evenodd" stroke="none"/>
      <path d="M0.35 1.9 L0.45 2.05 1.25 2.3 1.8 1.85 1.75 0.95 1.2 0.15 1.05 0.05 0.3 0.15 Q0.0 0.45 0.0 0.9 L0.25 1.8" fill="none" stroke="#362314" stroke-linecap="round" stroke-linejoin="round" stroke-opacity="0.4" stroke-width="0.05"/>
    </g>
    <g id="shape3" transform="matrix(1.0, 0.0, 0.0, 1.0, -1.85, -19.05)">
      <path d="M18.1 23.3 L19.75 23.35 24.85 29.75 25.4 38.8 23.7 39.85 19.15 39.75 19.1 39.75 15.4 36.0 14.2 26.2 18.05 23.4 18.1 23.3" fill="#000000" fill-opacity="0.3019608" fill-rule="evenodd" stroke="none"/>
      <path d="M18.9 40.15 L18.85 40.15 18.65 39.9 18.9 40.15 M14.15 26.05 L17.65 23.25 22.45 30.25 22.5 30.4 22.45 30.75 22.85 36.15 Q22.75 38.15 21.95 37.55 18.7 34.7 20.2 33.9 21.4 33.6 19.8 29.45 18.2 25.35 14.15 26.05" fill="#b9ae9a" fill-rule="evenodd" stroke="none"/>
      <path d="M24.4 35.75 L24.7 39.15 23.05 40.25 21.65 40.2 20.5 40.15 21.55 40.1 23.05 40.05 22.85 36.15 24.4 35.75 M21.65 40.2 L21.55 40.1 21.65 40.2" fill="#8e7e66" fill-rule="evenodd" stroke="none"/>
      <path d="M24.05 30.35 L24.4 35.75 22.85 36.15 22.45 30.75 24.05 30.35" fill="#a09176" fill-rule="evenodd" stroke="none"/>
      <path d="M20.5 40.15 L18.9 40.15 18.65 39.9 15.4 36.25 14.15 26.05 Q18.2 25.35 19.8 29.45 21.4 33.6 20.2 33.9 18.7 34.7 21.95 37.55 22.75 38.15 22.85 36.15 L23.05 40.05 21.55 40.1 20.5 40.15" fill="#716044" fill-rule="evenodd" stroke="none"/>
      <path d="M17.65 23.25 L17.7 23.1 19.2 23.15 24.0 29.8 22.5 30.4 22.45 30.25 17.65 23.25 M19.15 23.25 L18.65 23.35 22.65 29.2 23.25 29.0 19.15 23.25" fill="#bfb6a4" fill-rule="evenodd" stroke="none"/>
      <path d="M24.0 29.8 L24.05 30.35 22.45 30.75 22.5 30.4 24.0 29.8 M19.15 23.25 L23.25 29.0 22.65 29.2 18.65 23.35 19.15 23.25" fill="#ffffff" fill-rule="evenodd" stroke="none"/>
      <path d="M17.65 23.25 L17.7 23.1 19.2 23.15 24.0 29.8 24.05 30.35 24.4 35.75 24.7 39.15 23.05 40.25 21.65 40.2 20.5 40.15 18.9 40.15 18.85 40.15 18.65 39.9 15.4 36.25 14.15 26.05 17.65 23.25 22.45 30.25 22.5 30.4 22.45 30.75 22.85 36.15 23.05 40.05 21.55 40.1 20.5 40.15" fill="none" stroke="#000000" stroke-linecap="round" stroke-linejoin="round" stroke-opacity="0.3019608" stroke-width="0.05"/>
      <path d="M22.5 30.4 L24.0 29.8 M21.55 40.1 L21.65 40.2" fill="none" stroke="#000000" stroke-linecap="round" stroke-linejoin="round" stroke-opacity="0.3019608" stroke-width="0.05"/>
      <path d="M17.55 23.9 L19.15 26.35 20.9 29.25 19.1 26.9 Q17.35 24.4 17.3 25.15 17.2 25.85 16.75 25.6 16.3 25.35 16.2 25.1 16.15 24.75 16.75 24.3 17.4 23.75 17.55 23.9" fill="#8e7e66" fill-rule="evenodd" stroke="none"/>
      <path d="M2.95 19.05 Q6.15 24.65 11.5 28.4 L16.6 27.35 Q20.2 29.1 20.95 31.75 L18.5 34.55 19.05 31.55 12.05 36.0 14.4 37.1 11.65 37.75 Q8.15 35.4 4.75 26.2 L4.55 31.6 Q2.35 23.9 2.95 19.05" fill="#b9ae9a" fill-rule="evenodd" stroke="none"/>
      <path d="M7.05 40.9 Q-0.1 31.45 2.95 19.05 2.35 23.9 4.55 31.6 L4.75 26.2 Q8.15 35.4 11.65 37.75 L14.4 37.1 12.05 36.0 19.05 31.55 18.5 34.55 20.95 31.75 Q21.55 33.7 20.95 35.85 L10.15 43.35 7.05 40.9" fill="#a09176" fill-rule="evenodd" stroke="none"/>
      <path d="M20.95 35.85 L20.45 37.15 10.55 44.8 7.05 40.9 10.15 43.35 20.95 35.85" fill="#534631" fill-rule="evenodd" stroke="none"/>
      <path d="M20.95 35.85 L20.45 37.15 10.55 44.8 7.05 40.9 Q-0.1 31.45 2.95 19.05 6.15 24.65 11.5 28.4 L16.6 27.35 Q20.2 29.1 20.95 31.75 21.55 33.7 20.95 35.85 Z" fill="none" stroke="#000000" stroke-linecap="round" stroke-linejoin="round" stroke-opacity="0.3019608" stroke-width="0.05"/>
      <path d="M15.5 28.4 Q17.2 28.8 17.8 29.65 L10.8 31.15 Q6.3 27.3 5.0 23.15 7.3 27.1 11.9 29.05 L15.5 28.4" fill="#ffffff" fill-rule="evenodd" stroke="none"/>
      <path d="M3.6 29.9 Q3.1 28.95 2.75 27.75 L2.6 25.9 Q2.75 25.2 3.15 25.4 3.6 25.55 4.15 26.55 4.65 27.35 4.85 28.6 L5.1 30.35 Q5.0 31.1 4.5 30.95 L3.6 29.9" fill="#ffffff" fill-rule="evenodd" stroke="none"/>
      <path d="M5.85 29.85 L6.3 30.35 6.65 31.4 6.75 32.3 Q6.75 32.65 6.45 32.45 L6.1 31.95 5.6 31.0 5.55 30.15 Q5.65 29.8 5.85 29.85" fill="#ffffff" fill-rule="evenodd" stroke="none"/>
      <path d="M7.6 35.0 Q7.4 36.3 6.45 35.7 5.5 35.25 4.4 33.3 3.15 31.3 2.45 28.95 1.8 26.7 1.85 25.35 2.05 24.1 3.05 24.6 3.9 25.1 5.1 27.1 6.3 29.05 7.0 31.4 7.65 33.7 7.6 35.0" fill="#ffffee" fill-opacity="0.3019608" fill-rule="evenodd" stroke="none"/>
      <path d="M6.15 33.35 L9.45 39.5 Q10.25 37.6 10.9 38.45 11.55 39.3 11.65 40.2 11.75 41.15 11.25 41.55 10.75 42.05 9.95 41.75 9.1 41.5 8.45 40.65 7.8 39.8 6.8 36.1 L6.15 33.35" fill="#8e7e66" fill-rule="evenodd" stroke="none"/>
      <path d="M12.45 37.25 L11.85 36.95 M12.4 36.3 L12.0 36.35 M12.45 35.5 L11.7 35.8 M12.1 34.8 L11.6 35.25 M11.75 34.1 L11.2 34.8 M8.65 34.85 L8.9 34.95 M10.65 33.4 L10.6 34.1 M8.9 34.2 L9.2 34.55 M11.95 38.65 L11.45 37.85 M11.3 38.9 L11.15 38.4 M10.65 39.1 L10.65 38.5 M10.05 38.9 L10.15 38.35 M9.4 38.65 L9.8 37.8 M12.35 37.95 L11.65 37.45 M11.25 33.7 L10.9 34.35 M9.35 33.5 L9.65 34.25 M9.95 33.35 L10.05 34.0 M8.9 37.9 L9.4 37.5 M8.7 37.05 L9.0 36.95 M8.4 36.45 L9.05 36.3 M8.3 35.45 L9.05 35.65" fill="none" stroke="#000000" stroke-linecap="round" stroke-linejoin="round" stroke-opacity="0.3019608" stroke-width="0.05"/>
    </g>
    <g id="sprite3" transform="matrix(1.0, 0.0, 0.0, 1.0, 0.0, 0.0)">
      <use height="40.95" transform="matrix(1.0, 0.0, 0.0, 1.0, 0.0, 0.0)" width="40.95" xlink:href="#shape4"/>
    </g>
    <g id="shape4" transform="matrix(1.0, 0.0, 0.0, 1.0, 0.0, 0.0)">
      <path d="M20.5 0.0 Q28.95 0.0 34.95 6.0 40.95 12.0 40.95 20.5 40.95 29.0 34.95 34.95 28.95 40.95 20.5 40.95 12.0 40.95 6.0 34.95 0.0 29.0 0.0 20.5 0.0 12.0 6.0 6.0 12.0 0.0 20.5 0.0" fill="url(#gradient0)" fill-rule="evenodd" stroke="none"/>
    </g>
    <radialGradient cx="0" cy="0" fx="361.6" fy="0" gradientTransform="matrix(0.0253, 0.0, 0.0, 0.0253, 20.5, 20.5)" gradientUnits="userSpaceOnUse" id="gradient0" r="819.2" spreadMethod="pad">
      <stop offset="0.0" stop-color="#ffff99"/>
      <stop offset="1.0" stop-color="#ffff99" stop-opacity="0.0"/>
    </radialGradient>
    <g id="shape5" transform="matrix(1.0, 0.0, 0.0, 1.0, -1.55, -0.5)">
      <path d="M39.75 4.1 Q39.65 10.3 38.35 15.8 L37.5 16.65 36.55 17.1 36.5 17.05 36.25 16.8 35.75 16.35 34.4 15.3 Q33.85 14.95 33.3 14.7 L33.3 14.55 33.2 13.75 33.15 13.5 32.85 12.8 32.65 12.45 31.85 12.2 30.95 13.9 29.35 13.7 28.95 13.55 28.8 13.55 28.5 12.95 28.35 12.65 28.05 12.25 27.9 12.1 27.85 12.1 27.85 12.05 27.35 11.5 27.1 11.35 26.45 10.95 26.05 10.75 25.3 10.9 25.5 12.7 25.35 14.1 24.6 14.35 Q23.05 14.95 22.05 15.8 L21.85 16.0 21.6 16.25 21.0 16.9 20.95 17.05 21.3 16.7 21.0 17.05 20.95 17.05 Q19.1 19.05 18.3 21.55 L18.0 22.6 17.1 23.7 14.15 26.05 14.4 27.8 11.5 28.4 Q6.15 24.65 2.95 19.05 2.25 21.95 2.1 24.7 L2.1 27.35 2.1 27.45 Q2.4 34.8 7.05 40.9 L10.55 44.8 17.95 39.1 18.85 40.15 19.1 40.15 19.9 41.85 Q21.85 45.3 26.45 51.0 L28.0 50.25 Q29.0 45.8 29.2 43.35 L29.2 41.85 28.75 41.35 28.7 41.35 28.7 41.3 Q27.0 40.15 25.4 38.65 L25.25 36.05 26.95 36.2 28.7 36.25 31.0 36.2 30.9 37.35 30.9 38.35 31.2 38.9 31.9 39.8 32.3 40.1 34.1 40.7 37.45 39.85 Q40.0 42.1 44.05 45.05 L45.35 43.9 Q45.2 39.35 44.7 36.95 L44.3 35.45 44.15 35.3 44.05 35.15 43.75 35.05 43.7 35.05 Q41.75 34.4 39.8 33.35 L39.7 33.1 40.15 32.85 40.45 32.3 40.45 31.95 40.45 31.8 40.85 30.75 40.85 30.2 40.85 29.95 40.85 29.7 40.85 27.85 49.5 26.75 Q50.15 23.85 50.15 21.1 50.15 10.45 40.9 2.0 L40.1 1.3 40.0 1.2 39.75 1.0 39.75 2.0 39.75 4.0 39.75 4.1 Z" fill="none" stroke="#000000" stroke-linecap="round" stroke-linejoin="round" stroke-opacity="0.3019608" stroke-width="1.0"/>
    </g>
  </defs>
</svg>
