<?xml version="1.0" encoding="UTF-8" standalone="no"?>
<svg xmlns:xlink="http://www.w3.org/1999/xlink" height="520.0px" width="520.0px" xmlns="http://www.w3.org/2000/svg">
  <g transform="matrix(10.0, 0.0, 0.0, 10.0, 0.0, 0.0)">
    <use height="52.0" transform="matrix(1.0, 0.0, 0.0, 1.0, 0.0, 0.0)" width="52.0" xlink:href="#shape0"/>
    <use height="25.0" transform="matrix(1.8537, -0.4925, 0.2889, 1.4999, 11.5798, 4.8478)" width="8.2" xlink:href="#sprite0"/>
  </g>
  <defs>
    <g id="shape0" transform="matrix(1.0, 0.0, 0.0, 1.0, 0.0, 0.0)">
      <path d="M52.0 0.0 L52.0 52.0 0.0 52.0 0.0 0.0 52.0 0.0" fill="#43adca" fill-opacity="0.0" fill-rule="evenodd" stroke="none"/>
      <path d="M16.15 43.9 L15.95 43.4 15.95 42.9 Q16.1 41.35 18.75 39.6 21.0 38.25 24.05 37.3 L24.3 37.65 25.45 39.45 26.05 40.5 Q22.2 41.55 19.45 43.2 L18.55 43.85 17.35 45.05 Q16.5 44.6 16.15 43.9 L15.95 42.9 16.15 43.9" fill="#234301" fill-rule="evenodd" stroke="none"/>
      <path d="M35.55 46.55 Q32.9 47.8 29.3 48.65 L20.85 49.3 20.6 48.8 19.8 47.1 19.1 45.55 19.95 45.65 28.6 45.05 Q31.65 44.35 34.05 43.3 L35.25 45.85 35.55 46.55" fill="#52a001" fill-rule="evenodd" stroke="none"/>
      <path d="M39.65 38.55 L40.1 41.05 40.3 42.35 Q40.05 43.85 37.4 45.45 L35.55 46.55 35.25 45.85 34.05 43.3 36.7 41.85 38.85 40.15 Q39.55 39.3 39.65 38.55" fill="#458701" fill-rule="evenodd" stroke="none"/>
      <path d="M24.05 37.3 L26.95 36.5 Q31.9 35.35 35.5 35.8 38.85 36.2 39.5 37.65 L39.55 38.05 39.65 38.55 Q39.55 39.3 38.85 40.15 37.85 39.6 36.2 39.4 32.6 38.95 27.65 40.1 L26.05 40.5 25.45 39.45 24.3 37.65 24.05 37.3" fill="#335401" fill-rule="evenodd" stroke="none"/>
      <path d="M20.85 49.3 L20.65 49.25 Q17.4 48.85 16.75 47.4 L16.65 47.0 16.15 43.9 Q16.5 44.6 17.35 45.05 L19.1 45.55 19.8 47.1 20.6 48.8 20.85 49.3" fill="#a5e12a" fill-rule="evenodd" stroke="none"/>
      <path d="M24.05 37.3 L26.95 36.5 Q31.9 35.35 35.5 35.8 38.85 36.2 39.5 37.65 L39.55 38.05 39.65 38.55 40.1 41.05 40.25 41.65 40.3 42.35 Q40.05 43.85 37.4 45.45 L35.55 46.55 Q32.9 47.8 29.3 48.65 L20.85 49.3 20.65 49.25 Q17.4 48.85 16.75 47.4 L16.65 47.0 16.15 43.9 15.95 43.4 15.95 42.9 Q16.1 41.35 18.75 39.6 21.0 38.25 24.05 37.3 M26.05 40.5 L27.65 40.1 Q32.6 38.95 36.2 39.4 37.85 39.6 38.85 40.15 39.55 39.3 39.65 38.55 M40.3 42.35 L40.1 41.05 M16.15 43.9 L15.95 42.9 M17.35 45.05 Q16.5 44.6 16.15 43.9 M34.05 43.3 Q31.65 44.35 28.6 45.05 L19.95 45.65 19.1 45.55 17.35 45.05 18.55 43.85 19.45 43.2 Q22.2 41.55 26.05 40.5 M38.85 40.15 L36.7 41.85 34.05 43.3" fill="none" stroke="#000000" stroke-linecap="round" stroke-linejoin="round" stroke-opacity="0.3019608" stroke-width="0.05"/>
      <path d="M39.45 38.05 L39.55 38.55 40.0 41.05 40.15 41.65 40.2 42.35 Q39.95 43.85 37.3 45.45 34.15 47.5 29.2 48.65 L20.55 49.25 Q17.3 48.85 16.65 47.4 L16.55 47.0 16.05 43.9 15.85 43.4 15.85 42.9 Q16.0 41.35 18.65 39.6 21.95 37.6 26.85 36.5 31.8 35.35 35.4 35.8 38.75 36.2 39.4 37.65 L39.45 38.05 M40.2 42.35 L40.0 41.05 M15.85 42.9 L16.05 43.9 Q16.4 44.6 17.25 45.05 17.9 44.1 19.35 43.2 22.65 41.2 27.55 40.1 32.5 38.95 36.1 39.4 37.75 39.6 38.75 40.15 39.45 39.3 39.55 38.55 M38.75 40.15 L36.6 41.85 Q33.45 43.9 28.5 45.05 L19.85 45.65 17.25 45.05" fill="none" stroke="#000000" stroke-linecap="round" stroke-linejoin="round" stroke-opacity="0.3019608" stroke-width="1.0"/>
    </g>
    <g id="sprite0" transform="matrix(1.0, 0.0, 0.0, 1.0, 0.25, -4.65)">
      <use height="25.0" transform="matrix(1.0, 0.0, 0.0, 1.0, -0.25, 4.65)" width="8.2" xlink:href="#shape1"/>
    </g>
    <g id="shape1" transform="matrix(1.0, 0.0, 0.0, 1.0, 0.25, -4.65)">
      <path d="M6.0 28.7 Q5.3 29.4 3.9 29.4 2.5 29.4 1.8 28.7 1.0 28.05 1.0 26.9 1.0 25.85 1.8 25.2 2.5 24.5 3.9 24.5 5.25 24.5 6.1 25.2 6.8 25.9 6.8 26.9 6.8 28.05 6.0 28.7" fill="url(#gradient0)" fill-rule="evenodd" stroke="none"/>
      <path d="M6.6 6.05 Q7.7 7.15 7.7 8.8 L6.2 20.45 Q6.1 21.5 5.5 22.05 4.8 22.55 3.9 22.55 2.9 22.5 2.2 21.9 1.6 21.25 1.5 20.2 L0.0 8.5 Q0.0 6.8 1.1 5.8 2.25 4.8 3.9 4.9 5.5 4.95 6.6 6.05" fill="url(#gradient1)" fill-rule="evenodd" stroke="none"/>
      <path d="M6.6 6.05 Q7.7 7.15 7.7 8.8 L6.2 20.45 Q6.1 21.5 5.5 22.05 4.8 22.55 3.9 22.55 2.9 22.5 2.2 21.9 1.6 21.25 1.5 20.2 L0.0 8.5 Q0.0 6.8 1.1 5.8 2.25 4.8 3.9 4.9 5.5 4.95 6.6 6.05 M6.0 28.7 Q5.3 29.4 3.9 29.4 2.5 29.4 1.8 28.7 1.0 28.05 1.0 26.9 1.0 25.85 1.8 25.2 2.5 24.5 3.9 24.5 5.25 24.5 6.1 25.2 6.8 25.9 6.8 26.9 6.8 28.05 6.0 28.7" fill="none" stroke="#366b01" stroke-linecap="round" stroke-linejoin="round" stroke-width="0.5"/>
    </g>
    <linearGradient gradientTransform="matrix(-0.0011, -0.0029, 0.0033, -0.0012, 3.9, 27.0)" gradientUnits="userSpaceOnUse" id="gradient0" spreadMethod="pad" x1="-819.2" x2="819.2">
      <stop offset="0.050980392156862744" stop-color="#66cc00"/>
      <stop offset="1.0" stop-color="#a5e12a"/>
    </linearGradient>
    <linearGradient gradientTransform="matrix(-0.0017, -0.0045, 0.0101, -0.0034, 3.8, 13.7)" gradientUnits="userSpaceOnUse" id="gradient1" spreadMethod="pad" x1="-819.2" x2="819.2">
      <stop offset="0.050980392156862744" stop-color="#66cc00"/>
      <stop offset="1.0" stop-color="#a5e12a"/>
    </linearGradient>
  </defs>
</svg>
