<?xml version="1.0" encoding="UTF-8" standalone="no"?>
<svg xmlns:xlink="http://www.w3.org/1999/xlink" height="520.0px" width="520.0px" xmlns="http://www.w3.org/2000/svg">
  <g transform="matrix(10.0, 0.0, 0.0, 10.0, 0.0, 0.0)">
    <use height="52.0" transform="matrix(1.0, 0.0, 0.0, 1.0, 0.0, 0.0)" width="52.0" xlink:href="#shape0"/>
    <use height="93.1" transform="matrix(0.0784, 0.0, 0.0, 0.069, 20.2108, 35.55)" width="81.15" xlink:href="#sprite0"/>
    <use height="93.1" transform="matrix(0.0513, -0.0066, 0.0087, 0.0684, 45.2243, 28.4533)" width="81.15" xlink:href="#sprite0"/>
    <use height="93.1" transform="matrix(0.09, -0.0072, 0.0077, 0.0972, 40.255, 30.6036)" width="81.15" xlink:href="#sprite0"/>
    <use height="93.1" transform="matrix(0.0686, -0.006, 0.006, 0.0687, 36.9157, 34.753)" width="81.15" xlink:href="#sprite0"/>
    <use height="93.1" transform="matrix(0.0689, 0.0, 0.0, 0.069, 31.7655, 36.75)" width="81.15" xlink:href="#sprite0"/>
    <use height="93.1" transform="matrix(0.0949, 0.0108, -0.0111, 0.0968, 25.5526, 34.7946)" width="81.15" xlink:href="#sprite0"/>
    <use height="113.0" transform="matrix(0.3043, 0.0, 0.0, 0.3044, 0.8493, 8.55)" width="165.3" xlink:href="#sprite1"/>
    <use height="25.55" transform="matrix(1.0, 0.0, 0.0, 1.0, 4.15, 10.55)" width="44.55" xlink:href="#shape8"/>
    <use height="21.75" transform="matrix(-0.149, -0.1368, -0.149, 0.1368, 51.0745, 17.6184)" width="48.9" xlink:href="#sprite5"/>
    <use height="8.15" transform="matrix(1.0, 0.0, 0.0, 1.0, 34.2, 18.35)" width="6.85" xlink:href="#shape11"/>
    <use height="92.25" transform="matrix(-0.043, 0.0021, -0.0107, -0.0486, 42.4, 22.2)" width="90.65" xlink:href="#sprite7"/>
    <use height="92.25" transform="matrix(-0.057, 0.0152, -0.0111, -0.0706, 40.35, 25.75)" width="90.65" xlink:href="#sprite7"/>
    <use height="5.2" transform="matrix(1.0, 0.0, 0.0, 1.0, 35.95, 11.25)" width="6.5" xlink:href="#shape13"/>
    <use height="21.75" transform="matrix(-0.1254, -0.0966, -0.1052, 0.1152, 44.1627, 14.0483)" width="48.9" xlink:href="#sprite5"/>
    <use height="11.35" transform="matrix(1.0, 0.0, 0.0, 1.0, 42.25, 18.2)" width="7.75" xlink:href="#shape14"/>
    <use height="46.1" transform="matrix(-0.0621, -0.0873, -0.0739, 0.0716, 50.0, 23.35)" width="65.1" xlink:href="#sprite6"/>
  </g>
  <defs>
    <g id="shape0" transform="matrix(1.0, 0.0, 0.0, 1.0, 0.0, 0.0)">
      <path d="M52.0 0.0 L52.0 52.0 0.0 52.0 0.0 0.0 52.0 0.0" fill="#33cc33" fill-opacity="0.0" fill-rule="evenodd" stroke="none"/>
      <path d="M39.65 11.3 L36.85 11.1 36.75 11.15 Q31.85 9.35 26.0 9.35 20.1 9.35 15.2 11.15 11.45 12.45 8.3 14.85 1.35 20.0 1.0 27.25 L1.0 27.4 1.0 27.8 1.0 27.9 1.0 28.05 Q1.05 29.6 1.75 31.0 2.35 32.2 3.45 33.3 5.2 35.1 8.3 36.65 11.75 38.35 15.9 39.3 L16.5 39.4 21.35 40.1 21.9 40.95 21.95 41.0 22.75 41.7 23.0 41.8 23.1 41.85 23.7 41.9 23.85 41.9 24.0 41.8 Q24.65 41.5 25.3 40.3 L25.95 40.3 26.0 40.45 Q26.65 43.2 28.1 44.05 L28.75 44.2 28.95 44.2 29.2 44.1 Q30.15 43.7 31.2 41.7 L32.1 40.0 32.25 39.95 32.5 40.7 Q33.2 42.55 34.3 43.05 L34.8 43.1 34.95 43.1 35.1 43.0 Q35.75 42.65 36.35 41.15 L36.85 39.95 37.15 39.05 38.1 38.8 38.95 40.1 39.85 40.75 40.0 40.8 40.55 40.85 40.65 40.8 40.8 40.7 Q41.5 40.3 41.95 38.75 L42.35 37.35 Q43.2 38.8 44.3 39.2 L44.8 39.3 45.0 39.25 45.15 39.2 45.15 39.15 45.35 39.05 Q46.15 38.5 46.8 36.35 L47.35 34.4 47.55 34.25 47.9 34.45 48.3 34.5 48.4 34.4 48.5 34.35 Q48.9 34.0 49.2 32.65 L49.2 32.6 49.75 31.85 50.3 30.9 Q50.95 29.55 51.0 28.05 L51.0 27.8 51.0 27.3 Q50.8 23.55 48.85 20.35 L48.65 20.0 48.7 19.7 48.75 19.65 48.85 19.45 48.9 18.0 48.45 16.45 48.5 16.55 48.1 15.8 48.05 15.7 Q46.95 14.35 45.95 13.8 L45.9 13.8 45.65 13.65 45.55 13.65 Q43.7 12.85 42.05 13.1 L41.95 13.15 41.75 12.8 41.65 12.75 39.9 11.4 39.65 11.35 39.65 11.3 Z" fill="none" stroke="#000000" stroke-linecap="round" stroke-linejoin="round" stroke-opacity="0.3019608" stroke-width="1.0"/>
    </g>
    <g id="sprite0" transform="matrix(1.0, 0.0, 0.0, 1.0, 0.5, 0.0)">
      <use height="93.1" transform="matrix(1.0, 0.0, 0.0, 1.0, -0.5, 0.0)" width="81.15" xlink:href="#shape1"/>
    </g>
    <g id="shape1" transform="matrix(1.0, 0.0, 0.0, 1.0, 0.5, 0.0)">
      <path d="M57.25 3.75 L55.5 3.95 49.3 4.9 44.85 5.95 40.0 7.55 38.15 8.25 36.0 9.2 Q31.9 11.15 28.95 13.35 L28.35 13.8 Q22.9 18.1 22.05 23.4 20.75 31.7 26.85 59.75 32.85 87.8 38.6 90.65 41.9 92.3 43.85 92.45 40.25 93.05 36.55 91.45 20.4 84.5 10.2 57.35 0.0 30.25 0.0 21.95 0.0 20.2 0.55 18.45 2.55 12.35 11.75 7.75 23.4 1.9 40.0 1.9 L40.1 1.9 Q48.4 1.9 55.5 3.4 L55.6 3.4 57.25 3.75" fill="url(#gradient0)" fill-rule="evenodd" stroke="none"/>
      <path d="M43.85 92.45 Q41.9 92.3 38.6 90.65 32.85 87.8 26.85 59.75 20.75 31.7 22.05 23.4 22.9 18.1 28.35 13.8 L28.95 13.35 Q31.9 11.15 36.0 9.2 L38.15 8.25 40.0 7.55 44.85 5.95 49.3 4.9 55.5 3.95 57.25 3.75 Q63.3 5.2 68.45 7.75 80.15 13.65 80.15 21.95 80.15 23.7 79.5 26.7 77.2 37.6 66.45 64.3 57.75 85.8 48.15 91.0 L45.9 91.95 43.85 92.45 M46.0 90.0 Q48.65 89.9 54.6 82.55 60.55 75.25 68.05 57.05 75.55 38.85 76.9 24.25 78.25 9.6 60.85 35.75 58.75 62.2 45.1 90.0 L46.0 90.0 M41.5 88.55 L42.25 89.1 Q39.5 86.7 41.5 88.55" fill="#e0e0b3" fill-rule="evenodd" stroke="none"/>
      <path d="M41.5 88.55 Q39.5 86.7 42.25 89.1 L41.5 88.55 M46.0 90.0 L45.1 90.0 Q58.75 62.2 60.85 35.75 78.25 9.6 76.9 24.25 75.55 38.85 68.05 57.05 60.55 75.25 54.6 82.55 48.65 89.9 46.0 90.0" fill="#ffffcc" fill-rule="evenodd" stroke="none"/>
      <path d="M57.25 3.75 L55.6 3.4 55.5 3.4 Q48.4 1.9 40.1 1.9 L40.0 1.9 Q23.4 1.9 11.75 7.75 2.55 12.35 0.55 18.45 0.0 20.2 0.0 21.95 0.0 30.25 10.2 57.35 20.4 84.5 36.55 91.45 40.25 93.05 43.85 92.45 L45.9 91.95 48.15 91.0 Q57.75 85.8 66.45 64.3 77.2 37.6 79.5 26.7 80.15 23.7 80.15 21.95 80.15 13.65 68.45 7.75 63.3 5.2 57.25 3.75 Z" fill="none" stroke="#000000" stroke-linecap="round" stroke-linejoin="round" stroke-opacity="0.3019608" stroke-width="1.0"/>
      <path d="M26.25 6.15 L24.75 6.15 Q20.4 6.7 15.3 8.95 8.3 12.0 8.3 15.55 8.3 19.0 12.2 34.55 L14.55 43.75 17.4 53.5 Q19.25 59.65 21.2 63.8 L20.95 64.1 Q18.5 60.0 13.75 47.25 8.6 33.45 8.45 28.9 L4.15 16.45 Q2.2 16.55 0.55 18.5 2.55 12.4 11.75 7.8 23.5 1.95 40.1 1.95 48.45 1.95 55.6 3.4 L57.25 3.75 Q63.3 5.25 68.45 7.8 80.15 13.65 80.15 22.0 80.15 23.75 79.5 26.75 L79.3 25.85 Q76.5 15.85 73.7 15.85 73.5 15.85 70.25 24.75 L66.8 34.25 68.2 25.8 Q69.25 19.9 69.25 15.55 69.25 12.75 68.4 11.75 67.3 10.55 64.25 10.55 60.65 10.55 58.5 21.75 56.35 34.0 55.25 38.4 54.1 42.85 53.1 47.5 52.05 52.15 48.05 62.7 51.6 48.0 53.15 38.55 56.05 20.9 55.2 6.6 54.2 5.65 52.9 5.3 L49.35 4.95 49.3 4.95 Q46.5 4.95 44.85 6.0 43.65 6.85 43.0 8.2 42.1 10.15 41.55 17.6 L40.6 27.5 Q39.9 34.35 39.8 38.55 39.8 22.55 38.15 8.3 L37.75 5.25 34.2 4.95 Q28.9 4.95 28.9 12.6 L28.95 13.4 28.35 13.85 26.25 6.15 M24.8 24.9 Q25.05 23.85 25.35 23.65 L28.25 45.95 Q29.85 59.05 33.1 73.0 26.2 51.9 25.15 40.15 23.85 26.0 24.25 25.85 L24.8 24.9 M37.9 26.45 Q38.5 26.5 38.5 28.8 L37.95 36.35 Q37.85 39.55 38.25 51.85 37.2 49.45 36.2 45.45 34.75 39.45 34.75 35.85 34.75 31.95 36.65 28.05 37.4 26.4 37.9 26.45" fill="#827c62" fill-opacity="0.43137255" fill-rule="evenodd" stroke="none"/>
      <path d="M1.65 19.35 Q1.65 11.35 12.95 5.65 24.3 0.0 40.3 0.0 56.35 0.0 67.65 5.65 78.95 11.35 78.95 19.35 78.95 27.35 67.65 33.0 56.35 38.65 40.3 38.65 24.3 38.65 12.95 33.0 1.65 27.35 1.65 19.35" fill="#949174" fill-rule="evenodd" stroke="none"/>
      <path d="M0.0 21.8 Q0.0 20.05 0.55 18.3 2.55 12.2 11.75 7.6 23.45 1.75 40.1 1.75 48.45 1.75 55.6 3.25 L57.25 3.6 Q63.3 5.05 68.45 7.6 80.15 13.5 80.15 21.8 80.15 23.55 79.5 26.55 77.2 37.45 66.45 64.15 57.75 85.65 48.15 90.85 L45.9 91.8 43.85 92.3 Q40.25 92.9 36.55 91.3 20.4 84.35 10.2 57.2 0.0 30.1 0.0 21.8 M41.5 88.4 L42.25 88.95 Q39.5 86.55 41.5 88.4" fill="url(#gradient1)" fill-rule="evenodd" stroke="none"/>
    </g>
    <linearGradient gradientTransform="matrix(0.0776, 0.0666, 0.036, -0.042, -46.6, 26.0)" gradientUnits="userSpaceOnUse" id="gradient0" spreadMethod="pad" x1="-819.2" x2="819.2">
      <stop offset="0.0" stop-color="#092442"/>
      <stop offset="1.0" stop-color="#a6a684"/>
    </linearGradient>
    <linearGradient gradientTransform="matrix(0.0119, 0.0297, -0.0454, 0.0181, 39.6, 52.45)" gradientUnits="userSpaceOnUse" id="gradient1" spreadMethod="pad" x1="-819.2" x2="819.2">
      <stop offset="0.0" stop-color="#000000" stop-opacity="0.3019608"/>
      <stop offset="1.0" stop-color="#000000" stop-opacity="0.0"/>
    </linearGradient>
    <g id="sprite1" transform="matrix(1.0, 0.0, 0.0, 1.0, -25.3, 0.0)">
      <clipPath id="clipPath0" transform="matrix(1.0, 0.0, 0.0, 1.0, -25.3, 0.0)">
        <use height="102.65" transform="matrix(1.0, 0.0, 0.0, 1.0, 25.3, 2.1)" width="165.3" xlink:href="#shape2"/>
      </clipPath>
      <g clip-path="url(#clipPath0)">
        <use height="102.65" transform="matrix(1.0, 0.0, 0.0, 1.0, 25.3, 2.1)" width="165.3" xlink:href="#shape3"/>
        <use height="78.5" transform="matrix(1.4663, 0.0, 0.0, 0.7224, 55.1766, 0.0192)" width="75.15" xlink:href="#sprite2"/>
        <use height="64.0" transform="matrix(2.1966, 0.1249, 0.0353, 0.7859, 25.7891, 54.7823)" width="63.4" xlink:href="#sprite3"/>
        <use height="707.8" transform="matrix(0.1875, -0.0036, 0.033, 0.0943, 33.15, 4.95)" width="707.8" xlink:href="#sprite4"/>
        <use height="72.55" transform="matrix(1.0, 0.0, 0.0, 1.0, 27.15, 35.4)" width="69.55" xlink:href="#shape7"/>
      </g>
    </g>
    <g id="shape2" transform="matrix(1.0, 0.0, 0.0, 1.0, -25.3, -2.1)">
      <path d="M66.0 14.15 Q84.45 5.1 107.95 5.1 140.25 5.1 163.05 22.15 169.4 26.9 174.0 32.2 185.05 44.95 185.8 61.05 L185.85 62.55 185.85 63.35 Q185.6 69.6 181.95 75.15 L180.65 77.0 Q158.85 86.75 128.95 86.75 96.65 86.75 73.85 75.35 58.4 67.65 53.4 57.8 L53.4 57.75 Q51.15 53.3 51.05 48.6 L51.05 48.15 51.05 47.8 51.05 46.6 51.05 46.1 Q51.95 28.05 66.0 14.15" fill="url(#gradient2)" fill-rule="evenodd" stroke="none"/>
      <path d="M180.65 77.0 Q174.9 84.2 163.05 90.1 140.25 101.5 107.95 101.5 75.65 101.5 52.85 90.1 37.4 82.4 32.4 72.55 L32.4 72.5 Q30.15 68.05 30.05 63.35 L30.05 62.9 30.05 62.55 30.05 61.35 30.05 60.85 Q31.2 38.25 52.85 22.15 59.05 17.5 66.0 14.15 51.95 28.05 51.05 46.1 L51.05 46.6 51.05 47.8 51.05 48.15 51.05 48.6 Q51.15 53.3 53.4 57.75 L53.4 57.8 Q58.4 67.65 73.85 75.35 96.65 86.75 128.95 86.75 158.85 86.75 180.65 77.0" fill="#4b667e" fill-rule="evenodd" stroke="none"/>
      <path d="M190.1 64.0 Q189.95 68.9 187.75 73.4 L186.0 76.45 Q180.15 85.2 166.05 92.25 142.0 104.25 107.95 104.25 73.9 104.25 49.85 92.25 39.65 87.15 33.8 81.15 30.25 77.55 28.3 73.7 25.95 69.05 25.8 64.0 L25.8 63.55 25.8 63.2 25.85 61.9 25.85 61.4 Q27.05 37.55 49.85 20.6 60.25 12.8 72.55 8.4 88.65 2.6 107.95 2.6 142.0 2.6 166.05 20.6 177.1 28.85 183.1 38.7 189.5 49.2 190.05 61.6 L190.1 63.2 190.1 64.0 M180.65 77.0 L181.95 75.15 Q185.6 69.6 185.85 63.35 L185.85 62.55 185.8 61.05 Q185.05 44.95 174.0 32.2 169.4 26.9 163.05 22.15 140.25 5.1 107.95 5.1 84.45 5.1 66.0 14.15 59.05 17.5 52.85 22.15 31.2 38.25 30.05 60.85 L30.05 61.35 30.05 62.55 30.05 62.9 30.05 63.35 Q30.15 68.05 32.4 72.5 L32.4 72.55 Q37.4 82.4 52.85 90.1 75.65 101.5 107.95 101.5 140.25 101.5 163.05 90.1 174.9 84.2 180.65 77.0" fill="#6f8da2" fill-rule="evenodd" stroke="none"/>
      <path d="M190.1 64.0 Q189.95 68.9 187.75 73.4 L186.0 76.45 Q180.15 85.2 166.05 92.25 142.0 104.25 107.95 104.25 73.9 104.25 49.85 92.25 39.65 87.15 33.8 81.15 30.25 77.55 28.3 73.7 25.95 69.05 25.8 64.0 L25.8 63.55 25.8 63.2 25.85 61.9 25.85 61.4 Q27.05 37.55 49.85 20.6 60.25 12.8 72.55 8.4 88.65 2.6 107.95 2.6 142.0 2.6 166.05 20.6 177.1 28.85 183.1 38.7 189.5 49.2 190.05 61.6 L190.1 63.2 190.1 64.0 Z" fill="none" stroke="#000000" stroke-linecap="round" stroke-linejoin="round" stroke-opacity="0.3019608" stroke-width="1.0"/>
    </g>
    <linearGradient gradientTransform="matrix(-0.0414, 0.0218, -0.0311, -0.0589, 121.85, 46.35)" gradientUnits="userSpaceOnUse" id="gradient2" spreadMethod="pad" x1="-819.2" x2="819.2">
      <stop offset="0.0" stop-color="#6d89a3"/>
      <stop offset="1.0" stop-color="#5e7c91"/>
    </linearGradient>
    <g id="shape3" transform="matrix(1.0, 0.0, 0.0, 1.0, -25.3, -2.1)">
      <path d="M180.65 77.0 Q174.9 84.2 163.05 90.1 140.25 101.5 107.95 101.5 75.65 101.5 52.85 90.1 37.4 82.4 32.4 72.55 L32.4 72.5 Q30.15 68.05 30.05 63.35 L30.05 62.9 30.05 62.55 30.05 61.35 30.05 60.85 Q31.2 38.25 52.85 22.15 59.05 17.5 66.0 14.15 51.95 28.05 51.05 46.1 L51.05 46.6 51.05 47.8 51.05 48.15 51.05 48.6 Q51.15 53.3 53.4 57.75 L53.4 57.8 Q58.4 67.65 73.85 75.35 96.65 86.75 128.95 86.75 158.85 86.75 180.65 77.0" fill="#000000" fill-rule="evenodd" stroke="none"/>
      <path d="M66.0 14.15 Q84.45 5.1 107.95 5.1 140.25 5.1 163.05 22.15 169.4 26.9 174.0 32.2 185.05 44.95 185.8 61.05 L185.85 62.55 185.85 63.35 Q185.6 69.6 181.95 75.15 L180.65 77.0 Q158.85 86.75 128.95 86.75 96.65 86.75 73.85 75.35 58.4 67.65 53.4 57.8 L53.4 57.75 Q51.15 53.3 51.05 48.6 L51.05 48.15 51.05 47.8 51.05 46.6 51.05 46.1 Q51.95 28.05 66.0 14.15" fill="#202324" fill-rule="evenodd" stroke="none"/>
      <path d="M183.1 38.7 Q189.5 49.2 190.05 61.6 L190.1 63.2 190.1 64.0 Q189.95 68.9 187.75 73.4 L186.0 76.45 Q180.15 85.2 166.05 92.25 142.0 104.25 107.95 104.25 73.9 104.25 49.85 92.25 39.65 87.15 33.8 81.15 30.25 77.55 28.3 73.7 25.95 69.05 25.8 64.0 L25.8 63.55 25.8 63.2 25.85 61.9 25.85 61.4 Q27.05 37.55 49.85 20.6 60.25 12.8 72.55 8.4 88.65 2.6 107.95 2.6 142.0 2.6 166.05 20.6 177.1 28.85 183.1 38.7 M180.65 77.0 L181.95 75.15 Q185.6 69.6 185.85 63.35 L185.85 62.55 185.8 61.05 Q185.05 44.95 174.0 32.2 169.4 26.9 163.05 22.15 140.25 5.1 107.95 5.1 84.45 5.1 66.0 14.15 59.05 17.5 52.85 22.15 31.2 38.25 30.05 60.85 L30.05 61.35 30.05 62.55 30.05 62.9 30.05 63.35 Q30.15 68.05 32.4 72.5 L32.4 72.55 Q37.4 82.4 52.85 90.1 75.65 101.5 107.95 101.5 140.25 101.5 163.05 90.1 174.9 84.2 180.65 77.0" fill="#43484e" fill-rule="evenodd" stroke="none"/>
      <path d="M183.1 38.7 Q189.5 49.2 190.05 61.6 L190.1 63.2 190.1 64.0 Q189.95 68.9 187.75 73.4 L186.0 76.45 Q180.15 85.2 166.05 92.25 142.0 104.25 107.95 104.25 73.9 104.25 49.85 92.25 39.65 87.15 33.8 81.15 30.25 77.55 28.3 73.7 25.95 69.05 25.8 64.0 L25.8 63.55 25.8 63.2 25.85 61.9 25.85 61.4 Q27.05 37.55 49.85 20.6 60.25 12.8 72.55 8.4 88.65 2.6 107.95 2.6 142.0 2.6 166.05 20.6 177.1 28.85 183.1 38.7 Z" fill="none" stroke="#000000" stroke-linecap="round" stroke-linejoin="round" stroke-opacity="0.3019608" stroke-width="1.0"/>
    </g>
    <g id="sprite2" transform="matrix(1.0, 0.0, 0.0, 1.0, 37.15, 38.8)">
      <use height="78.5" transform="matrix(1.0, 0.0, 0.0, 1.0, -37.15, -38.8)" width="75.15" xlink:href="#shape4"/>
    </g>
    <g id="shape4" transform="matrix(1.0, 0.0, 0.0, 1.0, 37.15, 38.8)">
      <path d="M5.5 -21.3 L6.0 -20.8 5.8 -19.95 6.5 -19.55 4.7 -17.8 7.55 -16.65 7.55 -18.2 10.3 -19.05 9.5 -20.2 10.55 -21.2 8.5 -22.55 7.35 -23.3 8.95 -25.55 9.1 -25.45 13.6 -26.95 12.2 -29.4 16.35 -29.65 18.2 -33.85 20.45 -33.65 22.0 -32.15 26.35 -31.7 26.95 -24.75 24.4 -23.25 23.95 -19.55 27.05 -18.1 31.75 -21.8 36.0 -19.75 37.4 -15.55 36.1 -12.8 33.9 -11.65 33.5 -11.8 33.5 -14.1 31.6 -13.25 31.6 -11.15 32.05 -10.7 31.05 -10.2 29.8 -7.55 32.4 -4.3 36.9 -5.2 38.0 -3.25 37.7 -1.1 36.25 -2.75 34.9 -1.2 36.05 0.25 35.0 4.15 37.05 8.3 34.3 10.35 34.25 10.4 32.35 8.75 29.6 9.85 29.6 13.3 33.8 16.0 33.75 20.7 31.25 23.8 28.9 23.8 27.35 22.25 29.45 20.5 28.7 19.7 26.6 20.15 25.85 18.95 24.95 20.3 23.5 20.3 23.2 18.95 25.85 16.85 25.2 15.5 23.25 16.4 22.45 15.1 19.1 18.25 18.4 19.85 20.5 19.4 20.55 21.75 22.2 22.85 21.75 24.05 23.85 27.75 22.85 29.55 21.25 30.2 19.15 33.85 20.15 36.05 10.7 36.05 13.75 39.1 8.2 39.1 5.3 37.25 5.6 37.5 3.55 39.7 1.8 36.65 -2.75 38.15 -3.1 37.1 -1.7 36.4 -6.95 35.3 -5.9 33.8 -5.95 33.65 -3.4 32.5 -4.8 31.0 -3.25 29.8 -0.4 32.15 1.0 30.05 -0.35 28.4 0.5 27.2 0.2 26.75 2.3 25.3 6.35 26.1 4.75 20.4 5.8 19.7 4.7 14.05 1.95 11.95 -0.1 13.85 2.45 15.65 1.0 19.0 -0.1 18.05 -2.3 21.2 -0.1 22.55 -1.3 25.05 -3.8 25.4 -3.8 27.25 -3.2 27.9 -4.95 29.65 -5.75 27.95 -7.6 27.95 -7.6 30.85 -7.1 31.55 -9.2 32.95 -10.15 30.6 -13.6 30.85 -14.3 32.65 -17.1 33.5 -21.95 29.8 -20.9 28.55 -22.0 27.55 -21.0 26.05 -21.25 23.15 -25.1 21.65 -25.2 21.7 -28.6 24.65 -30.5 23.5 -31.9 20.1 -30.7 17.65 -31.7 13.75 -30.6 12.3 -31.9 10.75 -32.0 10.65 -33.15 9.2 -31.9 9.2 -29.65 6.2 -31.6 3.4 -37.15 4.15 -35.8 1.45 -36.8 -2.45 -35.7 -3.9 -37.0 -5.45 -36.8 -5.75 -31.1 -5.45 -29.8 -6.35 -29.35 -5.05 -27.35 -6.2 -26.45 -4.7 -23.85 -7.25 -21.65 -9.35 -20.45 -10.5 -20.5 -12.65 -21.5 -11.75 -22.1 -12.8 -23.3 -12.5 -23.85 -14.7 -25.9 -15.9 -27.15 -15.2 -28.3 -15.9 -28.75 -15.6 -29.05 -16.0 -29.05 -19.4 -29.15 -19.6 -27.4 -20.45 -24.5 -18.5 -21.7 -20.8 -19.0 -18.1 -15.4 -23.7 -17.8 -24.7 -16.0 -26.75 -16.3 -28.1 -15.45 -29.1 -17.85 -32.2 -17.0 -33.95 -19.9 -34.15 -18.55 -35.5 -16.35 -35.2 -14.35 -38.8 -11.7 -38.45 -12.2 -37.9 -9.05 -35.05 -10.15 -33.8 -5.3 -30.1 -1.85 -31.15 -1.0 -28.7 3.65 -30.95 3.25 -29.8 4.25 -29.8 2.6 -26.1 4.3 -24.95 3.15 -23.55 4.1 -22.6 5.5 -21.3 M17.45 -26.5 L17.45 -28.8 15.5 -27.95 15.5 -25.85 17.45 -23.95 19.1 -25.85 17.45 -26.5 M23.75 -7.85 L23.75 -10.15 21.8 -9.3 21.8 -7.15 23.75 -5.3 25.4 -7.15 23.75 -7.85 M22.4 -21.1 L20.5 -20.3 20.5 -18.15 22.45 -16.3 24.1 -18.15 22.4 -18.85 22.4 -21.1 M19.95 -1.4 L19.95 -0.65 18.05 1.25 17.05 -0.05 15.8 1.15 15.8 3.55 17.0 4.25 17.0 5.65 19.2 6.6 19.8 4.6 18.9 3.4 20.5 0.1 22.55 0.1 21.15 -0.95 19.95 -1.4 M3.7 -19.1 L1.85 -19.1 1.85 -16.25 3.85 -15.5 4.85 -17.4 3.7 -19.1 M20.75 -5.65 L19.9 -4.25 23.15 -3.1 20.75 -5.65 M24.2 -2.05 L23.95 0.1 22.55 1.15 22.55 1.65 23.95 5.3 27.25 5.3 27.65 6.25 31.6 4.25 25.6 2.5 26.9 1.1 24.95 -0.05 25.75 -1.6 24.2 -2.05 M-17.2 23.25 L-19.05 23.25 -19.05 26.1 -17.0 26.85 -16.0 24.95 -17.2 23.25 M-6.5 7.85 L-8.35 7.85 -8.35 10.7 -6.35 11.45 -5.35 9.55 -6.5 7.85 M-23.8 -2.9 L-23.8 -0.05 -21.75 0.7 -20.75 -1.2 -21.95 -2.9 -23.8 -2.9 M-20.45 -10.45 L-20.45 -7.6 -18.4 -6.85 -17.4 -8.75 -18.55 -10.45 -20.45 -10.45 M-10.5 20.95 L-9.4 23.05 -7.0 21.55 -6.15 23.05 -3.2 21.5 -4.25 19.85 -6.35 20.2 -6.8 16.45 -7.15 16.3 -6.75 14.85 -9.85 14.2 -12.65 18.05 -11.8 21.2 -10.5 20.95 M11.4 13.85 L11.0 11.95 7.1 14.9 8.15 16.3 8.15 18.0 10.8 21.25 13.85 20.3 14.2 20.55 13.6 22.7 15.55 23.8 17.8 21.8 16.9 20.3 16.45 19.4 14.5 18.95 15.8 17.75 14.05 16.15 14.0 16.25 13.65 16.05 11.75 15.55 11.45 14.15 11.4 13.85 M-19.85 12.4 L-20.05 12.15 -20.9 12.7 -20.8 12.9 -19.85 12.4" fill="url(#gradient3)" fill-rule="evenodd" stroke="none"/>
      <path d="M5.5 -21.3 L4.1 -22.6 4.75 -23.35 8.5 -22.55 8.2 -22.4 5.5 -21.3 M-21.65 -9.35 L-23.85 -7.25 -24.05 -7.15 -24.35 -9.25 -25.95 -9.8 -28.0 -10.5 -27.95 -12.0 -24.1 -13.25 -23.85 -12.9 -25.15 -12.0 -23.95 -10.75 -22.7 -10.85 -21.65 -9.35 M7.6 -21.25 L7.65 -21.1 7.55 -21.2 7.6 -21.25 M11.4 13.85 L11.45 14.15 11.3 14.45 11.4 13.85" fill="url(#gradient4)" fill-rule="evenodd" stroke="none"/>
    </g>
    <radialGradient cx="0" cy="0" gradientTransform="matrix(0.0504, 0.0, 0.0, 0.0504, -0.1, -0.1)" gradientUnits="userSpaceOnUse" id="gradient3" r="819.2" spreadMethod="pad">
      <stop offset="0.5215686274509804" stop-color="#133a01" stop-opacity="0.4509804"/>
      <stop offset="1.0" stop-color="#221e00" stop-opacity="0.0"/>
    </radialGradient>
    <radialGradient cx="0" cy="0" gradientTransform="matrix(0.042, 0.0, 0.0, 0.042, 0.0, 0.0)" gradientUnits="userSpaceOnUse" id="gradient4" r="819.2" spreadMethod="pad">
      <stop offset="0.5215686274509804" stop-color="#133a01" stop-opacity="0.4509804"/>
      <stop offset="1.0" stop-color="#221e00" stop-opacity="0.0"/>
    </radialGradient>
    <g id="sprite3" transform="matrix(1.0, 0.0, 0.0, 1.0, 25.4, 38.8)">
      <use height="64.0" transform="matrix(1.0, 0.0, 0.0, 1.0, -25.4, -38.8)" width="63.4" xlink:href="#shape5"/>
    </g>
    <g id="shape5" transform="matrix(1.0, 0.0, 0.0, 1.0, 25.4, 38.8)">
      <path d="M5.5 -21.3 L6.0 -20.8 5.8 -19.95 6.5 -19.55 4.7 -17.8 7.55 -16.65 7.55 -18.2 10.3 -19.05 9.5 -20.2 10.55 -21.2 8.5 -22.55 7.35 -23.3 8.95 -25.55 9.1 -25.45 13.6 -26.95 12.2 -29.4 16.35 -29.65 18.2 -33.85 20.45 -33.65 22.0 -32.15 26.35 -31.7 26.95 -24.75 24.4 -23.25 23.95 -19.55 27.05 -18.1 31.75 -21.8 36.0 -19.75 37.4 -15.55 36.1 -12.8 33.9 -11.65 33.5 -11.8 33.5 -14.1 31.6 -13.25 31.6 -11.15 32.05 -10.7 31.05 -10.2 29.8 -7.55 32.4 -4.3 36.9 -5.2 38.0 -3.25 37.7 -1.1 36.25 -2.75 34.9 -1.2 36.05 0.25 35.0 4.15 37.0 8.15 34.0 10.15 32.35 8.75 29.6 9.85 29.6 13.05 25.3 15.65 25.2 15.5 23.25 16.4 22.45 15.1 19.1 18.25 18.8 19.0 16.7 19.95 16.45 19.4 14.5 18.95 15.8 17.75 14.05 16.15 14.0 16.25 13.65 16.05 11.75 15.55 11.45 14.15 11.4 13.85 11.0 11.95 7.1 14.9 8.15 16.3 8.15 18.0 10.8 21.25 13.85 20.3 14.2 20.55 14.05 21.0 Q9.9 22.6 5.7 23.7 L4.75 20.4 5.8 19.7 4.7 14.05 1.95 11.95 -0.1 13.85 2.45 15.65 1.0 19.0 -0.1 18.05 -2.3 21.2 -0.1 22.55 -1.3 25.05 -2.25 25.2 -2.55 25.05 Q-5.95 23.55 -7.95 22.15 L-7.0 21.55 -6.15 23.05 -3.2 21.5 -4.25 19.85 -6.35 20.2 -6.8 16.45 -7.15 16.3 -6.75 14.85 -9.85 14.2 -12.45 17.75 -14.75 14.4 Q-18.3 8.55 -21.25 -0.3 L-20.75 -1.2 -21.95 -2.9 -22.05 -2.9 -22.75 -5.25 -23.4 -7.65 -21.65 -9.35 -20.45 -10.5 -20.5 -12.65 -21.5 -11.75 -22.1 -12.8 -23.3 -12.5 -23.85 -14.7 -25.05 -15.4 -25.4 -19.1 -24.5 -18.5 -21.7 -20.8 -19.0 -18.1 -15.4 -23.7 -17.8 -24.7 -16.0 -26.75 -16.3 -28.1 -15.45 -29.1 -17.85 -32.2 -17.0 -33.95 -19.9 -34.15 -18.55 -35.5 -16.35 -35.2 -14.35 -38.8 -11.7 -38.45 -12.2 -37.9 -9.05 -35.05 -10.15 -33.8 -5.3 -30.1 -1.85 -31.15 -1.0 -28.7 3.65 -30.95 3.25 -29.8 4.25 -29.8 2.6 -26.1 4.3 -24.95 3.15 -23.55 4.1 -22.6 5.5 -21.3 M17.45 -26.5 L17.45 -28.8 15.5 -27.95 15.5 -25.85 17.45 -23.95 19.1 -25.85 17.45 -26.5 M21.8 -9.3 L21.8 -7.15 23.75 -5.3 25.4 -7.15 23.75 -7.85 23.75 -10.15 21.8 -9.3 M22.4 -18.85 L22.4 -21.1 20.5 -20.3 20.5 -18.15 22.45 -16.3 24.1 -18.15 22.4 -18.85 M19.95 -1.4 L19.95 -0.65 18.05 1.25 17.05 -0.05 15.8 1.15 15.8 3.55 17.0 4.25 17.0 5.65 19.2 6.6 19.8 4.6 18.9 3.4 20.5 0.1 22.55 0.1 21.15 -0.95 19.95 -1.4 M3.7 -19.1 L1.85 -19.1 1.85 -16.25 3.85 -15.5 4.85 -17.4 3.7 -19.1 M20.75 -5.65 L19.9 -4.25 23.15 -3.1 20.75 -5.65 M25.75 -1.6 L24.2 -2.05 23.95 0.1 22.55 1.15 22.55 1.65 23.95 5.3 27.25 5.3 27.65 6.25 31.6 4.25 25.6 2.5 26.9 1.1 24.95 -0.05 25.75 -1.6 M-8.35 7.85 L-8.35 10.7 -6.35 11.45 -5.35 9.55 -6.5 7.85 -8.35 7.85 M-20.45 -10.45 L-20.45 -7.6 -18.4 -6.85 -17.4 -8.75 -18.55 -10.45 -20.45 -10.45" fill="url(#gradient5)" fill-rule="evenodd" stroke="none"/>
      <path d="M5.5 -21.3 L4.1 -22.6 4.75 -23.35 8.5 -22.55 8.2 -22.4 5.5 -21.3 M-21.65 -9.35 L-23.4 -7.65 -24.45 -11.25 -23.95 -10.75 -22.7 -10.85 -21.65 -9.35 M11.4 13.85 L11.45 14.15 11.3 14.45 11.4 13.85 M7.6 -21.25 L7.65 -21.1 7.55 -21.2 7.6 -21.25 M-24.85 -13.0 L-24.1 -13.25 -23.85 -12.9 -24.75 -12.25 -24.8 -12.55 -24.85 -13.0" fill="url(#gradient6)" fill-rule="evenodd" stroke="none"/>
    </g>
    <radialGradient cx="0" cy="0" gradientTransform="matrix(0.0504, 0.0, 0.0, 0.0504, -0.1, -0.1)" gradientUnits="userSpaceOnUse" id="gradient5" r="819.2" spreadMethod="pad">
      <stop offset="0.5215686274509804" stop-color="#133a01" stop-opacity="0.4509804"/>
      <stop offset="1.0" stop-color="#221e00" stop-opacity="0.0"/>
    </radialGradient>
    <radialGradient cx="0" cy="0" gradientTransform="matrix(0.042, 0.0, 0.0, 0.042, 0.0, 0.0)" gradientUnits="userSpaceOnUse" id="gradient6" r="819.2" spreadMethod="pad">
      <stop offset="0.5215686274509804" stop-color="#133a01" stop-opacity="0.4509804"/>
      <stop offset="1.0" stop-color="#221e00" stop-opacity="0.0"/>
    </radialGradient>
    <g id="sprite4" transform="matrix(1.0, 0.0, 0.0, 1.0, 0.0, 0.0)">
      <use height="707.8" transform="matrix(1.0, 0.0, 0.0, 1.0, 0.0, 0.0)" width="707.8" xlink:href="#shape6"/>
    </g>
    <g id="shape6" transform="matrix(1.0, 0.0, 0.0, 1.0, 0.0, 0.0)">
      <path d="M604.15 103.65 Q707.8 207.3 707.8 353.9 707.8 500.5 604.15 604.15 500.5 707.8 353.9 707.8 207.3 707.8 103.65 604.15 0.0 500.5 0.0 353.9 0.0 207.3 103.65 103.65 207.3 0.0 353.9 0.0 500.5 0.0 604.15 103.65" fill="url(#gradient7)" fill-rule="evenodd" stroke="none"/>
    </g>
    <radialGradient cx="0" cy="0" gradientTransform="matrix(0.4357, 0.0, 0.0, 0.4357, 353.9, 353.9)" gradientUnits="userSpaceOnUse" id="gradient7" r="819.2" spreadMethod="pad">
      <stop offset="0.22745098039215686" stop-color="#ff6699" stop-opacity="0.09803922"/>
      <stop offset="1.0" stop-color="#ff6699" stop-opacity="0.0"/>
    </radialGradient>
    <g id="shape7" transform="matrix(1.0, 0.0, 0.0, 1.0, -27.15, -35.4)">
      <path d="M95.25 60.0 Q95.5 62.05 93.9 63.65 92.4 65.3 89.95 65.45 87.55 65.6 85.6 64.3 83.8 62.9 83.6 60.9 83.35 58.75 84.85 57.15 86.45 55.65 88.85 55.5 91.3 55.3 93.15 56.55 95.05 57.9 95.25 60.0 M85.3 67.5 Q86.2 68.2 86.3 69.15 86.4 70.1 85.65 70.8 84.9 71.6 83.8 71.65 82.65 71.75 81.8 71.1 80.95 70.5 80.8 69.55 80.7 68.6 81.45 67.75 82.15 67.1 83.3 67.05 84.4 66.95 85.3 67.5 M33.6 41.05 Q35.0 38.35 36.95 36.75 38.95 35.1 40.25 35.5 41.55 35.95 41.5 38.25 41.4 40.5 39.95 43.25 38.45 46.05 36.5 47.7 34.55 49.35 33.2 48.9 31.9 48.5 31.95 46.2 32.1 43.85 33.6 41.05 M30.65 61.7 Q30.4 63.2 29.7 64.35 29.05 65.45 28.35 65.45 27.65 65.5 27.3 64.35 27.05 63.2 27.25 61.65 27.55 60.15 28.15 59.15 28.85 58.0 29.55 58.0 30.15 58.0 30.55 59.05 30.9 60.15 30.65 61.7 M35.8 50.15 Q37.4 48.55 38.6 48.8 39.75 49.1 39.95 51.15 40.0 53.15 38.9 55.7 37.75 58.25 36.15 59.9 34.5 61.5 33.3 61.2 32.1 60.95 32.0 58.85 32.0 56.75 33.1 54.2 34.15 51.7 35.8 50.15 M77.0 52.85 Q79.85 54.85 80.2 57.95 80.5 61.15 78.15 63.55 75.8 65.95 72.1 66.25 68.45 66.55 65.55 64.5 62.7 62.45 62.4 59.25 62.05 56.2 64.4 53.8 66.8 51.35 70.45 51.1 74.1 50.8 77.0 52.85" fill="#46555b" fill-opacity="0.18039216" fill-rule="evenodd" stroke="none"/>
      <path d="M64.0 58.2 Q67.1 71.45 75.9 81.05 77.7 83.15 80.7 83.45 80.6 86.7 82.5 89.25 86.1 93.95 92.2 95.7 L92.2 96.35 92.0 97.25 91.75 98.1 91.2 98.95 89.55 101.2 91.3 102.85 93.8 104.25 96.55 105.05 93.85 106.8 Q88.25 106.0 82.9 104.4 L79.35 103.3 79.5 102.75 78.5 102.8 Q77.4 102.55 76.85 101.6 74.65 97.8 78.35 93.35 L74.95 92.95 74.95 92.75 75.1 92.15 75.45 91.55 75.9 91.05 76.5 90.5 76.9 90.15 76.65 89.55 Q75.75 88.75 74.55 88.3 72.0 87.15 69.95 85.4 L70.25 83.4 70.0 82.7 Q67.25 80.25 68.45 76.1 63.35 68.25 64.0 58.2" fill="#ffffff" fill-opacity="0.101960786" fill-rule="evenodd" stroke="none"/>
      <path d="M96.55 105.05 L96.7 105.1 92.4 107.95 Q86.8 107.15 81.45 105.55 L77.9 104.45 78.05 103.9 77.05 103.95 Q75.95 103.7 75.4 102.75 73.2 98.95 76.9 94.45 L73.5 94.1 73.5 93.9 73.65 93.3 74.0 92.7 74.45 92.2 75.05 91.65 75.45 91.3 75.2 90.7 Q74.3 89.9 73.1 89.45 70.55 88.3 68.55 86.55 L68.75 84.55 68.55 83.85 Q65.8 81.4 67.0 77.25 60.65 67.55 63.2 54.3 L64.0 58.2 Q63.35 68.25 68.45 76.1 67.25 80.25 70.0 82.7 L70.25 83.4 69.95 85.4 Q72.0 87.15 74.55 88.3 75.75 88.75 76.65 89.55 L76.9 90.15 76.5 90.5 75.9 91.05 75.45 91.55 75.1 92.15 74.95 92.75 74.95 92.95 78.35 93.35 Q74.65 97.8 76.85 101.6 77.4 102.55 78.5 102.8 L79.5 102.75 79.35 103.3 82.9 104.4 Q88.25 106.0 93.85 106.8 L96.55 105.05" fill="#ffffff" fill-opacity="0.18039216" fill-rule="evenodd" stroke="none"/>
    </g>
    <g id="shape8" transform="matrix(1.0, 0.0, 0.0, 1.0, -4.15, -10.55)">
      <path d="M28.3 11.25 Q28.25 11.5 27.8 11.7 L27.75 11.7 26.5 11.9 25.25 11.7 25.2 11.7 Q24.65 11.5 24.65 11.2 L24.7 11.05 Q24.8 10.85 25.2 10.75 L25.4 10.7 26.5 10.55 27.0 10.6 27.75 10.75 28.3 11.2 28.3 11.25 M27.7 11.55 L27.7 11.45 27.75 11.35 27.75 11.25 27.35 11.05 26.5 10.9 25.6 11.05 25.2 11.35 25.3 11.5 25.6 11.7 25.75 11.75 26.1 11.8 26.5 11.8 26.55 11.8 27.35 11.7 27.7 11.55" fill="#000000" fill-opacity="0.2" fill-rule="evenodd" stroke="none"/>
      <path d="M27.7 11.55 L27.35 11.7 26.55 11.8 26.5 11.8 26.1 11.8 25.75 11.75 25.6 11.7 25.3 11.5 25.6 11.35 26.5 11.2 27.35 11.35 27.7 11.55" fill="#000000" fill-opacity="0.7019608" fill-rule="evenodd" stroke="none"/>
      <path d="M25.3 11.5 L25.2 11.35 25.6 11.05 26.5 10.9 27.35 11.05 27.75 11.25 27.75 11.35 27.7 11.45 27.7 11.55 27.35 11.35 26.5 11.2 25.6 11.35 25.3 11.5" fill="#000000" fill-opacity="0.3019608" fill-rule="evenodd" stroke="none"/>
      <path d="M6.15 27.85 L6.35 27.7 6.45 27.65 6.65 27.55 8.2 27.4 Q9.7 27.65 10.8 29.05 11.9 30.45 11.9 32.25 L11.85 33.05 11.85 33.2 Q11.65 34.15 11.1 34.85 L10.8 35.2 Q9.7 36.3 8.2 36.05 6.65 35.85 5.6 34.4 4.5 32.95 4.5 31.15 4.5 29.4 5.6 28.25 5.8 28.0 6.15 27.85" fill="#000000" fill-opacity="0.101960786" fill-rule="evenodd" stroke="none"/>
      <path d="M6.7 26.65 L8.35 26.45 Q10.0 26.65 11.2 28.25 12.35 29.8 12.35 31.7 L12.25 32.75 11.5 34.55 11.3 34.75 11.25 34.75 12.1 32.9 12.15 31.95 Q12.15 30.0 11.0 28.45 9.8 26.9 8.15 26.65 L6.5 26.85 6.2 26.95 5.55 27.4 6.45 26.75 6.7 26.65 M4.2 29.85 Q4.4 28.65 5.2 27.7 4.55 28.6 4.4 29.65 L4.4 29.9 4.35 30.5 Q4.35 32.5 5.55 34.0 6.7 35.6 8.35 35.85 9.65 36.0 10.6 35.35 L10.9 35.15 10.4 35.55 Q9.4 36.25 8.15 36.05 6.5 35.8 5.3 34.25 4.15 32.7 4.15 30.75 L4.2 30.15 4.2 29.85" fill="#000000" fill-opacity="0.101960786" fill-rule="evenodd" stroke="none"/>
      <path d="M6.7 28.1 L6.65 28.15 6.7 28.1" fill="#ffffff" fill-rule="evenodd" stroke="none"/>
      <path d="M6.65 28.15 L6.7 28.1 6.9 28.0 8.2 27.85 Q9.5 28.05 10.4 29.25 11.35 30.45 11.35 31.95 L11.25 32.65 11.25 32.8 10.75 33.45 9.95 34.0 8.75 34.15 Q7.5 33.95 6.7 32.9 5.85 31.75 5.85 30.4 5.85 29.2 6.45 28.45 L6.5 28.35 6.65 28.15" fill="#f4f3d7" fill-rule="evenodd" stroke="none"/>
      <path d="M6.65 28.15 L6.5 28.35 6.45 28.45 Q5.85 29.2 5.85 30.4 5.85 31.75 6.7 32.9 7.5 33.95 8.75 34.15 L9.95 34.0 10.75 33.45 11.25 32.8 Q11.1 33.55 10.6 34.15 L10.4 34.45 Q9.5 35.4 8.2 35.15 6.95 35.0 6.0 33.8 5.05 32.6 5.05 31.05 5.05 29.55 6.0 28.6 6.2 28.35 6.45 28.25 L6.65 28.15" fill="#ecebb5" fill-rule="evenodd" stroke="none"/>
      <path d="M6.65 28.15 L6.7 28.1 M11.25 32.8 L11.25 32.65 11.35 31.95 Q11.35 30.45 10.4 29.25 9.5 28.05 8.2 27.85 L6.9 28.0 6.7 28.1 M11.25 32.8 Q11.1 33.55 10.6 34.15 L10.4 34.45 Q9.5 35.4 8.2 35.15 6.95 35.0 6.0 33.8 5.05 32.6 5.05 31.05 5.05 29.55 6.0 28.6 6.2 28.35 6.45 28.25 L6.65 28.15 Z" fill="none" stroke="#000000" stroke-linecap="round" stroke-linejoin="round" stroke-opacity="0.101960786" stroke-width="0.05"/>
      <path d="M8.5 31.1 L8.55 31.1 8.6 31.05 8.95 31.05 9.6 31.4 9.85 32.15 9.85 32.35 9.85 32.45 9.65 32.8 9.6 32.9 8.95 33.1 8.35 32.7 Q8.05 32.35 8.05 31.95 8.05 31.55 8.35 31.25 L8.5 31.1" fill="#3d3710" fill-opacity="0.5019608" fill-rule="evenodd" stroke="none"/>
      <path d="M8.85 31.6 L8.9 31.6 8.9 31.55 9.1 31.55 9.45 31.75 9.6 32.2 9.6 32.3 9.6 32.35 9.5 32.55 9.45 32.6 9.1 32.75 8.75 32.5 8.6 32.05 8.75 31.65 8.85 31.6" fill="#3d3710" fill-rule="evenodd" stroke="none"/>
      <path d="M43.05 13.6 L41.05 13.45 Q40.5 13.9 41.25 15.25 42.0 16.6 43.5 18.0 45.05 19.4 46.45 20.05 L48.45 20.25 Q49.0 19.75 48.25 18.4 47.55 17.05 46.0 15.65 44.5 14.25 43.05 13.6" fill="#000000" fill-opacity="0.101960786" fill-rule="evenodd" stroke="none"/>
    </g>
    <g id="sprite5" transform="matrix(1.0, 0.0, 0.0, 1.0, 0.5, 0.0)">
      <use height="19.8" transform="matrix(1.0, 0.0, 0.0, 1.0, -0.5, 1.95)" width="48.0" xlink:href="#shape9"/>
      <use height="46.1" transform="matrix(0.4496, 0.1613, -0.113, 0.2387, 19.15, 0.0)" width="65.1" xlink:href="#sprite6"/>
    </g>
    <g id="shape9" transform="matrix(1.0, 0.0, 0.0, 1.0, 0.5, -1.95)">
      <path d="M47.0 15.05 L47.0 15.25 Q47.0 17.75 40.1 19.5 L34.7 20.55 Q33.1 11.75 28.55 5.55 L28.7 5.5 Q30.85 5.2 30.85 4.7 L30.8 4.55 30.85 3.35 32.15 3.8 32.4 3.9 Q40.1 8.3 47.0 15.05" fill="#d1d1a7" fill-rule="evenodd" stroke="none"/>
      <path d="M32.4 3.9 Q41.55 7.25 46.45 13.9 L47.0 15.05 Q40.1 8.3 32.4 3.9" fill="#e0e0b3" fill-rule="evenodd" stroke="none"/>
      <path d="M0.7 16.75 Q0.0 16.05 0.0 15.25 0.0 14.65 0.4 14.15 5.0 6.9 16.0 3.25 L16.75 3.15 16.75 3.2 16.8 3.15 Q25.35 1.7 30.55 3.25 L30.85 3.35 30.8 4.55 Q30.5 4.15 28.7 3.85 L23.55 3.55 18.4 3.85 Q16.85 4.1 16.45 4.45 L16.75 3.2 Q7.05 8.25 0.7 16.75" fill="#919174" fill-rule="evenodd" stroke="none"/>
      <path d="M30.8 4.55 L30.85 4.7 Q30.85 5.2 28.7 5.5 L28.55 5.55 23.55 5.85 18.7 5.55 18.4 5.5 Q16.25 5.2 16.25 4.7 L16.45 4.45 Q16.85 4.1 18.4 3.85 L23.55 3.55 28.7 3.85 Q30.5 4.15 30.8 4.55" fill="#3e4035" fill-rule="evenodd" stroke="none"/>
      <path d="M34.7 20.55 L23.5 21.25 10.3 20.25 Q13.5 10.2 18.7 5.55 L23.55 5.85 28.55 5.55 Q33.1 11.75 34.7 20.55" fill="#bfbf98" fill-rule="evenodd" stroke="none"/>
      <path d="M10.3 20.25 L6.85 19.5 Q2.15 18.3 0.7 16.75 7.05 8.25 16.75 3.2 L16.45 4.45 16.25 4.7 Q16.25 5.2 18.4 5.5 L18.7 5.55 Q13.5 10.2 10.3 20.25" fill="#a8a886" fill-rule="evenodd" stroke="none"/>
      <path d="M47.0 15.05 L47.0 15.25 Q47.0 17.75 40.1 19.5 L34.7 20.55 23.5 21.25 10.3 20.25 6.85 19.5 Q2.15 18.3 0.7 16.75 0.0 16.05 0.0 15.25 0.0 14.65 0.4 14.15 5.0 6.9 16.0 3.25 L16.75 3.15 16.8 3.15 Q25.35 1.7 30.55 3.25 L30.85 3.35 32.15 3.8 32.4 3.9 Q41.55 7.25 46.45 13.9 L47.0 15.05 Z" fill="none" stroke="#000000" stroke-linecap="round" stroke-linejoin="round" stroke-opacity="0.3019608" stroke-width="1.0"/>
      <path d="M12.9 16.0 Q16.55 7.1 23.45 6.6 30.35 6.1 33.1 17.3 27.55 11.5 22.9 11.2 18.05 11.0 12.9 16.0 M12.85 4.55 Q9.75 6.5 4.0 12.15 6.3 9.5 5.6 8.45 9.55 5.45 12.85 4.55" fill="#000000" fill-opacity="0.101960786" fill-rule="evenodd" stroke="none"/>
      <path d="M32.9 5.45 Q34.9 5.4 38.95 8.75 42.95 12.1 45.75 15.25 41.55 12.15 38.3 11.7 36.45 11.5 36.1 12.3 35.8 13.05 35.35 16.9 35.4 16.35 34.0 13.6 L31.8 8.95 Q30.95 7.0 30.85 6.25 30.85 5.5 32.9 5.45" fill="#000000" fill-opacity="0.101960786" fill-rule="evenodd" stroke="none"/>
      <path d="M16.6 5.7 Q16.85 6.35 15.15 8.35 13.45 10.35 12.5 12.85 L11.05 15.85 Q11.5 12.5 11.3 11.85 11.05 11.05 9.05 11.45 7.0 11.8 2.85 15.05 5.8 11.9 8.5 9.7 13.85 5.4 15.1 5.25 16.3 5.05 16.6 5.7" fill="#000000" fill-opacity="0.101960786" fill-rule="evenodd" stroke="none"/>
    </g>
    <g id="sprite6" transform="matrix(1.0, 0.0, 0.0, 1.0, 0.0, 0.0)">
      <use height="46.1" transform="matrix(1.0, 0.0, 0.0, 1.0, 0.0, 0.0)" width="65.1" xlink:href="#shape10"/>
    </g>
    <g id="shape10" transform="matrix(1.0, 0.0, 0.0, 1.0, 0.0, 0.0)">
      <path d="M65.1 23.05 Q65.1 32.6 55.55 39.35 46.05 46.1 32.55 46.1 19.05 46.1 9.5 39.35 0.0 32.6 0.0 23.05 0.0 13.5 9.5 6.75 19.05 0.0 32.55 0.0 46.05 0.0 55.55 6.75 65.1 13.5 65.1 23.05" fill="#ffffcc" fill-rule="evenodd" stroke="none"/>
    </g>
    <g id="shape11" transform="matrix(1.0, 0.0, 0.0, 1.0, -34.2, -18.35)">
      <path d="M41.0 20.85 L41.05 20.75 Q41.05 20.0 40.7 19.35 L40.55 19.15 Q40.1 18.5 39.45 18.4 L39.3 18.35 Q38.8 18.3 38.4 18.6 L38.2 18.8 Q37.75 19.35 37.75 20.05 L37.75 20.25 37.75 20.9 Q37.05 20.45 36.25 20.55 L36.15 20.6 Q35.45 20.8 34.9 21.45 L34.6 21.95 Q34.15 22.8 34.25 23.85 L34.25 24.15 Q34.45 25.35 35.3 26.0 L35.4 26.1 35.4 26.15 36.2 26.45 37.1 26.45 37.2 26.35 Q38.0 26.15 38.45 25.35 L38.55 25.4 38.55 25.3 38.6 25.2 38.65 25.15 39.0 23.95 39.0 23.55 38.95 23.1 38.95 22.9 38.9 22.5 38.95 22.5 39.4 22.6 39.45 22.65 Q40.05 22.65 40.45 22.3 L40.5 22.25 40.55 22.2 40.55 22.15 40.95 21.4 41.0 21.15 41.0 20.85" fill="#000000" fill-opacity="0.3019608" fill-rule="evenodd" stroke="none"/>
    </g>
    <g id="sprite7" transform="matrix(1.0, 0.0, 0.0, 1.0, 0.0, 0.0)">
      <use height="83.45" transform="matrix(1.0, 0.0, 0.0, 1.0, 7.15, 8.8)" width="83.5" xlink:href="#shape12"/>
      <use height="46.1" transform="matrix(1.062, -0.4253, 0.4253, 1.062, 0.0, 27.7)" width="65.1" xlink:href="#sprite6"/>
    </g>
    <g id="shape12" transform="matrix(1.0, 0.0, 0.0, 1.0, -7.15, -8.8)">
      <path d="M7.75 47.75 Q8.65 32.35 19.75 21.3 L20.5 20.6 21.2 22.5 Q24.15 30.2 29.15 38.3 L29.15 38.35 29.05 38.4 28.9 38.5 28.9 38.55 28.85 38.8 27.3 41.3 Q25.65 43.7 24.4 48.9 L24.45 49.45 7.75 47.75 M46.9 9.35 L48.9 9.3 Q65.2 9.3 76.95 20.2 61.85 27.1 49.8 37.4 L48.1 38.85 48.05 38.9 47.9 38.75 Q43.25 35.9 40.75 35.2 L38.1 34.5 37.8 34.6 37.85 34.4 Q40.75 20.3 46.5 10.05 L46.9 9.35" fill="#d3d3a8" fill-rule="evenodd" stroke="none"/>
      <path d="M76.95 20.2 L78.1 21.3 Q90.15 33.35 90.15 50.5 L90.0 54.45 Q70.15 53.85 54.3 51.55 L54.05 51.5 52.25 51.2 52.25 51.25 52.2 51.1 51.4 47.55 Q50.8 44.4 49.5 41.65 L48.1 38.9 48.1 38.85 49.8 37.4 Q61.85 27.1 76.95 20.2 M16.15 75.65 Q7.65 64.85 7.65 50.5 L7.75 47.75 24.45 49.45 24.95 51.65 27.25 59.3 27.35 59.55 27.95 60.05 Q20.95 68.1 16.15 75.65" fill="#c2c29a" fill-rule="evenodd" stroke="none"/>
      <path d="M90.0 54.45 Q88.75 69.05 78.1 79.7 L72.55 84.45 Q56.9 74.1 46.95 62.3 L46.85 62.2 48.9 58.9 51.0 54.55 51.3 53.8 52.25 51.25 52.25 51.2 54.05 51.5 54.3 51.55 Q70.15 53.85 90.0 54.45 M46.9 91.7 Q31.1 91.05 19.75 79.7 L16.15 75.65 Q20.95 68.1 27.95 60.05 L30.45 61.8 Q33.0 63.45 38.05 65.35 40.5 78.5 46.9 91.7 M30.9 38.6 L29.8 40.3 29.0 41.75 Q28.0 43.7 27.2 46.75 L26.9 47.9 26.95 48.45 27.25 49.85 29.6 57.8 27.25 59.3 24.95 51.65 24.45 49.45 24.4 48.9 Q25.65 43.7 27.3 41.3 L28.85 38.8 28.9 38.55 28.9 38.5 29.05 38.4 29.15 38.35 Q31.2 36.95 34.2 35.8 L35.2 35.45 34.55 35.75 34.4 35.8 Q32.85 36.5 31.65 37.35 L31.4 37.5 30.9 38.6" fill="#acac89" fill-rule="evenodd" stroke="none"/>
      <path d="M20.5 20.6 Q31.6 10.0 46.9 9.35 L46.5 10.05 Q40.75 20.3 37.85 34.4 L37.8 34.6 37.45 34.7 35.2 35.45 34.2 35.8 Q31.2 36.95 29.15 38.35 L29.15 38.3 Q24.15 30.2 21.2 22.5 L20.5 20.6 M48.1 38.85 L48.1 38.9 48.05 38.9 48.1 38.85 M29.6 57.8 L29.85 58.55 30.45 59.05 32.95 60.8 Q35.5 62.45 40.55 64.35 L46.65 62.35 45.7 62.75 43.7 63.6 42.6 64.05 42.45 64.1 40.05 64.9 38.1 65.35 38.05 65.35 Q33.0 63.45 30.45 61.8 L27.95 60.05 27.35 59.55 27.25 59.3 29.6 57.8" fill="#e1e1b3" fill-rule="evenodd" stroke="none"/>
      <path d="M52.2 51.1 L52.25 51.25 52.2 51.25 52.2 51.1 M34.55 35.75 L34.6 35.8 34.45 35.85 Q32.7 36.6 30.9 38.6 L31.4 37.5 31.65 37.35 Q32.85 36.5 34.4 35.8 L34.55 35.75 M43.7 63.6 L45.7 62.75 44.85 63.15 43.7 63.6" fill="#6c6e5a" fill-rule="evenodd" stroke="none"/>
      <path d="M48.1 38.9 L49.5 41.65 Q50.8 44.4 51.4 47.55 L52.2 51.1 52.2 51.25 52.25 51.25 51.3 53.8 51.0 54.55 48.9 58.9 46.85 62.2 46.65 62.35 40.55 64.35 Q35.5 62.45 32.95 60.8 L30.45 59.05 29.85 58.55 29.6 57.8 27.25 49.85 26.95 48.45 26.9 47.9 27.2 46.75 Q28.0 43.7 29.0 41.75 L29.8 40.3 30.9 38.6 Q32.7 36.6 34.45 35.85 L34.6 35.8 34.55 35.75 35.2 35.45 37.45 34.7 37.8 34.6 38.1 34.5 40.75 35.2 Q43.25 35.9 47.9 38.75 L48.05 38.9 48.1 38.9" fill="#47493c" fill-rule="evenodd" stroke="none"/>
      <path d="M72.55 84.45 Q62.25 91.75 48.9 91.75 L46.9 91.7 Q40.5 78.5 38.05 65.35 L38.1 65.35 40.05 64.9 42.45 64.1 42.6 64.05 43.7 63.6 44.85 63.15 45.7 62.75 46.65 62.35 46.85 62.2 46.95 62.3 Q56.9 74.1 72.55 84.45" fill="#969678" fill-rule="evenodd" stroke="none"/>
      <path d="M76.95 20.2 L78.1 21.3 Q90.15 33.35 90.15 50.5 L90.0 54.45 Q88.75 69.05 78.1 79.7 L72.55 84.45 Q62.25 91.75 48.9 91.75 L46.9 91.7 Q31.1 91.05 19.75 79.7 L16.15 75.65 Q7.65 64.85 7.65 50.5 L7.75 47.75 Q8.65 32.35 19.75 21.3 L20.5 20.6 Q31.6 10.0 46.9 9.35 L48.9 9.3 Q65.2 9.3 76.95 20.2 Z" fill="none" stroke="#0d0d0a" stroke-linecap="round" stroke-linejoin="round" stroke-opacity="0.3019608" stroke-width="1.0"/>
      <path d="M38.35 19.65 L42.3 14.7 41.65 16.1 39.1 22.25 Q37.25 27.4 36.25 29.0 34.15 32.55 31.1 32.55 28.85 32.55 25.0 25.95 21.85 20.55 21.25 18.2 26.7 22.25 32.25 22.25 35.85 22.25 38.35 19.65 M44.9 18.25 Q46.15 15.4 48.8 10.9 49.35 25.65 60.15 25.65 62.9 25.65 65.85 24.45 L63.25 25.9 56.75 29.8 Q52.5 32.3 49.55 32.3 47.35 32.3 45.25 30.85 42.8 29.1 42.8 26.45 42.8 23.05 44.9 18.25 M18.8 26.7 Q26.05 38.7 26.05 39.25 26.05 47.6 16.55 47.6 L11.55 47.1 9.7 46.75 Q13.5 46.2 16.35 43.35 20.15 39.65 20.15 34.15 20.15 31.95 19.6 29.55 L18.8 26.7 M20.85 64.85 L19.1 66.95 19.55 65.6 Q20.15 63.6 20.15 61.5 20.15 58.0 16.05 54.75 13.0 52.3 8.75 50.75 L8.3 50.55 9.05 50.8 Q12.7 51.85 19.65 52.25 24.8 53.35 24.8 58.95 24.8 60.1 20.85 64.85 M34.9 68.95 Q36.25 71.05 37.15 75.0 38.05 78.5 39.7 81.85 L41.8 86.4 Q40.15 83.75 37.3 80.6 31.05 73.75 26.3 73.75 22.35 73.75 19.25 75.95 L22.1 71.45 Q26.3 65.8 29.75 65.8 32.95 65.8 34.9 68.95 M60.4 55.25 L72.55 56.1 75.85 56.4 Q70.7 56.95 68.4 59.3 66.0 61.8 66.0 67.4 66.0 77.1 72.5 82.95 66.5 78.55 61.9 74.55 52.9 66.65 52.9 62.75 52.9 58.8 54.85 57.0 56.65 55.25 60.4 55.25 M64.4 50.95 Q54.15 49.65 54.15 40.8 54.15 36.15 63.7 30.45 71.1 26.0 78.8 23.8 65.75 33.65 65.75 43.75 65.75 47.35 68.5 49.3 70.95 51.0 75.3 51.45 L74.4 51.4 64.4 50.95 M65.0 81.55 Q63.2 80.6 60.9 79.65 56.05 77.65 53.4 77.65 49.85 77.65 48.45 79.85 47.25 81.8 47.25 86.5 L47.3 88.6 45.65 83.7 Q43.3 76.4 43.3 73.25 43.3 69.0 47.15 69.0 49.75 69.0 58.3 76.4 L65.0 81.55" fill="#0d0d0a" fill-opacity="0.101960786" fill-rule="evenodd" stroke="none"/>
    </g>
    <g id="shape13" transform="matrix(1.0, 0.0, 0.0, 1.0, -35.95, -11.25)">
      <path d="M37.65 11.45 Q36.45 11.05 36.1 11.45 35.75 11.85 36.35 12.85 37.0 13.85 38.3 14.85 39.6 15.85 40.75 16.25 41.95 16.65 42.3 16.25 42.65 15.85 42.05 14.85 L40.1 12.9 Q38.8 11.9 37.65 11.45" fill="#000000" fill-opacity="0.101960786" fill-rule="evenodd" stroke="none"/>
    </g>
    <g id="shape14" transform="matrix(1.0, 0.0, 0.0, 1.0, -42.25, -18.2)">
      <path d="M48.65 27.45 Q48.15 29.15 46.9 29.5 45.6 29.8 44.3 28.6 43.1 27.45 42.55 25.4 42.0 23.4 42.45 21.75 43.0 20.05 44.3 19.75 45.55 19.4 46.8 20.6 48.1 21.75 48.65 23.75 49.2 25.8 48.65 27.45" fill="#000000" fill-opacity="0.101960786" fill-rule="evenodd" stroke="none"/>
      <path d="M44.2 19.1 Q44.55 18.85 44.95 18.75 46.2 18.45 47.4 19.65 L47.6 19.8 47.7 21.55 47.5 21.6 46.85 21.8 44.2 19.1" fill="#e0e0b3" fill-rule="evenodd" stroke="none"/>
      <path d="M47.6 19.8 Q48.5 20.75 49.0 22.15 L48.55 22.5 47.7 21.55 47.6 19.8 M42.95 22.85 Q42.9 21.75 43.2 20.75 43.55 19.6 44.2 19.1 L46.85 21.8 46.65 22.3 46.55 23.05 42.95 22.85" fill="#d1d1a7" fill-rule="evenodd" stroke="none"/>
      <path d="M49.5 25.0 L49.25 26.5 Q48.9 27.7 48.15 28.25 48.3 26.65 48.0 25.05 L48.55 24.35 48.35 22.6 47.5 21.6 47.7 21.55 48.55 22.5 48.7 24.3 48.75 24.25 48.75 24.4 49.5 25.0" fill="#919174" fill-rule="evenodd" stroke="none"/>
      <path d="M46.85 21.8 L47.5 21.6 48.35 22.6 48.55 24.35 48.0 25.05 47.0 24.35 46.75 23.75 46.6 23.2 46.55 23.05 46.65 22.3 46.85 21.8" fill="#3e4035" fill-rule="evenodd" stroke="none"/>
      <path d="M49.0 22.15 L49.25 22.8 Q49.55 23.95 49.5 25.0 L48.75 24.4 48.75 24.25 48.7 24.3 48.55 22.5 49.0 22.15 M44.75 27.35 Q43.7 26.2 43.25 24.4 L42.95 22.85 46.55 23.05 46.6 23.2 46.75 23.75 47.0 24.35 Q46.0 26.15 44.75 27.35" fill="#bfbf98" fill-rule="evenodd" stroke="none"/>
      <path d="M48.15 28.25 L47.55 28.5 Q46.3 28.85 45.05 27.6 L44.75 27.35 Q46.0 26.15 47.0 24.35 L48.0 25.05 Q48.3 26.65 48.15 28.25" fill="#a8a886" fill-rule="evenodd" stroke="none"/>
      <path d="M44.2 19.1 Q44.55 18.85 44.95 18.75 46.2 18.45 47.4 19.65 L47.6 19.8 Q48.5 20.75 49.0 22.15 L49.25 22.8 Q49.55 23.95 49.5 25.0 L49.25 26.5 Q48.9 27.7 48.15 28.25 L47.55 28.5 Q46.3 28.85 45.05 27.6 L44.75 27.35 Q43.7 26.2 43.25 24.4 L42.95 22.85 Q42.9 21.75 43.2 20.75 43.55 19.6 44.2 19.1 Z" fill="none" stroke="#000000" stroke-linecap="round" stroke-linejoin="round" stroke-opacity="0.3019608" stroke-width="1.0"/>
      <path d="M43.3 22.4 L45.0 21.85 45.05 21.15 Q45.0 20.5 44.4 19.7 L45.75 21.0 Q46.45 21.8 46.4 22.25 L46.25 22.65 45.7 22.7 44.55 22.6 43.3 22.4" fill="#000000" fill-opacity="0.101960786" fill-rule="evenodd" stroke="none"/>
      <path d="M47.0 24.9 L47.55 25.0 Q47.85 25.2 48.05 26.4 L48.05 27.75 Q47.85 26.85 47.4 26.5 47.0 26.2 46.65 26.25 46.4 26.35 45.6 26.8 L45.95 26.35 46.65 25.4 47.0 24.9" fill="#000000" fill-opacity="0.101960786" fill-rule="evenodd" stroke="none"/>
      <path d="M44.9 26.65 Q45.8 25.15 45.55 24.35 45.35 23.6 43.75 23.1 46.5 22.9 46.6 24.05 46.7 25.2 44.9 26.65" fill="#000000" fill-opacity="0.101960786" fill-rule="evenodd" stroke="none"/>
      <path d="M47.1 21.45 L45.9 20.45 44.95 19.25 Q46.05 20.05 46.6 20.1 L47.35 19.85 47.4 20.85 Q47.4 21.35 47.1 21.45 M49.4 25.2 Q49.1 25.35 48.85 25.85 48.6 26.35 48.55 27.65 L48.35 26.1 Q48.2 24.95 48.35 24.8 48.45 24.6 48.85 24.8 L49.4 25.2" fill="#000000" fill-opacity="0.101960786" fill-rule="evenodd" stroke="none"/>
      <path d="M47.85 20.75 Q48.15 21.95 48.95 22.15 48.6 22.45 48.2 21.95 47.65 21.35 47.85 20.75 M49.35 24.65 Q48.8 24.45 48.65 23.55 48.5 22.45 49.0 22.6 48.7 23.7 49.35 24.65" fill="#000000" fill-opacity="0.101960786" fill-rule="evenodd" stroke="none"/>
    </g>
  </defs>
</svg>
