<?xml version="1.0" encoding="UTF-8" standalone="no"?>
<svg xmlns:xlink="http://www.w3.org/1999/xlink" height="520.0px" width="520.0px" xmlns="http://www.w3.org/2000/svg">
  <g transform="matrix(10.0, 0.0, 0.0, 10.0, 0.0, 0.0)">
    <use height="52.0" transform="matrix(1.0, 0.0, 0.0, 1.0, 0.0, 0.0)" width="52.0" xlink:href="#shape0"/>
    <use height="136.85" transform="matrix(0.0893, -0.039, 0.0412, 0.0945, 19.1089, 26.2776)" width="148.25" xlink:href="#sprite0"/>
    <use height="136.85" transform="matrix(0.0448, -0.0196, 0.0532, 0.0892, 33.8987, 13.1889)" width="148.25" xlink:href="#sprite0"/>
    <use height="136.85" transform="matrix(0.0711, -0.0568, 0.1169, 0.091, 5.7245, 33.8082)" width="148.25" xlink:href="#sprite0"/>
    <use height="136.85" transform="matrix(0.0136, 0.0901, -0.1372, 0.0559, 32.4683, 8.1456)" width="148.25" xlink:href="#sprite0"/>
  </g>
  <defs>
    <g id="shape0" transform="matrix(1.0, 0.0, 0.0, 1.0, 0.0, 0.0)">
      <path d="M52.0 0.0 L52.0 52.0 0.0 52.0 0.0 0.0 52.0 0.0" fill="#795fa9" fill-opacity="0.0" fill-rule="evenodd" stroke="none"/>
      <path d="M33.9 7.3 Q36.15 8.7 38.2 10.85 L39.85 11.4 Q42.1 12.55 44.0 15.2 46.0 17.85 46.5 20.5 L46.65 22.0 47.2 24.15 48.25 24.65 48.2 25.45 47.7 25.45 47.8 27.85 47.3 27.95 46.75 28.15 46.7 28.15 46.8 28.6 46.9 28.7 Q47.15 29.9 46.6 30.35 L46.5 30.35 45.75 30.1 44.7 28.95 44.65 28.95 Q40.05 31.4 38.55 37.55 L39.05 37.8 39.8 38.45 39.95 39.2 39.9 39.25 Q39.55 39.6 38.9 39.65 L38.1 39.6 37.95 40.95 37.85 42.05 Q31.8 43.9 26.25 44.45 L21.15 44.7 20.45 44.7 Q15.4 42.6 9.95 38.55 6.05 35.6 4.3 33.0 8.8 30.6 11.4 25.55 12.05 23.55 12.95 21.75 L12.65 20.9 Q11.8 17.35 14.15 14.1 16.4 11.85 19.25 12.15 20.15 12.25 21.15 12.65 L21.45 12.7 Q23.85 11.35 26.8 10.45 L28.25 10.2 28.95 9.55 Q30.2 8.1 30.65 5.85 31.6 5.6 33.9 7.3 Z" fill="none" stroke="#000000" stroke-linecap="round" stroke-linejoin="round" stroke-opacity="0.3019608" stroke-width="1.0"/>
      <path d="M40.15 13.15 L40.45 13.3 Q42.6 14.7 44.1 16.85 L37.15 12.2 Q30.75 9.45 24.85 11.85 20.6 14.3 17.75 16.95 L15.7 17.45 Q19.9 12.45 26.75 10.45 L28.2 10.2 Q31.55 9.7 34.85 10.65 L35.9 11.0 34.85 10.65 33.6 8.75 Q32.35 7.2 30.6 5.8 34.3 8.0 35.9 11.0 38.05 11.75 40.15 13.15 M4.3 33.0 Q8.8 30.6 11.35 25.55 12.3 22.65 13.7 20.3 L14.1 21.15 Q13.25 22.6 12.65 24.45 11.6 27.9 6.2 32.5 11.4 32.75 21.95 29.3 13.25 33.65 5.05 33.2 L4.3 33.0" fill="#fcf3d8" fill-rule="evenodd" stroke="none"/>
      <path d="M28.9 9.55 Q30.15 8.1 30.6 5.8 32.35 7.2 33.6 8.75 30.2 9.75 28.9 9.55 M37.15 12.2 Q38.55 14.4 37.75 16.4 34.95 21.75 25.7 22.55 19.3 23.3 17.3 19.75 26.45 15.5 24.15 15.4 L17.75 16.95 Q20.6 14.3 24.85 11.85 30.75 9.45 37.15 12.2" fill="#fbf1bf" fill-rule="evenodd" stroke="none"/>
      <path d="M37.85 42.0 Q31.8 43.9 26.2 44.4 23.0 42.65 19.65 41.7 17.65 41.1 16.1 39.9 L15.7 39.6 Q16.9 40.2 17.55 39.4 18.3 38.45 17.75 37.6 16.5 36.05 14.7 36.4 13.15 36.75 13.1 38.1 13.05 40.05 15.95 41.35 19.75 43.0 21.15 44.65 L20.4 44.7 Q15.35 42.55 9.9 38.5 6.05 35.6 4.3 33.0 L5.05 33.2 Q12.5 35.1 20.55 31.1 21.05 34.9 23.95 37.3 25.2 38.3 26.9 39.1 26.85 40.7 25.8 40.6 25.05 40.4 24.75 38.9 24.55 37.95 23.95 37.3 L23.45 36.95 21.75 36.9 Q21.15 37.6 21.45 38.55 21.75 39.45 22.55 39.45 L23.1 39.0 22.95 38.7 Q22.45 39.15 22.4 38.4 22.35 37.7 22.95 37.85 23.65 38.1 23.7 38.9 23.55 41.1 24.65 41.9 26.3 43.0 27.85 42.1 L29.15 38.3 31.65 39.25 31.65 41.35 33.2 41.75 33.1 40.35 Q35.05 41.4 37.85 42.0 M30.6 5.8 Q31.55 5.6 33.85 7.25 37.2 9.5 40.15 13.15 38.05 11.75 35.9 11.0 34.3 8.0 30.6 5.8" fill="#afa874" fill-rule="evenodd" stroke="none"/>
      <path d="M46.65 28.1 L46.8 28.55 46.85 28.75 45.6 29.3 46.5 30.3 46.5 30.35 45.7 30.1 Q45.1 29.75 44.65 28.95 45.6 28.45 46.65 28.1 M38.5 37.5 L39.0 37.8 38.85 38.9 39.9 39.2 38.8 39.6 38.1 39.6 38.5 37.5 M13.7 20.3 L15.7 17.45 17.75 16.95 24.15 15.4 Q26.45 15.5 17.3 19.75 19.3 23.3 25.7 22.55 34.95 21.75 37.75 16.4 38.55 14.4 37.15 12.2 L44.1 16.85 46.05 23.4 45.85 24.1 46.25 26.95 Q42.2 27.9 40.55 30.1 37.2 34.5 36.4 40.15 L31.95 38.15 31.8 38.9 31.7 38.8 31.7 38.85 Q24.1 35.65 21.95 29.3 11.4 32.75 6.2 32.5 11.6 27.9 12.65 24.45 13.25 22.6 14.1 21.15 L13.7 20.3 M28.2 10.2 L28.9 9.55 Q30.2 9.75 33.6 8.75 L34.85 10.65 Q31.55 9.7 28.2 10.2" fill="#e8daa8" fill-rule="evenodd" stroke="none"/>
      <path d="M47.2 24.1 L47.2 24.15 48.25 24.65 48.1 25.45 47.6 25.4 47.7 27.8 47.25 27.95 46.65 28.1 Q45.6 28.45 44.65 28.95 L44.65 29.0 Q40.0 31.4 38.5 37.5 L38.1 39.6 37.95 40.9 37.85 42.0 Q35.05 41.4 33.1 40.35 L33.2 41.75 31.65 41.35 31.65 39.25 31.7 38.85 31.8 38.9 31.95 38.15 36.4 40.15 Q37.2 34.5 40.55 30.1 42.2 27.9 46.25 26.95 L45.85 24.1 46.05 23.4 47.2 24.1" fill="#000000" fill-rule="evenodd" stroke="none"/>
      <path d="M44.1 16.85 Q46.25 19.75 47.2 24.1 L46.05 23.4 44.1 16.85 M26.2 44.4 L21.15 44.65 Q19.75 43.0 15.95 41.35 13.05 40.05 13.1 38.1 13.15 36.75 14.7 36.4 16.5 36.05 17.75 37.6 18.3 38.45 17.55 39.4 16.9 40.2 15.7 39.6 L16.1 39.9 Q17.65 41.1 19.65 41.7 23.0 42.65 26.2 44.4 M5.05 33.2 Q13.25 33.65 21.95 29.3 24.1 35.65 31.7 38.85 L31.65 39.25 29.15 38.3 27.85 42.1 Q26.3 43.0 24.65 41.9 23.55 41.1 23.7 38.9 23.65 38.1 22.95 37.85 22.35 37.7 22.4 38.4 22.45 39.15 22.95 38.7 L23.1 39.0 22.55 39.45 Q21.75 39.45 21.45 38.55 21.15 37.6 21.75 36.9 L23.45 36.95 23.95 37.3 Q24.55 37.95 24.75 38.9 25.05 40.4 25.8 40.6 26.85 40.7 26.9 39.1 25.2 38.3 23.95 37.3 21.05 34.9 20.55 31.1 12.5 35.1 5.05 33.2 M16.3 38.2 Q16.4 37.95 15.9 37.7 15.25 37.55 15.0 38.3 15.0 39.1 15.7 39.6 15.0 39.1 15.0 38.3 15.25 37.55 15.9 37.7 16.4 37.95 16.3 38.2" fill="#a2945e" fill-rule="evenodd" stroke="none"/>
      <path d="M46.85 28.75 Q47.05 29.85 46.5 30.3 L45.6 29.3 46.85 28.75 M39.0 37.8 L39.7 38.4 39.85 39.2 39.9 39.2 38.85 38.9 39.0 37.8" fill="#fefcf8" fill-rule="evenodd" stroke="none"/>
      <path d="M31.7 38.85 L31.7 38.8 31.8 38.9 31.7 38.85" fill="#33332b" fill-rule="evenodd" stroke="none"/>
      <path d="M40.15 13.15 L40.45 13.3 Q42.6 14.7 44.1 16.85 46.25 19.75 47.2 24.1 L47.2 24.15 48.25 24.65 48.1 25.45 47.6 25.4 47.7 27.8 47.25 27.95 46.65 28.1 46.8 28.55 46.85 28.75 Q47.05 29.85 46.5 30.3 L46.5 30.35 45.7 30.1 Q45.1 29.75 44.65 28.95 L44.65 29.0 Q40.0 31.4 38.5 37.5 L39.0 37.8 39.7 38.4 39.85 39.2 39.9 39.2 38.8 39.6 38.1 39.6 37.95 40.9 37.85 42.0 Q31.8 43.9 26.2 44.4 M21.15 44.65 L20.4 44.7 Q15.35 42.55 9.9 38.5 6.05 35.6 4.3 33.0 8.8 30.6 11.35 25.55 12.3 22.65 13.7 20.3 L15.7 17.45 Q19.9 12.45 26.75 10.45 L28.2 10.2 28.9 9.55 Q30.15 8.1 30.6 5.8 31.55 5.6 33.85 7.25 37.2 9.5 40.15 13.15 38.05 11.75 35.9 11.0 L34.85 10.65 Q31.55 9.7 28.2 10.2 M31.8 38.9 L31.95 38.15 36.4 40.15 Q37.2 34.5 40.55 30.1 42.2 27.9 46.25 26.95 L45.85 24.1 46.05 23.4 47.2 24.1 M46.65 28.1 Q45.6 28.45 44.65 28.95 M21.95 29.3 Q24.1 35.65 31.7 38.85 L31.7 38.8 31.8 38.9 31.7 38.85 31.65 39.25 31.65 41.35 33.2 41.75 33.1 40.35 Q35.05 41.4 37.85 42.0 M38.5 37.5 L38.1 39.6" fill="none" stroke="#000000" stroke-linecap="round" stroke-linejoin="round" stroke-opacity="0.3019608" stroke-width="0.05"/>
      <path d="M26.2 44.4 L21.15 44.65 Q19.75 43.0 15.95 41.35 13.05 40.05 13.1 38.1 13.15 36.75 14.7 36.4 16.5 36.05 17.75 37.6 18.3 38.45 17.55 39.4 16.9 40.2 15.7 39.6 L16.1 39.9 Q17.65 41.1 19.65 41.7 23.0 42.65 26.2 44.4 M15.7 39.6 Q15.0 39.1 15.0 38.3 15.25 37.55 15.9 37.7 16.4 37.95 16.3 38.2 M5.05 33.2 Q12.5 35.1 20.55 31.1 21.05 34.9 23.95 37.3 25.2 38.3 26.9 39.1 26.85 40.7 25.8 40.6 25.05 40.4 24.75 38.9 24.55 37.95 23.95 37.3 L23.45 36.95 21.75 36.9 Q21.15 37.6 21.45 38.55 21.75 39.45 22.55 39.45 L23.1 39.0 22.95 38.7 Q22.45 39.15 22.4 38.4 22.35 37.7 22.95 37.85 23.65 38.1 23.7 38.9 23.55 41.1 24.65 41.9 26.3 43.0 27.85 42.1 L29.15 38.3 31.65 39.25" fill="none" stroke="#000000" stroke-linecap="round" stroke-linejoin="round" stroke-opacity="0.101960786" stroke-width="0.05"/>
      <path d="M13.7 16.25 Q14.5 14.15 16.15 13.35 15.65 14.25 16.85 15.05 L17.95 15.7 20.0 16.25 Q21.65 16.45 23.8 16.25 22.0 17.05 17.45 18.35 15.8 18.55 14.35 19.95 L13.95 19.5 Q13.3 18.4 13.7 16.25" fill="#afa874" fill-rule="evenodd" stroke="none"/>
      <path d="M16.15 13.35 L20.55 13.15 21.25 13.4 Q23.1 14.05 24.3 15.35 23.45 15.95 20.0 16.25 L17.95 15.7 16.85 15.05 Q15.65 14.25 16.15 13.35" fill="#c7be9e" fill-rule="evenodd" stroke="none"/>
      <path d="M13.4 21.05 L13.2 20.25 Q13.0 18.8 13.3 17.3 L13.7 16.25 Q13.3 18.4 13.95 19.5 L14.35 19.95 13.4 21.05" fill="#c4ba99" fill-rule="evenodd" stroke="none"/>
      <path d="M12.95 22.0 L12.6 20.85 Q11.75 17.3 14.1 14.1 16.35 11.85 19.2 12.15 20.15 12.2 21.15 12.6 23.0 13.3 25.0 15.15 25.3 15.5 23.8 16.25 21.65 16.45 20.0 16.25 23.45 15.95 24.3 15.35 23.1 14.05 21.25 13.4 L20.55 13.15 16.15 13.35 Q14.5 14.15 13.7 16.25 L13.3 17.3 Q13.0 18.8 13.2 20.25 L13.4 21.05 Q13.1 21.4 12.95 22.0" fill="#ddd8c4" fill-rule="evenodd" stroke="none"/>
      <path d="M23.8 16.25 Q25.3 15.5 25.0 15.15 23.0 13.3 21.15 12.6 20.15 12.2 19.2 12.15 16.35 11.85 14.1 14.1 11.75 17.3 12.6 20.85 L12.95 22.0" fill="none" stroke="#000000" stroke-linecap="round" stroke-linejoin="round" stroke-opacity="0.3019608" stroke-width="0.05"/>
      <path d="M46.3 23.4 Q46.1 24.35 45.45 24.85 44.4 25.8 42.6 25.1 L42.75 26.15 41.3 25.65 41.6 24.7 Q39.3 23.45 37.35 20.75 35.3 17.95 34.75 15.15 34.45 13.7 34.65 12.7 L34.7 12.7 Q34.85 11.75 35.45 11.2 36.4 10.45 37.85 10.75 37.0 10.75 36.4 11.2 L36.35 11.3 36.3 11.3 Q35.15 12.35 35.6 15.0 36.15 17.6 38.1 20.3 40.05 22.95 42.3 24.05 L45.75 24.15 46.3 23.4 M31.6 14.5 L32.75 13.85 32.7 14.05 Q32.65 15.5 33.2 17.35 32.35 17.05 31.55 15.2 L31.75 15.25 32.3 15.8 32.1 15.75 32.05 15.8 32.2 16.1 32.4 16.05 32.45 15.95 Q32.45 15.1 31.9 14.65 L31.6 14.5 M24.2 21.25 L23.7 21.6 Q20.85 23.55 19.5 27.75 L16.8 26.8 Q17.85 23.9 19.85 21.95 L21.2 22.05 21.3 22.1 21.4 22.4 21.3 22.8 20.9 22.9 20.75 22.5 20.55 22.6 20.5 22.75 Q20.55 23.15 20.9 23.2 L20.95 23.2 21.35 23.15 21.75 22.75 21.8 22.5 21.8 22.4 21.8 22.2 21.35 21.6 21.05 21.45 20.55 21.35 21.2 20.8 Q21.65 21.75 23.0 21.6 L24.2 21.25 M26.35 21.6 Q29.45 20.3 32.55 21.55 35.85 22.85 37.2 26.05 37.75 27.35 37.9 28.65 L38.9 28.5 38.85 30.0 37.9 29.6 Q37.85 31.05 37.3 32.55 36.0 35.8 32.8 37.2 29.6 38.6 26.35 37.3 23.1 36.0 21.75 32.8 20.4 29.6 21.65 26.35 22.9 23.05 26.1 21.65 L26.35 21.6 M32.1 22.5 Q29.25 21.35 26.45 22.6 23.6 23.85 22.45 26.7 21.35 29.6 22.6 32.45 23.8 35.3 26.65 36.4 29.5 37.55 32.35 36.3 35.2 35.05 36.3 32.2 37.45 29.3 36.25 26.45 35.0 23.6 32.1 22.5" fill="#000000" fill-rule="evenodd" stroke="none"/>
      <path d="M37.85 10.75 Q38.7 10.8 39.8 11.35 42.05 12.5 43.95 15.15 45.9 17.8 46.45 20.45 46.8 22.3 46.3 23.4 L45.75 24.15 42.3 24.05 Q40.05 22.95 38.1 20.3 36.15 17.6 35.6 15.0 35.15 12.35 36.3 11.3 L36.35 11.3 36.4 11.2 Q37.0 10.75 37.85 10.75 M44.4 20.15 Q45.05 17.25 43.2 14.55 41.6 12.75 39.9 11.8 L38.05 11.3 37.0 11.55 Q36.55 14.05 38.65 17.85 36.5 14.9 36.3 12.25 35.7 13.25 36.05 15.15 36.55 17.6 38.3 20.05 40.1 22.55 42.25 23.6 L45.4 23.65 45.95 22.95 Q46.4 21.95 46.05 20.2 45.7 18.4 44.6 16.55 45.1 19.55 44.4 20.15 M34.45 29.8 Q35.55 27.15 33.85 24.2 L31.9 23.05 27.25 22.95 Q25.4 24.65 26.6 28.7 25.2 26.15 25.95 23.5 23.9 24.7 23.05 26.95 22.0 29.6 23.15 32.2 24.25 34.8 26.85 35.85 29.5 36.9 32.1 35.75 34.7 34.6 35.75 31.95 36.8 29.3 35.7 26.7 L35.25 25.8 Q35.35 28.55 34.45 29.8 M32.1 22.5 Q35.0 23.6 36.25 26.45 37.45 29.3 36.3 32.2 35.2 35.05 32.35 36.3 29.5 37.55 26.65 36.4 23.8 35.3 22.6 32.45 21.35 29.6 22.45 26.7 23.6 23.85 26.45 22.6 29.25 21.35 32.1 22.5" fill="#fef7bc" fill-rule="evenodd" stroke="none"/>
      <path d="M44.4 20.15 Q45.1 19.55 44.6 16.55 45.7 18.4 46.05 20.2 46.4 21.95 45.95 22.95 L45.4 23.65 42.25 23.6 Q40.1 22.55 38.3 20.05 36.55 17.6 36.05 15.15 35.7 13.25 36.3 12.25 36.5 14.9 38.65 17.85 L40.25 19.75 Q42.95 21.85 44.4 20.15 M34.45 29.8 Q35.35 28.55 35.25 25.8 L35.7 26.7 Q36.8 29.3 35.75 31.95 34.7 34.6 32.1 35.75 29.5 36.9 26.85 35.85 24.25 34.8 23.15 32.2 22.0 29.6 23.05 26.95 23.9 24.7 25.95 23.5 25.2 26.15 26.6 28.7 L27.3 29.75 Q30.6 33.1 34.0 30.3 L34.45 29.8" fill="#dac403" fill-rule="evenodd" stroke="none"/>
      <path d="M38.65 17.85 Q36.55 14.05 37.0 11.55 L38.05 11.3 39.9 11.8 Q41.6 12.75 43.2 14.55 45.05 17.25 44.4 20.15 42.95 21.85 40.25 19.75 L38.65 17.85 M26.6 28.7 Q25.4 24.65 27.25 22.95 L31.9 23.05 33.85 24.2 Q35.55 27.15 34.45 29.8 L34.0 30.3 Q30.6 33.1 27.3 29.75 L26.6 28.7" fill="#fdef79" fill-rule="evenodd" stroke="none"/>
      <path d="M31.6 14.5 L31.35 14.45 Q30.9 12.85 30.9 11.8 L31.15 12.3 Q31.45 12.65 31.95 12.65 L32.25 12.55 32.5 12.25 32.55 11.95 32.55 11.6 32.25 11.15 Q32.0 10.9 31.65 11.15 L31.7 11.45 31.95 11.3 32.25 11.85 32.15 12.0 32.05 12.1 31.5 12.1 31.0 11.35 30.95 11.2 Q31.05 10.75 31.3 10.4 L31.7 10.0 Q33.75 9.3 34.5 10.45 L33.75 10.95 Q32.85 12.05 32.75 13.7 L32.75 13.85 31.6 14.5 M21.2 20.8 Q23.45 19.15 26.75 18.4 L26.9 18.55 Q27.55 19.3 28.65 19.15 L28.85 19.1 28.85 19.0 28.85 18.75 28.7 18.6 28.45 18.65 28.6 18.9 28.3 18.95 Q27.75 18.75 27.75 18.2 L30.5 18.65 Q31.45 19.1 31.45 19.5 27.7 19.15 24.2 21.25 L23.0 21.6 Q21.65 21.75 21.2 20.8" fill="#2f2f2f" fill-rule="evenodd" stroke="none"/>
      <path d="M46.3 23.4 Q46.1 24.35 45.45 24.85 44.4 25.8 42.6 25.1 L42.75 26.15 41.3 25.65 41.6 24.7 Q39.3 23.45 37.35 20.75 35.3 17.95 34.75 15.15 34.45 13.7 34.65 12.7 L34.7 12.7 Q34.85 11.75 35.45 11.2 36.4 10.45 37.85 10.75 38.7 10.8 39.8 11.35 42.05 12.5 43.95 15.15 45.9 17.8 46.45 20.45 46.8 22.3 46.3 23.4 L45.75 24.15 42.3 24.05 Q40.05 22.95 38.1 20.3 36.15 17.6 35.6 15.0 35.15 12.35 36.3 11.3 M26.35 21.6 Q29.45 20.3 32.55 21.55 35.85 22.85 37.2 26.05 37.75 27.35 37.9 28.65 L38.9 28.5 38.85 30.0 37.9 29.6 Q37.85 31.05 37.3 32.55 36.0 35.8 32.8 37.2 29.6 38.6 26.35 37.3 23.1 36.0 21.75 32.8 20.4 29.6 21.65 26.35 22.9 23.05 26.1 21.65 L26.35 21.6 M32.1 22.5 Q35.0 23.6 36.25 26.45 37.45 29.3 36.3 32.2 35.2 35.05 32.35 36.3 29.5 37.55 26.65 36.4 23.8 35.3 22.6 32.45 21.35 29.6 22.45 26.7 23.6 23.85 26.45 22.6 29.25 21.35 32.1 22.5" fill="none" stroke="#000000" stroke-linecap="round" stroke-linejoin="round" stroke-opacity="0.3019608" stroke-width="0.05"/>
      <path d="M41.6 13.25 L42.3 13.7 42.75 14.3 42.8 14.9 42.4 14.9 41.8 14.35 41.3 13.85 Q41.05 13.55 41.2 13.4 41.3 13.2 41.6 13.25" fill="#000000" fill-rule="evenodd" stroke="none"/>
      <path d="M26.05 31.7 L26.4 32.45 27.1 32.85 27.75 32.8 27.8 32.3 27.35 31.65 26.8 31.1 Q26.5 30.9 26.25 31.1 26.0 31.3 26.05 31.7" fill="#000000" fill-rule="evenodd" stroke="none"/>
    </g>
    <g id="sprite0" transform="matrix(1.0, 0.0, 0.0, 1.0, 73.5, 65.0)">
      <use height="136.85" transform="matrix(1.0, 0.0, 0.0, 1.0, -73.5, -65.0)" width="148.25" xlink:href="#shape1"/>
    </g>
    <g id="shape1" transform="matrix(1.0, 0.0, 0.0, 1.0, 73.5, 65.0)">
      <path d="M36.65 -54.65 Q60.05 -42.0 69.75 -17.95 80.55 8.9 68.0 34.1 55.45 59.35 26.8 68.2 -1.8 77.05 -29.7 64.3 -57.6 51.6 -68.45 24.75 -79.3 -2.05 -66.75 -27.25 L-66.7 -27.3 Q-54.1 -52.5 -25.5 -61.4 3.1 -70.2 31.0 -57.5 L36.65 -54.65" fill="url(#gradient0)" fill-rule="evenodd" stroke="none"/>
    </g>
    <radialGradient cx="0" cy="0" gradientTransform="matrix(0.0914, 0.0, 0.0, 0.0914, 0.6, 3.4)" gradientUnits="userSpaceOnUse" id="gradient0" r="819.2" spreadMethod="pad">
      <stop offset="0.0" stop-color="#ffffff"/>
      <stop offset="1.0" stop-color="#ffffff" stop-opacity="0.0"/>
    </radialGradient>
  </defs>
</svg>
