<?xml version="1.0" encoding="UTF-8" standalone="no"?>
<svg xmlns:xlink="http://www.w3.org/1999/xlink" height="520.0px" width="520.0px" xmlns="http://www.w3.org/2000/svg">
  <g transform="matrix(10.0, 0.0, 0.0, 10.0, 0.0, 0.0)">
    <use height="52.0" transform="matrix(1.0, 0.0, 0.0, 1.0, 0.0, 0.0)" width="52.0" xlink:href="#shape0"/>
    <use height="25.55" transform="matrix(-0.2159, 0.1247, 0.1247, 0.2161, 14.7559, 28.7719)" width="16.35" xlink:href="#sprite0"/>
    <use height="25.85" transform="matrix(-0.2159, 0.1247, 0.1247, 0.2161, 26.1241, 25.8547)" width="26.2" xlink:href="#sprite1"/>
    <use height="24.55" transform="matrix(-0.2159, 0.1247, 0.1247, 0.2161, 10.4698, 24.8824)" width="17.3" xlink:href="#sprite2"/>
    <use height="25.85" transform="matrix(-0.2159, 0.1247, 0.1247, 0.2161, 34.0957, 19.8422)" width="17.8" xlink:href="#sprite3"/>
    <use height="25.85" transform="matrix(-0.2159, 0.1247, 0.1247, 0.2161, 36.2293, 12.5363)" width="13.2" xlink:href="#sprite4"/>
    <use height="22.9" transform="matrix(-0.2159, 0.1247, 0.1247, 0.2161, 42.5605, 23.0218)" width="21.25" xlink:href="#sprite5"/>
    <use height="25.1" transform="matrix(-0.2159, 0.1247, 0.1247, 0.2161, 35.7714, 30.3811)" width="29.9" xlink:href="#sprite6"/>
    <use height="25.1" transform="matrix(-0.2159, 0.1247, 0.1247, 0.2161, 25.1725, 35.7438)" width="29.9" xlink:href="#sprite7"/>
    <use height="22.9" transform="matrix(-0.2159, 0.1247, 0.1247, 0.2161, 14.6804, 36.1645)" width="12.65" xlink:href="#sprite8"/>
    <use height="70.2" transform="matrix(-0.2159, 0.1247, 0.1247, 0.2161, 37.9189, 15.544)" width="132.95" xlink:href="#sprite9"/>
    <use height="6.1" transform="matrix(1.0, 0.0, 0.0, 1.0, 12.25, 18.8)" width="5.55" xlink:href="#shape11"/>
    <use height="136.85" transform="matrix(-0.2088, 0.0, 0.0, 0.2286, 41.6469, 12.0885)" width="148.25" xlink:href="#sprite10"/>
    <use height="16.7" transform="matrix(1.0, 0.0, 0.0, 1.0, 10.15, 4.65)" width="15.35" xlink:href="#shape13"/>
    <use height="81.5" transform="matrix(0.181, 0.0, 0.0, 0.181, 18.0, 7.5)" width="81.5" xlink:href="#sprite11"/>
  </g>
  <defs>
    <g id="shape0" transform="matrix(1.0, 0.0, 0.0, 1.0, 0.0, 0.0)">
      <path d="M52.0 0.0 L52.0 52.0 0.0 52.0 0.0 0.0 52.0 0.0" fill="#795fa9" fill-opacity="0.0" fill-rule="evenodd" stroke="none"/>
      <path d="M28.6 12.4 L27.1 12.2 24.45 12.25 22.35 8.6 22.3 8.5 22.3 8.45 22.2 8.3 Q21.65 7.5 20.35 7.4 19.7 6.35 17.65 5.3 15.5 4.2 13.3 4.9 11.05 5.5 10.4 7.3 L10.25 7.9 Q10.1 8.5 10.2 9.25 10.35 10.2 10.95 11.2 L11.0 11.3 11.55 12.35 Q10.7 13.8 11.25 14.8 L11.3 14.85 11.3 14.9 13.4 18.45 Q11.5 20.85 10.6 24.1 9.2 29.3 11.15 34.05 L12.25 36.3 13.3 37.95 14.9 39.85 15.8 40.65 Q18.45 42.85 22.0 43.8 L23.7 44.2 23.95 45.4 24.1 45.65 Q25.2 47.55 28.55 47.45 31.9 47.2 35.5 45.2 39.15 43.1 40.85 40.3 42.65 37.45 41.55 35.6 L41.4 35.3 40.95 34.8 41.7 32.45 Q42.95 28.3 41.55 23.55 L40.1 20.2 Q37.0 14.9 31.4 13.05 L30.35 12.7 28.6 12.4 M14.1 8.95 Q14.3 8.3 14.9 8.15 L15.8 8.15 15.9 8.2 16.15 8.3 Q15.65 8.5 15.1 8.85 L14.1 9.5 14.1 8.95" fill="none" stroke="#000000" stroke-linecap="round" stroke-linejoin="round" stroke-opacity="0.3019608" stroke-width="1.0"/>
      <path d="M23.7 43.55 Q23.8 44.3 24.15 44.9 L24.3 45.2 Q25.45 46.8 28.45 46.75 31.15 46.65 34.05 45.3 L35.2 44.7 38.2 42.55 40.35 39.9 Q42.0 37.3 41.05 35.45 L41.0 35.2 39.95 34.15 Q40.85 34.55 41.4 35.3 L41.55 35.6 Q42.65 37.45 40.85 40.3 39.15 43.1 35.5 45.2 31.9 47.2 28.55 47.45 25.2 47.55 24.1 45.65 L23.95 45.4 Q23.6 44.55 23.7 43.55" fill="#ffde4f" fill-rule="evenodd" stroke="none"/>
      <path d="M34.05 45.3 Q31.15 46.65 28.45 46.75 25.45 46.8 24.3 45.2 L24.15 44.9 Q23.8 44.3 23.7 43.55 L24.05 42.45 Q25.7 47.6 34.05 45.3 M40.35 39.9 L38.2 42.55 Q38.85 37.6 30.3 36.0 33.1 34.35 35.75 33.95 36.85 39.7 40.35 39.9" fill="#c08602" fill-rule="evenodd" stroke="none"/>
      <path d="M34.05 45.3 Q25.7 47.6 24.05 42.45 L24.8 40.95 Q26.6 38.1 30.25 36.05 L30.3 36.0 Q38.85 37.6 38.2 42.55 L35.2 44.7 34.05 45.3 M39.95 34.15 L41.0 35.2 41.05 35.45 Q42.0 37.3 40.35 39.9 36.85 39.7 35.75 33.95 L37.15 33.8 39.95 34.15" fill="#eeb000" fill-rule="evenodd" stroke="none"/>
      <path d="M24.05 42.45 L23.7 43.55 Q23.6 44.55 23.95 45.4 L24.1 45.65 Q25.2 47.55 28.55 47.45 31.9 47.2 35.5 45.2 39.15 43.1 40.85 40.3 42.65 37.45 41.55 35.6 L41.4 35.3 Q40.85 34.55 39.95 34.15 L37.15 33.8 35.75 33.95 Q33.1 34.35 30.3 36.0 L30.25 36.05 Q26.6 38.1 24.8 40.95 L24.05 42.45 Z" fill="none" stroke="#000000" stroke-linecap="round" stroke-linejoin="round" stroke-opacity="0.3019608" stroke-width="0.05"/>
      <path d="M29.9 35.5 L30.0 35.45 Q32.35 34.1 34.6 33.75 L35.7 33.65 38.05 33.95 39.25 34.95 39.4 35.15 Q40.3 36.75 38.85 39.05 37.35 41.4 34.3 43.15 31.35 44.85 28.55 44.95 25.7 45.1 24.8 43.55 L24.75 43.35 Q24.4 42.6 24.5 41.75 L24.75 40.85 25.4 39.55 Q26.9 37.25 29.9 35.5" fill="#9d7200" fill-rule="evenodd" stroke="none"/>
      <path d="M28.55 39.0 Q33.6 35.8 35.2 29.95 36.85 23.85 33.65 18.3 31.75 15.05 28.85 13.15 23.4 12.2 18.5 15.0 12.95 18.15 11.35 24.3 9.65 30.45 12.85 35.95 13.85 37.65 15.15 39.1 L17.55 40.05 18.1 40.2 19.35 40.45 25.65 40.3 Q21.45 41.7 16.95 40.5 L16.75 40.45 17.65 41.1 Q19.65 42.45 22.2 43.1 28.35 44.7 33.85 41.55 39.35 38.35 41.0 32.2 42.6 26.15 39.45 20.65 37.05 16.55 33.05 14.55 31.8 13.9 30.3 13.5 32.6 15.3 34.15 18.0 37.35 23.5 35.75 29.65 34.05 35.8 28.55 39.0 M31.4 13.05 Q37.0 14.9 40.1 20.2 43.4 26.0 41.7 32.45 40.0 38.9 34.2 42.25 28.45 45.55 22.0 43.8 18.45 42.85 15.8 40.65 L14.9 39.85 13.3 37.95 12.25 36.3 Q8.9 30.55 10.6 24.1 12.35 17.65 18.1 14.35 22.4 11.8 27.1 12.2 L28.6 12.4 30.35 12.7 31.4 13.05" fill="#d24002" fill-rule="evenodd" stroke="none"/>
      <path d="M25.65 40.3 L19.35 40.45 18.1 40.2 17.55 40.05 15.15 39.1 Q13.85 37.65 12.85 35.95 9.65 30.45 11.35 24.3 12.95 18.15 18.5 15.0 23.4 12.2 28.85 13.15 31.75 15.05 33.65 18.3 36.85 23.85 35.2 29.95 33.6 35.8 28.55 39.0 L28.3 39.15 25.65 40.3" fill="#ba3801" fill-rule="evenodd" stroke="none"/>
      <path d="M25.65 40.3 L28.3 39.15 28.55 39.0 Q34.05 35.8 35.75 29.65 37.35 23.5 34.15 18.0 32.6 15.3 30.3 13.5 31.8 13.9 33.05 14.55 37.05 16.55 39.45 20.65 42.6 26.15 41.0 32.2 39.35 38.35 33.85 41.55 28.35 44.7 22.2 43.1 19.65 42.45 17.65 41.1 L16.75 40.45 16.95 40.5 Q21.45 41.7 25.65 40.3" fill="#8f3600" fill-rule="evenodd" stroke="none"/>
      <path d="M31.4 13.05 L30.35 12.7 28.6 12.4 27.1 12.2 Q22.4 11.8 18.1 14.35 12.35 17.65 10.6 24.1 8.9 30.55 12.25 36.3 L13.3 37.95 14.9 39.85 15.8 40.65 Q18.45 42.85 22.0 43.8 28.45 45.55 34.2 42.25 40.0 38.9 41.7 32.45 43.4 26.0 40.1 20.2 37.0 14.9 31.4 13.05 Z" fill="none" stroke="#000000" stroke-linecap="round" stroke-linejoin="round" stroke-opacity="0.3019608" stroke-width="0.05"/>
      <path d="M29.15 38.65 L28.55 38.95 29.15 38.65" fill="#d24002" fill-rule="evenodd" stroke="none"/>
      <path d="M18.2 40.15 L18.15 40.2 18.1 40.2 18.2 40.15" fill="#ba3801" fill-rule="evenodd" stroke="none"/>
      <path d="M29.3 38.5 L29.15 38.65 29.25 38.55 29.3 38.55 29.3 38.5" fill="#ffff98" fill-rule="evenodd" stroke="none"/>
      <path d="M35.5 30.45 L35.1 30.35 Q33.6 35.5 29.3 38.5 L29.3 38.55 Q33.8 35.6 35.5 30.45 M18.9 40.35 L18.85 40.7 18.2 40.15 18.1 40.2 17.55 40.0 15.15 39.1 Q13.9 37.7 12.85 35.95 L11.55 33.2 11.2 32.65 11.1 34.05 12.2 36.35 13.3 38.0 14.9 39.8 15.8 40.7 Q18.4 42.85 21.95 43.85 28.4 45.55 34.15 42.2 39.95 38.85 41.65 32.45 43.0 27.5 41.35 22.95 L40.15 21.95 Q42.35 26.85 40.95 32.3 39.3 38.4 33.8 41.55 28.3 44.7 22.2 43.1 19.65 42.45 17.65 41.1 L16.75 40.45 16.9 40.5 Q21.45 41.75 25.65 40.35 22.55 41.1 19.35 40.45 L18.9 40.35" fill="#fff4cc" fill-rule="evenodd" stroke="none"/>
      <path d="M35.1 30.35 L30.75 28.8 29.3 38.5 Q33.6 35.5 35.1 30.35 M29.15 38.65 L19.0 33.9 18.9 40.35 19.35 40.45 Q22.55 41.1 25.65 40.35 27.0 39.85 28.3 39.15 L28.55 38.95 29.15 38.65 M18.15 40.2 Q14.7 37.3 11.55 33.2 L12.85 35.95 Q13.9 37.7 15.15 39.1 L17.55 40.0 18.1 40.2 18.15 40.2" fill="#fee481" fill-rule="evenodd" stroke="none"/>
      <path d="M40.15 21.95 L37.7 20.05 38.95 31.7 35.5 30.45 Q33.8 35.6 29.3 38.55 L29.25 38.55 29.15 38.65 28.55 38.95 28.3 39.15 Q27.0 39.85 25.65 40.35 21.45 41.75 16.9 40.5 L16.75 40.45 17.65 41.1 Q19.65 42.45 22.2 43.1 28.3 44.7 33.8 41.55 39.3 38.4 40.95 32.3 42.35 26.85 40.15 21.95" fill="#fed945" fill-rule="evenodd" stroke="none"/>
    </g>
    <g id="sprite0" transform="matrix(1.0, 0.0, 0.0, 1.0, 1.3, 1.0)">
      <use height="25.55" transform="matrix(1.0, 0.0, 0.0, 1.0, -1.3, -1.0)" width="16.35" xlink:href="#shape1"/>
    </g>
    <g id="shape1" transform="matrix(1.0, 0.0, 0.0, 1.0, 1.3, 1.0)">
      <path d="M2.9 23.35 L3.9 14.8 0.0 9.0 4.9 8.1 6.85 0.0 8.9 8.25 13.9 9.0 10.2 14.8 11.5 23.25 7.15 18.8 2.9 23.35" fill="#fee481" fill-rule="evenodd" stroke="none"/>
      <path d="M5.85 0.75 L5.8 0.65 Q5.4 -0.2 6.15 -0.8 6.9 -1.35 7.25 -0.5 7.6 0.35 6.9 0.9 L6.75 1.05 Q6.9 1.55 6.6 1.9 L6.85 1.7 Q7.65 1.2 8.0 1.95 8.35 2.65 7.6 3.1 L7.55 3.15 Q7.85 3.15 8.1 3.6 8.6 4.4 7.95 4.7 7.35 5.05 6.95 4.45 6.5 3.9 7.05 3.35 L7.15 3.3 Q6.7 3.3 6.45 2.85 6.15 2.3 6.6 1.9 L6.5 1.95 Q6.0 2.25 5.5 1.7 4.95 1.15 5.75 0.75 L5.85 0.75 M5.25 3.4 Q5.7 3.1 6.0 3.55 6.3 3.95 5.9 4.3 5.5 4.6 5.15 4.15 4.75 3.65 5.25 3.4 M4.9 5.3 Q5.75 4.95 6.3 5.85 6.85 6.7 5.95 7.1 5.1 7.5 4.55 6.6 4.05 5.65 4.9 5.3 M7.95 5.75 Q8.6 5.25 9.1 6.1 9.55 6.9 9.0 7.25 L9.2 7.55 Q9.6 8.45 8.9 8.85 8.2 9.2 7.6 8.45 7.05 7.75 7.95 7.2 L8.05 7.15 7.8 6.9 Q7.35 6.3 7.95 5.75 M4.45 7.55 Q5.2 7.1 5.55 7.75 5.85 8.4 5.25 8.9 4.6 9.4 4.15 8.7 3.65 8.05 4.45 7.55 M0.4 9.95 L-0.2 10.15 -1.1 9.55 Q-1.65 8.6 -0.8 8.3 -0.3 8.1 0.1 8.3 0.35 8.35 0.65 8.75 1.25 9.55 0.4 9.95 M2.1 8.85 Q1.45 9.35 0.95 8.6 0.45 7.8 1.4 7.35 2.3 6.9 2.5 7.65 2.75 8.4 2.1 8.85 M1.5 11.95 Q0.6 12.3 0.2 11.5 -0.15 10.7 0.65 10.3 1.45 9.9 1.95 10.7 2.45 11.55 1.5 11.95 M1.8 12.95 Q1.5 12.5 1.95 12.3 2.35 12.1 2.6 12.5 2.8 12.95 2.45 13.15 2.1 13.4 1.8 12.95 M2.95 15.65 Q2.6 15.1 3.25 14.8 3.9 14.45 4.2 14.95 4.5 15.4 3.95 15.8 3.35 16.2 2.95 15.65 M4.7 16.6 Q5.2 17.3 4.45 17.85 3.7 18.45 3.3 17.7 2.9 16.9 3.55 16.4 4.2 15.9 4.7 16.6 M4.25 18.5 Q4.7 19.05 3.8 19.65 2.85 20.25 2.5 19.5 2.15 18.8 2.95 18.35 3.75 17.9 4.25 18.5 M9.9 14.0 Q10.55 13.6 11.05 14.15 11.5 14.7 10.75 15.3 9.95 15.9 9.6 15.15 9.25 14.4 9.9 14.0 M9.9 18.55 Q10.6 18.2 11.05 18.85 11.5 19.55 10.8 19.8 10.1 20.1 9.7 19.5 9.25 18.9 9.9 18.55 M9.35 19.2 Q9.85 20.15 8.85 20.55 7.85 21.0 7.5 20.2 7.15 19.45 8.0 18.85 8.8 18.25 9.35 19.2 M6.05 19.1 Q5.65 18.45 6.35 17.95 7.1 17.45 7.55 18.15 8.0 18.9 7.25 19.35 6.45 19.8 6.05 19.1 M10.35 21.85 L10.3 21.85 Q9.85 22.35 9.35 21.7 8.85 21.05 9.55 20.7 10.3 20.35 10.55 20.9 L10.6 21.1 10.65 21.05 Q11.35 20.75 11.65 21.3 11.95 21.8 11.45 22.15 10.9 22.5 10.4 21.95 L10.35 21.85 M6.2 21.2 Q5.55 21.6 5.15 20.95 4.8 20.35 5.35 19.85 5.9 19.4 6.4 20.05 6.85 20.75 6.2 21.2 M4.1 21.05 Q4.55 21.8 3.85 22.1 L3.7 22.2 Q3.15 22.35 2.7 21.9 2.25 21.4 2.95 20.85 3.7 20.3 4.1 21.05 M2.05 23.0 Q2.8 22.7 3.25 23.3 3.7 23.95 3.15 24.4 2.55 24.85 1.9 24.1 1.25 23.35 2.05 23.0 M13.2 9.8 L13.5 10.2 Q14.0 11.1 13.2 11.75 12.45 12.4 12.05 11.45 11.7 10.5 12.35 9.9 L12.85 9.7 12.7 9.5 Q12.45 8.9 13.0 8.35 13.5 7.85 13.8 8.25 14.35 7.95 14.85 8.6 15.4 9.3 14.6 9.75 L13.45 9.65 13.2 9.8 M10.8 8.85 Q10.5 8.5 10.85 8.35 11.2 8.15 11.45 8.45 11.7 8.75 11.35 9.0 11.05 9.2 10.8 8.85 M11.0 13.1 Q10.7 12.5 11.3 12.25 11.9 12.05 12.25 12.45 12.6 12.9 11.95 13.3 11.3 13.7 11.0 13.1 M11.45 17.55 Q10.9 17.95 10.4 17.35 9.95 16.75 10.5 16.3 11.05 15.9 11.5 16.5 12.0 17.1 11.45 17.55 M11.05 23.3 Q10.75 22.75 11.3 22.55 11.85 22.4 12.1 22.8 12.35 23.25 11.85 23.55 11.35 23.9 11.05 23.3" fill="#ffffff" fill-rule="evenodd" stroke="none"/>
      <path d="M5.4 16.3 L7.15 14.55 8.85 16.3 8.35 12.9 9.8 10.6 7.85 10.3 7.0 7.05 6.25 10.25 4.25 10.6 5.8 12.9 5.4 16.3" fill="#fff4cc" fill-rule="evenodd" stroke="none"/>
    </g>
    <g id="sprite1" transform="matrix(1.0, 0.0, 0.0, 1.0, 0.95, 1.05)">
      <use height="25.85" transform="matrix(1.0, 0.0, 0.0, 1.0, -0.95, -1.05)" width="26.2" xlink:href="#shape2"/>
    </g>
    <g id="shape2" transform="matrix(1.0, 0.0, 0.0, 1.0, 0.95, 1.05)">
      <path d="M19.95 23.35 L12.3 18.8 4.7 23.25 6.75 14.8 0.0 9.0 8.8 8.25 12.3 0.0 15.85 8.1 24.65 9.0 17.95 14.8 19.95 23.35" fill="#fee481" fill-rule="evenodd" stroke="none"/>
      <path d="M11.45 0.15 Q10.95 -0.5 11.6 -0.8 12.05 -1.05 12.35 -0.8 13.7 -1.55 14.45 -0.3 15.25 0.9 13.9 1.55 L14.25 2.0 Q14.65 2.9 13.95 3.25 13.25 3.7 12.75 2.95 12.35 2.25 12.95 1.8 12.1 1.8 11.65 1.05 11.4 0.6 11.45 0.15 M9.35 3.4 Q8.8 2.25 9.9 1.55 11.0 0.85 11.65 2.0 12.3 3.1 11.15 3.8 10.0 4.5 9.35 3.4 M15.8 4.4 Q16.45 5.5 15.5 6.25 14.55 6.95 13.85 5.75 13.15 4.55 14.15 3.9 15.15 3.35 15.8 4.4 M25.15 9.4 Q25.35 9.9 24.95 10.2 24.55 10.6 24.15 10.0 L24.0 9.65 23.4 9.25 Q22.95 8.7 23.5 8.25 24.1 7.8 24.7 8.5 L25.05 9.15 25.15 9.4 M22.8 8.25 Q23.15 9.05 22.35 9.45 21.6 9.9 21.35 9.05 21.0 8.25 21.7 7.85 22.5 7.45 22.8 8.25 M19.6 7.8 Q20.0 8.6 19.45 9.05 18.85 9.5 18.5 8.6 18.05 7.7 18.65 7.35 19.3 7.0 19.6 7.8 M21.3 10.85 Q22.15 10.45 22.75 11.15 23.25 11.85 22.55 12.55 21.85 13.25 21.15 12.2 20.45 11.15 21.3 10.85 M20.9 12.3 Q21.35 13.15 20.65 13.6 19.95 14.05 19.45 13.2 18.9 12.45 19.7 12.0 20.45 11.55 20.9 12.3 M16.65 7.0 Q16.9 7.7 16.3 8.25 16.65 9.15 16.0 9.5 15.25 9.9 14.55 9.2 13.85 8.5 14.8 7.8 L14.9 7.7 Q14.8 7.2 15.5 6.85 16.35 6.25 16.65 7.0 M16.95 13.6 L17.85 13.5 18.15 13.9 Q18.6 14.75 17.9 15.2 17.2 15.6 16.65 14.9 16.1 14.3 16.9 13.65 L16.95 13.6 M13.15 18.8 L13.4 19.55 13.65 19.3 Q14.7 18.55 15.35 19.65 16.05 20.7 15.05 21.4 13.95 22.1 13.25 21.1 12.95 20.65 13.0 20.2 L12.85 20.25 Q12.05 20.6 11.45 19.75 L11.2 19.2 Q10.7 18.4 11.6 18.05 L12.85 18.15 13.0 18.6 13.15 18.8 M17.9 16.6 L18.15 16.3 18.55 16.15 Q19.05 16.0 19.45 16.65 19.95 17.45 19.25 17.9 18.5 18.4 17.95 17.6 17.6 16.95 17.9 16.6 M20.05 19.75 Q20.7 20.55 20.0 20.95 19.25 21.4 18.65 20.7 18.15 20.0 18.8 19.5 19.45 19.0 20.05 19.75 M9.7 7.9 Q10.0 8.55 9.55 8.7 L9.35 8.75 Q9.45 9.3 8.9 9.65 8.15 10.0 7.45 9.3 L7.2 8.8 6.75 9.25 Q5.8 9.95 5.1 8.75 4.4 7.55 5.4 6.9 6.45 6.3 7.1 7.4 L7.35 8.3 7.7 7.9 Q8.35 7.4 8.8 7.7 L8.9 7.6 Q9.35 7.35 9.7 7.9 M9.55 5.6 Q9.0 5.05 9.7 4.65 10.45 4.2 10.85 4.85 11.2 5.5 10.65 5.9 10.15 6.2 9.55 5.6 M3.75 7.9 Q4.15 8.8 3.45 9.2 L3.05 9.4 3.15 9.45 Q4.0 10.65 2.8 11.3 1.55 12.0 0.85 10.95 0.4 10.2 0.85 9.55 L0.45 9.85 Q-0.45 10.35 -0.8 9.3 L-0.9 8.5 -0.55 8.05 -0.4 8.0 -0.3 7.9 Q0.6 7.45 0.95 8.4 1.15 9.0 0.9 9.45 L1.2 9.15 Q1.75 8.7 2.15 8.75 1.85 8.05 2.55 7.6 3.4 7.0 3.75 7.9 M4.9 12.3 Q5.3 12.8 4.65 13.15 4.1 13.45 3.75 12.95 3.4 12.45 4.0 12.1 4.6 11.8 4.9 12.3 M5.4 13.4 Q5.75 13.05 6.1 13.15 7.2 12.35 8.1 13.5 9.0 14.8 7.6 15.75 6.4 16.6 5.6 15.75 5.15 15.6 4.95 15.1 4.55 14.15 5.4 13.4 M6.7 18.5 Q6.0 18.85 5.55 18.05 5.1 17.3 5.75 16.95 6.45 16.65 6.9 17.4 7.35 18.1 6.7 18.5 M10.5 19.95 Q10.7 20.9 10.0 21.5 9.25 22.0 8.85 21.15 8.5 20.25 9.35 19.65 10.25 18.95 10.5 19.95 M6.5 19.85 L6.75 20.45 Q7.45 20.1 7.85 20.8 8.3 21.55 7.65 22.2 7.0 22.8 6.45 21.95 L6.2 21.15 Q5.4 21.75 4.8 20.9 4.15 20.1 5.05 19.65 5.95 19.1 6.5 19.85 M6.05 23.15 Q6.3 23.75 5.5 24.35 4.6 24.9 4.35 24.15 L4.25 23.75 4.15 23.6 Q3.45 22.75 4.25 22.25 L5.75 22.35 6.05 23.15 M19.0 22.7 Q19.55 22.5 20.0 22.9 L21.4 23.0 Q22.25 23.5 21.15 24.35 20.2 25.1 19.7 24.55 18.85 24.8 18.6 23.9 18.3 22.9 19.0 22.7 M16.3 21.95 Q15.55 21.05 16.7 20.65 17.8 20.2 18.15 21.25 18.55 22.25 17.8 22.55 17.0 22.8 16.3 21.95" fill="#ffffff" fill-rule="evenodd" stroke="none"/>
      <path d="M15.35 16.3 L12.25 14.55 Q10.75 15.45 9.2 16.3 L10.05 12.9 7.35 10.6 10.85 10.3 12.25 7.05 13.7 10.25 17.25 10.6 14.55 12.9 15.35 16.3" fill="#fff4cc" fill-rule="evenodd" stroke="none"/>
    </g>
    <g id="sprite2" transform="matrix(1.0, 0.0, 0.0, 1.0, 2.55, 1.85)">
      <use height="24.55" transform="matrix(1.0, 0.0, 0.0, 1.0, -2.55, -1.85)" width="17.3" xlink:href="#shape3"/>
    </g>
    <g id="shape3" transform="matrix(1.0, 0.0, 0.0, 1.0, 2.55, 1.85)">
      <path d="M10.8 21.05 L9.65 16.55 13.1 20.0 8.45 12.6 6.5 7.05 4.75 7.0 0.0 0.0 3.6 7.35 2.75 8.7 6.7 13.35 10.8 21.05" fill="#fee481" fill-rule="evenodd" stroke="none"/>
      <path d="M0.2 0.05 L-0.3 -0.8 Q-0.55 -0.95 -0.45 -0.75 -1.05 -1.3 -0.5 -0.15 0.0 0.95 0.55 1.45 L0.75 1.85 1.45 2.95 Q1.75 3.3 1.4 2.55 L0.85 1.6 0.65 0.85 0.2 0.05 M2.2 2.75 L1.15 1.2 Q0.6 0.6 1.15 1.7 L2.1 3.2 Q2.65 3.75 2.2 2.75 M1.7 4.1 L2.7 5.7 Q3.25 6.25 2.7 5.15 L1.7 3.5 Q1.25 3.1 1.7 4.1 M2.8 9.1 L3.3 9.8 Q3.55 10.1 3.3 9.6 L3.15 9.2 3.05 8.9 2.5 8.0 Q2.2 7.65 2.45 8.25 L2.75 8.85 2.8 9.1 M2.65 7.95 L3.3 8.95 Q3.65 9.3 3.25 8.55 L2.6 7.5 Q2.3 7.2 2.65 7.95 M2.85 7.35 L3.55 8.4 Q3.9 8.8 3.5 7.95 L2.8 6.85 Q2.5 6.6 2.85 7.35 M4.2 10.15 Q3.9 9.85 4.15 10.5 L4.85 11.75 Q5.3 12.3 4.9 11.3 L4.2 10.15 M5.0 11.35 L5.7 12.5 Q6.0 12.85 5.7 12.05 L5.0 11.05 Q4.7 10.7 5.0 11.35 M2.9 6.45 L3.6 7.5 4.3 8.6 Q4.65 8.9 4.4 8.2 L3.6 7.0 3.55 6.95 3.0 6.2 Q2.55 5.75 2.9 6.45 M6.25 12.25 Q6.0 11.95 6.1 12.25 L6.25 12.65 6.95 13.7 Q7.3 14.05 6.95 13.45 L6.3 12.3 6.25 12.25 M9.5 16.6 L9.85 17.3 9.75 17.1 Q9.15 16.5 9.6 17.5 L10.55 19.05 Q11.1 19.55 10.7 18.6 L10.25 17.85 10.3 17.9 Q10.6 18.1 10.25 17.35 L10.0 16.8 9.4 15.85 Q8.95 15.45 9.25 16.05 L9.4 16.45 9.5 16.6 M7.65 14.95 L7.5 14.75 7.35 14.6 7.45 15.1 8.1 16.2 Q8.5 16.6 8.15 15.85 L7.65 14.95 M8.95 17.9 L9.6 18.95 Q9.9 19.3 9.65 18.65 L9.05 17.6 Q8.65 17.15 8.95 17.9 M4.45 6.75 L4.85 7.4 4.95 7.5 5.45 8.2 Q5.75 8.5 5.5 7.85 L5.3 7.4 5.6 7.75 Q6.05 8.3 5.6 7.2 5.1 6.05 4.6 5.6 4.1 5.15 4.6 6.15 L5.0 6.95 4.75 6.65 Q4.4 6.25 4.45 6.55 L4.4 6.4 Q4.25 6.25 4.45 6.75 M3.3 4.75 L2.8 3.9 Q2.4 3.55 2.7 4.15 L3.25 5.05 Q3.5 5.3 3.3 4.75 M5.35 6.35 Q5.75 7.2 6.1 7.45 L6.2 7.65 6.25 7.7 7.25 9.3 Q7.75 9.85 7.4 8.9 L6.65 7.65 6.85 7.85 Q7.2 8.25 6.8 7.3 L6.35 6.55 6.1 6.2 6.0 6.15 5.95 6.1 Q5.6 5.75 6.05 6.65 L6.55 7.55 6.35 7.25 6.0 7.0 5.35 6.0 Q4.95 5.55 5.35 6.35 M7.45 10.3 L7.9 11.05 Q8.15 11.3 7.95 10.8 L7.5 10.1 Q7.2 9.9 7.45 10.3 M7.95 11.35 L7.65 11.15 Q7.1 10.55 7.55 11.6 8.1 12.75 8.8 13.55 9.4 14.2 9.1 13.4 L8.85 12.8 7.95 11.35 M10.35 15.85 Q10.65 16.15 10.3 15.45 L9.7 14.45 Q9.4 14.25 9.75 14.95 L10.35 15.85 M10.5 17.4 L11.4 18.75 Q11.75 19.15 11.4 18.4 L10.55 17.1 Q10.05 16.5 10.5 17.4 M11.05 17.05 L11.35 17.6 Q11.0 17.3 11.35 18.0 L12.1 19.25 Q12.55 19.75 12.1 18.9 L11.8 18.25 Q12.25 18.7 11.9 17.9 L11.2 16.8 Q10.8 16.4 11.05 17.05 M12.85 19.95 L13.5 21.0 Q13.95 21.45 13.6 20.7 L13.4 20.4 13.3 20.2 12.65 19.05 Q12.25 18.6 12.5 19.25 L12.85 19.95 M10.6 20.45 Q10.4 20.3 10.55 20.65 10.25 20.35 10.45 20.85 10.55 21.35 11.15 22.05 11.7 22.6 11.45 22.1 11.75 22.3 11.3 21.45 L10.6 20.45 M10.6 19.55 L9.9 18.5 Q9.55 18.15 10.0 19.1 L10.75 20.2 10.6 19.55" fill="#ffffff" fill-rule="evenodd" stroke="none"/>
      <path d="M7.9 14.6 L7.45 12.8 8.8 14.15 6.95 11.2 6.15 9.0 5.5 9.0 3.6 6.15 5.05 9.1 4.65 9.65 6.25 11.55 7.9 14.6" fill="#fff4cc" fill-rule="evenodd" stroke="none"/>
    </g>
    <g id="sprite3" transform="matrix(1.0, 0.0, 0.0, 1.0, 1.05, 1.05)">
      <use height="25.85" transform="matrix(1.0, 0.0, 0.0, 1.0, -1.05, -1.05)" width="17.8" xlink:href="#shape4"/>
    </g>
    <g id="shape4" transform="matrix(1.0, 0.0, 0.0, 1.0, 1.05, 1.05)">
      <path d="M12.7 23.35 L7.8 18.8 2.7 23.25 4.25 14.8 0.0 9.0 5.8 8.25 8.3 0.0 10.45 8.1 16.15 9.0 11.6 14.8 12.7 23.35" fill="#fee481" fill-rule="evenodd" stroke="none"/>
      <path d="M7.75 0.15 Q7.4 -0.5 7.85 -0.8 8.15 -1.05 8.35 -0.8 9.25 -1.55 9.7 -0.3 10.15 0.9 9.3 1.55 L9.55 2.0 Q9.75 2.9 9.3 3.25 8.8 3.7 8.5 2.95 8.3 2.25 8.65 1.8 8.1 1.8 7.8 1.05 7.65 0.6 7.75 0.15 M6.25 3.4 Q5.95 2.25 6.65 1.55 7.4 0.85 7.8 2.0 8.2 3.1 7.45 3.8 6.65 4.5 6.25 3.4 M10.5 4.4 Q10.85 5.5 10.25 6.25 9.55 6.95 9.15 5.75 8.7 4.55 9.4 3.9 10.05 3.35 10.5 4.4 M16.5 9.4 Q16.6 9.9 16.35 10.2 16.0 10.6 15.8 10.0 L15.75 9.65 15.3 9.25 Q15.0 8.7 15.45 8.25 15.8 7.8 16.2 8.5 L16.4 9.15 16.5 9.4 M15.0 8.25 Q15.15 9.05 14.65 9.45 14.15 9.9 13.95 9.05 13.8 8.25 14.25 7.85 14.8 7.45 15.0 8.25 M12.9 7.8 Q13.1 8.6 12.7 9.05 12.35 9.5 12.1 8.6 11.85 7.7 12.25 7.35 12.7 7.0 12.9 7.8 M13.9 10.85 Q14.45 10.45 14.85 11.15 15.2 11.85 14.65 12.55 14.2 13.25 13.8 12.2 13.35 11.15 13.9 10.85 M13.65 12.3 Q13.85 13.15 13.4 13.6 12.95 14.05 12.6 13.2 12.3 12.45 12.85 12.0 13.35 11.55 13.65 12.3 M10.95 7.0 Q11.1 7.7 10.7 8.25 10.9 9.15 10.45 9.5 9.95 9.9 9.5 9.2 9.05 8.5 9.7 7.8 L9.8 7.7 Q9.7 7.2 10.2 6.85 10.8 6.25 10.95 7.0 M11.0 13.6 Q11.35 13.2 11.6 13.5 L11.8 13.9 Q12.05 14.75 11.55 15.2 11.1 15.6 10.75 14.9 10.45 14.3 10.95 13.65 L11.0 13.6 M8.35 18.8 L8.5 19.55 8.65 19.3 Q9.4 18.55 9.8 19.65 10.2 20.7 9.55 21.4 8.85 22.1 8.35 21.1 8.15 20.65 8.25 20.2 L8.15 20.25 Q7.6 20.6 7.25 19.75 L7.1 19.2 Q6.75 18.4 7.4 18.05 8.05 17.55 8.2 18.15 L8.25 18.6 8.35 18.8 M11.5 16.6 L11.75 16.3 12.0 16.15 Q12.3 16.0 12.5 16.65 12.85 17.45 12.4 17.9 11.85 18.4 11.55 17.6 11.3 16.95 11.5 16.6 M12.9 19.75 Q13.25 20.55 12.8 20.95 12.3 21.4 11.9 20.7 11.65 20.0 12.05 19.5 12.45 19.0 12.9 19.75 M6.4 7.9 Q6.55 8.55 6.25 8.7 L6.1 8.75 Q6.15 9.3 5.85 9.65 5.35 10.0 4.85 9.3 L4.7 8.8 4.4 9.25 Q3.8 9.95 3.3 8.75 2.9 7.55 3.6 6.9 4.3 6.3 4.65 7.4 L4.85 8.3 5.1 7.9 Q5.5 7.4 5.8 7.7 L5.9 7.6 Q6.15 7.35 6.4 7.9 M6.35 5.6 Q5.95 5.05 6.45 4.65 7.0 4.2 7.2 4.85 7.45 5.5 7.05 5.9 6.7 6.2 6.35 5.6 M2.5 7.9 Q2.7 8.8 2.25 9.2 L2.0 9.4 2.05 9.45 Q2.55 10.65 1.75 11.3 0.95 12.0 0.45 10.95 0.25 10.2 0.5 9.55 L0.25 9.85 Q-0.3 10.35 -0.55 9.3 L-0.6 8.5 -0.35 8.05 -0.2 8.0 -0.2 7.9 Q0.4 7.45 0.65 8.4 L0.55 9.45 0.75 9.15 Q1.1 8.7 1.4 8.75 1.25 8.05 1.7 7.6 2.25 7.0 2.5 7.9 M3.15 12.3 Q3.35 12.8 2.95 13.15 2.55 13.45 2.35 12.95 2.1 12.45 2.55 12.1 2.95 11.8 3.15 12.3 M3.45 13.4 Q3.65 13.05 3.9 13.15 4.65 12.35 5.2 13.5 5.7 14.8 4.8 15.75 3.95 16.6 3.5 15.75 3.2 15.6 3.1 15.1 2.85 14.15 3.45 13.4 M4.1 18.5 Q3.65 18.85 3.4 18.05 3.1 17.3 3.55 16.95 4.0 16.65 4.3 17.4 4.6 18.1 4.1 18.5 M6.6 19.95 Q6.7 20.9 6.25 21.5 5.75 22.0 5.5 21.15 5.3 20.25 5.85 19.65 6.45 18.95 6.6 19.95 M4.0 19.85 L4.1 20.45 Q4.6 20.1 4.8 20.8 5.1 21.55 4.7 22.2 4.25 22.8 3.9 21.95 L3.75 21.15 Q3.25 21.75 2.8 20.9 2.45 20.1 3.05 19.65 3.6 19.1 4.0 19.85 M3.6 23.15 Q3.75 23.75 3.15 24.35 2.6 24.9 2.45 24.15 L2.45 23.75 2.35 23.6 Q1.9 22.75 2.5 22.25 3.0 21.65 3.4 22.35 L3.6 23.15 M12.1 22.7 Q12.45 22.5 12.75 22.9 13.15 22.5 13.65 23.0 14.2 23.5 13.45 24.35 12.8 25.1 12.5 24.55 11.95 24.8 11.85 23.9 11.6 22.9 12.1 22.7 M10.35 21.95 Q9.85 21.05 10.6 20.65 11.4 20.2 11.6 21.25 11.85 22.25 11.3 22.55 10.8 22.8 10.35 21.95" fill="#ffffff" fill-rule="evenodd" stroke="none"/>
      <path d="M9.8 16.3 L7.85 14.55 5.8 16.3 6.4 12.9 4.7 10.6 7.05 10.3 8.05 7.05 8.9 10.25 11.2 10.6 9.4 12.9 9.8 16.3" fill="#fff4cc" fill-rule="evenodd" stroke="none"/>
    </g>
    <g id="sprite4" transform="matrix(1.0, 0.0, 0.0, 1.0, 1.9, 1.05)">
      <use height="25.85" transform="matrix(1.0, 0.0, 0.0, 1.0, -1.9, -1.05)" width="13.2" xlink:href="#shape5"/>
    </g>
    <g id="shape5" transform="matrix(1.0, 0.0, 0.0, 1.0, 1.9, 1.05)">
      <path d="M3.95 23.35 L3.05 18.8 0.0 23.25 2.6 14.8 2.2 9.0 4.75 8.25 7.65 0.0 6.6 8.1 8.7 9.0 5.55 14.8 3.95 23.35" fill="#fee481" fill-rule="evenodd" stroke="none"/>
      <path d="M7.4 0.15 Q7.4 -0.5 7.65 -0.8 7.85 -1.05 7.85 -0.8 8.4 -1.55 8.3 -0.3 8.2 0.9 7.7 1.55 L7.7 2.0 Q7.6 2.9 7.3 3.25 7.0 3.7 7.0 2.95 7.1 2.25 7.35 1.8 7.15 1.8 7.25 1.05 L7.4 0.15 M6.05 3.4 Q6.2 2.25 6.6 1.55 7.05 0.85 7.0 2.0 6.9 3.1 6.4 3.8 5.95 4.5 6.05 3.4 M7.5 4.4 Q7.4 5.5 6.95 6.25 6.55 6.95 6.65 5.75 6.75 4.55 7.2 3.9 7.55 3.35 7.5 4.4 M8.75 9.4 L8.5 10.2 Q8.3 10.6 8.35 10.0 L8.4 9.65 Q8.3 9.65 8.35 9.25 8.3 8.7 8.6 8.25 8.85 7.8 8.85 8.5 L8.75 9.15 8.75 9.4 M8.45 8.25 L8.0 9.45 Q7.7 9.9 7.85 9.05 7.95 8.25 8.2 7.85 8.5 7.45 8.45 8.25 M7.7 7.8 L7.35 9.05 Q7.05 9.5 7.2 8.6 7.25 7.7 7.55 7.35 7.75 7.0 7.7 7.8 M7.35 10.85 Q7.7 10.45 7.65 11.15 L7.3 12.55 Q6.95 13.25 7.0 12.2 7.05 11.15 7.35 10.85 M6.9 12.3 L6.55 13.6 Q6.2 14.05 6.3 13.2 6.35 12.45 6.65 12.0 6.95 11.55 6.9 12.3 M7.05 7.0 L6.7 8.25 6.3 9.5 Q6.05 9.9 6.0 9.2 5.95 8.5 6.4 7.8 L6.45 7.7 Q6.55 7.2 6.8 6.85 7.2 6.25 7.05 7.0 M5.6 13.6 Q5.75 13.2 5.8 13.5 L5.8 13.9 5.45 15.2 Q5.15 15.6 5.15 14.9 5.15 14.3 5.5 13.65 L5.6 13.6 M3.25 18.8 L3.2 19.55 3.3 19.3 Q3.75 18.55 3.65 19.65 3.6 20.7 3.2 21.4 2.7 22.1 2.75 21.1 L2.9 20.2 2.85 20.25 Q2.6 20.6 2.65 19.75 L2.65 19.2 3.05 18.05 Q3.45 17.55 3.35 18.15 L3.3 18.6 3.25 18.8 M5.1 16.6 L5.2 16.3 5.35 16.15 5.5 16.65 5.15 17.9 Q4.8 18.4 4.85 17.6 4.9 16.95 5.1 16.6 M4.9 19.75 L4.6 20.95 Q4.3 21.4 4.3 20.7 4.3 20.0 4.6 19.5 4.9 19.0 4.9 19.75 M5.0 7.9 L4.8 8.7 4.75 8.75 4.4 9.65 Q4.1 10.0 4.1 9.3 L4.15 8.8 3.95 9.25 Q3.5 9.95 3.6 8.75 3.7 7.55 4.15 6.9 4.55 6.3 4.5 7.4 L4.3 8.3 4.5 7.9 Q4.8 7.4 4.85 7.7 L4.9 7.6 Q5.1 7.35 5.0 7.9 M5.55 5.6 Q5.55 5.05 5.8 4.65 6.1 4.2 6.05 4.85 L5.75 5.9 Q5.55 6.2 5.55 5.6 M3.45 7.9 Q3.35 8.8 3.05 9.2 L2.9 9.4 2.95 9.45 Q2.85 10.65 2.4 11.3 1.85 12.0 1.95 10.95 2.0 10.2 2.3 9.55 L2.15 9.85 Q1.75 10.35 1.9 9.3 L2.1 8.5 2.3 8.05 2.35 8.0 2.4 7.9 Q2.7 7.45 2.6 8.4 L2.35 9.45 2.5 9.15 Q2.7 8.7 2.85 8.75 L3.25 7.6 Q3.55 7.0 3.45 7.9 M2.7 12.3 L2.45 13.15 Q2.2 13.45 2.25 12.95 2.25 12.45 2.5 12.1 2.7 11.8 2.7 12.3 M2.6 13.4 Q2.75 13.05 2.85 13.15 3.25 12.35 3.25 13.5 3.2 14.8 2.55 15.75 2.05 16.6 2.05 15.75 L2.0 15.1 Q2.15 14.15 2.6 13.4 M1.7 18.5 Q1.4 18.85 1.5 18.05 1.55 17.3 1.8 16.95 2.05 16.65 2.0 17.4 L1.7 18.5 M2.35 19.95 L1.8 21.5 Q1.5 22.0 1.6 21.15 1.7 20.25 2.1 19.65 2.5 18.95 2.35 19.95 M1.3 19.85 L1.2 20.45 Q1.5 20.1 1.45 20.8 L1.05 22.2 Q0.7 22.8 0.75 21.95 L0.9 21.15 Q0.55 21.75 0.55 20.9 0.6 20.1 0.95 19.65 1.35 19.1 1.3 19.85 M0.35 23.15 L-0.1 24.35 Q-0.45 24.9 -0.35 24.15 L-0.25 23.75 -0.25 23.6 Q-0.25 22.75 0.15 22.25 0.45 21.65 0.5 22.35 L0.35 23.15 M3.85 22.7 L4.1 22.9 Q4.35 22.5 4.45 23.0 4.55 23.5 4.05 24.35 3.65 25.1 3.6 24.55 3.35 24.8 3.45 23.9 L3.85 22.7 M3.35 21.95 Q3.35 21.05 3.75 20.65 4.15 20.2 4.0 21.25 3.9 22.25 3.6 22.55 3.35 22.8 3.35 21.95" fill="#ffffff" fill-rule="evenodd" stroke="none"/>
      <path d="M4.5 16.3 L4.15 14.55 2.9 16.3 3.95 12.9 3.8 10.6 4.8 10.3 5.95 7.05 5.55 10.25 6.4 10.6 5.15 12.9 4.5 16.3" fill="#fff4cc" fill-rule="evenodd" stroke="none"/>
    </g>
    <g id="sprite5" transform="matrix(1.0, 0.0, 0.0, 1.0, 4.65, 1.15)">
      <use height="22.9" transform="matrix(1.0, 0.0, 0.0, 1.0, -4.65, -1.15)" width="21.25" xlink:href="#shape6"/>
    </g>
    <g id="shape6" transform="matrix(1.0, 0.0, 0.0, 1.0, 4.65, 1.15)">
      <path d="M5.15 12.9 L7.85 20.4 9.1 16.75 14.05 21.2 9.65 13.55 9.95 8.7 6.1 7.55 1.25 0.0 3.2 7.05 0.0 7.35 5.15 12.9" fill="#ba3801" fill-rule="evenodd" stroke="none"/>
      <path d="M0.15 -0.55 Q0.2 0.4 0.95 0.95 L1.4 1.25 Q1.3 1.3 1.35 1.7 1.45 2.5 2.1 3.05 L2.6 3.15 2.85 3.3 Q3.45 3.75 3.3 3.0 3.15 2.3 2.6 1.7 L2.1 1.75 1.8 1.45 1.45 1.25 Q1.7 1.2 1.65 0.75 1.6 -0.05 0.85 -0.8 0.1 -1.55 0.15 -0.55 M4.4 5.4 Q5.15 6.05 5.0 5.05 4.85 4.15 4.15 3.6 3.45 3.0 3.5 3.95 3.65 4.85 4.4 5.4 M2.8 5.35 Q3.3 5.8 3.1 5.05 L2.5 4.0 Q2.05 3.65 2.2 4.3 2.3 4.95 2.8 5.35 M5.7 7.55 L6.25 8.25 Q6.8 8.65 6.65 7.9 6.5 7.15 5.95 6.9 L5.9 6.8 5.25 6.05 Q4.55 5.35 4.75 6.1 4.9 6.9 5.6 7.45 L5.7 7.55 M3.05 7.6 L3.3 7.85 Q3.65 8.0 3.65 7.55 L3.2 6.8 Q2.8 6.55 2.8 6.9 L2.5 6.55 Q1.95 6.1 2.0 6.7 2.05 7.4 2.55 7.85 3.1 8.3 3.1 7.7 L3.05 7.6 M5.15 12.55 Q4.5 12.0 4.65 12.8 4.75 13.6 5.3 14.0 5.85 14.4 5.8 13.7 5.75 13.05 5.15 12.55 M1.05 7.4 Q0.85 7.4 0.85 7.85 0.95 8.75 1.7 9.45 2.5 10.2 2.35 9.2 2.2 8.45 1.7 7.85 L1.65 7.55 1.05 6.65 Q0.65 6.3 0.8 6.9 L1.05 7.4 M-0.05 6.95 Q-0.8 6.5 -0.55 7.35 -0.4 8.2 0.2 8.65 0.85 9.15 0.75 8.3 0.65 7.4 -0.05 6.95 M3.65 11.25 Q3.5 10.5 2.9 9.9 2.25 9.25 2.45 10.2 L3.25 11.55 Q3.75 12.0 3.65 11.25 M8.65 7.45 Q7.85 6.9 8.1 7.85 L7.4 7.05 Q6.55 6.55 6.7 7.55 6.85 8.6 7.65 9.15 8.35 9.65 8.3 8.65 L8.25 8.35 9.0 9.4 Q9.65 9.9 9.5 9.0 9.35 8.05 8.65 7.45 M10.0 10.2 Q9.4 9.65 9.45 10.45 9.55 11.25 10.25 11.75 11.05 12.3 10.85 11.5 10.6 10.7 10.0 10.2 M10.65 9.2 L10.25 8.6 Q9.95 8.3 10.0 8.7 10.05 9.05 10.4 9.3 10.8 9.6 10.65 9.2 M10.2 12.95 Q10.15 12.45 9.55 11.95 8.9 11.45 9.1 12.15 L9.15 12.4 Q8.65 11.95 8.8 12.55 8.95 13.25 9.4 13.75 9.9 14.25 9.9 13.65 L9.85 13.25 Q10.25 13.4 10.2 12.95 M11.35 17.05 Q12.25 17.75 12.05 16.65 11.9 15.5 10.95 14.85 10.1 14.15 10.25 15.25 10.5 16.35 11.35 17.05 M13.15 20.25 Q13.3 20.95 13.9 21.45 L14.1 21.6 Q14.45 21.95 14.45 21.5 L14.4 21.35 14.35 21.15 Q14.2 20.4 13.6 19.95 12.9 19.45 13.15 20.25 M12.4 18.05 Q11.65 17.45 11.8 18.4 L11.8 18.6 Q11.3 18.25 11.35 19.05 11.25 19.85 11.95 20.3 12.65 20.7 12.6 19.9 L12.55 19.85 Q13.15 20.25 13.15 19.45 13.15 18.7 12.4 18.05 M10.65 17.55 Q10.0 17.1 10.15 17.75 10.3 18.3 10.8 18.7 11.3 19.1 11.25 18.6 11.3 18.0 10.65 17.55 M6.7 15.95 Q6.6 15.35 6.05 14.95 5.45 14.55 5.55 15.2 5.6 15.75 6.2 16.2 6.75 16.65 6.7 15.95 M7.4 18.2 L7.05 17.55 Q6.7 17.3 6.75 17.7 6.75 18.0 7.1 18.25 L7.4 18.2 M8.45 19.95 Q8.35 19.3 7.9 19.05 7.45 18.75 7.5 19.25 L7.7 19.85 Q7.4 19.55 7.5 20.0 7.6 20.5 7.95 20.8 8.3 21.1 8.2 20.65 L7.9 20.05 8.05 20.2 Q8.55 20.55 8.45 19.95 M8.95 19.45 Q9.65 20.05 9.6 19.3 9.55 18.55 8.75 17.8 7.95 17.05 8.1 17.95 8.3 18.85 8.95 19.45 M8.95 17.95 Q10.0 18.95 9.9 17.8 9.75 16.65 8.8 15.9 7.95 15.25 7.9 16.1 7.9 16.95 8.95 17.95" fill="#ffffff" fill-rule="evenodd" stroke="none"/>
      <path d="M5.8 11.4 L6.9 14.45 7.4 13.0 9.4 14.75 7.6 11.65 7.75 9.8 6.25 9.35 4.25 6.3 5.0 9.1 3.75 9.2 5.8 11.4" fill="#d24002" fill-rule="evenodd" stroke="none"/>
    </g>
    <g id="sprite6" transform="matrix(1.0, 0.0, 0.0, 1.0, 3.6, 1.25)">
      <use height="25.1" transform="matrix(1.0, 0.0, 0.0, 1.0, -3.6, -1.25)" width="29.9" xlink:href="#shape7"/>
    </g>
    <g id="shape7" transform="matrix(1.0, 0.0, 0.0, 1.0, 3.6, 1.25)">
      <path d="M7.2 14.1 L7.25 22.35 13.15 18.35 20.9 23.2 17.15 14.8 22.0 9.5 13.95 8.25 9.1 0.0 7.7 7.7 0.0 8.0 7.2 14.1" fill="#ba3801" fill-rule="evenodd" stroke="none"/>
      <path d="M7.15 -0.6 Q6.45 0.45 7.65 1.05 L8.55 1.35 7.95 1.85 Q7.55 2.75 8.6 3.35 L9.65 3.4 10.0 3.6 Q11.05 4.1 11.4 3.3 11.7 2.5 10.8 1.85 L9.6 1.95 9.25 1.55 8.65 1.35 Q9.2 1.3 9.45 0.8 10.05 -0.05 8.95 -0.85 7.85 -1.7 7.15 -0.6 M11.9 5.9 Q13.2 6.6 13.55 5.55 14.0 4.55 12.85 3.9 11.7 3.3 11.15 4.3 10.65 5.3 11.9 5.9 M8.2 5.85 Q9.05 6.35 9.25 5.55 9.4 4.75 8.7 4.35 7.95 4.0 7.75 4.75 7.45 5.4 8.2 5.85 M13.0 8.25 Q13.1 8.7 13.8 9.0 14.75 9.45 14.95 8.65 15.2 7.85 14.3 7.55 L14.2 7.45 13.4 6.6 12.05 6.65 Q11.85 7.55 12.85 8.15 L13.0 8.25 M6.9 8.35 L7.35 8.6 Q7.95 8.75 8.3 8.25 8.6 7.85 7.9 7.45 L6.95 7.55 6.55 7.15 Q5.65 6.65 5.2 7.35 4.75 8.1 5.55 8.6 6.4 9.1 6.9 8.4 L6.9 8.35 M7.5 13.75 Q6.6 13.15 6.15 14.0 5.7 14.85 6.7 15.3 7.65 15.75 8.1 15.0 8.45 14.3 7.5 13.75 M2.35 8.1 Q1.9 8.1 1.65 8.6 1.05 9.6 2.25 10.35 3.45 11.15 3.85 10.1 4.25 9.25 3.55 8.6 L3.65 8.25 Q3.75 7.65 3.05 7.3 2.45 6.9 2.35 7.55 L2.35 8.1 M0.2 7.6 Q-1.0 7.1 -1.35 8.0 -1.7 8.95 -0.6 9.45 0.45 10.0 0.95 9.1 1.45 8.1 0.2 7.6 M5.15 12.3 Q5.55 11.5 4.6 10.85 3.6 10.15 3.4 11.15 3.2 12.15 4.05 12.65 4.85 13.15 5.15 12.3 M19.95 8.15 Q18.7 7.55 18.4 8.6 18.2 8.1 17.4 7.7 15.85 7.15 15.4 8.25 14.9 9.4 16.25 10.0 17.5 10.6 18.2 9.45 L18.3 9.15 Q18.4 9.85 19.15 10.25 20.25 10.85 20.65 9.85 21.15 8.85 19.95 8.15 M20.85 11.15 Q19.85 10.6 19.35 11.45 18.85 12.3 20.15 12.9 21.45 13.45 21.55 12.55 21.75 11.7 20.85 11.15 M23.2 10.1 Q23.3 9.65 22.8 9.4 22.3 9.1 22.1 9.5 21.85 9.9 22.45 10.2 L23.2 10.1 M18.95 14.2 Q19.25 13.65 18.25 13.05 17.25 12.5 17.05 13.3 L17.0 13.55 Q16.2 13.05 16.0 13.75 15.8 14.5 16.45 15.05 17.1 15.6 17.7 14.95 L17.85 14.5 Q18.7 14.7 18.95 14.2 M18.15 18.65 Q19.7 19.4 20.1 18.25 20.65 17.0 19.05 16.25 17.6 15.5 17.1 16.65 16.7 17.9 18.15 18.65 M19.55 22.15 Q19.3 22.95 20.35 23.45 L20.6 23.65 Q21.2 24.0 21.5 23.5 L21.5 23.4 21.65 23.15 Q21.85 22.35 20.85 21.85 19.75 21.3 19.55 22.15 M19.65 19.8 Q18.45 19.1 17.95 20.15 L17.9 20.35 Q17.05 19.95 16.4 20.85 15.6 21.7 16.85 22.2 18.15 22.65 18.6 21.8 L18.6 21.7 Q19.6 22.15 20.3 21.3 20.95 20.45 19.65 19.8 M16.05 19.25 Q15.0 18.75 14.85 19.4 14.55 20.05 15.45 20.45 L16.7 20.35 Q17.15 19.7 16.05 19.25 M8.15 17.5 Q8.55 16.8 7.6 16.35 6.65 15.95 6.25 16.6 5.85 17.25 6.85 17.75 7.8 18.25 8.15 17.5 M7.95 19.9 Q8.1 19.55 7.65 19.25 L6.9 19.35 Q6.7 19.7 7.25 19.95 L7.95 19.9 M8.9 21.85 Q9.25 21.15 8.4 20.85 7.55 20.55 7.3 21.1 7.15 21.4 7.35 21.7 6.85 21.4 6.65 21.9 6.4 22.45 7.0 22.75 7.65 23.1 7.8 22.6 L7.6 21.95 7.85 22.1 Q8.6 22.5 8.9 21.85 M10.55 21.3 Q11.7 21.95 12.15 21.15 12.6 20.3 11.45 19.45 10.2 18.65 9.85 19.65 9.45 20.65 10.55 21.3 M11.85 19.65 Q13.35 20.7 14.1 19.45 14.8 18.25 13.25 17.4 11.75 16.65 11.0 17.6 10.25 18.55 11.85 19.65" fill="#ffffff" fill-rule="evenodd" stroke="none"/>
      <path d="M9.85 12.45 L9.85 15.8 12.2 14.25 15.3 16.2 13.85 12.75 15.8 10.7 12.6 10.25 10.6 6.9 10.05 9.95 6.9 10.1 9.85 12.45" fill="#d24002" fill-rule="evenodd" stroke="none"/>
    </g>
    <g id="sprite7" transform="matrix(1.0, 0.0, 0.0, 1.0, 4.3, 1.25)">
      <use height="25.1" transform="matrix(1.0, 0.0, 0.0, 1.0, -4.3, -1.25)" width="29.9" xlink:href="#shape8"/>
    </g>
    <g id="shape8" transform="matrix(1.0, 0.0, 0.0, 1.0, 4.3, 1.25)">
      <path d="M14.8 14.1 L14.75 22.35 8.85 18.35 1.1 23.2 4.85 14.8 0.0 9.5 8.05 8.25 12.9 0.0 14.3 7.7 22.0 8.0 14.8 14.1" fill="#ba3801" fill-rule="evenodd" stroke="none"/>
      <path d="M14.85 -0.6 Q15.55 0.45 14.35 1.05 L13.45 1.35 14.05 1.85 Q14.45 2.75 13.4 3.35 L12.35 3.4 12.0 3.6 Q10.95 4.1 10.6 3.3 10.3 2.5 11.2 1.85 L12.4 1.95 12.75 1.55 13.35 1.35 Q12.8 1.3 12.55 0.8 11.95 -0.05 13.05 -0.85 14.15 -1.7 14.85 -0.6 M10.1 5.9 Q8.8 6.6 8.45 5.55 8.0 4.55 9.15 3.9 10.3 3.3 10.85 4.3 11.35 5.3 10.1 5.9 M13.8 5.85 Q12.95 6.35 12.75 5.55 12.6 4.75 13.3 4.35 14.05 4.0 14.25 4.75 14.55 5.4 13.8 5.85 M9.0 8.25 L8.2 9.0 Q7.25 9.45 7.05 8.65 6.8 7.85 7.7 7.55 L7.8 7.45 8.6 6.6 9.95 6.65 Q10.15 7.55 9.15 8.15 L9.0 8.25 M15.1 8.35 L14.65 8.6 Q14.05 8.75 13.7 8.25 13.4 7.85 14.1 7.45 L15.05 7.55 15.45 7.15 Q16.35 6.65 16.8 7.35 17.25 8.1 16.45 8.6 15.6 9.1 15.1 8.4 L15.1 8.35 M14.5 13.75 Q15.4 13.15 15.85 14.0 16.3 14.85 15.3 15.3 14.35 15.75 13.9 15.0 13.55 14.3 14.5 13.75 M19.65 8.1 Q20.1 8.1 20.35 8.6 20.95 9.6 19.75 10.35 18.55 11.15 18.15 10.1 17.75 9.25 18.45 8.6 L18.35 8.25 Q18.25 7.65 18.95 7.3 19.55 6.9 19.65 7.55 L19.65 8.1 M21.8 7.6 Q23.0 7.1 23.35 8.0 23.7 8.95 22.6 9.45 21.55 10.0 21.05 9.1 20.55 8.1 21.8 7.6 M16.85 12.3 Q16.45 11.5 17.4 10.85 18.4 10.15 18.6 11.15 18.8 12.15 17.95 12.65 17.15 13.15 16.85 12.3 M2.05 8.15 Q3.3 7.55 3.6 8.6 3.8 8.1 4.6 7.7 6.15 7.15 6.6 8.25 7.1 9.4 5.75 10.0 4.5 10.6 3.8 9.45 L3.7 9.15 Q3.6 9.85 2.85 10.25 1.75 10.85 1.35 9.85 0.85 8.85 2.05 8.15 M1.15 11.15 Q2.15 10.6 2.65 11.45 3.15 12.3 1.85 12.9 0.55 13.45 0.45 12.55 0.25 11.7 1.15 11.15 M-1.2 10.1 Q-1.3 9.65 -0.8 9.4 -0.3 9.1 -0.1 9.5 0.15 9.9 -0.45 10.2 -1.1 10.5 -1.2 10.1 M3.05 14.2 Q2.75 13.65 3.75 13.05 4.75 12.5 4.95 13.3 L5.0 13.55 Q5.8 13.05 6.0 13.75 6.2 14.5 5.55 15.05 L4.3 14.95 4.15 14.5 Q3.3 14.7 3.05 14.2 M3.85 18.65 Q2.3 19.4 1.9 18.25 1.35 17.0 2.95 16.25 4.4 15.5 4.9 16.65 5.3 17.9 3.85 18.65 M2.45 22.15 Q2.7 22.95 1.65 23.45 L1.4 23.65 Q0.8 24.0 0.5 23.5 L0.5 23.4 0.35 23.15 Q0.15 22.35 1.15 21.85 2.25 21.3 2.45 22.15 M2.35 19.8 Q3.55 19.1 4.05 20.15 L4.1 20.35 Q4.95 19.95 5.6 20.85 6.4 21.7 5.15 22.2 3.85 22.65 3.4 21.8 L3.4 21.7 Q2.4 22.15 1.7 21.3 1.05 20.45 2.35 19.8 M5.95 19.25 Q7.0 18.75 7.15 19.4 7.45 20.05 6.55 20.45 L5.3 20.35 Q4.85 19.7 5.95 19.25 M13.85 17.5 Q13.45 16.8 14.4 16.35 15.35 15.95 15.75 16.6 16.15 17.25 15.15 17.75 14.2 18.25 13.85 17.5 M14.05 19.9 Q13.9 19.55 14.35 19.25 14.9 18.9 15.1 19.35 15.3 19.7 14.75 19.95 L14.05 19.9 M13.1 21.85 Q12.75 21.15 13.6 20.85 14.45 20.55 14.7 21.1 L14.65 21.7 Q15.15 21.4 15.35 21.9 15.6 22.45 15.0 22.75 14.35 23.1 14.2 22.6 14.15 22.2 14.4 21.95 L14.15 22.1 Q13.4 22.5 13.1 21.85 M11.45 21.3 Q10.3 21.95 9.85 21.15 9.4 20.3 10.55 19.45 11.8 18.65 12.15 19.65 12.55 20.65 11.45 21.3 M10.15 19.65 Q8.65 20.7 7.9 19.45 7.2 18.25 8.75 17.4 10.25 16.65 11.0 17.6 11.75 18.55 10.15 19.65" fill="#ffffff" fill-rule="evenodd" stroke="none"/>
      <path d="M12.15 12.45 L12.15 15.8 9.8 14.25 6.7 16.2 8.15 12.75 6.2 10.7 9.4 10.25 11.4 6.9 11.95 9.95 15.1 10.1 12.15 12.45" fill="#d24002" fill-rule="evenodd" stroke="none"/>
    </g>
    <g id="sprite8" transform="matrix(1.0, 0.0, 0.0, 1.0, 1.5, 1.15)">
      <use height="22.9" transform="matrix(1.0, 0.0, 0.0, 1.0, -1.5, -1.15)" width="12.65" xlink:href="#shape9"/>
    </g>
    <g id="shape9" transform="matrix(1.0, 0.0, 0.0, 1.0, 1.5, 1.15)">
      <path d="M5.35 12.9 L3.65 20.4 3.0 16.75 0.0 21.2 2.65 13.55 2.45 8.7 4.8 7.55 7.7 0.0 6.5 7.05 8.4 7.35 5.35 12.9" fill="#ba3801" fill-rule="evenodd" stroke="none"/>
      <path d="M8.3 -0.55 Q8.3 0.4 7.85 0.95 L7.55 1.25 7.55 1.7 7.15 3.05 Q6.9 3.45 6.85 3.15 L6.75 3.3 Q6.35 3.75 6.4 3.0 6.5 2.3 6.85 1.7 7.15 1.3 7.15 1.75 L7.35 1.45 7.5 1.25 Q7.4 1.2 7.45 0.75 7.4 -0.05 7.9 -0.8 8.35 -1.55 8.3 -0.55 M5.8 5.4 Q5.3 6.05 5.45 5.05 5.5 4.15 5.95 3.6 6.35 3.0 6.3 3.95 6.25 4.85 5.8 5.4 M6.75 5.35 Q6.4 5.8 6.55 5.05 6.65 4.3 6.9 4.0 7.2 3.65 7.1 4.3 L6.75 5.35 M5.05 7.55 L4.7 8.25 Q4.35 8.65 4.45 7.9 4.55 7.15 4.8 6.9 L4.9 6.8 Q5.0 6.45 5.25 6.05 5.7 5.35 5.6 6.1 L5.05 7.45 5.05 7.55 M6.55 7.6 L6.4 7.85 Q6.2 8.0 6.25 7.55 6.25 7.15 6.5 6.8 6.7 6.55 6.7 6.9 L6.9 6.55 Q7.25 6.1 7.2 6.7 L6.9 7.85 Q6.55 8.3 6.55 7.7 L6.55 7.6 M5.35 12.55 Q5.7 12.0 5.65 12.8 L5.25 14.0 Q4.9 14.4 4.95 13.7 5.0 13.05 5.35 12.55 M7.8 7.4 Q7.95 7.4 7.9 7.85 7.85 8.75 7.35 9.45 6.9 10.2 7.0 9.2 7.05 8.45 7.4 7.85 L7.45 7.55 Q7.55 7.0 7.8 6.65 8.0 6.3 7.9 6.9 L7.8 7.4 M8.45 6.95 Q8.9 6.5 8.75 7.35 L8.3 8.65 Q7.9 9.15 7.95 8.3 8.05 7.4 8.45 6.95 M6.25 11.25 Q6.3 10.5 6.7 9.9 7.05 9.25 6.9 10.2 L6.45 11.55 Q6.15 12.0 6.25 11.25 M3.25 7.45 Q3.7 6.9 3.55 7.85 L4.0 7.05 Q4.5 6.55 4.4 7.55 4.3 8.6 3.85 9.15 3.4 9.65 3.45 8.65 L3.45 8.35 3.0 9.4 Q2.7 9.9 2.75 9.0 2.8 8.05 3.25 7.45 M2.45 10.2 Q2.8 9.65 2.75 10.45 2.7 11.25 2.25 11.75 1.8 12.3 1.95 11.5 2.05 10.7 2.45 10.2 M2.0 9.2 L2.3 8.6 Q2.45 8.3 2.4 8.7 L2.2 9.3 Q1.95 9.6 2.0 9.2 M2.3 12.95 Q2.35 12.45 2.7 11.95 3.1 11.45 3.0 12.15 L2.9 12.4 Q3.25 11.95 3.15 12.55 L2.8 13.75 Q2.5 14.25 2.45 13.65 L2.55 13.25 Q2.3 13.4 2.3 12.95 M1.6 17.05 Q1.05 17.75 1.2 16.65 1.3 15.5 1.9 14.85 2.4 14.15 2.3 15.25 2.15 16.35 1.6 17.05 M0.55 20.25 L0.1 21.45 0.0 21.6 Q-0.25 21.95 -0.25 21.5 L-0.2 21.35 -0.2 21.15 0.3 19.95 Q0.7 19.45 0.55 20.25 M1.05 18.05 Q1.45 17.45 1.4 18.4 L1.35 18.6 Q1.65 18.25 1.65 19.05 1.7 19.85 1.25 20.3 0.85 20.7 0.85 19.9 L0.9 19.85 Q0.55 20.25 0.55 19.45 0.55 18.7 1.05 18.05 M2.05 17.55 Q2.4 17.1 2.3 17.75 L1.95 18.7 Q1.65 19.1 1.7 18.6 1.65 18.0 2.05 17.55 M4.4 15.95 Q4.45 15.35 4.8 14.95 5.1 14.55 5.1 15.2 5.1 15.75 4.7 16.2 4.4 16.65 4.4 15.95 M4.0 18.2 L4.2 17.55 Q4.4 17.3 4.4 17.7 L4.2 18.25 Q3.95 18.55 4.0 18.2 M3.35 19.95 Q3.45 19.3 3.7 19.05 4.0 18.75 3.95 19.25 L3.8 19.85 Q3.95 19.55 3.95 20.0 L3.65 20.8 Q3.45 21.1 3.5 20.65 L3.65 20.05 3.6 20.2 Q3.35 20.55 3.35 19.95 M3.05 19.45 Q2.6 20.05 2.7 19.3 2.7 18.55 3.15 17.8 3.65 17.05 3.55 17.95 L3.05 19.45 M3.05 17.95 Q2.45 18.95 2.5 17.8 2.6 16.65 3.15 15.9 3.7 15.25 3.7 16.1 3.7 16.95 3.05 17.95" fill="#ffffff" fill-rule="evenodd" stroke="none"/>
      <path d="M4.95 11.4 L4.3 14.45 4.0 13.0 2.8 14.75 3.85 11.65 3.8 9.8 4.7 9.35 5.85 6.3 5.4 9.1 6.2 9.2 4.95 11.4" fill="#d24002" fill-rule="evenodd" stroke="none"/>
    </g>
    <g id="sprite9" transform="matrix(1.0, 0.0, 0.0, 1.0, 1.1, 0.55)">
      <use height="70.2" transform="matrix(1.0, 0.0, 0.0, 1.0, -1.1, -0.55)" width="132.95" xlink:href="#shape10"/>
    </g>
    <g id="shape10" transform="matrix(1.0, 0.0, 0.0, 1.0, 1.1, 0.55)">
      <path d="M74.85 68.25 Q59.85 50.85 48.85 35.5 38.8 49.5 27.6 63.0 15.85 42.3 8.1 18.25 3.85 24.75 1.6 32.75 -1.0 32.05 0.6 25.25 4.25 15.15 9.35 9.5 15.85 32.3 27.85 54.25 L48.85 25.5 Q59.85 40.85 74.85 58.25 88.6 37.85 99.1 20.0 109.05 30.75 115.1 45.75 124.55 22.75 125.1 0.0 L129.35 9.75 Q131.95 18.45 130.1 20.0 L126.35 9.75 Q124.55 32.75 115.1 55.75 109.05 40.75 99.1 30.0 88.6 47.85 74.85 68.25" fill="#fdf8ce" fill-rule="evenodd" stroke="none"/>
      <path d="M96.75 21.6 Q97.45 21.0 97.95 21.85 98.5 22.75 97.6 23.1 96.65 23.45 96.35 22.8 96.1 22.15 96.75 21.6 M95.7 24.9 Q95.4 24.15 95.95 23.65 96.55 23.15 97.0 23.9 97.5 24.7 96.75 25.15 96.0 25.6 95.7 24.9 M96.25 25.65 Q97.0 26.55 95.95 27.15 L94.9 27.35 95.05 27.5 Q95.45 28.05 94.8 28.35 94.1 28.65 93.55 28.1 92.95 27.55 93.8 27.25 L94.65 27.2 94.35 26.8 Q93.8 25.8 94.7 25.25 95.55 24.7 96.25 25.65 M93.3 30.4 Q92.55 30.75 92.3 30.2 92.05 29.65 92.65 29.15 93.2 28.7 93.65 29.4 94.1 30.1 93.3 30.4 M93.1 31.65 Q93.75 32.6 92.75 33.2 91.8 33.8 91.45 32.85 91.05 31.95 91.8 31.3 92.5 30.65 93.1 31.65 M104.4 24.75 Q104.95 25.35 104.0 25.95 103.05 26.5 102.7 25.7 102.35 24.9 103.1 24.55 103.9 24.15 104.4 24.75 M102.75 24.4 Q102.05 24.8 101.5 23.95 101.0 23.1 101.8 22.65 102.65 22.2 103.05 23.1 103.5 24.0 102.75 24.4 M101.2 22.5 Q100.7 23.05 100.1 22.2 99.55 21.35 100.3 21.0 101.05 20.7 101.4 21.35 101.7 22.0 101.2 22.5 M99.35 20.9 L99.1 21.05 Q98.55 21.25 98.1 20.85 97.65 20.4 98.35 20.15 L98.5 20.1 Q98.4 19.75 98.9 19.55 99.55 19.3 99.95 19.9 100.35 20.55 99.7 20.8 L99.35 20.9 M99.85 30.5 Q99.3 30.8 98.85 30.25 98.4 29.7 99.0 29.3 99.6 28.95 100.0 29.55 100.4 30.2 99.85 30.5 M100.65 31.65 Q100.2 31.9 100.0 31.55 99.8 31.15 100.1 30.85 100.4 30.55 100.7 30.95 101.05 31.4 100.65 31.65 M105.15 27.45 Q104.7 27.7 104.35 27.2 104.05 26.75 104.55 26.55 105.05 26.3 105.35 26.8 105.65 27.25 105.15 27.45 M106.8 28.35 Q107.2 29.05 106.6 29.65 106.0 30.25 105.35 29.3 104.7 28.35 105.55 27.95 106.45 27.6 106.8 28.35 M107.25 30.25 Q107.75 29.95 108.05 30.55 108.35 31.1 107.85 31.4 107.35 31.65 107.05 31.1 106.7 30.55 107.25 30.25 M98.45 31.45 Q98.75 32.25 98.1 32.8 97.45 33.35 97.0 32.45 96.5 31.55 97.3 31.15 98.15 30.7 98.45 31.45 M45.45 29.65 Q45.05 29.1 45.6 28.65 L46.7 28.75 Q47.25 29.3 46.55 29.75 L45.45 29.65 M44.05 30.9 Q43.6 30.1 44.35 29.7 45.1 29.3 45.6 30.0 46.1 30.7 45.3 31.2 44.5 31.65 44.05 30.9 M44.55 32.1 Q44.9 32.7 44.3 33.15 43.7 33.55 43.3 32.95 42.9 32.35 43.55 31.9 44.2 31.45 44.55 32.1 M48.65 25.4 L49.45 25.5 Q49.8 25.9 49.25 26.2 48.75 26.5 48.45 26.05 48.1 25.6 48.65 25.4 M46.8 27.55 Q46.4 26.9 47.0 26.5 47.65 26.1 48.1 26.8 48.55 27.5 47.9 27.9 47.2 28.25 46.8 27.55 M50.9 28.4 Q51.8 27.9 52.35 28.75 52.85 29.6 52.05 30.1 51.2 30.6 50.6 29.75 50.0 28.9 50.9 28.4 M50.6 28.2 Q49.9 28.5 49.5 27.85 49.05 27.2 49.75 26.8 50.4 26.45 50.85 27.2 51.3 27.95 50.6 28.2 M55.65 32.05 Q56.1 32.6 55.35 33.05 54.55 33.55 54.05 32.85 53.55 32.15 54.35 31.8 55.15 31.45 55.65 32.05 M53.95 30.95 Q54.6 31.7 53.55 32.4 52.55 33.1 52.0 32.15 51.4 31.2 52.35 30.7 53.25 30.15 53.95 30.95 M57.65 37.1 Q56.85 37.55 56.3 36.75 55.95 36.2 56.2 35.85 55.4 36.0 54.9 35.2 54.3 34.35 55.25 33.8 56.15 33.3 56.75 34.35 57.1 34.95 56.95 35.3 57.55 35.1 57.95 35.75 58.45 36.6 57.65 37.1 M59.4 37.9 Q59.75 38.35 59.2 38.75 58.65 39.15 58.3 38.6 58.0 38.05 58.5 37.75 59.05 37.45 59.4 37.9 M60.35 39.7 Q60.7 40.1 60.15 40.4 59.65 40.7 59.35 40.25 59.0 39.8 59.55 39.6 L60.35 39.7 M61.45 42.55 Q60.75 42.85 60.35 42.2 59.9 41.55 60.6 41.15 61.25 40.8 61.7 41.55 62.15 42.3 61.45 42.55 M61.95 43.95 Q61.6 43.45 62.1 43.15 62.6 42.85 62.95 43.35 63.25 43.85 62.75 44.15 62.25 44.45 61.95 43.95 M66.45 48.15 Q67.2 47.75 67.7 48.6 68.2 49.45 67.4 49.75 66.6 50.05 66.15 49.35 65.65 48.6 66.45 48.15 M64.75 47.6 Q64.1 46.75 65.1 46.35 66.1 45.9 66.65 46.6 67.25 47.3 66.3 47.9 65.35 48.45 64.75 47.6 M63.45 46.0 Q62.95 45.15 63.75 44.7 64.6 44.25 65.15 44.9 65.75 45.6 64.85 46.2 63.95 46.8 63.45 46.0 M57.4 46.5 Q56.7 46.9 56.2 46.25 55.7 45.65 56.45 45.2 57.15 44.75 57.6 45.45 58.05 46.1 57.4 46.5 M56.9 48.25 Q56.4 47.55 57.25 47.2 58.1 46.8 58.35 47.45 58.6 48.1 58.0 48.5 57.4 48.9 56.9 48.25 M58.6 49.7 Q58.15 48.7 58.95 48.45 59.75 48.15 60.35 48.85 60.9 49.55 60.0 50.1 59.1 50.7 58.6 49.7 M60.15 52.05 Q59.75 51.3 60.35 50.8 61.0 50.25 61.4 51.0 61.8 51.75 61.15 52.25 60.55 52.75 60.15 52.05 M62.65 53.35 Q62.15 53.6 61.85 53.2 61.55 52.75 62.0 52.45 62.5 52.2 62.8 52.65 63.1 53.1 62.65 53.35 M63.95 55.2 Q63.45 55.55 63.05 54.95 62.65 54.4 63.35 54.1 64.0 53.8 64.25 54.3 64.45 54.85 63.95 55.2 M66.3 56.85 L66.95 57.3 Q67.4 58.05 66.75 58.6 66.1 59.1 65.7 58.35 65.35 57.75 65.65 57.3 64.9 57.7 64.45 56.8 64.0 55.8 64.8 55.55 65.6 55.25 66.2 55.95 66.6 56.45 66.3 56.85 M69.25 50.7 Q69.65 51.35 69.0 51.75 68.35 52.15 67.95 51.5 67.5 50.85 68.15 50.45 68.8 50.05 69.25 50.7 M70.7 54.6 Q70.3 54.05 70.95 53.75 71.6 53.5 72.0 53.95 72.35 54.4 71.75 54.8 71.1 55.15 70.7 54.6 M69.35 52.9 Q68.95 52.2 69.6 51.85 70.3 51.45 70.75 52.0 71.25 52.55 70.5 53.05 69.75 53.55 69.35 52.9 M73.5 56.8 Q72.8 57.1 72.4 56.45 71.95 55.8 72.65 55.4 73.3 55.05 73.75 55.8 74.2 56.55 73.5 56.8 M77.0 54.2 Q77.55 53.75 77.95 54.4 78.4 55.1 77.7 55.55 77.05 55.95 76.75 55.3 76.5 54.65 77.0 54.2 M75.7 56.5 Q75.4 56.0 75.85 55.7 76.35 55.4 76.7 55.9 77.1 56.4 76.55 56.7 76.0 57.05 75.7 56.5 M47.0 37.35 Q46.6 36.75 47.35 36.4 48.1 36.05 48.35 36.75 48.65 37.45 48.05 37.7 47.45 38.0 47.0 37.35 M47.7 35.7 Q47.2 34.7 48.05 34.4 48.9 34.15 49.5 34.85 50.1 35.55 49.15 36.15 48.2 36.75 47.7 35.7 M50.25 37.75 Q49.85 38.1 49.55 37.6 49.3 37.15 49.7 36.8 50.1 36.45 50.35 36.95 50.65 37.45 50.25 37.75 M46.95 39.8 Q46.25 40.35 45.65 39.6 45.0 38.9 45.75 38.35 46.5 37.8 47.05 38.55 47.6 39.3 46.95 39.8 M50.95 38.95 Q50.65 38.6 51.1 38.3 51.5 38.05 51.8 38.45 52.1 38.85 51.65 39.1 L50.95 38.95 M52.15 40.85 Q51.45 39.9 52.6 39.4 53.75 38.85 54.1 39.75 54.45 40.65 53.65 41.2 52.8 41.75 52.15 40.85 M53.55 41.9 Q54.25 41.7 54.7 42.25 55.2 42.85 54.4 43.35 53.65 43.8 53.25 43.0 52.85 42.15 53.55 41.9 M56.25 43.65 Q56.75 44.5 56.05 45.05 55.35 45.6 54.9 44.8 54.4 44.0 55.1 43.4 55.8 42.8 56.25 43.65 M42.6 34.85 Q41.8 35.3 41.3 34.5 40.8 33.65 41.55 33.2 42.3 32.7 42.85 33.55 43.45 34.4 42.6 34.85 M40.25 36.55 Q39.9 36.05 40.4 35.65 L41.35 35.75 Q41.8 36.2 41.2 36.6 L40.25 36.55 M39.2 37.6 Q39.65 37.35 39.95 37.75 40.3 38.2 39.8 38.5 39.3 38.8 39.0 38.3 38.7 37.8 39.2 37.6 M37.2 42.05 Q36.75 42.3 36.45 41.85 36.2 41.4 36.6 41.15 37.0 40.85 37.3 41.35 37.65 41.8 37.2 42.05 M38.75 40.35 L38.15 40.25 Q37.9 39.85 38.3 39.6 38.7 39.3 38.9 39.7 39.15 40.05 38.75 40.35 M45.65 40.6 Q46.05 41.2 45.35 41.7 44.65 42.2 44.4 41.6 44.15 40.95 44.7 40.45 45.25 40.0 45.65 40.6 M43.25 42.05 Q43.95 41.65 44.5 42.3 45.1 42.95 44.25 43.6 43.4 44.25 42.95 43.35 42.5 42.45 43.25 42.05 M42.65 44.15 Q42.9 44.75 42.4 44.95 41.9 45.2 41.55 44.7 41.2 44.15 41.8 43.85 42.45 43.55 42.65 44.15 M41.75 47.1 Q41.05 47.65 40.45 46.9 39.8 46.2 40.55 45.65 41.3 45.1 41.85 45.85 42.4 46.6 41.75 47.1 M38.05 49.95 Q37.75 49.35 38.25 49.05 L38.75 49.0 Q38.55 48.4 39.1 47.95 39.65 47.45 40.1 48.05 40.5 48.7 39.8 49.25 L39.25 49.5 Q39.35 49.8 38.95 50.1 38.35 50.55 38.05 49.95 M36.95 52.45 Q36.15 52.8 35.6 51.95 35.0 51.15 36.0 50.65 37.05 50.15 37.4 51.1 37.8 52.1 36.95 52.45 M75.2 59.2 Q74.3 59.55 73.6 58.85 72.85 58.1 73.95 57.75 73.8 57.3 74.3 57.05 74.9 56.65 75.3 57.3 L75.45 57.9 75.6 58.05 Q76.1 58.8 75.2 59.2 M67.05 60.0 Q66.45 59.3 67.3 58.75 68.15 58.25 68.7 59.05 69.25 59.85 68.45 60.3 67.6 60.75 67.05 60.0 M68.4 61.9 Q67.9 61.2 68.75 60.85 69.6 60.45 69.85 61.1 70.1 61.75 69.5 62.15 68.9 62.55 68.4 61.9 M71.25 62.8 Q71.7 63.35 70.95 63.8 70.2 64.25 69.85 63.45 69.45 62.65 70.1 62.45 70.75 62.25 71.25 62.8 M71.65 63.9 Q72.35 63.3 72.8 64.15 73.15 64.75 72.95 65.2 L72.95 65.15 Q73.85 64.6 74.4 65.45 74.95 66.3 74.1 66.75 73.25 67.25 72.65 66.5 72.3 66.05 72.5 65.65 71.85 66.0 71.45 65.3 70.95 64.5 71.65 63.9 M76.75 65.55 Q77.1 66.0 76.7 66.55 L75.75 66.45 Q75.25 65.85 75.8 65.5 L76.75 65.55 M77.05 63.55 Q77.65 63.15 78.0 63.85 78.35 64.55 77.8 64.8 77.25 65.05 76.85 64.5 76.45 64.0 77.05 63.55 M74.55 67.3 Q75.2 66.9 75.7 67.5 L76.25 68.05 Q76.6 68.9 75.75 69.45 74.95 69.95 74.3 69.05 73.9 68.55 74.2 68.15 73.95 67.65 74.55 67.3 M109.35 32.75 Q109.7 33.1 109.1 33.45 108.55 33.8 108.35 33.3 108.15 32.85 108.6 32.6 109.05 32.35 109.35 32.75 M109.3 34.15 Q109.95 33.9 110.35 34.5 110.75 35.15 110.1 35.4 109.45 35.7 109.05 35.05 108.6 34.45 109.3 34.15 M110.2 37.3 Q109.45 36.2 110.45 35.75 111.4 35.35 111.85 36.2 112.3 37.05 111.65 37.75 110.95 38.45 110.2 37.3 M112.25 40.35 Q112.85 40.0 113.25 40.5 113.7 40.95 112.95 41.4 112.2 41.9 111.95 41.25 111.7 40.65 112.25 40.35 M109.95 44.2 Q108.9 44.95 108.45 44.05 108.0 43.15 108.85 42.6 109.7 42.0 110.35 42.75 111.05 43.5 109.95 44.2 M108.55 42.55 Q107.8 43.1 107.25 42.4 106.7 41.7 107.45 41.25 108.2 40.8 108.7 41.45 109.25 42.05 108.55 42.55 M107.5 40.6 Q106.9 41.0 106.5 40.3 106.05 39.6 106.7 39.25 107.35 38.9 107.7 39.55 108.1 40.2 107.5 40.6 M117.1 38.95 Q117.8 38.65 118.25 39.2 118.7 39.8 118.1 40.25 117.5 40.7 116.95 40.0 116.4 39.25 117.1 38.95 M114.1 43.35 Q113.55 43.6 113.15 43.05 112.8 42.5 113.4 42.25 114.0 42.0 114.35 42.55 114.7 43.1 114.1 43.35 M116.2 42.05 Q115.7 41.3 116.6 40.8 117.45 40.35 117.7 41.15 118.0 41.95 117.35 42.4 116.65 42.85 116.2 42.05 M116.6 44.35 L116.0 44.3 Q115.8 43.95 116.15 43.6 116.5 43.25 116.75 43.7 116.95 44.1 116.6 44.35 M111.55 39.2 Q111.0 38.3 111.85 37.8 112.7 37.35 113.15 38.3 113.6 39.2 112.85 39.65 112.05 40.05 111.55 39.2 M104.4 37.0 Q103.5 37.6 103.1 36.85 102.85 36.35 103.1 36.0 102.55 36.2 102.1 35.65 101.55 34.95 102.3 34.5 103.05 34.05 103.55 34.7 103.95 35.15 103.7 35.5 104.25 35.25 104.7 35.75 105.3 36.4 104.4 37.0 M106.45 37.75 Q106.9 38.35 106.35 38.7 105.75 39.05 105.45 38.5 105.15 38.0 105.6 37.55 106.0 37.15 106.45 37.75 M101.1 33.55 Q100.6 32.75 101.35 32.35 102.05 32.0 102.5 32.7 102.95 33.4 102.25 33.9 101.6 34.35 101.1 33.55 M115.45 45.3 Q115.95 45.95 115.3 46.45 114.65 46.95 114.25 46.2 113.9 45.55 114.3 45.15 114.0 44.7 114.45 44.5 114.95 44.25 115.2 44.7 L115.3 45.1 115.45 45.3 M113.1 50.7 Q112.1 51.45 111.3 50.45 110.5 49.45 111.55 48.85 112.6 48.2 113.35 49.1 114.1 49.95 113.1 50.7 M117.3 50.8 Q117.7 51.5 117.05 51.8 116.35 52.15 116.1 51.6 115.85 51.1 116.35 50.6 116.9 50.15 117.3 50.8 M112.15 47.3 Q112.55 47.95 111.9 48.4 111.3 48.8 110.85 48.05 110.4 47.35 111.05 47.0 111.75 46.6 112.15 47.3 M110.45 46.7 Q109.75 47.1 109.4 46.5 109.05 45.85 109.55 45.3 110.1 44.8 110.6 45.55 111.15 46.25 110.45 46.7 M116.6 53.05 Q117.05 53.7 116.45 54.25 115.9 54.85 115.4 54.1 114.9 53.4 115.5 52.9 116.15 52.35 116.6 53.05 M112.7 52.2 Q112.4 51.5 113.05 51.05 L114.2 51.15 Q114.75 51.75 113.9 52.3 113.05 52.85 112.7 52.2 M114.65 53.35 Q115.35 54.3 114.45 54.85 113.55 55.4 113.1 54.6 112.6 53.8 113.3 53.1 113.95 52.45 114.65 53.35 M114.3 55.15 Q115.15 54.45 115.65 55.25 116.1 56.1 115.35 56.7 114.6 57.35 114.0 56.6 113.45 55.85 114.3 55.15 M96.0 34.6 Q95.5 33.95 96.25 33.45 96.95 32.9 97.4 33.75 97.85 34.6 97.2 34.95 96.5 35.25 96.0 34.6 M93.9 36.9 Q94.6 36.45 95.05 37.15 95.5 37.9 94.9 38.25 94.25 38.6 93.75 37.95 93.2 37.3 93.9 36.9 M95.15 36.65 Q94.7 36.1 95.2 35.8 L96.05 35.85 Q96.35 36.25 96.0 36.75 95.6 37.2 95.15 36.65 M91.1 34.4 Q90.7 34.65 90.45 34.25 90.25 33.85 90.6 33.6 90.95 33.4 91.25 33.75 91.55 34.15 91.1 34.4 M88.75 37.05 Q89.35 38.1 88.25 38.55 L88.15 38.6 88.45 39.0 Q89.15 40.1 88.05 40.75 87.45 41.15 87.05 41.0 87.5 41.6 86.8 42.0 86.1 42.45 85.7 41.75 85.3 41.1 85.9 40.7 L86.6 40.6 86.5 40.4 Q86.1 39.35 86.9 38.6 L87.0 38.5 86.8 38.2 Q86.45 37.45 87.25 36.75 88.1 36.05 88.75 37.05 M89.2 35.35 Q89.8 35.1 90.1 35.5 90.45 35.95 89.9 36.15 89.4 36.4 89.0 35.95 88.6 35.55 89.2 35.35 M91.4 44.15 Q90.8 44.9 90.05 44.05 89.25 43.15 90.1 42.65 L91.25 42.55 Q90.7 41.75 91.6 41.15 92.5 40.55 93.1 41.6 93.65 42.65 92.8 43.1 L91.6 43.0 Q91.9 43.5 91.4 44.15 M92.5 39.8 Q92.1 39.1 92.8 38.75 93.5 38.4 93.7 39.0 93.95 39.65 93.45 40.1 92.95 40.5 92.5 39.8 M83.95 42.95 Q84.75 42.65 85.15 43.2 85.5 43.75 84.85 44.05 84.2 44.3 83.65 43.8 83.15 43.25 83.95 42.95 M83.15 45.65 Q82.9 45.1 83.5 44.6 84.1 44.1 84.55 44.85 85.05 45.6 84.25 45.9 83.4 46.25 83.15 45.65 M82.7 47.7 Q81.95 48.15 81.65 47.45 81.35 46.7 81.9 46.2 82.5 45.7 82.95 46.45 83.45 47.25 82.7 47.7 M86.5 48.35 Q87.4 47.75 88.0 48.8 88.55 49.85 87.7 50.3 86.85 50.7 86.2 49.85 85.55 49.0 86.5 48.35 M86.45 50.8 Q86.85 51.25 86.4 51.8 L85.45 51.75 Q84.9 51.1 85.45 50.7 L86.45 50.8 M80.2 49.25 Q79.8 48.6 80.4 48.25 80.95 47.85 81.45 48.5 81.9 49.1 81.25 49.5 80.55 49.9 80.2 49.25 M80.45 50.4 Q80.8 50.95 80.15 51.25 79.5 51.5 78.95 51.0 78.45 50.45 79.25 50.15 80.05 49.85 80.45 50.4 M77.8 52.95 Q77.6 52.55 78.05 52.2 78.45 51.8 78.8 52.35 79.1 52.9 78.55 53.1 77.95 53.35 77.8 52.95 M84.1 52.35 Q85.05 51.75 85.7 52.75 86.3 53.75 85.45 54.25 84.55 54.75 83.85 53.85 83.15 52.95 84.1 52.35 M83.5 56.0 Q84.0 56.9 83.25 57.25 82.55 57.6 82.0 56.9 81.45 56.15 82.25 55.6 L83.05 55.45 83.0 55.4 Q82.55 54.65 83.3 54.3 84.0 53.95 84.25 54.6 84.5 55.25 83.95 55.7 L83.45 55.85 83.5 56.0 M90.0 46.45 Q89.45 46.75 89.0 46.2 88.55 45.65 89.15 45.25 89.75 44.9 90.15 45.5 90.55 46.15 90.0 46.45 M88.85 47.5 Q89.1 48.15 88.6 48.6 88.1 49.0 87.65 48.3 87.25 47.6 87.95 47.25 88.65 46.9 88.85 47.5 M81.8 59.5 Q81.25 60.2 80.55 59.4 79.8 58.6 80.6 58.1 L81.85 58.2 Q82.35 58.8 81.8 59.5 M77.75 62.65 Q77.4 62.05 78.0 61.75 78.6 61.45 78.8 61.95 79.0 62.5 78.55 62.9 78.1 63.25 77.75 62.65 M79.5 60.1 Q80.05 59.75 80.4 60.3 80.75 60.85 80.25 61.15 79.75 61.45 79.35 60.9 78.95 60.4 79.5 60.1 M124.55 0.8 L124.4 0.3 Q124.35 -0.05 124.65 -0.2 L124.75 -0.3 Q125.4 -0.85 125.75 -0.2 L125.9 0.4 Q126.05 0.85 125.55 1.1 L125.0 1.15 124.55 0.8 M125.25 3.0 Q124.8 3.35 124.55 2.8 124.25 2.3 124.65 2.05 L124.8 1.95 125.2 1.5 Q125.9 1.1 126.2 1.6 126.5 2.1 125.9 2.45 L125.5 2.6 125.25 3.0 M126.45 3.35 Q127.05 2.85 127.55 3.6 128.05 4.35 127.3 4.7 126.5 5.05 126.15 4.4 125.8 3.8 126.45 3.35 M123.9 5.4 Q123.35 4.65 124.05 4.35 124.75 4.05 125.2 4.6 125.65 5.2 125.05 5.65 124.45 6.1 123.9 5.4 M124.45 6.1 Q125.25 5.7 125.5 6.45 125.75 7.2 125.15 7.6 124.55 8.0 124.1 7.3 123.65 6.55 124.45 6.1 M127.25 5.35 Q127.7 4.95 128.1 5.6 128.45 6.2 127.85 6.55 127.3 6.95 127.0 6.35 126.75 5.75 127.25 5.35 M128.3 8.65 Q127.7 7.7 128.6 7.3 129.5 6.9 130.0 7.8 130.5 8.75 129.7 9.15 128.9 9.6 128.3 8.65 M128.75 9.45 Q129.4 9.1 130.0 9.75 130.55 10.4 129.8 10.75 129.1 11.1 128.55 10.45 128.05 9.8 128.75 9.45 M129.65 11.0 Q130.55 10.5 131.05 11.25 131.5 12.0 130.7 12.6 129.9 13.15 129.35 12.35 128.8 11.55 129.65 11.0 M131.55 13.4 Q132.1 14.05 131.15 14.6 L129.45 14.5 Q128.65 13.85 129.85 13.3 L131.55 13.4 M128.4 16.75 Q127.85 17.05 127.45 16.4 127.0 15.75 127.5 15.45 128.05 15.15 128.5 15.8 128.95 16.4 128.4 16.75 M130.2 15.35 Q131.0 14.85 131.6 15.8 132.2 16.75 131.2 17.15 L130.3 17.2 130.45 17.35 130.55 17.5 Q131.1 17.4 131.55 17.95 132.15 18.65 131.35 19.05 L130.6 19.15 130.7 19.3 Q131.1 19.85 130.55 20.35 130.05 20.85 129.6 20.15 129.1 19.45 129.7 19.1 L130.25 18.95 130.0 18.7 129.85 18.5 Q129.25 18.6 128.9 17.95 128.5 17.15 129.2 16.95 L130.0 17.0 129.8 16.7 Q129.4 15.9 130.2 15.35 M128.15 14.1 Q127.5 14.45 127.1 13.7 126.7 12.95 127.25 12.6 126.95 12.6 126.7 12.3 L126.65 12.3 125.65 12.25 Q125.25 11.7 125.85 11.2 126.35 10.85 126.65 11.05 L126.7 11.0 Q127.35 10.55 127.8 11.2 128.2 11.85 127.65 12.4 L127.6 12.5 Q128.0 12.4 128.35 12.95 128.85 13.7 128.15 14.1 M125.9 9.8 Q125.45 9.1 126.0 8.65 126.6 8.2 127.0 8.8 127.4 9.4 126.9 9.9 126.4 10.45 125.9 9.8 M124.0 9.1 Q123.65 8.55 124.25 8.05 124.8 7.55 125.15 8.2 125.55 8.85 124.95 9.25 124.4 9.65 124.0 9.1 M123.5 11.95 Q122.95 10.9 123.75 10.35 124.5 9.8 125.2 10.7 125.9 11.6 125.0 12.3 124.05 13.0 123.5 11.95 M124.9 13.05 Q125.5 13.8 124.7 14.45 123.9 15.05 123.2 14.1 122.45 13.1 123.35 12.7 124.3 12.3 124.9 13.05 M126.4 14.4 L125.7 14.35 Q125.45 14.0 125.9 13.65 126.35 13.35 126.6 13.75 126.85 14.15 126.4 14.4 M126.25 16.15 Q126.6 16.8 126.0 17.1 125.4 17.35 125.15 16.9 124.9 16.4 125.4 15.95 125.9 15.55 126.25 16.15 M123.1 16.25 Q122.75 15.7 123.4 15.35 124.05 14.95 124.25 15.55 124.45 16.15 123.95 16.5 123.45 16.85 123.1 16.25 M123.6 17.5 Q124.0 18.15 123.4 18.55 122.85 18.95 122.45 18.4 122.1 17.85 122.7 17.35 123.25 16.85 123.6 17.5 M124.85 18.3 Q125.25 17.95 125.55 18.4 125.85 18.85 125.5 19.2 125.1 19.6 124.75 19.1 124.45 18.65 124.85 18.3 M123.35 19.25 Q123.85 19.9 123.2 20.4 122.55 20.9 122.15 20.15 121.75 19.4 122.3 19.0 122.85 18.65 123.35 19.25 M126.05 22.2 Q126.55 23.1 125.6 23.8 124.65 24.45 124.0 23.6 123.4 22.8 124.45 22.05 124.85 21.75 125.15 21.75 L125.0 21.55 Q124.65 21.1 125.15 20.65 125.7 20.2 126.0 20.75 126.3 21.25 125.8 21.65 L125.65 21.8 126.05 22.2 M123.55 22.8 Q122.8 23.35 122.15 22.5 121.5 21.6 122.3 21.25 123.15 20.85 123.7 21.55 124.25 22.2 123.55 22.8 M124.1 25.5 Q123.85 25.0 124.35 24.5 124.9 24.05 125.3 24.7 125.7 25.4 125.05 25.7 124.35 26.05 124.1 25.5 M121.4 24.45 Q121.05 23.8 121.75 23.4 122.45 23.05 122.65 23.7 122.9 24.35 122.35 24.7 121.8 25.1 121.4 24.45 M120.8 27.3 Q120.4 26.65 121.1 26.05 121.75 25.45 122.2 26.2 122.6 27.0 121.95 27.45 121.25 27.95 120.8 27.3 M121.35 28.0 Q121.95 28.75 121.2 29.3 120.45 29.9 120.0 29.0 119.55 28.15 120.2 27.7 120.8 27.3 121.35 28.0 M119.85 29.95 Q120.7 29.6 121.3 30.3 121.85 31.0 121.1 31.55 120.35 32.15 119.7 31.25 119.0 30.35 119.85 29.95 M122.45 31.1 Q123.15 30.6 123.45 31.2 123.8 31.8 123.2 32.2 122.55 32.65 122.15 32.1 121.75 31.6 122.45 31.1 M122.7 30.5 Q122.2 29.85 122.95 29.25 123.7 28.6 124.1 29.35 124.55 30.05 123.85 30.6 L122.7 30.5 M123.5 28.25 Q122.95 27.5 123.65 26.9 124.3 26.35 124.8 27.1 125.25 27.8 124.65 28.4 124.05 29.05 123.5 28.25 M122.85 35.35 Q121.9 35.75 121.55 35.05 121.15 34.3 121.9 33.6 122.65 32.95 123.2 33.9 123.75 34.9 122.85 35.35 M119.2 33.55 Q118.85 33.0 119.45 32.65 120.05 32.3 120.25 32.9 120.45 33.45 120.0 33.8 119.5 34.1 119.2 33.55 M120.05 34.45 Q120.45 35.1 119.85 35.5 119.3 35.9 118.9 35.35 118.55 34.8 119.15 34.3 119.7 33.8 120.05 34.45 M118.9 38.1 Q118.15 38.6 117.75 37.8 117.3 37.0 117.9 36.55 118.5 36.15 119.05 36.85 119.6 37.55 118.9 38.1 M121.2 36.85 Q120.7 36.15 121.3 35.65 121.9 35.15 122.3 35.8 122.75 36.45 122.2 37.0 121.65 37.55 121.2 36.85 M121.85 38.35 Q122.1 38.75 121.7 39.1 L121.05 39.05 Q120.75 38.65 121.15 38.3 L121.85 38.35 M121.6 40.5 Q122.0 41.25 121.25 41.75 120.45 42.3 119.95 41.65 119.45 41.0 120.3 40.35 121.15 39.75 121.6 40.5 M119.8 43.4 Q119.35 43.6 119.2 43.25 119.05 42.9 119.35 42.6 119.7 42.3 119.95 42.75 120.2 43.2 119.8 43.4 M119.3 46.8 Q119.7 47.4 119.1 47.9 L118.1 47.8 Q117.7 47.25 118.3 46.7 L118.75 46.5 118.4 46.15 Q117.85 45.3 118.55 44.75 119.25 44.15 119.75 44.9 120.25 45.65 119.6 46.3 L119.15 46.6 119.3 46.8 M118.75 48.7 Q119.1 49.35 118.45 49.8 L117.35 49.7 Q116.95 49.1 117.65 48.6 118.4 48.1 118.75 48.7 M9.4 10.45 L9.35 10.45 Q8.7 10.95 8.3 10.35 7.9 9.75 8.55 9.4 L8.7 9.35 Q8.75 8.95 9.15 8.75 9.8 8.45 10.2 9.1 10.6 9.8 9.8 10.25 L9.4 10.45 M6.75 12.2 Q6.35 11.45 7.2 11.05 8.05 10.65 8.4 11.35 8.75 12.05 7.95 12.5 7.2 13.0 6.75 12.2 M11.2 13.35 Q11.55 13.9 10.95 14.45 L9.85 14.4 Q9.4 13.85 10.1 13.3 L11.2 13.35 M9.4 12.1 Q8.95 11.55 9.5 11.25 10.0 10.9 10.4 11.4 10.85 11.9 10.35 12.25 9.85 12.6 9.4 12.1 M10.5 15.4 Q11.3 15.1 11.75 15.65 12.25 16.2 11.5 16.75 10.8 17.3 10.25 16.5 9.75 15.7 10.5 15.4 M8.0 19.55 L7.7 19.5 7.8 19.75 8.0 19.55 M7.3 19.0 Q6.95 18.15 7.7 17.75 8.45 17.35 8.85 18.1 9.2 18.7 8.8 19.1 9.4 19.0 9.8 19.65 10.35 20.5 9.5 21.1 8.6 21.7 7.95 20.75 L7.8 20.45 7.45 20.85 Q6.8 21.45 6.15 20.55 5.5 19.65 6.3 19.1 L7.3 19.0 M12.55 17.5 Q12.95 18.15 12.2 18.6 11.45 19.1 11.2 18.3 10.95 17.55 11.55 17.2 12.15 16.9 12.55 17.5 M6.95 14.4 Q6.15 15.0 5.65 14.15 5.15 13.3 6.0 12.7 6.85 12.15 7.3 13.0 7.7 13.85 6.95 14.4 M4.5 15.75 Q4.2 15.2 4.8 14.7 5.4 14.2 5.9 14.95 6.4 15.7 5.6 16.0 4.85 16.35 4.5 15.75 M3.05 18.45 Q3.95 18.05 4.35 18.8 4.7 19.55 3.85 20.05 3.05 20.55 2.6 19.7 2.1 18.9 3.05 18.45 M3.35 17.3 Q2.95 16.65 3.6 16.3 4.3 15.95 4.7 16.45 5.15 16.95 4.45 17.45 3.8 17.9 3.35 17.3 M5.0 21.1 Q5.95 20.7 6.55 21.45 7.2 22.2 6.25 22.8 5.3 23.45 4.7 22.5 4.1 21.5 5.0 21.1 M2.35 21.45 Q1.8 21.9 1.4 21.25 1.05 20.65 1.65 20.2 2.3 19.8 2.65 20.4 2.95 21.05 2.35 21.45 M1.2 25.55 Q0.55 26.0 0.1 25.4 -0.3 24.75 0.35 24.4 1.05 24.05 1.45 24.55 1.9 25.05 1.2 25.55 M4.25 24.9 Q3.7 24.2 4.5 23.7 5.3 23.25 5.75 23.85 6.2 24.5 5.5 25.05 4.85 25.6 4.25 24.9 M4.55 25.9 Q5.05 26.75 4.1 27.3 L3.9 27.45 4.35 27.9 Q4.85 28.8 4.15 29.35 3.5 29.95 2.85 29.05 2.2 28.15 3.0 27.6 L3.3 27.45 2.8 26.85 Q2.4 25.9 3.25 25.45 4.1 25.0 4.55 25.9 M1.75 24.0 Q1.0 24.35 0.65 23.75 0.35 23.2 0.95 22.7 1.55 22.2 2.05 22.95 2.55 23.7 1.75 24.0 M-0.3 26.9 Q-0.6 26.25 -0.1 25.85 0.45 25.45 0.95 26.15 1.45 26.85 0.75 27.2 0.0 27.6 -0.3 26.9 M-0.6 27.8 Q0.15 27.3 0.65 28.1 1.2 28.95 0.3 29.45 -0.6 29.95 -0.95 29.15 -1.35 28.35 -0.6 27.8 M0.55 31.65 Q-0.05 32.05 -0.35 31.3 -0.6 30.5 0.0 30.25 0.6 30.0 0.9 30.6 1.15 31.2 0.55 31.65 M1.3 30.95 Q0.85 30.15 1.55 29.85 2.3 29.5 2.8 30.1 3.25 30.7 2.5 31.2 1.75 31.7 1.3 30.95 M12.15 21.0 Q11.65 20.45 12.2 20.1 12.75 19.75 13.2 20.3 13.65 20.8 13.1 21.2 12.6 21.55 12.15 21.0 M14.9 24.75 Q15.3 25.2 14.7 25.65 14.1 26.1 13.65 25.45 13.25 24.75 13.85 24.5 14.5 24.3 14.9 24.75 M12.9 23.05 Q12.5 22.6 13.15 22.1 L14.05 22.15 Q14.4 22.65 13.85 23.1 L12.9 23.05 M9.75 22.15 Q10.1 22.75 9.55 23.1 8.95 23.4 8.65 22.8 8.3 22.25 8.85 21.85 9.4 21.5 9.75 22.15 M9.9 23.3 Q10.85 22.8 11.35 23.8 11.8 24.65 11.25 25.1 11.8 25.05 12.25 25.6 13.0 26.5 12.1 27.05 11.15 27.6 10.35 26.8 9.55 26.0 10.55 25.35 9.85 25.4 9.45 24.7 8.95 23.8 9.9 23.3 M15.3 27.65 Q14.45 28.15 14.15 27.25 13.9 26.4 14.55 26.0 15.25 25.65 15.7 26.35 16.15 27.1 15.3 27.65 M16.2 28.65 Q16.65 29.25 16.15 29.6 15.6 30.0 15.1 29.45 14.6 28.85 15.2 28.5 15.75 28.1 16.2 28.65 M12.65 28.25 Q13.15 29.0 12.4 29.55 11.6 30.1 11.0 29.25 10.45 28.4 11.3 27.9 12.15 27.45 12.65 28.25 M13.45 30.65 Q13.8 31.3 13.6 31.7 13.95 31.65 14.15 32.1 14.5 32.7 13.9 32.95 13.3 33.15 13.05 32.65 L12.95 32.2 Q12.2 32.45 11.8 31.7 11.3 30.85 12.1 30.25 12.9 29.7 13.45 30.65 M16.45 31.4 Q16.2 31.1 16.6 30.75 L17.25 30.8 Q17.45 31.15 17.1 31.45 L16.45 31.4 M35.25 43.6 Q35.0 43.25 35.3 43.0 L36.0 43.05 Q36.3 43.4 35.9 43.7 L35.25 43.6 M35.1 44.5 Q35.55 45.2 34.8 45.65 34.0 46.1 33.55 45.35 33.15 44.6 33.85 44.25 34.6 43.85 35.1 44.5 M17.1 33.8 Q16.5 32.85 17.4 32.5 18.3 32.15 18.85 32.8 19.45 33.45 18.6 34.1 17.75 34.75 17.1 33.8 M18.45 36.85 Q19.15 36.4 19.7 37.05 20.2 37.75 19.6 38.2 18.95 38.65 18.35 37.95 17.75 37.25 18.45 36.85 M17.75 35.95 Q17.6 35.4 18.0 35.15 18.45 34.9 18.7 35.4 19.0 35.85 18.45 36.15 17.9 36.5 17.75 35.95 M20.65 39.9 Q20.2 40.3 19.85 39.9 19.55 39.5 20.05 39.1 20.55 38.7 20.85 39.1 21.1 39.55 20.65 39.9 M16.55 41.45 Q15.85 41.7 15.5 41.05 15.15 40.45 15.8 40.05 16.5 39.7 16.85 40.45 17.25 41.15 16.55 41.45 M18.35 44.1 Q17.65 44.5 17.05 43.9 16.5 43.3 17.2 42.8 17.9 42.35 18.45 43.0 19.05 43.7 18.35 44.1 M20.95 40.85 Q21.55 40.6 21.95 41.05 22.3 41.5 21.75 41.95 21.15 42.4 20.75 41.75 20.35 41.1 20.95 40.85 M21.8 43.9 Q21.65 43.4 22.05 43.2 22.4 43.0 22.65 43.4 22.9 43.8 22.45 44.1 21.95 44.4 21.8 43.9 M16.35 39.55 Q15.6 39.95 15.2 39.2 14.8 38.5 15.45 38.0 L15.6 37.95 Q15.05 38.05 14.65 37.4 14.1 36.6 14.9 36.15 15.75 35.7 16.25 36.45 16.7 37.2 15.95 37.75 L15.85 37.85 Q16.3 37.75 16.6 38.35 17.1 39.15 16.35 39.55 M23.55 46.35 Q23.15 46.5 22.8 46.05 22.3 45.5 22.85 45.15 23.4 44.8 23.85 45.35 24.3 45.85 23.75 46.25 24.4 46.0 24.8 46.6 25.3 47.45 24.45 48.15 L22.9 48.1 Q22.25 47.3 23.25 46.55 L23.55 46.35 M24.5 50.0 Q23.95 49.15 24.75 48.8 25.6 48.5 26.1 49.1 26.65 49.7 25.85 50.3 25.05 50.9 24.5 50.0 M20.45 46.6 Q21.05 47.65 20.1 48.15 19.15 48.65 18.6 47.7 18.1 46.75 18.95 46.15 19.85 45.5 20.45 46.6 M18.95 45.95 Q18.45 46.25 18.15 45.75 17.8 45.25 18.3 45.0 18.8 44.75 19.1 45.2 19.4 45.65 18.95 45.95 M20.8 49.6 Q20.25 49.8 19.95 49.3 19.7 48.8 20.2 48.55 20.75 48.25 21.05 48.85 21.35 49.4 20.8 49.6 M21.9 51.75 Q21.35 52.1 20.9 51.6 20.45 51.15 21.0 50.75 21.55 50.4 22.0 50.9 22.45 51.45 21.9 51.75 M23.2 53.4 Q22.6 53.8 22.15 53.15 21.7 52.5 22.35 52.15 23.0 51.8 23.4 52.4 23.8 53.0 23.2 53.4 M22.95 54.7 Q23.65 54.2 24.1 55.05 24.6 55.85 23.85 56.25 23.1 56.65 22.7 55.9 22.3 55.2 22.95 54.7 M24.75 56.75 Q25.0 57.2 24.6 57.35 24.15 57.5 23.95 57.15 23.75 56.75 24.15 56.55 24.55 56.35 24.75 56.75 M26.0 50.55 Q26.65 50.25 27.05 50.9 27.45 51.6 26.65 52.05 25.85 52.55 25.6 51.75 25.35 50.9 26.0 50.55 M32.7 47.3 Q32.3 46.7 32.9 46.3 33.55 45.85 33.9 46.45 34.25 47.05 33.65 47.45 33.05 47.85 32.7 47.3 M31.75 49.5 Q31.05 49.9 30.6 49.2 30.2 48.5 30.85 48.05 31.5 47.65 32.0 48.4 32.45 49.1 31.75 49.5 M30.7 50.4 Q31.25 50.95 30.55 51.4 L29.45 51.3 Q29.05 50.75 29.6 50.3 L30.7 50.4 M29.1 53.1 L29.0 53.2 29.25 53.5 Q29.75 54.4 28.9 55.0 28.0 55.65 27.45 54.75 L27.35 54.5 26.85 54.15 Q26.25 53.5 26.9 53.05 L28.0 53.15 28.25 53.05 28.1 52.85 Q27.75 52.2 28.35 51.9 28.95 51.6 29.35 52.15 29.75 52.7 29.1 53.1 M34.8 52.8 Q35.45 52.3 35.95 52.95 36.4 53.6 35.85 54.05 35.25 54.5 34.75 53.9 34.2 53.25 34.8 52.8 M33.45 54.55 Q34.1 53.95 34.6 54.7 35.1 55.45 34.25 56.05 33.4 56.65 33.05 55.9 32.75 55.15 33.45 54.55 M33.05 56.65 Q33.45 57.1 32.85 57.6 32.25 58.05 31.95 57.4 31.6 56.75 32.15 56.5 32.65 56.2 33.05 56.65 M14.55 35.05 Q13.9 35.4 13.35 34.85 12.85 34.35 13.5 33.9 14.15 33.45 14.65 34.05 15.15 34.65 14.55 35.05 M1.8 33.7 Q1.4 33.9 1.05 33.5 0.7 33.1 1.15 32.75 1.65 32.35 1.95 32.95 2.25 33.5 1.8 33.7 M30.55 57.9 Q31.5 57.4 31.85 58.35 32.25 59.25 31.45 59.6 30.65 59.95 30.1 59.15 29.55 58.35 30.55 57.9 M29.0 61.8 Q29.5 62.5 28.85 63.15 L28.35 63.6 Q27.45 64.05 27.0 63.2 26.5 62.35 27.3 61.75 L27.75 61.55 Q28.45 61.0 29.0 61.8 M26.9 61.85 Q26.35 62.25 25.95 61.65 25.5 61.05 26.15 60.7 26.75 60.35 27.1 60.9 27.5 61.5 26.9 61.85 M30.4 61.65 Q29.85 62.1 29.35 61.5 28.85 60.95 29.45 60.45 30.05 60.0 30.5 60.6 30.95 61.25 30.4 61.65 M24.6 59.35 Q24.1 58.85 24.7 58.4 25.3 58.0 25.8 58.55 26.3 59.15 25.7 59.5 L24.6 59.35" fill="#ffffff" fill-rule="evenodd" stroke="none"/>
    </g>
    <g id="shape11" transform="matrix(1.0, 0.0, 0.0, 1.0, -12.25, -18.8)">
      <path d="M12.25 22.7 Q12.2 23.95 13.0 24.55 13.8 25.15 15.0 24.75 16.15 24.4 16.95 23.3 17.75 22.2 17.8 21.0 17.75 19.8 16.95 19.2 16.15 18.6 15.05 18.95 13.85 19.35 13.05 20.45 12.25 21.55 12.25 22.7" fill="#ffffff" fill-opacity="0.2627451" fill-rule="evenodd" stroke="none"/>
    </g>
    <g id="sprite10" transform="matrix(1.0, 0.0, 0.0, 1.0, 73.5, 65.0)">
      <use height="136.85" transform="matrix(1.0, 0.0, 0.0, 1.0, -73.5, -65.0)" width="148.25" xlink:href="#shape12"/>
    </g>
    <g id="shape12" transform="matrix(1.0, 0.0, 0.0, 1.0, 73.5, 65.0)">
      <path d="M36.65 -54.65 Q60.05 -42.0 69.75 -17.95 80.55 8.9 68.0 34.1 55.45 59.35 26.8 68.2 -1.8 77.05 -29.7 64.3 -57.6 51.6 -68.45 24.75 -79.3 -2.05 -66.75 -27.25 L-66.7 -27.3 Q-54.1 -52.5 -25.5 -61.4 3.1 -70.2 31.0 -57.5 L36.65 -54.65" fill="url(#gradient0)" fill-rule="evenodd" stroke="none"/>
    </g>
    <radialGradient cx="0" cy="0" gradientTransform="matrix(0.0914, 0.0, 0.0, 0.0914, 0.6, 3.4)" gradientUnits="userSpaceOnUse" id="gradient0" r="819.2" spreadMethod="pad">
      <stop offset="0.0" stop-color="#ffffff"/>
      <stop offset="1.0" stop-color="#ffffff" stop-opacity="0.0"/>
    </radialGradient>
    <g id="shape13" transform="matrix(1.0, 0.0, 0.0, 1.0, -10.15, -4.65)">
      <path d="M21.1 19.9 Q18.7 21.25 16.55 21.35 14.3 21.45 13.55 20.2 12.8 18.95 14.05 17.1 15.25 15.15 17.65 13.8 20.05 12.4 22.3 12.4 24.45 12.25 25.2 13.5 25.95 14.75 24.75 16.65 23.5 18.5 21.1 19.9" fill="#000000" fill-opacity="0.3019608" fill-rule="evenodd" stroke="none"/>
      <path d="M22.2 8.3 L22.3 8.45 22.3 8.5 22.2 8.3" fill="#3333cc" fill-rule="evenodd" stroke="none"/>
      <path d="M22.35 8.6 Q22.65 9.15 22.45 9.95 L22.1 10.85 21.4 10.6 Q22.15 9.4 21.7 8.45 L21.55 8.3 Q20.9 7.4 19.15 7.5 L19.1 7.45 19.6 7.4 Q21.45 7.3 22.2 8.3 L22.3 8.5 22.35 8.6 M19.2 20.0 L18.25 20.3 Q17.45 18.15 16.55 16.85 L16.5 16.8 15.55 15.6 15.25 15.7 14.0 15.85 13.0 15.85 Q11.75 15.65 11.3 14.9 L11.3 14.85 11.25 14.8 Q10.65 13.65 11.75 11.9 L11.95 11.6 12.05 11.6 Q11.0 13.2 11.55 14.2 L11.55 14.3 Q12.05 14.9 12.95 15.1 L14.05 15.15 15.25 15.0 Q16.6 14.7 18.05 13.85 L18.2 13.75 20.1 12.35 20.5 12.85 18.75 14.2 18.35 14.4 16.65 15.25 16.85 16.4 16.85 16.55 Q17.5 18.3 19.2 20.0" fill="#ffff98" fill-rule="evenodd" stroke="none"/>
      <path d="M22.35 8.6 L25.05 13.2 Q25.35 13.8 25.2 14.6 L22.45 9.95 Q22.65 9.15 22.35 8.6 M15.95 20.6 Q14.55 20.45 14.0 19.6 L13.85 19.25 11.3 14.9 Q11.75 15.65 13.0 15.85 L14.75 18.15 15.95 20.6 M12.3 11.3 L12.3 11.25 Q13.35 9.9 15.1 8.85 L17.1 7.9 Q17.7 9.35 16.65 11.25 15.55 12.95 12.95 15.1 12.05 14.9 11.55 14.3 L11.55 14.2 Q11.0 13.2 12.05 11.6 L12.3 11.3 M18.2 13.75 Q17.85 12.5 17.9 11.4 17.9 9.35 19.15 7.5 20.9 7.4 21.55 8.3 L21.7 8.45 Q22.15 9.4 21.4 10.6 L22.1 10.85 21.85 11.35 21.45 11.85 21.0 12.35 20.5 12.85 20.1 12.35 18.2 13.75" fill="#ffde4f" fill-rule="evenodd" stroke="none"/>
      <path d="M22.45 9.95 L25.2 14.6 24.55 16.05 24.2 16.6 21.45 11.85 21.85 11.35 22.1 10.85 22.45 9.95 M18.25 20.3 L16.75 20.6 15.95 20.6 14.75 18.15 13.0 15.85 14.0 15.85 15.25 15.7 15.55 15.6 16.5 16.8 16.55 16.85 Q17.45 18.15 18.25 20.3 M17.1 7.9 L18.75 7.5 19.15 7.5 Q17.9 9.35 17.9 11.4 17.85 12.5 18.2 13.75 L18.05 13.85 Q16.6 14.7 15.25 15.0 L14.05 15.15 12.95 15.1 Q15.55 12.95 16.65 11.25 17.7 9.35 17.1 7.9" fill="#eeb000" fill-rule="evenodd" stroke="none"/>
      <path d="M24.2 16.6 Q23.05 18.0 21.1 19.15 L19.2 20.0 Q17.5 18.3 16.85 16.55 L16.85 16.4 16.65 15.25 18.35 14.4 18.75 14.2 20.5 12.85 21.0 12.35 21.45 11.85 24.2 16.6" fill="#c08602" fill-rule="evenodd" stroke="none"/>
      <path d="M25.2 14.6 Q25.35 13.8 25.05 13.2 L22.35 8.6 M25.2 14.6 L24.55 16.05 24.2 16.6 Q23.05 18.0 21.1 19.15 L19.2 20.0 18.25 20.3 16.75 20.6 15.95 20.6 Q14.55 20.45 14.0 19.6 L13.85 19.25 11.3 14.9 11.3 14.85 11.25 14.8 Q10.65 13.65 11.75 11.9 L11.95 11.6 Q12.15 11.4 12.3 11.3 L12.3 11.25 Q13.35 9.9 15.1 8.85 L17.1 7.9 18.75 7.5 19.1 7.45 19.6 7.4 Q21.45 7.3 22.2 8.3 L22.3 8.45 22.3 8.5 22.35 8.6 M18.75 7.5 L19.15 7.5 M12.3 11.3 L12.05 11.6 M22.2 8.3 L22.3 8.5" fill="none" stroke="#000000" stroke-linecap="round" stroke-linejoin="round" stroke-opacity="0.3019608" stroke-width="0.05"/>
      <path d="M11.7 13.35 Q11.45 12.85 11.85 12.25 12.25 11.6 12.95 11.25 13.8 10.85 14.55 10.9 15.3 11.0 15.6 11.5 15.85 11.95 15.5 12.6 L14.35 13.55 12.8 13.9 Q12.05 13.8 11.7 13.35" fill="#9d7200" fill-rule="evenodd" stroke="none"/>
      <path d="M18.1 11.3 Q17.85 10.8 18.1 10.2 18.55 9.55 19.25 9.15 20.0 8.75 20.75 8.85 21.45 8.9 21.8 9.4 22.05 9.9 21.7 10.5 21.35 11.15 20.65 11.5 L19.1 11.85 Q18.35 11.8 18.1 11.3" fill="#9d7200" fill-rule="evenodd" stroke="none"/>
      <path d="M10.25 7.9 Q10.7 9.35 12.15 8.15 L12.3 7.9 12.65 7.6 Q13.45 7.7 13.5 8.5 L13.1 9.25 Q13.0 10.55 14.55 12.8 L13.55 13.45 Q12.6 10.85 11.75 10.0 10.65 8.85 10.2 9.25 10.1 8.5 10.25 7.9 M18.5 8.65 L18.95 9.35 20.35 10.3 Q21.35 10.35 21.05 8.65 L21.4 9.35 Q21.85 10.25 20.25 11.05 18.9 11.7 18.25 10.8 L17.95 9.95 Q17.55 8.2 18.2 8.25 L18.3 8.35 18.5 8.65" fill="#c08602" fill-rule="evenodd" stroke="none"/>
      <path d="M12.3 7.9 L10.65 8.0 Q10.65 6.3 13.0 5.4 15.9 4.7 17.8 5.95 19.75 7.15 20.1 7.9 L20.45 8.55 Q20.95 9.65 20.4 9.75 20.0 10.0 19.1 9.25 L18.5 8.65 18.3 8.35 18.2 8.25 Q17.55 8.2 17.95 9.95 L18.25 10.8 17.7 9.9 17.6 9.6 16.6 8.5 Q18.75 8.45 16.6 7.05 L15.05 6.8 Q14.05 6.8 13.3 7.2 13.4 7.8 14.4 8.0 L13.5 8.5 Q13.45 7.7 12.65 7.6 L12.3 7.9" fill="#ffde4f" fill-rule="evenodd" stroke="none"/>
      <path d="M10.25 7.9 L10.4 7.3 Q11.05 5.5 13.3 4.9 15.5 4.2 17.65 5.3 19.75 6.35 20.35 7.45 L21.05 8.65 Q21.35 10.35 20.35 10.3 L18.95 9.35 18.5 8.65 19.1 9.25 Q20.0 10.0 20.4 9.75 20.95 9.65 20.45 8.55 L20.1 7.9 Q19.75 7.15 17.8 5.95 15.9 4.7 13.0 5.4 10.65 6.3 10.65 8.0 L12.3 7.9 12.15 8.15 Q10.7 9.35 10.25 7.9" fill="#ffff98" fill-rule="evenodd" stroke="none"/>
      <path d="M16.6 8.5 L16.4 8.4 15.9 8.2 15.8 8.15 14.4 8.0 Q13.4 7.8 13.3 7.2 14.05 6.8 15.05 6.8 L16.6 7.05 Q18.75 8.45 16.6 8.5 M13.55 13.45 Q12.3 13.9 11.6 12.5 L11.0 11.3 10.95 11.2 Q10.35 10.2 10.2 9.25 10.65 8.85 11.75 10.0 12.6 10.85 13.55 13.45" fill="#eeb000" fill-rule="evenodd" stroke="none"/>
      <path d="M15.8 8.15 L14.9 8.15 Q14.3 8.3 14.1 8.95 14.0 9.6 14.45 10.35 L14.5 10.45 15.15 11.6 Q15.4 12.15 14.55 12.8 13.0 10.55 13.1 9.25 L13.5 8.5 14.4 8.0 15.8 8.15" fill="#9d7200" fill-rule="evenodd" stroke="none"/>
      <path d="M21.05 8.65 L20.35 7.45 Q19.75 6.35 17.65 5.3 15.5 4.2 13.3 4.9 11.05 5.5 10.4 7.3 L10.25 7.9 M21.05 8.65 L21.4 9.35 Q21.85 10.25 20.25 11.05 18.9 11.7 18.25 10.8 L17.7 9.9 17.6 9.6 16.6 8.5 16.4 8.4 15.9 8.2 15.8 8.15 14.9 8.15 Q14.3 8.3 14.1 8.95 14.0 9.6 14.45 10.35 L14.5 10.45 15.15 11.6 Q15.4 12.15 14.55 12.8 L13.55 13.45 Q12.3 13.9 11.6 12.5 L11.0 11.3 10.95 11.2 Q10.35 10.2 10.2 9.25 10.1 8.5 10.25 7.9" fill="none" stroke="#000000" stroke-linecap="round" stroke-linejoin="round" stroke-opacity="0.3019608" stroke-width="0.05"/>
    </g>
    <g id="sprite11" transform="matrix(1.0, 0.0, 0.0, 1.0, 0.0, 0.0)">
      <use height="26.7" transform="matrix(0.0042, -1.3515, 1.3935, 0.02, 22.09, 56.0263)" width="26.7" xlink:href="#sprite12"/>
      <use height="26.7" transform="matrix(0.0095, -3.0486, 0.372, 0.0053, 36.507, 81.3775)" width="26.7" xlink:href="#sprite12"/>
      <use height="26.7" transform="matrix(3.0486, 0.0095, -0.0053, 0.372, 0.1225, 31.607)" width="26.7" xlink:href="#sprite12"/>
    </g>
    <g id="sprite12" transform="matrix(1.0, 0.0, 0.0, 1.0, 13.35, 13.35)">
      <use height="26.7" transform="matrix(1.0, 0.0, 0.0, 1.0, -13.35, -13.35)" width="26.7" xlink:href="#shape14"/>
    </g>
    <g id="shape14" transform="matrix(1.0, 0.0, 0.0, 1.0, 13.35, 13.35)">
      <path d="M9.3 -9.85 Q13.35 -5.8 13.35 0.0 13.35 5.8 9.3 9.3 5.8 13.35 0.0 13.35 -5.8 13.35 -9.85 9.3 -13.35 5.8 -13.35 0.0 -13.35 -5.8 -9.85 -9.85 -5.8 -13.35 0.0 -13.35 5.8 -13.35 9.3 -9.85" fill="url(#gradient1)" fill-rule="evenodd" stroke="none"/>
    </g>
    <radialGradient cx="0" cy="0" gradientTransform="matrix(0.0213, 0.0, 0.0, 0.0213, 0.0, 0.0)" gradientUnits="userSpaceOnUse" id="gradient1" r="819.2" spreadMethod="pad">
      <stop offset="0.19607843137254902" stop-color="#fee3bc"/>
      <stop offset="0.5019607843137255" stop-color="#fee3bc" stop-opacity="0.16078432"/>
      <stop offset="0.7607843137254902" stop-color="#ffe3bd" stop-opacity="0.0"/>
    </radialGradient>
  </defs>
</svg>
