<?xml version="1.0" encoding="UTF-8" standalone="no"?>
<svg xmlns:xlink="http://www.w3.org/1999/xlink" height="440.0px" width="440.0px" xmlns="http://www.w3.org/2000/svg">
  <g transform="matrix(10.0, 0.0, 0.0, 10.0, 0.0, 0.0)">
    <use height="44.0" transform="matrix(0.9091, 0.0, 0.0, 0.9091, 2.0, 2.0)" width="44.0" xlink:href="#sprite0"/>
  </g>
  <defs>
    <g id="sprite0" transform="matrix(1.0, 0.0, 0.0, 1.0, 0.0, 0.0)">
      <use height="44.0" transform="matrix(1.0, 0.0, 0.0, 1.0, 0.0, 0.0)" width="44.0" xlink:href="#shape0"/>
      <use height="47.25" transform="matrix(0.8045, 0.0, 0.0, 0.8042, 14.55, 2.9392)" width="18.5" xlink:href="#sprite1"/>
    </g>
    <g id="shape0" transform="matrix(1.0, 0.0, 0.0, 1.0, 0.0, 0.0)">
      <path d="M44.0 44.0 L0.0 44.0 0.0 0.0 44.0 0.0 44.0 44.0" fill="#43adca" fill-opacity="0.0" fill-rule="evenodd" stroke="none"/>
    </g>
    <g id="sprite1" transform="matrix(1.0, 0.0, 0.0, 1.0, 0.0, 0.2)">
      <use height="36.3" transform="matrix(1.0, 0.0, 0.0, 1.0, 0.05, 10.75)" width="17.95" xlink:href="#sprite2"/>
      <use height="32.4" transform="matrix(1.0, 0.0, 0.0, 1.0, 0.0, -0.2)" width="18.5" xlink:href="#sprite3"/>
    </g>
    <g id="sprite2" transform="matrix(1.0, 0.0, 0.0, 1.0, 9.4, 10.35)">
      <use height="36.3" transform="matrix(1.0, 0.0, 0.0, 1.0, -9.4, -10.35)" width="17.95" xlink:href="#shape1"/>
    </g>
    <g id="shape1" transform="matrix(1.0, 0.0, 0.0, 1.0, 9.4, 10.35)">
      <path d="M-1.6 15.25 L-1.55 15.3 -1.65 15.35 -1.6 15.25" fill="#7c8abe" fill-rule="evenodd" stroke="none"/>
      <path d="M0.1 5.9 L0.0 5.95 0.0 5.9 0.1 5.9" fill="#465909" fill-rule="evenodd" stroke="none"/>
      <path d="M-0.4 11.25 L-0.45 11.4 -0.5 11.35 -0.4 11.25" fill="#414b85" fill-rule="evenodd" stroke="none"/>
      <path d="M0.1 5.95 L0.0 5.95 0.1 5.9 0.1 5.95" fill="#71a612" fill-rule="evenodd" stroke="none"/>
      <path d="M-8.75 25.6 L-8.95 25.65 -8.85 25.5 -8.75 25.6" fill="#537a0d" fill-rule="evenodd" stroke="none"/>
      <path d="M-2.1 -1.6 L-1.85 -1.65 -1.85 -1.55 -2.1 -1.6" fill="#43690b" fill-rule="evenodd" stroke="none"/>
      <path d="M-6.05 14.2 L-6.15 12.15 -1.3 9.2 -6.3 11.35 -6.2 10.15 -6.25 9.85 Q-3.75 7.05 0.0 5.95 L0.1 5.95 -0.4 10.3 Q-3.65 11.05 -6.05 14.2" fill="#e2ce54" fill-rule="evenodd" stroke="none"/>
      <path d="M-8.65 25.05 Q-5.85 20.2 -6.0 16.25 L-6.1 14.4 -6.05 14.2 Q-3.65 11.05 -0.4 10.3 -0.9 12.8 -1.85 15.45 L-1.8 15.5 Q-3.45 19.55 -8.65 25.05" fill="#ffff69" fill-rule="evenodd" stroke="none"/>
      <path d="M0.95 -1.4 L2.1 -1.45 Q2.4 1.25 1.75 5.45 L0.95 9.25 0.8 10.05 0.5 10.8 0.0 12.35 -0.95 14.05 -1.45 15.05 -1.6 15.25 -1.65 15.35 -1.7 15.5 -1.8 15.5 -1.85 15.45 -1.15 14.1 -0.4 12.3 -0.1 10.95 0.2 10.0 0.4 9.35 0.95 5.65 Q1.2 2.5 0.95 -1.4 M-6.25 9.85 Q-6.2 7.85 -6.45 5.8 L-1.8 3.1 -6.5 5.1 Q-6.7 3.5 -7.05 2.0 L-1.2 -0.1 -7.25 1.55 -7.65 -0.55 -2.1 -1.6 -1.85 -1.55 -0.1 -1.45 Q0.3 2.1 0.0 5.9 L0.0 5.95 Q-3.75 7.05 -6.25 9.85 M-2.4 -1.7 L-8.45 -1.4 -7.15 -2.85 -4.4 -1.95 -2.4 -1.7" fill="#ddbc3c" fill-rule="evenodd" stroke="none"/>
      <path d="M6.4 7.15 Q5.35 9.55 3.9 11.9 L1.55 15.35 0.1 14.0 0.85 16.25 Q-2.95 20.95 -8.75 25.6 L-8.85 25.5 -8.65 25.05 Q-3.45 19.55 -1.8 15.5 L-1.7 15.5 -1.65 15.35 -1.55 15.3 -1.6 15.25 -1.45 15.05 -0.95 14.05 0.0 12.35 0.5 10.8 0.8 10.05 0.95 9.25 1.75 5.45 Q5.8 5.15 6.4 7.15" fill="#bba54d" fill-rule="evenodd" stroke="none"/>
      <path d="M0.45 -6.1 L0.3 -6.75 0.35 -6.95 0.0 -10.0 0.05 -10.0 Q0.9 -10.7 1.5 -9.2 L1.55 -9.0 1.65 -7.15 1.6 -6.35 1.8 -5.25 Q1.8 -4.65 1.95 -4.6 1.85 -4.4 2.1 -1.7 L2.1 -1.45 0.95 -1.4 0.75 -4.55 0.6 -5.3 0.45 -5.95 0.45 -6.1 M8.1 -2.3 L8.15 -1.4 4.1 -1.15 8.1 -0.8 7.85 2.15 4.85 1.6 8.0 3.35 6.4 7.15 Q5.8 5.15 1.75 5.45 2.4 1.25 2.1 -1.45 4.95 -1.5 8.1 -2.3" fill="#b59720" fill-rule="evenodd" stroke="none"/>
      <path d="M0.45 -6.1 L0.45 -5.95 0.6 -5.3 0.75 -4.55 0.95 -1.4 Q1.2 2.5 0.95 5.65 L0.4 9.35 0.2 10.0 -0.4 10.3 0.2 10.0 -0.1 10.95 -0.4 12.3 -1.15 14.1 -1.85 15.45 Q-0.9 12.8 -0.4 10.3 L0.1 5.95 0.1 5.9 0.0 5.9 Q0.3 2.1 -0.1 -1.45 L-1.85 -1.55 -1.85 -1.65 -2.4 -1.7 -4.4 -1.95 -7.15 -2.85 Q-5.1 -4.75 -0.85 -5.85 L0.45 -6.1 M2.1 -1.45 L2.1 -1.7 Q1.85 -4.4 1.95 -4.6 1.8 -4.65 1.8 -5.25 L1.6 -6.35 Q5.65 -6.35 8.25 -3.8 L4.0 -2.5 8.1 -2.5 8.1 -2.3 Q4.95 -1.5 2.1 -1.45 M-0.4 11.25 L-0.5 11.35 -0.45 11.4 -0.4 11.25" fill="#91781a" fill-rule="evenodd" stroke="none"/>
      <path d="M1.6 -6.35 L1.65 -7.15 1.55 -9.0 1.5 -9.2 Q0.9 -10.7 0.05 -10.0 L0.0 -10.0 0.35 -6.95 0.3 -6.75 0.45 -6.1 0.45 -5.95 0.6 -5.3 0.75 -4.55 0.95 -1.4 M2.1 -1.45 L2.1 -1.7 Q1.85 -4.4 1.95 -4.6 1.8 -4.65 1.8 -5.25 L1.6 -6.35 Q5.65 -6.35 8.25 -3.8 L4.0 -2.5 8.1 -2.5 8.1 -2.3 8.15 -1.4 4.1 -1.15 8.1 -0.8 7.85 2.15 4.85 1.6 8.0 3.35 6.4 7.15 Q5.35 9.55 3.9 11.9 L1.55 15.35 0.1 14.0 0.85 16.25 Q-2.95 20.95 -8.75 25.6 L-8.95 25.65 -8.85 25.5 -8.65 25.05 Q-5.85 20.2 -6.0 16.25 L-6.1 14.4 -6.05 14.2 -6.15 12.15 -1.3 9.2 -6.3 11.35 -6.2 10.15 -6.25 9.85 Q-6.2 7.85 -6.45 5.8 L-1.8 3.1 -6.5 5.1 Q-6.7 3.5 -7.05 2.0 L-1.2 -0.1 -7.25 1.55 -7.65 -0.55 -2.1 -1.6 -1.85 -1.65 -2.4 -1.7 -8.45 -1.4 -7.15 -2.85 Q-5.1 -4.75 -0.85 -5.85 L0.45 -6.1 M2.1 -1.45 Q2.4 1.25 1.75 5.45 M-0.4 10.3 L0.2 10.0 0.4 9.35 0.95 5.65 Q1.2 2.5 0.95 -1.4 M-1.85 15.45 L-1.15 14.1 -0.4 12.3 -0.1 10.95 0.2 10.0 M-1.45 15.05 L-0.95 14.05 0.0 12.35 0.5 10.8 0.8 10.05 0.95 9.25 1.75 5.45 M-1.65 15.35 L-1.7 15.5 M-1.8 15.5 Q-3.45 19.55 -8.65 25.05 M-1.8 15.5 L-1.85 15.45" fill="none" stroke="#000000" stroke-linecap="butt" stroke-linejoin="miter" stroke-miterlimit="3.0" stroke-opacity="0.18039216" stroke-width="0.25"/>
      <path d="M-0.05 -10.05 L0.45 -10.35 1.0 -10.25 1.7 -9.2 1.75 -9.05 1.85 -7.25 1.9 -6.55 Q5.9 -6.4 8.5 -3.95 L8.55 -3.8 4.8 -2.6 8.15 -2.6 8.25 -2.65 8.3 -2.6 8.4 -2.4 8.35 -1.5 8.35 -1.3 5.7 -1.2 8.15 -0.95 8.25 -0.9 8.3 -0.85 8.0 2.25 5.7 1.9 8.2 3.3 8.1 3.35 6.55 7.15 6.5 7.2 4.1 11.85 1.7 15.25 1.6 15.55 0.5 14.5 1.15 16.2 1.05 16.2 Q-2.9 21.0 -8.8 25.65 L-9.3 25.95 -9.4 25.95 -9.25 25.65 -9.1 25.55 -9.05 25.45 -8.9 25.05 -8.8 24.95 Q-5.95 20.15 -6.05 16.25 L-6.3 14.45 -6.3 14.4 -6.25 14.2 -6.35 12.1 -6.3 12.1 -6.3 12.05 -2.95 10.0 -6.5 11.5 -6.5 11.35 -6.35 10.2 -6.35 10.15 -6.5 9.8 Q-6.4 7.8 -6.65 5.8 L-6.7 5.75 -6.65 5.65 -3.6 3.95 -6.75 5.3 -6.7 5.1 -7.2 2.0 -7.2 1.95 -3.9 0.7 -7.35 1.65 -7.9 -0.55 -7.95 -0.6 -2.9 -1.6 -8.7 -1.35 -8.7 -1.5 -7.3 -2.95 Q-5.2 -4.85 -0.9 -6.0 L0.2 -6.3 0.15 -6.75 0.2 -6.85 0.2 -6.9 -0.2 -9.95 -0.2 -10.0 -0.1 -10.05 -0.05 -10.05" fill="url(#gradient0)" fill-rule="evenodd" stroke="none"/>
    </g>
    <linearGradient gradientTransform="matrix(-0.0047, 0.0275, 0.0367, -0.0048, -2.0, -8.25)" gradientUnits="userSpaceOnUse" id="gradient0" spreadMethod="pad" x1="-819.2" x2="819.2">
      <stop offset="0.5725490196078431" stop-color="#39340b"/>
      <stop offset="1.0" stop-color="#a5891f" stop-opacity="0.0"/>
    </linearGradient>
    <g id="sprite3" transform="matrix(1.0, 0.0, 0.0, 1.0, 3.15, 2.7)">
      <use height="32.4" transform="matrix(1.0, 0.0, 0.0, 1.0, -3.15, -2.7)" width="18.5" xlink:href="#shape2"/>
    </g>
    <g id="shape2" transform="matrix(1.0, 0.0, 0.0, 1.0, 3.15, 2.7)">
      <path d="M3.9 19.6 L3.9 19.5 4.0 19.5 3.9 19.6" fill="#b10101" fill-rule="evenodd" stroke="none"/>
      <path d="M5.3 5.1 Q7.25 11.7 7.15 15.45 L5.0 18.1 5.05 18.2 4.0 19.5 3.9 19.5 4.5 14.8 -0.6 19.6 Q-0.35 16.65 0.5 13.7 L-3.0 17.1 Q-3.2 11.55 0.0 6.05 L0.35 6.0 5.3 5.1 M8.3 14.0 L8.3 13.15 8.35 12.75 Q7.85 9.2 6.05 4.8 L4.75 1.4 4.4 0.75 3.75 -0.4 3.7 -0.5 3.85 -0.85 4.75 -1.05 4.8 -0.95 5.35 0.3 5.7 1.0 5.8 1.1 7.1 4.45 Q8.5 9.0 8.75 12.55 L8.8 13.0 8.85 13.85 8.95 14.3 8.8 15.05 8.55 14.4 8.3 14.0" fill="#f4de5b" fill-rule="evenodd" stroke="none"/>
      <path d="M2.7 0.35 L5.4 4.95 5.3 5.1 0.35 6.0 0.0 6.05 Q0.85 4.5 2.0 3.1 L-1.05 5.65 Q-0.45 3.45 2.7 0.35 M10.2 3.2 Q13.35 6.15 14.75 10.1 L11.3 9.45 Q12.95 11.0 13.65 13.3 L10.85 12.3 11.1 15.0 Q10.05 14.4 8.85 13.85 L8.8 13.0 8.75 12.55 Q8.5 9.0 7.1 4.45 L10.2 3.2 M3.9 19.5 L3.9 19.6 -0.15 24.35 -0.6 19.8 -0.6 19.6 4.5 14.8 3.9 19.5" fill="#e2ce54" fill-rule="evenodd" stroke="none"/>
      <path d="M2.7 0.35 L3.7 -0.5 3.75 -0.4 4.4 0.75 4.75 1.4 6.05 4.8 Q7.85 9.2 8.35 12.75 L8.3 13.15 8.3 14.0 7.15 15.45 Q7.25 11.7 5.3 5.1 L5.4 4.95 2.7 0.35 M4.8 -0.95 Q7.65 -0.75 9.65 1.3 L7.2 1.15 Q8.85 2.0 10.2 3.2 L7.1 4.45 5.8 1.1 5.7 1.0 5.35 0.3 4.8 -0.95 M13.65 13.3 L13.6 13.85 Q14.2 16.1 13.7 19.2 L11.2 15.1 11.3 15.1 11.1 15.0 10.85 12.3 13.65 13.3" fill="#a99a3f" fill-rule="evenodd" stroke="none"/>
      <path d="M3.7 -0.5 L2.7 0.35 Q-0.45 3.45 -1.05 5.65 L2.0 3.1 Q0.85 4.5 0.0 6.05 -3.2 11.55 -3.0 17.1 L0.5 13.7 Q-0.35 16.65 -0.6 19.6 L-0.6 19.8 -0.15 24.35 3.9 19.6 4.0 19.5 5.05 18.2 M8.3 14.0 L8.3 13.15 8.35 12.75 Q7.85 9.2 6.05 4.8 L4.75 1.4 4.4 0.75 3.75 -0.4 3.7 -0.5 3.85 -0.85 M4.75 -1.05 L4.8 -0.95 Q7.65 -0.75 9.65 1.3 L7.2 1.15 Q8.85 2.0 10.2 3.2 13.35 6.15 14.75 10.1 L11.3 9.45 Q12.95 11.0 13.65 13.3 L13.6 13.85 Q14.2 16.1 13.7 19.2 L11.2 15.1 M8.85 13.85 L8.95 14.3 8.8 15.05 M4.8 -0.95 L5.35 0.3 5.7 1.0 M5.8 1.1 L7.1 4.45 Q8.5 9.0 8.75 12.55 L8.8 13.0 8.85 13.85" fill="none" stroke="#000000" stroke-linecap="butt" stroke-linejoin="miter" stroke-miterlimit="3.0" stroke-opacity="0.18039216" stroke-width="0.25"/>
      <path d="M3.55 -0.85 L5.0 -1.25 Q7.9 -0.85 9.85 1.05 L10.0 1.25 7.8 1.2 10.45 3.05 Q13.65 5.9 15.05 9.85 L15.15 10.0 11.85 9.65 Q13.25 10.95 13.9 13.1 L13.9 13.15 13.85 13.6 14.05 14.6 Q14.6 14.75 14.8 14.95 16.3 16.0 13.85 19.35 L13.75 19.65 13.55 19.45 Q12.3 18.7 12.0 17.35 L12.0 17.3 11.85 17.1 11.45 16.55 11.3 16.75 11.4 16.8 9.55 21.05 9.45 21.1 9.5 21.6 Q9.55 24.9 5.05 29.7 4.9 27.85 5.3 25.7 L5.2 25.75 5.15 25.7 3.8 19.75 2.85 20.85 2.85 20.95 Q2.05 23.2 -2.7 26.4 L-3.0 26.55 -2.95 26.35 Q-2.55 24.25 -0.65 21.75 L-0.75 21.75 -0.65 21.7 -0.7 19.8 -0.65 19.6 Q-0.5 16.8 0.25 13.95 L-3.15 17.25 -3.1 17.1 Q-3.4 11.5 -0.15 5.95 0.55 4.75 1.35 3.75 L-1.2 5.95 -1.15 5.7 Q-0.6 3.3 2.65 0.2 L3.6 -0.6 3.55 -0.6 3.7 -0.85 3.55 -0.85" fill="url(#gradient1)" fill-rule="evenodd" stroke="none"/>
      <path d="M3.4 -1.9 L3.45 -1.95 3.5 -1.95 3.4 -1.9 3.5 -1.95 3.6 -1.9 3.95 -1.5 4.9 -1.65 5.5 -1.65 6.2 -1.4 6.2 -1.55 6.4 -2.45 6.45 -2.45 6.5 -2.5 7.1 -1.65 7.15 -1.6 7.25 -1.15 7.65 -1.1 8.15 -1.45 8.45 -1.6 9.45 -2.05 9.5 -2.0 9.5 -1.9 8.75 -1.2 8.75 -1.15 10.35 -1.25 10.45 -1.3 10.45 -1.15 Q10.2 -0.5 9.45 -0.2 L8.55 0.25 Q8.95 0.25 9.15 0.5 L9.7 1.0 9.75 1.05 9.6 1.1 8.6 1.15 8.3 1.15 7.4 0.8 7.2 1.1 6.85 1.4 6.5 1.6 5.15 2.15 4.05 2.2 4.05 2.4 3.9 2.5 2.6 2.7 0.8 2.5 0.75 2.6 -0.1 3.5 -0.4 3.6 -1.35 4.2 -1.5 4.25 -1.5 4.15 -1.15 3.4 -0.6 2.8 -1.45 2.9 Q-2.3 2.95 -2.6 2.5 L-2.65 2.35 -2.55 2.35 Q-1.7 1.8 -1.05 1.55 L-1.85 1.2 -1.85 1.15 -1.8 1.15 -0.85 1.0 -0.55 1.0 0.45 1.05 0.45 0.45 0.15 0.15 0.15 0.0 Q0.25 0.15 0.25 -0.05 L0.5 0.05 Q0.55 -0.45 0.85 -0.85 L0.9 -0.9 1.0 -0.9 1.3 -0.2 1.4 -0.05 2.0 -0.65 2.5 -0.95 3.0 -1.15 3.4 -1.9 M0.5 0.05 L1.4 0.4 1.4 -0.05 1.4 0.4 1.55 0.45 1.95 0.6 2.5 0.9 1.95 0.6 1.55 0.45 1.4 0.4 0.5 0.05 M0.45 1.15 L-0.95 1.3 -1.0 1.3 -0.95 1.45 -0.9 1.6 Q-0.5 2.15 0.45 2.35 L0.8 2.5 0.45 2.35 Q-0.5 2.15 -0.9 1.6 L-1.05 1.55 -0.9 1.6 -0.95 1.45 -1.0 1.3 -0.95 1.3 0.45 1.15 0.45 1.05 0.45 1.15 1.1 1.1 0.45 0.45 1.1 1.1 0.45 1.15 M2.45 2.05 L1.2 1.3 1.1 1.1 1.2 1.3 2.45 2.05 M4.45 1.05 L5.45 0.9 6.65 0.35 5.45 0.9 4.45 1.05 M4.9 0.3 L5.85 0.35 4.9 0.3 4.6 0.5 4.9 0.3 4.8 0.25 4.6 0.15 4.8 0.25 4.9 0.3 M7.25 -1.15 L7.3 -0.9 7.65 -1.1 7.3 -0.9 7.25 -1.15 M8.75 -1.15 L8.05 -0.65 7.4 0.8 8.05 -0.65 8.75 -1.15 M6.3 -0.85 Q6.1 -1.1 6.2 -1.4 6.1 -1.1 6.3 -0.85" fill="#5b540b" fill-rule="evenodd" stroke="none"/>
      <path d="M3.4 -1.9 L3.5 -1.95 3.6 -1.9 M3.95 -1.5 L4.9 -1.65 5.5 -1.65 6.2 -1.4 6.2 -1.55 6.4 -2.45 6.45 -2.45 6.5 -2.5 7.1 -1.65 7.15 -1.6 7.25 -1.15 7.65 -1.1 8.15 -1.45 8.45 -1.6 9.45 -2.05 9.5 -2.0 9.5 -1.9 8.75 -1.2 8.75 -1.15 10.35 -1.25 10.45 -1.3 10.45 -1.15 Q10.2 -0.5 9.45 -0.2 L8.55 0.25 Q8.95 0.25 9.15 0.5 L9.7 1.0 9.75 1.05 9.6 1.1 8.6 1.15 8.3 1.15 7.4 0.8 7.2 1.1 6.85 1.4 M2.6 2.7 L0.8 2.5 0.45 2.35 Q-0.5 2.15 -0.9 1.6 L-1.05 1.55 -1.85 1.2 -1.85 1.15 -1.8 1.15 -0.85 1.0 -0.55 1.0 0.45 1.05 0.45 0.45 0.15 0.15 0.15 0.0 Q0.25 0.15 0.25 -0.05 L0.5 0.05 Q0.55 -0.45 0.85 -0.85 L0.9 -0.9 1.0 -0.9 1.3 -0.2 1.4 -0.05 2.0 -0.65 2.5 -0.95 3.0 -1.15 M0.75 2.6 L-0.1 3.5 -0.4 3.6 -1.35 4.2 -1.5 4.25 -1.5 4.15 -1.15 3.4 -0.6 2.8 -1.45 2.9 Q-2.3 2.95 -2.6 2.5 L-2.65 2.35 -2.55 2.35 Q-1.7 1.8 -1.05 1.55 M4.6 0.5 L4.9 0.3 4.8 0.25 4.6 0.15 M6.2 -1.4 Q6.1 -1.1 6.3 -0.85 M7.4 0.8 L8.05 -0.65 8.75 -1.15 M7.65 -1.1 L7.3 -0.9 7.25 -1.15 M5.85 0.35 L4.9 0.3 M6.65 0.35 L5.45 0.9 4.45 1.05 M1.4 -0.05 L1.4 0.4 1.55 0.45 1.95 0.6 2.5 0.9 M0.45 1.05 L0.45 1.15 1.1 1.1 0.45 0.45 M1.1 1.1 L1.2 1.3 2.45 2.05 M-0.9 1.6 L-0.95 1.45 -1.0 1.3 -0.95 1.3 0.45 1.15 M1.4 0.4 L0.5 0.05" fill="none" stroke="#000000" stroke-linecap="butt" stroke-linejoin="miter" stroke-miterlimit="3.0" stroke-opacity="0.18039216" stroke-width="0.25"/>
    </g>
    <linearGradient gradientTransform="matrix(0.0022, 0.0175, 0.034, -0.0127, 1.35, 0.45)" gradientUnits="userSpaceOnUse" id="gradient1" spreadMethod="pad" x1="-819.2" x2="819.2">
      <stop offset="0.5725490196078431" stop-color="#5a520c"/>
      <stop offset="1.0" stop-color="#bdaa06" stop-opacity="0.0"/>
    </linearGradient>
  </defs>
</svg>
