<?xml version="1.0" encoding="UTF-8" standalone="no"?>
<svg xmlns:xlink="http://www.w3.org/1999/xlink" height="440.0px" width="440.0px" xmlns="http://www.w3.org/2000/svg">
  <g transform="matrix(10.0, 0.0, 0.0, 10.0, 0.0, 0.0)">
    <use height="44.0" transform="matrix(0.9091, 0.0, 0.0, 0.9091, 2.0, 2.0)" width="44.0" xlink:href="#sprite0"/>
  </g>
  <defs>
    <g id="sprite0" transform="matrix(1.0, 0.0, 0.0, 1.0, 0.0, 0.0)">
      <use height="44.0" transform="matrix(1.0, 0.0, 0.0, 1.0, 0.0, 0.0)" width="44.0" xlink:href="#shape0"/>
      <use height="46.45" transform="matrix(0.815, 0.0, 0.0, 0.8181, 12.7, 2.9273)" width="22.95" xlink:href="#sprite1"/>
    </g>
    <g id="shape0" transform="matrix(1.0, 0.0, 0.0, 1.0, 0.0, 0.0)">
      <path d="M44.0 44.0 L0.0 44.0 0.0 0.0 44.0 0.0 44.0 44.0" fill="#43adca" fill-opacity="0.0" fill-rule="evenodd" stroke="none"/>
    </g>
    <g id="sprite1" transform="matrix(1.0, 0.0, 0.0, 1.0, 0.0, 0.15)">
      <use height="35.85" transform="matrix(1.0, 0.0, 0.0, 1.0, 1.6, 10.45)" width="21.35" xlink:href="#sprite2"/>
      <use height="36.35" transform="matrix(1.0, 0.0, 0.0, 1.0, 0.0, -0.15)" width="21.0" xlink:href="#sprite3"/>
    </g>
    <g id="sprite2" transform="matrix(1.0, 0.0, 0.0, 1.0, 9.7, 11.9)">
      <use height="35.85" transform="matrix(1.0, 0.0, 0.0, 1.0, -9.7, -11.9)" width="21.35" xlink:href="#shape1"/>
    </g>
    <g id="shape1" transform="matrix(1.0, 0.0, 0.0, 1.0, 9.7, 11.9)">
      <path d="M3.7 10.5 L3.75 10.45 3.65 10.4 3.7 10.5" fill="#7c8abe" fill-rule="evenodd" stroke="none"/>
      <path d="M-1.1 12.0 L1.35 22.45 7.2 8.0 7.2 7.95 4.2 4.95 Q4.15 5.3 4.25 5.5 L4.2 7.2 3.85 9.1 3.85 10.15 3.65 10.4 3.75 10.45 3.7 10.5 3.7 10.55 3.6 10.65 3.6 10.6 3.7 9.2 3.85 7.2 3.7 5.9 3.65 5.2 2.35 7.0 -1.1 12.0" fill="#540101" fill-rule="evenodd" stroke="none"/>
      <path d="M3.85 9.1 L3.7 9.2 3.6 10.6 3.6 10.65 3.7 10.55 3.7 10.5 3.65 10.4 3.85 10.15 3.85 9.1" fill="#50609e" fill-rule="evenodd" stroke="none"/>
      <path d="M-2.2 -11.05 L-3.35 -9.9 -0.05 -4.9 -0.2 -4.75 Q2.3 2.7 2.35 7.0 L3.65 5.2 3.55 4.2 3.55 3.8 Q2.85 -0.3 0.7 -5.15 L-0.95 -8.95 -1.35 -9.65 -2.15 -10.95 -2.2 -11.05 M7.2 8.0 L9.9 10.65 Q10.4 7.0 9.7 4.45 L9.6 3.9 6.45 3.05 7.2 7.95 7.2 8.0" fill="#6b0000" fill-rule="evenodd" stroke="none"/>
      <path d="M-6.2 -3.1 Q-9.65 3.55 -9.2 9.95 L-5.3 5.65 Q-6.2 9.15 -6.3 12.6 L-0.7 6.55 -1.25 12.15 -1.1 12.0 2.35 7.0 Q2.3 2.7 -0.2 -4.75 L-5.8 -3.25 -6.2 -3.1" fill="#b10101" fill-rule="evenodd" stroke="none"/>
      <path d="M-1.0 -11.75 L-1.05 -11.8 -2.1 -11.45 -2.0 -11.4 -2.2 -11.05 -2.15 -10.95 -1.35 -9.65 -0.95 -8.95 0.7 -5.15 Q2.85 -0.3 3.55 3.8 L3.55 4.2 3.65 5.2 3.7 5.9 3.85 7.2 3.7 9.2 3.85 9.1 4.2 7.2 4.25 5.5 Q4.15 5.3 4.2 4.95 L4.1 4.0 4.05 3.5 Q3.65 -0.6 1.85 -5.65 L0.25 -9.4 0.15 -9.55 -0.25 -10.25 -1.0 -11.75 M-6.3 12.6 L-6.3 12.8 Q-6.25 15.5 -5.65 18.05 L-1.25 12.15 -0.7 6.55 -6.3 12.6" fill="#9b0000" fill-rule="evenodd" stroke="none"/>
      <path d="M9.6 3.9 Q8.8 1.25 6.8 -0.3 L10.85 0.05 Q9.05 -4.4 5.3 -7.4 L1.85 -5.65 Q3.65 -0.6 4.05 3.5 L4.1 4.0 4.2 4.95 7.2 7.95 6.45 3.05 9.6 3.9" fill="#940101" fill-rule="evenodd" stroke="none"/>
      <path d="M5.3 -7.4 Q3.8 -8.6 1.8 -9.55 L4.6 -9.6 Q2.3 -11.7 -1.0 -11.75 L-0.25 -10.25 0.15 -9.55 0.25 -9.4 1.85 -5.65 5.3 -7.4" fill="#800101" fill-rule="evenodd" stroke="none"/>
      <path d="M-3.35 -9.9 Q-6.8 -6.05 -7.45 -3.35 L-4.0 -6.7 -6.2 -3.1 -5.8 -3.25 -0.2 -4.75 -0.05 -4.9 -3.35 -9.9" fill="#8f0101" fill-rule="evenodd" stroke="none"/>
      <path d="M5.3 -7.4 Q3.8 -8.6 1.8 -9.55 L4.6 -9.6 Q2.3 -11.7 -1.0 -11.75 L-1.05 -11.8 M-2.1 -11.45 L-2.0 -11.4 -2.2 -11.05 -3.35 -9.9 Q-6.8 -6.05 -7.45 -3.35 L-4.0 -6.7 -6.2 -3.1 Q-9.65 3.55 -9.2 9.95 L-5.3 5.65 Q-6.2 9.15 -6.3 12.6 L-6.3 12.8 Q-6.25 15.5 -5.65 18.05 L-1.25 12.15 -1.1 12.0 1.35 22.45 7.2 8.0 9.9 10.65 Q10.4 7.0 9.7 4.45 L9.6 3.9 Q8.8 1.25 6.8 -0.3 L10.85 0.05 Q9.05 -4.4 5.3 -7.4 M1.85 -5.65 L0.25 -9.4 M0.15 -9.55 L-0.25 -10.25 -1.0 -11.75 M3.65 5.2 L3.55 4.2 3.55 3.8 Q2.85 -0.3 0.7 -5.15 L-0.95 -8.95 -1.35 -9.65 -2.15 -10.95 -2.2 -11.05 M2.35 7.0 L-1.1 12.0 M3.7 9.2 L3.85 7.2 3.7 5.9 3.65 5.2 2.35 7.0 M1.85 -5.65 Q3.65 -0.6 4.05 3.5 L4.1 4.0 4.2 4.95 Q4.15 5.3 4.25 5.5 L4.2 7.2 3.85 9.1 M3.7 9.2 L3.6 10.6 3.6 10.65 M3.85 10.15 L3.85 9.1 M4.2 4.95 L7.2 7.95 7.2 8.0" fill="none" stroke="#000000" stroke-linecap="butt" stroke-linejoin="miter" stroke-miterlimit="3.0" stroke-opacity="0.18039216" stroke-width="0.25"/>
      <path d="M5.25 14.1 Q3.55 13.55 1.35 16.0 0.1 20.25 0.6 23.75 5.45 17.85 5.25 14.1" fill="#fe4545" fill-rule="evenodd" stroke="none"/>
      <path d="M5.25 14.1 Q5.15 12.05 3.3 10.65 2.0 13.45 1.35 16.0 3.55 13.55 5.25 14.1" fill="#a00101" fill-rule="evenodd" stroke="none"/>
      <path d="M1.35 16.0 Q2.0 13.45 3.3 10.65 5.15 12.05 5.25 14.1 M1.35 16.0 Q0.1 20.25 0.6 23.75 5.45 17.85 5.25 14.1" fill="none" stroke="#000000" stroke-linecap="butt" stroke-linejoin="miter" stroke-miterlimit="3.0" stroke-opacity="0.18039216" stroke-width="0.25"/>
      <path d="M3.65 12.45 Q4.5 11.9 5.15 10.9 5.65 9.85 5.6 8.9 5.5 7.95 4.95 7.7 L3.35 7.9 Q2.5 8.45 2.0 9.45 1.35 10.5 1.4 11.45 1.45 12.4 2.25 12.65 2.85 12.95 3.65 12.45" fill="#ffcc99" fill-rule="evenodd" stroke="none"/>
      <path d="M3.65 12.45 Q4.5 11.9 5.15 10.9 5.65 9.85 5.6 8.9 5.5 7.95 4.95 7.7 L3.35 7.9 Q2.5 8.45 2.0 9.45 1.35 10.5 1.4 11.45 1.45 12.4 2.25 12.65 2.85 12.95 3.65 12.45 Z" fill="none" stroke="#000000" stroke-linecap="butt" stroke-linejoin="miter" stroke-miterlimit="3.0" stroke-opacity="0.18039216" stroke-width="0.25"/>
      <path d="M-6.45 15.2 Q-8.4 18.2 -8.85 20.65 -3.45 16.45 -2.8 13.85 -4.1 13.5 -6.45 15.2" fill="#fe4545" fill-rule="evenodd" stroke="none"/>
      <path d="M-6.45 15.2 Q-4.1 13.5 -2.8 13.85 -2.5 12.4 -3.65 11.5 -5.35 13.4 -6.45 15.2" fill="#a00101" fill-rule="evenodd" stroke="none"/>
      <path d="M-2.8 13.85 Q-3.45 16.45 -8.85 20.65 -8.4 18.2 -6.45 15.2 M-2.8 13.85 Q-2.5 12.4 -3.65 11.5 -5.35 13.4 -6.45 15.2" fill="none" stroke="#000000" stroke-linecap="butt" stroke-linejoin="miter" stroke-miterlimit="3.0" stroke-opacity="0.18039216" stroke-width="0.25"/>
      <path d="M-3.2 12.2 L-2.35 11.6 -1.75 10.55 Q-1.55 10.1 -1.65 9.9 -1.8 9.6 -2.15 9.8 L-2.95 10.45 -3.6 11.4 -3.65 12.15 -3.2 12.2" fill="#ffcc99" fill-rule="evenodd" stroke="none"/>
      <path d="M-3.2 12.2 L-2.35 11.6 -1.75 10.55 Q-1.55 10.1 -1.65 9.9 -1.8 9.6 -2.15 9.8 L-2.95 10.45 -3.6 11.4 -3.65 12.15 -3.2 12.2 Z" fill="none" stroke="#000000" stroke-linecap="butt" stroke-linejoin="miter" stroke-miterlimit="3.0" stroke-opacity="0.18039216" stroke-width="0.25"/>
      <path d="M10.9 6.05 Q9.05 6.6 8.0 8.25 8.25 10.2 10.1 11.05 12.55 7.05 10.9 6.05" fill="#fe4545" fill-rule="evenodd" stroke="none"/>
      <path d="M8.0 8.25 Q9.05 6.6 10.9 6.05 L7.6 5.95 Q7.5 7.25 8.0 8.25" fill="#a00101" fill-rule="evenodd" stroke="none"/>
      <path d="M8.0 8.25 Q7.5 7.25 7.6 5.95 L10.9 6.05 Q12.55 7.05 10.1 11.05 8.25 10.2 8.0 8.25 Z" fill="none" stroke="#000000" stroke-linecap="butt" stroke-linejoin="miter" stroke-miterlimit="3.0" stroke-opacity="0.18039216" stroke-width="0.25"/>
      <path d="M8.6 6.4 L8.9 5.85 8.75 5.2 8.3 4.85 7.7 5.0 Q7.45 5.15 7.45 5.5 7.3 5.85 7.5 6.15 L8.05 6.5 8.6 6.4" fill="#ffcc99" fill-rule="evenodd" stroke="none"/>
      <path d="M8.6 6.4 L8.9 5.85 8.75 5.2 8.3 4.85 7.7 5.0 Q7.45 5.15 7.45 5.5 7.3 5.85 7.5 6.15 L8.05 6.5 8.6 6.4 Z" fill="none" stroke="#000000" stroke-linecap="butt" stroke-linejoin="miter" stroke-miterlimit="3.0" stroke-opacity="0.18039216" stroke-width="0.25"/>
      <path d="M2.15 -9.25 L4.7 -9.4 4.45 -9.6 Q2.15 -11.6 -1.15 -11.75 L-1.2 -11.75 -2.8 -11.15 -2.6 -11.15 -2.8 -10.85 -2.75 -10.85 -3.8 -9.75 Q-7.3 -5.9 -7.9 -3.15 L-7.95 -2.8 -5.15 -5.65 -6.8 -2.85 Q-10.15 3.8 -9.65 10.25 L-9.65 10.5 -5.95 6.3 Q-6.8 9.65 -6.8 12.85 L-6.85 13.1 -6.7 15.3 -6.85 15.45 -6.75 15.4 Q-8.8 18.4 -9.15 20.95 L-9.2 21.2 -8.9 20.9 Q-3.55 16.8 -2.75 14.1 L-2.7 14.0 -1.7 12.55 0.05 19.25 Q0.0 19.4 0.1 19.35 L0.2 19.3 Q-0.15 21.85 0.15 23.95 5.05 18.0 4.85 14.25 L4.8 13.6 4.9 13.5 6.85 8.5 6.8 8.3 6.85 8.15 7.4 8.65 7.55 8.95 7.6 9.0 Q7.9 10.55 9.4 11.3 L9.65 11.45 9.75 11.15 Q12.35 7.0 10.65 5.95 L9.8 5.65 9.55 4.5 9.6 3.95 9.55 3.9 Q8.65 1.55 7.1 0.05 L10.85 0.3 10.7 0.0 Q8.9 -4.4 5.2 -7.35 L2.15 -9.25" fill="url(#gradient0)" fill-rule="evenodd" stroke="none"/>
    </g>
    <linearGradient gradientTransform="matrix(0.0032, 0.02, 0.0383, -0.0181, -5.25, -9.4)" gradientUnits="userSpaceOnUse" id="gradient0" spreadMethod="pad" x1="-819.2" x2="819.2">
      <stop offset="0.5725490196078431" stop-color="#390b0b"/>
      <stop offset="1.0" stop-color="#a61f1f" stop-opacity="0.0"/>
    </linearGradient>
    <g id="sprite3" transform="matrix(1.0, 0.0, 0.0, 1.0, 5.0, 3.9)">
      <use height="36.35" transform="matrix(1.0, 0.0, 0.0, 1.0, -5.0, -3.9)" width="21.0" xlink:href="#shape2"/>
    </g>
    <g id="shape2" transform="matrix(1.0, 0.0, 0.0, 1.0, 5.0, 3.9)">
      <path d="M3.4 3.1 Q2.75 4.85 1.6 5.75 L0.9 5.95 -1.25 6.75 -1.65 6.8 -1.6 6.55 Q-1.45 4.7 -0.85 3.7 -0.3 2.45 0.6 1.9 3.5 0.7 3.5 1.6 L3.4 3.1" fill="#610101" fill-rule="evenodd" stroke="none"/>
      <path d="M3.4 3.1 Q2.75 4.85 1.6 5.75 L0.9 5.95 -1.25 6.75 -1.65 6.8 -1.6 6.55 Q-1.45 4.7 -0.85 3.7 -0.3 2.45 0.6 1.9" fill="none" stroke="#000000" stroke-linecap="butt" stroke-linejoin="miter" stroke-miterlimit="3.0" stroke-opacity="0.18039216" stroke-width="0.25"/>
      <path d="M0.75 1.2 Q-0.4 1.85 -0.9 1.8 -1.15 1.65 -0.9 0.95 -0.1 -0.6 0.65 -1.15 L1.2 -1.55 2.7 -2.35 2.8 -2.35 2.85 -2.2 Q3.0 -1.4 2.3 -0.4 L1.75 0.3 0.75 1.2" fill="#610101" fill-rule="evenodd" stroke="none"/>
      <path d="M0.75 1.2 L1.75 0.3 2.3 -0.4 Q3.0 -1.4 2.85 -2.2 L2.8 -2.35 2.7 -2.35 1.2 -1.55 0.65 -1.15 Q-0.1 -0.6 -0.9 0.95" fill="none" stroke="#000000" stroke-linecap="butt" stroke-linejoin="miter" stroke-miterlimit="3.0" stroke-opacity="0.18039216" stroke-width="0.25"/>
      <path d="M-4.5 2.85 L-4.55 2.7 -4.45 2.65 -4.5 2.85" fill="#4f5f9d" fill-rule="evenodd" stroke="none"/>
      <path d="M-0.6 1.4 Q-0.1 1.35 -0.15 1.7 L-1.35 2.55 -3.15 3.15 Q-4.1 3.3 -4.5 2.85 L-4.45 2.65 Q-3.45 1.9 -2.65 1.55 L-0.6 1.4" fill="#610101" fill-rule="evenodd" stroke="none"/>
      <path d="M-1.35 2.55 L-3.15 3.15 Q-4.1 3.3 -4.5 2.85 L-4.55 2.7 -4.45 2.65 Q-3.45 1.9 -2.65 1.55 L-0.6 1.4" fill="none" stroke="#000000" stroke-linecap="butt" stroke-linejoin="miter" stroke-miterlimit="3.0" stroke-opacity="0.18039216" stroke-width="0.25"/>
      <path d="M-0.7 2.55 Q-1.0 3.2 -1.6 3.65 L-1.95 3.85 -3.05 4.55 -3.2 4.65 -3.2 4.55 -2.8 3.65 -2.05 2.8 Q-0.55 1.9 -0.6 2.1 L-0.7 2.55" fill="#610101" fill-rule="evenodd" stroke="none"/>
      <path d="M-0.7 2.55 Q-1.0 3.2 -1.6 3.65 L-1.95 3.85 -3.05 4.55 -3.2 4.65 -3.2 4.55 -2.8 3.65 -2.05 2.8" fill="none" stroke="#000000" stroke-linecap="butt" stroke-linejoin="miter" stroke-miterlimit="3.0" stroke-opacity="0.18039216" stroke-width="0.25"/>
      <path d="M-1.0 0.9 L-0.55 1.15 Q-0.3 1.25 -1.75 1.65 L-2.75 1.6 -3.65 1.35 -3.65 1.3 -3.6 1.2 -2.55 1.0 -2.2 0.95 -1.0 0.9" fill="#610101" fill-rule="evenodd" stroke="none"/>
      <path d="M-1.0 0.9 L-2.2 0.95 -2.55 1.0 -3.6 1.2 -3.65 1.3 -3.65 1.35 -2.75 1.6 -1.75 1.65" fill="none" stroke="#000000" stroke-linecap="butt" stroke-linejoin="miter" stroke-miterlimit="3.0" stroke-opacity="0.18039216" stroke-width="0.25"/>
      <path d="M8.25 2.35 L8.3 2.45 Q8.35 2.3 8.4 2.4 L8.25 2.75 8.25 2.35" fill="#4f5f9d" fill-rule="evenodd" stroke="none"/>
      <path d="M8.25 2.35 L8.25 2.75 Q7.35 3.95 5.95 3.75 L3.6 3.05 2.55 1.7 Q2.05 0.95 4.5 0.2 5.35 0.1 6.4 0.65 L8.25 2.35" fill="#610101" fill-rule="evenodd" stroke="none"/>
      <path d="M8.25 2.75 L8.4 2.4 Q8.35 2.3 8.3 2.45 L8.25 2.35 M8.25 2.75 Q7.35 3.95 5.95 3.75 L3.6 3.05 M4.5 0.2 Q5.35 0.1 6.4 0.65 L8.25 2.35" fill="none" stroke="#000000" stroke-linecap="butt" stroke-linejoin="miter" stroke-miterlimit="3.0" stroke-opacity="0.18039216" stroke-width="0.25"/>
      <path d="M2.8 0.5 L2.8 0.55 Q2.9 0.45 2.9 0.5 L2.8 0.6 2.8 0.5" fill="#4f5f9d" fill-rule="evenodd" stroke="none"/>
      <path d="M2.8 0.5 L2.8 0.6 1.35 1.35 -0.1 1.65 -0.65 1.55 Q-1.0 1.4 0.55 0.65 L1.7 0.4 2.8 0.5" fill="#610101" fill-rule="evenodd" stroke="none"/>
      <path d="M2.8 0.6 L2.9 0.5 Q2.9 0.45 2.8 0.55 L2.8 0.5 M2.8 0.6 L1.35 1.35 -0.1 1.65 M0.55 0.65 L1.7 0.4 2.8 0.5" fill="none" stroke="#000000" stroke-linecap="butt" stroke-linejoin="miter" stroke-miterlimit="3.0" stroke-opacity="0.18039216" stroke-width="0.25"/>
      <path d="M8.3 14.35 L8.25 13.4 8.25 12.95 Q7.6 9.05 5.45 4.4 L3.85 0.8 3.4 0.1 Q2.95 -0.45 2.65 -1.1 L2.55 -1.2 2.55 -1.25 1.5 -0.15 4.7 4.7 4.55 4.85 Q7.05 11.9 7.05 16.1 L8.3 14.35 M14.35 13.0 L11.15 12.2 11.55 15.15 11.75 15.25 11.65 15.25 14.6 19.55 Q15.05 16.05 14.35 13.6 L14.35 13.0" fill="#6b0000" fill-rule="evenodd" stroke="none"/>
      <path d="M7.05 16.1 Q7.05 11.9 4.55 4.85 L-1.05 6.4 -1.45 6.5 Q-4.9 13.0 -4.5 19.1 L-0.65 14.9 Q-1.5 18.3 -1.65 21.6 L4.0 15.7 3.45 21.1 3.55 21.0 4.75 19.4 4.7 19.3 7.05 16.1" fill="#b10101" fill-rule="evenodd" stroke="none"/>
      <path d="M2.55 -1.25 L2.55 -1.2 2.65 -1.1 Q2.95 -0.45 3.4 0.1 L3.85 0.8 5.45 4.4 Q7.6 9.05 8.25 12.95 L8.25 13.4 8.3 14.35 8.55 14.8 8.9 15.5 9.0 14.65 8.9 14.15 8.85 13.2 8.75 12.7 Q8.35 8.8 6.6 3.9 L5.0 0.35 4.9 0.2 4.5 -0.5 3.8 -1.85 3.75 -1.95 2.75 -1.6 2.55 -1.25 M3.45 21.1 L4.0 15.7 -1.65 21.6 -1.65 21.85 Q-1.6 24.35 -1.0 26.85 L3.45 21.1" fill="#9b0000" fill-rule="evenodd" stroke="none"/>
      <path d="M6.6 3.9 Q8.35 8.8 8.75 12.7 L8.85 13.2 8.9 14.15 11.55 15.15 11.15 12.2 14.35 13.0 Q13.5 10.5 11.55 8.95 L15.55 9.3 Q13.8 5.05 10.1 2.15 L6.6 3.9" fill="#940101" fill-rule="evenodd" stroke="none"/>
      <path d="M3.8 -1.85 L4.5 -0.5 4.9 0.2 5.0 0.35 6.6 3.9 10.1 2.15 Q8.5 1.0 6.6 0.2 L9.4 0.1 Q7.1 -1.95 3.8 -1.85" fill="#800101" fill-rule="evenodd" stroke="none"/>
      <path d="M4.55 4.85 L4.7 4.7 1.5 -0.15 Q-2.0 3.65 -2.65 6.2 L0.75 3.0 -1.45 6.5 -1.05 6.4 4.55 4.85" fill="#8f0101" fill-rule="evenodd" stroke="none"/>
      <path d="M3.75 -1.95 L3.8 -1.85 4.5 -0.5 4.9 0.2 M5.0 0.35 L6.6 3.9 Q8.35 8.8 8.75 12.7 L8.85 13.2 8.9 14.15 9.0 14.65 8.9 15.5 M-1.45 6.5 L0.75 3.0 -2.65 6.2 Q-2.0 3.65 1.5 -0.15 M-1.65 21.6 Q-1.5 18.3 -0.65 14.9 L-4.5 19.1 Q-4.9 13.0 -1.45 6.5 M3.45 21.1 L3.55 21.0 4.75 19.4 M-1.65 21.6 L-1.65 21.85 Q-1.6 24.35 -1.0 26.85 L3.45 21.1 M10.1 2.15 Q13.8 5.05 15.55 9.3 L11.55 8.95 Q13.5 10.5 14.35 13.0 M10.1 2.15 Q8.5 1.0 6.6 0.2 L9.4 0.1 Q7.1 -1.95 3.8 -1.85 M11.65 15.25 L14.6 19.55 Q15.05 16.05 14.35 13.6 L14.35 13.0" fill="none" stroke="#000000" stroke-linecap="butt" stroke-linejoin="miter" stroke-miterlimit="3.0" stroke-opacity="0.18039216" stroke-width="0.25"/>
      <path d="M8.3 14.35 L8.25 13.4 8.25 12.95 Q7.6 9.05 5.45 4.4 L3.85 0.8 3.4 0.1 Q2.95 -0.45 2.65 -1.1 L2.55 -1.2 2.55 -1.25 M1.5 -0.15 L2.55 -1.25" fill="none" stroke="#000000" stroke-linecap="butt" stroke-linejoin="miter" stroke-miterlimit="3.0" stroke-opacity="0.18039216" stroke-width="0.25"/>
      <path d="M2.55 -1.25 L2.75 -1.6" fill="none" stroke="#000000" stroke-linecap="round" stroke-linejoin="miter" stroke-miterlimit="3.0" stroke-opacity="0.18039216" stroke-width="0.25"/>
      <path d="M2.0 -1.3 L2.2 -1.3 2.0 -1.0 2.05 -1.0 1.05 0.0 Q-2.55 3.8 -3.15 6.5 L-3.2 6.8 -0.35 4.05 -2.0 6.7 Q-5.45 13.2 -4.95 19.4 L-5.0 19.6 -1.25 15.55 Q-2.05 18.75 -2.1 21.85 L-2.15 22.15 -2.05 24.2 -2.15 24.35 -2.05 24.25 Q-4.1 27.3 -4.5 29.7 L-4.55 29.9 -4.2 29.65 Q1.1 25.6 1.9 23.0 L1.9 22.9 3.0 21.55 4.7 28.0 4.75 28.05 4.85 28.0 Q4.45 30.45 4.7 32.45 9.65 26.6 9.5 23.0 L9.4 22.45 9.55 22.35 11.55 17.45 11.45 17.35 11.55 17.15 12.05 17.7 12.2 17.95 12.2 18.0 Q12.6 19.45 14.05 20.1 L14.3 20.3 14.4 20.0 Q17.05 16.0 15.3 14.95 L14.45 14.7 14.25 13.6 14.25 13.1 14.25 13.05 Q13.4 10.75 11.85 9.4 L15.6 9.45 15.45 9.3 Q13.7 5.05 10.0 2.25 8.55 1.25 6.9 0.5 L9.45 0.35 9.25 0.1 Q6.95 -1.8 3.65 -1.9 L2.0 -1.3" fill="url(#gradient1)" fill-rule="evenodd" stroke="none"/>
      <path d="M-1.05 1.15 L-1.1 0.05 -1.1 -0.1 -0.7 -1.3 -0.6 -1.35 -0.5 -1.35 -0.1 -0.6 Q0.1 -0.3 -0.05 0.25 -0.45 1.5 -0.65 1.4 L-1.05 1.15" fill="#610101" fill-rule="evenodd" stroke="none"/>
      <path d="M-1.05 1.15 L-1.1 0.05 -1.1 -0.1 -0.7 -1.3 -0.6 -1.35 -0.5 -1.35 -0.1 -0.6 Q0.1 -0.3 -0.05 0.25" fill="none" stroke="#000000" stroke-linecap="butt" stroke-linejoin="miter" stroke-miterlimit="3.0" stroke-opacity="0.18039216" stroke-width="0.25"/>
      <path d="M10.25 -2.7 L10.25 -2.85 10.15 -2.8 10.25 -2.7" fill="#4f5f9d" fill-rule="evenodd" stroke="none"/>
      <path d="M6.35 -1.25 Q5.9 -0.9 6.05 -0.65 L7.4 -0.75 Q8.5 -1.0 9.15 -1.5 10.0 -1.95 10.25 -2.7 L10.15 -2.8 8.25 -2.5 Q7.45 -2.2 6.35 -1.25" fill="#610101" fill-rule="evenodd" stroke="none"/>
      <path d="M7.4 -0.75 Q8.5 -1.0 9.15 -1.5 10.0 -1.95 10.25 -2.7 L10.25 -2.85 10.15 -2.8 8.25 -2.5 Q7.45 -2.2 6.35 -1.25" fill="none" stroke="#000000" stroke-linecap="butt" stroke-linejoin="miter" stroke-miterlimit="3.0" stroke-opacity="0.18039216" stroke-width="0.25"/>
      <path d="M6.75 -0.2 L7.85 0.1 8.2 0.05 9.35 -0.1 9.55 -0.15 9.5 -0.2 8.85 -0.75 8.0 -0.95 Q6.45 -0.8 6.55 -0.55 L6.75 -0.2" fill="#610101" fill-rule="evenodd" stroke="none"/>
      <path d="M6.75 -0.2 L7.85 0.1 8.2 0.05 9.35 -0.1 9.55 -0.15 9.5 -0.2 8.85 -0.75 8.0 -0.95" fill="none" stroke="#000000" stroke-linecap="butt" stroke-linejoin="miter" stroke-miterlimit="3.0" stroke-opacity="0.18039216" stroke-width="0.25"/>
      <path d="M4.35 1.55 Q2.75 1.85 2.15 1.55 1.8 1.15 2.25 0.35 3.5 -1.4 4.5 -1.85 L5.3 -2.15 7.3 -2.4 7.5 -2.35 7.55 -2.1 Q7.55 -0.9 6.6 0.15 L5.85 0.8 Q5.2 1.3 4.35 1.55" fill="#610101" fill-rule="evenodd" stroke="none"/>
      <path d="M4.35 1.55 Q5.2 1.3 5.85 0.8 L6.6 0.15 Q7.55 -0.9 7.55 -2.1 L7.5 -2.35 7.3 -2.4 5.3 -2.15 4.5 -1.85 Q3.5 -1.4 2.25 0.35" fill="none" stroke="#000000" stroke-linecap="butt" stroke-linejoin="miter" stroke-miterlimit="3.0" stroke-opacity="0.18039216" stroke-width="0.25"/>
      <path d="M3.05 0.35 L3.05 0.4 2.95 0.45 3.1 0.45 3.05 0.35" fill="#4f5f9d" fill-rule="evenodd" stroke="none"/>
      <path d="M3.05 0.35 L3.1 0.45 4.6 0.15 Q5.25 -0.15 6.0 -0.6 L6.45 -1.2 5.1 -1.05 4.0 -0.5 3.05 0.35" fill="#610101" fill-rule="evenodd" stroke="none"/>
      <path d="M3.1 0.45 L2.95 0.45 3.05 0.4 3.05 0.35 M3.1 0.45 L4.6 0.15 Q5.25 -0.15 6.0 -0.6 M5.1 -1.05 L4.0 -0.5 3.05 0.35" fill="none" stroke="#000000" stroke-linecap="butt" stroke-linejoin="miter" stroke-miterlimit="3.0" stroke-opacity="0.18039216" stroke-width="0.25"/>
      <path d="M5.1 -0.5 Q6.3 -0.65 6.75 -1.05 6.9 -1.4 6.5 -1.8 5.4 -2.65 4.6 -2.7 L3.95 -2.6 2.45 -2.25 2.3 -2.2 2.3 -2.05 Q2.4 -1.2 3.3 -0.8 3.55 -0.6 3.9 -0.5 L5.1 -0.5" fill="#610101" fill-rule="evenodd" stroke="none"/>
      <path d="M5.1 -0.5 L3.9 -0.5 Q3.55 -0.6 3.3 -0.8 2.4 -1.2 2.3 -2.05 L2.3 -2.2 2.45 -2.25 3.95 -2.6 4.6 -2.7 Q5.4 -2.65 6.5 -1.8" fill="none" stroke="#000000" stroke-linecap="butt" stroke-linejoin="miter" stroke-miterlimit="3.0" stroke-opacity="0.18039216" stroke-width="0.25"/>
      <path d="M-2.65 1.5 L-2.7 1.35 -2.6 1.35 -2.65 1.5" fill="#4f5f9d" fill-rule="evenodd" stroke="none"/>
      <path d="M2.6 1.4 Q3.25 1.6 3.1 1.95 L1.4 2.45 -1.0 2.35 Q-2.2 2.2 -2.65 1.5 L-2.6 1.35 -0.05 0.85 Q0.95 0.85 2.6 1.4" fill="#610101" fill-rule="evenodd" stroke="none"/>
      <path d="M1.4 2.45 L-1.0 2.35 Q-2.2 2.2 -2.65 1.5 L-2.7 1.35 -2.6 1.35 -0.05 0.85 Q0.95 0.85 2.6 1.4" fill="none" stroke="#000000" stroke-linecap="butt" stroke-linejoin="miter" stroke-miterlimit="3.0" stroke-opacity="0.18039216" stroke-width="0.25"/>
      <path d="M2.2 1.05 L2.85 1.9 1.25 1.8 Q0.4 1.5 -0.15 1.05 L-1.4 -0.05 -1.4 -0.2 Q-1.3 -0.1 -1.3 -0.35 L0.15 0.1 0.6 0.2 Q1.4 0.5 2.2 1.05" fill="#610101" fill-rule="evenodd" stroke="none"/>
      <path d="M2.2 1.05 Q1.4 0.5 0.6 0.2 L0.15 0.1 -1.3 -0.35 Q-1.3 -0.1 -1.4 -0.2 L-1.4 -0.05 -0.15 1.05 Q0.4 1.5 1.25 1.8" fill="none" stroke="#000000" stroke-linecap="butt" stroke-linejoin="miter" stroke-miterlimit="3.0" stroke-opacity="0.18039216" stroke-width="0.25"/>
      <path d="M2.45 -2.75 L3.45 -1.25 Q3.8 -0.6 3.55 0.25 2.95 2.45 2.5 2.15 L1.65 1.5 Q1.25 0.45 1.4 -0.5 1.25 -0.6 1.45 -0.7 1.6 -1.85 2.2 -2.75 L2.25 -2.75 2.3 -2.8 2.35 -2.8 2.45 -2.75" fill="#610101" fill-rule="evenodd" stroke="none"/>
      <path d="M2.45 -2.75 L2.35 -2.8 2.25 -2.75" fill="none" stroke="#000000" stroke-linecap="butt" stroke-linejoin="miter" stroke-miterlimit="3.0" stroke-opacity="0.18039216" stroke-width="0.25"/>
      <path d="M6.7 -1.8 L6.5 -2.85 6.45 -2.9 5.7 -3.75 5.65 -3.7 5.6 -3.65 Q5.35 -3.15 5.4 -2.65 5.25 -2.2 5.55 -1.9 6.25 -0.95 6.4 -1.2 L6.7 -1.8" fill="#610101" fill-rule="evenodd" stroke="none"/>
      <path d="M6.7 -1.8 L6.5 -2.85 6.45 -2.9 5.7 -3.75 5.65 -3.7 5.6 -3.65 Q5.35 -3.15 5.4 -2.65 5.25 -2.2 5.55 -1.9" fill="none" stroke="#000000" stroke-linecap="butt" stroke-linejoin="miter" stroke-miterlimit="3.0" stroke-opacity="0.18039216" stroke-width="0.25"/>
      <path d="M6.6 -1.95 L6.25 -1.3 Q6.05 -1.15 7.45 -1.85 L8.35 -2.55 9.15 -3.4 9.15 -3.5 Q9.1 -3.4 9.05 -3.55 L8.0 -2.95 7.65 -2.8 6.6 -1.95" fill="#610101" fill-rule="evenodd" stroke="none"/>
      <path d="M6.6 -1.95 L7.65 -2.8 8.0 -2.95 9.05 -3.55 Q9.1 -3.4 9.15 -3.5 L9.15 -3.4 8.35 -2.55 7.45 -1.85" fill="none" stroke="#000000" stroke-linecap="butt" stroke-linejoin="miter" stroke-miterlimit="3.0" stroke-opacity="0.18039216" stroke-width="0.25"/>
    </g>
    <linearGradient gradientTransform="matrix(0.0031, 0.0192, 0.0383, -0.018, -0.45, 0.4)" gradientUnits="userSpaceOnUse" id="gradient1" spreadMethod="pad" x1="-819.2" x2="819.2">
      <stop offset="0.5725490196078431" stop-color="#390b0b"/>
      <stop offset="1.0" stop-color="#a61f1f" stop-opacity="0.0"/>
    </linearGradient>
  </defs>
</svg>
