<?xml version="1.0" encoding="UTF-8" standalone="no"?>
<svg xmlns:xlink="http://www.w3.org/1999/xlink" height="440.0px" width="440.0px" xmlns="http://www.w3.org/2000/svg">
  <g transform="matrix(10.0, 0.0, 0.0, 10.0, 0.0, 0.0)">
    <use height="44.0" transform="matrix(0.9091, 0.0, 0.0, 0.9091, 2.0, 2.0)" width="44.0" xlink:href="#sprite0"/>
  </g>
  <defs>
    <g id="sprite0" transform="matrix(1.0, 0.0, 0.0, 1.0, 0.0, 0.0)">
      <use height="44.0" transform="matrix(1.0, 0.0, 0.0, 1.0, 0.0, 0.0)" width="44.0" xlink:href="#shape0"/>
      <use height="71.3" transform="matrix(0.533, 0.0, 0.0, 0.533, 8.25, 3.0)" width="51.65" xlink:href="#sprite1"/>
    </g>
    <g id="shape0" transform="matrix(1.0, 0.0, 0.0, 1.0, 0.0, 0.0)">
      <path d="M44.0 44.0 L0.0 44.0 0.0 0.0 44.0 0.0 44.0 44.0" fill="#43adca" fill-opacity="0.0" fill-rule="evenodd" stroke="none"/>
    </g>
    <g id="sprite1" transform="matrix(1.0, 0.0, 0.0, 1.0, 0.0, 0.0)">
      <use height="71.3" transform="matrix(1.0, 0.0, 0.0, 1.0, 0.0, 0.0)" width="51.65" xlink:href="#shape1"/>
    </g>
    <g id="shape1" transform="matrix(1.0, 0.0, 0.0, 1.0, 0.0, 0.0)">
      <path d="M38.85 67.8 Q36.35 69.95 32.95 70.35 L31.85 70.2 31.1 69.7 Q28.9 68.8 27.55 67.05 26.6 65.8 26.05 64.15 L24.8 62.4 24.6 61.8 Q23.4 59.65 23.35 57.2 L23.1 56.85 23.1 56.6 Q23.0 55.0 22.45 53.75 L22.6 53.3 22.6 53.15 Q22.2 52.0 22.55 50.9 L22.5 50.55 22.6 48.35 22.95 48.5 22.85 50.7 Q22.7 55.15 23.8 58.3 24.8 61.45 26.9 64.75 L27.4 65.5 Q29.2 68.1 31.15 68.85 33.25 69.65 35.35 68.45 L37.85 66.8 Q38.15 67.4 38.85 67.8" fill="#5c4a2e" fill-rule="evenodd" stroke="none"/>
      <path d="M22.6 48.35 L22.5 50.55 22.55 50.9 Q22.2 52.0 22.6 53.15 L22.6 53.3 22.45 53.75 Q23.0 55.0 23.1 56.6 L23.1 56.85 23.35 57.2 Q23.4 59.65 24.6 61.8 L24.8 62.4 26.05 64.15 Q26.6 65.8 27.55 67.05 28.9 68.8 31.1 69.7 L31.85 70.2 32.95 70.35 Q36.35 69.95 38.85 67.8 L39.9 68.2 Q36.25 70.4 34.2 70.95 L31.2 71.2 30.0 70.7 28.2 69.45 Q27.5 68.95 26.45 67.4 L23.35 62.15 Q21.9 59.45 21.3 56.2 20.95 54.3 20.85 52.25 20.75 50.05 21.0 47.65 L22.6 48.35" fill="#7a623a" fill-rule="evenodd" stroke="none"/>
      <path d="M37.85 66.8 L35.35 68.45 Q33.25 69.65 31.15 68.85 29.2 68.1 27.4 65.5 L26.9 64.75 Q24.8 61.45 23.8 58.3 22.7 55.15 22.85 50.7 L22.95 48.5 22.6 48.35 21.0 47.65 Q20.75 50.05 20.85 52.25 20.95 54.3 21.3 56.2 21.9 59.45 23.35 62.15 L26.45 67.4 Q27.5 68.95 28.2 69.45 L30.0 70.7 31.2 71.2 34.2 70.95 Q36.25 70.4 39.9 68.2" fill="none" stroke="#1a120b" stroke-linecap="round" stroke-linejoin="round" stroke-opacity="0.5019608" stroke-width="0.05"/>
      <path d="M18.25 14.5 Q19.6 16.0 20.05 17.5 19.6 16.0 18.25 14.5 M17.7 11.0 Q19.9 7.55 16.15 2.85 19.9 7.55 17.7 11.0 M19.45 21.25 Q20.55 19.4 20.05 17.5 18.3 22.05 15.2 19.2 L15.2 15.0 12.0 17.4 Q7.55 15.95 7.6 10.8 L10.4 0.45 15.25 0.0 25.95 0.95 30.35 11.45 Q29.6 14.9 29.6 18.6 L30.45 23.85 Q29.5 22.85 29.6 24.1 L29.8 25.45 30.7 29.5 30.7 30.55 31.4 33.2 Q31.65 33.3 32.05 30.65 L32.75 33.15 36.95 48.65 36.95 54.3 33.35 62.5 Q33.5 60.65 32.6 57.7 L32.85 62.25 32.8 63.7 31.65 65.8 30.6 61.4 29.6 66.8 24.0 61.6 19.8 54.6 18.8 60.0 11.8 56.6 10.05 41.0 10.05 35.9 Q12.65 42.95 17.4 45.55 13.7 42.2 15.4 40.4 L18.2 39.4 21.8 32.9 Q22.6 30.75 21.8 28.6 21.25 32.35 19.2 30.0 L17.8 26.0 19.45 21.25 M20.3 26.2 L21.8 28.6 20.3 26.2 M25.2 21.25 L24.95 23.65 25.9 20.65 26.1 19.8 Q26.45 17.7 25.4 18.55 L25.2 21.25 M26.2 47.9 L26.95 49.4 26.95 47.3 Q26.6 43.85 25.6 44.5 L25.6 45.15 25.6 46.75 26.2 47.9 M30.4 43.7 Q33.25 40.4 32.75 33.15 33.25 40.4 30.4 43.7" fill="#966432" fill-rule="evenodd" stroke="none"/>
      <path d="M20.05 17.5 Q20.55 19.4 19.45 21.25 L17.8 26.0 19.2 30.0 Q21.25 32.35 21.8 28.6 22.6 30.75 21.8 32.9 L18.2 39.4 15.4 40.4 Q13.7 42.2 17.4 45.55 12.65 42.95 10.05 35.9 L10.05 41.0 11.8 56.6 18.8 60.0 19.8 54.6 24.0 61.6 29.6 66.8 30.6 61.4 31.65 65.8 30.5 67.95 Q26.9 68.1 23.4 66.85 21.8 65.2 20.6 61.65 L21.7 65.7 21.85 66.3 Q14.65 63.5 7.75 59.0 7.15 57.6 6.85 54.6 L6.95 57.7 7.0 58.45 Q5.0 56.8 3.85 54.0 3.35 41.85 6.5 28.25 6.9 24.75 5.05 21.2 L1.25 17.1 1.25 5.75 Q5.25 1.6 10.4 0.45 L7.6 10.8 Q7.55 15.95 12.0 17.4 L15.2 15.0 15.2 19.2 Q18.3 22.05 20.05 17.5" fill="#80572f" fill-rule="evenodd" stroke="none"/>
      <path d="M25.2 21.25 L25.75 19.45 25.4 18.55 Q26.45 17.7 26.1 19.8 L25.9 20.65 24.95 23.65 25.2 21.25 M1.25 5.75 L1.25 17.1 5.05 21.2 Q6.9 24.75 6.5 28.25 3.35 41.85 3.85 54.0 L2.8 51.6 Q2.6 36.6 5.4 26.4 5.1 22.55 1.25 19.4 L0.0 16.8 0.0 7.8 1.25 5.75 M6.95 57.7 L6.85 54.6 Q7.15 57.6 7.75 59.0 L6.95 57.7 M21.7 65.7 L20.6 61.65 Q21.8 65.2 23.4 66.85 L21.7 65.7 M30.7 30.55 L31.35 30.65 32.05 30.65 Q31.65 33.3 31.4 33.2 L30.7 30.55 M33.35 62.5 L32.85 62.25 32.6 57.7 Q33.5 60.65 33.35 62.5 M30.45 23.85 L29.6 24.1 Q29.5 22.85 30.45 23.85 M25.6 45.15 L25.6 44.5 Q26.6 43.85 26.95 47.3 L26.95 49.4 26.2 47.9 26.25 46.4 Q26.15 45.1 25.6 45.15" fill="#ddc564" fill-rule="evenodd" stroke="none"/>
      <path d="M16.15 2.85 Q19.9 7.55 17.7 11.0 M20.05 17.5 Q19.6 16.0 18.25 14.5 M20.05 17.5 Q20.55 19.4 19.45 21.25 M21.8 28.6 L20.3 26.2 M30.45 23.85 L29.6 18.6 Q29.6 14.9 30.35 11.45 L25.95 0.95 15.25 0.0 10.4 0.45 Q5.25 1.6 1.25 5.75 L1.25 17.1 5.05 21.2 Q6.9 24.75 6.5 28.25 3.35 41.85 3.85 54.0 5.0 56.8 7.0 58.45 L6.95 57.7 6.85 54.6 Q7.15 57.6 7.75 59.0 14.65 63.5 21.85 66.3 L21.7 65.7 20.6 61.65 Q21.8 65.2 23.4 66.85 26.9 68.1 30.5 67.95 L31.65 65.8 M10.05 35.9 Q12.65 42.95 17.4 45.55 M21.8 32.9 Q22.6 30.75 21.8 28.6 M32.05 30.65 L32.75 33.15 36.95 48.65 36.95 54.3 33.35 62.5 M32.85 62.25 L32.8 63.7 31.65 65.8 M32.75 33.15 Q33.25 40.4 30.4 43.7 M32.85 62.25 L32.6 57.7 Q33.5 60.65 33.35 62.5" fill="none" stroke="#000000" stroke-linecap="round" stroke-linejoin="round" stroke-opacity="0.4" stroke-width="0.05"/>
      <path d="M40.25 47.85 Q42.0 48.2 43.25 49.0 L44.1 48.95 44.55 48.0 Q45.2 46.35 46.3 46.7 L47.65 47.15 Q48.0 47.2 47.55 48.35 47.05 49.45 49.0 50.25 51.05 51.1 50.55 51.85 L50.05 52.5 Q49.85 52.9 50.25 53.35 52.05 55.5 50.65 56.75 L50.45 56.9 50.65 56.85 Q52.05 58.5 51.45 59.55 50.8 60.55 48.65 60.6 48.15 61.9 47.35 61.75 L48.0 62.2 Q48.8 62.9 47.6 65.35 46.4 67.8 43.5 67.2 L41.85 67.1 41.4 67.55 41.1 67.6 Q42.7 65.55 41.75 62.75 43.05 63.95 44.95 64.5 L45.7 64.55 Q45.9 62.95 44.1 61.85 L43.55 61.5 46.2 61.05 47.1 60.4 Q48.05 56.5 44.95 56.2 L45.0 56.15 Q45.05 56.05 45.2 56.05 L47.55 55.8 48.1 55.45 Q47.75 54.0 46.65 52.85 L46.6 52.8 Q46.65 52.35 47.15 52.25 L47.2 51.95 Q46.5 51.5 45.65 51.7 L44.8 51.85 44.65 51.85 44.3 51.5 43.6 51.3 43.35 51.35 43.25 51.65 Q41.75 50.15 40.25 47.85 M48.85 57.55 L49.5 57.4 50.45 56.9 49.5 57.4 48.85 57.55 M46.8 61.5 L47.35 61.75 46.8 61.5" fill="#ab8a54" fill-rule="evenodd" stroke="none"/>
      <path d="M41.1 67.6 L40.55 67.75 39.75 67.95 38.7 67.55 Q38.0 67.15 37.7 66.55 L37.55 66.15 37.55 65.3 38.5 63.9 36.5 61.55 37.45 61.35 38.8 60.75 40.85 62.05 40.9 62.05 40.4 60.7 40.2 60.2 42.7 60.3 42.85 60.3 41.15 58.6 43.15 57.95 Q43.0 57.0 42.3 56.15 L41.95 55.55 42.0 54.95 42.25 54.5 Q41.95 53.6 41.05 53.25 L40.5 53.0 37.3 53.8 36.0 53.8 35.9 54.35 35.9 54.4 33.85 55.35 Q34.65 51.85 37.8 51.65 L39.75 51.65 Q40.2 51.55 39.25 50.6 37.65 48.85 35.2 50.1 32.75 51.25 32.15 51.7 31.5 52.05 33.05 50.0 34.5 49.35 35.95 48.15 37.2 47.05 39.0 47.25 39.6 47.4 40.15 47.85 L40.15 47.9 40.25 47.85 Q41.75 50.15 43.25 51.65 L43.35 51.35 43.6 51.3 44.3 51.5 44.65 51.85 44.8 51.85 45.65 51.7 Q46.5 51.5 47.2 51.95 L47.15 52.25 Q46.65 52.35 46.6 52.8 L46.65 52.85 Q47.75 54.0 48.1 55.45 L47.55 55.8 45.2 56.05 Q45.05 56.05 45.0 56.15 L44.95 56.2 Q48.05 56.5 47.1 60.4 L46.2 61.05 43.55 61.5 44.1 61.85 Q45.9 62.95 45.7 64.55 L44.95 64.5 Q43.05 63.95 41.75 62.75 42.7 65.55 41.1 67.6" fill="#b89b6b" fill-rule="evenodd" stroke="none"/>
      <path d="M38.8 60.75 L39.2 60.5 Q40.15 59.65 37.75 57.1 L39.9 57.35 Q41.35 57.5 40.2 55.4 39.05 53.3 36.2 54.2 L35.9 54.4 35.9 54.35 36.0 53.8 37.3 53.8 40.5 53.0 41.05 53.25 Q41.95 53.6 42.25 54.5 L42.0 54.95 41.95 55.55 42.3 56.15 Q43.0 57.0 43.15 57.95 L41.15 58.6 42.85 60.3 42.7 60.3 40.2 60.2 40.4 60.7 40.9 62.05 40.85 62.05 38.8 60.75" fill="#bea57a" fill-rule="evenodd" stroke="none"/>
      <path d="M40.25 47.85 Q42.0 48.2 43.25 49.0 L44.1 48.95 44.55 48.0 Q45.2 46.35 46.3 46.7 L47.65 47.15 Q48.0 47.2 47.55 48.35 47.05 49.45 49.0 50.25 51.05 51.1 50.55 51.85 L50.05 52.5 Q49.85 52.9 50.25 53.35 52.05 55.5 50.65 56.75 L50.45 56.9 50.65 56.85 Q52.05 58.5 51.45 59.55 50.8 60.55 48.65 60.6 48.15 61.9 47.35 61.75 L48.0 62.2 Q48.8 62.9 47.6 65.35 46.4 67.8 43.5 67.2 L41.85 67.1 41.4 67.55 41.1 67.6 40.55 67.75 39.75 67.95 38.7 67.55 Q38.0 67.15 37.7 66.55 L37.55 66.15 37.55 65.3 38.5 63.9 36.5 61.55 37.45 61.35 38.8 60.75 39.2 60.5 Q40.15 59.65 37.75 57.1 L39.9 57.35 Q41.35 57.5 40.2 55.4 39.05 53.3 36.2 54.2 L35.9 54.4 33.85 55.35 Q34.65 51.85 37.8 51.65 L39.75 51.65 Q40.2 51.55 39.25 50.6 37.65 48.85 35.2 50.1 32.75 51.25 32.15 51.7 31.5 52.05 33.05 50.0 34.5 49.35 35.95 48.15 37.2 47.05 39.0 47.25 39.6 47.4 40.15 47.85 L40.15 47.9 40.25 47.85 M50.45 56.9 L49.5 57.4 48.85 57.55 M47.35 61.75 L46.8 61.5" fill="none" stroke="#1a120b" stroke-linecap="round" stroke-linejoin="round" stroke-opacity="0.5019608" stroke-width="0.05"/>
    </g>
  </defs>
</svg>
