<?xml version="1.0" encoding="UTF-8" standalone="no"?>
<svg xmlns:xlink="http://www.w3.org/1999/xlink" height="440.0px" width="440.0px" xmlns="http://www.w3.org/2000/svg">
  <g transform="matrix(10.0, 0.0, 0.0, 10.0, 0.0, 0.0)">
    <use height="44.0" transform="matrix(0.9091, 0.0, 0.0, 0.9091, 2.0, 2.0)" width="44.0" xlink:href="#sprite0"/>
  </g>
  <defs>
    <g id="sprite0" transform="matrix(1.0, 0.0, 0.0, 1.0, 0.0, 0.0)">
      <use height="44.0" transform="matrix(1.0, 0.0, 0.0, 1.0, 0.0, 0.0)" width="44.0" xlink:href="#shape0"/>
      <use height="40.5" transform="matrix(0.9383, 0.0, 0.0, 0.9383, 12.2, 3.0)" width="20.9" xlink:href="#sprite1"/>
    </g>
    <g id="shape0" transform="matrix(1.0, 0.0, 0.0, 1.0, 0.0, 0.0)">
      <path d="M44.0 44.0 L0.0 44.0 0.0 0.0 44.0 0.0 44.0 44.0" fill="#43adca" fill-opacity="0.0" fill-rule="evenodd" stroke="none"/>
    </g>
    <g id="sprite1" transform="matrix(1.0, 0.0, 0.0, 1.0, 0.0, 0.0)">
      <use height="21.4" transform="matrix(1.0, 0.0, 0.0, 1.0, 3.6, 19.1)" width="17.3" xlink:href="#sprite2"/>
      <use height="31.2" transform="matrix(1.0, 0.0, 0.0, 1.0, 0.0, 0.0)" width="15.5" xlink:href="#sprite3"/>
    </g>
    <g id="sprite2" transform="matrix(1.0, 0.0, 0.0, 1.0, 5.85, 1.75)">
      <use height="21.4" transform="matrix(1.0, 0.0, 0.0, 1.0, -5.85, -1.75)" width="17.3" xlink:href="#shape1"/>
    </g>
    <g id="shape1" transform="matrix(1.0, 0.0, 0.0, 1.0, 5.85, 1.75)">
      <path d="M11.35 14.35 L11.35 14.3 11.45 14.35 11.35 14.35" fill="#555ba0" fill-rule="evenodd" stroke="none"/>
      <path d="M2.6 16.55 L2.65 16.55 2.6 16.6 2.6 16.55" fill="#596a61" fill-rule="evenodd" stroke="none"/>
      <path d="M6.95 14.8 L6.25 14.95 6.2 14.95 6.95 14.8" fill="#856e35" fill-rule="evenodd" stroke="none"/>
      <path d="M4.1 6.55 L4.1 6.5 4.1 6.3 4.15 6.5 4.15 6.55 4.1 6.55 M9.65 14.3 L9.7 14.35 9.65 14.35 9.65 14.3" fill="#4a5f18" fill-rule="evenodd" stroke="none"/>
      <path d="M3.65 17.4 L3.65 17.35 3.65 17.4 M4.95 13.65 L4.95 13.6 5.1 13.35 4.95 13.65 M4.7 0.65 L4.65 0.65 4.65 0.6 4.7 0.65" fill="#202020" fill-rule="evenodd" stroke="none"/>
      <path d="M6.2 14.95 L6.15 14.95 6.1 14.85 5.95 14.65 5.9 14.55 6.1 14.85 6.2 14.95" fill="#1a1a1a" fill-rule="evenodd" stroke="none"/>
      <path d="M3.5 -0.55 L3.45 -0.5 3.45 -0.55 3.5 -0.55" fill="#9b9988" fill-rule="evenodd" stroke="none"/>
      <path d="M5.05 13.7 L4.95 13.65 5.1 13.35 5.05 13.7" fill="#666637" fill-rule="evenodd" stroke="none"/>
      <path d="M-1.3 2.3 L-1.7 0.5 -2.25 -0.85 -2.45 -1.25 -1.8 -1.5 -1.75 -1.55 -1.65 -1.55 -1.1 -1.65 -0.75 -1.7 -0.1 -1.75 0.05 -1.75 0.7 -1.7 0.8 -1.7 0.85 -1.7 1.1 -1.6 1.1 -1.55 1.05 -1.5 1.15 -0.75 1.15 -0.55 1.3 0.95 1.5 2.55 1.55 2.8 1.6 2.8 1.6 2.55 1.4 0.95 1.2 -0.55 1.2 -0.75 1.1 -1.5 1.1 -1.55 1.15 -1.6 1.3 -1.6 1.8 -1.45 1.95 -1.4 2.45 -1.2 2.7 -1.05 3.0 -0.85 3.05 -0.55 3.4 0.85 3.2 0.95 3.4 0.95 3.6 1.65 3.4 2.3 3.3 2.55 3.25 2.7 3.2 2.8 3.75 2.8 3.9 2.8 3.85 2.55 3.65 1.4 3.65 1.25 3.6 0.95 3.55 0.85 3.55 0.8 3.45 -0.5 3.5 -0.55 3.95 -0.15 3.95 -0.05 4.05 -0.1 4.3 0.15 4.65 0.6 4.65 0.65 4.7 0.65 4.9 0.95 5.5 2.3 5.55 2.55 5.6 2.8 5.7 3.3 5.7 3.35 5.8 3.65 6.0 4.5 Q7.25 9.85 9.8 13.05 L10.05 13.35 11.35 14.3 11.35 14.35 9.7 14.35 9.65 14.3 8.35 13.35 8.3 13.3 8.25 13.25 7.9 12.95 7.3 12.3 5.75 10.3 4.7 8.15 4.4 7.4 4.35 7.2 4.25 6.9 4.15 6.55 4.15 6.5 4.1 6.3 4.1 6.5 4.1 6.55 4.1 7.1 4.1 7.4 4.1 7.75 4.1 8.1 Q4.3 11.1 5.45 13.6 L5.45 13.65 5.9 14.55 5.1 13.35 4.95 13.6 4.95 13.65 5.05 13.7 4.85 14.35 4.7 13.85 3.8 10.1 3.75 12.55 Q3.75 13.75 4.3 15.35 4.75 16.6 5.3 17.3 L4.9 17.5 4.55 17.6 4.25 17.4 3.5 17.0 3.45 17.0 3.65 17.35 3.65 17.4 2.75 16.9 2.6 16.6 2.65 16.55 2.6 16.55 2.55 16.5 Q1.25 13.75 0.3 9.45 L0.15 8.75 0.05 8.05 -0.45 5.1 -0.6 3.95 -0.65 3.65 -0.75 2.8 -0.75 2.55 -0.95 0.95 -0.95 0.9 -0.95 0.7 -1.0 0.9 -1.0 0.95 -1.05 1.1 -1.3 2.3 M-1.95 11.55 L-2.45 10.75 -2.75 11.9 -3.05 15.3 -2.9 17.15 -2.6 18.25 -3.3 17.5 -3.4 17.35 -3.5 17.25 -4.15 16.25 Q-5.35 14.3 -5.8 12.05 L-5.8 10.75 -5.85 5.0 -5.85 4.0 -5.85 3.85 -5.85 3.65 -5.8 2.8 -5.8 2.65 -5.8 2.55 -5.75 2.5 -5.55 1.75 -5.3 1.25 -5.2 1.1 -5.2 1.55 Q-5.2 4.55 -4.2 5.4 L-3.4 5.65 -2.85 5.55 -2.45 5.25 -2.3 5.25 Q-1.9 5.25 -1.6 4.65 L-1.9 7.75 -1.95 8.35 -1.95 9.2 -1.95 11.55 M-4.25 10.0 L-4.65 9.55 -4.7 9.6 -5.05 10.85 -5.15 11.7 -5.1 12.7 -4.15 13.5 -3.6 10.95 -3.95 10.25 -4.25 10.0 M-2.75 11.9 Q-3.05 9.05 -2.85 5.55 -3.05 9.05 -2.75 11.9" fill="#871c01" fill-rule="evenodd" stroke="none"/>
      <path d="M-1.3 2.3 L-1.05 1.1 Q-1.55 7.65 -0.35 15.25 L-0.6 14.5 Q-1.35 11.95 -1.3 10.7 L-1.9 11.65 -1.95 11.55 -1.95 9.2 -1.95 8.35 -1.9 7.75 -1.6 4.65 -1.5 4.35 -1.25 3.1 -1.3 2.3 M4.1 8.1 L4.1 7.75 4.1 7.4 4.1 7.1 4.1 6.55 4.15 6.55 4.25 6.9 4.35 7.2 4.4 7.4 4.7 8.15 5.75 10.3 7.3 12.3 7.9 12.95 8.25 13.25 8.3 13.3 8.35 13.35 9.65 14.3 9.65 14.35 9.15 14.4 7.1 13.15 7.1 13.2 7.85 14.6 7.25 14.75 Q5.9 13.55 5.0 10.4 L4.1 8.1 M-2.6 18.25 L-2.45 18.45 -2.05 18.85 -1.3 19.5 -1.25 19.55 -1.3 19.6 Q-3.75 19.85 -5.2 18.7 -5.7 15.3 -5.8 12.05 -5.35 14.3 -4.15 16.25 L-3.5 17.25 -3.4 17.35 -3.3 17.5 -2.6 18.25" fill="#6f1903" fill-rule="evenodd" stroke="none"/>
      <path d="M-1.05 1.1 L-1.0 0.95 -0.95 0.95 -0.75 2.55 -0.75 2.8 -0.65 3.65 -0.6 3.95 -0.45 5.1 0.05 8.05 0.15 8.75 0.3 9.45 Q1.25 13.75 2.55 16.5 L2.6 16.55 2.6 16.6 2.75 16.9 1.75 16.35 1.95 17.8 1.65 17.8 1.0 17.85 Q0.25 17.05 -0.35 15.25 -1.55 7.65 -1.05 1.1 M5.9 14.55 L5.45 13.65 5.45 13.6 Q4.3 11.1 4.1 8.1 L5.0 10.4 Q5.9 13.55 7.25 14.75 L7.2 14.75 6.95 14.8 6.2 14.95 6.1 14.85 5.9 14.55" fill="#631805" fill-rule="evenodd" stroke="none"/>
      <path d="M3.65 17.35 L3.45 17.0 3.5 17.0 M4.55 17.6 L4.9 17.5 5.3 17.3 Q4.75 16.6 4.3 15.35 3.75 13.75 3.75 12.55 L3.8 10.1 4.7 13.85 4.85 14.35 5.05 13.7 5.1 13.35 5.9 14.55 6.1 14.85 6.2 14.95 M4.95 13.65 L4.95 13.6 5.1 13.35 4.95 13.65 M9.7 14.35 L11.35 14.35 M11.35 14.3 L10.05 13.35 9.8 13.05 Q7.25 9.85 6.0 4.5 L5.8 3.65 5.7 3.35 5.7 3.3 M3.45 -0.5 L3.55 0.8 3.55 0.85 3.75 2.8 M3.45 -0.55 L3.45 -0.5 M9.65 14.35 L9.7 14.35 M9.65 14.35 L9.15 14.4 M7.85 14.6 L7.25 14.75 7.2 14.75 6.95 14.8 6.25 14.95 6.2 14.95 M2.75 16.9 L1.75 16.35 1.95 17.8 1.65 17.8 1.0 17.85 Q0.25 17.05 -0.35 15.25 L-0.6 14.5 Q-1.35 11.95 -1.3 10.7 L-1.9 11.65 -1.95 11.55 -2.45 10.75 -2.75 11.9 M-2.6 18.25 L-2.45 18.45 -2.05 18.85 -1.3 19.5 -1.25 19.55 -1.3 19.6 Q-3.75 19.85 -5.2 18.7 -5.7 15.3 -5.8 12.05 L-5.8 10.75 -5.85 5.0 -5.85 4.0 -5.85 3.85 -5.85 3.65 -5.8 2.8 -5.8 2.65 -5.8 2.55 -5.75 2.5 M3.65 17.4 L3.65 17.35 M-2.85 5.55 Q-3.05 9.05 -2.75 11.9 M-2.6 18.25 L-3.3 17.5 -3.4 17.35 M-0.35 15.25 Q-1.55 7.65 -1.05 1.1" fill="none" stroke="#000000" stroke-linecap="round" stroke-linejoin="round" stroke-opacity="0.3019608" stroke-width="0.05"/>
    </g>
    <g id="sprite3" transform="matrix(1.0, 0.0, 0.0, 1.0, 3.15, 2.25)">
      <use height="31.2" transform="matrix(1.0, 0.0, 0.0, 1.0, -3.15, -2.25)" width="15.5" xlink:href="#shape2"/>
    </g>
    <g id="shape2" transform="matrix(1.0, 0.0, 0.0, 1.0, 3.15, 2.25)">
      <path d="M2.45 -1.6 L2.5 -1.6 2.9 -0.95 3.0 -0.8 2.5 -1.5 2.45 -1.6" fill="#c84524" fill-rule="evenodd" stroke="none"/>
      <path d="M12.3 22.85 L12.35 22.85 12.3 22.85" fill="#d9d2c4" fill-rule="evenodd" stroke="none"/>
      <path d="M4.0 28.25 L4.05 28.2 4.05 28.25 4.0 28.25" fill="#161616" fill-rule="evenodd" stroke="none"/>
      <path d="M2.5 -1.6 L3.3 -0.9 3.3 -0.85 3.85 -0.25 4.0 -0.05 4.65 1.2 4.45 2.25 4.4 2.25 4.1 2.55 3.9 2.75 3.9 2.65 3.9 2.55 Q4.1 1.3 3.2 -0.35 L3.05 -0.65 3.0 -0.75 3.0 -0.8 2.9 -0.95 2.5 -1.6" fill="#000000" fill-rule="evenodd" stroke="none"/>
      <path d="M3.9 2.65 L3.85 2.65 3.9 2.55 3.9 2.65" fill="#666637" fill-rule="evenodd" stroke="none"/>
      <path d="M2.45 -1.6 L2.2 -2.05 3.9 -0.9 5.1 -0.05 5.25 0.1 5.65 0.35 7.5 1.85 8.45 2.75 8.75 3.05 9.4 5.55 9.5 5.95 10.5 11.85 10.55 12.1 11.2 16.45 11.0 16.5 10.7 16.65 Q10.5 16.85 10.55 17.35 L10.35 17.65 10.15 18.0 10.45 18.4 10.95 18.4 11.05 18.8 Q11.3 19.75 11.85 20.15 L11.9 20.45 11.9 20.6 12.05 21.5 12.1 21.75 12.25 22.5 12.35 22.85 12.3 22.85 12.3 23.05 12.15 24.4 11.95 24.95 11.9 25.05 11.85 25.15 11.45 25.9 10.45 26.8 9.4 27.35 9.1 27.5 Q8.25 27.95 8.05 28.15 L7.6 28.35 6.85 28.65 6.7 27.95 6.6 27.25 6.1 24.3 6.05 24.25 5.95 23.15 5.9 22.85 5.8 21.75 5.6 19.9 5.4 20.8 5.2 21.75 5.15 22.1 5.05 22.85 5.0 23.35 4.8 25.1 4.8 25.2 4.75 25.55 4.7 26.15 4.65 26.85 4.65 26.95 4.6 27.55 4.6 28.4 4.2 28.25 4.05 28.2 4.0 28.25 2.75 27.35 2.35 27.0 2.3 26.95 2.05 26.75 1.65 26.25 Q0.95 25.3 0.7 24.2 L0.7 22.85 0.75 21.85 0.75 21.75 0.75 21.45 0.7 13.65 Q0.45 9.15 -1.05 3.55 -4.2 -1.1 -2.4 0.3 L-0.15 2.35 0.0 2.4 2.4 3.15 2.8 3.25 3.3 2.8 3.85 2.65 3.9 2.65 3.9 2.75 4.1 2.55 4.4 2.25 4.45 2.25 4.65 1.2 4.0 -0.05 3.85 -0.25 3.3 -0.85 3.3 -0.9 2.5 -1.6 2.45 -1.6" fill="#871c01" fill-rule="evenodd" stroke="none"/>
      <path d="M4.6 28.4 L4.6 27.55 4.65 26.95 4.65 26.85 4.7 26.15 4.75 25.55 4.8 25.2 4.8 25.1 5.0 23.35 5.05 22.85 5.15 22.1 5.2 21.75 5.4 20.8 5.6 28.6 4.6 28.4" fill="#6f1903" fill-rule="evenodd" stroke="none"/>
      <path d="M5.4 20.8 L5.6 19.9 5.8 21.75 5.9 22.85 5.95 23.15 6.05 24.25 6.1 24.3 6.6 27.25 6.7 27.95 6.85 28.65 6.45 28.65 6.3 28.65 5.6 28.6 5.4 20.8" fill="#631805" fill-rule="evenodd" stroke="none"/>
      <path d="M7.5 1.85 L5.65 0.35 5.25 0.1 5.1 -0.05 3.9 -0.9 2.2 -2.05 2.45 -1.6 2.5 -1.5 M4.65 1.2 L4.45 2.25 M3.9 2.75 L3.9 2.65 3.9 2.55 3.85 2.65 3.3 2.8 2.8 3.25 2.4 3.15 0.0 2.4 -0.15 2.35 -2.4 0.3 Q-4.2 -1.1 -1.05 3.55 0.45 9.15 0.7 13.65 L0.75 21.45 0.75 21.75 0.75 21.85 0.7 22.85 M12.35 22.85 L12.25 22.5 12.1 21.75 12.05 21.5 11.9 20.6 11.9 20.45 11.85 20.15 Q11.3 19.75 11.05 18.8 M10.7 16.65 L11.0 16.5 11.2 16.45 10.55 12.1 10.5 11.85 9.5 5.95 9.4 5.55 8.75 3.05 8.45 2.75 M3.0 -0.8 L2.9 -0.95 2.5 -1.6 M3.9 2.55 Q4.1 1.3 3.2 -0.35 L3.05 -0.65 3.0 -0.75 3.0 -0.8" fill="none" stroke="#000000" stroke-linecap="round" stroke-linejoin="round" stroke-opacity="0.3019608" stroke-width="0.05"/>
      <path d="M6.4 7.65 L6.95 7.3 7.0 7.35 Q7.3 7.75 6.55 9.65 L5.45 12.05 4.85 13.05 4.65 13.45 4.5 14.85 Q4.15 16.4 4.5 17.6 4.7 18.85 5.85 19.05 L7.35 19.25 Q7.7 18.9 8.4 18.45 L9.2 17.15 9.55 16.25 10.15 14.45 10.0 14.6 Q9.85 14.7 9.6 14.45 L9.4 13.95 9.45 13.9 Q9.45 13.75 9.65 13.75 L10.05 13.55 10.1 13.55 10.1 13.0 Q9.8 12.0 8.95 11.95 8.45 11.9 7.85 12.45 7.65 12.4 7.4 12.65 6.75 13.4 6.35 14.25 L6.4 14.3 Q6.0 15.45 6.4 16.2 6.55 16.75 7.05 16.8 L7.4 16.8 7.75 16.75 7.55 16.4 Q7.55 16.2 7.85 15.9 L8.05 15.75 8.25 15.7 8.5 15.95 8.35 16.45 7.95 16.85 Q7.9 16.9 7.75 16.75 L7.7 16.8 7.4 16.9 7.05 17.0 Q6.4 16.9 6.3 16.15 6.0 15.25 6.15 14.25 L6.2 14.2 6.3 14.0 Q6.7 13.0 7.25 12.3 L7.2 12.1 7.05 11.5 Q7.0 11.05 7.35 11.3 L7.85 11.4 8.0 11.8 8.25 11.7 9.0 11.6 Q9.8 11.75 10.25 12.8 L10.35 13.55 10.35 13.65 10.35 13.85 10.35 14.05 10.05 15.85 Q9.75 17.1 8.95 18.15 L8.35 18.85 7.7 19.5 Q6.65 20.1 5.7 19.95 4.95 19.85 4.35 19.0 L4.35 19.2 4.0 19.55 3.55 19.45 Q3.3 19.5 3.5 19.1 L3.75 18.7 4.15 18.45 3.9 18.1 Q3.35 16.0 3.85 14.1 L4.2 13.1 4.9 12.05 5.75 10.65 6.25 8.65 6.4 7.65" fill="#c5ba5c" fill-rule="evenodd" stroke="none"/>
      <path d="M-0.15 4.3 Q3.55 11.0 3.2 27.7 L3.2 28.15 3.15 28.4" fill="none" stroke="url(#gradient0)" stroke-linecap="round" stroke-linejoin="round" stroke-width="0.25"/>
      <path d="M3.15 28.4 L3.15 28.85" fill="none" stroke="url(#gradient1)" stroke-linecap="round" stroke-linejoin="round" stroke-width="0.25"/>
      <path d="M8.65 6.75 Q9.15 8.55 9.0 10.25" fill="none" stroke="url(#gradient2)" stroke-linecap="round" stroke-linejoin="round" stroke-width="0.25"/>
      <path d="M1.3 5.5 L6.45 15.3 6.9 15.95" fill="none" stroke="url(#gradient3)" stroke-linecap="round" stroke-linejoin="round" stroke-width="0.25"/>
      <path d="M0.8 4.3 Q6.15 7.65 6.45 4.55 L6.45 2.6 Q8.15 4.25 8.3 10.55 L8.3 10.7 Q7.8 15.3 6.65 15.05 L6.55 15.05 6.5 14.95 6.35 14.75 6.05 14.3 0.9 4.5 0.8 4.3" fill="#111111" fill-opacity="0.3019608" fill-rule="evenodd" stroke="none"/>
      <path d="M8.85 9.0 L8.95 8.55 9.0 18.35 Q7.9 26.05 7.35 23.75 6.85 21.5 5.25 17.2 L1.65 7.45 6.8 16.75 Q7.65 18.05 8.15 16.25 8.75 13.1 8.85 9.0" fill="#111111" fill-opacity="0.2" fill-rule="evenodd" stroke="none"/>
      <path d="M1.3 -1.9 L3.1 -0.85 3.0 -0.8 3.1 -0.85 3.25 -0.85 3.3 -0.85 3.75 -0.45 4.1 -0.15 4.75 1.0 4.8 1.45 4.7 1.9 3.1 0.35 3.0 -0.8 2.15 -0.8 1.3 -1.9 M10.0 5.55 L10.0 5.7 9.55 5.9 7.75 6.65 6.55 5.65 3.9 3.3 3.7 3.15 6.3 4.35 6.1 3.7 6.4 4.1 8.0 5.55 10.0 5.55 M0.05 8.0 L-0.05 7.9 -0.35 7.7 -0.25 6.9 -1.05 4.05 -2.35 1.95 -2.75 1.65 -3.15 0.7 -2.35 1.05 -2.3 1.05 -0.95 2.55 -0.65 3.75 -0.5 4.65 0.5 6.85 0.9 7.1 1.7 7.6 3.55 7.6 3.55 7.7 1.55 8.25 0.3 8.15 0.05 8.0 M-2.35 1.95 L-2.35 1.05 -2.35 1.95" fill="#62431b" fill-rule="evenodd" stroke="none"/>
      <path d="M10.0 4.35 L10.0 4.75 10.0 4.95 6.4 4.1 6.1 3.7 5.7 2.6 5.7 2.55 6.3 1.55 6.4 1.55 7.05 1.7 6.4 1.55 6.3 1.55 5.7 2.55 5.7 2.6 6.1 3.7 6.3 4.35 3.7 3.15 3.9 3.3 2.3 3.55 2.1 3.4 0.65 3.55 0.7 3.55 2.35 4.0 Q4.2 5.55 3.6 6.1 L4.45 6.85 4.5 7.1 3.7 7.6 3.55 7.6 1.7 7.6 0.9 7.1 2.0 6.45 1.25 6.45 Q0.25 5.45 0.1 4.6 L0.1 3.85 0.25 3.75 0.65 3.55 0.25 3.75 -0.65 3.75 -0.95 2.55 -2.3 1.05 -2.35 1.05 -2.5 0.85 -1.6 0.45 -1.45 0.35 0.6 2.0 3.8 2.75 4.7 1.9 4.8 1.45 4.75 1.0 4.1 -0.15 Q5.9 -0.2 7.4 1.8 L7.5 1.85 8.15 2.4 8.45 2.7 8.45 2.75 8.5 2.8 8.75 3.05 10.0 4.35 M7.25 1.75 L7.4 1.8 7.25 1.75 7.05 1.7 6.35 2.75 6.95 3.4 7.55 2.4 7.25 1.75 M2.55 5.45 L2.55 6.45 2.0 6.45 2.55 6.45 2.55 5.45" fill="#927853" fill-rule="evenodd" stroke="none"/>
      <path d="M3.4 -0.9 L4.8 -0.95 5.55 -0.95 8.75 1.55 9.95 3.35 10.0 4.35 8.75 3.05 8.5 2.8 8.45 2.75 8.45 2.7 8.15 2.4 7.5 1.85 7.4 1.8 Q5.9 -0.2 4.1 -0.15 L3.75 -0.45 3.3 -0.85 3.4 -0.9 M7.25 1.75 L7.55 2.4 6.95 3.4 6.35 2.75 7.05 1.7 7.25 1.75 M4.45 6.85 L3.6 6.1 Q4.2 5.55 2.35 4.0 L0.7 3.55 0.65 3.55 2.1 3.4 2.3 3.55 4.0 4.85 4.35 6.3 4.45 6.85" fill="#bda784" fill-rule="evenodd" stroke="none"/>
      <path d="M1.3 -1.9 L1.3 -2.05 Q3.35 -2.8 4.8 -0.95 L3.4 -0.9 3.25 -0.9 3.2 -0.9 3.1 -0.85 1.3 -1.9 M10.0 4.95 L10.0 5.55 8.0 5.55 6.4 4.1 10.0 4.95 M-3.15 0.7 L-2.8 -0.3 -2.55 -0.3 -1.6 0.45 -2.5 0.85 -2.35 1.05 -3.15 0.7 M3.9 3.3 L6.55 5.65 Q4.75 5.35 4.35 6.3 L4.0 4.85 2.3 3.55 3.9 3.3 M0.25 3.75 L0.1 3.85 0.1 4.6 Q0.25 5.45 1.25 6.45 L2.0 6.45 0.9 7.1 0.5 6.85 -0.5 4.65 -0.65 3.75 0.25 3.75" fill="#795d36" fill-rule="evenodd" stroke="none"/>
      <path d="M9.55 5.9 L9.55 6.7 7.7 7.5 5.9 6.65 3.6 8.75 0.05 8.75 0.05 8.0 0.3 8.15 1.55 8.25 3.55 7.7 3.7 7.6 4.5 7.1 4.45 6.85 4.35 6.3 Q4.75 5.35 6.55 5.65 L7.75 6.65 9.55 5.9" fill="#000000" fill-opacity="0.3019608" fill-rule="evenodd" stroke="none"/>
      <path d="M4.8 -0.95 Q3.35 -2.8 1.3 -2.05 L1.3 -1.9 M3.1 -0.85 L3.2 -0.9 3.25 -0.9 3.4 -0.9 4.8 -0.95 5.55 -0.95 8.75 1.55 9.95 3.35 10.0 4.35 M10.0 4.75 L10.0 4.95 10.0 5.55 10.0 5.7 9.55 5.9 M-0.05 7.9 L-0.35 7.7 -0.25 6.9 -1.05 4.05 -2.35 1.95 -2.75 1.65 -3.15 0.7 -2.8 -0.3 -2.55 -0.3 -1.6 0.45 -1.45 0.35 0.6 2.0 3.8 2.75 4.7 1.9 3.1 0.35 3.0 -0.8 2.15 -0.8 1.3 -1.9 M3.3 -0.85 L3.25 -0.85 3.3 -0.85 3.4 -0.9 M3.25 -0.85 L3.25 -0.9 M3.0 -0.8 L3.1 -0.85 3.25 -0.85 M7.4 1.8 L7.5 1.85 8.15 2.4 8.45 2.7 8.45 2.75 8.5 2.8 8.75 3.05 M7.05 1.7 L6.4 1.55 6.3 1.55 5.7 2.55 5.7 2.6 6.1 3.7 6.3 4.35 3.7 3.15 3.9 3.3 6.55 5.65 7.75 6.65 9.55 5.9 M7.4 1.8 L7.25 1.75 M7.05 1.7 L7.25 1.75 M4.7 1.9 L4.8 1.45 M0.65 3.55 L0.25 3.75 0.1 3.85 0.1 4.6 Q0.25 5.45 1.25 6.45 L2.0 6.45 2.55 6.45 2.55 5.45 M0.65 3.55 L2.1 3.4 2.3 3.55 M4.35 6.3 L4.0 4.85 2.3 3.55 M3.7 7.6 L4.5 7.1 4.45 6.85 4.35 6.3 Q4.75 5.35 6.55 5.65 M3.55 7.7 L3.7 7.6 3.55 7.6 M-2.35 1.05 L-2.35 1.95 M3.55 7.7 L1.55 8.25 0.3 8.15 0.05 8.0 M-1.6 0.45 L-2.5 0.85 -2.35 1.05 -2.3 1.05 M-3.15 0.7 L-2.35 1.05" fill="none" stroke="#000000" stroke-linecap="round" stroke-linejoin="round" stroke-opacity="0.2" stroke-width="0.05"/>
      <path d="M3.75 -0.45 L4.1 -0.15" fill="none" stroke="#809311" stroke-linecap="round" stroke-linejoin="round" stroke-width="0.05"/>
      <path d="M6.8 10.3 L6.8 9.9 Q6.35 10.3 5.95 10.3 L5.9 10.35 5.5 10.45 5.4 10.45 6.8 10.3" fill="#8c8c26" fill-rule="evenodd" stroke="none"/>
      <path d="M7.35 9.25 L7.3 9.35 6.8 9.9 7.3 9.35 7.35 9.25 7.25 9.4 6.8 9.8 6.8 9.9 6.8 10.3 Q7.45 9.8 7.9 8.45 L7.35 9.25" fill="#696316" fill-rule="evenodd" stroke="none"/>
      <path d="M5.95 10.3 Q6.35 10.3 6.8 9.9 L6.8 9.8 5.95 10.3" fill="#c5c835" fill-rule="evenodd" stroke="none"/>
      <path d="M7.3 7.9 Q7.3 7.55 7.75 6.95 L7.6 5.6 7.4 5.3 7.35 5.3 Q6.8 5.2 6.65 4.95 6.25 5.05 5.9 5.45 L6.55 5.75 Q7.05 6.25 7.15 7.2 L7.2 8.0 7.3 7.9" fill="url(#gradient4)" fill-rule="evenodd" stroke="none"/>
      <path d="M5.9 5.45 L5.7 5.7 5.1 6.65 Q5.15 6.6 5.2 6.7 L5.45 6.8 5.5 6.95 5.55 7.25 5.45 6.95 5.35 6.8 5.2 6.75 5.1 6.65 5.0 7.1 4.9 7.35 4.9 7.45 5.0 7.45 5.0 7.25 5.05 7.15 5.15 7.0 5.1 7.15 5.0 7.25 5.05 7.4 5.1 7.55 5.1 8.55 Q5.4 9.0 5.8 9.1 6.4 9.05 6.9 8.4 L7.2 8.0 7.15 7.2 Q7.05 6.25 6.55 5.75 L5.9 5.45 M5.1 7.55 L5.2 7.65 5.1 7.65 5.1 7.55 M5.4 7.5 L5.4 7.35 5.45 7.45 5.5 7.4 5.5 7.45 5.45 7.55 5.45 7.5 5.4 7.5 M5.4 7.55 L5.2 7.65 5.35 7.6 5.4 7.55 5.45 7.55 5.4 7.55 M5.35 7.15 L5.25 7.25 5.25 7.15 5.3 7.1 5.35 7.15 M5.5 7.45 L5.55 7.25 5.5 7.45" fill="#ff9d00" fill-rule="evenodd" stroke="none"/>
      <path d="M7.35 9.25 L7.9 8.45 7.95 8.35 8.5 7.05 Q8.8 5.65 8.35 4.7 7.9 3.75 7.0 3.75 6.15 3.8 5.25 4.75 4.4 5.8 4.0 7.2 3.7 8.55 4.1 9.45 4.6 10.35 5.4 10.45 L5.5 10.45 5.9 10.35 5.95 10.3 6.8 9.8 7.25 9.4 7.35 9.25 M7.75 6.95 L7.75 6.85 8.05 6.25 8.1 6.2 8.1 7.05 7.85 7.95 7.55 8.45 7.3 8.05 7.3 7.9 7.2 8.0 6.9 8.4 Q6.4 9.05 5.8 9.1 5.4 9.0 5.1 8.55 L5.05 8.8 5.05 9.7 5.0 9.75 4.7 9.2 4.55 8.65 4.4 8.7 4.3 8.4 4.3 8.05 4.4 7.7 4.55 7.25 4.7 7.1 Q4.7 6.9 4.85 6.8 L4.95 6.7 4.85 6.75 4.85 6.65 4.95 6.7 5.0 6.65 5.1 6.65 5.7 5.7 5.9 5.45 Q6.25 5.05 6.65 4.95 L6.6 4.85 6.7 4.4 Q6.9 4.2 7.2 4.4 L7.7 4.8 7.95 5.35 7.9 5.35 7.4 5.3 7.6 5.6 7.75 6.95 M4.75 7.2 L4.9 7.35 5.0 7.1 5.1 6.65 5.0 6.7 4.95 6.85 4.95 6.75 4.85 6.8 4.75 7.2" fill="#f49302" fill-opacity="0.27058825" fill-rule="evenodd" stroke="none"/>
      <path d="M7.3 7.9 L7.3 8.05 7.55 8.45 7.85 7.95 8.1 7.05 8.1 6.2 8.05 6.25 7.75 6.85 7.75 6.95 Q7.3 7.55 7.3 7.9 M4.7 7.1 L4.55 7.25 4.4 7.7 4.5 7.55 4.7 7.6 4.9 7.85 4.85 8.3 4.65 8.6 4.55 8.65 4.7 9.2 5.0 9.75 5.05 9.7 5.05 8.8 5.1 8.55 5.1 7.55 5.0 7.45 4.9 7.45 4.9 7.35 4.75 7.2 4.7 7.1" fill="#fefe45" fill-opacity="0.47058824" fill-rule="evenodd" stroke="none"/>
      <path d="M7.4 5.3 L7.9 5.35 7.95 5.35 7.7 4.8 7.2 4.4 Q6.9 4.2 6.7 4.4 L6.6 4.85 6.65 4.95 Q6.8 5.2 7.35 5.3 L7.4 5.3" fill="url(#gradient5)" fill-rule="evenodd" stroke="none"/>
      <path d="M5.1 6.65 L5.0 6.65 4.95 6.7 4.85 6.65 4.85 6.75 4.95 6.7 4.85 6.8 Q4.7 6.9 4.7 7.1 L4.75 7.2 4.85 6.8 4.95 6.75 4.95 6.7 4.95 6.75 4.95 6.85 5.0 6.7 5.1 6.65 5.2 6.75 5.35 6.8 5.45 6.95 5.55 7.25 5.5 6.95 5.45 6.8 5.2 6.7 Q5.15 6.6 5.1 6.65 M5.0 7.45 L5.1 7.55 5.1 7.65 5.2 7.65 5.1 7.55 5.05 7.4 5.0 7.25 5.1 7.15 5.15 7.0 5.05 7.15 5.0 7.25 5.0 7.45 5.05 7.4 5.0 7.45 M5.4 7.55 L5.35 7.6 5.2 7.65 5.4 7.55 M5.4 7.5 L5.45 7.5 5.45 7.55 5.5 7.45 5.5 7.4 5.45 7.45 5.4 7.35 5.4 7.5 M5.0 6.65 L5.0 6.7 5.0 6.65 M5.35 7.15 L5.3 7.1 5.25 7.15 5.25 7.25 5.35 7.15" fill="#4c3218" fill-rule="evenodd" stroke="none"/>
      <path d="M4.4 7.7 L4.3 8.05 4.3 8.4 4.4 8.7 4.55 8.65 4.65 8.6 4.85 8.3 4.9 7.85 4.7 7.6 4.5 7.55 4.4 7.7" fill="#ffffdd" fill-rule="evenodd" stroke="none"/>
      <path d="M6.8 9.9 L7.3 9.35 7.35 9.25 M7.9 8.45 Q7.45 9.8 6.8 10.3 M6.8 9.9 Q6.35 10.3 5.95 10.3 M5.4 10.45 L6.8 10.3 M5.9 10.35 L5.95 10.3" fill="none" stroke="#000000" stroke-linecap="round" stroke-linejoin="round" stroke-opacity="0.15294118" stroke-width="0.05"/>
      <path d="M5.1 6.65 L5.0 6.65 4.95 6.7 4.85 6.65 4.85 6.75 4.95 6.7 4.85 6.8 Q4.7 6.9 4.7 7.1 M5.1 7.55 L5.2 7.65 5.1 7.65 5.1 7.55 5.05 7.4 5.0 7.25 5.1 7.15 M5.15 7.0 L5.05 7.15 5.0 7.25 5.0 7.45 M5.4 7.5 L5.4 7.35 5.45 7.45 5.5 7.4 5.5 7.45 5.45 7.55 5.45 7.5 5.4 7.5 M5.4 7.55 L5.2 7.65 5.35 7.6 5.4 7.55 5.45 7.55 M5.1 6.65 Q5.15 6.6 5.2 6.7 L5.45 6.8 5.5 6.95 5.55 7.25 5.45 6.95 5.35 6.8 5.2 6.75 5.1 6.65 5.0 6.7 5.0 6.65 M5.35 7.15 L5.25 7.25 5.25 7.15 5.3 7.1 5.35 7.15 M5.05 7.4 L5.0 7.45 M4.95 6.75 L4.85 6.8 4.75 7.2 M4.95 6.75 L4.95 6.7 M5.0 6.7 L4.95 6.85 4.95 6.75 M5.55 7.25 L5.5 7.45" fill="none" stroke="#382510" stroke-linecap="round" stroke-linejoin="round" stroke-opacity="0.5019608" stroke-width="0.05"/>
    </g>
    <linearGradient gradientTransform="matrix(0.0055, 0.0124, -0.0143, 0.0063, 1.55, 17.05)" gradientUnits="userSpaceOnUse" id="gradient0" spreadMethod="pad" x1="-819.2" x2="819.2">
      <stop offset="0.0" stop-color="#000000" stop-opacity="0.0"/>
      <stop offset="0.23921568627450981" stop-color="#000000" stop-opacity="0.39215687"/>
      <stop offset="0.788235294117647" stop-color="#000000" stop-opacity="0.37254903"/>
      <stop offset="0.9019607843137255" stop-color="#000000" stop-opacity="0.0"/>
    </linearGradient>
    <linearGradient gradientTransform="matrix(0.0055, 0.0124, -0.0143, 0.0063, 1.5, 16.1)" gradientUnits="userSpaceOnUse" id="gradient1" spreadMethod="pad" x1="-819.2" x2="819.2">
      <stop offset="0.0" stop-color="#000000" stop-opacity="0.0"/>
      <stop offset="0.23921568627450981" stop-color="#000000" stop-opacity="0.39215687"/>
      <stop offset="0.788235294117647" stop-color="#000000" stop-opacity="0.37254903"/>
      <stop offset="0.9019607843137255" stop-color="#000000" stop-opacity="0.0"/>
    </linearGradient>
    <linearGradient gradientTransform="matrix(0.0014, -0.0087, 0.0098, 0.0016, 8.5, 10.3)" gradientUnits="userSpaceOnUse" id="gradient2" spreadMethod="pad" x1="-819.2" x2="819.2">
      <stop offset="0.0" stop-color="#000000" stop-opacity="0.0"/>
      <stop offset="0.23921568627450981" stop-color="#000000" stop-opacity="0.39215687"/>
      <stop offset="0.788235294117647" stop-color="#000000" stop-opacity="0.37254903"/>
      <stop offset="0.9019607843137255" stop-color="#000000" stop-opacity="0.0"/>
    </linearGradient>
    <linearGradient gradientTransform="matrix(0.0034, 0.0, 0.0, 0.0065, 3.95, 10.65)" gradientUnits="userSpaceOnUse" id="gradient3" spreadMethod="pad" x1="-819.2" x2="819.2">
      <stop offset="0.0" stop-color="#000000" stop-opacity="0.0"/>
      <stop offset="0.23921568627450981" stop-color="#000000" stop-opacity="0.39215687"/>
      <stop offset="0.788235294117647" stop-color="#000000" stop-opacity="0.37254903"/>
      <stop offset="0.9019607843137255" stop-color="#000000" stop-opacity="0.0"/>
    </linearGradient>
    <linearGradient gradientTransform="matrix(-4.0E-4, -0.0017, -0.0017, 0.0016, 6.65, 6.9)" gradientUnits="userSpaceOnUse" id="gradient4" spreadMethod="pad" x1="-819.2" x2="819.2">
      <stop offset="0.0" stop-color="#ec8900"/>
      <stop offset="1.0" stop-color="#ce6900"/>
    </linearGradient>
    <linearGradient gradientTransform="matrix(7.0E-4, 7.0E-4, 3.0E-4, -5.0E-4, 7.2, 5.1)" gradientUnits="userSpaceOnUse" id="gradient5" spreadMethod="pad" x1="-819.2" x2="819.2">
      <stop offset="0.0" stop-color="#ab4400"/>
      <stop offset="1.0" stop-color="#ab4400" stop-opacity="0.0"/>
    </linearGradient>
  </defs>
</svg>
