<?xml version="1.0" encoding="UTF-8" standalone="no"?>
<svg xmlns:xlink="http://www.w3.org/1999/xlink" height="440.0px" width="440.0px" xmlns="http://www.w3.org/2000/svg">
  <g transform="matrix(10.0, 0.0, 0.0, 10.0, 0.0, 0.0)">
    <use height="44.0" transform="matrix(0.9091, 0.0, 0.0, 0.9091, 2.0, 2.0)" width="44.0" xlink:href="#sprite0"/>
  </g>
  <defs>
    <g id="sprite0" transform="matrix(1.0, 0.0, 0.0, 1.0, 0.0, 0.0)">
      <use height="44.0" transform="matrix(1.0, 0.0, 0.0, 1.0, 0.0, 0.0)" width="44.0" xlink:href="#shape0"/>
      <use height="42.65" transform="matrix(0.891, 0.0, 0.0, 0.891, 11.7, 3.0)" width="23.1" xlink:href="#sprite1"/>
    </g>
    <g id="shape0" transform="matrix(1.0, 0.0, 0.0, 1.0, 0.0, 0.0)">
      <path d="M44.0 44.0 L0.0 44.0 0.0 0.0 44.0 0.0 44.0 44.0" fill="#43adca" fill-opacity="0.0" fill-rule="evenodd" stroke="none"/>
    </g>
    <g id="sprite1" transform="matrix(1.0, 0.0, 0.0, 1.0, 0.0, 0.0)">
      <use height="0.0" transform="matrix(1.0, 0.0, 0.0, 1.0, 8.4, 21.0)" width="0.0" xlink:href="#sprite2"/>
      <use height="42.65" transform="matrix(1.0, 0.0, 0.0, 1.0, 0.0, 0.0)" width="23.1" xlink:href="#sprite3"/>
    </g>
    <g id="sprite3" transform="matrix(1.0, 0.0, 0.0, 1.0, 2.1, 2.4)">
      <use height="42.65" transform="matrix(1.0, 0.0, 0.0, 1.0, -2.1, -2.4)" width="23.1" xlink:href="#shape1"/>
    </g>
    <g id="shape1" transform="matrix(1.0, 0.0, 0.0, 1.0, 2.1, 2.4)">
      <path d="M13.35 9.85 Q13.35 10.25 14.3 10.25 L14.6 10.05 Q14.6 9.8 13.95 9.65 13.3 9.55 13.35 9.85 M13.1 9.95 L13.15 9.95 Q13.25 9.6 13.75 9.6 L14.25 9.65 14.95 9.9 15.9 10.6 16.1 10.9 16.0 11.05 15.25 11.35 14.8 11.35 14.15 11.2 13.3 10.6 13.2 10.55 13.1 9.95 M9.6 2.2 Q9.05 1.6 9.1 2.2 L9.9 3.45 Q10.1 3.45 10.1 3.05 L9.6 2.2 M2.8 26.1 L2.3 22.85 Q2.05 20.35 2.2 16.45 3.0 8.15 -0.45 2.45 -2.55 0.2 -2.0 -0.4 0.3 0.85 1.2 2.15 4.2 3.4 5.35 2.35 6.2 1.45 3.6 -2.4 6.0 -1.15 8.95 1.25 L9.05 1.35 9.1 1.4 Q11.0 2.65 10.5 4.85 10.1 7.55 11.2 8.85 11.8 10.4 12.8 11.55 L14.1 12.8 14.4 13.1 15.65 13.9 15.9 14.0 Q17.75 16.05 17.7 17.4 L17.4 17.65 16.55 17.75 16.3 17.75 15.25 17.35 13.9 16.5 13.85 16.45 Q12.2 15.2 11.65 15.2 11.3 15.1 11.15 15.3 10.95 15.65 11.2 17.0 11.6 18.75 12.7 20.3 L13.25 21.0 13.3 21.0 15.25 22.6 15.4 22.75 16.95 23.35 17.55 23.75 17.6 23.8 Q18.55 24.7 18.9 26.15 18.25 26.75 17.5 26.75 L17.05 26.75 16.8 26.7 15.75 26.4 14.6 25.8 13.7 25.2 Q13.0 24.85 12.55 24.85 L12.2 24.9 Q11.75 25.0 11.4 25.5 11.0 25.95 10.95 26.45 L10.9 26.8 11.0 27.25 10.95 27.55 Q10.85 28.1 11.1 28.55 L11.4 28.95 12.9 29.9 13.05 29.9 13.7 29.9 15.3 30.0 16.4 30.1 Q17.2 30.25 17.85 30.5 L19.0 31.05 19.55 31.8 20.2 33.4 Q20.2 34.25 19.1 34.8 L15.9 35.35 13.35 35.05 12.15 34.65 12.1 34.65 8.85 32.95 8.35 32.65 7.1 31.75 6.8 31.4 Q6.1 30.85 5.3 29.7 L3.65 27.05 2.8 26.1 M7.55 0.7 L6.45 -0.45 Q5.4 -1.45 5.4 -0.85 7.1 0.95 7.35 0.95 L7.55 0.7 M8.4 11.15 L8.4 11.25 Q8.45 12.65 9.35 12.65 10.35 12.65 10.3 10.3 L10.05 8.95 9.5 8.05 Q9.2 7.85 9.15 8.05 L9.1 8.05 Q8.8 8.05 8.5 8.65 8.3 9.3 8.35 10.2 L8.4 11.15 M8.2 8.7 Q8.35 8.25 8.75 7.95 L9.0 7.7 Q9.0 7.05 8.35 7.85 7.6 8.55 7.6 9.2 L7.8 9.55 Q8.15 9.55 8.2 8.7 M9.85 22.5 L9.95 21.2 Q9.95 19.65 9.15 18.5 8.4 17.4 7.35 17.4 6.35 17.4 5.6 18.5 4.95 19.65 4.95 21.2 L5.05 21.8 Q5.1 22.85 5.6 23.6 L5.55 23.55 5.75 24.0 Q6.45 25.5 7.5 25.5 8.85 25.5 9.5 24.25 9.95 23.45 9.9 22.6 L9.9 22.35 9.85 22.5 M15.8 14.55 Q14.95 13.95 14.95 14.45 L16.45 15.85 16.7 15.65 Q16.65 15.2 15.8 14.55 M5.1 18.25 L5.3 18.5 6.65 17.2 5.85 17.25 Q5.1 17.9 5.1 18.25 M2.8 17.75 Q2.6 17.8 2.6 18.6 L2.6 20.4 Q2.65 21.5 2.85 22.15 L3.35 24.25 Q3.7 25.4 4.1 25.4 L4.25 25.15 3.75 23.4 3.1 21.1 3.0 18.9 Q3.0 17.65 2.8 17.75 M2.9 16.95 L3.0 16.5 2.95 16.35 Q2.5 16.35 2.5 16.9 L2.5 17.05 2.7 17.2 2.9 16.95 M19.3 21.55 L18.65 21.85 18.3 21.85 18.2 21.85 16.85 21.45 16.75 21.45 16.05 21.05 15.95 21.0 15.9 20.95 16.15 21.0 16.7 21.15 18.4 21.45 18.9 21.45 19.15 21.45 19.3 21.55 M17.8 31.8 L18.15 31.45 Q18.1 30.95 15.95 30.75 13.7 30.5 13.7 31.0 L16.3 31.45 17.4 31.6 17.8 31.8 M16.3 24.35 L17.15 24.8 17.6 25.4 18.1 25.95 18.45 25.6 Q18.4 24.7 17.0 23.85 L15.6 23.75 Q15.6 24.05 16.3 24.35 M14.45 22.9 Q14.05 22.7 14.05 23.15 14.1 23.6 14.5 23.6 14.85 23.6 14.8 23.25 L14.45 22.9 M12.85 31.3 Q13.2 31.3 13.15 30.9 13.15 30.6 12.55 30.5 11.95 30.35 11.95 30.8 12.0 31.3 12.85 31.3 M4.0 31.95 L4.25 31.5 4.8 32.7 4.85 32.75 5.65 34.15 5.85 34.45 Q6.75 35.75 7.8 36.15 L8.05 36.5 8.35 36.85 8.55 37.15 8.45 37.15 8.1 37.75 Q7.75 38.15 7.2 38.25 L7.05 38.25 Q5.75 38.25 4.8 36.5 4.15 35.25 4.05 34.0 L4.0 33.55 4.0 31.95 M-0.7 1.2 L-0.45 1.0 -1.0 0.25 -1.6 0.3 -0.7 1.2 M6.0 36.75 L6.3 37.05 7.15 37.3 Q7.9 37.3 7.85 36.85 7.85 36.3 6.95 36.2 6.0 36.15 6.0 36.75 M5.25 36.0 L5.6 36.35 5.8 36.05 5.55 35.85 Q5.25 35.8 5.25 36.0" fill="#202020" fill-rule="evenodd" stroke="none"/>
      <path d="M16.1 10.9 L16.05 11.3 Q16.0 11.7 15.45 11.7 L15.35 11.7 14.7 11.6 14.25 11.45 14.1 11.4 Q13.6 11.15 13.35 10.7 L13.3 10.6 14.15 11.2 14.8 11.35 15.25 11.35 16.0 11.05 16.1 10.9 M2.8 26.1 L3.65 27.05 5.3 29.7 Q6.1 30.85 6.8 31.4 L7.1 31.75 8.35 32.65 8.85 32.95 12.1 34.65 12.15 34.65 13.35 35.05 15.9 35.35 19.1 34.8 Q20.2 34.25 20.2 33.4 L19.55 31.8 Q22.55 35.45 19.35 37.1 15.3 38.0 11.7 36.5 L11.0 36.15 9.95 35.8 8.65 35.0 7.3 33.8 6.25 32.7 5.45 31.85 4.4 30.65 Q3.7 29.9 2.8 26.1 M11.0 27.25 L10.9 26.8 10.95 26.45 Q11.0 25.95 11.4 25.5 11.75 25.0 12.2 24.9 L12.55 24.85 Q13.0 24.85 13.7 25.2 L14.6 25.8 15.75 26.4 16.8 26.7 17.05 26.75 17.5 26.75 Q18.25 26.75 18.9 26.15 L18.95 26.4 Q18.3 28.1 17.0 28.1 L16.65 28.05 16.2 27.95 15.15 27.45 15.1 27.4 13.9 26.4 13.2 26.1 12.9 26.05 11.6 26.2 11.45 26.4 Q11.15 26.85 11.0 27.25 M11.65 15.2 Q12.2 15.2 13.85 16.45 L13.9 16.5 15.25 17.35 16.3 17.75 16.55 17.75 17.4 17.65 17.7 17.4 Q17.65 18.05 17.15 18.55 L16.95 18.7 16.45 18.95 Q15.7 19.0 14.55 18.0 L13.8 17.3 13.7 17.2 12.45 15.65 11.65 15.2 M9.15 8.05 Q9.2 7.85 9.5 8.05 L10.05 8.95 10.3 10.3 Q10.35 12.65 9.35 12.65 8.45 12.65 8.4 11.25 L8.4 11.15 8.5 11.5 8.6 11.75 9.2 12.4 Q9.55 12.4 9.75 11.75 L9.95 10.2 9.65 8.65 9.15 8.05 M9.85 22.5 L9.9 22.35 9.9 22.6 Q9.95 23.45 9.5 24.25 8.85 25.5 7.5 25.5 6.45 25.5 5.75 24.0 L5.55 23.55 5.6 23.6 5.65 23.7 5.75 23.85 Q6.55 25.0 7.55 25.0 8.6 25.0 9.3 23.85 L9.85 22.6 9.85 22.5 M19.3 21.55 Q20.5 22.25 19.15 23.0 L18.15 22.8 17.85 22.75 16.85 22.05 16.05 21.15 15.95 21.0 16.05 21.05 16.75 21.45 16.85 21.45 18.2 21.85 18.3 21.85 18.65 21.85 19.3 21.55 M4.0 31.95 L4.0 33.55 4.05 34.0 Q4.15 35.25 4.8 36.5 5.75 38.25 7.05 38.25 L7.2 38.25 Q7.75 38.15 8.1 37.75 L8.45 37.15 8.55 37.15 8.9 38.05 8.95 38.25 Q9.1 39.0 8.7 39.8 6.8 41.15 4.2 38.45 L3.55 37.1 Q3.0 35.5 3.45 33.55 L3.65 32.9 4.0 31.95" fill="#181818" fill-rule="evenodd" stroke="none"/>
      <path d="M8.2 8.7 Q8.15 9.55 7.8 9.55 L7.6 9.2 Q7.6 8.55 8.35 7.85 9.0 7.05 9.0 7.7 L8.75 7.95 Q8.35 8.25 8.2 8.7" fill="#2b2b2b" fill-rule="evenodd" stroke="none"/>
      <path d="M13.35 9.85 Q13.3 9.55 13.95 9.65 14.6 9.8 14.6 10.05 L14.3 10.25 Q13.35 10.25 13.35 9.85 M9.6 2.2 L10.1 3.05 Q10.1 3.45 9.9 3.45 L9.1 2.2 Q9.05 1.6 9.6 2.2 M7.55 0.7 L7.35 0.95 Q7.1 0.95 5.4 -0.85 5.4 -1.45 6.45 -0.45 L7.55 0.7 M2.9 16.95 L2.7 17.2 2.5 17.05 2.5 16.9 Q2.5 16.35 2.95 16.35 L3.0 16.5 2.9 16.95 M2.8 17.75 Q3.0 17.65 3.0 18.9 L3.1 21.1 3.75 23.4 4.25 25.15 4.1 25.4 Q3.7 25.4 3.35 24.25 L2.85 22.15 Q2.65 21.5 2.6 20.4 L2.6 18.6 Q2.6 17.8 2.8 17.75 M5.1 18.25 Q5.1 17.9 5.85 17.25 L6.65 17.2 5.3 18.5 5.1 18.25 M15.8 14.55 Q16.65 15.2 16.7 15.65 L16.45 15.85 14.95 14.45 Q14.95 13.95 15.8 14.55 M14.45 22.9 L14.8 23.25 Q14.85 23.6 14.5 23.6 14.1 23.6 14.05 23.15 14.05 22.7 14.45 22.9 M16.3 24.35 Q15.6 24.05 15.6 23.75 L17.0 23.85 Q18.4 24.7 18.45 25.6 L18.1 25.95 17.6 25.4 17.15 24.8 16.3 24.35 M17.8 31.8 L17.4 31.6 16.3 31.45 13.7 31.0 Q13.7 30.5 15.95 30.75 18.1 30.95 18.15 31.45 L17.8 31.8 M12.85 31.3 Q12.0 31.3 11.95 30.8 11.95 30.35 12.55 30.5 13.15 30.6 13.15 30.9 13.2 31.3 12.85 31.3 M5.25 36.0 Q5.25 35.8 5.55 35.85 L5.8 36.05 5.6 36.35 5.25 36.0 M6.0 36.75 Q6.0 36.15 6.95 36.2 7.85 36.3 7.85 36.85 7.9 37.3 7.15 37.3 L6.3 37.05 6.0 36.75 M-0.7 1.2 L-1.6 0.3 -1.0 0.25 -0.45 1.0 -0.7 1.2" fill="#303030" fill-rule="evenodd" stroke="none"/>
      <path d="M13.15 9.95 Q13.25 9.6 13.75 9.6 L14.25 9.65 14.95 9.9 15.9 10.6 16.1 10.9 16.05 11.3 Q16.0 11.7 15.45 11.7 L15.35 11.7 14.7 11.6 14.25 11.45 14.1 11.4 Q13.6 11.15 13.35 10.7 L13.3 10.6 13.2 10.55 13.1 9.95 M17.7 17.4 Q17.75 16.05 15.9 14.0 L15.65 13.9 14.4 13.1 14.1 12.8 12.8 11.55 Q11.8 10.4 11.2 8.85 10.1 7.55 10.5 4.85 11.0 2.65 9.1 1.4 L9.05 1.35 8.95 1.25 Q6.0 -1.15 3.6 -2.4 6.2 1.45 5.35 2.35 4.2 3.4 1.2 2.15 0.3 0.85 -2.0 -0.4 -2.55 0.2 -0.45 2.45 3.0 8.15 2.2 16.45 2.05 20.35 2.3 22.85 L2.8 26.1 Q3.7 29.9 4.4 30.65 L5.45 31.85 6.25 32.7 7.3 33.8 8.65 35.0 9.95 35.8 11.0 36.15 11.7 36.5 Q15.3 38.0 19.35 37.1 22.55 35.45 19.55 31.8 M17.85 30.5 Q17.2 30.25 16.4 30.1 L15.3 30.0 13.7 29.9 13.05 29.9 12.9 29.9 11.4 28.95 11.1 28.55 Q10.85 28.1 10.95 27.55 M18.9 26.15 Q18.55 24.7 17.6 23.8 L17.55 23.75 16.95 23.35 15.4 22.75 15.25 22.6 13.3 21.0 13.25 21.0 12.7 20.3 Q11.6 18.75 11.2 17.0 10.95 15.65 11.15 15.3 M17.7 17.4 Q17.65 18.05 17.15 18.55 L16.95 18.7 16.45 18.95 Q15.7 19.0 14.55 18.0 L13.8 17.3 13.7 17.2 12.45 15.65 11.65 15.2 M8.4 11.15 L8.35 10.2 Q8.3 9.3 8.5 8.65 8.8 8.05 9.1 8.05 L9.15 8.05 9.65 8.65 9.95 10.2 9.75 11.75 Q9.55 12.4 9.2 12.4 L8.6 11.75 8.5 11.5 M5.6 23.6 Q5.1 22.85 5.05 21.8 L4.95 21.2 Q4.95 19.65 5.6 18.5 6.35 17.4 7.35 17.4 8.4 17.4 9.15 18.5 9.95 19.65 9.95 21.2 L9.85 22.5 M5.6 23.6 L5.65 23.7 5.75 23.85 Q6.55 25.0 7.55 25.0 8.6 25.0 9.3 23.85 L9.85 22.6 9.85 22.5 M15.95 21.0 L16.05 21.15 16.85 22.05 17.85 22.75 18.15 22.8 19.15 23.0 Q20.5 22.25 19.3 21.55 M15.9 20.95 L16.15 21.0 16.7 21.15 18.4 21.45 18.9 21.45 19.15 21.45 19.3 21.55 M11.0 27.25 Q11.15 26.85 11.45 26.4 L11.6 26.2 12.9 26.05 13.2 26.1 13.9 26.4 15.1 27.4 15.15 27.45 16.2 27.95 16.65 28.05 17.0 28.1 Q18.3 28.1 18.95 26.4 L18.9 26.15 M8.55 37.15 L8.35 36.85 M8.05 36.5 L7.8 36.15 Q6.75 35.75 5.85 34.45 L5.65 34.15 4.85 32.75 4.8 32.7 4.25 31.5 M4.0 31.95 L3.65 32.9 3.45 33.55 Q3.0 35.5 3.55 37.1 M4.2 38.45 Q6.8 41.15 8.7 39.8 9.1 39.0 8.95 38.25 L8.9 38.05 8.55 37.15" fill="none" stroke="#000000" stroke-linecap="round" stroke-linejoin="round" stroke-opacity="0.6509804" stroke-width="0.05"/>
      <path d="M2.85 5.35 L2.3 4.3 2.2 4.1 Q8.05 7.7 8.3 4.35 L8.25 2.25 Q10.15 4.05 10.45 10.85 L10.45 11.05 Q10.05 16.0 8.8 15.75 L8.7 15.75 8.65 15.65 8.45 15.4 8.1 14.95 5.45 10.15 2.85 5.35 M9.6 8.6 Q9.4 8.0 9.05 8.0 8.75 8.0 8.45 8.6 8.25 9.25 8.3 10.15 8.3 11.1 8.55 11.7 L9.15 12.35 Q9.5 12.35 9.7 11.7 L9.9 10.15 9.6 8.6 M11.1 9.4 L11.15 10.55 11.3 14.95 Q11.1 15.1 11.15 15.65 L11.15 15.75 11.2 15.9 11.15 16.1 11.35 17.35 11.4 19.3 Q10.45 27.65 9.8 25.15 L9.4 23.6 Q9.95 22.55 9.9 21.15 9.9 19.6 9.1 18.45 8.35 17.35 7.3 17.35 L7.1 17.4 3.15 7.5 9.05 17.6 Q9.95 19.0 10.45 17.05 11.05 13.65 11.0 9.2 L11.05 9.15 11.1 9.3 11.1 9.4" fill="#111111" fill-opacity="0.5019608" fill-rule="evenodd" stroke="none"/>
      <path d="M1.15 4.1 Q4.1 9.3 5.0 19.95 M5.25 22.9 L5.45 29.45 5.45 29.95 5.4 30.2" fill="none" stroke="url(#gradient0)" stroke-linecap="round" stroke-linejoin="round" stroke-width="0.25"/>
      <path d="M5.45 10.15 L8.6 16.0 9.1 16.7 M2.85 5.35 L5.45 10.15" fill="none" stroke="url(#gradient1)" stroke-linecap="round" stroke-linejoin="round" stroke-width="0.25"/>
      <path d="M11.15 10.55 L11.1 9.4" fill="none" stroke="url(#gradient2)" stroke-linecap="round" stroke-linejoin="round" stroke-width="0.25"/>
      <path d="M5.4 30.2 L5.4 30.7" fill="none" stroke="url(#gradient3)" stroke-linecap="round" stroke-linejoin="round" stroke-width="0.25"/>
    </g>
    <linearGradient gradientTransform="matrix(0.0063, 0.0134, -0.0153, 0.0068, 3.35, 17.9)" gradientUnits="userSpaceOnUse" id="gradient0" spreadMethod="pad" x1="-819.2" x2="819.2">
      <stop offset="0.0" stop-color="#000000" stop-opacity="0.0"/>
      <stop offset="0.23921568627450981" stop-color="#000000" stop-opacity="0.39215687"/>
      <stop offset="0.788235294117647" stop-color="#000000" stop-opacity="0.37254903"/>
      <stop offset="0.9019607843137255" stop-color="#000000" stop-opacity="0.0"/>
    </linearGradient>
    <linearGradient gradientTransform="matrix(0.0037, 0.0, 2.0E-4, 0.0071, 5.75, 10.95)" gradientUnits="userSpaceOnUse" id="gradient1" spreadMethod="pad" x1="-819.2" x2="819.2">
      <stop offset="0.0" stop-color="#000000" stop-opacity="0.0"/>
      <stop offset="0.23921568627450981" stop-color="#000000" stop-opacity="0.39215687"/>
      <stop offset="0.788235294117647" stop-color="#000000" stop-opacity="0.37254903"/>
      <stop offset="0.9019607843137255" stop-color="#000000" stop-opacity="0.0"/>
    </linearGradient>
    <linearGradient gradientTransform="matrix(0.0013, -0.0094, 0.0107, 0.0017, 10.65, 10.6)" gradientUnits="userSpaceOnUse" id="gradient2" spreadMethod="pad" x1="-819.2" x2="819.2">
      <stop offset="0.0" stop-color="#000000" stop-opacity="0.0"/>
      <stop offset="0.23921568627450981" stop-color="#000000" stop-opacity="0.39215687"/>
      <stop offset="0.788235294117647" stop-color="#000000" stop-opacity="0.37254903"/>
      <stop offset="0.9019607843137255" stop-color="#000000" stop-opacity="0.0"/>
    </linearGradient>
    <linearGradient gradientTransform="matrix(0.0063, 0.0134, -0.0153, 0.0068, 3.25, 16.9)" gradientUnits="userSpaceOnUse" id="gradient3" spreadMethod="pad" x1="-819.2" x2="819.2">
      <stop offset="0.0" stop-color="#000000" stop-opacity="0.0"/>
      <stop offset="0.23921568627450981" stop-color="#000000" stop-opacity="0.39215687"/>
      <stop offset="0.788235294117647" stop-color="#000000" stop-opacity="0.37254903"/>
      <stop offset="0.9019607843137255" stop-color="#000000" stop-opacity="0.0"/>
    </linearGradient>
  </defs>
</svg>
