<?xml version="1.0" encoding="UTF-8" standalone="no"?>
<svg xmlns:xlink="http://www.w3.org/1999/xlink" height="440.0px" width="440.0px" xmlns="http://www.w3.org/2000/svg">
  <g transform="matrix(10.0, 0.0, 0.0, 10.0, 0.0, 0.0)">
    <use height="44.0" transform="matrix(0.9091, 0.0, 0.0, 0.9091, 2.0, 2.0)" width="44.0" xlink:href="#sprite0"/>
  </g>
  <defs>
    <g id="sprite0" transform="matrix(1.0, 0.0, 0.0, 1.0, 0.0, 0.0)">
      <use height="44.0" transform="matrix(1.0, 0.0, 0.0, 1.0, 0.0, 0.0)" width="44.0" xlink:href="#shape0"/>
      <use height="38.1" transform="matrix(0.9974, 0.0, 0.0, 0.9974, 12.65, 3.0)" width="18.75" xlink:href="#sprite1"/>
    </g>
    <g id="shape0" transform="matrix(1.0, 0.0, 0.0, 1.0, 0.0, 0.0)">
      <path d="M44.0 44.0 L0.0 44.0 0.0 0.0 44.0 0.0 44.0 44.0" fill="#43adca" fill-opacity="0.0" fill-rule="evenodd" stroke="none"/>
    </g>
    <g id="sprite1" transform="matrix(1.0, 0.0, 0.0, 1.0, 0.0, 0.0)">
      <use height="21.5" transform="matrix(1.0, 0.0, 0.0, 1.0, 4.7, 16.6)" width="14.05" xlink:href="#sprite2"/>
      <use height="24.25" transform="matrix(1.0, 0.0, 0.0, 1.0, 0.0, 0.0)" width="14.95" xlink:href="#sprite3"/>
    </g>
    <g id="sprite2" transform="matrix(1.0, 0.0, 0.0, 1.0, 4.85, 4.2)">
      <use height="21.5" transform="matrix(1.0, 0.0, 0.0, 1.0, -4.85, -4.2)" width="14.05" xlink:href="#shape1"/>
    </g>
    <g id="shape1" transform="matrix(1.0, 0.0, 0.0, 1.0, 4.85, 4.2)">
      <path d="M6.85 11.95 L7.1 12.25 7.0 12.35 Q6.85 12.75 7.0 13.15 7.1 13.5 7.45 13.65 L8.05 13.75 8.35 14.1 7.3 14.2 7.25 13.85 Q6.75 13.65 6.65 13.05 L6.75 12.2 6.85 11.95 M8.0 11.9 L8.05 11.55 Q8.65 11.95 8.8 12.6 L8.4 12.25 8.1 12.0 8.0 11.9" fill="#5fc2b8" fill-rule="evenodd" stroke="none"/>
      <path d="M7.05 14.4 L6.35 13.4 Q6.1 12.7 6.35 12.05 L6.6 11.6 6.85 11.95 6.75 12.2 6.65 13.05 Q6.75 13.65 7.25 13.85 L7.3 14.2 7.05 14.4 M8.8 12.6 L8.85 13.15 Q8.9 13.85 8.35 14.1 L8.05 13.75 8.1 13.75 8.55 13.3 8.55 12.55 8.4 12.25 8.8 12.6" fill="#91d5cd" fill-rule="evenodd" stroke="none"/>
      <path d="M6.6 11.6 L7.15 11.25 Q7.6 11.1 8.05 11.25 L8.25 11.35 Q8.85 11.7 9.1 12.35 9.3 13.05 9.1 13.65 8.85 14.3 8.25 14.55 L7.1 14.4 7.05 14.4 7.3 14.2 8.35 14.1 Q8.9 13.85 8.85 13.15 L8.8 12.6 Q8.65 11.95 8.05 11.55 L8.0 11.9 7.45 11.95 7.1 12.25 6.85 11.95 6.6 11.6" fill="#318279" fill-rule="evenodd" stroke="none"/>
      <path d="M6.6 11.6 L7.15 11.25 Q7.6 11.1 8.05 11.25 L8.25 11.35 Q8.85 11.7 9.1 12.35 9.3 13.05 9.1 13.65 8.85 14.3 8.25 14.55 L7.1 14.4 7.05 14.4 6.35 13.4 Q6.1 12.7 6.35 12.05 L6.6 11.6 M7.1 12.25 L7.45 11.95 8.0 11.9 M8.4 12.25 L8.55 12.55 8.55 13.3 8.1 13.75 8.05 13.75 M8.4 12.25 L8.1 12.0 8.0 11.9 M7.1 12.25 L7.0 12.35 Q6.85 12.75 7.0 13.15 7.1 13.5 7.45 13.65 L8.05 13.75" fill="none" stroke="#000000" stroke-linecap="round" stroke-linejoin="round" stroke-opacity="0.4" stroke-width="0.05"/>
      <path d="M1.65 10.15 L1.9 10.45 1.8 10.55 Q1.65 10.95 1.8 11.35 L2.25 11.85 2.85 11.95 3.15 12.3 2.1 12.4 2.05 12.05 Q1.55 11.85 1.45 11.25 L1.55 10.4 1.65 10.15 M2.8 10.1 L2.85 9.75 Q3.45 10.15 3.6 10.8 L3.2 10.45 2.9 10.2 2.8 10.1" fill="#5fc2b8" fill-rule="evenodd" stroke="none"/>
      <path d="M1.85 12.6 Q1.3 12.2 1.15 11.6 0.9 10.9 1.15 10.25 L1.4 9.8 1.65 10.15 1.55 10.4 1.45 11.25 Q1.55 11.85 2.05 12.05 L2.1 12.4 1.85 12.6 M3.6 10.8 L3.65 11.35 Q3.7 12.05 3.15 12.3 L2.85 11.95 2.9 11.95 3.35 11.5 3.35 10.75 3.2 10.45 3.6 10.8" fill="#91d5cd" fill-rule="evenodd" stroke="none"/>
      <path d="M1.4 9.8 Q1.6 9.55 1.95 9.45 2.4 9.3 2.85 9.45 L3.05 9.55 Q3.65 9.9 3.9 10.55 4.1 11.25 3.9 11.85 3.65 12.5 3.05 12.75 L1.9 12.6 1.85 12.6 2.1 12.4 3.15 12.3 Q3.7 12.05 3.65 11.35 L3.6 10.8 Q3.45 10.15 2.85 9.75 L2.8 10.1 2.25 10.15 Q2.0 10.25 1.9 10.45 L1.65 10.15 1.4 9.8" fill="#318279" fill-rule="evenodd" stroke="none"/>
      <path d="M1.4 9.8 Q1.6 9.55 1.95 9.45 2.4 9.3 2.85 9.45 L3.05 9.55 Q3.65 9.9 3.9 10.55 4.1 11.25 3.9 11.85 3.65 12.5 3.05 12.75 L1.9 12.6 1.85 12.6 Q1.3 12.2 1.15 11.6 0.9 10.9 1.15 10.25 L1.4 9.8 M1.9 10.45 Q2.0 10.25 2.25 10.15 L2.8 10.1 M3.2 10.45 L3.35 10.75 3.35 11.5 2.9 11.95 2.85 11.95 M3.2 10.45 L2.9 10.2 2.8 10.1 M1.9 10.45 L1.8 10.55 Q1.65 10.95 1.8 11.35 L2.25 11.85 2.85 11.95" fill="none" stroke="#000000" stroke-linecap="round" stroke-linejoin="round" stroke-opacity="0.4" stroke-width="0.05"/>
      <path d="M-2.15 14.65 L-1.9 14.95 -2.0 15.05 -2.0 15.85 -1.55 16.35 -0.95 16.45 -0.65 16.8 -1.7 16.9 -1.75 16.55 Q-2.25 16.35 -2.35 15.75 L-2.25 14.9 -2.15 14.65 M-1.0 14.6 L-0.95 14.25 Q-0.35 14.65 -0.2 15.3 L-0.6 14.95 -0.9 14.7 -1.0 14.6" fill="#5fc2b8" fill-rule="evenodd" stroke="none"/>
      <path d="M-1.95 17.1 L-2.65 16.1 Q-2.9 15.4 -2.65 14.75 L-2.4 14.3 -2.15 14.65 -2.25 14.9 -2.35 15.75 Q-2.25 16.35 -1.75 16.55 L-1.7 16.9 -1.95 17.1 M-0.2 15.3 L-0.15 15.85 Q-0.1 16.55 -0.65 16.8 L-0.95 16.45 -0.9 16.45 -0.45 16.0 Q-0.3 15.65 -0.45 15.25 L-0.6 14.95 -0.2 15.3" fill="#91d5cd" fill-rule="evenodd" stroke="none"/>
      <path d="M-2.4 14.3 L-1.85 13.95 Q-1.4 13.8 -0.95 13.95 L-0.75 14.05 Q-0.15 14.4 0.1 15.05 0.3 15.75 0.1 16.35 -0.15 17.0 -0.75 17.25 L-1.9 17.1 -1.95 17.1 -1.7 16.9 -0.65 16.8 Q-0.1 16.55 -0.15 15.85 L-0.2 15.3 Q-0.35 14.65 -0.95 14.25 L-1.0 14.6 -1.55 14.65 -1.9 14.95 -2.15 14.65 -2.4 14.3" fill="#318279" fill-rule="evenodd" stroke="none"/>
      <path d="M-2.4 14.3 L-1.85 13.95 Q-1.4 13.8 -0.95 13.95 L-0.75 14.05 Q-0.15 14.4 0.1 15.05 0.3 15.75 0.1 16.35 -0.15 17.0 -0.75 17.25 L-1.9 17.1 -1.95 17.1 -2.65 16.1 Q-2.9 15.4 -2.65 14.75 L-2.4 14.3 M-1.9 14.95 L-1.55 14.65 -1.0 14.6 M-0.6 14.95 L-0.45 15.25 Q-0.3 15.65 -0.45 16.0 L-0.9 16.45 -0.95 16.45 M-0.6 14.95 L-0.9 14.7 -1.0 14.6 M-1.9 14.95 L-2.0 15.05 -2.0 15.85 -1.55 16.35 -0.95 16.45" fill="none" stroke="#000000" stroke-linecap="round" stroke-linejoin="round" stroke-opacity="0.4" stroke-width="0.05"/>
      <path d="M-2.7 -3.05 L-2.65 -3.1 Q1.3 -5.25 4.6 -3.15 L7.85 11.25 7.5 10.4 4.0 -1.55 3.5 5.2 3.1 4.45 2.85 9.55 2.85 10.25 2.6 10.65 0.4 -0.4 -2.7 -3.05 M1.8 9.5 L-0.75 5.5 -1.1 8.8 -2.15 3.5 -2.9 2.15 -3.55 -2.0 -3.3 -2.45 -2.85 -2.9 -1.4 3.0 1.45 8.55 1.8 9.5 M2.5 8.85 L2.85 9.55 2.5 8.85 M3.1 4.45 L3.25 1.35 3.1 4.45 M-2.2 2.05 L-0.75 5.5 -2.2 2.05" fill="#ba5e01" fill-rule="evenodd" stroke="none"/>
      <path d="M7.85 11.25 L7.95 11.5 7.95 12.05 Q7.75 12.55 7.35 12.2 L7.0 11.4 6.95 11.25 6.9 11.25 3.5 5.2 4.0 -1.55 7.5 10.4 7.85 11.25 M2.6 10.65 Q2.4 10.75 2.1 10.5 L1.8 9.5 1.45 8.55 -1.4 3.0 -2.85 -2.9 -2.7 -3.05 0.4 -0.4 2.6 10.65 M-1.1 8.8 L-1.05 14.9 Q-1.35 15.55 -1.75 14.9 L-1.8 14.15 -2.8 10.3 Q-4.0 5.95 -4.85 1.25 -4.5 -0.5 -3.55 -2.0 L-2.9 2.15 -2.15 3.5 -1.1 8.8 M6.9 10.55 L6.95 11.25 6.9 10.55" fill="#e37302" fill-rule="evenodd" stroke="none"/>
      <path d="M4.6 -3.15 L7.85 11.25 7.95 11.5 7.95 12.05 Q7.75 12.55 7.35 12.2 L7.0 11.4 6.9 11.25 3.5 5.2 3.1 4.45 2.85 9.55 2.85 10.25 2.6 10.65 Q2.4 10.75 2.1 10.5 L1.8 9.5 -0.75 5.5 -1.1 8.8 M1.8 9.5 L1.45 8.55 M2.85 9.55 L2.5 8.85 M6.95 11.25 L6.9 10.55 M6.95 11.25 L7.0 11.4 M7.5 10.4 L7.85 11.25 M-0.75 5.5 L-2.2 2.05 M3.25 1.35 L3.1 4.45" fill="none" stroke="#000000" stroke-linecap="round" stroke-linejoin="round" stroke-opacity="0.4" stroke-width="0.05"/>
      <path d="M-1.1 8.8 L-1.05 14.9 Q-1.35 15.55 -1.75 14.9 L-1.8 14.15 -2.8 10.3 Q-4.0 5.95 -4.85 1.25" fill="none" stroke="#625440" stroke-linecap="round" stroke-linejoin="round" stroke-width="0.05"/>
    </g>
    <g id="sprite3" transform="matrix(1.0, 0.0, 0.0, 1.0, 3.25, 2.2)">
      <use height="24.25" transform="matrix(1.0, 0.0, 0.0, 1.0, -3.25, -2.2)" width="14.95" xlink:href="#shape2"/>
    </g>
    <g id="shape2" transform="matrix(1.0, 0.0, 0.0, 1.0, 3.25, 2.2)">
      <path d="M2.45 -1.6 L2.5 -1.6 3.0 -0.75 2.5 -1.5 2.45 -1.6" fill="#c84524" fill-rule="evenodd" stroke="none"/>
      <path d="M2.45 -1.6 L2.2 -2.05 5.1 -0.05 5.25 0.1 5.65 0.35 7.1 1.45 7.3 1.65 6.9 2.0 6.65 2.25 5.8 3.1 5.3 3.2 3.3 2.85 3.3 2.8 3.9 2.55 3.9 2.75 4.1 2.55 4.4 2.25 4.55 2.0 4.65 1.45 4.0 -0.05 3.85 -0.25 2.5 -1.6 2.45 -1.6 M11.05 19.65 L10.45 20.35 10.4 20.45 10.55 17.95 11.05 19.65 M7.55 21.9 L6.7 22.05 5.05 22.0 3.6 16.25 6.95 19.1 7.55 21.9 M3.7 21.7 L1.75 21.15 1.7 20.75 1.4 19.2 0.8 15.35 0.65 14.2 0.25 9.85 0.3 9.85 0.25 9.55 0.15 8.8 -0.3 6.6 -0.35 6.5 -0.35 6.4 -1.05 3.55 -1.5 2.9 0.0 3.25 0.0 3.8 4.1 9.5 2.55 15.0 2.55 15.05 3.65 21.65 3.7 21.7" fill="#e37302" fill-rule="evenodd" stroke="none"/>
      <path d="M2.5 -1.6 L3.85 -0.25 4.0 -0.05 4.65 1.45 4.55 2.0 4.4 2.25 4.1 2.55 3.9 2.75 3.9 2.55 3.95 2.25 3.9 1.45 Q3.75 0.6 3.2 -0.35 L3.05 -0.65 3.0 -0.75 2.5 -1.6 M3.3 2.85 L5.3 3.2 5.8 3.1 8.15 2.45 9.65 2.0 10.15 9.45 10.2 9.85 10.65 13.65 11.1 16.15 11.15 16.35 11.7 18.8 11.05 19.65 10.55 17.95 10.4 20.45 9.8 21.0 Q8.7 21.65 7.55 21.9 L6.95 19.1 3.6 16.25 5.05 22.0 4.6 21.9 4.1 21.8 3.7 21.7 3.65 21.65 2.55 15.05 2.55 15.0 4.1 9.5 0.0 3.8 0.0 3.25 -1.5 2.9 Q-4.4 0.2 -2.5 0.7 L-0.15 2.35 -0.1 2.4 -0.1 2.25 3.3 2.85 M4.4 21.45 L4.6 21.9 4.4 21.45" fill="#ba5e01" fill-rule="evenodd" stroke="none"/>
      <path d="M10.15 9.45 L10.2 9.85 10.15 9.45" fill="#eacea6" fill-rule="evenodd" stroke="none"/>
      <path d="M5.8 3.1 L6.65 2.25 6.9 2.0 7.3 1.65 8.0 2.25 8.15 2.45 5.8 3.1" fill="#ae8a37" fill-rule="evenodd" stroke="none"/>
      <path d="M2.45 -1.6 L2.5 -1.5" fill="none" stroke="#000000" stroke-linecap="round" stroke-linejoin="round" stroke-opacity="0.3019608" stroke-width="0.05"/>
      <path d="M7.3 1.65 L7.1 1.45 5.65 0.35 5.25 0.1 5.1 -0.05 2.2 -2.05 2.45 -1.6 M3.9 2.55 L3.3 2.8 3.3 2.85 M7.3 1.65 L8.0 2.25 8.15 2.45 M10.15 9.45 L10.2 9.85 M1.75 21.15 L1.7 20.75 1.4 19.2 0.8 15.35 0.65 14.2 0.25 9.85 M0.3 9.85 L0.25 9.55 0.15 8.8 -0.3 6.6 -0.35 6.5 -0.35 6.4 -1.05 3.55 -1.5 2.9 Q-4.4 0.2 -2.5 0.7 L-0.15 2.35 -0.1 2.4 M3.0 -0.75 L2.5 -1.6 M3.0 -0.75 L3.05 -0.65 3.2 -0.35 Q3.75 0.6 3.9 1.45 L3.95 2.25 3.9 2.55" fill="none" stroke="#625440" stroke-linecap="round" stroke-linejoin="round" stroke-width="0.05"/>
      <path d="M3.3 2.85 L5.3 3.2 5.8 3.1 8.15 2.45 9.65 2.0 10.15 9.45 10.2 9.85 10.65 13.65 11.1 16.15 M11.15 16.35 L11.7 18.8 M-0.1 2.4 L-0.1 2.25 3.3 2.85 M4.6 21.9 L4.4 21.45" fill="none" stroke="#000000" stroke-linecap="round" stroke-linejoin="round" stroke-opacity="0.4" stroke-width="0.05"/>
      <path d="M3.9 2.75 L3.9 2.55" fill="none" stroke="#2d2100" stroke-linecap="round" stroke-linejoin="round" stroke-opacity="0.5019608" stroke-width="0.05"/>
      <path d="M6.0 12.95 L6.3 13.35 6.2 13.55 Q6.0 14.1 6.2 14.65 6.35 15.15 6.85 15.4 L7.7 15.55 8.15 16.05 6.65 16.2 6.55 15.65 Q5.8 15.35 5.65 14.55 L5.8 13.3 6.0 12.95 M7.6 12.9 L7.7 12.4 Q8.55 12.95 8.8 13.9 L8.2 13.35 7.75 13.0 7.6 12.9" fill="#5fc2b8" fill-rule="evenodd" stroke="none"/>
      <path d="M6.25 16.45 Q5.5 15.9 5.25 15.05 4.9 14.05 5.25 13.1 5.35 12.75 5.6 12.45 L6.0 12.95 5.8 13.3 5.65 14.55 Q5.8 15.35 6.55 15.65 L6.65 16.2 Q6.65 16.45 6.25 16.45 M8.8 13.9 L8.85 14.7 Q8.9 15.65 8.15 16.05 L7.7 15.55 7.75 15.5 8.4 14.85 Q8.6 14.35 8.4 13.8 L8.2 13.35 8.8 13.9" fill="#91d5cd" fill-rule="evenodd" stroke="none"/>
      <path d="M5.6 12.45 Q5.9 12.1 6.4 11.9 L7.7 11.95 8.0 12.05 Q8.85 12.55 9.2 13.55 9.5 14.55 9.2 15.4 8.85 16.35 8.0 16.65 L6.35 16.5 6.25 16.45 Q6.65 16.45 6.65 16.2 L8.15 16.05 Q8.9 15.65 8.85 14.7 L8.8 13.9 Q8.55 12.95 7.7 12.4 L7.6 12.9 6.85 12.95 6.3 13.35 6.0 12.95 5.6 12.45" fill="#318279" fill-rule="evenodd" stroke="none"/>
      <path d="M5.6 12.45 Q5.9 12.1 6.4 11.9 L7.7 11.95 8.0 12.05 Q8.85 12.55 9.2 13.55 9.5 14.55 9.2 15.4 8.85 16.35 8.0 16.65 L6.35 16.5 6.25 16.45 Q5.5 15.9 5.25 15.05 4.9 14.05 5.25 13.1 5.35 12.75 5.6 12.45 M6.3 13.35 L6.85 12.95 7.6 12.9 7.75 13.0 8.2 13.35 8.4 13.8 Q8.6 14.35 8.4 14.85 L7.75 15.5 7.7 15.55 6.85 15.4 Q6.35 15.15 6.2 14.65 6.0 14.1 6.2 13.55 L6.3 13.35" fill="none" stroke="#000000" stroke-linecap="round" stroke-linejoin="round" stroke-opacity="0.4" stroke-width="0.05"/>
      <path d="M2.85 -0.8 L2.35 -1.55 2.1 -2.2 9.5 0.9 Q10.4 1.4 10.65 3.0 9.4 8.5 7.45 12.6 L7.5 11.8 7.9 6.65 9.25 2.5 6.45 3.65 1.9 2.95 0.35 1.75 0.7 2.55 0.35 2.35 -3.0 0.65 Q-0.55 0.55 0.6 1.25 L2.0 2.3 Q6.3 3.6 9.25 1.65 L9.05 1.2 7.45 1.95 5.45 2.2 Q6.55 2.05 7.75 1.5 L7.95 1.1 6.2 1.4 6.5 0.9 6.25 0.65 Q5.85 1.0 5.55 1.0 5.55 0.0 4.55 -0.4 L2.85 -0.8 M3.95 1.8 L3.95 1.75 4.5 1.7 3.95 1.8 M5.9 11.25 L3.6 4.25 6.7 10.05 6.8 12.4 6.65 13.0 5.9 11.25" fill="#5fc2b8" fill-rule="evenodd" stroke="none"/>
      <path d="M2.85 -0.8 L4.55 -0.4 Q5.55 0.0 5.55 1.0 5.85 1.0 6.25 0.65 L6.5 0.9 6.2 1.4 7.95 1.1 7.75 1.5 Q6.55 2.05 5.45 2.2 L7.45 1.95 9.05 1.2 9.25 1.65 Q6.3 3.6 2.0 2.3 L0.6 1.25 2.7 1.85 4.1 2.25 5.2 2.25 5.45 2.2 5.2 2.25 4.1 2.25 2.7 1.85 3.95 1.75 Q3.9 0.55 2.85 -0.8 M4.5 1.7 L3.95 1.75 3.95 1.8 4.5 1.7 5.15 1.65 3.95 1.8 5.15 1.65 4.5 1.7" fill="#318279" fill-rule="evenodd" stroke="none"/>
      <path d="M-3.0 0.65 L0.35 2.35 0.7 2.55 0.35 1.75 1.9 2.95 6.45 3.65 9.25 2.5 7.9 6.65 7.5 11.8 7.45 12.6 7.45 13.5 6.6 13.45 6.65 13.0 6.8 12.4 6.7 10.05 3.6 4.25 5.9 11.25 1.65 4.2 -0.1 2.75 -0.45 3.0 Q-1.15 2.9 -2.05 2.05 L-3.0 0.65 M0.35 2.35 L-0.05 2.65 -0.1 2.75 -0.05 2.65 0.35 2.35" fill="#91d5cd" fill-rule="evenodd" stroke="none"/>
      <path d="M7.95 1.1 L7.75 1.5 Q6.55 2.05 5.45 2.2 L5.2 2.25 4.1 2.25 2.7 1.85 0.6 1.25 Q-0.55 0.55 -3.0 0.65 L-2.05 2.05 Q-1.15 2.9 -0.45 3.0 L-0.1 2.75 -0.05 2.65 0.35 2.35 M9.25 1.65 Q6.3 3.6 2.0 2.3 M7.5 11.8 L7.45 12.6 Q9.4 8.5 10.65 3.0 10.4 1.4 9.5 0.9 L2.1 -2.2 2.35 -1.55 M4.5 1.7 L3.95 1.75 3.95 1.8 M4.5 1.7 L5.15 1.65 3.95 1.8 M2.7 1.85 L3.95 1.75 Q3.9 0.55 2.85 -0.8 M6.7 10.05 L6.8 12.4 6.65 13.0 6.6 13.45 7.45 13.5 7.45 12.6 M-0.1 2.75 L1.65 4.2 5.9 11.25 6.65 13.0" fill="none" stroke="#000000" stroke-linecap="round" stroke-linejoin="round" stroke-opacity="0.4" stroke-width="0.05"/>
      <path d="M2.35 -1.55 L2.85 -0.8" fill="none" stroke="#625440" stroke-linecap="round" stroke-linejoin="round" stroke-width="0.05"/>
    </g>
  </defs>
</svg>
