<?xml version="1.0" encoding="UTF-8" standalone="no"?>
<svg xmlns:xlink="http://www.w3.org/1999/xlink" height="440.0px" width="440.0px" xmlns="http://www.w3.org/2000/svg">
  <g transform="matrix(10.0, 0.0, 0.0, 10.0, 0.0, 0.0)">
    <use height="44.0" transform="matrix(0.9091, 0.0, 0.0, 0.9091, 2.0, 2.0)" width="44.0" xlink:href="#sprite0"/>
  </g>
  <defs>
    <g id="sprite0" transform="matrix(1.0, 0.0, 0.0, 1.0, 0.0, 0.0)">
      <use height="44.0" transform="matrix(1.0, 0.0, 0.0, 1.0, 0.0, 0.0)" width="44.0" xlink:href="#shape0"/>
      <use height="28.25" transform="matrix(0.8372, 0.0, 0.0, 0.8372, 14.7724, 17.7956)" width="24.5" xlink:href="#sprite1"/>
      <use height="31.5" transform="matrix(0.8372, 0.0, 0.0, 0.8372, 13.9594, 3.5025)" width="22.15" xlink:href="#sprite2"/>
    </g>
    <g id="shape0" transform="matrix(1.0, 0.0, 0.0, 1.0, 0.0, 0.0)">
      <path d="M44.0 44.0 L0.0 44.0 0.0 0.0 44.0 0.0 44.0 44.0" fill="#43adca" fill-opacity="0.0" fill-rule="evenodd" stroke="none"/>
    </g>
    <g id="sprite1" transform="matrix(1.0, 0.0, 0.0, 1.0, 9.35, 7.65)">
      <use height="28.25" transform="matrix(1.0, 0.0, 0.0, 1.0, -9.35, -7.65)" width="24.5" xlink:href="#shape1"/>
    </g>
    <g id="shape1" transform="matrix(1.0, 0.0, 0.0, 1.0, 9.35, 7.65)">
      <path d="M1.5 -6.9 L1.65 -6.6 3.35 -2.0 -0.4 -6.35 1.5 -6.9 M-2.8 19.75 L-4.15 20.6 -4.25 20.6 Q-6.95 17.1 -8.5 9.3 L-9.25 4.55 -9.35 3.75 Q-9.05 1.95 -8.05 0.15 -6.45 -2.8 -3.7 -4.7 L-3.4 -0.6 Q-5.55 2.55 -7.1 5.95 L-8.5 9.3 -7.1 5.95 Q-5.55 2.55 -3.4 -0.6 L-3.05 7.05 Q-2.85 12.65 -2.8 18.2 L-2.8 19.75 M-6.8 -0.15 Q-7.15 -0.7 -7.6 -0.45 L-8.25 0.85 -8.35 2.9 -7.8 4.45 Q-7.45 5.0 -7.0 4.7 -6.6 4.35 -6.4 3.4 -6.2 2.45 -6.3 1.45 -6.4 0.4 -6.8 -0.15 M-5.5 -2.55 L-5.8 -1.95 -5.95 -0.95 -5.75 -0.1 Q-5.55 0.15 -5.35 0.05 L-4.95 -0.55 -4.85 -1.65 -5.05 -2.5 -5.5 -2.55 M-7.1 8.25 L-7.4 8.85 -7.55 9.9 -7.4 10.8 -7.0 10.95 Q-6.75 10.8 -6.65 10.25 L-6.45 9.3 Q-6.5 8.7 -6.7 8.4 -6.8 8.15 -7.1 8.25" fill="#884022" fill-rule="evenodd" stroke="none"/>
      <path d="M-5.5 -2.55 L-5.05 -2.5 -4.85 -1.65 -4.95 -0.55 -5.35 0.05 Q-5.55 0.15 -5.75 -0.1 L-5.95 -0.95 -5.8 -1.95 -5.5 -2.55 M-6.8 -0.15 Q-6.4 0.4 -6.3 1.45 -6.2 2.45 -6.4 3.4 -6.6 4.35 -7.0 4.7 -7.45 5.0 -7.8 4.45 L-8.35 2.9 -8.25 0.85 -7.6 -0.45 Q-7.15 -0.7 -6.8 -0.15 M-7.1 8.25 Q-6.8 8.15 -6.7 8.4 -6.5 8.7 -6.45 9.3 L-6.65 10.25 Q-6.75 10.8 -7.0 10.95 L-7.4 10.8 -7.55 9.9 -7.4 8.85 -7.1 8.25" fill="#73371e" fill-rule="evenodd" stroke="none"/>
      <path d="M3.35 -2.0 L3.4 -1.75 5.1 4.7 5.25 5.6 Q4.7 10.25 2.55 14.15 2.0 9.75 0.75 7.75 L1.15 14.4 Q-0.95 18.2 -2.8 19.75 L-2.8 18.2 Q-2.85 12.65 -3.05 7.05 L-3.4 -0.6 -3.7 -4.7 -3.05 -5.05 -2.35 -5.5 -1.2 -6.0 -0.5 -6.3 -0.4 -6.35 3.35 -2.0" fill="#803b20" fill-rule="evenodd" stroke="none"/>
      <path d="M1.5 -6.9 L1.65 -6.6 3.35 -2.0 M3.4 -1.75 L5.1 4.7 5.25 5.6 Q4.7 10.25 2.55 14.15 2.0 9.75 0.75 7.75 L1.15 14.4 Q-0.95 18.2 -2.8 19.75 L-4.15 20.6 -4.25 20.6 Q-6.95 17.1 -8.5 9.3 L-9.25 4.55 -9.35 3.75" fill="none" stroke="#000000" stroke-linecap="round" stroke-linejoin="round" stroke-opacity="0.3019608" stroke-width="0.05"/>
      <path d="M3.35 -2.0 L3.4 -1.75 M-3.4 -0.6 L-3.7 -4.7 M-8.5 9.3 L-7.1 5.95 Q-5.55 2.55 -3.4 -0.6 L-3.05 7.05 Q-2.85 12.65 -2.8 18.2 L-2.8 19.75 M3.35 -2.0 L-0.4 -6.35" fill="none" stroke="#a34c28" stroke-linecap="round" stroke-linejoin="round" stroke-opacity="0.2" stroke-width="0.05"/>
      <path d="M-0.5 -6.3 L-0.4 -6.35 1.5 -6.9 1.65 -6.6 3.35 -2.0 3.4 -1.75 5.1 4.7 5.25 5.6 Q4.7 10.25 2.55 14.15 2.0 9.75 0.75 7.75 L1.15 14.4 Q-0.95 18.2 -2.8 19.75 L-4.15 20.6 Q-3.5 19.85 -2.8 18.2 L-2.45 17.2 -1.8 14.85 Q-1.4 11.05 -2.5 0.25 L-3.05 -5.05 -2.35 -5.5 -1.2 -6.0 -0.5 -6.3" fill="#000000" fill-opacity="0.2" fill-rule="evenodd" stroke="none"/>
      <path d="M3.65 -3.75 Q6.15 -2.85 8.55 -1.3 9.95 -0.4 13.0 2.6 L13.15 2.75 13.3 3.35 Q14.3 7.55 14.9 11.55 L15.0 12.15 15.15 13.2 15.15 13.3 13.75 13.7 11.95 10.55 7.15 2.3 3.65 -3.75 M-0.95 -6.8 L-0.7 -1.45 -0.55 0.45 -1.1 -1.25 -2.5 -6.0 -1.55 -6.55 -0.95 -6.8" fill="#884022" fill-rule="evenodd" stroke="none"/>
      <path d="M0.0 -3.0 Q0.25 -4.7 1.05 -4.45 1.95 -4.3 3.0 -2.3 4.05 -0.35 4.7 2.2 L5.2 4.85 5.15 6.45 Q5.0 8.1 4.1 7.9 3.45 7.75 2.75 6.7 L2.2 5.75 Q1.3 4.15 0.7 2.15 L0.5 1.2 0.15 -0.45 0.0 -3.0 M6.55 1.8 L7.0 2.55 7.35 3.7 7.5 5.6 Q7.5 6.3 7.1 6.2 6.65 6.1 6.2 5.25 L5.75 4.25 5.45 3.25 Q5.2 2.1 5.25 1.45 5.3 0.7 5.75 0.75 L6.55 1.8" fill="#73371e" fill-rule="evenodd" stroke="none"/>
      <path d="M0.0 -3.0 L0.15 -0.45 0.5 1.2 0.7 2.15 Q1.3 4.15 2.2 5.75 L2.75 6.7 Q3.45 7.75 4.1 7.9 5.0 8.1 5.15 6.45 L5.2 4.85 4.7 2.2 Q4.05 -0.35 3.0 -2.3 1.95 -4.3 1.05 -4.45 0.25 -4.7 0.0 -3.0 M3.65 -3.75 L1.5 -7.6 3.65 -3.75 7.15 2.3 11.95 10.55 13.75 13.7 Q12.25 13.65 9.75 12.45 L9.15 12.1 5.75 6.2 Q6.2 8.95 8.25 13.05 5.15 11.4 2.35 7.9 L2.0 7.1 0.15 2.45 -0.55 0.45 -0.7 -1.45 -0.95 -6.8 Q0.3 -7.4 1.5 -7.6 3.7 -7.9 5.85 -6.9 7.4 -6.15 8.6 -4.9 L10.55 -3.2 11.9 -1.75 12.7 1.1 13.15 2.7 13.15 2.75 13.0 2.6 Q9.95 -0.4 8.55 -1.3 6.15 -2.85 3.65 -3.75 M6.55 1.8 L5.75 0.75 Q5.3 0.7 5.25 1.45 5.2 2.1 5.45 3.25 L5.75 4.25 6.2 5.25 Q6.65 6.1 7.1 6.2 7.5 6.3 7.5 5.6 L7.35 3.7 7.0 2.55 6.55 1.8" fill="#823c20" fill-rule="evenodd" stroke="none"/>
      <path d="M13.15 2.75 L13.15 2.7 12.7 1.1 11.9 -1.75 10.55 -3.2 8.6 -4.9 Q7.4 -6.15 5.85 -6.9 3.7 -7.9 1.5 -7.6 M-0.55 0.45 L0.15 2.45 2.0 7.1 2.35 7.9 Q5.15 11.4 8.25 13.05 6.2 8.95 5.75 6.2 L9.15 12.1 9.75 12.45 Q12.25 13.65 13.75 13.7 M13.15 2.75 L13.3 3.35 Q14.3 7.55 14.9 11.55 L15.0 12.15 15.15 13.2 15.15 13.3 13.75 13.7 M-0.55 0.45 L-1.1 -1.25 -2.5 -6.0" fill="none" stroke="#000000" stroke-linecap="round" stroke-linejoin="round" stroke-opacity="0.3019608" stroke-width="0.05"/>
      <path d="M1.5 -7.6 L3.65 -3.75 Q6.15 -2.85 8.55 -1.3 9.95 -0.4 13.0 2.6 L13.15 2.75 M-0.95 -6.8 L-0.7 -1.45 -0.55 0.45 M13.75 13.7 L11.95 10.55 7.15 2.3 3.65 -3.75" fill="none" stroke="#a34c28" stroke-linecap="round" stroke-linejoin="round" stroke-opacity="0.2" stroke-width="0.05"/>
      <path d="M13.15 2.75 L13.3 3.35 Q14.3 7.55 14.9 11.55 L15.0 12.15 15.15 13.2 15.15 13.3 13.75 13.7 Q12.25 13.65 9.75 12.45 11.1 11.85 11.95 10.55 12.9 9.0 13.1 6.5 13.25 4.5 13.0 2.6 L13.15 2.75" fill="#000000" fill-opacity="0.2" fill-rule="evenodd" stroke="none"/>
    </g>
    <g id="sprite2" transform="matrix(1.0, 0.0, 0.0, 1.0, 4.05, 3.7)">
      <use height="31.5" transform="matrix(1.0, 0.0, 0.0, 1.0, -4.05, -3.7)" width="22.15" xlink:href="#shape2"/>
    </g>
    <g id="shape2" transform="matrix(1.0, 0.0, 0.0, 1.0, 4.05, 3.7)">
      <path d="M2.55 9.95 L2.4 8.4 3.45 9.35 2.4 8.4 2.55 9.95 Q-1.6 13.3 -3.15 21.4 -3.8 14.95 -4.05 6.85 -3.1 -3.5 1.8 -1.05 4.4 3.35 6.5 8.1 4.8 8.45 3.45 9.35 L2.55 9.95 M2.4 8.4 L1.8 -1.05 2.4 8.4" fill="#6c331c" fill-rule="evenodd" stroke="none"/>
      <path d="M2.55 9.95 L3.45 9.35 5.95 12.2 9.7 17.5 9.75 17.8 Q10.55 20.7 11.15 24.25 10.45 24.4 9.65 24.95 7.6 26.4 5.6 27.15 L5.15 27.25 4.4 27.45 4.15 27.55 3.4 27.65 3.0 18.9 2.7 14.05 2.7 12.9 2.6 11.2 2.55 9.95" fill="#803b20" fill-rule="evenodd" stroke="none"/>
      <path d="M3.45 9.35 Q4.8 8.45 6.5 8.1 L7.2 9.9 7.35 10.25 7.85 11.6 8.0 11.95 9.7 17.5 5.95 12.2 3.45 9.35 M2.55 9.95 L2.6 11.2 2.7 12.9 2.7 14.05 3.0 18.9 Q0.9 22.6 -0.6 26.6 0.9 22.6 3.0 18.9 L3.4 27.65 3.5 27.7 1.65 27.75 0.55 27.25 -0.6 26.6 Q-1.85 25.9 -2.75 24.8 L-2.85 23.85 -3.15 21.4 Q-1.6 13.3 2.55 9.95 M0.05 23.6 L0.15 21.2 Q0.05 19.95 -0.35 19.25 -0.7 18.6 -1.15 18.95 -1.6 19.3 -1.8 20.45 L-1.85 22.85 -1.3 24.75 Q-0.9 25.4 -0.55 25.1 -0.15 24.7 0.05 23.6 M1.4 16.6 Q1.2 16.25 0.95 16.4 0.75 16.55 0.65 17.15 0.45 17.7 0.5 18.35 0.45 19.0 0.7 19.4 L1.05 19.6 1.45 18.85 1.55 17.6 1.4 16.6 M-0.5 14.8 L-1.0 15.5 -1.35 16.65 -1.35 17.75 Q-1.25 18.15 -1.0 18.0 L-0.5 17.4 -0.2 16.2 Q0.0 15.5 -0.15 15.1 -0.25 14.7 -0.5 14.8" fill="#884022" fill-rule="evenodd" stroke="none"/>
      <path d="M1.4 16.6 L1.55 17.6 1.45 18.85 1.05 19.6 0.7 19.4 Q0.45 19.0 0.5 18.35 0.45 17.7 0.65 17.15 0.75 16.55 0.95 16.4 1.2 16.25 1.4 16.6 M0.05 23.6 Q-0.15 24.7 -0.55 25.1 -0.9 25.4 -1.3 24.75 L-1.85 22.85 -1.8 20.45 Q-1.6 19.3 -1.15 18.95 -0.7 18.6 -0.35 19.25 0.05 19.95 0.15 21.2 L0.05 23.6 M-0.5 14.8 Q-0.25 14.7 -0.15 15.1 0.0 15.5 -0.2 16.2 L-0.5 17.4 -1.0 18.0 Q-1.25 18.15 -1.35 17.75 L-1.35 16.65 -1.0 15.5 -0.5 14.8" fill="#73371e" fill-rule="evenodd" stroke="none"/>
      <path d="M6.5 8.1 Q4.4 3.35 1.8 -1.05 M-3.15 21.4 L-2.85 23.85 -2.75 24.8 M9.7 17.5 L8.0 11.95 7.85 11.6 7.35 10.25 M7.2 9.9 L6.5 8.1 M9.75 17.8 Q10.55 20.7 11.15 24.25 M-3.15 21.4 Q-3.8 14.95 -4.05 6.85 -3.1 -3.5 1.8 -1.05" fill="none" stroke="#000000" stroke-linecap="round" stroke-linejoin="round" stroke-opacity="0.3019608" stroke-width="0.05"/>
      <path d="M3.45 9.35 L2.4 8.4 2.55 9.95 M1.8 -1.05 L2.4 8.4 M2.6 11.2 L2.55 9.95 M-0.6 26.6 Q0.9 22.6 3.0 18.9 L2.7 14.05 2.7 12.9 M3.45 9.35 L5.95 12.2 9.7 17.5 9.75 17.8 M4.4 27.45 L4.15 27.55 3.5 27.7 M3.4 27.65 L3.5 27.7 M3.0 18.9 L3.4 27.65" fill="none" stroke="#a34c28" stroke-linecap="round" stroke-linejoin="round" stroke-opacity="0.2" stroke-width="0.05"/>
      <path d="M7.35 10.25 L7.2 9.9" fill="none" stroke="#000000" stroke-linecap="round" stroke-linejoin="round" stroke-opacity="0.2" stroke-width="1.5"/>
      <path d="M7.35 10.25 L7.85 11.6 8.0 11.95 9.7 17.5 9.75 17.8 Q10.55 20.7 11.15 24.25 10.45 24.4 9.65 24.95 7.6 26.4 5.6 27.15 L5.15 27.25 4.4 27.45 4.15 27.55 3.6 21.25 3.05 15.95 2.7 12.9 2.6 11.2 2.55 9.95 2.4 8.4 1.8 -1.05 Q4.4 3.35 6.5 8.1 L7.2 9.9 7.35 10.25" fill="#000000" fill-opacity="0.2" fill-rule="evenodd" stroke="none"/>
      <path d="M1.2 -0.8 Q1.75 -2.9 2.85 -3.15 4.1 -3.5 6.1 -1.2 12.05 3.05 16.9 16.0 11.0 9.85 8.6 8.8 7.1 8.15 5.7 8.35 L5.2 7.35 1.2 -0.8" fill="#66301a" fill-rule="evenodd" stroke="none"/>
      <path d="M16.9 16.0 L16.95 16.05 16.9 16.05 18.1 19.35 17.25 20.5 17.25 20.55 17.1 20.75 16.7 21.05 16.6 21.2 Q12.0 17.25 9.6 16.05 L7.45 11.8 6.45 9.85 5.7 8.35 6.45 9.85 7.45 11.8 9.6 16.05 12.1 21.4 Q11.85 21.05 11.65 21.0 11.2 20.85 11.2 21.65 11.1 22.4 11.4 23.65 L12.0 25.3 11.4 25.65 11.2 25.8 10.6 22.4 Q9.95 19.7 8.95 17.55 7.9 15.35 7.05 15.05 6.15 14.75 5.95 16.5 5.85 17.6 6.1 19.2 L6.4 21.05 6.65 22.0 Q7.25 24.2 8.1 25.95 L8.7 27.0 10.65 26.1 8.7 27.1 8.7 27.0 8.5 27.05 7.95 27.35 6.1 22.25 5.4 20.1 5.25 18.1 5.05 12.4 5.0 10.55 5.1 8.45 5.7 8.35 Q7.1 8.15 8.6 8.8 11.0 9.85 16.9 16.0 L16.9 16.05 16.9 16.0 M13.6 23.9 L13.5 23.9 Q13.6 23.4 13.6 23.9" fill="#823c20" fill-rule="evenodd" stroke="none"/>
      <path d="M16.6 21.2 L15.65 22.3 13.9 23.9 13.6 23.9 Q13.6 23.4 13.5 23.9 L13.45 23.9 12.45 22.1 12.1 21.4 9.6 16.05 Q12.0 17.25 16.6 21.2 M5.4 20.1 L4.85 18.3 3.5 13.15 3.1 11.45 2.75 9.85 Q3.9 8.85 5.1 8.45 L5.0 10.55 5.05 12.4 5.25 18.1 5.4 20.1" fill="#884022" fill-rule="evenodd" stroke="none"/>
      <path d="M13.45 23.9 L13.45 24.25 13.35 24.3 12.1 25.25 12.0 25.3 11.4 23.65 Q11.1 22.4 11.2 21.65 11.2 20.85 11.65 21.0 11.85 21.05 12.1 21.4 L12.45 22.1 13.45 23.9 M11.2 25.8 L11.2 25.9 10.65 26.1 8.7 27.0 8.1 25.95 Q7.25 24.2 6.65 22.0 L6.4 21.05 6.1 19.2 Q5.85 17.6 5.95 16.5 6.15 14.75 7.05 15.05 7.9 15.35 8.95 17.55 9.95 19.7 10.6 22.4 L11.2 25.8 M13.35 24.3 L12.1 21.4 13.35 24.3" fill="#73371e" fill-rule="evenodd" stroke="none"/>
      <path d="M2.75 9.85 Q1.7 4.5 1.2 -0.8 L5.2 7.35 5.7 8.35 5.1 8.45 Q3.9 8.85 2.75 9.85 M5.1 8.45 L5.2 7.35 5.1 8.45" fill="#6c331c" fill-rule="evenodd" stroke="none"/>
      <path d="M1.2 -0.8 Q1.75 -2.9 2.85 -3.15 4.1 -3.5 6.1 -1.2 12.05 3.05 16.9 16.0 L16.9 16.05 18.1 19.35 M7.95 27.35 L6.1 22.25 5.4 20.1 4.85 18.3 3.5 13.15 3.1 11.45 2.75 9.85 Q1.7 4.5 1.2 -0.8 M16.7 21.05 L16.65 21.25" fill="none" stroke="#000000" stroke-linecap="round" stroke-linejoin="round" stroke-opacity="0.3019608" stroke-width="0.05"/>
      <path d="M17.25 20.5 L17.25 20.55 16.65 21.25 16.6 21.2 M1.2 -0.8 L5.2 7.35 5.7 8.35 6.45 9.85 7.45 11.8 9.6 16.05 Q12.0 17.25 16.6 21.2 M5.2 7.35 L5.1 8.45 5.0 10.55 5.05 12.4 5.25 18.1 5.4 20.1 M12.1 21.4 L13.35 24.3 M9.6 16.05 L12.1 21.4" fill="none" stroke="#a34c28" stroke-linecap="round" stroke-linejoin="round" stroke-opacity="0.2" stroke-width="0.05"/>
      <path d="M1.4 6.8 L1.4 5.3 0.05 5.1 2.4 4.6 Q2.7 4.8 2.9 5.5 L1.4 6.8 M3.25 4.2 L4.35 3.5 Q5.3 3.65 5.0 4.5 L3.75 5.0 3.4 4.35 3.25 4.2" fill="#574f28" fill-rule="evenodd" stroke="none"/>
      <path d="M2.4 4.6 L2.3 4.55 Q2.65 4.2 3.05 4.15 L3.25 4.2 3.4 4.35 3.75 5.0 3.75 5.2 Q3.3 5.65 2.9 5.6 L2.9 5.5 Q2.7 4.8 2.4 4.6" fill="#d1bd9f" fill-rule="evenodd" stroke="none"/>
      <path d="M1.4 6.8 Q0.25 6.8 0.0 6.45 -0.2 5.75 0.05 5.1 L1.4 5.3 1.4 6.8" fill="#85753d" fill-rule="evenodd" stroke="none"/>
      <path d="M0.05 5.1 Q-0.2 5.75 0.0 6.45 0.25 6.8 1.4 6.8 L1.4 5.3 0.05 5.1 2.4 4.6 2.3 4.55 Q2.65 4.2 3.05 4.15 L3.25 4.2 4.35 3.5 Q5.3 3.65 5.0 4.5 L3.75 5.0 3.75 5.2 Q3.3 5.65 2.9 5.6 L2.9 5.5 1.4 6.8 M2.4 4.6 Q2.7 4.8 2.9 5.5 M3.75 5.0 L3.4 4.35 3.25 4.2" fill="none" stroke="#000000" stroke-linecap="round" stroke-linejoin="round" stroke-opacity="0.2" stroke-width="0.05"/>
      <path d="M4.35 9.5 L5.6 9.05 Q6.5 9.2 6.1 10.05 L4.75 10.35 4.55 9.75 4.35 9.5 M3.85 10.7 L2.25 11.8 2.45 10.25 Q2.1 9.9 1.1 9.8 L3.55 9.7 3.85 10.7" fill="#574f28" fill-rule="evenodd" stroke="none"/>
      <path d="M4.35 9.5 L4.55 9.75 4.75 10.35 4.75 10.65 3.85 10.8 3.85 10.7 3.55 9.7 3.5 9.65 Q3.8 9.45 4.2 9.4 L4.35 9.5" fill="#d1bd9f" fill-rule="evenodd" stroke="none"/>
      <path d="M2.25 11.8 Q1.05 11.65 0.9 11.2 0.8 10.5 1.1 9.8 2.1 9.9 2.45 10.25 L2.25 11.8" fill="#85753d" fill-rule="evenodd" stroke="none"/>
      <path d="M4.75 10.35 L6.1 10.05 Q6.5 9.2 5.6 9.05 L4.35 9.5 4.55 9.75 4.75 10.35 4.75 10.65 3.85 10.8 3.85 10.7 2.25 11.8 Q1.05 11.65 0.9 11.2 0.8 10.5 1.1 9.8 L3.55 9.7 3.5 9.65 Q3.8 9.45 4.2 9.4 L4.35 9.5 M2.25 11.8 L2.45 10.25 Q2.1 9.9 1.1 9.8 M3.55 9.7 L3.85 10.7" fill="none" stroke="#000000" stroke-linecap="round" stroke-linejoin="round" stroke-opacity="0.2" stroke-width="0.05"/>
      <path d="M5.95 14.9 L7.25 14.65 Q8.05 15.15 7.4 15.8 L6.1 15.75 6.05 15.1 5.95 14.9 M5.0 15.9 L3.25 16.45 3.8 15.05 Q3.55 14.65 2.7 14.3 L5.0 14.85 Q5.2 15.2 5.0 15.9" fill="#574f28" fill-rule="evenodd" stroke="none"/>
      <path d="M5.95 14.9 L6.05 15.1 6.1 15.75 6.0 16.0 5.0 15.9 Q5.2 15.2 5.0 14.85 L4.95 14.8 5.75 14.75 5.95 14.9" fill="#d1bd9f" fill-rule="evenodd" stroke="none"/>
      <path d="M3.25 16.45 Q2.2 16.0 2.1 15.55 2.2 14.8 2.7 14.3 3.55 14.65 3.8 15.05 L3.25 16.45" fill="#85753d" fill-rule="evenodd" stroke="none"/>
      <path d="M6.1 15.75 L7.4 15.8 Q8.05 15.15 7.25 14.65 L5.95 14.9 6.05 15.1 6.1 15.75 6.0 16.0 5.0 15.9 3.25 16.45 Q2.2 16.0 2.1 15.55 2.2 14.8 2.7 14.3 L5.0 14.85 4.95 14.8 5.75 14.75 5.95 14.9 M2.7 14.3 Q3.55 14.65 3.8 15.05 L3.25 16.45 M5.0 14.85 Q5.2 15.2 5.0 15.9" fill="none" stroke="#000000" stroke-linecap="round" stroke-linejoin="round" stroke-opacity="0.2" stroke-width="0.05"/>
      <path d="M3.2 -2.0 Q3.9 -3.05 5.3 -3.7 L7.4 -2.75 9.0 -1.45 Q7.9 -1.4 7.5 -0.8 L9.45 -0.45 Q9.65 0.3 9.35 1.05 7.8 -0.1 6.65 -0.75 4.3 -2.2 3.2 -2.0" fill="#b3532c" fill-rule="evenodd" stroke="none"/>
      <path d="M3.2 -2.0 Q4.3 -2.2 6.65 -0.75 7.8 -0.1 9.35 1.05 L6.45 1.25 3.9 0.75 Q3.15 0.5 2.55 0.1 2.6 -1.1 3.2 -2.0 M6.65 -0.75 L6.45 1.25 6.65 -0.75" fill="#a64d29" fill-rule="evenodd" stroke="none"/>
      <path d="M9.35 1.05 Q9.65 0.3 9.45 -0.45 L7.5 -0.8 Q7.9 -1.4 9.0 -1.45 L7.4 -2.75 5.3 -3.7 Q3.9 -3.05 3.2 -2.0 M9.35 1.05 L6.45 1.25 3.9 0.75 Q3.15 0.5 2.55 0.1 2.6 -1.1 3.2 -2.0" fill="none" stroke="#000000" stroke-linecap="round" stroke-linejoin="round" stroke-opacity="0.3019608" stroke-width="0.05"/>
      <path d="M6.45 1.25 L6.65 -0.75" fill="none" stroke="#662f19" stroke-linecap="round" stroke-linejoin="round" stroke-opacity="0.3019608" stroke-width="0.05"/>
      <path d="M3.2 -2.0 Q4.3 -2.2 6.65 -0.75 7.8 -0.1 9.35 1.05 Z" fill="none" stroke="#000000" stroke-linecap="round" stroke-linejoin="round" stroke-opacity="0.2" stroke-width="0.05"/>
      <path d="M-2.4 5.1 L-3.45 4.25 -2.5 2.6 Q-3.2 2.55 -3.9 3.3 L-3.75 1.3 -3.1 -0.85 Q-1.8 -1.5 -0.65 -1.35 -1.5 -0.65 -1.95 1.95 L-2.4 5.1" fill="#be5a30" fill-rule="evenodd" stroke="none"/>
      <path d="M-0.65 -1.35 Q0.3 -1.2 1.1 -0.55 L0.7 0.9 -0.45 3.05 -2.4 5.1 -1.95 1.95 Q-1.5 -0.65 -0.65 -1.35 M-0.45 3.05 L-1.95 1.95 -0.45 3.05" fill="#a64d29" fill-rule="evenodd" stroke="none"/>
      <path d="M-2.4 5.1 L-3.45 4.25 -2.5 2.6 Q-3.2 2.55 -3.9 3.3 L-3.75 1.3 -3.1 -0.85 Q-1.8 -1.5 -0.65 -1.35 0.3 -1.2 1.1 -0.55 L0.7 0.9 -0.45 3.05 -2.4 5.1" fill="none" stroke="#000000" stroke-linecap="round" stroke-linejoin="round" stroke-opacity="0.3019608" stroke-width="0.05"/>
      <path d="M-1.95 1.95 L-0.45 3.05" fill="none" stroke="#662f19" stroke-linecap="round" stroke-linejoin="round" stroke-opacity="0.3019608" stroke-width="0.05"/>
      <path d="M-2.4 5.1 L-1.95 1.95 Q-1.5 -0.65 -0.65 -1.35" fill="none" stroke="#000000" stroke-linecap="round" stroke-linejoin="round" stroke-opacity="0.2" stroke-width="0.05"/>
      <path d="M1.7 -2.6 L3.25 -1.3 Q4.75 0.35 6.25 3.65 5.25 3.95 4.25 3.65 L3.6 1.75 Q2.8 2.1 2.85 3.25 L1.05 1.6 Q0.15 0.55 -0.45 -0.6 0.35 -1.95 1.7 -2.6" fill="#be5a30" fill-rule="evenodd" stroke="none"/>
      <path d="M1.7 -2.6 Q2.85 -3.2 4.45 -3.2 L5.4 -1.8 5.8 -1.0 3.25 -1.3 5.8 -1.0 Q6.55 1.0 6.25 3.65 4.75 0.35 3.25 -1.3 L1.7 -2.6" fill="#a64d29" fill-rule="evenodd" stroke="none"/>
      <path d="M5.8 -1.0 L5.4 -1.8 4.45 -3.2 Q2.85 -3.2 1.7 -2.6 M5.8 -1.0 Q6.55 1.0 6.25 3.65 5.25 3.95 4.25 3.65 L3.6 1.75 Q2.8 2.1 2.85 3.25 L1.05 1.6 Q0.15 0.55 -0.45 -0.6 0.35 -1.95 1.7 -2.6" fill="none" stroke="#000000" stroke-linecap="round" stroke-linejoin="round" stroke-opacity="0.3019608" stroke-width="0.05"/>
      <path d="M1.7 -2.6 L3.25 -1.3 5.8 -1.0 M3.25 -1.3 Q4.75 0.35 6.25 3.65" fill="none" stroke="#000000" stroke-linecap="round" stroke-linejoin="round" stroke-opacity="0.2" stroke-width="0.05"/>
    </g>
  </defs>
</svg>
