<?xml version="1.0" encoding="UTF-8" standalone="no"?>
<svg xmlns:xlink="http://www.w3.org/1999/xlink" height="440.0px" width="440.0px" xmlns="http://www.w3.org/2000/svg">
  <g transform="matrix(10.0, 0.0, 0.0, 10.0, 0.0, 0.0)">
    <use height="44.0" transform="matrix(1.0, 0.0, 0.0, 1.0, 0.0, 0.0)" width="44.0" xlink:href="#shape0"/>
    <use height="21.35" transform="matrix(0.9253, -0.3782, 0.3782, 0.9253, 16.1443, 23.1394)" width="17.2" xlink:href="#sprite0"/>
    <use height="32.0" transform="matrix(0.9253, -0.3782, 0.3782, 0.9253, 4.7527, 4.7566)" width="16.8" xlink:href="#sprite1"/>
    <use height="39.65" transform="matrix(1.0, 0.0, 0.0, 1.0, 5.3, 2.5)" width="33.05" xlink:href="#shape3"/>
  </g>
  <defs>
    <g id="shape0" transform="matrix(1.0, 0.0, 0.0, 1.0, 0.0, 0.0)">
      <path d="M44.0 44.0 L0.0 44.0 0.0 0.0 44.0 0.0 44.0 44.0" fill="#43adca" fill-opacity="0.0" fill-rule="evenodd" stroke="none"/>
    </g>
    <g id="sprite0" transform="matrix(1.0, 0.0, 0.0, 1.0, 5.85, 1.7)">
      <use height="21.35" transform="matrix(1.0, 0.0, 0.0, 1.0, -5.85, -1.7)" width="17.2" xlink:href="#shape1"/>
    </g>
    <g id="shape1" transform="matrix(1.0, 0.0, 0.0, 1.0, 5.85, 1.7)">
      <path d="M-5.85 5.0 L-5.8 2.55 -5.55 1.75 -4.65 0.6 -3.65 -0.55 -2.6 -1.15 -1.0 -1.5 0.7 -1.7 2.7 -1.05 3.6 -0.45 3.95 -0.15 3.95 -0.05 4.05 -0.1 4.7 0.65 5.5 2.3 6.0 4.5 Q7.25 9.85 9.8 13.05 L11.35 14.3 9.55 14.35 8.35 13.35 8.3 13.3 8.25 13.25 6.9 11.8 5.8 9.45 5.3 9.05 5.2 8.9 4.2 6.75 4.1 7.75 4.1 8.1 4.15 8.4 Q2.35 9.8 2.55 11.7 L1.7 10.3 Q0.95 9.75 0.3 9.5 L0.3 9.45 -0.95 0.9 -0.95 0.7 -1.0 0.9 -1.05 1.1 -1.5 3.65 -1.95 9.2 -1.95 9.9 Q-2.55 10.6 -2.85 12.15 L-2.8 13.85 Q-2.5 17.8 -1.65 18.65 L-2.05 18.85 -4.15 16.25 Q-5.35 14.3 -5.8 12.05 L-5.8 10.75 -5.85 5.0" fill="#566d5d" fill-rule="evenodd" stroke="none"/>
      <path d="M3.95 -0.15 L4.05 -0.1 3.95 -0.05 3.95 -0.15" fill="#cccccc" fill-rule="evenodd" stroke="none"/>
      <path d="M7.85 14.6 L6.15 14.95 Q4.35 10.4 4.15 8.4 L4.1 8.1 4.2 8.4 Q5.6 12.55 7.85 14.6 M0.1 17.9 Q-0.65 18.05 -1.1 18.35 L-1.15 18.3 -1.45 16.8 -1.45 16.75 Q-2.0 13.45 -1.95 9.9 -1.5 9.35 -0.85 9.3 -0.55 14.4 0.1 17.9" fill="#659272" fill-rule="evenodd" stroke="none"/>
      <path d="M-1.0 0.9 L-0.95 0.9 0.3 9.45 0.3 9.5 -0.85 9.3 -1.05 1.1 -1.0 0.9 M4.1 8.1 L4.1 7.75 4.2 6.75 5.2 8.9 5.3 9.05 4.2 8.4 4.1 8.1" fill="#405245" fill-rule="evenodd" stroke="none"/>
      <path d="M6.15 14.95 L6.1 15.0 Q5.5 17.25 4.9 17.5 L3.25 17.75 1.95 14.55 Q0.75 11.4 0.3 9.5 0.95 9.75 1.7 10.3 L2.55 11.7 Q2.35 9.8 4.15 8.4 4.35 10.4 6.15 14.95 M-1.15 18.35 L-1.4 18.5 -1.65 18.65 Q-2.5 17.8 -2.8 13.85 L-2.85 12.15 Q-2.55 10.6 -1.95 9.9 -2.0 13.45 -1.45 16.75 L-1.45 16.8 -1.15 18.3 -1.15 18.35 M5.3 9.05 L5.8 9.45 6.9 11.8 Q6.25 11.05 5.3 9.05" fill="#8aae95" fill-rule="evenodd" stroke="none"/>
      <path d="M8.8 14.4 L7.85 14.6 Q5.6 12.55 4.2 8.4 L5.3 9.05 Q6.25 11.05 6.9 11.8 7.8 13.45 8.95 14.35 L8.8 14.4 M3.25 17.75 L0.1 17.9 Q-0.55 14.4 -0.85 9.3 L0.3 9.5 Q0.75 11.4 1.95 14.55 L3.25 17.75" fill="#729e7e" fill-rule="evenodd" stroke="none"/>
      <path d="M9.55 14.35 L9.0 14.4 8.95 14.35 Q7.8 13.45 6.9 11.8 L8.25 13.25 8.3 13.3 8.35 13.35 9.55 14.35" fill="#4b5f51" fill-rule="evenodd" stroke="none"/>
      <path d="M9.0 14.4 L8.95 14.4 8.95 14.35 9.0 14.4" fill="#ad9430" fill-rule="evenodd" stroke="none"/>
      <path d="M8.95 14.4 L8.8 14.4 8.95 14.35 8.95 14.4" fill="#555ba0" fill-rule="evenodd" stroke="none"/>
      <path d="M-1.0 0.9 L-0.95 0.7 -0.95 0.9 -1.0 0.9" fill="#2b301a" fill-rule="evenodd" stroke="none"/>
      <path d="M-1.95 9.9 L-1.95 9.2 -1.5 3.65 -1.05 1.1 -0.85 9.3 Q-1.5 9.35 -1.95 9.9" fill="#324036" fill-rule="evenodd" stroke="none"/>
      <path d="M-1.1 18.35 L-1.15 18.35 -1.15 18.3 -1.1 18.35" fill="#384913" fill-rule="evenodd" stroke="none"/>
      <path d="M-2.05 18.85 L-1.3 19.5 -1.25 19.55 -1.3 19.6 Q-3.75 19.85 -5.2 18.7 -5.7 15.3 -5.8 12.05 -5.35 14.3 -4.15 16.25 L-2.05 18.85" fill="#acd9ba" fill-rule="evenodd" stroke="none"/>
      <path d="M5.5 2.3 L6.0 4.5 Q7.25 9.85 9.8 13.05 L11.35 14.3 M9.55 14.35 L9.0 14.4 8.95 14.4 M8.8 14.4 L7.85 14.6 M6.1 15.0 Q5.5 17.25 4.9 17.5 L3.25 17.75 0.1 17.9 Q-0.65 18.05 -1.1 18.35 L-1.15 18.35 -1.4 18.5 -1.65 18.65 -2.05 18.85 -4.15 16.25 Q-5.35 14.3 -5.8 12.05 L-5.8 10.75 -5.85 5.0 M-1.3 19.5 L-1.25 19.55 -1.3 19.6 Q-3.75 19.85 -5.2 18.7 -5.7 15.3 -5.8 12.05 M8.95 14.35 L9.0 14.4" fill="none" stroke="#45574a" stroke-linecap="round" stroke-linejoin="round" stroke-width="0.05"/>
      <path d="M-2.6 -0.45 L-2.6 -1.15 M8.55 14.0 L8.95 14.35 M7.0 11.9 L7.55 12.8 M5.8 9.45 L6.2 10.4 M5.0 6.95 L5.3 7.95 M4.45 4.65 L4.65 5.65 M3.95 2.1 L4.15 3.1 M-2.75 2.0 L-2.7 1.0 M-2.85 4.75 L-2.85 3.75 M-2.9 7.2 L-2.9 6.2 M-2.9 9.65 L-2.9 8.6 M-2.85 12.15 L-2.85 11.15 M-2.5 16.2 L-2.65 15.2 M-1.65 18.65 L-2.15 17.75 M3.6 -0.45 L3.75 0.55" fill="none" stroke="#45574a" stroke-linecap="round" stroke-linejoin="round" stroke-width="0.5"/>
    </g>
    <g id="sprite1" transform="matrix(1.0, 0.0, 0.0, 1.0, 3.05, 2.05)">
      <use height="32.0" transform="matrix(1.0, 0.0, 0.0, 1.0, -3.05, -2.05)" width="16.8" xlink:href="#shape2"/>
    </g>
    <g id="shape2" transform="matrix(1.0, 0.0, 0.0, 1.0, 3.05, 2.05)">
      <path d="M2.5 -1.5 L2.45 -1.6 2.5 -1.6 3.0 -0.75 2.5 -1.5" fill="#c84524" fill-rule="evenodd" stroke="none"/>
      <path d="M2.5 -1.6 L2.45 -1.6 2.2 -2.05 5.65 0.5 8.75 3.05 Q9.8 6.8 10.5 11.85 L10.55 12.1 11.6 18.85 12.15 24.4 11.4 25.85 Q10.4 21.8 9.85 15.95 8.5 1.35 4.55 2.0 4.9 1.15 4.0 -0.05 L3.85 -0.25 2.5 -1.6 M3.7 28.0 L2.2 26.45 0.8 24.5 0.7 24.2 0.75 19.45 0.7 13.65 Q0.45 9.15 -1.05 3.55 -4.2 -1.1 -2.4 0.3 L-0.15 2.35 1.8 3.0 Q4.5 7.7 3.85 22.2 L3.7 28.0" fill="#566d5d" fill-rule="evenodd" stroke="none"/>
      <path d="M11.4 25.85 L11.15 26.05 8.05 28.15 6.85 28.65 5.8 21.75 5.6 19.9 5.4 20.8 5.2 21.75 4.6 28.4 3.7 28.0 3.85 22.2 Q4.5 7.7 1.8 3.0 L2.55 3.2 2.95 3.2 3.65 2.8 3.8 2.7 3.95 2.5 3.95 2.55 3.9 2.6 3.9 2.55 3.95 2.55 3.9 2.55 3.9 2.6 3.95 2.55 3.95 2.5 4.35 2.2 4.55 2.0 Q8.5 1.35 9.85 15.95 10.4 21.8 11.4 25.85 M3.75 2.75 L3.65 2.8 3.6 2.85 3.65 2.85 3.75 2.75 3.9 2.6 3.8 2.7 3.9 2.6 3.75 2.75" fill="#8aae95" fill-rule="evenodd" stroke="none"/>
      <path d="M5.6 28.6 L4.6 28.4 5.2 21.75 5.4 20.8 5.6 28.6" fill="#659272" fill-rule="evenodd" stroke="none"/>
      <path d="M6.85 28.65 L5.6 28.6 5.4 20.8 5.6 19.9 5.8 21.75 6.85 28.65" fill="#729e7e" fill-rule="evenodd" stroke="none"/>
      <path d="M3.0 -0.75 L2.5 -1.6 3.85 -0.25 4.0 -0.05 Q4.9 1.15 4.55 2.0 L4.35 2.2 3.95 2.5 3.85 1.35 3.2 -0.35 3.05 -0.65 3.0 -0.75" fill="#405144" fill-rule="evenodd" stroke="none"/>
      <path d="M2.45 -1.6 L2.5 -1.5 M3.0 -0.75 L2.5 -1.6 M2.45 -1.6 L2.2 -2.05 5.65 0.5 8.75 3.05 Q9.8 6.8 10.5 11.85 L10.55 12.1 11.6 18.85 M0.8 24.5 L0.7 24.2 0.75 19.45 0.7 13.65 Q0.45 9.15 -1.05 3.55 -4.2 -1.1 -2.4 0.3 L-0.15 2.35 1.8 3.0 2.55 3.2 2.95 3.2 3.65 2.8 3.8 2.7 M3.95 2.5 L3.85 1.35 3.2 -0.35 3.05 -0.65 3.0 -0.75 M3.75 2.75 L3.65 2.8 3.6 2.85 3.65 2.85 M3.75 2.75 L3.9 2.6 3.8 2.7 M3.95 2.5 L3.95 2.55 3.9 2.6 3.9 2.55 3.95 2.55" fill="none" stroke="#45574a" stroke-linecap="round" stroke-linejoin="round" stroke-width="0.05"/>
      <path d="M-0.15 4.3 Q3.55 11.0 3.2 27.7 L3.2 28.15 3.15 28.4" fill="none" stroke="url(#gradient0)" stroke-linecap="round" stroke-linejoin="round" stroke-width="0.25"/>
      <path d="M3.15 28.4 L3.15 28.85" fill="none" stroke="url(#gradient1)" stroke-linecap="round" stroke-linejoin="round" stroke-width="0.25"/>
      <path d="M8.65 6.75 Q9.15 8.55 9.0 10.25" fill="none" stroke="url(#gradient2)" stroke-linecap="round" stroke-linejoin="round" stroke-width="0.25"/>
      <path d="M1.3 5.5 L6.45 15.3 6.9 15.95" fill="none" stroke="url(#gradient3)" stroke-linecap="round" stroke-linejoin="round" stroke-width="0.25"/>
      <path d="M8.85 9.0 L8.95 8.55 9.0 18.35 Q7.9 26.05 7.35 23.75 6.85 21.5 5.25 17.2 L1.65 7.45 6.8 16.75 Q7.65 18.05 8.15 16.25 8.75 13.1 8.85 9.0 M6.45 2.6 Q8.15 4.25 8.3 10.55 L8.3 10.7 Q7.8 15.3 6.65 15.05 L6.55 15.05 6.5 14.95 6.35 14.75 6.05 14.3 0.9 4.5 0.8 4.3 Q6.15 7.65 6.45 4.55 L6.45 2.6" fill="#264844" fill-opacity="0.27058825" fill-rule="evenodd" stroke="none"/>
      <path d="M4.0 23.75 L3.45 25.05 3.45 25.0 4.0 23.75 M4.8 28.15 Q5.4 24.6 4.25 23.3 L4.3 23.2 5.15 23.2 6.15 23.35 Q8.2 23.65 9.0 26.5 8.55 28.15 6.25 28.55 L4.8 28.15 M9.15 24.2 Q9.3 22.6 9.85 21.85 L9.85 21.75 10.3 21.25 10.55 21.15 Q12.3 22.45 13.05 24.1 12.8 26.25 11.1 26.75 9.4 27.4 9.15 24.2" fill="#8aae95" fill-rule="evenodd" stroke="none"/>
      <path d="M9.0 26.5 L9.25 27.75 Q9.05 25.65 9.15 24.2 9.4 27.4 11.1 26.75 12.8 26.25 13.05 24.1 L13.05 23.95 Q13.1 26.45 12.2 28.1 11.5 28.6 9.25 27.75 8.0 30.45 5.25 29.85 L4.15 29.35 4.8 28.15 6.25 28.55 Q8.55 28.15 9.0 26.5 M3.35 25.35 L3.45 25.0 3.45 25.05 3.35 25.35" fill="#6a8572" fill-rule="evenodd" stroke="none"/>
      <path d="M4.0 23.75 L4.25 23.3 4.0 23.75 3.45 25.0 3.35 25.35 3.1 25.85 3.1 16.8 Q5.25 22.35 6.95 21.9 8.6 21.45 9.1 20.45 9.6 19.4 9.85 15.95 10.05 12.5 11.05 21.2 12.35 21.75 13.05 22.65 L13.05 23.95 13.05 24.1 Q12.3 22.45 10.55 21.15 L10.3 21.25 9.85 21.75 9.85 21.85 Q9.3 22.6 9.15 24.2 9.05 25.65 9.25 27.75 L9.0 26.5 Q8.2 23.65 6.15 23.35 L5.15 23.2 4.3 23.2 4.25 23.3 Q5.4 24.6 4.8 28.15 L4.4 27.7 Q3.55 26.45 3.45 25.05 L4.0 23.75 M11.05 21.2 L10.75 21.05 10.55 21.15 10.75 21.05 11.05 21.2" fill="#566d5d" fill-rule="evenodd" stroke="none"/>
      <path d="M3.45 25.05 Q3.55 26.45 4.4 27.7 L4.8 28.15 4.15 29.35 Q2.4 27.85 3.35 25.35 L3.45 25.05 M13.05 23.95 L13.05 22.65 Q13.9 23.9 13.75 25.75 13.65 27.1 12.2 28.1 13.1 26.45 13.05 23.95" fill="#3c4d41" fill-rule="evenodd" stroke="none"/>
      <path d="M4.25 23.3 L4.0 23.75 3.45 25.05 M4.25 23.3 L4.3 23.2 5.15 23.2 6.15 23.35 Q8.2 23.65 9.0 26.5 L9.25 27.75 Q9.05 25.65 9.15 24.2 9.3 22.6 9.85 21.85 L9.85 21.75 10.3 21.25 10.55 21.15 10.75 21.05 11.05 21.2 M3.1 25.85 L3.35 25.35 3.45 25.0 4.0 23.75 M13.05 22.65 Q12.35 21.75 11.05 21.2 M13.05 22.65 Q13.9 23.9 13.75 25.75 13.65 27.1 12.2 28.1 11.5 28.6 9.25 27.75 8.0 30.45 5.25 29.85 L4.15 29.35 Q2.4 27.85 3.35 25.35 L3.45 25.05" fill="none" stroke="#000000" stroke-linecap="round" stroke-linejoin="round" stroke-opacity="0.3019608" stroke-width="0.05"/>
      <path d="M7.8 5.05 L7.4 4.2 M6.65 3.0 L6.0 2.35 M2.65 5.0 L2.25 4.0 M3.25 7.4 L3.05 6.45 M3.85 12.3 L3.75 11.3 M3.6 9.85 L3.5 8.9 M9.4 12.0 L9.3 11.05 M9.05 9.6 L8.85 8.65 M8.5 7.25 L8.25 6.4 M9.7 14.4 L9.6 13.45 M9.95 17.05 L9.85 15.95 M3.9 14.75 L3.9 13.75 M3.9 17.2 L3.9 16.2 M3.9 19.65 L3.9 18.65 M3.85 22.1 L3.85 21.1 M4.6 24.3 L4.1 23.55 M10.35 19.55 L10.15 18.55 M10.9 21.65 L10.7 21.0 M12.75 23.6 L12.35 22.75 M12.65 26.0 L12.85 25.05 M11.85 28.25 L12.2 27.35 M4.35 29.25 L4.9 28.35 M5.1 26.8 L5.0 25.85" fill="none" stroke="#45574a" stroke-linecap="round" stroke-linejoin="round" stroke-width="0.5"/>
      <path d="M11.8 24.8 L10.2 26.85 Q11.2 25.9 13.2 25.45 M6.05 26.35 L8.15 27.15 Q6.15 27.1 4.9 28.15" fill="none" stroke="#000000" stroke-linecap="round" stroke-linejoin="round" stroke-opacity="0.4509804" stroke-width="0.30000000000000004"/>
    </g>
    <linearGradient gradientTransform="matrix(0.0055, 0.0124, -0.0143, 0.0063, 1.55, 17.05)" gradientUnits="userSpaceOnUse" id="gradient0" spreadMethod="pad" x1="-819.2" x2="819.2">
      <stop offset="0.0" stop-color="#000000" stop-opacity="0.0"/>
      <stop offset="0.23921568627450981" stop-color="#000000" stop-opacity="0.39215687"/>
      <stop offset="0.788235294117647" stop-color="#000000" stop-opacity="0.37254903"/>
      <stop offset="0.9019607843137255" stop-color="#000000" stop-opacity="0.0"/>
    </linearGradient>
    <linearGradient gradientTransform="matrix(0.0055, 0.0124, -0.0143, 0.0063, 1.5, 16.1)" gradientUnits="userSpaceOnUse" id="gradient1" spreadMethod="pad" x1="-819.2" x2="819.2">
      <stop offset="0.0" stop-color="#000000" stop-opacity="0.0"/>
      <stop offset="0.23921568627450981" stop-color="#000000" stop-opacity="0.39215687"/>
      <stop offset="0.788235294117647" stop-color="#000000" stop-opacity="0.37254903"/>
      <stop offset="0.9019607843137255" stop-color="#000000" stop-opacity="0.0"/>
    </linearGradient>
    <linearGradient gradientTransform="matrix(0.0014, -0.0087, 0.0098, 0.0016, 8.5, 10.3)" gradientUnits="userSpaceOnUse" id="gradient2" spreadMethod="pad" x1="-819.2" x2="819.2">
      <stop offset="0.0" stop-color="#000000" stop-opacity="0.0"/>
      <stop offset="0.23921568627450981" stop-color="#000000" stop-opacity="0.39215687"/>
      <stop offset="0.788235294117647" stop-color="#000000" stop-opacity="0.37254903"/>
      <stop offset="0.9019607843137255" stop-color="#000000" stop-opacity="0.0"/>
    </linearGradient>
    <linearGradient gradientTransform="matrix(0.0034, 0.0, 0.0, 0.0065, 3.95, 10.65)" gradientUnits="userSpaceOnUse" id="gradient3" spreadMethod="pad" x1="-819.2" x2="819.2">
      <stop offset="0.0" stop-color="#000000" stop-opacity="0.0"/>
      <stop offset="0.23921568627450981" stop-color="#000000" stop-opacity="0.39215687"/>
      <stop offset="0.788235294117647" stop-color="#000000" stop-opacity="0.37254903"/>
      <stop offset="0.9019607843137255" stop-color="#000000" stop-opacity="0.0"/>
    </linearGradient>
    <g id="shape3" transform="matrix(1.0, 0.0, 0.0, 1.0, -5.3, -2.5)">
      <path d="M22.55 12.5 Q19.95 8.1 17.6 5.0 L13.8 3.8 9.6 2.75 10.0 3.05 10.1 3.15 10.85 3.65 10.9 3.75 11.15 4.0 12.4 5.3 12.95 6.3 12.95 6.4 12.9 6.4 12.8 6.7 12.85 6.65 12.85 6.75 12.8 6.8 12.8 6.75 12.3 7.35 11.9 7.5 9.1 7.7 6.25 6.7 Q4.05 6.1 8.75 9.2 12.2 13.8 14.15 17.9 L16.4 23.2 17.75 26.5 17.8 27.05 18.7 29.35 20.9 34.65 21.4 35.85 Q22.75 38.8 24.45 41.75 26.25 42.25 28.4 41.15 L28.45 41.05 28.35 41.05 27.45 40.75 27.7 40.35 27.9 40.15 28.1 39.95 28.15 39.9 29.05 39.0 33.35 36.85 Q33.8 36.35 33.5 34.1 L33.55 34.0 35.8 32.45 35.95 32.4 36.0 32.4 38.1 31.45 36.2 30.85 Q33.35 29.25 30.75 26.1 31.1 25.05 30.8 24.15 30.25 22.35 28.95 21.5 28.4 21.15 27.65 21.05 L26.25 18.55 22.7 12.7 22.55 12.5 Z" fill="none" stroke="#000000" stroke-linecap="round" stroke-linejoin="round" stroke-opacity="0.3019608" stroke-width="0.5"/>
    </g>
  </defs>
</svg>
