<?xml version="1.0" encoding="UTF-8" standalone="no"?>
<svg xmlns:xlink="http://www.w3.org/1999/xlink" height="440.0px" width="440.0px" xmlns="http://www.w3.org/2000/svg">
  <g transform="matrix(10.0, 0.0, 0.0, 10.0, 0.0, 0.0)">
    <use height="44.0" transform="matrix(1.0, 0.0, 0.0, 1.0, 0.0, 0.0)" width="44.0" xlink:href="#shape0"/>
    <use height="21.4" transform="matrix(-0.866, 0.5, 0.5, 0.866, 30.9642, 15.5728)" width="17.35" xlink:href="#sprite0"/>
    <use height="31.0" transform="matrix(-0.866, 0.5, 0.5, 0.866, 15.8436, 0.813)" width="15.4" xlink:href="#sprite2"/>
  </g>
  <defs>
    <g id="shape0" transform="matrix(1.0, 0.0, 0.0, 1.0, 0.0, 0.0)">
      <path d="M44.0 44.0 L0.0 44.0 0.0 0.0 44.0 0.0 44.0 44.0" fill="#43adca" fill-opacity="0.0" fill-rule="evenodd" stroke="none"/>
      <path d="M28.35 22.55 L28.1 22.3 27.6 21.75 27.45 21.55 26.85 20.85 26.75 20.75 25.9 19.7 25.7 19.5 21.45 14.15 21.25 14.0 Q18.15 9.95 15.35 7.2 L11.3 6.45 10.85 6.4 10.65 6.4 7.1 6.1 7.6 6.35 7.6 6.4 7.65 6.45 8.45 6.85 8.55 6.85 8.85 7.05 Q10.45 8.05 10.9 9.25 L10.9 9.3 10.5 9.75 Q10.6 10.15 10.3 10.4 L9.9 10.5 7.3 11.05 4.35 10.45 Q2.05 10.1 7.1 12.55 11.2 16.65 13.65 20.45 L17.6 27.15 17.75 27.4 17.8 27.5 18.25 28.4" fill="none" stroke="#382510" stroke-linecap="round" stroke-linejoin="round" stroke-opacity="0.5019608" stroke-width="1.0"/>
      <path d="M18.35 28.1 L18.75 28.85 18.85 29.05 18.95 29.15 19.45 30.05 21.55 33.7 22.3 35.0 22.95 36.15 26.85 41.6 Q28.65 41.85 30.65 40.4 L30.65 40.35 30.6 40.35 29.6 40.1 29.9 39.8 30.05 39.5 30.15 39.25 30.2 39.25 Q30.45 38.75 31.05 38.25 L32.3 37.35 33.75 36.45 34.5 36.05 34.6 35.9 35.0 35.5 Q35.35 35.0 35.3 34.4 L35.25 34.1 35.15 33.8 35.0 33.55 34.8 33.2 34.75 32.65 34.85 32.6 36.8 30.85 38.95 29.5 37.35 29.3 37.0 29.2 Q34.0 28.05 31.1 25.3 L29.45 23.7 28.8 23.05 28.6 22.85" fill="none" stroke="#382510" stroke-linecap="round" stroke-linejoin="round" stroke-opacity="0.5019608" stroke-width="1.0"/>
    </g>
    <g id="sprite0" transform="matrix(1.0, 0.0, 0.0, 1.0, 11.65, 1.85)">
      <use height="21.4" transform="matrix(-1.0, 0.0, 0.0, 1.0, 5.7, -1.85)" width="17.35" xlink:href="#sprite1"/>
    </g>
    <g id="sprite1" transform="matrix(1.0, 0.0, 0.0, 1.0, 5.7, 1.85)">
      <use height="21.4" transform="matrix(1.0, 0.0, 0.0, 1.0, -5.7, -1.85)" width="17.35" xlink:href="#shape1"/>
    </g>
    <g id="shape1" transform="matrix(1.0, 0.0, 0.0, 1.0, 5.7, 1.85)">
      <path d="M1.95 9.7 Q1.95 9.4 2.25 9.4 2.7 9.4 2.6 9.7 L2.25 10.0 Q1.8 10.0 1.95 9.7" fill="#484b23" fill-rule="evenodd" stroke="none"/>
      <path d="M-0.95 18.25 L-0.95 18.2 -0.9 18.25 -0.95 18.25 M9.0 14.3 L9.15 14.25 9.15 14.3 9.0 14.3 M7.4 14.65 L6.8 14.8 6.45 14.85 6.35 14.85 7.15 14.7 7.4 14.65 M11.6 14.2 L11.65 14.25 11.55 14.25 11.6 14.2 M6.8 14.8 L7.15 14.7 6.8 14.8" fill="#97bfe5" fill-rule="evenodd" stroke="none"/>
      <path d="M3.65 -0.65 L3.45 -0.6 3.45 -0.65 3.45 -0.8 3.65 -0.65 M11.55 14.25 L11.55 14.2 11.6 14.2 11.55 14.25" fill="#b8baa0" fill-rule="evenodd" stroke="none"/>
      <path d="M-0.85 1.0 L-0.8 0.85 -0.75 0.85 -0.7 1.0 -0.85 1.0 M2.75 16.4 L2.8 16.45 2.8 16.5 2.75 16.4" fill="#a8a88a" fill-rule="evenodd" stroke="none"/>
      <path d="M-5.6 11.95 Q-5.15 14.2 -3.95 16.15 L-3.3 17.15 -3.2 17.25 -3.1 17.4 -2.25 18.35 -1.85 18.75 -1.1 19.4 -1.05 19.45 -1.1 19.5 Q-3.55 19.75 -5.0 18.6 -5.5 15.2 -5.6 11.95 M-0.7 1.0 L-0.55 2.45 -0.55 2.7 -0.45 3.55 -0.4 3.85 -0.25 5.0 0.25 7.95 0.35 8.65 0.5 9.35 Q1.1 12.1 1.85 14.2 L2.75 16.4 2.8 16.5 3.45 17.65 1.85 17.7 0.3 17.8 -0.45 12.9 Q-1.3 6.6 -0.85 1.0 L-0.7 1.0 M4.3 8.0 L4.3 7.65 4.3 7.3 4.3 7.0 4.3 6.45 4.35 6.45 4.55 7.1 4.6 7.3 4.9 8.05 5.95 10.2 6.1 10.4 7.5 12.2 8.1 12.85 8.45 13.15 8.5 13.2 8.55 13.25 9.85 14.2 9.85 14.25 9.15 14.3 9.15 14.25 9.0 14.3 8.05 14.5 6.5 12.7 6.4 12.5 5.35 10.6 Q4.75 9.45 4.3 8.0" fill="#e6e8c8" fill-rule="evenodd" stroke="none"/>
      <path d="M-5.6 2.45 L-5.55 2.4 -5.35 1.65 -5.1 1.15 -4.9 0.85 -4.6 0.45 -4.2 0.0 -4.0 -0.2 -3.95 -0.2 -3.95 -0.25 -3.85 -0.3 -3.45 -0.65 -2.25 -1.35 -1.6 -1.6 -1.55 -1.65 -1.45 -1.65 -0.9 -1.75 -0.55 -1.8 0.1 -1.85 0.25 -1.85 0.9 -1.8 1.0 -1.8 1.05 -1.8 1.3 -1.7 1.3 -1.65 1.25 -1.6 1.35 -0.85 1.35 -0.65 1.5 0.85 1.7 2.45 1.75 2.7 1.8 2.7 1.8 2.45 1.6 0.85 1.4 -0.65 1.4 -0.85 1.3 -1.6 1.3 -1.65 1.35 -1.7 1.5 -1.7 2.0 -1.55 2.15 -1.5 2.65 -1.3 2.9 -1.15 3.2 -0.95 3.25 -0.65 3.6 0.75 3.4 0.85 3.6 0.85 3.8 1.55 3.6 2.2 3.5 2.45 3.45 2.6 3.4 2.7 4.1 2.7 4.05 2.45 3.85 1.3 3.85 1.15 3.8 0.85 3.75 0.65 3.45 -0.6 3.65 -0.65 4.15 -0.25 4.15 -0.15 4.25 -0.2 4.5 0.05 4.9 0.55 5.1 0.85 5.7 2.2 5.75 2.45 5.8 2.7 5.9 3.2 5.9 3.25 6.0 3.55 6.2 4.4 6.85 6.65 Q8.0 10.45 10.0 12.95 L10.25 13.25 11.55 14.2 10.35 14.25 11.55 14.2 11.55 14.25 10.35 14.25 9.85 14.25 9.85 14.2 8.55 13.25 8.5 13.2 8.45 13.15 8.1 12.85 7.5 12.2 6.1 10.4 5.95 10.2 4.9 8.05 4.6 7.3 4.55 7.1 4.35 6.45 4.3 6.45 4.3 7.0 4.3 7.3 4.3 7.65 4.3 8.0 4.5 9.75 Q4.85 11.75 5.65 13.5 L5.65 13.55 6.15 14.55 6.35 14.85 6.3 14.9 6.1 15.3 6.1 15.75 6.1 16.0 6.05 16.35 5.95 16.65 5.1 17.4 4.6 17.55 4.4 17.6 4.25 17.6 3.55 17.65 3.45 17.65 2.8 16.5 2.8 16.45 2.75 16.4 1.85 14.2 Q1.1 12.1 0.5 9.35 L0.35 8.65 0.25 7.95 -0.25 5.0 -0.4 3.85 -0.45 3.55 -0.55 2.7 -0.55 2.45 -0.7 1.0 -0.75 0.85 -0.75 0.8 -0.75 0.6 -0.8 0.8 -0.8 0.85 -0.85 1.0 -1.15 2.45 -1.15 2.7 -1.2 2.8 -1.3 3.55 -1.35 4.05 -1.7 7.65 -1.75 8.25 -1.75 9.1 -1.7 12.0 Q-1.65 14.4 -1.25 16.65 L-1.25 16.7 -0.95 18.2 -0.95 18.25 -1.2 18.4 -1.45 18.6 -1.85 18.75 -2.25 18.35 -3.1 17.4 -3.2 17.25 -3.3 17.15 -3.95 16.15 Q-5.15 14.2 -5.6 11.95 L-5.6 10.65 -5.65 9.15 -5.65 4.9 -5.65 3.9 -5.65 3.75 -5.65 3.55 -5.6 2.7 -5.6 2.55 -5.6 2.45" fill="#d8ca7c" fill-rule="evenodd" stroke="none"/>
      <path d="M-0.95 18.2 L-1.25 16.7 -1.25 16.65 Q-1.65 14.4 -1.7 12.0 L-1.75 9.1 -1.75 8.25 -1.7 7.65 -1.35 4.05 -1.3 3.55 -1.2 2.8 -1.15 2.7 -1.15 2.45 -0.85 1.0 Q-1.3 6.6 -0.45 12.9 L0.3 17.8 -0.9 18.25 -0.95 18.2 M6.35 14.85 L6.15 14.55 5.65 13.55 5.65 13.5 Q4.85 11.75 4.5 9.75 L4.3 8.0 Q4.75 9.45 5.35 10.6 L6.4 12.5 6.5 12.7 8.05 14.5 7.75 14.6 7.4 14.65 7.15 14.7 6.35 14.85 M7.75 14.6 L7.15 14.7 7.75 14.6" fill="#aa9833" fill-rule="evenodd" stroke="none"/>
      <path d="M-5.6 2.45 L-5.6 2.55 -5.6 2.7 -5.65 3.55 -5.65 3.75 -5.65 3.9 -5.65 4.9 -5.65 9.15 -5.6 10.65 -5.6 11.95 Q-5.5 15.2 -5.0 18.6 -3.55 19.75 -1.1 19.5 L-1.05 19.45 -1.1 19.4 -1.85 18.75 -1.45 18.6 -1.2 18.4 -0.95 18.25 M3.45 17.65 L3.55 17.65 4.25 17.6 4.4 17.6 4.6 17.55 5.1 17.4 5.95 16.65 6.05 16.35 6.1 16.0 6.1 15.75 6.1 15.3 M10.35 14.25 L11.55 14.2 10.25 13.25 10.0 12.95 Q8.0 10.45 6.85 6.65 L6.2 4.4 6.0 3.55 5.9 3.25 M8.05 14.5 L9.0 14.3 9.15 14.3 10.35 14.25 M8.05 14.5 L7.75 14.6 M6.8 14.8 L6.45 14.85 6.35 14.85 6.1 15.3 M7.15 14.7 L6.8 14.8 M7.15 14.7 L7.75 14.6 M0.3 17.8 L1.85 17.7 3.45 17.65 M0.3 17.8 L-0.9 18.25 -0.95 18.25" fill="none" stroke="#737564" stroke-linecap="round" stroke-linejoin="round" stroke-width="0.05"/>
    </g>
    <g id="sprite2" transform="matrix(1.0, 0.0, 0.0, 1.0, 12.55, 2.15)">
      <use height="31.0" transform="matrix(-1.0, 0.0, 0.0, 1.0, 2.85, -2.15)" width="15.4" xlink:href="#sprite3"/>
    </g>
    <g id="sprite3" transform="matrix(1.0, 0.0, 0.0, 1.0, 2.85, 2.15)">
      <use height="31.0" transform="matrix(1.0, 0.0, 0.0, 1.0, -2.85, -2.15)" width="15.4" xlink:href="#shape2"/>
    </g>
    <g id="shape2" transform="matrix(1.0, 0.0, 0.0, 1.0, 2.85, 2.15)">
      <path d="M5.0 25.1 L4.95 26.0 4.9 26.05 5.0 25.1" fill="#ac9d7d" fill-rule="evenodd" stroke="none"/>
      <path d="M4.05 2.55 L4.1 2.45 4.1 2.55 4.05 2.55" fill="#97bfe5" fill-rule="evenodd" stroke="none"/>
      <path d="M2.7 -1.7 L2.65 -1.7 2.4 -2.15 5.3 -0.15 5.45 0.0 5.85 0.25 8.95 2.95 Q10.0 6.7 10.7 11.75 L10.75 12.0 11.8 18.75 11.85 19.05 12.1 20.35 12.1 20.5 12.25 21.4 12.3 21.65 12.45 22.4 12.55 22.75 12.5 22.75 12.5 22.95 12.35 24.3 12.1 24.95 12.05 25.05 11.65 25.8 10.65 26.7 10.5 26.8 9.6 27.25 9.3 27.4 8.25 28.05 7.8 28.25 7.05 28.55 6.9 27.85 6.8 27.15 6.75 26.8 6.3 24.2 6.25 24.15 6.15 23.05 6.1 22.75 6.0 21.65 5.8 19.8 5.6 20.7 5.4 21.65 5.35 22.0 5.25 22.75 5.2 23.25 5.0 25.1 4.9 26.05 4.85 26.8 4.85 26.85 4.8 27.45 4.8 28.3 4.4 28.15 Q3.6 27.8 2.95 27.25 L2.55 26.9 2.5 26.85 2.45 26.8 2.25 26.65 1.85 26.15 Q1.15 25.2 0.9 24.1 L0.9 22.75 0.95 21.75 0.95 21.65 0.95 21.35 0.9 13.55 Q0.65 9.05 -0.85 3.45 -4.0 -1.2 -2.2 0.2 L0.05 2.25 2.6 3.05 3.0 3.15 3.5 2.7 4.05 2.55 4.1 2.55 4.1 2.65 4.3 2.45 4.85 1.55 Q4.9 0.8 4.2 -0.15 L4.05 -0.35 2.7 -1.7" fill="#d8ca7c" fill-rule="evenodd" stroke="none"/>
      <path d="M7.05 28.55 L6.65 28.55 6.5 28.55 5.8 28.5 5.6 20.7 5.8 19.8 6.0 21.65 6.1 22.75 6.15 23.05 6.25 24.15 6.3 24.2 6.75 26.8 6.8 27.15 6.9 27.85 7.05 28.55" fill="#e6e8c8" fill-rule="evenodd" stroke="none"/>
      <path d="M5.8 28.5 L4.8 28.3 4.8 27.45 4.85 26.85 4.85 26.8 4.9 26.05 4.95 26.0 5.0 25.1 5.2 23.25 5.25 22.75 5.35 22.0 5.4 21.65 5.6 20.7 5.8 28.5" fill="#aa9833" fill-rule="evenodd" stroke="none"/>
      <path d="M3.2 -0.85 L2.7 -1.7 4.05 -0.35 4.2 -0.15 Q4.9 0.8 4.85 1.55 L4.3 2.45 4.1 2.65 4.1 2.55 4.1 2.45 Q4.3 1.2 3.4 -0.45 L3.25 -0.75 3.2 -0.85" fill="#baae6b" fill-rule="evenodd" stroke="none"/>
      <path d="M2.65 -1.7 L2.65 -1.65 2.7 -1.6 3.2 -0.85 M2.65 -1.7 L2.4 -2.15 5.3 -0.15 5.45 0.0 5.85 0.25 8.95 2.95 Q10.0 6.7 10.7 11.75 L10.75 12.0 11.8 18.75 11.85 19.05 12.1 20.35 12.1 20.5 12.25 21.4 12.3 21.65 12.45 22.4 12.55 22.75 M0.9 22.75 L0.95 21.75 0.95 21.65 0.95 21.35 0.9 13.55 Q0.65 9.05 -0.85 3.45 -4.0 -1.2 -2.2 0.2 L0.05 2.25 2.6 3.05 3.0 3.15 3.5 2.7 4.05 2.55 4.1 2.45 Q4.3 1.2 3.4 -0.45 L3.25 -0.75 3.2 -0.85" fill="none" stroke="#737564" stroke-linecap="round" stroke-linejoin="round" stroke-width="0.05"/>
      <path d="M4.75 12.05 L4.65 12.2 4.5 12.25 Q4.25 12.25 4.0 12.05 L3.9 11.95 3.65 11.4 3.3 10.7 3.05 10.1 Q3.8 10.45 4.3 10.95 L4.75 12.05 M3.1 12.15 L3.25 12.45 3.05 12.2 3.1 12.15 M4.35 13.4 L4.25 13.6 3.95 13.9 3.7 14.05 3.35 14.15 3.2 14.25 3.9 13.5 4.35 13.4" fill="#cfe4fe" fill-rule="evenodd" stroke="none"/>
      <path d="M3.05 10.1 L3.3 10.7 3.65 11.4 3.9 11.95 4.0 12.05 Q4.25 12.25 4.5 12.25 L4.65 12.2 4.75 12.05 4.95 12.4 4.9 12.4 Q4.25 13.5 3.7 13.55 L3.25 13.5 3.05 13.15 2.3 12.55 3.05 12.2 3.25 12.45 3.1 12.15 3.05 11.95 2.9 11.35 2.2 9.85 3.05 10.1 M3.75 12.8 L3.45 12.55 3.25 12.45 3.45 12.55 3.75 12.8 M3.2 14.25 L3.35 14.15 3.7 14.05 3.95 13.9 4.25 13.6 4.35 13.4 4.5 13.35 3.7 14.55 3.45 14.65 3.3 14.65 2.65 14.7 3.2 14.25" fill="#b5d6fd" fill-rule="evenodd" stroke="none"/>
      <path d="M3.05 10.1 L2.2 9.85 2.9 11.35 3.05 11.95 3.1 12.15 3.25 12.45 3.45 12.55 3.75 12.8 M3.1 12.15 L3.05 12.2 2.3 12.55 3.05 13.15 3.25 13.5 3.7 13.55 Q4.25 13.5 4.9 12.4 L4.95 12.4 4.75 12.05 4.3 10.95 Q3.8 10.45 3.05 10.1 M4.35 13.4 L3.9 13.5 3.2 14.25 2.65 14.7 3.3 14.65 3.45 14.65 3.7 14.55 4.5 13.35 4.35 13.4" fill="none" stroke="#375673" stroke-linecap="round" stroke-linejoin="round" stroke-opacity="0.3019608" stroke-width="0.05"/>
      <path d="M9.15 9.75 L9.25 9.7 9.1 10.1 9.15 9.75 M8.65 8.15 L8.6 8.8 8.55 9.6 8.4 10.25 8.4 10.4 8.0 11.0 7.9 11.1 7.8 11.05 7.85 9.85 8.65 8.15 M9.6 11.35 L9.45 11.45 9.2 11.65 8.9 11.8 8.6 11.8 8.5 11.7 8.8 11.45 9.6 11.35" fill="#cfe4fe" fill-rule="evenodd" stroke="none"/>
      <path d="M9.25 9.7 L9.95 9.4 Q9.45 10.25 9.45 10.45 L9.35 10.8 9.05 11.25 7.75 11.4 7.75 11.45 7.8 11.05 7.9 11.1 8.0 11.0 8.4 10.4 8.4 10.25 8.55 9.6 8.6 8.8 8.65 8.15 9.3 7.25 9.1 9.0 9.15 9.6 9.15 9.75 9.1 10.1 9.25 9.7 M8.75 10.75 L8.95 10.3 9.1 10.1 8.95 10.3 8.75 10.75 M9.6 11.35 L10.15 11.3 Q9.7 11.65 9.6 11.7 L9.55 11.9 9.3 12.0 8.4 11.8 8.5 11.7 8.6 11.8 8.9 11.8 9.2 11.65 9.45 11.45 9.6 11.35" fill="#b5d6fd" fill-rule="evenodd" stroke="none"/>
      <path d="M9.3 7.25 L9.35 7.05 M9.25 9.7 L9.95 9.4 10.05 9.3 M9.3 7.25 L9.1 9.0 9.15 9.6 9.15 9.75 9.25 9.7 M9.1 10.1 L8.95 10.3 8.75 10.75 M8.65 8.15 L7.85 9.85 7.8 11.05 7.75 11.45 7.75 11.4 9.05 11.25 9.35 10.8 9.45 10.45 Q9.45 10.25 9.95 9.4 M9.15 9.75 L9.1 10.1 M8.5 11.7 L8.4 11.8 9.3 12.0 9.55 11.9 9.6 11.7 Q9.7 11.65 10.15 11.3 L9.6 11.35 M8.5 11.7 L8.8 11.45 9.6 11.35 M8.65 8.15 L9.3 7.25 Z" fill="none" stroke="#375673" stroke-linecap="round" stroke-linejoin="round" stroke-opacity="0.3019608" stroke-width="0.05"/>
      <path d="M7.5 10.6 Q8.5 11.6 8.7 12.65 8.9 14.1 8.45 15.4 8.1 16.65 7.15 17.1 6.25 17.5 5.45 16.8 4.75 16.1 4.55 14.65 4.35 13.6 4.95 11.8 5.45 10.1 5.95 9.85 6.5 9.6 7.5 10.6" fill="#c2d8ca" fill-rule="evenodd" stroke="none"/>
      <path d="M7.5 10.6 Q8.5 11.6 8.7 12.65 8.9 14.1 8.45 15.4 8.1 16.65 7.15 17.1 6.25 17.5 5.45 16.8 4.75 16.1 4.55 14.65 4.35 13.6 4.95 11.8 5.45 10.1 5.95 9.85 6.5 9.6 7.5 10.6 Z" fill="none" stroke="#375673" stroke-linecap="round" stroke-linejoin="round" stroke-opacity="0.3019608" stroke-width="0.05"/>
      <path d="M5.6 13.95 L5.25 14.25 Q5.0 14.25 4.85 13.95 4.7 13.65 4.7 13.15 4.7 12.7 4.85 12.35 5.0 12.1 5.25 12.1 L5.6 12.35 5.75 13.15 5.6 13.95" fill="#f0f4f1" fill-rule="evenodd" stroke="none"/>
      <path d="M7.7 16.05 L7.45 16.0 7.35 15.7 7.35 15.35 7.55 15.15 7.75 15.2 7.85 15.45 7.85 15.85 7.7 16.05 M6.45 16.1 L6.4 16.5 6.3 16.7 6.05 16.7 5.9 16.35 5.95 16.05 6.15 15.8 6.3 15.85 6.45 16.1" fill="#4f7559" fill-rule="evenodd" stroke="none"/>
      <path d="M0.05 4.2 Q3.75 10.9 3.4 27.6 L3.4 28.05 3.35 28.3" fill="none" stroke="url(#gradient0)" stroke-linecap="round" stroke-linejoin="round" stroke-width="0.25"/>
      <path d="M3.35 28.3 L3.35 28.75" fill="none" stroke="url(#gradient1)" stroke-linecap="round" stroke-linejoin="round" stroke-width="0.25"/>
      <path d="M8.85 6.65 Q9.35 8.45 9.2 10.15" fill="none" stroke="url(#gradient2)" stroke-linecap="round" stroke-linejoin="round" stroke-width="0.25"/>
      <path d="M1.5 5.4 L6.65 15.2 7.1 15.85" fill="none" stroke="url(#gradient3)" stroke-linecap="round" stroke-linejoin="round" stroke-width="0.25"/>
      <path d="M9.05 8.9 L9.15 8.45 9.2 18.25 Q8.1 25.95 7.55 23.65 7.05 21.4 5.45 17.1 L1.85 7.35 7.0 16.65 Q7.85 17.95 8.35 16.15 8.95 13.0 9.05 8.9 M6.65 2.5 Q8.35 4.15 8.5 10.45 L8.5 10.6 Q8.0 15.2 6.85 14.95 L6.75 14.95 6.7 14.85 6.55 14.65 6.25 14.2 1.1 4.4 1.0 4.2 1.2 4.35 Q6.35 7.5 6.65 4.45 L6.65 2.5" fill="#3e3c28" fill-opacity="0.19215687" fill-rule="evenodd" stroke="none"/>
    </g>
    <linearGradient gradientTransform="matrix(0.0055, 0.0124, -0.0143, 0.0063, 1.75, 16.95)" gradientUnits="userSpaceOnUse" id="gradient0" spreadMethod="pad" x1="-819.2" x2="819.2">
      <stop offset="0.0" stop-color="#000000" stop-opacity="0.0"/>
      <stop offset="0.23921568627450981" stop-color="#000000" stop-opacity="0.39215687"/>
      <stop offset="0.788235294117647" stop-color="#000000" stop-opacity="0.37254903"/>
      <stop offset="0.9019607843137255" stop-color="#000000" stop-opacity="0.0"/>
    </linearGradient>
    <linearGradient gradientTransform="matrix(0.0055, 0.0124, -0.0143, 0.0063, 1.7, 16.0)" gradientUnits="userSpaceOnUse" id="gradient1" spreadMethod="pad" x1="-819.2" x2="819.2">
      <stop offset="0.0" stop-color="#000000" stop-opacity="0.0"/>
      <stop offset="0.23921568627450981" stop-color="#000000" stop-opacity="0.39215687"/>
      <stop offset="0.788235294117647" stop-color="#000000" stop-opacity="0.37254903"/>
      <stop offset="0.9019607843137255" stop-color="#000000" stop-opacity="0.0"/>
    </linearGradient>
    <linearGradient gradientTransform="matrix(0.0014, -0.0087, 0.0098, 0.0016, 8.7, 10.2)" gradientUnits="userSpaceOnUse" id="gradient2" spreadMethod="pad" x1="-819.2" x2="819.2">
      <stop offset="0.0" stop-color="#000000" stop-opacity="0.0"/>
      <stop offset="0.23921568627450981" stop-color="#000000" stop-opacity="0.39215687"/>
      <stop offset="0.788235294117647" stop-color="#000000" stop-opacity="0.37254903"/>
      <stop offset="0.9019607843137255" stop-color="#000000" stop-opacity="0.0"/>
    </linearGradient>
    <linearGradient gradientTransform="matrix(0.0034, 0.0, 0.0, 0.0065, 4.15, 10.55)" gradientUnits="userSpaceOnUse" id="gradient3" spreadMethod="pad" x1="-819.2" x2="819.2">
      <stop offset="0.0" stop-color="#000000" stop-opacity="0.0"/>
      <stop offset="0.23921568627450981" stop-color="#000000" stop-opacity="0.39215687"/>
      <stop offset="0.788235294117647" stop-color="#000000" stop-opacity="0.37254903"/>
      <stop offset="0.9019607843137255" stop-color="#000000" stop-opacity="0.0"/>
    </linearGradient>
  </defs>
</svg>
