<?xml version="1.0" encoding="UTF-8" standalone="no"?>
<svg xmlns:xlink="http://www.w3.org/1999/xlink" height="440.0px" width="440.0px" xmlns="http://www.w3.org/2000/svg">
  <g transform="matrix(10.0, 0.0, 0.0, 10.0, 0.0, 0.0)">
    <use height="44.0" transform="matrix(1.0, 0.0, 0.0, 1.0, 0.0, 0.0)" width="44.0" xlink:href="#shape0"/>
  </g>
  <defs>
    <g id="shape0" transform="matrix(1.0, 0.0, 0.0, 1.0, 0.0, 0.0)">
      <path d="M44.0 44.0 L0.0 44.0 0.0 0.0 44.0 0.0 44.0 44.0" fill="#43adca" fill-opacity="0.0" fill-rule="evenodd" stroke="none"/>
      <path d="M14.9 5.0 L15.9 5.5 19.6 10.9 Q23.1 20.2 21.35 21.2 18.7 22.55 15.0 19.5 17.15 23.8 18.8 25.3 20.2 26.65 22.15 26.45 23.55 26.35 25.1 24.2 28.2 29.0 26.8 35.3 32.5 26.5 24.5 17.2 27.45 18.8 28.25 20.85 L26.95 17.35 28.15 19.15 Q29.4 21.35 31.1 23.1 L31.85 23.8 Q34.5 26.1 38.05 27.15 L37.35 28.75 Q35.75 32.05 33.5 34.55 30.55 38.5 26.75 39.7 21.65 37.7 17.5 29.6 L15.5 23.6 13.7 19.2 11.05 13.95 Q15.3 18.95 18.2 17.6 20.45 12.7 14.9 5.0 M33.5 29.95 Q33.1 28.35 30.05 24.0 33.25 30.95 29.25 36.15 31.6 34.0 33.5 29.95" fill="#272e21" fill-rule="evenodd" stroke="none"/>
      <path d="M15.9 5.5 L14.9 5.0 Q12.95 4.15 11.35 4.55 L8.85 3.75 14.1 3.55 15.9 5.5 M11.05 13.95 L13.7 19.2 Q13.15 20.65 11.05 17.5 9.7 14.6 7.9 12.25 9.8 12.8 11.05 13.95 M15.5 23.6 L17.5 29.6 Q17.8 33.65 19.45 36.95 L18.05 35.15 Q15.25 30.8 14.4 27.45 L14.3 27.15 Q13.8 23.15 15.5 23.6 M26.75 39.7 Q30.55 38.5 33.5 34.55 34.15 35.8 32.75 38.65 L30.15 41.2 Q26.45 41.5 24.45 40.6 L22.7 39.65 Q24.7 40.4 26.75 39.7 M37.35 28.75 L38.05 27.15 39.8 25.5 Q39.75 28.6 37.5 32.0 36.45 32.55 37.35 28.75 M31.85 23.8 L31.1 23.1 Q30.1 20.55 30.45 19.0 L31.1 20.05 Q32.9 22.4 34.55 23.8 34.0 24.65 31.85 23.8 M28.15 19.15 L26.95 17.35 Q26.3 14.25 24.75 11.2 L27.85 15.15 Q29.0 18.1 28.15 19.15" fill="#d6a73e" fill-rule="evenodd" stroke="none"/>
      <path d="M11.35 4.55 Q12.95 4.15 14.9 5.0 20.45 12.7 18.2 17.6 15.3 18.95 11.05 13.95 L9.45 11.35 Q8.45 9.65 6.45 8.45 8.9 9.4 11.25 9.05 13.75 6.3 11.35 4.55 M26.95 17.35 L28.25 20.85 Q27.45 18.8 24.5 17.2 32.5 26.5 26.8 35.3 28.2 29.0 25.1 24.2 23.55 26.35 22.15 26.45 20.2 26.65 18.8 25.3 17.15 23.8 15.0 19.5 18.7 22.55 21.35 21.2 23.1 20.2 19.6 10.9 L15.9 5.5 Q18.25 6.8 20.95 9.75 L26.95 17.35 M14.0 8.1 Q12.65 8.85 11.25 9.05 12.65 8.85 14.0 8.1 M33.5 29.95 Q31.6 34.0 29.25 36.15 33.25 30.95 30.05 24.0 33.1 28.35 33.5 29.95 M16.5 12.05 Q15.55 14.05 11.05 10.75 15.55 14.05 16.5 12.05" fill="#1a1f16" fill-rule="evenodd" stroke="none"/>
      <path d="M15.9 5.5 L14.1 3.55 Q17.3 3.85 19.05 5.65 L19.45 5.95 Q22.35 8.5 24.75 11.2 26.3 14.25 26.95 17.35 L20.95 9.75 Q18.25 6.8 15.9 5.5 M17.5 29.6 Q21.65 37.7 26.75 39.7 24.7 40.4 22.7 39.65 20.85 38.5 19.45 36.95 17.8 33.65 17.5 29.6 M38.05 27.15 Q34.5 26.1 31.85 23.8 34.0 24.65 34.55 23.8 37.55 26.4 39.8 25.5 L38.05 27.15 M7.9 12.25 Q5.9 9.6 3.2 7.8 5.5 7.95 6.45 8.45 8.45 9.65 9.45 11.35 L11.05 13.95 Q9.8 12.8 7.9 12.25" fill="#a17d2e" fill-rule="evenodd" stroke="none"/>
      <path d="M13.7 19.2 L15.5 23.6 Q13.8 23.15 14.3 27.15 L12.35 21.25 11.05 17.5 Q13.15 20.65 13.7 19.2 M33.5 34.55 Q35.75 32.05 37.35 28.75 36.45 32.55 37.5 32.0 34.85 36.55 32.75 38.65 34.15 35.8 33.5 34.55 M31.1 23.1 Q29.4 21.35 28.15 19.15 29.0 18.1 27.85 15.15 L30.45 19.0 Q30.1 20.55 31.1 23.1" fill="#eccb82" fill-rule="evenodd" stroke="none"/>
      <path d="M14.1 3.55 L8.85 3.75 11.35 4.55 Q12.95 4.15 14.9 5.0 20.45 12.7 18.2 17.6 M24.5 17.2 Q32.5 26.5 26.8 35.3 M24.75 11.2 Q22.35 8.5 19.45 5.95 L19.05 5.65 Q17.3 3.85 14.1 3.55 M6.45 8.45 Q5.5 7.95 3.2 7.8 5.9 9.6 7.9 12.25 9.7 14.6 11.05 17.5 L12.35 21.25 14.3 27.15 14.4 27.45 Q15.25 30.8 18.05 35.15 L19.45 36.95 Q20.85 38.5 22.7 39.65 L24.45 40.6 Q26.45 41.5 30.15 41.2 L32.75 38.65 Q34.85 36.55 37.5 32.0 39.75 28.6 39.8 25.5 37.55 26.4 34.55 23.8 32.9 22.4 31.1 20.05 L30.45 19.0 27.85 15.15 24.75 11.2 M6.45 8.45 Q8.9 9.4 11.25 9.05 13.75 6.3 11.35 4.55 M11.25 9.05 Q12.65 8.85 14.0 8.1 M11.05 10.75 Q15.55 14.05 16.5 12.05" fill="none" stroke="#000000" stroke-linecap="round" stroke-linejoin="round" stroke-opacity="0.3019608" stroke-width="0.5"/>
      <path d="M20.35 11.05 L18.7 10.95 Q17.4 11.2 16.4 12.05 14.9 13.2 14.85 14.95 L14.85 15.15 15.4 15.2 14.85 15.15 Q14.75 16.0 15.25 16.95 15.65 17.7 16.4 18.1 L17.85 18.45 17.6 18.6 Q17.25 19.55 17.5 20.5 18.8 20.95 20.6 20.0 20.5 19.45 19.6 18.35 L20.8 17.5 21.8 16.55 22.15 17.25 22.85 18.3 Q23.65 16.85 23.5 15.35 23.15 14.85 22.4 14.6 22.5 12.85 21.65 11.9 L20.35 11.05 20.3 11.35 20.35 11.05 M19.85 13.85 Q19.7 13.25 20.0 12.7 L20.5 12.25 Q21.6 12.15 21.75 13.1 21.9 13.7 21.7 14.3 20.9 15.2 20.3 14.7 19.95 14.35 19.85 13.85 M16.85 17.2 Q16.55 17.1 16.5 16.9 16.25 16.35 16.45 15.85 L16.8 15.3 18.4 15.35 Q19.1 16.0 19.1 16.4 L18.7 17.05 Q18.2 17.45 17.45 17.35 L16.85 17.2 M16.6 17.65 L16.4 18.1 16.6 17.65 M22.15 17.25 L22.3 16.85 22.15 17.25" fill="#ffffcc" fill-rule="evenodd" stroke="none"/>
      <path d="M14.85 15.15 L14.25 15.1 M20.65 10.3 L20.35 11.05 20.3 11.35 M15.4 15.2 L14.85 15.15 M16.4 18.1 L16.25 18.4 M16.4 18.1 L16.6 17.65 M22.3 16.85 L22.15 17.25 21.95 17.7" fill="none" stroke="#000000" stroke-linecap="round" stroke-linejoin="round" stroke-opacity="0.3019608" stroke-width="0.5"/>
    </g>
  </defs>
</svg>
