<?xml version="1.0" encoding="UTF-8" standalone="no"?>
<svg xmlns:xlink="http://www.w3.org/1999/xlink" height="440.0px" width="440.0px" xmlns="http://www.w3.org/2000/svg">
  <g transform="matrix(10.0, 0.0, 0.0, 10.0, 0.0, 0.0)">
    <use height="44.0" transform="matrix(1.0, 0.0, 0.0, 1.0, 0.0, 0.0)" width="44.0" xlink:href="#shape0"/>
  </g>
  <defs>
    <g id="shape0" transform="matrix(1.0, 0.0, 0.0, 1.0, 0.0, 0.0)">
      <path d="M44.0 44.0 L0.0 44.0 0.0 0.0 44.0 0.0 44.0 44.0" fill="#43adca" fill-opacity="0.0" fill-rule="evenodd" stroke="none"/>
      <path d="M17.95 24.35 L17.95 24.4 17.9 24.4 17.95 24.35 M26.25 21.95 L26.2 22.0 26.15 21.9 26.25 21.95" fill="#cccccc" fill-rule="evenodd" stroke="none"/>
      <path d="M35.6 35.0 L35.7 34.9 35.75 34.95 35.6 35.0 M38.15 34.1 L38.25 34.15 38.15 34.15 38.15 34.1" fill="#555ba0" fill-rule="evenodd" stroke="none"/>
      <path d="M29.95 39.0 L30.0 39.0 29.95 39.05 29.95 39.0" fill="#596a61" fill-rule="evenodd" stroke="none"/>
      <path d="M33.4 36.2 L33.15 36.3 33.05 36.35 33.4 36.2" fill="#856e35" fill-rule="evenodd" stroke="none"/>
      <path d="M21.5 24.45 L21.45 24.25 21.55 24.45 21.5 24.45" fill="#2b301a" fill-rule="evenodd" stroke="none"/>
      <path d="M26.7 41.95 L26.7 41.9 26.75 41.95 26.7 41.95" fill="#384913" fill-rule="evenodd" stroke="none"/>
      <path d="M35.7 34.9 L35.8 34.95 35.75 34.95 35.7 34.9" fill="#ad9430" fill-rule="evenodd" stroke="none"/>
      <path d="M26.95 43.25 L26.9 43.15 26.95 43.2 26.95 43.25" fill="#d5be66" fill-rule="evenodd" stroke="none"/>
      <path d="M34.65 32.15 L34.6 32.15 34.4 32.0 34.45 32.0 34.65 32.15 M34.6 32.15 L34.45 32.0 34.6 32.15" fill="#222222" fill-rule="evenodd" stroke="none"/>
      <path d="M17.95 24.35 L18.05 24.25 18.35 23.8 19.2 22.9 19.3 22.75 19.9 22.3 19.9 22.25 Q20.3 22.05 20.6 21.95 20.8 21.8 20.95 21.8 21.2 21.65 21.55 21.55 L22.4 21.35 22.5 21.3 22.55 21.3 22.8 21.3 22.8 21.35 22.8 21.45 23.2 22.35 23.7 23.3 23.25 22.35 22.85 21.4 22.8 21.35 22.85 21.3 23.0 21.25 24.35 21.3 24.65 21.4 25.0 21.5 25.7 22.3 25.35 21.7 25.3 21.55 25.55 21.65 25.7 21.7 26.15 21.9 26.2 22.0 26.25 21.95 Q26.8 22.15 27.2 22.5 L28.1 23.35 28.5 23.9 28.65 24.1 28.75 24.35 29.0 24.85 29.05 24.9 29.2 25.15 29.7 25.95 29.9 26.25 Q31.1 28.2 34.45 32.0 L34.4 32.0 34.6 32.15 34.65 32.15 34.9 32.35 36.2 34.8 35.8 34.95 35.7 34.9 35.6 35.0 34.7 35.5 34.25 35.7 33.05 36.35 33.0 36.4 32.95 36.85 33.1 37.3 33.15 37.55 Q33.4 38.65 32.6 39.25 L32.15 39.55 31.05 40.0 29.4 40.55 27.8 41.1 26.75 41.95 26.7 41.9 26.7 41.95 26.5 42.15 26.35 42.3 26.3 42.25 Q24.65 41.9 23.35 41.1 L23.0 40.75 Q21.15 39.15 20.0 37.05 L19.6 35.75 18.8 33.25 17.8 30.0 17.5 29.0 17.45 28.85 17.35 28.65 17.15 27.8 17.1 27.65 17.1 27.55 17.1 26.7 17.15 26.35 17.2 26.1 17.45 25.25 17.75 24.7 17.9 24.4 17.95 24.4 17.95 24.35 M29.95 39.0 L29.95 39.05 30.0 39.0 29.95 39.0 M21.5 24.45 L21.55 24.45 21.45 24.25 21.5 24.45" fill="#00354d" fill-rule="evenodd" stroke="none"/>
      <path d="M20.0 37.05 Q21.15 39.15 23.0 40.75 L23.35 41.1 Q21.55 39.95 20.4 38.15 L20.0 37.05" fill="#0289c1" fill-rule="evenodd" stroke="none"/>
      <path d="M26.7 41.95 L26.75 41.95" fill="none" stroke="#000000" stroke-linecap="round" stroke-linejoin="round" stroke-opacity="0.3019608" stroke-width="0.05"/>
      <path d="M26.95 43.25 L26.95 43.2 26.9 43.15" fill="none" stroke="#7b6b53" stroke-linecap="round" stroke-linejoin="round" stroke-width="0.05"/>
      <path d="M35.7 34.9 L35.8 34.95" fill="none" stroke="#00cc33" stroke-linecap="round" stroke-linejoin="round" stroke-width="0.05"/>
      <path d="M26.35 42.3 L26.5 42.15 26.7 41.95 M26.75 41.95 L27.8 41.1 29.4 40.55 31.05 40.0 32.15 39.55 32.6 39.25 Q33.4 38.65 33.15 37.55 L33.1 37.3 32.95 36.85 33.0 36.4 M34.7 35.5 L35.6 35.0 M35.8 34.95 L36.2 34.8 M34.6 32.15 L34.4 32.0 34.45 32.0 34.6 32.15 M34.65 32.15 L34.45 32.0 M35.75 34.95 L35.8 34.95 M33.05 36.35 L33.15 36.3 33.4 36.2 34.25 35.7 M20.4 38.15 L20.0 37.05" fill="none" stroke="#000000" stroke-linecap="round" stroke-linejoin="round" stroke-opacity="0.2" stroke-width="0.05"/>
      <path d="M17.1 27.55 L17.1 27.65 17.15 27.8 17.35 28.65 17.45 28.85 17.5 29.0 17.8 30.0 18.8 33.25 19.6 35.75 20.0 37.05 Q21.15 39.15 23.0 40.75 L23.35 41.1 M36.2 34.8 L34.9 32.35 34.65 32.15 M34.45 32.0 Q31.1 28.2 29.9 26.25 L29.7 25.95 29.2 25.15 29.05 24.9 29.0 24.85 28.75 24.35 28.65 24.1 28.5 23.9 28.1 23.35" fill="none" stroke="#000000" stroke-linecap="round" stroke-linejoin="round" stroke-opacity="0.3019608" stroke-width="0.5"/>
      <path d="M21.6 24.7 L21.55 24.5 21.6 24.45 22.3 26.05 22.4 26.3 22.75 27.1 22.9 27.4 23.4 28.5 24.8 31.3 25.15 32.0 25.5 32.65 Q27.8 36.65 29.95 39.0 L30.05 39.05 30.05 39.1 31.1 40.05 29.45 40.6 27.9 41.15 Q23.35 32.6 21.6 24.7 M29.0 30.15 L28.85 29.8 28.75 29.45 28.65 29.15 28.6 28.85 28.65 28.75 28.95 29.15 29.05 29.35 Q30.6 31.5 32.95 33.0 34.4 34.35 35.85 34.9 L35.65 35.0 34.8 35.5 Q31.8 34.1 29.0 30.15" fill="#000000" fill-opacity="0.15294118" fill-rule="evenodd" stroke="none"/>
      <path d="M27.9 41.15 Q27.2 41.5 26.85 41.95 L26.75 41.95 26.0 40.5 26.0 40.45 Q24.3 37.05 23.15 33.05 L22.9 32.2 22.75 31.6 22.0 27.9 21.9 27.4 21.8 26.6 21.8 26.5 21.7 26.25 21.6 24.7 Q23.35 32.6 27.9 41.15 M34.8 35.5 L33.2 36.35 32.85 36.15 32.05 35.3 32.0 35.25 Q30.1 33.1 29.0 30.15 31.8 34.1 34.8 35.5" fill="#000000" fill-opacity="0.3529412" fill-rule="evenodd" stroke="none"/>
      <path d="M29.9 26.2 L31.45 27.05 Q33.3 28.45 34.35 31.05 L32.85 29.85 34.2 31.4 Q36.05 33.9 36.7 36.45 L37.7 38.15 Q38.9 39.85 39.45 39.7 L37.1 40.85 Q36.0 41.1 32.55 39.65 L29.35 38.2 30.15 39.95 30.65 40.8 Q31.55 42.1 32.4 42.5 L29.6 42.75 26.05 40.65 23.3 38.7 25.9 38.35 21.25 35.1 23.4 33.05 Q28.6 32.55 29.95 31.1 L30.15 30.8 30.8 29.9 29.9 26.2" fill="#e8f5f5" fill-rule="evenodd" stroke="none"/>
      <path d="M29.95 31.1 L29.9 26.2 30.8 29.9 30.15 30.8 29.95 31.1 M37.1 40.85 Q33.35 41.7 30.65 40.8 L30.15 39.95 29.35 38.2 32.55 39.65 Q36.0 41.1 37.1 40.85 M29.6 42.75 L26.3 42.25 Q20.05 40.8 18.55 33.3 L23.4 33.05 21.25 35.1 25.9 38.35 23.3 38.7 26.05 40.65 29.6 42.75" fill="#badbdb" fill-rule="evenodd" stroke="none"/>
      <path d="M29.95 31.1 L29.9 26.2 31.45 27.05 Q33.3 28.45 34.35 31.05 L32.85 29.85 34.2 31.4 Q36.05 33.9 36.7 36.45 L37.7 38.15 Q38.9 39.85 39.45 39.7 L37.1 40.85 Q33.35 41.7 30.65 40.8 31.55 42.1 32.4 42.5 L29.6 42.75 26.3 42.25 Q20.05 40.8 18.55 33.3 L23.4 33.05 Q28.6 32.55 29.95 31.1 L30.15 30.8 30.8 29.9" fill="none" stroke="#000000" stroke-linecap="round" stroke-linejoin="round" stroke-opacity="0.3019608" stroke-width="0.5"/>
      <path d="M19.3 6.1 Q21.5 9.55 23.8 14.4 L23.9 14.6 24.6 16.05 25.5 17.95 27.05 21.05 27.2 21.35 27.85 22.55 27.9 22.7 28.3 23.55 28.45 23.8 28.8 24.5 29.05 24.8 29.0 24.85 29.05 25.05 29.15 25.4 29.3 26.45 29.25 27.25 29.0 28.1 28.8 28.4 Q28.4 29.05 28.0 29.1 27.55 29.2 27.0 30.15 L26.3 31.4 25.2 32.3 24.8 32.4 24.65 32.45 23.95 32.6 23.65 32.7 23.1 32.7 22.9 32.7 22.4 32.7 21.8 32.6 20.15 32.0 20.1 31.95 19.8 31.85 19.2 31.45 17.8 29.95 17.6 29.7 17.35 28.9 17.2 28.35 16.9 27.3 16.9 27.2 16.8 26.9 16.25 25.0 16.0 24.2 15.25 21.9 14.35 19.15 12.65 15.15 Q11.6 13.0 10.15 10.6 L19.3 6.1" fill="#00354d" fill-rule="evenodd" stroke="none"/>
      <path d="M19.3 6.1 L18.25 5.55" fill="none" stroke="#000000" stroke-linecap="round" stroke-linejoin="round" stroke-opacity="0.2" stroke-width="0.05"/>
      <path d="M29.05 24.8 L28.8 24.5 28.45 23.8 28.3 23.55 27.9 22.7 27.85 22.55 27.2 21.35 27.05 21.05 25.5 17.95 24.6 16.05 23.9 14.6 23.8 14.4 Q21.5 9.55 19.3 6.1 M10.15 10.6 Q11.6 13.0 12.65 15.15 L14.35 19.15 15.25 21.9 16.0 24.2 16.25 25.0 16.8 26.9 16.9 27.2 16.9 27.3 17.2 28.35 17.35 28.9 17.6 29.7 17.8 29.95" fill="none" stroke="#000000" stroke-linecap="round" stroke-linejoin="round" stroke-opacity="0.3019608" stroke-width="0.5"/>
      <path d="M24.0 32.6 L23.7 32.7 22.9 32.7 22.65 31.85 22.55 31.2 22.4 30.7 21.8 27.55 21.75 27.5 21.65 27.0 21.55 26.2 21.5 25.85 21.4 24.85 24.0 32.6" fill="#000000" fill-opacity="0.3529412" fill-rule="evenodd" stroke="none"/>
      <path d="M21.4 24.85 L21.3 23.9 22.1 25.65 22.5 26.75 22.65 27.05 22.75 27.3 23.1 28.1 23.15 28.15 24.55 30.95 24.9 31.6 25.25 32.25 24.85 32.4 24.7 32.4 24.0 32.6 21.4 24.85" fill="#000000" fill-opacity="0.15294118" fill-rule="evenodd" stroke="none"/>
      <path d="M10.6 10.05 Q16.45 15.65 21.2 32.45 L21.35 32.9 21.4 33.15" fill="none" stroke="url(#gradient0)" stroke-linecap="round" stroke-linejoin="round" stroke-width="0.25"/>
      <path d="M12.45 10.8 L20.7 19.05 21.35 19.55" fill="none" stroke="url(#gradient1)" stroke-linecap="round" stroke-linejoin="round" stroke-width="0.25"/>
      <path d="M20.35 9.85 Q21.4 11.5 21.75 13.25" fill="none" stroke="url(#gradient2)" stroke-linecap="round" stroke-linejoin="round" stroke-width="0.25"/>
      <path d="M21.4 33.15 L21.5 33.6" fill="none" stroke="url(#gradient3)" stroke-linecap="round" stroke-linejoin="round" stroke-width="0.25"/>
      <path d="M11.55 9.75 Q18.05 11.5 17.4 8.3 L16.8 6.35 Q19.05 7.5 21.15 13.75 L21.2 13.9 Q22.1 18.65 20.85 18.75 L20.75 18.75 20.65 18.7 20.45 18.55 20.0 18.15 11.75 9.95 11.55 9.75 M21.2 12.0 L21.2 11.55 24.25 21.35 Q25.5 29.35 24.25 27.25 L20.1 21.3 13.45 12.65 21.5 20.4 Q22.8 21.45 22.75 19.5 22.4 16.15 21.2 12.0" fill="#000000" fill-opacity="0.2" fill-rule="evenodd" stroke="none"/>
      <path d="M13.35 4.35 L13.8 4.05 14.35 3.6 15.45 3.05 16.35 2.7 17.25 2.7 18.3 2.85 19.3 3.25 16.85 3.1 16.25 3.25 15.9 3.45 Q16.35 3.5 17.3 4.05 L14.75 4.1 13.35 4.35 M20.15 4.9 L19.35 4.9 19.0 4.6 20.15 4.9" fill="#e8f5f5" fill-rule="evenodd" stroke="none"/>
      <path d="M19.3 3.25 L18.85 3.45 19.35 3.75 20.15 4.9 19.0 4.6 19.35 4.9 20.3 6.45 18.95 5.35 Q17.35 4.35 15.85 4.4 L13.1 4.9 13.35 4.35 14.75 4.1 17.3 4.05 Q16.35 3.5 15.9 3.45 L16.25 3.25 16.85 3.1 19.3 3.25" fill="#badbdb" fill-rule="evenodd" stroke="none"/>
      <path d="M19.0 4.6 L19.35 4.9" fill="none" stroke="url(#gradient4)" stroke-linecap="round" stroke-linejoin="round" stroke-width="0.05"/>
      <path d="M13.1 4.9 L13.35 4.35" fill="none" stroke="url(#gradient5)" stroke-linecap="round" stroke-linejoin="round" stroke-width="0.05"/>
      <path d="M13.35 4.35 L13.8 4.05 14.35 3.6 15.45 3.05 16.35 2.7 17.25 2.7 18.3 2.85 19.3 3.25 18.85 3.45 19.35 3.75 20.15 4.9 19.35 4.9 20.3 6.45" fill="none" stroke="#000000" stroke-linecap="round" stroke-linejoin="round" stroke-opacity="0.3019608" stroke-width="0.5"/>
      <path d="M16.2 17.0 Q13.85 16.6 10.2 12.3 L9.7 11.05 Q9.7 8.6 10.0 7.55 10.5 6.35 11.3 5.35 L12.0 4.8 Q12.6 4.25 12.95 4.1 14.0 4.55 15.3 5.4 L15.5 5.55 18.5 7.8 19.2 8.65 18.85 7.7 Q18.25 6.2 17.7 5.65 L18.25 5.75 19.45 6.1 20.85 7.1 Q22.05 8.15 22.9 9.9 L22.25 9.55 22.6 10.7 22.55 13.9 Q22.05 12.65 21.25 11.85 L21.5 12.8 21.4 16.9 Q18.7 15.0 17.25 11.6 15.7 12.0 15.5 13.15 16.6 14.55 16.2 17.0" fill="#e8f5f5" fill-rule="evenodd" stroke="none"/>
      <path d="M12.95 4.1 L13.9 3.95 15.0 3.9 15.15 3.9 17.25 4.2 Q18.95 4.85 19.05 5.0 L21.15 7.05 22.0 7.95 22.9 9.9 Q22.05 8.15 20.85 7.1 L19.45 6.1 18.25 5.75 17.7 5.65 Q18.25 6.2 18.85 7.7 L19.2 8.65 18.5 7.8 15.5 5.55 15.3 5.4 Q14.0 4.55 12.95 4.1 M22.55 13.9 L21.5 12.8 21.25 11.85 Q22.05 12.65 22.55 13.9 M21.4 16.9 Q17.4 15.05 16.8 14.35 L16.2 17.0 Q16.6 14.55 15.5 13.15 15.7 12.0 17.25 11.6 18.7 15.0 21.4 16.9 M16.8 14.35 L15.5 13.15 16.8 14.35" fill="#badbdb" fill-rule="evenodd" stroke="none"/>
      <path d="M16.2 17.0 Q13.85 16.6 10.2 12.3 L9.7 11.05 Q9.7 8.6 10.0 7.55 10.5 6.35 11.3 5.35 L12.0 4.8 Q12.6 4.25 12.95 4.1 L13.9 3.95 15.0 3.9 15.15 3.9 17.25 4.2 Q18.95 4.85 19.05 5.0 L21.15 7.05 22.0 7.95 22.9 9.9 22.25 9.55 22.6 10.7 22.55 13.9 21.5 12.8 21.4 16.9 Q17.4 15.05 16.8 14.35 L16.2 17.0 M15.5 13.15 L16.8 14.35 M21.5 12.8 L21.25 11.85" fill="none" stroke="#000000" stroke-linecap="round" stroke-linejoin="round" stroke-opacity="0.3019608" stroke-width="0.5"/>
      <path d="M10.35 6.75 L10.4 6.65 10.45 6.7 10.35 6.75" fill="#bfaab6" fill-rule="evenodd" stroke="none"/>
      <path d="M10.35 6.75 L10.45 6.7 11.2 7.25 11.9 7.85 12.35 8.9 12.65 10.3 12.35 10.8 11.6 11.55 9.65 13.3 Q8.95 12.65 9.45 11.8 9.35 11.25 8.5 11.05 7.85 13.0 6.45 14.2 6.35 14.1 6.2 11.9 L6.25 11.4 Q5.9 11.85 5.65 12.55 5.4 11.05 5.5 10.8 L5.65 10.15 5.25 10.35 5.35 10.15 Q5.95 8.7 7.0 8.2 7.35 7.9 7.65 7.85 L7.9 7.8 Q7.6 8.2 7.3 9.5 8.65 7.5 9.9 6.85 L10.35 6.75" fill="#e8f5f5" fill-rule="evenodd" stroke="none"/>
      <path d="M10.4 6.65 L10.35 6.75 9.9 6.85 Q8.65 7.5 7.3 9.5 7.6 8.2 7.9 7.8 L7.65 7.85 Q7.35 7.9 7.0 8.2 5.95 8.7 5.35 10.15 L5.75 9.2 7.15 7.4 7.9 7.05 9.25 6.7 9.85 6.6 10.2 6.6 10.4 6.65 M6.25 11.4 L6.2 11.9 5.65 12.55 Q5.9 11.85 6.25 11.4 M6.45 14.2 Q7.85 13.0 8.5 11.05 9.35 11.25 9.45 11.8 8.95 12.65 9.65 13.3 9.0 12.95 8.9 12.6 L6.45 14.2 M9.45 11.8 L8.9 12.6 9.45 11.8" fill="#badbdb" fill-rule="evenodd" stroke="none"/>
      <path d="M6.25 11.4 L6.2 11.9 M8.9 12.6 L9.45 11.8" fill="none" stroke="#000000" stroke-linecap="round" stroke-linejoin="round" stroke-opacity="0.2" stroke-width="0.05"/>
      <path d="M10.4 6.65 L10.2 6.6 9.85 6.6 9.25 6.7 7.9 7.05 7.15 7.4 5.75 9.2 5.35 10.15 M9.65 13.3 L11.6 11.55 12.35 10.8 12.65 10.3 M6.2 11.9 Q6.35 14.1 6.45 14.2 M9.65 13.3 Q9.0 12.95 8.9 12.6 L6.45 14.2 M5.25 10.35 L5.65 10.15 5.5 10.8 Q5.4 11.05 5.65 12.55 L6.2 11.9" fill="none" stroke="#000000" stroke-linecap="round" stroke-linejoin="round" stroke-opacity="0.3019608" stroke-width="0.5"/>
      <path d="M18.0 7.6 L18.0 8.05 18.45 8.3 18.95 8.15 19.3 7.75 19.3 7.3 Q19.15 7.05 18.85 7.05 L18.35 7.15 18.0 7.6" fill="#002433" fill-rule="evenodd" stroke="none"/>
      <path d="M15.85 9.05 L15.9 9.5 16.3 9.8 16.7 9.7 16.9 9.35 16.8 8.9 16.45 8.65 16.0 8.7 Q15.85 8.8 15.85 9.05" fill="#002433" fill-rule="evenodd" stroke="none"/>
      <path d="M16.5 8.55 L17.45 7.95 18.35 7.35 18.5 7.25 18.7 7.25 18.35 8.0 17.7 8.4 17.2 8.75 16.85 8.95 16.75 8.8 16.5 8.55 M18.35 8.0 L18.35 7.35 18.35 8.0 M17.45 7.95 L17.2 8.75 17.45 7.95" fill="#b0a273" fill-rule="evenodd" stroke="none"/>
      <path d="M18.7 7.25 L18.8 7.25 19.05 7.45 19.15 7.75 18.95 8.0 17.85 8.7 16.9 9.35 16.75 9.4 16.7 9.5 16.45 9.5 16.2 9.3 16.15 9.25 16.15 9.0 16.35 8.75 16.5 8.55 16.75 8.8 16.85 8.95 17.2 8.75 16.9 9.35 17.2 8.75 17.7 8.4 18.35 8.0 18.7 7.25 M18.35 8.0 L18.25 8.15 17.85 8.7 18.25 8.15 18.35 8.0" fill="#7d7251" fill-rule="evenodd" stroke="none"/>
      <path d="M16.5 8.55 L17.45 7.95 18.35 7.35 18.5 7.25 18.7 7.25 18.8 7.25 19.05 7.45 19.15 7.75 18.95 8.0 17.85 8.7 16.9 9.35 16.7 9.5 16.45 9.5 16.2 9.3 16.15 9.25 16.15 9.0 16.35 8.75 16.5 8.55 M17.2 8.75 L17.45 7.95 M18.35 7.35 L18.35 8.0 M16.9 9.35 L16.75 9.4 16.7 9.5 M17.2 8.75 L16.9 9.35 M17.85 8.7 L18.25 8.15 18.35 8.0" fill="none" stroke="#000000" stroke-linecap="round" stroke-linejoin="round" stroke-opacity="0.3019608" stroke-width="0.25"/>
      <path d="M19.05 9.25 L19.15 9.7 Q19.3 9.9 19.6 9.9 L20.1 9.7 20.4 9.25 20.25 8.75 Q20.1 8.6 19.85 8.6 L19.3 8.75 19.05 9.25" fill="#002433" fill-rule="evenodd" stroke="none"/>
      <path d="M17.1 10.95 Q17.05 11.2 17.3 11.35 L17.65 11.6 18.05 11.55 18.2 11.15 18.1 10.75 17.65 10.5 17.3 10.6 17.1 10.95" fill="#002433" fill-rule="evenodd" stroke="none"/>
      <path d="M19.35 9.1 L19.45 9.0 19.7 8.95 19.35 9.7 19.35 9.1 19.35 9.7 18.85 10.2 18.4 10.6 18.35 10.55 18.5 9.75 19.35 9.1 M17.7 10.5 L18.5 9.75 18.35 10.55 18.4 10.6 18.0 10.85 17.9 10.7 17.7 10.5" fill="#b0a273" fill-rule="evenodd" stroke="none"/>
      <path d="M19.35 9.7 L19.7 8.95 19.75 8.9 20.0 9.05 20.1 9.35 20.0 9.65 19.05 10.5 18.1 11.25 18.4 10.6 18.1 11.25 18.0 11.35 17.95 11.4 17.9 11.4 17.7 11.45 17.45 11.25 17.35 11.2 17.3 10.95 17.45 10.7 17.65 10.5 17.7 10.5 17.9 10.7 18.0 10.85 18.4 10.6 18.85 10.2 19.35 9.7 19.3 9.85 19.05 10.5 19.3 9.85 19.35 9.7" fill="#7d7251" fill-rule="evenodd" stroke="none"/>
      <path d="M19.7 8.95 L19.45 9.0 19.35 9.1 M19.7 8.95 L19.75 8.9 20.0 9.05 20.1 9.35 20.0 9.65 19.05 10.5 18.1 11.25 18.0 11.35 17.95 11.4 M17.9 11.4 L17.7 11.45 17.45 11.25 17.35 11.2 17.3 10.95 17.45 10.7 17.65 10.5 M17.7 10.5 L18.5 9.75 19.35 9.1" fill="none" stroke="#000000" stroke-linecap="round" stroke-linejoin="round" stroke-opacity="0.4" stroke-width="0.25"/>
      <path d="M19.35 9.1 L19.35 9.7 M18.1 11.25 L17.95 11.4 17.9 11.4 M19.05 10.5 L19.3 9.85 19.35 9.7 M18.4 10.6 L18.1 11.25 M18.4 10.6 L18.35 10.55 18.5 9.75" fill="none" stroke="#000000" stroke-linecap="round" stroke-linejoin="round" stroke-opacity="0.3019608" stroke-width="0.25"/>
      <path d="M20.2 11.45 L20.25 11.55 20.5 11.9 20.75 12.45 21.15 13.2 21.4 13.7 21.65 14.0 21.95 14.25 22.25 14.3 22.7 14.05 Q22.75 13.95 22.85 13.95 L23.0 13.55 22.95 13.35 22.6 13.0 22.1 12.55 21.7 12.2 21.15 11.8 20.2 11.45 M17.6 14.95 L17.7 15.45 18.05 16.2 18.35 16.7 18.7 17.1 19.0 17.4 19.55 17.65 19.75 17.7 20.3 17.65 20.4 17.55 20.5 17.5 20.65 17.3 20.75 17.25 20.9 16.8 20.8 16.75 20.7 16.55 20.7 16.5 20.15 16.0 19.5 15.2 19.5 15.15 19.05 14.5 18.85 14.2 18.6 13.8 18.45 13.5 18.1 12.7 17.9 13.1 17.65 13.75 17.55 14.7 17.6 14.95 M23.85 13.05 L23.9 13.25 Q24.1 13.95 23.6 14.55 23.1 14.95 22.5 15.15 L22.15 15.25 Q21.25 15.3 20.55 14.05 L20.35 13.6 19.8 12.55 19.7 12.4 19.4 11.85 19.2 12.05 18.95 12.15 18.9 12.15 19.05 12.55 19.25 13.15 19.4 13.35 19.9 14.0 20.35 14.65 20.35 14.7 20.55 14.95 21.15 15.7 21.55 16.2 21.6 16.25 21.8 16.8 Q21.9 17.25 21.6 17.7 L21.2 18.15 20.8 18.4 19.65 18.6 19.55 18.6 18.8 18.3 18.0 17.75 17.95 17.65 17.2 16.75 16.85 15.9 16.6 15.15 16.6 14.7 16.75 13.6 16.75 13.5 17.15 12.45 17.8 11.4 18.0 11.35 17.95 11.15 18.05 10.9 18.25 10.75 18.65 10.75 18.7 10.75 18.75 10.8 18.8 10.75 19.0 10.85 19.15 10.7 19.2 10.65 19.4 10.6 19.75 10.5 Q20.45 10.4 21.3 10.85 L22.3 11.5 22.7 11.8 23.85 13.05" fill="#000000" fill-opacity="0.3019608" fill-rule="evenodd" stroke="none"/>
      <path d="M23.6 11.0 L23.2 11.2 23.05 11.7 22.6 11.45 Q22.35 11.2 22.0 11.05 L21.95 10.9 Q21.85 10.5 22.0 10.35 22.05 10.15 22.25 10.1 L23.2 10.65 23.6 11.0 M23.75 12.5 L23.8 12.5 24.15 12.3 24.65 12.25 24.8 12.45 Q25.0 13.2 24.45 13.75 L24.5 13.8 24.45 13.8 24.1 13.4 24.05 13.35 23.95 12.75 23.9 12.75 23.9 12.7 23.75 12.5 M23.05 13.95 L23.05 14.4 Q22.15 14.55 21.45 13.25 L21.9 13.25 22.2 13.9 22.6 13.95 23.05 13.95 M20.7 11.8 L20.6 11.6 20.35 11.15 20.35 11.1 20.3 10.85 20.3 10.65 20.45 10.5 20.45 10.25 20.3 9.9 20.25 9.8 20.3 9.8 20.7 9.75 Q20.5 9.95 20.6 10.15 L20.85 10.5 21.0 10.65 Q20.8 10.65 20.45 10.8 L20.3 10.85 20.45 10.8 21.15 11.8 20.9 11.8 20.7 11.8 M20.0 11.8 L20.25 12.4 20.1 12.5 19.7 12.75 19.35 12.75 19.0 11.9 18.8 12.35 18.3 11.8 Q18.55 11.1 18.95 10.55 L18.95 10.5 18.9 10.35 18.95 10.25 18.85 10.2 18.85 9.95 19.0 9.8 19.2 9.6 19.2 9.85 19.2 10.0 19.45 10.0 19.35 10.15 19.3 10.2 19.25 10.4 19.25 10.45 19.3 10.45 19.2 10.45 19.15 10.45 19.1 10.55 19.1 10.6 19.05 10.65 Q18.9 11.05 19.0 11.75 L19.05 11.85 19.0 11.85 19.0 11.9 19.0 11.85 19.05 11.85 19.45 12.0 Q19.75 12.0 20.0 11.8 M20.8 13.25 L21.25 13.9 21.45 14.15 20.75 14.35 20.45 14.35 20.0 13.7 20.7 13.35 20.8 13.25 M22.05 14.95 L22.45 15.35 22.5 15.45 22.7 16.0 22.1 16.15 21.8 16.0 21.7 15.95 21.6 15.8 21.55 15.75 21.05 15.2 21.2 15.2 22.05 14.95 M22.5 16.95 L22.1 17.4 21.75 17.65 21.4 17.45 21.3 17.05 Q21.0 17.45 20.4 17.3 L20.35 17.55 20.45 17.8 Q20.05 17.75 19.7 17.5 L19.7 17.15 19.75 17.0 19.2 16.6 18.9 16.3 19.05 16.1 19.25 15.95 19.55 16.3 19.9 16.55 19.85 16.6 19.85 16.65 19.75 17.0 20.1 17.2 20.4 17.3 20.5 16.9 20.65 16.95 21.25 16.9 21.35 16.8 21.45 16.7 21.65 16.55 Q21.85 16.8 22.35 16.9 L22.5 16.95 M18.85 16.9 L18.2 16.0 18.15 15.95 18.35 15.6 18.8 16.25 18.9 16.3 18.85 16.6 18.85 16.9 M17.8 15.1 L17.55 14.35 17.5 13.95 17.55 13.9 17.95 13.75 Q17.95 13.2 18.1 12.65 L18.0 12.65 17.7 12.75 Q17.8 12.25 18.05 11.7 L18.3 11.8 18.2 12.15 18.1 12.65 18.45 12.8 18.55 13.0 Q18.45 13.45 18.5 13.95 L18.15 13.8 17.95 13.75 18.05 14.8 18.3 14.7 18.6 14.65 18.95 15.45 Q18.6 15.35 18.4 15.6 L18.35 15.6 18.05 14.8 17.95 14.85 17.8 15.1 M18.95 10.25 L18.95 10.15 Q19.05 10.0 19.2 10.0 19.05 10.0 18.95 10.15 L18.95 10.25" fill="#968961" fill-rule="evenodd" stroke="none"/>
      <path d="M23.05 11.7 L23.2 11.2 23.6 11.0 24.65 12.25 24.15 12.3 23.8 12.5 23.75 12.5 23.6 12.25 23.05 11.7 M22.25 10.1 Q22.05 10.15 22.0 10.35 21.85 10.5 21.95 10.9 L22.0 11.05 21.15 10.7 21.0 10.65 21.15 10.75 21.4 11.15 21.65 11.6 21.35 11.8 21.15 11.8 20.45 10.8 Q20.8 10.65 21.0 10.65 L20.85 10.5 20.6 10.15 Q20.5 9.95 20.7 9.75 21.35 9.65 22.25 10.1 M23.65 13.25 L23.8 13.1 23.9 12.75 23.95 12.75 24.05 13.35 23.65 13.25 M24.45 13.8 L23.45 14.35 23.05 14.4 23.05 13.95 23.5 13.85 24.05 13.35 24.1 13.4 24.45 13.8 M21.45 13.25 L21.2 12.85 20.7 11.8 20.9 11.8 21.15 11.8 21.9 13.25 21.95 13.2 22.3 12.95 22.55 13.2 22.9 13.45 23.0 13.75 23.05 13.95 22.6 13.95 22.2 13.9 21.9 13.25 21.45 13.25 M19.5 9.5 Q19.8 9.45 20.1 9.7 L20.25 9.8 20.3 9.9 19.95 10.1 19.9 10.0 19.95 10.1 20.2 10.35 20.3 10.65 20.05 10.7 19.95 10.7 19.8 10.75 19.7 10.7 19.85 10.65 19.9 10.6 19.95 10.55 20.0 10.25 19.9 10.1 19.85 10.1 19.75 10.0 19.8 10.0 19.9 10.0 19.95 9.95 19.85 9.65 19.5 9.55 19.5 9.5 M18.3 11.8 L18.8 12.35 18.55 13.0 18.45 12.8 18.1 12.65 18.2 12.15 18.3 11.8 M18.05 14.8 L17.95 13.75 18.15 13.8 18.5 13.95 18.5 14.2 18.6 14.65 18.3 14.7 18.05 14.8 M18.95 15.45 L19.25 15.95 19.05 16.1 18.9 16.3 18.8 16.25 18.35 15.6 18.4 15.6 Q18.6 15.35 18.95 15.45 M19.9 16.55 L20.5 16.9 20.4 17.3 20.1 17.2 19.75 17.0 19.85 16.65 19.85 16.6 19.9 16.55" fill="#7d7151" fill-rule="evenodd" stroke="none"/>
      <path d="M23.65 13.25 L24.05 13.35 23.5 13.85 23.05 13.95 23.0 13.75 22.9 13.45 23.2 13.45 23.65 13.25 M20.35 11.15 L20.2 11.3 19.95 11.4 19.85 10.95 19.8 10.75 19.95 10.7 20.05 10.7 20.3 10.65 20.3 10.85 20.35 11.1 20.35 11.15 M19.95 10.1 L20.3 9.9 20.45 10.25 20.45 10.5 20.3 10.65 20.2 10.35 19.95 10.1 M21.15 11.8 L21.35 11.8 21.65 11.6 22.05 12.45 22.3 12.95 21.95 13.2 21.9 13.25 21.15 11.8" fill="#635a40" fill-rule="evenodd" stroke="none"/>
      <path d="M19.95 11.4 L20.0 11.8 Q19.75 12.0 19.45 12.0 L19.05 11.85 19.0 11.75 Q18.9 11.05 19.05 10.65 L19.1 10.6 19.1 10.55 19.15 10.45 19.2 10.45 19.3 10.45 19.25 10.45 19.25 10.4 19.3 10.2 19.35 10.15 19.45 10.0 19.2 10.0 19.2 9.85 19.2 9.6 19.35 9.6 19.4 9.5 19.45 9.55 19.5 9.5 19.5 9.55 19.85 9.65 19.95 9.95 19.9 10.0 19.8 10.0 19.7 9.95 19.6 10.0 19.45 10.0 19.6 10.0 19.7 9.95 19.8 10.0 19.75 10.0 19.85 10.1 19.9 10.1 20.0 10.25 19.95 10.55 19.9 10.6 19.85 10.65 19.7 10.7 19.65 10.65 19.45 10.5 19.3 10.45 19.45 10.5 19.65 10.65 19.7 10.7 19.8 10.75 19.85 10.95 19.95 11.4 M20.25 12.4 L20.35 12.55 20.8 13.25 20.7 13.35 20.0 13.7 19.8 13.45 19.5 12.95 19.35 12.75 19.7 12.75 20.1 12.5 20.25 12.4 M21.45 14.15 L22.05 14.95 21.2 15.2 21.05 15.2 20.5 14.45 20.45 14.35 20.75 14.35 21.45 14.15 M22.7 16.0 Q22.8 16.45 22.5 16.95 L22.35 16.9 Q21.85 16.8 21.65 16.55 L21.65 16.5 21.8 16.0 22.1 16.15 22.7 16.0 M21.75 17.65 L20.55 17.85 20.45 17.8 20.35 17.55 20.4 17.3 Q21.0 17.45 21.3 17.05 L21.4 17.45 21.75 17.65 M19.7 17.5 Q19.25 17.3 18.9 16.9 L18.85 16.9 18.85 16.6 18.9 16.3 19.2 16.6 19.75 17.0 19.7 17.15 19.7 17.5 M18.2 16.0 L17.8 15.1 17.95 14.85 18.05 14.8 18.35 15.6 18.15 15.95 18.2 16.0 M17.5 13.95 Q17.5 13.4 17.65 12.8 L17.7 12.75 18.0 12.65 18.1 12.65 Q17.95 13.2 17.95 13.75 L17.55 13.9 17.5 13.95 M18.05 11.7 L18.65 10.65 18.7 10.6 18.95 10.5 18.95 10.55 Q18.55 11.1 18.3 11.8 L18.05 11.7 M21.15 10.75 L21.0 10.65 21.15 10.7 21.15 10.75" fill="#b0a273" fill-rule="evenodd" stroke="none"/>
      <path d="M23.05 11.7 L23.2 11.2 23.6 11.0 M22.25 10.1 Q22.05 10.15 22.0 10.35 21.85 10.5 21.95 10.9 L22.0 11.05 M23.75 12.5 L23.8 12.5 24.15 12.3 24.65 12.25 M23.65 13.25 L24.05 13.35 M24.45 13.8 L24.1 13.4 24.05 13.35 M23.05 13.95 L23.05 14.4 M24.45 13.8 L24.5 13.8 M22.9 13.45 L23.0 13.75 23.05 13.95 M21.9 13.25 L21.45 13.25 M17.5 13.95 L17.55 13.9 17.95 13.75 18.15 13.8 18.5 13.95 M18.1 12.65 L18.0 12.65 17.7 12.75 M18.35 15.6 L18.15 15.95 18.2 16.0 M20.45 10.8 Q20.8 10.65 21.0 10.65 L20.85 10.5 20.6 10.15 Q20.5 9.95 20.7 9.75 M19.45 10.0 L19.6 10.0 19.7 9.95 19.8 10.0 19.9 10.0 19.95 10.1 20.2 10.35 20.3 10.65 M19.3 10.45 L19.45 10.5 19.65 10.65 19.7 10.7 M19.8 10.75 L19.85 10.95 19.95 11.4 M20.3 10.85 L20.45 10.8 M21.15 11.8 L21.35 11.8 21.65 11.6 M21.15 10.75 L21.0 10.65 21.15 10.7 M20.25 12.4 L20.1 12.5 19.7 12.75 19.35 12.75 M20.0 13.7 L20.7 13.35 20.8 13.25 M20.7 11.8 L20.9 11.8 21.15 11.8 M21.9 13.25 L21.95 13.2 22.3 12.95 M21.15 10.75 L21.15 10.7 M18.3 11.8 L18.8 12.35 M19.05 11.85 L19.45 12.0 Q19.75 12.0 20.0 11.8 M18.1 12.65 L18.45 12.8 18.55 13.0 M18.05 11.7 L18.3 11.8 M17.8 15.1 L17.95 14.85 18.05 14.8 18.3 14.7 18.6 14.65 M19.25 15.95 L19.05 16.1 18.9 16.3 18.85 16.6 18.85 16.9 M19.75 17.0 L19.85 16.65 19.85 16.6 M18.95 15.45 Q18.6 15.35 18.4 15.6 L18.35 15.6 M21.45 14.15 L20.75 14.35 20.45 14.35 M21.05 15.2 L21.2 15.2 22.05 14.95 M21.8 16.0 L22.1 16.15 22.7 16.0 M21.65 16.55 Q21.85 16.8 22.35 16.9 L22.5 16.95 M20.5 16.9 L20.4 17.3 20.35 17.55 20.45 17.8 M21.3 17.05 L21.4 17.45 21.75 17.65 M19.7 17.5 L19.7 17.15 19.75 17.0" fill="none" stroke="#000000" stroke-linecap="round" stroke-linejoin="round" stroke-opacity="0.15294118" stroke-width="0.25"/>
      <path d="M23.6 11.0 L23.2 10.65 22.25 10.1 M22.0 11.05 Q22.35 11.2 22.6 11.45 L23.05 11.7 23.6 12.25 23.75 12.5 M24.65 12.25 L23.6 11.0 M24.5 13.8 L24.45 13.75 Q25.0 13.2 24.8 12.45 L24.65 12.25 M23.9 12.75 L23.8 13.1 23.65 13.25 23.2 13.45 22.9 13.45 22.55 13.2 22.3 12.95 22.05 12.45 21.65 11.6 21.4 11.15 21.15 10.75 M23.9 12.75 L23.9 12.7 23.75 12.5 M23.05 14.4 L23.45 14.35 24.45 13.8 M23.05 14.4 Q22.15 14.55 21.45 13.25 L21.2 12.85 20.7 11.8 20.6 11.6 20.35 11.15 20.2 11.3 19.95 11.4 20.0 11.8 20.25 12.4 20.35 12.55 20.8 13.25 21.25 13.9 21.45 14.15 22.05 14.95 22.45 15.35 22.5 15.45 22.7 16.0 Q22.8 16.45 22.5 16.95 L22.1 17.4 21.75 17.65 20.55 17.85 20.45 17.8 Q20.05 17.75 19.7 17.5 19.25 17.3 18.9 16.9 L18.85 16.9 18.2 16.0 17.8 15.1 17.55 14.35 17.5 13.95 Q17.5 13.4 17.65 12.8 L17.7 12.75 Q17.8 12.25 18.05 11.7 L18.65 10.65 18.7 10.6 18.95 10.5 18.9 10.35 18.95 10.25 18.85 10.2 18.85 9.95 19.0 9.8 19.2 9.6 19.35 9.6 19.4 9.5 19.45 9.55 19.5 9.5 Q19.8 9.45 20.1 9.7 L20.25 9.8 20.3 9.8 20.7 9.75 Q21.35 9.65 22.25 10.1 M20.3 9.9 L20.25 9.8 M19.2 10.0 L19.45 10.0 M20.3 10.65 L20.45 10.5 20.45 10.25 20.3 9.9 M19.7 10.7 L19.8 10.75 M20.3 10.65 L20.3 10.85 M21.15 10.7 L22.0 11.05 M20.35 11.15 L20.35 11.1 20.3 10.85 M19.35 12.75 L19.5 12.95 19.8 13.45 20.0 13.7 M19.2 10.0 Q19.05 10.0 18.95 10.15 L18.95 10.25 M19.05 11.85 L19.0 11.75 Q18.9 11.05 19.05 10.65 L19.1 10.6 19.1 10.55 19.15 10.45 19.2 10.45 19.3 10.45 M18.8 12.35 L19.0 11.9 19.0 11.85 19.05 11.85 M18.55 13.0 L18.8 12.35 M19.0 11.9 L19.35 12.75 M18.5 13.95 Q18.45 13.45 18.55 13.0 M18.6 14.65 L18.5 14.2 18.5 13.95 M18.6 14.65 L18.95 15.45 19.25 15.95 19.55 16.3 19.9 16.55 20.5 16.9 20.65 16.95 21.25 16.9 21.35 16.8 21.45 16.7 21.65 16.55 21.65 16.5 21.8 16.0 21.7 15.95 21.6 15.8 21.55 15.75 21.05 15.2 20.5 14.45 20.45 14.35 20.0 13.7" fill="none" stroke="#000000" stroke-linecap="round" stroke-linejoin="round" stroke-opacity="0.4" stroke-width="0.25"/>
      <path d="M22.7 11.5 L23.05 11.7 23.6 12.25 23.8 12.5 23.9 12.7 23.9 12.75 23.85 13.05 22.7 11.8 22.7 11.5 Z" fill="none" stroke="#000000" stroke-linecap="round" stroke-linejoin="round" stroke-opacity="0.5019608" stroke-width="0.5"/>
    </g>
    <linearGradient gradientTransform="matrix(0.0094, 0.0107, -0.0126, 0.0106, 16.3, 22.3)" gradientUnits="userSpaceOnUse" id="gradient0" spreadMethod="pad" x1="-819.2" x2="819.2">
      <stop offset="0.0" stop-color="#000000" stop-opacity="0.0"/>
      <stop offset="0.23921568627450981" stop-color="#000000" stop-opacity="0.39215687"/>
      <stop offset="0.788235294117647" stop-color="#000000" stop-opacity="0.37254903"/>
      <stop offset="0.9019607843137255" stop-color="#000000" stop-opacity="0.0"/>
    </linearGradient>
    <linearGradient gradientTransform="matrix(0.0035, -0.001, 0.002, 0.0065, 16.75, 15.15)" gradientUnits="userSpaceOnUse" id="gradient1" spreadMethod="pad" x1="-819.2" x2="819.2">
      <stop offset="0.0" stop-color="#000000" stop-opacity="0.0"/>
      <stop offset="0.23921568627450981" stop-color="#000000" stop-opacity="0.39215687"/>
      <stop offset="0.788235294117647" stop-color="#000000" stop-opacity="0.37254903"/>
      <stop offset="0.9019607843137255" stop-color="#000000" stop-opacity="0.0"/>
    </linearGradient>
    <linearGradient gradientTransform="matrix(-0.0012, -0.0091, 0.0104, -0.0014, 21.25, 13.45)" gradientUnits="userSpaceOnUse" id="gradient2" spreadMethod="pad" x1="-819.2" x2="819.2">
      <stop offset="0.0" stop-color="#000000" stop-opacity="0.0"/>
      <stop offset="0.23921568627450981" stop-color="#000000" stop-opacity="0.39215687"/>
      <stop offset="0.788235294117647" stop-color="#000000" stop-opacity="0.37254903"/>
      <stop offset="0.9019607843137255" stop-color="#000000" stop-opacity="0.0"/>
    </linearGradient>
    <linearGradient gradientTransform="matrix(0.0094, 0.0107, -0.0126, 0.0106, 15.95, 21.35)" gradientUnits="userSpaceOnUse" id="gradient3" spreadMethod="pad" x1="-819.2" x2="819.2">
      <stop offset="0.0" stop-color="#000000" stop-opacity="0.0"/>
      <stop offset="0.23921568627450981" stop-color="#000000" stop-opacity="0.39215687"/>
      <stop offset="0.788235294117647" stop-color="#000000" stop-opacity="0.37254903"/>
      <stop offset="0.9019607843137255" stop-color="#000000" stop-opacity="0.0"/>
    </linearGradient>
    <linearGradient gradientTransform="matrix(-0.0027, -3.0E-4, 0.0015, -0.0044, 16.2, 4.55)" gradientUnits="userSpaceOnUse" id="gradient4" spreadMethod="pad" x1="-819.2" x2="819.2">
      <stop offset="0.0" stop-color="#000000" stop-opacity="0.3019608"/>
      <stop offset="1.0" stop-color="#000000" stop-opacity="0.0"/>
    </linearGradient>
    <linearGradient gradientTransform="matrix(-7.0E-4, 0.0012, 0.0016, 6.0E-4, 14.25, 4.15)" gradientUnits="userSpaceOnUse" id="gradient5" spreadMethod="pad" x1="-819.2" x2="819.2">
      <stop offset="0.0" stop-color="#000000" stop-opacity="0.3019608"/>
      <stop offset="1.0" stop-color="#000000" stop-opacity="0.0"/>
    </linearGradient>
  </defs>
</svg>
