<?xml version="1.0" encoding="UTF-8" standalone="no"?>
<svg xmlns:xlink="http://www.w3.org/1999/xlink" height="520.0px" width="520.0px" xmlns="http://www.w3.org/2000/svg">
  <g transform="matrix(10.0, 0.0, 0.0, 10.0, 0.0, 0.0)">
    <use height="52.0" transform="matrix(1.0, 0.0, 0.0, 1.0, 0.0, 0.0)" width="52.0" xlink:href="#shape0"/>
    <use height="136.85" transform="matrix(0.1069, 0.0298, -0.0286, 0.062, 31.5493, 6.2246)" width="148.25" xlink:href="#sprite0"/>
    <use height="136.85" transform="matrix(0.0366, 0.0416, -0.1179, 0.0437, 22.5265, 19.004)" width="148.25" xlink:href="#sprite0"/>
    <use height="136.85" transform="matrix(0.0704, 0.0308, -0.0511, 0.0885, 27.2492, 15.0333)" width="148.25" xlink:href="#sprite0"/>
    <use height="136.85" transform="matrix(0.0416, 0.0182, -0.0036, 0.0944, 35.3298, 20.5767)" width="148.25" xlink:href="#sprite0"/>
    <use height="136.85" transform="matrix(0.0367, 0.016, -0.0275, 0.0831, 27.991, 28.3218)" width="148.25" xlink:href="#sprite0"/>
    <use height="136.85" transform="matrix(0.0286, 0.0125, -0.0275, 0.0831, 7.8832, 29.4798)" width="148.25" xlink:href="#sprite0"/>
  </g>
  <defs>
    <g id="shape0" transform="matrix(1.0, 0.0, 0.0, 1.0, 0.0, 0.0)">
      <path d="M52.0 0.0 L52.0 52.0 0.0 52.0 0.0 0.0 52.0 0.0" fill="#795fa9" fill-opacity="0.0" fill-rule="evenodd" stroke="none"/>
      <path d="M7.45 30.0 L7.45 31.5 Q5.55 34.25 5.25 37.2 5.0 39.05 5.45 41.1 L5.7 42.3 Q7.3 46.0 11.65 46.45 L11.75 46.5 Q15.45 46.3 15.6 42.85 L15.65 42.65 Q15.55 40.05 13.05 39.55 L12.9 39.5 Q10.85 39.2 10.95 39.9 L11.0 40.0 Q11.75 41.0 12.8 40.6 L12.95 40.55 Q13.65 40.65 14.1 41.2 L14.6 42.1 Q15.1 44.45 12.85 44.8 L12.05 44.85 Q9.45 44.75 8.9 42.15 L8.95 41.45 8.9 41.35 Q8.95 39.7 9.3 38.25 9.75 36.6 10.65 35.3 14.2 36.75 16.7 35.3 L16.9 35.1 Q17.8 34.2 17.05 33.2 L16.9 33.1 16.85 33.05 16.0 32.85 Q15.3 32.95 14.75 33.9 L14.75 33.95 11.75 33.9 12.6 33.15 Q18.45 29.2 23.7 26.75 L22.75 27.7 Q19.4 30.85 19.75 34.25 19.8 35.05 20.2 35.9 21.5 38.9 24.7 40.0 L25.15 40.1 Q24.15 42.0 21.95 42.6 20.5 43.0 19.0 42.15 L18.3 41.75 Q17.65 41.2 17.65 40.7 L17.75 40.4 Q17.9 40.1 18.4 40.15 L18.45 40.15 Q19.3 40.1 19.35 39.15 L19.25 38.75 Q19.0 38.1 17.9 38.05 17.4 38.05 16.65 38.55 16.0 38.95 15.9 39.55 15.8 40.65 17.9 42.45 L18.3 42.75 Q20.95 44.6 24.55 44.0 29.35 43.0 30.9 37.7 32.45 32.9 34.65 29.25 34.9 32.05 36.2 34.75 38.4 39.5 36.2 44.15 33.0 47.9 30.9 45.15 30.4 44.35 30.7 44.0 31.0 43.75 31.65 43.75 32.45 44.1 32.55 43.6 L32.55 43.15 Q31.55 41.9 30.1 42.35 28.1 43.85 29.05 45.3 L29.7 46.2 Q31.45 48.25 34.3 47.5 41.4 44.25 41.1 35.1 40.15 30.25 41.3 26.3 L42.6 25.3 Q44.15 23.95 43.95 22.2 L43.45 21.2 43.0 20.7 Q43.85 18.3 45.25 16.55 47.8 13.95 48.1 12.1 L48.1 11.35 Q47.15 8.55 43.45 8.5 L40.9 8.6 Q38.6 8.3 37.15 6.9 36.1 4.4 33.85 4.5 29.65 6.3 29.55 11.75 L29.6 12.85 29.55 14.2 29.15 14.15 Q28.3 14.65 28.1 15.7 L28.1 15.95 28.1 16.75 Q24.05 20.2 16.9 21.2 14.15 21.7 12.15 23.0 9.4 24.8 7.8 28.1 7.5 29.1 7.45 30.0 M26.15 32.3 Q25.75 34.65 25.8 36.3 25.85 38.05 25.45 39.4 L24.85 39.15 Q23.3 38.4 22.9 37.1 21.85 33.6 26.35 31.05 L26.15 32.3" fill="none" stroke="#000000" stroke-linecap="round" stroke-linejoin="round" stroke-opacity="0.3019608" stroke-width="1.0"/>
      <path d="M48.1 12.1 Q45.45 15.4 42.1 11.45 38.65 8.5 33.8 7.35 32.25 7.15 31.55 7.8 29.75 9.4 29.6 12.85 L29.55 11.75 Q29.65 6.3 33.85 4.5 36.1 4.4 37.15 6.9 37.45 7.7 38.95 8.55 L41.9 9.0 40.9 8.6 43.45 8.5 Q47.15 8.55 48.1 11.35 L48.1 12.1" fill="#24788c" fill-rule="evenodd" stroke="none"/>
      <path d="M48.1 12.1 Q47.8 13.95 45.25 16.55 43.0 19.45 42.05 24.05 40.2 28.25 38.2 27.95 L32.25 27.6 29.3 23.7 28.9 16.65 Q29.65 14.65 29.6 12.85 29.75 9.4 31.55 7.8 32.25 7.15 33.8 7.35 38.65 8.5 42.1 11.45 45.45 15.4 48.1 12.1 M40.9 8.6 L41.9 9.0 38.95 8.55 Q37.45 7.7 37.15 6.9 38.6 8.3 40.9 8.6" fill="#0b5a59" fill-rule="evenodd" stroke="none"/>
      <path d="M48.1 12.1 Q47.8 13.95 45.25 16.55 43.0 19.45 42.05 24.05 40.2 28.25 38.2 27.95 L32.25 27.6 31.95 27.55 M48.1 12.1 L48.1 11.35 Q47.15 8.55 43.45 8.5 L40.9 8.6 Q38.6 8.3 37.15 6.9 36.1 4.4 33.85 4.5 29.65 6.3 29.55 11.75 L29.6 12.85 Q29.65 14.65 28.9 16.65 L29.3 23.7 32.25 27.6 M38.95 8.55 Q37.45 7.7 37.15 6.9" fill="none" stroke="#000000" stroke-linecap="round" stroke-linejoin="round" stroke-opacity="0.3019608" stroke-width="0.30000000000000004"/>
      <path d="M38.2 19.85 L37.95 20.5 Q41.6 19.75 43.1 21.7 43.45 22.3 44.0 22.15 44.2 23.9 42.6 25.3 41.3 26.45 39.8 27.15 L29.15 19.65 Q28.35 18.35 28.1 16.9 L28.1 15.95 28.15 15.7 Q29.0 14.7 29.85 15.15 30.8 15.7 30.45 17.0 32.55 14.75 34.6 15.25 36.65 15.75 37.2 16.9 38.0 18.6 38.25 17.25 L38.2 19.75 38.2 19.85" fill="#0b5a59" fill-rule="evenodd" stroke="none"/>
      <path d="M44.0 22.15 Q43.45 22.3 43.1 21.7 41.6 19.75 37.95 20.5 L38.2 19.85 Q41.9 19.15 43.45 21.2 L44.0 22.15 M38.25 17.25 Q38.0 18.6 37.2 16.9 36.65 15.75 34.6 15.25 32.55 14.75 30.45 17.0 30.8 15.7 29.85 15.15 29.0 14.7 28.15 15.7 28.3 14.65 29.2 14.15 30.35 14.15 30.95 15.7 32.3 14.05 34.35 14.2 L34.6 14.25 Q36.6 14.85 37.9 16.45 L38.25 17.25" fill="#24788c" fill-rule="evenodd" stroke="none"/>
      <path d="M44.0 22.15 L43.45 21.2 Q41.9 19.15 38.2 19.85 L38.2 19.75 38.25 17.25 M28.1 15.95 L28.1 16.9 Q28.35 18.35 29.15 19.65 L39.8 27.15 Q41.3 26.45 42.6 25.3 44.2 23.9 44.0 22.15 M28.15 15.7 Q28.3 14.65 29.2 14.15 30.35 14.15 30.95 15.7 32.3 14.05 34.35 14.2 L34.6 14.25 Q36.6 14.85 37.9 16.45 L38.25 17.25" fill="none" stroke="#000000" stroke-linecap="round" stroke-linejoin="round" stroke-opacity="0.3019608" stroke-width="0.30000000000000004"/>
      <path d="M16.9 33.15 L16.85 33.05 16.9 33.1 16.9 33.15" fill="#d2ff06" fill-rule="evenodd" stroke="none"/>
      <path d="M17.05 33.2 L16.95 33.25 16.9 33.15 16.9 33.1 17.05 33.2" fill="#7bfd24" fill-rule="evenodd" stroke="none"/>
      <path d="M7.45 30.0 Q9.55 26.75 12.2 25.15 L12.85 24.75 Q16.55 22.85 20.4 22.25 27.1 20.5 30.05 16.95 30.55 18.2 30.5 20.45 L20.6 25.65 Q17.15 24.85 13.6 26.7 L11.6 28.0 Q8.75 31.0 11.6 33.8 13.7 35.25 14.75 33.95 L14.85 34.1 Q15.1 34.45 15.6 34.55 L16.55 34.55 16.65 34.45 17.05 33.95 16.95 33.25 17.05 33.2 Q17.8 34.2 16.9 35.1 L16.7 35.3 Q13.95 36.9 9.9 34.95 7.1 33.45 7.45 30.0" fill="#309f00" fill-rule="evenodd" stroke="none"/>
      <path d="M30.05 16.95 Q27.1 20.5 20.4 22.25 16.55 22.85 12.85 24.75 L12.2 25.15 Q9.55 26.75 7.45 30.0 7.5 29.1 7.8 28.1 9.4 24.8 12.15 23.0 14.15 21.7 16.9 21.2 24.65 20.1 28.75 16.15 29.6 15.55 30.05 16.95 M16.95 33.25 L17.05 33.95 16.65 34.45 16.55 34.55 15.6 34.55 Q15.1 34.45 14.85 34.1 L14.75 33.95 14.75 33.9 Q15.3 32.95 16.0 32.85 L16.85 33.05 16.9 33.15 16.95 33.25" fill="#3fca02" fill-rule="evenodd" stroke="none"/>
      <path d="M30.05 16.95 Q29.6 15.55 28.75 16.15 24.65 20.1 16.9 21.2 14.15 21.7 12.15 23.0 9.4 24.8 7.8 28.1 7.5 29.1 7.45 30.0 7.1 33.45 9.9 34.95 13.95 36.9 16.7 35.3 L16.9 35.1 Q17.8 34.2 17.05 33.2 L16.9 33.1 16.85 33.05 16.0 32.85 Q15.3 32.95 14.75 33.9 L14.75 33.95 Q13.7 35.25 11.6 33.8 8.75 31.0 11.6 28.0 L13.6 26.7 Q17.15 24.85 20.6 25.65 L30.5 20.45 Q30.55 18.2 30.05 16.95 Z" fill="none" stroke="#000000" stroke-linecap="round" stroke-linejoin="round" stroke-opacity="0.3019608" stroke-width="0.30000000000000004"/>
      <path d="M11.0 40.05 L11.0 39.9 11.05 39.95 11.0 40.05 M15.65 42.65 L15.65 42.9 15.6 42.9 15.65 42.65" fill="#7bfd24" fill-rule="evenodd" stroke="none"/>
      <path d="M32.2 20.1 Q32.7 22.1 31.75 23.65 23.15 26.05 12.65 33.15 10.2 35.1 9.35 38.2 8.95 39.65 8.95 41.35 L8.8 38.6 Q8.95 34.85 10.9 32.45 17.5 26.75 25.75 23.75 29.55 22.35 32.2 20.1 M14.15 41.15 Q13.7 40.6 12.9 40.55 L12.85 40.6 Q11.75 40.95 11.0 40.05 L11.05 39.95 12.65 40.05 12.9 40.15 Q14.05 40.45 14.15 41.15 M15.65 42.9 Q15.45 46.35 11.8 46.5 L11.7 46.5 Q7.3 46.05 5.75 42.3 L5.4 41.1 Q5.05 39.05 5.25 37.25 5.5 39.05 6.1 40.6 7.15 43.2 9.3 44.85 10.55 45.65 11.9 45.7 L14.2 45.25 Q15.15 44.45 15.6 42.9 L15.65 42.9" fill="#309f00" fill-rule="evenodd" stroke="none"/>
      <path d="M5.25 37.25 Q5.7 33.25 8.85 29.8 14.7 24.8 20.15 22.05 25.65 19.25 28.2 18.0 30.75 16.7 31.65 18.55 L32.2 20.1 Q29.55 22.35 25.75 23.75 17.5 26.75 10.9 32.45 8.95 34.85 8.8 38.6 L8.95 41.35 8.9 41.45 8.95 42.15 Q9.45 44.8 12.05 44.85 L12.9 44.85 Q15.15 44.45 14.55 42.1 14.45 41.5 14.15 41.15 14.05 40.45 12.9 40.15 L12.65 40.05 11.05 39.95 11.0 39.9 Q10.85 39.15 12.9 39.5 L13.0 39.55 Q15.55 40.1 15.65 42.65 L15.6 42.9 Q15.15 44.45 14.2 45.25 L11.9 45.7 Q10.55 45.65 9.3 44.85 7.15 43.2 6.1 40.6 5.5 39.05 5.25 37.25" fill="#3fca02" fill-rule="evenodd" stroke="none"/>
      <path d="M5.25 37.25 Q5.7 33.25 8.85 29.8 14.7 24.8 20.15 22.05 25.65 19.25 28.2 18.0 30.75 16.7 31.65 18.55 L32.2 20.1 Q32.7 22.1 31.75 23.65 23.15 26.05 12.65 33.15 10.2 35.1 9.35 38.2 8.95 39.65 8.95 41.35 M8.9 41.45 L8.95 42.15 Q9.45 44.8 12.05 44.85 L12.9 44.85 Q15.15 44.45 14.55 42.1 14.45 41.5 14.15 41.15 13.7 40.6 12.9 40.55 L12.85 40.6 Q11.75 40.95 11.0 40.05 L11.0 39.9 Q10.85 39.15 12.9 39.5 L13.0 39.55 Q15.55 40.1 15.65 42.65 L15.65 42.9 Q15.45 46.35 11.8 46.5 L11.7 46.5 Q7.3 46.05 5.75 42.3 L5.4 41.1 Q5.05 39.05 5.25 37.25 Z" fill="none" stroke="#000000" stroke-linecap="round" stroke-linejoin="round" stroke-opacity="0.3019608" stroke-width="0.30000000000000004"/>
      <path d="M19.35 38.75 L19.4 39.15 19.4 39.35 19.3 39.3 19.35 38.75" fill="#7bfd24" fill-rule="evenodd" stroke="none"/>
      <path d="M26.2 32.3 L26.65 29.6 Q27.5 25.4 32.2 21.75 34.35 21.1 35.65 22.5 L36.15 23.15 Q37.2 25.0 35.95 27.3 32.95 31.6 30.95 37.7 29.4 43.0 24.55 44.05 21.05 44.65 18.3 42.8 L17.9 42.45 Q15.8 40.65 15.95 39.6 16.75 40.95 18.35 42.25 L18.5 42.35 Q20.65 43.8 23.55 43.7 28.15 42.85 29.15 39.35 29.95 34.2 31.95 30.3 29.05 29.95 26.2 32.3 M19.4 39.35 Q19.3 40.1 18.45 40.15 17.95 40.1 17.75 40.4 17.65 39.7 18.45 39.55 L18.85 39.5 19.3 39.3 19.4 39.35" fill="#309f00" fill-rule="evenodd" stroke="none"/>
      <path d="M26.2 32.3 Q29.05 29.95 31.95 30.3 29.95 34.2 29.15 39.35 28.15 42.85 23.55 43.7 20.65 43.8 18.5 42.35 L18.35 42.25 Q16.75 40.95 15.95 39.6 16.0 38.95 16.65 38.55 17.45 38.05 17.9 38.05 19.05 38.1 19.35 38.75 L19.3 39.3 18.85 39.5 18.45 39.55 Q17.65 39.7 17.75 40.4 L17.7 40.7 Q17.7 41.2 18.35 41.75 L19.05 42.15 Q20.55 43.0 22.05 42.6 26.05 41.55 25.9 36.3 25.85 34.65 26.2 32.3" fill="#3fca02" fill-rule="evenodd" stroke="none"/>
      <path d="M15.95 39.6 Q15.8 40.65 17.9 42.45 L18.3 42.8 Q21.05 44.65 24.55 44.05 29.4 43.0 30.95 37.7 32.95 31.6 35.95 27.3 37.2 25.0 36.15 23.15 L35.65 22.5 Q34.35 21.1 32.2 21.75 27.5 25.4 26.65 29.6 L26.2 32.3 M15.95 39.6 Q16.0 38.95 16.65 38.55 17.45 38.05 17.9 38.05 19.05 38.1 19.35 38.75 L19.4 39.15 19.4 39.35 Q19.3 40.1 18.45 40.15 17.95 40.1 17.75 40.4 L17.7 40.7 Q17.7 41.2 18.35 41.75 L19.05 42.15 Q20.55 43.0 22.05 42.6 26.05 41.55 25.9 36.3 25.85 34.65 26.2 32.3" fill="none" stroke="#000000" stroke-linecap="round" stroke-linejoin="round" stroke-opacity="0.3019608" stroke-width="0.30000000000000004"/>
      <path d="M41.2 21.25 Q42.55 22.05 42.45 23.3 39.8 28.35 41.1 35.1 41.4 44.25 34.3 47.5 31.45 48.25 29.7 46.2 31.65 47.65 33.8 47.0 L33.9 47.05 Q37.3 45.75 38.95 42.15 40.8 37.7 39.5 31.9 39.8 25.55 41.2 21.25 M32.55 43.6 Q32.45 44.1 31.65 43.75 31.0 43.75 30.7 44.0 30.95 42.7 32.55 43.6" fill="#309f00" fill-rule="evenodd" stroke="none"/>
      <path d="M29.7 46.2 L29.05 45.3 Q28.1 43.85 30.1 42.35 31.55 41.9 32.55 43.15 L32.55 43.6 Q30.95 42.7 30.7 44.0 30.4 44.35 30.9 45.15 33.0 47.9 36.2 44.15 38.4 39.5 36.2 34.75 33.55 29.3 35.2 23.15 36.5 21.3 38.75 21.2 L41.2 21.25 Q39.8 25.55 39.5 31.9 40.8 37.7 38.95 42.15 37.3 45.75 33.9 47.05 L33.8 47.0 Q31.65 47.65 29.7 46.2" fill="#3fca02" fill-rule="evenodd" stroke="none"/>
      <path d="M41.2 21.25 Q42.55 22.05 42.45 23.3 39.8 28.35 41.1 35.1 41.4 44.25 34.3 47.5 31.45 48.25 29.7 46.2 L29.05 45.3 Q28.1 43.85 30.1 42.35 31.55 41.9 32.55 43.15 L32.55 43.6 Q32.45 44.1 31.65 43.75 31.0 43.75 30.7 44.0 30.4 44.35 30.9 45.15 33.0 47.9 36.2 44.15 38.4 39.5 36.2 34.75 33.55 29.3 35.2 23.15 36.5 21.3 38.75 21.2 L41.2 21.25 Z" fill="none" stroke="#000000" stroke-linecap="round" stroke-linejoin="round" stroke-opacity="0.3019608" stroke-width="0.30000000000000004"/>
      <path d="M27.1 38.5 Q26.85 38.1 27.0 37.8 L27.2 38.5 27.1 38.5 M29.45 38.0 L29.5 38.05 29.45 38.05 29.45 38.0" fill="#7bfd24" fill-rule="evenodd" stroke="none"/>
      <path d="M36.35 17.6 Q36.65 18.3 36.75 19.45 36.15 23.9 32.65 26.7 L27.65 30.3 26.8 30.8 Q21.8 33.45 22.9 37.1 23.3 38.4 24.85 39.1 L25.6 39.4 Q26.5 39.7 27.0 39.4 L27.25 39.15 27.1 38.5 27.2 38.5 27.3 38.65 Q27.65 39.05 28.2 39.1 L29.05 38.9 29.15 38.7 29.45 38.05 29.5 38.05 29.55 39.05 29.3 39.8 29.0 40.15 Q28.0 40.85 25.2 40.15 L24.7 40.0 Q21.5 38.9 20.15 35.9 L19.75 34.25 Q20.6 35.85 21.55 35.9 22.0 35.8 22.1 34.4 23.25 30.55 26.45 28.85 L27.35 28.35 Q34.0 24.25 36.35 17.6" fill="#309f00" fill-rule="evenodd" stroke="none"/>
      <path d="M19.75 34.25 Q19.35 30.85 22.75 27.7 L26.5 23.5 Q28.55 20.9 29.9 18.4 31.3 16.25 33.65 16.1 L34.55 16.1 Q35.85 16.25 36.35 17.6 34.0 24.25 27.35 28.35 L26.45 28.85 Q23.25 30.55 22.1 34.4 22.0 35.8 21.55 35.9 20.6 35.85 19.75 34.25 M27.0 37.8 Q27.1 37.5 27.5 37.25 L27.95 37.1 Q28.45 37.0 28.95 37.35 L29.35 37.85 29.45 38.0 29.45 38.05 29.15 38.7 29.05 38.9 28.2 39.1 Q27.65 39.05 27.3 38.65 L27.2 38.5 27.0 37.8" fill="#3fca02" fill-rule="evenodd" stroke="none"/>
      <path d="M19.75 34.25 Q19.35 30.85 22.75 27.7 L26.5 23.5 Q28.55 20.9 29.9 18.4 31.3 16.25 33.65 16.1 L34.55 16.1 Q35.85 16.25 36.35 17.6 36.65 18.3 36.75 19.45 36.15 23.9 32.65 26.7 L27.65 30.3 26.8 30.8 Q21.8 33.45 22.9 37.1 23.3 38.4 24.85 39.1 L25.6 39.4 Q26.5 39.7 27.0 39.4 L27.25 39.15 27.1 38.5 Q26.85 38.1 27.0 37.8 27.1 37.5 27.5 37.25 L27.95 37.1 Q28.45 37.0 28.95 37.35 L29.35 37.85 29.45 38.0 29.5 38.05 29.55 39.05 29.3 39.8 29.0 40.15 Q28.0 40.85 25.2 40.15 L24.7 40.0 Q21.5 38.9 20.15 35.9 L19.75 34.25 Z" fill="none" stroke="#000000" stroke-linecap="round" stroke-linejoin="round" stroke-opacity="0.3019608" stroke-width="0.30000000000000004"/>
      <path d="M41.05 11.45 Q43.85 14.85 42.55 18.05 L41.95 18.2 Q36.4 10.7 30.9 12.55 L30.75 12.2 Q31.25 10.35 34.25 8.9 37.65 7.85 41.05 11.45" fill="#000000" fill-rule="evenodd" stroke="none"/>
      <path d="M41.75 18.1 L42.35 16.65 40.7 16.65 41.4 14.35 39.25 14.75 39.8 12.05 37.4 13.3 37.6 10.4 34.95 12.3 34.7 9.7 32.95 12.05 32.75 10.5 31.65 12.35 31.55 11.5 31.0 12.6 Q36.3 10.8 41.75 18.1" fill="#d8ca7c" fill-rule="evenodd" stroke="none"/>
      <path d="M31.0 12.6 L30.9 12.8 Q36.2 11.0 41.65 18.3 L41.65 18.25 41.75 18.1 Q36.3 10.8 31.0 12.6" fill="#cbb356" fill-rule="evenodd" stroke="none"/>
      <path d="M41.35 14.55 L40.55 16.4 Q40.2 15.5 39.45 15.05 40.35 14.65 41.35 14.55" fill="#e3d6a4" fill-rule="evenodd" stroke="none"/>
      <path d="M39.75 12.35 L39.15 14.65 37.55 13.45 39.75 12.35" fill="#e3d6a4" fill-rule="evenodd" stroke="none"/>
      <path d="M37.5 10.7 L37.3 13.25 Q36.35 12.55 35.35 12.35 L37.5 10.7" fill="#e3d6a4" fill-rule="evenodd" stroke="none"/>
      <path d="M34.9 12.3 L33.2 12.05 34.6 10.15 34.9 12.3" fill="#e3d6a4" fill-rule="evenodd" stroke="none"/>
      <path d="M42.4 17.8 L42.05 17.85 42.65 16.3 42.4 17.8 M42.65 16.2 L41.0 16.25 41.8 13.9 39.6 14.35 40.15 11.65 37.65 12.8 37.85 9.9 35.2 11.8 34.95 9.2 33.25 11.55 33.0 10.05 31.95 11.85 31.8 11.0 31.1 12.25 31.05 12.15 31.05 11.95 31.05 11.8 31.9 10.7 Q32.75 9.85 34.25 9.05 37.55 8.0 40.8 11.6 42.8 13.95 42.65 16.2" fill="#d8ca7c" fill-rule="evenodd" stroke="none"/>
      <path d="M42.65 16.3 L42.65 16.25 42.65 16.2 Q42.8 13.95 40.8 11.6 37.55 8.0 34.25 9.05 32.75 9.85 31.9 10.7 L31.05 11.8 Q31.25 11.2 31.8 10.6 32.65 9.6 34.45 8.75 37.7 7.7 41.0 11.3 43.8 14.6 42.5 17.75 L42.4 17.8 42.65 16.3" fill="#cdb65c" fill-rule="evenodd" stroke="none"/>
      <path d="M38.75 14.7 Q40.35 16.1 41.95 18.25 L42.5 18.1 Q43.8 14.9 41.0 11.55 L40.95 11.4 41.3 11.15 41.35 11.2 Q44.05 14.7 42.8 17.8 43.15 17.85 42.85 18.2 L41.85 18.6 41.45 18.5 41.65 18.25 Q40.1 16.25 38.6 14.95 L38.75 14.7 M39.1 9.8 Q36.7 8.15 34.3 8.95 31.3 10.45 30.8 12.25 L30.85 12.55 Q34.25 11.45 37.6 13.75 37.3 13.8 37.4 14.0 34.15 11.75 30.9 12.75 L30.75 13.1 30.45 12.9 30.35 12.55 Q30.15 12.1 30.55 12.2 31.2 10.1 34.2 8.65 36.9 7.65 39.5 9.45 L39.1 9.8" fill="#80f3a8" fill-rule="evenodd" stroke="none"/>
      <path d="M38.75 14.7 L38.6 14.95 37.4 14.0 Q37.3 13.8 37.6 13.75 L38.75 14.7 M41.3 11.15 L40.95 11.4 39.1 9.8 39.5 9.45 Q40.4 10.1 41.3 11.15" fill="#92f5af" fill-rule="evenodd" stroke="none"/>
      <path d="M40.95 11.4 L41.0 11.55 Q43.8 14.9 42.5 18.1 L41.95 18.25 Q40.35 16.1 38.75 14.7 M38.6 14.95 Q40.1 16.25 41.65 18.25 L41.45 18.5 41.85 18.6 42.85 18.2 Q43.15 17.85 42.8 17.8 44.05 14.7 41.35 11.2 L41.3 11.15 M40.95 11.4 L39.1 9.8 Q36.7 8.15 34.3 8.95 31.3 10.45 30.8 12.25 L30.85 12.55 Q34.25 11.45 37.6 13.75 M39.5 9.45 Q36.9 7.65 34.2 8.65 31.2 10.1 30.55 12.2 30.15 12.1 30.35 12.55 L30.45 12.9 30.75 13.1 30.9 12.75 Q34.15 11.75 37.4 14.0 M38.6 14.95 L37.4 14.0" fill="none" stroke="#266e85" stroke-linecap="round" stroke-linejoin="round" stroke-opacity="0.3019608" stroke-width="0.05"/>
    </g>
    <g id="sprite0" transform="matrix(1.0, 0.0, 0.0, 1.0, 73.5, 65.0)">
      <use height="136.85" transform="matrix(1.0, 0.0, 0.0, 1.0, -73.5, -65.0)" width="148.25" xlink:href="#shape1"/>
    </g>
    <g id="shape1" transform="matrix(1.0, 0.0, 0.0, 1.0, 73.5, 65.0)">
      <path d="M36.65 -54.65 Q60.05 -42.0 69.75 -17.95 80.55 8.9 68.0 34.1 55.45 59.35 26.8 68.2 -1.8 77.05 -29.7 64.3 -57.6 51.6 -68.45 24.75 -79.3 -2.05 -66.75 -27.25 L-66.7 -27.3 Q-54.1 -52.5 -25.5 -61.4 3.1 -70.2 31.0 -57.5 L36.65 -54.65" fill="url(#gradient0)" fill-rule="evenodd" stroke="none"/>
    </g>
    <radialGradient cx="0" cy="0" gradientTransform="matrix(0.0914, 0.0, 0.0, 0.0914, 0.6, 3.4)" gradientUnits="userSpaceOnUse" id="gradient0" r="819.2" spreadMethod="pad">
      <stop offset="0.0" stop-color="#ffffff"/>
      <stop offset="1.0" stop-color="#ffffff" stop-opacity="0.0"/>
    </radialGradient>
  </defs>
</svg>
