<?xml version="1.0" encoding="UTF-8" standalone="no"?>
<svg xmlns:xlink="http://www.w3.org/1999/xlink" height="520.0px" width="520.0px" xmlns="http://www.w3.org/2000/svg">
  <g transform="matrix(10.0, 0.0, 0.0, 10.0, 0.0, 0.0)">
    <use height="52.0" transform="matrix(1.0, 0.0, 0.0, 1.0, 0.0, 0.0)" width="52.0" xlink:href="#shape0"/>
    <use height="136.85" transform="matrix(-0.0969, -0.2072, 0.1259, -0.0464, 20.84, 42.7441)" width="148.25" xlink:href="#sprite0"/>
  </g>
  <defs>
    <g id="shape0" transform="matrix(1.0, 0.0, 0.0, 1.0, 0.0, 0.0)">
      <path d="M52.0 0.0 L52.0 52.0 0.0 52.0 0.0 0.0 52.0 0.0" fill="#795fa9" fill-opacity="0.0" fill-rule="evenodd" stroke="none"/>
      <path d="M10.85 5.5 Q14.45 2.45 20.45 4.45 L26.3 7.1 29.6 8.4 Q29.05 9.55 26.95 10.95 29.0 12.95 29.0 16.8 L28.1 16.1 28.1 18.75 28.05 19.6 Q29.05 20.95 30.4 22.15 31.95 23.55 33.95 24.75 39.7 28.0 44.95 32.65 46.3 33.4 45.85 37.0 L42.4 34.7 Q39.15 38.55 33.15 40.75 30.9 41.0 29.3 41.65 26.05 43.0 20.3 47.6 15.3 40.5 13.6 33.65 11.85 26.8 11.8 25.0 L11.1 24.3 10.7 23.8 Q9.35 22.2 8.25 20.0 L8.25 19.9 7.7 21.4 7.5 20.55 7.25 18.85 Q7.1 17.15 7.3 15.35 L6.25 16.6 6.3 16.4 Q6.4 14.2 7.1 12.0 8.2 8.85 10.55 5.9 L10.6 5.8 10.85 5.5 Z" fill="none" stroke="#000000" stroke-linecap="round" stroke-linejoin="round" stroke-opacity="0.3019608" stroke-width="1.0"/>
      <path d="M44.95 32.65 Q44.3 32.2 42.9 34.05 L42.4 34.7 Q39.15 38.55 33.15 40.75 30.9 41.0 29.3 41.65 19.7 34.15 22.75 25.2 L26.05 26.35 26.4 24.4 28.85 24.8 30.35 22.15 33.95 24.75 Q39.7 27.95 44.95 32.65" fill="#fcd12c" fill-rule="evenodd" stroke="none"/>
      <path d="M22.75 25.2 Q19.7 34.15 29.3 41.65 26.05 43.0 20.4 47.65 15.4 41.7 12.8 30.15 13.8 26.5 15.1 24.75 L22.75 25.2" fill="#f6ad22" fill-rule="evenodd" stroke="none"/>
      <path d="M42.4 34.7 L42.9 34.05 Q44.3 32.2 44.95 32.65 46.3 33.4 45.85 37.0 L42.4 34.7 M30.35 22.15 L28.85 24.8 26.4 24.4 26.05 26.35 22.75 25.2 15.1 24.75 Q13.8 26.5 12.8 30.15 11.8 26.15 11.35 22.4 L12.9 18.45 25.4 14.6 Q26.75 18.9 30.35 22.15" fill="#dc8b16" fill-rule="evenodd" stroke="none"/>
      <path d="M42.4 34.7 L42.9 34.05 Q44.3 32.2 44.95 32.65 39.7 27.95 33.95 24.75 L30.35 22.15 Q26.75 18.9 25.4 14.6 L12.9 18.45 11.35 22.4 Q11.8 26.15 12.8 30.15 15.4 41.7 20.4 47.65 26.05 43.0 29.3 41.65 30.9 41.0 33.15 40.75 39.15 38.55 42.4 34.7 L45.85 37.0 Q46.3 33.4 44.95 32.65" fill="none" stroke="#000000" stroke-linecap="round" stroke-linejoin="round" stroke-opacity="0.3019608" stroke-width="0.30000000000000004"/>
      <path d="M12.85 11.1 Q13.2 12.8 12.95 14.35 11.5 12.8 11.55 10.45 L11.55 10.05 12.85 11.1 M7.9 16.0 L7.4 14.15 6.25 16.4 Q6.4 14.2 7.1 12.0 8.2 8.85 10.55 5.9 L8.65 9.4 8.2 11.65 Q7.8 13.95 7.9 16.0 M12.65 25.8 L12.15 23.4 Q11.85 21.25 12.0 19.1 L12.1 18.25 13.7 19.15 17.3 21.0 Q17.85 20.35 18.0 19.4 L18.05 18.6 18.2 18.65 19.45 19.45 21.65 20.6 22.8 21.1 23.05 20.25 23.15 19.65 23.8 14.8 23.8 14.55 Q24.9 15.55 25.9 15.8 L26.55 12.65 Q27.4 13.15 28.0 14.4 L28.05 15.45 26.85 14.9 Q26.3 15.55 26.5 17.1 L25.2 16.5 Q24.45 17.85 24.15 19.7 L24.1 19.9 24.0 22.75 Q24.4 24.25 25.75 24.25 L13.05 23.55 12.65 25.8 M26.15 22.55 L26.15 21.0 Q26.9 21.85 27.1 23.6 L26.15 22.55" fill="#4d362e" fill-rule="evenodd" stroke="none"/>
      <path d="M11.05 24.3 L10.85 23.8 Q10.15 21.4 9.95 19.0 L9.95 18.8 Q9.8 16.2 10.35 13.55 11.9 14.85 13.5 15.45 L14.15 12.35 17.3 13.55 19.75 14.05 Q20.2 13.0 20.3 11.35 L20.25 8.4 Q21.65 9.25 23.1 9.35 L26.65 8.9 29.55 8.35 Q29.05 9.55 26.95 10.95 29.0 12.95 29.0 16.8 L28.1 16.1 28.05 15.45 28.0 14.4 Q27.4 13.15 26.55 12.65 L25.9 15.8 Q24.9 15.55 23.8 14.55 L23.8 14.8 23.15 19.65 23.05 20.25 22.8 21.1 22.3 20.45 21.7 19.55 Q19.45 16.5 17.55 15.7 L18.05 18.6 18.0 19.4 Q17.85 20.35 17.3 21.0 L16.05 19.3 Q14.6 17.45 13.1 16.55 L12.5 16.2 12.1 18.25 12.0 19.1 Q11.85 21.25 12.15 23.4 L12.65 25.8 11.05 24.3" fill="#f9ebaf" fill-rule="evenodd" stroke="none"/>
      <path d="M26.65 8.9 L23.1 9.35 Q21.65 9.25 20.25 8.4 L20.3 11.35 Q20.2 13.0 19.75 14.05 L17.3 13.55 14.15 12.35 13.5 15.45 Q11.9 14.85 10.35 13.55 9.8 16.2 9.95 18.8 L9.95 19.0 Q10.15 21.4 10.85 23.8 L11.05 24.3 10.65 23.85 Q9.35 22.2 8.25 20.0 L8.2 19.9 7.7 21.4 7.45 20.55 7.25 18.85 Q7.1 17.15 7.3 15.4 L6.25 16.65 6.25 16.4 7.4 14.15 7.9 16.0 8.05 16.4 Q9.6 14.55 9.8 11.85 11.35 13.75 12.95 14.35 13.2 12.8 12.85 11.1 15.55 12.35 18.65 12.6 L19.85 12.65 19.95 11.65 19.6 7.9 Q21.7 8.65 23.9 8.85 L26.65 8.9 M12.1 18.25 L12.5 16.2 13.1 16.55 Q14.6 17.45 16.05 19.3 L17.3 21.0 13.7 19.15 12.1 18.25 M18.05 18.6 L17.55 15.7 Q19.45 16.5 21.7 19.55 L22.3 20.45 22.8 21.1 21.65 20.6 19.45 19.45 18.2 18.65 18.05 18.6" fill="#f4d971" fill-rule="evenodd" stroke="none"/>
      <path d="M26.65 8.9 L23.9 8.85 Q21.7 8.65 19.6 7.9 L19.95 11.65 19.85 12.65 18.65 12.6 Q15.55 12.35 12.85 11.1 L11.55 10.05 11.55 10.45 Q11.5 12.8 12.95 14.35 11.35 13.75 9.8 11.85 9.6 14.55 8.05 16.4 L7.9 16.0 Q7.8 13.95 8.2 11.65 L8.65 9.4 10.55 5.9 10.6 5.85 10.85 5.5 Q14.45 2.45 20.45 4.45 L26.3 7.1 29.55 8.35 26.65 8.9 M28.05 15.45 L28.1 16.1 28.1 18.7 28.0 19.85 Q27.75 21.8 27.1 23.6 26.9 21.85 26.15 21.0 L26.15 22.55 25.95 24.3 25.75 24.25 Q24.4 24.25 24.0 22.75 L24.1 19.9 24.15 19.7 Q24.45 17.85 25.2 16.5 L26.5 17.1 Q26.3 15.55 26.85 14.9 L28.05 15.45 M26.1 20.7 L26.15 21.0 26.1 20.7" fill="#65443d" fill-rule="evenodd" stroke="none"/>
      <path d="M26.65 8.9 L23.9 8.85 Q21.7 8.65 19.6 7.9 L19.95 11.65 19.85 12.65 18.65 12.6 Q15.55 12.35 12.85 11.1 13.2 12.8 12.95 14.35 11.35 13.75 9.8 11.85 9.6 14.55 8.05 16.4 L7.9 16.0 7.4 14.15 6.25 16.4 6.25 16.65 7.3 15.4 Q7.1 17.15 7.25 18.85 L7.45 20.55 7.7 21.4 8.2 19.9 8.25 20.0 Q9.35 22.2 10.65 23.85 L11.05 24.3 12.65 25.8 12.15 23.4 Q11.85 21.25 12.0 19.1 L12.1 18.25 13.7 19.15 17.3 21.0 Q17.85 20.35 18.0 19.4 L18.05 18.6 18.2 18.65 19.45 19.45 21.65 20.6 22.8 21.1 23.05 20.25 23.15 19.65 23.8 14.8 23.8 14.55 Q24.9 15.55 25.9 15.8 L26.55 12.65 Q27.4 13.15 28.0 14.4 L28.05 15.45 28.1 16.1 29.0 16.8 Q29.0 12.95 26.95 10.95 29.05 9.55 29.55 8.35 L26.65 8.9 M10.6 5.85 L10.85 5.5 Q14.45 2.45 20.45 4.45 L26.3 7.1 29.55 8.35 M12.65 25.8 L13.05 23.55 25.75 24.25 25.95 24.3 26.15 22.55 26.15 21.0 26.1 20.7 M27.1 23.6 Q27.75 21.8 28.0 19.85 L28.1 18.7 28.1 16.1 M26.15 22.55 L27.1 23.6 M10.55 5.9 Q8.2 8.85 7.1 12.0 6.4 14.2 6.25 16.4" fill="none" stroke="#000000" stroke-linecap="round" stroke-linejoin="round" stroke-opacity="0.3019608" stroke-width="0.30000000000000004"/>
      <path d="M31.15 24.35 L31.85 25.3 31.95 25.4 Q32.35 26.2 32.1 26.4 L31.75 26.5 31.05 25.55 31.25 26.3 31.0 26.1 Q30.2 25.65 29.7 24.35 29.15 23.1 30.3 23.75 L30.45 23.9 31.15 24.35" fill="#351811" fill-rule="evenodd" stroke="none"/>
      <path d="M29.1 29.45 L29.8 30.5 29.8 30.6 Q30.15 31.45 29.65 31.65 L29.15 31.65 28.5 30.6 28.55 31.4 28.3 31.2 Q27.35 30.6 27.0 29.25 26.7 27.9 28.05 28.7 L28.3 28.9 29.1 29.45" fill="#351811" fill-rule="evenodd" stroke="none"/>
      <path d="M35.75 32.7 L36.45 33.65 36.55 33.75 Q36.95 34.55 36.7 34.75 L36.35 34.85 35.65 33.9 35.85 34.65 35.6 34.45 Q34.8 34.0 34.3 32.7 33.75 31.45 34.9 32.1 L35.05 32.25 35.75 32.7" fill="#351811" fill-rule="evenodd" stroke="none"/>
      <path d="M16.3 26.7 L16.45 27.85 16.5 27.95 Q16.4 28.85 16.05 28.9 L15.75 28.8 15.6 27.65 15.4 28.4 15.3 28.15 Q14.85 27.35 15.05 25.95 15.2 24.6 15.85 25.7 L15.95 25.9 16.3 26.7" fill="#351811" fill-rule="evenodd" stroke="none"/>
      <path d="M25.3 40.55 L26.0 41.35 26.1 41.45 Q26.5 42.15 26.2 42.3 L25.85 42.4 25.2 41.6 25.35 42.25 25.15 42.1 Q24.35 41.7 23.85 40.65 L23.85 40.6 Q23.4 39.55 24.5 40.05 L24.65 40.2 25.3 40.55" fill="#351811" fill-rule="evenodd" stroke="none"/>
      <path d="M22.3 28.6 L22.75 29.55 22.8 29.6 Q23.0 30.3 22.75 30.45 L22.4 30.4 21.95 29.5 22.0 30.15 21.85 30.0 Q21.2 29.4 21.1 28.3 20.9 27.2 21.7 27.95 L21.85 28.1 22.3 28.6" fill="#351811" fill-rule="evenodd" stroke="none"/>
      <path d="M23.75 34.4 L24.45 35.45 24.45 35.55 Q24.8 36.4 24.3 36.6 L23.8 36.6 23.15 35.55 23.2 36.35 22.95 36.15 Q22.0 35.55 21.65 34.2 21.35 32.85 22.7 33.65 L22.95 33.85 23.75 34.4" fill="#351811" fill-rule="evenodd" stroke="none"/>
      <path d="M34.45 37.3 L35.15 38.05 35.25 38.15 Q35.6 38.75 35.3 38.95 L35.0 39.05 34.35 38.3 34.55 38.85 34.35 38.75 Q33.65 38.4 33.15 37.35 32.75 36.3 33.75 36.8 L33.9 36.9 34.45 37.3" fill="#351811" fill-rule="evenodd" stroke="none"/>
      <path d="M41.45 30.8 L42.15 31.55 42.25 31.65 Q42.6 32.25 42.3 32.45 L42.0 32.55 41.35 31.8 41.55 32.35 41.35 32.25 Q40.65 31.9 40.15 30.85 39.75 29.8 40.75 30.3 L40.9 30.4 41.45 30.8" fill="#351811" fill-rule="evenodd" stroke="none"/>
    </g>
    <g id="sprite0" transform="matrix(1.0, 0.0, 0.0, 1.0, 73.5, 65.0)">
      <use height="136.85" transform="matrix(1.0, 0.0, 0.0, 1.0, -73.5, -65.0)" width="148.25" xlink:href="#shape1"/>
    </g>
    <g id="shape1" transform="matrix(1.0, 0.0, 0.0, 1.0, 73.5, 65.0)">
      <path d="M36.65 -54.65 Q60.05 -42.0 69.75 -17.95 80.55 8.9 68.0 34.1 55.45 59.35 26.8 68.2 -1.8 77.05 -29.7 64.3 -57.6 51.6 -68.45 24.75 -79.3 -2.05 -66.75 -27.25 L-66.7 -27.3 Q-54.1 -52.5 -25.5 -61.4 3.1 -70.2 31.0 -57.5 L36.65 -54.65" fill="url(#gradient0)" fill-rule="evenodd" stroke="none"/>
    </g>
    <radialGradient cx="0" cy="0" gradientTransform="matrix(0.0914, 0.0, 0.0, 0.0914, 0.6, 3.4)" gradientUnits="userSpaceOnUse" id="gradient0" r="819.2" spreadMethod="pad">
      <stop offset="0.0" stop-color="#ffffff"/>
      <stop offset="1.0" stop-color="#ffffff" stop-opacity="0.0"/>
    </radialGradient>
  </defs>
</svg>
