<?xml version="1.0" encoding="UTF-8" standalone="no"?>
<svg xmlns:xlink="http://www.w3.org/1999/xlink" height="600.0px" width="600.0px" xmlns="http://www.w3.org/2000/svg">
  <g transform="matrix(10.0, 0.0, 0.0, 10.0, 0.0, 0.0)">
    <use height="60.0" transform="matrix(1.0, 0.0, 0.0, 1.0, 0.0, 0.0)" width="60.0" xlink:href="#shape0"/>
    <use height="52.0" transform="matrix(1.1, 0.0, 0.0, 1.1, 1.3, 1.65)" width="52.0" xlink:href="#sprite0"/>
  </g>
  <defs>
    <g id="shape0" transform="matrix(1.0, 0.0, 0.0, 1.0, 0.0, 0.0)">
      <path d="M60.0 0.0 L60.0 60.0 0.0 60.0 0.0 0.0 60.0 0.0" fill="#795fa9" fill-opacity="0.0" fill-rule="evenodd" stroke="none"/>
    </g>
    <g id="sprite0" transform="matrix(1.0, 0.0, 0.0, 1.0, 0.0, 0.0)">
      <use height="52.0" transform="matrix(1.0, 0.0, 0.0, 1.0, 0.0, 0.0)" width="52.0" xlink:href="#sprite1"/>
      <use height="43.85" transform="matrix(1.0, 0.0, 0.0, 1.0, 3.95, 3.65)" width="44.65" xlink:href="#shape2"/>
      <use height="37.7" transform="matrix(0.5703, 0.3072, -0.2086, 0.5625, 11.5, 3.5)" width="37.7" xlink:href="#sprite2"/>
      <use height="37.7" transform="matrix(0.3908, 0.2688, -0.0943, 0.2544, 24.0, 27.55)" width="37.7" xlink:href="#sprite2"/>
      <use height="37.7" transform="matrix(0.3908, 0.2688, -0.0739, 0.1994, 29.05, 20.05)" width="37.7" xlink:href="#sprite2"/>
      <use height="37.7" transform="matrix(0.5758, 0.1649, -0.0067, 0.2123, 16.45, 7.8)" width="37.7" xlink:href="#sprite2"/>
      <use height="12.05" transform="matrix(1.0, 0.0, 0.0, 1.0, 4.1, 4.4)" width="15.25" xlink:href="#shape4"/>
      <use height="20.95" transform="matrix(-0.0476, 0.2212, -0.2566, -0.0379, 21.05, 3.05)" width="24.45" xlink:href="#sprite3"/>
      <use height="20.95" transform="matrix(0.0112, 0.226, -0.2576, 0.0298, 15.5, 6.15)" width="24.45" xlink:href="#sprite3"/>
    </g>
    <g id="sprite1" transform="matrix(1.0, 0.0, 0.0, 1.0, 0.0, 0.0)">
      <use height="52.0" transform="matrix(1.0, 0.0, 0.0, 1.0, 0.0, 0.0)" width="52.0" xlink:href="#shape1"/>
    </g>
    <g id="shape1" transform="matrix(1.0, 0.0, 0.0, 1.0, 0.0, 0.0)">
      <path d="M0.0 0.0 L52.0 0.0 52.0 52.0 0.0 52.0 0.0 0.0" fill="#ffba2e" fill-opacity="0.0" fill-rule="evenodd" stroke="none"/>
    </g>
    <g id="shape2" transform="matrix(1.0, 0.0, 0.0, 1.0, -3.95, -3.65)">
      <path d="M48.3 33.15 Q46.1 34.75 43.9 34.1 L43.75 34.15 41.8 32.75 40.75 32.1 Q38.2 30.8 34.65 31.4 35.6 33.05 38.75 35.7 41.85 38.25 43.6 38.15 41.85 38.8 40.15 37.8 43.1 39.85 48.45 40.75 L48.6 41.0 46.5 41.15 44.4 41.4 41.95 40.65 Q42.6 41.0 43.4 42.9 42.45 41.45 41.0 41.25 42.0 42.0 43.05 44.0 44.0 46.05 43.65 47.5 42.95 46.2 41.45 45.35 38.75 44.05 38.0 42.2 38.9 44.3 38.6 45.7 35.2 43.5 33.1 40.3 L32.65 42.85 Q25.2 32.7 30.9 25.7 32.85 24.15 34.95 23.75 33.55 24.1 33.0 25.3 L37.65 25.5 35.2 25.85 Q36.5 25.9 39.05 27.35 L35.5 27.4 Q37.65 27.85 39.45 29.25 L42.45 32.0 Q44.85 33.75 48.3 33.15 M40.8 40.0 L41.95 40.65 40.8 40.0" fill="#393524" fill-rule="evenodd" stroke="none"/>
      <path d="M34.95 23.75 L40.35 24.15 Q39.8 25.25 37.9 25.4 41.2 26.15 43.5 27.8 45.8 29.5 48.5 29.7 47.8 31.7 45.8 31.65 47.15 32.95 48.3 33.15 44.85 33.75 42.45 32.0 L39.45 29.25 Q37.65 27.85 35.5 27.4 L39.05 27.35 Q36.5 25.9 35.2 25.85 L37.65 25.5 33.0 25.3 Q33.55 24.1 34.95 23.75 M43.75 34.15 Q46.3 36.2 47.6 39.0 L48.45 40.75 Q43.1 39.85 40.15 37.8 41.85 38.8 43.6 38.15 41.85 38.25 38.75 35.7 35.6 33.05 34.65 31.4 38.2 30.8 40.75 32.1 L41.8 32.75 43.75 34.15 M43.4 42.9 Q44.25 45.25 43.65 47.5 44.0 46.05 43.05 44.0 42.0 42.0 41.0 41.25 42.45 41.45 43.4 42.9 M44.3 30.4 L45.8 31.65 44.3 30.4" fill="url(#gradient0)" fill-rule="evenodd" stroke="none"/>
      <path d="M34.95 23.75 L40.35 24.15 Q39.8 25.25 37.9 25.4 41.2 26.15 43.5 27.8 45.8 29.5 48.5 29.7 47.8 31.7 45.8 31.65 47.15 32.95 48.3 33.15 46.1 34.75 43.9 34.1 M43.75 34.15 Q46.3 36.2 47.6 39.0 L48.45 40.75 48.6 41.0 46.5 41.15 44.4 41.4 41.95 40.65 Q42.6 41.0 43.4 42.9 44.25 45.25 43.65 47.5 42.95 46.2 41.45 45.35 38.75 44.05 38.0 42.2 38.9 44.3 38.6 45.7 35.2 43.5 33.1 40.3 L32.65 42.85 Q25.2 32.7 30.9 25.7 32.85 24.15 34.95 23.75 M45.8 31.65 L44.3 30.4 M40.75 32.1 L41.8 32.75 43.75 34.15 M41.95 40.65 L40.8 40.0" fill="none" stroke="#000000" stroke-linecap="round" stroke-linejoin="round" stroke-opacity="0.3019608" stroke-width="0.05"/>
      <path d="M31.3 36.05 Q32.5 38.55 32.4 41.6 30.45 39.2 29.45 35.65 28.5 32.05 29.4 29.85 33.15 31.95 33.8 39.05 32.4 37.65 31.3 36.05" fill="url(#gradient1)" fill-rule="evenodd" stroke="none"/>
      <path d="M33.65 35.5 L33.7 35.7 33.55 35.45 33.65 35.5" fill="#6f452b" fill-rule="evenodd" stroke="none"/>
      <path d="M7.95 10.05 Q8.65 8.9 9.75 7.9 11.1 6.4 13.15 5.4 L14.1 4.8 13.55 5.5 Q15.25 4.1 17.15 4.6 L15.7 6.55 Q18.05 4.75 20.3 4.9 15.25 6.7 12.15 10.7 12.0 10.65 11.95 10.9 12.0 10.3 12.65 9.25 L15.05 5.65 13.55 6.55 Q9.65 8.9 7.35 12.95 L7.1 13.5 7.2 12.85 Q7.2 11.0 8.95 8.9 L7.95 10.05 M33.3 14.05 Q34.65 14.45 35.45 14.9 L35.75 15.1 Q34.6 14.45 33.3 14.05 M31.1 21.65 L33.85 22.2 Q37.35 23.05 39.4 26.25 L35.95 26.0 Q38.35 26.85 41.4 31.2 L39.1 30.35 Q41.85 32.4 42.6 33.5 37.0 35.1 32.4 32.45 27.2 30.1 24.9 22.0 28.2 23.65 35.0 25.6 32.4 23.7 31.1 21.65 M35.5 16.25 Q37.55 17.3 38.2 17.75 L40.35 19.6 Q35.6 21.05 32.95 20.2 30.25 19.3 29.25 18.3 L32.1 19.0 Q26.25 17.3 23.8 13.5 33.05 14.0 35.25 15.4 L37.7 16.9 35.5 16.25 M31.75 42.35 Q32.3 43.25 34.85 44.9 31.95 44.85 27.7 41.6 23.35 38.3 22.2 30.55 26.4 33.8 30.2 36.1 36.9 39.85 39.2 44.8 34.2 44.85 31.75 42.35" fill="#4a4d33" fill-rule="evenodd" stroke="none"/>
      <path d="M35.75 15.1 L36.55 15.65 37.0 16.0 Q39.3 17.55 41.65 19.85 40.4 21.4 35.95 21.75 38.4 22.95 40.4 24.95 42.35 26.95 43.5 26.65 40.55 27.95 39.05 27.45 43.35 32.05 44.1 34.5 39.55 36.5 36.5 36.1 39.3 38.2 39.65 39.95 38.45 40.1 35.9 39.1 38.95 42.6 40.15 45.7 33.65 46.55 27.1 42.9 L29.0 47.3 Q24.25 45.8 19.9 42.05 20.7 42.9 20.85 44.55 18.9 43.2 17.7 41.5 L18.5 43.8 Q12.55 39.8 8.45 33.0 4.2 26.3 5.2 15.8 5.55 13.85 6.3 12.35 L7.3 10.7 7.95 10.05 8.95 8.9 Q7.2 11.0 7.2 12.85 L7.1 13.5 7.35 12.95 Q9.65 8.9 13.55 6.55 L15.05 5.65 12.65 9.25 Q12.0 10.3 11.95 10.9 12.0 10.65 12.15 10.7 15.25 6.7 20.3 4.9 L21.25 4.95 21.4 4.95 21.55 4.95 Q26.0 4.6 31.45 9.2 L27.3 9.4 Q30.15 9.6 34.25 11.9 33.35 12.9 29.85 13.4 L32.35 13.75 33.3 14.05 Q34.6 14.45 35.75 15.1 M29.85 13.4 L27.3 13.4 29.85 13.4 M27.3 9.4 L25.45 9.45 27.3 9.4 M35.5 16.25 L37.7 16.9 35.25 15.4 Q33.05 14.0 23.8 13.5 26.25 17.3 32.1 19.0 L29.25 18.3 Q30.25 19.3 32.95 20.2 35.6 21.05 40.35 19.6 L38.2 17.75 Q37.55 17.3 35.5 16.25 M31.1 21.65 Q32.4 23.7 35.0 25.6 28.2 23.65 24.9 22.0 27.2 30.1 32.4 32.45 37.0 35.1 42.6 33.5 41.85 32.4 39.1 30.35 L41.4 31.2 Q38.35 26.85 35.95 26.0 L39.4 26.25 Q37.35 23.05 33.85 22.2 L31.1 21.65 M17.7 41.5 L16.45 39.0 16.1 38.45 16.45 39.0 17.7 41.5 M33.55 35.45 L33.7 35.7 33.65 35.5 33.55 35.45 M25.0 41.3 L27.1 42.9 25.0 41.3 M36.5 36.1 L33.7 35.7 36.5 36.1 M31.75 42.35 Q34.2 44.85 39.2 44.8 36.9 39.85 30.2 36.1 26.4 33.8 22.2 30.55 23.35 38.3 27.7 41.6 31.95 44.85 34.85 44.9 32.3 43.25 31.75 42.35 M33.55 37.3 L35.9 39.1 33.55 37.3" fill="url(#gradient2)" fill-rule="evenodd" stroke="none"/>
      <path d="M35.75 15.1 L36.55 15.65 37.0 16.0 Q39.3 17.55 41.65 19.85 40.4 21.4 35.95 21.75 38.4 22.95 40.4 24.95 42.35 26.95 43.5 26.65 40.55 27.95 39.05 27.45 43.35 32.05 44.1 34.5 39.55 36.5 36.5 36.1 39.3 38.2 39.65 39.95 38.45 40.1 35.9 39.1 38.95 42.6 40.15 45.7 33.65 46.55 27.1 42.9 L29.0 47.3 Q24.25 45.8 19.9 42.05 20.7 42.9 20.85 44.55 18.9 43.2 17.7 41.5 L18.5 43.8 Q12.55 39.8 8.45 33.0 4.2 26.3 5.2 15.8 5.55 13.85 6.3 12.35 L7.3 10.7 7.95 10.05 Q8.65 8.9 9.75 7.9 11.1 6.4 13.15 5.4 L14.1 4.8 13.55 5.5 Q15.25 4.1 17.15 4.6 L15.7 6.55 Q18.05 4.75 20.3 4.9 L21.25 4.95 21.4 4.95 21.55 4.95 Q26.0 4.6 31.45 9.2 L27.3 9.4 Q30.15 9.6 34.25 11.9 33.35 12.9 29.85 13.4 L32.35 13.75 33.3 14.05 Q34.65 14.45 35.45 14.9 L35.75 15.1 M25.45 9.45 L27.3 9.4 M27.3 13.4 L29.85 13.4 M16.1 38.45 L16.45 39.0 17.7 41.5 M33.65 35.5 L33.55 35.45 M33.7 35.7 L36.5 36.1 M27.1 42.9 L25.0 41.3 M35.9 39.1 L33.55 37.3" fill="none" stroke="#000000" stroke-linecap="round" stroke-linejoin="round" stroke-opacity="0.3019608" stroke-width="0.05"/>
      <path d="M29.55 10.5 L31.2 10.95 32.55 11.5 28.15 11.65 25.85 11.1 27.6 11.3 Q25.4 10.9 24.0 9.95 L28.45 10.1 30.85 10.7 29.55 10.5" fill="#4a4d33" fill-rule="evenodd" stroke="none"/>
      <path d="M27.05 7.65 L28.7 8.1 30.05 8.6 25.7 8.8 23.4 8.2 25.1 8.45 Q23.7 7.65 17.85 7.05 20.95 4.2 24.7 5.55 28.4 6.9 28.8 7.85 L27.05 7.65" fill="#4a4d33" fill-rule="evenodd" stroke="none"/>
      <path d="M36.7 37.45 Q38.85 39.1 38.8 39.5 31.2 37.5 24.35 29.45 36.0 36.6 41.15 35.05 38.0 36.95 33.1 35.2 35.15 36.3 36.7 37.45" fill="#4a4d33" fill-rule="evenodd" stroke="none"/>
      <path d="M26.65 43.65 L25.0 42.4 Q27.2 44.85 28.1 46.25 L28.1 46.35 Q19.15 42.6 19.0 29.65 23.9 35.35 26.65 43.65" fill="#4a4d33" fill-rule="evenodd" stroke="none"/>
      <path d="M5.0 19.45 L5.5 19.8 6.4 21.0 Q6.85 21.85 6.9 22.45 L6.9 22.3 7.5 25.15 7.5 25.25 Q7.7 27.45 7.3 29.25 5.6 26.2 4.9 22.8 4.6 20.55 5.0 19.45 M8.3 20.85 Q8.5 20.45 8.85 20.5 L9.3 20.45 Q11.0 21.55 12.05 22.95 12.85 23.95 14.2 27.55 L14.85 29.35 Q15.5 33.0 15.2 36.5 L15.1 36.55 Q11.65 31.05 10.2 27.75 7.9 22.05 8.3 20.85 M15.5 24.75 L16.15 25.45 16.25 25.65 Q17.55 27.65 18.2 29.9 L17.85 29.65 15.55 27.45 Q14.5 26.1 13.5 24.05 14.1 23.7 15.5 24.75" fill="#4a4d33" fill-rule="evenodd" stroke="none"/>
      <path d="M9.3 20.45 Q10.35 20.5 12.25 22.8 13.75 22.7 15.5 24.75 14.1 23.7 13.5 24.05 14.5 26.1 15.55 27.45 L17.85 29.65 15.2 27.85 14.5 27.5 14.2 27.55 Q12.85 23.95 12.05 22.95 11.0 21.55 9.3 20.45 M8.4 28.4 Q9.1 32.35 7.4 32.85 L6.8 31.65 Q5.55 28.9 4.6 24.75 L4.55 24.3 4.45 23.1 Q4.35 19.35 5.0 19.45 4.6 20.55 4.9 22.8 5.6 26.2 7.3 29.25 7.7 27.45 7.5 25.25 8.1 27.95 8.4 28.4" fill="#29271a" fill-rule="evenodd" stroke="none"/>
      <path d="M6.9 22.3 Q7.6 21.3 8.3 20.85 7.9 22.05 10.2 27.75 11.65 31.05 15.1 36.55 13.1 35.15 11.65 32.85 12.1 34.45 11.55 35.1 10.4 31.9 8.4 28.4 8.1 27.95 7.5 25.25 L7.5 25.15 6.9 22.3 M15.2 27.85 Q16.75 29.9 16.9 31.4 15.75 29.8 14.85 29.35 L14.2 27.55 14.5 27.5 15.2 27.85" fill="#393524" fill-rule="evenodd" stroke="none"/>
      <path d="M12.25 22.8 Q13.75 22.7 15.5 24.75 L16.15 25.45 16.25 25.65 Q17.55 27.65 18.2 29.9 L17.85 29.65 15.2 27.85 Q16.75 29.9 16.9 31.4 15.75 29.8 14.85 29.35 15.5 33.0 15.2 36.5 L15.1 36.55 Q13.1 35.15 11.65 32.85 12.1 34.45 11.55 35.1 10.4 31.9 8.4 28.4 9.1 32.35 7.4 32.85 L6.8 31.65 Q5.55 28.9 4.6 24.75 L4.55 24.3 4.45 23.1 M7.5 25.25 L7.5 25.15 M7.5 25.25 Q8.1 27.95 8.4 28.4 M9.3 20.45 Q11.0 21.55 12.05 22.95 12.85 23.95 14.2 27.55 L14.85 29.35 M14.5 27.5 L15.2 27.85" fill="none" stroke="#000000" stroke-linecap="round" stroke-linejoin="round" stroke-opacity="0.3019608" stroke-width="0.05"/>
      <path d="M5.0 19.45 L5.5 19.8 6.4 21.0 Q6.85 21.85 6.9 22.45 L6.9 22.3 M8.3 20.85 Q8.5 20.45 8.85 20.5 L9.3 20.45 Q10.35 20.5 12.25 22.8 Z" fill="none" stroke="#000000" stroke-linecap="round" stroke-linejoin="round" stroke-opacity="0.15294118" stroke-width="0.05"/>
      <path d="M9.1 11.05 L9.15 10.95 9.1 11.05 7.8 11.75 5.65 12.25 5.75 12.1 9.6 8.1 Q11.3 6.7 13.75 6.2 13.0 7.75 11.85 9.05 L10.05 10.4 Q9.6 10.65 9.1 11.05 M23.55 7.3 L23.6 7.25 Q22.7 11.35 18.8 14.25 L17.5 14.75 Q14.8 15.65 13.7 15.6 12.5 15.45 11.1 14.7 10.15 11.3 12.8 10.65 L16.9 10.2 Q19.65 10.35 20.75 9.6 L23.55 7.3 M21.05 17.15 L21.35 17.4 Q19.9 18.35 17.95 18.25 L17.8 18.15 16.95 18.05 Q15.5 17.15 15.35 16.35 L18.35 16.2 Q19.9 16.6 21.05 17.15" fill="#4a4d33" fill-rule="evenodd" stroke="none"/>
      <path d="M11.85 9.05 Q13.0 7.75 13.75 6.2 11.3 6.7 9.6 8.1 L5.75 12.1 5.65 12.25 Q6.9 8.9 8.05 7.65 L9.45 6.5 Q9.4 6.35 11.8 5.5 14.25 4.8 14.85 4.35 L15.45 3.65 Q16.4 5.95 13.95 7.85 13.5 7.85 11.85 9.05 M18.35 15.65 L21.05 17.15 Q19.9 16.6 18.35 16.2 L15.35 16.35 Q15.5 17.15 16.95 18.05 14.75 17.6 13.85 15.95 11.4 15.4 10.65 14.35 L11.1 14.7 Q12.5 15.45 13.7 15.6 14.8 15.65 17.5 14.75 L17.7 15.05 18.35 15.65" fill="#29271a" fill-rule="evenodd" stroke="none"/>
      <path d="M9.1 11.05 Q9.6 10.65 10.05 10.4 L11.85 9.05 Q13.5 7.85 13.95 7.85 17.0 7.65 19.35 6.75 19.45 7.8 18.35 8.25 20.55 8.35 23.55 7.3 L20.75 9.6 Q19.65 10.35 16.9 10.2 L12.8 10.65 Q10.15 11.3 11.1 14.7 L10.65 14.35 10.3 13.8 Q8.9 12.15 9.1 11.05 M18.8 14.25 Q19.6 14.85 21.2 15.05 20.4 15.95 18.35 15.65 L17.7 15.05 17.5 14.75 18.8 14.25" fill="#393524" fill-rule="evenodd" stroke="none"/>
      <path d="M8.05 7.65 L9.45 6.5 Q9.4 6.35 11.8 5.5 14.25 4.8 14.85 4.35 L15.45 3.65 Q16.4 5.95 13.95 7.85 17.0 7.65 19.35 6.75 19.45 7.8 18.35 8.25 20.55 8.35 23.55 7.3 M23.6 7.25 Q22.7 11.35 18.8 14.25 19.6 14.85 21.2 15.05 20.4 15.95 18.35 15.65 L21.05 17.15 21.35 17.4 Q19.9 18.35 17.95 18.25 L17.8 18.15 16.95 18.05 Q14.75 17.6 13.85 15.95 M11.1 14.7 Q12.5 15.45 13.7 15.6 14.8 15.65 17.5 14.75 L18.8 14.25 M13.95 7.85 Q13.5 7.85 11.85 9.05 M18.35 15.65 L17.7 15.05" fill="none" stroke="#000000" stroke-linecap="round" stroke-linejoin="round" stroke-opacity="0.3019608" stroke-width="0.05"/>
      <path d="M5.65 12.25 L7.8 11.75 9.1 11.05 9.15 10.95 9.1 11.05 M5.75 12.1 L5.65 12.25 M13.85 15.95 Q11.4 15.4 10.65 14.35 L10.3 13.8 M10.65 14.35 L11.1 14.7" fill="none" stroke="#000000" stroke-linecap="round" stroke-linejoin="round" stroke-opacity="0.15294118" stroke-width="0.05"/>
      <path d="M12.9 6.6 Q11.15 7.0 10.35 8.75 L17.15 9.0 13.55 9.55 Q15.45 9.6 19.2 11.6 17.15 11.5 14.1 11.7 17.15 12.35 19.7 14.3 L24.05 18.25 Q25.75 19.6 29.05 19.95 L27.4 20.4 Q30.75 21.15 32.05 20.45 29.1 22.2 26.0 21.25 L25.9 21.4 Q24.6 20.25 23.0 19.4 L21.95 18.75 Q17.9 16.6 12.8 15.3 12.65 21.25 20.7 26.65 24.95 29.4 34.85 28.35 33.1 30.15 28.8 30.35 L30.8 30.85 29.9 31.2 29.75 31.25 26.85 31.45 Q24.85 31.35 23.3 30.6 24.2 31.3 25.45 33.8 23.95 31.8 21.85 31.5 23.2 32.3 24.35 34.25 L22.3 32.9 24.35 36.55 Q21.75 33.8 20.4 33.0 L21.95 35.25 Q24.85 39.05 25.2 42.7 23.0 39.8 21.0 37.65 18.8 35.5 17.65 32.95 17.8 36.15 15.0 38.15 13.05 35.4 10.0 27.35 10.85 29.9 9.9 33.7 -0.65 19.4 7.5 9.2 10.15 7.25 12.9 6.6 M21.65 29.7 L23.3 30.6 21.65 29.7 M28.7 17.7 Q27.9 17.0 25.4 15.65 31.2 18.0 31.9 13.85 L30.0 13.4 32.75 13.5 Q31.75 17.75 28.7 17.7 M17.45 8.9 Q19.65 8.15 20.25 7.15 L18.6 6.55 21.05 7.1 Q20.1 8.65 17.45 8.9 M14.25 33.75 Q15.35 36.15 15.2 36.75 17.35 34.7 16.85 31.6 16.25 28.35 13.55 26.1 16.1 29.0 14.95 32.15 L13.15 29.2 Q12.8 31.95 14.4 35.75 L14.25 33.75" fill="#393524" fill-rule="evenodd" stroke="none"/>
      <path d="M32.05 20.45 Q30.75 21.15 27.4 20.4 L29.05 19.95 Q25.75 19.6 24.05 18.25 L19.7 14.3 Q17.15 12.35 14.1 11.7 17.15 11.5 19.2 11.6 15.45 9.6 13.55 9.55 L17.15 9.0 10.35 8.75 Q11.15 7.0 12.9 6.6 L13.0 6.55 13.25 6.45 17.2 6.35 18.6 6.55 20.25 7.15 Q19.65 8.15 17.45 8.9 22.2 9.95 25.3 12.05 27.0 13.15 30.0 13.4 L31.9 13.85 Q31.2 18.0 25.4 15.65 27.9 17.0 28.7 17.7 L32.1 20.35 32.05 20.45 M25.2 42.7 Q24.85 39.05 21.95 35.25 L20.4 33.0 Q21.75 33.8 24.35 36.55 L22.3 32.9 24.35 34.25 Q23.2 32.3 21.85 31.5 23.95 31.8 25.45 33.8 27.4 38.15 25.2 42.7 M21.95 18.75 L23.0 19.4 Q24.6 20.25 25.9 21.4 L29.45 25.2 Q32.0 28.1 34.85 28.35 24.95 29.4 20.7 26.65 12.65 21.25 12.8 15.3 17.9 16.6 21.95 18.75 M14.25 33.75 L14.4 35.75 Q12.8 31.95 13.15 29.2 L14.95 32.15 Q16.1 29.0 13.55 26.1 16.25 28.35 16.85 31.6 17.35 34.7 15.2 36.75 15.35 36.15 14.25 33.75" fill="url(#gradient3)" fill-rule="evenodd" stroke="none"/>
      <path d="M12.9 6.6 Q10.15 7.25 7.5 9.2 -0.65 19.4 9.9 33.7 10.85 29.9 10.0 27.35 13.05 35.4 15.0 38.15 17.8 36.15 17.65 32.95 18.8 35.5 21.0 37.65 23.0 39.8 25.2 42.7 M25.45 33.8 Q24.2 31.3 23.3 30.6 L21.65 29.7 M26.0 21.25 Q29.1 22.2 32.05 20.45 L32.1 20.35 28.7 17.7 Q27.9 17.0 25.4 15.65 M30.0 13.4 Q27.0 13.15 25.3 12.05 22.2 9.95 17.45 8.9 M18.6 6.55 L17.2 6.35 13.25 6.45 13.0 6.55 12.9 6.6 M25.9 21.4 Q24.6 20.25 23.0 19.4 L21.95 18.75 M34.85 28.35 Q32.0 28.1 29.45 25.2 L25.9 21.4 M30.0 13.4 L32.75 13.5 Q31.75 17.75 28.7 17.7 M23.3 30.6 Q24.85 31.35 26.85 31.45 L29.75 31.25 29.9 31.2 30.8 30.85 28.8 30.35 Q33.1 30.15 34.85 28.35 M25.45 33.8 Q27.4 38.15 25.2 42.7 M18.6 6.55 L21.05 7.1 Q20.1 8.65 17.45 8.9" fill="none" stroke="#000000" stroke-linecap="round" stroke-linejoin="round" stroke-opacity="0.3019608" stroke-width="0.05"/>
      <path d="M9.45 31.75 Q6.65 28.35 5.3 23.3 3.95 18.25 5.1 15.05 10.5 18.05 11.4 28.15 9.45 26.2 7.9 23.8 8.95 26.05 9.5 28.35 9.5 28.7 8.6 27.05 9.45 30.4 9.45 31.75" fill="url(#gradient4)" fill-rule="evenodd" stroke="none"/>
    </g>
    <linearGradient gradientTransform="matrix(-0.004, -0.0046, 0.0021, -0.0017, 40.55, 34.35)" gradientUnits="userSpaceOnUse" id="gradient0" spreadMethod="pad" x1="-819.2" x2="819.2">
      <stop offset="0.0" stop-color="#5a5e3d"/>
      <stop offset="1.0" stop-color="#41422d"/>
    </linearGradient>
    <linearGradient gradientTransform="matrix(-0.002, -0.0048, 0.0015, -4.0E-4, 35.55, 35.15)" gradientUnits="userSpaceOnUse" id="gradient1" spreadMethod="pad" x1="-819.2" x2="819.2">
      <stop offset="0.0" stop-color="#41422d"/>
      <stop offset="1.0" stop-color="#393524"/>
    </linearGradient>
    <linearGradient gradientTransform="matrix(-0.0087, 0.0011, -0.0093, -0.0269, 26.9, 18.5)" gradientUnits="userSpaceOnUse" id="gradient2" spreadMethod="pad" x1="-819.2" x2="819.2">
      <stop offset="0.0" stop-color="#393524"/>
      <stop offset="1.0" stop-color="#29271a"/>
    </linearGradient>
    <linearGradient gradientTransform="matrix(-0.0058, -0.0066, 0.003, -0.0025, 21.35, 21.8)" gradientUnits="userSpaceOnUse" id="gradient3" spreadMethod="pad" x1="-819.2" x2="819.2">
      <stop offset="0.0" stop-color="#5a5e3d"/>
      <stop offset="1.0" stop-color="#41422d"/>
    </linearGradient>
    <linearGradient gradientTransform="matrix(-0.0019, -0.0045, 0.0021, -5.0E-4, 13.75, 22.2)" gradientUnits="userSpaceOnUse" id="gradient4" spreadMethod="pad" x1="-819.2" x2="819.2">
      <stop offset="0.0" stop-color="#5a5e3d"/>
      <stop offset="1.0" stop-color="#41422d"/>
    </linearGradient>
    <g id="sprite2" transform="matrix(1.0, 0.0, 0.0, 1.0, 0.0, 0.0)">
      <use height="37.7" transform="matrix(1.0, 0.0, 0.0, 1.0, 0.0, 0.0)" width="37.7" xlink:href="#shape3"/>
    </g>
    <g id="shape3" transform="matrix(1.0, 0.0, 0.0, 1.0, 0.0, 0.0)">
      <path d="M37.7 18.85 Q37.7 26.65 32.15 32.15 26.65 37.7 18.85 37.7 11.05 37.7 5.5 32.15 0.0 26.65 0.0 18.85 0.0 11.05 5.5 5.5 11.05 0.0 18.85 0.0 26.65 0.0 32.15 5.5 37.7 11.05 37.7 18.85" fill="url(#gradient5)" fill-rule="evenodd" stroke="none"/>
    </g>
    <radialGradient cx="0" cy="0" gradientTransform="matrix(0.0244, 0.0, 0.0, 0.0244, 18.85, 18.85)" gradientUnits="userSpaceOnUse" id="gradient5" r="819.2" spreadMethod="pad">
      <stop offset="0.0" stop-color="#ffffcc"/>
      <stop offset="1.0" stop-color="#ffffcc" stop-opacity="0.0"/>
    </radialGradient>
    <g id="shape4" transform="matrix(1.0, 0.0, 0.0, 1.0, -4.1, -4.4)">
      <path d="M4.1 15.6 Q5.9 10.75 8.15 10.0 5.95 13.5 6.35 14.2 9.85 14.9 14.8 13.5 17.75 9.7 17.95 7.6 18.15 5.45 14.15 7.4 16.15 4.75 18.8 4.85 18.25 11.25 15.1 14.0 12.15 16.1 4.1 15.6" fill="#100d0a" fill-rule="evenodd" stroke="none"/>
      <path d="M14.15 7.4 Q18.15 5.45 17.95 7.6 17.75 9.7 14.8 13.5 9.85 14.9 6.35 14.2 5.95 13.5 8.15 10.0 5.9 10.75 4.1 15.6 5.45 8.1 9.25 6.1 9.4 5.95 9.7 5.95 12.75 4.05 16.9 4.45 L18.6 4.75 18.75 4.75 18.8 4.85 Q16.15 4.75 14.15 7.4" fill="#65472c" fill-rule="evenodd" stroke="none"/>
      <path d="M4.1 15.6 Q12.15 16.1 15.1 14.0 18.25 11.25 18.8 4.85 16.15 4.75 14.15 7.4 M4.1 15.6 Q5.45 8.1 9.25 6.1 9.4 5.95 9.7 5.95 12.75 4.05 16.9 4.45 L18.6 4.75 18.75 4.75 18.8 4.85" fill="none" stroke="#000000" stroke-linecap="round" stroke-linejoin="round" stroke-opacity="0.3019608" stroke-width="0.05"/>
      <path d="M18.9 4.95 Q19.8 10.25 18.8 15.8 L12.1 16.05 Q7.95 17.05 4.3 15.45 10.85 6.05 18.9 4.95" fill="#000000" fill-opacity="0.3019608" fill-rule="evenodd" stroke="none"/>
      <path d="M6.3 10.45 L5.8 10.95 Q6.05 9.85 6.65 9.2 L6.3 10.45 M5.6 11.1 L5.3 11.3 Q5.25 11.05 5.5 10.75 L5.6 11.1 M6.25 10.75 Q8.3 5.5 14.2 4.85 11.25 6.3 6.25 10.75" fill="#a37a3e" fill-rule="evenodd" stroke="none"/>
      <path d="M15.65 5.85 Q15.5 5.3 15.75 4.95 16.0 4.65 16.5 4.75 16.95 4.85 17.4 5.25 L18.0 6.25 Q18.15 6.8 17.9 7.15 17.65 7.45 17.2 7.35 L16.25 6.85 Q15.8 6.4 15.65 5.85" fill="#9a927e" fill-rule="evenodd" stroke="none"/>
      <path d="M15.65 5.85 Q15.5 5.3 15.75 4.95 16.0 4.65 16.5 4.75 16.95 4.85 17.4 5.25 L18.0 6.25 Q18.15 6.8 17.9 7.15 17.65 7.45 17.2 7.35 L16.25 6.85 Q15.8 6.4 15.65 5.85 Z" fill="none" stroke="#000000" stroke-linecap="round" stroke-linejoin="round" stroke-opacity="0.3019608" stroke-width="0.05"/>
      <path d="M17.6 7.05 L16.7 6.9 Q17.25 6.9 16.5 4.85 17.2 5.0 17.5 5.45 17.1 6.4 17.6 7.05" fill="#464239" fill-rule="evenodd" stroke="none"/>
      <path d="M17.5 5.45 L17.85 6.4 Q17.9 7.0 17.6 7.05 17.1 6.4 17.5 5.45" fill="#686253" fill-rule="evenodd" stroke="none"/>
      <path d="M12.25 12.3 Q12.85 12.3 13.15 11.85 13.75 11.45 13.6 10.8 13.5 10.25 12.95 9.8 12.55 9.3 11.95 9.35 11.3 9.3 10.95 9.8 10.6 10.15 10.75 10.8 10.8 11.35 11.15 11.8 11.6 12.25 12.25 12.3" fill="#9a927e" fill-rule="evenodd" stroke="none"/>
      <path d="M12.25 12.3 Q11.6 12.25 11.15 11.8 10.8 11.35 10.75 10.8 10.6 10.15 10.95 9.8 11.3 9.3 11.95 9.35 12.55 9.3 12.95 9.8 13.5 10.25 13.6 10.8 13.75 11.45 13.15 11.85 12.85 12.3 12.25 12.3 Z" fill="none" stroke="#000000" stroke-linecap="round" stroke-linejoin="round" stroke-opacity="0.3019608" stroke-width="0.05"/>
      <path d="M12.8 11.9 Q12.25 12.15 11.7 11.9 12.45 11.8 11.9 9.55 12.75 9.6 13.05 10.1 12.35 11.2 12.8 11.9" fill="#464239" fill-rule="evenodd" stroke="none"/>
      <path d="M13.05 10.1 Q13.4 10.5 13.3 11.15 L12.8 11.9 Q12.35 11.2 13.05 10.1" fill="#686253" fill-rule="evenodd" stroke="none"/>
      <path d="M5.35 13.6 Q5.2 13.05 5.45 12.7 5.7 12.4 6.2 12.5 L7.1 13.0 7.7 14.0 Q7.85 14.55 7.6 14.9 7.35 15.2 6.9 15.1 6.4 15.0 5.95 14.6 L5.35 13.6" fill="#9a927e" fill-rule="evenodd" stroke="none"/>
      <path d="M5.35 13.6 Q5.2 13.05 5.45 12.7 5.7 12.4 6.2 12.5 L7.1 13.0 7.7 14.0 Q7.85 14.55 7.6 14.9 7.35 15.2 6.9 15.1 6.4 15.0 5.95 14.6 L5.35 13.6 Z" fill="none" stroke="#000000" stroke-linecap="round" stroke-linejoin="round" stroke-opacity="0.3019608" stroke-width="0.05"/>
      <path d="M7.35 14.95 L6.45 14.8 Q7.0 14.8 6.25 12.75 6.95 12.9 7.25 13.35 6.85 14.3 7.35 14.95" fill="#464239" fill-rule="evenodd" stroke="none"/>
      <path d="M7.25 13.35 L7.6 14.3 Q7.65 14.9 7.35 14.95 6.85 14.3 7.25 13.35" fill="#686253" fill-rule="evenodd" stroke="none"/>
    </g>
    <g id="sprite3" transform="matrix(1.0, 0.0, 0.0, 1.0, 0.0, 0.0)">
      <use height="20.95" transform="matrix(1.0, 0.0, 0.0, 1.0, 0.0, 0.0)" width="24.45" xlink:href="#shape5"/>
    </g>
    <g id="shape5" transform="matrix(1.0, 0.0, 0.0, 1.0, 0.0, 0.0)">
      <path d="M14.85 11.4 Q15.8 11.6 16.25 12.45 16.85 13.3 16.6 14.35 16.4 15.3 15.55 15.9 14.65 16.4 13.65 16.2 12.65 15.9 12.1 15.1 11.6 14.2 11.8 13.2 12.1 12.2 12.9 11.65 13.8 11.15 14.85 11.4" fill="#ffffff" fill-opacity="0.5882353" fill-rule="evenodd" stroke="none"/>
      <path d="M14.85 11.4 Q13.8 11.15 12.9 11.65 12.1 12.2 11.8 13.2 11.6 14.2 12.1 15.1 12.65 15.9 13.65 16.2 14.65 16.4 15.55 15.9 16.4 15.3 16.6 14.35 16.85 13.3 16.25 12.45 15.8 11.6 14.85 11.4 M18.2 11.35 L20.15 11.25 18.75 12.55 Q19.05 13.8 18.8 15.05 18.5 16.35 17.65 17.3 L19.1 20.95 16.55 18.25 Q14.8 19.3 12.8 18.85 10.8 18.35 9.75 16.65 9.05 15.5 8.95 14.3 7.75 12.35 4.85 11.5 8.3 12.45 9.7 11.4 10.3 10.4 11.35 9.75 13.1 8.75 15.1 9.15 16.95 9.5 18.1 11.15 L18.2 11.35" fill="#ffffff" fill-opacity="0.1764706" fill-rule="evenodd" stroke="none"/>
      <path d="M15.4 13.55 L18.1 17.55 13.35 14.65 7.05 18.5 12.75 13.55 0.0 0.0 14.25 12.25 24.45 5.95 15.4 13.55" fill="#ffffff" fill-opacity="0.5882353" fill-rule="evenodd" stroke="none"/>
    </g>
  </defs>
</svg>
