<?xml version="1.0" encoding="UTF-8" standalone="no"?>
<svg xmlns:xlink="http://www.w3.org/1999/xlink" height="520.0px" width="520.0px" xmlns="http://www.w3.org/2000/svg">
  <g transform="matrix(10.0, 0.0, 0.0, 10.0, 0.0, 0.0)">
    <use height="52.0" transform="matrix(1.0, 0.0, 0.0, 1.0, 0.0, 0.0)" width="52.0" xlink:href="#sprite0"/>
  </g>
  <defs>
    <g id="sprite0" transform="matrix(1.0, 0.0, 0.0, 1.0, 0.0, 0.0)">
      <use height="52.0" transform="matrix(1.0, 0.0, 0.0, 1.0, 0.0, 0.0)" width="52.0" xlink:href="#sprite1"/>
      <use height="49.6" transform="matrix(1.0, 0.0, 0.0, 1.0, 1.6, 1.2)" width="48.4" xlink:href="#shape1"/>
      <clipPath id="clipPath0" transform="matrix(1.0, 0.0, 0.0, 1.0, 0.0, 0.0)">
        <use height="48.6" transform="matrix(1.0, 0.0, 0.0, 1.0, 2.1, 1.7)" width="47.4" xlink:href="#shape2"/>
      </clipPath>
      <g clip-path="url(#clipPath0)">
        <use height="37.7" transform="matrix(1.0, 0.5186, -0.2358, 0.6018, 13.25, 1.8)" width="37.7" xlink:href="#sprite2"/>
      </g>
    </g>
    <g id="sprite1" transform="matrix(1.0, 0.0, 0.0, 1.0, 0.0, 0.0)">
      <use height="52.0" transform="matrix(1.0, 0.0, 0.0, 1.0, 0.0, 0.0)" width="52.0" xlink:href="#shape0"/>
    </g>
    <g id="shape0" transform="matrix(1.0, 0.0, 0.0, 1.0, 0.0, 0.0)">
      <path d="M52.0 0.0 L52.0 52.0 0.0 52.0 0.0 0.0 52.0 0.0" fill="#ffba2e" fill-opacity="0.0" fill-rule="evenodd" stroke="none"/>
    </g>
    <g id="shape1" transform="matrix(1.0, 0.0, 0.0, 1.0, -1.6, -1.2)">
      <path d="M4.75 33.4 L4.5 33.25 4.5 33.2 4.75 33.4 M47.3 31.35 L47.3 31.3 47.35 31.35 47.3 31.35" fill="#458799" fill-rule="evenodd" stroke="none"/>
      <path d="M25.3 5.8 L25.45 5.75 Q26.0 5.35 26.2 5.75 L26.3 5.8 Q26.45 6.05 25.9 6.55 24.5 8.0 22.6 8.65 L22.55 8.7 20.95 9.15 21.0 9.25 21.65 9.55 22.8 10.35 Q24.65 11.4 26.2 11.45 L26.35 11.45 Q27.3 11.3 27.5 11.85 L27.45 11.9 27.5 12.05 Q27.65 12.35 26.7 12.85 25.0 13.6 23.15 13.85 L25.1 16.5 25.9 17.5 26.05 17.6 26.25 17.7 26.35 17.75 26.8 17.9 29.05 18.65 29.35 18.75 29.4 18.75 29.65 18.85 30.8 19.15 33.0 19.8 33.05 19.75 33.9 19.95 33.95 19.9 34.25 20.0 36.6 20.4 37.8 20.6 39.75 20.9 41.85 21.3 42.7 21.55 Q44.0 21.95 45.15 22.65 L46.65 23.8 Q49.05 26.0 49.5 29.5 L48.6 28.25 49.25 29.85 Q47.6 29.05 45.8 29.45 L44.55 28.2 Q43.7 28.65 43.2 29.5 L43.0 29.75 42.5 30.75 42.5 30.8 42.4 31.0 42.25 31.5 42.05 32.4 42.0 32.95 Q41.75 35.05 42.25 38.15 L42.7 42.2 Q42.7 43.95 42.35 44.9 L45.65 47.2 Q44.15 48.25 40.6 48.25 L38.5 47.35 35.65 47.5 29.9 46.8 27.95 46.1 Q26.2 45.45 24.75 44.35 L21.6 41.85 Q20.6 41.05 19.2 41.6 L23.65 45.95 Q22.25 46.65 19.0 47.4 L16.65 44.55 16.35 45.7 Q15.85 48.75 16.1 50.3 13.85 48.85 12.05 46.95 9.95 44.65 8.45 41.7 6.1 37.0 6.1 32.45 6.1 27.9 6.5 24.05 L6.65 22.3 6.75 21.15 6.85 19.2 6.15 19.4 5.25 19.3 5.15 19.2 Q4.75 18.75 5.4 18.35 L5.5 18.2 Q6.15 17.4 6.35 15.7 L6.4 15.0 5.8 15.45 5.7 15.45 Q4.45 16.2 3.0 16.25 2.35 16.25 2.25 16.0 L2.2 15.85 2.1 15.85 Q2.1 15.55 2.45 15.35 L2.6 15.25 Q3.3 14.85 3.8 13.8 L4.05 12.85 4.25 12.4 5.0 11.3 5.7 10.55 Q5.95 10.2 6.7 9.9 L7.95 10.0 8.25 10.0 8.8 9.45 Q9.55 8.65 10.75 9.6 L10.9 9.7 11.0 9.7 Q11.7 8.7 12.6 8.85 13.05 7.8 14.3 7.75 L15.25 7.75 Q15.35 7.05 16.05 6.75 L16.75 6.5 Q16.6 6.05 16.95 5.65 L17.75 4.75 18.25 4.5 18.4 4.35 18.9 4.05 19.85 3.5 20.35 3.3 21.2 3.1 Q22.35 2.7 22.95 2.1 L23.0 2.0 Q23.3 1.6 23.6 1.7 L23.65 1.75 Q23.85 1.85 23.65 2.35 23.35 3.9 22.2 5.0 L21.4 5.85 21.55 5.85 22.65 6.05 25.3 5.8 Z" fill="none" stroke="#000000" stroke-linecap="round" stroke-linejoin="round" stroke-opacity="0.3019608" stroke-width="1.0"/>
      <path d="M47.85 27.85 L47.8 27.8 47.85 27.8 47.85 27.85" fill="#99110d" fill-rule="evenodd" stroke="none"/>
      <path d="M47.85 27.8 L47.8 27.8 47.85 27.8" fill="#58c5d4" fill-rule="evenodd" stroke="none"/>
      <path d="M8.2 12.75 L8.2 12.7 8.2 12.75" fill="#4f98b8" fill-rule="evenodd" stroke="none"/>
      <path d="M42.05 32.4 L42.0 32.95 Q41.75 35.05 42.25 38.15 L42.65 42.2 Q42.65 44.05 42.3 45.0 37.7 42.4 36.0 41.2 34.3 40.0 29.05 35.4 L21.35 28.2 Q18.85 25.7 17.1 23.05 L14.5 18.8 Q13.55 17.15 12.95 19.3 L12.1 22.05 12.1 18.3 12.2 17.0 12.55 15.1 12.8 14.25 13.1 13.35 Q13.3 12.95 13.45 12.9 L13.65 12.9 13.9 13.15 14.9 15.0 Q15.25 15.8 19.35 20.2 23.45 24.5 30.65 26.8 37.75 29.1 42.05 32.4 M17.4 42.9 Q16.65 43.95 16.35 45.75 15.85 48.75 16.1 50.3 11.2 47.2 8.45 41.75 6.1 37.0 6.1 32.45 6.1 27.95 6.5 24.1 6.9 20.3 6.9 13.65 L6.7 12.85 5.25 11.55 Q5.5 11.05 6.05 10.7 7.1 11.05 7.8 12.05 L8.2 12.7 8.2 12.75 8.3 13.0 8.3 13.05 8.45 13.6 8.55 15.6 8.55 15.7 Q7.95 18.75 8.05 20.9 L8.35 25.25 8.75 29.0 Q9.0 31.75 10.3 34.5 11.7 37.7 14.75 40.65 L17.4 42.9" fill="#a5c7c2" fill-rule="evenodd" stroke="none"/>
      <path d="M42.65 21.55 Q45.05 22.3 46.6 23.8 49.0 26.05 49.5 29.5 48.75 28.2 47.85 27.85 L47.85 27.8 Q47.2 25.1 45.45 23.6 43.65 22.05 42.65 21.55 M42.95 29.8 Q42.65 30.2 42.5 30.75 L42.5 30.8 42.4 31.0 42.25 31.5 42.05 32.4 Q37.75 29.1 30.65 26.8 23.45 24.5 19.35 20.2 15.25 15.8 14.9 15.0 L13.9 13.15 13.65 12.9 Q14.05 12.8 15.45 13.85 L15.7 14.05 17.5 16.15 Q19.25 18.2 21.85 20.05 24.4 21.85 31.45 23.65 38.55 25.45 42.95 29.8 M42.3 45.0 L42.1 45.3 Q40.6 47.55 35.65 47.55 L29.9 46.8 27.95 46.1 Q23.2 43.15 17.9 35.6 13.05 28.75 12.3 24.15 L12.15 23.05 12.1 22.05 12.95 19.3 Q13.55 17.15 14.5 18.8 L17.1 23.05 Q18.85 25.7 21.35 28.2 L29.05 35.4 Q34.3 40.0 36.0 41.2 37.7 42.4 42.3 45.0 M6.05 10.7 Q7.05 10.0 10.25 9.75 13.4 9.5 15.95 7.45 L18.05 5.6 17.95 5.85 Q17.6 7.3 16.3 8.2 14.95 9.05 11.6 10.55 7.55 10.75 8.2 12.7 L7.8 12.05 Q7.1 11.05 6.05 10.7 M22.75 13.15 Q23.9 15.2 25.9 17.5 L25.4 17.35 25.35 17.35 25.25 17.3 25.15 17.25 24.7 17.05 24.3 16.9 22.85 16.3 Q21.15 15.45 19.65 14.4 L19.5 14.3 19.25 14.05 Q16.85 11.7 17.95 11.4 19.05 11.05 20.8 12.55 L22.85 14.35 Q23.25 14.55 22.75 13.15" fill="#d2e0de" fill-rule="evenodd" stroke="none"/>
      <path d="M25.9 17.5 L26.05 17.6 26.25 17.7 26.35 17.75 26.75 17.9 29.0 18.65 29.3 18.75 29.35 18.75 29.65 18.85 30.75 19.15 32.95 19.8 33.0 19.75 33.9 20.0 33.95 19.95 34.25 20.05 36.6 20.4 37.8 20.6 39.75 20.9 41.85 21.3 42.65 21.55 Q43.65 22.05 45.45 23.6 47.2 25.1 47.85 27.8 L47.8 27.8 47.8 27.85 46.15 27.65 Q44.1 28.05 43.15 29.5 L42.95 29.8 Q38.55 25.45 31.45 23.65 24.4 21.85 21.85 20.05 19.25 18.2 17.5 16.15 L15.7 14.05 15.45 13.85 Q14.05 12.8 13.65 12.9 L13.45 12.9 Q13.3 12.95 13.1 13.35 L12.8 14.25 12.55 15.1 12.2 17.0 12.1 18.3 12.1 22.05 12.15 23.05 12.3 24.15 Q13.05 28.75 17.9 35.6 23.2 43.15 27.95 46.1 26.2 45.45 24.75 44.35 L21.55 41.9 18.65 41.85 Q17.9 42.15 17.4 42.9 L14.75 40.65 Q11.7 37.7 10.3 34.5 9.0 31.75 8.75 29.0 L8.35 25.25 8.05 20.9 Q7.95 18.75 8.55 15.7 L8.55 15.6 8.45 13.6 8.3 13.05 8.3 13.0 8.2 12.75 8.2 12.7 Q7.55 10.75 11.6 10.55 14.95 9.05 16.3 8.2 17.6 7.3 17.95 5.85 L18.05 5.6 18.7 5.65 18.95 5.95 Q20.05 7.3 21.05 9.45 L21.55 10.65 21.75 11.15 22.75 13.15 Q23.25 14.55 22.85 14.35 L20.8 12.55 Q19.05 11.05 17.95 11.4 16.85 11.7 19.25 14.05 L19.5 14.3 19.65 14.4 Q21.15 15.45 22.85 16.3 L24.3 16.9 24.7 17.05 25.15 17.25 25.25 17.3 25.35 17.35 25.4 17.35 25.9 17.5" fill="#f2fbfa" fill-rule="evenodd" stroke="none"/>
      <path d="M25.9 17.5 L26.05 17.6 26.25 17.7 26.35 17.75 26.75 17.9 29.0 18.65 29.3 18.75 29.35 18.75 29.65 18.85 30.75 19.15 32.95 19.8 33.0 19.75 33.9 20.0 33.95 19.95 34.25 20.05 36.6 20.4 37.8 20.6 39.75 20.9 41.85 21.3 42.65 21.55 Q45.05 22.3 46.6 23.8 49.0 26.05 49.5 29.5 48.75 28.2 47.85 27.85 L47.8 27.85 46.15 27.65 Q44.1 28.05 43.15 29.5 L42.95 29.8 Q42.65 30.2 42.5 30.75 L42.5 30.8 42.4 31.0 42.25 31.5 42.05 32.4 42.0 32.95 Q41.75 35.05 42.25 38.15 L42.65 42.2 Q42.65 44.05 42.3 45.0 L42.1 45.3 Q40.6 47.55 35.65 47.55 L29.9 46.8 27.95 46.1 Q26.2 45.45 24.75 44.35 L21.55 41.9 18.65 41.85 Q17.9 42.15 17.4 42.9 16.65 43.95 16.35 45.75 15.85 48.75 16.1 50.3 11.2 47.2 8.45 41.75 6.1 37.0 6.1 32.45 6.1 27.95 6.5 24.1 6.9 20.3 6.9 13.65 L6.7 12.85 5.25 11.55 Q5.5 11.05 6.05 10.7 7.05 10.0 10.25 9.75 13.4 9.5 15.95 7.45 L18.05 5.6 18.7 5.65 18.95 5.95 Q20.05 7.3 21.05 9.45 L21.55 10.65 21.75 11.15 22.75 13.15 Q23.9 15.2 25.9 17.5 L25.4 17.35 25.35 17.35 25.25 17.3 25.15 17.25 24.7 17.05 24.3 16.9 22.85 16.3 Q21.15 15.45 19.65 14.4 L19.5 14.3 19.25 14.05" fill="none" stroke="#000000" stroke-linecap="round" stroke-linejoin="round" stroke-opacity="0.3019608" stroke-width="0.05"/>
      <path d="M4.75 33.4 L4.5 33.25 4.5 33.2 4.75 33.4" fill="#458799" fill-rule="evenodd" stroke="none"/>
      <path d="M47.3 31.35 L47.25 31.35 47.25 31.3 47.3 31.35" fill="#509ac0" fill-rule="evenodd" stroke="none"/>
      <path d="M49.2 29.9 Q47.6 29.05 45.8 29.45 43.0 26.45 39.45 24.85 35.9 23.15 28.0 20.65 L27.7 20.55 25.55 19.9 23.2 19.05 25.65 18.75 30.6 19.95 31.15 20.05 31.85 20.2 Q41.3 22.1 44.65 24.25 48.2 26.5 49.2 29.9 M8.0 23.35 Q8.45 22.25 9.15 21.45 9.3 26.05 10.6 29.6 11.45 32.1 12.9 34.05 17.15 40.1 23.65 45.95 22.25 46.65 18.95 47.4 12.95 40.45 10.05 34.7 L9.9 34.3 Q8.7 31.9 8.25 28.5 L8.25 28.35 8.1 27.3 8.0 23.35" fill="#509ac0" fill-rule="evenodd" stroke="none"/>
      <path d="M23.2 19.05 Q19.6 17.7 18.65 16.9 L20.45 16.9 Q22.3 17.9 25.65 18.75 L23.2 19.05 M15.5 21.05 L16.95 21.5 17.4 21.45 Q19.15 24.3 21.2 27.0 L23.8 30.15 26.55 33.05 27.75 34.25 30.6 36.85 Q32.85 38.8 38.05 42.1 L45.65 47.2 Q44.15 48.25 40.6 48.25 38.85 47.8 35.5 45.35 31.1 42.15 26.95 37.8 23.45 34.1 18.95 27.05 L17.5 24.75 15.5 21.05 M8.45 16.95 L9.25 16.95 Q9.05 19.3 9.15 21.45 8.45 22.25 8.0 23.35 8.0 20.35 8.45 16.95" fill="#376b86" fill-rule="evenodd" stroke="none"/>
      <path d="M12.8 13.9 L13.45 13.9 Q15.15 17.8 17.4 21.45 L16.95 21.5 15.5 21.05 Q13.75 17.55 12.8 13.9" fill="#2e5670" fill-rule="evenodd" stroke="none"/>
      <path d="M49.2 29.9 Q47.6 29.05 45.8 29.45 43.0 26.45 39.45 24.85 35.9 23.15 28.0 20.65 L27.7 20.55 25.55 19.9 23.2 19.05 Q19.6 17.7 18.65 16.9 M12.8 13.9 Q13.75 17.55 15.5 21.05 M45.65 47.2 Q44.15 48.25 40.6 48.25 38.85 47.8 35.5 45.35 31.1 42.15 26.95 37.8 23.45 34.1 18.95 27.05 L17.5 24.75 15.5 21.05 M8.45 16.95 Q8.0 20.35 8.0 23.35 M23.65 45.95 Q22.25 46.65 18.95 47.4 12.95 40.45 10.05 34.7 L9.9 34.3 Q8.7 31.9 8.25 28.5 L8.25 28.35 8.1 27.3 8.0 23.35" fill="none" stroke="#000000" stroke-linecap="butt" stroke-linejoin="round" stroke-opacity="0.3019608" stroke-width="1.0"/>
      <path d="M18.15 42.05 L17.95 42.25 17.25 42.5 16.45 42.25 16.15 41.7 16.15 41.6 Q16.15 41.3 16.45 41.1 L16.55 41.05 16.45 41.4 16.65 41.8 17.2 42.0 17.8 41.85 18.0 41.65 18.0 41.45 17.85 41.1 17.95 41.2 18.3 41.75 18.15 42.05" fill="#cdccc6" fill-rule="evenodd" stroke="none"/>
      <path d="M17.85 41.1 L18.0 41.45 18.0 41.65 17.8 41.85 17.2 42.0 16.65 41.8 16.45 41.4 16.55 41.05 17.2 40.95 17.85 41.1 M17.5 41.5 L17.65 41.4 17.65 41.3 17.6 41.15 17.55 41.1 17.25 41.0 17.0 41.1 17.0 41.15 16.9 41.25 17.0 41.5 17.3 41.55 17.5 41.5" fill="#e6e7df" fill-rule="evenodd" stroke="none"/>
      <path d="M16.15 41.7 L16.45 42.25 17.25 42.5 17.95 42.25 18.15 42.05 17.8 42.6 17.1 42.8 16.3 42.55 Q16.0 42.3 16.05 42.0 16.0 41.8 16.1 41.7 L16.15 41.7" fill="#000000" fill-opacity="0.3019608" fill-rule="evenodd" stroke="none"/>
      <path d="M17.5 41.5 L17.3 41.55 17.0 41.5 16.9 41.25 17.0 41.15 17.0 41.1 17.25 41.0 17.55 41.1 17.6 41.15 17.65 41.3 17.65 41.4 17.5 41.5" fill="#fbfcec" fill-rule="evenodd" stroke="none"/>
      <path d="M18.15 42.05 L17.95 42.25 17.25 42.5 16.45 42.25 16.15 41.7 M18.15 42.05 L18.3 41.75 17.95 41.2 17.85 41.1 M16.55 41.05 L16.45 41.1 Q16.15 41.3 16.15 41.6 L16.15 41.7 M16.55 41.05 L17.2 40.95 17.85 41.1" fill="none" stroke="#000000" stroke-linecap="round" stroke-linejoin="round" stroke-opacity="0.3019608" stroke-width="0.05"/>
      <path d="M14.8 38.0 L14.6 38.2 13.9 38.45 13.1 38.2 12.8 37.65 12.8 37.55 Q12.8 37.25 13.1 37.05 L13.2 37.0 13.1 37.35 13.3 37.75 13.85 37.95 14.45 37.8 14.65 37.6 14.65 37.4 14.5 37.05 14.6 37.15 14.95 37.7 14.8 38.0" fill="#cdccc6" fill-rule="evenodd" stroke="none"/>
      <path d="M14.5 37.05 L14.65 37.4 14.65 37.6 14.45 37.8 13.85 37.95 13.3 37.75 13.1 37.35 13.2 37.0 13.85 36.9 14.5 37.05 M14.15 37.45 L14.3 37.35 14.3 37.25 14.25 37.1 14.2 37.05 13.9 36.95 13.65 37.05 13.65 37.1 13.55 37.2 13.65 37.45 13.95 37.5 14.15 37.45" fill="#e6e7df" fill-rule="evenodd" stroke="none"/>
      <path d="M12.8 37.65 L13.1 38.2 13.9 38.45 14.6 38.2 14.8 38.0 14.45 38.55 13.75 38.75 12.95 38.5 Q12.65 38.25 12.7 37.95 12.65 37.75 12.75 37.65 L12.8 37.65" fill="#000000" fill-opacity="0.3019608" fill-rule="evenodd" stroke="none"/>
      <path d="M14.15 37.45 L13.95 37.5 13.65 37.45 13.55 37.2 13.65 37.1 13.65 37.05 13.9 36.95 14.2 37.05 14.25 37.1 14.3 37.25 14.3 37.35 14.15 37.45" fill="#fbfcec" fill-rule="evenodd" stroke="none"/>
      <path d="M14.8 38.0 L14.6 38.2 13.9 38.45 13.1 38.2 12.8 37.65 M14.8 38.0 L14.95 37.7 14.6 37.15 14.5 37.05 M13.2 37.0 L13.1 37.05 Q12.8 37.25 12.8 37.55 L12.8 37.65 M13.2 37.0 L13.85 36.9 14.5 37.05" fill="none" stroke="#000000" stroke-linecap="round" stroke-linejoin="round" stroke-opacity="0.3019608" stroke-width="0.05"/>
      <path d="M12.05 33.8 L11.85 34.0 11.15 34.25 10.35 34.0 10.05 33.45 10.05 33.35 Q10.05 33.05 10.35 32.85 L10.45 32.8 10.35 33.15 10.55 33.55 11.1 33.75 11.7 33.6 11.9 33.4 11.9 33.2 11.75 32.85 11.85 32.95 12.2 33.5 12.05 33.8" fill="#cdccc6" fill-rule="evenodd" stroke="none"/>
      <path d="M11.75 32.85 L11.9 33.2 11.9 33.4 11.7 33.6 11.1 33.75 10.55 33.55 10.35 33.15 10.45 32.8 11.1 32.7 11.75 32.85 M11.4 33.25 L11.55 33.15 11.55 33.05 11.5 32.9 11.45 32.85 11.15 32.75 10.9 32.85 10.9 32.9 10.8 33.0 10.9 33.25 11.2 33.3 11.4 33.25" fill="#e6e7df" fill-rule="evenodd" stroke="none"/>
      <path d="M10.05 33.45 L10.35 34.0 11.15 34.25 11.85 34.0 12.05 33.8 11.7 34.35 11.0 34.55 10.2 34.3 Q9.9 34.05 9.95 33.75 9.9 33.55 10.0 33.45 L10.05 33.45" fill="#000000" fill-opacity="0.3019608" fill-rule="evenodd" stroke="none"/>
      <path d="M11.4 33.25 L11.2 33.3 10.9 33.25 10.8 33.0 10.9 32.9 10.9 32.85 11.15 32.75 11.45 32.85 11.5 32.9 11.55 33.05 11.55 33.15 11.4 33.25" fill="#fbfcec" fill-rule="evenodd" stroke="none"/>
      <path d="M12.05 33.8 L11.85 34.0 11.15 34.25 10.35 34.0 10.05 33.45 M12.05 33.8 L12.2 33.5 11.85 32.95 11.75 32.85 M10.45 32.8 L10.35 32.85 Q10.05 33.05 10.05 33.35 L10.05 33.45 M10.45 32.8 L11.1 32.7 11.75 32.85" fill="none" stroke="#000000" stroke-linecap="round" stroke-linejoin="round" stroke-opacity="0.3019608" stroke-width="0.05"/>
      <path d="M40.4 45.2 L40.2 45.4 39.5 45.65 38.7 45.4 38.4 44.85 38.4 44.75 Q38.4 44.45 38.7 44.25 L38.8 44.2 38.7 44.55 38.9 44.95 39.45 45.15 40.05 45.0 40.25 44.8 40.25 44.6 40.1 44.25 40.2 44.35 40.55 44.9 40.4 45.2" fill="#cdccc6" fill-rule="evenodd" stroke="none"/>
      <path d="M40.1 44.25 L40.25 44.6 40.25 44.8 40.05 45.0 39.45 45.15 38.9 44.95 38.7 44.55 38.8 44.2 39.45 44.1 40.1 44.25 M39.75 44.65 L39.9 44.55 39.9 44.45 39.85 44.3 39.8 44.25 39.5 44.15 39.25 44.25 39.25 44.3 39.15 44.4 39.25 44.65 39.55 44.7 39.75 44.65" fill="#e6e7df" fill-rule="evenodd" stroke="none"/>
      <path d="M38.4 44.85 L38.7 45.4 39.5 45.65 40.2 45.4 40.4 45.2 40.05 45.75 39.35 45.95 38.55 45.7 Q38.25 45.45 38.3 45.15 38.25 44.95 38.35 44.85 L38.4 44.85" fill="#000000" fill-opacity="0.3019608" fill-rule="evenodd" stroke="none"/>
      <path d="M39.75 44.65 L39.55 44.7 39.25 44.65 39.15 44.4 39.25 44.3 39.25 44.25 39.5 44.15 39.8 44.25 39.85 44.3 39.9 44.45 39.9 44.55 39.75 44.65" fill="#fbfcec" fill-rule="evenodd" stroke="none"/>
      <path d="M40.4 45.2 L40.2 45.4 39.5 45.65 38.7 45.4 38.4 44.85 M40.4 45.2 L40.55 44.9 40.2 44.35 40.1 44.25 M38.8 44.2 L38.7 44.25 Q38.4 44.45 38.4 44.75 L38.4 44.85 M38.8 44.2 L39.45 44.1 40.1 44.25" fill="none" stroke="#000000" stroke-linecap="round" stroke-linejoin="round" stroke-opacity="0.3019608" stroke-width="0.05"/>
      <path d="M35.45 42.25 L35.25 42.45 34.55 42.7 33.75 42.45 33.45 41.9 33.45 41.8 Q33.45 41.5 33.75 41.3 L33.85 41.25 33.75 41.6 33.95 42.0 34.5 42.2 35.1 42.05 35.3 41.85 35.3 41.65 35.15 41.3 35.25 41.4 35.6 41.95 35.45 42.25" fill="#cdccc6" fill-rule="evenodd" stroke="none"/>
      <path d="M35.15 41.3 L35.3 41.65 35.3 41.85 35.1 42.05 34.5 42.2 33.95 42.0 33.75 41.6 33.85 41.25 34.5 41.15 35.15 41.3 M34.8 41.7 L34.95 41.6 34.95 41.5 34.9 41.35 34.85 41.3 34.55 41.2 34.3 41.3 34.3 41.35 34.2 41.45 34.3 41.7 34.6 41.75 34.8 41.7" fill="#e6e7df" fill-rule="evenodd" stroke="none"/>
      <path d="M33.45 41.9 L33.75 42.45 34.55 42.7 35.25 42.45 35.45 42.25 35.1 42.8 34.4 43.0 33.6 42.75 Q33.3 42.5 33.35 42.2 33.3 42.0 33.4 41.9 L33.45 41.9" fill="#000000" fill-opacity="0.3019608" fill-rule="evenodd" stroke="none"/>
      <path d="M34.8 41.7 L34.6 41.75 34.3 41.7 34.2 41.45 34.3 41.35 34.3 41.3 34.55 41.2 34.85 41.3 34.9 41.35 34.95 41.5 34.95 41.6 34.8 41.7" fill="#fbfcec" fill-rule="evenodd" stroke="none"/>
      <path d="M35.45 42.25 L35.25 42.45 34.55 42.7 33.75 42.45 33.45 41.9 M35.45 42.25 L35.6 41.95 35.25 41.4 35.15 41.3 M33.85 41.25 L33.75 41.3 Q33.45 41.5 33.45 41.8 L33.45 41.9 M33.85 41.25 L34.5 41.15 35.15 41.3" fill="none" stroke="#000000" stroke-linecap="round" stroke-linejoin="round" stroke-opacity="0.3019608" stroke-width="0.05"/>
      <path d="M30.8 38.55 L30.6 38.75 29.9 39.0 29.1 38.75 28.8 38.2 28.8 38.1 Q28.8 37.8 29.1 37.6 L29.2 37.55 29.1 37.9 29.3 38.3 29.85 38.5 30.45 38.35 30.65 38.15 30.65 37.95 30.5 37.6 30.6 37.7 30.95 38.25 30.8 38.55" fill="#cdccc6" fill-rule="evenodd" stroke="none"/>
      <path d="M30.5 37.6 L30.65 37.95 30.65 38.15 30.45 38.35 29.85 38.5 29.3 38.3 29.1 37.9 29.2 37.55 29.85 37.45 30.5 37.6 M30.15 38.0 L30.3 37.9 30.3 37.8 30.25 37.65 30.2 37.6 29.9 37.5 29.65 37.6 29.65 37.65 29.55 37.75 29.65 38.0 29.95 38.05 30.15 38.0" fill="#e6e7df" fill-rule="evenodd" stroke="none"/>
      <path d="M28.8 38.2 L29.1 38.75 29.9 39.0 30.6 38.75 30.8 38.55 30.45 39.1 29.75 39.3 28.95 39.05 Q28.65 38.8 28.7 38.5 28.65 38.3 28.75 38.2 L28.8 38.2" fill="#000000" fill-opacity="0.3019608" fill-rule="evenodd" stroke="none"/>
      <path d="M30.15 38.0 L29.95 38.05 29.65 38.0 29.55 37.75 29.65 37.65 29.65 37.6 29.9 37.5 30.2 37.6 30.25 37.65 30.3 37.8 30.3 37.9 30.15 38.0" fill="#fbfcec" fill-rule="evenodd" stroke="none"/>
      <path d="M30.8 38.55 L30.6 38.75 29.9 39.0 29.1 38.75 28.8 38.2 M30.8 38.55 L30.95 38.25 30.6 37.7 30.5 37.6 M29.2 37.55 L29.1 37.6 Q28.8 37.8 28.8 38.1 L28.8 38.2 M29.2 37.55 L29.85 37.45 30.5 37.6" fill="none" stroke="#000000" stroke-linecap="round" stroke-linejoin="round" stroke-opacity="0.3019608" stroke-width="0.05"/>
      <path d="M45.9 26.7 L45.7 26.9 45.0 27.15 44.2 26.9 43.9 26.35 43.9 26.25 Q43.9 25.95 44.2 25.75 L44.3 25.7 44.2 26.05 44.4 26.45 44.95 26.65 45.55 26.5 45.75 26.3 45.75 26.1 45.6 25.75 45.7 25.85 46.05 26.4 45.9 26.7" fill="#cdccc6" fill-rule="evenodd" stroke="none"/>
      <path d="M45.6 25.75 L45.75 26.1 45.75 26.3 45.55 26.5 44.95 26.65 44.4 26.45 44.2 26.05 44.3 25.7 44.95 25.6 45.6 25.75 M45.25 26.15 L45.4 26.05 45.4 25.95 45.35 25.8 45.3 25.75 45.0 25.65 44.75 25.75 44.75 25.8 44.65 25.9 44.75 26.15 45.05 26.2 45.25 26.15" fill="#e6e7df" fill-rule="evenodd" stroke="none"/>
      <path d="M43.9 26.35 L44.2 26.9 45.0 27.15 45.7 26.9 45.9 26.7 45.55 27.25 44.85 27.45 44.05 27.2 Q43.75 26.95 43.8 26.65 43.75 26.45 43.85 26.35 L43.9 26.35" fill="#000000" fill-opacity="0.3019608" fill-rule="evenodd" stroke="none"/>
      <path d="M45.25 26.15 L45.05 26.2 44.75 26.15 44.65 25.9 44.75 25.8 44.75 25.75 45.0 25.65 45.3 25.75 45.35 25.8 45.4 25.95 45.4 26.05 45.25 26.15" fill="#fbfcec" fill-rule="evenodd" stroke="none"/>
      <path d="M45.9 26.7 L45.7 26.9 45.0 27.15 44.2 26.9 43.9 26.35 M45.9 26.7 L46.05 26.4 45.7 25.85 45.6 25.75 M44.3 25.7 L44.2 25.75 Q43.9 25.95 43.9 26.25 L43.9 26.35 M44.3 25.7 L44.95 25.6 45.6 25.75" fill="none" stroke="#000000" stroke-linecap="round" stroke-linejoin="round" stroke-opacity="0.3019608" stroke-width="0.05"/>
      <path d="M40.75 23.75 L40.55 23.95 39.85 24.2 39.05 23.95 38.75 23.4 38.75 23.3 Q38.75 23.0 39.05 22.8 L39.15 22.75 39.05 23.1 39.25 23.5 39.8 23.7 40.4 23.55 40.6 23.35 40.6 23.15 40.45 22.8 40.55 22.9 40.9 23.45 40.75 23.75" fill="#cdccc6" fill-rule="evenodd" stroke="none"/>
      <path d="M40.45 22.8 L40.6 23.15 40.6 23.35 40.4 23.55 39.8 23.7 39.25 23.5 39.05 23.1 39.15 22.75 39.8 22.65 40.45 22.8 M40.1 23.2 L40.25 23.1 40.25 23.0 40.2 22.85 40.15 22.8 39.85 22.7 39.6 22.8 39.6 22.85 39.5 22.95 39.6 23.2 39.9 23.25 40.1 23.2" fill="#e6e7df" fill-rule="evenodd" stroke="none"/>
      <path d="M38.75 23.4 L39.05 23.95 39.85 24.2 40.55 23.95 40.75 23.75 40.4 24.3 39.7 24.5 38.9 24.25 Q38.6 24.0 38.65 23.7 38.6 23.5 38.7 23.4 L38.75 23.4" fill="#000000" fill-opacity="0.3019608" fill-rule="evenodd" stroke="none"/>
      <path d="M40.1 23.2 L39.9 23.25 39.6 23.2 39.5 22.95 39.6 22.85 39.6 22.8 39.85 22.7 40.15 22.8 40.2 22.85 40.25 23.0 40.25 23.1 40.1 23.2" fill="#fbfcec" fill-rule="evenodd" stroke="none"/>
      <path d="M40.75 23.75 L40.55 23.95 39.85 24.2 39.05 23.95 38.75 23.4 M40.75 23.75 L40.9 23.45 40.55 22.9 40.45 22.8 M39.15 22.75 L39.05 22.8 Q38.75 23.0 38.75 23.3 L38.75 23.4 M39.15 22.75 L39.8 22.65 40.45 22.8" fill="none" stroke="#000000" stroke-linecap="round" stroke-linejoin="round" stroke-opacity="0.3019608" stroke-width="0.05"/>
      <path d="M35.45 21.95 L35.25 22.15 34.55 22.4 33.75 22.15 33.45 21.6 33.45 21.5 Q33.45 21.2 33.75 21.0 L33.85 20.95 33.75 21.3 33.95 21.7 34.5 21.9 35.1 21.75 35.3 21.55 35.3 21.35 35.15 21.0 35.25 21.1 35.6 21.65 35.45 21.95" fill="#cdccc6" fill-rule="evenodd" stroke="none"/>
      <path d="M35.15 21.0 L35.3 21.35 35.3 21.55 35.1 21.75 34.5 21.9 33.95 21.7 33.75 21.3 33.85 20.95 34.5 20.85 35.15 21.0 M34.8 21.4 L34.95 21.3 34.95 21.2 34.9 21.05 34.85 21.0 34.55 20.9 34.3 21.0 34.3 21.05 34.2 21.15 34.3 21.4 34.6 21.45 34.8 21.4" fill="#e6e7df" fill-rule="evenodd" stroke="none"/>
      <path d="M33.45 21.6 L33.75 22.15 34.55 22.4 35.25 22.15 35.45 21.95 35.1 22.5 34.4 22.7 33.6 22.45 Q33.3 22.2 33.35 21.9 33.3 21.7 33.4 21.6 L33.45 21.6" fill="#000000" fill-opacity="0.3019608" fill-rule="evenodd" stroke="none"/>
      <path d="M34.8 21.4 L34.6 21.45 34.3 21.4 34.2 21.15 34.3 21.05 34.3 21.0 34.55 20.9 34.85 21.0 34.9 21.05 34.95 21.2 34.95 21.3 34.8 21.4" fill="#fbfcec" fill-rule="evenodd" stroke="none"/>
      <path d="M35.45 21.95 L35.25 22.15 34.55 22.4 33.75 22.15 33.45 21.6 M35.45 21.95 L35.6 21.65 35.25 21.1 35.15 21.0 M33.85 20.95 L33.75 21.0 Q33.45 21.2 33.45 21.5 L33.45 21.6 M33.85 20.95 L34.5 20.85 35.15 21.0" fill="none" stroke="#000000" stroke-linecap="round" stroke-linejoin="round" stroke-opacity="0.3019608" stroke-width="0.05"/>
      <path d="M29.1 37.6 L29.2 37.5 29.85 37.4 30.5 37.55 30.65 37.65 30.9 38.2 30.8 38.6 30.6 38.75 29.85 38.9 29.1 38.75 28.75 38.15 28.8 38.1 Q28.8 37.8 29.1 37.6 M38.35 44.75 L38.4 44.7 38.65 44.25 38.75 44.15 39.4 44.05 40.05 44.2 40.2 44.3 Q40.55 44.55 40.5 44.8 L40.4 45.2 40.15 45.35 39.4 45.55 38.65 45.35 38.35 44.75 M33.75 41.3 L33.85 41.2 34.5 41.1 35.1 41.25 35.25 41.35 Q35.6 41.6 35.55 41.9 L35.45 42.3 35.2 42.45 34.5 42.65 33.75 42.45 33.4 41.85 33.45 41.8 Q33.45 41.5 33.75 41.3" fill="#376b86" fill-opacity="0.3019608" fill-rule="evenodd" stroke="none"/>
      <path d="M23.8 16.7 L22.1 16.75 22.05 16.75 19.4 16.5 18.85 16.35 19.35 17.45 Q20.4 19.1 21.55 19.7 L21.75 19.8 Q22.55 20.05 22.45 20.55 L22.4 20.6 22.35 20.7 Q22.25 21.1 21.25 21.15 18.75 21.25 16.6 20.15 L16.55 20.15 Q15.55 19.65 14.7 18.9 L13.7 18.05 12.0 16.0 11.55 17.55 11.1 18.6 10.15 20.2 10.1 20.2 Q8.8 21.7 6.85 22.25 L6.65 22.3 6.8 19.9 6.85 18.1 6.9 13.65 6.8 13.1 6.7 12.85 5.25 11.55 Q5.5 11.05 6.05 10.7 7.05 10.0 10.25 9.75 13.4 9.5 15.95 7.45 L18.05 5.6 18.7 5.65 18.95 5.95 19.65 6.85 21.05 9.45 21.55 10.65 21.75 11.15 22.1 11.95 22.35 12.4 22.3 12.4 22.4 12.45 22.75 13.15 25.05 16.5 23.8 16.7" fill="#2c5c6b" fill-opacity="0.5019608" fill-rule="evenodd" stroke="none"/>
      <path d="M17.05 7.05 Q17.55 8.0 20.45 6.4 L21.15 5.95 22.2 5.0 Q23.25 3.85 23.65 2.4 23.85 1.9 23.65 1.8 L23.55 1.7 Q23.25 1.6 22.95 2.0 L22.9 2.1 21.15 3.1 22.2 3.0 Q22.45 3.25 21.65 4.45 L21.35 4.8 21.15 5.0 20.4 5.65 19.75 6.05 Q17.7 7.2 17.05 7.05" fill="#a5c7c2" fill-rule="evenodd" stroke="none"/>
      <path d="M17.05 7.05 Q17.7 7.2 19.75 6.05 L20.4 5.65 21.15 5.0 21.35 4.8 21.65 4.45 Q22.45 3.25 22.2 3.0 L21.15 3.1 20.35 3.3 19.85 3.5 18.75 4.15 17.8 4.8 16.9 5.65 Q16.35 6.4 17.05 7.05" fill="#d2e0de" fill-rule="evenodd" stroke="none"/>
      <path d="M21.15 3.1 L22.9 2.1 22.95 2.0 Q23.25 1.6 23.55 1.7 L23.65 1.8 Q23.85 1.9 23.65 2.4 23.25 3.85 22.2 5.0 L21.15 5.95 20.45 6.4 Q17.55 8.0 17.05 7.05 M21.15 3.1 L20.35 3.3 19.85 3.5 18.75 4.15 17.8 4.8 16.9 5.65 Q16.35 6.4 17.05 7.05" fill="none" stroke="#4a7eaf" stroke-linecap="round" stroke-linejoin="round" stroke-opacity="0.3019608" stroke-width="0.05"/>
      <path d="M20.4 3.8 L19.7 3.7 Q19.1 3.9 18.4 4.35 17.7 4.9 17.35 5.4 16.95 5.9 17.05 6.15 L17.8 6.25 19.05 5.6 20.15 4.55 Q20.55 4.1 20.4 3.8" fill="#f2fbfa" fill-rule="evenodd" stroke="none"/>
      <path d="M22.65 6.05 Q23.9 6.25 23.9 6.4 24.05 6.85 22.35 7.7 L21.7 7.95 21.6 7.95 21.3 8.1 20.05 8.45 19.0 8.5 15.25 8.3 Q15.3 9.65 19.6 9.35 L20.7 9.2 22.55 8.7 22.6 8.65 Q24.5 7.95 25.95 6.55 26.5 6.05 26.3 5.8 L26.2 5.7 25.4 5.75 25.3 5.8 22.65 6.05" fill="#a5c7c2" fill-rule="evenodd" stroke="none"/>
      <path d="M22.65 6.05 L21.6 5.85 20.85 5.75 19.15 5.95 17.9 6.15 16.1 6.75 Q15.05 7.15 15.25 8.3 L19.0 8.5 20.05 8.45 21.3 8.1 21.6 7.95 21.7 7.95 22.35 7.7 Q24.05 6.85 23.9 6.4 23.9 6.25 22.65 6.05" fill="#d2e0de" fill-rule="evenodd" stroke="none"/>
      <path d="M15.25 8.3 Q15.05 7.15 16.1 6.75 L17.9 6.15 19.15 5.95 20.85 5.75 21.6 5.85 22.65 6.05 M15.25 8.3 Q15.3 9.65 19.6 9.35 L20.7 9.2 22.55 8.7 22.6 8.65 Q24.5 7.95 25.95 6.55 26.5 6.05 26.3 5.8 L26.2 5.7 25.4 5.75 25.3 5.8 22.65 6.05" fill="none" stroke="#4a7eaf" stroke-linecap="round" stroke-linejoin="round" stroke-opacity="0.3019608" stroke-width="0.05"/>
      <path d="M21.35 6.55 Q21.4 6.2 20.65 6.1 L18.8 6.2 Q17.65 6.4 16.85 6.75 16.05 7.15 16.0 7.5 16.0 7.85 16.75 7.95 L18.65 7.9 20.55 7.3 Q21.35 6.9 21.35 6.55" fill="#f2fbfa" fill-rule="evenodd" stroke="none"/>
      <path d="M22.8 10.4 Q24.3 11.3 24.2 11.6 24.15 12.2 21.6 12.5 L20.7 12.45 20.6 12.45 20.1 12.5 18.4 12.25 17.0 11.85 Q13.2 10.55 12.45 9.45 11.8 11.3 17.4 13.25 L18.75 13.65 21.4 13.85 21.45 13.9 Q24.25 13.95 26.7 12.9 27.65 12.4 27.5 12.05 L27.4 11.95 27.45 11.9 Q27.35 11.35 26.4 11.4 L26.2 11.45 Q24.7 11.4 22.8 10.4" fill="#a5c7c2" fill-rule="evenodd" stroke="none"/>
      <path d="M22.8 10.4 L21.65 9.55 20.65 9.05 18.5 8.35 16.6 7.9 14.3 7.75 Q12.7 7.8 12.45 9.45 13.2 10.55 17.0 11.85 L18.4 12.25 20.1 12.5 20.6 12.45 20.7 12.45 21.6 12.5 Q24.15 12.2 24.2 11.6 24.3 11.3 22.8 10.4" fill="#d2e0de" fill-rule="evenodd" stroke="none"/>
      <path d="M12.45 9.45 Q12.7 7.8 14.3 7.75 L16.6 7.9 18.5 8.35 20.65 9.05 21.65 9.55 22.8 10.4 M12.45 9.45 Q11.8 11.3 17.4 13.25 L18.75 13.65 21.4 13.85 21.45 13.9 Q24.25 13.95 26.7 12.9 27.65 12.4 27.5 12.05 L27.4 11.95 27.45 11.9 Q27.35 11.35 26.4 11.4 L26.2 11.45 Q24.7 11.4 22.8 10.4" fill="none" stroke="#4a7eaf" stroke-linecap="round" stroke-linejoin="round" stroke-opacity="0.3019608" stroke-width="0.05"/>
      <path d="M20.85 10.3 Q21.05 9.8 20.2 9.25 19.2 8.7 17.75 8.35 L15.1 8.1 Q13.85 8.15 13.65 8.65 13.4 9.1 14.4 9.7 15.25 10.2 16.8 10.55 L19.5 10.85 Q20.6 10.75 20.85 10.3" fill="#f2fbfa" fill-rule="evenodd" stroke="none"/>
      <path d="M21.7 17.7 L21.75 17.65 21.7 17.7" fill="#f2fbfa" fill-rule="evenodd" stroke="none"/>
      <path d="M18.7 14.55 Q19.4 15.95 19.2 16.2 L16.7 16.1 16.0 15.75 15.95 15.7 15.55 15.5 14.25 14.6 13.35 13.75 Q10.95 11.2 10.85 9.85 9.45 11.25 13.05 15.1 L14.0 16.05 15.85 17.2 15.9 17.25 Q18.1 18.3 20.6 18.2 21.55 18.2 21.65 17.85 L21.7 17.7 21.75 17.65 Q21.85 17.1 21.05 16.9 L20.9 16.8 Q19.7 16.2 18.7 14.55" fill="#a5c7c2" fill-rule="evenodd" stroke="none"/>
      <path d="M18.7 14.55 L18.05 13.3 17.55 12.55 16.15 11.0 14.9 9.95 13.05 8.95 Q11.8 8.4 10.85 9.85 L10.9 9.85 10.85 9.85 Q10.95 11.2 13.35 13.75 L14.25 14.6 15.55 15.5 15.95 15.7 16.0 15.75 16.7 16.1 19.2 16.2 Q19.4 15.95 18.7 14.55" fill="#d2e0de" fill-rule="evenodd" stroke="none"/>
      <path d="M10.85 9.85 L10.9 9.85 10.85 9.85 Q11.8 8.4 13.05 8.95 L14.9 9.95 16.15 11.0 17.55 12.55 18.05 13.3 18.7 14.55 M21.75 17.65 Q21.85 17.1 21.05 16.9 L20.9 16.8 Q19.7 16.2 18.7 14.55" fill="none" stroke="#4a7eaf" stroke-linecap="round" stroke-linejoin="round" stroke-opacity="0.3019608" stroke-width="0.05"/>
      <path d="M17.25 13.6 Q17.65 13.2 17.2 12.4 L15.7 10.65 Q14.6 9.75 13.65 9.4 L12.25 9.35 Q11.85 9.7 12.35 10.6 L13.9 12.3 Q14.9 13.15 15.9 13.6 16.85 13.95 17.25 13.6" fill="#f2fbfa" fill-rule="evenodd" stroke="none"/>
      <path d="M3.75 13.75 L3.6 14.85 Q3.9 15.2 5.15 14.6 L5.5 14.4 5.75 14.25 6.55 13.6 6.95 13.0 Q8.3 11.25 8.25 10.35 9.2 11.25 7.3 13.95 L6.75 14.6 5.8 15.45 5.7 15.4 Q4.5 16.25 2.95 16.25 2.3 16.25 2.2 16.05 L2.2 15.85 2.15 15.85 Q2.1 15.55 2.5 15.35 L2.6 15.25 Q3.25 14.9 3.75 13.75" fill="#a5c7c2" fill-rule="evenodd" stroke="none"/>
      <path d="M3.75 13.75 L4.05 12.85 4.25 12.4 4.95 11.3 5.65 10.55 Q5.95 10.2 6.7 9.9 7.45 9.4 8.25 10.35 8.3 11.25 6.95 13.0 L6.55 13.6 5.75 14.25 5.5 14.4 5.15 14.6 Q3.9 15.2 3.6 14.85 L3.75 13.75" fill="#d2e0de" fill-rule="evenodd" stroke="none"/>
      <path d="M8.25 10.35 Q7.45 9.4 6.7 9.9 5.95 10.2 5.65 10.55 L4.95 11.3 4.25 12.4 4.05 12.85 3.75 13.75 M8.25 10.35 Q9.2 11.25 7.3 13.95 L6.75 14.6 5.8 15.45 5.7 15.4 Q4.5 16.25 2.95 16.25 2.3 16.25 2.2 16.05 L2.2 15.85 2.15 15.85 Q2.1 15.55 2.5 15.35 L2.6 15.25 Q3.25 14.9 3.75 13.75" fill="none" stroke="#4a7eaf" stroke-linecap="round" stroke-linejoin="round" stroke-opacity="0.3019608" stroke-width="0.05"/>
      <path d="M4.65 13.0 Q4.4 12.75 4.6 12.15 L5.4 10.95 Q5.95 10.35 6.5 10.05 L7.3 10.0 Q7.6 10.2 7.4 10.8 L6.65 12.0 Q6.1 12.65 5.5 12.9 L4.65 13.0" fill="#f2fbfa" fill-rule="evenodd" stroke="none"/>
      <path d="M6.35 15.7 Q6.2 17.1 6.45 17.3 6.95 17.6 8.3 16.5 L8.75 16.0 8.8 15.95 9.0 15.65 9.75 14.6 10.15 13.55 Q11.1 10.8 10.75 9.6 12.3 10.5 10.85 14.7 L10.45 15.75 9.45 17.25 9.4 17.3 Q8.1 18.85 6.15 19.35 L5.2 19.3 5.15 19.2 Q4.8 18.75 5.35 18.35 L5.45 18.25 Q6.15 17.35 6.35 15.7" fill="#a5c7c2" fill-rule="evenodd" stroke="none"/>
      <path d="M6.35 15.7 L6.4 14.45 6.5 13.75 Q6.65 12.85 7.05 12.0 L7.65 10.85 Q7.85 10.35 8.75 9.45 9.5 8.65 10.75 9.6 11.1 10.8 10.15 13.55 L9.75 14.6 9.0 15.65 8.8 15.95 8.75 16.0 8.3 16.5 Q6.95 17.6 6.45 17.3 6.2 17.1 6.35 15.7" fill="#d2e0de" fill-rule="evenodd" stroke="none"/>
      <path d="M10.75 9.6 Q9.5 8.65 8.75 9.45 7.85 10.35 7.65 10.85 L7.05 12.0 Q6.65 12.85 6.5 13.75 L6.4 14.45 6.35 15.7 M10.75 9.6 Q12.3 10.5 10.85 14.7 L10.45 15.75 9.45 17.25 9.4 17.3 Q8.1 18.85 6.15 19.35 L5.2 19.3 5.15 19.2 Q4.8 18.75 5.35 18.35 L5.45 18.25 Q6.15 17.35 6.35 15.7" fill="none" stroke="#4a7eaf" stroke-linecap="round" stroke-linejoin="round" stroke-opacity="0.3019608" stroke-width="0.05"/>
      <path d="M7.2 14.6 Q6.75 14.4 6.8 13.55 6.85 12.75 7.35 11.7 7.85 10.65 8.5 10.05 9.1 9.5 9.55 9.7 9.95 9.9 9.9 10.75 9.8 11.6 9.3 12.65 L8.2 14.25 Q7.6 14.8 7.2 14.6" fill="#f2fbfa" fill-rule="evenodd" stroke="none"/>
      <path d="M22.8 40.15 L22.05 39.65 M21.3 39.1 L20.5 38.6 M19.65 38.15 L18.85 37.85 M17.7 37.6 L16.8 37.7 M15.85 37.95 Q15.35 38.05 14.9 38.3 M14.2 38.9 L13.5 39.85 M12.95 40.65 L12.6 41.6 M12.35 42.6 L12.2 43.6 M12.1 46.6 L12.1 46.85 M12.05 44.6 L12.05 45.35 12.05 45.65 M45.0 22.75 L44.1 22.7 M37.7 30.6 L37.55 31.6 M38.15 28.45 L37.85 29.6 M38.7 26.5 L38.4 27.45 M39.8 24.65 L39.15 25.6 M41.15 23.45 Q40.75 23.7 40.45 24.0 M43.15 22.75 L42.2 22.95 M24.7 41.6 L24.2 41.2 23.55 40.7 M26.3 42.7 L25.55 42.15 M27.95 43.65 L27.05 43.2 M29.7 44.4 L28.8 44.05 M31.55 44.8 L30.65 44.65 M33.55 44.6 L32.55 44.8 M35.4 43.8 L34.55 44.3 M36.6 42.3 L36.05 43.15 M37.15 40.45 L36.9 41.45 M37.3 38.55 L37.3 39.05 37.3 39.55 M37.4 34.4 L37.4 35.45 M37.4 36.45 L37.4 37.5 M37.45 32.6 L37.4 33.55" fill="none" stroke="#5095bf" stroke-linecap="round" stroke-linejoin="round" stroke-opacity="0.5019608" stroke-width="0.5"/>
    </g>
    <g id="shape2" transform="matrix(1.0, 0.0, 0.0, 1.0, -2.1, -1.7)">
      <path d="M46.65 23.8 Q49.05 26.0 49.5 29.5 L48.6 28.25 49.25 29.85 Q47.6 29.05 45.8 29.45 L44.55 28.2 Q43.7 28.65 43.2 29.5 L43.0 29.75 42.5 30.75 42.5 30.8 42.4 31.0 42.25 31.5 42.05 32.4 42.0 32.95 Q41.75 35.05 42.25 38.15 L42.7 42.2 Q42.7 43.95 42.35 44.9 L45.65 47.2 Q44.15 48.25 40.6 48.25 L38.5 47.35 35.65 47.5 29.9 46.8 27.95 46.1 Q26.2 45.45 24.75 44.35 L21.6 41.85 Q20.6 41.05 19.2 41.6 L23.65 45.95 Q22.25 46.65 19.0 47.4 L16.65 44.55 16.35 45.7 Q15.85 48.75 16.1 50.3 13.85 48.85 12.05 46.95 9.95 44.65 8.45 41.7 6.1 37.0 6.1 32.45 6.1 27.9 6.5 24.05 L6.65 22.3 6.75 21.15 6.85 19.2 6.15 19.4 5.25 19.3 5.15 19.2 Q4.75 18.75 5.4 18.35 L5.5 18.2 Q6.15 17.4 6.35 15.7 L6.4 15.0 5.8 15.45 5.7 15.45 Q4.45 16.2 3.0 16.25 2.35 16.25 2.25 16.0 L2.2 15.85 2.1 15.85 Q2.1 15.55 2.45 15.35 L2.6 15.25 Q3.3 14.85 3.8 13.8 L4.05 12.85 4.25 12.4 5.0 11.3 5.7 10.55 Q5.95 10.2 6.7 9.9 L7.95 10.0 8.25 10.0 8.8 9.45 Q9.55 8.65 10.75 9.6 L10.9 9.7 11.0 9.7 Q11.7 8.7 12.6 8.85 13.05 7.8 14.3 7.75 L15.25 7.75 Q15.35 7.05 16.05 6.75 L16.75 6.5 Q16.6 6.05 16.95 5.65 L17.75 4.75 18.25 4.5 18.4 4.35 18.9 4.05 19.85 3.5 20.35 3.3 21.2 3.1 Q22.35 2.7 22.95 2.1 L23.0 2.0 Q23.3 1.6 23.6 1.7 L23.65 1.75 Q23.85 1.85 23.65 2.35 23.35 3.9 22.2 5.0 L21.4 5.85 21.55 5.85 22.65 6.05 25.3 5.8 25.45 5.75 Q26.0 5.35 26.2 5.75 L26.3 5.8 Q26.45 6.05 25.9 6.55 24.5 8.0 22.6 8.65 L22.55 8.7 20.95 9.15 21.0 9.25 21.65 9.55 22.8 10.35 Q24.65 11.4 26.2 11.45 L26.35 11.45 Q27.3 11.3 27.5 11.85 L27.45 11.9 27.5 12.05 Q27.65 12.35 26.7 12.85 25.0 13.6 23.15 13.85 L25.1 16.5 25.9 17.5 26.05 17.6 26.25 17.7 26.35 17.75 26.8 17.9 29.05 18.65 29.35 18.75 29.4 18.75 29.65 18.85 30.8 19.15 33.0 19.8 33.05 19.75 33.9 19.95 33.95 19.9 34.25 20.0 36.6 20.4 37.8 20.6 39.75 20.9 41.85 21.3 42.7 21.55 Q44.0 21.95 45.15 22.65 L46.65 23.8" fill="#ff0000" fill-rule="evenodd" stroke="none"/>
    </g>
    <g id="sprite2" transform="matrix(1.0, 0.0, 0.0, 1.0, 0.0, 0.0)">
      <use height="37.7" transform="matrix(1.0, 0.0, 0.0, 1.0, 0.0, 0.0)" width="37.7" xlink:href="#shape3"/>
    </g>
    <g id="shape3" transform="matrix(1.0, 0.0, 0.0, 1.0, 0.0, 0.0)">
      <path d="M37.7 18.85 Q37.7 26.65 32.15 32.15 26.65 37.7 18.85 37.7 11.05 37.7 5.5 32.15 0.0 26.65 0.0 18.85 0.0 11.05 5.5 5.5 11.05 0.0 18.85 0.0 26.65 0.0 32.15 5.5 37.7 11.05 37.7 18.85" fill="url(#gradient0)" fill-rule="evenodd" stroke="none"/>
    </g>
    <radialGradient cx="0" cy="0" gradientTransform="matrix(0.0244, 0.0, 0.0, 0.0244, 18.85, 18.85)" gradientUnits="userSpaceOnUse" id="gradient0" r="819.2" spreadMethod="pad">
      <stop offset="0.0" stop-color="#ffffcc"/>
      <stop offset="1.0" stop-color="#ffffcc" stop-opacity="0.0"/>
    </radialGradient>
  </defs>
</svg>
