<?xml version="1.0" encoding="UTF-8" standalone="no"?>
<svg xmlns:xlink="http://www.w3.org/1999/xlink" height="440.0px" width="440.0px" xmlns="http://www.w3.org/2000/svg">
  <g transform="matrix(10.0, 0.0, 0.0, 10.0, 0.0, 0.0)">
    <use height="44.0" transform="matrix(0.9091, 0.0, 0.0, 0.9091, 2.0, 2.0)" width="44.0" xlink:href="#sprite0"/>
  </g>
  <defs>
    <g id="sprite0" transform="matrix(1.0, 0.0, 0.0, 1.0, 0.0, 0.0)">
      <use height="44.0" transform="matrix(1.0, 0.0, 0.0, 1.0, 0.0, 0.0)" width="44.0" xlink:href="#shape0"/>
      <use height="40.55" transform="matrix(0.9013, 0.0, 0.0, 0.9013, 4.1055, 4.029)" width="36.95" xlink:href="#sprite1"/>
    </g>
    <g id="shape0" transform="matrix(1.0, 0.0, 0.0, 1.0, 0.0, 0.0)">
      <path d="M44.0 44.0 L0.0 44.0 0.0 0.0 44.0 0.0 44.0 44.0" fill="#43adca" fill-opacity="0.0" fill-rule="evenodd" stroke="none"/>
    </g>
    <g id="sprite1" transform="matrix(1.0, 0.0, 0.0, 1.0, 26.4, 35.25)">
      <use height="27.4" transform="matrix(1.0, 0.0, 0.0, 1.0, -26.4, -35.25)" width="19.25" xlink:href="#sprite2"/>
      <use height="8.5" transform="matrix(1.0, 0.0, 0.0, 1.0, -9.2, -3.2)" width="9.55" xlink:href="#sprite3"/>
      <use height="5.5" transform="matrix(1.0, 0.0, 0.0, 1.0, 1.0, -5.15)" width="9.45" xlink:href="#sprite4"/>
      <use height="13.35" transform="matrix(1.0, 0.0, 0.0, 1.0, -10.15, -13.05)" width="17.4" xlink:href="#sprite5"/>
      <use height="9.25" transform="matrix(1.0, 0.0, 0.0, 1.0, -14.1, -10.25)" width="10.05" xlink:href="#sprite6"/>
      <use height="23.9" transform="matrix(1.0, 0.0, 0.0, 1.0, -11.75, -27.25)" width="22.3" xlink:href="#sprite7"/>
    </g>
    <g id="sprite2" transform="matrix(1.0, 0.0, 0.0, 1.0, 0.0, 0.0)">
      <use height="27.4" transform="matrix(1.0, 0.0, 0.0, 1.0, 0.0, 0.0)" width="19.25" xlink:href="#shape1"/>
    </g>
    <g id="shape1" transform="matrix(1.0, 0.0, 0.0, 1.0, 0.0, 0.0)">
      <path d="M17.85 6.35 Q15.45 8.85 11.9 8.05 L11.8 8.05 Q11.65 8.3 11.4 8.2 8.9 11.8 5.6 12.75 L9.25 15.8 12.0 14.6 14.85 12.95 16.55 11.55 Q17.95 10.15 18.55 8.65 L17.85 6.35 M11.9 8.05 Q13.55 10.0 14.85 12.95 13.55 10.0 11.9 8.05" fill="#fdbe2d" fill-rule="evenodd" stroke="none"/>
      <path d="M9.25 15.8 Q14.25 20.5 17.9 27.4 L18.45 26.35 Q19.15 24.6 19.25 16.25 19.3 11.95 18.55 8.65 17.95 10.15 16.55 11.55 L14.85 12.95 12.0 14.6 9.25 15.8 M18.45 26.35 Q17.3 18.15 14.85 12.95 17.3 18.15 18.45 26.35" fill="#ebb21f" fill-rule="evenodd" stroke="none"/>
      <path d="M17.85 6.35 Q17.25 4.55 16.3 3.15 13.25 -1.55 11.55 0.75 9.9 3.0 3.75 4.65 -2.4 6.25 1.5 10.1 3.7 11.2 5.6 12.75 8.9 11.8 11.4 8.2 11.65 8.3 11.8 8.05 L11.9 8.05 Q15.45 8.85 17.85 6.35" fill="#fdd72d" fill-rule="evenodd" stroke="none"/>
      <path d="M5.6 12.75 Q3.7 11.2 1.5 10.1 -2.4 6.25 3.75 4.65 9.9 3.0 11.55 0.75 13.25 -1.55 16.3 3.15 17.25 4.55 17.85 6.35 M11.9 8.05 L11.8 8.05 M5.6 12.75 L9.25 15.8 Q14.25 20.5 17.9 27.4 L18.45 26.35 Q19.15 24.6 19.25 16.25 19.3 11.95 18.55 8.65 L17.85 6.35 M14.85 12.95 Q13.55 10.0 11.9 8.05 M14.85 12.95 Q17.3 18.15 18.45 26.35" fill="none" stroke="#000000" stroke-linecap="round" stroke-linejoin="round" stroke-opacity="0.15294118" stroke-width="0.05"/>
    </g>
    <g id="sprite3" transform="matrix(1.0, 0.0, 0.0, 1.0, 0.0, 0.0)">
      <use height="8.5" transform="matrix(1.0, 0.0, 0.0, 1.0, 0.0, 0.0)" width="9.55" xlink:href="#shape2"/>
    </g>
    <g id="shape2" transform="matrix(1.0, 0.0, 0.0, 1.0, 0.0, 0.0)">
      <path d="M9.3 3.95 Q4.75 1.8 0.2 4.55 L0.4 5.4 0.45 5.45 1.1 7.8 2.65 6.45 5.35 8.5 7.35 5.9 9.45 6.9 9.35 4.9 9.35 4.3 9.25 4.05 9.35 4.05 9.55 4.0 9.3 3.95 9.35 4.05 9.3 3.95" fill="#d08515" fill-rule="evenodd" stroke="none"/>
      <path d="M9.3 3.95 L9.2 3.55 Q8.6 1.95 7.0 0.8 5.4 -0.3 3.4 0.15 1.55 0.65 0.7 2.3 0.3 3.0 0.2 3.85 L0.25 4.4 0.2 4.5 0.2 4.55 0.2 4.5 0.0 4.6 0.2 4.55 Q4.75 1.8 9.3 3.95 M9.35 4.3 L9.35 4.05 9.25 4.05 9.35 4.3" fill="#af6a03" fill-rule="evenodd" stroke="none"/>
      <path d="M0.2 4.5 L0.25 4.4 0.2 3.85 Q0.3 3.0 0.7 2.3 1.55 0.65 3.4 0.15 5.4 -0.3 7.0 0.8 8.6 1.95 9.2 3.55 L9.3 3.95 9.35 4.05 M0.2 4.55 L0.2 4.5 M0.2 4.55 L0.4 5.4 0.45 5.45 1.1 7.8 2.65 6.45 5.35 8.5 7.35 5.9 9.45 6.9 9.35 4.9 9.35 4.3 9.35 4.05" fill="none" stroke="#59120d" stroke-linecap="round" stroke-linejoin="round" stroke-opacity="0.4117647" stroke-width="0.05"/>
    </g>
    <g id="sprite4" transform="matrix(1.0, 0.0, 0.0, 1.0, 0.0, 0.0)">
      <use height="5.5" transform="matrix(1.0, 0.0, 0.0, 1.0, 0.0, 0.0)" width="9.45" xlink:href="#shape3"/>
    </g>
    <g id="shape3" transform="matrix(1.0, 0.0, 0.0, 1.0, 0.0, 0.0)">
      <path d="M5.45 0.05 L4.55 0.05 1.85 0.35 Q0.05 0.9 0.0 2.25 -0.05 3.1 0.6 3.9 L0.8 4.05 Q1.65 4.6 4.3 5.15 L8.35 5.3 8.4 5.3 7.55 3.6 9.45 3.65 9.45 3.55 8.5 2.0 9.15 2.15 8.7 1.55 8.4 1.3 Q7.55 0.55 6.4 0.25 L5.95 0.15 5.45 0.05" fill="#af6a03" fill-rule="evenodd" stroke="none"/>
      <path d="M5.45 0.05 L4.55 0.05 1.85 0.35 Q0.05 0.9 0.0 2.25 -0.05 3.1 0.6 3.9 L0.8 4.05 Q1.65 4.6 4.3 5.15 L8.35 5.3 8.4 5.3 7.55 3.6 9.45 3.65 9.45 3.55 8.5 2.0 9.15 2.15 8.7 1.55 8.4 1.3 Q7.55 0.55 6.4 0.25 L5.95 0.15 5.45 0.05 Z" fill="none" stroke="#59120d" stroke-linecap="round" stroke-linejoin="round" stroke-opacity="0.4117647" stroke-width="0.05"/>
    </g>
    <g id="sprite5" transform="matrix(1.0, 0.0, 0.0, 1.0, 0.0, 0.0)">
      <use height="13.35" transform="matrix(1.0, 0.0, 0.0, 1.0, 0.0, 0.0)" width="17.4" xlink:href="#shape4"/>
    </g>
    <g id="shape4" transform="matrix(1.0, 0.0, 0.0, 1.0, 0.0, 0.0)">
      <path d="M13.25 0.8 Q11.15 -0.15 8.4 0.05 4.9 0.35 2.4 2.55 -0.15 4.65 0.0 7.35 0.1 10.05 2.85 11.85 5.5 13.6 9.0 13.3 12.6 13.0 14.95 11.05 L12.4 9.4 Q10.65 8.15 10.2 5.05 9.7 1.8 11.45 1.3 L13.25 0.8" fill="#fecf30" fill-rule="evenodd" stroke="none"/>
      <path d="M13.25 0.8 L11.45 1.3 Q9.7 1.8 10.2 5.05 10.65 8.15 12.4 9.4 L14.95 11.05 15.1 10.85 Q17.5 8.65 17.4 5.95 17.25 3.25 14.65 1.55 13.95 1.05 13.25 0.8" fill="#fee38b" fill-rule="evenodd" stroke="none"/>
      <path d="M14.95 11.05 Q12.6 13.0 9.0 13.3 5.5 13.6 2.85 11.85 0.1 10.05 0.0 7.35 -0.15 4.65 2.4 2.55 4.9 0.35 8.4 0.05 11.15 -0.15 13.25 0.8 M14.95 11.05 L15.1 10.85 Q17.5 8.65 17.4 5.95 17.25 3.25 14.65 1.55 13.95 1.05 13.25 0.8" fill="none" stroke="#382510" stroke-linecap="round" stroke-linejoin="round" stroke-opacity="0.3019608" stroke-width="0.05"/>
    </g>
    <g id="sprite6" transform="matrix(1.0, 0.0, 0.0, 1.0, 0.0, 0.0)">
      <use height="9.25" transform="matrix(1.0, 0.0, 0.0, 1.0, 0.0, 0.0)" width="10.05" xlink:href="#shape5"/>
    </g>
    <g id="shape5" transform="matrix(1.0, 0.0, 0.0, 1.0, 0.0, 0.0)">
      <path d="M0.75 1.6 Q4.85 -0.7 7.25 0.35 L7.45 0.4 Q9.5 3.4 6.9 5.2 3.3 4.4 0.75 1.6" fill="#fee38b" fill-rule="evenodd" stroke="none"/>
      <path d="M7.45 0.4 Q9.5 1.5 10.05 5.2 L9.55 6.8 Q8.95 8.35 8.05 9.2 3.1 9.7 0.65 4.1 -0.7 1.95 0.75 1.6 3.3 4.4 6.9 5.2 9.5 3.4 7.45 0.4" fill="#fecf30" fill-rule="evenodd" stroke="none"/>
      <path d="M0.75 1.6 Q4.85 -0.7 7.25 0.35 M7.45 0.4 Q9.5 1.5 10.05 5.2 M8.05 9.2 Q3.1 9.7 0.65 4.1 -0.7 1.95 0.75 1.6 Z" fill="none" stroke="#000000" stroke-linecap="round" stroke-linejoin="round" stroke-opacity="0.3019608" stroke-width="0.05"/>
    </g>
    <g id="sprite7" transform="matrix(1.0, 0.0, 0.0, 1.0, 0.0, 0.0)">
      <use height="23.9" transform="matrix(1.0, 0.0, 0.0, 1.0, 0.0, 0.0)" width="22.3" xlink:href="#shape6"/>
    </g>
    <g id="shape6" transform="matrix(1.0, 0.0, 0.0, 1.0, 0.0, 0.0)">
      <path d="M6.55 4.7 L8.45 3.3 6.3 0.55 5.1 0.95 Q6.9 3.35 6.55 4.7" fill="#fdbe2d" fill-rule="evenodd" stroke="none"/>
      <path d="M8.45 3.3 L6.3 0.55 5.1 0.95 Q6.9 3.35 6.55 4.7" fill="none" stroke="#000000" stroke-linecap="round" stroke-linejoin="round" stroke-opacity="0.15294118" stroke-width="0.05"/>
      <path d="M4.65 21.15 L4.75 20.3 4.8 20.0 Q5.3 15.95 12.4 12.65 L11.85 11.0 11.3 10.05 9.65 8.0 7.0 5.45 6.2 4.9 4.45 4.85 Q9.1 0.65 15.2 6.25 L15.7 6.75 Q20.2 9.7 20.7 14.35 L20.75 14.75 Q19.35 18.1 14.1 18.45 8.95 22.65 4.65 21.15 M4.45 23.15 L4.25 23.1 4.45 23.1 4.45 23.15" fill="#fecf30" fill-rule="evenodd" stroke="none"/>
      <path d="M4.45 4.85 L6.2 4.9 7.0 5.45 9.65 8.0 11.3 10.05 11.85 11.0 12.4 12.65 Q5.3 15.95 4.8 20.0 L4.75 20.3 4.65 21.15 Q2.2 20.3 0.05 17.65 L0.1 17.45 Q0.3 16.4 0.9 15.25 1.25 10.1 4.3 4.95 L4.45 4.85" fill="#fee38b" fill-rule="evenodd" stroke="none"/>
      <path d="M0.05 17.65 Q2.2 20.3 4.65 21.15 8.95 22.65 14.1 18.45 19.35 18.1 20.75 14.75 21.0 19.25 13.5 22.05 10.2 23.65 6.75 23.35 L4.45 23.15 4.45 23.1 4.25 23.1 4.2 23.1 4.1 23.05 3.8 23.0 Q2.3 22.45 1.45 21.5 -0.35 20.05 0.05 17.65" fill="#fdb102" fill-rule="evenodd" stroke="none"/>
      <path d="M4.45 4.85 L4.3 4.95 Q1.25 10.1 0.9 15.25 0.3 16.4 0.1 17.45 M20.75 14.75 L20.7 14.35 Q20.2 9.7 15.7 6.75 M15.2 6.25 Q9.1 0.65 4.45 4.85 M4.25 23.1 L4.2 23.1 4.1 23.05 3.8 23.0 Q2.3 22.45 1.45 21.5 -0.35 20.05 0.05 17.65 M4.45 23.15 L4.25 23.1 4.45 23.1 M4.45 23.15 L6.75 23.35 Q10.2 23.65 13.5 22.05 21.0 19.25 20.75 14.75" fill="none" stroke="#000000" stroke-linecap="round" stroke-linejoin="round" stroke-opacity="0.3019608" stroke-width="0.05"/>
      <path d="M17.6 14.8 L17.45 15.05 17.35 15.35 Q16.85 16.1 16.65 15.65 L16.6 15.6 Q16.2 14.5 16.4 13.85 16.8 13.9 17.15 13.0 L17.2 12.55 Q17.65 13.3 17.6 14.8" fill="#fcfce9" fill-rule="evenodd" stroke="none"/>
      <path d="M17.35 15.35 L17.05 16.45 16.65 15.65 Q16.85 16.1 17.35 15.35" fill="#cacdba" fill-rule="evenodd" stroke="none"/>
      <path d="M16.6 15.9 L15.85 13.5 15.7 13.05 15.65 12.7 14.95 8.9 14.9 7.9 15.0 7.45 15.05 7.4 15.25 6.8 15.3 6.8 15.4 6.75 15.5 6.8 15.5 6.85 16.05 7.55 16.25 7.85 16.65 8.9 16.9 9.75 17.3 11.2 17.9 14.35 17.6 14.8 Q17.65 13.3 17.2 12.55 L17.15 13.0 Q16.8 13.9 16.4 13.85 16.2 14.5 16.6 15.6 L16.65 15.65 17.05 16.45 17.0 16.7 16.75 16.3 16.6 15.9" fill="#bbc18c" fill-rule="evenodd" stroke="none"/>
      <path d="M16.6 15.9 L16.5 16.15 15.35 12.4 15.15 11.35 14.7 8.9 14.9 6.9 14.6 5.9 16.15 7.0 16.45 8.1 17.3 9.1 17.85 13.35 17.9 14.35 17.3 11.2 16.9 9.75 16.65 8.9 16.25 7.85 16.05 7.55 15.5 6.85 15.5 6.8 15.4 6.75 15.3 6.75 15.3 6.8 15.25 6.8 15.05 7.4 15.0 7.45 14.9 7.9 14.95 8.9 15.65 12.7 15.7 13.05 15.85 13.5 16.6 15.9" fill="#fdb102" fill-rule="evenodd" stroke="none"/>
      <path d="M16.6 15.9 L15.85 13.5 15.7 13.05 15.65 12.7 14.95 8.9 14.9 7.9 15.0 7.45 15.05 7.4 15.25 6.8 15.3 6.8 M15.4 6.75 L15.5 6.8 15.5 6.85 16.05 7.55 16.25 7.85 16.65 8.9 16.9 9.75 17.3 11.2 17.9 14.35 17.6 14.8 17.45 15.05 17.35 15.35 17.05 16.45 17.0 16.7 17.0 16.75 17.05 17.55 M15.4 6.75 L15.3 6.8 M17.0 16.7 L16.95 16.7 17.0 16.75 M16.6 15.9 L16.75 16.3 17.0 16.7" fill="none" stroke="#422401" stroke-linecap="butt" stroke-linejoin="miter" stroke-miterlimit="3.0" stroke-opacity="0.2" stroke-width="1.5"/>
      <path d="M18.25 12.85 L18.45 12.7 18.75 12.55 Q22.65 18.2 16.9 17.1 L17.0 16.15 16.95 16.05 16.9 16.05 17.05 15.7 17.1 15.6 Q17.2 14.9 17.45 14.45 L17.45 14.4 17.5 13.95 17.8 13.5 17.95 13.35 18.25 12.85" fill="#fecf30" fill-rule="evenodd" stroke="none"/>
      <path d="M16.95 16.05 L16.9 16.05 17.05 15.7 17.1 15.6 Q17.2 14.9 17.45 14.45 L17.45 14.4 17.5 13.95 17.8 13.5 17.95 13.35 18.25 12.85" fill="none" stroke="#332720" stroke-linecap="round" stroke-linejoin="round" stroke-opacity="0.2" stroke-width="1.5"/>
      <path d="M18.25 12.85 L18.45 12.7 18.75 12.55 M16.9 17.1 L17.0 16.15 16.95 16.05 Z" fill="none" stroke="#332720" stroke-linecap="butt" stroke-linejoin="miter" stroke-miterlimit="3.0" stroke-opacity="0.2" stroke-width="1.5"/>
      <path d="M10.85 23.45 L10.25 23.45 7.5 22.55 14.35 22.3 15.0 22.75 16.35 22.85 16.6 22.6 Q18.65 20.6 22.0 20.1 L21.75 21.3 Q19.15 22.0 16.3 23.9 L10.85 23.45" fill="#b38130" fill-rule="evenodd" stroke="none"/>
      <path d="M10.85 23.45 L10.25 23.45 7.5 22.55 14.35 22.3" fill="none" stroke="#382510" stroke-linecap="round" stroke-linejoin="round" stroke-opacity="0.3019608" stroke-width="0.05"/>
      <path d="M14.35 22.3 L15.0 22.75 16.35 22.85 16.6 22.6 Q18.65 20.6 22.0 20.1 L21.75 21.3 Q19.15 22.0 16.3 23.9 L10.85 23.45 Z" fill="none" stroke="#000000" stroke-linecap="round" stroke-linejoin="round" stroke-opacity="0.15294118" stroke-width="0.05"/>
      <path d="M14.6 17.9 Q15.4 16.5 17.75 16.65 L17.8 15.2 18.25 15.45 Q21.15 17.8 22.3 19.75 L22.2 19.8 21.85 19.85 Q20.55 19.8 18.15 21.05 16.35 20.05 14.6 17.9" fill="#fcbe44" fill-rule="evenodd" stroke="none"/>
      <path d="M10.55 18.6 L14.3 18.45 14.6 17.9 Q16.35 20.05 18.15 21.05 L15.45 22.5 Q11.8 21.65 8.9 20.5 L10.15 19.0 10.55 18.6" fill="#fca92e" fill-rule="evenodd" stroke="none"/>
      <path d="M17.8 15.2 L17.75 16.65 Q15.4 16.5 14.6 17.9 L14.3 18.45 10.55 18.6 Q11.9 17.2 13.55 16.2 L13.65 16.1 13.45 16.05 Q15.8 14.3 17.8 15.2 M18.15 21.05 Q20.55 19.8 21.85 19.85 L22.2 19.8 22.3 19.75 22.3 20.5 Q21.5 20.55 19.45 21.5 17.8 22.2 16.7 23.05 L14.7 23.35 Q12.2 22.05 7.4 22.55 L8.1 21.65 8.9 20.5 Q11.8 21.65 15.45 22.5 L18.15 21.05" fill="#e18804" fill-rule="evenodd" stroke="none"/>
      <path d="M17.8 15.2 Q15.8 14.3 13.45 16.05 L13.65 16.1 13.55 16.2 Q11.9 17.2 10.55 18.6 M22.3 19.75 Q21.15 17.8 18.25 15.45 L17.8 15.2 M8.9 20.5 L10.15 19.0 M22.3 19.75 L22.3 20.5 Q21.5 20.55 19.45 21.5 17.8 22.2 16.7 23.05 L14.7 23.35 Q12.2 22.05 7.4 22.55 L8.1 21.65 8.9 20.5" fill="none" stroke="#000000" stroke-linecap="round" stroke-linejoin="round" stroke-opacity="0.15294118" stroke-width="0.05"/>
      <path d="M15.55 12.1 L15.5 11.8 15.55 11.55 15.65 11.6 15.75 11.65 15.85 11.85 16.0 12.35 16.0 12.6 15.8 12.6 15.65 12.3 15.55 12.1" fill="#ffffff" fill-rule="evenodd" stroke="none"/>
      <path d="M15.55 12.1 L15.65 12.3 15.8 12.6 16.0 12.6 16.0 12.35 15.85 11.85 15.75 11.65 Q15.8 11.15 16.15 11.45 L16.2 11.55 16.75 12.65 17.15 14.4 17.05 15.6 17.05 15.75 17.05 15.8 17.0 15.85 16.9 15.55 16.8 15.3 16.5 15.0 16.2 14.75 Q15.95 14.5 16.0 14.8 L16.0 14.75 15.7 14.0 15.55 13.0 15.55 12.1" fill="#4d2601" fill-rule="evenodd" stroke="none"/>
      <path d="M17.0 15.85 Q16.8 16.2 16.55 15.95 L16.05 15.0 16.0 14.85 16.0 14.8 Q15.95 14.5 16.2 14.75 L16.5 15.0 16.8 15.3 16.9 15.55 17.0 15.85" fill="#5b583e" fill-rule="evenodd" stroke="none"/>
      <path d="M16.3 12.35 L16.3 12.25 16.3 12.15 16.2 12.0 16.15 12.0 16.15 12.05 16.15 12.2 16.2 12.3 16.3 12.35" fill="#ffffff" fill-rule="evenodd" stroke="none"/>
      <path d="M7.45 17.85 L6.6 16.9 Q6.05 16.2 5.7 15.15 L5.1 13.6 5.0 12.65 5.1 11.35 5.15 10.9 Q5.45 10.1 6.0 9.8 L5.95 9.7 6.3 9.55 6.95 9.35 Q7.45 9.2 8.1 9.35 L8.3 9.45 8.35 9.5 8.35 9.45 8.9 9.7 10.05 10.4 Q11.75 11.65 12.7 13.85 L12.85 14.2 13.0 14.7 13.3 15.75 13.4 17.3 13.35 17.8 13.2 18.5 13.1 18.45 13.0 18.45 13.0 18.4 12.65 18.3 12.7 18.1 12.95 17.25 Q13.45 17.1 13.2 15.75 L12.85 14.6 Q12.0 12.1 9.05 11.65 6.15 11.3 6.15 12.05 L6.1 12.9 6.25 13.35 Q6.85 15.5 7.7 16.75 8.2 17.55 8.85 17.85 L8.4 17.85 7.45 17.85" fill="#c8cba3" fill-rule="evenodd" stroke="none"/>
      <path d="M8.85 17.85 Q8.2 17.55 7.7 16.75 6.85 15.5 6.25 13.35 L6.1 12.9 6.15 12.05 Q6.15 11.3 9.05 11.65 12.0 12.1 12.85 14.6 L13.2 15.75 Q13.45 17.1 12.95 17.25 L10.5 17.95 10.45 17.95 9.8 17.85 8.85 17.85" fill="#fcfce9" fill-rule="evenodd" stroke="none"/>
      <path d="M8.3 9.45 L8.35 9.45 8.35 9.5 8.3 9.45" fill="#786c43" fill-rule="evenodd" stroke="none"/>
      <path d="M12.95 17.25 L12.7 18.1 12.65 18.3 12.45 18.35 10.5 17.95 12.95 17.25" fill="#cacdba" fill-rule="evenodd" stroke="none"/>
      <path d="M6.95 17.9 L7.45 17.85 8.4 17.85 8.85 17.85 9.8 17.85 10.45 17.95 10.5 17.95 12.45 18.35 12.65 18.3 13.0 18.4 13.0 18.45 13.1 18.45 13.2 18.5 14.4 18.95 Q3.15 26.1 6.3 18.05 L6.95 17.9" fill="#fecf30" fill-rule="evenodd" stroke="none"/>
      <path d="M6.95 17.9 L4.7 13.65 4.05 12.5 4.75 11.9 3.2 10.25 Q8.15 7.25 11.5 11.0 12.85 12.7 13.75 15.7 L14.4 18.95 13.2 18.5 13.35 17.8 13.4 17.3 13.3 15.75 13.0 14.7 12.85 14.2 12.7 13.85 Q11.75 11.65 10.05 10.4 L8.9 9.7 8.35 9.45 8.3 9.45 8.1 9.35 Q7.45 9.2 6.95 9.35 L6.3 9.55 5.95 9.7 6.0 9.8 Q5.45 10.1 5.15 10.9 L5.1 11.35 5.0 12.65 5.1 13.6 5.7 15.15 Q6.05 16.2 6.6 16.9 L7.45 17.85 6.95 17.9" fill="#fdb102" fill-rule="evenodd" stroke="none"/>
      <path d="M7.45 17.85 L6.6 16.9 Q6.05 16.2 5.7 15.15 L5.1 13.6 5.0 12.65 5.1 11.35 5.15 10.9 Q5.45 10.1 6.0 9.8 L5.95 9.7 6.3 9.55 6.95 9.35 Q7.45 9.2 8.1 9.35 L8.3 9.45 8.35 9.45 8.9 9.7 10.05 10.4 Q11.75 11.65 12.7 13.85 L12.85 14.2 13.0 14.7 13.3 15.75 13.4 17.3 13.35 17.8 13.2 18.5 M12.65 18.3 L13.0 18.4 13.0 18.45 M7.45 17.85 L8.4 17.85 8.85 17.85 9.8 17.85 10.45 17.95 10.5 17.95 12.45 18.35 12.65 18.3" fill="none" stroke="#332720" stroke-linecap="round" stroke-linejoin="round" stroke-opacity="0.2" stroke-width="1.5"/>
      <path d="M6.95 17.9 L7.45 17.85 M13.2 18.5 L14.4 18.95 M6.3 18.05 L6.95 17.9 M13.0 18.45 L13.1 18.45 13.2 18.5" fill="none" stroke="#332720" stroke-linecap="butt" stroke-linejoin="miter" stroke-miterlimit="3.0" stroke-opacity="0.2" stroke-width="1.5"/>
      <path d="M11.1 13.4 Q11.3 12.6 11.75 12.6 12.25 12.6 12.75 13.35 L13.45 15.35 13.45 17.15 13.4 17.4 13.45 17.45 13.35 17.6 Q13.35 17.05 12.4 17.2 11.65 17.05 11.8 17.6 L11.7 17.55 11.3 16.75 11.0 15.6 10.9 14.4 11.05 14.5 11.3 14.75 11.55 14.45 11.6 14.0 11.45 13.5 11.1 13.4" fill="#4d2601" fill-rule="evenodd" stroke="none"/>
      <path d="M11.1 13.4 L11.45 13.5 11.6 14.0 11.55 14.45 11.3 14.75 11.05 14.5 10.9 14.4 10.8 14.1 10.9 13.55 11.1 13.4" fill="#ffffff" fill-rule="evenodd" stroke="none"/>
      <path d="M11.7 17.55 L11.8 17.6 11.8 17.65 11.7 17.55" fill="url(#gradient0)" fill-rule="evenodd" stroke="none"/>
      <path d="M11.8 17.6 Q11.65 17.05 12.4 17.2 13.35 17.05 13.35 17.6 13.05 18.35 12.65 18.35 L11.8 17.65 11.8 17.6" fill="#5b583e" fill-rule="evenodd" stroke="none"/>
      <path d="M11.95 13.85 L11.95 13.7 11.95 13.5 11.85 13.4 11.75 13.45 11.7 13.65 11.75 13.8 11.85 13.85 11.95 13.85" fill="#ffffff" fill-rule="evenodd" stroke="none"/>
      <path d="M10.3 3.65 L10.5 4.1 10.25 4.25 9.75 4.5 7.9 4.35 7.45 4.15 7.35 3.75 Q7.05 2.1 10.15 0.0 L11.55 0.4 Q9.7 1.65 10.3 3.65" fill="#fdbe2d" fill-rule="evenodd" stroke="none"/>
      <path d="M10.3 3.65 Q9.7 1.65 11.55 0.4 L10.15 0.0 Q7.05 2.1 7.35 3.75" fill="none" stroke="#000000" stroke-linecap="round" stroke-linejoin="round" stroke-opacity="0.15294118" stroke-width="0.05"/>
    </g>
    <radialGradient cx="0" cy="0" gradientTransform="matrix(-0.0025, 2.0E-4, 6.0E-4, 0.0036, 12.2, 15.5)" gradientUnits="userSpaceOnUse" id="gradient0" r="819.2" spreadMethod="pad">
      <stop offset="0.21176470588235294" stop-color="#453929"/>
      <stop offset="0.5254901960784314" stop-color="#252016"/>
    </radialGradient>
  </defs>
</svg>
