<?xml version="1.0" encoding="UTF-8" standalone="no"?>
<svg xmlns:xlink="http://www.w3.org/1999/xlink" height="440.0px" width="440.0px" xmlns="http://www.w3.org/2000/svg">
  <g transform="matrix(10.0, 0.0, 0.0, 10.0, 0.0, 0.0)">
    <use height="44.0" transform="matrix(0.9091, 0.0, 0.0, 0.9091, 2.0, 2.0)" width="44.0" xlink:href="#sprite0"/>
  </g>
  <defs>
    <g id="sprite0" transform="matrix(1.0, 0.0, 0.0, 1.0, 0.0, 0.0)">
      <use height="44.0" transform="matrix(1.0, 0.0, 0.0, 1.0, 0.0, 0.0)" width="44.0" xlink:href="#shape0"/>
      <use height="29.5" transform="matrix(1.1664, 0.0, 0.0, 0.5832, 5.4956, 21.9979)" width="29.5" xlink:href="#sprite1"/>
      <use height="26.5" transform="matrix(1.0, 0.0, 0.0, 1.0, 5.6, 11.55)" width="15.75" xlink:href="#shape2"/>
      <use height="53.6" transform="matrix(0.0252, -0.0498, -0.0501, -0.0253, 18.219, 31.1644)" width="53.6" xlink:href="#shape3"/>
      <use height="31.6" transform="matrix(1.0, 0.0, 0.0, 1.0, 6.05, 4.5)" width="30.55" xlink:href="#shape4"/>
      <use height="53.6" transform="matrix(0.0201, -0.0748, -0.0753, -0.0202, 25.5295, 16.2473)" width="53.6" xlink:href="#shape3"/>
      <use height="53.6" transform="matrix(0.011, -0.0411, -0.0414, -0.0111, 13.463, 13.2994)" width="53.6" xlink:href="#shape3"/>
      <use height="7.45" transform="matrix(1.0, 0.0, 0.0, 1.0, 19.55, 6.2)" width="10.15" xlink:href="#shape5"/>
      <use height="53.6" transform="matrix(-0.0168, -0.043, -0.0432, 0.0169, 18.1088, 16.7493)" width="53.6" xlink:href="#shape3"/>
      <use height="27.1" transform="matrix(1.0, 0.0, 0.0, 1.0, 5.5, 11.1)" width="33.0" xlink:href="#shape6"/>
    </g>
    <g id="shape0" transform="matrix(1.0, 0.0, 0.0, 1.0, 0.0, 0.0)">
      <path d="M44.0 44.0 L0.0 44.0 0.0 0.0 44.0 0.0 44.0 44.0" fill="#43adca" fill-opacity="0.0" fill-rule="evenodd" stroke="none"/>
    </g>
    <g id="sprite1" transform="matrix(1.0, 0.0, 0.0, 1.0, 14.75, 14.75)">
      <use height="29.5" transform="matrix(1.0, 0.0, 0.0, 1.0, -14.75, -14.75)" width="29.5" xlink:href="#shape1"/>
    </g>
    <g id="shape1" transform="matrix(1.0, 0.0, 0.0, 1.0, 14.75, 14.75)">
      <path d="M10.4 -10.45 Q14.75 -6.1 14.75 0.0 14.75 6.1 10.4 10.4 6.1 14.75 0.0 14.75 -6.1 14.75 -10.45 10.4 -14.75 6.1 -14.75 0.0 -14.75 -6.1 -10.45 -10.45 -6.1 -14.75 0.0 -14.75 6.1 -14.75 10.4 -10.45" fill="url(#gradient0)" fill-rule="evenodd" stroke="none"/>
    </g>
    <radialGradient cx="0" cy="0" gradientTransform="matrix(0.0172, 0.0, 0.0, 0.0172, 0.0, 0.0)" gradientUnits="userSpaceOnUse" id="gradient0" r="819.2" spreadMethod="pad">
      <stop offset="0.5882352941176471" stop-color="#0e171d" stop-opacity="0.49803922"/>
      <stop offset="1.0" stop-color="#101a24" stop-opacity="0.0"/>
    </radialGradient>
    <g id="shape2" transform="matrix(1.0, 0.0, 0.0, 1.0, -5.6, -11.55)">
      <path d="M6.45 12.05 Q6.3 12.65 7.6 13.2 L8.85 13.8 Q14.55 15.3 19.45 19.15 L19.9 20.0 20.25 22.1 20.8 28.05 Q21.05 32.05 20.55 36.0 20.55 37.0 20.9 37.4 L20.85 37.55 20.5 37.4 20.2 37.3 9.15 31.85 8.85 31.7 8.85 31.65 8.8 31.7 8.25 31.45 Q6.2 30.35 6.2 27.9 6.65 24.95 6.35 20.7 6.05 16.4 6.1 14.1 L6.2 13.3 Q6.2 12.45 6.45 12.05" fill="#6c2819" fill-rule="evenodd" stroke="none"/>
      <path d="M6.45 12.05 Q6.2 12.45 6.2 13.3 L6.1 14.1 Q6.05 16.4 6.35 20.7 6.65 24.95 6.2 27.9 6.2 30.35 8.25 31.45 L8.8 31.7 M9.15 31.85 L20.2 37.3 20.5 37.4 20.85 37.55" fill="none" stroke="#c54829" stroke-linecap="round" stroke-linejoin="round" stroke-opacity="0.49019608" stroke-width="1.0"/>
      <path d="M8.95 29.45 L8.4 28.7 Q8.25 28.25 8.4 27.8 8.5 27.35 8.95 27.25 L9.7 27.35 10.3 28.1 10.3 29.0 9.75 29.6 8.95 29.45" fill="#fbd8a6" fill-opacity="0.5803922" fill-rule="evenodd" stroke="none"/>
      <path d="M15.65 22.4 Q15.15 22.4 14.75 22.0 14.45 21.6 14.45 21.05 14.45 20.5 14.75 20.1 15.15 19.75 15.65 19.75 16.1 19.75 16.45 20.1 16.8 20.5 16.8 21.05 L16.45 22.0 Q16.1 22.4 15.65 22.4" fill="#c2ffff" fill-opacity="0.4627451" fill-rule="evenodd" stroke="none"/>
      <path d="M16.0 22.4 Q15.65 22.4 15.4 22.1 L15.2 21.5 15.4 20.85 16.0 20.6 Q16.35 20.6 16.55 20.85 L16.8 21.5 16.55 22.1 16.0 22.4" fill="#fbd8a6" fill-opacity="0.5803922" fill-rule="evenodd" stroke="none"/>
    </g>
    <g id="shape3" transform="matrix(1.0, 0.0, 0.0, 1.0, 26.8, 26.8)">
      <path d="M-4.75 -26.4 L0.0 -26.8 Q11.1 -26.8 18.95 -18.95 26.8 -11.1 26.8 0.0 26.8 10.95 19.2 18.75 L18.95 18.95 16.95 20.8 Q12.95 22.9 7.45 23.0 L7.3 23.6 2.5 22.95 Q-5.0 20.1 -9.0 14.45 L-9.4 14.2 Q-23.3 -4.95 -6.4 -24.15 -5.5 -25.2 -4.75 -26.4" fill="#ee2611" fill-opacity="0.13725491" fill-rule="evenodd" stroke="none"/>
      <path d="M16.95 20.8 L16.65 21.05 Q9.55 26.8 0.0 26.8 -11.1 26.8 -18.95 18.95 -26.8 11.1 -26.8 0.0 -26.8 -11.1 -18.95 -18.95 L-15.7 -21.75 -13.7 -23.1 Q-9.6 -25.6 -4.75 -26.4 -5.5 -25.2 -6.4 -24.15 -23.3 -4.95 -9.4 14.2 L-9.0 14.45 Q-5.0 20.1 2.5 22.95 L7.3 23.6 7.45 23.0 Q12.95 22.9 16.95 20.8" fill="#631814" fill-opacity="0.13725491" fill-rule="evenodd" stroke="none"/>
      <path d="M17.85 -3.2 Q15.7 -1.0 12.65 -1.0 9.6 -1.0 7.4 -3.2 5.25 -5.35 5.25 -8.4 5.25 -11.45 7.4 -13.65 9.6 -15.8 12.65 -15.8 15.7 -15.8 17.85 -13.65 20.05 -11.45 20.05 -8.4 20.05 -5.35 17.85 -3.2" fill="#fbd8a6" fill-opacity="0.13725491" fill-rule="evenodd" stroke="none"/>
    </g>
    <g id="shape4" transform="matrix(1.0, 0.0, 0.0, 1.0, -6.05, -4.5)">
      <path d="M34.5 28.45 Q35.2 29.7 33.95 30.45 L27.35 34.4 Q22.0 37.6 17.6 34.85 13.1 32.05 10.8 31.45 8.4 30.85 8.15 30.2 7.9 29.6 20.7 23.8 23.3 22.1 28.55 24.65 33.75 27.2 34.5 28.45" fill="#4d1310" fill-opacity="0.17254902" fill-rule="evenodd" stroke="none"/>
      <path d="M36.1 11.2 L36.05 11.25 35.95 11.3 35.7 11.3 35.65 11.35 35.55 11.35 35.45 11.4 35.4 11.4 35.35 11.45 35.3 11.5 35.25 11.55 35.2 11.6 35.2 11.65 35.2 11.7 35.15 11.75 35.15 12.0 35.2 12.05 35.2 12.1 35.2 12.15 35.25 12.2 35.3 12.25 35.35 12.3 35.4 12.3 35.45 12.35 35.55 12.4 35.65 12.4 35.7 12.45 36.05 12.45 35.35 12.95 Q28.75 14.35 22.9 18.85 L22.8 18.95 22.65 19.05 22.55 19.05 20.3 18.9 Q19.2 18.65 17.45 17.6 14.2 15.2 8.95 13.8 L7.75 13.25 Q6.4 12.65 6.55 12.05 6.65 11.65 7.35 11.25 L18.8 5.55 Q21.05 4.5 23.3 5.5 28.55 8.65 35.2 10.85 L36.1 11.2 M34.4 11.2 L33.8 10.9 Q29.5 9.7 25.75 7.85 L22.7 6.0 Q21.65 5.3 20.6 5.45 19.45 5.7 17.15 6.8 L13.5 8.8 Q10.15 10.45 8.95 11.05 L8.75 11.25 Q7.95 11.85 8.1 12.45 8.15 12.65 9.55 13.25 L15.5 16.05 Q20.1 18.2 20.9 18.35 21.7 18.45 23.1 17.7 24.55 16.9 26.65 15.85 28.75 14.75 31.3 13.65 33.7 12.5 34.35 11.5 L34.4 11.2" fill="#ffffff" fill-rule="evenodd" stroke="none"/>
      <path d="M22.55 19.05 L22.65 19.05 22.6 19.1 22.6 19.15 22.55 19.05" fill="#f0e4c3" fill-rule="evenodd" stroke="none"/>
      <path d="M17.45 17.6 Q19.2 18.65 20.3 18.9 L22.55 19.05 22.6 19.15 Q21.25 20.15 20.85 20.05 L19.5 19.15 17.45 17.6" fill="#ffffff" fill-opacity="0.50980395" fill-rule="evenodd" stroke="none"/>
      <path d="M34.4 11.2 L34.35 11.5 Q33.7 12.5 31.3 13.65 28.75 14.75 26.65 15.85 24.55 16.9 23.1 17.7 21.7 18.45 20.9 18.35 20.1 18.2 15.5 16.05 L9.55 13.25 Q8.15 12.65 8.1 12.45 7.95 11.85 8.75 11.25 L8.95 11.05 Q10.15 10.45 13.5 8.8 L17.15 6.8 Q19.45 5.7 20.6 5.45 21.65 5.3 22.7 6.0 L25.75 7.85 Q29.5 9.7 33.8 10.9 L34.4 11.2" fill="url(#gradient1)" fill-rule="evenodd" stroke="none"/>
      <path d="M36.1 11.2 L35.2 10.85 Q28.55 8.65 23.3 5.5 21.05 4.5 18.8 5.55 L7.35 11.25 Q6.65 11.65 6.55 12.05" fill="none" stroke="#c54829" stroke-linecap="round" stroke-linejoin="round" stroke-opacity="0.49019608" stroke-width="1.0"/>
    </g>
    <linearGradient gradientTransform="matrix(0.0161, 0.0, 0.0, 0.0079, 21.25, 11.85)" gradientUnits="userSpaceOnUse" id="gradient1" spreadMethod="pad" x1="-819.2" x2="819.2">
      <stop offset="0.0" stop-color="#ffb08c"/>
      <stop offset="1.0" stop-color="#cc634e"/>
    </linearGradient>
    <g id="shape5" transform="matrix(1.0, 0.0, 0.0, 1.0, -19.55, -6.2)">
      <path d="M29.5 12.05 L29.7 12.65 29.35 13.35 28.65 13.65 28.05 13.45 Q27.8 13.2 27.85 12.85 L28.2 12.2 Q28.55 11.85 28.9 11.85 L29.5 12.05" fill="#fbd8a6" fill-opacity="0.5803922" fill-rule="evenodd" stroke="none"/>
      <path d="M22.1 6.85 Q22.35 7.35 22.1 7.85 21.95 8.4 21.4 8.6 L20.4 8.65 Q19.9 8.5 19.65 8.0 19.45 7.55 19.65 7.05 19.85 6.6 20.35 6.35 L21.35 6.25 22.1 6.85" fill="#fbd8a6" fill-rule="evenodd" stroke="none"/>
    </g>
    <g id="shape6" transform="matrix(1.0, 0.0, 0.0, 1.0, -5.5, -11.1)">
      <path d="M20.65 12.2 L20.65 12.75 20.25 13.2 19.65 13.2 Q19.4 13.2 19.25 12.9 L19.2 12.3 19.65 11.85 20.2 11.85 20.65 12.2" fill="#fbd8a6" fill-opacity="0.5803922" fill-rule="evenodd" stroke="none"/>
      <path d="M21.25 37.6 L21.05 37.4 20.9 37.2 Q20.6 36.8 20.6 35.85 L20.8 27.95 20.4 21.95 Q20.35 21.1 20.6 20.3 L21.0 19.35 Q23.8 17.2 27.95 15.35 31.9 13.6 35.25 12.8 36.35 12.3 36.55 11.6 L36.7 11.8 Q37.2 12.5 37.3 13.95 L37.25 15.95 Q37.05 19.1 37.25 25.5 L37.7 28.0 Q37.9 29.65 36.55 30.7 L36.35 30.6 Q37.3 29.3 37.1 25.95 L36.85 21.2 Q36.9 16.85 36.3 14.8 L36.2 14.75 Q34.05 13.15 29.95 15.3 25.85 17.5 24.05 19.15 22.3 20.75 21.9 21.55 20.6 28.2 21.45 32.15 21.75 33.75 22.35 34.65 23.3 36.1 24.95 36.0 L25.65 35.95 26.25 35.8 22.95 37.4 22.85 37.4 21.25 37.6" fill="#ffe4bb" fill-rule="evenodd" stroke="none"/>
      <path d="M36.55 30.7 L36.1 31.0 36.35 30.6 36.55 30.7" fill="#ffe4bb" fill-opacity="0.50980395" fill-rule="evenodd" stroke="none"/>
      <path d="M36.1 31.0 L34.75 31.7 Q31.55 33.0 26.25 35.8 L25.65 35.95 24.95 36.0 Q23.3 36.1 22.35 34.65 21.75 33.75 21.45 32.15 20.6 28.2 21.9 21.55 22.3 20.75 24.05 19.15 25.85 17.5 29.95 15.3 34.05 13.15 36.2 14.75 L36.3 14.8 Q36.9 16.85 36.85 21.2 L37.1 25.95 Q37.3 29.3 36.35 30.6 L36.1 31.0" fill="url(#gradient2)" fill-rule="evenodd" stroke="none"/>
      <path d="M36.55 11.6 L36.7 11.8 Q37.2 12.5 37.3 13.95 L37.25 15.95 Q37.05 19.1 37.25 25.5 L37.7 28.0 Q37.9 29.65 36.55 30.7 L36.1 31.0 34.75 31.7 Q31.55 33.0 26.25 35.8 L22.95 37.4 22.85 37.4 21.25 37.6" fill="none" stroke="#c54829" stroke-linecap="round" stroke-linejoin="round" stroke-opacity="0.49019608" stroke-width="1.0"/>
      <path d="M5.7 25.15 Q6.25 23.45 5.75 18.25 L5.5 15.45 6.2 11.95 9.65 13.15 Q10.45 13.45 14.05 15.5 17.6 17.45 18.55 18.25 19.5 19.1 18.75 20.35 18.1 21.6 11.55 24.25 5.1 26.9 5.7 25.15" fill="url(#gradient3)" fill-rule="evenodd" stroke="none"/>
      <path d="M24.25 34.15 Q30.25 26.7 34.1 27.7 35.4 28.05 36.0 29.45 35.45 29.75 34.7 31.4 L33.3 34.15 Q30.8 35.3 24.25 34.15" fill="#ec735a" fill-rule="evenodd" stroke="none"/>
      <path d="M36.0 29.45 Q35.45 29.75 34.7 31.4 L33.3 34.15 Q30.8 35.3 24.25 34.15" fill="none" stroke="#2b0f09" stroke-linecap="round" stroke-linejoin="round" stroke-opacity="0.5019608" stroke-width="0.5"/>
      <path d="M24.4 33.15 Q23.25 33.6 23.05 34.05" fill="none" stroke="#2b0f09" stroke-linecap="round" stroke-linejoin="round" stroke-opacity="0.5019608" stroke-width="0.5"/>
      <path d="M23.1 34.15 Q23.15 34.8 24.3 35.6" fill="none" stroke="#2b0f09" stroke-linecap="round" stroke-linejoin="round" stroke-opacity="0.5019608" stroke-width="0.5"/>
      <path d="M30.6 25.65 Q31.65 20.8 35.7 19.15 37.0 23.25 36.4 25.95 35.8 28.75 33.15 29.45 L31.95 29.7 30.85 30.1 Q30.2 30.35 29.25 31.35 L27.8 32.7 Q26.3 33.75 24.9 33.65 23.6 33.6 23.0 32.75 21.65 31.0 21.9 27.2 25.3 22.55 29.45 26.9 L29.25 25.45 29.4 25.75 Q29.95 27.05 30.25 26.1 30.15 23.4 30.6 25.65" fill="#b85a46" fill-opacity="0.96862745" fill-rule="evenodd" stroke="none"/>
      <path d="M28.6 30.5 L28.45 31.0 27.75 32.2 Q26.75 33.55 25.45 33.7 24.15 33.8 23.3 32.65 22.4 31.5 22.55 29.75 L22.55 29.6 28.6 30.5" fill="#ede8de" fill-rule="evenodd" stroke="none"/>
      <path d="M22.55 29.6 L22.55 29.35 Q22.75 27.9 23.65 26.65 24.65 25.35 26.0 25.2 27.3 25.05 28.15 26.25 29.0 27.35 28.85 29.15 L28.6 30.5 22.55 29.6" fill="#c1bca9" fill-rule="evenodd" stroke="none"/>
      <path d="M22.55 29.6 L22.55 29.35 Q22.75 27.9 23.65 26.65 24.65 25.35 26.0 25.2 27.3 25.05 28.15 26.25 29.0 27.35 28.85 29.15 L28.6 30.5 28.45 31.0 27.75 32.2 Q26.75 33.55 25.45 33.7 24.15 33.8 23.3 32.65 22.4 31.5 22.55 29.75 L22.55 29.6 Z" fill="none" stroke="#2b0f09" stroke-linecap="round" stroke-linejoin="round" stroke-opacity="0.5019608" stroke-width="0.5"/>
      <path d="M27.85 29.35 L28.0 30.1 28.35 30.45 Q28.6 30.45 28.75 30.1 L28.85 29.35 28.75 28.6 Q28.6 28.25 28.35 28.25 28.15 28.25 28.0 28.6 27.85 28.9 27.85 29.35" fill="#000000" fill-rule="evenodd" stroke="none"/>
      <path d="M27.85 28.35 L27.35 28.4 27.05 28.7 27.2 29.1 27.7 29.35 28.2 29.3 28.45 29.0 28.3 28.6 Q28.15 28.4 27.85 28.35" fill="#ffffff" fill-rule="evenodd" stroke="none"/>
      <path d="M24.9 32.25 Q25.1 32.65 24.8 32.9 L24.2 32.8 23.45 31.95 23.1 30.85 Q23.05 30.25 23.35 30.05 23.65 29.8 23.95 30.55 L24.5 31.6 24.9 32.25" fill="#ffffff" fill-rule="evenodd" stroke="none"/>
      <path d="M27.45 26.25 Q28.15 26.25 28.7 27.0 29.2 27.75 29.3 28.6 L29.3 28.9 29.3 29.15 Q29.2 30.0 28.7 30.7 28.15 31.45 27.45 31.45 26.7 31.45 26.1 30.7 L25.9 30.3 25.75 29.55 25.75 28.9 Q25.75 27.75 26.1 27.0 26.7 26.25 27.45 26.25" fill="#221100" fill-rule="evenodd" stroke="none"/>
      <path d="M27.45 26.25 Q28.15 26.25 28.7 27.0 29.2 27.75 29.3 28.6 L29.3 28.9 29.3 29.15 Q29.2 30.0 28.7 30.7 28.15 31.45 27.45 31.45 26.7 31.45 26.1 30.7 L25.9 30.3 25.75 29.55 25.75 28.9 Q25.75 27.75 26.1 27.0 26.7 26.25 27.45 26.25 Z" fill="none" stroke="#000000" stroke-linecap="round" stroke-linejoin="round" stroke-width="0.05"/>
      <path d="M26.8 28.95 L26.15 29.2 25.55 28.95 25.3 28.35 25.55 27.75 Q25.8 27.5 26.15 27.5 26.55 27.5 26.8 27.75 L27.05 28.35 26.8 28.95" fill="#ffffff" fill-rule="evenodd" stroke="none"/>
      <path d="M28.65 30.55 L27.9 31.0 27.1 30.95 Q26.8 30.75 26.8 30.35 26.75 30.0 27.05 29.7 27.4 29.35 27.85 29.25 L28.6 29.3 29.0 29.85 28.65 30.55" fill="#cbf468" fill-rule="evenodd" stroke="none"/>
      <path d="M29.65 30.9 L28.35 32.6 Q27.0 33.9 25.55 34.3 23.25 34.25 22.3 31.45 L22.05 30.7 29.65 30.9" fill="#ec735a" fill-rule="evenodd" stroke="none"/>
      <path d="M29.65 30.9 L22.05 30.7 M29.65 30.9 L29.8 30.6" fill="none" stroke="#2b0f09" stroke-linecap="round" stroke-linejoin="round" stroke-opacity="0.5019608" stroke-width="0.5"/>
      <path d="M25.5 31.3 L24.6 33.1 M24.6 31.65 L23.6 33.65 M27.2 30.95 L26.9 31.7 M26.65 30.5 L25.8 32.2" fill="none" stroke="#990000" stroke-linecap="round" stroke-linejoin="round" stroke-opacity="0.2509804" stroke-width="1.5"/>
      <path d="M36.2 22.75 L36.25 23.15 36.3 24.4 Q36.2 26.15 35.4 27.5 34.55 28.8 33.5 28.9 32.65 29.0 32.1 28.2 L32.05 28.15 31.95 27.95 31.9 27.95 Q31.95 27.7 33.7 25.6 L36.2 22.75" fill="#ede8de" fill-rule="evenodd" stroke="none"/>
      <path d="M31.9 27.95 L31.85 27.8 Q31.2 26.65 31.3 24.9 31.4 23.1 32.2 21.8 33.0 20.45 34.05 20.45 35.1 20.3 35.75 21.45 L36.2 22.75 33.7 25.6 Q31.95 27.7 31.9 27.95" fill="#c1bca9" fill-rule="evenodd" stroke="none"/>
      <path d="M31.9 27.95 L31.85 27.8 Q31.2 26.65 31.3 24.9 31.4 23.1 32.2 21.8 33.0 20.45 34.05 20.45 35.1 20.3 35.75 21.45 L36.2 22.75 36.25 23.15 36.3 24.4 Q36.2 26.15 35.4 27.5 34.55 28.8 33.5 28.9 32.65 29.0 32.1 28.2 L32.05 28.15 31.95 27.95 31.9 27.95 Z" fill="none" stroke="#2b0f09" stroke-linecap="round" stroke-linejoin="round" stroke-opacity="0.5019608" stroke-width="0.5"/>
      <path d="M31.85 27.0 L31.95 27.75 32.3 28.1 32.6 27.75 32.7 27.0 32.6 26.25 32.3 25.9 Q32.1 25.9 31.95 26.25 L31.85 27.0" fill="#000000" fill-rule="evenodd" stroke="none"/>
      <path d="M31.85 25.9 L31.4 25.95 Q31.2 26.05 31.15 26.25 L31.3 26.65 31.7 26.9 32.15 26.9 32.4 26.6 32.25 26.2 31.85 25.9" fill="#ffffff" fill-rule="evenodd" stroke="none"/>
      <path d="M32.6 22.95 Q33.15 22.95 33.55 23.75 33.95 24.6 34.0 25.55 L34.0 25.85 34.0 26.15 Q33.95 27.1 33.55 27.8 33.15 28.65 32.6 28.65 32.05 28.65 31.6 27.8 L31.45 27.4 31.3 26.55 31.3 25.85 Q31.3 24.6 31.6 23.75 32.05 22.95 32.6 22.95" fill="#221100" fill-rule="evenodd" stroke="none"/>
      <path d="M32.6 22.95 Q33.15 22.95 33.55 23.75 33.95 24.6 34.0 25.55 L34.0 25.85 34.0 26.15 Q33.95 27.1 33.55 27.8 33.15 28.65 32.6 28.65 32.05 28.65 31.6 27.8 L31.45 27.4 31.3 26.55 31.3 25.85 Q31.3 24.6 31.6 23.75 32.05 22.95 32.6 22.95 Z" fill="none" stroke="#000000" stroke-linecap="round" stroke-linejoin="round" stroke-width="0.05"/>
      <path d="M32.0 25.9 L31.5 26.2 31.05 25.9 30.85 25.25 31.05 24.55 Q31.25 24.3 31.5 24.3 31.8 24.3 32.0 24.55 L32.2 25.25 32.0 25.9" fill="#ffffff" fill-rule="evenodd" stroke="none"/>
      <path d="M33.45 27.65 Q33.2 28.05 32.85 28.15 L32.25 28.05 Q32.0 27.9 32.0 27.45 L32.25 26.65 32.85 26.2 33.45 26.25 33.65 26.9 33.45 27.65" fill="#cbf468" fill-rule="evenodd" stroke="none"/>
      <path d="M32.0 28.5 L32.05 28.4 Q34.5 24.85 36.7 24.25 L36.55 25.2 Q36.0 28.45 34.55 29.65 33.6 30.1 32.8 29.45 L32.0 28.5" fill="#ec735a" fill-rule="evenodd" stroke="none"/>
      <path d="M32.0 28.5 L32.05 28.4 Q34.5 24.85 36.7 24.25" fill="none" stroke="#2b0f09" stroke-linecap="round" stroke-linejoin="round" stroke-opacity="0.5019608" stroke-width="0.5"/>
      <path d="M34.55 27.5 L33.75 29.0 M36.0 27.2 L35.7 27.8 M35.5 26.85 L34.8 28.25 M33.8 27.75 L32.95 29.45" fill="none" stroke="#990000" stroke-linecap="round" stroke-linejoin="round" stroke-opacity="0.2509804" stroke-width="1.5"/>
      <path d="M37.95 26.55 L37.8 26.0 36.95 25.4 Q36.4 25.3 36.15 25.6 L36.4 25.95 Q36.85 26.85 37.6 26.8 L37.65 26.8 37.95 26.55" fill="#4f2217" fill-rule="evenodd" stroke="none"/>
      <path d="M36.15 25.6 L36.05 25.75 Q36.05 26.4 36.7 27.25 37.35 28.05 37.65 27.7 L38.0 26.9 37.95 26.55 37.65 26.8 37.6 26.8 Q36.85 26.85 36.4 25.95 L36.15 25.6" fill="#280d0b" fill-rule="evenodd" stroke="none"/>
      <path d="M36.15 25.6 L36.05 25.75 Q36.05 26.4 36.7 27.25 37.35 28.05 37.65 27.7 L38.0 26.9 37.95 26.55 37.8 26.0 36.95 25.4 Q36.4 25.3 36.15 25.6 Z" fill="none" stroke="#2b0f09" stroke-linecap="round" stroke-linejoin="round" stroke-opacity="0.5019608" stroke-width="1.0"/>
      <path d="M22.9 31.75 L22.75 32.35 Q22.55 33.75 21.65 34.25 L21.55 34.2 21.1 34.1 21.05 33.35 Q21.15 32.45 21.85 32.0 22.45 31.55 22.9 31.75" fill="#4f2217" fill-rule="evenodd" stroke="none"/>
      <path d="M21.1 34.1 L21.55 34.2 21.65 34.25 Q22.55 33.75 22.75 32.35 L22.9 31.75 23.0 31.85 Q23.3 32.7 22.85 34.15 22.4 35.6 21.9 35.4 21.5 35.2 21.25 34.55 L21.1 34.1" fill="#280d0b" fill-rule="evenodd" stroke="none"/>
      <path d="M22.9 31.75 Q22.45 31.55 21.85 32.0 21.15 32.45 21.05 33.35 L21.1 34.1 21.25 34.55 Q21.5 35.2 21.9 35.4 22.4 35.6 22.85 34.15 23.3 32.7 23.0 31.85 L22.9 31.75 Z" fill="none" stroke="#2b0f09" stroke-linecap="round" stroke-linejoin="round" stroke-opacity="0.5019608" stroke-width="1.0"/>
    </g>
    <linearGradient gradientTransform="matrix(0.0098, 0.0, 0.0, 0.0134, 29.1, 25.05)" gradientUnits="userSpaceOnUse" id="gradient2" spreadMethod="pad" x1="-819.2" x2="819.2">
      <stop offset="0.1411764705882353" stop-color="#f6785e"/>
      <stop offset="0.7450980392156863" stop-color="#cc634e"/>
      <stop offset="1.0" stop-color="#9e4c3c"/>
    </linearGradient>
    <linearGradient gradientTransform="matrix(-6.0E-4, 0.0044, -0.0087, -0.0011, 11.75, 19.9)" gradientUnits="userSpaceOnUse" id="gradient3" spreadMethod="pad" x1="-819.2" x2="819.2">
      <stop offset="0.0" stop-color="#fedccb" stop-opacity="0.38039216"/>
      <stop offset="1.0" stop-color="#f8baad" stop-opacity="0.0"/>
    </linearGradient>
  </defs>
</svg>
