<?xml version="1.0" encoding="UTF-8" standalone="no"?>
<svg xmlns:xlink="http://www.w3.org/1999/xlink" height="440.0px" width="440.0px" xmlns="http://www.w3.org/2000/svg">
  <g transform="matrix(10.0, 0.0, 0.0, 10.0, 0.0, 0.0)">
    <use height="44.0" transform="matrix(1.0, 0.0, 0.0, 1.0, 0.0, 0.0)" width="44.0" xlink:href="#shape0"/>
    <use height="7.6" transform="matrix(0.9777, 0.0, 0.0, 0.9777, 19.2792, 2.3147)" width="6.3" xlink:href="#sprite0"/>
  </g>
  <defs>
    <g id="shape0" transform="matrix(1.0, 0.0, 0.0, 1.0, 0.0, 0.0)">
      <path d="M44.0 44.0 L0.0 44.0 0.0 0.0 44.0 0.0 44.0 44.0" fill="#43adca" fill-opacity="0.0" fill-rule="evenodd" stroke="none"/>
      <path d="M35.3 30.2 L35.75 31.1 34.55 30.9 36.05 32.5 36.05 32.6 34.2 32.55 35.6 33.95 31.25 34.1 Q28.4 33.5 27.6 32.95 L27.4 32.8 Q26.75 32.05 26.8 31.2 26.85 29.9 28.1 29.35 L32.05 29.15 Q34.7 29.55 35.3 30.2" fill="#1e4e59" fill-rule="evenodd" stroke="none"/>
      <path d="M35.3 30.2 L35.75 31.1 34.55 30.9 36.05 32.5 36.05 32.6 34.2 32.55 35.6 33.95 31.25 34.1 Q28.4 33.5 27.6 32.95 L27.4 32.8 Q26.75 32.05 26.8 31.2 26.85 29.9 28.1 29.35 L32.05 29.15 Q34.7 29.55 35.3 30.2 Z" fill="none" stroke="#000000" stroke-linecap="round" stroke-linejoin="round" stroke-opacity="0.34901962" stroke-width="0.05"/>
      <path d="M23.35 37.05 L23.35 37.3 23.25 37.05 23.35 37.05 M14.4 37.55 L14.2 37.6 14.4 37.5 14.45 37.55 14.4 37.55 14.4 37.5 14.4 37.55" fill="#af6a03" fill-rule="evenodd" stroke="none"/>
      <path d="M23.3 36.95 L23.35 37.05 23.25 37.05 23.35 37.3 23.45 39.85 21.4 38.85 19.45 41.4 16.8 39.4 15.3 40.7 14.65 38.4 14.4 37.55 14.45 37.55 Q18.85 34.85 23.3 36.95" fill="#266473" fill-rule="evenodd" stroke="none"/>
      <path d="M14.4 37.5 L14.45 37.4 14.55 36.5 14.9 35.35 Q15.7 33.75 17.55 33.25 19.5 32.8 21.05 33.9 22.1 34.6 23.3 36.95 18.85 34.85 14.45 37.55 L14.4 37.5" fill="#225966" fill-rule="evenodd" stroke="none"/>
      <path d="M14.4 37.5 L14.45 37.4 14.55 36.5 14.9 35.35 Q15.7 33.75 17.55 33.25 19.5 32.8 21.05 33.9 22.1 34.6 23.3 36.95 L23.35 37.05 23.35 37.3 23.45 39.85 21.4 38.85 19.45 41.4 16.8 39.4 15.3 40.7 14.65 38.4 14.4 37.55 14.4 37.5 Z" fill="none" stroke="#000000" stroke-linecap="round" stroke-linejoin="round" stroke-opacity="0.34901962" stroke-width="0.05"/>
      <path d="M15.6 28.65 L17.0 28.0 17.15 28.1 15.6 28.65" fill="#36a8bd" fill-rule="evenodd" stroke="none"/>
      <path d="M17.0 28.0 L17.0 27.85 17.1 27.85 17.05 28.0 17.0 28.0 M12.3 29.8 L15.6 28.65 12.3 29.85 12.3 29.8" fill="#48e0fc" fill-rule="evenodd" stroke="none"/>
      <path d="M9.45 31.55 Q9.4 31.15 9.9 30.65 L12.3 29.8 12.3 29.85 Q15.85 29.5 14.75 30.8 14.05 31.35 12.25 31.75 L9.45 31.55" fill="#63b7cb" fill-rule="evenodd" stroke="none"/>
      <path d="M17.15 28.1 Q19.75 29.95 17.55 31.8 L17.25 31.8 10.25 32.15 Q9.5 31.95 9.45 31.55 L12.25 31.75 Q14.05 31.35 14.75 30.8 15.85 29.5 12.3 29.85 L15.6 28.65 17.15 28.1" fill="#1d4a58" fill-rule="evenodd" stroke="none"/>
      <path d="M17.25 31.8 L10.25 32.15 Q9.5 31.95 9.45 31.55 9.4 31.15 9.9 30.65 L12.3 29.8 15.6 28.65 17.15 28.1" fill="none" stroke="#000000" stroke-linecap="round" stroke-linejoin="round" stroke-opacity="0.34901962" stroke-width="0.05"/>
      <path d="M30.3 16.25 Q28.85 15.2 28.7 13.55 L33.55 12.15 36.1 12.1 Q34.15 14.2 30.3 16.25" fill="#328396" fill-rule="evenodd" stroke="none"/>
      <path d="M36.1 12.1 Q36.55 12.35 35.0 14.5 L32.4 17.2 Q31.1 16.9 30.3 16.25 34.15 14.2 36.1 12.1" fill="#1d4a58" fill-rule="evenodd" stroke="none"/>
      <path d="M28.7 13.55 L33.55 12.15 36.1 12.1 Q36.55 12.35 35.0 14.5 L32.4 17.2" fill="none" stroke="#000000" stroke-linecap="round" stroke-linejoin="round" stroke-opacity="0.34901962" stroke-width="0.05"/>
      <path d="M12.85 33.65 Q10.6 30.8 10.3 27.25 10.1 24.15 10.45 21.25 11.7 15.3 13.4 11.0 14.35 8.65 15.75 6.9 17.7 4.5 20.85 4.5 23.9 4.5 26.3 6.9 L29.65 11.05 Q32.3 16.1 33.85 21.6 34.55 24.15 34.8 27.25 L34.85 28.45 Q32.7 33.05 27.35 34.95 20.35 37.45 12.85 33.65" fill="#63b7cb" fill-rule="evenodd" stroke="none"/>
      <path d="M12.85 33.65 Q20.35 37.45 27.35 34.95 32.7 33.05 34.85 28.45 34.7 32.4 31.85 35.25 28.5 38.65 23.4 38.65 18.35 38.65 14.55 35.25 L12.85 33.65" fill="#328396" fill-rule="evenodd" stroke="none"/>
      <path d="M34.85 28.45 L34.8 27.25 Q34.55 24.15 33.85 21.6 32.3 16.1 29.65 11.05 L26.3 6.9 Q23.9 4.5 20.85 4.5 17.7 4.5 15.75 6.9 14.35 8.65 13.4 11.0 11.7 15.3 10.45 21.25 10.1 24.15 10.3 27.25 10.6 30.8 12.85 33.65 M34.85 28.45 Q34.7 32.4 31.85 35.25 28.5 38.65 23.4 38.65 18.35 38.65 14.55 35.25 L12.85 33.65" fill="none" stroke="#000000" stroke-linecap="round" stroke-linejoin="round" stroke-opacity="0.34901962" stroke-width="0.05"/>
      <path d="M11.8 25.55 Q9.4 26.85 5.1 28.15 5.1 27.45 6.6 26.05 L10.6 22.85 Q11.9 23.85 11.8 25.55" fill="#63b7cb" fill-rule="evenodd" stroke="none"/>
      <path d="M11.3 27.8 L7.6 28.45 Q5.05 29.0 5.1 28.15 9.4 26.85 11.8 25.55 L11.3 27.8" fill="#2a6d80" fill-rule="evenodd" stroke="none"/>
      <path d="M5.1 28.15 Q5.05 29.0 7.6 28.45 L11.3 27.8 M5.1 28.15 Q5.1 27.45 6.6 26.05 L10.6 22.85" fill="none" stroke="#000000" stroke-linecap="round" stroke-linejoin="round" stroke-opacity="0.34901962" stroke-width="0.05"/>
      <path d="M12.7 20.25 Q11.75 17.1 14.65 14.5 17.45 11.9 22.2 11.25 26.9 10.65 30.9 12.4 34.8 14.25 35.55 17.55 36.3 20.6 33.45 23.25 30.75 25.95 26.0 26.6 21.2 27.1 17.2 25.3 13.45 23.5 12.7 20.25" fill="url(#gradient0)" fill-rule="evenodd" stroke="none"/>
      <path d="M26.5 31.1 Q24.1 31.25 22.35 29.7 20.6 28.2 20.6 25.85 20.5 23.5 22.1 21.8 23.8 20.1 26.25 19.9 28.55 19.75 30.35 21.2 32.15 22.75 32.2 25.1 32.25 27.35 30.55 29.05 28.95 30.9 26.5 31.1" fill="url(#gradient1)" fill-rule="evenodd" stroke="none"/>
      <path d="M27.5 11.7 Q28.4 11.0 30.0 11.2 L31.35 11.8 32.7 12.9 Q33.8 14.35 33.75 16.3 L33.5 17.45 Q30.45 19.85 28.4 18.7 26.3 17.45 26.1 16.0 25.85 14.45 26.6 12.75 26.95 12.1 27.5 11.7" fill="#f9f4ec" fill-rule="evenodd" stroke="none"/>
      <path d="M27.5 11.7 Q26.95 12.1 26.6 12.75 25.85 14.45 26.1 16.0 26.3 17.45 28.4 18.7 30.45 19.85 33.5 17.45 33.15 18.85 32.2 19.75 30.75 21.15 28.85 20.9 27.15 20.7 25.95 19.15 24.8 17.5 25.0 15.5 25.05 14.5 25.45 13.75 25.55 13.4 26.35 12.65 L27.5 11.7" fill="#ddc89b" fill-rule="evenodd" stroke="none"/>
      <path d="M33.5 17.45 L33.75 16.3 Q33.8 14.35 32.7 12.9 L31.35 11.8 30.0 11.2 Q28.4 11.0 27.5 11.7 M33.5 17.45 Q33.15 18.85 32.2 19.75 30.75 21.15 28.85 20.9 27.15 20.7 25.95 19.15 24.8 17.5 25.0 15.5 25.05 14.5 25.45 13.75 25.55 13.4 26.35 12.65 L27.5 11.7" fill="none" stroke="#000000" stroke-linecap="round" stroke-linejoin="round" stroke-opacity="0.34901962" stroke-width="0.05"/>
      <path d="M29.75 19.0 L29.2 19.3 Q28.85 19.3 28.55 19.0 28.4 18.75 28.4 18.3 28.4 17.85 28.55 17.55 L29.2 17.2 29.75 17.55 30.0 18.3 29.75 19.0" fill="#000000" fill-rule="evenodd" stroke="none"/>
      <path d="M20.3 25.25 Q19.1 24.7 20.35 23.5 L21.35 23.75 23.4 21.5 Q25.35 19.5 27.3 19.75 L30.55 20.4 37.65 23.65 Q37.5 25.75 34.75 27.45 32.05 29.1 29.75 29.3 L26.8 29.2 25.95 28.75 24.0 27.1 23.7 26.8 23.35 26.4 22.05 24.8 20.75 24.8 20.3 25.25" fill="#64b7cb" fill-rule="evenodd" stroke="none"/>
      <path d="M37.65 23.65 Q39.1 25.55 38.5 27.05 37.85 28.45 34.35 30.4 30.75 32.2 26.6 30.75 L26.25 30.2 23.35 26.4 23.7 26.8 24.0 27.1 25.95 28.75 26.8 29.2 29.75 29.3 Q32.05 29.1 34.75 27.45 37.5 25.75 37.65 23.65" fill="#328396" fill-rule="evenodd" stroke="none"/>
      <path d="M26.25 30.2 L24.65 29.25 Q23.2 28.2 21.95 25.85 21.05 26.8 20.3 25.25 L20.75 24.8 22.05 24.8 23.35 26.4 26.25 30.2" fill="#1e4e59" fill-rule="evenodd" stroke="none"/>
      <path d="M20.3 25.25 Q19.1 24.7 20.35 23.5 L21.35 23.75 23.4 21.5 Q25.35 19.5 27.3 19.75 L30.55 20.4 37.65 23.65 Q39.1 25.55 38.5 27.05 37.85 28.45 34.35 30.4 30.75 32.2 26.6 30.75 L26.25 30.2 24.65 29.25 Q23.2 28.2 21.95 25.85 21.05 26.8 20.3 25.25 M20.75 24.8 L22.05 24.8 23.35 26.4 26.25 30.2" fill="none" stroke="#000000" stroke-linecap="round" stroke-linejoin="round" stroke-opacity="0.34901962" stroke-width="0.05"/>
      <path d="M31.35 21.2 Q32.85 21.95 31.65 22.1 L28.55 22.45 Q27.6 22.9 26.7 23.6 L25.9 24.25 24.7 24.15 Q24.1 23.8 24.15 22.9 25.95 20.05 27.9 20.25 29.8 20.5 31.35 21.2" fill="#cbe7ed" fill-rule="evenodd" stroke="none"/>
      <path d="M24.45 21.75 Q20.6 24.55 18.0 23.15 15.4 21.75 15.1 19.95 14.7 18.2 15.75 16.25 16.0 15.6 16.55 15.2 17.75 14.35 20.0 14.45 L20.6 14.5 Q22.3 15.0 23.45 16.45 24.75 18.0 24.7 20.35 L24.45 21.75" fill="#f9f4ec" fill-rule="evenodd" stroke="none"/>
      <path d="M20.0 14.45 Q17.75 14.35 16.55 15.2 16.0 15.6 15.75 16.25 14.7 18.2 15.1 19.95 15.4 21.75 18.0 23.15 20.6 24.55 24.45 21.75 24.0 23.3 22.75 24.35 21.0 25.95 18.55 25.7 16.35 25.5 14.85 23.6 13.45 21.8 13.6 19.4 13.7 18.25 14.15 17.35 L15.0 16.15 15.6 15.65 16.5 15.0 Q18.0 14.2 19.65 14.35 L20.0 14.45" fill="#ddc89b" fill-rule="evenodd" stroke="none"/>
      <path d="M24.45 21.75 L24.7 20.35 Q24.75 18.0 23.45 16.45 22.3 15.0 20.6 14.5 L20.0 14.45 19.65 14.35 Q18.0 14.2 16.5 15.0 L15.6 15.65 15.0 16.15 14.15 17.35 Q13.7 18.25 13.6 19.4 13.45 21.8 14.85 23.6 16.35 25.5 18.55 25.7 21.0 25.95 22.75 24.35 24.0 23.3 24.45 21.75 Z" fill="none" stroke="#000000" stroke-linecap="round" stroke-linejoin="round" stroke-opacity="0.34901962" stroke-width="0.05"/>
      <path d="M23.9 20.7 L23.35 21.0 Q23.0 21.0 22.7 20.7 22.55 20.45 22.55 20.0 22.55 19.55 22.7 19.25 23.0 18.9 23.35 18.9 L23.9 19.25 24.15 20.0 23.9 20.7" fill="#000000" fill-rule="evenodd" stroke="none"/>
    </g>
    <radialGradient cx="0" cy="0" gradientTransform="matrix(-0.0141, 0.0018, 0.0023, 0.0094, 24.1, 18.9)" gradientUnits="userSpaceOnUse" id="gradient0" r="819.2" spreadMethod="pad">
      <stop offset="0.01568627450980392" stop-color="#2f7a8c" stop-opacity="0.98039216"/>
      <stop offset="1.0" stop-color="#67b6cb" stop-opacity="0.0"/>
    </radialGradient>
    <radialGradient cx="0" cy="0" gradientTransform="matrix(-0.0071, 5.0E-4, 2.0E-4, 0.0069, 26.35, 25.5)" gradientUnits="userSpaceOnUse" id="gradient1" r="819.2" spreadMethod="pad">
      <stop offset="0.4117647058823529" stop-color="#000000" stop-opacity="0.53333336"/>
      <stop offset="1.0" stop-color="#000000" stop-opacity="0.0"/>
    </radialGradient>
    <g id="sprite0" transform="matrix(1.0, 0.0, 0.0, 1.0, 3.55, 2.9)">
      <use height="7.6" transform="matrix(1.0, 0.0, 0.0, 1.0, -3.55, -2.9)" width="6.3" xlink:href="#shape1"/>
    </g>
    <g id="shape1" transform="matrix(1.0, 0.0, 0.0, 1.0, 3.55, 2.9)">
      <path d="M2.2 1.65 L0.85 3.0 1.5 3.0 Q0.75 4.4 1.85 4.55 L1.15 4.65 -0.05 4.5 -0.7 3.55 Q-1.5 3.95 -2.05 2.8 L-2.65 2.75 Q-3.2 2.65 -3.55 1.6 L-3.4 -0.4 Q-1.4 1.4 -1.25 0.05 L-1.15 0.4 Q-0.7 -0.45 -0.4 -1.45 0.2 1.25 2.2 1.65 M0.85 3.0 L0.3 3.1 -0.7 3.55 0.3 3.1 0.85 3.0 M-1.4 2.45 Q-0.65 1.6 -1.15 0.4 -0.65 1.6 -1.4 2.45" fill="#63b7cb" fill-rule="evenodd" stroke="none"/>
      <path d="M-0.4 -1.45 L-0.1 -2.6 Q0.25 -3.55 1.7 -1.55 2.6 -0.3 2.65 0.6 L2.2 1.65 Q0.2 1.25 -0.4 -1.45 M1.5 3.0 L2.25 2.9 Q3.2 2.8 2.4 4.05 L1.85 4.55 Q0.75 4.4 1.5 3.0 M-3.4 -0.4 L-3.5 -1.45 Q-3.7 -2.8 -2.0 -1.05 L-1.25 0.05 Q-1.4 1.4 -3.4 -0.4" fill="#a9d7e2" fill-rule="evenodd" stroke="none"/>
      <path d="M-0.4 -1.45 L-0.1 -2.6 Q0.25 -3.55 1.7 -1.55 2.6 -0.3 2.65 0.6 L2.2 1.65 0.85 3.0 1.5 3.0 2.25 2.9 Q3.2 2.8 2.4 4.05 L1.85 4.55 1.15 4.65 -0.05 4.5 M-3.55 1.6 L-3.4 -0.4 -3.5 -1.45 Q-3.7 -2.8 -2.0 -1.05 L-1.25 0.05 -1.15 0.4 Q-0.7 -0.45 -0.4 -1.45 M-0.7 3.55 L0.3 3.1 0.85 3.0 M-1.15 0.4 Q-0.65 1.6 -1.4 2.45" fill="none" stroke="#000000" stroke-linecap="round" stroke-linejoin="round" stroke-opacity="0.34901962" stroke-width="0.05"/>
      <path d="M0.25 -2.45 L0.85 -2.3 1.6 -1.6 2.0 -0.7 Q2.1 -0.25 1.85 -0.15 L1.25 -0.3 0.5 -1.0 0.15 -1.9 Q0.05 -2.3 0.25 -2.45" fill="#ecf7f9" fill-rule="evenodd" stroke="none"/>
    </g>
  </defs>
</svg>
