<?xml version="1.0" encoding="UTF-8" standalone="no"?>
<svg xmlns:xlink="http://www.w3.org/1999/xlink" height="520.0px" width="520.0px" xmlns="http://www.w3.org/2000/svg">
  <g transform="matrix(10.0, 0.0, 0.0, 10.0, 0.0, 0.0)">
    <use height="52.0" transform="matrix(1.0, 0.0, 0.0, 1.0, 0.0, 0.0)" width="52.0" xlink:href="#sprite0"/>
  </g>
  <defs>
    <g id="sprite0" transform="matrix(1.0, 0.0, 0.0, 1.0, 0.0, 0.0)">
      <use height="52.0" transform="matrix(1.0, 0.0, 0.0, 1.0, 0.0, 0.0)" width="52.0" xlink:href="#sprite1"/>
      <use height="50.55" transform="matrix(1.0, 0.0, 0.0, 1.0, 7.25, 0.7)" width="38.05" xlink:href="#shape1"/>
      <clipPath id="clipPath0" transform="matrix(1.0, 0.0, 0.0, 1.0, 0.0, 0.0)">
        <use height="48.0" transform="matrix(1.0, 0.0, 0.0, 1.0, 7.75, 1.2)" width="35.0" xlink:href="#shape2"/>
      </clipPath>
      <g clip-path="url(#clipPath0)">
        <use height="37.7" transform="matrix(1.0, 0.0, 0.0, 1.0, 12.75, 1.2)" width="37.7" xlink:href="#sprite2"/>
      </g>
    </g>
    <g id="sprite1" transform="matrix(1.0, 0.0, 0.0, 1.0, 0.0, 0.0)">
      <use height="52.0" transform="matrix(1.0, 0.0, 0.0, 1.0, 0.0, 0.0)" width="52.0" xlink:href="#shape0"/>
    </g>
    <g id="shape0" transform="matrix(1.0, 0.0, 0.0, 1.0, 0.0, 0.0)">
      <path d="M52.0 0.0 L52.0 52.0 0.0 52.0 0.0 0.0 52.0 0.0" fill="#ffba2e" fill-opacity="0.0" fill-rule="evenodd" stroke="none"/>
    </g>
    <g id="shape1" transform="matrix(1.0, 0.0, 0.0, 1.0, -7.25, -0.7)">
      <path d="M40.75 38.55 L40.75 38.5 40.65 38.45 Q39.75 37.75 38.85 37.4 L38.6 37.2 38.55 37.05 38.1 36.5 37.9 36.25 37.95 36.15 37.8 35.95 38.1 35.4 38.9 33.75 39.65 32.2 39.8 31.8 39.9 31.55 39.95 31.3 40.0 31.25 39.95 30.25 39.8 30.0 39.65 29.85 39.6 29.75 39.55 29.7 39.5 29.7 38.8 29.3 38.2 29.05 36.65 28.4 35.8 27.7 34.65 26.7 34.5 25.35 33.1 24.7 32.7 24.35 31.6 23.2 Q30.45 21.95 29.65 20.7 L28.55 19.3 Q29.35 15.65 30.9 13.05 L30.95 13.05 31.2 12.25 Q31.35 10.9 29.55 9.75 28.7 9.25 27.7 8.9 L28.35 7.45 28.9 7.55 29.9 7.85 31.35 6.95 32.8 5.5 32.8 5.2 32.8 5.15 Q32.65 4.2 31.9 3.05 L31.2 2.25 30.35 1.85 28.6 1.3 28.4 1.4 27.55 2.0 25.9 3.45 25.85 3.25 25.55 2.65 24.8 1.35 24.1 1.25 21.55 1.5 21.4 1.6 21.2 1.85 20.85 2.3 Q20.35 3.15 20.2 4.45 L20.2 5.0 20.2 5.4 20.3 5.7 20.85 6.15 22.25 6.8 23.45 7.2 23.2 8.25 20.3 8.75 Q18.3 9.5 18.15 10.85 L18.1 11.2 Q17.65 14.1 18.35 18.85 L17.85 19.3 Q15.35 22.3 14.35 25.3 L14.55 27.9 14.45 28.1 14.45 28.15 14.25 28.75 14.05 29.7 13.45 30.75 12.85 31.95 Q12.7 32.3 12.9 32.6 L12.85 32.7 12.85 34.25 12.65 35.9 12.35 36.45 12.05 36.95 11.55 37.55 11.45 37.6 11.1 37.85 11.0 37.85 10.75 38.0 10.7 38.05 9.95 38.4 9.6 38.65 Q8.45 39.05 7.75 39.65 L8.2 39.65 8.65 39.65 9.1 39.75 9.15 39.75 9.15 40.9 Q9.9 41.85 11.9 42.35 L15.0 41.5 16.4 40.65 Q16.9 40.25 17.05 39.25 L17.2 37.2 17.15 36.95 17.1 36.45 17.15 36.4 17.15 36.0 17.65 33.9 17.7 33.55 17.7 33.45 18.3 32.7 19.45 31.5 20.65 31.6 Q21.65 33.55 22.3 34.0 L22.9 34.35 23.2 35.35 23.85 37.25 23.7 38.3 23.65 38.85 23.65 38.95 23.65 39.0 23.65 39.85 23.7 40.85 23.85 43.05 23.95 43.6 24.05 43.9 24.05 45.1 Q24.75 47.35 26.3 48.65 L27.65 48.6 28.05 48.55 28.05 48.7 28.1 49.2 28.6 49.15 29.9 48.95 30.4 48.9 30.6 48.75 30.75 48.7 31.35 48.5 31.45 48.45 31.8 48.3 31.8 48.25 31.45 47.05 31.35 46.75 31.25 46.65 31.1 46.3 31.1 46.25 31.1 46.15 31.15 45.8 31.1 45.7 30.15 44.2 29.95 43.95 29.25 42.9 29.15 42.6 28.9 41.75 28.8 41.3 28.85 39.55 28.95 37.6 28.95 37.5 29.05 37.25 29.15 36.8 29.15 36.75 29.15 35.95 29.05 35.4 28.85 34.35 29.65 34.05 30.45 34.65 32.5 36.3 32.65 36.4 32.55 36.85 32.5 37.15 32.5 37.2 32.5 37.4 32.5 37.5 32.5 37.55 32.5 38.4 32.5 39.35 32.6 41.25 32.65 41.6 32.55 42.1 Q32.45 43.15 33.15 45.0 L34.0 45.55 35.4 46.35 Q36.3 46.8 38.5 47.15 L39.35 46.95 39.4 47.0 39.65 47.4 40.1 47.25 40.15 47.25 41.25 46.6 41.7 46.3 41.85 46.15 41.95 46.1 42.45 45.6 42.55 45.55 42.75 45.25 42.0 44.25 41.8 44.05 41.7 43.95 41.35 43.7 41.2 43.55 Q40.15 42.65 38.95 42.25 L38.75 42.0 38.7 42.0 38.6 41.85 38.15 41.25 38.45 41.3 39.1 41.15 39.3 41.5 39.65 41.4 39.7 41.35 40.7 40.85 41.0 40.65 41.15 40.5 41.3 40.4 41.65 40.1 41.75 40.0 41.95 39.8 41.95 39.75 41.3 39.0 41.1 38.8 41.0 38.8 40.8 38.6 40.75 38.55 Z" fill="none" stroke="#000000" stroke-linecap="round" stroke-linejoin="round" stroke-opacity="0.3019608" stroke-width="1.0"/>
      <path d="M39.9 35.5 Q34.5 32.8 26.85 32.8 19.2 32.8 13.8 35.5 8.4 38.2 8.4 42.0 8.4 45.85 13.8 48.55 19.2 51.25 26.85 51.25 34.5 51.25 39.9 48.55 45.3 45.85 45.3 42.0 45.3 38.2 39.9 35.5" fill="url(#gradient0)" fill-rule="evenodd" stroke="none"/>
      <path d="M37.15 35.35 L34.8 35.4 35.3 36.2 34.95 36.15 34.6 35.95 34.25 35.6 33.95 34.9 Q33.95 34.4 34.5 34.2 L35.3 34.1 35.75 34.45 35.8 34.5 35.8 34.4 35.5 34.1 35.3 33.65 35.2 33.4 35.15 33.3 35.15 33.25 34.3 33.0 Q33.6 32.85 33.1 33.4 L32.75 34.05 32.7 34.1 32.65 34.55 Q32.6 35.1 33.0 35.95 L33.4 36.25 34.15 36.65 35.7 37.05 Q36.8 36.8 37.2 36.35 L37.2 35.75 37.15 35.4 37.15 35.35" fill="#565d28" fill-rule="evenodd" stroke="none"/>
      <path d="M35.8 34.5 L35.75 34.45 35.3 34.1 34.5 34.2 Q33.95 34.4 33.95 34.9 L34.25 35.6 34.6 35.95 34.95 36.15 35.3 36.2 34.8 35.4 37.15 35.35 37.15 35.3 36.8 35.1 36.4 34.95 36.25 34.85 36.1 34.7 35.85 34.5 35.8 34.5" fill="#878a2f" fill-rule="evenodd" stroke="none"/>
      <path d="M37.15 35.35 L37.15 35.4 37.2 35.75 37.2 36.35 Q36.8 36.8 35.7 37.05 L34.15 36.65 33.4 36.25 33.0 35.95 Q32.6 35.1 32.65 34.55 L32.7 34.1 M35.15 33.25 L35.15 33.3 35.2 33.4 35.3 33.65 35.5 34.1 35.8 34.4 35.8 34.5 35.85 34.5 36.1 34.7 36.25 34.85 36.4 34.95 36.8 35.1 37.15 35.3 37.15 35.35 Z" fill="none" stroke="#000000" stroke-linecap="round" stroke-linejoin="round" stroke-opacity="0.3019608" stroke-width="0.05"/>
      <path d="M34.7 35.15 L34.6 35.25 36.2 37.0 36.3 37.2 36.55 37.1 36.1 36.45 35.95 36.35 35.9 36.3 34.7 35.15 M37.45 36.6 L37.5 36.55 37.75 36.35 37.25 35.8 37.05 35.6 36.1 35.05 36.8 35.65 37.05 36.0 37.45 36.6" fill="#baa379" fill-rule="evenodd" stroke="none"/>
      <path d="M34.45 35.15 L34.6 35.05 35.15 34.65 35.45 34.55 35.0 34.55 34.8 34.55 34.45 35.15" fill="#9fa826" fill-rule="evenodd" stroke="none"/>
      <path d="M37.4 35.55 L37.3 35.5 37.2 35.4 37.1 35.35 Q36.45 34.8 35.7 34.6 L35.6 34.6 35.45 34.65 35.2 34.8 Q34.9 34.95 34.7 35.15 L35.9 36.3 35.95 36.35 36.2 36.35 36.6 36.3 37.05 36.0 36.8 35.65 36.1 35.05 37.05 35.6 37.25 35.8 37.4 35.55" fill="#fcf2c9" fill-rule="evenodd" stroke="none"/>
      <path d="M36.55 37.1 L37.15 36.8 37.35 36.7 37.45 36.6 37.05 36.0 36.6 36.3 36.2 36.35 35.95 36.35 36.1 36.45 36.55 37.1 M37.75 36.35 L37.8 36.3 37.95 36.15 37.5 35.65 37.4 35.55 37.25 35.8 37.75 36.35" fill="#cfc399" fill-rule="evenodd" stroke="none"/>
      <path d="M37.4 35.55 L37.3 35.5 37.2 35.4 37.1 35.35 Q36.45 34.8 35.7 34.6 L35.6 34.6 35.45 34.65 35.2 34.8 Q34.9 34.95 34.7 35.15 L34.6 35.25 36.2 37.0 36.3 37.2 36.55 37.1 37.15 36.8 37.35 36.7 37.45 36.6 37.5 36.55 37.75 36.35 37.8 36.3 37.95 36.15 37.5 35.65 37.4 35.55 Z" fill="none" stroke="#000000" stroke-linecap="round" stroke-linejoin="round" stroke-opacity="0.3019608" stroke-width="0.05"/>
      <path d="M35.55 34.5 L35.9 33.9 36.65 32.8 37.3 31.8 37.45 31.45 Q37.95 30.45 37.4 30.05 36.8 29.55 35.9 29.75 35.05 29.95 34.4 30.85 L34.3 30.95 34.3 31.0 34.3 31.05 34.2 31.1 34.2 31.15 34.15 31.2 33.9 31.7 33.6 32.25 32.95 33.6 32.9 33.9 Q32.9 34.25 33.25 34.55 33.75 34.9 34.35 34.9 L35.35 34.65 35.55 34.5" fill="#565d28" fill-rule="evenodd" stroke="none"/>
      <path d="M32.9 33.9 L32.95 33.6 33.6 32.25 33.9 31.7 34.15 31.2 34.2 31.15 34.2 31.1 34.3 31.05 34.3 31.0 34.3 30.95 34.4 30.85 Q35.05 29.95 35.9 29.75 36.8 29.55 37.4 30.05 37.95 30.45 37.45 31.45 L37.3 31.8 36.65 32.8 35.9 33.9 35.55 34.5" fill="none" stroke="#000000" stroke-linecap="round" stroke-linejoin="round" stroke-opacity="0.3019608" stroke-width="0.05"/>
      <path d="M34.25 26.4 L34.0 26.3 32.25 26.35 31.95 26.5 31.65 26.7 Q32.35 27.85 35.7 29.9 36.2 30.2 36.5 29.9 L37.4 29.65 37.9 29.55 37.4 29.05 36.95 28.65 35.8 27.7 34.5 26.6 34.25 26.4" fill="#878a2f" fill-rule="evenodd" stroke="none"/>
      <path d="M31.65 26.7 L31.4 27.1 Q31.05 27.5 31.1 27.95 L31.2 28.4 31.4 28.75 31.7 29.1 32.9 30.0 34.55 31.1 34.85 31.4 34.9 31.4 35.45 31.7 35.5 31.75 36.5 31.8 37.05 31.75 37.8 31.0 38.05 30.1 37.95 29.65 37.9 29.55 37.4 29.65 36.5 29.9 Q36.2 30.2 35.7 29.9 32.35 27.85 31.65 26.7" fill="#565d28" fill-rule="evenodd" stroke="none"/>
      <path d="M31.4 28.75 L31.7 29.1 32.9 30.0 34.55 31.1 34.85 31.4 34.9 31.4 35.45 31.7 M37.9 29.55 L37.4 29.05 36.95 28.65 35.8 27.7 34.5 26.6 34.25 26.4" fill="none" stroke="#000000" stroke-linecap="round" stroke-linejoin="round" stroke-opacity="0.3019608" stroke-width="0.05"/>
      <path d="M18.65 31.4 L18.65 31.35 18.6 31.4 18.65 31.4" fill="#384026" fill-rule="evenodd" stroke="none"/>
      <path d="M18.65 31.4 Q23.85 32.25 25.55 29.0 26.05 27.55 26.2 25.15 L26.05 20.6 24.45 18.75 24.4 18.75 24.25 18.7 Q19.7 17.15 17.85 19.3 15.35 22.3 14.35 25.3 L14.65 29.25 15.05 29.7 Q15.9 30.45 17.9 31.2 L18.6 31.4 18.65 31.35 18.65 31.4" fill="#565d28" fill-rule="evenodd" stroke="none"/>
      <path d="M18.6 31.4 L17.9 31.2 Q15.9 30.45 15.05 29.7 L14.65 29.25 14.35 25.3 Q15.35 22.3 17.85 19.3 19.7 17.15 24.25 18.7 L24.4 18.75 24.45 18.75 26.05 20.6 26.2 25.15 Q26.05 27.55 25.55 29.0 23.85 32.25 18.65 31.4 M18.6 31.4 L18.65 31.4" fill="none" stroke="#000000" stroke-linecap="round" stroke-linejoin="round" stroke-opacity="0.3019608" stroke-width="0.05"/>
      <path d="M22.4 18.2 L20.75 19.65 Q19.5 20.85 19.55 23.25 20.3 27.0 21.2 29.0 L22.35 31.55 Q23.45 32.9 25.7 33.15 30.8 32.65 31.8 31.85 32.95 30.85 33.75 29.25 L34.35 27.7 34.4 27.6 34.45 26.85 34.45 26.8 34.1 25.65 33.3 24.85 31.6 23.2 Q30.45 21.95 29.65 20.7 28.85 19.4 27.85 18.65 26.95 17.85 23.7 17.9 L22.65 18.1 22.4 18.2" fill="#878a2f" fill-rule="evenodd" stroke="none"/>
      <path d="M22.4 18.2 Q22.2 18.25 21.9 18.45 L20.55 19.25 20.45 19.3 19.3 20.45 Q18.2 21.5 18.5 25.1 19.65 29.4 20.55 31.45 21.65 33.55 22.3 34.0 23.3 34.7 24.3 34.9 L26.85 34.8 30.15 33.85 Q31.95 33.15 33.25 31.5 L33.05 31.75 Q33.95 30.35 34.35 27.7 L33.75 29.25 Q32.95 30.85 31.8 31.85 30.8 32.65 25.7 33.15 23.45 32.9 22.35 31.55 L21.2 29.0 Q20.3 27.0 19.55 23.25 19.5 20.85 20.75 19.65 L22.4 18.2" fill="#565d28" fill-rule="evenodd" stroke="none"/>
      <path d="M34.35 27.7 Q33.95 30.35 33.05 31.75 L33.25 31.5 Q31.95 33.15 30.15 33.85 L26.85 34.8 24.3 34.9 Q23.3 34.7 22.3 34.0 21.65 33.55 20.55 31.45 M34.35 27.7 L34.4 27.6 34.45 26.85 34.45 26.8 34.1 25.65 33.3 24.85 31.6 23.2 Q30.45 21.95 29.65 20.7 28.85 19.4 27.85 18.65 26.95 17.85 23.7 17.9 L22.65 18.1 22.4 18.2" fill="none" stroke="#000000" stroke-linecap="round" stroke-linejoin="round" stroke-opacity="0.3019608" stroke-width="0.05"/>
      <path d="M33.65 26.15 L34.5 25.35 32.6 24.45 32.65 25.15 33.65 26.15" fill="#9fa826" fill-rule="evenodd" stroke="none"/>
      <path d="M33.65 26.15 L32.65 25.15 33.2 26.8 34.6 27.05 33.65 26.15" fill="#565d28" fill-rule="evenodd" stroke="none"/>
      <path d="M34.5 25.35 L33.65 26.15 34.6 27.05 34.65 27.1 34.5 25.35" fill="#878a2f" fill-rule="evenodd" stroke="none"/>
      <path d="M32.6 24.45 L34.5 25.35 34.65 27.1" fill="none" stroke="#000000" stroke-linecap="round" stroke-linejoin="round" stroke-opacity="0.3019608" stroke-width="0.05"/>
      <path d="M25.3 14.05 L23.35 13.3 23.3 13.25 25.65 12.3 Q26.95 11.4 25.45 10.6 L24.05 10.15 26.8 9.9 28.3 10.3 28.25 10.15 Q26.95 9.3 24.9 9.1 L21.4 9.45 Q19.9 10.05 19.8 11.05 19.7 12.05 21.05 12.9 L22.7 13.65 24.4 14.0 25.3 14.05" fill="#773531" fill-rule="evenodd" stroke="none"/>
      <path d="M28.3 10.3 L26.8 9.9 24.05 10.15 25.45 10.6 Q26.95 11.4 25.65 12.3 L23.3 13.25 23.35 13.3 25.3 14.05 27.9 13.6 Q29.45 13.05 29.55 12.05 29.65 11.05 28.3 10.3" fill="#bd4741" fill-rule="evenodd" stroke="none"/>
      <path d="M28.3 10.3 Q29.65 11.05 29.55 12.05 29.45 13.05 27.9 13.6 L25.3 14.05 24.4 14.0 22.7 13.65 21.05 12.9 Q19.7 12.05 19.8 11.05 19.9 10.05 21.4 9.45 L24.9 9.1 Q26.95 9.3 28.25 10.15 L28.3 10.3 M21.5 14.2 L21.55 14.2 22.4 14.45 22.7 14.6 24.3 14.8 29.05 14.35 Q30.35 13.85 30.9 13.05 L30.95 13.05 31.2 12.25 Q31.35 10.9 29.55 9.75 27.7 8.6 25.0 8.3 22.3 8.0 20.3 8.75 18.3 9.5 18.15 10.85 L18.1 11.2 Q18.25 12.35 19.8 13.35 L21.5 14.2" fill="#a3ad25" fill-rule="evenodd" stroke="none"/>
      <path d="M30.9 13.05 Q30.35 13.85 29.05 14.35 L24.3 14.8 22.7 14.6 22.4 14.45 21.55 14.2 21.5 14.2 Q21.1 16.85 21.25 21.6 L21.2 21.65 21.25 21.65 Q24.7 22.15 25.9 21.7 27.45 21.1 28.4 20.0 29.2 15.9 30.9 13.05 M21.25 21.6 L21.25 21.65 21.25 21.6" fill="#878a2f" fill-rule="evenodd" stroke="none"/>
      <path d="M21.5 14.2 L19.8 13.35 Q18.25 12.35 18.1 11.2 17.6 14.4 18.5 19.9 19.65 20.95 20.55 21.4 L21.2 21.65 21.25 21.6 Q21.1 16.85 21.5 14.2 M21.25 21.6 L21.25 21.65 21.25 21.6" fill="#565d28" fill-rule="evenodd" stroke="none"/>
      <path d="M18.1 11.2 L18.15 10.85 Q18.3 9.5 20.3 8.75 22.3 8.0 25.0 8.3 27.7 8.6 29.55 9.75 31.35 10.9 31.2 12.25 L30.95 13.05 30.9 13.05 Q29.2 15.9 28.4 20.0 M18.5 19.9 Q17.6 14.4 18.1 11.2 Z" fill="none" stroke="#000000" stroke-linecap="round" stroke-linejoin="round" stroke-opacity="0.3019608" stroke-width="0.05"/>
      <path d="M21.25 12.7 L21.95 12.85 22.7 12.85 23.05 12.45 22.8 12.1 22.05 11.85 21.35 11.95 Q21.0 12.05 20.95 12.25 L21.25 12.7" fill="#bd4741" fill-rule="evenodd" stroke="none"/>
      <path d="M23.8 18.1 L24.7 18.25 25.25 17.1 24.75 16.2 23.85 16.85 23.8 18.1 M21.65 19.4 L21.85 21.35 23.3 21.25 24.0 19.2 22.95 18.1 21.65 19.4 M23.95 20.3 L24.45 21.45 25.5 20.8 25.6 19.25 24.65 18.95 23.95 20.3" fill="#535c27" fill-opacity="0.5019608" fill-rule="evenodd" stroke="none"/>
      <path d="M27.1 22.25 Q28.15 21.1 28.35 20.15 26.2 21.9 21.35 21.75 L27.1 22.25" fill="#6c732a" fill-rule="evenodd" stroke="none"/>
      <path d="M21.55 1.5 Q21.75 2.6 22.3 3.15 L23.05 3.6 23.1 3.65 24.6 3.3 25.4 3.2 25.85 3.25 25.55 2.65 24.8 1.35 24.1 1.25 21.55 1.5 M23.3 12.35 L24.15 12.5 25.7 12.35 26.25 12.0 26.35 11.75 27.65 9.0 27.65 8.95 26.4 8.95 25.75 8.8 25.5 8.65 24.95 9.6 23.3 12.35 M32.8 5.2 L32.8 5.15 Q32.65 4.2 31.9 3.05 L31.2 2.25 30.35 1.85 28.6 1.3 28.4 1.4 27.75 3.65 29.75 5.85 32.8 5.2" fill="#fcf2c9" fill-rule="evenodd" stroke="none"/>
      <path d="M25.85 3.25 L25.4 3.2 24.6 3.3 23.1 3.65 23.05 3.6 22.3 3.15 Q21.75 2.6 21.55 1.5 L21.4 1.6 21.2 1.85 20.85 2.3 Q20.35 3.15 20.2 4.45 L20.2 5.0 20.2 5.4 20.3 5.7 20.85 6.15 22.25 6.8 23.45 7.2 22.25 10.95 22.2 11.2 22.15 11.3 22.7 12.0 23.3 12.35 24.95 9.6 25.5 8.65 25.75 8.8 26.4 8.95 27.65 8.95 28.35 7.45 28.9 7.55 29.9 7.85 31.35 6.95 32.8 5.5 32.8 5.2 29.75 5.85 27.75 3.65 28.4 1.4 27.55 2.0 25.9 3.45 25.85 3.25 M24.85 4.0 L25.9 3.45 24.85 4.0 M23.45 7.2 L23.55 6.6 23.45 7.2 M27.05 7.1 L28.35 7.45 27.05 7.1" fill="#d1c598" fill-rule="evenodd" stroke="none"/>
      <path d="M21.55 1.5 L24.1 1.25 24.8 1.35 25.55 2.65 25.85 3.25 25.9 3.45 24.85 4.0 M21.55 1.5 L21.4 1.6 21.2 1.85 20.85 2.3 Q20.35 3.15 20.2 4.45 L20.2 5.0 20.2 5.4 20.3 5.7 20.85 6.15 22.25 6.8 23.45 7.2 22.25 10.95 22.2 11.2 22.15 11.3 22.7 12.0 23.3 12.35 24.15 12.5 25.7 12.35 26.25 12.0 26.35 11.75 27.65 9.0 27.65 8.95 28.35 7.45 28.9 7.55 29.9 7.85 31.35 6.95 32.8 5.5 32.8 5.2 32.8 5.15 Q32.65 4.2 31.9 3.05 L31.2 2.25 30.35 1.85 28.6 1.3 28.4 1.4 27.55 2.0 25.9 3.45 M23.55 6.6 L23.45 7.2 M28.35 7.45 L27.05 7.1" fill="none" stroke="#000000" stroke-linecap="round" stroke-linejoin="round" stroke-opacity="0.3019608" stroke-width="0.05"/>
      <path d="M9.25 38.9 L9.25 39.0 9.15 39.65 9.15 40.9 Q9.9 41.85 11.9 42.35 L15.0 41.5 16.4 40.65 Q16.9 40.25 17.05 39.25 L17.2 37.2 17.15 36.95 17.0 36.15 16.55 35.75 15.95 35.35 14.65 34.85 Q13.7 34.5 13.2 35.05 L13.0 35.4 12.9 35.5 12.85 35.55 12.35 36.45 12.05 36.95 11.45 37.6 12.0 37.15 Q12.45 36.75 12.8 36.7 13.2 36.65 14.25 37.15 15.25 37.6 15.2 38.35 L14.8 39.45 14.1 40.05 13.5 40.45 13.45 40.45 12.3 40.55 13.9 39.3 9.25 38.9" fill="#8c6b5b" fill-rule="evenodd" stroke="none"/>
      <path d="M11.45 37.6 L11.1 37.85 11.05 37.85 11.0 37.85 10.75 38.0 10.7 38.05 9.95 38.4 9.3 38.8 9.25 38.9 13.9 39.3 12.3 40.55 13.45 40.45 13.5 40.45 14.1 40.05 14.8 39.45 15.2 38.35 Q15.25 37.6 14.25 37.15 13.2 36.65 12.8 36.7 12.45 36.75 12.0 37.15 L11.45 37.6" fill="#b79e81" fill-rule="evenodd" stroke="none"/>
      <path d="M11.45 37.6 L11.1 37.85 11.05 37.85 11.0 37.85 10.75 38.0 10.7 38.05 9.95 38.4 9.3 38.8 9.25 38.9 9.25 39.0 9.15 39.65 9.15 40.9 Q9.9 41.85 11.9 42.35 L15.0 41.5 16.4 40.65 Q16.9 40.25 17.05 39.25 L17.2 37.2 17.15 36.95 17.0 36.15 16.55 35.75 15.95 35.35 14.65 34.85 Q13.7 34.5 13.2 35.05 L13.0 35.4 12.9 35.5 12.85 35.55 12.35 36.45 12.05 36.95 11.45 37.6 Z" fill="none" stroke="#000000" stroke-linecap="round" stroke-linejoin="round" stroke-opacity="0.3019608" stroke-width="0.05"/>
      <path d="M10.1 40.3 L10.95 41.1 Q11.75 40.3 12.6 39.8 L13.9 39.3 Q13.05 38.25 11.8 38.0 L11.65 37.95 11.5 38.0 10.75 38.2 11.75 38.35 12.55 38.9 11.35 39.7 10.1 40.3 M8.65 39.65 L9.1 39.75 9.25 39.8 11.0 38.85 8.65 39.65" fill="#baa379" fill-rule="evenodd" stroke="none"/>
      <path d="M10.75 38.2 L10.3 38.35 10.2 38.4 Q8.65 38.9 7.75 39.65 L8.2 39.65 8.65 39.65 11.0 38.85 9.25 39.8 9.6 39.95 9.9 40.1 10.1 40.3 11.35 39.7 12.55 38.9 11.75 38.35 10.75 38.2" fill="#fcf2c9" fill-rule="evenodd" stroke="none"/>
      <path d="M13.4 37.85 Q12.9 37.7 11.85 37.85 13.5 38.5 13.95 39.0 L13.8 38.25 13.4 37.85" fill="#e3cd9f" fill-rule="evenodd" stroke="none"/>
      <path d="M10.1 40.3 L10.95 41.1 Q11.75 40.3 12.6 39.8 L13.9 39.3 Q13.05 38.25 11.8 38.0 L11.65 37.95 11.5 38.0 10.75 38.2 10.3 38.35 10.2 38.4 Q8.65 38.9 7.75 39.65 L8.2 39.65 8.65 39.65 9.1 39.75 9.25 39.8 9.6 39.95 9.9 40.1 10.1 40.3 Z" fill="none" stroke="#000000" stroke-linecap="round" stroke-linejoin="round" stroke-opacity="0.3019608" stroke-width="0.05"/>
      <path d="M17.1 36.45 L17.15 36.4 17.15 36.0 17.65 33.9 17.7 33.55 17.7 33.45 17.65 33.3 Q17.45 32.25 16.1 31.9 L13.7 31.75 13.15 32.15 12.85 32.7 12.85 34.25 12.65 35.95 12.65 36.0 12.75 36.3 13.05 36.85 13.75 37.1 Q14.75 37.3 15.6 37.1 16.7 36.85 17.1 36.45" fill="#8c6b5b" fill-rule="evenodd" stroke="none"/>
      <path d="M17.1 36.45 L17.15 36.4 17.15 36.0 17.65 33.9 17.7 33.55 17.7 33.45 17.65 33.3 Q17.45 32.25 16.1 31.9 L13.7 31.75 13.15 32.15 12.85 32.7 12.85 34.25 12.65 35.95" fill="none" stroke="#000000" stroke-linecap="round" stroke-linejoin="round" stroke-opacity="0.3019608" stroke-width="0.05"/>
      <path d="M19.4 27.8 L19.1 27.15 18.05 25.9 16.7 25.75 15.6 26.45 15.35 26.7 14.75 27.4 14.75 27.45 14.6 27.7 14.45 28.1 14.45 28.15 14.25 28.75 14.45 29.75 Q14.7 30.7 15.0 30.7 L16.5 30.35 17.95 29.95 18.2 29.85 19.05 29.15 19.4 27.8" fill="#b79e81" fill-rule="evenodd" stroke="none"/>
      <path d="M14.25 28.75 L14.05 29.7 13.45 30.75 12.85 31.95 Q12.7 32.3 12.9 32.6 L13.65 33.55 Q14.2 34.2 15.2 34.6 16.25 34.9 17.3 33.9 L17.4 33.8 18.3 32.7 19.65 31.2 20.0 30.6 19.9 29.55 19.45 28.05 19.4 27.8 19.05 29.15 18.2 29.85 17.95 29.95 16.5 30.35 15.0 30.7 Q14.7 30.7 14.45 29.75 L14.25 28.75" fill="#8c6b5b" fill-rule="evenodd" stroke="none"/>
      <path d="M19.4 27.8 L19.1 27.15 18.05 25.9 16.7 25.75 15.6 26.45 15.35 26.7 14.75 27.4 14.75 27.45 14.6 27.7 14.45 28.1 14.45 28.15 14.25 28.75 14.05 29.7 13.45 30.75 12.85 31.95 M17.3 33.9 L17.4 33.8 18.3 32.7 19.65 31.2 20.0 30.6 19.9 29.55 19.45 28.05 19.4 27.8 Z" fill="none" stroke="#000000" stroke-linecap="round" stroke-linejoin="round" stroke-opacity="0.3019608" stroke-width="0.05"/>
      <path d="M17.05 24.95 L17.05 25.0 16.75 25.6 16.7 25.75 16.3 26.9 17.3 27.0 18.6 25.05 17.05 24.95" fill="#5a6041" fill-rule="evenodd" stroke="none"/>
      <path d="M15.2 26.1 L14.85 26.55 14.7 26.7 14.7 26.95 14.75 27.45 14.85 28.15 15.1 27.9 15.2 27.8 15.45 25.85 15.2 26.1 M20.0 26.8 L18.6 28.55 19.3 29.15 19.7 28.7 20.55 27.95 20.0 26.8" fill="#474a31" fill-rule="evenodd" stroke="none"/>
      <path d="M15.2 26.1 L15.45 25.85 15.2 27.8 15.1 27.9 14.85 28.15 14.75 27.45 14.7 26.95 14.7 26.7 14.85 26.55 15.2 26.1 M17.05 24.95 L17.05 25.0 16.75 25.6 16.7 25.75 16.3 26.9 17.3 27.0 18.6 25.05 17.05 24.95 M20.0 26.8 L18.6 28.55 19.3 29.15 19.7 28.7 20.55 27.95 20.0 26.8" fill="none" stroke="#000000" stroke-linecap="round" stroke-linejoin="round" stroke-opacity="0.3019608" stroke-width="0.05"/>
      <path d="M38.6 37.2 L38.55 37.05 38.1 36.5 37.75 35.85 37.55 35.45 37.5 35.3 37.5 35.25 Q37.3 34.9 36.15 34.8 34.95 34.55 34.2 35.45 33.75 36.0 33.6 36.5 L33.55 36.6 33.5 37.25 Q33.4 38.1 34.0 39.6 L34.7 40.05 35.85 40.65 38.45 41.3 Q40.15 40.95 40.8 40.2 L40.85 39.2 40.8 38.65 40.75 38.55 36.95 38.65 37.75 39.95 37.2 39.85 36.65 39.5 36.0 38.95 Q35.7 38.6 35.6 37.85 35.6 37.05 36.5 36.7 L37.75 36.55 38.5 37.1 38.6 37.2" fill="#565d28" fill-rule="evenodd" stroke="none"/>
      <path d="M40.75 38.55 L40.75 38.5 40.15 38.2 39.55 37.95 39.3 37.75 39.0 37.55 38.6 37.2 38.5 37.1 37.75 36.55 36.5 36.7 Q35.6 37.05 35.6 37.85 35.7 38.6 36.0 38.95 L36.65 39.5 37.2 39.85 37.75 39.95 36.95 38.65 40.75 38.55" fill="#878a2f" fill-rule="evenodd" stroke="none"/>
      <path d="M40.75 38.55 L40.75 38.5 40.15 38.2 39.55 37.95 39.3 37.75 39.0 37.55 38.6 37.2 38.55 37.05 38.1 36.5 37.75 35.85 37.55 35.45 37.5 35.3 37.5 35.25 M33.55 36.6 L33.5 37.25 Q33.4 38.1 34.0 39.6 L34.7 40.05 35.85 40.65 38.45 41.3 Q40.15 40.95 40.8 40.2 L40.85 39.2 40.8 38.65 40.75 38.55 Z" fill="none" stroke="#000000" stroke-linecap="round" stroke-linejoin="round" stroke-opacity="0.3019608" stroke-width="0.05"/>
      <path d="M36.75 38.15 L36.6 38.4 Q37.85 39.4 39.1 41.15 L39.3 41.5 39.65 41.4 38.95 40.35 38.75 40.1 38.65 40.0 36.75 38.15 M41.15 40.5 L41.3 40.4 41.65 40.1 40.85 39.25 40.55 38.95 Q39.8 38.25 38.95 37.95 L40.15 39.05 40.55 39.55 41.15 40.5" fill="#baa379" fill-rule="evenodd" stroke="none"/>
      <path d="M36.35 38.2 L36.55 38.0 37.4 37.35 38.0 37.2 37.1 37.2 36.95 37.2 Q36.4 37.8 36.35 38.2" fill="#9fa826" fill-rule="evenodd" stroke="none"/>
      <path d="M41.1 38.8 L41.0 38.8 40.75 38.6 40.75 38.55 40.65 38.45 Q39.55 37.6 38.35 37.25 L38.2 37.25 37.95 37.35 37.5 37.6 Q37.05 37.8 36.75 38.15 L38.65 40.0 38.75 40.1 39.15 40.15 39.8 40.0 40.55 39.55 40.15 39.05 38.95 37.95 Q39.8 38.25 40.55 38.95 L40.85 39.25 41.1 38.8" fill="#fcf2c9" fill-rule="evenodd" stroke="none"/>
      <path d="M39.65 41.4 L39.7 41.35 40.7 40.85 41.0 40.65 41.15 40.5 40.55 39.55 39.8 40.0 39.15 40.15 38.75 40.1 38.95 40.35 39.65 41.4 M41.65 40.1 L41.75 40.0 41.95 39.8 41.95 39.75 41.3 39.0 41.1 38.8 40.85 39.25 41.65 40.1" fill="#cfc399" fill-rule="evenodd" stroke="none"/>
      <path d="M41.1 38.8 L41.0 38.8 40.75 38.6 40.75 38.55 40.65 38.45 Q39.55 37.6 38.35 37.25 L38.2 37.25 37.95 37.35 37.5 37.6 Q37.05 37.8 36.75 38.15 L36.6 38.4 Q37.85 39.4 39.1 41.15 L39.3 41.5 39.65 41.4 39.7 41.35 40.7 40.85 41.0 40.65 41.15 40.5 41.3 40.4 41.65 40.1 41.75 40.0 41.95 39.8 41.95 39.75 41.3 39.0 41.1 38.8 Z" fill="none" stroke="#000000" stroke-linecap="round" stroke-linejoin="round" stroke-opacity="0.3019608" stroke-width="0.05"/>
      <path d="M37.65 36.15 L38.1 35.4 38.9 33.75 39.65 32.2 39.8 31.75 Q40.35 30.35 39.4 30.1 38.4 29.75 37.1 30.4 35.85 31.05 35.15 32.3 L34.95 32.6 34.9 32.8 34.9 32.85 34.85 32.95 34.55 33.6 34.2 34.35 Q33.65 35.85 33.6 36.3 L33.55 36.4 Q33.5 36.95 34.2 37.2 35.05 37.5 36.0 37.2 L37.4 36.45 37.65 36.15" fill="#565d28" fill-rule="evenodd" stroke="none"/>
      <path d="M33.55 36.4 L33.6 36.3 Q33.65 35.85 34.2 34.35 L34.55 33.6 34.85 32.95 34.9 32.85 34.9 32.8 34.95 32.6 35.15 32.3 Q35.85 31.05 37.1 30.4 38.4 29.75 39.4 30.1 40.35 30.35 39.8 31.75 L39.65 32.2 38.9 33.75 38.1 35.4 37.65 36.15" fill="none" stroke="#000000" stroke-linecap="round" stroke-linejoin="round" stroke-opacity="0.3019608" stroke-width="0.05"/>
      <path d="M34.35 27.45 L34.0 27.45 Q32.9 27.4 32.15 28.4 L31.85 28.8 31.65 29.15 Q32.8 30.15 36.65 31.05 L36.45 31.0 37.05 31.15 37.3 31.2 37.65 31.2 39.15 31.15 Q39.8 30.85 39.65 29.85 L39.95 30.25 39.9 30.2 39.65 29.85 39.6 29.75 39.55 29.7 39.5 29.7 38.8 29.3 38.2 29.05 36.55 28.35 34.7 27.6 34.35 27.45" fill="#878a2f" fill-rule="evenodd" stroke="none"/>
      <path d="M31.65 29.15 L31.5 29.75 Q31.35 30.4 31.55 30.95 L31.85 31.45 32.2 31.85 32.65 32.05 34.35 32.65 35.7 33.05 36.5 33.3 36.95 33.45 37.1 33.5 37.75 33.55 37.8 33.6 38.35 33.5 38.75 33.35 39.35 32.75 39.95 31.3 Q40.2 30.3 39.65 29.85 39.8 30.85 39.15 31.15 L37.65 31.2 37.3 31.2 37.05 31.15 36.45 31.0 36.65 31.05 Q32.8 30.15 31.65 29.15 M39.65 29.85 L39.9 30.2 39.95 30.25 39.65 29.85" fill="#565d28" fill-rule="evenodd" stroke="none"/>
      <path d="M32.2 31.85 L32.65 32.05 34.35 32.65 35.7 33.05 M39.55 29.7 L39.5 29.7 38.8 29.3 38.2 29.05 36.55 28.35 34.7 27.6 34.35 27.45" fill="none" stroke="#000000" stroke-linecap="round" stroke-linejoin="round" stroke-opacity="0.3019608" stroke-width="0.05"/>
      <path d="M37.6 35.25 Q37.55 33.45 36.35 33.4 35.05 33.2 33.85 34.25 32.75 35.25 32.55 36.85 L32.5 37.15 32.5 37.2 32.5 37.4 32.5 37.5 32.5 37.55 32.5 38.4 32.5 39.35 32.65 41.6 Q32.8 42.4 33.85 42.55 34.95 42.65 35.9 42.15 L37.15 41.05 37.4 39.65 37.5 37.6 37.6 35.75 37.6 35.25" fill="#8c6b5b" fill-rule="evenodd" stroke="none"/>
      <path d="M37.6 35.25 L37.6 35.75 37.5 37.6 37.4 39.65 37.15 41.05 35.9 42.15 Q34.95 42.65 33.85 42.55 32.8 42.4 32.65 41.6 L32.5 39.35 32.5 38.4 32.5 37.55 32.5 37.5 32.5 37.4 32.5 37.2 32.5 37.15 32.55 36.85 Q32.75 35.25 33.85 34.25 35.05 33.2 36.35 33.4 37.55 33.45 37.6 35.25 Z" fill="none" stroke="#000000" stroke-linecap="round" stroke-linejoin="round" stroke-opacity="0.3019608" stroke-width="0.05"/>
      <path d="M38.6 41.85 L38.7 42.0 38.6 41.85" fill="#6f5244" fill-rule="evenodd" stroke="none"/>
      <path d="M38.6 41.85 Q38.1 41.35 37.65 41.2 L36.15 41.4 Q35.1 41.75 35.15 42.8 35.15 43.8 35.6 44.25 L36.4 44.95 36.95 45.3 37.0 45.3 37.7 45.45 36.7 43.8 41.25 43.7 41.2 43.65 40.6 43.25 39.85 42.9 39.55 42.7 39.55 42.65 39.5 42.65 39.15 42.45 38.75 42.0 38.7 42.0 38.6 41.85" fill="#b79e81" fill-rule="evenodd" stroke="none"/>
      <path d="M37.35 39.55 Q37.15 39.2 35.75 39.0 34.35 38.7 33.45 39.8 32.9 40.45 32.7 41.1 L32.7 41.25 32.55 42.1 Q32.45 43.15 33.15 45.0 L34.0 45.55 35.4 46.35 Q36.3 46.8 38.5 47.15 40.55 46.7 41.3 45.75 L41.35 44.5 41.3 43.85 41.25 43.7 36.7 43.8 37.7 45.45 37.0 45.3 36.95 45.3 36.4 44.95 35.6 44.25 Q35.15 43.8 35.15 42.8 35.1 41.75 36.15 41.4 L37.65 41.2 Q38.1 41.35 38.6 41.85 L38.1 41.2 37.65 40.35 37.45 39.8 37.35 39.6 37.35 39.55" fill="#8c6b5b" fill-rule="evenodd" stroke="none"/>
      <path d="M37.35 39.55 L37.35 39.6 37.45 39.8 37.65 40.35 38.1 41.2 38.6 41.85 M41.25 43.7 L41.3 43.85 41.35 44.5 41.3 45.75 Q40.55 46.7 38.5 47.15 36.3 46.8 35.4 46.35 L34.0 45.55 33.15 45.0 Q32.45 43.15 32.55 42.1 L32.7 41.25 M38.7 42.0 L38.6 41.85 M41.25 43.7 L41.2 43.65 40.6 43.25 39.85 42.9 39.55 42.7 39.55 42.65 39.5 42.65 39.15 42.45 38.75 42.0 38.7 42.0" fill="none" stroke="#000000" stroke-linecap="round" stroke-linejoin="round" stroke-opacity="0.3019608" stroke-width="0.05"/>
      <path d="M36.6 43.15 L36.4 43.45 Q37.85 44.7 39.4 47.0 L39.65 47.4 40.1 47.25 39.2 45.9 38.95 45.7 38.85 45.55 36.6 43.15 M41.85 46.15 L41.95 46.1 42.45 45.6 41.55 44.55 41.1 44.2 Q40.2 43.35 39.15 42.9 L40.65 44.3 41.1 44.95 41.85 46.15" fill="#baa379" fill-rule="evenodd" stroke="none"/>
      <path d="M41.8 44.05 L41.7 43.95 41.35 43.7 41.2 43.55 Q39.95 42.5 38.45 42.1 L38.3 42.1 38.0 42.2 Q37.8 42.25 37.5 42.45 L36.6 43.15 38.85 45.55 38.95 45.7 39.45 45.7 40.15 45.5 41.1 44.95 40.65 44.3 39.15 42.9 Q40.2 43.35 41.1 44.2 L41.55 44.55 41.8 44.05" fill="#fcf2c9" fill-rule="evenodd" stroke="none"/>
      <path d="M40.1 47.25 L40.15 47.25 41.25 46.6 41.7 46.3 41.85 46.15 41.1 44.95 40.15 45.5 39.45 45.7 38.95 45.7 39.2 45.9 40.1 47.25 M42.45 45.6 L42.55 45.55 42.75 45.25 42.0 44.25 41.8 44.05 41.55 44.55 42.45 45.6" fill="#cfc399" fill-rule="evenodd" stroke="none"/>
      <path d="M36.05 43.2 L36.3 42.95 37.4 42.15 38.0 41.95 37.0 41.95 36.8 42.0 Q36.2 42.7 36.05 43.2" fill="#e3cd9f" fill-rule="evenodd" stroke="none"/>
      <path d="M41.8 44.05 L41.7 43.95 41.35 43.7 41.2 43.55 Q39.95 42.5 38.45 42.1 L38.3 42.1 38.0 42.2 Q37.8 42.25 37.5 42.45 L36.6 43.15 36.4 43.45 Q37.85 44.7 39.4 47.0 L39.65 47.4 40.1 47.25 40.15 47.25 41.25 46.6 41.7 46.3 41.85 46.15 41.95 46.1 42.45 45.6 42.55 45.55 42.75 45.25 42.0 44.25 41.8 44.05 Z" fill="none" stroke="#000000" stroke-linecap="round" stroke-linejoin="round" stroke-opacity="0.3019608" stroke-width="0.05"/>
      <path d="M37.3 33.7 L36.7 32.95 36.2 32.4 34.75 30.95 33.15 29.35 32.85 29.1 32.5 28.95 Q31.35 28.45 30.05 29.2 L29.6 29.45 28.8 30.35 28.6 30.6 Q34.7 35.3 35.35 35.5 L36.75 35.2 Q37.5 34.8 37.3 33.7" fill="#878a2f" fill-rule="evenodd" stroke="none"/>
      <path d="M28.6 30.6 L28.55 30.6 28.3 31.65 28.35 32.35 28.55 32.85 28.95 33.35 30.45 34.65 32.5 36.3 32.85 36.6 33.0 36.7 33.6 37.1 33.75 37.15 35.15 37.25 35.55 37.2 Q36.45 36.95 37.1 36.1 37.8 35.05 37.55 34.2 L37.35 33.75 37.3 33.7 Q37.5 34.8 36.75 35.2 L35.35 35.5 Q34.7 35.3 28.6 30.6" fill="#565d28" fill-rule="evenodd" stroke="none"/>
      <path d="M37.3 33.7 L36.7 32.95 36.2 32.4 34.75 30.95 33.15 29.35 32.85 29.1 M28.55 32.85 L28.95 33.35 30.45 34.65 32.5 36.3 32.85 36.6 33.0 36.7 33.6 37.1 33.75 37.15 35.15 37.25 35.55 37.2 Q36.45 36.95 37.1 36.1 37.8 35.05 37.55 34.2 L37.35 33.75 37.3 33.7 Z" fill="none" stroke="#000000" stroke-linecap="round" stroke-linejoin="round" stroke-opacity="0.3019608" stroke-width="0.05"/>
      <path d="M37.1 37.8 L37.5 35.25 36.4 35.95 36.25 38.2 37.1 37.8" fill="#5a6041" fill-rule="evenodd" stroke="none"/>
      <path d="M33.05 35.8 L33.35 38.15 34.35 38.45 34.35 36.05 33.05 35.8" fill="#474a31" fill-rule="evenodd" stroke="none"/>
      <path d="M33.05 35.8 L34.35 36.05 34.35 38.45 33.35 38.15 33.05 35.8 M37.1 37.8 L36.25 38.2 36.4 35.95 37.5 35.25 37.1 37.8" fill="none" stroke="#000000" stroke-linecap="round" stroke-linejoin="round" stroke-opacity="0.3019608" stroke-width="0.05"/>
      <path d="M28.8 41.6 L28.85 39.55 28.95 37.6 28.9 37.15 Q28.8 35.35 27.55 35.2 L25.1 35.35 Q24.0 35.8 23.9 36.8 L23.7 38.3 23.65 38.85 23.65 38.95 23.65 39.0 23.65 39.85 23.7 40.85 Q23.75 42.65 23.95 43.6 24.2 44.55 25.25 44.5 L27.25 43.95 Q28.25 43.5 28.55 42.9 L28.8 41.6" fill="#565d28" fill-rule="evenodd" stroke="none"/>
      <path d="M28.8 41.6 L28.55 42.9 Q28.25 43.5 27.25 43.95 L25.25 44.5 Q24.2 44.55 23.95 43.6 23.75 42.65 23.7 40.85 L23.65 39.85 23.65 39.0 23.65 38.95 23.65 38.85 23.7 38.3 23.9 36.8 Q24.0 35.8 25.1 35.35 L27.55 35.2 Q28.8 35.35 28.9 37.15 L28.95 37.6 28.85 39.55 28.8 41.6 Z" fill="none" stroke="#000000" stroke-linecap="round" stroke-linejoin="round" stroke-opacity="0.3019608" stroke-width="0.05"/>
      <path d="M28.05 31.4 L28.0 31.4 Q27.35 30.7 26.0 30.85 L25.45 31.0 24.35 31.4 23.15 32.3 23.4 33.05 Q24.0 35.1 25.05 37.0 L27.4 37.05 Q28.5 36.85 28.65 36.5 L28.0 31.4 28.05 31.45 28.05 31.4" fill="#878a2f" fill-rule="evenodd" stroke="none"/>
      <path d="M23.15 32.3 L22.85 32.85 22.7 33.35 22.75 33.85 23.2 35.35 23.9 37.3 23.95 37.65 24.05 37.85 24.35 38.35 24.4 38.4 Q24.75 38.75 25.45 38.9 L25.8 39.0 27.65 38.6 Q28.8 38.0 29.05 37.25 L29.15 36.8 29.15 36.75 29.15 35.95 29.05 35.4 28.75 33.95 28.75 33.75 28.55 33.15 28.3 32.0 28.2 31.7 28.05 31.4 28.05 31.45 28.0 31.4 28.0 31.35 28.0 31.4 28.65 36.5 Q28.5 36.85 27.4 37.05 L25.05 37.0 Q24.0 35.1 23.4 33.05 L23.15 32.3" fill="#565d28" fill-rule="evenodd" stroke="none"/>
      <path d="M22.7 33.35 L22.75 33.85 23.2 35.35 23.9 37.3 23.95 37.65 24.05 37.85 24.35 38.35 M29.15 36.75 L29.15 35.95 29.05 35.4 28.75 33.95 28.75 33.75 28.55 33.15 28.3 32.0 28.2 31.7" fill="none" stroke="#000000" stroke-linecap="round" stroke-linejoin="round" stroke-opacity="0.3019608" stroke-width="0.05"/>
      <path d="M25.6 29.4 L24.3 25.05 23.8 25.05 24.3 29.4 24.05 30.6 26.7 30.4 25.6 29.4" fill="#9fa826" fill-rule="evenodd" stroke="none"/>
      <path d="M24.3 29.4 Q23.0 30.7 22.7 31.35 L25.3 32.5 24.05 30.6 24.3 29.4 M26.7 30.4 L26.85 32.6 27.85 30.9 25.6 29.4 26.7 30.4" fill="#565d28" fill-rule="evenodd" stroke="none"/>
      <path d="M33.7 28.65 L32.45 27.4 32.6 27.4 32.5 27.4 32.45 27.4 31.4 26.85 31.7 27.85 33.6 28.6 33.7 28.65" fill="#565d28" fill-rule="evenodd" stroke="none"/>
      <path d="M32.5 27.4 L33.8 26.8 31.9 26.2 30.05 24.35 29.6 24.5 31.4 26.85 32.45 27.4 32.5 27.4" fill="#9fa826" fill-rule="evenodd" stroke="none"/>
      <path d="M34.65 27.85 L33.8 26.8 32.5 27.4 32.6 27.4 32.45 27.4 33.7 28.65 34.65 27.85" fill="#878a2f" fill-rule="evenodd" stroke="none"/>
      <path d="M33.8 26.8 L34.65 27.85 M33.6 28.6 L33.7 28.65" fill="none" stroke="#000000" stroke-linecap="round" stroke-linejoin="round" stroke-opacity="0.3019608" stroke-width="0.05"/>
      <path d="M28.8 28.55 L28.8 30.45 31.7 30.75 29.45 29.45 28.8 28.55" fill="#565d28" fill-rule="evenodd" stroke="none"/>
      <path d="M29.9 27.65 L26.0 22.3 25.35 22.5 29.05 28.05 28.8 28.55 29.45 29.45 32.15 28.45 32.2 28.45 32.15 28.45 29.9 27.65" fill="#9fa826" fill-rule="evenodd" stroke="none"/>
      <path d="M31.7 30.75 L32.8 30.35 32.15 28.45 29.45 29.45 31.7 30.75" fill="#878a2f" fill-rule="evenodd" stroke="none"/>
      <path d="M32.8 30.35 L32.15 28.45 29.9 27.65" fill="none" stroke="#000000" stroke-linecap="round" stroke-linejoin="round" stroke-opacity="0.3019608" stroke-width="0.05"/>
      <path d="M29.25 42.9 L28.55 42.1 28.45 42.0 27.05 41.9 Q26.65 41.9 25.5 42.45 L25.15 43.65 25.0 44.75 Q25.4 45.8 26.05 46.55 L26.25 46.75 26.45 46.8 27.0 46.85 26.8 44.45 29.3 43.9 31.1 45.7 30.15 44.2 29.95 43.95 29.25 42.9" fill="#878a2f" fill-rule="evenodd" stroke="none"/>
      <path d="M31.1 45.7 L29.3 43.9 26.8 44.45 27.0 46.85 26.45 46.8 26.25 46.75 26.05 46.55 Q25.4 45.8 25.0 44.75 L25.15 43.65 25.5 42.45 Q26.65 41.9 27.05 41.9 L28.45 42.0 28.55 42.1 29.25 42.9 29.15 42.6 28.9 41.75 28.75 41.05 28.7 41.0 Q28.05 40.25 26.65 40.3 25.5 40.6 24.35 42.0 L24.25 42.05 24.25 42.1 24.1 43.0 24.05 45.1 Q24.75 47.35 26.3 48.65 L27.65 48.6 30.4 47.95 31.1 46.15 31.15 45.8 31.1 45.7 M30.4 46.7 L30.4 46.75 30.4 46.7" fill="#565d28" fill-rule="evenodd" stroke="none"/>
      <path d="M31.1 45.7 L31.15 45.8 31.1 46.15 30.4 47.95 27.65 48.6 26.3 48.65 Q24.75 47.35 24.05 45.1 L24.1 43.0 M28.75 41.05 L28.9 41.75 29.15 42.6 29.25 42.9 29.95 43.95 30.15 44.2 31.1 45.7 Z" fill="none" stroke="#000000" stroke-linecap="round" stroke-linejoin="round" stroke-opacity="0.3019608" stroke-width="0.05"/>
      <path d="M30.9 47.15 L30.7 46.65 Q30.15 45.5 29.4 44.75 L30.2 46.6 30.35 47.4 30.6 48.75 30.75 48.7 31.35 48.5 30.9 47.15 M28.15 47.3 L28.1 47.1 27.05 44.35 26.8 44.45 Q27.6 46.2 28.05 48.7 L28.1 49.2 28.6 49.15 28.3 47.55 28.2 47.3 28.15 47.3" fill="#baa379" fill-rule="evenodd" stroke="none"/>
      <path d="M28.25 43.55 L28.9 43.6 28.0 43.25 27.8 43.2 Q26.95 43.65 26.65 44.05 L26.95 43.9 28.25 43.55" fill="#9fa826" fill-rule="evenodd" stroke="none"/>
      <path d="M31.35 46.75 L31.25 46.65 31.1 46.3 31.1 46.25 31.0 46.1 Q30.4 44.9 29.4 44.0 L29.35 43.9 28.7 43.95 27.05 44.35 28.1 47.1 28.15 47.3 28.35 47.35 29.35 47.55 30.35 47.4 30.2 46.6 29.4 44.75 Q30.15 45.5 30.7 46.65 L30.9 47.15 31.35 46.75" fill="#fcf2c9" fill-rule="evenodd" stroke="none"/>
      <path d="M31.35 46.75 L30.9 47.15 31.35 48.5 31.45 48.45 31.8 48.3 31.8 48.25 31.45 47.05 31.35 46.75 M30.35 47.4 L29.35 47.55 28.35 47.35 28.15 47.3 28.2 47.3 28.3 47.55 28.6 49.15 29.9 48.95 30.4 48.9 30.6 48.75 30.35 47.4" fill="#cfc399" fill-rule="evenodd" stroke="none"/>
      <path d="M27.05 44.35 L28.7 43.95 29.35 43.9 29.4 44.0 Q30.4 44.9 31.0 46.1 L31.1 46.25 31.1 46.3 31.25 46.65 31.35 46.75 M27.05 44.35 L26.8 44.45 Q27.6 46.2 28.05 48.7 L28.1 49.2 28.6 49.15 29.9 48.95 30.4 48.9 30.6 48.75 30.75 48.7 31.35 48.5 31.45 48.45 31.8 48.3 31.8 48.25 31.45 47.05 31.35 46.75" fill="none" stroke="#000000" stroke-linecap="round" stroke-linejoin="round" stroke-opacity="0.3019608" stroke-width="0.05"/>
    </g>
    <radialGradient cx="0" cy="0" gradientTransform="matrix(-0.0232, 0.0, 0.0, 0.0116, 26.85, 42.0)" gradientUnits="userSpaceOnUse" id="gradient0" r="819.2" spreadMethod="pad">
      <stop offset="0.13333333333333333" stop-color="#000000" stop-opacity="0.5019608"/>
      <stop offset="1.0" stop-color="#000000" stop-opacity="0.0"/>
    </radialGradient>
    <g id="shape2" transform="matrix(1.0, 0.0, 0.0, 1.0, -7.75, -1.2)">
      <path d="M40.75 38.55 L40.8 38.6 41.0 38.8 41.1 38.8 41.3 39.0 41.95 39.75 41.95 39.8 41.75 40.0 41.65 40.1 41.3 40.4 41.15 40.5 41.0 40.65 40.7 40.85 39.7 41.35 39.65 41.4 39.3 41.5 39.1 41.15 38.45 41.3 38.15 41.25 38.6 41.85 38.7 42.0 38.75 42.0 38.95 42.25 Q40.15 42.65 41.2 43.55 L41.35 43.7 41.7 43.95 41.8 44.05 42.0 44.25 42.75 45.25 42.55 45.55 42.45 45.6 41.95 46.1 41.85 46.15 41.7 46.3 41.25 46.6 40.15 47.25 40.1 47.25 39.65 47.4 39.4 47.0 39.35 46.95 38.5 47.15 Q36.3 46.8 35.4 46.35 L34.0 45.55 33.15 45.0 Q32.45 43.15 32.55 42.1 L32.65 41.6 32.6 41.25 32.5 39.35 32.5 38.4 32.5 37.55 32.5 37.5 32.5 37.4 32.5 37.2 32.5 37.15 32.55 36.85 32.65 36.4 32.5 36.3 30.45 34.65 29.65 34.05 28.85 34.35 29.05 35.4 29.15 35.95 29.15 36.75 29.15 36.8 29.05 37.25 28.95 37.5 28.95 37.6 28.85 39.55 28.8 41.3 28.9 41.75 29.15 42.6 29.25 42.9 29.95 43.95 30.15 44.2 31.1 45.7 31.15 45.8 31.1 46.15 31.1 46.25 31.1 46.3 31.25 46.65 31.35 46.75 31.45 47.05 31.8 48.25 31.8 48.3 31.45 48.45 31.35 48.5 30.75 48.7 30.6 48.75 30.4 48.9 29.9 48.95 28.6 49.15 28.1 49.2 28.05 48.7 28.05 48.55 27.65 48.6 26.3 48.65 Q24.75 47.35 24.05 45.1 L24.05 43.9 23.95 43.6 23.85 43.05 23.7 40.85 23.65 39.85 23.65 39.0 23.65 38.95 23.65 38.85 23.7 38.3 23.85 37.25 23.2 35.35 22.9 34.35 22.3 34.0 Q21.65 33.55 20.65 31.6 L19.45 31.5 18.3 32.7 17.7 33.45 17.7 33.55 17.65 33.9 17.15 36.0 17.15 36.4 17.1 36.45 17.15 36.95 17.2 37.2 17.05 39.25 Q16.9 40.25 16.4 40.65 L15.0 41.5 11.9 42.35 Q9.9 41.85 9.15 40.9 L9.15 39.75 9.1 39.75 8.65 39.65 8.2 39.65 7.75 39.65 Q8.45 39.05 9.6 38.65 L9.95 38.4 10.7 38.05 10.75 38.0 11.0 37.85 11.1 37.85 11.45 37.6 11.55 37.55 12.05 36.95 12.35 36.45 12.65 35.9 12.85 34.25 12.85 32.7 12.9 32.6 Q12.7 32.3 12.85 31.95 L13.45 30.75 14.05 29.7 14.25 28.75 14.45 28.15 14.45 28.1 14.55 27.9 14.35 25.3 Q15.35 22.3 17.85 19.3 L18.35 18.85 Q17.65 14.1 18.1 11.2 L18.15 10.85 Q18.3 9.5 20.3 8.75 L23.2 8.25 23.45 7.2 22.25 6.8 20.85 6.15 20.3 5.7 20.2 5.4 20.2 5.0 20.2 4.45 Q20.35 3.15 20.85 2.3 L21.2 1.85 21.4 1.6 21.55 1.5 24.1 1.25 24.8 1.35 25.55 2.65 25.85 3.25 25.9 3.45 27.55 2.0 28.4 1.4 28.6 1.3 30.35 1.85 31.2 2.25 31.9 3.05 Q32.65 4.2 32.8 5.15 L32.8 5.2 32.8 5.5 31.35 6.95 29.9 7.85 28.9 7.55 28.35 7.45 27.7 8.9 Q28.7 9.25 29.55 9.75 31.35 10.9 31.2 12.25 L30.95 13.05 30.9 13.05 Q29.35 15.65 28.55 19.3 L29.65 20.7 Q30.45 21.95 31.6 23.2 L32.7 24.35 33.1 24.7 34.5 25.35 34.65 26.7 35.8 27.7 36.65 28.4 38.2 29.05 38.8 29.3 39.5 29.7 39.55 29.7 39.6 29.75 39.65 29.85 39.8 30.0 39.95 30.25 40.0 31.25 39.95 31.3 39.9 31.55 39.8 31.8 39.65 32.2 38.9 33.75 38.1 35.4 37.8 35.95 37.95 36.15 37.9 36.25 38.1 36.5 38.55 37.05 38.6 37.2 38.85 37.4 Q39.75 37.75 40.65 38.45 L40.75 38.5 40.75 38.55" fill="#ff0000" fill-rule="evenodd" stroke="none"/>
    </g>
    <g id="sprite2" transform="matrix(1.0, 0.0, 0.0, 1.0, 0.0, 0.0)">
      <use height="37.7" transform="matrix(1.0, 0.0, 0.0, 1.0, 0.0, 0.0)" width="37.7" xlink:href="#shape3"/>
    </g>
    <g id="shape3" transform="matrix(1.0, 0.0, 0.0, 1.0, 0.0, 0.0)">
      <path d="M37.7 18.85 Q37.7 26.65 32.15 32.15 26.65 37.7 18.85 37.7 11.05 37.7 5.5 32.15 0.0 26.65 0.0 18.85 0.0 11.05 5.5 5.5 11.05 0.0 18.85 0.0 26.65 0.0 32.15 5.5 37.7 11.05 37.7 18.85" fill="url(#gradient1)" fill-rule="evenodd" stroke="none"/>
    </g>
    <radialGradient cx="0" cy="0" gradientTransform="matrix(0.0244, 0.0, 0.0, 0.0244, 18.85, 18.85)" gradientUnits="userSpaceOnUse" id="gradient1" r="819.2" spreadMethod="pad">
      <stop offset="0.0" stop-color="#ffffcc"/>
      <stop offset="1.0" stop-color="#ffffcc" stop-opacity="0.0"/>
    </radialGradient>
  </defs>
</svg>
