<?xml version="1.0" encoding="UTF-8" standalone="no"?>
<svg xmlns:xlink="http://www.w3.org/1999/xlink" height="440.0px" width="440.0px" xmlns="http://www.w3.org/2000/svg">
  <g transform="matrix(10.0, 0.0, 0.0, 10.0, 0.0, 0.0)">
    <use height="44.0" transform="matrix(1.0, 0.0, 0.0, 1.0, 0.0, 0.0)" width="44.0" xlink:href="#shape0"/>
  </g>
  <defs>
    <g id="shape0" transform="matrix(1.0, 0.0, 0.0, 1.0, 0.0, 0.0)">
      <path d="M44.0 44.0 L0.0 44.0 0.0 0.0 44.0 0.0 44.0 44.0" fill="#43adca" fill-opacity="0.0" fill-rule="evenodd" stroke="none"/>
      <path d="M25.6 15.35 L25.8 15.1 28.0 14.6 26.0 15.65 25.9 15.7 25.95 15.7 25.6 15.35 M21.65 23.55 L13.75 32.35 13.2 31.95 21.35 22.8 21.65 23.55" fill="#adbac6" fill-rule="evenodd" stroke="none"/>
      <path d="M26.0 15.65 L28.0 14.6 27.2 16.8 26.0 15.65" fill="#ffffff" fill-rule="evenodd" stroke="none"/>
      <path d="M30.15 27.6 L30.6 27.15 30.95 27.3 30.55 27.95 30.15 27.6" fill="#e7e7de" fill-rule="evenodd" stroke="none"/>
      <path d="M28.0 14.6 L27.75 17.2 22.95 22.65 22.7 22.35 22.3 22.0 22.15 21.85 23.05 21.75 27.05 17.05 27.2 16.8 28.0 14.6 M30.6 27.15 L30.15 27.6 29.9 27.35 30.2 27.05 30.6 27.15" fill="#94a5b4" fill-rule="evenodd" stroke="none"/>
      <path d="M25.9 15.7 L26.0 15.65 27.2 16.8 27.05 17.05 23.05 21.75 22.15 21.85 22.05 21.85 22.3 22.0 22.7 22.35 21.65 23.55 21.35 22.8 13.2 31.95 12.65 31.55 21.05 22.05 20.75 21.5 21.15 21.0 21.7 21.5 21.7 21.45 21.65 20.6 25.9 15.7 M21.7 19.75 L21.95 18.95 21.8 18.55 Q21.6 18.3 21.4 18.35 L20.8 18.65 17.8 18.35 20.75 14.45 24.05 17.1 23.25 17.95 24.05 17.1 24.1 17.1 23.25 17.95 21.75 19.7 21.7 19.75 M25.75 25.2 Q24.9 22.35 25.05 22.2 L25.25 21.6 25.0 21.25 24.65 21.15 24.1 21.4 26.25 18.95 29.2 21.85 25.75 25.2 M22.05 21.85 L21.7 21.5 22.05 21.85" fill="#4e606d" fill-rule="evenodd" stroke="none"/>
      <path d="M25.6 15.35 L25.95 15.7 25.9 15.7 21.65 20.6 21.7 21.45 21.7 21.5 21.15 21.0 20.8 20.7 21.7 19.75 21.75 19.7 23.25 17.95 24.1 17.1 24.05 17.1 25.6 15.35 M12.1 31.25 L20.75 21.5 21.05 22.05 12.65 31.55 12.1 31.25" fill="#d7dde3" fill-rule="evenodd" stroke="none"/>
      <path d="M5.2 42.0 L4.7 41.95 4.1 40.5 5.15 38.6 5.5 41.0 5.7 38.1 Q6.8 35.9 7.85 35.2 7.65 38.4 6.9 40.75 L5.2 42.0 M11.5 31.6 L11.75 31.4 13.35 32.55 13.45 32.55 13.45 32.6 13.4 32.6 13.3 32.6 11.4 32.7 11.5 31.6 M13.3 32.6 L13.35 32.55 13.4 32.6 13.35 32.55 13.3 32.6 M8.35 35.5 L8.3 34.65 Q9.4 33.1 10.7 32.6 L10.9 34.4 10.95 34.15 11.4 33.2 Q12.35 33.8 13.4 32.65 L12.4 34.5 12.25 34.75 10.35 35.15 9.85 35.25 9.5 35.25 8.35 35.5 M8.4 37.85 L8.55 36.15 11.8 35.5 10.35 37.4 10.15 37.6 8.4 37.85 M8.35 38.0 L9.65 38.15 7.5 40.35 8.35 38.0 7.95 38.0 8.0 37.95 8.35 38.0" fill="#362f23" fill-rule="evenodd" stroke="none"/>
      <path d="M13.75 32.35 L13.95 32.55 13.9 32.6 13.75 32.9 12.8 34.65 12.25 35.5 10.7 37.5 10.1 38.2 8.0 40.3 7.65 40.55 5.6 42.1 5.2 42.0 6.9 40.75 Q7.65 38.4 7.85 35.2 6.8 35.9 5.7 38.1 L5.5 41.0 5.15 38.6 4.1 40.5 4.7 41.95 3.7 40.4 5.5 37.35 5.65 37.2 Q6.75 35.5 8.1 34.25 L8.2 34.1 Q9.6 32.75 11.15 31.8 L11.5 31.6 11.4 32.7 13.3 32.6 13.4 32.6 13.45 32.6 13.45 32.55 13.35 32.55 11.75 31.4 11.95 31.1 12.1 31.25 12.65 31.55 13.2 31.95 13.75 32.35 M13.4 32.6 L13.4 32.65 13.45 32.6 13.4 32.65 13.4 32.6 M8.35 35.5 L8.35 35.55 9.5 35.25 9.85 35.25 10.35 35.15 12.25 34.75 12.4 34.5 13.4 32.65 Q12.35 33.8 11.4 33.2 L10.95 34.15 10.9 34.4 10.7 32.6 Q9.4 33.1 8.3 34.65 L8.35 35.5 M10.15 37.6 L10.35 37.4 11.8 35.5 8.55 36.15 8.4 37.85 10.15 37.6 M7.5 40.35 L9.65 38.15 8.35 38.0 8.0 37.95 7.95 38.0 8.35 38.0 7.5 40.35" fill="#9c7b46" fill-rule="evenodd" stroke="none"/>
      <path d="M9.5 35.25 L8.35 35.55 8.35 35.5 9.5 35.25" fill="#9c6146" fill-rule="evenodd" stroke="none"/>
      <path d="M28.0 14.6 L25.8 15.1 25.6 15.35 M25.9 15.7 L26.0 15.65 28.0 14.6 27.75 17.2 22.95 22.65 22.7 22.35 22.3 22.0 22.15 21.85 22.05 21.85 M13.95 32.55 L13.9 32.6 13.75 32.9 12.8 34.65 12.25 35.5 10.7 37.5 10.1 38.2 8.0 40.3 7.65 40.55 5.6 42.1 M5.5 37.35 L5.65 37.2 M8.1 34.25 L8.2 34.1 M21.15 21.0 L20.8 20.7 21.7 19.75 21.75 19.7 23.25 17.95 M24.05 17.1 L25.6 15.35 M27.2 16.8 L26.0 15.65 M21.15 21.0 L21.7 21.5 22.05 21.85 M11.75 31.4 L13.35 32.55 13.45 32.55 13.45 32.6 13.4 32.65 13.4 32.6 13.35 32.55 13.3 32.6 11.4 32.7 M8.4 37.85 L10.15 37.6 M7.5 40.35 L8.35 38.0 7.95 38.0 8.0 37.95 8.35 38.0" fill="none" stroke="#000000" stroke-linecap="round" stroke-linejoin="round" stroke-opacity="0.2509804" stroke-width="0.05"/>
      <path d="M22.7 22.35 L21.65 23.55 13.75 32.35 13.95 32.55 M5.6 42.1 L5.2 42.0 4.7 41.95 3.7 40.4 5.5 37.35 M5.65 37.2 Q6.75 35.5 8.1 34.25 M8.2 34.1 Q9.6 32.75 11.15 31.8 L11.5 31.6 11.75 31.4 11.95 31.1 12.1 31.25 20.75 21.5 21.15 21.0 M23.25 17.95 L24.05 17.1 M25.75 25.2 Q24.9 22.35 25.05 22.2 L25.25 21.6 25.0 21.25 24.65 21.15 24.1 21.4 M12.1 31.25 L12.65 31.55 13.2 31.95 13.75 32.35" fill="none" stroke="#000000" stroke-linecap="round" stroke-linejoin="round" stroke-opacity="0.2509804" stroke-width="0.05"/>
      <path d="M39.45 11.9 Q38.8 12.55 38.6 12.95 38.2 13.6 38.5 14.05 39.25 15.15 39.4 17.3 39.4 19.25 38.75 21.5 38.15 23.5 36.95 25.55 35.8 27.6 34.2 29.35 L33.5 30.2 32.95 30.05 32.6 30.35 32.9 30.75 32.4 31.2 31.15 30.3 31.65 31.85 30.9 32.45 29.9 33.2 29.8 31.65 28.55 30.55 28.1 31.15 27.9 32.9 28.7 33.85 27.95 34.15 26.8 32.65 26.15 34.9 23.4 35.3 Q21.45 35.25 19.95 34.3 19.45 33.95 18.9 35.0 18.5 35.1 18.05 35.8 L16.95 34.9 Q17.65 33.65 18.8 32.25 L21.4 29.6 24.1 27.0 26.35 24.5 29.45 21.55 29.4 21.5 40.1 9.55 40.85 10.6 39.5 11.85 39.45 11.9 M37.1 18.0 L37.75 17.3 37.35 16.1 36.45 15.9 37.1 18.0 M24.4 33.9 Q22.15 32.3 23.9 30.3 25.4 28.7 29.45 28.6 L32.25 28.65 34.05 28.6 Q34.85 28.4 35.55 27.4 36.2 26.5 36.55 25.2 37.05 23.75 37.15 22.2 37.25 20.45 36.85 18.9 36.4 17.7 35.6 17.5 34.7 17.25 33.8 18.35 34.7 17.25 35.6 17.5 36.4 17.7 36.85 18.9 37.25 20.45 37.15 22.2 37.05 23.75 36.55 25.2 36.2 26.5 35.55 27.4 34.85 28.4 34.05 28.6 L32.25 28.65 29.45 28.6 Q25.4 28.7 23.9 30.3 22.15 32.3 24.4 33.9 M33.0 26.7 L34.95 25.7 35.25 23.9 33.05 22.15 31.75 23.9 33.0 26.7 M40.15 10.0 L17.3 34.8 40.15 10.0" fill="#adbac6" fill-rule="evenodd" stroke="none"/>
      <path d="M39.45 11.9 L39.1 12.55 Q38.65 13.2 39.05 13.75 39.95 15.05 40.2 17.5 40.4 19.7 39.85 22.2 L38.6 22.4 39.5 23.2 38.1 26.6 Q36.85 28.8 35.25 30.6 L34.9 30.95 33.65 32.3 32.4 31.2 32.9 30.75 33.35 31.2 33.9 30.35 33.5 30.2 34.2 29.35 Q35.8 27.6 36.95 25.55 38.15 23.5 38.75 21.5 39.4 19.25 39.4 17.3 39.25 15.15 38.5 14.05 38.2 13.6 38.6 12.95 38.8 12.55 39.45 11.9 M31.65 31.85 L32.15 33.5 31.75 33.85 Q29.75 35.2 27.65 35.95 25.45 36.65 23.4 36.45 21.1 36.35 19.4 35.2 L19.35 35.2 18.9 35.0 Q19.45 33.95 19.95 34.3 21.45 35.25 23.4 35.3 L26.15 34.9 26.8 32.65 27.95 34.15 28.7 33.85 29.1 34.45 29.95 33.95 29.9 33.2 30.9 32.45 31.65 31.85" fill="#ffffff" fill-rule="evenodd" stroke="none"/>
      <path d="M37.1 18.0 L36.45 15.9 37.35 16.1 37.75 17.3 37.1 18.0 M33.0 26.7 L31.75 23.9 33.05 22.15 35.25 23.9 34.95 25.7 33.0 26.7 M28.7 33.85 L27.9 32.9 28.1 31.15 28.55 30.55 29.8 31.65 29.9 33.2 28.7 33.85" fill="#94a5b4" fill-rule="evenodd" stroke="none"/>
      <path d="M28.7 33.85 L29.9 33.2 29.95 33.95 29.1 34.45 28.7 33.85" fill="#e7e7de" fill-rule="evenodd" stroke="none"/>
      <path d="M32.4 31.2 L33.65 32.3 34.9 30.95 35.25 30.6 Q36.85 28.8 38.1 26.6 L39.5 23.2 38.6 22.4 39.85 22.2 Q40.4 19.7 40.2 17.5 39.95 15.05 39.05 13.75 38.65 13.2 39.1 12.55 L39.45 11.9 M32.4 31.2 L31.15 30.3 31.65 31.85 32.15 33.5 31.75 33.85 Q29.75 35.2 27.65 35.95 25.45 36.65 23.4 36.45 21.1 36.35 19.4 35.2 L19.35 35.2 18.9 35.0 Q18.5 35.1 18.05 35.8 L16.95 34.9 Q17.65 33.65 18.8 32.25 L21.4 29.6 24.1 27.0 26.35 24.5 M29.4 21.5 L40.1 9.55 40.85 10.6 39.5 11.85 39.45 11.9 M33.8 18.35 Q34.7 17.25 35.6 17.5 36.4 17.7 36.85 18.9 37.25 20.45 37.15 22.2 37.05 23.75 36.55 25.2 36.2 26.5 35.55 27.4 34.85 28.4 34.05 28.6 L32.25 28.65 29.45 28.6 Q25.4 28.7 23.9 30.3 22.15 32.3 24.4 33.9" fill="none" stroke="#000000" stroke-linecap="round" stroke-linejoin="round" stroke-opacity="0.2509804" stroke-width="0.05"/>
      <path d="M17.3 34.8 L40.15 10.0" fill="none" stroke="#ffffff" stroke-linecap="round" stroke-linejoin="round" stroke-width="0.05"/>
      <path d="M40.9 10.5 L39.55 11.85 39.45 11.9 39.1 12.5 Q38.7 13.15 39.05 13.7 40.0 15.05 40.25 17.5 40.45 19.5 39.95 21.75 L39.85 22.15 38.65 22.4 39.1 22.8 Q38.55 26.15 33.15 31.7 L31.2 30.25 31.95 32.75 Q29.5 34.8 27.65 35.25 L24.0 35.8 19.4 35.15 19.35 35.15 Q19.15 35.0 18.95 35.0 18.5 35.1 18.1 35.75 L16.9 34.95 Q17.65 33.6 18.85 32.2 L21.45 29.55 24.15 27.0 26.35 24.5 29.55 21.5 29.5 21.45 40.15 9.55 40.9 10.5 M33.4 31.2 L33.9 30.3 33.0 30.05 32.6 30.4 33.4 31.2" fill="url(#gradient0)" fill-rule="evenodd" stroke="none"/>
      <path d="M11.05 12.5 L11.4 11.9 11.85 12.15 12.1 11.75 11.85 11.25 12.65 10.45 Q14.2 8.6 16.05 7.25 17.95 5.8 19.9 4.95 22.0 4.05 23.95 3.9 26.05 3.75 27.25 4.3 27.75 4.6 28.3 4.1 L29.3 3.1 29.35 3.05 30.45 1.55 31.5 2.2 21.0 14.2 18.4 17.65 16.25 20.2 13.95 23.25 11.65 26.05 9.2 28.25 8.25 27.25 Q8.85 26.75 8.85 26.35 9.9 25.55 9.45 25.15 8.4 23.85 8.1 21.9 7.85 20.55 8.05 19.1 L10.3 18.2 8.6 17.25 8.9 16.45 9.9 17.15 11.55 16.75 12.15 16.15 10.85 15.1 9.35 15.2 10.0 14.1 10.45 13.3 12.1 13.6 11.05 12.5 M9.35 20.75 Q11.2 22.75 12.95 20.7 14.35 19.1 14.0 15.05 L13.6 12.25 13.35 10.5 Q13.55 9.7 14.4 8.9 15.2 8.1 16.5 7.55 17.85 6.9 19.4 6.65 L22.7 6.55 Q23.9 6.85 24.25 7.65 24.55 8.45 23.55 9.45 24.55 8.45 24.25 7.65 23.9 6.85 22.7 6.55 L19.4 6.65 Q17.85 6.9 16.5 7.55 15.2 8.1 14.4 8.9 13.55 9.7 13.35 10.5 L13.6 12.25 14.0 15.05 Q14.35 19.1 12.95 20.7 11.2 22.75 9.35 20.75 M25.4 5.65 L24.15 5.5 23.55 6.15 25.65 6.6 25.4 5.65 M18.0 8.7 L16.15 9.25 15.4 11.3 18.35 12.2 20.0 10.75 18.0 8.7" fill="#adbac6" fill-rule="evenodd" stroke="none"/>
      <path d="M11.05 12.5 L9.8 11.4 10.95 9.95 11.25 9.55 Q12.9 7.7 14.9 6.3 L18.1 4.5 19.05 5.25 19.1 4.0 Q21.4 3.1 23.65 3.05 26.1 3.0 27.5 3.75 L28.8 3.6 29.3 3.1 28.3 4.1 Q27.75 4.6 27.25 4.3 26.05 3.75 23.95 3.9 22.0 4.05 19.9 4.95 17.95 5.8 16.05 7.25 14.2 8.6 12.65 10.45 L11.85 11.25 11.75 10.9 10.9 11.55 11.4 11.9 11.05 12.5 M8.85 26.35 L8.75 25.9 8.75 25.85 Q7.35 24.3 6.95 22.05 6.5 20.05 6.95 17.75 7.35 15.6 8.5 13.5 L8.75 13.05 10.45 13.3 10.0 14.1 9.35 15.2 8.6 15.25 8.25 16.1 8.9 16.45 8.6 17.25 10.3 18.2 8.05 19.1 Q7.85 20.55 8.1 21.9 8.4 23.85 9.45 25.15 9.9 25.55 8.85 26.35" fill="#ffffff" fill-rule="evenodd" stroke="none"/>
      <path d="M9.35 15.2 L10.85 15.1 12.15 16.15 11.55 16.75 9.9 17.15 8.9 16.45 9.35 15.2 M18.0 8.7 L20.0 10.75 18.35 12.2 15.4 11.3 16.15 9.25 18.0 8.7 M25.4 5.65 L25.65 6.6 23.55 6.15 24.15 5.5 25.4 5.65" fill="#94a5b4" fill-rule="evenodd" stroke="none"/>
      <path d="M8.9 16.45 L8.25 16.1 8.6 15.25 9.35 15.2 8.9 16.45" fill="#e7e7de" fill-rule="evenodd" stroke="none"/>
      <path d="M29.3 3.1 L28.8 3.6 27.5 3.75 Q26.1 3.0 23.65 3.05 21.4 3.1 19.1 4.0 L19.05 5.25 18.1 4.5 14.9 6.3 Q12.9 7.7 11.25 9.55 L10.95 9.95 9.8 11.4 11.05 12.5 M29.3 3.1 L29.35 3.05 30.45 1.55 31.5 2.2 21.0 14.2 M18.4 17.65 L16.25 20.2 13.95 23.25 11.65 26.05 9.2 28.25 8.25 27.25 Q8.85 26.75 8.85 26.35 L8.75 25.9 8.75 25.85 Q7.35 24.3 6.95 22.05 6.5 20.05 6.95 17.75 7.35 15.6 8.5 13.5 L8.75 13.05 10.45 13.3 12.1 13.6 11.05 12.5" fill="none" stroke="#000000" stroke-linecap="round" stroke-linejoin="round" stroke-opacity="0.2509804" stroke-width="0.05"/>
      <path d="M23.55 9.45 Q24.55 8.45 24.25 7.65 23.9 6.85 22.7 6.55 L19.4 6.65 Q17.85 6.9 16.5 7.55 15.2 8.1 14.4 8.9 13.55 9.7 13.35 10.5 L13.6 12.25 14.0 15.05 Q14.35 19.1 12.95 20.7 11.2 22.75 9.35 20.75" fill="none" stroke="#ffffff" stroke-linecap="round" stroke-linejoin="round" stroke-width="0.05"/>
      <path d="M30.5 1.55 L29.4 3.05 29.3 3.1 28.75 3.6 27.55 3.7 Q26.15 3.0 23.6 3.1 21.65 3.1 19.5 3.9 19.25 3.9 19.1 4.05 L19.0 5.25 18.5 4.8 Q15.25 5.8 10.4 11.8 L12.15 13.6 9.55 13.15 Q7.85 15.85 7.65 17.7 7.4 19.65 7.5 21.4 7.6 23.1 8.75 25.85 L8.7 25.9 8.9 26.35 8.25 27.25 9.25 28.25 11.7 26.05 14.0 23.15 16.25 20.15 18.4 17.7 21.0 14.2 21.05 14.2 31.55 2.2 30.5 1.55 M10.95 11.5 L11.75 10.85 12.15 11.75 11.85 12.2 10.95 11.5" fill="url(#gradient1)" fill-rule="evenodd" stroke="none"/>
    </g>
    <radialGradient cx="0" cy="0" gradientTransform="matrix(0.0068, 0.0211, -0.0211, 0.0068, 22.4, 24.45)" gradientUnits="userSpaceOnUse" id="gradient0" r="819.2" spreadMethod="pad">
      <stop offset="0.0" stop-color="#000000" stop-opacity="0.6"/>
      <stop offset="1.0" stop-color="#333333" stop-opacity="0.0"/>
    </radialGradient>
    <radialGradient cx="0" cy="0" gradientTransform="matrix(-0.0218, -0.0041, -0.0041, 0.0218, 18.9, 21.6)" gradientUnits="userSpaceOnUse" id="gradient1" r="819.2" spreadMethod="pad">
      <stop offset="0.0" stop-color="#000000" stop-opacity="0.6"/>
      <stop offset="1.0" stop-color="#333333" stop-opacity="0.0"/>
    </radialGradient>
  </defs>
</svg>
