<?xml version="1.0" encoding="UTF-8" standalone="no"?>
<svg xmlns:xlink="http://www.w3.org/1999/xlink" height="440.0px" width="440.0px" xmlns="http://www.w3.org/2000/svg">
  <g transform="matrix(10.0, 0.0, 0.0, 10.0, 0.0, 0.0)">
    <use height="44.0" transform="matrix(1.0, 0.0, 0.0, 1.0, 0.0, 0.0)" width="44.0" xlink:href="#shape0"/>
  </g>
  <defs>
    <g id="shape0" transform="matrix(1.0, 0.0, 0.0, 1.0, 0.0, 0.0)">
      <path d="M44.0 44.0 L0.0 44.0 0.0 0.0 44.0 0.0 44.0 44.0" fill="#43adca" fill-opacity="0.0" fill-rule="evenodd" stroke="none"/>
      <path d="M40.85 15.25 L40.85 15.35 39.9 16.25 39.75 16.25 Q40.35 15.8 39.45 14.15 37.8 11.5 37.4 11.9 37.35 11.35 37.45 10.9 40.0 12.75 40.85 15.25" fill="#333d37" fill-rule="evenodd" stroke="none"/>
      <path d="M37.45 10.9 L38.1 10.85 41.3 13.7 Q40.8 15.05 40.85 15.25 40.0 12.75 37.45 10.9 M39.9 16.25 Q39.75 16.35 39.9 16.35 L39.4 16.35 39.75 16.25 39.9 16.25" fill="#57665e" fill-rule="evenodd" stroke="none"/>
      <path d="M40.85 15.35 Q41.1 16.25 40.6 17.05 L40.25 17.2 40.65 18.2 Q40.25 19.2 39.6 19.4 L39.5 18.85 40.15 18.05 38.75 17.8 39.7 17.4 37.75 17.1 38.8 16.7 Q39.1 16.5 39.5 16.7 L39.9 16.35 Q39.75 16.35 39.9 16.25 L40.85 15.35 M18.25 13.7 L19.4 12.4 22.1 8.6 22.85 7.35 23.35 6.35 23.4 6.15 24.5 5.95 25.9 6.05 26.55 6.2 26.8 7.2 24.55 7.05 25.65 7.4 23.5 8.7 23.6 8.0 22.4 10.55 22.55 9.05 19.05 14.0 18.3 13.9 18.25 13.7 M35.55 9.6 L36.6 9.75 36.85 10.5 37.25 10.6 37.45 10.9 Q37.35 11.35 37.4 11.9 37.8 11.5 39.45 14.15 L39.4 16.35 38.0 13.25 35.0 12.75 36.35 11.95 36.65 11.15 35.45 12.3 36.1 10.75 36.05 10.2 35.0 10.25 33.2 11.7 34.2 10.55 33.4 10.4 Q31.3 10.3 31.6 11.05 L29.05 11.25 30.25 10.75 28.7 10.05 29.5 9.75 28.9 9.1 30.15 8.95 30.4 8.65 30.2 8.1 33.6 10.2 35.0 9.85 Q35.2 9.6 35.55 9.6 M40.25 17.2 L39.5 16.7 40.25 17.2 M36.85 10.5 Q36.4 10.45 36.1 10.75 36.4 10.45 36.85 10.5 M34.9 14.55 L34.75 14.75 34.3 15.35 33.9 14.35 32.75 13.65 33.7 13.55 32.8 12.85 34.4 13.4 34.9 14.55" fill="#c49556" fill-rule="evenodd" stroke="none"/>
      <path d="M30.6 6.35 L30.55 5.8 Q31.95 6.3 32.3 5.5 L33.45 8.15 Q33.7 7.6 34.8 8.3 L35.55 9.6 Q35.2 9.6 35.0 9.85 L33.7 9.25 34.25 8.7 33.15 8.85 32.45 6.9 32.3 7.3 Q31.45 6.05 30.6 6.35 M26.45 5.7 L25.55 4.25 27.0 4.5 29.15 6.15 29.35 7.3 29.8 7.1 29.45 7.85 29.35 7.8 Q27.95 5.95 26.45 5.7 M22.75 11.35 Q22.15 10.5 23.6 9.15 25.9 7.3 27.1 8.25 L27.15 8.7 28.0 8.95 27.8 9.75 27.15 9.2 24.85 10.4 24.8 9.8 Q22.9 9.6 22.75 11.35" fill="#c99858" fill-rule="evenodd" stroke="none"/>
      <path d="M38.15 19.7 L37.75 19.9 36.75 19.9 37.3 19.5 37.1 18.45 Q36.75 18.0 35.95 18.25 L35.7 19.05 Q34.85 17.75 35.45 17.3 L35.8 17.1 35.25 14.95 34.75 14.75 34.9 14.55 34.4 13.4 32.8 12.85 33.7 13.55 32.75 13.65 33.9 14.35 34.3 15.35 34.1 15.5 33.5 15.65 33.85 15.35 33.6 14.95 32.6 14.6 Q32.1 14.55 32.0 14.85 L31.95 15.45 31.45 14.75 31.4 14.25 Q30.95 14.7 30.35 14.7 L30.05 14.5 30.6 14.0 30.2 13.65 29.85 13.3 28.85 13.25 28.75 14.05 28.55 13.65 28.4 13.2 Q28.1 12.6 28.45 12.15 L27.9 11.35 27.1 11.15 26.9 11.6 26.2 11.9 26.2 11.3 25.75 11.0 25.4 11.25 25.05 11.5 Q24.7 11.9 24.8 12.4 L24.3 12.6 23.95 12.3 23.55 11.95 Q23.95 10.85 24.85 10.4 23.95 10.85 23.55 11.95 L23.95 12.3 23.55 12.75 23.35 12.95 21.9 14.95 21.95 15.6 21.7 15.6 21.2 16.0 20.75 15.55 20.8 15.4 20.85 15.35 20.6 15.05 19.9 14.1 19.05 14.0 19.9 14.1 20.6 15.05 20.0 14.45 19.85 14.7 19.65 14.35 18.4 14.4 18.35 14.4 18.3 13.9 19.05 14.0 22.55 9.05 22.4 10.55 23.6 8.0 23.5 8.7 25.65 7.4 24.55 7.05 26.8 7.2 26.55 6.2 26.45 5.7 Q27.95 5.95 29.35 7.8 L27.75 6.9 27.1 6.7 27.75 6.9 29.35 7.8 29.45 7.85 29.8 7.1 29.35 7.3 29.15 6.15 30.6 6.35 Q31.45 6.05 32.3 7.3 L32.45 6.9 33.15 8.85 34.25 8.7 33.7 9.25 35.0 9.85 33.6 10.2 30.2 8.1 30.4 8.65 30.15 8.95 28.9 9.1 29.5 9.75 28.7 10.05 30.25 10.75 29.05 11.25 31.6 11.05 Q31.3 10.3 33.4 10.4 L34.2 10.55 33.2 11.7 35.0 10.25 36.05 10.2 36.1 10.75 35.45 12.3 36.65 11.15 36.35 11.95 35.0 12.75 38.0 13.25 39.4 16.35 39.45 14.15 Q40.35 15.8 39.75 16.25 L39.4 16.35 39.9 16.35 39.5 16.7 Q39.1 16.5 38.8 16.7 L37.75 17.1 39.7 17.4 38.75 17.8 40.15 18.05 39.5 18.85 39.5 18.3 38.8 18.35 Q38.25 18.5 37.85 19.0 L38.15 19.7 M19.4 12.4 L18.65 11.8 19.2 12.0 Q20.1 11.55 19.95 10.55 L19.55 9.85 20.0 10.45 19.6 9.5 20.85 8.35 20.5 9.05 22.1 8.6 19.4 12.4 M31.15 8.45 Q31.75 9.2 32.35 9.3 32.7 9.45 32.9 9.1 L32.4 8.35 31.65 7.5 Q30.75 7.4 30.95 8.15 L31.15 8.45 M31.0 7.05 L31.65 7.5 31.0 7.05 M21.2 16.0 L20.8 15.4 21.2 16.0 M27.15 10.7 L27.1 11.15 27.15 10.7 M24.85 10.4 L27.15 9.2 27.8 9.75 28.0 8.95 27.15 8.7 27.1 8.25 Q25.9 7.3 23.6 9.15 22.15 10.5 22.75 11.35 22.9 9.6 24.8 9.8 L24.85 10.4 M27.95 8.2 Q27.5 7.35 27.75 6.9 27.5 7.35 27.95 8.2 M31.85 13.35 Q31.45 13.6 31.4 14.25 31.45 13.6 31.85 13.35 M36.45 16.4 L35.8 17.1 36.45 16.4" fill="#533224" fill-rule="evenodd" stroke="none"/>
      <path d="M32.4 8.35 L32.9 9.1 Q32.7 9.45 32.35 9.3 31.75 9.2 31.15 8.45 32.2 9.15 32.4 8.35" fill="#ff3100" fill-rule="evenodd" stroke="none"/>
      <path d="M31.15 8.45 L30.95 8.15 Q30.75 7.4 31.65 7.5 L32.4 8.35 Q32.2 9.15 31.15 8.45" fill="#ff8466" fill-rule="evenodd" stroke="none"/>
      <path d="M28.25 3.1 Q28.45 3.15 28.7 3.35 L27.65 4.65 29.0 3.85 Q29.8 4.25 29.85 4.8 L29.15 6.15 27.0 4.5 28.25 3.1 M25.9 6.05 L26.45 5.7 26.55 6.2 25.9 6.05 M20.6 15.05 L20.85 15.35 20.8 15.4 20.6 15.05" fill="#8f700e" fill-rule="evenodd" stroke="none"/>
      <path d="M4.2 41.3 L3.7 40.95 3.2 39.65 6.2 37.0 8.5 33.3 6.0 36.45 Q4.6 38.95 2.85 38.75 L2.65 38.7 2.35 38.85 2.15 38.45 4.9 36.9 8.05 32.7 12.05 26.1 16.05 19.7 16.25 19.3 18.1 16.25 19.05 15.9 19.65 14.35 19.85 14.7 18.6 17.0 17.8 19.75 16.5 20.3 Q7.0 35.7 16.05 23.15 L8.6 35.95 8.55 35.15 4.2 41.3 M24.5 5.95 L25.55 4.25 26.55 2.45 27.0 2.65 26.7 3.55 27.15 2.85 Q27.75 2.8 28.25 3.1 L27.0 4.5 25.55 4.25 26.45 5.7 25.9 6.05 24.5 5.95 M28.7 3.35 Q28.55 3.95 29.0 3.85 L27.65 4.65 28.7 3.35 M8.8 33.65 L8.5 33.3 8.8 33.65" fill="#765b0c" fill-rule="evenodd" stroke="none"/>
      <path d="M18.3 13.9 L18.25 13.9 18.25 13.7 18.3 13.9 M18.65 11.8 L18.05 11.7 19.1 11.25 Q19.3 10.8 19.05 10.3 L19.0 10.2 Q18.5 9.7 18.2 9.8 L17.6 10.35 Q17.25 9.8 17.5 9.35 L18.15 8.7 19.3 8.75 22.85 7.35 22.1 8.6 20.5 9.05 20.85 8.35 19.6 9.5 20.0 10.45 19.55 9.85 19.95 10.55 Q20.1 11.55 19.2 12.0 L18.65 11.8" fill="#88683c" fill-rule="evenodd" stroke="none"/>
      <path d="M37.75 19.9 L37.35 20.5 36.2 20.35 36.75 19.9 37.75 19.9 M25.45 22.15 L25.55 21.4 25.15 21.4 26.45 20.1 26.45 20.2 25.45 22.15 M23.95 12.3 L24.3 12.6 24.8 12.4 25.05 12.85 25.45 13.8 23.95 13.2 23.55 12.75 23.95 12.3 M26.2 11.9 L26.9 11.6 27.1 11.15 27.9 11.35 28.45 12.15 Q28.1 12.6 28.4 13.2 L28.55 13.65 28.75 14.05 28.7 14.6 27.8 15.3 28.1 14.15 27.45 13.4 27.5 12.5 26.25 12.35 26.2 11.9 M28.1 14.15 L28.55 13.65 28.1 14.15 M30.05 14.5 L30.35 14.7 Q30.95 14.7 31.4 14.25 L31.45 14.75 31.95 15.45 32.0 15.8 31.1 17.25 30.8 14.9 29.7 15.05 30.05 14.5 M34.3 15.35 L34.75 14.75 35.25 14.95 35.8 17.1 35.45 17.3 Q34.85 17.75 35.7 19.05 L35.3 20.2 34.3 21.2 34.85 19.2 34.3 18.35 34.95 17.1 34.6 16.3 34.65 16.05 33.1 16.15 33.5 15.65 34.1 15.5 34.3 15.35 M33.2 25.05 L31.9 23.6 31.75 21.95 32.15 22.95 33.2 25.05" fill="#333333" fill-rule="evenodd" stroke="none"/>
      <path d="M23.35 12.95 L23.55 12.75 23.95 13.2 25.45 13.8 25.05 12.85 26.1 13.75 26.65 14.05 26.25 12.35 27.5 12.5 27.45 13.4 28.1 14.15 26.2 16.3 23.35 12.95" fill="#666666" fill-rule="evenodd" stroke="none"/>
      <path d="M39.6 19.4 Q39.55 21.05 38.6 21.9 L39.05 20.35 38.8 18.35 39.5 18.3 39.5 18.85 39.6 19.4 M15.95 13.1 L15.55 13.5 Q16.15 12.05 17.05 10.95 L17.6 10.35 18.2 9.8 Q18.5 9.7 19.0 10.2 L19.05 10.3 17.1 11.45 17.95 11.35 15.95 13.1 M25.4 11.25 L25.75 11.0 26.2 11.3 26.2 11.9 26.25 12.35 26.65 14.05 26.1 13.75 25.85 11.95 25.7 12.6 25.4 11.25 M30.2 13.65 L30.6 14.0 30.05 14.5 29.7 15.05 28.9 16.45 28.75 15.8 29.35 14.0 29.4 14.95 30.2 13.65 M35.1 21.15 L36.3 19.35 36.1 20.05 37.1 18.45 37.3 19.5 36.75 19.9 36.2 20.35 35.1 21.15 M32.2 17.1 L32.85 15.2 32.8 16.05 33.6 14.95 33.85 15.35 33.5 15.65 33.1 16.15 32.3 17.5 32.2 17.1" fill="#f5f2ea" fill-rule="evenodd" stroke="none"/>
      <path d="M38.6 21.9 L38.4 22.15 Q38.55 20.8 38.15 19.7 L37.85 19.0 Q38.25 18.5 38.8 18.35 L39.05 20.35 38.6 21.9 M18.05 11.7 L17.7 11.85 15.95 13.1 17.95 11.35 17.1 11.45 19.05 10.3 Q19.3 10.8 19.1 11.25 L18.05 11.7 M24.8 12.4 Q24.7 11.9 25.05 11.5 L25.4 11.25 25.7 12.6 25.85 11.95 26.1 13.75 25.05 12.85 24.8 12.4 M28.7 14.6 L28.75 14.05 28.85 13.25 29.85 13.3 30.2 13.65 29.4 14.95 29.35 14.0 28.75 15.8 28.7 14.6 M35.7 19.05 L35.95 18.25 Q36.75 18.0 37.1 18.45 L36.1 20.05 36.3 19.35 35.1 21.15 34.9 21.3 35.3 20.2 35.7 19.05 M33.6 14.95 L32.8 16.05 32.85 15.2 32.2 17.1 32.0 15.8 31.95 15.45 32.0 14.85 Q32.1 14.55 32.6 14.6 L33.6 14.95" fill="#c9ba8b" fill-rule="evenodd" stroke="none"/>
      <path d="M27.0 27.2 L25.45 22.15 26.45 20.2 26.55 20.05 26.45 20.1 26.2 16.3 28.1 14.15 27.8 15.3 28.7 14.6 28.75 15.8 28.9 16.45 29.7 15.05 30.8 14.9 31.1 17.25 32.0 15.8 32.2 17.1 32.3 17.5 33.1 16.15 34.65 16.05 34.6 16.3 34.55 16.45 34.55 16.55 Q33.55 19.9 32.15 22.95 L31.75 21.95 31.9 23.6 30.25 26.55 27.0 27.2" fill="url(#gradient0)" fill-rule="evenodd" stroke="none"/>
      <path d="M20.75 15.55 L17.65 21.85 10.1 34.4 Q9.2 36.1 8.85 38.1 L8.7 37.0 5.3 41.9 4.2 41.3 8.55 35.15 8.6 35.95 16.05 23.15 Q7.0 35.7 16.5 20.3 L17.8 19.75 18.6 17.0 19.85 14.7 20.0 14.45 20.6 15.05 20.8 15.4 20.75 15.55" fill="#bf9212" fill-rule="evenodd" stroke="none"/>
      <path d="M25.15 21.4 L21.95 15.6 21.9 14.95 23.35 12.95 26.2 16.3 26.45 20.1 25.15 21.4" fill="url(#gradient1)" fill-rule="evenodd" stroke="none"/>
      <path d="M37.35 20.5 L36.55 21.65 34.6 25.9 33.85 25.45 34.4 26.35 32.8 29.1 32.0 28.35 32.35 29.85 30.75 32.05 30.25 26.55 32.0 28.35 33.2 25.05 33.85 25.45 33.2 25.05 32.0 28.35 30.25 26.55 31.9 23.6 33.2 25.05 32.15 22.95 Q33.55 19.9 34.55 16.55 L34.55 16.45 34.6 16.3 34.95 17.1 34.3 18.35 34.85 19.2 34.3 21.2 35.3 20.2 34.9 21.3 35.1 21.15 36.2 20.35 37.35 20.5 M26.45 20.2 L26.45 20.1 26.55 20.05 26.45 20.2" fill="#cccccc" fill-rule="evenodd" stroke="none"/>
      <path d="M2.15 38.45 L1.75 37.45 4.2 36.45 7.3 31.75 Q5.9 34.65 8.05 32.7 L4.9 36.9 2.15 38.45 M11.95 24.35 L18.35 14.4 18.4 14.4 19.65 14.35 19.05 15.9 18.1 16.25 16.25 19.3 16.05 19.7 12.05 26.1 Q5.3 35.75 11.95 24.35" fill="#b38811" fill-rule="evenodd" stroke="none"/>
      <path d="M3.2 39.65 Q3.4 38.85 2.85 38.75 4.6 38.95 6.0 36.45 L8.5 33.3 6.2 37.0 3.2 39.65" fill="#423206" fill-rule="evenodd" stroke="none"/>
      <path d="M7.3 31.75 L11.95 24.35 Q5.3 35.75 12.05 26.1 L8.05 32.7 Q5.9 34.65 7.3 31.75" fill="#f2b417" fill-rule="evenodd" stroke="none"/>
      <path d="M28.1 32.4 L27.1 33.4 25.55 33.35 Q26.9 30.25 27.0 27.2 L30.25 26.55 29.75 29.8 28.1 32.4" fill="url(#gradient2)" fill-rule="evenodd" stroke="none"/>
      <path d="M30.75 32.05 L30.2 32.4 29.9 31.95 29.35 32.75 27.9 33.25 28.1 32.4 29.75 29.8 30.25 26.55 30.75 32.05 M29.9 31.95 L29.75 29.8 29.9 31.95" fill="#999999" fill-rule="evenodd" stroke="none"/>
      <path d="M40.85 15.35 Q41.1 16.25 40.6 17.05 L40.25 17.2 40.65 18.2 Q40.25 19.2 39.6 19.4 39.55 21.05 38.6 21.9 L38.4 22.15 Q38.55 20.8 38.15 19.7 L37.75 19.9 37.35 20.5 36.55 21.65 34.6 25.9 M34.4 26.35 L32.8 29.1 M32.35 29.85 L30.75 32.05 30.2 32.4 M29.35 32.75 L27.9 33.25 M27.1 33.4 L25.55 33.35 Q26.9 30.25 27.0 27.2 L25.45 22.15 25.55 21.4 25.15 21.4 21.95 15.6 21.7 15.6 21.2 16.0 20.75 15.55 17.65 21.85 10.1 34.4 Q9.2 36.1 8.85 38.1 L8.7 37.0 5.3 41.9 4.2 41.3 3.7 40.95 3.2 39.65 Q3.4 38.85 2.85 38.75 L2.65 38.7 2.35 38.85 2.15 38.45 1.75 37.45 4.2 36.45 7.3 31.75 11.95 24.35 18.35 14.4 18.3 13.9 18.25 13.9 18.25 13.7 19.4 12.4 18.65 11.8 18.05 11.7 17.7 11.85 15.95 13.1 15.55 13.5 Q16.15 12.05 17.05 10.95 L17.6 10.35 Q17.25 9.8 17.5 9.35 L18.15 8.7 19.3 8.75 22.85 7.35 23.35 6.35 23.4 6.15 24.5 5.95 25.55 4.25 26.55 2.45 27.0 2.65 26.7 3.55 27.15 2.85 Q27.75 2.8 28.25 3.1 28.45 3.15 28.7 3.35 28.55 3.95 29.0 3.85 29.8 4.25 29.85 4.8 L29.15 6.15 30.6 6.35 30.55 5.8 Q31.95 6.3 32.3 5.5 L33.45 8.15 Q33.7 7.6 34.8 8.3 L35.55 9.6 36.6 9.75 36.85 10.5 37.25 10.6 37.45 10.9 38.1 10.85 41.3 13.7 Q40.8 15.05 40.85 15.25 L40.85 15.35 39.9 16.25 Q39.75 16.35 39.9 16.35 L39.4 16.35 39.75 16.25 Q40.35 15.8 39.45 14.15 37.8 11.5 37.4 11.9 37.35 11.35 37.45 10.9 M39.5 16.7 L40.25 17.2 M32.4 8.35 L32.9 9.1 Q32.7 9.45 32.35 9.3 31.75 9.2 31.15 8.45 L30.95 8.15 Q30.75 7.4 31.65 7.5 L31.0 7.05 M36.1 10.75 Q36.4 10.45 36.85 10.5 M32.4 8.35 L31.65 7.5 M35.55 9.6 Q35.2 9.6 35.0 9.85 M26.45 5.7 L25.55 4.25 27.0 4.5 M26.55 6.2 L25.9 6.05 24.5 5.95 M26.45 5.7 L26.55 6.2 M19.05 14.0 L19.9 14.1 20.6 15.05 20.85 15.35 20.8 15.4 21.2 16.0 M29.0 3.85 L27.65 4.65 28.7 3.35 M29.15 6.15 L27.0 4.5 M27.1 6.7 L27.75 6.9 29.35 7.8 M22.1 8.6 L22.85 7.35 M19.95 10.55 Q20.1 11.55 19.2 12.0 L18.65 11.8 M24.85 10.4 Q23.95 10.85 23.55 11.95 L23.95 12.3 24.3 12.6 24.8 12.4 Q24.7 11.9 25.05 11.5 L25.4 11.25 25.75 11.0 26.2 11.3 26.2 11.9 26.9 11.6 27.1 11.15 27.15 10.7 M23.55 12.75 L23.35 12.95 21.9 14.95 21.95 15.6 M26.25 12.35 L26.65 14.05 26.1 13.75 25.05 12.85 24.8 12.4 M23.55 12.75 L23.95 12.3 M24.85 10.4 L24.8 9.8 Q22.9 9.6 22.75 11.35 M29.8 7.1 L29.35 7.3 29.15 6.15 M26.25 12.35 L26.2 11.9 M28.55 13.65 L28.4 13.2 Q28.1 12.6 28.45 12.15 L27.9 11.35 27.1 11.15 M27.75 6.9 Q27.5 7.35 27.95 8.2 M28.75 14.05 L28.55 13.65 M28.7 14.6 L28.75 14.05 28.85 13.25 29.85 13.3 30.2 13.65 30.6 14.0 30.05 14.5 30.35 14.7 Q30.95 14.7 31.4 14.25 31.45 13.6 31.85 13.35 M28.7 14.6 L28.75 15.8 28.9 16.45 29.7 15.05 30.05 14.5 M20.8 15.4 L20.6 15.05 20.0 14.45 19.85 14.7 M8.6 35.95 L8.55 35.15 M20.75 15.55 L20.8 15.4 M19.65 14.35 L19.85 14.7 M34.75 14.75 L34.9 14.55 M34.3 15.35 L34.75 14.75 35.25 14.95 35.8 17.1 36.45 16.4 M35.7 19.05 Q34.85 17.75 35.45 17.3 L35.8 17.1 M37.1 18.45 Q36.75 18.0 35.95 18.25 L35.7 19.05 35.3 20.2 34.9 21.3 35.1 21.15 36.2 20.35 36.75 19.9 37.75 19.9 M37.1 18.45 L37.3 19.5 36.75 19.9 M39.5 18.85 L39.5 18.3 38.8 18.35 Q38.25 18.5 37.85 19.0 L38.15 19.7 M39.5 18.85 L39.6 19.4 M39.5 16.7 Q39.1 16.5 38.8 16.7 M33.6 14.95 L32.6 14.6 Q32.1 14.55 32.0 14.85 L31.95 15.45 32.0 15.8 32.2 17.1 32.3 17.5 33.1 16.15 33.5 15.65 33.85 15.35 33.6 14.95 M34.3 15.35 L34.1 15.5 33.5 15.65 M31.95 15.45 L31.45 14.75 31.4 14.25 M18.05 11.7 L19.1 11.25 Q19.3 10.8 19.05 10.3 L19.0 10.2 Q18.5 9.7 18.2 9.8 L17.6 10.35 M18.3 13.9 L18.25 13.7 M18.35 14.4 L18.4 14.4 19.65 14.35 M19.05 14.0 L18.3 13.9 M8.5 33.3 L8.8 33.65 M6.2 37.0 L3.2 39.65 M19.4 12.4 L22.1 8.6" fill="none" stroke="#000000" stroke-linecap="round" stroke-linejoin="round" stroke-opacity="0.4" stroke-width="0.05"/>
      <path d="M34.6 25.9 L33.85 25.45 34.4 26.35 M32.8 29.1 L32.0 28.35 32.35 29.85 M30.2 32.4 L29.9 31.95 29.35 32.75 M27.9 33.25 L28.1 32.4 27.1 33.4 M23.35 12.95 L26.2 16.3 28.1 14.15 M28.55 13.65 L28.1 14.15 M26.45 20.2 L26.45 20.1 26.2 16.3 M33.85 25.45 L33.2 25.05 32.0 28.35 30.25 26.55 29.75 29.8 29.9 31.95 M33.2 25.05 L31.9 23.6 M33.2 25.05 L32.15 22.95 M29.75 29.8 L28.1 32.4" fill="none" stroke="#000000" stroke-linecap="round" stroke-linejoin="round" stroke-opacity="0.2" stroke-width="0.05"/>
    </g>
    <linearGradient gradientTransform="matrix(-0.0017, 0.0053, -0.0047, -0.0016, 28.1, 23.55)" gradientUnits="userSpaceOnUse" id="gradient0" spreadMethod="pad" x1="-819.2" x2="819.2">
      <stop offset="0.0" stop-color="#545454"/>
      <stop offset="1.0" stop-color="#cfcfcf"/>
    </linearGradient>
    <linearGradient gradientTransform="matrix(3.0E-4, 0.0061, -0.0026, 1.0E-4, 24.35, 20.9)" gradientUnits="userSpaceOnUse" id="gradient1" spreadMethod="pad" x1="-819.2" x2="819.2">
      <stop offset="0.0" stop-color="#545454"/>
      <stop offset="1.0" stop-color="#cfcfcf"/>
    </linearGradient>
    <linearGradient gradientTransform="matrix(-0.0024, 0.0049, -0.002, -0.001, 26.45, 32.35)" gradientUnits="userSpaceOnUse" id="gradient2" spreadMethod="pad" x1="-819.2" x2="819.2">
      <stop offset="0.0" stop-color="#545454"/>
      <stop offset="1.0" stop-color="#cfcfcf"/>
    </linearGradient>
  </defs>
</svg>
