<?xml version="1.0" encoding="UTF-8" standalone="no"?>
<svg xmlns:xlink="http://www.w3.org/1999/xlink" height="440.0px" width="440.0px" xmlns="http://www.w3.org/2000/svg">
  <g transform="matrix(10.0, 0.0, 0.0, 10.0, 0.0, 0.0)">
    <use height="44.0" transform="matrix(1.0, 0.0, 0.0, 1.0, 0.0, -0.1)" width="44.0" xlink:href="#shape0"/>
    <use height="111.95" transform="matrix(-0.0084, -0.0795, -0.0886, 0.0091, 28.0481, 21.996)" width="111.95" xlink:href="#shape1"/>
  </g>
  <defs>
    <g id="shape0" transform="matrix(1.0, 0.0, 0.0, 1.0, 0.0, 0.1)">
      <path d="M44.0 -0.1 L44.0 43.9 0.0 43.9 0.0 -0.1 44.0 -0.1" fill="#43adca" fill-opacity="0.0" fill-rule="evenodd" stroke="none"/>
      <path d="M42.65 13.15 L42.8 13.1 43.05 13.15 42.95 13.2 42.85 13.15 42.65 13.15 42.85 13.15 42.95 13.2 41.35 14.65 41.0 15.45 40.95 15.5 40.1 19.0 40.05 19.25 39.25 19.25 Q40.2 16.15 40.25 14.9 L40.3 14.85 40.3 14.8 Q41.0 13.75 42.65 13.15" fill="#a2c4c4" fill-rule="evenodd" stroke="none"/>
      <path d="M42.8 13.1 L42.65 13.15 Q40.7 13.15 39.45 14.55 L39.25 14.75 38.2 16.65 Q37.65 17.55 36.6 17.85 L32.4 17.5 36.6 17.85 Q37.65 17.55 38.2 16.65 L39.25 14.75 39.45 14.55 Q40.7 13.15 42.65 13.15 41.0 13.75 40.3 14.8 L40.3 14.85 40.25 14.9 38.85 16.95 Q37.25 18.75 35.55 18.7 L33.05 18.3 Q31.75 17.95 31.0 17.1 L32.4 17.5 32.55 17.5 36.55 17.75 Q37.65 17.5 38.2 16.55 L39.25 14.65 39.4 14.5 Q40.7 13.0 42.8 13.1 M39.25 19.25 L40.05 19.25 39.7 20.2 Q38.7 22.65 36.75 24.9 L36.5 25.15 35.7 25.8 Q34.45 26.75 33.0 27.45 L30.3 28.6 31.7 27.35 31.75 27.35 31.85 27.35 Q37.0 24.8 39.0 20.0 L39.25 19.25 M32.4 24.65 L31.25 26.65 31.25 26.6 Q30.1 27.7 28.2 28.35 25.9 29.15 24.25 27.95 22.8 26.55 23.85 25.65 L24.05 25.5 24.05 25.55 Q24.0 26.8 25.5 26.45 26.05 26.2 26.0 25.7 26.0 25.15 25.25 24.6 L23.0 24.45 Q22.1 24.9 22.0 26.1 21.0 25.2 21.05 24.35 L21.1 24.25 21.05 24.25 18.7 24.35 18.45 24.5 18.15 24.65 18.05 24.7 18.0 24.7 16.9 26.05 16.85 26.0 16.75 25.9 17.8 24.4 18.2 24.05 18.35 24.15 18.4 24.15 18.6 24.15 19.0 24.1 20.4 23.95 21.15 23.95 21.2 23.9 21.45 23.4 22.45 22.3 22.45 22.35 Q21.85 23.45 21.95 24.3 22.75 23.15 24.1 22.8 L26.3 23.15 Q26.8 23.5 30.55 20.8 27.4 24.6 27.2 25.5 26.75 26.9 25.65 27.05 24.9 27.2 24.25 26.75 L24.2 26.75 24.1 26.75 24.15 26.8 Q24.6 27.4 26.1 27.9 27.5 28.05 28.85 27.45 30.7 26.55 32.4 24.6 L32.4 24.65 M17.0 23.1 L16.3 23.6 16.3 23.55 16.25 23.5 15.6 22.15 15.7 21.95 15.75 21.85 16.3 21.55 16.35 21.75 17.05 23.05 17.0 23.1 M16.3 23.15 L16.3 23.2 16.35 23.2 16.3 23.15 M18.3 24.5 L18.35 24.45 18.3 24.45 18.3 24.5" fill="#7f9999" fill-rule="evenodd" stroke="none"/>
      <path d="M40.25 14.9 Q40.2 16.15 39.25 19.25 L39.0 20.0 Q37.0 24.8 31.85 27.35 L31.75 27.35 31.75 27.3 Q32.45 25.85 32.4 24.7 L32.4 24.65 32.4 24.6 Q30.7 26.55 28.85 27.45 27.5 28.05 26.1 27.9 24.6 27.4 24.15 26.8 L24.2 26.8 24.25 26.75 Q24.9 27.2 25.65 27.05 26.75 26.9 27.2 25.5 27.4 24.6 30.55 20.8 26.8 23.5 26.3 23.15 L24.1 22.8 Q22.75 23.15 21.95 24.3 21.85 23.45 22.45 22.35 L22.45 22.3 21.45 23.4 21.2 23.9 21.15 23.95 20.4 23.95 19.0 24.1 18.6 24.15 18.4 24.15 18.35 24.15 18.2 24.05 17.8 24.4 16.75 25.9 16.45 25.7 16.35 25.65 16.15 25.45 15.9 25.35 15.85 25.25 15.7 25.2 15.65 25.2 15.4 25.05 15.95 24.35 16.2 24.3 16.25 24.2 16.45 24.2 16.2 24.05 17.0 23.1 17.05 23.05 16.3 21.5 16.7 21.3 Q17.4 21.3 17.85 20.5 L21.4 17.75 23.85 15.6 24.65 14.4 25.95 13.4 26.0 13.35 26.0 14.2 26.55 14.3 24.9 16.0 25.05 15.9 25.25 15.75 25.4 15.65 Q26.4 14.85 27.1 14.4 29.1 14.35 29.85 15.2 L29.95 15.25 30.3 15.4 30.0 15.25 30.6 15.2 32.0 16.15 33.1 16.65 34.25 16.9 31.0 17.1 Q31.75 17.95 33.05 18.3 L35.55 18.7 Q37.25 18.75 38.85 16.95 L40.25 14.9 M18.0 22.9 L18.05 22.8 17.95 22.85 18.0 22.9" fill="#5d7070" fill-rule="evenodd" stroke="none"/>
      <path d="M27.0 13.2 L27.05 13.1 27.25 12.85 Q27.55 12.5 28.55 12.15 L30.05 11.9 29.95 11.95 28.6 12.2 Q27.6 12.6 27.25 12.9 L27.05 13.15 27.0 13.25 27.05 13.15 27.25 12.9 Q27.6 12.6 28.6 12.2 L29.95 11.95 29.85 12.0 29.8 12.0 Q29.05 12.1 28.15 12.75 27.45 13.9 25.4 15.65 L25.25 15.75 25.05 15.9 24.9 16.0 26.55 14.3 27.05 13.25 27.0 13.25 27.0 13.2" fill="#ecf2f2" fill-rule="evenodd" stroke="none"/>
      <path d="M29.8 12.0 L29.55 12.3 29.05 13.0 28.55 13.6 28.45 13.8 Q28.05 13.8 27.1 14.4 26.4 14.85 25.4 15.65 27.45 13.9 28.15 12.75 29.05 12.1 29.8 12.0" fill="#404d4d" fill-rule="evenodd" stroke="none"/>
      <path d="M32.55 17.5 L32.4 17.5 31.0 17.1 34.25 16.9 33.1 16.65 32.0 16.15 30.6 15.2 30.0 15.25 30.3 15.4 29.95 15.25 29.85 15.2 Q29.1 14.35 27.1 14.4 28.05 13.8 28.45 13.8 L28.55 13.75 29.15 13.8 30.8 14.45 32.7 15.75 Q34.4 16.9 35.4 16.35 L35.35 16.5 Q34.85 17.5 32.7 17.5 L32.55 17.5 M26.0 13.35 L26.8 12.7 26.9 12.95 27.0 13.2 27.0 13.25 27.05 13.25 26.55 14.3 26.0 14.2 26.0 13.35 M35.35 16.5 Q34.4 16.95 32.7 15.8 L30.85 14.5 29.15 13.85 28.5 13.85 28.55 13.75 28.5 13.85 29.15 13.85 30.85 14.5 32.7 15.8 Q34.4 16.95 35.35 16.5" fill="#96b5b5" fill-rule="evenodd" stroke="none"/>
      <path d="M18.0 22.9 L17.95 22.85 18.05 22.8 18.0 22.9" fill="#789191" fill-rule="evenodd" stroke="none"/>
      <path d="M2.2 38.25 L1.4 37.8 2.95 36.25 3.6 36.5 Q4.2 35.55 5.85 34.45 6.25 33.6 7.75 32.45 8.25 31.55 9.65 30.55 L9.75 30.45 9.8 30.4 9.85 30.35 10.45 29.35 10.5 29.3 10.65 29.15 10.85 29.15 10.9 29.0 12.25 27.75 12.3 27.75 12.95 26.45 13.7 25.75 13.95 24.8 14.65 24.9 15.3 25.05 14.6 25.9 Q14.15 26.25 14.1 26.7 L13.5 26.6 12.95 26.45 13.5 26.6 14.1 26.7 Q13.45 27.15 13.2 27.85 L12.25 28.7 11.85 29.35 11.2 29.15 10.85 29.15 11.2 29.15 11.85 29.35 Q11.25 29.7 10.85 30.15 L10.45 30.9 9.8 30.4 10.45 30.9 Q9.75 31.35 9.3 31.9 L8.85 32.7 7.75 32.45 8.85 32.7 Q7.8 33.3 7.25 34.0 L6.7 34.7 5.85 34.45 6.7 34.7 5.45 35.7 4.5 36.85 4.4 36.75 2.65 38.4 2.2 38.25 M14.6 25.9 L14.3 25.8 13.95 25.7 13.8 25.7 13.7 25.75 13.8 25.7 13.95 25.7 14.3 25.8 14.6 25.9 M12.3 27.75 L13.2 27.85 12.3 27.75 M3.6 36.5 L3.7 36.6 4.4 36.75 3.7 36.6 3.6 36.5" fill="#968454" fill-rule="evenodd" stroke="none"/>
      <path d="M16.3 23.15 L16.35 23.2 16.3 23.2 16.3 23.15" fill="#5f7373" fill-rule="evenodd" stroke="none"/>
      <path d="M15.3 25.05 L15.4 25.05 15.65 25.2 15.7 25.2 15.85 25.25 15.9 25.35 16.15 25.45 16.35 25.65 16.45 25.7 16.75 25.9 16.85 26.0 16.1 26.95 16.0 26.8 15.85 26.7 14.7 25.95 14.6 25.9 14.7 25.95 15.85 26.7 15.85 26.85 15.35 27.25 Q14.7 26.8 14.1 26.7 14.7 26.8 15.35 27.25 15.0 28.25 14.25 28.55 13.7 28.05 13.2 27.85 13.7 28.05 14.25 28.55 L13.6 29.5 12.25 28.7 13.2 27.85 Q13.45 27.15 14.1 26.7 14.15 26.25 14.6 25.9 L15.3 25.05 M10.85 30.15 Q11.25 29.7 11.85 29.35 L13.0 30.0 12.25 31.1 10.85 30.15 M10.45 30.9 Q11.05 31.15 11.6 31.75 L10.9 32.75 9.3 31.9 Q9.75 31.35 10.45 30.9 M10.15 33.4 L9.1 34.8 7.25 34.0 Q7.8 33.3 8.85 32.7 9.5 32.85 10.15 33.4 M2.65 38.4 L4.4 36.75 4.5 36.85 6.35 37.85 6.75 38.2 5.25 39.95 2.65 38.4 M6.7 34.7 Q7.5 34.9 8.35 35.6 L7.45 36.85 5.45 35.7 6.7 34.7 M5.0 40.25 L4.95 40.25 4.95 40.2 5.0 40.25" fill="#ccb272" fill-rule="evenodd" stroke="none"/>
      <path d="M16.9 26.05 L17.3 26.55 17.4 26.9 16.65 27.45 16.55 27.35 16.45 27.35 16.05 27.9 14.65 29.15 Q14.6 29.9 13.85 30.75 L12.65 32.15 12.55 32.15 Q11.85 33.5 11.15 34.05 L9.25 36.3 Q8.55 37.95 7.5 38.8 L8.15 39.4 7.0 40.85 6.35 40.5 5.25 39.95 6.75 38.2 6.35 37.85 7.45 36.85 8.35 35.6 9.1 34.8 10.15 33.4 11.15 34.05 10.15 33.4 10.9 32.75 11.6 31.75 12.25 31.1 13.0 30.0 13.6 29.5 14.25 28.55 Q15.0 28.25 15.35 27.25 L15.85 26.85 15.85 26.7 16.0 26.8 16.1 26.95 16.85 26.0 16.9 26.05 M15.35 27.25 L15.75 27.7 16.05 27.9 15.75 27.7 15.35 27.25 M16.55 27.35 L16.2 27.0 16.15 26.95 16.1 26.95 16.15 26.95 16.2 27.0 16.55 27.35 M14.65 29.15 L14.55 29.0 14.35 28.7 14.25 28.55 14.35 28.7 14.55 29.0 14.65 29.15 M12.65 32.15 L12.3 32.05 11.6 31.75 12.3 32.05 12.65 32.15 M13.0 30.0 L13.85 30.75 13.0 30.0 M9.25 36.3 L8.35 35.6 9.25 36.3 M7.5 38.8 L6.75 38.2 7.5 38.8" fill="#756641" fill-rule="evenodd" stroke="none"/>
      <path d="M12.25 28.7 L13.6 29.5 13.0 30.0 11.85 29.35 12.25 28.7 M10.45 30.9 L10.85 30.15 12.25 31.1 11.6 31.75 Q11.05 31.15 10.45 30.9 M9.3 31.9 L10.9 32.75 10.15 33.4 Q9.5 32.85 8.85 32.7 L9.3 31.9 M9.1 34.8 L8.35 35.6 Q7.5 34.9 6.7 34.7 L7.25 34.0 9.1 34.8 M7.45 36.85 L6.35 37.85 4.5 36.85 5.45 35.7 7.45 36.85" fill="#7d6c46" fill-rule="evenodd" stroke="none"/>
      <path d="M5.8 40.6 L2.75 41.15 4.8 40.1 5.8 40.6 M5.0 40.25 L4.95 40.2 4.95 40.25 5.0 40.25" fill="#994b1b" fill-rule="evenodd" stroke="none"/>
      <path d="M6.35 40.5 L5.8 40.6 4.8 40.1 3.55 39.4 2.95 39.05 2.2 38.7 2.2 38.25 2.65 38.4 5.25 39.95 6.35 40.5" fill="#45220c" fill-rule="evenodd" stroke="none"/>
      <path d="M2.15 41.05 L2.2 38.7 2.95 39.05 2.15 41.05" fill="#eb742a" fill-rule="evenodd" stroke="none"/>
      <path d="M2.15 41.25 L2.15 41.05 2.95 39.05 3.55 39.4 2.15 41.25" fill="#ffe3d1" fill-rule="evenodd" stroke="none"/>
      <path d="M2.75 41.15 L2.15 41.25 3.55 39.4 4.8 40.1 2.75 41.15" fill="#ff9b5c" fill-rule="evenodd" stroke="none"/>
      <path d="M42.65 13.15 L42.85 13.15 42.95 13.2 43.05 13.15 42.8 13.1 Q40.7 13.0 39.4 14.5 L39.25 14.65 38.2 16.55 Q37.65 17.5 36.55 17.75 L32.55 17.5 32.4 17.5 36.6 17.85 Q37.65 17.55 38.2 16.65 L39.25 14.75 39.45 14.55 Q40.7 13.15 42.65 13.15 M40.05 19.25 L40.1 19.0 40.95 15.5 41.0 15.45 41.35 14.65 42.95 13.2 43.05 13.2 Q42.0 13.85 41.4 14.7 L41.0 15.5 41.0 15.55 40.1 19.05 40.05 19.25 39.7 20.25 Q38.7 22.7 36.75 24.95 L36.5 25.15 35.7 25.8 Q34.5 26.8 33.1 27.5 31.85 28.2 30.3 28.6 L33.0 27.45 Q34.45 26.75 35.7 25.8 M31.25 26.65 L31.25 26.6 Q30.1 27.7 28.2 28.35 25.9 29.15 24.25 27.95 22.8 26.55 23.85 25.65 L24.05 25.5 M24.05 25.55 Q24.0 26.8 25.5 26.45 26.05 26.2 26.0 25.7 26.0 25.15 25.25 24.6 L23.0 24.45 Q22.1 24.9 22.0 26.1 21.0 25.2 21.05 24.35 L21.1 24.25 M21.05 24.25 L18.7 24.35 18.45 24.5 18.15 24.65 18.05 24.7 18.0 24.7 16.9 26.05 17.3 26.55 17.4 26.9 16.65 27.45 M16.45 27.35 L16.05 27.9 14.65 29.15 Q14.6 29.9 13.85 30.75 L12.65 32.15 12.55 32.15 Q11.85 33.5 11.15 34.05 L9.25 36.3 Q8.55 37.95 7.5 38.8 L8.15 39.4 7.0 40.85 M1.4 37.8 L2.95 36.25 3.6 36.5 M5.85 34.45 Q6.25 33.6 7.75 32.45 8.25 31.55 9.65 30.55 L9.75 30.45 9.8 30.4 M9.85 30.35 L10.45 29.35 10.5 29.3 10.65 29.15 10.85 29.15 10.9 29.0 12.25 27.75 12.3 27.75 12.95 26.45 13.7 25.75 13.95 24.8 14.65 24.9 15.3 25.05 15.4 25.05 M16.25 23.5 L15.6 22.15 M26.8 12.7 L26.9 12.95 27.0 13.2 27.05 13.1 27.25 12.85 Q27.55 12.5 28.55 12.15 L30.05 11.9 29.95 11.95 30.1 11.95 Q29.95 11.95 29.9 12.05 L29.85 12.1 29.6 12.35 29.1 13.05 28.6 13.7 28.55 13.75 29.15 13.8 30.8 14.45 32.7 15.75 Q34.4 16.9 35.4 16.35 L35.35 16.5 Q34.85 17.5 32.7 17.5 L32.55 17.5 M27.0 13.25 L27.0 13.2 M27.0 13.25 L27.05 13.15 27.25 12.9 Q27.6 12.6 28.6 12.2 L29.95 11.95 29.85 12.0 29.8 12.0 29.55 12.3 29.05 13.0 28.55 13.6 28.45 13.8 28.55 13.75 28.5 13.85 29.15 13.85 30.85 14.5 32.7 15.8 Q34.4 16.95 35.35 16.5 M36.5 25.15 L36.75 24.9 Q38.7 22.65 39.7 20.2 L40.05 19.25 M15.85 26.7 L16.0 26.8 16.1 26.95 16.15 26.95 16.2 27.0 16.55 27.35 M16.45 25.7 L16.35 25.65 16.15 25.45 15.9 25.35 M15.7 25.2 L15.65 25.2 15.4 25.05 M13.7 25.75 L13.8 25.7 13.95 25.7 14.3 25.8 14.6 25.9 M16.85 26.0 L16.9 26.05 M16.05 27.9 L15.75 27.7 15.35 27.25 M14.25 28.55 L14.35 28.7 14.55 29.0 14.65 29.15 M11.6 31.75 L12.3 32.05 12.65 32.15 M13.85 30.75 L13.0 30.0 M11.15 34.05 L10.15 33.4 M8.35 35.6 L9.25 36.3 M4.4 36.75 L3.7 36.6 3.6 36.5 M6.35 37.85 L6.75 38.2 7.5 38.8 M4.5 36.85 L6.35 37.85 M4.5 36.85 L4.4 36.75" fill="none" stroke="#000000" stroke-linecap="round" stroke-linejoin="round" stroke-opacity="0.5019608" stroke-width="0.05"/>
      <path d="M15.85 26.7 L14.7 25.95 14.6 25.9" fill="none" stroke="#000000" stroke-linecap="round" stroke-linejoin="round" stroke-opacity="0.101960786" stroke-width="0.05"/>
      <path d="M7.0 40.85 L6.35 40.5 5.8 40.6 2.75 41.15 2.15 41.25 2.15 41.05 2.2 38.7 2.2 38.25 1.4 37.8 M14.1 26.7 L13.5 26.6 12.95 26.45 M12.25 28.7 L13.6 29.5 M13.2 27.85 L12.3 27.75 M11.85 29.35 L11.2 29.15 10.85 29.15 M10.45 30.9 L9.8 30.4 M12.25 31.1 L10.85 30.15 M9.3 31.9 L10.9 32.75 M2.65 38.4 L2.2 38.25 M9.1 34.8 L7.25 34.0 M6.7 34.7 L5.85 34.45 M5.45 35.7 L7.45 36.85 M7.75 32.45 L8.85 32.7 M4.8 40.1 L5.8 40.6 M5.25 39.95 L6.35 40.5 M2.95 39.05 L2.2 38.7 M3.55 39.4 L2.95 39.05 M4.8 40.1 L3.55 39.4 M5.25 39.95 L2.65 38.4" fill="none" stroke="#000000" stroke-linecap="round" stroke-linejoin="round" stroke-opacity="0.3019608" stroke-width="0.05"/>
      <path d="M14.1 26.7 Q14.7 26.8 15.35 27.25 M14.25 28.55 Q13.7 28.05 13.2 27.85 M11.6 31.75 Q11.05 31.15 10.45 30.9 M11.85 29.35 L13.0 30.0 M6.7 34.7 Q7.5 34.9 8.35 35.6 M8.85 32.7 Q9.5 32.85 10.15 33.4" fill="none" stroke="#000000" stroke-linecap="round" stroke-linejoin="round" stroke-opacity="0.2" stroke-width="0.05"/>
      <path d="M23.65 2.45 L23.6 2.65 23.55 2.45 23.5 2.45 23.55 2.45 23.6 2.65 Q23.25 3.85 22.35 4.75 L22.25 4.75 Q21.0 5.2 18.1 6.8 L18.0 6.2 18.2 6.15 21.5 4.5 21.55 4.45 21.55 4.4 21.75 4.35 22.3 4.0 23.5 2.45 23.55 2.35 23.65 2.45 M21.55 4.45 L21.75 4.35 21.55 4.45" fill="#a2c4c4" fill-rule="evenodd" stroke="none"/>
      <path d="M23.6 2.65 L23.65 2.45 Q24.05 3.85 22.75 5.2 L22.6 5.4 20.95 6.6 Q20.05 7.35 20.0 8.15 19.95 9.85 20.95 10.7 L20.95 10.8 Q19.95 9.9 19.9 8.15 20.0 7.35 20.85 6.65 L22.5 5.4 22.7 5.15 Q23.9 3.95 23.6 2.65 23.9 3.95 22.7 5.15 L22.5 5.4 20.85 6.65 Q20.0 7.35 19.9 8.15 19.95 9.9 20.95 10.8 L21.55 11.6 20.05 10.65 Q19.55 10.0 19.2 9.05 18.9 7.9 20.45 6.3 L22.25 4.75 22.35 4.75 Q23.25 3.85 23.6 2.65 M18.0 6.2 L18.1 6.8 17.35 7.2 Q12.95 10.05 11.25 14.3 L11.25 14.35 10.2 15.7 Q10.4 14.55 10.9 13.5 11.35 12.35 12.1 11.2 L12.7 10.45 12.85 10.2 Q14.75 8.25 17.0 6.8 L18.0 6.2 M16.65 22.15 L16.2 22.35 16.35 22.15 16.05 20.5 16.05 20.45 15.95 20.55 14.05 20.45 Q15.3 20.0 15.55 19.3 15.8 18.3 15.0 17.85 14.4 17.45 13.85 17.6 13.35 17.75 13.15 18.2 13.0 19.4 14.3 18.9 L14.35 18.9 14.25 19.1 Q13.5 20.05 11.85 19.55 10.4 18.8 10.8 17.0 11.2 15.55 12.0 14.45 L12.0 14.4 13.8 13.05 13.85 13.05 Q12.2 14.75 11.6 16.3 11.25 17.35 11.65 18.25 12.4 19.1 13.05 19.3 L13.1 19.25 13.05 19.15 13.05 19.1 Q12.55 18.85 12.5 18.3 12.5 17.5 13.85 16.8 L17.95 13.05 Q15.95 16.45 16.3 16.7 16.95 17.25 17.0 18.05 16.9 19.05 15.9 19.95 16.8 19.7 17.75 19.0 L17.8 19.0 16.95 19.95 16.4 20.3 16.35 20.35 16.45 20.9 Q16.45 21.5 16.6 21.8 L16.65 22.15" fill="#7f9999" fill-rule="evenodd" stroke="none"/>
      <path d="M26.9 10.65 L26.9 10.6 26.85 11.75 26.5 12.8 26.2 13.0 26.15 13.1 26.05 13.1 26.15 13.05 26.2 13.0 26.45 12.8 26.8 11.7 26.9 10.7 26.9 10.65 M26.8 10.9 L26.8 10.8 26.9 10.7 26.8 11.7 26.45 12.8 26.2 13.0 26.15 13.05 26.05 13.1 26.05 13.05 25.1 13.8 23.7 15.4 23.75 15.25 23.9 15.0 24.0 14.9 Q25.35 13.0 26.45 12.15 26.9 11.4 26.8 10.9" fill="#ecf2f2" fill-rule="evenodd" stroke="none"/>
      <path d="M25.3 12.3 L25.45 12.15 26.0 11.7 26.6 11.1 26.8 10.9 Q26.9 11.4 26.45 12.15 25.35 13.0 24.0 14.9 L24.9 13.35 Q25.4 12.55 25.3 12.3" fill="#404d4d" fill-rule="evenodd" stroke="none"/>
      <path d="M20.95 10.8 L20.95 10.7 20.9 10.6 Q20.55 9.2 21.45 8.55 L21.55 8.5 Q21.25 9.25 22.65 10.05 L24.2 10.95 25.2 11.8 25.3 12.2 25.25 12.3 25.15 11.85 24.15 10.95 22.55 10.1 Q21.2 9.25 21.45 8.55 21.2 9.25 22.55 10.1 L24.15 10.95 25.15 11.85 25.25 12.3 25.3 12.2 25.3 12.3 Q25.4 12.55 24.9 13.35 24.6 12.05 23.7 11.8 L23.65 11.75 23.35 11.55 23.6 11.7 23.6 11.35 22.35 10.7 21.65 10.1 21.25 9.35 Q21.25 10.65 21.55 11.6 L20.95 10.8 M26.15 13.1 L26.4 13.05 26.65 13.05 26.1 13.8 25.3 14.05 Q25.35 13.7 25.1 13.8 L26.05 13.05 26.05 13.1 26.15 13.1" fill="#96b5b5" fill-rule="evenodd" stroke="none"/>
      <path d="M18.1 6.8 Q21.0 5.2 22.25 4.75 L20.45 6.3 Q18.9 7.9 19.2 9.05 19.55 10.0 20.05 10.65 L21.55 11.6 Q21.25 10.65 21.25 9.35 L21.65 10.1 22.35 10.7 23.6 11.35 23.6 11.7 23.35 11.55 23.65 11.75 23.7 11.8 Q24.6 12.05 24.9 13.35 L24.0 14.9 23.9 15.0 23.75 15.25 23.7 15.4 25.1 13.8 Q25.35 13.7 25.3 14.05 L26.1 13.8 26.05 13.85 Q24.2 15.9 21.75 17.7 L21.6 18.05 17.45 21.55 17.0 21.75 16.8 22.05 16.65 22.15 16.6 21.8 Q16.45 21.5 16.45 20.9 L16.35 20.35 16.4 20.3 16.95 19.95 17.8 19.0 17.75 19.0 Q16.8 19.7 15.9 19.95 16.9 19.05 17.0 18.05 16.95 17.25 16.3 16.7 15.95 16.45 17.95 13.05 L13.85 16.8 Q12.5 17.5 12.5 18.3 12.55 18.85 13.05 19.1 L13.0 19.25 13.05 19.3 Q12.4 19.1 11.65 18.25 11.25 17.35 11.6 16.3 12.2 14.75 13.85 13.05 L13.8 13.05 13.7 13.05 Q12.6 13.4 11.3 14.3 L11.25 14.3 Q12.95 10.05 17.35 7.2 L18.1 6.8" fill="#5d7070" fill-rule="evenodd" stroke="none"/>
      <path d="M23.65 2.45 L23.55 2.35 23.5 2.45 23.55 2.45 23.6 2.65 Q23.9 3.95 22.7 5.15 L22.5 5.4 20.85 6.65 Q20.0 7.35 19.9 8.15 19.95 9.9 20.95 10.8 L20.95 10.7 Q19.95 9.85 20.0 8.15 20.05 7.35 20.95 6.6 L22.6 5.4 22.75 5.2 Q24.05 3.85 23.65 2.45 M23.5 2.45 L23.5 2.35 22.2 3.95 21.75 4.35 22.3 4.0 23.5 2.45 M21.55 4.45 L21.55 4.4 21.75 4.35 21.55 4.45 21.5 4.5 18.2 6.15 18.0 6.2 17.0 6.8 Q14.75 8.25 12.85 10.2 L12.7 10.45 12.1 11.2 Q11.35 12.35 10.9 13.5 10.4 14.55 10.2 15.7 M21.55 4.45 L21.45 4.45 18.15 6.15 18.0 6.2 Q17.5 6.45 16.95 6.8 14.7 8.25 12.8 10.2 L12.7 10.45 M25.3 12.2 L25.2 11.8 24.2 10.95 22.65 10.05 Q21.25 9.25 21.55 8.5 L21.45 8.55 Q21.2 9.25 22.55 10.1 L24.15 10.95 25.15 11.85 25.25 12.3 25.3 12.2 25.4 12.15 25.9 11.65 26.55 11.1 26.7 10.8 26.8 10.75 26.9 10.65 26.9 10.6 26.85 11.75 26.5 12.8 26.2 13.0 26.15 13.1 26.4 13.05 26.65 13.05 M16.2 22.35 L16.35 22.15 16.05 20.5 M16.05 20.45 L15.95 20.55 14.05 20.45 Q15.3 20.0 15.55 19.3 15.8 18.3 15.0 17.85 14.4 17.45 13.85 17.6 13.35 17.75 13.15 18.2 13.0 19.4 14.3 18.9 M14.35 18.9 L14.25 19.1 Q13.5 20.05 11.85 19.55 10.4 18.8 10.8 17.0 11.2 15.55 12.0 14.45 L12.0 14.4 M21.45 8.55 Q20.55 9.2 20.9 10.6 L20.95 10.7 M25.3 12.2 L25.3 12.3 25.45 12.15 26.0 11.7 26.6 11.1 26.8 10.9 26.8 10.8 26.9 10.7 26.9 10.65 M26.05 13.1 L26.15 13.05 26.2 13.0 26.45 12.8 26.8 11.7 26.9 10.7 M26.05 13.1 L26.15 13.1 M12.1 11.2 Q11.3 12.35 10.85 13.45 10.35 14.55 10.2 15.7" fill="none" stroke="#000000" stroke-linecap="round" stroke-linejoin="round" stroke-opacity="0.5019608" stroke-width="0.05"/>
      <path d="M29.4 15.6 Q28.6 16.0 30.15 17.6 L30.6 17.95 31.1 18.15 31.6 18.55 32.1 18.85 32.2 18.75 36.4 20.1 Q36.8 20.55 37.95 19.75 36.55 21.9 34.45 22.65 31.35 23.7 37.0 21.9 35.35 24.8 31.95 26.75 32.6 24.9 32.3 24.3 31.75 24.35 31.65 24.55 L30.25 25.95 Q29.15 26.9 27.85 27.35 L26.0 27.6 24.75 27.05 24.45 26.9 Q24.95 27.15 25.5 27.2 26.2 27.15 26.8 26.6 L27.2 25.85 27.45 24.95 27.45 24.15 27.3 23.8 28.35 23.05 28.55 22.85 27.1 23.6 27.05 23.6 26.2 23.0 23.95 22.8 Q23.35 22.85 22.9 23.25 L22.4 23.7 22.2 24.05 Q21.75 24.45 21.8 25.15 21.45 24.05 21.45 23.75 L21.5 23.7 21.45 23.65 18.65 23.85 18.65 23.8 18.6 23.8 18.45 24.05 18.35 24.1 18.15 23.95 Q17.6 24.15 17.3 24.55 16.95 24.95 16.95 25.35 16.85 25.7 17.35 25.45 L16.8 26.05 16.6 26.45 16.6 26.5 16.3 26.25 16.2 26.2 15.8 25.9 15.65 25.8 15.6 25.8 15.6 25.75 16.6 24.5 16.95 24.4 16.9 24.1 17.4 23.55 17.4 23.45 17.6 23.2 17.65 23.05 17.65 23.0 17.0 21.4 16.45 21.05 16.45 20.95 17.0 20.05 16.95 19.7 17.2 18.6 16.85 18.05 15.65 17.45 15.55 17.4 14.7 16.95 15.2 15.9 16.85 12.5 17.65 11.1 17.7 11.1 17.65 11.65 17.0 13.9 18.2 12.15 18.7 11.0 Q19.65 11.55 20.5 12.2 L22.0 13.5 23.1 11.65 23.0 13.55 Q23.05 14.6 24.6 14.9 26.15 15.25 25.1 16.25 L24.5 16.8 25.05 16.55 Q25.85 15.9 26.75 15.35 27.4 14.9 28.15 14.6 28.4 14.45 28.7 14.45 L29.25 14.65 Q29.5 15.0 29.4 15.6 M11.0 13.25 L11.1 13.0 11.35 12.65 12.75 11.45 12.4 12.0 11.45 13.2 13.85 11.35 Q15.45 10.2 17.1 9.15 L18.55 8.45 18.85 8.45 18.75 8.75 17.95 9.95 Q17.25 10.95 16.7 12.15 L15.65 14.45 14.65 16.5 14.6 16.55 14.55 16.9 13.1 16.55 Q13.2 16.1 14.05 15.3 12.65 16.25 12.5 15.9 12.4 15.6 12.1 15.65 L12.05 15.55 13.55 13.8 Q14.45 12.9 15.55 12.6 13.25 12.45 11.5 13.55 L10.5 14.35 10.6 14.1 10.7 13.8 11.0 13.25 M10.5 14.35 L10.4 14.55 10.4 14.4 10.5 14.35" fill="url(#gradient0)" fill-rule="evenodd" stroke="none"/>
    </g>
    <linearGradient gradientTransform="matrix(0.0056, -0.0066, 0.0086, 0.0047, 17.1, 18.35)" gradientUnits="userSpaceOnUse" id="gradient0" spreadMethod="pad" x1="-819.2" x2="819.2">
      <stop offset="0.0" stop-color="#ffffff" stop-opacity="0.5921569"/>
      <stop offset="1.0" stop-color="#000000" stop-opacity="0.0"/>
    </linearGradient>
    <g id="shape1" transform="matrix(1.0, 0.0, 0.0, 1.0, 42.0, 26.5)">
      <path d="M-22.6 71.9 L-24.85 69.8 -22.4 71.7 -22.6 71.9" fill="#421515" fill-rule="evenodd" stroke="none"/>
      <path d="M56.45 -7.0 L56.65 -6.75 57.1 -6.2 59.1 -6.15 57.2 -6.15 55.75 -6.15 55.6 -6.25 56.45 -7.0 M-22.55 71.95 L-22.6 71.9 -22.4 71.7 -22.55 71.95 M-24.85 69.8 L-25.1 69.55 -25.45 69.2 -25.6 69.05 -24.8 68.6 -24.4 69.2 -24.35 69.35 -24.85 69.8 -24.3 69.4 -24.25 69.45 Q-24.0 69.85 -24.85 69.8 M57.1 -6.2 L57.2 -6.15 57.1 -6.2" fill="#f0c20f" fill-rule="evenodd" stroke="none"/>
      <path d="M-24.4 69.2 L-24.35 69.2 -24.35 69.35 -24.4 69.2 M-22.4 71.7 L-22.35 71.7 -22.55 71.95 -22.4 71.7" fill="#e65800" fill-rule="evenodd" stroke="none"/>
      <path d="M-24.35 69.35 L-24.3 69.4 -24.85 69.8 -24.35 69.35" fill="#9e2200" fill-rule="evenodd" stroke="none"/>
      <path d="M-25.6 69.05 Q-42.0 52.65 -42.0 29.45 -42.0 6.3 -25.6 -10.1 -9.2 -26.5 13.95 -26.5 37.15 -26.5 53.55 -10.1 L56.45 -7.0 55.6 -6.25 Q41.1 -16.5 23.1 -16.5 -0.05 -16.5 -16.45 -0.1 -32.85 16.3 -32.85 39.45 -32.85 55.65 -24.8 68.6 L-25.6 69.05" fill="#666666" fill-rule="evenodd" stroke="none"/>
      <path d="M57.2 -6.15 L57.7 -5.55 59.4 -3.35 59.75 -2.9 59.8 -2.85 60.05 -2.55 61.3 0.5 62.5 2.8 Q64.75 7.55 66.05 12.75 67.7 19.45 67.7 26.85 67.7 45.45 57.2 59.65 54.55 63.2 51.3 66.45 41.0 76.75 28.0 80.6 20.3 82.85 11.7 82.85 -7.15 82.85 -22.35 71.7 L-22.4 71.7 -24.85 69.8 Q-24.0 69.85 -24.25 69.45 L-24.3 69.4 -24.35 69.35 -24.35 69.2 -24.45 68.6 Q-27.85 47.5 -19.65 26.45 -3.8 -7.95 55.6 -6.25 L55.75 -6.15 57.2 -6.15" fill="#4a5557" fill-rule="evenodd" stroke="none"/>
      <path d="M-24.8 68.6 L-24.45 68.6 -24.35 69.2 -24.4 69.2 -24.8 68.6" fill="#566365" fill-rule="evenodd" stroke="none"/>
      <path d="M60.05 -2.55 L61.65 -0.05 61.8 0.2 63.15 2.45 Q65.8 7.1 67.4 12.2 L67.4 12.25 67.45 12.45 Q69.95 20.4 69.95 29.45 69.95 47.1 60.45 60.85 57.45 65.15 53.55 69.05 42.35 80.25 28.0 83.8 21.3 85.45 13.95 85.45 -7.15 85.45 -22.55 71.95 L-22.35 71.7 Q-7.15 82.85 11.7 82.85 20.3 82.85 28.0 80.6 41.0 76.75 51.3 66.45 54.55 63.2 57.2 59.65 67.7 45.45 67.7 26.85 67.7 19.45 66.05 12.75 64.75 7.55 62.5 2.8 L61.3 0.5 60.05 -2.55 M-24.8 68.6 Q-32.85 55.65 -32.85 39.45 -32.85 16.3 -16.45 -0.1 -0.05 -16.5 23.1 -16.5 41.1 -16.5 55.6 -6.25 -3.8 -7.95 -19.65 26.45 -27.85 47.5 -24.45 68.6 L-24.8 68.6" fill="#9ca9ab" fill-rule="evenodd" stroke="none"/>
      <path d="M56.45 -7.0 L56.65 -6.75 57.1 -6.2 M57.2 -6.15 L57.7 -5.55 59.4 -3.35 59.75 -2.9 59.8 -2.85 60.05 -2.55 61.65 -0.05 61.8 0.2 63.15 2.45 Q65.8 7.1 67.4 12.2 L67.4 12.25 67.45 12.45 Q69.95 20.4 69.95 29.45 69.95 47.1 60.45 60.85 57.45 65.15 53.55 69.05 42.35 80.25 28.0 83.8 21.3 85.45 13.95 85.45 -7.15 85.45 -22.55 71.95 L-22.6 71.9 -24.85 69.8 -25.1 69.55 -25.45 69.2 -25.6 69.05 Q-42.0 52.65 -42.0 29.45 -42.0 6.3 -25.6 -10.1 -9.2 -26.5 13.95 -26.5 37.15 -26.5 53.55 -10.1 L56.45 -7.0 M57.2 -6.15 L57.1 -6.2" fill="none" stroke="#000000" stroke-linecap="round" stroke-linejoin="round" stroke-opacity="0.15294118" stroke-width="0.05"/>
      <path d="M56.75 31.35 Q56.75 49.2 44.15 61.85 35.0 71.0 23.1 73.5 L22.9 73.55 13.65 74.45 Q-4.2 74.45 -16.8 61.85 -22.1 56.55 -25.15 50.35 -29.4 41.75 -29.4 31.35 -29.4 27.35 -28.75 23.65 -26.6 10.7 -16.8 0.9 -11.65 -4.25 -5.65 -7.3 3.05 -11.75 13.65 -11.75 31.5 -11.75 44.15 0.9 53.95 10.7 56.15 23.65 56.75 27.35 56.75 31.35 M-4.0 -7.3 L-5.65 -7.3 -4.0 -7.3" fill="url(#gradient1)" fill-rule="evenodd" stroke="none"/>
      <path d="M56.75 31.35 Q56.75 49.2 44.15 61.85 35.0 71.0 23.1 73.5 L22.9 73.55 13.65 74.45 Q-4.2 74.45 -16.8 61.85 -22.1 56.55 -25.15 50.35 -29.4 41.75 -29.4 31.35 -29.4 27.35 -28.75 23.65 -26.6 10.7 -16.8 0.9 -11.65 -4.25 -5.65 -7.3 3.05 -11.75 13.65 -11.75 31.5 -11.75 44.15 0.9 53.95 10.7 56.15 23.65 56.75 27.35 56.75 31.35 M-5.65 -7.3 L-4.0 -7.3" fill="none" stroke="#000000" stroke-linecap="round" stroke-linejoin="round" stroke-opacity="0.15294118" stroke-width="0.05"/>
      <path d="M24.35 38.65 Q24.35 43.7 20.75 47.25 17.2 50.8 12.2 50.8 7.15 50.8 3.6 47.25 0.05 43.7 0.05 38.65 0.05 33.65 3.6 30.1 7.15 26.5 12.2 26.5 17.2 26.5 20.75 30.1 24.35 33.65 24.35 38.65" fill="#000000" fill-rule="evenodd" stroke="none"/>
      <path d="M24.35 38.65 Q24.35 43.7 20.75 47.25 17.2 50.8 12.2 50.8 7.15 50.8 3.6 47.25 0.05 43.7 0.05 38.65 0.05 33.65 3.6 30.1 7.15 26.5 12.2 26.5 17.2 26.5 20.75 30.1 24.35 33.65 24.35 38.65 Z" fill="none" stroke="#000000" stroke-linecap="round" stroke-linejoin="round" stroke-opacity="0.15294118" stroke-width="0.05"/>
      <path d="M2.7 37.1 Q5.3 39.7 5.3 43.4 5.3 47.1 2.7 49.7 0.1 52.3 -3.6 52.3 -7.3 52.3 -9.9 49.7 -12.5 47.1 -12.5 43.4 -12.5 39.7 -9.9 37.1 -7.3 34.5 -3.6 34.5 0.1 34.5 2.7 37.1" fill="#ffffff" fill-rule="evenodd" stroke="none"/>
      <path d="M2.7 37.1 Q5.3 39.7 5.3 43.4 5.3 47.1 2.7 49.7 0.1 52.3 -3.6 52.3 -7.3 52.3 -9.9 49.7 -12.5 47.1 -12.5 43.4 -12.5 39.7 -9.9 37.1 -7.3 34.5 -3.6 34.5 0.1 34.5 2.7 37.1 Z" fill="none" stroke="#000000" stroke-linecap="round" stroke-linejoin="round" stroke-opacity="0.15294118" stroke-width="0.05"/>
    </g>
    <radialGradient cx="0" cy="0" gradientTransform="matrix(0.0518, 0.0, 0.0, 0.0518, 13.7, 23.65)" gradientUnits="userSpaceOnUse" id="gradient1" r="819.2" spreadMethod="pad">
      <stop offset="0.5725490196078431" stop-color="#e3dede"/>
      <stop offset="1.0" stop-color="#bf4e4e"/>
    </radialGradient>
  </defs>
</svg>
