<?xml version="1.0" encoding="UTF-8" standalone="no"?>
<svg xmlns:xlink="http://www.w3.org/1999/xlink" height="600.0px" width="600.0px" xmlns="http://www.w3.org/2000/svg">
  <g transform="matrix(10.0, 0.0, 0.0, 10.0, 0.0, 0.0)">
    <use height="60.0" transform="matrix(1.0, 0.0, 0.0, 1.0, 0.0, 0.0)" width="60.0" xlink:href="#shape0"/>
    <use height="56.0" transform="matrix(0.1627, -0.0136, 0.0285, 0.3406, 35.6958, 8.7441)" width="56.0" xlink:href="#sprite0"/>
    <use height="56.0" transform="matrix(0.0491, 0.0969, -0.2844, 0.1441, 38.7886, 25.4512)" width="56.0" xlink:href="#sprite0"/>
    <use height="56.0" transform="matrix(0.0455, 0.0508, -0.22, 0.1972, 17.0339, 40.2073)" width="56.0" xlink:href="#sprite0"/>
    <use height="56.0" transform="matrix(0.0708, 0.0462, -0.0317, 0.0486, 18.505, 32.1451)" width="56.0" xlink:href="#sprite0"/>
    <use height="56.0" transform="matrix(0.2662, 0.1737, -0.0646, 0.099, 39.8557, 21.5634)" width="56.0" xlink:href="#sprite0"/>
    <use height="56.0" transform="matrix(0.2591, 0.0141, -0.004, 0.0738, 38.7073, 16.5878)" width="56.0" xlink:href="#sprite0"/>
    <use height="56.0" transform="matrix(0.097, 0.1915, -0.0707, 0.0358, 35.2121, 27.6862)" width="56.0" xlink:href="#sprite0"/>
    <use height="56.0" transform="matrix(0.0031, -0.0558, -0.0889, -0.0048, 55.4545, 15.1987)" width="56.0" xlink:href="#sprite0"/>
    <use height="81.5" transform="matrix(0.0859, -0.0072, 0.0072, 0.0859, 41.45, 23.75)" width="81.5" xlink:href="#sprite1"/>
    <use height="81.5" transform="matrix(0.0631, -0.0053, 0.0053, 0.0631, 40.1, 16.65)" width="81.5" xlink:href="#sprite1"/>
    <use height="81.5" transform="matrix(0.0631, -0.0053, 0.0053, 0.0631, 15.8, 32.35)" width="81.5" xlink:href="#sprite1"/>
    <use height="81.5" transform="matrix(0.0421, -0.0035, 0.0035, 0.0421, 52.4, 11.5)" width="81.5" xlink:href="#sprite1"/>
    <use height="81.5" transform="matrix(0.0421, -0.0035, 0.0035, 0.0421, 35.95, 34.45)" width="81.5" xlink:href="#sprite1"/>
    <use height="81.5" transform="matrix(0.0421, -0.0035, 0.0035, 0.0421, 4.55, 49.95)" width="81.5" xlink:href="#sprite1"/>
    <use height="81.5" transform="matrix(0.0421, -0.0035, 0.0035, 0.0421, 42.4, 35.3)" width="81.5" xlink:href="#sprite1"/>
    <use height="81.5" transform="matrix(0.0421, -0.0035, 0.0035, 0.0421, 37.55, 12.05)" width="81.5" xlink:href="#sprite1"/>
    <use height="81.5" transform="matrix(0.0421, -0.0035, 0.0035, 0.0421, 45.9, 9.4)" width="81.5" xlink:href="#sprite1"/>
  </g>
  <defs>
    <g id="shape0" transform="matrix(1.0, 0.0, 0.0, 1.0, 0.0, 0.0)">
      <path d="M60.0 0.0 L60.0 60.0 0.0 60.0 0.0 0.0 60.0 0.0" fill="#795fa9" fill-opacity="0.0" fill-rule="evenodd" stroke="none"/>
      <path d="M53.4 11.3 L50.3 11.85 49.4 13.9 51.6 15.35 55.15 15.65 56.6 13.5 54.65 11.6 53.4 11.3 M44.0 6.05 L42.9 7.0 42.45 6.65 41.8 7.1 42.0 9.3 44.2 9.75 45.1 9.65 44.7 9.1 45.7 8.85 46.45 7.75 46.35 6.8 44.75 5.8 44.0 6.05 M42.3 12.15 L42.3 12.4 40.9 10.8 40.1 10.65 38.05 10.8 37.25 11.3 36.65 13.8 38.8 15.7 41.4 14.7 42.1 13.3 42.2 13.0 41.95 14.45 45.25 15.1 47.8 13.15 48.7 13.0 49.4 12.6 49.8 11.5 49.85 10.5 48.0 9.8 47.45 9.8 43.5 11.25 42.3 12.15 M47.1 16.05 L50.2 16.2 52.55 16.95 55.85 19.85 52.8 20.6 51.7 22.2 50.35 22.9 46.15 21.45 46.05 22.15 45.15 21.8 42.3 21.65 40.5 19.85 39.6 18.0 42.1 15.75 43.25 15.3 47.2 15.5 47.1 16.05 M41.65 23.2 L43.05 22.6 43.95 22.6 50.7 24.7 52.7 26.1 53.5 29.9 53.35 29.9 54.7 31.0 56.35 36.35 49.15 36.5 43.95 32.2 43.95 32.25 43.6 33.95 40.25 33.4 38.6 30.75 37.8 30.25 37.3 29.6 37.3 28.45 37.45 27.95 36.9 26.9 36.5 24.2 40.75 23.1 41.65 23.2 M42.4 36.45 L44.25 38.35 46.95 39.75 47.15 37.7 45.75 35.7 44.85 34.85 42.6 34.4 42.4 36.45 M19.25 28.1 L21.45 28.55 22.35 29.4 23.15 30.6 23.6 30.4 25.2 32.55 23.85 34.0 22.5 33.8 22.75 35.05 21.35 36.8 19.9 36.7 19.85 36.25 17.65 36.3 16.2 34.3 17.45 32.6 18.5 32.45 20.6 32.9 21.0 32.25 18.95 30.15 19.05 29.45 19.05 29.4 19.25 28.1 M13.3 46.85 L11.55 46.15 6.55 49.85 5.3 51.3 4.9 54.05 8.5 53.5 12.9 49.1 13.0 48.9 13.3 46.85 M37.45 30.1 L37.9 32.0 38.25 32.45 37.75 32.8 41.0 36.8 39.9 41.2 36.2 40.0 34.75 38.15 33.7 35.55 33.15 35.85 31.95 32.4 32.9 31.3 33.6 28.8 35.6 29.75 37.45 30.1" fill="none" stroke="#ee0000" stroke-linecap="round" stroke-linejoin="round" stroke-opacity="0.21960784" stroke-width="2.0"/>
      <path d="M21.45 28.55 L22.35 29.4 23.15 30.6 23.6 30.4 25.2 32.55 23.85 34.0 22.5 33.8 22.75 35.05 21.35 36.8 19.9 36.7 19.85 36.25 17.65 36.3 16.2 34.3 17.45 32.6 18.5 32.45 20.6 32.9 21.0 32.25 18.95 30.15 19.05 29.45 19.05 29.4 19.25 28.1 21.45 28.55 M35.6 29.75 L37.45 30.1 37.9 32.0 38.25 32.45 37.75 32.8 41.0 36.8 39.9 41.2 36.2 40.0 34.75 38.15 33.7 35.55 33.15 35.85 31.95 32.4 32.9 31.3 33.6 28.8 35.6 29.75 M11.55 46.15 L6.55 49.85 5.3 51.3 4.9 54.05 8.5 53.5 12.9 49.1 13.0 48.9 13.3 46.85 11.55 46.15 M42.9 7.0 L42.45 6.65 41.8 7.1 42.0 9.3 44.2 9.75 45.1 9.65 44.7 9.1 45.7 8.85 46.45 7.75 46.35 6.8 44.75 5.8 44.0 6.05 42.9 7.0 M47.45 9.8 L43.5 11.25 42.3 12.15 42.3 12.4 40.9 10.8 40.1 10.65 38.05 10.8 37.25 11.3 36.65 13.8 38.8 15.7 41.4 14.7 42.1 13.3 42.2 13.0 41.95 14.45 45.25 15.1 47.8 13.15 48.7 13.0 Q49.0 12.75 49.4 12.6 L49.8 11.5 49.85 10.5 48.0 9.8 47.45 9.8 M43.25 15.3 L47.2 15.5 47.1 16.05 50.2 16.2 52.55 16.95 55.85 19.85 52.8 20.6 51.7 22.2 50.35 22.9 46.15 21.45 46.05 22.15 45.15 21.8 42.3 21.65 40.5 19.85 39.6 18.0 42.1 15.75 43.25 15.3 M36.5 24.2 L40.75 23.1 41.65 23.2 43.05 22.6 43.95 22.6 50.7 24.7 52.7 26.1 53.5 29.9 53.35 29.9 54.7 31.0 56.35 36.35 49.15 36.5 43.95 32.2 43.95 32.25 43.6 33.95 40.25 33.4 38.6 30.75 37.8 30.25 37.3 29.6 37.3 28.45 37.45 27.95 36.9 26.9 36.5 24.2 M53.4 11.3 L50.3 11.85 49.4 13.9 51.6 15.35 55.15 15.65 56.6 13.5 54.65 11.6 53.4 11.3 M45.75 35.7 L44.85 34.85 42.6 34.4 42.4 36.45 44.25 38.35 46.95 39.75 47.15 37.7 45.75 35.7" fill="none" stroke="#ee0000" stroke-linecap="round" stroke-linejoin="round" stroke-opacity="0.21960784" stroke-width="5.0"/>
      <path d="M53.4 11.3 L50.3 11.85 49.4 13.9 51.6 15.35 55.15 15.65 56.6 13.5 54.65 11.6 53.4 11.3 M44.0 6.05 L42.9 7.0 42.45 6.65 41.8 7.1 42.0 9.3 44.2 9.75 45.1 9.65 44.7 9.1 45.7 8.85 46.45 7.75 46.35 6.8 44.75 5.8 44.0 6.05 M42.3 12.15 L42.3 12.4 40.9 10.8 40.1 10.65 38.05 10.8 37.25 11.3 36.65 13.8 38.8 15.7 41.4 14.7 42.1 13.3 42.2 13.0 41.95 14.45 45.25 15.1 47.8 13.15 48.7 13.0 49.4 12.6 49.8 11.5 49.85 10.5 48.0 9.8 47.45 9.8 43.5 11.25 42.3 12.15 M47.1 16.05 L50.2 16.2 52.55 16.95 55.85 19.85 52.8 20.6 51.7 22.2 50.35 22.9 46.15 21.45 46.05 22.15 45.15 21.8 42.3 21.65 40.5 19.85 39.6 18.0 42.1 15.75 43.25 15.3 47.2 15.5 47.1 16.05 M41.65 23.2 L43.05 22.6 43.95 22.6 50.7 24.7 52.7 26.1 53.5 29.9 53.35 29.9 54.7 31.0 56.35 36.35 49.15 36.5 43.95 32.2 43.95 32.25 43.6 33.95 40.25 33.4 38.6 30.75 37.8 30.25 37.3 29.6 37.3 28.45 37.45 27.95 36.9 26.9 36.5 24.2 40.75 23.1 41.65 23.2 M42.4 36.45 L44.25 38.35 46.95 39.75 47.15 37.7 45.75 35.7 44.85 34.85 42.6 34.4 42.4 36.45 M19.25 28.1 L21.45 28.55 22.35 29.4 23.15 30.6 23.6 30.4 25.2 32.55 23.85 34.0 22.5 33.8 22.75 35.05 21.35 36.8 19.9 36.7 19.85 36.25 17.65 36.3 16.2 34.3 17.45 32.6 18.5 32.45 20.6 32.9 21.0 32.25 18.95 30.15 19.05 29.45 19.05 29.4 19.25 28.1 M13.3 46.85 L11.55 46.15 6.55 49.85 5.3 51.3 4.9 54.05 8.5 53.5 12.9 49.1 13.0 48.9 13.3 46.85 M37.45 30.1 L37.9 32.0 38.25 32.45 37.75 32.8 41.0 36.8 39.9 41.2 36.2 40.0 34.75 38.15 33.7 35.55 33.15 35.85 31.95 32.4 32.9 31.3 33.6 28.8 35.6 29.75 37.45 30.1" fill="none" stroke="#ee0000" stroke-linecap="round" stroke-linejoin="round" stroke-opacity="0.21960784" stroke-width="1.5"/>
      <path d="M21.45 28.55 L22.35 29.4 23.15 30.6 23.4 30.5 23.6 30.4 23.6 30.45 23.95 30.3 Q25.95 32.35 29.4 30.4 36.25 25.4 36.65 19.25 L36.7 18.4 Q35.55 16.9 34.2 15.7 L38.75 6.45 41.75 6.05 42.45 6.65 42.9 7.05 44.0 6.05 44.75 5.8 46.35 6.8 46.45 7.75 45.7 8.85 44.7 9.1 45.1 9.65 45.05 9.65 45.55 10.55 47.45 9.8 48.0 9.8 49.85 10.5 49.8 11.5 49.4 12.6 Q49.0 12.75 48.7 13.0 L47.8 13.15 46.85 13.9 47.1 15.45 47.1 15.5 47.2 15.5 47.05 15.95 47.1 16.05 50.2 16.2 52.55 16.95 55.85 19.85 52.8 20.6 51.7 22.2 50.35 22.9 46.2 21.45 46.1 21.75 46.05 22.15 46.0 22.15 45.6 23.1 50.7 24.7 52.7 26.1 53.5 29.9 53.35 29.95 54.7 31.0 56.35 36.35 49.15 36.5 43.95 32.2 43.95 32.25 43.6 33.95 40.25 33.4 39.2 31.7 37.8 32.9 41.0 36.8 39.9 41.2 36.2 40.0 34.75 38.15 33.7 35.55 Q31.35 36.9 28.6 37.75 L27.7 37.9 25.6 36.35 25.5 36.3 25.5 36.4 24.0 36.8 Q23.45 37.6 23.65 38.5 23.75 39.1 24.15 39.7 L24.2 39.8 23.7 40.4 23.9 40.4 21.45 42.2 15.15 47.55 12.35 50.4 12.0 50.45 11.4 51.65 10.35 51.7 8.5 53.5 4.9 54.05 5.3 51.3 6.55 49.85 7.6 49.05 Q7.3 48.0 7.7 47.4 L9.4 47.05 9.5 46.8 10.9 45.8 12.7 44.15 19.75 36.5 19.75 36.95 19.85 36.7 19.8 36.25 17.65 36.3 16.2 34.3 17.45 32.6 18.5 32.45 20.25 32.85 20.35 32.9 20.6 32.9 21.0 32.25 18.95 30.15 19.05 29.45 19.05 29.4 19.25 28.1 21.45 28.55 M53.4 11.3 L50.3 11.85 49.4 13.9 51.6 15.35 55.15 15.65 56.6 13.5 54.65 11.6 53.4 11.3 M45.75 35.7 L44.85 34.85 42.6 34.4 42.4 36.45 44.25 38.35 46.95 39.75 47.15 37.7 45.75 35.7" fill="none" stroke="#000000" stroke-linecap="round" stroke-linejoin="round" stroke-opacity="0.3019608" stroke-width="1.0"/>
      <path d="M46.5 10.7 L43.5 11.25 47.45 9.8 48.0 9.8 49.85 10.5 49.8 11.5 49.1 11.6 46.85 12.7 45.55 13.3 45.25 15.1 41.95 14.45 42.3 12.15 45.55 13.3 45.7 12.85 46.6 10.85 48.65 10.55 46.5 10.7 M47.8 13.15 L48.5 12.35 49.1 11.6 48.7 13.0 47.8 13.15" fill="#650101" fill-rule="evenodd" stroke="none"/>
      <path d="M46.5 10.7 L45.7 12.85 45.55 13.3 42.3 12.15 43.5 11.25 46.5 10.7 M48.5 12.35 L47.8 13.15 45.25 15.1 45.55 13.3 46.85 12.7 48.7 11.95 48.5 12.35 M48.7 13.0 L49.1 11.6 49.8 11.5 49.4 12.6 Q49.0 12.75 48.7 13.0" fill="#990000" fill-rule="evenodd" stroke="none"/>
      <path d="M45.7 12.85 L46.5 10.7 48.65 10.55 46.6 10.85 45.7 12.85 M49.1 11.6 L48.5 12.35 48.7 11.95 46.85 12.7 49.1 11.6" fill="#fe8181" fill-rule="evenodd" stroke="none"/>
      <path d="M43.5 11.25 L42.3 12.15 41.95 14.45 45.25 15.1 47.8 13.15 48.7 13.0 M49.8 11.5 L49.85 10.5 48.0 9.8 47.45 9.8 43.5 11.25 M49.8 11.5 L49.4 12.6 Q49.0 12.75 48.7 13.0" fill="none" stroke="#000000" stroke-linecap="round" stroke-linejoin="round" stroke-opacity="0.3019608" stroke-width="0.30000000000000004"/>
      <path d="M37.3 28.45 L37.6 27.55 39.55 27.55 40.0 27.7 43.25 30.45 40.7 28.9 37.6 27.55 37.9 28.85 37.6 27.55 40.7 28.9 40.65 31.65 44.1 31.65 43.6 33.95 40.3 33.4 40.65 31.65 37.9 28.85 38.6 30.75 37.85 30.2 37.9 28.85 37.3 28.45" fill="#650101" fill-rule="evenodd" stroke="none"/>
      <path d="M43.25 30.45 L44.1 31.65 40.65 31.65 40.7 28.9 43.25 30.45 M40.3 33.4 L38.6 30.75 37.9 28.85 37.85 30.2 37.3 29.6 37.3 28.45 37.9 28.85 40.65 31.65 40.3 33.4" fill="#990000" fill-rule="evenodd" stroke="none"/>
      <path d="M37.9 28.85 L37.6 27.55 40.7 28.9 43.25 30.45 M40.3 33.4 L40.65 31.65 37.9 28.85 M40.7 28.9 L40.65 31.65 44.1 31.65" fill="none" stroke="#ff0000" stroke-linecap="round" stroke-linejoin="round" stroke-opacity="0.4" stroke-width="0.05"/>
      <path d="M37.3 28.45 L37.6 27.55 39.55 27.55 40.0 27.7 43.25 30.45 44.1 31.65 43.6 33.95 40.3 33.4 38.6 30.75 37.85 30.2 37.3 29.6 37.3 28.45" fill="none" stroke="#000000" stroke-linecap="round" stroke-linejoin="round" stroke-opacity="0.3019608" stroke-width="0.30000000000000004"/>
      <path d="M43.45 26.5 L41.35 25.7 43.65 28.15 42.15 27.9 41.35 25.7 40.15 25.5 40.05 23.9 43.05 22.6 43.95 22.6 50.7 24.7 49.7 24.6 45.7 24.0 40.05 23.9 40.15 24.0 45.6 24.25 47.05 28.1 43.45 26.5 M48.0 31.15 L47.9 30.6 47.8 28.3 52.45 26.55 53.45 29.7 53.5 29.9 48.0 31.15" fill="#650101" fill-rule="evenodd" stroke="none"/>
      <path d="M43.65 28.15 L41.35 25.7 43.45 26.5 47.5 28.65 47.9 30.6 48.0 31.15 43.65 28.15 M40.15 25.5 L41.35 25.7 42.15 27.9 40.9 27.25 40.15 25.5 M50.7 24.7 L52.7 26.1 47.4 28.25 45.85 24.3 49.7 24.6 50.7 24.7" fill="#990000" fill-rule="evenodd" stroke="none"/>
      <path d="M47.9 30.6 L47.5 28.65 43.45 26.5 47.05 28.1 45.6 24.25 40.15 24.0 40.05 23.9 45.7 24.0 49.7 24.6 45.85 24.3 47.4 28.25 52.7 26.1 53.45 29.7 52.45 26.55 47.8 28.3 47.9 30.6" fill="#fe8181" fill-rule="evenodd" stroke="none"/>
      <path d="M43.65 28.15 L48.0 31.15 M40.05 23.9 L40.15 25.5 40.9 27.25 42.15 27.9 43.65 28.15 M40.05 23.9 L43.05 22.6 43.95 22.6 50.7 24.7 52.7 26.1 53.45 29.7 53.5 29.9 48.0 31.15" fill="none" stroke="#000000" stroke-linecap="round" stroke-linejoin="round" stroke-opacity="0.3019608" stroke-width="0.30000000000000004"/>
      <path d="M6.55 49.85 L11.55 46.15 13.3 46.85 9.8 48.1 Q8.2 49.0 6.55 49.85 M13.3 46.85 L13.0 48.9 12.9 49.1 8.5 53.5 8.45 53.35 8.8 51.4 13.3 46.85" fill="#650101" fill-rule="evenodd" stroke="none"/>
      <path d="M9.8 48.1 L13.3 46.85 8.8 51.4 9.6 48.75 9.8 48.1" fill="#990000" fill-rule="evenodd" stroke="none"/>
      <path d="M8.5 53.5 L4.9 54.05 5.3 51.3 8.4 51.55 8.45 53.35 8.5 53.5" fill="#d41515" fill-rule="evenodd" stroke="none"/>
      <path d="M6.55 49.85 Q8.2 49.0 9.8 48.1 L9.6 48.75 8.4 51.4 5.3 51.3 6.55 49.85" fill="#be0505" fill-rule="evenodd" stroke="none"/>
      <path d="M9.6 48.75 L8.8 51.4 8.45 53.35 8.4 51.55 5.3 51.3 8.4 51.4 9.6 48.75" fill="#fe8181" fill-rule="evenodd" stroke="none"/>
      <path d="M13.3 46.85 L11.55 46.15 6.55 49.85 M13.3 46.85 L13.0 48.9 12.9 49.1 8.5 53.5 4.9 54.05 5.3 51.3 6.55 49.85" fill="none" stroke="#000000" stroke-linecap="round" stroke-linejoin="round" stroke-opacity="0.3019608" stroke-width="0.30000000000000004"/>
      <path d="M11.55 46.15 L6.55 49.85 5.3 51.3 4.9 54.05 8.5 53.5 12.9 49.1 13.0 48.9 13.3 46.85 11.55 46.15 M42.3 12.15 L41.95 14.45 45.25 15.1 47.8 13.15 48.7 13.0 Q49.0 12.75 49.4 12.6 L49.8 11.5 49.85 10.5 48.0 9.8 47.45 9.8 43.5 11.25 42.3 12.15 M40.05 23.9 L43.05 22.6 43.95 22.6 50.7 24.7 52.7 26.1 53.5 29.9 48.0 31.15 43.65 28.15 42.15 27.9 40.9 27.25 40.15 25.5 40.05 23.9 M44.05 31.7 L43.6 33.95 40.25 33.4 38.6 30.75 37.8 30.25 37.3 29.6 37.3 28.45 37.55 27.55 39.55 27.55 40.05 27.75 43.25 30.45 44.05 31.7" fill="none" stroke="#ff0000" stroke-linecap="round" stroke-linejoin="round" stroke-opacity="0.4117647" stroke-width="2.0"/>
      <path d="M19.95 39.35 Q18.4 41.4 10.95 48.45 L9.75 49.1 8.3 50.55 8.25 50.5 7.75 49.5 8.65 49.25 9.95 48.25 10.25 48.05 19.4 38.7 19.65 38.6 19.95 39.35" fill="#ffff98" fill-rule="evenodd" stroke="none"/>
      <path d="M9.75 49.1 L9.2 50.55 Q9.15 51.25 11.5 51.3 L11.4 51.6 Q9.85 51.9 8.3 50.55 L9.75 49.1 M7.95 47.3 L8.0 48.75 9.0 48.8 9.95 48.25 8.65 49.25 7.75 49.5 Q7.25 48.1 7.7 47.35 L7.95 47.3" fill="#ffde4f" fill-rule="evenodd" stroke="none"/>
      <path d="M19.95 39.35 L21.0 42.35 Q16.3 46.05 12.1 50.15 L11.5 51.3 Q9.15 51.25 9.2 50.55 L9.75 49.1 10.95 48.45 Q18.4 41.4 19.95 39.35 M7.95 47.3 L9.85 46.9 Q14.8 42.7 19.2 37.2 L19.65 38.6 19.4 38.7 10.25 48.05 9.95 48.25 9.0 48.8 8.0 48.75 7.95 47.3" fill="#eeb000" fill-rule="evenodd" stroke="none"/>
      <path d="M11.5 51.3 L12.1 50.15 Q16.3 46.05 21.0 42.35 M19.2 37.2 Q14.8 42.7 9.85 46.9 L7.95 47.3 7.7 47.35 Q7.25 48.1 7.75 49.5 L8.25 50.5 8.3 50.55 Q9.85 51.9 11.4 51.6 L11.5 51.3 Z" fill="none" stroke="#000000" stroke-linecap="round" stroke-linejoin="round" stroke-opacity="0.4" stroke-width="0.05"/>
      <path d="M25.5 36.3 L25.5 36.35 25.5 36.3 M19.6 35.0 L19.55 34.95 19.6 35.0" fill="#fff190" fill-rule="evenodd" stroke="none"/>
      <path d="M36.7 18.45 Q35.55 16.9 34.15 15.7 L38.7 6.45 41.75 6.05 42.8 7.0 Q40.6 6.0 40.0 6.65 39.65 7.05 39.95 7.75 43.05 11.0 44.4 14.45 45.25 15.25 46.05 15.45 46.75 15.25 46.75 13.75 L47.1 15.45 47.1 15.7 Q46.35 15.6 45.6 16.85 L45.6 19.25 Q45.4 22.0 44.2 24.5 43.15 27.0 41.1 29.4 39.45 31.4 37.15 33.25 L36.75 33.55 35.55 34.4 Q32.45 36.55 28.6 37.75 L31.05 36.45 31.35 36.35 Q32.85 34.35 30.1 34.6 28.1 35.55 25.8 36.3 L25.55 36.4 25.55 36.35 25.5 36.35 25.5 36.3 Q39.4 30.6 38.2 21.2 37.65 19.65 36.7 18.45 M19.55 34.95 Q20.75 32.3 22.2 30.85 24.2 32.55 27.6 31.6 24.55 33.1 22.2 31.55 20.95 32.75 19.6 35.0 L19.55 34.95 M37.65 14.8 Q36.8 16.65 37.4 19.1 L38.7 21.0 Q41.55 21.8 44.3 20.65 L44.35 20.1 Q44.3 19.8 44.4 19.55 L44.25 16.4 Q43.85 14.7 42.35 11.9 L40.3 8.9 38.75 7.05 34.7 15.5 36.75 17.55 Q36.9 15.8 37.65 14.8 M43.1 25.05 L43.25 24.65 44.0 22.15 Q41.8 21.25 39.0 22.25 L38.8 24.15 38.35 25.75 Q36.65 29.75 33.8 32.0 L32.45 33.2 Q31.8 34.35 33.8 34.8 36.65 33.7 39.2 30.95 L40.85 28.95 42.2 26.8 43.1 25.05" fill="#ffff98" fill-rule="evenodd" stroke="none"/>
      <path d="M42.8 7.0 Q45.75 9.8 46.75 13.75 46.75 15.25 46.05 15.45 45.25 15.25 44.4 14.45 43.05 11.0 39.95 7.75 39.65 7.05 40.0 6.65 40.6 6.0 42.8 7.0 M28.6 37.75 L27.7 37.9 25.55 36.4 25.8 36.3 27.9 37.25 31.05 36.45 28.6 37.75 M23.65 38.55 Q23.75 39.1 24.15 39.7 L24.2 39.8 Q22.15 37.45 20.9 37.65 20.4 37.9 21.1 39.7 20.6 38.75 20.3 37.4 20.6 36.6 23.65 38.55 M19.65 35.2 L19.55 35.05 19.55 34.95 19.6 35.0 Q20.95 32.75 22.2 31.55 24.55 33.1 27.6 31.6 L29.4 30.4 Q36.25 25.4 36.65 19.25 37.95 21.05 37.7 22.55 37.05 25.75 35.4 28.2 L35.2 28.4 34.15 29.8 33.3 30.65 32.6 31.25 29.75 33.1 29.3 33.35 Q26.3 34.8 23.55 35.35 L22.5 36.7 Q20.9 37.25 19.65 35.2 M42.35 11.9 Q38.8 12.3 37.75 14.5 L37.65 14.8 Q36.9 15.8 36.75 17.55 L34.7 15.5 38.75 7.05 40.3 8.9 42.35 11.9 M38.8 24.15 Q39.8 22.1 41.85 22.55 42.7 22.75 43.1 25.05 L42.2 26.8 40.85 28.95 39.2 30.95 Q36.65 33.7 33.8 34.8 31.8 34.35 32.45 33.2 L33.8 32.0 Q36.65 29.75 38.35 25.75 L38.8 24.15" fill="#ffde4f" fill-rule="evenodd" stroke="none"/>
      <path d="M47.1 15.7 L46.8 18.75 Q46.35 17.7 45.6 19.25 L45.6 16.85 Q46.35 15.6 47.1 15.7 M24.2 39.8 L22.45 41.25 Q21.6 40.7 21.1 39.7 20.4 37.9 20.9 37.65 22.15 37.45 24.2 39.8 M25.8 36.3 Q28.1 35.55 30.1 34.6 32.85 34.35 31.35 36.35 L31.05 36.45 27.9 37.25 25.8 36.3 M42.35 11.9 Q43.85 14.7 44.25 16.4 L44.4 19.55 Q44.3 19.8 44.35 20.1 L44.3 20.65 Q41.55 21.8 38.7 21.0 L37.4 19.1 Q36.8 16.65 37.65 14.8 L37.75 14.5 Q38.8 12.3 42.35 11.9 M43.1 25.05 Q42.7 22.75 41.85 22.55 39.8 22.1 38.8 24.15 L39.0 22.25 Q41.8 21.25 44.0 22.15 L43.25 24.65 43.1 25.05" fill="#eeb000" fill-rule="evenodd" stroke="none"/>
      <path d="M46.8 18.75 Q45.95 23.8 43.15 27.45 40.15 31.2 37.15 33.35 L35.55 34.4 36.75 33.55 37.15 33.25 Q39.45 31.4 41.1 29.4 43.15 27.0 44.2 24.5 45.4 22.0 45.6 19.25 46.35 17.7 46.8 18.75 M17.65 42.5 L16.55 41.25 19.7 36.9 20.5 39.6 17.65 42.5 M22.2 30.85 L23.95 30.3 Q25.95 32.35 29.4 30.4 L27.6 31.6 Q24.2 32.55 22.2 30.85" fill="#c08602" fill-rule="evenodd" stroke="none"/>
      <path d="M25.5 36.4 L23.95 36.8 Q23.45 37.6 23.65 38.55 20.6 36.6 20.3 37.4 20.6 38.75 21.1 39.7 21.6 40.7 22.45 41.25 L21.25 42.05 18.7 43.6 17.65 42.5 20.5 39.6 19.7 36.9 19.85 36.75 19.65 35.2 Q20.9 37.25 22.5 36.7 L23.55 35.35 Q26.3 34.8 29.3 33.35 L29.75 33.1 32.6 31.25 33.3 30.65 34.15 29.8 35.2 28.4 35.4 28.2 Q37.05 25.75 37.7 22.55 37.95 21.05 36.65 19.25 L36.7 18.45 Q37.65 19.65 38.2 21.2 39.4 30.6 25.5 36.3 L25.5 36.4" fill="#9d7200" fill-rule="evenodd" stroke="none"/>
      <path d="M36.7 18.45 Q35.55 16.9 34.15 15.7 L38.7 6.45 41.75 6.05 42.8 7.0 Q45.75 9.8 46.75 13.75 L47.1 15.45 47.1 15.7 46.8 18.75 Q45.95 23.8 43.15 27.45 40.15 31.2 37.15 33.35 L35.55 34.4 Q32.45 36.55 28.6 37.75 L27.7 37.9 25.55 36.4 25.55 36.35 25.5 36.4 23.95 36.8 Q23.45 37.6 23.65 38.55 23.75 39.1 24.15 39.7 L24.2 39.8 22.45 41.25 21.25 42.05 18.7 43.6 17.65 42.5 16.55 41.25 19.7 36.9 19.85 36.75 19.65 35.2 19.55 35.05 19.55 34.95 Q20.75 32.3 22.2 30.85 L23.95 30.3 Q25.95 32.35 29.4 30.4 36.25 25.4 36.65 19.25 L36.7 18.45 Q37.65 19.65 38.2 21.2 39.4 30.6 25.5 36.3 L25.5 36.35 25.55 36.35" fill="none" stroke="#000000" stroke-linecap="round" stroke-linejoin="round" stroke-opacity="0.4" stroke-width="0.05"/>
      <path d="M15.2 44.35 Q14.85 43.9 14.9 42.95 L15.7 42.0 Q15.75 42.55 16.15 43.2 L16.75 43.65 16.15 43.2 Q15.75 42.55 15.7 42.0 L17.8 39.3 19.1 37.75 20.1 39.5 20.75 40.05 20.75 40.1 19.15 41.5 18.6 41.0 17.8 39.3 18.6 41.0 19.15 41.5 16.75 43.65 15.55 44.75 15.2 44.35" fill="#cfcfab" fill-rule="evenodd" stroke="none"/>
      <path d="M9.7 49.2 Q8.7 47.75 9.55 46.7 L10.9 45.75 12.65 44.1 13.9 42.85 15.75 40.8 17.75 38.45 19.75 36.45 Q19.65 36.65 19.7 36.95 19.75 37.5 20.15 38.15 L20.7 39.0 20.1 39.5 19.1 37.75 17.8 39.3 17.75 38.45 17.8 39.3 15.7 42.0 14.9 42.95 Q14.85 43.9 15.2 44.35 L14.55 44.95 14.5 44.9 Q13.95 44.3 13.85 43.65 L13.9 42.85 13.85 43.65 Q13.95 44.3 14.5 44.9 L14.55 44.95 13.05 46.25 11.15 47.95 9.7 49.2 M22.65 40.2 L23.9 40.3 21.45 42.15 19.35 43.95 17.0 45.85 15.1 47.5 13.45 49.1 12.35 50.4 11.25 50.3 12.55 49.05 13.45 49.1 12.55 49.05 14.25 47.45 16.0 45.75 16.45 45.2 17.9 44.05 20.4 42.05 22.65 40.2 M10.9 45.75 Q10.45 47.05 11.15 47.95 10.45 47.05 10.9 45.75 M15.75 40.8 L15.7 42.0 15.75 40.8 M12.65 44.1 Q12.45 45.35 13.05 46.25 12.45 45.35 12.65 44.1 M17.0 45.85 L16.9 45.85 16.0 45.75 16.9 45.85 17.0 45.85 M15.1 47.5 L14.25 47.45 15.1 47.5 M21.45 42.15 L21.35 42.15 20.4 42.05 21.35 42.15 21.45 42.15 M19.35 43.95 L17.9 44.05 19.35 43.95" fill="#a29e88" fill-rule="evenodd" stroke="none"/>
      <path d="M20.7 39.0 L20.95 39.25 Q21.75 40.0 22.65 40.2 L20.4 42.05 Q19.75 41.85 19.15 41.5 19.75 41.85 20.4 42.05 L17.9 44.05 16.45 45.2 16.0 45.75 14.25 47.45 Q13.55 47.2 13.05 46.3 L13.05 46.25 13.05 46.3 Q13.55 47.2 14.25 47.45 L12.55 49.05 Q11.75 48.9 11.3 48.15 L11.15 47.95 13.05 46.25 14.55 44.95 15.2 44.35 15.55 44.75 16.75 43.65 19.15 41.5 20.75 40.1 20.75 40.05 20.1 39.5 20.7 39.0 M11.25 50.3 L9.75 49.25 9.7 49.2 11.15 47.95 11.3 48.15 Q11.75 48.9 12.55 49.05 L11.25 50.3 M14.55 44.95 Q15.2 45.5 16.0 45.75 15.2 45.5 14.55 44.95 M17.9 44.05 Q17.3 44.0 16.75 43.65 17.3 44.0 17.9 44.05" fill="#8e8871" fill-rule="evenodd" stroke="none"/>
      <path d="M11.15 47.95 Q10.45 47.05 10.9 45.75 M14.55 44.95 L14.5 44.9 Q13.95 44.3 13.85 43.65 L13.9 42.85 M16.75 43.65 L16.15 43.2 Q15.75 42.55 15.7 42.0 L15.75 40.8 M12.55 49.05 Q11.75 48.9 11.3 48.15 L11.15 47.95 M13.05 46.25 Q12.45 45.35 12.65 44.1 M16.0 45.75 L16.9 45.85 17.0 45.85 M13.05 46.25 L13.05 46.3 Q13.55 47.2 14.25 47.45 L15.1 47.5 M16.0 45.75 Q15.2 45.5 14.55 44.95 M20.4 42.05 L21.35 42.15 21.45 42.15 M17.8 39.3 L18.6 41.0 19.15 41.5 Q19.75 41.85 20.4 42.05 M17.9 44.05 L19.35 43.95 M16.75 43.65 Q17.3 44.0 17.9 44.05 M17.8 39.3 L17.75 38.45 M13.45 49.1 L12.55 49.05" fill="none" stroke="#000000" stroke-linecap="round" stroke-linejoin="round" stroke-opacity="0.2" stroke-width="0.05"/>
      <path d="M9.7 49.2 Q8.7 47.75 9.55 46.7 L10.9 45.75 12.65 44.1 13.9 42.85 15.75 40.8 17.75 38.45 19.75 36.45 Q19.65 36.65 19.7 36.95 M20.15 38.15 L20.7 39.0 20.95 39.25 Q21.75 40.0 22.65 40.2 L23.9 40.3 21.45 42.15 19.35 43.95 17.0 45.85 15.1 47.5 13.45 49.1 12.35 50.4 11.25 50.3 9.75 49.25 9.7 49.2" fill="none" stroke="#000000" stroke-linecap="round" stroke-linejoin="round" stroke-opacity="0.4" stroke-width="0.05"/>
      <path d="M33.15 35.85 L31.95 32.4 32.9 31.3 33.6 28.8 35.6 29.75 37.45 30.1 37.9 32.0 38.25 32.45 34.05 35.35 33.15 35.85 M23.6 30.4 L25.2 32.55 23.85 34.0 22.5 33.8 22.75 35.05 21.35 36.8 19.9 36.7 19.55 34.55 21.35 31.75 22.25 31.0 23.6 30.4 M45.1 9.65 L44.2 9.75 42.0 9.3 41.8 7.1 42.45 6.65 Q44.1 8.05 45.1 9.65 M46.05 22.15 L45.15 21.8 42.3 21.65 40.5 19.85 39.6 18.0 42.1 15.75 43.25 15.3 47.2 15.5 46.05 22.15 M42.1 13.3 L41.4 14.7 38.8 15.7 36.65 13.8 37.25 11.3 38.05 10.8 40.1 10.65 40.9 10.8 42.3 12.4 42.1 13.3 M40.15 30.8 L38.5 29.75 36.9 26.9 36.5 24.2 40.75 23.1 42.5 23.35 45.0 24.75 40.15 30.8" fill="#6b2e14" fill-rule="evenodd" stroke="none"/>
      <path d="M33.15 35.85 L31.95 32.4 32.9 31.3 33.6 28.8 35.6 29.75 37.45 30.1 37.9 32.0 38.25 32.45 M23.6 30.4 L25.2 32.55 23.85 34.0 22.5 33.8 22.75 35.05 21.35 36.8 19.9 36.7 M45.1 9.65 L44.2 9.75 42.0 9.3 41.8 7.1 42.45 6.65 M46.05 22.15 L45.15 21.8 42.3 21.65 40.5 19.85 39.6 18.0 42.1 15.75 43.25 15.3 47.2 15.5 M42.1 13.3 L41.4 14.7 38.8 15.7 36.65 13.8 37.25 11.3 38.05 10.8 40.1 10.65 40.9 10.8 42.3 12.4 42.1 13.3 M40.15 30.8 L38.5 29.75 36.9 26.9 36.5 24.2 40.75 23.1 42.5 23.35 45.0 24.75" fill="none" stroke="#883a1a" stroke-linecap="round" stroke-linejoin="round" stroke-opacity="0.4627451" stroke-width="1.0"/>
      <path d="M22.35 29.4 L24.5 32.55 23.5 33.45 21.75 33.0 18.95 30.15 20.7 30.5 22.15 32.0 23.5 33.45 23.2 31.35 23.1 31.25 22.35 29.4 M34.75 38.15 L32.55 32.5 33.3 31.65 34.0 29.35 33.95 33.9 34.55 37.05 34.75 38.15 M34.0 29.35 L35.6 30.2 35.45 31.3 37.35 32.3 39.25 34.65 Q36.6 32.1 36.85 33.85 L34.0 29.4 34.0 29.35 M21.95 34.9 L22.1 34.9 21.0 36.2 17.65 36.3 17.75 36.25 18.65 35.05 21.95 34.9 M22.1 34.9 L20.35 33.4 18.5 32.45 21.8 33.15 22.1 34.9 M44.0 6.05 L43.6 6.7 43.1 7.35 42.85 8.0 42.45 8.95 42.85 8.75 Q43.85 8.3 44.95 7.8 L45.7 8.85 44.05 9.2 42.45 8.95 42.4 7.35 44.0 6.05 M46.75 16.0 L48.2 16.25 46.15 16.65 45.4 16.8 44.95 16.9 42.55 17.5 40.25 18.0 42.45 16.15 43.25 15.85 46.75 16.0 M38.9 15.05 L39.1 14.35 39.5 13.65 40.45 13.15 Q41.1 12.85 41.8 12.6 L40.05 11.6 38.45 11.15 40.5 11.05 41.8 12.6 40.95 14.2 Q39.9 14.65 38.9 15.05 M40.7 30.5 L39.2 27.3 37.5 26.7 37.1 24.55 40.95 23.7 42.2 23.9 51.7 28.6 44.8 26.3 37.1 24.55 38.15 25.9 39.2 27.3 39.8 28.0 42.75 31.25 40.7 30.5 M43.1 18.85 L48.65 20.35 50.35 22.9 45.45 21.15 43.1 18.85 41.05 19.5 40.25 18.0 42.4 18.65 43.1 18.85 M53.4 11.3 L52.75 11.6 51.3 12.25 50.25 13.2 49.4 13.9 50.3 11.85 53.4 11.3 M55.15 15.65 L51.6 15.35 49.4 13.9 50.2 13.95 53.0 14.2 53.5 14.25 54.1 14.65 55.15 15.65 M42.4 36.45 L42.65 36.5 44.1 36.8 46.95 39.75 46.55 37.8 45.75 35.7 47.15 37.7 46.95 39.75 44.25 38.35 42.4 36.45" fill="#650101" fill-rule="evenodd" stroke="none"/>
      <path d="M19.05 29.4 L19.25 28.1 21.45 28.55 21.15 29.25 20.6 30.25 19.2 29.95 19.05 29.4 M34.75 38.15 L34.55 37.05 35.2 36.1 Q35.45 35.35 34.9 34.35 L36.9 35.3 Q36.05 35.75 35.6 36.55 35.05 37.45 35.25 38.85 L34.75 38.15 M41.0 36.8 L39.9 41.2 36.2 40.0 38.1 35.95 41.0 36.8 M17.75 36.25 L17.65 36.3 16.2 34.3 17.45 32.6 17.55 32.85 18.55 34.8 17.75 36.25 M44.8 6.25 L44.75 5.8 46.35 6.8 46.45 7.75 45.7 8.85 44.9 7.45 44.8 6.25 M38.05 11.95 L39.25 13.6 39.1 14.35 38.9 15.05 37.2 13.45 37.75 11.55 38.05 11.95 M49.45 36.5 L49.15 36.5 47.8 32.45 54.5 31.1 55.75 35.95 49.45 36.5 M46.15 34.1 Q45.15 33.2 44.15 32.45 L44.3 32.05 Q44.45 31.25 43.4 30.15 L46.15 31.8 Q45.65 31.9 45.75 32.65 L46.15 34.1 M48.65 20.35 L51.1 18.75 51.7 21.9 50.9 22.65 50.35 22.9 48.65 20.35 M51.25 18.55 L52.55 16.95 55.85 19.85 55.75 19.85 54.5 20.0 51.25 18.55 M54.55 11.95 L54.65 11.6 56.6 13.5 56.05 14.3 55.1 15.35 53.9 14.15 54.55 11.95 M44.85 34.85 L44.75 35.0 44.15 36.55 42.65 36.5 42.4 36.45 42.6 34.4 44.85 34.85" fill="#d41515" fill-rule="evenodd" stroke="none"/>
      <path d="M21.45 28.55 L22.35 29.4 23.1 31.25 20.8 30.25 21.15 29.25 21.45 28.55 M34.55 37.05 L33.95 33.9 34.05 33.95 Q34.5 34.1 34.9 34.35 35.45 35.35 35.2 36.1 L34.55 37.05 M36.2 40.0 L35.25 38.85 Q35.05 37.45 35.6 36.55 36.05 35.75 36.9 35.3 L37.8 35.75 36.2 40.0 M22.1 34.9 L21.95 34.9 18.9 34.8 19.95 33.75 20.35 33.4 22.1 34.9 M42.45 8.95 L42.85 8.0 43.2 7.55 44.5 7.9 42.85 8.75 42.45 8.95 M42.55 17.5 L44.95 16.9 Q44.4 17.55 44.45 18.1 44.5 18.75 45.25 19.3 L43.45 18.85 Q43.9 18.45 43.75 18.15 43.55 17.75 42.55 17.5 M47.45 16.5 L50.2 16.2 51.4 16.6 52.2 17.0 50.95 18.4 48.3 19.95 47.55 19.15 Q46.15 17.25 47.45 16.5 M40.45 13.15 L39.5 13.5 39.35 13.35 39.8 12.25 40.05 11.6 41.8 12.6 Q41.1 12.85 40.45 13.15 M42.75 31.25 L39.8 28.0 43.4 30.15 Q44.45 31.25 44.3 32.05 L44.15 32.45 42.9 31.4 42.85 31.4 42.75 31.25 M39.2 27.3 L38.15 25.9 37.7 25.0 42.2 25.95 Q40.9 27.2 42.65 29.35 L39.2 27.3 M49.15 36.5 L46.15 34.1 45.75 32.65 Q45.65 31.9 46.15 31.8 L47.4 32.6 49.15 36.5 M51.1 18.75 L51.25 18.55 54.5 20.0 52.5 20.25 51.7 21.9 51.1 18.75 M49.4 13.9 L50.25 13.2 51.4 12.55 53.05 14.0 50.2 13.95 49.4 13.9 M51.65 29.0 L53.7 30.85 48.0 31.95 45.65 27.8 45.25 26.65 47.35 27.2 51.65 29.0 M44.75 35.0 L44.85 34.85 45.75 35.7 46.55 37.8 46.1 37.5 44.55 36.75 44.75 35.0" fill="#be0505" fill-rule="evenodd" stroke="none"/>
      <path d="M20.35 33.4 L19.95 33.75 18.7 34.7 17.55 32.85 17.45 32.6 18.5 32.45 20.35 33.4 M43.6 6.7 L44.0 6.05 44.75 5.8 44.8 6.25 44.65 7.8 43.25 7.4 43.6 6.7 M38.05 11.95 L37.75 11.55 38.45 11.15 40.05 11.6 39.8 12.25 39.2 13.25 38.05 11.95 M52.75 11.6 L53.4 11.3 54.65 11.6 54.55 11.95 53.65 14.1 51.5 12.45 52.75 11.6" fill="#a40404" fill-rule="evenodd" stroke="none"/>
      <path d="M33.95 33.9 L34.0 29.35 34.0 29.4 37.6 35.4 34.05 33.95 33.95 33.9 M35.6 30.2 L37.0 30.45 37.35 32.3 35.45 31.3 35.6 30.2 M39.25 34.65 L40.95 36.75 37.9 35.5 36.85 33.85 Q36.6 32.1 39.25 34.65 M23.2 31.35 L23.5 33.45 22.15 32.0 21.0 30.6 23.2 31.35 M40.25 18.0 L42.55 17.5 Q43.55 17.75 43.75 18.15 43.9 18.45 43.45 18.85 L43.15 18.8 42.4 18.65 40.25 18.0 M44.95 16.9 L45.4 16.8 46.15 16.65 47.45 16.5 Q46.15 17.25 47.55 19.15 L47.15 18.7 47.9 19.95 45.25 19.3 Q44.5 18.75 44.45 18.1 44.4 17.55 44.95 16.9 M37.5 26.7 L39.2 27.3 40.7 30.5 38.9 29.25 37.5 26.7 M42.2 25.95 L44.8 26.55 45.95 28.65 45.55 29.45 Q44.95 30.0 43.85 30.05 L42.65 29.35 Q40.9 27.2 42.2 25.95 M41.05 19.5 L43.1 18.85 45.45 21.15 42.45 21.0 41.05 19.5 M47.8 32.45 L45.7 31.15 Q44.8 30.3 45.3 30.0 45.85 29.65 46.4 29.55 L47.8 32.45 M45.7 38.3 Q45.25 37.55 45.75 37.45 L46.4 37.85 46.7 39.35 45.7 38.3" fill="#990000" fill-rule="evenodd" stroke="none"/>
      <path d="M43.15 18.8 L43.1 18.85 42.4 18.65 43.15 18.8" fill="#fedede" fill-rule="evenodd" stroke="none"/>
      <path d="M18.95 30.15 L19.05 29.4 19.2 29.95 20.6 30.25 21.15 29.25 20.8 30.25 23.1 31.25 23.2 31.35 21.0 30.6 22.15 32.0 20.7 30.5 18.95 30.15 M40.95 36.75 L41.0 36.8 38.1 35.95 36.2 40.0 37.8 35.75 36.9 35.3 34.9 34.35 Q34.5 34.1 34.05 33.95 L37.6 35.4 34.0 29.4 36.85 33.85 37.9 35.5 40.95 36.75 M21.95 34.9 L18.65 35.05 17.75 36.25 18.55 34.8 17.55 32.85 18.7 34.7 19.95 33.75 18.9 34.8 21.95 34.9 M43.6 6.7 L43.25 7.4 44.65 7.8 44.8 6.25 44.9 7.45 45.7 8.85 44.95 7.8 Q43.85 8.3 42.85 8.75 L44.5 7.9 43.2 7.55 42.85 8.0 43.1 7.35 43.6 6.7 M46.15 16.65 L48.2 16.25 46.75 16.0 50.2 16.2 47.45 16.5 46.15 16.65 M39.1 14.35 L39.25 13.6 38.05 11.95 39.2 13.25 39.8 12.25 39.35 13.35 39.5 13.5 40.45 13.15 39.5 13.65 39.1 14.35 M39.8 28.0 L39.2 27.3 42.65 29.35 43.85 30.05 Q44.95 30.0 45.55 29.45 L45.95 28.65 44.8 26.55 42.2 25.95 37.7 25.0 38.15 25.9 37.1 24.55 44.8 26.3 51.7 28.6 54.7 31.0 56.35 36.35 49.45 36.5 55.75 35.95 54.5 31.1 47.8 32.45 46.4 29.55 Q45.85 29.65 45.3 30.0 44.8 30.3 45.7 31.15 L47.8 32.45 49.15 36.5 47.4 32.6 46.15 31.8 43.4 30.15 39.8 28.0 M45.25 19.3 L47.9 19.95 47.15 18.7 47.55 19.15 48.3 19.95 50.95 18.4 52.2 17.0 51.4 16.6 52.55 16.95 51.25 18.55 51.1 18.75 48.65 20.35 43.1 18.85 43.15 18.8 43.45 18.85 45.25 19.3 M52.75 11.6 L51.5 12.45 53.65 14.1 54.55 11.95 53.9 14.15 55.1 15.35 56.05 14.3 55.15 15.65 54.1 14.65 53.5 14.25 53.0 14.2 50.2 13.95 53.05 14.0 51.4 12.55 50.25 13.2 51.3 12.25 52.75 11.6 M54.5 20.0 L55.75 19.85 52.8 20.6 51.7 22.2 50.9 22.65 51.7 21.9 52.5 20.25 54.5 20.0 M51.65 29.0 L47.35 27.2 45.25 26.65 45.65 27.8 48.0 31.95 53.7 30.85 51.65 29.0 M42.65 36.5 L44.15 36.55 44.75 35.0 44.55 36.75 46.1 37.5 46.55 37.8 46.95 39.75 44.1 36.8 42.65 36.5 M45.7 38.3 L46.7 39.35 46.4 37.85 45.75 37.45 Q45.25 37.55 45.7 38.3" fill="#fe8181" fill-rule="evenodd" stroke="none"/>
      <path d="M19.05 29.4 L19.25 28.1 21.45 28.55 22.35 29.4 24.5 32.55 23.5 33.45 21.75 33.0 18.95 30.15 19.05 29.4 M34.0 29.35 L33.3 31.65 32.55 32.5 34.75 38.15 M34.0 29.35 L35.6 30.2 37.0 30.45 37.35 32.3 39.25 34.65 40.95 36.75 41.0 36.8 39.9 41.2 36.2 40.0 35.25 38.85 34.75 38.15 M17.65 36.3 L21.0 36.2 22.1 34.9 21.8 33.15 18.5 32.45 M17.45 32.6 L16.2 34.3 17.65 36.3 M17.45 32.6 L18.5 32.45 M44.75 5.8 L44.0 6.05 42.4 7.35 42.45 8.95 M44.75 5.8 L46.35 6.8 46.45 7.75 45.7 8.85 44.05 9.2 42.45 8.95 M46.75 16.0 L43.25 15.85 42.45 16.15 40.25 18.0 41.05 19.5 M50.2 16.2 L46.75 16.0 M37.75 11.55 L37.2 13.45 38.9 15.05 M41.8 12.6 L40.5 11.05 38.45 11.15 37.75 11.55 M41.8 12.6 L40.95 14.2 Q39.9 14.65 38.9 15.05 M37.5 26.7 L38.9 29.25 40.7 30.5 42.75 31.25 M37.1 24.55 L37.5 26.7 M37.1 24.55 L40.95 23.7 42.2 23.9 51.7 28.6 54.7 31.0 56.35 36.35 49.45 36.5 49.15 36.5 46.15 34.1 Q45.15 33.2 44.15 32.45 L42.9 31.4 M42.85 31.4 L42.75 31.25 M51.4 16.6 L50.2 16.2 M52.55 16.95 L51.4 16.6 M45.45 21.15 L50.35 22.9 M45.45 21.15 L42.45 21.0 41.05 19.5 M54.65 11.6 L53.4 11.3 50.3 11.85 49.4 13.9 51.6 15.35 55.15 15.65 M56.05 14.3 L55.15 15.65 M56.05 14.3 L56.6 13.5 54.65 11.6 M50.9 22.65 L51.7 22.2 52.8 20.6 55.75 19.85 55.85 19.85 52.55 16.95 M50.9 22.65 L50.35 22.9 M44.85 34.85 L42.6 34.4 42.4 36.45 M45.75 35.7 L44.85 34.85 M46.95 39.75 L47.15 37.7 45.75 35.7 M46.95 39.75 L44.25 38.35 42.4 36.45" fill="none" stroke="#000000" stroke-linecap="round" stroke-linejoin="round" stroke-opacity="0.3019608" stroke-width="0.30000000000000004"/>
      <path d="M21.45 28.55 L22.35 29.4 24.5 32.55 23.5 33.45 21.75 33.0 18.95 30.15 19.25 28.1 21.45 28.55 M34.0 29.35 L33.3 31.65 32.55 32.5 34.75 38.15 36.2 40.0 39.9 41.2 41.0 36.8 37.35 32.3 37.0 30.45 35.6 30.2 34.0 29.35 M21.8 33.15 L18.5 32.45 17.45 32.6 16.2 34.3 17.65 36.3 21.0 36.2 22.1 34.9 21.8 33.15 M42.4 7.35 L44.0 6.05 44.75 5.8 46.35 6.8 46.45 7.75 45.7 8.85 44.05 9.2 42.45 8.95 42.4 7.35 M43.25 15.85 L50.2 16.2 52.55 16.95 55.85 19.85 52.8 20.6 51.7 22.2 50.35 22.9 45.45 21.15 42.45 21.0 41.05 19.5 40.25 18.0 42.45 16.15 43.25 15.85 M38.45 11.15 L37.75 11.55 37.2 13.45 38.9 15.05 Q39.9 14.65 40.95 14.2 L41.8 12.6 40.5 11.05 38.45 11.15 M37.1 24.55 L40.95 23.7 42.2 23.9 51.7 28.6 54.7 31.0 56.35 36.35 49.15 36.5 42.75 31.25 40.7 30.5 38.9 29.25 37.5 26.7 37.1 24.55 M53.4 11.3 L50.3 11.85 49.4 13.9 51.6 15.35 55.15 15.65 56.6 13.5 54.65 11.6 53.4 11.3 M45.75 35.7 L44.85 34.85 42.6 34.4 42.4 36.45 44.25 38.35 46.95 39.75 47.15 37.7 45.75 35.7" fill="none" stroke="#cc0000" stroke-linecap="round" stroke-linejoin="round" stroke-opacity="0.44313726" stroke-width="2.0"/>
    </g>
    <g id="sprite0" transform="matrix(1.0, 0.0, 0.0, 1.0, 28.0, 28.0)">
      <use height="56.0" transform="matrix(1.0, 0.0, 0.0, 1.0, -28.0, -28.0)" width="56.0" xlink:href="#shape1"/>
    </g>
    <g id="shape1" transform="matrix(1.0, 0.0, 0.0, 1.0, 28.0, 28.0)">
      <path d="M19.8 -19.8 Q28.0 -11.6 28.0 0.0 28.0 11.6 19.8 19.8 11.6 28.0 0.0 28.0 -11.6 28.0 -19.8 19.8 -28.0 11.6 -28.0 0.0 -28.0 -11.6 -19.8 -19.8 -11.6 -28.0 0.0 -28.0 11.6 -28.0 19.8 -19.8" fill="url(#gradient0)" fill-rule="evenodd" stroke="none"/>
    </g>
    <radialGradient cx="0" cy="0" gradientTransform="matrix(0.0349, 0.0, 0.0, 0.0349, 0.0, 0.0)" gradientUnits="userSpaceOnUse" id="gradient0" r="819.2" spreadMethod="pad">
      <stop offset="0.0" stop-color="#fff6b2" stop-opacity="0.8"/>
      <stop offset="1.0" stop-color="#fff6b2" stop-opacity="0.0"/>
    </radialGradient>
    <g id="sprite1" transform="matrix(1.0, 0.0, 0.0, 1.0, 0.0, 0.0)">
      <use height="26.7" transform="matrix(0.0042, -1.3515, 1.3935, 0.02, 22.09, 56.0263)" width="26.7" xlink:href="#sprite2"/>
      <use height="26.7" transform="matrix(0.0095, -3.0486, 0.372, 0.0053, 36.507, 81.3775)" width="26.7" xlink:href="#sprite2"/>
      <use height="26.7" transform="matrix(3.0486, 0.0095, -0.0053, 0.372, 0.1225, 31.607)" width="26.7" xlink:href="#sprite2"/>
    </g>
    <g id="sprite2" transform="matrix(1.0, 0.0, 0.0, 1.0, 13.35, 13.35)">
      <use height="26.7" transform="matrix(1.0, 0.0, 0.0, 1.0, -13.35, -13.35)" width="26.7" xlink:href="#shape2"/>
    </g>
    <g id="shape2" transform="matrix(1.0, 0.0, 0.0, 1.0, 13.35, 13.35)">
      <path d="M9.3 -9.85 Q13.35 -5.8 13.35 0.0 13.35 5.8 9.3 9.3 5.8 13.35 0.0 13.35 -5.8 13.35 -9.85 9.3 -13.35 5.8 -13.35 0.0 -13.35 -5.8 -9.85 -9.85 -5.8 -13.35 0.0 -13.35 5.8 -13.35 9.3 -9.85" fill="url(#gradient1)" fill-rule="evenodd" stroke="none"/>
    </g>
    <radialGradient cx="0" cy="0" gradientTransform="matrix(0.0213, 0.0, 0.0, 0.0213, 0.0, 0.0)" gradientUnits="userSpaceOnUse" id="gradient1" r="819.2" spreadMethod="pad">
      <stop offset="0.19607843137254902" stop-color="#ff6600"/>
      <stop offset="0.5019607843137255" stop-color="#ff6600" stop-opacity="0.16078432"/>
      <stop offset="0.7607843137254902" stop-color="#ff6600" stop-opacity="0.0"/>
    </radialGradient>
  </defs>
</svg>
