<?xml version="1.0" encoding="UTF-8" standalone="no"?>
<svg xmlns:xlink="http://www.w3.org/1999/xlink" height="440.0px" width="440.0px" xmlns="http://www.w3.org/2000/svg">
  <g transform="matrix(10.0, 0.0, 0.0, 10.0, 0.0, 0.0)">
    <use height="44.0" transform="matrix(1.0, 0.0, 0.0, 1.0, 0.0, 0.0)" width="44.0" xlink:href="#shape0"/>
    <use height="135.4" transform="matrix(-0.1626, 0.0, 0.0, 0.1614, 38.5081, 4.05)" width="152.2" xlink:href="#sprite0"/>
    <use height="113.9" transform="matrix(-0.1626, 0.0, 0.0, 0.1614, 36.8, 6.55)" width="128.25" xlink:href="#sprite1"/>
    <use height="38.7" transform="matrix(1.0, 0.0, 0.0, 1.0, 3.75, 2.5)" width="36.35" xlink:href="#shape3"/>
  </g>
  <defs>
    <g id="shape0" transform="matrix(1.0, 0.0, 0.0, 1.0, 0.0, 0.0)">
      <path d="M44.0 44.0 L0.0 44.0 0.0 0.0 44.0 0.0 44.0 44.0" fill="#43adca" fill-opacity="0.0" fill-rule="evenodd" stroke="none"/>
    </g>
    <g id="sprite0" transform="matrix(1.0, 0.0, 0.0, 1.0, 0.05, 0.0)">
      <use height="135.4" transform="matrix(1.0, 0.0, 0.0, 1.0, -0.05, 0.0)" width="152.2" xlink:href="#shape1"/>
    </g>
    <g id="shape1" transform="matrix(1.0, 0.0, 0.0, 1.0, 0.05, 0.0)">
      <path d="M1.5 52.15 Q5.2 36.0 17.75 23.15 L21.2 19.8 Q27.05 14.5 33.6 10.65 51.45 0.0 74.55 0.0 105.55 0.0 128.1 19.15 L128.85 19.8 Q146.25 35.05 150.65 55.1 152.0 61.15 152.15 67.7 152.35 77.5 149.85 86.3 147.6 94.15 143.15 101.25 144.8 93.8 144.65 85.7 L144.45 81.75 143.55 74.95 Q142.75 70.8 141.45 66.9 136.0 50.65 121.35 37.8 98.6 18.0 67.05 18.0 36.0 18.0 14.4 37.2 L13.7 37.8 12.5 38.9 Q5.95 45.15 1.5 52.15" fill="url(#gradient0)" fill-rule="evenodd" stroke="none"/>
      <path d="M0.2 60.9 Q0.55 56.4 1.5 52.15 5.95 45.15 12.5 38.9 L13.7 37.8 14.4 37.2 Q36.0 18.0 67.05 18.0 98.6 18.0 121.35 37.8 136.0 50.65 141.45 66.9 135.6 58.15 126.3 50.55 101.8 30.75 67.8 30.75 34.65 30.75 11.45 49.65 L11.0 50.05 10.35 50.55 Q4.5 55.5 0.2 60.9" fill="url(#gradient1)" fill-rule="evenodd" stroke="none"/>
      <path d="M143.15 101.25 Q138.3 108.9 130.95 115.6 109.1 135.4 77.55 135.4 46.0 135.4 23.3 115.6 0.6 95.75 0.0 67.7 -0.1 64.25 0.2 60.9 4.5 55.5 10.35 50.55 L11.0 50.05 11.45 49.65 Q34.65 30.75 67.8 30.75 101.8 30.75 126.3 50.55 135.6 58.15 141.45 66.9 142.75 70.8 143.55 74.95 L144.45 81.75 144.65 85.7 Q144.8 93.8 143.15 101.25" fill="url(#gradient2)" fill-rule="evenodd" stroke="none"/>
    </g>
    <linearGradient gradientTransform="matrix(0.0744, 0.026, -0.0158, 0.0452, 88.7, 41.15)" gradientUnits="userSpaceOnUse" id="gradient0" spreadMethod="pad" x1="-819.2" x2="819.2">
      <stop offset="0.0" stop-color="#74beaf" stop-opacity="0.49803922"/>
      <stop offset="0.5176470588235295" stop-color="#b9f9f9" stop-opacity="0.49803922"/>
      <stop offset="0.9725490196078431" stop-color="#75beb0" stop-opacity="0.49803922"/>
    </linearGradient>
    <linearGradient gradientTransform="matrix(0.0724, 0.0112, -0.005, 0.0324, 75.9, 45.4)" gradientUnits="userSpaceOnUse" id="gradient1" spreadMethod="pad" x1="-819.2" x2="819.2">
      <stop offset="0.0" stop-color="#40a6a6" stop-opacity="0.49803922"/>
      <stop offset="0.5176470588235295" stop-color="#66cdcc" stop-opacity="0.49803922"/>
      <stop offset="0.9725490196078431" stop-color="#52b8b8" stop-opacity="0.49803922"/>
    </linearGradient>
    <radialGradient cx="0" cy="0" gradientTransform="matrix(0.0723, 0.0415, -0.0404, 0.0704, 66.85, 74.05)" gradientUnits="userSpaceOnUse" id="gradient2" r="819.2" spreadMethod="pad">
      <stop offset="0.0" stop-color="#98edee" stop-opacity="0.49803922"/>
      <stop offset="1.0" stop-color="#6edfe0" stop-opacity="0.49803922"/>
    </radialGradient>
    <g id="sprite1" transform="matrix(1.0, 0.0, 0.0, 1.0, 0.0, 0.0)">
      <use height="113.9" transform="matrix(1.0, 0.0, 0.0, 1.0, 0.0, 0.0)" width="128.25" xlink:href="#shape2"/>
    </g>
    <g id="shape2" transform="matrix(1.0, 0.0, 0.0, 1.0, 0.0, 0.0)">
      <path d="M1.4 31.75 L1.3 34.35 1.3 37.4 Q1.85 65.15 22.6 84.7 43.4 104.25 72.25 104.15 101.1 104.05 121.1 84.4 125.1 80.5 128.25 76.25 L126.35 79.9 Q122.05 87.5 115.6 94.15 96.3 113.8 68.45 113.9 40.6 114.0 20.6 94.45 0.55 74.9 0.0 47.15 -0.05 43.75 0.2 40.45 0.4 37.55 0.85 34.75 L1.35 31.75 1.4 31.75" fill="#ffffff" fill-opacity="0.6" fill-rule="evenodd" stroke="none"/>
      <path d="M68.2 21.4 Q65.7 20.75 64.25 18.9 62.9 17.15 63.4 15.2 63.95 13.3 66.0 12.4 L70.65 12.2 Q73.15 12.85 74.5 14.7 75.95 16.5 75.4 18.4 74.9 20.35 72.75 21.2 L68.2 21.4" fill="#ffffff" fill-opacity="0.6" fill-rule="evenodd" stroke="none"/>
      <path d="M92.55 15.55 L84.35 15.8 Q79.9 14.6 77.35 11.5 74.8 8.5 75.65 5.3 76.5 2.1 80.2 0.7 84.0 -0.65 88.45 0.55 92.9 1.75 95.4 4.75 98.0 7.85 97.15 11.05 96.3 14.25 92.55 15.55" fill="#ffffff" fill-opacity="0.6" fill-rule="evenodd" stroke="none"/>
    </g>
    <g id="shape3" transform="matrix(1.0, 0.0, 0.0, 1.0, -3.75, -2.5)">
      <path d="M23.35 26.85 L23.35 29.7 24.1 29.8 24.1 26.95 23.35 26.85 M18.25 27.6 L18.2 27.4 18.7 26.75 18.6 26.45 18.6 26.4 17.9 26.95 Q17.95 28.0 17.6 28.4 L16.7 28.55 17.15 29.1 17.8 30.05 18.0 30.65 18.05 30.55 Q18.5 29.8 18.5 28.8 L18.5 28.4 18.35 27.75 18.25 27.6 M8.25 36.7 L8.25 36.65 Q7.05 35.6 5.65 35.5 L4.4 35.65 4.3 35.8 5.05 35.65 5.8 35.95 7.05 36.85 6.9 36.95 7.5 37.4 7.55 37.4 7.9 37.8 8.3 38.35 8.7 39.5 8.8 40.05 8.7 40.05 8.3 40.35 8.7 40.45 9.0 40.5 9.6 40.5 9.75 40.45 9.65 40.2 9.65 39.05 9.15 37.8 8.7 37.15 8.25 36.7 M37.95 15.1 L37.95 14.8 37.95 14.3 37.8 13.05 37.2 10.95 37.0 10.5 Q36.1 8.65 34.4 7.1 31.15 4.2 26.7 3.95 L25.8 3.9 Q20.8 3.9 17.25 7.1 14.45 9.6 13.85 13.0 L13.75 14.35 13.85 14.35 13.95 13.85 Q14.6 10.75 17.25 8.35 20.8 5.15 25.8 5.15 30.1 5.15 33.3 7.5 L34.2 8.15 34.4 8.35 Q36.35 10.1 37.2 12.2 L37.4 12.7 37.6 13.45 37.7 13.65 37.9 15.1 37.95 15.1 M38.6 18.0 L38.55 18.2 Q37.6 21.0 35.2 23.25 31.3 26.85 25.8 27.0 L25.25 27.0 25.25 29.9 26.35 29.9 Q31.85 29.8 35.75 26.15 L36.45 25.45 36.5 25.4 Q39.15 21.3 38.6 18.0 M17.9 26.95 L18.2 27.4 17.9 26.95" fill="#a26409" fill-rule="evenodd" stroke="none"/>
      <path d="M13.15 18.8 L13.4 19.55 13.4 19.25 13.05 18.0 12.8 15.75 Q12.8 10.75 16.7 7.15 20.6 3.55 26.05 3.4 31.55 3.3 35.45 6.75 36.9 8.05 37.8 9.55 36.85 7.75 35.2 6.3 31.3 2.85 25.8 3.0 20.35 3.1 16.45 6.7 12.55 10.3 12.55 15.3 L12.8 17.55 13.15 18.8 M16.55 25.8 L16.5 25.8 16.0 25.65 15.85 25.6 15.25 25.55 Q13.95 25.55 13.05 26.35 L13.8 26.45 Q14.55 26.0 15.5 26.0 L16.25 26.1 16.75 26.25 16.8 26.3 17.0 26.05 16.55 25.8 M4.75 37.55 L4.6 37.85 4.75 38.2 5.05 38.35 5.4 38.2 5.55 37.85 5.4 37.55 5.05 37.45 4.75 37.55" fill="#ffff12" fill-rule="evenodd" stroke="none"/>
      <path d="M18.6 26.4 L18.15 25.8 Q17.9 26.45 17.15 26.1 L17.55 26.5 17.6 26.55 17.6 26.6 Q17.2 28.05 14.9 27.0 L15.95 27.8 16.2 28.1 16.55 28.4 16.6 28.45 16.7 28.55 17.6 28.4 Q17.95 28.0 17.9 26.95 L17.6 26.6 17.9 26.95 18.6 26.4 M4.55 39.1 L4.75 39.5 5.4 40.1 Q6.25 40.75 7.3 40.7 L8.3 40.35 8.7 40.05 8.8 40.05 8.7 39.5 8.3 38.35 7.9 37.8 7.55 37.4 7.5 37.4 6.9 36.95 6.85 36.95 6.7 36.8 6.7 36.85 6.7 37.05 6.7 37.1 Q7.3 38.65 6.75 39.2 L6.7 39.25 4.55 39.1" fill="#e6ad06" fill-rule="evenodd" stroke="none"/>
      <path d="M16.2 28.1 L8.25 36.7 8.7 37.15 16.6 28.45 16.55 28.4 16.2 28.1 M9.75 40.5 L18.05 31.05 18.0 30.65 17.8 30.05 17.15 29.1 14.6 31.95 14.5 31.95 14.3 32.2 9.15 37.8 9.65 39.05 9.65 40.2 9.75 40.45 9.75 40.5" fill="#463317" fill-rule="evenodd" stroke="none"/>
      <path d="M39.15 14.05 L39.05 14.05 39.05 14.35 39.1 14.7 39.05 15.1 38.75 17.55 38.6 18.0 Q39.15 21.3 36.5 25.4 39.6 22.0 39.6 17.6 L39.55 16.65 39.35 15.2 39.15 14.15 39.15 14.05" fill="#c28d4d" fill-rule="evenodd" stroke="none"/>
      <path d="M37.8 9.55 Q36.9 8.05 35.45 6.75 31.55 3.3 26.05 3.4 20.6 3.55 16.7 7.15 12.8 10.75 12.8 15.75 L13.05 18.0 13.4 19.25 13.4 19.55 14.1 20.9 14.85 22.0 16.45 23.7 16.8 23.95 Q19.65 26.35 23.35 26.85 L24.1 26.95 25.25 27.0 25.8 27.0 Q31.3 26.85 35.2 23.25 37.6 21.0 38.55 18.2 L38.6 18.0 38.75 17.55 39.05 15.1 39.1 14.7 39.05 14.35 39.05 14.05 38.95 13.15 38.75 11.95 38.7 11.85 38.0 9.9 37.8 9.55 M13.75 14.35 L13.85 13.0 Q14.45 9.6 17.25 7.1 20.8 3.9 25.8 3.9 L26.7 3.95 Q31.15 4.2 34.4 7.1 36.1 8.65 37.0 10.5 L37.2 10.95 37.8 13.05 37.95 14.3 37.95 14.8 37.95 15.1 37.95 15.45 37.6 17.55 Q36.85 20.35 34.4 22.5 30.85 25.7 25.8 25.7 20.8 25.7 17.25 22.5 15.7 21.1 14.8 19.45 L14.75 19.35 14.05 17.55 13.75 15.45 13.7 14.8 13.75 14.45 13.75 14.35" fill="url(#gradient3)" fill-rule="evenodd" stroke="none"/>
      <path d="M13.4 19.55 L13.15 18.8 Q13.25 21.55 14.6 23.8 L16.0 25.65 16.5 25.8 16.55 25.8 17.05 25.2 Q17.75 25.4 18.15 25.8 L18.6 26.4 18.6 26.45 18.7 26.75 18.2 27.4 18.25 27.6 18.35 27.65 18.4 27.7 18.55 27.75 19.6 28.4 21.1 29.1 23.35 29.7 23.35 26.85 Q19.65 26.35 16.8 23.95 L16.45 23.7 14.85 22.0 14.1 20.9 13.4 19.55 M25.25 27.0 L24.1 26.95 24.1 29.8 25.25 29.9 25.25 27.0" fill="url(#gradient4)" fill-rule="evenodd" stroke="none"/>
      <path d="M18.15 25.8 Q17.75 25.4 17.05 25.2 L16.55 25.8 17.0 26.05 17.15 26.1 Q17.9 26.45 18.15 25.8" fill="url(#gradient5)" fill-rule="evenodd" stroke="none"/>
      <path d="M13.8 26.45 Q14.35 26.6 14.9 27.0 17.2 28.05 17.6 26.6 L17.6 26.55 17.55 26.5 17.15 26.1 17.0 26.05 16.8 26.3 16.75 26.25 16.25 26.1 15.5 26.0 Q14.55 26.0 13.8 26.45" fill="url(#gradient6)" fill-rule="evenodd" stroke="none"/>
      <path d="M7.65 31.95 L7.55 32.05 4.4 35.65 5.65 35.5 Q7.05 35.6 8.25 36.65 L8.25 36.7 16.2 28.1 15.95 27.8 14.9 27.0 Q14.35 26.6 13.8 26.45 L13.05 26.35 12.35 26.55 7.65 31.95 M8.7 37.15 L9.15 37.8 14.3 32.2 14.5 31.95 14.6 31.95 17.15 29.1 16.7 28.55 16.6 28.45 8.7 37.15" fill="url(#gradient7)" fill-rule="evenodd" stroke="none"/>
      <path d="M4.45 37.05 L4.4 37.05 Q4.15 37.7 4.3 38.45 L4.55 39.1 6.7 39.25 6.75 39.2 Q7.3 38.65 6.7 37.1 L6.7 37.05 6.7 36.85 Q6.3 36.6 5.8 36.5 4.75 36.4 4.45 37.05 M4.75 37.55 L5.05 37.45 5.4 37.55 5.55 37.85 5.4 38.2 5.05 38.35 4.75 38.2 4.6 37.85 4.75 37.55" fill="url(#gradient8)" fill-rule="evenodd" stroke="none"/>
      <path d="M4.3 35.8 L4.3 35.95 4.3 36.5 4.45 37.05 Q4.75 36.4 5.8 36.5 6.3 36.6 6.7 36.85 L6.7 36.8 6.85 36.95 6.9 36.95 7.05 36.85 5.8 35.95 5.05 35.65 4.3 35.8" fill="url(#gradient9)" fill-rule="evenodd" stroke="none"/>
      <path d="M7.55 32.05 L7.65 31.95 7.55 32.05" fill="url(#gradient10)" fill-rule="evenodd" stroke="none"/>
      <path d="M13.15 18.8 L12.8 17.55 12.55 15.3 Q12.55 10.3 16.45 6.7 20.35 3.1 25.8 3.0 31.3 2.85 35.2 6.3 36.85 7.75 37.8 9.55 M23.35 29.7 L21.1 29.1 19.6 28.4 18.55 27.75 18.4 27.7 18.35 27.65 18.25 27.6 M16.0 25.65 L14.6 23.8 Q13.25 21.55 13.15 18.8 M7.65 31.95 L7.55 32.05 7.65 31.95 12.35 26.55 13.05 26.35 M4.4 35.65 L7.55 32.05 M4.3 35.8 L4.3 35.95 4.3 36.5 4.45 37.05 M4.4 37.05 Q4.15 37.7 4.3 38.45 L4.55 39.1 4.75 39.5 5.4 40.1 Q6.25 40.75 7.3 40.7 L8.3 40.35 8.7 40.45 9.0 40.5 9.6 40.5 9.75 40.45 M9.75 40.5 L18.05 31.05 18.0 30.65 18.05 30.55 Q18.5 29.8 18.5 28.8 L18.5 28.4 18.35 27.75 18.25 27.6 M4.3 35.8 L4.4 35.65 M38.95 13.15 L38.75 11.95 38.7 11.85 38.0 9.9 37.8 9.55 M38.95 13.15 L39.15 14.05 M36.5 25.4 Q39.6 22.0 39.6 17.6 L39.55 16.65 39.35 15.2 39.15 14.15 M25.25 29.9 L26.35 29.9 Q31.85 29.8 35.75 26.15 L36.45 25.45 M16.0 25.65 L15.85 25.6 15.25 25.55 Q13.95 25.55 13.05 26.35 M24.1 29.8 L23.35 29.7 M25.25 29.9 L24.1 29.8" fill="none" stroke="#000000" stroke-linecap="round" stroke-linejoin="round" stroke-opacity="0.3019608" stroke-width="1.0"/>
      <path d="M13.4 19.55 L13.15 18.8 M13.4 19.55 L14.1 20.9 14.85 22.0 16.45 23.7 16.8 23.95 Q19.65 26.35 23.35 26.85 M18.25 27.6 L18.2 27.4 18.7 26.75 18.6 26.45 18.6 26.4 18.15 25.8 Q17.75 25.4 17.05 25.2 L16.55 25.8 16.5 25.8 16.0 25.65 M13.05 26.35 L13.8 26.45 Q14.35 26.6 14.9 27.0 L15.95 27.8 16.2 28.1 16.55 28.4 16.6 28.45 16.7 28.55 17.15 29.1 M8.25 36.7 L8.25 36.65 Q7.05 35.6 5.65 35.5 L4.4 35.65 M4.45 37.05 L4.4 37.05 M9.75 40.45 L9.75 40.5 M6.7 36.85 Q6.3 36.6 5.8 36.5 4.75 36.4 4.45 37.05 M6.9 36.95 L6.85 36.95 6.7 36.8 6.7 36.85 M8.8 40.05 L8.7 39.5 8.3 38.35 7.9 37.8 7.55 37.4 7.5 37.4 6.9 36.95 M9.15 37.8 L8.7 37.15 8.25 36.7 M9.15 37.8 L9.65 39.05 9.65 40.2 9.75 40.45 M8.7 40.05 L8.3 40.35 M13.75 14.35 L13.85 13.0 Q14.45 9.6 17.25 7.1 20.8 3.9 25.8 3.9 L26.7 3.95 Q31.15 4.2 34.4 7.1 36.1 8.65 37.0 10.5 L37.2 10.95 37.8 13.05 37.95 14.3 37.95 14.8 37.95 15.1 M37.9 15.1 L37.7 13.65 37.6 13.45 37.4 12.7 37.2 12.2 Q36.35 10.1 34.4 8.35 L34.2 8.15 33.3 7.5 Q30.1 5.15 25.8 5.15 20.8 5.15 17.25 8.35 14.6 10.75 13.95 13.85 L13.85 14.35 13.8 14.8 13.75 15.45 14.05 17.55 14.75 19.35 14.8 19.45 Q15.7 21.1 17.25 22.5 20.8 25.7 25.8 25.7 30.85 25.7 34.4 22.5 36.85 20.35 37.6 17.55 L37.95 15.45 37.95 15.1 M13.75 14.35 L13.75 14.45 13.7 14.8 13.75 15.45 M39.05 14.05 L38.95 13.15 M39.05 14.05 L39.05 14.35 39.1 14.7 39.05 15.1 38.75 17.55 38.6 18.0 38.55 18.2 Q37.6 21.0 35.2 23.25 31.3 26.85 25.8 27.0 L25.25 27.0 24.1 26.95 23.35 26.85 M37.95 15.45 L37.9 15.1 M17.15 26.1 L17.0 26.05 16.55 25.8 M17.6 26.55 L17.55 26.5 17.15 26.1 M17.9 26.95 L17.6 26.6 M18.2 27.4 L17.9 26.95 M18.0 30.65 L17.8 30.05 17.15 29.1" fill="none" stroke="#000000" stroke-linecap="round" stroke-linejoin="round" stroke-opacity="0.3019608" stroke-width="0.5"/>
    </g>
    <linearGradient gradientTransform="matrix(0.0029, -0.0137, -0.0155, -0.0032, 25.9, 15.3)" gradientUnits="userSpaceOnUse" id="gradient3" spreadMethod="pad" x1="-819.2" x2="819.2">
      <stop offset="0.0" stop-color="#f7ba08"/>
      <stop offset="1.0" stop-color="#ffd005"/>
    </linearGradient>
    <linearGradient gradientTransform="matrix(0.0098, 0.0062, 0.0015, -0.0024, 22.55, 27.5)" gradientUnits="userSpaceOnUse" id="gradient4" spreadMethod="pad" x1="-819.2" x2="819.2">
      <stop offset="0.0" stop-color="#a26409"/>
      <stop offset="1.0" stop-color="#c38c05"/>
    </linearGradient>
    <linearGradient gradientTransform="matrix(-6.0E-4, -2.0E-4, -3.0E-4, 0.0011, 17.4, 26.25)" gradientUnits="userSpaceOnUse" id="gradient5" spreadMethod="pad" x1="-819.2" x2="819.2">
      <stop offset="0.0" stop-color="#f7ba08"/>
      <stop offset="1.0" stop-color="#ffd005"/>
    </linearGradient>
    <linearGradient gradientTransform="matrix(-0.0015, -9.0E-4, -0.0011, 0.0018, 14.8, 26.75)" gradientUnits="userSpaceOnUse" id="gradient6" spreadMethod="pad" x1="-819.2" x2="819.2">
      <stop offset="0.0" stop-color="#f7ba08"/>
      <stop offset="1.0" stop-color="#ffd005"/>
    </linearGradient>
    <linearGradient gradientTransform="matrix(-0.0022, -0.0016, -0.0049, 0.0066, 11.0, 32.45)" gradientUnits="userSpaceOnUse" id="gradient7" spreadMethod="pad" x1="-819.2" x2="819.2">
      <stop offset="0.0" stop-color="#59411e"/>
      <stop offset="1.0" stop-color="#b3833c"/>
    </linearGradient>
    <linearGradient gradientTransform="matrix(-0.0013, -0.0013, -0.0014, 0.0014, 5.7, 38.2)" gradientUnits="userSpaceOnUse" id="gradient8" spreadMethod="pad" x1="-819.2" x2="819.2">
      <stop offset="0.0" stop-color="#f7ba08"/>
      <stop offset="1.0" stop-color="#ffd005"/>
    </linearGradient>
    <linearGradient gradientTransform="matrix(0.0098, 0.0062, 0.0015, -0.0024, 26.7, 22.7)" gradientUnits="userSpaceOnUse" id="gradient9" spreadMethod="pad" x1="-819.2" x2="819.2">
      <stop offset="0.0" stop-color="#a26409"/>
      <stop offset="1.0" stop-color="#c38c05"/>
    </linearGradient>
    <linearGradient gradientTransform="matrix(-0.002, -0.002, -0.0088, 0.0088, 10.15, 32.8)" gradientUnits="userSpaceOnUse" id="gradient10" spreadMethod="pad" x1="-819.2" x2="819.2">
      <stop offset="0.0" stop-color="#59411e"/>
      <stop offset="1.0" stop-color="#b3833c"/>
    </linearGradient>
  </defs>
</svg>
