<?xml version="1.0" encoding="UTF-8" standalone="no"?>
<svg xmlns:xlink="http://www.w3.org/1999/xlink" height="440.0px" width="440.0px" xmlns="http://www.w3.org/2000/svg">
  <g transform="matrix(10.0, 0.0, 0.0, 10.0, 0.0, 0.0)">
    <use height="44.0" transform="matrix(1.0, 0.0, 0.0, 1.0, 0.0, 0.0)" width="44.0" xlink:href="#shape0"/>
  </g>
  <defs>
    <g id="shape0" transform="matrix(1.0, 0.0, 0.0, 1.0, 0.0, 0.0)">
      <path d="M44.0 44.0 L0.0 44.0 0.0 0.0 44.0 0.0 44.0 44.0" fill="#43adca" fill-opacity="0.0" fill-rule="evenodd" stroke="none"/>
      <path d="M8.25 31.8 L13.25 12.2 8.25 31.8 M7.45 33.3 Q9.85 26.75 13.0 11.7 L14.85 5.4 13.55 12.1 Q10.55 23.45 8.5 33.1 18.65 36.5 28.9 38.25 L34.2 39.25 31.3 39.25 8.4 33.55 7.45 33.3 M8.5 33.1 L8.4 33.55 8.5 33.1" fill="#c4764a" fill-rule="evenodd" stroke="none"/>
      <path d="M13.25 12.2 L8.25 31.8 M7.1 33.15 L7.45 33.3 Q9.85 26.75 13.0 11.7 L14.85 5.4 13.55 12.1 Q10.55 23.45 8.5 33.1 18.65 36.5 28.9 38.25 L34.2 39.25 31.3 39.25 33.0 39.7 32.35 39.9 M8.4 33.55 L8.5 33.1 M7.45 33.3 L8.4 33.55 31.3 39.25 M33.0 39.7 L31.35 39.7 M8.4 33.55 L8.2 34.4 M7.45 33.3 Q7.2 33.9 7.1 34.45" fill="none" stroke="#000000" stroke-linecap="round" stroke-linejoin="round" stroke-opacity="0.2" stroke-width="0.05"/>
      <path d="M27.4 20.4 L30.55 23.85 29.9 24.45 27.7 21.0 27.4 20.4 27.7 21.0 27.1 20.15 27.4 20.4" fill="#ccc9b1" fill-rule="evenodd" stroke="none"/>
      <path d="M29.7 24.6 L29.3 24.8 26.85 20.8 29.7 24.6 M24.95 19.4 L26.4 21.35 28.5 25.15 28.1 25.25 26.45 22.25 24.7 19.8 24.95 19.4" fill="#a6a490" fill-rule="evenodd" stroke="none"/>
      <path d="M26.9 18.1 L30.75 23.65 30.55 23.85 27.4 20.4 26.25 18.3 26.9 18.1" fill="#fffcde" fill-rule="evenodd" stroke="none"/>
      <path d="M24.95 19.4 L24.7 19.8 23.15 17.65 24.55 16.85 24.4 16.3 25.6 18.5 24.95 19.4" fill="#6b695d" fill-rule="evenodd" stroke="none"/>
      <path d="M25.4 16.05 L26.15 16.6 26.9 18.1 26.25 18.3 25.6 18.55 25.6 18.5 24.4 16.3 25.4 16.05 M26.15 18.1 L26.25 18.3 26.15 18.1" fill="#9c9987" fill-rule="evenodd" stroke="none"/>
      <path d="M26.85 20.8 L29.3 24.8 28.5 25.15 26.4 21.35 24.95 19.4 25.6 18.5 25.6 18.55 26.7 20.6 26.85 20.8" fill="#8a8878" fill-rule="evenodd" stroke="none"/>
      <path d="M27.7 21.0 L29.9 24.45 29.7 24.6 26.85 20.8 26.7 20.6 25.6 18.55 26.25 18.3 27.4 20.4 27.1 20.15 27.7 21.0" fill="#ebe8cc" fill-rule="evenodd" stroke="none"/>
      <path d="M30.55 23.85 L27.4 20.4 27.1 20.15 M27.7 21.0 L29.9 24.45 M29.7 24.6 L26.85 20.8 M24.4 16.3 L25.6 18.5 M25.6 18.55 L26.7 20.6" fill="none" stroke="#000000" stroke-linecap="round" stroke-linejoin="round" stroke-opacity="0.101960786" stroke-width="0.05"/>
      <path d="M26.85 20.8 L29.3 24.8 29.45 25.05 M28.5 25.15 L28.7 25.45 M28.5 25.15 L26.4 21.35 24.95 19.4 M26.25 18.3 L27.4 20.4 M26.25 18.3 L26.15 18.1" fill="none" stroke="#ffffff" stroke-linecap="round" stroke-linejoin="round" stroke-opacity="0.3019608" stroke-width="0.05"/>
      <path d="M27.1 20.15 L27.7 21.0 M25.6 18.5 L25.6 18.55 M26.7 20.6 L26.85 20.8" fill="none" stroke="#000000" stroke-linecap="round" stroke-linejoin="round" stroke-opacity="0.101960786" stroke-width="0.75"/>
      <path d="M27.4 20.4 L27.7 21.0" fill="none" stroke="#ffffff" stroke-linecap="round" stroke-linejoin="round" stroke-opacity="0.3019608" stroke-width="0.75"/>
      <path d="M30.55 23.85 L30.95 24.3 M26.9 18.1 L30.75 23.65 30.55 23.85 M29.9 24.45 L30.55 23.85 M29.3 24.8 L29.7 24.6 29.9 24.45 M29.3 24.8 L28.5 25.15 M24.7 19.8 L26.45 22.25 28.1 25.25 28.5 25.15 M24.4 16.3 L24.55 16.85 23.15 17.65 24.7 19.8 M26.15 16.6 L25.95 16.25 25.95 16.2 25.4 16.05 26.15 16.6 26.9 18.1 M25.4 16.05 L24.4 16.3" fill="none" stroke="#000000" stroke-linecap="round" stroke-linejoin="round" stroke-opacity="0.3019608" stroke-width="0.5"/>
      <path d="M24.35 22.85 L13.15 30.85 11.7 31.5 22.45 24.15 24.35 22.85" fill="#ccc9b1" fill-rule="evenodd" stroke="none"/>
      <path d="M11.45 31.65 L11.05 31.75 17.4 27.4 Q14.45 29.55 11.45 31.65 M28.3 19.65 L10.45 31.85 10.25 31.85 27.3 20.15 28.3 19.65" fill="#a6a490" fill-rule="evenodd" stroke="none"/>
      <path d="M31.0 18.6 L13.65 30.6 13.15 30.85 24.35 22.85 25.05 22.4 25.25 22.25 30.65 18.65 31.0 18.6" fill="#fffcde" fill-rule="evenodd" stroke="none"/>
      <path d="M33.95 15.55 L35.55 15.0 37.25 13.95 30.4 18.55 28.3 19.65 27.3 20.15 33.95 15.55" fill="#6b695d" fill-rule="evenodd" stroke="none"/>
      <path d="M35.55 15.5 L31.0 18.6 30.65 18.65 31.25 18.2 30.65 18.65 30.3 18.6 30.4 18.55 37.25 13.95 37.35 14.15 35.55 15.5" fill="#9c9987" fill-rule="evenodd" stroke="none"/>
      <path d="M28.3 19.65 L30.4 18.55 30.3 18.6 23.4 23.25 17.4 27.4 11.05 31.75 10.45 31.85 28.3 19.65" fill="#8a8878" fill-rule="evenodd" stroke="none"/>
      <path d="M30.65 18.65 L25.25 22.25 25.05 22.4 24.35 22.85 22.45 24.15 11.7 31.5 11.45 31.65 Q14.45 29.55 17.4 27.4 L23.4 23.25 30.3 18.6 30.65 18.65" fill="#ebe8cc" fill-rule="evenodd" stroke="none"/>
      <path d="M37.35 14.15 L36.75 14.7 36.6 14.8 35.55 15.5 M13.65 30.6 L13.15 30.85 11.75 31.85 M33.95 15.55 L35.55 15.0 37.25 13.95 37.35 14.15 35.55 15.5 M25.25 22.25 L25.05 22.4 M24.35 22.85 L13.15 30.85 11.7 31.5 11.45 31.65 11.05 31.75 M10.45 31.85 L11.05 31.75 M23.4 23.25 L30.3 18.6 30.4 18.55 37.25 13.95 M10.45 31.85 L10.25 31.85 M22.45 24.15 L11.7 31.5 M17.4 27.4 Q14.45 29.55 11.45 31.65" fill="none" stroke="#000000" stroke-linecap="round" stroke-linejoin="round" stroke-opacity="0.101960786" stroke-width="0.05"/>
      <path d="M30.65 18.65 L25.25 22.25 M25.05 22.4 L24.35 22.85 22.45 24.15 M11.05 31.75 L10.2 32.3 M28.3 19.65 L10.45 31.85 9.4 32.55 M11.05 31.75 L17.4 27.4 23.4 23.25 M30.65 18.65 L31.25 18.2" fill="none" stroke="#ffffff" stroke-linecap="round" stroke-linejoin="round" stroke-opacity="0.3019608" stroke-width="0.05"/>
      <path d="M35.55 15.5 L31.0 18.6 13.65 30.6 M10.25 31.85 L27.3 20.15 33.95 15.55" fill="none" stroke="#000000" stroke-linecap="round" stroke-linejoin="round" stroke-opacity="0.3019608" stroke-width="0.5"/>
      <path d="M13.45 29.75 L13.4 30.05 13.3 30.25 13.3 30.1 13.25 29.9 13.45 29.75 M13.4 30.05 L13.3 30.1 13.4 30.05" fill="#a6d0dd" fill-rule="evenodd" stroke="none"/>
      <path d="M12.2 30.15 L10.85 30.2 5.0 33.6 4.65 33.6 5.0 33.6 2.95 34.85 2.75 34.9 4.65 33.6 10.8 29.7 13.5 29.7 13.45 29.75 13.25 29.9 13.3 30.1 12.2 30.15" fill="#618799" fill-rule="evenodd" stroke="none"/>
      <path d="M31.55 17.35 L31.6 17.3 31.6 17.35 31.55 17.35" fill="#c1dbe3" fill-rule="evenodd" stroke="none"/>
      <path d="M31.8 17.65 L31.4 18.05 31.2 18.15 31.2 18.1 31.8 17.65" fill="#cdebf2" fill-rule="evenodd" stroke="none"/>
      <path d="M31.45 17.3 L31.4 17.25 31.45 17.3 M31.4 17.25 L31.4 17.2 31.4 17.25" fill="#3c525e" fill-rule="evenodd" stroke="none"/>
      <path d="M30.85 15.75 L30.1 15.55 33.85 13.75 30.85 15.75 M30.05 15.85 L30.85 16.65 31.0 16.8 31.4 17.25 31.0 17.45 30.05 15.85 M33.0 16.25 L32.05 17.65 31.8 17.65 31.7 17.75 31.8 17.65 33.0 16.25 M37.35 13.4 L36.6 14.9 34.95 15.5 37.35 13.4 M33.8 18.75 L35.0 17.9 33.95 19.25 33.8 18.75 M34.15 19.7 L34.2 19.8 34.15 19.8 34.15 19.7 M31.5 17.35 L31.55 17.35 31.5 17.35 31.45 17.3 31.55 17.35 31.5 17.35" fill="#5f829a" fill-rule="evenodd" stroke="none"/>
      <path d="M30.1 15.55 L30.85 15.75 30.85 16.65 30.05 15.85 30.05 15.8 29.9 15.55 30.1 15.55 M32.05 17.65 L32.25 18.0 33.8 18.75 33.95 19.25 34.15 19.7 32.25 18.0 31.8 17.65 32.05 17.65 M31.55 17.35 L31.45 17.3 31.4 17.25 31.55 17.35" fill="#3f5466" fill-rule="evenodd" stroke="none"/>
      <path d="M32.25 18.0 L34.15 19.7 34.15 19.8 34.15 19.85 31.4 18.05 31.8 17.65 32.25 18.0" fill="#4d677d" fill-rule="evenodd" stroke="none"/>
      <path d="M35.1 13.95 L35.1 13.9 36.4 13.2 32.25 18.0 32.05 17.65 33.0 16.25 35.1 13.95 M5.0 33.6 L7.05 33.4 8.3 33.3 7.8 34.05 7.95 36.75 13.4 32.6 13.4 32.7 6.8 38.05 7.8 34.05 2.95 34.85 5.0 33.6 M13.3 30.25 L13.2 30.7 10.3 32.45 9.55 34.35 13.75 31.35 13.55 32.1 8.6 35.85 8.9 33.35 8.95 33.05 13.3 30.1 13.3 30.25" fill="#4f6a80" fill-rule="evenodd" stroke="none"/>
      <path d="M30.85 16.65 L30.85 15.75 33.85 13.75 34.5 13.65 35.2 13.4 36.75 12.85 36.4 13.2 36.75 12.85 37.45 12.55 36.4 13.2 35.1 13.9 35.1 13.95 30.85 16.65 M13.2 30.7 L13.2 30.75 13.95 30.8 13.75 31.35 9.55 34.35 10.3 32.45 13.2 30.7" fill="#7096b5" fill-rule="evenodd" stroke="none"/>
      <path d="M34.95 15.5 L36.6 14.9 35.1 17.8 35.0 17.9 35.1 17.8 35.05 17.9 35.0 17.9 33.8 18.75 32.25 18.0 34.95 15.5 M7.05 33.4 L5.0 33.6 10.85 30.2 12.2 30.15 7.05 33.4 12.2 30.15 13.3 30.1 8.95 33.05 8.9 33.35 8.6 35.85 13.55 32.1 13.4 32.6 7.95 36.75 7.8 34.05 8.3 33.3 7.05 33.4 M8.6 33.5 L8.9 33.35 8.6 33.5" fill="#5c7a96" fill-rule="evenodd" stroke="none"/>
      <path d="M32.25 18.0 L36.4 13.2 37.45 12.55 37.35 13.4 34.95 15.5 32.25 18.0" fill="#526b85" fill-rule="evenodd" stroke="none"/>
      <path d="M31.4 17.25 L31.0 16.8 30.85 16.65 35.1 13.95 33.0 16.25 31.8 17.65 31.7 17.75 31.7 17.55 31.8 17.65 31.7 17.55 31.55 17.35 31.6 17.35 31.6 17.3 31.55 17.35 31.4 17.25 31.4 17.2 31.4 17.25" fill="#739aba" fill-rule="evenodd" stroke="none"/>
      <path d="M36.6 14.9 L37.35 13.4 38.15 12.75 37.35 13.4 37.45 12.55 38.6 12.1 38.15 12.75 37.35 14.55 Q37.0 14.75 36.6 14.9 37.0 14.75 37.35 14.55 L36.15 17.15 34.2 19.8 34.15 19.7 33.95 19.25 35.0 17.9 35.05 17.9 35.1 17.8 36.6 14.9 M35.05 17.9 L36.15 17.15 35.05 17.9 M35.65 17.05 L35.1 17.8 35.65 17.05" fill="#8abae0" fill-rule="evenodd" stroke="none"/>
      <path d="M30.85 15.75 L30.1 15.55 29.9 15.55 30.05 15.8 30.05 15.85 30.85 16.65 30.85 15.75 33.85 13.75 M31.4 17.25 L31.0 16.8 30.85 16.65 35.1 13.95 35.1 13.9 36.4 13.2 36.75 12.85 M35.1 13.95 L33.0 16.25 32.05 17.65 32.25 18.0 36.4 13.2 37.45 12.55 M36.6 14.9 L37.35 13.4 34.95 15.5 36.6 14.9 Q37.0 14.75 37.35 14.55 M38.15 12.75 L37.35 13.4 37.45 12.55 M33.8 18.75 L35.0 17.9 35.1 17.8 36.6 14.9 M35.0 17.9 L33.95 19.25 34.15 19.7 34.2 19.8 M36.15 17.15 L35.05 17.9 35.0 17.9 M33.95 19.25 L33.8 18.75 32.25 18.0 34.15 19.7 34.15 19.8 34.2 19.8 M35.1 17.8 L35.05 17.9 M31.8 17.65 L31.7 17.55 31.7 17.75 31.8 17.65 33.0 16.25 M31.8 17.65 L32.05 17.65 M31.7 17.75 L31.8 17.65 31.4 18.05 M34.15 19.85 L34.15 19.8 34.25 20.0 M31.8 17.65 L32.25 18.0 34.95 15.5 M31.55 17.35 L31.5 17.35 31.55 17.35 31.45 17.3 31.5 17.35 M31.4 17.25 L31.45 17.3 31.4 17.25 31.4 17.2 31.4 17.25 31.0 17.45 30.7 17.65 M31.55 17.35 L31.4 17.25 M31.2 18.15 L31.4 18.05 M31.7 17.55 L31.55 17.35 M35.1 17.8 L35.65 17.05 M13.45 29.75 L13.25 29.9 13.3 30.1 13.4 30.05 M13.3 30.1 L13.3 30.25" fill="none" stroke="#000000" stroke-linecap="round" stroke-linejoin="round" stroke-opacity="0.3019608" stroke-width="0.05"/>
      <path d="M5.0 33.6 L7.05 33.4 12.2 30.15 10.85 30.2 5.0 33.6 M8.9 33.35 L8.6 33.5 M13.3 30.1 L8.95 33.05 8.9 33.35 8.6 35.85 13.55 32.1 M13.3 30.1 L12.2 30.15 M7.05 33.4 L8.3 33.3 7.8 34.05 7.95 36.75 13.4 32.6" fill="none" stroke="#000000" stroke-linecap="round" stroke-linejoin="round" stroke-opacity="0.2" stroke-width="0.05"/>
      <path d="M33.85 13.75 L30.1 15.55 M36.75 12.85 L35.2 13.4 M34.5 13.65 L33.85 13.75 M37.45 12.55 L36.75 12.85 M37.35 14.55 L38.15 12.75 M37.45 12.55 L38.6 12.1 38.15 12.75 M34.2 19.8 L36.15 17.15 37.35 14.55 M31.4 18.05 L34.15 19.85 M30.05 15.85 L31.0 17.45 M5.0 33.6 L4.65 33.6 2.75 34.9 2.95 34.85 M13.95 30.8 L13.75 31.35 13.55 32.1 M13.4 32.6 L13.4 32.7 6.8 38.05 7.8 34.05 2.95 34.85 M4.65 33.6 L10.8 29.7 13.5 29.7" fill="none" stroke="#000000" stroke-linecap="round" stroke-linejoin="round" stroke-opacity="0.3019608" stroke-width="0.5"/>
      <path d="M13.55 32.1 L13.4 32.6" fill="none" stroke="#000000" stroke-linecap="round" stroke-linejoin="round" stroke-opacity="0.2" stroke-width="0.5"/>
      <path d="M11.35 9.9 Q11.1 8.4 12.15 5.15 L14.2 3.5 16.3 2.95 17.85 4.0 19.75 7.5 17.0 4.0 15.85 3.7 14.1 5.05 12.95 6.0 12.05 8.3 11.35 9.9 M17.7 2.2 L18.9 3.0 19.45 4.2 20.05 5.2 18.35 3.55 17.8 2.95 17.7 2.2 M18.7 8.45 L25.0 15.55 25.1 15.6 25.35 16.05 25.9 16.85 26.0 17.05 26.0 17.2 25.85 17.6 25.45 17.75 25.25 17.75 25.0 17.5 24.8 17.35 24.6 17.05 23.9 16.0 23.25 15.4 22.55 14.45 19.6 10.9 18.7 8.45" fill="#607e9c" fill-rule="evenodd" stroke="none"/>
      <path d="M18.9 3.0 L19.7 3.65 19.85 3.75 25.4 11.4 24.5 11.0 22.55 7.75 19.45 4.2 18.9 3.0" fill="#536e87" fill-rule="evenodd" stroke="none"/>
      <path d="M23.65 18.4 Q23.6 18.55 23.2 18.6 L22.2 18.4 Q21.9 18.35 21.9 18.0 L21.85 18.0 21.85 17.85 21.75 18.0 20.85 16.3 19.3 13.05 18.15 8.85 16.25 6.35 14.75 5.9 14.6 5.9 13.0 8.0 12.05 8.3 12.95 6.0 14.1 5.05 15.45 4.9 18.35 7.35 18.7 8.45 19.6 10.9 19.5 10.8 19.3 10.65 19.6 10.95 22.25 16.15 22.45 16.15 23.05 17.05 23.55 17.9 23.65 18.4" fill="#4b637a" fill-rule="evenodd" stroke="none"/>
      <path d="M14.1 5.05 L15.85 3.7 17.0 4.0 19.75 7.5 24.85 14.15 25.3 14.75 24.45 13.85 21.85 10.95 25.0 15.55 18.7 8.45 18.35 7.35 15.45 4.9 14.1 5.05 M21.3 10.2 L24.45 13.85 21.3 10.2" fill="#7597bd" fill-rule="evenodd" stroke="none"/>
      <path d="M28.4 15.55 L28.0 16.65 28.0 16.7 27.95 16.85 27.9 17.0 27.7 17.0 27.6 17.15 27.5 17.15 27.3 17.25 26.95 16.5 26.25 15.3 25.95 14.8 25.75 14.6 25.25 13.7 25.3 13.6 24.2 11.75 22.5 8.6 20.05 5.2 19.45 4.2 22.55 7.75 24.5 11.0 26.9 14.95 27.25 15.65 27.15 15.6 27.25 15.75 27.25 15.65 28.4 15.55 28.15 15.8 28.0 16.65 28.15 15.8 28.4 15.55 M20.85 16.3 L16.2 9.15 14.95 8.55 Q13.5 8.25 12.65 9.2 L11.55 10.05 Q12.15 9.05 13.3 8.15 L14.7 7.9 16.65 8.75 18.95 12.1 19.3 13.05 20.85 16.3" fill="#7ea4cc" fill-rule="evenodd" stroke="none"/>
      <path d="M17.85 4.0 L17.8 2.95 18.35 3.55 21.8 9.75 23.5 11.25 24.2 11.75 25.3 13.6 25.25 13.7 25.75 14.6 25.7 14.6 25.45 14.65 25.5 14.75 25.45 14.85 25.35 14.85 25.3 14.75 24.85 14.15 19.75 7.5 17.85 4.0" fill="#7ea7cc" fill-rule="evenodd" stroke="none"/>
      <path d="M18.35 3.55 L20.05 5.2 22.5 8.6 24.2 11.75 23.5 11.25 21.8 9.75 18.35 3.55 M25.1 15.6 L25.0 15.55 25.05 15.5 25.1 15.6 M27.15 15.6 L27.25 15.65 27.25 15.75 27.15 15.6" fill="#8fbae8" fill-rule="evenodd" stroke="none"/>
      <path d="M27.6 17.15 Q27.6 17.5 27.15 17.35 L26.55 17.8 25.2 18.3 25.25 17.75 25.45 17.75 25.85 17.6 26.0 17.2 26.2 17.15 25.9 16.85 25.35 16.05 25.1 15.6 25.05 15.5 25.0 15.55 21.85 10.95 24.45 13.85 25.3 14.75 25.35 14.85 25.45 14.85 25.5 14.75 25.45 14.65 25.7 14.6 25.75 14.6 25.95 14.8 26.25 15.3 26.95 16.5 27.3 17.25 27.5 17.15 27.6 17.15 M23.75 18.45 L23.65 18.4 23.55 17.9 23.9 17.95 23.75 18.45 M19.6 10.95 L19.3 10.65 19.5 10.8 19.6 10.95" fill="#5e7f99" fill-rule="evenodd" stroke="none"/>
      <path d="M19.6 10.95 L19.5 10.8 19.6 10.9 22.55 14.45 23.25 15.4 23.9 16.0 24.6 17.05 24.8 17.35 24.95 17.5 25.1 17.75 Q25.3 18.2 24.6 18.05 L23.9 17.95 23.55 17.9 23.05 17.05 22.45 16.15 22.25 16.15 19.6 10.95" fill="#374859" fill-rule="evenodd" stroke="none"/>
      <path d="M18.95 12.1 L16.65 8.75 14.7 7.9 13.3 8.15 13.55 7.8 13.65 7.8 13.9 7.65 14.05 7.65 15.5 7.15 17.5 9.0 18.95 12.1" fill="#39495c" fill-rule="evenodd" stroke="none"/>
      <path d="M21.9 18.0 L21.75 18.0 21.85 18.0 21.75 18.0 21.85 17.85 21.85 18.0 21.9 18.0" fill="#6b8dad" fill-rule="evenodd" stroke="none"/>
      <path d="M25.4 11.4 L28.4 15.55 27.25 15.65 26.9 14.95 24.5 11.0 25.4 11.4 M27.4 15.4 L27.25 15.65 27.4 15.4" fill="#6889a8" fill-rule="evenodd" stroke="none"/>
      <path d="M26.0 17.2 L26.0 17.05 25.9 16.85 26.2 17.15 26.0 17.2" fill="#384a5c" fill-rule="evenodd" stroke="none"/>
      <path d="M25.2 18.3 L24.8 18.2 23.75 18.45 23.9 17.95 24.6 18.05 Q25.3 18.2 25.1 17.75 L24.95 17.5 25.0 17.5 25.25 17.75 25.2 18.3" fill="#7ca4c9" fill-rule="evenodd" stroke="none"/>
      <path d="M24.95 17.5 L24.8 17.35 25.0 17.5 24.95 17.5" fill="#2f3f4d" fill-rule="evenodd" stroke="none"/>
      <path d="M12.15 5.15 L12.15 5.0 13.8 2.85 15.45 1.9 17.7 2.15 17.7 2.2 17.8 2.95 17.85 4.0 16.3 2.95 14.2 3.5 12.15 5.15" fill="#7094b5" fill-rule="evenodd" stroke="none"/>
      <path d="M11.55 10.05 L11.3 10.15 Q11.25 10.0 11.35 9.9 L12.05 8.3 13.0 8.0 Q13.3 7.85 13.55 7.8 L13.3 8.15 Q12.15 9.05 11.55 10.05" fill="#42576b" fill-rule="evenodd" stroke="none"/>
      <path d="M19.3 13.05 L18.95 12.1 17.5 9.0 15.5 7.15 14.05 7.65 13.9 7.65 13.65 7.8 13.55 7.8 Q13.3 7.85 13.0 8.0 L14.6 5.9 14.75 5.9 16.25 6.35 18.15 8.85 19.3 13.05 M13.9 7.65 L13.55 7.8 13.9 7.65" fill="#4b627a" fill-rule="evenodd" stroke="none"/>
      <path d="M11.3 10.15 Q11.25 10.0 11.35 9.9 M12.15 5.15 L14.2 3.5 16.3 2.95 17.85 4.0 17.8 2.95 17.7 2.2 M17.8 2.95 L18.35 3.55 20.05 5.2 19.45 4.2 18.9 3.0 M19.75 7.5 L17.0 4.0 15.85 3.7 14.1 5.05 15.45 4.9 M21.85 10.95 L24.45 13.85 21.3 10.2 M17.85 4.0 L19.75 7.5 M24.85 14.15 L25.3 14.75 24.45 13.85 M19.5 10.8 L19.3 10.65 19.6 10.95 19.5 10.8 19.6 10.9 18.7 8.45 M20.85 16.3 L19.3 13.05 18.95 12.1 16.65 8.75 14.7 7.9 13.3 8.15 Q12.15 9.05 11.55 10.05 M18.95 12.1 L17.5 9.0 15.5 7.15 14.05 7.65 13.9 7.65 13.65 7.8 13.55 7.8 13.3 8.15 M14.75 5.9 L14.6 5.9 M13.0 8.0 Q13.3 7.85 13.55 7.8 L13.9 7.65 M22.55 14.45 L19.6 10.9 M24.5 11.0 L26.9 14.95 M25.4 11.4 L24.5 11.0 22.55 7.75 19.45 4.2 M22.5 8.6 L20.05 5.2 M14.1 5.05 L12.95 6.0 12.05 8.3 13.0 8.0 M12.05 8.3 L11.35 9.9" fill="none" stroke="#000000" stroke-linecap="round" stroke-linejoin="round" stroke-opacity="0.2" stroke-width="0.05"/>
      <path d="M28.4 15.55 L28.0 16.65 M27.95 16.85 L27.9 17.0 27.7 17.0 M27.15 17.35 L26.55 17.8 25.2 18.3 24.8 18.2 23.75 18.45 23.65 18.4 M21.9 18.0 L21.75 18.0 20.85 16.3 16.2 9.15 14.95 8.55 Q13.5 8.25 12.65 9.2 L11.55 10.05 11.3 10.15 M11.35 9.9 Q11.1 8.4 12.15 5.15 L12.15 5.0 13.8 2.85 15.45 1.9 17.7 2.15 17.7 2.2 18.9 3.0 19.7 3.65 19.85 3.75 25.4 11.4 28.4 15.55 28.15 15.8 28.0 16.65 M21.85 18.0 L21.75 18.0 M21.85 17.85 L21.75 18.0" fill="none" stroke="#000000" stroke-linecap="round" stroke-linejoin="round" stroke-opacity="0.3019608" stroke-width="0.5"/>
      <path d="M25.3 14.75 L25.35 14.85 M23.25 15.4 L22.55 14.45 M26.0 17.2 L26.2 17.15 M27.25 15.65 L27.4 15.4 M27.25 15.75 L27.25 15.65 M26.9 14.95 L27.25 15.65 M25.25 17.75 L25.2 18.3 M24.95 17.5 L25.0 17.5 M23.75 18.45 L23.9 17.95" fill="none" stroke="#000000" stroke-linecap="round" stroke-linejoin="round" stroke-opacity="0.2" stroke-width="0.5"/>
      <path d="M25.05 15.5 L25.0 15.55 M27.25 15.65 L27.15 15.6 M27.25 15.65 L28.4 15.55" fill="none" stroke="#ffffff" stroke-linecap="round" stroke-linejoin="round" stroke-opacity="0.3019608" stroke-width="0.5"/>
      <path d="M38.85 35.6 L38.2 34.55 38.9 36.85 39.2 37.7 39.85 38.1 39.65 36.65 38.85 35.6 M34.55 41.75 L37.05 40.65 38.5 39.05 38.3 37.1 35.95 33.75 37.8 37.9 37.65 39.1 35.55 40.0 34.2 40.65 31.6 40.4 29.75 40.25 Q31.05 41.15 34.55 41.75 M32.8 32.3 L34.6 34.25 31.05 25.2 31.05 25.1 30.75 24.65 30.3 23.75 30.1 23.6 30.05 23.5 Q29.85 23.35 29.55 23.5 L29.2 23.75 29.2 23.9 29.25 24.35 29.3 24.6 29.45 24.8 30.05 26.0 30.4 26.9 30.9 27.95 32.8 32.3" fill="#607e9c" fill-rule="evenodd" stroke="none"/>
      <path d="M34.95 27.85 L37.05 31.1 38.85 35.6 39.65 36.65 39.45 35.6 39.45 35.45 35.0 26.8 34.95 27.85" fill="#536e87" fill-rule="evenodd" stroke="none"/>
      <path d="M32.8 32.4 L32.8 32.7 32.75 32.3 29.2 27.4 29.3 27.2 28.75 26.25 28.2 25.4 Q28.0 25.05 27.8 25.1 L27.4 25.4 Q27.1 25.9 27.1 26.45 27.05 26.7 27.3 26.85 L27.3 26.9 27.45 26.95 27.25 27.0 28.4 28.6 30.65 31.55 34.0 34.6 35.35 37.45 35.05 39.05 35.0 39.2 32.3 39.65 31.6 40.4 34.2 40.65 35.55 40.0 36.3 38.85 35.4 35.1 34.6 34.25 32.8 32.3 32.8 32.4" fill="#4b637a" fill-rule="evenodd" stroke="none"/>
      <path d="M35.95 33.75 L32.25 26.0 31.9 25.3 32.35 26.45 33.75 30.2 31.05 25.2 34.6 34.25 35.4 35.1 36.3 38.85 35.55 40.0 37.65 39.1 37.8 37.9 35.95 33.75 M34.2 31.05 L32.35 26.45 34.2 31.05" fill="#7597bd" fill-rule="evenodd" stroke="none"/>
      <path d="M31.2 21.95 L31.05 21.9 31.0 22.1 30.85 22.15 30.7 22.15 30.55 22.35 31.1 23.0 31.85 24.2 32.15 24.7 32.3 25.0 32.85 25.85 32.95 25.9 34.15 27.75 36.25 30.7 38.2 34.55 38.85 35.6 37.05 31.1 34.95 27.85 32.5 23.8 32.05 23.1 32.65 22.15 32.3 22.25 31.4 21.95 32.3 22.25 32.65 22.15 31.4 21.95 Q31.2 21.8 31.2 21.95 M32.0 23.1 L32.05 23.1 32.0 23.2 32.0 23.1 M30.65 31.55 L28.4 28.6 32.8 36.2 32.7 37.6 Q32.35 39.1 31.05 39.4 30.15 39.55 29.75 40.05 L32.3 39.25 33.2 38.15 33.35 35.95 31.4 32.35 30.65 31.55" fill="#7ea4cc" fill-rule="evenodd" stroke="none"/>
      <path d="M34.15 27.75 L32.95 25.9 32.85 25.85 32.3 25.0 32.25 25.05 32.0 25.25 32.0 25.1 31.9 25.1 31.9 25.15 31.85 25.25 31.9 25.3 32.25 26.0 35.95 33.75 38.3 37.1 39.2 37.7 38.9 36.85 34.85 30.9 34.3 28.55 34.15 27.75" fill="#7ea7cc" fill-rule="evenodd" stroke="none"/>
      <path d="M32.05 23.1 L32.0 23.1 32.0 23.2 32.05 23.1 M38.2 34.55 L36.25 30.7 34.15 27.75 34.3 28.55 34.85 30.9 38.9 36.85 38.2 34.55 M31.05 25.1 L31.05 25.2 31.1 25.15 31.05 25.1" fill="#8fbae8" fill-rule="evenodd" stroke="none"/>
      <path d="M32.3 25.0 L32.15 24.7 31.85 24.2 31.1 23.0 30.55 22.35 30.7 22.15 30.85 22.15 Q30.5 21.95 30.4 22.35 L29.7 22.75 28.6 23.75 29.2 23.9 29.2 23.75 29.55 23.5 Q29.85 23.35 30.05 23.5 L30.15 23.4 30.3 23.75 30.75 24.65 31.05 25.1 31.1 25.15 31.05 25.2 33.75 30.2 32.35 26.45 31.9 25.3 31.85 25.25 31.9 25.15 31.9 25.1 32.0 25.1 32.0 25.25 32.25 25.05 32.3 25.0 M32.75 32.3 L32.8 32.7 32.8 32.4 32.75 32.3 M27.8 25.1 Q28.0 25.05 28.2 25.4 L28.35 25.1 27.85 25.0 27.8 25.1" fill="#5e7f99" fill-rule="evenodd" stroke="none"/>
      <path d="M32.75 32.3 L32.8 32.4 32.8 32.3 30.9 27.95 30.4 26.9 30.05 26.0 29.45 24.8 29.3 24.6 29.25 24.35 29.05 24.1 Q28.75 23.7 28.55 24.4 L28.35 25.0 28.35 25.1 28.2 25.4 28.75 26.25 29.3 27.2 29.2 27.4 32.75 32.3" fill="#374859" fill-rule="evenodd" stroke="none"/>
      <path d="M31.4 32.35 L33.35 35.95 33.2 38.15 32.3 39.25 32.8 39.25 32.85 39.15 33.1 38.95 33.15 38.85 34.25 37.75 33.55 35.05 31.4 32.35" fill="#39495c" fill-rule="evenodd" stroke="none"/>
      <path d="M27.25 27.0 L27.45 26.95 27.3 26.9 27.3 26.85 27.25 26.95 27.25 27.0 M27.3 26.9 L27.25 26.95 27.3 26.9" fill="#6b8dad" fill-rule="evenodd" stroke="none"/>
      <path d="M32.65 22.15 L32.05 23.1 32.5 23.8 34.95 27.85 35.0 26.8 32.65 22.15 M32.3 23.15 L32.05 23.1 32.3 23.15" fill="#6889a8" fill-rule="evenodd" stroke="none"/>
      <path d="M30.05 23.5 L30.1 23.6 30.3 23.75 30.15 23.4 30.05 23.5" fill="#384a5c" fill-rule="evenodd" stroke="none"/>
      <path d="M29.25 24.35 L29.2 23.9 28.6 23.75 28.5 24.15 27.85 25.0 28.35 25.1 28.35 25.0 28.55 24.4 Q28.75 23.7 29.05 24.1 L29.25 24.35" fill="#7ca4c9" fill-rule="evenodd" stroke="none"/>
      <path d="M29.3 24.6 L29.25 24.35 29.3 24.6" fill="#2f3f4d" fill-rule="evenodd" stroke="none"/>
      <path d="M39.2 37.7 L38.3 37.1 38.5 39.05 37.05 40.65 34.55 41.75 34.7 41.85 37.4 41.3 39.15 40.3 39.9 38.15 39.85 38.1 39.2 37.7" fill="#7094b5" fill-rule="evenodd" stroke="none"/>
      <path d="M31.6 40.4 L32.3 39.65 32.8 39.25 32.3 39.25 29.75 40.05 Q29.7 40.05 29.6 40.15 L29.75 40.25 31.6 40.4" fill="#42576b" fill-rule="evenodd" stroke="none"/>
      <path d="M32.3 39.65 L35.0 39.2 35.05 39.05 35.35 37.45 34.0 34.6 30.65 31.55 31.4 32.35 33.55 35.05 34.25 37.75 33.15 38.85 33.1 38.95 32.85 39.15 32.8 39.25 32.3 39.65 M32.8 39.25 L33.1 38.95 32.8 39.25" fill="#4b627a" fill-rule="evenodd" stroke="none"/>
      <path d="M32.5 23.8 L34.95 27.85 37.05 31.1 38.85 35.6 38.2 34.55 36.25 30.7 M35.0 26.8 L34.95 27.85 M39.65 36.65 L38.85 35.6 M38.3 37.1 L39.2 37.7 39.85 38.1 M34.55 41.75 L37.05 40.65 38.5 39.05 38.3 37.1 35.95 33.75 M32.25 26.0 L31.9 25.3 32.35 26.45 33.75 30.2 M39.2 37.7 L38.9 36.85 38.2 34.55 M35.55 40.0 L37.65 39.1 37.8 37.9 35.95 33.75 M32.8 32.4 L32.8 32.7 32.75 32.3 32.8 32.4 32.8 32.3 34.6 34.25 M36.3 38.85 L35.55 40.0 34.2 40.65 31.6 40.4 32.3 39.65 M35.0 39.2 L35.05 39.05 M30.65 31.55 L28.4 28.6 M30.65 31.55 L31.4 32.35 33.35 35.95 33.2 38.15 32.3 39.25 29.75 40.05 M29.6 40.15 L29.75 40.25 M31.4 32.35 L33.55 35.05 34.25 37.75 33.15 38.85 33.1 38.95 32.85 39.15 32.8 39.25 32.3 39.25 M32.35 26.45 L34.2 31.05 M32.8 32.3 L30.9 27.95 M32.8 39.25 L32.3 39.65 M31.6 40.4 L29.75 40.25 M33.1 38.95 L32.8 39.25" fill="none" stroke="#000000" stroke-linecap="round" stroke-linejoin="round" stroke-opacity="0.2" stroke-width="0.05"/>
      <path d="M31.0 22.1 L31.05 21.9 31.2 21.95 M31.4 21.95 L32.3 22.25 32.65 22.15 35.0 26.8 39.45 35.45 39.45 35.6 39.65 36.65 39.85 38.1 39.9 38.15 39.15 40.3 37.4 41.3 34.7 41.85 34.55 41.75 M31.4 21.95 L32.65 22.15 M28.4 28.6 L27.25 27.0 27.45 26.95 M29.75 40.05 Q30.15 39.55 31.05 39.4 32.35 39.1 32.7 37.6 L32.8 36.2 28.4 28.6 M29.75 40.05 Q29.7 40.05 29.6 40.15 M29.75 40.25 Q31.05 41.15 34.55 41.75 M27.85 25.0 L28.5 24.15 28.6 23.75 29.7 22.75 30.4 22.35 M27.8 25.1 L27.85 25.0 M27.25 26.95 L27.3 26.85 M27.25 27.0 L27.25 26.95 27.3 26.9" fill="none" stroke="#000000" stroke-linecap="round" stroke-linejoin="round" stroke-opacity="0.3019608" stroke-width="0.5"/>
      <path d="M32.05 23.1 L32.0 23.1 M32.05 23.1 L32.5 23.8 M31.9 25.3 L31.85 25.25 M30.9 27.95 L30.4 26.9 M32.05 23.1 L32.3 23.15 M30.15 23.4 L30.05 23.5 M28.6 23.75 L29.2 23.9 M27.85 25.0 L28.35 25.1" fill="none" stroke="#000000" stroke-linecap="round" stroke-linejoin="round" stroke-opacity="0.2" stroke-width="0.5"/>
      <path d="M32.65 22.15 L32.05 23.1 M32.0 23.2 L32.05 23.1 M31.05 25.2 L31.1 25.15" fill="none" stroke="#ffffff" stroke-linecap="round" stroke-linejoin="round" stroke-opacity="0.3019608" stroke-width="0.5"/>
    </g>
  </defs>
</svg>
