<?xml version="1.0" encoding="UTF-8" standalone="no"?>
<svg xmlns:xlink="http://www.w3.org/1999/xlink" height="440.0px" width="440.0px" xmlns="http://www.w3.org/2000/svg">
  <g transform="matrix(10.0, 0.0, 0.0, 10.0, 0.0, 0.0)">
    <use height="44.0" transform="matrix(1.0, 0.0, 0.0, 1.0, 0.0, 0.0)" width="44.0" xlink:href="#shape0"/>
  </g>
  <defs>
    <g id="shape0" transform="matrix(1.0, 0.0, 0.0, 1.0, 0.0, 0.0)">
      <path d="M44.0 44.0 L0.0 44.0 0.0 0.0 44.0 0.0 44.0 44.0" fill="#43adca" fill-opacity="0.0" fill-rule="evenodd" stroke="none"/>
      <path d="M11.4 8.0 L29.05 35.7" fill="none" stroke="#000000" stroke-linecap="round" stroke-linejoin="round" stroke-opacity="0.43137255" stroke-width="0.05"/>
      <path d="M13.8 4.9 L21.5 4.8 27.3 8.25 24.0 4.85 28.65 7.55 32.3 9.75 Q29.85 10.45 28.4 12.05 21.75 3.3 12.2 6.1 L10.1 6.95 10.05 6.95 9.35 7.3 Q8.0 8.0 6.7 9.05 4.95 10.25 3.85 6.7 3.8 5.85 4.15 5.15 L5.05 6.85 5.65 7.4 Q6.4 8.0 6.7 7.4 L7.5 7.3 7.95 7.25 Q10.8 6.05 13.75 4.95 L13.8 4.9 M27.55 8.4 L27.3 8.25 27.55 8.4 M5.65 7.9 L5.65 7.4 5.65 7.9" fill="#52412c" fill-rule="evenodd" stroke="none"/>
      <path d="M26.3 4.9 L22.2 3.85 21.75 3.5 15.2 4.15 10.85 5.3 10.9 5.3 11.25 5.1 Q22.6 0.3 29.85 5.75 L26.3 4.9 29.85 5.75 Q31.8 7.2 33.4 9.4 L32.3 9.75 28.65 7.55 28.05 6.55 26.3 4.9" fill="#755e40" fill-rule="evenodd" stroke="none"/>
      <path d="M15.2 4.15 L21.75 3.5 22.2 3.85 26.3 4.9 28.05 6.55 28.65 7.55 24.0 4.85 27.3 8.25 21.5 4.8 13.8 4.9 15.2 4.15 M22.2 3.85 L24.0 4.85 22.2 3.85" fill="#755d3d" fill-rule="evenodd" stroke="none"/>
      <path d="M10.85 5.3 L15.2 4.15 13.8 4.9 13.75 4.95 Q10.8 6.05 7.95 7.25 L7.5 7.3 9.95 5.8 10.85 5.3" fill="#a88458" fill-rule="evenodd" stroke="none"/>
      <path d="M7.5 7.3 L6.7 7.4 Q6.4 8.0 5.65 7.4 4.95 5.65 5.5 5.8 L6.15 6.45 Q7.2 7.15 9.95 5.8 L7.5 7.3" fill="#755e41" fill-rule="evenodd" stroke="none"/>
      <path d="M5.45 5.1 Q5.4 5.45 5.5 5.8 4.95 5.65 5.65 7.4 L5.05 6.85 4.15 5.15 Q4.85 3.25 7.5 1.9 5.55 3.85 5.45 5.1" fill="#947245" fill-rule="evenodd" stroke="none"/>
      <path d="M29.85 5.75 Q22.6 0.3 11.25 5.1 L10.9 5.3 10.85 5.3 9.95 5.8 M32.3 9.75 L33.4 9.4 Q31.8 7.2 29.85 5.75 M32.3 9.75 Q29.85 10.45 28.4 12.05 21.75 3.3 12.2 6.1 L10.1 6.95 10.05 6.95 9.35 7.3 Q8.0 8.0 6.7 9.05 4.95 10.25 3.85 6.7 3.8 5.85 4.15 5.15 4.85 3.25 7.5 1.9 5.55 3.85 5.45 5.1 M5.5 5.8 L6.15 6.45 Q7.2 7.15 9.95 5.8" fill="none" stroke="#000000" stroke-linecap="round" stroke-linejoin="round" stroke-opacity="0.2509804" stroke-width="0.25"/>
      <path d="M15.2 4.15 L21.75 3.5 22.2 3.85 26.3 4.9 29.85 5.75 M10.85 5.3 L15.2 4.15 13.8 4.9 21.5 4.8 27.3 8.25 24.0 4.85 22.2 3.85 M26.3 4.9 L28.05 6.55 28.65 7.55 32.3 9.75 32.9 10.05 M27.3 8.25 L27.55 8.4 M4.15 5.15 L3.9 4.75 M28.65 7.55 L24.0 4.85 M13.8 4.9 L13.75 4.95 Q10.8 6.05 7.95 7.25 L7.5 7.3 6.7 7.4 Q6.4 8.0 5.65 7.4 L5.65 7.9 M9.95 5.8 L7.5 7.3 M5.45 5.1 Q5.4 5.45 5.5 5.8 4.95 5.65 5.65 7.4 L5.05 6.85 4.15 5.15" fill="none" stroke="#000000" stroke-linecap="round" stroke-linejoin="round" stroke-opacity="0.101960786" stroke-width="0.25"/>
      <path d="M35.2 24.45 L36.25 28.35 34.65 30.9 30.5 34.0 29.3 34.65 25.7 36.6 25.15 37.5 26.2 39.25 25.7 39.1 Q22.65 36.5 24.8 35.85 L27.95 34.8 28.65 34.45 28.75 34.4 30.65 33.3 Q35.75 29.7 35.2 24.45 M24.55 36.5 L25.15 37.5 24.55 36.5" fill="#9c7c54" fill-rule="evenodd" stroke="none"/>
      <path d="M39.15 18.15 L38.5 25.55 36.4 28.15 36.25 28.35 35.2 24.45 34.5 21.75 32.95 18.5 Q35.8 18.2 38.1 16.2 L38.95 17.65 39.15 18.15" fill="#755e3f" fill-rule="evenodd" stroke="none"/>
      <path d="M36.25 28.35 L36.4 28.15 38.5 25.55 39.15 18.15 Q43.5 27.85 31.1 34.55 L30.8 34.65 Q27.0 36.3 27.15 37.55 27.45 39.6 32.4 38.9 29.0 40.5 26.2 39.25 L25.15 37.5 25.7 36.6 29.3 34.65 30.5 34.0 34.65 30.9 36.25 28.35 M39.05 24.8 L38.5 25.55 39.05 24.8 M35.35 30.35 L34.65 30.9 35.35 30.35 M29.95 34.65 L29.3 34.65 29.95 34.65" fill="#4d3d29" fill-rule="evenodd" stroke="none"/>
      <path d="M38.95 17.65 L38.1 16.2 Q35.8 18.2 32.95 18.5 L34.5 21.75 M26.2 39.25 L25.7 39.1 Q22.65 36.5 24.8 35.85 L27.95 34.8 28.65 34.45 28.75 34.4 30.65 33.3 Q35.75 29.7 35.2 24.45 M39.15 18.15 Q43.5 27.85 31.1 34.55 L30.8 34.65 Q27.0 36.3 27.15 37.55 27.45 39.6 32.4 38.9 29.0 40.5 26.2 39.25" fill="none" stroke="#000000" stroke-linecap="round" stroke-linejoin="round" stroke-opacity="0.2509804" stroke-width="0.25"/>
      <path d="M36.25 28.35 L36.4 28.15 38.5 25.55 39.15 18.15 38.95 17.65 M34.5 21.75 L35.2 24.45 36.25 28.35 34.65 30.9 35.35 30.35 M38.5 25.55 L39.05 24.8 M26.2 39.25 L26.4 39.7 M25.15 37.5 L25.7 36.6 29.3 34.65 30.5 34.0 34.65 30.9 M29.3 34.65 L29.95 34.65 M26.2 39.25 L25.15 37.5 24.55 36.5" fill="none" stroke="#000000" stroke-linecap="round" stroke-linejoin="round" stroke-opacity="0.101960786" stroke-width="0.25"/>
      <path d="M33.75 15.85 L33.8 15.55 34.05 15.85 33.75 15.85" fill="#755528" fill-rule="evenodd" stroke="none"/>
      <path d="M31.6 15.65 Q30.3 13.45 27.5 11.85 L27.65 11.65 27.95 11.35 28.2 11.15 31.3 13.95 31.6 15.65" fill="#bd9466" fill-rule="evenodd" stroke="none"/>
      <path d="M28.2 11.15 L29.25 10.2 32.35 13.4 33.45 15.05 33.8 15.55 33.75 15.85 33.2 18.85 32.4 19.05 Q32.4 17.25 31.6 15.65 L31.3 13.95 28.2 11.15" fill="#947650" fill-rule="evenodd" stroke="none"/>
      <path d="M29.25 10.2 Q30.3 9.55 31.6 9.15 L32.8 12.4 32.75 12.55 33.45 15.05 32.35 13.4 29.25 10.2 M34.05 15.85 L35.3 15.95 35.4 15.75 36.7 16.9 37.55 17.05 35.7 18.05 34.05 15.85" fill="#755e3f" fill-rule="evenodd" stroke="none"/>
      <path d="M33.2 18.85 L33.75 15.85 34.05 15.85 35.7 18.05 33.2 18.85" fill="#856947" fill-rule="evenodd" stroke="none"/>
      <path d="M31.6 9.15 L32.5 8.85 32.75 11.85 33.8 12.25 35.3 14.3 35.3 14.65 37.65 15.3 38.15 15.5 38.8 15.8 37.55 17.05 36.7 16.9 35.4 15.75 35.3 15.95 34.05 15.85 33.8 15.55 33.45 15.05 32.75 12.55 32.8 12.4 31.6 9.15 M32.8 12.4 L32.75 11.85 32.8 12.4 M33.95 15.05 L33.8 15.55 33.95 15.05 M35.3 14.65 L35.4 15.75 35.3 14.65" fill="#614d34" fill-rule="evenodd" stroke="none"/>
      <path d="M32.5 8.85 L32.95 8.75 33.7 8.7 Q34.25 13.25 37.65 15.3 L35.3 14.65 35.3 14.3 33.8 12.25 32.75 11.85 32.5 8.85" fill="#473826" fill-rule="evenodd" stroke="none"/>
      <path d="M29.25 10.2 Q30.3 9.55 31.6 9.15 L32.5 8.85 32.95 8.75 33.7 8.7 Q34.25 13.25 37.65 15.3 M38.15 15.5 L38.8 15.8 37.55 17.05 M31.6 15.65 Q30.3 13.45 27.5 11.85 L27.65 11.65 27.95 11.35 28.2 11.15 29.25 10.2 M31.6 15.65 Q32.4 17.25 32.4 19.05 L33.2 18.85 35.7 18.05 37.55 17.05" fill="none" stroke="#000000" stroke-linecap="round" stroke-linejoin="round" stroke-opacity="0.2509804" stroke-width="0.25"/>
      <path d="M37.65 15.3 L38.15 15.5 M37.55 17.05 L38.2 17.1 M29.25 10.2 L32.35 13.4 33.45 15.05 32.75 12.55 32.8 12.4 31.6 9.15 M32.75 11.85 L32.8 12.4 M32.5 8.85 L32.75 11.85 33.8 12.25 35.3 14.3 35.3 14.65 37.65 15.3 M33.2 18.85 L33.75 15.85 33.8 15.55 33.45 15.05 M33.8 15.55 L33.95 15.05 M34.05 15.85 L33.8 15.55 M37.55 17.05 L36.7 16.9 35.4 15.75 35.3 15.95 34.05 15.85 35.7 18.05 M34.05 15.85 L33.75 15.85 M35.4 15.75 L35.3 14.65 M28.2 11.15 L31.3 13.95 31.6 15.65" fill="none" stroke="#000000" stroke-linecap="round" stroke-linejoin="round" stroke-opacity="0.101960786" stroke-width="0.25"/>
      <path d="M21.6 2.65 Q21.6 2.55 21.8 2.55 L22.2 2.5 21.6 2.65" fill="#e8d7ad" fill-rule="evenodd" stroke="none"/>
      <path d="M18.5 2.9 L18.6 2.85 18.55 2.95 18.5 2.9" fill="#a6997c" fill-rule="evenodd" stroke="none"/>
      <path d="M22.2 2.5 L22.2 2.45 22.7 2.6 23.6 2.95 Q21.75 3.55 20.85 4.85 L20.65 4.8 19.35 4.55 18.35 4.5 Q19.5 3.65 21.6 2.65 L22.2 2.5 M22.4 5.0 Q23.3 4.1 25.2 3.3 L25.35 3.25 27.35 4.0 Q25.8 4.2 24.05 5.35 L23.6 5.65 23.55 5.7 23.35 5.5 22.4 5.05 22.4 5.0 M28.0 4.2 L28.45 4.45 28.8 4.7 28.4 4.9 27.3 5.35 26.9 5.55 25.3 6.55 24.2 6.05 24.45 5.85 Q25.9 4.65 27.75 4.25 L28.0 4.2 M25.8 9.35 L25.45 8.85 Q25.65 7.35 27.0 5.7 26.65 7.25 27.9 7.8 L26.5 8.4 25.8 9.35 M21.7 3.1 L22.7 2.6 21.7 3.1 M25.55 5.65 L24.9 6.0 25.55 5.65" fill="#db944d" fill-rule="evenodd" stroke="none"/>
      <path d="M28.4 4.9 Q30.6 5.55 31.4 6.7 30.1 6.9 28.55 8.05 L27.9 7.8 Q26.65 7.25 27.0 5.7 L27.3 5.35 28.4 4.9" fill="url(#gradient0)" fill-rule="evenodd" stroke="none"/>
      <path d="M27.35 4.0 L28.0 4.2 27.75 4.25 Q25.9 4.65 24.45 5.85 L24.2 6.05 23.15 7.0 22.2 7.3 21.8 7.0 23.55 5.7 23.6 5.65 24.05 5.35 Q25.8 4.2 27.35 4.0 M31.4 6.7 L31.65 7.15 31.5 7.2 Q30.0 7.55 28.8 8.4 27.6 9.15 26.75 10.2 L26.6 10.35 25.8 9.35 26.5 8.4 27.9 7.8 28.55 8.05 Q30.1 6.9 31.4 6.7 M25.3 6.55 L24.1 7.85 23.05 7.1 23.15 7.0 24.2 6.05 25.3 6.55" fill="#77481a" fill-rule="evenodd" stroke="none"/>
      <path d="M31.5 7.2 Q32.8 7.6 32.8 8.35 L29.6 9.25 28.8 8.4 Q30.0 7.55 31.5 7.2" fill="url(#gradient1)" fill-rule="evenodd" stroke="none"/>
      <path d="M32.8 8.35 L33.7 8.45 Q29.05 9.8 27.7 11.6 L27.55 11.8 27.1 10.9 26.75 10.2 Q27.6 9.15 28.8 8.4 L29.6 9.25 32.8 8.35 M27.8 10.25 L27.1 10.9 27.8 10.25" fill="#99772b" fill-rule="evenodd" stroke="none"/>
      <path d="M21.15 6.3 L21.55 6.4 Q21.7 5.65 22.4 5.0 L22.4 5.05 23.35 5.5 23.55 5.7 21.8 7.0 21.3 6.55 21.15 6.3" fill="#b16b24" fill-rule="evenodd" stroke="none"/>
      <path d="M23.6 2.95 L24.05 3.0 Q21.75 4.15 20.45 6.45 L19.25 5.95 20.65 4.8 20.85 4.85 Q21.75 3.55 23.6 2.95 M18.35 4.5 L19.35 4.55 18.75 5.75 17.95 5.55 17.65 5.1 18.35 4.5" fill="#9f6020" fill-rule="evenodd" stroke="none"/>
      <path d="M19.35 4.55 L20.65 4.8 19.25 5.95 18.75 5.75 19.35 4.55" fill="#694016" fill-rule="evenodd" stroke="none"/>
      <path d="M22.2 2.5 L22.2 2.45 22.7 2.6 23.6 2.95 24.05 3.0 Q21.75 4.15 20.45 6.45 L21.15 6.3 21.55 6.4 Q21.7 5.65 22.4 5.0 23.3 4.1 25.2 3.3 L25.35 3.25 27.35 4.0 28.0 4.2 28.45 4.45 28.8 4.7 28.4 4.9 Q30.6 5.55 31.4 6.7 L31.65 7.15 31.5 7.2 Q32.8 7.6 32.8 8.35 L33.7 8.45 Q29.05 9.8 27.7 11.6 L27.55 11.8 27.1 10.9 26.75 10.2 26.6 10.35 25.8 9.35 25.45 8.85 Q25.65 7.35 27.0 5.7 L27.3 5.35 26.9 5.55 25.3 6.55 24.1 7.85 23.05 7.1 23.15 7.0 22.2 7.3 21.8 7.0 21.3 6.55 21.15 6.3 M21.6 2.65 Q21.6 2.55 21.8 2.55 L22.2 2.5 21.6 2.65 Q19.5 3.65 18.35 4.5 L17.65 5.1 M27.3 5.35 L28.4 4.9 M24.2 6.05 L24.45 5.85 Q25.9 4.65 27.75 4.25 L28.0 4.2 M24.2 6.05 L23.15 7.0 M28.8 8.4 Q30.0 7.55 31.5 7.2 M28.8 8.4 Q27.6 9.15 26.75 10.2 M18.55 2.95 L18.6 2.85 18.5 2.9 M18.55 2.95 L21.6 2.65 M17.95 5.55 L18.75 5.75 19.25 5.95 20.45 6.45" fill="none" stroke="#000000" stroke-linecap="round" stroke-linejoin="round" stroke-opacity="0.2509804" stroke-width="0.25"/>
      <path d="M22.4 5.05 L23.35 5.5 M23.6 5.65 L24.05 5.35 M22.7 2.6 L21.7 3.1 M24.9 6.0 L25.55 5.65 M25.3 6.55 L24.2 6.05 M25.8 9.35 L26.5 8.4 27.9 7.8 M27.1 10.9 L27.8 10.25 M18.75 5.75 L19.35 4.55 M19.25 5.95 L20.65 4.8 M21.8 7.0 L23.55 5.7" fill="none" stroke="#000000" stroke-linecap="round" stroke-linejoin="round" stroke-opacity="0.101960786" stroke-width="0.25"/>
      <path d="M39.3 27.55 L39.0 27.8 38.85 27.9 39.3 27.55 M39.1 35.85 L39.25 35.75 39.1 35.9 39.1 35.85" fill="#e8d7ad" fill-rule="evenodd" stroke="none"/>
      <path d="M37.05 30.05 L37.2 30.05 37.1 30.1 37.05 30.05" fill="#a6997c" fill-rule="evenodd" stroke="none"/>
      <path d="M34.4 26.9 Q37.35 27.05 39.65 25.9 L39.55 26.3 Q37.95 27.35 36.25 27.35 L36.2 27.5 34.35 28.0 34.4 26.9 M35.85 28.65 L35.4 29.35 34.45 29.6 34.15 29.15 34.35 28.5 35.85 28.65" fill="#9f6020" fill-rule="evenodd" stroke="none"/>
      <path d="M36.2 27.5 L35.85 28.65 34.35 28.5 34.35 28.0 36.2 27.5" fill="#694016" fill-rule="evenodd" stroke="none"/>
      <path d="M33.95 21.5 L35.3 21.45 36.6 20.7 Q36.6 21.9 38.35 22.4 L34.3 22.0 33.95 21.5 M39.85 21.8 L40.2 21.55 40.3 22.4 40.2 22.55 Q38.85 23.7 36.95 24.25 L36.65 24.3 36.6 23.25 38.45 22.6 38.85 22.35 39.85 21.8 M40.3 22.95 L40.05 24.85 39.9 24.95 Q38.2 25.95 36.75 26.15 L36.75 26.1 36.7 25.2 36.65 24.95 36.75 24.95 37.2 24.75 Q39.3 24.05 40.3 22.95 M39.55 26.3 L39.4 27.1 39.35 27.6 39.3 27.55 38.85 27.9 35.4 29.35 35.85 28.65 36.2 27.5 36.25 27.35 Q37.95 27.35 39.55 26.3 M37.7 23.55 L36.95 23.8 37.7 23.55 M38.4 27.55 L39.4 27.1 38.4 27.55" fill="#db944d" fill-rule="evenodd" stroke="none"/>
      <path d="M36.75 26.15 Q35.8 26.4 34.95 26.15 L34.9 26.45 34.6 26.2 34.45 25.65 36.65 24.95 36.7 25.2 36.75 26.1 36.75 26.15" fill="#b16b24" fill-rule="evenodd" stroke="none"/>
      <path d="M38.95 18.3 L39.1 18.25 39.4 18.7 Q38.65 19.5 36.7 20.15 L36.6 20.7 35.3 21.45 33.95 21.5 33.3 20.4 33.55 20.4 36.4 19.75 Q37.85 19.3 38.95 18.3 M40.3 22.4 L40.3 22.95 Q39.3 24.05 37.2 24.75 L36.75 24.95 36.65 24.95 34.45 25.65 34.35 25.25 35.05 24.6 34.9 24.6 34.7 23.5 36.6 23.25 36.65 24.3 36.95 24.25 Q38.85 23.7 40.2 22.55 L40.3 22.4 M36.65 24.3 L35.05 24.6 36.65 24.3" fill="#77481a" fill-rule="evenodd" stroke="none"/>
      <path d="M36.4 19.75 L33.55 20.4 33.0 19.75 32.4 19.1 32.6 19.0 Q35.05 18.85 38.75 16.1 L38.4 16.8 35.9 18.8 36.4 19.75 M34.0 19.6 L33.0 19.75 34.0 19.6" fill="#99772b" fill-rule="evenodd" stroke="none"/>
      <path d="M38.95 18.3 Q37.85 19.3 36.4 19.75 L35.9 18.8 38.4 16.8 Q39.2 17.2 38.95 18.3" fill="url(#gradient2)" fill-rule="evenodd" stroke="none"/>
      <path d="M36.6 20.7 L36.7 20.15 Q38.65 19.5 39.4 18.7 40.2 19.8 39.85 21.8 L38.85 22.35 38.35 22.4 Q36.6 21.9 36.6 20.7" fill="url(#gradient3)" fill-rule="evenodd" stroke="none"/>
      <path d="M39.4 18.7 L39.1 18.25 38.95 18.3 Q37.85 19.3 36.4 19.75 L33.55 20.4 33.3 20.4 33.95 21.5 M39.4 18.7 Q40.2 19.8 39.85 21.8 L40.2 21.55 40.3 22.4 40.3 22.95 40.05 24.85 39.9 24.95 Q38.2 25.95 36.75 26.15 35.8 26.4 34.95 26.15 L34.9 26.45 34.4 26.9 Q37.35 27.05 39.65 25.9 L39.55 26.3 39.4 27.1 39.35 27.6 39.3 27.55 39.0 27.8 38.85 27.9 37.05 30.05 37.2 30.05 37.1 30.1 M38.4 16.8 Q39.2 17.2 38.95 18.3 M38.4 16.8 L38.75 16.1 Q35.05 18.85 32.6 19.0 M32.4 19.1 L33.0 19.75 33.55 20.4 M36.6 23.25 L34.7 23.5 34.9 24.6 35.05 24.6 36.65 24.3 M36.6 23.25 L38.45 22.6 38.85 22.35 38.35 22.4 34.3 22.0 33.95 21.5 M40.3 22.4 L40.2 22.55 Q38.85 23.7 36.95 24.25 L36.65 24.3 M39.85 21.8 L38.85 22.35 M34.45 25.65 L34.6 26.2 34.9 26.45 M35.4 29.35 L38.85 27.9 39.3 27.55 M35.05 24.6 L34.35 25.25 34.45 25.65 M34.35 28.5 L34.35 28.0 34.4 26.9 M34.45 29.6 L35.4 29.35 M34.35 28.5 L34.15 29.15" fill="none" stroke="#000000" stroke-linecap="round" stroke-linejoin="round" stroke-opacity="0.2509804" stroke-width="0.25"/>
      <path d="M33.95 21.5 L35.3 21.45 36.6 20.7 M33.0 19.75 L34.0 19.6 M36.65 24.3 L36.6 23.25 M36.95 23.8 L37.7 23.55 M39.4 27.1 L38.4 27.55 M36.75 24.95 L37.2 24.75 M36.75 26.1 L36.7 25.2 M36.65 24.95 L34.45 25.65 M34.35 28.0 L36.2 27.5 M35.85 28.65 L34.35 28.5" fill="none" stroke="#000000" stroke-linecap="round" stroke-linejoin="round" stroke-opacity="0.101960786" stroke-width="0.25"/>
      <path d="M8.3 9.15 L7.75 6.85 8.55 5.75 9.4 4.95 Q10.35 4.2 11.55 4.0 L11.75 4.0 11.85 4.0 11.9 3.95 16.7 3.25 16.15 5.45 13.55 5.4 Q10.95 7.55 10.2 6.1 8.2 7.8 8.3 9.15 M10.55 5.8 L10.2 6.1 10.55 5.8 M12.35 6.7 L12.35 7.6 12.15 7.85 11.95 7.15 12.0 6.8 Q12.15 6.55 12.35 6.7 M11.55 7.45 L11.35 7.85 Q11.2 7.95 11.25 7.6 11.25 7.2 11.4 7.15 11.55 7.05 11.55 7.45 M10.4 7.4 Q10.4 8.05 10.2 8.15 9.95 8.25 9.9 7.85 L9.95 7.3 Q10.0 6.6 10.15 6.5 10.5 6.35 10.4 7.4" fill="#a8ab49" fill-rule="evenodd" stroke="none"/>
      <path d="M8.3 9.15 Q8.2 7.8 10.2 6.1 10.95 7.55 13.55 5.4 L16.15 5.45 15.2 9.5 Q15.65 6.65 13.8 7.0 13.5 6.6 13.3 7.15 L12.8 7.35 13.3 7.15 Q12.9 8.2 12.75 12.75 L12.2 8.95 Q10.7 11.15 10.05 18.45 10.6 8.05 10.05 8.7 8.8 10.65 8.35 15.2 8.6 11.55 8.3 9.2 L8.3 9.15 M13.8 7.0 L13.85 6.4 13.8 7.0 M10.4 7.4 Q10.5 6.35 10.15 6.5 10.0 6.6 9.95 7.3 L9.9 7.85 Q9.95 8.25 10.2 8.15 10.4 8.05 10.4 7.4 M11.55 7.45 Q11.55 7.05 11.4 7.15 11.25 7.2 11.25 7.6 11.2 7.95 11.35 7.85 L11.55 7.45 M12.35 6.7 Q12.15 6.55 12.0 6.8 L11.95 7.15 12.15 7.85 12.35 7.6 12.35 6.7" fill="#4a5725" fill-rule="evenodd" stroke="none"/>
      <path d="M16.7 3.25 L17.1 3.15 M16.15 5.45 L16.65 5.4 M16.15 5.45 L16.7 3.25 11.9 3.95 11.85 4.0 11.75 4.0 11.55 4.0 Q10.35 4.2 9.4 4.95 L8.55 5.75 7.75 6.85 8.3 9.15 M10.2 6.1 L10.55 5.8 M13.85 6.4 L13.8 7.0 Q15.65 6.65 15.2 9.5 L16.15 5.45 M13.8 7.0 Q13.5 6.6 13.3 7.15 L13.8 7.0 M13.3 7.15 L12.8 7.35 M8.35 15.2 Q8.6 11.55 8.3 9.2 L8.3 9.15 M8.3 15.45 L8.35 15.2 Q8.8 10.65 10.05 8.7 10.6 8.05 10.05 18.45 10.7 11.15 12.2 8.95 L12.75 12.75 Q12.9 8.2 13.3 7.15" fill="none" stroke="#000000" stroke-linecap="round" stroke-linejoin="round" stroke-opacity="0.101960786" stroke-width="0.5"/>
      <path d="M33.1 32.7 L33.05 32.6 32.85 32.65 32.75 32.9 32.75 33.05 32.85 33.05 32.95 32.9 33.1 32.7 M28.85 35.0 Q28.25 35.7 27.95 34.9 27.6 34.2 29.0 33.45 L29.65 33.3 Q29.35 33.25 29.5 32.95 29.6 32.65 30.3 32.5 L31.05 31.9 31.1 31.6 31.3 32.25 33.7 31.05 33.4 33.4 32.0 32.85 31.1 33.6 31.1 33.55 Q31.15 33.2 30.85 33.4 30.55 33.55 30.5 33.85 L30.5 33.95 30.3 33.9 30.2 33.9 Q28.85 34.0 28.85 35.0" fill="#a8ab49" fill-rule="evenodd" stroke="none"/>
      <path d="M31.05 38.45 Q31.2 37.25 31.05 38.75 L31.05 38.45" fill="#728238" fill-rule="evenodd" stroke="none"/>
      <path d="M33.1 32.7 L32.95 32.9 32.85 33.05 32.75 33.05 32.75 32.9 32.85 32.65 33.05 32.6 33.1 32.7 M31.1 33.6 L31.0 33.85 30.75 34.1 30.5 34.05 30.5 33.95 30.5 33.85 Q30.55 33.55 30.85 33.4 31.15 33.2 31.1 33.55 L31.1 33.6 M30.3 33.9 L30.35 34.05 30.1 34.4 30.0 34.2 30.2 33.9 30.3 33.9 M32.0 33.1 L32.1 34.05 32.05 35.15 31.85 37.4 31.4 39.7 31.35 38.5 31.45 36.7 31.6 35.05 31.75 33.5 Q31.8 32.95 32.0 33.1 M32.25 34.8 L32.3 34.6 Q32.35 34.25 32.5 34.25 L32.55 34.55 32.4 35.0 32.25 34.8 M31.1 35.05 L30.35 39.3 30.35 38.2 30.35 37.95 30.0 39.65 Q29.7 39.75 29.75 39.0 L29.95 37.8 30.1 35.9 30.3 35.4 30.55 34.95 30.55 36.25 Q30.7 35.15 31.1 34.8 L31.1 35.05" fill="#59692d" fill-rule="evenodd" stroke="none"/>
      <path d="M31.1 33.6 L32.0 32.85 33.4 33.4 32.6 36.55 Q32.75 33.55 31.85 38.6 L30.75 42.6 30.9 41.3 31.05 38.75 Q31.2 37.25 31.05 38.45 31.1 36.9 30.15 42.35 30.05 37.15 29.25 42.65 30.15 34.45 29.85 34.9 29.05 36.25 28.5 39.75 L28.85 35.0 Q28.85 34.0 30.2 33.9 L30.0 34.2 30.1 34.4 30.35 34.05 30.3 33.9 30.5 33.95 30.5 34.05 30.75 34.1 31.0 33.85 31.1 33.6 M31.1 35.05 L31.1 34.8 Q30.7 35.15 30.55 36.25 L30.55 34.95 30.3 35.4 30.1 35.9 29.95 37.8 29.75 39.0 Q29.7 39.75 30.0 39.65 L30.35 37.95 30.35 38.2 30.35 39.3 31.1 35.05 M32.25 34.8 L32.4 35.0 32.55 34.55 32.5 34.25 Q32.35 34.25 32.3 34.6 L32.25 34.8 M32.0 33.1 Q31.8 32.95 31.75 33.5 L31.6 35.05 31.45 36.7 31.35 38.5 31.4 39.7 31.85 37.4 32.05 35.15 32.1 34.05 32.0 33.1" fill="#4a5725" fill-rule="evenodd" stroke="none"/>
      <path d="M33.4 33.4 L33.65 33.5 M28.85 35.0 Q28.25 35.7 27.95 34.9 27.6 34.2 29.0 33.45 L29.65 33.3 Q29.35 33.25 29.5 32.95 29.6 32.65 30.3 32.5 L31.05 31.9 31.1 31.6 31.3 32.25 33.7 31.05 33.4 33.4 M28.85 35.0 L28.5 39.75 Q29.05 36.25 29.85 34.9 30.15 34.45 29.25 42.65 M31.05 38.45 Q31.2 37.25 31.05 38.75 L30.9 41.3 30.75 42.6 31.85 38.6 Q32.75 33.55 32.6 36.55 L33.4 33.4 M28.5 39.75 L28.45 40.15 M31.05 38.45 L31.05 38.75 30.9 39.95 30.9 41.3 M30.9 39.95 L31.05 38.45" fill="none" stroke="#000000" stroke-linecap="round" stroke-linejoin="round" stroke-opacity="0.101960786" stroke-width="0.5"/>
    </g>
    <radialGradient cx="0" cy="0" gradientTransform="matrix(0.0037, -0.0018, 0.0015, 0.0022, 28.2, 8.1)" gradientUnits="userSpaceOnUse" id="gradient0" r="819.2" spreadMethod="pad">
      <stop offset="0.0" stop-color="#7d4b1c"/>
      <stop offset="1.0" stop-color="#c07427"/>
    </radialGradient>
    <radialGradient cx="0" cy="0" gradientTransform="matrix(0.0028, -0.0013, 0.0011, 0.0017, 29.35, 9.4)" gradientUnits="userSpaceOnUse" id="gradient1" r="819.2" spreadMethod="pad">
      <stop offset="0.0" stop-color="#8f7845"/>
      <stop offset="1.0" stop-color="#b68e32"/>
    </radialGradient>
    <radialGradient cx="0" cy="0" gradientTransform="matrix(0.0027, -0.0014, -0.0012, -0.0016, 35.65, 18.9)" gradientUnits="userSpaceOnUse" id="gradient2" r="819.2" spreadMethod="pad">
      <stop offset="0.0" stop-color="#8f7845"/>
      <stop offset="1.0" stop-color="#b68e32"/>
    </radialGradient>
    <radialGradient cx="0" cy="0" gradientTransform="matrix(0.0036, -0.0019, -0.0016, -0.0022, 36.4, 20.3)" gradientUnits="userSpaceOnUse" id="gradient3" r="819.2" spreadMethod="pad">
      <stop offset="0.0" stop-color="#7d4b1c"/>
      <stop offset="1.0" stop-color="#c07427"/>
    </radialGradient>
  </defs>
</svg>
