<?xml version="1.0" encoding="UTF-8" standalone="no"?>
<svg xmlns:xlink="http://www.w3.org/1999/xlink" height="440.0px" width="440.0px" xmlns="http://www.w3.org/2000/svg">
  <g transform="matrix(10.0, 0.0, 0.0, 10.0, 0.0, 0.0)">
    <use height="44.0" transform="matrix(1.0, 0.0, 0.0, 1.0, 0.0, 0.0)" width="44.0" xlink:href="#shape0"/>
    <use height="275.9" transform="matrix(-0.1329, 0.0, 0.0, 0.1411, 42.0922, 2.55)" width="293.8" xlink:href="#sprite0"/>
  </g>
  <defs>
    <g id="shape0" transform="matrix(1.0, 0.0, 0.0, 1.0, 0.0, 0.0)">
      <path d="M44.0 44.0 L0.0 44.0 0.0 0.0 44.0 0.0 44.0 44.0" fill="#43adca" fill-opacity="0.0" fill-rule="evenodd" stroke="none"/>
    </g>
    <g id="sprite0" transform="matrix(1.0, 0.0, 0.0, 1.0, -25.65, 0.0)">
      <use height="275.9" transform="matrix(1.0, 0.0, 0.0, 1.0, 25.65, 0.0)" width="293.8" xlink:href="#shape1"/>
    </g>
    <g id="shape1" transform="matrix(1.0, 0.0, 0.0, 1.0, -25.65, 0.0)">
      <path d="M279.7 0.9 Q295.05 0.8 308.6 5.55 311.05 6.9 312.95 8.65 306.3 7.85 302.95 15.4 304.25 19.7 303.15 23.1 L289.65 16.4 Q289.25 14.5 286.5 13.95 281.85 15.05 280.3 12.3 281.35 7.05 279.7 0.9 M318.9 19.65 Q320.55 28.0 317.05 40.05 L302.45 57.5 Q299.8 54.55 298.1 59.4 296.2 64.35 295.25 53.5 L295.45 53.1 295.85 52.25 307.8 40.0 307.8 39.95 Q309.4 38.85 310.45 37.4 311.85 34.4 307.05 31.35 306.95 25.75 313.6 27.75 316.25 29.35 318.9 19.65 M294.1 99.3 Q291.7 97.3 290.15 94.9 288.8 92.75 288.05 90.25 L292.1 89.3 288.05 90.25 Q286.85 86.15 287.4 81.1 288.85 72.65 290.8 65.85 291.6 69.75 294.5 70.05 L298.1 68.15 292.1 89.3 293.3 92.95 297.45 96.7 Q297.15 98.9 294.1 99.3 M118.7 251.95 Q123.85 255.75 126.35 263.4 128.75 268.0 123.45 270.75 123.7 262.55 118.0 256.45 L118.7 251.95 118.0 256.45 114.25 253.95 115.9 250.25 Q117.4 251.0 118.7 251.95 M113.2 270.3 L111.9 267.35 117.75 264.15 Q117.7 266.1 117.15 268.65 L113.2 270.3 M25.75 246.3 Q24.55 220.6 38.55 190.5 40.7 188.75 42.85 192.6 L44.2 202.4 Q49.75 205.95 53.95 197.65 55.8 192.0 53.95 182.5 56.55 175.25 62.7 171.75 67.1 167.05 63.05 154.55 L66.55 150.9 Q70.65 135.05 65.65 113.85 67.4 115.3 69.85 114.55 L71.45 113.85 Q77.25 110.15 72.8 106.4 66.85 107.15 64.75 101.35 63.6 95.2 65.8 93.65 88.4 111.25 120.55 120.7 L123.75 119.95 Q119.8 127.4 125.6 132.1 109.8 131.35 116.95 136.4 120.85 137.8 120.65 141.75 108.2 143.95 90.2 155.6 88.6 153.6 87.65 151.2 81.65 147.5 77.85 159.6 76.7 162.6 76.95 165.3 63.1 181.1 52.7 206.1 L50.7 211.85 Q48.7 213.35 46.55 217.2 47.4 218.65 47.85 220.05 L47.85 220.1 44.45 227.15 Q41.85 227.15 39.85 230.7 40.6 234.5 42.25 237.2 41.25 252.0 46.45 254.2 L51.65 254.6 Q51.45 265.2 37.15 263.0 32.2 258.0 33.1 249.55 31.95 240.45 25.75 246.3 M50.75 90.4 Q41.55 76.0 50.75 79.85 L58.5 87.5 Q51.95 86.25 50.75 90.4 M158.05 89.25 L160.45 82.1 159.3 76.4 Q165.0 79.8 168.55 76.4 173.9 73.7 168.55 66.8 168.9 64.5 170.8 63.75 L170.8 63.7 Q172.8 62.9 176.45 63.75 183.45 60.25 175.05 54.65 179.45 48.45 184.8 42.9 L189.15 39.85 Q172.95 40.85 156.75 35.65 L161.5 40.05 159.95 47.95 Q155.15 47.45 151.95 53.35 147.75 42.8 141.85 31.3 147.25 36.85 155.1 27.85 171.3 39.65 195.95 32.6 203.9 26.15 213.25 20.65 217.6 24.15 219.95 28.25 205.2 29.3 199.4 46.2 201.1 50.9 207.45 47.85 204.3 56.4 197.5 61.3 195.05 56.6 189.75 61.95 186.4 66.75 188.65 71.55 L185.8 75.85 185.75 75.9 181.8 78.25 Q178.25 83.05 177.9 87.45 L168.0 89.85 Q164.1 86.65 158.05 89.25 M293.3 92.95 L290.15 94.9 293.3 92.95 M72.3 255.65 L76.8 254.05 Q79.65 253.0 82.95 252.1 82.45 256.35 85.65 259.3 76.7 267.0 62.4 271.1 64.15 267.25 59.35 266.05 63.1 260.85 72.3 255.65 M98.05 249.1 L105.35 248.25 Q109.75 248.15 113.35 249.25 L113.4 249.3 114.1 250.3 114.45 249.65 115.9 250.25 114.25 253.95 95.85 255.5 Q97.85 252.85 98.05 249.1 M74.95 118.3 L69.85 114.6 Q75.2 131.75 72.55 144.95 L76.2 142.3 Q82.05 137.6 88.4 133.8 88.6 135.85 90.05 137.4 91.8 139.3 95.4 140.4 105.45 141.95 108.5 129.3 106.6 119.05 101.45 122.9 L100.65 125.05 95.3 123.95 Q94.1 121.15 91.65 120.2 88.15 119.9 86.15 120.9 L74.95 118.3" fill="#00cccc" fill-rule="evenodd" stroke="none"/>
      <path d="M280.3 12.3 Q281.85 15.05 286.5 13.95 289.25 14.5 289.65 16.4 L279.55 15.05 280.3 12.3 M303.15 23.1 Q304.25 19.7 302.95 15.4 306.3 7.85 312.95 8.65 317.55 12.95 318.9 19.65 316.25 29.35 313.6 27.75 306.95 25.75 307.05 31.35 311.85 34.4 310.45 37.4 309.4 38.85 307.8 39.95 L303.25 23.55 302.95 23.6 303.15 23.1 M302.25 94.7 L305.9 89.15 306.8 94.45 302.25 94.7 M308.65 100.4 Q305.45 106.1 300.85 103.25 296.9 101.55 294.1 99.3 297.15 98.9 297.45 96.7 L308.65 100.4 M33.15 270.2 Q30.2 267.45 28.35 263.4 26.15 255.1 25.75 246.3 31.95 240.45 33.1 249.55 32.2 258.0 37.15 263.0 51.45 265.2 51.65 254.6 57.3 260.3 72.3 255.65 63.1 260.85 59.35 266.05 64.15 267.25 62.4 271.1 48.85 273.75 33.15 270.2 M38.55 190.5 L39.55 188.4 Q49.8 168.8 63.05 154.55 67.1 167.05 62.7 171.75 56.55 175.25 53.95 182.5 55.8 192.0 53.95 197.65 49.75 205.95 44.2 202.4 L42.85 192.6 Q40.7 188.75 38.55 190.5 M65.65 113.85 L63.95 107.45 Q56.85 99.6 50.75 90.4 51.95 86.25 58.5 87.5 L65.8 93.65 Q63.6 95.2 64.75 101.35 66.85 107.15 72.8 106.4 77.25 110.15 71.45 113.85 L69.85 114.55 Q67.4 115.3 65.65 113.85 M159.3 76.4 Q156.75 65.5 151.95 53.35 155.15 47.45 159.95 47.95 L165.65 60.75 170.8 63.75 Q168.9 64.5 168.55 66.8 173.9 73.7 168.55 76.4 165.0 79.8 159.3 76.4 M141.85 31.3 Q135.95 19.85 128.35 7.45 127.0 -5.25 138.25 7.45 146.0 16.75 152.2 25.55 153.6 26.8 155.1 27.85 147.25 36.85 141.85 31.3 M295.25 53.5 Q296.2 64.35 298.1 59.4 299.8 54.55 302.45 57.5 L298.1 68.15 294.5 70.05 Q291.6 69.75 290.8 65.85 292.8 58.8 295.25 53.5 M221.9 33.1 Q210.7 38.75 207.45 47.85 201.1 50.9 199.4 46.2 205.2 29.3 219.95 28.25 221.25 30.55 221.9 33.1 M175.05 54.65 Q183.45 60.25 176.45 63.75 172.8 62.9 170.8 63.7 L172.35 58.55 175.05 54.65 M197.5 61.3 L188.65 71.55 Q186.4 66.75 189.75 61.95 195.05 56.6 197.5 61.3 M185.75 75.9 L177.9 87.45 Q178.25 83.05 181.8 78.25 L185.75 75.9 M82.95 252.1 Q89.55 250.25 98.05 249.1 97.85 252.85 95.85 255.5 L85.65 259.3 Q82.45 256.35 82.95 252.1 M86.15 120.9 Q88.15 119.9 91.65 120.2 94.1 121.15 95.3 123.95 L86.15 120.9 M100.65 125.05 L101.45 122.9 Q106.6 119.05 108.5 129.3 105.45 141.95 95.4 140.4 91.8 139.3 90.05 137.4 88.6 135.85 88.4 133.8 L90.05 137.4 95.6 135.5 Q102.0 134.9 104.45 128.2 L100.65 125.05 M76.95 165.3 Q76.7 162.6 77.85 159.6 81.65 147.5 87.65 151.2 88.6 153.6 90.2 155.6 L76.95 165.3 M120.65 141.75 Q120.85 137.8 116.95 136.4 109.8 131.35 125.6 132.1 L125.65 132.1 127.15 133.2 Q128.45 141.15 120.65 141.75 M50.7 211.85 L47.85 220.05 Q47.4 218.65 46.55 217.2 48.7 213.35 50.7 211.85 M44.45 227.15 L42.25 237.2 Q40.6 234.5 39.85 230.7 41.85 227.15 44.45 227.15" fill="#00a8cc" fill-rule="evenodd" stroke="none"/>
      <path d="M306.75 64.35 L302.65 71.8 300.75 75.2 Q302.35 70.4 298.1 68.15 L302.45 57.5 Q305.95 60.5 306.75 64.35 M297.45 92.8 Q298.95 94.5 302.25 94.7 L306.8 94.45 305.9 89.15 311.6 92.2 Q310.3 97.4 308.65 100.4 L297.45 96.7 297.45 92.8 M51.85 275.9 Q39.7 276.3 33.15 270.2 48.85 273.75 62.4 271.1 59.8 274.2 51.85 275.9 M289.65 16.4 Q289.9 17.65 289.15 19.5 288.35 22.1 284.05 23.75 279.1 23.8 272.65 25.05 L272.45 24.85 Q277.6 20.45 279.55 15.05 L289.65 16.4 M297.3 27.4 Q300.95 28.8 302.95 23.6 L303.25 23.55 307.8 39.95 Q304.7 42.0 299.45 42.6 302.2 32.05 297.3 27.4 M207.45 47.85 Q210.7 38.75 221.9 33.1 223.45 39.2 221.05 46.4 215.25 50.75 210.35 55.9 213.4 46.65 210.35 46.2 L207.45 47.85 M170.8 63.7 L170.8 63.75 165.65 60.75 159.95 47.95 Q163.4 48.25 167.7 51.95 169.65 56.2 171.2 60.3 L172.35 58.55 170.8 63.7 M188.65 71.55 L197.5 61.3 Q198.95 64.0 199.45 70.05 L198.45 71.65 Q189.35 87.0 181.8 97.55 177.45 92.8 177.9 87.45 L185.75 75.9 185.8 75.85 189.75 73.45 188.65 71.55 M133.5 134.5 Q135.5 140.15 131.1 143.7 L130.15 144.25 Q121.6 149.4 110.1 155.3 105.7 151.55 112.2 147.85 120.25 144.8 120.65 141.75 128.45 141.15 127.15 133.2 128.8 134.2 131.0 135.1 L133.5 134.5 M98.25 161.35 Q82.0 170.55 70.5 186.15 67.5 183.8 72.5 176.45 80.8 173.75 79.2 171.05 77.2 168.35 76.95 165.3 L90.2 155.6 Q93.15 159.25 98.25 161.35 M56.2 212.45 Q53.05 220.3 50.65 229.1 48.55 236.7 48.3 242.3 44.5 240.75 42.25 237.2 L44.45 227.15 Q45.45 227.15 46.55 227.65 49.1 224.2 47.85 220.1 L47.85 220.05 50.7 211.85 Q53.65 209.5 56.2 212.45 M95.3 123.95 L96.05 126.3 Q99.05 127.8 100.65 125.05 L104.45 128.2 Q102.0 134.9 95.6 135.5 L90.05 137.4 88.4 133.8 92.65 131.4 Q87.95 128.5 83.55 125.25 83.65 122.05 86.15 120.9 L95.3 123.95 M85.65 259.3 L95.85 255.5 Q94.1 257.8 91.0 259.3 87.1 261.2 85.65 259.3" fill="#0092b0" fill-rule="evenodd" stroke="none"/>
      <path d="M289.65 16.4 L303.15 23.1 302.95 23.6 Q300.95 28.8 297.3 27.4 293.25 23.6 284.05 23.75 288.35 22.1 289.15 19.5 289.9 17.65 289.65 16.4 M317.05 40.05 Q313.9 50.7 306.75 64.35 305.95 60.5 302.45 57.5 L317.05 40.05 M300.75 75.2 Q296.35 83.55 296.15 88.35 296.1 89.85 296.45 91.0 296.8 92.05 297.45 92.8 L297.45 96.7 293.3 92.95 296.45 91.0 293.3 92.95 292.1 89.3 298.1 68.15 Q302.35 70.4 300.75 75.2 M123.45 270.75 Q120.3 272.3 114.5 273.25 L113.2 270.3 117.15 268.65 Q117.7 266.1 117.75 264.15 117.8 262.3 117.3 261.0 116.25 258.05 112.65 257.65 106.95 256.95 94.85 262.7 68.25 275.3 51.85 275.9 59.8 274.2 62.4 271.1 76.7 267.0 85.65 259.3 87.1 261.2 91.0 259.3 94.1 257.8 95.85 255.5 L114.25 253.95 112.65 257.65 114.25 253.95 118.0 256.45 117.3 261.0 118.0 256.45 Q123.7 262.55 123.45 270.75 M299.45 42.6 Q304.7 42.0 307.8 39.95 L307.8 40.0 295.85 52.25 Q298.3 46.9 299.45 42.6 M296.15 88.35 L292.1 89.3 296.15 88.35 M207.45 47.85 L210.35 46.2 Q213.4 46.65 210.35 55.9 204.2 62.35 199.45 70.05 198.95 64.0 197.5 61.3 204.3 56.4 207.45 47.85 M159.95 47.95 L161.5 40.05 156.75 35.65 Q172.95 40.85 189.15 39.85 L184.8 42.9 Q171.9 46.5 161.5 40.05 165.0 46.1 167.7 51.95 163.4 48.25 159.95 47.95 M188.65 71.55 L189.75 73.45 185.8 75.85 188.65 71.55 M177.9 87.45 Q177.45 92.8 181.8 97.55 L181.8 97.6 181.15 98.5 Q177.3 102.55 171.8 100.15 L172.6 97.7 Q171.6 94.55 170.25 92.45 L168.0 89.85 177.9 87.45 M110.1 155.3 L103.0 158.8 Q100.55 160.0 98.25 161.35 93.15 159.25 90.2 155.6 108.2 143.95 120.65 141.75 120.25 144.8 112.2 147.85 105.7 151.55 110.1 155.3 M70.5 186.15 Q62.05 197.6 56.2 212.45 53.65 209.5 50.7 211.85 L52.7 206.1 Q63.1 181.1 76.95 165.3 77.2 168.35 79.2 171.05 80.8 173.75 72.5 176.45 67.5 183.8 70.5 186.15 M48.3 242.3 Q47.9 250.75 51.65 254.6 L46.45 254.2 Q41.25 252.0 42.25 237.2 44.5 240.75 48.3 242.3 M76.2 142.3 L72.55 144.95 Q75.2 131.75 69.85 114.6 L74.95 118.3 Q79.3 131.55 76.2 142.3 M74.95 118.3 L86.15 120.9 Q83.65 122.05 83.55 125.25 L74.95 118.3 M95.3 123.95 L100.65 125.05 Q99.05 127.8 96.05 126.3 L95.3 123.95 M47.85 220.1 Q49.1 224.2 46.55 227.65 45.45 227.15 44.45 227.15 L47.85 220.1" fill="#00aeae" fill-rule="evenodd" stroke="none"/>
      <path d="M279.7 0.9 Q281.35 7.05 280.3 12.3 L279.55 15.05 265.05 19.6 259.7 21.25 251.2 23.95 Q254.55 14.3 251.85 4.7 254.55 14.3 251.2 23.95 L249.8 27.35 249.45 24.5 232.0 29.95 221.9 33.1 Q221.25 30.55 219.95 28.25 217.6 24.15 213.25 20.65 217.6 14.8 225.9 13.95 227.75 11.3 230.45 10.3 233.15 9.25 236.15 9.6 244.15 3.3 251.85 4.7 258.25 0.65 266.45 1.85 273.75 -1.3 279.7 0.9 M123.75 119.95 L127.35 118.5 Q133.85 112.75 140.3 111.25 140.8 110.3 142.95 107.85 145.05 105.35 148.85 103.7 151.9 96.2 156.1 93.3 L158.05 89.25 Q164.1 86.65 168.0 89.85 L170.25 92.45 163.95 101.0 161.2 105.25 158.3 98.4 163.95 101.0 158.3 98.4 161.2 105.25 155.45 114.0 147.3 119.95 143.85 122.5 142.1 116.95 147.3 119.95 142.1 116.95 143.85 122.5 137.4 127.15 135.2 128.1 Q130.2 124.3 127.35 118.5 130.2 124.3 135.2 128.1 L125.65 132.1 125.6 132.1 Q119.8 127.4 123.75 119.95 M266.45 1.85 Q266.05 9.3 262.65 16.2 L259.7 21.25 262.65 16.2 Q266.05 9.3 266.45 1.85 M262.65 16.2 Q264.2 17.9 265.05 19.6 264.2 17.9 262.65 16.2 M225.9 13.95 Q231.75 21.95 232.0 29.95 231.75 21.95 225.9 13.95 M236.15 9.6 Q247.5 14.2 249.45 24.5 247.5 14.2 236.15 9.6 M158.3 98.4 L156.1 93.3 158.3 98.4 M148.85 103.7 Q151.85 110.5 155.45 114.0 151.85 110.5 148.85 103.7 M142.1 116.95 L140.3 111.25 142.1 116.95" fill="#f5e2bc" fill-rule="evenodd" stroke="none"/>
      <path d="M279.55 15.05 Q277.6 20.45 272.45 24.85 L272.05 25.2 Q268.6 27.5 265.35 26.6 258.6 30.4 251.85 30.45 249.45 33.05 247.2 32.15 248.7 29.75 249.8 27.35 248.7 29.75 247.2 32.15 238.35 38.0 229.95 40.45 225.7 44.9 221.05 46.4 223.45 39.2 221.9 33.1 L232.0 29.95 Q232.15 35.2 229.95 40.45 232.15 35.2 232.0 29.95 L249.45 24.5 249.8 27.35 251.2 23.95 259.7 21.25 Q256.5 26.0 251.85 30.45 256.5 26.0 259.7 21.25 L265.05 19.6 Q266.75 23.1 265.35 26.6 266.75 23.1 265.05 19.6 L279.55 15.05 M170.25 92.45 Q171.6 94.55 172.6 97.7 L171.8 100.15 Q172.15 103.35 169.65 103.55 L169.6 103.55 169.35 104.05 Q168.55 110.65 164.15 112.15 L161.2 105.25 164.15 112.15 Q163.35 116.4 160.25 117.05 158.2 122.4 153.7 123.65 150.6 129.05 145.95 129.25 144.3 132.2 142.9 131.95 L141.45 131.6 Q138.8 135.7 133.5 134.5 L131.0 135.1 Q128.8 134.2 127.15 133.2 L125.65 132.1 135.2 128.1 Q138.0 130.15 141.45 131.6 138.0 130.15 135.2 128.1 L137.4 127.15 143.85 122.5 145.95 129.25 143.85 122.5 147.3 119.95 155.45 114.0 161.2 105.25 163.95 101.0 170.25 92.45 M163.95 101.0 L169.6 103.55 163.95 101.0 M160.25 117.05 Q157.75 116.2 155.45 114.0 157.75 116.2 160.25 117.05 M153.7 123.65 L147.3 119.95 153.7 123.65" fill="#ebc77a" fill-rule="evenodd" stroke="none"/>
      <path d="M312.95 8.65 Q311.05 6.9 308.6 5.55 295.05 0.8 279.7 0.9 281.35 7.05 280.3 12.3 M312.95 8.65 Q317.55 12.95 318.9 19.65 320.55 28.0 317.05 40.05 313.9 50.7 306.75 64.35 L302.65 71.8 300.75 75.2 Q296.35 83.55 296.15 88.35 296.1 89.85 296.45 91.0 296.8 92.05 297.45 92.8 298.95 94.5 302.25 94.7 L305.9 89.15 311.6 92.2 Q310.3 97.4 308.65 100.4 305.45 106.1 300.85 103.25 296.9 101.55 294.1 99.3 291.7 97.3 290.15 94.9 288.8 92.75 288.05 90.25 L118.7 251.95 Q123.85 255.75 126.35 263.4 128.75 268.0 123.45 270.75 120.3 272.3 114.5 273.25 L113.2 270.3 111.9 267.35 117.75 264.15 Q117.8 262.3 117.3 261.0 116.25 258.05 112.65 257.65 106.95 256.95 94.85 262.7 68.25 275.3 51.85 275.9 39.7 276.3 33.15 270.2 30.2 267.45 28.35 263.4 26.15 255.1 25.75 246.3 24.55 220.6 38.55 190.5 L39.55 188.4 Q49.8 168.8 63.05 154.55 L66.55 150.9 Q70.65 135.05 65.65 113.85 L63.95 107.45 Q56.85 99.6 50.75 90.4 41.55 76.0 50.75 79.85 L58.5 87.5 65.8 93.65 Q88.4 111.25 120.55 120.7 L123.75 119.95 127.35 118.5 Q133.85 112.75 140.3 111.25 140.8 110.3 142.95 107.85 145.05 105.35 148.85 103.7 151.9 96.2 156.1 93.3 L158.05 89.25 160.45 82.1 159.3 76.4 Q156.75 65.5 151.95 53.35 147.75 42.8 141.85 31.3 135.95 19.85 128.35 7.45 127.0 -5.25 138.25 7.45 146.0 16.75 152.2 25.55 153.6 26.8 155.1 27.85 171.3 39.65 195.95 32.6 203.9 26.15 213.25 20.65 217.6 14.8 225.9 13.95 227.75 11.3 230.45 10.3 233.15 9.25 236.15 9.6 244.15 3.3 251.85 4.7 258.25 0.65 266.45 1.85 273.75 -1.3 279.7 0.9 M279.55 15.05 Q277.6 20.45 272.45 24.85 M272.65 25.05 Q279.1 23.8 284.05 23.75 293.25 23.6 297.3 27.4 302.2 32.05 299.45 42.6 298.3 46.9 295.85 52.25 L295.45 53.1 295.25 53.5 Q292.8 58.8 290.8 65.85 288.85 72.65 287.4 81.1 286.85 86.15 288.05 90.25 L292.1 89.3 296.15 88.35 M307.8 39.95 L307.8 40.0 M279.55 15.05 L280.3 12.3 M251.85 4.7 Q254.55 14.3 251.2 23.95 M259.7 21.25 L262.65 16.2 Q266.05 9.3 266.45 1.85 M249.8 27.35 Q248.7 29.75 247.2 32.15 249.45 33.05 251.85 30.45 256.5 26.0 259.7 21.25 M265.05 19.6 Q264.2 17.9 262.65 16.2 M265.35 26.6 Q268.6 27.5 272.05 25.2 L272.45 24.85 M272.05 25.2 L272.65 25.05 M251.85 30.45 Q258.6 30.4 265.35 26.6 266.75 23.1 265.05 19.6 M249.45 24.5 L249.8 27.35 251.2 23.95 M290.15 94.9 L293.3 92.95 M296.45 91.0 L293.3 92.95 M302.25 94.7 L306.8 94.45 M221.9 33.1 Q221.25 30.55 219.95 28.25 M210.35 55.9 Q215.25 50.75 221.05 46.4 223.45 39.2 221.9 33.1 M232.0 29.95 Q231.75 21.95 225.9 13.95 M229.95 40.45 Q232.15 35.2 232.0 29.95 M249.45 24.5 Q247.5 14.2 236.15 9.6 M221.05 46.4 Q225.7 44.9 229.95 40.45 238.35 38.0 247.2 32.15 M213.25 20.65 Q217.6 24.15 219.95 28.25 M184.8 42.9 Q179.45 48.45 175.05 54.65 L172.35 58.55 171.2 60.3 Q169.65 56.2 167.7 51.95 165.0 46.1 161.5 40.05 171.9 46.5 184.8 42.9 M181.8 97.55 Q189.35 87.0 198.45 71.65 L199.45 70.05 Q204.2 62.35 210.35 55.9 M168.0 89.85 L170.25 92.45 Q171.6 94.55 172.6 97.7 L171.8 100.15 Q177.3 102.55 181.15 98.5 L181.8 97.6 181.8 97.55 M164.15 112.15 Q168.55 110.65 169.35 104.05 L169.65 103.55 169.6 103.55 163.95 101.0 158.3 98.4 161.2 105.25 164.15 112.15 Q163.35 116.4 160.25 117.05 158.2 122.4 153.7 123.65 150.6 129.05 145.95 129.25 144.3 132.2 142.9 131.95 L141.45 131.6 Q138.8 135.7 133.5 134.5 135.5 140.15 131.1 143.7 L130.15 144.25 Q121.6 149.4 110.1 155.3 L103.0 158.8 Q100.55 160.0 98.25 161.35 82.0 170.55 70.5 186.15 62.05 197.6 56.2 212.45 53.05 220.3 50.65 229.1 48.55 236.7 48.3 242.3 47.9 250.75 51.65 254.6 57.3 260.3 72.3 255.65 L76.8 254.05 Q79.65 253.0 82.95 252.1 89.55 250.25 98.05 249.1 L105.35 248.25 Q109.75 248.15 113.35 249.25 104.9 245.0 101.45 237.9 98.3 227.8 104.45 230.9 106.4 232.9 107.95 234.95 107.75 232.9 107.95 230.8 111.45 218.65 116.1 225.15 L116.95 228.8 Q119.25 240.6 114.45 249.65 L115.9 250.25 Q117.4 251.0 118.7 251.95 L118.0 256.45 M169.65 103.55 Q172.15 103.35 171.8 100.15 M155.45 114.0 Q157.75 116.2 160.25 117.05 M156.1 93.3 L158.3 98.4 M76.2 142.3 Q79.3 131.55 74.95 118.3 L83.55 125.25 Q87.95 128.5 92.65 131.4 L88.4 133.8 Q82.05 137.6 76.2 142.3 M125.6 132.1 Q119.8 127.4 123.75 119.95 M147.3 119.95 L142.1 116.95 143.85 122.5 M155.45 114.0 Q151.85 110.5 148.85 103.7 M147.3 119.95 L153.7 123.65 M135.2 128.1 Q138.0 130.15 141.45 131.6 M135.2 128.1 Q130.2 124.3 127.35 118.5 M127.15 133.2 Q128.8 134.2 131.0 135.1 L133.5 134.5 M125.65 132.1 L125.6 132.1 M127.15 133.2 L125.65 132.1 M145.95 129.25 L143.85 122.5 M140.3 111.25 L142.1 116.95 M114.45 249.65 L113.4 249.3 114.1 250.3 114.45 249.65 M113.4 249.3 L113.35 249.25 M107.95 234.95 Q113.0 241.8 113.4 249.25 L113.4 249.3 M114.25 253.95 L112.65 257.65 M114.25 253.95 L115.9 250.25 M117.15 268.65 Q117.7 266.1 117.75 264.15 M117.3 261.0 L118.0 256.45 M113.4 249.25 Q108.6 242.1 107.95 234.95 M168.0 89.85 Q164.1 86.65 158.05 89.25" fill="none" stroke="#000000" stroke-linecap="round" stroke-linejoin="round" stroke-opacity="0.3019608" stroke-width="0.05"/>
    </g>
  </defs>
</svg>
