<?xml version="1.0" encoding="UTF-8" standalone="no"?>
<svg xmlns:xlink="http://www.w3.org/1999/xlink" height="440.0px" width="440.0px" xmlns="http://www.w3.org/2000/svg">
  <g transform="matrix(10.0, 0.0, 0.0, 10.0, 0.0, 0.0)">
    <use height="44.0" transform="matrix(1.0, 0.0, 0.0, 1.0, 0.0, 0.0)" width="44.0" xlink:href="#shape0"/>
  </g>
  <defs>
    <g id="shape0" transform="matrix(1.0, 0.0, 0.0, 1.0, 0.0, 0.0)">
      <path d="M44.0 44.0 L0.0 44.0 0.0 0.0 44.0 0.0 44.0 44.0" fill="#43adca" fill-opacity="0.0" fill-rule="evenodd" stroke="none"/>
      <path d="M28.2 20.95 L29.0 21.3 29.15 21.3 28.2 20.95 M32.9 27.25 L32.9 27.2 Q33.5 26.2 32.0 24.1 L30.3 21.95 29.9 21.55 29.85 21.55 29.0 21.3 26.35 20.85 25.95 20.65 26.45 20.4 28.05 19.1 30.5 16.65 Q30.95 16.15 31.5 16.1 L29.55 18.0 28.5 19.0 28.75 18.85 Q28.25 20.4 28.45 20.3 29.25 20.7 31.35 22.25 L31.15 21.9 31.4 22.3 31.45 22.3 30.55 20.05 Q32.4 21.8 33.25 25.3 33.65 25.9 33.55 23.9 L32.8 22.3 Q34.65 23.95 34.2 25.35 L33.45 27.25 Q33.2 27.7 33.15 31.35 33.1 34.95 33.55 40.2 33.7 40.55 33.95 38.7 L33.95 38.8 Q34.3 40.9 34.7 40.65 L34.8 40.7 34.9 40.75 35.45 40.3 35.45 38.4 35.9 39.5 Q36.15 40.2 35.8 41.0 35.6 41.75 34.6 41.75 L33.8 41.3 Q33.05 40.5 32.9 39.25 L32.8 36.05 32.75 32.3 32.6 30.65 32.65 30.2 32.8 28.2 32.9 27.25" fill="#663300" fill-rule="evenodd" stroke="none"/>
      <path d="M29.55 18.0 Q28.05 19.95 30.1 21.0 29.6 20.65 29.25 19.75 29.3 18.55 30.5 17.6 L31.1 19.2 29.95 18.85 Q31.7 20.9 33.25 22.05 34.8 23.25 36.4 23.2 L36.05 23.35 36.9 23.05 36.2 23.75 36.25 23.75 Q36.6 25.5 35.95 26.35 35.35 27.15 35.25 27.6 L35.6 25.15 35.6 25.1 Q35.55 23.6 33.95 22.9 35.6 23.85 34.75 28.5 33.85 33.25 33.75 34.95 33.55 36.6 33.95 38.7 33.7 40.55 33.55 40.2 33.1 34.95 33.15 31.35 33.2 27.7 33.45 27.25 L34.2 25.35 Q34.65 23.95 32.8 22.3 L33.55 23.9 Q33.65 25.9 33.25 25.3 32.4 21.8 30.55 20.05 L31.45 22.3 31.4 22.3 31.15 21.9 31.35 22.25 Q29.25 20.7 28.45 20.3 28.25 20.4 28.75 18.85 L28.5 19.0 29.55 18.0" fill="#944a00" fill-rule="evenodd" stroke="none"/>
      <path d="M28.2 20.95 L29.15 21.3 29.0 21.3 28.2 20.95" fill="#cc4343" fill-rule="evenodd" stroke="none"/>
      <path d="M31.5 16.1 Q32.45 16.1 33.6 17.05 31.2 16.25 30.7 17.3 31.35 18.25 31.45 19.5 30.45 19.65 33.3 21.35 36.1 23.15 36.85 22.9 L38.15 23.05 Q37.15 23.4 36.7 24.2 37.0 26.4 35.9 27.9 35.4 28.5 35.6 28.65 L35.4 29.25 35.1 30.35 34.95 30.75 Q34.75 30.75 34.7 30.85 L34.2 32.6 Q34.05 33.4 34.55 34.0 L34.2 34.5 34.25 35.2 34.45 35.75 34.2 36.15 Q34.15 40.35 34.7 40.65 34.3 40.9 33.95 38.8 L33.95 38.7 Q33.55 36.6 33.75 34.95 33.85 33.25 34.75 28.5 35.6 23.85 33.95 22.9 35.55 23.6 35.6 25.1 L35.6 25.15 35.25 27.6 Q35.35 27.15 35.95 26.35 36.6 25.5 36.25 23.75 L36.2 23.75 36.9 23.05 36.05 23.35 36.4 23.2 Q34.8 23.25 33.25 22.05 31.7 20.9 29.95 18.85 L31.1 19.2 30.5 17.6 Q29.3 18.55 29.25 19.75 29.6 20.65 30.1 21.0 28.05 19.95 29.55 18.0 L31.5 16.1" fill="#c46200" fill-rule="evenodd" stroke="none"/>
      <path d="M35.6 28.65 Q36.15 29.5 38.65 30.45 L37.5 30.55 35.4 29.25 35.6 28.65 M34.55 34.0 Q35.55 34.25 37.0 35.65 L37.0 35.7 35.75 35.0 35.8 35.0 35.75 34.95 34.2 34.5 34.55 34.0 M30.7 29.25 L30.6 29.15 Q31.85 29.05 32.75 27.5 L32.9 27.25 32.8 28.2 31.8 29.4 31.9 29.45 30.7 29.25" fill="#ffffff" fill-rule="evenodd" stroke="none"/>
      <path d="M38.65 30.45 L38.75 30.5 36.0 31.05 34.95 30.75 35.1 30.35 37.5 30.55 38.65 30.45 M37.0 35.65 L37.05 35.75 37.0 35.7 34.45 35.75 34.25 35.2 35.75 35.0 35.75 34.95 35.8 35.0 35.75 35.0 37.0 35.7 37.0 35.65 M32.6 30.65 Q31.45 30.05 30.7 29.25 L31.9 29.45 32.65 30.2 32.6 30.65" fill="#ffedbd" fill-rule="evenodd" stroke="none"/>
      <path d="M32.8 28.2 L32.65 30.2 31.9 29.45 31.8 29.4 32.8 28.2 M35.1 30.35 L35.4 29.25 37.5 30.55 35.1 30.35 M34.25 35.2 L34.2 34.5 35.75 34.95 35.75 35.0 34.25 35.2" fill="#d4c59d" fill-rule="evenodd" stroke="none"/>
      <path d="M28.2 20.95 L29.0 21.3 29.15 21.3 28.2 20.95 M32.9 27.25 L32.9 27.2 Q33.5 26.2 32.0 24.1 L30.3 21.95 29.9 21.55 29.85 21.55 29.0 21.3 26.35 20.85 M25.95 20.65 L26.45 20.4 28.05 19.1 30.5 16.65 Q30.95 16.15 31.5 16.1 32.45 16.1 33.6 17.05 31.2 16.25 30.7 17.3 31.35 18.25 31.45 19.5 30.45 19.65 33.3 21.35 36.1 23.15 36.85 22.9 L38.15 23.05 Q37.15 23.4 36.7 24.2 37.0 26.4 35.9 27.9 35.4 28.5 35.6 28.65 36.15 29.5 38.65 30.45 L38.75 30.5 36.0 31.05 34.95 30.75 Q34.75 30.75 34.7 30.85 L34.2 32.6 Q34.05 33.4 34.55 34.0 35.55 34.25 37.0 35.65 L37.05 35.75 37.0 35.7 34.45 35.75 34.2 36.15 Q34.15 40.35 34.7 40.65 M35.45 40.3 L35.45 38.4 35.9 39.5 Q36.15 40.2 35.8 41.0 35.6 41.75 34.6 41.75 L33.8 41.3 Q33.05 40.5 32.9 39.25 L32.8 36.05 32.75 32.3 32.6 30.65 Q31.45 30.05 30.7 29.25 L30.6 29.15 Q31.85 29.05 32.75 27.5 L32.9 27.25 32.8 28.2 32.65 30.2 32.6 30.65 M31.9 29.45 L31.8 29.4 M35.4 29.25 L35.1 30.35 34.95 30.75 M35.4 29.25 L35.6 28.65 M34.2 34.5 L34.25 35.2 34.45 35.75 M34.2 34.5 L34.55 34.0 M35.75 34.95 L35.8 35.0 35.75 35.0" fill="none" stroke="#000000" stroke-linecap="round" stroke-linejoin="round" stroke-opacity="0.3019608" stroke-width="0.05"/>
      <path d="M27.6 19.85 L26.9 20.5 25.7 19.4 Q26.9 20.0 26.5 18.5 L27.6 19.85 M24.65 16.9 Q23.75 15.35 22.35 16.0 L23.45 15.1 Q24.4 15.15 25.5 16.1 L24.65 16.9" fill="#783f07" fill-rule="evenodd" stroke="none"/>
      <path d="M25.45 13.5 L26.2 12.85 Q26.1 13.9 27.45 14.45 L26.7 15.0 Q25.4 14.5 25.45 13.5 M28.7 16.2 L30.55 16.9 29.9 17.5 28.65 17.15 Q26.75 15.55 28.7 16.2" fill="#a66f38" fill-rule="evenodd" stroke="none"/>
      <path d="M26.7 15.0 L27.45 14.45 Q27.45 15.55 28.7 16.2 26.75 15.55 28.65 17.15 26.7 16.4 26.7 15.0" fill="#916131" fill-rule="evenodd" stroke="none"/>
      <path d="M25.7 19.4 Q24.7 18.2 24.65 16.9 L25.5 16.1 Q25.8 17.4 26.5 18.5 26.9 20.0 25.7 19.4" fill="#874407" fill-rule="evenodd" stroke="none"/>
      <path d="M25.45 13.5 Q25.4 14.5 26.7 15.0 26.7 16.4 28.65 17.15 L29.9 17.5 27.6 19.85 26.5 18.5 Q25.8 17.4 25.5 16.1 24.4 15.15 23.45 15.1 L25.45 13.5" fill="#301800" fill-rule="evenodd" stroke="none"/>
      <path d="M27.45 14.45 Q26.1 13.9 26.2 12.85 L25.45 13.5 M26.7 15.0 L27.45 14.45 Q27.45 15.55 28.7 16.2 L30.55 16.9 29.9 17.5 27.6 19.85 26.9 20.5 25.7 19.4 Q24.7 18.2 24.65 16.9 23.75 15.35 22.35 16.0 L23.45 15.1 25.45 13.5" fill="none" stroke="#000000" stroke-linecap="round" stroke-linejoin="round" stroke-opacity="0.3019608" stroke-width="0.05"/>
      <path d="M5.45 5.9 L5.55 5.9 9.2 6.75 15.7 6.7 Q20.45 6.55 21.15 8.4 20.75 6.65 19.3 6.35 L19.3 6.4 19.2 6.4 Q18.25 6.2 16.65 6.4 L18.05 5.85 20.7 5.95 20.65 6.0 21.5 5.45 21.05 6.25 21.25 5.85 Q20.95 7.45 21.9 9.15 22.8 10.9 24.6 12.95 24.45 12.75 24.4 11.75 L25.9 12.65 Q24.75 13.65 23.5 13.45 L22.45 12.5 Q23.2 14.7 25.3 13.45 L24.2 14.35 24.4 14.15 22.85 14.25 21.45 11.05 21.35 11.0 21.35 10.95 Q22.3 11.25 23.45 12.2 22.0 10.05 18.65 8.65 L20.1 8.6 21.55 9.6 Q20.25 7.55 18.75 7.75 L16.8 8.15 12.7 7.8 3.95 6.1 5.45 5.9 M20.95 6.45 L21.0 6.35 20.95 6.35 20.95 6.45" fill="#944a00" fill-rule="evenodd" stroke="none"/>
      <path d="M25.3 13.45 Q23.2 14.7 22.45 12.5 L23.5 13.45 Q24.75 13.65 25.9 12.65 L24.4 11.75 Q24.45 12.75 24.6 12.95 22.8 10.9 21.9 9.15 20.95 7.45 21.25 5.85 L21.05 6.25 21.5 5.45 20.65 6.0 20.7 5.95 18.05 5.85 16.65 6.4 Q18.25 6.2 19.2 6.4 L19.3 6.4 19.3 6.35 Q20.75 6.65 21.15 8.4 20.45 6.55 15.7 6.7 L9.2 6.75 5.55 5.9 5.45 5.9 Q3.4 5.2 3.7 4.8 3.9 5.4 8.1 6.05 L8.45 5.85 9.0 6.2 9.8 6.3 10.3 6.0 Q10.8 6.65 11.6 6.6 L13.4 6.35 13.55 6.15 14.0 6.1 15.05 5.9 15.7 5.8 16.55 5.7 Q18.15 4.75 20.3 5.4 21.15 5.1 21.65 4.15 22.0 4.8 21.6 5.5 21.25 6.2 22.55 9.25 23.85 12.35 24.15 11.35 25.35 11.65 26.2 12.45 27.35 12.15 26.95 9.65 27.65 10.95 27.5 11.8 L25.3 13.45" fill="#c46200" fill-rule="evenodd" stroke="none"/>
      <path d="M5.45 5.9 L3.95 6.1 12.7 7.8 16.8 8.15 18.75 7.75 Q20.25 7.55 21.55 9.6 L20.1 8.6 18.65 8.65 Q22.0 10.05 23.45 12.2 22.3 11.25 21.35 10.95 L21.35 11.0 21.45 11.05 22.85 14.25 24.4 14.15 24.2 14.35 25.3 13.45 27.5 11.8 26.85 12.8 24.0 14.8 22.5 16.15 22.15 16.6 22.0 16.2 22.0 13.5 21.85 12.6 21.55 12.15 19.65 10.05 Q17.85 8.3 16.8 8.7 L16.7 8.75 15.7 8.65 13.75 8.5 13.3 8.45 11.6 8.05 8.0 7.45 4.85 6.85 Q3.6 6.5 2.95 5.7 L2.6 4.75 Q2.8 3.8 3.6 3.65 L5.1 3.85 6.1 4.45 4.2 4.15 Q3.9 4.15 3.7 4.6 L3.65 4.7 3.7 4.75 3.7 4.8 Q3.4 5.2 5.45 5.9 M22.0 13.5 L22.2 14.45 22.0 13.35 22.0 13.5" fill="#663300" fill-rule="evenodd" stroke="none"/>
      <path d="M20.95 6.45 L20.95 6.35 21.0 6.35 20.95 6.45" fill="#000000" fill-rule="evenodd" stroke="none"/>
      <path d="M22.0 13.5 L22.0 13.35 22.2 14.45 22.0 13.5" fill="#cc4343" fill-rule="evenodd" stroke="none"/>
      <path d="M14.0 6.1 L13.55 6.15 13.45 5.05 Q13.35 4.45 14.35 2.4 L14.4 2.5 14.1 3.65 Q13.55 4.6 14.0 6.1 M9.0 6.2 L8.45 5.85 Q8.9 5.6 9.0 3.4 L9.45 4.7 9.0 6.2 M14.35 10.6 Q13.75 9.7 13.3 8.45 L13.75 8.5 14.35 9.4 14.35 9.45 14.35 10.6 M9.5 4.65 L9.45 4.7 9.5 4.6 9.5 4.65" fill="#ffedbd" fill-rule="evenodd" stroke="none"/>
      <path d="M15.7 5.8 L15.05 5.9 14.1 3.65 14.4 2.5 Q14.95 5.15 15.7 5.8 M10.3 6.0 L9.8 6.3 9.5 4.65 9.5 4.6 9.45 4.7 9.0 3.4 Q10.25 5.05 10.3 6.0 M14.35 10.6 L14.35 9.45 15.7 8.65 16.7 8.75 16.45 8.85 Q14.75 9.45 14.45 10.7 L14.35 10.6" fill="#ffffff" fill-rule="evenodd" stroke="none"/>
      <path d="M15.05 5.9 L14.0 6.1 Q13.55 4.6 14.1 3.65 L15.05 5.9 M9.8 6.3 L9.0 6.2 9.45 4.7 9.5 4.65 9.8 6.3 M14.35 9.45 L14.35 9.4 13.75 8.5 15.7 8.65 14.35 9.45" fill="#d4c59d" fill-rule="evenodd" stroke="none"/>
      <path d="M27.5 11.8 Q27.65 10.95 26.95 9.65 27.35 12.15 26.2 12.45 25.35 11.65 24.15 11.35 23.85 12.35 22.55 9.25 21.25 6.2 21.6 5.5 22.0 4.8 21.65 4.15 21.15 5.1 20.3 5.4 18.15 4.75 16.55 5.7 L15.7 5.8 15.05 5.9 14.0 6.1 13.55 6.15 13.4 6.35 11.6 6.6 Q10.8 6.65 10.3 6.0 L9.8 6.3 9.0 6.2 8.45 5.85 8.1 6.05 Q3.9 5.4 3.7 4.8 M22.0 13.5 L22.0 13.35 22.2 14.45 22.0 13.5 22.0 16.2 M22.15 16.6 L22.5 16.15 24.0 14.8 26.85 12.8 27.5 11.8 M16.7 8.75 L16.8 8.7 Q17.85 8.3 19.65 10.05 L21.55 12.15 21.85 12.6 22.0 13.5 M14.4 2.5 L14.35 2.4 Q13.35 4.45 13.45 5.05 L13.55 6.15 M14.4 2.5 Q14.95 5.15 15.7 5.8 M13.3 8.45 Q13.75 9.7 14.35 10.6 L14.45 10.7 Q14.75 9.45 16.45 8.85 L16.7 8.75 15.7 8.65 M14.35 9.45 L14.35 9.4 M13.75 8.5 L13.3 8.45 11.6 8.05 8.0 7.45 4.85 6.85 Q3.6 6.5 2.95 5.7 L2.6 4.75 Q2.8 3.8 3.6 3.65 L5.1 3.85 6.1 4.45 4.2 4.15 M13.75 8.5 L15.7 8.65 M9.5 4.65 L9.5 4.6 9.45 4.7 M9.0 3.4 Q8.9 5.6 8.45 5.85 M10.3 6.0 Q10.25 5.05 9.0 3.4" fill="none" stroke="#000000" stroke-linecap="round" stroke-linejoin="round" stroke-opacity="0.3019608" stroke-width="0.05"/>
      <path d="M5.15 6.95 L33.45 39.75" fill="none" stroke="#000000" stroke-linecap="round" stroke-linejoin="round" stroke-opacity="0.43137255" stroke-width="0.05"/>
      <path d="M38.7 19.1 L38.8 19.15 39.55 19.4 39.9 19.55 40.15 20.2 Q40.3 20.65 40.0 20.75 L39.2 20.65 38.5 20.05 38.45 19.9 38.45 19.45 38.7 19.1 M39.8 25.5 L39.1 25.25 38.85 25.15 38.45 24.85 38.75 24.6 38.7 24.65 38.75 24.6 39.55 24.0 Q40.2 23.5 40.1 24.45 L39.8 25.5 M38.05 21.85 Q38.15 21.6 38.4 21.5 38.65 21.35 38.9 21.5 L39.1 21.95 Q39.0 22.3 39.2 22.5 39.35 22.75 39.05 22.85 L38.45 22.9 38.05 22.5 Q37.9 22.3 38.05 21.95 L38.0 21.9 38.05 21.85" fill="#e2cd9a" fill-rule="evenodd" stroke="none"/>
      <path d="M37.75 24.0 Q37.05 24.05 36.9 25.2 L36.55 24.75 Q35.7 23.0 36.5 22.05 L36.8 21.85 36.95 22.6 37.5 22.4 37.1 22.9 37.25 23.2 37.75 24.0" fill="#ab8732" fill-rule="evenodd" stroke="none"/>
      <path d="M36.55 24.75 Q35.25 23.75 35.0 22.25 L36.5 22.05 Q35.7 23.0 36.55 24.75" fill="#d3b367" fill-rule="evenodd" stroke="none"/>
      <path d="M39.9 19.55 Q40.8 20.05 41.3 21.25 L40.9 21.3 40.55 21.7 40.55 22.3 41.0 22.7 41.6 22.6 41.7 22.55 41.65 23.75 41.15 24.95 Q41.55 23.85 40.4 22.9 L40.8 24.5 40.65 24.95 40.5 25.4 39.8 25.5 40.1 24.45 Q40.2 23.5 39.55 24.0 L38.75 24.6 38.05 22.5 38.45 22.9 39.05 22.85 Q39.35 22.75 39.2 22.5 39.0 22.3 39.1 21.95 L38.9 21.5 Q38.65 21.35 38.4 21.5 38.15 21.6 38.05 21.85 37.95 20.8 38.45 19.9 L38.5 20.05 39.2 20.65 40.0 20.75 Q40.3 20.65 40.15 20.2 L39.9 19.55" fill="#ff0000" fill-rule="evenodd" stroke="none"/>
      <path d="M38.45 24.85 L37.75 24.0 37.25 23.2 37.1 22.9 37.5 22.4 36.95 22.6 36.8 21.85 36.75 20.8 36.85 20.2 Q36.9 20.05 37.1 20.1 L37.8 19.85 37.1 19.7 37.65 19.25 38.7 19.1 38.45 19.45 38.45 19.9 Q37.95 20.8 38.05 21.85 L38.0 21.9 38.05 21.95 Q37.9 22.3 38.05 22.5 L38.75 24.6 38.7 24.65 38.75 24.6 38.45 24.85" fill="#990000" fill-rule="evenodd" stroke="none"/>
      <path d="M41.15 24.95 L40.9 25.25 40.65 24.95 40.8 24.5 40.4 22.9 Q41.55 23.85 41.15 24.95" fill="#a80000" fill-rule="evenodd" stroke="none"/>
      <path d="M37.1 20.1 L37.1 19.7 37.8 19.85 37.1 20.1" fill="#780000" fill-rule="evenodd" stroke="none"/>
      <path d="M41.3 21.25 L41.7 22.55 41.6 22.6 41.0 22.7 40.55 22.3 40.55 21.7 40.9 21.3 41.3 21.25" fill="#ffffff" fill-rule="evenodd" stroke="none"/>
      <path d="M38.7 19.1 L38.8 19.15 39.55 19.4 39.9 19.55 Q40.8 20.05 41.3 21.25 L41.7 22.55 41.65 23.75 41.15 24.95 40.9 25.25 M40.5 25.4 L39.8 25.5 39.1 25.25 38.85 25.15 38.45 24.85 37.75 24.0 Q37.05 24.05 36.9 25.2 L36.55 24.75 Q35.25 23.75 35.0 22.25 L36.5 22.05 36.8 21.85 36.75 20.8 36.85 20.2 Q36.9 20.05 37.1 20.1 L37.1 19.7 37.65 19.25 38.7 19.1 M37.75 24.0 L37.25 23.2 37.1 22.9 M36.95 22.6 L36.8 21.85" fill="none" stroke="#000000" stroke-linecap="round" stroke-linejoin="round" stroke-opacity="0.43137255" stroke-width="0.05"/>
      <path d="M40.9 25.25 L40.65 24.95 40.5 25.4 M37.1 20.1 L37.8 19.85 37.1 19.7 M37.1 22.9 L37.5 22.4 36.95 22.6 M40.65 24.95 L40.8 24.5 40.4 22.9 Q41.55 23.85 41.15 24.95" fill="none" stroke="#000000" stroke-linecap="round" stroke-linejoin="round" stroke-opacity="0.3019608" stroke-width="0.05"/>
      <path d="M41.2 21.45 Q41.5 22.3 41.4 23.0 41.3 23.7 40.9 23.85 40.45 24.0 39.95 23.5 39.5 23.0 39.2 22.15 38.9 21.35 38.95 20.6 39.05 19.9 39.5 19.75 39.9 19.6 40.4 20.1 L41.2 21.45" fill="#ffffff" fill-opacity="0.3019608" fill-rule="evenodd" stroke="none"/>
    </g>
  </defs>
</svg>
