<?xml version="1.0" encoding="UTF-8" standalone="no"?>
<svg xmlns:xlink="http://www.w3.org/1999/xlink" height="440.0px" width="440.0px" xmlns="http://www.w3.org/2000/svg">
  <g transform="matrix(10.0, 0.0, 0.0, 10.0, 0.0, 0.0)">
    <use height="44.0" transform="matrix(1.0, 0.0, 0.0, 1.0, 0.0, 0.0)" width="44.0" xlink:href="#shape0"/>
  </g>
  <defs>
    <g id="shape0" transform="matrix(1.0, 0.0, 0.0, 1.0, 0.0, 0.0)">
      <path d="M44.0 44.0 L0.0 44.0 0.0 0.0 44.0 0.0 44.0 44.0" fill="#43adca" fill-opacity="0.0" fill-rule="evenodd" stroke="none"/>
      <path d="M4.5 1.8 L5.55 3.3 6.35 4.45 8.2 7.2 2.75 1.2 M7.3 3.1 L6.65 3.15 6.4 2.55 M5.55 3.3 L6.65 3.15 7.6 4.95 6.35 4.45 M8.2 7.2 L9.6 8.75 32.05 33.65 33.6 35.25 37.3 39.35 39.95 42.3 M7.6 4.95 L9.6 8.75 M32.05 33.65 L34.25 35.0 33.6 35.25 35.05 36.4 35.95 37.2 36.2 37.35 37.35 38.3 37.3 39.35 M35.95 37.2 L35.65 36.05 36.6 36.6 36.2 37.35 M39.35 39.95 L37.35 38.3 37.4 37.2 38.15 37.6 M37.5 36.55 L37.4 37.2 36.6 36.6 37.05 35.85 M34.25 35.0 L35.65 36.05 35.05 36.4" fill="none" stroke="#000000" stroke-linecap="round" stroke-linejoin="round" stroke-opacity="0.4117647" stroke-width="0.2"/>
      <path d="M16.0 9.4 L15.15 9.25 18.8 12.75 19.7 13.0 16.0 9.4 M10.05 4.15 L8.75 3.1 Q8.05 2.4 5.7 1.6 L2.75 1.2 Q6.35 2.4 7.15 2.9 L9.25 4.25 10.05 4.15" fill="#efaa65" fill-rule="evenodd" stroke="none"/>
      <path d="M10.05 4.15 L16.65 4.95 Q15.6 3.95 12.75 2.45 L5.7 1.6 Q8.05 2.4 8.75 3.1 L10.05 4.15 M22.3 10.9 L16.0 9.4 19.7 13.0 Q22.2 13.6 22.65 14.85 L25.7 14.85 22.3 10.9" fill="#eb9136" fill-rule="evenodd" stroke="none"/>
      <path d="M16.0 9.4 L13.85 7.4 13.05 7.35 15.15 9.25 16.0 9.4 M12.05 5.8 L10.05 4.15 9.25 4.25 11.3 5.75 12.05 5.8" fill="#f9e0ca" fill-rule="evenodd" stroke="none"/>
      <path d="M13.85 7.4 L16.0 9.4 22.3 10.9 16.65 4.95 10.05 4.15 12.05 5.8 Q14.3 6.15 15.35 6.9 16.8 7.8 13.85 7.4" fill="#f2ba84" fill-rule="evenodd" stroke="none"/>
      <path d="M21.7 15.0 L21.1 15.1 24.65 18.9 25.6 19.25 21.7 15.0 M29.1 24.35 L32.35 28.65 33.0 28.7 30.05 24.65 29.1 24.35" fill="#e9831f" fill-rule="evenodd" stroke="none"/>
      <path d="M22.65 14.85 L21.7 15.0 25.6 19.25 30.6 20.85 Q28.45 17.85 25.7 14.85 L22.65 14.85 M35.85 28.95 L34.15 26.05 30.05 24.65 33.0 28.7 35.85 28.95" fill="#d47315" fill-rule="evenodd" stroke="none"/>
      <path d="M24.65 18.9 L29.1 24.35 30.05 24.65 25.6 19.25 24.65 18.9 M33.05 29.6 L36.35 34.7 37.05 34.8 33.7 29.7 33.05 29.6" fill="#995411" fill-rule="evenodd" stroke="none"/>
      <path d="M38.75 34.95 L36.7 30.35 33.7 29.7 37.05 34.8 38.75 34.95 M34.15 26.05 L30.6 20.85 25.6 19.25 30.05 24.65 34.15 26.05" fill="#7b430d" fill-rule="evenodd" stroke="none"/>
      <path d="M36.7 30.35 L35.85 28.95 33.0 28.7 33.7 29.7 36.7 30.35" fill="#aa5e11" fill-rule="evenodd" stroke="none"/>
      <path d="M32.35 28.65 L33.05 29.6 33.7 29.7 33.0 28.7 32.35 28.65" fill="#b96513" fill-rule="evenodd" stroke="none"/>
      <path d="M36.35 34.7 L39.6 40.4 40.15 42.25 40.35 40.95 40.3 40.7 37.05 34.8 36.35 34.7" fill="#a35810" fill-rule="evenodd" stroke="none"/>
      <path d="M40.3 40.7 Q39.9 38.05 38.75 34.95 L37.05 34.8 40.3 40.7" fill="#6c3a0b" fill-rule="evenodd" stroke="none"/>
      <path d="M16.0 9.4 L15.15 9.25 13.05 7.35 13.85 7.4 Q16.8 7.8 15.35 6.9 14.3 6.15 12.05 5.8 M10.05 4.15 L16.65 4.95 22.3 10.9 16.0 9.4 M19.7 13.0 L18.8 12.75 15.15 9.25 M9.25 4.25 L11.3 5.75 12.05 5.8 M10.05 4.15 L9.25 4.25 7.15 2.9 Q6.35 2.4 2.75 1.2 L5.7 1.6 12.75 2.45 Q15.6 3.95 16.65 4.95 M19.7 13.0 Q22.2 13.6 22.65 14.85 L21.7 15.0 21.1 15.1 24.65 18.9 29.1 24.35 32.35 28.65 33.05 29.6 36.35 34.7 39.6 40.4 40.15 42.25 40.35 40.95 40.3 40.7 Q39.9 38.05 38.75 34.95 L36.7 30.35 35.85 28.95 34.15 26.05 30.6 20.85 Q28.45 17.85 25.7 14.85 L22.3 10.9 M29.1 24.35 L30.05 24.65 34.15 26.05 M33.0 28.7 L32.35 28.65 M33.7 29.7 L33.05 29.6 M25.6 19.25 L24.65 18.9 M22.65 14.85 L25.7 14.85 M25.6 19.25 L30.6 20.85 M35.85 28.95 L33.0 28.7 M33.7 29.7 L36.7 30.35" fill="none" stroke="#000000" stroke-linecap="round" stroke-linejoin="round" stroke-opacity="0.4" stroke-width="0.2"/>
      <path d="M16.45 9.85 L18.05 11.25 18.8 11.3 Q20.85 11.5 21.7 12.1 22.85 12.75 20.2 12.6 L19.5 12.6 21.15 14.15 24.1 17.2 24.9 17.3 Q27.15 17.75 27.4 18.8 L25.85 19.15 28.7 22.4 32.15 27.05 34.55 30.7 35.0 31.55 37.45 35.95 39.6 40.8 39.9 42.5 40.3 41.35 40.25 41.05 Q40.2 38.65 39.6 36.0 L38.25 31.95 37.7 30.75 36.5 28.2 33.85 23.75 30.25 18.65 27.6 15.3 23.1 10.25 21.45 8.5 14.45 8.05 15.7 9.2 16.45 9.85" fill="#000000" fill-opacity="0.25882354" fill-rule="evenodd" stroke="none"/>
      <path d="M15.85 7.45 L15.25 7.4 16.5 8.55 17.25 9.25 17.9 9.25 16.85 8.35 15.85 7.45 M21.75 13.6 L24.6 16.6 25.4 16.75 22.55 13.75 21.75 13.6" fill="#efaa65" fill-rule="evenodd" stroke="none"/>
      <path d="M25.4 16.75 Q27.6 17.2 27.85 18.25 L30.7 18.05 28.1 14.75 22.55 13.75 25.4 16.75 M23.8 9.65 L22.15 7.85 15.85 7.45 16.85 8.35 17.9 9.25 23.8 9.65" fill="#eb9136" fill-rule="evenodd" stroke="none"/>
      <path d="M17.25 9.25 L18.8 10.7 19.45 10.7 17.9 9.25 17.25 9.25 M20.85 12.05 L20.2 12.0 21.75 13.6 22.55 13.75 20.85 12.05" fill="#f9e0ca" fill-rule="evenodd" stroke="none"/>
      <path d="M19.45 10.7 Q21.5 10.85 22.4 11.45 23.45 12.15 20.85 12.05 L22.55 13.75 28.1 14.75 23.8 9.65 17.9 9.25 19.45 10.7" fill="#f2ba84" fill-rule="evenodd" stroke="none"/>
      <path d="M26.9 18.45 L26.35 18.6 29.0 21.9 29.85 22.15 26.9 18.45 M32.35 26.55 L34.65 30.25 35.25 30.3 33.1 26.8 32.35 26.55" fill="#e9831f" fill-rule="evenodd" stroke="none"/>
      <path d="M27.85 18.25 L26.9 18.45 29.85 22.15 34.15 23.3 30.7 18.05 27.85 18.25 M37.8 30.35 L36.65 27.8 33.1 26.8 35.25 30.3 37.8 30.35" fill="#d47315" fill-rule="evenodd" stroke="none"/>
      <path d="M29.0 21.9 L32.35 26.55 33.1 26.8 29.85 22.15 29.0 21.9 M35.15 31.1 L37.4 35.55 38.0 35.55 35.75 31.2 35.15 31.1" fill="#995411" fill-rule="evenodd" stroke="none"/>
      <path d="M39.55 35.65 L38.3 31.6 35.75 31.2 38.0 35.55 39.55 35.65 M36.65 27.8 Q35.6 25.6 34.15 23.3 L29.85 22.15 33.1 26.8 36.65 27.8" fill="#7b430d" fill-rule="evenodd" stroke="none"/>
      <path d="M38.3 31.6 L37.8 30.35 35.25 30.3 35.75 31.2 38.3 31.6" fill="#aa5e11" fill-rule="evenodd" stroke="none"/>
      <path d="M34.65 30.25 L35.15 31.1 35.75 31.2 35.25 30.3 34.65 30.25" fill="#b96513" fill-rule="evenodd" stroke="none"/>
      <path d="M37.4 35.55 L39.5 40.5 39.7 42.1 40.15 41.0 40.15 40.75 38.0 35.55 37.4 35.55" fill="#a35810" fill-rule="evenodd" stroke="none"/>
      <path d="M40.15 40.75 Q40.1 38.3 39.55 35.65 L38.0 35.55 40.15 40.75" fill="#6c3a0b" fill-rule="evenodd" stroke="none"/>
      <path d="M15.85 7.45 L15.25 7.4 16.5 8.55 17.25 9.25 18.8 10.7 19.45 10.7 Q21.5 10.85 22.4 11.45 23.45 12.15 20.85 12.05 L20.2 12.0 21.75 13.6 24.6 16.6 25.4 16.75 Q27.6 17.2 27.85 18.25 L26.9 18.45 26.35 18.6 29.0 21.9 32.35 26.55 34.65 30.25 35.15 31.1 37.4 35.55 39.5 40.5 39.7 42.1 40.15 41.0 40.15 40.75 Q40.1 38.3 39.55 35.65 L38.3 31.6 37.8 30.35 36.65 27.8 Q35.6 25.6 34.15 23.3 L30.7 18.05 28.1 14.75 23.8 9.65 22.15 7.85 15.85 7.45 M17.9 9.25 L17.25 9.25 M22.55 13.75 L21.75 13.6 M23.8 9.65 L17.9 9.25 M29.85 22.15 L29.0 21.9 M35.75 31.2 L35.15 31.1 M35.25 30.3 L37.8 30.35 M35.25 30.3 L34.65 30.25 M32.35 26.55 L33.1 26.8 M29.85 22.15 L34.15 23.3 M35.75 31.2 L38.3 31.6 M36.65 27.8 L33.1 26.8 M27.85 18.25 L30.7 18.05 M22.55 13.75 L28.1 14.75" fill="none" stroke="#000000" stroke-linecap="round" stroke-linejoin="round" stroke-opacity="0.4" stroke-width="0.2"/>
      <path d="M21.25 11.7 L22.6 13.0 23.3 13.05 Q25.2 13.15 25.95 13.7 26.95 14.3 24.5 14.25 L23.85 14.25 25.2 15.7 27.7 18.45 28.45 18.55 Q30.55 18.9 30.65 19.85 L29.2 20.25 31.55 23.25 34.35 27.55 36.25 30.9 36.6 31.7 38.5 35.8 40.05 40.35 40.2 41.95 40.65 40.85 40.65 40.55 Q40.85 38.25 40.5 35.8 L39.65 32.0 39.25 30.9 38.35 28.5 36.3 24.35 33.35 19.65 31.2 16.55 27.45 11.9 26.05 10.3 19.5 10.1 20.55 11.1 21.25 11.7" fill="#000000" fill-opacity="0.25882354" fill-rule="evenodd" stroke="none"/>
      <path d="M20.9 9.55 L20.3 9.5 21.4 10.55 22.05 11.2 22.6 11.25 21.75 10.35 20.9 9.55 M25.85 15.25 L28.2 18.1 28.9 18.2 26.55 15.35 25.85 15.25" fill="#efaa65" fill-rule="evenodd" stroke="none"/>
      <path d="M20.9 9.55 L21.75 10.35 22.6 11.25 28.15 11.45 26.8 9.75 20.9 9.55 M28.9 18.2 Q30.95 18.6 31.1 19.6 L33.75 19.4 31.7 16.2 26.55 15.35 28.9 18.2" fill="#eb9136" fill-rule="evenodd" stroke="none"/>
      <path d="M22.6 11.25 L22.05 11.2 23.3 12.55 24.0 12.55 22.6 11.25 M25.15 13.85 L24.5 13.85 25.85 15.25 26.55 15.35 25.15 13.85" fill="#f9e0ca" fill-rule="evenodd" stroke="none"/>
      <path d="M24.0 12.55 Q25.85 12.7 26.6 13.3 27.55 13.85 25.15 13.85 L26.55 15.35 31.7 16.2 28.15 11.45 22.6 11.25 24.0 12.55" fill="#f2ba84" fill-rule="evenodd" stroke="none"/>
      <path d="M30.15 19.85 L29.6 20.0 31.8 23.1 32.55 23.3 30.15 19.85 M34.5 27.5 L36.25 31.0 36.85 31.0 35.15 27.7 34.5 27.5" fill="#e9831f" fill-rule="evenodd" stroke="none"/>
      <path d="M31.1 19.6 L30.15 19.85 32.55 23.3 36.55 24.25 33.75 19.4 31.1 19.6 M39.25 31.0 L38.4 28.55 35.15 27.7 36.85 31.0 39.25 31.0" fill="#d47315" fill-rule="evenodd" stroke="none"/>
      <path d="M31.8 23.1 L34.5 27.5 35.15 27.7 32.55 23.3 31.8 23.1 M36.65 31.8 L38.35 36.0 38.9 36.05 Q38.15 33.9 37.2 31.9 L36.65 31.8" fill="#995411" fill-rule="evenodd" stroke="none"/>
      <path d="M40.3 36.05 L39.55 32.15 37.2 31.9 Q38.15 33.9 38.9 36.05 L40.3 36.05 M38.4 28.55 L36.55 24.25 32.55 23.3 35.15 27.7 38.4 28.55" fill="#7b430d" fill-rule="evenodd" stroke="none"/>
      <path d="M39.55 32.15 L39.25 31.0 36.85 31.0 37.2 31.9 39.55 32.15" fill="#aa5e11" fill-rule="evenodd" stroke="none"/>
      <path d="M36.25 31.0 L36.65 31.8 37.2 31.9 36.85 31.0 36.25 31.0" fill="#b96513" fill-rule="evenodd" stroke="none"/>
      <path d="M38.35 36.0 L39.8 40.75 39.85 42.3 40.3 41.2 40.35 40.95 38.9 36.05 38.35 36.0" fill="#a35810" fill-rule="evenodd" stroke="none"/>
      <path d="M40.35 40.95 Q40.6 38.6 40.3 36.05 L38.9 36.05 40.35 40.95" fill="#6c3a0b" fill-rule="evenodd" stroke="none"/>
      <path d="M22.05 11.2 L21.4 10.55 20.3 9.5 20.9 9.55 M22.6 11.25 L22.05 11.2 23.3 12.55 24.0 12.55 Q25.85 12.7 26.6 13.3 27.55 13.85 25.15 13.85 L24.5 13.85 25.85 15.25 28.2 18.1 28.9 18.2 Q30.95 18.6 31.1 19.6 L30.15 19.85 29.6 20.0 31.8 23.1 34.5 27.5 36.25 31.0 36.65 31.8 38.35 36.0 39.8 40.75 39.85 42.3 40.3 41.2 40.35 40.95 Q40.6 38.6 40.3 36.05 L39.55 32.15 39.25 31.0 38.4 28.55 36.55 24.25 33.75 19.4 31.7 16.2 28.15 11.45 26.8 9.75 20.9 9.55 M22.6 11.25 L28.15 11.45 M26.55 15.35 L25.85 15.25 M32.55 23.3 L36.55 24.25 M34.5 27.5 L35.15 27.7 M36.85 31.0 L36.25 31.0 M32.55 23.3 L31.8 23.1 M33.75 19.4 L31.1 19.6 M39.25 31.0 L36.85 31.0 M37.2 31.9 L36.65 31.8 M38.4 28.55 L35.15 27.7 M37.2 31.9 L39.55 32.15 M26.55 15.35 L31.7 16.2" fill="none" stroke="#000000" stroke-linecap="round" stroke-linejoin="round" stroke-opacity="0.4" stroke-width="0.2"/>
      <path d="M25.1 13.6 L26.25 14.85 26.9 14.85 Q28.7 14.9 29.35 15.4 30.25 15.95 27.95 15.95 L27.3 15.95 28.45 17.3 30.55 19.9 31.2 20.0 Q33.15 20.3 33.15 21.2 L31.75 21.6 33.65 24.45 35.85 28.45 37.3 31.65 37.55 32.4 38.9 36.3 39.9 40.65 39.85 42.15 40.4 41.1 40.45 40.85 40.8 36.25 40.35 32.65 40.1 31.55 39.5 29.3 Q38.95 27.4 38.0 25.35 37.05 23.15 35.7 20.9 L34.0 18.0 30.95 13.65 29.8 12.1 23.65 12.1 24.55 13.05 25.1 13.6" fill="#000000" fill-opacity="0.25882354" fill-rule="evenodd" stroke="none"/>
      <path d="M26.55 13.4 L25.8 12.55 25.1 11.85 24.45 11.85 25.45 12.8 25.95 13.35 26.55 13.4 M29.9 17.2 L29.15 17.1 31.2 19.8 31.9 19.85 29.9 17.2" fill="#efaa65" fill-rule="evenodd" stroke="none"/>
      <path d="M25.1 11.85 L25.8 12.55 26.55 13.4 31.7 13.5 30.65 11.9 25.1 11.85 M29.9 17.2 L31.9 19.85 Q33.7 20.1 33.75 21.0 L36.4 20.8 34.6 17.8 29.9 17.2" fill="#eb9136" fill-rule="evenodd" stroke="none"/>
      <path d="M26.55 13.4 L25.95 13.35 27.1 14.65 27.7 14.6 26.55 13.4 M29.15 17.1 L29.9 17.2 28.65 15.75 28.1 15.75 29.15 17.1" fill="#f9e0ca" fill-rule="evenodd" stroke="none"/>
      <path d="M31.7 13.5 L26.55 13.4 27.7 14.6 Q29.45 14.7 30.1 15.15 30.95 15.7 28.65 15.75 L29.9 17.2 34.6 17.8 31.7 13.5" fill="#f2ba84" fill-rule="evenodd" stroke="none"/>
      <path d="M36.9 28.6 L36.3 28.4 37.65 31.65 38.2 31.65 36.9 28.6 M34.2 24.35 L34.85 24.45 32.9 21.4 32.4 21.5 34.2 24.35" fill="#e9831f" fill-rule="evenodd" stroke="none"/>
      <path d="M36.4 20.8 L33.75 21.0 32.9 21.4 34.85 24.45 38.55 25.3 36.4 20.8 M36.9 28.6 L38.2 31.65 40.5 31.5 39.9 29.35 36.9 28.6" fill="#d47315" fill-rule="evenodd" stroke="none"/>
      <path d="M36.3 28.4 L36.9 28.6 34.85 24.45 34.2 24.35 36.3 28.4 M38.55 32.5 L37.95 32.45 39.2 36.4 39.7 36.35 38.55 32.5" fill="#995411" fill-rule="evenodd" stroke="none"/>
      <path d="M34.85 24.45 L36.9 28.6 39.9 29.35 38.55 25.3 34.85 24.45 M40.7 32.7 L38.55 32.5 39.7 36.35 41.1 36.4 40.7 32.7" fill="#7b430d" fill-rule="evenodd" stroke="none"/>
      <path d="M40.5 31.5 L38.2 31.65 38.55 32.5 40.7 32.7 40.5 31.5" fill="#aa5e11" fill-rule="evenodd" stroke="none"/>
      <path d="M38.2 31.65 L37.65 31.65 37.95 32.45 38.55 32.5 38.2 31.65" fill="#b96513" fill-rule="evenodd" stroke="none"/>
      <path d="M39.7 36.35 L39.2 36.4 40.2 40.75 40.05 42.2 40.65 41.25 40.65 40.95 39.7 36.35" fill="#a35810" fill-rule="evenodd" stroke="none"/>
      <path d="M41.1 36.4 L39.7 36.35 40.65 40.95 Q41.15 38.8 41.1 36.4" fill="#6c3a0b" fill-rule="evenodd" stroke="none"/>
      <path d="M26.55 13.4 L25.95 13.35 25.45 12.8 24.45 11.85 25.1 11.85 30.65 11.9 31.7 13.5 26.55 13.4 M27.7 14.6 L27.1 14.65 25.95 13.35 M28.65 15.75 Q30.95 15.7 30.1 15.15 29.45 14.7 27.7 14.6 M29.9 17.2 L29.15 17.1 28.1 15.75 28.65 15.75 M31.9 19.85 L31.2 19.8 29.15 17.1 M36.4 20.8 L34.6 17.8 31.7 13.5 M36.4 20.8 L33.75 21.0 Q33.7 20.1 31.9 19.85 M36.9 28.6 L36.3 28.4 34.2 24.35 34.85 24.45 M38.2 31.65 L37.65 31.65 36.3 28.4 M36.9 28.6 L39.9 29.35 40.5 31.5 38.2 31.65 M38.55 32.5 L37.95 32.45 37.65 31.65 M39.9 29.35 L38.55 25.3 36.4 20.8 M38.55 25.3 L34.85 24.45 M32.9 21.4 L33.75 21.0 M40.7 32.7 L40.5 31.5 M40.7 32.7 L38.55 32.5 M39.2 36.4 L37.95 32.45 M41.1 36.4 Q41.15 38.8 40.65 40.95 M41.1 36.4 L40.7 32.7 M39.2 36.4 L40.2 40.75 40.05 42.2 40.65 41.25 40.65 40.95 M29.9 17.2 L34.6 17.8 M32.9 21.4 L32.4 21.5 34.2 24.35" fill="none" stroke="#000000" stroke-linecap="round" stroke-linejoin="round" stroke-opacity="0.4" stroke-width="0.2"/>
      <path d="M13.05 7.35 L13.85 7.4 15.45 7.5 15.35 7.4 15.75 7.4 Q15.95 7.25 15.35 6.9 14.3 6.15 12.05 5.8 L11.3 5.75 9.25 4.25 7.3 3.1 7.15 2.9 6.4 2.55 4.5 1.8 2.75 1.2 12.75 2.45 Q15.6 3.95 16.65 4.95 L19.25 7.65 22.2 7.85 23.85 9.65 27.0 9.8 28.25 11.45 28.6 11.9 30.65 11.9 31.7 13.5 34.6 17.8 36.4 20.8 38.55 25.3 39.9 29.35 40.5 31.5 40.7 32.7 41.1 36.4 Q41.15 38.8 40.65 40.95 L40.65 41.25 40.25 42.05 40.15 42.25 40.1 42.15 40.05 42.2 40.1 42.1 39.95 42.2 39.85 42.45 39.55 40.85 39.2 39.9 39.05 39.4 38.15 37.6 37.5 36.55 37.05 35.85 36.35 34.7 33.05 29.6 32.35 28.65 29.1 24.35 24.65 18.9 21.1 15.1 21.95 14.95 21.2 14.15 20.05 13.05 19.7 13.0 18.8 12.75 15.15 9.25 13.05 7.35 Z" fill="none" stroke="#000000" stroke-linecap="round" stroke-linejoin="round" stroke-opacity="0.4117647" stroke-width="0.5"/>
    </g>
  </defs>
</svg>
