<?xml version="1.0" encoding="UTF-8" standalone="no"?>
<svg xmlns:xlink="http://www.w3.org/1999/xlink" height="440.0px" width="440.0px" xmlns="http://www.w3.org/2000/svg">
  <g transform="matrix(10.0, 0.0, 0.0, 10.0, 0.0, 0.0)">
    <use height="44.0" transform="matrix(0.9091, 0.0, 0.0, 0.9091, 2.0, 2.0)" width="44.0" xlink:href="#sprite0"/>
  </g>
  <defs>
    <g id="sprite0" transform="matrix(1.0, 0.0, 0.0, 1.0, 0.0, 0.0)">
      <use height="44.0" transform="matrix(1.0, 0.0, 0.0, 1.0, 0.0, 0.0)" width="44.0" xlink:href="#shape0"/>
    </g>
    <g id="shape0" transform="matrix(1.0, 0.0, 0.0, 1.0, 0.0, 0.0)">
      <path d="M44.0 44.0 L0.0 44.0 0.0 0.0 44.0 0.0 44.0 44.0" fill="#43adca" fill-opacity="0.0" fill-rule="evenodd" stroke="none"/>
      <path d="M36.3 12.9 Q38.45 13.75 38.95 15.6 39.45 17.4 38.0 19.15 36.55 20.95 33.95 21.65 L29.25 21.5 Q27.05 20.7 26.55 18.9 26.05 17.05 27.55 15.25 29.0 13.5 31.55 12.8 L36.3 12.9 M34.75 14.15 L31.4 14.0 Q29.55 14.5 28.55 15.8 27.5 17.05 27.85 18.35 28.2 19.65 29.75 20.2 31.25 20.75 33.1 20.25 34.9 19.8 35.95 18.55 36.95 17.3 36.6 16.0 36.25 14.7 34.75 14.15" fill="url(#gradient0)" fill-rule="evenodd" stroke="none"/>
      <path d="M18.15 9.0 L19.05 7.25 28.1 14.1 27.6 15.15 18.15 9.0" fill="url(#gradient1)" fill-rule="evenodd" stroke="none"/>
      <path d="M23.1 8.4 Q22.15 9.7 22.15 11.6 22.15 13.45 23.1 14.8 24.05 16.1 25.4 16.1 26.7 16.1 27.65 14.8 28.6 13.45 28.6 11.6 28.6 9.7 27.65 8.4 26.7 7.05 25.4 7.05 24.05 7.05 23.1 8.4 M22.35 6.55 Q23.7 4.7 25.6 4.7 27.45 4.7 28.8 6.55 30.15 8.45 30.15 11.1 30.15 13.75 28.8 15.65 27.45 17.5 25.6 17.5 23.7 17.5 22.35 15.65 21.0 13.75 21.0 11.1 21.0 8.45 22.35 6.55" fill="url(#gradient2)" fill-rule="evenodd" stroke="none"/>
      <path d="M17.3 19.2 L16.55 17.45 27.55 14.8 28.05 15.75 17.3 19.2" fill="url(#gradient3)" fill-rule="evenodd" stroke="none"/>
      <path d="M39.9 21.65 L37.4 25.0 27.6 15.7 29.0 13.7 39.9 21.65" fill="url(#gradient4)" fill-rule="evenodd" stroke="none"/>
      <path d="M29.05 5.15 L30.95 5.35 28.4 14.65 27.3 14.55 29.05 5.15" fill="url(#gradient5)" fill-rule="evenodd" stroke="none"/>
      <path d="M29.35 5.45 Q31.9 4.7 34.2 6.05 36.5 7.35 37.2 9.95 37.9 12.55 36.55 14.8 35.25 17.1 32.7 17.8 30.1 18.45 27.8 17.15 25.5 15.8 24.85 13.3 24.15 10.7 25.45 8.4 26.8 6.15 29.35 5.45 M29.35 7.5 Q27.55 8.0 26.6 9.65 25.65 11.3 26.15 13.05 26.65 14.85 28.3 15.8 29.9 16.75 31.7 16.25 33.5 15.8 34.45 14.15 35.4 12.5 34.9 10.7 34.4 8.9 32.8 7.95 31.15 7.0 29.35 7.5" fill="url(#gradient6)" fill-rule="evenodd" stroke="none"/>
      <path d="M33.15 11.7 L31.25 12.8 Q28.75 14.3 28.35 13.65 28.55 14.3 28.35 14.65 L27.3 16.95 24.25 23.45 22.0 24.45 19.05 24.7 18.95 24.6 Q18.2 25.6 17.8 26.6 L17.55 25.65 16.25 29.1 11.15 33.7 12.1 33.4 11.05 34.6 5.65 38.6 Q7.25 36.75 10.4 34.2 L8.6 35.0 12.05 31.8 7.05 35.25 Q7.75 33.9 10.75 31.85 15.05 28.8 17.4 24.05 16.5 24.4 16.9 21.95 L16.9 21.9 Q17.35 21.15 17.8 21.4 L18.3 22.05 18.1 22.15 Q18.95 22.3 19.4 24.0 L20.35 23.35 20.55 23.4 22.45 23.25 24.3 22.4 24.4 22.15 23.9 22.15 28.0 14.55 27.7 13.6 27.25 11.2 27.35 10.85 27.6 11.0 27.95 14.0 29.05 12.65 29.2 12.8 28.55 13.6 Q30.8 12.95 33.15 11.7 M26.95 11.95 L27.2 11.35 27.1 12.4 26.95 11.95 M15.75 29.2 L16.2 27.5 11.3 33.45 15.75 29.2" fill="#876843" fill-rule="evenodd" stroke="none"/>
      <path d="M5.65 38.6 L11.05 34.6 12.1 33.4 11.15 33.7 16.25 29.1 17.55 25.65 17.8 26.6 Q18.2 25.6 18.95 24.6 L19.05 24.7 22.0 24.45 24.25 23.45 27.3 16.95 28.35 14.65 Q28.55 14.3 28.35 13.65 28.75 14.3 31.25 12.8 L33.15 11.7 34.8 10.75 34.5 11.35 Q32.65 12.1 32.05 13.05 32.05 13.7 28.95 14.9 L27.9 16.95 Q26.55 19.75 25.45 23.1 L25.45 23.2 25.25 23.75 Q24.55 24.65 21.2 25.35 18.85 24.85 18.0 27.25 L17.95 27.4 17.75 27.55 17.3 28.2 Q14.7 32.2 11.2 35.55 L11.05 35.75 Q9.1 37.95 8.5 39.0 7.6 39.4 5.65 38.6 M29.05 12.65 L27.95 14.0 27.6 11.0 28.55 11.55 29.05 12.65 M20.35 23.35 L19.4 24.0 Q18.95 22.3 18.1 22.15 L18.3 22.05 18.4 22.2 18.35 22.05 18.55 21.95 19.0 21.95 Q19.15 22.6 20.25 22.85 L20.45 22.85 20.35 23.2 20.3 23.25 20.35 23.3 20.35 23.35" fill="#3b2c1c" fill-rule="evenodd" stroke="none"/>
      <path d="M33.15 11.7 Q30.8 12.95 28.55 13.6 L29.2 12.8 Q31.4 12.35 34.8 9.9 35.25 9.7 34.8 10.75 L33.15 11.7 M27.6 11.0 L27.35 10.85 27.25 11.2 27.2 11.05 27.2 11.35 26.95 11.95 26.65 10.65 27.05 10.15 27.3 10.1 Q27.7 10.1 28.2 10.6 L28.55 11.55 27.6 11.0" fill="#baa776" fill-rule="evenodd" stroke="none"/>
      <path d="M27.25 11.2 L27.7 13.6 27.85 14.2 24.45 19.55 25.9 16.95 26.65 14.95 Q26.95 13.55 26.35 11.25 L26.65 10.65 26.95 11.95 27.1 12.4 27.2 11.35 27.2 11.05 27.25 11.2 M17.65 20.4 Q18.2 20.3 19.0 21.35 L19.0 21.95 18.55 21.95 18.35 22.05 18.35 21.7 Q18.3 21.25 17.65 20.4 M15.75 29.2 L11.3 33.45 16.2 27.5 15.75 29.2" fill="#695034" fill-rule="evenodd" stroke="none"/>
      <path d="M27.7 13.6 L28.0 14.55 23.9 22.15 24.4 22.15 24.3 22.4 22.45 23.25 20.55 23.4 20.35 23.35 20.35 23.3 20.3 23.25 20.35 23.2 20.45 22.85 Q22.15 22.7 23.6 20.85 L23.75 20.7 24.45 19.55 27.85 14.2 27.7 13.6 M18.3 22.05 L17.8 21.4 Q17.35 21.15 16.9 21.9 L17.55 20.45 17.65 20.4 Q18.3 21.25 18.35 21.7 L18.35 22.05 18.4 22.2 18.3 22.05 M16.9 21.95 Q16.5 24.4 17.4 24.05 15.05 28.8 10.75 31.85 7.75 33.9 7.05 35.25 L6.8 35.8 8.6 35.0 10.4 34.2 Q7.25 36.75 5.65 38.6 L5.5 38.55 5.5 38.5 Q5.15 35.7 6.0 33.8 L6.1 33.75 Q7.25 32.8 9.75 31.7 11.9 30.8 16.25 24.6 L16.3 24.45 Q16.5 23.15 16.85 22.2 L16.9 21.95" fill="#d6c088" fill-rule="evenodd" stroke="none"/>
      <path d="M7.05 35.25 L12.05 31.8 8.6 35.0 6.8 35.8 7.05 35.25" fill="#291e13" fill-rule="evenodd" stroke="none"/>
      <path d="M29.2 12.8 L29.05 12.65 M5.65 38.6 Q7.6 39.4 8.5 39.0 9.1 37.95 11.05 35.75 L11.2 35.55 Q14.7 32.2 17.3 28.2 L17.75 27.55 17.95 27.4 18.0 27.25 Q18.85 24.85 21.2 25.35 24.55 24.65 25.25 23.75 L25.45 23.2 25.45 23.1 Q26.55 19.75 27.9 16.95 L28.95 14.9 Q32.05 13.7 32.05 13.05 32.65 12.1 34.5 11.35 L34.8 10.75 Q35.25 9.7 34.8 9.9 31.4 12.35 29.2 12.8 M28.55 11.55 L28.2 10.6 Q27.7 10.1 27.3 10.1 L27.05 10.15 26.65 10.65 M28.2 10.6 L28.7 11.1 M28.55 11.55 L29.05 12.65 M24.45 19.55 L23.75 20.7 23.6 20.85 Q22.15 22.7 20.45 22.85 M24.45 19.55 L25.9 16.95 26.65 14.95 Q26.95 13.55 26.35 11.25 L26.65 10.65 M17.65 20.4 L17.55 20.45 16.9 21.9 M5.65 38.6 L5.5 38.55 5.5 38.5 Q5.15 35.7 6.0 33.8 L6.1 33.75 Q7.25 32.8 9.75 31.7 11.9 30.8 16.25 24.6 L16.3 24.45 Q16.5 23.15 16.85 22.2 M19.0 21.95 L19.0 21.35 Q18.2 20.3 17.65 20.4 M19.0 21.95 Q19.15 22.6 20.25 22.85 L20.45 22.85" fill="none" stroke="#000000" stroke-linecap="round" stroke-linejoin="round" stroke-opacity="0.3019608" stroke-width="0.5"/>
    </g>
    <radialGradient cx="0" cy="0" fx="28.8" fy="0" gradientTransform="matrix(0.01, -0.0027, 0.002, 0.0073, 29.3, 18.15)" gradientUnits="userSpaceOnUse" id="gradient0" r="819.2" spreadMethod="pad">
      <stop offset="0.0" stop-color="#fcc61c"/>
      <stop offset="1.0" stop-color="#f5cc49" stop-opacity="0.0"/>
    </radialGradient>
    <radialGradient cx="0" cy="0" fx="-1446.4" fy="0" gradientTransform="matrix(0.0078, -0.0064, 0.0064, 0.0078, 26.3, 13.4)" gradientUnits="userSpaceOnUse" id="gradient1" r="819.2" spreadMethod="pad">
      <stop offset="0.0" stop-color="#fcc61c"/>
      <stop offset="1.0" stop-color="#f5cc49" stop-opacity="0.0"/>
    </radialGradient>
    <radialGradient cx="0" cy="0" fx="28.8" fy="0" gradientTransform="matrix(0.0, -0.0104, 0.0075, 0.0, 25.55, 14.7)" gradientUnits="userSpaceOnUse" id="gradient2" r="819.2" spreadMethod="pad">
      <stop offset="0.0" stop-color="#fcc61c"/>
      <stop offset="1.0" stop-color="#f5cc49" stop-opacity="0.0"/>
    </radialGradient>
    <radialGradient cx="0" cy="0" fx="-1446.4" fy="0" gradientTransform="matrix(0.0, -0.0101, 0.0101, 0.0, 25.9, 15.7)" gradientUnits="userSpaceOnUse" id="gradient3" r="819.2" spreadMethod="pad">
      <stop offset="0.0" stop-color="#fcc61c"/>
      <stop offset="1.0" stop-color="#f5cc49" stop-opacity="0.0"/>
    </radialGradient>
    <radialGradient cx="0" cy="0" fx="-1446.4" fy="0" gradientTransform="matrix(-0.0166, 0.0144, -0.0049, -0.012, 29.9, 16.35)" gradientUnits="userSpaceOnUse" id="gradient4" r="819.2" spreadMethod="pad">
      <stop offset="0.0" stop-color="#fcc61c"/>
      <stop offset="1.0" stop-color="#f5cc49" stop-opacity="0.0"/>
    </radialGradient>
    <radialGradient cx="0" cy="0" fx="-1446.4" fy="0" gradientTransform="matrix(0.0089, 0.0044, -0.0045, 0.0074, 28.35, 13.05)" gradientUnits="userSpaceOnUse" id="gradient5" r="819.2" spreadMethod="pad">
      <stop offset="0.0" stop-color="#fcc61c"/>
      <stop offset="1.0" stop-color="#f5cc49" stop-opacity="0.0"/>
    </radialGradient>
    <radialGradient cx="0" cy="0" fx="28.8" fy="0" gradientTransform="matrix(0.0052, -0.009, 0.0092, 0.0053, 29.15, 14.7)" gradientUnits="userSpaceOnUse" id="gradient6" r="819.2" spreadMethod="pad">
      <stop offset="0.0" stop-color="#fcc61c"/>
      <stop offset="1.0" stop-color="#f5cc49" stop-opacity="0.0"/>
    </radialGradient>
  </defs>
</svg>
