<?xml version="1.0" encoding="UTF-8" standalone="no"?>
<svg xmlns:xlink="http://www.w3.org/1999/xlink" height="440.0px" width="440.0px" xmlns="http://www.w3.org/2000/svg">
  <g transform="matrix(10.0, 0.0, 0.0, 10.0, 0.0, 0.0)">
    <use height="44.0" transform="matrix(1.0, 0.0, 0.0, 1.0, 0.0, 0.0)" width="44.0" xlink:href="#shape0"/>
  </g>
  <defs>
    <g id="shape0" transform="matrix(1.0, 0.0, 0.0, 1.0, 0.0, 0.0)">
      <path d="M44.0 44.0 L0.0 44.0 0.0 0.0 44.0 0.0 44.0 44.0" fill="#43adca" fill-opacity="0.0" fill-rule="evenodd" stroke="none"/>
      <path d="M25.8 14.7 L25.95 14.5 26.0 14.8 25.8 14.7" fill="#feefc5" fill-rule="evenodd" stroke="none"/>
      <path d="M25.8 14.7 L26.0 14.8 26.25 15.45 25.65 15.3 25.35 15.45 25.7 14.85 25.75 14.7 25.8 14.7 25.7 14.85 25.8 14.7" fill="#fcda8d" fill-rule="evenodd" stroke="none"/>
      <path d="M26.0 14.8 L25.95 14.5 25.8 14.7 25.7 14.85 M26.0 14.8 L26.25 15.45 M25.35 15.45 L25.7 14.85" fill="none" stroke="#694634" stroke-linecap="round" stroke-linejoin="round" stroke-opacity="0.5019608" stroke-width="0.05"/>
      <path d="M27.9 15.05 L25.1 18.3 23.85 17.35 27.05 12.8 27.9 15.05" fill="#b39c5b" fill-rule="evenodd" stroke="none"/>
      <path d="M27.9 15.05 L25.1 18.3 23.85 17.35 27.05 12.8 27.9 15.05 Z" fill="none" stroke="#302925" stroke-linecap="round" stroke-linejoin="round" stroke-width="0.05"/>
      <path d="M6.95 33.95 L6.95 33.9 7.15 34.15 7.0 34.35 7.0 34.9 7.05 35.3 6.9 35.3 7.05 35.3 Q7.25 35.95 8.3 35.95 L8.4 35.95 8.5 36.3 8.55 36.4 8.15 36.85 7.0 36.5 6.9 35.3 6.75 34.3 6.95 33.95" fill="#f7af68" fill-rule="evenodd" stroke="none"/>
      <path d="M20.9 23.05 L19.5 24.75 18.0 26.9 16.65 29.05 13.6 32.8 Q14.45 31.4 16.5 29.15 16.85 28.1 17.95 26.65 L11.55 33.95 11.4 34.2 11.3 34.25 11.25 34.25 10.9 33.9 10.4 34.9 10.25 35.05 9.5 35.65 9.45 35.7 9.1 35.95 9.4 35.65 8.55 36.4 8.5 36.3 8.4 35.95 8.3 35.95 Q7.25 35.95 7.05 35.3 L6.9 35.3 7.05 35.3 9.35 34.8 11.7 32.55 11.8 32.4 12.9 30.95 20.9 21.05 20.85 22.95 20.9 23.05 M10.7 36.4 L10.75 37.5 13.15 37.65 14.1 36.4 Q13.85 37.9 13.3 38.55 L12.25 38.4 11.0 38.35 10.5 38.05 Q10.0 37.65 10.0 37.3 L10.05 37.05 10.0 37.0 10.0 36.95 10.1 36.85 10.7 36.4 M21.65 23.5 L21.75 23.3 21.8 23.3 21.65 23.5 M6.95 33.95 L6.8 33.7 6.95 33.9 6.95 33.95 M10.4 34.9 L9.4 35.65 10.4 34.9 M12.1 32.9 L12.2 32.9 12.15 32.9 11.95 32.9 11.95 32.95 12.1 32.9 M12.5 35.3 L12.55 35.3 12.5 35.3 M12.35 35.2 L12.4 35.25 12.4 35.3 12.35 35.2" fill="#fcda8d" fill-rule="evenodd" stroke="none"/>
      <path d="M20.9 23.05 L21.8 21.8 23.05 20.1 Q21.85 22.0 24.95 18.35 25.05 18.7 21.75 23.3 L21.65 23.5 20.65 25.65 14.3 33.75 13.6 34.6 14.3 35.25 13.55 34.6 Q13.6 35.25 14.15 36.05 L14.1 36.4 13.15 37.65 10.75 37.5 10.7 36.4 11.15 36.1 9.65 36.45 Q9.4 36.55 9.65 36.3 L9.8 36.1 10.0 35.9 11.15 34.95 Q11.95 34.3 12.55 34.55 L12.45 33.9 12.6 34.0 13.6 32.8 16.65 29.05 18.0 26.9 19.5 24.75 20.9 23.05 M9.45 35.7 L8.85 36.9 Q8.7 38.5 10.15 39.7 L10.65 40.3 13.6 40.0 14.9 35.55 14.9 35.35 15.5 36.4 14.15 40.75 10.5 41.15 8.45 39.2 8.15 37.75 8.1 37.75 6.4 37.15 6.65 34.45 6.75 34.3 6.9 35.3 7.0 36.5 8.15 36.85 8.2 36.85 8.1 37.75 8.2 36.85 8.15 36.85 8.55 36.4 9.4 35.65 9.1 35.95 9.45 35.7 M14.65 36.3 L14.6 36.5 14.55 36.45 14.65 36.3 M6.95 33.9 L7.75 32.65 11.8 32.4 11.7 32.55 9.35 34.8 7.05 35.3 7.0 34.9 7.0 34.35 7.15 34.15 6.95 33.9 M12.15 32.9 L12.2 32.9 12.1 32.9 12.15 32.9 M8.7 37.3 L8.65 37.25 8.65 37.3 8.7 37.3 M12.4 35.3 L12.4 35.25 12.35 35.2 12.15 35.3 12.4 35.3 M12.5 35.3 L12.55 35.3 12.5 35.3" fill="#feefc5" fill-rule="evenodd" stroke="none"/>
      <path d="M21.75 23.3 Q25.05 18.7 24.95 18.35 21.85 22.0 23.05 20.1 L21.8 21.8 20.9 23.05 20.85 22.95 20.9 21.05 21.1 20.8 20.9 20.95 23.9 17.55 24.2 17.45 24.8 17.55 25.2 18.75 21.8 23.3 21.75 23.3 M13.6 32.8 L12.6 34.0 12.45 33.9 12.55 34.55 Q11.95 34.3 11.15 34.95 L10.0 35.9 9.8 36.1 9.65 36.3 Q9.4 36.55 9.65 36.45 L11.15 36.1 10.7 36.4 10.1 36.85 10.0 36.95 10.0 37.0 10.05 37.05 10.0 37.3 Q10.0 37.65 10.5 38.05 L11.0 38.35 12.25 38.4 13.3 38.55 Q13.85 37.9 14.1 36.4 L14.15 36.05 Q13.6 35.25 13.55 34.6 L14.3 35.25 13.6 34.6 14.3 33.75 14.6 34.8 14.9 35.35 14.9 35.55 13.6 40.0 10.65 40.3 10.15 39.7 Q8.7 38.5 8.85 36.9 L9.45 35.7 9.5 35.65 10.25 35.05 10.4 34.9 10.9 33.9 11.25 34.25 11.3 34.25 11.4 34.2 11.55 33.95 17.95 26.65 Q16.85 28.1 16.5 29.15 14.45 31.4 13.6 32.8 M14.65 36.3 L14.55 36.45 14.6 36.5 14.65 36.3 M12.4 35.3 L12.15 35.3 12.35 35.2 12.4 35.3" fill="#cf9056" fill-rule="evenodd" stroke="none"/>
      <path d="M18.0 26.9 L16.65 29.05 13.6 32.8 12.6 34.0" fill="none" stroke="#000000" stroke-linecap="round" stroke-linejoin="round" stroke-opacity="0.2" stroke-width="0.5"/>
      <path d="M25.2 18.75 L24.8 17.55 M23.9 17.55 L20.9 20.95 21.1 20.8 20.9 21.05 M21.65 23.5 L21.8 23.3 M6.95 33.9 L7.75 32.65 11.8 32.4 12.9 30.95 20.9 21.05 M6.95 33.95 L6.75 34.3" fill="none" stroke="#694634" stroke-linecap="round" stroke-linejoin="round" stroke-opacity="0.5019608" stroke-width="1.0"/>
      <path d="M14.3 33.75 L20.65 25.65 21.65 23.5 M21.8 23.3 L25.2 18.75 M14.9 35.35 L14.6 34.8 14.3 33.75 M8.1 37.75 L8.15 37.75 8.45 39.2 10.5 41.15 14.15 40.75 15.5 36.4 14.9 35.35 M6.95 33.95 L6.95 33.9 M8.55 36.4 L9.4 35.65 10.4 34.9 M6.75 34.3 L6.65 34.45 6.4 37.15 8.1 37.75 8.2 36.85 8.15 36.85 8.55 36.4" fill="none" stroke="#694634" stroke-linecap="round" stroke-linejoin="round" stroke-opacity="0.7607843" stroke-width="1.0"/>
      <path d="M22.5 18.55 Q22.2 17.3 23.6 17.0 L23.9 17.55 23.9 17.6 22.85 19.2 22.5 18.55 M25.9 18.8 Q25.9 19.8 24.8 20.3 L24.35 20.05 25.4 18.5 25.9 18.8" fill="#9c4e00" fill-rule="evenodd" stroke="none"/>
      <path d="M21.7 19.95 L21.1 18.95 22.5 18.55 22.85 19.2 21.7 19.95 M24.8 20.3 L24.95 21.5 23.8 21.45 24.35 20.05 24.8 20.3" fill="#e37100" fill-rule="evenodd" stroke="none"/>
      <path d="M23.8 21.45 Q22.7 21.0 21.7 19.95 L22.85 19.2 24.35 20.05 23.8 21.45" fill="#854200" fill-rule="evenodd" stroke="none"/>
      <path d="M23.9 17.6 L25.4 18.5 24.35 20.05 22.85 19.2 23.9 17.6" fill="#753a00" fill-rule="evenodd" stroke="none"/>
      <path d="M24.9 16.15 L26.3 17.2 25.4 18.5 23.9 17.6 23.9 17.55 24.9 16.15" fill="#693400" fill-rule="evenodd" stroke="none"/>
      <path d="M26.3 17.2 L27.1 17.45 25.9 18.8 25.4 18.5 26.3 17.2" fill="#914800" fill-rule="evenodd" stroke="none"/>
      <path d="M23.6 17.0 L24.45 15.45 24.9 16.15 23.9 17.55 23.6 17.0" fill="#944a00" fill-rule="evenodd" stroke="none"/>
      <path d="M21.7 19.95 L21.1 18.95 22.5 18.55 Q22.2 17.3 23.6 17.0 L24.45 15.45 24.9 16.15 26.3 17.2 27.1 17.45 25.9 18.8 Q25.9 19.8 24.8 20.3 L24.95 21.5 23.8 21.45 Q22.7 21.0 21.7 19.95 M22.85 19.2 L22.5 18.55 M25.4 18.5 L23.9 17.6 23.9 17.55 23.6 17.0 M22.85 19.2 L24.35 20.05 24.8 20.3 M25.9 18.8 L25.4 18.5" fill="none" stroke="#000000" stroke-linecap="round" stroke-linejoin="round" stroke-opacity="0.4" stroke-width="1.0"/>
      <path d="M29.75 7.4 Q29.4 6.55 28.7 6.0 28.15 5.6 27.45 5.55 L26.75 5.5 26.75 5.6 Q25.7 5.8 25.2 6.7 24.75 7.45 24.75 8.25 L24.8 8.85 24.9 9.0 Q24.5 8.8 24.35 6.55 22.1 8.85 22.05 9.8 L21.95 11.2 Q22.75 11.9 24.8 11.95 24.35 12.7 23.3 13.3 24.1 13.8 24.35 14.15 23.2 14.0 23.15 14.15 L22.8 14.05 22.75 14.05 22.75 14.1 22.7 14.05 22.5 14.0 22.65 13.8 22.1 13.25 20.95 11.95 Q20.4 11.05 21.65 8.85 22.95 6.6 23.8 5.45 24.7 4.3 26.15 3.5 29.0 1.95 32.3 2.95 33.8 3.4 34.95 4.2 L34.1 5.2 34.95 4.2 Q36.3 5.15 37.2 6.7 38.0 8.0 38.25 9.25 36.65 6.1 34.1 5.2 31.5 2.4 27.35 4.05 29.25 3.75 31.5 4.85 L26.75 4.5 Q25.95 4.95 27.9 4.8 29.7 5.9 29.75 7.4" fill="#d4d0c8" fill-rule="evenodd" stroke="none"/>
      <path d="M22.5 14.0 L22.7 14.05 22.75 14.1 22.75 14.05 22.8 14.05 22.7 14.35 Q22.4 15.15 21.5 16.05 L21.6 16.1 20.55 17.3 21.9 16.75 21.65 17.65 21.8 17.55 21.85 18.45 23.55 16.55 24.1 15.95 24.35 15.8 Q24.8 15.6 25.5 16.55 L26.0 15.85 26.1 15.95 26.05 15.95 26.2 16.05 26.1 16.25 Q25.95 16.95 26.6 16.85 L26.45 17.4 26.3 18.1 25.95 19.8 Q25.1 19.8 27.15 20.35 L28.15 17.9 28.3 17.5 28.85 17.5 29.15 17.2 29.25 17.15 29.25 17.25 28.9 17.5 28.9 17.55 28.95 17.55 29.2 17.7 29.25 17.4 29.6 17.15 30.95 16.55 31.25 16.55 31.35 16.55 31.35 17.65 32.8 17.5 Q32.8 16.45 33.1 16.35 L33.8 16.2 33.95 17.05 34.7 16.85 34.75 16.0 36.25 15.05 Q37.25 14.4 37.2 11.0 37.35 14.2 37.9 13.5 36.95 16.0 35.75 17.05 L33.7 18.7 31.4 18.95 Q29.85 18.6 29.65 18.1 L27.55 21.35 Q26.85 21.35 24.75 20.2 L25.15 18.7 Q25.65 16.95 25.35 17.45 L24.2 16.85 22.8 18.15 22.3 18.6 Q21.85 19.0 21.5 18.5 L20.6 17.65 Q20.05 17.25 20.85 16.1 21.6 14.9 22.05 14.55 L22.5 14.0" fill="#aba9a7" fill-rule="evenodd" stroke="none"/>
      <path d="M29.0 11.85 L29.5 14.3 Q29.5 13.95 30.1 15.05 29.7 11.25 30.8 9.05 33.9 8.2 36.05 10.85 37.15 7.1 34.1 5.2 36.65 6.1 38.25 9.25 38.55 10.9 38.2 12.65 L37.9 13.5 Q37.35 14.2 37.2 11.0 37.25 14.4 36.25 15.05 L34.75 16.0 34.7 16.85 33.95 17.05 33.8 16.2 33.1 16.35 Q32.8 16.45 32.8 17.5 L31.35 17.65 31.35 16.55 31.25 16.55 30.95 16.55 29.6 17.15 29.6 17.05 30.75 16.5 29.45 15.7 29.35 14.8 29.0 11.85 M30.95 10.95 L30.75 11.4 Q30.5 12.0 30.55 12.6 L30.55 13.05 30.6 13.05 Q29.85 14.55 30.9 15.35 32.0 16.15 33.35 16.1 34.75 16.05 34.75 15.55 34.75 15.1 35.3 14.25 35.85 13.3 35.6 12.1 L35.25 11.05 34.5 10.25 Q33.65 9.6 32.55 9.8 31.5 10.05 30.95 10.95" fill="#e6e4e1" fill-rule="evenodd" stroke="none"/>
      <path d="M22.8 14.05 L23.15 14.15 23.35 14.2 23.15 14.2 21.6 16.1 21.5 16.05 Q22.4 15.15 22.7 14.35 L22.8 14.05 M29.45 15.7 L29.25 15.55 27.85 13.95 25.7 13.8 26.65 13.3 28.2 13.35 29.35 14.8 29.45 15.7 M26.45 17.4 L26.6 16.85 Q25.95 16.95 26.1 16.25 L26.2 16.05 28.85 17.5 28.3 17.5 28.15 17.9 26.45 17.4 M26.0 15.85 L25.5 16.55 Q24.8 15.6 24.35 15.8 L25.2 15.2 26.0 15.85 M24.1 15.95 L23.55 16.55 21.85 18.45 21.8 17.55 24.1 15.95 M28.95 17.55 L28.9 17.55 28.9 17.5 28.95 17.55 M29.25 17.25 L29.25 17.15 29.6 17.05 29.6 17.15 29.25 17.4 29.25 17.25" fill="#dbd9d6" fill-rule="evenodd" stroke="none"/>
      <path d="M29.75 7.4 Q29.7 5.9 27.9 4.8 25.95 4.95 26.75 4.5 L31.5 4.85 Q29.25 3.75 27.35 4.05 31.5 2.4 34.1 5.2 37.15 7.1 36.05 10.85 33.9 8.2 30.8 9.05 29.7 11.25 30.1 15.05 29.5 13.95 29.5 14.3 L29.0 11.85 28.95 11.95 26.65 13.3 25.7 13.8 27.85 13.95 29.25 15.55 29.45 15.7 30.75 16.5 29.6 17.05 29.25 17.15 29.15 17.2 28.85 17.5 26.2 16.05 26.05 15.95 26.1 15.95 26.0 15.85 25.2 15.2 24.35 15.8 24.1 15.95 21.8 17.55 21.65 17.65 21.9 16.75 20.55 17.3 21.6 16.1 23.15 14.2 23.35 14.2 23.15 14.15 Q23.2 14.0 24.35 14.15 24.1 13.8 23.3 13.3 24.35 12.7 24.8 11.95 22.75 11.9 21.95 11.2 L22.05 9.8 Q22.1 8.85 24.35 6.55 24.5 8.8 24.9 9.0 25.1 10.05 25.9 10.65 26.85 11.35 27.9 11.1 28.7 10.95 29.2 10.4 L29.55 9.95 29.55 10.0 29.7 9.55 Q30.0 8.8 29.85 7.85 L29.75 7.4 M26.45 17.4 L28.15 17.9 27.15 20.35 Q25.1 19.8 25.95 19.8 L26.3 18.1 26.45 17.4 M28.9 17.5 L29.25 17.25 29.25 17.4 29.2 17.7 28.95 17.55 28.9 17.5" fill="#fcfaf7" fill-rule="evenodd" stroke="none"/>
      <path d="M26.65 13.3 L28.95 11.95 29.0 11.85 29.35 14.8 28.2 13.35 26.65 13.3" fill="#6e6d6b" fill-rule="evenodd" stroke="none"/>
      <path d="M34.1 5.2 L34.95 4.2 M38.25 9.25 Q38.0 8.0 37.2 6.7 36.3 5.15 34.95 4.2 M37.9 13.5 L38.2 12.65 Q38.55 10.9 38.25 9.25 M37.9 13.5 Q36.95 16.0 35.75 17.05 L33.7 18.7 31.4 18.95 Q29.85 18.6 29.65 18.1" fill="none" stroke="#000000" stroke-linecap="round" stroke-linejoin="round" stroke-opacity="0.2" stroke-width="0.5"/>
      <path d="M27.55 21.35 Q26.85 21.35 24.75 20.2 L25.15 18.7 Q25.65 16.95 25.35 17.45 L24.2 16.85 22.8 18.15 22.3 18.6 Q21.85 19.0 21.5 18.5 L20.6 17.65 Q20.05 17.25 20.85 16.1 21.6 14.9 22.05 14.55 L22.5 14.0" fill="none" stroke="#000000" stroke-linecap="round" stroke-linejoin="round" stroke-opacity="0.4509804" stroke-width="0.5"/>
      <path d="M34.95 4.2 Q33.8 3.4 32.3 2.95 29.0 1.95 26.15 3.5 24.7 4.3 23.8 5.45 22.95 6.6 21.65 8.85 20.4 11.05 20.95 11.95 L22.1 13.25 22.65 13.8 22.5 14.0 M29.35 14.8 L28.2 13.35 26.65 13.3 M29.65 18.1 L27.55 21.35" fill="none" stroke="#000000" stroke-linecap="round" stroke-linejoin="round" stroke-opacity="0.4" stroke-width="0.5"/>
      <path d="M25.4 8.9 L25.7 8.05 Q26.1 7.3 27.0 7.1 L27.55 7.05 Q28.15 7.1 28.6 7.45 L29.45 8.6 29.5 8.95 Q29.65 9.75 29.4 10.4 L29.25 10.7 29.0 11.05 29.25 10.05 Q29.25 9.2 28.65 8.6 28.1 8.05 27.25 8.05 26.4 8.05 25.75 8.6 L25.4 8.9 M30.25 11.95 L30.45 11.55 Q30.9 10.8 31.75 10.55 32.65 10.45 33.4 10.95 L33.8 11.4 33.05 11.9 33.8 11.4 34.0 11.6 34.3 12.5 34.35 12.65 33.65 12.8 33.15 11.95 33.05 11.9 33.0 11.9 Q32.5 11.4 31.7 11.4 30.9 11.4 30.25 11.95 M33.75 14.65 L33.75 13.45 33.65 12.8 34.35 12.65 Q34.45 13.55 34.05 14.25 L33.75 14.65" fill="#707070" fill-rule="evenodd" stroke="none"/>
      <path d="M25.4 8.9 L25.75 8.6 Q26.4 8.05 27.25 8.05 28.1 8.05 28.65 8.6 29.25 9.2 29.25 10.05 L29.0 11.05 28.9 11.25 28.45 11.15 28.5 9.7 27.25 9.0 25.75 9.45 25.4 8.95 25.35 8.9 25.4 8.9 M30.25 11.95 Q30.9 11.4 31.7 11.4 32.5 11.4 33.0 11.9 L33.05 11.9 33.15 11.95 33.65 12.8 33.75 13.45 33.75 14.65 33.75 14.8 33.65 14.75 32.85 14.55 32.9 13.2 31.65 12.3 30.5 12.7 30.2 12.2 30.25 11.95" fill="#000000" fill-rule="evenodd" stroke="none"/>
      <path d="M28.9 11.25 L28.5 11.45 27.95 11.4 26.65 10.8 25.65 10.1 25.4 9.8 25.35 9.3 25.4 8.95 25.75 9.45 Q26.9 10.7 28.45 11.15 L28.9 11.25 M28.45 11.15 L28.5 11.45 28.45 11.15 M33.65 14.75 L32.8 15.2 32.45 15.15 31.5 14.45 30.5 13.45 30.15 12.9 30.2 12.2 30.5 12.7 Q31.25 13.95 32.85 14.55 L33.65 14.75" fill="#919191" fill-rule="evenodd" stroke="none"/>
      <path d="M25.75 9.45 L27.25 9.0 28.5 9.7 28.45 11.15 Q26.9 10.7 25.75 9.45 M32.85 14.55 Q31.25 13.95 30.5 12.7 L31.65 12.3 32.9 13.2 32.85 14.55" fill="#ff0000" fill-rule="evenodd" stroke="none"/>
      <path d="M33.05 11.9 L33.8 11.4 34.55 10.45 M34.35 12.65 L35.2 11.55 M34.35 12.65 L33.65 12.8" fill="none" stroke="#000000" stroke-linecap="round" stroke-linejoin="round" stroke-opacity="0.2" stroke-width="0.05"/>
      <path d="M28.45 11.15 L28.5 9.7 27.25 9.0 25.75 9.45 M28.5 11.45 L28.45 11.15 M32.85 14.55 L32.9 13.2 31.65 12.3 30.5 12.7" fill="none" stroke="#694634" stroke-linecap="round" stroke-linejoin="round" stroke-opacity="0.5019608" stroke-width="0.05"/>
    </g>
  </defs>
</svg>
