<?xml version="1.0" encoding="UTF-8" standalone="no"?>
<svg xmlns:xlink="http://www.w3.org/1999/xlink" height="440.0px" width="440.0px" xmlns="http://www.w3.org/2000/svg">
  <g transform="matrix(10.0, 0.0, 0.0, 10.0, 0.0, 0.0)">
    <use height="44.0" transform="matrix(0.9091, 0.0, 0.0, 0.9091, 2.0, 2.0)" width="44.0" xlink:href="#sprite0"/>
  </g>
  <defs>
    <g id="sprite0" transform="matrix(1.0, 0.0, 0.0, 1.0, 0.0, 0.0)">
      <use height="44.0" transform="matrix(1.0, 0.0, 0.0, 1.0, 0.0, 0.0)" width="44.0" xlink:href="#shape0"/>
    </g>
    <g id="shape0" transform="matrix(1.0, 0.0, 0.0, 1.0, 0.0, 0.0)">
      <path d="M44.0 44.0 L0.0 44.0 0.0 0.0 44.0 0.0 44.0 44.0" fill="#43adca" fill-opacity="0.0" fill-rule="evenodd" stroke="none"/>
      <path d="M29.25 12.4 Q29.1 11.3 29.95 10.15 L30.5 9.5 Q31.2 8.8 32.1 8.45 L32.1 8.55 32.1 8.85 Q30.9 9.5 30.8 10.25 L30.7 10.3 32.3 11.75 30.6 10.65 Q30.4 10.75 30.25 11.55 L30.2 12.45 Q30.45 13.45 31.25 14.45 32.35 13.25 33.1 12.95 L31.85 14.75 32.8 15.55 33.8 15.9 35.75 15.6 Q37.8 14.55 37.75 12.4 L37.35 10.55 37.7 11.25 37.9 12.8 Q37.7 14.95 35.9 16.0 35.3 16.35 34.7 16.5 L32.2 16.2 Q30.2 15.3 29.4 13.2 L29.3 12.75 29.3 12.65 29.25 12.4 M6.2 37.9 Q6.35 37.7 6.65 37.7 L7.05 37.9 7.25 38.25 7.05 38.75 6.65 38.9 6.2 38.75 6.0 38.3 6.2 37.9" fill="#feeabc" fill-rule="evenodd" stroke="none"/>
      <path d="M36.65 9.5 L36.8 9.65 37.2 10.15 37.7 11.25 37.35 10.55 37.75 12.4 33.75 12.45 33.7 9.45 33.95 9.15 33.95 8.4 Q35.3 8.4 36.3 9.2 L36.4 9.35 36.5 9.35 Q35.35 8.35 33.95 8.3 L33.9 8.2 Q35.45 8.3 36.65 9.45 L36.65 9.5" fill="#5ad1fe" fill-rule="evenodd" stroke="none"/>
      <path d="M27.3 10.35 L28.0 9.45 Q29.0 8.45 30.2 8.05 L30.45 7.95 31.1 8.05 31.35 8.05 32.2 7.75 32.35 7.65 Q34.6 7.65 36.25 9.1 L36.6 9.4 36.65 9.5 36.65 9.45 Q35.45 8.3 33.9 8.2 L33.95 8.3 33.95 8.4 33.95 9.15 33.7 9.45 Q33.55 9.55 33.65 9.25 33.8 8.95 33.15 8.35 L32.1 8.85 32.1 8.55 32.1 8.45 Q31.2 8.7 30.55 9.45 L29.95 10.15 Q29.1 11.3 29.25 12.4 L27.3 10.35 M29.0 6.0 Q29.05 5.2 29.6 4.7 30.2 4.15 31.1 4.15 32.0 4.15 32.55 4.7 33.15 5.25 33.15 6.1 L33.15 6.25 Q31.1 7.65 29.0 6.0 M37.05 9.85 Q38.3 11.4 38.35 13.45 L38.5 13.25 Q38.8 12.95 39.25 12.95 39.65 12.95 39.95 13.25 L40.25 14.0 39.95 14.7 Q39.65 15.0 39.25 15.0 38.8 15.0 38.5 14.7 L38.3 14.45 Q38.1 16.3 36.85 17.75 L34.7 16.5 Q35.3 16.35 35.9 16.0 37.7 14.95 37.9 12.8 L37.7 11.25 37.2 10.15 37.05 9.85 M29.2 18.9 L29.25 19.0 29.15 18.9 29.2 18.9 M36.25 9.1 Q35.2 8.25 33.9 8.2 35.2 8.25 36.25 9.1" fill="#fec210" fill-rule="evenodd" stroke="none"/>
      <path d="M32.1 8.85 L33.15 8.35 Q33.8 8.95 33.65 9.25 33.55 9.55 33.7 9.45 L33.75 12.45 30.2 12.45 30.25 11.55 Q30.4 10.75 30.6 10.65 L32.3 11.75 30.7 10.3 30.8 10.25 Q30.9 9.5 32.1 8.85" fill="#006595" fill-rule="evenodd" stroke="none"/>
      <path d="M29.4 13.2 L29.35 13.2 29.3 12.75 29.4 13.2 M30.2 12.45 L33.75 12.45 33.8 15.9 32.8 15.55 31.85 14.75 33.1 12.95 Q32.35 13.25 31.25 14.45 30.45 13.45 30.2 12.45" fill="#015878" fill-rule="evenodd" stroke="none"/>
      <path d="M36.9 10.85 L37.3 11.25 37.25 11.8 Q37.05 12.1 36.9 12.0 L35.6 12.0 34.05 11.9 Q33.65 11.8 34.7 11.55 L36.15 11.0 Q36.65 10.7 36.9 10.85 M34.6 13.25 L35.15 14.7 35.3 15.4 34.9 15.75 34.35 15.65 Q34.1 15.55 34.2 15.35 L34.2 14.1 Q34.1 13.05 34.25 12.7 34.4 12.3 34.6 13.25" fill="#f9ffff" fill-rule="evenodd" stroke="none"/>
      <path d="M34.6 13.25 Q34.4 12.3 34.25 12.7 34.1 13.05 34.2 14.1 L34.2 15.35 Q34.1 15.55 34.35 15.65 L34.9 15.75 35.3 15.4 35.15 14.7 34.6 13.25 M37.75 12.4 Q37.8 14.55 35.75 15.6 L33.8 15.9 33.75 12.45 37.75 12.4" fill="#0cbcfe" fill-rule="evenodd" stroke="none"/>
      <path d="M29.25 19.0 L29.15 18.9 29.25 19.0 M22.3 25.45 L17.4 30.4 17.4 30.35 17.2 30.5 17.25 30.55 14.8 32.95 14.8 33.0 14.75 33.05 8.95 39.0 Q8.45 39.0 8.7 38.55 L8.75 38.55 8.4 37.9 8.35 37.9 7.85 37.5 7.45 37.35 6.95 37.3 22.7 21.5 22.6 22.55 22.45 24.6 22.45 25.35 22.3 25.45 M21.65 23.05 L20.55 24.2 21.65 23.05 M9.5 37.65 L22.45 24.6 9.5 37.65 M15.1 29.65 L15.05 29.6 15.0 29.75 15.1 29.65 M14.95 32.9 L15.05 32.85 14.9 33.0 14.95 32.9 M13.5 31.75 L13.4 31.85 13.5 31.8 13.55 31.8 13.5 31.75 22.6 22.55 13.5 31.75 M7.85 37.5 L13.5 31.8 7.85 37.5" fill="#a1664c" fill-rule="evenodd" stroke="none"/>
      <path d="M8.8 40.4 L8.6 40.75 8.5 40.85 8.35 41.0 Q7.8 41.55 6.95 41.6 L6.9 41.6 6.75 41.6 6.4 41.55 5.4 41.0 Q4.75 40.35 4.75 39.5 4.75 38.85 5.05 38.4 L5.1 38.25 5.15 38.25 5.4 38.0 Q6.0 37.35 6.85 37.35 7.55 37.35 8.1 37.75 L7.05 37.45 Q6.25 37.45 5.7 38.0 L5.4 38.4 Q5.15 38.8 5.2 39.3 5.15 40.1 5.75 40.6 6.3 41.15 7.05 41.15 7.75 41.15 8.3 40.75 L8.35 40.6 8.6 40.35 8.8 40.4 8.6 40.35 8.6 40.3 8.8 40.35 8.8 40.4" fill="#ba8201" fill-rule="evenodd" stroke="none"/>
      <path d="M8.95 39.0 L9.05 39.55 8.8 40.35 8.8 40.4 8.6 40.35 8.35 40.6 8.3 40.75 Q6.15 40.25 5.4 38.4 L5.7 38.0 Q6.25 37.45 7.05 37.45 L8.1 37.75 Q7.55 37.35 6.85 37.35 6.0 37.35 5.4 38.0 L5.15 38.25 5.1 38.25 5.4 37.95 Q6.0 37.3 6.95 37.3 L7.45 37.35 7.85 37.5 8.35 37.9 8.4 37.9 8.75 38.55 8.7 38.55 Q8.45 39.0 8.95 39.0 M8.6 40.75 L8.5 41.0 Q7.85 41.65 6.95 41.6 7.8 41.55 8.35 41.0 L8.5 40.85 8.6 40.75 M6.2 37.9 L6.0 38.3 6.2 38.75 6.65 38.9 7.05 38.75 7.25 38.25 7.05 37.9 6.65 37.7 Q6.35 37.7 6.2 37.9 M8.6 40.35 L8.8 40.4 8.8 40.35 8.6 40.3 8.6 40.35" fill="#ffcc33" fill-rule="evenodd" stroke="none"/>
      <path d="M14.8 32.95 L14.85 33.0 14.75 33.05 14.8 33.0 14.8 32.95 14.8 33.0 14.8 32.95 M13.5 31.8 L13.4 31.85 13.5 31.75 13.55 31.8 13.5 31.8 13.5 31.75 13.5 31.8" fill="url(#gradient0)" fill-rule="evenodd" stroke="none"/>
      <path d="M24.85 16.55 L24.85 16.95 23.55 15.45 24.45 16.15 24.85 16.55" fill="url(#gradient1)" fill-rule="evenodd" stroke="none"/>
      <path d="M36.8 9.65 L37.05 9.85 37.2 10.15 36.8 9.65 M29.95 10.15 L30.55 9.45 Q31.2 8.7 32.1 8.45 31.2 8.8 30.5 9.5 L29.95 10.15" fill="url(#gradient2)" fill-rule="evenodd" stroke="none"/>
      <path d="M19.0 23.25 L19.0 23.3 18.95 23.2 19.0 23.25" fill="url(#gradient3)" fill-rule="evenodd" stroke="none"/>
      <path d="M22.55 25.2 L22.7 25.3 22.75 25.35 23.3 26.35 22.45 25.6 22.3 25.45 22.45 25.35 22.55 25.2" fill="url(#gradient4)" fill-rule="evenodd" stroke="none"/>
      <path d="M15.1 29.65 L15.0 29.75 15.05 29.6 15.1 29.65" fill="url(#gradient5)" fill-rule="evenodd" stroke="none"/>
      <path d="M30.45 7.95 Q29.95 7.8 29.6 7.45 29.0 6.9 29.0 6.1 L29.0 6.0 Q31.1 7.65 33.15 6.25 33.1 7.0 32.55 7.45 L32.35 7.65 32.2 7.75 31.35 8.05 31.1 8.05 30.45 7.95 M34.85 19.1 L33.7 19.55 33.3 19.65 32.35 19.75 Q31.2 19.75 29.2 18.9 L29.15 18.9 27.1 17.05 27.15 17.0 26.6 15.65 26.55 15.65 26.3 13.75 26.4 12.55 26.45 12.65 26.5 14.0 Q26.5 15.1 27.6 16.05 28.7 17.1 29.55 16.7 L30.45 16.35 Q30.1 17.1 30.35 17.8 30.6 18.55 31.5 19.0 L33.45 19.3 34.7 19.15 34.85 19.1" fill="#4d1c08" fill-rule="evenodd" stroke="none"/>
      <path d="M29.15 18.9 L23.5 24.2 23.25 24.4 23.35 24.45 22.55 25.2 22.45 25.35 22.45 24.6 22.6 22.55 22.7 21.5 22.8 21.35 27.1 17.05 29.15 18.9 M27.15 17.65 L27.1 18.0 22.6 22.55 27.1 18.0 27.15 17.65 M25.65 21.35 L25.25 21.7 25.65 21.35 M24.25 22.7 L23.05 23.95 22.45 24.6 23.05 23.95 24.25 22.7 M27.95 18.8 L26.85 19.95 27.95 18.8 M8.3 40.75 Q7.75 41.15 7.05 41.15 6.3 41.15 5.75 40.6 5.15 40.1 5.2 39.3 5.15 38.8 5.4 38.4 6.15 40.25 8.3 40.75" fill="#6b4232" fill-rule="evenodd" stroke="none"/>
      <path d="M36.85 17.75 L36.65 17.95 Q36.1 18.5 34.85 19.1 L34.7 19.15 33.45 19.3 31.5 19.0 Q30.6 18.55 30.35 17.8 30.1 17.1 30.45 16.35 L29.55 16.7 Q28.7 17.1 27.6 16.05 26.5 15.1 26.5 14.0 L26.45 12.65 26.85 11.4 27.3 10.35 29.25 12.4 29.3 12.65 29.3 12.75 29.35 13.2 29.4 13.2 Q30.2 15.3 32.2 16.2 L34.7 16.5 36.85 17.75 M33.7 19.55 L33.3 19.75 33.3 19.65 33.7 19.55" fill="#e36a10" fill-rule="evenodd" stroke="none"/>
      <path d="M27.3 10.35 L28.0 9.45 Q29.0 8.45 30.2 8.05 M30.45 7.95 Q29.95 7.8 29.6 7.45 29.0 6.9 29.0 6.1 L29.0 6.0 Q29.05 5.2 29.6 4.7 30.2 4.15 31.1 4.15 32.0 4.15 32.55 4.7 33.15 5.25 33.15 6.1 L33.15 6.25 Q33.1 7.0 32.55 7.45 L32.35 7.65 Q34.6 7.65 36.25 9.1 L36.6 9.4 36.65 9.5 36.8 9.65 37.05 9.85 Q38.3 11.4 38.35 13.45 L38.5 13.25 Q38.8 12.95 39.25 12.95 39.65 12.95 39.95 13.25 L40.25 14.0 39.95 14.7 Q39.65 15.0 39.25 15.0 38.8 15.0 38.5 14.7 L38.3 14.45 Q38.1 16.3 36.85 17.75 L36.65 17.95 Q36.1 18.5 34.85 19.1 L33.7 19.55 33.3 19.75 M33.3 19.65 L32.35 19.75 Q31.2 19.75 29.2 18.9 M8.95 39.0 L9.05 39.55 8.8 40.35 M8.8 40.4 L8.6 40.75 8.5 40.85 8.35 41.0 Q7.8 41.55 6.95 41.6 L6.9 41.6 6.75 41.6 6.4 41.55 5.4 41.0 Q4.75 40.35 4.75 39.5 4.75 38.85 5.05 38.4 L5.1 38.25 M27.15 17.0 L26.6 15.65 M26.55 15.65 L26.3 13.75 26.4 12.55 M26.45 12.65 L26.85 11.4 27.3 10.35 M33.9 8.2 Q35.2 8.25 36.25 9.1 M37.05 9.85 L37.2 10.15 37.7 11.25 M29.15 18.9 L29.25 19.0 M29.15 18.9 L29.2 18.9 M5.4 38.4 L5.7 38.0 Q6.25 37.45 7.05 37.45 L8.1 37.75 Q7.55 37.35 6.85 37.35 6.0 37.35 5.4 38.0 L5.15 38.25 5.1 38.25 M8.3 40.75 L8.35 40.6 8.6 40.35 8.8 40.4" fill="none" stroke="#cd9a01" stroke-linecap="round" stroke-linejoin="round" stroke-width="0.5"/>
      <path d="M30.2 12.45 L33.75 12.45 33.7 9.45 M37.75 12.4 L33.75 12.45 33.8 15.9" fill="none" stroke="#fefefe" stroke-linecap="round" stroke-linejoin="round" stroke-width="0.5"/>
      <path d="M22.6 22.55 L27.1 18.0 27.15 17.65 M26.85 19.95 L27.95 18.8 M13.5 31.75 L22.6 22.55 M13.5 31.75 L13.5 31.8 7.85 37.5" fill="none" stroke="#cfa69c" stroke-linecap="round" stroke-linejoin="round" stroke-width="0.5"/>
      <path d="M29.15 18.9 L23.5 24.2 23.35 24.45 22.55 25.2 M22.3 25.45 L17.4 30.4 17.25 30.55 14.8 32.95 M14.75 33.05 L8.95 39.0 M6.95 37.3 L22.7 21.5 M22.8 21.35 L27.1 17.05 27.15 17.0 M22.45 24.6 L23.05 23.95 24.25 22.7 M25.25 21.7 L25.65 21.35 M23.5 24.2 L23.25 24.4 M22.45 25.35 L22.55 25.2 M22.3 25.45 L22.45 25.35 M22.45 24.6 L9.5 37.65 M17.4 30.35 L17.2 30.5 M14.8 33.0 L14.8 32.95 M14.8 33.0 L14.75 33.05" fill="none" stroke="#58382b" stroke-linecap="round" stroke-linejoin="round" stroke-width="0.5"/>
      <path d="M29.15 18.9 L27.1 17.05" fill="none" stroke="#6b4f01" stroke-linecap="round" stroke-linejoin="round" stroke-width="0.5"/>
    </g>
    <linearGradient gradientTransform="matrix(0.0146, -0.0032, 0.0032, 0.0148, 26.05, 22.1)" gradientUnits="userSpaceOnUse" id="gradient0" spreadMethod="pad" x1="-819.2" x2="819.2">
      <stop offset="0.0" stop-color="#ffff00" stop-opacity="0.0"/>
      <stop offset="1.0" stop-color="#ff9900"/>
    </linearGradient>
    <radialGradient cx="0" cy="0" gradientTransform="matrix(-0.0032, -0.0031, 0.0031, -0.0032, 21.9, 18.65)" gradientUnits="userSpaceOnUse" id="gradient1" r="819.2" spreadMethod="pad">
      <stop offset="0.11372549019607843" stop-color="#ff9900" stop-opacity="0.47058824"/>
      <stop offset="1.0" stop-color="#ffff00" stop-opacity="0.0"/>
    </radialGradient>
    <radialGradient cx="0" cy="0" gradientTransform="matrix(0.0114, 0.0053, -0.0053, 0.0114, 32.5, 13.45)" gradientUnits="userSpaceOnUse" id="gradient2" r="819.2" spreadMethod="pad">
      <stop offset="0.11372549019607843" stop-color="#ff9900" stop-opacity="0.47058824"/>
      <stop offset="1.0" stop-color="#ffff00" stop-opacity="0.0"/>
    </radialGradient>
    <radialGradient cx="0" cy="0" gradientTransform="matrix(-0.0016, -0.0016, 0.0016, -0.0016, 17.15, 23.15)" gradientUnits="userSpaceOnUse" id="gradient3" r="819.2" spreadMethod="pad">
      <stop offset="0.11372549019607843" stop-color="#ff9900" stop-opacity="0.47058824"/>
      <stop offset="1.0" stop-color="#ffff00" stop-opacity="0.0"/>
    </radialGradient>
    <radialGradient cx="0" cy="0" gradientTransform="matrix(-0.0024, -0.0023, 0.0023, -0.0024, 20.75, 27.05)" gradientUnits="userSpaceOnUse" id="gradient4" r="819.2" spreadMethod="pad">
      <stop offset="0.11372549019607843" stop-color="#ff9900" stop-opacity="0.47058824"/>
      <stop offset="1.0" stop-color="#ffff00" stop-opacity="0.0"/>
    </radialGradient>
    <radialGradient cx="0" cy="0" gradientTransform="matrix(-0.0024, -0.0023, 0.0023, -0.0024, 14.4, 28.3)" gradientUnits="userSpaceOnUse" id="gradient5" r="819.2" spreadMethod="pad">
      <stop offset="0.11372549019607843" stop-color="#ff9900" stop-opacity="0.47058824"/>
      <stop offset="1.0" stop-color="#ffff00" stop-opacity="0.0"/>
    </radialGradient>
  </defs>
</svg>
