<?xml version="1.0" encoding="UTF-8" standalone="no"?>
<svg xmlns:xlink="http://www.w3.org/1999/xlink" height="440.0px" width="440.0px" xmlns="http://www.w3.org/2000/svg">
  <g transform="matrix(10.0, 0.0, 0.0, 10.0, 0.0, 0.0)">
    <use height="44.0" transform="matrix(0.9091, 0.0, 0.0, 0.9091, 2.0, 2.0)" width="44.0" xlink:href="#sprite0"/>
  </g>
  <defs>
    <g id="sprite0" transform="matrix(1.0, 0.0, 0.0, 1.0, 0.0, 0.0)">
      <use height="44.0" transform="matrix(1.0, 0.0, 0.0, 1.0, 0.0, 0.0)" width="44.0" xlink:href="#shape0"/>
      <use height="10.4" transform="matrix(-0.2196, -0.2037, 0.4585, -0.4943, 26.7075, 21.6795)" width="10.4" xlink:href="#shape1"/>
      <use height="38.55" transform="matrix(1.0, 0.0, 0.0, 1.0, 4.05, 2.6)" width="38.4" xlink:href="#shape2"/>
    </g>
    <g id="shape0" transform="matrix(1.0, 0.0, 0.0, 1.0, 0.0, 0.0)">
      <path d="M44.0 44.0 L0.0 44.0 0.0 0.0 44.0 0.0 44.0 44.0" fill="#43adca" fill-opacity="0.0" fill-rule="evenodd" stroke="none"/>
      <path d="M29.8 18.1 L32.1 20.95 32.2 21.75 31.75 21.25 31.25 20.7 30.5 19.9 29.8 18.1 30.5 19.9 31.25 21.7 31.1 23.05 31.0 24.25 30.7 23.15 30.65 23.0 30.45 22.35 30.35 21.85 30.0 20.6 30.0 20.5 29.65 20.4 28.95 20.1 28.45 19.95 29.2 16.65 29.8 18.1" fill="#5f83be" fill-rule="evenodd" stroke="none"/>
      <path d="M30.5 19.9 L31.25 20.7 31.75 21.25 32.2 21.75 32.55 25.95 31.1 23.05 31.25 21.7 30.5 19.9" fill="url(#gradient0)" fill-rule="evenodd" stroke="none"/>
      <path d="M31.0 24.25 L30.45 30.9 28.45 19.95 28.95 20.1 29.65 20.4 30.0 20.5 30.0 20.6 30.35 21.85 30.45 22.35 30.65 23.0 30.7 23.15 31.0 24.25" fill="url(#gradient1)" fill-rule="evenodd" stroke="none"/>
      <path d="M30.5 19.9 L31.25 20.7 M31.75 21.25 L32.2 21.75 M29.65 20.4 L30.0 20.5 30.0 20.6 M30.35 21.85 L30.45 22.35 M30.65 23.0 L30.7 23.15 M28.45 19.95 L28.95 20.1" fill="none" stroke="#d8fbfc" stroke-linecap="round" stroke-linejoin="round" stroke-width="0.05"/>
      <path d="M32.2 21.75 L32.1 20.95 29.8 18.1 30.5 19.9 M32.2 21.75 L32.55 25.95 31.1 23.05 31.0 24.25 30.45 30.9 28.45 19.95 29.2 16.65 29.8 18.1 M31.1 23.05 L31.25 21.7 30.5 19.9 Z" fill="none" stroke="#000000" stroke-linecap="round" stroke-linejoin="round" stroke-opacity="0.2627451" stroke-width="0.05"/>
      <path d="M25.0 16.1 L25.3 16.75 25.5 17.2 14.45 16.1 21.05 15.0 22.2 15.25 22.3 15.3 23.1 15.4 23.55 15.5 24.75 15.75 24.9 15.8 25.0 16.1" fill="url(#gradient2)" fill-rule="evenodd" stroke="none"/>
      <path d="M25.3 16.75 L25.0 16.1 24.9 15.8 24.75 15.75 23.55 15.5 23.1 15.4 22.3 15.3 22.2 15.25 21.05 15.0 22.25 14.8 23.6 14.6 25.45 15.2 24.65 14.55 24.0 14.05 23.5 13.65 24.25 13.65 27.35 15.75 28.75 16.2 25.5 17.2 25.3 16.75 M27.35 15.75 L25.45 15.2 27.35 15.75" fill="#5f83be" fill-rule="evenodd" stroke="none"/>
      <path d="M24.0 14.05 L24.65 14.55 25.45 15.2 23.6 14.6 22.25 14.8 19.3 13.6 23.5 13.65 24.0 14.05" fill="url(#gradient3)" fill-rule="evenodd" stroke="none"/>
      <path d="M25.0 16.1 L24.9 15.8 24.75 15.75 M23.55 15.5 L23.1 15.4 M22.3 15.3 L22.2 15.25 M25.5 17.2 L25.3 16.75 M24.0 14.05 L23.5 13.65 M25.45 15.2 L24.65 14.55" fill="none" stroke="#d8fbfc" stroke-linecap="round" stroke-linejoin="round" stroke-width="0.05"/>
      <path d="M21.05 15.0 L14.45 16.1 25.5 17.2 M23.5 13.65 L19.3 13.6 22.25 14.8 23.6 14.6 25.45 15.2 27.35 15.75 24.25 13.65 23.5 13.65 M21.05 15.0 L22.25 14.8 M27.35 15.75 L28.75 16.2 25.5 17.2" fill="none" stroke="#000000" stroke-linecap="round" stroke-linejoin="round" stroke-opacity="0.2627451" stroke-width="0.05"/>
      <path d="M27.1 16.5 L24.8 13.65 24.7 12.85 25.15 13.35 25.65 13.9 26.4 14.7 27.1 16.5 26.4 14.7 25.65 12.9 25.8 11.55 25.9 10.35 26.2 11.45 26.25 11.6 26.45 12.25 26.55 12.75 26.9 14.0 26.9 14.1 27.25 14.2 27.95 14.5 28.45 14.65 27.7 17.95 27.1 16.5" fill="#5f83be" fill-rule="evenodd" stroke="none"/>
      <path d="M26.4 14.7 L25.65 13.9 25.15 13.35 24.7 12.85 24.35 8.65 25.8 11.55 25.65 12.9 26.4 14.7" fill="url(#gradient4)" fill-rule="evenodd" stroke="none"/>
      <path d="M25.9 10.35 L26.45 3.7 28.45 14.65 27.95 14.5 27.25 14.2 26.9 14.1 26.9 14.0 26.55 12.75 26.45 12.25 26.25 11.6 26.2 11.45 25.9 10.35" fill="url(#gradient5)" fill-rule="evenodd" stroke="none"/>
      <path d="M26.4 14.7 L25.65 13.9 M25.15 13.35 L24.7 12.85 M27.25 14.2 L26.9 14.1 26.9 14.0 M26.55 12.75 L26.45 12.25 M26.25 11.6 L26.2 11.45 M28.45 14.65 L27.95 14.5" fill="none" stroke="#d8fbfc" stroke-linecap="round" stroke-linejoin="round" stroke-width="0.05"/>
      <path d="M24.7 12.85 L24.8 13.65 27.1 16.5 26.4 14.7 M24.7 12.85 L24.35 8.65 25.8 11.55 25.9 10.35 26.45 3.7 28.45 14.65 27.7 17.95 27.1 16.5 M25.8 11.55 L25.65 12.9 26.4 14.7 Z" fill="none" stroke="#000000" stroke-linecap="round" stroke-linejoin="round" stroke-opacity="0.2627451" stroke-width="0.05"/>
    </g>
    <radialGradient cx="0" cy="0" gradientTransform="matrix(0.0048, 0.0044, 0.0044, -0.0048, 31.1, 20.8)" gradientUnits="userSpaceOnUse" id="gradient0" r="819.2" spreadMethod="pad">
      <stop offset="0.0" stop-color="#a2b7e8"/>
      <stop offset="0.596078431372549" stop-color="#a3e2fa"/>
      <stop offset="0.9803921568627451" stop-color="#dbf7fd"/>
    </radialGradient>
    <radialGradient cx="0" cy="0" gradientTransform="matrix(0.0092, 0.0085, 0.0085, -0.0092, 28.65, 20.75)" gradientUnits="userSpaceOnUse" id="gradient1" r="819.2" spreadMethod="pad">
      <stop offset="0.0" stop-color="#a2b7e8"/>
      <stop offset="0.596078431372549" stop-color="#a3e2fa"/>
      <stop offset="0.9803921568627451" stop-color="#dbf7fd"/>
    </radialGradient>
    <radialGradient cx="0" cy="0" gradientTransform="matrix(-0.0092, -0.0085, 0.0085, -0.0092, 24.7, 17.1)" gradientUnits="userSpaceOnUse" id="gradient2" r="819.2" spreadMethod="pad">
      <stop offset="0.0" stop-color="#a2b7e8"/>
      <stop offset="0.596078431372549" stop-color="#a3e2fa"/>
      <stop offset="0.9803921568627451" stop-color="#dbf7fd"/>
    </radialGradient>
    <radialGradient cx="0" cy="0" gradientTransform="matrix(-0.0048, -0.0044, 0.0044, -0.0048, 24.55, 14.7)" gradientUnits="userSpaceOnUse" id="gradient3" r="819.2" spreadMethod="pad">
      <stop offset="0.0" stop-color="#a2b7e8"/>
      <stop offset="0.596078431372549" stop-color="#a3e2fa"/>
      <stop offset="0.9803921568627451" stop-color="#dbf7fd"/>
    </radialGradient>
    <radialGradient cx="0" cy="0" gradientTransform="matrix(-0.0048, -0.0044, -0.0044, 0.0048, 25.8, 13.8)" gradientUnits="userSpaceOnUse" id="gradient4" r="819.2" spreadMethod="pad">
      <stop offset="0.0" stop-color="#a2b7e8"/>
      <stop offset="0.596078431372549" stop-color="#a3e2fa"/>
      <stop offset="0.9803921568627451" stop-color="#dbf7fd"/>
    </radialGradient>
    <radialGradient cx="0" cy="0" gradientTransform="matrix(-0.0092, -0.0085, -0.0085, 0.0092, 28.25, 13.85)" gradientUnits="userSpaceOnUse" id="gradient5" r="819.2" spreadMethod="pad">
      <stop offset="0.0" stop-color="#a2b7e8"/>
      <stop offset="0.596078431372549" stop-color="#a3e2fa"/>
      <stop offset="0.9803921568627451" stop-color="#dbf7fd"/>
    </radialGradient>
    <g id="shape1" transform="matrix(1.0, 0.0, 0.0, 1.0, 5.2, 5.2)">
      <path d="M-5.2 0.0 Q-5.2 -2.15 -3.65 -3.65 -2.15 -5.2 0.0 -5.2 2.15 -5.2 3.65 -3.65 5.2 -2.15 5.2 0.0 5.2 2.1 3.65 3.65 2.15 5.2 0.0 5.2 -2.15 5.2 -3.65 3.65 -5.2 2.1 -5.2 0.0" fill="#00b8a3" fill-rule="evenodd" stroke="none"/>
      <path d="M-2.45 3.3 L-2.9 2.9 -3.5 2.2 -3.8 1.65 -4.1 0.0 Q-4.1 -1.25 -3.5 -2.2 L-2.9 -2.9 Q-1.8 -4.0 -0.15 -4.1 L-0.05 -4.1 0.0 -4.1 0.7 -4.0 1.7 -3.7 Q2.3 -2.65 2.2 -1.8 L2.15 -0.8 2.05 0.0 1.55 1.35 Q1.2 2.05 0.05 2.65 -1.05 3.25 -2.45 3.3 M-0.55 -3.1 Q-0.85 -3.05 -1.35 -2.4 L-1.4 -2.2 -1.15 -1.75 Q0.05 -1.35 0.4 -2.55 L0.3 -3.05 -0.55 -3.1 M-2.4 -0.35 L-2.45 -0.3 Q-2.75 0.4 -2.4 1.3 -1.95 2.65 -0.5 2.25 0.4 1.95 0.4 1.15 L-0.1 1.2 -0.75 1.4 -1.1 1.15 Q-1.35 0.4 -0.75 -0.15 L-0.65 -0.25 Q-1.25 -1.0 -2.15 -0.5 L-2.35 -0.4 -2.4 -0.35 -2.2 -0.7 -2.65 -0.15 -2.4 -0.35" fill="url(#gradient6)" fill-rule="evenodd" stroke="none"/>
      <path d="M1.7 -3.7 L2.05 -3.55 2.85 -2.9 Q3.6 -2.15 3.85 -1.2 L4.05 0.0 3.7 1.65 3.25 2.45 3.0 2.7 2.85 2.9 2.25 3.35 2.1 3.5 1.25 3.85 1.1 3.9 0.7 4.0 0.0 4.1 -0.05 4.1 Q-1.4 4.05 -2.45 3.3 -1.05 3.25 0.05 2.65 1.2 2.05 1.55 1.35 L2.05 0.0 2.15 -0.8 2.2 -1.8 Q2.3 -2.65 1.7 -3.7" fill="#07d9cb" fill-rule="evenodd" stroke="none"/>
      <path d="M-0.55 -3.1 L0.3 -3.05 0.4 -2.55 Q0.05 -1.35 -1.15 -1.75 L-1.4 -2.2 -1.35 -2.4 Q-0.85 -3.05 -0.55 -3.1 M-2.4 -0.35 L-2.35 -0.4 -2.15 -0.5 Q-1.25 -1.0 -0.65 -0.25 L-0.75 -0.15 Q-1.35 0.4 -1.1 1.15 L-0.75 1.4 -0.1 1.2 0.4 1.15 Q0.4 1.95 -0.5 2.25 -1.95 2.65 -2.4 1.3 -2.75 0.4 -2.45 -0.3 L-2.4 -0.35" fill="#5bfefe" fill-rule="evenodd" stroke="none"/>
      <path d="M-2.4 -0.35 L-2.65 -0.15 -2.2 -0.7 -2.4 -0.35" fill="#2cf7d5" fill-rule="evenodd" stroke="none"/>
      <path d="M-2.45 3.3 L-2.9 2.9 -3.5 2.2 -3.8 1.65 -4.1 0.0 Q-4.1 -1.25 -3.5 -2.2 L-2.9 -2.9 Q-1.8 -4.0 -0.15 -4.1 L-0.05 -4.1 0.0 -4.1 0.7 -4.0 1.7 -3.7 2.05 -3.55 2.85 -2.9 Q3.6 -2.15 3.85 -1.2 L4.05 0.0 3.7 1.65 3.25 2.45 3.0 2.7 2.85 2.9 2.25 3.35 2.1 3.5 1.25 3.85 1.1 3.9 0.7 4.0 0.0 4.1 -0.05 4.1 Q-1.4 4.05 -2.45 3.3 Z" fill="none" stroke="#00a3a3" stroke-linecap="round" stroke-linejoin="round" stroke-opacity="0.24313726" stroke-width="0.05"/>
    </g>
    <radialGradient cx="0" cy="0" gradientTransform="matrix(0.0099, 0.0, 0.0, 0.0099, -2.1, 3.3)" gradientUnits="userSpaceOnUse" id="gradient6" r="819.2" spreadMethod="pad">
      <stop offset="0.0" stop-color="#07d9cb"/>
      <stop offset="0.6039215686274509" stop-color="#34fed7"/>
      <stop offset="0.9882352941176471" stop-color="#56fef9"/>
    </radialGradient>
    <g id="shape2" transform="matrix(1.0, 0.0, 0.0, 1.0, -4.05, -2.6)">
      <path d="M26.8 19.85 L26.25 19.8 Q26.05 19.65 26.2 19.3 L26.7 18.55 27.4 18.0 27.95 17.95 28.0 18.55 27.5 19.3 26.8 19.85" fill="#ffffff" fill-rule="evenodd" stroke="none"/>
      <path d="M29.3 14.0 L28.65 14.3 28.2 14.5 29.3 3.45 30.4 10.05 30.15 11.2 30.1 11.3 30.0 12.1 29.9 12.55 29.65 13.75 29.6 13.9 29.3 14.0" fill="url(#gradient7)" fill-rule="evenodd" stroke="none"/>
      <path d="M28.65 14.3 L29.3 14.0 29.6 13.9 29.65 13.75 29.9 12.55 30.0 12.1 30.1 11.3 30.15 11.2 30.4 10.05 30.6 11.25 30.8 12.6 30.2 14.45 30.85 13.65 31.35 13.0 31.75 12.5 31.75 13.25 29.65 16.35 29.2 17.75 28.2 14.5 28.65 14.3 M29.65 16.35 L30.2 14.45 29.65 16.35" fill="#5f83be" fill-rule="evenodd" stroke="none"/>
      <path d="M31.35 13.0 L30.85 13.65 30.2 14.45 30.8 12.6 30.6 11.25 31.8 8.3 31.75 12.5 31.35 13.0" fill="url(#gradient8)" fill-rule="evenodd" stroke="none"/>
      <path d="M29.3 14.0 L29.6 13.9 29.65 13.75 M29.9 12.55 L30.0 12.1 M30.1 11.3 L30.15 11.2 M28.2 14.5 L28.65 14.3 M31.35 13.0 L31.75 12.5 M30.2 14.45 L30.85 13.65" fill="none" stroke="#d8fbfc" stroke-linecap="round" stroke-linejoin="round" stroke-width="0.05"/>
      <path d="M30.4 10.05 L29.3 3.45 28.2 14.5 M31.75 12.5 L31.8 8.3 30.6 11.25 30.8 12.6 30.2 14.45 29.65 16.35 31.75 13.25 31.75 12.5 M30.4 10.05 L30.6 11.25 M29.65 16.35 L29.2 17.75 28.2 14.5" fill="none" stroke="#000000" stroke-linecap="round" stroke-linejoin="round" stroke-opacity="0.2627451" stroke-width="0.05"/>
      <path d="M28.95 16.15 L31.8 13.85 32.6 13.75 32.1 14.2 31.55 14.7 30.75 15.45 28.95 16.15 30.75 15.45 32.55 14.7 33.9 14.85 35.1 14.95 34.0 15.25 33.85 15.3 33.2 15.5 32.7 15.6 31.45 15.95 31.35 15.95 31.25 16.3 30.95 17.0 30.8 17.5 27.5 16.75 Q28.25 16.4 28.95 16.15" fill="#5f83be" fill-rule="evenodd" stroke="none"/>
      <path d="M30.75 15.45 L31.55 14.7 32.1 14.2 32.6 13.75 36.8 13.4 33.9 14.85 32.55 14.7 30.75 15.45" fill="url(#gradient9)" fill-rule="evenodd" stroke="none"/>
      <path d="M35.1 14.95 L41.75 15.5 30.8 17.5 30.95 17.0 31.25 16.3 31.35 15.95 31.45 15.95 32.7 15.6 33.2 15.5 33.85 15.3 34.0 15.25 35.1 14.95" fill="url(#gradient10)" fill-rule="evenodd" stroke="none"/>
      <path d="M30.75 15.45 L31.55 14.7 M32.1 14.2 L32.6 13.75 M31.25 16.3 L31.35 15.95 31.45 15.95 M32.7 15.6 L33.2 15.5 M33.85 15.3 L34.0 15.25 M30.8 17.5 L30.95 17.0" fill="none" stroke="#d8fbfc" stroke-linecap="round" stroke-linejoin="round" stroke-width="0.05"/>
      <path d="M32.6 13.75 L31.8 13.85 28.95 16.15 30.75 15.45 M32.6 13.75 L36.8 13.4 33.9 14.85 35.1 14.95 41.75 15.5 30.8 17.5 27.5 16.75 Q28.25 16.4 28.95 16.15 M33.9 14.85 L32.55 14.7 30.75 15.45 Z" fill="none" stroke="#000000" stroke-linecap="round" stroke-linejoin="round" stroke-opacity="0.2627451" stroke-width="0.05"/>
      <path d="M30.15 16.35 L30.05 16.4 31.35 16.95 35.6 17.25 37.0 16.7 34.95 16.6 34.5 16.6 30.15 16.35 M38.45 17.35 L38.55 17.5 38.6 17.4 42.35 15.35 42.2 15.35 38.3 16.6 38.25 16.65 38.45 17.35" fill="#427973" fill-rule="evenodd" stroke="none"/>
      <path d="M35.6 17.25 L38.45 17.35 38.25 16.65 38.2 16.7 34.95 16.6 37.0 16.7 35.6 17.25 M30.15 16.0 L30.15 16.35 34.5 16.6 Q30.9 16.3 34.3 15.65 L35.45 15.4 30.15 16.0" fill="#56a098" fill-rule="evenodd" stroke="none"/>
      <path d="M34.5 16.6 L34.95 16.6 38.2 16.7 38.25 16.65 38.25 16.6 38.3 16.6 37.85 16.15 37.0 15.15 37.85 16.15 37.3 15.25 37.1 15.05 37.0 15.15 37.0 15.2 36.35 15.25 35.45 15.4 34.3 15.65 Q30.9 16.3 34.5 16.6" fill="#91cac8" fill-rule="evenodd" stroke="none"/>
      <path d="M42.35 15.35 L42.45 15.3 37.95 14.25 37.9 14.25 37.75 14.3 37.1 15.05 37.3 15.25 42.2 15.35 42.35 15.35 M36.65 14.5 L31.5 15.3 30.15 16.0 35.45 15.4 36.3 15.15 36.35 15.25 37.0 15.2 37.0 15.15 37.1 15.05 36.65 14.5" fill="#eafffb" fill-rule="evenodd" stroke="none"/>
      <path d="M37.85 16.15 L38.3 16.6 38.25 16.6 38.25 16.65 38.3 16.6 42.2 15.35 37.3 15.25 37.85 16.15" fill="#baded7" fill-rule="evenodd" stroke="none"/>
      <path d="M37.75 14.3 L36.65 14.5 37.1 15.05 37.75 14.3" fill="#ffffff" fill-rule="evenodd" stroke="none"/>
      <path d="M30.15 16.35 L30.05 16.4 31.35 16.95 35.6 17.25 38.45 17.35 38.55 17.5 38.6 17.4 42.35 15.35 42.45 15.3 37.95 14.25 37.9 14.25 37.75 14.3 36.65 14.5 31.5 15.3 30.15 16.0 30.15 16.35 34.5 16.6 34.95 16.6 M35.45 15.4 L36.35 15.25 37.0 15.2 37.0 15.15 37.85 16.15 38.3 16.6 38.25 16.6 38.25 16.65 38.2 16.7 34.95 16.6 M35.45 15.4 L30.15 16.0 M37.0 15.15 L37.1 15.05 M37.75 14.3 L37.1 15.05 M42.2 15.35 L42.35 15.35 M38.3 16.6 L38.25 16.65 38.45 17.35 M42.2 15.35 L38.3 16.6 M37.3 15.25 L42.2 15.35" fill="none" stroke="#1b4d7e" stroke-linecap="round" stroke-linejoin="round" stroke-opacity="0.4" stroke-width="0.05"/>
      <path d="M29.65 16.75 L29.5 16.75 30.5 17.8 34.4 19.55 35.9 19.55 34.0 18.75 33.55 18.5 29.65 16.75 M36.95 20.75 L37.0 20.9 37.1 20.85 41.35 20.25 41.25 20.25 37.1 19.9 37.0 19.95 36.95 20.75" fill="#427973" fill-rule="evenodd" stroke="none"/>
      <path d="M34.4 19.55 L36.95 20.75 37.0 19.95 36.95 20.0 34.0 18.75 35.9 19.55 34.4 19.55 M29.8 16.45 L29.65 16.75 33.55 18.5 Q30.35 17.0 33.75 17.6 L34.9 17.8 29.8 16.45" fill="#56a098" fill-rule="evenodd" stroke="none"/>
      <path d="M33.55 18.5 L34.0 18.75 36.95 20.0 37.0 19.95 37.1 19.9 36.9 19.35 36.45 18.15 36.9 19.35 36.7 18.3 36.6 18.1 36.45 18.15 36.4 18.15 35.8 17.95 34.9 17.8 33.75 17.6 Q30.35 17.0 33.55 18.5" fill="#91cac8" fill-rule="evenodd" stroke="none"/>
      <path d="M41.35 20.25 L41.45 20.2 37.65 17.65 37.6 17.65 37.4 17.6 36.6 18.1 36.35 17.4 31.25 16.3 29.8 16.45 34.9 17.8 35.8 17.9 35.8 17.95 36.4 18.15 36.45 18.15 36.6 18.1 36.7 18.3 41.25 20.25 41.35 20.25" fill="#eafffb" fill-rule="evenodd" stroke="none"/>
      <path d="M36.9 19.35 L37.1 19.9 37.0 19.95 37.1 19.9 41.25 20.25 36.7 18.3 36.9 19.35" fill="#baded7" fill-rule="evenodd" stroke="none"/>
      <path d="M37.4 17.6 L36.35 17.4 36.6 18.1 37.4 17.6" fill="#ffffff" fill-rule="evenodd" stroke="none"/>
      <path d="M29.65 16.75 L29.5 16.75 30.5 17.8 34.4 19.55 36.95 20.75 37.0 20.9 37.1 20.85 41.35 20.25 41.45 20.2 37.65 17.65 37.6 17.65 37.4 17.6 36.35 17.4 31.25 16.3 29.8 16.45 29.65 16.75 33.55 18.5 34.0 18.75 M34.9 17.8 L35.8 17.95 36.4 18.15 36.45 18.15 36.9 19.35 37.1 19.9 37.0 19.95 36.95 20.0 34.0 18.75 M34.9 17.8 L29.8 16.45 M36.45 18.15 L36.6 18.1 M37.4 17.6 L36.6 18.1 M41.25 20.25 L41.35 20.25 M37.0 19.95 L36.95 20.75 M37.1 19.9 L37.0 19.95 M41.25 20.25 L37.1 19.9 M36.7 18.3 L41.25 20.25" fill="none" stroke="#1b4d7e" stroke-linecap="round" stroke-linejoin="round" stroke-opacity="0.4" stroke-width="0.05"/>
      <path d="M29.25 18.2 L29.2 18.1 28.65 19.4 28.35 23.65 28.9 25.05 29.0 23.0 29.0 22.55 29.25 18.2 M28.25 26.5 Q28.15 26.5 28.1 26.6 L28.2 26.65 30.25 30.4 30.25 30.25 29.0 26.35 28.95 26.3 28.25 26.5" fill="#427973" fill-rule="evenodd" stroke="none"/>
      <path d="M28.35 23.65 L28.25 26.5 28.95 26.3 28.9 26.25 29.0 23.0 28.9 25.05 28.35 23.65 M29.6 18.2 L29.25 18.2 29.0 22.55 Q29.3 18.95 29.95 22.35 L30.2 23.5 29.6 18.2" fill="#56a098" fill-rule="evenodd" stroke="none"/>
      <path d="M29.0 22.55 L29.0 23.0 28.9 26.25 28.95 26.3 29.0 26.3 29.0 26.35 29.45 25.9 30.45 25.05 29.45 25.9 30.35 25.35 30.55 25.15 30.45 25.05 30.4 25.05 30.35 24.4 30.2 23.5 29.95 22.35 Q29.3 18.95 29.0 22.55" fill="#91cac8" fill-rule="evenodd" stroke="none"/>
      <path d="M30.25 30.4 L30.3 30.5 31.35 26.0 31.35 25.95 31.3 25.8 30.55 25.15 31.1 24.7 30.3 19.55 29.6 18.2 30.2 23.5 30.45 24.35 30.35 24.4 30.4 25.05 30.45 25.05 30.55 25.15 30.35 25.35 30.25 30.25 30.25 30.4" fill="#eafffb" fill-rule="evenodd" stroke="none"/>
      <path d="M29.45 25.9 L29.0 26.35 29.0 26.3 28.95 26.3 29.0 26.35 30.25 30.25 30.35 25.35 29.45 25.9" fill="#baded7" fill-rule="evenodd" stroke="none"/>
      <path d="M31.3 25.8 L31.1 24.7 30.55 25.15 31.3 25.8" fill="#ffffff" fill-rule="evenodd" stroke="none"/>
      <path d="M29.25 18.2 L29.2 18.1 28.65 19.4 28.35 23.65 28.25 26.5 Q28.15 26.5 28.1 26.6 L28.2 26.65 30.25 30.4 30.3 30.5 31.35 26.0 31.35 25.95 31.3 25.8 31.1 24.7 30.3 19.55 29.6 18.2 29.25 18.2 29.0 22.55 29.0 23.0 M30.2 23.5 L30.35 24.4 30.4 25.05 30.45 25.05 29.45 25.9 29.0 26.35 29.0 26.3 28.95 26.3 28.9 26.25 29.0 23.0 M30.2 23.5 L29.6 18.2 M30.45 25.05 L30.55 25.15 M31.3 25.8 L30.55 25.15 M30.25 30.25 L30.25 30.4 M28.95 26.3 L28.25 26.5 M29.0 26.35 L28.95 26.3 M30.25 30.25 L29.0 26.35 M30.35 25.35 L30.25 30.25" fill="none" stroke="#1b4d7e" stroke-linecap="round" stroke-linejoin="round" stroke-opacity="0.4" stroke-width="0.05"/>
      <path d="M28.8 17.1 L28.7 17.05 29.1 18.05 31.25 20.45 32.25 20.9 31.2 19.8 30.95 19.5 28.8 17.1 M32.7 22.05 L32.65 22.2 32.75 22.2 35.85 23.1 35.75 23.05 33.0 21.55 32.95 21.55 32.7 22.05" fill="#427973" fill-rule="evenodd" stroke="none"/>
      <path d="M31.25 20.45 L32.7 22.05 32.95 21.55 32.9 21.55 31.2 19.8 32.25 20.9 31.25 20.45 M29.0 16.9 L28.8 17.1 30.95 19.5 Q29.2 17.5 31.4 18.9 L32.15 19.45 29.0 16.9" fill="#56a098" fill-rule="evenodd" stroke="none"/>
      <path d="M30.95 19.5 L31.2 19.8 32.9 21.55 32.95 21.55 33.0 21.55 33.0 21.1 33.1 20.1 33.0 21.1 33.15 20.3 33.2 20.15 33.1 20.1 33.05 20.1 32.7 19.8 32.15 19.45 31.4 18.9 Q29.2 17.5 30.95 19.5" fill="#91cac8" fill-rule="evenodd" stroke="none"/>
      <path d="M35.85 23.1 L35.95 23.1 34.05 20.15 33.95 20.05 33.2 20.15 33.25 19.55 30.05 17.25 29.0 16.9 32.15 19.45 32.7 19.75 32.7 19.8 33.05 20.1 33.1 20.1 33.2 20.15 33.15 20.3 35.75 23.05 35.85 23.1" fill="#eafffb" fill-rule="evenodd" stroke="none"/>
      <path d="M33.0 21.1 L33.0 21.55 32.95 21.55 33.0 21.55 35.75 23.05 33.15 20.3 33.0 21.1" fill="#baded7" fill-rule="evenodd" stroke="none"/>
      <path d="M33.95 20.05 L33.25 19.55 33.2 20.15 33.95 20.05" fill="#ffffff" fill-rule="evenodd" stroke="none"/>
      <path d="M28.8 17.1 L28.7 17.05 29.1 18.05 31.25 20.45 32.7 22.05 32.65 22.2 32.75 22.2 35.85 23.1 35.95 23.1 34.05 20.15 33.95 20.05 33.25 19.55 30.05 17.25 29.0 16.9 28.8 17.1 30.95 19.5 31.2 19.8 M32.15 19.45 L32.7 19.8 33.05 20.1 33.1 20.1 33.0 21.1 33.0 21.55 32.95 21.55 32.9 21.55 31.2 19.8 M32.15 19.45 L29.0 16.9 M33.1 20.1 L33.2 20.15 M33.95 20.05 L33.2 20.15 M35.75 23.05 L35.85 23.1 M32.95 21.55 L32.7 22.05 M33.0 21.55 L32.95 21.55 M35.75 23.05 L33.0 21.55 M33.15 20.3 L35.75 23.05" fill="none" stroke="#1b4d7e" stroke-linecap="round" stroke-linejoin="round" stroke-opacity="0.4" stroke-width="0.05"/>
      <path d="M31.05 14.7 L31.05 14.75 31.65 14.85 33.4 14.5 33.95 14.1 33.05 14.3 32.9 14.3 31.05 14.7 M34.55 14.2 L34.65 14.25 34.65 14.2 36.0 12.95 35.95 13.0 34.45 13.9 34.4 13.95 34.55 14.2" fill="#427973" fill-rule="evenodd" stroke="none"/>
      <path d="M33.4 14.5 L34.55 14.2 34.4 13.95 33.05 14.3 33.95 14.1 33.4 14.5 M31.05 14.55 L31.05 14.7 32.9 14.3 Q31.35 14.6 32.75 13.95 L33.15 13.7 31.05 14.55" fill="#56a098" fill-rule="evenodd" stroke="none"/>
      <path d="M32.9 14.3 L33.05 14.3 34.4 13.95 34.45 13.9 34.2 13.8 33.75 13.45 34.2 13.8 33.9 13.5 33.8 13.4 33.75 13.45 33.75 13.5 33.5 13.55 33.15 13.7 32.75 13.95 Q31.35 14.6 32.9 14.3" fill="#91cac8" fill-rule="evenodd" stroke="none"/>
      <path d="M36.0 12.95 L36.0 12.9 34.05 13.0 34.0 13.05 33.8 13.4 33.55 13.25 31.55 14.15 31.05 14.55 33.15 13.7 33.5 13.55 33.75 13.5 33.75 13.45 33.8 13.4 33.9 13.5 35.95 13.0 36.0 12.95" fill="#eafffb" fill-rule="evenodd" stroke="none"/>
      <path d="M34.2 13.8 L34.45 13.9 34.4 13.95 34.45 13.9 35.95 13.0 33.9 13.5 34.2 13.8" fill="#baded7" fill-rule="evenodd" stroke="none"/>
      <path d="M34.0 13.05 L33.55 13.25 33.8 13.4 34.0 13.05" fill="#ffffff" fill-rule="evenodd" stroke="none"/>
      <path d="M31.05 14.7 L31.05 14.75 31.65 14.85 33.4 14.5 34.55 14.2 34.65 14.25 34.65 14.2 36.0 12.95 36.0 12.9 34.05 13.0 34.0 13.05 33.55 13.25 31.55 14.15 31.05 14.55 31.05 14.7 32.9 14.3 33.05 14.3 M33.15 13.7 L33.5 13.55 33.75 13.5 33.75 13.45 34.2 13.8 34.45 13.9 34.4 13.95 33.05 14.3 M33.15 13.7 L31.05 14.55 M33.75 13.45 L33.8 13.4 M34.0 13.05 L33.8 13.4 M35.95 13.0 L36.0 12.95 M34.4 13.95 L34.55 14.2 M34.45 13.9 L34.4 13.95 M35.95 13.0 L34.45 13.9 M33.9 13.5 L35.95 13.0" fill="none" stroke="#1b4d7e" stroke-linecap="round" stroke-linejoin="round" stroke-opacity="0.4" stroke-width="0.05"/>
      <path d="M28.4 14.8 L28.35 14.9 27.5 13.85 26.1 9.8 26.3 8.3 26.9 10.25 27.05 10.7 28.4 14.8 M25.25 7.1 L25.15 7.05 25.2 6.95 26.2 2.75 26.2 2.9 26.05 7.0 26.0 7.1 25.25 7.1" fill="#427973" fill-rule="evenodd" stroke="none"/>
      <path d="M26.1 9.8 L25.25 7.1 26.0 7.1 25.95 7.15 26.9 10.25 26.3 8.3 26.1 9.8 M28.75 14.7 L28.4 14.8 27.05 10.7 Q28.25 14.1 28.0 10.6 L27.95 9.45 28.75 14.7" fill="#56a098" fill-rule="evenodd" stroke="none"/>
      <path d="M27.05 10.7 L26.9 10.25 25.95 7.15 26.0 7.1 26.1 7.05 26.05 7.0 26.65 7.3 27.8 7.85 26.65 7.3 27.6 7.65 27.85 7.75 27.8 7.85 27.75 7.9 27.9 8.55 27.95 9.45 28.0 10.6 Q28.25 14.1 27.05 10.7" fill="#91cac8" fill-rule="evenodd" stroke="none"/>
      <path d="M26.2 2.75 L26.25 2.6 28.4 6.75 28.4 6.95 27.85 7.75 28.55 8.05 29.05 13.2 28.75 14.7 27.95 9.45 28.0 8.6 27.9 8.55 27.75 7.9 27.8 7.85 27.85 7.75 27.6 7.65 26.2 2.9 26.2 2.75" fill="#eafffb" fill-rule="evenodd" stroke="none"/>
      <path d="M26.65 7.3 L26.05 7.0 26.1 7.05 26.0 7.1 26.05 7.0 26.2 2.9 27.6 7.65 26.65 7.3" fill="#baded7" fill-rule="evenodd" stroke="none"/>
      <path d="M28.4 6.95 L28.55 8.05 27.85 7.75 28.4 6.95" fill="#ffffff" fill-rule="evenodd" stroke="none"/>
      <path d="M28.4 14.8 L28.35 14.9 27.5 13.85 26.1 9.8 25.25 7.1 25.15 7.05 25.2 6.95 26.2 2.75 26.25 2.6 28.4 6.75 28.4 6.95 28.55 8.05 29.05 13.2 28.75 14.7 28.4 14.8 27.05 10.7 26.9 10.25 M27.95 9.45 L27.9 8.55 27.75 7.9 27.8 7.85 26.65 7.3 26.05 7.0 26.1 7.05 26.0 7.1 25.95 7.15 26.9 10.25 M27.95 9.45 L28.75 14.7 M27.8 7.85 L27.85 7.75 M28.4 6.95 L27.85 7.75 M26.2 2.9 L26.2 2.75 M26.0 7.1 L25.25 7.1 M26.05 7.0 L26.0 7.1 M26.2 2.9 L26.05 7.0 M27.6 7.65 L26.2 2.9" fill="none" stroke="#1b4d7e" stroke-linecap="round" stroke-linejoin="round" stroke-opacity="0.4" stroke-width="0.05"/>
      <path d="M28.15 15.45 L28.15 15.6 26.95 14.85 24.2 11.6 23.8 10.1 25.1 11.75 25.4 12.1 28.15 15.45 M22.4 9.35 L22.3 9.35 22.3 9.25 21.75 5.05 21.75 5.15 23.1 9.1 23.1 9.15 22.4 9.35" fill="#427973" fill-rule="evenodd" stroke="none"/>
      <path d="M24.2 11.6 L22.4 9.35 23.1 9.15 23.1 9.2 25.1 11.75 23.8 10.1 24.2 11.6 M28.4 15.2 L28.15 15.45 25.4 12.1 Q27.75 14.8 26.25 11.75 L25.8 10.6 28.4 15.2" fill="#56a098" fill-rule="evenodd" stroke="none"/>
      <path d="M25.4 12.1 L25.1 11.75 23.1 9.2 23.1 9.15 23.15 9.1 23.1 9.1 23.75 9.1 25.05 9.2 23.75 9.1 24.75 9.0 25.05 9.05 25.05 9.2 25.0 9.25 25.35 9.8 25.8 10.6 26.25 11.75 Q27.75 14.8 25.4 12.1" fill="#91cac8" fill-rule="evenodd" stroke="none"/>
      <path d="M21.75 5.05 L21.7 4.9 25.2 7.95 25.2 8.0 25.3 8.15 25.05 9.05 24.75 9.0 21.75 5.15 21.75 5.05 M25.75 9.15 L28.15 13.7 28.4 15.2 25.8 10.6 25.45 9.8 25.35 9.8 25.0 9.25 25.05 9.2 25.05 9.05 25.75 9.15" fill="#eafffb" fill-rule="evenodd" stroke="none"/>
      <path d="M23.75 9.1 L23.1 9.1 23.15 9.1 23.1 9.15 23.1 9.1 21.75 5.15 24.75 9.0 23.75 9.1" fill="#baded7" fill-rule="evenodd" stroke="none"/>
      <path d="M25.3 8.15 L25.75 9.15 25.05 9.05 25.3 8.15" fill="#ffffff" fill-rule="evenodd" stroke="none"/>
      <path d="M28.15 15.45 L28.15 15.6 26.95 14.85 24.2 11.6 22.4 9.35 22.3 9.35 22.3 9.25 21.75 5.05 21.7 4.9 25.2 7.95 25.2 8.0 25.3 8.15 25.75 9.15 28.15 13.7 28.4 15.2 28.15 15.45 25.4 12.1 25.1 11.75 M25.8 10.6 L25.35 9.8 25.0 9.25 25.05 9.2 23.75 9.1 23.1 9.1 23.15 9.1 23.1 9.15 23.1 9.2 25.1 11.75 M25.8 10.6 L28.4 15.2 M25.05 9.2 L25.05 9.05 M25.3 8.15 L25.05 9.05 M21.75 5.15 L21.75 5.05 M23.1 9.1 L23.1 9.15 22.4 9.35 M21.75 5.15 L23.1 9.1 M24.75 9.0 L21.75 5.15" fill="none" stroke="#1b4d7e" stroke-linecap="round" stroke-linejoin="round" stroke-opacity="0.4" stroke-width="0.05"/>
      <path d="M26.8 16.05 L26.95 16.1 25.9 16.95 21.85 18.35 20.35 18.15 22.3 17.55 22.75 17.4 26.8 16.05 M19.15 19.2 L19.05 19.3 18.95 19.25 14.8 18.25 14.9 18.25 19.05 18.4 19.15 18.45 19.15 19.2" fill="#427973" fill-rule="evenodd" stroke="none"/>
      <path d="M21.85 18.35 L19.15 19.2 19.15 18.45 19.2 18.5 22.3 17.55 20.35 18.15 21.85 18.35 M26.75 15.7 L26.8 16.05 22.75 17.4 Q26.15 16.2 22.65 16.45 L21.45 16.5 26.75 15.7" fill="#56a098" fill-rule="evenodd" stroke="none"/>
      <path d="M22.75 17.4 L22.3 17.55 19.2 18.5 19.15 18.45 19.1 18.35 19.05 18.4 19.35 17.85 19.9 16.7 19.35 17.85 19.7 16.85 19.8 16.6 19.9 16.7 19.95 16.7 20.6 16.55 21.45 16.5 22.65 16.45 Q26.15 16.2 22.75 17.4" fill="#91cac8" fill-rule="evenodd" stroke="none"/>
      <path d="M14.8 18.25 L14.65 18.2 Q16.75 17.1 18.8 16.05 L19.0 16.05 19.8 16.6 19.7 16.85 14.9 18.25 14.8 18.25 M20.1 15.9 L25.25 15.4 26.75 15.7 21.45 16.5 20.6 16.5 20.6 16.55 19.95 16.7 19.9 16.7 19.8 16.6 20.1 15.9" fill="#eafffb" fill-rule="evenodd" stroke="none"/>
      <path d="M19.35 17.85 L19.05 18.4 19.1 18.35 19.15 18.45 19.05 18.4 14.9 18.25 19.7 16.85 19.35 17.85" fill="#baded7" fill-rule="evenodd" stroke="none"/>
      <path d="M19.0 16.05 L20.1 15.9 19.8 16.6 19.0 16.05" fill="#ffffff" fill-rule="evenodd" stroke="none"/>
      <path d="M26.8 16.05 L26.95 16.1 25.9 16.95 21.85 18.35 19.15 19.2 19.05 19.3 18.95 19.25 14.8 18.25 14.65 18.2 Q16.75 17.1 18.8 16.05 L19.0 16.05 20.1 15.9 25.25 15.4 26.75 15.7 26.8 16.05 22.75 17.4 22.3 17.55 M21.45 16.5 L20.6 16.55 19.95 16.7 19.9 16.7 19.35 17.85 19.05 18.4 19.1 18.35 19.15 18.45 19.2 18.5 22.3 17.55 M21.45 16.5 L26.75 15.7 M19.9 16.7 L19.8 16.6 M19.0 16.05 L19.8 16.6 M14.9 18.25 L14.8 18.25 M19.05 18.4 L19.15 18.45 19.15 19.2 M14.9 18.25 L19.05 18.4 M19.7 16.85 L14.9 18.25" fill="none" stroke="#1b4d7e" stroke-linecap="round" stroke-linejoin="round" stroke-opacity="0.4" stroke-width="0.05"/>
      <path d="M28.05 16.3 L28.15 16.45 27.05 16.3 24.15 14.85 23.45 13.95 24.8 14.7 25.2 14.85 28.05 16.3 M22.25 13.9 L22.15 13.9 22.15 13.85 20.45 11.05 20.5 11.1 22.65 13.45 22.65 13.5 22.25 13.9" fill="#427973" fill-rule="evenodd" stroke="none"/>
      <path d="M24.15 14.85 L22.25 13.9 22.65 13.5 22.65 13.55 24.8 14.7 23.45 13.95 24.15 14.85 M28.2 16.05 L28.05 16.3 25.2 14.85 Q27.6 16.05 25.65 14.35 L24.95 13.7 28.2 16.05" fill="#56a098" fill-rule="evenodd" stroke="none"/>
      <path d="M25.2 14.85 L24.8 14.7 22.65 13.55 22.65 13.5 22.7 13.45 22.65 13.45 23.1 13.25 24.05 12.95 23.1 13.25 23.8 12.9 23.95 12.85 24.05 12.95 24.05 13.0 24.45 13.25 24.95 13.7 25.65 14.35 Q27.6 16.05 25.2 14.85" fill="#91cac8" fill-rule="evenodd" stroke="none"/>
      <path d="M20.45 11.05 L20.45 11.0 23.75 12.05 23.85 12.1 23.95 12.85 23.8 12.9 20.5 11.1 20.45 11.05 M24.5 12.7 L27.55 15.15 28.2 16.05 24.95 13.7 24.5 13.25 24.45 13.25 24.05 13.0 24.05 12.95 23.95 12.85 24.5 12.7" fill="#eafffb" fill-rule="evenodd" stroke="none"/>
      <path d="M23.1 13.25 L22.65 13.45 22.7 13.45 22.65 13.5 22.65 13.45 20.5 11.1 23.8 12.9 23.1 13.25" fill="#baded7" fill-rule="evenodd" stroke="none"/>
      <path d="M23.85 12.1 L24.5 12.7 23.95 12.85 23.85 12.1" fill="#ffffff" fill-rule="evenodd" stroke="none"/>
      <path d="M28.05 16.3 L28.15 16.45 27.05 16.3 24.15 14.85 22.25 13.9 22.15 13.9 22.15 13.85 20.45 11.05 20.45 11.0 23.75 12.05 23.85 12.1 24.5 12.7 27.55 15.15 28.2 16.05 28.05 16.3 25.2 14.85 24.8 14.7 M24.95 13.7 L24.45 13.25 24.05 13.0 24.05 12.95 23.1 13.25 22.65 13.45 22.7 13.45 22.65 13.5 22.65 13.55 24.8 14.7 M24.95 13.7 L28.2 16.05 M24.05 12.95 L23.95 12.85 M23.85 12.1 L23.95 12.85 M20.5 11.1 L20.45 11.05 M22.65 13.45 L22.65 13.5 22.25 13.9 M20.5 11.1 L22.65 13.45 M23.8 12.9 L20.5 11.1" fill="none" stroke="#1b4d7e" stroke-linecap="round" stroke-linejoin="round" stroke-opacity="0.4" stroke-width="0.05"/>
      <path d="M29.75 13.4 L29.7 13.45 29.45 12.9 29.35 11.1 29.6 10.5 29.65 11.4 29.65 11.55 29.75 13.4 M29.3 9.9 L29.25 9.85 29.25 9.8 30.15 8.25 30.1 8.25 29.6 9.95 29.3 9.9" fill="#427973" fill-rule="evenodd" stroke="none"/>
      <path d="M29.35 11.1 L29.3 9.9 29.6 9.95 29.55 10.0 29.65 11.4 29.6 10.5 29.35 11.1 M29.9 13.4 L29.75 13.4 29.65 11.55 Q29.75 13.1 30.0 11.65 L30.15 11.15 29.9 13.4" fill="#56a098" fill-rule="evenodd" stroke="none"/>
      <path d="M29.65 11.55 L29.65 11.4 29.55 10.0 29.6 9.95 29.6 10.0 29.6 9.95 29.85 10.1 30.2 10.5 29.85 10.1 30.2 10.4 30.25 10.45 30.2 10.5 30.2 10.75 30.15 11.15 30.0 11.65 Q29.75 13.1 29.65 11.55" fill="#91cac8" fill-rule="evenodd" stroke="none"/>
      <path d="M30.15 8.25 L30.2 8.2 30.6 10.1 30.6 10.2 30.25 10.45 30.2 10.4 30.1 8.25 30.15 8.25 M30.5 10.65 L30.15 12.85 29.9 13.4 30.15 11.15 30.25 10.8 30.2 10.75 30.2 10.5 30.25 10.45 30.5 10.65" fill="#eafffb" fill-rule="evenodd" stroke="none"/>
      <path d="M29.85 10.1 L29.6 9.95 29.6 10.0 29.6 9.95 30.1 8.25 30.2 10.4 29.85 10.1" fill="#baded7" fill-rule="evenodd" stroke="none"/>
      <path d="M30.6 10.2 L30.5 10.65 30.25 10.45 30.6 10.2" fill="#ffffff" fill-rule="evenodd" stroke="none"/>
      <path d="M29.75 13.4 L29.7 13.45 29.45 12.9 29.35 11.1 29.3 9.9 29.25 9.85 29.25 9.8 30.15 8.25 30.2 8.2 30.6 10.1 30.6 10.2 30.5 10.65 30.15 12.85 29.9 13.4 29.75 13.4 29.65 11.55 29.65 11.4 M30.15 11.15 L30.2 10.75 30.2 10.5 29.85 10.1 29.6 9.95 29.6 10.0 29.6 9.95 29.55 10.0 29.65 11.4 M30.15 11.15 L29.9 13.4 M30.2 10.5 L30.25 10.45 M30.6 10.2 L30.25 10.45 M30.1 8.25 L30.15 8.25 M29.6 9.95 L29.3 9.9 M30.1 8.25 L29.6 9.95 M30.2 10.4 L30.1 8.25" fill="none" stroke="#1b4d7e" stroke-linecap="round" stroke-linejoin="round" stroke-opacity="0.4" stroke-width="0.05"/>
      <path d="M11.15 32.65 L8.75 36.25 9.25 36.1 11.35 35.7 8.25 37.0 7.05 36.85 11.15 32.65 M14.35 31.3 L17.75 27.4 19.75 25.2 21.6 24.7 26.1 21.3 25.45 22.35 22.25 25.3 20.05 26.0 13.55 32.65 12.5 33.4 14.1 31.55 14.35 31.3" fill="#82a4cc" fill-rule="evenodd" stroke="none"/>
      <path d="M9.25 36.1 L8.75 36.25 11.15 32.65 12.8 30.15 14.55 29.2 17.75 27.4 14.35 31.3 13.0 31.5 12.9 31.6 9.25 36.1 M12.75 33.35 L12.5 33.4 13.55 32.65 14.6 31.85 16.5 31.25 13.65 34.1 14.25 32.85 12.75 33.35 M18.4 30.65 L17.6 29.65 20.55 27.35 18.4 30.65 M21.6 24.7 L21.15 23.1 19.25 23.05 20.85 22.05 21.8 21.55 Q23.1 20.75 24.4 20.05 L22.25 23.65 24.4 20.05 25.0 19.7 27.0 18.6 27.95 18.05 27.25 19.25 27.3 21.8 26.65 20.25 26.5 20.55 26.1 21.3 25.4 20.45 22.25 23.65 21.6 24.7 M22.8 19.3 L26.25 18.55 27.0 18.6 25.0 19.7 22.8 19.3 M26.65 20.25 L27.25 19.25 26.65 20.25" fill="#5f83be" fill-rule="evenodd" stroke="none"/>
      <path d="M7.05 36.85 L8.25 37.0 11.35 35.7 10.3 36.45 4.05 41.15 7.05 36.85 M7.1 37.15 L8.1 37.3 10.3 36.45 8.1 37.3 7.1 37.15" fill="url(#gradient11)" fill-rule="evenodd" stroke="none"/>
      <path d="M11.35 35.7 L9.25 36.1 12.9 31.6 13.1 31.6 14.1 31.55 12.5 33.4 12.75 33.35 13.95 33.15 13.55 34.25 12.35 35.45 11.35 35.7 M9.75 35.8 L13.1 31.6 9.75 35.8" fill="url(#gradient12)" fill-rule="evenodd" stroke="none"/>
      <path d="M12.9 31.6 L13.0 31.5 14.35 31.3 14.1 31.55 13.1 31.6 12.9 31.6 M12.75 33.35 L14.25 32.85 13.65 34.1 13.55 34.25 13.95 33.15 12.75 33.35 M14.6 31.85 L13.55 32.65 20.05 26.0 22.25 25.3 25.45 22.35 24.85 23.35 22.35 25.55 20.15 26.15 14.6 31.85 M17.45 29.7 L17.6 29.65 18.4 30.65 18.2 30.65 17.45 29.7 M26.1 21.3 L21.6 24.7 22.25 23.65 25.4 20.45 26.1 21.3 M22.65 23.65 L25.35 20.9 25.7 21.25 25.35 20.9 22.65 23.65" fill="#b6e9fb" fill-rule="evenodd" stroke="none"/>
      <path d="M16.5 31.25 L14.6 31.85 17.45 29.7 18.2 30.65 16.5 31.25" fill="url(#gradient13)" fill-rule="evenodd" stroke="none"/>
      <path d="M17.6 29.65 L17.45 29.7 14.6 31.85 20.15 26.15 22.35 25.55 24.85 23.35 24.0 24.75 20.55 27.35 17.6 29.65" fill="url(#gradient14)" fill-rule="evenodd" stroke="none"/>
      <path d="M17.75 27.4 L14.55 29.2 19.25 23.05 21.15 23.1 21.6 24.7 19.75 25.2 17.75 27.4 M19.4 23.4 L21.0 23.4 21.4 24.55 21.0 23.4 19.4 23.4 M17.65 27.2 L15.2 28.65 17.65 27.2" fill="url(#gradient15)" fill-rule="evenodd" stroke="none"/>
      <path d="M21.8 21.55 L20.85 22.05 22.8 19.3 25.0 19.7 24.4 20.05 Q23.1 20.75 21.8 21.55 L24.35 19.8 23.1 19.65 24.35 19.8 21.8 21.55" fill="url(#gradient16)" fill-rule="evenodd" stroke="none"/>
      <path d="M25.45 22.35 L26.1 21.3 26.5 20.55 26.65 20.25 27.3 21.8 24.85 23.35 25.45 22.35 M27.05 21.7 L26.5 20.55 27.05 21.7" fill="url(#gradient17)" fill-rule="evenodd" stroke="none"/>
      <path d="M9.25 36.1 L8.75 36.25 11.15 32.65 7.05 36.85 M11.35 35.7 L9.25 36.1 M14.35 31.3 L17.75 27.4 14.55 29.2 12.8 30.15 11.15 32.65 M11.35 35.7 L10.3 36.45 4.05 41.15 7.05 36.85 M13.65 34.1 L16.5 31.25 14.6 31.85 13.55 32.65 12.5 33.4 14.1 31.55 14.35 31.3 M11.35 35.7 L12.35 35.45 13.55 34.25 M13.65 34.1 L13.55 34.25 M17.6 29.65 L17.45 29.7 M18.2 30.65 L18.4 30.65 M17.6 29.65 L20.55 27.35 24.0 24.75 24.85 23.35 25.45 22.35 26.1 21.3 21.6 24.7 19.75 25.2 17.75 27.4 M14.6 31.85 L17.45 29.7 M20.55 27.35 L18.4 30.65 M19.25 23.05 L14.55 29.2 M22.25 23.65 L21.6 24.7 M20.85 22.05 L21.8 21.55 M19.25 23.05 L20.85 22.05 22.8 19.3 26.25 18.55 27.0 18.6 27.95 18.05 27.25 19.25 27.3 21.8 24.85 23.35 M18.2 30.65 L16.5 31.25 M26.65 20.25 L26.5 20.55 26.1 21.3 M22.25 23.65 L24.4 20.05 Q23.1 20.75 21.8 21.55 M25.0 19.7 L24.4 20.05 M27.25 19.25 L26.65 20.25 M25.0 19.7 L27.0 18.6" fill="none" stroke="#000000" stroke-linecap="round" stroke-linejoin="round" stroke-opacity="0.2509804" stroke-width="0.05"/>
      <path d="M10.3 36.45 L8.1 37.3 7.1 37.15 M14.1 31.55 L13.1 31.6 9.75 35.8 M13.55 34.25 L13.95 33.15 12.75 33.35 M12.9 31.6 L13.1 31.6 M17.45 29.7 L18.2 30.65 M24.85 23.35 L22.35 25.55 20.15 26.15 14.6 31.85 M21.4 24.55 L21.0 23.4 19.4 23.4 M21.8 21.55 L24.35 19.8 23.1 19.65 M15.2 28.65 L17.65 27.2 M26.5 20.55 L27.05 21.7 M25.7 21.25 L25.35 20.9 22.65 23.65" fill="none" stroke="#ffffff" stroke-linecap="round" stroke-linejoin="round" stroke-width="0.05"/>
      <path d="M13.85 27.85 Q14.45 27.2 15.35 27.2 16.3 27.2 16.95 27.85 17.55 28.45 17.6 29.35 17.6 30.25 17.0 30.9 16.35 31.55 15.45 31.55 14.5 31.6 13.9 31.0 13.25 30.35 13.2 29.4 13.2 28.5 13.85 27.85" fill="url(#gradient18)" fill-rule="evenodd" stroke="none"/>
      <path d="M24.0 14.6 L28.5 16.6 27.4 21.25 29.3 16.8 34.2 17.8 29.7 15.95 30.6 10.65 28.75 15.6 24.0 14.6" fill="#9ff7f7" fill-rule="evenodd" stroke="none"/>
      <path d="M26.7 15.0 Q26.15 16.0 26.4 17.1 26.7 18.2 27.65 18.75 28.65 19.35 29.75 19.05 30.9 18.75 31.45 17.75 32.0 16.75 31.7 15.65 31.4 14.55 30.4 13.95 29.45 13.4 28.35 13.7 27.25 14.0 26.7 15.0" fill="url(#gradient19)" fill-rule="evenodd" stroke="none"/>
      <path d="M36.25 15.4 L29.65 15.8 27.65 8.85 28.3 15.95 21.85 17.65 28.55 17.3 30.05 23.65 29.7 17.1 36.25 15.4" fill="#f7f7f7" fill-opacity="0.8235294" fill-rule="evenodd" stroke="none"/>
      <path d="M36.25 15.4 L29.65 15.8 27.65 8.85 28.3 15.95 21.85 17.65 28.55 17.3 30.05 23.65 29.7 17.1 36.25 15.4 Z" fill="none" stroke="#9ff7f7" stroke-linecap="round" stroke-linejoin="round" stroke-width="0.05"/>
      <path d="M25.3 20.1 L25.3 18.45 25.25 16.75 26.55 18.85 25.3 20.1" fill="#7096c5" fill-rule="evenodd" stroke="none"/>
      <path d="M24.15 18.65 L25.3 18.45 25.3 20.1 23.65 21.8 22.95 18.8 24.15 18.65 M23.75 21.55 L23.15 18.95 23.75 21.55" fill="url(#gradient20)" fill-rule="evenodd" stroke="none"/>
      <path d="M25.25 16.75 L28.8 16.5 26.55 18.85 25.25 16.75 M26.6 18.6 L25.55 16.9 26.6 18.6" fill="url(#gradient21)" fill-rule="evenodd" stroke="none"/>
      <path d="M24.15 18.65 L22.95 18.8 22.1 20.6 20.05 18.25 23.65 17.6 24.15 18.65 M22.0 20.25 L20.35 18.5 22.0 20.25" fill="url(#gradient22)" fill-rule="evenodd" stroke="none"/>
      <path d="M20.05 18.25 L22.1 20.6 20.05 24.7 20.05 23.1 20.05 18.25" fill="#5f83be" fill-rule="evenodd" stroke="none"/>
      <path d="M20.05 23.1 L20.05 24.7 19.7 25.45 18.65 23.65 Q19.3 23.35 20.05 23.1 M19.7 25.2 L18.85 23.75 19.7 25.2" fill="url(#gradient23)" fill-rule="evenodd" stroke="none"/>
      <path d="M22.95 18.8 L23.65 21.8 19.3 26.2 19.7 25.45 20.05 24.7 22.1 20.6 22.95 18.8" fill="#82a4cc" fill-rule="evenodd" stroke="none"/>
      <path d="M19.3 26.2 L18.45 27.1 18.25 26.7 18.65 23.65 19.7 25.45 19.3 26.2" fill="#608abd" fill-rule="evenodd" stroke="none"/>
      <path d="M25.3 18.45 L24.15 18.65 22.95 18.8 M23.65 21.8 L25.3 20.1 25.3 18.45 25.25 16.75 28.8 16.5 26.55 18.85 25.3 20.1 M24.15 18.65 L23.65 17.6 20.05 18.25 M22.1 20.6 L22.95 18.8 M20.05 23.1 L20.05 24.7 22.1 20.6 M18.65 23.65 L18.25 26.7 18.45 27.1 19.3 26.2 19.7 25.45 M18.65 23.65 Q19.3 23.35 20.05 23.1 L20.05 18.25 M20.05 24.7 L19.7 25.45 M19.3 26.2 L23.65 21.8" fill="none" stroke="#000000" stroke-linecap="round" stroke-linejoin="round" stroke-opacity="0.2627451" stroke-width="0.05"/>
      <path d="M25.55 16.9 L26.6 18.6 M18.85 23.75 L19.7 25.2 M20.35 18.5 L22.0 20.25 M23.15 18.95 L23.75 21.55" fill="none" stroke="#ffffff" stroke-linecap="round" stroke-linejoin="round" stroke-width="0.05"/>
      <path d="M26.65 18.85 L25.4 20.1 27.1 20.05 28.75 20.05 26.65 18.85" fill="#7096c5" fill-rule="evenodd" stroke="none"/>
      <path d="M27.1 20.05 L25.4 20.1 23.75 21.8 26.75 22.4 26.95 21.25 27.1 20.05 M24.05 21.65 L26.65 22.25 24.05 21.65" fill="url(#gradient24)" fill-rule="evenodd" stroke="none"/>
      <path d="M26.9 18.8 Q27.75 19.25 28.65 19.8 27.75 19.25 26.9 18.8 M26.65 18.85 L28.75 20.05 28.9 16.5 26.65 18.85" fill="url(#gradient25)" fill-rule="evenodd" stroke="none"/>
      <path d="M27.35 25.35 L27.95 21.7 26.95 21.25 26.75 22.4 25.0 23.3 27.35 25.35 M25.3 23.35 L27.15 25.0 25.3 23.35" fill="url(#gradient26)" fill-rule="evenodd" stroke="none"/>
      <path d="M22.55 25.4 L27.35 25.35 25.0 23.3 20.95 25.4 22.55 25.4" fill="#5f83be" fill-rule="evenodd" stroke="none"/>
      <path d="M22.05 26.85 L22.55 25.4 20.95 25.4 20.2 25.85 22.05 26.85 M20.4 25.8 L21.95 26.65 20.4 25.8" fill="url(#gradient27)" fill-rule="evenodd" stroke="none"/>
      <path d="M23.75 21.8 L19.4 26.2 20.2 25.85 20.95 25.4 25.0 23.3 26.75 22.4 23.75 21.8" fill="#82a4cc" fill-rule="evenodd" stroke="none"/>
      <path d="M19.4 26.2 L18.55 27.1 18.95 27.3 22.05 26.85 20.2 25.85 19.4 26.2" fill="#608abd" fill-rule="evenodd" stroke="none"/>
      <path d="M25.4 20.1 L26.65 18.85 28.9 16.5 28.75 20.05 27.1 20.05 25.4 20.1 23.75 21.8 19.4 26.2 18.55 27.1 18.95 27.3 22.05 26.85 22.55 25.4 27.35 25.35 27.95 21.7 26.95 21.25 27.1 20.05 M22.55 25.4 L20.95 25.4 25.0 23.3 M20.2 25.85 L19.4 26.2 M20.95 25.4 L20.2 25.85 M26.75 22.4 L25.0 23.3 M26.75 22.4 L26.95 21.25" fill="none" stroke="#000000" stroke-linecap="round" stroke-linejoin="round" stroke-opacity="0.2627451" stroke-width="0.05"/>
      <path d="M28.65 19.8 Q27.75 19.25 26.9 18.8 M26.65 22.25 L24.05 21.65 M27.15 25.0 L25.3 23.35 M21.95 26.65 L20.4 25.8" fill="none" stroke="#ffffff" stroke-linecap="round" stroke-linejoin="round" stroke-width="0.05"/>
      <path d="M26.55 22.95 L26.65 22.95 26.45 24.2 24.5 26.7 23.4 26.95 24.35 25.75 24.6 25.5 26.55 22.95 M23.2 28.4 L23.25 28.5 23.15 28.5 19.75 28.5 19.85 28.45 22.75 27.55 22.8 27.55 23.2 28.4" fill="#427973" fill-rule="evenodd" stroke="none"/>
      <path d="M24.5 26.7 L23.2 28.4 22.8 27.55 22.85 27.6 24.35 25.75 23.4 26.95 24.5 26.7 M26.25 22.6 L26.55 22.95 24.6 25.5 Q26.15 23.35 24.0 24.5 L23.2 24.9 26.25 22.6" fill="#56a098" fill-rule="evenodd" stroke="none"/>
      <path d="M24.6 25.5 L24.35 25.75 22.85 27.6 22.8 27.55 22.75 27.55 22.55 26.85 22.25 25.5 22.55 26.85 22.2 25.75 22.15 25.45 22.25 25.5 22.3 25.5 22.65 25.25 23.2 24.9 24.0 24.5 Q26.15 23.35 24.6 25.5" fill="#91cac8" fill-rule="evenodd" stroke="none"/>
      <path d="M19.75 28.5 L19.65 28.5 21.15 25.15 21.2 25.15 21.25 25.05 22.15 25.45 22.2 25.75 19.85 28.45 19.75 28.5 M21.95 24.65 L25.1 22.7 26.25 22.6 23.2 24.9 22.65 25.1 22.65 25.25 22.3 25.5 22.25 25.5 22.15 25.45 21.95 24.65" fill="#eafffb" fill-rule="evenodd" stroke="none"/>
      <path d="M22.55 26.85 L22.75 27.55 22.8 27.55 22.75 27.55 19.85 28.45 22.2 25.75 22.55 26.85" fill="#baded7" fill-rule="evenodd" stroke="none"/>
      <path d="M21.25 25.05 L21.95 24.65 22.15 25.45 21.25 25.05" fill="#ffffff" fill-rule="evenodd" stroke="none"/>
      <path d="M26.55 22.95 L26.65 22.95 26.45 24.2 24.5 26.7 23.2 28.4 23.25 28.5 23.15 28.5 19.75 28.5 19.65 28.5 21.15 25.15 21.2 25.15 21.25 25.05 21.95 24.65 25.1 22.7 26.25 22.6 26.55 22.95 24.6 25.5 24.35 25.75 M23.2 24.9 L22.65 25.25 22.3 25.5 22.25 25.5 22.55 26.85 22.75 27.55 22.8 27.55 22.85 27.6 24.35 25.75 M23.2 24.9 L26.25 22.6 M22.25 25.5 L22.15 25.45 M21.25 25.05 L22.15 25.45 M19.85 28.45 L19.75 28.5 M22.75 27.55 L22.8 27.55 23.2 28.4 M19.85 28.45 L22.75 27.55 M22.2 25.75 L19.85 28.45" fill="none" stroke="#1b4d7e" stroke-linecap="round" stroke-linejoin="round" stroke-opacity="0.4" stroke-width="0.05"/>
      <path d="M21.75 18.9 L21.9 18.9 21.95 20.15 20.8 23.1 19.75 23.65 20.4 22.25 20.55 21.9 21.75 18.9 M19.9 25.1 L20.0 25.25 19.9 25.25 16.7 26.15 16.75 26.1 19.25 24.4 19.35 24.4 19.9 25.1" fill="#427973" fill-rule="evenodd" stroke="none"/>
      <path d="M20.8 23.1 L19.9 25.1 19.35 24.4 19.4 24.4 20.4 22.25 19.75 23.65 20.8 23.1 M21.4 18.65 L21.75 18.9 20.55 21.9 Q21.5 19.4 19.7 21.1 L19.05 21.65 21.4 18.65" fill="#56a098" fill-rule="evenodd" stroke="none"/>
      <path d="M20.55 21.9 L20.4 22.25 19.4 24.4 19.35 24.4 19.25 24.4 18.95 23.8 18.35 22.5 18.95 23.8 18.3 22.75 18.2 22.55 18.35 22.5 18.65 22.2 19.05 21.65 19.7 21.1 Q21.5 19.4 20.55 21.9" fill="#91cac8" fill-rule="evenodd" stroke="none"/>
      <path d="M16.7 26.15 L16.55 26.2 17.15 22.45 17.2 22.45 17.25 22.35 18.2 22.55 17.85 21.75 20.35 19.05 21.4 18.65 19.05 21.65 18.55 22.05 18.65 22.2 18.35 22.5 18.2 22.55 18.3 22.75 16.75 26.1 16.7 26.15" fill="#eafffb" fill-rule="evenodd" stroke="none"/>
      <path d="M18.95 23.8 L19.25 24.4 19.35 24.4 19.25 24.4 16.75 26.1 18.3 22.75 18.95 23.8" fill="#baded7" fill-rule="evenodd" stroke="none"/>
      <path d="M17.25 22.35 L17.85 21.75 18.2 22.55 17.25 22.35" fill="#ffffff" fill-rule="evenodd" stroke="none"/>
      <path d="M21.75 18.9 L21.9 18.9 21.95 20.15 20.8 23.1 19.9 25.1 20.0 25.25 19.9 25.25 16.7 26.15 16.55 26.2 17.15 22.45 17.2 22.45 17.25 22.35 17.85 21.75 20.35 19.05 21.4 18.65 21.75 18.9 20.55 21.9 20.4 22.25 M19.05 21.65 L18.65 22.2 18.35 22.5 18.95 23.8 19.25 24.4 19.35 24.4 19.4 24.4 20.4 22.25 M19.05 21.65 L21.4 18.65 M18.35 22.5 L18.2 22.55 M17.25 22.35 L18.2 22.55 M16.75 26.1 L16.7 26.15 M19.35 24.4 L19.9 25.1 M19.25 24.4 L19.35 24.4 M16.75 26.1 L19.25 24.4 M18.3 22.75 L16.75 26.1" fill="none" stroke="#1b4d7e" stroke-linecap="round" stroke-linejoin="round" stroke-opacity="0.4" stroke-width="0.05"/>
      <path d="M19.6 25.3 L19.7 25.4 20.7 24.8 22.35 21.9 22.25 20.65 21.5 22.1 21.3 22.4 19.6 25.3 M23.45 20.0 L23.6 20.0 23.55 19.9 22.6 16.25 22.55 16.35 22.6 19.75 22.65 19.8 23.45 20.0" fill="#427973" fill-rule="evenodd" stroke="none"/>
      <path d="M22.35 21.9 L23.45 20.0 22.65 19.8 22.7 19.85 21.5 22.1 22.25 20.65 22.35 21.9 M19.25 25.1 L19.6 25.3 21.3 22.4 Q19.85 24.75 20.25 22.05 L20.35 21.1 19.25 25.1" fill="#56a098" fill-rule="evenodd" stroke="none"/>
      <path d="M21.3 22.4 L21.5 22.1 22.7 19.85 22.65 19.8 22.55 19.75 22.6 19.75 21.9 19.8 20.6 19.9 21.9 19.8 20.85 19.75 20.55 19.8 20.6 19.9 20.65 19.95 20.45 20.4 20.35 21.1 20.25 22.05 Q19.85 24.75 21.3 22.4" fill="#91cac8" fill-rule="evenodd" stroke="none"/>
      <path d="M22.6 16.25 L22.5 16.15 19.95 18.85 20.0 18.85 19.95 19.0 20.55 19.8 20.85 19.75 22.55 16.35 22.6 16.25 M19.8 19.8 L19.0 23.85 19.25 25.1 20.35 21.1 20.4 20.4 20.45 20.4 20.65 19.95 20.6 19.9 20.55 19.8 19.8 19.8" fill="#eafffb" fill-rule="evenodd" stroke="none"/>
      <path d="M21.9 19.8 L22.6 19.75 22.55 19.75 22.65 19.8 22.6 19.75 22.55 16.35 20.85 19.75 21.9 19.8" fill="#baded7" fill-rule="evenodd" stroke="none"/>
      <path d="M19.95 19.0 L19.8 19.8 20.55 19.8 19.95 19.0" fill="#ffffff" fill-rule="evenodd" stroke="none"/>
      <path d="M19.6 25.3 L19.7 25.4 20.7 24.8 22.35 21.9 23.45 20.0 23.6 20.0 23.55 19.9 22.6 16.25 22.5 16.15 19.95 18.85 20.0 18.85 19.95 19.0 19.8 19.8 19.0 23.85 19.25 25.1 19.6 25.3 21.3 22.4 21.5 22.1 M20.35 21.1 L20.45 20.4 20.65 19.95 20.6 19.9 21.9 19.8 22.6 19.75 22.55 19.75 22.65 19.8 22.7 19.85 21.5 22.1 M20.35 21.1 L19.25 25.1 M20.6 19.9 L20.55 19.8 M19.95 19.0 L20.55 19.8 M22.55 16.35 L22.6 16.25 M22.6 19.75 L22.65 19.8 23.45 20.0 M22.55 16.35 L22.6 19.75 M20.85 19.75 L22.55 16.35" fill="none" stroke="#1b4d7e" stroke-linecap="round" stroke-linejoin="round" stroke-opacity="0.4" stroke-width="0.05"/>
      <path d="M20.75 26.0 L20.65 26.1 21.75 26.5 25.05 26.1 26.0 25.25 24.45 25.5 24.05 25.55 20.75 26.0 M27.25 25.8 L27.4 25.9 27.4 25.85 29.65 22.85 29.65 22.9 26.95 24.95 26.95 25.05 27.25 25.8" fill="#427973" fill-rule="evenodd" stroke="none"/>
      <path d="M25.05 26.1 L27.25 25.8 26.95 25.05 26.9 25.1 24.45 25.5 26.0 25.25 25.05 26.1 M20.65 25.55 L20.75 26.0 24.05 25.55 Q21.25 25.8 23.65 24.5 L24.5 24.05 Q22.55 24.75 20.65 25.55" fill="#56a098" fill-rule="evenodd" stroke="none"/>
      <path d="M24.05 25.55 L24.45 25.5 26.9 25.1 26.95 25.05 26.9 24.95 26.95 24.95 26.5 24.45 25.6 23.5 26.5 24.45 25.85 23.55 25.65 23.35 25.6 23.5 25.6 23.55 25.1 23.7 24.5 24.05 23.65 24.5 Q21.25 25.8 24.05 25.55" fill="#91cac8" fill-rule="evenodd" stroke="none"/>
      <path d="M29.65 22.85 L29.75 22.7 26.1 22.3 26.05 22.35 25.95 22.4 25.65 23.35 25.15 22.75 21.5 24.55 20.65 25.55 Q22.55 24.75 24.5 24.05 L25.05 23.6 25.1 23.7 25.6 23.55 25.6 23.5 25.65 23.35 25.85 23.55 29.65 22.9 29.65 22.85" fill="#eafffb" fill-rule="evenodd" stroke="none"/>
      <path d="M26.5 24.45 L26.95 24.95 26.9 24.95 26.95 25.05 26.95 24.95 29.65 22.9 25.85 23.55 26.5 24.45" fill="#baded7" fill-rule="evenodd" stroke="none"/>
      <path d="M25.95 22.4 L25.15 22.75 25.65 23.35 25.95 22.4" fill="#ffffff" fill-rule="evenodd" stroke="none"/>
      <path d="M20.75 26.0 L20.65 26.1 21.75 26.5 25.05 26.1 27.25 25.8 27.4 25.9 27.4 25.85 29.65 22.85 29.75 22.7 26.1 22.3 26.05 22.35 25.95 22.4 25.15 22.75 21.5 24.55 20.65 25.55 20.75 26.0 24.05 25.55 24.45 25.5 M25.1 23.7 L25.6 23.55 25.6 23.5 26.5 24.45 26.95 24.95 26.9 24.95 26.95 25.05 26.9 25.1 24.45 25.5 M24.5 24.05 Q22.55 24.75 20.65 25.55 M24.5 24.05 L25.1 23.7 M25.6 23.5 L25.65 23.35 M25.95 22.4 L25.65 23.35 M29.65 22.9 L29.65 22.85 M26.95 25.05 L27.25 25.8 M26.95 24.95 L26.95 25.05 M29.65 22.9 L26.95 24.95 M25.85 23.55 L29.65 22.9" fill="none" stroke="#1b4d7e" stroke-linecap="round" stroke-linejoin="round" stroke-opacity="0.4" stroke-width="0.05"/>
      <path d="M19.25 26.25 L19.2 26.4 20.65 26.1 23.95 23.75 24.55 22.35 22.95 23.55 22.6 23.85 19.25 26.25 M26.15 22.15 L26.3 22.15 26.3 22.05 27.2 17.75 27.15 17.85 25.35 21.45 25.35 21.55 26.15 22.15" fill="#427973" fill-rule="evenodd" stroke="none"/>
      <path d="M23.95 23.75 L26.15 22.15 25.35 21.55 25.4 21.65 22.95 23.55 24.55 22.35 23.95 23.75 M18.9 25.85 L19.25 26.25 22.6 23.85 Q19.75 25.75 21.6 23.0 L22.25 22.05 18.9 25.85" fill="#56a098" fill-rule="evenodd" stroke="none"/>
      <path d="M22.6 23.85 L22.95 23.55 25.4 21.65 25.35 21.55 25.35 21.45 24.6 21.25 23.15 20.85 24.6 21.25 23.4 20.75 23.15 20.7 23.15 20.85 23.2 20.9 22.75 21.35 22.25 22.05 21.6 23.0 Q19.75 25.75 22.6 23.85" fill="#91cac8" fill-rule="evenodd" stroke="none"/>
      <path d="M27.2 17.75 L27.2 17.6 23.05 19.45 23.05 19.5 22.9 19.6 23.15 20.7 23.4 20.75 27.15 17.85 27.2 17.75 M22.3 20.4 L19.3 24.35 18.9 25.85 22.25 22.05 22.65 21.3 22.75 21.35 23.2 20.9 23.15 20.85 23.15 20.7 22.3 20.4" fill="#eafffb" fill-rule="evenodd" stroke="none"/>
      <path d="M24.6 21.25 L25.35 21.45 25.35 21.55 25.35 21.45 27.15 17.85 23.4 20.75 24.6 21.25" fill="#baded7" fill-rule="evenodd" stroke="none"/>
      <path d="M22.9 19.6 L22.3 20.4 23.15 20.7 22.9 19.6" fill="#ffffff" fill-rule="evenodd" stroke="none"/>
      <path d="M19.25 26.25 L19.2 26.4 20.65 26.1 23.95 23.75 26.15 22.15 26.3 22.15 26.3 22.05 27.2 17.75 27.2 17.6 23.05 19.45 23.05 19.5 22.9 19.6 22.3 20.4 19.3 24.35 18.9 25.85 19.25 26.25 22.6 23.85 22.95 23.55 M22.25 22.05 L22.75 21.35 23.2 20.9 23.15 20.85 24.6 21.25 25.35 21.45 25.35 21.55 25.4 21.65 22.95 23.55 M22.25 22.05 L18.9 25.85 M23.15 20.85 L23.15 20.7 M22.9 19.6 L23.15 20.7 M27.15 17.85 L27.2 17.75 M25.35 21.45 L25.35 21.55 26.15 22.15 M27.15 17.85 L25.35 21.45 M23.4 20.75 L27.15 17.85" fill="none" stroke="#1b4d7e" stroke-linecap="round" stroke-linejoin="round" stroke-opacity="0.4" stroke-width="0.05"/>
      <path d="M13.4 30.1 L13.3 30.05 13.5 29.25 14.95 27.65 15.7 27.5 15.0 28.3 14.8 28.45 13.4 30.1 M15.9 26.55 L15.9 26.4 15.95 26.45 18.3 26.6 18.2 26.65 16.2 27.15 16.15 27.1 15.9 26.55" fill="#427973" fill-rule="evenodd" stroke="none"/>
      <path d="M14.95 27.65 L15.9 26.55 16.15 27.1 16.1 27.1 15.0 28.3 15.7 27.5 14.95 27.65 M13.55 30.3 L13.4 30.1 14.8 28.45 Q13.7 29.85 15.2 29.2 L15.75 28.95 13.55 30.3" fill="#56a098" fill-rule="evenodd" stroke="none"/>
      <path d="M14.8 28.45 L15.0 28.3 16.1 27.1 16.15 27.1 16.2 27.15 16.3 27.6 16.45 28.55 16.3 27.6 16.45 28.4 16.5 28.6 16.45 28.55 16.4 28.55 16.1 28.7 15.75 28.95 15.2 29.2 Q13.7 29.85 14.8 28.45" fill="#91cac8" fill-rule="evenodd" stroke="none"/>
      <path d="M18.3 26.6 L18.35 26.65 17.15 28.85 17.1 28.95 16.5 28.6 16.6 29.15 14.35 30.35 13.55 30.3 15.75 28.95 16.15 28.8 16.1 28.7 16.4 28.55 16.45 28.55 16.5 28.6 16.45 28.4 18.2 26.65 18.3 26.6" fill="#eafffb" fill-rule="evenodd" stroke="none"/>
      <path d="M16.3 27.6 L16.2 27.15 16.15 27.1 16.2 27.15 18.2 26.65 16.45 28.4 16.3 27.6" fill="#baded7" fill-rule="evenodd" stroke="none"/>
      <path d="M17.1 28.95 L16.6 29.15 16.5 28.6 17.1 28.95" fill="#ffffff" fill-rule="evenodd" stroke="none"/>
      <path d="M13.4 30.1 L13.3 30.05 13.5 29.25 14.95 27.65 15.9 26.55 15.9 26.4 15.95 26.45 18.3 26.6 18.35 26.65 17.15 28.85 17.1 28.95 16.6 29.15 14.35 30.35 13.55 30.3 13.4 30.1 14.8 28.45 15.0 28.3 M15.75 28.95 L16.1 28.7 16.4 28.55 16.45 28.55 16.3 27.6 16.2 27.15 16.15 27.1 16.1 27.1 15.0 28.3 M15.75 28.95 L13.55 30.3 M16.45 28.55 L16.5 28.6 M17.1 28.95 L16.5 28.6 M18.2 26.65 L18.3 26.6 M16.15 27.1 L15.9 26.55 M16.2 27.15 L16.15 27.1 M18.2 26.65 L16.2 27.15 M16.45 28.4 L18.2 26.65" fill="none" stroke="#1b4d7e" stroke-linecap="round" stroke-linejoin="round" stroke-opacity="0.4" stroke-width="0.05"/>
      <path d="M16.45 33.1 L16.35 33.15 16.35 32.25 17.3 30.3 18.05 29.95 17.55 30.9 17.45 31.15 16.45 33.1 M18.0 28.95 L17.95 28.85 18.0 28.85 20.3 28.4 20.2 28.4 18.4 29.45 18.35 29.45 18.0 28.95" fill="#427973" fill-rule="evenodd" stroke="none"/>
      <path d="M17.3 30.3 L18.0 28.95 18.35 29.45 18.3 29.45 17.55 30.9 18.05 29.95 17.3 30.3 M16.7 33.3 L16.45 33.1 17.45 31.15 Q16.65 32.8 17.95 31.7 L18.45 31.4 16.7 33.3" fill="#56a098" fill-rule="evenodd" stroke="none"/>
      <path d="M17.45 31.15 L17.55 30.9 18.3 29.45 18.35 29.45 18.4 29.5 18.4 29.45 18.6 29.9 18.95 30.8 18.6 29.9 19.0 30.65 19.05 30.85 18.95 30.8 18.75 31.05 18.45 31.4 17.95 31.7 Q16.65 32.8 17.45 31.15" fill="#91cac8" fill-rule="evenodd" stroke="none"/>
      <path d="M20.3 28.4 L20.35 28.4 19.75 30.9 19.7 30.95 19.05 30.85 19.0 30.65 20.2 28.4 20.3 28.4 M19.3 31.35 L17.45 33.1 16.7 33.3 18.45 31.4 18.8 31.15 18.75 31.05 18.95 30.8 19.05 30.85 19.3 31.35" fill="#eafffb" fill-rule="evenodd" stroke="none"/>
      <path d="M18.6 29.9 L18.4 29.45 18.4 29.5 18.35 29.45 18.4 29.45 20.2 28.4 19.0 30.65 18.6 29.9" fill="#baded7" fill-rule="evenodd" stroke="none"/>
      <path d="M19.7 30.95 L19.3 31.35 19.05 30.85 19.7 30.95" fill="#ffffff" fill-rule="evenodd" stroke="none"/>
      <path d="M16.45 33.1 L16.35 33.15 16.35 32.25 17.3 30.3 18.0 28.95 17.95 28.85 18.0 28.85 20.3 28.4 20.35 28.4 19.75 30.9 19.7 30.95 19.3 31.35 17.45 33.1 16.7 33.3 16.45 33.1 17.45 31.15 17.55 30.9 M18.45 31.4 L18.75 31.05 18.95 30.8 18.6 29.9 18.4 29.45 18.4 29.5 18.35 29.45 18.3 29.45 17.55 30.9 M18.45 31.4 L16.7 33.3 M18.95 30.8 L19.05 30.85 M19.7 30.95 L19.05 30.85 M20.2 28.4 L20.3 28.4 M18.4 29.45 L18.35 29.45 18.0 28.95 M20.2 28.4 L18.4 29.45 M19.0 30.65 L20.2 28.4" fill="none" stroke="#1b4d7e" stroke-linecap="round" stroke-linejoin="round" stroke-opacity="0.4" stroke-width="0.05"/>
      <path d="M18.25 28.95 L18.2 28.8 17.55 29.2 16.2 31.1 16.2 31.95 16.85 31.05 16.95 30.85 18.25 28.95 M15.4 32.35 L15.3 32.4 15.35 32.45 15.8 34.95 15.85 34.9 16.0 32.6 15.95 32.55 15.4 32.35" fill="#427973" fill-rule="evenodd" stroke="none"/>
      <path d="M16.2 31.1 L15.4 32.35 15.95 32.55 15.9 32.5 16.85 31.05 16.2 31.95 16.2 31.1 M18.5 29.05 L18.25 28.95 16.95 30.85 Q18.1 29.25 17.7 31.1 L17.6 31.75 18.5 29.05" fill="#56a098" fill-rule="evenodd" stroke="none"/>
      <path d="M16.95 30.85 L16.85 31.05 15.9 32.5 15.95 32.55 16.0 32.6 16.45 32.6 17.35 32.6 16.45 32.6 17.15 32.65 17.4 32.65 17.35 32.6 17.3 32.55 17.45 32.2 17.6 31.75 17.7 31.1 Q18.1 29.25 16.95 30.85" fill="#91cac8" fill-rule="evenodd" stroke="none"/>
      <path d="M15.8 34.95 L15.85 35.05 17.7 33.3 17.75 33.2 17.4 32.65 17.9 32.65 18.65 29.95 18.5 29.05 17.6 31.75 17.5 32.2 17.45 32.2 17.3 32.55 17.35 32.6 17.4 32.65 17.15 32.65 15.85 34.9 15.8 34.95" fill="#eafffb" fill-rule="evenodd" stroke="none"/>
      <path d="M16.45 32.6 L16.0 32.6 15.95 32.55 16.0 32.6 15.85 34.9 17.15 32.65 16.45 32.6" fill="#baded7" fill-rule="evenodd" stroke="none"/>
      <path d="M17.75 33.2 L17.9 32.65 17.4 32.65 17.75 33.2" fill="#ffffff" fill-rule="evenodd" stroke="none"/>
      <path d="M18.25 28.95 L18.2 28.8 17.55 29.2 16.2 31.1 15.4 32.35 15.3 32.4 15.35 32.45 15.8 34.95 15.85 35.05 17.7 33.3 17.75 33.2 17.9 32.65 18.65 29.95 18.5 29.05 18.25 28.95 16.95 30.85 16.85 31.05 M17.6 31.75 L17.45 32.2 17.3 32.55 17.35 32.6 16.45 32.6 16.0 32.6 15.95 32.55 15.9 32.5 16.85 31.05 M17.6 31.75 L18.5 29.05 M17.35 32.6 L17.4 32.65 M17.75 33.2 L17.4 32.65 M15.85 34.9 L15.8 34.95 M15.95 32.55 L15.4 32.35 M16.0 32.6 L15.95 32.55 M15.85 34.9 L16.0 32.6 M17.15 32.65 L15.85 34.9" fill="none" stroke="#1b4d7e" stroke-linecap="round" stroke-linejoin="round" stroke-opacity="0.4" stroke-width="0.05"/>
      <path d="M17.5 28.35 L17.6 28.3 16.8 27.95 14.55 28.05 13.85 28.55 14.95 28.5 15.25 28.45 17.5 28.35 M13.05 28.2 L12.95 28.05 12.95 28.15 11.2 30.1 11.3 30.05 13.2 28.75 13.2 28.7 13.05 28.2" fill="#427973" fill-rule="evenodd" stroke="none"/>
      <path d="M14.55 28.05 L13.05 28.2 13.2 28.7 13.25 28.65 14.95 28.5 13.85 28.55 14.55 28.05 M17.55 28.6 L17.5 28.35 15.25 28.45 Q17.1 28.4 15.45 29.2 L14.85 29.55 17.55 28.6" fill="#56a098" fill-rule="evenodd" stroke="none"/>
      <path d="M15.25 28.45 L14.95 28.5 13.25 28.65 13.2 28.7 13.25 28.75 13.2 28.75 13.5 29.15 14.05 29.8 13.5 29.15 13.95 29.75 14.05 29.9 14.05 29.8 14.1 29.8 14.4 29.7 14.85 29.55 15.45 29.2 Q17.1 28.4 15.25 28.45" fill="#91cac8" fill-rule="evenodd" stroke="none"/>
      <path d="M11.2 30.1 L11.2 30.15 13.7 30.6 13.8 30.55 14.05 29.9 13.95 29.75 11.3 30.05 11.2 30.1 M14.35 30.35 L16.95 29.3 17.55 28.6 14.85 29.55 14.4 29.75 14.4 29.7 14.1 29.8 14.05 29.8 14.05 29.9 14.35 30.35" fill="#eafffb" fill-rule="evenodd" stroke="none"/>
      <path d="M13.5 29.15 L13.2 28.75 13.25 28.75 13.2 28.7 13.2 28.75 11.3 30.05 13.95 29.75 13.5 29.15" fill="#baded7" fill-rule="evenodd" stroke="none"/>
      <path d="M13.8 30.55 L14.35 30.35 14.05 29.9 13.8 30.55" fill="#ffffff" fill-rule="evenodd" stroke="none"/>
      <path d="M17.5 28.35 L17.6 28.3 16.8 27.95 14.55 28.05 13.05 28.2 12.95 28.05 12.95 28.15 11.2 30.1 11.2 30.15 13.7 30.6 13.8 30.55 14.35 30.35 16.95 29.3 17.55 28.6 17.5 28.35 15.25 28.45 14.95 28.5 M14.85 29.55 L14.4 29.7 14.1 29.8 14.05 29.8 13.5 29.15 13.2 28.75 13.25 28.75 13.2 28.7 13.25 28.65 14.95 28.5 M14.85 29.55 L17.55 28.6 M14.05 29.8 L14.05 29.9 M13.8 30.55 L14.05 29.9 M11.3 30.05 L11.2 30.1 M13.2 28.75 L13.2 28.7 13.05 28.2 M11.3 30.05 L13.2 28.75 M13.95 29.75 L11.3 30.05" fill="none" stroke="#1b4d7e" stroke-linecap="round" stroke-linejoin="round" stroke-opacity="0.4" stroke-width="0.05"/>
      <path d="M18.55 28.25 L18.6 28.15 17.55 28.3 Q16.4 29.05 15.2 29.75 L14.75 30.7 15.9 29.95 16.15 29.8 18.55 28.25 M13.65 30.8 L13.5 30.75 13.55 30.85 12.75 33.75 12.75 33.65 14.15 31.25 14.15 31.2 13.65 30.8" fill="#427973" fill-rule="evenodd" stroke="none"/>
      <path d="M15.2 29.75 L13.65 30.8 14.15 31.2 14.15 31.15 15.9 29.95 14.75 30.7 15.2 29.75 M18.75 28.55 L18.55 28.25 16.15 29.8 Q18.15 28.6 16.8 30.35 L16.3 31.05 18.75 28.55" fill="#56a098" fill-rule="evenodd" stroke="none"/>
      <path d="M16.15 29.8 L15.9 29.95 14.15 31.15 14.15 31.2 14.15 31.25 14.65 31.45 15.65 31.75 14.65 31.45 15.45 31.85 15.6 31.9 15.65 31.75 15.65 31.7 15.9 31.45 16.3 31.05 16.8 30.35 Q18.15 28.6 16.15 29.8" fill="#91cac8" fill-rule="evenodd" stroke="none"/>
      <path d="M12.75 33.75 L12.7 33.85 15.65 32.8 15.65 32.75 15.75 32.65 15.6 31.9 16.2 32.1 18.4 29.55 18.75 28.55 16.3 31.05 16.0 31.5 15.9 31.45 15.65 31.7 15.65 31.75 15.6 31.9 15.45 31.85 12.75 33.65 12.75 33.75" fill="#eafffb" fill-rule="evenodd" stroke="none"/>
      <path d="M14.65 31.45 L14.15 31.25 14.15 31.2 14.15 31.25 12.75 33.65 15.45 31.85 14.65 31.45" fill="#baded7" fill-rule="evenodd" stroke="none"/>
      <path d="M15.75 32.65 L16.2 32.1 15.6 31.9 15.75 32.65" fill="#ffffff" fill-rule="evenodd" stroke="none"/>
      <path d="M18.55 28.25 L18.6 28.15 17.55 28.3 Q16.4 29.05 15.2 29.75 L13.65 30.8 13.5 30.75 13.55 30.85 12.75 33.75 12.7 33.85 15.65 32.8 15.65 32.75 15.75 32.65 16.2 32.1 18.4 29.55 18.75 28.55 18.55 28.25 16.15 29.8 15.9 29.95 M15.9 31.45 L15.65 31.7 15.65 31.75 14.65 31.45 14.15 31.25 14.15 31.2 14.15 31.15 15.9 29.95 M16.3 31.05 L18.75 28.55 M16.3 31.05 L15.9 31.45 M15.65 31.75 L15.6 31.9 M15.75 32.65 L15.6 31.9 M12.75 33.65 L12.75 33.75 M14.15 31.2 L13.65 30.8 M14.15 31.25 L14.15 31.2 M12.75 33.65 L14.15 31.25 M15.45 31.85 L12.75 33.65" fill="none" stroke="#1b4d7e" stroke-linecap="round" stroke-linejoin="round" stroke-opacity="0.4" stroke-width="0.05"/>
      <path d="M16.3 25.9 L18.65 26.9 18.1 29.25 19.05 27.0 21.55 27.5 19.25 26.55 19.75 23.85 18.75 26.35 16.3 25.9" fill="#9ff7f7" fill-rule="evenodd" stroke="none"/>
      <path d="M17.75 26.0 Q17.45 26.5 17.6 27.05 17.75 27.6 18.25 27.9 L19.35 28.05 20.2 27.4 20.35 26.3 Q20.2 25.75 19.65 25.45 L18.6 25.3 Q18.05 25.45 17.75 26.0" fill="url(#gradient28)" fill-rule="evenodd" stroke="none"/>
      <path d="M22.7 26.2 L19.3 26.45 18.25 22.85 18.6 26.5 15.3 27.35 18.7 27.2 19.5 30.45 19.3 27.05 22.7 26.2" fill="#f7f7f7" fill-opacity="0.8235294" fill-rule="evenodd" stroke="none"/>
      <path d="M22.7 26.2 L19.3 26.45 18.25 22.85 18.6 26.5 15.3 27.35 18.7 27.2 19.5 30.45 19.3 27.05 22.7 26.2 Z" fill="none" stroke="#9ff7f7" stroke-linecap="round" stroke-linejoin="round" stroke-width="0.05"/>
      <path d="M20.75 17.5 L19.95 18.1 19.05 18.0 18.45 17.25 Q18.35 16.75 18.6 16.3 18.9 15.8 19.4 15.65 L20.35 15.75 20.9 16.5 20.75 17.5" fill="url(#gradient29)" fill-rule="evenodd" stroke="none"/>
      <path d="M24.85 21.3 Q24.55 21.85 23.9 22.05 L22.8 21.9 Q22.25 21.6 22.05 20.95 21.95 20.35 22.25 19.8 22.6 19.2 23.25 19.0 L24.4 19.15 Q24.95 19.45 25.1 20.05 L24.85 21.3" fill="url(#gradient30)" fill-rule="evenodd" stroke="none"/>
      <path d="M27.9 8.1 Q27.6 8.65 26.95 8.85 L25.85 8.7 Q25.3 8.4 25.1 7.75 25.0 7.15 25.3 6.6 25.65 6.0 26.3 5.8 L27.45 5.95 Q28.0 6.25 28.15 6.85 L27.9 8.1" fill="url(#gradient31)" fill-rule="evenodd" stroke="none"/>
      <path d="M38.55 16.0 L37.6 16.75 36.5 16.6 Q35.95 16.3 35.75 15.65 35.65 15.05 35.95 14.5 36.3 13.9 36.95 13.7 L38.1 13.85 Q38.65 14.15 38.8 14.75 L38.55 16.0" fill="url(#gradient32)" fill-rule="evenodd" stroke="none"/>
      <path d="M14.6 29.5 Q14.3 30.05 13.65 30.25 L12.55 30.1 Q12.0 29.8 11.8 29.15 11.7 28.55 12.0 28.0 12.35 27.4 13.0 27.2 L14.15 27.35 Q14.7 27.65 14.85 28.25 L14.6 29.5" fill="url(#gradient33)" fill-rule="evenodd" stroke="none"/>
      <path d="M27.3 24.35 Q27.0 24.9 26.35 25.1 L25.25 24.95 Q24.7 24.65 24.5 24.0 24.4 23.4 24.7 22.85 25.05 22.25 25.7 22.05 L26.85 22.2 Q27.4 22.5 27.55 23.1 L27.3 24.35" fill="url(#gradient34)" fill-rule="evenodd" stroke="none"/>
    </g>
    <radialGradient cx="0" cy="0" gradientTransform="matrix(0.0085, -0.0092, 0.0092, 0.0085, 28.3, 13.7)" gradientUnits="userSpaceOnUse" id="gradient7" r="819.2" spreadMethod="pad">
      <stop offset="0.0" stop-color="#a2b7e8"/>
      <stop offset="0.596078431372549" stop-color="#a3e2fa"/>
      <stop offset="0.9803921568627451" stop-color="#dbf7fd"/>
    </radialGradient>
    <radialGradient cx="0" cy="0" gradientTransform="matrix(0.0044, -0.0048, 0.0048, 0.0044, 30.7, 13.55)" gradientUnits="userSpaceOnUse" id="gradient8" r="819.2" spreadMethod="pad">
      <stop offset="0.0" stop-color="#a2b7e8"/>
      <stop offset="0.596078431372549" stop-color="#a3e2fa"/>
      <stop offset="0.9803921568627451" stop-color="#dbf7fd"/>
    </radialGradient>
    <radialGradient cx="0" cy="0" gradientTransform="matrix(0.0044, -0.0048, -0.0048, -0.0044, 31.65, 14.85)" gradientUnits="userSpaceOnUse" id="gradient9" r="819.2" spreadMethod="pad">
      <stop offset="0.0" stop-color="#a2b7e8"/>
      <stop offset="0.596078431372549" stop-color="#a3e2fa"/>
      <stop offset="0.9803921568627451" stop-color="#dbf7fd"/>
    </radialGradient>
    <radialGradient cx="0" cy="0" gradientTransform="matrix(0.0085, -0.0092, -0.0092, -0.0085, 31.6, 17.3)" gradientUnits="userSpaceOnUse" id="gradient10" r="819.2" spreadMethod="pad">
      <stop offset="0.0" stop-color="#a2b7e8"/>
      <stop offset="0.596078431372549" stop-color="#a3e2fa"/>
      <stop offset="0.9803921568627451" stop-color="#dbf7fd"/>
    </radialGradient>
    <radialGradient cx="0" cy="0" gradientTransform="matrix(-0.0044, -0.0043, 0.0043, -0.0044, 7.1, 37.15)" gradientUnits="userSpaceOnUse" id="gradient11" r="819.2" spreadMethod="pad">
      <stop offset="0.0" stop-color="#a2b7e8"/>
      <stop offset="0.596078431372549" stop-color="#a3e2fa"/>
      <stop offset="0.9803921568627451" stop-color="#dbf7fd"/>
    </radialGradient>
    <radialGradient cx="0" cy="0" gradientTransform="matrix(-0.0047, -0.0047, 0.0047, -0.0047, 13.3, 32.5)" gradientUnits="userSpaceOnUse" id="gradient12" r="819.2" spreadMethod="pad">
      <stop offset="0.0" stop-color="#a2b7e8"/>
      <stop offset="0.596078431372549" stop-color="#a3e2fa"/>
      <stop offset="0.9803921568627451" stop-color="#dbf7fd"/>
    </radialGradient>
    <radialGradient cx="0" cy="0" gradientTransform="matrix(-0.0026, -0.0025, 0.0025, -0.0026, 16.95, 30.05)" gradientUnits="userSpaceOnUse" id="gradient13" r="819.2" spreadMethod="pad">
      <stop offset="0.0" stop-color="#a2b7e8"/>
      <stop offset="0.596078431372549" stop-color="#a3e2fa"/>
      <stop offset="0.9803921568627451" stop-color="#dbf7fd"/>
    </radialGradient>
    <radialGradient cx="0" cy="0" gradientTransform="matrix(-0.0105, -0.0103, 0.0103, -0.0105, 24.0, 24.35)" gradientUnits="userSpaceOnUse" id="gradient14" r="819.2" spreadMethod="pad">
      <stop offset="0.0" stop-color="#a2b7e8"/>
      <stop offset="0.596078431372549" stop-color="#a3e2fa"/>
      <stop offset="0.9803921568627451" stop-color="#dbf7fd"/>
    </radialGradient>
    <radialGradient cx="0" cy="0" gradientTransform="matrix(-0.0075, -0.0074, 0.0074, -0.0075, 21.0, 23.4)" gradientUnits="userSpaceOnUse" id="gradient15" r="819.2" spreadMethod="pad">
      <stop offset="0.0" stop-color="#a2b7e8"/>
      <stop offset="0.596078431372549" stop-color="#a3e2fa"/>
      <stop offset="0.9803921568627451" stop-color="#dbf7fd"/>
    </radialGradient>
    <radialGradient cx="0" cy="0" gradientTransform="matrix(-0.0029, -0.0028, 0.0028, -0.0029, 23.55, 20.1)" gradientUnits="userSpaceOnUse" id="gradient16" r="819.2" spreadMethod="pad">
      <stop offset="0.0" stop-color="#a2b7e8"/>
      <stop offset="0.596078431372549" stop-color="#a3e2fa"/>
      <stop offset="0.9803921568627451" stop-color="#dbf7fd"/>
    </radialGradient>
    <radialGradient cx="0" cy="0" gradientTransform="matrix(-0.002, -0.0019, 0.0019, -0.002, 26.25, 21.6)" gradientUnits="userSpaceOnUse" id="gradient17" r="819.2" spreadMethod="pad">
      <stop offset="0.0" stop-color="#a2b7e8"/>
      <stop offset="0.596078431372549" stop-color="#a3e2fa"/>
      <stop offset="0.9803921568627451" stop-color="#dbf7fd"/>
    </radialGradient>
    <radialGradient cx="0" cy="0" gradientTransform="matrix(-0.0019, -0.0019, 0.0019, -0.0019, 15.45, 29.4)" gradientUnits="userSpaceOnUse" id="gradient18" r="819.2" spreadMethod="pad">
      <stop offset="0.0" stop-color="#ffffff"/>
      <stop offset="1.0" stop-color="#ffffff" stop-opacity="0.0"/>
    </radialGradient>
    <radialGradient cx="0" cy="0" gradientTransform="matrix(-0.0031, -0.0018, -0.0018, 0.0031, 29.05, 16.35)" gradientUnits="userSpaceOnUse" id="gradient19" r="819.2" spreadMethod="pad">
      <stop offset="0.4549019607843137" stop-color="#f7f7f7"/>
      <stop offset="0.8549019607843137" stop-color="#44caf7" stop-opacity="0.8235294"/>
      <stop offset="1.0" stop-color="#00b9f7" stop-opacity="0.14117648"/>
    </radialGradient>
    <radialGradient cx="0" cy="0" gradientTransform="matrix(0.0029, 0.0029, -0.0029, 0.0029, 25.1, 18.7)" gradientUnits="userSpaceOnUse" id="gradient20" r="819.2" spreadMethod="pad">
      <stop offset="0.0" stop-color="#9cb7d6"/>
      <stop offset="0.4549019607843137" stop-color="#a3e2fa"/>
    </radialGradient>
    <radialGradient cx="0" cy="0" gradientTransform="matrix(0.0027, 0.0026, -0.0026, 0.0027, 26.6, 18.6)" gradientUnits="userSpaceOnUse" id="gradient21" r="819.2" spreadMethod="pad">
      <stop offset="0.0" stop-color="#9cb7d6"/>
      <stop offset="0.4549019607843137" stop-color="#a3e2fa"/>
    </radialGradient>
    <radialGradient cx="0" cy="0" gradientTransform="matrix(0.0033, 0.0032, -0.0032, 0.0033, 23.75, 18.55)" gradientUnits="userSpaceOnUse" id="gradient22" r="819.2" spreadMethod="pad">
      <stop offset="0.0" stop-color="#9cb7d6"/>
      <stop offset="0.4549019607843137" stop-color="#a3e2fa"/>
    </radialGradient>
    <radialGradient cx="0" cy="0" gradientTransform="matrix(0.0014, 0.0014, -0.0014, 0.0014, 19.9, 24.6)" gradientUnits="userSpaceOnUse" id="gradient23" r="819.2" spreadMethod="pad">
      <stop offset="0.0" stop-color="#9cb7d6"/>
      <stop offset="0.4549019607843137" stop-color="#a3e2fa"/>
    </radialGradient>
    <radialGradient cx="0" cy="0" gradientTransform="matrix(-0.0029, -0.0029, -0.0029, 0.0029, 26.8, 20.3)" gradientUnits="userSpaceOnUse" id="gradient24" r="819.2" spreadMethod="pad">
      <stop offset="0.0" stop-color="#9cb7d6"/>
      <stop offset="0.4549019607843137" stop-color="#a3e2fa"/>
    </radialGradient>
    <radialGradient cx="0" cy="0" gradientTransform="matrix(-0.0027, -0.0026, -0.0026, 0.0027, 26.9, 18.8)" gradientUnits="userSpaceOnUse" id="gradient25" r="819.2" spreadMethod="pad">
      <stop offset="0.0" stop-color="#9cb7d6"/>
      <stop offset="0.4549019607843137" stop-color="#a3e2fa"/>
    </radialGradient>
    <radialGradient cx="0" cy="0" gradientTransform="matrix(-0.0033, -0.0032, -0.0032, 0.0033, 27.05, 21.65)" gradientUnits="userSpaceOnUse" id="gradient26" r="819.2" spreadMethod="pad">
      <stop offset="0.0" stop-color="#9cb7d6"/>
      <stop offset="0.4549019607843137" stop-color="#a3e2fa"/>
    </radialGradient>
    <radialGradient cx="0" cy="0" gradientTransform="matrix(-0.0014, -0.0014, -0.0014, 0.0014, 21.0, 25.6)" gradientUnits="userSpaceOnUse" id="gradient27" r="819.2" spreadMethod="pad">
      <stop offset="0.0" stop-color="#9cb7d6"/>
      <stop offset="0.4549019607843137" stop-color="#a3e2fa"/>
    </radialGradient>
    <radialGradient cx="0" cy="0" gradientTransform="matrix(-0.0016, -9.0E-4, -9.0E-4, 0.0016, 18.95, 26.7)" gradientUnits="userSpaceOnUse" id="gradient28" r="819.2" spreadMethod="pad">
      <stop offset="0.4549019607843137" stop-color="#f7f7f7"/>
      <stop offset="0.8549019607843137" stop-color="#44caf7" stop-opacity="0.8235294"/>
      <stop offset="1.0" stop-color="#00b9f7" stop-opacity="0.14117648"/>
    </radialGradient>
    <radialGradient cx="0" cy="0" gradientTransform="matrix(0.0013, 8.0E-4, -8.0E-4, 0.0014, 19.7, 16.9)" gradientUnits="userSpaceOnUse" id="gradient29" r="819.2" spreadMethod="pad">
      <stop offset="0.0" stop-color="#ffffff"/>
      <stop offset="0.24313725490196078" stop-color="#ffffff"/>
      <stop offset="0.26666666666666666" stop-color="#ffffff" stop-opacity="0.56078434"/>
      <stop offset="0.9333333333333333" stop-color="#ffffff" stop-opacity="0.0"/>
    </radialGradient>
    <radialGradient cx="0" cy="0" gradientTransform="matrix(0.0016, 0.001, -0.001, 0.0018, 23.55, 20.55)" gradientUnits="userSpaceOnUse" id="gradient30" r="819.2" spreadMethod="pad">
      <stop offset="0.0" stop-color="#ffffff"/>
      <stop offset="0.24313725490196078" stop-color="#ffffff"/>
      <stop offset="0.26666666666666666" stop-color="#ffffff" stop-opacity="0.56078434"/>
      <stop offset="0.9333333333333333" stop-color="#ffffff" stop-opacity="0.0"/>
    </radialGradient>
    <radialGradient cx="0" cy="0" gradientTransform="matrix(0.0016, 0.001, -0.001, 0.0018, 26.6, 7.35)" gradientUnits="userSpaceOnUse" id="gradient31" r="819.2" spreadMethod="pad">
      <stop offset="0.0" stop-color="#ffffff"/>
      <stop offset="0.24313725490196078" stop-color="#ffffff"/>
      <stop offset="0.26666666666666666" stop-color="#ffffff" stop-opacity="0.56078434"/>
      <stop offset="0.9333333333333333" stop-color="#ffffff" stop-opacity="0.0"/>
    </radialGradient>
    <radialGradient cx="0" cy="0" gradientTransform="matrix(0.0016, 0.001, -0.001, 0.0018, 37.25, 15.25)" gradientUnits="userSpaceOnUse" id="gradient32" r="819.2" spreadMethod="pad">
      <stop offset="0.0" stop-color="#ffffff"/>
      <stop offset="0.24313725490196078" stop-color="#ffffff"/>
      <stop offset="0.26666666666666666" stop-color="#ffffff" stop-opacity="0.56078434"/>
      <stop offset="0.9333333333333333" stop-color="#ffffff" stop-opacity="0.0"/>
    </radialGradient>
    <radialGradient cx="0" cy="0" gradientTransform="matrix(0.0016, 0.001, -0.001, 0.0018, 13.3, 28.75)" gradientUnits="userSpaceOnUse" id="gradient33" r="819.2" spreadMethod="pad">
      <stop offset="0.0" stop-color="#ffffff"/>
      <stop offset="0.24313725490196078" stop-color="#ffffff"/>
      <stop offset="0.26666666666666666" stop-color="#ffffff" stop-opacity="0.56078434"/>
      <stop offset="0.9333333333333333" stop-color="#ffffff" stop-opacity="0.0"/>
    </radialGradient>
    <radialGradient cx="0" cy="0" gradientTransform="matrix(0.0016, 0.001, -0.001, 0.0018, 26.0, 23.6)" gradientUnits="userSpaceOnUse" id="gradient34" r="819.2" spreadMethod="pad">
      <stop offset="0.0" stop-color="#ffffff"/>
      <stop offset="0.24313725490196078" stop-color="#ffffff"/>
      <stop offset="0.26666666666666666" stop-color="#ffffff" stop-opacity="0.56078434"/>
      <stop offset="0.9333333333333333" stop-color="#ffffff" stop-opacity="0.0"/>
    </radialGradient>
  </defs>
</svg>
