<?xml version="1.0" encoding="UTF-8" standalone="no"?>
<svg xmlns:xlink="http://www.w3.org/1999/xlink" height="440.0px" width="440.0px" xmlns="http://www.w3.org/2000/svg">
  <g transform="matrix(10.0, 0.0, 0.0, 10.0, 0.0, 0.0)">
    <use height="44.0" transform="matrix(0.9091, 0.0, 0.0, 0.9091, 2.0, 2.0)" width="44.0" xlink:href="#sprite0"/>
  </g>
  <defs>
    <g id="sprite0" transform="matrix(1.0, 0.0, 0.0, 1.0, 0.0, 0.0)">
      <use height="44.0" transform="matrix(1.0, 0.0, 0.0, 1.0, 0.0, 0.0)" width="44.0" xlink:href="#shape0"/>
    </g>
    <g id="shape0" transform="matrix(1.0, 0.0, 0.0, 1.0, 0.0, 0.0)">
      <path d="M44.0 44.0 L0.0 44.0 0.0 0.0 44.0 0.0 44.0 44.0" fill="#43adca" fill-opacity="0.0" fill-rule="evenodd" stroke="none"/>
      <path d="M15.05 27.8 L14.95 28.05 17.05 27.3 Q19.75 25.15 22.55 22.95 L23.9 20.65 21.25 22.85 20.6 23.35 15.05 27.8 M26.2 19.95 L26.45 19.95 26.45 19.8 29.45 12.85 29.3 13.05 25.4 19.1 25.35 19.25 26.2 19.95" fill="#427973" fill-rule="evenodd" stroke="none"/>
      <path d="M22.55 22.95 L26.2 19.95 25.35 19.25 25.35 19.35 21.25 22.85 23.9 20.65 22.55 22.95 M14.8 27.3 L15.05 27.8 20.6 23.35 Q15.95 26.95 19.65 22.3 L20.85 20.6 14.8 27.3" fill="#56a098" fill-rule="evenodd" stroke="none"/>
      <path d="M20.6 23.35 L21.25 22.85 25.35 19.35 25.35 19.25 25.35 19.1 25.4 19.1 24.5 18.9 22.6 18.6 24.5 18.9 23.05 18.4 22.7 18.3 22.6 18.6 22.6 18.65 21.9 19.4 20.85 20.6 19.65 22.3 Q15.95 26.95 20.6 23.35" fill="#91cac8" fill-rule="evenodd" stroke="none"/>
      <path d="M29.45 12.85 L29.5 12.6 23.05 16.35 23.05 16.4 22.85 16.6 22.7 18.3 23.05 18.4 29.3 13.05 29.45 12.85 M21.65 18.1 L15.9 24.9 14.8 27.3 20.85 20.6 21.7 19.35 21.9 19.4 22.6 18.65 22.6 18.6 22.7 18.3 21.65 18.1" fill="#eafffb" fill-rule="evenodd" stroke="none"/>
      <path d="M24.5 18.9 L25.4 19.1 25.35 19.1 25.35 19.25 25.4 19.1 29.3 13.05 23.05 18.4 24.5 18.9" fill="#baded7" fill-rule="evenodd" stroke="none"/>
      <path d="M22.85 16.6 L21.65 18.1 22.7 18.3 22.85 16.6" fill="#ffffff" fill-rule="evenodd" stroke="none"/>
      <path d="M15.05 27.8 L14.95 28.05 17.05 27.3 Q19.75 25.15 22.55 22.95 L26.2 19.95 26.45 19.95 26.45 19.8 29.45 12.85 29.5 12.6 23.05 16.35 23.05 16.4 22.85 16.6 21.65 18.1 15.9 24.9 14.8 27.3 15.05 27.8 20.6 23.35 21.25 22.85 M20.85 20.6 L21.9 19.4 22.6 18.65 22.6 18.6 24.5 18.9 25.4 19.1 25.35 19.1 25.35 19.25 25.35 19.35 21.25 22.85 M20.85 20.6 L14.8 27.3 M22.6 18.6 L22.7 18.3 M22.85 16.6 L22.7 18.3 M29.3 13.05 L29.45 12.85 M25.4 19.1 L25.35 19.25 26.2 19.95 M29.3 13.05 L25.4 19.1 M23.05 18.4 L29.3 13.05" fill="none" stroke="#1b4d7e" stroke-linecap="round" stroke-linejoin="round" stroke-opacity="0.4" stroke-width="0.05"/>
      <path d="M25.2 19.65 Q24.65 20.65 23.5 21.0 L21.45 20.8 Q20.45 20.2 20.15 19.05 19.9 17.95 20.45 16.9 21.1 15.85 22.25 15.5 23.35 15.15 24.35 15.75 25.35 16.35 25.6 17.45 25.85 18.55 25.2 19.65" fill="url(#gradient0)" fill-rule="evenodd" stroke="none"/>
      <path d="M18.0 25.55 L18.3 26.0 18.4 26.35 18.5 26.3 18.5 26.35 9.3 34.9 9.25 35.05 9.15 35.1 8.85 35.45 6.05 38.35 5.7 37.75 5.4 37.85 8.65 35.0 8.7 34.8 18.0 25.55 M9.3 33.05 L9.45 32.85 9.15 33.5 9.3 33.05" fill="#876843" fill-rule="evenodd" stroke="none"/>
      <path d="M15.95 24.75 L16.0 24.75 16.8 24.85 16.85 24.85 16.75 24.9 17.05 24.95 17.35 25.1 14.95 27.2 4.3 38.0 3.1 38.35 4.45 36.3 5.05 35.65 7.3 33.55 8.2 32.55 8.25 32.5 11.5 29.0 11.55 28.95 12.5 27.9 12.75 27.6 12.85 27.6 12.9 27.55 12.9 27.5 13.25 27.2 14.1 26.45 14.75 25.8 15.7 25.05 15.75 25.05 16.05 24.85 15.85 24.9 15.95 24.85 15.95 24.8 15.95 24.75 15.9 24.8 15.95 24.75 15.95 24.8 16.0 24.75 15.95 24.75 M12.5 27.9 L12.55 27.9 12.5 27.9" fill="#d6c088" fill-rule="evenodd" stroke="none"/>
      <path d="M17.35 25.1 L17.85 25.35 17.9 25.35 17.95 25.4 18.0 25.55 8.7 34.8 8.65 35.0 5.4 37.85 4.55 38.0 4.3 38.0 14.95 27.2 17.35 25.1 M9.45 32.85 L9.3 33.05 9.15 33.5 9.45 32.85" fill="#baa475" fill-rule="evenodd" stroke="none"/>
      <path d="M18.5 26.35 L18.5 27.2 17.05 28.6 16.65 29.0 14.8 30.85 13.45 32.3 11.75 34.25 8.45 38.45 6.65 40.95 7.0 40.4 6.45 40.05 6.15 39.35 6.3 39.25 5.4 38.8 6.05 38.35 8.85 35.45 9.15 35.1 9.25 35.05 9.3 34.9 18.5 26.35 M15.8 24.9 L15.85 24.9 15.95 24.8 15.9 24.8 15.95 24.75 15.95 24.8 15.95 24.85 15.85 24.9 15.75 25.05 15.8 24.9 M16.0 24.75 L15.95 24.8 15.95 24.75 16.0 24.75 M8.85 35.45 L6.3 39.25 8.85 35.45" fill="#3b2c1c" fill-rule="evenodd" stroke="none"/>
      <path d="M6.75 40.7 L6.7 40.75 Q5.55 41.1 4.65 40.4 3.95 39.9 3.4 38.8 L3.1 38.35 4.3 38.0 4.55 38.0 5.4 37.85 5.7 37.75 6.05 38.35 5.4 38.8 6.3 39.25 6.15 39.35 6.45 40.05 6.75 40.7 M4.25 39.0 L4.35 39.8 5.55 40.35 5.85 39.8 5.55 40.35 4.35 39.8 4.25 39.0 M4.7 39.25 L5.25 39.6 5.15 38.75 4.7 39.25 5.15 38.75 5.25 39.6 4.7 39.25" fill="#c79465" fill-rule="evenodd" stroke="none"/>
      <path d="M7.0 40.4 L6.75 40.7 6.45 40.05 7.0 40.4" fill="#8e483e" fill-rule="evenodd" stroke="none"/>
      <path d="M18.5 27.2 L17.05 28.6 16.65 29.0 14.8 30.85 13.45 32.3 11.75 34.25 8.45 38.45 6.65 40.95 7.0 40.4 6.75 40.7 6.7 40.75 Q5.55 41.1 4.65 40.4 3.95 39.9 3.4 38.8 L3.1 38.35 4.45 36.3 5.05 35.65 7.3 33.55 8.2 32.55 8.25 32.5 11.5 29.0 11.55 28.95 12.5 27.9 12.75 27.6 12.85 27.6 12.9 27.55 12.9 27.5 13.25 27.2 14.1 26.45 14.75 25.8 15.7 25.05 15.8 24.9 15.85 24.9 16.05 24.85 15.75 25.05 15.7 25.05 M12.5 27.9 L12.55 27.9 12.5 27.9 M5.4 37.85 L5.7 37.75 6.05 38.35 8.85 35.45 9.15 35.1 9.25 35.05 9.3 34.9 M4.3 38.0 L3.1 38.35 M5.4 37.85 L4.55 38.0 4.3 38.0 M6.3 39.25 L6.15 39.35 6.45 40.05 M6.3 39.25 L8.85 35.45" fill="none" stroke="#000000" stroke-linecap="round" stroke-linejoin="round" stroke-opacity="0.3019608" stroke-width="0.25"/>
      <path d="M9.45 32.85 L9.3 33.05 M4.7 39.25 L5.15 38.75 5.25 39.6 4.7 39.25 M5.85 39.8 L5.55 40.35 4.35 39.8 4.25 39.0 M6.05 38.35 L5.4 38.8 6.3 39.25" fill="none" stroke="#663300" stroke-linecap="round" stroke-linejoin="round" stroke-width="0.25"/>
      <path d="M6.9 33.9 L6.85 33.9 6.85 33.8 6.95 33.65 6.9 33.9 6.95 33.9 6.85 34.15 6.9 33.9" fill="#3a9467" fill-rule="evenodd" stroke="none"/>
      <path d="M14.15 27.8 Q14.9 28.2 15.3 29.0 L14.4 30.0 13.75 30.7 Q13.4 29.95 12.6 29.6 L13.35 28.75 14.4 30.0 13.35 28.75 14.15 27.8 M9.95 32.6 L10.75 31.7 Q11.5 32.15 11.85 32.9 L11.0 33.8 Q10.6 32.95 9.95 32.6 10.6 32.95 11.0 33.8 L9.55 35.45 Q9.15 34.6 8.55 34.25 L9.95 32.6" fill="#cc3300" fill-rule="evenodd" stroke="none"/>
      <path d="M12.6 29.6 L11.45 29.25 Q11.2 28.75 12.2 28.25 12.15 27.55 12.95 27.5 L13.05 27.5 14.15 27.8 13.35 28.75 12.6 29.6 M12.2 28.25 L13.35 28.75 12.2 28.25 M10.75 31.7 L9.95 32.6 Q9.3 32.2 8.4 32.35 9.3 32.2 9.95 32.6 L8.55 34.25 Q7.85 33.85 6.95 33.9 L6.9 33.9 6.95 33.65 7.0 33.6 Q7.35 32.5 8.4 32.35 8.3 31.3 9.6 31.25 L10.75 31.7" fill="#fd5c35" fill-rule="evenodd" stroke="none"/>
      <path d="M15.3 29.0 L15.55 29.75 Q15.9 31.05 14.7 30.9 14.7 31.65 14.0 31.65 L13.75 30.7 14.4 30.0 15.3 29.0 M11.0 33.8 L11.85 32.9 12.05 33.95 Q11.85 34.8 11.35 34.8 L11.0 33.8 11.35 34.8 Q11.7 36.05 9.9 36.45 L9.55 35.45 11.0 33.8 M14.4 30.0 L14.7 30.9 14.4 30.0" fill="#9e2500" fill-rule="evenodd" stroke="none"/>
      <path d="M12.6 29.6 L11.45 29.25 Q11.2 28.75 12.2 28.25 12.15 27.55 12.95 27.5 L13.05 27.5 14.15 27.8 Q14.9 28.2 15.3 29.0 L15.55 29.75 Q15.9 31.05 14.7 30.9 14.7 31.65 14.0 31.65 L13.75 30.7 Q13.4 29.95 12.6 29.6 M13.35 28.75 L12.2 28.25 M9.95 32.6 Q10.6 32.95 11.0 33.8 L11.35 34.8 Q11.85 34.8 12.05 33.95 L11.85 32.9 Q11.5 32.15 10.75 31.7 L9.6 31.25 Q8.3 31.3 8.4 32.35 9.3 32.2 9.95 32.6 M8.55 34.25 Q9.15 34.6 9.55 35.45 L9.9 36.45 Q11.7 36.05 11.35 34.8 M13.35 28.75 L14.4 30.0 M14.7 30.9 L14.4 30.0 M6.85 33.9 L6.9 33.9 6.95 33.65 6.85 33.8 M6.95 33.65 L7.0 33.6 Q7.35 32.5 8.4 32.35 M6.95 33.9 L6.9 33.9 6.85 34.15 M6.95 33.9 Q7.85 33.85 8.55 34.25" fill="none" stroke="#000000" stroke-linecap="round" stroke-linejoin="round" stroke-opacity="0.3019608" stroke-width="0.05"/>
      <path d="M39.95 3.4 L28.5 14.7 27.95 14.05 39.5 3.05 39.95 3.4" fill="#ae8051" fill-rule="evenodd" stroke="none"/>
      <path d="M26.65 14.1 L38.85 3.0 39.5 3.05 27.95 14.05 26.65 14.1" fill="#c19d79" fill-rule="evenodd" stroke="none"/>
      <path d="M39.95 3.4 Q40.15 3.7 39.95 4.3 L34.55 9.25 28.15 15.95 28.5 14.7 39.95 3.4" fill="#6b4f32" fill-rule="evenodd" stroke="none"/>
      <path d="M28.15 15.95 L34.55 9.25 39.95 4.3 Q40.15 3.7 39.95 3.4 M39.5 3.05 L39.95 3.4 M26.65 14.1 L38.85 3.0 39.5 3.05" fill="none" stroke="#000000" stroke-linecap="round" stroke-linejoin="round" stroke-opacity="0.3019608" stroke-width="0.05"/>
    </g>
    <radialGradient cx="0" cy="0" gradientTransform="matrix(0.003, 0.0017, -0.0018, 0.0032, 22.85, 18.3)" gradientUnits="userSpaceOnUse" id="gradient0" r="819.2" spreadMethod="pad">
      <stop offset="0.0" stop-color="#ffffff"/>
      <stop offset="0.24313725490196078" stop-color="#ffffff"/>
      <stop offset="0.26666666666666666" stop-color="#ffffff" stop-opacity="0.56078434"/>
      <stop offset="0.9333333333333333" stop-color="#ffffff" stop-opacity="0.0"/>
    </radialGradient>
  </defs>
</svg>
