<?xml version="1.0" encoding="UTF-8" standalone="no"?>
<svg xmlns:xlink="http://www.w3.org/1999/xlink" height="440.0px" width="440.0px" xmlns="http://www.w3.org/2000/svg">
  <g transform="matrix(10.0, 0.0, 0.0, 10.0, 0.0, 0.0)">
    <use height="44.0" transform="matrix(0.9091, 0.0, 0.0, 0.9091, 2.0, 2.0)" width="44.0" xlink:href="#sprite0"/>
  </g>
  <defs>
    <g id="sprite0" transform="matrix(1.0, 0.0, 0.0, 1.0, 0.0, 0.0)">
      <use height="44.0" transform="matrix(1.0, 0.0, 0.0, 1.0, 0.0, 0.0)" width="44.0" xlink:href="#shape0"/>
      <use height="50.6" transform="matrix(-0.2146, -0.1756, -0.3309, 0.4045, 24.8464, 16.159)" width="17.05" xlink:href="#sprite1"/>
      <use height="4.55" transform="matrix(1.0, 0.0, 0.0, 1.0, 20.25, 10.3)" width="3.0" xlink:href="#shape2"/>
    </g>
    <g id="shape0" transform="matrix(1.0, 0.0, 0.0, 1.0, 0.0, 0.0)">
      <path d="M44.0 44.0 L0.0 44.0 0.0 0.0 44.0 0.0 44.0 44.0" fill="#43adca" fill-opacity="0.0" fill-rule="evenodd" stroke="none"/>
      <path d="M22.95 23.5 L22.95 23.6 22.9 23.6 22.85 23.6 22.95 23.4 22.95 23.5 22.9 23.6 22.95 23.5 M30.15 8.0 L30.7 7.2 30.75 7.2 30.75 7.15 30.8 7.15 30.8 7.05 31.0 7.25 30.35 8.1 Q32.8 7.45 35.5 6.0 L33.3 7.25 Q30.45 8.9 30.0 8.15 30.3 8.85 30.0 9.2 L28.95 11.9 Q27.35 15.4 26.1 18.45 L26.0 18.65 21.65 22.3 20.2 24.7 20.15 24.5 18.65 28.4 12.9 33.6 14.05 33.2 12.75 34.6 6.75 39.05 Q7.6 38.05 7.0 36.7 10.25 35.6 12.1 34.1 L10.1 35.0 13.95 31.45 13.65 31.65 18.15 27.1 21.25 21.6 21.25 21.65 21.35 21.7 24.6 19.3 25.4 18.1 25.5 18.0 25.6 17.75 29.1 10.0 29.6 9.2 30.15 8.0 M21.3 19.05 L21.3 19.15 21.3 19.05 M21.2 19.15 L21.3 19.45 Q21.5 20.45 21.15 21.0 L20.55 21.8 19.85 22.5 Q20.95 20.85 20.85 20.55 L20.7 19.4 20.75 19.45 20.75 19.3 21.2 19.3 21.2 19.2 21.15 19.2 21.2 19.15 M18.15 27.1 L13.1 33.3 18.1 28.45 18.6 26.65 18.15 27.1 M7.45 35.85 L9.5 33.5 13.65 31.65 7.45 35.85" fill="#876843" fill-rule="evenodd" stroke="none"/>
      <path d="M37.3 4.95 L36.95 5.55 Q34.8 6.4 34.2 7.5 34.25 8.2 30.7 9.6 L29.55 11.9 Q28.05 15.0 26.8 18.85 L26.8 18.9 25.65 20.35 22.95 23.5 22.95 23.4 22.85 23.6 22.9 23.6 22.85 23.65 22.85 23.6 22.85 23.65 22.9 23.6 22.95 23.6 22.85 23.65 Q21.3 24.4 20.65 26.3 L20.55 26.5 20.35 26.6 19.9 27.4 19.45 28.05 Q16.65 32.1 12.95 35.65 L12.85 35.9 Q10.65 38.35 10.0 39.5 8.9 40.0 6.75 39.05 L12.75 34.6 14.05 33.2 12.9 33.6 18.65 28.4 20.15 24.5 20.2 24.7 20.45 25.5 21.35 23.75 21.8 23.45 Q22.7 22.9 23.05 22.85 L23.05 22.75 25.8 19.3 25.75 19.35 26.0 18.65 26.1 18.45 Q27.35 15.4 28.95 11.9 L30.0 9.2 Q30.3 8.85 30.0 8.15 30.45 8.9 33.3 7.25 L35.5 6.0 37.3 4.95 M20.8 18.75 L20.8 18.55 20.9 18.6 21.15 18.5 21.3 19.05 21.3 19.15 21.15 19.0 21.1 18.9 21.1 18.95 21.05 18.9 20.8 18.75 M21.25 19.15 L21.2 19.15 21.15 19.1 21.2 19.1 21.25 19.15 21.3 19.2 21.3 19.3 21.3 19.45 21.2 19.15 21.25 19.15" fill="#3b2c1c" fill-rule="evenodd" stroke="none"/>
      <path d="M31.0 7.25 Q33.4 6.7 37.35 4.0 37.85 3.75 37.3 4.95 L35.5 6.0 Q32.8 7.45 30.35 8.1 L31.0 7.25" fill="#baa776" fill-rule="evenodd" stroke="none"/>
      <path d="M20.25 18.55 L20.8 18.75 21.05 18.9 21.1 18.95 21.1 19.0 21.15 19.0 21.15 19.05 21.2 19.1 21.15 19.0 21.1 18.95 21.1 18.9 21.15 19.0 21.3 19.15 21.3 19.2 21.25 19.15 21.2 19.15 21.25 19.15 21.2 19.1 21.15 19.1 21.2 19.15 21.15 19.2 21.2 19.2 21.2 19.3 20.75 19.3 20.75 19.45 20.7 19.4 Q20.55 18.65 20.25 18.55 M21.3 19.2 L21.35 19.2 21.3 19.2 M18.15 27.1 L18.6 26.65 18.1 28.45 13.1 33.3 18.15 27.1 M20.2 24.7 L21.65 22.3 26.0 18.65 25.75 19.35 25.8 19.3 23.05 22.75 23.05 22.85 Q22.7 22.9 21.8 23.45 L21.35 23.75 20.45 25.5 20.2 24.7" fill="#695034" fill-rule="evenodd" stroke="none"/>
      <path d="M6.75 39.05 L6.55 39.0 6.55 38.95 Q6.15 35.85 7.1 33.75 L7.25 33.65 Q8.5 32.6 11.3 31.4 12.8 30.75 15.15 27.95 L16.9 25.7 17.5 24.9 18.65 23.3 18.7 23.15 19.3 20.6 19.4 20.4 Q18.9 23.05 19.65 22.6 L18.35 25.0 16.85 26.9 15.95 27.95 Q12.85 31.45 10.5 32.35 7.35 33.65 7.25 35.9 L7.45 35.85 Q8.15 35.65 8.05 35.95 9.1 35.5 10.1 35.0 L12.1 34.1 Q10.25 35.6 7.0 36.7 7.6 38.05 6.75 39.05 M19.4 20.3 Q19.7 19.25 20.15 18.6 L20.25 18.55 Q20.55 18.65 20.7 19.4 L20.85 20.55 Q20.6 19.65 20.35 19.65 19.9 19.45 19.4 20.3 M21.15 18.5 Q23.0 18.4 24.75 16.35 L24.85 16.1 25.6 14.85 29.45 8.8 29.6 8.6 29.6 8.65 30.15 8.0 29.6 9.2 29.1 10.0 24.6 17.6 25.6 17.75 25.5 18.0 25.4 18.1 Q20.2 19.2 23.4 19.0 L21.4 19.2 21.35 19.2 21.3 19.2 21.3 19.15 21.3 19.05 21.15 18.5 M21.15 19.0 L21.2 19.1 21.15 19.05 21.15 19.0 21.1 19.0 21.1 18.95 21.15 19.0" fill="#d6c088" fill-rule="evenodd" stroke="none"/>
      <path d="M13.65 31.65 L13.95 31.45 10.1 35.0 Q9.1 35.5 8.05 35.95 8.15 35.65 7.45 35.85 L13.65 31.65" fill="#291e13" fill-rule="evenodd" stroke="none"/>
      <path d="M19.4 20.4 L19.4 20.3 Q19.9 19.45 20.35 19.65 20.6 19.65 20.85 20.55 20.95 20.85 19.85 22.5 L20.55 21.8 21.15 21.0 Q21.5 20.45 21.3 19.45 L21.3 19.3 21.3 19.2 21.35 19.2 21.4 19.2 23.4 19.0 Q20.2 19.2 25.4 18.1 L24.6 19.3 21.35 21.7 21.25 21.65 21.25 21.6 18.15 27.1 13.65 31.65 9.5 33.5 7.45 35.85 7.25 35.9 Q7.35 33.65 10.5 32.35 12.85 31.45 15.95 27.95 L16.85 26.9 18.35 25.0 19.65 22.6 Q18.9 23.05 19.4 20.4 M25.6 17.75 L24.6 17.6 29.1 10.0 25.6 17.75" fill="#aa8055" fill-rule="evenodd" stroke="none"/>
      <path d="M31.0 7.25 Q33.4 6.7 37.35 4.0 37.85 3.75 37.3 4.95 L36.95 5.55 Q34.8 6.4 34.2 7.5 34.25 8.2 30.7 9.6 L29.55 11.9 Q28.05 15.0 26.8 18.85 L26.8 18.9 25.65 20.35 22.95 23.5 M22.95 23.6 L22.85 23.65 Q21.3 24.4 20.65 26.3 L20.55 26.5 20.35 26.6 19.9 27.4 19.45 28.05 Q16.65 32.1 12.95 35.65 L12.85 35.9 Q10.65 38.35 10.0 39.5 8.9 40.0 6.75 39.05 L6.55 39.0 6.55 38.95 Q6.15 35.85 7.1 33.75 L7.25 33.65 Q8.5 32.6 11.3 31.4 12.8 30.75 15.15 27.95 L16.9 25.7 17.5 24.9 18.65 23.3 18.7 23.15 19.3 20.6 M19.4 20.3 Q19.7 19.25 20.15 18.6 L20.25 18.55 20.8 18.75 M20.8 18.55 L20.9 18.6 21.15 18.5 Q23.0 18.4 24.75 16.35 L24.85 16.1 25.6 14.85 29.45 8.8 29.6 8.6 29.6 8.65 30.15 8.0 30.7 7.2 30.75 7.2 30.75 7.15 30.8 7.15 M30.8 7.05 L31.0 7.25 M22.9 23.6 L22.95 23.5 M22.85 23.6 L22.85 23.65 22.9 23.6" fill="none" stroke="#000000" stroke-linecap="round" stroke-linejoin="round" stroke-opacity="0.3019608" stroke-width="0.25"/>
    </g>
    <g id="sprite1" transform="matrix(1.0, 0.0, 0.0, 1.0, 8.5, 25.3)">
      <use height="50.6" transform="matrix(1.0, 0.0, 0.0, 1.0, -8.5, -25.3)" width="17.05" xlink:href="#shape1"/>
    </g>
    <g id="shape1" transform="matrix(1.0, 0.0, 0.0, 1.0, 8.5, 25.3)">
      <path d="M1.55 -6.5 L1.65 -6.85 7.3 -25.05 8.3 -23.2 2.65 -5.8 -0.5 1.15 -1.75 12.25 -1.75 16.25 -1.5 17.55 -1.05 20.2 -1.5 17.55 0.8 19.15 0.8 22.3 0.15 22.95 -1.25 21.4 -1.05 20.2 -1.7 20.85 -4.05 15.95 -3.65 12.4 -3.3 9.2 -2.7 3.7 1.3 -5.85 1.4 -6.0 1.55 -6.5" fill="#b6a373" fill-rule="evenodd" stroke="none"/>
      <path d="M1.3 -5.85 L-2.7 3.7 -3.3 9.2 -3.65 12.4 -4.05 15.95 -1.7 20.85 -1.05 20.2 -1.25 21.4 -1.7 20.9 -1.25 21.4 0.15 22.95 -1.95 25.05 -5.1 23.35 -8.25 18.55 -8.25 9.95 -3.65 -0.1 1.3 -5.85 M-1.7 20.9 L-1.7 20.85 -1.7 20.9 -2.35 21.5 -5.7 17.3 Q-6.35 12.35 -4.25 8.9 -3.55 8.25 -3.3 9.2 -3.55 8.25 -4.25 8.9 -6.35 12.35 -5.7 17.3 L-2.35 21.5 -1.7 20.9" fill="#906d48" fill-rule="evenodd" stroke="none"/>
      <path d="M1.55 -6.5 L1.4 -6.0 1.3 -5.85 -3.65 -0.1 -8.25 9.95 -8.25 18.55 -5.1 23.35 -1.95 25.05 0.15 22.95 0.8 22.3 0.8 19.15 -1.5 17.55 -1.75 16.25 -1.75 12.25 -0.5 1.15 2.65 -5.8 8.3 -23.2 7.3 -25.05 1.65 -6.85 M-3.3 9.2 L-3.65 12.4 M-1.7 20.85 L-1.05 20.2 -1.5 17.55 M-1.7 20.9 L-2.35 21.5 -5.7 17.3 Q-6.35 12.35 -4.25 8.9 -3.55 8.25 -3.3 9.2 M-1.7 20.85 L-1.7 20.9 M-1.25 21.4 L-1.05 20.2" fill="none" stroke="#000000" stroke-linecap="round" stroke-linejoin="round" stroke-opacity="0.4" stroke-width="0.05"/>
      <path d="M-1.7 20.9 L-1.25 21.4 M0.15 22.95 L-1.25 21.4" fill="none" stroke="#000000" stroke-linecap="round" stroke-linejoin="round" stroke-opacity="0.3019608" stroke-width="0.25"/>
      <path d="M8.3 -23.2 L7.3 -25.05 1.4 -6.0 -3.65 -0.1 -8.25 9.95 -8.25 18.55 -5.1 23.35 -1.95 25.05 0.8 22.3 0.8 19.15 -1.5 17.55 -1.75 16.25 -1.75 12.25 -0.5 1.15 2.65 -5.8 8.3 -23.2 Z" fill="none" stroke="#000000" stroke-linecap="round" stroke-linejoin="round" stroke-opacity="0.2" stroke-width="0.5"/>
    </g>
    <g id="shape2" transform="matrix(1.0, 0.0, 0.0, 1.0, -20.25, -10.3)">
      <path d="M20.55 14.85 L20.45 14.6 20.35 14.2 20.4 14.05 20.3 14.0 20.3 13.6 20.3 12.6 20.35 12.25 Q20.5 11.55 21.1 11.15 L21.45 10.9 21.5 10.85 Q22.3 10.4 23.25 10.3 L22.15 11.7 22.05 11.95 21.9 12.1 21.85 12.15 21.7 12.45 21.65 12.5 21.4 12.85 21.0 13.75 20.95 13.8 20.75 14.3 20.65 14.55 20.55 14.85" fill="url(#gradient0)" fill-rule="evenodd" stroke="none"/>
      <path d="M23.25 10.3 L23.25 11.3 22.9 12.65 22.8 12.75 22.3 13.65 22.25 13.75 22.05 14.0 21.95 14.0 21.55 14.35 Q21.05 14.7 20.55 14.85 L20.65 14.55 20.75 14.3 20.95 13.8 21.0 13.75 21.4 12.85 21.65 12.5 21.7 12.45 21.85 12.15 22.05 11.95 22.15 11.7 23.25 10.3" fill="url(#gradient1)" fill-rule="evenodd" stroke="none"/>
      <path d="M20.55 14.85 L20.45 14.6 20.35 14.2 20.4 14.05 20.3 14.0 20.3 13.6 20.3 12.6 20.35 12.25 Q20.5 11.55 21.1 11.15 L21.45 10.9 21.5 10.85 Q22.3 10.4 23.25 10.3 L23.25 11.3 22.9 12.65 22.8 12.75 22.3 13.65 22.25 13.75 22.05 14.0 21.95 14.0 21.55 14.35 Q21.05 14.7 20.55 14.85 L20.65 14.55 20.75 14.3 20.95 13.8 21.0 13.75 21.4 12.85 21.65 12.5 21.7 12.45 21.85 12.15 21.9 12.1 22.05 11.95 22.15 11.7 23.25 10.3 M21.85 12.15 L22.05 11.95" fill="none" stroke="#000000" stroke-linecap="round" stroke-linejoin="round" stroke-opacity="0.2" stroke-width="0.05"/>
    </g>
    <linearGradient gradientTransform="matrix(9.0E-4, -0.0015, -7.0E-4, -7.0E-4, 21.2, 12.3)" gradientUnits="userSpaceOnUse" id="gradient0" spreadMethod="pad" x1="-819.2" x2="819.2">
      <stop offset="0.0" stop-color="#55b82e"/>
      <stop offset="1.0" stop-color="#abd015"/>
    </linearGradient>
    <linearGradient gradientTransform="matrix(9.0E-4, -0.0014, -5.0E-4, -5.0E-4, 21.8, 13.35)" gradientUnits="userSpaceOnUse" id="gradient1" spreadMethod="pad" x1="-819.2" x2="819.2">
      <stop offset="0.0" stop-color="#008f00"/>
      <stop offset="1.0" stop-color="#34a31a"/>
    </linearGradient>
  </defs>
</svg>
