<?xml version="1.0" encoding="UTF-8" standalone="no"?>
<svg xmlns:xlink="http://www.w3.org/1999/xlink" height="440.0px" width="440.0px" xmlns="http://www.w3.org/2000/svg">
  <g transform="matrix(10.0, 0.0, 0.0, 10.0, 0.0, 0.0)">
    <use height="44.0" transform="matrix(1.0, 0.0, 0.0, 1.0, 0.0, 0.0)" width="44.0" xlink:href="#shape0"/>
    <use height="16.75" transform="matrix(1.0649, 0.0101, -0.0101, 1.0649, 10.2, 7.45)" width="18.6" xlink:href="#sprite0"/>
    <use height="41.65" transform="matrix(1.0, 0.0, 0.0, 1.0, 1.45, 1.45)" width="41.6" xlink:href="#shape2"/>
  </g>
  <defs>
    <g id="shape0" transform="matrix(1.0, 0.0, 0.0, 1.0, 0.0, 0.0)">
      <path d="M44.0 44.0 L0.0 44.0 0.0 0.0 44.0 0.0 44.0 44.0" fill="#43adca" fill-opacity="0.0" fill-rule="evenodd" stroke="none"/>
      <path d="M5.15 29.6 L5.8 27.0 Q7.1 25.0 11.2 25.85 13.45 26.75 14.75 29.35 8.85 27.15 5.2 29.6 L5.15 29.6 M15.35 16.5 Q15.95 15.2 17.45 13.5 L23.5 13.7 Q25.2 14.6 26.55 16.9 20.3 13.4 15.35 16.5 M27.45 5.9 Q28.0 4.4 29.2 3.8 L29.25 3.8 33.1 3.45 Q35.25 4.1 35.7 6.55 31.0 4.55 27.45 5.9" fill="#645135" fill-rule="evenodd" stroke="none"/>
      <path d="M38.25 13.4 L36.5 15.2 23.55 28.9 Q15.8 37.3 7.0 42.55 L6.9 42.55 Q4.7 43.55 2.8 41.2 L2.55 40.8 Q4.4 42.1 10.15 39.25 L10.35 39.0 Q11.6 37.05 12.1 34.85 12.85 31.5 7.6 33.45 3.45 36.35 6.2 36.7 L4.0 38.1 Q2.95 37.95 4.2 35.05 7.55 31.2 10.6 31.05 15.85 31.4 14.4 34.3 17.6 33.2 19.35 31.05 21.65 28.25 20.75 24.45 24.05 24.15 28.7 18.95 37.05 9.35 37.0 7.65 41.8 4.15 37.75 1.7 38.95 1.8 40.7 2.85 L41.35 3.35 Q42.55 5.9 38.25 13.4" fill="#70663c" fill-rule="evenodd" stroke="none"/>
      <path d="M5.15 29.75 L5.15 29.6 5.2 29.6 5.15 29.75" fill="#c8a06c" fill-rule="evenodd" stroke="none"/>
      <path d="M41.35 3.35 Q42.4 4.4 42.8 7.3 41.85 9.15 38.25 13.4 42.55 5.9 41.35 3.35" fill="#8c864a" fill-rule="evenodd" stroke="none"/>
      <path d="M2.55 40.8 Q1.15 38.6 2.1 35.2 2.8 31.9 5.15 29.75 L5.2 29.6 Q8.85 27.15 14.75 29.35 13.45 26.75 11.2 25.85 7.1 25.0 5.8 27.0 6.6 24.9 9.4 22.25 L12.35 19.15 Q14.3 17.05 15.15 16.55 L15.35 16.5 Q20.3 13.4 26.55 16.9 25.2 14.6 23.5 13.7 L17.45 13.5 Q19.7 11.1 23.05 8.75 26.1 6.45 27.45 6.0 L27.45 5.9 Q31.0 4.55 35.7 6.55 35.25 4.1 33.1 3.45 L29.25 3.8 Q34.45 1.55 37.75 1.7 41.8 4.15 37.0 7.65 37.05 9.35 28.7 18.95 24.05 24.15 20.75 24.45 21.65 28.25 19.35 31.05 17.6 33.2 14.4 34.3 15.85 31.4 10.6 31.05 7.55 31.2 4.2 35.05 2.95 37.95 4.0 38.1 L6.2 36.7 Q3.45 36.35 7.6 33.45 12.85 31.5 12.1 34.85 11.6 37.05 10.35 39.0 L10.15 39.25 Q4.4 42.1 2.55 40.8" fill="url(#gradient0)" fill-rule="evenodd" stroke="none"/>
      <path d="M41.35 3.35 Q42.4 4.4 42.8 7.3 41.85 9.15 38.25 13.4 L36.5 15.2 23.55 28.9 Q15.8 37.3 7.0 42.55 L6.9 42.55 Q4.7 43.55 2.8 41.2 L2.55 40.8 Q1.15 38.6 2.1 35.2 2.8 31.9 5.15 29.75 L5.15 29.6 5.8 27.0 Q6.6 24.9 9.4 22.25 L12.35 19.15 Q14.3 17.05 15.15 16.55 L15.35 16.5 Q15.95 15.2 17.45 13.5 19.7 11.1 23.05 8.75 26.1 6.45 27.45 6.0 L27.45 5.9 Q28.0 4.4 29.2 3.8 L29.25 3.8 Q34.45 1.55 37.75 1.7 38.95 1.8 40.7 2.85 L41.35 3.35 M35.7 6.55 Q31.0 4.55 27.45 5.9 M26.55 16.9 Q20.3 13.4 15.35 16.5 M14.75 29.35 Q8.85 27.15 5.2 29.6 L5.15 29.75" fill="none" stroke="#382510" stroke-linecap="round" stroke-linejoin="round" stroke-opacity="0.3019608" stroke-width="0.7000000000000001"/>
      <path d="M20.9 16.0 Q22.15 17.5 19.3 20.4 L16.0 23.6 15.3 23.85 13.05 24.6 10.6 24.55 Q8.95 24.4 7.2 25.5 10.6 20.35 15.1 17.4 19.6 14.45 20.9 16.0 M3.05 32.85 Q4.6 29.8 6.9 29.15 8.5 28.3 8.75 30.75 6.85 31.6 5.05 33.15 3.25 34.7 2.7 35.65 2.15 36.6 3.05 32.85 M21.5 11.65 Q20.5 11.8 19.05 12.75 22.05 9.05 25.55 7.25 29.05 5.4 29.65 6.05 30.3 6.75 30.2 7.4 30.1 8.05 28.15 9.6 26.15 11.1 24.8 11.2 L22.95 11.4 21.5 11.65" fill="#b6a56d" fill-opacity="0.72156864" fill-rule="evenodd" stroke="none"/>
    </g>
    <radialGradient cx="0" cy="0" gradientTransform="matrix(0.021, -0.0095, 0.0095, 0.021, 7.35, 28.65)" gradientUnits="userSpaceOnUse" id="gradient0" r="819.2" spreadMethod="pad">
      <stop offset="0.0" stop-color="#989250"/>
      <stop offset="1.0" stop-color="#7a7241"/>
    </radialGradient>
    <g id="sprite0" transform="matrix(1.0, 0.0, 0.0, 1.0, 0.0, 0.0)">
      <use height="1.35" transform="matrix(0.2496, -0.0555, 0.1295, 0.5823, -7.0E-4, 15.9613)" width="3.15" xlink:href="#sprite1"/>
      <use height="1.35" transform="matrix(0.5823, -0.1295, 0.1295, 0.5823, 0.0829, 14.4483)" width="3.15" xlink:href="#sprite1"/>
      <use height="1.35" transform="matrix(0.5823, -0.1295, 0.1295, 0.5823, 1.7829, 14.6483)" width="3.15" xlink:href="#sprite1"/>
      <use height="1.35" transform="matrix(0.2496, -0.0555, 0.1295, 0.5823, 3.4493, 10.6113)" width="3.15" xlink:href="#sprite1"/>
      <use height="1.35" transform="matrix(0.5823, -0.1295, 0.1295, 0.5823, 7.3329, 10.3983)" width="3.15" xlink:href="#sprite1"/>
      <use height="1.35" transform="matrix(0.3605, -0.0802, 0.1295, 0.5823, 7.6438, 11.6236)" width="3.15" xlink:href="#sprite1"/>
      <use height="1.35" transform="matrix(0.5823, -0.1295, 0.1295, 0.5823, 15.8829, 4.4983)" width="3.15" xlink:href="#sprite1"/>
      <use height="1.35" transform="matrix(0.2496, -0.0555, 0.1295, 0.5823, 8.2493, 7.3613)" width="3.15" xlink:href="#sprite1"/>
      <use height="1.35" transform="matrix(0.5823, -0.1295, 0.1295, 0.5823, 10.7329, 8.0983)" width="3.15" xlink:href="#sprite1"/>
      <use height="1.35" transform="matrix(0.3882, -0.0863, 0.1295, 0.5823, 11.03, 4.2267)" width="3.15" xlink:href="#sprite1"/>
      <use height="1.35" transform="matrix(0.5823, -0.1295, 0.1295, 0.5823, 9.2829, 3.6483)" width="3.15" xlink:href="#sprite1"/>
      <use height="1.35" transform="matrix(0.4159, -0.0925, 0.1295, 0.5823, 14.3161, 1.4798)" width="3.15" xlink:href="#sprite1"/>
      <use height="1.35" transform="matrix(0.5823, -0.1295, 0.1295, 0.5823, 16.5829, 0.3983)" width="3.15" xlink:href="#sprite1"/>
    </g>
    <g id="sprite1" transform="matrix(1.0, 0.0, 0.0, 1.0, 0.5, 0.2)">
      <use height="1.35" transform="matrix(1.0, 0.0, 0.0, 1.0, -0.5, -0.2)" width="3.15" xlink:href="#shape1"/>
    </g>
    <g id="shape1" transform="matrix(1.0, 0.0, 0.0, 1.0, 0.5, 0.2)">
      <path d="M1.1 -0.2 L2.2 -0.05 2.65 0.5 2.2 0.95 1.1 1.15 Q2.35 0.5 1.1 -0.2" fill="#ceb67c" fill-rule="evenodd" stroke="none"/>
      <path d="M1.1 1.15 L-0.05 0.95 -0.5 0.5 -0.05 -0.05 1.1 -0.2 Q2.35 0.5 1.1 1.15" fill="#e8cd8c" fill-rule="evenodd" stroke="none"/>
    </g>
    <g id="shape2" transform="matrix(1.0, 0.0, 0.0, 1.0, -1.45, -1.45)">
      <path d="M41.35 3.35 Q42.4 4.4 42.8 7.3 41.85 9.15 38.25 13.4 L36.5 15.2 23.55 28.9 Q15.8 37.3 7.0 42.55 L6.9 42.55 Q4.7 43.55 2.8 41.2 L2.55 40.8 Q1.15 38.6 2.1 35.2 2.8 31.9 5.15 29.75 L5.15 29.6 5.8 27.0 Q6.6 24.9 9.4 22.25 L12.35 19.15 Q14.3 17.05 15.15 16.55 L15.35 16.5 Q15.95 15.2 17.45 13.5 19.7 11.1 23.05 8.75 26.1 6.45 27.45 6.0 L27.45 5.9 Q28.0 4.4 29.2 3.8 L29.25 3.8 Q34.45 1.55 37.75 1.7 38.95 1.8 40.7 2.85 L41.35 3.35 Z" fill="none" stroke="#000000" stroke-linecap="round" stroke-linejoin="round" stroke-opacity="0.3019608" stroke-width="0.5"/>
    </g>
  </defs>
</svg>
