<?xml version="1.0" encoding="UTF-8" standalone="no"?>
<svg xmlns:xlink="http://www.w3.org/1999/xlink" height="440.0px" width="440.0px" xmlns="http://www.w3.org/2000/svg">
  <g transform="matrix(10.0, 0.0, 0.0, 10.0, 0.0, 0.0)">
    <use height="44.0" transform="matrix(1.0, 0.0, 0.0, 1.0, 0.0, 0.0)" width="44.0" xlink:href="#shape0"/>
  </g>
  <defs>
    <g id="shape0" transform="matrix(1.0, 0.0, 0.0, 1.0, 0.0, 0.0)">
      <path d="M44.0 44.0 L0.0 44.0 0.0 0.0 44.0 0.0 44.0 44.0" fill="#43adca" fill-opacity="0.0" fill-rule="evenodd" stroke="none"/>
      <path d="M35.05 9.0 L35.2 9.05 15.3 30.5 15.05 30.2 15.0 30.15 14.95 30.15 14.9 30.1 14.9 30.05 14.7 29.9 35.05 9.0" fill="#225f56" fill-rule="evenodd" stroke="none"/>
      <path d="M14.7 29.9 L14.15 29.6 13.85 29.55 34.55 9.05 35.05 9.0 14.7 29.9" fill="#2e8174" fill-rule="evenodd" stroke="none"/>
      <path d="M35.2 9.05 L35.45 9.65 15.55 31.4 15.4 31.5 15.4 31.05 15.05 30.2 15.3 30.5 35.2 9.05" fill="#194740" fill-rule="evenodd" stroke="none"/>
      <path d="M14.7 29.9 L14.15 29.6 13.85 29.55 34.55 9.05 35.05 9.0 35.2 9.05 35.45 9.65 15.55 31.4 15.4 31.5 15.4 31.05 15.05 30.2 15.0 30.15 14.95 30.15 14.9 30.1 14.9 30.05 14.7 29.9 Z" fill="none" stroke="#000000" stroke-linecap="round" stroke-linejoin="round" stroke-opacity="0.3019608" stroke-width="0.05"/>
      <path d="M15.3 30.0 L15.55 30.35 15.8 30.8 8.75 36.7 8.65 36.8 6.25 39.1 5.8 38.65 5.6 38.75 7.8 37.0 15.3 30.0" fill="#876843" fill-rule="evenodd" stroke="none"/>
      <path d="M13.4 29.35 L13.35 29.4 13.4 29.35" fill="#d6c088" fill-rule="evenodd" stroke="none"/>
      <path d="M13.4 29.35 L13.35 29.35 13.4 29.35 M6.25 39.1 L8.65 36.8 8.75 36.7 15.8 30.8 15.75 31.8 15.7 32.25 Q15.35 32.3 13.1 34.5 10.8 36.6 7.25 40.95 L7.2 40.95 7.25 40.95 7.2 40.95 7.25 40.95 Q7.4 40.65 7.2 40.95 L7.0 40.65 6.8 40.4 6.45 39.85 6.6 39.8 5.75 39.45 6.25 39.1 M7.2 41.0 L7.15 41.05 7.2 40.95 7.2 41.0 7.2 40.95 7.2 41.0 M15.75 31.8 Q13.0 33.7 10.7 35.85 8.5 38.3 7.0 40.65 8.5 38.3 10.7 35.85 13.0 33.7 15.75 31.8 M8.65 36.8 L6.6 39.8 8.65 36.8" fill="#3b2c1c" fill-rule="evenodd" stroke="none"/>
      <path d="M7.2 40.95 L7.2 41.0 7.2 40.95 7.2 41.0 7.2 40.95 Q7.4 40.65 7.25 40.95 L7.2 40.95" fill="#8e483e" fill-rule="evenodd" stroke="none"/>
      <path d="M3.6 39.0 L4.6 38.8 5.6 38.75 5.8 38.65 6.25 39.1 5.75 39.45 6.6 39.8 6.45 39.85 6.8 40.4 7.0 40.65 7.2 40.95 Q5.35 41.25 3.95 39.4 L3.6 39.0 M5.35 39.75 L5.85 39.85 5.15 39.0 4.5 39.3 Q4.9 40.1 6.1 40.5 4.9 40.1 4.5 39.3 L5.15 39.0 5.85 39.85 5.35 39.75" fill="#966c3e" fill-rule="evenodd" stroke="none"/>
      <path d="M13.35 29.4 L13.4 29.35 14.15 29.45 14.7 29.7 12.8 31.15 8.55 35.1 8.35 35.35 4.6 38.8 3.6 39.0 Q4.3 37.65 5.05 37.05 L5.2 36.95 6.7 35.55 10.7 31.55 10.85 31.4 10.95 31.35 11.0 31.3 11.05 31.3 11.25 31.05 12.45 30.1 13.35 29.4 M5.2 36.95 L8.8 34.05 Q10.2 32.8 11.0 31.3 10.2 32.8 8.8 34.05 L5.2 36.95" fill="#d6b668" fill-rule="evenodd" stroke="none"/>
      <path d="M4.6 38.8 L8.35 35.35 8.55 35.1 12.8 31.15 14.7 29.7 15.3 30.0 7.8 37.0 5.6 38.75 4.6 38.8" fill="#ba9c62" fill-rule="evenodd" stroke="none"/>
      <path d="M13.4 29.35 L13.35 29.4 12.45 30.1 11.25 31.05 11.05 31.3 11.0 31.3 M5.2 36.95 L5.05 37.05 Q4.3 37.65 3.6 39.0 L4.6 38.8 5.6 38.75 5.8 38.65 6.25 39.1 8.65 36.8 8.75 36.7 M14.7 29.7 L14.15 29.45 13.4 29.35 M15.8 30.8 L15.55 30.35 15.3 30.0 14.7 29.7 M15.8 30.8 L15.75 31.8 15.7 32.25 Q15.35 32.3 13.1 34.5 10.8 36.6 7.25 40.95 L7.2 40.95 7.2 41.0 7.15 41.05 7.2 40.95 7.1 40.95 7.2 40.95 Q5.35 41.25 3.95 39.4 L3.6 39.0 M5.2 36.95 L6.7 35.55 10.7 31.55 10.85 31.4 10.95 31.35 11.0 31.3 M7.2 40.95 L7.25 40.95 7.2 40.95 7.2 41.0 7.2 40.95 7.2 41.0 7.2 40.95 7.25 40.95 7.2 40.95 Q7.4 40.65 7.25 40.95 L7.2 40.95 M6.8 40.4 L6.45 39.85 6.6 39.8 5.75 39.45 6.25 39.1 M6.6 39.8 L8.65 36.8" fill="none" stroke="#000000" stroke-linecap="round" stroke-linejoin="round" stroke-opacity="0.3019608" stroke-width="0.25"/>
      <path d="M11.0 31.3 Q10.2 32.8 8.8 34.05 L5.2 36.95 M11.0 31.3 L11.05 31.3 M7.0 40.65 Q8.5 38.3 10.7 35.85 13.0 33.7 15.75 31.8 M6.1 40.5 Q4.9 40.1 4.5 39.3 L5.15 39.0 5.85 39.85 5.35 39.75" fill="none" stroke="#000000" stroke-linecap="round" stroke-linejoin="round" stroke-opacity="0.15294118" stroke-width="0.25"/>
      <path d="M11.45 32.45 Q12.2 32.85 12.6 33.6 L12.55 33.5 11.6 32.35 12.4 31.4 Q13.2 31.85 13.55 32.7 L12.6 33.7 12.6 33.6 12.6 33.7 11.75 34.75 11.65 34.55 10.65 33.35 11.45 32.45" fill="#77caa0" fill-rule="evenodd" stroke="none"/>
      <path d="M10.0 34.15 L10.65 33.35 11.65 34.55 11.75 34.75 11.1 35.45 10.85 35.0 10.6 34.7 10.0 34.15" fill="#5bbf8d" fill-rule="evenodd" stroke="none"/>
      <path d="M10.0 34.15 L10.6 34.7 10.85 35.0 11.1 35.45 10.3 36.4 Q9.85 35.4 9.2 35.05 L10.0 34.15" fill="#40a271" fill-rule="evenodd" stroke="none"/>
      <path d="M6.2 35.95 L6.15 36.2 6.2 36.2 6.15 36.4 6.15 36.2 6.1 36.15 6.1 36.05 6.2 35.95 M7.75 36.65 L9.2 35.05 Q9.85 35.4 10.3 36.4 L8.85 38.0 Q8.4 37.1 7.75 36.65" fill="#3a9467" fill-rule="evenodd" stroke="none"/>
      <path d="M6.2 36.2 L6.15 36.2 6.2 35.95 6.25 35.85 Q6.6 34.7 7.65 34.6 8.55 34.55 9.2 35.05 L7.75 36.65 Q7.1 36.2 6.2 36.2" fill="#44b07a" fill-rule="evenodd" stroke="none"/>
      <path d="M9.2 35.05 Q8.55 34.55 7.65 34.6 7.55 33.55 8.75 33.55 L8.8 33.7 9.55 33.9 10.0 34.15 9.2 35.05" fill="#4ec489" fill-rule="evenodd" stroke="none"/>
      <path d="M8.75 33.55 Q8.7 33.2 9.35 32.8 L9.5 32.75 Q10.15 32.95 10.65 33.35 L10.0 34.15 9.55 33.9 8.8 33.7 8.75 33.55" fill="#66d69e" fill-rule="evenodd" stroke="none"/>
      <path d="M9.5 32.75 Q9.45 32.05 10.25 32.0 L10.4 32.0 11.25 32.3 11.45 32.45 10.65 33.35 Q10.15 32.95 9.5 32.75 M11.6 32.35 L10.45 31.75 Q10.4 31.0 11.2 31.0 L11.3 31.0 12.2 31.3 12.4 31.4 11.6 32.35" fill="#82deae" fill-rule="evenodd" stroke="none"/>
      <path d="M10.6 37.4 Q10.95 38.75 9.15 39.1 L8.85 38.0 10.3 36.4 10.6 37.4" fill="#307d56" fill-rule="evenodd" stroke="none"/>
      <path d="M11.2 35.85 L11.3 36.6 Q11.1 37.5 10.6 37.4 L10.3 36.4 11.1 35.45 11.2 35.85" fill="#388c62" fill-rule="evenodd" stroke="none"/>
      <path d="M12.05 35.75 Q12.05 36.5 11.35 36.4 L11.2 35.85 11.1 35.45 11.75 34.75 12.05 35.75" fill="#4da177" fill-rule="evenodd" stroke="none"/>
      <path d="M13.55 32.7 L13.8 33.55 Q14.15 34.9 12.95 34.7 L12.6 33.7 12.85 34.55 Q13.25 35.95 12.05 35.75 L11.75 34.75 12.6 33.7 13.55 32.7" fill="#5ea17e" fill-rule="evenodd" stroke="none"/>
      <path d="M6.2 35.95 L6.15 36.2 6.2 36.2 Q7.1 36.2 7.75 36.65 M9.2 35.05 Q8.55 34.55 7.65 34.6 6.6 34.7 6.25 35.85 L6.2 35.95 6.1 36.05 M6.1 36.15 L6.15 36.2 6.15 36.4 M7.65 34.6 Q7.55 33.55 8.75 33.55 8.7 33.2 9.35 32.8 L9.5 32.75 Q9.45 32.05 10.25 32.0 L10.4 32.0 11.25 32.3 11.45 32.45 Q12.2 32.85 12.6 33.6 L12.55 33.5 11.6 32.35 10.45 31.75 Q10.4 31.0 11.2 31.0 L11.3 31.0 12.2 31.3 12.4 31.4 Q13.2 31.85 13.55 32.7 L13.8 33.55 Q14.15 34.9 12.95 34.7 L12.6 33.7 12.85 34.55 Q13.25 35.95 12.05 35.75 12.05 36.5 11.35 36.4 L11.2 35.85 11.3 36.6 Q11.1 37.5 10.6 37.4 10.95 38.75 9.15 39.1 L8.85 38.0 Q8.4 37.1 7.75 36.65 M8.75 33.55 L8.8 33.7 9.55 33.9 10.0 34.15 10.6 34.7 10.85 35.0 11.1 35.45 11.2 35.85 M10.65 33.35 Q10.15 32.95 9.5 32.75 M11.75 34.75 L11.65 34.55 10.65 33.35 M12.6 33.7 L12.6 33.6 M9.2 35.05 Q9.85 35.4 10.3 36.4 M10.6 37.4 L10.3 36.4 M11.75 34.75 L12.05 35.75" fill="none" stroke="#000000" stroke-linecap="round" stroke-linejoin="round" stroke-opacity="0.3019608" stroke-width="0.05"/>
      <path d="M11.85 18.55 Q11.3 19.85 13.15 21.35 14.4 22.25 16.8 22.5 23.05 23.25 25.6 28.3 26.2 29.4 28.5 29.9 L29.6 30.2 Q26.35 30.4 25.4 29.25 26.4 30.6 26.1 31.25 L22.7 31.1 22.35 30.6 23.1 32.25 Q22.5 32.75 21.55 31.9 L24.25 34.95 Q24.3 35.75 22.8 36.4 L22.45 35.45 19.4 32.85 18.3 30.8 20.65 33.75 19.9 31.15 18.3 28.45 16.75 26.7 14.85 25.0 Q15.8 26.2 15.15 26.2 13.1 24.55 12.0 23.2 L11.4 22.05 Q10.75 20.6 11.85 18.55 M10.95 28.65 Q11.5 28.2 13.0 28.0 14.15 27.95 13.45 28.75 L10.95 28.65 M21.7 31.45 Q21.05 29.7 22.9 30.0 21.1 26.0 16.15 23.6 19.8 28.0 12.75 22.95 L18.4 27.4 Q20.7 29.0 21.7 31.45" fill="#ffffff" fill-rule="evenodd" stroke="none"/>
      <path d="M29.6 30.2 L26.65 31.9 Q25.65 32.65 26.0 34.55 L25.35 34.05 Q24.3 33.95 24.25 34.95 L21.55 31.9 Q22.5 32.75 23.1 32.25 L22.35 30.6 22.7 31.1 26.1 31.25 Q26.4 30.6 25.4 29.25 26.35 30.4 29.6 30.2 M22.8 36.4 L22.2 36.55 Q21.6 35.1 19.65 33.5 L18.65 32.65 Q17.45 31.75 15.8 31.0 L18.3 28.45 19.9 31.15 20.65 33.75 18.3 30.8 19.4 32.85 22.45 35.45 22.8 36.4 M16.75 26.7 L13.95 29.4 Q13.2 28.85 10.95 28.65 L13.45 28.75 Q14.15 27.95 13.0 28.0 13.55 27.45 13.6 25.65 L12.8 24.2 12.0 23.2 Q13.1 24.55 15.15 26.2 15.8 26.2 14.85 25.0 L16.75 26.7 M15.0 27.8 Q15.0 26.65 14.05 25.45 L12.8 24.2 14.05 25.45 Q15.0 26.65 15.0 27.8 M13.6 25.65 L13.8 27.3 13.6 25.65 M13.9 27.9 L13.0 28.0 13.9 27.9 M18.4 27.4 L12.75 22.95 Q19.8 28.0 16.15 23.6 21.1 26.0 22.9 30.0 21.05 29.7 21.7 31.45 20.7 29.0 18.4 27.4 M22.7 31.1 Q23.75 32.7 25.35 34.05 23.75 32.7 22.7 31.1" fill="#c1d0ce" fill-rule="evenodd" stroke="none"/>
      <path d="M11.85 18.55 L12.05 18.1 13.95 17.3 Q12.65 19.4 13.15 21.35 11.3 19.85 11.85 18.55" fill="#b6c4c2" fill-rule="evenodd" stroke="none"/>
      <path d="M13.15 21.35 Q12.65 19.4 13.95 17.3 L12.05 18.1 11.85 18.55 Q11.3 19.85 13.15 21.35 14.4 22.25 16.8 22.5 23.05 23.25 25.6 28.3 26.2 29.4 28.5 29.9 L29.6 30.2 26.65 31.9 Q25.65 32.65 26.0 34.55 L25.35 34.05 Q24.3 33.95 24.25 34.95 24.3 35.75 22.8 36.4 L22.2 36.55 Q21.6 35.1 19.65 33.5 L18.65 32.65 Q17.45 31.75 15.8 31.0 L18.3 28.45 16.75 26.7 13.95 29.4 Q13.2 28.85 10.95 28.65 11.5 28.2 13.0 28.0 13.55 27.45 13.6 25.65 L12.8 24.2 12.0 23.2 11.4 22.05 Q10.75 20.6 11.85 18.55 M13.0 28.0 L13.9 27.9 M13.8 27.3 L13.6 25.65 M12.8 24.2 L14.05 25.45 Q15.0 26.65 15.0 27.8 M18.3 28.45 L19.9 31.15 M14.85 25.0 L16.75 26.7 M21.7 31.45 Q20.7 29.0 18.4 27.4 M22.35 30.6 L22.7 31.1 M25.35 34.05 Q23.75 32.7 22.7 31.1 M24.25 34.95 L21.55 31.9" fill="none" stroke="#000000" stroke-linecap="round" stroke-linejoin="round" stroke-opacity="0.3019608" stroke-width="0.05"/>
      <path d="M26.15 2.4 L26.7 3.4 Q27.7 6.1 31.0 7.25 34.25 8.35 35.45 11.25 36.7 14.2 37.35 15.05 39.65 17.8 41.1 17.45 39.35 18.8 38.2 18.6 L36.5 18.15 Q34.95 17.4 32.95 15.7 L34.15 15.75 31.5 13.95 30.4 13.2 27.15 12.0 24.45 11.85 27.8 13.6 25.6 12.9 24.45 11.85 Q21.8 10.55 21.25 11.6 21.75 8.7 22.55 8.55 L26.1 10.6 Q25.1 9.85 25.4 9.15 L27.0 9.5 26.65 9.3 Q25.15 7.5 25.75 6.0 26.4 5.55 27.9 6.35 26.6 5.55 26.15 2.4 M34.25 19.8 Q34.5 21.0 33.85 21.4 L30.8 17.9 Q31.85 17.8 32.8 18.35 L34.25 19.8 M27.25 9.55 L27.0 9.5 27.25 9.55 M26.55 10.4 Q29.1 10.8 31.1 12.75 L36.6 17.4 Q30.25 11.55 35.3 14.2 31.9 9.9 27.65 8.9 28.35 10.65 26.55 10.4" fill="#ffffff" fill-rule="evenodd" stroke="none"/>
      <path d="M36.5 18.15 L35.85 17.95 Q34.45 18.6 34.25 19.8 L32.8 18.35 Q31.85 17.8 30.8 17.9 L33.85 21.4 Q30.75 18.15 28.75 16.95 L31.5 13.95 34.15 15.75 32.95 15.7 Q34.95 17.4 36.5 18.15 L36.15 18.0 36.5 18.15 M30.4 13.2 L27.65 15.95 Q27.0 14.8 26.35 14.2 L24.4 12.7 Q23.25 11.8 21.25 11.6 21.8 10.55 24.45 11.85 L25.6 12.9 27.8 13.6 24.45 11.85 27.15 12.0 30.4 13.2 M22.55 8.55 Q23.5 8.3 23.2 7.3 L22.6 6.75 Q24.55 6.75 25.05 5.6 25.65 4.55 26.15 2.4 26.6 5.55 27.9 6.35 26.4 5.55 25.75 6.0 25.15 7.5 26.65 9.3 L27.0 9.5 25.4 9.15 Q25.1 9.85 26.1 10.6 L22.55 8.55 M31.1 12.75 Q29.1 10.8 26.55 10.4 28.35 10.65 27.65 8.9 31.9 9.9 35.3 14.2 30.25 11.55 36.6 17.4 L31.1 12.75 M31.4 16.2 Q32.55 16.0 33.9 16.65 L35.35 17.65 35.5 17.75 35.85 17.9 35.9 17.9 36.15 18.0 36.0 17.9 36.15 18.0 35.9 17.9 36.0 17.9 35.85 17.95 Q32.85 17.0 32.15 17.25 32.85 17.0 35.85 17.95 L36.0 17.9 35.9 17.9 35.85 17.9 35.5 17.75 35.35 17.65 33.9 16.65 Q32.55 16.0 31.4 16.2 M23.2 7.3 Q24.85 8.6 26.65 9.3 24.85 8.6 23.2 7.3" fill="#c1d0ce" fill-rule="evenodd" stroke="none"/>
      <path d="M37.35 15.05 L41.9 15.15 41.5 17.15 41.1 17.45 Q39.65 17.8 37.35 15.05" fill="#b6c4c2" fill-rule="evenodd" stroke="none"/>
      <path d="M26.15 2.4 L26.7 3.4 Q27.7 6.1 31.0 7.25 34.25 8.35 35.45 11.25 36.7 14.2 37.35 15.05 L41.9 15.15 41.5 17.15 41.1 17.45 Q39.35 18.8 38.2 18.6 L36.5 18.15 35.85 17.95 Q34.45 18.6 34.25 19.8 34.5 21.0 33.85 21.4 30.75 18.15 28.75 16.95 L31.5 13.95 30.4 13.2 27.65 15.95 Q27.0 14.8 26.35 14.2 L24.4 12.7 Q23.25 11.8 21.25 11.6 21.75 8.7 22.55 8.55 23.5 8.3 23.2 7.3 L22.6 6.75 Q24.55 6.75 25.05 5.6 25.65 4.55 26.15 2.4 M26.65 9.3 L27.0 9.5 27.25 9.55 M30.4 13.2 L27.15 12.0 M26.55 10.4 Q29.1 10.8 31.1 12.75 M36.0 17.9 L36.15 18.0 35.9 17.9 36.0 17.9 35.85 17.95 Q32.85 17.0 32.15 17.25 M36.5 18.15 L36.15 18.0 M35.9 17.9 L35.85 17.9 35.5 17.75 35.35 17.65 33.9 16.65 Q32.55 16.0 31.4 16.2 M32.8 18.35 L34.25 19.8 M34.15 15.75 L31.5 13.95 M41.1 17.45 Q39.65 17.8 37.35 15.05 M26.65 9.3 Q24.85 8.6 23.2 7.3 M26.1 10.6 L22.55 8.55" fill="none" stroke="#000000" stroke-linecap="round" stroke-linejoin="round" stroke-opacity="0.3019608" stroke-width="0.05"/>
      <path d="M25.65 16.6 Q26.45 18.1 26.3 18.25 25.95 18.45 23.6 17.15 L26.2 19.2 30.15 19.5 Q32.55 19.2 34.15 20.45 36.15 22.1 34.85 23.8 35.9 21.85 33.55 22.9 L33.25 23.1 33.05 23.3 Q29.55 23.1 27.8 21.75 L24.95 19.45 Q27.25 21.75 27.4 23.35 L25.15 20.9 23.95 19.5 22.35 17.95 22.6 18.8 Q20.75 18.1 19.95 18.4 L21.15 18.75 Q23.05 20.95 20.15 20.75 18.9 20.0 17.55 19.5 15.7 19.35 14.75 20.3 14.65 19.3 16.1 18.4 L17.75 17.85 Q18.55 18.05 16.7 19.1 L17.7 18.75 19.45 16.8 19.7 16.5 20.55 14.95 20.6 14.6 20.55 14.5 Q20.55 13.5 19.85 12.55 L19.15 12.3 Q20.25 11.85 21.8 12.55 24.5 14.15 25.65 16.6 M31.5 25.0 L32.1 25.15 Q32.5 25.95 32.0 26.5 28.25 26.1 25.95 23.65 L28.6 24.3 31.5 25.0 M29.8 28.55 L30.6 29.6 Q28.8 28.5 27.5 27.2 L25.5 25.15 Q23.55 23.1 25.9 24.25 28.1 27.25 29.8 28.55" fill="#ffffff" fill-rule="evenodd" stroke="none"/>
      <path d="M25.65 16.6 Q27.05 18.9 30.15 19.5 L26.2 19.2 23.6 17.15 Q25.95 18.45 26.3 18.25 26.45 18.1 25.65 16.6 M33.05 23.3 Q31.4 24.6 31.5 25.0 L28.6 24.3 25.95 23.65 Q28.25 26.1 32.0 26.5 31.7 26.85 30.9 27.05 29.8 26.85 29.45 27.5 29.4 28.0 29.8 28.55 28.1 27.25 25.9 24.25 23.55 23.1 25.5 25.15 L27.5 27.2 Q24.65 25.65 22.8 23.65 L25.15 20.9 27.4 23.35 Q27.25 21.75 24.95 19.45 L27.8 21.75 Q29.55 23.1 33.05 23.3 M23.95 19.5 L23.4 20.05 21.1 22.3 Q18.15 19.75 14.75 20.3 15.7 19.35 17.55 19.5 18.9 20.0 20.15 20.75 23.05 20.95 21.15 18.75 L19.95 18.4 Q20.75 18.1 22.6 18.8 L22.35 17.95 23.95 19.5 M17.75 17.85 L19.45 16.8 17.7 18.75 16.7 19.1 Q18.55 18.05 17.75 17.85 M23.4 20.05 Q22.55 19.25 21.15 18.75 22.55 19.25 23.4 20.05" fill="#c1d0ce" fill-rule="evenodd" stroke="none"/>
      <path d="M34.85 23.8 L33.55 22.9 Q35.9 21.85 34.85 23.8 M20.55 14.5 Q20.3 14.15 19.35 14.75 18.6 13.0 19.15 12.3 L19.85 12.55 Q20.55 13.5 20.55 14.5" fill="#b4c2c0" fill-rule="evenodd" stroke="none"/>
      <path d="M30.15 19.5 Q27.05 18.9 25.65 16.6 M26.2 19.2 L30.15 19.5 Q32.55 19.2 34.15 20.45 36.15 22.1 34.85 23.8 L33.55 22.9 33.25 23.1 33.05 23.3 Q31.4 24.6 31.5 25.0 L32.1 25.15 Q32.5 25.95 32.0 26.5 31.7 26.85 30.9 27.05 29.8 26.85 29.45 27.5 29.4 28.0 29.8 28.55 L30.6 29.6 Q28.8 28.5 27.5 27.2 24.65 25.65 22.8 23.65 L25.15 20.9 23.95 19.5 23.4 20.05 21.1 22.3 Q18.15 19.75 14.75 20.3 14.65 19.3 16.1 18.4 L17.75 17.85 19.45 16.8 19.7 16.5 20.55 14.95 20.6 14.6 20.55 14.5 Q20.3 14.15 19.35 14.75 18.6 13.0 19.15 12.3 20.25 11.85 21.8 12.55 24.5 14.15 25.65 16.6 M25.15 20.9 L27.4 23.35 M33.55 22.9 Q35.9 21.85 34.85 23.8 M19.85 12.55 Q20.55 13.5 20.55 14.5 M19.45 16.8 L17.7 18.75 M22.35 17.95 L23.95 19.5 M21.15 18.75 L19.95 18.4 M21.15 18.75 Q22.55 19.25 23.4 20.05 M25.5 25.15 L27.5 27.2 M31.5 25.0 L28.6 24.3" fill="none" stroke="#000000" stroke-linecap="round" stroke-linejoin="round" stroke-opacity="0.3019608" stroke-width="0.05"/>
      <path d="M41.5 17.15 L41.1 17.45 Q39.35 18.8 38.2 18.6 L36.5 18.15 35.85 17.95 Q34.45 18.6 34.25 19.8 L34.3 20.6 Q36.1 22.15 34.85 23.8 L33.55 22.9 33.25 23.1 33.05 23.3 Q31.4 24.6 31.5 25.0 L32.1 25.15 Q32.5 25.95 32.0 26.5 31.7 26.85 30.9 27.05 29.8 26.85 29.45 27.5 29.4 28.0 29.8 28.55 L30.6 29.6 Q28.8 28.5 27.5 27.2 24.65 25.65 22.85 23.7 L22.1 24.35 Q24.3 25.75 25.6 28.3 26.2 29.4 28.5 29.9 L29.6 30.2 26.65 31.9 Q25.65 32.65 26.0 34.55 L25.35 34.05 Q24.3 33.95 24.25 34.95 24.3 35.75 22.8 36.4 L22.2 36.55 Q21.6 35.1 19.65 33.5 L18.65 32.65 15.9 31.05 15.8 31.15 15.7 32.25 13.85 33.8 Q14.05 34.9 12.95 34.7 L12.95 34.65 12.9 34.7 Q13.2 35.95 12.05 35.75 12.05 36.5 11.35 36.4 L11.35 36.25 11.3 36.3 11.3 36.6 Q11.1 37.5 10.6 37.4 10.95 38.75 9.15 39.1 L9.1 38.75 7.25 40.95 7.2 40.95 Q5.35 41.25 3.95 39.4 L3.6 39.0 Q4.3 37.65 5.05 37.05 L5.2 36.95 6.1 36.15 6.1 36.05 6.2 35.95 6.25 35.85 Q6.6 34.7 7.65 34.6 7.55 33.55 8.75 33.55 8.75 33.2 9.35 32.8 L9.5 32.75 Q9.45 32.05 10.25 32.0 L10.5 31.75 10.45 31.75 Q10.4 31.0 11.2 31.0 L11.35 31.0 12.45 30.1 13.35 29.4 13.4 29.35 13.95 29.45 Q13.2 28.85 10.95 28.65 11.5 28.2 13.0 28.0 13.55 27.45 13.6 25.65 L12.8 24.2 12.0 23.2 11.4 22.05 Q10.75 20.6 11.85 18.55 L12.05 18.1 13.95 17.3 Q12.65 19.4 13.15 21.35 14.4 22.25 16.8 22.5 L20.15 23.3 21.1 22.3 Q18.15 19.75 14.75 20.3 14.65 19.3 16.1 18.4 L17.75 17.85 19.45 16.8 19.7 16.5 20.55 14.95 20.6 14.6 20.55 14.5 Q20.3 14.15 19.35 14.75 18.6 13.0 19.15 12.3 20.25 11.85 21.8 12.55 24.5 14.15 25.65 16.6 L26.2 17.35 27.65 15.9 26.35 14.2 24.4 12.7 Q23.25 11.8 21.25 11.6 21.75 8.7 22.55 8.55 23.5 8.3 23.2 7.3 L22.6 6.75 Q24.55 6.75 25.05 5.6 25.65 4.55 26.15 2.4 L26.7 3.4 Q27.7 6.1 31.0 7.25 33.05 7.95 34.3 9.35 L34.55 9.05 35.05 9.0 35.2 9.05 35.45 9.65 34.95 10.25 35.45 11.25 Q36.7 14.2 37.35 15.05 L41.9 15.15 41.5 17.15 M27.4 18.45 Q28.55 19.2 30.15 19.5 L32.0 19.55 28.75 16.95 27.4 18.45" fill="none" stroke="#000000" stroke-linecap="round" stroke-linejoin="round" stroke-opacity="0.3019608" stroke-width="0.5"/>
    </g>
  </defs>
</svg>
