<?xml version="1.0" encoding="UTF-8" standalone="no"?>
<svg xmlns:xlink="http://www.w3.org/1999/xlink" height="440.0px" width="440.0px" xmlns="http://www.w3.org/2000/svg">
  <g transform="matrix(10.0, 0.0, 0.0, 10.0, 0.0, 0.0)">
    <use height="44.0" transform="matrix(1.0, 0.0, 0.0, 1.0, 0.0, 0.0)" width="44.0" xlink:href="#shape0"/>
    <use height="20.5" transform="matrix(0.3965, 0.3779, -0.3779, 0.3965, 31.3643, 1.1765)" width="24.75" xlink:href="#sprite0"/>
  </g>
  <defs>
    <g id="shape0" transform="matrix(1.0, 0.0, 0.0, 1.0, 0.0, 0.0)">
      <path d="M44.0 44.0 L0.0 44.0 0.0 0.0 44.0 0.0 44.0 44.0" fill="#43adca" fill-opacity="0.0" fill-rule="evenodd" stroke="none"/>
      <path d="M27.45 13.3 L27.1 13.6 27.45 13.3" fill="#332211" fill-rule="evenodd" stroke="none"/>
      <path d="M27.1 13.6 L26.55 14.3 26.5 14.3 27.1 13.6 M12.9 33.25 L12.2 33.95 12.9 33.25" fill="#664422" fill-rule="evenodd" stroke="none"/>
      <path d="M4.55 37.75 L5.0 37.7 5.4 37.8 5.85 37.9 6.05 38.0 11.95 31.65 6.5 38.25 6.85 38.85 29.5 13.7 29.7 14.3 8.8 36.65 8.85 36.7 6.15 39.7 5.65 39.45 5.1 39.0 4.7 38.55 4.5 37.85 4.55 37.75" fill="#58382b" fill-rule="evenodd" stroke="none"/>
      <path d="M7.8 38.8 L6.7 39.9 6.15 39.7 8.85 36.7 8.8 36.65 29.7 14.3 29.75 14.6 29.75 14.75 29.75 14.8 29.2 15.4 12.9 33.25 12.2 33.95 9.0 37.45 7.95 38.6 8.55 37.9 7.8 38.8 M9.0 37.45 L8.55 37.9 9.0 37.45" fill="#4d3125" fill-rule="evenodd" stroke="none"/>
      <path d="M11.95 31.65 L29.1 13.1 29.5 13.7 6.85 38.85 6.5 38.25 11.95 31.65" fill="#85523e" fill-rule="evenodd" stroke="none"/>
      <path d="M28.45 12.9 L6.6 36.2 6.85 36.15 5.4 37.8 5.0 37.7 4.55 37.75 6.3 35.85 6.4 35.85 26.55 14.3 27.1 13.6 27.45 13.3 27.75 12.9 27.8 12.9 27.8 12.95 27.95 12.9 28.45 12.9" fill="#bd7558" fill-rule="evenodd" stroke="none"/>
      <path d="M5.4 37.8 L6.85 36.15 6.6 36.2 28.45 12.9 29.1 13.1 11.95 31.65 6.05 38.0 5.85 37.9 5.4 37.8" fill="#a1664c" fill-rule="evenodd" stroke="none"/>
      <path d="M27.75 12.9 L27.45 13.3 27.1 13.6 26.55 14.3 6.4 35.85 M6.3 35.85 L4.55 37.75 M7.8 38.8 L6.7 39.9 6.15 39.7 5.65 39.45 5.1 39.0 4.7 38.55 4.5 37.85 4.55 37.75 M27.1 13.6 L26.5 14.3 M29.2 15.4 L12.9 33.25 12.2 33.95 9.0 37.45 7.95 38.6 7.8 38.8 8.55 37.9 9.0 37.45 M12.9 33.25 L12.2 33.95" fill="none" stroke="#000000" stroke-linecap="round" stroke-linejoin="round" stroke-opacity="0.33333334" stroke-width="0.25"/>
      <path d="M27.85 12.85 Q28.7 12.75 29.35 13.35 L29.85 14.6 26.85 18.0 24.9 16.55 26.45 14.35 26.1 14.75 27.85 12.85" fill="url(#gradient0)" fill-rule="evenodd" stroke="none"/>
      <path d="M18.45 22.5 L18.35 22.75 18.35 22.6 18.4 22.55 18.45 22.5" fill="#3a9467" fill-rule="evenodd" stroke="none"/>
      <path d="M18.45 22.35 L18.5 22.65 18.55 22.8 18.5 22.65 18.45 22.5 18.4 22.55 18.45 22.35" fill="#44b07a" fill-rule="evenodd" stroke="none"/>
      <path d="M19.75 22.8 L21.0 21.4 21.7 20.7 21.65 20.7 22.25 20.0 23.1 20.9 23.15 21.05 23.1 20.9 22.25 20.0 23.0 19.2 23.95 20.0 23.05 19.1 23.8 18.35 Q24.25 18.5 24.5 18.85 L24.8 19.3 24.0 20.15 23.15 21.05 22.6 21.65 21.9 22.45 Q21.6 21.7 21.0 21.4 21.6 21.7 21.9 22.45 L20.65 23.8 20.35 23.35 19.75 22.8 M24.0 20.15 L24.0 20.1 23.95 20.0 24.0 20.1 24.0 20.15 M22.6 21.65 L22.45 21.35 22.2 21.05 21.7 20.7 22.2 21.05 22.45 21.35 22.6 21.65" fill="#990000" fill-rule="evenodd" stroke="none"/>
      <path d="M18.45 22.35 L18.45 22.25 Q18.75 21.3 19.65 21.2 20.45 21.05 21.0 21.4 20.45 21.05 19.65 21.2 19.6 20.4 20.6 20.3 20.6 20.0 21.15 19.7 L21.3 19.6 Q21.25 19.0 21.95 18.9 L22.0 18.9 22.8 19.15 23.0 19.2 22.25 20.0 21.3 19.6 22.25 20.0 21.65 20.7 21.7 20.7 21.0 21.4 19.75 22.8 Q19.25 22.45 18.55 22.8 L18.5 22.65 18.45 22.35 M23.05 19.1 L21.9 18.9 Q22.05 18.15 22.65 18.05 L22.75 18.1 22.8 18.1 22.65 18.05 22.8 18.1 23.6 18.25 23.8 18.35 23.05 19.1 M21.65 20.7 L21.3 20.55 20.65 20.4 20.6 20.3 20.65 20.4 21.3 20.55 21.65 20.7" fill="#c70000" fill-rule="evenodd" stroke="none"/>
      <path d="M25.05 20.0 Q25.3 21.05 24.3 20.95 L24.0 20.15 24.2 20.85 Q24.5 21.9 23.45 21.85 23.5 22.45 22.85 22.4 L22.75 22.05 22.8 22.6 Q22.65 23.3 22.25 23.3 22.45 24.15 21.15 24.65 L20.95 24.65 20.55 24.8 Q20.85 24.2 20.65 23.8 L21.9 22.45 22.6 21.65 23.15 21.05 24.0 20.15 24.8 19.3 25.0 19.95 25.05 20.0 M23.45 21.85 L23.15 21.05 23.45 21.85 M22.75 22.05 L22.75 21.95 22.6 21.65 22.75 21.95 22.75 22.05 M22.25 23.3 L21.9 22.45 22.25 23.3" fill="#730000" fill-rule="evenodd" stroke="none"/>
      <path d="M18.55 22.8 Q19.25 22.45 19.75 22.8 L20.35 23.35 19.5 24.2 Q19.05 23.55 17.9 23.7 L18.5 22.65 18.55 22.8 M22.8 18.1 L23.45 17.35 Q24.6 17.35 25.2 18.2 L24.5 18.85 Q24.25 18.5 23.8 18.35 L23.6 18.25 22.8 18.1" fill="#666666" fill-rule="evenodd" stroke="none"/>
      <path d="M25.2 18.2 L25.65 19.35 25.05 20.0 25.0 19.95 24.8 19.3 24.5 18.85 25.2 18.2" fill="#545454" fill-rule="evenodd" stroke="none"/>
      <path d="M20.95 24.65 L19.85 25.5 Q19.85 24.65 19.5 24.2 L20.35 23.35 20.65 23.8 Q20.85 24.2 20.55 24.8 L20.95 24.65" fill="#454545" fill-rule="evenodd" stroke="none"/>
      <path d="M19.65 21.2 Q18.75 21.3 18.45 22.25 L18.45 22.35 18.5 22.65 18.55 22.8 Q19.25 22.45 19.75 22.8 M21.0 21.4 Q20.45 21.05 19.65 21.2 19.6 20.4 20.6 20.3 20.6 20.0 21.15 19.7 L21.3 19.6 Q21.25 19.0 21.95 18.9 L22.0 18.9 22.8 19.15 23.0 19.2 23.95 20.0 23.05 19.1 21.9 18.9 Q22.05 18.15 22.65 18.05 L22.75 18.1 22.8 18.1 23.6 18.25 23.8 18.35 Q24.25 18.5 24.5 18.85 M25.05 20.0 Q25.3 21.05 24.3 20.95 L24.0 20.15 24.2 20.85 Q24.5 21.9 23.45 21.85 23.5 22.45 22.85 22.4 L22.75 22.05 22.8 22.6 Q22.65 23.3 22.25 23.3 22.45 24.15 21.15 24.65 M18.5 22.65 L18.45 22.5 18.4 22.55 18.45 22.35 M18.5 22.65 L18.55 22.8 M24.8 19.3 L25.0 19.95 25.05 20.0 M23.15 21.05 L23.45 21.85 M23.95 20.0 L24.0 20.1 24.0 20.15 M24.8 19.3 L24.5 18.85 M23.15 21.05 L23.1 20.9 22.25 20.0 M21.65 20.7 L21.7 20.7 22.2 21.05 22.45 21.35 22.6 21.65 22.75 21.95 22.75 22.05 M21.9 22.45 L22.25 23.3 M20.6 20.3 L20.65 20.4 21.3 20.55 21.65 20.7 M20.95 24.65 L20.55 24.8 Q20.85 24.2 20.65 23.8 L20.35 23.35 19.75 22.8 M21.9 22.45 Q21.6 21.7 21.0 21.4 M21.3 19.6 L22.25 20.0" fill="none" stroke="#000000" stroke-linecap="round" stroke-linejoin="round" stroke-opacity="0.3019608" stroke-width="0.05"/>
      <path d="M22.8 18.1 L23.45 17.35 Q24.6 17.35 25.2 18.2 L25.65 19.35 25.05 20.0 M21.15 24.65 L20.95 24.65 19.85 25.5 Q19.85 24.65 19.5 24.2 19.05 23.55 17.9 23.7 L18.5 22.65 M22.65 18.05 L22.8 18.1" fill="none" stroke="#000000" stroke-linecap="round" stroke-linejoin="round" stroke-opacity="0.33333334" stroke-width="0.25"/>
    </g>
    <linearGradient gradientTransform="matrix(-0.0012, 0.0019, 3.0E-4, 4.0E-4, 29.25, 15.9)" gradientUnits="userSpaceOnUse" id="gradient0" spreadMethod="pad" x1="-819.2" x2="819.2">
      <stop offset="0.0" stop-color="#000000" stop-opacity="0.5019608"/>
      <stop offset="1.0" stop-color="#000000" stop-opacity="0.0"/>
    </linearGradient>
    <g id="sprite0" transform="matrix(1.0, 0.0, 0.0, 1.0, 12.35, 32.05)">
      <use height="20.5" transform="matrix(1.0, 0.0, 0.0, 1.0, -12.35, -32.05)" width="24.75" xlink:href="#shape1"/>
    </g>
    <g id="shape1" transform="matrix(1.0, 0.0, 0.0, 1.0, 12.35, 32.05)">
      <path d="M1.55 -29.35 Q1.15 -30.15 0.45 -30.3 L0.35 -30.3 Q-0.3 -30.3 -0.9 -28.6 L-1.3 -27.6 -1.3 -27.55 -1.05 -24.0 Q-2.0 -24.8 -1.75 -23.8 L-1.8 -23.95 -1.85 -23.95 -1.8 -24.45 -1.85 -26.55 -1.85 -27.0 -1.85 -27.05 -1.85 -27.2 -1.9 -27.2 Q-1.9 -28.05 -1.5 -28.9 -1.05 -30.05 0.0 -31.35 L0.25 -31.15 Q1.1 -30.35 1.55 -29.35 M2.0 -27.15 L2.05 -27.45 2.1 -27.1 3.2 -27.9 Q6.55 -30.0 12.4 -30.35 L11.2 -29.8 11.15 -29.75 10.2 -29.25 Q10.1 -29.4 11.0 -29.75 L9.05 -29.25 9.0 -29.5 7.55 -29.2 Q6.7 -29.1 5.4 -28.45 L3.15 -27.45 2.0 -26.95 2.0 -27.15 M-3.4 -16.75 Q-4.1 -17.15 -4.6 -17.8 L-3.65 -18.55 -3.55 -18.45 -3.5 -17.2 -3.4 -16.75 M-4.85 -18.5 L-5.2 -21.9 -4.15 -22.1 -4.2 -22.05 -4.05 -21.15 -3.9 -20.1 -3.85 -19.2 -4.85 -18.5 M-5.25 -22.4 L-5.45 -24.3 -6.55 -25.9 -6.5 -25.9 -6.6 -26.0 -8.35 -27.75 -9.6 -28.8 -11.1 -29.75 -12.35 -30.35 Q-6.15 -29.95 -2.55 -27.5 L-1.9 -27.05 -1.9 -27.0 -1.9 -26.95 -2.55 -27.15 -2.7 -27.25 -4.0 -27.7 -6.35 -28.5 -8.4 -28.85 Q-5.8 -27.25 -4.45 -24.3 L-4.3 -22.4 -5.25 -22.4" fill="#ffffff" fill-rule="evenodd" stroke="none"/>
      <path d="M1.25 -23.7 Q1.95 -24.05 2.0 -24.4 L1.9 -23.45 1.95 -23.45 1.9 -23.4 1.8 -23.35 Q1.1 -22.65 0.05 -22.65 -1.05 -22.7 -1.4 -23.2 L-1.75 -23.8 Q-2.0 -24.8 -1.05 -24.0 L-1.0 -24.0 Q0.0 -23.2 1.0 -23.6 L1.25 -23.7 M1.95 -25.15 Q1.85 -26.2 2.0 -27.15 L2.0 -26.95 2.0 -26.15 1.95 -25.15 M5.15 -18.9 L5.15 -18.8 5.05 -18.85 5.05 -18.9 5.15 -18.9 M-1.9 -27.05 L-1.9 -27.15 -1.9 -27.2 -1.85 -27.2 -1.85 -27.05 -1.85 -27.0 -1.9 -26.95 -1.9 -27.0 -1.9 -27.05 M-4.2 -22.0 L-4.2 -22.05 -4.15 -22.1 -4.2 -22.0" fill="#f7e99d" fill-rule="evenodd" stroke="none"/>
      <path d="M1.25 -27.95 L1.25 -27.9 1.25 -23.7 1.0 -23.6 Q0.0 -23.2 -1.0 -24.0 L-1.05 -24.0 -1.3 -27.55 -1.3 -27.6 -0.9 -27.9 Q-0.2 -28.5 1.25 -27.9 L0.8 -28.15 1.25 -27.95 M1.95 -25.1 L1.95 -25.15 2.0 -26.15 1.95 -25.1 M2.0 -24.4 L2.05 -23.75 2.0 -24.4 M-1.85 -27.05 L-1.85 -27.2 -1.85 -27.05" fill="#cab36c" fill-rule="evenodd" stroke="none"/>
      <path d="M1.55 -29.35 L1.65 -29.2 2.05 -27.45 2.0 -27.15 Q1.85 -26.2 1.95 -25.15 L1.95 -25.1 1.95 -24.85 2.0 -24.4 1.95 -24.85 1.95 -25.1 2.0 -26.15 2.0 -26.95 3.15 -27.45 2.55 -22.4 2.05 -22.4 2.05 -23.75 2.0 -24.4 Q1.95 -24.05 1.25 -23.7 L1.25 -27.9 1.25 -27.95 Q1.1 -29.3 0.35 -30.3 L0.45 -30.3 Q1.15 -30.15 1.55 -29.35 M10.2 -29.25 Q7.8 -27.9 6.15 -25.8 L5.25 -24.5 5.25 -22.4 4.05 -22.4 4.15 -23.4 4.2 -23.6 4.25 -23.75 4.4 -24.0 4.6 -25.0 Q6.25 -27.65 9.0 -29.5 L9.05 -29.25 11.0 -29.75 Q10.1 -29.4 10.2 -29.25 M5.25 -21.8 L5.15 -18.9 5.05 -18.9 5.05 -18.85 4.05 -19.3 4.05 -22.0 4.95 -21.9 5.25 -21.8 M4.9 -18.1 L4.2 -17.4 Q3.1 -16.4 1.95 -16.3 L0.7 -16.3 0.55 -16.3 0.55 -20.3 0.8 -20.25 1.4 -20.2 1.5 -20.2 1.55 -20.2 2.45 -19.65 Q2.65 -18.6 3.1 -17.6 L4.05 -18.2 4.05 -18.6 4.9 -18.1 M-1.75 -16.25 L-2.3 -16.35 -2.35 -16.35 -2.65 -16.4 -2.2 -16.6 -1.65 -17.05 Q-1.55 -17.35 -1.6 -18.1 L-2.05 -19.8 -1.45 -20.3 -1.4 -20.2 -0.95 -20.25 -0.6 -20.3 -0.6 -16.3 -0.85 -16.3 -1.75 -16.25 M2.35 -20.05 L2.2 -20.1 1.65 -20.45 2.05 -22.2 2.55 -22.15 2.4 -20.2 Q2.3 -20.3 2.35 -20.05 M-2.55 -27.15 L-1.9 -26.95 -1.85 -27.0 -1.85 -26.55 -1.8 -24.45 -1.85 -23.95 -1.9 -22.65 -1.9 -22.4 -2.75 -22.4 -2.55 -27.15 M-1.9 -22.25 L-1.85 -21.85 -1.55 -20.5 -2.15 -20.15 -2.7 -22.15 -1.9 -22.25" fill="#b8a050" fill-rule="evenodd" stroke="none"/>
      <path d="M0.05 -15.4 L0.5 -15.4 -0.3 -15.3 -1.45 -14.8 -1.6 -14.65 -1.65 -14.65 -1.6 -14.65 -1.65 -14.65 -1.6 -14.65 -1.45 -14.8 -0.3 -15.3 -0.35 -15.25 Q-0.4 -15.2 -1.05 -14.9 L-1.4 -14.75 -1.55 -14.65 -1.55 -14.7 -1.6 -14.65 -1.65 -14.6 -1.3 -15.0 0.05 -15.4 M-1.05 -14.9 L-1.1 -14.9 -1.45 -14.8 -1.1 -14.9 -1.05 -14.9 -1.65 -14.6 -1.6 -14.65 -1.55 -14.65 -1.6 -14.65 -1.55 -14.7 -1.55 -14.65 -1.4 -14.75 -1.05 -14.9 M-1.1 -14.9 L-1.4 -14.75 -1.55 -14.7 -1.45 -14.8 -1.55 -14.7 -1.4 -14.75 -1.1 -14.9" fill="#666666" fill-rule="evenodd" stroke="none"/>
      <path d="M2.0 -24.4 L2.05 -23.75 2.05 -22.4 2.05 -22.25 2.05 -22.2 1.65 -20.45 1.55 -20.2 1.5 -20.2 1.4 -20.2 0.8 -20.25 0.55 -20.3 -0.6 -20.3 -0.95 -20.25 -1.4 -20.2 -1.45 -20.3 -1.55 -20.5 -1.85 -21.85 -1.9 -22.25 -1.9 -22.4 -1.9 -22.65 -1.85 -23.95 -1.8 -23.95 -1.75 -23.8 -1.4 -23.2 Q-1.05 -22.7 0.05 -22.65 1.1 -22.65 1.8 -23.35 L1.9 -23.4 1.95 -23.45 1.9 -23.45 2.0 -24.4" fill="#918362" fill-rule="evenodd" stroke="none"/>
      <path d="M-3.0 -11.85 L-3.05 -11.85 -1.9 -13.45 -1.75 -14.4 -1.65 -14.6 -1.6 -14.65 -1.65 -14.6 -1.05 -14.9 Q-0.4 -15.2 -0.35 -15.25 L-0.3 -15.3 0.5 -15.4 0.05 -15.4 -0.05 -15.4 0.7 -15.35 0.7 -13.65 -0.6 -13.7 Q-2.1 -12.95 -3.0 -11.85 M-1.6 -14.65 L-1.55 -14.65 -1.6 -14.65" fill="#b4b4b4" fill-rule="evenodd" stroke="none"/>
      <path d="M-6.55 -25.9 L-6.6 -26.0 -6.5 -25.9 -6.55 -25.9" fill="#f2de68" fill-rule="evenodd" stroke="none"/>
      <path d="M1.85 -13.25 L3.45 -12.0 2.65 -11.55 2.65 -11.65 -2.2 -11.8 -3.0 -11.85 Q-2.1 -12.95 -0.6 -13.7 L0.7 -13.65 1.85 -13.25" fill="#cccccc" fill-rule="evenodd" stroke="none"/>
      <path d="M1.95 -14.75 L1.85 -13.25 0.7 -13.65 0.7 -15.35 1.95 -14.75" fill="#969696" fill-rule="evenodd" stroke="none"/>
      <path d="M0.35 -30.3 Q1.1 -29.3 1.25 -27.95 L0.8 -28.15 1.25 -27.9 Q-0.2 -28.5 -0.9 -27.9 L-1.3 -27.6 -0.9 -28.6 Q-0.3 -30.3 0.35 -30.3 M-2.65 -16.4 L-3.4 -16.75 -3.5 -17.2 -3.55 -18.45 -3.65 -18.55 -2.05 -19.8 -1.6 -18.1 Q-1.55 -17.35 -1.65 -17.05 L-2.2 -16.6 -2.65 -16.4 M3.15 -27.45 L5.4 -28.45 Q6.7 -29.1 7.55 -29.2 L9.0 -29.5 Q6.25 -27.65 4.6 -25.0 L4.4 -24.0 4.25 -23.75 4.2 -23.6 4.15 -23.4 4.05 -22.4 2.55 -22.4 3.15 -27.45 M2.55 -22.15 L4.05 -22.0 4.05 -19.3 2.35 -20.05 Q2.3 -20.3 2.4 -20.2 L2.55 -22.15 M2.45 -19.65 L4.05 -18.6 4.05 -18.2 3.1 -17.6 Q2.65 -18.6 2.45 -19.65 M-4.3 -22.4 L-4.45 -24.3 Q-5.8 -27.25 -8.4 -28.85 L-6.35 -28.5 -4.0 -27.7 -2.7 -27.25 -2.55 -27.15 -2.75 -22.4 -4.3 -22.4 M-1.9 -26.95 L-1.9 -27.0 -1.9 -26.95 M-2.7 -22.15 L-2.15 -20.15 -3.85 -19.2 -3.9 -20.1 -4.05 -21.15 -4.2 -22.05 -4.2 -22.0 -2.7 -22.15" fill="#d7c873" fill-rule="evenodd" stroke="none"/>
      <path d="M5.25 -22.4 L5.25 -21.8 4.95 -21.9 4.05 -22.0 2.55 -22.15 2.05 -22.2 2.05 -22.25 2.05 -22.4 2.55 -22.4 4.05 -22.4 5.25 -22.4 M5.15 -18.8 L5.1 -18.5 5.05 -18.4 4.95 -18.1 4.9 -18.1 4.05 -18.6 2.45 -19.65 1.55 -20.2 1.65 -20.45 2.2 -20.1 2.35 -20.05 4.05 -19.3 5.05 -18.85 5.15 -18.8 M-1.75 -14.4 L-1.75 -16.25 -0.85 -16.3 -0.6 -16.3 -0.6 -20.3 0.55 -20.3 0.55 -16.3 0.7 -16.3 0.7 -15.35 -0.05 -15.4 0.05 -15.4 -1.3 -15.0 -1.65 -14.6 -1.75 -14.4 M-4.6 -17.8 L-4.8 -18.05 -4.85 -18.5 -3.85 -19.2 -2.15 -20.15 -1.55 -20.5 -1.45 -20.3 -2.05 -19.8 -3.65 -18.55 -4.6 -17.8 M-5.2 -21.9 L-5.25 -22.4 -4.3 -22.4 -2.75 -22.4 -1.9 -22.4 -1.9 -22.25 -2.7 -22.15 -4.2 -22.0 -4.15 -22.1 -5.2 -21.9" fill="#4a4a4a" fill-rule="evenodd" stroke="none"/>
      <path d="M1.95 -16.3 L1.95 -14.75 0.7 -15.35 0.7 -16.3 1.95 -16.3" fill="#3b3b3b" fill-rule="evenodd" stroke="none"/>
      <path d="M-1.75 -16.25 L-2.3 -16.35 M-2.35 -16.35 L-2.65 -16.4 -3.4 -16.75 Q-4.1 -17.15 -4.6 -17.8 L-4.8 -18.05 -4.85 -18.5 -5.2 -21.9 -5.25 -22.4 -5.45 -24.3 -6.55 -25.9 -6.6 -26.0 -6.5 -25.9 M-0.6 -16.3 L-0.85 -16.3 -1.75 -16.25" fill="none" stroke="#918362" stroke-linecap="round" stroke-linejoin="round" stroke-width="0.05"/>
      <path d="M1.95 -16.3 L1.95 -14.75 1.85 -13.25 3.45 -12.0 2.65 -11.55 2.65 -11.65 -2.2 -11.8 -3.0 -11.85 -3.05 -11.85 -1.9 -13.45 -1.75 -14.4 -1.75 -16.25 M0.05 -15.4 L-1.3 -15.0 -1.65 -14.6 -1.6 -14.65 -1.65 -14.65 -1.6 -14.65 -1.45 -14.8 -0.3 -15.3 0.5 -15.4 M-1.45 -14.8 L-1.1 -14.9 -1.05 -14.9 Q-0.4 -15.2 -0.35 -15.25 L-0.3 -15.3 M-1.45 -14.8 L-1.55 -14.7 -1.4 -14.75 -1.1 -14.9 M-1.6 -14.65 L-1.55 -14.7 -1.55 -14.65 -1.4 -14.75 -1.05 -14.9 -1.65 -14.6 -1.6 -14.65 -1.55 -14.65 -1.6 -14.65 M-1.75 -14.4 L-1.65 -14.6 M0.05 -15.4 L-0.05 -15.4 0.7 -15.35" fill="none" stroke="#666666" stroke-linecap="round" stroke-linejoin="round" stroke-width="0.05"/>
      <path d="M2.05 -27.45 L1.65 -29.2 1.55 -29.35 M2.0 -24.4 L1.95 -24.85 1.95 -25.1 M1.95 -25.15 Q1.85 -26.2 2.0 -27.15 L2.05 -27.45 2.1 -27.1 3.2 -27.9 Q6.55 -30.0 12.4 -30.35 L11.15 -29.75 10.2 -29.25 Q7.8 -27.9 6.15 -25.8 L5.25 -24.5 5.25 -22.4 5.25 -21.8 5.15 -18.9 5.15 -18.8 5.1 -18.5 5.05 -18.4 4.95 -18.1 4.9 -18.1 4.2 -17.4 Q3.1 -16.4 1.95 -16.3 L0.7 -16.3 0.55 -16.3 M-6.6 -26.0 L-8.35 -27.75 -9.6 -28.8 -11.1 -29.75 -12.35 -30.35 Q-6.15 -29.95 -2.55 -27.5 L-1.9 -27.05 -1.9 -27.15 -1.9 -27.2 Q-1.9 -28.05 -1.5 -28.9 -1.05 -30.05 0.0 -31.35 L0.25 -31.15 Q1.1 -30.35 1.55 -29.35 M2.0 -27.15 L2.0 -26.95 2.0 -26.15 1.95 -25.15 M2.0 -26.15 L1.95 -25.1 M11.15 -29.75 L11.2 -29.8 12.4 -30.35 M4.25 -23.75 L4.4 -24.0 4.6 -25.0 M2.05 -23.75 L2.0 -24.4 M2.05 -23.75 L2.05 -22.4 M2.05 -22.2 L2.05 -22.25 2.05 -22.4 M2.05 -22.2 L1.65 -20.45 1.55 -20.2 M1.5 -20.2 L1.55 -20.2 M-1.9 -27.0 L-1.9 -27.05 -1.9 -27.0 -1.9 -26.95 -1.85 -27.0 -1.85 -27.05 -1.85 -27.2 -1.85 -27.05 M-1.85 -27.0 L-1.85 -26.55 -1.8 -24.45 -1.85 -23.95 M-1.55 -20.5 L-1.85 -21.85 -1.9 -22.25 -1.9 -22.4 -1.9 -22.65 -1.85 -23.95" fill="none" stroke="#000000" stroke-linecap="round" stroke-linejoin="round" stroke-opacity="0.3019608" stroke-width="0.05"/>
      <path d="M2.15 -26.95 Q1.5 -25.65 0.2 -25.3 L-2.2 -25.5 Q-3.35 -26.2 -3.7 -27.55 -4.05 -28.85 -3.4 -30.15 -2.75 -31.45 -1.5 -31.9 -0.25 -32.3 0.9 -31.6 2.1 -30.95 2.4 -29.65 2.8 -28.25 2.15 -26.95" fill="url(#gradient1)" fill-rule="evenodd" stroke="none"/>
      <path d="M-1.45 -19.3 Q-2.1 -18.0 -3.4 -17.65 L-5.8 -17.85 Q-6.95 -18.55 -7.3 -19.9 -7.65 -21.2 -7.0 -22.5 -6.35 -23.8 -5.1 -24.25 -3.85 -24.65 -2.7 -23.95 -1.5 -23.3 -1.2 -22.0 -0.8 -20.6 -1.45 -19.3" fill="url(#gradient2)" fill-rule="evenodd" stroke="none"/>
    </g>
    <radialGradient cx="0" cy="0" gradientTransform="matrix(0.0035, 0.002, -0.002, 0.0039, -0.65, -28.55)" gradientUnits="userSpaceOnUse" id="gradient1" r="819.2" spreadMethod="pad">
      <stop offset="0.0" stop-color="#ffffff"/>
      <stop offset="0.24313725490196078" stop-color="#ffffff"/>
      <stop offset="0.26666666666666666" stop-color="#ffffff" stop-opacity="0.56078434"/>
      <stop offset="0.9333333333333333" stop-color="#ffffff" stop-opacity="0.0"/>
    </radialGradient>
    <radialGradient cx="0" cy="0" gradientTransform="matrix(0.0035, 0.002, -0.002, 0.0039, -4.25, -20.9)" gradientUnits="userSpaceOnUse" id="gradient2" r="819.2" spreadMethod="pad">
      <stop offset="0.0" stop-color="#ffffff"/>
      <stop offset="0.24313725490196078" stop-color="#ffffff"/>
      <stop offset="0.26666666666666666" stop-color="#ffffff" stop-opacity="0.56078434"/>
      <stop offset="0.9333333333333333" stop-color="#ffffff" stop-opacity="0.0"/>
    </radialGradient>
  </defs>
</svg>
