<?xml version="1.0" encoding="UTF-8" standalone="no"?>
<svg xmlns:xlink="http://www.w3.org/1999/xlink" height="440.0px" width="440.0px" xmlns="http://www.w3.org/2000/svg">
  <g transform="matrix(10.0, 0.0, 0.0, 10.0, 0.0, 0.0)">
    <use height="44.0" transform="matrix(1.0, 0.0, 0.0, 1.0, 0.0, 0.0)" width="44.0" xlink:href="#shape0"/>
  </g>
  <defs>
    <g id="shape0" transform="matrix(1.0, 0.0, 0.0, 1.0, 0.0, 0.0)">
      <path d="M44.0 44.0 L0.0 44.0 0.0 0.0 44.0 0.0 44.0 44.0" fill="#43adca" fill-opacity="0.0" fill-rule="evenodd" stroke="none"/>
      <path d="M34.65 8.15 L35.2 7.7 34.7 8.15 34.65 8.15" fill="#332211" fill-rule="evenodd" stroke="none"/>
      <path d="M14.2 33.45 L13.3 34.35 13.25 34.35 14.2 33.45 M33.85 9.0 L33.8 9.0 34.65 8.15 34.7 8.15 33.85 9.0" fill="#664422" fill-rule="evenodd" stroke="none"/>
      <path d="M37.95 8.45 L38.15 9.2 8.5 37.8 8.55 37.8 4.65 41.65 4.05 41.25 3.3 40.7 2.8 39.95 2.6 39.05 2.65 38.95 3.3 38.9 3.8 39.0 4.4 39.25 4.65 39.4 13.05 31.25 5.25 39.75 5.6 40.6 37.95 8.45" fill="#58382b" fill-rule="evenodd" stroke="none"/>
      <path d="M38.15 9.2 L38.15 9.55 38.2 9.85 37.4 10.7 14.2 33.45 13.25 34.35 8.7 38.85 7.15 40.35 8.05 39.45 6.95 40.55 5.45 41.95 4.65 41.65 8.55 37.8 8.5 37.8 38.15 9.2 M8.05 39.45 L8.7 38.85 8.05 39.45" fill="#4d3125" fill-rule="evenodd" stroke="none"/>
      <path d="M37.5 7.65 Q37.7 7.7 37.95 8.45 L5.6 40.6 5.25 39.75 13.05 31.25 37.5 7.65" fill="#85523e" fill-rule="evenodd" stroke="none"/>
      <path d="M2.65 38.95 L5.2 36.5 5.3 36.55 33.85 9.0 34.7 8.15 35.2 7.7 35.55 7.3 35.6 7.3 35.65 7.3 35.9 7.25 36.55 7.25 5.5 36.95 5.8 37.0 3.8 39.0 3.3 38.9 2.65 38.95" fill="#bd7558" fill-rule="evenodd" stroke="none"/>
      <path d="M36.55 7.25 L37.5 7.65 13.05 31.25 4.65 39.4 4.4 39.25 3.8 39.0 5.8 37.0 5.5 36.95 36.55 7.25" fill="#a1664c" fill-rule="evenodd" stroke="none"/>
      <path d="M37.4 10.7 L14.2 33.45 13.3 34.35 13.25 34.35 8.7 38.85 7.15 40.35 6.95 40.55 5.45 41.95 4.65 41.65 4.05 41.25 3.3 40.7 2.8 39.95 2.6 39.05 2.65 38.95 5.2 36.5 M5.3 36.55 L33.85 9.0 M33.8 9.0 L34.65 8.15 M35.2 7.7 L35.55 7.3 M35.2 7.7 L34.7 8.15 33.85 9.0 M14.2 33.45 L13.25 34.35 M8.7 38.85 L8.05 39.45 6.95 40.55" fill="none" stroke="#000000" stroke-linecap="round" stroke-linejoin="round" stroke-opacity="0.33333334" stroke-width="0.25"/>
      <path d="M22.8 25.0 L20.05 22.05 28.2 14.35 Q29.4 14.25 30.2 15.1 L30.75 16.8 Q28.95 19.0 22.8 25.0" fill="url(#gradient0)" fill-rule="evenodd" stroke="none"/>
      <path d="M35.6 8.2 L35.85 8.25 36.55 8.6 36.6 8.7 35.75 9.65 Q35.45 9.15 34.8 9.15 L35.6 8.2 M37.4 8.8 L37.6 9.0 Q38.4 9.75 38.2 10.75 38.15 12.45 37.25 13.1 L36.4 13.55 Q36.3 12.25 35.75 11.15 L37.4 8.8 M36.05 13.55 L34.8 15.3 34.05 15.8 Q34.45 14.65 34.3 13.75 L34.25 13.65 34.3 13.65 35.75 12.05 36.05 13.55 M33.7 15.95 Q33.7 16.6 32.95 16.9 32.7 15.2 31.75 13.8 L33.75 11.95 33.95 12.15 33.8 12.45 33.6 12.85 33.9 13.75 33.95 14.0 33.95 14.15 33.7 15.95 M32.5 17.05 Q31.9 18.25 29.95 18.55 L29.45 18.5 29.95 18.2 Q30.35 17.4 29.95 16.5 L29.9 16.35 31.85 14.95 31.3 14.2 Q32.55 15.4 32.5 17.05 M34.2 9.4 L34.55 9.4 34.55 9.45 35.5 9.85 35.15 10.4 34.85 10.7 34.45 11.4 34.15 11.8 Q33.95 11.1 33.45 10.95 L33.35 10.95 33.4 10.9 34.2 9.4 M32.95 14.15 L33.1 13.75 33.6 12.85 33.1 13.75 32.95 14.15 M28.5 13.55 L29.75 12.35 30.0 12.8 30.05 13.3 29.75 13.75 29.1 14.55 28.7 13.75 28.5 13.55" fill="#b9ab8c" fill-rule="evenodd" stroke="none"/>
      <path d="M36.4 13.55 L36.05 13.55 35.75 12.05 35.5 11.55 35.0 10.85 34.85 10.7 35.15 10.4 35.75 11.15 Q36.3 12.25 36.4 13.55 M34.05 15.8 L33.7 15.95 33.95 14.15 33.95 14.0 33.9 13.75 33.6 12.85 33.8 12.45 Q34.2 12.85 34.3 13.65 L34.25 13.65 34.3 13.75 Q34.45 14.65 34.05 15.8 M32.95 16.9 L32.5 17.05 Q32.55 15.4 31.3 14.2 L30.8 13.75 30.05 13.3 30.0 12.8 Q30.9 13.05 31.6 13.75 L31.7 13.85 31.75 13.8 Q32.7 15.2 32.95 16.9 M35.5 9.85 L34.55 9.45 34.55 9.4 34.2 9.4 33.0 9.45 33.05 9.25 34.8 9.15 Q35.45 9.15 35.75 9.65 L35.5 9.85 M33.35 10.95 L33.45 10.95 Q33.95 11.1 34.15 11.8 L33.95 12.15 33.75 11.95 33.05 11.55 Q32.05 11.0 30.85 11.0 L30.9 10.6 Q32.2 10.5 33.35 10.95 M27.05 13.6 L28.2 13.55 28.5 13.55 28.7 13.75 29.1 14.55 28.85 14.85 28.8 14.65 28.45 14.55 Q28.05 14.55 27.25 15.2 26.9 13.75 27.05 13.6 M28.45 15.2 Q29.4 15.7 29.9 16.35 L29.95 16.5 Q30.35 17.4 29.95 18.2 L29.65 17.05 29.1 16.35 28.9 16.25 28.45 15.8 28.1 15.55 28.45 15.2" fill="#857a65" fill-rule="evenodd" stroke="none"/>
      <path d="M36.6 8.7 L36.8 8.4 37.4 8.8 35.75 11.15 35.15 10.4 35.5 9.85 35.75 9.65 36.6 8.7 M34.2 9.4 L33.4 10.9 33.35 10.95 Q32.2 10.5 30.9 10.6 L31.35 9.95 Q31.85 9.35 33.0 9.45 L34.2 9.4 M34.15 11.8 L34.45 11.4 34.85 10.7 35.0 10.85 35.5 11.55 35.75 12.05 34.3 13.65 Q34.2 12.85 33.8 12.45 L33.95 12.15 34.15 11.8 M34.8 9.15 L33.05 9.25 Q33.2 8.65 34.25 8.2 35.0 7.95 35.6 8.2 L34.8 9.15 M30.85 11.0 Q32.05 11.0 33.05 11.55 L33.75 11.95 31.75 13.8 31.7 13.85 31.6 13.75 Q30.9 13.05 30.0 12.8 L29.75 12.35 28.5 13.55 28.2 13.55 27.05 13.6 Q27.7 12.25 29.35 12.1 L29.75 12.35 29.35 12.1 Q29.6 11.05 30.85 11.0 M28.85 14.85 L29.1 14.55 29.75 13.75 30.05 13.3 30.8 13.75 31.3 14.2 31.85 14.95 29.9 16.35 Q29.4 15.7 28.45 15.2 L28.85 14.85" fill="#e4dfd3" fill-rule="evenodd" stroke="none"/>
      <path d="M38.2 10.75 Q38.15 12.45 37.25 13.1 L36.4 13.55 36.05 13.55 34.8 15.3 34.05 15.8 33.7 15.95 Q33.7 16.6 32.95 16.9 L32.5 17.05 Q31.9 18.25 29.95 18.55 L29.45 18.5 29.95 18.75 29.9 18.95 M35.5 9.85 L34.55 9.45 34.55 9.4 34.2 9.4 M34.15 11.8 L34.45 11.4 34.85 10.7 35.15 10.4 35.5 9.85 35.75 9.65 M33.05 9.25 L33.0 9.45 34.2 9.4 M34.25 8.2 Q33.2 8.65 33.05 9.25 M34.85 10.7 L35.0 10.85 35.5 11.55 35.75 12.05 36.05 13.55 M33.95 12.15 L33.8 12.45 33.6 12.85 33.9 13.75 33.95 14.0 33.95 14.15 33.7 15.95 M33.75 11.95 L33.95 12.15 34.15 11.8 M30.85 11.0 Q32.05 11.0 33.05 11.55 L33.75 11.95 M33.6 12.85 L33.1 13.75 32.95 14.15 M36.6 8.7 L35.75 9.65 M35.75 11.15 Q36.3 12.25 36.4 13.55 M35.75 11.15 L35.15 10.4 M33.0 9.45 Q31.85 9.35 31.35 9.95 L30.9 10.6 30.85 11.0 Q29.6 11.05 29.35 12.1 27.7 12.25 27.05 13.6 26.9 13.75 27.25 15.2 M29.75 12.35 L29.35 12.1 M28.85 14.85 L29.1 14.55 M31.3 14.2 L30.8 13.75 30.05 13.3 29.75 13.75 29.1 14.55 M30.0 12.8 L30.05 13.3 M30.0 12.8 L29.75 12.35 M31.3 14.2 Q32.55 15.4 32.5 17.05" fill="none" stroke="#000000" stroke-linecap="round" stroke-linejoin="round" stroke-opacity="0.3019608" stroke-width="0.25"/>
      <path d="M5.5 36.25 L5.4 36.5 5.45 36.25 5.4 36.25 5.4 36.1 5.5 36.0 5.45 36.25 5.5 36.25" fill="#3a9467" fill-rule="evenodd" stroke="none"/>
      <path d="M5.45 36.25 L5.5 36.25 5.45 36.25" fill="#fd5c35" fill-rule="evenodd" stroke="none"/>
      <path d="M15.3 30.6 L15.6 31.5 Q16.05 33.0 14.6 32.85 14.6 33.75 13.75 33.7 L13.5 32.65 14.25 31.8 15.3 30.6 M14.6 32.85 L14.25 31.8 14.6 32.85 M10.3 36.2 L11.25 35.15 11.45 36.35 Q11.2 37.4 10.65 37.35 11.05 38.8 8.95 39.25 L8.55 38.1 10.3 36.2 10.65 37.35 10.3 36.2" fill="#857a65" fill-rule="evenodd" stroke="none"/>
      <path d="M12.2 31.3 Q11.65 30.95 10.85 30.85 10.55 30.3 11.7 29.7 11.65 28.9 12.6 28.85 L12.7 28.9 Q13.45 29.0 14.0 29.25 L13.05 30.35 12.2 31.3 M11.7 29.7 L13.05 30.35 11.7 29.7 M10.0 33.7 L9.05 34.75 7.4 36.65 Q6.6 36.2 5.5 36.25 L5.45 36.25 5.5 36.0 5.55 35.9 Q6.0 34.65 7.2 34.4 7.1 33.25 8.65 33.15 L10.0 33.7 M7.2 34.4 Q8.25 34.3 9.05 34.75 8.25 34.3 7.2 34.4" fill="#e4dfd3" fill-rule="evenodd" stroke="none"/>
      <path d="M14.0 29.25 Q14.9 29.7 15.3 30.6 L14.25 31.8 Q13.8 30.9 13.05 30.35 13.8 30.9 14.25 31.8 L13.5 32.65 Q13.05 31.7 12.2 31.3 L13.05 30.35 14.0 29.25 M10.0 33.7 Q10.85 34.25 11.25 35.15 L10.3 36.2 Q9.8 35.2 9.05 34.75 9.8 35.2 10.3 36.2 L8.55 38.1 7.4 36.65 9.05 34.75 10.0 33.7" fill="#b9ab8c" fill-rule="evenodd" stroke="none"/>
      <path d="M12.2 31.3 Q11.65 30.95 10.85 30.85 10.55 30.3 11.7 29.7 11.65 28.9 12.6 28.85 L12.7 28.9 Q13.45 29.0 14.0 29.25 14.9 29.7 15.3 30.6 L15.6 31.5 Q16.05 33.0 14.6 32.85 14.6 33.75 13.75 33.7 L13.5 32.65 Q13.05 31.7 12.2 31.3 M13.05 30.35 L11.7 29.7 M13.05 30.35 Q13.8 30.9 14.25 31.8 L14.6 32.85 M11.25 35.15 Q10.85 34.25 10.0 33.7 M9.05 34.75 Q9.8 35.2 10.3 36.2 M11.25 35.15 L11.45 36.35 Q11.2 37.4 10.65 37.35 11.05 38.8 8.95 39.25 L8.55 38.1 7.4 36.65 Q6.6 36.2 5.5 36.25 L5.45 36.25 5.4 36.25 M5.4 36.5 L5.45 36.25 M5.4 36.1 L5.5 36.0 5.55 35.9 Q6.0 34.65 7.2 34.4 7.1 33.25 8.65 33.15 L10.0 33.7 M5.5 36.0 L5.45 36.25 M10.65 37.35 L10.3 36.2 M9.05 34.75 Q8.25 34.3 7.2 34.4" fill="none" stroke="#000000" stroke-linecap="round" stroke-linejoin="round" stroke-opacity="0.3019608" stroke-width="0.05"/>
      <path d="M39.8 5.8 L36.7 3.75 36.75 3.7 40.95 4.85 40.9 5.05 39.9 5.85 39.8 5.8" fill="#ffe0cc" fill-rule="evenodd" stroke="none"/>
      <path d="M39.85 5.85 L39.8 5.8 39.9 5.85 39.9 5.9 39.85 5.85" fill="#ff6600" fill-rule="evenodd" stroke="none"/>
      <path d="M39.85 5.85 L39.9 5.9 39.85 5.85 M39.6 8.5 L39.9 5.9 42.1 8.6 42.15 8.6 40.4 9.6 39.6 8.5" fill="#ff7a22" fill-rule="evenodd" stroke="none"/>
      <path d="M39.9 5.9 L39.9 5.85 40.9 5.05 42.15 8.6 42.1 8.6 39.9 5.9" fill="#ff954f" fill-rule="evenodd" stroke="none"/>
      <path d="M36.85 6.2 L37.1 5.6 37.15 5.6 39.85 5.85 39.9 5.9 39.6 8.5 39.45 8.3 36.85 6.2" fill="#ffae79" fill-rule="evenodd" stroke="none"/>
      <path d="M39.8 5.8 L39.85 5.85 37.15 5.6 37.1 5.6 36.85 6.2 36.75 6.1 35.7 6.0 36.7 3.75 39.8 5.8" fill="#ffcba8" fill-rule="evenodd" stroke="none"/>
      <path d="M40.4 9.6 L38.15 10.8 38.25 9.35 39.6 8.6 39.6 8.5 40.4 9.6" fill="#d9641c" fill-rule="evenodd" stroke="none"/>
      <path d="M38.25 9.35 L38.2 9.35 36.15 8.1 36.85 6.2 39.45 8.3 39.6 8.5 39.6 8.6 38.25 9.35" fill="#db9367" fill-rule="evenodd" stroke="none"/>
      <path d="M35.7 6.0 L36.75 6.1 36.85 6.2 36.15 8.1 34.75 7.95 35.7 6.0" fill="#e3b395" fill-rule="evenodd" stroke="none"/>
      <path d="M36.7 3.75 L35.7 6.0 M40.9 5.05 L40.95 4.85 36.75 3.7 36.7 3.75 M40.4 9.6 L38.15 10.8 38.25 9.35 38.2 9.35 36.15 8.1 34.75 7.95 35.7 6.0 M42.15 8.6 L40.4 9.6 M40.9 5.05 L42.15 8.6 42.1 8.6" fill="none" stroke="#000000" stroke-linecap="round" stroke-linejoin="round" stroke-opacity="0.3019608" stroke-width="0.05"/>
      <path d="M41.35 7.1 Q40.65 8.35 39.3 8.65 L36.85 8.45 Q35.65 7.75 35.35 6.4 35.05 5.15 35.75 3.9 36.5 2.65 37.8 2.2 39.1 1.8 40.3 2.5 41.45 3.15 41.75 4.45 42.1 5.85 41.35 7.1" fill="url(#gradient1)" fill-rule="evenodd" stroke="none"/>
    </g>
    <linearGradient gradientTransform="matrix(-0.0032, 0.0045, 4.0E-4, 6.0E-4, 29.55, 20.75)" gradientUnits="userSpaceOnUse" id="gradient0" spreadMethod="pad" x1="-819.2" x2="819.2">
      <stop offset="0.0" stop-color="#000000" stop-opacity="0.5019608"/>
      <stop offset="1.0" stop-color="#000000" stop-opacity="0.0"/>
    </linearGradient>
    <radialGradient cx="0" cy="0" gradientTransform="matrix(0.0035, 0.002, -0.0022, 0.0038, 38.55, 5.5)" gradientUnits="userSpaceOnUse" id="gradient1" r="819.2" spreadMethod="pad">
      <stop offset="0.0" stop-color="#ffffff"/>
      <stop offset="0.24313725490196078" stop-color="#ffffff"/>
      <stop offset="0.26666666666666666" stop-color="#ffffff" stop-opacity="0.56078434"/>
      <stop offset="0.9333333333333333" stop-color="#ffffff" stop-opacity="0.0"/>
    </radialGradient>
  </defs>
</svg>
