<?xml version="1.0" encoding="UTF-8" standalone="no"?>
<svg xmlns:xlink="http://www.w3.org/1999/xlink" height="440.0px" width="440.0px" xmlns="http://www.w3.org/2000/svg">
  <g transform="matrix(10.0, 0.0, 0.0, 10.0, 0.0, 0.0)">
    <use height="44.0" transform="matrix(1.0, 0.0, 0.0, 1.0, 0.0, 0.0)" width="44.0" xlink:href="#shape0"/>
  </g>
  <defs>
    <g id="shape0" transform="matrix(1.0, 0.0, 0.0, 1.0, 0.0, 0.0)">
      <path d="M44.0 44.0 L0.0 44.0 0.0 0.0 44.0 0.0 44.0 44.0" fill="#43adca" fill-opacity="0.0" fill-rule="evenodd" stroke="none"/>
      <path d="M13.8 29.75 Q11.15 31.15 8.8 34.35 6.75 39.7 8.75 39.3 L9.7 38.4 Q12.4 37.05 13.7 34.75 11.8 35.55 13.8 29.75 M17.4 31.35 L18.3 30.45 Q20.65 29.4 21.65 27.35 19.25 28.3 22.25 21.85 20.35 22.5 19.05 24.85 L18.15 25.7 Q15.25 32.25 17.4 31.35 M38.75 17.35 L38.75 17.3 38.75 17.35 M33.25 13.35 L33.2 13.35 33.25 13.35 M18.6 25.85 L19.05 24.85 18.6 25.85 M17.55 28.7 L17.45 29.55 17.55 28.7 M17.6 30.5 L18.3 30.45 17.6 30.5 M18.25 26.75 L17.9 27.75 18.25 26.75 M9.25 34.85 L9.05 35.45 9.25 34.85 M8.85 36.45 L8.75 37.6 8.85 36.45 M9.2 38.4 L9.7 38.4 9.2 38.4" fill="#f37878" fill-rule="evenodd" stroke="none"/>
      <path d="M27.2 10.7 L27.05 11.0 26.55 11.9 26.5 12.0 28.45 18.05 35.3 20.15 35.85 19.75 35.95 19.7 36.6 17.55 36.5 16.05 35.85 14.75 34.65 13.85 32.85 13.3 32.75 11.6 31.65 10.45 29.85 10.1 27.35 10.65 27.2 10.7 M29.2 11.0 L29.45 11.0 Q30.2 10.85 30.85 11.25 L31.6 12.0 31.8 12.5 Q32.0 13.35 31.6 14.1 31.2 14.9 30.4 15.1 L28.85 14.9 Q28.1 14.45 27.8 13.65 27.55 12.75 27.95 12.05 28.35 11.3 29.2 11.0 M34.05 15.1 Q34.8 15.55 35.0 16.4 35.25 17.25 34.85 18.05 34.45 18.8 33.55 19.05 L32.0 18.85 Q31.2 18.4 30.95 17.55 30.75 16.7 31.2 15.95 31.55 15.15 32.4 14.9 L34.05 15.1" fill="#da1212" fill-rule="evenodd" stroke="none"/>
      <path d="M38.75 17.35 L38.75 17.3 38.7 17.3 38.75 17.35 M37.4 17.1 L37.35 17.1 37.4 17.1" fill="#f05151" fill-rule="evenodd" stroke="none"/>
      <path d="M31.4 12.65 L31.1 12.4 Q30.9 12.35 30.75 12.55 L30.55 13.1 30.55 13.65 30.85 13.9 31.25 13.75 31.45 13.25 31.4 12.65 M31.7 16.0 L31.3 16.4 31.2 16.95 31.4 17.3 31.8 17.3 32.15 16.9 32.3 16.35 32.1 16.0 Q31.95 15.85 31.7 16.0" fill="#000000" fill-rule="evenodd" stroke="none"/>
      <path d="M31.9 8.3 L31.85 8.2 28.25 8.9 28.3 8.95 28.6 9.45 Q29.2 9.15 30.0 9.0 L30.05 8.95 31.75 8.35 31.9 8.3" fill="#d0a96f" fill-rule="evenodd" stroke="none"/>
      <path d="M36.75 31.05 L36.75 31.4 37.0 31.9 37.05 31.9 37.05 31.8 37.4 26.55 36.9 23.05 35.85 19.75 35.3 20.15 34.45 20.6 34.35 20.65 34.4 20.7 34.45 20.85 35.45 22.95 35.1 23.15 35.1 23.4 35.1 23.65 36.25 23.4 36.5 24.05 35.75 24.75 35.95 25.6 36.0 25.6 36.0 25.7 36.6 25.7 36.6 25.85 35.55 25.95 35.7 26.85 36.95 26.75 37.05 27.3 36.6 27.65 Q36.85 29.35 36.75 31.05 M23.8 3.55 L22.95 4.35 Q25.7 7.4 27.25 10.5 L27.45 10.35 27.85 10.0 28.6 9.45 28.3 8.95 28.25 8.9 27.35 7.55 26.8 6.8 26.5 6.45 26.3 6.2 25.05 4.8 23.8 3.55 M19.55 10.35 L19.35 11.75 19.7 12.2 19.8 12.3 19.8 12.25 24.2 14.15 24.95 12.8 19.55 10.35 M19.7 12.2 L19.8 12.25 19.7 12.2" fill="#b6853a" fill-rule="evenodd" stroke="none"/>
      <path d="M37.05 31.9 L37.05 31.95 37.25 32.0 Q41.3 25.2 38.3 18.2 L38.2 18.4 36.65 19.0 36.6 19.05 36.65 19.65 36.75 19.95 37.25 21.4 37.5 22.35 37.75 23.8 37.85 24.3 37.95 25.2 38.0 26.6 38.0 26.8 38.0 27.15 38.0 27.5 37.95 28.15 37.8 29.25 37.75 29.6 37.15 31.7 37.05 31.8 37.05 31.95 37.05 31.8 37.05 31.9 M31.85 8.2 Q30.2 5.1 27.45 2.3 L26.5 2.6 26.45 2.7 Q27.9 3.8 28.9 5.6 L27.75 6.05 Q26.9 4.6 25.8 3.75 L24.8 3.1 23.8 3.5 23.8 3.55 25.05 4.8 26.3 6.2 26.5 6.45 26.8 6.8 27.35 7.55 28.25 8.9 31.85 8.2" fill="#d7b582" fill-rule="evenodd" stroke="none"/>
      <path d="M26.45 2.7 L25.8 3.75 Q26.9 4.6 27.75 6.05 L28.9 5.6 Q27.9 3.8 26.45 2.7 M23.25 7.1 L19.8 9.0 22.85 10.3 24.95 9.25 23.25 7.1" fill="#86622b" fill-rule="evenodd" stroke="none"/>
      <path d="M30.8 21.65 L30.85 21.75 31.8 22.65 Q34.5 25.4 36.4 30.25 L36.75 31.05 Q36.85 29.35 36.6 27.65 L37.05 27.3 36.95 26.75 35.7 26.85 35.55 25.95 36.6 25.85 36.6 25.7 36.0 25.7 36.0 25.6 35.95 25.6 35.75 24.75 36.5 24.05 36.25 23.4 35.1 23.65 35.1 23.4 35.1 23.15 35.45 22.95 34.45 20.85 34.4 20.7 34.25 20.7 34.4 20.7 34.35 20.65 34.25 20.7 34.1 20.75 Q32.65 21.4 30.8 21.65 M22.95 4.35 L21.65 5.55 23.25 7.1 24.95 9.25 26.2 11.2 26.5 11.75 26.55 11.9 27.05 11.0 27.2 10.7 27.3 10.6 27.45 10.35 27.25 10.5 Q25.7 7.4 22.95 4.35 M19.8 12.3 L19.15 12.65 18.85 14.55 Q21.4 14.8 23.7 15.85 L25.2 16.65 25.2 16.55 Q25.5 14.55 26.2 12.85 L26.25 12.65 26.4 12.3 25.65 11.8 24.95 12.8 24.2 14.15 19.8 12.25 19.8 12.3 M27.3 10.6 L27.25 10.5 27.3 10.6" fill="#9b7131" fill-rule="evenodd" stroke="none"/>
      <path d="M25.65 11.8 L26.4 12.3 26.5 12.0 26.55 11.9 26.5 11.75 26.2 11.2 24.95 9.25 22.85 10.3 25.65 11.8 M26.5 11.75 L26.5 12.0 26.5 11.75" fill="#674b21" fill-rule="evenodd" stroke="none"/>
      <path d="M4.1 39.2 L4.05 39.3 5.95 41.4 6.15 41.5 5.95 41.4 5.95 41.45 6.05 41.45 6.0 41.45 5.95 41.5 6.0 41.45 6.05 41.45 5.95 41.45 5.95 41.4 5.65 41.25 5.9 41.45 5.85 41.45 5.9 41.45 5.75 41.35 5.85 41.45 5.95 41.5 5.9 41.45 5.95 41.5 6.1 41.55 5.95 41.5 6.1 41.55 6.2 41.65 6.15 41.5 5.95 40.7 5.2 40.1 4.75 39.15 4.1 39.2 M5.95 41.45 L6.0 41.45 5.9 41.45 6.0 41.45 5.95 41.45" fill="#75a9f7" fill-rule="evenodd" stroke="none"/>
      <path d="M2.75 41.8 L2.85 41.8 5.95 41.5 5.85 41.45 5.75 41.35 5.6 41.25 5.65 41.25 5.95 41.4 4.05 39.3 2.75 41.8" fill="#94bcf8" fill-rule="evenodd" stroke="none"/>
      <path d="M29.2 11.0 Q28.35 11.3 27.95 12.05 27.55 12.75 27.8 13.65 28.1 14.45 28.85 14.9 L30.4 15.1 Q31.2 14.9 31.6 14.1 32.0 13.35 31.8 12.5 L31.6 12.0 30.85 11.25 Q30.2 10.85 29.45 11.0 L29.2 11.0 M31.4 12.65 L31.45 13.25 31.25 13.75 30.85 13.9 30.55 13.65 30.55 13.1 30.75 12.55 Q30.9 12.35 31.1 12.4 L31.4 12.65 M34.05 15.1 L32.4 14.9 Q31.55 15.15 31.2 15.95 30.75 16.7 30.95 17.55 31.2 18.4 32.0 18.85 L33.55 19.05 Q34.45 18.8 34.85 18.05 35.25 17.25 35.0 16.4 34.8 15.55 34.05 15.1 M31.7 16.0 Q31.95 15.85 32.1 16.0 L32.3 16.35 32.15 16.9 31.8 17.3 31.4 17.3 31.2 16.95 31.3 16.4 31.7 16.0" fill="#ffffff" fill-rule="evenodd" stroke="none"/>
      <path d="M38.3 18.2 L38.5 17.95 38.75 17.35 38.7 17.3 Q37.7 17.95 37.4 17.1 L37.35 17.1 37.1 17.95 36.65 19.0 38.2 18.4 38.3 18.2 M34.9 12.8 L35.2 11.5 Q34.1 12.1 33.6 11.8 L33.25 13.35 34.9 12.8 M26.4 12.3 L26.25 12.65 26.2 12.85 Q25.8 16.65 26.9 20.0 30.65 21.7 34.25 20.7 L34.35 20.65 34.45 20.6 35.3 20.15 28.45 18.05 26.5 12.0 26.4 12.3" fill="#bf1111" fill-rule="evenodd" stroke="none"/>
      <path d="M28.6 9.45 L27.85 10.0 27.45 10.35 27.3 10.6 27.2 10.7 27.35 10.65 29.85 10.1 31.65 10.45 32.75 11.6 32.85 13.3 34.65 13.85 35.85 14.75 36.5 16.05 36.6 17.55 35.95 19.7 36.6 19.05 36.65 19.0 37.1 17.95 37.35 17.1 37.45 16.55 37.5 15.95 37.4 15.15 37.2 14.6 36.95 14.15 36.85 14.1 36.75 13.95 36.45 13.7 36.45 13.65 36.0 13.35 35.65 13.2 35.6 13.2 35.3 13.15 34.05 13.2 34.0 13.2 33.25 13.35 33.6 11.8 33.55 11.25 33.55 11.15 33.45 10.75 33.4 10.65 33.25 10.3 33.2 10.1 32.85 9.75 32.75 9.65 32.55 9.5 32.4 9.35 32.2 9.25 Q31.7 8.9 31.0 8.9 L30.8 8.9 30.05 9.0 30.0 9.0 Q29.2 9.15 28.6 9.45 M27.3 10.6 L27.35 10.65 27.3 10.6 M33.25 13.35 L33.2 13.35 33.25 13.35" fill="#ef4b4b" fill-rule="evenodd" stroke="none"/>
      <path d="M38.75 17.3 L39.1 15.4 Q39.15 13.85 38.15 13.05 37.05 12.2 35.6 12.55 L35.15 12.65 35.05 12.65 35.05 12.7 35.0 12.75 34.9 12.8 33.25 13.35 34.0 13.2 34.05 13.2 35.3 13.15 35.6 13.2 35.65 13.2 36.0 13.35 36.45 13.65 36.45 13.7 36.75 13.95 36.85 14.1 36.95 14.15 37.2 14.6 37.4 15.15 37.5 15.95 37.45 16.55 37.35 17.1 37.4 17.1 Q37.7 17.95 38.7 17.3 L38.75 17.3 M35.2 11.5 L35.2 11.15 Q35.25 9.65 34.2 8.85 L33.6 8.45 31.9 8.3 31.75 8.35 30.05 8.95 30.05 9.0 30.8 8.9 31.0 8.9 Q31.7 8.9 32.2 9.25 L32.4 9.35 32.55 9.5 32.75 9.65 32.85 9.75 33.2 10.1 33.25 10.3 33.4 10.65 33.45 10.75 33.55 11.15 33.55 11.25 33.6 11.8 Q34.1 12.1 35.2 11.5" fill="#fe9292" fill-rule="evenodd" stroke="none"/>
      <path d="M13.75 32.5 L13.7 33.05 13.75 32.5 M14.1 30.75 L13.9 31.5 14.1 30.75 M18.15 25.7 Q15.8 26.65 14.65 28.85 L13.8 29.75 Q11.8 35.55 13.7 34.75 L14.6 33.9 Q16.45 33.05 17.4 31.35 15.25 32.25 18.15 25.7 M8.8 34.35 Q6.7 35.15 5.15 37.7 L5.0 37.85 Q4.65 38.35 4.7 39.0 L4.75 39.15 5.2 40.1 5.95 40.7 6.15 40.8 7.25 40.7 7.4 40.55 8.75 39.3 Q6.75 39.7 8.8 34.35 M21.65 27.35 Q25.45 24.9 27.65 21.9 L25.15 21.95 24.95 19.4 Q23.75 19.7 23.6 20.65 L23.25 21.05 22.25 21.85 Q19.25 28.3 21.65 27.35 M14.65 28.85 L14.4 29.75 14.65 28.85 M22.25 23.1 L22.05 23.8 22.25 23.1 M21.7 24.9 L21.55 25.85 21.7 24.9 M22.65 22.2 L23.25 21.05 22.65 22.2 M14.0 33.95 L14.6 33.9 14.0 33.95" fill="#cc6464" fill-rule="evenodd" stroke="none"/>
      <path d="M19.8 9.0 L19.75 9.05 19.55 10.35 24.95 12.8 25.65 11.8 22.85 10.3 19.8 9.0" fill="#d1ab72" fill-rule="evenodd" stroke="none"/>
      <path d="M35.95 19.7 L35.85 19.75 36.9 23.05 37.4 26.55 37.05 31.8 37.15 31.7 37.75 29.6 37.8 29.25 37.95 28.15 38.0 27.5 38.0 27.15 38.0 26.8 38.0 26.6 37.95 25.2 37.85 24.3 37.75 23.8 37.5 22.35 37.25 21.4 36.75 19.95 36.65 19.65 36.6 19.05 35.95 19.7" fill="#c89b59" fill-rule="evenodd" stroke="none"/>
      <path d="M27.65 21.9 L30.75 21.65 30.8 21.65 Q32.65 21.4 34.1 20.75 L34.25 20.7 Q30.65 21.7 26.9 20.0 25.8 16.65 26.2 12.85 25.5 14.55 25.2 16.55 L25.2 16.65 24.95 19.4 25.15 21.95 27.65 21.9" fill="#910d0d" fill-rule="evenodd" stroke="none"/>
      <path d="M2.85 41.8 L8.2 42.3 8.15 42.25 7.4 40.55 7.25 40.7 6.15 40.8 5.95 40.7 6.15 41.5 6.2 41.65 5.95 41.5 2.85 41.8 M8.2 42.3 L6.15 41.5 8.2 42.3" fill="#bfd8fb" fill-rule="evenodd" stroke="none"/>
      <path d="M5.15 37.7 L3.95 36.9 4.0 36.9 2.75 41.8 4.05 39.3 4.05 39.25 3.95 39.2 4.05 39.2 4.1 39.2 4.75 39.15 4.7 39.0 Q4.65 38.35 5.0 37.85 L5.15 37.7 M4.0 36.9 L4.05 39.2 4.0 36.9" fill="#597ebf" fill-rule="evenodd" stroke="none"/>
      <path d="M13.9 31.5 L14.1 30.75 M13.7 33.05 L13.75 32.5 M18.15 25.7 Q15.8 26.65 14.65 28.85 L13.8 29.75 Q11.15 31.15 8.8 34.35 6.7 35.15 5.15 37.7 L3.95 36.9 4.0 36.9 2.75 41.8 2.85 41.8 8.2 42.3 8.15 42.25 7.4 40.55 8.75 39.3 9.7 38.4 Q12.4 37.05 13.7 34.75 L14.6 33.9 Q16.45 33.05 17.4 31.35 L18.3 30.45 Q20.65 29.4 21.65 27.35 25.45 24.9 27.65 21.9 L30.75 21.65 30.8 21.65 30.85 21.75 31.8 22.65 Q34.5 25.4 36.4 30.25 L36.75 31.05 36.75 31.4 37.0 31.9 37.05 31.9 37.05 31.95 37.25 32.0 Q41.3 25.2 38.3 18.2 L38.5 17.95 38.75 17.35 38.75 17.3 39.1 15.4 Q39.15 13.85 38.15 13.05 37.05 12.2 35.6 12.55 L35.15 12.65 M35.05 12.7 L35.0 12.75 34.9 12.8 35.2 11.5 35.2 11.15 Q35.25 9.65 34.2 8.85 L33.6 8.45 31.9 8.3 31.85 8.2 Q30.2 5.1 27.45 2.3 L26.5 2.6 26.35 2.7 26.45 2.7 25.8 3.75 24.8 3.1 23.8 3.5 23.8 3.55 22.95 4.35 21.65 5.55 23.25 7.1 19.8 9.0 19.75 9.05 19.55 10.35 19.35 11.75 19.7 12.2 19.8 12.3 19.15 12.65 18.85 14.55 Q21.4 14.8 23.7 15.85 L25.2 16.65 24.95 19.4 Q23.75 19.7 23.6 20.65 L23.25 21.05 22.25 21.85 Q20.35 22.5 19.05 24.85 L18.15 25.7 Q15.25 32.25 17.4 31.35 M14.4 29.75 L14.65 28.85 M23.8 3.55 L25.05 4.8 M28.6 9.45 L27.85 10.0 27.45 10.35 M26.45 2.7 L26.5 2.6 M26.45 2.7 Q27.9 3.8 28.9 5.6 L27.75 6.05 Q26.9 4.6 25.8 3.75 M24.95 9.25 L23.25 7.1 M25.65 11.8 L26.4 12.3 26.25 12.65 26.2 12.85 Q25.5 14.55 25.2 16.55 L25.2 16.65 M27.3 10.6 L27.2 10.7 27.05 11.0 26.55 11.9 26.5 11.75 26.2 11.2 24.95 9.25 M22.85 10.3 L19.8 9.0 M27.35 10.65 L27.3 10.6 27.45 10.35 M27.25 10.5 L27.3 10.6 M35.95 19.7 L35.85 19.75 35.3 20.15 34.45 20.6 34.35 20.65 34.25 20.7 34.4 20.7 34.35 20.65 M26.5 12.0 L26.55 11.9 M29.2 11.0 Q28.35 11.3 27.95 12.05 27.55 12.75 27.8 13.65 28.1 14.45 28.85 14.9 L30.4 15.1 Q31.2 14.9 31.6 14.1 32.0 13.35 31.8 12.5 L31.6 12.0 30.85 11.25 Q30.2 10.85 29.45 11.0 L29.2 11.0 M26.4 12.3 L26.5 12.0 26.5 11.75 M19.8 12.25 L19.7 12.2 M25.65 11.8 L22.85 10.3 M31.9 8.3 L31.75 8.35 30.05 8.95 30.0 9.0 Q29.2 9.15 28.6 9.45 M33.25 13.35 L33.2 13.35 33.25 13.35 34.0 13.2 34.05 13.2 M37.5 15.95 L37.45 16.55 M36.65 19.0 L36.6 19.05 35.95 19.7 M30.05 9.0 L30.0 9.0 M34.05 15.1 L32.4 14.9 Q31.55 15.15 31.2 15.95 30.75 16.7 30.95 17.55 31.2 18.4 32.0 18.85 L33.55 19.05 Q34.45 18.8 34.85 18.05 35.25 17.25 35.0 16.4 34.8 15.55 34.05 15.1 M34.4 20.7 L34.45 20.85 35.45 22.95 35.1 23.15 35.1 23.4 35.1 23.65 36.25 23.4 36.5 24.05 35.75 24.75 35.95 25.6 M36.0 25.6 L36.0 25.7 36.6 25.7 36.6 25.85 35.55 25.95 35.7 26.85 36.95 26.75 37.05 27.3 36.6 27.65 Q36.85 29.35 36.75 31.05 M30.8 21.65 Q32.65 21.4 34.1 20.75 L34.25 20.7 M38.3 18.2 L38.2 18.4 36.65 19.0 M36.6 19.05 L36.65 19.65 36.75 19.95 M37.25 21.4 L37.5 22.35 M37.15 31.7 L37.05 31.8 37.05 31.9 M37.05 31.95 L37.05 31.8 M22.05 23.8 L22.25 23.1 M24.95 19.4 L25.15 21.95 27.65 21.9 M17.9 27.75 L18.25 26.75 M18.3 30.45 L17.6 30.5 M17.45 29.55 L17.55 28.7 M19.05 24.85 L18.6 25.85 M23.25 21.05 L22.65 22.2 M21.55 25.85 L21.7 24.9 M21.65 27.35 Q19.25 28.3 22.25 21.85 M8.75 37.6 L8.85 36.45 M9.05 35.45 L9.25 34.85 M5.95 40.7 L6.15 40.8 7.25 40.7 7.4 40.55 M9.7 38.4 L9.2 38.4 M4.05 39.2 L3.95 39.2 4.05 39.25 4.05 39.3 2.75 41.8 M4.05 39.3 L4.1 39.2 4.75 39.15 5.2 40.1 5.95 40.7 6.15 41.5 5.95 41.4 4.05 39.3 M5.15 37.7 L5.0 37.85 Q4.65 38.35 4.7 39.0 L4.75 39.15 M4.1 39.2 L4.05 39.2 4.0 36.9 M4.05 39.25 L4.05 39.2 M5.85 41.45 L5.9 41.45 5.95 41.5 5.85 41.45 5.75 41.35 5.9 41.45 6.0 41.45 5.95 41.45 5.95 41.4 M5.95 41.5 L6.1 41.55 M5.95 41.5 L2.85 41.8 M5.95 41.5 L6.0 41.45 6.05 41.45 5.95 41.45 M5.65 41.25 L5.6 41.25 M6.2 41.65 L6.15 41.5 8.2 42.3 M8.75 39.3 Q6.75 39.7 8.8 34.35 M14.6 33.9 L14.0 33.95 M13.8 29.75 Q11.8 35.55 13.7 34.75" fill="none" stroke="#000000" stroke-linecap="round" stroke-linejoin="round" stroke-opacity="0.3019608" stroke-width="0.05"/>
      <path d="M30.05 9.0 L30.8 8.9 31.0 8.9 Q31.7 8.9 32.2 9.25 L32.4 9.35 32.55 9.5 32.75 9.65 32.85 9.75 33.2 10.1 33.25 10.3 33.4 10.65 33.45 10.75 33.55 11.15 33.55 11.25 33.6 11.8 33.25 13.35 M34.05 13.2 L35.3 13.15 35.6 13.2 35.65 13.2 36.0 13.35 36.45 13.65 36.45 13.7 36.75 13.95 36.85 14.1 36.95 14.15 37.2 14.6 37.4 15.15 37.5 15.95 M37.45 16.55 L37.35 17.1 37.1 17.95 36.65 19.0" fill="none" stroke="#ffffff" stroke-linecap="round" stroke-linejoin="round" stroke-opacity="0.4" stroke-width="0.05"/>
      <path d="M19.0 29.55 Q23.95 26.1 27.85 21.75 L25.1 22.05 25.0 19.1 16.45 26.7 19.0 29.55" fill="url(#gradient0)" fill-rule="evenodd" stroke="none"/>
    </g>
    <linearGradient gradientTransform="matrix(-0.0046, 0.0027, -5.0E-4, -4.0E-4, 20.9, 20.6)" gradientUnits="userSpaceOnUse" id="gradient0" spreadMethod="pad" x1="-819.2" x2="819.2">
      <stop offset="0.0" stop-color="#000000" stop-opacity="0.5019608"/>
      <stop offset="1.0" stop-color="#000000" stop-opacity="0.0"/>
    </linearGradient>
  </defs>
</svg>
