<?xml version="1.0" encoding="UTF-8" standalone="no"?>
<svg xmlns:xlink="http://www.w3.org/1999/xlink" height="440.0px" width="440.0px" xmlns="http://www.w3.org/2000/svg">
  <g transform="matrix(10.0, 0.0, 0.0, 10.0, 0.0, 0.0)">
    <use height="44.0" transform="matrix(1.0, 0.0, 0.0, 1.0, 0.0, 0.0)" width="44.0" xlink:href="#shape0"/>
  </g>
  <defs>
    <g id="shape0" transform="matrix(1.0, 0.0, 0.0, 1.0, 0.0, 0.0)">
      <path d="M44.0 44.0 L0.0 44.0 0.0 0.0 44.0 0.0 44.0 44.0" fill="#43adca" fill-opacity="0.0" fill-rule="evenodd" stroke="none"/>
      <path d="M38.05 4.2 L37.7 1.75 Q38.55 4.35 38.6 6.65 38.75 8.75 38.05 10.3 L36.55 13.05 35.9 12.8 38.05 8.65 38.3 5.45 38.2 4.8 38.05 4.2 M42.25 4.6 L42.1 3.35 Q42.9 5.9 42.6 7.8 42.3 10.25 41.1 12.1 L37.2 14.95 37.2 15.7 33.45 19.3 32.4 18.95 33.25 18.4 Q33.15 17.55 32.3 16.7 L31.55 16.45 Q31.15 16.65 30.85 16.9 L30.6 17.05 30.65 16.3 30.8 16.15 31.5 15.85 31.9 16.0 33.15 16.6 33.6 17.8 33.95 17.95 36.45 15.85 37.0 14.6 36.95 14.3 40.05 12.25 Q41.4 11.15 41.95 9.55 42.5 8.0 42.55 6.25 L42.35 5.45 42.25 4.6 M25.85 23.95 L25.6 24.95 24.2 25.9 23.85 25.65 24.25 25.4 24.45 24.85 24.15 23.55 23.6 23.1 22.8 23.35 22.6 23.6 22.4 23.75 22.6 23.15 22.85 22.95 23.85 22.7 24.45 23.35 24.75 24.55 24.65 24.9 25.4 24.6 25.6 23.9 25.6 23.0 25.65 23.35 25.85 23.95 M18.65 29.75 L18.55 30.15 17.0 31.5 16.55 31.35 16.85 31.1 16.9 29.9 16.75 29.4 15.65 29.0 14.75 29.7 14.8 28.95 15.35 28.6 15.95 28.8 17.05 29.0 17.25 29.7 17.25 30.5 18.55 29.6 18.55 28.95 18.7 29.3 18.65 29.75 M37.2 14.95 L37.0 14.6 37.2 14.95" fill="#999999" fill-rule="evenodd" stroke="none"/>
      <path d="M38.05 4.2 L38.2 4.8 38.15 6.35 37.8 8.55 35.5 13.3 36.2 13.75 35.1 13.55 Q33.5 14.35 31.9 16.0 L31.5 15.85 30.8 16.15 34.45 13.35 35.25 13.15 37.1 9.55 Q38.0 8.0 38.0 5.9 L38.05 4.2 M35.9 12.8 L36.55 13.05 36.95 13.2 40.35 10.9 Q41.65 9.7 42.1 7.6 42.35 6.25 42.25 4.6 L42.35 5.45 42.4 6.7 41.95 9.0 Q41.4 10.3 40.45 11.2 L37.8 13.1 36.8 13.55 35.9 12.8 M15.35 28.6 L16.8 27.6 17.25 27.65 Q16.4 28.0 15.95 28.8 L15.35 28.6 M22.85 22.95 L23.9 22.05 24.65 21.95 24.95 22.2 Q24.0 21.9 23.85 22.7 L22.85 22.95 M35.5 13.3 L35.25 13.15 35.5 13.3" fill="#cccccc" fill-rule="evenodd" stroke="none"/>
      <path d="M38.2 4.8 L38.3 5.45 38.05 8.65 35.9 12.8 36.8 13.55 37.8 13.1 40.45 11.2 Q41.4 10.3 41.95 9.0 L42.4 6.7 42.35 5.45 42.55 6.25 Q42.5 8.0 41.95 9.55 41.4 11.15 40.05 12.25 L36.95 14.3 36.8 14.0 36.2 13.75 36.8 14.0 36.95 14.3 37.0 14.6 36.45 15.85 33.95 17.95 33.6 17.8 33.15 16.6 31.9 16.0 Q33.5 14.35 35.1 13.55 L36.2 13.75 35.5 13.3 37.8 8.55 38.15 6.35 38.2 4.8 M24.95 22.2 L25.55 22.7 25.6 23.0 25.6 23.9 25.4 24.6 24.65 24.9 24.75 24.55 24.45 23.35 23.85 22.7 Q24.0 21.9 24.95 22.2 M18.5 28.8 L18.55 28.95 18.55 29.6 17.25 30.5 17.25 29.7 17.05 29.0 15.95 28.8 Q16.4 28.0 17.25 27.65 L17.7 27.65 18.35 28.3 18.5 28.8" fill="#666666" fill-rule="evenodd" stroke="none"/>
      <path d="M32.4 18.95 Q29.1 21.4 25.85 23.95 L25.65 23.35 32.25 18.25 31.9 17.0 30.85 16.9 Q31.15 16.65 31.55 16.45 L32.3 16.7 Q33.15 17.55 33.25 18.4 L32.4 18.95 M23.85 25.65 L22.55 26.65 18.65 29.75 18.7 29.3 18.55 28.95 18.5 28.8 23.75 24.85 23.15 23.75 22.6 23.6 22.8 23.35 23.6 23.1 24.15 23.55 24.45 24.85 24.25 25.4 23.85 25.65 M16.55 31.35 Q10.2 36.65 3.9 42.3 L3.75 40.85 16.35 30.3 15.85 29.7 14.75 29.7 15.65 29.0 16.75 29.4 16.9 29.9 16.85 31.1 16.55 31.35 M3.2 38.9 L11.8 32.7 3.6 39.5 2.6 40.5 3.2 38.9" fill="#9d9311" fill-rule="evenodd" stroke="none"/>
      <path d="M1.7 39.25 L14.75 29.7 15.85 29.7 16.35 30.3 3.75 40.85 3.6 39.5 11.8 32.7 3.2 38.9 1.7 39.25 M17.25 27.65 L22.4 23.75 22.6 23.6 23.15 23.75 23.75 24.85 18.5 28.8 18.35 28.3 17.7 27.65 17.25 27.65 M24.65 21.95 L30.6 17.05 30.85 16.9 31.9 17.0 32.25 18.25 25.65 23.35 25.6 23.0 25.55 22.7 24.95 22.2 24.65 21.95" fill="#c4b715" fill-rule="evenodd" stroke="none"/>
      <path d="M3.9 42.3 L2.25 41.75 1.7 39.25 3.2 38.9 2.6 40.5 3.6 39.5 3.75 40.85 3.9 42.3" fill="#7a720e" fill-rule="evenodd" stroke="none"/>
      <path d="M36.55 13.05 L38.05 10.3 Q38.75 8.75 38.6 6.65 38.55 4.35 37.7 1.75 L38.05 4.2 M36.55 13.05 L36.95 13.2 40.35 10.9 Q41.65 9.7 42.1 7.6 42.35 6.25 42.25 4.6 L42.1 3.35 Q42.9 5.9 42.6 7.8 42.3 10.25 41.1 12.1 L37.2 14.95 37.2 15.7 33.45 19.3 32.4 18.95 Q29.1 21.4 25.85 23.95 L25.6 24.95 24.2 25.9 23.85 25.65 22.55 26.65 18.65 29.75 18.55 30.15 17.0 31.5 16.55 31.35 Q10.2 36.65 3.9 42.3 L2.25 41.75 1.7 39.25 14.75 29.7 14.8 28.95 15.35 28.6 16.8 27.6 17.25 27.65 22.4 23.75 22.6 23.15 22.85 22.95 23.9 22.05 24.65 21.95 30.6 17.05 30.65 16.3 30.8 16.15 34.45 13.35 35.25 13.15 37.1 9.55 Q38.0 8.0 38.0 5.9 L38.05 4.2 M35.5 13.3 L36.2 13.75 36.8 14.0 36.95 14.3 37.0 14.6 37.2 14.95 M35.25 13.15 L35.5 13.3 M32.4 18.95 L33.25 18.4 Q33.15 17.55 32.3 16.7 L31.55 16.45 Q31.15 16.65 30.85 16.9 L30.6 17.05 M25.65 23.35 L25.85 23.95 M22.6 23.6 L22.4 23.75 M25.6 23.0 L25.55 22.7 24.95 22.2 24.65 21.95 M25.6 23.0 L25.65 23.35 M23.85 25.65 L24.25 25.4 24.45 24.85 24.15 23.55 23.6 23.1 22.8 23.35 22.6 23.6 M18.5 28.8 L18.55 28.95 18.7 29.3 18.65 29.75 M1.7 39.25 L3.2 38.9 2.6 40.5 3.6 39.5 3.75 40.85 3.9 42.3 M14.75 29.7 L15.65 29.0 16.75 29.4 16.9 29.9 16.85 31.1 16.55 31.35 M18.5 28.8 L18.35 28.3 17.7 27.65 17.25 27.65" fill="none" stroke="#000000" stroke-linecap="round" stroke-linejoin="round" stroke-opacity="0.4" stroke-width="0.05"/>
    </g>
  </defs>
</svg>
