<?xml version="1.0" encoding="UTF-8" standalone="no"?>
<svg xmlns:xlink="http://www.w3.org/1999/xlink" height="440.0px" width="440.0px" xmlns="http://www.w3.org/2000/svg">
  <g transform="matrix(10.0, 0.0, 0.0, 10.0, 0.0, 0.0)">
    <use height="44.0" transform="matrix(0.9091, 0.0, 0.0, 0.9091, 2.0, 2.0)" width="44.0" xlink:href="#sprite0"/>
  </g>
  <defs>
    <g id="sprite0" transform="matrix(1.0, 0.0, 0.0, 1.0, 0.0, 0.0)">
      <use height="44.0" transform="matrix(1.0, 0.0, 0.0, 1.0, 0.0, 0.0)" width="44.0" xlink:href="#shape0"/>
    </g>
    <g id="shape0" transform="matrix(1.0, 0.0, 0.0, 1.0, 0.0, 0.0)">
      <path d="M44.0 44.0 L0.0 44.0 0.0 0.0 44.0 0.0 44.0 44.0" fill="#43adca" fill-opacity="0.0" fill-rule="evenodd" stroke="none"/>
      <path d="M33.2 8.25 L36.6 4.05 34.15 8.2 34.3 7.6 33.2 8.25 M21.95 6.8 L25.45 9.55 24.45 9.2 24.7 9.95 21.95 6.8 M33.45 16.05 L33.35 14.95 33.6 15.15 36.85 17.5 33.45 16.05" fill="#527a69" fill-rule="evenodd" stroke="none"/>
      <path d="M32.8 8.7 L33.2 8.25 34.3 7.6 34.15 8.2 33.25 9.75 33.05 10.2 32.2 9.45 32.8 8.7 M26.5 10.3 L25.85 11.3 25.6 11.0 24.7 9.95 24.45 9.2 25.45 9.55 26.0 9.9 26.5 10.3 M32.25 15.55 L32.85 14.95 33.05 14.7 33.35 14.95 33.45 16.05 32.25 15.55" fill="#666666" fill-rule="evenodd" stroke="none"/>
      <path d="M33.5 11.55 L33.4 10.6 33.05 10.2 33.25 9.75 Q33.9 10.6 34.0 11.7 L34.0 11.8 Q34.05 12.95 33.55 13.9 L33.05 14.7 32.85 14.95 32.25 15.55 32.1 15.65 31.5 15.55 31.65 15.4 32.75 14.0 33.05 13.4 33.3 12.6 33.35 12.4 33.5 11.55 M25.9 13.65 L25.85 13.35 26.55 13.35 Q26.65 14.4 27.5 15.0 27.8 15.55 26.95 16.3 L26.7 15.95 26.65 15.95 Q27.05 15.45 26.5 14.9 L25.9 13.65 M22.65 21.4 L17.8 27.0 16.7 27.4 18.6 25.15 Q19.25 25.1 19.8 23.75 L22.2 20.95 22.65 21.4 M12.45 33.05 L7.85 38.5 7.55 38.1 7.6 38.05 8.6 36.65 11.75 33.15 12.45 33.05" fill="#957c1e" fill-rule="evenodd" stroke="none"/>
      <path d="M25.55 16.1 L25.85 15.55 26.65 15.9 26.65 15.95 26.7 15.95 26.3 16.5 25.55 16.1 M23.4 20.0 L23.3 19.6 23.45 19.7 23.4 20.0" fill="#dbc671" fill-rule="evenodd" stroke="none"/>
      <path d="M22.85 19.4 L23.65 18.5 24.3 18.8 23.45 19.7 23.3 19.6 22.85 19.4 M24.6 17.0 L25.55 16.1 26.3 16.5 25.25 17.25 24.6 17.0" fill="#e3d293" fill-rule="evenodd" stroke="none"/>
      <path d="M23.65 18.5 L24.6 17.0 25.25 17.25 24.3 18.8 23.65 18.5" fill="#f7f1dd" fill-rule="evenodd" stroke="none"/>
      <path d="M32.15 7.85 L33.15 7.65 32.8 8.7 32.2 9.45 Q31.65 9.05 31.05 8.8 L31.4 8.55 32.15 7.85 M27.3 9.5 L26.5 10.3 26.0 9.9 25.75 9.05 26.65 9.15 27.15 9.4 27.3 9.5 M33.05 14.7 L33.55 13.9 34.15 14.6 34.3 15.25 33.6 15.15 33.35 14.95 33.05 14.7" fill="#cccccc" fill-rule="evenodd" stroke="none"/>
      <path d="M21.8 20.6 L22.85 19.4 23.3 19.6 23.4 20.0 23.4 20.2 22.2 20.95 21.8 20.6" fill="#f4eed5" fill-rule="evenodd" stroke="none"/>
      <path d="M17.8 27.0 Q18.05 27.5 16.4 28.6 16.8 29.0 15.05 30.2 15.2 30.95 13.75 31.7 13.8 32.5 12.45 33.05 L11.75 33.15 Q13.05 32.45 12.9 31.85 14.45 31.1 14.2 30.35 15.65 29.5 15.55 28.75 17.0 27.9 16.7 27.4 L17.8 27.0 M7.6 38.05 L7.25 37.95 8.6 36.65 7.6 38.05 M32.75 14.0 L31.65 15.4 31.3 15.3 32.75 14.0 M16.4 28.6 L15.55 28.75 16.4 28.6 M15.05 30.2 L14.2 30.35 15.05 30.2 M12.9 31.85 L13.75 31.7 12.9 31.85" fill="#51350d" fill-rule="evenodd" stroke="none"/>
      <path d="M31.4 8.55 L31.05 8.8 Q31.65 9.05 32.2 9.45 L33.05 10.2 33.4 10.6 33.5 11.55 Q33.05 10.2 32.6 11.85 32.6 10.8 31.75 10.2 L31.65 10.15 Q30.4 8.8 28.8 9.35 28.2 9.65 27.75 10.0 26.65 10.75 26.15 11.8 L26.05 12.05 25.6 11.7 25.85 11.3 25.6 11.7 25.4 11.5 25.6 11.0 25.85 11.3 26.5 10.3 27.3 9.5 27.45 9.2 27.3 9.5 27.15 9.4 27.45 9.2 Q28.2 8.65 29.05 8.5 L29.3 8.45 30.7 8.4 31.4 8.55 M25.1 13.8 L25.9 13.65 26.5 14.9 Q27.05 15.45 26.65 15.95 L26.65 15.9 25.85 15.55 Q25.25 14.9 25.1 13.8 M7.25 37.95 L7.15 38.05 6.8 37.75 10.8 33.15 11.75 33.15 8.6 36.65 7.25 37.95 M16.3 26.9 L16.35 26.9 18.55 24.3 18.6 25.15 16.7 27.4 Q16.15 27.0 16.3 26.9 M19.7 23.0 L21.8 20.6 22.2 20.95 19.8 23.75 19.7 23.0 M31.05 8.8 L30.7 8.4 31.05 8.8 M31.3 15.3 L31.15 14.95 31.1 14.8 31.9 13.85 32.4 13.1 Q32.05 14.1 33.05 13.4 L32.75 14.0 31.3 15.3" fill="#e3bc2d" fill-rule="evenodd" stroke="none"/>
      <path d="M18.55 24.3 L19.7 23.0 19.8 23.75 Q19.25 25.1 18.6 25.15 L18.55 24.3" fill="#ffffcc" fill-rule="evenodd" stroke="none"/>
      <path d="M10.8 33.15 Q10.55 32.65 11.55 32.15 L11.85 32.0 Q11.9 31.0 13.2 30.45 13.25 29.7 14.55 28.9 15.15 27.15 16.3 26.9 16.15 27.0 16.7 27.4 17.0 27.9 15.55 28.75 L14.55 28.9 15.55 28.75 Q15.65 29.5 14.2 30.35 14.45 31.1 12.9 31.85 L11.85 32.0 12.9 31.85 Q13.05 32.45 11.75 33.15 L10.8 33.15 M13.2 30.45 L14.2 30.35 13.2 30.45" fill="#b3731c" fill-rule="evenodd" stroke="none"/>
      <path d="M26.95 16.3 L26.8 16.75 25.95 17.5 25.5 18.0 24.85 19.05 23.9 19.9 23.5 20.7 22.65 21.4 22.2 20.95 23.4 20.2 23.4 20.0 23.45 19.7 23.9 19.9 23.45 19.7 24.3 18.8 25.25 17.25 26.3 16.5 26.8 16.75 26.3 16.5 26.7 15.95 26.95 16.3 M23.5 20.7 L23.4 20.2 23.5 20.7 M25.95 17.5 L25.4 17.3 25.25 17.25 25.4 17.3 25.95 17.5 M25.4 17.3 L25.5 18.0 25.4 17.3 M24.85 19.05 L24.3 18.8 24.85 19.05" fill="#b0a272" fill-rule="evenodd" stroke="none"/>
      <path d="M27.75 10.0 Q28.2 9.65 28.8 9.35 30.4 8.8 31.65 10.15 30.75 9.55 29.5 9.75 28.55 9.9 27.85 10.45 L27.75 10.0" fill="#574811" fill-rule="evenodd" stroke="none"/>
      <path d="M26.05 12.05 L26.15 11.8 Q26.65 10.75 27.75 10.0 L27.85 10.45 27.35 10.95 Q26.5 11.95 26.5 13.15 L26.55 13.35 25.85 13.35 25.8 12.7 26.05 12.05" fill="#756117" fill-rule="evenodd" stroke="none"/>
      <path d="M25.6 11.7 L26.05 12.05 25.8 12.7 25.85 13.35 25.9 13.65 25.1 13.8 25.05 13.35 25.05 13.1 Q25.05 12.25 25.4 11.5 L25.6 11.7 M32.6 11.85 Q33.05 10.2 33.5 11.55 L33.35 12.4 33.3 12.6 33.05 13.4 Q32.05 14.1 32.4 13.1 L32.45 12.95 32.6 12.05 32.6 11.85" fill="#ffe06e" fill-rule="evenodd" stroke="none"/>
      <path d="M32.8 8.7 L33.15 7.65 32.15 7.85 36.6 4.05 33.2 8.25 32.8 8.7 M26.65 9.15 L25.75 9.05 26.0 9.9 25.45 9.55 21.95 6.8 26.65 9.15 M33.6 15.15 L34.3 15.25 34.15 14.6 36.85 17.5 33.6 15.15" fill="#ffffff" fill-rule="evenodd" stroke="none"/>
      <path d="M16.7 27.4 Q17.0 27.9 15.55 28.75 L16.4 28.6 M14.55 28.9 L15.55 28.75 Q15.65 29.5 14.2 30.35 L15.05 30.2 M12.9 31.85 Q14.45 31.1 14.2 30.35 L13.2 30.45 M12.9 31.85 Q13.05 32.45 11.75 33.15 M13.75 31.7 L12.9 31.85" fill="none" stroke="#330000" stroke-linecap="round" stroke-linejoin="round" stroke-opacity="0.3019608" stroke-width="0.05"/>
      <path d="M36.6 4.05 L32.15 7.85 31.4 8.55 31.05 8.8 Q31.65 9.05 32.2 9.45 M30.7 8.4 L29.3 8.45 29.05 8.5 Q28.2 8.65 27.45 9.2 L27.3 9.5 26.5 10.3 25.85 11.3 25.6 11.7 M31.65 10.15 L31.75 10.2 Q32.6 10.8 32.6 11.85 M33.4 10.6 L33.05 10.2 32.2 9.45 M27.45 9.2 L27.15 9.4 27.3 9.5 M26.55 13.35 L26.5 13.15 Q26.5 11.95 27.35 10.95 L27.85 10.45 Q28.55 9.9 29.5 9.75 30.75 9.55 31.65 10.15 M26.65 9.15 L21.95 6.8 24.7 9.95 25.6 11.0 25.85 11.3 M25.4 11.5 Q25.05 12.25 25.05 13.1 L25.05 13.35 25.1 13.8 M25.9 13.65 L25.85 13.35 25.8 12.7 M26.55 13.35 Q26.65 14.4 27.5 15.0 27.8 15.55 26.95 16.3 L26.8 16.75 25.95 17.5 25.5 18.0 24.85 19.05 23.9 19.9 23.5 20.7 22.65 21.4 17.8 27.0 Q18.05 27.5 16.4 28.6 16.8 29.0 15.05 30.2 15.2 30.95 13.75 31.7 13.8 32.5 12.45 33.05 L7.85 38.5 7.55 38.1 7.6 38.05 7.25 37.95 7.15 38.05 6.8 37.75 10.8 33.15 Q10.55 32.65 11.55 32.15 L11.85 32.0 Q11.9 31.0 13.2 30.45 13.25 29.7 14.55 28.9 15.15 27.15 16.3 26.9 L16.35 26.9 18.55 24.3 19.7 23.0 21.8 20.6 22.85 19.4 23.65 18.5 24.6 17.0 25.55 16.1 25.85 15.55 Q25.25 14.9 25.1 13.8 M27.15 9.4 L26.65 9.15 M25.6 11.0 L25.4 11.5 M33.25 9.75 L34.15 8.2 36.6 4.05 M33.25 9.75 L33.05 10.2 M31.4 8.55 L30.7 8.4 31.05 8.8 M32.4 13.1 L32.45 12.95 32.6 12.05 32.6 11.85 M31.3 15.3 L31.15 14.95 31.1 14.8 31.9 13.85 32.4 13.1 M32.75 14.0 L31.65 15.4 31.5 15.55 32.1 15.65 32.25 15.55 32.85 14.95 33.05 14.7 33.55 13.9 Q34.05 12.95 34.0 11.8 L34.0 11.7 Q33.9 10.6 33.25 9.75 M23.65 18.5 L24.3 18.8 24.85 19.05 M25.25 17.25 L24.6 17.0 M21.8 20.6 L22.2 20.95 M23.4 20.2 L23.4 20.0 23.3 19.6 22.85 19.4 M23.45 19.7 L23.3 19.6 M23.9 19.9 L23.45 19.7 M23.4 20.2 L23.5 20.7 M22.65 21.4 L22.2 20.95 M34.15 14.6 L33.55 13.9 M36.85 17.5 L34.15 14.6 M31.3 15.3 L31.65 15.4 M32.25 15.55 L33.45 16.05 36.85 17.5 M25.9 13.65 L26.5 14.9 Q27.05 15.45 26.65 15.95 L26.7 15.95 26.95 16.3 M26.65 15.95 L26.65 15.9 25.85 15.55 M26.3 16.5 L25.55 16.1 M25.25 17.25 L25.4 17.3 25.95 17.5 M26.8 16.75 L26.3 16.5 M25.5 18.0 L25.4 17.3 M32.75 14.0 L31.3 15.3 M11.85 32.0 L12.9 31.85 M7.6 38.05 L8.6 36.65 7.25 37.95" fill="none" stroke="#000000" stroke-linecap="round" stroke-linejoin="round" stroke-opacity="0.2509804" stroke-width="0.2"/>
    </g>
  </defs>
</svg>
