<?xml version="1.0" encoding="UTF-8" standalone="no"?>
<svg xmlns:xlink="http://www.w3.org/1999/xlink" height="440.0px" width="440.0px" xmlns="http://www.w3.org/2000/svg">
  <g transform="matrix(10.0, 0.0, 0.0, 10.0, 0.0, 0.0)">
    <use height="44.0" transform="matrix(1.0, 0.0, 0.0, 1.0, 0.0, 0.0)" width="44.0" xlink:href="#shape0"/>
  </g>
  <defs>
    <g id="shape0" transform="matrix(1.0, 0.0, 0.0, 1.0, 0.0, 0.0)">
      <path d="M44.0 44.0 L0.0 44.0 0.0 0.0 44.0 0.0 44.0 44.0" fill="#43adca" fill-opacity="0.0" fill-rule="evenodd" stroke="none"/>
      <path d="M40.95 5.1 L41.15 4.9 41.2 4.9 40.95 5.1" fill="#af9a58" fill-rule="evenodd" stroke="none"/>
      <path d="M30.75 12.05 L30.9 12.15 30.45 12.35 30.75 12.05" fill="#968f43" fill-rule="evenodd" stroke="none"/>
      <path d="M39.3 6.55 L39.4 6.55 37.2 8.5 39.3 6.55" fill="#69592e" fill-rule="evenodd" stroke="none"/>
      <path d="M34.05 8.65 L34.05 8.6 34.05 8.65" fill="#d4c578" fill-rule="evenodd" stroke="none"/>
      <path d="M24.2 16.75 Q26.25 14.85 25.35 16.55 L25.4 16.55 25.2 16.75 16.0 26.2 Q11.95 30.05 16.55 26.5 L26.3 17.3 28.4 14.25 30.45 12.35 30.9 12.15 31.4 11.55 34.05 9.4 34.6 9.8 26.35 17.7 26.5 17.55 17.25 27.0 27.15 17.85 7.5 36.95 7.05 36.4 7.35 36.1 8.65 34.85 9.15 34.35 8.85 34.2 15.25 27.9 5.3 35.25 4.4 35.05 12.7 29.1 14.15 27.2 21.5 19.35 24.2 16.75 M26.5 17.1 L26.35 17.25 26.5 17.1 M9.1 34.05 L10.0 34.15 16.95 27.4 9.1 34.05" fill="#916a4d" fill-rule="evenodd" stroke="none"/>
      <path d="M39.4 6.55 L40.95 5.1 41.2 4.9 41.35 5.05 29.05 16.25 29.0 16.05 Q28.95 15.95 26.8 17.35 L31.75 13.25 36.45 9.15 37.2 8.5 39.4 6.55 M3.3 38.65 L3.05 38.2 Q2.3 35.55 3.75 35.1 L3.85 35.05 4.4 35.05 5.3 35.25 5.65 35.4 6.1 35.1 Q7.15 35.55 7.35 36.1 L7.05 36.4 7.7 37.2 8.1 37.6 8.55 38.45 7.15 37.9 4.7 36.9 4.45 37.65 3.3 38.65" fill="#5e4331" fill-rule="evenodd" stroke="none"/>
      <path d="M34.05 8.65 L37.9 4.65 38.9 5.1 39.95 4.15 40.55 4.75 39.3 6.55 38.7 5.95 35.0 9.4 34.05 8.65 M41.35 5.05 L42.2 5.5 27.1 20.05 8.45 39.0 8.55 38.45 8.1 37.6 7.7 37.2 7.05 36.4 7.5 36.95 27.15 17.85 27.1 17.8 27.05 17.65 26.8 17.35 Q28.95 15.95 29.0 16.05 L29.05 16.25 41.35 5.05 M16.1 29.2 L7.7 37.2 16.1 29.2 M6.05 38.3 L4.8 38.8 4.45 37.65 4.7 36.9 7.15 37.9 6.05 38.3" fill="#2b1f16" fill-rule="evenodd" stroke="none"/>
      <path d="M25.4 16.55 L30.9 10.35 31.6 10.55 31.35 10.3 37.7 3.85 38.25 4.35 37.9 4.65 34.05 8.65 32.1 10.8 32.05 10.85 31.4 11.55 30.9 12.15 30.75 12.05 30.45 11.7 28.4 14.25 26.3 17.3 16.55 26.5 Q11.95 30.05 16.0 26.2 L25.2 16.75 25.15 16.85 25.4 16.55 M34.05 8.65 L34.05 8.6 34.05 8.65 M31.75 13.25 L26.8 17.35 27.05 17.65 27.1 17.8 27.15 17.85 17.25 27.0 26.5 17.55 26.35 17.7 31.75 13.2 31.75 13.25 M26.5 17.1 L26.35 17.25 26.5 17.1 M8.85 34.2 L9.15 34.35 8.65 34.85 7.35 36.1 Q7.15 35.55 6.1 35.1 L8.05 33.6 8.85 34.2 8.65 34.85 8.85 34.2 M9.1 34.05 L16.95 27.4 10.0 34.15 9.1 34.05" fill="#78563f" fill-rule="evenodd" stroke="none"/>
      <path d="M38.25 4.35 L37.7 3.85 31.35 10.3 31.6 10.55 30.9 10.35 25.4 16.55 25.35 16.55 Q26.25 14.85 24.2 16.75 L30.7 9.6 31.15 10.05 37.65 2.85 38.65 3.9 38.25 4.35 M25.4 16.55 L25.15 16.85 25.2 16.75 25.4 16.55 M28.4 14.25 L30.45 11.7 30.75 12.05 30.45 12.35 28.4 14.25 M31.4 11.55 L32.05 10.85 32.1 10.8 34.05 8.65 35.0 9.4 38.7 5.95 39.3 6.55 37.2 8.5 36.45 9.15 31.75 13.25 31.75 13.2 26.35 17.7 34.6 9.8 34.05 9.4 31.4 11.55 M3.85 35.05 L3.85 34.95 12.15 28.65 13.15 27.45 21.5 19.35 14.15 27.2 12.7 29.1 4.4 35.05 3.85 35.05 M6.1 35.1 L5.65 35.4 5.3 35.25 15.25 27.9 8.85 34.2 8.05 33.6 6.1 35.1" fill="#dea075" fill-rule="evenodd" stroke="none"/>
      <path d="M8.45 39.0 L7.2 40.1 6.6 40.3 6.05 38.3 7.15 37.9 8.55 38.45 8.45 39.0" fill="#453123" fill-rule="evenodd" stroke="none"/>
      <path d="M6.6 40.3 Q4.6 40.75 3.3 38.65 L4.45 37.65 4.8 38.8 6.05 38.3 6.6 40.3" fill="#573e2c" fill-rule="evenodd" stroke="none"/>
      <path d="M39.4 6.55 L37.2 8.5 36.45 9.15 M7.7 37.2 L16.1 29.2" fill="none" stroke="#000000" stroke-linecap="round" stroke-linejoin="round" stroke-opacity="0.6" stroke-width="0.05"/>
      <path d="M8.85 34.2 L8.65 34.85" fill="none" stroke="#000000" stroke-linecap="round" stroke-linejoin="round" stroke-opacity="0.2" stroke-width="0.4"/>
      <path d="M6.05 38.3 L4.8 38.8 4.45 37.65 3.3 38.65 M8.55 38.45 L7.15 37.9 6.05 38.3 6.6 40.3 M4.45 37.65 L4.7 36.9 7.15 37.9" fill="none" stroke="#000000" stroke-linecap="round" stroke-linejoin="round" stroke-opacity="0.2" stroke-width="0.25"/>
      <path d="M7.05 36.4 L7.7 37.2 M8.1 37.6 L8.55 38.45" fill="none" stroke="#000000" stroke-linecap="round" stroke-linejoin="round" stroke-opacity="0.4" stroke-width="0.05"/>
      <path d="M30.45 12.6 Q25.8 19.75 16.35 26.2 15.85 26.45 15.45 26.8 13.5 26.75 15.25 24.7 23.5 18.95 30.55 11.15 31.8 10.5 30.45 12.6" fill="url(#gradient0)" fill-rule="evenodd" stroke="none"/>
      <path d="M14.3 26.2 L14.95 26.3 Q15.7 26.55 16.25 27.3 L16.25 27.45 15.65 28.0 16.25 27.45 16.9 28.6 16.8 28.9 Q16.35 29.95 15.5 29.8 L15.5 29.7 15.0 28.85 14.95 28.85 14.5 28.35 13.7 27.8 12.6 27.65 11.7 27.75 12.6 27.65 11.45 28.55 11.25 27.75 11.7 27.75 12.45 26.8 11.7 27.75 11.25 27.75 11.4 27.25 12.0 26.45 13.25 26.1 14.3 26.2 13.15 26.55 12.45 26.8 13.15 26.55 14.3 26.2 M15.65 28.0 Q15.05 27.9 14.5 28.35 15.05 27.9 15.65 28.0 L15.0 28.85 15.65 28.0 Q16.3 28.15 16.9 28.6 16.3 28.15 15.65 28.0 M12.45 26.8 Q11.8 27.0 11.4 27.25 11.8 27.0 12.45 26.8" fill="#b18936" fill-rule="evenodd" stroke="none"/>
      <path d="M16.8 28.9 L17.0 29.9 17.05 30.25 17.05 30.45 17.15 30.6 17.05 31.55 Q16.95 31.65 17.0 31.7 17.0 32.8 15.7 32.25 L15.8 32.15 15.8 32.05 15.6 30.25 15.5 29.8 Q16.35 29.95 16.8 28.9 M15.6 30.25 Q16.75 30.35 17.05 31.55 16.75 30.35 15.6 30.25" fill="#896a29" fill-rule="evenodd" stroke="none"/>
      <path d="M16.25 27.45 L16.25 27.3 Q15.7 26.55 14.95 26.3 L14.3 26.2 13.15 26.55 12.45 26.8 M11.7 27.75 L12.6 27.65 13.7 27.8 14.5 28.35 Q15.05 27.9 15.65 28.0 16.3 28.15 16.9 28.6 L16.8 28.9 17.0 29.9 M16.25 27.45 L16.9 28.6 M17.05 30.45 L17.15 30.6 17.05 31.55 Q16.95 31.65 17.0 31.7 17.0 32.8 15.7 32.25 L15.8 32.15 15.8 32.05 15.6 30.25 15.5 29.8 15.5 29.7 15.0 28.85 14.95 28.85 14.5 28.35 M14.3 26.2 L13.25 26.1 12.0 26.45 11.4 27.25 Q11.8 27.0 12.45 26.8 M11.25 27.75 L11.7 27.75 M11.25 27.75 L11.45 28.55 12.6 27.65 M11.4 27.25 L11.25 27.75 M17.05 31.55 Q16.75 30.35 15.6 30.25" fill="none" stroke="#000000" stroke-linecap="round" stroke-linejoin="round" stroke-opacity="0.4" stroke-width="0.05"/>
      <path d="M12.45 26.8 L11.7 27.75 M15.65 28.0 L16.25 27.45 M15.0 28.85 L15.65 28.0" fill="none" stroke="#000000" stroke-linecap="round" stroke-linejoin="round" stroke-opacity="0.3019608" stroke-width="0.05"/>
      <path d="M20.35 24.5 Q20.25 23.75 19.6 23.75 20.25 23.75 20.35 24.5 L19.75 26.35 19.45 27.05 19.9 29.2 18.4 27.9 17.25 28.6 17.65 27.6 16.05 26.7 17.8 26.45 18.7 25.2 19.6 23.75 20.05 23.15 20.35 23.5 20.6 23.7 20.35 24.5 M19.75 26.35 Q19.4 25.15 18.7 25.2 19.4 25.15 19.75 26.35" fill="#896a29" fill-rule="evenodd" stroke="none"/>
      <path d="M19.6 23.75 Q20.25 23.75 20.35 24.5 L20.6 23.7 20.35 23.5 20.05 23.15 19.6 23.75 18.7 25.2 Q19.4 25.15 19.75 26.35 L20.35 24.5 M19.75 26.35 L19.45 27.05 19.9 29.2 18.4 27.9 17.25 28.6 17.65 27.6 16.05 26.7 17.8 26.45 18.7 25.2" fill="none" stroke="#000000" stroke-linecap="round" stroke-linejoin="round" stroke-opacity="0.4" stroke-width="0.05"/>
      <path d="M17.15 22.1 L17.85 22.4 17.65 22.8 17.5 23.1 16.65 23.05 14.65 22.95 13.95 22.85 11.95 23.8 12.85 22.05 11.85 21.1 12.95 21.25 13.35 19.45 14.05 21.05 15.55 21.65 17.15 22.1 Q17.35 22.75 16.65 23.05 17.35 22.75 17.15 22.1 M14.65 22.95 Q15.75 22.3 15.55 21.65 15.75 22.3 14.65 22.95" fill="#896a29" fill-rule="evenodd" stroke="none"/>
      <path d="M17.15 22.1 L17.85 22.4 17.65 22.8 17.5 23.1 16.65 23.05 14.65 22.95 13.95 22.85 11.95 23.8 12.85 22.05 11.85 21.1 12.95 21.25 13.35 19.45 14.05 21.05 15.55 21.65 17.15 22.1 Q17.35 22.75 16.65 23.05 M15.55 21.65 Q15.75 22.3 14.65 22.95" fill="none" stroke="#000000" stroke-linecap="round" stroke-linejoin="round" stroke-opacity="0.4" stroke-width="0.05"/>
      <path d="M13.45 26.75 Q14.7 27.25 15.6 28.2 L16.7 29.85 16.85 30.15 Q16.55 30.05 16.0 30.45 L15.0 31.25 13.5 32.7 12.6 33.65 Q13.3 35.3 13.05 36.1 12.7 37.1 12.05 36.35 L11.95 35.8 11.85 35.6 Q11.6 34.4 10.75 33.2 L10.7 33.1 Q10.55 32.85 11.0 33.1 L11.45 31.65 11.3 31.5 10.75 31.05 11.45 31.35 11.55 31.35 10.1 29.75 10.2 29.55 Q10.45 28.5 11.1 27.85 11.95 26.95 13.45 26.75" fill="#cc8316" fill-rule="evenodd" stroke="none"/>
      <path d="M12.05 36.35 Q12.7 37.1 13.05 36.1 13.3 35.3 12.6 33.65 L13.5 32.7 15.0 31.25 16.0 30.45 Q16.55 30.05 16.85 30.15 L17.0 30.75 17.05 30.95 17.1 31.05 17.3 32.4 17.3 33.35 17.25 33.6 16.95 34.0 16.95 34.1 15.95 34.9 14.4 36.5 Q13.85 37.05 13.4 37.75 L13.25 37.85 Q12.35 38.8 10.7 38.85 9.9 38.6 9.2 38.15 L9.8 37.6 11.5 37.65 Q12.05 37.2 12.05 36.35" fill="#80520e" fill-rule="evenodd" stroke="none"/>
      <path d="M13.45 26.75 Q11.95 26.95 11.1 27.85 10.45 28.5 10.2 29.55 L10.1 29.75 11.55 31.35 11.45 31.35 10.75 31.05 11.3 31.5 11.25 31.5 11.45 31.65 11.0 33.1 8.85 31.25 8.55 31.0 6.6 30.85 Q5.85 31.35 6.05 32.7 L6.2 33.1 5.7 33.55 5.1 31.65 5.1 31.6 Q4.85 30.6 5.65 30.0 L7.5 28.85 9.1 27.45 9.7 26.75 10.05 26.45 Q10.4 26.15 11.1 26.2 L11.2 26.15 11.6 26.15 12.55 26.4 13.45 26.75" fill="#ffa41c" fill-rule="evenodd" stroke="none"/>
      <path d="M11.85 35.6 L11.95 35.8 12.05 36.35 Q12.05 37.2 11.5 37.65 L9.8 37.6 11.85 35.6 M8.85 31.25 L6.2 33.1 6.05 32.7 Q5.85 31.35 6.6 30.85 L8.55 31.0 8.85 31.25" fill="#4d2f08" fill-rule="evenodd" stroke="none"/>
      <path d="M16.85 30.15 L16.7 29.85 15.6 28.2 Q14.7 27.25 13.45 26.75 M11.0 33.1 Q10.55 32.85 10.7 33.1 L10.75 33.2 Q11.6 34.4 11.85 35.6 L11.95 35.8 12.05 36.35 M16.85 30.15 L17.0 30.75 17.05 30.95 M17.1 31.05 L17.3 32.4 17.3 33.35 17.25 33.6 16.95 34.0 16.95 34.1 15.95 34.9 14.4 36.5 Q13.85 37.05 13.4 37.75 L13.25 37.85 Q12.35 38.8 10.7 38.85 9.9 38.6 9.2 38.15 L9.8 37.6 11.5 37.65 Q12.05 37.2 12.05 36.35 M6.2 33.1 L5.7 33.55 5.1 31.65 5.1 31.6 Q4.85 30.6 5.65 30.0 L7.5 28.85 9.1 27.45 9.7 26.75 10.05 26.45 Q10.4 26.15 11.1 26.2 L11.2 26.15 11.6 26.15 12.55 26.4 13.45 26.75 M11.0 33.1 L8.85 31.25 M6.2 33.1 L6.05 32.7 Q5.85 31.35 6.6 30.85 L8.55 31.0 8.85 31.25" fill="none" stroke="#000000" stroke-linecap="round" stroke-linejoin="round" stroke-opacity="0.4" stroke-width="0.05"/>
      <path d="M26.95 13.55 L27.6 13.65 Q28.35 13.9 28.9 14.65 L28.9 14.8 28.3 15.35 28.9 14.8 29.55 15.95 29.45 16.25 Q29.0 17.3 28.15 17.15 L28.15 17.05 27.65 16.2 27.6 16.2 27.15 15.7 26.35 15.15 25.25 15.0 24.35 15.1 25.25 15.0 24.1 15.9 23.9 15.1 24.35 15.1 25.1 14.15 24.35 15.1 23.9 15.1 24.05 14.6 24.65 13.8 Q25.3 13.55 25.9 13.45 L26.95 13.55 25.8 13.9 25.1 14.15 25.8 13.9 26.95 13.55 M28.3 15.35 Q27.7 15.25 27.15 15.7 27.7 15.25 28.3 15.35 L27.65 16.2 28.3 15.35 Q28.95 15.5 29.55 15.95 28.95 15.5 28.3 15.35 M25.1 14.15 L24.05 14.6 25.1 14.15" fill="#b18936" fill-rule="evenodd" stroke="none"/>
      <path d="M29.45 16.25 L29.65 17.25 29.7 17.6 29.7 17.8 29.8 17.95 29.7 18.9 29.65 19.05 Q29.65 20.15 28.35 19.6 L28.45 19.5 28.45 19.4 28.25 17.6 28.15 17.15 Q29.0 17.3 29.45 16.25 M28.25 17.6 Q29.4 17.7 29.7 18.9 29.4 17.7 28.25 17.6" fill="#896a29" fill-rule="evenodd" stroke="none"/>
      <path d="M28.9 14.8 L28.9 14.65 Q28.35 13.9 27.6 13.65 L26.95 13.55 25.8 13.9 25.1 14.15 M24.35 15.1 L25.25 15.0 26.35 15.15 27.15 15.7 Q27.7 15.25 28.3 15.35 28.95 15.5 29.55 15.95 L29.45 16.25 29.65 17.25 M28.9 14.8 L29.55 15.95 M29.7 17.8 L29.8 17.95 29.7 18.9 29.65 19.05 Q29.65 20.15 28.35 19.6 L28.45 19.5 28.45 19.4 28.25 17.6 28.15 17.15 28.15 17.05 27.65 16.2 27.6 16.2 27.15 15.7 M26.95 13.55 L25.9 13.45 Q25.3 13.55 24.65 13.8 L24.05 14.6 25.1 14.15 M23.9 15.1 L24.35 15.1 M23.9 15.1 L24.1 15.9 25.25 15.0 M24.05 14.6 L23.9 15.1 M29.7 18.9 Q29.4 17.7 28.25 17.6" fill="none" stroke="#000000" stroke-linecap="round" stroke-linejoin="round" stroke-opacity="0.4" stroke-width="0.05"/>
      <path d="M25.1 14.15 L24.35 15.1 M28.3 15.35 L28.9 14.8 M27.65 16.2 L28.3 15.35" fill="none" stroke="#000000" stroke-linecap="round" stroke-linejoin="round" stroke-opacity="0.3019608" stroke-width="0.05"/>
      <path d="M18.9 21.85 L18.25 22.5 17.4 20.3 17.4 20.25 Q17.05 19.3 17.8 18.6 20.05 17.1 21.5 14.95 L21.75 14.6 Q22.1 14.25 22.75 14.3 L22.9 14.15 23.3 14.15 24.25 14.3 25.2 14.5 Q22.5 15.3 22.15 17.9 L23.75 19.3 23.65 19.35 22.95 19.1 23.6 19.5 23.5 19.5 23.7 19.6 23.4 21.1 21.05 19.45 20.75 19.3 18.85 19.35 Q18.1 19.9 18.45 21.25 L18.9 21.85" fill="#ffa41c" fill-rule="evenodd" stroke="none"/>
      <path d="M25.2 14.5 Q26.45 14.9 27.45 15.75 L28.75 17.35 28.9 17.6 Q28.6 17.55 28.1 18.0 27.25 18.6 25.05 21.5 25.95 23.1 25.8 23.9 25.5 24.95 24.8 24.3 L24.6 23.7 24.55 23.55 24.25 22.9 23.15 21.25 23.15 21.15 Q22.95 20.9 23.4 21.1 L23.7 19.6 23.6 19.5 22.95 19.1 23.65 19.35 23.75 19.3 22.15 17.9 Q22.5 15.3 25.2 14.5" fill="#cc8316" fill-rule="evenodd" stroke="none"/>
      <path d="M22.15 25.0 L24.25 22.9 24.55 23.55 24.6 23.7 24.8 24.3 Q24.9 25.15 24.4 25.65 23.75 26.1 22.15 25.0 M21.05 19.45 L21.2 19.6 18.9 21.85 18.45 21.25 Q18.1 19.9 18.85 19.35 L20.75 19.3 21.05 19.45" fill="#4d2f08" fill-rule="evenodd" stroke="none"/>
      <path d="M28.9 17.6 L29.1 18.2 29.15 18.4 29.3 18.45 29.6 19.75 29.7 20.7 29.65 21.0 29.4 21.4 29.45 21.45 Q27.55 23.1 26.3 25.55 L26.15 25.65 Q25.4 26.6 23.7 26.9 22.85 26.7 21.35 25.95 L22.15 25.0 Q23.75 26.1 24.4 25.65 24.9 25.15 24.8 24.3 25.5 24.95 25.8 23.9 25.95 23.1 25.05 21.5 27.25 18.6 28.1 18.0 28.6 17.55 28.9 17.6" fill="#80520e" fill-rule="evenodd" stroke="none"/>
      <path d="M18.9 21.85 L18.25 22.5 17.4 20.3 17.4 20.25 Q17.05 19.3 17.8 18.6 20.05 17.1 21.5 14.95 L21.75 14.6 Q22.1 14.25 22.75 14.3 L22.9 14.15 23.3 14.15 24.25 14.3 25.2 14.5 Q26.45 14.9 27.45 15.75 L28.75 17.35 28.9 17.6 29.1 18.2 29.15 18.4 M29.3 18.45 L29.6 19.75 29.7 20.7 29.65 21.0 29.4 21.4 29.45 21.45 Q27.55 23.1 26.3 25.55 L26.15 25.65 Q25.4 26.6 23.7 26.9 22.85 26.7 21.35 25.95 L22.15 25.0 M24.25 22.9 L23.15 21.25 23.15 21.15 Q22.95 20.9 23.4 21.1 L21.05 19.45 M18.9 21.85 L18.45 21.25 Q18.1 19.9 18.85 19.35 L20.75 19.3 21.05 19.45 M24.25 22.9 L24.55 23.55 24.6 23.7 24.8 24.3 Q24.9 25.15 24.4 25.65 23.75 26.1 22.15 25.0" fill="none" stroke="#000000" stroke-linecap="round" stroke-linejoin="round" stroke-opacity="0.4" stroke-width="0.05"/>
      <path d="M22.4 17.05 L20.7 17.5 20.4 16.45 21.85 16.05 22.4 17.05" fill="#593509" fill-rule="evenodd" stroke="none"/>
      <path d="M23.2 17.45 L24.85 17.35 24.85 18.85 23.35 18.85 23.2 17.45" fill="#402707" fill-rule="evenodd" stroke="none"/>
      <path d="M25.35 21.15 L25.7 19.55 26.75 19.85 25.35 21.15" fill="#402707" fill-rule="evenodd" stroke="none"/>
      <path d="M26.75 19.85 L27.0 19.9 26.7 21.55 25.35 21.15 26.75 19.85" fill="#261804" fill-rule="evenodd" stroke="none"/>
      <path d="M26.8 22.2 L27.75 22.4 27.75 22.45 27.3 23.75 27.25 23.8 26.1 23.6 26.8 22.2" fill="#261804" fill-rule="evenodd" stroke="none"/>
      <path d="M11.15 27.8 Q12.2 28.2 13.05 28.85 L13.05 28.9 Q14.2 29.8 15.05 31.25 L14.95 31.35 13.55 32.7 13.5 32.65 Q12.7 31.25 11.6 30.35 L11.55 30.35 10.25 29.5 10.6 28.6 11.15 27.8" fill="#cc8316" fill-rule="evenodd" stroke="none"/>
      <path d="M10.25 29.5 L9.6 29.2 9.45 29.15 7.55 28.8 8.6 28.0 9.15 27.4 11.0 27.75 11.15 27.8 10.6 28.6 10.25 29.5" fill="#ffa41c" fill-rule="evenodd" stroke="none"/>
      <path d="M15.05 31.25 L15.2 31.4 15.2 31.45 15.4 31.9 15.8 33.15 15.95 33.95 15.95 34.0 16.0 34.85 15.5 35.35 15.45 35.35 14.6 36.2 14.4 36.45 14.4 36.25 14.4 36.2 14.35 35.15 14.2 34.55 13.85 33.3 13.55 32.7 14.95 31.35 15.05 31.25" fill="#80520e" fill-rule="evenodd" stroke="none"/>
      <path d="M10.6 28.55 L8.9 29.0 8.6 27.95 10.05 27.55 10.6 28.55" fill="#593509" fill-rule="evenodd" stroke="none"/>
      <path d="M11.4 29.0 L13.05 28.9 13.05 30.4 11.55 30.4 11.4 29.0" fill="#402707" fill-rule="evenodd" stroke="none"/>
      <path d="M14.95 31.4 L13.55 32.7 13.9 31.1 14.95 31.4" fill="#402707" fill-rule="evenodd" stroke="none"/>
      <path d="M13.55 32.7 L14.95 31.4 15.2 31.45 14.9 33.1 13.55 32.7" fill="#261804" fill-rule="evenodd" stroke="none"/>
      <path d="M15.0 33.75 L15.95 33.95 15.95 34.0 15.5 35.3 15.45 35.35 14.3 35.15 15.0 33.75" fill="#261804" fill-rule="evenodd" stroke="none"/>
      <path d="M21.0 20.2 L21.5 20.3 Q22.15 20.5 22.55 21.1 L22.55 21.2 22.05 21.7 22.55 21.2 23.1 22.15 23.05 22.4 Q22.65 23.25 21.95 23.15 L21.95 23.05 21.55 22.35 21.5 22.35 21.15 21.95 20.5 21.55 19.4 21.35 18.85 21.45 19.4 21.35 18.65 22.1 18.5 21.5 18.6 21.05 19.05 20.4 20.15 20.1 21.0 20.2 20.0 20.5 19.45 20.7 20.0 20.5 21.0 20.2 M18.85 21.45 L19.45 20.7 18.85 21.45 18.5 21.5 18.85 21.45 M22.05 21.7 Q21.6 21.55 21.15 21.95 21.6 21.55 22.05 21.7 L21.55 22.35 22.05 21.7 Q22.6 21.75 23.1 22.15 22.6 21.75 22.05 21.7 M19.45 20.7 L18.6 21.05 19.45 20.7" fill="#b18936" fill-rule="evenodd" stroke="none"/>
      <path d="M23.05 22.4 L23.2 23.2 23.25 23.55 23.25 23.7 23.3 23.8 23.25 24.6 23.2 24.7 Q23.2 25.6 22.1 25.15 L22.2 25.05 22.2 25.0 22.05 23.55 21.95 23.15 Q22.65 23.25 23.05 22.4 M23.25 24.6 Q23.0 23.6 22.05 23.55 23.0 23.6 23.25 24.6" fill="#896a29" fill-rule="evenodd" stroke="none"/>
      <path d="M22.55 21.2 L22.55 21.1 Q22.15 20.5 21.5 20.3 L21.0 20.2 20.0 20.5 19.45 20.7 M18.85 21.45 L19.4 21.35 20.5 21.55 21.15 21.95 Q21.6 21.55 22.05 21.7 M22.55 21.2 L23.1 22.15 23.05 22.4 23.2 23.2 M23.25 23.7 L23.3 23.8 23.25 24.6 23.2 24.7 Q23.2 25.6 22.1 25.15 L22.2 25.05 22.2 25.0 22.05 23.55 21.95 23.15 21.95 23.05 21.55 22.35 21.5 22.35 21.15 21.95 M21.0 20.2 L20.15 20.1 19.05 20.4 18.6 21.05 19.45 20.7 M18.5 21.5 L18.85 21.45 M18.6 21.05 L18.5 21.5 18.65 22.1 19.4 21.35 M22.05 23.55 Q23.0 23.6 23.25 24.6 M23.1 22.15 Q22.6 21.75 22.05 21.7" fill="none" stroke="#000000" stroke-linecap="round" stroke-linejoin="round" stroke-opacity="0.4" stroke-width="0.05"/>
      <path d="M19.45 20.7 L18.85 21.45 M22.05 21.7 L22.55 21.2 M22.05 21.7 L21.55 22.35" fill="none" stroke="#000000" stroke-linecap="round" stroke-linejoin="round" stroke-opacity="0.3019608" stroke-width="0.05"/>
      <path d="M9.0 30.9 L9.65 31.0 Q10.4 31.25 10.95 32.0 L10.95 32.15 10.35 32.7 10.95 32.15 11.6 33.3 11.5 33.6 Q11.05 34.65 10.2 34.5 L10.2 34.4 9.7 33.55 9.65 33.55 9.2 33.05 8.4 32.5 7.3 32.35 6.4 32.45 7.3 32.35 6.15 33.25 5.95 32.45 6.4 32.45 7.15 31.5 6.4 32.45 5.95 32.45 6.1 31.95 6.7 31.15 7.95 30.8 9.0 30.9 7.85 31.25 7.15 31.5 7.85 31.25 9.0 30.9 M10.35 32.7 Q9.75 32.6 9.2 33.05 9.75 32.6 10.35 32.7 L9.7 33.55 10.35 32.7 Q11.0 32.85 11.6 33.3 11.0 32.85 10.35 32.7 M7.15 31.5 L6.1 31.95 7.15 31.5" fill="#b18936" fill-rule="evenodd" stroke="none"/>
      <path d="M11.5 33.6 L11.7 34.6 11.75 34.95 11.75 35.15 11.85 35.3 11.75 36.25 Q11.65 36.35 11.7 36.4 11.7 37.5 10.4 36.95 L10.5 36.85 10.5 36.75 10.3 34.95 10.2 34.5 Q11.05 34.65 11.5 33.6 M10.3 34.95 Q11.45 35.05 11.75 36.25 11.45 35.05 10.3 34.95" fill="#896a29" fill-rule="evenodd" stroke="none"/>
      <path d="M10.95 32.15 L10.95 32.0 Q10.4 31.25 9.65 31.0 L9.0 30.9 7.85 31.25 7.15 31.5 M6.4 32.45 L7.3 32.35 8.4 32.5 9.2 33.05 Q9.75 32.6 10.35 32.7 M10.95 32.15 L11.6 33.3 11.5 33.6 11.7 34.6 M11.75 35.15 L11.85 35.3 11.75 36.25 Q11.65 36.35 11.7 36.4 11.7 37.5 10.4 36.95 L10.5 36.85 10.5 36.75 10.3 34.95 10.2 34.5 10.2 34.4 9.7 33.55 9.65 33.55 9.2 33.05 M11.6 33.3 Q11.0 32.85 10.35 32.7 M9.0 30.9 L7.95 30.8 6.7 31.15 6.1 31.95 7.15 31.5 M5.95 32.45 L6.4 32.45 M5.95 32.45 L6.15 33.25 7.3 32.35 M6.1 31.95 L5.95 32.45 M11.75 36.25 Q11.45 35.05 10.3 34.95" fill="none" stroke="#000000" stroke-linecap="round" stroke-linejoin="round" stroke-opacity="0.4" stroke-width="0.05"/>
      <path d="M7.15 31.5 L6.4 32.45 M10.35 32.7 L10.95 32.15 M10.35 32.7 L9.7 33.55" fill="none" stroke="#000000" stroke-linecap="round" stroke-linejoin="round" stroke-opacity="0.3019608" stroke-width="0.05"/>
      <path d="M19.4 21.7 L19.95 21.8 21.0 22.6 21.0 22.75 20.5 23.25 21.0 22.75 21.55 23.75 21.5 23.95 Q21.1 24.85 20.35 24.7 L20.35 24.65 19.95 23.95 19.55 23.5 18.9 23.05 17.95 22.95 17.2 23.0 17.95 22.95 17.0 23.65 16.85 23.05 17.2 23.0 17.85 22.2 17.2 23.0 16.85 23.05 17.0 22.6 17.45 21.9 18.55 21.65 19.4 21.7 18.4 22.0 17.85 22.2 18.4 22.0 19.4 21.7 M20.5 23.25 Q20.0 23.15 19.55 23.5 20.0 23.15 20.5 23.25 L19.95 23.95 20.5 23.25 Q21.05 23.35 21.55 23.75 21.05 23.35 20.5 23.25 M17.85 22.2 L17.0 22.6 17.85 22.2" fill="#b18936" fill-rule="evenodd" stroke="none"/>
      <path d="M21.5 23.95 L21.65 24.8 21.7 25.1 21.7 25.25 21.75 25.4 21.7 26.2 21.65 26.3 Q21.65 27.2 20.55 26.75 L20.65 26.7 20.65 26.6 20.45 25.1 20.35 24.7 Q21.1 24.85 21.5 23.95 M20.45 25.1 Q21.45 25.15 21.7 26.2 21.45 25.15 20.45 25.1" fill="#896a29" fill-rule="evenodd" stroke="none"/>
      <path d="M21.0 22.75 L21.0 22.6 19.95 21.8 19.4 21.7 18.4 22.0 17.85 22.2 M17.2 23.0 L17.95 22.95 18.9 23.05 19.55 23.5 Q20.0 23.15 20.5 23.25 M21.0 22.75 L21.55 23.75 21.5 23.95 21.65 24.8 M21.7 25.25 L21.75 25.4 21.7 26.2 21.65 26.3 Q21.65 27.2 20.55 26.75 L20.65 26.7 20.65 26.6 20.45 25.1 20.35 24.7 20.35 24.65 19.95 23.95 19.55 23.5 M21.55 23.75 Q21.05 23.35 20.5 23.25 M19.4 21.7 L18.55 21.65 17.45 21.9 17.0 22.6 17.85 22.2 M16.85 23.05 L17.2 23.0 M16.85 23.05 L17.0 23.65 17.95 22.95 M17.0 22.6 L16.85 23.05 M21.7 26.2 Q21.45 25.15 20.45 25.1" fill="none" stroke="#000000" stroke-linecap="round" stroke-linejoin="round" stroke-opacity="0.4" stroke-width="0.05"/>
      <path d="M17.85 22.2 L17.2 23.0 M20.5 23.25 L21.0 22.75 M20.5 23.25 L19.95 23.95" fill="none" stroke="#000000" stroke-linecap="round" stroke-linejoin="round" stroke-opacity="0.3019608" stroke-width="0.05"/>
      <path d="M41.15 4.9 L39.4 6.6 39.3 6.6 40.5 4.8 39.9 4.2 38.85 5.15 37.9 4.7 38.2 4.4 38.6 3.9 37.6 2.9 31.15 10.1 30.65 9.6 27.05 13.6 26.95 13.6 25.95 13.5 24.65 13.85 24.25 14.35 23.3 14.2 22.85 14.2 22.75 14.3 Q22.05 14.3 21.75 14.65 L21.45 15.0 Q20.0 17.15 17.75 18.65 17.0 19.35 17.35 20.25 L17.35 20.35 17.95 21.85 17.45 21.95 17.3 22.2 17.15 22.1 14.05 21.05 13.3 19.45 12.95 21.25 11.85 21.1 12.85 22.1 11.95 23.85 13.9 22.9 16.85 23.1 17.0 23.7 17.2 23.55 14.45 26.3 14.3 26.25 13.25 26.15 12.3 26.4 11.6 26.2 11.2 26.15 11.05 26.25 Q10.4 26.15 10.0 26.5 L9.7 26.8 9.15 27.45 9.1 27.5 8.85 27.8 Q8.75 27.85 8.6 28.0 L8.55 28.0 8.15 28.4 7.55 28.85 7.5 28.9 5.65 30.05 Q4.85 30.65 5.1 31.65 L5.1 31.7 5.7 33.6 6.1 33.2 6.15 33.25 5.7 33.6 3.85 35.0 3.85 35.1 3.75 35.15 Q2.25 35.6 3.05 38.25 L3.25 38.7 Q4.55 40.8 6.55 40.35 L7.15 40.15 8.4 39.05 9.2 38.25 10.65 38.9 Q12.35 38.85 13.25 37.9 L13.4 37.8 14.35 36.55 14.4 36.5 14.45 36.45 14.6 36.25 15.45 35.4 15.5 35.35 15.9 34.95 15.95 34.9 16.95 34.15 16.95 34.05 17.2 33.65 17.3 33.4 17.3 32.45 17.1 31.1 17.15 31.0 17.15 30.65 17.05 30.5 17.05 30.3 17.1 30.25 18.95 28.4 19.9 29.25 19.6 27.8 20.6 26.8 Q21.65 27.25 21.65 26.4 L21.65 26.2 21.65 26.15 Q22.9 26.8 23.7 26.95 25.35 26.65 26.15 25.7 L26.3 25.55 Q27.55 23.15 29.4 21.5 L29.4 21.45 29.6 21.05 29.7 20.75 29.6 19.8 29.55 19.6 29.65 19.1 29.7 18.95 29.8 18.0 29.7 17.85 29.7 17.8 42.15 5.55 41.35 5.1 41.2 4.9 41.15 4.9 Z" fill="none" stroke="#000000" stroke-linecap="round" stroke-linejoin="round" stroke-opacity="0.4509804" stroke-width="0.8"/>
    </g>
    <radialGradient cx="0" cy="0" gradientTransform="matrix(-3.0E-4, 0.0044, 0.0071, -0.0057, 23.4, 19.55)" gradientUnits="userSpaceOnUse" id="gradient0" r="819.2" spreadMethod="pad">
      <stop offset="0.0" stop-color="#ffffcc" stop-opacity="0.4117647"/>
      <stop offset="1.0" stop-color="#ffffff" stop-opacity="0.0"/>
    </radialGradient>
  </defs>
</svg>
