<?xml version="1.0" encoding="UTF-8" standalone="no"?>
<svg xmlns:xlink="http://www.w3.org/1999/xlink" height="440.0px" width="440.0px" xmlns="http://www.w3.org/2000/svg">
  <g transform="matrix(10.0, 0.0, 0.0, 10.0, 0.0, 0.0)">
    <use height="44.0" transform="matrix(0.9091, 0.0, 0.0, 0.9091, 2.0, 2.0)" width="44.0" xlink:href="#sprite0"/>
  </g>
  <defs>
    <g id="sprite0" transform="matrix(1.0, 0.0, 0.0, 1.0, 0.0, 0.0)">
      <use height="44.0" transform="matrix(1.0, 0.0, 0.0, 1.0, 0.0, 0.0)" width="44.0" xlink:href="#shape0"/>
      <use height="44.55" transform="matrix(0.5933, 0.0, 0.0, 0.5933, 13.35, 13.85)" width="46.2" xlink:href="#sprite1"/>
    </g>
    <g id="shape0" transform="matrix(1.0, 0.0, 0.0, 1.0, 0.0, 0.0)">
      <path d="M44.0 44.0 L0.0 44.0 0.0 0.0 44.0 0.0 44.0 44.0" fill="#43adca" fill-opacity="0.0" fill-rule="evenodd" stroke="none"/>
      <path d="M13.85 29.4 L13.65 29.8 13.3 29.7 13.55 30.0 13.4 30.1 12.75 29.8 13.3 30.4 12.4 32.0 12.1 32.15 12.1 32.5 12.0 32.6 12.0 32.65 11.85 32.6 11.9 32.85 10.65 35.0 Q9.85 36.55 9.8 37.25 L9.85 38.65 9.9 38.75 9.75 38.65 Q8.3 36.95 9.2 35.25 L13.8 27.2 15.85 27.25 16.45 28.05 16.35 28.05 15.45 27.95 Q14.8 28.15 14.0 29.15 L14.05 29.15 14.15 29.45 13.4 29.0 13.85 29.4" fill="#62a3ac" fill-rule="evenodd" stroke="none"/>
      <path d="M9.9 38.75 L9.85 38.65 9.8 37.25 Q9.85 36.55 10.65 35.0 L11.9 32.85 11.85 32.6 12.0 32.65 12.0 32.6 12.1 32.5 12.1 32.15 12.4 32.0 13.3 30.4 12.75 29.8 13.4 30.1 13.55 30.0 13.3 29.7 13.65 29.8 13.85 29.4 14.1 29.65 10.9 35.15 Q10.05 36.6 9.95 37.35 L10.05 38.9 9.9 38.75 M14.15 29.45 L14.05 29.15 14.0 29.15 Q14.8 28.15 15.45 27.95 L16.35 28.05 15.5 28.1 Q14.95 28.35 14.3 29.3 L14.15 29.45 M9.5 38.6 L7.55 36.9 7.35 36.65 Q6.7 35.2 8.35 32.45 L9.7 30.15 10.1 30.35 Q9.7 30.1 9.95 29.85 L10.65 28.55 11.05 28.5 10.8 28.25 10.9 28.05 11.65 28.4 11.15 28.05 11.0 27.9 11.5 26.9 11.9 27.0 11.65 26.6 11.6 26.6 11.75 26.0 Q11.75 25.15 11.15 24.4 L11.2 24.4 13.55 26.9 11.05 31.4 8.55 35.55 8.55 35.6 Q8.0 36.7 9.5 38.6 M9.2 31.9 Q8.45 33.55 9.25 33.55 11.25 30.85 11.3 29.75 10.75 29.4 10.1 30.35 9.7 30.85 9.2 31.9 M12.25 28.75 Q13.1 27.9 12.9 27.25 11.3 27.1 12.25 28.75" fill="#c4dcdf" fill-rule="evenodd" stroke="none"/>
      <path d="M9.75 38.65 L9.9 38.75 10.05 38.9 9.75 38.75 9.65 38.7 9.75 38.65 M14.15 26.55 L14.1 26.6 14.1 26.65 14.05 26.6 14.15 26.55" fill="#9da5bb" fill-rule="evenodd" stroke="none"/>
      <path d="M13.8 27.2 L9.2 35.25 Q8.3 36.95 9.75 38.65 L9.65 38.7 9.5 38.6 Q8.0 36.7 8.55 35.6 L8.55 35.55 11.05 31.4 13.55 26.9 14.3 25.2 14.05 26.6 14.1 26.65 13.8 27.2 M7.35 36.65 Q6.25 35.05 8.05 31.95 L10.95 27.05 11.35 26.0 Q11.55 25.05 11.05 24.35 L11.15 24.4 Q11.75 25.15 11.75 26.0 L11.6 26.6 11.65 26.6 11.9 27.0 11.5 26.9 11.0 27.9 11.15 28.05 11.65 28.4 10.9 28.05 10.8 28.25 11.05 28.5 10.65 28.55 9.95 29.85 Q9.7 30.1 10.1 30.35 L9.7 30.15 8.35 32.45 Q6.7 35.2 7.35 36.65" fill="#fbfdfd" fill-rule="evenodd" stroke="none"/>
      <path d="M14.3 24.9 L14.35 24.55 14.3 24.2 14.05 23.75 16.4 25.1 15.85 25.25 15.45 25.6 15.45 25.55 15.2 25.75 15.0 25.9 14.8 26.05 14.6 26.2 14.5 26.25 14.15 26.55 14.05 26.6 14.3 25.2 14.3 25.15 14.3 24.9" fill="#3f2c39" fill-rule="evenodd" stroke="none"/>
      <path d="M9.2 31.9 Q9.7 30.85 10.1 30.35 10.75 29.4 11.3 29.75 11.25 30.85 9.25 33.55 8.45 33.55 9.2 31.9 M12.25 28.75 Q11.3 27.1 12.9 27.25 13.1 27.9 12.25 28.75" fill="#91bac4" fill-rule="evenodd" stroke="none"/>
      <path d="M11.2 24.4 L12.4 24.9 13.7 25.05 14.05 24.95 14.25 24.85 14.3 24.9 14.3 25.15 14.3 25.2 13.55 26.9 11.2 24.4" fill="#a3b7ba" fill-rule="evenodd" stroke="none"/>
      <path d="M15.85 27.25 L13.8 27.2 14.1 26.65 14.1 26.6 14.55 26.25 14.6 26.2 14.85 26.05 15.05 25.9 Q15.15 25.8 15.2 25.8 L15.45 25.55 15.55 25.65 15.5 25.9 15.55 26.05 15.85 27.25" fill="#4f828c" fill-rule="evenodd" stroke="none"/>
      <path d="M9.75 38.65 L9.9 38.75" fill="none" stroke="#d6d9e2" stroke-linecap="round" stroke-linejoin="round" stroke-width="0.05"/>
      <path d="M13.85 29.4 L13.4 29.0 14.15 29.45 M16.35 28.05 L16.45 28.05 15.85 27.25 M9.9 38.75 L10.05 38.9 9.95 37.35 Q10.05 36.6 10.9 35.15 L14.1 29.65 13.85 29.4 M10.05 38.9 L9.75 38.75 9.65 38.7 9.5 38.6 7.55 36.9 7.35 36.65 Q6.25 35.05 8.05 31.95 L10.95 27.05 11.35 26.0 Q11.55 25.05 11.05 24.35 L11.15 24.4 11.2 24.4 12.4 24.9 13.7 25.05 14.05 24.95 14.25 24.85 14.3 24.9 14.35 24.55 14.3 24.2 14.05 23.75 M16.4 25.1 L15.85 25.25 15.45 25.6 15.45 25.55 15.2 25.75 15.0 25.9 14.8 26.05 14.6 26.2 14.5 26.25 14.15 26.55 M14.1 26.6 L14.55 26.25 14.6 26.2 14.85 26.05 15.05 25.9 Q15.15 25.8 15.2 25.8 L15.45 25.55 15.55 25.65 15.5 25.9 15.55 26.05 15.85 27.25 M16.35 28.05 L15.5 28.1 Q14.95 28.35 14.3 29.3 L14.15 29.45 M14.1 26.65 L14.1 26.6 M14.05 26.6 L14.15 26.55 M14.3 24.9 L14.3 25.15 M14.3 25.2 L14.05 26.6" fill="none" stroke="#000000" stroke-linecap="round" stroke-linejoin="round" stroke-opacity="0.3019608" stroke-width="0.25"/>
      <path d="M13.8 27.2 L9.2 35.25 Q8.3 36.95 9.75 38.65 M14.1 26.65 L13.8 27.2" fill="none" stroke="#4a878a" stroke-linecap="round" stroke-linejoin="round" stroke-width="0.05"/>
      <path d="M8.05 36.15 Q6.4 35.1 6.05 33.0 5.8 30.85 7.0 28.85 8.2 26.9 10.25 26.2 12.25 25.55 13.95 26.6 15.6 27.7 16.0 29.85 16.3 31.95 15.05 33.95 13.85 35.95 11.85 36.6 9.75 37.2 8.05 36.15" fill="url(#gradient0)" fill-rule="evenodd" stroke="none"/>
      <path d="M23.5 13.55 L23.8 13.15 23.55 12.9 23.95 12.95 23.95 12.85 23.35 12.4 24.2 12.6 25.25 11.05 25.25 10.75 25.5 10.6 25.6 10.45 25.65 10.4 25.5 10.25 25.75 10.25 27.1 8.2 Q28.15 6.75 28.75 6.4 L30.05 5.85 30.15 5.8 29.95 5.75 Q27.85 5.2 26.7 6.8 L21.5 14.5 22.45 16.3 23.4 16.45 23.4 16.4 Q23.0 16.1 22.9 15.6 22.8 14.9 23.35 13.85 L23.4 13.8 23.7 13.85 22.95 13.3 23.5 13.55" fill="#62a3ac" fill-rule="evenodd" stroke="none"/>
      <path d="M30.15 5.8 L30.05 5.85 28.75 6.4 Q28.15 6.75 27.1 8.2 L25.75 10.25 25.5 10.25 25.65 10.4 25.6 10.45 25.5 10.6 25.25 10.75 25.25 11.05 24.2 12.6 23.35 12.4 23.95 12.85 23.95 12.95 23.55 12.9 23.8 13.15 23.5 13.55 23.8 13.65 27.4 8.35 Q28.25 6.95 28.9 6.5 29.45 6.2 30.35 5.85 L30.15 5.8 M23.7 13.85 L23.4 13.8 23.35 13.85 Q22.8 14.9 22.9 15.6 23.0 16.1 23.4 16.4 23.1 16.1 23.05 15.6 23.05 14.95 23.6 14.0 L23.7 13.85 M29.85 5.55 Q28.15 4.6 27.45 4.55 L27.15 4.45 Q25.5 4.55 23.8 7.25 L22.35 9.5 22.65 9.75 Q22.3 9.5 22.15 9.9 L21.35 11.05 Q21.15 11.15 21.45 11.4 L21.1 11.25 21.0 11.5 21.65 12.0 21.1 11.65 20.9 11.65 20.2 12.55 20.5 12.9 20.0 12.8 20.05 12.8 19.5 13.15 17.8 13.3 17.85 13.35 21.15 14.4 24.05 10.15 26.65 6.05 26.75 6.05 Q27.45 5.05 29.85 5.55 M23.7 8.3 Q24.85 6.85 25.2 7.6 23.7 10.55 22.7 11.1 22.15 10.75 22.65 9.75 22.95 9.15 23.7 8.3 M22.25 12.4 Q21.85 13.5 21.2 13.65 20.3 12.3 22.25 12.4" fill="#c4dcdf" fill-rule="evenodd" stroke="none"/>
      <path d="M29.95 5.75 L30.15 5.8 30.35 5.85 30.05 5.7 29.95 5.65 29.95 5.75 M21.15 15.05 L21.15 15.0 21.15 14.95 21.15 15.05" fill="#9da5bb" fill-rule="evenodd" stroke="none"/>
      <path d="M21.5 14.5 L26.7 6.8 Q27.85 5.2 29.95 5.75 L29.95 5.65 29.85 5.55 Q27.45 5.05 26.75 6.05 L26.65 6.05 24.05 10.15 21.15 14.4 19.95 15.8 21.15 14.95 21.15 15.0 21.5 14.5 M27.15 4.45 Q25.2 4.2 23.2 7.2 L20.1 12.0 19.3 12.8 Q18.6 13.45 17.75 13.25 L17.8 13.3 19.5 13.15 20.05 12.8 20.0 12.8 20.5 12.9 20.2 12.55 20.9 11.65 21.1 11.65 21.65 12.0 21.0 11.5 21.1 11.25 21.45 11.4 Q21.15 11.15 21.35 11.05 L22.15 9.9 Q22.3 9.5 22.65 9.75 L22.35 9.5 23.8 7.25 Q25.5 4.55 27.15 4.45" fill="#fbfdfd" fill-rule="evenodd" stroke="none"/>
      <path d="M19.7 15.95 L19.45 16.15 19.0 16.2 18.55 16.2 20.8 17.75 20.7 17.15 20.75 16.6 20.8 16.65 20.85 16.35 20.85 16.15 20.9 15.85 20.95 15.65 21.0 15.5 21.15 15.05 21.15 14.95 19.95 15.8 19.95 15.85 19.7 15.95" fill="#3f2c39" fill-rule="evenodd" stroke="none"/>
      <path d="M23.7 8.3 Q22.95 9.15 22.65 9.75 22.15 10.75 22.7 11.1 23.7 10.55 25.2 7.6 24.85 6.85 23.7 8.3 M22.25 12.4 Q20.3 12.3 21.2 13.65 21.85 13.5 22.25 12.4" fill="#91bac4" fill-rule="evenodd" stroke="none"/>
      <path d="M17.85 13.35 L18.8 14.25 19.55 15.3 19.6 15.7 19.6 15.9 19.7 15.95 19.95 15.85 19.95 15.8 21.15 14.4 17.85 13.35" fill="#a3b7ba" fill-rule="evenodd" stroke="none"/>
      <path d="M22.45 16.3 L21.5 14.5 21.15 15.0 21.0 15.55 21.0 15.65 20.95 15.9 20.85 16.15 20.85 16.35 20.85 16.65 20.9 16.7 21.05 16.6 21.25 16.55 22.45 16.3" fill="#4f828c" fill-rule="evenodd" stroke="none"/>
      <path d="M29.95 5.75 L30.15 5.8" fill="none" stroke="#d6d9e2" stroke-linecap="round" stroke-linejoin="round" stroke-width="0.05"/>
      <path d="M23.5 13.55 L22.95 13.3 23.7 13.85 M23.4 16.4 L23.4 16.45 22.45 16.3 M30.15 5.8 L30.35 5.85 Q29.45 6.2 28.9 6.5 28.25 6.95 27.4 8.35 L23.8 13.65 23.5 13.55 M29.95 5.65 L29.85 5.55 Q28.15 4.6 27.45 4.55 L27.15 4.45 Q25.2 4.2 23.2 7.2 L20.1 12.0 19.3 12.8 Q18.6 13.45 17.75 13.25 L17.8 13.3 17.85 13.35 18.8 14.25 19.55 15.3 19.6 15.7 19.6 15.9 19.7 15.95 19.45 16.15 19.0 16.2 18.55 16.2 M20.8 17.75 L20.7 17.15 20.75 16.6 20.8 16.65 20.85 16.35 20.85 16.15 20.9 15.85 20.95 15.65 21.0 15.5 21.15 15.05 21.15 14.95 19.95 15.8 M21.15 15.0 L21.0 15.55 21.0 15.65 20.95 15.9 20.85 16.15 20.85 16.35 20.85 16.65 20.9 16.7 21.05 16.6 21.25 16.55 22.45 16.3 M30.35 5.85 L30.05 5.7 29.95 5.65 M23.4 16.4 Q23.1 16.1 23.05 15.6 23.05 14.95 23.6 14.0 L23.7 13.85 M19.95 15.85 L19.7 15.95" fill="none" stroke="#000000" stroke-linecap="round" stroke-linejoin="round" stroke-opacity="0.3019608" stroke-width="0.25"/>
      <path d="M21.5 14.5 L26.7 6.8 Q27.85 5.2 29.95 5.75 M21.15 15.0 L21.5 14.5" fill="none" stroke="#4a878a" stroke-linecap="round" stroke-linejoin="round" stroke-width="0.05"/>
      <path d="M27.05 5.4 Q25.35 4.3 23.3 5.0 21.25 5.7 20.0 7.65 18.85 9.6 19.15 11.75 19.4 13.85 21.1 14.85 22.8 15.95 24.9 15.25 26.95 14.6 28.2 12.65 29.4 10.65 29.1 8.55 28.75 6.4 27.05 5.4" fill="url(#gradient1)" fill-rule="evenodd" stroke="none"/>
      <path d="M13.7 23.35 L13.7 23.2 13.55 23.1 13.35 23.05 13.25 23.15 13.25 23.3 13.4 23.45 13.6 23.45 13.7 23.35 M13.65 23.75 L13.55 23.75 12.85 22.95 12.85 22.8 12.95 22.6 16.6 24.9 16.55 25.4 16.55 25.55 16.4 25.45 13.65 23.75 M17.75 16.6 L16.8 16.05 16.95 15.65 17.25 15.6 21.6 18.25 21.8 18.75 21.75 18.7 21.4 18.85 20.25 18.1 19.4 17.6 17.75 16.6 M17.05 15.85 L17.1 16.05 17.35 16.2 17.45 16.1 17.65 16.1 17.5 15.95 17.35 15.75 17.15 15.7 17.05 15.85" fill="#a1664c" fill-rule="evenodd" stroke="none"/>
      <path d="M13.7 23.35 L13.6 23.45 13.4 23.45 13.25 23.3 13.25 23.15 13.35 23.05 13.55 23.1 13.7 23.2 13.7 23.35 M17.05 15.85 L17.15 15.7 17.35 15.75 17.5 15.95 17.65 16.1 17.45 16.1 17.35 16.2 17.1 16.05 17.05 15.85" fill="#cba392" fill-rule="evenodd" stroke="none"/>
      <path d="M13.55 22.7 L17.0 24.85 18.4 25.65 18.2 26.0 17.8 25.95 16.65 25.5 16.55 25.4 16.6 24.9 12.95 22.6 13.05 22.45 13.55 22.7 M17.25 15.6 L18.1 15.85 21.0 17.55 Q23.3 19.15 23.5 19.65 L23.3 19.95 21.4 18.85 21.75 18.7 21.8 18.75 21.6 18.25 17.25 15.6" fill="#8a5742" fill-rule="evenodd" stroke="none"/>
      <path d="M14.2 22.8 L14.65 23.0 15.3 23.45 16.25 24.0 16.75 24.3 17.2 24.55 17.0 24.85 13.55 22.7 13.75 22.5 14.2 22.8 M20.05 18.45 L19.55 18.1 19.15 17.85 19.35 17.6 19.15 17.85 18.75 17.6 18.05 17.2 17.55 16.85 17.05 16.55 17.2 16.3 17.7 16.6 19.35 17.6 20.25 18.2 20.7 18.4 20.55 18.75 20.05 18.45" fill="#452b21" fill-rule="evenodd" stroke="none"/>
      <path d="M17.7 16.6 L17.75 16.6 19.4 17.6 20.25 18.1 20.25 18.2 19.35 17.6 19.4 17.6 19.35 17.6 17.7 16.6" fill="#3f2c39" fill-rule="evenodd" stroke="none"/>
      <path d="M16.75 24.3 L16.25 24.0 15.3 23.45 14.65 23.0 14.2 22.8 14.45 22.45 14.85 22.0 15.3 22.2 14.65 22.95 14.65 23.0 14.65 22.95 15.3 22.2 15.95 22.35 16.5 22.5 16.7 22.05 16.75 22.0 16.8 21.9 17.55 20.45 19.15 17.85 19.55 18.1 20.05 18.45 Q18.9 19.75 18.05 21.25 L17.65 21.85 17.25 22.7 17.2 22.95 17.15 23.0 17.05 23.3 16.95 23.65 16.75 24.25 16.75 24.3 M16.25 24.0 L16.35 23.65 16.5 23.35 16.9 22.4 16.95 22.3 17.15 21.9 17.8 20.75 19.55 18.1 17.8 20.75 17.15 21.9 16.95 22.3 16.9 22.4 16.5 23.35 16.35 23.65 16.25 24.0 M15.3 23.45 L15.95 22.35 15.3 23.45" fill="#523166" fill-rule="evenodd" stroke="none"/>
      <path d="M15.3 22.2 L15.5 21.9 15.55 21.75 16.2 20.75 16.35 20.5 18.05 17.2 18.75 17.6 19.15 17.85 17.55 20.45 16.8 21.9 16.75 22.0 16.7 22.05 16.5 22.5 15.95 22.35 15.3 22.2 M18.75 17.6 L15.95 22.35 18.75 17.6" fill="#73458f" fill-rule="evenodd" stroke="none"/>
      <path d="M15.3 22.2 L14.85 22.0 14.95 21.9 15.0 21.8 15.25 21.4 15.85 20.55 16.0 20.35 Q16.95 18.7 17.55 16.85 L18.05 17.2 16.35 20.5 16.2 20.75 15.55 21.75 15.5 21.9 15.3 22.2" fill="#a376be" fill-rule="evenodd" stroke="none"/>
      <path d="M16.75 24.3 L16.25 24.0 15.3 23.45 14.65 23.0 14.2 22.8 13.75 22.5 13.55 22.7 17.0 24.85 17.2 24.55 16.75 24.3 16.75 24.25 16.95 23.65 17.05 23.3 17.15 23.0 17.2 22.95 17.25 22.7 17.65 21.85 18.05 21.25 Q18.9 19.75 20.05 18.45 L19.55 18.1 M14.85 22.0 L14.45 22.45 14.2 22.8 M13.55 23.75 L12.85 22.95 12.85 22.8 12.95 22.6 13.05 22.45 13.55 22.7 M17.0 24.85 L18.4 25.65 18.2 26.0 17.8 25.95 16.65 25.5 16.55 25.55 M16.4 25.45 L13.65 23.75 M20.25 18.2 L20.7 18.4 20.55 18.75 20.05 18.45 M14.85 22.0 L14.95 21.9 15.0 21.8 15.25 21.4 15.85 20.55 16.0 20.35 Q16.95 18.7 17.55 16.85 L17.05 16.55 17.2 16.3 17.7 16.6 17.75 16.6 16.8 16.05 16.95 15.65 17.25 15.6 18.1 15.85 21.0 17.55 Q23.3 19.15 23.5 19.65 L23.3 19.95 21.4 18.85 20.25 18.1 20.25 18.2 19.35 17.6 19.15 17.85 19.55 18.1 M18.05 17.2 L17.55 16.85 M18.75 17.6 L18.05 17.2 M17.75 16.6 L19.4 17.6 20.25 18.1 M19.35 17.6 L19.4 17.6 M18.75 17.6 L19.15 17.85 M19.35 17.6 L17.7 16.6" fill="none" stroke="#000000" stroke-linecap="round" stroke-linejoin="round" stroke-opacity="0.3019608" stroke-width="0.25"/>
      <path d="M19.55 18.1 L17.8 20.75 17.15 21.9 16.95 22.3 16.9 22.4 16.5 23.35 16.35 23.65 16.25 24.0 M14.65 23.0 L14.65 22.95 15.3 22.2 15.5 21.9 15.55 21.75 16.2 20.75 16.35 20.5 18.05 17.2 M15.95 22.35 L15.3 23.45 M15.95 22.35 L18.75 17.6" fill="none" stroke="#414001" stroke-linecap="round" stroke-linejoin="round" stroke-width="0.05"/>
    </g>
    <radialGradient cx="0" cy="0" gradientTransform="matrix(-0.0046, 0.0075, -0.0064, -0.004, 11.0, 31.4)" gradientUnits="userSpaceOnUse" id="gradient0" r="819.2" spreadMethod="pad">
      <stop offset="0.0" stop-color="#ffffde" stop-opacity="0.52156866"/>
      <stop offset="0.4117647058823529" stop-color="#ffffcc" stop-opacity="0.0"/>
    </radialGradient>
    <radialGradient cx="0" cy="0" gradientTransform="matrix(0.0047, -0.0075, -0.0064, -0.0039, 24.1, 10.15)" gradientUnits="userSpaceOnUse" id="gradient1" r="819.2" spreadMethod="pad">
      <stop offset="0.0" stop-color="#ffffde" stop-opacity="0.52156866"/>
      <stop offset="0.4117647058823529" stop-color="#ffffcc" stop-opacity="0.0"/>
    </radialGradient>
    <g id="sprite1" transform="matrix(1.0, 0.0, 0.0, 1.0, 0.0, 0.0)">
      <use height="44.55" transform="matrix(1.0, 0.0, 0.0, 1.0, 0.0, 0.0)" width="46.2" xlink:href="#shape1"/>
    </g>
    <g id="shape1" transform="matrix(1.0, 0.0, 0.0, 1.0, 0.0, 0.0)">
      <path d="M45.5 3.5 L45.65 3.65 45.65 3.8 Q42.7 2.15 40.4 4.0 L29.85 13.25 29.15 13.85 29.1 13.8 27.1 14.55 29.4 12.95 Q32.15 10.9 35.2 7.9 L40.7 2.9 40.85 2.95 Q42.2 1.8 45.5 3.5 M3.0 43.9 L2.8 43.7 Q1.35 40.4 2.55 39.05 L2.55 38.9 7.8 33.75 13.3 28.25 15.0 26.05 14.1 28.05 14.25 28.1 13.6 28.75 3.65 38.7 Q1.65 40.85 3.1 43.9 L3.0 43.9 M0.4 40.05 Q-0.6 37.3 3.3 33.5 L9.4 27.4 10.35 26.05 Q11.1 24.75 10.6 23.55 L10.7 23.65 Q11.4 25.0 10.95 26.2 L10.6 27.05 10.55 27.05 10.85 27.75 Q10.4 27.2 10.3 27.45 L9.2 28.7 9.25 28.95 9.9 29.65 8.95 28.85 8.65 29.1 9.0 29.6 8.35 29.55 6.85 31.1 Q6.4 31.4 6.85 31.9 L6.4 31.5 3.5 34.3 Q0.05 37.7 0.4 40.05 M24.95 10.1 L24.9 9.95 Q26.0 10.55 27.35 9.95 L28.8 9.05 35.25 3.3 Q39.3 -0.3 42.0 0.85 39.6 0.35 36.1 3.6 L33.0 6.3 33.4 6.75 Q32.95 6.3 32.65 6.75 L30.95 8.15 Q30.65 8.25 31.0 8.75 L30.55 8.4 30.3 8.7 31.0 9.7 30.35 9.0 30.1 8.9 28.75 9.95 Q28.55 10.0 29.05 10.5 L28.35 10.2 27.45 10.55 Q26.3 10.85 24.95 10.1" fill="#c4c5c5" fill-rule="evenodd" stroke="none"/>
      <path d="M29.1 13.8 L29.15 13.85 29.1 13.85 29.05 13.95 29.1 13.8 M45.65 3.8 L45.65 3.65 45.8 3.8 46.1 4.1 45.9 4.0 45.65 3.8 M14.25 28.0 L14.2 28.05 14.25 28.1 14.1 28.05 14.25 28.0 M3.4 44.45 L3.1 44.0 3.0 43.9 3.1 43.9 3.3 44.15 3.4 44.45" fill="#7a8092" fill-rule="evenodd" stroke="none"/>
      <path d="M45.5 3.5 Q42.2 1.8 40.85 2.95 L40.7 2.9 35.2 7.9 Q32.15 10.9 29.4 12.95 L24.95 10.15 24.95 10.1 Q26.3 10.85 27.45 10.55 L28.35 10.2 29.05 10.5 Q28.55 10.0 28.75 9.95 L30.1 8.9 30.35 9.0 31.0 9.7 30.3 8.7 30.55 8.4 31.0 8.75 Q30.65 8.25 30.95 8.15 L32.65 6.75 Q32.95 6.3 33.4 6.75 L33.0 6.3 36.1 3.6 Q39.6 0.35 42.0 0.85 L42.45 1.1 Q43.45 1.45 45.5 3.5 M46.1 4.1 L43.8 4.5 Q42.7 4.9 40.85 6.6 L33.6 12.95 33.2 12.65 33.75 12.2 33.45 11.65 34.0 12.0 34.1 11.8 33.4 10.9 34.55 11.55 36.6 9.7 36.75 9.25 37.25 9.15 37.4 8.95 37.45 8.9 37.35 8.65 37.7 8.7 40.55 6.25 Q42.6 4.6 43.55 4.3 L45.75 4.0 45.9 4.0 46.1 4.1 M33.35 13.15 L33.15 13.3 Q31.95 14.55 31.7 15.5 31.55 16.2 31.9 16.8 31.4 16.2 31.5 15.45 31.6 14.35 32.85 13.05 L32.85 13.0 33.35 13.15 M16.95 31.0 Q16.4 30.6 15.65 30.75 14.7 30.95 13.4 32.0 L13.25 32.2 13.1 31.7 13.15 31.7 Q14.55 30.5 15.6 30.5 16.35 30.5 16.95 31.0 M12.8 32.05 L13.0 32.45 6.2 39.3 Q4.4 41.05 3.9 42.1 L3.4 44.45 3.3 44.15 3.3 44.05 Q3.45 42.65 3.7 41.9 4.1 40.9 5.9 38.95 L8.5 36.3 8.5 35.9 8.75 36.05 8.75 36.0 8.95 35.85 9.1 35.35 9.55 35.3 11.55 33.3 11.0 32.2 11.85 32.85 12.0 32.75 11.75 32.3 12.25 32.55 12.8 32.05 M2.8 43.7 Q0.9 41.5 0.6 40.5 L0.4 40.05 Q0.05 37.7 3.5 34.3 L6.4 31.5 6.85 31.9 Q6.4 31.4 6.85 31.1 L8.35 29.55 9.0 29.6 8.65 29.1 8.95 28.85 9.9 29.65 9.25 28.95 9.2 28.7 10.3 27.45 Q10.4 27.2 10.85 27.75 L10.55 27.05 10.6 27.05 10.95 26.2 Q11.4 25.0 10.7 23.65 L10.8 23.7 13.3 28.25 7.8 33.75 2.55 38.9 2.55 39.05 Q1.35 40.4 2.8 43.7 M33.4 6.75 Q32.3 8.05 32.95 8.75 34.55 8.4 37.95 4.65 37.7 3.45 35.5 5.1 L33.4 6.75 M29.7 11.9 Q30.7 11.95 31.75 10.5 28.9 9.55 29.7 11.9 M6.85 31.9 Q6.0 32.5 5.0 33.85 3.25 35.95 4.4 36.25 8.4 33.15 8.85 31.55 8.15 30.85 6.85 31.9 M12.2 28.5 Q9.95 27.55 10.65 30.5 12.2 29.5 12.2 28.5" fill="#99abae" fill-rule="evenodd" stroke="none"/>
      <path d="M29.85 13.25 L40.4 4.0 Q42.7 2.15 45.65 3.8 L45.9 4.0 45.75 4.0 43.55 4.3 Q42.6 4.6 40.55 6.25 L37.7 8.7 37.35 8.65 37.45 8.9 37.4 8.95 37.25 9.15 36.75 9.25 36.6 9.7 34.55 11.55 33.4 10.9 34.1 11.8 34.0 12.0 33.45 11.65 33.75 12.2 33.2 12.65 32.45 12.1 33.35 13.15 32.85 13.0 32.85 13.05 Q31.6 14.35 31.5 15.45 31.4 16.2 31.9 16.8 L31.9 16.95 30.55 16.25 29.85 13.25 M16.5 29.6 Q16.65 30.35 17.1 31.05 L16.95 31.0 Q16.35 30.5 15.6 30.5 14.55 30.5 13.15 31.7 L13.1 31.7 13.25 32.2 12.2 31.25 12.8 32.05 12.25 32.55 11.75 32.3 12.0 32.75 11.85 32.85 11.0 32.2 11.55 33.3 9.55 35.3 9.1 35.35 8.95 35.85 8.75 36.0 8.75 36.05 8.5 35.9 8.5 36.3 5.9 38.95 Q4.1 40.9 3.7 41.9 3.45 42.65 3.3 44.05 L3.3 44.15 3.1 43.9 Q1.65 40.85 3.65 38.7 L13.6 28.75 16.5 29.6" fill="#4c7f86" fill-rule="evenodd" stroke="none"/>
      <path d="M33.4 6.75 L35.5 5.1 Q37.7 3.45 37.95 4.65 34.55 8.4 32.95 8.75 32.3 8.05 33.4 6.75 M29.7 11.9 Q28.9 9.55 31.75 10.5 30.7 11.95 29.7 11.9 M6.85 31.9 Q8.15 30.85 8.85 31.55 8.4 33.15 4.4 36.25 3.25 35.95 5.0 33.85 6.0 32.5 6.85 31.9 M12.2 28.5 Q12.2 29.5 10.65 30.5 9.95 27.55 12.2 28.5" fill="#719199" fill-rule="evenodd" stroke="none"/>
      <path d="M29.4 12.95 L27.1 14.55 27.05 14.6 26.65 14.65 26.5 14.55 26.6 14.25 26.7 13.7 Q26.65 12.75 26.0 11.8 L24.95 10.15 29.4 12.95 M10.8 23.7 L12.35 24.85 Q13.25 25.5 14.15 25.6 L14.75 25.55 15.05 25.5 15.15 25.6 15.05 26.0 15.0 26.05 13.3 28.25 10.8 23.7" fill="#7f8e91" fill-rule="evenodd" stroke="none"/>
      <path d="M29.15 13.85 L29.85 13.25 30.55 16.25 28.65 16.15 28.45 16.15 28.1 16.25 28.0 16.15 28.15 15.75 28.3 15.45 28.45 15.1 28.65 14.75 28.7 14.6 29.0 14.05 29.05 13.95 29.1 13.85 29.15 13.85 M14.2 28.05 Q14.6 27.85 14.95 27.7 L15.1 27.65 15.45 27.5 15.85 27.3 16.2 27.25 16.6 27.1 16.65 27.2 16.55 27.5 16.5 27.75 Q16.35 28.7 16.5 29.6 L13.6 28.75 14.25 28.1 14.2 28.05" fill="#3d656d" fill-rule="evenodd" stroke="none"/>
      <path d="M27.1 14.55 L29.1 13.8 29.05 13.95 29.0 14.05 28.7 14.5 28.6 14.75 28.45 15.05 28.3 15.4 28.15 15.75 28.0 16.15 27.95 16.1 27.7 16.8 27.65 17.15 25.3 14.8 25.55 14.8 26.15 14.85 26.65 14.65 27.05 14.6 27.1 14.55 M26.55 17.95 L26.55 18.0 25.45 16.85 23.45 14.8 23.45 14.75 25.55 16.85 26.55 17.95 M17.75 26.75 L17.25 26.8 16.5 27.0 16.6 27.05 16.15 27.2 15.8 27.3 15.4 27.5 15.1 27.6 14.9 27.7 14.25 28.0 14.1 28.05 15.0 26.05 15.05 26.0 15.15 25.6 15.35 25.15 15.35 24.55 15.35 24.35 17.75 26.75 M25.55 16.85 L25.45 16.85 25.55 16.85" fill="#31222c" fill-rule="evenodd" stroke="none"/>
      <path d="M27.65 17.15 L27.9 17.45 Q30.6 20.65 30.7 21.45 L30.35 21.85 28.0 19.45 28.55 19.45 28.5 18.7 23.2 13.1 Q23.7 13.2 24.35 13.8 L25.3 14.8 27.65 17.15 M19.2 26.45 L20.95 28.2 20.5 28.7 Q20.15 28.55 19.95 28.4 L18.4 27.35 18.35 27.15 18.55 26.45 14.2 21.65 14.35 21.45 14.95 22.0 19.2 26.45" fill="#6b4333" fill-rule="evenodd" stroke="none"/>
      <path d="M26.55 18.0 L27.1 18.55 26.75 18.95 26.2 18.3 25.5 17.7 25.05 17.2 24.55 16.65 23.65 15.8 23.05 15.1 22.45 14.45 22.8 14.15 23.45 14.8 25.45 16.85 26.55 18.0 M19.0 25.6 L19.6 26.15 19.2 26.45 14.95 22.0 15.3 21.8 15.85 22.35 16.45 22.9 17.3 23.75 18.4 25.0 19.0 25.6 M25.45 16.85 L25.05 17.2 25.45 16.85" fill="#352119" fill-rule="evenodd" stroke="none"/>
      <path d="M26.2 18.3 Q23.95 19.75 22.05 21.65 L21.35 22.4 20.4 23.55 20.25 23.8 20.15 23.9 19.9 24.25 19.5 24.75 19.05 25.5 19.0 25.6 18.4 25.0 17.3 23.75 18.7 22.45 17.3 23.75 16.45 22.9 15.85 22.35 16.35 22.05 17.15 21.5 17.75 21.95 18.7 22.45 19.4 22.9 19.9 22.3 20.0 22.25 20.1 22.15 21.75 20.35 25.05 17.2 25.5 17.7 26.2 18.3 M25.5 17.7 Q23.6 19.2 21.95 20.85 L20.6 22.25 20.05 22.8 20.0 22.9 19.05 24.05 18.7 24.55 18.4 25.0 18.7 24.55 19.05 24.05 20.0 22.9 20.05 22.8 20.6 22.25 21.95 20.85 Q23.6 19.2 25.5 17.7 M17.75 21.95 L16.5 22.85 16.45 22.9 16.5 22.85 17.75 21.95" fill="#40264f" fill-rule="evenodd" stroke="none"/>
      <path d="M24.55 16.65 L25.05 17.2 21.75 20.35 20.1 22.15 20.0 22.25 19.9 22.3 19.4 22.9 18.7 22.45 24.55 16.65 18.7 22.45 17.75 21.95 18.15 21.6 18.3 21.45 19.6 20.2 19.95 19.9 23.65 15.8 24.55 16.65" fill="#59356f" fill-rule="evenodd" stroke="none"/>
      <path d="M28.0 19.45 L26.55 17.95 25.55 16.85 23.45 14.75 22.3 13.55 22.75 13.1 23.2 13.1 28.5 18.7 28.55 19.45 28.0 19.45 M18.3 27.3 L18.1 27.1 17.75 26.75 15.35 24.35 14.65 23.6 14.6 23.55 Q13.95 22.75 13.85 22.15 L13.95 21.9 14.2 21.65 18.55 26.45 18.35 27.15 18.3 27.3 M23.0 13.25 L22.75 13.4 22.8 13.65 23.05 14.0 23.25 14.0 23.55 13.95 23.45 13.75 23.3 13.4 23.0 13.25 M14.55 22.5 L14.35 22.55 14.35 22.75 14.5 23.0 14.8 23.15 14.95 23.0 15.0 22.75 14.85 22.55 14.55 22.5" fill="#7d4f3b" fill-rule="evenodd" stroke="none"/>
      <path d="M23.0 13.25 L23.3 13.4 23.45 13.75 23.55 13.95 23.25 14.0 23.05 14.0 22.8 13.65 22.75 13.4 23.0 13.25 M14.55 22.5 L14.85 22.55 15.0 22.75 14.95 23.0 14.8 23.15 14.5 23.0 14.35 22.75 14.35 22.55 14.55 22.5" fill="#9e7f72" fill-rule="evenodd" stroke="none"/>
      <path d="M17.15 21.5 L17.35 21.35 17.5 21.2 17.95 20.85 19.25 19.75 19.5 19.5 Q21.55 17.5 23.05 15.1 L23.65 15.8 19.95 19.9 19.6 20.2 18.3 21.45 18.15 21.6 17.75 21.95 17.15 21.5" fill="#7f5c94" fill-rule="evenodd" stroke="none"/>
      <path d="M45.65 3.65 L45.5 3.5 M27.1 14.55 L29.1 13.8 M45.65 3.65 L45.8 3.8 46.1 4.1 43.8 4.5 Q42.7 4.9 40.85 6.6 L33.6 12.95 33.2 12.65 32.45 12.1 33.35 13.15 33.15 13.3 Q31.95 14.55 31.7 15.5 31.55 16.2 31.9 16.8 L31.9 16.95 30.55 16.25 28.65 16.15 28.45 16.15 28.1 16.25 28.0 16.15 27.95 16.1 27.7 16.8 27.65 17.15 27.9 17.45 Q30.6 20.65 30.7 21.45 L30.35 21.85 28.0 19.45 26.55 17.95 26.55 18.0 27.1 18.55 26.75 18.95 26.2 18.3 Q23.95 19.75 22.05 21.65 L21.35 22.4 20.4 23.55 20.25 23.8 20.15 23.9 19.9 24.25 19.5 24.75 19.05 25.5 19.0 25.6 19.6 26.15 19.2 26.45 20.95 28.2 20.5 28.7 Q20.15 28.55 19.95 28.4 L18.4 27.35 18.3 27.3 M18.1 27.1 L17.75 26.75 17.25 26.8 16.5 27.0 16.6 27.05 16.15 27.2 15.8 27.3 15.4 27.5 15.1 27.6 14.9 27.7 14.25 28.0 14.1 28.05 15.0 26.05 M14.2 28.05 Q14.6 27.85 14.95 27.7 L15.1 27.65 15.45 27.5 15.85 27.3 16.2 27.25 16.6 27.1 16.65 27.2 16.55 27.5 16.5 27.75 Q16.35 28.7 16.5 29.6 16.65 30.35 17.1 31.05 L16.95 31.0 Q16.4 30.6 15.65 30.75 14.7 30.95 13.4 32.0 L13.25 32.2 12.2 31.25 12.8 32.05 13.0 32.45 6.2 39.3 Q4.4 41.05 3.9 42.1 L3.4 44.45 3.1 44.0 3.0 43.9 2.8 43.7 Q0.9 41.5 0.6 40.5 L0.4 40.05 Q-0.6 37.3 3.3 33.5 L9.4 27.4 10.35 26.05 Q11.1 24.75 10.6 23.55 L10.7 23.65 10.8 23.7 12.35 24.85 Q13.25 25.5 14.15 25.6 L14.75 25.55 15.05 25.5 15.15 25.6 15.35 25.15 15.35 24.55 15.35 24.35 14.65 23.6 M14.6 23.55 Q13.95 22.75 13.85 22.15 L13.95 21.9 14.2 21.65 14.35 21.45 14.95 22.0 15.3 21.8 15.85 22.35 16.35 22.05 17.15 21.5 17.35 21.35 17.5 21.2 17.95 20.85 19.25 19.75 19.5 19.5 Q21.55 17.5 23.05 15.1 L22.45 14.45 22.8 14.15 23.45 14.8 23.45 14.75 22.3 13.55 22.75 13.1 23.2 13.1 Q23.7 13.2 24.35 13.8 L25.3 14.8 25.55 14.8 26.15 14.85 26.65 14.65 26.5 14.55 26.6 14.25 26.7 13.7 Q26.65 12.75 26.0 11.8 L24.95 10.15 24.95 10.1 24.9 9.95 Q26.0 10.55 27.35 9.95 L28.8 9.05 35.25 3.3 Q39.3 -0.3 42.0 0.85 L42.45 1.1 Q43.45 1.45 45.5 3.5 M45.9 4.0 L46.1 4.1 M29.05 13.95 L29.1 13.8 M29.15 13.85 L29.1 13.85 29.05 13.95 29.0 14.05 28.7 14.6 28.65 14.75 28.45 15.1 28.3 15.45 28.15 15.75 28.0 16.15 M26.65 14.65 L27.05 14.6 M28.15 15.75 L28.3 15.4 28.45 15.05 28.6 14.75 28.7 14.5 29.0 14.05 M23.45 14.75 L25.55 16.85 26.55 17.95 M25.05 17.2 L24.55 16.65 M25.05 17.2 L25.45 16.85 23.45 14.8 M25.45 16.85 L25.55 16.85 M26.55 18.0 L25.45 16.85 M25.05 17.2 L25.5 17.7 26.2 18.3 M25.3 14.8 L27.65 17.15 M23.05 15.1 L23.65 15.8 24.55 16.65 M17.3 23.75 L18.4 25.0 M17.3 23.75 L16.45 22.9 15.85 22.35 M15.05 26.0 L15.15 25.6 M14.25 28.1 L14.2 28.05 M19.2 26.45 L14.95 22.0 M17.75 26.75 L15.35 24.35 M19.0 25.6 L18.4 25.0 M3.3 44.15 L3.4 44.45" fill="none" stroke="#000000" stroke-linecap="round" stroke-linejoin="round" stroke-opacity="0.3019608" stroke-width="0.25"/>
      <path d="M45.65 3.8 L45.9 4.0 M3.1 43.9 L3.3 44.15" fill="none" stroke="#a7a9b0" stroke-linecap="round" stroke-linejoin="round" stroke-width="0.05"/>
      <path d="M29.15 13.85 L29.85 13.25 40.4 4.0 Q42.7 2.15 45.65 3.8 M14.25 28.1 L13.6 28.75 M3.1 43.9 Q1.65 40.85 3.65 38.7 L13.6 28.75" fill="none" stroke="#39696b" stroke-linecap="round" stroke-linejoin="round" stroke-width="0.05"/>
      <path d="M24.55 16.65 L18.7 22.45 17.3 23.75 M23.65 15.8 L19.95 19.9 19.6 20.2 18.3 21.45 18.15 21.6 17.75 21.95 M18.4 25.0 L18.7 24.55 19.05 24.05 20.0 22.9 20.05 22.8 20.6 22.25 21.95 20.85 Q23.6 19.2 25.5 17.7 M16.45 22.9 L16.5 22.85 17.75 21.95" fill="none" stroke="#323200" stroke-linecap="round" stroke-linejoin="round" stroke-width="0.05"/>
      <path d="M1.7 39.65 Q-0.35 37.4 0.05 34.25 0.45 30.95 3.0 28.55 5.55 26.2 8.75 26.0 12.0 25.85 14.0 28.0 16.05 30.25 15.75 33.5 15.3 36.75 12.75 39.15 10.2 41.55 7.0 41.75 3.75 41.85 1.7 39.65" fill="url(#gradient2)" fill-rule="evenodd" stroke="none"/>
      <path d="M41.35 2.0 Q39.3 -0.15 36.1 0.0 32.75 0.2 30.25 2.6 27.65 5.0 27.25 8.2 26.9 11.35 29.0 13.55 31.05 15.75 34.35 15.65 37.6 15.4 40.2 13.0 42.7 10.65 43.15 7.4 43.45 4.2 41.35 2.0" fill="url(#gradient3)" fill-rule="evenodd" stroke="none"/>
    </g>
    <radialGradient cx="0" cy="0" gradientTransform="matrix(-0.0097, 0.0092, -0.0077, -0.0084, 7.85, 33.85)" gradientUnits="userSpaceOnUse" id="gradient2" r="819.2" spreadMethod="pad">
      <stop offset="0.0" stop-color="#c7c7ad" stop-opacity="0.52156866"/>
      <stop offset="0.4117647058823529" stop-color="#c7c79f" stop-opacity="0.0"/>
    </radialGradient>
    <radialGradient cx="0" cy="0" gradientTransform="matrix(0.0098, -0.0091, -0.0079, -0.0083, 35.15, 7.8)" gradientUnits="userSpaceOnUse" id="gradient3" r="819.2" spreadMethod="pad">
      <stop offset="0.0" stop-color="#c7c7ad" stop-opacity="0.52156866"/>
      <stop offset="0.4117647058823529" stop-color="#c7c79f" stop-opacity="0.0"/>
    </radialGradient>
  </defs>
</svg>
