<?xml version="1.0" encoding="UTF-8" standalone="no"?>
<svg xmlns:xlink="http://www.w3.org/1999/xlink" height="440.0px" width="440.0px" xmlns="http://www.w3.org/2000/svg">
  <g transform="matrix(10.0, 0.0, 0.0, 10.0, 0.0, 0.0)">
    <use height="44.0" transform="matrix(1.0, 0.0, 0.0, 1.0, 0.0, 0.0)" width="44.0" xlink:href="#shape0"/>
    <use height="420.75" transform="matrix(3.0E-4, 0.0716, 0.0716, 1.0E-4, 2.9748, 4.7106)" width="485.2" xlink:href="#sprite0"/>
    <use height="420.75" transform="matrix(0.0022, 0.0841, 0.0841, -0.0022, 6.5194, 2.4545)" width="485.2" xlink:href="#sprite0"/>
  </g>
  <defs>
    <g id="shape0" transform="matrix(1.0, 0.0, 0.0, 1.0, 0.0, 0.0)">
      <path d="M44.0 44.0 L0.0 44.0 0.0 0.0 44.0 0.0 44.0 44.0" fill="#33cc33" fill-opacity="0.0" fill-rule="evenodd" stroke="none"/>
    </g>
    <g id="sprite0" transform="matrix(1.0, 0.0, 0.0, 1.0, 0.55, 0.35)">
      <use height="38.4" transform="matrix(1.0, 0.0, 0.0, 1.0, 151.7, 217.65)" width="112.6" xlink:href="#shape1"/>
      <use height="417.75" transform="matrix(1.0, 0.0, 0.0, 1.0, -0.5, 2.5)" width="483.15" xlink:href="#sprite1"/>
      <use height="27.1" transform="matrix(0.6262, -1.236, 1.6306, 0.8261, 208.7342, 118.1941)" width="55.85" xlink:href="#sprite2"/>
      <use height="112.3" transform="matrix(0.9821, -0.1796, 0.1796, 0.9821, 172.6024, 41.8603)" width="60.1" xlink:href="#sprite3"/>
      <use height="168.1" transform="matrix(0.649, -0.1061, 0.1061, 0.649, 232.8224, 88.6285)" width="292.35" xlink:href="#sprite4"/>
      <use height="156.05" transform="matrix(0.7511, -0.0572, 0.0572, 0.7511, 217.9255, 115.4312)" width="166.6" xlink:href="#sprite6"/>
      <use height="213.8" transform="matrix(1.1895, 0.0, 0.0, 1.1895, -0.5348, 166.0984)" width="242.8" xlink:href="#sprite7"/>
      <use height="27.1" transform="matrix(0.0392, -0.5957, 1.1012, 0.0726, 411.7737, 63.6387)" width="55.85" xlink:href="#sprite2"/>
      <use height="112.3" transform="matrix(-0.4875, 0.1873, 0.1873, 0.4875, 448.7784, -0.3543)" width="60.1" xlink:href="#sprite9"/>
      <use height="52.2" transform="matrix(0.3881, -0.1641, 0.1713, 0.3849, 417.7626, 65.5617)" width="91.3" xlink:href="#sprite10"/>
      <use height="49.4" transform="matrix(0.4188, 0.2825, -0.287, 0.4157, 343.6341, 97.4009)" width="47.6" xlink:href="#sprite11"/>
      <use height="52.2" transform="matrix(0.6927, 0.1995, -0.1865, 0.6961, 399.8992, 51.9745)" width="91.3" xlink:href="#sprite10"/>
      <use height="27.1" transform="matrix(0.1566, 0.894, -1.6527, 0.2896, 475.9259, 73.8149)" width="55.85" xlink:href="#sprite12"/>
      <use height="155.1" transform="matrix(0.9936, 0.1098, -0.1098, 0.9936, 102.1553, 161.6703)" width="143.1" xlink:href="#sprite13"/>
      <use height="118.65" transform="matrix(-0.9131, 0.511, -0.3911, -0.4188, 279.6506, 214.6117)" width="118.65" xlink:href="#shape20"/>
    </g>
    <g id="shape1" transform="matrix(1.0, 0.0, 0.0, 1.0, -151.7, -217.65)">
      <path d="M197.0 222.9 Q197.0 224.95 195.8 226.3 194.4 227.85 191.7 227.85 188.0 227.85 186.75 225.25 L186.3 222.75 Q186.3 220.4 187.95 218.95 189.5 217.7 191.65 217.65 193.85 217.65 195.35 218.95 197.0 220.4 197.0 222.9" fill="#574c28" fill-rule="evenodd" stroke="none"/>
      <path d="M175.65 243.05 L213.65 243.05 M152.2 255.55 L175.05 242.45" fill="none" stroke="#3c2910" stroke-linecap="round" stroke-linejoin="round" stroke-opacity="0.2509804" stroke-width="1.0"/>
      <path d="M263.8 221.2 L231.25 226.2" fill="none" stroke="#0f0f08" stroke-linecap="round" stroke-linejoin="round" stroke-opacity="0.2509804" stroke-width="1.0"/>
    </g>
    <g id="sprite1" transform="matrix(1.0, 0.0, 0.0, 1.0, 0.5, 0.5)">
      <use height="417.75" transform="matrix(1.0, 0.0, 0.0, 1.0, -0.5, -0.5)" width="483.15" xlink:href="#shape2"/>
    </g>
    <g id="shape2" transform="matrix(1.0, 0.0, 0.0, 1.0, 0.5, 0.5)">
      <path d="M444.45 81.6 Q452.3 80.8 467.5 91.3 L468.2 91.75 Q475.4 96.85 478.9 102.4 480.8 105.35 481.6 108.45 482.75 112.9 481.6 117.6 L480.45 120.95 479.7 120.95 Q471.25 121.35 463.1 117.15 455.7 113.3 448.5 105.7 445.6 102.05 444.05 98.65 439.7 89.5 444.0 82.0 L444.45 81.6 M441.55 0.5 L441.8 0.35 Q448.15 5.3 452.05 10.1 459.2 19.0 457.55 27.1 L456.9 29.55 456.8 29.8 Q452.0 45.3 439.9 52.85 L439.65 53.0 439.45 53.1 439.35 53.15 Q437.95 51.85 436.9 50.35 437.0 55.0 433.95 58.3 L433.6 58.5 Q428.45 57.75 420.35 48.7 L420.0 48.3 Q416.2 43.9 414.8 39.8 414.05 37.6 414.0 35.55 414.0 32.5 415.45 29.7 L416.7 27.75 417.2 27.85 Q422.65 28.9 427.2 32.85 430.75 35.95 433.8 40.8 433.7 38.6 434.0 36.2 434.45 32.85 435.7 29.05 437.75 24.75 439.2 20.9 443.7 8.55 441.55 0.5 M228.15 165.55 L228.95 161.0 225.95 161.55 Q224.2 157.7 222.8 153.85 217.95 140.75 224.8 132.75 225.65 131.75 226.65 130.9 L226.9 130.6 Q228.5 129.3 230.35 128.15 L239.35 121.65 Q214.2 120.05 192.6 101.0 L188.7 97.4 Q177.9 85.75 180.8 64.1 182.35 52.45 187.85 37.9 L187.85 37.8 188.1 37.1 188.25 37.75 188.35 38.05 Q192.75 53.3 212.55 69.05 218.65 73.9 226.3 78.85 L232.2 84.35 Q232.15 78.4 233.1 73.15 234.05 68.0 236.0 63.6 238.8 57.2 243.75 52.15 L247.45 48.75 248.15 49.2 Q255.6 54.8 258.85 65.95 261.8 76.1 261.35 90.9 260.7 97.55 259.15 103.0 257.75 107.8 255.8 111.7 259.4 110.35 263.1 109.55 L263.15 109.75 267.45 115.85 275.05 108.4 Q282.5 108.4 290.05 110.7 L292.85 111.7 Q297.3 113.3 301.55 115.55 304.55 113.6 307.9 111.75 316.3 106.95 326.55 102.55 L327.25 102.25 Q332.95 99.8 339.2 97.5 L340.5 97.05 344.1 95.7 Q350.9 88.15 360.8 81.2 L361.35 80.8 Q367.4 76.55 374.7 72.55 375.15 72.3 375.7 72.0 390.1 64.1 409.05 57.1 L415.4 56.35 419.5 56.65 Q422.2 57.3 423.0 59.15 421.5 63.5 419.6 67.45 L425.25 67.65 Q429.55 67.1 437.1 60.95 L439.65 58.75 Q444.0 54.9 449.25 49.4 455.45 48.1 454.3 52.9 448.85 58.2 444.6 63.25 L441.65 66.9 455.8 65.35 Q465.5 70.4 458.75 75.5 446.2 76.7 435.45 78.7 L434.75 78.8 433.7 79.0 433.45 79.45 430.4 79.7 Q414.85 82.9 403.5 87.95 399.65 91.15 395.2 93.9 L395.1 93.95 395.0 94.0 Q394.85 95.7 394.1 97.45 391.85 102.75 384.75 108.55 L384.1 109.05 Q376.45 115.1 363.55 121.75 L362.5 122.75 362.5 122.8 359.95 127.3 Q351.75 140.85 338.6 152.95 L341.3 158.15 340.75 163.7 344.3 165.3 344.4 165.3 346.2 171.05 Q347.65 176.0 348.45 180.95 350.6 194.9 345.2 202.05 L343.8 203.7 325.35 216.95 Q322.3 219.8 317.75 221.2 307.6 224.3 295.65 222.45 L290.95 215.95 284.7 219.45 284.4 219.6 281.75 218.75 Q278.35 217.55 275.05 216.0 264.55 237.35 250.05 257.15 215.6 304.05 158.7 341.9 L158.95 341.9 154.2 345.45 Q140.1 355.5 131.85 359.6 128.7 361.15 126.4 361.8 L120.15 365.15 Q93.55 379.85 63.15 393.0 40.3 402.8 15.1 411.7 L5.45 414.95 1.8 416.2 1.5 416.25 0.1 416.75 0.05 416.75 0.05 416.7 Q6.25 403.3 9.8 396.2 L15.1 385.8 19.9 376.7 27.9 362.2 Q40.8 339.5 57.85 316.6 62.85 309.8 68.2 303.1 L69.95 300.0 Q70.55 298.9 72.85 296.7 L74.3 295.35 Q80.6 283.45 97.35 263.8 117.05 240.6 148.5 219.0 L158.9 211.95 Q160.9 209.3 164.05 207.55 165.85 206.6 167.7 206.1 184.7 194.9 194.1 190.0 212.65 180.3 232.15 173.4 229.9 169.65 228.0 165.85 L228.15 165.55" fill="#000000" fill-rule="evenodd" stroke="none"/>
      <path d="M444.45 81.6 L444.0 82.0 444.05 81.9 444.25 81.55 444.45 81.6 M441.55 0.5 L441.55 0.4 441.5 0.35 441.4 0.0 441.7 0.25 441.75 0.3 441.8 0.35 441.55 0.5 M433.95 58.3 L433.85 58.35 433.7 58.55 433.6 58.5 433.95 58.3 M228.15 165.55 L228.0 165.85 227.95 165.75 228.15 165.55 M0.05 416.7 L0.05 416.75 0.0 416.75 0.05 416.7 M284.4 219.6 L284.7 219.45 284.7 219.75 284.4 219.6 M263.15 109.75 L263.1 109.55 263.5 109.45 263.15 109.75" fill="#938345" fill-rule="evenodd" stroke="none"/>
      <path d="M444.0 82.0 Q439.7 89.5 444.05 98.65 445.6 102.05 448.5 105.7 455.7 113.3 463.1 117.15 471.25 121.35 479.7 120.95 L480.45 120.95 481.6 117.6 Q482.75 112.9 481.6 108.45 480.8 105.35 478.9 102.4 475.4 96.85 468.2 91.75 L467.5 91.3 Q452.3 80.8 444.45 81.6 M444.0 82.0 L444.05 81.9 444.25 81.55 444.45 81.6 M441.8 0.35 L441.75 0.3 441.7 0.25 441.4 0.0 441.5 0.35 441.55 0.4 441.55 0.5 M441.8 0.35 Q448.15 5.3 452.05 10.1 459.2 19.0 457.55 27.1 L456.9 29.55 456.8 29.8 Q452.0 45.3 439.9 52.85 L439.65 53.0 439.45 53.1 439.35 53.15 Q437.95 51.85 436.9 50.35 437.0 55.0 433.95 58.3 L433.85 58.35 433.7 58.55 433.6 58.5 Q428.45 57.75 420.35 48.7 L420.0 48.3 Q416.2 43.9 414.8 39.8 414.05 37.6 414.0 35.55 414.0 32.5 415.45 29.7 L416.7 27.75 417.2 27.85 Q422.65 28.9 427.2 32.85 430.75 35.95 433.8 40.8 433.7 38.6 434.0 36.2 434.45 32.85 435.7 29.05 437.75 24.75 439.2 20.9 443.7 8.55 441.55 0.5 M263.1 109.55 Q259.4 110.35 255.8 111.7 257.75 107.8 259.15 103.0 260.7 97.55 261.35 90.9 261.8 76.1 258.85 65.95 255.6 54.8 248.15 49.2 L247.45 48.75 243.75 52.15 Q238.8 57.2 236.0 63.6 234.05 68.0 233.1 73.15 232.15 78.4 232.2 84.35 L226.3 78.85 Q218.65 73.9 212.55 69.05 192.75 53.3 188.35 38.05 L188.25 37.75 188.1 37.1 187.85 37.8 187.85 37.9 Q182.35 52.45 180.8 64.1 177.9 85.75 188.7 97.4 L192.6 101.0 Q214.2 120.05 239.35 121.65 L230.35 128.15 Q228.5 129.3 226.9 130.6 L226.65 130.9 Q225.65 131.75 224.8 132.75 217.95 140.75 222.8 153.85 224.2 157.7 225.95 161.55 L228.95 161.0 228.15 165.55 M228.0 165.85 Q229.9 169.65 232.15 173.4 212.65 180.3 194.1 190.0 184.7 194.9 167.7 206.1 165.85 206.6 164.05 207.55 160.9 209.3 158.9 211.95 L148.5 219.0 Q117.05 240.6 97.35 263.8 80.6 283.45 74.3 295.35 L72.85 296.7 Q70.55 298.9 69.95 300.0 L68.2 303.1 Q62.85 309.8 57.85 316.6 40.8 339.5 27.9 362.2 L19.9 376.7 15.1 385.8 9.8 396.2 Q6.25 403.3 0.05 416.7 M0.05 416.75 L0.1 416.75 1.5 416.25 1.8 416.2 5.45 414.95 15.1 411.7 Q40.3 402.8 63.15 393.0 93.55 379.85 120.15 365.15 L126.4 361.8 Q128.7 361.15 131.85 359.6 140.1 355.5 154.2 345.45 L158.95 341.9 158.7 341.9 Q215.6 304.05 250.05 257.15 264.55 237.35 275.05 216.0 278.35 217.55 281.75 218.75 L284.4 219.6 M284.7 219.45 L290.95 215.95 295.65 222.45 Q307.6 224.3 317.75 221.2 322.3 219.8 325.35 216.95 L343.8 203.7 345.2 202.05 Q350.6 194.9 348.45 180.95 347.65 176.0 346.2 171.05 L344.4 165.3 344.3 165.3 340.75 163.7 341.3 158.15 338.6 152.95 Q351.75 140.85 359.95 127.3 L362.5 122.8 362.5 122.75 363.55 121.75 Q376.45 115.1 384.1 109.05 L384.75 108.55 Q391.85 102.75 394.1 97.45 394.85 95.7 395.0 94.0 L395.1 93.95 395.2 93.9 Q399.65 91.15 403.5 87.95 414.85 82.9 430.4 79.7 L433.45 79.45 433.7 79.0 434.75 78.8 435.45 78.7 Q446.2 76.7 458.75 75.5 465.5 70.4 455.8 65.35 L441.65 66.9 444.6 63.25 Q448.85 58.2 454.3 52.9 455.45 48.1 449.25 49.4 444.0 54.9 439.65 58.75 L437.1 60.95 Q429.55 67.1 425.25 67.65 L419.6 67.45 Q421.5 63.5 423.0 59.15 422.2 57.3 419.5 56.65 L415.4 56.35 409.05 57.1 Q390.1 64.1 375.7 72.0 375.15 72.3 374.7 72.55 367.4 76.55 361.35 80.8 L360.8 81.2 Q350.9 88.15 344.1 95.7 L340.5 97.05 339.2 97.5 Q332.95 99.8 327.25 102.25 L326.55 102.55 Q316.3 106.95 307.9 111.75 304.55 113.6 301.55 115.55 297.3 113.3 292.85 111.7 L290.05 110.7 Q282.5 108.4 275.05 108.4 L267.45 115.85 263.15 109.75 M263.1 109.55 L263.5 109.45 263.15 109.75 M228.0 165.85 L227.95 165.75 228.15 165.55 M284.7 219.45 L284.7 219.75 284.4 219.6 M0.05 416.75 L0.0 416.75 0.05 416.7" fill="none" stroke="#000000" stroke-linecap="round" stroke-linejoin="round" stroke-opacity="0.5019608" stroke-width="1.0"/>
    </g>
    <g id="sprite2" transform="matrix(1.0, 0.0, 0.0, 1.0, 5.75, 0.5)">
      <use height="27.1" transform="matrix(1.0, 0.0, 0.0, 1.0, -5.75, -0.5)" width="55.85" xlink:href="#shape3"/>
    </g>
    <g id="shape3" transform="matrix(1.0, 0.0, 0.0, 1.0, 5.75, 0.5)">
      <path d="M0.35 19.35 L0.0 19.2 0.05 19.1 Q6.55 13.5 13.3 9.7 23.65 3.85 34.5 2.3 33.5 3.75 33.9 4.55 33.5 3.75 34.5 2.3 41.6 1.25 48.9 2.05 L49.4 2.0 49.6 2.0 49.5 2.45 Q44.05 9.4 35.0 12.15 27.8 11.75 22.5 8.3 28.35 6.0 33.9 4.55 41.7 2.45 48.9 2.05 41.7 2.45 33.9 4.55 28.35 6.0 22.5 8.3 27.8 11.75 35.0 12.15 25.05 19.9 11.3 19.1 6.25 20.85 0.35 19.35 M22.5 8.3 Q18.1 9.95 13.5 12.15 12.9 11.1 13.3 9.7 12.9 11.1 13.5 12.15 18.1 9.95 22.5 8.3 M13.5 12.15 Q10.1 13.7 6.6 15.6 L0.0 19.2 6.6 15.6 Q10.1 13.7 13.5 12.15 M6.6 15.6 Q8.65 17.75 11.3 19.1 8.65 17.75 6.6 15.6" fill="#5d6731" fill-rule="evenodd" stroke="none"/>
      <path d="M49.5 2.45 Q48.35 7.45 42.25 11.8 36.65 15.75 27.0 19.2 L18.5 21.1 Q7.7 22.7 0.35 19.35 6.25 20.85 11.3 19.1 25.05 19.9 35.0 12.15 44.05 9.4 49.5 2.45 M42.25 11.8 L35.0 12.15 42.25 11.8 M18.5 21.1 Q14.45 20.7 11.3 19.1 14.45 20.7 18.5 21.1" fill="#515b2b" fill-rule="evenodd" stroke="none"/>
      <path d="M0.05 19.1 Q0.75 14.4 15.0 6.55 L15.6 6.2 Q22.55 2.5 29.2 1.0 L36.3 0.05 Q41.35 -0.15 46.2 1.0 L49.6 2.0 49.4 2.0 48.9 2.05 Q41.6 1.25 34.5 2.3 23.65 3.85 13.3 9.7 13.65 8.3 15.0 6.55 13.65 8.3 13.3 9.7 6.55 13.5 0.05 19.1 M34.5 2.3 L35.45 1.0 36.3 0.05 35.45 1.0 34.5 2.3" fill="#72813c" fill-rule="evenodd" stroke="none"/>
      <path d="M49.5 2.45 Q48.35 7.45 42.25 11.8 36.65 15.75 27.0 19.2 L18.5 21.1 Q7.7 22.7 0.35 19.35 L0.0 19.2 0.05 19.1 Q0.75 14.4 15.0 6.55 L15.6 6.2 Q22.55 2.5 29.2 1.0 L36.3 0.05 Q41.35 -0.15 46.2 1.0 L49.6 2.0 49.5 2.45 M35.0 12.15 L42.25 11.8 M48.9 2.05 L49.4 2.0 49.6 2.0 M48.9 2.05 Q41.7 2.45 33.9 4.55 28.35 6.0 22.5 8.3 27.8 11.75 35.0 12.15 M11.3 19.1 Q14.45 20.7 18.5 21.1 M33.9 4.55 Q33.5 3.75 34.5 2.3 M13.3 9.7 Q12.9 11.1 13.5 12.15 18.1 9.95 22.5 8.3 M36.3 0.05 L35.45 1.0 34.5 2.3 M13.3 9.7 Q13.65 8.3 15.0 6.55 M0.0 19.2 L6.6 15.6 Q10.1 13.7 13.5 12.15 M11.3 19.1 Q8.65 17.75 6.6 15.6" fill="none" stroke="#2c2614" stroke-linecap="round" stroke-linejoin="round" stroke-opacity="0.2509804" stroke-width="1.0"/>
      <path d="M0.7 19.25 Q-5.35 22.6 -5.25 26.1" fill="none" stroke="#0c0c06" stroke-linecap="round" stroke-linejoin="round" stroke-opacity="0.2509804" stroke-width="1.0"/>
    </g>
    <g id="sprite3" transform="matrix(1.0, 0.0, 0.0, 1.0, 0.5, 1.15)">
      <use height="112.3" transform="matrix(1.0, 0.0, 0.0, 1.0, -0.5, -1.15)" width="60.1" xlink:href="#shape4"/>
    </g>
    <g id="shape4" transform="matrix(1.0, 0.0, 0.0, 1.0, 0.5, 1.15)">
      <path d="M14.65 1.95 Q13.9 24.55 30.45 39.05 57.15 61.65 54.25 91.9 22.55 81.15 11.3 55.05 L11.15 54.7 Q1.6 28.45 14.65 1.95" fill="#74813d" fill-rule="evenodd" stroke="none"/>
      <path d="M14.7 0.65 L15.05 0.0 15.1 0.65 15.15 0.95 14.65 1.95 15.15 0.95 Q17.25 21.75 45.2 48.0 65.4 72.7 55.15 93.55 L54.1 93.35 54.25 92.0 54.25 91.9 Q57.15 61.65 30.45 39.05 13.9 24.55 14.65 1.95 L14.7 0.65" fill="#657235" fill-rule="evenodd" stroke="none"/>
      <path d="M14.7 0.65 L14.65 1.95 Q1.6 28.45 11.15 54.7 L11.3 55.05 Q22.55 81.15 54.25 91.9 L54.25 92.0 54.1 93.35 Q24.95 87.75 4.8 59.5 -8.35 38.9 14.7 0.65" fill="#8ea14b" fill-rule="evenodd" stroke="none"/>
      <path d="M15.15 0.95 L15.1 0.65 15.05 0.0 14.7 0.65 14.75 -0.65 M14.65 1.95 L15.15 0.95 Q17.25 21.75 45.2 48.0 65.4 72.7 55.15 93.55 L54.1 93.35 Q24.95 87.75 4.8 59.5 -8.35 38.9 14.7 0.65 M54.25 91.9 L54.25 92.0" fill="none" stroke="#373019" stroke-linecap="round" stroke-linejoin="round" stroke-opacity="0.2509804" stroke-width="1.0"/>
      <path d="M26.2 51.3 L26.7 50.25 24.25 47.7 Q19.95 41.65 17.45 34.6 9.1 32.1 2.9 25.15 M13.85 21.15 L14.3 20.55 Q13.25 11.2 14.65 0.45 M17.3 12.25 L14.3 20.55 Q15.1 28.0 17.45 34.6 M54.6 93.2 Q46.7 76.35 37.25 63.25 22.25 66.65 7.25 63.65 M33.35 35.8 Q34.35 44.15 26.7 50.25 32.2 56.2 37.25 63.25 M46.0 76.0 Q52.85 69.9 53.15 59.35" fill="none" stroke="#373019" stroke-linecap="round" stroke-linejoin="round" stroke-opacity="0.2509804" stroke-width="1.0"/>
      <path d="M54.8 93.05 Q59.45 102.95 59.1 110.65" fill="none" stroke="#0f0f08" stroke-linecap="round" stroke-linejoin="round" stroke-opacity="0.2509804" stroke-width="1.0"/>
    </g>
    <g id="sprite4" transform="matrix(1.0, 0.0, 0.0, 1.0, 0.5, 0.5)">
      <use height="168.1" transform="matrix(1.0, 0.0, 0.0, 1.0, -0.5, -0.5)" width="292.35" xlink:href="#shape5"/>
      <use height="109.1" transform="matrix(1.0, 0.0, 0.0, 1.0, 0.9, 58.0)" width="180.8" xlink:href="#sprite5"/>
    </g>
    <g id="shape5" transform="matrix(1.0, 0.0, 0.0, 1.0, 0.5, 0.5)">
      <path d="M30.45 163.75 L30.15 163.65 Q22.15 160.85 16.3 157.1 12.2 137.1 28.25 118.25 49.3 99.3 76.2 88.6 115.0 83.15 160.45 90.0 145.7 111.45 65.15 137.9 55.35 153.75 30.45 163.75 M280.65 0.45 Q284.3 0.9 286.7 1.95 279.7 19.05 250.85 29.0 247.85 37.0 232.65 41.7 222.0 36.65 198.3 37.65 L195.95 37.75 Q191.0 33.35 202.6 26.45 243.05 6.75 280.65 0.45 M163.2 84.2 L163.25 84.2 163.25 84.25 163.2 84.2 162.55 84.15 Q130.35 80.8 95.85 82.85 93.8 75.85 110.0 64.3 137.1 51.15 178.35 41.8 217.45 39.95 231.1 46.8 224.0 59.8 184.5 70.15 183.9 78.3 163.2 84.2" fill="#585029" fill-rule="evenodd" stroke="none"/>
      <path d="M286.7 1.95 Q290.55 3.55 291.35 6.55 274.4 38.3 241.1 51.9 L241.0 51.95 Q239.65 45.1 232.65 41.75 L232.65 41.7 Q247.85 37.0 250.85 29.0 279.7 19.05 286.7 1.95 M238.6 56.9 Q228.8 72.35 186.85 85.9 L186.05 86.45 184.95 87.15 163.25 84.2 163.2 84.2 Q183.9 78.3 184.5 70.15 224.0 59.8 231.1 46.8 238.55 50.5 238.6 56.9 M180.0 93.4 Q137.65 143.15 42.95 167.1 36.15 165.65 30.45 163.75 55.35 153.75 65.15 137.9 145.7 111.45 160.45 90.0 L180.0 93.4" fill="#4a4322" fill-rule="evenodd" stroke="none"/>
      <path d="M241.0 51.95 L240.85 52.0 Q240.1 54.45 238.6 56.9 238.55 50.5 231.1 46.8 217.45 39.95 178.35 41.8 L158.2 43.2 164.0 42.1 177.05 39.95 177.35 39.9 190.1 38.1 195.7 37.75 195.95 37.75 198.3 37.65 Q222.0 36.65 232.65 41.7 L232.65 41.75 Q239.65 45.1 241.0 51.95 M184.95 87.15 L184.95 87.2 180.0 93.4 160.45 90.0 Q115.0 83.15 76.2 88.6 51.45 92.05 29.4 100.45 40.55 93.2 54.95 87.05 L79.35 84.15 92.25 83.1 95.85 82.85 Q130.35 80.8 162.55 84.15 L163.2 84.2 163.25 84.25 163.25 84.2 184.95 87.15" fill="#3c361b" fill-rule="evenodd" stroke="none"/>
      <path d="M164.0 42.1 Q198.65 14.1 270.95 0.05 L280.65 0.45 Q243.05 6.75 202.6 26.45 191.0 33.35 195.95 37.75 L195.7 37.75 190.1 38.1 177.35 39.9 177.05 39.95 164.0 42.1 M178.35 41.8 Q137.1 51.15 110.0 64.3 93.8 75.85 95.85 82.85 L92.25 83.1 79.35 84.15 54.95 87.05 Q84.85 57.55 156.25 43.55 L158.2 43.2 178.35 41.8 M29.4 100.45 Q51.45 92.05 76.2 88.6 49.3 99.3 28.25 118.25 12.2 137.1 16.3 157.1 8.3 151.95 4.45 144.85 0.45 137.4 0.95 127.95 10.4 113.0 28.6 101.0 L29.4 100.45" fill="#796d39" fill-rule="evenodd" stroke="none"/>
      <path d="M286.7 1.95 Q290.55 3.55 291.35 6.55 274.4 38.3 241.1 51.9 L241.0 51.95 M238.6 56.9 Q228.8 72.35 186.85 85.9 L186.05 86.45 185.0 87.15 184.95 87.15 186.05 86.45 M184.95 87.2 L180.0 93.4 Q137.65 143.15 42.95 167.1 36.15 165.65 30.45 163.75 L30.15 163.65 Q22.15 160.85 16.3 157.1 M164.0 42.1 Q198.65 14.1 270.95 0.05 L280.65 0.45 Q284.3 0.9 286.7 1.95 M54.95 87.05 Q40.55 93.2 29.4 100.45 M28.6 101.0 Q10.4 113.0 0.95 127.95 0.45 137.4 4.45 144.85 8.3 151.95 16.3 157.1 M0.0 127.05 L0.95 127.95 M54.95 87.05 Q84.85 57.55 156.25 43.55" fill="none" stroke="#0f0f08" stroke-linecap="round" stroke-linejoin="round" stroke-opacity="0.2509804" stroke-width="1.0"/>
      <path d="M16.3 157.1 L16.15 157.6 M156.25 43.55 L158.2 43.2 M28.6 101.0 L29.4 100.45" fill="none" stroke="#35250e" stroke-linecap="round" stroke-linejoin="round" stroke-opacity="0.2509804" stroke-width="1.0"/>
      <path d="M241.0 51.95 L240.85 52.0 Q240.1 54.45 238.6 56.9 M232.65 41.7 L232.65 41.75 Q239.65 45.1 241.0 51.95 M164.0 42.1 L177.05 39.95 177.35 39.9 190.1 38.1 195.7 37.75 195.95 37.75 198.3 37.65 Q222.0 36.65 232.65 41.7 M163.25 84.2 L184.95 87.15 M95.85 82.85 Q130.35 80.8 162.55 84.15 L163.2 84.2 M95.85 82.85 L92.25 83.1 79.35 84.15 54.95 87.05 M158.2 43.2 L164.0 42.1" fill="none" stroke="#9d8772" stroke-linecap="round" stroke-linejoin="round" stroke-opacity="0.2509804" stroke-width="1.0"/>
      <path d="M239.7 7.7 Q234.1 11.65 232.55 13.0 229.05 15.95 227.3 19.2 L232.25 21.15 Q234.4 21.9 237.95 21.9 L243.0 21.35 248.0 20.75 Q257.3 20.75 270.8 15.05 L280.65 10.65 Q285.95 8.4 288.95 7.8 M217.05 13.85 Q212.55 16.3 208.3 21.2 204.3 25.8 204.3 27.8 204.3 30.25 213.55 31.85 L229.35 33.15 248.25 34.35 258.2 33.25 264.6 32.1 Q265.35 32.1 266.55 31.5 267.75 30.9 268.5 30.9 L270.75 30.35 271.85 29.95 272.15 29.9 M193.35 23.55 Q190.65 26.1 188.4 29.35 186.0 32.65 186.0 34.05 186.0 34.8 186.7 35.4 187.4 36.0 187.4 36.75 187.4 37.1 188.2 37.9 L189.0 38.85 Q189.0 38.95 190.7 39.65 L192.95 40.7 M137.15 47.75 L133.95 47.75 176.1 53.4 Q173.5 57.05 170.3 59.3 168.45 60.6 162.75 63.6 L162.6 64.2 170.55 64.8 187.05 65.4 194.8 66.4 205.2 67.4 216.8 68.45 Q225.95 69.25 220.8 71.85 M158.2 43.2 Q163.35 42.65 179.65 48.65 L191.1 52.9 Q196.85 54.9 199.85 54.9 L218.55 54.15 221.1 53.65 Q222.9 53.1 223.65 53.1 224.4 53.1 225.3 52.45 226.2 51.8 226.95 51.8 L229.05 51.35 231.45 50.7 M139.1 90.85 L140.55 90.15 Q140.5 90.5 140.1 90.65 L139.1 90.85 Q133.65 93.45 127.1 97.45 115.7 104.35 114.75 108.15 L116.45 108.8 118.85 109.4 131.4 108.35 Q140.3 108.35 151.3 104.75 L162.75 101.15 Q163.5 101.15 163.45 100.7 163.4 100.2 164.15 100.2 164.9 100.2 165.5 99.5 166.1 98.75 166.85 98.75 167.25 98.75 168.9 97.8 170.8 96.7 171.6 96.45 M10.85 114.5 L28.95 113.15 48.55 114.05 56.9 114.95 70.35 112.55 82.15 105.5 Q94.2 98.45 97.25 98.45 98.0 98.45 99.5 97.9 L101.75 97.35 Q102.5 97.35 103.7 96.75 104.85 96.15 105.6 96.15 L114.9 92.1 Q115.65 92.1 116.55 91.45 117.45 90.8 118.2 90.8 119.05 90.8 120.2 90.05 121.8 88.95 122.9 88.5 M63.9 80.1 L63.95 79.5 90.75 78.3 144.75 79.7 Q149.35 79.7 151.65 78.35 149.9 76.85 144.35 73.8 140.1 71.45 140.1 70.35 140.1 70.15 135.85 67.95 L130.5 65.1 Q131.65 64.2 136.3 62.4 141.35 60.45 143.55 60.45 L145.8 59.9 148.05 59.3 149.6 59.15 150.5 59.1 Q139.05 54.85 129.1 53.8 118.75 53.4 105.8 57.25 M24.75 105.05 L33.0 104.4 40.95 104.0 45.3 103.55 49.65 103.05 53.2 102.4 56.7 101.7 Q57.45 101.7 57.4 101.2 57.3 100.65 58.05 100.65 58.8 100.65 59.4 100.0 60.0 99.3 60.75 99.3 L62.35 97.0 Q63.9 94.35 65.45 93.3 M0.9 127.8 Q0.6 127.9 0.6 128.25 L0.6 127.8 0.9 127.8 1.2 127.8 Q5.55 127.65 19.15 125.5 33.7 123.15 37.2 123.15 39.05 123.15 44.1 125.7 49.2 128.25 57.3 128.25 L64.7 127.15 73.65 126.0 76.2 125.5 78.75 125.0 88.15 122.9 Q97.25 120.75 101.6 120.75 L113.45 121.75 125.3 122.75 134.85 124.7 Q143.7 126.5 138.4 128.75 L138.15 128.85 M11.25 153.45 Q13.1 152.65 35.65 147.85 59.2 142.8 62.9 142.8 63.65 142.8 66.25 141.75 68.8 140.7 69.45 140.7 L71.0 140.85 71.85 141.15 69.8 153.15 Q69.8 153.9 70.55 154.5 71.25 155.1 71.25 155.85 L71.35 157.25 70.35 157.5 Q69.45 157.5 69.55 159.15 L69.65 161.7" fill="none" stroke="#373019" stroke-linecap="round" stroke-linejoin="round" stroke-opacity="0.2509804" stroke-width="1.0"/>
      <path d="M0.95 127.95 L0.0 127.05" fill="none" stroke="#0f0f08" stroke-linecap="round" stroke-linejoin="round" stroke-opacity="0.2509804" stroke-width="1.0"/>
    </g>
    <g id="sprite5" transform="matrix(1.0, 0.0, 0.0, 1.0, 0.0, 0.0)">
      <use height="109.1" transform="matrix(1.0, 0.0, 0.0, 1.0, 0.0, 0.0)" width="180.8" xlink:href="#shape6"/>
    </g>
    <g id="shape6" transform="matrix(1.0, 0.0, 0.0, 1.0, 0.0, 0.0)">
      <path d="M28.5 42.45 Q39.65 35.2 54.05 29.05 71.45 11.9 102.9 0.0 150.85 8.05 180.8 33.35 L179.1 35.4 Q136.75 85.15 42.05 109.1 35.25 107.65 29.55 105.75 L29.25 105.65 Q21.25 102.85 15.4 99.1 7.4 93.95 3.55 86.85 -0.45 79.4 0.05 69.95 9.5 55.0 27.7 43.0 L28.5 42.45" fill="#3c361b" fill-rule="evenodd" stroke="none"/>
      <path d="M27.7 43.0 L28.5 42.45" fill="none" stroke="#35250e" stroke-linecap="round" stroke-linejoin="round" stroke-opacity="0.2509804" stroke-width="1.0"/>
    </g>
    <g id="sprite6" transform="matrix(1.0, 0.0, 0.0, 1.0, 0.55, 0.2)">
      <use height="156.05" transform="matrix(1.0, 0.0, 0.0, 1.0, -0.55, -0.2)" width="166.6" xlink:href="#shape7"/>
    </g>
    <g id="shape7" transform="matrix(1.0, 0.0, 0.0, 1.0, 0.55, 0.2)">
      <path d="M133.8 147.5 L131.05 149.15 133.4 146.9 133.8 147.5" fill="#625b3e" fill-rule="evenodd" stroke="none"/>
      <path d="M14.3 22.0 L39.75 6.4 Q42.7 5.0 46.2 3.85 53.15 1.55 60.05 0.6 L59.6 0.9 38.45 15.7 Q29.6 16.4 20.7 19.35 17.2 20.5 14.3 22.0 M64.65 9.45 L75.5 0.3 Q85.35 1.15 95.05 4.95 88.1 15.85 66.05 19.2 61.2 17.55 56.3 16.65 L56.2 16.6 64.65 9.45" fill="#918143" fill-rule="evenodd" stroke="none"/>
      <path d="M85.65 144.3 L77.05 148.35 77.6 142.1 78.35 132.65 85.65 144.3 M7.6 71.3 L9.15 65.3 11.8 64.95 13.65 64.9 12.25 66.4 7.6 71.3 M59.6 0.9 L64.65 9.45 56.2 16.6 56.3 16.65 54.45 31.05 53.55 38.15 48.4 30.45 38.8 15.65 38.45 15.7 59.6 0.9 M156.85 80.15 L161.4 82.7 156.3 83.15 156.85 80.15" fill="#3c361b" fill-rule="evenodd" stroke="none"/>
      <path d="M131.05 149.15 Q126.85 152.6 120.65 153.95 106.85 157.05 91.3 153.35 L86.05 144.9 Q99.45 148.8 112.65 148.9 114.7 143.65 118.15 140.8 L120.1 138.95 Q126.6 131.6 125.4 116.15 124.85 109.15 123.15 102.25 118.95 84.9 107.6 68.45 104.45 63.85 106.75 57.7 87.5 43.45 70.4 35.75 67.45 34.45 64.45 33.45 59.45 31.8 54.45 31.05 L56.3 16.65 Q61.2 17.55 66.05 19.2 69.65 20.4 73.25 22.0 99.15 33.65 118.3 61.55 132.0 81.5 137.1 102.5 139.15 110.8 139.8 119.3 141.25 138.0 133.4 146.9 L131.05 149.15 M77.05 148.35 L77.05 148.75 76.65 148.55 73.25 147.1 Q47.35 135.55 28.4 108.9 15.15 90.35 7.4 71.6 L7.35 71.5 7.6 71.3 7.4 71.6 7.6 71.3 12.25 66.4 Q13.6 70.7 15.3 75.0 21.8 91.35 33.35 107.55 49.0 129.55 70.4 139.1 L77.6 142.1 77.05 148.35 76.65 148.55 77.05 148.35 M9.15 65.3 L5.15 65.75 Q3.2 60.5 1.7 55.25 -3.4 37.4 6.55 27.5 7.7 26.3 9.1 25.25 L9.55 24.9 Q11.7 23.3 14.3 22.0 17.2 20.5 20.7 19.35 29.6 16.4 38.45 15.7 L38.8 15.65 48.4 30.45 Q37.75 30.0 27.0 33.6 24.1 34.55 21.7 35.75 L17.8 38.15 17.4 38.45 15.3 40.3 Q12.8 42.8 4.75 44.3 8.35 52.95 11.3 63.25 L11.8 64.95 9.15 65.3 M104.05 98.55 Q105.15 103.1 105.5 107.75 106.3 118.05 102.0 122.9 L100.7 124.15 Q98.4 126.05 96.05 131.45 83.2 129.45 69.0 123.05 54.75 116.7 44.35 102.05 36.65 91.3 32.35 80.4 30.8 76.5 29.7 72.6 L24.55 55.8 33.75 56.1 34.0 55.9 36.6 54.35 Q38.2 53.5 40.1 52.9 52.7 48.7 65.0 52.8 L69.0 54.35 Q79.4 59.05 93.5 64.85 90.85 71.95 93.7 76.05 101.25 87.0 104.05 98.55 M87.55 97.2 Q85.95 90.6 81.65 84.35 80.05 82.0 82.45 76.9 73.5 74.65 67.55 72.0 L65.3 71.1 Q58.3 68.75 51.15 71.15 50.05 71.5 49.15 72.0 L47.65 72.9 47.5 73.0 Q47.05 73.35 40.5 71.6 43.6 76.8 45.2 82.4 45.8 84.6 46.7 86.85 49.15 93.05 53.55 99.2 59.45 107.5 67.55 111.15 75.7 114.8 85.0 121.1 84.35 112.85 85.65 111.8 L86.4 111.05 Q88.85 108.3 88.4 102.45 88.2 99.75 87.55 97.2" fill="#796d39" fill-rule="evenodd" stroke="none"/>
      <path d="M86.05 144.9 L85.65 144.3 78.35 132.65 77.6 142.1 70.4 139.1 Q49.0 129.55 33.35 107.55 21.8 91.35 15.3 75.0 13.6 70.7 12.25 66.4 L13.65 64.9 11.8 64.95 11.3 63.25 Q8.35 52.95 4.75 44.3 12.8 42.8 15.3 40.3 L17.4 38.45 17.8 38.15 21.7 35.75 Q24.1 34.55 27.0 33.6 37.75 30.0 48.4 30.45 L53.55 38.15 54.45 31.05 Q59.45 31.8 64.45 33.45 67.45 34.45 70.4 35.75 87.5 43.45 106.75 57.7 104.45 63.85 107.6 68.45 118.95 84.9 123.15 102.25 124.85 109.15 125.4 116.15 126.6 131.6 120.1 138.95 L118.15 140.8 Q114.7 143.65 112.65 148.9 99.45 148.8 86.05 144.9 M104.05 98.55 Q101.25 87.0 93.7 76.05 90.85 71.95 93.5 64.85 79.4 59.05 69.0 54.35 L65.0 52.8 Q52.7 48.7 40.1 52.9 38.2 53.5 36.6 54.35 L34.0 55.9 33.75 56.1 24.55 55.8 29.7 72.6 Q30.8 76.5 32.35 80.4 36.65 91.3 44.35 102.05 54.75 116.7 69.0 123.05 83.2 129.45 96.05 131.45 98.4 126.05 100.7 124.15 L102.0 122.9 Q106.3 118.05 105.5 107.75 105.15 103.1 104.05 98.55 M78.4 132.15 L78.35 132.65 78.4 132.15" fill="#675e30" fill-rule="evenodd" stroke="none"/>
      <path d="M87.55 97.2 Q88.2 99.75 88.4 102.45 88.85 108.3 86.4 111.05 L85.65 111.8 Q84.35 112.85 85.0 121.1 75.7 114.8 67.55 111.15 59.45 107.5 53.55 99.2 49.15 93.05 46.7 86.85 45.8 84.6 45.2 82.4 43.6 76.8 40.5 71.6 47.05 73.35 47.5 73.0 L47.65 72.9 49.15 72.0 Q50.05 71.5 51.15 71.15 58.3 68.75 65.3 71.1 L67.55 72.0 Q73.5 74.65 82.45 76.9 80.05 82.0 81.65 84.35 85.95 90.6 87.55 97.2" fill="#373019" fill-rule="evenodd" stroke="none"/>
      <path d="M95.05 4.95 L98.75 6.5 Q124.65 18.15 143.8 46.05 152.85 59.25 158.15 72.9 L156.85 80.15 156.3 83.15 161.4 82.7 161.5 82.7 163.4 90.45 Q154.15 101.25 137.1 102.5 132.0 81.5 118.3 61.55 99.15 33.65 73.25 22.0 69.65 20.4 66.05 19.2 88.1 15.85 95.05 4.95" fill="#6e6132" fill-rule="evenodd" stroke="none"/>
      <path d="M163.4 90.45 Q164.75 97.1 165.3 103.8 166.75 122.5 158.9 131.4 L156.85 133.4 133.8 147.5 133.4 146.9 Q141.25 138.0 139.8 119.3 139.15 110.8 137.1 102.5 154.15 101.25 163.4 90.45" fill="#4e4623" fill-rule="evenodd" stroke="none"/>
      <path d="M163.4 90.45 Q164.75 97.1 165.3 103.8 166.75 122.5 158.9 131.4 L156.85 133.4 133.8 147.5 131.05 149.15 Q126.85 152.6 120.65 153.95 106.85 157.05 91.3 153.35 L86.05 144.9 85.65 144.3 77.05 148.35 77.05 148.75 76.65 148.55 73.25 147.1 Q47.35 135.55 28.4 108.9 15.15 90.35 7.4 71.6 L7.35 71.5 7.6 71.3 9.15 65.3 5.15 65.75 Q3.2 60.5 1.7 55.25 -3.4 37.4 6.55 27.5 7.7 26.3 9.1 25.25 L9.55 24.9 Q11.7 23.3 14.3 22.0 L39.75 6.4 Q42.7 5.0 46.2 3.85 53.15 1.55 60.05 0.6 M59.6 0.9 L64.65 9.45 75.5 0.3 Q85.35 1.15 95.05 4.95 L98.75 6.5 Q124.65 18.15 143.8 46.05 152.85 59.25 158.15 72.9 L156.85 80.15 161.4 82.7 161.5 82.7 163.4 90.45 M156.85 80.15 L156.3 83.15 161.4 82.7 M11.8 64.95 L13.65 64.9 12.25 66.4 M77.6 142.1 L78.35 132.65 78.4 132.15 M7.4 71.6 L7.6 71.3 12.25 66.4 M9.15 65.3 L11.8 64.95 M77.05 148.35 L77.6 142.1 M76.65 148.55 L77.05 148.35 M133.4 146.9 L131.05 149.15 M78.35 132.65 L85.65 144.3" fill="none" stroke="#0f0f08" stroke-linecap="round" stroke-linejoin="round" stroke-opacity="0.2509804" stroke-width="1.0"/>
      <path d="M108.2 47.9 L94.45 42.7 86.95 29.25 98.85 34.4 108.2 47.9 M133.9 104.15 L131.8 86.5 140.65 102.35 140.2 119.15 133.9 104.15" fill="#918143" fill-rule="evenodd" stroke="none"/>
      <path d="M43.9 11.7 L43.0 22.0 33.85 16.3 43.9 11.7" fill="#675c30" fill-rule="evenodd" stroke="none"/>
      <path d="M81.2 77.2 L99.85 67.9 M41.0 71.45 L24.95 61.9 M83.8 120.25 L90.05 129.35" fill="none" stroke="#0f0f08" stroke-linecap="round" stroke-linejoin="round" stroke-opacity="0.2509804" stroke-width="1.0"/>
    </g>
    <g id="sprite7" transform="matrix(1.0, 0.0, 0.0, 1.0, 3.35, 0.8)">
      <use height="212.25" transform="matrix(1.0, 0.0, 0.0, 1.0, -0.3, -0.8)" width="239.75" xlink:href="#shape8"/>
      <use height="110.8" transform="matrix(1.0, 0.0, 0.0, 1.0, -3.35, 102.2)" width="134.6" xlink:href="#sprite8"/>
      <use height="211.85" transform="matrix(1.0, 0.0, 0.0, 1.0, 0.5, -0.6)" width="236.65" xlink:href="#shape10"/>
    </g>
    <g id="shape8" transform="matrix(1.0, 0.0, 0.0, 1.0, 0.3, 0.8)">
      <path d="M233.3 7.85 L233.1 8.2 233.15 8.2 230.3 14.95 Q225.8 25.15 219.0 35.5 215.35 41.0 211.1 46.6 L205.15 54.0 204.4 54.9 Q198.15 62.3 190.8 69.75 L190.4 70.15 181.1 79.2 172.0 87.45 Q143.75 112.1 103.8 137.7 L98.9 142.7 98.9 142.75 Q81.5 159.75 54.5 177.8 44.75 184.25 33.8 190.9 L20.6 198.65 2.2 208.8 1.1 209.4 2.0 207.25 1.1 209.4 0.75 209.6 0.8 209.5 2.0 207.25 2.7 206.0 Q6.4 199.25 10.6 192.55 18.5 179.85 28.0 167.3 L30.4 164.15 Q42.55 148.4 57.25 133.0 64.9 124.95 73.2 117.0 95.1 96.05 121.65 75.65 L139.95 62.1 Q147.5 56.65 155.4 51.25 L168.8 42.3 175.45 37.95 Q179.35 23.35 221.9 0.05 229.75 0.05 234.15 5.55 L233.3 7.85" fill="#625a2e" fill-rule="evenodd" stroke="none"/>
      <path d="M233.15 8.2 L233.3 7.85 234.6 6.35 233.15 8.2 234.6 6.35 233.3 7.85 234.15 5.55 234.7 6.25 Q236.2 8.45 237.3 11.4 L237.6 12.25 237.75 12.8 Q201.15 118.95 51.75 188.8 28.85 199.5 3.25 209.35 L3.2 209.35 1.2 210.15 0.65 210.35 1.1 209.4 2.2 208.8 20.6 198.65 33.8 190.9 Q44.75 184.25 54.5 177.8 81.5 159.75 98.9 142.75 L98.9 142.7 103.8 137.7 Q143.75 112.1 172.0 87.45 L181.1 79.2 190.4 70.15 190.8 69.75 Q198.15 62.3 204.4 54.9 L205.15 54.0 211.1 46.6 Q215.35 41.0 219.0 35.5 225.8 25.15 230.3 14.95 L233.15 8.2 M0.2 210.75 L0.75 209.6 1.1 209.4 0.65 210.35 0.2 210.75 M237.6 12.25 L236.65 13.65 237.3 11.4 236.65 13.65 237.6 12.25 M234.7 6.25 L234.6 6.35 234.7 6.25 M2.2 208.8 L1.2 210.15 2.2 208.8" fill="#4a4322" fill-rule="evenodd" stroke="none"/>
      <path d="M233.3 7.85 L233.15 8.2 233.1 8.2 233.3 7.85" fill="#574c28" fill-rule="evenodd" stroke="none"/>
      <path d="M221.9 0.05 Q179.35 23.35 175.45 37.95 L168.8 42.3 155.4 51.25 Q147.5 56.65 139.95 62.1 L121.65 75.65 Q95.1 96.05 73.2 117.0 64.9 124.95 57.25 133.0 42.55 148.4 30.4 164.15 L28.0 167.3 Q18.5 179.85 10.6 192.55 6.4 199.25 2.7 206.0 12.9 184.5 24.5 165.0 96.05 44.6 219.25 0.2 L221.9 0.05" fill="#796d39" fill-rule="evenodd" stroke="none"/>
      <path d="M237.75 12.8 L238.95 18.2 238.8 18.7 Q227.75 50.4 207.3 78.35 157.85 145.7 53.4 190.8 28.55 201.5 0.7 210.95 L0.6 210.95 0.0 211.15 0.2 210.75 0.65 210.35 1.2 210.15 3.2 209.35 3.25 209.35 Q28.85 199.5 51.75 188.8 201.15 118.95 237.75 12.8 M0.7 210.95 L3.2 209.35 0.7 210.95 M0.6 210.95 L1.2 210.15 0.6 210.95" fill="#675d37" fill-rule="evenodd" stroke="none"/>
      <path d="M0.8 209.5 L2.5 205.9 2.0 207.25 0.8 209.5" fill="#918343" fill-rule="evenodd" stroke="none"/>
      <path d="M2.7 206.0 L2.0 207.25 2.5 205.9 8.55 193.5 Q12.7 185.1 17.05 177.1 20.35 170.9 31.0 153.6 40.55 138.05 57.95 113.8 62.35 103.4 78.95 83.95 95.5 64.45 121.95 46.3 148.4 28.1 160.3 21.9 178.5 12.35 197.8 6.05 208.2 2.65 218.95 0.2 L219.25 0.2 Q96.05 44.6 24.5 165.0 12.9 184.5 2.7 206.0" fill="#8d8259" fill-rule="evenodd" stroke="none"/>
      <path d="M234.15 5.55 Q229.75 0.05 221.9 0.05 M2.0 207.25 L1.1 209.4 M234.15 5.55 L234.7 6.25 Q236.2 8.45 237.3 11.4 L237.6 12.25 237.75 12.8 238.95 18.2 238.8 18.7 Q227.75 50.4 207.3 78.35 157.85 145.7 53.4 190.8 28.55 201.5 0.7 210.95 M0.2 210.75 L0.75 209.6 0.8 209.5 2.5 205.9 8.55 193.5 Q12.7 185.1 17.05 177.1 20.35 170.9 31.0 153.6 40.55 138.05 57.95 113.8 62.35 103.4 78.95 83.95 95.5 64.45 121.95 46.3 148.4 28.1 160.3 21.9 178.5 12.35 197.8 6.05 208.2 2.65 218.95 0.2 L219.25 0.2 220.55 -0.3 M219.25 0.2 L221.9 0.05 M2.0 207.25 L2.5 205.9 M1.2 210.15 L2.2 208.8 M0.65 210.35 L1.1 209.4 M3.2 209.35 L3.25 209.35 M3.2 209.35 L0.7 210.95 M0.2 210.75 L0.65 210.35 M1.2 210.15 L0.6 210.95" fill="none" stroke="#0f0f08" stroke-linecap="round" stroke-linejoin="round" stroke-opacity="0.2509804" stroke-width="1.0"/>
      <path d="M233.3 7.85 L233.1 8.2 M233.15 8.2 L234.6 6.35 233.3 7.85 M234.6 6.35 L234.7 6.25 M237.3 11.4 L236.65 13.65 237.6 12.25" fill="none" stroke="#35250e" stroke-linecap="round" stroke-linejoin="round" stroke-opacity="0.2509804" stroke-width="1.0"/>
      <path d="M166.75 46.8 L155.4 51.25 163.35 43.05 175.45 37.95 166.75 46.8 M107.75 89.8 L99.15 93.5 102.15 86.25 115.55 80.45 107.75 89.8 M47.9 147.25 L31.75 162.4 43.5 144.95 62.55 127.5 47.9 147.25 M136.8 118.2 L116.05 129.65 138.45 110.15 158.3 99.4 136.8 118.2" fill="#83763d" fill-rule="evenodd" stroke="none"/>
    </g>
    <g id="sprite8" transform="matrix(1.0, 0.0, 0.0, 1.0, 0.45, 9.05)">
      <use height="110.8" transform="matrix(1.0, 0.0, 0.0, 1.0, -0.45, -9.05)" width="134.6" xlink:href="#shape9"/>
    </g>
    <g id="shape9" transform="matrix(1.0, 0.0, 0.0, 1.0, 0.45, 9.05)">
      <path d="M93.75 14.4 L98.6 0.85 74.5 11.85 106.85 -6.7 Q97.65 6.4 93.75 14.4" fill="#796c39" fill-rule="evenodd" stroke="none"/>
      <path d="M4.6 99.75 L1.5 100.8 1.6 100.55 0.1 101.25 0.05 101.2 Q5.25 89.95 8.25 84.0 L12.7 75.25 16.75 67.6 23.45 55.4 Q34.3 36.3 48.65 17.05 L45.9 44.25 67.8 35.2 42.5 75.6 4.6 99.75" fill="#83763d" fill-rule="evenodd" stroke="none"/>
      <path d="M0.05 101.25 L0.0 101.25 0.05 101.2 0.05 101.25 M96.45 41.7 L96.35 41.6 96.6 41.6 96.45 41.7" fill="#767754" fill-rule="evenodd" stroke="none"/>
      <path d="M1.5 100.8 L1.25 100.85 0.1 101.25 1.6 100.55 1.5 100.8" fill="#55573d" fill-rule="evenodd" stroke="none"/>
      <path d="M0.1 101.25 L0.05 101.25 0.05 101.2 0.1 101.25" fill="#4a4322" fill-rule="evenodd" stroke="none"/>
      <path d="M120.05 37.4 L133.65 38.35 129.65 41.3 120.05 37.4 M98.1 28.75 L121.25 24.65 115.95 34.6 116.95 28.15 98.1 28.75" fill="#675c30" fill-rule="evenodd" stroke="none"/>
      <path d="M90.9 22.3 Q91.3 19.3 93.75 14.4 91.3 19.3 90.9 22.3 L90.4 26.65 89.7 26.9 89.7 26.8 68.45 34.85 73.0 12.35 73.15 12.6 73.25 12.25 73.3 12.25 74.5 11.85 98.6 0.85 93.75 14.4 90.9 22.3 M72.45 10.6 L68.45 -1.35 61.25 0.35 Q64.45 -2.8 71.75 -8.55 71.2 5.6 72.45 10.6" fill="#8a7b41" fill-rule="evenodd" stroke="none"/>
      <path d="M48.65 17.05 L57.35 5.7 58.8 3.1 Q59.3 2.2 61.25 0.35 L68.45 -1.35 72.45 10.6 72.95 12.2 73.0 12.35 68.45 34.85 67.85 35.05 67.8 35.2 45.9 44.25 48.65 17.05" fill="#938345" fill-rule="evenodd" stroke="none"/>
      <path d="M68.45 34.85 L89.7 26.8 89.7 26.9 90.55 27.1 98.15 28.9 98.2 28.9 98.3 29.1 98.2 28.9 98.4 28.85 98.3 29.1 97.6 29.2 93.2 40.8 88.4 51.85 88.25 51.95 42.2 76.05 42.5 75.6 67.8 35.2 67.85 35.05 68.45 34.85" fill="#7d6e3a" fill-rule="evenodd" stroke="none"/>
      <path d="M129.65 41.3 Q117.8 49.75 110.85 53.2 L88.25 51.95 88.4 51.85 93.2 40.8 97.6 29.2 98.3 29.1 98.4 28.85 98.2 28.9 98.1 28.75 116.95 28.15 115.95 34.6 115.85 34.75 Q115.55 35.25 115.75 35.7 116.3 36.75 120.05 37.4 L129.65 41.3 M96.45 41.7 L96.6 41.6 96.35 41.6 96.45 41.7" fill="#756837" fill-rule="evenodd" stroke="none"/>
      <path d="M110.85 53.2 Q108.2 54.5 106.25 55.05 103.6 56.45 101.0 57.9 78.65 70.25 53.1 81.3 33.9 89.55 12.7 97.0 L4.6 99.75 42.5 75.6 42.2 76.05 88.25 51.95 110.85 53.2" fill="#6e6233" fill-rule="evenodd" stroke="none"/>
      <path d="M120.05 37.4 L133.65 38.35 129.65 41.3 Q117.8 49.75 110.85 53.2 108.2 54.5 106.25 55.05 103.6 56.45 101.0 57.9 78.65 70.25 53.1 81.3 33.9 89.55 12.7 97.0 L4.6 99.75 1.5 100.8 M0.05 101.2 Q5.25 89.95 8.25 84.0 L12.7 75.25 16.75 67.6 23.45 55.4 Q34.3 36.3 48.65 17.05 L57.35 5.7 58.8 3.1 Q59.3 2.2 61.25 0.35 L60.75 0.45 M93.75 14.4 Q91.3 19.3 90.9 22.3 L90.55 27.1 98.15 28.9 98.2 28.9 98.1 28.75 121.25 24.65 115.95 34.6 115.75 35.7 Q116.3 36.75 120.05 37.4 M74.5 11.85 L73.3 12.25 M98.3 29.1 L98.2 28.9 98.4 28.85 98.3 29.1 M115.95 34.6 L115.85 34.75 Q115.55 35.25 115.75 35.7 M73.0 12.35 L72.95 12.2 72.45 10.6 M61.25 0.35 Q64.45 -2.8 71.75 -8.55 71.2 5.6 72.45 10.6 M0.1 101.25 L1.6 100.55 1.5 100.8 M93.75 14.4 Q97.65 6.4 106.85 -6.7 L74.5 11.85" fill="none" stroke="#3c2910" stroke-linecap="round" stroke-linejoin="round" stroke-opacity="0.2509804" stroke-width="1.0"/>
    </g>
    <g id="shape10" transform="matrix(1.0, 0.0, 0.0, 1.0, -0.5, 0.6)">
      <path d="M228.3 1.55 L230.4 2.55 210.25 24.9 Q169.9 74.5 120.6 112.8 179.4 60.1 228.3 1.55 M219.8 0.75 Q175.75 19.1 136.0 48.8 174.0 15.6 219.8 0.75 M171.05 51.25 Q134.45 81.35 106.0 112.85 L102.8 111.6 Q133.25 76.8 171.05 51.25 M1.35 210.15 Q24.8 168.25 37.2 160.45 17.2 185.3 1.35 210.15" fill="#574c28" fill-rule="evenodd" stroke="none"/>
      <path d="M233.1 8.2 L233.15 8.2 230.3 14.95 Q217.4 41.65 187.55 67.3 216.0 38.0 233.1 8.2 M236.65 13.65 Q223.1 59.95 182.85 94.0 218.2 56.75 236.65 13.65 M1.6 210.45 Q60.4 186.2 117.9 149.45 61.45 190.95 1.6 210.45" fill="#3f371d" fill-rule="evenodd" stroke="none"/>
      <path d="M221.8 -0.1 L221.1 0.3 221.05 0.35 219.8 0.75 Q220.4 0.45 221.1 0.3 M117.9 149.45 L118.3 149.15 M1.6 210.45 L1.0 210.75 1.1 210.6 1.6 210.45" fill="none" stroke="#35250e" stroke-linecap="round" stroke-linejoin="round" stroke-opacity="0.2509804" stroke-width="1.0"/>
      <path d="M120.6 112.8 Q179.4 60.1 228.3 1.55 M136.0 48.8 Q174.0 15.6 219.8 0.75 M187.55 67.3 Q216.0 38.0 233.1 8.2 M182.85 94.0 Q218.2 56.75 236.65 13.65 M37.2 160.45 L37.75 160.1 M171.05 51.25 Q133.25 76.8 102.8 111.6 M1.6 210.45 Q60.4 186.2 117.9 149.45 M1.35 210.15 Q24.8 168.25 37.2 160.45" fill="none" stroke="#9d8772" stroke-linecap="round" stroke-linejoin="round" stroke-opacity="0.2509804" stroke-width="1.0"/>
    </g>
    <g id="sprite9" transform="matrix(1.0, 0.0, 0.0, 1.0, 0.5, 1.15)">
      <use height="112.3" transform="matrix(1.0, 0.0, 0.0, 1.0, -0.5, -1.15)" width="60.1" xlink:href="#shape11"/>
    </g>
    <g id="shape11" transform="matrix(1.0, 0.0, 0.0, 1.0, 0.5, 1.15)">
      <path d="M14.65 1.95 Q13.9 24.55 30.45 39.05 57.15 61.65 54.25 91.9 22.55 81.15 11.3 55.05 L11.15 54.7 Q1.6 28.45 14.65 1.95" fill="#74813d" fill-rule="evenodd" stroke="none"/>
      <path d="M14.65 1.95 Q1.6 28.45 11.15 54.7 L11.3 55.05 Q22.55 81.15 54.25 91.9 57.15 61.65 30.45 39.05 13.9 24.55 14.65 1.95 L15.15 0.95 Q17.25 21.75 45.2 48.0 65.4 72.7 55.15 93.55 L54.1 93.35 Q24.95 87.75 4.8 59.5 -8.35 38.9 14.7 0.65 L15.05 0.0 15.1 0.65 15.15 0.95 14.65 1.95" fill="#657235" fill-rule="evenodd" stroke="none"/>
      <path d="M14.65 1.95 L15.15 0.95 15.1 0.65 15.05 0.0 14.7 0.65 Q-8.35 38.9 4.8 59.5 24.95 87.75 54.1 93.35 L55.15 93.55 Q65.4 72.7 45.2 48.0 17.25 21.75 15.15 0.95 M14.75 -0.65 L14.7 0.65" fill="none" stroke="#373019" stroke-linecap="round" stroke-linejoin="round" stroke-opacity="0.2509804" stroke-width="1.0"/>
      <path d="M17.3 12.25 L14.3 20.55 Q15.1 28.0 17.45 34.6 19.95 41.65 24.25 47.7 L26.7 50.25 Q34.35 44.15 33.35 35.8 M13.85 21.15 L14.3 20.55 Q13.25 11.2 14.65 0.45 M17.45 34.6 Q9.1 32.1 2.9 25.15 M26.7 50.25 Q32.2 56.2 37.25 63.25 46.7 76.35 54.6 93.2 M37.25 63.25 Q22.25 66.65 7.25 63.65 M26.2 51.3 L26.7 50.25 M46.0 76.0 Q52.85 69.9 53.15 59.35" fill="none" stroke="#373019" stroke-linecap="round" stroke-linejoin="round" stroke-opacity="0.2509804" stroke-width="1.0"/>
      <path d="M54.8 93.05 Q59.45 102.95 59.1 110.65" fill="none" stroke="#0f0f08" stroke-linecap="round" stroke-linejoin="round" stroke-opacity="0.2509804" stroke-width="1.0"/>
    </g>
    <g id="sprite10" transform="matrix(1.0, 0.0, 0.0, 1.0, 4.9, 0.5)">
      <use height="52.2" transform="matrix(1.0, 0.0, 0.0, 1.0, -4.9, -0.5)" width="91.3" xlink:href="#shape12"/>
    </g>
    <g id="shape12" transform="matrix(1.0, 0.0, 0.0, 1.0, 4.9, 0.5)">
      <path d="M82.45 6.35 Q82.2 5.8 80.85 5.45 L77.45 4.8 77.45 6.2 78.15 7.0 Q78.7 7.6 79.05 7.7 L82.45 8.7 Q82.7 6.85 82.45 6.35 M83.95 8.5 L83.95 9.9 83.45 9.9 77.45 9.15 Q75.3 8.5 75.55 6.35 L75.8 4.0 76.15 3.35 77.4 3.2 81.55 3.7 Q84.6 4.35 83.95 8.5" fill="#574e28" fill-rule="evenodd" stroke="none"/>
      <path d="M82.45 6.35 Q82.7 6.85 82.45 8.7 L79.05 7.7 Q78.7 7.6 78.15 7.0 L77.45 6.2 77.45 4.8 80.85 5.45 Q82.2 5.8 82.45 6.35 M83.95 8.5 Q84.6 4.35 81.55 3.7 L77.4 3.2 76.15 3.35 75.8 4.0 75.55 6.35 Q75.3 8.5 77.45 9.15 L83.45 9.9 83.95 9.9 83.95 8.5 M75.45 10.55 Q72.7 8.8 73.35 5.5 73.8 3.15 75.95 0.0 90.75 3.0 83.55 12.4 78.0 12.15 75.45 10.55" fill="#675d30" fill-rule="evenodd" stroke="none"/>
      <path d="M75.95 0.0 Q73.8 3.15 73.35 5.5 37.3 20.45 19.1 26.0 0.6 31.65 0.5 27.55 L0.7 26.5 0.8 26.0 Q1.75 21.7 3.95 16.8 19.3 24.25 75.95 0.0" fill="#706635" fill-rule="evenodd" stroke="none"/>
      <path d="M73.35 5.5 Q72.7 8.8 75.45 10.55 52.4 17.0 34.8 26.0 17.45 34.85 1.45 47.75 -10.8 43.8 0.5 27.55 0.6 31.65 19.1 26.0 37.3 20.45 73.35 5.5" fill="#585029" fill-rule="evenodd" stroke="none"/>
      <path d="M75.45 10.55 Q78.0 12.15 83.55 12.4 66.6 19.0 52.55 26.0 28.35 38.05 12.75 51.2 8.3 49.1 1.45 47.75 17.45 34.85 34.8 26.0 52.4 17.0 75.45 10.55" fill="#4a4322" fill-rule="evenodd" stroke="none"/>
      <path d="M83.55 12.4 Q90.75 3.0 75.95 0.0 19.3 24.25 3.95 16.8 M12.75 51.2 Q28.35 38.05 52.55 26.0 66.6 19.0 83.55 12.4 Z" fill="none" stroke="#373019" stroke-linecap="round" stroke-linejoin="round" stroke-opacity="0.2509804" stroke-width="1.0"/>
    </g>
    <g id="sprite11" transform="matrix(1.0, 0.0, 0.0, 1.0, 0.5, 0.5)">
      <use height="49.4" transform="matrix(1.0, 0.0, 0.0, 1.0, -0.5, -0.5)" width="47.6" xlink:href="#shape13"/>
    </g>
    <g id="shape13" transform="matrix(1.0, 0.0, 0.0, 1.0, 0.5, 0.5)">
      <path d="M0.0 48.05 Q3.15 35.15 2.5 27.9 1.95 20.6 8.35 12.95 14.7 5.3 22.7 1.9 L25.0 1.5 31.3 0.15 Q34.9 -0.6 42.65 2.8 50.35 6.15 43.0 19.85 35.6 33.5 31.45 34.7 27.25 35.9 13.35 41.9 3.1 46.2 0.15 48.35 L0.0 48.05 M21.1 9.2 Q18.95 10.05 17.25 13.35 L13.55 19.6 Q10.95 24.05 9.15 28.6 7.4 33.0 7.4 34.85 L7.45 35.55 7.75 36.15 10.65 36.15 Q18.55 33.8 28.15 26.0 37.15 18.65 37.15 15.8 37.15 13.25 35.0 11.65 32.35 9.8 25.0 8.65 23.3 8.3 21.1 9.2 M22.8 16.55 L22.75 16.3 23.2 16.2 23.35 16.55 22.8 16.55" fill="#796d39" fill-opacity="0.5882353" fill-rule="evenodd" stroke="none"/>
      <path d="M21.1 9.2 Q23.3 8.3 25.0 8.65 32.35 9.8 35.0 11.65 37.15 13.25 37.15 15.8 37.15 18.65 28.15 26.0 18.55 33.8 10.65 36.15 L7.75 36.15 7.45 35.55 7.4 34.85 Q7.4 33.0 9.15 28.6 10.95 24.05 13.55 19.6 L17.25 13.35 Q18.95 10.05 21.1 9.2 M23.2 16.2 L22.75 16.3 Q21.45 16.55 20.2 17.1 L20.15 17.15 20.25 17.3 Q18.95 18.05 17.55 19.55 15.05 22.3 15.05 24.05 15.05 24.9 16.55 25.55 L18.55 26.05 Q22.95 26.05 27.05 23.05 30.55 20.45 30.55 19.05 30.55 17.15 29.55 16.55 28.7 16.05 26.3 16.05 L23.2 16.2" fill="#625a2e" fill-opacity="0.5882353" fill-rule="evenodd" stroke="none"/>
      <path d="M22.8 16.55 L23.35 16.55 23.2 16.2 26.3 16.05 Q28.7 16.05 29.55 16.55 30.55 17.15 30.55 19.05 30.55 20.45 27.05 23.05 22.95 26.05 18.55 26.05 L16.55 25.55 Q15.05 24.9 15.05 24.05 15.05 22.3 17.55 19.55 18.95 18.05 20.25 17.3 21.55 16.55 22.8 16.55" fill="#83763d" fill-opacity="0.5882353" fill-rule="evenodd" stroke="none"/>
      <path d="M0.15 48.35 Q3.1 46.2 13.35 41.9 27.25 35.9 31.45 34.7 35.6 33.5 43.0 19.85 50.35 6.15 42.65 2.8 34.9 -0.6 31.3 0.15 L25.0 1.5 22.7 1.9 Q14.7 5.3 8.35 12.95 1.95 20.6 2.5 27.9 3.15 35.15 0.0 48.05 M0.15 48.35 L0.05 48.4 0.0 48.05 M21.1 9.2 Q18.95 10.05 17.25 13.35 L13.55 19.6 Q10.95 24.05 9.15 28.6 7.4 33.0 7.4 34.85 L7.45 35.55 7.75 36.15 10.65 36.15 Q18.55 33.8 28.15 26.0 37.15 18.65 37.15 15.8 37.15 13.25 35.0 11.65 32.35 9.8 25.0 8.65 23.3 8.3 21.1 9.2 M23.2 16.2 L22.75 16.3 Q21.45 16.55 20.2 17.1 L20.15 17.15 M20.25 17.3 Q18.95 18.05 17.55 19.55 15.05 22.3 15.05 24.05 15.05 24.9 16.55 25.55 L18.55 26.05 Q22.95 26.05 27.05 23.05 30.55 20.45 30.55 19.05 30.55 17.15 29.55 16.55 28.7 16.05 26.3 16.05 L23.2 16.2" fill="none" stroke="#0f0f08" stroke-linecap="round" stroke-linejoin="round" stroke-opacity="0.14509805" stroke-width="1.0"/>
    </g>
    <g id="sprite12" transform="matrix(1.0, 0.0, 0.0, 1.0, 5.75, 0.5)">
      <use height="27.1" transform="matrix(1.0, 0.0, 0.0, 1.0, -5.75, -0.5)" width="55.85" xlink:href="#shape14"/>
    </g>
    <g id="shape14" transform="matrix(1.0, 0.0, 0.0, 1.0, 5.75, 0.5)">
      <path d="M48.9 2.05 L49.4 2.0 49.6 2.0 49.5 2.45 Q44.05 9.4 35.0 12.15 27.8 11.75 22.5 8.3 28.35 6.0 33.9 4.55 41.7 2.45 48.9 2.05 41.7 2.45 33.9 4.55 28.35 6.0 22.5 8.3 27.8 11.75 35.0 12.15 25.05 19.9 11.3 19.1 6.25 20.85 0.35 19.35 L0.0 19.2 0.05 19.1 Q6.55 13.5 13.3 9.7 23.65 3.85 34.5 2.3 41.6 1.25 48.9 2.05 M34.5 2.3 Q33.5 3.75 33.9 4.55 33.5 3.75 34.5 2.3 M22.5 8.3 Q18.1 9.95 13.5 12.15 12.9 11.1 13.3 9.7 12.9 11.1 13.5 12.15 18.1 9.95 22.5 8.3 M13.5 12.15 Q10.1 13.7 6.6 15.6 L0.0 19.2 6.6 15.6 Q10.1 13.7 13.5 12.15 M6.6 15.6 Q8.65 17.75 11.3 19.1 8.65 17.75 6.6 15.6" fill="#74813d" fill-rule="evenodd" stroke="none"/>
      <path d="M49.6 2.0 L49.4 2.0 48.9 2.05 Q41.6 1.25 34.5 2.3 L35.45 1.0 36.3 0.05 35.45 1.0 34.5 2.3 Q23.65 3.85 13.3 9.7 13.65 8.3 15.0 6.55 L15.6 6.2 Q22.55 2.5 29.2 1.0 L36.3 0.05 Q41.35 -0.15 46.2 1.0 L49.6 2.0 M0.05 19.1 Q0.75 14.4 15.0 6.55 13.65 8.3 13.3 9.7 6.55 13.5 0.05 19.1" fill="#657235" fill-rule="evenodd" stroke="none"/>
      <path d="M35.0 12.15 Q44.05 9.4 49.5 2.45 48.35 7.45 42.25 11.8 36.65 15.75 27.0 19.2 L18.5 21.1 Q7.7 22.7 0.35 19.35 6.25 20.85 11.3 19.1 25.05 19.9 35.0 12.15 L42.25 11.8 35.0 12.15 M18.5 21.1 Q14.45 20.7 11.3 19.1 14.45 20.7 18.5 21.1" fill="#8ea14b" fill-rule="evenodd" stroke="none"/>
      <path d="M48.9 2.05 L49.4 2.0 49.6 2.0 46.2 1.0 Q41.35 -0.15 36.3 0.05 L35.45 1.0 34.5 2.3 M48.9 2.05 Q41.7 2.45 33.9 4.55 28.35 6.0 22.5 8.3 27.8 11.75 35.0 12.15 L42.25 11.8 Q36.65 15.75 27.0 19.2 L18.5 21.1 Q7.7 22.7 0.35 19.35 L0.0 19.2 0.05 19.1 Q0.75 14.4 15.0 6.55 L15.6 6.2 Q22.55 2.5 29.2 1.0 L36.3 0.05 M49.5 2.45 L49.6 2.0 M49.5 2.45 Q48.35 7.45 42.25 11.8 M33.9 4.55 Q33.5 3.75 34.5 2.3 M13.3 9.7 Q12.9 11.1 13.5 12.15 18.1 9.95 22.5 8.3 M13.3 9.7 Q13.65 8.3 15.0 6.55 M0.0 19.2 L6.6 15.6 Q10.1 13.7 13.5 12.15 M11.3 19.1 Q14.45 20.7 18.5 21.1 M11.3 19.1 Q8.65 17.75 6.6 15.6" fill="none" stroke="#373019" stroke-linecap="round" stroke-linejoin="round" stroke-opacity="0.2509804" stroke-width="1.0"/>
      <path d="M0.7 19.25 Q-5.35 22.6 -5.25 26.1" fill="none" stroke="#0f0f08" stroke-linecap="round" stroke-linejoin="round" stroke-opacity="0.2509804" stroke-width="1.0"/>
    </g>
    <g id="sprite13" transform="matrix(1.0, 0.0, 0.0, 1.0, 51.0, 34.4)">
      <use height="155.1" transform="matrix(1.0, 0.0, 0.0, 1.0, -51.0, -34.4)" width="143.1" xlink:href="#shape15"/>
      <use height="48.8" transform="matrix(1.0, 0.0, 0.0, 1.0, 0.75, 2.6)" width="54.4" xlink:href="#sprite14"/>
      <use height="29.2" transform="matrix(1.0, 0.0, 0.0, 1.0, 8.85, 9.7)" width="32.3" xlink:href="#sprite15"/>
      <use height="48.45" transform="matrix(1.0, 0.0, 0.0, 1.0, -1.35, 3.1)" width="58.2" xlink:href="#sprite16"/>
      <use height="51.1" transform="matrix(1.0, 0.0, 0.0, 1.0, -0.95, 2.35)" width="57.25" xlink:href="#sprite18"/>
    </g>
    <g id="shape15" transform="matrix(1.0, 0.0, 0.0, 1.0, 51.0, 34.4)">
      <path d="M53.2 27.35 Q50.5 37.2 48.55 39.05 L46.35 41.05 Q30.9 49.6 11.05 54.4 5.55 52.5 -47.6 119.7 -56.15 124.4 -43.35 107.35 -12.8 59.45 -5.75 50.05 1.35 40.55 2.45 29.95 3.55 19.35 11.9 13.1 20.2 6.85 22.0 6.45 L41.1 4.05 Q58.4 2.0 92.1 -34.4 50.4 19.8 53.2 27.35" fill="#887b3f" fill-rule="evenodd" stroke="none"/>
    </g>
    <g id="sprite14" transform="matrix(1.0, 0.0, 0.0, 1.0, 0.5, 0.5)">
      <use height="48.8" transform="matrix(1.0, 0.0, 0.0, 1.0, -0.5, -0.5)" width="54.4" xlink:href="#shape16"/>
    </g>
    <g id="shape16" transform="matrix(1.0, 0.0, 0.0, 1.0, 0.5, 0.5)">
      <path d="M53.4 0.0 Q41.9 11.1 26.65 19.95 9.2 32.25 0.0 47.8 2.95 35.4 3.75 24.05 4.95 16.35 8.3 13.55 11.65 10.75 17.25 6.7 22.85 2.65 32.6 3.45 42.35 4.2 53.4 0.0" fill="#574c28" fill-rule="evenodd" stroke="none"/>
      <path d="M0.0 47.8 Q2.95 35.4 3.75 24.05 4.95 16.35 8.3 13.55 11.65 10.75 17.25 6.7 22.85 2.65 32.6 3.45 42.35 4.2 53.4 0.0" fill="none" stroke="#3c2910" stroke-linecap="round" stroke-linejoin="round" stroke-opacity="0.2509804" stroke-width="1.0"/>
    </g>
    <g id="sprite15" transform="matrix(1.0, 0.0, 0.0, 1.0, -6.25, -7.15)">
      <use height="29.2" transform="matrix(1.0, 0.0, 0.0, 1.0, 6.25, 7.15)" width="32.3" xlink:href="#shape17"/>
    </g>
    <g id="shape17" transform="matrix(1.0, 0.0, 0.0, 1.0, -6.25, -7.15)">
      <path d="M38.55 11.15 L26.8 19.65 Q9.35 31.95 6.4 36.35 5.7 34.3 8.9 24.8 9.3 19.0 11.95 15.75 14.6 12.5 18.45 9.5 22.25 6.5 29.8 7.3 37.3 8.05 38.55 11.15" fill="#363019" fill-rule="evenodd" stroke="none"/>
    </g>
    <g id="sprite16" transform="matrix(1.0, 0.0, 0.0, 1.0, 1.4, 0.0)">
      <use height="72.05" transform="matrix(0.6449, -0.0227, 0.0227, 0.6449, -1.4006, 1.9846)" width="87.75" xlink:href="#sprite17"/>
    </g>
    <g id="sprite17" transform="matrix(1.0, 0.0, 0.0, 1.0, 2.2, -3.0)">
      <use height="72.05" transform="matrix(1.0, 0.0, 0.0, 1.0, -2.2, 3.0)" width="87.75" xlink:href="#shape18"/>
    </g>
    <g id="shape18" transform="matrix(1.0, 0.0, 0.0, 1.0, 2.2, -3.0)">
      <path d="M60.35 13.8 Q70.6 14.55 85.55 3.0 71.1 17.65 71.1 30.3 69.4 41.65 63.85 46.35 58.25 51.05 55.45 52.85 40.45 61.6 22.35 60.45 7.3 63.45 -2.2 75.05 6.2 61.55 19.2 44.2 24.55 50.15 35.1 43.2 40.45 51.35 50.95 46.6 54.65 44.95 53.5 36.8 70.3 33.2 60.35 13.8" fill="#363119" fill-rule="evenodd" stroke="none"/>
    </g>
    <g id="sprite18" transform="matrix(1.0, 0.0, 0.0, 1.0, 3.45, 2.75)">
      <use height="51.1" transform="matrix(1.0, 0.0, 0.0, 1.0, -3.45, -2.75)" width="57.25" xlink:href="#shape19"/>
    </g>
    <g id="shape19" transform="matrix(1.0, 0.0, 0.0, 1.0, 3.45, 2.75)">
      <path d="M53.3 -2.25 Q44.65 9.8 44.95 17.95 44.1 25.25 40.65 28.45 37.1 31.6 35.35 32.85 25.9 38.8 14.15 38.5 4.55 40.75 -2.95 47.85 1.0 39.55 6.6 31.4 15.4 31.8 21.0 26.9 25.65 32.2 32.3 28.9 34.65 27.75 35.1 22.65 44.5 19.8 37.55 5.75 45.3 2.5 53.3 -2.25" fill="#4f4825" fill-rule="evenodd" stroke="none"/>
      <path d="M53.3 -2.25 Q44.65 9.8 44.95 17.95 44.1 25.25 40.65 28.45 37.1 31.6 35.35 32.85 25.9 38.8 14.15 38.5 4.55 40.75 -2.95 47.85" fill="none" stroke="#3c2910" stroke-linecap="round" stroke-linejoin="round" stroke-opacity="0.2509804" stroke-width="1.0"/>
    </g>
    <g id="shape20" transform="matrix(1.0, 0.0, 0.0, 1.0, 12.0, 10.85)">
      <path d="M85.7 -4.5 L85.65 -4.3 84.85 -4.5 85.7 -4.5" fill="#2c2434" fill-rule="evenodd" stroke="none"/>
      <path d="M-3.7 78.05 L-3.4 79.05 -3.7 78.05" fill="#34210c" fill-rule="evenodd" stroke="none"/>
      <path d="M-3.4 79.05 L-3.95 78.1 -3.7 78.05 -3.4 79.05" fill="#a79562" fill-rule="evenodd" stroke="none"/>
      <path d="M-3.95 78.1 L-3.7 78.05 -3.95 78.1" fill="#392e43" fill-rule="evenodd" stroke="none"/>
      <path d="M-3.95 78.1 Q-16.2 56.85 -9.85 33.15 -3.5 9.5 17.7 -2.75 38.95 -15.05 62.6 -8.7 86.3 -2.35 98.55 18.9 102.1 25.0 104.1 31.3 91.65 9.5 68.05 1.0 44.3 -7.5 22.6 6.2 0.8 19.95 -3.85 41.45 -8.35 62.45 -3.7 78.05 L-3.95 78.1" fill="#574e27" fill-rule="evenodd" stroke="none"/>
      <path d="M104.1 31.3 Q109.0 46.95 104.5 63.8 98.15 87.5 76.9 99.75 55.65 112.0 31.95 105.65 8.8 99.45 -3.4 79.05 L-3.7 78.05 Q-8.35 62.45 -3.85 41.45 0.8 19.95 22.6 6.2 44.3 -7.5 68.05 1.0 91.65 9.5 104.1 31.3" fill="#373019" fill-rule="evenodd" stroke="none"/>
      <path d="M-3.95 78.1 Q-16.2 56.85 -9.85 33.15 -3.5 9.5 17.7 -2.75 38.95 -15.05 62.6 -8.7 86.3 -2.35 98.55 18.9 102.1 25.0 104.1 31.3 109.0 46.95 104.5 63.8 98.15 87.5 76.9 99.75 55.65 112.0 31.95 105.65 8.8 99.45 -3.4 79.05 L-3.95 78.1 Z" fill="none" stroke="#000000" stroke-linecap="round" stroke-linejoin="round" stroke-opacity="0.15294118" stroke-width="0.05"/>
      <path d="M90.45 62.1 Q85.6 80.3 69.3 89.8 57.4 96.6 44.6 95.9 L44.35 95.9 Q39.6 95.65 34.7 94.35 16.45 89.45 7.05 73.15 3.05 66.25 1.6 59.1 -0.35 49.15 2.45 38.55 3.55 34.45 5.3 30.85 11.0 18.2 23.7 10.9 30.35 7.0 37.3 5.55 47.4 3.4 58.25 6.3 76.45 11.15 85.95 27.55 93.25 40.25 92.0 54.05 91.55 58.0 90.45 62.1" fill="#755f3f" fill-rule="evenodd" stroke="none"/>
      <path d="M90.45 62.1 Q85.6 80.3 69.3 89.8 57.4 96.6 44.6 95.9 L44.35 95.9 Q39.6 95.65 34.7 94.35 16.45 89.45 7.05 73.15 3.05 66.25 1.6 59.1 -0.35 49.15 2.45 38.55 3.55 34.45 5.3 30.85 11.0 18.2 23.7 10.9 30.35 7.0 37.3 5.55 47.4 3.4 58.25 6.3 76.45 11.15 85.95 27.55 93.25 40.25 92.0 54.05 91.55 58.0 90.45 62.1 Z" fill="none" stroke="#000000" stroke-linecap="round" stroke-linejoin="round" stroke-opacity="0.15294118" stroke-width="0.05"/>
      <path d="M7.25 64.65 Q3.95 51.9 17.1 52.4 30.25 52.9 43.45 52.9 L71.75 54.2 Q86.8 55.45 82.0 66.55 77.2 77.65 66.95 83.75 56.65 89.85 43.45 89.85 30.25 89.85 20.4 83.65 10.55 77.4 7.25 64.65" fill="#a9a7a5" fill-rule="evenodd" stroke="none"/>
      <path d="M7.25 64.65 Q3.95 51.9 17.1 52.4 30.25 52.9 43.45 52.9 L71.75 54.2 Q86.8 55.45 82.0 66.55 77.2 77.65 66.95 83.75 56.65 89.85 43.45 89.85 30.25 89.85 20.4 83.65 10.55 77.4 7.25 64.65 Z" fill="none" stroke="#000000" stroke-linecap="round" stroke-linejoin="round" stroke-opacity="0.15294118" stroke-width="0.05"/>
      <path d="M68.55 56.95 Q70.75 60.8 69.65 65.1 68.5 69.35 64.6 71.65 60.8 73.85 56.55 72.65 52.3 71.55 50.0 67.7 47.8 63.8 49.0 59.55 50.1 55.2 53.95 53.05 57.75 50.85 62.05 51.95 66.3 53.1 68.55 56.95" fill="#000000" fill-rule="evenodd" stroke="none"/>
      <path d="M68.55 56.95 Q70.75 60.8 69.65 65.1 68.5 69.35 64.6 71.65 60.8 73.85 56.55 72.65 52.3 71.55 50.0 67.7 47.8 63.8 49.0 59.55 50.1 55.2 53.95 53.05 57.75 50.85 62.05 51.95 66.3 53.1 68.55 56.95 Z" fill="none" stroke="#000000" stroke-linecap="round" stroke-linejoin="round" stroke-opacity="0.15294118" stroke-width="0.05"/>
      <path d="M84.15 30.6 Q93.0 45.9 88.4 63.0 83.85 80.05 68.5 88.95 53.15 97.8 36.1 93.2 19.0 88.65 10.15 73.3 7.55 68.9 6.1 64.35 14.95 79.1 31.7 83.6 48.75 88.15 64.1 79.35 79.5 70.5 84.05 53.4 87.35 41.2 83.75 29.9 L84.15 30.6" fill="#000000" fill-opacity="0.19215687" fill-rule="evenodd" stroke="none"/>
      <path d="M40.0 45.4 Q45.8 45.4 49.9 49.4 53.95 53.55 53.95 59.3 54.0 65.05 49.9 69.1 45.8 73.25 40.0 73.2 34.2 73.25 30.05 69.1 25.95 65.1 26.0 59.3 25.95 53.55 30.05 49.4 34.2 45.45 40.0 45.4" fill="#adadad" fill-rule="evenodd" stroke="none"/>
      <path d="M8.75 31.9 L5.45 31.15 3.4 31.2 Q10.1 17.7 23.85 10.2 30.4 6.6 37.55 5.0 L38.0 6.6 Q34.05 7.5 30.15 9.2 14.7 16.15 9.05 31.0 L8.75 31.9" fill="#34210c" fill-rule="evenodd" stroke="none"/>
      <path d="M43.75 3.95 L43.95 5.6 Q40.95 5.85 38.0 6.6 L37.55 5.0 43.75 3.95" fill="#4a4322" fill-rule="evenodd" stroke="none"/>
      <path d="M95.95 61.8 Q97.25 63.9 97.1 67.9 96.9 71.9 93.35 73.3 89.75 74.65 79.25 69.45 68.8 64.2 55.7 59.4 42.4 54.65 28.65 51.0 14.3 47.35 -0.15 44.35 -1.15 44.1 -1.65 43.4 -7.25 35.35 3.4 31.2 L5.45 31.15 8.75 31.9 15.9 34.2 Q37.9 27.45 53.55 25.0 69.2 22.55 75.8 21.85 82.4 21.1 77.8 16.75 71.35 10.65 61.95 7.65 52.85 4.75 43.95 5.6 L43.75 3.95 53.3 3.7 Q68.8 4.9 80.65 14.0 93.6 23.85 96.85 39.0 99.3 50.5 95.95 61.8 94.6 60.0 92.6 58.9 L91.6 58.45 92.6 58.9 Q94.6 60.0 95.95 61.8" fill="#3d371b" fill-rule="evenodd" stroke="none"/>
      <path d="M43.95 5.6 Q52.85 4.75 61.95 7.65 71.35 10.65 77.8 16.75 82.4 21.1 75.8 21.85 69.2 22.55 53.55 25.0 37.9 27.45 15.9 34.2 L8.75 31.9 9.05 31.0 Q14.7 16.15 30.15 9.2 34.05 7.5 38.0 6.6 40.95 5.85 43.95 5.6" fill="#574e27" fill-rule="evenodd" stroke="none"/>
      <path d="M3.4 31.2 Q-7.25 35.35 -1.65 43.4 -1.15 44.1 -0.15 44.35 14.3 47.35 28.65 51.0 42.4 54.65 55.7 59.4 68.8 64.2 79.25 69.45 89.75 74.65 93.35 73.3 96.9 71.9 97.1 67.9 97.25 63.9 95.95 61.8 94.6 60.0 92.6 58.9 L91.6 58.45 M95.95 61.8 Q99.3 50.5 96.85 39.0 93.6 23.85 80.65 14.0 68.8 4.9 53.3 3.7 L43.75 3.95 M15.9 34.2 L8.75 31.9 5.45 31.15 3.4 31.2 Q10.1 17.7 23.85 10.2 30.4 6.6 37.55 5.0 L43.75 3.95" fill="none" stroke="#000000" stroke-linecap="round" stroke-linejoin="round" stroke-opacity="0.15294118" stroke-width="0.05"/>
      <path d="M3.3 33.55 Q3.95 31.75 27.6 39.9 51.3 48.15 50.85 49.4 L50.15 50.75 49.65 50.8 30.3 44.8 Q11.15 38.65 4.55 35.25 L2.95 34.45 3.3 33.55" fill="#574e27" fill-rule="evenodd" stroke="none"/>
      <path d="M3.3 33.55 Q3.95 31.75 27.6 39.9 51.3 48.15 50.85 49.4 L50.15 50.75 49.65 50.8 30.3 44.8 Q11.15 38.65 4.55 35.25 L2.95 34.45 3.3 33.55 Z" fill="none" stroke="#000000" stroke-linecap="round" stroke-linejoin="round" stroke-opacity="0.15294118" stroke-width="0.05"/>
      <path d="M42.25 17.7 Q40.75 19.6 36.55 19.6 33.0 19.6 31.95 17.6 L31.55 15.4 Q31.55 13.5 33.35 12.05 35.0 10.75 37.3 10.45 43.05 9.75 43.05 14.75 43.05 16.65 42.25 17.7" fill="#8a700b" fill-rule="evenodd" stroke="none"/>
      <path d="M42.25 17.7 Q40.75 19.6 36.55 19.6 33.0 19.6 31.95 17.6 L31.55 15.4 Q31.55 13.5 33.35 12.05 35.0 10.75 37.3 10.45 43.05 9.75 43.05 14.75 43.05 16.65 42.25 17.7 Z" fill="none" stroke="#000000" stroke-linecap="round" stroke-linejoin="round" stroke-opacity="0.15294118" stroke-width="0.05"/>
    </g>
  </defs>
</svg>
