<?xml version="1.0" encoding="UTF-8" standalone="no"?>
<svg xmlns:xlink="http://www.w3.org/1999/xlink" height="520.0px" width="520.0px" xmlns="http://www.w3.org/2000/svg">
  <g transform="matrix(10.0, 0.0, 0.0, 10.0, 0.0, 0.0)">
    <use height="52.0" transform="matrix(1.0, 0.0, 0.0, 1.0, 0.0, 0.0)" width="52.0" xlink:href="#sprite0"/>
  </g>
  <defs>
    <g id="sprite0" transform="matrix(1.0, 0.0, 0.0, 1.0, 0.0, 0.0)">
      <use height="52.0" transform="matrix(1.0, 0.0, 0.0, 1.0, 0.0, 0.0)" width="52.0" xlink:href="#sprite1"/>
      <use height="50.7" transform="matrix(1.0, 0.0, 0.0, 1.0, 0.7, 0.5)" width="50.6" xlink:href="#shape1"/>
      <use height="29.1" transform="matrix(1.0, 0.0, 0.0, 1.0, 14.85, 21.6)" width="35.95" xlink:href="#sprite2"/>
      <use height="42.7" transform="matrix(1.0, 0.0, 0.0, 1.0, 1.2, 1.0)" width="42.3" xlink:href="#sprite3"/>
      <clipPath id="clipPath0" transform="matrix(1.0, 0.0, 0.0, 1.0, 0.0, 0.0)">
        <use height="49.7" transform="matrix(1.0, 0.0, 0.0, 1.0, 1.2, 1.0)" width="49.6" xlink:href="#shape4"/>
      </clipPath>
      <g clip-path="url(#clipPath0)">
        <use height="37.7" transform="matrix(0.7878, 0.0, -0.5161, 0.9257, 20.45, 1.35)" width="37.7" xlink:href="#sprite4"/>
      </g>
    </g>
    <g id="sprite1" transform="matrix(1.0, 0.0, 0.0, 1.0, 0.0, 0.0)">
      <use height="52.0" transform="matrix(1.0, 0.0, 0.0, 1.0, 0.0, 0.0)" width="52.0" xlink:href="#shape0"/>
    </g>
    <g id="shape0" transform="matrix(1.0, 0.0, 0.0, 1.0, 0.0, 0.0)">
      <path d="M52.0 0.0 L52.0 52.0 0.0 52.0 0.0 0.0 52.0 0.0" fill="#ffba2e" fill-opacity="0.0" fill-rule="evenodd" stroke="none"/>
    </g>
    <g id="shape1" transform="matrix(1.0, 0.0, 0.0, 1.0, -0.7, -0.5)">
      <path d="M43.4 1.3 Q44.3 12.25 34.4 23.5 L30.55 24.8 30.4 24.8 30.25 24.9 29.95 24.95 Q28.4 25.55 27.2 26.2 L27.4 26.2 Q25.95 28.75 23.05 31.25 L23.2 31.35 Q23.95 32.05 24.7 34.4 L24.75 34.7 Q25.75 33.65 27.2 32.95 L27.55 31.4 27.95 30.45 Q37.5 24.15 49.65 21.8 L50.8 21.6 50.65 21.75 Q50.25 30.05 41.7 37.45 L38.65 38.05 38.55 38.05 38.45 38.1 38.2 38.1 36.05 38.75 36.2 38.8 Q34.8 40.6 32.35 42.15 L32.5 42.3 Q32.95 42.95 33.25 44.7 33.35 47.6 31.3 49.65 26.9 51.75 24.2 49.7 24.25 49.0 24.75 48.35 22.95 47.8 21.7 46.95 17.8 49.4 16.45 49.4 14.95 49.35 14.85 48.6 14.8 48.1 15.5 47.2 16.45 45.9 19.0 43.85 L18.75 43.15 17.05 43.35 16.7 43.85 Q16.1 44.15 16.1 43.3 14.8 43.15 13.65 42.5 13.6 41.65 14.05 40.8 11.7 40.35 9.95 39.55 5.3 43.4 3.5 43.65 1.5 43.85 1.25 42.8 1.05 42.2 1.85 40.9 2.85 39.1 5.8 36.05 4.95 34.7 4.8 33.2 3.55 34.45 2.75 36.15 1.4 37.05 2.1 32.85 2.6 30.25 4.05 28.6 L5.05 27.5 Q5.95 26.4 8.45 25.35 9.2 25.25 8.8 25.8 L10.0 25.0 9.65 25.45 10.25 25.1 10.35 24.95 Q11.7 22.15 14.55 20.15 L14.75 18.05 15.1 16.7 Q26.55 6.75 42.0 1.5 L43.5 1.0 43.4 1.3 Z" fill="none" stroke="#000000" stroke-linecap="round" stroke-linejoin="round" stroke-opacity="0.3019608" stroke-width="1.0"/>
    </g>
    <g id="sprite2" transform="matrix(1.0, 0.0, 0.0, 1.0, 0.0, 0.0)">
      <use height="29.1" transform="matrix(1.0, 0.0, 0.0, 1.0, 0.0, 0.0)" width="35.95" xlink:href="#shape2"/>
    </g>
    <g id="shape2" transform="matrix(1.0, 0.0, 0.0, 1.0, 0.0, 0.0)">
      <path d="M25.6 5.85 L33.3 1.45 Q33.75 1.8 32.75 2.75 31.8 3.65 32.95 4.55 34.2 5.45 33.15 5.9 L31.55 6.4 29.9 6.8 Q28.9 7.2 30.25 8.6 31.55 10.0 30.0 10.45 L26.9 11.2 Q25.25 11.5 24.7 11.95 24.05 12.45 25.45 13.15 26.75 13.9 25.55 14.5 L22.85 15.55 22.75 15.55 22.55 15.6 22.35 15.6 Q19.4 16.35 18.1 17.25 L17.4 18.1 16.2 19.4 13.8 16.3 22.75 8.1 25.6 5.85 M17.2 20.65 L17.2 20.55 17.35 20.95 17.2 20.65" fill="#a7a164" fill-rule="evenodd" stroke="none"/>
      <path d="M33.3 1.45 L33.35 1.45 33.35 1.4 35.95 0.0 35.8 0.15 Q35.4 8.45 26.85 15.85 L22.85 15.55 25.55 14.5 Q26.75 13.9 25.45 13.15 24.05 12.45 24.7 11.95 25.25 11.5 26.9 11.2 L30.0 10.45 Q31.55 10.0 30.25 8.6 28.9 7.2 29.9 6.8 L31.55 6.4 33.15 5.9 Q34.2 5.45 32.95 4.55 31.8 3.65 32.75 2.75 33.75 1.8 33.3 1.45 M7.65 15.3 L12.05 15.1 12.5 14.8 Q14.45 13.3 25.55 5.8 L25.6 5.85 22.75 8.1 13.8 16.3 16.2 19.4 15.8 19.55 11.75 16.15 11.6 16.1 7.45 15.4 7.65 15.3 7.45 15.4 7.4 15.4 6.7 15.3 6.65 15.3 6.75 15.35 6.7 15.3 6.75 15.35 6.85 15.3 7.55 15.3 7.4 15.4 7.55 15.3 7.65 15.3 M17.15 20.7 L17.0 20.6 17.15 20.7 17.2 20.65 17.35 20.95 17.15 20.7 M16.2 19.4 L16.15 19.4 16.2 19.4" fill="#d2c69e" fill-rule="evenodd" stroke="none"/>
      <path d="M12.7 9.8 Q13.15 9.35 13.85 8.95 15.25 8.05 15.55 8.45 L16.45 8.6 17.7 7.5 Q18.45 6.55 19.7 5.7 20.8 4.85 21.65 5.3 L23.2 5.25 25.1 3.7 Q26.2 2.65 26.8 2.55 L28.15 2.45 29.9 1.95 31.75 1.25 Q32.6 0.9 33.3 1.45 L25.6 5.85 25.55 5.8 Q14.45 13.3 12.5 14.8 L12.05 15.1 7.65 15.3 11.4 12.6 Q12.55 11.65 12.7 9.8 M33.35 1.45 L33.2 1.35 33.3 1.3 33.35 1.4 33.35 1.45 M6.75 15.35 L6.65 15.3 6.7 15.3 6.0 15.4 6.75 15.35 Q8.2 14.6 8.45 14.55 L7.55 15.3 6.85 15.3 6.75 15.35" fill="#cabf8b" fill-rule="evenodd" stroke="none"/>
      <path d="M33.3 1.45 Q32.6 0.9 31.75 1.25 L29.9 1.95 28.15 2.45 26.8 2.55 Q26.2 2.65 25.1 3.7 L23.2 5.25 21.65 5.3 Q20.8 4.85 19.7 5.7 18.45 6.55 17.7 7.5 L16.45 8.6 15.55 8.45 Q15.25 8.05 13.85 8.95 13.15 9.35 12.7 9.8 L13.1 8.85 Q22.65 2.55 34.8 0.2 L35.95 0.0 33.35 1.4 33.3 1.3 33.2 1.35 33.35 1.45 33.3 1.45" fill="#e0d1bc" fill-rule="evenodd" stroke="none"/>
      <path d="M22.85 15.55 L26.85 15.85 23.8 16.45 23.7 16.45 23.6 16.5 23.35 16.5 Q20.4 17.25 19.1 18.15 L18.4 19.0 17.2 20.55 17.2 20.65 17.15 20.7 17.1 20.75 10.5 18.4 7.7 17.1 7.5 16.4 Q7.3 15.5 7.45 15.4 L11.6 16.1 11.75 16.15 15.8 19.55 16.2 19.4 17.4 18.1 18.1 17.25 Q19.4 16.35 22.35 15.6 L22.55 15.6 22.75 15.55 22.85 15.55 M17.15 20.7 L17.0 20.6 17.15 20.7" fill="#72734d" fill-rule="evenodd" stroke="none"/>
      <path d="M35.95 0.0 L34.8 0.2 Q22.65 2.55 13.1 8.85 L12.7 9.8 Q12.55 11.65 11.4 12.6 L7.65 15.3 7.45 15.4 Q7.3 15.5 7.5 16.4 M26.85 15.85 Q35.4 8.45 35.8 0.15 L35.95 0.0 M7.7 17.1 L10.5 18.4 17.1 20.75 17.15 20.7 17.2 20.65 17.2 20.55 18.4 19.0 19.1 18.15 Q20.4 17.25 23.35 16.5 L23.6 16.5 23.7 16.45 23.8 16.45 26.85 15.85 M7.4 15.4 L7.55 15.3" fill="none" stroke="#000000" stroke-linecap="round" stroke-linejoin="round" stroke-opacity="0.2509804" stroke-width="0.05"/>
      <path d="M8.7 14.5 Q10.05 12.45 12.55 11.25 12.95 11.85 12.7 12.8 15.95 11.2 19.65 10.5 19.15 13.85 17.05 16.9 L21.35 17.2 Q19.85 19.15 17.05 20.8 19.2 18.5 19.55 17.45 L16.3 17.25 Q17.55 14.2 17.8 11.75 15.15 11.95 12.25 13.55 12.4 12.45 12.05 12.05 10.45 12.7 8.7 14.5 M15.65 24.2 L15.55 24.3 15.5 24.3 14.35 24.15 14.55 23.55 Q14.9 21.05 13.85 18.4 12.65 16.15 12.7 15.75 12.85 14.75 14.15 16.0 15.45 17.2 15.75 18.85 16.1 20.45 16.1 22.15 16.0 23.75 15.65 24.2" fill="#a64b05" fill-rule="evenodd" stroke="none"/>
      <path d="M8.7 14.5 Q10.45 12.7 12.05 12.05 12.4 12.45 12.25 13.55 15.15 11.95 17.8 11.75 17.55 14.2 16.3 17.25 L19.55 17.45 Q19.2 18.5 17.05 20.8 L17.5 23.25 Q16.55 23.75 15.65 24.2 16.0 23.75 16.1 22.15 16.1 20.45 15.75 18.85 15.45 17.2 14.15 16.0 12.85 14.75 12.7 15.75 12.65 16.15 13.85 18.4 14.9 21.05 14.55 23.55 L14.35 24.15 6.45 16.75 6.6 16.65 7.4 15.8 8.7 14.5" fill="url(#gradient0)" fill-rule="evenodd" stroke="none"/>
      <path d="M17.05 20.8 Q19.85 19.15 21.35 17.2 L17.05 16.9 Q19.15 13.85 19.65 10.5 15.95 11.2 12.7 12.8 12.95 11.85 12.55 11.25 10.05 12.45 8.7 14.5 M17.05 20.8 L17.5 23.25 M6.45 16.75 L6.6 16.65 7.4 15.8 8.7 14.5" fill="none" stroke="#000000" stroke-linecap="round" stroke-linejoin="round" stroke-opacity="0.2509804" stroke-width="0.05"/>
      <path d="M17.1 12.3 Q17.5 12.0 17.2 12.35 L16.25 13.3 15.55 13.85 15.3 14.4 14.75 14.75 14.35 14.7 14.15 14.55 14.1 15.0 14.1 15.25 13.95 15.6 13.35 14.8 13.3 14.05 Q13.35 13.95 13.7 13.9 L14.1 13.85 14.35 13.9 14.45 14.0 Q14.8 13.6 15.3 13.25 16.05 12.75 17.35 12.1 16.7 12.7 17.1 12.3" fill="#e0d128" fill-rule="evenodd" stroke="none"/>
      <path d="M16.75 18.05 Q16.9 17.85 17.1 17.8 17.75 17.4 18.35 17.35 L18.8 17.4 19.0 17.75 19.05 17.75 18.95 18.15 18.6 18.45 17.35 18.9 16.9 18.8 16.7 18.55 16.65 18.55 16.75 18.05" fill="#a64b05" fill-rule="evenodd" stroke="none"/>
      <path d="M17.25 18.1 L17.45 17.95 18.15 17.7 18.4 17.75 18.5 17.9 18.5 18.15 18.25 18.3 17.55 18.55 17.35 18.5 17.2 18.35 Q17.15 18.2 17.25 18.1" fill="#480000" fill-rule="evenodd" stroke="none"/>
      <path d="M17.25 18.1 Q17.15 18.2 17.2 18.35 L17.35 18.5 17.55 18.55 18.25 18.3 18.5 18.15 18.5 17.9 18.4 17.75 18.15 17.7 17.45 17.95 17.25 18.1 Z" fill="none" stroke="#000000" stroke-linecap="round" stroke-linejoin="round" stroke-opacity="0.3019608" stroke-width="0.05"/>
      <path d="M10.1 13.85 L10.35 13.5 11.1 12.6 11.45 12.35 11.75 12.3 11.85 12.5 11.65 12.85 10.9 13.75 10.5 14.0 10.2 14.1 10.1 13.85" fill="#a64b05" fill-rule="evenodd" stroke="none"/>
      <path d="M10.4 13.6 L10.5 13.45 10.95 12.95 11.15 12.75 11.3 12.75 11.4 12.85 11.3 13.05 10.85 13.55 10.65 13.7 10.45 13.75 10.4 13.6" fill="#480000" fill-rule="evenodd" stroke="none"/>
      <path d="M10.4 13.6 L10.45 13.75 10.65 13.7 10.85 13.55 11.3 13.05 11.4 12.85 11.3 12.75 11.15 12.75 10.95 12.95 10.5 13.45 10.4 13.6 Z" fill="none" stroke="#000000" stroke-linecap="round" stroke-linejoin="round" stroke-opacity="0.3019608" stroke-width="0.05"/>
      <path d="M4.45 19.1 Q4.3 21.6 6.35 23.6 8.35 25.6 12.5 26.5 L12.6 27.4 Q7.8 26.55 5.65 24.35 3.55 22.3 3.7 19.75 L4.45 19.1" fill="#a64b05" fill-rule="evenodd" stroke="none"/>
      <path d="M4.45 19.1 Q6.85 17.1 9.1 17.05 11.85 20.8 12.5 26.5 8.35 25.6 6.35 23.6 4.3 21.6 4.45 19.1" fill="#763400" fill-rule="evenodd" stroke="none"/>
      <path d="M12.5 26.5 Q11.85 20.8 9.1 17.05 6.85 17.1 4.45 19.1 4.3 21.6 6.35 23.6 8.35 25.6 12.5 26.5 L12.6 27.4 Q7.8 26.55 5.65 24.35 3.55 22.3 3.7 19.75 L4.45 19.1" fill="none" stroke="#000000" stroke-linecap="round" stroke-linejoin="round" stroke-opacity="0.2509804" stroke-width="0.05"/>
      <path d="M9.85 18.5 L7.45 20.05 4.55 22.4 Q2.35 24.2 2.4 24.6 L2.6 24.9 Q3.7 25.0 9.1 21.05 L11.5 19.3 11.6 19.35 12.0 19.85 6.85 23.3 Q3.2 25.85 2.2 25.9 L0.9 25.85 0.65 25.6 Q2.05 23.75 6.7 20.25 L8.9 18.7 9.75 18.5 9.85 18.5 M3.75 23.4 L3.8 23.3 3.8 23.35 3.75 23.4" fill="#323115" fill-rule="evenodd" stroke="none"/>
      <path d="M11.5 19.3 L9.1 21.05 Q3.7 25.0 2.6 24.9 L2.4 24.6 Q2.35 24.2 4.55 22.4 L7.45 20.05 9.85 18.5 11.3 19.1 11.35 19.2 11.5 19.3 M3.75 23.4 L3.8 23.35 3.8 23.3 3.75 23.4" fill="#414428" fill-rule="evenodd" stroke="none"/>
      <path d="M0.65 25.6 L0.9 25.85 2.2 25.9 Q3.2 25.85 6.85 23.3 L12.0 19.85 Q12.45 20.35 12.45 21.1 L12.3 21.6 10.55 22.85 Q3.55 27.8 1.6 27.8 0.1 27.75 0.0 27.0 -0.05 26.5 0.65 25.6" fill="#1c1b0c" fill-rule="evenodd" stroke="none"/>
      <path d="M17.65 20.7 Q18.1 21.35 18.4 23.1 18.5 26.0 16.45 28.05 12.05 30.15 9.35 28.1 9.45 26.95 10.65 25.9 L10.65 25.85 Q9.75 21.35 5.95 18.9 3.35 19.9 1.85 22.25 0.75 22.75 1.7 19.65 2.35 17.8 3.55 16.7 L2.0 20.4 3.2 19.0 Q4.4 17.8 5.7 17.8 9.05 18.75 12.1 25.65 11.15 26.6 11.15 27.6 12.55 28.7 15.5 27.65 18.9 24.95 17.65 20.7" fill="#a64b05" fill-rule="evenodd" stroke="none"/>
      <path d="M3.55 16.7 L4.4 15.95 Q5.25 15.25 7.2 14.7 7.9 14.7 7.1 15.3 10.75 13.6 12.9 14.05 15.65 16.55 15.1 20.7 L14.7 23.45 Q15.9 24.15 16.3 22.8 16.45 20.75 16.75 20.5 17.25 20.25 17.65 20.7 18.9 24.95 15.5 27.65 12.55 28.7 11.15 27.6 11.15 26.6 12.1 25.65 9.05 18.75 5.7 17.8 4.4 17.8 3.2 19.0 L2.0 20.4 3.55 16.7 M7.1 15.3 Q4.8 16.4 3.85 18.0 4.8 16.4 7.1 15.3 M9.75 18.75 Q9.9 20.4 11.35 22.1 13.45 26.35 14.45 20.1 14.75 18.0 13.8 16.5 10.9 16.3 9.75 18.75" fill="#e0a334" fill-rule="evenodd" stroke="none"/>
      <path d="M9.75 18.75 Q10.9 16.3 13.8 16.5 14.75 18.0 14.45 20.1 13.45 26.35 11.35 22.1 9.9 20.4 9.75 18.75" fill="#bd6e14" fill-rule="evenodd" stroke="none"/>
      <path d="M3.55 16.7 L4.4 15.95 Q5.25 15.25 7.2 14.7 7.9 14.7 7.1 15.3 10.75 13.6 12.9 14.05 15.65 16.55 15.1 20.7 L14.7 23.45 Q15.9 24.15 16.3 22.8 16.45 20.75 16.75 20.5 17.25 20.25 17.65 20.7 18.1 21.35 18.4 23.1 18.5 26.0 16.45 28.05 12.05 30.15 9.35 28.1 9.45 26.95 10.65 25.9 L10.65 25.85 Q9.75 21.35 5.95 18.9 3.35 19.9 1.85 22.25 0.75 22.75 1.7 19.65 2.35 17.8 3.55 16.7 M3.85 18.0 Q4.8 16.4 7.1 15.3" fill="none" stroke="#000000" stroke-linecap="round" stroke-linejoin="round" stroke-opacity="0.2509804" stroke-width="0.05"/>
      <path d="M11.9 15.0 L11.9 15.15 10.75 15.6 8.1 16.6 Q8.05 16.5 8.55 15.8 9.05 15.15 10.05 14.9 L11.9 15.05 11.9 15.0" fill="#e0d128" fill-rule="evenodd" stroke="none"/>
    </g>
    <linearGradient gradientTransform="matrix(0.0072, -0.0112, 0.0114, 0.0057, 12.65, 22.0)" gradientUnits="userSpaceOnUse" id="gradient0" spreadMethod="pad" x1="-819.2" x2="819.2">
      <stop offset="0.0" stop-color="#a34f0b"/>
      <stop offset="0.44313725490196076" stop-color="#db9321"/>
      <stop offset="1.0" stop-color="#c06f0e"/>
    </linearGradient>
    <g id="sprite3" transform="matrix(1.0, 0.0, 0.0, 1.0, 0.0, 0.0)">
      <use height="42.7" transform="matrix(1.0, 0.0, 0.0, 1.0, 0.0, 0.0)" width="42.3" xlink:href="#shape3"/>
    </g>
    <g id="shape3" transform="matrix(1.0, 0.0, 0.0, 1.0, 0.0, 0.0)">
      <path d="M29.8 9.55 L39.1 2.4 Q39.75 2.8 38.65 4.2 37.55 5.55 39.25 6.55 40.95 7.5 39.7 8.3 38.45 9.1 37.7 9.25 36.9 9.35 35.65 10.05 34.35 10.7 36.35 12.3 38.3 13.9 36.35 14.75 L32.4 16.35 Q30.35 17.05 29.65 17.75 28.95 18.45 30.85 19.2 32.75 19.9 31.3 20.95 L27.85 22.8 27.7 22.8 27.55 22.9 27.25 22.95 Q23.5 24.4 21.95 25.9 L21.15 27.1 19.85 29.0 16.15 25.35 26.45 12.95 29.8 9.55 M21.35 30.5 L21.4 30.35 21.65 30.8 21.35 30.5" fill="#bfc588" fill-rule="evenodd" stroke="none"/>
      <path d="M39.1 2.4 L39.15 2.4 39.15 2.35 42.3 0.0 42.2 0.3 Q43.1 11.25 33.2 22.5 L27.85 22.8 31.3 20.95 Q32.75 19.9 30.85 19.2 28.95 18.45 29.65 17.75 30.35 17.05 32.4 16.35 L36.35 14.75 Q38.3 13.9 36.35 12.3 34.35 10.7 35.65 10.05 36.9 9.35 37.7 9.25 38.45 9.1 39.7 8.3 40.95 7.5 39.25 6.55 37.55 5.55 38.65 4.2 39.75 2.8 39.1 2.4 M7.9 25.15 L13.65 24.05 14.15 23.6 29.75 9.5 29.8 9.55 26.45 12.95 16.15 25.35 19.85 29.0 19.4 29.3 Q14.45 26.0 13.4 25.55 L13.2 25.45 Q12.65 25.25 7.65 25.35 L7.9 25.15 7.65 25.35 7.6 25.35 6.7 25.35 6.75 25.35 6.9 25.3 7.75 25.15 7.9 25.15 M21.3 30.55 L21.1 30.45 21.3 30.55 21.35 30.5 21.65 30.8 21.3 30.55 M7.75 25.15 L7.6 25.35 7.75 25.15 M6.75 25.35 L6.7 25.35 6.6 25.35 6.75 25.35 M19.85 29.0 L19.8 29.0 19.85 29.0" fill="#f0f2d7" fill-rule="evenodd" stroke="none"/>
      <path d="M13.55 17.05 L14.9 15.7 Q16.55 14.3 17.05 14.8 17.55 15.25 18.25 14.8 L19.7 13.1 Q20.5 11.8 21.95 10.45 23.35 9.1 24.5 9.5 25.65 9.85 26.55 9.15 L28.75 6.85 Q30.0 5.2 30.75 5.0 L32.55 4.6 Q33.6 4.45 34.75 3.7 35.85 2.95 37.0 2.4 38.1 1.8 39.1 2.4 L29.8 9.55 29.75 9.5 14.15 23.6 13.65 24.05 7.9 25.15 12.35 20.95 Q13.7 19.45 13.55 17.05 M39.15 2.4 L38.95 2.3 39.1 2.2 39.15 2.35 39.15 2.4 M7.75 25.15 L6.9 25.3 6.75 25.35 Q8.5 24.15 8.8 24.0 L7.75 25.15 M6.75 25.35 L6.6 25.35 6.7 25.35 5.75 25.55 Q6.9 25.1 6.75 25.35" fill="#e6e9bd" fill-rule="evenodd" stroke="none"/>
      <path d="M39.1 2.4 Q38.1 1.8 37.0 2.4 35.85 2.95 34.75 3.7 33.6 4.45 32.55 4.6 L30.75 5.0 Q30.0 5.2 28.75 6.85 L26.55 9.15 Q25.65 9.85 24.5 9.5 23.35 9.1 21.95 10.45 20.5 11.8 19.7 13.1 L18.25 14.8 Q17.55 15.25 17.05 14.8 16.55 14.3 14.9 15.7 L13.55 17.05 13.9 15.7 Q25.35 5.75 40.8 0.5 L42.3 0.0 39.15 2.35 39.1 2.2 38.95 2.3 39.15 2.4 39.1 2.4" fill="#ffffff" fill-rule="evenodd" stroke="none"/>
      <path d="M27.85 22.8 L33.2 22.5 29.35 23.8 29.2 23.8 29.05 23.9 28.75 23.95 Q25.0 25.4 23.45 26.9 L22.65 28.1 21.4 30.35 21.35 30.5 21.3 30.55 21.25 30.6 12.15 28.7 8.3 27.45 7.9 26.6 Q7.45 25.5 7.65 25.35 12.65 25.25 13.2 25.45 L13.4 25.55 Q14.45 26.0 19.4 29.3 L19.85 29.0 21.15 27.1 21.95 25.9 Q23.5 24.4 27.25 22.95 L27.55 22.9 27.7 22.8 27.85 22.8 M21.3 30.55 L21.1 30.45 21.3 30.55" fill="#828d69" fill-rule="evenodd" stroke="none"/>
      <path d="M42.3 0.0 L40.8 0.5 Q25.35 5.75 13.9 15.7 L13.55 17.05 Q13.7 19.45 12.35 20.95 L7.9 25.15 7.65 25.35 Q7.45 25.5 7.9 26.6 M33.2 22.5 Q43.1 11.25 42.2 0.3 L42.3 0.0 M8.3 27.45 L12.15 28.7 21.25 30.6 21.3 30.55 21.35 30.5 21.4 30.35 22.65 28.1 23.45 26.9 Q25.0 25.4 28.75 23.95 L29.05 23.9 29.2 23.8 29.35 23.8 33.2 22.5 M7.6 25.35 L7.75 25.15" fill="none" stroke="#000000" stroke-linecap="round" stroke-linejoin="round" stroke-opacity="0.2509804" stroke-width="0.05"/>
      <path d="M9.15 23.95 Q10.55 21.0 13.65 18.95 14.25 19.65 14.1 21.0 18.05 18.3 22.75 16.75 22.7 21.2 20.5 25.6 23.35 24.7 26.2 25.2 24.6 28.0 21.25 30.7 23.65 27.3 23.9 25.85 L19.55 26.15 Q20.7 21.9 20.6 18.65 17.2 19.4 13.6 22.05 13.65 20.55 13.1 20.1 11.1 21.25 9.15 23.95 M19.95 35.45 L19.85 35.55 19.8 35.6 18.25 35.6 18.45 34.75 Q18.45 31.45 16.55 28.15 14.6 25.4 14.6 24.9 L16.55 24.95 Q18.5 26.3 19.2 28.35 19.9 30.4 20.15 32.65 20.4 34.75 19.95 35.45" fill="#be5c07" fill-rule="evenodd" stroke="none"/>
      <path d="M9.15 23.95 Q11.1 21.25 13.1 20.1 13.65 20.55 13.6 22.05 17.2 19.4 20.6 18.65 20.7 21.9 19.55 26.15 L23.9 25.85 Q23.65 27.3 21.25 30.7 L22.25 33.8 19.95 35.45 Q20.4 34.75 20.15 32.65 19.9 30.4 19.2 28.35 18.5 26.3 16.55 24.95 L14.6 24.9 Q14.6 25.4 16.55 28.15 18.45 31.45 18.45 34.75 L18.25 35.6 6.6 27.3 6.75 27.1 7.65 25.85 9.15 23.95" fill="url(#gradient1)" fill-rule="evenodd" stroke="none"/>
      <path d="M21.25 30.7 Q24.6 28.0 26.2 25.2 23.35 24.7 20.5 25.6 22.7 21.2 22.75 16.75 18.05 18.3 14.1 21.0 14.25 19.65 13.65 18.95 10.55 21.0 9.15 23.95 M21.25 30.7 L22.25 33.8 M6.6 27.3 L6.75 27.1 7.65 25.85 9.15 23.95" fill="none" stroke="#000000" stroke-linecap="round" stroke-linejoin="round" stroke-opacity="0.2509804" stroke-width="0.05"/>
      <path d="M19.7 19.55 Q20.15 18.95 19.85 19.6 L18.75 20.9 17.95 21.8 17.75 22.5 17.05 23.15 16.6 23.1 16.25 22.95 16.25 23.5 16.3 23.85 16.2 24.35 Q16.0 24.6 15.25 23.45 L15.05 22.5 Q15.05 22.3 15.5 22.2 15.9 22.05 16.05 22.05 L16.35 22.1 16.55 22.15 17.55 21.05 Q18.4 20.25 20.0 19.15 19.2 20.1 19.7 19.55" fill="#ffff37" fill-rule="evenodd" stroke="none"/>
      <path d="M20.4 27.15 Q20.55 26.85 20.85 26.7 21.55 26.05 22.4 25.95 L22.95 25.9 23.35 26.3 23.3 26.9 22.85 27.35 Q22.2 27.95 21.3 28.1 L20.75 28.15 20.4 27.75 20.4 27.15" fill="#be5c07" fill-rule="evenodd" stroke="none"/>
      <path d="M21.0 27.15 L21.2 26.9 22.1 26.45 22.4 26.45 Q22.6 26.5 22.65 26.65 L22.55 27.0 22.35 27.25 21.45 27.7 21.15 27.7 20.95 27.5 Q20.9 27.35 21.0 27.15" fill="#530000" fill-rule="evenodd" stroke="none"/>
      <path d="M21.0 27.15 Q20.9 27.35 20.95 27.5 L21.15 27.7 21.45 27.7 22.35 27.25 22.55 27.0 22.65 26.65 Q22.6 26.5 22.4 26.45 L22.1 26.45 21.2 26.9 21.0 27.15 Z" fill="none" stroke="#000000" stroke-linecap="round" stroke-linejoin="round" stroke-opacity="0.3019608" stroke-width="0.05"/>
      <path d="M10.9 22.75 Q10.85 22.55 11.05 22.3 L11.9 20.95 12.35 20.55 12.7 20.45 12.9 20.7 12.7 21.2 11.85 22.55 11.45 22.9 11.05 23.05 Q10.9 23.0 10.9 22.75" fill="#be5c07" fill-rule="evenodd" stroke="none"/>
      <path d="M11.25 22.4 L11.35 22.15 11.85 21.4 12.1 21.15 12.3 21.1 12.4 21.25 12.25 21.5 11.75 22.25 11.55 22.5 11.35 22.55 11.25 22.4" fill="#530000" fill-rule="evenodd" stroke="none"/>
      <path d="M11.25 22.4 L11.35 22.55 11.55 22.5 11.75 22.25 12.25 21.5 12.4 21.25 12.3 21.1 12.1 21.15 11.85 21.4 11.35 22.15 11.25 22.4 Z" fill="none" stroke="#000000" stroke-linecap="round" stroke-linejoin="round" stroke-opacity="0.3019608" stroke-width="0.05"/>
      <path d="M16.25 39.0 L16.55 40.2 Q10.1 39.9 6.85 37.4 3.7 35.1 3.55 31.7 L4.4 30.7 Q4.6 34.0 7.65 36.3 10.65 38.55 16.25 39.0" fill="#be5c07" fill-rule="evenodd" stroke="none"/>
      <path d="M16.25 39.0 Q10.65 38.55 7.65 36.3 4.6 34.0 4.4 30.7 7.15 27.7 10.1 27.2 14.35 31.6 16.25 39.0" fill="#874000" fill-rule="evenodd" stroke="none"/>
      <path d="M4.4 30.7 L3.55 31.7 Q3.7 35.1 6.85 37.4 10.1 39.9 16.55 40.2 L16.25 39.0 Q10.65 38.55 7.65 36.3 4.6 34.0 4.4 30.7 7.15 27.7 10.1 27.2 14.35 31.6 16.25 39.0" fill="none" stroke="#000000" stroke-linecap="round" stroke-linejoin="round" stroke-opacity="0.2509804" stroke-width="0.05"/>
      <path d="M11.45 29.0 L8.55 31.5 5.2 35.0 Q2.6 37.85 2.7 38.35 2.75 38.7 3.05 38.65 4.5 38.6 10.95 32.4 L13.75 29.65 13.9 29.75 14.5 30.3 8.35 35.85 Q4.0 39.75 2.75 40.1 L1.05 40.25 0.65 39.9 Q2.15 37.25 7.65 31.9 L10.2 29.35 Q10.95 29.0 11.3 29.0 L11.45 29.0 M4.25 36.5 L4.35 36.3 4.35 36.35 4.25 36.5" fill="#393c1d" fill-rule="evenodd" stroke="none"/>
      <path d="M13.75 29.65 L10.95 32.4 Q4.5 38.6 3.05 38.65 2.75 38.7 2.7 38.35 2.6 37.85 5.2 35.0 L8.55 31.5 11.45 29.0 Q12.15 29.0 13.45 29.55 L13.5 29.6 13.75 29.65 M4.25 36.5 L4.35 36.35 4.35 36.3 4.25 36.5" fill="#4b5437" fill-rule="evenodd" stroke="none"/>
      <path d="M0.65 39.9 L1.05 40.25 2.75 40.1 Q4.0 39.75 8.35 35.85 L14.5 30.3 Q15.15 30.95 15.3 31.9 L15.3 32.6 13.2 34.55 Q4.85 42.3 2.3 42.65 0.3 42.85 0.05 41.8 -0.15 41.2 0.65 39.9" fill="#202211" fill-rule="evenodd" stroke="none"/>
      <path d="M22.0 30.35 Q22.75 31.05 23.5 33.4 24.1 37.2 21.75 40.25 16.4 43.7 12.45 41.5 12.4 39.95 13.85 38.4 L13.8 38.35 Q11.8 32.65 6.4 30.1 3.15 31.8 1.55 35.15 0.2 36.05 0.9 31.85 1.4 29.25 2.85 27.6 L1.45 32.8 2.8 30.7 Q4.1 28.85 5.85 28.7 10.4 29.35 15.65 37.85 14.6 39.3 14.75 40.6 16.85 41.75 20.5 39.85 24.45 35.7 22.0 30.35" fill="#be5c07" fill-rule="evenodd" stroke="none"/>
      <path d="M2.85 27.6 L3.85 26.5 Q4.75 25.4 7.25 24.35 8.2 24.2 7.25 25.15 11.7 22.3 14.65 22.5 18.7 25.25 18.7 30.85 L18.7 34.55 Q20.35 35.15 20.7 33.4 20.5 30.65 20.85 30.2 21.45 29.8 22.0 30.35 24.45 35.7 20.5 39.85 16.85 41.75 14.75 40.6 14.6 39.3 15.65 37.85 10.4 29.35 5.85 28.7 4.1 28.85 2.8 30.7 L1.45 32.8 2.85 27.6 M7.25 25.15 Q4.45 27.05 3.4 29.25 4.45 27.05 7.25 25.15 M11.3 29.25 Q11.8 31.35 14.05 33.3 17.55 38.5 17.75 30.15 17.75 27.35 16.3 25.5 12.4 25.75 11.3 29.25" fill="#ffc747" fill-rule="evenodd" stroke="none"/>
      <path d="M11.3 29.25 Q12.4 25.75 16.3 25.5 17.75 27.35 17.75 30.15 17.55 38.5 14.05 33.3 11.8 31.35 11.3 29.25" fill="#d8871c" fill-rule="evenodd" stroke="none"/>
      <path d="M2.85 27.6 L3.85 26.5 Q4.75 25.4 7.25 24.35 8.2 24.2 7.25 25.15 11.7 22.3 14.65 22.5 18.7 25.25 18.7 30.85 L18.7 34.55 Q20.35 35.15 20.7 33.4 20.5 30.65 20.85 30.2 21.45 29.8 22.0 30.35 22.75 31.05 23.5 33.4 24.1 37.2 21.75 40.25 16.4 43.7 12.45 41.5 12.4 39.95 13.85 38.4 L13.8 38.35 Q11.8 32.65 6.4 30.1 3.15 31.8 1.55 35.15 0.2 36.05 0.9 31.85 1.4 29.25 2.85 27.6 M3.4 29.25 Q4.45 27.05 7.25 25.15" fill="none" stroke="#000000" stroke-linecap="round" stroke-linejoin="round" stroke-opacity="0.2509804" stroke-width="0.05"/>
      <path d="M13.5 23.9 L13.5 24.05 12.05 24.9 8.75 26.65 9.25 25.55 Q9.8 24.6 11.05 24.1 L13.45 23.95 13.5 23.9" fill="#ffff37" fill-rule="evenodd" stroke="none"/>
    </g>
    <linearGradient gradientTransform="matrix(0.0075, -0.016, 0.0159, 0.0055, 15.65, 33.05)" gradientUnits="userSpaceOnUse" id="gradient1" spreadMethod="pad" x1="-819.2" x2="819.2">
      <stop offset="0.0" stop-color="#ba6110"/>
      <stop offset="0.44313725490196076" stop-color="#fab42d"/>
      <stop offset="1.0" stop-color="#db8814"/>
    </linearGradient>
    <g id="shape4" transform="matrix(1.0, 0.0, 0.0, 1.0, -1.2, -1.0)">
      <path d="M43.4 1.3 Q44.3 12.25 34.4 23.5 L30.55 24.8 30.4 24.8 30.25 24.9 29.95 24.95 Q28.4 25.55 27.2 26.2 L27.4 26.2 Q25.95 28.75 23.05 31.25 L23.2 31.35 Q23.95 32.05 24.7 34.4 L24.75 34.7 Q25.75 33.65 27.2 32.95 L27.55 31.4 27.95 30.45 Q37.5 24.15 49.65 21.8 L50.8 21.6 50.65 21.75 Q50.25 30.05 41.7 37.45 L38.65 38.05 38.55 38.05 38.45 38.1 38.2 38.1 36.05 38.75 36.2 38.8 Q34.8 40.6 32.35 42.15 L32.5 42.3 Q32.95 42.95 33.25 44.7 33.35 47.6 31.3 49.65 26.9 51.75 24.2 49.7 24.25 49.0 24.75 48.35 22.95 47.8 21.7 46.95 17.8 49.4 16.45 49.4 14.95 49.35 14.85 48.6 14.8 48.1 15.5 47.2 16.45 45.9 19.0 43.85 L18.75 43.15 17.05 43.35 16.7 43.85 Q16.1 44.15 16.1 43.3 14.8 43.15 13.65 42.5 13.6 41.65 14.05 40.8 11.7 40.35 9.95 39.55 5.3 43.4 3.5 43.65 1.5 43.85 1.25 42.8 1.05 42.2 1.85 40.9 2.85 39.1 5.8 36.05 4.95 34.7 4.8 33.2 3.55 34.45 2.75 36.15 1.4 37.05 2.1 32.85 2.6 30.25 4.05 28.6 L5.05 27.5 Q5.95 26.4 8.45 25.35 9.2 25.25 8.8 25.8 L10.0 25.0 9.65 25.45 10.25 25.1 10.35 24.95 Q11.7 22.15 14.55 20.15 L14.75 18.05 15.1 16.7 Q26.55 6.75 42.0 1.5 L43.5 1.0 43.4 1.3" fill="#ff0000" fill-rule="evenodd" stroke="none"/>
    </g>
    <g id="sprite4" transform="matrix(1.0, 0.0, 0.0, 1.0, 0.0, 0.0)">
      <use height="37.7" transform="matrix(1.0, 0.0, 0.0, 1.0, 0.0, 0.0)" width="37.7" xlink:href="#shape5"/>
    </g>
    <g id="shape5" transform="matrix(1.0, 0.0, 0.0, 1.0, 0.0, 0.0)">
      <path d="M37.7 18.85 Q37.7 26.65 32.15 32.15 26.65 37.7 18.85 37.7 11.05 37.7 5.5 32.15 0.0 26.65 0.0 18.85 0.0 11.05 5.5 5.5 11.05 0.0 18.85 0.0 26.65 0.0 32.15 5.5 37.7 11.05 37.7 18.85" fill="url(#gradient2)" fill-rule="evenodd" stroke="none"/>
    </g>
    <radialGradient cx="0" cy="0" gradientTransform="matrix(0.0244, 0.0, 0.0, 0.0244, 18.85, 18.85)" gradientUnits="userSpaceOnUse" id="gradient2" r="819.2" spreadMethod="pad">
      <stop offset="0.0" stop-color="#ffffcc"/>
      <stop offset="1.0" stop-color="#ffffcc" stop-opacity="0.0"/>
    </radialGradient>
  </defs>
</svg>
