<?xml version="1.0" encoding="UTF-8" standalone="no"?>
<svg xmlns:xlink="http://www.w3.org/1999/xlink" height="440.0px" width="440.0px" xmlns="http://www.w3.org/2000/svg">
  <g transform="matrix(10.0, 0.0, 0.0, 10.0, 0.0, 0.0)">
    <use height="44.0" transform="matrix(1.0, 0.0, 0.0, 1.0, 0.0, 0.0)" width="44.0" xlink:href="#shape0"/>
  </g>
  <defs>
    <g id="shape0" transform="matrix(1.0, 0.0, 0.0, 1.0, 0.0, 0.0)">
      <path d="M44.0 44.0 L0.0 44.0 0.0 0.0 44.0 0.0 44.0 44.0" fill="#33cc33" fill-opacity="0.0" fill-rule="evenodd" stroke="none"/>
      <path d="M22.95 22.5 L21.25 22.4 23.5 22.95 22.55 23.1 22.45 23.15 Q21.35 25.15 16.45 29.3 L12.65 31.2 15.05 28.4 31.4 7.25 Q34.6 3.5 40.75 3.2 L41.85 3.1 Q38.65 4.25 37.3 5.25 35.7 6.3 33.0 9.75 L29.0 14.65 28.35 14.8 28.7 15.05 28.45 15.4 27.6 15.9 27.7 16.55 24.75 20.25 22.45 20.35 24.15 20.75 24.05 21.1 23.0 21.15 Q23.4 21.4 23.75 21.5 L22.95 22.5" fill="#62a3ac" fill-rule="evenodd" stroke="none"/>
      <path d="M28.5 4.75 L35.25 3.8 Q32.75 4.5 31.7 5.8 L31.5 5.85 24.15 15.5 Q20.25 21.0 14.85 26.55 L11.25 30.15 10.4 29.55 Q11.85 26.05 11.95 24.2 L12.9 23.4 12.9 23.3 14.3 23.2 Q13.2 23.05 13.55 22.7 L15.35 20.6 15.95 20.6 17.4 20.8 15.65 20.2 15.95 19.75 16.9 19.75 Q16.1 19.5 16.65 19.1 L18.9 16.3 Q19.25 15.5 20.25 15.7 L19.45 15.5 23.3 10.1 Q25.55 7.15 27.75 5.35 L28.5 4.75 M41.85 3.1 L38.1 6.3 Q36.5 7.7 33.85 10.55 L23.75 22.45 22.95 22.5 23.75 21.5 Q23.4 21.4 23.0 21.15 L24.05 21.1 24.15 20.75 22.45 20.35 24.75 20.25 27.7 16.55 27.6 15.9 28.45 15.4 28.7 15.05 28.35 14.8 29.0 14.65 33.0 9.75 Q35.7 6.3 37.3 5.25 38.65 4.25 41.85 3.1 M23.5 22.95 L23.2 23.2 17.8 29.7 16.45 29.3 Q21.35 25.15 22.45 23.15 L22.55 23.1 23.5 22.95 M20.25 15.7 Q18.95 18.0 20.5 18.3 23.25 16.65 27.4 9.9 26.25 8.7 23.2 12.25 21.15 14.35 20.25 15.7 M16.3 24.25 Q18.1 23.6 19.25 21.1 13.7 22.25 16.3 24.25" fill="#c4dcdf" fill-rule="evenodd" stroke="none"/>
      <path d="M27.2 4.85 L30.0 3.7 28.5 4.75 27.2 4.85 28.5 4.75 27.75 5.35 Q25.55 7.15 23.3 10.1 L19.45 15.5 20.25 15.7 Q19.25 15.5 18.9 16.3 L16.65 19.1 Q16.1 19.5 16.9 19.75 L15.95 19.75 15.65 20.2 17.4 20.8 15.95 20.6 15.35 20.6 13.55 22.7 Q13.2 23.05 14.3 23.2 L12.9 23.3 12.9 23.4 11.95 24.2 Q11.85 26.05 10.4 29.55 11.55 24.85 11.3 24.4 10.95 23.95 12.95 21.75 L21.8 10.4 Q24.5 6.9 27.2 4.85 M35.25 3.8 L40.35 2.9 40.75 2.95 40.85 2.9 41.85 3.1 40.75 3.2 Q34.6 3.5 31.4 7.25 L15.05 28.4 12.65 31.2 11.25 30.15 14.85 26.55 Q20.25 21.0 24.15 15.5 L31.5 5.85 31.7 5.8 Q32.75 4.5 35.25 3.8 L40.8 3.0 35.25 3.8 M40.75 3.2 L40.8 3.0 40.75 3.2 M41.85 3.1 L40.8 3.0 41.85 3.1 M40.8 3.0 L40.75 2.95 40.8 3.0" fill="#fbfdfd" fill-rule="evenodd" stroke="none"/>
      <path d="M20.25 15.7 Q21.15 14.35 23.2 12.25 26.25 8.7 27.4 9.9 23.25 16.65 20.5 18.3 18.95 18.0 20.25 15.7 M16.3 24.25 Q13.7 22.25 19.25 21.1 18.1 23.6 16.3 24.25" fill="#91bac4" fill-rule="evenodd" stroke="none"/>
      <path d="M40.8 3.0 L40.75 3.2 M40.75 2.95 L40.8 3.0" fill="none" stroke="#d6d9e2" stroke-linecap="round" stroke-linejoin="round" stroke-width="0.05"/>
      <path d="M40.75 3.2 Q34.6 3.5 31.4 7.25 L15.05 28.4" fill="none" stroke="#4a878a" stroke-linecap="round" stroke-linejoin="round" stroke-width="0.05"/>
      <path d="M28.5 4.75 L35.25 3.8 M41.85 3.1 L38.1 6.3 Q36.5 7.7 33.85 10.55 L23.75 22.45 22.95 22.5 21.25 22.4 23.5 22.95 23.2 23.2 17.8 29.7 16.45 29.3 12.65 31.2 11.25 30.15 10.4 29.55 Q11.55 24.85 11.3 24.4 10.95 23.95 12.95 21.75 L21.8 10.4 Q24.5 6.9 27.2 4.85 L28.5 4.75 M40.8 3.0 L41.85 3.1 M40.8 3.0 L35.25 3.8" fill="none" stroke="#000000" stroke-linecap="round" stroke-linejoin="round" stroke-opacity="0.2" stroke-width="0.25"/>
      <path d="M31.25 5.5 Q26.35 4.65 20.65 7.3 14.85 10.0 11.45 14.65 8.1 19.25 9.05 23.15 10.1 27.0 15.0 27.8 19.9 28.65 25.75 26.05 31.55 23.35 34.9 18.7 38.3 14.1 37.3 10.2 36.15 6.4 31.25 5.5" fill="url(#gradient0)" fill-rule="evenodd" stroke="none"/>
      <path d="M13.25 27.7 L13.35 27.8 13.5 28.05 13.25 28.55 12.85 28.85 12.5 28.8 12.45 28.45 12.65 28.05 12.95 27.75 13.0 27.75 13.25 27.7" fill="#e9f2f3" fill-rule="evenodd" stroke="none"/>
      <path d="M11.6 29.75 L11.55 29.15 Q11.55 28.65 11.95 28.1 L12.9 27.35 13.35 27.3 13.7 27.45 Q14.0 27.7 14.0 28.25 L13.5 29.35 12.6 30.0 11.8 29.95 11.6 29.75 M13.55 27.05 L13.5 27.05 13.55 27.0 13.6 26.95 13.55 27.05 M12.95 27.75 L12.45 28.1 12.2 28.75 Q12.2 29.05 12.35 29.15 L12.75 29.25 13.3 28.85 13.6 28.2 13.4 27.8 13.25 27.7 13.0 27.75 12.95 27.75" fill="#62a3ac" fill-rule="evenodd" stroke="none"/>
      <path d="M13.25 27.7 L13.4 27.8 13.6 28.2 13.3 28.85 12.75 29.25 12.35 29.15 Q12.2 29.05 12.2 28.75 L12.45 28.1 12.95 27.75 12.65 28.05 12.45 28.45 12.5 28.8 12.85 28.85 13.25 28.55 13.5 28.05 13.35 27.8 13.25 27.7" fill="#83b7be" fill-rule="evenodd" stroke="none"/>
      <path d="M3.2 41.25 Q2.3 41.0 3.1 39.05 8.1 33.45 12.25 27.25 12.4 27.1 12.6 27.05 L12.65 27.05 13.1 26.85 13.5 26.85 13.55 26.85 13.7 26.8 13.75 26.8 13.75 26.85 13.55 27.0 13.5 27.05 13.55 27.05 13.35 27.3 12.9 27.35 11.95 28.1 Q11.55 28.65 11.55 29.15 L11.6 29.75 9.35 32.5 8.95 33.05 Q8.75 33.7 9.05 34.3 L8.55 33.6 8.45 33.65 8.3 33.85 8.15 34.05 8.05 34.4 Q7.85 34.4 7.75 34.55 7.85 34.4 8.05 34.4 L7.9 35.2 7.8 35.6 7.75 34.55 6.55 36.2 6.15 36.7 6.1 37.0 5.75 38.05 5.6 37.55 Q4.05 39.65 3.2 41.25 M8.95 33.05 L8.8 33.25 8.55 33.6 8.8 33.25 8.95 33.05" fill="#666666" fill-rule="evenodd" stroke="none"/>
      <path d="M13.75 26.8 L13.8 26.8 13.8 26.75 14.15 27.0 14.5 27.45 14.55 28.2 14.5 28.55 14.4 28.95 12.75 31.05 12.25 31.7 Q8.4 35.95 5.15 40.9 L3.2 41.25 Q4.05 39.65 5.6 37.55 L5.75 38.05 6.1 37.0 6.15 36.7 6.55 36.2 7.75 34.55 7.8 35.6 7.9 35.2 8.05 34.4 8.15 34.05 8.3 33.85 8.45 33.65 8.55 33.6 9.05 34.3 Q8.75 33.7 8.95 33.05 L9.35 32.5 11.6 29.75 11.8 29.95 12.6 30.0 13.5 29.35 14.0 28.25 Q14.0 27.7 13.7 27.45 L13.35 27.3 13.55 27.05 13.6 26.95 13.55 27.0 13.75 26.85 13.75 26.8" fill="#1b1b1b" fill-rule="evenodd" stroke="none"/>
      <path d="M3.2 41.25 Q2.3 41.0 3.1 39.05 8.1 33.45 12.25 27.25 12.4 27.1 12.6 27.05 L12.65 27.05 13.1 26.85 13.5 26.85 13.55 26.85 13.7 26.8 13.75 26.8 13.8 26.8 13.8 26.75 14.15 27.0 14.5 27.45 14.55 28.2 14.5 28.55 14.4 28.95 12.75 31.05 12.6 31.4 12.6 31.45 12.25 31.7 Q8.4 35.95 5.15 40.9 L3.2 41.25 M5.6 37.55 L5.75 38.05 6.1 37.0 6.15 36.7 6.55 36.2 M7.75 34.55 Q7.85 34.4 8.05 34.4 L8.15 34.05 8.3 33.85 8.45 33.65 8.55 33.6 8.8 33.25 8.95 33.05 9.35 32.5 11.6 29.75 11.55 29.15 Q11.55 28.65 11.95 28.1 L12.9 27.35 13.35 27.3 13.55 27.05 13.5 27.05 13.55 27.0 13.75 26.85 13.75 26.8 M11.6 29.75 L11.8 29.95 12.6 30.0 13.5 29.35 14.0 28.25 Q14.0 27.7 13.7 27.45 L13.35 27.3 M12.75 31.05 L12.25 31.7 M8.95 33.05 Q8.75 33.7 9.05 34.3 L8.55 33.6 M8.05 34.4 L7.9 35.2 7.8 35.6 7.75 34.55" fill="none" stroke="#000000" stroke-linecap="round" stroke-linejoin="round" stroke-opacity="0.2" stroke-width="0.25"/>
      <path d="M13.85 26.2 Q12.95 26.1 11.85 26.65 10.8 27.25 10.25 28.2 9.7 29.1 9.9 29.8 10.1 30.5 11.1 30.65 L13.05 30.1 Q14.15 29.55 14.7 28.65 15.3 27.75 15.05 27.0 14.8 26.3 13.85 26.2" fill="url(#gradient1)" fill-rule="evenodd" stroke="none"/>
    </g>
    <radialGradient cx="0" cy="0" gradientTransform="matrix(0.0129, -0.0176, -0.0185, -0.0032, 23.1, 16.7)" gradientUnits="userSpaceOnUse" id="gradient0" r="819.2" spreadMethod="pad">
      <stop offset="0.0" stop-color="#ffffde" stop-opacity="0.52156866"/>
      <stop offset="0.4117647058823529" stop-color="#ffffcc" stop-opacity="0.0"/>
    </radialGradient>
    <radialGradient cx="0" cy="0" gradientTransform="matrix(0.0022, -0.0035, -0.0035, -4.0E-4, 12.45, 28.4)" gradientUnits="userSpaceOnUse" id="gradient1" r="819.2" spreadMethod="pad">
      <stop offset="0.0" stop-color="#ffffde" stop-opacity="0.52156866"/>
      <stop offset="0.4117647058823529" stop-color="#ffffcc" stop-opacity="0.0"/>
    </radialGradient>
  </defs>
</svg>
