<?xml version="1.0" encoding="UTF-8" standalone="no"?>
<svg xmlns:xlink="http://www.w3.org/1999/xlink" height="520.0px" width="520.0px" xmlns="http://www.w3.org/2000/svg">
  <g transform="matrix(10.0, 0.0, 0.0, 10.0, 0.0, 0.0)">
    <use height="52.0" transform="matrix(1.0, 0.0, 0.0, 1.0, 0.0, 0.0)" width="52.0" xlink:href="#shape0"/>
    <use height="9.9" transform="matrix(-1.0951, -1.1182, -1.0526, 1.334, 49.4896, 21.0086)" width="6.75" xlink:href="#sprite0"/>
    <use height="8.85" transform="matrix(0.3802, -0.8934, -0.8518, -0.5876, 40.9715, 36.7691)" width="10.85" xlink:href="#sprite1"/>
    <use height="11.55" transform="matrix(-0.1273, 2.1073, -1.9554, -0.5205, 49.4981, 21.0058)" width="8.1" xlink:href="#sprite4"/>
    <use height="8.85" transform="matrix(0.5133, 1.507, -1.2049, 0.4518, 40.9934, 15.3931)" width="10.85" xlink:href="#sprite1"/>
    <use height="9.9" transform="matrix(0.6728, 2.069, -1.7665, 0.1254, 43.3926, 11.364)" width="6.75" xlink:href="#sprite0"/>
    <use height="8.85" transform="matrix(-1.3786, -1.3796, -0.8115, 1.188, 49.4368, 17.4953)" width="10.85" xlink:href="#sprite1"/>
    <use height="9.9" transform="matrix(0.9937, 1.3894, -1.3632, 0.9232, 35.8022, 4.3926)" width="6.75" xlink:href="#sprite0"/>
    <use height="8.85" transform="matrix(-1.2238, -1.2973, -1.5378, 1.0736, 42.9151, 17.7341)" width="10.85" xlink:href="#sprite1"/>
    <use height="33.05" transform="matrix(1.0, 0.0, 0.0, 1.0, 4.0, 14.45)" width="33.5" xlink:href="#shape6"/>
    <use height="43.6" transform="matrix(0.5603, 0.0, 0.0, 0.6422, 19.4921, 6.1833)" width="47.25" xlink:href="#sprite5"/>
    <use height="43.6" transform="matrix(0.4779, -0.4779, 0.2748, 0.2748, 8.0251, 30.8127)" width="47.25" xlink:href="#sprite5"/>
  </g>
  <defs>
    <g id="shape0" transform="matrix(1.0, 0.0, 0.0, 1.0, 0.0, 0.0)">
      <path d="M52.0 52.0 L0.0 52.0 0.0 0.0 52.0 0.0 52.0 52.0" fill="#43adca" fill-opacity="0.0" fill-rule="evenodd" stroke="none"/>
      <path d="M48.4 19.9 L48.15 21.45 47.65 21.5 47.9 21.75 Q47.65 22.75 47.9 23.05 46.85 22.5 46.8 21.9 46.55 21.65 46.8 21.3 L47.3 20.0 48.4 19.9 M45.2 22.65 L45.45 22.35 Q45.5 21.75 45.75 22.0 L46.05 22.3 Q46.55 22.2 46.3 23.2 L46.3 23.75 Q45.5 24.2 45.2 22.65 M47.6 19.1 Q47.55 19.65 46.5 21.0 46.0 21.65 46.0 21.1 45.95 20.45 47.0 19.1 47.3 18.8 47.6 19.1 M34.95 6.0 L35.2 6.35 Q35.55 6.1 35.3 5.75 L36.8 5.8 Q37.05 6.15 36.6 6.95 L35.35 7.3 Q35.0 7.5 34.75 7.15 34.2 7.05 33.75 5.75 L34.95 6.0" fill="#000099" fill-rule="evenodd" stroke="none"/>
      <path d="M44.05 13.45 Q43.45 12.95 42.4 12.5 42.55 13.05 42.15 13.05 L42.0 12.5 Q40.9 12.05 40.75 11.55 L40.85 12.4 Q40.35 11.25 40.5 10.35 L38.25 7.35 37.6 7.2 37.5 6.85 Q36.95 6.7 35.55 7.65 34.9 8.1 35.45 8.2 L35.6 8.25 35.5 8.4 35.25 9.0 Q34.85 9.15 34.45 9.45 L34.1 9.1 33.75 8.75 33.85 8.8 34.2 8.55 Q34.8 8.65 34.55 8.3 L34.35 7.95 Q34.45 7.4 33.5 7.5 L32.9 7.4 Q32.75 7.65 32.85 7.95 L32.1 7.35 31.5 7.95 Q30.4 7.85 29.4 8.35 L28.6 9.05 Q27.8 9.6 27.3 10.55 L27.25 10.65 Q26.25 9.2 24.6 8.05 L21.9 9.25 21.9 11.1 21.6 11.75 21.6 13.25 22.0 15.2 22.35 14.9 22.95 16.3 23.15 16.7 22.25 16.4 17.25 27.25 13.65 33.05 13.75 34.9 12.1 37.3 11.6 36.9 11.35 37.7 10.9 36.5 9.55 35.55 Q8.5 34.95 7.8 34.4 L6.15 35.75 Q5.3 37.5 6.65 39.6 L8.5 39.8 4.85 39.9 4.25 41.4 8.35 41.7 5.6 42.25 5.75 45.3 7.2 44.8 10.3 47.25 11.5 45.7 Q12.85 47.35 14.3 46.45 L16.65 45.65 16.7 45.6 Q17.55 44.6 16.8 43.4 L15.2 41.8 14.95 41.7 15.25 41.45 35.2 34.05 35.2 34.35 35.4 34.4 37.1 33.7 38.6 35.45 39.05 34.2 40.95 35.4 40.55 34.25 40.7 34.1 41.0 34.05 41.3 33.65 41.4 33.2 41.55 33.1 41.8 33.1 41.8 32.95 42.0 32.8 41.55 31.05 42.45 30.95 43.4 29.7 44.6 30.1 44.3 31.4 45.4 30.95 46.1 32.5 46.65 31.8 47.9 32.8 47.3 30.8 48.9 31.4 48.45 30.6 Q48.05 30.05 47.45 29.9 L47.45 29.7 48.05 29.75 48.45 29.95 Q48.1 28.9 46.9 28.35 L46.9 28.25 46.7 28.2 46.7 27.95 46.05 26.95 45.85 26.9 45.85 26.75 45.45 26.8 45.35 26.8 45.2 26.4 45.2 27.15 44.75 27.45 44.4 27.35 43.85 26.5 45.25 26.25 48.75 25.5 45.25 26.0 45.25 25.8 44.75 24.4 44.75 24.3 44.95 24.2 44.95 23.0 44.6 22.65 44.55 22.45 44.45 22.5 44.4 22.45 44.15 22.15 43.95 22.85 43.9 22.85 43.85 22.25 43.75 21.85 44.1 21.55 44.65 20.1 44.9 20.0 Q44.35 20.9 44.15 22.15 L44.65 22.1 Q45.95 20.45 45.95 19.25 L45.25 19.55 46.1 17.15 45.4 16.05 45.3 15.45 44.7 14.55 43.95 14.1 44.05 13.45 M41.1 13.25 L41.4 13.6 41.7 14.0 41.15 14.15 41.15 14.1 41.15 13.8 41.1 13.25 M43.2 21.3 L43.45 20.55 43.8 20.45 43.4 21.25 43.35 21.2 42.85 22.45 42.9 22.25 42.7 22.2 42.7 22.15 43.15 21.35 43.2 21.3 M41.3 23.2 L40.4 23.4 40.35 23.4 40.75 22.75 40.9 22.55 41.3 23.2 M41.65 24.2 L41.85 24.35 41.75 24.25 41.65 24.2 M45.2 22.65 Q45.5 24.2 46.3 23.75 L46.3 23.2 Q46.55 22.2 46.05 22.3 L45.75 22.0 Q45.5 21.75 45.45 22.35 L45.2 22.65 M48.4 19.9 L47.3 20.0 46.8 21.3 Q46.55 21.65 46.8 21.9 46.85 22.5 47.9 23.05 47.65 22.75 47.9 21.75 L47.65 21.5 48.15 21.45 48.4 19.9 M47.6 19.1 Q47.55 19.65 46.5 21.0 46.0 21.65 46.0 21.1 45.95 20.45 47.0 19.1 47.3 18.8 47.6 19.1 M43.85 28.85 L44.5 28.55 44.25 28.15 43.85 28.85 M34.95 6.0 L35.2 6.35 Q35.55 6.1 35.3 5.75 L36.8 5.8 Q37.05 6.15 36.6 6.95 L35.35 7.3 Q35.0 7.5 34.75 7.15 34.2 7.05 33.75 5.75 L34.95 6.0 M34.9 10.05 L35.0 10.15 35.05 10.15 35.05 10.1 35.05 10.0 34.9 10.05 M34.8 20.6 L34.9 20.65 35.05 20.75 35.05 20.7 35.7 20.0 34.65 20.3 34.8 20.6 M7.05 36.65 Q6.45 37.6 7.4 38.8 L7.6 38.8 10.65 39.3 10.9 39.0 10.7 38.8 10.75 38.5 9.9 36.8 8.9 36.1 7.8 35.55 7.05 36.65 M14.2 42.3 L14.2 42.35 14.1 42.45 12.1 44.9 Q12.9 45.95 14.1 45.35 L15.6 45.1 15.7 45.0 Q16.3 44.4 15.85 43.7 15.75 43.25 15.2 42.75 L14.3 42.2 14.2 42.3" fill="none" stroke="#000000" stroke-linecap="round" stroke-linejoin="round" stroke-opacity="0.3019608" stroke-width="1.5"/>
      <path d="M37.25 33.3 L34.4 28.9 33.35 24.85 33.3 23.25 28.15 18.35 26.0 14.7 30.05 17.05 34.7 22.45 37.05 26.8 37.25 33.3" fill="#ada088" fill-rule="evenodd" stroke="none"/>
      <path d="M26.0 14.7 L30.05 17.05 34.7 22.45 37.05 26.8 37.25 33.3" fill="none" stroke="#000000" stroke-linecap="round" stroke-linejoin="round" stroke-opacity="0.3019608" stroke-width="0.5"/>
    </g>
    <g id="sprite0" transform="matrix(1.0, 0.0, 0.0, 1.0, 5.35, 10.1)">
      <use height="9.9" transform="matrix(1.0, 0.0, 0.0, 1.0, -5.35, -10.1)" width="6.75" xlink:href="#shape1"/>
    </g>
    <g id="shape1" transform="matrix(1.0, 0.0, 0.0, 1.0, 5.35, 10.1)">
      <path d="M-3.1 -7.35 Q-3.1 -7.1 -3.6 -6.6 -4.1 -6.35 -4.35 -6.85 L-3.85 -7.35 -3.35 -7.35 -3.1 -7.35 -3.35 -7.6 Q-3.35 -8.85 -2.85 -9.35 L-2.6 -8.85 Q-2.6 -8.1 -3.1 -7.35 M-3.85 -7.85 L-3.85 -7.6 Q-4.6 -7.1 -4.85 -7.6 L-4.6 -7.85 Q-4.35 -8.35 -4.1 -8.1 L-3.85 -8.1 Q-3.6 -8.1 -3.85 -7.85 L-4.1 -8.1 -3.85 -7.85 M-4.35 -8.6 Q-4.6 -8.35 -5.35 -8.6 -5.1 -8.6 -4.85 -9.1 L-4.6 -9.1 -4.85 -9.35 -4.35 -10.1 -3.85 -9.6 -4.1 -8.85 Q-4.1 -8.6 -4.35 -8.6 M-3.6 -10.1 L-3.35 -9.85 Q-3.35 -8.85 -3.6 -8.6 -3.85 -8.35 -3.85 -8.85 L-3.6 -10.1 M-2.35 -5.85 L-2.35 -5.6 Q-2.85 -5.35 -3.1 -5.6 L-2.85 -5.85 Q-2.6 -6.1 -2.35 -5.85 M-2.35 -8.85 L-2.35 -8.6 Q-2.1 -8.35 -2.35 -7.35 -2.85 -7.1 -2.85 -7.6 L-2.35 -8.85 M-2.1 -6.35 L-1.85 -6.6 -1.6 -6.6 Q-1.6 -6.1 -1.85 -6.1 -2.1 -5.85 -2.1 -6.35 M-2.1 -6.6 L-2.35 -6.6 -2.1 -7.6 -1.85 -7.35 Q-1.85 -6.6 -2.1 -6.6 M-3.1 -6.35 L-2.85 -6.6 Q-2.6 -6.35 -2.85 -6.35 L-3.35 -6.1 -3.1 -6.35" fill="#484537" fill-rule="evenodd" stroke="none"/>
      <path d="M1.4 -0.4 L1.2 -0.2 -1.1 -4.35 1.4 -0.4" fill="url(#gradient0)" fill-rule="evenodd" stroke="none"/>
      <path d="M1.2 -0.2 L-1.1 -4.35 -2.1 -5.85 -3.1 -7.35 M-3.35 -7.35 L-3.6 -7.6 -3.85 -7.85 -4.1 -8.1 -4.35 -8.6 M-3.35 -7.35 L-3.1 -7.35 M-1.1 -4.35 L1.4 -0.4" fill="none" stroke="url(#gradient1)" stroke-linecap="round" stroke-linejoin="round" stroke-width="0.05"/>
    </g>
    <linearGradient gradientTransform="matrix(0.001, 0.0022, 7.0E-4, -7.0E-4, 4.9, 6.65)" gradientUnits="userSpaceOnUse" id="gradient0" spreadMethod="pad" x1="-819.2" x2="819.2">
      <stop offset="0.0" stop-color="#252312"/>
      <stop offset="1.0" stop-color="#262413" stop-opacity="0.0"/>
    </linearGradient>
    <linearGradient gradientTransform="matrix(-0.0027, 0.0018, 0.0015, 0.0099, 2.15, 3.15)" gradientUnits="userSpaceOnUse" id="gradient1" spreadMethod="pad" x1="-819.2" x2="819.2">
      <stop offset="0.0" stop-color="#5c4c05" stop-opacity="0.5019608"/>
      <stop offset="1.0" stop-color="#e9ddaf"/>
    </linearGradient>
    <g id="sprite1" transform="matrix(1.0, 0.0, 0.0, 1.0, 6.25, 4.4)">
      <use height="2.45" transform="matrix(1.7285, -0.691, 0.7351, 1.8389, -2.9156, -2.5238)" width="2.75" xlink:href="#sprite2"/>
      <use height="4.2" transform="matrix(1.0, 0.0, 0.0, 1.0, -1.75, -1.05)" width="6.35" xlink:href="#shape3"/>
      <use height="1.85" transform="matrix(1.0301, 1.5428, 1.7289, -1.1542, -6.2451, -2.0169)" width="2.65" xlink:href="#sprite3"/>
      <use height="1.85" transform="matrix(1.4474, -0.4515, -1.5216, -2.4002, -2.6123, 4.4471)" width="2.65" xlink:href="#sprite3"/>
    </g>
    <g id="sprite2" transform="matrix(1.0, 0.0, 0.0, 1.0, 1.35, 1.2)">
      <use height="2.45" transform="matrix(1.0, 0.0, 0.0, 1.0, -1.35, -1.2)" width="2.75" xlink:href="#shape2"/>
    </g>
    <g id="shape2" transform="matrix(1.0, 0.0, 0.0, 1.0, 1.35, 1.2)">
      <path d="M-1.15 -0.2 L-0.85 -0.7 -0.4 -0.9 Q-0.05 -0.95 0.15 -1.15 L1.15 -1.0 Q1.45 -0.65 1.35 -0.2 L1.2 0.05 1.1 0.1 0.15 0.4 -0.05 0.5 -0.5 -0.05 -0.75 -0.15 -1.15 -0.2" fill="#900013" fill-rule="evenodd" stroke="none"/>
      <path d="M1.2 0.05 L0.85 0.5 0.65 0.65 0.55 0.7 -0.2 1.2 -0.25 1.1 -0.35 1.05 -0.75 1.0 -1.05 1.0 -1.25 1.15 -1.25 1.0 -1.3 0.7 -1.3 0.1 -1.2 -0.15 -1.15 -0.2 -0.75 -0.15 -0.5 -0.05 -0.05 0.5 0.15 0.4 1.1 0.1 1.2 0.05" fill="#82000e" fill-rule="evenodd" stroke="none"/>
      <path d="M-1.15 -0.2 L-0.85 -0.7 -0.4 -0.9 Q-0.05 -0.95 0.15 -1.15 L1.15 -1.0 Q1.45 -0.65 1.35 -0.2 L1.2 0.05 0.85 0.5 0.65 0.65 0.55 0.7 -0.2 1.2 -0.25 1.1 -0.35 1.05 -0.75 1.0 -1.05 1.0 -1.25 1.15 -1.25 1.0 -1.3 0.7 -1.3 0.1 -1.2 -0.15" fill="none" stroke="#000000" stroke-linecap="round" stroke-linejoin="round" stroke-opacity="0.3019608" stroke-width="0.1"/>
    </g>
    <g id="shape3" transform="matrix(1.0, 0.0, 0.0, 1.0, 1.75, 1.05)">
      <path d="M1.85 -0.95 L1.85 -0.8 Q2.95 -1.05 4.2 -0.8 L4.5 0.7 3.65 1.4 3.45 1.75 2.75 2.3 1.7 2.85 1.75 2.6 1.5 2.2 1.45 1.7 -0.25 1.3 0.15 0.95 1.1 0.4 1.85 -0.95" fill="#900013" fill-rule="evenodd" stroke="none"/>
      <path d="M-1.1 0.9 L-0.2 -0.05 1.3 -0.8 1.85 -0.95 1.1 0.4 0.15 0.95 -0.25 1.3 1.45 1.7 1.5 2.2 1.75 2.6 0.9 2.9 0.25 3.0 -1.65 3.05 -1.2 2.1 -1.3 2.05 -1.55 1.8 -1.45 1.55 -1.1 0.9" fill="#82000e" fill-rule="evenodd" stroke="none"/>
      <path d="M-1.1 0.9 L-0.2 -0.05 1.3 -0.8 1.85 -0.95 1.85 -0.8 Q2.95 -1.05 4.2 -0.8 L4.5 0.7 3.65 1.4 3.45 1.75 2.75 2.3 1.7 2.85 M1.75 2.6 L0.9 2.9 0.25 3.0 -1.65 3.05 -1.2 2.1 -1.3 2.05 -1.55 1.8" fill="none" stroke="#000000" stroke-linecap="round" stroke-linejoin="round" stroke-opacity="0.3019608" stroke-width="0.2"/>
    </g>
    <g id="sprite3" transform="matrix(1.0, 0.0, 0.0, 1.0, 1.3, 0.9)">
      <use height="1.85" transform="matrix(1.0, 0.0, 0.0, 1.0, -1.3, -0.9)" width="2.65" xlink:href="#shape4"/>
    </g>
    <g id="shape4" transform="matrix(1.0, 0.0, 0.0, 1.0, 1.3, 0.9)">
      <path d="M-0.75 0.75 L-0.8 0.85 -1.1 0.65 -1.2 0.4 -1.15 0.25 -1.25 -0.05 -0.55 -0.7 0.6 -0.8 0.65 -0.85 0.45 -0.25 0.7 -0.05 0.75 0.1 -0.25 0.35 -0.45 0.55 -0.75 0.75" fill="#900013" fill-rule="evenodd" stroke="none"/>
      <path d="M0.65 -0.85 L0.85 -0.8 1.25 -0.5 1.3 -0.1 1.2 0.2 1.15 0.3 0.95 0.4 0.85 0.45 0.7 0.85 -0.2 0.9 -0.45 0.85 -0.75 0.75 -0.45 0.55 -0.25 0.35 0.75 0.1 0.7 -0.05 0.45 -0.25 0.65 -0.85" fill="#82000e" fill-rule="evenodd" stroke="none"/>
      <path d="M0.65 -0.85 L0.85 -0.8 1.25 -0.5 1.3 -0.1 M1.15 0.3 L0.95 0.4 0.85 0.45 0.7 0.85 -0.2 0.9 -0.45 0.85 -0.75 0.75 M-0.8 0.85 L-1.1 0.65 -1.2 0.4 -1.15 0.25 -1.25 -0.05 -0.55 -0.7 0.6 -0.8 0.65 -0.85 Z" fill="none" stroke="#000000" stroke-linecap="round" stroke-linejoin="round" stroke-opacity="0.3019608" stroke-width="0.1"/>
    </g>
    <g id="sprite4" transform="matrix(1.0, 0.0, 0.0, 1.0, 4.8, 5.9)">
      <use height="11.55" transform="matrix(1.0, 0.0, 0.0, 1.0, -4.8, -5.9)" width="8.1" xlink:href="#shape5"/>
    </g>
    <g id="shape5" transform="matrix(1.0, 0.0, 0.0, 1.0, 4.8, 5.9)">
      <path d="M-0.55 -5.45 L-0.5 -5.15 -0.4 -5.15 -0.2 -5.65 0.15 -5.9 0.05 -5.1 0.9 -5.45 -0.2 -4.6 -0.2 -4.55 -0.5 -4.55 -0.65 -4.55 -0.75 -4.55 -0.85 -4.45 -0.95 -4.45 -0.95 -4.55 -0.85 -5.0 -0.55 -5.45 M0.8 -1.6 L0.9 -1.05 Q1.25 -2.25 1.8 -2.4 L1.9 -1.85 1.8 -1.25 Q2.45 -1.85 3.0 -2.05 L1.55 -0.4 1.15 -0.15 1.1 -0.15 1.0 -0.05 0.8 -0.05 0.6 -0.05 0.55 0.05 0.6 -0.7 0.8 -1.6 M1.9 -1.85 Q1.15 -0.75 1.15 -0.15 1.15 -0.75 1.9 -1.85 M-0.2 -5.65 L-0.5 -4.55 -0.2 -5.65" fill="#66ac20" fill-rule="evenodd" stroke="none"/>
      <path d="M-1.2 -3.7 L-1.3 -3.8 -1.3 -3.9 -1.6 -4.0 -1.6 -4.05 -1.65 -4.25 -1.6 -4.25 -1.6 -4.35 -1.2 -4.7 -1.1 -4.7 -1.1 -4.8 -1.05 -4.8 Q-0.95 -5.45 -0.5 -5.65 L-0.55 -5.45 -0.85 -5.0 -0.95 -4.55 -0.95 -4.45 -0.85 -4.45 -0.75 -4.55 -0.65 -4.55 -1.1 -4.05 -1.2 -3.7 M0.45 1.45 L0.05 1.35 0.15 1.35 0.35 1.35 0.45 1.45 M-0.5 1.9 L-0.3 2.25 -0.5 2.25 -0.85 2.35 -0.85 2.45 -1.3 2.9 -1.3 2.8 -1.3 2.55 -1.2 2.55 -1.2 2.45 -1.2 2.35 -0.85 1.6 -0.65 1.45 -0.5 1.5 -0.55 1.6 -0.5 1.9 M-0.2 1.15 L-0.3 1.05 -0.4 1.05 -0.4 0.95 -0.3 0.9 -0.3 0.8 -0.4 0.7 -0.3 0.7 0.05 0.35 0.05 0.15 0.15 -0.05 0.25 -0.05 0.25 -0.2 0.25 -0.3 0.35 -0.3 Q0.35 -1.15 0.8 -1.8 L0.8 -1.6 0.6 -0.7 0.55 0.05 0.6 -0.05 0.8 -0.05 1.0 -0.05 0.6 0.4 0.45 0.7 0.45 1.05 0.35 1.25 -0.2 1.15 M-2.05 -3.9 L-1.95 -3.9 -1.85 -3.9 -1.85 -3.7 -1.75 -3.25 Q-2.05 -3.5 -2.2 -3.25 L-2.7 -3.05 -2.7 -3.15 -2.7 -3.25 -2.6 -3.25 -2.05 -3.9 M-0.3 0.8 L0.05 0.4 0.45 0.15 0.55 0.05 0.6 0.05 0.55 0.05 0.45 0.15 0.05 0.4 -0.3 0.8 M0.6 0.05 L0.7 0.05 0.6 -0.05 0.6 0.05 M-1.6 -4.25 L-0.95 -4.45 -1.6 -4.25" fill="#3f690d" fill-rule="evenodd" stroke="none"/>
      <path d="M-1.3 -3.8 L-1.4 -3.9 -1.3 -3.9 -1.3 -3.8 M0.05 1.35 L0.05 1.25 0.15 1.35 0.05 1.35" fill="#217532" fill-rule="evenodd" stroke="none"/>
      <path d="M-1.4 -3.9 L-1.75 -3.9 -1.6 -4.0 -1.3 -3.9 -1.4 -3.9 M-0.55 1.35 L-0.3 1.15 -0.2 1.15 0.35 1.25 0.35 1.35 0.15 1.35 0.05 1.25 -0.65 1.45 -0.85 1.6 -0.85 1.5 -0.75 1.45 -0.55 1.35" fill="#134a1e" fill-rule="evenodd" stroke="none"/>
      <path d="M-0.3 2.25 L-0.4 2.35 -0.3 2.35 -0.2 2.45 0.55 2.7 Q-0.1 2.8 -0.4 3.25 0.35 3.9 0.25 4.25 L-0.65 4.25 -0.85 4.1 -1.2 4.0 -1.4 3.9 -1.4 3.8 -1.5 3.7 -1.4 3.8 -1.4 3.9 -1.3 4.1 -1.1 4.25 -0.55 5.3 -0.65 5.35 -1.1 4.8 -1.95 5.65 -1.5 3.8 -1.5 3.7 -1.5 3.65 -1.5 3.35 -1.5 3.1 -1.4 3.1 -1.3 3.0 -1.3 2.9 -0.85 2.45 -0.85 2.35 -0.5 2.25 -0.3 2.25 M-1.5 -2.8 L-1.95 -2.7 -1.6 -1.85 -2.2 -2.05 -2.3 -2.15 -2.75 -2.4 -2.75 -2.35 -2.7 -2.15 -2.5 -1.5 -2.5 -1.25 -2.75 -1.85 -3.15 -1.5 -3.25 -1.5 -2.95 -2.5 -2.95 -2.6 -2.85 -2.6 -2.75 -2.7 -2.7 -2.9 -2.7 -2.95 -2.6 -2.95 -2.7 -3.05 -2.2 -3.25 Q-2.05 -3.5 -1.75 -3.25 L-1.75 -3.15 -1.4 -2.9 -1.5 -2.8 M-1.4 -2.9 L-1.6 -2.9 -2.15 -2.95 -2.6 -2.95 -2.15 -2.95 -1.6 -2.9 -1.4 -2.9 M-2.75 -2.4 L-2.95 -2.5 -2.75 -2.4 M-2.75 -1.85 L-2.75 -2.35 -2.75 -1.85 M-2.75 -2.7 Q-2.2 -2.7 -1.6 -1.85 -2.2 -2.7 -2.75 -2.7 M0.55 2.7 L-0.1 2.8 -0.2 2.8 -0.65 2.9 -1.4 3.1 -0.65 2.9 -0.2 2.8 -0.1 2.8 0.55 2.7 M-0.4 2.35 L-0.2 2.45 -0.4 2.35 M0.25 4.25 L-1.05 3.45 -1.1 3.45 -1.5 3.35 -1.1 3.45 -1.05 3.45 0.25 4.25 M-1.1 4.8 L-1.3 4.1 -1.1 4.8" fill="#518012" fill-rule="evenodd" stroke="none"/>
      <path d="M-0.95 -1.6 L-1.2 -1.95 -1.3 -2.25 -1.5 -2.8 -1.4 -2.9 -1.75 -3.15 -1.75 -3.25 -1.85 -3.7 -1.85 -3.9 -1.95 -3.9 -2.6 -5.65 -1.4 -2.9 -1.1 -2.35 -0.85 -1.8 Q-0.75 -1.5 -0.95 -1.6" fill="#14380f" fill-rule="evenodd" stroke="none"/>
      <path d="M-0.1 0.15 L-0.4 -0.4 0.0 -0.6 0.25 -0.2 0.25 -0.05 0.15 -0.05 0.05 0.15 -0.1 0.15 M-0.65 -0.85 L-0.95 -1.6 Q-0.75 -1.5 -0.85 -1.8 L-0.2 -0.85 -0.5 -0.85 -0.65 -0.85" fill="#194713" fill-rule="evenodd" stroke="none"/>
      <path d="M0.6 1.9 L0.55 1.45 0.6 1.45 0.7 1.9 0.6 1.9 M-0.4 -0.4 L-0.65 -0.85 -0.5 -0.85 -0.2 -0.85 0.0 -0.6 -0.4 -0.4" fill="#2b8522" fill-rule="evenodd" stroke="none"/>
      <path d="M0.9 -5.45 L0.6 -4.8 1.0 -4.55 -0.2 -4.6 0.9 -5.45 M3.0 -2.05 L2.65 -1.05 3.3 -0.85 1.55 -0.4 3.0 -2.05" fill="#71b319" fill-rule="evenodd" stroke="none"/>
      <path d="M0.7 -3.6 L0.05 -3.7 0.0 -2.95 -0.2 -4.25 0.7 -3.6 M3.2 0.9 L2.25 0.95 2.35 1.8 Q1.45 0.9 1.55 0.15 2.35 0.8 3.2 0.9" fill="#548512" fill-rule="evenodd" stroke="none"/>
      <path d="M-3.4 -3.25 L-3.5 -3.45 -2.7 -3.6 -2.6 -3.6 -2.05 -3.9 -2.6 -3.25 Q-2.7 -3.45 -2.95 -3.45 -3.3 -3.45 -3.4 -3.25 M-0.85 1.5 L-0.85 1.6 -1.2 2.35 -1.2 2.45 -1.3 2.45 -1.6 2.55 -1.85 2.55 Q-2.15 2.55 -2.3 2.7 L-2.6 2.9 -2.7 2.8 -2.2 2.45 Q-2.15 2.25 -1.75 2.25 L-1.6 2.25 -1.6 2.15 -1.5 2.15 -1.5 2.05 -0.85 1.5" fill="#36590b" fill-rule="evenodd" stroke="none"/>
      <path d="M-3.15 3.8 L-3.05 3.65 -2.5 3.15 -2.2 3.0 -2.4 3.0 -2.6 2.9 -2.3 2.7 Q-2.15 2.55 -1.85 2.55 L-1.6 2.55 -1.3 2.45 -1.3 2.55 -1.3 2.8 -1.3 2.9 -1.3 3.0 -1.4 3.1 -1.5 3.1 Q-1.75 3.15 -2.7 3.55 L-2.75 3.65 -3.15 3.8 M-3.95 -2.8 L-3.25 -3.15 -3.4 -3.25 Q-3.3 -3.45 -2.95 -3.45 -2.7 -3.45 -2.6 -3.25 L-2.7 -3.25 -2.7 -3.15 -2.7 -3.05 -2.6 -2.95 -2.7 -2.95 -2.7 -2.9 -3.95 -2.8" fill="#3c6e13" fill-rule="evenodd" stroke="none"/>
      <path d="M-1.95 5.65 L-2.15 4.9 -2.85 5.3 -2.7 4.35 -2.6 4.25 -2.4 4.1 -2.4 3.9 -2.7 3.9 -3.15 3.8 -2.75 3.65 -2.7 3.55 Q-1.75 3.15 -1.5 3.1 L-1.5 3.35 -1.5 3.65 -1.5 3.7 -1.6 3.8 -1.75 3.9 -2.6 4.35 -2.7 4.35 -2.6 4.35 -1.75 3.9 -1.6 3.8 -1.5 3.7 -1.5 3.8 -1.95 5.65 M-3.25 -1.5 L-3.5 -1.95 -3.85 -1.85 -3.7 -2.4 -3.4 -2.5 -3.4 -2.6 -3.3 -2.6 -3.95 -2.8 -2.7 -2.9 -2.75 -2.7 -2.85 -2.6 -2.95 -2.6 -2.95 -2.5 -3.25 -1.5 M-2.95 -2.6 L-3.7 -2.4 -2.95 -2.6" fill="#4d8718" fill-rule="evenodd" stroke="none"/>
      <path d="M-0.65 4.25 L-0.55 5.3 -1.1 4.25 -1.3 4.1 -1.4 3.9 -1.2 4.0 -0.85 4.1 -0.65 4.25 M-2.3 -2.15 L-2.5 -1.5 -2.7 -2.15 -2.75 -2.35 -2.75 -2.4 -2.3 -2.15" fill="#578a13" fill-rule="evenodd" stroke="none"/>
      <path d="M-4.8 2.15 Q-4.15 1.5 -3.3 1.6 L-3.15 1.5 -3.15 1.45 -2.05 0.35 -2.2 0.5 -2.3 1.05 -2.7 1.35 -2.75 1.45 -3.05 1.9 -3.15 2.05 -4.8 2.15 M-2.2 0.5 L-2.7 1.35 -2.2 0.5" fill="#5a8f14" fill-rule="evenodd" stroke="none"/>
      <path d="M-4.05 2.7 Q-4.25 2.45 -4.8 2.15 L-3.15 2.05 -3.3 2.15 -3.4 2.15 -3.95 2.7 -4.05 2.7" fill="#63a817" fill-rule="evenodd" stroke="none"/>
      <path d="M0.7 2.05 L0.6 1.9 0.7 1.9 0.7 2.05" fill="#194713" fill-opacity="0.6509804" fill-rule="evenodd" stroke="none"/>
      <path d="M0.6 -0.05 L0.7 0.05 0.6 0.05 0.6 -0.05" fill="#375705" fill-rule="evenodd" stroke="none"/>
      <path d="M0.05 0.35 L-0.1 0.15 0.05 0.15 0.05 0.35" fill="#215c18" fill-rule="evenodd" stroke="none"/>
      <path d="M-1.3 1.5 L-1.3 1.35 -1.2 1.45 -1.3 1.5" fill="#889e06" fill-rule="evenodd" stroke="none"/>
      <path d="M-1.2 2.45 L-1.2 2.55 -1.3 2.55 -1.2 2.45" fill="#97b006" fill-rule="evenodd" stroke="none"/>
      <path d="M0.7 -3.6 L-0.2 -4.25 0.0 -2.95 -0.65 -3.6 -1.05 -2.95 -1.2 -3.7 -1.1 -4.05 -0.65 -4.55 -0.5 -4.55 -0.2 -4.55 -0.2 -4.6 1.0 -4.55 0.35 -4.15 0.7 -3.6 M-0.2 -4.25 L-0.2 -4.55 -0.2 -4.25 M-1.05 -2.95 Q-0.95 -4.15 -0.65 -4.55 -0.95 -4.15 -1.05 -2.95" fill="url(#gradient2)" fill-rule="evenodd" stroke="none"/>
      <path d="M3.3 -0.85 L2.65 -0.05 3.2 0.8 3.2 0.9 Q2.35 0.8 1.55 0.15 1.45 0.9 2.35 1.8 L2.25 2.0 1.25 1.25 1.15 1.6 Q0.9 1.9 0.8 2.25 L0.7 2.05 0.7 1.9 0.6 1.45 0.55 1.45 0.45 1.45 0.35 1.35 0.35 1.25 0.45 1.05 0.45 0.7 0.6 0.4 1.0 -0.05 1.1 -0.15 1.15 -0.15 1.55 -0.4 3.3 -0.85 M0.8 2.25 L0.9 1.9 0.9 1.15 1.1 -0.15 0.9 1.15 0.9 1.9 0.8 2.25 M1.55 0.15 L1.55 -0.4 1.55 0.15" fill="url(#gradient3)" fill-rule="evenodd" stroke="none"/>
      <path d="M-2.3 1.05 Q-1.5 0.15 -0.95 0.35 L-1.1 0.9 -1.2 1.45 -1.1 1.45 -0.85 1.35 -1.95 2.15 -2.2 2.05 -2.4 2.05 -2.6 2.05 -3.15 2.05 -3.05 1.9 -2.75 1.45 -2.7 1.35 -2.3 1.05 M-1.3 1.5 L-1.2 1.45 -1.3 1.35 -1.3 1.5 M-1.1 0.9 Q-2.3 1.45 -2.4 2.05 -2.3 1.45 -1.1 0.9" fill="url(#gradient4)" fill-rule="evenodd" stroke="none"/>
      <path d="M0.05 1.25 L-0.5 1.9 -0.55 1.6 -0.5 1.5 -0.65 1.45 0.05 1.25 M-0.85 1.35 L-0.55 1.35 -0.75 1.45 -0.85 1.5 -1.5 2.05 -1.5 2.15 -1.6 2.15 -1.6 2.25 -1.85 2.15 -1.95 2.15 -0.85 1.35" fill="url(#gradient5)" fill-rule="evenodd" stroke="none"/>
      <path d="M-2.6 4.25 L-2.7 3.9 -2.4 3.9 -2.4 4.1 -2.6 4.25 M-3.05 3.65 L-4.25 3.9 -3.8 3.15 -3.7 3.1 -3.7 3.0 -3.6 3.0 -3.6 3.1 -3.5 3.25 -3.6 3.1 -3.6 3.0 -3.7 3.0 -3.8 2.9 Q-3.8 2.8 -4.05 2.7 L-3.95 2.7 -3.4 2.15 -3.3 2.15 -3.15 2.05 -2.6 2.05 -2.4 2.05 -2.2 2.05 -1.95 2.15 -1.85 2.15 -1.6 2.25 -1.75 2.25 -1.85 2.15 -1.75 2.25 Q-2.15 2.25 -2.2 2.45 L-2.2 2.05 -2.2 2.45 -2.7 2.8 -2.6 2.9 -2.4 3.0 -2.2 3.0 -2.5 3.15 -2.4 3.0 -2.5 3.15 -3.05 3.65 M-3.5 3.25 L-2.95 2.9 -2.6 2.05 -2.95 2.9 -3.5 3.25" fill="url(#gradient6)" fill-rule="evenodd" stroke="none"/>
      <path d="M-1.3 2.55 L-1.3 2.45 -1.2 2.45 -1.3 2.55" fill="url(#gradient7)" fill-rule="evenodd" stroke="none"/>
      <path d="M0.0 -2.95 L0.05 -3.7 0.7 -3.6 M0.0 -2.95 L-0.65 -3.6 -1.05 -2.95 -1.2 -3.7 -1.3 -3.8 -1.4 -3.9 M-1.6 -4.25 L-1.6 -4.35 -1.2 -4.7 -1.1 -4.7 -1.1 -4.8 -1.05 -4.8 Q-0.95 -5.45 -0.5 -5.65 L-0.55 -5.45 -0.5 -5.15 -0.4 -5.15 -0.2 -5.65 0.15 -5.9 0.05 -5.1 0.9 -5.45 0.6 -4.8 1.0 -4.55 0.35 -4.15 0.7 -3.6 M0.8 -1.6 L0.9 -1.05 Q1.25 -2.25 1.8 -2.4 L1.9 -1.85 1.8 -1.25 Q2.45 -1.85 3.0 -2.05 L2.65 -1.05 3.3 -0.85 2.65 -0.05 3.2 0.8 3.2 0.9 2.25 0.95 2.35 1.8 2.25 2.0 1.25 1.25 1.15 1.6 M0.8 2.25 L0.7 2.05 M0.55 1.45 L0.45 1.45 0.05 1.35 0.05 1.25 M-0.3 0.8 L-0.4 0.7 -0.3 0.7 0.05 0.35 M0.25 -0.2 L0.25 -0.3 0.35 -0.3 Q0.35 -1.15 0.8 -1.8 L0.8 -1.6 M0.05 0.15 L0.15 -0.05 0.25 -0.05 0.25 -0.2 M0.05 0.15 L0.05 0.35 M0.55 1.45 L0.6 1.45 0.7 1.9 0.7 2.05" fill="none" stroke="#000000" stroke-linecap="round" stroke-linejoin="round" stroke-opacity="0.3019608" stroke-width="0.05"/>
      <path d="M0.7 -3.6 L-0.2 -4.25 0.0 -2.95 M0.8 -1.6 L0.6 -0.7 0.55 0.05 M1.15 -0.15 Q1.15 -0.75 1.9 -1.85 M1.55 -0.4 L3.0 -2.05 M1.1 -0.15 L0.9 1.15 0.9 1.9 0.8 2.25 M3.2 0.9 Q2.35 0.8 1.55 0.15 1.45 0.9 2.35 1.8 M1.55 -0.4 L1.55 0.15 M-0.95 -4.45 L-0.95 -4.55 -0.85 -5.0 -0.55 -5.45 M-0.2 -4.55 L-0.2 -4.6 0.9 -5.45 M-0.2 -4.55 L-0.2 -4.25 M-0.5 -4.55 L-0.2 -5.65 M-2.6 -3.25 Q-2.7 -3.45 -2.95 -3.45 -3.3 -3.45 -3.4 -3.25 M-2.7 -2.9 L-3.95 -2.8 M-2.75 -2.4 L-2.3 -2.15 M-3.7 -2.4 L-2.95 -2.6 M-2.75 -2.35 L-2.75 -1.85 M-0.65 -4.55 Q-0.95 -4.15 -1.05 -2.95 M-1.3 2.45 L-1.6 2.55 -1.85 2.55 Q-2.15 2.55 -2.3 2.7 L-2.6 2.9 M-1.95 2.15 L-0.85 1.35 M-2.4 2.05 Q-2.3 1.45 -1.1 0.9 M-2.7 1.35 L-2.2 0.5 M-1.5 3.1 Q-1.75 3.15 -2.7 3.55 L-2.75 3.65 -3.15 3.8 M-1.5 3.7 L-1.6 3.8 -1.75 3.9 -2.6 4.35 -2.7 4.35 M-1.4 3.9 L-1.2 4.0 -0.85 4.1 -0.65 4.25 M-1.5 3.7 L-1.5 3.65 M-1.3 4.1 L-1.1 4.8" fill="none" stroke="#012909" stroke-linecap="round" stroke-linejoin="round" stroke-opacity="0.17254902" stroke-width="0.05"/>
      <path d="M0.6 -0.05 L0.8 -0.05 1.0 -0.05 1.1 -0.15 1.15 -0.15 1.55 -0.4 3.3 -0.85 M-2.7 -3.05 L-2.6 -2.95 M-0.5 -4.55 L-0.2 -4.55 M-0.65 -4.55 L-0.75 -4.55 -0.85 -4.45 M-0.65 -4.55 L-0.5 -4.55 M-2.7 -3.05 L-2.7 -3.15 -2.7 -3.25 M-2.7 -2.9 L-2.7 -2.95 -2.6 -2.95 M-2.95 -2.6 L-2.85 -2.6 -2.75 -2.7 -2.7 -2.9 M-1.6 2.25 L-1.85 2.15 -1.95 2.15 -2.2 2.05 -2.4 2.05 -2.6 2.05 M-1.5 3.1 L-1.4 3.1 -1.3 3.0 -1.3 2.9 -1.3 2.8 -1.3 2.55 M-1.5 3.65 L-1.5 3.35 -1.5 3.1 M-1.5 3.7 L-1.5 3.8 -1.95 5.65 M1.0 -4.55 L-0.2 -4.6" fill="none" stroke="#000000" stroke-linecap="round" stroke-linejoin="round" stroke-opacity="0.101960786" stroke-width="0.05"/>
      <path d="M-1.6 -4.0 L-1.6 -4.05 M0.05 1.25 L-0.5 1.9 -0.3 2.25 -0.4 2.35 -0.3 2.35 -0.2 2.45 0.55 2.7 Q-0.1 2.8 -0.4 3.25 0.35 3.9 0.25 4.25 L-0.65 4.25 -0.55 5.3 -0.65 5.35 -1.1 4.8 -1.95 5.65 -2.15 4.9 -2.85 5.3 -2.7 4.35 -2.6 4.25 -2.7 3.9 -3.15 3.8 -3.05 3.65 -4.25 3.9 -3.8 3.15 -3.8 2.9 Q-3.8 2.8 -4.05 2.7 -4.25 2.45 -4.8 2.15 -4.15 1.5 -3.3 1.6 L-3.15 1.5 -3.15 1.45 -2.05 0.35 -2.2 0.5 -2.3 1.05 Q-1.5 0.15 -0.95 0.35 L-1.1 0.9 -1.2 1.45 -1.1 1.45 -0.85 1.35 -0.55 1.35 M-0.2 1.15 L-0.3 1.05 M-0.3 0.9 L-0.3 0.8 M-1.5 -2.8 L-1.95 -2.7 -1.6 -1.85 -2.2 -2.05 -2.3 -2.15 -2.5 -1.5 -2.5 -1.25 -2.75 -1.85 -3.15 -1.5 -3.25 -1.5 -3.5 -1.95 -3.85 -1.85 -3.7 -2.4 -3.4 -2.5 -3.4 -2.6 -3.3 -2.6 -3.95 -2.8 -3.25 -3.15 -3.4 -3.25 -3.5 -3.45 -2.7 -3.6 -2.6 -3.6 -2.05 -3.9 M0.6 0.05 L0.55 0.05 0.45 0.15 0.05 0.4 -0.3 0.8 M0.6 -0.05 L0.6 0.05 M-1.85 -3.9 L-1.85 -3.7 -1.75 -3.25 -1.75 -3.15 -1.4 -2.9 -1.5 -2.8 M-0.85 -4.45 L-0.95 -4.45 -1.6 -4.25 M-2.7 -3.25 L-2.6 -3.25 -2.05 -3.9 M-1.3 1.5 L-1.2 1.45 -1.3 1.35 -1.3 1.5 M-1.75 2.25 L-1.6 2.25 -1.6 2.15 -1.5 2.15 -1.5 2.05 -0.85 1.5 M-3.5 3.25 L-3.6 3.1 -3.6 3.0 -3.7 3.0 -3.7 3.1 -3.8 3.15 M-2.2 2.45 Q-2.15 2.25 -1.75 2.25 M-2.5 3.15 L-2.2 3.0 -2.4 3.0 M-2.5 3.15 L-3.05 3.65 M-2.6 2.9 L-2.4 3.0 M-0.5 1.9 L-0.55 1.6 -0.5 1.5 M-1.2 2.45 L-1.3 2.55 -1.2 2.55 M-1.2 2.45 L-1.2 2.35 -0.85 1.6 M-0.2 2.45 L-0.4 2.35 M-3.15 2.05 L-4.8 2.15 M-2.6 2.05 L-3.15 2.05 M-2.2 2.45 L-2.7 2.8 -2.6 2.9 M-3.7 3.0 L-3.8 2.9 M-2.7 3.9 L-2.4 3.9 -2.4 4.1 -2.6 4.25" fill="none" stroke="#000000" stroke-linecap="round" stroke-linejoin="round" stroke-opacity="0.2" stroke-width="0.05"/>
      <path d="M-2.6 -2.95 L-2.15 -2.95 -1.6 -2.9 -1.4 -2.9 M-2.95 -2.5 L-2.75 -2.4 M-2.75 -2.35 L-2.75 -2.4 M-2.5 -1.5 L-2.7 -2.15 -2.75 -2.35 M-1.6 -1.85 Q-2.2 -2.7 -2.75 -2.7 M-1.4 3.1 L-0.65 2.9 -0.2 2.8 -0.1 2.8 0.55 2.7 M-1.5 3.35 L-1.1 3.45 -1.05 3.45 0.25 4.25 M-1.5 3.7 L-1.4 3.8 -1.4 3.9 -1.3 4.1 -1.1 4.25 -0.55 5.3" fill="none" stroke="#49fc6b" stroke-linecap="round" stroke-linejoin="round" stroke-opacity="0.17254902" stroke-width="0.05"/>
      <path d="M-1.85 2.15 L-1.75 2.25 M-2.6 2.05 L-2.95 2.9 -3.5 3.25 M-2.2 2.05 L-2.2 2.45 M-2.4 3.0 L-2.5 3.15" fill="none" stroke="#b0ff45" stroke-linecap="round" stroke-linejoin="round" stroke-opacity="0.12156863" stroke-width="0.05"/>
    </g>
    <linearGradient gradientTransform="matrix(-0.001, -3.0E-4, 2.0E-4, -0.0013, -0.85, -4.05)" gradientUnits="userSpaceOnUse" id="gradient2" spreadMethod="pad" x1="-819.2" x2="819.2">
      <stop offset="0.0" stop-color="#679c16"/>
      <stop offset="0.9490196078431372" stop-color="#4f7d11"/>
    </linearGradient>
    <linearGradient gradientTransform="matrix(-0.0014, 0.0, -1.0E-4, -0.002, 0.8, 0.8)" gradientUnits="userSpaceOnUse" id="gradient3" spreadMethod="pad" x1="-819.2" x2="819.2">
      <stop offset="0.0" stop-color="#679c16"/>
      <stop offset="0.9490196078431372" stop-color="#4f7d11"/>
    </linearGradient>
    <linearGradient gradientTransform="matrix(-0.0024, 1.0E-4, 1.0E-4, 0.0011, -2.5, 1.45)" gradientUnits="userSpaceOnUse" id="gradient4" spreadMethod="pad" x1="-819.2" x2="819.2">
      <stop offset="0.08627450980392157" stop-color="#0f3d17"/>
      <stop offset="1.0" stop-color="#5da81f"/>
    </linearGradient>
    <linearGradient gradientTransform="matrix(-0.0032, 1.0E-4, 1.0E-4, 8.0E-4, -4.05, 2.05)" gradientUnits="userSpaceOnUse" id="gradient5" spreadMethod="pad" x1="-819.2" x2="819.2">
      <stop offset="0.08627450980392157" stop-color="#0f3d17"/>
      <stop offset="1.0" stop-color="#5da81f"/>
    </linearGradient>
    <linearGradient gradientTransform="matrix(-0.0011, -0.0011, -8.0E-4, 0.0012, -3.6, 2.45)" gradientUnits="userSpaceOnUse" id="gradient6" spreadMethod="pad" x1="-819.2" x2="819.2">
      <stop offset="0.0" stop-color="#134d1d"/>
      <stop offset="1.0" stop-color="#5da81f"/>
    </linearGradient>
    <linearGradient gradientTransform="matrix(4.0E-4, -0.0022, 9.0E-4, 3.0E-4, -1.85, 3.1)" gradientUnits="userSpaceOnUse" id="gradient7" spreadMethod="pad" x1="-819.2" x2="819.2">
      <stop offset="0.5215686274509804" stop-color="#718b05"/>
      <stop offset="1.0" stop-color="#305807"/>
    </linearGradient>
    <g id="shape6" transform="matrix(1.0, 0.0, 0.0, 1.0, -4.0, -14.45)">
      <path d="M25.6 31.75 L26.8 31.2 28.4 32.6 21.6 37.3 17.85 39.0 13.3 39.5 17.8 39.7 22.7 37.6 14.7 41.65 12.75 44.1 12.1 44.9 13.9 39.85 10.75 42.95 8.7 46.05 7.2 44.8 5.75 45.3 5.6 42.25 8.35 41.7 4.25 41.4 4.55 40.6 8.45 40.6 8.85 42.9 10.35 39.75 13.75 34.9 14.65 33.4 15.55 32.85 14.85 33.75 16.15 32.65 18.75 31.5 23.15 30.25 16.5 37.5 19.75 34.9 24.15 32.55 25.6 31.75" fill="#fffcf2" fill-rule="evenodd" stroke="none"/>
      <path d="M23.05 32.0 L24.15 32.55 19.75 34.9 19.9 34.7 20.35 34.35 21.45 33.5 23.05 32.0 M17.25 27.25 L18.1 27.1 14.65 33.4 13.75 34.9 13.65 33.05 17.25 27.25 M16.15 32.65 L14.85 33.75 15.55 32.85 16.15 32.65" fill="#ebe8df" fill-rule="evenodd" stroke="none"/>
      <path d="M31.4 28.8 L32.5 31.9 29.15 33.55 Q25.35 35.4 21.55 37.3 L21.6 37.3 28.4 32.6 26.8 31.2 Q29.05 29.95 31.4 28.8 M33.3 23.25 L24.9 30.4 25.2 28.5 23.7 27.5 21.35 27.95 28.0 22.05 25.05 21.05 20.0 27.3 19.15 26.95 18.1 27.1 23.75 16.9 26.0 14.7 28.15 18.35 33.3 23.25" fill="#bcc4c7" fill-rule="evenodd" stroke="none"/>
      <path d="M31.4 28.8 L33.3 27.75 33.35 24.85 33.3 27.75 31.4 28.8 Q29.05 29.95 26.8 31.2 L25.6 31.75 24.9 30.4 33.3 23.25 33.35 24.85 34.4 28.9 37.25 33.3 29.8 35.9 29.15 33.55 32.5 31.9 31.4 28.8 M20.0 27.3 L25.05 21.05 28.0 22.05 21.35 27.95 20.0 27.3 M17.25 27.25 L22.25 16.4 23.75 16.9 18.1 27.1 17.25 27.25" fill="#b1babd" fill-rule="evenodd" stroke="none"/>
      <path d="M21.35 27.95 L23.7 27.5 25.2 28.5 24.9 30.4 23.05 32.0 21.45 33.5 20.35 34.35 19.9 34.7 19.75 34.9 16.5 37.5 23.15 30.25 18.75 31.5 16.15 32.65 21.35 27.95 M15.55 32.85 L14.65 33.4 18.1 27.1 19.15 26.95 20.0 27.3 15.55 32.85" fill="#f3f0f2" fill-rule="evenodd" stroke="none"/>
      <path d="M24.9 30.4 L25.6 31.75 24.15 32.55 23.05 32.0 24.9 30.4 M16.15 32.65 L15.55 32.85 20.0 27.3 21.35 27.95 16.15 32.65" fill="#cfccce" fill-rule="evenodd" stroke="none"/>
      <path d="M29.15 33.55 L29.8 35.9 29.65 35.95 14.7 41.65 22.7 37.6 17.8 39.7 13.3 39.5 17.85 39.0 21.6 37.3 21.55 37.3 Q25.35 35.4 29.15 33.55 M10.35 39.75 L8.85 42.9 8.45 40.6 4.55 40.6 4.85 39.9 10.35 39.75 M8.7 46.05 L10.75 42.95 13.9 39.85 12.1 44.9 10.3 47.25 8.7 46.05" fill="#c4c1ba" fill-rule="evenodd" stroke="none"/>
      <path d="M33.35 24.85 L33.3 27.75 31.4 28.8 M29.8 35.9 L37.25 33.3 34.4 28.9 33.35 24.85 33.3 23.25 M17.25 27.25 L22.25 16.4 23.75 16.9 26.0 14.7 28.15 18.35 33.3 23.25 M13.75 34.9 L13.65 33.05 17.25 27.25 M13.75 34.9 L10.35 39.75 M4.55 40.6 L4.25 41.4 8.35 41.7 5.6 42.25 5.75 45.3 7.2 44.8 8.7 46.05 M12.75 44.1 L14.7 41.65 M4.55 40.6 L4.85 39.9 10.35 39.75 M12.1 44.9 L10.3 47.25 8.7 46.05 M29.65 35.95 L14.7 41.65" fill="none" stroke="#000000" stroke-linecap="round" stroke-linejoin="round" stroke-opacity="0.3019608" stroke-width="0.5"/>
      <path d="M13.15 39.7 L14.75 39.5 15.4 41.3 14.45 42.1 13.15 39.7" fill="#ff9279" fill-rule="evenodd" stroke="none"/>
      <path d="M14.75 39.5 L13.15 39.7 11.1 38.5 11.6 36.9 14.75 39.5" fill="#db6e55" fill-rule="evenodd" stroke="none"/>
      <path d="M14.75 39.5 L11.6 36.9 11.1 38.5 13.15 39.7 14.45 42.1 15.4 41.3 14.75 39.5 Z" fill="none" stroke="#000000" stroke-linecap="round" stroke-linejoin="round" stroke-opacity="0.3019608" stroke-width="0.5"/>
      <path d="M13.45 40.7 L14.2 42.35 13.6 42.75 12.35 40.4 13.45 40.7" fill="#ff9279" fill-rule="evenodd" stroke="none"/>
      <path d="M12.35 40.4 L10.7 38.8 10.85 37.7 13.45 40.7 12.35 40.4" fill="#db6e55" fill-rule="evenodd" stroke="none"/>
      <path d="M9.55 35.55 L10.9 36.5 12.3 39.85 12.5 40.3 12.1 40.25 7.3 39.65 7.6 38.8 11.2 39.4 9.9 36.8 8.9 36.1 9.55 35.55 M15.2 41.8 L16.8 43.4 15.85 43.7 Q15.75 43.25 15.2 42.75 L14.75 42.45 15.2 41.8 M16.7 45.6 L16.65 45.65 14.3 46.45 Q12.5 47.6 10.8 44.7 L11.75 44.25 11.75 44.35 Q12.65 46.1 14.1 45.35 L15.6 45.1 15.7 45.0 16.7 45.6" fill="#ff9279" fill-rule="evenodd" stroke="none"/>
      <path d="M7.3 39.65 L6.65 39.6 Q5.3 37.5 6.15 35.75 L7.8 34.4 Q8.5 34.95 9.55 35.55 L8.9 36.1 7.8 35.55 7.05 36.65 Q6.45 37.6 7.4 38.8 L7.6 38.8 7.3 39.65 M12.3 39.85 L15.2 41.8 14.75 42.45 12.5 41.1 11.75 44.25 10.8 44.7 12.1 40.25 12.5 40.3 12.3 39.85" fill="#db6e55" fill-rule="evenodd" stroke="none"/>
      <path d="M16.8 43.4 Q17.55 44.6 16.7 45.6 L15.7 45.0 Q16.3 44.4 15.85 43.7 L16.8 43.4" fill="#ffd1c7" fill-rule="evenodd" stroke="none"/>
      <path d="M7.3 39.65 L6.65 39.6 Q5.3 37.5 6.15 35.75 L7.8 34.4 Q8.5 34.95 9.55 35.55 L10.9 36.5 12.3 39.85 15.2 41.8 16.8 43.4 Q17.55 44.6 16.7 45.6 L16.65 45.65 14.3 46.45 Q12.5 47.6 10.8 44.7 L12.1 40.25 7.3 39.65 M7.6 38.8 L7.4 38.8 Q6.45 37.6 7.05 36.65 L7.8 35.55 8.9 36.1 9.9 36.8 11.2 39.4 7.6 38.8 M14.75 42.45 L15.2 42.75 Q15.75 43.25 15.85 43.7 16.3 44.4 15.7 45.0 L15.6 45.1 14.1 45.35 Q12.65 46.1 11.75 44.35 L11.75 44.25 12.5 41.1 14.75 42.45" fill="none" stroke="#000000" stroke-linecap="round" stroke-linejoin="round" stroke-opacity="0.3019608" stroke-width="0.5"/>
    </g>
    <g id="sprite5" transform="matrix(1.0, 0.0, 0.0, 1.0, 22.95, 18.4)">
      <use height="43.6" transform="matrix(1.0, 0.0, 0.0, 1.0, -22.95, -18.4)" width="47.25" xlink:href="#shape7"/>
    </g>
    <g id="shape7" transform="matrix(1.0, 0.0, 0.0, 1.0, 22.95, 18.4)">
      <path d="M12.15 -15.1 Q19.6 -11.05 22.65 -3.4 26.15 5.15 22.15 13.15 18.15 21.25 9.0 24.05 -0.1 26.85 -9.05 22.8 -17.9 18.75 -21.4 10.2 -24.8 1.65 -20.8 -6.35 L-20.8 -6.4 Q-16.8 -14.45 -7.7 -17.25 1.45 -20.05 10.3 -16.0 L12.15 -15.1" fill="url(#gradient8)" fill-rule="evenodd" stroke="none"/>
    </g>
    <radialGradient cx="0" cy="0" gradientTransform="matrix(0.0291, 0.0, 0.0, 0.0291, 0.6, 3.4)" gradientUnits="userSpaceOnUse" id="gradient8" r="819.2" spreadMethod="pad">
      <stop offset="0.0" stop-color="#ffffff"/>
      <stop offset="1.0" stop-color="#ffffff" stop-opacity="0.0"/>
    </radialGradient>
  </defs>
</svg>
