<?xml version="1.0" encoding="UTF-8" standalone="no"?>
<svg xmlns:xlink="http://www.w3.org/1999/xlink" height="440.0px" width="440.0px" xmlns="http://www.w3.org/2000/svg">
  <g transform="matrix(10.0, 0.0, 0.0, 10.0, 0.0, 0.0)">
    <use height="44.0" transform="matrix(1.0, 0.0, 0.0, 1.0, 0.0, 0.0)" width="44.0" xlink:href="#shape0"/>
  </g>
  <defs>
    <g id="shape0" transform="matrix(1.0, 0.0, 0.0, 1.0, 0.0, 0.0)">
      <path d="M44.0 44.0 L0.0 44.0 0.0 0.0 44.0 0.0 44.0 44.0" fill="#33cc33" fill-opacity="0.0" fill-rule="evenodd" stroke="none"/>
      <path d="M11.7 30.65 L14.35 28.2 Q16.2 29.7 17.7 31.45 L13.25 35.65 Q13.4 32.55 11.7 30.65" fill="#472323" fill-rule="evenodd" stroke="none"/>
      <path d="M5.4 36.45 L6.3 35.65 8.1 36.8 9.45 39.25 8.65 40.05 Q7.8 37.6 5.4 36.45 M10.35 31.95 L11.7 30.65 Q13.4 32.55 13.25 35.65 L12.55 36.3 Q12.25 33.4 10.35 31.95 M6.7 41.9 L6.5 42.05 Q2.25 42.8 3.2 38.45 L3.65 38.05 Q6.5 38.95 6.7 41.9" fill="#954a4a" fill-rule="evenodd" stroke="none"/>
      <path d="M7.1 34.85 L8.0 34.05 Q10.5 35.05 11.2 37.6 L9.45 39.25 8.1 36.8 7.1 34.85" fill="#dac8a3" fill-rule="evenodd" stroke="none"/>
      <path d="M8.0 34.05 L10.35 31.95 Q12.25 33.4 12.55 36.3 L11.2 37.6 Q10.5 35.05 8.0 34.05 M8.65 40.05 L6.7 41.9 Q6.5 38.95 3.65 38.05 L5.4 36.45 Q7.8 37.6 8.65 40.05" fill="#e8ddc6" fill-rule="evenodd" stroke="none"/>
      <path d="M6.3 35.65 L7.1 34.85 8.1 36.8 6.3 35.65" fill="#f5f1e9" fill-rule="evenodd" stroke="none"/>
      <path d="M5.4 36.45 L6.3 35.65 7.1 34.85 8.0 34.05 10.35 31.95 11.7 30.65 14.35 28.2 M17.7 31.45 L13.25 35.65 12.55 36.3 11.2 37.6 9.45 39.25 8.65 40.05 6.7 41.9 6.5 42.05 Q2.25 42.8 3.2 38.45 L3.65 38.05 5.4 36.45 Z" fill="none" stroke="#000000" stroke-linecap="round" stroke-linejoin="round" stroke-opacity="0.3019608" stroke-width="0.4"/>
      <path d="M9.2 32.0 L9.45 32.0 Q9.9 31.7 11.25 32.95 12.15 34.55 13.3 34.8 13.7 36.05 13.15 36.75 L12.3 36.7 12.85 36.0 Q11.5 33.75 9.6 32.7 L9.45 32.65 9.2 32.0" fill="#873c24" fill-rule="evenodd" stroke="none"/>
      <path d="M13.15 36.75 Q13.7 36.05 13.3 34.8 12.15 34.55 11.25 32.95 9.9 31.7 9.45 32.0 L9.2 32.0 9.2 31.9 9.7 31.7 13.2 32.9 13.4 33.15 13.75 36.0 13.35 36.8 13.15 36.75 M15.2 32.8 Q15.4 33.55 15.25 34.5 L15.1 34.55 Q15.35 33.5 14.5 32.25 L13.6 31.95 14.0 32.95 12.25 31.85 11.45 31.05 14.1 31.7 15.2 32.8" fill="#c85a35" fill-rule="evenodd" stroke="none"/>
      <path d="M13.2 32.9 L9.7 31.7 10.5 31.4 11.8 30.15 12.85 30.55 Q14.85 32.0 15.2 32.8 L14.1 31.7 11.45 31.05 12.25 31.85 11.8 31.55 13.2 32.9" fill="#e0836d" fill-rule="evenodd" stroke="none"/>
      <path d="M13.75 36.0 L13.4 33.15 13.2 32.9 11.8 31.55 12.25 31.85 14.0 32.95 13.6 31.95 14.5 32.25 Q15.35 33.5 15.1 34.55 L14.35 35.0 13.75 36.0" fill="#964328" fill-rule="evenodd" stroke="none"/>
      <path d="M9.2 32.0 L9.45 32.65 9.6 32.7 Q11.5 33.75 12.85 36.0 L12.3 36.7 13.15 36.75 13.35 36.8 13.75 36.0 M9.7 31.7 L9.2 31.9 9.2 32.0 M9.7 31.7 L10.5 31.4 11.8 30.15 12.85 30.55 Q14.85 32.0 15.2 32.8 15.4 33.55 15.25 34.5 L15.1 34.55 14.35 35.0 13.75 36.0" fill="none" stroke="#000000" stroke-linecap="round" stroke-linejoin="round" stroke-opacity="0.3019608" stroke-width="0.4"/>
      <path d="M6.7 34.05 L6.95 34.05 Q7.4 33.75 8.75 35.0 9.65 36.6 10.8 36.85 11.2 38.1 10.65 38.8 L9.8 38.75 10.35 38.05 Q9.0 35.8 7.1 34.75 L6.95 34.7 6.7 34.05" fill="#873c24" fill-rule="evenodd" stroke="none"/>
      <path d="M10.65 38.8 Q11.2 38.1 10.8 36.85 9.65 36.6 8.75 35.0 7.4 33.75 6.95 34.05 L6.7 34.05 6.7 33.95 7.2 33.75 10.7 34.95 10.9 35.2 11.25 38.05 10.85 38.85 10.65 38.8 M12.7 34.85 Q12.9 35.6 12.75 36.55 L12.6 36.6 Q12.85 35.55 12.0 34.3 L11.1 34.0 11.5 35.0 9.75 33.9 8.95 33.1 11.6 33.75 12.7 34.85" fill="#c85a35" fill-rule="evenodd" stroke="none"/>
      <path d="M10.7 34.95 L7.2 33.75 8.0 33.45 9.3 32.2 10.35 32.6 Q12.35 34.05 12.7 34.85 L11.6 33.75 8.95 33.1 9.75 33.9 9.3 33.6 10.7 34.95" fill="#e0836d" fill-rule="evenodd" stroke="none"/>
      <path d="M11.25 38.05 L10.9 35.2 10.7 34.95 9.3 33.6 9.75 33.9 11.5 35.0 11.1 34.0 12.0 34.3 Q12.85 35.55 12.6 36.6 L11.85 37.05 11.25 38.05" fill="#964328" fill-rule="evenodd" stroke="none"/>
      <path d="M6.7 34.05 L6.95 34.7 7.1 34.75 Q9.0 35.8 10.35 38.05 L9.8 38.75 10.65 38.8 10.85 38.85 11.25 38.05 M7.2 33.75 L6.7 33.95 6.7 34.05 M7.2 33.75 L8.0 33.45 9.3 32.2 10.35 32.6 Q12.35 34.05 12.7 34.85 12.9 35.6 12.75 36.55 L12.6 36.6 11.85 37.05 11.25 38.05" fill="none" stroke="#000000" stroke-linecap="round" stroke-linejoin="round" stroke-opacity="0.3019608" stroke-width="0.4"/>
      <path d="M4.25 36.25 L4.5 36.25 Q4.95 35.95 6.3 37.2 7.2 38.8 8.35 39.05 8.75 40.3 8.2 41.0 L7.35 40.95 7.9 40.25 Q6.55 38.0 4.65 36.95 L4.5 36.9 4.25 36.25" fill="#873c24" fill-rule="evenodd" stroke="none"/>
      <path d="M8.2 41.0 Q8.75 40.3 8.35 39.05 7.2 38.8 6.3 37.2 4.95 35.95 4.5 36.25 L4.25 36.25 4.25 36.15 4.75 35.95 8.25 37.15 8.45 37.4 8.8 40.25 8.4 41.05 8.2 41.0 M10.25 37.05 Q10.45 37.8 10.3 38.75 L10.15 38.8 Q10.4 37.75 9.55 36.5 L8.65 36.2 9.05 37.2 7.3 36.1 6.5 35.3 9.15 35.95 10.25 37.05" fill="#c85a35" fill-rule="evenodd" stroke="none"/>
      <path d="M8.25 37.15 L4.75 35.95 5.55 35.65 6.85 34.4 7.9 34.8 Q9.9 36.25 10.25 37.05 L9.15 35.95 6.5 35.3 7.3 36.1 6.85 35.8 8.25 37.15" fill="#e0836d" fill-rule="evenodd" stroke="none"/>
      <path d="M8.8 40.25 L8.45 37.4 8.25 37.15 6.85 35.8 7.3 36.1 9.05 37.2 8.65 36.2 9.55 36.5 Q10.4 37.75 10.15 38.8 L9.4 39.25 8.8 40.25" fill="#964328" fill-rule="evenodd" stroke="none"/>
      <path d="M4.25 36.25 L4.5 36.9 4.65 36.95 Q6.55 38.0 7.9 40.25 L7.35 40.95 8.2 41.0 8.4 41.05 8.8 40.25 M4.75 35.95 L4.25 36.15 4.25 36.25 M4.75 35.95 L5.55 35.65 6.85 34.4 7.9 34.8 Q9.9 36.25 10.25 37.05 10.45 37.8 10.3 38.75 L10.15 38.8 9.4 39.25 8.8 40.25" fill="none" stroke="#000000" stroke-linecap="round" stroke-linejoin="round" stroke-opacity="0.3019608" stroke-width="0.4"/>
      <path d="M39.95 2.7 Q36.95 8.45 32.9 12.8 L33.35 12.05 Q33.35 11.1 32.25 11.7 31.1 12.3 31.1 13.25 L31.15 13.55 31.55 13.85 32.05 13.7 27.6 17.8 27.55 17.65 27.05 16.9 Q26.3 16.05 25.2 16.0 24.4 15.95 23.75 16.35 L24.6 15.5 31.7 10.1 31.75 10.2 31.85 10.25 Q32.35 10.8 33.05 10.8 L34.1 10.6 34.35 10.4 Q34.85 9.9 34.9 9.2 L34.9 8.85 34.75 8.45 34.45 7.95 34.3 7.8 Q36.95 4.9 39.95 2.7 M30.8 7.25 L30.75 7.25 30.8 7.2 30.8 7.25 M27.35 14.2 L27.35 14.5 Q27.45 14.7 27.8 14.7 28.3 14.7 28.3 14.2 28.3 13.55 27.85 13.6 27.35 13.7 27.35 14.2 M22.45 18.65 L22.7 19.7 23.0 20.2 23.15 20.35 Q23.8 21.1 24.75 21.25 L24.95 21.25 16.8 29.3 15.25 27.55 15.25 25.35 19.7 22.05 Q18.5 21.7 22.45 18.65 M28.3 15.05 L28.25 15.05 Q27.35 15.05 27.35 15.85 L27.4 16.3 Q27.55 16.65 27.95 16.65 L28.6 16.25 28.95 15.65 28.9 15.35 29.0 15.35 30.55 13.6 Q30.55 12.75 29.4 13.45 28.2 14.2 28.2 14.7 L28.3 15.05 M19.7 22.05 L18.1 24.95 17.45 26.0 Q17.55 26.45 18.1 26.45 L20.1 25.35 Q21.7 24.05 21.7 22.95 21.7 21.95 21.4 21.55 L21.8 20.75 Q21.8 19.4 20.7 20.9 L20.1 21.75 19.7 22.05" fill="#b0d0d5" fill-rule="evenodd" stroke="none"/>
      <path d="M30.8 7.25 L31.3 7.25 31.35 7.25 32.15 8.0 31.7 8.2 31.5 8.0 30.8 7.25 M22.85 17.2 L22.65 17.0 21.65 15.95 22.2 15.7 23.3 16.75 23.35 16.85 22.85 17.25 22.85 17.2" fill="#76aeb6" fill-rule="evenodd" stroke="none"/>
      <path d="M19.75 32.2 L24.85 27.05 32.85 21.35 36.3 16.95 38.2 12.35 41.05 2.45 41.85 2.35 37.55 16.65 36.85 17.65 36.35 18.4 32.8 22.9 32.45 23.3 32.4 23.35 30.8 23.5 31.25 24.65 30.1 25.85 Q28.35 25.75 26.65 26.5 25.25 27.1 23.9 28.35 L23.1 29.15 22.2 30.25 21.95 30.6 21.85 30.75 21.15 31.7 20.5 32.65 20.45 32.8 19.75 32.2" fill="#e1edee" fill-rule="evenodd" stroke="none"/>
      <path d="M34.1 10.6 L33.05 10.8 Q32.35 10.8 31.85 10.25 L31.75 10.2 31.7 10.1 Q31.4 9.6 31.4 9.0 L31.45 8.85 Q31.45 8.55 31.6 8.35 L31.7 8.2 32.15 8.0 32.05 8.25 31.95 8.8 31.95 8.85 Q31.9 9.45 32.25 10.0 L32.35 10.05 Q32.85 10.6 33.6 10.6 L34.1 10.6 M22.85 17.25 L23.35 16.85 23.05 17.95 23.05 18.1 23.05 18.4 Q23.0 19.2 23.55 19.85 L23.65 20.0 Q24.35 20.75 25.3 20.85 L25.5 20.85 26.0 20.85 26.45 20.8 26.85 20.65 26.2 21.05 26.0 21.15 25.7 21.25 24.95 21.25 24.75 21.25 Q23.8 21.1 23.15 20.35 L23.0 20.2 22.7 19.7 22.45 18.65 22.45 18.5 22.45 18.4 Q22.5 17.85 22.7 17.45 L22.85 17.25" fill="#5d878f" fill-rule="evenodd" stroke="none"/>
      <path d="M39.95 2.7 L39.95 2.55 41.05 2.45 38.2 12.35 36.3 16.95 32.85 21.35 24.85 27.05 19.75 32.2 19.05 31.55 19.55 31.4 25.1 26.25 29.7 23.3 30.25 22.9 Q32.8 20.95 34.65 18.4 L35.5 17.15 35.9 16.45 36.65 15.2 37.8 12.25 38.7 8.75 39.0 7.35 39.7 4.35 Q34.2 12.95 27.75 18.8 L27.75 18.5 27.75 18.4 27.6 17.8 32.05 13.7 32.9 12.8 Q36.95 8.45 39.95 2.7 M24.95 21.25 L25.7 21.25 24.2 22.9 23.8 23.3 19.35 28.1 18.95 28.55 18.6 28.9 17.55 30.15 16.8 29.3 24.95 21.25" fill="#fbfdfd" fill-rule="evenodd" stroke="none"/>
      <path d="M39.0 7.35 L38.7 8.75 37.8 12.25 36.65 15.2 35.9 16.45 35.5 17.15 34.65 18.4 Q32.8 20.95 30.25 22.9 L29.7 23.3 25.1 26.25 19.55 31.4 19.05 31.55 Q20.2 27.85 26.2 21.05 L26.85 20.65 26.9 20.6 27.65 19.5 39.0 7.35 M33.4 17.65 Q36.15 14.3 34.75 12.15 28.9 18.25 27.5 21.35 L26.75 21.9 Q26.45 21.45 25.4 22.45 23.85 23.85 23.85 24.8 L24.05 25.15 24.45 25.5 25.45 24.75 25.55 24.75 Q26.3 24.75 27.45 23.1 L32.75 18.4 33.4 17.65" fill="#62a3ac" fill-rule="evenodd" stroke="none"/>
      <path d="M28.9 15.35 L28.95 15.65 28.6 16.25 27.95 16.65 Q27.55 16.65 27.4 16.3 L27.35 15.85 Q27.35 15.05 28.25 15.05 L28.3 15.05 Q28.7 15.05 28.9 15.35" fill="#92bcc4" fill-rule="evenodd" stroke="none"/>
      <path d="M27.35 14.2 Q27.35 13.7 27.85 13.6 28.3 13.55 28.3 14.2 28.3 14.7 27.8 14.7 27.45 14.7 27.35 14.5 L27.35 14.2 M28.3 15.05 L28.2 14.7 Q28.2 14.2 29.4 13.45 30.55 12.75 30.55 13.6 L29.0 15.35 28.9 15.35 Q28.7 15.05 28.3 15.05" fill="#89b0b8" fill-rule="evenodd" stroke="none"/>
      <path d="M39.95 2.55 L39.95 2.7 Q36.45 3.15 36.0 3.9 L35.7 3.95 32.05 7.4 31.35 6.7 35.25 2.95 39.95 2.55 M30.75 7.25 L30.8 7.25 31.5 8.0 23.35 15.95 22.55 15.1 30.75 7.25 M22.65 17.0 L13.7 25.5 13.0 24.35 13.0 24.3 13.1 24.2 21.55 16.05 21.6 16.05 21.65 15.95 22.65 17.0" fill="#deeced" fill-rule="evenodd" stroke="none"/>
      <path d="M32.05 7.4 L35.7 3.95 36.0 3.9 Q36.45 3.15 39.95 2.7 36.85 3.4 35.05 5.4 L34.8 5.5 32.9 7.4 32.8 7.4 32.25 7.6 32.05 7.4 M24.6 15.5 L23.75 16.35 23.35 15.95 31.5 8.0 31.7 8.2 31.6 8.35 Q31.45 8.55 31.45 8.85 L24.6 15.5 M22.65 17.0 L22.85 17.2 13.95 25.85 13.7 25.5 22.65 17.0" fill="#ffffff" fill-rule="evenodd" stroke="none"/>
      <path d="M33.4 17.65 L34.7 15.0 Q34.7 13.25 32.75 15.25 30.8 17.25 30.8 18.15 L30.95 18.65 30.15 19.05 30.05 19.45 Q30.05 19.95 30.5 19.95 30.95 19.95 32.05 19.0 L32.75 18.4 27.45 23.1 28.15 21.9 Q28.15 21.0 27.5 21.35 28.9 18.25 34.75 12.15 36.15 14.3 33.4 17.65" fill="#559496" fill-rule="evenodd" stroke="none"/>
      <path d="M27.5 21.35 Q28.15 21.0 28.15 21.9 L27.45 23.1 Q26.3 24.75 25.55 24.75 L25.45 24.75 25.95 24.1 26.85 22.4 26.75 21.9 27.5 21.35" fill="#528d91" fill-rule="evenodd" stroke="none"/>
      <path d="M27.75 18.8 Q34.2 12.95 39.7 4.35 L39.0 7.35 27.65 19.5 27.75 19.1 27.75 18.8 M25.7 21.25 L26.0 21.15 26.2 21.05 Q20.2 27.85 19.05 31.55 L17.55 30.15 18.6 28.9 18.95 28.55 19.35 28.1 23.8 23.3 24.2 22.9 25.7 21.25 M26.75 21.9 L26.85 22.4 25.95 24.1 25.45 24.75 24.45 25.5 24.05 25.15 23.85 24.8 Q23.85 23.85 25.4 22.45 26.45 21.45 26.75 21.9" fill="#426c75" fill-rule="evenodd" stroke="none"/>
      <path d="M32.9 12.8 L32.05 13.7 31.55 13.85 31.15 13.55 31.1 13.25 Q31.1 12.3 32.25 11.7 33.35 11.1 33.35 12.05 L32.9 12.8" fill="#628f84" fill-rule="evenodd" stroke="none"/>
      <path d="M19.7 22.05 L20.1 21.75 20.7 20.9 Q21.8 19.4 21.8 20.75 L21.4 21.55 Q21.7 21.95 21.7 22.95 21.7 24.05 20.1 25.35 L18.1 26.45 Q17.55 26.45 17.45 26.0 L18.1 24.95 19.7 22.05" fill="#82a7b0" fill-rule="evenodd" stroke="none"/>
      <path d="M32.75 18.4 L32.05 19.0 Q30.95 19.95 30.5 19.95 30.05 19.95 30.05 19.45 L30.15 19.05 30.95 18.65 30.8 18.15 Q30.8 17.25 32.75 15.25 34.7 13.25 34.7 15.0 L33.4 17.65 32.75 18.4" fill="#497e82" fill-rule="evenodd" stroke="none"/>
      <path d="M39.95 2.7 Q36.95 4.9 34.3 7.8 33.85 7.45 33.25 7.35 L32.9 7.4 34.8 5.5 35.05 5.4 Q36.85 3.4 39.95 2.7 M31.7 10.1 L24.6 15.5 31.45 8.85 31.4 9.0 Q31.4 9.6 31.7 10.1" fill="#84b0b8" fill-rule="evenodd" stroke="none"/>
      <path d="M13.95 25.85 L22.85 17.2 22.85 17.25 22.7 17.45 Q22.5 17.85 22.45 18.4 L22.45 18.5 22.45 18.65 Q18.5 21.7 19.7 22.05 L15.25 25.35 15.25 27.55 13.95 25.85" fill="#7aa4ad" fill-rule="evenodd" stroke="none"/>
      <path d="M27.6 17.8 L27.75 18.4 27.75 18.5 27.75 18.8 M19.05 31.55 L19.75 32.2 M41.05 2.45 L39.95 2.55 35.25 2.95 31.35 6.7 32.05 7.4 M34.3 7.8 L34.45 7.95 34.75 8.45 34.9 8.85 34.9 9.2 Q34.85 9.9 34.35 10.4 L34.1 10.6 M23.75 16.35 Q24.4 15.95 25.2 16.0 26.3 16.05 27.05 16.9 L27.55 17.65 27.6 17.8 M41.05 2.45 L41.85 2.35 37.55 16.65 36.85 17.65 36.35 18.4 32.8 22.9 32.45 23.3 32.4 23.35 30.8 23.5 31.25 24.65 30.1 25.85 Q28.35 25.75 26.65 26.5 25.25 27.1 23.9 28.35 L23.1 29.15 22.2 30.25 21.95 30.6 21.85 30.75 21.15 31.7 20.5 32.65 M20.45 32.8 L19.75 32.2 M32.9 7.4 L32.8 7.4 32.25 7.6 32.05 7.4 M34.3 7.8 Q33.85 7.45 33.25 7.35 L32.9 7.4 M30.8 7.25 L31.3 7.25 31.35 7.25 32.15 8.0 32.05 8.25 31.95 8.8 31.95 8.85 Q31.9 9.45 32.25 10.0 L32.35 10.05 Q32.85 10.6 33.6 10.6 L34.1 10.6 M30.8 7.25 L30.75 7.25 22.55 15.1 23.35 15.95 M30.8 7.25 L30.8 7.2 30.75 7.25 M13.7 25.5 L13.95 25.85 M23.35 16.85 L23.3 16.75 22.2 15.7 21.65 15.95 M26.85 20.65 L26.45 20.8 26.0 20.85 25.5 20.85 25.3 20.85 Q24.35 20.75 23.65 20.0 L23.55 19.85 Q23.0 19.2 23.05 18.4 L23.05 18.1 23.05 17.95 23.35 16.85 M23.75 16.35 L23.35 15.95 M13.1 24.2 L21.55 16.05 21.6 16.05 21.65 15.95 M27.65 19.5 L27.75 19.1 27.75 18.8 M26.85 20.65 L26.9 20.6 27.65 19.5 M15.25 27.55 L16.8 29.3 M15.25 27.55 L13.95 25.85 M13.7 25.5 L13.0 24.35 M19.05 31.55 L17.55 30.15" fill="none" stroke="#000000" stroke-linecap="round" stroke-linejoin="round" stroke-opacity="0.3019608" stroke-width="0.4"/>
      <path d="M34.1 10.6 L33.05 10.8 Q32.35 10.8 31.85 10.25 L31.75 10.2 31.7 10.1 M31.45 8.85 L31.4 9.0 Q31.4 9.6 31.7 10.1 M22.85 17.25 L22.7 17.45 Q22.5 17.85 22.45 18.4 L22.45 18.5 22.45 18.65 22.7 19.7 23.0 20.2 23.15 20.35 Q23.8 21.1 24.75 21.25 L24.95 21.25" fill="none" stroke="#ffffff" stroke-linecap="round" stroke-linejoin="round" stroke-opacity="0.5921569" stroke-width="0.4"/>
      <path d="M34.4 2.25 Q39.4 4.55 40.2 10.6 41.0 16.85 37.5 23.2 34.05 29.65 28.25 32.55 22.45 35.5 17.55 33.15 12.7 30.85 11.65 24.65 10.85 18.5 14.4 12.15 17.9 5.7 23.75 2.8 29.6 -0.1 34.4 2.25" fill="url(#gradient0)" fill-rule="evenodd" stroke="none"/>
      <path d="M21.0 32.15 L22.9 34.8 22.65 35.45 21.7 35.15 22.75 35.95 22.6 35.95 23.45 37.15 23.35 37.15 23.45 37.2 23.35 37.15 23.45 37.2 Q24.75 38.4 27.6 39.25 L27.25 39.35 26.95 39.25 Q24.7 38.8 23.45 37.8 22.0 36.5 21.3 35.15 L22.35 37.4 20.95 37.7 20.6 37.1 20.8 35.85 20.55 32.75 21.0 32.15 M28.3 35.7 L27.9 35.8 Q23.95 36.4 22.65 35.45 L24.25 35.0 24.25 34.95 Q25.6 35.75 28.4 35.6 L28.3 35.7 M8.65 22.75 L10.5 23.75 10.25 23.5 9.95 22.15 Q9.55 21.35 13.15 24.3 L13.05 24.4 13.05 24.45 12.85 27.0 12.7 26.95 11.75 26.4 10.35 25.4 9.85 24.85 8.15 23.0 Q7.05 21.35 6.95 20.65 L8.65 22.75" fill="#954a4a" fill-rule="evenodd" stroke="none"/>
      <path d="M22.9 34.8 L23.8 32.3 24.25 34.95 24.25 35.0 22.65 35.45 22.9 34.8 M23.45 37.15 L22.6 35.95 22.75 35.95 27.9 35.8 28.3 35.7 28.2 35.8 Q26.3 37.25 23.45 37.15 M8.65 22.75 Q8.25 20.4 9.2 17.8 L9.25 18.15 Q9.35 20.55 9.65 21.95 9.85 23.05 10.25 23.5 L10.5 23.75 8.65 22.75 M13.55 20.55 L11.7 21.95 12.5 22.7 10.75 22.25 13.55 20.55 M13.05 24.45 L14.8 27.05 16.7 29.2 16.8 29.4 17.6 30.25 18.45 31.05 19.1 31.65 20.5 32.9 20.55 32.75 20.8 35.85 16.45 29.1 12.7 26.95 12.85 27.0 13.05 24.45 M7.75 25.15 Q6.7 23.55 5.95 19.2 L6.45 20.0 Q7.25 22.8 9.95 25.45 L7.75 25.15 M26.95 39.25 L27.25 39.35 Q24.35 39.6 21.25 38.4 L20.95 37.7 22.35 37.4 Q24.05 38.75 26.95 39.25" fill="#663333" fill-rule="evenodd" stroke="none"/>
      <path d="M21.0 32.15 L21.2 31.8 Q21.7 32.65 22.85 33.35 L23.65 31.25 23.8 32.3 22.9 34.8 21.0 32.15 M22.75 35.95 L21.7 35.15 22.65 35.45 Q23.95 36.4 27.9 35.8 L22.75 35.95 M10.25 23.5 Q9.85 23.05 9.65 21.95 9.35 20.55 9.25 18.15 9.45 19.75 10.0 20.9 L10.3 21.4 10.25 21.25 13.55 20.55 10.75 22.25 12.5 22.7 13.8 23.55 13.15 24.3 Q9.55 21.35 9.95 22.15 L10.25 23.5 M6.45 20.0 L6.95 20.65 Q7.05 21.35 8.15 23.0 L9.85 24.85 10.35 25.4 11.75 26.4 9.95 25.45 Q7.25 22.8 6.45 20.0 M22.35 37.4 L21.3 35.15 Q22.0 36.5 23.45 37.8 24.7 38.8 26.95 39.25 24.05 38.75 22.35 37.4" fill="#ddbbbb" fill-rule="evenodd" stroke="none"/>
      <path d="M7.75 25.15 L9.95 25.45 11.75 26.4 12.7 26.95 16.45 29.1 20.8 35.85 20.6 37.1 18.45 33.6 17.35 32.2 14.05 28.9 12.6 27.85 11.8 27.3 11.35 27.05 7.75 25.15" fill="#3b1d1d" fill-rule="evenodd" stroke="none"/>
      <path d="M23.8 32.3 L23.65 31.25 22.85 33.35 Q21.7 32.65 21.2 31.8 M23.45 37.15 Q26.3 37.25 28.2 35.8 L28.3 35.7 M23.8 32.3 L24.25 34.95 Q25.6 35.75 28.4 35.6 L28.3 35.7 M9.25 18.15 L9.2 17.8 Q8.25 20.4 8.65 22.75 M9.25 18.15 Q9.45 19.75 10.0 20.9 L10.3 21.4 10.25 21.25 13.55 20.55 11.7 21.95 12.5 22.7 13.8 23.55 M13.05 24.4 L13.05 24.45 M16.8 29.4 L17.6 30.25 M20.5 32.9 L20.55 32.75 M7.75 25.15 Q6.7 23.55 5.95 19.2 L6.45 20.0 6.95 20.65 8.65 22.75 M7.75 25.15 L11.35 27.05 11.8 27.3 12.6 27.85 14.05 28.9 17.35 32.2 18.45 33.6 20.6 37.1 M27.25 39.35 L27.6 39.25 Q24.75 38.4 23.45 37.2 L23.35 37.15 23.45 37.15 M27.25 39.35 Q24.35 39.6 21.25 38.4 L20.95 37.7 20.6 37.1 M23.35 37.15 L23.45 37.2" fill="none" stroke="#000000" stroke-linecap="round" stroke-linejoin="round" stroke-opacity="0.3019608" stroke-width="0.4"/>
    </g>
    <radialGradient cx="0" cy="0" gradientTransform="matrix(0.0134, -0.0244, 0.0184, 0.0088, 26.0, 17.7)" gradientUnits="userSpaceOnUse" id="gradient0" r="819.2" spreadMethod="pad">
      <stop offset="0.0" stop-color="#ffffde" stop-opacity="0.52156866"/>
      <stop offset="0.4117647058823529" stop-color="#ffffcc" stop-opacity="0.0"/>
    </radialGradient>
  </defs>
</svg>
