<?xml version="1.0" encoding="UTF-8" standalone="no"?>
<svg xmlns:xlink="http://www.w3.org/1999/xlink" height="440.0px" width="440.0px" xmlns="http://www.w3.org/2000/svg">
  <g transform="matrix(10.0, 0.0, 0.0, 10.0, 0.0, 0.0)">
    <use height="44.0" transform="matrix(1.0, 0.0, 0.0, 1.0, 0.0, 0.0)" width="44.0" xlink:href="#shape0"/>
  </g>
  <defs>
    <g id="shape0" transform="matrix(1.0, 0.0, 0.0, 1.0, 0.0, 0.0)">
      <path d="M44.0 44.0 L0.0 44.0 0.0 0.0 44.0 0.0 44.0 44.0" fill="#33cc33" fill-opacity="0.0" fill-rule="evenodd" stroke="none"/>
      <path d="M18.5 39.3 L19.85 40.65 Q17.9 36.7 17.5 32.45 L17.15 32.4 Q16.7 35.1 18.5 39.3" fill="#929123" fill-rule="evenodd" stroke="none"/>
      <path d="M18.5 39.3 Q16.7 35.1 17.15 32.4 M17.5 32.45 Q17.9 36.7 19.85 40.65" fill="none" stroke="#382510" stroke-linecap="round" stroke-linejoin="round" stroke-opacity="0.2" stroke-width="0.4"/>
      <path d="M19.85 40.65 L18.5 39.3 Z" fill="none" stroke="#382510" stroke-linecap="round" stroke-linejoin="round" stroke-opacity="0.15294118" stroke-width="0.2"/>
      <path d="M18.05 43.4 L16.7 40.55 Q15.85 34.15 17.7 31.7 L18.05 32.1 Q16.9 37.1 18.05 43.4" fill="#929123" fill-rule="evenodd" stroke="none"/>
      <path d="M16.7 40.55 Q15.85 34.15 17.7 31.7 M18.05 32.1 Q16.9 37.1 18.05 43.4" fill="none" stroke="#382510" stroke-linecap="round" stroke-linejoin="round" stroke-opacity="0.2" stroke-width="0.4"/>
      <path d="M18.05 43.4 L16.7 40.55 Z" fill="none" stroke="#382510" stroke-linecap="round" stroke-linejoin="round" stroke-opacity="0.15294118" stroke-width="0.2"/>
      <path d="M29.85 2.1 Q34.95 2.65 38.4 6.6 L35.75 8.15 39.55 9.75 Q39.55 11.55 38.85 13.8 32.3 13.6 29.45 10.55 L29.75 9.3 Q30.9 4.1 29.85 2.1 M36.45 16.65 L38.35 17.7 35.3 17.3 34.9 16.85 34.35 15.9 36.45 16.65 M18.2 25.75 Q23.1 21.5 25.55 18.5 L25.7 18.35 Q30.05 18.7 32.45 22.05 L24.4 27.1 22.35 26.65 26.55 22.65 21.05 26.35 18.2 25.75" fill="#d8cdb8" fill-rule="evenodd" stroke="none"/>
      <path d="M17.7 31.25 L17.25 30.6 22.35 26.65 24.4 27.1 17.7 31.25 M16.35 29.4 L15.4 28.05 18.2 25.75 21.05 26.35 16.35 29.4" fill="#b69e7c" fill-rule="evenodd" stroke="none"/>
      <path d="M38.85 13.8 L37.95 16.5 36.45 16.65 34.35 15.9 34.9 16.85 34.15 16.85 34.45 19.6 34.45 19.7 33.25 20.5 32.65 21.95 32.45 22.05 Q30.05 18.7 25.7 18.35 28.25 15.05 29.45 10.55 32.3 13.6 38.85 13.8" fill="#ede7de" fill-rule="evenodd" stroke="none"/>
      <path d="M29.85 2.1 L29.75 1.9 28.45 1.9 28.65 1.45 29.1 1.1 Q34.35 1.35 38.4 4.55 40.05 5.8 40.7 7.4 L37.9 7.85 41.05 8.35 Q41.55 10.35 40.7 12.85 L40.25 14.3 38.35 17.7 36.45 16.65 37.95 16.5 38.85 13.8 Q39.55 11.55 39.55 9.75 L35.75 8.15 38.4 6.6 Q34.95 2.65 29.85 2.1 M35.3 17.3 L37.2 19.35 Q35.7 21.2 33.7 22.7 L31.85 24.0 26.25 27.45 18.3 32.1 17.7 31.25 24.4 27.1 32.45 22.05 32.65 21.95 33.25 20.5 34.45 19.7 34.45 19.6 34.15 16.85 34.9 16.85 35.3 17.3" fill="#fbf2d0" fill-rule="evenodd" stroke="none"/>
      <path d="M17.25 30.6 L16.35 29.4 21.05 26.35 26.55 22.65 22.35 26.65 17.25 30.6" fill="#a4865b" fill-rule="evenodd" stroke="none"/>
      <path d="M38.35 17.7 L40.25 14.3 40.7 12.85 Q41.55 10.35 41.05 8.35 L37.9 7.85 40.7 7.4 Q40.05 5.8 38.4 4.55 34.35 1.35 29.1 1.1 L28.65 1.45 28.45 1.9 29.75 1.9 29.85 2.1 M38.35 17.7 L35.3 17.3 37.2 19.35 Q35.7 21.2 33.7 22.7 L31.85 24.0 26.25 27.45 18.3 32.1 17.7 31.25 17.25 30.6 16.35 29.4 15.4 28.05 18.2 25.75 Q23.1 21.5 25.55 18.5 L25.7 18.35 Q28.25 15.05 29.45 10.55 L29.75 9.3 Q30.9 4.1 29.85 2.1 M22.35 26.65 L17.25 30.6 M26.55 22.65 L22.35 26.65" fill="none" stroke="#474030" stroke-linecap="round" stroke-linejoin="round" stroke-opacity="0.3019608" stroke-width="0.5"/>
      <path d="M17.05 29.45 L17.6 29.75 18.05 30.6 18.4 31.4 17.9 32.95 17.05 33.45 16.85 31.4 15.9 30.15 17.05 29.45 M13.05 36.35 L12.7 37.1 10.1 38.75 10.1 38.6 10.7 38.25 10.65 35.9 10.35 35.15 9.5 34.45 11.7 33.0 11.75 33.05 12.85 34.35 Q13.3 35.3 13.05 36.35 M12.7 37.1 L10.7 38.25 12.7 37.1" fill="#b9ae9a" fill-rule="evenodd" stroke="none"/>
      <path d="M15.3 30.5 L15.95 31.0 16.65 33.1 16.35 33.8 16.3 34.4 13.55 36.6 14.1 35.45 13.7 33.8 12.6 32.65 15.3 30.5" fill="#3c4a4f" fill-rule="evenodd" stroke="none"/>
      <path d="M20.0 28.85 L20.0 28.75 20.05 28.85 20.0 28.85" fill="#52a3d8" fill-rule="evenodd" stroke="none"/>
      <path d="M13.55 36.6 L13.05 36.35 Q13.3 35.3 12.85 34.35 L11.75 33.05 11.7 33.0 10.85 32.15 10.95 31.45 12.45 32.45 12.6 32.65 13.7 33.8 14.1 35.45 13.55 36.6" fill="#3a3e3b" fill-rule="evenodd" stroke="none"/>
      <path d="M14.05 29.7 L14.4 29.3 15.7 29.95 15.9 30.15 16.85 31.4 17.05 33.45 16.7 33.65 16.35 33.8 16.65 33.1 15.95 31.0 15.3 30.5 14.25 29.65 14.05 29.7 M7.6 33.75 L8.05 33.5 9.5 34.45 10.35 35.15 10.65 35.9 10.7 38.25 10.1 38.6 10.05 35.95 9.5 35.2 8.4 33.95 7.6 33.75" fill="#92846f" fill-rule="evenodd" stroke="none"/>
      <path d="M13.5 29.75 L14.05 29.7 14.25 29.65 15.3 30.5 12.6 32.65 12.45 32.45 10.95 31.45 12.9 29.85 13.5 29.75" fill="#495c61" fill-rule="evenodd" stroke="none"/>
      <path d="M14.4 29.3 L14.75 28.95 15.7 28.7 17.05 29.45 15.9 30.15 15.7 29.95 14.4 29.3 M8.05 33.5 L9.9 32.15 10.7 31.95 10.85 32.15 11.7 33.0 9.5 34.45 8.05 33.5" fill="#e2dccb" fill-rule="evenodd" stroke="none"/>
      <path d="M20.0 28.75 L20.0 28.85 14.55 27.5 15.3 26.75 17.65 26.6 20.0 28.75 M4.6 34.55 L6.45 33.35 7.6 33.75 8.4 33.95 9.5 35.2 4.6 34.55" fill="#fd5910" fill-rule="evenodd" stroke="none"/>
      <path d="M20.0 28.85 L20.05 28.85 20.2 31.35 19.9 31.85 Q18.7 31.85 18.05 30.6 L17.6 29.75 17.05 29.45 15.7 28.7 14.75 28.95 14.4 29.3 14.05 29.7 13.5 29.75 13.9 28.25 14.35 27.75 14.55 27.5 20.0 28.85 M10.1 38.75 L9.9 39.2 Q9.05 39.2 8.6 37.55 L7.95 36.0 6.8 35.55 5.15 36.1 3.4 37.35 3.45 36.1 4.6 34.55 9.5 35.2 10.05 35.95 10.1 38.6 10.1 38.75" fill="#bb2626" fill-rule="evenodd" stroke="none"/>
      <path d="M18.05 30.6 Q18.7 31.85 19.9 31.85 L19.3 32.8 17.9 33.7 16.7 33.65 17.05 33.45 17.9 32.95 18.4 31.4 18.05 30.6 M9.9 39.2 L9.45 40.4 7.5 41.35 6.35 41.6 6.1 41.1 6.95 40.55 8.2 39.15 8.6 37.55 Q9.05 39.2 9.9 39.2" fill="#821a1a" fill-rule="evenodd" stroke="none"/>
      <path d="M20.05 28.85 L20.0 28.75 17.65 26.6 15.3 26.75 14.55 27.5 M13.5 29.75 L14.05 29.7 14.4 29.3 14.75 28.95 15.7 28.7 17.05 29.45 17.6 29.75 18.05 30.6 M19.9 31.85 L20.2 31.35 20.05 28.85 M14.05 29.7 L14.25 29.65 15.3 30.5 15.95 31.0 16.65 33.1 16.35 33.8 16.7 33.65 17.05 33.45 17.9 32.95 18.4 31.4 18.05 30.6 M10.95 31.45 L12.9 29.85 13.5 29.75 13.9 28.25 14.35 27.75 M19.9 31.85 L19.3 32.8 17.9 33.7 16.7 33.65 M16.35 33.8 L16.3 34.4 13.55 36.6 13.05 36.35 12.7 37.1 M10.1 38.75 L9.9 39.2 9.45 40.4 7.5 41.35 6.35 41.6 6.1 41.1 6.95 40.55 8.2 39.15 8.6 37.55 7.95 36.0 6.8 35.55 5.15 36.1 3.4 37.35 3.45 36.1 4.6 34.55 6.45 33.35 7.6 33.75 8.05 33.5 9.9 32.15 10.7 31.95 10.85 32.15 10.95 31.45 M11.7 33.0 L10.85 32.15 M13.05 36.35 Q13.3 35.3 12.85 34.35 L11.75 33.05 11.7 33.0 M10.7 38.25 L12.7 37.1 M10.1 38.75 L10.1 38.6 10.05 35.95 9.5 35.2 8.4 33.95 7.6 33.75 M10.1 38.6 L10.7 38.25" fill="none" stroke="#382510" stroke-linecap="round" stroke-linejoin="round" stroke-opacity="0.2" stroke-width="0.30000000000000004"/>
      <path d="M18.4 31.3 L17.9 32.95 16.4 33.75 16.3 34.35 13.6 36.6 13.1 36.3 12.75 37.1 10.15 38.5 10.1 36.35 18.05 30.45 18.4 31.3" fill="#382510" fill-opacity="0.3019608" fill-rule="evenodd" stroke="none"/>
      <path d="M4.35 36.6 Q3.95 36.95 3.95 37.45 3.95 37.95 4.35 38.25 4.65 38.65 5.15 38.65 5.6 38.65 6.0 38.25 L6.25 37.75 7.15 37.75 6.25 37.05 6.1 36.8 6.0 36.6 Q5.6 36.25 5.15 36.25 4.65 36.25 4.35 36.6 M4.35 40.1 L4.1 39.9 Q3.3 39.0 3.3 37.85 3.3 36.65 4.1 35.9 5.0 35.15 6.15 35.25 L7.15 35.5 Q8.95 37.45 7.45 39.35 6.75 40.8 4.35 40.1" fill="#aaa080" fill-rule="evenodd" stroke="none"/>
      <path d="M7.15 35.5 L8.15 36.25 Q8.95 37.1 8.95 38.35 8.95 39.5 8.15 40.25 7.3 41.0 6.15 40.9 5.1 40.8 4.35 40.1 6.75 40.8 7.45 39.35 8.95 37.45 7.15 35.5" fill="#71684a" fill-rule="evenodd" stroke="none"/>
      <path d="M4.35 36.6 Q4.65 36.25 5.15 36.25 5.6 36.25 6.0 36.6 L6.1 36.8 6.25 37.05 7.15 37.75 6.25 37.75 6.0 38.25 Q5.6 38.65 5.15 38.65 4.65 38.65 4.35 38.25 3.95 37.95 3.95 37.45 3.95 36.95 4.35 36.6" fill="#eae3d9" fill-rule="evenodd" stroke="none"/>
      <path d="M4.35 40.1 L4.1 39.9 Q3.3 39.0 3.3 37.85 3.3 36.65 4.1 35.9 5.0 35.15 6.15 35.25 L7.15 35.5 8.15 36.25 Q8.95 37.1 8.95 38.35 8.95 39.5 8.15 40.25 7.3 41.0 6.15 40.9 5.1 40.8 4.35 40.1 Z" fill="none" stroke="#2e393d" stroke-linecap="round" stroke-linejoin="round" stroke-opacity="0.5019608" stroke-width="0.7000000000000001"/>
    </g>
  </defs>
</svg>
