<?xml version="1.0" encoding="UTF-8" standalone="no"?>
<svg xmlns:xlink="http://www.w3.org/1999/xlink" height="440.0px" width="440.0px" xmlns="http://www.w3.org/2000/svg">
  <g transform="matrix(10.0, 0.0, 0.0, 10.0, 0.0, 0.0)">
    <use height="44.0" transform="matrix(1.0, 0.0, 0.0, 1.0, 0.0, 0.0)" width="44.0" xlink:href="#shape0"/>
  </g>
  <defs>
    <g id="shape0" transform="matrix(1.0, 0.0, 0.0, 1.0, 0.0, 0.0)">
      <path d="M44.0 44.0 L0.0 44.0 0.0 0.0 44.0 0.0 44.0 44.0" fill="#43adca" fill-opacity="0.0" fill-rule="evenodd" stroke="none"/>
      <path d="M39.35 9.35 L39.4 11.65 42.2 14.45 43.15 13.55 Q41.85 11.2 41.35 8.15 L39.05 8.55 Q35.4 7.1 32.25 4.5 L31.0 5.75 23.0 2.45 M16.45 31.45 L16.85 30.85 15.85 30.6 15.65 30.55 15.85 27.85 16.2 27.1 20.55 27.1 25.0 32.9 25.05 33.25 25.35 32.9 25.85 32.15 26.05 31.05 Q26.5 25.65 24.95 23.8 L25.7 17.8 M3.45 22.65 L5.5 25.7 8.15 29.0 8.3 29.05 8.35 29.1 12.25 32.75 13.2 33.4 13.55 33.6 Q17.95 36.65 23.1 37.4 L25.65 36.8 25.5 34.55 24.55 34.45 24.15 34.4 21.55 34.1 20.9 35.9 22.85 36.4 22.85 35.85 M13.2 33.4 L10.15 34.5 7.15 34.4 7.55 35.05 9.8 36.35 11.8 35.65 12.25 35.15 13.55 33.6 M18.5 30.25 L16.85 30.85 M4.8 32.25 L6.85 33.9 6.2 32.65 6.15 30.75 4.8 32.25 3.75 33.65 3.75 34.75 M7.15 34.4 L6.85 33.9 M6.15 30.75 L8.15 29.0 M3.75 33.65 L2.55 35.55 M6.25 40.1 L8.1 38.9 9.95 37.45 7.65 38.3 M9.95 37.45 L11.8 35.65 M25.85 32.15 L26.55 31.3 26.8 31.0 27.25 28.6 28.25 28.8 Q35.4 20.7 42.2 14.45 M24.55 34.45 L24.4 34.3 24.15 34.4 M24.4 34.3 L25.05 33.9 25.05 33.25 M25.35 32.9 L26.65 31.35 26.55 31.3" fill="none" stroke="#000000" stroke-linecap="round" stroke-linejoin="round" stroke-opacity="0.3019608" stroke-width="0.05"/>
      <path d="M30.45 7.45 L30.2 8.65 M30.35 9.7 L29.9 9.85 29.35 12.3 26.25 16.55 M30.05 9.3 L29.9 9.85 M35.15 7.75 L31.1 9.4 M8.6 18.05 L6.45 18.8 6.0 20.35 5.95 20.4 6.7 20.45 6.8 21.05 7.2 20.5 7.25 20.1 7.5 19.25 7.95 19.4 8.45 18.7 M5.05 22.3 L4.35 22.25 5.2 24.15 7.5 23.8 6.95 21.8 6.9 21.6 6.8 21.1 6.8 21.05 M3.1 22.35 L4.15 20.25 5.95 20.4 M6.95 21.8 L7.0 21.65 6.9 21.6 M7.0 21.65 L7.2 20.5 M12.8 25.35 L12.8 27.05 13.35 28.0 15.9 27.05 15.95 27.05 16.1 26.1 14.2 21.85 7.95 19.4 M11.9 28.0 L12.8 27.05" fill="none" stroke="#000000" stroke-linecap="round" stroke-linejoin="round" stroke-opacity="0.3019608" stroke-width="0.05"/>
      <path d="M5.8 34.7 Q7.0 35.1 7.55 36.3 8.05 37.55 7.55 38.65 6.95 39.8 5.75 40.4 4.5 40.85 3.3 40.4 2.2 40.05 1.65 38.95 1.2 37.75 1.8 36.6 2.3 35.5 3.45 34.85 L5.8 34.7" fill="#760101" fill-rule="evenodd" stroke="none"/>
      <path d="M5.8 34.7 L3.45 34.85 Q2.3 35.5 1.8 36.6 1.2 37.75 1.65 38.95 2.2 40.05 3.3 40.4 4.5 40.85 5.75 40.4 6.95 39.8 7.55 38.65 8.05 37.55 7.55 36.3 7.0 35.1 5.8 34.7 Z" fill="none" stroke="#382510" stroke-linecap="round" stroke-linejoin="round" stroke-opacity="0.5019608" stroke-width="0.05"/>
      <path d="M1.95 36.65 Q2.5 35.75 3.55 35.35 L5.5 35.2 Q6.45 35.5 6.85 36.55 7.25 37.4 6.8 38.4 6.4 39.4 5.35 39.9 L3.35 39.95 Q2.4 39.65 1.95 38.6 1.6 37.65 1.95 36.65" fill="#560000" fill-rule="evenodd" stroke="none"/>
      <path d="M3.75 37.9 L3.9 39.6 Q3.95 40.25 3.45 40.2 2.85 40.05 2.45 39.55 L2.25 38.25 Q2.25 37.5 2.65 37.05 3.1 36.45 3.55 36.4 4.1 36.45 3.9 36.7 3.75 37.0 3.75 37.9" fill="#c92d18" fill-rule="evenodd" stroke="none"/>
      <path d="M10.15 34.5 L10.55 34.9 Q10.55 35.5 9.8 36.35 L7.55 35.05 7.15 34.4 10.15 34.5 M5.8 33.05 L6.2 32.65 6.85 33.9 5.8 33.05 M7.4 38.45 L5.45 39.8 Q3.9 39.1 3.0 37.75 L3.75 36.0 4.6 37.9 7.4 38.45 M4.6 37.9 L5.45 39.8 4.6 37.9" fill="#ae8b51" fill-rule="evenodd" stroke="none"/>
      <path d="M9.8 36.35 Q10.55 35.5 10.55 34.9 L10.15 34.5 12.0 33.9 10.15 34.5 9.1 33.4 Q7.9 32.75 7.95 30.95 7.95 30.0 8.35 28.85 L8.35 31.3 9.65 32.8 12.0 33.9 10.75 36.0 9.8 36.35 10.75 36.0 9.2 37.75 7.4 38.45 9.2 37.75 8.1 38.9 6.25 40.1 5.45 39.8 7.4 38.45 Q9.05 37.3 9.8 36.35" fill="#826840" fill-rule="evenodd" stroke="none"/>
      <path d="M10.75 36.0 L12.0 33.9 13.75 33.2 11.8 35.65 10.75 36.0 11.8 35.65 9.95 37.45 8.1 38.9 9.2 37.75 10.75 36.0 M9.95 37.45 L9.2 37.75 9.95 37.45" fill="#ad8e63" fill-rule="evenodd" stroke="none"/>
      <path d="M10.15 34.5 L7.15 34.4 7.55 35.05 9.8 36.35 Q9.05 37.3 7.4 38.45 L4.6 37.9 3.75 36.0 5.8 33.05 6.85 33.9 6.2 32.65 7.95 30.95 Q7.9 32.75 9.1 33.4 L10.15 34.5 M7.15 34.4 L6.85 33.9 7.15 34.4" fill="#9d7b48" fill-rule="evenodd" stroke="none"/>
      <path d="M13.75 33.2 L12.0 33.9 9.65 32.8 8.35 31.3 8.35 28.85 11.15 26.8 15.25 30.75 13.75 33.2" fill="#665133" fill-rule="evenodd" stroke="none"/>
      <path d="M8.35 28.85 Q7.95 30.0 7.95 30.95 L6.2 32.65 5.8 33.05 3.75 36.0 3.75 33.65 3.75 36.0 3.0 37.75 Q2.45 37.05 2.2 36.15 2.85 34.85 3.75 33.65 L4.8 32.25 6.15 30.75 8.35 28.85 M6.2 32.65 L6.15 30.75 6.2 32.65 M4.8 32.25 L5.8 33.05 4.8 32.25" fill="#dbb27c" fill-rule="evenodd" stroke="none"/>
      <path d="M9.8 36.35 L10.75 36.0 11.8 35.65 13.75 33.2 12.0 33.9 10.15 34.5 7.15 34.4 7.55 35.05 9.8 36.35 M7.4 38.45 L9.2 37.75 9.95 37.45 11.8 35.65 M13.75 33.2 L15.25 30.75 11.15 26.8 8.35 28.85 6.15 30.75 6.2 32.65 M5.8 33.05 L6.85 33.9 6.2 32.65 M3.0 37.75 Q2.45 37.05 2.2 36.15 2.85 34.85 3.75 33.65 L4.8 32.25 6.15 30.75 M6.85 33.9 L7.15 34.4 M3.75 33.65 L3.75 36.0 4.6 37.9 7.4 38.45 M5.8 33.05 L4.8 32.25 M5.45 39.8 L6.25 40.1 8.1 38.9 9.95 37.45 M5.45 39.8 Q3.9 39.1 3.0 37.75 M5.45 39.8 L4.6 37.9" fill="none" stroke="#000000" stroke-linecap="round" stroke-linejoin="round" stroke-opacity="0.3019608" stroke-width="0.05"/>
      <path d="M24.35 34.0 L26.7 31.3 Q16.15 26.95 9.85 17.45 L6.5 18.75 6.05 20.35 3.25 22.3 Q11.65 35.85 23.25 37.35 L25.35 36.3 24.35 34.0" fill="#e6b100" fill-rule="evenodd" stroke="none"/>
      <path d="M24.35 34.0 L26.7 31.3 Q16.15 26.95 9.85 17.45 L6.5 18.75 6.05 20.35 3.25 22.3 Q11.65 35.85 23.25 37.35 L25.35 36.3 24.35 34.0 Z" fill="none" stroke="#000000" stroke-linecap="round" stroke-linejoin="round" stroke-opacity="0.3019608" stroke-width="0.05"/>
      <path d="M42.15 14.4 Q35.35 20.65 28.2 28.75 L27.2 28.5 26.7 30.95 25.8 32.1 Q26.55 25.7 24.95 23.8 L25.65 17.2 29.3 12.15 29.85 9.8 30.4 7.4 30.45 7.35 31.75 5.45 35.15 7.65 Q37.25 8.95 39.2 9.35 L39.3 9.3 39.3 11.6 42.15 14.4 M35.15 7.65 L29.85 9.8 35.15 7.65" fill="#5c5334" fill-rule="evenodd" stroke="none"/>
      <path d="M6.6 21.2 L9.15 17.6 23.0 2.4 22.75 3.4 6.6 21.2" fill="#4f462c" fill-rule="evenodd" stroke="none"/>
      <path d="M43.1 13.5 L42.15 14.4 39.3 11.6 39.3 9.3 41.0 9.15 Q41.5 11.9 43.1 13.5 M25.8 32.1 L23.7 34.85 Q13.65 30.2 6.6 21.2 L22.75 3.4 30.4 7.4 29.85 9.8 29.3 12.15 25.65 17.2 24.95 23.8 Q26.55 25.7 25.8 32.1 M24.95 18.35 L25.65 17.2 24.95 18.35" fill="#50482d" fill-rule="evenodd" stroke="none"/>
      <path d="M23.0 2.4 L30.9 5.65 32.25 4.45 Q35.35 7.05 39.05 8.5 L41.3 8.1 Q41.8 11.15 43.1 13.5 41.5 11.9 41.0 9.15 L39.3 9.3 39.2 9.35 Q37.25 8.95 35.15 7.65 L31.75 5.45 30.45 7.35 30.4 7.4 22.75 3.4 23.0 2.4" fill="#bda96b" fill-rule="evenodd" stroke="none"/>
      <path d="M23.0 2.4 L30.9 5.65 32.25 4.45 Q35.35 7.05 39.05 8.5 L41.3 8.1 Q41.8 11.15 43.1 13.5 L42.15 14.4 Q35.35 20.65 28.2 28.75 L27.2 28.5 26.7 30.95 25.8 32.1 23.7 34.85 Q13.65 30.2 6.6 21.2 L9.15 17.6 23.0 2.4 M30.4 7.4 L30.45 7.35 M25.65 17.2 L24.95 18.35 M29.85 9.8 L29.3 12.15 25.65 17.2 24.95 23.8 Q26.55 25.7 25.8 32.1 M39.3 9.3 L39.3 11.6 42.15 14.4 M30.4 7.4 L29.85 9.8 35.15 7.65" fill="none" stroke="#000000" stroke-linecap="round" stroke-linejoin="round" stroke-opacity="0.3019608" stroke-width="0.05"/>
      <path d="M22.65 3.4 Q26.05 5.95 30.4 7.4 27.55 14.15 27.3 10.1 26.7 9.05 26.85 8.65 26.85 7.6 26.3 7.25 25.85 6.95 25.05 7.4 24.25 7.8 23.55 8.7 22.9 9.7 22.8 10.4 L22.4 11.7 20.5 11.05 18.1 11.0 Q16.75 11.35 15.7 12.3 14.8 13.25 14.6 14.35 L14.4 15.55 14.2 16.3 Q14.0 16.9 13.7 16.65 L13.25 16.45 12.8 16.45 12.05 16.6 11.4 17.2 8.45 18.7 22.65 3.4 M22.75 8.4 L22.5 8.0 22.25 8.0 Q21.95 8.0 21.75 8.25 L21.75 8.7 21.9 9.05 22.3 9.1 22.55 8.85 22.75 8.4 M20.5 8.9 L20.05 8.85 Q19.8 8.85 19.7 9.0 L19.6 9.5 19.8 9.8 20.2 10.25 21.0 10.2 Q21.6 9.8 21.15 9.45 L20.5 8.9 M13.55 14.55 Q13.35 14.6 13.25 14.75 L13.2 15.1 13.25 15.3 13.55 15.4 13.75 15.1 13.9 14.75 13.75 14.55 Q13.7 14.4 13.55 14.55" fill="#66180c" fill-rule="evenodd" stroke="none"/>
      <path d="M22.9 2.45 L22.65 3.4 8.45 18.7 8.25 18.25 22.9 2.45" fill="#c92d18" fill-rule="evenodd" stroke="none"/>
      <path d="M22.65 3.4 L22.9 2.45 30.8 5.65 Q29.1 5.7 30.4 7.4 26.05 5.95 22.65 3.4" fill="#fc341e" fill-rule="evenodd" stroke="none"/>
      <path d="M28.25 9.2 L27.75 9.95 Q27.55 10.4 27.7 10.8 L28.1 11.35 28.7 11.2 29.2 10.5 29.25 9.6 Q29.15 9.2 28.85 9.05 28.55 8.95 28.25 9.2" fill="#66180c" fill-rule="evenodd" stroke="none"/>
      <path d="M30.4 8.45 Q30.15 8.5 30.05 8.7 L29.95 9.15 30.2 9.55 30.65 9.65 31.05 9.4 31.1 8.95 30.85 8.5 30.4 8.45" fill="#66180c" fill-rule="evenodd" stroke="none"/>
      <path d="M30.4 16.3 Q30.1 16.15 30.0 16.3 L30.1 16.7 30.55 17.2 31.15 17.6 31.5 17.55 31.45 17.2 31.0 16.65 30.4 16.3" fill="#66180c" fill-rule="evenodd" stroke="none"/>
      <path d="M39.3 13.7 Q39.05 13.75 38.95 13.95 L38.85 14.4 39.1 14.8 39.55 14.9 39.95 14.65 40.0 14.2 39.75 13.75 39.3 13.7" fill="#66180c" fill-rule="evenodd" stroke="none"/>
      <path d="M24.5 16.75 Q24.3 16.4 24.1 16.5 23.9 16.55 23.85 16.85 23.8 17.15 23.9 17.45 L24.25 17.95 24.7 18.0 24.95 17.85 24.85 17.4 24.5 16.75" fill="#66180c" fill-rule="evenodd" stroke="none"/>
      <path d="M21.0 11.25 Q20.95 10.45 20.75 10.5 20.65 10.5 20.7 11.25 L21.0 13.45 21.35 15.35 21.6 15.7 Q21.8 15.6 21.65 14.9 L21.3 13.15 21.0 11.25" fill="#521209" fill-rule="evenodd" stroke="none"/>
      <path d="M20.9 12.4 L21.7 12.7 22.25 12.4 Q22.45 12.15 22.3 11.75 L21.7 11.1 21.0 10.85 Q20.6 10.85 20.4 11.1 20.2 11.4 20.4 11.8 L20.9 12.4" fill="#66180c" fill-rule="evenodd" stroke="none"/>
      <path d="M32.9 17.45 L32.65 17.5 32.5 17.75 32.55 18.0 32.8 18.15 33.05 18.1 33.2 17.85 33.15 17.6 32.9 17.45" fill="#66180c" fill-rule="evenodd" stroke="none"/>
      <path d="M20.15 12.05 L20.8 11.4 Q20.75 11.05 20.05 10.9 L18.55 10.75 Q17.75 10.85 17.1 11.2 L16.05 11.75 17.05 11.7 19.05 11.85 Q19.6 12.35 20.15 12.05" fill="#66180c" fill-rule="evenodd" stroke="none"/>
      <path d="M17.2 10.85 L16.7 10.9 Q16.3 11.0 15.85 11.4 L15.2 12.15 Q14.95 12.45 15.1 12.6 L15.4 12.45 16.1 11.8 16.9 11.2 17.2 10.85" fill="#ce3017" fill-rule="evenodd" stroke="none"/>
      <path d="M17.9 11.1 L17.75 11.1 17.75 11.3 17.9 11.45 18.05 11.55 18.2 11.45 18.2 11.35 18.1 11.15 17.9 11.1" fill="#ce3017" fill-rule="evenodd" stroke="none"/>
      <path d="M39.55 14.05 L39.4 14.15 39.35 14.35 39.45 14.5 39.65 14.55 39.8 14.45 39.85 14.25 39.75 14.1 39.55 14.05" fill="#ce3017" fill-rule="evenodd" stroke="none"/>
      <path d="M14.6 17.85 L14.2 17.75 13.95 18.15 14.05 18.7 14.35 19.15 14.75 19.2 15.0 18.85 14.95 18.3 14.6 17.85" fill="#66180c" fill-rule="evenodd" stroke="none"/>
      <path d="M20.55 24.3 Q24.6 18.8 30.4 11.95 25.0 18.05 19.4 23.15 L16.35 26.95 Q12.45 26.25 8.05 23.55 L14.15 29.35 14.2 29.3 20.15 33.85 Q17.4 30.5 16.95 27.55 L20.55 24.3" fill="#2c2718" fill-rule="evenodd" stroke="none"/>
      <path d="M16.0 32.15 L16.85 30.85 15.65 30.55 15.85 27.85 20.45 28.2 25.05 33.9 23.1 35.0 Q18.65 33.8 16.0 32.15 M18.5 30.25 L16.85 30.85 18.5 30.25" fill="#c98600" fill-rule="evenodd" stroke="none"/>
      <path d="M15.85 27.85 L16.2 27.1 20.55 27.1 25.0 32.9 25.05 33.9 20.45 28.2 15.85 27.85" fill="#fee378" fill-rule="evenodd" stroke="none"/>
      <path d="M16.0 32.15 L16.85 30.85 15.65 30.55 15.85 27.85 16.2 27.1 20.55 27.1 25.0 32.9 25.05 33.9 23.1 35.0 M16.85 30.85 L18.5 30.25" fill="none" stroke="#000000" stroke-linecap="round" stroke-linejoin="round" stroke-opacity="0.3019608" stroke-width="0.05"/>
      <path d="M7.25 20.1 L14.0 23.05 15.9 27.05 13.35 28.0 12.8 27.05 11.7 28.25 Q9.35 26.2 6.85 22.35 L7.25 20.1 M12.8 25.35 L12.8 27.05 12.8 25.35" fill="#c98600" fill-rule="evenodd" stroke="none"/>
      <path d="M15.9 27.05 L14.0 23.05 7.25 20.1 7.5 19.25 14.2 21.85 16.1 26.1 15.9 27.05" fill="#fee378" fill-rule="evenodd" stroke="none"/>
      <path d="M15.9 27.05 L16.1 26.1 14.2 21.85 7.5 19.25 7.25 20.1 6.85 22.35 M11.7 28.25 L12.8 27.05 12.8 25.35 M15.9 27.05 L13.35 28.0 12.8 27.05" fill="none" stroke="#000000" stroke-linecap="round" stroke-linejoin="round" stroke-opacity="0.3019608" stroke-width="0.05"/>
      <path d="M21.05 35.15 L21.4 34.55 Q13.85 30.0 7.25 23.8 L6.65 24.1 Q13.4 31.0 21.05 35.15" fill="#ffcc00" fill-rule="evenodd" stroke="none"/>
      <path d="M20.85 36.0 L21.55 34.15 25.5 34.6 25.6 36.85 23.35 37.55 20.85 36.0" fill="#e6b100" fill-rule="evenodd" stroke="none"/>
      <path d="M23.35 37.55 L25.6 36.85 25.5 34.6 21.55 34.15 20.85 36.0" fill="none" stroke="#000000" stroke-linecap="round" stroke-linejoin="round" stroke-opacity="0.3019608" stroke-width="0.05"/>
      <path d="M20.9 35.9 L22.9 36.4" fill="none" stroke="#000000" stroke-linecap="round" stroke-linejoin="round" stroke-opacity="0.3019608" stroke-width="0.05"/>
      <path d="M22.85 36.35 L22.85 35.75" fill="none" stroke="#000000" stroke-linecap="round" stroke-linejoin="round" stroke-opacity="0.3019608" stroke-width="0.05"/>
      <path d="M3.1 22.4 L4.15 20.25 6.65 20.45 7.45 23.85 5.15 24.15 3.1 22.4" fill="#e6b100" fill-rule="evenodd" stroke="none"/>
      <path d="M3.1 22.4 L4.15 20.25 6.65 20.45 7.45 23.85 5.15 24.15" fill="none" stroke="#000000" stroke-linecap="round" stroke-linejoin="round" stroke-opacity="0.3019608" stroke-width="0.05"/>
      <path d="M5.2 24.05 L4.35 22.15" fill="none" stroke="#000000" stroke-linecap="round" stroke-linejoin="round" stroke-opacity="0.3019608" stroke-width="0.05"/>
      <path d="M4.3 22.2 L5.05 22.2" fill="none" stroke="#000000" stroke-linecap="round" stroke-linejoin="round" stroke-opacity="0.3019608" stroke-width="0.05"/>
      <path d="M41.3 8.15 Q41.8 11.15 43.1 13.5 L42.15 14.4 Q35.35 20.65 28.2 28.75 L27.2 28.5 26.7 30.95 26.5 31.2 26.6 31.25 26.7 31.3 26.65 31.35 25.05 33.2 25.05 33.25 25.05 33.9 24.5 34.25 24.55 34.45 24.6 34.5 25.5 34.6 25.6 36.85 23.35 37.55 22.95 37.3 19.4 36.5 15.85 35.0 15.25 34.7 13.55 33.65 13.5 33.6 12.6 34.8 12.25 35.15 11.8 35.65 9.95 37.45 8.1 38.9 6.3 40.1 5.75 40.4 Q4.5 40.85 3.3 40.4 2.2 40.05 1.65 38.95 1.2 37.75 1.8 36.6 L2.5 35.6 3.75 33.65 4.8 32.25 6.15 30.75 8.15 29.0 8.2 28.95 Q6.25 26.8 4.45 24.15 L3.6 22.8 3.1 22.4 4.15 20.25 5.95 20.4 6.0 20.4 6.05 20.35 6.5 18.8 6.5 18.75 8.5 18.0 22.9 2.45 22.95 2.5 23.0 2.4 30.9 5.65 32.25 4.45 Q35.35 7.05 39.05 8.5 L41.3 8.1 41.3 8.15 Z" fill="none" stroke="#000000" stroke-linecap="round" stroke-linejoin="round" stroke-opacity="0.3019608" stroke-width="0.5"/>
    </g>
  </defs>
</svg>
