<?xml version="1.0" encoding="UTF-8" standalone="no"?>
<svg xmlns:xlink="http://www.w3.org/1999/xlink" height="440.0px" width="440.0px" xmlns="http://www.w3.org/2000/svg">
  <g transform="matrix(10.0, 0.0, 0.0, 10.0, 0.0, 0.0)">
    <use height="44.0" transform="matrix(1.0, 0.0, 0.0, 1.0, 0.0, 0.0)" width="44.0" xlink:href="#shape0"/>
    <use height="22.75" transform="matrix(-0.1435, 0.0134, 0.0132, 0.1456, 21.7039, 30.2081)" width="13.3" xlink:href="#sprite0"/>
    <use height="15.35" transform="matrix(1.0, 0.0, 0.0, 1.0, 3.6, 26.25)" width="22.15" xlink:href="#shape2"/>
    <use height="17.6" transform="matrix(-0.3934, 0.154, 0.1517, 0.3992, 24.7303, 25.7215)" width="59.25" xlink:href="#sprite1"/>
    <use height="3.95" transform="matrix(1.0, 0.0, 0.0, 1.0, 19.3, 31.4)" width="1.75" xlink:href="#shape4"/>
    <use height="18.5" transform="matrix(-0.1435, 0.0134, 0.0132, 0.1456, 21.0958, 31.4172)" width="12.75" xlink:href="#sprite2"/>
    <use height="24.95" transform="matrix(1.0, 0.0, 0.0, 1.0, 23.4, 4.65)" width="19.2" xlink:href="#shape6"/>
    <use height="26.5" transform="matrix(-0.3934, 0.154, 0.1517, 0.3992, 37.3388, 10.5388)" width="23.65" xlink:href="#sprite3"/>
    <use height="14.6" transform="matrix(-0.3934, 0.154, 0.1517, 0.3992, 25.08, 23.0926)" width="12.9" xlink:href="#sprite4"/>
    <use height="1.3" transform="matrix(-1.1105, 0.9029, 0.4881, 1.2841, 24.0613, 25.9049)" width="1.3" xlink:href="#sprite5"/>
    <use height="14.6" transform="matrix(-0.3934, 0.154, 0.1517, 0.3992, 41.58, 0.9926)" width="12.9" xlink:href="#sprite4"/>
    <use height="1.3" transform="matrix(-1.1105, 0.9029, 0.4881, 1.2841, 40.5613, 3.7049)" width="1.3" xlink:href="#sprite5"/>
    <use height="8.25" transform="matrix(1.0, 0.0, 0.0, 1.0, 18.9, 24.9)" width="6.35" xlink:href="#shape9"/>
    <use height="11.3" transform="matrix(-0.2868, 0.0933, 0.092, 0.291, 20.067, 28.0173)" width="8.0" xlink:href="#sprite7"/>
    <use height="11.3" transform="matrix(-0.281, 0.11, 0.1084, 0.2852, 21.3563, 27.0956)" width="8.0" xlink:href="#sprite7"/>
    <use height="37.5" transform="matrix(1.0, 0.0, 0.0, 1.0, 3.35, 4.4)" width="39.5" xlink:href="#shape11"/>
  </g>
  <defs>
    <g id="shape0" transform="matrix(1.0, 0.0, 0.0, 1.0, 0.0, 0.0)">
      <path d="M44.0 44.0 L0.0 44.0 0.0 0.0 44.0 0.0 44.0 44.0" fill="#33cc33" fill-opacity="0.0" fill-rule="evenodd" stroke="none"/>
      <path d="M20.2 30.35 L20.2 30.95 20.35 30.9 20.8 30.9 20.7 30.65 20.55 30.4 20.2 30.35 M22.3 34.7 L22.5 34.55 22.65 34.25 22.55 33.95 22.5 33.85 22.45 33.95 22.2 34.35 22.1 34.45 22.3 34.7 M22.1 33.45 L22.0 33.25 21.7 32.8 21.45 32.95 21.2 33.1 21.4 33.5 21.6 33.75 22.1 33.45 M21.35 32.2 L21.1 31.65 21.05 31.6 20.65 31.55 20.45 31.7 20.5 31.9 20.75 32.4 21.0 32.3 21.35 32.2" fill="#cc9832" fill-rule="evenodd" stroke="none"/>
      <path d="M20.2 30.35 L20.15 30.35 19.95 30.55 19.85 30.9 19.95 31.15 20.0 31.1 20.2 30.95 20.2 30.35 M20.25 31.9 L20.25 32.05 20.6 32.6 20.75 32.4 20.5 31.9 20.45 31.7 20.65 31.55 21.05 31.6 20.8 30.9 20.35 30.9 20.2 30.95 20.45 31.7 20.3 31.8 20.25 31.9 M21.0 33.35 L21.15 33.6 21.45 33.95 21.55 33.8 21.6 33.75 21.4 33.5 21.2 33.1 21.45 32.95 21.7 32.8 21.4 32.4 21.35 32.25 21.35 32.2 21.0 32.3 20.75 32.4 21.2 33.1 21.1 33.25 21.0 33.35 M21.95 34.55 L22.25 34.7 22.3 34.7 22.1 34.45 22.2 34.35 22.45 33.95 22.5 33.85 22.1 33.45 21.6 33.75 22.1 34.45 21.95 34.55" fill="#b3832c" fill-rule="evenodd" stroke="none"/>
      <path d="M20.2 30.95 L20.0 31.1 19.95 31.15 20.25 31.9 20.3 31.8 20.45 31.7 20.2 30.95 M20.6 32.6 L21.0 33.35 21.1 33.25 21.2 33.1 20.75 32.4 20.6 32.6 M21.45 33.95 L21.9 34.5 21.95 34.55 22.1 34.45 21.6 33.75 21.55 33.8 21.45 33.95" fill="#997026" fill-rule="evenodd" stroke="none"/>
      <path d="M19.95 31.15 L19.85 30.9 19.95 30.55 20.15 30.35 20.2 30.35 M20.2 30.95 L20.0 31.1 19.95 31.15 20.25 31.9 20.25 32.05 20.6 32.6 21.0 33.35 21.15 33.6 21.45 33.95 21.9 34.5 21.95 34.55 22.25 34.7 22.3 34.7 22.5 34.55 22.65 34.25 22.55 33.95 22.5 33.85 22.1 33.45 22.0 33.25 21.7 32.8 21.4 32.4 21.35 32.2 21.1 31.65 21.05 31.6 20.8 30.9 20.7 30.65 20.55 30.4 20.2 30.35 M20.8 30.9 L20.35 30.9 20.2 30.95 M20.45 31.7 L20.3 31.8 20.25 31.9 M20.75 32.4 L20.6 32.6 M20.45 31.7 L20.65 31.55 21.05 31.6 M21.35 32.2 L21.0 32.3 20.75 32.4 M21.2 33.1 L21.1 33.25 21.0 33.35 M22.1 33.45 L21.6 33.75 21.55 33.8 21.45 33.95 M21.2 33.1 L21.45 32.95 21.7 32.8 M22.1 34.45 L22.2 34.35 22.45 33.95 22.5 33.85 M22.1 34.45 L21.95 34.55" fill="none" stroke="#000000" stroke-linecap="round" stroke-linejoin="round" stroke-opacity="0.2" stroke-width="0.05"/>
    </g>
    <g id="sprite0" transform="matrix(1.0, 0.0, 0.0, 1.0, 6.65, 11.35)">
      <use height="22.75" transform="matrix(1.0, 0.0, 0.0, 1.0, -6.65, -11.35)" width="13.3" xlink:href="#shape1"/>
    </g>
    <g id="shape1" transform="matrix(1.0, 0.0, 0.0, 1.0, 6.65, 11.35)">
      <path d="M6.6 -7.9 L6.25 -6.0 4.6 -0.6 4.3 0.35 2.8 4.25 0.2 9.65 -0.75 11.4 -2.5 11.05 -2.6 11.05 Q-5.5 10.35 -6.65 9.55 L-4.9 6.45 -2.85 2.2 -2.8 2.15 -2.8 2.05 -1.35 -1.65 -1.0 -2.55 0.3 -7.1 0.7 -8.8 Q0.85 -10.05 1.8 -10.75 2.75 -11.45 3.9 -11.3 L4.05 -11.3 Q5.35 -11.15 6.0 -10.15 6.75 -9.15 6.6 -7.9" fill="#382a19" fill-rule="evenodd" stroke="none"/>
    </g>
    <g id="shape2" transform="matrix(1.0, 0.0, 0.0, 1.0, -3.6, -26.25)">
      <path d="M8.35 36.95 Q6.5 38.35 4.1 39.75 L4.0 39.8 3.75 39.9 3.7 39.95 3.6 40.15 3.6 40.4 3.6 40.65 3.85 40.55 3.95 40.45 4.7 40.05 4.75 40.0 4.95 39.9 Q7.1 38.75 8.2 37.85 L8.2 37.35 8.35 36.95" fill="#8a7138" fill-rule="evenodd" stroke="none"/>
      <path d="M8.2 37.85 Q7.1 38.75 4.95 39.9 L4.75 40.0 4.7 40.05 3.95 40.45 3.85 40.55 3.6 40.65 3.7 40.9 4.15 41.4 Q6.85 39.65 8.75 38.8 L8.35 38.25 8.2 37.85" fill="#705b2e" fill-rule="evenodd" stroke="none"/>
      <path d="M4.15 41.4 L4.2 41.45 4.5 41.55 4.7 41.6 4.75 41.55 4.9 41.45 9.65 39.1 8.9 38.9 8.75 38.8 Q6.85 39.65 4.15 41.4" fill="#574723" fill-rule="evenodd" stroke="none"/>
      <path d="M8.35 36.95 L8.2 37.35 8.2 37.85 8.35 38.25 8.75 38.8 8.9 38.9 9.65 39.1 10.05 38.55 Q10.2 38.15 10.0 37.7 9.8 37.15 9.4 36.95 L8.65 36.75 8.35 36.95" fill="#d7bd6f" fill-rule="evenodd" stroke="none"/>
      <path d="M3.6 40.65 L3.6 40.4 3.6 40.15 3.7 39.95 3.75 39.9 4.0 39.8 4.1 39.75 Q6.5 38.35 8.35 36.95 M3.6 40.65 L3.7 40.9 4.15 41.4 4.2 41.45 4.5 41.55 4.7 41.6 4.75 41.55 4.9 41.45 9.65 39.1 10.05 38.55 Q10.2 38.15 10.0 37.7 9.8 37.15 9.4 36.95 L8.65 36.75 8.35 36.95" fill="none" stroke="#000000" stroke-linecap="round" stroke-linejoin="round" stroke-opacity="0.2" stroke-width="0.05"/>
      <path d="M8.65 37.8 L8.7 38.05 9.0 38.45 9.15 38.5 9.1 38.45 9.1 38.1 8.85 37.85 8.65 37.8" fill="#897138" fill-rule="evenodd" stroke="none"/>
      <path d="M9.15 38.5 L9.45 38.55 9.7 38.25 9.65 37.7 9.3 37.35 Q9.1 37.15 8.9 37.2 L8.7 37.3 8.6 37.55 8.65 37.8 8.85 37.85 9.1 38.1 9.1 38.45 9.15 38.5" fill="#362b16" fill-rule="evenodd" stroke="none"/>
      <path d="M14.5 33.65 L14.45 32.9 14.65 32.35 9.05 36.55 8.9 36.6 8.65 36.8 8.6 36.85 8.5 37.2 8.5 37.45 8.55 37.8 8.85 37.6 9.0 37.5 9.95 36.9 10.05 36.85 10.3 36.7 Q13.05 34.95 14.5 33.65" fill="#8a7138" fill-rule="evenodd" stroke="none"/>
      <path d="M14.5 33.65 Q13.05 34.95 10.3 36.7 L10.05 36.85 9.95 36.9 9.0 37.5 8.85 37.6 8.55 37.8 8.7 38.1 9.3 38.75 Q12.85 36.1 15.3 34.85 L14.7 34.05 14.5 33.65" fill="#705b2e" fill-rule="evenodd" stroke="none"/>
      <path d="M16.6 35.15 L15.55 35.0 15.3 34.85 Q12.85 36.1 9.3 38.75 L9.35 38.75 Q9.6 38.95 9.8 38.95 L10.1 38.9 10.15 38.9 10.3 38.75 16.6 35.15" fill="#574723" fill-rule="evenodd" stroke="none"/>
      <path d="M14.65 32.35 L14.45 32.9 14.5 33.65 14.7 34.05 15.3 34.85 15.55 35.0 16.6 35.15 Q17.1 34.95 17.15 34.35 17.3 33.85 16.95 33.2 L16.05 32.25 15.05 32.1 14.65 32.35" fill="#d7bd6f" fill-rule="evenodd" stroke="none"/>
      <path d="M8.55 37.8 L8.5 37.45 8.5 37.2 8.6 36.85 8.65 36.8 8.9 36.6 9.05 36.55 14.65 32.35 15.05 32.1 16.05 32.25 16.95 33.2 Q17.3 33.85 17.15 34.35 17.1 34.95 16.6 35.15 M8.55 37.8 L8.7 38.1 9.3 38.75 9.35 38.75 Q9.6 38.95 9.8 38.95 L10.1 38.9 10.15 38.9 10.3 38.75 16.6 35.15" fill="none" stroke="#000000" stroke-linecap="round" stroke-linejoin="round" stroke-opacity="0.2" stroke-width="0.05"/>
      <path d="M15.05 33.5 L15.2 33.85 15.7 34.4 15.8 34.45 15.8 34.3 15.75 33.95 15.45 33.6 15.05 33.5" fill="#897138" fill-rule="evenodd" stroke="none"/>
      <path d="M15.8 34.45 L16.25 34.5 16.6 34.0 16.5 33.35 16.0 32.8 15.4 32.7 15.15 32.85 15.05 33.2 15.05 33.5 15.45 33.6 15.75 33.95 15.8 34.3 15.8 34.45" fill="#362b16" fill-rule="evenodd" stroke="none"/>
      <path d="M22.35 28.3 Q20.6 29.95 17.0 32.2 16.8 32.3 16.75 32.35 L16.6 32.45 15.35 33.25 15.15 33.35 14.75 33.55 14.95 33.95 15.7 34.85 Q20.3 31.45 23.4 29.85 L22.65 28.9 22.35 28.3" fill="#705b2e" fill-rule="evenodd" stroke="none"/>
      <path d="M16.6 32.45 L16.75 32.35 Q16.8 32.3 17.0 32.2 20.6 29.95 22.35 28.3 L22.35 27.35 22.55 26.7 15.45 32.0 15.3 32.1 14.9 32.3 14.85 32.4 14.7 32.8 14.75 33.2 16.6 32.45" fill="#8a7138" fill-rule="evenodd" stroke="none"/>
      <path d="M22.35 28.3 L22.65 28.9 23.4 29.85 23.7 30.05 Q24.4 30.5 25.0 30.25 25.6 30.0 25.7 29.25 25.9 28.55 25.5 27.75 25.05 26.9 24.35 26.55 L23.05 26.3 22.55 26.7 22.35 27.35 22.35 28.3 M15.15 33.35 L15.35 33.25 16.6 32.45 14.75 33.2 15.15 33.35" fill="#d7bd6f" fill-rule="evenodd" stroke="none"/>
      <path d="M23.4 29.85 Q20.3 31.45 15.7 34.85 L15.8 34.85 16.4 35.05 16.75 35.05 16.8 35.0 17.05 34.8 25.0 30.25 Q24.4 30.5 23.7 30.05 L23.4 29.85" fill="#574723" fill-rule="evenodd" stroke="none"/>
      <path d="M15.7 34.85 L14.95 33.95 14.75 33.55 15.15 33.35 M14.75 33.2 L14.7 32.8 14.85 32.4 14.9 32.3 15.3 32.1 15.45 32.0 22.55 26.7 M14.75 33.2 L15.15 33.35 M25.0 30.25 L17.05 34.8 16.8 35.0 16.75 35.05 16.4 35.05 15.8 34.85 15.7 34.85 M25.0 30.25 Q25.6 30.0 25.7 29.25 25.9 28.55 25.5 27.75 25.05 26.9 24.35 26.55 L23.05 26.3 22.55 26.7" fill="none" stroke="#000000" stroke-linecap="round" stroke-linejoin="round" stroke-opacity="0.2" stroke-width="0.05"/>
      <path d="M23.05 28.05 L23.25 28.45 Q23.45 28.95 23.8 29.15 L24.0 29.25 24.05 29.1 23.95 28.6 23.55 28.1 23.05 28.05" fill="#897138" fill-rule="evenodd" stroke="none"/>
      <path d="M24.0 29.25 L24.6 29.25 24.95 28.7 24.9 27.8 24.25 27.15 23.45 27.0 23.2 27.2 23.05 27.6 23.05 28.05 23.55 28.1 23.95 28.6 24.05 29.1 24.0 29.25" fill="#362b16" fill-rule="evenodd" stroke="none"/>
    </g>
    <g id="sprite1" transform="matrix(1.0, 0.0, 0.0, 1.0, 29.65, 8.8)">
      <use height="17.6" transform="matrix(1.0, 0.0, 0.0, 1.0, -29.65, -8.8)" width="59.25" xlink:href="#shape3"/>
    </g>
    <g id="shape3" transform="matrix(1.0, 0.0, 0.0, 1.0, 29.65, 8.8)">
      <path d="M-3.85 -3.0 L-3.6 -2.95 -2.85 -3.1 -1.75 -2.8 Q5.4 -0.4 14.1 1.5 L14.45 1.55 15.25 1.65 16.05 1.8 Q21.4 3.3 27.9 4.25 L28.15 4.3 28.7 4.35 28.85 4.45 29.2 4.8 29.45 5.3 29.6 5.8 29.6 6.4 29.1 7.9 29.05 8.0 28.45 8.6 27.95 8.8 27.9 8.8 27.45 8.7 14.95 7.55 14.4 7.5 13.85 7.6 13.75 7.6 13.2 7.45 -3.7 4.95 -4.6 4.75 -5.0 4.6 -26.45 1.4 Q-27.95 1.4 -28.8 -0.2 -29.8 -1.55 -29.6 -3.65 -29.4 -5.85 -28.1 -7.2 -26.9 -8.8 -25.35 -8.8 L-24.0 -8.45 Q-14.9 -5.35 -3.85 -3.0" fill="url(#gradient0)" fill-rule="evenodd" stroke="none"/>
    </g>
    <linearGradient gradientTransform="matrix(-0.0173, -0.0188, 0.0079, -0.0073, -0.05, 0.0)" gradientUnits="userSpaceOnUse" id="gradient0" spreadMethod="pad" x1="-819.2" x2="819.2">
      <stop offset="0.0" stop-color="#373226"/>
      <stop offset="1.0" stop-color="#383226" stop-opacity="0.0"/>
    </linearGradient>
    <g id="shape4" transform="matrix(1.0, 0.0, 0.0, 1.0, -19.3, -31.4)">
      <path d="M19.7 33.75 L19.65 34.05 19.6 34.35 20.25 34.4 20.25 34.15 20.3 33.8 20.05 33.75 19.7 33.75 M19.9 33.05 L20.15 33.05 20.45 33.25 20.65 32.75 20.65 32.65 20.35 32.5 20.15 32.45 20.1 32.55 19.9 33.05 M20.15 34.85 L20.1 34.9 19.7 35.05 19.55 35.1 19.5 35.3 19.75 35.35 20.05 35.25 20.2 34.95 20.15 34.85 M20.8 31.45 L20.5 31.8 20.6 31.9 20.9 32.15 21.0 31.9 21.05 31.65 20.8 31.45" fill="#cc9832" fill-rule="evenodd" stroke="none"/>
      <path d="M19.6 34.35 L19.65 34.05 19.7 33.75 20.05 33.75 20.3 33.8 20.45 33.35 20.4 33.25 20.45 33.25 20.15 33.05 19.9 33.05 19.7 33.75 19.6 33.75 19.45 33.75 19.45 34.05 19.35 34.4 19.55 34.35 19.6 34.35 19.55 35.1 19.7 35.05 20.1 34.9 20.15 34.85 20.25 34.4 19.6 34.35 M19.6 33.05 L19.9 33.05 20.1 32.55 20.15 32.45 20.35 32.5 20.65 32.65 20.9 32.15 20.6 31.9 20.5 31.8 20.15 32.45 19.95 32.45 19.8 32.5 19.75 32.6 19.6 33.05 M19.5 35.3 L19.55 35.1 19.35 35.05 19.45 35.25 19.5 35.3 M20.8 31.45 L20.5 31.4 Q20.3 31.45 20.25 31.65 L20.1 31.8 20.15 31.8 20.5 31.8 20.8 31.45" fill="#b3832c" fill-rule="evenodd" stroke="none"/>
      <path d="M19.6 34.35 L19.55 34.35 19.35 34.4 19.3 35.0 19.35 35.05 19.55 35.1 19.6 34.35 M19.45 33.75 L19.6 33.75 19.7 33.75 19.9 33.05 19.6 33.05 19.45 33.75 M20.5 31.8 L20.15 31.8 20.1 31.8 19.8 32.5 19.95 32.45 20.15 32.45 20.5 31.8" fill="#997026" fill-rule="evenodd" stroke="none"/>
      <path d="M19.7 33.75 L20.05 33.75 20.3 33.8 20.25 34.15 20.25 34.4 19.6 34.35 19.55 34.35 19.35 34.4 19.45 34.05 19.45 33.75 19.6 33.75 19.7 33.75 M19.9 33.05 L20.15 33.05 20.45 33.25 20.45 33.35 20.3 33.8 M19.45 33.75 L19.6 33.05 19.9 33.05 M20.15 32.45 L20.35 32.5 20.65 32.65 20.65 32.75 20.45 33.25 M19.55 35.1 L19.7 35.05 20.1 34.9 20.15 34.85 20.2 34.95 20.05 35.25 19.75 35.35 19.5 35.3 19.45 35.25 19.35 35.05 19.55 35.1 M19.35 35.05 L19.3 35.0 19.35 34.4 M20.1 31.8 L20.25 31.65 Q20.3 31.45 20.5 31.4 L20.8 31.45 21.05 31.65 21.0 31.9 20.9 32.15 20.65 32.65 M20.5 31.8 L20.15 31.8 20.1 31.8 19.8 32.5 19.75 32.6 19.6 33.05 M20.9 32.15 L20.6 31.9 20.5 31.8 M20.15 32.45 L19.95 32.45 19.8 32.5 M20.25 34.4 L20.15 34.85" fill="none" stroke="#000000" stroke-linecap="round" stroke-linejoin="round" stroke-opacity="0.2" stroke-width="0.05"/>
    </g>
    <g id="sprite2" transform="matrix(1.0, 0.0, 0.0, 1.0, 6.4, 9.25)">
      <use height="18.5" transform="matrix(1.0, 0.0, 0.0, 1.0, -6.4, -9.25)" width="12.75" xlink:href="#shape5"/>
    </g>
    <g id="shape5" transform="matrix(1.0, 0.0, 0.0, 1.0, 6.4, 9.25)">
      <path d="M-2.75 -9.15 Q-1.55 -8.9 -0.85 -8.05 L0.1 -6.7 2.55 -2.45 2.9 -1.7 2.9 -1.75 4.3 1.5 5.95 6.25 6.35 7.8 4.7 8.25 0.6 9.25 0.0 6.95 -1.3 3.2 -1.3 3.1 -1.35 3.1 -2.7 0.0 -3.05 -0.75 -5.0 -4.2 -5.9 -5.5 Q-6.6 -6.35 -6.3 -7.35 -6.1 -8.25 -5.1 -8.75 L-5.0 -8.85 Q-3.95 -9.4 -2.75 -9.15" fill="#382a19" fill-rule="evenodd" stroke="none"/>
    </g>
    <g id="shape6" transform="matrix(1.0, 0.0, 0.0, 1.0, -23.4, -4.65)">
      <path d="M37.85 11.45 L37.65 11.75 37.15 12.65 30.25 21.5 29.7 22.05 30.1 21.65 31.3 20.5 31.65 20.1 32.95 18.8 37.65 13.4 39.1 11.55 37.85 11.45 M23.6 27.7 L24.6 26.8 23.55 27.65 23.6 27.7 M23.4 27.15 Q26.1 24.85 29.1 21.55 L23.4 27.1 23.4 27.15 M40.85 16.2 L40.1 16.35 40.05 14.9 39.75 16.85 41.05 16.7 41.1 16.7 40.85 16.2 M29.35 26.7 L29.3 24.0 28.9 27.0 28.95 27.05 28.9 27.05 29.75 27.25 29.75 26.9 29.35 26.75 29.35 26.7" fill="#9fa697" fill-rule="evenodd" stroke="none"/>
      <path d="M40.05 4.65 L40.5 6.25 40.55 6.3 40.65 6.8 40.75 6.7 40.9 7.65 41.3 10.05 41.45 13.95 41.3 14.7 41.35 14.75 41.35 14.8 41.3 14.85 41.5 14.85 Q42.0 13.1 41.6 9.6 L41.55 9.0 41.45 8.35 40.8 5.65 40.5 4.75 40.05 4.65 M42.45 14.85 Q42.75 13.05 42.45 10.05 L41.9 6.7 41.85 6.7 41.7 6.2 41.15 4.85 41.15 4.9 40.95 4.85 41.0 5.1 41.0 5.15 41.45 6.7 41.9 9.3 Q42.3 13.0 41.9 14.85 L42.45 14.85 M33.35 23.6 L33.3 23.6 33.35 23.6 M37.85 19.1 L37.8 19.1 37.85 19.1" fill="#d6d8d1" fill-rule="evenodd" stroke="none"/>
      <path d="M30.25 21.5 L29.7 22.05 Q26.3 25.6 23.6 27.7 L24.1 29.6 24.6 29.35 29.25 23.55 31.3 21.25 32.95 19.4 Q35.8 16.4 37.75 15.1 40.15 13.45 41.1 14.55 L41.2 14.65 41.25 14.6 41.25 14.3 41.15 13.5 Q40.7 12.4 39.65 11.8 L39.1 11.55 37.65 13.4 32.95 18.8 31.65 20.1 31.3 20.5 30.1 21.65 29.7 22.05 30.25 21.5 M40.9 7.65 L40.75 6.7 40.65 6.8 40.9 7.65 M38.4 18.45 L37.65 19.0 36.7 20.25 38.4 18.45" fill="#acb3a3" fill-rule="evenodd" stroke="none"/>
      <path d="M40.5 4.75 L40.8 5.65 41.45 8.35 41.55 9.0 41.6 9.6 Q42.0 13.1 41.5 14.85 L41.9 14.85 Q42.3 13.0 41.9 9.3 L41.45 6.7 41.0 5.15 41.0 5.1 40.95 4.85 40.5 4.75" fill="#f0f2ea" fill-rule="evenodd" stroke="none"/>
      <path d="M40.5 6.25 L39.45 8.5 38.45 10.45 37.85 11.45 39.1 11.55 39.65 11.8 Q40.7 12.4 41.15 13.5 L41.25 14.3 41.25 14.6 41.2 14.65 41.1 14.55 41.1 14.6 41.05 14.55 Q40.0 14.0 37.75 15.7 35.8 17.05 32.9 20.05 L31.4 21.65 29.3 24.0 29.35 26.7 29.85 26.4 30.35 26.05 31.0 25.55 31.5 25.2 31.75 24.9 31.95 24.8 32.05 24.65 32.4 24.35 33.3 23.6 33.35 23.6 34.25 22.8 35.2 21.85 35.25 21.85 36.2 20.85 36.7 20.25 37.65 19.0 38.4 18.45 39.75 16.85 40.05 14.9 40.1 16.35 41.3 14.85 41.35 14.8 41.35 14.75 41.3 14.7 41.45 13.95 41.3 10.05 40.9 7.65 40.65 6.8 40.55 6.3 40.5 6.25 M29.3 24.0 L24.9 29.2 24.85 29.3 24.9 29.25 25.1 29.2 25.15 29.15 25.2 29.15 25.6 28.95 Q27.2 28.2 28.85 27.1 L28.9 27.05 28.95 27.05 28.9 27.0 29.3 24.0" fill="#bdbfb9" fill-rule="evenodd" stroke="none"/>
      <path d="M40.05 4.65 Q39.0 7.55 37.35 10.45 35.5 13.75 32.85 17.15 L29.95 20.6 29.95 20.65 29.5 21.1 29.1 21.55 Q26.1 24.85 23.4 27.15 L23.55 27.65 24.6 26.8 23.6 27.7 Q26.3 25.6 29.7 22.05 L30.25 21.5 37.15 12.65 37.65 11.75 37.85 11.45 38.45 10.45 39.45 8.5 40.5 6.25 40.05 4.65 M29.3 24.0 L31.4 21.65 32.9 20.05 Q35.8 17.05 37.75 15.7 40.0 14.0 41.05 14.55 L41.1 14.6 41.1 14.55 Q40.15 13.45 37.75 15.1 35.8 16.4 32.95 19.4 L31.3 21.25 29.25 23.55 24.6 29.35 24.85 29.3 24.9 29.2 29.3 24.0" fill="#92998b" fill-rule="evenodd" stroke="none"/>
      <path d="M41.5 14.85 L41.3 14.85 40.1 16.35 40.85 16.2 41.55 16.05 42.45 14.85 41.9 14.85 41.5 14.85 M24.6 29.35 L24.1 29.6 25.2 29.6 25.5 29.5 28.7 27.9 29.35 27.5 29.75 27.25 28.9 27.05 28.85 27.1 Q27.2 28.2 25.6 28.95 L25.2 29.15 25.15 29.15 25.1 29.2 24.9 29.25 24.85 29.3 24.6 29.35 M39.75 16.85 L38.4 18.45 36.7 20.25 36.2 20.85 35.25 21.85 35.2 21.85 34.25 22.8 33.35 23.6 33.3 23.6 32.4 24.35 32.05 24.65 31.95 24.8 31.75 24.9 31.5 25.2 31.0 25.55 30.35 26.05 29.85 26.4 29.35 26.7 29.35 26.75 29.75 26.9 30.1 27.0 30.25 26.95 31.15 26.3 31.75 25.85 31.75 25.8 31.9 25.7 32.1 25.55 32.75 25.05 33.2 24.7 33.2 24.3 33.55 24.4 33.8 24.25 34.55 23.55 34.9 23.25 35.0 22.6 35.55 22.6 35.9 22.25 37.05 21.2 37.15 21.05 38.1 19.8 38.9 19.2 41.05 16.7 39.75 16.85 M37.85 19.1 L37.8 19.1 37.85 19.1" fill="#606e6d" fill-rule="evenodd" stroke="none"/>
    </g>
    <g id="sprite3" transform="matrix(1.0, 0.0, 0.0, 1.0, 17.95, -9.4)">
      <use height="26.5" transform="matrix(1.0, 0.0, 0.0, 1.0, -17.95, 9.4)" width="23.65" xlink:href="#shape7"/>
    </g>
    <g id="shape7" transform="matrix(1.0, 0.0, 0.0, 1.0, 17.95, -9.4)">
      <path d="M4.7 35.6 L2.15 34.7 2.0 34.65 -0.55 33.65 -3.5 32.45 -3.6 32.4 -6.55 31.1 -8.25 30.3 -11.2 28.35 -14.4 21.1 Q-8.85 22.45 0.05 26.55 1.9 30.45 4.8 34.65 L5.7 35.9 4.7 35.6" fill="url(#gradient1)" fill-rule="evenodd" stroke="none"/>
      <path d="M-2.3 20.15 L-1.7 22.15 -1.1 23.9 -0.55 25.2 Q-9.45 21.05 -14.85 19.85 L-16.15 16.15 -16.2 16.0 -17.95 9.4 Q-11.0 15.05 -2.3 20.15" fill="url(#gradient2)" fill-rule="evenodd" stroke="none"/>
    </g>
    <linearGradient gradientTransform="matrix(0.0123, 0.0, 0.0, 0.009, -4.35, 28.5)" gradientUnits="userSpaceOnUse" id="gradient1" spreadMethod="pad" x1="-819.2" x2="819.2">
      <stop offset="0.0" stop-color="#fee3bc"/>
      <stop offset="1.0" stop-color="#ffe3bd" stop-opacity="0.0"/>
    </linearGradient>
    <linearGradient gradientTransform="matrix(0.0011, -0.0106, 0.0096, 0.001, -5.8, 19.95)" gradientUnits="userSpaceOnUse" id="gradient2" spreadMethod="pad" x1="-819.2" x2="819.2">
      <stop offset="0.0" stop-color="#fee3bc"/>
      <stop offset="1.0" stop-color="#ffe3bd" stop-opacity="0.0"/>
    </linearGradient>
    <g id="sprite4" transform="matrix(1.0, 0.0, 0.0, 1.0, 6.45, 7.3)">
      <use height="1.3" transform="matrix(9.9174, 3.1483, 0.0, 0.7797, -6.4422, -2.3886)" width="1.3" xlink:href="#sprite5"/>
      <use height="1.3" transform="matrix(-1.6617, -10.2577, 0.5943, -0.973, 0.8675, 7.3101)" width="1.3" xlink:href="#sprite5"/>
    </g>
    <g id="sprite5" transform="matrix(1.0, 0.0, 0.0, 1.0, 0.7, 0.75)">
      <use height="2.3" transform="matrix(0.5652, 0.0, 0.0, 0.5652, -0.7, -0.75)" width="2.3" xlink:href="#sprite6"/>
    </g>
    <g id="sprite6" transform="matrix(1.0, 0.0, 0.0, 1.0, 1.15, 1.15)">
      <use height="2.3" transform="matrix(1.0, 0.0, 0.0, 1.0, -1.15, -1.15)" width="2.3" xlink:href="#shape8"/>
    </g>
    <g id="shape8" transform="matrix(1.0, 0.0, 0.0, 1.0, 1.15, 1.15)">
      <path d="M0.8 0.8 Q0.5 1.15 0.0 1.15 -0.5 1.15 -0.85 0.8 L-1.15 0.0 -0.85 -0.85 Q-0.5 -1.15 0.0 -1.15 L0.8 -0.85 1.15 0.0 Q1.15 0.5 0.8 0.8" fill="url(#gradient3)" fill-rule="evenodd" stroke="none"/>
    </g>
    <radialGradient cx="0" cy="0" gradientTransform="matrix(0.0018, 0.0, 0.0, 0.0018, 0.0, 0.0)" gradientUnits="userSpaceOnUse" id="gradient3" r="819.2" spreadMethod="pad">
      <stop offset="0.0" stop-color="#fee3bc"/>
      <stop offset="0.5372549019607843" stop-color="#ffe3bd" stop-opacity="0.0"/>
    </radialGradient>
    <g id="shape9" transform="matrix(1.0, 0.0, 0.0, 1.0, -18.9, -24.9)">
      <path d="M22.8 30.5 L22.5 30.25 21.45 29.45 21.4 29.45 18.9 31.3 18.9 31.35 20.25 32.55 20.95 31.9 22.8 30.5" fill="#3d2201" fill-rule="evenodd" stroke="none"/>
      <path d="M24.2 30.75 L24.05 30.7 23.05 30.35 22.1 29.7 21.5 29.0 21.45 29.45 22.5 30.25 22.8 30.5 23.95 31.0 24.7 31.1 24.7 31.05 24.6 30.55 24.55 30.5 24.35 30.65 24.4 30.75 24.2 30.75" fill="#c67806" fill-rule="evenodd" stroke="none"/>
      <path d="M21.45 29.45 L21.5 29.0 18.9 30.75 18.9 31.3 21.4 29.45 21.45 29.45" fill="#633c03" fill-rule="evenodd" stroke="none"/>
      <path d="M24.7 31.1 L23.95 31.0 22.8 30.5 20.95 31.9 20.25 32.55 21.25 33.15 Q23.6 31.4 24.7 31.1" fill="#361e01" fill-rule="evenodd" stroke="none"/>
      <path d="M24.2 30.75 L24.4 30.75 24.35 30.65 24.55 30.5 24.2 30.75" fill="#211301" fill-rule="evenodd" stroke="none"/>
      <path d="M21.5 29.0 L22.1 29.7 23.05 30.35 24.05 30.7 24.2 30.75 M24.55 30.5 L24.6 30.55 24.7 31.05 24.7 31.1 M21.5 29.0 L18.9 30.75 18.9 31.3 18.9 31.35 20.25 32.55 21.25 33.15 Q23.6 31.4 24.7 31.1" fill="none" stroke="#000000" stroke-linecap="round" stroke-linejoin="round" stroke-opacity="0.2" stroke-width="0.05"/>
      <path d="M24.95 25.7 L25.25 25.35 24.85 25.05 24.6 24.9 24.35 25.0 24.25 25.05 24.25 25.1 23.85 25.65 23.8 26.55 24.25 26.1 24.35 25.65 Q24.5 25.3 24.75 25.45 L24.95 25.7" fill="#f79a11" fill-rule="evenodd" stroke="none"/>
      <path d="M24.95 25.7 L24.75 25.45 Q24.5 25.3 24.35 25.65 L24.25 26.1 24.2 26.2 24.2 26.45 24.95 25.7" fill="#211301" fill-rule="evenodd" stroke="none"/>
      <path d="M23.8 26.55 L23.85 25.65 24.25 25.1 23.45 25.8 22.3 26.75 21.85 26.95 21.8 28.6 21.8 29.0 21.75 30.95 22.05 30.25 Q22.7 29.25 23.85 28.15 L23.8 26.55" fill="#633c03" fill-rule="evenodd" stroke="none"/>
      <path d="M24.25 26.1 L23.8 26.55 23.85 28.15 23.85 28.2 24.3 28.45 24.35 28.4 24.2 26.45 24.2 26.2 24.25 26.1" fill="#c67806" fill-rule="evenodd" stroke="none"/>
      <path d="M21.75 30.95 L22.0 31.15 Q22.55 30.2 23.45 29.2 L24.3 28.45 23.85 28.2 23.85 28.15 Q22.7 29.25 22.05 30.25 L21.75 30.95" fill="#2e1c01" fill-rule="evenodd" stroke="none"/>
      <path d="M24.25 25.1 L24.25 25.05 24.35 25.0 24.6 24.9 24.85 25.05 25.25 25.35 24.95 25.7 M24.25 25.1 L23.45 25.8 22.3 26.75 21.85 26.95 21.8 28.6 21.8 29.0 21.75 30.95 22.0 31.15 Q22.55 30.2 23.45 29.2 L24.3 28.45 24.35 28.4 24.2 26.45" fill="none" stroke="#000000" stroke-linecap="round" stroke-linejoin="round" stroke-opacity="0.2" stroke-width="0.05"/>
    </g>
    <g id="sprite7" transform="matrix(1.0, 0.0, 0.0, 1.0, 3.25, 5.6)">
      <use height="11.3" transform="matrix(1.0, 0.0, 0.0, 1.0, -3.25, -5.6)" width="8.0" xlink:href="#shape10"/>
    </g>
    <g id="shape10" transform="matrix(1.0, 0.0, 0.0, 1.0, 3.25, 5.6)">
      <path d="M2.0 5.15 Q1.25 5.7 0.5 5.7 -0.25 5.7 -0.55 5.15 -0.8 4.7 -0.45 4.0 L0.55 2.75 Q1.3 2.3 2.05 2.3 2.8 2.3 3.1 2.75 3.4 3.25 3.05 4.0 L2.0 5.15" fill="#030201" fill-rule="evenodd" stroke="none"/>
      <path d="M-0.8 -5.55 L-0.75 -5.55 -0.8 -5.55" fill="#660000" fill-rule="evenodd" stroke="none"/>
      <path d="M2.85 -4.5 L1.95 -4.7 Q1.55 -4.7 1.1 -4.1 L0.8 -3.55 -0.4 -3.65 -1.25 -3.4 -1.5 -4.45 Q-1.5 -5.05 -0.8 -5.55 L-0.75 -5.55 0.0 -5.6 0.05 -5.6 0.1 -5.6 Q1.6 -5.6 2.85 -4.5 M1.95 -1.95 L3.2 -2.25 4.15 -1.9 4.65 -1.25 4.75 -0.2 4.55 1.2 4.1 0.7 Q3.4 0.1 2.45 0.1 L1.9 0.2 2.15 -1.05 1.95 -1.95 M3.1 3.95 L2.8 4.35 1.85 4.95 Q1.2 5.0 0.75 4.65 0.2 4.3 0.15 3.7 0.05 3.05 0.4 2.6 L0.85 1.95 1.1 1.9 Q1.7 1.9 2.4 2.65 3.1 3.4 3.1 3.95" fill="#9e7418" fill-rule="evenodd" stroke="none"/>
      <path d="M2.85 -4.5 L3.0 -4.3 3.5 -3.75 Q4.4 -2.6 4.65 -1.25 L4.15 -1.9 3.2 -2.25 1.95 -1.95 1.4 -3.0 0.8 -3.55 1.1 -4.1 Q1.55 -4.7 1.95 -4.7 L2.85 -4.5 M4.55 1.2 L4.4 1.6 3.1 3.95 Q3.1 3.4 2.4 2.65 1.7 1.9 1.1 1.9 L0.85 1.95 1.0 1.75 1.9 0.2 2.45 0.1 Q3.4 0.1 4.1 0.7 L4.55 1.2 M-2.1 -3.1 L-3.25 -3.4 -3.25 -3.45 -2.9 -4.55 Q-2.35 -5.45 -0.8 -5.55 -1.5 -5.05 -1.5 -4.45 L-1.25 -3.4 -2.1 -3.1" fill="#84500b" fill-rule="evenodd" stroke="none"/>
      <path d="M0.8 -3.55 L1.4 -3.0 1.95 -1.95 1.45 -1.4 1.15 -1.9 0.65 -2.35 0.6 -2.8 0.8 -3.55 M1.0 1.75 L1.65 0.35 1.9 0.2 1.0 1.75 M-0.5 -2.6 L-2.1 -3.1 -1.25 -3.4 -1.1 -3.2 -0.5 -2.6" fill="#533007" fill-rule="evenodd" stroke="none"/>
      <path d="M1.65 0.35 L1.75 -0.2 1.45 -1.4 1.95 -1.95 2.15 -1.05 1.9 0.2 1.65 0.35 M0.65 -2.35 L0.5 -2.45 0.0 -2.6 -0.05 -2.6 -0.4 -2.6 -0.5 -2.6 -1.1 -3.2 -1.25 -3.4 -0.4 -3.65 0.8 -3.55 0.6 -2.8 0.65 -2.35" fill="#6b3f09" fill-rule="evenodd" stroke="none"/>
      <path d="M4.65 -1.25 Q4.4 -2.6 3.5 -3.75 L3.0 -4.3 2.85 -4.5 M4.65 -1.25 L4.75 -0.2 4.55 1.2 4.4 1.6 3.1 3.95 2.8 4.35 1.85 4.95 Q1.2 5.0 0.75 4.65 0.2 4.3 0.15 3.7 0.05 3.05 0.4 2.6 L0.85 1.95 M-0.5 -2.6 L-2.1 -3.1 -3.25 -3.4 -3.25 -3.45 -2.9 -4.55 Q-2.35 -5.45 -0.8 -5.55 L-0.75 -5.55 0.0 -5.6 0.05 -5.6 0.1 -5.6 Q1.6 -5.6 2.85 -4.5" fill="none" stroke="#000000" stroke-linecap="round" stroke-linejoin="round" stroke-opacity="0.2" stroke-width="0.05"/>
      <path d="M2.85 -4.5 L1.95 -4.7 Q1.55 -4.7 1.1 -4.1 L0.8 -3.55 M1.95 -1.95 L3.2 -2.25 4.15 -1.9 4.65 -1.25 M0.65 -2.35 L0.6 -2.8 0.8 -3.55 M-1.25 -3.4 L-1.1 -3.2 -0.5 -2.6 M1.45 -1.4 L1.95 -1.95 M1.9 0.2 L2.45 0.1 Q3.4 0.1 4.1 0.7 L4.55 1.2 M0.85 1.95 L1.1 1.9 Q1.7 1.9 2.4 2.65 3.1 3.4 3.1 3.95 M1.65 0.35 L1.9 0.2 M-0.8 -5.55 L-0.75 -5.55 M-0.8 -5.55 Q-1.5 -5.05 -1.5 -4.45 L-1.25 -3.4" fill="none" stroke="#000000" stroke-linecap="round" stroke-linejoin="round" stroke-opacity="0.101960786" stroke-width="0.05"/>
    </g>
    <g id="shape11" transform="matrix(1.0, 0.0, 0.0, 1.0, -3.35, -4.4)">
      <path d="M41.15 4.85 L41.7 6.2 41.85 6.7 41.9 6.7 42.45 10.05 Q42.75 13.05 42.45 14.85 L41.55 16.05 40.85 16.2 41.1 16.7 41.05 16.7 38.9 19.2 38.1 19.8 37.15 21.05 37.05 21.2 35.9 22.25 35.55 22.6 35.0 22.6 34.9 23.25 34.55 23.55 33.8 24.25 33.55 24.4 33.2 24.3 33.2 24.7 32.75 25.05 32.1 25.55 31.9 25.7 31.75 25.8 31.75 25.85 31.15 26.3 30.25 26.95 30.1 27.0 29.75 26.9 29.75 27.25 29.35 27.5 28.7 27.9 25.75 29.4 25.7 29.45 Q25.55 30.1 25.0 30.3 L24.6 30.55 24.7 31.05 24.7 31.1 Q23.7 31.35 21.7 32.85 L21.75 32.9 22.0 33.25 22.1 33.45 22.5 33.85 22.55 33.95 22.65 34.25 22.5 34.55 22.3 34.7 22.25 34.7 21.95 34.55 21.9 34.5 21.45 33.95 21.15 33.6 21.1 33.5 20.95 33.35 20.75 32.9 20.7 32.85 20.55 33.3 20.4 33.85 20.35 34.2 20.25 34.2 20.25 34.4 20.15 34.85 20.2 34.95 20.05 35.25 19.75 35.35 19.5 35.3 19.45 35.25 19.35 35.05 19.3 35.0 19.35 34.4 19.45 34.05 19.45 33.75 19.55 33.5 17.05 34.9 16.9 35.0 16.6 35.25 10.35 38.8 10.15 38.95 10.1 39.0 9.9 39.0 9.65 39.1 4.9 41.5 4.75 41.6 4.5 41.65 4.15 41.45 3.7 40.9 3.6 40.65 3.65 40.6 3.6 40.45 3.6 40.4 3.6 40.15 3.7 39.95 3.75 39.9 4.0 39.8 4.1 39.75 6.4 38.35 8.35 36.95 8.4 36.95 8.65 36.75 8.75 36.75 8.9 36.6 9.05 36.55 14.65 32.35 15.05 32.1 15.4 32.05 15.45 32.0 16.1 31.6 18.2 30.05 18.3 29.2 18.4 29.0 18.45 28.9 Q18.7 28.45 19.1 28.3 L19.15 28.3 19.35 28.3 19.4 28.3 19.7 28.25 19.75 28.15 19.75 28.05 20.4 27.45 20.45 27.45 20.65 27.35 21.35 27.45 21.55 27.6 21.85 27.3 21.85 26.95 22.3 26.75 23.45 25.8 Q24.0 25.3 24.25 25.15 L24.25 25.1 24.25 25.05 24.35 25.0 24.6 24.9 24.85 25.05 25.25 25.35 25.05 25.6 29.1 21.55 29.5 21.1 29.95 20.65 29.95 20.6 32.85 17.15 Q35.5 13.75 37.35 10.45 39.0 7.55 40.05 4.65 L41.15 4.9 41.15 4.85 Z" fill="none" stroke="#000000" stroke-linecap="round" stroke-linejoin="round" stroke-opacity="0.3019608" stroke-width="0.5"/>
    </g>
  </defs>
</svg>
