<?xml version="1.0" encoding="UTF-8" standalone="no"?>
<svg xmlns:xlink="http://www.w3.org/1999/xlink" height="520.0px" width="520.0px" xmlns="http://www.w3.org/2000/svg">
  <g transform="matrix(10.0, 0.0, 0.0, 10.0, 0.0, 0.0)">
    <use height="52.0" transform="matrix(1.0, 0.0, 0.0, 1.0, 0.0, 0.0)" width="52.0" xlink:href="#shape0"/>
  </g>
  <defs>
    <g id="shape0" transform="matrix(1.0, 0.0, 0.0, 1.0, 0.0, 0.0)">
      <path d="M52.0 0.0 L52.0 52.0 0.0 52.0 0.0 0.0 52.0 0.0" fill="#33cc33" fill-opacity="0.0" fill-rule="evenodd" stroke="none"/>
      <path d="M39.85 14.6 L36.3 18.0 37.4 20.05 22.95 34.15 23.25 34.55 23.75 35.2 24.15 35.8 Q25.55 38.2 24.7 39.15 L23.9 39.6 22.65 40.3 22.6 40.25 22.45 40.4 22.35 40.45 19.95 40.3 Q18.7 41.0 17.1 41.0 L14.45 40.5 14.25 40.7 14.1 40.85 10.6 44.55 10.5 44.55 10.35 44.7 10.35 44.75 10.35 44.95 Q10.45 46.15 9.65 47.1 8.85 48.0 7.65 48.1 6.45 48.2 5.55 47.4 4.6 46.6 4.5 45.4 4.45 44.15 5.25 43.25 L5.85 42.7 Q6.45 42.35 7.2 42.25 L7.65 42.3 7.65 42.25 7.8 42.0 9.2 40.05 10.9 38.05 11.05 37.9 11.2 37.75 Q10.4 36.6 10.25 35.1 10.0 33.45 10.6 32.15 10.0 31.1 10.1 30.35 L10.25 29.95 10.25 29.9 10.3 29.7 10.3 29.65 10.85 28.2 11.15 27.45 Q12.0 26.45 14.6 27.5 L16.0 28.2 18.7 24.15 22.15 23.3 21.35 20.15 31.35 5.05 Q40.5 0.8 48.5 5.8 L49.8 6.75 49.85 6.75 50.6 7.3 42.2 15.45 39.85 14.6 Z" fill="none" stroke="#000000" stroke-linecap="round" stroke-linejoin="round" stroke-opacity="0.3019608" stroke-width="1.0"/>
      <path d="M7.85 42.3 L8.9 42.8 Q9.65 43.45 9.7 44.55 9.75 45.55 9.05 46.4 8.3 47.2 7.25 47.35 6.2 47.45 5.45 46.8 4.65 46.15 4.65 45.05 4.6 44.0 5.35 43.2 L5.85 42.7 Q6.45 42.35 7.2 42.25 L7.85 42.3" fill="#62593a" fill-rule="evenodd" stroke="none"/>
      <path d="M5.85 42.7 L5.35 43.2 Q4.6 44.0 4.65 45.05 4.65 46.15 5.45 46.8 6.2 47.45 7.25 47.35 8.3 47.2 9.05 46.4 9.75 45.55 9.7 44.55 9.65 43.45 8.9 42.8 L7.85 42.3 Q8.7 42.4 9.4 43.0 10.3 43.8 10.35 44.95 10.45 46.15 9.65 47.1 8.85 48.0 7.65 48.1 6.45 48.2 5.55 47.4 4.6 46.6 4.5 45.4 4.45 44.15 5.25 43.25 L5.85 42.7" fill="#403925" fill-rule="evenodd" stroke="none"/>
      <path d="M5.85 42.7 Q6.45 42.3 7.1 42.25 L7.85 42.3" fill="none" stroke="#000000" stroke-linecap="round" stroke-linejoin="round" stroke-opacity="0.3019608" stroke-width="0.05"/>
      <path d="M7.45 44.2 L6.75 44.7 6.0 44.8 5.5 44.4 Q5.35 44.05 5.6 43.75 5.85 43.4 6.2 43.2 L7.0 43.15 Q7.35 43.2 7.5 43.55 L7.45 44.2" fill="#80795f" fill-rule="evenodd" stroke="none"/>
      <path d="M10.6 44.55 L10.5 44.55 10.55 44.5 10.6 44.55" fill="#3c4824" fill-rule="evenodd" stroke="none"/>
      <path d="M8.75 44.1 L8.55 43.9 7.7 42.85 7.5 42.45 7.8 42.0 9.2 40.05 Q8.7 41.65 9.55 43.15 L8.75 44.1 M11.05 37.9 L12.6 36.1 Q13.0 37.6 13.8 38.3 L12.2 40.1 Q11.35 39.5 11.05 37.9" fill="#a2a941" fill-rule="evenodd" stroke="none"/>
      <path d="M12.6 36.1 Q14.4 34.3 16.05 33.0 L16.5 32.75 Q17.85 31.75 18.6 31.65 L19.2 31.8 19.3 32.0 13.8 38.3 Q13.0 37.6 12.6 36.1 M9.2 40.05 L10.9 38.05 11.05 37.9 Q11.35 39.5 12.2 40.1 L9.55 43.15 Q8.7 41.65 9.2 40.05" fill="#8d963a" fill-rule="evenodd" stroke="none"/>
      <path d="M15.85 38.85 L14.25 40.7 Q13.05 40.75 12.2 40.1 L13.8 38.3 Q14.6 38.9 15.85 38.85 M10.5 44.55 L10.35 44.7 9.7 44.6 8.75 44.1 9.55 43.15 10.55 44.5 10.5 44.55" fill="#727d30" fill-rule="evenodd" stroke="none"/>
      <path d="M19.3 32.0 L19.4 32.35 Q19.4 33.2 18.35 35.0 17.4 36.85 15.85 38.85 14.6 38.9 13.8 38.3 L19.3 32.0 M14.25 40.7 L14.1 40.85 10.6 44.55 10.55 44.5 9.55 43.15 12.2 40.1 Q13.05 40.75 14.25 40.7" fill="#49521f" fill-rule="evenodd" stroke="none"/>
      <path d="M12.6 36.1 Q14.4 34.3 16.05 33.0 L16.5 32.75 Q17.85 31.75 18.6 31.65 L19.2 31.8 19.3 32.0 19.4 32.35 Q19.4 33.2 18.35 35.0 17.4 36.85 15.85 38.85 L14.25 40.7 14.1 40.85 10.6 44.55 M7.5 42.45 L7.8 42.0 9.2 40.05 10.9 38.05 11.05 37.9 12.6 36.1 Q13.0 37.6 13.8 38.3 14.6 38.9 15.85 38.85 M11.05 37.9 Q11.35 39.5 12.2 40.1 13.05 40.75 14.25 40.7 M10.55 44.5 L10.6 44.55 M9.55 43.15 L10.55 44.5 M9.55 43.15 Q8.7 41.65 9.2 40.05" fill="none" stroke="#000000" stroke-linecap="round" stroke-linejoin="round" stroke-opacity="0.3019608" stroke-width="0.05"/>
      <path d="M10.6 44.55 L10.5 44.55 10.35 44.7 9.7 44.6 8.75 44.1 8.55 43.9 7.7 42.85 7.5 42.45" fill="none" stroke="#000000" stroke-linecap="round" stroke-linejoin="round" stroke-opacity="0.5019608" stroke-width="0.05"/>
      <path d="M18.4 36.65 Q17.05 38.45 15.2 38.95 13.1 39.6 11.6 38.3 L11.5 38.2 Q10.45 36.9 10.25 35.1 9.85 32.6 11.4 30.85 L11.5 30.75 18.4 36.65" fill="#62593a" fill-rule="evenodd" stroke="none"/>
      <path d="M18.4 36.65 L21.25 39.15 21.15 39.25 Q19.6 41.0 17.1 41.0 14.55 41.0 12.55 39.3 L11.6 38.3 Q13.1 39.6 15.2 38.95 17.05 38.45 18.4 36.65" fill="#403925" fill-rule="evenodd" stroke="none"/>
      <path d="M11.6 38.3 L12.55 39.3 Q14.55 41.0 17.1 41.0 19.6 41.0 21.15 39.25 L21.25 39.15 18.4 36.65 M11.6 38.3 L11.5 38.2 Q10.45 36.9 10.25 35.1 9.85 32.6 11.4 30.85 L11.5 30.75 18.4 36.65" fill="none" stroke="#000000" stroke-linecap="round" stroke-linejoin="round" stroke-opacity="0.3019608" stroke-width="0.05"/>
      <path d="M12.4 37.45 L11.3 36.5 Q10.9 35.85 10.85 35.2 10.85 34.5 11.3 34.2 11.7 33.9 12.3 34.2 L13.35 35.15 Q13.8 35.8 13.85 36.45 13.85 37.1 13.45 37.4 L12.4 37.45" fill="#80795f" fill-rule="evenodd" stroke="none"/>
      <path d="M23.9 39.6 L22.65 40.3 22.6 40.25 22.45 40.4 22.35 40.45 Q21.45 40.95 19.55 40.1 17.2 39.2 14.7 37.05 L12.0 34.3 13.0 32.75 15.3 35.2 15.9 35.7 Q18.7 38.05 21.25 39.1 L22.9 39.55 23.9 39.6 M10.25 29.95 L10.25 29.9 10.3 29.7 10.3 29.65 10.35 29.65 10.3 29.7 10.35 29.65 10.25 29.95" fill="#20210f" fill-rule="evenodd" stroke="none"/>
      <path d="M10.85 28.2 L11.15 27.45 Q12.0 26.45 14.6 27.5 17.1 28.55 19.95 31.05 22.0 32.8 23.25 34.55 L23.75 35.2 23.7 35.2 Q25.1 37.55 24.25 38.5 L23.5 39.0 22.45 38.95 20.85 38.45 Q18.25 37.45 15.45 35.05 L15.3 35.2 13.0 32.75 12.25 31.75 11.7 30.8 11.0 29.25 10.85 28.2" fill="#4d4a2d" fill-rule="evenodd" stroke="none"/>
      <path d="M23.75 35.2 L24.15 35.8 Q25.55 38.2 24.7 39.15 L23.9 39.6 22.9 39.55 21.25 39.1 Q18.7 38.05 15.9 35.7 L15.3 35.2 15.45 35.05 Q18.25 37.45 20.85 38.45 L22.45 38.95 23.5 39.0 24.25 38.5 Q25.1 37.55 23.7 35.2 L23.75 35.2" fill="#9c955b" fill-rule="evenodd" stroke="none"/>
      <path d="M12.0 34.3 L10.85 32.65 Q10.0 31.25 10.1 30.35 L10.25 29.95 10.35 29.65 10.3 29.65 10.85 28.2 11.0 29.25 11.7 30.8 12.25 31.75 13.0 32.75 12.0 34.3" fill="#000000" fill-rule="evenodd" stroke="none"/>
      <path d="M10.85 28.2 L11.15 27.45 Q12.0 26.45 14.6 27.5 17.1 28.55 19.95 31.05 22.0 32.8 23.25 34.55 L23.75 35.2 24.15 35.8 Q25.55 38.2 24.7 39.15 L23.9 39.6 22.65 40.3 22.6 40.25 22.45 40.4 22.35 40.45 Q21.45 40.95 19.55 40.1 17.2 39.2 14.7 37.05 L12.0 34.3 10.85 32.65 Q10.0 31.25 10.1 30.35 L10.25 29.95 10.25 29.9 10.3 29.7 10.3 29.65 10.85 28.2 11.0 29.25 11.7 30.8 12.25 31.75 13.0 32.75 15.3 35.2 15.9 35.7 Q18.7 38.05 21.25 39.1 L22.9 39.55 23.9 39.6 M10.35 29.65 L10.25 29.95 M10.3 29.7 L10.35 29.65" fill="none" stroke="#000000" stroke-linecap="round" stroke-linejoin="round" stroke-opacity="0.3019608" stroke-width="0.05"/>
      <path d="M20.8 36.7 Q19.25 35.95 17.45 34.4 15.65 32.8 14.7 31.35 13.7 29.9 14.15 29.4 14.55 28.9 16.15 29.65 L19.5 32.0 Q21.3 33.55 22.25 35.0 23.25 36.45 22.85 36.95 22.4 37.45 20.8 36.7" fill="#000000" fill-opacity="0.3019608" fill-rule="evenodd" stroke="none"/>
      <path d="M31.35 5.05 Q40.5 0.8 48.5 5.8 L49.8 6.75 49.85 6.75 45.65 8.0 Q44.15 7.4 42.6 7.1 L38.35 6.7 32.45 7.25 31.35 5.05" fill="#d0c9c3" fill-rule="evenodd" stroke="none"/>
      <path d="M15.65 32.1 L15.15 31.35 14.8 30.6 14.75 30.1 18.7 24.15 22.15 23.3 21.35 20.15 31.35 5.05 32.45 7.25 23.15 21.1 23.9 24.35 20.35 25.3 15.65 32.1" fill="#aaa19a" fill-rule="evenodd" stroke="none"/>
      <path d="M50.6 7.3 L42.2 15.45 39.85 14.6 36.3 18.0 37.4 20.05 21.3 35.75 20.8 35.8 19.9 35.5 19.1 35.15 35.6 18.7 34.8 16.9 38.8 12.8 40.7 13.4 45.7 8.45 50.6 7.3" fill="#a9a298" fill-rule="evenodd" stroke="none"/>
      <path d="M49.85 6.75 L50.6 7.3 45.7 8.45 Q44.05 7.7 42.4 7.3 L38.35 6.7 42.6 7.1 Q44.15 7.4 45.65 8.0 L49.85 6.75" fill="#ffffff" fill-rule="evenodd" stroke="none"/>
      <path d="M17.15 33.7 L15.65 32.1 20.35 25.3 23.9 24.35 23.15 21.1 32.45 7.25 38.35 6.7 42.4 7.3 17.15 33.7" fill="#868482" fill-rule="evenodd" stroke="none"/>
      <path d="M19.1 35.15 L17.3 33.8 17.15 33.7 42.4 7.3 Q44.05 7.7 45.7 8.45 L40.7 13.4 38.8 12.8 34.8 16.9 35.6 18.7 19.1 35.15" fill="#757371" fill-rule="evenodd" stroke="none"/>
      <path d="M50.6 7.3 L42.2 15.45 39.85 14.6 36.3 18.0 37.4 20.05 21.3 35.75 M14.75 30.1 L18.7 24.15 22.15 23.3 21.35 20.15 31.35 5.05 Q40.5 0.8 48.5 5.8 L49.8 6.75 49.85 6.75 50.6 7.3" fill="none" stroke="#000000" stroke-linecap="round" stroke-linejoin="round" stroke-opacity="0.3019608" stroke-width="0.05"/>
      <path d="M21.3 35.75 L20.8 35.8 19.9 35.5 19.1 35.15 17.3 33.8 17.15 33.7 15.65 32.1 15.15 31.35 14.8 30.6 14.75 30.1" fill="none" stroke="#000000" stroke-linecap="round" stroke-linejoin="round" stroke-opacity="0.5019608" stroke-width="0.05"/>
      <path d="M50.6 7.3 L45.7 8.45 40.7 13.4 38.8 12.8 34.8 16.9 35.6 18.7 19.1 35.15 M42.4 7.3 L38.35 6.7 32.45 7.25 23.15 21.1 23.9 24.35 20.35 25.3 15.65 32.1 M31.35 5.05 L32.45 7.25 M45.7 8.45 Q44.05 7.7 42.4 7.3" fill="none" stroke="#000000" stroke-linecap="round" stroke-linejoin="round" stroke-opacity="0.101960786" stroke-width="0.05"/>
      <path d="M45.7 7.85 Q45.55 7.5 45.2 7.3 L44.5 7.2 44.0 7.7 Q43.85 8.05 44.0 8.45 L44.55 9.0 45.25 9.05 45.7 8.6 45.7 7.85" fill="#ffffff" fill-rule="evenodd" stroke="none"/>
      <path d="M45.7 7.85 L45.7 8.6 45.25 9.05 44.55 9.0 44.0 8.45 Q43.85 8.05 44.0 7.7 L44.5 7.2 45.2 7.3 Q45.55 7.5 45.7 7.85 M45.45 6.6 L45.35 5.8 44.95 6.35 44.05 6.4 43.35 6.9 41.9 6.4 43.1 7.35 Q42.8 8.0 43.15 8.8 L44.15 9.95 45.05 10.2 Q45.85 10.65 46.4 11.75 45.8 10.4 46.1 9.85 L46.55 9.15 Q46.8 8.5 46.5 7.7 46.2 7.0 45.5 6.6 L45.45 6.6" fill="#ffffff" fill-opacity="0.3019608" fill-rule="evenodd" stroke="none"/>
      <path d="M44.85 7.7 L43.2 6.7 44.6 8.5 43.7 11.05 45.1 8.7 51.0 13.35 45.4 8.05 46.9 4.0 44.85 7.7" fill="#ffffff" fill-rule="evenodd" stroke="none"/>
    </g>
  </defs>
</svg>
