<?xml version="1.0" encoding="UTF-8" standalone="no"?>
<svg xmlns:xlink="http://www.w3.org/1999/xlink" height="520.0px" width="520.0px" xmlns="http://www.w3.org/2000/svg">
  <g transform="matrix(10.0, 0.0, 0.0, 10.0, 0.0, 0.0)">
    <use height="52.0" transform="matrix(1.0, 0.0, 0.0, 1.0, 0.0, 0.0)" width="52.0" xlink:href="#shape0"/>
    <use height="72.25" transform="matrix(-0.0907, -0.0376, -0.0704, 0.0732, 26.85, 30.7)" width="18.25" xlink:href="#sprite0"/>
    <use height="72.25" transform="matrix(-0.0907, -0.0376, -0.0704, 0.0732, 25.7, 29.35)" width="18.25" xlink:href="#sprite0"/>
    <use height="72.25" transform="matrix(-0.0907, -0.0376, -0.0704, 0.0732, 24.65, 27.95)" width="18.25" xlink:href="#sprite0"/>
    <use height="13.45" transform="matrix(-1.0, 0.0, 0.0, 1.0, 28.15, 24.9)" width="11.55" xlink:href="#sprite1"/>
    <use height="36.95" transform="matrix(1.0, 0.0, 0.0, 1.0, 14.55, 3.0)" width="33.75" xlink:href="#shape3"/>
    <use height="72.25" transform="matrix(-0.0907, -0.0376, -0.0704, 0.0732, 24.7, 30.5)" width="18.25" xlink:href="#sprite0"/>
    <use height="72.25" transform="matrix(-0.0907, -0.0376, -0.0704, 0.0732, 23.6, 28.85)" width="18.25" xlink:href="#sprite0"/>
    <use height="72.25" transform="matrix(-0.0907, -0.0376, -0.0704, 0.0732, 22.6, 27.55)" width="18.25" xlink:href="#sprite0"/>
    <use height="44.7" transform="matrix(1.0, 0.0, 0.0, 1.0, 5.15, 3.0)" width="44.15" xlink:href="#shape4"/>
  </g>
  <defs>
    <g id="shape0" transform="matrix(1.0, 0.0, 0.0, 1.0, 0.0, 0.0)">
      <path d="M52.0 0.0 L52.0 52.0 0.0 52.0 0.0 0.0 52.0 0.0" fill="#33cc33" fill-opacity="0.0" fill-rule="evenodd" stroke="none"/>
      <path d="M48.3 3.1 Q43.65 2.55 38.85 5.6 L21.75 24.55 21.35 24.5 21.2 24.5 Q19.7 24.55 18.35 25.35 L18.3 23.65 17.95 22.95 17.35 22.1 16.55 21.5 16.45 21.45 15.65 21.15 13.8 21.3 Q12.35 21.85 11.7 23.3 11.0 24.8 11.45 26.25 11.85 27.75 13.2 28.5 14.25 29.0 15.35 28.8 14.8 29.95 14.65 31.35 L14.55 33.1 13.65 34.0 11.45 36.1 9.65 37.85 8.4 39.05 8.35 39.1 8.2 39.1 Q6.25 39.15 4.95 40.55 3.65 41.95 3.7 43.9 3.75 45.8 5.2 47.1 6.6 48.45 8.5 48.35 10.35 48.25 11.6 46.95 L11.7 46.85 12.35 46.0 Q12.85 45.1 12.95 44.1 L13.25 43.85 16.35 40.9 18.0 39.25 19.35 37.95 19.5 37.95 21.55 38.35 21.7 38.35 21.8 38.35 23.65 37.9 24.1 38.45 Q23.95 39.25 24.1 40.05 24.4 41.5 25.6 42.25 L28.3 42.35 Q29.75 41.85 30.6 40.4 31.4 38.9 31.15 37.45 L30.9 36.8 30.35 35.9 29.6 35.35 29.55 35.3 28.75 35.0 26.9 35.15 26.8 35.2 26.7 35.2 26.75 35.15 Q27.85 33.55 28.1 31.5 L28.15 31.0 28.15 30.5 45.05 13.8 Q48.25 8.6 48.3 3.1 M13.65 34.0 L13.65 35.4 13.8 36.7 Q14.2 38.3 15.15 39.45 L14.35 39.15 Q13.3 38.8 12.6 38.2 L11.95 37.45 Q11.45 36.7 11.45 36.1 M19.35 37.95 Q17.05 37.95 15.65 36.05 L15.15 35.25 Q14.7 34.25 14.55 33.1 M16.35 40.9 L14.95 41.35 Q13.65 41.55 12.2 40.85 L11.8 40.65 11.35 40.4 10.4 39.6 10.05 39.1 Q9.65 38.45 9.65 37.85 M12.95 44.1 L12.5 44.25 11.5 44.2 Q10.3 44.0 9.3 42.95 8.25 41.95 8.0 40.8 7.85 40.05 8.05 39.55 L8.3 39.2 8.35 39.15 8.35 39.1 M15.35 28.8 L15.5 28.55 Q15.85 27.8 16.35 27.15 L16.9 26.55 18.15 25.5 18.35 25.35 M15.5 28.55 L15.3 27.45 Q15.3 26.8 15.6 26.3 L15.65 26.2 15.85 25.9 Q16.45 25.25 17.25 25.25 L17.9 25.35 18.15 25.5 M21.75 24.55 L23.2 24.9 23.25 24.9 23.6 24.9 23.7 24.9 Q24.9 25.0 25.8 25.6 L26.3 26.05 26.8 26.55 M16.6 33.1 L16.6 32.15 17.0 32.65 17.7 32.65 17.9 32.45 17.9 32.0 21.5 28.25 21.95 28.25 22.15 28.05 22.1 28.05 22.05 28.0 22.1 27.95 21.4 27.05 20.75 27.05 20.55 27.25 20.5 27.7 16.9 31.5 16.6 31.45 16.85 30.3 Q17.1 29.5 17.55 28.85 M21.75 28.35 L21.55 28.55 21.5 29.0 17.9 32.8 17.55 32.75 17.3 32.95 17.3 33.0 18.0 33.95 18.7 33.95 18.9 33.75 18.9 33.3 22.5 29.55 22.95 29.55 23.15 29.35 23.1 29.35 23.05 29.3 23.1 29.25 22.4 28.35 21.75 28.35 M22.85 30.0 L22.65 30.2 22.6 30.65 19.0 34.45 18.65 34.4 18.4 34.6 19.1 35.6 19.8 35.6 20.0 35.4 20.0 34.95 23.6 31.2 24.05 31.2 24.25 31.0 24.2 31.0 24.15 30.95 24.2 30.9 23.5 30.0 22.85 30.0 M17.3 35.85 L16.55 35.05 16.1 34.3 15.8 33.45 Q15.6 32.5 15.75 31.35 15.9 30.4 16.2 29.55 L17.1 28.0 17.55 27.5 19.05 26.4 Q19.55 26.15 20.0 26.05 M16.6 31.45 L16.55 31.45 16.3 31.65 16.6 32.15 M28.1 29.55 L28.15 30.5 M25.8 36.35 L24.45 37.5 23.65 37.9 M18.0 39.25 L17.2 39.45 Q16.2 39.7 15.15 39.45 M24.1 38.45 L24.45 37.5" fill="none" stroke="#000000" stroke-linecap="round" stroke-linejoin="round" stroke-opacity="0.3019608" stroke-width="0.7000000000000001"/>
      <path d="M15.65 21.15 L15.6 21.3 14.85 21.35 Q14.15 21.7 13.9 22.6 13.7 23.6 14.1 24.5 14.5 25.55 15.35 26.05 L17.05 26.2 Q17.75 25.95 18.05 24.95 18.25 24.05 17.8 23.05 L17.95 22.95 17.35 22.1 16.55 21.5 16.45 21.45 15.65 21.15" fill="#61664b" fill-rule="evenodd" stroke="none"/>
      <path d="M17.95 22.95 L17.8 23.05 Q18.25 24.05 18.05 24.95 17.75 25.95 17.05 26.2 L15.35 26.05 Q14.5 25.55 14.1 24.5 13.7 23.6 13.9 22.6 14.15 21.7 14.85 21.35 L15.6 21.3 15.65 21.15 13.8 21.3 Q12.35 21.85 11.7 23.3 11.0 24.8 11.45 26.25 11.85 27.75 13.2 28.5 L15.95 28.6 Q17.3 28.1 18.0 26.6 18.65 25.1 18.3 23.65 L17.95 22.95" fill="#464936" fill-rule="evenodd" stroke="none"/>
      <path d="M17.95 22.95 L18.3 23.65 Q18.65 25.1 18.0 26.6 17.3 28.1 15.95 28.6 L13.2 28.5 Q11.85 27.75 11.45 26.25 11.0 24.8 11.7 23.3 12.35 21.85 13.8 21.3 L15.65 21.15 16.45 21.45 16.55 21.5 17.35 22.1 17.95 22.95 Z" fill="none" stroke="#000000" stroke-linecap="round" stroke-linejoin="round" stroke-opacity="0.3019608" stroke-width="0.05"/>
      <path d="M17.35 22.6 L17.1 22.3 16.75 22.1 16.45 22.0 16.4 22.05 16.15 22.05 15.75 22.5 15.85 23.25 16.35 23.8 17.0 23.85 17.35 23.4 17.3 22.7 17.35 22.6" fill="#ffffff" fill-rule="evenodd" stroke="none"/>
      <path d="M12.35 46.0 Q13.0 44.9 13.0 43.55 12.9 41.7 11.5 40.35 10.2 39.2 8.6 39.1 7.9 39.55 7.5 40.5 L7.45 40.55 Q6.95 41.95 7.35 43.65 7.7 45.25 8.9 46.2 9.9 47.05 10.95 46.8 L11.15 46.8 12.35 46.0" fill="#61664b" fill-rule="evenodd" stroke="none"/>
      <path d="M8.6 39.1 L8.4 39.1 8.2 39.1 Q6.25 39.15 4.95 40.55 3.65 41.95 3.7 43.9 3.75 45.8 5.2 47.1 6.6 48.45 8.5 48.35 10.35 48.25 11.6 46.95 L11.7 46.85 12.35 46.0 11.15 46.8 10.95 46.8 Q9.9 47.05 8.9 46.2 7.7 45.25 7.35 43.65 6.95 41.95 7.45 40.55 L7.5 40.5 Q7.9 39.55 8.6 39.1" fill="#464936" fill-rule="evenodd" stroke="none"/>
      <path d="M12.35 46.0 Q13.0 44.9 13.0 43.55 12.9 41.7 11.5 40.35 10.2 39.2 8.6 39.1 L8.4 39.1 8.2 39.1 Q6.25 39.15 4.95 40.55 3.65 41.95 3.7 43.9 3.75 45.8 5.2 47.1 6.6 48.45 8.5 48.35 10.35 48.25 11.6 46.95 L11.7 46.85 12.35 46.0 Z" fill="none" stroke="#000000" stroke-linecap="round" stroke-linejoin="round" stroke-opacity="0.3019608" stroke-width="0.05"/>
      <path d="M14.8 32.9 L13.65 34.0 13.65 35.4 13.8 36.7 13.65 35.4 13.65 34.0 11.45 36.1 9.65 37.85 8.4 39.05 8.35 39.15 8.3 39.2 Q7.8 39.8 8.0 40.8 8.25 41.95 9.3 42.95 10.3 44.0 11.5 44.2 L12.5 44.25 11.8 43.65 Q11.3 42.9 11.3 40.75 L11.35 40.4 Q11.55 39.55 12.6 38.2 L13.8 36.7 14.4 36.05 16.55 33.85 14.8 32.9 M11.45 36.1 Q11.45 36.7 11.95 37.45 L12.6 38.2 11.95 37.45 Q11.45 36.7 11.45 36.1 M9.65 37.85 Q9.65 38.45 10.05 39.1 10.5 39.85 11.35 40.4 10.5 39.85 10.05 39.1 9.65 38.45 9.65 37.85" fill="#5c2e01" fill-rule="evenodd" stroke="none"/>
      <path d="M16.55 33.85 L14.4 36.05 13.8 36.7 12.6 38.2 Q11.55 39.55 11.35 40.4 L12.2 40.85 Q13.65 41.55 14.95 41.35 L16.35 40.9 14.95 41.35 Q13.65 41.55 12.2 40.85 L11.35 40.4 11.3 40.75 Q11.3 42.9 11.8 43.65 L12.5 44.25 Q12.95 44.15 13.25 43.85 L16.35 40.9 18.0 39.25 21.1 36.3 16.55 33.85 M13.8 36.7 Q14.2 38.3 15.15 39.45 L14.35 39.15 Q13.3 38.8 12.6 38.2 13.3 38.8 14.35 39.15 L15.15 39.45 Q16.2 39.7 17.2 39.45 L18.0 39.25 17.2 39.45 Q16.2 39.7 15.15 39.45 14.2 38.3 13.8 36.7" fill="#984b01" fill-rule="evenodd" stroke="none"/>
      <path d="M13.65 34.0 L14.8 32.9 M13.8 36.7 L13.65 35.4 13.65 34.0 11.45 36.1 9.65 37.85 8.4 39.05 8.35 39.15 8.3 39.2 Q7.8 39.8 8.0 40.8 8.25 41.95 9.3 42.95 10.3 44.0 11.5 44.2 L12.5 44.25 Q12.95 44.15 13.25 43.85 L16.35 40.9 18.0 39.25 21.1 36.3 M12.6 38.2 L11.95 37.45 Q11.45 36.7 11.45 36.1 M11.35 40.4 Q10.5 39.85 10.05 39.1 9.65 38.45 9.65 37.85 M16.35 40.9 L14.95 41.35 Q13.65 41.55 12.2 40.85 L11.35 40.4 M12.6 38.2 Q13.3 38.8 14.35 39.15 L15.15 39.45 Q16.2 39.7 17.2 39.45 L18.0 39.25 M15.15 39.45 Q14.2 38.3 13.8 36.7" fill="none" stroke="#000000" stroke-linecap="round" stroke-linejoin="round" stroke-opacity="0.3019608" stroke-width="0.05"/>
      <path d="M18.95 26.95 Q20.9 24.95 23.25 24.9 25.6 24.85 27.0 26.8 28.45 28.75 28.1 31.5 27.75 34.35 25.8 36.35 23.9 38.35 21.55 38.35 19.15 38.4 17.7 36.45 16.3 34.5 16.7 31.75 17.05 28.95 18.95 26.95" fill="#61664b" fill-rule="evenodd" stroke="none"/>
      <path d="M18.95 26.95 Q20.9 24.95 23.25 24.9 25.6 24.85 27.0 26.8 28.45 28.75 28.1 31.5 27.75 34.35 25.8 36.35 23.9 38.35 21.55 38.35 19.15 38.4 17.7 36.45 16.3 34.5 16.7 31.75 17.05 28.95 18.95 26.95 Z" fill="none" stroke="#000000" stroke-linecap="round" stroke-linejoin="round" stroke-opacity="0.3019608" stroke-width="0.05"/>
      <path d="M19.8 27.9 Q21.35 26.35 23.2 26.3 25.1 26.25 26.2 27.8 27.35 29.35 27.05 31.55 26.8 33.75 25.25 35.3 23.75 36.9 21.85 37.0 19.95 37.0 18.8 35.45 17.7 33.9 18.0 31.75 18.3 29.5 19.8 27.9" fill="#984b01" fill-rule="evenodd" stroke="none"/>
      <path d="M19.8 27.9 Q21.35 26.35 23.2 26.3 25.1 26.25 26.2 27.8 27.35 29.35 27.05 31.55 26.8 33.75 25.25 35.3 23.75 36.9 21.85 37.0 19.95 37.0 18.8 35.45 17.7 33.9 18.0 31.75 18.3 29.5 19.8 27.9 Z" fill="none" stroke="#000000" stroke-linecap="round" stroke-linejoin="round" stroke-opacity="0.3019608" stroke-width="0.05"/>
      <path d="M20.3 28.6 Q21.65 27.2 23.35 27.2 25.0 27.15 26.0 28.55 27.0 29.9 26.75 31.9 26.55 33.85 25.2 35.25 23.8 36.7 22.1 36.75 20.45 36.75 19.45 35.4 18.45 34.0 18.7 32.05 18.9 30.05 20.3 28.6" fill="#5c2e01" fill-rule="evenodd" stroke="none"/>
      <path d="M20.3 28.6 Q21.65 27.2 23.35 27.2 25.0 27.15 26.0 28.55 27.0 29.9 26.75 31.9 26.55 33.85 25.2 35.25 23.8 36.7 22.1 36.75 20.45 36.75 19.45 35.4 18.45 34.0 18.7 32.05 18.9 30.05 20.3 28.6 Z" fill="none" stroke="#000000" stroke-linecap="round" stroke-linejoin="round" stroke-opacity="0.3019608" stroke-width="0.05"/>
      <path d="M22.65 28.4 L22.7 28.0 22.9 27.8 23.55 27.75 24.25 28.7 24.2 28.7 24.25 28.7 24.3 28.7 24.1 28.95 23.65 29.0 20.05 32.75 20.05 33.15 19.85 33.35 19.2 33.35 18.45 32.4 18.65 32.2 19.05 32.15 22.65 28.4 M25.0 30.5 L25.65 30.5 26.35 31.45 26.3 31.45 26.35 31.5 26.15 31.7 25.75 31.7 22.15 35.45 22.1 35.9 21.9 36.1 21.25 36.1 20.55 35.1 20.75 34.9 21.15 34.95 24.75 31.15 24.8 30.7 25.0 30.5 M25.35 30.05 L25.1 30.3 24.7 30.3 21.1 34.0 21.1 34.45 20.9 34.7 20.2 34.65 19.5 33.7 19.7 33.5 20.05 33.5 23.65 29.75 23.75 29.25 23.95 29.05 24.6 29.1 25.3 30.0 25.2 30.05 25.3 30.05 25.35 30.05" fill="#000000" fill-opacity="0.3019608" fill-rule="evenodd" stroke="none"/>
    </g>
    <g id="sprite0" transform="matrix(1.0, 0.0, 0.0, 1.0, 0.0, 0.0)">
      <use height="72.25" transform="matrix(1.0, 0.0, 0.0, 1.0, 0.0, 0.0)" width="18.25" xlink:href="#shape1"/>
    </g>
    <g id="shape1" transform="matrix(1.0, 0.0, 0.0, 1.0, 0.0, 0.0)">
      <path d="M5.3 72.25 L5.25 72.25 5.25 72.1 5.3 72.25" fill="#2d3328" fill-rule="evenodd" stroke="none"/>
      <path d="M0.85 6.5 L0.75 6.35 13.0 0.15 13.1 0.0 18.25 2.55 5.65 8.9 0.85 6.5" fill="#ffcd2f" fill-rule="evenodd" stroke="none"/>
      <path d="M18.25 2.55 L18.25 5.35 15.25 9.85 15.25 61.25 18.25 62.75 18.25 65.75 5.3 72.25 5.25 72.1 5.25 69.25 5.45 69.15 8.25 65.0 8.45 64.65 8.45 13.65 5.25 12.05 5.25 9.05 5.65 8.9 18.25 2.55" fill="#d6a426" fill-rule="evenodd" stroke="none"/>
      <path d="M5.25 72.1 L0.0 69.55 0.0 66.85 0.1 66.9 1.0 67.35 1.6 67.45 5.25 69.25 5.25 72.1 M3.1 62.5 L3.2 62.25 3.2 11.25 0.45 9.9 0.0 9.5 0.1 9.35 0.0 9.35 0.0 6.65 0.4 6.5 0.85 6.5 5.65 8.9 5.25 9.05 5.25 12.05 8.45 13.65 8.45 64.65 8.25 65.0 3.1 62.5" fill="#a07b1c" fill-rule="evenodd" stroke="none"/>
      <path d="M0.1 66.9 L3.1 62.5 8.25 65.0 5.45 69.15 5.25 69.25 1.6 67.45 1.0 67.35 0.1 66.9" fill="#deaa28" fill-rule="evenodd" stroke="none"/>
      <path d="M0.85 6.5 L0.75 6.35 13.0 0.15 13.1 0.0 18.25 2.55 18.25 5.35 15.25 9.85 15.25 61.25 18.25 62.75 18.25 65.75 5.3 72.25 M5.25 72.1 L0.0 69.55 0.0 66.85 0.1 66.9 3.1 62.5 3.2 62.25 3.2 11.25 0.45 9.9 0.0 9.5 0.1 9.35 0.0 9.35 0.0 6.65 0.4 6.5 0.85 6.5 Z" fill="none" stroke="#000000" stroke-linecap="round" stroke-linejoin="round" stroke-opacity="0.3019608" stroke-width="0.05"/>
    </g>
    <g id="sprite1" transform="matrix(1.0, 0.0, 0.0, 1.0, 5.75, 6.7)">
      <use height="13.45" transform="matrix(1.0, 0.0, 0.0, 1.0, -5.75, -6.7)" width="11.55" xlink:href="#shape2"/>
    </g>
    <g id="shape2" transform="matrix(1.0, 0.0, 0.0, 1.0, 5.75, 6.7)">
      <path d="M-5.7 -0.1 Q-6.05 -2.85 -4.6 -4.8 -3.2 -6.75 -0.85 -6.7 1.5 -6.65 3.45 -4.65 5.35 -2.65 5.7 0.15 6.1 2.9 4.7 4.85 3.25 6.8 0.85 6.75 -1.5 6.75 -3.4 4.75 -5.35 2.75 -5.7 -0.1" fill="#000000" fill-rule="evenodd" stroke="none"/>
    </g>
    <g id="shape3" transform="matrix(1.0, 0.0, 0.0, 1.0, -14.55, -3.0)">
      <path d="M43.0 15.85 L45.05 13.8 Q48.25 8.6 48.3 3.1 L26.35 25.05 26.55 25.3 27.1 26.2 48.3 3.1 Q46.95 10.5 43.0 15.85" fill="#e8d6cb" fill-rule="evenodd" stroke="none"/>
      <path d="M27.8 30.85 L43.0 15.85 Q46.95 10.5 48.3 3.1 L27.1 26.2 Q28.1 28.2 27.8 30.8 L27.8 30.85" fill="#9a8e87" fill-rule="evenodd" stroke="none"/>
      <path d="M48.3 3.1 Q43.65 2.55 38.85 5.6 L23.0 23.15 Q25.0 23.35 26.35 25.05 L48.3 3.1 M21.0 32.85 Q22.2 34.35 23.6 34.95 L27.8 30.85 27.8 30.8 Q28.1 28.2 27.1 26.2 L21.0 32.85" fill="#8c7f74" fill-rule="evenodd" stroke="none"/>
      <path d="M23.0 23.15 L18.45 28.2 Q19.15 30.0 19.95 31.4 L26.35 25.05 Q25.0 23.35 23.0 23.15" fill="#615850" fill-rule="evenodd" stroke="none"/>
      <path d="M19.95 31.4 L20.45 32.1 21.0 32.85 27.1 26.2 26.55 25.3 26.35 25.05 19.95 31.4" fill="#ada097" fill-rule="evenodd" stroke="none"/>
      <path d="M48.3 3.1 Q43.65 2.55 38.85 5.6 L23.0 23.15 18.45 28.2 Q19.15 30.0 19.95 31.4 L20.45 32.1 21.0 32.85 Q22.2 34.35 23.6 34.95 L27.8 30.85 43.0 15.85 45.05 13.8 Q48.25 8.6 48.3 3.1 M27.8 30.8 L27.8 30.85" fill="none" stroke="#000000" stroke-linecap="round" stroke-linejoin="round" stroke-opacity="0.3019608" stroke-width="0.05"/>
      <path d="M26.85 35.2 L26.35 34.65 26.1 34.5 25.25 34.4 Q24.85 34.55 24.4 35.2 24.2 35.45 24.15 35.75 L27.45 39.4 27.6 39.2 Q28.25 38.55 28.25 37.6 28.2 36.75 27.7 36.15 L26.85 35.2 M15.6 26.3 L20.55 31.8 21.65 29.3 18.65 25.9 Q18.05 25.2 17.25 25.25 16.45 25.25 15.85 25.9 L15.6 26.3" fill="#60664b" fill-rule="evenodd" stroke="none"/>
      <path d="M27.45 39.4 L24.15 35.75 22.2 33.55 21.35 35.3 24.9 39.35 Q25.45 39.9 26.25 39.95 26.95 39.85 27.45 39.4 M15.6 26.3 Q15.3 26.8 15.3 27.45 15.3 28.4 15.8 29.1 L19.75 33.4 20.55 31.8 15.6 26.3" fill="#343828" fill-rule="evenodd" stroke="none"/>
      <path d="M24.15 35.75 Q24.2 35.45 24.4 35.2 24.85 34.55 25.25 34.4 L26.1 34.5 26.35 34.65 23.25 31.1 22.2 33.55 24.15 35.75" fill="#4c523c" fill-rule="evenodd" stroke="none"/>
      <path d="M26.85 35.2 L27.7 36.15 Q28.2 36.75 28.25 37.6 28.25 38.55 27.6 39.2 L27.45 39.4 M26.35 34.65 L23.25 31.1 M21.35 35.3 L24.9 39.35 Q25.45 39.9 26.25 39.95 26.95 39.85 27.45 39.4 M19.75 33.4 L15.8 29.1 Q15.3 28.4 15.3 27.45 15.3 26.8 15.6 26.3 L15.85 25.9 Q16.45 25.25 17.25 25.25 18.05 25.2 18.65 25.9 L21.65 29.3" fill="none" stroke="#000000" stroke-linecap="round" stroke-linejoin="round" stroke-opacity="0.3019608" stroke-width="0.05"/>
      <path d="M23.55 36.15 L23.75 35.95 Q25.7 33.95 26.05 31.1 26.4 28.35 24.95 26.4 23.6 24.5 21.35 24.5 L21.1 24.75 Q19.2 26.75 18.85 29.55 18.45 32.3 19.85 34.25 21.25 36.15 23.55 36.15" fill="#61664b" fill-rule="evenodd" stroke="none"/>
      <path d="M23.55 36.15 Q21.25 36.15 19.85 34.25 18.45 32.3 18.85 29.55 19.2 26.75 21.1 24.75 L21.35 24.5 21.2 24.5 Q18.85 24.55 16.9 26.55 15.0 28.55 14.65 31.35 14.25 34.1 15.65 36.05 17.1 38.0 19.5 37.95 21.75 37.95 23.55 36.15" fill="#464936" fill-rule="evenodd" stroke="none"/>
      <path d="M21.35 24.5 Q23.6 24.5 24.95 26.4 26.4 28.35 26.05 31.1 25.7 33.95 23.75 35.95 L23.55 36.15 M21.35 24.5 L21.2 24.5 Q18.85 24.55 16.9 26.55 15.0 28.55 14.65 31.35 14.25 34.1 15.65 36.05 17.1 38.0 19.5 37.95 21.75 37.95 23.55 36.15" fill="none" stroke="#000000" stroke-linecap="round" stroke-linejoin="round" stroke-opacity="0.3019608" stroke-width="0.05"/>
      <path d="M17.55 27.5 Q19.1 25.95 20.95 25.9 22.85 25.85 23.95 27.4 25.1 28.95 24.8 31.15 24.55 33.35 23.0 34.9 21.5 36.5 19.6 36.6 17.7 36.6 16.55 35.05 15.45 33.5 15.75 31.35 16.05 29.1 17.55 27.5" fill="#984b01" fill-rule="evenodd" stroke="none"/>
      <path d="M17.55 27.5 Q19.1 25.95 20.95 25.9 22.85 25.85 23.95 27.4 25.1 28.95 24.8 31.15 24.55 33.35 23.0 34.9 21.5 36.5 19.6 36.6 17.7 36.6 16.55 35.05 15.45 33.5 15.75 31.35 16.05 29.1 17.55 27.5 Z" fill="none" stroke="#000000" stroke-linecap="round" stroke-linejoin="round" stroke-opacity="0.3019608" stroke-width="0.05"/>
      <path d="M18.2 28.1 Q19.55 26.7 21.25 26.7 22.9 26.65 23.9 28.05 24.9 29.4 24.65 31.4 24.45 33.35 23.1 34.75 21.7 36.2 20.0 36.25 18.35 36.25 17.35 34.9 16.35 33.5 16.6 31.55 16.8 29.55 18.2 28.1" fill="#5c2e01" fill-rule="evenodd" stroke="none"/>
      <path d="M18.2 28.1 Q19.55 26.7 21.25 26.7 22.9 26.65 23.9 28.05 24.9 29.4 24.65 31.4 24.45 33.35 23.1 34.75 21.7 36.2 20.0 36.25 18.35 36.25 17.35 34.9 16.35 33.5 16.6 31.55 16.8 29.55 18.2 28.1 Z" fill="none" stroke="#000000" stroke-linecap="round" stroke-linejoin="round" stroke-opacity="0.3019608" stroke-width="0.05"/>
      <path d="M20.65 28.05 L20.7 27.65 20.9 27.45 21.55 27.4 22.25 28.35 22.2 28.35 22.25 28.35 22.3 28.35 22.1 28.6 21.65 28.65 18.05 32.4 18.05 32.8 17.85 33.0 17.2 33.0 16.45 32.05 16.65 31.85 17.05 31.8 20.65 28.05 M23.35 29.7 L23.1 29.95 22.7 29.95 19.1 33.65 19.1 34.1 18.9 34.35 18.2 34.3 17.5 33.35 17.7 33.15 18.05 33.15 21.65 29.4 21.75 28.9 21.95 28.7 22.6 28.75 23.3 29.65 23.2 29.7 23.3 29.7 23.35 29.7 M23.0 30.15 L23.65 30.15 24.35 31.1 24.3 31.1 24.35 31.15 24.15 31.35 23.75 31.35 20.15 35.1 20.1 35.55 19.9 35.75 19.25 35.75 18.55 34.75 18.75 34.55 19.15 34.6 22.75 30.8 22.8 30.35 23.0 30.15" fill="#000000" fill-opacity="0.3019608" fill-rule="evenodd" stroke="none"/>
    </g>
    <g id="shape4" transform="matrix(1.0, 0.0, 0.0, 1.0, -5.15, -3.0)">
      <path d="M28.75 35.0 L28.75 35.15 27.95 35.2 Q27.15 35.5 26.85 36.4 26.55 37.4 26.95 38.35 27.25 39.35 28.0 39.85 L29.75 39.95 Q30.45 39.7 30.8 38.75 31.15 37.85 30.75 36.9 L30.9 36.8 30.35 35.9 29.6 35.35 29.55 35.3 28.75 35.0" fill="#61664b" fill-rule="evenodd" stroke="none"/>
      <path d="M28.75 35.0 L26.9 35.15 Q25.45 35.7 24.65 37.1 23.8 38.6 24.1 40.05 24.4 41.5 25.6 42.25 L28.3 42.35 Q29.75 41.85 30.6 40.4 31.4 38.9 31.15 37.45 L30.9 36.8 30.75 36.9 Q31.15 37.85 30.8 38.75 30.45 39.7 29.75 39.95 L28.0 39.85 Q27.25 39.35 26.95 38.35 26.55 37.4 26.85 36.4 27.15 35.5 27.95 35.2 L28.75 35.15 28.75 35.0" fill="#464936" fill-rule="evenodd" stroke="none"/>
      <path d="M30.9 36.8 L31.15 37.45 Q31.4 38.9 30.6 40.4 29.75 41.85 28.3 42.35 L25.6 42.25 Q24.4 41.5 24.1 40.05 23.8 38.6 24.65 37.1 25.45 35.7 26.9 35.15 L28.75 35.0 M30.9 36.8 L30.35 35.9 29.6 35.35 29.55 35.3 28.75 35.0" fill="none" stroke="#000000" stroke-linecap="round" stroke-linejoin="round" stroke-opacity="0.3019608" stroke-width="0.05"/>
      <path d="M30.2 36.35 L30.0 36.05 29.7 35.8 29.4 35.7 29.35 35.75 29.1 35.75 Q28.8 35.9 28.65 36.2 L28.7 36.95 29.1 37.5 29.75 37.55 30.15 37.15 30.15 36.4 30.2 36.35" fill="#ffffff" fill-rule="evenodd" stroke="none"/>
      <path d="M30.4 39.15 L30.45 38.9 30.45 38.6 30.4 38.35 30.3 38.4 30.25 38.2 29.85 38.25 29.5 38.65 29.45 39.25 29.65 39.6 30.0 39.55 30.4 39.15" fill="#ffffff" fill-rule="evenodd" stroke="none"/>
      <path d="M5.2 45.6 L5.15 45.65 Q8.5 49.5 11.1 46.15 11.65 45.4 10.7 45.0 8.95 47.5 5.2 45.6" fill="#ffffff" fill-rule="evenodd" stroke="none"/>
      <path d="M44.1 10.7 Q44.1 11.2 44.55 11.45 L45.65 11.7 Q46.25 11.65 46.65 11.2 L47.1 10.25 Q47.05 9.8 46.65 9.5 46.2 9.2 45.6 9.25 44.95 9.4 44.55 9.75 44.1 10.2 44.1 10.7" fill="#ffffff" fill-rule="evenodd" stroke="none"/>
      <path d="M44.1 10.7 Q44.1 10.2 44.55 9.75 44.95 9.4 45.6 9.25 46.2 9.2 46.65 9.5 47.05 9.8 47.1 10.25 L46.65 11.2 Q46.25 11.65 45.65 11.7 L44.55 11.45 Q44.1 11.2 44.1 10.7 M43.65 12.3 L43.35 13.3 44.25 12.7 45.75 12.8 47.25 12.3 49.2 13.15 47.9 11.8 Q48.75 11.0 48.75 9.95 48.75 8.95 47.85 8.4 L46.6 7.95 Q45.6 7.25 45.45 5.8 45.5 7.55 44.75 8.15 44.05 8.4 43.6 8.9 42.75 9.75 42.7 10.7 42.75 11.65 43.55 12.3 L43.65 12.3" fill="#ffffff" fill-opacity="0.3019608" fill-rule="evenodd" stroke="none"/>
      <path d="M45.3 11.05 L47.35 12.55 46.2 10.05 49.3 7.1 45.65 9.75 39.25 3.0 44.7 10.45 39.7 15.25 45.3 11.05" fill="#ffffff" fill-rule="evenodd" stroke="none"/>
    </g>
  </defs>
</svg>
