<?xml version="1.0" encoding="UTF-8" standalone="no"?>
<svg xmlns:xlink="http://www.w3.org/1999/xlink" height="440.0px" width="440.0px" xmlns="http://www.w3.org/2000/svg">
  <g transform="matrix(10.0, 0.0, 0.0, 10.0, 0.0, 0.0)">
    <use height="44.0" transform="matrix(1.0, 0.0, 0.0, 1.0, 0.0, 0.0)" width="44.0" xlink:href="#shape0"/>
  </g>
  <defs>
    <g id="shape0" transform="matrix(1.0, 0.0, 0.0, 1.0, 0.0, 0.0)">
      <path d="M44.0 44.0 L0.0 44.0 0.0 0.0 44.0 0.0 44.0 44.0" fill="#33cc33" fill-opacity="0.0" fill-rule="evenodd" stroke="none"/>
      <path d="M36.3 7.6 Q35.85 7.8 35.25 8.1 L34.5 8.45 34.2 8.6 33.95 8.75 Q29.5 10.95 28.65 11.0 26.2 11.05 29.9 8.9 L29.95 8.9 Q31.45 7.95 33.75 7.45 L36.3 7.6 M22.55 27.7 L21.5 26.9 22.15 27.05 22.55 27.7 M22.8 8.1 L23.45 7.85 23.25 8.25 23.2 8.25 22.8 8.1 M28.7 21.3 L27.4 21.7 27.4 21.65 27.55 20.45 28.7 21.3" fill="#e1e3f2" fill-rule="evenodd" stroke="none"/>
      <path d="M34.55 9.0 L32.8 10.15 Q29.7 12.35 27.6 14.75 L27.4 14.15 28.55 12.75 Q29.85 11.35 31.6 10.25 L32.85 9.45 33.95 8.75 34.2 8.6 34.5 8.45 35.25 8.1 Q35.85 7.8 36.3 7.6 L34.9 11.45 33.35 14.5 32.0 16.55 30.15 19.15 30.0 19.1 Q33.95 13.45 34.95 9.75 L31.95 14.45 Q32.5 12.85 32.3 11.6 L34.55 9.0 34.9 8.75 34.55 9.0 M33.95 21.0 L33.7 21.9 33.75 21.5 33.95 21.0" fill="#ffffff" fill-rule="evenodd" stroke="none"/>
      <path d="M33.95 8.75 L32.85 9.45 31.6 10.25 Q29.85 11.35 28.55 12.75 L27.4 14.15 Q27.0 13.15 26.85 12.15 L26.75 12.05 26.75 11.95 26.75 11.9 26.55 10.4 28.3 9.3 28.6 9.15 Q31.35 7.7 33.75 7.45 31.45 7.95 29.95 8.9 L29.9 8.9 Q26.2 11.05 28.65 11.0 29.5 10.95 33.95 8.75" fill="#b1b4cf" fill-rule="evenodd" stroke="none"/>
      <path d="M27.6 14.75 Q29.7 12.35 32.8 10.15 L34.55 9.0 32.3 11.6 Q30.15 14.25 28.65 16.95 L28.0 15.7 27.6 14.75" fill="#a89696" fill-rule="evenodd" stroke="none"/>
      <path d="M23.9 7.95 L28.15 8.9 28.3 9.3 26.55 10.4 24.95 9.8 23.9 7.95" fill="#dde0e6" fill-rule="evenodd" stroke="none"/>
      <path d="M23.45 7.85 L23.9 7.95 24.95 9.8 26.55 10.4 26.75 11.9 26.75 11.95 26.5 12.1 24.9 13.05 23.2 8.25 23.25 8.25 23.45 7.85" fill="#b5b8c7" fill-rule="evenodd" stroke="none"/>
      <path d="M27.4 14.15 L27.6 14.75 28.0 15.7 28.65 16.95 28.8 17.25 28.9 17.45 29.15 17.85 29.6 18.5 29.95 19.05 30.1 19.25 31.0 20.9 31.15 21.2 Q26.4 16.4 26.5 12.1 L26.75 11.95 26.75 12.05 26.85 12.15 Q27.0 13.15 27.4 14.15" fill="#747680" fill-rule="evenodd" stroke="none"/>
      <path d="M28.65 16.95 Q30.15 14.25 32.3 11.6 32.5 12.85 31.95 14.45 31.3 16.25 29.65 18.45 L29.6 18.5 29.15 17.85 28.9 17.45 28.8 17.25 28.65 16.95" fill="#c2c4b4" fill-rule="evenodd" stroke="none"/>
      <path d="M29.95 19.05 L29.6 18.5 29.65 18.45 Q31.3 16.25 31.95 14.45 L34.95 9.75 Q33.95 13.45 30.0 19.1 L29.95 19.05" fill="#7c7f9e" fill-rule="evenodd" stroke="none"/>
      <path d="M32.0 16.55 L32.15 16.85 31.95 19.1 31.95 19.15 31.95 19.2 Q31.65 20.75 31.0 20.9 L30.1 19.25 30.15 19.15 32.0 16.55" fill="#5f6169" fill-rule="evenodd" stroke="none"/>
      <path d="M32.15 16.85 L32.7 18.1 31.95 19.1 32.15 16.85 M31.15 21.2 L31.0 20.9 Q31.65 20.75 31.95 19.2 L32.9 21.45 31.25 21.4 31.15 21.2" fill="#797c85" fill-rule="evenodd" stroke="none"/>
      <path d="M19.9 13.85 L20.85 11.95 20.15 14.0 19.9 13.85 M30.1 19.25 L29.95 19.05 30.0 19.1 30.15 19.15 30.1 19.25 M32.9 21.45 L33.1 21.45 32.95 21.55 32.9 21.45 M33.75 21.45 L33.75 21.5 33.7 21.9 33.75 21.45 M25.75 23.4 L25.7 23.45 25.55 23.3 25.75 23.4 M23.0 25.75 L23.35 25.85 23.25 25.95 23.0 25.75 M21.35 16.0 L21.0 16.05 21.05 15.9 21.35 16.0 M22.3 17.5 L22.35 17.5 22.05 19.0 22.1 19.1 22.05 19.1 21.95 18.85 21.95 18.3 21.95 18.1 Q22.05 17.7 22.3 17.5" fill="#d4d0c8" fill-rule="evenodd" stroke="none"/>
      <path d="M31.15 24.1 L28.15 26.8 27.0 26.35 26.0 27.9 23.65 27.75 25.35 26.45 23.35 25.85 25.7 23.45 25.75 23.4 27.6 23.55 29.8 21.3 29.85 21.3 31.25 21.4 32.9 21.45 32.95 21.55 30.15 23.95 31.15 24.1" fill="#2f3340" fill-rule="evenodd" stroke="none"/>
      <path d="M33.7 21.9 L31.15 24.1 30.15 23.95 32.95 21.55 33.1 21.45 33.75 21.45 33.7 21.9 M28.15 26.8 L27.25 27.6 26.45 27.9 26.0 27.9 27.0 26.35 28.15 26.8 M23.65 27.75 L22.55 27.7 22.15 27.05 23.25 25.95 23.35 25.85 25.35 26.45 23.65 27.75 M29.8 21.3 L27.6 23.55 25.75 23.4 27.4 21.7 28.7 21.3 29.8 21.3" fill="#444a5c" fill-rule="evenodd" stroke="none"/>
      <path d="M32.7 18.1 L33.95 21.0 33.75 21.5 33.75 21.45 33.1 21.45 32.9 21.45 31.95 19.2 31.95 19.15 31.95 19.1 32.7 18.1 M27.2 19.6 L28.85 20.1 29.8 21.3 28.7 21.3 27.55 20.45 27.2 19.6" fill="#b3b8c6" fill-rule="evenodd" stroke="none"/>
      <path d="M26.5 12.1 Q26.4 16.4 31.15 21.2 L31.25 21.4 29.85 21.3 29.8 21.3 28.85 20.1 27.2 19.6 24.9 13.05 26.5 12.1" fill="#979aa6" fill-rule="evenodd" stroke="none"/>
      <path d="M27.4 21.7 L25.75 23.4 25.55 23.3 23.35 23.1 23.7 22.1 22.6 21.75 22.75 20.25 22.75 19.3 22.95 19.25 23.25 18.95 23.45 18.55 23.5 18.3 25.3 18.95 24.9 20.15 25.7 20.45 27.2 19.6 27.55 20.45 27.4 21.65 27.4 21.7" fill="#8294a1" fill-rule="evenodd" stroke="none"/>
      <path d="M20.85 11.95 L22.8 8.1 23.2 8.25 24.9 13.05 24.0 14.1 22.25 13.45 21.35 16.0 21.05 15.9 21.3 14.05 20.15 14.0 20.85 11.95" fill="#8296a1" fill-rule="evenodd" stroke="none"/>
      <path d="M19.75 18.6 L19.15 15.8 19.2 15.2 19.9 13.85 20.15 14.0 21.3 14.05 21.05 15.9 21.0 16.05 21.35 16.0 22.55 15.7 23.2 17.2 23.15 17.2 22.8 17.15 22.75 17.2 22.5 17.3 22.3 17.5 Q22.05 17.7 21.95 18.1 L20.85 17.05 20.25 18.75 19.75 18.6" fill="#a19887" fill-rule="evenodd" stroke="none"/>
      <path d="M22.25 13.45 L24.0 14.1 24.9 13.05 27.2 19.6 25.7 20.45 24.9 20.15 25.3 18.95 23.5 18.3 23.5 18.0 23.5 17.65 23.35 17.35 23.2 17.2 22.55 15.7 21.35 16.0 22.25 13.45" fill="#71778c" fill-rule="evenodd" stroke="none"/>
      <path d="M22.8 17.15 L22.7 17.3 22.6 17.45 22.7 17.8 22.8 18.1 22.8 18.3 22.75 18.6 22.45 19.15 22.2 19.3 22.1 19.1 22.05 19.0 22.35 17.5 22.3 17.5 22.5 17.3 22.75 17.2 22.8 17.15" fill="#999999" fill-rule="evenodd" stroke="none"/>
      <path d="M23.2 17.2 L23.35 17.35 23.5 17.65 23.5 18.0 23.5 18.3 23.45 18.55 23.25 18.95 22.95 19.25 22.75 19.3 22.5 19.35 22.35 19.35 22.2 19.3 22.45 19.15 22.75 18.6 22.8 18.3 22.8 18.1 22.7 17.8 22.6 17.45 22.7 17.3 22.8 17.15 23.15 17.2 23.2 17.2" fill="#666666" fill-rule="evenodd" stroke="none"/>
      <path d="M19.9 19.15 L19.75 18.6 20.25 18.75 20.85 17.05 21.95 18.1 21.95 18.3 21.95 18.85 22.05 19.1 22.1 19.1 22.2 19.3 22.35 19.35 22.5 19.35 22.75 19.3 22.75 20.25 21.6 19.8 20.7 22.4 21.6 19.8 22.75 20.25 22.6 21.75 23.7 22.1 23.35 23.1 25.55 23.3 25.7 23.45 23.35 25.85 23.0 25.75 22.55 25.25 23.35 23.1 22.55 25.25 23.0 25.75 23.25 25.95 22.15 27.05 21.5 26.9 21.45 26.9 21.4 26.5 20.55 22.4 20.7 22.4 20.5 22.3 20.0 19.75 19.95 19.45 19.9 19.15" fill="#8189a0" fill-rule="evenodd" stroke="none"/>
      <path d="M12.9 30.7 L12.9 30.65 18.35 21.55 12.85 31.6 12.55 31.2 12.55 31.15 12.9 30.7 M19.8 25.2 Q18.55 30.1 14.2 32.65 13.6 32.65 12.9 31.75 L14.25 29.45 Q17.7 23.9 19.6 22.8 L19.55 23.25 Q19.8 23.15 19.55 23.65 L16.5 27.85 14.2 31.3 14.2 32.2 Q17.15 30.5 19.75 25.05 L19.8 25.2 M20.7 22.4 L20.55 22.4 20.5 22.3 20.7 22.4" fill="#353e7b" fill-rule="evenodd" stroke="none"/>
      <path d="M15.75 32.6 Q16.05 32.8 15.9 33.3 L15.75 33.6 14.95 34.3 14.85 34.3 14.4 34.45 14.15 34.45 14.0 34.4 13.7 34.35 12.7 33.6 11.95 32.2 11.95 32.0 11.9 31.35 11.95 31.2 Q12.35 30.6 12.9 30.7 L12.55 31.15 12.55 31.2 12.75 31.85 12.75 31.95 12.85 32.1 Q13.1 32.9 13.7 33.3 L14.35 33.55 14.75 33.5 15.75 32.6" fill="#000066" fill-rule="evenodd" stroke="none"/>
      <path d="M14.85 34.3 L14.5 34.65 14.15 34.45 14.4 34.45 14.85 34.3 M14.25 34.85 L13.9 35.2 14.0 35.0 13.95 34.95 14.25 34.85 M13.65 35.4 L13.45 35.55 13.55 35.3 13.65 35.4 M12.9 36.05 L12.5 36.4 12.55 36.25 12.75 35.95 12.9 36.05 M12.15 36.75 L12.05 36.9 11.75 36.8 11.75 36.75 12.15 36.75 M11.3 37.5 L11.2 37.55 10.85 37.45 11.05 37.45 11.2 37.5 11.3 37.5 M9.95 38.5 L9.75 38.5 9.55 38.55 9.05 38.35 8.9 38.25 8.75 38.05 9.8 38.4 9.95 38.5 M8.7 37.35 L8.75 37.1 8.75 37.05 8.65 36.9 8.6 36.85 Q8.55 36.8 8.5 36.9 L7.7 38.35 7.85 37.1 7.6 37.0 8.45 36.2 8.4 36.0 8.9 36.7 8.4 36.0 8.3 35.85 9.05 36.5 9.1 36.4 9.4 35.85 9.8 35.15 9.95 34.8 10.45 33.9 11.4 34.4 Q11.65 35.05 12.25 35.35 L12.35 35.45 12.35 35.55 11.85 35.3 11.2 34.45 10.6 34.3 11.05 34.9 10.95 35.0 10.6 34.95 10.7 35.2 11.25 35.45 11.3 35.5 11.7 35.65 11.3 35.55 11.2 35.55 10.7 35.45 10.4 35.6 Q10.25 35.75 10.4 35.95 L10.7 36.25 10.65 36.25 10.3 36.0 10.1 35.8 9.75 35.65 10.15 36.25 9.45 36.0 9.4 35.85 9.45 36.0 10.15 37.0 9.65 36.8 9.6 36.95 9.45 36.9 9.4 37.1 9.4 37.35 9.25 37.35 8.9 36.8 8.9 36.75 8.9 36.8 8.7 37.35 M10.5 33.85 L10.95 33.1 11.9 31.35 11.95 32.0 11.95 32.2 12.7 33.6 13.7 34.35 13.4 34.35 12.85 34.15 12.75 34.05 12.7 34.05 12.1 33.4 12.2 33.8 12.1 33.8 12.0 33.6 11.9 32.6 11.95 32.2 11.7 33.45 11.65 33.6 11.6 33.6 11.35 33.4 11.2 33.8 11.25 34.05 10.8 33.5 10.9 33.8 10.5 33.85 M10.95 33.1 L11.1 33.6 11.2 33.8 11.1 33.6 10.95 33.1 M9.8 35.15 L10.1 35.8 9.8 35.15 M8.15 36.1 L7.25 36.6 7.35 37.45 7.15 37.35 7.05 37.0 7.0 36.95 7.2 36.45 8.15 36.1 M8.9 36.7 L8.9 36.75 8.75 37.05 8.9 36.75 8.9 36.7 9.05 36.5 8.9 36.7 M9.1 36.4 L9.25 37.35 9.1 36.4 M9.95 34.8 L10.7 35.2 9.95 34.8" fill="#8b9dbe" fill-rule="evenodd" stroke="none"/>
      <path d="M14.5 34.65 L14.25 34.85 13.95 34.95 14.0 35.0 13.9 35.2 13.65 35.4 13.55 35.3 13.0 34.95 12.65 34.7 13.05 34.85 13.95 34.95 13.05 34.85 12.65 34.7 13.0 34.95 13.55 35.3 13.45 35.55 13.2 35.75 12.9 36.05 12.75 35.95 12.6 35.9 11.7 35.65 12.6 35.9 12.75 35.95 12.55 36.25 12.5 36.4 12.4 36.5 12.15 36.75 11.75 36.75 11.75 36.8 12.05 36.9 11.3 37.5 11.2 37.5 11.05 37.45 10.85 37.45 11.2 37.55 10.45 38.25 10.1 38.45 10.05 38.5 9.95 38.5 9.8 38.4 8.75 38.05 8.75 38.0 8.75 37.6 8.7 37.55 8.65 37.4 8.7 37.35 8.9 36.8 9.25 37.35 9.4 37.35 9.4 37.1 9.45 36.9 9.6 36.95 9.65 36.8 10.15 37.0 10.85 37.45 10.15 37.0 9.45 36.0 10.15 36.25 9.75 35.65 10.1 35.8 10.3 36.0 10.65 36.25 10.7 36.25 10.4 35.95 Q10.25 35.75 10.4 35.6 L10.7 35.45 11.2 35.55 11.3 35.55 11.7 35.65 11.3 35.5 11.25 35.45 10.7 35.2 10.6 34.95 10.95 35.0 11.05 34.9 10.6 34.3 11.2 34.45 11.85 35.3 12.35 35.55 12.35 35.45 12.25 35.35 Q11.65 35.05 11.4 34.4 L11.25 34.05 11.4 34.4 10.45 33.9 10.5 33.85 10.9 33.8 10.8 33.5 11.25 34.05 11.2 33.8 11.35 33.4 11.6 33.6 11.65 33.6 11.7 33.45 11.95 32.2 11.95 32.0 11.95 32.2 11.9 32.6 12.0 33.6 12.1 33.8 12.2 33.8 12.1 33.4 12.7 34.05 12.75 34.05 12.85 34.15 13.4 34.35 13.7 34.35 14.0 34.4 14.15 34.45 14.5 34.65 M9.55 38.55 L9.1 38.5 8.9 38.25 9.05 38.35 9.55 38.55 M8.75 37.1 L8.4 37.5 8.1 38.25 7.8 39.0 Q7.6 39.45 8.0 39.6 7.8 39.55 7.6 39.8 L7.5 39.55 7.1 38.75 6.5 39.05 7.2 37.9 Q6.65 37.85 6.7 38.1 6.45 37.55 5.75 37.75 L7.05 36.2 Q7.75 36.2 8.3 35.85 L8.4 36.0 8.45 36.2 7.6 37.0 7.85 37.1 7.7 38.35 8.5 36.9 Q8.55 36.8 8.6 36.85 L8.65 36.9 8.75 37.05 8.75 37.1 M13.2 35.75 L12.35 35.45 13.2 35.75 M12.65 34.7 L12.2 34.05 12.1 33.8 12.2 34.05 12.65 34.7 M8.15 36.1 L8.4 36.0 8.15 36.1 7.2 36.45 7.0 36.95 7.05 37.0 7.15 37.35 7.35 37.45 7.25 36.6 8.15 36.1 M7.2 37.9 L7.25 37.85 7.35 37.45 7.25 37.85 7.2 37.9 M10.95 36.45 L10.7 36.25 10.65 36.25 10.7 36.25 10.95 36.45 M10.1 38.45 L9.7 38.15 9.4 37.7 9.7 38.15 10.1 38.45" fill="#b0d5ea" fill-rule="evenodd" stroke="none"/>
      <path d="M21.5 26.9 L15.75 32.6 14.75 33.5 14.35 33.55 13.7 33.3 Q13.1 32.9 12.85 32.1 L12.75 31.95 12.75 31.85 12.55 31.2 12.85 31.6 12.9 31.75 Q13.6 32.65 14.2 32.65 18.55 30.1 19.8 25.2 20.4 26.2 21.4 26.5 L21.45 26.9 21.5 26.9" fill="#22274f" fill-rule="evenodd" stroke="none"/>
      <path d="M18.35 21.55 L19.25 20.05 19.55 19.65 Q19.8 19.3 19.95 19.45 L20.0 19.75 20.0 19.8 14.25 29.45 12.9 31.75 12.85 31.6 18.35 21.55 M16.5 27.85 L19.55 23.65 19.55 24.1 16.5 27.85" fill="#a0abd6" fill-rule="evenodd" stroke="none"/>
      <path d="M19.75 25.05 Q17.15 30.5 14.2 32.2 L14.2 31.3 16.5 27.85 19.55 24.1 19.6 24.4 19.5 24.45 19.0 25.1 18.5 26.05 17.9 27.1 17.45 28.1 17.7 28.35 18.2 27.55 18.75 26.55 19.75 24.95 19.75 25.05" fill="#292f61" fill-rule="evenodd" stroke="none"/>
      <path d="M25.75 23.4 L25.7 23.45 25.75 23.4" fill="#b0b5c4" fill-rule="evenodd" stroke="none"/>
      <path d="M19.55 19.65 L19.9 19.15 19.95 19.45 Q19.8 19.3 19.55 19.65 M19.8 25.2 L19.75 25.05 19.75 24.95 18.75 26.55 18.2 27.55 17.7 28.35 17.45 28.1 17.9 27.1 18.5 26.05 19.0 25.1 19.5 24.45 19.6 24.4 19.55 24.1 19.55 23.65 Q19.8 23.15 19.55 23.25 L19.6 22.8 19.6 22.6 Q19.65 21.45 20.0 19.8 L20.0 19.75 20.5 22.3 20.55 22.4 21.4 26.5 Q20.4 26.2 19.8 25.2" fill="#181a38" fill-rule="evenodd" stroke="none"/>
      <path d="M19.6 22.8 Q17.7 23.9 14.25 29.45 L20.0 19.8 Q19.65 21.45 19.6 22.6 L19.6 22.8" fill="#b0baeb" fill-rule="evenodd" stroke="none"/>
      <path d="M36.3 7.6 Q35.85 7.8 35.25 8.1 L34.5 8.45 34.2 8.6 33.95 8.75 32.85 9.45 31.6 10.25 Q29.85 11.35 28.55 12.75 L27.4 14.15 M33.1 21.45 L33.75 21.45 M32.9 21.45 L31.25 21.4 29.85 21.3 M25.7 23.45 L23.35 25.85 M29.8 21.3 L28.7 21.3 27.4 21.7 25.75 23.4 M23.25 25.95 L22.15 27.05 22.55 27.7 M27.55 20.45 L28.7 21.3 M27.55 20.45 L27.4 21.65 M27.2 19.6 L27.55 20.45 M27.2 19.6 L24.9 13.05 23.2 8.25 M21.5 26.9 L22.15 27.05" fill="none" stroke="#000000" stroke-linecap="round" stroke-linejoin="round" stroke-opacity="0.101960786" stroke-width="0.4"/>
      <path d="M33.75 7.45 L36.3 7.6 34.9 11.45 33.35 14.5 32.0 16.55 32.15 16.85 32.7 18.1 33.95 21.0 33.7 21.9 31.15 24.1 28.15 26.8 27.25 27.6 26.45 27.9 26.0 27.9 23.65 27.75 22.55 27.7 21.5 26.9 15.75 32.6 Q16.05 32.8 15.9 33.3 L15.75 33.6 14.95 34.3 14.85 34.3 14.5 34.65 14.25 34.85 13.9 35.2 13.65 35.4 13.45 35.55 13.2 35.75 12.9 36.05 12.5 36.4 M12.4 36.5 L12.15 36.75 12.05 36.9 11.3 37.5 11.2 37.55 10.45 38.25 10.1 38.45 10.05 38.5 M9.95 38.5 L9.75 38.5 9.55 38.55 M8.75 38.05 L8.75 38.0 M8.75 37.1 L8.4 37.5 8.1 38.25 7.8 39.0 Q7.6 39.45 8.0 39.6 7.8 39.55 7.6 39.8 L7.5 39.55 7.1 38.75 6.5 39.05 7.2 37.9 Q6.65 37.85 6.7 38.1 6.45 37.55 5.75 37.75 L7.05 36.2 Q7.75 36.2 8.3 35.85 M9.05 36.5 L9.1 36.4 9.4 35.85 9.8 35.15 9.95 34.8 10.45 33.9 10.5 33.85 10.95 33.1 11.9 31.35 11.95 31.2 Q12.35 30.6 12.9 30.7 L12.9 30.65 18.35 21.55 19.25 20.05 19.55 19.65 19.9 19.15 19.75 18.6 19.15 15.8 19.2 15.2 19.9 13.85 20.85 11.95 22.8 8.1 23.45 7.85 23.9 7.95 28.15 8.9 28.3 9.3 28.6 9.15 Q31.35 7.7 33.75 7.45 M28.3 9.3 L26.55 10.4 M30.0 19.1 L30.15 19.15 32.0 16.55 M33.75 21.45 L33.75 21.5 33.95 21.0 M33.75 21.5 L33.7 21.9 M30.0 19.1 L29.95 19.05 M12.9 30.7 L12.55 31.15 12.55 31.2 12.75 31.85 12.75 31.95 M11.95 32.2 L11.95 32.0 M11.95 32.2 L12.7 33.6 13.7 34.35 14.0 34.4 14.15 34.45 14.4 34.45 14.85 34.3 M12.85 32.1 Q13.1 32.9 13.7 33.3 L14.35 33.55 14.75 33.5 15.75 32.6 M20.55 22.4 L21.4 26.5 21.45 26.9 21.5 26.9 M20.5 22.3 L20.0 19.75 19.95 19.45 M19.9 19.15 L19.95 19.45 M8.4 36.0 L8.15 36.1 7.25 36.6 7.35 37.45 7.25 37.85 7.2 37.9 M8.75 37.05 L8.9 36.75 8.9 36.7 9.05 36.5 M8.4 36.0 L8.3 35.85 M10.15 37.0 L10.85 37.45 M8.65 37.4 L8.7 37.55 8.75 37.6 8.75 38.0 M8.9 38.25 L9.05 38.35 9.55 38.55 M9.4 37.7 L9.7 38.15 10.1 38.45 M8.15 36.1 L7.2 36.45 7.0 36.95 7.05 37.0 7.15 37.35 7.35 37.45" fill="none" stroke="#000000" stroke-linecap="round" stroke-linejoin="round" stroke-opacity="0.3019608" stroke-width="0.4"/>
      <path d="M34.55 9.0 L34.9 8.75 M23.2 17.2 L23.35 17.35 23.5 17.65 23.5 18.0 23.5 18.3 M22.8 17.15 L22.75 17.2 22.5 17.3 22.3 17.5 Q22.05 17.7 21.95 18.1 M22.1 19.1 L22.2 19.3 22.35 19.35 22.5 19.35 22.75 19.3 22.95 19.25 23.25 18.95 23.45 18.55 23.5 18.3 M22.8 17.15 L23.15 17.2 23.2 17.2 M22.1 19.1 L22.05 19.1 21.95 18.85 21.95 18.3 21.95 18.1" fill="none" stroke="#000000" stroke-linecap="round" stroke-linejoin="round" stroke-opacity="0.2" stroke-width="0.25"/>
      <path d="M26.75 11.9 L26.75 11.95 26.5 12.1 M28.85 20.1 L29.8 21.3 M25.55 23.3 L23.35 23.1 22.55 25.25 23.0 25.75 M26.55 10.4 L24.95 9.8 23.9 7.95 M24.9 13.05 L24.0 14.1 22.25 13.45 M25.7 20.45 L27.2 19.6 M24.9 13.05 L26.5 12.1 M21.3 14.05 L20.15 14.0 20.85 11.95 M22.75 20.25 L21.6 19.8 20.7 22.4 M23.35 23.1 L23.7 22.1 22.6 21.75" fill="none" stroke="#b2ffff" stroke-linecap="round" stroke-linejoin="round" stroke-opacity="0.44313726" stroke-width="0.05"/>
      <path d="M27.4 14.15 L27.6 14.75 28.0 15.7 28.65 16.95 M26.55 10.4 L26.75 11.9 M26.75 11.95 L26.75 12.05 26.85 12.15 Q27.0 13.15 27.4 14.15 M29.95 19.05 L29.6 18.5 29.15 17.85 28.9 17.45 28.8 17.25 28.65 16.95" fill="none" stroke="#000000" stroke-linecap="round" stroke-linejoin="round" stroke-opacity="0.16078432" stroke-width="0.4"/>
      <path d="M33.1 21.45 L32.95 21.55" fill="none" stroke="#b3ffff" stroke-linecap="round" stroke-linejoin="round" stroke-width="0.05"/>
      <path d="M9.55 38.55 L9.1 38.5 8.9 38.25 8.75 38.05 M32.9 21.45 L33.1 21.45 M25.75 23.4 L25.7 23.45 M23.35 25.85 L23.25 25.95 M27.4 21.65 L27.4 21.7 M23.2 8.25 L23.25 8.25 M25.75 23.4 L25.55 23.3" fill="none" stroke="#333333" stroke-linecap="round" stroke-linejoin="round" stroke-width="0.05"/>
      <path d="M31.15 21.2 L31.0 20.9 30.1 19.25 M29.85 21.3 L29.8 21.3 27.6 23.55 25.75 23.4 M23.35 25.85 L25.35 26.45 23.65 27.75 M32.95 21.55 L30.15 23.95 31.15 24.1 M31.95 19.2 L31.95 19.15 31.95 19.1 32.7 18.1 M30.15 19.15 L30.1 19.25 M31.25 21.4 L31.15 21.2 M28.15 26.8 L27.0 26.35 26.0 27.9 M32.9 21.45 L31.95 19.2" fill="none" stroke="#b2ffff" stroke-linecap="round" stroke-linejoin="round" stroke-opacity="0.38039216" stroke-width="0.05"/>
      <path d="M27.2 19.6 L28.85 20.1 M20.25 18.75 L19.75 18.6" fill="none" stroke="#00ccff" stroke-linecap="round" stroke-linejoin="round" stroke-width="0.05"/>
      <path d="M8.7 37.35 L8.75 37.1 M11.95 32.0 L11.95 32.2 M12.1 33.8 L12.0 33.6 11.9 32.6 11.95 32.2 M11.2 33.8 L11.25 34.05 11.4 34.4 Q11.65 35.05 12.25 35.35 L12.35 35.45 13.2 35.75 M13.95 34.95 L13.05 34.85 12.65 34.7 13.0 34.95 13.55 35.3 13.65 35.4 M12.1 33.8 L12.2 34.05 12.65 34.7 M11.7 35.65 L12.6 35.9 12.75 35.95 12.9 36.05 M11.2 33.8 L11.1 33.6 10.95 33.1 M9.4 35.85 L9.45 36.0 10.15 37.0 M10.1 35.8 L9.8 35.15 M9.25 37.35 L9.1 36.4 M10.1 35.8 L10.3 36.0 10.65 36.25 10.7 36.25 10.95 36.45 M10.7 35.2 L9.95 34.8 M10.85 37.45 L11.2 37.55 M8.75 38.05 L9.8 38.4 9.95 38.5 M10.45 33.9 L11.4 34.4" fill="none" stroke="#000000" stroke-linecap="round" stroke-linejoin="round" stroke-opacity="0.3019608" stroke-width="0.05"/>
      <path d="M11.9 31.35 L11.95 32.0 M13.95 34.95 L14.25 34.85" fill="none" stroke="#0000cc" stroke-linecap="round" stroke-linejoin="round" stroke-width="0.05"/>
      <path d="M25.3 18.95 L24.9 20.15 25.7 20.45" fill="none" stroke="#002bff" stroke-linecap="round" stroke-linejoin="round" stroke-opacity="0.4117647" stroke-width="0.05"/>
      <path d="M12.5 36.4 L12.4 36.5 M10.05 38.5 L9.95 38.5 M11.7 33.45 L11.65 33.6 11.6 33.6 M12.85 34.15 L12.75 34.05 M8.9 36.75 L8.9 36.8 M10.6 39.3 L10.4 39.2" fill="none" stroke="#e1e3f2" stroke-linecap="round" stroke-linejoin="round" stroke-width="0.05"/>
      <path d="M11.75 36.75 L12.15 36.75 M8.75 37.1 L8.75 37.05" fill="none" stroke="#353e7b" stroke-linecap="round" stroke-linejoin="round" stroke-width="0.05"/>
      <path d="M8.75 38.0 L8.65 37.4 8.7 37.35 M8.3 35.85 L9.05 36.5 M8.9 36.7 L8.4 36.0" fill="none" stroke="#000000" stroke-linecap="round" stroke-linejoin="round" stroke-width="0.05"/>
      <path d="M23.45 7.85 L27.45 8.65 23.95 8.4 26.45 17.05 23.2 8.25 20.65 12.5 22.8 8.1 23.45 7.85" fill="#ffffff" fill-opacity="0.7411765" fill-rule="evenodd" stroke="none"/>
      <path d="M36.7 5.95 L36.7 17.45 Q33.9 21.65 29.65 23.8 24.6 26.35 20.3 24.35 16.0 22.3 15.15 16.85 14.4 11.45 17.5 5.95 L36.7 5.95" fill="url(#gradient0)" fill-rule="evenodd" stroke="none"/>
      <path d="M16.2 27.3 L13.9 31.35 11.9 33.8 Q11.2 34.3 11.45 33.1 11.7 31.95 12.7 29.75 L15.0 25.7 Q16.3 23.8 17.0 23.3 17.7 22.8 17.45 24.0 L16.2 27.3" fill="url(#gradient1)" fill-rule="evenodd" stroke="none"/>
    </g>
    <radialGradient cx="0" cy="0" gradientTransform="matrix(0.0117, -0.0215, 0.0161, 0.0077, 27.7, 10.75)" gradientUnits="userSpaceOnUse" id="gradient0" r="819.2" spreadMethod="pad">
      <stop offset="0.0" stop-color="#ffffde" stop-opacity="0.52156866"/>
      <stop offset="0.4117647058823529" stop-color="#ffffcc" stop-opacity="0.0"/>
    </radialGradient>
    <radialGradient cx="0" cy="0" gradientTransform="matrix(0.0048, -0.0072, -9.0E-4, 0.0045, 14.45, 28.55)" gradientUnits="userSpaceOnUse" id="gradient1" r="819.2" spreadMethod="pad">
      <stop offset="0.0" stop-color="#ffffde" stop-opacity="0.52156866"/>
      <stop offset="0.4117647058823529" stop-color="#ffffcc" stop-opacity="0.0"/>
    </radialGradient>
  </defs>
</svg>
