<?xml version="1.0" encoding="UTF-8" standalone="no"?>
<svg xmlns:xlink="http://www.w3.org/1999/xlink" height="440.0px" width="440.0px" xmlns="http://www.w3.org/2000/svg">
  <g transform="matrix(10.0, 0.0, 0.0, 10.0, 0.0, 0.0)">
    <use height="44.0" transform="matrix(1.0, 0.0, 0.0, 1.0, 0.0, 0.0)" width="44.0" xlink:href="#shape0"/>
  </g>
  <defs>
    <g id="shape0" transform="matrix(1.0, 0.0, 0.0, 1.0, 0.0, 0.0)">
      <path d="M44.0 44.0 L0.0 44.0 0.0 0.0 44.0 0.0 44.0 44.0" fill="#33cc33" fill-opacity="0.0" fill-rule="evenodd" stroke="none"/>
      <path d="M16.65 14.35 L16.55 14.25 16.55 13.95 16.65 13.95 16.65 14.35" fill="#828282" fill-rule="evenodd" stroke="none"/>
      <path d="M16.55 13.95 L16.55 13.6 16.75 13.35 16.65 13.95 16.55 13.95" fill="#4f4f4f" fill-rule="evenodd" stroke="none"/>
      <path d="M16.65 14.35 L16.55 14.25 16.55 13.95 16.55 13.6 16.75 13.35 M16.55 13.95 L16.65 13.95" fill="none" stroke="#000000" stroke-linecap="round" stroke-linejoin="round" stroke-opacity="0.24313726" stroke-width="0.05"/>
      <path d="M33.8 14.9 L34.15 15.1 33.75 15.2 33.7 15.2 33.65 14.9 33.8 14.9" fill="#dbdad7" fill-rule="evenodd" stroke="none"/>
      <path d="M34.8 15.6 L35.9 16.6 35.65 16.8 Q35.4 17.0 35.2 17.15 L34.9 17.0 34.4 16.8 34.5 16.65 Q34.5 16.4 34.2 16.75 L34.05 16.7 34.8 15.6 M32.8 18.45 L33.25 17.8 33.25 17.85 33.2 18.0 33.0 18.3 32.8 18.4 32.8 18.45" fill="#cbc9c5" fill-rule="evenodd" stroke="none"/>
      <path d="M34.4 16.8 L34.2 16.75 Q34.5 16.4 34.5 16.65 L34.4 16.8" fill="#baaf9a" fill-rule="evenodd" stroke="none"/>
      <path d="M34.15 15.1 L34.3 15.15 34.8 15.6 34.05 16.7 Q32.85 16.35 32.85 17.1 L32.95 17.4 32.65 18.0 32.8 18.1 33.15 17.7 33.25 17.8 32.8 18.45 32.6 18.6 32.15 17.25 32.15 17.2 32.85 16.3 32.95 16.15 33.7 15.2 33.75 15.2 34.15 15.1" fill="#ab9e94" fill-rule="evenodd" stroke="none"/>
      <path d="M35.9 16.6 L38.0 18.4 38.05 18.4 Q37.85 18.7 37.95 19.0 L37.2 19.95 36.8 19.55 36.85 19.3 37.35 19.65 37.45 19.6 36.85 18.8 Q36.8 18.15 35.8 17.5 L35.8 17.45 35.4 17.2 35.3 17.2 35.3 17.25 35.3 17.2 35.65 16.8 35.9 16.6" fill="#a5ab8f" fill-rule="evenodd" stroke="none"/>
      <path d="M30.95 16.65 L31.9 15.35 32.75 14.9 33.25 14.9 33.65 14.9 33.7 15.2 32.95 16.15 32.85 16.3 32.4 16.4 32.35 16.4 30.95 16.65 M33.25 14.9 L32.35 16.4 33.25 14.9" fill="#646b6a" fill-rule="evenodd" stroke="none"/>
      <path d="M35.3 17.25 L35.3 17.2 35.4 17.2 35.8 17.45 35.8 17.5 35.3 17.25 M36.85 18.8 L37.45 19.6 37.35 19.65 36.85 19.3 36.85 18.95 36.85 18.8" fill="#949e76" fill-rule="evenodd" stroke="none"/>
      <path d="M35.3 17.2 L35.2 17.15 Q35.4 17.0 35.65 16.8 L35.3 17.2 M33.9 20.45 L33.95 20.55 34.95 21.2 34.15 20.85 33.9 20.7 33.75 20.65 33.75 20.55 33.7 20.45 33.75 20.45 33.9 20.45 M33.95 20.55 L34.15 20.85 33.95 20.55" fill="#736e61" fill-rule="evenodd" stroke="none"/>
      <path d="M36.85 20.45 L36.2 21.35 36.35 21.55 36.2 21.6 36.05 21.55 35.95 21.7 34.95 21.2 33.95 20.55 33.9 20.45 34.2 20.35 34.6 20.7 35.15 21.0 34.35 20.35 34.3 20.35 34.65 20.45 35.2 20.55 35.35 20.65 35.3 20.85 35.3 21.05 Q35.4 21.2 35.65 21.2 L36.3 20.45 36.6 20.0 36.85 20.45" fill="#8c8777" fill-rule="evenodd" stroke="none"/>
      <path d="M35.05 19.8 L34.95 19.9 34.35 19.25 34.5 19.3 34.5 19.35 35.05 19.8 M35.2 20.55 L35.4 20.55 35.35 20.65 35.2 20.55 M34.3 20.35 L34.35 20.35 35.15 21.0 34.6 20.7 34.2 20.35 34.3 20.35" fill="#767a67" fill-rule="evenodd" stroke="none"/>
      <path d="M36.8 19.55 L37.2 19.95 36.85 20.45 36.6 20.0 36.8 19.55 M35.95 21.7 L35.9 21.8 35.4 22.05 33.9 20.7 34.15 20.85 34.95 21.2 35.95 21.7" fill="#aba89e" fill-rule="evenodd" stroke="none"/>
      <path d="M35.4 22.05 L34.9 22.25 34.0 21.55 33.9 21.5 33.75 20.65 33.9 20.7 35.4 22.05" fill="#857a6f" fill-rule="evenodd" stroke="none"/>
      <path d="M32.6 18.6 L32.8 18.45 32.8 18.4 33.0 18.3 33.2 18.0 33.25 17.85 33.25 17.8 33.15 17.7 33.05 17.55 32.95 17.4 32.85 17.1 Q32.85 16.35 34.05 16.7 L34.2 16.75 34.4 16.8 34.9 17.0 35.2 17.15 35.3 17.2 35.3 17.25 35.8 17.5 Q36.8 18.15 36.85 18.8 L36.85 18.95 36.85 19.3 36.8 19.55 36.6 20.0 36.3 20.45 35.65 21.2 Q35.4 21.2 35.3 21.05 L35.3 20.85 35.35 20.65 35.4 20.55 35.2 20.55 34.65 20.45 34.3 20.35 34.2 20.35 33.9 20.45 33.75 20.45 33.7 20.45 33.75 20.55 33.75 20.65 33.9 21.5 32.05 20.05 30.8 19.05 30.85 18.95 31.9 17.55 32.6 18.65 32.6 18.6 M35.05 19.8 L34.5 19.35 34.5 19.3 34.35 19.25 34.95 19.9 35.05 19.8 M32.0 18.8 L32.0 18.9 32.55 19.8 32.95 20.35 33.4 20.7 33.5 20.55 33.5 20.45 Q33.05 20.3 32.75 19.8 L32.4 19.0 32.4 18.9 32.35 18.9 32.1 18.8 32.0 18.8" fill="#c7b6a7" fill-rule="evenodd" stroke="none"/>
      <path d="M34.9 22.25 L33.4 22.0 31.5 20.55 32.05 20.05 33.9 21.5 34.0 21.55 34.9 22.25" fill="#1f1e1c" fill-rule="evenodd" stroke="none"/>
      <path d="M32.0 18.8 L32.1 18.8 32.35 18.9 32.4 18.9 32.4 19.0 32.75 19.8 Q33.05 20.3 33.5 20.45 L33.5 20.55 33.4 20.7 32.95 20.35 32.55 19.8 32.0 18.9 32.0 18.8" fill="#b8b09a" fill-rule="evenodd" stroke="none"/>
      <path d="M30.85 16.75 L30.95 16.65 32.35 16.4 32.4 16.4 32.85 16.3 32.15 17.2 32.15 17.25 31.85 17.25 31.75 17.3 30.35 17.4 30.85 16.75 M31.85 17.25 L32.4 16.4 31.85 17.25 M29.4 18.55 L30.25 17.5 31.9 17.5 31.9 17.55 30.85 18.95 30.7 18.9 29.45 18.7 29.4 18.55" fill="#6b6965" fill-rule="evenodd" stroke="none"/>
      <path d="M31.5 20.55 L29.5 18.95 29.45 18.7 30.7 18.9 30.8 19.05 32.05 20.05 31.5 20.55" fill="#42413c" fill-rule="evenodd" stroke="none"/>
      <path d="M32.15 17.25 L32.6 18.6 32.6 18.65 31.9 17.55 31.9 17.5 30.25 17.5 30.35 17.4 31.75 17.3 31.85 17.25 32.15 17.25" fill="#3b3937" fill-rule="evenodd" stroke="none"/>
      <path d="M33.15 17.7 L32.8 18.1 32.65 18.0 32.95 17.4 33.05 17.55 33.15 17.7" fill="#9c9087" fill-rule="evenodd" stroke="none"/>
      <path d="M30.95 16.65 L31.9 15.35 32.75 14.9 33.25 14.9 33.65 14.9 33.8 14.9 34.15 15.1 34.3 15.15 34.8 15.6 35.9 16.6 38.0 18.4 38.05 18.4 Q37.85 18.7 37.95 19.0 L37.2 19.95 36.85 20.45 36.2 21.35 M30.35 17.4 L30.85 16.75 M33.8 14.9 L33.65 14.9 33.7 15.2 33.75 15.2 34.15 15.1 M36.05 21.55 L35.95 21.7 35.9 21.8 35.4 22.05 34.9 22.25 33.4 22.0 31.5 20.55 29.5 18.95 29.45 18.7 29.3 18.7 29.4 18.55 30.25 17.5 30.35 17.4 M30.85 18.95 L30.8 19.05 32.05 20.05 33.9 21.5 M34.9 22.25 L34.0 21.55 M30.85 18.95 L30.7 18.9 30.8 19.05 M29.45 18.7 L29.4 18.55 M29.45 18.7 L30.7 18.9" fill="none" stroke="#000000" stroke-linecap="round" stroke-linejoin="round" stroke-opacity="0.101960786" stroke-width="0.4"/>
      <path d="M37.2 19.95 L37.45 20.2 M32.15 17.2 L32.15 17.25 32.6 18.6 M32.8 18.45 L33.25 17.8 M34.05 16.7 L34.8 15.6 M31.85 17.25 L32.15 17.25 M36.8 19.55 L37.2 19.95 M30.35 17.4 L31.75 17.3 M35.3 17.2 L35.65 16.8 Q35.4 17.0 35.2 17.15 M35.9 16.6 L35.65 16.8 M33.9 20.45 L33.95 20.55 34.95 21.2 35.95 21.7 M36.6 20.0 L36.85 20.45 M31.9 17.55 L31.9 17.5 30.25 17.5 M32.6 18.65 L31.9 17.55 M33.9 21.5 L33.75 20.65 33.75 20.55 33.7 20.45 M33.75 20.65 L33.9 20.7 34.15 20.85 33.95 20.55 M34.0 21.55 L33.9 21.5 M34.15 20.85 L34.95 21.2 M33.9 20.7 L35.4 22.05" fill="none" stroke="#000000" stroke-linecap="round" stroke-linejoin="round" stroke-opacity="0.101960786" stroke-width="0.05"/>
      <path d="M30.85 16.75 L30.95 16.65 M33.25 14.9 L33.4 14.65 M32.95 16.15 L32.85 16.3 32.4 16.4 31.85 17.25 M32.4 16.4 L32.35 16.4 30.95 16.65 M31.75 17.3 L31.85 17.25 M32.35 16.4 L33.25 14.9 M32.05 20.05 L31.5 20.55" fill="none" stroke="#ffffff" stroke-linecap="round" stroke-linejoin="round" stroke-opacity="0.4" stroke-width="0.05"/>
      <path d="M32.85 16.3 L32.15 17.2 M33.7 15.2 L32.95 16.15 M31.9 17.55 L30.85 18.95" fill="none" stroke="#ffffff" stroke-linecap="round" stroke-linejoin="round" stroke-opacity="0.4" stroke-width="0.4"/>
      <path d="M30.25 13.95 Q30.9 12.6 30.7 11.55 30.55 10.4 29.55 10.2 28.6 9.9 27.4 10.75 26.2 11.45 25.55 12.8 24.85 14.1 25.05 15.25 25.25 16.35 26.2 16.6 27.2 16.85 28.35 16.05 29.55 15.25 30.25 13.95" fill="#003c00" fill-rule="evenodd" stroke="none"/>
      <path d="M28.0 15.65 L28.4 15.45 28.85 15.1 29.15 14.8 29.8 13.85 30.25 12.4 30.25 11.9 Q30.05 11.1 29.3 10.85 L29.25 10.85 29.25 10.8 28.95 10.8 28.4 10.9 27.55 12.0 27.3 12.65 27.05 13.15 26.85 14.0 Q26.75 14.5 27.05 14.95 27.45 15.5 28.0 15.65 M29.2 11.5 L29.35 12.05 29.35 12.15 29.1 12.4 Q28.4 12.5 28.6 11.75 L28.8 11.45 29.2 11.5 M29.2 13.4 L29.2 13.15 29.2 13.5 29.2 13.4 29.15 13.45 Q29.1 13.95 28.65 14.45 28.0 15.2 27.5 14.8 27.15 14.55 27.4 14.05 L27.65 14.1 27.85 14.3 28.1 14.2 28.35 13.35 28.35 13.3 29.1 13.25 29.15 13.4 29.2 13.4" fill="url(#gradient0)" fill-rule="evenodd" stroke="none"/>
      <path d="M28.4 10.9 L28.2 10.95 27.6 11.25 Q27.05 11.65 26.6 12.2 L26.15 12.95 25.8 13.95 Q25.7 14.25 25.75 14.5 L25.75 14.7 25.75 14.8 25.9 15.2 25.9 15.25 26.2 15.6 26.2 15.65 26.4 15.75 26.65 15.85 26.65 15.9 28.0 15.65 Q27.45 15.5 27.05 14.95 26.75 14.5 26.85 14.0 L27.05 13.15 27.3 12.65 27.55 12.0 28.4 10.9" fill="#159971" fill-rule="evenodd" stroke="none"/>
      <path d="M29.2 11.5 L28.8 11.45 28.6 11.75 Q28.4 12.5 29.1 12.4 L29.35 12.15 29.35 12.05 29.2 11.5 M29.2 13.4 L29.15 13.4 29.1 13.25 28.35 13.3 28.35 13.35 28.1 14.2 27.85 14.3 27.65 14.1 27.4 14.05 Q27.15 14.55 27.5 14.8 28.0 15.2 28.65 14.45 29.1 13.95 29.15 13.45 L29.2 13.4" fill="#ffffff" fill-rule="evenodd" stroke="none"/>
      <path d="M29.2 13.4 L29.2 13.5 29.2 13.15 29.2 13.4" fill="#7ceb8c" fill-rule="evenodd" stroke="none"/>
      <path d="M28.0 15.65 L28.4 15.45 28.85 15.1 29.15 14.8 29.8 13.85 30.25 12.4 30.25 11.9 Q30.05 11.1 29.3 10.85 L29.25 10.85 29.25 10.8 28.95 10.8 28.4 10.9 28.2 10.95 27.6 11.25 Q27.05 11.65 26.6 12.2 L26.15 12.95 25.8 13.95 Q25.7 14.25 25.75 14.5 L25.75 14.7 25.75 14.8 25.9 15.2 25.9 15.25 26.2 15.6 26.2 15.65 26.4 15.75 26.65 15.85 26.65 15.9 28.0 15.65 Z" fill="none" stroke="#000000" stroke-linecap="round" stroke-linejoin="round" stroke-opacity="0.24313726" stroke-width="0.05"/>
      <path d="M27.35 5.6 L26.35 5.85 26.3 5.8 26.2 5.25 26.5 5.25 27.35 5.6" fill="#dbdad7" fill-rule="evenodd" stroke="none"/>
      <path d="M28.7 6.7 L31.15 8.8 30.55 9.35 28.65 10.9 25.2 13.75 27.2 11.4 27.05 11.2 28.2 9.7 28.05 9.55 27.75 9.7 27.5 10.0 27.45 9.85 27.8 9.45 28.1 9.0 Q28.1 8.2 26.2 10.65 L24.3 13.25 24.45 13.5 24.4 13.65 24.4 13.75 24.65 13.8 24.65 13.85 24.55 13.95 24.45 14.15 24.45 14.25 24.55 14.35 24.45 14.4 23.9 13.5 28.7 6.7 M28.35 10.6 L28.65 10.9 28.35 10.6 M23.9 13.5 L24.55 13.95 23.9 13.5" fill="#cbc9c5" fill-rule="evenodd" stroke="none"/>
      <path d="M24.55 13.95 L24.65 13.85 24.65 13.8 24.4 13.75 24.4 13.65 24.45 13.5 24.3 13.25 26.2 10.65 Q28.1 8.2 28.1 9.0 L27.8 9.45 27.45 9.85 27.5 10.0 27.75 9.7 28.05 9.55 28.2 9.7 27.05 11.2 27.2 11.4 25.2 13.75 24.8 14.2 24.6 14.35 24.55 14.35 24.45 14.25 24.45 14.15 24.55 13.95" fill="#baaf9a" fill-rule="evenodd" stroke="none"/>
      <path d="M26.3 5.8 L26.35 5.85 27.35 5.6 27.6 5.7 28.7 6.7 23.9 13.5 22.9 10.35 22.9 10.3 22.95 10.2 24.5 8.25 26.3 5.8 M24.95 8.15 L24.5 8.25 24.95 8.15 M25.4 10.65 L25.65 10.3 25.45 10.15 Q25.55 8.9 24.0 12.0 L24.3 12.2 25.05 11.35 25.4 10.65" fill="#ab9e94" fill-rule="evenodd" stroke="none"/>
      <path d="M31.15 8.8 L35.8 12.85 35.8 12.9 Q35.45 13.6 35.7 14.2 L34.05 16.35 31.3 13.55 28.9 11.15 29.35 10.7 Q29.35 11.45 31.35 13.35 L33.0 14.7 34.4 15.65 34.6 15.5 32.5 12.8 31.3 11.45 30.9 10.75 Q30.55 10.2 30.1 10.2 L29.85 10.25 29.85 10.4 29.9 10.65 29.7 10.45 29.6 10.45 30.55 9.35 31.15 8.8" fill="#a5ab8f" fill-rule="evenodd" stroke="none"/>
      <path d="M26.2 5.25 L26.3 5.8 24.5 8.25 23.45 8.4 20.2 9.0 22.4 6.1 24.25 5.25 25.25 5.25 26.2 5.25 M23.3 8.25 L25.25 5.25 23.3 8.25" fill="#646b6a" fill-rule="evenodd" stroke="none"/>
      <path d="M29.6 10.45 L29.7 10.45 29.9 10.65 29.85 10.4 29.85 10.25 30.1 10.2 Q30.55 10.2 30.9 10.75 L31.3 11.45 32.5 12.8 34.6 15.5 34.4 15.65 33.0 14.7 31.35 13.35 Q29.35 11.45 29.35 10.7 L29.3 10.55 Q29.3 10.4 29.45 10.4 L29.6 10.45" fill="#949e76" fill-rule="evenodd" stroke="none"/>
      <path d="M25.2 13.75 L28.65 10.9 30.55 9.35 29.6 10.45 29.45 10.4 Q29.3 10.4 29.3 10.55 L29.35 10.7 28.9 11.15 28.65 10.9 28.9 11.15 25.55 14.2 25.45 14.15 25.25 14.35 25.3 14.4 25.15 14.5 25.05 14.6 25.0 14.7 25.3 15.1 25.65 15.7 25.8 15.9 26.9 17.65 29.05 19.1 27.25 18.3 26.7 18.0 26.45 17.8 26.45 17.65 24.45 14.4 24.55 14.35 24.6 14.35 24.8 14.2 25.0 14.5 25.0 14.7 25.0 14.5 24.8 14.2 25.2 13.75 M26.9 17.65 L27.25 18.3 26.9 17.65 M25.0 14.5 L25.05 14.6 25.0 14.5" fill="#736e61" fill-rule="evenodd" stroke="none"/>
      <path d="M28.9 11.15 L31.3 13.55 33.25 17.45 31.8 19.45 32.1 19.75 31.85 19.95 31.5 19.85 31.25 20.15 29.05 19.1 26.9 17.65 25.8 15.9 26.15 16.25 27.2 17.05 28.3 17.9 29.5 18.6 27.8 17.25 26.45 15.75 25.4 14.55 25.25 14.5 25.15 14.5 25.3 14.4 25.25 14.35 25.45 14.15 25.55 14.2 28.9 11.15 M26.65 14.2 Q26.25 14.2 26.15 14.35 L26.15 14.6 27.25 15.45 28.85 16.9 30.7 18.45 30.45 18.2 30.45 17.85 30.2 16.9 29.35 15.95 28.1 14.9 Q27.05 14.2 26.65 14.2 M26.8 14.6 L26.95 14.7 26.5 14.7 26.5 14.55 26.8 14.6 M25.3 15.1 L25.55 15.4 25.65 15.7 25.3 15.1" fill="#8c8777" fill-rule="evenodd" stroke="none"/>
      <path d="M25.15 14.5 L25.25 14.5 25.4 14.55 26.45 15.75 27.8 17.25 29.5 18.6 28.3 17.9 27.2 17.05 26.15 16.25 25.8 15.9 25.65 15.7 25.55 15.4 25.3 15.1 25.0 14.7 25.05 14.6 25.15 14.5 M26.8 14.6 L26.5 14.55 26.5 14.7 26.95 14.7 26.8 14.6 M26.65 14.2 Q27.05 14.2 28.1 14.9 L29.35 15.95 30.2 16.9 30.45 17.85 30.45 18.2 30.7 18.45 28.85 16.9 27.25 15.45 26.15 14.6 26.15 14.35 Q26.25 14.2 26.65 14.2" fill="#767a67" fill-rule="evenodd" stroke="none"/>
      <path d="M31.3 13.55 L34.05 16.35 33.25 17.45 31.3 13.55 M29.05 19.1 L31.25 20.15 31.15 20.3 30.1 20.85 26.7 18.0 27.25 18.3 29.05 19.1" fill="#aba89e" fill-rule="evenodd" stroke="none"/>
      <path d="M30.1 20.85 L29.0 21.45 28.95 21.45 26.95 19.8 26.8 19.7 26.45 17.8 26.7 18.0 30.1 20.85" fill="#857a6f" fill-rule="evenodd" stroke="none"/>
      <path d="M25.4 17.4 L25.5 17.35 25.5 17.45 25.4 17.4 M24.45 14.4 L26.45 17.65 26.45 17.8 26.8 19.7 26.4 19.4 22.7 16.45 19.95 14.25 20.05 14.1 22.35 11.0 23.9 13.5 24.45 14.4 M25.7 18.0 L25.85 17.55 25.65 16.6 25.15 15.65 Q24.25 13.9 23.5 13.9 L23.35 13.95 22.8 13.75 22.55 13.8 22.55 13.95 Q22.55 14.45 23.75 16.0 L24.65 17.15 25.7 18.0 M22.9 16.25 L22.7 16.45 22.9 16.25" fill="#c7b6a7" fill-rule="evenodd" stroke="none"/>
      <path d="M24.05 19.65 L21.5 17.6 22.7 16.45 26.4 19.4 24.05 19.65" fill="#1f1e1c" fill-rule="evenodd" stroke="none"/>
      <path d="M25.4 17.4 L25.5 17.45 25.5 17.35 25.4 17.4 M25.7 18.0 L24.65 17.15 23.75 16.0 Q22.55 14.45 22.55 13.95 L22.55 13.8 22.8 13.75 23.35 13.95 23.5 13.9 Q24.25 13.9 25.15 15.65 L25.65 16.6 25.85 17.55 25.7 18.0" fill="#b8b09a" fill-rule="evenodd" stroke="none"/>
      <path d="M20.2 9.0 L23.45 8.4 24.5 8.25 22.95 10.2 22.9 10.3 22.9 10.35 22.85 10.3 22.15 10.4 23.45 8.4 22.15 10.4 20.95 10.5 18.85 10.65 20.2 9.0 M21.2 10.15 L20.95 10.5 21.2 10.15 M22.75 10.15 L22.85 10.3 22.75 10.15 M20.65 10.9 L22.3 10.9 22.35 11.0 20.05 14.1 19.6 14.0 18.45 13.8 20.65 10.9 M22.9 10.3 L22.85 10.3 22.9 10.3" fill="#6b6965" fill-rule="evenodd" stroke="none"/>
      <path d="M21.5 17.6 L17.05 14.1 16.9 13.55 18.45 13.8 19.6 14.0 19.95 14.25 22.7 16.45 21.5 17.6" fill="#42413c" fill-rule="evenodd" stroke="none"/>
      <path d="M18.85 10.65 L20.95 10.5 22.15 10.4 22.85 10.3 22.9 10.35 23.9 13.5 22.35 11.0 22.3 10.9 20.65 10.9 18.7 10.85 18.85 10.65 M22.0 10.65 L22.15 10.4 22.0 10.65" fill="#3b3937" fill-rule="evenodd" stroke="none"/>
      <path d="M25.4 10.65 L25.05 11.35 24.3 12.2 24.0 12.0 Q25.55 8.9 25.45 10.15 L25.65 10.3 25.4 10.65" fill="#9c9087" fill-rule="evenodd" stroke="none"/>
      <path d="M16.85 13.25 L18.7 10.85 20.65 10.9 18.45 13.8 16.9 13.55 16.85 13.25" fill="#383634" fill-rule="evenodd" stroke="none"/>
      <path d="M28.95 21.45 L25.6 20.8 24.05 19.65 26.4 19.4 26.8 19.7 26.95 19.8 28.95 21.45" fill="#3c3b36" fill-rule="evenodd" stroke="none"/>
      <path d="M26.3 5.8 L26.35 5.85 27.35 5.6 26.5 5.25 26.2 5.25 26.3 5.8 M26.2 5.25 L26.2 5.1 26.5 5.25 M25.25 5.25 L26.2 5.25 M27.35 5.6 L27.6 5.7 28.7 6.7 31.15 8.8 35.8 12.85 35.8 12.9 Q35.45 13.6 35.7 14.2 L34.05 16.35 33.25 17.45 31.8 19.45 M31.5 19.85 L31.25 20.15 31.15 20.3 30.1 20.85 29.0 21.45 28.95 21.45 25.6 20.8 24.05 19.65 21.5 17.6 17.05 14.1 16.9 13.55 16.85 13.25 18.7 10.85 18.85 10.65 M26.95 19.8 L28.95 21.45 M26.4 19.4 L26.8 19.7 M20.2 9.0 L22.4 6.1 24.25 5.25 25.25 5.25 M20.2 9.0 L18.85 10.65 M16.9 13.55 L16.65 13.5 16.85 13.25 M18.45 13.8 L16.9 13.55 M22.9 10.35 L22.9 10.3 M20.05 14.1 L19.95 14.25 22.7 16.45 26.4 19.4 M19.6 14.0 L19.95 14.25 M20.05 14.1 L19.6 14.0 18.45 13.8" fill="none" stroke="#000000" stroke-linecap="round" stroke-linejoin="round" stroke-opacity="0.101960786" stroke-width="0.4"/>
      <path d="M34.05 16.35 L34.55 16.85 M25.2 13.75 L28.65 10.9 28.35 10.6 M30.55 9.35 L31.15 8.8 M29.35 10.7 L28.9 11.15 31.3 13.55 34.05 16.35 M31.25 20.15 L31.55 20.25 M29.6 10.45 L30.55 9.35 28.65 10.9 28.9 11.15 25.55 14.2 M25.3 14.4 L25.15 14.5 M25.8 15.9 L26.9 17.65 29.05 19.1 31.25 20.15 M25.65 15.7 L25.8 15.9 M25.65 15.7 L25.3 15.1 M25.0 14.7 L25.0 14.5 24.8 14.2 M24.55 14.35 L24.45 14.4 26.45 17.65 26.45 17.8 26.7 18.0 27.25 18.3 26.9 17.65 M26.45 17.8 L26.8 19.7 26.95 19.8 M30.1 20.85 L26.7 18.0 M29.05 19.1 L27.25 18.3 M33.25 17.45 L31.3 13.55 M18.85 10.65 L20.95 10.5 22.15 10.4 22.85 10.3 22.75 10.15 M20.65 10.9 L22.3 10.9 22.35 11.0 23.9 13.5 22.9 10.35 22.85 10.3 22.9 10.3 22.95 10.2 M20.65 10.9 L18.7 10.85 M24.55 13.95 L23.9 13.5 24.45 14.4 M25.05 14.6 L25.0 14.5 M28.7 6.7 L23.9 13.5" fill="none" stroke="#000000" stroke-linecap="round" stroke-linejoin="round" stroke-opacity="0.101960786" stroke-width="0.05"/>
      <path d="M24.5 8.25 L24.95 8.15 M25.25 5.25 L25.65 4.6 M21.5 17.6 L21.3 17.75 M19.8 9.05 L20.2 9.0 M25.25 5.25 L23.3 8.25 M23.45 8.4 L20.2 9.0 M20.95 10.5 L21.2 10.15 M24.5 8.25 L23.45 8.4 22.15 10.4 22.0 10.65 M22.7 16.45 L22.9 16.25 M21.5 17.6 L22.7 16.45" fill="none" stroke="#ffffff" stroke-linecap="round" stroke-linejoin="round" stroke-opacity="0.4" stroke-width="0.05"/>
      <path d="M26.3 5.8 L24.5 8.25 M22.95 10.2 L24.5 8.25 M22.35 11.0 L20.05 14.1" fill="none" stroke="#ffffff" stroke-linecap="round" stroke-linejoin="round" stroke-opacity="0.4" stroke-width="0.4"/>
      <path d="M19.3 4.45 L18.85 4.5 18.8 4.5 18.8 4.25 18.9 4.25 19.3 4.45" fill="#dbdad7" fill-rule="evenodd" stroke="none"/>
      <path d="M17.7 8.0 L18.35 7.1 18.4 7.2 17.9 7.9 17.95 8.0 17.95 8.05 17.95 8.15 18.05 8.15 18.0 8.2 17.7 8.0 18.0 8.2 17.95 8.3 17.95 8.35 18.0 8.4 17.95 8.4 17.7 8.0 M19.65 5.3 L19.9 4.95 21.0 5.9 20.75 6.1 20.7 6.15 20.25 5.8 19.65 5.3 M18.35 8.05 L18.35 8.1 18.3 8.15 18.35 8.05" fill="#cbc9c5" fill-rule="evenodd" stroke="none"/>
      <path d="M18.0 8.2 L18.05 8.15 17.95 8.15 17.95 8.05 17.95 8.0 17.9 7.9 18.4 7.2 18.45 7.3 18.3 7.9 18.35 8.05 18.3 8.15 18.15 8.3 18.05 8.4 18.0 8.4 17.95 8.35 17.95 8.3 18.0 8.2" fill="#baaf9a" fill-rule="evenodd" stroke="none"/>
      <path d="M19.3 4.45 L19.4 4.45 19.9 4.95 19.65 5.3 Q18.45 4.5 18.45 5.45 L18.85 6.35 18.45 6.5 18.4 6.5 Q18.45 5.9 17.75 7.35 L17.9 7.4 18.25 7.0 18.3 6.85 18.35 7.1 17.7 8.0 17.25 6.6 17.25 6.55 17.3 6.5 17.95 5.6 18.05 5.5 18.8 4.5 18.85 4.5 19.3 4.45" fill="#ab9e94" fill-rule="evenodd" stroke="none"/>
      <path d="M21.0 5.9 L23.1 7.75 23.15 7.75 Q22.95 8.05 23.1 8.3 L22.35 9.3 22.0 8.95 22.05 8.75 22.05 8.7 22.5 9.0 22.6 8.9 22.0 8.15 Q21.75 7.15 20.7 6.15 L20.75 6.1 21.0 5.9" fill="#a5ab8f" fill-rule="evenodd" stroke="none"/>
      <path d="M18.8 4.5 L18.05 5.5 17.95 5.6 17.5 5.7 17.45 5.75 16.05 5.95 17.05 4.65 17.9 4.25 18.35 4.25 18.8 4.25 18.8 4.5 M17.45 5.75 L18.35 4.25 17.45 5.75" fill="#646b6a" fill-rule="evenodd" stroke="none"/>
      <path d="M22.05 8.7 L22.0 8.15 22.6 8.9 22.5 9.0 22.05 8.7" fill="#949e76" fill-rule="evenodd" stroke="none"/>
      <path d="M20.7 6.15 L20.75 6.1 20.7 6.15 M18.85 9.95 L18.85 9.9 17.95 8.4 18.0 8.4 18.05 8.4 18.15 8.3 18.3 8.15 18.35 8.1 18.45 8.3 18.4 8.3 18.3 8.4 18.35 8.4 18.3 8.5 18.25 8.5 18.2 8.55 18.2 8.45 18.25 8.5 18.2 8.45 18.2 8.55 18.35 8.75 18.5 8.95 18.55 9.0 18.55 9.1 19.05 9.9 20.05 10.55 19.25 10.2 19.0 10.05 18.85 9.95 M18.2 8.45 L18.15 8.3 18.2 8.45 M19.05 9.9 L19.25 10.2 19.05 9.9" fill="#736e61" fill-rule="evenodd" stroke="none"/>
      <path d="M18.35 7.1 L18.3 6.85 18.35 6.6 18.45 6.5 18.85 6.35 18.45 5.45 Q18.45 4.5 19.65 5.3 L20.25 5.8 20.7 6.15 Q21.75 7.15 22.0 8.15 L22.05 8.7 22.05 8.75 22.0 8.95 21.95 9.0 21.65 9.15 21.95 9.8 21.3 10.7 21.45 10.85 21.35 10.95 21.15 10.9 21.05 11.0 20.05 10.55 19.05 9.9 18.55 9.1 18.7 9.25 18.75 9.3 18.6 9.0 18.5 8.6 18.4 8.5 18.3 8.5 18.35 8.4 18.3 8.4 18.4 8.3 18.45 8.3 18.35 8.1 18.35 8.05 18.3 7.9 18.45 7.3 18.4 7.2 18.35 7.1 M18.35 8.75 L18.45 8.85 18.5 8.95 18.35 8.75 M20.7 9.8 L20.5 9.9 20.45 9.95 20.8 10.25 20.7 10.15 20.7 9.95 20.7 9.8 M20.25 10.3 L20.0 10.15 19.9 10.15 20.25 10.3" fill="#8c8777" fill-rule="evenodd" stroke="none"/>
      <path d="M18.3 8.5 L18.4 8.5 18.5 8.6 18.6 9.0 18.75 9.3 18.7 9.25 18.55 9.1 18.55 9.0 18.5 8.95 18.45 8.85 18.35 8.75 18.2 8.55 18.25 8.5 18.3 8.5 M20.7 9.8 L20.7 9.95 20.7 10.15 20.8 10.25 20.45 9.95 20.5 9.9 20.7 9.8 M20.25 10.3 L19.9 10.15 20.0 10.15 20.25 10.3" fill="#767a67" fill-rule="evenodd" stroke="none"/>
      <path d="M21.65 9.15 L21.95 9.0 22.0 8.95 22.35 9.3 21.95 9.8 21.65 9.15 M20.05 10.55 L21.05 11.0 21.0 11.1 20.5 11.35 19.0 10.05 19.25 10.2 20.05 10.55" fill="#aba89e" fill-rule="evenodd" stroke="none"/>
      <path d="M19.05 10.8 L18.85 9.95 19.0 10.05 20.5 11.35 20.05 11.6 19.1 10.9 19.05 10.8" fill="#857a6f" fill-rule="evenodd" stroke="none"/>
      <path d="M17.0 6.85 L17.7 8.0 17.95 8.4 18.85 9.9 18.85 9.95 19.05 10.8 17.15 9.35 15.9 8.35 16.0 8.25 17.0 6.85 M17.2 8.1 L17.1 8.15 17.1 8.2 17.65 9.15 18.05 9.65 18.55 10.05 18.6 9.85 18.55 9.4 18.3 9.0 Q17.9 8.2 17.55 8.2 L17.45 8.2 17.2 8.1 M18.45 9.75 L18.45 9.8 18.4 9.75 18.45 9.75" fill="#c7b6a7" fill-rule="evenodd" stroke="none"/>
      <path d="M17.15 9.35 L19.05 10.8 19.1 10.9 20.05 11.6 18.5 11.3 16.65 9.9 17.15 9.35" fill="#1f1e1c" fill-rule="evenodd" stroke="none"/>
      <path d="M17.2 8.1 L17.45 8.2 17.55 8.2 Q17.9 8.2 18.3 9.0 L18.55 9.4 18.6 9.85 18.55 10.05 18.05 9.65 17.65 9.15 17.1 8.2 17.1 8.15 17.2 8.1 M18.45 9.75 L18.4 9.75 18.45 9.8 18.45 9.75" fill="#b8b09a" fill-rule="evenodd" stroke="none"/>
      <path d="M17.95 5.6 L17.3 6.5 17.25 6.55 16.95 6.6 16.85 6.6 15.45 6.7 15.95 6.1 16.05 5.95 17.45 5.75 17.5 5.7 16.95 6.6 17.5 5.7 17.95 5.6 M14.5 7.9 L15.35 6.8 17.0 6.85 16.0 8.25 15.8 8.25 14.55 8.05 14.5 7.9" fill="#6b6965" fill-rule="evenodd" stroke="none"/>
      <path d="M14.55 8.05 L15.8 8.25 15.9 8.35 17.15 9.35 16.65 9.9 14.6 8.3 14.55 8.05" fill="#42413c" fill-rule="evenodd" stroke="none"/>
      <path d="M17.25 6.55 L17.25 6.6 17.7 8.0 17.0 6.85 15.35 6.8 15.45 6.7 16.85 6.6 16.95 6.6 17.25 6.55" fill="#3b3937" fill-rule="evenodd" stroke="none"/>
      <path d="M18.3 6.85 L18.25 7.0 17.9 7.4 17.75 7.35 Q18.45 5.9 18.4 6.5 L18.45 6.5 18.35 6.6 18.3 6.85" fill="#9c9087" fill-rule="evenodd" stroke="none"/>
      <path d="M19.9 4.95 L19.4 4.45 19.3 4.45 18.85 4.5 18.8 4.5 M19.9 4.95 L21.0 5.9 23.1 7.75 23.15 7.75 Q22.95 8.05 23.1 8.3 L22.35 9.3 M21.95 9.8 L22.35 9.3 M18.8 4.25 L18.8 4.5 M18.35 4.25 L18.8 4.25 18.8 4.2 18.9 4.25 19.3 4.45 M18.8 4.25 L18.9 4.25 M15.95 6.1 L15.45 6.7 M16.05 5.95 L17.05 4.65 17.9 4.25 18.35 4.25 M15.35 6.8 L15.45 6.7 M14.5 7.9 L15.35 6.8 M14.5 7.9 L14.55 8.05 15.8 8.25 16.0 8.25 M14.55 8.05 L14.4 8.0 14.5 7.9 M16.65 9.9 L14.6 8.3 14.55 8.05 M15.9 8.35 L16.0 8.25 M15.9 8.35 L17.15 9.35 19.05 10.8 M15.8 8.25 L15.9 8.35 M21.05 11.0 L21.15 10.9 M21.3 10.7 L21.95 9.8 M16.65 9.9 L18.5 11.3 20.05 11.6 19.1 10.9 M20.5 11.35 L21.0 11.1 21.05 11.0 M20.05 11.6 L20.5 11.35" fill="none" stroke="#000000" stroke-linecap="round" stroke-linejoin="round" stroke-opacity="0.101960786" stroke-width="0.4"/>
      <path d="M17.3 6.5 L17.25 6.55 17.25 6.6 17.7 8.0 18.35 7.1 M19.65 5.3 L19.9 4.95 M22.35 9.3 L22.55 9.55 M20.7 6.15 L20.75 6.1 21.0 5.9 M20.7 6.15 L20.75 6.1 M21.65 9.15 L21.95 9.8 M22.35 9.3 L22.0 8.95 M15.45 6.7 L16.85 6.6 M15.35 6.8 L17.0 6.85 17.7 8.0 18.0 8.2 M16.95 6.6 L17.25 6.55 M19.05 10.8 L18.85 9.95 18.85 9.9 17.95 8.4 17.7 8.0 M18.3 8.15 L18.35 8.1 M18.35 8.4 L18.3 8.5 M18.55 9.1 L19.05 9.9 20.05 10.55 21.05 11.0 M18.25 8.5 L18.2 8.45 18.2 8.55 M18.5 8.95 L18.55 9.0 18.55 9.1 M18.0 8.4 L17.95 8.4 M18.35 8.75 L18.5 8.95 M18.15 8.3 L18.2 8.45 M19.1 10.9 L19.05 10.8 M19.0 10.05 L19.25 10.2 19.05 9.9 M19.25 10.2 L20.05 10.55 M20.5 11.35 L19.0 10.05 18.85 9.95" fill="none" stroke="#000000" stroke-linecap="round" stroke-linejoin="round" stroke-opacity="0.101960786" stroke-width="0.05"/>
      <path d="M18.05 5.5 L17.95 5.6 M18.35 4.25 L18.55 3.95 M17.5 5.7 L17.45 5.75 16.05 5.95 15.95 6.1 M16.85 6.6 L16.95 6.6 17.5 5.7 17.95 5.6 M18.35 4.25 L17.45 5.75 M17.15 9.35 L16.65 9.9" fill="none" stroke="#ffffff" stroke-linecap="round" stroke-linejoin="round" stroke-opacity="0.4" stroke-width="0.05"/>
      <path d="M18.8 4.5 L18.05 5.5 M17.95 5.6 L17.3 6.5 M16.0 8.25 L17.0 6.85" fill="none" stroke="#ffffff" stroke-linecap="round" stroke-linejoin="round" stroke-opacity="0.4" stroke-width="0.4"/>
      <path d="M31.0 16.0 L31.35 15.65 31.7 15.25 31.95 15.4 31.6 15.9 31.5 16.0 Q30.55 17.05 29.1 17.05 27.7 17.15 26.65 16.15 25.55 15.2 25.45 13.85 25.35 13.0 25.7 12.25 L26.3 11.45 26.85 10.95 27.0 11.35 26.7 11.6 26.7 11.7 26.65 11.75 26.55 11.9 26.3 12.3 Q25.95 12.95 26.0 13.75 26.1 15.0 27.05 15.85 28.0 16.65 29.25 16.65 L30.4 16.4 31.0 16.0" fill="#be7421" fill-rule="evenodd" stroke="none"/>
      <path d="M31.7 15.25 L32.1 14.4 32.1 13.55 Q32.0 12.3 31.1 11.45 30.1 10.65 28.85 10.7 27.8 10.7 27.0 11.35 L26.85 10.95 Q27.6 10.4 28.65 10.35 30.1 10.3 31.15 11.3 32.25 12.2 32.35 13.6 32.4 14.6 31.95 15.4 L31.7 15.25" fill="#e2a058" fill-rule="evenodd" stroke="none"/>
      <path d="M26.7 11.7 L26.5 12.05 26.55 11.9 26.65 11.75 26.7 11.7" fill="#162358" fill-rule="evenodd" stroke="none"/>
      <path d="M26.45 12.2 L26.3 12.3 26.55 11.9 26.5 12.05 26.45 12.2" fill="#121b4a" fill-rule="evenodd" stroke="none"/>
      <path d="M30.75 12.0 Q30.8 12.3 30.25 12.6 L29.6 12.7 Q29.1 12.6 28.9 12.3 28.55 11.7 29.05 11.45 L30.4 11.6 30.75 12.0" fill="#e4e9f8" fill-rule="evenodd" stroke="none"/>
      <path d="M26.5 12.25 L26.8 12.3 Q27.2 14.35 29.5 14.2 30.55 14.25 31.35 14.85 L31.4 14.95 31.45 15.05 Q29.8 14.65 29.55 15.8 28.4 15.85 27.0 14.55 26.4 13.25 26.5 12.25" fill="#0c3612" fill-rule="evenodd" stroke="none"/>
      <path d="M31.45 15.05 L30.6 16.15 Q28.95 16.5 27.7 15.35 L27.0 14.6 26.9 14.5 27.0 14.55 Q28.4 15.85 29.55 15.8 29.8 14.65 31.45 15.05" fill="#33bd47" fill-rule="evenodd" stroke="none"/>
      <path d="M26.3 12.3 L26.5 12.25 Q26.4 13.25 27.0 14.55 L26.9 14.5 27.0 14.6 27.7 15.35 Q28.95 16.5 30.6 16.15 L31.0 16.0 30.4 16.4 29.25 16.65 Q28.0 16.65 27.05 15.85 26.1 15.0 26.0 13.75 25.95 12.95 26.3 12.3" fill="#124a1e" fill-rule="evenodd" stroke="none"/>
      <path d="M26.8 12.3 Q28.3 14.25 31.55 13.5 31.8 14.85 31.35 14.85 30.55 14.25 29.5 14.2 27.2 14.35 26.8 12.3" fill="#228a33" fill-rule="evenodd" stroke="none"/>
      <path d="M29.05 11.45 Q28.55 11.7 28.9 12.3 29.1 12.6 29.6 12.7 L30.25 12.6 Q30.8 12.3 30.75 12.0 L31.15 12.35 Q31.75 12.7 32.1 14.4 L31.7 15.25 31.35 15.65 31.0 16.0 30.6 16.15 31.45 15.05 31.4 14.95 31.35 14.85 Q31.8 14.85 31.55 13.5 28.3 14.25 26.8 12.3 L26.5 12.25 26.3 12.3 26.45 12.2 Q27.9 11.35 29.05 11.45" fill="#269435" fill-rule="evenodd" stroke="none"/>
      <path d="M29.05 11.45 Q27.9 11.35 26.45 12.2 L26.5 12.05 26.7 11.7 26.7 11.6 27.0 11.35 Q27.8 10.7 28.85 10.7 30.1 10.65 31.1 11.45 32.0 12.3 32.1 13.55 L32.1 14.4 Q31.75 12.7 31.15 12.35 L30.75 12.0 30.4 11.6 29.05 11.45" fill="#c2f0c8" fill-rule="evenodd" stroke="none"/>
      <path d="M31.0 16.0 L31.35 15.65 31.7 15.25 32.1 14.4 M27.0 11.35 Q27.8 10.7 28.85 10.7 30.1 10.65 31.1 11.45 32.0 12.3 32.1 13.55 L32.1 14.4 M27.0 11.35 L26.7 11.6 26.7 11.7 M26.55 11.9 L26.65 11.75 26.7 11.7 M26.55 11.9 L26.3 12.3 M31.0 16.0 L30.4 16.4 29.25 16.65 Q28.0 16.65 27.05 15.85 26.1 15.0 26.0 13.75 25.95 12.95 26.3 12.3" fill="none" stroke="#74523d" stroke-linecap="round" stroke-linejoin="round" stroke-width="0.05"/>
      <path d="M31.95 15.4 Q32.4 14.6 32.35 13.6 32.25 12.2 31.15 11.3 30.1 10.3 28.65 10.35 27.6 10.4 26.85 10.95 L26.3 11.45 25.7 12.25 Q25.35 13.0 25.45 13.85 25.55 15.2 26.65 16.15 27.7 17.15 29.1 17.05 30.55 17.05 31.5 16.0 L31.6 15.9 31.95 15.4" fill="none" stroke="#000000" stroke-linecap="round" stroke-linejoin="round" stroke-opacity="0.3019608" stroke-width="0.25"/>
      <path d="M31.75 12.05 L31.5 11.85 Q28.7 10.2 26.65 11.6 26.05 12.05 26.35 12.35 28.95 11.95 31.45 13.35 32.1 13.15 31.75 12.05" fill="url(#gradient1)" fill-rule="evenodd" stroke="none"/>
      <path d="M31.4 15.3 Q30.75 16.0 30.3 15.6 30.25 13.1 28.75 11.2 L29.5 11.1 Q31.45 12.05 31.4 15.0 L31.4 15.3" fill="url(#gradient2)" fill-rule="evenodd" stroke="none"/>
      <path d="M8.8 35.05 L7.75 36.4 6.15 36.05 7.15 34.9 8.8 35.05" fill="#c57e4b" fill-rule="evenodd" stroke="none"/>
      <path d="M21.95 17.15 L20.45 17.2 21.6 16.9 21.95 17.15 M19.95 19.65 L20.15 19.4 22.65 17.65 22.9 17.85 23.1 18.0 22.1 20.95 22.0 21.2 22.2 22.2 21.25 20.0 22.9 17.85 21.25 20.0 18.85 19.7 19.95 19.65 M23.8 18.55 L24.15 18.8 24.15 20.0 23.8 18.55 M17.75 26.8 L17.9 27.8 14.8 25.5 15.75 25.35 16.15 25.25 16.7 25.15 17.15 25.5 17.65 25.85 17.7 26.4 17.75 26.8 M16.95 27.9 L16.8 28.65 16.45 28.0 16.95 27.9 M14.25 26.75 L14.95 26.4 15.0 26.9 14.25 26.75 M6.15 36.05 L5.4 34.45 8.15 33.9 8.8 35.05 7.15 34.9 6.15 36.05" fill="#412f18" fill-rule="evenodd" stroke="none"/>
      <path d="M11.2 34.0 L11.0 34.25 10.8 34.0 10.5 33.85 10.7 33.6 10.95 33.8 11.2 34.0" fill="#523a1e" fill-rule="evenodd" stroke="none"/>
      <path d="M17.9 27.8 L16.95 27.9 16.45 28.0 16.0 28.05 15.5 27.7 15.05 27.4 15.0 26.9 14.95 26.4 14.8 25.5 17.9 27.8" fill="#b98046" fill-rule="evenodd" stroke="none"/>
      <path d="M7.45 40.45 Q6.7 40.6 6.1 40.2 5.55 39.75 5.5 38.95 5.45 38.2 6.0 37.55 L6.75 36.85 7.25 36.65 Q8.0 36.5 8.55 36.9 9.15 37.35 9.2 38.15 L9.2 38.7 8.75 39.6 7.45 40.45" fill="url(#gradient3)" fill-rule="evenodd" stroke="none"/>
      <path d="M11.0 34.25 L11.05 34.4 10.9 34.95 10.45 35.2 9.95 35.05 9.7 34.65 Q9.7 34.35 9.85 34.15 L10.3 33.85 10.5 33.85 10.8 34.0 11.0 34.25" fill="url(#gradient4)" fill-rule="evenodd" stroke="none"/>
      <path d="M14.35 29.3 L14.0 29.55 13.05 29.75 12.75 29.8 12.75 29.6 14.1 28.3 14.25 26.75 15.0 26.9 15.05 27.4 15.5 27.7 14.35 29.3 M10.45 31.75 L10.6 32.4 10.7 32.45 11.15 32.55 11.65 32.25 11.9 31.45 12.45 31.85 10.95 33.8 10.7 33.6 10.45 33.4 10.3 31.85 10.45 31.75 M14.1 28.7 L13.05 29.75 14.1 28.7 M10.8 33.15 L10.7 32.45 10.8 33.15" fill="url(#gradient5)" fill-rule="evenodd" stroke="none"/>
      <path d="M16.8 28.65 L15.3 29.25 14.45 30.95 14.4 30.15 14.4 29.85 14.7 29.15 14.8 28.95 14.75 29.05 14.75 28.95 14.65 29.05 14.35 29.3 15.5 27.7 16.0 28.05 16.45 28.0 16.8 28.65 M12.45 31.85 L12.5 31.9 12.6 31.85 12.55 31.95 13.15 32.4 12.45 32.85 12.25 33.4 12.4 33.6 12.45 33.7 12.5 33.8 12.6 33.9 12.7 33.9 12.2 34.0 11.45 34.15 11.2 34.0 10.95 33.8 12.45 31.85 M14.8 29.3 L14.4 30.15 14.8 29.3 M11.45 33.85 L12.4 33.6 11.45 33.85" fill="url(#gradient6)" fill-rule="evenodd" stroke="none"/>
      <path d="M22.2 22.2 L21.15 23.65 20.0 23.85 18.15 24.15 18.35 23.85 18.4 23.85 21.25 20.0 22.2 22.2 M22.0 22.2 L21.0 23.5 18.35 23.85 21.0 23.5 22.0 22.2" fill="url(#gradient7)" fill-rule="evenodd" stroke="none"/>
      <path d="M15.75 25.35 L17.95 22.45 18.15 24.15 17.15 25.5 16.7 25.15 16.15 25.25 15.75 25.35 M17.8 22.9 L16.15 25.25 17.8 22.9" fill="url(#gradient8)" fill-rule="evenodd" stroke="none"/>
      <path d="M20.0 23.85 L17.75 26.8 17.7 26.4 17.65 25.85 17.15 25.5 18.15 24.15 20.0 23.85 M19.35 24.15 L17.7 26.4 19.35 24.15" fill="url(#gradient9)" fill-rule="evenodd" stroke="none"/>
      <path d="M17.95 22.45 L17.8 21.1 18.85 19.7 21.25 20.0 18.4 23.85 18.35 23.85 18.15 24.15 17.95 22.45 M18.95 19.9 L17.95 21.15 18.4 23.85 17.95 21.15 18.95 19.9" fill="url(#gradient10)" fill-rule="evenodd" stroke="none"/>
      <path d="M23.1 18.0 L23.8 18.55 24.15 20.0 22.0 21.2 22.1 20.95 23.1 18.0 M23.9 19.95 L22.1 20.95 23.9 19.95" fill="url(#gradient11)" fill-rule="evenodd" stroke="none"/>
      <path d="M20.45 17.2 L21.95 17.15 22.65 17.65 20.15 19.4 19.95 19.65 20.45 17.2 M20.6 17.4 L20.15 19.4 20.6 17.4" fill="url(#gradient12)" fill-rule="evenodd" stroke="none"/>
      <path d="M8.8 35.05 L7.75 36.4 6.15 36.05 5.4 34.45 8.15 33.9 8.8 35.05 7.15 34.9 6.15 36.05 M7.45 40.45 Q6.7 40.6 6.1 40.2 5.55 39.75 5.5 38.95 5.45 38.2 6.0 37.55 L6.75 36.85 7.25 36.65 Q8.0 36.5 8.55 36.9 9.15 37.35 9.2 38.15 L9.2 38.7 8.75 39.6 7.45 40.45" fill="none" stroke="#000000" stroke-linecap="round" stroke-linejoin="round" stroke-opacity="0.2509804" stroke-width="0.05"/>
      <path d="M20.15 19.4 L20.6 17.4 M22.1 20.95 L23.9 19.95 M18.35 23.85 L21.0 23.5 22.0 22.2 M18.4 23.85 L17.95 21.15 18.95 19.9 M14.4 30.15 L14.8 29.3 M13.05 29.75 L14.1 28.7 M17.7 26.4 L19.35 24.15 M16.15 25.25 L17.8 22.9 M12.4 33.6 L11.45 33.85 M10.7 32.45 L10.8 33.15" fill="none" stroke="#e1cbb5" stroke-linecap="round" stroke-linejoin="round" stroke-width="0.05"/>
      <path d="M21.95 17.15 L20.45 17.2 19.95 19.65 20.15 19.4 22.65 17.65 M20.45 17.2 L21.6 16.9 M24.15 18.8 L24.15 20.0 22.0 21.2 22.2 22.2 21.15 23.65 20.0 23.85 17.75 26.8 17.9 27.8 16.95 27.9 16.8 28.65 15.3 29.25 M12.75 29.6 L14.1 28.3 14.25 26.75 14.95 26.4 14.8 25.5 15.75 25.35 17.95 22.45 17.8 21.1 18.85 19.7 19.95 19.65 M12.2 34.0 L11.45 34.15 11.2 34.0 11.0 34.25 11.05 34.4 10.9 34.95 10.45 35.2 9.95 35.05 9.7 34.65 Q9.7 34.35 9.85 34.15 L10.3 33.85 10.5 33.85 10.7 33.6 10.45 33.4 10.3 31.85 10.45 31.75 M23.8 18.55 L24.15 20.0 M22.0 21.2 L22.1 20.95 23.1 18.0 M22.9 17.85 L21.25 20.0 M18.15 24.15 L18.35 23.85 18.4 23.85 21.25 20.0 M17.95 22.45 L18.15 24.15 20.0 23.85 M17.75 26.8 L17.7 26.4 17.65 25.85 17.15 25.5 16.7 25.15 16.15 25.25 15.75 25.35 M16.45 28.0 L16.0 28.05 15.5 27.7 14.35 29.3 M16.95 27.9 L16.45 28.0 16.8 28.65 M15.0 26.9 L14.25 26.75 M15.0 26.9 L14.95 26.4 M15.5 27.7 L15.05 27.4 15.0 26.9 M14.8 25.5 L17.9 27.8 M10.5 33.85 L10.8 34.0 11.0 34.25 M10.95 33.8 L10.7 33.6 M11.2 34.0 L10.95 33.8 12.45 31.85" fill="none" stroke="#000000" stroke-linecap="round" stroke-linejoin="round" stroke-opacity="0.2509804" stroke-width="0.4"/>
      <path d="M21.25 20.0 L22.2 22.2 M21.25 20.0 L18.85 19.7" fill="none" stroke="#ffffff" stroke-linecap="round" stroke-linejoin="round" stroke-opacity="0.4" stroke-width="0.4"/>
      <path d="M12.35 29.65 L14.1 27.3 15.7 28.5 13.95 30.85 12.35 29.65" fill="#52351b" fill-rule="evenodd" stroke="none"/>
      <path d="M12.35 29.65 L14.1 27.3 15.7 28.5 13.95 30.85 12.35 29.65 Z" fill="none" stroke="#000000" stroke-linecap="round" stroke-linejoin="round" stroke-opacity="0.2509804" stroke-width="0.05"/>
      <path d="M10.45 32.85 L11.75 31.1 13.35 32.3 12.05 34.05 10.45 32.85" fill="#52351b" fill-rule="evenodd" stroke="none"/>
      <path d="M10.45 32.85 L11.75 31.1 13.35 32.3 12.05 34.05 10.45 32.85 Z" fill="none" stroke="#000000" stroke-linecap="round" stroke-linejoin="round" stroke-opacity="0.2509804" stroke-width="0.05"/>
      <path d="M20.85 22.85 L21.0 22.7 21.15 22.5 21.25 22.6 21.1 22.8 21.05 22.85 Q20.65 23.3 20.0 23.3 19.45 23.35 18.95 22.9 18.5 22.5 18.45 21.9 L18.55 21.25 18.8 20.9 Q18.9 20.75 19.05 20.7 L19.1 20.85 19.0 20.95 19.0 21.0 18.95 21.05 18.95 21.1 18.8 21.25 18.7 21.9 Q18.75 22.4 19.15 22.8 L20.1 23.1 20.6 23.0 20.85 22.85" fill="#be7421" fill-rule="evenodd" stroke="none"/>
      <path d="M21.15 22.5 L21.3 22.15 21.3 21.8 20.85 20.9 Q20.45 20.55 19.9 20.55 19.45 20.55 19.1 20.85 L19.05 20.7 Q19.4 20.45 19.85 20.45 20.45 20.4 20.9 20.85 21.35 21.25 21.4 21.85 L21.25 22.6 21.15 22.5" fill="#e2a058" fill-rule="evenodd" stroke="none"/>
      <path d="M19.0 21.0 L18.9 21.15 18.95 21.1 18.95 21.05 19.0 21.0" fill="#162358" fill-rule="evenodd" stroke="none"/>
      <path d="M18.9 21.2 L18.8 21.25 18.95 21.1 18.9 21.15 18.9 21.2" fill="#121b4a" fill-rule="evenodd" stroke="none"/>
      <path d="M20.7 21.15 L20.5 21.4 20.25 21.45 19.95 21.25 Q19.8 21.0 20.0 20.9 L20.6 20.95 20.7 21.15" fill="#e4e9f8" fill-rule="evenodd" stroke="none"/>
      <path d="M18.9 21.25 L19.05 21.25 Q19.2 22.15 20.2 22.1 20.65 22.1 21.0 22.35 L21.0 22.4 21.05 22.45 Q20.3 22.25 20.2 22.75 19.7 22.8 19.1 22.25 18.85 21.7 18.9 21.25" fill="#0c3612" fill-rule="evenodd" stroke="none"/>
      <path d="M21.05 22.45 L20.65 22.9 Q19.95 23.05 19.4 22.6 L19.1 22.25 19.05 22.2 19.1 22.25 Q19.7 22.8 20.2 22.75 20.3 22.25 21.05 22.45" fill="#33bd47" fill-rule="evenodd" stroke="none"/>
      <path d="M18.8 21.25 L18.9 21.25 Q18.85 21.7 19.1 22.25 L19.05 22.2 19.1 22.25 19.4 22.6 Q19.95 23.05 20.65 22.9 L20.85 22.85 20.6 23.0 20.1 23.1 19.15 22.8 Q18.75 22.4 18.7 21.9 L18.8 21.25" fill="#124a1e" fill-rule="evenodd" stroke="none"/>
      <path d="M19.05 21.25 Q19.65 22.1 21.05 21.75 21.2 22.35 21.0 22.35 20.65 22.1 20.2 22.1 19.2 22.15 19.05 21.25" fill="#228a33" fill-rule="evenodd" stroke="none"/>
      <path d="M20.0 20.9 Q19.8 21.0 19.95 21.25 L20.25 21.45 20.5 21.4 20.7 21.15 20.9 21.3 21.3 22.15 21.15 22.5 21.0 22.7 20.85 22.85 20.65 22.9 21.05 22.45 21.0 22.4 21.0 22.35 Q21.2 22.35 21.05 21.75 19.65 22.1 19.05 21.25 L18.9 21.25 18.8 21.25 18.9 21.2 20.0 20.9" fill="#269435" fill-rule="evenodd" stroke="none"/>
      <path d="M20.0 20.9 L18.9 21.2 18.9 21.15 19.0 21.0 19.0 20.95 19.1 20.85 Q19.45 20.55 19.9 20.55 20.45 20.55 20.85 20.9 L21.3 21.8 21.3 22.15 20.9 21.3 20.7 21.15 20.6 20.95 20.0 20.9" fill="#c2f0c8" fill-rule="evenodd" stroke="none"/>
      <path d="M20.85 22.85 L21.0 22.7 21.15 22.5 21.3 22.15 M19.1 20.85 Q19.45 20.55 19.9 20.55 20.45 20.55 20.85 20.9 L21.3 21.8 21.3 22.15 M19.1 20.85 L19.0 20.95 19.0 21.0 M18.95 21.1 L18.8 21.25 M18.95 21.1 L18.95 21.05 19.0 21.0 M20.85 22.85 L20.6 23.0 20.1 23.1 19.15 22.8 Q18.75 22.4 18.7 21.9 L18.8 21.25" fill="none" stroke="#74523d" stroke-linecap="round" stroke-linejoin="round" stroke-width="0.05"/>
      <path d="M21.25 22.6 L21.4 21.85 Q21.35 21.25 20.9 20.85 20.45 20.4 19.85 20.45 19.4 20.45 19.05 20.7 18.9 20.75 18.8 20.9 L18.55 21.25 18.45 21.9 Q18.5 22.5 18.95 22.9 19.45 23.35 20.0 23.3 20.65 23.3 21.05 22.85 L21.1 22.8 21.25 22.6" fill="none" stroke="#000000" stroke-linecap="round" stroke-linejoin="round" stroke-opacity="0.3019608" stroke-width="0.25"/>
      <path d="M21.2 21.25 L21.1 21.15 19.0 21.05 Q18.75 21.25 18.9 21.35 20.0 21.15 21.05 21.75 21.35 21.7 21.2 21.25" fill="url(#gradient13)" fill-rule="evenodd" stroke="none"/>
      <path d="M21.0 22.6 Q20.75 22.9 20.55 22.7 20.55 21.6 19.9 20.85 L20.2 20.8 Q21.05 21.2 21.0 22.45 L21.0 22.6" fill="url(#gradient14)" fill-rule="evenodd" stroke="none"/>
      <path d="M5.75 34.2 L7.75 33.9 9.9 34.05 10.95 35.15 10.65 36.55 8.75 37.3 6.75 37.15 5.9 36.5 6.15 36.4 6.7 36.25 7.95 35.75 8.15 34.75 6.55 34.4 5.4 34.45 5.75 34.2 M8.9 35.85 L8.95 36.4 10.25 35.75 8.9 35.85" fill="#b98046" fill-rule="evenodd" stroke="none"/>
      <path d="M5.75 34.2 L6.35 33.65 7.5 33.15 9.45 33.2 10.2 33.1 11.6 34.15 11.6 35.3 10.65 36.55 10.95 35.15 9.9 34.05 7.75 33.9 5.75 34.2 M6.15 36.4 L6.05 35.2 6.7 36.25 6.15 36.4" fill="#412f18" fill-rule="evenodd" stroke="none"/>
      <path d="M8.9 35.85 L10.25 35.75 8.95 36.4 8.9 35.85" fill="#fad463" fill-rule="evenodd" stroke="none"/>
      <path d="M10.65 36.55 L11.6 35.3 11.6 34.15 10.2 33.1 9.45 33.2 7.5 33.15 6.35 33.65 5.75 34.2 7.75 33.9 9.9 34.05 10.95 35.15 10.65 36.55 8.75 37.3 6.75 37.15 5.9 36.5 6.15 36.4 6.05 35.2 6.7 36.25 7.95 35.75 8.15 34.75 6.55 34.4 5.4 34.45 5.75 34.2 M8.9 35.85 L10.25 35.75 8.95 36.4 8.9 35.85 M6.7 36.25 L6.15 36.4" fill="none" stroke="#000000" stroke-linecap="round" stroke-linejoin="round" stroke-opacity="0.3019608" stroke-width="0.4"/>
      <path d="M10.8 32.2 L10.55 31.8 10.5 31.35 10.6 31.05 10.75 30.85 10.8 31.2 11.35 31.35 10.8 32.2" fill="#322010" fill-rule="evenodd" stroke="none"/>
      <path d="M8.05 34.1 L7.95 33.85 8.1 33.35 8.6 32.85 8.95 32.6 9.55 32.45 11.75 33.25 12.7 33.25 13.35 33.0 13.4 32.95 13.7 33.4 13.75 33.45 13.75 33.9 13.45 34.35 12.75 34.8 11.55 33.9 9.4 33.65 8.5 33.8 8.4 33.8 8.05 34.1 M8.7 35.0 L10.0 35.0 11.35 35.6 11.4 36.3 11.2 36.8 10.75 37.15 10.25 37.35 9.95 37.3 10.6 36.5 10.1 36.05 10.05 36.05 9.95 36.0 9.85 35.95 8.3 35.7 8.25 35.75 7.3 36.0 7.2 36.1 7.15 36.15 6.8 36.4 6.4 36.9 6.75 35.9 7.15 35.4 8.2 35.05 8.35 34.95 8.7 35.0 M19.7 24.7 L19.6 25.0 19.6 25.1 18.15 24.9 16.55 25.65 16.35 26.0 16.3 26.05 16.25 26.1 15.9 25.35 15.8 25.2 16.4 24.1 15.8 25.2 15.3 25.4 15.4 24.4 16.4 24.1 16.95 24.5 Q17.45 24.25 17.95 24.05 L19.5 24.3 19.7 24.7 19.5 24.3 19.95 23.8 19.7 24.7 M16.3 26.05 L16.25 26.1 16.3 26.05 M17.35 26.5 L17.65 26.75 17.85 27.35 17.75 27.85 16.45 27.9 14.6 27.55 13.8 27.9 13.9 28.45 12.9 29.3 12.9 28.3 12.75 28.15 13.0 27.6 13.6 27.05 14.4 26.95 15.4 27.05 15.5 27.05 15.55 27.05 16.85 27.2 17.05 26.9 17.2 26.55 17.35 26.5 M15.55 27.05 L15.5 27.05 15.55 27.05" fill="#5b371e" fill-rule="evenodd" stroke="none"/>
      <path d="M12.75 34.8 L11.4 34.5 9.15 34.4 8.7 35.0 8.35 34.95 8.2 35.05 8.05 34.1 8.4 33.8 8.5 33.8 9.4 33.65 11.55 33.9 12.75 34.8 M10.6 36.5 L9.5 36.25 8.15 36.35 7.45 36.6 6.35 38.05 6.4 36.9 6.8 36.4 7.15 36.15 7.2 36.1 7.3 36.0 8.25 35.75 8.3 35.7 9.85 35.95 10.05 36.05 10.1 36.05 10.6 36.5 M16.35 26.0 L16.55 25.65 18.15 24.9 19.6 25.1 19.45 25.65 18.85 26.05 16.4 26.0 16.35 26.0 M17.75 27.85 L17.2 28.25 16.6 28.4 14.4 28.2 14.25 28.4 13.9 28.45 13.8 27.9 14.6 27.55 16.45 27.9 17.75 27.85 M8.3 37.25 L8.55 37.3 9.3 38.15 8.85 37.05 8.45 37.0 8.3 37.25 8.05 37.25 8.3 37.25 M7.4 37.9 L7.4 37.7 7.8 37.2 8.05 37.25 8.3 36.7 9.1 36.8 9.85 38.45 9.7 39.05 9.35 39.7 8.95 40.1 8.0 40.2 7.8 40.05 8.1 39.7 7.9 39.55 7.4 38.6 7.4 38.4 7.4 37.9 M8.35 39.85 L8.1 39.7 8.35 39.85" fill="#c57e4b" fill-rule="evenodd" stroke="none"/>
      <path d="M16.3 26.05 L16.35 26.0 16.4 26.0 16.3 26.05 M10.05 36.05 L9.85 35.95 9.95 36.0 10.05 36.05" fill="#744e26" fill-rule="evenodd" stroke="none"/>
      <path d="M8.3 37.25 L8.45 37.0 8.85 37.05 9.3 38.15 8.55 37.3 8.3 37.25" fill="#002b00" fill-rule="evenodd" stroke="none"/>
      <path d="M7.4 37.9 L7.4 38.4 7.3 38.15 7.4 37.9" fill="#f2c35d" fill-rule="evenodd" stroke="none"/>
      <path d="M10.8 32.2 L10.55 31.8 10.5 31.35 10.6 31.05 10.75 30.85 10.8 31.2 11.35 31.35 10.8 32.2" fill="none" stroke="#000000" stroke-linecap="round" stroke-linejoin="round" stroke-width="0.05"/>
      <path d="M8.05 34.1 L7.95 33.85 8.1 33.35 8.6 32.85 8.95 32.6 9.55 32.45 11.75 33.25 12.7 33.25 13.35 33.0 13.4 32.95 13.7 33.4 13.75 33.45 13.75 33.9 13.45 34.35 12.75 34.8 11.4 34.5 9.15 34.4 8.7 35.0 10.0 35.0 11.35 35.6 11.4 36.3 11.2 36.8 10.75 37.15 10.25 37.35 9.95 37.3 10.6 36.5 9.5 36.25 8.15 36.35 7.45 36.6 6.35 38.05 6.4 36.9 6.75 35.9 7.15 35.4 8.2 35.05 8.05 34.1 M19.6 25.1 L19.6 25.0 19.7 24.7 19.5 24.3 17.95 24.05 Q17.45 24.25 16.95 24.5 L16.4 24.1 15.8 25.2 M16.25 26.1 L16.3 26.05 M19.6 25.1 L19.45 25.65 18.85 26.05 16.4 26.0 16.3 26.05 M19.7 24.7 L19.95 23.8 19.5 24.3 M16.4 24.1 L15.4 24.4 15.3 25.4 15.8 25.2 M17.35 26.5 L17.65 26.75 17.85 27.35 17.75 27.85 17.2 28.25 16.6 28.4 14.4 28.2 14.25 28.4 13.9 28.45 12.9 29.3 12.9 28.3 12.75 28.15 13.0 27.6 13.6 27.05 14.4 26.95 15.4 27.05 M15.55 27.05 L16.85 27.2 17.05 26.9 17.2 26.55 17.35 26.5 17.1 26.3 M15.5 27.05 L15.55 27.05 M8.2 35.05 L8.35 34.95 8.7 35.0 M8.3 37.25 L8.45 37.0 8.85 37.05 9.3 38.15 8.55 37.3 8.3 37.25 8.05 37.25 7.8 37.2 7.4 37.7 7.4 37.9 7.4 38.4 7.4 38.6 7.9 39.55 8.1 39.7 8.35 39.85 M8.05 37.25 L8.3 36.7 9.1 36.8 9.85 38.45 9.7 39.05 9.35 39.7 8.95 40.1 8.0 40.2 7.8 40.05 8.1 39.7 M7.4 37.9 L7.3 38.15 7.4 38.4" fill="none" stroke="#000000" stroke-linecap="round" stroke-linejoin="round" stroke-opacity="0.3019608" stroke-width="0.4"/>
      <path d="M18.25 23.7 L18.2 23.1" fill="none" stroke="#000000" stroke-linecap="round" stroke-linejoin="round" stroke-opacity="0.2509804" stroke-width="0.05"/>
      <path d="M17.8 24.75 Q17.7 24.4 17.95 24.25 18.3 24.1 18.45 24.4 18.65 24.65 18.25 24.9 17.9 25.1 17.8 24.75 M16.6 25.75 Q16.45 25.5 16.7 25.35 L17.1 25.45 16.95 25.85 Q16.7 26.05 16.6 25.75 M15.9 28.55 Q15.65 28.15 16.0 27.95 16.35 27.7 16.7 28.1 17.0 28.45 16.55 28.7 16.15 28.9 15.9 28.55 M13.95 28.45 L13.55 28.4 Q13.4 28.05 13.65 27.9 L14.05 27.95 Q14.2 28.2 13.95 28.45 M15.15 26.8 Q15.5 26.6 15.75 27.0 15.95 27.3 15.65 27.45 L15.05 27.3 Q14.8 27.0 15.15 26.8 M12.8 34.75 Q12.45 35.0 12.25 34.6 12.05 34.2 12.35 33.9 12.7 33.65 12.95 34.1 13.15 34.55 12.8 34.75 M11.0 34.25 Q10.8 33.9 11.1 33.65 11.5 33.5 11.75 33.85 12.0 34.2 11.6 34.4 11.25 34.6 11.0 34.25 M9.85 34.0 Q9.45 34.2 9.2 33.85 9.0 33.5 9.4 33.15 9.8 32.85 10.05 33.3 10.3 33.75 9.85 34.0 M10.4 36.0 Q10.7 36.35 10.2 36.7 9.7 37.0 9.4 36.5 9.05 36.0 9.6 35.8 10.1 35.6 10.4 36.0 M8.65 33.5 Q8.95 33.95 8.45 34.25 L7.75 34.15 Q7.55 33.7 7.95 33.4 8.4 33.1 8.65 33.5 M6.9 36.25 Q6.6 35.8 7.0 35.55 7.45 35.3 7.7 35.8 7.95 36.25 7.65 36.55 7.3 36.8 6.95 36.3 L7.0 36.4 Q7.25 36.9 6.9 37.15 6.6 37.35 6.3 36.9 6.0 36.5 6.4 36.2 L6.9 36.25 M8.2 35.9 Q7.95 35.6 8.3 35.4 8.65 35.15 8.8 35.55 8.95 35.95 8.75 36.1 8.5 36.25 8.2 35.9" fill="#dbb997" fill-rule="evenodd" stroke="none"/>
      <path d="M8.25 38.15 L8.3 37.8 8.85 38.2 9.05 38.6 8.9 38.95 8.25 38.15" fill="#f2c35d" fill-rule="evenodd" stroke="none"/>
      <path d="M13.15 32.4 L12.55 31.95 12.55 31.7 12.3 31.25 12.75 30.65 13.0 31.25 13.0 31.75 13.85 31.75 14.5 32.25 15.0 32.4 14.8 31.95 15.65 31.75 16.4 31.9 15.4 32.75 15.3 33.05 14.6 33.35 15.05 33.35 14.35 33.75 13.65 33.75 13.65 33.7 13.55 33.65 13.5 33.7 13.4 33.75 12.5 33.8 12.45 33.7 12.4 33.6 12.25 33.4 12.55 33.05 13.7 32.3 13.15 32.4 M15.45 32.05 L15.55 32.15 16.0 32.0 15.45 32.05 M14.35 33.15 L14.8 33.1 15.25 32.5 Q14.5 32.9 13.65 32.9 L14.35 33.15 M13.15 33.35 L13.2 33.5 13.25 33.5 13.5 33.7 13.25 33.5 13.2 33.5 13.15 33.35 M13.25 33.5 L13.55 33.65 13.25 33.5" fill="url(#gradient15)" fill-rule="evenodd" stroke="none"/>
      <path d="M12.75 30.65 L12.85 30.55 13.6 30.45 14.75 28.95 14.4 29.85 14.45 31.1 14.8 31.1 15.25 31.4 16.2 30.8 15.65 31.6 16.45 31.75 16.65 31.9 16.5 31.95 16.4 31.9 15.65 31.75 14.8 31.95 15.0 32.4 14.5 32.25 13.85 31.75 13.0 31.75 13.0 31.25 12.75 30.65 M14.5 31.45 L14.8 31.65 15.65 31.6 14.8 31.65 14.5 31.45 M14.8 31.65 L15.25 31.4 14.8 31.65" fill="#52351b" fill-rule="evenodd" stroke="none"/>
      <path d="M12.25 33.4 L12.45 32.85 13.15 32.4 13.7 32.3 12.55 33.05 12.25 33.4" fill="#6c4b24" fill-rule="evenodd" stroke="none"/>
      <path d="M15.45 32.05 L16.0 32.0 15.55 32.15 15.45 32.05" fill="#23230c" fill-rule="evenodd" stroke="none"/>
      <path d="M16.5 31.95 L15.5 32.75 15.4 33.2 14.5 33.85 13.65 33.9 13.65 33.75 14.35 33.75 15.05 33.35 14.6 33.35 15.3 33.05 15.4 32.75 16.4 31.9 16.5 31.95" fill="url(#gradient16)" fill-rule="evenodd" stroke="none"/>
      <path d="M14.35 33.15 L13.65 32.9 Q14.5 32.9 15.25 32.5 L14.8 33.1 14.35 33.15" fill="url(#gradient17)" fill-rule="evenodd" stroke="none"/>
      <path d="M13.4 33.75 L13.4 33.9 12.6 33.9 12.5 33.8 13.4 33.75" fill="url(#gradient18)" fill-rule="evenodd" stroke="none"/>
      <path d="M13.15 32.4 L12.55 31.95 12.55 31.7 12.3 31.25 12.75 30.65 12.85 30.55 13.6 30.45 14.75 28.95 14.4 29.85 14.45 31.1 14.8 31.1 15.25 31.4 16.2 30.8 15.65 31.6 16.45 31.75 16.65 31.9 16.5 31.95 15.5 32.75 15.4 33.2 14.5 33.85 13.65 33.9 M12.4 33.6 L12.25 33.4 12.45 32.85 13.15 32.4 M15.65 31.6 L14.8 31.65 14.5 31.45 M15.25 31.4 L14.8 31.65" fill="none" stroke="#000000" stroke-linecap="round" stroke-linejoin="round" stroke-opacity="0.3019608" stroke-width="0.4"/>
      <path d="M13.4 33.9 L12.6 33.9 12.5 33.8 12.45 33.7 M15.45 32.05 L16.0 32.0 15.55 32.15 15.45 32.05 M14.35 33.15 L13.65 32.9 Q14.5 32.9 15.25 32.5 L14.8 33.1 14.35 33.15" fill="none" stroke="#000000" stroke-linecap="round" stroke-linejoin="round" stroke-opacity="0.2509804" stroke-width="0.05"/>
      <path d="M13.65 33.9 L13.65 33.75 13.65 33.7 13.55 33.65 13.5 33.7 13.4 33.75 13.4 33.9 M13.55 33.65 L13.25 33.5" fill="none" stroke="#a48c66" stroke-linecap="round" stroke-linejoin="round" stroke-width="0.05"/>
      <path d="M13.5 33.7 L13.25 33.5 13.2 33.5 13.15 33.35" fill="none" stroke="#dcb996" stroke-linecap="round" stroke-linejoin="round" stroke-width="0.05"/>
      <path d="M13.7 31.35 L13.05 31.25 12.6 31.4 12.3 30.6 11.65 30.1 11.45 29.65 11.85 29.75 11.85 28.9 11.5 28.15 11.4 28.1 11.45 27.95 11.65 28.15 12.0 28.85 12.6 28.05 12.3 29.15 12.7 29.45 12.75 29.8 14.0 29.55 14.65 29.05 14.75 29.05 14.8 28.95 13.65 30.45 13.75 31.25 13.7 31.35 M12.45 29.85 L12.2 29.65 12.3 29.15 12.2 29.65 12.45 29.85 M12.2 29.65 L12.0 28.85 12.2 29.65" fill="#52351b" fill-rule="evenodd" stroke="none"/>
      <path d="M11.5 28.15 L11.85 28.9 11.85 29.75 11.45 29.65 11.65 30.1 12.3 30.6 12.6 31.4 13.05 31.25 13.7 31.35 13.25 31.95 12.75 31.85 12.6 31.85 12.5 31.9 11.9 31.45 11.85 30.95 11.85 30.85 11.45 32.2 11.15 32.55 10.95 32.5 10.85 32.45 10.75 32.45 10.55 31.6 10.55 31.55 10.55 31.45 10.85 31.7 11.0 31.65 10.85 31.7 10.55 31.45 10.55 31.35 10.5 31.25 10.5 31.3 10.25 30.65 10.5 29.85 10.6 30.3 10.7 29.55 10.95 29.35 11.5 28.15 M11.0 31.65 L10.95 31.6 10.8 31.6 10.55 31.35 10.8 31.6 10.95 31.6 11.0 31.65 M11.6 29.15 L11.5 28.55 11.45 29.05 11.6 29.15 M10.85 30.45 L11.25 31.1 11.2 31.0 Q11.0 30.2 11.2 29.45 L10.75 30.05 10.85 30.45" fill="url(#gradient19)" fill-rule="evenodd" stroke="none"/>
      <path d="M11.4 28.1 L11.5 28.15 10.95 29.35 10.7 29.55 10.6 30.3 10.5 29.85 10.25 30.65 10.5 31.3 10.3 31.35 10.1 30.55 10.5 29.45 10.9 29.25 11.4 28.1" fill="url(#gradient20)" fill-rule="evenodd" stroke="none"/>
      <path d="M11.6 29.15 L11.45 29.05 11.5 28.55 11.6 29.15" fill="#23230c" fill-rule="evenodd" stroke="none"/>
      <path d="M10.85 30.45 L10.75 30.05 11.2 29.45 Q11.0 30.2 11.2 31.0 L11.25 31.1 10.85 30.45" fill="url(#gradient21)" fill-rule="evenodd" stroke="none"/>
      <path d="M10.55 31.55 L10.55 31.6 10.75 32.45 10.7 32.45 10.6 32.4 10.4 31.65 10.55 31.55" fill="url(#gradient22)" fill-rule="evenodd" stroke="none"/>
      <path d="M11.15 32.55 L11.45 32.2 11.85 30.85 11.85 30.95 11.9 31.45 11.65 32.25 11.15 32.55" fill="#6c4b24" fill-rule="evenodd" stroke="none"/>
      <path d="M13.7 31.35 L13.75 31.25 13.65 30.45 14.8 28.95 14.75 29.05 14.65 29.05 14.0 29.55 12.75 29.8 12.7 29.45 12.3 29.15 12.2 29.65 12.45 29.85 M10.95 32.5 L11.15 32.55 11.65 32.25 11.9 31.45 12.5 31.9 12.6 31.85 12.75 31.85 13.25 31.95 13.7 31.35 M12.3 29.15 L12.6 28.05 12.0 28.85 12.2 29.65 M12.0 28.85 L11.65 28.15 11.45 27.95 11.4 28.1 10.9 29.25 10.5 29.45 10.1 30.55 10.3 31.35" fill="none" stroke="#000000" stroke-linecap="round" stroke-linejoin="round" stroke-opacity="0.3019608" stroke-width="0.4"/>
      <path d="M10.75 32.45 L10.85 32.45 M11.6 29.15 L11.5 28.55 11.45 29.05 11.6 29.15 M10.85 30.45 L11.25 31.1 11.2 31.0 Q11.0 30.2 11.2 29.45 L10.75 30.05 10.85 30.45 M10.4 31.65 L10.6 32.4 10.7 32.45 10.75 32.45" fill="none" stroke="#000000" stroke-linecap="round" stroke-linejoin="round" stroke-opacity="0.2509804" stroke-width="0.05"/>
      <path d="M10.5 31.3 L10.5 31.25 10.55 31.35 10.8 31.6 10.95 31.6 11.0 31.65 M10.55 31.45 L10.55 31.55 10.4 31.65 M10.3 31.35 L10.5 31.3 M10.55 31.35 L10.55 31.45" fill="none" stroke="#a48c66" stroke-linecap="round" stroke-linejoin="round" stroke-width="0.05"/>
      <path d="M11.0 31.65 L10.85 31.7 10.55 31.45" fill="none" stroke="#dcb996" stroke-linecap="round" stroke-linejoin="round" stroke-width="0.05"/>
      <path d="M13.7 32.85 L13.85 32.7 14.0 32.5 14.1 32.6 13.95 32.8 13.9 32.85 Q13.5 33.3 12.85 33.3 12.3 33.35 11.8 32.9 11.35 32.5 11.3 31.9 L11.4 31.25 11.65 30.9 11.9 30.7 11.95 30.85 11.85 30.95 11.85 31.0 11.8 31.05 11.8 31.1 11.65 31.25 11.55 31.9 Q11.6 32.4 12.0 32.8 L12.95 33.1 13.45 33.0 13.7 32.85" fill="#be7421" fill-rule="evenodd" stroke="none"/>
      <path d="M14.0 32.5 L14.15 32.15 14.15 31.8 Q14.1 31.25 13.7 30.9 13.3 30.55 12.75 30.55 12.3 30.55 11.95 30.85 L11.9 30.7 12.7 30.45 Q13.3 30.4 13.75 30.85 14.2 31.25 14.25 31.85 L14.1 32.6 14.0 32.5" fill="#e2a058" fill-rule="evenodd" stroke="none"/>
      <path d="M11.85 31.0 L11.75 31.15 11.8 31.1 11.8 31.05 11.85 31.0" fill="#162358" fill-rule="evenodd" stroke="none"/>
      <path d="M11.75 31.2 L11.65 31.25 11.8 31.1 11.75 31.15 11.75 31.2" fill="#121b4a" fill-rule="evenodd" stroke="none"/>
      <path d="M13.55 31.15 L13.35 31.4 13.1 31.45 12.8 31.25 Q12.65 31.0 12.85 30.9 L13.45 30.95 13.55 31.15" fill="#e4e9f8" fill-rule="evenodd" stroke="none"/>
      <path d="M11.75 31.25 L11.9 31.25 Q12.05 32.15 13.05 32.1 L13.85 32.35 13.85 32.4 13.9 32.45 Q13.15 32.25 13.05 32.75 12.55 32.8 11.95 32.25 11.7 31.7 11.75 31.25" fill="#0c3612" fill-rule="evenodd" stroke="none"/>
      <path d="M13.9 32.45 L13.5 32.9 Q12.8 33.05 12.25 32.6 L11.95 32.25 11.9 32.2 11.95 32.25 Q12.55 32.8 13.05 32.75 13.15 32.25 13.9 32.45" fill="#33bd47" fill-rule="evenodd" stroke="none"/>
      <path d="M11.65 31.25 L11.75 31.25 Q11.7 31.7 11.95 32.25 L11.9 32.2 11.95 32.25 12.25 32.6 Q12.8 33.05 13.5 32.9 L13.7 32.85 13.45 33.0 12.95 33.1 12.0 32.8 Q11.6 32.4 11.55 31.9 L11.65 31.25" fill="#124a1e" fill-rule="evenodd" stroke="none"/>
      <path d="M11.9 31.25 Q12.5 32.1 13.9 31.75 14.05 32.35 13.85 32.35 L13.05 32.1 Q12.05 32.15 11.9 31.25" fill="#228a33" fill-rule="evenodd" stroke="none"/>
      <path d="M12.85 30.9 Q12.65 31.0 12.8 31.25 L13.1 31.45 13.35 31.4 13.55 31.15 13.75 31.3 Q14.0 31.45 14.15 32.15 L14.0 32.5 13.85 32.7 13.7 32.85 13.5 32.9 13.9 32.45 13.85 32.4 13.85 32.35 Q14.05 32.35 13.9 31.75 12.5 32.1 11.9 31.25 L11.75 31.25 11.65 31.25 11.75 31.2 12.85 30.9" fill="#269435" fill-rule="evenodd" stroke="none"/>
      <path d="M12.85 30.9 L11.75 31.2 11.75 31.15 11.85 31.0 11.85 30.95 11.95 30.85 Q12.3 30.55 12.75 30.55 13.3 30.55 13.7 30.9 14.1 31.25 14.15 31.8 L14.15 32.15 Q14.0 31.45 13.75 31.3 L13.55 31.15 13.45 30.95 12.85 30.9" fill="#c2f0c8" fill-rule="evenodd" stroke="none"/>
      <path d="M13.7 32.85 L13.85 32.7 14.0 32.5 14.15 32.15 M11.95 30.85 Q12.3 30.55 12.75 30.55 13.3 30.55 13.7 30.9 14.1 31.25 14.15 31.8 L14.15 32.15 M11.95 30.85 L11.85 30.95 11.85 31.0 M11.8 31.1 L11.8 31.05 11.85 31.0 M11.8 31.1 L11.65 31.25 M13.7 32.85 L13.45 33.0 12.95 33.1 12.0 32.8 Q11.6 32.4 11.55 31.9 L11.65 31.25" fill="none" stroke="#74523d" stroke-linecap="round" stroke-linejoin="round" stroke-width="0.05"/>
      <path d="M14.1 32.6 L14.25 31.85 Q14.2 31.25 13.75 30.85 13.3 30.4 12.7 30.45 L11.9 30.7 11.65 30.9 11.4 31.25 11.3 31.9 Q11.35 32.5 11.8 32.9 12.3 33.35 12.85 33.3 13.5 33.3 13.9 32.85 L13.95 32.8 14.1 32.6" fill="none" stroke="#000000" stroke-linecap="round" stroke-linejoin="round" stroke-opacity="0.3019608" stroke-width="0.25"/>
      <path d="M14.0 31.25 L13.9 31.15 11.8 31.05 Q11.55 31.25 11.7 31.35 12.8 31.15 13.85 31.75 14.15 31.7 14.0 31.25" fill="url(#gradient23)" fill-rule="evenodd" stroke="none"/>
      <path d="M13.85 32.6 L13.4 32.7 Q13.4 31.6 12.75 30.85 L13.05 30.8 Q13.9 31.2 13.85 32.45 L13.85 32.6" fill="url(#gradient24)" fill-rule="evenodd" stroke="none"/>
    </g>
    <radialGradient cx="0" cy="0" gradientTransform="matrix(-0.0045, -0.0011, -0.0032, 0.0061, 27.85, 15.6)" gradientUnits="userSpaceOnUse" id="gradient0" r="819.2" spreadMethod="pad">
      <stop offset="0.0" stop-color="#159971"/>
      <stop offset="0.6039215686274509" stop-color="#93fe92"/>
      <stop offset="0.9882352941176471" stop-color="#f2fff2"/>
    </radialGradient>
    <radialGradient cx="0" cy="0" gradientTransform="matrix(8.0E-4, -0.0023, -0.0023, -8.0E-4, 29.1, 11.65)" gradientUnits="userSpaceOnUse" id="gradient1" r="819.2" spreadMethod="pad">
      <stop offset="0.0" stop-color="#ffffff" stop-opacity="0.4117647"/>
      <stop offset="1.0" stop-color="#ffffff" stop-opacity="0.0"/>
    </radialGradient>
    <radialGradient cx="0" cy="0" gradientTransform="matrix(0.0022, -4.0E-4, -4.0E-4, -0.0021, 30.55, 13.05)" gradientUnits="userSpaceOnUse" id="gradient2" r="819.2" spreadMethod="pad">
      <stop offset="0.0" stop-color="#ffffff" stop-opacity="0.4117647"/>
      <stop offset="1.0" stop-color="#ffffff" stop-opacity="0.0"/>
    </radialGradient>
    <radialGradient cx="0" cy="0" gradientTransform="matrix(-0.0031, -0.0023, 0.0024, -0.0032, 6.75, 39.55)" gradientUnits="userSpaceOnUse" id="gradient3" r="819.2" spreadMethod="pad">
      <stop offset="0.0" stop-color="#c57e4b"/>
      <stop offset="0.5215686274509804" stop-color="#412f18"/>
    </radialGradient>
    <radialGradient cx="0" cy="0" gradientTransform="matrix(-0.0011, -8.0E-4, 8.0E-4, -0.0011, 10.2, 34.2)" gradientUnits="userSpaceOnUse" id="gradient4" r="819.2" spreadMethod="pad">
      <stop offset="0.0" stop-color="#412f18"/>
      <stop offset="0.596078431372549" stop-color="#b98046"/>
    </radialGradient>
    <radialGradient cx="0" cy="0" gradientTransform="matrix(-0.0073, -0.0055, 0.0057, -0.0075, 15.0, 27.25)" gradientUnits="userSpaceOnUse" id="gradient5" r="819.2" spreadMethod="pad">
      <stop offset="0.0" stop-color="#412f18"/>
      <stop offset="0.596078431372549" stop-color="#b98046"/>
    </radialGradient>
    <radialGradient cx="0" cy="0" gradientTransform="matrix(-0.0072, -0.0055, 0.0056, -0.0074, 16.0, 28.05)" gradientUnits="userSpaceOnUse" id="gradient6" r="819.2" spreadMethod="pad">
      <stop offset="0.0" stop-color="#412f18"/>
      <stop offset="0.596078431372549" stop-color="#b98046"/>
    </radialGradient>
    <radialGradient cx="0" cy="0" gradientTransform="matrix(-0.0043, -0.0032, 0.0033, -0.0044, 21.15, 20.7)" gradientUnits="userSpaceOnUse" id="gradient7" r="819.2" spreadMethod="pad">
      <stop offset="0.0" stop-color="#412f18"/>
      <stop offset="0.596078431372549" stop-color="#b98046"/>
    </radialGradient>
    <radialGradient cx="0" cy="0" gradientTransform="matrix(-0.0029, -0.0022, 0.0022, -0.003, 18.05, 23.25)" gradientUnits="userSpaceOnUse" id="gradient8" r="819.2" spreadMethod="pad">
      <stop offset="0.0" stop-color="#412f18"/>
      <stop offset="0.596078431372549" stop-color="#b98046"/>
    </radialGradient>
    <radialGradient cx="0" cy="0" gradientTransform="matrix(-0.0029, -0.0022, 0.0023, -0.003, 19.6, 24.35)" gradientUnits="userSpaceOnUse" id="gradient9" r="819.2" spreadMethod="pad">
      <stop offset="0.0" stop-color="#412f18"/>
      <stop offset="0.596078431372549" stop-color="#b98046"/>
    </radialGradient>
    <radialGradient cx="0" cy="0" gradientTransform="matrix(-0.0043, -0.0033, 0.0034, -0.0044, 20.6, 20.3)" gradientUnits="userSpaceOnUse" id="gradient10" r="819.2" spreadMethod="pad">
      <stop offset="0.0" stop-color="#412f18"/>
      <stop offset="0.596078431372549" stop-color="#b98046"/>
    </radialGradient>
    <radialGradient cx="0" cy="0" gradientTransform="matrix(-0.0035, -0.0026, 0.0027, -0.0036, 23.65, 17.9)" gradientUnits="userSpaceOnUse" id="gradient11" r="819.2" spreadMethod="pad">
      <stop offset="0.0" stop-color="#412f18"/>
      <stop offset="0.596078431372549" stop-color="#b98046"/>
    </radialGradient>
    <radialGradient cx="0" cy="0" gradientTransform="matrix(-0.0034, -0.0026, 0.0026, -0.0035, 22.7, 17.4)" gradientUnits="userSpaceOnUse" id="gradient12" r="819.2" spreadMethod="pad">
      <stop offset="0.0" stop-color="#412f18"/>
      <stop offset="0.596078431372549" stop-color="#b98046"/>
    </radialGradient>
    <radialGradient cx="0" cy="0" gradientTransform="matrix(4.0E-4, -0.001, -0.001, -3.0E-4, 20.05, 21.05)" gradientUnits="userSpaceOnUse" id="gradient13" r="819.2" spreadMethod="pad">
      <stop offset="0.0" stop-color="#ffffff" stop-opacity="0.4117647"/>
      <stop offset="1.0" stop-color="#ffffff" stop-opacity="0.0"/>
    </radialGradient>
    <radialGradient cx="0" cy="0" gradientTransform="matrix(9.0E-4, -2.0E-4, -2.0E-4, -9.0E-4, 20.65, 21.6)" gradientUnits="userSpaceOnUse" id="gradient14" r="819.2" spreadMethod="pad">
      <stop offset="0.0" stop-color="#ffffff" stop-opacity="0.4117647"/>
      <stop offset="1.0" stop-color="#ffffff" stop-opacity="0.0"/>
    </radialGradient>
    <radialGradient cx="0" cy="0" gradientTransform="matrix(-0.0037, -0.0028, 0.0029, -0.0038, 12.7, 31.0)" gradientUnits="userSpaceOnUse" id="gradient15" r="819.2" spreadMethod="pad">
      <stop offset="0.0" stop-color="#52351b"/>
      <stop offset="1.0" stop-color="#9b6b33"/>
    </radialGradient>
    <radialGradient cx="0" cy="0" gradientTransform="matrix(-0.0032, -0.0024, 0.0025, -0.0033, 13.65, 33.75)" gradientUnits="userSpaceOnUse" id="gradient16" r="819.2" spreadMethod="pad">
      <stop offset="0.0" stop-color="#ffffff"/>
      <stop offset="1.0" stop-color="#9b6b33"/>
    </radialGradient>
    <radialGradient cx="0" cy="0" gradientTransform="matrix(-0.0011, -8.0E-4, 8.0E-4, -0.0011, 14.8, 32.85)" gradientUnits="userSpaceOnUse" id="gradient17" r="819.2" spreadMethod="pad">
      <stop offset="0.0" stop-color="#ffdc66"/>
      <stop offset="1.0" stop-color="#a22626"/>
    </radialGradient>
    <radialGradient cx="0" cy="0" gradientTransform="matrix(-8.0E-4, -6.0E-4, 6.0E-4, -9.0E-4, 13.4, 33.9)" gradientUnits="userSpaceOnUse" id="gradient18" r="819.2" spreadMethod="pad">
      <stop offset="0.0" stop-color="#ffffff"/>
      <stop offset="1.0" stop-color="#9b6b33"/>
    </radialGradient>
    <radialGradient cx="0" cy="0" gradientTransform="matrix(0.0037, 0.0028, 0.0029, -0.0038, 13.35, 31.5)" gradientUnits="userSpaceOnUse" id="gradient19" r="819.2" spreadMethod="pad">
      <stop offset="0.0" stop-color="#52351b"/>
      <stop offset="1.0" stop-color="#9b6b33"/>
    </radialGradient>
    <radialGradient cx="0" cy="0" gradientTransform="matrix(0.0032, 0.0024, 0.0025, -0.0033, 10.5, 31.3)" gradientUnits="userSpaceOnUse" id="gradient20" r="819.2" spreadMethod="pad">
      <stop offset="0.0" stop-color="#ffffff"/>
      <stop offset="1.0" stop-color="#9b6b33"/>
    </radialGradient>
    <radialGradient cx="0" cy="0" gradientTransform="matrix(0.0011, 8.0E-4, 8.0E-4, -0.0011, 11.0, 30.0)" gradientUnits="userSpaceOnUse" id="gradient21" r="819.2" spreadMethod="pad">
      <stop offset="0.0" stop-color="#ffdc66"/>
      <stop offset="1.0" stop-color="#a22626"/>
    </radialGradient>
    <radialGradient cx="0" cy="0" gradientTransform="matrix(8.0E-4, 6.0E-4, 6.0E-4, -9.0E-4, 10.4, 31.65)" gradientUnits="userSpaceOnUse" id="gradient22" r="819.2" spreadMethod="pad">
      <stop offset="0.0" stop-color="#ffffff"/>
      <stop offset="1.0" stop-color="#9b6b33"/>
    </radialGradient>
    <radialGradient cx="0" cy="0" gradientTransform="matrix(4.0E-4, -0.001, -0.001, -3.0E-4, 12.85, 31.05)" gradientUnits="userSpaceOnUse" id="gradient23" r="819.2" spreadMethod="pad">
      <stop offset="0.0" stop-color="#ffffff" stop-opacity="0.4117647"/>
      <stop offset="1.0" stop-color="#ffffff" stop-opacity="0.0"/>
    </radialGradient>
    <radialGradient cx="0" cy="0" gradientTransform="matrix(9.0E-4, -2.0E-4, -2.0E-4, -9.0E-4, 13.5, 31.6)" gradientUnits="userSpaceOnUse" id="gradient24" r="819.2" spreadMethod="pad">
      <stop offset="0.0" stop-color="#ffffff" stop-opacity="0.4117647"/>
      <stop offset="1.0" stop-color="#ffffff" stop-opacity="0.0"/>
    </radialGradient>
  </defs>
</svg>
