<?xml version="1.0" encoding="UTF-8" standalone="no"?>
<svg xmlns:xlink="http://www.w3.org/1999/xlink" height="440.0px" width="440.0px" xmlns="http://www.w3.org/2000/svg">
  <g transform="matrix(10.0, 0.0, 0.0, 10.0, 0.0, 0.0)">
    <use height="44.0" transform="matrix(1.0, 0.0, 0.0, 1.0, 0.0, 0.0)" width="44.0" xlink:href="#shape0"/>
  </g>
  <defs>
    <g id="shape0" transform="matrix(1.0, 0.0, 0.0, 1.0, 0.0, 0.0)">
      <path d="M44.0 44.0 L0.0 44.0 0.0 0.0 44.0 0.0 44.0 44.0" fill="#33cc33" fill-opacity="0.0" fill-rule="evenodd" stroke="none"/>
      <path d="M24.4 12.35 L24.3 12.1 24.65 12.05 24.4 12.35" fill="#867362" fill-rule="evenodd" stroke="none"/>
      <path d="M4.0 15.95 L3.75 16.0" fill="none" stroke="#000000" stroke-linecap="round" stroke-linejoin="round" stroke-opacity="0.3019608" stroke-width="0.05"/>
      <path d="M5.7 15.35 L8.2 16.6 Q10.8 17.75 15.15 17.25 L15.85 16.75 Q12.0 17.55 5.7 15.35 M16.55 15.9 L16.95 14.9 11.65 15.35 Q13.3 16.2 16.55 15.9 M16.65 13.3 L15.8 12.2 15.65 12.1 14.45 12.55 15.55 12.25 15.75 12.95 13.4 13.6 13.05 13.65 9.5 13.85 8.6 13.8 10.2 14.2 Q13.55 14.7 16.65 13.3 M4.95 8.4 L5.2 7.75 Q3.75 8.55 3.1 10.25 2.55 11.85 3.0 12.75 5.2 14.25 4.4 11.55 L3.85 10.95 4.3 9.85 4.35 9.7 4.95 8.4 M8.2 12.8 Q5.05 11.95 4.35 9.7 L4.3 9.85 Q3.9 11.1 4.6 11.25 5.9 12.15 8.0 12.85 L8.2 12.8" fill="#6a5b4f" fill-rule="evenodd" stroke="none"/>
      <path d="M3.0 12.75 L4.5 14.5 5.5 15.2 5.7 15.35 Q12.0 17.55 15.85 16.75 L16.55 15.9 Q13.3 16.2 11.65 15.35 L16.95 14.9 Q17.15 14.1 16.65 13.3 13.55 14.7 10.2 14.2 L8.6 13.8 Q7.4 13.5 6.2 12.9 L4.6 11.75 4.4 11.55 Q5.2 14.25 3.0 12.75 M15.65 12.1 L15.0 11.5 13.35 12.0 13.8 12.25 8.2 12.8 8.0 12.85 8.4 12.95 9.85 13.05 11.1 13.0 14.35 12.6 14.45 12.55 15.65 12.1" fill="#453b33" fill-rule="evenodd" stroke="none"/>
      <path d="M13.35 12.0 Q8.25 13.15 5.0 10.7 L4.65 9.7 4.95 8.4 4.35 9.7 4.3 9.85 4.35 9.7 Q5.05 11.95 8.2 12.8 L13.8 12.25 13.35 12.0" fill="#beafa7" fill-rule="evenodd" stroke="none"/>
      <path d="M4.4 11.55 L4.6 11.75 6.2 12.9 Q7.4 13.5 8.6 13.8 L9.5 13.85 8.0 13.25 9.85 13.05 8.4 12.95 8.0 12.85 Q5.9 12.15 4.6 11.25 3.9 11.1 4.3 9.85 L3.85 10.95 4.4 11.55" fill="#e2dad8" fill-rule="evenodd" stroke="none"/>
      <path d="M11.1 13.0 L9.85 13.05 8.0 13.25 9.5 13.85 13.05 13.65 11.1 13.0" fill="#cfbab5" fill-rule="evenodd" stroke="none"/>
      <path d="M14.45 12.55 L14.35 12.6 11.1 13.0 13.05 13.65 13.4 13.6 15.75 12.95 15.55 12.25 14.45 12.55" fill="#947e79" fill-rule="evenodd" stroke="none"/>
      <path d="M3.0 12.75 L4.5 14.5 5.5 15.2 M5.7 15.35 L8.2 16.6 Q10.8 17.75 15.15 17.25 L15.85 16.75 16.55 15.9 16.95 14.9 Q17.15 14.1 16.65 13.3 L15.8 12.2 15.65 12.1 15.0 11.5 13.35 12.0 Q8.25 13.15 5.0 10.7 L4.65 9.7 4.95 8.4 5.2 7.75 Q3.75 8.55 3.1 10.25 2.55 11.85 3.0 12.75 Z" fill="none" stroke="#000000" stroke-linecap="round" stroke-linejoin="round" stroke-opacity="0.3019608" stroke-width="0.4"/>
      <path d="M14.9 13.8 L14.3 14.1 Q8.1 15.95 4.8 11.95 3.9 10.7 4.7 10.4 9.5 12.6 14.9 11.1 16.1 11.85 14.9 13.8" fill="url(#gradient0)" fill-rule="evenodd" stroke="none"/>
      <path d="M34.65 10.45 L37.2 15.8 36.95 17.9 36.9 18.0 36.85 18.05 32.45 24.35 33.3 16.9 32.4 15.4 34.65 10.45 M29.8 10.8 L31.7 14.15 27.85 15.85 27.75 15.65 25.3 11.25 25.3 11.2 25.3 11.25 25.25 11.25 25.3 11.2 26.05 10.1 26.2 9.9 26.65 9.3 29.8 10.8 M36.85 18.05 L33.3 16.9 36.85 18.05 M34.05 18.3 L33.3 16.9 34.05 18.3" fill="#ad9d8f" fill-rule="evenodd" stroke="none"/>
      <path d="M29.75 4.0 L29.95 4.0 32.2 5.15 32.2 5.2 29.8 5.65 29.75 4.0 29.8 5.65 28.05 7.85 27.9 8.0 27.9 8.05 26.15 7.2 23.6 7.2 23.1 6.9 23.6 6.9 23.6 7.2 23.6 6.9 23.1 6.9 23.6 7.2 21.8 7.45 21.55 7.5 21.05 7.65 21.0 7.95 21.0 8.0 Q21.0 8.45 21.95 9.35 22.75 10.05 23.5 10.25 L22.0 10.35 21.8 10.35 23.25 12.15 25.25 11.25 25.3 11.25 25.2 12.5 25.1 13.95 25.2 14.15 24.0 13.3 25.2 12.5 24.0 13.3 22.65 12.35 16.9 12.95 16.4 12.65 15.65 11.75 21.4 9.9 15.65 11.75 16.4 12.65 16.9 12.95 12.4 13.45 12.35 13.45 12.4 13.2 12.6 11.65 11.45 13.75 10.4 13.75 10.15 13.75 9.95 13.75 9.85 13.75 7.9 14.0 8.0 13.55 8.3 13.3 12.6 8.15 12.65 8.1 12.75 8.2 13.6 8.1 13.4 8.45 12.65 9.75 12.6 9.8 12.6 9.9 12.6 10.2 12.9 10.35 12.95 10.35 15.5 8.75 16.55 8.05 17.9 8.0 15.7 10.7 15.95 11.35 15.4 11.5 14.85 11.65 12.95 10.35 14.85 11.65 15.4 11.5 15.95 11.35 18.55 10.65 20.5 8.7 19.9 7.95 20.5 7.75 20.7 8.15 21.0 7.95 20.7 8.15 20.8 8.4 22.0 10.35 20.8 8.4 20.7 8.15 20.5 7.75 19.9 7.95 19.3 7.2 20.1 6.5 21.7 5.15 25.3 4.65 25.45 4.65 29.75 4.0 M25.85 7.0 L27.0 7.3 27.55 7.25 27.6 7.2 27.6 7.0 Q27.6 6.6 26.95 6.1 L26.6 5.9 26.6 5.85 26.55 5.85 Q25.9 5.5 25.1 5.5 L24.95 5.5 24.65 5.6 24.6 5.8 24.6 5.9 Q24.6 6.35 25.4 6.8 L25.85 7.0 M23.75 5.8 L24.0 6.4 23.6 6.9 24.15 6.9 24.15 6.2 26.15 7.2 24.15 6.2 24.15 6.9 23.6 6.9 24.0 6.4 23.75 5.8 M23.1 6.9 L20.5 7.75 23.1 6.9 M20.8 8.4 L20.5 8.7 20.8 8.4 M24.15 6.9 L24.0 6.4 24.15 6.2 24.0 6.4 24.15 6.9 M24.15 6.2 L25.3 4.65 24.15 6.2 M15.55 10.3 L15.7 10.7 15.55 10.3 M22.95 12.3 L22.65 12.35 22.95 12.3 23.25 12.15 22.95 12.3 M14.85 11.65 L16.4 12.65 14.85 11.65 M15.65 11.75 L15.4 11.5 15.65 11.75 M21.4 9.85 L20.5 8.7 21.4 9.85 21.4 9.9 21.55 9.85 21.4 9.85 18.55 10.65 21.4 9.85 M21.8 10.35 L21.55 9.85 21.8 10.35 M10.65 13.25 L10.4 13.75 10.65 13.25 10.75 13.25 10.8 13.2 11.05 13.0 11.0 12.95 10.65 13.2 10.45 13.15 10.65 13.25 M11.6 12.45 L11.05 13.0 11.6 12.45 M7.45 13.75 L7.25 13.85 6.75 13.35 6.45 12.7 Q6.45 12.4 6.75 11.75 L7.15 11.2 7.15 11.15 7.3 11.05 7.35 11.0 Q7.4 10.9 7.5 10.9 7.85 10.9 7.9 11.4 L7.9 12.0 Q7.9 13.5 7.45 13.75 M12.4 13.45 L12.4 13.2 12.4 13.45 M12.1 11.65 L12.9 10.35 12.1 11.65 M28.05 7.85 L26.15 7.2 28.05 7.85" fill="#bdb0a6" fill-rule="evenodd" stroke="none"/>
      <path d="M19.8 5.35 L20.1 6.5 19.3 7.2 18.45 7.9 17.6 8.6 18.05 7.95 18.5 7.3 19.25 6.15 19.35 6.0 19.8 5.35 M18.45 7.9 L18.05 7.95 18.45 7.9" fill="#6e6660" fill-rule="evenodd" stroke="none"/>
      <path d="M27.3 8.75 L30.45 11.05 29.8 10.8 26.65 9.3 25.75 8.25 27.3 8.75 M12.4 13.45 L12.2 17.05 11.45 13.75 12.6 11.65 12.4 13.2 12.35 13.45 12.4 13.45" fill="#695f57" fill-rule="evenodd" stroke="none"/>
      <path d="M12.8 7.1 L11.45 8.4 8.3 11.45 8.6 9.85 11.45 7.3 12.8 7.1" fill="#e0d1c4" fill-rule="evenodd" stroke="none"/>
      <path d="M24.6 5.8 L24.65 5.6 24.95 5.5 25.1 5.5 Q25.9 5.5 26.55 5.85 L26.6 5.85 26.6 5.9 26.95 6.1 Q27.6 6.6 27.6 7.0 L27.6 7.2 27.55 7.25 27.0 7.3 25.85 7.0 25.3 6.65 24.6 5.8 M18.5 7.3 L13.6 8.1 12.75 8.2 12.65 8.1 12.6 8.15 12.5 8.25 11.45 8.4 12.8 7.1 19.25 6.15 18.5 7.3 M13.4 8.45 L15.5 8.75 12.95 10.35 12.9 10.35 12.6 10.2 12.6 9.9 12.6 9.8 12.65 9.75 13.4 8.45" fill="#d9cabe" fill-rule="evenodd" stroke="none"/>
      <path d="M4.95 14.35 L4.95 13.15 5.4 12.7 7.15 11.2 6.75 11.75 Q6.45 12.4 6.45 12.7 L6.75 13.35 7.25 13.85 7.45 13.75 Q7.9 13.5 7.9 12.0 L7.9 11.4 Q7.85 10.9 7.5 10.9 7.4 10.9 7.35 11.0 L8.6 9.85 8.3 11.45 8.0 13.55 7.9 14.0 4.95 14.35 M8.0 13.55 L7.45 13.75 8.0 13.55" fill="#d6c7bb" fill-rule="evenodd" stroke="none"/>
      <path d="M21.0 7.95 L21.0 8.0 21.0 7.95" fill="#99877a" fill-rule="evenodd" stroke="none"/>
      <path d="M25.85 7.0 L25.4 6.8 Q24.6 6.35 24.6 5.9 L24.6 5.8 25.3 6.65 25.85 7.0" fill="#9e8a7b" fill-rule="evenodd" stroke="none"/>
      <path d="M10.65 13.25 L10.45 13.15 10.65 13.2 11.0 12.95 11.05 13.0 10.8 13.2 10.75 13.25 10.65 13.25" fill="#917e71" fill-rule="evenodd" stroke="none"/>
      <path d="M21.4 9.85 L21.55 9.85 21.4 9.9 21.4 9.85" fill="#61544b" fill-rule="evenodd" stroke="none"/>
      <path d="M27.9 8.05 L27.85 8.1 24.1 8.0 Q23.2 7.45 21.8 7.45 L23.6 7.2 26.15 7.2 27.9 8.05" fill="#807066" fill-rule="evenodd" stroke="none"/>
      <path d="M25.95 21.95 L25.3 22.6 19.7 20.2 25.95 21.95" fill="#876b62" fill-rule="evenodd" stroke="none"/>
      <path d="M6.75 19.3 L5.65 18.55 4.8 16.9 6.55 16.9 6.75 16.9 6.65 17.25 6.55 16.9 6.65 17.25 6.95 19.05 7.0 19.45 6.75 19.3 6.95 19.05 6.75 19.3" fill="#876e62" fill-rule="evenodd" stroke="none"/>
      <path d="M18.65 27.05 L11.9 27.45 14.7 24.45 18.65 27.05 M7.9 14.0 L9.85 13.75 9.95 13.75 10.15 13.75 10.4 13.75 11.45 13.75 12.2 17.05 6.75 16.9 7.9 14.0" fill="#635448" fill-rule="evenodd" stroke="none"/>
      <path d="M20.95 26.9 L18.65 27.05 14.7 24.45 12.8 23.25 14.55 18.8 19.7 20.2 25.3 22.6 20.95 26.9" fill="#6b5b4e" fill-rule="evenodd" stroke="none"/>
      <path d="M4.8 16.9 L4.55 16.4 4.95 14.35 7.9 14.0 6.75 16.9 6.55 16.9 4.8 16.9" fill="#917b69" fill-rule="evenodd" stroke="none"/>
      <path d="M15.9 15.45 L15.25 17.15 12.2 17.05 12.4 13.45 16.9 12.95 16.2 14.8 15.9 15.45 M15.8 14.55 L16.2 14.8 15.8 14.55" fill="#66574a" fill-rule="evenodd" stroke="none"/>
      <path d="M12.2 17.05 L15.25 17.15 14.55 18.8 12.8 23.25 10.65 21.85 9.2 20.9 7.0 19.45 6.95 19.05 6.65 17.25 6.75 16.9 12.2 17.05" fill="#6e5950" fill-rule="evenodd" stroke="none"/>
      <path d="M10.6 27.5 L10.1 27.55 6.3 19.85 7.05 20.15 9.2 20.9 10.65 21.85 10.6 27.5" fill="#857161" fill-rule="evenodd" stroke="none"/>
      <path d="M30.65 25.75 L29.3 26.45 20.95 26.9 25.3 22.6 25.95 21.95 29.3 22.9 25.95 21.95 19.7 20.2 22.75 18.75 23.1 18.55 26.45 16.9 29.3 22.9 30.65 25.75 M11.9 27.45 L10.6 27.5 10.65 21.85 12.8 23.25 12.65 23.65 12.8 23.25 14.7 24.45 11.9 27.45" fill="#69594c" fill-rule="evenodd" stroke="none"/>
      <path d="M15.25 17.15 L15.9 15.45 16.5 15.75 22.75 18.75 19.7 20.2 14.55 18.8 15.25 17.15 M16.5 15.75 L14.55 18.8 16.5 15.75" fill="#635252" fill-rule="evenodd" stroke="none"/>
      <path d="M16.9 12.95 L22.65 12.35 24.0 13.3 20.15 16.95 16.2 14.8 16.9 12.95" fill="#6b554e" fill-rule="evenodd" stroke="none"/>
      <path d="M25.2 14.15 L26.35 16.55 26.45 16.9 23.1 18.55 20.15 16.95 24.0 13.3 25.2 14.15" fill="#6e5750" fill-rule="evenodd" stroke="none"/>
      <path d="M6.3 19.85 L6.75 19.3 7.0 19.45 9.2 20.9 7.05 20.15 7.0 19.45 7.05 20.15 6.3 19.85" fill="#423933" fill-rule="evenodd" stroke="none"/>
      <path d="M15.9 15.45 L16.2 14.8 20.15 16.95 23.1 18.55 22.75 18.75 16.5 15.75 15.9 15.45" fill="#524444" fill-rule="evenodd" stroke="none"/>
      <path d="M27.85 15.85 L31.6 24.1 31.8 25.15 30.65 25.75 29.3 22.9 30.0 23.1 29.3 22.9 26.45 16.9 26.35 16.55 25.2 14.15 25.1 13.95 25.2 12.5 25.3 11.25 27.75 15.65 27.85 15.85 26.35 16.55 27.85 15.85" fill="#8f8276" fill-rule="evenodd" stroke="none"/>
      <path d="M32.45 24.35 L32.0 25.05 31.8 25.15 31.6 24.1 27.85 15.85 31.7 14.15 32.4 15.4 33.3 16.9 32.45 24.35" fill="#948176" fill-rule="evenodd" stroke="none"/>
      <path d="M27.85 8.1 L27.3 8.75 25.75 8.25 26.65 9.3 26.2 9.9 26.05 10.1 25.3 11.2 25.25 11.25 23.25 12.15 21.8 10.35 22.0 10.35 23.5 10.25 Q22.75 10.05 21.95 9.35 21.0 8.45 21.0 8.0 L21.0 7.95 21.05 7.65 21.55 7.5 21.8 7.45 Q23.2 7.45 24.1 8.0 L27.85 8.1 M24.7 10.15 L26.05 10.1 24.7 10.15" fill="#a69a91" fill-rule="evenodd" stroke="none"/>
      <path d="M19.9 7.95 L20.5 8.7 18.55 10.65 15.95 11.35 15.7 10.7 17.9 8.0 18.05 7.95 17.6 8.6 18.45 7.9 19.3 7.2 19.9 7.95" fill="#a89c93" fill-rule="evenodd" stroke="none"/>
      <path d="M5.4 12.7 L8.75 8.9 10.15 7.3 11.35 6.65 13.6 6.3 19.8 5.35 19.35 6.0 19.25 6.15 12.8 7.1 13.6 6.3 12.8 7.1 11.45 7.3 8.6 9.85 7.35 11.0 7.3 11.05 7.15 11.15 7.15 11.2 5.4 12.7 M8.75 8.9 L8.6 9.85 8.75 8.9" fill="#eddcce" fill-rule="evenodd" stroke="none"/>
      <path d="M17.9 8.0 L16.55 8.05 15.5 8.75 13.4 8.45 13.6 8.1 18.5 7.3 18.05 7.95 17.9 8.0 M12.5 8.25 L12.6 8.15 8.3 13.3 8.0 13.55 8.3 11.45 11.45 8.4 12.5 8.25" fill="#efe9e4" fill-rule="evenodd" stroke="none"/>
      <path d="M29.8 5.65 L32.2 5.2 34.55 10.25 34.65 10.45 32.4 15.4 31.7 14.15 29.8 10.8 30.45 11.05 27.3 8.75 27.85 8.1 27.9 8.05 27.9 8.0 28.05 7.85 29.8 5.65" fill="#968476" fill-rule="evenodd" stroke="none"/>
      <path d="M32.2 5.2 L32.2 5.15 29.95 4.0 29.75 4.0 M29.8 5.65 L32.2 5.2 34.55 10.25 M34.65 10.45 L37.2 15.8 36.95 17.9 36.9 18.0 M36.85 18.05 L32.45 24.35 32.0 25.05 31.8 25.15 30.65 25.75 29.3 26.45 20.95 26.9 18.65 27.05 11.9 27.45 10.6 27.5 10.1 27.55 6.3 19.85 M25.25 11.25 L25.3 11.2 25.3 11.25 25.25 11.25 M5.65 18.55 L4.8 16.9 4.55 16.4 4.95 14.35 4.95 13.15 5.4 12.7 8.75 8.9 10.15 7.3 11.35 6.65 13.6 6.3 19.8 5.35 20.1 6.5 21.7 5.15 25.3 4.65 M25.45 4.65 L29.75 4.0 M25.3 11.25 L25.2 12.5 25.1 13.95 25.2 14.15 26.35 16.55 26.45 16.9 29.3 22.9 M30.65 25.75 L29.3 22.9 M18.05 7.95 L18.5 7.3 M19.8 5.35 L19.35 6.0 M19.25 6.15 L18.5 7.3 M20.1 6.5 L19.3 7.2 M18.45 7.9 L19.3 7.2 M17.6 8.6 L18.05 7.95 M22.65 12.35 L22.95 12.3 M24.0 13.3 L25.2 14.15 M22.65 12.35 L24.0 13.3 M9.85 13.75 L9.95 13.75 M10.15 13.75 L10.4 13.75 M12.4 13.45 L12.35 13.45" fill="none" stroke="#000000" stroke-linecap="round" stroke-linejoin="round" stroke-opacity="0.3019608" stroke-width="0.4"/>
      <path d="M29.75 4.0 L29.8 5.65 28.05 7.85 27.9 8.0 M27.85 8.1 L27.3 8.75 M27.9 8.05 L27.85 8.1 M23.25 12.15 L25.25 11.25 M25.3 11.2 L26.05 10.1 M22.95 12.3 L23.25 12.15 M26.65 9.3 L26.2 9.9" fill="none" stroke="#ffffff" stroke-linecap="round" stroke-linejoin="round" stroke-opacity="0.4" stroke-width="0.4"/>
      <path d="M27.3 8.75 L30.45 11.05 29.8 10.8 M27.3 8.75 L25.75 8.25 26.65 9.3 29.8 10.8 M12.4 13.45 L12.2 17.05 11.45 13.75 M12.4 13.2 L12.6 11.65 M12.4 13.2 L12.4 13.45" fill="none" stroke="#000000" stroke-linecap="round" stroke-linejoin="round" stroke-opacity="0.16078432" stroke-width="0.4"/>
      <path d="M34.55 10.25 L34.65 10.45 M36.9 18.0 L36.85 18.05 M31.8 25.15 L31.9 26.1 M29.8 10.8 L31.7 14.15 32.4 15.4 34.65 10.45 M26.05 10.1 L24.7 10.15 M31.7 14.15 L27.85 15.85 31.6 24.1 31.8 25.15 M27.85 15.85 L27.75 15.65 25.3 11.25 M26.35 16.55 L27.85 15.85 M32.4 15.4 L33.3 16.9 36.85 18.05 M33.3 16.9 L34.05 18.3 M32.45 24.35 L33.3 16.9 M18.5 7.3 L13.6 8.1 13.4 8.45 12.65 9.75 12.6 9.8 M26.2 9.9 L26.05 10.1 M12.75 8.2 L13.6 8.1 M10.4 13.75 L10.65 13.25 M11.05 13.0 L11.6 12.45 M11.05 13.0 L10.8 13.2" fill="none" stroke="#000000" stroke-linecap="round" stroke-linejoin="round" stroke-opacity="0.101960786" stroke-width="0.05"/>
      <path d="M27.9 8.0 L27.9 8.05 26.15 7.2 28.05 7.85 M21.8 7.45 L21.55 7.5 M23.5 10.25 L22.0 10.35 21.8 10.35 23.25 12.15 M6.3 19.85 L6.75 19.3 5.65 18.55 M25.3 4.65 L25.45 4.65 M29.3 22.9 L30.0 23.1 M29.3 22.9 L25.95 21.95 25.3 22.6 20.95 26.9 M23.6 7.2 L23.6 6.9 23.1 6.9 23.6 7.2 26.15 7.2 24.15 6.2 24.15 6.9 23.6 6.9 24.0 6.4 23.75 5.8 M21.0 7.95 L20.7 8.15 20.8 8.4 22.0 10.35 M20.7 8.15 L20.5 7.75 19.9 7.95 20.5 8.7 20.8 8.4 M20.5 7.75 L23.1 6.9 M23.6 7.2 L21.8 7.45 M24.15 6.2 L24.0 6.4 24.15 6.9 M25.3 4.65 L24.15 6.2 M15.5 8.75 L16.55 8.05 17.9 8.0 18.05 7.95 18.45 7.9 M13.4 8.45 L15.5 8.75 12.95 10.35 14.85 11.65 15.4 11.5 15.95 11.35 15.7 10.7 15.55 10.3 M19.35 6.0 L19.25 6.15 M19.3 7.2 L19.9 7.95 M21.4 9.9 L15.65 11.75 16.4 12.65 16.9 12.95 M15.4 11.5 L15.65 11.75 M16.4 12.65 L14.85 11.65 M15.25 17.15 L15.9 15.45 16.2 14.8 15.8 14.55 M15.9 15.45 L16.5 15.75 22.75 18.75 23.1 18.55 20.15 16.95 16.2 14.8 16.9 12.95 M12.2 17.05 L15.25 17.15 14.55 18.8 16.5 15.75 M15.95 11.35 L18.55 10.65 20.5 8.7 21.4 9.85 21.55 9.85 21.8 10.35 M25.2 12.5 L24.0 13.3 20.15 16.95 M21.4 9.9 L21.55 9.85 M17.9 8.0 L15.7 10.7 M18.55 10.65 L21.4 9.85 M12.8 7.1 L13.6 6.3 M12.6 8.15 L8.3 13.3 8.0 13.55 7.9 14.0 M12.8 7.1 L11.45 8.4 12.5 8.25 M8.6 9.85 L11.45 7.3 12.8 7.1 19.25 6.15 M7.15 11.2 L5.4 12.7 M4.8 16.9 L6.55 16.9 6.75 16.9 7.9 14.0 M6.55 16.9 L6.65 17.25 6.75 16.9 12.2 17.05 M12.6 10.2 L12.9 10.35 12.95 10.35 M12.9 10.35 L12.1 11.65 M7.15 11.2 L7.15 11.15 7.3 11.05 7.35 11.0 8.6 9.85 8.75 8.9 M7.45 13.75 L8.0 13.55 8.3 11.45 8.6 9.85 M8.3 11.45 L11.45 8.4 M7.05 20.15 L9.2 20.9 7.0 19.45 7.05 20.15 6.3 19.85 M9.2 20.9 L10.65 21.85 12.8 23.25 14.55 18.8 19.7 20.2 22.75 18.75 M12.8 23.25 L12.65 23.65 M6.75 19.3 L6.95 19.05 6.65 17.25 M10.65 21.85 L10.6 27.5 M7.0 19.45 L6.95 19.05 M6.75 19.3 L7.0 19.45 M19.7 20.2 L25.95 21.95 M19.7 20.2 L25.3 22.6 M18.65 27.05 L14.7 24.45 11.9 27.45 M26.45 16.9 L23.1 18.55 M14.7 24.45 L12.8 23.25" fill="none" stroke="#000000" stroke-linecap="round" stroke-linejoin="round" stroke-opacity="0.050980393" stroke-width="0.05"/>
      <path d="M16.9 12.95 L22.65 12.35 M16.9 12.95 L12.4 13.45 M7.9 14.0 L9.85 13.75 M9.95 13.75 L10.15 13.75 M7.9 14.0 L4.95 14.35 M11.45 13.75 L10.4 13.75 M12.35 13.45 L12.4 13.2 M12.6 11.65 L11.45 13.75" fill="none" stroke="#ffffff" stroke-linecap="round" stroke-linejoin="round" stroke-opacity="0.5019608" stroke-width="0.75"/>
      <path d="M30.1 14.7 L34.1 12.9 36.95 17.5 33.55 23.15 30.1 14.7" fill="url(#gradient1)" fill-rule="evenodd" stroke="none"/>
      <path d="M18.5 18.7 L28.15 26.55 22.7 26.85 17.3 21.65 18.5 18.7" fill="url(#gradient2)" fill-rule="evenodd" stroke="none"/>
      <path d="M40.8 10.1 L39.25 12.55 Q37.5 14.9 33.55 16.8 L32.65 16.65 Q36.35 15.35 40.8 10.1 M31.65 16.35 L30.85 15.7 Q33.4 14.8 35.65 13.3 34.6 14.9 31.65 16.35 M30.35 14.2 Q30.3 13.55 30.6 12.75 L30.65 12.55 31.9 12.35 30.8 12.65 31.0 13.35 33.3 12.65 33.6 12.55 Q35.3 11.85 36.8 10.85 L37.55 10.3 36.35 11.5 Q33.7 13.7 30.35 14.2 M38.2 3.75 L37.65 3.25 Q39.3 3.2 40.65 4.3 41.9 5.4 41.9 6.4 40.75 8.9 40.15 6.15 L40.35 5.35 39.4 4.65 39.3 4.55 38.2 3.75 M37.45 9.25 Q39.75 6.85 39.3 4.55 L39.4 4.65 Q40.35 5.5 39.85 5.95 39.1 7.45 37.6 9.15 L37.45 9.25" fill="#6a5b4f" fill-rule="evenodd" stroke="none"/>
      <path d="M41.9 6.4 L41.4 8.75 40.95 9.9 40.8 10.1 Q36.35 15.35 32.65 16.65 L31.65 16.35 Q34.6 14.9 35.65 13.3 33.4 14.8 30.85 15.7 30.3 15.1 30.35 14.2 33.7 13.7 36.35 11.5 L37.55 10.3 39.2 8.25 Q39.7 7.7 40.05 6.4 L40.15 6.15 Q40.75 8.9 41.9 6.4 M30.65 12.55 L30.95 11.7 32.65 11.25 32.35 11.7 Q34.6 11.1 37.45 9.25 L37.6 9.15 37.35 9.5 36.1 10.3 35.0 11.0 Q33.35 11.95 32.05 12.3 L31.9 12.35 30.65 12.55" fill="#453b33" fill-rule="evenodd" stroke="none"/>
      <path d="M32.65 11.25 Q37.55 9.6 39.2 5.75 L39.05 4.7 38.2 3.75 39.3 4.55 39.4 4.65 39.3 4.55 Q39.75 6.85 37.45 9.25 34.6 11.1 32.35 11.7 L32.65 11.25" fill="#beafa7" fill-rule="evenodd" stroke="none"/>
      <path d="M40.15 6.15 L40.05 6.4 Q39.7 7.7 39.2 8.25 L37.55 10.3 36.8 10.85 37.8 9.5 36.1 10.3 37.35 9.5 37.6 9.15 Q39.1 7.45 39.85 5.95 40.35 5.5 39.4 4.65 L40.35 5.35 40.15 6.15" fill="#e2dad8" fill-rule="evenodd" stroke="none"/>
      <path d="M35.0 11.0 L36.1 10.3 37.8 9.5 36.8 10.85 Q35.3 11.85 33.6 12.55 L35.0 11.0" fill="#cfbab5" fill-rule="evenodd" stroke="none"/>
      <path d="M31.9 12.35 L32.05 12.3 Q33.35 11.95 35.0 11.0 L33.6 12.55 33.3 12.65 31.0 13.35 30.8 12.65 31.9 12.35" fill="#947e79" fill-rule="evenodd" stroke="none"/>
      <path d="M41.9 6.4 L41.4 8.75 40.95 9.9 M40.8 10.1 L39.25 12.55 Q37.5 14.9 33.55 16.8 L32.65 16.65 31.65 16.35 30.85 15.7 Q30.3 15.1 30.35 14.2 30.3 13.55 30.6 12.75 L30.65 12.55 30.95 11.7 32.65 11.25 Q37.55 9.6 39.2 5.75 L39.05 4.7 38.2 3.75 37.65 3.25 Q39.3 3.2 40.65 4.3 41.9 5.4 41.9 6.4 Z" fill="none" stroke="#000000" stroke-linecap="round" stroke-linejoin="round" stroke-opacity="0.3019608" stroke-width="0.4"/>
      <path d="M32.15 13.85 L32.75 13.75 Q39.05 12.1 40.0 6.9 40.2 5.3 39.3 5.4 36.25 9.9 30.8 11.5 30.2 12.8 32.15 13.85" fill="url(#gradient3)" fill-rule="evenodd" stroke="none"/>
      <path d="M6.35 40.95 L9.2 36.2 8.45 36.95 15.0 27.5 15.0 27.55 15.05 27.75 7.0 41.45 6.8 41.3 6.35 40.95" fill="#997846" fill-rule="evenodd" stroke="none"/>
      <path d="M13.6 25.55 L13.55 25.55 16.2 20.3 16.85 20.6 13.9 25.75 13.6 25.55 M3.7 41.7 Q2.75 40.65 2.75 39.15 L3.9 39.7 4.5 39.85 6.35 40.95 6.8 41.3 3.7 41.7" fill="#715833" fill-rule="evenodd" stroke="none"/>
      <path d="M16.2 20.3 L13.55 25.55 13.6 25.55 13.35 25.95 13.3 26.0 4.0 39.6 6.05 34.85 14.55 22.8 14.85 22.3 16.2 20.3 M17.8 24.45 L15.0 28.8 15.05 27.75 15.0 27.55 15.0 27.5 14.95 27.35 18.4 23.05 17.8 24.45" fill="#d1b58c" fill-rule="evenodd" stroke="none"/>
      <path d="M13.9 25.75 L16.85 20.6 16.2 20.3 16.8 19.4 Q19.45 18.45 19.7 21.55 L17.8 24.45 18.4 23.05 Q18.65 21.9 17.85 21.3 L14.85 26.95 14.95 27.35 15.0 27.5 8.45 36.95 7.4 37.95 14.85 26.9 9.5 33.75 14.15 25.95 14.05 25.85 13.9 25.75" fill="#574327" fill-rule="evenodd" stroke="none"/>
      <path d="M14.05 25.85 L14.15 25.95 9.5 33.75 14.85 26.9 7.4 37.95 8.45 36.95 9.2 36.2 6.35 40.95 4.5 39.85 14.05 25.85" fill="#7d6239" fill-rule="evenodd" stroke="none"/>
      <path d="M15.0 28.8 L7.6 41.85 Q5.55 42.6 3.8 41.85 L3.7 41.7 6.8 41.3 7.0 41.45 15.05 27.75 15.0 28.8" fill="#dcc2ab" fill-rule="evenodd" stroke="none"/>
      <path d="M14.95 27.35 L14.85 26.95 17.85 21.3 Q18.65 21.9 18.4 23.05 L14.95 27.35" fill="#614b2b" fill-rule="evenodd" stroke="none"/>
      <path d="M13.6 25.55 L13.9 25.75 14.05 25.85 4.5 39.85 3.9 39.7 2.75 39.15 6.05 34.85 4.0 39.6 13.3 26.0 13.35 25.95 13.6 25.55" fill="#e9d9c9" fill-rule="evenodd" stroke="none"/>
      <path d="M16.2 20.3 L16.8 19.4 Q19.45 18.45 19.7 21.55 L17.8 24.45 15.0 28.8 7.6 41.85 Q5.55 42.6 3.8 41.85 L3.7 41.7 Q2.75 40.65 2.75 39.15 L6.05 34.85 14.55 22.8 M14.85 22.3 L16.2 20.3 M4.5 39.85 L6.35 40.95 M7.0 41.45 L6.8 41.3 6.35 40.95 M2.75 39.15 L3.9 39.7 4.5 39.85" fill="none" stroke="#000000" stroke-linecap="round" stroke-linejoin="round" stroke-opacity="0.3019608" stroke-width="0.4"/>
      <path d="M12.45 29.2 Q11.7 34.8 5.75 38.9 L5.15 39.2 Q3.2 38.8 3.8 37.25 8.95 33.6 11.75 27.95 12.55 27.5 12.45 29.2" fill="url(#gradient4)" fill-rule="evenodd" stroke="none"/>
      <path d="M5.75 33.5 L6.05 33.5 8.5 33.45 Q9.95 33.9 10.6 35.35 11.4 36.55 11.05 37.5 L10.15 37.7 10.5 36.75 Q9.2 33.45 6.35 34.15 L6.15 34.15 5.75 33.5" fill="#873c24" fill-rule="evenodd" stroke="none"/>
      <path d="M11.05 37.5 Q11.4 36.55 10.6 35.35 9.95 33.9 8.5 33.45 L6.05 33.5 5.75 33.5 5.7 33.4 6.15 33.0 9.55 33.35 9.95 33.35 10.25 33.55 11.4 36.55 11.25 37.45 11.05 37.5 M11.95 32.55 L12.45 34.45 12.4 34.55 Q12.3 33.35 11.05 32.2 L10.05 32.2 10.8 33.1 8.7 32.45 7.75 31.8 10.05 31.75 10.55 31.75 11.95 32.55" fill="#c85a35" fill-rule="evenodd" stroke="none"/>
      <path d="M9.95 33.35 L9.55 33.35 6.15 33.0 6.85 32.45 7.8 30.7 9.2 30.45 Q11.15 30.9 11.95 32.55 L10.55 31.75 10.05 31.75 7.75 31.8 8.7 32.45 8.2 32.25 9.95 33.35" fill="#e0836d" fill-rule="evenodd" stroke="none"/>
      <path d="M11.4 36.55 L10.25 33.55 9.95 33.35 8.2 32.25 8.7 32.45 10.8 33.1 10.05 32.2 11.05 32.2 Q12.3 33.35 12.4 34.55 L11.7 35.25 11.4 36.55" fill="#964328" fill-rule="evenodd" stroke="none"/>
      <path d="M11.05 37.5 L11.25 37.45 11.4 36.55 M6.15 33.0 L5.7 33.4 5.75 33.5 6.15 34.15 6.35 34.15 Q9.2 33.45 10.5 36.75 L10.15 37.7 11.05 37.5 M6.15 33.0 L6.85 32.45 7.8 30.7 9.2 30.45 Q11.15 30.9 11.95 32.55 L12.45 34.45 12.4 34.55 11.7 35.25 11.4 36.55" fill="none" stroke="#000000" stroke-linecap="round" stroke-linejoin="round" stroke-opacity="0.3019608" stroke-width="0.4"/>
      <path d="M18.75 4.1 L24.1 5.0 26.6 10.35 Q28.75 14.35 30.05 16.15 29.15 17.65 27.55 18.85 23.0 22.65 16.25 22.8 11.5 22.95 7.65 21.3 8.4 16.1 8.4 13.45 L8.2 9.2 7.85 5.45 7.85 3.35 11.6 3.3 17.25 3.6 18.75 4.1" fill="url(#gradient5)" fill-rule="evenodd" stroke="none"/>
    </g>
    <radialGradient cx="0" cy="0" gradientTransform="matrix(4.0E-4, 0.0051, -0.0047, 4.0E-4, 9.6, 13.2)" gradientUnits="userSpaceOnUse" id="gradient0" r="819.2" spreadMethod="pad">
      <stop offset="0.0" stop-color="#ffffff" stop-opacity="0.4117647"/>
      <stop offset="1.0" stop-color="#ffffff" stop-opacity="0.0"/>
    </radialGradient>
    <linearGradient gradientTransform="matrix(0.0019, 0.0076, 0.0034, -0.0049, 33.75, 21.95)" gradientUnits="userSpaceOnUse" id="gradient1" spreadMethod="pad" x1="-819.2" x2="819.2">
      <stop offset="0.0" stop-color="#000000" stop-opacity="0.56078434"/>
      <stop offset="0.9490196078431372" stop-color="#000000" stop-opacity="0.0"/>
      <stop offset="0.9803921568627451" stop-color="#000000" stop-opacity="0.0"/>
    </linearGradient>
    <linearGradient gradientTransform="matrix(0.0066, 0.0, 0.0, 0.005, 22.7, 22.75)" gradientUnits="userSpaceOnUse" id="gradient2" spreadMethod="pad" x1="-819.2" x2="819.2">
      <stop offset="0.0" stop-color="#000000" stop-opacity="0.38039216"/>
      <stop offset="0.9490196078431372" stop-color="#000000" stop-opacity="0.0"/>
      <stop offset="0.9803921568627451" stop-color="#000000" stop-opacity="0.0"/>
    </linearGradient>
    <radialGradient cx="0" cy="0" gradientTransform="matrix(0.0021, 0.0046, 0.0043, -0.0022, 36.45, 10.5)" gradientUnits="userSpaceOnUse" id="gradient3" r="819.2" spreadMethod="pad">
      <stop offset="0.0" stop-color="#ffffff" stop-opacity="0.4117647"/>
      <stop offset="1.0" stop-color="#ffffff" stop-opacity="0.0"/>
    </radialGradient>
    <radialGradient cx="0" cy="0" gradientTransform="matrix(0.0021, 0.0039, 0.004, -0.0038, 9.15, 34.1)" gradientUnits="userSpaceOnUse" id="gradient4" r="819.2" spreadMethod="pad">
      <stop offset="0.0" stop-color="#ffffff" stop-opacity="0.15294118"/>
      <stop offset="1.0" stop-color="#ffffff" stop-opacity="0.0"/>
    </radialGradient>
    <radialGradient cx="0" cy="0" gradientTransform="matrix(0.0257, -6.0E-4, 0.0015, 0.0199, 15.4, 10.35)" gradientUnits="userSpaceOnUse" id="gradient5" r="819.2" spreadMethod="pad">
      <stop offset="0.0" stop-color="#ffffde" stop-opacity="0.43137255"/>
      <stop offset="0.4117647058823529" stop-color="#ffffcc" stop-opacity="0.0"/>
    </radialGradient>
  </defs>
</svg>
