<?xml version="1.0" encoding="UTF-8" standalone="no"?>
<svg xmlns:xlink="http://www.w3.org/1999/xlink" height="440.0px" width="440.0px" xmlns="http://www.w3.org/2000/svg">
  <g transform="matrix(10.0, 0.0, 0.0, 10.0, 0.0, 0.0)">
    <use height="44.0" transform="matrix(1.0, 0.0, 0.0, 1.0, 0.0, 0.0)" width="44.0" xlink:href="#shape0"/>
  </g>
  <defs>
    <g id="shape0" transform="matrix(1.0, 0.0, 0.0, 1.0, 0.0, 0.0)">
      <path d="M44.0 44.0 L0.0 44.0 0.0 0.0 44.0 0.0 44.0 44.0" fill="#33cc33" fill-opacity="0.0" fill-rule="evenodd" stroke="none"/>
      <path d="M26.95 7.75 L26.15 7.75 23.3 4.3 26.0 6.75 26.95 7.75 M28.9 10.65 L29.05 10.3 Q34.85 12.95 33.25 14.7 L32.7 15.15 Q31.7 12.85 28.9 10.65 M29.4 18.6 L30.5 17.15 Q32.25 15.85 34.75 15.0 L36.2 15.7 35.95 17.3 37.85 14.55 38.5 14.95 39.35 17.5 38.0 20.1 37.25 21.1 36.5 21.85 36.25 22.1 36.9 21.85 Q39.0 21.2 40.1 22.05 L40.35 22.2 40.45 22.3 40.7 22.65 Q41.2 23.55 40.85 25.05 L39.15 23.05 38.85 23.15 38.75 22.8 34.8 22.8 34.95 22.6 34.35 20.45 34.05 19.2 34.45 20.35 35.3 22.4 35.75 22.3 Q34.7 21.5 35.1 19.95 L35.75 19.5 35.3 20.45 37.55 20.35 38.75 17.4 37.7 15.55 36.0 19.0 35.65 18.35 35.1 16.1 33.0 16.4 33.1 16.2 32.85 16.45 Q30.25 18.75 28.9 21.4 L28.05 23.6 27.95 23.3 Q27.75 22.35 28.2 21.0 L28.25 20.9 28.35 20.5 28.65 19.85 Q28.9 19.3 29.3 18.8 L29.4 18.6 M30.9 24.15 L31.5 23.05 32.7 23.45 32.75 23.45 33.05 23.55 32.2 27.2 32.5 27.2 30.0 28.95 29.65 28.95 29.75 28.65 Q30.55 26.65 32.45 24.75 L32.6 24.55 32.35 24.65 32.0 24.8 30.9 25.05 30.9 24.15 M39.7 27.75 L39.2 28.6 37.8 30.15 37.55 30.4 37.0 30.9 35.65 30.45 34.8 28.15 30.8 33.25 30.5 33.15 34.35 26.85 36.3 26.5 36.7 24.8 36.7 25.5 37.05 26.1 36.3 27.15 35.05 27.05 35.75 29.65 37.15 30.2 38.85 28.2 38.55 27.9 38.9 27.55 39.7 27.75" fill="#7e5e45" fill-rule="evenodd" stroke="none"/>
      <path d="M26.15 7.75 L24.7 7.9 24.65 7.9 21.8 4.5 21.7 4.3 21.6 4.2 21.55 4.15 21.6 4.15 22.3 3.7 22.35 3.65 23.65 3.05 24.05 2.95 27.0 5.9 Q31.15 10.25 23.25 3.95 L26.0 6.75 23.3 4.3 26.15 7.75 M38.0 20.1 L40.1 22.05 Q39.0 21.2 36.9 21.85 L36.25 22.1 36.5 21.85 37.25 21.1 38.0 20.1 M29.3 18.8 Q28.9 19.3 28.65 19.85 L25.2 16.05 29.3 18.8 M22.3 3.7 L21.7 4.3 22.3 3.7" fill="#b49276" fill-rule="evenodd" stroke="none"/>
      <path d="M28.9 18.2 L29.4 18.6 29.3 18.8 25.2 16.05 28.65 19.85 28.35 20.5 18.6 12.95 21.6 16.05 23.55 18.05 21.85 17.3 20.95 16.9 26.0 21.95 25.1 21.1 18.5 15.2 17.4 14.2 17.5 11.5 27.3 19.35 20.85 12.15 28.9 18.2 M23.65 27.25 L17.5 21.85 17.25 21.7 16.8 21.1 17.0 19.4 20.95 21.7 23.3 24.4 Q22.9 25.95 23.65 27.25 M29.4 17.55 L18.65 9.0 28.3 16.05 29.4 17.55" fill="#ceb8a6" fill-rule="evenodd" stroke="none"/>
      <path d="M29.2 7.9 L30.65 8.15 30.05 8.8 29.05 10.3 28.9 10.65 Q28.6 11.3 28.45 12.05 L24.7 7.9 26.15 7.75 26.95 7.75 29.2 7.9 M28.25 13.4 L28.2 13.5 28.2 14.35 21.6 8.7 21.85 8.6 22.4 8.4 28.25 13.4" fill="#6c523c" fill-rule="evenodd" stroke="none"/>
      <path d="M33.0 16.4 L32.8 16.8 32.65 17.2 32.6 17.3 Q30.9 21.1 30.9 24.15 L30.9 25.05 Q29.4 25.25 28.55 24.45 L28.15 23.9 28.05 23.6 28.9 21.4 Q30.25 18.75 32.85 16.45 L33.1 16.2 33.0 16.4 M33.05 23.55 L33.9 23.8 34.35 23.3 33.95 24.15 36.7 24.7 36.7 24.8 36.3 26.5 34.35 26.85 35.5 25.0 32.5 27.2 32.2 27.2 33.05 23.55" fill="#5c4432" fill-rule="evenodd" stroke="none"/>
      <path d="M36.0 19.0 L37.7 15.55 38.75 17.4 37.55 20.35 35.3 20.45 35.75 19.5 36.0 19.0 M34.35 23.3 L34.65 23.0 38.95 23.4 39.2 24.2 37.1 24.8 36.75 24.7 36.7 24.7 33.95 24.15 34.35 23.3" fill="#73553f" fill-rule="evenodd" stroke="none"/>
      <path d="M32.95 17.65 L33.2 17.05 33.25 17.05 34.7 16.65 35.65 18.35 36.0 19.0 35.75 19.5 35.1 19.95 34.45 20.35 34.05 19.2 34.35 20.45 33.6 20.9 33.35 19.75 32.95 17.65 M37.0 30.9 Q35.2 32.45 33.25 33.1 L30.8 33.25 34.8 28.15 35.65 30.45 37.0 30.9 M37.95 27.25 L38.9 27.55 38.55 27.9 37.95 27.25" fill="#6e5d3c" fill-rule="evenodd" stroke="none"/>
      <path d="M40.85 25.05 L40.7 25.65 39.7 27.75 38.9 27.55 37.95 27.25 37.65 27.2 37.05 26.1 36.7 25.5 36.7 24.8 36.7 24.7 36.75 24.7 37.1 24.8 39.2 24.2 38.95 23.4 38.85 23.15 39.15 23.05 40.85 25.05" fill="#8a694b" fill-rule="evenodd" stroke="none"/>
      <path d="M30.5 33.15 L29.85 32.7 Q29.2 32.1 29.2 31.05 L29.45 29.4 29.5 29.3 29.65 28.95 30.0 28.95 32.5 27.2 35.5 25.0 34.35 26.85 30.5 33.15" fill="#70483c" fill-rule="evenodd" stroke="none"/>
      <path d="M31.5 23.05 Q31.8 20.9 32.5 18.85 L32.95 17.65 33.35 19.75 32.7 23.45 31.5 23.05 M33.2 17.05 L33.25 17.0 33.25 17.05 33.2 17.05" fill="#695338" fill-rule="evenodd" stroke="none"/>
      <path d="M34.8 13.95 L35.6 13.6 36.6 13.35 38.4 13.5 39.05 13.95 Q40.15 15.05 39.35 17.4 L39.35 17.5 38.5 14.95 37.85 14.55 35.95 17.3 36.2 15.7 34.75 15.0 Q32.25 15.85 30.5 17.15 L31.1 16.5 32.7 15.15 33.25 14.7 Q34.05 14.25 34.8 13.95 M30.9 24.15 Q30.9 21.1 32.6 17.3 L32.65 17.2 32.8 16.8 33.0 16.4 35.1 16.1 35.65 18.35 34.7 16.65 33.25 17.05 33.25 17.0 33.2 17.05 32.95 17.65 32.5 18.85 Q31.8 20.9 31.5 23.05 L30.9 24.15" fill="#997055" fill-rule="evenodd" stroke="none"/>
      <path d="M34.35 20.45 L34.95 22.6 34.8 22.8 34.65 23.0 34.35 23.3 33.9 23.8 33.05 23.55 32.75 23.45 32.7 23.45 33.35 19.75 33.6 20.9 34.35 20.45" fill="#785e3f" fill-rule="evenodd" stroke="none"/>
      <path d="M37.95 27.25 L38.55 27.9 38.85 28.2 37.15 30.2 35.75 29.65 35.05 27.05 36.3 27.15 37.95 27.25" fill="#8f6a4e" fill-rule="evenodd" stroke="none"/>
      <path d="M35.1 19.95 Q34.7 21.5 35.75 22.3 L35.3 22.4 34.45 20.35 35.1 19.95" fill="#9c8963" fill-rule="evenodd" stroke="none"/>
      <path d="M34.8 22.8 L38.75 22.8 38.85 23.15 38.95 23.4 34.65 23.0 34.8 22.8" fill="#b38e77" fill-rule="evenodd" stroke="none"/>
      <path d="M37.05 26.1 L37.65 27.2 37.95 27.25 36.3 27.15 37.05 26.1" fill="#5e4633" fill-rule="evenodd" stroke="none"/>
      <path d="M18.3 9.2 L28.9 18.2 20.85 12.15 27.3 19.35 17.5 11.5 16.9 11.0 17.1 9.75 17.6 8.6 18.3 9.2" fill="#e0d1c9" fill-rule="evenodd" stroke="none"/>
      <path d="M36.6 13.35 L27.65 5.05 25.1 2.65 Q25.85 2.45 26.1 2.65 L38.4 13.5 36.6 13.35 M28.05 23.6 L28.15 23.9 26.45 22.35 26.0 21.95 20.95 16.9 21.85 17.3 27.95 23.3 28.05 23.6 M28.35 20.5 L28.25 20.9 21.6 16.05 18.6 12.95 28.35 20.5" fill="#ba9d87" fill-rule="evenodd" stroke="none"/>
      <path d="M28.25 20.9 L28.2 21.0 Q27.75 22.35 27.95 23.3 L21.85 17.3 23.55 18.05 21.6 16.05 28.25 20.9" fill="#a8876e" fill-rule="evenodd" stroke="none"/>
      <path d="M29.2 7.9 L26.95 7.75 26.0 6.75 23.25 3.95 Q31.15 10.25 27.0 5.9 L24.05 2.95 25.1 2.65 27.65 5.05 25.85 4.2 29.2 7.9 M29.05 10.3 L30.05 8.8 Q35.7 11.75 34.8 13.95 34.05 14.25 33.25 14.7 34.85 12.95 29.05 10.3" fill="#967962" fill-rule="evenodd" stroke="none"/>
      <path d="M30.05 8.8 L30.65 8.15 29.2 7.9 25.85 4.2 27.65 5.05 36.6 13.35 35.6 13.6 34.8 13.95 Q35.7 11.75 30.05 8.8" fill="#8a6b54" fill-rule="evenodd" stroke="none"/>
      <path d="M28.45 12.05 L30.75 15.5 28.25 13.4 28.45 12.05 M21.6 4.2 L21.7 4.3 21.8 4.5 24.65 7.9 22.4 8.4 20.0 6.4 20.3 6.4 21.6 4.2" fill="#cfa788" fill-rule="evenodd" stroke="none"/>
      <path d="M24.7 7.9 L28.45 12.05 28.25 13.4 22.4 8.4 24.65 7.9 24.7 7.9" fill="#806147" fill-rule="evenodd" stroke="none"/>
      <path d="M17.9 16.1 L18.5 15.2 25.1 21.1 24.15 22.4 18.75 16.95 17.9 16.1 M20.95 21.7 L19.95 20.6 23.45 23.85 23.3 24.4 20.95 21.7" fill="#99785e" fill-rule="evenodd" stroke="none"/>
      <path d="M29.45 29.4 L29.2 31.05 Q28.85 27.95 23.3 24.4 L23.45 23.85 29.45 29.4" fill="#8c6d56" fill-rule="evenodd" stroke="none"/>
      <path d="M19.6 6.9 Q18.45 8.2 18.3 9.2 L17.6 8.6 Q18.35 7.3 19.75 5.85 L20.3 5.25 21.55 4.15 21.6 4.2 20.3 6.4 20.0 6.4 19.6 6.9 M16.8 21.1 Q16.45 20.35 16.65 19.2 L16.85 18.25 Q17.2 17.15 17.9 16.1 L18.75 16.95 Q17.4 17.7 17.0 19.4 L16.8 21.1 M17.4 14.2 L17.25 14.05 Q17.0 13.8 16.9 12.4 L16.9 11.0 17.5 11.5 17.4 14.2" fill="#ede3de" fill-rule="evenodd" stroke="none"/>
      <path d="M22.4 8.4 L21.85 8.6 19.6 6.9 20.0 6.4 22.4 8.4" fill="#5e4b3d" fill-rule="evenodd" stroke="none"/>
      <path d="M29.85 32.7 L23.65 27.25 Q22.9 25.95 23.3 24.4 28.85 27.95 29.2 31.05 29.2 32.1 29.85 32.7" fill="#a1826a" fill-rule="evenodd" stroke="none"/>
      <path d="M28.15 23.9 L28.55 24.45 Q29.4 25.25 30.9 25.05 L32.0 24.8 32.35 24.65 32.45 24.75 Q30.55 26.65 29.75 28.65 L24.15 22.4 25.1 21.1 26.0 21.95 26.45 22.35 28.15 23.9" fill="#664c3b" fill-rule="evenodd" stroke="none"/>
      <path d="M18.75 16.95 L24.15 22.4 23.45 23.85 19.95 20.6 20.95 21.7 17.0 19.4 Q17.4 17.7 18.75 16.95" fill="#c2a58f" fill-rule="evenodd" stroke="none"/>
      <path d="M28.45 12.05 Q28.6 11.3 28.9 10.65 31.7 12.85 32.7 15.15 L31.1 16.5 30.5 17.15 29.4 18.6 28.9 18.2 18.3 9.2 Q18.45 8.2 19.6 6.9 L21.85 8.6 21.6 8.7 28.2 14.35 28.2 13.5 28.25 13.4 30.75 15.5 28.45 12.05 M29.4 17.55 L28.3 16.05 18.65 9.0 29.4 17.55" fill="#b5a077" fill-rule="evenodd" stroke="none"/>
      <path d="M29.75 28.65 L29.65 28.95 29.5 29.3 29.45 29.4 23.45 23.85 24.15 22.4 29.75 28.65" fill="#b59d77" fill-rule="evenodd" stroke="none"/>
      <path d="M25.1 21.1 L24.15 22.4 M23.45 23.85 L24.15 22.4 M23.45 23.85 L23.3 24.4 M23.65 27.25 Q22.9 25.95 23.3 24.4" fill="none" stroke="#865b17" stroke-linecap="round" stroke-linejoin="round" stroke-width="0.05"/>
      <path d="M30.05 8.8 L30.65 8.15 29.2 7.9 26.95 7.75 26.15 7.75 24.7 7.9 24.65 7.9 22.4 8.4 21.85 8.6 21.6 8.7 28.2 14.35 28.2 13.5 28.25 13.4 28.45 12.05 Q28.6 11.3 28.9 10.65 L29.05 10.3 30.05 8.8" fill="none" stroke="#ceb8a6" stroke-linecap="round" stroke-linejoin="round" stroke-width="0.05"/>
      <path d="M39.35 17.5 L39.35 17.4 Q40.15 15.05 39.05 13.95 L38.4 13.5 26.1 2.65 Q25.85 2.45 25.1 2.65 M39.35 17.5 L38.0 20.1 40.1 22.05 40.35 22.2 40.45 22.3 40.7 22.65 Q41.2 23.55 40.85 25.05 L40.7 25.65 39.7 27.75 39.2 28.6 37.8 30.15 37.55 30.4 37.0 30.9 Q35.2 32.45 33.25 33.1 L30.8 33.25 30.5 33.15 29.85 32.7 23.65 27.25 17.5 21.85 17.25 21.7 16.8 21.1 Q16.45 20.35 16.65 19.2 L16.85 18.25 Q17.2 17.15 17.9 16.1 L18.5 15.2 17.4 14.2 17.25 14.05 Q17.0 13.8 16.9 12.4 L16.9 11.0 17.1 9.75 17.6 8.6 Q18.35 7.3 19.75 5.85 L20.3 5.25 21.55 4.15 21.6 4.15 22.3 3.7 22.35 3.65 23.65 3.05 24.05 2.95 25.1 2.65 M32.35 24.65 L32.6 24.55 32.45 24.75" fill="none" stroke="#000000" stroke-linecap="round" stroke-linejoin="round" stroke-opacity="0.4" stroke-width="0.4"/>
      <path d="M38.0 20.1 L37.25 21.1 36.5 21.85 36.25 22.1 36.9 21.85 Q39.0 21.2 40.1 22.05 M32.35 24.65 L32.0 24.8 30.9 25.05 M26.0 21.95 L25.1 21.1 18.5 15.2 M28.15 23.9 L26.45 22.35" fill="none" stroke="#000000" stroke-linecap="round" stroke-linejoin="round" stroke-opacity="0.2" stroke-width="0.4"/>
      <path d="M34.8 13.95 L35.6 13.6 36.6 13.35 M29.4 18.6 L30.5 17.15 31.1 16.5 32.7 15.15 M33.25 14.7 L32.7 15.15 M38.4 13.5 L36.6 13.35 M34.8 13.95 Q34.05 14.25 33.25 14.7 M28.25 20.9 L28.2 21.0 Q27.75 22.35 27.95 23.3 L28.05 23.6 M28.35 20.5 L28.25 20.9 M28.65 19.85 L28.35 20.5 M29.3 18.8 Q28.9 19.3 28.65 19.85 M29.3 18.8 L29.4 18.6 M29.75 28.65 L29.65 28.95 M29.2 31.05 Q29.2 32.1 29.85 32.7" fill="none" stroke="#ffffff" stroke-linecap="round" stroke-linejoin="round" stroke-opacity="0.4" stroke-width="0.6000000000000001"/>
      <path d="M33.0 16.4 L32.8 16.8 32.65 17.2 32.6 17.3 Q30.9 21.1 30.9 24.15 M31.5 23.05 Q31.8 20.9 32.5 18.85 L32.95 17.65 33.2 17.05 M33.25 17.05 L34.7 16.65 35.65 18.35 M33.0 16.4 L33.1 16.2 32.85 16.45 Q30.25 18.75 28.9 21.4 L28.05 23.6 28.15 23.9 28.55 24.45 Q29.4 25.25 30.9 25.05 L30.9 24.15 M33.25 17.05 L33.2 17.05 M36.0 19.0 L35.75 19.5 35.1 19.95 M34.45 20.35 L34.05 19.2 34.35 20.45 M36.0 19.0 L35.65 18.35 M34.45 20.35 L35.1 19.95 M34.35 23.3 L34.65 23.0 38.95 23.4 39.2 24.2 37.1 24.8 36.75 24.7 36.7 24.7 33.95 24.15 34.35 23.3 M32.95 17.65 L33.35 19.75 33.6 20.9 34.35 20.45 M32.5 27.2 L35.5 25.0 34.35 26.85 36.3 26.5 36.7 24.8 M32.7 23.45 L31.5 23.05 M33.35 19.75 L32.7 23.45 M38.55 27.9 L38.85 28.2 37.15 30.2 35.75 29.65 35.05 27.05 36.3 27.15 M34.35 26.85 L30.5 33.15" fill="none" stroke="#000000" stroke-linecap="round" stroke-linejoin="round" stroke-opacity="0.101960786" stroke-width="0.05"/>
      <path d="M21.7 4.3 L22.3 3.7" fill="none" stroke="#ff0000" stroke-linecap="round" stroke-linejoin="round" stroke-width="0.05"/>
      <path d="M39.25 14.7 Q40.2 18.15 36.3 22.15 39.75 20.95 40.8 22.95 L40.8 24.35 Q40.65 26.95 38.5 29.55 L37.25 30.8 Q32.1 34.7 29.75 32.85 27.4 30.15 32.5 24.75 29.2 25.9 28.1 24.2 L28.05 23.75 Q27.55 19.4 32.6 15.25 L32.75 15.1 Q37.35 12.25 39.15 14.4 L39.25 14.7" fill="#000000" fill-opacity="0.2" fill-rule="evenodd" stroke="none"/>
      <path d="M17.65 11.05 L18.1 11.85 Q23.4 19.4 30.3 18.2 32.35 17.7 31.8 16.6 24.7 14.65 19.95 8.2 18.05 7.9 17.65 11.05" fill="url(#gradient0)" fill-rule="evenodd" stroke="none"/>
      <path d="M25.8 21.0 L25.9 21.2 18.3 29.15 18.3 29.25 17.95 30.3 19.55 28.8 26.4 21.55 25.6 20.7 25.8 21.0 M25.15 20.4 L25.3 20.45 24.3 19.95 23.75 19.85 23.45 20.15 22.8 20.65 22.7 20.7 21.85 21.4 21.8 21.45 21.15 22.0 17.95 24.6 23.85 20.3 23.95 20.15 25.15 20.4" fill="#73513a" fill-rule="evenodd" stroke="none"/>
      <path d="M23.1 19.75 L22.55 19.7 22.45 19.65 22.3 19.8 21.25 20.65 20.25 21.4 15.6 25.1 12.1 28.15 11.8 28.5 Q8.15 32.1 7.35 31.85 L6.85 32.35 7.0 33.4 23.1 19.75" fill="#c7a389" fill-rule="evenodd" stroke="none"/>
      <path d="M23.75 19.85 L23.1 19.75 7.0 33.4 7.0 33.55 7.1 34.05 7.35 34.45 Q7.85 33.3 12.55 29.15 L17.4 25.1 17.95 24.6 21.15 22.0 21.8 21.45 21.85 21.4 22.7 20.7 22.8 20.65 23.45 20.15 23.75 19.85" fill="#ecd7ce" fill-rule="evenodd" stroke="none"/>
      <path d="M18.15 28.5 L15.95 31.65 16.35 31.2 18.3 29.25 18.3 29.15 25.9 21.2 25.8 21.0 18.65 28.0 18.15 28.5 M10.35 35.8 L10.7 35.4 10.8 35.25 Q13.3 32.2 16.45 29.15 L18.05 27.65 20.35 25.1 22.4 23.0 23.35 22.1 23.45 22.0 23.95 21.5 24.05 21.4 24.6 20.9 24.8 20.7 24.9 20.65 25.15 20.4 23.95 20.15 23.85 20.3 23.6 21.3 23.55 21.4 23.4 21.5 23.35 21.55 22.85 22.0 21.8 23.0 19.55 25.1 17.75 26.8 15.4 29.15 13.55 31.15 11.9 33.0 Q10.4 34.8 10.4 35.55 L10.35 35.8" fill="#664834" fill-rule="evenodd" stroke="none"/>
      <path d="M10.8 35.25 L15.65 31.1 18.15 28.5 18.65 28.0 25.6 20.7 25.55 20.65 25.5 20.65 25.4 20.65 25.4 20.55 25.3 20.45 25.15 20.4 24.9 20.65 24.8 20.7 24.6 20.9 24.05 21.4 23.95 21.5 23.45 22.0 23.35 22.1 22.4 23.0 20.35 25.1 18.05 27.65 16.45 29.15 Q13.3 32.2 10.8 35.25" fill="#a17252" fill-rule="evenodd" stroke="none"/>
      <path d="M16.35 31.2 L15.95 31.65 18.15 28.5 15.65 31.1 10.8 35.25 10.7 35.4 10.35 35.8 10.35 35.9 10.1 36.65 10.45 36.85 Q12.65 36.9 13.4 35.35 L15.15 32.95 16.35 31.2 M18.65 28.0 L25.8 21.0 25.6 20.7 18.65 28.0" fill="#94694b" fill-rule="evenodd" stroke="none"/>
      <path d="M10.1 36.65 L10.35 35.9 10.35 35.8 10.4 35.55 Q10.4 34.8 11.9 33.0 L13.55 31.15 15.4 29.15 17.75 26.8 19.55 25.1 21.8 23.0 22.85 22.0 23.35 21.55 23.4 21.5 23.55 21.4 23.6 21.3 23.85 20.3 17.95 24.6 17.4 25.1 12.55 29.15 Q7.85 33.3 7.35 34.45 L7.95 34.7 Q9.55 33.7 11.3 31.8 L11.35 31.75 11.4 31.7 11.45 31.6 11.35 31.75 11.45 31.6 11.6 31.5 13.0 30.05 9.3 36.15 9.45 36.25 10.1 36.65 M14.25 29.75 L13.85 29.9 13.95 28.8 20.35 22.85 17.9 26.65 14.25 29.75" fill="#a1704b" fill-rule="evenodd" stroke="none"/>
      <path d="M16.35 31.2 L15.15 32.95 14.15 35.55 Q13.8 36.9 12.8 37.25 L13.55 37.25 Q14.15 37.05 14.6 35.5 15.0 33.9 17.45 31.6 L26.75 22.65 26.75 22.5 26.75 22.4 19.55 28.8 17.95 30.3 18.3 29.25 16.35 31.2" fill="#855f43" fill-rule="evenodd" stroke="none"/>
      <path d="M13.55 37.25 L13.95 37.2 Q14.6 37.0 14.85 36.05 15.05 35.05 16.6 33.25 17.9 31.6 20.35 29.15 L21.0 28.5 25.35 24.35 26.3 23.4 26.75 23.0 26.8 22.95 26.75 22.65 17.45 31.6 Q15.0 33.9 14.6 35.5 14.15 37.05 13.55 37.25" fill="#d4966c" fill-rule="evenodd" stroke="none"/>
      <path d="M26.4 21.55 L19.55 28.8 26.75 22.4 26.4 21.55" fill="#593e2d" fill-rule="evenodd" stroke="none"/>
      <path d="M14.25 29.75 L17.9 26.65 20.35 22.85 13.95 28.8 13.85 29.9 14.25 29.75" fill="#b07a52" fill-rule="evenodd" stroke="none"/>
      <path d="M8.75 34.85 L8.75 34.9 Q8.85 35.75 9.3 36.15 L13.0 30.05 11.6 31.5 11.45 31.6 11.4 31.7 11.35 31.75 11.3 31.8 Q9.55 33.7 7.95 34.7 L8.75 34.85 M8.75 34.9 L11.3 31.8 8.75 34.9" fill="#633b2e" fill-rule="evenodd" stroke="none"/>
      <path d="M15.15 32.95 L13.4 35.35 Q12.65 36.9 10.45 36.85 L12.05 37.2 12.8 37.25 Q13.8 36.9 14.15 35.55 L15.15 32.95" fill="#573d2c" fill-rule="evenodd" stroke="none"/>
      <path d="M10.45 36.85 L10.1 36.65 M26.8 22.95 L26.75 23.0 26.3 23.4 25.35 24.35 21.0 28.5 20.35 29.15 Q17.9 31.6 16.6 33.25 15.05 35.05 14.85 36.05 14.6 37.0 13.95 37.2 L13.55 37.25 M22.45 19.65 L22.3 19.8 21.25 20.65 20.25 21.4 15.6 25.1 12.1 28.15 11.8 28.5 Q8.15 32.1 7.35 31.85 L6.85 32.35 7.0 33.4 M7.0 33.55 L7.1 34.05 7.35 34.45 Q7.1 34.7 8.75 34.85 L8.75 34.9 Q8.85 35.75 9.3 36.15 L9.45 36.25 10.1 36.65 M7.35 34.45 L7.95 34.7 8.75 34.85 M10.45 36.85 L12.05 37.2 12.8 37.25 13.55 37.25" fill="none" stroke="#000000" stroke-linecap="round" stroke-linejoin="round" stroke-opacity="0.3019608" stroke-width="0.4"/>
      <path d="M11.45 31.6 L11.4 31.7 11.35 31.75 11.45 31.6 11.6 31.5 M11.35 31.75 L11.3 31.8 Q9.55 33.7 7.95 34.7 M11.3 31.8 L8.75 34.9" fill="none" stroke="#000000" stroke-linecap="round" stroke-linejoin="round" stroke-opacity="0.2" stroke-width="0.4"/>
      <path d="M7.25 34.2 L6.85 34.0 6.75 33.95 7.45 33.95 Q10.3 34.0 11.75 37.15 L11.85 37.3 Q11.2 33.45 7.6 33.25 8.75 32.4 11.8 33.25 12.6 35.55 11.9 37.5 11.0 36.55 7.25 34.2" fill="#6b5b3c" fill-rule="evenodd" stroke="none"/>
      <path d="M6.15 37.45 Q5.25 35.2 6.5 34.6 L7.25 34.2 Q11.0 36.55 11.9 37.5 12.6 35.55 11.8 33.25 L11.5 32.6 12.15 33.15 12.25 33.2 Q13.55 34.5 13.75 36.2 13.85 37.9 12.75 39.0 11.65 40.1 10.0 39.95 8.3 39.8 6.95 38.5 L6.15 37.45 M6.85 34.0 Q5.85 34.05 7.6 33.25 11.2 33.45 11.85 37.3 L11.75 37.15 Q10.3 34.0 7.45 33.95 L6.75 33.95 6.85 34.0" fill="#453a26" fill-rule="evenodd" stroke="none"/>
      <path d="M6.15 37.45 Q5.6 36.55 5.55 35.45 5.35 33.75 6.45 32.65 7.55 31.6 9.3 31.75 10.5 31.85 11.5 32.6 L11.8 33.25 Q8.75 32.4 7.6 33.25 5.85 34.05 6.85 34.0 L7.25 34.2 6.5 34.6 Q5.25 35.2 6.15 37.45" fill="#c7bf97" fill-rule="evenodd" stroke="none"/>
      <path d="M11.5 32.6 Q10.5 31.85 9.3 31.75 7.55 31.6 6.45 32.65 5.35 33.75 5.55 35.45 5.6 36.55 6.15 37.45 M11.5 32.6 L12.15 33.15 12.25 33.2 Q13.55 34.5 13.75 36.2 13.85 37.9 12.75 39.0 11.65 40.1 10.0 39.95 8.3 39.8 6.95 38.5 L6.15 37.45" fill="none" stroke="#000000" stroke-linecap="round" stroke-linejoin="round" stroke-opacity="0.4" stroke-width="0.4"/>
      <path d="M12.15 35.0 L11.9 34.65 Q8.95 31.85 6.1 33.3 5.3 33.85 5.65 34.25 8.85 34.25 11.45 36.65 12.3 36.55 12.15 35.0" fill="url(#gradient1)" fill-rule="evenodd" stroke="none"/>
      <path d="M9.25 35.85 Q9.9 37.6 9.35 39.1 8.65 38.35 5.85 36.55 L5.5 36.45 5.4 36.4 5.95 36.4 Q8.15 36.45 9.2 38.8 L9.3 38.95 Q8.8 36.0 6.1 35.85 6.95 35.2 9.25 35.85" fill="#6b5b3c" fill-rule="evenodd" stroke="none"/>
      <path d="M9.25 35.85 L9.05 35.35 9.55 35.8 9.6 35.8 Q10.6 36.8 10.75 38.1 10.8 39.4 10.0 40.25 9.15 41.0 7.9 40.95 6.6 40.8 5.6 39.85 L5.0 39.05 4.8 38.35 Q4.9 38.9 5.65 39.55 6.6 40.4 7.5 40.4 8.1 40.4 8.25 40.1 L8.3 39.6 Q8.3 38.85 7.95 38.3 L7.45 37.75 6.7 37.5 5.85 37.3 Q4.75 37.3 4.75 38.05 4.65 37.2 5.25 36.9 L5.85 36.55 Q8.65 38.35 9.35 39.1 9.9 37.6 9.25 35.85 M6.1 35.85 Q8.8 36.0 9.3 38.95 L9.2 38.8 Q8.15 36.45 5.95 36.4 L5.4 36.4 5.5 36.45 Q4.75 36.45 6.1 35.85" fill="#453a26" fill-rule="evenodd" stroke="none"/>
      <path d="M9.05 35.35 L9.25 35.85 Q6.95 35.2 6.1 35.85 4.75 36.45 5.5 36.45 L5.85 36.55 5.25 36.9 Q4.65 37.2 4.75 38.05 L4.75 38.1 4.8 38.35 5.0 39.05 Q4.55 38.35 4.55 37.55 4.4 36.25 5.25 35.4 6.05 34.6 7.35 34.75 8.3 34.8 9.05 35.35" fill="#c7bf97" fill-rule="evenodd" stroke="none"/>
      <path d="M4.75 38.05 Q4.75 37.3 5.85 37.3 L6.7 37.5 7.45 37.75 7.95 38.3 Q8.3 38.85 8.3 39.6 L8.25 40.1 Q8.1 40.4 7.5 40.4 6.6 40.4 5.65 39.55 4.9 38.9 4.8 38.35 L4.75 38.1 4.75 38.05" fill="#332a1c" fill-rule="evenodd" stroke="none"/>
      <path d="M5.0 39.05 L5.6 39.85 Q6.6 40.8 7.9 40.95 9.15 41.0 10.0 40.25 10.8 39.4 10.75 38.1 10.6 36.8 9.6 35.8 L9.55 35.8 9.05 35.35 Q8.3 34.8 7.35 34.75 6.05 34.6 5.25 35.4 4.4 36.25 4.55 37.55 4.55 38.35 5.0 39.05 Z" fill="none" stroke="#000000" stroke-linecap="round" stroke-linejoin="round" stroke-opacity="0.4" stroke-width="0.4"/>
      <path d="M9.6 37.15 L9.4 36.9 Q7.1 34.75 5.0 35.85 4.4 36.25 4.65 36.6 7.05 36.55 9.05 38.4 9.7 38.3 9.6 37.15" fill="url(#gradient2)" fill-rule="evenodd" stroke="none"/>
    </g>
    <radialGradient cx="0" cy="0" gradientTransform="matrix(-0.0048, 0.005, 0.0049, 0.0047, 24.05, 15.15)" gradientUnits="userSpaceOnUse" id="gradient0" r="819.2" spreadMethod="pad">
      <stop offset="0.0" stop-color="#ffffff" stop-opacity="0.4117647"/>
      <stop offset="1.0" stop-color="#ffffff" stop-opacity="0.0"/>
    </radialGradient>
    <radialGradient cx="0" cy="0" gradientTransform="matrix(0.0015, -0.0029, -0.0025, -0.0015, 9.05, 33.95)" gradientUnits="userSpaceOnUse" id="gradient1" r="819.2" spreadMethod="pad">
      <stop offset="0.0" stop-color="#ffffff" stop-opacity="0.4117647"/>
      <stop offset="1.0" stop-color="#ffffff" stop-opacity="0.0"/>
    </radialGradient>
    <radialGradient cx="0" cy="0" gradientTransform="matrix(0.0011, -0.0022, -0.0019, -0.0012, 7.25, 36.35)" gradientUnits="userSpaceOnUse" id="gradient2" r="819.2" spreadMethod="pad">
      <stop offset="0.0" stop-color="#ffffff" stop-opacity="0.4117647"/>
      <stop offset="1.0" stop-color="#ffffff" stop-opacity="0.0"/>
    </radialGradient>
  </defs>
</svg>
