<?xml version="1.0" encoding="UTF-8" standalone="no"?>
<svg xmlns:xlink="http://www.w3.org/1999/xlink" height="440.0px" width="440.0px" xmlns="http://www.w3.org/2000/svg">
  <g transform="matrix(10.0, 0.0, 0.0, 10.0, 0.0, 0.0)">
    <use height="44.0" transform="matrix(1.0, 0.0, 0.0, 1.0, 0.0, 0.0)" width="44.0" xlink:href="#shape0"/>
    <use height="29.5" transform="matrix(0.1137, 0.022, -0.022, 0.1137, 23.9978, 9.7976)" width="29.5" xlink:href="#sprite0"/>
    <use height="36.95" transform="matrix(1.0, 0.0, 0.0, 1.0, 3.75, 3.75)" width="36.95" xlink:href="#shape2"/>
  </g>
  <defs>
    <g id="shape0" transform="matrix(1.0, 0.0, 0.0, 1.0, 0.0, 0.0)">
      <path d="M44.0 44.0 L0.0 44.0 0.0 0.0 44.0 0.0 44.0 44.0" fill="#33cc33" fill-opacity="0.0" fill-rule="evenodd" stroke="none"/>
      <path d="M28.2 6.05 L28.85 6.1 29.1 6.15 29.45 6.2 29.2 6.7 29.25 6.4 27.85 9.45 28.65 6.4 26.3 9.75 26.1 9.6 25.9 9.2 28.2 6.05" fill="#edb457" fill-rule="evenodd" stroke="none"/>
      <path d="M29.45 6.2 L29.95 6.4 29.0 8.5 29.2 6.7 29.45 6.2 M30.0 7.35 L30.6 6.7 Q32.25 8.15 31.75 10.1 L29.9 11.7 29.45 11.0 30.9 7.65 28.85 9.95 28.95 8.75 30.0 7.35" fill="#705021" fill-rule="evenodd" stroke="none"/>
      <path d="M29.45 11.0 L29.3 10.8 27.5 10.3 27.85 9.45 29.25 6.4 29.2 6.7 29.0 8.5 28.7 9.15 28.95 8.75 28.85 9.95 30.9 7.65 29.45 11.0" fill="#473115" fill-rule="evenodd" stroke="none"/>
      <path d="M29.95 6.4 L30.0 7.35 28.95 8.75 28.7 9.15 29.0 8.5 29.95 6.4" fill="#463315" fill-rule="evenodd" stroke="none"/>
      <path d="M27.5 10.3 L26.65 9.95 26.3 9.75 28.65 6.4 27.85 9.45 27.5 10.3" fill="#947036" fill-rule="evenodd" stroke="none"/>
      <path d="M25.9 9.2 L25.75 8.85 27.5 6.15 28.2 6.05 25.9 9.2" fill="#ab7a32" fill-rule="evenodd" stroke="none"/>
      <path d="M28.2 6.05 L28.85 6.1 29.1 6.15 29.45 6.2 29.95 6.4 30.0 7.35 30.6 6.7 Q32.25 8.15 31.75 10.1 L29.9 11.7 M25.75 8.85 L27.5 6.15 28.2 6.05 Z" fill="none" stroke="#000000" stroke-linecap="round" stroke-linejoin="round" stroke-opacity="0.3019608" stroke-width="0.4"/>
    </g>
    <g id="sprite0" transform="matrix(1.0, 0.0, 0.0, 1.0, 14.75, 14.75)">
      <use height="29.5" transform="matrix(1.0, 0.0, 0.0, 1.0, -14.75, -14.75)" width="29.5" xlink:href="#shape1"/>
    </g>
    <g id="shape1" transform="matrix(1.0, 0.0, 0.0, 1.0, 14.75, 14.75)">
      <path d="M10.4 -10.45 Q14.75 -6.1 14.75 0.0 14.75 6.1 10.4 10.4 6.1 14.75 0.0 14.75 -6.1 14.75 -10.45 10.4 -14.75 6.1 -14.75 0.0 -14.75 -6.1 -10.45 -10.45 -6.1 -14.75 0.0 -14.75 6.1 -14.75 10.4 -10.45" fill="url(#gradient0)" fill-rule="evenodd" stroke="none"/>
    </g>
    <radialGradient cx="0" cy="0" gradientTransform="matrix(0.0181, 0.0, 0.0, 0.0181, 0.0, 0.0)" gradientUnits="userSpaceOnUse" id="gradient0" r="819.2" spreadMethod="pad">
      <stop offset="0.0" stop-color="#ffffff" stop-opacity="0.5019608"/>
      <stop offset="1.0" stop-color="#ffffff" stop-opacity="0.0"/>
    </radialGradient>
    <g id="shape2" transform="matrix(1.0, 0.0, 0.0, 1.0, -3.75, -3.75)">
      <path d="M35.55 14.9 L38.05 15.4 34.0 15.7 35.55 14.9" fill="#cc3300" fill-rule="evenodd" stroke="none"/>
      <path d="M29.85 14.7 L29.9 14.75 29.05 16.5 30.95 16.25 Q30.45 18.4 31.6 18.95 30.1 20.4 30.05 22.15 L30.45 25.4 30.3 24.8 Q29.9 23.6 28.75 21.9 25.7 21.3 22.95 22.4 22.55 20.9 21.45 20.0 20.9 20.6 21.05 21.5 L21.15 21.8 20.35 21.05 20.2 20.75 Q20.05 20.15 20.65 19.4 19.5 18.85 17.85 18.65 17.95 18.3 17.65 18.0 L17.3 17.65 17.25 17.65 16.6 17.05 16.3 16.9 Q13.7 14.95 11.1 14.7 L11.4 14.1 Q13.25 12.75 15.05 12.8 L15.2 13.6 15.75 14.8 16.2 15.5 16.5 15.95 18.4 17.5 19.05 17.85 19.7 17.5 Q19.9 17.2 19.65 16.8 L19.4 16.5 18.8 15.6 Q18.45 15.3 17.75 15.2 L17.7 15.15 17.45 15.0 17.15 14.8 17.05 14.85 16.8 14.95 16.7 15.4 Q15.8 14.1 15.6 13.15 L15.6 12.9 Q18.25 13.3 20.85 16.65 L21.0 17.75 21.05 16.8 Q21.05 14.85 20.55 13.3 L20.65 13.55 21.0 15.1 21.05 15.85 21.25 15.8 Q21.55 15.35 21.0 13.1 20.35 10.8 20.05 11.25 L20.25 12.2 20.45 13.05 19.65 11.25 19.6 11.1 19.05 10.7 Q17.15 9.25 15.1 8.25 18.4 7.05 21.4 10.35 L22.5 12.3 22.45 13.65 Q24.6 13.25 27.15 16.7 L27.6 16.1 27.45 15.65 28.2 16.15 27.65 13.45 28.65 12.65 29.3 13.8 29.85 14.7 M32.95 14.8 L32.95 14.75 32.8 14.4 40.5 12.5 35.55 14.9 34.0 15.7 38.05 15.4 32.95 17.6 Q33.35 16.9 33.25 16.05 L33.25 16.0 33.2 15.5 32.95 14.8 M28.85 19.95 L28.95 20.05 29.5 20.2 29.75 20.05 Q30.0 19.8 29.85 18.85 29.65 17.85 29.15 17.5 L28.85 17.55 28.75 17.75 28.6 17.9 28.5 18.05 27.75 17.3 27.15 17.0 27.0 17.15 26.9 17.5 26.55 17.6 26.55 18.05 27.1 18.8 28.3 20.1 28.65 20.25 28.8 20.1 28.85 19.95 M24.45 24.3 L23.9 27.1 23.8 26.9 23.8 24.55 24.45 24.3 M29.5 19.95 L29.35 19.85 29.6 19.65 29.6 19.85 29.5 19.95 M17.45 15.7 L18.1 16.35 17.55 15.85 17.45 15.7 M22.25 14.8 Q21.95 14.65 21.75 14.95 21.5 15.25 21.6 15.95 L21.7 16.45 21.7 16.6 Q21.2 18.55 21.85 19.05 22.4 19.5 23.0 18.15 L23.25 18.4 Q23.55 18.65 23.75 18.4 24.25 17.7 24.05 16.45 L23.85 15.25 23.8 14.65 23.4 14.0 Q23.05 13.7 22.75 14.0 L22.45 14.35 22.25 14.8 M22.95 14.75 L23.05 14.55 23.2 14.95 22.95 14.75 M23.55 17.8 L23.45 17.9 23.45 17.35 23.55 16.65 23.65 17.3 23.55 17.8 M22.05 18.1 L22.35 18.05 22.4 18.15 22.1 18.55 22.05 18.1 M23.35 21.05 L23.2 21.5 Q24.65 20.6 27.4 20.75 L27.85 20.8 Q27.0 18.15 24.6 16.8 L23.35 21.05 M20.65 19.4 L21.45 20.0 20.65 19.4" fill="#990000" fill-rule="evenodd" stroke="none"/>
      <path d="M30.95 16.25 L31.1 15.65 31.1 14.7 Q32.35 16.8 32.8 15.65 L32.9 15.3 32.95 14.8 33.2 15.5 33.25 16.0 33.25 16.05 Q33.35 16.9 32.95 17.6 L31.6 18.95 Q30.45 18.4 30.95 16.25 M23.65 9.1 L23.4 8.65 23.85 8.65 Q24.5 8.8 25.5 9.85 27.0 12.5 26.3 12.5 24.5 9.6 23.8 9.6 L23.65 9.1 M19.75 6.4 L19.1 6.65 18.2 6.5 Q17.95 6.25 18.05 5.7 19.0 5.6 19.75 6.4" fill="#590000" fill-rule="evenodd" stroke="none"/>
      <path d="M20.4 24.85 L21.0 24.0 Q21.7 23.05 21.15 21.8 L21.05 21.5 Q21.9 22.1 22.2 23.05 L22.2 23.25 Q22.25 25.35 20.85 24.9 L20.4 24.85 M20.35 21.05 L20.25 21.05 Q19.25 20.3 18.45 20.35 L17.9 20.45 16.65 22.0 Q16.15 21.3 16.45 20.2 16.8 19.25 19.25 20.2 L20.2 20.75 20.35 21.05" fill="#360000" fill-rule="evenodd" stroke="none"/>
      <path d="M11.5 10.85 L11.25 9.45 Q14.25 5.7 18.0 4.35 15.2 5.9 13.85 8.1 15.4 8.75 17.8 10.15 L17.55 10.05 17.15 9.95 17.2 9.9 16.3 9.7 16.3 9.65 16.2 9.65 12.35 9.55 Q11.55 9.9 11.5 10.85 M12.45 11.75 Q12.9 11.35 13.35 11.1 L13.9 10.95 15.2 10.8 16.3 10.85 17.15 11.05 17.7 11.25 18.2 11.85 18.9 12.75 Q20.5 14.85 20.85 16.65 18.7 13.2 17.1 12.4 L15.5 12.2 15.4 11.85 15.1 11.9 15.05 12.2 Q13.25 12.15 12.25 12.75 L11.4 14.1 11.1 14.7 Q13.7 14.95 16.3 16.9 14.6 15.9 12.4 15.65 L12.15 15.65 11.2 15.65 11.05 15.7 9.7 15.9 12.45 11.75 M27.4 20.75 Q24.65 20.6 23.2 21.5 L23.35 21.05 24.75 17.9 Q26.3 17.85 27.4 20.75" fill="#a82800" fill-rule="evenodd" stroke="none"/>
      <path d="M26.3 12.5 L26.4 12.9 26.8 15.3 24.6 13.5 23.1 12.75 22.7 9.3 24.05 10.3 24.65 12.15 26.3 12.5" fill="#540000" fill-rule="evenodd" stroke="none"/>
      <path d="M29.85 14.7 L30.15 14.95 30.65 15.1 30.85 14.85 Q31.1 14.55 30.85 13.85 30.55 13.0 29.9 12.5 L29.4 12.3 29.05 12.35 Q28.95 12.5 29.2 13.4 L29.3 13.8 28.65 12.65 27.65 13.45 28.2 16.15 27.45 15.65 26.4 12.9 26.3 12.5 Q27.0 12.5 25.5 9.85 24.5 8.8 23.85 8.65 L23.4 8.65 23.65 9.1 22.7 8.15 23.1 8.45 23.15 8.45 Q23.7 8.0 24.75 8.45 25.2 8.35 26.05 10.05 L26.05 10.1 26.0 10.1 26.2 10.75 26.2 10.85 26.25 10.85 26.3 10.95 26.6 11.65 26.75 11.7 26.95 12.25 27.05 12.3 27.15 13.0 27.4 12.95 27.15 11.65 26.7 10.55 26.6 10.35 29.9 11.7 30.05 12.0 30.15 12.0 30.15 12.05 Q30.95 12.15 31.75 12.8 L31.85 12.9 32.55 13.85 32.8 14.4 32.95 14.75 32.95 14.8 32.9 15.3 32.8 15.65 Q32.35 16.8 31.1 14.7 L31.1 15.65 30.95 16.25 29.05 16.5 29.9 14.75 29.85 14.7 M30.45 25.4 L28.75 23.9 Q26.7 23.55 24.45 24.3 L23.8 24.55 25.6 23.55 28.8 23.2 30.3 24.8 30.45 25.4 M15.8 20.0 L14.55 19.3 14.55 19.25 14.5 19.25 12.7 18.25 12.0 18.05 11.35 18.0 9.9 18.25 8.35 18.7 Q8.2 17.9 8.45 17.15 L8.75 16.1 9.45 15.95 9.0 17.35 11.6 17.3 15.85 19.7 15.8 20.0 M22.6 11.45 L22.55 11.35 Q21.9 10.0 21.6 10.4 L21.7 10.65 22.0 11.2 22.4 11.95 22.5 11.95 22.55 12.05 22.5 12.3 21.4 10.35 Q18.4 7.05 15.1 8.25 14.95 6.8 18.55 4.3 L20.45 6.3 22.7 9.6 22.6 11.45 M19.95 8.55 L20.6 9.5 20.9 9.7 21.65 9.75 21.7 9.2 20.8 8.05 20.5 7.9 20.35 7.75 19.45 7.2 18.85 7.1 18.45 7.15 Q18.2 7.15 18.1 7.3 L18.0 7.55 18.3 7.8 19.4 8.35 19.95 8.55 M26.45 10.55 L26.5 10.65 26.45 10.6 26.45 10.55 M19.75 6.4 Q19.0 5.6 18.05 5.7 17.95 6.25 18.2 6.5 L19.1 6.65 19.75 6.4 M15.6 12.9 L15.5 12.35 15.5 12.2 17.1 12.4 Q18.7 13.2 20.85 16.65 18.25 13.3 15.6 12.9 M15.05 12.2 L15.05 12.8 Q13.25 12.75 11.4 14.1 L12.25 12.75 Q13.25 12.15 15.05 12.2" fill="#e04b28" fill-rule="evenodd" stroke="none"/>
      <path d="M32.8 14.4 L32.55 13.85 31.85 12.9 40.5 12.5 32.8 14.4 M29.9 11.7 L26.6 10.35 Q26.4 9.8 26.2 10.0 26.15 9.95 26.05 10.05 25.2 8.35 24.75 8.45 23.7 8.0 23.15 8.45 L23.1 8.45 22.7 8.15 20.45 6.3 18.55 4.3 Q14.95 6.8 15.1 8.25 17.15 9.25 19.05 10.7 L19.6 11.1 19.15 10.85 18.15 10.3 17.8 10.15 Q15.4 8.75 13.85 8.1 15.2 5.9 18.0 4.35 L18.05 4.3 19.0 3.95 Q20.55 6.15 23.35 7.9 24.45 7.4 25.5 8.35 L26.1 9.6 26.65 9.95 Q27.8 10.55 29.3 10.8 L29.9 11.7 M26.4 12.9 L27.45 15.65 27.6 16.1 27.15 16.7 Q24.6 13.25 22.45 13.65 L22.5 12.3 22.55 12.05 22.7 12.45 22.85 12.85 23.0 12.8 22.6 11.45 22.7 9.6 22.7 9.3 23.1 12.75 24.6 13.5 26.8 15.3 26.4 12.9 M8.75 16.1 L8.85 15.8 Q10.45 13.55 11.8 12.3 L12.45 11.75 9.7 15.9 9.45 15.95 8.75 16.1 M23.35 21.05 L24.6 16.8 Q27.0 18.15 27.85 20.8 L27.4 20.75 Q26.3 17.85 24.75 17.9 L23.35 21.05" fill="#fcaa5f" fill-rule="evenodd" stroke="none"/>
      <path d="M23.8 26.9 L22.45 24.95 22.3 25.2 Q21.4 26.15 19.95 25.45 L20.4 24.85 20.85 24.9 Q22.25 25.35 22.2 23.25 L22.2 23.05 Q21.9 22.1 21.05 21.5 20.9 20.6 21.45 20.0 22.55 20.9 22.95 22.4 25.7 21.3 28.75 21.9 29.9 23.6 30.3 24.8 L28.8 23.2 25.6 23.55 23.8 24.55 23.8 26.9 M16.65 22.0 L16.2 22.5 Q15.45 21.15 15.75 20.35 L15.9 20.05 15.8 20.0 15.85 19.7 11.6 17.3 9.0 17.35 9.45 15.95 9.7 15.9 11.05 15.7 11.2 15.65 12.15 15.65 12.4 15.65 Q14.6 15.9 16.3 16.9 L16.6 17.05 17.25 17.65 17.3 17.65 17.65 18.0 Q17.95 18.3 17.85 18.65 19.5 18.85 20.65 19.4 20.05 20.15 20.2 20.75 L19.25 20.2 Q16.8 19.25 16.45 20.2 16.15 21.3 16.65 22.0 M11.8 12.3 L11.5 10.85 Q11.55 9.9 12.35 9.55 L16.2 9.65 16.3 9.65 16.3 9.7 17.2 9.9 17.15 9.95 17.55 10.05 17.8 10.15 18.15 10.3 19.15 10.85 19.6 11.1 19.65 11.25 20.45 13.05 20.45 13.1 20.55 13.3 Q21.05 14.85 21.05 16.8 L21.0 17.75 20.85 16.65 Q20.5 14.85 18.9 12.75 L18.2 11.85 17.7 11.25 17.15 11.05 16.3 10.85 15.2 10.8 13.9 10.95 13.35 11.1 Q12.9 11.35 12.45 11.75 L11.8 12.3" fill="#4a0000" fill-rule="evenodd" stroke="none"/>
      <path d="M22.7 8.15 L23.65 9.1 23.8 9.6 24.05 10.3 22.7 9.3 22.7 9.6 20.45 6.3 22.7 8.15" fill="#aa120a" fill-rule="evenodd" stroke="none"/>
      <path d="M28.5 18.05 L28.35 18.05 Q28.2 18.25 28.4 19.0 L28.85 19.95 28.8 20.1 28.65 20.25 28.3 20.1 27.1 18.8 26.55 18.05 26.55 17.6 26.9 17.5 27.0 17.15 27.15 17.0 27.75 17.3 28.5 18.05 M21.7 16.45 L22.3 17.2 22.95 17.25 23.15 16.85 23.1 16.25 22.85 15.55 22.4 14.85 22.25 14.8 22.45 14.35 22.75 14.0 Q23.05 13.7 23.4 14.0 L23.8 14.65 23.85 15.25 24.05 16.45 Q24.25 17.7 23.75 18.4 23.55 18.65 23.25 18.4 L23.0 18.15 Q22.4 19.5 21.85 19.05 21.2 18.55 21.7 16.6 L21.7 16.45 M22.95 14.75 L23.2 14.95 23.05 14.55 22.95 14.75 M22.05 18.1 L22.1 18.55 22.4 18.15 22.35 18.05 22.05 18.1 M23.55 17.8 L23.65 17.3 23.55 16.65 23.45 17.35 23.45 17.9 23.55 17.8" fill="#8c2100" fill-rule="evenodd" stroke="none"/>
      <path d="M15.5 12.2 L15.5 12.35 15.6 12.9 15.6 13.15 Q15.8 14.1 16.7 15.4 L16.8 14.95 17.05 14.85 Q16.8 15.2 18.55 16.5 L19.4 17.1 19.55 17.05 19.55 16.85 19.4 16.55 19.4 16.5 19.65 16.8 Q19.9 17.2 19.7 17.5 L19.05 17.85 18.4 17.5 16.5 15.95 16.2 15.5 15.75 14.8 15.2 13.6 15.05 12.8 15.05 12.2 15.1 11.9 15.4 11.85 15.5 12.2 M17.45 15.7 L17.55 15.85 18.1 16.35 17.45 15.7 M22.25 14.8 L22.4 14.85 22.85 15.55 23.1 16.25 23.15 16.85 22.95 17.25 22.3 17.2 21.7 16.45 21.6 15.95 Q21.5 15.25 21.75 14.95 21.95 14.65 22.25 14.8" fill="#962300" fill-rule="evenodd" stroke="none"/>
      <path d="M29.3 13.8 L29.2 13.4 Q28.95 12.5 29.05 12.35 L29.4 12.3 29.9 12.5 Q30.55 13.0 30.85 13.85 31.1 14.55 30.85 14.85 L30.65 15.1 30.15 14.95 29.85 14.7 29.3 13.8 M29.85 12.9 L29.45 12.95 29.45 13.75 29.8 14.4 30.15 14.85 30.65 14.8 30.7 14.1 30.35 13.6 29.85 12.9" fill="#d65228" fill-rule="evenodd" stroke="none"/>
      <path d="M29.85 12.9 L30.35 13.6 30.7 14.1 30.65 14.8 30.15 14.85 29.8 14.4 29.45 13.75 29.45 12.95 29.85 12.9" fill="#e3572a" fill-rule="evenodd" stroke="none"/>
      <path d="M20.5 7.9 L20.8 8.05 21.7 9.2 21.65 9.75 20.9 9.7 20.6 9.5 19.95 8.55 20.5 8.45 Q20.7 8.15 20.5 7.9" fill="#ed5b2c" fill-rule="evenodd" stroke="none"/>
      <path d="M26.6 10.35 L26.7 10.55 27.15 11.65 27.4 12.95 27.15 13.0 27.05 12.3 26.95 12.25 26.75 11.7 26.6 11.65 26.3 10.95 26.25 10.85 26.2 10.85 26.2 10.75 26.0 10.1 26.05 10.1 26.05 10.05 Q26.15 9.95 26.2 10.0 26.4 9.8 26.6 10.35 M22.55 12.05 L22.5 11.95 22.4 11.95 22.0 11.2 21.7 10.65 21.6 10.4 Q21.9 10.0 22.55 11.35 L22.6 11.45 23.0 12.8 22.85 12.85 22.7 12.45 22.55 12.05 M19.95 8.55 L19.4 8.35 18.3 7.8 18.0 7.55 18.1 7.3 Q18.2 7.15 18.45 7.15 L18.85 7.1 19.45 7.2 20.35 7.75 20.5 7.9 Q20.7 8.15 20.5 8.45 L19.95 8.55 M26.45 10.55 L26.45 10.6 26.5 10.65 26.45 10.55" fill="#ed7f2c" fill-rule="evenodd" stroke="none"/>
      <path d="M28.5 18.05 L28.6 17.9 28.75 17.75 28.85 17.55 29.15 17.5 Q29.65 17.85 29.85 18.85 30.0 19.8 29.75 20.05 L29.5 20.2 28.95 20.05 28.85 19.95 28.4 19.0 Q28.2 18.25 28.35 18.05 L28.5 18.05 M29.5 19.95 L29.6 19.85 29.6 19.65 29.35 19.85 29.5 19.95 M20.55 13.3 L20.45 13.1 20.45 13.05 20.25 12.2 20.05 11.25 Q20.35 10.8 21.0 13.1 21.55 15.35 21.25 15.8 L21.05 15.85 21.0 15.1 20.65 13.55 20.55 13.3 M19.4 16.5 L19.4 16.55 19.55 16.85 19.55 17.05 19.4 17.1 18.55 16.5 Q16.8 15.2 17.05 14.85 L17.15 14.8 17.45 15.0 17.7 15.15 17.75 15.2 Q18.45 15.3 18.8 15.6 L19.4 16.5" fill="#a8270d" fill-rule="evenodd" stroke="none"/>
      <path d="M24.05 10.3 L23.8 9.6 Q24.5 9.6 26.3 12.5 L24.65 12.15 24.05 10.3" fill="url(#gradient1)" fill-rule="evenodd" stroke="none"/>
      <path d="M32.95 14.8 L32.95 14.75 32.8 14.4 32.55 13.85 31.85 12.9 31.75 12.8 Q30.95 12.15 30.15 12.05 L30.15 12.0 30.05 12.0 29.9 11.7 M32.95 17.6 Q33.35 16.9 33.25 16.05 L33.25 16.0 33.2 15.5 32.95 14.8 M35.55 14.9 L38.05 15.4 32.95 17.6 31.6 18.95 Q30.1 20.4 30.05 22.15 L30.45 25.4 28.75 23.9 Q26.7 23.55 24.45 24.3 L23.9 27.1 23.8 26.9 22.45 24.95 22.3 25.2 Q21.4 26.15 19.95 25.45 M16.2 22.5 Q15.45 21.15 15.75 20.35 L15.9 20.05 15.8 20.0 14.55 19.3 M14.5 19.25 L12.7 18.25 12.0 18.05 11.35 18.0 9.9 18.25 8.35 18.7 Q8.2 17.9 8.45 17.15 L8.75 16.1 8.85 15.8 Q10.45 13.55 11.8 12.3 L11.5 10.85 11.25 9.45 Q14.25 5.7 18.0 4.35 L18.05 4.3 19.0 3.95 Q20.55 6.15 23.35 7.9 24.45 7.4 25.5 8.35 L26.1 9.6 26.65 9.95 Q27.8 10.55 29.3 10.8 L29.9 11.7 M22.95 22.4 Q22.55 20.9 21.45 20.0 L20.65 19.4 Q19.5 18.85 17.85 18.65 M31.85 12.9 L40.5 12.5 35.55 14.9 M24.05 10.3 L23.8 9.6 M24.05 10.3 L24.65 12.15 26.3 12.5 Q24.5 9.6 23.8 9.6 M19.75 6.4 Q19.0 5.6 18.05 5.7 17.95 6.25 18.2 6.5 L19.1 6.65 19.75 6.4 M12.45 11.75 Q12.9 11.35 13.35 11.1 L13.9 10.95 15.2 10.8 16.3 10.85 17.15 11.05 17.7 11.25 18.2 11.85 18.9 12.75 Q20.5 14.85 20.85 16.65 L21.0 17.75 M11.8 12.3 L12.45 11.75 M24.45 24.3 L23.8 24.55" fill="none" stroke="#000000" stroke-linecap="round" stroke-linejoin="round" stroke-opacity="0.3019608" stroke-width="0.4"/>
      <path d="M21.3 15.6 L20.9 15.05 Q17.1 10.15 12.4 11.2 11.05 11.6 11.45 12.35 16.35 13.45 19.8 17.65 21.15 17.8 21.3 15.6" fill="url(#gradient2)" fill-rule="evenodd" stroke="none"/>
      <path d="M30.45 20.95 L30.05 20.4 Q26.25 15.5 21.55 16.55 20.2 16.95 20.6 17.7 25.5 18.8 28.95 23.0 30.3 23.15 30.45 20.95" fill="url(#gradient3)" fill-rule="evenodd" stroke="none"/>
      <path d="M18.7 25.3 L18.4 24.85 Q17.85 22.2 21.3 22.15 L18.7 25.3" fill="#626262" fill-rule="evenodd" stroke="none"/>
      <path d="M21.3 22.15 Q21.5 22.75 21.35 23.3 L19.05 25.8 18.7 25.3 21.3 22.15" fill="#474747" fill-rule="evenodd" stroke="none"/>
      <path d="M21.35 23.3 L21.05 24.0 19.95 25.5 19.4 26.8 18.8 27.25 Q19.0 25.8 18.45 25.0 L18.4 24.85 18.7 25.3 19.05 25.8 21.35 23.3 M16.9 24.0 L15.6 23.85 15.65 23.8 14.3 24.45 17.5 20.95 15.6 23.5 16.9 24.0" fill="#b7b7b7" fill-rule="evenodd" stroke="none"/>
      <path d="M18.4 24.85 L18.45 25.0 18.15 24.65 17.95 24.5 16.9 24.0 19.65 20.75 20.2 21.1 20.35 21.1 21.15 21.85 21.3 22.15 Q17.85 22.2 18.4 24.85" fill="#333333" fill-rule="evenodd" stroke="none"/>
      <path d="M18.5 20.35 L19.65 20.75 16.9 24.0 15.6 23.5 18.5 20.35" fill="#c4c4c4" fill-rule="evenodd" stroke="none"/>
      <path d="M17.5 20.95 L17.9 20.45 18.5 20.35 15.6 23.5 17.5 20.95" fill="#666666" fill-rule="evenodd" stroke="none"/>
      <path d="M19.4 26.8 L19.0 27.7 19.0 27.75 Q18.1 28.35 17.65 27.95 L18.4 26.85 17.85 25.35 Q17.15 24.4 15.9 24.55 L15.65 24.5 15.0 24.7 14.95 24.75 14.25 25.4 14.3 24.45 15.65 23.8 15.6 23.85 16.9 24.0 17.95 24.5 18.15 24.65 18.45 25.0 Q19.0 25.8 18.8 27.25 L19.4 26.8" fill="#2b2b2b" fill-rule="evenodd" stroke="none"/>
      <path d="M21.35 23.3 L21.05 24.0 19.95 25.5 19.4 26.8 19.0 27.7 19.0 27.75 Q18.1 28.35 17.65 27.95 L17.5 28.15 M21.3 22.15 Q21.5 22.75 21.35 23.3 M19.65 20.75 L20.2 21.1 20.35 21.1 21.15 21.85 21.3 22.15 M17.5 20.95 L17.9 20.45 18.5 20.35 19.65 20.75 M14.3 24.45 L14.25 25.4 14.95 24.75 15.0 24.7 15.65 24.5 15.9 24.55 Q17.15 24.4 17.85 25.35 L18.4 26.85 17.65 27.95 M17.5 20.95 L14.3 24.45 M14.1 25.6 L14.25 25.4" fill="none" stroke="#000000" stroke-linecap="round" stroke-linejoin="round" stroke-opacity="0.3019608" stroke-width="0.4"/>
      <path d="M20.1 24.9 L19.95 24.6 Q18.15 22.3 15.9 22.8 15.25 23.0 15.5 23.3 17.8 23.8 19.4 25.85 20.0 25.9 20.1 24.9" fill="url(#gradient4)" fill-rule="evenodd" stroke="none"/>
      <path d="M20.15 24.25 L20.0 23.95 Q18.2 21.65 15.95 22.15 15.3 22.35 15.55 22.65 17.85 23.15 19.45 25.2 20.05 25.25 20.15 24.25" fill="url(#gradient5)" fill-rule="evenodd" stroke="none"/>
      <path d="M18.65 26.2 Q14.15 31.35 10.9 36.9 L16.25 27.2 14.5 28.25 15.75 26.2 14.3 25.7 15.0 24.5 Q17.95 23.55 18.65 26.2" fill="#000000" fill-opacity="0.33333334" fill-rule="evenodd" stroke="none"/>
      <path d="M6.5 35.65 L7.1 35.2 Q12.85 30.55 15.0 25.45 15.6 23.95 14.8 24.45 11.05 30.0 6.05 34.15 5.15 35.65 6.5 35.65" fill="url(#gradient6)" fill-rule="evenodd" stroke="none"/>
      <path d="M13.45 26.2 L13.45 26.15 13.5 26.15 14.15 25.4 14.95 24.6 15.0 24.5 15.05 24.45 15.1 24.5 15.55 24.45 15.5 24.5 5.1 36.65 5.05 36.6 Q4.55 36.3 4.65 35.85 L4.35 36.0 4.1 36.1 4.05 36.15 Q3.7 36.1 7.5 32.4 L13.45 26.2" fill="#c79749" fill-rule="evenodd" stroke="none"/>
      <path d="M16.05 24.5 L16.5 24.5 17.35 24.75 17.2 24.75 17.05 24.95 17.0 25.0 16.8 25.15 16.45 25.65 16.35 25.75 16.05 26.2 15.95 26.3 15.3 27.25 13.85 29.15 12.3 31.55 11.15 33.05 Q8.9 35.95 7.3 38.7 7.2 38.8 7.25 38.85 L7.0 39.15 7.0 39.05 Q6.95 38.45 7.95 36.75 L9.05 35.05 10.3 33.2 11.95 30.9 13.2 29.25 14.85 27.25 15.55 26.3 15.95 25.9 15.95 25.85 16.05 25.7 16.1 25.65 16.15 24.8 11.95 29.05 14.15 26.6 14.65 26.0 14.7 26.0 15.25 25.3 15.4 25.2 15.85 24.7 16.05 24.5" fill="#664d25" fill-rule="evenodd" stroke="none"/>
      <path d="M15.5 24.5 L16.05 24.5 15.85 24.7 15.4 25.2 15.25 25.3 14.7 26.0 14.65 26.0 14.15 26.6 11.95 29.05 11.5 29.6 8.05 33.55 5.25 37.15 5.0 36.65 5.05 36.6 5.1 36.65 15.5 24.5" fill="#edb457" fill-rule="evenodd" stroke="none"/>
      <path d="M17.35 24.75 L17.45 24.8 17.45 24.9 17.6 24.8 17.6 24.85 12.8 31.75 12.45 32.25 7.3 38.7 Q8.9 35.95 11.15 33.05 L12.3 31.55 13.85 29.15 15.3 27.25 15.95 26.3 16.05 26.2 16.35 25.75 16.45 25.65 16.8 25.15 17.0 25.0 17.05 24.95 17.2 24.75 17.35 24.75 M6.9 39.75 L6.85 39.7 6.4 39.0 8.45 34.2 7.5 35.55 7.45 35.7 7.35 35.85 7.35 35.9 5.55 38.1 5.25 37.15 8.05 33.55 11.5 29.6 11.95 29.05 16.15 24.8 16.1 25.65 16.05 25.7 15.95 25.85 15.95 25.9 15.55 26.3 14.85 27.25 13.2 29.25 11.95 30.9 10.3 33.2 9.05 35.05 7.95 36.75 Q6.95 38.45 7.0 39.05 L7.0 39.15 6.95 39.2 6.95 39.35 6.9 39.75 M9.45 33.8 L12.05 30.75 13.7 27.4 9.15 33.1 9.15 33.95 9.45 33.8" fill="#a17a3b" fill-rule="evenodd" stroke="none"/>
      <path d="M9.45 33.8 L9.15 33.95 9.15 33.1 13.7 27.4 12.05 30.75 9.45 33.8" fill="#b08540" fill-rule="evenodd" stroke="none"/>
      <path d="M18.8 26.25 L18.8 26.55 18.8 26.6 18.45 26.95 17.85 27.85 14.8 31.85 14.3 32.5 11.65 36.25 Q10.65 38.0 10.6 38.8 10.55 39.65 10.0 39.85 L9.7 39.95 Q10.15 39.7 10.3 38.35 10.5 37.0 12.25 34.8 L18.8 26.25" fill="#d4a14e" fill-rule="evenodd" stroke="none"/>
      <path d="M12.45 32.25 L12.8 31.75 17.8 25.1 17.95 25.3 12.6 32.8 11.25 34.65 11.0 35.1 12.45 32.25" fill="#664834" fill-rule="evenodd" stroke="none"/>
      <path d="M17.6 24.85 L18.35 25.45 13.7 32.25 12.5 33.75 12.6 32.8 17.95 25.3 17.8 25.1 17.6 24.85" fill="#73572a" fill-rule="evenodd" stroke="none"/>
      <path d="M18.7 26.1 L18.75 26.15 18.8 26.25 12.25 34.8 Q10.5 37.0 10.3 38.35 10.15 39.7 9.7 39.95 L9.1 40.05 Q9.85 39.65 10.0 38.5 L10.55 36.25 11.25 34.65 12.6 32.8 12.5 33.75 13.7 32.25 18.7 26.1" fill="#856531" fill-rule="evenodd" stroke="none"/>
      <path d="M12.8 31.75 L17.6 24.85 17.8 25.1 12.8 31.75" fill="#94694b" fill-rule="evenodd" stroke="none"/>
      <path d="M18.35 25.45 L18.7 26.1 13.7 32.25 18.35 25.45" fill="#594320" fill-rule="evenodd" stroke="none"/>
      <path d="M7.2 40.05 L7.0 40.0 6.9 39.75 6.95 39.35 6.95 39.2 7.0 39.15 7.25 38.85 Q7.2 38.8 7.3 38.7 L12.45 32.25 11.0 35.1 11.25 34.65 10.55 36.25 9.4 38.45 Q8.95 39.85 7.2 40.05" fill="#947036" fill-rule="evenodd" stroke="none"/>
      <path d="M9.1 40.05 L8.5 40.15 7.2 40.05 Q8.95 39.85 9.4 38.45 L10.55 36.25 10.0 38.5 Q9.85 39.65 9.1 40.05" fill="#574220" fill-rule="evenodd" stroke="none"/>
      <path d="M6.4 39.0 L6.1 38.7 5.7 38.55 5.55 38.1 7.35 35.9 7.35 35.85 7.4 35.8 7.45 35.7 7.5 35.55 8.45 34.2 6.4 39.0 M5.7 38.55 L7.35 35.9 5.7 38.55" fill="#634b24" fill-rule="evenodd" stroke="none"/>
      <path d="M7.35 35.85 L7.45 35.7 7.4 35.8 7.35 35.85" fill="#a1704b" fill-rule="evenodd" stroke="none"/>
      <path d="M4.05 36.15 L4.0 36.15 Q3.45 36.3 7.45 32.45 L13.4 26.2 13.45 26.2 M13.45 26.15 L14.1 25.45 14.85 24.6 Q14.95 24.5 15.0 24.5 M18.8 26.55 L18.8 26.6 18.45 26.95 17.85 27.85 14.8 31.85 14.3 32.5 11.65 36.25 Q10.65 38.0 10.6 38.8 10.55 39.65 10.0 39.85 L9.7 39.95 9.1 40.05 8.5 40.15 7.2 40.05 7.0 40.0 M4.35 36.0 L4.1 36.1 4.05 36.15" fill="none" stroke="#000000" stroke-linecap="round" stroke-linejoin="round" stroke-opacity="0.3019608" stroke-width="0.4"/>
      <path d="M7.35 35.85 L7.35 35.9 5.7 38.55 M7.35 35.85 L7.45 35.7 7.5 35.55 M7.45 35.7 L7.4 35.8 7.35 35.85 M7.35 35.9 L5.55 38.1" fill="none" stroke="#000000" stroke-linecap="round" stroke-linejoin="round" stroke-opacity="0.2" stroke-width="0.4"/>
      <path d="M5.2 37.4 L6.0 36.35 7.85 37.5 8.4 38.8 7.85 38.7 5.9 38.45 5.2 37.4" fill="#4a3516" fill-rule="evenodd" stroke="none"/>
      <path d="M8.6 39.4 L8.4 38.8 8.6 39.4 M10.1 38.7 Q10.5 39.55 10.1 40.05 9.65 40.65 8.5 40.4 L6.8 39.85 6.1 39.35 Q4.9 38.45 4.35 37.35 3.75 36.35 4.2 35.75 4.65 35.15 5.85 35.3 7.0 35.55 8.2 36.45 9.45 37.35 10.0 38.35 L10.1 38.7 8.4 38.1 10.1 38.7 M6.3 35.9 L6.0 36.35 6.3 35.9 M7.85 37.5 L6.0 36.35 5.2 37.4 4.9 36.85 5.2 37.4 5.9 38.45 7.85 38.7 8.4 38.8 7.85 37.5 7.8 37.2 7.85 37.5 8.55 37.85 7.85 37.5 M5.9 38.45 L6.8 39.85 5.9 38.45 M7.95 40.1 L7.85 38.7 7.95 40.1" fill="#4a2f0d" fill-rule="evenodd" stroke="none"/>
      <path d="M10.1 38.7 L10.5 38.8 M8.4 38.8 L8.6 39.4 M10.1 38.7 Q10.5 39.55 10.1 40.05 9.65 40.65 8.5 40.4 L6.8 39.85 6.1 39.35 Q4.9 38.45 4.35 37.35 3.75 36.35 4.2 35.75 4.65 35.15 5.85 35.3 7.0 35.55 8.2 36.45 9.45 37.35 10.0 38.35 L10.1 38.7 8.4 38.1 M6.0 36.35 L6.3 35.9 M5.2 37.4 L6.0 36.35 7.85 37.5 7.8 37.2 M5.2 37.4 L4.9 36.85 M7.85 37.5 L8.55 37.85 M5.2 37.4 L5.9 38.45 7.85 38.7 8.4 38.8 7.85 37.5 M7.85 38.7 L7.95 40.1 M6.8 39.85 L5.9 38.45" fill="none" stroke="#000000" stroke-linecap="round" stroke-linejoin="round" stroke-opacity="0.2" stroke-width="0.5"/>
    </g>
    <radialGradient cx="0" cy="0" gradientTransform="matrix(0.0025, 5.0E-4, -5.0E-4, 0.0025, 25.0, 11.4)" gradientUnits="userSpaceOnUse" id="gradient1" r="819.2" spreadMethod="pad">
      <stop offset="0.0" stop-color="#ffffff"/>
      <stop offset="1.0" stop-color="#ffcc00"/>
    </radialGradient>
    <radialGradient cx="0" cy="0" gradientTransform="matrix(0.0031, -0.0035, -0.0035, -0.003, 16.8, 13.05)" gradientUnits="userSpaceOnUse" id="gradient2" r="819.2" spreadMethod="pad">
      <stop offset="0.0" stop-color="#ffffff" stop-opacity="0.4117647"/>
      <stop offset="1.0" stop-color="#ffffff" stop-opacity="0.0"/>
    </radialGradient>
    <radialGradient cx="0" cy="0" gradientTransform="matrix(0.0031, -0.0035, -0.0035, -0.003, 25.95, 18.4)" gradientUnits="userSpaceOnUse" id="gradient3" r="819.2" spreadMethod="pad">
      <stop offset="0.0" stop-color="#ffffff" stop-opacity="0.4117647"/>
      <stop offset="1.0" stop-color="#ffffff" stop-opacity="0.0"/>
    </radialGradient>
    <radialGradient cx="0" cy="0" gradientTransform="matrix(0.0014, -0.0017, -0.0016, -0.0014, 18.0, 23.65)" gradientUnits="userSpaceOnUse" id="gradient4" r="819.2" spreadMethod="pad">
      <stop offset="0.0" stop-color="#ffffff" stop-opacity="0.4117647"/>
      <stop offset="1.0" stop-color="#ffffff" stop-opacity="0.0"/>
    </radialGradient>
    <radialGradient cx="0" cy="0" gradientTransform="matrix(0.0014, -0.0017, -0.0016, -0.0014, 18.05, 23.0)" gradientUnits="userSpaceOnUse" id="gradient5" r="819.2" spreadMethod="pad">
      <stop offset="0.0" stop-color="#ffffff" stop-opacity="0.4117647"/>
      <stop offset="1.0" stop-color="#ffffff" stop-opacity="0.0"/>
    </radialGradient>
    <radialGradient cx="0" cy="0" gradientTransform="matrix(5.0E-4, 0.0031, 0.0042, -0.0041, 11.05, 30.45)" gradientUnits="userSpaceOnUse" id="gradient6" r="819.2" spreadMethod="pad">
      <stop offset="0.0" stop-color="#ffffff" stop-opacity="0.4117647"/>
      <stop offset="1.0" stop-color="#ffffff" stop-opacity="0.0"/>
    </radialGradient>
  </defs>
</svg>
