<?xml version="1.0" encoding="UTF-8" standalone="no"?>
<svg xmlns:xlink="http://www.w3.org/1999/xlink" height="520.0px" width="520.0px" xmlns="http://www.w3.org/2000/svg">
  <g transform="matrix(10.0, 0.0, 0.0, 10.0, 0.0, 0.0)">
    <use height="52.0" transform="matrix(1.0, 0.0, 0.0, 1.0, 0.0, 0.0)" width="52.0" xlink:href="#shape0"/>
    <use height="136.85" transform="matrix(0.0819, 0.0104, -0.0158, 0.124, 8.8561, 4.6235)" width="148.25" xlink:href="#sprite0"/>
    <use height="136.85" transform="matrix(0.0819, 0.0104, -0.0158, 0.124, 33.9061, 14.0235)" width="148.25" xlink:href="#sprite0"/>
    <use height="136.85" transform="matrix(0.0949, 0.0121, -0.0103, 0.0807, 17.6949, 11.4152)" width="148.25" xlink:href="#sprite0"/>
    <use height="136.85" transform="matrix(0.0273, 0.0175, -0.1041, 0.162, 20.6574, 21.4812)" width="148.25" xlink:href="#sprite0"/>
  </g>
  <defs>
    <g id="shape0" transform="matrix(1.0, 0.0, 0.0, 1.0, 0.0, 0.0)">
      <path d="M52.0 0.0 L52.0 52.0 0.0 52.0 0.0 0.0 52.0 0.0" fill="#795fa9" fill-opacity="0.0" fill-rule="evenodd" stroke="none"/>
      <path d="M13.6 5.0 L10.15 5.15 Q10.05 6.6 10.5 8.05 L10.6 8.25 10.1 8.85 9.35 10.05 9.25 10.05 Q7.4 10.0 5.95 11.1 6.25 12.55 7.05 13.8 L7.3 14.2 6.7 16.65 6.45 16.75 Q4.8 17.7 4.1 19.35 5.05 20.45 6.4 21.1 L7.25 21.5 8.35 23.05 Q9.55 24.15 11.6 24.1 L12.15 23.95 11.7 24.35 Q11.1 25.05 10.45 26.55 10.05 27.45 10.0 28.2 L9.85 28.7 9.9 28.95 9.9 29.15 9.9 29.2 10.15 29.75 10.7 30.1 11.25 30.5 11.8 30.9 Q11.85 31.35 12.2 31.75 L12.45 31.95 12.85 32.15 13.3 32.35 13.5 32.6 12.9 33.55 12.3 33.3 11.35 33.15 11.15 33.1 9.0 33.05 Q7.95 33.25 7.1 33.7 L6.1 34.45 5.35 35.5 Q4.95 36.7 5.6 38.25 5.95 39.05 6.65 39.3 L7.45 39.4 7.7 39.35 8.5 38.9 Q8.75 38.55 8.55 38.0 8.35 37.5 7.95 37.45 L7.9 37.45 7.3 37.55 Q6.85 37.75 7.45 38.15 L7.45 38.2 7.55 38.55 7.45 38.6 7.15 38.6 7.0 38.55 Q6.45 38.15 6.45 37.6 L6.5 37.65 6.85 37.55 7.05 37.2 7.0 36.7 6.95 36.6 6.9 36.55 7.2 36.3 7.35 36.15 7.85 36.2 8.45 35.9 8.55 35.75 9.1 35.75 9.25 35.75 9.5 36.1 10.25 36.5 10.5 36.55 10.95 36.35 11.05 36.45 6.6 42.65 6.3 43.0 6.3 43.05 Q4.4 45.4 7.35 47.4 L7.65 47.6 7.7 47.6 10.6 47.55 11.3 46.6 11.35 46.55 14.4 40.9 15.4 41.05 16.3 41.0 16.45 41.05 16.85 41.0 17.1 40.95 Q17.6 40.95 18.0 41.45 L18.45 41.4 18.45 41.1 18.45 40.95 18.0 40.35 17.0 39.75 16.25 39.55 15.45 39.15 16.75 37.0 16.9 37.7 17.55 38.7 17.9 39.35 18.05 39.5 18.25 39.65 18.8 39.9 19.3 39.8 19.6 39.85 20.35 39.85 Q21.6 39.7 22.1 38.0 L22.1 37.9 22.2 37.35 Q22.15 36.75 21.55 36.8 L20.95 37.15 21.0 37.6 Q21.25 37.85 20.9 38.3 20.0 39.0 19.45 37.9 19.1 37.15 19.65 36.2 L20.4 35.25 22.15 33.25 22.5 32.7 22.65 32.25 Q23.05 30.95 22.6 29.85 L21.7 28.55 23.15 26.0 23.2 25.95 24.1 25.7 28.9 25.45 29.75 25.2 29.75 25.4 Q29.7 27.2 30.65 28.3 31.4 30.9 33.55 32.65 L37.35 32.8 Q38.95 33.55 40.7 33.65 41.55 32.15 41.55 30.45 L43.45 28.5 43.8 27.95 44.15 27.9 Q45.55 27.8 46.8 27.2 46.75 25.5 45.7 24.1 L45.65 24.05 Q46.55 21.3 46.5 18.2 L48.1 16.45 Q47.35 15.15 45.95 14.45 45.35 12.4 44.25 12.35 40.8 12.55 37.3 14.95 36.5 14.65 34.9 16.0 33.7 13.1 30.2 11.65 26.65 10.25 22.95 11.2 L22.3 11.35 Q21.9 9.85 20.7 9.6 19.2 5.25 17.3 4.35 15.85 3.6 13.8 5.05 L13.6 5.0 M17.5 22.45 L15.3 22.65 13.0 23.75 Q13.5 23.75 13.05 24.3 12.45 25.05 12.4 25.75 12.25 27.55 13.8 28.2 15.0 28.5 15.8 29.0 L15.95 29.1 19.55 24.05 19.5 23.8 18.6 23.1 17.9 22.35 17.5 22.45" fill="none" stroke="#000000" stroke-linecap="round" stroke-linejoin="round" stroke-opacity="0.3019608" stroke-width="1.0"/>
      <path d="M6.4 21.15 Q9.3 21.2 8.75 17.0 L9.35 18.4 Q9.75 20.7 8.4 21.9 L6.4 21.15" fill="#a34215" fill-rule="evenodd" stroke="none"/>
      <path d="M6.4 21.15 Q5.1 20.45 4.1 19.35 5.2 20.05 6.2 19.95 L7.0 19.8 Q8.7 18.65 8.0 17.15 7.8 16.75 7.4 16.65 L6.45 16.8 Q7.0 16.45 7.7 16.2 8.3 16.3 8.75 17.0 9.3 21.2 6.4 21.15" fill="#d36b0e" fill-rule="evenodd" stroke="none"/>
      <path d="M7.4 16.65 Q7.8 16.75 8.0 17.15 8.7 18.65 7.0 19.8 L6.2 19.95 4.7 19.3 Q5.0 17.9 7.4 16.65" fill="#f1a236" fill-rule="evenodd" stroke="none"/>
      <path d="M6.45 16.8 L7.4 16.65 Q5.0 17.9 4.7 19.3 L6.2 19.95 Q5.2 20.05 4.1 19.35 4.85 17.7 6.45 16.8" fill="#ffdc8a" fill-rule="evenodd" stroke="none"/>
      <path d="M4.1 19.35 Q5.1 20.45 6.4 21.15 L8.4 21.9 M7.7 16.2 Q7.0 16.45 6.45 16.8 M4.1 19.35 Q4.85 17.7 6.45 16.8" fill="none" stroke="#000000" stroke-linecap="round" stroke-linejoin="round" stroke-opacity="0.3019608" stroke-width="0.30000000000000004"/>
      <path d="M7.0 13.75 Q9.5 15.25 11.15 11.35 L10.95 12.85 Q10.15 15.0 8.35 15.45 L7.0 13.75" fill="#a34215" fill-rule="evenodd" stroke="none"/>
      <path d="M7.0 13.75 Q6.2 12.55 5.95 11.05 6.5 12.2 7.4 12.65 L8.25 12.9 Q10.25 12.75 10.4 11.1 10.45 10.7 10.15 10.4 L9.25 10.0 10.55 10.15 Q11.05 10.6 11.15 11.35 9.5 15.25 7.0 13.75" fill="#d36b0e" fill-rule="evenodd" stroke="none"/>
      <path d="M10.15 10.4 Q10.45 10.7 10.4 11.1 10.25 12.75 8.25 12.9 L7.4 12.65 6.45 11.3 Q7.45 10.3 10.15 10.4" fill="#f1a236" fill-rule="evenodd" stroke="none"/>
      <path d="M9.25 10.0 L10.15 10.4 Q7.45 10.3 6.45 11.3 L7.4 12.65 Q6.5 12.2 5.95 11.05 7.4 10.0 9.25 10.0" fill="#ffdc8a" fill-rule="evenodd" stroke="none"/>
      <path d="M5.95 11.05 Q6.2 12.55 7.0 13.75 L8.35 15.45 M10.55 10.15 L9.25 10.0 M5.95 11.05 Q7.4 10.0 9.25 10.0" fill="none" stroke="#000000" stroke-linecap="round" stroke-linejoin="round" stroke-opacity="0.3019608" stroke-width="0.30000000000000004"/>
      <path d="M10.45 8.0 Q12.5 10.1 15.05 6.75 14.95 7.35 14.45 8.15 13.15 10.05 11.35 10.0 L10.45 8.0" fill="#a34215" fill-rule="evenodd" stroke="none"/>
      <path d="M10.45 8.0 Q10.05 6.6 10.1 5.1 10.45 6.4 11.15 7.05 L11.9 7.5 Q13.85 7.9 14.4 6.35 14.55 5.9 14.35 5.6 L13.6 4.95 14.9 5.45 Q15.25 5.95 15.05 6.75 12.5 10.1 10.45 8.0" fill="#d36b0e" fill-rule="evenodd" stroke="none"/>
      <path d="M14.35 5.6 Q14.55 5.9 14.4 6.35 13.85 7.9 11.9 7.5 L11.15 7.05 10.55 5.55 Q11.8 4.75 14.35 5.6" fill="#f1a236" fill-rule="evenodd" stroke="none"/>
      <path d="M13.6 4.95 L14.35 5.6 Q11.8 4.75 10.55 5.55 L11.15 7.05 Q10.45 6.4 10.1 5.1 L13.6 4.95" fill="#ffdc8a" fill-rule="evenodd" stroke="none"/>
      <path d="M10.1 5.1 Q10.05 6.6 10.45 8.0 L11.35 10.0 M14.9 5.45 L13.6 4.95 M10.1 5.1 L13.6 4.95" fill="none" stroke="#000000" stroke-linecap="round" stroke-linejoin="round" stroke-opacity="0.3019608" stroke-width="0.30000000000000004"/>
      <path d="M8.95 21.6 Q10.15 21.8 11.85 21.05 14.2 21.3 12.3 22.8 10.6 24.0 8.4 23.1 7.35 22.15 6.85 20.45 L6.75 19.85 Q7.55 21.3 8.95 21.6" fill="#d36b0e" fill-rule="evenodd" stroke="none"/>
      <path d="M6.55 18.05 Q8.35 11.15 11.8 8.55 15.2 5.95 15.8 9.5 16.6 14.35 12.35 19.95 11.3 21.35 8.95 21.6 7.55 21.3 6.75 19.85 L6.55 18.05" fill="#f1a236" fill-rule="evenodd" stroke="none"/>
      <path d="M11.85 21.05 Q16.25 18.2 20.25 13.05 L18.0 20.45 Q14.95 23.45 11.6 24.1 9.55 24.2 8.4 23.1 10.6 24.0 12.3 22.8 14.2 21.3 11.85 21.05" fill="#a34215" fill-rule="evenodd" stroke="none"/>
      <path d="M8.95 21.6 Q11.3 21.35 12.35 19.95 16.6 14.35 15.8 9.5 15.2 5.95 11.8 8.55 8.35 11.15 6.55 18.05 6.6 14.0 10.1 8.85 14.6 3.05 17.3 4.35 19.45 5.4 21.0 10.6 L20.25 13.05 Q16.25 18.2 11.85 21.05 10.15 21.8 8.95 21.6" fill="#ffdc8a" fill-rule="evenodd" stroke="none"/>
      <path d="M20.25 13.05 L21.0 10.6 Q19.45 5.4 17.3 4.35 14.6 3.05 10.1 8.85 6.6 14.0 6.55 18.05 L6.75 19.85 6.85 20.45 Q7.35 22.15 8.4 23.1 9.55 24.2 11.6 24.1 14.95 23.45 18.0 20.45 L20.25 13.05 Z" fill="none" stroke="#000000" stroke-linecap="round" stroke-linejoin="round" stroke-opacity="0.3019608" stroke-width="0.30000000000000004"/>
      <path d="M22.45 12.05 L22.5 12.35 Q21.2 10.55 18.7 12.5 16.25 14.45 15.85 18.05 15.4 21.65 18.0 22.3 L17.5 22.45 Q15.1 23.6 13.9 21.05 L13.85 20.95 Q13.5 20.3 13.45 19.3 L13.5 17.5 Q13.45 18.7 14.15 18.7 L15.3 16.45 Q15.45 15.8 15.75 15.25 16.75 12.8 18.35 11.45 L18.4 11.4 18.85 11.1 Q19.4 10.75 19.9 10.6 L20.5 10.55 21.25 10.75 21.3 10.75 Q22.1 11.05 22.45 12.05" fill="#d36b0e" fill-rule="evenodd" stroke="none"/>
      <path d="M13.5 17.5 Q13.6 16.7 13.85 15.85 L14.35 14.55 Q15.15 12.65 16.25 11.4 L17.15 10.5 17.65 10.15 18.45 9.75 19.15 9.6 19.75 9.5 Q22.1 9.3 22.45 12.05 22.1 11.05 21.3 10.75 L21.25 10.75 20.5 10.55 19.9 10.6 Q19.4 10.75 18.85 11.1 L18.4 11.4 18.35 11.45 Q16.75 12.8 15.75 15.25 15.45 15.8 15.3 16.45 L14.15 18.7 Q13.45 18.7 13.5 17.5" fill="#f1a236" fill-rule="evenodd" stroke="none"/>
      <path d="M22.5 12.35 L22.7 13.3 Q22.8 14.8 22.35 16.5 L21.85 17.8 Q20.8 20.2 19.25 21.5 L18.75 21.85 18.0 22.3 Q15.4 21.65 15.85 18.05 16.25 14.45 18.7 12.5 21.2 10.55 22.5 12.35" fill="#a34215" fill-rule="evenodd" stroke="none"/>
      <path d="M13.5 17.5 Q13.6 16.7 13.85 15.85 L14.35 14.55 Q15.15 12.65 16.25 11.4 M19.75 9.5 Q22.1 9.3 22.45 12.05 L22.5 12.35 22.7 13.3 Q22.8 14.8 22.35 16.5 L21.85 17.8 Q20.8 20.2 19.25 21.5 L18.75 21.85 18.0 22.3 17.5 22.45 Q15.1 23.6 13.9 21.05 L13.85 20.95 Q13.5 20.3 13.45 19.3 L13.5 17.5 Z" fill="none" stroke="#000000" stroke-linecap="round" stroke-linejoin="round" stroke-opacity="0.3019608" stroke-width="0.30000000000000004"/>
      <path d="M16.1 12.8 Q15.95 12.65 16.15 12.2 L16.8 11.25 Q17.3 10.7 17.8 10.5 L18.55 10.3 Q18.95 10.3 18.3 10.85 L17.2 12.0 16.55 12.8 Q16.3 13.0 16.1 12.8" fill="#ffdc8a" fill-rule="evenodd" stroke="none"/>
      <path d="M18.9 22.95 Q17.8 21.95 17.25 20.55 16.05 17.7 17.75 15.05 19.5 12.35 23.05 11.45 26.65 10.55 30.05 11.9 L31.55 12.7 Q32.15 13.55 31.9 14.3 30.35 17.85 26.05 20.85 23.2 22.75 18.9 22.95" fill="#8f3600" fill-rule="evenodd" stroke="none"/>
      <path d="M17.45 14.9 Q19.2 12.15 22.95 11.2 26.65 10.25 30.2 11.65 33.7 13.1 34.9 16.0 36.2 19.0 34.4 21.75 32.6 24.5 28.9 25.45 25.15 26.4 21.65 25.0 19.8 24.25 18.6 23.1 17.5 22.05 16.9 20.65 15.65 17.65 17.45 14.9 M31.55 12.7 L30.05 11.9 Q26.65 10.55 23.05 11.45 19.5 12.35 17.75 15.05 16.05 17.7 17.25 20.55 17.8 21.95 18.9 22.95 20.05 24.05 21.8 24.75 25.2 26.1 28.75 25.2 32.4 24.3 34.1 21.65 35.8 18.95 34.6 16.1 33.7 14.0 31.55 12.7" fill="#ca3e02" fill-rule="evenodd" stroke="none"/>
      <path d="M31.55 12.7 Q33.7 14.0 34.6 16.1 35.8 18.95 34.1 21.65 32.4 24.3 28.75 25.2 25.2 26.1 21.8 24.75 20.05 24.05 18.9 22.95 23.2 22.75 26.05 20.85 30.35 17.85 31.9 14.3 32.15 13.55 31.55 12.7" fill="#7e2601" fill-rule="evenodd" stroke="none"/>
      <path d="M17.45 14.9 Q19.2 12.15 22.95 11.2 26.65 10.25 30.2 11.65 33.7 13.1 34.9 16.0 36.2 19.0 34.4 21.75 32.6 24.5 28.9 25.45 25.15 26.4 21.65 25.0 19.8 24.25 18.6 23.1 17.5 22.05 16.9 20.65 15.65 17.65 17.45 14.9 Z" fill="none" stroke="#000000" stroke-linecap="round" stroke-linejoin="round" stroke-opacity="0.3019608" stroke-width="0.30000000000000004"/>
      <path d="M22.3 24.1 L22.4 23.95 Q22.5 23.7 22.8 23.6 L23.35 23.55 23.7 24.05 23.65 24.05 23.55 24.65 23.1 25.1 22.55 25.05 22.3 24.6 22.3 24.1" fill="#000000" fill-opacity="0.3019608" fill-rule="evenodd" stroke="none"/>
      <path d="M23.6 23.85 L23.65 23.85 23.6 23.85" fill="#feb166" fill-rule="evenodd" stroke="none"/>
      <path d="M23.6 23.85 L23.65 23.85 23.6 23.85" fill="#fd7f02" fill-rule="evenodd" stroke="none"/>
      <path d="M23.65 23.85 L23.6 23.85 Q23.25 24.6 22.5 24.3 22.25 24.2 22.3 23.95 L22.35 23.75 22.8 23.35 23.35 23.4 23.65 23.85" fill="#40aead" fill-rule="evenodd" stroke="none"/>
      <path d="M23.65 23.85 L23.55 24.45 23.05 24.9 22.55 24.8 22.25 24.4 22.3 23.95 Q22.25 24.2 22.5 24.3 23.25 24.6 23.6 23.85 L23.65 23.85" fill="#308087" fill-rule="evenodd" stroke="none"/>
      <path d="M23.65 23.85 L23.55 24.45 23.05 24.9 22.55 24.8 22.25 24.4 22.3 23.95 22.35 23.75 22.8 23.35 23.35 23.4 23.65 23.85 Z" fill="none" stroke="#000000" stroke-linecap="round" stroke-linejoin="round" stroke-opacity="0.3019608" stroke-width="0.30000000000000004"/>
      <path d="M22.9 23.6 L22.9 23.65 23.0 23.65 22.9 23.6" fill="#473d16" fill-opacity="0.6509804" fill-rule="evenodd" stroke="none"/>
      <path d="M23.0 23.65 L22.9 23.65 22.7 23.8 Q22.6 24.0 22.65 24.15 L22.75 24.4 22.8 24.45 22.8 24.4 23.05 24.2 23.15 23.85 23.0 23.6 23.0 23.65" fill="#224d79" fill-rule="evenodd" stroke="none"/>
      <path d="M22.9 23.65 L22.9 23.6 22.75 23.65 22.45 23.8 22.4 24.15 22.55 24.4 22.8 24.45 22.75 24.4 22.65 24.15 Q22.6 24.0 22.7 23.8 L22.9 23.65" fill="#224d79" fill-opacity="0.62352943" fill-rule="evenodd" stroke="none"/>
      <path d="M23.0 23.65 L23.0 23.6 23.15 23.85 23.05 24.2 22.8 24.4 22.8 24.45" fill="none" stroke="#000000" stroke-linecap="round" stroke-linejoin="round" stroke-opacity="0.3019608" stroke-width="0.30000000000000004"/>
      <path d="M23.2 26.0 L21.15 25.65 Q20.1 25.15 19.65 24.3 19.2 23.45 19.65 22.75 20.05 22.05 21.05 21.85 22.1 21.7 23.15 22.2 24.2 22.7 24.65 23.55 25.1 24.4 24.7 25.1 24.25 25.85 23.2 26.0" fill="#8f3600" fill-rule="evenodd" stroke="none"/>
      <path d="M23.2 26.0 L21.15 25.65 Q20.1 25.15 19.65 24.3 19.2 23.45 19.65 22.75 20.05 22.05 21.05 21.85 22.1 21.7 23.15 22.2 24.2 22.7 24.65 23.55 25.1 24.4 24.7 25.1 24.25 25.85 23.2 26.0 Z" fill="none" stroke="#000000" stroke-linecap="round" stroke-linejoin="round" stroke-opacity="0.3019608" stroke-width="0.30000000000000004"/>
      <path d="M23.95 23.9 Q24.3 24.65 24.0 25.2 L22.75 25.9 21.05 25.65 Q20.2 25.25 19.8 24.55 19.45 23.85 19.8 23.25 20.15 22.7 21.0 22.55 21.85 22.4 22.7 22.85 23.6 23.25 23.95 23.9" fill="#4b1701" fill-rule="evenodd" stroke="none"/>
      <path d="M20.25 32.3 L22.25 32.25 22.15 33.25 20.4 35.3 19.7 36.2 Q19.15 37.15 19.45 37.9 19.65 38.95 20.55 39.1 21.25 39.0 21.65 38.3 L22.2 37.4 22.1 37.95 22.1 38.0 Q21.65 39.7 20.35 39.85 L19.65 39.85 Q18.45 39.05 17.9 37.65 17.55 36.4 18.35 35.2 L18.6 34.85 Q19.75 33.95 20.25 32.45 L20.25 32.3" fill="#11443f" fill-rule="evenodd" stroke="none"/>
      <path d="M19.65 39.85 Q17.85 39.7 16.9 37.7 16.55 36.4 16.9 35.65 L17.75 34.25 18.7 32.5 18.75 32.25 20.25 32.3 20.25 32.45 Q19.75 33.95 18.6 34.85 L18.35 35.2 Q17.55 36.4 17.9 37.65 18.45 39.05 19.65 39.85" fill="#0c302c" fill-rule="evenodd" stroke="none"/>
      <path d="M22.25 32.25 L22.65 32.25 22.5 32.7 22.15 33.25 22.25 32.25 M19.45 37.9 Q20.0 39.0 20.9 38.35 21.25 37.85 21.05 37.65 L20.95 37.2 21.55 36.8 Q22.2 36.8 22.2 37.4 L21.65 38.3 Q21.25 39.0 20.55 39.1 19.65 38.95 19.45 37.9" fill="#176058" fill-rule="evenodd" stroke="none"/>
      <path d="M19.65 39.85 Q17.85 39.7 16.9 37.7 16.55 36.4 16.9 35.65 L17.75 34.25 18.7 32.5 18.75 32.25 M22.65 32.25 L22.5 32.7 22.15 33.25 20.4 35.3 19.7 36.2 Q19.15 37.15 19.45 37.9 20.0 39.0 20.9 38.35 21.25 37.85 21.05 37.65 L20.95 37.2 21.55 36.8 Q22.2 36.8 22.2 37.4 L22.1 37.95 22.1 38.0 Q21.65 39.7 20.35 39.85 L19.65 39.85 Z" fill="none" stroke="#000000" stroke-linecap="round" stroke-linejoin="round" stroke-opacity="0.3019608" stroke-width="0.30000000000000004"/>
      <path d="M16.6 36.1 L16.7 35.85 Q16.8 35.4 17.2 35.15 L17.9 35.05 Q18.3 35.1 18.5 35.55 18.7 35.95 18.55 36.45 L18.05 37.15 17.35 37.3 16.75 36.75 16.6 36.1" fill="#000000" fill-opacity="0.3019608" fill-rule="evenodd" stroke="none"/>
      <path d="M16.65 35.95 L16.65 35.7 17.15 35.0 Q17.5 34.75 17.9 34.85 L18.45 35.4 Q18.1 36.55 17.05 36.45 16.65 36.35 16.65 35.95" fill="#40aead" fill-rule="evenodd" stroke="none"/>
      <path d="M18.45 35.4 L18.55 36.25 18.05 37.0 17.3 37.15 16.7 36.6 16.65 35.95 Q16.65 36.35 17.05 36.45 18.1 36.55 18.45 35.4" fill="#308087" fill-rule="evenodd" stroke="none"/>
      <path d="M18.45 35.4 L18.55 36.25 18.05 37.0 17.3 37.15 16.7 36.6 16.65 35.95 16.65 35.7 17.15 35.0 Q17.5 34.75 17.9 34.85 L18.45 35.4 Z" fill="none" stroke="#000000" stroke-linecap="round" stroke-linejoin="round" stroke-opacity="0.3019608" stroke-width="0.30000000000000004"/>
      <path d="M17.5 35.3 L17.4 35.25 17.5 35.3" fill="#473d16" fill-opacity="0.6509804" fill-rule="evenodd" stroke="none"/>
      <path d="M17.5 35.3 L17.4 35.25 17.15 35.65 17.15 36.15 17.4 36.45 17.5 36.45 17.8 36.05 17.8 35.55 17.55 35.25 17.5 35.3" fill="#224d79" fill-rule="evenodd" stroke="none"/>
      <path d="M17.5 36.45 L17.4 36.45 17.15 36.15 17.15 35.65 17.4 35.25 17.15 35.35 Q16.95 35.5 16.9 35.75 L16.85 36.2 17.1 36.45 17.5 36.45" fill="#224d79" fill-opacity="0.62352943" fill-rule="evenodd" stroke="none"/>
      <path d="M17.5 35.3 L17.55 35.25 17.8 35.55 17.8 36.05 17.5 36.45" fill="none" stroke="#000000" stroke-linecap="round" stroke-linejoin="round" stroke-opacity="0.3019608" stroke-width="0.30000000000000004"/>
      <path d="M11.7 24.4 Q12.45 24.05 12.3 24.8 L11.8 25.75 Q11.2 27.7 12.6 28.7 14.05 29.25 14.95 30.0 L15.6 30.7 Q16.15 31.35 16.3 32.2 L15.85 32.6 15.7 32.7 15.25 33.0 15.15 32.15 15.15 32.05 13.85 30.35 13.2 29.95 Q11.7 29.25 11.25 27.9 11.05 26.9 11.25 26.35 11.6 25.45 11.3 25.4 L10.45 26.5 Q11.1 25.1 11.7 24.4" fill="#11443f" fill-rule="evenodd" stroke="none"/>
      <path d="M13.9 34.3 L13.9 33.2 Q13.25 32.0 11.85 30.95 L11.25 30.55 Q9.25 29.2 10.45 26.55 L10.45 26.5 11.3 25.4 Q11.6 25.45 11.25 26.35 11.05 26.9 11.25 27.9 11.7 29.25 13.2 29.95 L13.85 30.35 15.15 32.05 15.15 32.15 15.25 33.0 13.9 34.3" fill="#0c302c" fill-rule="evenodd" stroke="none"/>
      <path d="M11.7 24.4 Q12.2 23.85 12.65 23.75 13.65 23.6 13.05 24.35 12.45 25.1 12.4 25.8 12.25 27.6 13.8 28.25 L15.8 29.0 16.5 29.55 17.0 30.2 Q16.9 31.4 16.3 32.2 16.15 31.35 15.6 30.7 L14.95 30.0 Q14.05 29.25 12.6 28.7 11.2 27.7 11.8 25.75 L12.3 24.8 Q12.45 24.05 11.7 24.4" fill="#176058" fill-rule="evenodd" stroke="none"/>
      <path d="M17.0 30.2 L16.5 29.55 15.8 29.0 13.8 28.25 Q12.25 27.6 12.4 25.8 12.45 25.1 13.05 24.35 13.65 23.6 12.65 23.75 12.2 23.85 11.7 24.4 M10.45 26.5 L10.45 26.55 Q9.25 29.2 11.25 30.55 L11.85 30.95 Q13.25 32.0 13.9 33.2 L13.9 34.3 M10.45 26.5 Q11.1 25.1 11.7 24.4" fill="none" stroke="#000000" stroke-linecap="round" stroke-linejoin="round" stroke-opacity="0.3019608" stroke-width="0.30000000000000004"/>
      <path d="M12.7 32.05 L12.45 31.85 Q12.05 31.45 12.05 30.9 11.95 30.35 12.3 30.05 12.65 29.7 13.2 29.75 L14.1 30.25 Q14.5 30.65 14.55 31.2 14.6 31.7 14.25 32.1 L13.4 32.35 Q13.0 32.3 12.7 32.05" fill="#000000" fill-opacity="0.3019608" fill-rule="evenodd" stroke="none"/>
      <path d="M12.95 29.65 L13.0 29.65 12.95 29.65" fill="#feb166" fill-rule="evenodd" stroke="none"/>
      <path d="M12.95 29.65 L13.0 29.65 12.95 29.65" fill="#fd7f02" fill-rule="evenodd" stroke="none"/>
      <path d="M12.45 31.9 L12.25 31.7 Q11.85 31.3 11.8 30.8 11.75 30.25 12.05 29.9 12.45 29.55 12.95 29.65 L13.0 29.65 Q13.9 30.75 13.2 31.8 L12.45 31.9" fill="#40aead" fill-rule="evenodd" stroke="none"/>
      <path d="M13.0 29.65 Q13.45 29.7 13.9 30.1 14.25 30.5 14.3 31.05 14.4 31.6 14.05 31.95 L13.2 32.25 12.45 31.9 13.2 31.8 Q13.9 30.75 13.0 29.65" fill="#308087" fill-rule="evenodd" stroke="none"/>
      <path d="M13.0 29.65 L12.95 29.65 M13.0 29.65 Q13.45 29.7 13.9 30.1 14.25 30.5 14.3 31.05 14.4 31.6 14.05 31.95 L13.2 32.25 12.45 31.9 12.25 31.7 Q11.85 31.3 11.8 30.8 11.75 30.25 12.05 29.9 12.45 29.55 12.95 29.65" fill="none" stroke="#000000" stroke-linecap="round" stroke-linejoin="round" stroke-opacity="0.3019608" stroke-width="0.30000000000000004"/>
      <path d="M12.25 30.7 L12.25 30.75 12.3 30.7 12.25 30.7" fill="#473d16" fill-opacity="0.6509804" fill-rule="evenodd" stroke="none"/>
      <path d="M12.3 30.7 L12.25 30.75 12.5 31.25 12.95 31.55 13.4 31.45 13.45 31.35 13.25 30.75 12.75 30.5 12.3 30.6 12.3 30.7" fill="#224d79" fill-rule="evenodd" stroke="none"/>
      <path d="M12.25 30.75 L12.25 30.7 12.15 31.05 12.35 31.55 12.85 31.85 13.3 31.75 13.45 31.35 13.4 31.45 12.95 31.55 12.5 31.25 12.25 30.75" fill="#224d79" fill-opacity="0.62352943" fill-rule="evenodd" stroke="none"/>
      <path d="M12.3 30.7 L12.3 30.6 12.75 30.5 13.25 30.75 13.45 31.35" fill="none" stroke="#000000" stroke-linecap="round" stroke-linejoin="round" stroke-opacity="0.3019608" stroke-width="0.30000000000000004"/>
      <path d="M22.8 23.45 L23.05 23.6 23.7 24.9 17.3 36.15 17.25 36.2 Q13.9 41.5 11.3 46.55 L11.35 46.6 10.6 47.55 10.85 46.35 10.45 45.2 12.25 42.3 13.4 40.4 14.1 39.35 Q16.05 35.85 17.85 33.3 L18.1 32.85 22.8 24.95 Q23.15 24.2 22.8 23.45" fill="#8f3600" fill-rule="evenodd" stroke="none"/>
      <path d="M10.6 47.55 L7.7 47.65 7.65 47.6 7.0 46.85 6.6 46.1 Q6.1 45.3 6.15 45.0 L6.25 44.45 6.05 44.05 6.0 44.05 8.5 40.7 20.5 23.4 22.0 23.25 Q22.7 23.5 22.45 24.85 L19.25 30.2 17.5 33.35 13.4 40.4 12.25 42.3 10.25 44.9 Q9.65 44.45 8.75 44.2 10.3 44.9 10.85 46.35 L10.6 47.55" fill="#cc6b22" fill-rule="evenodd" stroke="none"/>
      <path d="M7.65 47.6 L7.35 47.4 Q4.4 45.4 6.3 43.1 L6.3 43.05 6.6 42.65 Q9.85 38.55 12.6 33.95 L14.5 31.15 20.4 22.9 22.25 23.05 22.6 23.25 22.8 23.45 Q23.15 24.2 22.8 24.95 L18.1 32.85 17.85 33.3 Q16.05 35.85 14.1 39.35 L13.4 40.4 17.5 33.35 19.25 30.2 22.45 24.85 Q22.7 23.5 22.0 23.25 L20.5 23.4 8.5 40.7 6.0 44.05 6.05 44.05 6.25 44.45 6.15 45.0 Q6.1 45.3 6.6 46.1 L7.0 46.85 7.65 47.6 M12.25 42.3 L10.45 45.2 10.85 46.35 Q10.3 44.9 8.75 44.2 9.65 44.45 10.25 44.9 L12.25 42.3" fill="#f49302" fill-rule="evenodd" stroke="none"/>
      <path d="M7.65 47.6 L7.35 47.4 Q4.4 45.4 6.3 43.1 L6.3 43.05 6.6 42.65 Q9.85 38.55 12.6 33.95 L14.5 31.15 20.4 22.9 22.25 23.05 22.6 23.25 22.8 23.45 23.05 23.6 23.7 24.9 17.3 36.15 17.25 36.2 Q13.9 41.5 11.3 46.55 M11.35 46.6 L10.6 47.55 7.7 47.65 7.65 47.6 Z" fill="none" stroke="#000000" stroke-linecap="round" stroke-linejoin="round" stroke-opacity="0.3019608" stroke-width="0.30000000000000004"/>
      <path d="M8.95 41.45 Q8.55 41.45 8.5 40.95 L8.4 41.45 Q8.4 42.15 8.8 42.4 9.25 42.55 9.9 42.1 L10.35 41.8 10.2 41.9 9.3 42.15 Q8.95 42.0 8.95 41.45" fill="#35171e" fill-opacity="0.7019608" fill-rule="evenodd" stroke="none"/>
      <path d="M8.5 40.95 Q8.55 41.45 8.95 41.45 L8.95 41.35 Q8.95 40.85 9.35 40.2 9.75 39.55 10.25 39.25 10.8 38.85 11.15 39.05 11.5 39.2 11.45 39.75 L11.45 40.1 11.55 39.4 Q11.65 38.7 11.15 38.55 L10.05 38.7 8.95 39.95 8.5 40.95" fill="#54242d" fill-opacity="0.7019608" fill-rule="evenodd" stroke="none"/>
      <path d="M11.45 40.1 L11.45 39.75 Q11.5 39.2 11.15 39.05 10.8 38.85 10.25 39.25 9.75 39.55 9.35 40.2 8.95 40.85 8.95 41.35 L8.95 41.45 Q8.95 42.0 9.3 42.15 L10.2 41.9 10.35 41.8 11.1 40.95 11.45 40.1" fill="#431217" fill-rule="evenodd" stroke="none"/>
      <path d="M12.35 36.15 L11.9 35.65 11.9 36.05 Q11.95 36.65 12.4 36.8 L13.3 36.7 13.6 36.45 13.5 36.6 12.7 36.7 12.35 36.15" fill="#35171e" fill-opacity="0.7019608" fill-rule="evenodd" stroke="none"/>
      <path d="M12.35 36.15 L12.35 36.05 Q12.3 35.6 12.55 35.1 12.8 34.6 13.2 34.35 L13.95 34.25 Q14.3 34.4 14.35 34.85 L14.35 35.15 14.4 34.6 Q14.35 34.0 13.95 33.85 L12.95 33.95 Q12.45 34.25 12.15 34.9 11.95 35.3 11.9 35.65 L12.35 36.15" fill="#54242d" fill-opacity="0.7019608" fill-rule="evenodd" stroke="none"/>
      <path d="M14.35 35.15 L14.35 34.85 Q14.3 34.4 13.95 34.25 L13.2 34.35 Q12.8 34.6 12.55 35.1 12.3 35.6 12.35 36.05 L12.35 36.15 12.7 36.7 13.5 36.6 13.6 36.45 14.15 35.8 14.35 35.15" fill="#431217" fill-rule="evenodd" stroke="none"/>
      <path d="M13.65 38.35 L13.75 38.25 14.25 38.15 14.5 38.6 14.75 39.0 14.8 38.7 Q14.75 38.2 14.5 38.05 L13.9 38.15 13.65 38.35" fill="#35171e" fill-opacity="0.7019608" fill-rule="evenodd" stroke="none"/>
      <path d="M14.75 39.0 L14.5 38.6 14.5 38.7 14.25 39.45 13.7 40.1 13.2 40.15 13.0 39.65 13.05 39.4 12.95 39.85 Q12.95 40.35 13.25 40.5 L13.85 40.4 Q14.25 40.2 14.45 39.65 L14.75 39.0" fill="#54242d" fill-opacity="0.7019608" fill-rule="evenodd" stroke="none"/>
      <path d="M14.5 38.6 L14.25 38.15 13.75 38.25 13.65 38.35 13.25 38.85 13.05 39.4 13.0 39.65 13.2 40.15 13.7 40.1 14.25 39.45 14.5 38.7 14.5 38.6" fill="#431217" fill-rule="evenodd" stroke="none"/>
      <path d="M12.6 43.4 L12.6 43.1 12.3 42.75 Q12.0 42.7 11.75 43.0 L11.55 43.25 11.65 43.15 Q11.85 42.9 12.05 42.95 L12.3 43.2 Q12.55 43.2 12.6 43.4" fill="#35171e" fill-opacity="0.7019608" fill-rule="evenodd" stroke="none"/>
      <path d="M11.15 44.3 L11.15 44.7 11.45 45.05 12.0 44.8 12.45 43.95 12.6 43.4 Q12.55 43.2 12.3 43.2 L12.3 43.25 12.2 43.9 11.9 44.6 11.4 44.8 11.2 44.5 11.15 44.3" fill="#54242d" fill-opacity="0.7019608" fill-rule="evenodd" stroke="none"/>
      <path d="M11.55 43.25 L11.25 43.8 11.15 44.3 11.2 44.5 11.4 44.8 11.9 44.6 12.2 43.9 12.3 43.25 12.3 43.2 12.05 42.95 Q11.85 42.9 11.65 43.15 L11.55 43.25" fill="#431217" fill-rule="evenodd" stroke="none"/>
      <path d="M6.9 45.2 Q6.5 45.45 6.7 45.95 L6.4 45.5 Q6.1 44.85 6.45 44.5 6.8 44.15 7.55 44.25 L8.05 44.4 7.85 44.35 Q7.2 44.25 6.95 44.55 6.75 44.8 6.9 45.2" fill="#35171e" fill-opacity="0.7019608" fill-rule="evenodd" stroke="none"/>
      <path d="M6.9 45.2 L6.95 45.3 7.75 46.25 9.0 46.85 9.9 46.65 Q10.15 46.4 9.9 45.85 L9.7 45.55 10.15 46.15 Q10.4 46.75 10.1 47.15 L8.95 47.35 Q8.25 47.2 7.45 46.65 L6.7 45.95 Q6.5 45.45 6.9 45.2" fill="#54242d" fill-opacity="0.7019608" fill-rule="evenodd" stroke="none"/>
      <path d="M9.7 45.55 L9.9 45.85 Q10.15 46.4 9.9 46.65 L9.0 46.85 7.75 46.25 6.95 45.3 6.9 45.2 Q6.75 44.8 6.95 44.55 7.2 44.25 7.85 44.35 L8.05 44.4 9.1 44.9 9.7 45.55" fill="#431217" fill-rule="evenodd" stroke="none"/>
      <path d="M19.75 30.9 L19.35 31.15 18.4 31.1 Q18.05 30.75 18.2 30.05 L18.4 29.55 18.3 29.8 Q18.2 30.3 18.45 30.6 L19.15 30.65 Q19.3 31.05 19.75 30.9" fill="#35171e" fill-opacity="0.7019608" fill-rule="evenodd" stroke="none"/>
      <path d="M19.45 28.0 L20.05 27.6 20.95 27.7 Q21.3 28.0 21.2 28.75 L20.5 30.2 19.75 30.9 Q19.3 31.05 19.15 30.65 L19.2 30.65 20.15 29.9 20.65 28.7 Q20.75 28.1 20.5 27.85 20.25 27.65 19.8 27.85 L19.45 28.0" fill="#54242d" fill-opacity="0.7019608" fill-rule="evenodd" stroke="none"/>
      <path d="M18.4 29.55 Q18.5 29.1 18.9 28.6 L19.45 28.0 19.8 27.85 Q20.25 27.65 20.5 27.85 20.75 28.1 20.65 28.7 L20.15 29.9 19.2 30.65 19.15 30.65 18.45 30.6 Q18.2 30.3 18.3 29.8 L18.4 29.55" fill="#431217" fill-rule="evenodd" stroke="none"/>
      <path d="M19.6 24.9 L19.1 24.95 19.35 24.7 Q19.75 24.35 20.0 24.5 20.25 24.6 20.3 25.05 L20.3 25.4 20.25 25.25 20.05 24.8 19.6 24.9" fill="#35171e" fill-opacity="0.7019608" fill-rule="evenodd" stroke="none"/>
      <path d="M19.6 24.9 L19.55 24.95 Q19.25 25.15 19.1 25.6 L18.9 26.4 Q18.95 26.8 19.15 26.9 L19.65 26.75 19.85 26.6 19.5 26.95 18.85 27.1 Q18.6 27.0 18.55 26.5 L18.8 25.5 19.1 24.95 19.6 24.9" fill="#54242d" fill-opacity="0.7019608" fill-rule="evenodd" stroke="none"/>
      <path d="M19.85 26.6 L19.65 26.75 19.15 26.9 Q18.95 26.8 18.9 26.4 L19.1 25.6 Q19.25 25.15 19.55 24.95 L19.6 24.9 20.05 24.8 20.25 25.25 20.3 25.4 20.15 26.1 19.85 26.6" fill="#431217" fill-rule="evenodd" stroke="none"/>
      <path d="M17.7 28.8 L17.7 28.7 17.55 28.3 17.1 28.3 16.7 28.25 16.9 28.1 17.5 28.05 17.7 28.55 17.7 28.8" fill="#35171e" fill-opacity="0.7019608" fill-rule="evenodd" stroke="none"/>
      <path d="M16.7 28.25 L17.1 28.3 17.05 28.3 16.65 28.75 16.5 29.35 Q16.5 29.65 16.65 29.75 L17.1 29.7 17.25 29.65 17.0 29.8 16.45 29.85 Q16.25 29.75 16.2 29.35 16.15 29.0 16.4 28.65 L16.7 28.25" fill="#54242d" fill-opacity="0.7019608" fill-rule="evenodd" stroke="none"/>
      <path d="M17.1 28.3 L17.55 28.3 17.7 28.7 17.7 28.8 17.55 29.3 17.25 29.65 17.1 29.7 16.65 29.75 Q16.5 29.65 16.5 29.35 L16.65 28.75 17.05 28.3 17.1 28.3" fill="#431217" fill-rule="evenodd" stroke="none"/>
      <path d="M10.45 36.55 L10.2 36.5 9.55 36.1 9.15 35.45 Q9.15 35.1 9.4 34.9 10.45 35.1 10.7 36.1 10.75 36.5 10.45 36.55" fill="#40aead" fill-rule="evenodd" stroke="none"/>
      <path d="M9.4 34.9 L10.1 34.75 10.85 35.15 11.2 35.8 10.9 36.35 10.45 36.55 Q10.75 36.5 10.7 36.1 10.45 35.1 9.4 34.9" fill="#308087" fill-rule="evenodd" stroke="none"/>
      <path d="M9.4 34.9 L10.1 34.75 10.85 35.15 11.2 35.8 10.9 36.35 10.45 36.55 10.2 36.5 9.55 36.1 9.15 35.45 Q9.15 35.1 9.4 34.9 Z" fill="none" stroke="#000000" stroke-linecap="round" stroke-linejoin="round" stroke-opacity="0.3019608" stroke-width="0.30000000000000004"/>
      <path d="M8.55 35.75 L8.45 35.8 7.9 36.2 7.3 36.1 Q7.0 35.95 7.05 35.7 7.65 35.1 8.4 35.35 L8.55 35.75" fill="#40aead" fill-rule="evenodd" stroke="none"/>
      <path d="M7.05 35.7 L7.2 35.15 7.8 34.85 8.4 34.9 8.65 35.35 8.55 35.75 8.4 35.35 Q7.65 35.1 7.05 35.7" fill="#308087" fill-rule="evenodd" stroke="none"/>
      <path d="M7.05 35.7 L7.2 35.15 7.8 34.85 8.4 34.9 8.65 35.35 8.55 35.75 8.45 35.8 7.9 36.2 7.3 36.1 Q7.0 35.95 7.05 35.7 Z" fill="none" stroke="#000000" stroke-linecap="round" stroke-linejoin="round" stroke-opacity="0.3019608" stroke-width="0.30000000000000004"/>
      <path d="M6.5 37.7 L6.5 37.65 6.5 37.7" fill="#feb166" fill-rule="evenodd" stroke="none"/>
      <path d="M6.5 37.7 L6.5 37.65 Q6.25 37.1 6.65 36.65 6.8 36.5 6.95 36.65 L6.95 36.75 7.05 37.2 6.85 37.6 6.5 37.7" fill="#40aead" fill-rule="evenodd" stroke="none"/>
      <path d="M6.5 37.65 L6.25 37.4 6.15 36.9 6.4 36.5 6.7 36.45 6.95 36.65 Q6.8 36.5 6.65 36.65 6.25 37.1 6.5 37.65" fill="#308087" fill-rule="evenodd" stroke="none"/>
      <path d="M6.5 37.65 L6.5 37.7 M6.5 37.65 L6.25 37.4 6.15 36.9 6.4 36.5 6.7 36.45 6.95 36.65 6.95 36.75 7.05 37.2 6.85 37.6 6.5 37.7" fill="none" stroke="#000000" stroke-linecap="round" stroke-linejoin="round" stroke-opacity="0.3019608" stroke-width="0.30000000000000004"/>
      <path d="M9.95 29.2 L9.95 29.0 Q10.0 28.55 10.2 28.2 10.5 27.9 10.85 27.95 L11.4 28.3 11.45 28.3 11.7 29.05 11.4 29.8 10.75 30.1 10.15 29.75 9.95 29.2" fill="#000000" fill-opacity="0.3019608" fill-rule="evenodd" stroke="none"/>
      <path d="M9.9 29.0 L9.85 28.75 10.15 28.0 Q10.4 27.7 10.8 27.7 L11.35 28.05 Q11.3 29.15 10.35 29.3 L9.9 29.0" fill="#40aead" fill-rule="evenodd" stroke="none"/>
      <path d="M11.35 28.05 L11.6 28.8 11.3 29.55 10.7 29.85 Q10.3 29.85 10.1 29.5 L9.9 29.0 10.35 29.3 Q11.3 29.15 11.35 28.05" fill="#308087" fill-rule="evenodd" stroke="none"/>
      <path d="M11.35 28.05 L11.6 28.8 11.3 29.55 10.7 29.85 Q10.3 29.85 10.1 29.5 L9.9 29.0 9.85 28.75 10.15 28.0 Q10.4 27.7 10.8 27.7 L11.35 28.05 Z" fill="none" stroke="#000000" stroke-linecap="round" stroke-linejoin="round" stroke-opacity="0.3019608" stroke-width="0.30000000000000004"/>
      <path d="M10.45 28.25 L10.4 28.25 10.45 28.25" fill="#473d16" fill-opacity="0.6509804" fill-rule="evenodd" stroke="none"/>
      <path d="M10.45 28.25 L10.4 28.25 10.25 28.65 10.35 29.1 10.6 29.25 10.75 29.3 10.75 29.25 10.9 28.85 10.8 28.4 10.55 28.25 10.45 28.25" fill="#224d79" fill-rule="evenodd" stroke="none"/>
      <path d="M10.4 28.25 L10.45 28.25 10.2 28.4 10.0 28.8 10.15 29.15 10.4 29.4 10.75 29.3 10.6 29.25 10.35 29.1 10.25 28.65 10.4 28.25" fill="#224d79" fill-opacity="0.62352943" fill-rule="evenodd" stroke="none"/>
      <path d="M10.45 28.25 L10.55 28.25 10.8 28.4 10.9 28.85 10.75 29.25 10.75 29.3" fill="none" stroke="#000000" stroke-linecap="round" stroke-linejoin="round" stroke-opacity="0.3019608" stroke-width="0.30000000000000004"/>
      <path d="M12.95 40.15 L13.9 40.55 17.2 40.65 Q17.45 40.6 17.95 41.0 18.35 41.45 18.5 41.1 L18.45 41.0 Q18.3 41.1 17.85 40.7 17.35 40.2 16.35 40.3 L15.55 40.45 14.15 40.35 13.35 40.05 13.0 39.75 13.0 39.9 13.0 40.15 12.95 40.15 M17.0 39.75 L16.25 39.55 14.8 38.6 14.5 38.1 14.1 38.1 14.4 38.3 14.8 38.8 15.75 39.55 16.25 39.7 17.0 39.75" fill="#11443f" fill-rule="evenodd" stroke="none"/>
      <path d="M12.95 40.15 L13.0 40.3 13.65 40.65 15.4 41.05 17.05 41.0 Q17.55 40.95 18.0 41.45 L18.45 41.4 18.5 41.1 Q18.35 41.45 17.95 41.0 17.45 40.6 17.2 40.65 L13.9 40.55 12.95 40.15" fill="#0c302c" fill-rule="evenodd" stroke="none"/>
      <path d="M18.45 41.0 L17.95 40.35 17.0 39.75 16.25 39.7 15.75 39.55 14.8 38.8 14.4 38.3 14.1 38.1 13.8 38.3 13.7 38.4 Q13.4 38.7 13.2 39.15 L13.0 39.75 13.35 40.05 14.15 40.35 15.55 40.45 16.35 40.3 Q17.35 40.2 17.85 40.7 18.3 41.1 18.45 41.0" fill="#176058" fill-rule="evenodd" stroke="none"/>
      <path d="M18.5 41.1 L18.45 41.4 18.0 41.45 Q17.55 40.95 17.05 41.0 L15.4 41.05 13.65 40.65 13.0 40.3 12.95 40.15 M18.5 41.1 L18.45 41.0 17.95 40.35 17.0 39.75 16.25 39.55 14.8 38.6 14.5 38.1 14.1 38.1 13.8 38.3 13.7 38.4 Q13.4 38.7 13.2 39.15 L13.0 39.75 13.0 39.9 13.0 40.15 12.95 40.15" fill="none" stroke="#000000" stroke-linecap="round" stroke-linejoin="round" stroke-opacity="0.3019608" stroke-width="0.30000000000000004"/>
      <path d="M14.35 40.85 L14.55 40.85 15.1 40.7 15.35 40.25 15.2 39.75 14.65 39.5 14.05 39.6 13.75 40.1 13.95 40.6 14.35 40.85" fill="#000000" fill-opacity="0.3019608" fill-rule="evenodd" stroke="none"/>
      <path d="M15.3 39.85 L15.25 39.85 15.3 39.85" fill="#feb166" fill-rule="evenodd" stroke="none"/>
      <path d="M15.3 39.85 L15.25 39.85 15.3 39.85" fill="#fd7f02" fill-rule="evenodd" stroke="none"/>
      <path d="M14.45 40.85 L14.6 40.9 15.2 40.8 15.5 40.3 15.3 39.85 15.25 39.85 Q14.45 39.8 14.25 40.5 14.2 40.8 14.45 40.85" fill="#40aead" fill-rule="evenodd" stroke="none"/>
      <path d="M15.25 39.85 L14.75 39.55 14.15 39.7 Q13.9 39.85 13.9 40.15 L14.05 40.7 14.45 40.85 Q14.2 40.8 14.25 40.5 14.45 39.8 15.25 39.85" fill="#308087" fill-rule="evenodd" stroke="none"/>
      <path d="M15.25 39.85 L15.3 39.85 M15.25 39.85 L14.75 39.55 14.15 39.7 Q13.9 39.85 13.9 40.15 L14.05 40.7 14.45 40.85 14.6 40.9 15.2 40.8 15.5 40.3 15.3 39.85" fill="none" stroke="#000000" stroke-linecap="round" stroke-linejoin="round" stroke-opacity="0.3019608" stroke-width="0.30000000000000004"/>
      <path d="M15.1 40.6 L15.1 40.55 15.1 40.6" fill="#473d16" fill-opacity="0.6509804" fill-rule="evenodd" stroke="none"/>
      <path d="M15.1 40.55 L14.75 40.7 14.45 40.55 14.35 40.3 14.35 40.25 14.4 40.25 Q14.5 40.1 14.7 40.1 L15.0 40.25 15.15 40.5 15.1 40.55" fill="#224d79" fill-rule="evenodd" stroke="none"/>
      <path d="M15.1 40.55 L15.1 40.6 15.0 40.75 14.65 40.85 Q14.45 40.85 14.35 40.7 L14.25 40.5 14.35 40.25 14.35 40.3 14.45 40.55 14.75 40.7 15.1 40.55" fill="#224d79" fill-opacity="0.62352943" fill-rule="evenodd" stroke="none"/>
      <path d="M15.1 40.55 L15.15 40.5 15.0 40.25 14.7 40.1 Q14.5 40.1 14.4 40.25 L14.35 40.25" fill="none" stroke="#000000" stroke-linecap="round" stroke-linejoin="round" stroke-opacity="0.3019608" stroke-width="0.30000000000000004"/>
      <path d="M16.2 40.95 L16.35 41.0 16.75 40.9 17.0 40.55 16.85 40.2 16.45 40.0 16.0 40.1 Q15.85 40.25 15.85 40.45 15.75 40.65 15.95 40.8 L16.2 40.95" fill="#000000" fill-opacity="0.3019608" fill-rule="evenodd" stroke="none"/>
      <path d="M16.35 41.0 L16.45 41.05 16.9 40.95 17.05 40.65 16.95 40.25 Q16.3 40.2 16.2 40.7 L16.35 41.0" fill="#40aead" fill-rule="evenodd" stroke="none"/>
      <path d="M16.95 40.25 Q16.75 40.1 16.55 40.1 L16.15 40.15 15.9 40.5 16.05 40.85 Q16.15 41.0 16.35 41.0 L16.2 40.7 Q16.3 40.2 16.95 40.25" fill="#308087" fill-rule="evenodd" stroke="none"/>
      <path d="M16.95 40.25 Q16.75 40.1 16.55 40.1 L16.15 40.15 15.9 40.5 16.05 40.85 Q16.15 41.0 16.35 41.0 L16.45 41.05 16.9 40.95 17.05 40.65 16.95 40.25 Z" fill="none" stroke="#000000" stroke-linecap="round" stroke-linejoin="round" stroke-opacity="0.3019608" stroke-width="0.30000000000000004"/>
      <path d="M16.75 40.75 L16.55 40.8 16.35 40.75 16.25 40.55 16.25 40.5 16.5 40.45 16.7 40.5 16.8 40.7 16.75 40.75" fill="#224d79" fill-rule="evenodd" stroke="none"/>
      <path d="M16.25 40.5 L16.25 40.55 16.35 40.75 16.55 40.8 16.75 40.75 16.7 40.85 16.45 40.9 16.25 40.85 16.15 40.65 16.25 40.5" fill="#224d79" fill-opacity="0.62352943" fill-rule="evenodd" stroke="none"/>
      <path d="M16.75 40.75 L16.8 40.7 16.7 40.5 16.5 40.45 16.25 40.5" fill="none" stroke="#000000" stroke-linecap="round" stroke-linejoin="round" stroke-opacity="0.3019608" stroke-width="0.30000000000000004"/>
      <path d="M18.85 28.8 L19.8 29.15 Q20.9 29.45 21.55 30.25 L22.1 31.05 22.25 32.3 22.25 32.55 20.5 33.5 20.15 33.25 20.25 32.3 20.0 31.4 Q19.5 30.6 18.45 30.4 18.5 29.5 18.85 28.8" fill="#11443f" fill-rule="evenodd" stroke="none"/>
      <path d="M18.45 30.4 Q19.5 30.6 20.0 31.4 L20.25 32.3 20.15 33.25 19.45 32.65 19.1 31.7 18.85 31.25 18.65 31.05 18.4 30.65 18.45 30.4" fill="#0c302c" fill-rule="evenodd" stroke="none"/>
      <path d="M22.25 32.55 L22.25 32.3 22.1 31.05 21.55 30.25 Q20.9 29.45 19.8 29.15 L18.85 28.8 Q19.5 28.0 20.15 27.75 20.7 27.8 21.25 28.2 L22.55 29.8 Q23.05 30.95 22.65 32.3 L22.25 32.55" fill="#176058" fill-rule="evenodd" stroke="none"/>
      <path d="M22.65 32.3 Q23.05 30.95 22.55 29.8 L21.25 28.2 Q20.7 27.8 20.15 27.75 19.5 28.0 18.85 28.8 18.5 29.5 18.45 30.4 M19.45 32.65 L19.1 31.7 18.85 31.25 18.65 31.05 18.4 30.65 18.45 30.4" fill="none" stroke="#000000" stroke-linecap="round" stroke-linejoin="round" stroke-opacity="0.3019608" stroke-width="0.30000000000000004"/>
      <path d="M19.1 31.6 L18.9 31.45 Q18.45 31.05 18.3 30.45 18.2 29.9 18.5 29.45 18.75 29.0 19.3 28.95 L20.2 29.25 20.8 30.25 Q20.9 30.85 20.6 31.25 L19.85 31.75 19.1 31.6" fill="#000000" fill-opacity="0.3019608" fill-rule="evenodd" stroke="none"/>
      <path d="M19.0 28.85 Q20.1 29.8 19.55 31.2 19.25 31.6 18.9 31.45 L18.65 31.35 18.35 30.95 Q18.0 30.25 18.8 28.9 L19.0 28.85" fill="#40aead" fill-rule="evenodd" stroke="none"/>
      <path d="M19.0 28.85 Q19.55 28.75 20.0 29.2 20.45 29.6 20.5 30.1 L20.35 31.15 19.6 31.65 18.9 31.45 Q19.25 31.6 19.55 31.2 20.1 29.8 19.0 28.85" fill="#308087" fill-rule="evenodd" stroke="none"/>
      <path d="M18.9 31.45 L19.6 31.65 20.35 31.15 20.5 30.1 Q20.45 29.6 20.0 29.2 19.55 28.75 19.0 28.85 M18.9 31.45 L18.65 31.35 18.35 30.95 Q18.0 30.25 18.8 28.9 L19.0 28.85" fill="none" stroke="#000000" stroke-linecap="round" stroke-linejoin="round" stroke-opacity="0.3019608" stroke-width="0.30000000000000004"/>
      <path d="M18.6 30.2 L18.6 30.25 18.6 30.2" fill="#473d16" fill-opacity="0.6509804" fill-rule="evenodd" stroke="none"/>
      <path d="M18.6 30.2 L18.6 30.25 18.9 30.8 19.4 31.0 19.8 30.8 19.8 30.65 19.85 30.6 19.55 30.1 19.05 29.9 18.65 30.1 18.6 30.2" fill="#224d79" fill-rule="evenodd" stroke="none"/>
      <path d="M19.8 30.65 L19.8 30.8 19.4 31.0 18.9 30.8 18.6 30.25 Q18.5 30.45 18.55 30.6 L18.8 31.15 19.3 31.4 19.7 31.15 19.8 30.65" fill="#224d79" fill-opacity="0.62352943" fill-rule="evenodd" stroke="none"/>
      <path d="M18.6 30.2 L18.65 30.1 19.05 29.9 19.55 30.1 19.85 30.6 19.8 30.65" fill="none" stroke="#000000" stroke-linecap="round" stroke-linejoin="round" stroke-opacity="0.3019608" stroke-width="0.30000000000000004"/>
      <path d="M18.2 39.65 L18.05 39.5 Q17.75 39.2 17.7 38.75 17.65 38.3 17.95 38.05 L18.6 37.9 18.65 37.9 Q19.05 37.95 19.3 38.25 L19.7 39.0 Q19.75 39.4 19.45 39.65 19.2 39.95 18.75 39.9 L18.2 39.65" fill="#000000" fill-opacity="0.3019608" fill-rule="evenodd" stroke="none"/>
      <path d="M18.05 39.5 L17.9 39.35 Q17.55 39.05 17.5 38.6 17.45 38.2 17.75 37.95 L18.45 37.75 Q19.2 38.6 18.65 39.45 L18.05 39.5" fill="#40aead" fill-rule="evenodd" stroke="none"/>
      <path d="M18.45 37.75 L19.15 38.1 19.5 38.9 19.3 39.55 18.6 39.75 18.05 39.5 18.65 39.45 Q19.2 38.6 18.45 37.75" fill="#308087" fill-rule="evenodd" stroke="none"/>
      <path d="M18.45 37.75 L19.15 38.1 19.5 38.9 19.3 39.55 18.6 39.75 18.05 39.5 17.9 39.35 Q17.55 39.05 17.5 38.6 17.45 38.2 17.75 37.95 L18.45 37.75 Z" fill="none" stroke="#000000" stroke-linecap="round" stroke-linejoin="round" stroke-opacity="0.3019608" stroke-width="0.30000000000000004"/>
      <path d="M17.9 38.5 L17.9 38.55 17.9 38.5" fill="#473d16" fill-opacity="0.6509804" fill-rule="evenodd" stroke="none"/>
      <path d="M17.9 38.5 L17.9 38.55 18.05 38.95 18.45 39.2 18.8 39.1 18.9 39.1 18.85 39.0 18.7 38.6 18.3 38.35 17.95 38.45 17.9 38.5" fill="#224d79" fill-rule="evenodd" stroke="none"/>
      <path d="M18.9 39.1 L18.8 39.1 18.45 39.2 18.05 38.95 17.9 38.55 17.85 38.8 18.0 39.25 18.4 39.45 18.75 39.4 18.9 39.1" fill="#224d79" fill-opacity="0.62352943" fill-rule="evenodd" stroke="none"/>
      <path d="M17.9 38.5 L17.95 38.45 18.3 38.35 18.7 38.6 18.85 39.0 18.9 39.1" fill="none" stroke="#000000" stroke-linecap="round" stroke-linejoin="round" stroke-opacity="0.3019608" stroke-width="0.30000000000000004"/>
      <path d="M18.55 33.2 L18.7 33.0 Q19.0 32.5 19.45 32.25 L20.25 32.3 20.7 32.95 20.7 33.05 20.45 33.95 19.7 34.65 Q19.2 34.85 18.85 34.65 18.45 34.45 18.45 33.95 L18.55 33.2" fill="#000000" fill-opacity="0.3019608" fill-rule="evenodd" stroke="none"/>
      <path d="M20.7 32.75 L20.75 32.75 20.7 32.75" fill="#feb166" fill-rule="evenodd" stroke="none"/>
      <path d="M20.7 32.75 L20.75 32.75 20.7 32.75" fill="#fd7f02" fill-rule="evenodd" stroke="none"/>
      <path d="M20.75 32.75 L20.7 32.75 Q19.95 33.9 18.9 33.6 18.55 33.4 18.65 33.0 L18.75 32.7 19.5 32.05 Q20.0 31.85 20.35 32.05 20.7 32.25 20.75 32.75" fill="#40aead" fill-rule="evenodd" stroke="none"/>
      <path d="M20.75 32.75 L20.5 33.7 19.75 34.4 Q19.3 34.6 18.9 34.4 18.6 34.2 18.55 33.7 L18.65 33.0 Q18.55 33.4 18.9 33.6 19.95 33.9 20.7 32.75 L20.75 32.75" fill="#308087" fill-rule="evenodd" stroke="none"/>
      <path d="M20.75 32.75 L20.5 33.7 19.75 34.4 Q19.3 34.6 18.9 34.4 18.6 34.2 18.55 33.7 L18.65 33.0 18.75 32.7 19.5 32.05 Q20.0 31.85 20.35 32.05 20.7 32.25 20.75 32.75 Z" fill="none" stroke="#000000" stroke-linecap="round" stroke-linejoin="round" stroke-opacity="0.3019608" stroke-width="0.30000000000000004"/>
      <path d="M19.7 32.55 L19.65 32.55 19.75 32.55 19.7 32.55" fill="#473d16" fill-opacity="0.6509804" fill-rule="evenodd" stroke="none"/>
      <path d="M19.75 32.55 L19.65 32.55 19.25 32.9 19.1 33.4 19.25 33.85 19.35 33.85 19.45 33.8 19.85 33.45 19.95 32.95 19.8 32.6 19.75 32.55" fill="#224d79" fill-rule="evenodd" stroke="none"/>
      <path d="M19.65 32.55 L19.7 32.55 19.4 32.55 18.95 32.95 18.8 33.4 19.0 33.8 19.35 33.85 19.25 33.85 19.1 33.4 19.25 32.9 19.65 32.55" fill="#224d79" fill-opacity="0.62352943" fill-rule="evenodd" stroke="none"/>
      <path d="M19.75 32.55 L19.8 32.6 19.95 32.95 19.85 33.45 19.45 33.8 19.35 33.85" fill="none" stroke="#000000" stroke-linecap="round" stroke-linejoin="round" stroke-opacity="0.3019608" stroke-width="0.30000000000000004"/>
      <path d="M13.4 33.7 Q12.75 34.8 10.45 35.45 L9.35 35.35 8.4 35.65 Q7.95 35.75 7.5 36.1 L7.2 36.25 Q5.8 37.6 6.95 38.55 L7.15 38.6 7.45 38.6 7.55 38.55 Q8.0 38.2 7.65 37.85 L7.3 37.55 7.95 37.45 7.95 37.85 Q8.05 38.75 8.5 38.9 L7.75 39.35 7.5 39.4 Q7.1 39.3 6.85 39.05 6.1 38.7 5.95 38.05 5.55 36.7 5.95 35.55 6.3 34.6 7.15 33.7 7.95 33.2 9.0 33.05 7.6 33.55 6.75 34.45 5.9 36.1 6.6 36.1 7.55 35.25 9.1 35.0 10.9 35.05 11.7 34.5 12.6 33.65 11.35 33.15 L12.3 33.35 13.4 33.7" fill="#11443f" fill-rule="evenodd" stroke="none"/>
      <path d="M13.75 33.75 L13.8 33.75 13.9 33.85 13.95 33.85 13.9 33.85 13.95 33.85 Q14.55 34.4 14.05 35.85 13.25 37.3 12.2 37.15 L11.9 36.9 11.6 36.75 11.9 36.9 11.8 36.85 11.6 36.75 11.0 36.4 Q9.95 35.8 9.1 35.75 8.2 35.65 7.5 36.1 7.95 35.75 8.4 35.65 L9.35 35.35 10.45 35.45 Q12.75 34.8 13.4 33.7 L13.75 33.8 13.75 33.75 M7.15 33.7 Q6.3 34.6 5.95 35.55 5.55 36.7 5.95 38.05 6.1 38.7 6.85 39.05 7.1 39.3 7.5 39.4 L6.7 39.3 Q6.0 39.1 5.6 38.2 4.9 36.75 5.35 35.5 L6.1 34.45 Q6.55 34.0 7.15 33.7 M7.3 37.55 L7.65 37.85 Q8.0 38.2 7.55 38.55 L7.45 38.2 7.4 38.15 Q6.9 37.7 7.3 37.55" fill="#0c302c" fill-rule="evenodd" stroke="none"/>
      <path d="M11.15 33.1 L11.35 33.15 Q12.6 33.65 11.7 34.5 10.9 35.05 9.1 35.0 7.55 35.25 6.6 36.1 5.9 36.1 6.75 34.45 7.6 33.55 9.0 33.05 L11.15 33.1 M8.5 38.9 Q8.05 38.75 7.95 37.85 L7.95 37.45 8.6 38.0 Q8.75 38.55 8.5 38.9" fill="#176058" fill-rule="evenodd" stroke="none"/>
      <path d="M13.9 33.85 L13.8 33.75 13.75 33.75 M13.75 33.8 L13.4 33.7 M7.5 36.1 Q8.2 35.65 9.1 35.75 9.95 35.8 11.0 36.4 L11.6 36.75 11.9 36.9 12.2 37.15 Q13.25 37.3 14.05 35.85 14.55 34.4 13.95 33.85 L13.9 33.85 13.95 33.85 M11.35 33.15 L12.3 33.35 13.4 33.7 M9.0 33.05 Q7.95 33.2 7.15 33.7 6.55 34.0 6.1 34.45 L5.35 35.5 Q4.9 36.75 5.6 38.2 6.0 39.1 6.7 39.3 L7.5 39.4 7.75 39.35 8.5 38.9 Q8.75 38.55 8.6 38.0 L7.95 37.45 7.3 37.55 Q6.9 37.7 7.4 38.15 L7.45 38.2 7.55 38.55 M7.45 38.6 L7.15 38.6 6.95 38.55 Q5.8 37.6 7.2 36.25 L7.5 36.1 M11.6 36.75 L11.8 36.85 11.9 36.9 M9.0 33.05 L11.15 33.1" fill="none" stroke="#000000" stroke-linecap="round" stroke-linejoin="round" stroke-opacity="0.3019608" stroke-width="0.30000000000000004"/>
      <path d="M29.7 25.45 L30.1 23.2 Q30.6 21.45 31.5 19.9 31.95 20.75 33.8 18.75 36.8 16.3 38.5 16.95 35.15 21.0 34.4 26.2 33.35 28.95 32.5 29.25 31.25 29.05 30.55 25.4 L30.95 23.4 Q30.4 23.25 29.7 25.45" fill="#f1a236" fill-rule="evenodd" stroke="none"/>
      <path d="M29.7 25.45 Q30.4 23.25 30.95 23.4 L30.55 25.4 Q31.25 29.05 32.5 29.25 33.35 28.95 34.4 26.2 L34.35 26.85 33.9 29.2 Q33.5 32.4 34.6 32.7 L37.5 32.75 33.55 32.65 Q31.35 30.9 30.65 28.3 29.65 27.25 29.7 25.45 M30.55 25.4 Q30.35 26.95 30.65 28.3 30.35 26.95 30.55 25.4" fill="#a34215" fill-rule="evenodd" stroke="none"/>
      <path d="M46.1 15.1 L46.35 16.9 Q46.95 23.45 43.45 28.5 40.6 32.0 37.5 32.75 L34.6 32.7 Q33.5 32.4 33.9 29.2 L34.35 26.85 Q35.6 21.9 39.1 17.3 L40.5 15.6 Q42.75 12.75 44.65 13.15 45.25 13.1 46.1 15.1" fill="#d36b0e" fill-rule="evenodd" stroke="none"/>
      <path d="M34.4 26.2 Q35.15 21.0 38.5 16.95 36.8 16.3 33.8 18.75 31.95 20.75 31.5 19.9 32.4 18.45 33.65 17.2 36.2 14.55 37.25 14.95 40.8 12.55 44.25 12.4 45.5 12.45 46.1 15.1 45.25 13.1 44.65 13.15 42.75 12.75 40.5 15.6 L39.1 17.3 Q35.6 21.9 34.35 26.85 L34.4 26.2 M35.95 16.05 L37.25 14.95 35.95 16.05" fill="#ffdc8a" fill-rule="evenodd" stroke="none"/>
      <path d="M31.5 19.9 Q30.6 21.45 30.1 23.2 L29.7 25.45 M30.95 23.4 L30.55 25.4 M31.5 19.9 Q32.4 18.45 33.65 17.2 36.2 14.55 37.25 14.95 40.8 12.55 44.25 12.4 45.5 12.45 46.1 15.1 L46.35 16.9 Q46.95 23.45 43.45 28.5 40.6 32.0 37.5 32.75 L33.55 32.65 Q31.35 30.9 30.65 28.3 29.65 27.25 29.7 25.45 M37.25 14.95 L35.95 16.05 M30.65 28.3 Q30.35 26.95 30.55 25.4" fill="none" stroke="#000000" stroke-linecap="round" stroke-linejoin="round" stroke-opacity="0.3019608" stroke-width="0.30000000000000004"/>
      <path d="M35.15 31.4 Q35.35 29.25 37.8 28.0 L39.6 27.5 Q35.15 30.0 37.3 32.75 L35.15 31.4" fill="#a34215" fill-rule="evenodd" stroke="none"/>
      <path d="M39.6 27.5 Q40.55 27.5 41.1 27.95 L41.5 29.5 Q41.0 28.15 40.0 28.35 38.0 28.75 38.2 31.2 38.6 32.95 40.7 33.65 38.9 33.55 37.3 32.75 35.15 30.0 39.6 27.5" fill="#d36b0e" fill-rule="evenodd" stroke="none"/>
      <path d="M41.5 29.5 Q41.8 31.75 40.7 33.65 38.6 32.95 38.2 31.2 38.0 28.75 40.0 28.35 41.0 28.15 41.5 29.5" fill="#f1a236" fill-rule="evenodd" stroke="none"/>
      <path d="M41.1 27.95 L41.5 29.5 Q41.8 31.75 40.7 33.65 38.9 33.55 37.3 32.75 L35.15 31.4" fill="none" stroke="#000000" stroke-linecap="round" stroke-linejoin="round" stroke-opacity="0.3019608" stroke-width="0.30000000000000004"/>
      <path d="M43.15 14.7 Q43.1 18.95 46.05 18.55 45.15 19.15 44.1 19.55 42.6 18.5 42.7 16.2 42.85 15.25 43.15 14.7" fill="#a34215" fill-rule="evenodd" stroke="none"/>
      <path d="M45.4 14.15 Q44.2 13.95 43.95 14.75 43.4 16.35 45.25 17.25 46.65 17.7 48.1 16.45 47.3 17.7 46.05 18.55 43.1 18.95 43.15 14.7 43.5 13.95 44.1 13.75 L45.4 14.15" fill="#d36b0e" fill-rule="evenodd" stroke="none"/>
      <path d="M48.1 16.45 Q46.65 17.7 45.25 17.25 43.4 16.35 43.95 14.75 44.2 13.95 45.4 14.15 47.15 14.9 48.1 16.45" fill="#f1a236" fill-rule="evenodd" stroke="none"/>
      <path d="M45.4 14.15 L44.1 13.75 M46.05 18.55 Q47.3 17.7 48.1 16.45 47.15 14.9 45.4 14.15 M46.05 18.55 Q45.15 19.15 44.1 19.55" fill="none" stroke="#000000" stroke-linecap="round" stroke-linejoin="round" stroke-opacity="0.3019608" stroke-width="0.30000000000000004"/>
      <path d="M43.7 23.45 Q41.6 26.9 44.15 27.9 L42.15 27.8 Q41.45 26.3 42.65 24.45 L43.7 23.45" fill="#a34215" fill-rule="evenodd" stroke="none"/>
      <path d="M45.7 24.05 Q44.85 23.35 44.25 23.85 43.05 24.9 44.1 26.5 45.1 27.5 46.8 27.15 L44.15 27.9 Q41.6 26.9 43.7 23.45 44.25 23.05 44.85 23.15 L45.7 24.05" fill="#d36b0e" fill-rule="evenodd" stroke="none"/>
      <path d="M46.8 27.15 Q45.1 27.5 44.1 26.5 43.05 24.9 44.25 23.85 44.85 23.35 45.7 24.05 46.8 25.5 46.8 27.15" fill="#f1a236" fill-rule="evenodd" stroke="none"/>
      <path d="M45.7 24.05 L44.85 23.15 M44.15 27.9 L46.8 27.15 Q46.8 25.5 45.7 24.05 M44.15 27.9 L42.15 27.8" fill="none" stroke="#000000" stroke-linecap="round" stroke-linejoin="round" stroke-opacity="0.3019608" stroke-width="0.30000000000000004"/>
      <path d="M37.3 24.1 Q36.5 22.3 37.9 20.1 L39.1 18.85 Q36.7 22.95 39.7 24.2 L37.3 24.1" fill="#a34215" fill-rule="evenodd" stroke="none"/>
      <path d="M39.1 18.85 Q39.85 18.35 40.55 18.5 L41.55 19.65 Q40.5 18.75 39.8 19.4 38.35 20.65 39.7 22.55 40.8 23.7 42.9 23.35 41.4 24.05 39.7 24.2 36.7 22.95 39.1 18.85" fill="#d36b0e" fill-rule="evenodd" stroke="none"/>
      <path d="M41.55 19.65 Q42.85 21.3 42.9 23.35 40.8 23.7 39.7 22.55 38.35 20.65 39.8 19.4 40.5 18.75 41.55 19.65" fill="#f1a236" fill-rule="evenodd" stroke="none"/>
      <path d="M40.55 18.5 L41.55 19.65 Q42.85 21.3 42.9 23.35 41.4 24.05 39.7 24.2 L37.3 24.1" fill="none" stroke="#000000" stroke-linecap="round" stroke-linejoin="round" stroke-opacity="0.3019608" stroke-width="0.30000000000000004"/>
      <path d="M32.05 17.7 Q32.55 16.95 32.4 15.95 32.15 14.25 30.05 13.0 27.9 11.75 25.1 11.7 22.3 11.65 20.5 12.8 19.3 13.55 19.0 14.6 L18.9 15.15 18.9 15.7 Q19.15 17.4 21.25 18.65 L23.15 19.5 26.25 19.95 Q29.0 20.05 30.8 18.85 L31.2 18.55 31.55 18.3 32.05 17.7 M20.25 12.65 Q22.1 11.4 25.05 11.45 28.0 11.55 30.25 12.85 L31.25 13.55 Q32.55 14.6 32.75 16.0 32.9 17.0 32.4 17.85 L31.1 19.0 Q29.2 20.25 26.25 20.2 L24.5 20.05 Q22.6 19.7 21.05 18.8 18.8 17.45 18.55 15.65 L18.65 14.55 Q18.95 13.45 20.25 12.65" fill="#ca3e02" fill-rule="evenodd" stroke="none"/>
      <path d="M30.6 14.25 L29.7 13.7 Q27.6 12.4 24.8 12.35 22.0 12.3 20.2 13.45 19.4 13.95 19.0 14.6 19.3 13.55 20.5 12.8 22.3 11.65 25.1 11.7 27.9 11.75 30.05 13.0 32.15 14.25 32.4 15.95 32.55 16.95 32.05 17.7 L32.1 16.6 Q31.95 15.3 30.6 14.25" fill="#4b1701" fill-rule="evenodd" stroke="none"/>
      <path d="M19.0 14.6 Q19.4 13.95 20.2 13.45 22.0 12.3 24.8 12.35 27.6 12.4 29.7 13.7 L30.6 14.25 Q29.55 15.9 27.65 16.95 L26.85 17.35 26.8 16.45 27.1 14.7 25.0 15.25 22.0 16.5 Q21.65 15.1 21.7 13.6 L19.0 14.6 M23.15 19.5 L21.25 18.65 Q19.15 17.4 18.9 15.7 L18.9 15.15 Q20.15 14.35 21.45 14.05 21.3 15.5 21.75 17.1 23.7 16.05 25.45 15.55 L26.15 15.35 26.3 16.1 26.0 17.5 Q25.45 18.8 23.15 19.5" fill="#dfd090" fill-rule="evenodd" stroke="none"/>
      <path d="M19.0 14.6 L21.7 13.6 Q21.65 15.1 22.0 16.5 L25.0 15.25 27.1 14.7 26.8 16.45 26.85 17.35 26.95 17.75 28.1 17.25 31.05 16.25 31.55 18.3 31.2 18.55 30.7 16.8 28.6 17.6 Q27.65 18.0 26.7 18.55 L26.55 16.2 26.6 15.25 26.15 15.35 25.45 15.55 Q23.7 16.05 21.75 17.1 21.3 15.5 21.45 14.05 20.15 14.35 18.9 15.15 L19.0 14.6" fill="#b19834" fill-rule="evenodd" stroke="none"/>
      <path d="M30.6 14.25 Q31.95 15.3 32.1 16.6 L32.05 17.7 31.55 18.3 31.05 16.25 28.1 17.25 26.95 17.75 26.85 17.35 27.65 16.95 Q29.55 15.9 30.6 14.25 M26.15 15.35 L26.6 15.25 26.55 16.2 26.7 18.55 Q27.65 18.0 28.6 17.6 L30.7 16.8 31.2 18.55 30.8 18.85 Q29.0 20.05 26.25 19.95 L23.15 19.5 Q25.45 18.8 26.0 17.5 L26.3 16.1 26.15 15.35" fill="#cfb75a" fill-rule="evenodd" stroke="none"/>
      <path d="M19.0 14.6 Q19.4 13.95 20.2 13.45 22.0 12.3 24.8 12.35 27.6 12.4 29.7 13.7 L30.6 14.25 Q31.95 15.3 32.1 16.6 L32.05 17.7 31.55 18.3 M18.9 15.15 L19.0 14.6 M23.15 19.5 L21.25 18.65 Q19.15 17.4 18.9 15.7 L18.9 15.15 Q20.15 14.35 21.45 14.05 21.3 15.5 21.75 17.1 23.7 16.05 25.45 15.55 L26.15 15.35 26.6 15.25 26.55 16.2 26.7 18.55 Q27.65 18.0 28.6 17.6 L30.7 16.8 31.2 18.55 31.55 18.3 M23.15 19.5 L26.25 19.95 Q29.0 20.05 30.8 18.85 L31.2 18.55" fill="none" stroke="#000000" stroke-linecap="round" stroke-linejoin="round" stroke-opacity="0.3019608" stroke-width="0.30000000000000004"/>
      <path d="M21.75 22.4 L21.4 22.5 21.0 22.4 20.85 22.25 21.0 22.05 21.4 22.0 21.75 22.05 21.9 22.25 21.75 22.4" fill="#ca3e02" fill-rule="evenodd" stroke="none"/>
      <path d="M16.95 18.35 L16.75 17.6 16.95 16.8 Q17.15 16.5 17.4 16.5 L17.9 16.8 18.05 17.6 17.9 18.35 17.4 18.65 16.95 18.35" fill="#ca3e02" fill-rule="evenodd" stroke="none"/>
    </g>
    <g id="sprite0" transform="matrix(1.0, 0.0, 0.0, 1.0, 73.5, 65.0)">
      <use height="136.85" transform="matrix(1.0, 0.0, 0.0, 1.0, -73.5, -65.0)" width="148.25" xlink:href="#shape1"/>
    </g>
    <g id="shape1" transform="matrix(1.0, 0.0, 0.0, 1.0, 73.5, 65.0)">
      <path d="M36.65 -54.65 Q60.05 -42.0 69.75 -17.95 80.55 8.9 68.0 34.1 55.45 59.35 26.8 68.2 -1.8 77.05 -29.7 64.3 -57.6 51.6 -68.45 24.75 -79.3 -2.05 -66.75 -27.25 L-66.7 -27.3 Q-54.1 -52.5 -25.5 -61.4 3.1 -70.2 31.0 -57.5 L36.65 -54.65" fill="url(#gradient0)" fill-rule="evenodd" stroke="none"/>
    </g>
    <radialGradient cx="0" cy="0" gradientTransform="matrix(0.0914, 0.0, 0.0, 0.0914, 0.6, 3.4)" gradientUnits="userSpaceOnUse" id="gradient0" r="819.2" spreadMethod="pad">
      <stop offset="0.0" stop-color="#ffffff"/>
      <stop offset="1.0" stop-color="#ffffff" stop-opacity="0.0"/>
    </radialGradient>
  </defs>
</svg>
