<?xml version="1.0" encoding="UTF-8" standalone="no"?>
<svg xmlns:xlink="http://www.w3.org/1999/xlink" height="440.0px" width="440.0px" xmlns="http://www.w3.org/2000/svg">
  <g transform="matrix(10.0, 0.0, 0.0, 10.0, 0.0, 0.0)">
    <use height="44.0" transform="matrix(1.0, 0.0, 0.0, 1.0, 0.0, 0.0)" width="44.0" xlink:href="#shape0"/>
  </g>
  <defs>
    <g id="shape0" transform="matrix(1.0, 0.0, 0.0, 1.0, 0.0, 0.0)">
      <path d="M44.0 44.0 L0.0 44.0 0.0 0.0 44.0 0.0 44.0 44.0" fill="#33cc33" fill-opacity="0.0" fill-rule="evenodd" stroke="none"/>
      <path d="M31.8 2.5 L32.2 2.45 32.6 2.65 Q32.8 3.25 32.25 3.65 L31.75 3.5 31.45 3.55 31.8 2.5 M26.1 18.6 L29.8 8.55 29.95 8.55 30.5 8.7 Q28.1 14.5 27.0 18.85 L26.15 18.6 26.1 18.6" fill="#997842" fill-rule="evenodd" stroke="none"/>
      <path d="M32.55 4.75 L32.05 5.15 32.2 4.8 32.15 4.35 32.0 4.3 31.55 4.15 30.8 4.3 30.4 4.65 30.25 4.95 30.05 4.6 30.15 4.4 30.3 4.15 Q30.4 3.9 30.8 3.75 L31.45 3.55 31.75 3.5 32.25 3.65 32.55 3.9 32.7 4.35 32.55 4.75" fill="#594127" fill-rule="evenodd" stroke="none"/>
      <path d="M30.3 4.15 L30.65 3.1 Q31.25 2.6 31.8 2.5 L31.45 3.55 30.8 3.75 Q30.4 3.9 30.3 4.15 M28.75 8.75 L28.75 8.7 28.8 8.7 29.8 8.55 26.1 18.6 25.25 18.6 25.3 18.55 Q27.2 14.25 28.75 8.75" fill="#ab8649" fill-rule="evenodd" stroke="none"/>
      <path d="M28.7 8.75 L28.75 8.65 28.75 8.7 28.75 8.75 28.7 8.75 M28.9 8.3 L29.0 8.1 29.5 7.8 Q29.9 7.55 30.25 7.6 30.65 7.65 30.85 7.85 L30.8 8.3 29.75 8.15 28.9 8.3 M28.8 7.65 Q28.75 7.15 29.6 6.6 L29.95 6.55 Q30.35 6.25 30.75 6.35 L31.25 6.55 31.1 7.45 30.5 7.15 28.8 7.65 M29.45 6.35 Q29.15 5.75 30.15 5.3 L30.45 5.15 31.25 4.95 31.75 5.15 31.75 6.2 30.75 5.9 Q30.1 5.8 29.45 6.35 M30.25 4.95 L30.4 4.65 30.8 4.3 31.55 4.15 32.0 4.3 32.0 4.85 31.3 4.65 31.2 4.7 30.25 4.95" fill="#aeab8c" fill-rule="evenodd" stroke="none"/>
      <path d="M32.6 2.65 L33.15 3.35 32.7 4.35 32.55 3.9 32.25 3.65 Q32.8 3.25 32.6 2.65 M30.8 8.9 L31.0 9.4 30.85 9.8 Q28.65 14.0 27.5 19.3 L27.35 19.9 26.85 19.5 Q26.65 19.35 26.45 19.35 L25.9 19.25 25.8 19.25 24.95 19.2 24.15 19.55 24.5 18.8 25.25 18.6 26.1 18.6 26.15 18.6 27.0 18.85 Q28.1 14.5 30.5 8.7 L30.8 8.9" fill="#8a653c" fill-rule="evenodd" stroke="none"/>
      <path d="M32.05 5.15 L31.95 5.5 Q32.5 6.3 31.55 6.8 32.2 7.55 31.0 8.25 L30.8 8.9 30.5 8.7 29.95 8.55 29.8 8.55 28.8 8.7 28.75 8.7 28.75 8.65 28.9 8.3 29.75 8.15 30.8 8.3 30.85 7.85 Q30.65 7.65 30.25 7.6 29.9 7.55 29.5 7.8 L29.0 8.1 28.8 7.65 30.5 7.15 31.1 7.45 31.25 6.55 30.75 6.35 Q30.35 6.25 29.95 6.55 L29.6 6.6 29.45 6.35 Q30.1 5.8 30.75 5.9 L31.75 6.2 31.75 5.15 31.25 4.95 30.45 5.15 30.15 5.3 30.25 4.95 31.2 4.7 31.3 4.65 32.0 4.85 32.0 4.3 32.15 4.35 32.2 4.8 32.05 5.15 M31.95 5.5 L31.85 5.25 31.75 5.15 31.85 5.25 31.95 5.5 M31.55 6.8 L31.35 6.65 31.25 6.55 31.35 6.65 31.55 6.8 M31.0 8.25 L30.9 7.9 30.85 7.85 30.9 7.9 31.0 8.25" fill="#97916c" fill-rule="evenodd" stroke="none"/>
      <path d="M24.5 18.8 Q27.05 13.8 28.1 9.55 L28.15 9.4 28.25 9.15 28.7 8.75 28.75 8.75 Q27.2 14.25 25.3 18.55 L25.25 18.6 24.5 18.8" fill="#bf9552" fill-rule="evenodd" stroke="none"/>
      <path d="M27.35 19.9 L27.5 20.45 27.45 20.55 Q27.55 20.15 26.35 19.95 L26.25 19.9 26.25 19.95 26.2 19.9 24.55 20.0 24.15 21.05 24.0 21.35 23.75 21.9 23.6 22.6 23.4 23.1 23.4 23.15 23.4 23.3 23.3 23.35 22.7 25.5 22.65 25.65 Q22.55 25.8 22.4 26.45 L22.35 26.9 22.2 28.05 22.0 28.25 22.05 28.45 22.1 28.65 21.95 31.15 21.5 31.65 Q21.2 27.7 22.5 24.0 L22.45 24.0 22.1 24.0 22.1 23.9 22.15 23.8 23.65 20.15 24.15 19.55 24.95 19.2 25.8 19.25 25.9 19.25 26.45 19.35 Q26.65 19.35 26.85 19.5 L27.35 19.9 M12.25 23.05 L12.65 23.15 12.7 23.15 Q9.85 26.75 10.4 29.1 11.05 31.55 12.7 32.9 14.15 34.25 16.15 34.9 L16.6 35.05 Q18.65 35.7 20.7 33.8 19.55 36.3 16.85 35.7 L15.3 35.2 Q14.6 34.95 14.0 34.5 12.9 33.95 12.05 33.15 L11.6 32.65 11.1 32.15 Q9.55 30.1 9.8 27.8 L9.85 27.5 10.2 26.05 10.65 25.25 10.9 24.8 12.2 23.15 12.25 23.05" fill="#e5e3e6" fill-rule="evenodd" stroke="none"/>
      <path d="M22.1 28.65 L22.35 28.7 22.8 28.45 23.0 28.15 23.15 27.05 23.2 25.95 23.55 25.35 23.9 23.95 24.05 23.45 24.15 22.95 24.35 22.1 24.5 21.95 24.6 21.75 24.95 21.0 Q25.15 20.4 24.75 20.3 24.5 20.25 24.15 21.05 L24.55 20.0 26.2 19.9 26.25 19.95 26.25 19.9 26.35 19.95 26.4 20.0 Q25.95 19.95 25.9 20.2 L25.9 20.55 26.0 20.75 25.6 21.25 25.3 23.05 25.2 23.7 25.1 24.15 24.7 24.8 24.6 25.25 24.55 25.65 24.45 25.75 24.25 25.9 Q24.2 26.25 24.5 26.35 L23.25 29.2 23.2 29.35 23.05 29.45 21.95 31.15 22.1 28.65 M23.3 23.35 L22.85 25.15 22.7 25.5 23.3 23.35 M22.35 26.9 L22.3 27.85 22.2 28.05 22.35 26.9" fill="#a7a6a8" fill-rule="evenodd" stroke="none"/>
      <path d="M27.45 20.55 L26.2 24.5 25.8 24.35 25.8 24.4 25.2 25.65 25.2 25.8 25.0 26.15 23.25 29.25 23.25 29.2 24.5 26.35 Q24.2 26.25 24.25 25.9 L24.45 25.75 24.55 25.65 24.6 25.25 24.7 24.8 25.1 24.15 25.2 23.7 25.3 23.05 25.6 21.25 26.0 20.75 25.9 20.55 25.9 20.2 Q25.95 19.95 26.4 20.0 L26.35 19.95 Q27.55 20.15 27.45 20.55" fill="#716f71" fill-rule="evenodd" stroke="none"/>
      <path d="M24.15 21.05 Q24.5 20.25 24.75 20.3 25.15 20.4 24.95 21.0 L24.6 21.75 24.5 21.95 24.35 22.1 24.15 22.95 24.05 23.45 23.9 23.95 23.55 25.35 23.2 25.95 23.15 27.05 23.0 28.15 22.8 28.45 22.35 28.7 22.1 28.65 22.05 28.45 22.0 28.25 22.2 28.05 22.3 27.85 22.35 26.9 22.4 26.45 Q22.55 25.8 22.65 25.65 L22.7 25.5 22.85 25.15 23.3 23.35 23.4 23.3 23.4 23.15 23.4 23.1 23.6 22.6 23.75 21.9 24.0 21.35 24.15 21.05 M19.65 26.6 L19.35 28.05 19.3 28.35 19.2 28.7 19.0 29.25 18.6 29.55 18.2 29.7 18.0 29.6 17.85 29.45 17.6 29.5 17.0 29.55 Q16.0 29.5 15.95 28.5 15.9 28.0 16.1 27.45 16.45 26.45 17.4 26.1 L19.0 25.85 Q19.5 25.9 19.65 26.2 19.85 26.35 19.65 26.6" fill="#c1c2be" fill-rule="evenodd" stroke="none"/>
      <path d="M37.65 25.3 L38.35 25.3 Q39.25 27.15 38.9 28.9 L38.65 30.2 Q38.55 30.3 38.6 30.35 L38.55 30.4 38.0 30.55 Q38.9 27.6 37.65 25.3 M38.15 31.75 Q36.85 34.4 34.25 36.5 L33.7 36.95 32.2 38.05 31.45 38.5 30.9 38.35 32.95 36.95 33.7 36.45 Q36.4 34.4 37.65 31.5 L37.75 31.45 38.15 31.75 M25.85 40.8 L24.85 41.05 17.85 41.45 Q14.25 41.05 11.5 39.7 L9.4 38.35 Q8.15 37.3 7.2 36.0 L7.5 35.7 Q8.4 37.2 10.0 38.15 L10.15 38.25 11.8 39.15 Q18.85 42.1 26.4 40.05 L25.85 40.8 M6.65 35.0 L6.25 34.1 Q5.05 31.2 6.1 28.05 L6.35 27.4 7.2 25.8 7.5 25.25 8.05 25.2 7.8 25.6 Q6.75 26.95 6.35 28.35 L6.45 28.45 Q5.55 31.1 6.95 34.95 L6.65 35.0 M8.15 24.35 L9.75 22.55 10.1 22.65 8.5 24.5 8.5 24.55 8.15 24.35" fill="#ecede8" fill-rule="evenodd" stroke="none"/>
      <path d="M7.5 25.25 L8.15 24.35 8.5 24.55 Q9.3 25.3 10.9 24.8 L10.65 25.25 10.2 26.05 Q9.3 25.2 8.05 25.2 L7.5 25.25" fill="#ffffff" fill-rule="evenodd" stroke="none"/>
      <path d="M10.1 22.65 L11.35 22.95 12.25 23.05 12.2 23.15 10.9 24.8 Q9.3 25.3 8.5 24.55 L8.5 24.5 10.1 22.65 M12.05 33.15 Q12.9 33.95 14.0 34.5 12.75 37.1 10.0 38.15 8.4 37.2 7.5 35.7 9.2 34.0 12.05 33.15 M9.8 27.8 Q7.9 29.0 6.35 28.35 6.75 26.95 7.8 25.6 L8.05 25.2 Q9.3 25.2 10.2 26.05 L9.85 27.5 9.8 27.8 M20.9 33.75 L20.7 33.8 20.85 33.65 20.9 33.55 20.9 33.75" fill="#c8cabf" fill-rule="evenodd" stroke="none"/>
      <path d="M18.6 33.3 L19.0 32.6 19.2 31.65 19.5 31.25 Q19.9 30.9 20.2 30.9 L20.55 28.0 Q20.7 27.5 21.1 27.35 21.6 27.15 21.5 28.0 L21.35 29.5 21.2 30.85 21.0 32.45 20.8 32.7 20.7 33.1 Q20.0 34.95 17.5 34.7 16.75 34.65 16.45 34.4 16.2 34.25 16.3 33.95 L16.4 33.8 16.65 33.7 16.9 33.85 17.0 33.95 17.4 33.85 17.7 33.55 18.15 33.5 18.6 33.3 M28.05 26.8 L27.3 27.45 26.9 27.55 26.45 27.7 26.35 27.85 26.05 28.05 25.25 28.35 24.75 28.5 Q24.45 28.45 24.45 28.05 24.4 27.75 24.5 27.6 L24.75 26.95 25.1 26.6 25.4 26.35 Q25.45 26.1 25.85 26.1 L26.4 25.9 26.8 25.55 27.9 25.5 28.5 25.65 Q28.7 25.8 28.55 26.1 L28.05 26.8" fill="#9e9e9e" fill-rule="evenodd" stroke="none"/>
      <path d="M11.6 32.65 Q9.55 34.55 7.0 34.95 L6.95 34.95 Q5.55 31.1 6.45 28.45 L6.35 28.35 Q7.9 29.0 9.8 27.8 9.55 30.1 11.1 32.15 L11.6 32.65" fill="#b6b6af" fill-rule="evenodd" stroke="none"/>
      <path d="M7.2 36.0 L6.9 35.6 6.65 35.0 6.95 34.95 7.0 34.95 Q9.55 34.55 11.6 32.65 L12.05 33.15 Q9.2 34.0 7.5 35.7 L7.2 36.0" fill="#f4f5f0" fill-rule="evenodd" stroke="none"/>
      <path d="M10.0 38.15 Q12.75 37.1 14.0 34.5 14.6 34.95 15.3 35.2 12.9 37.05 11.8 39.15 L10.15 38.25 10.0 38.15" fill="#aeada6" fill-rule="evenodd" stroke="none"/>
      <path d="M36.1 25.3 L37.65 25.3 Q38.9 27.6 38.0 30.55 36.35 30.75 35.2 29.95 35.85 28.9 36.0 27.75 36.25 26.45 36.1 25.3 M38.6 30.35 L38.6 30.4 38.55 30.4 38.6 30.35 M15.3 35.2 L16.85 35.7 Q19.55 36.3 20.7 33.8 L20.9 33.75 Q20.55 36.2 23.05 36.25 L24.9 36.0 Q28.35 37.05 26.4 40.05 18.85 42.1 11.8 39.15 12.9 37.05 15.3 35.2 M34.6 30.85 Q36.05 30.35 37.7 31.45 L37.75 31.45 37.65 31.5 Q36.4 34.4 33.7 36.45 30.2 35.95 30.9 33.9 33.3 32.55 34.6 30.85" fill="#c6c7c2" fill-rule="evenodd" stroke="none"/>
      <path d="M38.6 30.4 L38.15 31.75 37.75 31.45 37.7 31.45 Q36.05 30.35 34.6 30.85 L35.2 29.95 Q36.35 30.75 38.0 30.55 L38.55 30.4 38.6 30.4" fill="#e8e7df" fill-rule="evenodd" stroke="none"/>
      <path d="M35.1 25.45 L35.25 25.45 36.1 25.3 Q36.25 26.45 36.0 27.75 35.85 28.9 35.2 29.95 L34.6 30.85 Q33.3 32.55 30.9 33.9 L30.65 34.05 30.2 34.3 28.95 34.8 Q27.0 35.7 24.9 36.0 L23.05 36.25 Q20.55 36.2 20.9 33.75 21.7 35.85 25.0 35.4 26.85 35.15 29.55 34.1 36.1 31.0 35.1 25.45 M26.55 29.5 L26.2 30.0 25.8 30.65 25.55 30.9 25.05 31.1 Q24.65 31.0 24.65 30.4 L24.75 29.7 Q25.1 28.75 26.0 28.8 26.35 28.75 26.5 28.95 26.7 29.2 26.55 29.5" fill="#999999" fill-rule="evenodd" stroke="none"/>
      <path d="M31.8 30.5 L32.55 30.35 Q33.15 30.35 32.8 30.95 L31.7 32.15 29.6 33.55 Q28.1 34.4 27.95 34.15 L27.7 33.75 27.65 33.4 28.7 32.65 28.7 32.45 28.6 32.25 29.35 31.5 30.1 30.85 31.1 30.3 31.8 30.5" fill="#787878" fill-rule="evenodd" stroke="none"/>
      <path d="M33.7 36.45 L32.95 36.95 Q30.35 36.65 30.2 34.3 L30.65 34.05 30.9 33.9 Q30.2 35.95 33.7 36.45" fill="#d7d8d1" fill-rule="evenodd" stroke="none"/>
      <path d="M23.2 29.35 L23.25 29.2 23.25 29.25 23.2 29.35" fill="#9c9a9c" fill-rule="evenodd" stroke="none"/>
      <path d="M30.2 34.3 Q30.35 36.65 32.95 36.95 L30.9 38.35 Q28.2 37.55 28.95 34.8 L30.2 34.3" fill="#aeaea6" fill-rule="evenodd" stroke="none"/>
      <path d="M31.45 38.5 Q28.8 40.05 25.85 40.8 L26.4 40.05 Q28.35 37.05 24.9 36.0 27.0 35.7 28.95 34.8 28.2 37.55 30.9 38.35 L31.45 38.5" fill="#eaebe3" fill-rule="evenodd" stroke="none"/>
      <path d="M15.8 23.85 L22.1 24.0 22.45 24.0 22.5 24.0 Q21.2 27.7 21.5 31.65 L21.5 31.75 20.85 33.65 20.7 33.8 Q18.65 35.7 16.6 35.05 L16.15 34.9 Q12.45 29.75 15.8 23.85 M19.65 26.6 Q19.85 26.35 19.65 26.2 19.5 25.9 19.0 25.85 L17.4 26.1 Q16.45 26.45 16.1 27.45 15.9 28.0 15.95 28.5 16.0 29.5 17.0 29.55 L17.6 29.5 17.85 29.45 18.0 29.6 18.2 29.7 18.6 29.55 19.0 29.25 19.2 28.7 19.3 28.35 19.35 28.05 19.65 26.6 M18.6 33.3 L18.15 33.5 17.7 33.55 17.4 33.85 17.0 33.95 16.9 33.85 16.65 33.7 16.4 33.8 16.3 33.95 Q16.2 34.25 16.45 34.4 16.75 34.65 17.5 34.7 20.0 34.95 20.7 33.1 L20.8 32.7 21.0 32.45 21.2 30.85 21.35 29.5 21.5 28.0 Q21.6 27.15 21.1 27.35 20.7 27.5 20.55 28.0 L20.2 30.9 Q19.9 30.9 19.5 31.25 L19.2 31.65 19.0 32.6 18.6 33.3" fill="url(#gradient0)" fill-rule="evenodd" stroke="none"/>
      <path d="M26.2 24.5 L27.2 24.7 30.2 25.35 30.55 25.35 Q29.45 31.15 25.0 35.4 21.7 35.85 20.9 33.75 L20.9 33.55 20.85 33.65 21.5 31.75 21.5 31.65 21.95 31.15 23.05 29.45 23.2 29.35 23.25 29.25 25.0 26.15 25.2 25.8 25.2 25.65 25.8 24.4 25.8 24.35 26.2 24.5 M28.05 26.8 L28.55 26.1 Q28.7 25.8 28.5 25.65 L27.9 25.5 26.8 25.55 26.4 25.9 25.85 26.1 Q25.45 26.1 25.4 26.35 L25.1 26.6 24.75 26.95 24.5 27.6 Q24.4 27.75 24.45 28.05 24.45 28.45 24.75 28.5 L25.25 28.35 26.05 28.05 26.35 27.85 26.45 27.7 26.9 27.55 27.3 27.45 28.05 26.8 M26.55 29.5 Q26.7 29.2 26.5 28.95 26.35 28.75 26.0 28.8 25.1 28.75 24.75 29.7 L24.65 30.4 Q24.65 31.0 25.05 31.1 L25.55 30.9 25.8 30.65 26.2 30.0 26.55 29.5" fill="url(#gradient1)" fill-rule="evenodd" stroke="none"/>
      <path d="M12.7 23.15 L15.8 23.85 Q12.45 29.75 16.15 34.9 14.15 34.25 12.7 32.9 11.05 31.55 10.4 29.1 9.85 26.75 12.7 23.15" fill="url(#gradient2)" fill-rule="evenodd" stroke="none"/>
      <path d="M30.55 25.35 L35.1 25.45 Q36.1 31.0 29.55 34.1 26.85 35.15 25.0 35.4 29.45 31.15 30.55 25.35 M31.8 30.5 L31.1 30.3 30.1 30.85 29.35 31.5 28.6 32.25 28.7 32.45 28.7 32.65 27.65 33.4 27.7 33.75 27.95 34.15 Q28.1 34.4 29.6 33.55 L31.7 32.15 32.8 30.95 Q33.15 30.35 32.55 30.35 L31.8 30.5" fill="url(#gradient3)" fill-rule="evenodd" stroke="none"/>
      <path d="M31.8 2.5 L32.2 2.45 32.6 2.65 33.15 3.35 32.7 4.35 32.7 4.6 32.55 4.75 32.05 5.15 31.95 5.5 Q32.5 6.3 31.55 6.8 32.2 7.55 31.0 8.25 L30.8 8.9 31.0 9.4 30.85 9.8 Q28.65 14.0 27.5 19.3 L27.35 19.9 27.5 20.45 27.45 20.55 26.2 24.5 27.2 24.7 30.2 25.35 30.55 25.35 35.1 25.45 35.25 25.45 36.1 25.3 37.65 25.3 38.35 25.3 Q39.25 27.15 38.9 28.9 L38.65 30.2 Q38.55 30.3 38.6 30.35 L38.6 30.4 38.15 31.75 Q36.85 34.4 34.25 36.5 L33.7 36.95 32.2 38.05 31.45 38.5 Q28.8 40.05 25.85 40.8 L24.85 41.05 17.85 41.45 Q14.25 41.05 11.5 39.7 L9.4 38.35 Q8.15 37.3 7.2 36.0 L6.9 35.6 6.65 35.0 6.25 34.1 Q5.05 31.2 6.1 28.05 L6.35 27.4 7.2 25.8 7.5 25.25 8.15 24.35 9.75 22.55 10.1 22.65 11.35 22.95 12.25 23.05 12.65 23.15 12.7 23.15 15.8 23.85 22.1 24.0 22.1 23.9 22.15 23.8 23.65 20.15 24.15 19.55 24.5 18.8 Q27.05 13.8 28.1 9.55 L28.15 9.4 28.25 9.15 28.7 8.75 28.75 8.65 28.9 8.3 29.0 8.1 28.8 7.65 Q28.75 7.15 29.6 6.6 L29.45 6.35 Q29.15 5.75 30.15 5.3 L30.25 4.95 30.05 4.6 30.15 4.4 30.3 4.15 30.65 3.1 Q31.25 2.6 31.8 2.5 M31.45 3.55 L31.75 3.5 32.25 3.65 32.55 3.9 32.7 4.35 32.55 4.75 M32.0 4.3 L32.15 4.35 32.2 4.8 32.05 5.15 M30.3 4.15 Q30.4 3.9 30.8 3.75 L31.45 3.55 M30.25 4.95 L30.4 4.65 30.8 4.3 31.55 4.15 32.0 4.3 M31.3 4.65 L31.2 4.7 M30.15 5.3 L30.45 5.15 31.25 4.95 31.75 5.15 31.85 5.25 31.95 5.5 M31.25 6.55 L30.75 6.35 Q30.35 6.25 29.95 6.55 L29.6 6.6 M31.25 6.55 L31.35 6.65 31.55 6.8 M30.5 8.7 L30.8 8.9 M30.85 7.85 Q30.65 7.65 30.25 7.6 29.9 7.55 29.5 7.8 L29.0 8.1 M30.85 7.85 L30.9 7.9 31.0 8.25 M28.75 8.7 L28.75 8.75 M29.8 8.55 L28.8 8.7 28.75 8.7 28.75 8.65 M28.7 8.75 L28.75 8.75 M29.8 8.55 L29.95 8.55 30.5 8.7 M27.35 19.9 L26.85 19.5 Q26.65 19.35 26.45 19.35 L25.9 19.25 25.8 19.25 24.95 19.2 24.15 19.55 M21.95 31.15 L23.05 29.45 23.2 29.35 23.25 29.2 M22.1 24.0 L22.45 24.0 22.5 24.0 Q21.2 27.7 21.5 31.65 L21.95 31.15 M25.2 25.65 L25.8 24.4 25.8 24.35 26.2 24.5 M20.9 33.75 L20.7 33.8 20.85 33.65 M21.5 31.75 L21.5 31.65 M25.0 26.15 L23.25 29.25 23.2 29.35" fill="none" stroke="#000000" stroke-linecap="round" stroke-linejoin="round" stroke-opacity="0.33333334" stroke-width="0.25"/>
      <path d="M10.9 24.8 L12.2 23.15 12.25 23.05 M10.2 26.05 L10.65 25.25 10.9 24.8 M14.0 34.5 Q12.9 33.95 12.05 33.15 L11.6 32.65 11.1 32.15 Q9.55 30.1 9.8 27.8 L9.85 27.5 10.2 26.05 M14.0 34.5 Q14.6 34.95 15.3 35.2 L16.85 35.7 Q19.55 36.3 20.7 33.8 M24.9 36.0 L23.05 36.25 Q20.55 36.2 20.9 33.75 L20.9 33.55 20.85 33.65 M36.1 25.3 Q36.25 26.45 36.0 27.75 35.85 28.9 35.2 29.95 L34.6 30.85 M30.9 33.9 L30.65 34.05 30.2 34.3 M30.9 33.9 Q33.3 32.55 34.6 30.85 M28.95 34.8 L30.2 34.3 M24.9 36.0 Q27.0 35.7 28.95 34.8" fill="none" stroke="#ffffff" stroke-linecap="round" stroke-linejoin="round" stroke-opacity="0.8" stroke-width="0.25"/>
      <path d="M15.65 20.4 Q17.55 22.7 17.55 26.85 17.5 31.0 15.55 34.6 13.7 38.15 10.95 39.15 8.25 40.0 6.3 37.8 4.5 35.45 4.55 31.3 4.55 27.2 6.5 23.6 8.5 19.95 11.15 19.15 13.95 18.1 15.65 20.4" fill="url(#gradient4)" fill-rule="evenodd" stroke="none"/>
      <path d="M30.15 8.6 Q31.35 8.7 30.85 10.0 29.5 12.55 28.6 15.7 L26.1 15.65 27.25 12.6 28.45 8.95 Q29.1 8.4 30.15 8.6" fill="url(#gradient5)" fill-rule="evenodd" stroke="none"/>
      <path d="M33.1 3.25 Q33.0 4.15 32.5 4.9 31.8 3.2 29.9 5.05 L29.95 4.95 29.9 5.05 30.85 2.9 Q31.7 2.3 32.5 2.45 L33.1 3.25" fill="url(#gradient6)" fill-rule="evenodd" stroke="none"/>
      <path d="M27.95 15.95 Q28.75 17.85 28.15 21.0 27.5 24.2 25.8 26.8 24.15 29.4 22.35 30.05 20.55 30.5 19.65 28.7 18.9 26.75 19.5 23.6 20.1 20.45 21.8 17.8 23.55 15.2 25.3 14.7 27.2 14.1 27.95 15.95" fill="url(#gradient7)" fill-rule="evenodd" stroke="none"/>
    </g>
    <linearGradient gradientTransform="matrix(-0.0074, -7.0E-4, 0.0027, -0.0072, 15.65, 29.45)" gradientUnits="userSpaceOnUse" id="gradient0" spreadMethod="pad" x1="-819.2" x2="819.2">
      <stop offset="0.00784313725490196" stop-color="#b3b3b3"/>
      <stop offset="1.0" stop-color="#cccccc"/>
    </linearGradient>
    <linearGradient gradientTransform="matrix(-0.0078, -8.0E-4, 0.0027, -0.0071, 28.45, 30.7)" gradientUnits="userSpaceOnUse" id="gradient1" spreadMethod="pad" x1="-819.2" x2="819.2">
      <stop offset="0.00784313725490196" stop-color="#454545"/>
      <stop offset="1.0" stop-color="#9e9e9e"/>
    </linearGradient>
    <linearGradient gradientTransform="matrix(-0.0074, -7.0E-4, 0.0027, -0.0072, 15.65, 29.45)" gradientUnits="userSpaceOnUse" id="gradient2" spreadMethod="pad" x1="-819.2" x2="819.2">
      <stop offset="0.00784313725490196" stop-color="#bababa"/>
      <stop offset="1.0" stop-color="#d4d4d4"/>
    </linearGradient>
    <linearGradient gradientTransform="matrix(-0.0078, -8.0E-4, 0.0027, -0.0071, 28.45, 30.7)" gradientUnits="userSpaceOnUse" id="gradient3" spreadMethod="pad" x1="-819.2" x2="819.2">
      <stop offset="0.00784313725490196" stop-color="#404040"/>
      <stop offset="1.0" stop-color="#999999"/>
    </linearGradient>
    <radialGradient cx="0" cy="0" gradientTransform="matrix(2.0E-4, -0.0158, 0.0103, -0.0036, 11.05, 29.05)" gradientUnits="userSpaceOnUse" id="gradient4" r="819.2" spreadMethod="pad">
      <stop offset="0.0" stop-color="#ffffde" stop-opacity="0.52156866"/>
      <stop offset="0.4117647058823529" stop-color="#ffffcc" stop-opacity="0.0"/>
    </radialGradient>
    <linearGradient gradientTransform="matrix(-7.0E-4, 0.003, 7.0E-4, 2.0E-4, 31.35, 11.6)" gradientUnits="userSpaceOnUse" id="gradient5" spreadMethod="pad" x1="-819.2" x2="819.2">
      <stop offset="0.0" stop-color="#000000" stop-opacity="0.5019608"/>
      <stop offset="1.0" stop-color="#000000" stop-opacity="0.0"/>
    </linearGradient>
    <linearGradient gradientTransform="matrix(-5.0E-4, 0.0023, 5.0E-4, 2.0E-4, 33.4, 4.7)" gradientUnits="userSpaceOnUse" id="gradient6" spreadMethod="pad" x1="-819.2" x2="819.2">
      <stop offset="0.0" stop-color="#000000" stop-opacity="0.5019608"/>
      <stop offset="1.0" stop-color="#000000" stop-opacity="0.0"/>
    </linearGradient>
    <radialGradient cx="0" cy="0" gradientTransform="matrix(0.0024, -0.0121, 0.0068, -0.0021, 23.85, 22.25)" gradientUnits="userSpaceOnUse" id="gradient7" r="819.2" spreadMethod="pad">
      <stop offset="0.0" stop-color="#ffffde" stop-opacity="0.52156866"/>
      <stop offset="0.4117647058823529" stop-color="#ffffcc" stop-opacity="0.0"/>
    </radialGradient>
  </defs>
</svg>
