<?xml version="1.0" encoding="UTF-8" standalone="no"?>
<svg xmlns:xlink="http://www.w3.org/1999/xlink" height="440.0px" width="440.0px" xmlns="http://www.w3.org/2000/svg">
  <g transform="matrix(10.0, 0.0, 0.0, 10.0, 0.0, 0.0)">
    <use height="44.0" transform="matrix(1.0, 0.0, 0.0, 1.0, 0.0, 0.0)" width="44.0" xlink:href="#shape0"/>
    <use height="27.6" transform="matrix(0.1227, 0.1149, -0.0748, 0.0798, 24.5978, 18.2209)" width="14.4" xlink:href="#shape1"/>
    <use height="17.75" transform="matrix(0.1227, 0.1149, -0.0748, 0.0798, 28.8883, 13.1829)" width="17.1" xlink:href="#shape2"/>
    <use height="17.75" transform="matrix(0.1227, 0.1149, -0.0748, 0.0798, 28.1883, 13.8829)" width="17.1" xlink:href="#shape2"/>
    <use height="17.75" transform="matrix(0.1227, 0.1149, -0.0748, 0.0798, 27.4883, 14.6329)" width="17.1" xlink:href="#shape2"/>
    <use height="17.75" transform="matrix(0.1227, 0.1149, -0.0748, 0.0798, 26.7883, 15.3829)" width="17.1" xlink:href="#shape2"/>
    <use height="17.75" transform="matrix(-0.0139, -0.0997, -0.1268, -0.0352, 27.0349, 19.926)" width="17.1" xlink:href="#shape2"/>
    <use height="17.75" transform="matrix(-0.0139, -0.0997, -0.1268, -0.0352, 26.5849, 19.526)" width="17.1" xlink:href="#shape2"/>
    <use height="17.75" transform="matrix(-0.0139, -0.0997, -0.1268, -0.0352, 27.5849, 20.476)" width="17.1" xlink:href="#shape2"/>
    <use height="17.75" transform="matrix(0.1227, 0.1149, -0.0748, 0.0798, 26.2883, 16.1829)" width="17.1" xlink:href="#shape2"/>
    <use height="17.75" transform="matrix(0.1227, 0.1149, -0.0748, 0.0798, 25.5883, 16.8829)" width="17.1" xlink:href="#shape2"/>
    <use height="24.55" transform="matrix(0.1158, 0.1084, -0.1084, 0.1158, 29.4079, 11.8111)" width="24.85" xlink:href="#shape3"/>
    <use height="8.05" transform="matrix(1.0, 0.0, 0.0, 1.0, 23.35, 12.5)" width="6.65" xlink:href="#shape4"/>
    <use height="11.15" transform="matrix(0.2157, 0.0655, -0.1062, 0.3497, 35.1587, 4.3729)" width="17.85" xlink:href="#shape5"/>
    <use height="16.0" transform="matrix(1.0, 0.0, 0.0, 1.0, 25.7, 2.0)" width="12.5" xlink:href="#shape6"/>
    <use height="11.15" transform="matrix(0.1299, 0.0395, -0.064, 0.2106, 30.1423, 11.1782)" width="17.85" xlink:href="#shape5"/>
    <use height="10.0" transform="matrix(1.0, 0.0, 0.0, 1.0, 28.3, 5.35)" width="9.8" xlink:href="#shape7"/>
    <use height="27.6" transform="matrix(0.1227, 0.1149, -0.0748, 0.0798, 17.5478, 25.8709)" width="14.4" xlink:href="#shape1"/>
    <use height="17.75" transform="matrix(0.1227, 0.1149, -0.0748, 0.0798, 21.8383, 20.7329)" width="17.1" xlink:href="#shape2"/>
    <use height="17.75" transform="matrix(0.1227, 0.1149, -0.0748, 0.0798, 21.1383, 21.4329)" width="17.1" xlink:href="#shape2"/>
    <use height="17.75" transform="matrix(0.1227, 0.1149, -0.0748, 0.0798, 20.4383, 22.1829)" width="17.1" xlink:href="#shape2"/>
    <use height="17.75" transform="matrix(0.1227, 0.1149, -0.0748, 0.0798, 19.7383, 22.9329)" width="17.1" xlink:href="#shape2"/>
    <use height="17.75" transform="matrix(-0.0139, -0.0997, -0.1268, -0.0352, 19.9849, 27.476)" width="17.1" xlink:href="#shape2"/>
    <use height="17.75" transform="matrix(-0.0139, -0.0997, -0.1268, -0.0352, 19.5349, 27.076)" width="17.1" xlink:href="#shape2"/>
    <use height="17.75" transform="matrix(-0.0139, -0.0997, -0.1268, -0.0352, 20.5349, 28.026)" width="17.1" xlink:href="#shape2"/>
    <use height="17.75" transform="matrix(0.1227, 0.1149, -0.0748, 0.0798, 19.2383, 23.7329)" width="17.1" xlink:href="#shape2"/>
    <use height="17.75" transform="matrix(0.1227, 0.1149, -0.0748, 0.0798, 18.5383, 24.4329)" width="17.1" xlink:href="#shape2"/>
    <use height="24.55" transform="matrix(0.1158, 0.1084, -0.1084, 0.1158, 22.3579, 19.3111)" width="24.85" xlink:href="#shape3"/>
    <use height="19.75" transform="matrix(1.0, 0.0, 0.0, 1.0, 5.7, 20.4)" width="17.05" xlink:href="#shape8"/>
  </g>
  <defs>
    <g id="shape0" transform="matrix(1.0, 0.0, 0.0, 1.0, 0.0, 0.0)">
      <path d="M44.0 44.0 L0.0 44.0 0.0 0.0 44.0 0.0 44.0 44.0" fill="#33cc33" fill-opacity="0.0" fill-rule="evenodd" stroke="none"/>
      <path d="M20.5 30.65 L21.7 31.05 15.3 38.65 6.15 40.2 7.1 32.55 13.75 25.25 14.3 26.3 8.2 32.65 7.4 39.05 14.6 37.75 20.5 30.65" fill="url(#gradient0)" fill-rule="evenodd" stroke="none"/>
      <path d="M20.5 30.65 L14.6 37.75 7.4 39.05 8.2 32.65 14.3 26.3 15.85 29.2 20.5 30.65" fill="url(#gradient1)" fill-rule="evenodd" stroke="none"/>
      <path d="M14.3 26.3 L13.75 25.25 7.1 32.55 6.15 40.2 15.3 38.65 21.7 31.05 20.5 30.65 M14.3 26.3 L15.85 29.2 20.5 30.65" fill="none" stroke="#000000" stroke-linecap="round" stroke-linejoin="round" stroke-opacity="0.28235295" stroke-width="0.05"/>
      <path d="M20.5 30.65 L14.6 37.75 7.4 39.05 8.2 32.65 14.3 26.3 Z" fill="none" stroke="#b5a89c" stroke-linecap="round" stroke-linejoin="round" stroke-opacity="0.27058825" stroke-width="0.05"/>
      <path d="M16.8 29.3 L15.65 28.2 15.4 28.45 15.65 28.2 16.8 29.3 M15.25 28.4 L15.6 28.05 17.15 29.5 16.8 29.85 16.0 29.15 15.25 28.4" fill="#423737" fill-rule="evenodd" stroke="none"/>
      <path d="M15.05 30.15 L14.5 27.7 15.25 28.4 16.0 29.15 15.05 30.15 M14.65 27.95 L15.15 29.9 15.9 29.1 15.15 29.9 14.65 27.95" fill="#9e8b8b" fill-rule="evenodd" stroke="none"/>
      <path d="M16.8 29.85 L17.5 30.55 15.05 30.15 16.0 29.15 16.8 29.85" fill="#665555" fill-rule="evenodd" stroke="none"/>
      <path d="M15.4 28.45 L15.65 28.2 16.8 29.3" fill="none" stroke="#9e8b8b" stroke-linecap="round" stroke-linejoin="round" stroke-width="0.05"/>
      <path d="M15.05 30.15 L14.5 27.7 15.25 28.4 15.6 28.05 17.15 29.5 16.8 29.85 17.5 30.55 15.05 30.15 16.0 29.15 15.25 28.4 M16.0 29.15 L16.8 29.85" fill="none" stroke="#000000" stroke-linecap="round" stroke-linejoin="round" stroke-opacity="0.2509804" stroke-width="0.05"/>
      <path d="M15.9 29.1 L15.15 29.9 14.65 27.95" fill="none" stroke="#c5baba" stroke-linecap="round" stroke-linejoin="round" stroke-width="0.05"/>
      <path d="M19.15 28.15 L20.7 27.45 17.4 30.15 19.15 28.15 M15.85 27.6 L18.95 25.1 20.75 25.75 23.5 23.55 21.15 26.25 18.85 26.3 15.85 27.6" fill="#391515" fill-rule="evenodd" stroke="none"/>
      <path d="M25.0 23.0 L22.95 25.9 20.75 27.4 18.95 27.45 16.9 28.0 15.75 27.85 19.0 26.75 21.15 26.6 24.6 22.7 25.0 23.0" fill="#712929" fill-rule="evenodd" stroke="none"/>
      <path d="M20.75 27.45 L20.7 27.45 20.75 27.45 M19.15 28.15 L16.9 28.0 18.95 27.45 20.75 27.4 22.95 25.9 25.0 23.0 25.3 23.25 23.3 26.25 17.4 30.15 20.7 27.45 19.15 28.15" fill="#b34040" fill-rule="evenodd" stroke="none"/>
      <path d="M15.75 27.85 L15.45 27.85 15.85 27.6 18.85 26.3 21.15 26.25 23.5 23.55 24.6 22.7 21.15 26.6 19.0 26.75 15.75 27.85" fill="#694747" fill-rule="evenodd" stroke="none"/>
      <path d="M20.7 27.45 L20.75 27.45 M19.15 28.15 L20.7 27.45 17.4 30.15 M15.75 27.85 L19.0 26.75 21.15 26.6 24.6 22.7" fill="none" stroke="#c5baba" stroke-linecap="round" stroke-linejoin="round" stroke-width="0.05"/>
      <path d="M17.4 30.15 L23.3 26.25 25.3 23.25" fill="none" stroke="#000000" stroke-linecap="round" stroke-linejoin="round" stroke-opacity="0.2509804" stroke-width="0.25"/>
      <path d="M29.8 16.9 L27.4 20.45 28.0 18.75 29.8 16.9 M23.8 23.45 L25.75 20.5 24.95 18.7 27.15 15.5 26.2 18.55 26.25 20.95 23.8 23.45" fill="#391515" fill-rule="evenodd" stroke="none"/>
      <path d="M27.65 16.5 L27.25 18.65 27.35 20.5 25.95 22.8 23.6 25.1 23.0 24.55 26.55 20.95 26.6 18.7 27.5 15.35 27.65 16.5" fill="#712929" fill-rule="evenodd" stroke="none"/>
      <path d="M24.0 25.2 L23.6 25.1 25.95 22.8 27.35 20.5 27.25 18.65 27.65 16.5 28.0 18.75 27.4 20.45 29.8 16.9 26.35 23.1 24.0 25.2" fill="#b34040" fill-rule="evenodd" stroke="none"/>
      <path d="M23.0 24.55 L23.8 23.45 26.25 20.95 26.2 18.55 27.15 15.5 27.4 15.1 27.5 15.35 26.6 18.7 26.55 20.95 23.0 24.55" fill="#694747" fill-rule="evenodd" stroke="none"/>
      <path d="M29.8 16.9 L27.4 20.45 28.0 18.75 M23.0 24.55 L26.55 20.95 26.6 18.7 27.5 15.35" fill="none" stroke="#c5baba" stroke-linecap="round" stroke-linejoin="round" stroke-width="0.05"/>
      <path d="M24.0 25.2 L26.35 23.1 29.8 16.9 Z" fill="none" stroke="#000000" stroke-linecap="round" stroke-linejoin="round" stroke-opacity="0.2509804" stroke-width="0.25"/>
      <path d="M26.5 15.95 L24.9 16.65 28.3 14.0 26.5 15.95 M29.8 16.65 L26.65 19.1 24.9 18.35 22.05 20.5 24.45 17.9 26.75 17.8 29.8 16.65" fill="#391515" fill-rule="evenodd" stroke="none"/>
      <path d="M20.55 21.1 L22.65 18.25 24.85 16.7 26.65 16.7 28.75 16.2 29.85 16.3 26.65 17.4 24.45 17.55 20.95 21.4 20.55 21.1" fill="#712929" fill-rule="evenodd" stroke="none"/>
      <path d="M24.9 16.7 L24.9 16.65 24.9 16.7 M26.5 15.95 L28.75 16.2 26.65 16.7 24.85 16.7 22.65 18.25 20.55 21.1 20.25 20.85 22.3 17.85 28.3 14.0 24.9 16.65 26.5 15.95" fill="#b34040" fill-rule="evenodd" stroke="none"/>
      <path d="M29.85 16.3 L30.1 16.3 29.8 16.65 26.75 17.8 24.45 17.9 22.05 20.5 20.95 21.4 24.45 17.55 26.65 17.4 29.85 16.3" fill="#694747" fill-rule="evenodd" stroke="none"/>
      <path d="M24.9 16.65 L24.9 16.7 M26.5 15.95 L24.9 16.65 28.3 14.0 M29.85 16.3 L26.65 17.4 24.45 17.55 20.95 21.4" fill="none" stroke="#c5baba" stroke-linecap="round" stroke-linejoin="round" stroke-width="0.05"/>
      <path d="M28.3 14.0 L22.3 17.85 20.25 20.85" fill="none" stroke="#000000" stroke-linecap="round" stroke-linejoin="round" stroke-opacity="0.2509804" stroke-width="0.25"/>
      <path d="M15.75 27.15 L18.15 23.65 17.55 25.3 15.75 27.15 M21.8 20.65 L19.75 23.6 20.55 25.35 18.3 28.6 19.35 25.5 19.35 23.15 21.8 20.65" fill="#391515" fill-rule="evenodd" stroke="none"/>
      <path d="M17.85 27.55 L18.3 25.45 18.2 23.55 19.6 21.3 21.95 19.0 22.6 19.5 19.0 23.15 18.9 25.35 18.0 28.7 17.85 27.55" fill="#712929" fill-rule="evenodd" stroke="none"/>
      <path d="M21.6 18.9 L21.95 19.0 19.6 21.3 18.2 23.55 18.3 25.45 17.85 27.55 17.55 25.3 18.15 23.65 15.75 27.15 19.2 20.95 21.6 18.9" fill="#b34040" fill-rule="evenodd" stroke="none"/>
      <path d="M22.6 19.5 L21.8 20.65 19.35 23.15 19.35 25.5 18.3 28.6 18.1 28.95 18.0 28.7 18.9 25.35 19.0 23.15 22.6 19.5" fill="#694747" fill-rule="evenodd" stroke="none"/>
      <path d="M15.75 27.15 L18.15 23.65 17.55 25.3 M22.6 19.5 L19.0 23.15 18.9 25.35 18.0 28.7" fill="none" stroke="#c5baba" stroke-linecap="round" stroke-linejoin="round" stroke-width="0.05"/>
      <path d="M21.6 18.9 L19.2 20.95 15.75 27.15 Z" fill="none" stroke="#000000" stroke-linecap="round" stroke-linejoin="round" stroke-opacity="0.2509804" stroke-width="0.25"/>
    </g>
    <radialGradient cx="0" cy="0" gradientTransform="matrix(0.0159, 0.002, -0.002, 0.0159, 14.05, 38.35)" gradientUnits="userSpaceOnUse" id="gradient0" r="819.2" spreadMethod="pad">
      <stop offset="0.0" stop-color="#b4a69a"/>
      <stop offset="0.4627450980392157" stop-color="#dbe7db"/>
      <stop offset="1.0" stop-color="#b7aca0"/>
    </radialGradient>
    <radialGradient cx="0" cy="0" gradientTransform="matrix(0.0178, 0.0023, -0.0023, 0.0178, 18.35, 32.0)" gradientUnits="userSpaceOnUse" id="gradient1" r="819.2" spreadMethod="pad">
      <stop offset="0.0" stop-color="#b4a69a"/>
      <stop offset="0.4627450980392157" stop-color="#dbe7db"/>
      <stop offset="1.0" stop-color="#b7aca0"/>
    </radialGradient>
    <g id="shape1" transform="matrix(1.0, 0.0, 0.0, 1.0, 7.2, 13.8)">
      <path d="M0.85 13.8 L-0.85 13.8 -7.2 13.8 -7.2 -13.8 0.85 -13.8 0.85 13.8 M-0.85 -11.15 L-0.85 13.8 -0.85 -11.15" fill="#655959" fill-rule="evenodd" stroke="none"/>
      <path d="M0.85 -13.8 L7.2 -13.8 7.2 13.8 0.85 13.8 0.85 -13.8" fill="#2a2323" fill-rule="evenodd" stroke="none"/>
      <path d="M-0.85 13.8 L-0.85 -11.15" fill="none" stroke="#7f7878" stroke-linecap="round" stroke-linejoin="round" stroke-width="0.05"/>
    </g>
    <g id="shape2" transform="matrix(1.0, 0.0, 0.0, 1.0, 8.55, 9.2)">
      <path d="M7.45 -9.2 L7.55 -9.2 7.55 -7.45 Q5.25 -6.35 2.8 -5.5 0.25 -4.65 -1.6 -3.5 1.05 -5.7 4.15 -7.4 L7.45 -9.2 M5.65 -4.4 L6.05 -3.65 Q5.45 -2.85 3.85 -2.15 -0.65 -0.05 -4.2 2.6 L-3.1 0.9 -1.7 -1.0 Q-1.6 -0.75 -1.3 -0.9 2.15 -2.4 5.65 -4.4" fill="#87481c" fill-rule="evenodd" stroke="none"/>
      <path d="M7.55 -7.45 L8.55 -4.45 7.45 -1.7 -7.45 6.35 -7.45 5.0 -3.2 -0.25 -7.45 1.6 -7.45 0.0 5.05 -9.2 7.45 -9.2 4.15 -7.4 Q1.05 -5.7 -1.6 -3.5 0.25 -4.65 2.8 -5.5 5.25 -6.35 7.55 -7.45 M5.65 -4.4 Q2.15 -2.4 -1.3 -0.9 -1.6 -0.75 -1.7 -1.0 L-3.1 0.9 -4.2 2.6 Q-0.65 -0.05 3.85 -2.15 5.45 -2.85 6.05 -3.65 L5.65 -4.4" fill="#5c1e15" fill-rule="evenodd" stroke="none"/>
      <path d="M7.45 -1.7 L-6.45 8.55 -7.45 7.95 -7.45 6.35 7.45 -1.7 M-7.45 5.0 L-8.55 3.65 -7.45 1.6 -3.2 -0.25 -7.45 5.0" fill="#310f0b" fill-rule="evenodd" stroke="none"/>
      <path d="M7.45 -1.7 L-6.45 8.55 M-7.45 0.0 L5.05 -9.2" fill="none" stroke="#000000" stroke-linecap="round" stroke-linejoin="round" stroke-opacity="0.2509804" stroke-width="0.05"/>
    </g>
    <g id="shape3" transform="matrix(1.0, 0.0, 0.0, 1.0, 12.6, 14.45)">
      <path d="M2.5 -2.45 Q10.9 -2.3 1.85 -14.3 5.1 -14.9 7.4 -13.3 11.3 -11.1 11.4 -7.9 L11.55 -7.35 Q9.9 -1.65 11.8 4.35 2.55 -0.35 -2.4 1.6 -8.3 3.3 -12.45 6.8 L-12.5 6.75 -11.3 3.45 -7.55 1.25 -4.1 -0.7 Q-0.2 -2.7 1.9 -2.5 L2.5 -2.45 M-7.5 1.7 L-7.55 1.25 -7.5 1.7" fill="#712929" fill-rule="evenodd" stroke="none"/>
      <path d="M11.8 4.35 L11.95 4.85 Q10.45 6.6 7.3 6.1 5.7 3.95 -3.45 6.0 L-2.7 6.1 Q-6.2 6.3 -9.65 10.1 -13.0 9.8 -12.5 6.95 L-12.45 6.8 Q-8.3 3.3 -2.4 1.6 2.55 -0.35 11.8 4.35" fill="#b26060" fill-rule="evenodd" stroke="none"/>
      <path d="M-11.3 3.45 Q-9.65 -2.15 -11.25 -5.3 -12.85 -8.3 -10.4 -10.0 L-8.9 -10.95 Q-2.55 -4.95 -7.55 1.25 L-11.3 3.45" fill="#af5d5d" fill-rule="evenodd" stroke="none"/>
      <path d="M2.5 -2.45 L1.9 -2.5 Q-0.2 -2.7 -4.1 -0.7 L-2.75 -1.5 Q2.65 -6.0 -4.9 -13.0 L-1.05 -14.1 Q1.65 -11.15 3.1 -6.4 4.15 -3.55 2.5 -2.45" fill="#853939" fill-rule="evenodd" stroke="none"/>
      <path d="M-4.1 -0.7 L-7.55 1.25 Q-2.55 -4.95 -8.9 -10.95 -6.8 -12.25 -4.9 -13.0 2.65 -6.0 -2.75 -1.5 L-4.1 -0.7" fill="#a35353" fill-rule="evenodd" stroke="none"/>
      <path d="M1.85 -14.3 Q10.9 -2.3 2.5 -2.45 4.15 -3.55 3.1 -6.4 1.65 -11.15 -1.05 -14.1 L1.4 -14.25 1.85 -14.3" fill="#7b3131" fill-rule="evenodd" stroke="none"/>
      <path d="M-7.55 1.25 L-7.5 1.7 M11.8 4.35 L12.15 4.45 M-8.9 -10.95 L-8.95 -11.4 M-12.5 6.95 L-12.45 6.8 M-11.3 3.45 L-12.05 3.85 M11.8 4.35 Q2.55 -0.35 -2.4 1.6 -8.3 3.3 -12.45 6.8" fill="none" stroke="#400000" stroke-linecap="round" stroke-linejoin="round" stroke-opacity="0.2509804" stroke-width="0.25"/>
    </g>
    <g id="shape4" transform="matrix(1.0, 0.0, 0.0, 1.0, -23.35, -12.5)">
      <path d="M29.2 15.65 Q28.25 17.25 26.8 18.7 25.45 20.1 24.4 20.45 23.4 20.8 23.35 19.95 23.25 19.0 24.2 17.4 25.15 15.85 26.55 14.4 27.9 13.0 28.95 12.6 30.0 12.25 30.0 13.2 30.15 14.1 29.2 15.65" fill="url(#gradient2)" fill-rule="evenodd" stroke="none"/>
    </g>
    <radialGradient cx="0" cy="0" gradientTransform="matrix(0.0053, -0.0053, 3.0E-4, 0.0034, 26.7, 16.55)" gradientUnits="userSpaceOnUse" id="gradient2" r="819.2" spreadMethod="pad">
      <stop offset="0.0" stop-color="#ffffde" stop-opacity="0.52156866"/>
      <stop offset="0.4117647058823529" stop-color="#ffffcc" stop-opacity="0.0"/>
    </radialGradient>
    <g id="shape5" transform="matrix(1.0, 0.0, 0.0, 1.0, 8.95, 5.55)">
      <path d="M3.75 -1.75 L1.65 -2.6 Q-0.35 -3.15 -1.7 -4.0 0.55 -4.95 3.55 -3.95 8.7 -2.25 4.35 0.55 L4.6 0.6 4.1 0.55 Q2.7 0.4 1.7 -0.25 L2.5 -0.85 Q3.3 -1.25 3.75 -1.75 M1.55 3.85 L1.05 3.85 Q-0.05 3.4 0.45 2.65 1.25 2.05 2.45 2.35 L2.85 2.8 Q2.7 3.7 1.55 3.85" fill="#fdfdbd" fill-rule="evenodd" stroke="none"/>
      <path d="M3.75 -1.75 Q3.3 -1.25 2.5 -0.85 L1.7 -0.25 Q2.7 0.4 4.1 0.55 L4.6 0.6 4.35 0.55 Q8.7 -2.25 3.55 -3.95 0.55 -4.95 -1.7 -4.0 -0.35 -3.15 1.65 -2.6 L3.75 -1.75 M6.3 3.95 Q3.7 5.6 0.0 5.6 -3.7 5.6 -6.3 3.95 -8.95 2.3 -8.95 0.0 -8.95 -2.3 -6.3 -3.9 -3.7 -5.55 0.0 -5.55 3.7 -5.55 6.3 -3.9 8.9 -2.3 8.9 0.0 8.9 2.3 6.3 3.95 M1.55 3.85 Q2.7 3.7 2.85 2.8 L2.45 2.35 Q1.25 2.05 0.45 2.65 -0.05 3.4 1.05 3.85 L1.55 3.85" fill="url(#gradient3)" fill-rule="evenodd" stroke="none"/>
      <path d="M6.3 3.95 Q3.7 5.6 0.0 5.6 -3.7 5.6 -6.3 3.95 -8.95 2.3 -8.95 0.0 -8.95 -2.3 -6.3 -3.9 -3.7 -5.55 0.0 -5.55 3.7 -5.55 6.3 -3.9 8.9 -2.3 8.9 0.0 8.9 2.3 6.3 3.95 Z" fill="none" stroke="#a17960" stroke-linecap="round" stroke-linejoin="round" stroke-width="0.05"/>
    </g>
    <radialGradient cx="0" cy="0" gradientTransform="matrix(-0.0179, 0.0, 0.0, -0.0112, 3.45, 2.8)" gradientUnits="userSpaceOnUse" id="gradient3" r="819.2" spreadMethod="pad">
      <stop offset="0.0" stop-color="#d8da87"/>
      <stop offset="0.48627450980392156" stop-color="#b7ad8e"/>
      <stop offset="1.0" stop-color="#af897e"/>
    </radialGradient>
    <g id="shape6" transform="matrix(1.0, 0.0, 0.0, 1.0, -25.7, -2.0)">
      <path d="M38.0 4.85 Q38.35 5.45 38.15 6.15 37.95 6.8 37.35 7.1 L36.1 7.3 35.15 6.5 Q34.9 5.9 35.1 5.2 35.3 4.5 35.85 4.2 L37.1 4.05 Q37.7 4.2 38.0 4.85" fill="url(#gradient4)" fill-rule="evenodd" stroke="none"/>
      <path d="M37.55 3.4 Q38.05 4.75 37.85 6.45 37.65 8.2 36.85 9.35 36.05 10.5 35.05 10.4 34.1 10.3 33.55 9.0 33.0 7.7 33.2 5.9 33.4 4.2 34.2 3.0 35.05 1.9 36.05 2.0 37.0 2.1 37.55 3.4" fill="url(#gradient5)" fill-rule="evenodd" stroke="none"/>
      <path d="M32.6 17.9 L32.6 18.0 31.1 16.1 31.45 15.1 29.75 12.95 31.9 14.85 32.0 16.1 32.6 17.9 M33.85 17.05 L32.8 16.0 32.35 15.15 33.85 17.05" fill="#391515" fill-rule="evenodd" stroke="none"/>
      <path d="M29.75 12.95 L30.1 12.55 31.7 13.7 33.85 17.05 32.35 15.15 32.8 16.0 32.6 17.9 32.0 16.1 31.9 14.85 29.75 12.95" fill="#712929" fill-rule="evenodd" stroke="none"/>
      <path d="M32.6 17.9 L32.0 16.1 31.9 14.85 29.75 12.95 M33.85 17.05 L32.35 15.15 32.8 16.0" fill="none" stroke="#c5baba" stroke-linecap="round" stroke-linejoin="round" stroke-width="0.05"/>
      <path d="M25.8 11.55 L25.7 11.55 27.7 12.95 28.65 12.5 30.95 14.05 28.85 12.05 27.65 12.05 25.8 11.55 M26.6 10.25 L27.7 11.2 28.6 11.6 26.6 10.25" fill="#391515" fill-rule="evenodd" stroke="none"/>
      <path d="M30.95 14.05 L31.3 13.7 30.05 12.1 26.6 10.25 28.6 11.6 27.7 11.2 25.8 11.55 27.65 12.05 28.85 12.05 30.95 14.05" fill="#712929" fill-rule="evenodd" stroke="none"/>
      <path d="M25.8 11.55 L27.65 12.05 28.85 12.05 30.95 14.05 M26.6 10.25 L28.6 11.6 27.7 11.2" fill="none" stroke="#c5baba" stroke-linecap="round" stroke-linejoin="round" stroke-width="0.05"/>
      <path d="M31.55 17.1 L31.55 17.2 30.5 15.8 30.75 15.15 29.55 13.6 31.1 15.0 31.15 15.8 31.55 17.1 M32.45 16.45 L31.7 15.8 31.4 15.1 32.45 16.45" fill="#391515" fill-rule="evenodd" stroke="none"/>
      <path d="M29.55 13.6 L29.8 13.35 30.95 14.1 32.45 16.45 31.4 15.1 31.7 15.8 31.55 17.1 31.15 15.8 31.1 15.0 29.55 13.6" fill="#712929" fill-rule="evenodd" stroke="none"/>
      <path d="M31.55 17.1 L31.15 15.8 31.1 15.0 29.55 13.6 M32.45 16.45 L31.4 15.1 31.7 15.8" fill="none" stroke="#c5baba" stroke-linecap="round" stroke-linejoin="round" stroke-width="0.05"/>
      <path d="M26.75 12.6 L26.6 12.55 28.05 13.55 28.75 13.2 30.35 14.3 28.9 12.9 28.05 12.9 26.75 12.6 M27.3 11.6 L28.05 12.35 28.7 12.55 27.3 11.6" fill="#391515" fill-rule="evenodd" stroke="none"/>
      <path d="M30.35 14.3 L30.6 14.1 29.75 12.95 27.3 11.6 28.7 12.55 28.05 12.35 26.75 12.6 28.05 12.9 28.9 12.9 30.35 14.3" fill="#712929" fill-rule="evenodd" stroke="none"/>
      <path d="M26.75 12.6 L28.05 12.9 28.9 12.9 30.35 14.3 M27.3 11.6 L28.7 12.55 28.05 12.35" fill="none" stroke="#c5baba" stroke-linecap="round" stroke-linejoin="round" stroke-width="0.05"/>
    </g>
    <radialGradient cx="0" cy="0" gradientTransform="matrix(0.0019, 6.0E-4, -6.0E-4, 0.002, 36.6, 5.7)" gradientUnits="userSpaceOnUse" id="gradient4" r="819.2" spreadMethod="pad">
      <stop offset="0.0" stop-color="#ffffff"/>
      <stop offset="0.24313725490196078" stop-color="#ffffff"/>
      <stop offset="0.26666666666666666" stop-color="#ffffff" stop-opacity="0.56078434"/>
      <stop offset="0.9333333333333333" stop-color="#ffffff" stop-opacity="0.0"/>
    </radialGradient>
    <radialGradient cx="0" cy="0" gradientTransform="matrix(8.0E-4, -0.0066, 0.0037, 4.0E-4, 35.55, 6.25)" gradientUnits="userSpaceOnUse" id="gradient5" r="819.2" spreadMethod="pad">
      <stop offset="0.0" stop-color="#ffffde" stop-opacity="0.52156866"/>
      <stop offset="0.4117647058823529" stop-color="#ffffcc" stop-opacity="0.0"/>
    </radialGradient>
    <g id="shape7" transform="matrix(1.0, 0.0, 0.0, 1.0, -28.3, -5.35)">
      <path d="M31.85 11.5 L31.9 12.3 31.4 12.9 30.7 13.0 Q30.3 12.85 30.1 12.5 L30.1 11.75 Q30.2 11.3 30.55 11.15 L31.3 11.05 31.85 11.5" fill="url(#gradient6)" fill-rule="evenodd" stroke="none"/>
      <path d="M31.6 10.6 Q31.9 11.45 31.8 12.5 L31.2 14.2 Q30.7 14.95 30.1 14.85 29.5 14.75 29.2 14.0 28.9 13.2 28.95 12.2 29.1 11.15 29.6 10.4 30.1 9.7 30.65 9.8 31.3 9.85 31.6 10.6" fill="url(#gradient7)" fill-rule="evenodd" stroke="none"/>
      <path d="M31.6 15.25 L31.6 15.35 33.0 13.35 32.55 12.4 34.1 10.1 32.1 12.2 32.1 13.4 31.6 15.25 M30.3 14.45 L31.25 13.35 31.65 12.45 30.3 14.45" fill="#391515" fill-rule="evenodd" stroke="none"/>
      <path d="M34.1 10.1 L33.75 9.75 32.15 11.0 30.3 14.45 31.65 12.45 31.25 13.35 31.6 15.25 32.1 13.4 32.1 12.2 34.1 10.1" fill="#712929" fill-rule="evenodd" stroke="none"/>
      <path d="M31.6 15.25 L32.1 13.4 32.1 12.2 34.1 10.1 M30.3 14.45 L31.65 12.45 31.25 13.35" fill="none" stroke="#c5baba" stroke-linecap="round" stroke-linejoin="round" stroke-width="0.05"/>
      <path d="M38.0 8.35 L38.1 8.35 36.2 9.85 35.2 9.5 33.05 11.2 34.95 9.05 36.2 8.95 38.0 8.35 M37.15 7.1 L36.1 8.15 35.25 8.6 37.15 7.1" fill="#391515" fill-rule="evenodd" stroke="none"/>
      <path d="M33.05 11.2 L32.65 10.85 33.8 9.25 37.15 7.1 35.25 8.6 36.1 8.15 38.0 8.35 36.2 8.95 34.95 9.05 33.05 11.2" fill="#712929" fill-rule="evenodd" stroke="none"/>
      <path d="M38.0 8.35 L36.2 8.95 34.95 9.05 33.05 11.2 M37.15 7.1 L35.25 8.6 36.1 8.15" fill="none" stroke="#c5baba" stroke-linecap="round" stroke-linejoin="round" stroke-width="0.05"/>
      <path d="M28.4 12.25 L28.3 12.25 30.2 10.75 31.2 11.1 33.35 9.4 31.45 11.55 30.2 11.65 28.4 12.25 M29.25 13.5 L30.3 12.45 31.15 12.0 29.25 13.5" fill="#391515" fill-rule="evenodd" stroke="none"/>
      <path d="M33.35 9.4 L33.75 9.75 32.6 11.35 29.25 13.5 31.15 12.0 30.3 12.45 28.4 12.25 30.2 11.65 31.45 11.55 33.35 9.4" fill="#712929" fill-rule="evenodd" stroke="none"/>
      <path d="M28.4 12.25 L30.2 11.65 31.45 11.55 33.35 9.4 M29.25 13.5 L31.15 12.0 30.3 12.45" fill="none" stroke="#c5baba" stroke-linecap="round" stroke-linejoin="round" stroke-width="0.05"/>
      <path d="M34.9 5.45 L34.9 5.35 33.5 7.35 33.95 8.3 32.4 10.6 34.4 8.5 34.4 7.3 34.9 5.45 M36.2 6.25 L35.25 7.35 34.85 8.25 36.2 6.25" fill="#391515" fill-rule="evenodd" stroke="none"/>
      <path d="M32.4 10.6 L32.75 10.95 34.35 9.7 36.2 6.25 34.85 8.25 35.25 7.35 34.9 5.45 34.4 7.3 34.4 8.5 32.4 10.6" fill="#712929" fill-rule="evenodd" stroke="none"/>
      <path d="M34.9 5.45 L34.4 7.3 34.4 8.5 32.4 10.6 M36.2 6.25 L34.85 8.25 35.25 7.35" fill="none" stroke="#c5baba" stroke-linecap="round" stroke-linejoin="round" stroke-width="0.05"/>
    </g>
    <radialGradient cx="0" cy="0" gradientTransform="matrix(0.0012, 4.0E-4, -4.0E-4, 0.0012, 31.0, 12.0)" gradientUnits="userSpaceOnUse" id="gradient6" r="819.2" spreadMethod="pad">
      <stop offset="0.0" stop-color="#ffffff"/>
      <stop offset="0.24313725490196078" stop-color="#ffffff"/>
      <stop offset="0.26666666666666666" stop-color="#ffffff" stop-opacity="0.56078434"/>
      <stop offset="0.9333333333333333" stop-color="#ffffff" stop-opacity="0.0"/>
    </radialGradient>
    <radialGradient cx="0" cy="0" gradientTransform="matrix(5.0E-4, -0.004, 0.0022, 2.0E-4, 30.4, 12.3)" gradientUnits="userSpaceOnUse" id="gradient7" r="819.2" spreadMethod="pad">
      <stop offset="0.0" stop-color="#ffffde" stop-opacity="0.52156866"/>
      <stop offset="0.4117647058823529" stop-color="#ffffcc" stop-opacity="0.0"/>
    </radialGradient>
    <g id="shape8" transform="matrix(1.0, 0.0, 0.0, 1.0, -5.7, -20.4)">
      <path d="M21.95 23.55 L19.55 26.6 Q18.2 28.0 17.15 28.35 16.15 28.7 16.1 27.85 16.0 26.9 16.95 25.3 17.9 23.75 19.3 22.3 20.65 20.9 21.7 20.5 22.75 20.15 22.75 21.1 22.9 22.0 21.95 23.55" fill="url(#gradient8)" fill-rule="evenodd" stroke="none"/>
      <path d="M13.15 25.8 L14.3 24.45 14.85 24.5 14.9 24.5 15.15 25.45 15.15 25.6 15.3 25.9 15.3 26.2 15.4 26.5 15.65 27.1 15.6 27.25 15.6 27.3 15.6 27.45 15.7 27.8 15.65 28.25 15.65 28.2 15.75 28.2 15.7 28.25 15.65 28.35 15.6 28.2 14.9 28.7 15.6 28.2 15.65 28.35 15.6 28.4 14.9 28.7 14.85 28.75 14.85 28.8 14.8 28.8 14.85 28.8 14.8 28.8 14.75 28.85 15.25 28.85 15.2 29.0 9.9 35.4 7.05 38.95 6.95 38.55 7.05 38.95 6.8 39.3 6.3 39.95 6.3 39.4 6.85 35.6 6.9 35.6 6.9 35.3 7.0 34.35 6.95 34.25 7.0 34.2 7.2 32.5 6.9 32.75 6.85 32.6 12.55 26.4 13.05 25.9 13.15 25.8 13.05 25.9 13.4 26.15 13.05 25.9 13.05 25.8 13.05 25.75 13.15 25.8 M14.5 24.95 L13.4 26.15 7.9 32.25 7.85 32.75 7.2 36.85 6.95 38.55 10.05 34.7 9.4 35.1 Q9.0 35.0 9.45 35.0 L10.1 34.35 10.1 34.25 10.05 34.25 10.0 34.2 Q10.25 34.5 10.45 34.1 L10.6 33.65 10.6 33.8 15.15 27.95 15.05 27.5 15.15 27.7 14.55 25.3 14.5 24.95 M15.4 26.5 L15.6 27.25 15.4 26.5 M15.15 25.45 L14.85 24.5 15.15 25.45 M6.7 32.6 L7.05 31.95 6.7 32.7 6.7 32.6" fill="#e8ded7" fill-rule="evenodd" stroke="none"/>
      <path d="M16.75 26.9 L17.2 26.9 16.85 27.2 16.8 27.1 16.75 26.9 M18.05 28.2 L18.3 27.8 18.35 28.4 18.05 28.2" fill="#6c6c6c" fill-rule="evenodd" stroke="none"/>
      <path d="M15.65 27.35 L15.6 27.25 15.75 27.05 15.9 27.65 16.7 26.9 16.75 26.9 16.8 27.1 16.85 27.2 17.1 27.55 17.85 28.05 18.05 28.2 18.35 28.4 18.0 28.75 17.15 28.3 17.15 28.4 16.9 28.8 16.05 28.65 16.0 28.6 15.85 28.15 15.85 28.1 15.7 27.8 15.6 27.45 15.6 27.3 15.65 27.35 M7.05 38.95 L9.9 35.4 15.2 29.0 Q15.75 29.15 15.85 29.45 L15.95 29.55 7.6 38.45 7.05 38.95 M14.85 28.8 L14.85 28.75 14.9 28.7 14.9 28.75 14.85 28.8 14.9 28.75 14.85 28.8 M14.9 28.75 L14.9 28.7 15.6 28.4 14.9 28.75" fill="#b69987" fill-rule="evenodd" stroke="none"/>
      <path d="M16.7 26.9 L16.75 26.85 16.75 26.9 16.7 26.9" fill="#b7b7b7" fill-rule="evenodd" stroke="none"/>
      <path d="M18.0 28.75 L17.4 29.55 16.05 28.65 16.9 28.8 17.15 28.4 17.15 28.3 18.0 28.75 M15.65 28.2 L15.75 28.1 15.9 28.7 17.4 29.55 21.35 30.6 21.6 31.0 20.55 30.8 20.45 30.8 18.95 30.45 17.5 30.1 15.95 30.6 7.6 38.45 15.95 29.55 15.85 29.45 Q15.75 29.15 15.2 29.0 L15.25 28.85 14.75 28.85 14.8 28.8 14.85 28.8 14.9 28.75 15.6 28.4 15.65 28.35 15.7 28.25 15.75 28.2 15.65 28.2 M16.45 29.95 L16.4 30.1 16.45 30.05 16.45 29.95 M16.05 29.25 L16.05 29.05 16.0 28.95 15.85 28.65 16.05 29.25" fill="#66564b" fill-rule="evenodd" stroke="none"/>
      <path d="M16.45 29.95 L16.45 30.05 16.4 30.1 16.45 29.95 M16.05 29.25 L15.85 28.65 16.0 28.95 16.05 29.05 16.05 29.25" fill="#999999" fill-rule="evenodd" stroke="none"/>
      <path d="M10.0 34.2 L10.05 34.25 10.1 34.25 10.1 34.35 9.45 35.0 Q9.0 35.0 9.4 35.1 L8.9 35.1 8.6 35.1 8.4 34.85 8.55 34.45 Q8.2 34.4 8.25 34.0 L8.4 33.4 8.7 32.3 Q9.1 31.5 9.8 30.75 L9.8 30.7 Q11.1 29.3 11.0 30.7 L10.75 32.0 Q10.55 32.15 10.5 33.5 L10.1 33.1 10.5 31.7 10.5 31.15 Q10.4 31.0 10.55 30.9 L10.35 31.0 9.8 31.2 Q8.9 31.9 8.8 33.15 L8.8 33.65 Q8.8 34.1 9.25 34.15 L9.65 34.05 9.85 34.05 9.85 34.0 9.9 34.0 10.0 34.1 10.0 34.2 M11.85 29.25 Q11.35 29.5 11.3 29.85 L11.1 30.1 Q10.9 30.05 10.95 29.8 L11.4 28.85 Q11.45 28.55 12.0 28.2 12.45 27.95 12.25 28.5 L11.85 29.25" fill="#d4b29d" fill-rule="evenodd" stroke="none"/>
      <path d="M11.25 39.2 L10.65 39.3 10.6 38.9 10.75 38.85 11.1 38.75 Q11.5 38.8 11.4 39.1 11.3 39.05 11.25 39.2 M13.0 33.9 Q14.6 32.8 13.9 34.85 13.65 35.75 12.65 36.9 L11.4 38.05 11.3 38.0 10.75 37.9 10.45 37.7 10.5 37.3 Q11.0 35.85 11.85 34.9 L13.0 33.9" fill="#877264" fill-rule="evenodd" stroke="none"/>
      <path d="M8.7 32.3 L8.4 33.4 8.25 34.0 Q8.2 34.4 8.55 34.45 L8.4 34.85 8.6 35.1 8.9 35.1 9.4 35.1 8.8 35.35 8.6 35.5 Q7.85 36.95 7.2 36.85 L7.85 32.75 Q8.3 32.15 8.7 32.3" fill="#b39784" fill-rule="evenodd" stroke="none"/>
      <path d="M10.6 33.65 L10.45 34.1 Q10.25 34.5 10.0 34.2 L10.0 34.1 9.9 34.0 9.85 34.0 9.85 34.05 9.65 34.05 9.25 34.15 Q8.8 34.1 8.8 33.65 L8.8 33.15 Q8.9 31.9 9.8 31.2 L10.35 31.0 10.55 30.9 Q10.4 31.0 10.5 31.15 L10.5 31.7 10.1 33.1 10.5 33.5 10.6 33.65" fill="#d9d0c9" fill-rule="evenodd" stroke="none"/>
      <path d="M6.85 35.6 L7.0 34.35 6.9 35.3 6.9 35.6 6.85 35.6 M6.9 32.75 L6.75 32.85 6.8 32.75 6.8 32.7 6.85 32.6 6.8 32.7 6.85 32.5 6.85 32.6 6.9 32.75 M13.4 26.15 L14.5 24.95 14.55 25.3 15.15 27.7 15.05 27.5 15.15 27.95 10.6 33.8 10.6 33.65 10.5 33.5 Q10.55 32.15 10.75 32.0 L11.0 30.7 Q11.1 29.3 9.8 30.7 L9.8 30.75 Q9.1 31.5 8.7 32.3 8.3 32.15 7.85 32.75 L7.9 32.25 13.4 26.15 M9.4 35.1 L10.05 34.7 6.95 38.55 7.2 36.85 Q7.85 36.95 8.6 35.5 L8.8 35.35 9.4 35.1 M13.05 25.8 L13.05 25.9 12.55 26.4 13.05 25.8 M11.85 29.25 L12.25 28.5 Q12.45 27.95 12.0 28.2 11.45 28.55 11.4 28.85 L10.95 29.8 Q10.9 30.05 11.1 30.1 L11.3 29.85 Q11.35 29.5 11.85 29.25" fill="url(#gradient9)" fill-rule="evenodd" stroke="none"/>
      <path d="M10.7 39.35 L6.3 40.1 6.3 39.95 10.55 39.35 10.7 39.35 M7.6 38.45 L15.95 30.6 17.5 30.1 18.95 30.45 20.45 30.8 17.4 34.45 17.05 34.9 14.55 37.85 12.95 38.15 10.6 38.55 6.8 39.3 7.05 38.95 7.6 38.45 M13.0 33.9 L11.85 34.9 Q11.0 35.85 10.5 37.3 L10.45 37.7 10.75 37.9 11.3 38.0 11.4 38.05 12.65 36.9 Q13.65 35.75 13.9 34.85 14.6 32.8 13.0 33.9" fill="url(#gradient10)" fill-rule="evenodd" stroke="none"/>
      <path d="M21.6 31.0 L18.2 34.9 18.15 34.95 17.4 34.45 20.45 30.8 20.55 30.8 21.6 31.0 M17.8 35.35 L15.0 38.6 13.05 38.95 12.95 38.15 14.55 37.85 17.05 34.9 17.8 35.35 M6.8 39.3 L10.6 38.55 10.6 38.9 10.65 39.3 10.55 39.35 6.3 39.95 6.8 39.3" fill="url(#gradient11)" fill-rule="evenodd" stroke="none"/>
      <path d="M13.05 38.95 L11.25 39.2 Q11.3 39.05 11.4 39.1 11.5 38.8 11.1 38.75 L10.75 38.85 10.6 38.9 10.6 38.55 12.95 38.15 13.05 38.95" fill="url(#gradient12)" fill-rule="evenodd" stroke="none"/>
      <path d="M18.15 34.95 L17.8 35.35 17.05 34.9 17.4 34.45 18.15 34.95" fill="url(#gradient13)" fill-rule="evenodd" stroke="none"/>
      <path d="M15.6 27.25 L15.75 27.05 15.9 27.65 16.7 26.9 16.75 26.85 M16.75 26.9 L17.2 26.9 16.85 27.2 M18.05 28.2 L18.3 27.8 18.35 28.4 18.0 28.75 17.4 29.55 M15.85 28.15 L15.85 28.1 M16.75 26.9 L16.7 26.9" fill="none" stroke="#000000" stroke-linecap="round" stroke-linejoin="round" stroke-opacity="0.33333334" stroke-width="0.25"/>
      <path d="M6.75 32.95 L6.35 34.95 M13.05 25.9 L13.4 26.15 M14.55 25.3 L15.15 27.7 15.05 27.5 15.15 27.95 10.6 33.8 10.6 33.65 M9.9 35.4 L15.2 29.0 15.25 28.85 14.75 28.85 14.8 28.8 14.85 28.8 14.9 28.75 14.85 28.8 M14.9 28.7 L15.6 28.2 15.65 28.35 M15.6 28.4 L15.65 28.35 M14.9 28.7 L14.9 28.75 15.6 28.4 M12.65 25.5 L13.05 25.8 M10.5 33.5 L10.6 33.65 M6.8 32.75 L6.75 32.85" fill="none" stroke="#a17960" stroke-linecap="round" stroke-linejoin="round" stroke-opacity="0.2509804" stroke-width="0.05"/>
      <path d="M16.75 26.85 L16.75 26.9 16.8 27.1 16.85 27.2 17.1 27.55 17.85 28.05 M17.4 29.55 L16.05 28.65 16.0 28.6" fill="none" stroke="#000000" stroke-linecap="round" stroke-linejoin="round" stroke-opacity="0.3019608" stroke-width="0.4"/>
      <path d="M14.85 28.8 L14.85 28.75 M14.85 28.8 L14.8 28.8" fill="none" stroke="#69513b" stroke-linecap="round" stroke-linejoin="round" stroke-width="0.05"/>
      <path d="M13.15 25.8 L14.3 24.45 14.85 24.5 15.15 25.45 15.15 25.6 15.3 25.9 15.3 26.2 15.4 26.5 M15.6 27.25 L15.65 27.35 M21.35 30.6 L21.6 31.0 18.2 34.9 M18.15 34.95 L17.8 35.35 15.0 38.6 13.05 38.95 11.25 39.2 10.65 39.3 M6.75 32.85 L6.75 32.95 M13.15 25.8 L13.05 25.9 M12.55 26.4 L13.05 25.9 M15.6 27.25 L15.4 26.5 M10.55 39.35 L10.65 39.3 M10.55 39.35 L6.3 39.95 M6.8 32.7 L6.85 32.6 M6.85 32.5 L6.8 32.7 6.8 32.6 6.85 32.5 M12.55 26.4 L6.85 32.6 M6.8 32.7 L6.8 32.75 6.75 32.85 6.8 32.75" fill="none" stroke="#1b4d7e" stroke-linecap="round" stroke-linejoin="round" stroke-opacity="0.4" stroke-width="0.05"/>
      <path d="M18.2 34.9 L18.15 34.95 M10.65 39.3 L10.7 39.35 M13.4 26.15 L14.5 24.95 M6.95 38.55 L7.05 38.95 M7.2 36.85 L6.95 38.55 M6.8 39.3 L10.6 38.55 12.95 38.15 14.55 37.85 17.05 34.9 17.4 34.45 20.45 30.8 M7.85 32.75 L7.9 32.25 13.4 26.15 M7.85 32.75 L7.2 36.85" fill="none" stroke="#ffffff" stroke-linecap="round" stroke-linejoin="round" stroke-opacity="0.5019608" stroke-width="0.05"/>
      <path d="M15.5 27.7 Q15.2 29.9 13.6 32.15 12.0 34.35 9.95 35.25 8.0 36.2 6.75 35.3 5.5 34.35 5.75 32.2 6.15 30.0 7.7 27.8 9.3 25.55 11.3 24.6 L14.55 24.7 Q15.85 25.55 15.5 27.7" fill="url(#gradient14)" fill-rule="evenodd" stroke="none"/>
      <path d="M20.65 32.1 L21.0 31.5 Q17.0 35.25 14.95 38.65 L6.15 40.15 16.4 28.8 17.4 29.85 17.6 29.7 20.9 30.9 21.1 31.65 20.65 32.1" fill="url(#gradient15)" fill-rule="evenodd" stroke="none"/>
    </g>
    <radialGradient cx="0" cy="0" gradientTransform="matrix(0.0053, -0.0053, 3.0E-4, 0.0034, 19.45, 24.45)" gradientUnits="userSpaceOnUse" id="gradient8" r="819.2" spreadMethod="pad">
      <stop offset="0.0" stop-color="#ffffde" stop-opacity="0.52156866"/>
      <stop offset="0.4117647058823529" stop-color="#ffffcc" stop-opacity="0.0"/>
    </radialGradient>
    <linearGradient gradientTransform="matrix(-0.0034, -0.0017, 0.0049, -0.0098, 9.8, 31.25)" gradientUnits="userSpaceOnUse" id="gradient9" spreadMethod="pad" x1="-819.2" x2="819.2">
      <stop offset="0.027450980392156862" stop-color="#ae8e79"/>
      <stop offset="1.0" stop-color="#e2d8d1"/>
    </linearGradient>
    <linearGradient gradientTransform="matrix(0.0097, 0.0014, -0.001, 0.0065, 14.8, 35.75)" gradientUnits="userSpaceOnUse" id="gradient10" spreadMethod="pad" x1="-819.2" x2="819.2">
      <stop offset="0.027450980392156862" stop-color="#ae8e79"/>
      <stop offset="1.0" stop-color="#786153"/>
    </linearGradient>
    <linearGradient gradientTransform="matrix(0.0097, 0.0014, -0.001, 0.0065, 14.8, 35.75)" gradientUnits="userSpaceOnUse" id="gradient11" spreadMethod="pad" x1="-819.2" x2="819.2">
      <stop offset="0.027450980392156862" stop-color="#8f7463"/>
      <stop offset="1.0" stop-color="#544339"/>
    </linearGradient>
    <linearGradient gradientTransform="matrix(0.0097, 0.0014, -0.001, 0.0065, 14.8, 35.75)" gradientUnits="userSpaceOnUse" id="gradient12" spreadMethod="pad" x1="-819.2" x2="819.2">
      <stop offset="0.027450980392156862" stop-color="#ad8c77"/>
      <stop offset="1.0" stop-color="#755d4f"/>
    </linearGradient>
    <linearGradient gradientTransform="matrix(0.0097, 0.0014, -0.001, 0.0065, 14.8, 35.75)" gradientUnits="userSpaceOnUse" id="gradient13" spreadMethod="pad" x1="-819.2" x2="819.2">
      <stop offset="0.027450980392156862" stop-color="#b3917b"/>
      <stop offset="1.0" stop-color="#70594b"/>
    </linearGradient>
    <radialGradient cx="0" cy="0" gradientTransform="matrix(0.0062, -0.0084, 0.0047, 0.0034, 10.7, 29.95)" gradientUnits="userSpaceOnUse" id="gradient14" r="819.2" spreadMethod="pad">
      <stop offset="0.0" stop-color="#ffffde" stop-opacity="0.52156866"/>
      <stop offset="0.4117647058823529" stop-color="#ffffcc" stop-opacity="0.0"/>
    </radialGradient>
    <linearGradient gradientTransform="matrix(0.002, 0.0014, -0.0029, 0.0042, 13.2, 34.0)" gradientUnits="userSpaceOnUse" id="gradient15" spreadMethod="pad" x1="-819.2" x2="819.2">
      <stop offset="0.0" stop-color="#000000" stop-opacity="0.5019608"/>
      <stop offset="1.0" stop-color="#000000" stop-opacity="0.0"/>
    </linearGradient>
  </defs>
</svg>
