<?xml version="1.0" encoding="UTF-8" standalone="no"?>
<svg xmlns:xlink="http://www.w3.org/1999/xlink" height="440.0px" width="440.0px" xmlns="http://www.w3.org/2000/svg">
  <g transform="matrix(10.0, 0.0, 0.0, 10.0, 0.0, 0.0)">
    <use height="44.0" transform="matrix(1.0, 0.0, 0.0, 1.0, 0.0, 0.0)" width="44.0" xlink:href="#shape0"/>
  </g>
  <defs>
    <g id="shape0" transform="matrix(1.0, 0.0, 0.0, 1.0, 0.0, 0.0)">
      <path d="M44.0 44.0 L0.0 44.0 0.0 0.0 44.0 0.0 44.0 44.0" fill="#33cc33" fill-opacity="0.0" fill-rule="evenodd" stroke="none"/>
      <path d="M27.2 26.6 L33.3 15.0 23.95 23.9" fill="none" stroke="#000000" stroke-linecap="round" stroke-linejoin="round" stroke-opacity="0.33333334" stroke-width="0.25"/>
      <path d="M24.25 22.95 L25.0 23.7 27.05 22.3 35.65 10.7 35.65 10.75 35.9 10.65 36.0 10.6 36.0 10.55 35.8 10.85 36.0 10.6 35.8 10.85 24.6 27.25 24.4 27.2 24.45 27.1 24.1 24.4 24.1 24.35 24.15 24.3 24.1 24.3 22.0 22.3 22.25 20.45 Q31.9 3.2 39.45 3.7 L39.85 3.75 40.05 3.75 39.45 4.4 39.35 4.4 Q38.0 4.4 36.5 5.0 30.5 7.35 23.3 19.95 L23.05 20.25 22.95 21.65 24.25 22.95 M24.9 23.8 L24.95 23.75 24.85 23.65 24.85 23.7 24.9 23.8" fill="#f5f5f5" fill-rule="evenodd" stroke="none"/>
      <path d="M35.9 10.65 L35.9 10.6 36.0 10.55 36.0 10.6 35.9 10.65 M40.05 3.75 Q43.0 11.8 31.05 27.85 L30.25 29.0 29.05 29.25 27.2 27.55 27.2 27.5 24.6 27.25 35.8 10.85 28.5 23.15 27.6 26.35 29.4 28.05 30.2 27.85 30.2 27.8 30.65 26.95 31.2 26.1 31.95 24.75 32.65 23.7 33.1 23.35 33.55 22.9 35.3 20.25 36.1 19.15 Q38.35 15.15 39.25 11.5 L39.25 11.35 39.3 11.2 39.4 10.75 39.25 10.3 Q39.15 9.9 39.75 8.4 L39.75 8.35 39.85 7.25 39.65 6.95 39.4 6.4 39.4 5.6 39.65 5.2 39.6 4.5 39.55 4.45 39.45 4.4 40.05 3.75 M36.0 10.6 L36.0 10.55 36.0 10.6" fill="#4d4d4d" fill-rule="evenodd" stroke="none"/>
      <path d="M28.2 17.65 L28.35 17.6 29.5 16.6 29.65 16.65 31.65 13.95 33.7 10.7 Q34.1 9.4 32.6 10.85 L30.7 12.9 30.3 13.35 31.85 11.15 31.3 11.55 Q31.1 11.65 31.15 11.25 L31.25 10.85 Q31.6 10.0 32.55 8.8 33.65 7.65 34.45 7.4 L34.65 7.4 36.5 5.0 Q38.0 4.4 39.35 4.4 39.5 4.7 39.05 5.65 L37.5 8.15 36.1 10.35 36.0 10.5 36.0 10.55 35.9 10.6 35.9 10.65 35.65 10.75 35.65 10.7 27.05 22.3 25.0 23.7 24.25 22.95 25.0 21.65 24.95 21.35 Q24.75 21.4 24.95 20.9 L24.25 21.05 24.2 21.0 Q23.85 20.95 24.1 20.3 L24.25 20.05 24.25 19.7 25.6 17.9 Q26.85 16.35 27.2 16.3 27.5 16.2 27.4 16.6 L27.2 16.9 Q25.9 18.9 25.45 20.3 25.05 21.35 25.55 21.2 L26.35 20.6 26.85 19.8 27.45 19.0 27.8 18.2 28.2 17.65" fill="#d4d4d4" fill-rule="evenodd" stroke="none"/>
      <path d="M29.8 22.05 Q30.0 21.45 30.95 19.95 L32.25 18.1 Q32.7 17.3 33.6 16.25 34.95 14.6 35.4 14.5 35.65 14.45 35.4 15.15 L33.9 17.6 32.65 19.45 31.25 21.7 Q30.25 23.4 29.85 23.5 29.65 23.55 29.75 23.2 L29.9 22.75 Q29.55 22.9 29.8 22.05 M31.55 22.3 L31.75 22.2 Q31.95 22.15 31.75 22.65 L31.2 23.6 31.15 23.75 30.8 24.15 30.4 24.5 Q30.15 24.6 30.25 24.2 L30.45 23.75 30.55 23.55 Q30.95 22.4 31.4 22.3 L31.55 22.3 M37.2 11.0 L36.75 11.4 36.6 11.2 36.6 10.85 36.9 10.4 37.4 9.95 Q37.65 9.9 37.45 10.35 L37.2 11.0" fill="#808080" fill-rule="evenodd" stroke="none"/>
      <path d="M38.4 12.85 L37.9 14.45 37.25 16.2 Q36.65 17.75 36.2 17.9 L35.95 17.7 35.8 17.4 34.7 18.2 34.55 18.0 34.65 17.55 36.05 14.45 Q37.35 12.05 38.45 11.8 38.75 11.75 38.4 12.85" fill="#999999" fill-rule="evenodd" stroke="none"/>
      <path d="M36.5 5.0 L34.65 7.4 34.45 7.4 Q33.65 7.65 32.55 8.8 31.6 10.0 31.25 10.85 L31.15 11.25 Q31.1 11.65 31.3 11.55 L31.85 11.15 30.3 13.35 30.7 12.9 32.6 10.85 Q34.1 9.4 33.7 10.7 L31.65 13.95 29.65 16.65 29.5 16.6 28.35 17.6 28.2 17.65 28.75 16.8 29.6 15.2 29.65 14.75 Q29.55 14.5 29.3 14.55 28.65 14.7 27.4 16.6 27.5 16.2 27.2 16.3 26.85 16.35 25.6 17.9 L24.25 19.7 24.25 20.05 24.1 20.3 Q23.85 20.95 24.2 21.0 L24.25 21.05 24.95 20.9 Q24.75 21.4 24.95 21.35 L25.0 21.65 24.25 22.95 22.95 21.65 23.05 20.25 23.3 19.95 Q30.5 7.35 36.5 5.0 M29.95 15.4 L31.3 14.1 32.2 12.65 Q32.4 12.05 32.05 12.15 31.5 12.25 30.85 13.2 30.2 14.05 29.95 14.75 L29.8 15.15 Q29.75 15.45 29.95 15.4" fill="#dbdbdb" fill-rule="evenodd" stroke="none"/>
      <path d="M28.2 17.65 L27.8 18.2 27.45 19.0 26.85 19.8 26.35 20.6 25.55 21.2 Q25.05 21.35 25.45 20.3 25.9 18.9 27.2 16.9 L27.4 16.6 Q28.65 14.7 29.3 14.55 29.55 14.5 29.65 14.75 L29.6 15.2 28.75 16.8 28.2 17.65" fill="#c7c7c7" fill-rule="evenodd" stroke="none"/>
      <path d="M29.95 15.4 Q29.75 15.45 29.8 15.15 L29.95 14.75 Q30.2 14.05 30.85 13.2 31.5 12.25 32.05 12.15 32.4 12.05 32.2 12.65 L31.3 14.1 29.95 15.4" fill="#bfbfbf" fill-rule="evenodd" stroke="none"/>
      <path d="M24.9 23.8 L24.85 23.7 24.85 23.65 24.95 23.75 24.9 23.8" fill="#78783b" fill-rule="evenodd" stroke="none"/>
      <path d="M24.1 24.35 L24.1 24.3 24.15 24.3 24.1 24.35" fill="#58382b" fill-rule="evenodd" stroke="none"/>
      <path d="M36.0 10.55 L36.0 10.5 36.1 10.35 37.5 8.15 39.05 5.65 Q39.5 4.7 39.35 4.4 L39.45 4.4 39.55 4.45 39.6 4.5 39.65 5.2 39.4 5.6 39.4 6.4 39.65 6.95 39.85 7.25 39.75 8.35 39.75 8.4 Q39.15 9.9 39.25 10.3 L39.4 10.75 39.3 11.2 39.25 11.35 39.25 11.5 Q38.35 15.15 36.1 19.15 L35.3 20.25 33.55 22.9 33.1 23.35 32.65 23.7 31.95 24.75 31.2 26.1 30.65 26.95 30.2 27.8 30.2 27.85 29.4 28.05 27.6 26.35 28.5 23.15 35.8 10.85 36.0 10.55 36.1 10.35 36.0 10.55 M37.2 11.0 L37.45 10.35 Q37.65 9.9 37.4 9.95 L36.9 10.4 36.6 10.85 36.6 11.2 36.75 11.4 37.2 11.0 M31.55 22.3 L31.4 22.3 Q30.95 22.4 30.55 23.55 L30.45 23.75 30.25 24.2 Q30.15 24.6 30.4 24.5 L30.8 24.15 31.15 23.75 31.2 23.6 31.75 22.65 Q31.95 22.15 31.75 22.2 L31.55 22.3 M29.8 22.05 Q29.55 22.9 29.9 22.75 L29.75 23.2 Q29.65 23.55 29.85 23.5 30.25 23.4 31.25 21.7 L32.65 19.45 33.9 17.6 35.4 15.15 Q35.65 14.45 35.4 14.5 34.95 14.6 33.6 16.25 32.7 17.3 32.25 18.1 L30.95 19.95 Q30.0 21.45 29.8 22.05 M38.4 12.85 Q38.75 11.75 38.45 11.8 37.35 12.05 36.05 14.45 L34.65 17.55 34.55 18.0 34.7 18.2 35.8 17.4 35.95 17.7 36.2 17.9 Q36.65 17.75 37.25 16.2 L37.9 14.45 38.4 12.85" fill="url(#gradient0)" fill-rule="evenodd" stroke="none"/>
      <path d="M24.1 24.3 L22.0 22.3 22.25 20.45 Q31.9 3.2 39.45 3.7 L39.85 3.75 40.05 3.75 Q43.0 11.8 31.05 27.85 L30.25 29.0 M29.05 29.25 L27.2 27.55 27.2 27.5 M24.1 24.4 L24.1 24.35 24.1 24.3" fill="none" stroke="#000000" stroke-linecap="round" stroke-linejoin="round" stroke-opacity="0.33333334" stroke-width="0.1"/>
      <path d="M36.0 10.5 L36.1 10.35 37.5 8.15 39.05 5.65 Q39.5 4.7 39.35 4.4 M36.1 10.35 L36.0 10.55 36.0 10.6 M35.8 10.85 L36.0 10.6 M35.8 10.85 L24.6 27.25" fill="none" stroke="#ffffff" stroke-linecap="round" stroke-linejoin="round" stroke-width="0.25"/>
      <path d="M37.95 12.55 Q35.4 17.8 31.1 22.3 26.85 26.8 23.25 28.0 19.75 29.15 18.9 26.3 18.25 23.3 20.65 18.15 23.2 13.05 27.5 8.45 31.75 4.05 35.3 2.8 38.9 1.75 39.6 4.65 40.4 7.6 37.95 12.55" fill="url(#gradient1)" fill-rule="evenodd" stroke="none"/>
      <path d="M34.15 13.7 Q30.2 20.15 25.05 25.9 24.1 26.55 23.0 25.6 L20.35 23.0 Q19.15 22.45 17.85 23.3 L15.15 26.0 13.95 25.05 17.5 21.6 Q19.2 20.4 20.45 21.35 L22.8 23.15 Q23.95 23.7 24.9 23.15 L29.35 17.9 Q34.3 12.45 34.15 13.7" fill="#666666" fill-rule="evenodd" stroke="none"/>
      <path d="M34.15 13.7 Q33.95 14.75 30.15 20.5 26.2 26.85 27.15 27.0 L27.3 27.75 26.65 28.05 Q24.65 29.15 23.45 28.85 22.55 28.5 22.3 27.7 L22.3 26.95 22.25 26.75 Q21.7 25.6 20.55 24.4 L20.3 24.2 19.95 24.05 18.85 24.15 16.2 27.1 15.15 26.0 17.85 23.3 Q19.15 22.45 20.35 23.0 L23.0 25.6 Q24.1 26.55 25.05 25.9 30.2 20.15 34.15 13.7" fill="url(#gradient2)" fill-rule="evenodd" stroke="none"/>
      <path d="M15.15 26.0 L16.2 27.1 18.85 24.15 19.95 24.05 20.3 24.2 20.55 24.4 Q21.7 25.6 22.25 26.75 L22.3 26.95 22.3 27.7 Q22.55 28.5 23.45 28.85 24.65 29.15 26.65 28.05 L27.3 27.75 27.15 27.0 Q26.2 26.85 30.15 20.5 33.95 14.75 34.15 13.7 M15.15 26.0 L13.95 25.05 17.5 21.6 Q19.2 20.4 20.45 21.35 L22.8 23.15 Q23.95 23.7 24.9 23.15 L29.35 17.9 Q34.3 12.45 34.15 13.7" fill="none" stroke="#000000" stroke-linecap="round" stroke-linejoin="round" stroke-opacity="0.49019608" stroke-width="0.05"/>
      <path d="M18.3 27.15 L18.25 27.1 18.3 27.15 18.3 27.25 18.25 27.4 18.0 27.55 17.35 28.5 17.05 28.65 16.95 28.9 16.75 29.0 16.7 29.2 16.25 29.75 15.5 30.75 14.5 30.75 14.9 31.75 13.45 33.25 13.15 33.6 12.95 33.95 11.9 33.8 12.3 34.6 12.25 34.75 12.15 35.0 11.85 35.2 10.85 36.6 9.7 36.5 10.2 37.45 7.85 40.25 Q5.85 41.35 4.35 39.8 3.2 38.75 3.9 37.0 L4.6 36.1 5.0 37.05 5.0 37.1 5.7 37.9 Q6.25 38.35 7.0 38.4 L8.6 36.35 7.7 35.6 6.85 34.8 6.8 34.65 6.95 34.75 6.8 34.65 6.75 34.55 6.95 34.75 6.75 34.35 6.7 34.1 6.75 33.95 7.2 34.35 8.2 35.0 9.25 35.45 10.85 33.4 9.95 32.85 9.1 32.05 8.75 31.5 8.9 31.55 9.1 31.65 8.9 31.55 8.95 31.55 9.1 31.65 8.95 31.3 8.95 30.65 9.55 31.5 10.5 32.05 11.55 32.4 13.3 30.15 12.5 29.75 11.7 28.9 11.45 28.6 11.6 28.6 11.45 28.35 11.6 28.6 11.45 28.6 11.45 28.55 11.3 28.5 11.35 28.45 11.45 28.35 11.3 27.95 11.3 27.9 11.3 27.85 12.1 28.45 13.0 29.05 14.35 29.6 16.7 26.4 17.65 23.3 18.05 24.15 18.25 27.05 18.2 27.1 18.05 27.0 Q18.1 27.15 18.25 27.1 L18.3 27.05 18.3 27.15 M18.25 27.05 L18.05 27.0 18.25 27.05 M14.5 24.0 L14.5 23.95 15.5 23.7 Q15.15 23.8 14.5 24.2 L14.95 23.9 14.5 24.0 M15.75 23.6 L17.5 23.15 17.45 23.35 16.1 23.55 15.9 23.85 15.75 23.6" fill="#58382b" fill-rule="evenodd" stroke="none"/>
      <path d="M17.65 23.3 L16.7 26.4 14.35 29.6 13.0 29.05 17.7 23.2 17.65 23.3 M12.5 29.75 L13.3 30.15 11.55 32.4 10.5 32.05 12.5 29.75 M9.95 32.85 L10.85 33.4 9.25 35.45 8.2 35.0 9.95 32.85 M7.7 35.6 L8.6 36.35 7.0 38.4 Q6.25 38.35 5.7 37.9 L7.7 35.6" fill="#87543f" fill-rule="evenodd" stroke="none"/>
      <path d="M13.0 29.05 L12.1 28.45 12.1 28.35 Q14.4 26.0 15.15 24.65 15.2 24.55 15.3 24.6 L15.55 24.35 16.2 23.85 15.7 24.15 16.3 23.65 15.9 23.85 16.1 23.55 17.45 23.35 17.5 23.3 17.65 23.25 17.7 23.2 13.0 29.05 M11.7 28.9 L12.5 29.75 10.5 32.05 9.55 31.5 11.7 28.9 M9.1 32.05 L9.95 32.85 8.2 35.0 7.2 34.35 9.1 32.05 M6.85 34.8 L7.7 35.6 5.7 37.9 5.0 37.1 5.0 37.05 6.85 34.8" fill="#a1664c" fill-rule="evenodd" stroke="none"/>
      <path d="M12.1 28.45 L11.3 27.85 11.25 27.7 11.25 27.65 11.5 27.35 12.95 25.45 Q13.1 25.15 13.4 24.95 L13.4 24.9 14.05 24.15 14.5 24.0 14.95 23.9 14.5 24.2 Q15.15 23.8 15.5 23.7 L15.75 23.6 15.9 23.85 16.3 23.65 15.7 24.15 16.2 23.85 15.55 24.35 15.3 24.6 Q15.2 24.55 15.15 24.65 14.4 26.0 12.1 28.35 L12.1 28.45 M11.45 28.6 L11.7 28.9 9.55 31.5 8.95 30.65 8.95 31.3 8.7 30.85 9.35 30.0 10.55 28.6 10.75 28.25 11.3 28.5 11.45 28.55 11.45 28.6 11.3 28.5 11.45 28.6 M8.9 31.55 L8.75 31.5 9.1 32.05 7.2 34.35 6.75 33.95 6.65 33.4 8.15 31.55 8.35 31.2 8.85 31.45 8.95 31.55 8.9 31.55 8.85 31.45 8.9 31.55 M6.75 34.35 L6.95 34.75 6.75 34.55 6.8 34.65 6.85 34.8 5.0 37.05 4.6 36.1 6.1 34.15 6.7 34.5 6.75 34.35 M6.75 34.55 L6.7 34.5 6.75 34.55" fill="#c08172" fill-rule="evenodd" stroke="none"/>
      <path d="M17.5 23.15 L17.6 23.1 17.65 23.25 17.5 23.3 17.45 23.35 17.5 23.15" fill="#bfbfbf" fill-rule="evenodd" stroke="none"/>
      <path d="M18.2 27.1 L18.25 27.1 Q18.1 27.15 18.05 27.0 L18.2 27.1" fill="#abcdd1" fill-rule="evenodd" stroke="none"/>
      <path d="M18.25 27.1 L18.3 27.15 M18.2 27.1 L18.25 27.1 M18.05 27.0 L18.25 27.05 M11.3 27.85 L11.3 27.9 11.3 27.95 11.45 28.35 11.6 28.6 11.45 28.6 M8.95 31.3 L9.1 31.65 8.9 31.55 8.85 31.45 8.35 31.2 M6.75 33.95 L6.7 34.1 6.75 34.35 6.95 34.75 6.8 34.65 M4.6 36.1 L3.9 37.0 Q3.2 38.75 4.35 39.8 5.85 41.35 7.85 40.25 L10.2 37.45 9.7 36.5 10.85 36.6 11.85 35.2 12.15 35.0 12.25 34.75 M12.3 34.6 L11.9 33.8 12.95 33.95 13.15 33.6 13.45 33.25 14.9 31.75 14.5 30.75 15.5 30.75 16.25 29.75 16.7 29.2 16.75 29.0 16.95 28.9 17.05 28.65 17.35 28.5 18.0 27.55 18.25 27.4 18.3 27.25 18.3 27.15 M11.25 27.65 L11.5 27.35 12.95 25.45 Q13.1 25.15 13.4 24.95 L13.4 24.9 14.05 24.15 M11.3 28.5 L11.45 28.6 M11.3 27.85 L11.25 27.7 M8.95 31.3 L8.7 30.85 9.35 30.0 10.55 28.6 10.75 28.25 11.3 28.5 M6.65 33.4 L6.75 33.95 M8.95 31.55 L9.1 31.65 M8.85 31.45 L8.95 31.55 M4.6 36.1 L6.1 34.15 6.7 34.5 6.75 34.55 6.95 34.75" fill="none" stroke="#000000" stroke-linecap="round" stroke-linejoin="round" stroke-opacity="0.33333334" stroke-width="0.25"/>
      <path d="M8.35 31.2 L8.15 31.55 6.65 33.4" fill="none" stroke="#000000" stroke-linecap="round" stroke-linejoin="round" stroke-opacity="0.33333334" stroke-width="0.1"/>
      <path d="M11.25 27.7 L11.25 27.65" fill="none" stroke="#69513b" stroke-linecap="round" stroke-linejoin="round" stroke-width="0.1"/>
      <path d="M18.25 27.1 L18.25 27.05" fill="none" stroke="#69513b" stroke-linecap="round" stroke-linejoin="round" stroke-width="0.05"/>
    </g>
    <linearGradient gradientTransform="matrix(0.0019, 0.0019, 0.0019, -0.0028, 39.05, 9.5)" gradientUnits="userSpaceOnUse" id="gradient0" spreadMethod="pad" x1="-819.2" x2="819.2">
      <stop offset="0.0" stop-color="#545454"/>
      <stop offset="1.0" stop-color="#c8c7c6"/>
    </linearGradient>
    <radialGradient cx="0" cy="0" gradientTransform="matrix(0.0163, -0.0171, 0.0029, 0.0109, 29.35, 15.45)" gradientUnits="userSpaceOnUse" id="gradient1" r="819.2" spreadMethod="pad">
      <stop offset="0.0" stop-color="#ffffde" stop-opacity="0.52156866"/>
      <stop offset="0.4117647058823529" stop-color="#ffffcc" stop-opacity="0.0"/>
    </radialGradient>
    <linearGradient gradientTransform="matrix(0.0157, -0.0118, 0.0053, 0.007, 32.95, 17.7)" gradientUnits="userSpaceOnUse" id="gradient2" spreadMethod="pad" x1="-819.2" x2="819.2">
      <stop offset="0.0" stop-color="#343434"/>
      <stop offset="1.0" stop-color="#757d82"/>
    </linearGradient>
  </defs>
</svg>
