<?xml version="1.0" encoding="UTF-8" standalone="no"?>
<svg xmlns:xlink="http://www.w3.org/1999/xlink" height="440.0px" width="440.0px" xmlns="http://www.w3.org/2000/svg">
  <g transform="matrix(10.0, 0.0, 0.0, 10.0, 0.0, 0.0)">
    <use height="44.0" transform="matrix(1.0, 0.0, 0.0, 1.0, 0.0, 0.0)" width="44.0" xlink:href="#shape0"/>
    <use height="60.8" transform="matrix(0.1495, -0.1011, 0.1681, 0.1042, 24.1, 7.1)" width="60.8" xlink:href="#sprite0"/>
    <use height="13.1" transform="matrix(0.1678, -0.046, 0.0556, 0.203, 32.35, 4.6)" width="13.3" xlink:href="#sprite1"/>
  </g>
  <defs>
    <g id="shape0" transform="matrix(1.0, 0.0, 0.0, 1.0, 0.0, 0.0)">
      <path d="M44.0 44.0 L0.0 44.0 0.0 0.0 44.0 0.0 44.0 44.0" fill="#43adca" fill-opacity="0.0" fill-rule="evenodd" stroke="none"/>
      <path d="M39.3 3.25 L39.85 3.6 39.95 3.65 40.9 4.6 41.75 6.15 41.8 6.25 41.8 8.45 41.55 9.15 41.4 9.85 40.75 11.5 39.9 13.05 38.9 14.65 38.1 15.7 Q36.55 17.7 35.2 17.4 34.15 17.25 33.65 16.6 33.35 16.1 34.6 16.45 35.9 16.65 36.85 14.85 L36.9 14.65 Q37.9 13.6 38.25 11.4 38.9 8.25 35.8 6.35 34.8 5.65 33.55 5.55 32.25 4.2 34.8 2.4 L35.35 2.45 35.1 4.4 36.6 2.5 37.55 2.7 37.6 3.15 37.8 2.8 38.6 3.0 39.25 3.25 39.3 3.25" fill="url(#gradient0)" fill-rule="evenodd" stroke="none"/>
      <path d="M23.15 7.85 Q25.5 5.6 26.95 4.6 28.1 3.8 29.65 3.15 L32.5 2.35 35.0 2.15 35.45 2.15 35.35 2.45 34.8 2.4 Q32.25 4.2 33.55 5.55 L29.95 5.95 Q33.0 3.85 32.1 2.75 L31.9 2.8 29.95 3.4 27.3 4.85 Q25.9 5.8 23.55 8.05 L23.4 8.2 23.15 7.85 M36.6 2.5 L36.7 2.4 37.6 2.5 37.55 2.7 36.6 2.5 M37.8 2.8 L38.0 2.65 38.2 2.75 38.6 2.9 38.6 3.0 37.8 2.8" fill="#ecefd6" fill-rule="evenodd" stroke="none"/>
      <path d="M38.6 2.9 L39.25 3.2 39.3 3.25 39.25 3.25 38.6 3.0 38.6 2.9" fill="#fef9e2" fill-rule="evenodd" stroke="none"/>
      <path d="M24.15 10.05 L23.65 9.5 22.7 8.3 23.15 7.85 23.4 8.2 23.55 8.05 Q25.9 5.8 27.3 4.85 L29.95 3.4 31.9 2.8 32.1 2.75 Q33.0 3.85 29.95 5.95 L27.25 7.05 Q25.55 8.0 24.9 8.6 24.25 9.25 24.15 10.05" fill="url(#gradient1)" fill-rule="evenodd" stroke="none"/>
      <path d="M36.9 14.65 Q37.45 13.7 37.1 12.95 36.55 12.2 34.6 12.25 L34.25 12.3 34.2 12.3 Q32.65 12.85 30.75 14.45 L29.9 15.1 28.8 16.05 26.65 18.0 24.5 18.35 24.45 18.3 24.25 18.2 24.2 18.15 24.15 18.15 23.95 18.0 24.35 17.1 24.65 16.6 25.0 17.05 25.7 17.2 26.35 16.85 26.55 16.3 26.15 15.75 25.45 15.6 24.95 15.75 25.2 14.9 25.25 14.7 25.3 14.65 25.3 14.6 25.3 14.55 25.7 13.95 27.25 12.0 28.15 10.5 28.65 9.4 Q26.25 12.1 24.75 11.25 L24.6 10.9 24.15 10.05 Q24.25 9.25 24.9 8.6 25.55 8.0 27.25 7.05 L29.95 5.95 33.55 5.55 Q34.8 5.65 35.8 6.35 38.9 8.25 38.25 11.4 37.9 13.6 36.9 14.65 M31.75 12.05 L31.2 12.45 30.75 12.95 Q30.45 13.05 30.0 13.7 L29.95 13.8 29.85 13.9 28.95 14.6 27.75 15.35 27.3 15.45 27.1 15.5 27.05 15.5 26.95 15.55 26.75 15.65 26.75 15.75 26.8 15.8 27.05 15.95 27.3 16.3 27.1 16.75 28.35 15.75 29.9 14.5 32.85 12.0 32.85 11.85 32.7 11.9 31.75 12.05 M29.65 9.2 L29.35 9.95 28.8 10.95 28.25 12.0 28.0 12.35 27.95 12.4 26.75 14.05 Q26.5 14.15 26.3 14.35 L25.85 14.75 25.3 15.3 26.3 14.8 Q26.45 14.65 26.75 14.6 L26.8 14.5 27.7 14.05 28.4 13.6 29.15 12.95 29.4 12.35 29.5 12.0 29.5 11.95 29.35 11.5 29.25 10.9 29.45 10.3 Q30.05 9.25 30.05 8.8 L29.65 9.2 M26.75 15.65 L26.8 15.45 26.75 15.3 26.4 15.2 26.25 15.3 26.25 15.5 26.3 15.65 26.5 15.7 26.75 15.65" fill="url(#gradient2)" fill-rule="evenodd" stroke="none"/>
      <path d="M25.3 13.5 L25.1 12.0 24.75 11.25 Q26.25 12.1 28.65 9.4 L28.15 10.5 27.25 12.0 25.7 13.95 25.3 14.55 25.3 14.6 25.3 14.65 25.3 14.55 25.55 13.45 25.3 13.5 M31.75 12.05 L32.7 11.9 32.85 11.85 32.85 12.0 29.9 14.5 28.35 15.75 27.1 16.75 27.3 16.3 27.05 15.95 26.8 15.8 26.75 15.75 26.75 15.65 26.95 15.55 27.05 15.5 27.1 15.5 27.3 15.45 27.75 15.35 28.95 14.6 29.85 13.9 29.95 13.8 30.0 13.7 Q30.45 13.05 30.75 12.95 L31.2 12.45 31.75 12.05" fill="#b06a15" fill-rule="evenodd" stroke="none"/>
      <path d="M29.65 9.2 L30.05 8.8 Q30.05 9.25 29.45 10.3 L29.25 10.9 29.35 11.5 29.5 11.95 29.5 12.0 29.4 12.35 29.15 12.95 28.4 13.6 27.7 14.05 26.8 14.5 26.75 14.6 Q26.45 14.65 26.3 14.8 L25.3 15.3 25.85 14.75 26.3 14.35 Q26.5 14.15 26.75 14.05 L27.95 12.4 28.0 12.35 28.25 12.0 28.8 10.95 29.35 9.95 29.65 9.2" fill="#ffe25b" fill-rule="evenodd" stroke="none"/>
      <path d="M26.75 15.65 L26.5 15.7 26.3 15.65 26.25 15.5 26.25 15.3 26.4 15.2 26.75 15.3 26.8 15.45 26.75 15.65" fill="#ffcb31" fill-rule="evenodd" stroke="none"/>
      <path d="M24.95 15.75 L25.45 15.6 26.15 15.75 26.55 16.3 26.35 16.85 25.7 17.2 25.0 17.05 24.65 16.6 24.85 16.0 24.95 15.75" fill="#9c5100" fill-rule="evenodd" stroke="none"/>
      <path d="M26.65 18.0 L27.95 18.1 27.7 18.55 26.0 18.8 25.35 18.9 24.7 19.0 24.45 19.25 24.2 19.45 24.15 19.65 24.1 19.6 23.45 19.7 23.3 19.6 23.6 19.25 23.65 19.2 23.75 19.15 23.75 19.1 23.7 19.1 23.5 19.15 23.55 19.05 23.7 18.6 24.4 18.35 24.45 18.3 24.5 18.35 26.65 18.0 M24.5 18.35 L24.4 18.35 24.5 18.35 M24.7 19.0 L23.75 19.1 24.7 19.0" fill="#6b593a" fill-rule="evenodd" stroke="none"/>
      <path d="M23.3 19.6 L23.2 19.55 23.6 19.25 23.65 19.2 23.6 19.25 23.3 19.6 M23.75 19.15 L23.7 19.1 23.75 19.1 23.75 19.15 M23.55 19.05 L23.25 18.85 23.05 18.65 22.95 18.55 22.55 18.35 22.85 17.9 23.15 17.4 23.2 17.4 23.5 16.65 23.7 16.25 24.7 13.5 25.3 13.5 25.55 13.45 25.0 14.95 24.7 15.65 24.2 16.85 23.75 17.85 23.9 17.95 23.9 18.05 23.95 18.0 24.15 18.15 24.2 18.15 24.25 18.2 24.45 18.3 24.4 18.35 23.7 18.6 23.55 19.05 M23.2 17.4 L23.05 17.7 22.85 17.9 23.05 17.7 23.2 17.4 M23.05 18.65 L23.25 18.25 23.75 17.85 23.25 18.25 23.05 18.65 M4.35 40.2 L4.2 40.2 4.3 39.95 4.45 39.95 4.35 40.2" fill="#9b8255" fill-rule="evenodd" stroke="none"/>
      <path d="M24.65 16.6 L24.35 17.1 23.95 18.0 23.9 18.05 23.9 17.95 23.75 17.85 24.2 16.85 24.7 15.65 25.0 14.95 25.55 13.45 25.3 14.55 25.3 14.65 25.25 14.7 25.2 14.9 24.95 15.75 24.85 16.0 24.65 16.6 M15.85 25.4 L16.25 25.35 15.5 25.9 16.05 26.4 16.25 26.55 16.5 26.7 16.55 26.75 16.6 26.75 16.85 26.9 17.15 27.15 17.05 27.25 15.75 28.6 14.35 30.3 14.55 30.5 14.2 31.1 11.9 33.4 8.85 36.8 8.1 37.9 6.85 39.2 Q6.25 39.85 6.0 40.45 L6.7 41.15 7.2 41.65 6.0 41.5 5.1 40.5 4.75 40.35 4.55 40.3 4.35 40.2 4.45 39.95 8.7 35.75 8.7 35.7 15.7 27.65 15.65 27.6 15.65 27.05 15.3 27.15 13.95 28.25 15.2 26.8 15.5 26.5 Q15.65 26.4 15.2 26.05 L15.3 26.0 15.75 25.5 15.85 25.4 M4.2 40.2 L3.55 39.8 4.2 39.85 4.3 39.95 4.2 40.2 M10.25 31.5 L10.45 31.5 10.75 31.65 10.75 31.8 10.2 32.35 Q10.35 32.0 10.15 31.85 L10.25 31.7 10.25 31.5 M16.85 26.9 L16.65 26.95 15.7 27.65 16.65 26.95 16.85 26.9 M14.2 31.1 Q14.15 30.6 14.35 30.3 14.15 30.6 14.2 31.1 M8.1 37.9 L4.75 40.35 8.1 37.9" fill="#5c4d32" fill-rule="evenodd" stroke="none"/>
      <path d="M26.0 18.8 L25.8 19.15 25.35 18.9 26.0 18.8 M23.15 17.4 L23.1 17.35 22.85 17.0 23.5 16.65 23.2 17.4 23.15 17.4 M23.75 17.85 L23.9 17.95 23.75 17.85" fill="#e0a52f" fill-rule="evenodd" stroke="none"/>
      <path d="M17.05 23.0 L17.0 23.0 17.0 22.95 17.05 23.0" fill="#593715" fill-rule="evenodd" stroke="none"/>
      <path d="M3.55 39.8 L2.3 39.5 1.9 38.9 3.3 39.2 1.95 38.5 1.75 38.15 3.35 38.75 3.75 38.35 8.45 33.5 8.6 32.85 Q9.15 31.9 8.95 30.6 L9.95 30.9 10.3 31.35 10.25 31.5 10.25 31.7 10.15 31.85 Q10.35 32.0 10.2 32.35 L10.75 31.8 10.75 31.65 10.45 31.5 13.9 27.5 14.8 26.4 15.2 26.05 Q15.65 26.4 15.5 26.5 L15.2 26.8 13.95 28.25 15.3 27.15 15.65 27.05 15.65 27.6 15.7 27.65 8.7 35.7 8.7 35.75 4.45 39.95 4.3 39.95 4.2 39.85 3.55 39.8 M9.55 33.55 L10.1 32.45 10.2 32.45 10.2 32.35 10.2 32.45 10.1 32.45 9.55 33.55" fill="url(#gradient3)" fill-rule="evenodd" stroke="none"/>
      <path d="M39.3 3.25 L39.85 3.6 39.95 3.65 40.9 4.6 41.75 6.15 41.8 6.25 41.8 8.45 41.55 9.15 41.4 9.85 40.75 11.5 39.9 13.05 38.9 14.65 38.1 15.7 Q36.55 17.7 35.2 17.4 34.15 17.25 33.65 16.6 33.35 16.1 34.6 16.45 35.9 16.65 36.85 14.85 L36.9 14.65 Q37.45 13.7 37.1 12.95 36.55 12.2 34.6 12.25 L34.25 12.3 34.2 12.3 Q32.65 12.85 30.75 14.45 L29.9 15.1 28.8 16.05 26.65 18.0 27.95 18.1 27.7 18.55 26.0 18.8 25.8 19.15 25.35 18.9 24.7 19.0 24.45 19.25 24.2 19.45 24.15 19.65 M23.7 19.1 L23.5 19.15 M22.55 18.35 L22.85 17.9 23.15 17.4 23.1 17.35 22.85 17.0 23.5 16.65 23.7 16.25 24.7 13.5 25.3 13.5 25.1 12.0 24.75 11.25 24.6 10.9 24.15 10.05 23.65 9.5 22.7 8.3 23.15 7.85 Q25.5 5.6 26.95 4.6 28.1 3.8 29.65 3.15 L32.5 2.35 35.0 2.15 35.45 2.15 35.35 2.45 35.1 4.4 36.6 2.5 36.7 2.4 37.6 2.5 37.55 2.7 37.6 3.15 37.8 2.8 38.0 2.65 38.2 2.75 38.6 2.9 39.25 3.2 39.3 3.25 M23.15 17.4 L23.2 17.4 23.5 16.65 M22.85 17.9 L23.05 17.7 23.2 17.4 M23.7 19.1 L23.75 19.1 24.7 19.0 M25.35 18.9 L26.0 18.8 M25.55 13.45 L25.3 13.5 M17.15 27.15 L17.05 27.25 15.75 28.6 14.35 30.3 14.55 30.5 14.2 31.1 11.9 33.4 8.85 36.8 8.1 37.9 6.85 39.2 Q6.25 39.85 6.0 40.45 L6.7 41.15 7.2 41.65 6.0 41.5 5.1 40.5 4.75 40.35 4.55 40.3 4.35 40.2 4.2 40.2 3.55 39.8 2.3 39.5 1.9 38.9 3.3 39.2 1.95 38.5 1.75 38.15 3.35 38.75 3.75 38.35 8.45 33.5 8.6 32.85 Q9.15 31.9 8.95 30.6 L9.95 30.9 10.3 31.35 10.25 31.5 10.45 31.5 13.9 27.5 14.8 26.4 15.2 26.05 15.3 26.0 15.75 25.5 15.85 25.4 M14.35 30.3 Q14.15 30.6 14.2 31.1 M4.3 39.95 L4.2 39.85 3.55 39.8 M4.3 39.95 L4.45 39.95" fill="none" stroke="#000000" stroke-linecap="round" stroke-linejoin="round" stroke-opacity="0.3019608" stroke-width="0.05"/>
      <path d="M29.95 5.95 L33.55 5.55 M36.9 14.65 Q37.9 13.6 38.25 11.4 38.9 8.25 35.8 6.35 34.8 5.65 33.55 5.55 M29.95 5.95 L27.25 7.05 Q25.55 8.0 24.9 8.6 24.25 9.25 24.15 10.05 M25.3 14.55 L25.7 13.95 27.25 12.0 28.15 10.5 28.65 9.4 M24.95 15.75 L25.45 15.6 26.15 15.75 26.55 16.3 26.35 16.85 25.7 17.2 25.0 17.05 24.65 16.6 24.35 17.1 23.95 18.0 24.15 18.15 24.2 18.15 24.25 18.2 24.45 18.3 24.5 18.35 26.65 18.0 M25.3 14.55 L25.3 14.65 25.3 14.6 25.3 14.55 25.55 13.45 M23.9 18.05 L23.95 18.0 M25.3 14.65 L25.25 14.7 25.2 14.9 24.95 15.75 24.85 16.0 24.65 16.6 M23.9 17.95 L23.75 17.85 23.25 18.25 23.05 18.65 M24.4 18.35 L24.5 18.35 M24.4 18.35 L23.7 18.6 M15.7 27.65 L16.65 26.95 16.85 26.9 M10.25 31.5 L10.25 31.7 10.15 31.85 Q10.35 32.0 10.2 32.35 L10.2 32.45 10.1 32.45 9.55 33.55 M4.75 40.35 L8.1 37.9" fill="none" stroke="#000000" stroke-linecap="round" stroke-linejoin="round" stroke-opacity="0.15294118" stroke-width="0.05"/>
      <path d="M33.15 9.1 Q31.35 8.15 30.55 8.15 30.15 8.15 28.85 8.7 L26.9 9.2 26.6 9.15 26.6 8.8 Q26.75 8.1 27.9 7.55 L28.3 7.35 28.8 7.15 Q29.15 6.9 29.6 6.8 L30.35 6.6 32.2 6.5 Q33.8 6.5 35.0 7.15 36.2 7.8 36.2 8.65 L35.95 9.5 35.25 10.05 33.15 9.1" fill="#ffffff" fill-opacity="0.2" fill-rule="evenodd" stroke="none"/>
      <path d="M23.55 20.05 L23.45 20.05 23.45 20.1 23.2 19.95 23.45 18.85 23.55 19.0 23.85 19.2 24.3 19.5 24.35 19.55 24.25 19.6 23.8 19.9 23.55 20.05 M19.5 25.15 L19.5 25.2 19.5 25.15 M19.5 25.25 L19.75 25.2 19.65 25.4 19.6 25.4 19.55 25.3 19.5 25.25 M19.95 20.3 L19.9 20.2 20.0 20.3 19.95 20.3" fill="#c9c09a" fill-rule="evenodd" stroke="none"/>
      <path d="M21.1 18.25 L21.3 17.8 22.4 18.35 22.85 18.55 23.05 18.65 23.45 18.85 23.2 19.95 23.45 20.1 23.45 20.05 23.55 20.05 24.7 19.95 24.75 20.0 24.75 20.05 24.6 20.2 24.35 20.35 23.25 20.8 22.35 21.05 22.05 20.95 21.1 20.5 20.75 20.25 20.3 19.85 20.25 19.8 21.1 18.25 20.25 19.8 20.15 19.75 20.35 19.05 Q20.45 18.55 20.1 18.15 L21.1 18.25 M16.1 26.7 L15.9 26.55 15.15 26.05 16.0 25.5 16.05 25.4 16.3 25.65 16.1 26.7 M14.75 25.5 L13.7 24.45 15.2 24.0 16.1 24.7 14.75 25.5 M16.75 23.65 L16.7 23.65 16.85 23.35 16.95 23.3 17.2 23.05 17.45 22.8 18.8 21.75 19.65 20.85 19.95 20.3 20.9 21.45 20.55 21.7 Q19.65 22.65 19.05 23.7 L18.55 24.65 18.2 24.45 Q17.75 24.1 17.3 23.9 L16.9 23.7 16.75 23.65" fill="#fef9e2" fill-rule="evenodd" stroke="none"/>
      <path d="M19.6 25.4 L19.55 25.45 19.4 25.4 Q19.3 25.3 19.15 26.0 L18.8 26.95 18.55 27.85 17.35 27.35 16.9 27.1 16.6 26.95 16.55 26.95 16.45 26.9 16.1 26.7 16.3 25.65 16.05 25.4 16.0 25.5 14.85 25.6 14.75 25.5 16.1 24.7 15.2 24.0 16.0 23.8 16.45 23.75 16.6 23.7 16.65 23.7 16.75 23.65 16.9 23.7 17.3 23.9 Q17.75 24.1 18.2 24.45 L18.55 24.65 18.9 24.85 19.5 25.2 19.45 25.25 19.5 25.25 19.55 25.3 19.6 25.4" fill="url(#gradient4)" fill-rule="evenodd" stroke="none"/>
      <path d="M20.0 20.3 L20.4 20.6 20.45 20.65 20.7 20.8 21.4 21.2 21.6 21.3 22.25 21.65 22.45 21.75 22.75 21.9 22.9 21.95 22.2 22.4 21.15 23.2 19.5 25.15 19.5 25.2 18.9 24.85 18.55 24.65 19.05 23.7 Q19.65 22.65 20.55 21.7 L20.9 21.45 19.95 20.3 20.0 20.3" fill="url(#gradient5)" fill-rule="evenodd" stroke="none"/>
      <path d="M20.25 19.8 L20.3 19.85 20.75 20.25 21.1 20.5 22.05 20.95 22.35 21.05 23.25 20.8 24.35 20.35 24.6 20.2 24.75 20.05 25.85 21.15 24.4 21.55 23.1 21.8 22.8 21.9 22.75 21.9 22.45 21.75 22.25 21.65 21.6 21.3 21.4 21.2 20.7 20.8 20.45 20.65 20.4 20.6 20.0 20.3 19.9 20.2 19.95 20.15 20.15 19.75 20.25 19.8" fill="url(#gradient6)" fill-rule="evenodd" stroke="none"/>
      <path d="M23.45 18.85 L23.05 18.65 22.85 18.55 22.4 18.35 21.3 17.8 21.1 18.25 20.25 19.8 M24.75 20.05 L24.75 20.0 24.7 19.95 23.55 20.05 M23.45 18.85 L23.55 19.0 23.85 19.2 24.3 19.5 24.35 19.55 24.25 19.6 23.8 19.9 23.55 20.05 M20.0 20.3 L20.4 20.6 20.45 20.65 20.7 20.8 21.4 21.2 21.6 21.3 22.25 21.65 22.45 21.75 22.75 21.9 22.8 21.9 23.1 21.8 24.4 21.55 25.85 21.15 24.75 20.05 M22.75 21.9 L22.9 21.95 22.2 22.4 21.15 23.2 19.5 25.15 M19.6 25.4 L19.55 25.45 19.4 25.4 Q19.3 25.3 19.15 26.0 L18.8 26.95 18.55 27.85 17.35 27.35 16.9 27.1 16.6 26.95 16.55 26.95 16.45 26.9 16.1 26.7 15.9 26.55 15.15 26.05 16.0 25.5 14.85 25.6 14.75 25.5 13.7 24.45 15.2 24.0 16.0 23.8 16.45 23.75 16.6 23.7 16.65 23.7 16.75 23.65 16.7 23.65 16.85 23.35 16.95 23.3 17.2 23.05 17.45 22.8 18.8 21.75 19.65 20.85 19.95 20.3 M19.9 20.2 L19.95 20.15 20.15 19.75 20.35 19.05 Q20.45 18.55 20.1 18.15 L21.1 18.25 M20.0 20.3 L19.9 20.2" fill="none" stroke="#000000" stroke-linecap="round" stroke-linejoin="round" stroke-opacity="0.3019608" stroke-width="0.05"/>
      <path d="M23.55 20.05 L23.45 20.05 23.45 20.1 M19.5 25.15 L19.5 25.2 19.5 25.25 19.75 25.2 19.65 25.4 19.6 25.4 19.55 25.3 19.5 25.25 19.45 25.25 19.5 25.2 18.9 24.85 18.55 24.65 18.2 24.45 Q17.75 24.1 17.3 23.9 L16.9 23.7 16.75 23.65 M19.95 20.3 L19.9 20.2 M16.0 25.5 L16.05 25.4" fill="none" stroke="#000000" stroke-linecap="round" stroke-linejoin="round" stroke-opacity="0.3019608" stroke-width="0.05"/>
      <path d="M15.3 22.9 L16.45 23.55 16.85 24.45 15.2 23.3 15.3 22.9 M19.15 25.85 L18.4 24.65 20.55 25.9 19.6 26.1 19.15 25.85" fill="#755b22" fill-rule="evenodd" stroke="none"/>
      <path d="M16.45 23.55 L18.4 24.65 19.15 25.85 16.85 24.45 16.45 23.55" fill="#8d6a2b" fill-rule="evenodd" stroke="none"/>
      <path d="M16.4 23.1 L16.45 23.55 15.3 22.9 15.95 22.8 16.4 23.1 M18.4 24.65 L18.3 24.25 20.65 25.55 20.55 25.9 18.4 24.65" fill="#b78c35" fill-rule="evenodd" stroke="none"/>
      <path d="M16.45 23.55 L16.4 23.1 18.3 24.25 18.4 24.65 16.45 23.55" fill="#e7b543" fill-rule="evenodd" stroke="none"/>
      <path d="M16.4 23.1 L16.45 23.55 16.85 24.45 19.15 25.85 18.4 24.65 18.3 24.25 16.4 23.1 15.95 22.8 15.3 22.9 M20.55 25.9 L20.65 25.55 18.3 24.25 M16.85 24.45 L15.2 23.3 15.3 22.9 M20.55 25.9 L19.6 26.1 19.15 25.85" fill="none" stroke="#000000" stroke-linecap="round" stroke-linejoin="round" stroke-opacity="0.3019608" stroke-width="0.05"/>
      <path d="M22.4 21.1 L24.55 22.35 23.6 22.55 23.15 22.3 22.4 21.1 M20.45 20.0 L20.85 20.9 19.2 19.75 19.3 19.35 20.45 20.0" fill="#755b22" fill-rule="evenodd" stroke="none"/>
      <path d="M20.45 20.0 L22.4 21.1 23.15 22.3 20.85 20.9 20.45 20.0" fill="#b78337" fill-rule="evenodd" stroke="none"/>
      <path d="M22.3 20.7 L22.4 21.1 20.45 20.0 20.4 19.55 22.3 20.7" fill="#e7b543" fill-rule="evenodd" stroke="none"/>
      <path d="M24.55 22.35 L22.4 21.1 22.3 20.7 24.65 22.0 24.55 22.35 M20.45 20.0 L19.3 19.35 19.95 19.25 20.4 19.55 20.45 20.0" fill="#b78c35" fill-rule="evenodd" stroke="none"/>
      <path d="M24.55 22.35 L24.65 22.0 22.3 20.7 22.4 21.1 M20.45 20.0 L20.85 20.9 23.15 22.3 22.4 21.1 M23.15 22.3 L23.6 22.55 24.55 22.35 M19.3 19.35 L19.2 19.75 20.85 20.9 M20.4 19.55 L19.95 19.25 19.3 19.35 M20.45 20.0 L20.4 19.55 22.3 20.7" fill="none" stroke="#000000" stroke-linecap="round" stroke-linejoin="round" stroke-opacity="0.3019608" stroke-width="0.05"/>
      <path d="M39.3 3.25 L39.85 3.6 39.95 3.65 40.9 4.6 41.75 6.15 41.8 6.25 41.8 8.45 41.55 9.15 41.4 9.85 40.75 11.5 39.9 13.05 38.9 14.65 38.1 15.7 Q36.55 17.7 35.2 17.4 34.15 17.25 33.65 16.6 33.35 16.1 34.6 16.45 35.9 16.65 36.85 14.85 L36.9 14.65 Q37.9 13.6 38.25 11.4 38.9 8.25 35.8 6.35 34.8 5.65 33.55 5.55 32.25 4.2 34.8 2.4 L35.35 2.45 35.1 4.4 36.6 2.5 37.55 2.7 37.6 3.15 37.8 2.8 38.6 3.0 39.25 3.25 39.3 3.25" fill="url(#gradient7)" fill-rule="evenodd" stroke="none"/>
      <path d="M23.15 7.85 Q25.5 5.6 26.95 4.6 28.1 3.8 29.65 3.15 L32.5 2.35 35.0 2.15 35.45 2.15 35.35 2.45 34.8 2.4 Q32.25 4.2 33.55 5.55 L29.95 5.95 Q33.0 3.85 32.1 2.75 L31.9 2.8 29.95 3.4 27.3 4.85 Q25.9 5.8 23.55 8.05 L23.4 8.2 23.15 7.85 M36.6 2.5 L36.7 2.4 37.6 2.5 37.55 2.7 36.6 2.5 M37.8 2.8 L38.0 2.65 38.2 2.75 38.6 2.9 38.6 3.0 37.8 2.8" fill="#ecefd6" fill-rule="evenodd" stroke="none"/>
      <path d="M38.6 2.9 L39.25 3.2 39.3 3.25 39.25 3.25 38.6 3.0 38.6 2.9" fill="#fef9e2" fill-rule="evenodd" stroke="none"/>
      <path d="M24.15 10.05 L23.65 9.5 22.7 8.3 23.15 7.85 23.4 8.2 23.55 8.05 Q25.9 5.8 27.3 4.85 L29.95 3.4 31.9 2.8 32.1 2.75 Q33.0 3.85 29.95 5.95 L27.25 7.05 Q25.55 8.0 24.9 8.6 24.25 9.25 24.15 10.05" fill="url(#gradient8)" fill-rule="evenodd" stroke="none"/>
      <path d="M36.9 14.65 Q37.45 13.7 37.1 12.95 36.55 12.2 34.6 12.25 L34.25 12.3 34.2 12.3 Q32.65 12.85 30.75 14.45 L29.9 15.1 28.8 16.05 26.65 18.0 24.5 18.35 24.45 18.3 24.25 18.2 24.2 18.15 24.15 18.15 23.95 18.0 24.35 17.1 24.65 16.6 25.0 17.05 25.7 17.2 26.35 16.85 26.55 16.3 26.15 15.75 25.45 15.6 24.95 15.75 25.2 14.9 25.25 14.7 25.3 14.65 25.3 14.6 25.3 14.55 25.7 13.95 27.25 12.0 28.15 10.5 28.65 9.4 Q26.25 12.1 24.75 11.25 L24.6 10.9 24.15 10.05 Q24.25 9.25 24.9 8.6 25.55 8.0 27.25 7.05 L29.95 5.95 33.55 5.55 Q34.8 5.65 35.8 6.35 38.9 8.25 38.25 11.4 37.9 13.6 36.9 14.65 M32.85 11.85 L32.7 11.9 31.75 12.05 31.2 12.45 30.75 12.95 Q30.45 13.05 30.0 13.7 L29.95 13.8 29.85 13.9 28.95 14.6 27.75 15.35 27.3 15.45 27.1 15.5 27.05 15.5 26.95 15.55 26.75 15.65 26.75 15.75 26.8 15.8 27.05 15.95 27.3 16.3 27.1 16.75 28.35 15.75 29.9 14.5 32.85 12.0 32.85 11.85 M29.65 9.2 L29.35 9.95 28.8 10.95 28.25 12.0 28.0 12.35 27.95 12.4 26.75 14.05 Q26.5 14.15 26.3 14.35 L25.85 14.75 25.3 15.3 26.3 14.8 Q26.45 14.65 26.75 14.6 L26.8 14.5 27.7 14.05 28.4 13.6 29.15 12.95 29.4 12.35 29.5 12.0 29.5 11.95 29.35 11.5 29.25 10.9 29.45 10.3 Q30.05 9.25 30.05 8.8 L29.65 9.2 M26.75 15.65 L26.8 15.45 26.75 15.3 26.4 15.2 26.25 15.3 26.25 15.5 26.3 15.65 26.5 15.7 26.75 15.65" fill="url(#gradient9)" fill-rule="evenodd" stroke="none"/>
      <path d="M25.3 13.5 L25.1 12.0 24.75 11.25 Q26.25 12.1 28.65 9.4 L28.15 10.5 27.25 12.0 25.7 13.95 25.3 14.55 25.3 14.6 25.3 14.65 25.3 14.55 25.55 13.45 25.3 13.5 M32.85 11.85 L32.85 12.0 29.9 14.5 28.35 15.75 27.1 16.75 27.3 16.3 27.05 15.95 26.8 15.8 26.75 15.75 26.75 15.65 26.95 15.55 27.05 15.5 27.1 15.5 27.3 15.45 27.75 15.35 28.95 14.6 29.85 13.9 29.95 13.8 30.0 13.7 Q30.45 13.05 30.75 12.95 L31.2 12.45 31.75 12.05 32.7 11.9 32.85 11.85" fill="#b06a15" fill-rule="evenodd" stroke="none"/>
      <path d="M29.65 9.2 L30.05 8.8 Q30.05 9.25 29.45 10.3 L29.25 10.9 29.35 11.5 29.5 11.95 29.5 12.0 29.4 12.35 29.15 12.95 28.4 13.6 27.7 14.05 26.8 14.5 26.75 14.6 Q26.45 14.65 26.3 14.8 L25.3 15.3 25.85 14.75 26.3 14.35 Q26.5 14.15 26.75 14.05 L27.95 12.4 28.0 12.35 28.25 12.0 28.8 10.95 29.35 9.95 29.65 9.2" fill="#ffe25b" fill-rule="evenodd" stroke="none"/>
      <path d="M26.75 15.65 L26.5 15.7 26.3 15.65 26.25 15.5 26.25 15.3 26.4 15.2 26.75 15.3 26.8 15.45 26.75 15.65" fill="#ffcb31" fill-rule="evenodd" stroke="none"/>
      <path d="M24.95 15.75 L25.45 15.6 26.15 15.75 26.55 16.3 26.35 16.85 25.7 17.2 25.0 17.05 24.65 16.6 24.85 16.0 24.95 15.75" fill="#9c5100" fill-rule="evenodd" stroke="none"/>
      <path d="M26.65 18.0 L27.95 18.1 27.7 18.55 26.0 18.8 25.35 18.9 24.7 19.0 24.45 19.25 24.2 19.45 24.15 19.65 24.1 19.6 23.45 19.7 23.3 19.6 23.6 19.25 23.65 19.2 23.75 19.15 23.75 19.1 23.7 19.1 23.5 19.15 23.55 19.05 23.7 18.6 24.4 18.35 24.5 18.35 26.65 18.0 M24.45 18.3 L24.5 18.35 24.4 18.35 24.45 18.3 M24.7 19.0 L23.75 19.1 24.7 19.0" fill="#6b593a" fill-rule="evenodd" stroke="none"/>
      <path d="M23.3 19.6 L23.2 19.55 23.6 19.25 23.65 19.2 23.6 19.25 23.3 19.6 M23.75 19.15 L23.7 19.1 23.75 19.1 23.75 19.15 M23.55 19.05 L23.25 18.85 23.05 18.65 22.95 18.55 22.55 18.35 22.85 17.9 23.15 17.4 23.2 17.4 23.5 16.65 23.7 16.25 24.7 13.5 25.3 13.5 25.55 13.45 25.0 14.95 24.7 15.65 24.2 16.85 23.75 17.85 23.9 17.95 23.9 18.05 23.95 18.0 24.15 18.15 24.2 18.15 24.25 18.2 24.45 18.3 24.4 18.35 23.7 18.6 23.55 19.05 M23.2 17.4 L23.05 17.7 22.85 17.9 23.05 17.7 23.2 17.4 M23.05 18.65 L23.25 18.25 23.75 17.85 23.25 18.25 23.05 18.65 M4.35 40.2 L4.2 40.2 4.3 39.95 4.45 39.95 4.35 40.2" fill="#9b8255" fill-rule="evenodd" stroke="none"/>
      <path d="M24.65 16.6 L24.35 17.1 23.95 18.0 23.9 18.05 23.9 17.95 23.75 17.85 24.2 16.85 24.7 15.65 25.0 14.95 25.55 13.45 25.3 14.55 25.3 14.65 25.25 14.7 25.2 14.9 24.95 15.75 24.85 16.0 24.65 16.6 M15.2 26.05 L15.3 26.0 15.75 25.5 15.85 25.4 16.25 25.35 15.5 25.9 16.05 26.4 16.25 26.55 16.5 26.7 16.55 26.75 16.6 26.75 16.85 26.9 17.15 27.15 17.05 27.25 15.75 28.6 14.35 30.3 14.55 30.5 14.2 31.1 11.9 33.4 8.85 36.8 8.1 37.9 6.85 39.2 Q6.25 39.85 6.0 40.45 L6.7 41.15 7.2 41.65 6.0 41.5 5.1 40.5 4.75 40.35 4.55 40.3 4.35 40.2 4.45 39.95 8.7 35.75 8.7 35.7 15.7 27.65 15.65 27.6 15.65 27.05 15.3 27.15 13.95 28.25 15.2 26.8 15.5 26.5 Q15.65 26.4 15.2 26.05 M4.2 40.2 L3.55 39.8 4.2 39.85 4.3 39.95 4.2 40.2 M10.25 31.5 L10.45 31.5 10.75 31.65 10.75 31.8 10.2 32.35 Q10.35 32.0 10.15 31.85 L10.25 31.7 10.25 31.5 M16.85 26.9 L16.65 26.95 15.7 27.65 16.65 26.95 16.85 26.9 M14.2 31.1 Q14.15 30.6 14.35 30.3 14.15 30.6 14.2 31.1 M8.1 37.9 L4.75 40.35 8.1 37.9" fill="#5c4d32" fill-rule="evenodd" stroke="none"/>
      <path d="M26.0 18.8 L25.8 19.15 25.35 18.9 26.0 18.8 M23.15 17.4 L23.1 17.35 22.85 17.0 23.5 16.65 23.2 17.4 23.15 17.4 M23.9 17.95 L23.75 17.85 23.9 17.95" fill="#e0a52f" fill-rule="evenodd" stroke="none"/>
      <path d="M17.0 22.95 L17.05 23.0 17.0 23.0 17.0 22.95" fill="#593715" fill-rule="evenodd" stroke="none"/>
      <path d="M3.55 39.8 L2.3 39.5 1.9 38.9 3.3 39.2 1.95 38.5 1.75 38.15 3.35 38.75 3.75 38.35 8.45 33.5 8.6 32.85 Q9.15 31.9 8.95 30.6 L9.95 30.9 10.3 31.35 10.25 31.5 10.25 31.7 10.15 31.85 Q10.35 32.0 10.2 32.35 L10.75 31.8 10.75 31.65 10.45 31.5 13.9 27.5 14.8 26.4 15.2 26.05 Q15.65 26.4 15.5 26.5 L15.2 26.8 13.95 28.25 15.3 27.15 15.65 27.05 15.65 27.6 15.7 27.65 8.7 35.7 8.7 35.75 4.45 39.95 4.3 39.95 4.2 39.85 3.55 39.8 M9.55 33.55 L10.1 32.45 10.2 32.45 10.2 32.35 10.2 32.45 10.1 32.45 9.55 33.55" fill="url(#gradient10)" fill-rule="evenodd" stroke="none"/>
      <path d="M39.3 3.25 L39.85 3.6 39.95 3.65 40.9 4.6 41.75 6.15 41.8 6.25 41.8 8.45 41.55 9.15 41.4 9.85 40.75 11.5 39.9 13.05 38.9 14.65 38.1 15.7 Q36.55 17.7 35.2 17.4 34.15 17.25 33.65 16.6 33.35 16.1 34.6 16.45 35.9 16.65 36.85 14.85 L36.9 14.65 Q37.45 13.7 37.1 12.95 36.55 12.2 34.6 12.25 L34.25 12.3 34.2 12.3 Q32.65 12.85 30.75 14.45 L29.9 15.1 28.8 16.05 26.65 18.0 27.95 18.1 27.7 18.55 26.0 18.8 25.8 19.15 25.35 18.9 24.7 19.0 24.45 19.25 24.2 19.45 24.15 19.65 M23.7 19.1 L23.5 19.15 M22.55 18.35 L22.85 17.9 23.15 17.4 23.1 17.35 22.85 17.0 23.5 16.65 23.7 16.25 24.7 13.5 25.3 13.5 25.1 12.0 24.75 11.25 24.6 10.9 24.15 10.05 23.65 9.5 22.7 8.3 23.15 7.85 Q25.5 5.6 26.95 4.6 28.1 3.8 29.65 3.15 L32.5 2.35 35.0 2.15 35.45 2.15 35.35 2.45 35.1 4.4 36.6 2.5 36.7 2.4 37.6 2.5 37.55 2.7 37.6 3.15 37.8 2.8 38.0 2.65 38.2 2.75 38.6 2.9 39.25 3.2 39.3 3.25 M25.55 13.45 L25.3 13.5 M23.15 17.4 L23.2 17.4 23.5 16.65 M22.85 17.9 L23.05 17.7 23.2 17.4 M23.7 19.1 L23.75 19.1 24.7 19.0 M25.35 18.9 L26.0 18.8 M15.2 26.05 L15.3 26.0 15.75 25.5 15.85 25.4 M17.15 27.15 L17.05 27.25 15.75 28.6 14.35 30.3 14.55 30.5 14.2 31.1 11.9 33.4 8.85 36.8 8.1 37.9 6.85 39.2 Q6.25 39.85 6.0 40.45 L6.7 41.15 7.2 41.65 6.0 41.5 5.1 40.5 4.75 40.35 4.55 40.3 4.35 40.2 4.2 40.2 3.55 39.8 2.3 39.5 1.9 38.9 3.3 39.2 1.95 38.5 1.75 38.15 3.35 38.75 3.75 38.35 8.45 33.5 8.6 32.85 Q9.15 31.9 8.95 30.6 L9.95 30.9 10.3 31.35 10.25 31.5 10.45 31.5 13.9 27.5 14.8 26.4 15.2 26.05 M14.35 30.3 Q14.15 30.6 14.2 31.1 M4.3 39.95 L4.45 39.95 M4.3 39.95 L4.2 39.85 3.55 39.8" fill="none" stroke="#000000" stroke-linecap="round" stroke-linejoin="round" stroke-opacity="0.3019608" stroke-width="0.05"/>
      <path d="M29.95 5.95 L33.55 5.55 M36.9 14.65 Q37.9 13.6 38.25 11.4 38.9 8.25 35.8 6.35 34.8 5.65 33.55 5.55 M29.95 5.95 L27.25 7.05 Q25.55 8.0 24.9 8.6 24.25 9.25 24.15 10.05 M25.3 14.55 L25.7 13.95 27.25 12.0 28.15 10.5 28.65 9.4 M24.95 15.75 L25.45 15.6 26.15 15.75 26.55 16.3 26.35 16.85 25.7 17.2 25.0 17.05 24.65 16.6 24.35 17.1 23.95 18.0 24.15 18.15 24.2 18.15 24.25 18.2 24.45 18.3 24.5 18.35 26.65 18.0 M25.3 14.65 L25.25 14.7 25.2 14.9 24.95 15.75 24.85 16.0 24.65 16.6 M25.3 14.65 L25.3 14.6 25.3 14.55 25.3 14.65 M23.95 18.0 L23.9 18.05 M23.9 17.95 L23.75 17.85 23.25 18.25 23.05 18.65 M24.4 18.35 L24.5 18.35 M24.4 18.35 L23.7 18.6 M25.55 13.45 L25.3 14.55 M15.7 27.65 L16.65 26.95 16.85 26.9 M10.25 31.5 L10.25 31.7 10.15 31.85 Q10.35 32.0 10.2 32.35 L10.2 32.45 10.1 32.45 9.55 33.55 M4.75 40.35 L8.1 37.9" fill="none" stroke="#000000" stroke-linecap="round" stroke-linejoin="round" stroke-opacity="0.15294118" stroke-width="0.05"/>
      <path d="M33.15 9.1 Q31.35 8.15 30.55 8.15 30.15 8.15 28.85 8.7 L26.9 9.2 26.6 9.15 26.6 8.8 Q26.75 8.1 27.9 7.55 L28.3 7.35 28.8 7.15 Q29.15 6.9 29.6 6.8 L30.35 6.6 32.2 6.5 Q33.8 6.5 35.0 7.15 36.2 7.8 36.2 8.65 L35.95 9.5 35.25 10.05 33.15 9.1" fill="#ffffff" fill-opacity="0.2" fill-rule="evenodd" stroke="none"/>
      <path d="M17.0 22.95 L17.05 23.0 17.0 23.0 17.0 22.95" fill="#593715" fill-rule="evenodd" stroke="none"/>
      <path d="M41.75 6.15 L41.8 6.25 41.8 8.45 41.55 9.15 41.4 9.85 40.75 11.5 39.9 13.05 38.9 14.65 38.1 15.7 Q36.55 17.7 35.2 17.4 34.15 17.25 33.65 16.6 33.35 16.1 34.6 16.45 35.9 16.65 36.85 14.85 L36.9 14.65 Q37.45 13.7 37.1 12.95 36.55 12.2 34.6 12.25 L34.25 12.3 34.2 12.3 Q32.65 12.85 30.75 14.45 L29.9 15.1 28.8 16.05 26.65 18.0 27.95 18.1 27.7 18.55 26.0 18.8 25.8 19.15 25.35 18.9 24.7 19.0 24.45 19.25 24.4 19.3 24.25 19.45 24.3 19.5 24.35 19.55 24.25 19.6 23.8 19.9 23.55 20.05 24.7 19.95 24.75 20.0 24.75 20.05 25.85 21.15 24.4 21.55 24.0 21.65 24.65 22.0 24.55 22.35 23.6 22.55 23.15 22.3 22.7 22.05 Q22.5 22.15 22.2 22.4 L21.15 23.2 19.65 25.0 20.65 25.55 20.55 25.9 19.6 26.1 19.2 25.85 19.15 26.0 18.8 26.95 18.55 27.85 17.35 27.35 17.1 27.25 17.05 27.25 15.75 28.6 14.35 30.3 14.55 30.5 14.2 31.1 11.9 33.4 8.85 36.8 8.1 37.9 6.85 39.2 Q6.25 39.85 6.0 40.45 L6.7 41.15 7.2 41.65 6.0 41.5 5.1 40.5 4.75 40.35 4.55 40.3 4.35 40.2 4.2 40.2 3.55 39.8 2.3 39.5 1.9 38.9 3.3 39.2 1.95 38.5 1.75 38.15 3.35 38.75 3.75 38.35 8.45 33.5 8.6 32.85 Q9.15 31.9 8.95 30.6 L9.95 30.9 10.3 31.35 10.25 31.5 10.45 31.5 13.9 27.5 14.8 26.4 15.2 26.1 15.15 26.05 15.35 26.0 15.6 25.7 15.75 25.55 14.85 25.6 14.75 25.5 13.7 24.45 15.2 24.0 15.95 23.85 15.2 23.3 15.3 22.9 15.95 22.8 16.4 23.1 16.85 23.4 16.85 23.35 16.95 23.3 17.2 23.05 17.45 22.8 18.8 21.75 19.65 20.85 19.95 20.3 19.2 19.75 19.3 19.35 19.95 19.25 20.25 19.45 20.35 19.05 Q20.45 18.55 20.1 18.15 L21.1 18.25 21.3 17.8 22.4 18.35 22.85 18.55 23.05 18.65 22.95 18.55 22.55 18.35 22.85 17.9 23.15 17.4 23.1 17.35 22.85 17.0 23.5 16.65 23.7 16.25 24.7 13.5 25.3 13.5 25.1 12.0 24.75 11.25 24.6 10.9 24.15 10.05 23.65 9.5 22.7 8.3 23.15 7.85 Q25.5 5.6 26.95 4.6 28.1 3.8 29.65 3.15 L32.5 2.35 35.0 2.15 35.45 2.15 35.35 2.45 35.1 4.4 36.6 2.5 36.7 2.4 37.6 2.5 37.55 2.7 37.6 3.15 37.8 2.8 38.0 2.65 38.2 2.75 38.6 2.9 39.25 3.2 39.3 3.25 39.85 3.6 39.95 3.65 40.9 4.6 41.75 6.15 Z" fill="none" stroke="#000000" stroke-linecap="round" stroke-linejoin="round" stroke-opacity="0.3019608" stroke-width="0.5"/>
    </g>
    <linearGradient gradientTransform="matrix(-0.0062, -0.0011, 0.0016, -0.009, 32.85, 9.4)" gradientUnits="userSpaceOnUse" id="gradient0" spreadMethod="pad" x1="-819.2" x2="819.2">
      <stop offset="0.0" stop-color="#ada789"/>
      <stop offset="1.0" stop-color="#635f4e"/>
    </linearGradient>
    <linearGradient gradientTransform="matrix(0.0043, -0.0021, 9.0E-4, 0.0019, 31.15, 4.75)" gradientUnits="userSpaceOnUse" id="gradient1" spreadMethod="pad" x1="-819.2" x2="819.2">
      <stop offset="0.0" stop-color="#ada789"/>
      <stop offset="1.0" stop-color="#635f4e"/>
    </linearGradient>
    <linearGradient gradientTransform="matrix(8.0E-4, -0.0062, 0.0086, 0.0011, 31.75, 6.65)" gradientUnits="userSpaceOnUse" id="gradient2" spreadMethod="pad" x1="-819.2" x2="819.2">
      <stop offset="0.0" stop-color="#e0a52f"/>
      <stop offset="1.0" stop-color="#fff970"/>
    </linearGradient>
    <linearGradient gradientTransform="matrix(0.006, -0.0065, 0.0016, 0.0014, 11.2, 30.5)" gradientUnits="userSpaceOnUse" id="gradient3" spreadMethod="pad" x1="-819.2" x2="819.2">
      <stop offset="0.0" stop-color="#9b8255"/>
      <stop offset="1.0" stop-color="#d9b677"/>
    </linearGradient>
    <linearGradient gradientTransform="matrix(-0.0022, -0.0022, 0.0016, -0.0016, 16.05, 24.25)" gradientUnits="userSpaceOnUse" id="gradient4" spreadMethod="pad" x1="-819.2" x2="819.2">
      <stop offset="0.0" stop-color="#c9c09a"/>
      <stop offset="1.0" stop-color="#8a836a"/>
    </linearGradient>
    <linearGradient gradientTransform="matrix(-9.0E-4, -9.0E-4, 0.0022, -0.0022, 19.7, 22.3)" gradientUnits="userSpaceOnUse" id="gradient5" spreadMethod="pad" x1="-819.2" x2="819.2">
      <stop offset="0.0" stop-color="#c9c09a"/>
      <stop offset="1.0" stop-color="#8a836a"/>
    </linearGradient>
    <linearGradient gradientTransform="matrix(-5.0E-4, -5.0E-4, 0.0016, -0.0016, 23.3, 21.1)" gradientUnits="userSpaceOnUse" id="gradient6" spreadMethod="pad" x1="-819.2" x2="819.2">
      <stop offset="0.0" stop-color="#c9c09a"/>
      <stop offset="1.0" stop-color="#8a836a"/>
    </linearGradient>
    <linearGradient gradientTransform="matrix(-0.0062, -0.0011, 0.0016, -0.009, 32.85, 9.4)" gradientUnits="userSpaceOnUse" id="gradient7" spreadMethod="pad" x1="-819.2" x2="819.2">
      <stop offset="0.0" stop-color="#ada789"/>
      <stop offset="1.0" stop-color="#635f4e"/>
    </linearGradient>
    <linearGradient gradientTransform="matrix(0.0043, -0.0021, 9.0E-4, 0.0019, 31.15, 4.75)" gradientUnits="userSpaceOnUse" id="gradient8" spreadMethod="pad" x1="-819.2" x2="819.2">
      <stop offset="0.0" stop-color="#ada789"/>
      <stop offset="1.0" stop-color="#635f4e"/>
    </linearGradient>
    <linearGradient gradientTransform="matrix(8.0E-4, -0.0062, 0.0086, 0.0011, 31.75, 6.65)" gradientUnits="userSpaceOnUse" id="gradient9" spreadMethod="pad" x1="-819.2" x2="819.2">
      <stop offset="0.0" stop-color="#e0a52f"/>
      <stop offset="1.0" stop-color="#fff970"/>
    </linearGradient>
    <linearGradient gradientTransform="matrix(0.006, -0.0065, 0.0016, 0.0014, 11.2, 30.5)" gradientUnits="userSpaceOnUse" id="gradient10" spreadMethod="pad" x1="-819.2" x2="819.2">
      <stop offset="0.0" stop-color="#9b8255"/>
      <stop offset="1.0" stop-color="#d9b677"/>
    </linearGradient>
    <g id="sprite0" transform="matrix(1.0, 0.0, 0.0, 1.0, 0.0, 0.0)">
      <use height="60.8" transform="matrix(1.0, 0.0, 0.0, 1.0, 0.0, 0.0)" width="60.8" xlink:href="#shape1"/>
    </g>
    <g id="shape1" transform="matrix(1.0, 0.0, 0.0, 1.0, 0.0, 0.0)">
      <path d="M60.8 30.4 Q60.8 43.0 51.9 51.9 43.0 60.8 30.4 60.8 17.8 60.8 8.9 51.9 0.0 43.0 0.0 30.4 0.0 17.8 8.9 8.9 17.8 0.0 30.4 0.0 43.0 0.0 51.9 8.9 60.8 17.8 60.8 30.4" fill="url(#gradient11)" fill-rule="evenodd" stroke="none"/>
    </g>
    <radialGradient cx="0" cy="0" gradientTransform="matrix(0.0374, 0.0, 0.0, 0.0374, 30.4, 30.4)" gradientUnits="userSpaceOnUse" id="gradient11" r="819.2" spreadMethod="pad">
      <stop offset="0.0" stop-color="#ffffff"/>
      <stop offset="1.0" stop-color="#ffffff" stop-opacity="0.0"/>
    </radialGradient>
    <g id="sprite1" transform="matrix(1.0, 0.0, 0.0, 1.0, 0.0, 0.0)">
      <use height="5.65" transform="matrix(1.9197, 0.3823, -0.3823, 1.9197, 2.1533, 0.0161)" width="5.8" xlink:href="#shape2"/>
    </g>
    <g id="shape2" transform="matrix(1.0, 0.0, 0.0, 1.0, 2.9, 2.8)">
      <path d="M0.55 0.9 Q0.25 1.25 -0.2 1.25 -0.65 1.25 -1.0 0.9 L-1.3 0.15 -1.0 -0.65 -0.2 -0.95 Q0.25 -0.95 0.55 -0.65 L0.9 0.15 0.55 0.9" fill="#fffffd" fill-rule="evenodd" stroke="none"/>
      <path d="M2.9 -0.2 L1.05 2.65 -1.6 2.85 -2.9 0.15 -1.7 -2.45 1.25 -2.8 2.9 -0.2 M0.55 0.9 L0.9 0.15 0.55 -0.65 Q0.25 -0.95 -0.2 -0.95 L-1.0 -0.65 -1.3 0.15 -1.0 0.9 Q-0.65 1.25 -0.2 1.25 0.25 1.25 0.55 0.9" fill="#ffffea" fill-opacity="0.43137255" fill-rule="evenodd" stroke="none"/>
    </g>
  </defs>
</svg>
