<?xml version="1.0" encoding="UTF-8" standalone="no"?>
<svg xmlns:xlink="http://www.w3.org/1999/xlink" height="520.0px" width="520.0px" xmlns="http://www.w3.org/2000/svg">
  <g transform="matrix(10.0, 0.0, 0.0, 10.0, 0.0, 0.0)">
    <use height="52.0" transform="matrix(1.0, 0.0, 0.0, 1.0, 0.0, 0.0)" width="52.0" xlink:href="#shape0"/>
    <use height="52.0" transform="matrix(1.0, 0.0, 0.0, 1.0, -0.25, -0.05)" width="52.0" xlink:href="#sprite0"/>
  </g>
  <defs>
    <g id="shape0" transform="matrix(1.0, 0.0, 0.0, 1.0, 0.0, 0.0)">
      <path d="M52.0 0.0 L52.0 52.0 0.0 52.0 0.0 0.0 52.0 0.0" fill="#33cc33" fill-opacity="0.0" fill-rule="evenodd" stroke="none"/>
    </g>
    <g id="sprite0" transform="matrix(1.0, 0.0, 0.0, 1.0, 0.0, 0.0)">
      <use height="52.0" transform="matrix(1.0, 0.0, 0.0, 1.0, 0.0, 0.0)" width="52.0" xlink:href="#sprite1"/>
      <use height="50.7" transform="matrix(1.0, 0.0, 0.0, 1.0, 5.7, 0.6)" width="41.6" xlink:href="#shape2"/>
    </g>
    <g id="sprite1" transform="matrix(1.0, 0.0, 0.0, 1.0, 0.0, 0.0)">
      <use height="52.0" transform="matrix(1.0, 0.0, 0.0, 1.0, 0.0, 0.0)" width="52.0" xlink:href="#shape1"/>
    </g>
    <g id="shape1" transform="matrix(1.0, 0.0, 0.0, 1.0, 0.0, 0.0)">
      <path d="M0.0 0.0 L52.0 0.0 52.0 52.0 0.0 52.0 0.0 0.0" fill="#ffba2e" fill-opacity="0.0" fill-rule="evenodd" stroke="none"/>
    </g>
    <g id="shape2" transform="matrix(1.0, 0.0, 0.0, 1.0, -5.7, -0.6)">
      <path d="M16.6 3.95 Q17.0 4.0 17.2 4.25 17.55 4.65 16.8 7.7 L15.95 8.65 14.35 9.0 12.75 9.15 12.75 9.05 13.35 5.2 13.4 5.05 13.7 4.75 16.6 3.95 M7.95 18.6 L7.9 18.55 9.95 16.1 13.85 15.2 13.3 16.1 12.6 16.95 Q11.9 17.8 10.6 18.2 L7.95 18.7 7.9 18.65 7.95 18.6 7.95 18.7 7.95 18.6 M16.6 19.1 L16.85 12.2 21.1 11.15 20.2 18.15 16.6 19.1" fill="#ad9f8d" fill-rule="evenodd" stroke="none"/>
      <path d="M20.5 10.7 L20.6 10.25 Q21.2 7.0 22.1 6.4 22.55 6.3 22.5 6.95 L20.95 16.3 21.1 11.15 20.5 10.7 M20.65 18.15 L18.75 28.2 Q18.35 29.25 18.2 29.0 L17.9 28.45 Q17.85 28.15 18.35 24.9 L19.2 19.2 20.65 18.15 M18.85 19.5 Q17.8 25.45 17.15 26.6 16.85 27.2 16.4 27.2 L16.0 27.0 15.85 26.65 14.6 24.1 13.55 21.8 12.25 18.2 12.6 16.95 13.3 16.1 14.4 15.45 16.3 19.3 17.05 20.8 18.85 19.5 M21.15 28.4 Q20.75 27.95 22.35 17.3 23.85 7.45 24.4 7.35 L24.5 7.4 24.7 7.5 26.8 8.65 26.95 8.7 27.15 9.15 26.4 23.95 26.35 24.05 26.25 24.5 21.75 27.95 21.15 28.4 M20.85 5.4 L20.15 10.5 19.65 10.25 Q17.05 8.75 17.1 7.4 L17.65 3.95 20.85 5.4" fill="#8f7e67" fill-rule="evenodd" stroke="none"/>
      <path d="M20.15 10.5 L20.5 10.7 21.1 11.15 16.85 12.2 13.2 10.05 13.25 9.95 Q14.05 9.3 16.45 8.9 L17.0 9.1 19.65 10.25 20.15 10.5 M16.3 19.3 L16.6 19.1 20.2 18.15 17.05 20.8 16.3 19.3 M7.9 19.65 L8.15 19.15 Q8.65 18.7 11.05 18.5 L11.6 18.65 13.55 21.8 14.6 24.1 17.0 30.55 16.7 30.8 15.45 31.35 14.45 31.6 13.55 31.5 13.05 30.95 8.2 20.75 7.9 20.15 7.9 20.0 7.9 19.7 7.9 19.65" fill="#5e5b4b" fill-rule="evenodd" stroke="none"/>
      <path d="M20.95 16.3 L20.85 17.95 20.65 18.15 19.2 19.2 18.85 19.5 17.05 20.8 20.2 18.15 21.1 11.15 20.95 16.3 M16.0 27.0 L17.85 30.95 13.8 32.0 Q13.25 31.55 13.05 30.95 L13.55 31.5 14.45 31.6 15.45 31.35 16.7 30.8 17.0 30.55 14.6 24.1 15.85 26.65 16.0 27.0 M12.75 9.15 L14.35 9.0 15.95 8.65 16.8 7.7 Q17.55 4.65 17.2 4.25 17.0 4.0 16.6 3.95 L17.65 3.95 17.1 7.4 Q17.05 8.75 19.65 10.25 L17.0 9.1 16.45 8.9 Q14.05 9.3 13.25 9.95 L13.2 10.05 12.75 9.15 M13.85 15.2 L14.4 15.45 13.3 16.1 13.85 15.2 M7.95 18.7 L10.6 18.2 Q11.9 17.8 12.6 16.95 L12.25 18.2 13.55 21.8 11.6 18.65 11.05 18.5 Q8.65 18.7 8.15 19.15 L7.9 19.65 7.95 18.7" fill="#cac1b8" fill-rule="evenodd" stroke="none"/>
      <path d="M20.95 16.3 L22.5 6.95 Q22.55 6.3 22.1 6.4 21.2 7.0 20.6 10.25 L20.5 10.7 20.15 10.5 20.85 5.4 24.4 7.35 Q23.85 7.45 22.35 17.3 20.75 27.95 21.15 28.4 L17.85 30.95 16.0 27.0 16.4 27.2 Q16.85 27.2 17.15 26.6 17.8 25.45 18.85 19.5 L19.2 19.2 18.35 24.9 Q17.85 28.15 17.9 28.45 L18.2 29.0 Q18.35 29.25 18.75 28.2 L20.65 18.15 20.85 17.95 20.95 16.3" fill="#b09b7e" fill-rule="evenodd" stroke="none"/>
      <path d="M17.85 30.95 L21.15 28.4 M24.4 7.35 L20.85 5.4 M24.4 7.35 L24.5 7.4 24.7 7.5 26.8 8.65 26.95 8.7 27.15 9.15 26.4 23.95 26.35 24.05 26.25 24.5 21.75 27.95 21.15 28.4 M16.6 3.95 L13.7 4.75 13.4 5.05 13.35 5.2 12.75 9.05 12.75 9.15 13.2 10.05 M17.65 3.95 L16.6 3.95 M16.85 12.2 L13.2 10.05 M7.95 18.6 L7.9 18.55 9.95 16.1 13.85 15.2 14.4 15.45 16.3 19.3 16.6 19.1 16.85 12.2 M7.95 18.6 L7.95 18.7 M7.9 19.65 L7.9 19.7 7.9 20.0 7.9 20.15 8.2 20.75 13.05 30.95 M7.9 19.65 L7.95 18.7 M17.05 20.8 L16.3 19.3 M17.85 30.95 L13.8 32.0 Q13.25 31.55 13.05 30.95 M17.65 3.95 L20.85 5.4" fill="none" stroke="#000000" stroke-linecap="round" stroke-linejoin="round" stroke-opacity="0.3019608" stroke-width="1.0"/>
      <path d="M13.15 1.85 L12.2 2.15 10.55 3.0 Q9.5 3.65 8.35 5.25 L7.9 6.15 Q7.6 7.0 7.45 8.35 7.1 10.5 7.45 12.8 L7.9 16.4 6.7 15.15 Q6.55 9.45 7.25 5.4 9.3 2.6 12.6 1.1 L13.15 1.85" fill="#bda082" fill-rule="evenodd" stroke="none"/>
      <path d="M12.6 1.1 Q9.3 2.6 7.25 5.4 6.55 9.45 6.7 15.15 L6.65 15.05 6.65 14.9 6.5 14.2 6.45 13.55 Q5.9 8.95 6.6 4.65 8.85 2.0 11.65 1.3 L12.45 1.15 12.6 1.1" fill="#f2e0cf" fill-rule="evenodd" stroke="none"/>
      <path d="M7.9 16.4 L7.45 12.8 Q7.1 10.5 7.45 8.35 7.6 7.0 7.9 6.15 L8.35 5.25 Q9.5 3.65 10.55 3.0 L12.2 2.15 13.15 1.85 15.35 4.8 14.75 8.85 15.0 9.3 18.85 11.7 18.6 18.5 16.7 20.1 14.35 15.5 13.7 15.15 12.1 15.6 9.8 18.3 7.9 16.4 M6.5 14.2 L6.65 14.9 6.65 15.05 6.5 14.2" fill="url(#gradient0)" fill-rule="evenodd" stroke="none"/>
      <path d="M13.15 1.85 L12.6 1.1 12.45 1.15 11.65 1.3 Q8.85 2.0 6.6 4.65 5.9 8.95 6.45 13.55 L6.5 14.2 6.65 15.05 6.7 15.15 7.9 16.4 9.8 18.3 M15.35 4.8 L13.15 1.85" fill="none" stroke="#000000" stroke-linecap="round" stroke-linejoin="round" stroke-opacity="0.3019608" stroke-width="1.0"/>
      <path d="M9.8 18.3 L12.1 15.6 13.7 15.15 14.35 15.5 16.7 20.1 18.6 18.5 18.85 11.7 15.0 9.3 14.75 8.85 15.35 4.8" fill="none" stroke="#000000" stroke-linecap="round" stroke-linejoin="round" stroke-opacity="0.2" stroke-width="0.05"/>
      <path d="M43.3 41.2 L46.6 45.15 Q46.9 45.85 46.8 46.7 L43.5 42.7 43.5 42.5 43.3 41.2 M46.4 48.0 Q45.75 49.15 44.35 50.0 43.5 50.65 42.6 50.7 L39.2 46.65 Q40.1 46.65 41.4 45.7 42.6 44.95 43.0 43.85 L46.4 48.0" fill="#ffa004" fill-rule="evenodd" stroke="none"/>
      <path d="M42.6 50.7 L41.4 50.8 Q40.2 50.75 39.65 50.05 L36.2 45.85 35.95 45.6 35.85 45.4 Q35.25 44.2 36.0 42.8 36.55 41.35 38.05 40.45 39.55 39.6 41.05 39.7 42.05 39.85 42.6 40.35 L43.0 41.0 43.2 42.1 Q42.95 45.0 38.95 46.55 L38.95 46.6 39.1 46.7 39.2 46.65 42.6 50.7" fill="#a96501" fill-rule="evenodd" stroke="none"/>
      <path d="M42.6 40.35 L42.65 40.3 Q43.15 40.55 43.3 41.2 L43.5 42.5 43.5 42.7 46.8 46.7 46.55 47.7 46.4 48.0 43.0 43.85 Q42.6 44.95 41.4 45.7 40.1 46.65 39.2 46.65 L39.1 46.7 38.95 46.6 38.95 46.55 Q42.95 45.0 43.2 42.1 L43.0 41.0 42.6 40.35" fill="#ffc369" fill-rule="evenodd" stroke="none"/>
      <path d="M42.6 50.7 L41.4 50.8 Q40.2 50.75 39.65 50.05 L36.2 45.85 35.95 45.6 35.85 45.4 Q35.25 44.2 36.0 42.8 36.55 41.35 38.05 40.45 39.55 39.6 41.05 39.7 42.05 39.85 42.6 40.35 L42.65 40.3 Q43.15 40.55 43.3 41.2 L46.6 45.15 Q46.9 45.85 46.8 46.7 L46.55 47.7 46.4 48.0 Q45.75 49.15 44.35 50.0 43.5 50.65 42.6 50.7 Z" fill="none" stroke="#000000" stroke-linecap="round" stroke-linejoin="round" stroke-opacity="0.3019608" stroke-width="1.0"/>
      <path d="M40.0 44.95 L39.8 45.1 Q38.6 45.7 37.9 45.5 L37.7 45.45 24.95 28.95 25.95 28.0 40.0 44.95" fill="#1a1004" fill-rule="evenodd" stroke="none"/>
      <path d="M40.0 44.95 L25.95 28.0 27.8 26.4 41.55 41.0 Q41.85 41.85 41.65 42.7 41.35 44.0 40.0 44.95" fill="#502e0e" fill-rule="evenodd" stroke="none"/>
      <path d="M25.95 28.0 L24.95 28.95 37.7 45.45 37.9 45.5 Q38.6 45.7 39.8 45.1 L40.0 44.95 M25.95 28.0 L27.8 26.4 41.55 41.0 Q41.85 41.85 41.65 42.7 41.35 44.0 40.0 44.95" fill="none" stroke="#000000" stroke-linecap="round" stroke-linejoin="round" stroke-opacity="0.3019608" stroke-width="1.0"/>
      <path d="M26.25 31.1 Q27.05 31.05 28.15 30.15 29.15 29.45 29.45 28.5 L32.55 31.95 Q32.05 33.0 30.85 33.85 30.1 34.4 29.35 34.5 L26.25 31.1 M32.9 30.8 L29.85 27.5 29.85 27.3 29.65 26.2 32.65 29.45 Q32.95 30.05 32.9 30.8" fill="#ffa004" fill-rule="evenodd" stroke="none"/>
      <path d="M29.0 25.45 L29.35 26.0 29.6 27.0 Q29.45 29.5 26.0 31.0 L26.0 31.05 26.15 31.15 26.25 31.1 29.35 34.5 28.35 34.65 Q27.25 34.65 26.75 34.05 L23.65 30.5 23.4 30.3 23.3 30.1 Q22.75 29.1 23.3 27.85 23.7 26.55 25.05 25.7 26.35 24.95 27.65 24.95 28.5 25.05 29.0 25.45" fill="#a96501" fill-rule="evenodd" stroke="none"/>
      <path d="M26.25 31.1 L26.15 31.15 26.0 31.05 26.0 31.0 Q29.45 29.5 29.6 27.0 L29.35 26.0 29.0 25.45 29.05 25.4 29.65 26.2 29.85 27.3 29.85 27.5 32.9 30.8 32.7 31.7 32.55 31.95 29.45 28.5 Q29.15 29.45 28.15 30.15 27.05 31.05 26.25 31.1" fill="#ffc369" fill-rule="evenodd" stroke="none"/>
      <path d="M32.55 31.95 L32.7 31.7 32.9 30.8 M29.65 26.2 L29.05 25.4 29.0 25.45 Q28.5 25.05 27.65 24.95 26.35 24.95 25.05 25.7 23.7 26.55 23.3 27.85 22.75 29.1 23.3 30.1 L23.4 30.3 23.65 30.5 26.75 34.05 Q27.25 34.65 28.35 34.65 L29.35 34.5 M32.55 31.95 Q32.05 33.0 30.85 33.85 30.1 34.4 29.35 34.5 M29.65 26.2 L32.65 29.45 Q32.95 30.05 32.9 30.8" fill="none" stroke="#000000" stroke-linecap="round" stroke-linejoin="round" stroke-opacity="0.3019608" stroke-width="1.0"/>
      <path d="M21.85 27.55 Q21.05 26.0 20.85 24.1 20.5 20.95 21.8 18.6 22.3 17.65 22.95 17.1 23.4 16.7 23.95 16.45 L24.75 16.2 25.25 16.1 Q27.5 16.0 29.4 18.2 31.3 20.45 31.65 23.65 32.0 26.8 30.8 29.1 29.75 30.9 28.2 31.4 L28.15 31.45 27.2 31.6 26.6 31.55 Q25.0 31.45 23.6 30.05 L23.15 29.55 Q22.35 28.65 21.85 27.55 M22.7 26.8 Q23.15 27.8 23.9 28.6 25.45 30.45 27.3 30.3 L27.65 30.25 Q29.3 30.05 30.3 28.25 31.35 26.3 31.05 23.6 30.7 20.9 29.15 19.1 27.55 17.2 25.65 17.25 L24.45 17.55 Q23.45 18.05 22.7 19.4 21.65 21.35 21.9 24.0 22.1 25.55 22.7 26.8" fill="#919122" fill-rule="evenodd" stroke="none"/>
      <path d="M20.5 30.95 L20.1 30.55 19.4 29.55 21.85 27.55 Q22.35 28.65 23.15 29.55 L23.6 30.05 20.5 30.95 M22.7 26.8 Q22.1 25.55 21.9 24.0 21.65 21.35 22.7 19.4 23.45 18.05 24.45 17.55 L25.65 17.25 Q27.55 17.2 29.15 19.1 30.7 20.9 31.05 23.6 31.35 26.3 30.3 28.25 29.3 30.05 27.65 30.25 L27.3 30.3 Q25.45 30.45 23.9 28.6 23.15 27.8 22.7 26.8" fill="#535313" fill-rule="evenodd" stroke="none"/>
      <path d="M28.15 31.45 L25.1 32.4 24.2 32.55 24.0 32.55 Q22.2 32.6 20.5 30.95 L23.6 30.05 Q25.0 31.45 26.6 31.55 L27.2 31.6 28.15 31.45" fill="#3b3b0d" fill-rule="evenodd" stroke="none"/>
      <path d="M21.85 27.55 Q21.05 26.0 20.85 24.1 20.5 20.95 21.8 18.6 22.3 17.65 22.95 17.1 23.4 16.7 23.95 16.45 L24.75 16.2 25.25 16.1 Q27.5 16.0 29.4 18.2 31.3 20.45 31.65 23.65 32.0 26.8 30.8 29.1 29.75 30.9 28.2 31.4 L28.15 31.45 25.1 32.4 24.2 32.55 24.0 32.55 Q22.2 32.6 20.5 30.95 L20.1 30.55 19.4 29.55 M21.85 27.55 Q22.35 28.65 23.15 29.55 L23.6 30.05 Q25.0 31.45 26.6 31.55 L27.2 31.6 28.15 31.45 M22.7 26.8 Q22.1 25.55 21.9 24.0 21.65 21.35 22.7 19.4 23.45 18.05 24.45 17.55 L25.65 17.25 Q27.55 17.2 29.15 19.1 30.7 20.9 31.05 23.6 31.35 26.3 30.3 28.25 29.3 30.05 27.65 30.25 L27.3 30.3 Q25.45 30.45 23.9 28.6 23.15 27.8 22.7 26.8" fill="none" stroke="#000000" stroke-linecap="round" stroke-linejoin="round" stroke-opacity="0.3019608" stroke-width="0.05"/>
      <path d="M27.8 23.25 Q27.35 23.4 27.15 24.05 26.85 24.65 27.0 25.35 27.1 26.05 27.55 26.5 27.95 26.95 28.4 26.8 L29.05 26.1 29.2 24.75 Q29.1 24.0 28.7 23.6 28.25 23.15 27.8 23.25 M25.0 23.45 L23.55 20.2 25.9 21.0 26.05 18.35 27.4 20.85 28.2 18.95 28.6 21.3 30.1 20.55 29.5 22.2 29.25 21.95 Q28.4 21.1 27.5 21.35 26.6 21.6 26.1 22.9 25.55 24.1 25.75 25.65 26.05 27.2 26.9 28.1 L27.15 28.25 26.5 29.9 26.25 27.45 24.8 27.75 25.5 25.75 23.55 24.8 25.0 23.45 M27.7 22.55 Q28.3 22.35 28.9 23.0 29.5 23.6 29.65 24.6 29.8 25.65 29.5 26.5 29.15 27.35 28.5 27.55 27.9 27.75 27.3 27.15 26.75 26.55 26.55 25.5 26.4 24.45 26.75 23.6 27.05 22.75 27.7 22.55" fill="#fbf1bf" fill-rule="evenodd" stroke="none"/>
    </g>
    <radialGradient cx="0" cy="0" gradientTransform="matrix(0.0102, -0.0078, 0.0142, 0.0186, 15.05, 8.3)" gradientUnits="userSpaceOnUse" id="gradient0" r="819.2" spreadMethod="pad">
      <stop offset="0.396078431372549" stop-color="#85705b"/>
      <stop offset="1.0" stop-color="#47392e"/>
    </radialGradient>
  </defs>
</svg>
