<?xml version="1.0" encoding="UTF-8" standalone="no"?>
<svg xmlns:xlink="http://www.w3.org/1999/xlink" height="440.0px" width="440.0px" xmlns="http://www.w3.org/2000/svg">
  <g transform="matrix(10.0, 0.0, 0.0, 10.0, 0.0, 0.0)">
    <use height="44.0" transform="matrix(1.0, 0.0, 0.0, 1.0, 0.0, 0.0)" width="44.0" xlink:href="#shape0"/>
    <use height="60.8" transform="matrix(0.264, 0.0526, 0.0657, 0.2876, 10.65, 4.5)" width="60.8" xlink:href="#sprite0"/>
    <use height="38.7" transform="matrix(1.0, 0.0, 0.0, 1.0, 4.1, 3.75)" width="36.35" xlink:href="#shape2"/>
  </g>
  <defs>
    <g id="shape0" transform="matrix(1.0, 0.0, 0.0, 1.0, 0.0, 0.0)">
      <path d="M44.0 44.0 L0.0 44.0 0.0 0.0 44.0 0.0 44.0 44.0" fill="#43adca" fill-opacity="0.0" fill-rule="evenodd" stroke="none"/>
      <path d="M12.55 5.0 Q14.9 7.65 13.75 10.4 11.2 12.05 9.95 8.25 9.45 6.3 7.6 4.25 L12.55 5.0" fill="#000000" fill-rule="evenodd" stroke="none"/>
      <path d="M7.6 4.25 L4.85 1.4 Q9.35 2.0 11.7 4.15 L12.55 5.0 7.6 4.25" fill="url(#gradient0)" fill-rule="evenodd" stroke="none"/>
      <path d="M12.55 5.0 Q14.9 7.65 13.75 10.4 11.2 12.05 9.95 8.25 9.45 6.3 7.6 4.25 L4.85 1.4 Q9.35 2.0 11.7 4.15 L12.55 5.0 Z" fill="none" stroke="#000000" stroke-linecap="round" stroke-linejoin="round" stroke-opacity="0.3019608" stroke-width="0.5"/>
      <path d="M11.2 5.4 L12.75 5.2 12.85 6.3 12.85 6.65 12.75 7.65 12.25 7.75 12.0 7.85 Q11.0 7.25 10.8 6.65 L10.7 6.1 11.2 5.4 M14.3 5.6 L14.8 6.1 15.1 6.75 15.0 7.65 14.9 7.75 13.55 8.45 Q13.75 8.15 13.55 7.95 L14.2 7.45 14.4 7.05 14.5 6.3 14.3 5.6 M13.45 9.4 L13.25 9.5 Q12.25 10.0 11.1 9.9 L10.9 9.9 Q9.65 9.7 9.15 8.9 8.65 8.05 9.15 7.15 L9.15 7.25 Q9.15 7.65 9.45 8.05 L9.75 8.35 11.0 8.8 11.6 8.7 11.7 8.9 Q11.7 9.2 12.1 9.2 L13.05 9.1 13.15 9.1 13.45 9.4" fill="#000000" fill-rule="evenodd" stroke="none"/>
      <path d="M11.2 5.4 L10.7 6.1 10.8 6.65 Q11.0 7.25 12.0 7.85 L11.6 8.25 11.6 8.7 11.0 8.8 9.75 8.35 9.45 8.05 Q9.15 7.65 9.15 7.25 L9.15 7.15 9.65 6.4 10.7 5.5 11.2 5.4 M12.75 7.65 L12.85 6.65 12.85 6.3 12.75 5.2 13.05 5.2 13.85 5.4 14.3 5.6 14.5 6.3 14.4 7.05 14.2 7.45 13.55 7.95 12.95 7.65 12.75 7.65 M15.0 7.65 L14.9 7.95 14.5 8.7 13.45 9.4 13.15 9.1 13.55 8.45 14.9 7.75 15.0 7.65" fill="#ffc900" fill-rule="evenodd" stroke="none"/>
      <path d="M12.75 5.2 L11.2 5.4 M12.0 7.85 L12.25 7.75 12.75 7.65 12.95 7.65 13.55 7.95 Q13.75 8.15 13.55 8.45 M12.75 5.2 L13.05 5.2 13.85 5.4 14.3 5.6 14.8 6.1 15.1 6.75 15.0 7.65 14.9 7.95 14.5 8.7 13.45 9.4 13.25 9.5 Q12.25 10.0 11.1 9.9 L10.9 9.9 Q9.65 9.7 9.15 8.9 8.65 8.05 9.15 7.15 L9.65 6.4 10.7 5.5 11.2 5.4 M13.15 9.1 L13.55 8.45 M13.15 9.1 L13.05 9.1 12.1 9.2 Q11.7 9.2 11.7 8.9 L11.6 8.7 11.6 8.25 12.0 7.85" fill="none" stroke="#000000" stroke-linecap="round" stroke-linejoin="round" stroke-opacity="0.3019608" stroke-width="0.5"/>
      <path d="M13.55 8.0 L12.95 7.7 12.7 7.7 12.2 7.8 12.0 7.9 11.6 8.3 11.6 8.7 11.7 8.9 Q11.7 9.2 12.1 9.2 L13.05 9.1 13.15 9.1 13.55 8.5 Q13.75 8.2 13.55 8.0 M14.9 7.8 L14.9 8.0 14.45 8.7 13.45 9.45 13.25 9.55 10.9 9.95 Q9.65 9.75 9.15 8.9 L9.45 8.1 9.95 7.4 Q10.35 6.85 10.8 6.65 11.3 6.25 11.9 6.25 L12.85 6.35 13.65 6.65 14.35 7.05 14.9 7.8" fill="#000000" fill-opacity="0.4509804" fill-rule="evenodd" stroke="none"/>
      <path d="M30.35 37.55 L28.2 39.05 27.35 39.05 Q28.8 38.5 30.3 37.5 L30.35 37.55" fill="#33ccff" fill-rule="evenodd" stroke="none"/>
      <path d="M26.35 21.65 L25.95 21.3 24.35 19.45 22.8 17.4 21.85 16.05 24.95 18.95 26.95 21.2 26.8 21.3 28.15 22.65 29.15 23.95 29.3 24.2 29.25 24.25 30.1 25.4 28.95 24.25 26.7 22.0 26.4 21.6 26.35 21.65 M12.25 12.45 Q12.65 16.15 13.75 20.05 L15.35 25.4 15.3 25.4 12.1 25.45 11.75 23.25 Q11.55 17.25 12.25 12.45 M16.5 28.65 L16.75 29.3 16.95 29.6 16.85 29.6 13.15 29.85 12.8 28.6 16.1 28.65 16.5 28.65 M14.75 33.8 L18.7 33.4 18.9 33.4 19.1 33.4 19.5 34.1 19.3 34.1 15.0 34.3 14.75 33.8 M17.3 37.1 L20.75 36.9 21.25 36.85 21.25 36.9 23.9 38.1 Q26.05 38.9 27.35 39.05 21.85 41.1 17.3 37.1 M24.15 17.6 L17.2 11.95 Q19.15 11.95 24.15 17.6" fill="#2c5c6a" fill-rule="evenodd" stroke="none"/>
      <path d="M11.9 7.95 L12.25 12.45 Q11.55 17.25 11.75 23.25 L12.1 25.45 11.35 25.4 11.1 23.25 10.9 20.05 Q10.8 14.4 11.9 7.95 M28.2 39.05 L26.9 39.75 Q20.75 41.4 16.45 37.7 13.15 34.3 12.25 30.5 L12.25 30.4 12.35 30.7 13.55 33.8 13.95 33.8 14.75 33.8 15.0 34.3 14.05 34.3 16.35 37.1 17.3 37.1 Q21.85 41.1 27.35 39.05 L28.2 39.05 M12.1 29.8 L11.85 28.55 12.8 28.6 13.15 29.85 12.1 29.8" fill="#2a7c99" fill-rule="evenodd" stroke="none"/>
      <path d="M26.95 21.2 L28.55 19.55 29.55 20.25 29.65 20.35 30.7 21.3 30.6 21.45 28.55 23.05 28.15 22.65 26.8 21.3 26.95 21.2 M11.85 28.55 L11.8 28.55 11.3 25.4 11.35 25.4 12.1 25.45 12.8 28.6 11.85 28.55 M17.3 37.1 L16.35 37.1 14.05 34.3 15.0 34.3 15.85 35.65 17.3 37.1" fill="#ffcc00" fill-rule="evenodd" stroke="none"/>
      <path d="M12.25 30.4 L12.0 29.8 12.1 29.8 13.15 29.85 16.85 29.6 16.95 29.6 19.1 33.4 18.9 33.4 18.7 33.4 14.75 33.8 13.95 33.8 13.55 33.8 12.35 30.7 12.25 30.4" fill="#000000" fill-rule="evenodd" stroke="none"/>
      <path d="M12.25 12.45 Q12.5 10.3 13.0 8.35 L17.8 13.6 13.4 11.05 Q14.8 17.2 18.55 24.95 L15.35 25.4 13.75 20.05 Q12.65 16.15 12.25 12.45 M20.1 28.1 L20.55 28.9 18.05 29.4 16.95 29.6 16.75 29.3 16.5 28.65 20.1 28.1 M21.2 32.95 L21.2 33.5 22.3 33.5 19.5 34.1 19.1 33.4 21.2 32.95 M26.6 35.45 L30.3 37.5 Q28.8 38.5 27.35 39.05 26.05 38.9 23.9 38.1 L21.25 36.9 21.25 36.85 22.05 36.75 Q24.5 36.3 26.6 35.45" fill="#3294b2" fill-rule="evenodd" stroke="none"/>
      <path d="M16.5 28.65 L16.1 28.65 12.8 28.6 12.1 25.45 15.3 25.4 16.5 28.65 M15.0 34.3 L19.3 34.1 19.5 34.1 21.25 36.85 20.75 36.9 17.3 37.1 15.85 35.65 15.0 34.3" fill="#a88000" fill-rule="evenodd" stroke="none"/>
      <path d="M22.45 32.65 L21.2 32.95 21.2 32.65 22.45 32.65" fill="#3b3b3b" fill-rule="evenodd" stroke="none"/>
      <path d="M16.95 29.6 L18.05 29.4 20.55 28.9 22.6 32.65 22.45 32.65 21.2 32.65 21.2 32.95 19.1 33.4 16.95 29.6" fill="#262626" fill-rule="evenodd" stroke="none"/>
      <path d="M18.55 24.95 Q22.8 24.1 25.75 22.1 L26.35 21.65 26.4 21.6 26.7 22.0 28.2 24.15 26.9 25.3 Q24.15 27.25 20.1 28.1 L18.55 24.95" fill="url(#gradient1)" fill-rule="evenodd" stroke="none"/>
      <path d="M33.1 26.3 L33.15 26.2 Q33.65 27.85 33.75 29.3 L33.75 29.45 32.95 30.85 31.4 32.55 Q29.35 34.35 26.6 35.45 L25.2 34.7 Q23.75 36.05 21.3 35.25 L21.4 34.5 Q23.05 34.5 23.55 33.5 L22.3 33.5 Q27.05 32.35 29.35 30.5 31.2 29.0 33.1 26.3" fill="url(#gradient2)" fill-rule="evenodd" stroke="none"/>
      <path d="M15.35 25.4 L18.55 24.95 20.1 28.1 16.5 28.65 15.3 25.4 15.35 25.4" fill="url(#gradient3)" fill-rule="evenodd" stroke="none"/>
      <path d="M21.25 36.85 L19.5 34.1 22.3 33.5 23.55 33.5 Q23.05 34.5 21.4 34.5 L21.3 35.25 Q23.75 36.05 25.2 34.7 L26.6 35.45 Q24.5 36.3 22.05 36.75 L21.25 36.85" fill="url(#gradient4)" fill-rule="evenodd" stroke="none"/>
      <path d="M26.95 21.2 L24.95 18.95 21.85 16.05 22.8 17.4 24.35 19.45 25.95 21.3 26.35 21.65 25.75 22.1 Q22.8 24.1 18.55 24.95 14.8 17.2 13.4 11.05 L17.8 13.6 13.0 8.35 Q12.5 10.3 12.25 12.45 L11.9 7.95 12.0 7.75 13.25 7.75 Q15.7 9.0 22.4 14.2 27.35 18.0 29.55 20.25 L28.55 19.55 26.95 21.2 M24.15 17.6 Q19.15 11.95 17.2 11.95 L24.15 17.6" fill="url(#gradient5)" fill-rule="evenodd" stroke="none"/>
      <path d="M26.7 22.0 L28.95 24.25 30.1 25.4 30.4 25.9 29.05 24.55 Q26.3 27.55 20.55 28.9 L20.1 28.1 Q24.15 27.25 26.9 25.3 L28.2 24.15 26.7 22.0" fill="url(#gradient6)" fill-rule="evenodd" stroke="none"/>
      <path d="M29.3 24.2 L29.15 23.95 28.15 22.65 28.55 23.05 30.6 21.45 30.7 21.6 Q32.3 23.45 33.1 26.3 31.2 29.0 29.35 30.5 27.05 32.35 22.3 33.5 L21.2 33.5 21.2 32.95 22.45 32.65 22.6 32.65 Q27.7 31.2 30.4 28.25 L30.6 27.95 Q31.7 26.6 32.2 25.5 L32.45 24.9 30.8 21.9 29.3 24.2" fill="url(#gradient7)" fill-rule="evenodd" stroke="none"/>
      <path d="M33.75 29.45 L33.85 30.85 Q33.75 33.3 32.35 35.45 L30.35 37.55 30.3 37.5 26.6 35.45 Q29.35 34.35 31.4 32.55 L32.95 30.85 33.75 29.45" fill="url(#gradient8)" fill-rule="evenodd" stroke="none"/>
      <path d="M30.1 25.4 L29.25 24.25 29.3 24.2 30.8 21.9 32.45 24.9 32.2 25.5 Q31.7 26.6 30.6 27.95 L30.4 28.25 Q27.7 31.2 22.6 32.65 L20.55 28.9 Q26.3 27.55 29.05 24.55 L30.4 25.9 30.1 25.4" fill="url(#gradient9)" fill-rule="evenodd" stroke="none"/>
      <path d="M29.55 20.25 Q27.35 18.0 22.4 14.2 15.7 9.0 13.25 7.75 L12.0 7.75 11.9 7.95 M30.6 21.45 L30.7 21.3 29.65 20.35 29.55 20.25 M30.6 21.45 L30.7 21.6 Q32.3 23.45 33.1 26.3 L33.15 26.2 Q33.65 27.85 33.75 29.3 L33.75 29.45 33.85 30.85 Q33.75 33.3 32.35 35.45 L30.35 37.55 28.2 39.05 26.9 39.75 Q20.75 41.4 16.45 37.7 13.15 34.3 12.25 30.5 L12.25 30.4 M12.1 29.8 L11.85 28.55 11.8 28.55 11.3 25.4 11.35 25.4 11.1 23.25 10.9 20.05 Q10.8 14.4 11.9 7.95" fill="none" stroke="#000000" stroke-linecap="round" stroke-linejoin="round" stroke-opacity="0.3019608" stroke-width="0.5"/>
      <path d="M30.75 27.65 L30.95 28.7 32.35 33.2 Q31.8 30.35 31.7 27.9 L31.7 26.9 31.5 28.05 Q31.4 28.85 31.1 28.55 L30.75 27.65" fill="#000000" fill-opacity="0.15294118" fill-rule="evenodd" stroke="none"/>
      <path d="M30.4 26.85 L30.75 27.65 30.95 28.7 32.35 33.2 M31.75 24.8 L31.8 23.35" fill="none" stroke="#000000" stroke-linecap="round" stroke-linejoin="round" stroke-opacity="0.15294118" stroke-width="0.05"/>
      <path d="M32.95 30.0 Q33.55 32.15 33.15 34.6 L31.7 36.35 Q32.0 34.0 31.7 31.85 L32.95 30.0" fill="#2c5c6a" fill-rule="evenodd" stroke="none"/>
      <path d="M31.7 31.85 Q31.2 29.3 30.7 28.8 L32.0 27.25 32.95 30.0 31.7 31.85" fill="#3294b2" fill-rule="evenodd" stroke="none"/>
      <path d="M31.7 31.85 Q31.2 29.3 30.7 28.8 L32.0 27.25 32.95 30.0 Q33.55 32.15 33.15 34.6 L31.7 36.35 Q32.0 34.0 31.7 31.85 Z" fill="none" stroke="#000000" stroke-linecap="round" stroke-linejoin="round" stroke-opacity="0.15294118" stroke-width="0.05"/>
      <path d="M28.8 20.55 L28.5 20.95 27.45 23.0 28.85 21.35 29.15 21.15 28.75 21.25 Q28.55 21.35 28.55 21.05 L28.8 20.55" fill="#000000" fill-opacity="0.15294118" fill-rule="evenodd" stroke="none"/>
      <path d="M28.95 20.1 L28.8 20.55 28.5 20.95 27.45 23.0 M29.7 20.7 L30.1 20.45" fill="none" stroke="#000000" stroke-linecap="round" stroke-linejoin="round" stroke-opacity="0.15294118" stroke-width="0.05"/>
      <path d="M28.75 22.9 L29.4 21.6 28.75 20.85 28.1 22.3 28.05 22.3 28.75 22.9" fill="#978e24" fill-rule="evenodd" stroke="none"/>
      <path d="M28.75 22.9 L28.05 22.3 Q27.55 23.1 26.8 23.35 L27.5 24.1 Q28.25 23.85 28.75 22.9" fill="#696316" fill-rule="evenodd" stroke="none"/>
      <path d="M28.05 22.3 L28.1 22.3 28.75 20.85 29.4 21.6 28.75 22.9 M28.05 22.3 Q27.55 23.1 26.8 23.35 L27.5 24.1 Q28.25 23.85 28.75 22.9" fill="none" stroke="#000000" stroke-linecap="round" stroke-linejoin="round" stroke-opacity="0.15294118" stroke-width="0.05"/>
      <path d="M26.75 18.8 L26.4 19.2 25.0 20.95 26.75 19.5 27.1 19.3 26.65 19.45 Q26.35 19.5 26.45 19.25 L26.75 18.8" fill="#000000" fill-opacity="0.15294118" fill-rule="evenodd" stroke="none"/>
      <path d="M26.95 18.45 L26.75 18.8 26.4 19.2 25.0 20.95 M27.85 18.95 L28.35 18.7" fill="none" stroke="#000000" stroke-linecap="round" stroke-linejoin="round" stroke-opacity="0.15294118" stroke-width="0.05"/>
      <path d="M25.35 20.35 L26.1 20.85 27.0 19.65 26.3 19.1 25.4 20.3 25.35 20.35" fill="#978e24" fill-rule="evenodd" stroke="none"/>
      <path d="M25.35 20.35 L23.8 21.25 24.55 21.9 26.1 20.85 25.35 20.35" fill="#696316" fill-rule="evenodd" stroke="none"/>
      <path d="M26.1 20.85 L24.55 21.9 23.8 21.25 25.35 20.35 M26.1 20.85 L27.0 19.65 26.3 19.1 25.4 20.3 25.35 20.35" fill="none" stroke="#000000" stroke-linecap="round" stroke-linejoin="round" stroke-opacity="0.15294118" stroke-width="0.05"/>
      <path d="M30.55 23.15 L30.25 23.5 28.95 25.4 Q29.8 24.4 30.5 23.95 L30.8 23.8 30.45 23.8 Q30.2 23.85 30.3 23.6 L30.55 23.15" fill="#000000" fill-opacity="0.15294118" fill-rule="evenodd" stroke="none"/>
      <path d="M30.8 22.75 L30.55 23.15 30.25 23.5 28.95 25.4 M31.45 23.4 L31.9 23.2" fill="none" stroke="#000000" stroke-linecap="round" stroke-linejoin="round" stroke-opacity="0.15294118" stroke-width="0.05"/>
      <path d="M29.75 24.75 L30.35 25.45 31.15 24.2 30.6 23.4 29.8 24.7 29.75 24.75" fill="#978e24" fill-rule="evenodd" stroke="none"/>
      <path d="M29.75 24.75 Q29.1 25.5 28.35 25.6 L28.95 26.5 Q29.75 26.3 30.35 25.45 L29.75 24.75" fill="#696316" fill-rule="evenodd" stroke="none"/>
      <path d="M30.35 25.45 Q29.75 26.3 28.95 26.5 L28.35 25.6 Q29.1 25.5 29.75 24.75 M30.35 25.45 L31.15 24.2 30.6 23.4 29.8 24.7 29.75 24.75" fill="none" stroke="#000000" stroke-linecap="round" stroke-linejoin="round" stroke-opacity="0.15294118" stroke-width="0.05"/>
    </g>
    <linearGradient gradientTransform="matrix(0.0022, 0.0022, -0.0013, 0.0013, 10.45, 5.05)" gradientUnits="userSpaceOnUse" id="gradient0" spreadMethod="pad" x1="-819.2" x2="819.2">
      <stop offset="0.0" stop-color="#ffcc00"/>
      <stop offset="1.0" stop-color="#f8ff99"/>
    </linearGradient>
    <linearGradient gradientTransform="matrix(-0.0041, 0.0017, -9.0E-4, -0.0022, 19.95, 26.5)" gradientUnits="userSpaceOnUse" id="gradient1" spreadMethod="pad" x1="-819.2" x2="819.2">
      <stop offset="0.0" stop-color="#ffcc00"/>
      <stop offset="1.0" stop-color="#ffeca3"/>
    </linearGradient>
    <linearGradient gradientTransform="matrix(-0.0049, 0.0029, -0.0015, -0.0026, 25.25, 33.65)" gradientUnits="userSpaceOnUse" id="gradient2" spreadMethod="pad" x1="-819.2" x2="819.2">
      <stop offset="0.0" stop-color="#ffcc00"/>
      <stop offset="1.0" stop-color="#ffeca3"/>
    </linearGradient>
    <linearGradient gradientTransform="matrix(0.0022, -6.0E-4, 6.0E-4, 0.0023, 18.9, 26.4)" gradientUnits="userSpaceOnUse" id="gradient3" spreadMethod="pad" x1="-819.2" x2="819.2">
      <stop offset="0.0" stop-color="#c19400"/>
      <stop offset="0.9882352941176471" stop-color="#826300"/>
    </linearGradient>
    <linearGradient gradientTransform="matrix(0.0028, -0.0011, 9.0E-4, 0.0022, 24.6, 34.1)" gradientUnits="userSpaceOnUse" id="gradient4" spreadMethod="pad" x1="-819.2" x2="819.2">
      <stop offset="0.0" stop-color="#c19400"/>
      <stop offset="0.9882352941176471" stop-color="#826300"/>
    </linearGradient>
    <linearGradient gradientTransform="matrix(-0.0077, 0.0034, -0.0047, -0.0106, 12.8, 17.75)" gradientUnits="userSpaceOnUse" id="gradient5" spreadMethod="pad" x1="-819.2" x2="819.2">
      <stop offset="0.0" stop-color="#33ccff"/>
      <stop offset="0.9882352941176471" stop-color="#9cf8ff"/>
    </linearGradient>
    <linearGradient gradientTransform="matrix(-0.0056, 0.0015, -8.0E-4, -0.003, 19.75, 26.45)" gradientUnits="userSpaceOnUse" id="gradient6" spreadMethod="pad" x1="-819.2" x2="819.2">
      <stop offset="0.0" stop-color="#33ccff"/>
      <stop offset="0.9882352941176471" stop-color="#9cf8ff"/>
    </linearGradient>
    <linearGradient gradientTransform="matrix(-0.0071, 0.0025, -0.0018, -0.0051, 20.6, 29.65)" gradientUnits="userSpaceOnUse" id="gradient7" spreadMethod="pad" x1="-819.2" x2="819.2">
      <stop offset="0.0" stop-color="#33ccff"/>
      <stop offset="0.9882352941176471" stop-color="#9cf8ff"/>
    </linearGradient>
    <linearGradient gradientTransform="matrix(-0.0041, 0.003, -0.0016, -0.0022, 29.05, 35.75)" gradientUnits="userSpaceOnUse" id="gradient8" spreadMethod="pad" x1="-819.2" x2="819.2">
      <stop offset="0.0" stop-color="#33ccff"/>
      <stop offset="0.9882352941176471" stop-color="#9cf8ff"/>
    </linearGradient>
    <linearGradient gradientTransform="matrix(-0.0072, 0.0034, -0.0017, -0.0036, 21.7, 29.95)" gradientUnits="userSpaceOnUse" id="gradient9" spreadMethod="pad" x1="-819.2" x2="819.2">
      <stop offset="0.0" stop-color="#3b3b3b"/>
      <stop offset="0.9882352941176471" stop-color="#4d4d4d"/>
    </linearGradient>
    <g id="sprite0" transform="matrix(1.0, 0.0, 0.0, 1.0, 0.0, 0.0)">
      <use height="60.8" transform="matrix(1.0, 0.0, 0.0, 1.0, 0.0, 0.0)" width="60.8" xlink:href="#shape1"/>
    </g>
    <g id="shape1" transform="matrix(1.0, 0.0, 0.0, 1.0, 0.0, 0.0)">
      <path d="M60.8 30.4 Q60.8 43.0 51.9 51.9 43.0 60.8 30.4 60.8 17.8 60.8 8.9 51.9 0.0 43.0 0.0 30.4 0.0 17.8 8.9 8.9 17.8 0.0 30.4 0.0 43.0 0.0 51.9 8.9 60.8 17.8 60.8 30.4" fill="url(#gradient10)" fill-rule="evenodd" stroke="none"/>
    </g>
    <radialGradient cx="0" cy="0" gradientTransform="matrix(0.0374, 0.0, 0.0, 0.0374, 30.4, 30.4)" gradientUnits="userSpaceOnUse" id="gradient10" r="819.2" spreadMethod="pad">
      <stop offset="0.0" stop-color="#ffffff"/>
      <stop offset="1.0" stop-color="#ffffff" stop-opacity="0.0"/>
    </radialGradient>
    <g id="shape2" transform="matrix(1.0, 0.0, 0.0, 1.0, -4.1, -3.75)">
      <path d="M25.9 40.05 Q24.5 40.35 24.4 39.75 24.05 39.35 25.05 38.4 25.95 37.4 27.7 36.35 29.35 35.6 30.8 35.25 L32.4 35.3 Q32.35 35.95 31.45 36.95 L29.1 38.75 Q27.1 39.8 25.9 40.05" fill="#1c5263" fill-opacity="0.5019608" fill-rule="evenodd" stroke="none"/>
      <path d="M15.2 15.45 L16.25 15.65 Q20.25 16.25 23.4 17.7 L19.6 20.7 17.15 22.85 15.2 24.05 12.95 25.3 11.4 25.4 11.1 23.65 Q10.6 21.1 10.6 19.55 L10.8 15.55 11.5 15.45 Q13.15 15.25 15.2 15.45" fill="#000000" fill-opacity="0.3019608" fill-rule="evenodd" stroke="none"/>
      <path d="M17.85 16.45 L23.4 17.5 16.55 21.1 12.0 22.4 9.15 21.5 Q7.0 20.7 6.6 20.25 4.95 18.6 4.35 15.95 L4.15 15.25 9.85 15.55 14.05 15.85 12.0 22.4 14.05 15.85 17.85 16.45 16.55 21.1 17.85 16.45 M6.6 20.25 L9.85 15.55 6.6 20.25" fill="#ffffff" fill-opacity="0.4" fill-rule="evenodd" stroke="none"/>
      <path d="M14.5 12.35 L15.6 12.9 Q20.0 14.85 23.4 17.5 L17.85 16.45 14.5 12.35 17.85 16.45 14.05 15.85 9.85 15.55 4.15 15.25 Q3.7 12.55 6.3 11.45 8.85 10.4 10.4 11.15 L14.5 12.35 M10.4 11.15 L14.05 15.85 10.4 11.15 M6.3 11.45 L9.85 15.55 6.3 11.45" fill="#ffffff" fill-opacity="0.6" fill-rule="evenodd" stroke="none"/>
      <path d="M23.4 17.5 Q20.0 14.85 15.6 12.9 L14.5 12.35 M23.4 17.5 L16.55 21.1 12.0 22.4 9.15 21.5 Q7.0 20.7 6.6 20.25 4.95 18.6 4.35 15.95 L4.15 15.25 Q3.7 12.55 6.3 11.45 8.85 10.4 10.4 11.15 L14.5 12.35" fill="none" stroke="#3294b2" stroke-linecap="round" stroke-linejoin="round" stroke-width="0.05"/>
      <path d="M14.5 12.35 L17.85 16.45 23.4 17.5 M14.05 15.85 L9.85 15.55 6.6 20.25 M12.0 22.4 L14.05 15.85 10.4 11.15 M16.55 21.1 L17.85 16.45 14.05 15.85 M4.15 15.25 L9.85 15.55 6.3 11.45" fill="none" stroke="#3191b3" stroke-linecap="round" stroke-linejoin="round" stroke-opacity="0.2" stroke-width="0.05"/>
      <path d="M19.6 12.7 L19.4 11.85 20.65 12.7 22.7 14.1 24.1 15.05 23.9 15.35 22.7 17.3 22.3 16.8 20.35 13.9 19.9 13.2 19.6 12.7" fill="#000000" fill-opacity="0.3019608" fill-rule="evenodd" stroke="none"/>
      <path d="M23.35 17.45 L22.95 16.6 21.45 12.2 21.15 11.1 21.05 10.25 20.9 8.05 Q20.75 6.15 21.3 5.05 L21.6 4.6 Q22.95 3.1 25.15 4.2 L25.45 4.35 25.85 4.6 25.3 7.4 24.6 10.8 20.9 8.05 24.6 10.8 24.05 13.85 24.05 14.0 23.35 17.45 M21.45 12.2 L24.05 13.85 21.45 12.2 M21.6 4.6 L25.3 7.4 21.6 4.6" fill="#ffffff" fill-opacity="0.4" fill-rule="evenodd" stroke="none"/>
      <path d="M25.85 4.6 Q27.9 5.85 28.75 7.65 L29.0 8.75 Q29.3 10.25 28.6 11.65 L28.2 12.45 27.5 13.45 26.95 14.0 25.7 15.25 23.35 17.45 24.05 14.0 24.05 13.85 24.6 10.8 25.3 7.4 28.75 7.65 25.3 7.4 25.85 4.6 M28.6 11.65 L24.6 10.8 28.6 11.65 M26.95 14.0 L24.05 14.0 26.95 14.0" fill="#ffffff" fill-opacity="0.6" fill-rule="evenodd" stroke="none"/>
      <path d="M23.35 17.45 L22.95 16.6 21.45 12.2 21.15 11.1 21.05 10.25 20.9 8.05 Q20.75 6.15 21.3 5.05 L21.6 4.6 Q22.95 3.1 25.15 4.2 L25.45 4.35 25.85 4.6 Q27.9 5.85 28.75 7.65 L29.0 8.75 Q29.3 10.25 28.6 11.65 L28.2 12.45 27.5 13.45 26.95 14.0 25.7 15.25 23.35 17.45" fill="none" stroke="#3294b2" stroke-linecap="round" stroke-linejoin="round" stroke-width="0.05"/>
      <path d="M23.35 17.45 L24.05 14.0 24.05 13.85 21.45 12.2 M25.3 7.4 L24.6 10.8 28.6 11.65 M25.3 7.4 L28.75 7.65 M25.85 4.6 L25.3 7.4 21.6 4.6 M24.6 10.8 L20.9 8.05 M24.05 14.0 L26.95 14.0 M24.6 10.8 L24.05 13.85" fill="none" stroke="#3191b3" stroke-linecap="round" stroke-linejoin="round" stroke-opacity="0.2" stroke-width="0.05"/>
      <path d="M33.45 37.1 L35.0 35.65 36.3 37.3 35.1 38.85 34.4 39.85 32.35 38.85 33.45 37.1 M36.1 40.45 L36.65 39.85 37.65 38.95 40.2 42.2 36.1 40.45" fill="#000000" fill-rule="evenodd" stroke="none"/>
      <path d="M33.45 37.1 L31.7 34.7 33.45 33.5 35.0 35.65 33.45 37.1" fill="url(#gradient11)" fill-rule="evenodd" stroke="none"/>
      <path d="M36.65 39.85 L35.1 38.85 36.3 37.3 37.65 38.95 36.65 39.85" fill="url(#gradient12)" fill-rule="evenodd" stroke="none"/>
      <path d="M31.7 34.7 L33.45 37.1 32.35 38.85 29.85 38.0 31.7 34.7" fill="url(#gradient13)" fill-rule="evenodd" stroke="none"/>
      <path d="M36.65 39.85 L36.1 40.45 34.4 39.85 35.1 38.85 36.65 39.85" fill="url(#gradient14)" fill-rule="evenodd" stroke="none"/>
      <path d="M35.0 35.65 L33.45 33.5 31.7 34.7 29.85 38.0 32.35 38.85 34.4 39.85 36.1 40.45 40.2 42.2 37.65 38.95 36.3 37.3 35.0 35.65 Z" fill="none" stroke="#000000" stroke-linecap="round" stroke-linejoin="round" stroke-opacity="0.3019608" stroke-width="0.5"/>
    </g>
    <linearGradient gradientTransform="matrix(-7.0E-4, 0.0013, -0.0018, -0.001, 32.75, 36.25)" gradientUnits="userSpaceOnUse" id="gradient11" spreadMethod="pad" x1="-819.2" x2="819.2">
      <stop offset="0.0" stop-color="#ffcc00"/>
      <stop offset="1.0" stop-color="#f8ff99"/>
    </linearGradient>
    <linearGradient gradientTransform="matrix(-0.0014, 9.0E-4, -7.0E-4, -0.0012, 35.2, 39.3)" gradientUnits="userSpaceOnUse" id="gradient12" spreadMethod="pad" x1="-819.2" x2="819.2">
      <stop offset="0.0" stop-color="#ffcc00"/>
      <stop offset="1.0" stop-color="#f8ff99"/>
    </linearGradient>
    <linearGradient gradientTransform="matrix(0.0012, -0.0021, 0.0014, 8.0E-4, 32.7, 35.7)" gradientUnits="userSpaceOnUse" id="gradient13" spreadMethod="pad" x1="-819.2" x2="819.2">
      <stop offset="0.0" stop-color="#b38d00"/>
      <stop offset="1.0" stop-color="#6b5400"/>
    </linearGradient>
    <linearGradient gradientTransform="matrix(6.0E-4, -0.001, 0.001, 6.0E-4, 35.95, 39.1)" gradientUnits="userSpaceOnUse" id="gradient14" spreadMethod="pad" x1="-819.2" x2="819.2">
      <stop offset="0.0" stop-color="#b38d00"/>
      <stop offset="1.0" stop-color="#6b5400"/>
    </linearGradient>
  </defs>
</svg>
