<?xml version="1.0" encoding="UTF-8" standalone="no"?>
<svg xmlns:xlink="http://www.w3.org/1999/xlink" height="440.0px" width="440.0px" xmlns="http://www.w3.org/2000/svg">
  <g transform="matrix(10.0, 0.0, 0.0, 10.0, 0.0, 0.0)">
    <use height="44.0" transform="matrix(0.9091, 0.0, 0.0, 0.9091, 2.0, 2.0)" width="44.0" xlink:href="#sprite0"/>
  </g>
  <defs>
    <g id="sprite0" transform="matrix(1.0, 0.0, 0.0, 1.0, 0.0, 0.0)">
      <use height="44.0" transform="matrix(1.0, 0.0, 0.0, 1.0, 0.0, 0.0)" width="44.0" xlink:href="#shape0"/>
      <use height="32.5" transform="matrix(1.1692, 0.0, 0.0, 1.1692, 9.35, 3.0)" width="21.65" xlink:href="#sprite1"/>
    </g>
    <g id="shape0" transform="matrix(1.0, 0.0, 0.0, 1.0, 0.0, 0.0)">
      <path d="M44.0 44.0 L0.0 44.0 0.0 0.0 44.0 0.0 44.0 44.0" fill="#43adca" fill-opacity="0.0" fill-rule="evenodd" stroke="none"/>
    </g>
    <g id="sprite1" transform="matrix(1.0, 0.0, 0.0, 1.0, 0.0, 0.0)">
      <use height="32.5" transform="matrix(1.0, 0.0, 0.0, 1.0, 0.0, 0.0)" width="21.65" xlink:href="#sprite2"/>
    </g>
    <g id="sprite2" transform="matrix(1.0, 0.0, 0.0, 1.0, 5.3, 17.7)">
      <use height="32.5" transform="matrix(1.0, 0.0, 0.0, 1.0, -5.3, -17.7)" width="21.65" xlink:href="#shape1"/>
    </g>
    <g id="shape1" transform="matrix(1.0, 0.0, 0.0, 1.0, 5.3, 17.7)">
      <path d="M5.55 -7.3 L5.35 -6.55 5.35 -6.45 5.3 -5.65 Q5.0 -0.5 6.3 3.0 L6.25 3.05 5.0 5.6 4.95 5.75 4.9 5.8 7.35 5.6 9.1 5.25 9.85 5.05 10.25 4.35 10.4 3.6 10.75 1.7 11.0 0.35 11.1 -0.35 11.25 -1.45 11.5 -2.8 11.65 -3.95 11.8 -4.9 12.1 -7.1 12.15 -7.55 12.2 -7.85 12.2 -8.1 12.1 -9.4 11.45 -10.15 Q10.6 -10.9 9.6 -11.05 L8.8 -10.85 8.1 -9.55 Q7.85 -8.95 7.75 -8.2 L7.55 -7.5 7.1 -7.65 6.85 -7.0 5.75 -7.25 5.55 -7.3" fill="#688885" fill-rule="evenodd" stroke="none"/>
      <path d="M5.55 -7.3 L5.1 -7.3 5.0 -7.3 4.0 -7.5 4.3 -8.55 Q4.5 -10.15 3.7 -11.15 3.05 -11.95 2.2 -12.2 L2.0 -12.2 1.6 -12.2 0.95 -11.65 0.25 -10.55 0.0 -9.6 -1.65 1.8 -0.25 3.9 Q0.8 4.85 3.95 5.65 L4.95 5.75 5.0 5.6 6.25 3.05 6.3 3.0 Q5.0 -0.5 5.3 -5.65 L5.35 -6.45 5.3 -6.45 5.35 -6.55 5.55 -7.3 5.75 -7.25 6.85 -7.0 7.1 -7.65 6.7 -7.8 5.65 -7.95 5.55 -7.3 M2.9 12.1 Q4.1 11.55 5.2 10.7 L5.6 10.4 6.55 9.55 7.3 8.8 7.75 8.25 8.35 7.45 9.15 6.3 9.45 5.85 9.85 5.05 9.1 5.25 7.35 5.6 4.9 5.8 3.0 11.55 3.0 11.6 2.9 12.1 M12.1 -9.4 L11.75 -10.6 11.15 -11.55 10.3 -12.0 10.25 -12.05 10.25 -12.0 8.95 -11.05 8.8 -10.85 9.6 -11.05 Q10.6 -10.9 11.45 -10.15 L12.1 -9.4 M10.3 -12.0 L10.25 -12.0 10.3 -12.0" fill="#56706d" fill-rule="evenodd" stroke="none"/>
      <path d="M15.0 -14.3 L6.55 -14.05 -0.7 -16.25 -0.85 -15.4 -1.2 -13.3 -1.3 -12.8 -1.55 -11.15 -2.4 -5.4 -2.5 -4.4 -2.6 -3.5 -2.8 -2.15 -2.95 -0.55 -3.05 0.25 -3.3 3.1 -2.9 5.1 -2.8 5.35 -2.55 6.3 -1.9 8.1 -1.2 9.5 -0.95 10.0 -0.75 10.45 0.05 11.7 0.75 12.55 1.65 13.55 2.55 14.3 4.05 14.0 Q8.45 11.0 9.95 9.15 11.4 7.35 12.3 5.4 L12.35 5.35 12.4 5.25 13.65 -4.3 15.0 -14.3 13.65 -4.3 12.4 5.25 12.35 5.35 13.85 5.75 15.1 -3.8 16.35 -13.2 15.0 -14.3 M0.7 -15.55 L1.55 -15.3 2.8 -14.9 3.3 -14.8 3.05 -13.25 2.85 -13.25 2.45 -13.35 1.75 -13.3 1.7 -13.3 1.35 -13.2 0.9 -12.9 0.45 -12.45 0.2 -12.15 -0.7 -15.1 -0.6 -16.0 0.7 -15.55 M2.85 -13.05 L3.25 -12.95 Q3.95 -12.55 4.35 -11.65 5.0 -10.25 4.75 -8.55 L4.65 -8.05 5.65 -7.95 6.7 -7.8 6.75 -8.3 Q6.85 -9.05 7.1 -9.65 7.4 -10.5 7.95 -11.15 8.6 -11.9 9.3 -12.1 L10.15 -12.1 10.25 -12.05 10.3 -12.0 11.15 -11.55 11.75 -10.6 12.1 -9.4 12.2 -8.1 12.2 -7.85 12.15 -7.55 12.1 -7.1 11.8 -4.9 11.65 -3.95 11.5 -2.8 11.25 -1.45 11.1 -0.35 11.0 0.35 10.75 1.7 10.4 3.6 10.25 4.35 9.85 5.05 9.45 5.85 9.15 6.3 8.35 7.45 7.75 8.25 7.3 8.8 6.55 9.55 5.6 10.4 5.2 10.7 Q4.1 11.55 2.9 12.1 L2.85 12.1 2.4 11.7 1.65 10.95 0.95 10.05 0.6 9.6 0.15 8.9 -0.2 8.4 -0.75 7.2 -1.3 5.85 -1.7 4.55 -1.9 3.6 -2.15 2.6 -2.0 1.2 -1.95 1.15 -1.85 0.0 -1.65 -1.75 -1.55 -3.1 -1.4 -3.9 -1.4 -3.95 -1.25 -5.0 -0.7 -8.9 -0.65 -9.35 -0.55 -9.9 -0.45 -10.35 -0.15 -11.2 -0.15 -11.25 0.3 -11.9 0.55 -12.15 0.9 -12.5 1.75 -13.05 2.45 -13.2 2.55 -13.15 2.85 -13.05 M-1.45 -11.05 L-1.15 -12.55 -0.2 -11.35 -0.6 -10.5 -0.8 -9.9 -1.55 -10.15 -1.45 -11.05 M-1.7 -5.15 L-1.6 -5.55 -1.25 -6.05 -1.4 -5.0 -1.5 -4.0 -1.65 -3.1 -1.75 -1.8 -1.95 -0.1 -2.1 1.05 -2.25 2.45 -2.9 0.65 -2.85 0.4 -2.7 -0.4 -2.35 -2.0 -2.05 -3.25 -1.9 -4.15 -1.7 -5.15 M7.6 -10.95 L6.95 -10.05 6.0 -13.5 7.45 -13.6 8.0 -13.6 8.85 -13.75 8.6 -12.1 8.25 -11.75 7.9 -11.4 7.6 -10.95 M5.55 -9.2 L5.75 -10.6 6.75 -9.4 6.55 -8.4 6.55 -8.05 5.45 -8.2 5.55 -9.2 M10.3 -12.2 L9.85 -12.35 10.05 -13.8 10.75 -13.75 11.9 -13.7 13.0 -13.8 13.8 -13.8 12.25 -10.65 11.9 -11.35 11.8 -11.45 11.3 -11.9 10.3 -12.2 M11.95 -4.85 L12.05 -5.75 13.4 -5.4 13.25 -4.6 13.05 -3.5 12.9 -2.55 12.7 -1.4 12.6 0.3 12.55 1.05 12.3 2.35 12.15 3.8 11.9 5.15 10.45 4.45 10.6 3.65 10.9 1.8 11.1 0.4 11.2 -0.25 11.4 -1.4 11.6 -2.75 11.8 -3.9 11.95 -4.85 M12.5 -9.5 L14.25 -10.9 13.8 -8.05 12.6 -8.3 12.5 -9.5 M9.6 6.05 L9.85 5.65 10.35 6.3 10.1 6.75 9.55 7.6 9.5 7.7 9.0 8.5 8.25 9.5 7.8 8.55 8.5 7.6 9.15 6.7 9.2 6.55 9.6 6.05 M-2.3 6.2 L-2.6 5.2 -2.85 4.35 -2.9 4.0 -1.85 4.55 -1.8 4.65 -1.4 5.9 -0.9 7.3 -0.3 8.55 0.0 9.15 0.15 9.25 0.6 9.85 1.5 11.1 1.85 11.6 2.25 11.95 2.7 12.3 2.55 13.85 1.85 13.05 1.05 12.05 0.9 11.95 0.25 11.1 -0.5 10.05 -0.55 10.0 -1.05 9.35 -1.3 8.75 -1.7 7.95 -2.3 6.2 M5.4 10.9 L5.95 10.4 6.65 9.75 7.35 9.05 7.8 10.1 7.4 10.5 7.2 10.75 6.25 11.7 6.15 11.75 4.3 11.7 5.4 10.9" fill="#b1dbdb" fill-rule="evenodd" stroke="none"/>
      <path d="M1.6 -12.2 L2.0 -12.2 2.2 -12.2 Q3.05 -11.95 3.7 -11.15 4.5 -10.15 4.3 -8.55 L4.0 -7.5 5.0 -7.3 5.1 -7.3 5.55 -7.3 5.65 -7.95 4.65 -8.05 4.75 -8.55 Q5.0 -10.25 4.35 -11.65 3.95 -12.55 3.25 -12.95 L2.85 -13.05 1.6 -12.2 M4.95 5.75 L3.95 5.65 Q0.8 4.85 -0.25 3.9 L-1.65 1.8 -1.9 3.6 -1.7 4.55 -1.3 5.85 -0.75 7.2 -0.2 8.4 0.15 8.9 0.6 9.6 0.95 10.05 1.65 10.95 2.4 11.7 2.85 12.1 2.9 12.1 3.0 11.6 3.0 11.55 4.9 5.8 4.95 5.75 M-0.1 -11.25 L-0.15 -11.25 -0.15 -11.2 -0.1 -11.25" fill="#425754" fill-rule="evenodd" stroke="none"/>
      <path d="M2.45 -13.35 L2.85 -13.25 3.05 -13.25 3.3 -14.8 2.8 -14.9 2.45 -13.35 M-1.45 -11.05 L-1.55 -10.15 -0.8 -9.9 -0.6 -10.5 -1.45 -11.05 M8.25 -11.75 L8.6 -12.1 8.85 -13.75 8.0 -13.6 8.25 -11.75 M5.55 -9.2 L5.45 -8.2 6.55 -8.05 6.55 -8.4 5.55 -9.2 M10.75 -13.75 L10.05 -13.8 9.85 -12.35 10.3 -12.2 10.75 -13.75 M13.25 -4.6 L13.4 -5.4 12.05 -5.75 11.95 -4.85 13.25 -4.6 M11.8 -3.9 L11.6 -2.75 12.9 -2.55 13.05 -3.5 11.8 -3.9 M11.2 -0.25 L11.1 0.4 12.55 1.05 12.6 0.3 11.2 -0.25 M10.6 3.65 L10.45 4.45 11.9 5.15 12.15 3.8 10.6 3.65 M12.5 -9.5 L12.6 -8.3 13.8 -8.05 14.25 -10.9 12.5 -9.5 M10.1 6.75 L10.35 6.3 9.85 5.65 9.6 6.05 10.05 6.75 10.1 6.75 M8.5 7.6 L7.8 8.55 8.25 9.5 9.0 8.5 8.5 7.6 M6.25 11.7 L5.4 10.9 4.3 11.7 6.15 11.75 6.25 11.7" fill="#beebeb" fill-rule="evenodd" stroke="none"/>
      <path d="M0.7 -15.55 L-0.6 -16.0 -0.7 -15.1 0.2 -12.15 0.45 -12.45 0.9 -12.9 0.7 -15.55 M1.75 -13.3 L2.45 -13.35 2.8 -14.9 1.55 -15.3 1.75 -13.3 M-0.6 -10.5 L-0.2 -11.35 -1.15 -12.55 -1.45 -11.05 -0.6 -10.5 M7.6 -10.95 L7.9 -11.4 8.25 -11.75 8.0 -13.6 7.45 -13.6 7.6 -10.95 M6.55 -8.4 L6.75 -9.4 5.75 -10.6 5.55 -9.2 6.55 -8.4 M10.75 -13.75 L10.3 -12.2 11.3 -11.9 11.9 -13.7 10.75 -13.75 M11.8 -11.45 L11.9 -11.35 12.25 -10.65 13.8 -13.8 13.0 -13.8 11.8 -11.45 M13.25 -4.6 L11.95 -4.85 11.8 -3.9 13.05 -3.5 13.25 -4.6 M11.4 -1.4 L11.2 -0.25 12.6 0.3 12.7 -1.4 11.4 -1.4 M11.1 0.4 L10.9 1.8 12.3 2.35 12.55 1.05 11.1 0.4 M9.2 6.55 L9.15 6.7 8.5 7.6 9.0 8.5 9.5 7.7 9.2 6.55 M6.65 9.75 L7.2 10.75 7.4 10.5 7.8 10.1 7.35 9.05 6.65 9.75" fill="#cfffff" fill-rule="evenodd" stroke="none"/>
      <path d="M1.55 -15.3 L0.7 -15.55 0.9 -12.9 1.35 -13.2 1.7 -13.3 1.75 -13.3 1.55 -15.3 M7.45 -13.6 L6.0 -13.5 6.95 -10.05 7.6 -10.95 7.45 -13.6 M11.3 -11.9 L11.8 -11.45 13.0 -13.8 11.9 -13.7 11.3 -11.9 M11.6 -2.75 L11.4 -1.4 12.7 -1.4 12.9 -2.55 11.6 -2.75 M10.9 1.8 L10.6 3.65 12.15 3.8 12.3 2.35 10.9 1.8 M10.1 6.75 L10.05 6.75 9.6 6.05 9.2 6.55 9.5 7.7 9.55 7.6 10.1 6.75 M5.4 10.9 L6.25 11.7 7.2 10.75 6.65 9.75 5.95 10.4 5.4 10.9" fill="#edffff" fill-rule="evenodd" stroke="none"/>
      <path d="M-1.7 -5.15 L-1.4 -5.0 -1.25 -6.05 -1.6 -5.55 -1.7 -5.15 M-2.7 -0.4 L-1.95 -0.1 -1.75 -1.8 -2.35 -2.0 -2.7 -0.4 M-2.1 1.05 L-2.85 0.4 -2.9 0.65 -2.25 2.45 -2.1 1.05 M-2.6 5.2 L-1.8 4.65 -1.85 4.55 -2.9 4.0 -2.85 4.35 -2.6 5.2 M-0.3 8.55 L-1.05 9.35 -0.55 10.0 -0.5 10.05 0.0 9.15 -0.3 8.55 M0.25 11.1 L0.9 11.95 1.05 12.05 1.5 11.1 0.6 9.85 0.25 11.1 M1.85 13.05 L2.55 13.85 2.7 12.3 2.25 11.95 1.85 13.05" fill="#a3c9c9" fill-rule="evenodd" stroke="none"/>
      <path d="M12.35 5.35 L12.3 5.4 Q11.4 7.35 9.95 9.15 8.45 11.0 4.05 14.0 L2.55 14.3 4.05 14.8 5.5 14.5 Q9.9 11.5 11.4 9.65 12.9 7.8 13.85 5.75 L12.35 5.35 M-1.65 1.8 L0.0 -9.6 0.25 -10.55 0.95 -11.65 1.6 -12.2 0.95 -12.1 -0.1 -11.25 -0.15 -11.2 -0.45 -10.35 -0.55 -9.9 -0.65 -9.35 -0.7 -8.9 -1.25 -5.0 -1.4 -3.95 -1.4 -3.9 -1.55 -3.1 -1.65 -1.75 -1.85 0.0 -1.95 1.15 -2.0 1.2 -2.15 2.6 -1.9 3.6 -1.65 1.8 M10.25 -12.05 L10.15 -12.1 9.3 -12.1 Q8.6 -11.9 7.95 -11.15 7.4 -10.5 7.1 -9.65 6.85 -9.05 6.75 -8.3 L6.7 -7.8 7.1 -7.65 7.55 -7.5 7.75 -8.2 Q7.85 -8.95 8.1 -9.55 L8.8 -10.85 8.95 -11.05 10.25 -12.0 10.25 -12.05 M-1.4 -5.0 L-1.7 -5.15 -1.9 -4.15 -1.5 -4.0 -1.4 -5.0 M-2.7 -0.4 L-2.85 0.4 -2.1 1.05 -1.95 -0.1 -2.7 -0.4 M-1.4 5.9 L-2.3 6.2 -1.7 7.95 -0.9 7.3 -1.4 5.9 M1.05 12.05 L1.85 13.05 2.25 11.95 1.85 11.6 1.5 11.1 1.05 12.05" fill="#91b3b3" fill-rule="evenodd" stroke="none"/>
      <path d="M-1.65 -3.1 L-2.05 -3.25 -2.35 -2.0 -1.75 -1.8 -1.65 -3.1 M-0.9 7.3 L-1.7 7.95 -1.3 8.75 -1.05 9.35 -0.3 8.55 -0.9 7.3" fill="#8cadad" fill-rule="evenodd" stroke="none"/>
      <path d="M-1.5 -4.0 L-1.9 -4.15 -2.05 -3.25 -1.65 -3.1 -1.5 -4.0 M-2.3 6.2 L-1.4 5.9 -1.8 4.65 -2.6 5.2 -2.3 6.2 M-0.5 10.05 L0.25 11.1 0.6 9.85 0.15 9.25 0.0 9.15 -0.5 10.05" fill="#c2f0f0" fill-rule="evenodd" stroke="none"/>
      <path d="M1.6 -12.2 L2.85 -13.05 2.55 -13.15 2.45 -13.2 1.75 -13.05 0.9 -12.5 0.55 -12.15 0.3 -11.9 -0.15 -11.25 -0.1 -11.25 0.95 -12.1 1.6 -12.2" fill="#799696" fill-rule="evenodd" stroke="none"/>
      <path d="M2.55 14.3 L1.65 13.55 0.75 12.55 0.05 11.7 -0.75 10.45 -0.95 10.0 -1.2 9.5 -1.9 8.1 -2.55 6.3 -2.8 5.35 -2.9 5.1 -3.3 3.1 -3.05 0.25 -2.95 -0.55 -2.8 -2.15 -2.6 -3.5 -2.5 -4.4 -2.4 -5.4 -1.55 -11.15 -1.3 -12.8 -1.2 -13.3 -0.85 -15.4 -0.7 -16.25 6.55 -14.05 15.0 -14.3 13.65 -4.3 12.4 5.25 12.35 5.35 M12.3 5.4 Q11.4 7.35 9.95 9.15 8.45 11.0 4.05 14.0 L2.55 14.3 4.05 14.8 5.5 14.5 Q9.9 11.5 11.4 9.65 12.9 7.8 13.85 5.75 L15.1 -3.8 16.35 -13.2 15.0 -14.3 M1.6 -12.2 L2.85 -13.05 3.25 -12.95 Q3.95 -12.55 4.35 -11.65 5.0 -10.25 4.75 -8.55 L4.65 -8.05 5.65 -7.95 5.55 -7.3 5.35 -6.55 M-1.65 1.8 L0.0 -9.6 0.25 -10.55 0.95 -11.65 1.6 -12.2 M-0.15 -11.25 L0.3 -11.9 0.55 -12.15 0.9 -12.5 1.75 -13.05 2.45 -13.2 2.55 -13.15 2.85 -13.05 M-0.15 -11.25 L-0.15 -11.2 -0.45 -10.35 -0.55 -9.9 -0.65 -9.35 -0.7 -8.9 -1.25 -5.0 -1.4 -3.95 M-1.4 -3.9 L-1.55 -3.1 -1.65 -1.75 -1.85 0.0 -1.95 1.15 -2.0 1.2 -2.15 2.6 -1.9 3.6 -1.7 4.55 -1.3 5.85 -0.75 7.2 -0.2 8.4 0.15 8.9 0.6 9.6 0.95 10.05 1.65 10.95 2.4 11.7 2.85 12.1 2.9 12.1 Q4.1 11.55 5.2 10.7 L5.6 10.4 6.55 9.55 7.3 8.8 7.75 8.25 8.35 7.45 9.15 6.3 9.45 5.85 9.85 5.05 10.25 4.35 10.4 3.6 10.75 1.7 11.0 0.35 11.1 -0.35 11.25 -1.45 11.5 -2.8 11.65 -3.95 11.8 -4.9 12.1 -7.1 12.15 -7.55 12.2 -7.85 12.2 -8.1 12.1 -9.4 11.75 -10.6 11.15 -11.55 10.3 -12.0 10.25 -12.05 10.15 -12.1 9.3 -12.1 Q8.6 -11.9 7.95 -11.15 7.4 -10.5 7.1 -9.65 6.85 -9.05 6.75 -8.3 L6.7 -7.8 5.65 -7.95 M10.25 -12.0 L10.3 -12.0 M10.25 -12.0 L8.95 -11.05 8.8 -10.85 8.1 -9.55 Q7.85 -8.95 7.75 -8.2 L7.55 -7.5 7.1 -7.65 6.7 -7.8 M5.35 -6.45 L5.35 -6.55 M-1.9 3.6 L-1.65 1.8 M3.0 11.55 L3.0 11.6 2.9 12.1" fill="none" stroke="#000000" stroke-linecap="round" stroke-linejoin="round" stroke-opacity="0.3019608" stroke-width="0.05"/>
      <path d="M8.75 -11.15 L8.45 -11.55 8.05 -11.2 8.2 -10.7 8.65 -10.8 8.75 -11.15 M9.15 -9.15 L9.4 -9.65 9.0 -9.65 9.0 -9.2 9.15 -9.15 M8.25 -10.45 L8.05 -9.8 8.4 -9.8 8.75 -9.95 8.65 -10.55 8.25 -10.45 M8.95 -9.8 L9.45 -9.9 9.8 -10.75 9.45 -11.45 8.85 -10.7 8.95 -9.8 M10.2 -10.8 L10.4 -11.15 10.4 -11.6 9.75 -11.35 9.95 -10.75 10.2 -10.8 M10.5 -11.0 L10.35 -10.8 10.65 -10.3 10.95 -10.8 10.75 -11.15 10.5 -11.0 M11.3 -10.8 L11.05 -10.45 11.5 -10.3 11.7 -10.8 11.3 -10.8 M11.65 -9.95 L11.35 -10.15 11.15 -9.65 11.4 -9.5 11.65 -9.95 M10.3 -9.1 L10.2 -9.7 9.65 -9.8 9.3 -9.0 9.9 -8.8 10.3 -9.1 M10.45 -10.35 L10.35 -9.6 10.7 -9.95 10.45 -10.35 M10.25 -9.85 L10.3 -10.55 9.75 -10.55 9.55 -9.95 10.25 -9.85 M10.05 -8.25 L10.05 -7.6 10.55 -7.95 10.4 -8.6 10.05 -8.25 M3.5 -8.1 L4.25 -8.15 4.6 -9.45 3.95 -10.35 3.25 -9.45 3.5 -8.1 M4.8 -6.05 L3.5 -7.2 2.2 -6.05 2.6 -4.5 3.95 -4.1 4.8 -6.05 M9.35 -7.75 L9.75 -8.5 9.25 -8.85 9.05 -8.0 9.35 -7.75 M10.45 1.2 L9.45 1.1 9.45 2.5 10.35 2.9 10.45 1.2 M3.75 -3.9 L2.7 -4.05 2.75 -1.7 3.85 -2.25 3.75 -3.9 M4.2 -2.8 L4.75 -2.4 5.45 -3.0 4.8 -4.95 4.1 -3.6 4.2 -2.8 M5.7 1.25 L4.75 1.75 4.7 0.8 4.0 0.35 4.0 2.2 4.3 2.25 4.55 4.25 5.95 4.65 6.4 3.0 5.7 1.25 M5.3 -1.2 L4.8 1.1 5.9 0.75 6.2 0.0 6.0 -0.95 5.3 -1.2 M4.95 -1.15 L4.65 -1.95 4.2 -2.25 3.65 -0.7 4.5 -0.3 4.95 -1.15 M3.65 1.65 L2.95 1.3 2.85 2.55 3.55 3.0 3.65 1.65 M3.6 -1.6 L2.45 -1.1 3.2 -0.2 3.6 -1.6 M8.6 -3.85 L8.15 -4.75 7.55 -3.5 7.75 -2.4 8.6 -3.85 M6.5 -2.1 L6.3 -1.15 6.4 -0.45 7.45 -1.1 7.15 -2.35 6.5 -2.1 M8.85 -2.0 L9.5 -2.85 9.25 -3.95 8.55 -3.05 8.85 -2.0 M8.6 1.05 L7.7 0.85 6.8 2.45 7.4 4.25 8.55 2.5 8.6 1.05 M8.0 -1.05 L7.1 -0.4 8.0 0.4 8.0 -1.05 M7.55 0.6 L6.65 -0.1 5.95 1.4 6.55 2.6 7.55 0.6 M6.15 4.8 L6.85 4.9 7.1 4.4 6.7 3.35 6.15 4.8 M4.65 7.6 L5.25 6.45 5.5 5.05 4.5 4.9 4.05 6.3 4.65 7.6 M4.15 4.9 L3.7 4.2 2.85 4.9 2.85 6.35 3.7 6.35 4.15 4.9 M2.25 4.5 L2.4 3.9 2.0 3.55 1.8 4.0 1.95 4.55 2.25 4.5 M1.5 5.2 L1.85 4.75 1.65 4.15 1.15 4.2 1.25 4.75 1.5 5.2 M1.95 4.95 L1.45 5.5 1.65 6.2 2.25 6.25 2.55 5.35 1.95 4.95 M8.5 5.75 L9.15 5.05 8.65 3.05 7.55 4.6 8.5 5.75 M1.6 6.5 L1.0 6.3 1.05 7.35 1.35 7.75 1.65 7.35 1.6 6.5 M1.65 6.35 L1.8 7.35 2.2 7.05 2.15 6.3 1.65 6.35 M2.6 7.15 L2.4 7.0 2.15 7.75 2.55 7.85 2.7 7.45 2.6 7.15 M2.6 6.95 L2.9 6.65 2.55 5.85 2.3 6.45 2.4 6.8 2.6 6.95 M2.75 8.9 L2.65 8.3 2.35 8.15 2.45 8.95 2.75 8.9 M2.0 7.95 L2.15 7.35 1.65 7.6 2.0 7.95 M2.25 9.35 L2.25 8.7 1.9 8.65 1.9 9.15 2.25 9.35 M1.35 5.6 L1.1 5.9 1.1 6.15 1.45 6.2 1.35 5.6 M-0.35 -3.95 L-0.55 -2.85 0.75 -2.1 0.95 -4.2 -0.35 -3.95 M2.0 -7.9 L2.4 -6.7 3.25 -7.75 3.0 -9.1 1.9 -9.25 2.0 -7.9 M2.05 -5.9 L1.4 -5.2 1.4 -4.65 2.2 -4.4 2.05 -5.9 M1.3 -4.2 L1.15 -1.9 1.8 -0.95 2.55 -1.7 2.55 -3.7 1.3 -4.2 M0.4 -0.85 L-0.5 -0.2 0.15 1.05 1.05 -0.05 0.4 -0.85 M0.4 6.55 L0.3 7.05 0.9 7.3 0.9 6.4 0.4 6.55 M0.35 8.2 L0.7 8.65 1.05 8.15 0.7 7.85 0.35 8.2" fill="#c7b189" fill-opacity="0.5019608" fill-rule="evenodd" stroke="none"/>
      <path d="M-2.05 -17.0 L-2.25 -17.65 Q-2.4 -17.9 -2.55 -16.65 L-2.65 -14.6 -2.65 -14.5 -2.5 -12.9 -2.3 -12.8 -0.9 -9.15 0.55 -6.7 2.7 -5.35 2.8 -5.45 1.2 -6.9 1.0 -7.9 2.9 -5.85 2.95 -6.2 2.9 -6.4 2.35 -7.7 0.2 -9.15 0.25 -10.1 0.35 -9.5 2.7 -7.85 2.8 -7.55 2.6 -8.3 2.45 -8.5 -0.9 -11.9 -1.65 -13.85 -1.85 -13.45 -2.05 -17.0" fill="#fedeab" fill-rule="evenodd" stroke="none"/>
      <path d="M2.85 -5.65 L3.05 -6.1 3.1 -6.15 3.1 -6.45 Q3.35 -7.3 3.2 -8.2 3.0 -9.25 2.45 -10.0 L1.35 -11.3 1.05 -11.55 0.7 -11.9 0.1 -12.5 -0.2 -12.85 -0.4 -13.1 -0.5 -13.25 -1.2 -14.4 -1.45 -15.1 -1.6 -15.4 -2.0 -16.65 -2.05 -17.0 -1.85 -13.45 -1.65 -13.85 -0.9 -11.9 2.45 -8.5 2.6 -8.3 2.8 -7.55 2.7 -7.85 0.35 -9.5 0.25 -10.1 0.2 -9.15 2.35 -7.7 2.9 -6.4 2.95 -6.2 2.9 -5.85 2.85 -5.65" fill="#ffefd5" fill-rule="evenodd" stroke="none"/>
      <path d="M-2.5 -12.9 Q-2.15 -10.55 -1.45 -8.8 L-1.0 -7.85 -0.2 -6.7 0.25 -6.3 1.75 -5.1 Q2.2 -4.8 2.65 -5.3 L2.7 -5.35 0.55 -6.7 -0.9 -9.15 -2.3 -12.8 -2.5 -12.9 M2.8 -5.45 L2.85 -5.65 2.9 -5.85 1.0 -7.9 1.2 -6.9 2.8 -5.45" fill="#ea9f55" fill-rule="evenodd" stroke="none"/>
      <path d="M2.85 -5.65 L3.05 -6.1 3.1 -6.15 3.1 -6.45 Q3.35 -7.3 3.2 -8.2 3.0 -9.25 2.45 -10.0 L1.35 -11.3 1.05 -11.55 0.7 -11.9 0.1 -12.5 -0.2 -12.85 -0.4 -13.1 -0.5 -13.25 -1.2 -14.4 -1.45 -15.1 -1.6 -15.4 -2.0 -16.65 -2.05 -17.0 -2.25 -17.65 Q-2.4 -17.9 -2.55 -16.65 L-2.65 -14.6 -2.65 -14.5 -2.5 -12.9 Q-2.15 -10.55 -1.45 -8.8 L-1.0 -7.85 -0.2 -6.7 0.25 -6.3 1.75 -5.1 Q2.2 -4.8 2.65 -5.3 L2.7 -5.35 M2.8 -5.45 L2.85 -5.65" fill="none" stroke="#000000" stroke-linecap="round" stroke-linejoin="round" stroke-opacity="0.3019608" stroke-width="0.05"/>
      <path d="M2.7 -5.35 L2.8 -5.45" fill="none" stroke="#9d6302" stroke-linecap="round" stroke-linejoin="round" stroke-width="0.2"/>
      <path d="M0.65 4.65 L0.85 2.75 Q0.75 1.8 0.25 1.55 L-0.2 1.35 Q-0.95 1.55 -1.6 1.85 -3.05 2.65 -3.95 3.85 L-4.2 4.25 -4.75 5.4 -5.1 6.65 Q-5.4 8.15 -5.25 10.05 L-5.2 10.25 -4.75 7.55 -4.35 6.5 -4.05 6.1 -4.35 6.85 -4.25 6.8 -3.55 6.25 -3.4 6.1 -3.15 5.9 Q-2.3 5.35 -1.6 5.15 L-1.75 4.85 0.65 4.65 M-0.6 2.35 Q-0.6 2.6 -0.9 2.85 L-1.65 3.35 -1.9 3.45 -2.35 3.5 -2.7 3.25 -2.45 2.7 -1.7 2.2 -0.95 2.05 -0.6 2.35" fill="#5f829a" fill-rule="evenodd" stroke="none"/>
      <path d="M-0.6 2.35 L-0.95 2.05 -1.7 2.2 -2.45 2.7 -2.7 3.25 -2.35 3.5 -1.9 3.45 -1.65 3.35 -0.9 2.85 Q-0.6 2.6 -0.6 2.35" fill="#82c4cc" fill-rule="evenodd" stroke="none"/>
      <path d="M0.65 4.65 L-1.75 4.85 -1.6 5.15 Q-2.3 5.35 -3.15 5.9 L-3.4 6.1 -3.55 6.25 -4.25 6.8 -4.35 6.85 -4.05 6.1 -4.35 6.5 -4.75 7.55 -5.2 10.25 -5.1 10.1 -4.5 8.15 -4.5 8.05 -3.95 7.4 -3.5 7.0 -2.85 6.6 -2.0 6.4 Q-1.15 6.25 0.0 6.4 L0.3 5.9 0.65 4.65" fill="#425a68" fill-rule="evenodd" stroke="none"/>
      <path d="M-5.2 10.25 L-5.25 10.05 Q-5.4 8.15 -5.1 6.65 L-4.75 5.4 -4.2 4.25 -3.95 3.85 Q-3.05 2.65 -1.6 1.85 -0.95 1.55 -0.2 1.35 L0.25 1.55 Q0.75 1.8 0.85 2.75 L0.65 4.65 M-5.2 10.25 L-5.1 10.1 -4.5 8.15 -4.5 8.05 -3.95 7.4 -3.5 7.0 -2.85 6.6 -2.0 6.4 Q-1.15 6.25 0.0 6.4 L0.3 5.9 0.65 4.65" fill="none" stroke="#000000" stroke-linecap="round" stroke-linejoin="round" stroke-opacity="0.3019608" stroke-width="0.05"/>
      <path d="M4.6 -6.3 L4.65 -7.0 Q3.25 -0.35 1.35 1.95 L1.4 2.05 2.75 2.5 4.6 -6.3" fill="#f9ddb5" fill-rule="evenodd" stroke="none"/>
      <path d="M5.55 2.45 L5.65 2.35 Q4.3 -1.1 4.6 -6.3 L2.75 2.5 5.55 2.45" fill="#f3c47c" fill-rule="evenodd" stroke="none"/>
      <path d="M1.4 2.05 L2.05 4.35 2.3 10.7 2.65 5.4 2.75 5.1 2.7 4.3 2.75 2.5 1.4 2.05" fill="#eea840" fill-rule="evenodd" stroke="none"/>
      <path d="M2.3 10.7 L2.3 10.9 4.3 4.95 5.55 2.45 2.75 2.5 2.7 4.3 2.75 5.1 2.65 5.4 2.3 10.7" fill="#c17b11" fill-rule="evenodd" stroke="none"/>
      <path d="M4.65 -7.0 Q3.25 -0.35 1.35 1.95 L1.4 2.05 2.05 4.35 2.3 10.7 2.3 10.9 4.3 4.95 5.55 2.45 M5.65 2.35 Q4.3 -1.1 4.6 -6.3" fill="none" stroke="#000000" stroke-linecap="round" stroke-linejoin="round" stroke-opacity="0.3019608" stroke-width="0.05"/>
      <path d="M7.45 6.45 L7.35 4.45 Q7.0 3.45 6.35 3.1 6.05 2.9 5.75 2.85 L4.15 3.3 Q2.55 4.0 1.7 5.25 L1.45 5.65 1.05 6.8 0.85 8.15 Q0.85 9.75 1.4 11.75 L1.5 12.0 1.45 9.15 1.75 8.05 2.05 7.7 1.85 8.4 1.95 8.35 2.65 7.8 2.85 7.7 3.1 7.5 Q4.05 7.0 4.95 6.85 L4.65 6.45 7.45 6.45 M5.5 3.9 L5.25 4.45 4.45 4.9 4.1 4.95 3.55 5.0 Q3.15 4.95 3.1 4.65 3.05 4.4 3.35 4.15 L4.1 3.7 4.15 3.7 4.95 3.55 Q5.4 3.65 5.5 3.9" fill="#5f829a" fill-rule="evenodd" stroke="none"/>
      <path d="M5.5 3.9 Q5.4 3.65 4.95 3.55 L4.15 3.7 4.1 3.7 3.35 4.15 Q3.05 4.4 3.1 4.65 3.15 4.95 3.55 5.0 L4.1 4.95 4.45 4.9 5.25 4.45 5.5 3.9" fill="#82c4cc" fill-rule="evenodd" stroke="none"/>
      <path d="M7.45 6.45 L4.65 6.45 4.95 6.85 Q4.05 7.0 3.1 7.5 L2.85 7.7 2.65 7.8 1.95 8.35 1.85 8.4 2.05 7.7 1.75 8.05 1.45 9.15 1.5 12.0 1.55 12.0 1.6 11.8 Q1.7 10.45 1.95 9.8 L2.0 9.7 2.4 9.1 2.9 8.65 3.65 8.3 4.65 8.1 7.15 8.3 7.35 7.75 7.45 6.45" fill="#425a68" fill-rule="evenodd" stroke="none"/>
      <path d="M1.5 12.0 L1.4 11.75 Q0.85 9.75 0.85 8.15 L1.05 6.8 1.45 5.65 1.7 5.25 Q2.55 4.0 4.15 3.3 L5.75 2.85 Q6.05 2.9 6.35 3.1 7.0 3.45 7.35 4.45 L7.45 6.45 M1.5 12.0 L1.55 12.0 1.6 11.8 Q1.7 10.45 1.95 9.8 L2.0 9.7 2.4 9.1 2.9 8.65 3.65 8.3 4.65 8.1 7.15 8.3 7.35 7.75 7.45 6.45" fill="none" stroke="#000000" stroke-linecap="round" stroke-linejoin="round" stroke-opacity="0.3019608" stroke-width="0.05"/>
      <path d="M4.95 -16.4 L4.75 -17.05 Q4.6 -17.35 4.25 -16.15 L4.05 -14.0 4.05 -13.95 4.1 -12.3 4.35 -12.15 5.75 -8.35 7.4 -5.7 9.8 -4.15 9.85 -4.2 9.95 -4.25 8.15 -5.9 8.0 -6.9 10.2 -4.65 10.25 -5.05 10.25 -5.25 9.65 -6.55 7.1 -8.25 7.2 -9.2 7.35 -8.6 10.05 -6.7 10.2 -6.4 9.95 -7.2 9.85 -7.4 6.0 -11.1 5.25 -13.2 4.95 -12.85 4.95 -16.4" fill="#fedeab" fill-rule="evenodd" stroke="none"/>
      <path d="M10.1 -4.45 L10.4 -4.85 10.4 -4.95 10.5 -5.25 Q10.8 -6.1 10.65 -7.05 10.5 -8.05 9.85 -8.9 L8.7 -10.3 8.35 -10.65 7.9 -11.0 7.25 -11.65 6.9 -12.05 6.65 -12.3 6.55 -12.55 5.85 -13.7 5.5 -14.4 5.35 -14.75 4.95 -16.1 4.95 -16.4 4.95 -12.85 5.25 -13.2 6.0 -11.1 9.85 -7.4 9.95 -7.2 10.2 -6.4 10.05 -6.7 7.35 -8.6 7.2 -9.2 7.1 -8.25 9.65 -6.55 10.25 -5.25 10.25 -5.05 10.2 -4.65 10.1 -4.45" fill="#ffefd5" fill-rule="evenodd" stroke="none"/>
      <path d="M4.1 -12.3 Q4.3 -9.85 5.1 -8.05 L5.6 -7.1 6.5 -5.85 6.95 -5.3 8.7 -4.0 9.75 -4.1 9.8 -4.15 7.4 -5.7 5.75 -8.35 4.35 -12.15 4.1 -12.3 M9.95 -4.25 L10.1 -4.45 10.2 -4.65 8.0 -6.9 8.15 -5.9 9.95 -4.25" fill="#ea9f55" fill-rule="evenodd" stroke="none"/>
      <path d="M10.1 -4.45 L10.4 -4.85 10.4 -4.95 10.5 -5.25 Q10.8 -6.1 10.65 -7.05 10.5 -8.05 9.85 -8.9 L8.7 -10.3 8.35 -10.65 7.9 -11.0 7.25 -11.65 6.9 -12.05 6.65 -12.3 6.55 -12.55 5.85 -13.7 5.5 -14.4 5.35 -14.75 4.95 -16.1 4.95 -16.4 4.75 -17.05 Q4.6 -17.35 4.25 -16.15 L4.05 -14.0 4.05 -13.95 4.1 -12.3 Q4.3 -9.85 5.1 -8.05 L5.6 -7.1 6.5 -5.85 6.95 -5.3 8.7 -4.0 9.75 -4.1 9.8 -4.15 M9.95 -4.25 L10.1 -4.45" fill="none" stroke="#000000" stroke-linecap="round" stroke-linejoin="round" stroke-opacity="0.3019608" stroke-width="0.05"/>
      <path d="M9.85 -4.2 L9.95 -4.25" fill="none" stroke="#9d6302" stroke-linecap="round" stroke-linejoin="round" stroke-width="0.2"/>
    </g>
  </defs>
</svg>
