<?xml version="1.0" encoding="UTF-8" standalone="no"?>
<svg xmlns:xlink="http://www.w3.org/1999/xlink" height="440.0px" width="440.0px" xmlns="http://www.w3.org/2000/svg">
  <g transform="matrix(10.0, 0.0, 0.0, 10.0, 0.0, 0.0)">
    <use height="44.0" transform="matrix(1.0, 0.0, 0.0, 1.0, 0.0, 0.0)" width="44.0" xlink:href="#shape0"/>
    <use height="23.5" transform="matrix(0.5526, 0.4063, -0.7626, 1.0373, 29.0, 7.25)" width="23.5" xlink:href="#sprite0"/>
  </g>
  <defs>
    <g id="shape0" transform="matrix(1.0, 0.0, 0.0, 1.0, 0.0, 0.0)">
      <path d="M44.0 44.0 L0.0 44.0 0.0 0.0 44.0 0.0 44.0 44.0" fill="#43adca" fill-opacity="0.0" fill-rule="evenodd" stroke="none"/>
      <path d="M37.15 6.8 Q38.4 8.25 39.0 10.1 L39.05 10.5 Q40.25 13.0 40.25 16.5 40.35 23.65 35.65 30.45 32.65 35.0 28.8 37.7 L27.95 37.45 27.9 37.75 27.6 38.4 27.2 38.6 Q25.6 39.55 24.35 40.0 18.7 42.2 14.35 40.3 13.0 39.85 11.75 39.0 6.9 35.7 6.9 28.35 6.8 23.05 9.3 17.9 L11.0 14.9 11.5 14.1 11.65 13.95 12.65 12.55 Q16.45 7.35 21.4 4.95 22.25 4.45 23.25 4.15 L24.55 3.7 Q27.1 2.85 29.35 2.95 L32.25 3.45 32.3 4.6 34.6 4.5 34.8 4.7 34.95 4.7 Q36.25 5.6 37.15 6.8 Z" fill="none" stroke="#000000" stroke-linecap="round" stroke-linejoin="round" stroke-opacity="0.2" stroke-width="1.0"/>
      <path d="M39.05 10.6 Q40.25 13.1 40.25 16.6 40.35 23.75 35.65 30.55 32.65 35.1 28.8 37.8 L27.95 37.55 27.75 37.5 Q30.25 35.75 32.55 33.2 L33.6 31.95 35.1 29.85 Q39.95 22.8 39.85 15.5 L39.65 12.85 39.05 10.6 M27.9 37.85 L27.6 38.5 27.2 38.7 Q25.6 39.65 24.35 40.1 18.7 42.3 14.35 40.4 18.35 41.65 23.45 39.7 L26.2 38.45 26.35 37.6 27.9 37.85 M32.25 3.55 L32.3 4.7 29.85 4.8 29.75 4.8 32.25 3.55 M27.6 38.5 L26.2 38.45 27.6 38.5" fill="#8e5602" fill-rule="evenodd" stroke="none"/>
      <path d="M39.65 12.85 L39.85 15.5 Q39.95 22.8 35.1 29.85 L33.6 31.95 Q33.1 32.2 31.55 30.95 L33.15 28.85 Q37.5 22.55 37.4 15.85 L37.35 14.95 37.05 12.45 Q38.95 11.85 39.65 12.85" fill="#fda92d" fill-rule="evenodd" stroke="none"/>
      <path d="M37.15 6.9 Q38.4 8.35 39.0 10.2 L38.9 10.2 Q38.05 9.9 36.5 10.7 35.6 8.35 33.75 6.85 34.7 6.3 35.55 6.35 36.4 6.25 37.15 6.9" fill="#fece89" fill-rule="evenodd" stroke="none"/>
      <path d="M21.4 5.05 Q22.25 4.55 23.25 4.25 L24.55 3.8 Q27.1 2.95 29.35 3.05 L32.25 3.55 29.75 4.8 Q26.35 3.8 22.0 5.45 L21.3 5.8 Q21.1 5.25 21.4 5.05 M32.3 4.7 L34.6 4.6 34.8 4.8 34.95 4.8 Q36.25 5.7 37.15 6.9 36.4 6.25 35.55 6.35 34.7 6.3 33.75 6.85 L33.05 6.25 32.9 6.25 32.4 5.95 Q31.75 5.5 31.05 5.2 L29.85 4.8 32.3 4.7" fill="#ffa004" fill-rule="evenodd" stroke="none"/>
      <path d="M33.6 31.95 L32.55 33.2 Q30.25 35.75 27.75 37.5 L26.85 35.4 Q29.4 33.6 31.55 30.95 33.1 32.2 33.6 31.95 M14.35 40.4 Q13.0 39.95 11.75 39.1 6.9 35.8 6.9 28.45 6.8 23.15 9.3 18.0 7.2 22.6 7.3 27.3 7.5 33.9 11.95 36.95 16.45 40.0 22.6 37.6 24.8 36.8 26.8 35.4 L26.35 37.6 26.2 38.45 23.45 39.7 Q18.35 41.65 14.35 40.4 M12.65 12.65 Q16.45 7.45 21.4 5.05 21.1 5.25 21.3 5.8 16.35 7.8 12.65 12.65" fill="#c17402" fill-rule="evenodd" stroke="none"/>
      <path d="M37.35 14.95 Q36.95 9.1 32.9 6.25 L32.75 6.15 Q32.55 6.0 32.4 5.95 L32.9 6.25 33.05 6.25 33.75 6.85 Q35.6 8.35 36.5 10.7 L37.05 12.45 37.35 14.95" fill="#b16a01" fill-rule="evenodd" stroke="none"/>
      <path d="M39.05 10.6 L39.65 12.85 Q38.95 11.85 37.05 12.45 L36.5 10.7 Q38.05 9.9 38.9 10.2 L39.0 10.2 39.05 10.6" fill="#ffe7c4" fill-rule="evenodd" stroke="none"/>
      <path d="M9.3 18.0 L11.0 15.0 11.5 14.2 11.65 14.05 12.65 12.65 Q16.35 7.8 21.3 5.8 L22.0 5.45 Q26.35 3.8 29.75 4.8 L29.85 4.8 31.05 5.2 Q31.75 5.5 32.4 5.95 32.55 6.0 32.75 6.15 L32.9 6.25 Q36.95 9.1 37.35 14.95 L37.4 15.85 Q37.5 22.55 33.15 28.85 L31.55 30.95 Q29.4 33.6 26.85 35.4 L26.8 35.4 Q24.8 36.8 22.6 37.6 16.45 40.0 11.95 36.95 7.5 33.9 7.3 27.3 7.2 22.6 9.3 18.0 M11.5 15.1 Q7.3 20.8 7.75 27.3 8.25 33.8 12.45 36.65 16.55 39.4 22.2 37.2 27.9 35.1 31.9 29.15 34.45 25.45 32.85 16.35 31.65 26.15 27.2 29.4 22.85 32.55 19.3 21.1 15.75 9.55 11.5 15.1" fill="#39322d" fill-rule="evenodd" stroke="none"/>
      <path d="M11.5 15.1 Q15.75 9.55 19.3 21.1 22.85 32.55 27.2 29.4 31.65 26.15 32.85 16.35 34.45 25.45 31.9 29.15 27.9 35.1 22.2 37.2 16.55 39.4 12.45 36.65 8.25 33.8 7.75 27.3 7.3 20.8 11.5 15.1" fill="#211d1b" fill-rule="evenodd" stroke="none"/>
      <path d="M27.75 37.5 L27.95 37.55 27.9 37.85 26.35 37.6 26.8 35.4 26.85 35.4 27.75 37.5" fill="#5c3701" fill-rule="evenodd" stroke="none"/>
      <path d="M39.05 10.6 L39.65 12.85 39.85 15.5 Q39.95 22.8 35.1 29.85 L33.6 31.95 32.55 33.2 Q30.25 35.75 27.75 37.5 L27.95 37.55 27.9 37.85 27.6 38.5 27.2 38.7 M14.35 40.4 Q13.0 39.95 11.75 39.1 6.9 35.8 6.9 28.45 6.8 23.15 9.3 18.0 L11.0 15.0 11.5 14.2 11.65 14.05 12.65 12.65 Q16.45 7.45 21.4 5.05 22.25 4.55 23.25 4.25 L24.55 3.8 Q27.1 2.95 29.35 3.05 L32.25 3.55 32.3 4.7 34.6 4.6 34.8 4.8 34.95 4.8 Q36.25 5.7 37.15 6.9 38.4 8.35 39.0 10.2 L39.05 10.6 M31.55 30.95 L33.15 28.85 Q37.5 22.55 37.4 15.85 L37.35 14.95 Q36.95 9.1 32.9 6.25 L32.75 6.15 Q32.55 6.0 32.4 5.95 31.75 5.5 31.05 5.2 L29.85 4.8 29.75 4.8 Q26.35 3.8 22.0 5.45 L21.3 5.8 Q16.35 7.8 12.65 12.65 M33.75 6.85 Q35.6 8.35 36.5 10.7 L37.05 12.45 37.35 14.95 M32.4 5.95 L32.9 6.25 33.05 6.25 33.75 6.85 M29.85 4.8 L32.3 4.7 M32.25 3.55 L29.75 4.8 M9.3 18.0 Q7.2 22.6 7.3 27.3 7.5 33.9 11.95 36.95 16.45 40.0 22.6 37.6 24.8 36.8 26.8 35.4 L26.85 35.4 Q29.4 33.6 31.55 30.95 M27.75 37.5 L26.85 35.4 M26.35 37.6 L26.2 38.45 27.6 38.5 M26.35 37.6 L26.8 35.4 M26.2 38.45 L23.45 39.7 Q18.35 41.65 14.35 40.4" fill="none" stroke="#000000" stroke-linecap="round" stroke-linejoin="round" stroke-opacity="0.3019608" stroke-width="0.05"/>
      <path d="M32.55 6.5 Q29.5 3.65 20.75 6.5 12.9 10.2 9.25 19.0 6.25 29.05 12.75 21.7 15.45 18.25 16.0 14.05 37.45 -0.45 34.55 24.65 35.65 22.7 36.3 20.0 37.0 17.25 37.0 14.8 37.25 11.6 33.7 7.45 L32.55 6.5" fill="#47413b" fill-rule="evenodd" stroke="none"/>
      <path d="M31.4 9.95 L31.4 10.35 Q28.25 12.25 25.35 14.9 L24.8 15.4 24.75 14.8 24.8 15.4 24.6 15.65 24.5 15.7 24.25 15.9 23.8 16.4 Q17.35 22.8 11.85 32.95 L11.15 32.95 11.1 32.95 10.95 32.85 11.15 32.95 Q16.9 22.5 23.55 16.1 L23.65 15.9 22.3 13.9 23.4 14.25 24.75 14.8 25.1 14.6 Q28.2 11.85 31.4 9.95 M24.6 15.65 L24.2 15.1 22.3 13.9 24.2 15.1 24.6 15.65 M24.25 15.9 L23.65 15.9 24.25 15.9" fill="#8e5602" fill-rule="evenodd" stroke="none"/>
      <path d="M31.4 9.95 Q28.2 11.85 25.1 14.6 L24.75 14.8 23.4 14.25 23.05 13.0 22.85 11.65 22.8 10.95 Q25.55 8.5 29.0 6.6 32.0 7.25 31.5 9.9 L31.4 9.95" fill="#fda92d" fill-rule="evenodd" stroke="none"/>
      <path d="M10.95 32.85 Q9.1 31.3 9.0 28.5 13.85 18.95 22.8 10.95 L22.85 11.65 23.05 13.0 23.4 14.25 22.3 13.9 23.65 15.9 23.55 16.1 Q16.9 22.5 11.15 32.95 L10.95 32.85" fill="#c17402" fill-rule="evenodd" stroke="none"/>
      <path d="M24.8 15.4 L25.35 14.9 Q28.25 12.25 31.4 10.35 L31.4 9.95 Q28.2 11.85 25.1 14.6 L24.75 14.8 24.8 15.4 24.6 15.65 24.5 15.7 24.25 15.9 23.8 16.4 Q17.35 22.8 11.85 32.95 L11.15 32.95 11.1 32.95 10.95 32.85 Q9.1 31.3 9.0 28.5 13.85 18.95 22.8 10.95 25.55 8.5 29.0 6.6 32.0 7.25 31.5 9.9 L31.4 9.95 M22.3 13.9 L24.2 15.1 24.6 15.65 M23.4 14.25 L22.3 13.9 23.65 15.9 24.25 15.9 M23.4 14.25 L24.75 14.8 M10.95 32.85 L11.15 32.95 Q16.9 22.5 23.55 16.1 L23.65 15.9" fill="none" stroke="#000000" stroke-linecap="round" stroke-linejoin="round" stroke-opacity="0.3019608" stroke-width="0.05"/>
      <path d="M13.3 20.3 L13.3 20.4 18.55 20.7 Q19.7 19.55 19.8 18.5 20.0 17.15 19.0 16.3 L18.8 16.2 Q16.6 15.1 14.9 16.4 13.1 19.15 13.3 20.3" fill="#000000" fill-opacity="0.3019608" fill-rule="evenodd" stroke="none"/>
      <path d="M19.2 19.9 Q14.85 18.8 13.95 16.1 17.35 18.2 20.6 17.15 20.65 18.7 19.5 19.75 L19.2 19.9" fill="#f0f7f2" fill-rule="evenodd" stroke="none"/>
      <path d="M20.6 17.15 Q17.35 18.2 13.95 16.1 14.85 18.8 19.2 19.9 16.8 21.35 15.1 19.9 13.5 16.85 13.8 15.5 L13.85 15.4 Q17.7 13.9 19.5 14.7 20.6 16.0 20.6 17.15" fill="#d3d2db" fill-rule="evenodd" stroke="none"/>
      <path d="M20.6 17.15 Q20.6 16.0 19.5 14.7 17.7 13.9 13.85 15.4 L13.8 15.5 Q13.5 16.85 15.1 19.9 16.8 21.35 19.2 19.9 L19.5 19.75 Q20.65 18.7 20.6 17.15 Z" fill="none" stroke="#000000" stroke-linecap="round" stroke-linejoin="round" stroke-opacity="0.3529412" stroke-width="0.05"/>
      <path d="M26.25 23.85 L29.85 18.65 26.25 26.1 20.85 30.3 26.25 23.85" fill="#0e0c0c" fill-rule="evenodd" stroke="none"/>
      <path d="M26.25 23.85 L29.85 18.65 26.25 26.1 20.85 30.3 26.25 23.85 Z" fill="none" stroke="#000000" stroke-linecap="round" stroke-linejoin="round" stroke-opacity="0.3019608" stroke-width="0.05"/>
    </g>
    <g id="sprite0" transform="matrix(1.0, 0.0, 0.0, 1.0, 0.0, 0.0)">
      <use height="23.5" transform="matrix(1.0, 0.0, 0.0, 1.0, 0.0, 0.0)" width="23.5" xlink:href="#shape1"/>
    </g>
    <g id="shape1" transform="matrix(1.0, 0.0, 0.0, 1.0, 0.0, 0.0)">
      <path d="M3.45 20.05 Q0.0 16.6 0.0 11.75 0.0 6.9 3.45 3.45 6.9 0.0 11.75 0.0 16.6 0.0 20.05 3.45 23.5 6.9 23.5 11.75 23.5 16.6 20.05 20.05 16.6 23.5 11.75 23.5 6.9 23.5 3.45 20.05" fill="url(#gradient0)" fill-rule="evenodd" stroke="none"/>
    </g>
    <radialGradient cx="0" cy="0" gradientTransform="matrix(0.0148, 0.0, 0.0, 0.0148, 11.75, 11.75)" gradientUnits="userSpaceOnUse" id="gradient0" r="819.2" spreadMethod="pad">
      <stop offset="0.0" stop-color="#ffffff"/>
      <stop offset="0.47843137254901963" stop-color="#ffffff" stop-opacity="0.7529412"/>
      <stop offset="1.0" stop-color="#ffffff" stop-opacity="0.0"/>
    </radialGradient>
  </defs>
</svg>
