<?xml version="1.0" encoding="UTF-8" standalone="no"?>
<svg xmlns:xlink="http://www.w3.org/1999/xlink" height="440.0px" width="440.0px" xmlns="http://www.w3.org/2000/svg">
  <g transform="matrix(10.0, 0.0, 0.0, 10.0, 0.0, 0.0)">
    <use height="44.0" transform="matrix(1.0, 0.0, 0.0, 1.0, 0.0, 0.0)" width="44.0" xlink:href="#shape0"/>
    <use height="23.5" transform="matrix(0.911, 0.6698, -0.4432, 0.6029, 16.2, 2.0)" width="23.5" xlink:href="#sprite0"/>
  </g>
  <defs>
    <g id="shape0" transform="matrix(1.0, 0.0, 0.0, 1.0, 0.0, 0.0)">
      <path d="M44.0 44.0 L0.0 44.0 0.0 0.0 44.0 0.0 44.0 44.0" fill="#43adca" fill-opacity="0.0" fill-rule="evenodd" stroke="none"/>
      <path d="M28.8 6.05 Q30.45 7.0 31.7 8.4 L32.05 8.8 Q33.9 10.65 35.05 13.5 37.6 19.55 35.25 26.5 33.0 33.5 27.3 37.4 22.35 40.7 17.35 40.0 L14.5 39.55 Q8.6 38.0 6.1 31.8 3.55 25.6 5.9 18.4 7.95 12.15 12.6 8.4 L14.1 7.3 15.3 6.55 Q20.55 3.45 25.85 4.85 27.4 5.3 28.8 6.05 Z" fill="none" stroke="#000000" stroke-linecap="round" stroke-linejoin="round" stroke-opacity="0.2" stroke-width="2.0"/>
      <path d="M7.45 19.1 Q5.1 26.05 7.55 32.1 10.05 38.15 15.85 39.7 21.6 41.2 27.3 37.4 33.0 33.5 35.25 26.5 37.6 19.55 35.05 13.5 32.65 7.45 26.9 5.9 21.1 4.4 15.4 8.25 9.7 12.1 7.45 19.1" fill="#8e5602" fill-rule="evenodd" stroke="none"/>
      <path d="M12.6 8.4 Q12.3 8.7 13.05 9.4 L14.05 8.7 14.55 8.4 Q19.5 5.25 24.5 6.6 L25.4 6.85 Q27.05 5.35 28.8 6.05 27.4 5.3 25.85 4.85 20.55 3.45 15.3 6.55 L14.1 7.3 12.6 8.4" fill="#ffa004" fill-rule="evenodd" stroke="none"/>
      <path d="M25.4 6.85 L24.5 6.6 Q19.5 5.25 14.55 8.4 L14.05 8.7 13.05 9.4 31.3 27.7 32.15 25.4 Q34.25 19.0 32.0 13.5 L30.55 10.8 29.4 9.4 Q27.7 7.7 25.4 6.85" fill="#b16a01" fill-rule="evenodd" stroke="none"/>
      <path d="M12.6 8.4 Q7.95 12.15 5.9 18.4 3.55 25.6 6.1 31.8 8.6 38.0 14.5 39.55 20.45 41.15 26.3 37.25 30.65 34.3 33.05 29.5 L33.65 28.1 31.3 27.75 30.75 28.8 Q28.65 32.8 24.9 35.4 19.65 38.85 14.4 37.5 9.15 36.05 6.95 30.55 4.65 25.05 6.75 18.65 8.6 12.8 13.05 9.4 12.3 8.7 12.6 8.4" fill="#c17402" fill-rule="evenodd" stroke="none"/>
      <path d="M31.3 27.75 L33.65 28.1 34.5 26.05 Q36.85 18.85 34.3 12.65 L33.25 10.5 Q32.2 9.8 30.55 10.8 L32.0 13.5 Q34.25 19.0 32.15 25.4 L31.3 27.7 31.3 27.75" fill="#fda92d" fill-rule="evenodd" stroke="none"/>
      <path d="M31.7 8.4 Q30.45 7.0 28.8 6.05 27.05 5.35 25.4 6.85 27.7 7.7 29.4 9.4 30.7 8.35 31.7 8.4" fill="#fece89" fill-rule="evenodd" stroke="none"/>
      <path d="M33.25 10.5 L31.7 8.4 Q30.7 8.35 29.4 9.4 L30.55 10.8 Q32.2 9.8 33.25 10.5" fill="#ffe7c4" fill-rule="evenodd" stroke="none"/>
      <path d="M13.05 9.4 Q8.6 12.8 6.75 18.65 4.65 25.05 6.95 30.55 9.15 36.05 14.4 37.5 19.65 38.85 24.9 35.4 28.65 32.8 30.75 28.8 L31.3 27.75 31.3 27.7 13.05 9.4" fill="#6d4201" fill-rule="evenodd" stroke="none"/>
      <path d="M33.65 28.1 L33.05 29.5 Q30.65 34.3 26.3 37.25 20.45 41.15 14.5 39.55 8.6 38.0 6.1 31.8 3.55 25.6 5.9 18.4 7.95 12.15 12.6 8.4 M13.05 9.4 Q8.6 12.8 6.75 18.65 4.65 25.05 6.95 30.55 9.15 36.05 14.4 37.5 19.65 38.85 24.9 35.4 28.65 32.8 30.75 28.8 L31.3 27.75 M33.65 28.1 L34.5 26.05 Q36.85 18.85 34.3 12.65 L33.25 10.5 31.7 8.4 Q30.45 7.0 28.8 6.05 27.4 5.3 25.85 4.85 20.55 3.45 15.3 6.55 L14.1 7.3 12.6 8.4 M25.4 6.85 L24.5 6.6 Q19.5 5.25 14.55 8.4 L14.05 8.7 13.05 9.4 M31.3 27.7 L31.3 27.75 M29.4 9.4 Q27.7 7.7 25.4 6.85 M30.55 10.8 L29.4 9.4 M31.3 27.7 L32.15 25.4 Q34.25 19.0 32.0 13.5 L30.55 10.8" fill="none" stroke="#000000" stroke-linecap="round" stroke-linejoin="round" stroke-opacity="0.3019608" stroke-width="0.05"/>
      <path d="M13.4 8.65 Q8.05 12.2 5.95 18.65 3.85 25.2 6.25 30.8 8.6 36.35 14.0 37.8 19.5 39.3 24.85 35.75 30.2 32.2 32.3 25.7 34.45 19.2 32.05 13.65 29.7 8.05 24.25 6.6 18.75 5.15 13.4 8.65" fill="#8e8fa4" fill-rule="evenodd" stroke="none"/>
      <path d="M13.4 8.65 Q8.05 12.2 5.95 18.65 3.85 25.2 6.25 30.8 8.6 36.35 14.0 37.8 19.5 39.3 24.85 35.75 30.2 32.2 32.3 25.7 34.45 19.2 32.05 13.65 29.7 8.05 24.25 6.6 18.75 5.15 13.4 8.65 Z" fill="none" stroke="#000000" stroke-linecap="round" stroke-linejoin="round" stroke-opacity="0.3019608" stroke-width="0.05"/>
      <path d="M24.1 7.0 Q20.1 5.35 12.45 9.9 5.95 15.0 5.25 23.35 5.75 32.6 9.7 24.75 11.2 21.15 10.3 17.45 26.65 -0.05 32.2 21.9 32.6 19.95 32.4 17.5 32.1 15.0 31.25 12.95 30.45 10.15 25.55 7.5 L24.1 7.0" fill="#dadbe0" fill-rule="evenodd" stroke="none"/>
      <path d="M31.2 26.2 Q32.4 22.4 27.7 15.1 29.85 23.7 26.6 27.5 23.35 31.3 15.9 22.45 8.5 13.6 6.25 19.4 4.0 25.15 6.7 30.55 9.45 36.0 14.4 37.3 19.4 38.65 24.35 35.4 29.2 32.15 31.2 26.2" fill="#7c8094" fill-rule="evenodd" stroke="none"/>
      <path d="M9.5 12.7 L10.05 12.1 10.0 11.85 9.5 12.7 M10.85 17.0 L9.9 17.35 10.0 18.75 9.8 19.65 Q9.6 20.2 9.7 20.45 7.9 26.2 8.2 23.1 7.2 26.4 7.9 26.0 8.5 25.65 10.15 20.85 L10.6 20.15 11.05 18.65 11.15 17.35 Q11.05 17.05 10.85 17.15 L10.85 17.0 M10.2 19.0 L10.55 18.55 10.65 18.65 10.6 19.25 10.4 19.95 10.1 20.5 9.95 20.35 9.95 19.75 10.2 19.0" fill="#8d4803" fill-rule="evenodd" stroke="none"/>
      <path d="M8.25 17.2 L8.2 17.25 7.9 18.7 8.15 17.55 8.25 17.2" fill="#6b3703" fill-rule="evenodd" stroke="none"/>
      <path d="M10.05 12.1 L9.5 12.7 9.45 12.85 9.35 13.0 Q8.65 14.45 8.2 17.25 L8.25 17.2 8.5 16.4 Q9.5 13.05 9.9 17.35 L10.85 17.0 10.05 12.1" fill="#9d5104" fill-rule="evenodd" stroke="none"/>
      <path d="M8.3 20.05 Q7.75 20.7 7.6 21.5 7.4 22.35 7.75 22.05 L9.15 20.2 8.3 20.05" fill="#e6b100" fill-rule="evenodd" stroke="none"/>
      <path d="M24.4 9.95 Q23.75 8.0 20.85 8.0 11.0 19.6 8.95 31.65 10.05 33.75 12.05 34.65 L12.8 34.45 Q15.95 18.75 24.5 10.55 L24.4 9.95" fill="#8e5602" fill-rule="evenodd" stroke="none"/>
      <path d="M24.4 9.95 Q23.75 8.0 20.85 8.0 11.0 19.6 8.95 31.65 10.05 33.75 12.05 34.65 L12.8 34.45 Q15.95 18.75 24.5 10.55 L24.4 9.95 Z" fill="none" stroke="#000000" stroke-linecap="round" stroke-linejoin="round" stroke-opacity="0.3019608" stroke-width="0.05"/>
      <path d="M18.7 16.8 Q21.15 13.0 24.2 10.05 23.85 7.7 20.7 7.9 17.9 10.4 16.05 13.15 16.85 15.1 18.7 16.8" fill="#fda92d" fill-rule="evenodd" stroke="none"/>
      <path d="M16.05 13.15 Q9.85 22.15 8.3 31.35 9.45 33.9 11.95 34.65 14.15 24.05 18.7 16.8 16.85 15.1 16.05 13.15" fill="#c17402" fill-rule="evenodd" stroke="none"/>
      <path d="M18.7 16.8 Q21.15 13.0 24.2 10.05 23.85 7.7 20.7 7.9 17.9 10.4 16.05 13.15 9.85 22.15 8.3 31.35 9.45 33.9 11.95 34.65 14.15 24.05 18.7 16.8 Z" fill="none" stroke="#000000" stroke-linecap="round" stroke-linejoin="round" stroke-opacity="0.3019608" stroke-width="0.05"/>
      <path d="M14.3 15.1 L14.35 15.25 Q18.05 15.2 19.6 14.25 20.45 13.1 20.3 12.25 20.2 11.25 19.0 10.85 L18.75 10.85 Q16.25 10.55 14.95 11.9 13.85 14.3 14.3 15.1" fill="#000000" fill-opacity="0.3019608" fill-rule="evenodd" stroke="none"/>
      <path d="M20.1 13.55 Q15.35 13.05 13.9 10.9 17.85 12.35 21.05 11.2 21.4 12.45 20.4 13.45 L20.1 13.55" fill="#f0f7f2" fill-rule="evenodd" stroke="none"/>
      <path d="M20.1 13.55 Q17.8 15.0 15.8 13.95 13.6 11.55 13.65 10.4 L13.65 10.3 Q17.4 8.7 19.4 9.25 20.8 10.2 21.05 11.2 17.85 12.35 13.9 10.9 15.35 13.05 20.1 13.55" fill="#d3d2db" fill-rule="evenodd" stroke="none"/>
      <path d="M21.05 11.2 Q20.8 10.2 19.4 9.25 17.4 8.7 13.65 10.3 L13.65 10.4 Q13.6 11.55 15.8 13.95 17.8 15.0 20.1 13.55 M21.05 11.2 Q21.4 12.45 20.4 13.45 L20.1 13.55" fill="none" stroke="#000000" stroke-linecap="round" stroke-linejoin="round" stroke-opacity="0.3529412" stroke-width="0.05"/>
      <path d="M9.9 23.25 L9.95 23.3 Q13.7 23.35 15.2 22.25 15.95 21.0 15.7 20.05 15.5 18.85 14.25 18.4 L13.95 18.35 Q11.4 18.0 10.15 19.55 9.35 22.3 9.9 23.25" fill="#000000" fill-opacity="0.3019608" fill-rule="evenodd" stroke="none"/>
      <path d="M16.15 18.85 Q16.7 20.2 15.9 21.35 L15.7 21.5 Q10.9 21.65 9.2 19.6 13.2 20.55 16.15 18.85" fill="#f0f7f2" fill-rule="evenodd" stroke="none"/>
      <path d="M16.15 18.85 Q13.2 20.55 9.2 19.6 10.9 21.65 15.7 21.5 13.75 23.35 11.6 22.55 9.0 20.4 8.8 19.15 L8.8 19.1 Q12.05 16.8 14.15 17.05 15.7 17.9 16.15 18.85" fill="#d3d2db" fill-rule="evenodd" stroke="none"/>
      <path d="M15.7 21.5 L15.9 21.35 Q16.7 20.2 16.15 18.85 M15.7 21.5 Q13.75 23.35 11.6 22.55 9.0 20.4 8.8 19.15 L8.8 19.1 Q12.05 16.8 14.15 17.05 15.7 17.9 16.15 18.85" fill="none" stroke="#000000" stroke-linecap="round" stroke-linejoin="round" stroke-opacity="0.3529412" stroke-width="0.05"/>
      <path d="M6.8 32.4 L6.8 32.5 Q10.55 32.45 12.05 31.4 12.8 30.15 12.65 29.25 12.45 28.15 11.25 27.75 L10.95 27.7 Q8.5 27.4 7.25 28.85 6.3 31.55 6.8 32.4" fill="#000000" fill-opacity="0.3019608" fill-rule="evenodd" stroke="none"/>
      <path d="M13.1 30.5 Q8.5 31.05 6.5 29.2 10.6 29.75 13.25 27.85 13.95 29.05 13.3 30.3 L13.1 30.5" fill="#f0f7f2" fill-rule="evenodd" stroke="none"/>
      <path d="M13.1 30.5 Q11.4 32.5 9.2 31.9 6.4 29.95 6.05 28.75 L6.05 28.65 Q9.0 26.15 11.1 26.15 12.7 26.85 13.25 27.85 10.6 29.75 6.5 29.2 8.5 31.05 13.1 30.5" fill="#d3d2db" fill-rule="evenodd" stroke="none"/>
      <path d="M13.25 27.85 Q12.7 26.85 11.1 26.15 9.0 26.15 6.05 28.65 L6.05 28.75 Q6.4 29.95 9.2 31.9 11.4 32.5 13.1 30.5 M13.25 27.85 Q13.95 29.05 13.3 30.3 L13.1 30.5" fill="none" stroke="#000000" stroke-linecap="round" stroke-linejoin="round" stroke-opacity="0.3529412" stroke-width="0.05"/>
      <path d="M19.7 23.05 L20.0 23.75 19.55 24.55 Q19.25 24.95 18.9 24.95 L18.8 25.0 18.2 24.85 Q17.95 24.5 18.0 24.1 18.05 23.6 18.35 23.25 18.65 22.85 19.1 22.8 L19.3 22.85 Q19.6 22.8 19.7 23.05 M28.75 20.5 L20.6 21.65 Q20.2 21.3 19.6 21.35 L19.45 21.4 Q18.75 21.5 18.05 22.2 17.45 22.95 17.3 23.85 L17.3 24.0 19.4 26.05 19.65 25.5 20.5 24.9 20.95 23.95 Q26.8 22.35 28.6 22.95 L28.75 20.5 M31.45 22.75 Q31.9 21.35 31.25 20.1 L30.6 20.2 31.45 22.75" fill="#8d4803" fill-rule="evenodd" stroke="none"/>
      <path d="M28.75 20.5 L28.6 22.95 Q30.8 23.65 27.45 27.45 30.6 25.0 31.35 22.95 L31.45 22.75 30.6 20.2 28.75 20.5 M19.4 26.05 L17.3 24.0 Q17.3 24.55 17.6 24.95 15.4 30.3 16.85 31.55 17.45 32.15 18.0 31.95 19.05 31.7 20.2 29.4 16.7 31.55 19.4 26.05" fill="#743a03" fill-rule="evenodd" stroke="none"/>
      <path d="M21.95 27.9 L24.4 28.65 24.05 27.7 21.2 26.35 21.95 27.9" fill="#e6b100" fill-rule="evenodd" stroke="none"/>
      <path d="M21.95 27.9 L22.8 29.7 Q23.35 30.35 24.05 29.7 L24.4 28.65 21.95 27.9" fill="#c18702" fill-rule="evenodd" stroke="none"/>
    </g>
    <g id="sprite0" transform="matrix(1.0, 0.0, 0.0, 1.0, 0.0, 0.0)">
      <use height="23.5" transform="matrix(1.0, 0.0, 0.0, 1.0, 0.0, 0.0)" width="23.5" xlink:href="#shape1"/>
    </g>
    <g id="shape1" transform="matrix(1.0, 0.0, 0.0, 1.0, 0.0, 0.0)">
      <path d="M3.45 20.05 Q0.0 16.6 0.0 11.75 0.0 6.9 3.45 3.45 6.9 0.0 11.75 0.0 16.6 0.0 20.05 3.45 23.5 6.9 23.5 11.75 23.5 16.6 20.05 20.05 16.6 23.5 11.75 23.5 6.9 23.5 3.45 20.05" fill="url(#gradient0)" fill-rule="evenodd" stroke="none"/>
    </g>
    <radialGradient cx="0" cy="0" gradientTransform="matrix(0.0148, 0.0, 0.0, 0.0148, 11.75, 11.75)" gradientUnits="userSpaceOnUse" id="gradient0" r="819.2" spreadMethod="pad">
      <stop offset="0.0" stop-color="#ffffff"/>
      <stop offset="0.47843137254901963" stop-color="#ffffff" stop-opacity="0.7529412"/>
      <stop offset="1.0" stop-color="#ffffff" stop-opacity="0.0"/>
    </radialGradient>
  </defs>
</svg>
