<?xml version="1.0" encoding="UTF-8" standalone="no"?>
<svg xmlns:xlink="http://www.w3.org/1999/xlink" height="440.0px" width="440.0px" xmlns="http://www.w3.org/2000/svg">
  <g transform="matrix(10.0, 0.0, 0.0, 10.0, 0.0, 0.0)">
    <use height="44.0" transform="matrix(1.0, 0.0, 0.0, 1.0, 0.0, 0.0)" width="44.0" xlink:href="#shape0"/>
    <use height="65.0" transform="matrix(-0.2224, 0.0521, 0.0572, 0.4151, 26.0172, 6.2662)" width="65.0" xlink:href="#sprite0"/>
  </g>
  <defs>
    <g id="shape0" transform="matrix(1.0, 0.0, 0.0, 1.0, 0.0, 0.0)">
      <path d="M44.0 44.0 L0.0 44.0 0.0 0.0 44.0 0.0 44.0 44.0" fill="#43adca" fill-opacity="0.0" fill-rule="evenodd" stroke="none"/>
      <path d="M18.55 1.5 L17.95 1.8 17.95 2.15 Q18.35 4.75 18.3 7.45 L14.6 5.7 Q12.65 7.3 12.35 10.05 13.55 12.3 14.4 12.3 15.1 16.95 12.75 22.35 L12.75 22.5 12.7 23.85 12.8 23.85 12.95 23.95 13.45 24.0 13.2 24.6 13.15 24.75 12.95 24.95 10.55 28.9 11.4 31.5 12.05 31.3 12.3 31.05 12.65 30.5 11.8 32.25 13.35 35.6 13.85 36.25 15.55 36.25 16.7 33.9 Q16.65 35.5 15.45 39.9 L18.2 42.6 18.85 42.4 19.25 41.2 19.1 42.45 19.85 42.65 20.85 42.4 21.95 40.0 22.05 39.65 22.1 39.55 22.1 39.65 23.9 41.0 24.8 40.7 25.45 40.25 25.8 35.0 25.9 34.8 25.95 34.7 26.25 33.5 27.1 33.35 27.9 29.1 28.1 27.75 28.6 26.75 28.4 26.65 28.4 26.5 Q29.2 25.75 30.1 25.25 30.4 26.15 31.5 26.6 L32.85 27.0 Q34.2 24.95 33.85 20.9 L30.85 17.3 29.5 17.15 29.5 17.35 29.5 17.15 Q29.4 16.85 29.1 17.15 L29.05 17.15 29.8 14.7 29.4 14.7 29.05 14.65 31.0 11.25 29.45 9.4 28.3 8.8 26.75 12.05 27.8 7.1 27.7 7.0 24.45 4.2 23.75 4.4 Q23.8 6.6 22.85 9.75 L22.25 3.4 18.55 1.5 Z" fill="none" stroke="#000000" stroke-linecap="round" stroke-linejoin="round" stroke-opacity="0.3019608" stroke-width="1.0"/>
      <path d="M13.8 24.1 Q14.5 23.95 15.25 23.3 L15.9 22.1 13.8 24.1" fill="#cebe9c" fill-rule="evenodd" stroke="none"/>
      <path d="M19.2 8.95 L17.65 8.1 16.25 10.1 Q17.8 10.6 16.9 13.75 L13.45 22.3 12.95 24.0 13.8 24.1 15.9 22.1 Q18.85 17.45 19.75 12.2 19.75 10.5 19.2 8.95" fill="#544713" fill-rule="evenodd" stroke="none"/>
      <path d="M12.95 24.0 L13.45 22.3 16.9 13.75 Q17.8 10.6 16.25 10.1 L17.65 8.1 19.2 8.95 18.65 7.6 14.55 5.7 Q12.6 7.35 12.35 10.1 13.55 12.35 14.4 12.35 15.1 17.0 12.75 22.35 L12.7 22.55 12.7 23.9 12.8 23.9 12.95 24.0 M13.7 8.4 L14.8 7.8 Q15.3 9.85 15.0 11.6 L14.4 12.35 15.0 11.6 Q15.3 9.85 14.8 7.8 L13.7 8.4" fill="#7a681c" fill-rule="evenodd" stroke="none"/>
      <path d="M12.95 24.0 L12.8 23.9 12.7 23.9 12.7 22.55 12.75 22.35 Q15.1 17.0 14.4 12.35 L15.0 11.6 Q15.3 9.85 14.8 7.8 L13.7 8.4 M15.9 22.1 Q18.85 17.45 19.75 12.2 19.75 10.5 19.2 8.95 L18.65 7.6 14.55 5.7 Q12.6 7.35 12.35 10.1 13.55 12.35 14.4 12.35 M12.95 24.0 L13.8 24.1 Q14.5 23.95 15.25 23.3 L15.9 22.1" fill="none" stroke="#000000" stroke-linecap="round" stroke-linejoin="round" stroke-opacity="0.4" stroke-width="0.05"/>
      <path d="M18.2 8.85 Q18.95 5.5 18.55 2.35 L18.6 2.05 17.9 1.8 17.9 2.15 Q18.35 5.4 18.2 8.85 M22.3 13.3 L20.9 15.6 19.65 19.4 18.3 23.85 18.25 28.4 20.5 28.8 16.9 41.35 18.15 42.6 19.4 38.15 19.2 41.2 19.0 42.45 19.75 42.7 20.0 42.3 20.0 42.1 20.85 38.8 21.15 37.55 23.05 24.3 23.65 20.4 23.3 21.5 24.25 15.8 24.05 10.55 22.3 13.3" fill="#cfbd9f" fill-rule="evenodd" stroke="none"/>
      <path d="M21.45 3.6 L22.15 11.4 22.8 9.75 22.2 3.35 21.45 3.6 M11.35 31.5 Q11.6 31.4 11.95 31.25 L12.2 31.05 12.6 30.5 13.5 28.5 11.35 31.5 M13.75 36.2 L15.5 36.25 16.65 33.9 16.7 31.65 16.75 30.85 13.75 36.2 M18.15 42.6 L18.8 42.4 19.2 41.2 19.4 38.15 18.15 42.6 M19.75 42.7 L20.8 42.35 21.85 39.95 22.0 39.6 20.85 38.8 20.0 42.1 20.0 42.3 19.75 42.7 M26.7 12.05 L27.75 7.15 27.6 7.0 27.1 7.25 25.6 14.6 25.3 15.1 25.35 15.2 25.4 15.15 25.8 13.95 26.7 12.05" fill="#6b6147" fill-rule="evenodd" stroke="none"/>
      <path d="M28.25 25.1 L28.4 23.05 28.45 19.3 28.5 18.9 29.7 14.75 29.3 14.65 28.35 14.7 27.45 18.6 27.45 19.0 Q27.25 20.15 27.2 21.45 L26.9 25.75 28.25 25.1 M27.45 18.6 L28.45 19.3 27.45 18.6" fill="#998d6f" fill-rule="evenodd" stroke="none"/>
      <path d="M17.9 1.8 L18.6 2.05 21.45 3.6 22.2 3.35 18.5 1.5 17.9 1.8 M27.6 7.0 L24.35 4.2 23.65 4.4 27.1 7.25 27.6 7.0" fill="#efe3c6" fill-rule="evenodd" stroke="none"/>
      <path d="M30.9 11.2 L29.4 9.35 28.25 8.8 29.8 10.9 30.9 11.2" fill="#e6dabe" fill-rule="evenodd" stroke="none"/>
      <path d="M18.6 2.05 L18.55 2.35 Q18.95 5.5 18.2 8.85 L18.15 9.15 17.6 11.8 19.45 5.35 Q22.45 7.75 20.85 15.5 L20.75 15.85 20.9 15.6 22.3 13.3 Q21.95 12.15 22.15 11.4 21.95 12.15 22.3 13.3 L24.05 10.55 24.25 15.8 23.3 21.5 23.65 20.4 25.05 15.4 25.25 15.15 25.3 15.1 25.6 14.6 27.1 7.25 23.65 4.4 Q23.75 6.6 22.8 9.75 L22.15 11.4 21.45 3.6 18.6 2.05 M28.25 8.8 L26.7 12.05 25.8 13.95 25.4 15.15 25.35 15.2 27.2 21.45 Q27.25 20.15 27.45 19.0 L27.45 18.6 28.35 14.7 27.7 14.85 29.8 10.9 28.25 8.8 M25.25 15.15 L25.6 14.6 25.25 15.15" fill="#ebe0c5" fill-rule="evenodd" stroke="none"/>
      <path d="M16.65 33.9 Q16.55 35.5 15.35 39.9 L16.9 41.35 20.5 28.8 18.25 28.4 18.2 28.85 16.75 30.85 16.7 31.65 16.65 33.9" fill="#bdae8c" fill-rule="evenodd" stroke="none"/>
      <path d="M16.6 15.45 L13.1 24.65 13.05 24.7 12.9 25.0 Q11.45 28.85 14.6 27.15 18.15 25.3 18.25 22.05 L18.3 23.85 19.65 19.4 Q18.45 10.5 16.6 15.45" fill="#bfae92" fill-rule="evenodd" stroke="none"/>
      <path d="M25.8 33.6 L25.6 33.65 25.8 33.6 M23.05 24.3 L21.15 37.55 Q22.7 30.9 23.05 24.3" fill="#d6c3a4" fill-rule="evenodd" stroke="none"/>
      <path d="M22.05 39.65 L23.85 41.0 24.7 33.6 25.55 33.5 25.65 33.35 25.65 33.15 26.6 27.85 26.6 27.55 26.9 25.75 27.2 21.45 25.35 15.2 Q25.25 15.25 25.25 15.15 L25.05 15.4 23.65 20.4 23.05 24.3 Q22.7 30.9 21.15 37.55 L20.85 38.8 22.0 39.6 Q22.05 39.15 22.05 39.65 M25.25 15.15 Q25.25 15.25 25.35 15.2 L25.3 15.1 25.25 15.15" fill="#d1b936" fill-rule="evenodd" stroke="none"/>
      <path d="M25.8 33.6 L27.0 33.35 27.8 29.1 28.2 26.05 28.25 25.1 26.9 25.75 26.6 27.55 26.6 27.85 25.65 33.15 25.65 33.35 25.55 33.5 25.9 33.55 25.8 33.6" fill="#9c8928" fill-rule="evenodd" stroke="none"/>
      <path d="M23.85 41.0 L24.75 40.7 25.35 40.25 25.8 33.6 25.5 33.65 25.6 33.65 25.55 33.5 24.7 33.6 23.85 41.0" fill="#857422" fill-rule="evenodd" stroke="none"/>
      <path d="M12.9 25.0 L10.5 28.9 11.35 31.5 13.5 28.5 12.6 30.5 11.7 32.25 13.25 35.6 13.75 36.2 16.75 30.85 18.2 28.85 18.25 28.4 18.3 23.85 18.25 22.05 Q18.15 25.3 14.6 27.15 11.45 28.85 12.9 25.0 M29.3 14.65 L28.95 14.65 30.9 11.2 29.8 10.9 27.7 14.85 28.35 14.7 29.3 14.65" fill="#9b8621" fill-rule="evenodd" stroke="none"/>
      <path d="M20.9 15.6 L20.75 15.85 20.85 15.5 Q22.45 7.75 19.45 5.35 L17.6 11.8 17.25 13.1 16.6 15.45 Q18.45 10.5 19.65 19.4 L20.9 15.6" fill="#bfb791" fill-rule="evenodd" stroke="none"/>
      <path d="M22.15 11.4 Q21.95 12.15 22.3 13.3 M17.6 11.8 L18.15 9.15 18.2 8.85 M21.45 3.6 L22.2 3.35 22.8 9.75 22.15 11.4 M27.6 7.0 L24.35 4.2 23.65 4.4 Q23.75 6.6 22.8 9.75 M17.6 11.8 L17.25 13.1 16.6 15.45 13.1 24.65 13.05 24.7 12.9 25.0 10.5 28.9 11.35 31.5 Q11.6 31.4 11.95 31.25 L11.95 31.3 12.2 31.05 12.6 30.5 11.7 32.25 13.25 35.6 13.75 36.2 15.5 36.25 16.65 33.9 Q16.55 35.5 15.35 39.9 L16.9 41.35 18.15 42.6 18.8 42.4 19.2 41.2 19.0 42.45 19.75 42.7 20.8 42.35 21.85 39.95 22.0 39.6 22.05 39.65 23.85 41.0 24.75 40.7 25.35 40.25 25.8 33.6 27.0 33.35 27.8 29.1 28.2 26.05 28.25 25.1 28.4 23.05 28.45 19.3 28.5 18.9 29.7 14.75 29.3 14.65 28.95 14.65 30.9 11.2 29.4 9.35 28.25 8.8 26.7 12.05 27.75 7.15 27.6 7.0 27.1 7.25 M29.8 10.9 L30.9 11.2 M27.7 14.85 L28.35 14.7 29.3 14.65 M27.45 18.6 L27.45 19.0 M25.35 15.2 L25.4 15.15 25.8 13.95 26.7 12.05 M25.3 15.1 L25.6 14.6 25.25 15.15 25.05 15.4 M25.35 15.2 Q25.25 15.25 25.25 15.15 L25.3 15.1 M25.55 33.5 L24.7 33.6 M25.55 33.5 L25.9 33.55 25.8 33.6 25.6 33.65 25.5 33.65 25.8 33.6 25.6 33.65 M18.25 28.4 L18.2 28.85 16.75 30.85 13.75 36.2 M16.75 30.85 L16.7 31.65 16.65 33.9 M11.95 31.25 L12.2 31.05 M22.0 39.6 Q22.05 39.15 22.05 39.65 M20.85 38.8 L22.0 39.6 M21.15 37.55 L20.85 38.8 20.0 42.1 20.0 42.3 19.75 42.7 M18.15 42.6 L19.4 38.15 19.2 41.2 M21.15 37.55 Q22.7 30.9 23.05 24.3 M11.35 31.5 L13.5 28.5 12.6 30.5" fill="none" stroke="#000000" stroke-linecap="square" stroke-linejoin="miter" stroke-miterlimit="3.0" stroke-opacity="0.3019608" stroke-width="0.05"/>
      <path d="M28.45 19.3 L27.45 18.6 M26.9 25.75 L28.25 25.1" fill="none" stroke="#000000" stroke-linecap="round" stroke-linejoin="round" stroke-opacity="0.2" stroke-width="0.05"/>
      <path d="M18.6 2.05 L18.55 2.35 Q18.95 5.5 18.2 8.85 18.35 5.4 17.9 2.15 L17.9 1.8 M22.2 3.35 L18.5 1.5 17.9 1.8" fill="none" stroke="#000000" stroke-linecap="square" stroke-linejoin="miter" stroke-miterlimit="3.0" stroke-opacity="0.3019608" stroke-width="0.05"/>
      <path d="M17.9 1.8 L18.6 2.05" fill="none" stroke="#000000" stroke-linecap="round" stroke-linejoin="miter" stroke-miterlimit="3.0" stroke-opacity="0.3019608" stroke-width="0.05"/>
      <path d="M24.15 11.65 L23.55 12.25 22.2 12.3 18.4 13.25 18.25 13.55 18.35 14.6 18.45 14.6 18.9 14.25 19.3 14.55 22.25 14.2 20.85 15.85 22.35 17.6 24.25 15.75 24.4 12.9 24.15 11.65" fill="#efe3c6" fill-rule="evenodd" stroke="none"/>
      <path d="M24.4 12.9 L24.25 15.75 22.35 17.6 20.85 15.85 22.25 14.2 19.3 14.55 18.9 14.25 18.45 14.6 18.45 14.7 18.1 16.2 18.45 15.65 18.5 15.35 18.85 14.7 18.95 14.65 19.4 15.0 20.35 17.75 20.75 20.2 18.85 23.0 16.9 22.45 17.5 23.4 17.7 23.7 17.75 23.75 19.15 23.8 20.5 22.35 20.75 25.35 20.85 24.35 20.9 23.55 21.7 19.45 21.55 18.9 21.15 17.65 22.25 18.85 23.1 18.0 Q22.1 21.05 22.05 23.95 L23.1 24.3 Q23.75 20.65 25.15 17.0 L24.4 12.9 M17.3 17.8 L17.2 17.95 17.65 20.1 17.65 20.25 18.6 19.7 18.3 19.35 17.3 17.8 M20.75 16.95 L20.4 16.3 20.4 16.2 19.4 15.0 20.4 16.2 20.4 16.3 20.75 16.95" fill="#998d6f" fill-rule="evenodd" stroke="none"/>
      <path d="M18.45 14.6 L18.35 14.6 18.45 14.7 18.45 14.6 M15.9 19.65 L15.95 20.3 16.9 22.55 16.9 22.45 18.85 23.0 20.75 20.2 20.35 17.75 19.4 15.0 18.95 14.65 18.85 14.7 18.5 15.35 18.45 15.65 18.1 16.2 17.3 17.8 18.3 19.35 18.6 19.7 17.65 20.25 17.65 20.1 16.95 20.75 15.9 19.65 M18.7 18.15 L19.25 19.3 18.6 19.7 19.25 19.3 18.7 18.15" fill="#cebe9c" fill-rule="evenodd" stroke="none"/>
      <path d="M18.35 14.6 L18.25 13.55 16.1 16.35 15.9 19.65 16.95 20.75 17.65 20.1 17.2 17.95 17.3 17.8 18.1 16.2 18.45 14.7 18.35 14.6" fill="#ebe0c5" fill-rule="evenodd" stroke="none"/>
      <path d="M17.75 23.75 L18.2 24.45 20.75 25.35 20.5 22.35 19.15 23.8 17.75 23.75 M20.85 24.35 L22.05 23.95 Q22.1 21.05 23.1 18.0 L22.25 18.85 21.15 17.65 21.55 18.9 21.7 19.45 20.9 23.55 20.85 24.35" fill="#7b7152" fill-rule="evenodd" stroke="none"/>
      <path d="M18.25 13.55 L18.4 13.25 22.2 12.3 23.55 12.25 24.15 11.65 M18.25 13.55 L16.1 16.35 15.9 19.65 15.95 20.3 16.9 22.55 M16.9 22.45 L17.5 23.4 17.7 23.7 17.75 23.75 18.2 24.45 M23.1 24.3 Q23.75 20.65 25.15 17.0 M18.5 15.35 L18.85 14.7 18.95 14.65 19.4 15.0 20.4 16.2 20.4 16.3 20.75 16.95 M17.65 20.1 L17.2 17.95 17.3 17.8 18.1 16.2 18.45 15.65 M18.6 19.7 L17.65 20.25 17.65 20.1 M18.6 19.7 L19.25 19.3 18.7 18.15 M21.15 17.65 L21.55 18.9 21.7 19.45 20.9 23.55 20.85 24.35" fill="none" stroke="#000000" stroke-linecap="round" stroke-linejoin="round" stroke-opacity="0.4" stroke-width="0.05"/>
      <path d="M17.3 22.65 L17.1 22.65 17.05 22.65 16.9 22.75 16.85 22.75 16.8 22.75 16.95 22.85 16.95 22.8 17.0 22.75 17.3 22.65 17.05 22.65 17.3 22.65 M16.9 22.75 L16.95 22.8 16.9 22.75" fill="#7c5b3f" fill-rule="evenodd" stroke="none"/>
      <path d="M17.2 16.15 L17.1 16.35 17.0 16.65 Q16.75 17.95 17.7 18.9 L18.45 18.6 18.55 18.5 18.35 17.8 17.8 18.0 Q17.4 17.2 18.2 16.8 L18.75 16.6 Q19.8 16.3 20.55 17.15 L20.7 18.4 20.55 21.9 20.15 22.15 Q18.8 23.1 17.3 22.65 L17.0 22.75 16.95 22.8 17.75 23.8 18.3 24.5 18.35 24.6 18.3 24.7 18.25 24.75 18.7 25.0 19.2 24.85 19.65 24.6 Q20.75 23.95 21.45 22.75 L21.7 20.2 21.7 19.6 21.45 18.05 20.85 16.5 17.2 16.15 M21.35 20.95 Q20.85 22.7 19.65 24.6 20.85 22.7 21.35 20.95" fill="#2f2c20" fill-rule="evenodd" stroke="none"/>
      <path d="M20.85 16.5 L19.9 15.15 Q18.55 15.15 17.3 15.85 L17.2 16.15 20.85 16.5" fill="#787323" fill-rule="evenodd" stroke="none"/>
      <path d="M16.6 17.05 L16.55 17.3 M20.85 16.5 L19.9 15.15 Q18.55 15.15 17.3 15.85 L17.2 16.15 17.1 16.35 17.0 16.65 Q16.75 17.95 17.7 18.9 L18.45 18.6 18.55 18.5 18.35 17.8 17.8 18.0 Q17.4 17.2 18.2 16.8 L18.75 16.6 Q19.8 16.3 20.55 17.15 L20.7 18.4 20.55 21.9 20.15 22.15 Q18.8 23.1 17.3 22.65 L17.0 22.75 M16.9 22.75 L16.85 22.75 M18.3 24.7 L18.25 24.75 M18.7 25.0 L19.2 24.85 19.65 24.6 Q20.75 23.95 21.45 22.75 L21.7 20.2 21.7 19.6 21.45 18.05 20.85 16.5 17.2 16.15 M18.05 19.4 L18.3 19.2 M18.4 18.95 L18.4 18.8 M16.95 22.8 L16.9 22.75 M17.05 22.65 L17.3 22.65" fill="none" stroke="#000000" stroke-linecap="round" stroke-linejoin="round" stroke-opacity="0.33333334" stroke-width="0.05"/>
      <path d="M19.65 24.6 Q20.85 22.7 21.35 20.95" fill="none" stroke="#000000" stroke-linecap="round" stroke-linejoin="round" stroke-opacity="0.2" stroke-width="0.05"/>
      <path d="M25.15 35.9 Q25.8 27.9 28.15 21.35 L29.45 19.35 29.4 19.7 30.05 18.3 30.45 20.35 Q29.35 20.85 29.0 23.7 L29.95 25.25 Q30.35 26.15 31.4 26.6 L32.75 27.0 Q34.15 24.9 33.75 20.9 L30.75 17.3 29.4 17.15 29.35 17.4 Q29.45 16.75 29.05 17.15 27.95 18.0 27.05 19.4 24.9 24.65 24.2 31.4 24.05 32.25 24.05 33.05 24.05 35.0 25.0 35.8 L25.15 35.9 25.1 35.95 25.15 35.9 M31.4 22.3 L30.65 20.25 30.55 20.3 30.45 20.35 30.55 20.3 30.65 20.25 31.4 22.3" fill="#988724" fill-rule="evenodd" stroke="none"/>
      <path d="M30.45 20.35 L30.05 18.3 29.4 19.7 29.45 19.35 28.15 21.35 Q25.8 27.9 25.15 35.9 L25.85 34.8 25.85 34.7 Q26.85 29.8 28.5 26.75 L28.3 26.65 28.35 26.5 29.95 25.25 29.0 23.7 Q29.35 20.85 30.45 20.35" fill="#524612" fill-rule="evenodd" stroke="none"/>
      <path d="M25.15 35.9 L25.1 35.95 25.15 35.9 25.0 35.8 M24.2 31.4 Q24.9 24.65 27.05 19.4 27.95 18.0 29.05 17.15 29.45 16.75 29.35 17.4 L29.4 17.15 M30.75 17.3 L33.75 20.9 Q34.15 24.9 32.75 27.0 L31.4 26.6 Q30.35 26.15 29.95 25.25 L29.0 23.7 Q29.35 20.85 30.45 20.35 L30.55 20.3 30.65 20.25 31.4 22.3 M29.95 25.25 L28.35 26.5 M28.5 26.75 Q26.85 29.8 25.85 34.7 L25.85 34.8 25.15 35.9 Z" fill="none" stroke="#000000" stroke-linecap="round" stroke-linejoin="round" stroke-opacity="0.4" stroke-width="0.05"/>
    </g>
    <g id="sprite0" transform="matrix(1.0, 0.0, 0.0, 1.0, 32.5, 32.5)">
      <use height="65.0" transform="matrix(1.0, 0.0, 0.0, 1.0, -32.5, -32.5)" width="65.0" xlink:href="#shape1"/>
    </g>
    <g id="shape1" transform="matrix(1.0, 0.0, 0.0, 1.0, 32.5, 32.5)">
      <path d="M22.95 -23.0 Q32.5 -13.45 32.5 0.0 32.5 13.45 22.95 22.95 13.45 32.5 0.0 32.5 -13.45 32.5 -23.0 22.95 -32.5 13.45 -32.5 0.0 -32.5 -13.45 -23.0 -23.0 -13.45 -32.5 0.0 -32.5 13.45 -32.5 22.95 -23.0" fill="url(#gradient0)" fill-rule="evenodd" stroke="none"/>
    </g>
    <radialGradient cx="0" cy="0" gradientTransform="matrix(0.0406, 0.0, 0.0, 0.0406, 0.0, 0.0)" gradientUnits="userSpaceOnUse" id="gradient0" r="819.2" spreadMethod="pad">
      <stop offset="0.0" stop-color="#fff5a5"/>
      <stop offset="1.0" stop-color="#f5ad4e" stop-opacity="0.0"/>
    </radialGradient>
  </defs>
</svg>
