<?xml version="1.0" encoding="UTF-8" standalone="no"?>
<svg xmlns:xlink="http://www.w3.org/1999/xlink" height="440.0px" width="440.0px" xmlns="http://www.w3.org/2000/svg">
  <g transform="matrix(10.0, 0.0, 0.0, 10.0, 0.0, 0.0)">
    <use height="44.0" transform="matrix(1.0, 0.0, 0.0, 1.0, 0.0, 0.0)" width="44.0" xlink:href="#shape0"/>
  </g>
  <defs>
    <g id="shape0" transform="matrix(1.0, 0.0, 0.0, 1.0, 0.0, 0.0)">
      <path d="M44.0 44.0 L0.0 44.0 0.0 0.0 44.0 0.0 44.0 44.0" fill="#43adca" fill-opacity="0.0" fill-rule="evenodd" stroke="none"/>
      <path d="M31.55 8.65 Q32.05 9.3 31.9 9.9 L31.9 10.0 Q31.7 10.55 30.8 10.75 L30.0 10.8 28.7 10.65 28.0 10.5 27.35 10.3 26.95 10.05 26.5 9.85 25.8 9.6 23.45 7.9 23.4 7.85 23.0 7.4 22.9 7.3 22.75 7.05 Q22.5 6.55 22.55 6.2 L22.65 5.9 22.75 5.7 Q23.1 5.25 23.85 5.15 L24.3 6.05 24.45 6.25 24.5 6.3 Q25.45 7.5 27.15 8.25 L29.0 8.85 30.45 8.95 31.55 8.65 32.25 7.85 32.25 7.8 Q32.6 6.9 31.7 5.65 30.7 4.35 28.95 3.55 27.2 2.75 25.75 3.0 24.8 3.1 24.25 3.55 L23.9 4.1 Q23.7 4.6 23.85 5.15 M22.75 5.7 Q20.85 5.35 19.1 5.7 18.35 5.75 17.55 6.1 L17.3 6.2 15.9 6.65 14.7 7.1 13.8 7.6 Q12.35 8.3 11.15 9.4 9.85 10.55 8.9 12.1 7.8 13.9 7.1 16.25 L6.95 17.05 Q6.3 19.15 6.1 21.2 L6.2 25.15 Q6.55 27.65 7.4 30.2 L7.6 30.65 7.95 31.55 9.15 34.05 10.8 36.6 Q12.85 39.05 15.5 40.55 L16.15 40.95 Q21.05 43.15 25.75 40.85 L25.85 40.75 25.8 40.75 29.0 39.45 30.7 38.15 Q33.55 35.5 34.85 30.8 L35.0 30.55 Q35.65 28.1 35.7 25.8 35.9 21.35 34.35 16.8 L32.8 13.5 30.8 10.75 M17.3 6.2 L16.55 6.55 15.9 6.65 M7.15 24.9 Q7.3 26.9 7.85 28.85 L7.85 28.95 8.25 29.95 8.35 30.25 8.35 30.4 9.2 32.3 9.55 33.45 9.6 33.5 10.2 34.9 11.75 36.3 11.95 36.4 13.2 36.7 15.05 39.05 15.1 39.05 17.4 38.55 Q20.1 39.95 22.75 39.75 L23.4 39.45 24.15 39.05 Q26.5 37.85 27.9 36.0 L29.0 34.15 Q29.8 32.7 30.25 30.9 L30.3 30.5 30.45 30.05 30.85 27.0 30.9 25.75 Q30.9 22.35 29.85 18.95 L29.2 17.45 28.45 16.0 27.25 14.3 26.8 13.75 26.0 12.9 25.7 12.6 25.15 12.1 Q24.15 11.15 22.85 10.4 L22.3 10.15 Q20.15 9.15 18.15 9.15 L17.45 9.15 17.3 9.15 16.7 9.3 16.25 9.7 16.0 9.75 Q14.7 10.45 13.6 11.4 11.85 12.95 10.8 15.35 L10.05 17.4 9.9 18.0 9.35 20.3 Q8.9 23.7 9.65 27.1 L9.75 27.8 9.85 28.4 9.5 29.2 9.35 29.7 Q9.15 30.5 9.1 31.3 L9.2 32.3 M17.3 9.15 L18.15 9.15 M25.15 12.1 L24.95 12.8 24.05 14.05 22.35 14.25 22.35 14.2 22.3 14.2 22.15 14.25 20.85 14.4 18.75 14.55 Q17.6 14.5 16.65 14.9 L15.9 15.25 15.8 15.4 15.65 15.45 15.5 15.55 M28.45 16.0 L27.95 15.8 27.25 14.3 M24.1 21.3 L23.9 21.15 23.25 20.65 21.7 20.25 21.5 20.25 21.35 20.35 21.2 20.35 20.9 20.45 20.7 20.6 Q20.3 20.75 20.1 21.0 19.25 21.75 18.95 22.85 L18.95 22.95 18.75 24.55 18.8 25.2 19.15 26.25 19.75 27.5 21.05 28.65 23.15 28.9 23.35 28.85 23.6 28.65 24.65 27.85 25.15 26.85 25.3 26.45 25.35 26.35 Q25.75 24.8 25.15 23.0 24.85 22.05 24.1 21.3 L23.95 23.05 24.3 24.7 25.0 25.9 25.35 26.35 M26.0 12.9 L25.2 13.9 24.05 14.05 M15.8 15.4 L16.9 15.2 16.85 15.25 18.5 17.3 18.6 17.4 16.25 21.4 15.0 21.6 13.0 20.65 12.0 20.25 12.15 19.85 M18.75 14.55 L17.85 14.8 17.1 15.1 16.85 15.25 M17.95 27.45 L17.75 27.2 16.95 26.55 16.05 26.25 15.4 25.0 14.6 25.1 Q14.65 24.0 14.85 22.95 L16.65 22.6 16.95 21.3 Q17.45 19.2 18.8 17.95 L18.8 17.9 18.7 15.65 Q19.35 14.75 20.85 14.4 M26.8 13.75 L25.2 13.9 M14.65 32.95 L14.5 33.25 14.2 33.9 13.6 34.4 13.5 34.5 13.3 34.55 12.95 34.6 12.0 34.4 11.15 33.65 10.75 32.85 10.5 31.8 10.5 31.55 10.65 30.8 10.65 30.7 10.7 30.5 Q10.85 29.95 11.3 29.55 11.5 29.4 11.75 29.3 L11.85 29.2 12.1 29.15 12.15 29.15 12.25 29.1 12.35 29.1 Q12.9 29.05 13.3 29.35 L13.75 29.7 13.85 29.7 13.75 30.85 14.0 31.9 14.35 32.65 14.65 32.95 Q14.85 31.95 14.55 30.9 14.3 30.15 13.85 29.7 M12.0 20.25 Q11.4 21.6 11.05 23.3 L11.05 23.6 Q10.7 26.45 9.75 27.8 M13.0 20.65 L12.3 23.15 Q12.2 23.25 12.25 23.45 L11.95 25.3 Q10.95 25.5 10.6 26.1 L10.65 27.5 10.55 27.6 10.45 27.65 9.85 28.4 M11.95 25.3 L12.6 25.2 12.65 25.25 14.6 25.1 M20.75 31.7 L19.45 30.75 19.15 29.4 Q18.7 28.25 18.05 27.55 M30.3 30.5 L29.7 30.9 29.25 31.05 29.0 31.2 28.55 31.3 28.1 33.95 25.05 34.85 25.25 31.7 25.65 31.55 M25.05 34.85 L21.15 34.95 20.75 31.85 M17.4 38.55 L17.75 38.45 Q18.9 38.15 19.3 36.65 L18.55 34.7 18.6 34.65 19.3 33.15 19.5 31.5 19.45 30.75 M15.1 39.05 L15.35 38.95 16.55 38.05 16.95 37.3 19.3 36.65" fill="none" stroke="#000000" stroke-linecap="round" stroke-linejoin="round" stroke-opacity="0.2" stroke-width="1.0"/>
      <path d="M18.8 25.2 L19.1 26.25 19.15 26.15 18.8 25.2" fill="#656955" fill-rule="evenodd" stroke="none"/>
      <path d="M33.05 24.15 Q33.1 22.35 32.5 20.6 31.85 18.9 30.75 17.75 L30.65 17.65 Q28.55 16.9 26.65 18.4 L26.45 18.2 25.1 17.25 Q24.1 16.6 23.05 16.6 23.8 16.75 24.55 17.2 L25.85 18.1 26.2 18.4 26.35 18.55 26.55 18.75 Q27.5 19.9 28.15 21.55 28.75 23.3 28.7 25.1 28.75 26.2 28.4 27.25 L28.35 27.55 Q27.95 29.15 27.1 30.2 L26.1 31.15 26.4 31.05 27.45 30.05 Q28.3 29.0 28.8 27.4 L28.8 27.1 29.15 25.3 Q32.2 26.55 33.05 24.15" fill="#ffcf57" fill-rule="evenodd" stroke="none"/>
      <path d="M30.65 17.65 L30.55 17.55 30.25 17.2 29.0 16.3 Q27.7 15.6 26.5 15.6 L22.05 16.5 22.6 16.5 23.05 16.6 Q24.1 16.6 25.1 17.25 L26.45 18.2 26.65 18.4 Q28.55 16.9 30.65 17.65" fill="#ffa005" fill-rule="evenodd" stroke="none"/>
      <path d="M21.25 16.65 L20.95 16.7 20.9 16.7 20.8 16.7 20.55 16.8 20.2 16.9 20.0 17.05 Q19.35 17.4 18.85 17.85 L18.7 17.95 Q17.45 19.25 16.9 21.25 16.6 22.45 16.55 23.7 16.55 25.4 17.15 27.25 L17.2 27.3 18.3 29.45 Q19.3 30.85 20.65 31.65 22.15 32.45 23.5 32.3 L24.35 32.1 24.5 32.1 24.85 31.95 25.2 31.7 25.6 31.55 26.1 31.15 27.1 30.2 Q27.95 29.15 28.35 27.55 L28.4 27.25 Q28.75 26.2 28.7 25.1 28.75 23.3 28.15 21.55 27.5 19.9 26.55 18.75 L26.35 18.55 26.2 18.4 25.85 18.1 24.55 17.2 Q23.8 16.75 23.05 16.6 L22.6 16.5 22.05 16.5 21.25 16.65 M18.75 24.25 L18.85 23.0 18.9 22.85 Q19.2 21.7 20.05 21.05 L20.65 20.55 20.85 20.4 21.2 20.3 21.35 20.3 21.5 20.25 21.65 20.2 23.2 20.6 23.85 21.15 24.05 21.3 Q24.8 22.0 25.15 23.0 25.7 24.75 25.3 26.35 L25.3 26.4 25.1 26.85 24.6 27.85 23.55 28.65 23.35 28.8 23.1 28.9 21.0 28.65 19.75 27.45 Q19.3 26.95 19.1 26.25 L18.8 25.2 18.7 24.6 18.75 24.25" fill="#ad5600" fill-rule="evenodd" stroke="none"/>
      <path d="M24.8 32.0 L28.95 31.2 29.2 31.0 29.65 30.9 30.7 30.2 Q30.3 29.5 26.4 31.05 L26.1 31.15 25.6 31.55 25.2 31.7 24.85 31.95 24.8 32.0" fill="#823e00" fill-rule="evenodd" stroke="none"/>
      <path d="M30.7 30.2 L31.45 29.25 Q32.3 28.25 32.75 26.75 33.1 25.45 33.05 24.15 32.2 26.55 29.15 25.3 L28.8 27.1 28.8 27.4 Q28.3 29.0 27.45 30.05 L26.4 31.05 Q30.3 29.5 30.7 30.2 M25.1 26.85 Q22.35 26.4 21.6 23.05 20.3 23.3 18.75 24.25 L18.7 24.6 18.8 25.2 19.15 26.15 19.1 26.25 Q19.3 26.95 19.75 27.45 L21.0 28.65 23.1 28.9 23.35 28.8 23.55 28.65 24.6 27.85 25.1 26.85" fill="#de7900" fill-rule="evenodd" stroke="none"/>
      <path d="M24.05 21.3 L23.85 21.15 23.2 20.6 21.65 20.2 21.5 20.25 21.35 20.3 21.2 20.3 20.85 20.4 20.65 20.55 20.05 21.05 Q19.2 21.7 18.9 22.85 L18.85 23.0 18.75 24.25 Q20.3 23.3 21.6 23.05 22.35 26.4 25.1 26.85 L25.3 26.4 25.3 26.35 24.9 25.85 24.3 24.65 23.9 23.05 Q23.9 22.15 24.05 21.3" fill="#703a00" fill-rule="evenodd" stroke="none"/>
      <path d="M30.7 30.2 L31.45 29.25 Q32.3 28.25 32.75 26.75 33.1 25.45 33.05 24.15 33.1 22.35 32.5 20.6 31.85 18.9 30.75 17.75 M30.65 17.65 L30.55 17.55 30.25 17.2 29.0 16.3 Q27.7 15.6 26.5 15.6 L22.05 16.5 21.85 16.5 21.55 16.55 21.3 16.6 21.25 16.65 20.95 16.7 20.9 16.7 20.8 16.7 20.55 16.8 20.4 16.8 20.2 16.9 20.0 17.05 Q19.35 17.4 18.85 17.85 L18.7 17.95 Q17.45 19.25 16.9 21.25 16.6 22.45 16.55 23.7 16.55 25.4 17.15 27.25 L17.2 27.3 18.3 29.45 Q19.3 30.85 20.65 31.65 22.15 32.45 23.5 32.3 L24.35 32.1 24.5 32.1 24.8 32.0 28.95 31.2 29.2 31.0 29.65 30.9 30.7 30.2 M18.75 24.25 L18.85 23.0 18.9 22.85 Q19.2 21.7 20.05 21.05 L20.65 20.55 20.85 20.4 21.2 20.3 21.35 20.3 21.5 20.25 21.65 20.2 23.2 20.6 23.85 21.15 24.05 21.3 Q23.9 22.15 23.9 23.05 L24.3 24.65 24.9 25.85 25.3 26.35 25.3 26.4 25.1 26.85 M18.75 24.25 L18.7 24.6 18.8 25.2 19.1 26.25 Q19.3 26.95 19.75 27.45 L21.0 28.65 23.1 28.9 23.35 28.8 23.55 28.65 24.6 27.85 25.1 26.85 M25.3 26.35 Q25.7 24.75 25.15 23.0 24.8 22.0 24.05 21.3 M22.6 16.5 L22.05 16.5 21.25 16.65 M20.2 16.9 L20.55 16.8 M19.15 26.15 L19.1 26.25 M24.85 31.95 L25.2 31.7 25.6 31.55 M24.5 32.1 L24.85 31.95" fill="none" stroke="#000000" stroke-linecap="round" stroke-linejoin="round" stroke-opacity="0.3019608" stroke-width="0.05"/>
      <path d="M7.85 28.85 L7.85 28.9 7.85 28.85" fill="#999999" fill-rule="evenodd" stroke="none"/>
      <path d="M25.0 12.8 Q12.8 10.05 7.1 22.15 6.95 25.35 7.85 28.85 10.5 28.75 11.05 23.6 L11.1 23.25 Q11.5 21.25 12.3 19.6 13.6 16.95 15.9 15.3 16.25 15.05 16.7 14.9 L18.8 14.55 21.2 14.45 22.8 14.6 Q24.4 14.25 25.0 12.8" fill="#75735e" fill-rule="evenodd" stroke="none"/>
      <path d="M25.25 11.9 L25.0 12.8 Q24.4 14.25 22.8 14.6 25.95 14.6 26.45 11.65 L25.25 11.9 M7.85 28.9 L10.0 28.5 Q11.75 27.65 12.25 23.4 L11.05 23.6 Q10.5 28.75 7.85 28.85 L7.85 28.9 M13.35 19.75 Q14.75 16.9 17.15 15.05 L17.9 14.8 18.8 14.55 16.7 14.9 Q16.25 15.05 15.9 15.3 13.6 16.95 12.3 19.6 L13.35 19.75" fill="#595843" fill-rule="evenodd" stroke="none"/>
      <path d="M12.25 23.4 L12.3 23.15 Q12.7 21.35 13.35 19.75 L12.3 19.6 Q11.5 21.25 11.1 23.25 L11.05 23.6 12.25 23.4" fill="#42412e" fill-rule="evenodd" stroke="none"/>
      <path d="M25.25 11.9 Q21.5 7.95 15.0 9.5 L14.15 9.7 Q11.05 11.35 8.75 15.45 7.3 18.7 7.1 22.15 12.8 10.05 25.0 12.8 L25.25 11.9" fill="#69664c" fill-rule="evenodd" stroke="none"/>
      <path d="M7.1 22.15 Q7.3 18.7 8.75 15.45 11.05 11.35 14.15 9.7 L15.0 9.5 Q21.5 7.95 25.25 11.9 L25.0 12.8 M7.1 22.15 Q6.95 25.35 7.85 28.85 L7.85 28.9 10.0 28.5 Q11.75 27.65 12.25 23.4 L12.3 23.15 Q12.7 21.35 13.35 19.75 14.75 16.9 17.15 15.05 L17.9 14.8 18.8 14.55 21.2 14.45 22.8 14.6 Q25.95 14.6 26.45 11.65 L25.25 11.9 M18.8 14.55 L16.7 14.9 Q16.25 15.05 15.9 15.3 13.6 16.95 12.3 19.6 11.5 21.25 11.1 23.25 L11.05 23.6 Q10.5 28.75 7.85 28.85 M22.8 14.6 Q24.4 14.25 25.0 12.8" fill="none" stroke="#000000" stroke-linecap="round" stroke-linejoin="round" stroke-opacity="0.3019608" stroke-width="0.05"/>
      <path d="M22.3 14.2 L22.35 14.25 22.3 14.15 22.25 14.2 22.3 14.2" fill="#979988" fill-rule="evenodd" stroke="none"/>
      <path d="M22.3 14.2 L22.15 14.2 Q19.55 14.35 18.7 15.6 L18.8 18.05 Q20.65 16.35 23.55 16.65 L22.35 14.25 22.3 14.2" fill="#ad5600" fill-rule="evenodd" stroke="none"/>
      <path d="M22.35 14.25 L23.55 16.65 27.9 15.9 26.95 13.7 22.3 14.15 22.35 14.25" fill="#ffcf57" fill-rule="evenodd" stroke="none"/>
      <path d="M18.8 18.05 L18.7 15.6 Q19.55 14.35 22.15 14.2 L22.3 14.2 22.35 14.25 M22.25 14.2 L22.15 14.2 M22.3 14.15 L22.25 14.2 M27.9 15.9 L26.95 13.7 22.3 14.15" fill="none" stroke="#000000" stroke-linecap="round" stroke-linejoin="round" stroke-opacity="0.3019608" stroke-width="0.05"/>
      <path d="M24.85 6.2 Q21.95 5.9 21.35 6.65 L23.55 7.3 24.75 7.95 27.05 9.6 Q29.2 11.35 30.75 14.0 32.6 14.35 32.75 13.5 30.25 9.25 26.4 7.0 25.6 6.55 24.75 6.25 L24.85 6.2 M34.85 30.75 L34.95 30.5 Q35.55 28.1 35.65 25.75 34.75 25.3 33.75 26.25 L33.1 30.85 32.75 31.85 Q33.8 32.7 34.85 30.75" fill="#979988" fill-rule="evenodd" stroke="none"/>
      <path d="M8.2 29.95 L8.3 30.25 8.35 30.3 Q9.25 32.7 10.5 34.6 L11.85 36.35 Q14.15 37.2 13.85 35.8 11.7 33.35 10.4 29.75 L10.2 29.35 Q8.45 28.65 8.2 29.95" fill="#797a6c" fill-rule="evenodd" stroke="none"/>
      <path d="M9.3 20.3 Q8.55 21.5 7.6 21.0 L7.2 20.85 Q6.95 22.85 7.05 24.9 7.3 27.4 8.2 29.95 8.45 28.65 10.2 29.35 L9.6 27.05 Q8.8 23.7 9.3 20.3" fill="#8e9181" fill-rule="evenodd" stroke="none"/>
      <path d="M32.75 13.5 Q32.6 14.35 30.75 14.0 29.2 11.35 27.05 9.6 L24.75 7.95 23.55 7.3 21.35 6.65 20.9 6.55 Q22.2 6.85 23.45 7.5 L24.1 7.8 27.0 9.85 Q28.95 11.65 30.3 14.05 L32.05 17.65 Q33.55 22.05 33.35 26.35 33.3 28.85 32.7 31.3 31.95 34.05 30.65 36.1 L30.4 36.5 30.7 36.1 Q31.9 34.35 32.75 31.85 L33.1 30.85 33.75 26.25 Q34.75 25.3 35.65 25.75 35.9 21.3 34.3 16.8 L32.75 13.5" fill="#bec2ac" fill-rule="evenodd" stroke="none"/>
      <path d="M10.0 13.5 L8.85 12.1 Q7.75 13.85 7.05 16.2 L6.85 17.0 Q6.25 19.1 6.05 21.2 L6.15 25.15 7.05 24.9 Q6.95 22.85 7.2 20.85 L7.75 18.45 Q8.1 17.1 8.7 15.9 9.25 14.55 10.0 13.5" fill="#6f735d" fill-rule="evenodd" stroke="none"/>
      <path d="M25.75 40.75 L28.9 39.45 30.65 38.15 Q33.5 35.45 34.85 30.75 33.8 32.7 32.75 31.85 31.9 34.35 30.7 36.1 L30.4 36.5 30.4 36.55 29.95 37.2 Q28.55 39.0 26.5 40.3 L26.1 40.5 25.75 40.75" fill="#7d8071" fill-rule="evenodd" stroke="none"/>
      <path d="M21.35 6.65 Q21.95 5.9 24.85 6.2 21.8 5.1 19.1 5.65 L17.55 6.05 17.25 6.15 16.5 6.55 17.2 6.4 17.45 6.35 20.9 6.55 21.35 6.65" fill="#808566" fill-rule="evenodd" stroke="none"/>
      <path d="M20.9 6.55 L17.45 6.35 17.2 6.4 16.5 6.55 15.9 6.7 14.7 7.1 13.8 7.55 Q12.35 8.3 11.15 9.4 9.8 10.55 8.85 12.1 L10.0 13.5 11.55 11.8 13.85 10.2 14.6 9.75 15.7 9.45 16.25 9.35 16.3 9.3 16.85 9.15 17.45 9.05 Q19.8 9.0 22.3 10.1 L23.45 7.5 Q22.2 6.85 20.9 6.55 M30.65 36.1 Q31.95 34.05 32.7 31.3 33.3 28.85 33.35 26.35 33.55 22.05 32.05 17.65 L30.3 14.05 Q28.95 11.65 27.0 9.85 L25.65 12.55 Q28.3 15.0 29.75 18.95 31.1 23.0 30.85 27.0 L30.2 30.9 29.0 34.15 30.65 36.1" fill="#656955" fill-rule="evenodd" stroke="none"/>
      <path d="M16.1 40.95 Q21.05 43.15 25.7 40.8 L25.75 40.75 26.1 40.5 26.5 40.3 Q28.55 39.0 29.95 37.2 L30.4 36.55 30.4 36.5 30.65 36.1 29.0 34.15 27.85 36.0 Q26.5 37.9 24.15 39.1 L23.3 39.45 22.7 39.7 16.3 39.45 16.1 40.95" fill="#696e58" fill-rule="evenodd" stroke="none"/>
      <path d="M6.15 25.15 Q6.45 27.65 7.4 30.2 L7.5 30.6 7.9 31.5 9.1 34.05 10.8 36.55 Q12.8 39.05 15.4 40.5 L16.1 40.95 16.3 39.45 15.15 38.9 11.85 36.35 10.5 34.6 Q9.25 32.7 8.35 30.3 L8.3 30.25 8.2 29.95 Q7.3 27.4 7.05 24.9 L6.15 25.15" fill="#5b5e4d" fill-rule="evenodd" stroke="none"/>
      <path d="M27.0 9.85 L24.1 7.8 23.45 7.5 22.3 10.1 22.85 10.4 25.65 12.55 27.0 9.85" fill="#515741" fill-rule="evenodd" stroke="none"/>
      <path d="M17.45 9.05 L16.85 9.15 16.3 9.3 16.25 9.35 15.7 9.45 14.6 9.75 13.85 10.2 11.55 11.8 10.0 13.5 Q9.25 14.55 8.7 15.9 10.05 14.65 10.75 15.4 11.8 12.95 13.6 11.3 L15.95 9.75 16.2 9.6 Q16.45 9.4 16.65 9.3 L17.45 9.05" fill="#4b4d3c" fill-rule="evenodd" stroke="none"/>
      <path d="M10.75 15.4 Q10.05 14.65 8.7 15.9 8.1 17.1 7.75 18.45 L7.2 20.85 7.6 21.0 Q8.55 21.5 9.3 20.3 L9.8 18.0 Q10.2 16.55 10.75 15.4" fill="#646652" fill-rule="evenodd" stroke="none"/>
      <path d="M11.85 36.35 L15.15 38.9 16.3 39.45 22.7 39.7 Q20.05 39.95 17.25 38.45 15.45 37.4 14.0 35.9 L13.85 35.8 Q14.15 37.2 11.85 36.35" fill="#5c5e4f" fill-rule="evenodd" stroke="none"/>
      <path d="M24.75 6.25 Q25.6 6.55 26.4 7.0 30.25 9.25 32.75 13.5 M16.5 6.55 L17.25 6.15 17.55 6.05 19.1 5.65 Q21.8 5.1 24.85 6.2 M8.85 12.1 Q9.8 10.55 11.15 9.4 12.35 8.3 13.8 7.55 L14.7 7.1 15.9 6.7 16.5 6.55 M17.45 9.05 L16.65 9.3 Q16.45 9.4 16.2 9.6 L15.95 9.75 13.6 11.3 Q11.8 12.95 10.75 15.4 10.2 16.55 9.8 18.0 L9.3 20.3 Q8.8 23.7 9.6 27.05 L10.2 29.35 10.4 29.75 Q11.7 33.35 13.85 35.8 L14.0 35.9 Q15.45 37.4 17.25 38.45 20.05 39.95 22.7 39.7 M25.65 12.55 L22.85 10.4 22.3 10.1 Q19.8 9.0 17.45 9.05 M8.85 12.1 Q7.75 13.85 7.05 16.2 L6.85 17.0 Q6.25 19.1 6.05 21.2 L6.15 25.15 Q6.45 27.65 7.4 30.2 L7.5 30.6 7.9 31.5 9.1 34.05 10.8 36.55 Q12.8 39.05 15.4 40.5 L16.1 40.95 Q21.05 43.15 25.7 40.8 L25.85 40.75 25.75 40.75 28.9 39.45 30.65 38.15 Q33.5 35.45 34.85 30.75 L34.95 30.5 Q35.55 28.1 35.65 25.75 35.9 21.3 34.3 16.8 L32.75 13.5 M17.25 6.15 L15.9 6.7 M7.05 24.9 Q7.3 27.4 8.2 29.95 L8.3 30.25 8.35 30.3 Q9.25 32.7 10.5 34.6 L11.85 36.35 M25.65 12.55 Q28.3 15.0 29.75 18.95 31.1 23.0 30.85 27.0 L30.2 30.9 29.0 34.15 27.85 36.0 Q26.5 37.9 24.15 39.1 L23.3 39.45 22.7 39.7" fill="none" stroke="#000000" stroke-linecap="round" stroke-linejoin="round" stroke-opacity="0.3019608" stroke-width="0.05"/>
      <path d="M25.0 34.8 L25.2 31.7 24.9 31.45 20.75 31.05 20.75 31.8 21.05 34.95 25.0 34.8" fill="#ad5600" fill-rule="evenodd" stroke="none"/>
      <path d="M25.2 31.7 L25.0 34.8 28.05 33.95 28.55 31.25 25.2 31.7" fill="#cc6b00" fill-rule="evenodd" stroke="none"/>
      <path d="M25.2 31.7 L25.0 34.8 21.05 34.95 20.75 31.8 M28.55 31.25 L28.05 33.95 25.0 34.8" fill="none" stroke="#000000" stroke-linecap="round" stroke-linejoin="round" stroke-opacity="0.3019608" stroke-width="0.05"/>
      <path d="M17.35 17.65 L15.7 15.5 Q12.9 16.9 12.05 20.25 L15.05 21.55 17.35 17.65" fill="#75735e" fill-rule="evenodd" stroke="none"/>
      <path d="M18.55 17.25 L17.35 17.65 15.05 21.55 16.25 21.4 18.65 17.4 18.55 17.25" fill="#595843" fill-rule="evenodd" stroke="none"/>
      <path d="M18.55 17.25 L16.9 15.2 15.8 15.35 15.7 15.5 17.35 17.65 18.55 17.25" fill="#98997a" fill-rule="evenodd" stroke="none"/>
      <path d="M15.7 15.5 L15.8 15.35 16.9 15.2 18.55 17.25 M12.05 20.25 L15.05 21.55 16.25 21.4 18.65 17.4 18.55 17.25" fill="none" stroke="#000000" stroke-linecap="round" stroke-linejoin="round" stroke-opacity="0.3019608" stroke-width="0.05"/>
      <path d="M16.65 22.55 L14.8 22.95 Q14.35 25.1 14.9 27.6 L17.3 27.7 17.9 27.7 17.5 22.8 17.3 22.45 16.65 22.55" fill="#ad5600" fill-rule="evenodd" stroke="none"/>
      <path d="M16.65 22.55 L14.8 22.95 Q14.35 25.1 14.9 27.6 L17.3 27.7" fill="none" stroke="#000000" stroke-linecap="round" stroke-linejoin="round" stroke-opacity="0.3019608" stroke-width="0.05"/>
      <path d="M12.85 26.7 L12.6 26.75 12.2 26.8 Q12.0 26.8 11.95 26.9 L11.85 26.85 11.7 26.9 11.6 27.0 11.5 26.95 11.45 27.0 11.35 27.05 10.6 27.6 10.55 27.65 Q9.75 28.45 9.35 29.7 L9.15 31.25 Q9.15 32.35 9.55 33.5 L9.65 33.5 10.25 34.9 Q10.9 35.75 11.8 36.25 12.7 36.8 13.55 36.65 L14.1 36.55 14.15 36.55 14.4 36.45 14.6 36.25 14.85 36.25 15.15 35.95 15.85 35.35 16.6 33.7 16.65 33.45 16.85 32.15 Q16.85 31.0 16.45 29.9 16.05 28.85 15.45 28.1 L15.35 28.0 15.25 27.9 15.0 27.75 14.2 27.15 13.25 26.8 12.9 26.75 12.85 26.7 M10.55 31.55 L10.65 30.8 10.7 30.7 Q10.8 30.0 11.3 29.55 L11.75 29.25 11.85 29.2 12.1 29.1 12.15 29.15 12.25 29.1 12.4 29.05 13.35 29.3 13.8 29.7 13.9 29.75 14.55 30.85 Q14.85 31.95 14.65 32.95 L14.55 33.25 14.2 33.85 13.6 34.45 13.45 34.5 13.3 34.55 12.0 34.4 11.2 33.65 10.75 32.85 10.45 31.75 10.55 31.55" fill="#85836b" fill-rule="evenodd" stroke="none"/>
      <path d="M17.95 27.4 L17.75 27.2 16.95 26.6 Q16.2 26.15 15.45 26.15 L12.85 26.7 12.9 26.75 13.25 26.8 14.55 27.2 15.35 27.8 15.5 27.95 Q16.7 26.95 17.95 27.4" fill="#98997a" fill-rule="evenodd" stroke="none"/>
      <path d="M14.4 36.45 L17.0 36.0 17.1 35.9 17.4 35.75 18.1 35.4 Q17.8 34.95 15.3 35.9 L15.15 35.95 14.85 36.25 14.6 36.25 14.4 36.45" fill="#595843" fill-rule="evenodd" stroke="none"/>
      <path d="M10.55 31.55 L10.45 31.75 10.75 32.85 11.2 33.65 12.0 34.4 13.3 34.55 13.45 34.5 13.6 34.45 14.2 33.85 14.55 33.25 Q12.8 32.95 12.35 30.85 11.5 31.0 10.55 31.55" fill="#999174" fill-rule="evenodd" stroke="none"/>
      <path d="M19.55 31.5 L19.2 29.35 Q18.75 28.2 18.1 27.5 L18.05 27.45 17.95 27.4 Q16.7 26.95 15.5 27.95 L15.35 27.8 14.55 27.2 13.25 26.8 14.2 27.15 15.0 27.75 15.25 27.9 15.35 28.0 15.45 28.1 Q16.05 28.85 16.45 29.9 16.85 31.0 16.85 32.15 L16.65 33.45 16.6 33.7 15.85 35.35 15.15 35.95 15.3 35.9 16.0 35.25 16.85 33.6 16.9 33.4 17.1 32.25 Q19.0 33.05 19.55 31.5" fill="#aaad8a" fill-rule="evenodd" stroke="none"/>
      <path d="M18.1 35.4 L18.55 34.75 19.35 33.2 19.55 31.5 Q19.0 33.05 17.1 32.25 L16.9 33.4 16.85 33.6 16.0 35.25 15.3 35.9 Q17.8 34.95 18.1 35.4" fill="#636047" fill-rule="evenodd" stroke="none"/>
      <path d="M13.9 29.75 L13.8 29.7 13.35 29.3 12.4 29.05 12.25 29.1 12.15 29.15 12.1 29.1 11.85 29.2 11.75 29.25 11.3 29.55 Q10.8 30.0 10.7 30.7 L10.65 30.8 10.55 31.55 Q11.5 31.0 12.35 30.85 12.8 32.95 14.55 33.25 L14.65 32.95 14.4 32.6 14.05 31.9 Q13.8 31.4 13.85 30.85 L13.9 29.75" fill="#5c553c" fill-rule="evenodd" stroke="none"/>
      <path d="M19.55 31.5 L19.2 29.35 Q18.75 28.2 18.1 27.5 M18.05 27.45 L17.95 27.4 17.75 27.2 16.95 26.6 Q16.2 26.15 15.45 26.15 L12.85 26.7 12.6 26.75 12.5 26.7 12.3 26.75 12.2 26.8 Q12.0 26.8 11.95 26.9 L11.85 26.85 11.7 26.9 11.6 27.0 11.5 26.95 11.45 27.0 11.35 27.05 10.6 27.6 10.55 27.65 Q9.75 28.45 9.35 29.7 L9.15 31.25 Q9.15 32.35 9.55 33.5 L9.65 33.5 10.25 34.9 Q10.9 35.75 11.8 36.25 12.7 36.8 13.55 36.65 L14.1 36.55 14.15 36.55 14.4 36.45 17.0 36.0 17.1 35.9 17.4 35.75 18.1 35.4 18.55 34.75 19.35 33.2 19.55 31.5 M12.9 26.75 L12.85 26.7 M11.6 27.0 L11.5 26.95 M12.2 26.8 L12.6 26.75 M13.9 29.75 L13.8 29.7 13.35 29.3 12.4 29.05 12.25 29.1 12.15 29.15 12.1 29.1 11.85 29.2 11.75 29.25 11.3 29.55 Q10.8 30.0 10.7 30.7 L10.65 30.8 10.55 31.55 10.45 31.75 10.75 32.85 11.2 33.65 12.0 34.4 13.3 34.55 13.45 34.5 13.6 34.45 14.2 33.85 14.55 33.25 14.65 32.95 Q14.85 31.95 14.55 30.85 L13.9 29.75 13.85 30.85 Q13.8 31.4 14.05 31.9 L14.4 32.6 14.65 32.95 M14.4 36.45 L14.6 36.25 14.85 36.25" fill="none" stroke="#000000" stroke-linecap="round" stroke-linejoin="round" stroke-opacity="0.3019608" stroke-width="0.05"/>
      <path d="M15.15 39.05 Q16.6 38.5 16.9 37.3 L15.85 35.35 16.0 35.15 15.85 35.1 14.7 35.95 Q13.85 36.55 13.15 36.65 L13.25 36.7 15.1 39.05 15.15 39.05" fill="#85836b" fill-rule="evenodd" stroke="none"/>
      <path d="M15.15 39.05 L17.8 38.45 Q18.95 38.1 19.35 36.65 L16.9 37.3 Q16.6 38.5 15.15 39.05" fill="#595843" fill-rule="evenodd" stroke="none"/>
      <path d="M16.9 37.3 L19.35 36.65 18.55 34.55 15.85 35.35 16.9 37.3" fill="#98997a" fill-rule="evenodd" stroke="none"/>
      <path d="M19.35 36.65 Q18.95 38.1 17.8 38.45 L15.15 39.05 Q16.6 38.5 16.9 37.3 L19.35 36.65 18.55 34.55 M13.25 36.7 L15.1 39.05 15.15 39.05" fill="none" stroke="#000000" stroke-linecap="round" stroke-linejoin="round" stroke-opacity="0.3019608" stroke-width="0.05"/>
      <path d="M12.7 25.2 L12.65 25.15 Q11.05 25.3 10.6 26.1 L10.7 27.55 13.55 26.75 12.7 25.2" fill="#85836b" fill-rule="evenodd" stroke="none"/>
      <path d="M16.15 26.35 L15.45 25.0 12.7 25.2 13.55 26.75 16.15 26.35" fill="#6f735d" fill-rule="evenodd" stroke="none"/>
      <path d="M16.15 26.35 L15.45 25.0 12.7 25.2 12.65 25.15 Q11.05 25.3 10.6 26.1 L10.7 27.55" fill="none" stroke="#000000" stroke-linecap="round" stroke-linejoin="round" stroke-opacity="0.3019608" stroke-width="0.05"/>
      <path d="M31.9 9.9 Q32.05 9.25 31.5 8.5 L31.6 9.15 Q31.35 9.8 30.0 9.6 L28.9 9.45 26.85 8.8 26.25 8.45 Q24.85 8.65 25.8 9.55 L26.5 9.9 28.7 10.65 28.65 9.8 31.9 9.9 M27.95 5.9 Q26.1 5.1 24.55 5.1 22.95 5.05 22.65 5.9 22.4 6.5 23.05 7.4 23.8 7.7 23.5 6.5 23.1 5.95 23.25 5.6 23.5 4.95 24.8 5.1 26.15 5.2 27.95 5.9" fill="#6f735d" fill-rule="evenodd" stroke="none"/>
      <path d="M28.7 10.65 L30.05 10.8 Q31.6 10.75 31.9 9.95 L31.9 9.9 28.65 9.8 28.7 10.65" fill="#979988" fill-rule="evenodd" stroke="none"/>
      <path d="M31.5 8.5 L31.1 8.0 30.3 7.25 29.75 6.9 28.0 5.95 27.95 5.9 Q26.15 5.2 24.8 5.1 23.5 4.95 23.25 5.6 23.1 5.95 23.5 6.5 23.8 7.7 23.05 7.4 L23.5 7.9 25.8 9.55 Q24.85 8.65 26.25 8.45 L26.85 8.8 28.9 9.45 30.0 9.6 Q31.35 9.8 31.6 9.15 L31.5 8.5" fill="#545940" fill-rule="evenodd" stroke="none"/>
      <path d="M28.7 10.65 L30.05 10.8 Q31.6 10.75 31.9 9.95 L31.9 9.9 Q32.05 9.25 31.5 8.5 L31.1 8.0 30.3 7.25 29.75 6.9 M27.95 5.9 Q26.1 5.1 24.55 5.1 22.95 5.05 22.65 5.9 22.4 6.5 23.05 7.4 L23.5 7.9 25.8 9.55 26.5 9.9 28.7 10.65 Z" fill="none" stroke="#000000" stroke-linecap="round" stroke-linejoin="round" stroke-opacity="0.3019608" stroke-width="0.05"/>
      <path d="M24.3 3.5 L23.9 4.1 Q23.5 5.05 24.55 6.3 25.45 7.55 27.2 8.25 28.9 9.1 30.45 8.9 31.9 8.7 32.25 7.8 L29.75 7.5 28.9 7.3 28.3 7.0 Q25.5 5.95 24.3 3.5" fill="#6f735d" fill-rule="evenodd" stroke="none"/>
      <path d="M32.25 7.8 L32.25 7.75 Q32.65 6.8 31.7 5.6 30.7 4.35 29.0 3.55 27.25 2.85 25.8 2.95 24.8 3.05 24.3 3.5 25.5 5.95 28.3 7.0 L27.9 6.6 Q27.5 6.15 27.7 5.7 27.85 5.25 28.5 5.1 L29.65 5.25 30.75 5.95 Q31.0 6.45 30.85 6.9 30.65 7.35 30.15 7.45 L29.75 7.5 32.25 7.8" fill="#979988" fill-rule="evenodd" stroke="none"/>
      <path d="M29.75 7.5 L30.15 7.45 Q30.65 7.35 30.85 6.9 31.0 6.45 30.75 5.95 L29.65 5.25 28.5 5.1 Q27.85 5.25 27.7 5.7 27.5 6.15 27.9 6.6 L28.3 7.0 28.9 7.3 29.75 7.5" fill="#bec2ac" fill-rule="evenodd" stroke="none"/>
      <path d="M32.25 7.8 L32.25 7.75 Q32.65 6.8 31.7 5.6 30.7 4.35 29.0 3.55 27.25 2.85 25.8 2.95 24.8 3.05 24.3 3.5 L23.9 4.1 Q23.5 5.05 24.55 6.3 25.45 7.55 27.2 8.25 28.9 9.1 30.45 8.9 31.9 8.7 32.25 7.8 Z" fill="none" stroke="#000000" stroke-linecap="round" stroke-linejoin="round" stroke-opacity="0.3019608" stroke-width="0.05"/>
    </g>
  </defs>
</svg>
