<?xml version="1.0" encoding="UTF-8" standalone="no"?>
<svg xmlns:xlink="http://www.w3.org/1999/xlink" height="600.0px" width="600.0px" xmlns="http://www.w3.org/2000/svg">
  <g transform="matrix(10.0, 0.0, 0.0, 10.0, 0.0, 0.0)">
    <use height="60.0" transform="matrix(1.0, 0.0, 0.0, 1.0, 0.0, 0.0)" width="60.0" xlink:href="#sprite0"/>
    <use height="52.8" transform="matrix(1.0, 0.0, 0.0, 1.0, 9.15, 3.4)" width="41.7" xlink:href="#shape1"/>
    <use height="51.8" transform="matrix(1.0, 0.0, 0.0, 1.0, 9.65, 3.9)" width="40.7" xlink:href="#sprite1"/>
    <use height="52.8" transform="matrix(1.0, 0.0, 0.0, 1.0, 9.15, 3.4)" width="41.7" xlink:href="#sprite2"/>
    <use height="32.2" transform="matrix(-0.3806, 0.0, 0.0, 0.3693, 30.45, 31.95)" width="32.2" xlink:href="#sprite4"/>
    <use height="4.6" transform="matrix(1.0, 0.0, 0.0, 1.0, 26.55, 9.9)" width="5.7" xlink:href="#shape6"/>
    <use height="32.2" transform="matrix(-0.639, 0.0, 0.0, 0.6201, 39.5, 14.3)" width="32.2" xlink:href="#sprite4"/>
    <use height="10.05" transform="matrix(1.0, 0.0, 0.0, 1.0, 23.9, 18.5)" width="12.6" xlink:href="#shape7"/>
    <use height="165.7" transform="matrix(-0.0498, -0.0406, -0.0759, 0.1504, 35.85, 20.5)" width="185.15" xlink:href="#sprite5"/>
  </g>
  <defs>
    <g id="sprite0" transform="matrix(1.0, 0.0, 0.0, 1.0, 0.0, 0.0)">
      <use height="60.0" transform="matrix(1.0, 0.0, 0.0, 1.0, 0.0, 0.0)" width="60.0" xlink:href="#shape0"/>
    </g>
    <g id="shape0" transform="matrix(1.0, 0.0, 0.0, 1.0, 0.0, 0.0)">
      <path d="M60.0 0.0 L60.0 60.0 0.0 60.0 0.0 0.0 60.0 0.0" fill="#ffba2e" fill-opacity="0.0" fill-rule="evenodd" stroke="none"/>
    </g>
    <g id="shape1" transform="matrix(1.0, 0.0, 0.0, 1.0, -9.15, -3.4)">
      <path d="M46.8 23.75 L50.35 22.8 46.8 23.75 M19.45 22.35 L17.65 20.7 17.55 20.55 Q20.0 16.2 23.45 14.05 L23.6 14.0 23.65 14.0 23.7 13.9 23.75 13.95 24.6 7.3 26.85 5.85 28.35 5.7 30.05 12.05 31.2 11.7 31.8 11.65 36.75 4.45 39.15 3.9 41.6 6.3 40.0 15.35 Q41.85 17.65 42.8 21.0 L42.85 21.1 42.9 21.35 49.95 20.45 50.1 20.4 50.35 22.8 50.35 22.9 43.75 27.8 43.7 29.85 43.65 30.0 Q43.4 33.95 41.85 37.8 L37.8 39.05 35.75 37.1 35.35 37.75 35.35 37.8 Q34.35 39.5 34.2 40.9 L34.25 42.15 34.7 42.95 36.1 42.45 38.1 44.45 Q35.95 46.95 33.2 48.25 L32.7 48.45 32.15 48.7 30.75 54.55 29.0 55.1 27.45 55.3 26.05 50.1 24.1 50.05 23.05 49.85 19.6 54.95 16.95 55.7 15.0 53.9 15.0 53.8 16.8 44.75 Q15.85 43.2 15.2 41.3 L15.2 41.2 10.2 42.25 9.65 40.75 14.2 36.3 14.15 36.25 14.2 35.9 14.15 35.55 Q14.0 32.5 14.45 29.5 L19.4 28.2 20.65 29.3 20.95 28.75 21.0 28.6 21.35 27.05 Q22.0 24.3 21.3 22.65 L20.9 21.95 20.85 22.0 20.8 22.15 19.45 22.35 19.95 21.55 20.75 20.3 Q22.25 18.3 24.05 17.15 22.25 18.3 20.75 20.3 L19.95 21.55 19.45 22.35 M32.85 15.4 L34.45 14.25 34.6 14.1 35.2 13.65 35.25 13.7 Q35.2 14.6 34.7 15.3 L34.0 15.9 33.7 16.05 33.45 16.1 Q32.75 16.2 32.35 15.7 31.85 15.15 31.9 14.35 31.95 13.5 32.5 12.85 32.95 12.2 33.7 12.05 L33.85 12.0 Q34.35 11.9 34.85 12.4 L35.0 12.65 34.6 12.85 34.45 13.0 32.55 14.55 34.45 13.0 34.6 12.85 35.0 12.65 34.85 12.4 Q34.35 11.9 33.85 12.0 L33.7 12.05 Q32.95 12.2 32.5 12.85 31.95 13.5 31.9 14.35 31.85 15.15 32.35 15.7 32.75 16.2 33.45 16.1 L33.7 16.05 34.0 15.9 34.7 15.3 Q35.2 14.6 35.25 13.7 L35.2 13.65 34.6 14.1 34.45 14.25 32.85 15.4 M38.75 26.7 L40.25 25.55 40.3 25.55 40.75 25.2 40.45 24.35 40.35 24.25 Q40.0 23.8 39.5 23.9 L39.4 23.9 39.35 23.9 Q38.85 24.05 38.45 24.5 38.05 25.15 38.0 25.8 37.95 26.45 38.35 26.8 38.7 27.3 39.25 27.2 L39.65 27.05 39.85 26.95 40.3 26.55 40.75 25.3 40.75 25.2 40.75 25.3 40.3 26.55 39.85 26.95 39.65 27.05 39.25 27.2 Q38.7 27.3 38.35 26.8 37.95 26.45 38.0 25.8 38.05 25.15 38.45 24.5 38.85 24.05 39.35 23.9 L39.4 23.9 39.5 23.9 Q40.0 23.8 40.35 24.25 L40.45 24.35 40.75 25.2 40.3 25.55 40.25 25.55 38.75 26.7 M25.5 12.3 L25.55 12.35 25.65 12.3 25.5 12.3 Q25.05 12.4 24.75 12.9 24.35 13.35 24.35 13.85 24.35 14.4 24.65 14.8 24.85 15.1 25.35 15.0 L25.7 14.9 26.15 14.45 Q26.6 14.0 26.55 13.45 L26.6 13.4 25.0 14.6 26.6 13.4 26.55 13.45 Q26.6 14.0 26.15 14.45 L25.7 14.9 25.35 15.0 Q24.85 15.1 24.65 14.8 24.35 14.4 24.35 13.85 24.35 13.35 24.75 12.9 25.05 12.4 25.5 12.3 M35.75 37.1 L35.6 37.05 35.55 36.7 Q36.7 33.6 36.9 30.4 L36.95 27.85 36.85 26.25 36.55 24.45 36.55 24.3 36.5 24.2 Q36.0 21.65 34.9 19.8 L34.35 18.95 33.4 17.8 32.75 17.25 32.7 17.2 32.75 17.2 32.7 17.15 31.55 16.35 31.2 16.25 Q30.5 15.85 29.8 15.75 L26.75 15.9 26.4 16.05 26.4 16.1 26.25 16.15 26.0 16.25 Q22.95 17.95 20.85 22.0 22.95 17.95 26.0 16.25 L26.25 16.15 26.4 16.1 26.4 16.05 26.75 15.9 26.3 16.05 26.2 16.05 26.05 16.1 25.15 16.55 Q24.75 16.7 24.35 17.0 24.75 16.7 25.15 16.55 L26.05 16.1 26.2 16.05 26.3 16.05 26.75 15.9 29.8 15.75 Q30.5 15.85 31.2 16.25 L31.55 16.35 32.7 17.15 32.75 17.2 32.7 17.2 32.75 17.25 33.4 17.8 34.35 18.95 34.9 19.8 Q36.0 21.65 36.5 24.2 L36.55 24.3 36.55 24.45 36.85 26.25 36.95 27.85 36.9 30.4 Q36.7 33.6 35.55 36.7 L35.6 37.05 35.75 37.1 M26.6 13.4 L26.35 12.65 26.35 12.6 Q26.0 12.25 25.65 12.3 26.0 12.25 26.35 12.6 L26.35 12.65 26.6 13.4 M28.1 23.4 L28.15 23.45 28.15 23.3 28.1 23.4 M14.2 37.5 L13.4 38.1 Q13.0 38.55 12.95 39.2 12.95 39.7 13.3 40.05 13.6 40.4 14.05 40.4 L14.3 40.25 14.35 40.25 14.4 40.2 14.95 39.8 15.3 38.75 15.3 38.65 15.2 37.9 15.05 37.8 Q14.8 37.5 14.35 37.55 14.8 37.5 15.05 37.8 L15.2 37.9 15.3 38.65 15.3 38.75 14.95 39.8 14.4 40.2 14.35 40.25 14.3 40.25 14.05 40.4 Q13.6 40.4 13.3 40.05 12.95 39.7 12.95 39.2 13.0 38.55 13.4 38.1 L14.2 37.5 14.25 37.6 14.35 37.55 14.2 37.5 M20.7 44.45 L20.5 43.35 20.45 43.2 20.45 41.8 20.3 41.95 20.05 42.1 19.8 42.25 19.3 42.45 19.9 43.4 20.7 44.45 Q20.95 45.8 21.8 46.55 20.95 45.8 20.7 44.45 L19.9 43.4 19.3 42.45 19.8 42.25 20.05 42.1 20.3 41.95 20.45 41.8 20.45 43.2 20.5 43.35 20.7 44.45 M17.7 36.0 L17.65 35.55 Q17.55 33.35 17.85 31.15 L17.8 31.05 19.9 30.4 19.95 30.3 20.65 29.3 19.95 30.3 19.9 30.4 17.8 31.05 17.85 31.15 Q17.55 33.35 17.65 35.55 L17.7 36.0 18.4 34.1 18.55 33.65 Q19.45 31.75 20.5 31.0 21.0 30.55 21.45 30.6 L21.75 30.75 Q21.65 29.65 21.95 28.25 L22.45 27.3 Q25.05 22.8 28.15 19.3 L30.2 17.2 30.4 17.05 31.2 16.25 30.4 17.05 30.2 17.2 28.15 19.3 Q25.05 22.8 22.45 27.3 L21.95 28.25 Q21.65 29.65 21.75 30.75 L21.45 30.6 Q21.0 30.55 20.5 31.0 19.45 31.75 18.55 33.65 L18.4 34.1 17.7 36.0 17.55 36.55 17.45 37.35 17.25 38.45 17.15 39.65 17.2 40.6 17.15 39.65 17.25 38.45 17.45 37.35 17.55 36.55 17.7 36.0 M40.45 24.35 L40.1 24.7 40.05 24.7 38.5 25.9 40.05 24.7 40.1 24.7 40.45 24.35 M35.2 13.65 L35.0 12.65 35.2 13.65 M26.35 12.65 L24.75 13.95 26.35 12.65 M15.3 38.65 L14.95 38.95 14.9 39.0 13.75 39.9 14.9 39.0 14.95 38.95 15.3 38.65 M20.8 36.0 L20.8 35.9 20.85 35.7 20.75 34.85 20.2 35.7 19.8 37.2 Q19.7 37.95 19.95 38.15 L20.45 37.3 20.8 36.0 20.45 37.3 19.95 38.15 Q19.7 37.95 19.8 37.2 L20.2 35.7 20.75 34.85 20.85 35.7 20.8 35.9 20.8 36.0 M18.7 46.3 L18.55 46.25 18.6 46.35 18.7 46.3 Q19.3 46.3 19.65 46.65 L19.75 46.85 20.05 47.75 20.0 47.9 Q19.95 48.65 19.45 49.2 L18.85 49.8 18.4 49.95 Q17.8 50.05 17.4 49.6 17.05 49.15 17.0 48.4 17.05 47.7 17.5 47.05 17.95 46.45 18.55 46.25 17.95 46.45 17.5 47.05 17.05 47.7 17.0 48.4 17.05 49.15 17.4 49.6 17.8 50.05 18.4 49.95 L18.85 49.8 19.45 49.2 Q19.95 48.65 20.0 47.9 L20.05 47.75 19.75 46.85 19.65 46.65 Q19.3 46.3 18.7 46.3 M28.25 47.75 Q27.75 47.85 27.4 48.35 27.05 48.9 26.95 49.45 26.95 50.0 27.35 50.35 27.6 50.75 28.15 50.65 L28.45 50.55 28.5 50.5 29.0 50.05 29.4 49.0 29.4 48.9 29.2 48.15 29.1 48.05 Q28.75 47.75 28.35 47.75 28.75 47.75 29.1 48.05 L29.2 48.15 29.4 48.9 29.4 49.0 29.0 50.05 28.5 50.5 28.45 50.55 28.15 50.65 Q27.6 50.75 27.35 50.35 26.95 50.0 26.95 49.45 27.05 48.9 27.4 48.35 27.75 47.85 28.25 47.75 L28.3 47.8 28.35 47.75 28.25 47.75 M34.7 42.95 L31.35 43.95 31.3 44.05 Q30.3 45.05 29.15 45.85 L28.15 46.35 27.45 46.7 26.35 47.05 25.7 47.2 24.8 47.15 25.5 46.85 Q27.05 46.05 28.0 43.85 28.9 41.7 28.7 39.35 28.6 37.25 27.45 36.15 L26.5 36.2 27.45 36.15 28.4 35.9 29.6 35.25 30.45 34.95 30.45 34.9 Q30.9 27.35 33.4 17.8 30.9 27.35 30.45 34.9 L30.45 34.95 29.6 35.25 28.4 35.9 27.45 36.15 Q28.6 37.25 28.7 39.35 28.9 41.7 28.0 43.85 27.05 46.05 25.5 46.85 L24.8 47.15 25.7 47.2 26.35 47.05 27.45 46.7 28.15 46.35 29.15 45.85 Q30.3 45.05 31.3 44.05 L31.35 43.95 34.7 42.95 M24.45 39.35 L24.05 40.15 Q23.75 40.9 23.75 41.75 23.75 42.6 24.15 42.95 L24.6 43.15 25.0 42.7 25.1 42.4 Q25.4 41.6 25.3 40.8 L25.3 40.75 24.95 39.55 24.45 39.35 24.95 39.55 25.3 40.75 25.3 40.8 Q25.4 41.6 25.1 42.4 L25.0 42.7 24.6 43.15 24.15 42.95 Q23.75 42.6 23.75 41.75 23.75 40.9 24.05 40.15 L24.45 39.35 M26.05 32.55 L27.95 24.25 Q26.25 26.55 24.55 29.8 L24.5 32.7 26.05 32.55 24.5 32.7 24.55 29.8 Q26.25 26.55 27.95 24.25 L26.05 32.55 M15.2 37.9 L13.45 39.25 15.2 37.9 M20.05 47.75 L19.3 48.3 19.3 48.35 17.85 49.45 19.3 48.35 19.3 48.3 20.05 47.75 M19.75 46.85 L19.2 47.3 19.15 47.3 17.55 48.6 19.15 47.3 19.2 47.3 19.75 46.85 M27.45 49.6 L28.7 48.55 28.75 48.55 29.2 48.15 28.75 48.55 28.7 48.55 27.45 49.6 M29.4 48.9 L29.1 49.15 29.0 49.15 27.7 50.25 29.0 49.15 29.1 49.15 29.4 48.9" fill="#0066cc" fill-opacity="0.29803923" fill-rule="evenodd" stroke="none"/>
      <path d="M50.35 22.8 L46.8 23.75 M50.35 22.8 L50.1 20.4 49.95 20.45 42.9 21.35 42.85 21.1 42.8 21.0 Q41.85 17.65 40.0 15.35 L41.6 6.3 39.15 3.9 36.75 4.45 31.8 11.65 31.2 11.7 30.05 12.05 28.35 5.7 26.85 5.85 24.6 7.3 23.75 13.95 23.7 13.9 23.65 14.0 23.6 14.0 23.45 14.05 Q20.0 16.2 17.55 20.55 L17.65 20.7 19.45 22.35 19.95 21.55 20.75 20.3 Q22.25 18.3 24.05 17.15 M50.35 22.8 L50.35 22.9 43.75 27.8 43.7 29.85 43.65 30.0 Q43.4 33.95 41.85 37.8 L37.8 39.05 35.75 37.1 35.35 37.75 35.35 37.8 Q34.35 39.5 34.2 40.9 L34.25 42.15 34.7 42.95 36.1 42.45 38.1 44.45 Q35.95 46.95 33.2 48.25 L32.7 48.45 32.15 48.7 30.75 54.55 29.0 55.1 27.45 55.3 26.05 50.1 24.1 50.05 23.05 49.85 19.6 54.95 16.95 55.7 15.0 53.9 15.0 53.8 16.8 44.75 Q15.85 43.2 15.2 41.3 L15.2 41.2 10.2 42.25 9.65 40.75 14.2 36.3 M14.15 36.25 L14.2 35.9 14.15 35.55 Q14.0 32.5 14.45 29.5 L19.4 28.2 20.65 29.3 20.95 28.75 21.0 28.6 21.35 27.05 Q22.0 24.3 21.3 22.65 L20.9 21.95 20.85 22.0 20.8 22.15 19.45 22.35 M40.75 25.2 L40.75 25.3 40.3 26.55 39.85 26.95 39.65 27.05 39.25 27.2 Q38.7 27.3 38.35 26.8 37.95 26.45 38.0 25.8 38.05 25.15 38.45 24.5 38.85 24.05 39.35 23.9 L39.4 23.9 39.5 23.9 Q40.0 23.8 40.35 24.25 L40.45 24.35 40.75 25.2 40.3 25.55 40.25 25.55 38.75 26.7 M32.55 14.55 L34.45 13.0 34.6 12.85 35.0 12.65 34.85 12.4 Q34.35 11.9 33.85 12.0 L33.7 12.05 Q32.95 12.2 32.5 12.85 31.95 13.5 31.9 14.35 31.85 15.15 32.35 15.7 32.75 16.2 33.45 16.1 L33.7 16.05 34.0 15.9 34.7 15.3 Q35.2 14.6 35.25 13.7 L35.2 13.65 34.6 14.1 34.45 14.25 32.85 15.4 M25.5 12.3 Q25.05 12.4 24.75 12.9 24.35 13.35 24.35 13.85 24.35 14.4 24.65 14.8 24.85 15.1 25.35 15.0 L25.7 14.9 26.15 14.45 Q26.6 14.0 26.55 13.45 L26.6 13.4 25.0 14.6 M25.55 12.35 L25.65 12.3 25.5 12.3 M25.65 12.3 Q26.0 12.25 26.35 12.6 L26.35 12.65 26.6 13.4 M20.85 22.0 Q22.95 17.95 26.0 16.25 L26.25 16.15 26.4 16.1 26.4 16.05 26.75 15.9 26.3 16.05 26.2 16.05 26.05 16.1 25.15 16.55 Q24.75 16.7 24.35 17.0 M26.75 15.9 L29.8 15.75 Q30.5 15.85 31.2 16.25 L31.55 16.35 32.7 17.15 32.75 17.2 32.7 17.2 32.75 17.25 33.4 17.8 34.35 18.95 34.9 19.8 Q36.0 21.65 36.5 24.2 L36.55 24.3 36.55 24.45 36.85 26.25 36.95 27.85 36.9 30.4 Q36.7 33.6 35.55 36.7 L35.6 37.05 35.75 37.1 M24.75 13.95 L26.35 12.65 M31.2 16.25 L30.4 17.05 30.2 17.2 28.15 19.3 Q25.05 22.8 22.45 27.3 L21.95 28.25 Q21.65 29.65 21.75 30.75 L21.45 30.6 Q21.0 30.55 20.5 31.0 19.45 31.75 18.55 33.65 L18.4 34.1 17.7 36.0 17.55 36.55 17.45 37.35 17.25 38.45 17.15 39.65 17.2 40.6 M35.0 12.65 L35.2 13.65 M38.5 25.9 L40.05 24.7 40.1 24.7 40.45 24.35 M20.65 29.3 L19.95 30.3 19.9 30.4 17.8 31.05 17.85 31.15 Q17.55 33.35 17.65 35.55 L17.7 36.0 M21.8 46.55 Q20.95 45.8 20.7 44.45 L19.9 43.4 19.3 42.45 19.8 42.25 20.05 42.1 20.3 41.95 20.45 41.8 20.45 43.2 20.5 43.35 20.7 44.45 M14.35 37.55 Q14.8 37.5 15.05 37.8 L15.2 37.9 15.3 38.65 15.3 38.75 14.95 39.8 14.4 40.2 14.35 40.25 14.3 40.25 14.05 40.4 Q13.6 40.4 13.3 40.05 12.95 39.7 12.95 39.2 13.0 38.55 13.4 38.1 L14.2 37.5 14.35 37.55 14.25 37.6 M20.8 36.0 L20.45 37.3 19.95 38.15 Q19.7 37.95 19.8 37.2 L20.2 35.7 20.75 34.85 20.85 35.7 20.8 35.9 20.8 36.0 M13.75 39.9 L14.9 39.0 14.95 38.95 15.3 38.65 M18.7 46.3 L18.55 46.25 M18.7 46.3 Q19.3 46.3 19.65 46.65 L19.75 46.85 20.05 47.75 20.0 47.9 Q19.95 48.65 19.45 49.2 L18.85 49.8 18.4 49.95 Q17.8 50.05 17.4 49.6 17.05 49.15 17.0 48.4 17.05 47.7 17.5 47.05 17.95 46.45 18.55 46.25 M17.55 48.6 L19.15 47.3 19.2 47.3 19.75 46.85 M17.85 49.45 L19.3 48.35 19.3 48.3 20.05 47.75 M13.45 39.25 L15.2 37.9 M26.5 36.2 L27.45 36.15 28.4 35.9 29.6 35.25 30.45 34.95 30.45 34.9 Q30.9 27.35 33.4 17.8 M26.05 32.55 L24.5 32.7 24.55 29.8 Q26.25 26.55 27.95 24.25 L26.05 32.55 M24.45 39.35 L24.95 39.55 25.3 40.75 25.3 40.8 Q25.4 41.6 25.1 42.4 L25.0 42.7 24.6 43.15 24.15 42.95 Q23.75 42.6 23.75 41.75 23.75 40.9 24.05 40.15 L24.45 39.35 M27.45 36.15 Q28.6 37.25 28.7 39.35 28.9 41.7 28.0 43.85 27.05 46.05 25.5 46.85 L24.8 47.15 25.7 47.2 26.35 47.05 27.45 46.7 28.15 46.35 29.15 45.85 Q30.3 45.05 31.3 44.05 L31.35 43.95 34.7 42.95 M28.35 47.75 Q28.75 47.75 29.1 48.05 L29.2 48.15 29.4 48.9 29.4 49.0 29.0 50.05 28.5 50.5 28.45 50.55 28.15 50.65 Q27.6 50.75 27.35 50.35 26.95 50.0 26.95 49.45 27.05 48.9 27.4 48.35 27.75 47.85 28.25 47.75 L28.35 47.75 28.3 47.8 M27.7 50.25 L29.0 49.15 29.1 49.15 29.4 48.9 M29.2 48.15 L28.75 48.55 28.7 48.55 27.45 49.6" fill="none" stroke="#000000" stroke-linecap="round" stroke-linejoin="round" stroke-opacity="0.29803923" stroke-width="1.0"/>
    </g>
    <g id="sprite1" transform="matrix(1.0, 0.0, 0.0, 1.0, 0.0, 0.0)">
      <use height="51.8" transform="matrix(1.0, 0.0, 0.0, 1.0, 0.0, 0.0)" width="40.7" xlink:href="#shape2"/>
    </g>
    <g id="shape2" transform="matrix(1.0, 0.0, 0.0, 1.0, 0.0, 0.0)">
      <path d="M40.7 18.9 L40.7 19.0 34.1 23.9 34.0 23.95 30.4 24.9 37.05 19.9 37.15 19.85 40.7 18.9 M28.45 40.55 Q26.3 43.05 23.55 44.35 L23.05 44.55 22.5 44.8 20.75 45.15 20.9 44.45 21.6 44.0 22.4 43.35 24.05 41.85 28.45 40.55 M13.4 45.95 L9.95 51.05 7.3 51.8 11.5 45.25 12.45 45.65 13.4 45.95 M11.2 18.1 L11.15 18.25 9.8 18.45 10.3 17.65 11.1 16.4 Q12.6 14.4 14.4 13.25 L14.55 13.1 14.7 13.1 14.8 13.0 15.5 12.65 16.4 12.2 16.55 12.15 16.65 12.15 17.1 12.0 Q16.95 12.1 16.75 12.15 L16.75 12.2 16.6 12.25 16.35 12.35 Q13.3 14.05 11.2 18.1 M24.05 8.15 Q23.7 8.35 23.5 8.7 L23.45 8.75 Q22.95 9.45 22.9 10.25 L22.9 10.65 23.2 11.5 23.25 11.6 24.1 12.0 24.35 12.0 24.05 12.15 23.8 12.2 Q23.1 12.3 22.7 11.8 22.2 11.25 22.25 10.45 22.3 9.6 22.85 8.95 23.3 8.3 24.05 8.15 M29.75 20.0 L29.3 20.55 Q29.25 20.55 29.15 20.65 28.85 21.2 28.9 21.7 L28.85 22.0 29.1 22.8 29.2 22.8 Q29.55 23.2 30.0 23.15 L29.6 23.3 Q29.05 23.4 28.7 22.9 28.3 22.55 28.35 21.9 28.4 21.25 28.8 20.6 29.2 20.15 29.7 20.0 L29.75 20.0 M16.05 11.0 L15.7 11.1 Q15.2 11.2 15.0 10.9 14.7 10.5 14.7 9.95 14.7 9.45 15.1 9.0 15.4 8.5 15.85 8.4 L15.9 8.45 15.45 8.85 15.25 9.05 Q15.1 9.4 15.1 9.85 L15.1 10.05 15.3 10.75 15.35 10.7 15.4 10.7 Q15.55 10.95 15.9 11.0 L16.05 11.0 M8.15 27.15 L8.2 27.25 Q7.9 29.45 8.0 31.65 L8.05 32.1 7.95 31.8 8.05 32.15 Q8.6 36.0 9.45 38.05 L9.45 38.0 10.05 39.25 11.3 41.05 Q12.15 42.15 14.25 42.9 L14.8 43.1 15.15 43.25 16.05 43.3 14.25 43.4 14.0 43.35 Q12.95 43.3 12.15 42.65 L10.9 41.85 9.75 40.7 8.5 38.9 8.3 38.45 8.35 38.45 8.05 37.55 7.8 36.9 6.9 34.15 6.75 32.75 Q6.5 30.0 6.85 27.3 L8.15 27.15 M4.65 36.35 L4.4 36.5 Q3.95 36.5 3.65 36.15 3.3 35.8 3.3 35.3 3.35 34.65 3.75 34.2 L4.55 33.6 4.6 33.7 4.2 34.1 3.95 34.45 Q3.75 34.75 3.8 35.1 L3.8 35.35 Q3.8 35.7 4.1 36.0 L4.1 36.1 4.65 36.35 M9.45 38.05 L10.05 39.25 9.45 38.05 M8.9 42.35 L8.95 42.45 8.45 42.95 8.1 43.5 7.9 44.35 7.9 44.7 8.2 45.55 8.3 45.55 Q8.6 45.9 9.0 45.9 L9.2 45.9 8.75 46.05 Q8.15 46.15 7.75 45.7 7.4 45.25 7.35 44.5 7.4 43.8 7.85 43.15 8.3 42.55 8.9 42.35 M18.65 43.9 L18.2 44.25 17.9 44.85 17.75 45.4 17.8 45.7 18.05 46.35 18.1 46.4 18.8 46.65 18.5 46.75 Q17.95 46.85 17.7 46.45 17.3 46.1 17.3 45.55 L17.75 44.45 Q18.1 43.95 18.6 43.85 L18.65 43.9" fill="#484337" fill-rule="evenodd" stroke="none"/>
      <path d="M28.15 35.15 L26.1 33.2 Q26.95 33.95 28.05 33.7 29.55 30.0 30.25 25.35 30.15 30.3 28.15 35.15 M4.55 32.0 L4.5 31.65 Q4.35 28.6 4.8 25.6 L6.8 27.35 5.2 26.5 Q4.55 29.6 4.55 32.0 M8.0 16.8 L7.9 16.65 Q10.35 12.3 13.8 10.15 L13.95 10.1 11.45 13.05 12.3 14.45 14.4 13.25 Q12.6 14.4 11.1 16.4 L10.3 17.65 11.15 15.5 10.4 14.25 8.0 16.8 M14.3 8.5 L14.95 3.4 17.2 1.95 17.75 5.7 16.85 2.85 15.35 3.95 14.3 8.5 M22.15 7.75 L27.1 0.55 29.65 3.1 29.65 3.15 28.15 3.8 25.6 8.3 Q26.05 8.8 25.9 9.9 25.45 11.7 24.2 12.3 23.1 12.6 22.55 12.0 L22.2 12.3 23.05 13.25 21.9 12.45 21.85 12.45 21.55 12.35 20.15 11.85 17.1 12.0 16.65 12.15 16.55 12.15 16.4 12.2 15.5 12.65 14.8 13.0 Q16.75 11.5 18.55 11.35 L18.95 8.7 18.25 8.5 19.45 8.4 19.65 8.45 21.5 8.7 22.15 7.75 M40.3 16.55 L40.45 16.5 40.7 18.9 37.15 19.85 36.85 17.3 40.3 16.55 M25.35 8.75 L25.2 8.5 Q24.7 8.0 24.2 8.1 L24.05 8.15 Q23.3 8.3 22.85 8.95 22.3 9.6 22.25 10.45 22.2 11.25 22.7 11.8 23.1 12.3 23.8 12.2 L24.05 12.15 24.35 12.0 25.05 11.4 Q25.55 10.7 25.6 9.8 L25.55 9.75 25.35 8.75 M24.9 15.35 L26.1 16.75 27.95 15.3 27.5 13.55 28.2 14.9 28.6 15.7 29.15 17.15 29.45 18.35 28.8 17.55 26.75 18.45 26.9 20.4 26.85 20.3 Q26.35 17.75 25.25 15.9 L24.9 15.35 M18.05 8.45 L18.25 8.45 18.25 8.5 18.05 8.45" fill="#e8e1b0" fill-rule="evenodd" stroke="none"/>
      <path d="M31.95 2.4 L30.35 11.45 26.9 12.5 29.65 3.15 29.65 3.1 31.95 2.4" fill="url(#gradient0)" fill-rule="evenodd" stroke="none"/>
      <path d="M27.1 0.55 L29.5 0.0 31.95 2.4 29.65 3.1 27.1 0.55 M37.15 19.85 L37.05 19.9 36.35 17.65 32.45 17.95 36.85 17.3 37.15 19.85" fill="#f3edd8" fill-rule="evenodd" stroke="none"/>
      <path d="M25.05 39.05 L26.45 38.55 28.45 40.55 24.05 41.85 21.65 40.15 21.7 40.05 22.85 39.75 25.05 39.05 M4.8 25.6 L9.75 24.3 11.0 25.4 10.3 26.4 10.25 26.5 8.15 27.15 6.85 27.3 6.8 27.35 4.8 25.6 M9.8 18.45 L8.0 16.8 10.4 14.25 11.15 15.5 10.3 17.65 9.8 18.45 M13.95 10.1 L14.0 10.1 14.05 10.0 14.1 10.05 14.3 8.5 15.35 3.95 16.85 2.85 17.75 5.7 18.05 8.45 18.25 8.5 18.95 8.7 18.55 11.35 Q16.75 11.5 14.8 13.0 L14.7 13.1 14.55 13.1 14.4 13.25 12.3 14.45 11.45 13.05 13.95 10.1 M20.4 8.15 L21.55 7.8 22.15 7.75 21.5 8.7 19.65 8.45 20.4 8.15 M37.05 19.9 L30.4 24.9 30.3 25.05 30.25 25.3 30.25 25.35 Q29.55 30.0 28.05 33.7 26.95 33.95 26.1 33.2 L25.95 33.15 25.85 33.05 25.9 32.8 Q27.05 29.7 27.25 26.5 L27.3 23.95 27.2 22.35 26.9 20.55 26.9 20.4 26.75 18.45 28.8 17.55 29.45 18.35 29.5 18.35 32.45 17.95 36.35 17.65 37.05 19.9 M23.05 13.25 L22.2 12.3 22.55 12.0 Q23.1 12.6 24.2 12.3 25.45 11.7 25.9 9.9 26.05 8.8 25.6 8.3 L28.15 3.8 29.65 3.15 26.9 12.5 26.85 12.65 27.5 13.55 27.95 15.3 26.1 16.75 24.9 15.35 24.8 15.2 24.8 15.15 24.7 15.05 23.75 13.9 23.1 13.35 23.05 13.3 23.05 13.25 23.1 13.3 23.05 13.3 23.1 13.3 23.05 13.25 M30.8 20.45 L30.7 20.35 Q30.35 19.9 29.85 20.0 L29.75 20.0 29.7 20.0 Q29.2 20.15 28.8 20.6 28.4 21.25 28.35 21.9 28.3 22.55 28.7 22.9 29.05 23.4 29.6 23.3 L30.0 23.15 30.2 23.05 30.65 22.65 31.1 21.4 31.1 21.3 30.8 20.45 M15.85 8.4 Q15.4 8.5 15.1 9.0 14.7 9.45 14.7 9.95 14.7 10.5 15.0 10.9 15.2 11.2 15.7 11.1 L16.05 11.0 16.5 10.55 Q16.95 10.1 16.9 9.55 L16.95 9.5 16.7 8.75 16.7 8.7 Q16.35 8.35 16.0 8.4 L15.85 8.4" fill="#cdba76" fill-rule="evenodd" stroke="none"/>
      <path d="M34.1 23.9 L34.05 25.95 34.0 26.1 Q33.75 30.05 32.2 33.9 L28.15 35.15 Q30.15 30.3 30.25 25.35 L30.25 25.3 30.3 25.05 30.4 24.9 34.0 23.95 34.1 23.9 M24.05 8.15 L24.2 8.1 Q24.7 8.0 25.2 8.5 L25.35 8.75 24.95 8.95 25.35 8.75 25.55 9.75 25.6 9.8 Q25.55 10.7 25.05 11.4 L24.35 12.0 24.1 12.0 24.8 10.35 24.95 10.2 24.8 9.1 24.95 8.95 23.5 8.7 Q23.7 8.35 24.05 8.15 M25.55 9.75 L24.95 10.2 25.55 9.75 M29.15 20.65 Q29.25 20.55 29.3 20.55 L29.75 20.0 29.85 20.0 Q30.35 19.9 30.7 20.35 L30.8 20.45 30.45 20.8 30.8 20.45 31.1 21.3 31.1 21.4 30.65 22.65 30.2 23.05 Q30.65 22.25 30.5 21.7 L30.6 21.65 30.65 21.65 30.45 20.8 30.4 20.8 30.1 20.4 29.15 20.65 M31.1 21.3 L30.65 21.65 31.1 21.3 M16.05 11.0 L15.9 11.0 16.35 9.95 16.5 9.85 16.2 9.2 15.25 9.05 15.45 8.85 15.9 8.45 16.0 8.4 Q16.35 8.35 16.7 8.7 L16.7 8.75 16.95 9.5 16.9 9.55 Q16.95 10.1 16.5 10.55 L16.05 11.0 M16.95 9.5 L16.5 9.85 16.95 9.5 M16.7 8.75 L16.2 9.2 16.7 8.75 M4.7 33.65 Q5.15 33.6 5.4 33.9 L5.55 34.0 5.65 34.75 5.65 34.85 5.3 35.9 4.75 36.3 4.7 36.35 5.25 35.1 5.3 35.05 5.1 34.35 3.95 34.45 4.2 34.1 4.6 33.7 4.7 33.65 M5.65 34.75 L5.3 35.05 5.65 34.75 M5.55 34.0 L5.1 34.35 5.55 34.0 M8.95 42.45 L9.05 42.4 Q9.65 42.4 10.0 42.75 L10.1 42.95 10.4 43.85 9.65 44.4 10.4 43.85 10.35 44.0 Q10.3 44.75 9.8 45.3 L9.2 45.9 9.0 45.9 9.65 44.45 9.65 44.4 Q9.8 43.75 9.5 43.4 L9.55 43.4 8.1 43.5 8.45 42.95 8.95 42.45 M9.55 43.4 L10.1 42.95 9.55 43.4 M19.1 44.65 L19.55 44.25 19.1 44.65 19.05 44.65 Q18.7 44.4 17.9 44.85 L18.2 44.25 18.65 43.9 18.7 43.85 19.45 44.15 19.55 44.25 19.75 45.0 19.45 45.25 19.75 45.0 19.75 45.1 19.35 46.15 18.85 46.6 19.35 45.25 19.45 45.25 19.1 44.65" fill="#775c3d" fill-rule="evenodd" stroke="none"/>
      <path d="M5.35 49.9 L7.15 40.85 Q6.2 39.3 5.55 37.4 L5.55 37.3 0.55 38.35 0.0 36.85 4.55 32.4 4.5 32.35 4.55 32.0 Q4.55 29.6 5.2 26.5 L6.8 27.35 6.85 27.3 Q6.5 30.0 6.75 32.75 L6.9 34.15 7.8 36.9 8.05 37.55 8.35 38.45 8.3 38.45 8.5 38.9 9.75 40.7 10.9 41.85 12.15 42.65 Q12.95 43.3 14.0 43.35 L14.25 43.4 16.05 43.3 16.7 43.15 17.8 42.8 15.55 44.25 Q13.2 45.35 11.1 44.55 L7.15 49.2 5.35 49.9 M17.2 1.95 L18.7 1.8 20.4 8.15 19.65 8.45 19.45 8.4 18.25 8.5 18.25 8.45 18.05 8.45 17.75 5.7 17.2 1.95 M33.25 17.45 L40.3 16.55 36.85 17.3 32.45 17.95 29.5 18.35 29.45 18.35 33.25 17.45 M23.5 8.7 L24.95 8.95 24.8 9.1 22.9 10.65 24.8 9.1 24.95 10.2 24.8 10.35 24.1 12.0 23.25 11.6 23.2 11.5 24.8 10.35 23.2 11.5 22.9 10.65 22.9 10.25 Q22.95 9.45 23.45 8.75 L23.5 8.7 M29.15 20.65 L30.1 20.4 30.4 20.8 30.45 20.8 30.65 21.65 30.6 21.65 30.5 21.7 Q30.65 22.25 30.2 23.05 L30.0 23.15 Q29.55 23.2 29.2 22.8 L29.1 22.8 28.85 22.0 28.9 21.7 Q28.85 21.2 29.15 20.65 M29.1 22.8 L30.5 21.7 29.1 22.8 M30.4 20.8 L28.85 22.0 30.4 20.8 M15.9 11.0 Q15.55 10.95 15.4 10.7 L15.35 10.7 15.3 10.75 15.1 10.05 15.1 9.85 Q15.1 9.4 15.25 9.05 L16.2 9.2 16.5 9.85 16.35 9.95 15.35 10.7 16.35 9.95 15.9 11.0 M15.1 10.05 L16.2 9.2 15.1 10.05 M4.7 33.65 L4.55 33.6 3.75 34.2 Q3.35 34.65 3.3 35.3 3.3 35.8 3.65 36.15 3.95 36.5 4.4 36.5 L4.65 36.35 4.7 36.35 4.65 36.35 4.1 36.1 4.1 36.0 Q3.8 35.7 3.8 35.35 L3.8 35.1 Q3.75 34.75 3.95 34.45 L5.1 34.35 3.8 35.35 5.1 34.35 5.3 35.05 5.25 35.1 4.7 36.35 4.75 36.3 5.3 35.9 5.65 34.85 5.65 34.75 5.55 34.0 5.4 33.9 Q5.15 33.6 4.7 33.65 M5.25 35.1 L4.1 36.0 5.25 35.1 M9.05 42.4 L8.9 42.35 Q8.3 42.55 7.85 43.15 7.4 43.8 7.35 44.5 7.4 45.25 7.75 45.7 8.15 46.15 8.75 46.05 L9.2 45.9 9.8 45.3 Q10.3 44.75 10.35 44.0 L10.4 43.85 10.1 42.95 10.0 42.75 Q9.65 42.4 9.05 42.4 M9.0 45.9 Q8.6 45.9 8.3 45.55 L8.2 45.55 7.9 44.7 7.9 44.35 8.1 43.5 9.55 43.4 9.5 43.4 Q9.8 43.75 9.65 44.4 L9.65 44.45 9.0 45.9 M7.9 44.7 L9.5 43.4 7.9 44.7 M9.65 44.45 L8.2 45.55 9.65 44.45 M19.1 44.65 L19.45 45.25 19.35 45.25 18.05 46.35 19.35 45.25 18.85 46.6 18.8 46.65 18.1 46.4 18.05 46.35 17.8 45.7 17.75 45.4 17.9 44.85 Q18.7 44.4 19.05 44.65 L19.1 44.65 M19.05 44.65 L17.8 45.7 19.05 44.65" fill="#bf9d51" fill-rule="evenodd" stroke="none"/>
      <path d="M30.35 11.45 Q32.2 13.75 33.15 17.1 L33.2 17.2 33.25 17.45 29.45 18.35 29.15 17.15 28.6 15.7 28.2 14.9 27.5 13.55 26.85 12.65 26.9 12.5 30.35 11.45" fill="url(#gradient1)" fill-rule="evenodd" stroke="none"/>
      <path d="M11.0 25.4 L11.3 24.85 11.35 24.7 11.7 23.15 Q12.35 20.4 11.65 18.75 16.55 11.6 21.5 12.4 L21.55 12.35 21.85 12.45 21.9 12.45 23.05 13.25 23.05 13.3 23.1 13.35 23.75 13.9 24.7 15.05 24.8 15.15 24.8 15.2 24.9 15.35 25.25 15.9 Q26.35 17.75 26.85 20.3 L26.9 20.4 26.9 20.55 27.2 22.35 27.3 23.95 27.25 26.5 Q27.05 29.7 25.9 32.8 24.35 33.15 23.55 34.6 L22.95 35.65 Q21.9 38.1 22.85 39.75 L21.7 40.05 21.65 40.15 19.5 41.95 18.5 42.45 17.8 42.8 16.7 43.15 16.05 43.3 15.15 43.25 14.8 43.1 14.25 42.9 Q12.15 42.15 11.3 41.05 L10.05 39.25 9.45 38.0 9.45 38.05 Q8.6 36.0 8.05 32.15 L7.95 31.8 8.05 32.1 8.0 31.65 Q7.9 29.45 8.2 27.25 L8.15 27.15 Q9.15 27.75 10.25 26.5 L10.3 26.4 11.0 25.4" fill="url(#gradient2)" fill-rule="evenodd" stroke="none"/>
      <path d="M26.1 33.2 L25.7 33.85 25.7 33.9 Q24.7 35.6 24.55 37.0 L24.6 38.25 25.05 39.05 22.85 39.75 Q21.9 38.1 22.95 35.65 L23.55 34.6 Q24.35 33.15 25.9 32.8 L25.85 33.05 25.95 33.15 26.1 33.2 M11.65 18.75 L11.25 18.05 11.2 18.1 Q13.3 14.05 16.35 12.35 L16.6 12.25 16.75 12.2 16.75 12.15 Q16.95 12.1 17.1 12.0 L20.15 11.85 21.55 12.35 21.5 12.4 Q16.55 11.6 11.65 18.75 M10.25 26.5 Q9.15 27.75 8.15 27.15 L10.25 26.5" fill="#3e2d28" fill-rule="evenodd" stroke="none"/>
      <path d="M19.35 51.2 L17.8 51.4 16.4 46.2 14.45 46.15 13.4 45.95 12.45 45.65 11.5 45.25 7.3 51.8 5.35 50.0 5.35 49.9 7.15 49.2 11.1 44.55 Q13.2 45.35 15.55 44.25 L17.8 42.8 18.5 42.45 19.5 41.95 21.65 40.15 24.05 41.85 22.4 43.35 21.6 44.0 20.9 44.45 20.75 45.15 19.35 51.2 M19.75 45.0 L19.55 44.25 19.45 44.15 18.7 43.85 18.6 43.85 Q18.1 43.95 17.75 44.45 L17.3 45.55 Q17.3 46.1 17.7 46.45 17.95 46.85 18.5 46.75 L18.8 46.65 18.85 46.6 19.35 46.15 19.75 45.1 19.75 45.0" fill="url(#gradient3)" fill-rule="evenodd" stroke="none"/>
      <path d="M22.5 44.8 L21.1 50.65 19.35 51.2 20.75 45.15 22.5 44.8" fill="#604731" fill-rule="evenodd" stroke="none"/>
      <path d="M40.7 18.9 L40.7 19.0 34.1 23.9 34.05 25.95 34.0 26.1 Q33.75 30.05 32.2 33.9 L28.15 35.15 26.1 33.2 25.7 33.85 25.7 33.9 Q24.7 35.6 24.55 37.0 L24.6 38.25 25.05 39.05 26.45 38.55 28.45 40.55 Q26.3 43.05 23.55 44.35 L23.05 44.55 22.5 44.8 21.1 50.65 19.35 51.2 17.8 51.4 16.4 46.2 14.45 46.15 13.4 45.95 9.95 51.05 7.3 51.8 5.35 50.0 5.35 49.9 7.15 40.85 Q6.2 39.3 5.55 37.4 L5.55 37.3 0.55 38.35 0.0 36.85 4.55 32.4 M4.5 32.35 L4.55 32.0 4.5 31.65 Q4.35 28.6 4.8 25.6 L9.75 24.3 11.0 25.4 11.3 24.85 11.35 24.7 11.7 23.15 Q12.35 20.4 11.65 18.75 L11.25 18.05 11.2 18.1 11.15 18.25 9.8 18.45 8.0 16.8 7.9 16.65 Q10.35 12.3 13.8 10.15 L13.95 10.1 14.0 10.1 14.05 10.0 14.1 10.05 14.3 8.5 14.95 3.4 17.2 1.95 18.7 1.8 20.4 8.15 21.55 7.8 22.15 7.75 27.1 0.55 29.5 0.0 31.95 2.4 30.35 11.45 Q32.2 13.75 33.15 17.1 L33.2 17.2 33.25 17.45 40.3 16.55 40.45 16.5 40.7 18.9 37.15 19.85 37.05 19.9 M34.0 23.95 L34.1 23.9 M25.35 8.75 L25.2 8.5 Q24.7 8.0 24.2 8.1 L24.05 8.15 M24.95 8.95 L25.35 8.75 25.55 9.75 25.6 9.8 Q25.55 10.7 25.05 11.4 L24.35 12.0 24.05 12.15 23.8 12.2 Q23.1 12.3 22.7 11.8 22.2 11.25 22.25 10.45 22.3 9.6 22.85 8.95 23.3 8.3 24.05 8.15 M22.9 10.65 L24.8 9.1 24.95 8.95 M14.8 13.0 L15.5 12.65 16.4 12.2 16.55 12.15 16.65 12.15 17.1 12.0 20.15 11.85 21.55 12.35 21.85 12.45 21.9 12.45 23.05 13.25 23.1 13.3 23.05 13.3 23.1 13.35 23.75 13.9 24.7 15.05 24.8 15.15 24.8 15.2 24.9 15.35 25.25 15.9 Q26.35 17.75 26.85 20.3 L26.9 20.4 26.9 20.55 27.2 22.35 27.3 23.95 27.25 26.5 Q27.05 29.7 25.9 32.8 L25.85 33.05 M24.8 10.35 L24.95 10.2 25.55 9.75 M24.8 10.35 L23.2 11.5 M25.95 33.15 L26.1 33.2 M30.4 20.8 L30.45 20.8 30.8 20.45 30.7 20.35 Q30.35 19.9 29.85 20.0 L29.75 20.0 29.7 20.0 Q29.2 20.15 28.8 20.6 28.4 21.25 28.35 21.9 28.3 22.55 28.7 22.9 29.05 23.4 29.6 23.3 L30.0 23.15 M30.2 23.05 L30.0 23.15 M30.6 21.65 L30.65 21.65 31.1 21.3 31.1 21.4 30.65 22.65 30.2 23.05 M30.8 20.45 L31.1 21.3 M30.5 21.7 L29.1 22.8 M28.85 22.0 L30.4 20.8 M15.85 8.4 Q15.4 8.5 15.1 9.0 14.7 9.45 14.7 9.95 14.7 10.5 15.0 10.9 15.2 11.2 15.7 11.1 L16.05 11.0 15.9 11.0 M15.35 10.7 L15.3 10.75 M15.85 8.4 L16.0 8.4 Q16.35 8.35 16.7 8.7 L16.7 8.75 16.95 9.5 16.9 9.55 Q16.95 10.1 16.5 10.55 L16.05 11.0 M15.9 8.45 L16.0 8.4 M16.2 9.2 L16.7 8.75 M16.5 9.85 L16.95 9.5 M15.35 10.7 L16.35 9.95 16.5 9.85 M16.2 9.2 L15.1 10.05 M11.2 18.1 Q13.3 14.05 16.35 12.35 L16.6 12.25 16.75 12.2 16.75 12.15 Q16.95 12.1 17.1 12.0 M14.4 13.25 Q12.6 14.4 11.1 16.4 L10.3 17.65 9.8 18.45 M14.7 13.1 L14.55 13.1 M11.0 25.4 L10.3 26.4 10.25 26.5 M8.15 27.15 L8.2 27.25 Q7.9 29.45 8.0 31.65 L8.05 32.1 M7.95 31.8 L8.05 32.15 Q8.6 36.0 9.45 38.05 M10.05 39.25 L11.3 41.05 Q12.15 42.15 14.25 42.9 L14.8 43.1 15.15 43.25 16.05 43.3 16.7 43.15 17.8 42.8 18.5 42.45 19.5 41.95 21.65 40.15 21.7 40.05 22.85 39.75 M8.15 27.15 L10.25 26.5 M6.85 27.3 L6.8 27.35 M4.55 33.6 L4.7 33.65 Q5.15 33.6 5.4 33.9 L5.55 34.0 5.65 34.75 5.65 34.85 5.3 35.9 4.75 36.3 4.7 36.35 4.65 36.35 4.4 36.5 Q3.95 36.5 3.65 36.15 3.3 35.8 3.3 35.3 3.35 34.65 3.75 34.2 L4.55 33.6 M4.6 33.7 L4.7 33.65 M3.8 35.35 L5.1 34.35 5.55 34.0 M4.1 36.0 L5.25 35.1 5.3 35.05 5.65 34.75 M8.35 38.45 L8.05 37.55 7.8 36.9 M10.05 39.25 L9.45 38.05 M9.05 42.4 L8.9 42.35 Q8.3 42.55 7.85 43.15 7.4 43.8 7.35 44.5 7.4 45.25 7.75 45.7 8.15 46.15 8.75 46.05 L9.2 45.9 9.8 45.3 Q10.3 44.75 10.35 44.0 L10.4 43.85 10.1 42.95 9.55 43.4 9.5 43.4 7.9 44.7 M10.1 42.95 L10.0 42.75 Q9.65 42.4 9.05 42.4 M9.65 44.45 L9.65 44.4 10.4 43.85 M8.2 45.55 L9.65 44.45 M19.55 44.25 L19.1 44.65 M19.45 45.25 L19.75 45.0 19.55 44.25 19.45 44.15 18.7 43.85 18.65 43.9 M19.05 44.65 L19.1 44.65 M18.8 46.65 L18.5 46.75 Q17.95 46.85 17.7 46.45 17.3 46.1 17.3 45.55 L17.75 44.45 Q18.1 43.95 18.6 43.85 L18.7 43.85 M18.05 46.35 L19.35 45.25 19.45 45.25 M18.8 46.65 L18.85 46.6 M17.8 45.7 L19.05 44.65 M19.75 45.0 L19.75 45.1 19.35 46.15 18.85 46.6 M25.05 39.05 L22.85 39.75" fill="none" stroke="#000000" stroke-linecap="round" stroke-linejoin="round" stroke-opacity="0.29803923" stroke-width="0.05"/>
      <path d="M20.9 20.85 L21.75 21.25 22.1 21.55 22.2 21.8 23.3 26.45 23.3 26.7 23.1 26.95 22.1 27.65 22.35 27.7 25.95 29.45 26.2 29.75 26.15 30.1 Q23.15 36.6 16.3 41.45 L16.0 41.55 15.7 41.45 15.0 41.05 14.95 41.05 14.7 40.95 14.65 40.9 14.55 40.75 14.3 40.75 14.05 40.65 13.3 40.25 13.0 40.15 12.85 39.9 Q11.8 35.6 11.7 31.8 L11.7 31.65 Q11.6 29.95 11.75 28.35 11.9 25.95 12.55 23.75 L12.65 23.55 Q12.75 23.4 12.9 23.4 L13.2 23.45 15.7 24.65 15.8 24.75 16.75 25.15 16.9 25.3 17.0 25.5 18.15 30.35 21.0 28.4 19.55 29.35 19.25 29.4 19.0 29.3 18.8 29.0 18.75 28.7 18.5 28.8 18.25 28.85 17.95 28.75 17.8 28.5 16.75 23.85 Q16.7 23.7 16.8 23.6 L17.0 23.4 20.5 21.0 20.75 20.9 20.85 20.95 20.9 20.85 M22.05 15.4 L23.1 16.0 23.15 16.05 23.4 16.0 23.6 16.1 24.35 16.4 24.7 16.7 Q27.4 20.45 27.25 27.25 L27.15 27.55 26.85 27.7 26.6 27.65 24.5 26.65 24.4 26.55 23.5 26.15 23.3 26.0 23.2 25.8 22.05 20.5 22.05 20.45 21.95 19.9 17.1 23.0 16.9 23.05 16.65 23.0 14.75 22.05 14.65 22.05 13.7 21.55 13.5 21.35 13.4 21.15 13.5 20.85 Q15.95 17.7 18.5 16.35 L20.4 15.6 21.75 15.4 21.95 15.4 22.05 15.4" fill="#000000" fill-opacity="0.20784314" fill-rule="evenodd" stroke="none"/>
      <path d="M14.7 40.95 L14.4 41.05 14.1 40.95 13.15 40.4 Q13.9 40.55 13.45 40.2 L17.35 30.6 17.55 30.35 21.35 27.75 Q21.45 27.65 21.5 27.65 L21.8 27.7 24.4 28.95 24.6 29.25 24.55 29.55 Q21.55 36.1 14.7 40.95 M15.15 24.65 L15.3 24.8 15.4 25.0 16.6 30.05 16.6 30.3 13.2 39.95 13.0 40.2 12.7 40.25 12.45 40.15 11.4 39.6 Q10.05 30.8 11.95 23.75 L12.1 23.55 12.35 23.4 12.6 23.45 15.15 24.65 M19.3 20.35 L20.15 20.7 20.5 21.05 20.65 21.3 21.7 25.9 21.7 26.2 21.5 26.45 17.95 28.8 17.7 28.85 17.4 28.75 17.2 28.5 16.2 23.85 Q16.15 23.7 16.25 23.6 L16.4 23.4 19.3 20.35 M25.65 26.7 L25.55 27.05 25.25 27.2 25.0 27.15 22.95 26.15 22.75 26.0 22.65 25.8 21.3 19.6 21.35 19.35 22.3 16.3 21.9 15.5 22.75 15.9 23.1 16.15 Q25.8 19.9 25.65 26.7 M20.45 14.85 L21.5 15.45 21.7 15.7 21.7 15.95 20.7 19.05 20.5 19.25 15.55 22.5 15.3 22.55 15.05 22.5 13.15 21.55 12.95 21.35 12.85 21.15 12.95 20.85 Q16.95 15.75 20.45 14.85" fill="#484337" fill-rule="evenodd" stroke="none"/>
      <path d="M20.45 14.85 Q16.95 15.75 12.95 20.85 L12.85 21.15 12.95 21.35 13.15 21.55 15.05 22.5 15.3 22.55 15.55 22.5 20.5 19.25 20.7 19.05 21.7 15.95 21.7 15.7 21.5 15.45 20.45 14.85 M25.65 26.7 Q25.8 19.9 23.1 16.15 L22.75 15.9 21.9 15.5 22.3 16.3 21.35 19.35 21.3 19.6 22.65 25.8 22.75 26.0 22.95 26.15 25.0 27.15 25.25 27.2 25.55 27.05 25.65 26.7 M19.3 20.35 L16.4 23.4 16.25 23.6 Q16.15 23.7 16.2 23.85 L17.2 28.5 17.4 28.75 17.7 28.85 17.95 28.8 21.5 26.45 21.7 26.2 21.7 25.9 20.65 21.3 20.5 21.05 20.15 20.7 19.3 20.35 M15.15 24.65 L12.6 23.45 12.35 23.4 12.1 23.55 11.95 23.75 Q10.05 30.8 11.4 39.6 L12.45 40.15 12.7 40.25 13.0 40.2 13.2 39.95 16.6 30.3 16.6 30.05 15.4 25.0 15.3 24.8 15.15 24.65 M14.7 40.95 Q21.55 36.1 24.55 29.55 L24.6 29.25 24.4 28.95 21.8 27.7 21.5 27.65 Q21.45 27.65 21.35 27.75 L17.55 30.35 17.35 30.6 13.45 40.2 Q13.9 40.55 13.15 40.4 L14.1 40.95 14.4 41.05 14.7 40.95" fill="none" stroke="#000000" stroke-linecap="round" stroke-linejoin="round" stroke-opacity="0.29803923" stroke-width="0.05"/>
      <path d="M18.8 15.1 L20.15 14.85 20.5 14.95 20.7 15.2 20.7 15.5 19.65 18.5 19.45 18.75 14.5 22.0 14.25 22.05 14.05 22.0 12.6 21.3 Q14.1 18.1 18.8 15.1 M20.45 19.9 L20.25 19.1 20.3 18.85 21.3 15.85 21.3 15.8 21.5 15.55 21.8 15.45 22.1 15.65 22.2 15.85 23.2 17.6 23.25 17.65 23.3 17.85 21.5 19.15 20.45 19.9 M10.15 27.85 Q11.1 23.65 12.5 23.35 L14.1 24.15 14.25 24.25 14.35 24.45 14.8 26.25 13.25 26.6 Q11.9 26.75 11.2 28.5 L10.1 31.15 Q10.0 29.45 10.15 27.85 M15.3 23.9 Q17.95 21.05 19.65 20.9 L19.95 22.15 Q18.5 21.5 15.8 24.55 L15.75 26.15 15.3 23.9 M13.05 40.4 L12.95 40.2 12.95 39.9 16.3 30.1 16.5 29.85 20.3 27.25 20.5 27.15 20.75 27.2 20.95 27.25 17.0 30.8 13.05 40.4" fill="#cdba76" fill-rule="evenodd" stroke="none"/>
      <path d="M23.3 17.85 L23.25 17.65 23.2 17.6 23.7 17.55 23.3 17.85" fill="#484337" fill-rule="evenodd" stroke="none"/>
      <path d="M20.45 19.9 L21.5 19.15 23.3 17.85 23.45 18.2 23.6 18.55 Q24.7 21.7 24.6 26.2 L24.5 26.5 24.25 26.65 23.95 26.6 21.9 25.65 21.7 25.5 21.6 25.3 20.45 19.95 20.45 19.9 M14.8 26.25 L15.55 29.5 15.55 29.8 12.15 39.45 11.95 39.7 11.7 39.75 11.4 39.65 11.25 39.4 Q10.2 35.1 10.1 31.3 L10.1 31.15 11.2 28.5 Q11.9 26.75 13.25 26.6 L14.8 26.25 M19.95 22.15 L20.7 25.4 20.7 25.7 20.5 25.9 16.95 28.3 16.65 28.35 16.35 28.25 16.2 27.95 15.75 26.15 15.8 24.55 Q18.5 21.5 19.95 22.15 M13.05 40.4 L17.0 30.8 20.95 27.25 23.35 28.45 23.6 28.7 23.55 29.05 Q20.55 35.55 13.65 40.45 L13.35 40.55 13.1 40.45 13.05 40.4" fill="url(#gradient4)" fill-rule="evenodd" stroke="none"/>
      <path d="M18.8 15.1 Q14.1 18.1 12.6 21.3 L12.1 21.05 11.9 20.85 11.85 20.6 11.9 20.35 Q14.35 17.2 16.95 15.85 17.85 15.4 18.8 15.1 M10.15 27.85 Q10.35 25.45 10.95 23.25 L11.1 23.0 Q11.15 22.85 11.3 22.85 L11.6 22.9 12.5 23.35 Q11.1 23.65 10.15 27.85 M15.3 23.9 L15.15 23.35 15.2 23.1 15.4 22.85 18.9 20.5 19.2 20.4 19.45 20.55 19.6 20.75 19.65 20.9 Q17.95 21.05 15.3 23.9" fill="#e8e1b0" fill-rule="evenodd" stroke="none"/>
      <path d="M12.6 21.3 L14.05 22.0 14.25 22.05 14.5 22.0 19.45 18.75 19.65 18.5 20.7 15.5 20.7 15.2 20.5 14.95 20.15 14.85 18.8 15.1 M12.6 21.3 L12.1 21.05 11.9 20.85 11.85 20.6 11.9 20.35 Q14.35 17.2 16.95 15.85 17.85 15.4 18.8 15.1 M23.2 17.6 L22.2 15.85 22.1 15.65 21.8 15.45 21.5 15.55 21.3 15.8 21.3 15.85 20.3 18.85 20.25 19.1 20.45 19.9 M23.3 17.85 L23.25 17.65 23.2 17.6 M23.3 17.85 L23.45 18.2 23.6 18.55 Q24.7 21.7 24.6 26.2 L24.5 26.5 24.25 26.65 23.95 26.6 21.9 25.65 21.7 25.5 21.6 25.3 20.45 19.95 20.45 19.9 M12.5 23.35 L11.6 22.9 11.3 22.85 Q11.15 22.85 11.1 23.0 L10.95 23.25 Q10.35 25.45 10.15 27.85 M12.5 23.35 L14.1 24.15 14.25 24.25 14.35 24.45 14.8 26.25 15.55 29.5 15.55 29.8 12.15 39.45 11.95 39.7 11.7 39.75 11.4 39.65 11.25 39.4 Q10.2 35.1 10.1 31.3 L10.1 31.15 Q10.0 29.45 10.15 27.85 M19.65 20.9 L19.6 20.75 19.45 20.55 19.2 20.4 18.9 20.5 15.4 22.85 15.2 23.1 15.15 23.35 15.3 23.9 M19.65 20.9 L19.95 22.15 20.7 25.4 20.7 25.7 20.5 25.9 16.95 28.3 16.65 28.35 16.35 28.25 16.2 27.95 15.75 26.15 15.3 23.9 M20.95 27.25 L20.75 27.2 20.5 27.15 20.3 27.25 16.5 29.85 16.3 30.1 12.95 39.9 12.95 40.2 13.05 40.4 M20.95 27.25 L23.35 28.45 23.6 28.7 23.55 29.05 Q20.55 35.55 13.65 40.45 L13.35 40.55 13.1 40.45 13.05 40.4" fill="none" stroke="#000000" stroke-linecap="round" stroke-linejoin="round" stroke-opacity="0.29803923" stroke-width="0.05"/>
    </g>
    <linearGradient gradientTransform="matrix(-9.0E-4, 0.0069, -0.0072, 5.0E-4, 29.35, 8.35)" gradientUnits="userSpaceOnUse" id="gradient0" spreadMethod="pad" x1="-819.2" x2="819.2">
      <stop offset="0.4392156862745098" stop-color="#bf9d51"/>
      <stop offset="1.0" stop-color="#4e3732"/>
    </linearGradient>
    <linearGradient gradientTransform="matrix(0.0048, 8.0E-4, -0.0017, 0.004, 30.1, 14.9)" gradientUnits="userSpaceOnUse" id="gradient1" spreadMethod="pad" x1="-819.2" x2="819.2">
      <stop offset="0.4392156862745098" stop-color="#bf9d51"/>
      <stop offset="1.0" stop-color="#4e3732"/>
    </linearGradient>
    <radialGradient cx="0" cy="0" gradientTransform="matrix(0.0153, -0.0099, 0.0012, 0.0238, 16.45, 28.5)" gradientUnits="userSpaceOnUse" id="gradient2" r="819.2" spreadMethod="pad">
      <stop offset="0.4392156862745098" stop-color="#7c5850"/>
      <stop offset="1.0" stop-color="#4e3732"/>
    </radialGradient>
    <linearGradient gradientTransform="matrix(0.001, 0.0104, -0.0093, 0.0023, 15.4, 44.6)" gradientUnits="userSpaceOnUse" id="gradient3" spreadMethod="pad" x1="-819.2" x2="819.2">
      <stop offset="0.4392156862745098" stop-color="#bf9d51"/>
      <stop offset="1.0" stop-color="#4e3732"/>
    </linearGradient>
    <linearGradient gradientTransform="matrix(-0.0011, 0.0149, -0.0048, -4.0E-4, 19.8, 32.05)" gradientUnits="userSpaceOnUse" id="gradient4" spreadMethod="pad" x1="-819.2" x2="819.2">
      <stop offset="0.4392156862745098" stop-color="#bf9d51"/>
      <stop offset="1.0" stop-color="#4e3732"/>
    </linearGradient>
    <g id="sprite2" transform="matrix(1.0, 0.0, 0.0, 1.0, 0.5, 0.5)">
      <clipPath id="clipPath0" transform="matrix(1.0, 0.0, 0.0, 1.0, 0.5, 0.5)">
        <use height="52.3" transform="matrix(1.0, 0.0, 0.0, 1.0, -0.25, -0.25)" width="41.2" xlink:href="#shape3"/>
      </clipPath>
      <g clip-path="url(#clipPath0)">
        <use height="52.8" transform="matrix(1.0, 0.0, 0.0, 1.0, -0.5, -0.5)" width="41.7" xlink:href="#sprite3"/>
      </g>
    </g>
    <g id="shape3" transform="matrix(1.0, 0.0, 0.0, 1.0, 0.25, 0.25)">
      <path d="M33.3 17.7 L40.25 16.8 40.45 18.9 33.95 23.7 33.9 23.8 33.85 23.9 33.8 25.95 33.75 26.1 Q33.5 29.95 32.05 33.7 L28.2 34.85 26.3 33.05 26.15 32.95 26.0 33.0 25.9 33.05 25.5 33.75 25.45 33.85 Q24.45 35.55 24.3 37.0 L24.35 38.3 24.4 38.35 24.85 39.25 25.0 39.3 25.15 39.3 26.4 38.85 28.1 40.55 Q26.05 42.9 23.45 44.15 L23.0 44.3 22.95 44.35 Q22.65 44.45 22.4 44.6 L22.25 44.75 20.9 50.5 19.3 51.0 19.35 50.95 18.0 51.15 16.65 46.15 16.55 46.0 16.4 45.95 14.5 45.9 13.5 45.7 13.35 45.75 13.2 45.8 9.8 50.85 7.35 51.55 5.6 49.9 7.4 40.9 7.4 40.75 Q6.45 39.2 5.8 37.4 L5.8 37.35 5.8 37.2 5.65 37.1 5.5 37.05 0.7 38.05 0.3 36.95 4.75 32.6 4.8 32.5 4.8 32.35 4.8 32.3 4.8 32.0 4.75 31.65 Q4.6 28.7 5.05 25.8 L9.7 24.6 10.4 25.2 10.55 25.25 10.7 25.2 10.8 25.05 11.2 23.35 11.2 23.25 11.25 23.2 11.35 23.1 11.55 23.15 11.5 23.15 11.65 23.25 11.8 23.25 11.95 23.2 12.0 23.05 12.25 21.0 12.2 20.85 12.15 20.75 12.15 20.8 12.1 20.6 12.15 20.5 12.2 20.45 12.25 20.35 12.25 20.25 11.9 18.65 11.45 17.9 11.35 17.8 11.2 17.85 11.05 17.9 11.0 18.05 9.9 18.2 8.2 16.65 Q10.55 12.5 13.85 10.4 L14.0 10.35 14.15 10.3 14.25 10.25 14.35 10.1 15.2 3.55 17.3 2.2 18.5 2.1 20.15 8.25 20.25 8.35 20.35 8.4 20.5 8.4 21.6 8.05 22.15 8.0 22.3 8.0 22.35 7.9 27.25 0.8 29.45 0.3 31.7 2.5 30.1 11.4 30.1 11.5 30.15 11.6 Q31.95 13.85 32.9 17.2 L32.95 17.25 33.05 17.55 33.15 17.7 33.3 17.7 M16.0 8.15 L15.85 8.15 15.7 8.25 15.6 8.4 15.7 8.6 15.75 8.65 15.9 8.7 16.05 8.65 16.2 8.6 16.25 8.4 16.2 8.25 16.0 8.15 M4.9 33.85 L4.95 33.65 4.9 33.5 4.7 33.4 4.55 33.35 Q4.45 33.35 4.4 33.45 L4.3 33.6 4.4 33.8 4.45 33.9 4.6 33.95 4.75 33.9 4.9 33.85 M9.25 42.6 L9.3 42.4 9.25 42.25 9.05 42.15 8.9 42.1 Q8.8 42.1 8.75 42.2 L8.65 42.35 8.7 42.45 8.8 42.65 8.95 42.7 9.1 42.65 9.25 42.6 M18.7 43.6 L18.6 43.6 Q18.5 43.6 18.45 43.7 L18.35 43.85 18.45 44.05 18.5 44.1 18.65 44.15 18.7 44.1 18.9 44.05 18.95 43.85 18.9 43.7 18.7 43.6" fill="#8a4040" fill-rule="evenodd" stroke="none"/>
      <path d="M40.95 18.9 L40.95 19.0 40.95 19.1 40.85 19.2 34.35 24.05 34.3 25.95 34.25 26.2 Q34.0 30.15 32.45 34.0 L32.4 34.1 32.3 34.15 28.25 35.4 28.1 35.4 28.0 35.35 26.15 33.6 25.95 33.95 25.95 34.05 Q24.95 35.65 24.8 37.0 L24.8 37.05 24.85 38.25 25.15 38.75 26.4 38.35 26.5 38.3 26.65 38.4 28.65 40.4 28.7 40.55 28.65 40.75 Q26.45 43.25 23.65 44.6 L23.7 44.6 23.15 44.8 22.75 45.0 21.35 50.7 21.3 50.85 21.2 50.9 19.45 51.45 19.4 51.45 17.85 51.65 17.65 51.6 17.55 51.5 16.2 46.5 14.45 46.4 13.5 46.25 10.15 51.2 10.05 51.3 7.4 52.05 7.25 52.05 7.15 52.0 5.2 50.2 5.15 50.1 5.1 50.0 5.1 49.85 6.9 40.9 Q6.0 39.4 5.4 37.6 L0.6 38.6 0.45 38.6 0.35 38.45 -0.2 36.95 -0.25 36.8 -0.15 36.7 4.25 32.35 4.25 32.3 4.3 32.0 4.3 31.75 4.25 31.65 Q4.1 28.6 4.55 25.6 L4.65 25.45 4.75 25.35 9.7 24.05 9.8 24.05 9.95 24.1 10.4 24.5 10.7 23.2 Q10.7 22.95 10.95 22.85 11.05 22.6 11.3 22.6 L11.6 22.65 11.75 21.1 11.7 20.95 11.6 20.6 11.7 20.25 11.75 20.2 11.75 20.15 11.45 18.85 11.25 18.5 11.2 18.5 9.85 18.7 9.75 18.7 9.65 18.65 7.85 17.0 7.75 16.85 7.65 16.7 7.7 16.55 Q10.15 12.1 13.7 9.95 L13.8 9.9 13.85 9.9 13.9 9.9 13.9 9.85 14.7 3.4 14.75 3.3 14.85 3.2 17.1 1.75 17.2 1.7 18.7 1.55 18.85 1.6 18.95 1.75 20.6 7.85 21.5 7.55 21.55 7.55 22.05 7.5 26.9 0.4 Q26.95 0.3 27.05 0.3 L29.45 -0.25 29.6 -0.25 29.7 -0.15 32.15 2.25 32.2 2.35 32.2 2.45 30.65 11.4 Q32.45 13.7 33.4 17.05 L33.45 17.2 40.3 16.3 40.45 16.25 40.65 16.35 40.7 16.5 40.95 18.9 M18.7 43.6 L18.9 43.7 18.95 43.85 18.9 44.05 18.7 44.1 18.65 44.15 18.5 44.1 18.45 44.05 18.35 43.85 18.45 43.7 Q18.5 43.6 18.6 43.6 L18.7 43.6 M9.25 42.6 L9.1 42.65 8.95 42.7 8.8 42.65 8.7 42.45 8.65 42.35 8.75 42.2 Q8.8 42.1 8.9 42.1 L9.05 42.15 9.25 42.25 9.3 42.4 9.25 42.6 M4.9 33.85 L4.75 33.9 4.6 33.95 4.45 33.9 4.4 33.8 4.3 33.6 4.4 33.45 Q4.45 33.35 4.55 33.35 L4.7 33.4 4.9 33.5 4.95 33.65 4.9 33.85 M16.0 8.15 L16.2 8.25 16.25 8.4 16.2 8.6 16.05 8.65 15.9 8.7 15.75 8.65 15.7 8.6 15.6 8.4 15.7 8.25 15.85 8.15 16.0 8.15 M33.3 17.7 L33.15 17.7 33.05 17.55 32.95 17.25 32.9 17.2 Q31.95 13.85 30.15 11.6 L30.1 11.5 30.1 11.4 31.7 2.5 29.45 0.3 27.25 0.8 22.35 7.9 22.3 8.0 22.15 8.0 21.6 8.05 20.5 8.4 20.35 8.4 20.25 8.35 20.15 8.25 18.5 2.1 17.3 2.2 15.2 3.55 14.35 10.1 14.25 10.25 14.15 10.3 14.0 10.35 13.85 10.4 Q10.55 12.5 8.2 16.65 L9.9 18.2 11.0 18.05 11.05 17.9 11.2 17.85 11.35 17.8 11.45 17.9 11.9 18.65 12.25 20.25 12.25 20.35 12.2 20.45 12.15 20.5 12.1 20.6 12.15 20.8 12.15 20.75 12.2 20.85 12.25 21.0 12.0 23.05 11.95 23.2 11.8 23.25 11.65 23.25 11.5 23.15 11.55 23.15 11.35 23.1 11.25 23.2 11.2 23.25 11.2 23.35 10.8 25.05 10.7 25.2 10.55 25.25 10.4 25.2 9.7 24.6 5.05 25.8 Q4.6 28.7 4.75 31.65 L4.8 32.0 4.8 32.3 4.8 32.35 4.8 32.5 4.75 32.6 0.3 36.95 0.7 38.05 5.5 37.05 5.65 37.1 5.8 37.2 5.8 37.35 5.8 37.4 Q6.45 39.2 7.4 40.75 L7.4 40.9 5.6 49.9 7.35 51.55 9.8 50.85 13.2 45.8 13.35 45.75 13.5 45.7 14.5 45.9 16.4 45.95 16.55 46.0 16.65 46.15 18.0 51.15 19.35 50.95 19.3 51.0 20.9 50.5 22.25 44.75 22.4 44.6 Q22.65 44.45 22.95 44.35 L23.0 44.3 23.45 44.15 Q26.05 42.9 28.1 40.55 L26.4 38.85 25.15 39.3 25.0 39.3 24.85 39.25 24.4 38.35 24.35 38.3 24.3 37.0 Q24.45 35.55 25.45 33.85 L25.5 33.75 25.9 33.05 26.0 33.0 26.15 32.95 26.3 33.05 28.2 34.85 32.05 33.7 Q33.5 29.95 33.75 26.1 L33.8 25.95 33.85 23.9 33.9 23.8 33.95 23.7 40.45 18.9 40.25 16.8 33.3 17.7" fill="#ffee74" fill-rule="evenodd" stroke="none"/>
    </g>
    <g id="sprite3" transform="matrix(1.0, 0.0, 0.0, 1.0, 0.5, 0.5)">
      <use height="52.8" transform="matrix(1.0, 0.0, 0.0, 1.0, -0.5, -0.5)" width="41.7" xlink:href="#shape4"/>
    </g>
    <g id="shape4" transform="matrix(1.0, 0.0, 0.0, 1.0, 0.5, 0.5)">
      <path d="M40.7 18.9 L40.45 16.5 40.3 16.55 33.25 17.45 33.2 17.2 33.15 17.1 Q32.2 13.75 30.35 11.45 L31.95 2.4 29.5 0.0 27.1 0.55 22.15 7.75 21.55 7.8 20.4 8.15 18.7 1.8 17.2 1.95 14.95 3.4 14.1 10.05 14.05 10.0 14.0 10.1 13.95 10.1 13.8 10.15 Q10.35 12.3 7.9 16.65 L8.0 16.8 9.8 18.45 11.15 18.25 11.2 18.1 11.25 18.05 11.65 18.75 12.0 20.25 11.9 20.35 11.85 20.6 11.9 20.85 12.0 21.0 11.75 23.0 11.6 22.9 11.3 22.85 Q11.15 22.85 11.1 23.0 L10.95 23.25 10.55 25.0 9.75 24.3 4.8 25.6 Q4.35 28.6 4.5 31.65 L4.55 32.0 4.5 32.35 4.55 32.4 0.0 36.85 0.55 38.35 5.55 37.3 5.55 37.4 Q6.2 39.3 7.15 40.85 L5.35 49.9 5.35 50.0 7.3 51.8 9.95 51.05 13.4 45.95 14.45 46.15 16.4 46.2 17.8 51.4 19.35 51.2 21.1 50.65 22.5 44.8 23.05 44.55 23.55 44.35 Q26.3 43.05 28.45 40.55 L26.45 38.55 25.05 39.05 24.6 38.25 24.55 37.0 Q24.7 35.6 25.7 33.9 L25.7 33.85 26.1 33.2 28.15 35.15 32.2 33.9 Q33.75 30.05 34.0 26.1 L34.05 25.95 34.1 23.9 40.7 19.0 40.7 18.9 Z" fill="none" stroke="#ffee74" stroke-linecap="round" stroke-linejoin="round" stroke-width="1.0"/>
    </g>
    <g id="sprite4" transform="matrix(1.0, 0.0, 0.0, 1.0, 0.0, 0.0)">
      <use height="32.2" transform="matrix(1.0, 0.0, 0.0, 1.0, 0.0, 0.0)" width="32.2" xlink:href="#shape5"/>
    </g>
    <g id="shape5" transform="matrix(1.0, 0.0, 0.0, 1.0, 0.0, 0.0)">
      <path d="M32.2 16.1 Q32.2 22.75 27.45 27.45 22.75 32.2 16.1 32.2 9.45 32.2 4.7 27.45 0.0 22.75 0.0 16.1 0.0 9.45 4.7 4.7 9.45 0.0 16.1 0.0 22.75 0.0 27.45 4.7 32.2 9.45 32.2 16.1" fill="url(#gradient5)" fill-rule="evenodd" stroke="none"/>
    </g>
    <radialGradient cx="0" cy="0" gradientTransform="matrix(0.02, 0.0, 0.0, 0.02, 16.1, 16.1)" gradientUnits="userSpaceOnUse" id="gradient5" r="819.2" spreadMethod="pad">
      <stop offset="0.0" stop-color="#fbf1bf"/>
      <stop offset="0.5686274509803921" stop-color="#fbf1bf" stop-opacity="0.96862745"/>
      <stop offset="1.0" stop-color="#faf0be" stop-opacity="0.0"/>
    </radialGradient>
    <g id="shape6" transform="matrix(1.0, 0.0, 0.0, 1.0, -26.55, -9.9)">
      <path d="M28.4 12.4 L32.25 11.45 28.5 12.8 29.0 14.5 28.25 12.95 27.1 13.05 28.05 12.5 27.25 9.9 28.4 12.4" fill="#fcf3d8" fill-opacity="0.7921569" fill-rule="evenodd" stroke="none"/>
      <path d="M27.7 12.55 L28.0 12.2 28.35 12.1 28.65 12.4 28.75 12.85 28.4 13.2 28.05 13.3 27.75 12.95 27.7 12.55" fill="#fcf3d8" fill-opacity="0.84313726" fill-rule="evenodd" stroke="none"/>
      <path d="M29.3 12.7 Q29.45 13.1 30.15 13.35 29.5 13.2 29.1 13.35 L28.75 13.8 27.95 13.9 27.35 13.35 26.55 13.6 27.25 13.05 27.25 12.45 27.5 11.9 27.45 11.45 27.8 11.75 27.85 11.7 28.55 11.65 Q28.95 11.8 29.15 12.2 L29.3 12.7 M27.7 12.55 L27.75 12.95 28.05 13.3 28.4 13.2 28.75 12.85 28.65 12.4 28.35 12.1 28.0 12.2 27.7 12.55" fill="#fcf3d8" fill-opacity="0.3019608" fill-rule="evenodd" stroke="none"/>
    </g>
    <g id="shape7" transform="matrix(1.0, 0.0, 0.0, 1.0, -23.9, -18.5)">
      <path d="M28.0 23.9 L36.5 21.95 28.2 24.9 29.3 28.55 27.7 25.2 25.15 25.3 27.2 24.25 25.45 18.5 28.0 23.9" fill="#fcf3d8" fill-opacity="0.7921569" fill-rule="evenodd" stroke="none"/>
      <path d="M26.45 24.3 Q26.6 23.75 27.05 23.55 L27.95 23.35 28.6 24.0 Q28.85 24.5 28.7 25.05 L28.05 25.75 27.25 25.9 Q26.75 25.75 26.55 25.2 26.35 24.85 26.45 24.3" fill="#fcf3d8" fill-opacity="0.84313726" fill-rule="evenodd" stroke="none"/>
      <path d="M29.95 24.65 Q30.3 25.45 31.85 25.95 L29.55 26.1 28.7 27.1 26.95 27.25 Q26.0 26.9 25.6 26.0 L23.9 26.7 25.45 25.3 Q25.3 24.75 25.45 24.0 L26.0 22.9 25.85 21.95 26.65 22.5 26.7 22.4 28.35 22.25 Q29.2 22.65 29.65 23.55 L29.95 24.65 M26.45 24.3 Q26.35 24.85 26.55 25.2 26.75 25.75 27.25 25.9 L28.05 25.75 28.7 25.05 Q28.85 24.5 28.6 24.0 L27.95 23.35 27.05 23.55 Q26.6 23.75 26.45 24.3" fill="#fcf3d8" fill-opacity="0.3019608" fill-rule="evenodd" stroke="none"/>
    </g>
    <g id="sprite5" transform="matrix(1.0, 0.0, 0.0, 1.0, 0.0, 0.0)">
      <use height="165.7" transform="matrix(1.0, 0.0, 0.0, 1.0, 0.0, 0.0)" width="185.15" xlink:href="#shape8"/>
    </g>
    <g id="shape8" transform="matrix(1.0, 0.0, 0.0, 1.0, 0.0, 0.0)">
      <path d="M179.2 96.1 Q166.05 129.9 131.3 149.95 96.6 170.0 60.7 164.5 24.85 159.0 8.8 131.2 -7.25 103.4 5.9 69.6 19.1 35.8 53.8 15.75 88.55 -4.3 124.4 1.2 160.3 6.65 176.35 34.45 192.4 62.25 179.2 96.1" fill="url(#gradient6)" fill-rule="evenodd" stroke="none"/>
    </g>
    <radialGradient cx="0" cy="0" gradientTransform="matrix(0.1028, -0.0593, 0.0593, 0.1028, 92.55, 82.85)" gradientUnits="userSpaceOnUse" id="gradient6" r="819.2" spreadMethod="pad">
      <stop offset="0.396078431372549" stop-color="#ffffff" stop-opacity="0.43137255"/>
      <stop offset="1.0" stop-color="#ffffff" stop-opacity="0.0"/>
    </radialGradient>
  </defs>
</svg>
