<?xml version="1.0" encoding="UTF-8" standalone="no"?>
<svg xmlns:xlink="http://www.w3.org/1999/xlink" height="440.0px" width="440.0px" xmlns="http://www.w3.org/2000/svg">
  <g transform="matrix(10.0, 0.0, 0.0, 10.0, 0.0, 0.0)">
    <use height="44.0" transform="matrix(1.0, 0.0, 0.0, 1.0, 0.0, 0.0)" width="44.0" xlink:href="#shape0"/>
  </g>
  <defs>
    <g id="shape0" transform="matrix(1.0, 0.0, 0.0, 1.0, 0.0, 0.0)">
      <path d="M44.0 44.0 L0.0 44.0 0.0 0.0 44.0 0.0 44.0 44.0" fill="#33cc33" fill-opacity="0.0" fill-rule="evenodd" stroke="none"/>
      <path d="M33.3 11.7 L33.65 12.0 33.15 11.8 33.3 11.7" fill="#444444" fill-rule="evenodd" stroke="none"/>
      <path d="M8.2 22.65 Q8.1 25.15 9.05 28.6 6.75 26.4 6.75 23.25 6.85 20.0 10.0 18.1 8.5 20.15 8.2 22.65" fill="#dddddd" fill-rule="evenodd" stroke="none"/>
      <path d="M6.85 18.0 Q7.6 16.3 8.8 14.7 12.7 9.35 19.45 8.15 L19.7 8.1 23.85 7.9 Q27.65 8.1 30.95 10.0 L31.75 10.5 33.3 11.7 33.15 11.8 Q31.6 11.35 29.95 11.8 28.5 13.2 26.7 14.15 24.7 15.15 22.45 15.55 18.2 16.3 12.7 14.95 9.7 15.8 6.85 18.0 M18.3 11.95 Q16.55 15.4 25.95 11.7 27.25 11.05 27.05 10.35 26.95 9.6 25.35 9.2 21.45 8.2 15.25 10.45 8.6 14.1 12.7 14.95 8.6 14.1 15.25 10.45 21.45 8.2 25.35 9.2 26.95 9.6 27.05 10.35 27.25 11.05 25.95 11.7 16.55 15.4 18.3 11.95" fill="url(#gradient0)" fill-rule="evenodd" stroke="none"/>
      <path d="M6.85 18.0 Q9.7 15.8 12.7 14.95 18.2 16.3 22.45 15.55 24.7 15.15 26.7 14.15 28.5 13.2 29.95 11.8 31.6 11.35 33.15 11.8 L33.65 12.0 Q37.55 15.25 38.45 20.3 39.6 26.55 35.65 31.9 31.8 37.25 25.0 38.5 18.3 39.7 12.75 36.1 7.15 32.55 6.0 26.3 5.2 21.95 6.85 18.0 M29.45 19.95 L28.6 19.3 Q25.45 17.55 21.6 18.3 17.7 19.0 15.4 21.75 L14.55 23.0 Q14.35 23.95 14.55 25.0 15.05 27.75 17.7 29.25 20.45 30.75 23.7 30.15 L25.75 29.5 Q27.65 28.75 28.9 27.2 30.8 24.9 30.3 22.1 30.15 20.85 29.45 19.95 M8.2 22.65 Q8.5 20.15 10.0 18.1 6.85 20.0 6.75 23.25 6.75 26.4 9.05 28.6 8.1 25.15 8.2 22.65" fill="url(#gradient1)" fill-rule="evenodd" stroke="none"/>
      <path d="M33.3 11.7 L31.75 10.5 30.95 10.0 Q27.65 8.1 23.85 7.9 L19.7 8.1 19.45 8.15 Q12.7 9.35 8.8 14.7 7.6 16.3 6.85 18.0 M12.7 14.95 Q8.6 14.1 15.25 10.45 21.45 8.2 25.35 9.2 26.95 9.6 27.05 10.35 27.25 11.05 25.95 11.7 16.55 15.4 18.3 11.95 M33.65 12.0 L33.3 11.7 M33.65 12.0 Q37.55 15.25 38.45 20.3 39.6 26.55 35.65 31.9 31.8 37.25 25.0 38.5 18.3 39.7 12.75 36.1 7.15 32.55 6.0 26.3 5.2 21.95 6.85 18.0 M12.7 14.95 Q18.2 16.3 22.45 15.55 24.7 15.15 26.7 14.15 28.5 13.2 29.95 11.8" fill="none" stroke="#000000" stroke-linecap="round" stroke-linejoin="round" stroke-opacity="0.3019608" stroke-width="0.05"/>
      <path d="M15.55 27.15 Q16.35 28.35 17.85 29.15 L19.45 29.85 Q19.95 32.45 23.25 34.0 20.4 34.25 17.95 32.95 15.15 28.75 15.55 27.15 M30.25 30.85 L29.35 28.6 31.5 29.3 32.1 31.65 30.25 30.85" fill="#7a8996" fill-rule="evenodd" stroke="none"/>
      <path d="M14.65 22.95 Q14.5 23.9 14.65 24.95 L14.7 25.15 Q15.0 26.3 15.55 27.15 15.15 28.75 17.95 32.95 L17.55 32.75 Q14.4 31.0 13.8 27.75 13.35 25.2 14.65 22.95" fill="#535e68" fill-rule="evenodd" stroke="none"/>
      <path d="M25.8 29.5 Q27.75 28.7 29.0 27.1 30.95 24.8 30.4 22.05 30.2 20.85 29.5 19.8 31.9 21.6 32.4 24.3 32.9 26.95 31.5 29.3 L29.35 28.6 30.25 30.85 27.7 32.8 Q28.6 30.65 25.8 29.5" fill="#c7d2da" fill-rule="evenodd" stroke="none"/>
      <path d="M19.45 29.85 L23.75 30.1 25.8 29.5 Q28.6 30.65 27.7 32.8 26.25 33.55 24.55 33.8 L23.25 34.0 Q19.95 32.45 19.45 29.85" fill="#94aab8" fill-rule="evenodd" stroke="none"/>
      <path d="M25.8 29.5 Q27.75 28.7 29.0 27.1 30.95 24.8 30.4 22.05 30.2 20.85 29.5 19.8 L28.65 19.25 Q25.6 17.5 21.7 18.2 17.85 18.95 15.5 21.7 L14.65 22.95 Q14.5 23.9 14.65 24.95 L14.7 25.15 Q15.0 26.3 15.55 27.15 16.35 28.35 17.85 29.15 L19.45 29.85 23.75 30.1 25.8 29.5 Z" fill="none" stroke="#000000" stroke-linecap="round" stroke-linejoin="round" stroke-opacity="0.3019608" stroke-width="0.05"/>
      <path d="M27.85 8.35 Q31.0 9.25 34.4 11.6 L33.5 12.6 Q30.65 11.55 28.2 13.75 23.0 18.0 12.1 15.9 10.75 15.5 9.25 17.7 L8.25 17.2 11.25 14.3 Q18.8 16.05 24.8 13.95 31.65 10.55 27.85 8.35" fill="#666666" fill-rule="evenodd" stroke="none"/>
      <path d="M8.25 17.2 L7.85 17.0 13.35 11.65 Q20.9 8.4 27.8 8.3 L27.85 8.3 27.85 8.35 Q31.65 10.55 24.8 13.95 18.8 16.05 11.25 14.3 L8.25 17.2" fill="#cccccc" fill-rule="evenodd" stroke="none"/>
      <path d="M7.85 17.0 L7.2 16.65 Q9.05 12.45 14.2 9.45 17.1 8.0 22.55 7.65 25.1 7.45 27.8 8.3 20.9 8.4 13.35 11.65 L7.85 17.0" fill="#eaeaea" fill-rule="evenodd" stroke="none"/>
      <path d="M27.85 8.35 Q31.0 9.25 34.4 11.6 L33.5 12.6 Q30.65 11.55 28.2 13.75 23.0 18.0 12.1 15.9 10.75 15.5 9.25 17.7 L8.25 17.2 7.85 17.0 7.2 16.65 Q9.05 12.45 14.2 9.45 17.1 8.0 22.55 7.65 25.1 7.45 27.8 8.3 L27.85 8.3" fill="none" stroke="#000000" stroke-linecap="round" stroke-linejoin="round" stroke-opacity="0.3019608" stroke-width="0.05"/>
      <path d="M12.85 12.4 L12.5 11.5 Q12.35 9.75 14.4 8.1 16.45 6.55 19.5 5.95 L24.95 6.3 Q26.2 6.75 26.9 7.5 L25.55 10.25 Q22.55 13.65 12.85 12.4" fill="#5073a7" fill-rule="evenodd" stroke="none"/>
      <path d="M26.9 7.5 Q27.4 8.05 27.5 8.85 27.75 10.55 25.6 12.2 23.55 13.75 20.45 14.25 L15.0 14.05 Q13.35 13.4 12.85 12.4 22.55 13.65 25.55 10.25 L26.9 7.5" fill="#2d405b" fill-rule="evenodd" stroke="none"/>
      <path d="M12.85 12.4 L12.5 11.5 Q12.35 9.75 14.4 8.1 16.45 6.55 19.5 5.95 L24.95 6.3 Q26.2 6.75 26.9 7.5 27.4 8.05 27.5 8.85 27.75 10.55 25.6 12.2 23.55 13.75 20.45 14.25 L15.0 14.05 Q13.35 13.4 12.85 12.4 Z" fill="none" stroke="#000000" stroke-linecap="round" stroke-linejoin="round" stroke-opacity="0.3019608" stroke-width="0.05"/>
      <path d="M17.8 12.65 Q13.4 12.1 13.4 10.15 13.5 8.3 16.95 7.15 15.35 8.4 15.0 9.95 14.9 11.45 17.8 12.65" fill="#79aca7" fill-rule="evenodd" stroke="none"/>
    </g>
    <linearGradient gradientTransform="matrix(0.0111, -0.0021, 9.0E-4, 0.0047, 15.4, 12.85)" gradientUnits="userSpaceOnUse" id="gradient0" spreadMethod="pad" x1="-819.2" x2="819.2">
      <stop offset="0.0" stop-color="#949494"/>
      <stop offset="1.0" stop-color="#777777"/>
    </linearGradient>
    <linearGradient gradientTransform="matrix(0.0201, 1.0E-4, -1.0E-4, 0.0166, 22.2, 25.15)" gradientUnits="userSpaceOnUse" id="gradient1" spreadMethod="pad" x1="-819.2" x2="819.2">
      <stop offset="0.0" stop-color="#cccccc"/>
      <stop offset="1.0" stop-color="#919191"/>
    </linearGradient>
  </defs>
</svg>
