<?xml version="1.0" encoding="UTF-8" standalone="no"?>
<svg xmlns:xlink="http://www.w3.org/1999/xlink" height="440.0px" width="440.0px" xmlns="http://www.w3.org/2000/svg">
  <g transform="matrix(10.0, 0.0, 0.0, 10.0, 0.0, 0.0)">
    <use height="44.0" transform="matrix(1.0, 0.0, 0.0, 1.0, 0.0, 0.0)" width="44.0" xlink:href="#shape0"/>
  </g>
  <defs>
    <g id="shape0" transform="matrix(1.0, 0.0, 0.0, 1.0, 0.0, 0.0)">
      <path d="M44.0 44.0 L0.0 44.0 0.0 0.0 44.0 0.0 44.0 44.0" fill="#43adca" fill-opacity="0.0" fill-rule="evenodd" stroke="none"/>
      <path d="M19.6 8.7 L19.35 8.75 19.6 8.65 19.6 8.7" fill="#feb74e" fill-rule="evenodd" stroke="none"/>
      <path d="M16.55 10.2 L16.6 10.25 16.4 10.25 16.55 10.2" fill="#835a0d" fill-rule="evenodd" stroke="none"/>
      <path d="M32.3 37.25 L32.3 37.2 32.4 37.2 32.3 37.25" fill="#fcb738" fill-rule="evenodd" stroke="none"/>
      <path d="M19.6 11.4 Q21.05 12.45 22.65 14.5 L24.4 16.85 25.05 17.8 22.2 19.8 Q19.9 19.55 17.15 16.9 L15.6 15.05 Q14.8 14.25 14.1 13.75 L19.6 11.4 M30.2 30.75 L30.2 31.15 30.5 32.6 30.4 35.7 30.4 35.85 25.55 38.4 25.35 36.15 24.8 33.25 Q27.5 31.95 30.2 30.75 M26.6 12.85 Q24.8 10.65 23.25 9.6 L27.55 7.15 Q29.35 8.15 31.25 10.55 L33.0 12.9 29.5 14.95 26.6 12.85 M38.8 27.3 L39.05 28.75 39.05 29.6 38.9 31.8 34.4 33.9 34.45 31.0 34.2 29.6 34.1 29.1 38.8 27.3" fill="#c1cfd5" fill-rule="evenodd" stroke="none"/>
      <path d="M29.35 16.75 L28.55 15.55 28.35 15.25 26.6 12.85 29.5 14.95 29.35 16.75 M22.2 19.8 Q21.7 21.65 22.85 26.85 L22.05 24.9 20.15 21.3 Q18.85 18.95 17.15 16.9 19.9 19.55 22.2 19.8" fill="#d1dee0" fill-rule="evenodd" stroke="none"/>
      <path d="M30.9 25.25 L30.8 25.1 30.4 23.85 30.25 23.7 29.7 22.5 Q28.35 19.4 26.6 16.8 L26.6 16.75 26.45 16.5 24.7 14.15 Q22.9 11.9 21.35 10.85 L21.05 10.7 21.0 10.65 Q19.8 9.9 18.6 9.9 L17.35 9.8 19.35 8.75 19.6 8.7 20.55 8.65 Q21.7 8.65 22.9 9.45 L23.25 9.6 Q24.8 10.65 26.6 12.85 L28.35 15.25 28.55 15.55 29.35 16.75 31.6 21.2 32.2 22.5 32.3 22.65 33.7 27.1 30.9 25.25" fill="#a2b8bd" fill-rule="evenodd" stroke="none"/>
      <path d="M17.35 9.8 L16.55 10.2 16.4 10.25 16.6 10.25 Q17.75 10.25 18.95 11.0 L19.6 11.4 14.1 13.75 Q12.85 12.65 11.6 12.3 L11.4 12.25 9.25 12.3 19.35 8.75 17.35 9.8 M25.05 17.8 Q26.5 20.15 27.65 22.85 L28.25 24.05 28.3 24.2 Q29.7 27.7 30.2 30.75 27.5 31.95 24.8 33.25 L22.85 26.85 Q21.7 21.65 22.2 19.8 L25.05 17.8 M30.4 35.85 Q30.45 36.8 30.1 37.45 L29.1 38.45 29.0 38.6 28.3 39.35 30.05 38.7 24.05 42.45 25.1 41.25 25.35 40.55 25.55 38.4 30.4 35.85 M33.7 27.1 L32.3 22.65 32.2 22.5 31.6 21.2 29.35 16.75 29.5 14.95 33.0 12.9 Q34.8 15.7 36.25 18.9 L36.8 20.15 36.85 20.35 Q38.3 24.05 38.8 27.3 L34.1 29.1 33.7 27.1 M23.25 9.6 L22.9 9.45 Q21.7 8.65 20.55 8.65 L19.6 8.7 19.6 8.65 23.95 6.5 25.15 6.3 Q26.3 6.3 27.55 7.15 L23.25 9.6 M38.9 31.8 Q39.05 32.85 38.65 33.5 L37.7 34.55 Q37.6 34.55 37.55 34.65 L36.5 35.7 33.0 37.0 33.0 36.95 33.05 36.85 34.05 35.8 Q34.45 35.15 34.3 34.15 L34.4 33.9 38.9 31.8" fill="#6b8f98" fill-rule="evenodd" stroke="none"/>
      <path d="M32.3 37.2 L32.4 35.35 32.45 35.15 32.45 34.8 32.5 32.25 32.3 30.8 32.2 30.35 32.1 29.95 30.9 25.25 33.7 27.1 34.1 29.1 34.2 29.6 34.45 31.0 34.4 33.9 34.3 34.15 Q34.45 35.15 34.05 35.8 L33.05 36.85 33.0 36.95 33.0 37.0 32.4 37.2 32.3 37.2 M22.85 26.85 L24.8 33.25 25.35 36.15 25.55 38.4 25.35 40.55 25.1 41.25 24.05 42.45 Q23.15 43.1 22.1 43.1 L21.0 42.85 Q20.25 42.65 19.45 42.1 16.8 40.25 13.6 35.35 L11.05 31.35 Q6.35 21.05 7.1 16.0 7.25 14.65 7.85 13.7 L8.1 13.45 Q8.55 12.75 9.25 12.3 L11.4 12.25 11.6 12.3 Q12.85 12.65 14.1 13.75 14.8 14.25 15.6 15.05 L17.15 16.9 Q18.85 18.95 20.15 21.3 L22.05 24.9 22.85 26.85 M19.45 22.5 L19.2 22.15 17.3 19.35 15.9 17.85 Q13.1 14.9 10.9 15.65 6.95 18.0 11.6 29.25 L12.25 30.8 13.1 32.2 14.5 34.3 16.9 37.55 Q20.35 41.45 22.75 39.75 24.3 38.65 23.7 34.7 L23.65 33.9 22.9 30.65 Q22.2 28.2 21.1 25.8 L19.45 22.5 M13.6 35.35 L14.5 34.3 13.6 35.35" fill="#87a4ad" fill-rule="evenodd" stroke="none"/>
      <path d="M22.9 30.65 L23.65 33.9 23.7 34.7 Q24.3 38.65 22.75 39.75 20.35 41.45 16.9 37.55 L14.5 34.3 22.9 30.65" fill="#63848f" fill-rule="evenodd" stroke="none"/>
      <path d="M17.35 9.8 L18.6 9.9 Q19.8 9.9 21.0 10.65 L21.05 10.7 21.35 10.85 Q22.9 11.9 24.7 14.15 L26.45 16.5 26.6 16.75 26.6 16.8 Q28.35 19.4 29.7 22.5 L30.25 23.7 30.4 23.85 30.8 25.1 30.9 25.25 32.1 29.95 32.2 30.35 32.3 30.8 32.5 32.25 32.45 34.8 32.45 35.15 32.4 35.35 32.3 37.2 32.3 37.25 30.05 38.7 28.3 39.35 29.0 38.6 29.1 38.45 30.1 37.45 Q30.45 36.8 30.4 35.85 L30.4 35.7 30.5 32.6 30.2 31.15 30.2 30.75 Q29.7 27.7 28.3 24.2 L28.25 24.05 27.65 22.85 Q26.5 20.15 25.05 17.8 L24.4 16.85 22.65 14.5 Q21.05 12.45 19.6 11.4 L18.95 11.0 Q17.75 10.25 16.6 10.25 L16.55 10.2 17.35 9.8 M13.1 32.2 Q14.2 25.25 19.45 22.5 L21.1 25.8 Q22.2 28.2 22.9 30.65 L14.5 34.3 13.1 32.2" fill="#486166" fill-rule="evenodd" stroke="none"/>
      <path d="M10.9 15.65 Q13.1 14.9 15.9 17.85 L17.3 19.35 19.2 22.15 19.45 22.5 Q14.2 25.25 13.1 32.2 L12.25 30.8 11.6 29.25 Q6.95 18.0 10.9 15.65" fill="#324347" fill-rule="evenodd" stroke="none"/>
      <path d="M30.05 38.7 L32.3 37.25 M27.55 7.15 Q29.35 8.15 31.25 10.55 L33.0 12.9 Q34.8 15.7 36.25 18.9 L36.8 20.15 36.85 20.35 Q38.3 24.05 38.8 27.3 L39.05 28.75 39.05 29.6 38.9 31.8 Q39.05 32.85 38.65 33.5 L37.7 34.55 Q37.6 34.55 37.55 34.65 L36.5 35.7 33.0 37.0 32.4 37.2 32.3 37.25 M19.6 8.65 L23.95 6.5 25.15 6.3 Q26.3 6.3 27.55 7.15 M19.6 8.65 L19.35 8.75 9.25 12.3 M24.05 42.45 Q23.15 43.1 22.1 43.1 L21.0 42.85 Q20.25 42.65 19.45 42.1 16.8 40.25 13.6 35.35 L11.05 31.35 Q6.35 21.05 7.1 16.0 7.25 14.65 7.85 13.7 L8.1 13.45 Q8.55 12.75 9.25 12.3 M10.9 15.65 Q6.95 18.0 11.6 29.25 L12.25 30.8 M14.5 34.3 L13.6 35.35 M24.05 42.45 L30.05 38.7 M22.9 30.65 L14.5 34.3" fill="none" stroke="#000000" stroke-linecap="round" stroke-linejoin="round" stroke-opacity="0.2" stroke-width="0.05"/>
      <path d="M20.55 14.85 Q19.7 15.8 18.25 16.0 16.8 16.1 15.6 15.25 14.4 14.45 14.05 13.15 13.75 11.8 14.5 10.8 15.25 9.8 16.7 9.7 18.15 9.5 19.45 10.35 20.65 11.2 20.95 12.5 21.3 13.8 20.55 14.85" fill="#432f12" fill-opacity="0.4509804" fill-rule="evenodd" stroke="none"/>
      <path d="M19.15 6.15 Q20.45 7.5 20.45 9.35 20.45 11.2 19.15 12.6 17.85 13.9 15.95 13.9 14.05 13.9 12.7 12.6 L11.6 10.8 Q12.9 12.05 14.75 12.05 16.65 12.05 18.0 10.65 L18.15 10.5 18.2 10.5 Q19.3 9.15 19.3 7.5 L19.15 6.15" fill="#65123d" fill-rule="evenodd" stroke="none"/>
      <path d="M11.6 10.8 L11.45 9.35 Q11.45 7.5 12.7 6.15 13.5 5.35 14.5 5.05 L14.5 5.1 15.65 4.85 15.65 4.8 15.85 4.8 15.95 4.8 Q17.8 4.8 19.15 6.15 L19.3 7.5 Q19.3 9.15 18.2 10.5 L18.15 10.5 18.0 10.65 Q16.65 12.05 14.75 12.05 12.9 12.05 11.6 10.8" fill="url(#gradient0)" fill-rule="evenodd" stroke="none"/>
      <path d="M11.6 10.8 L11.45 9.35 Q11.45 7.5 12.7 6.15 13.5 5.35 14.5 5.05 M15.65 4.8 L15.85 4.8 15.95 4.8 Q17.8 4.8 19.15 6.15 20.45 7.5 20.45 9.35 20.45 11.2 19.15 12.6 17.85 13.9 15.95 13.9 14.05 13.9 12.7 12.6 L11.6 10.8 Z" fill="none" stroke="#000000" stroke-linecap="round" stroke-linejoin="round" stroke-opacity="0.2" stroke-width="0.05"/>
      <path d="M29.0 10.65 Q28.3 11.4 27.0 11.4 25.8 11.5 24.75 10.7 23.65 10.1 23.45 9.05 23.2 8.0 23.9 7.25 24.6 6.5 25.8 6.45 27.1 6.45 28.1 7.2 29.2 7.85 29.45 8.85 29.7 9.9 29.0 10.65" fill="#432f12" fill-opacity="0.4509804" fill-rule="evenodd" stroke="none"/>
      <path d="M27.5 3.2 Q28.55 4.35 28.55 5.9 28.55 7.4 27.5 8.6 26.3 9.7 24.8 9.7 23.2 9.7 22.1 8.6 21.45 7.9 21.15 7.0 22.25 8.05 23.85 8.05 25.4 8.05 26.45 7.0 L26.6 6.85 Q27.6 5.75 27.6 4.35 L27.5 3.2" fill="#65123d" fill-rule="evenodd" stroke="none"/>
      <path d="M24.55 2.15 L24.7 2.15 24.8 2.15 Q26.3 2.15 27.4 3.2 L27.5 3.2 27.6 4.35 Q27.6 5.75 26.6 6.85 L26.45 7.0 Q25.4 8.05 23.85 8.05 22.25 8.05 21.15 7.0 L21.05 5.9 Q21.05 4.35 22.1 3.2 L23.55 2.3 23.6 2.3 24.55 2.15" fill="url(#gradient1)" fill-rule="evenodd" stroke="none"/>
      <path d="M24.55 2.15 L24.7 2.15 24.8 2.15 Q26.3 2.15 27.4 3.2 L27.5 3.2 Q28.55 4.35 28.55 5.9 28.55 7.4 27.5 8.6 26.3 9.7 24.8 9.7 23.2 9.7 22.1 8.6 21.45 7.9 21.15 7.0 L21.05 5.9 Q21.05 4.35 22.1 3.2 L23.55 2.3" fill="none" stroke="#000000" stroke-linecap="round" stroke-linejoin="round" stroke-opacity="0.2" stroke-width="0.05"/>
      <path d="M14.85 8.5 L14.05 8.85 Q13.6 8.85 13.25 8.5 12.9 8.15 12.9 7.7 12.9 7.25 13.25 6.9 13.6 6.55 14.05 6.55 14.5 6.55 14.85 6.9 15.2 7.25 15.2 7.7 L14.85 8.5" fill="#fec167" fill-rule="evenodd" stroke="none"/>
      <path d="M23.85 5.4 L23.2 5.6 22.55 5.4 22.35 4.75 22.55 4.1 23.2 3.9 23.85 4.1 24.05 4.75 23.85 5.4" fill="#fec167" fill-rule="evenodd" stroke="none"/>
    </g>
    <radialGradient cx="0" cy="0" gradientTransform="matrix(0.0063, 0.0, 0.0, 0.0063, 14.35, 7.6)" gradientUnits="userSpaceOnUse" id="gradient0" r="819.2" spreadMethod="pad">
      <stop offset="0.0" stop-color="#fc1b1b"/>
      <stop offset="1.0" stop-color="#a82e4d"/>
    </radialGradient>
    <radialGradient cx="0" cy="0" gradientTransform="matrix(0.0052, 0.0, 0.0, 0.0052, 23.5, 4.4)" gradientUnits="userSpaceOnUse" id="gradient1" r="819.2" spreadMethod="pad">
      <stop offset="0.0" stop-color="#fc1b1b"/>
      <stop offset="1.0" stop-color="#a82e4d"/>
    </radialGradient>
  </defs>
</svg>
