<?xml version="1.0" encoding="UTF-8" standalone="no"?>
<svg xmlns:xlink="http://www.w3.org/1999/xlink" height="440.0px" width="440.0px" xmlns="http://www.w3.org/2000/svg">
  <g transform="matrix(10.0, 0.0, 0.0, 10.0, 0.0, 0.0)">
    <use height="44.0" transform="matrix(0.9091, 0.0, 0.0, 0.9091, 2.0, 2.0)" width="44.0" xlink:href="#sprite0"/>
  </g>
  <defs>
    <g id="sprite0" transform="matrix(1.0, 0.0, 0.0, 1.0, 0.0, 0.0)">
      <use height="44.0" transform="matrix(1.0, 0.0, 0.0, 1.0, 0.0, 0.0)" width="44.0" xlink:href="#shape0"/>
      <use height="47.9" transform="matrix(0.7928, 0.0, 0.0, 0.7933, 8.85, 2.8723)" width="33.25" xlink:href="#sprite1"/>
    </g>
    <g id="shape0" transform="matrix(1.0, 0.0, 0.0, 1.0, 0.0, 0.0)">
      <path d="M44.0 44.0 L0.0 44.0 0.0 0.0 44.0 0.0 44.0 44.0" fill="#43adca" fill-opacity="0.0" fill-rule="evenodd" stroke="none"/>
    </g>
    <g id="sprite1" transform="matrix(1.0, 0.0, 0.0, 1.0, 0.0, 0.35)">
      <use height="34.45" transform="matrix(1.0, 0.0, 0.0, 1.0, 0.0, 13.1)" width="33.25" xlink:href="#shape1"/>
      <use height="21.6" transform="matrix(1.0, 0.0, 0.0, 0.9615, 6.95, -0.3365)" width="24.8" xlink:href="#shape2"/>
    </g>
    <g id="shape1" transform="matrix(1.0, 0.0, 0.0, 1.0, 0.0, -13.1)">
      <path d="M22.2 22.1 L22.35 21.95 22.55 22.1 22.2 22.1" fill="#ff9999" fill-rule="evenodd" stroke="none"/>
      <path d="M15.85 45.55 L15.85 45.5 16.15 45.5 15.85 45.55 16.15 45.6 15.85 45.55 M23.85 43.7 L23.9 43.65 23.9 43.7 23.85 43.7" fill="#5c4a23" fill-rule="evenodd" stroke="none"/>
      <path d="M16.15 45.45 L16.15 45.5 15.85 45.5 16.15 45.45 M23.85 43.7 L23.9 43.65 23.85 43.7" fill="#9e7041" fill-rule="evenodd" stroke="none"/>
      <path d="M15.8 45.55 L15.85 45.55 15.8 45.55" fill="#0e96de" fill-rule="evenodd" stroke="none"/>
      <path d="M22.9 14.2 L22.85 14.05 22.95 14.2 22.9 14.2" fill="#13a4f0" fill-rule="evenodd" stroke="none"/>
      <path d="M23.85 43.7 L23.85 43.65 23.9 43.65 23.85 43.7" fill="#0a6f94" fill-rule="evenodd" stroke="none"/>
      <path d="M24.8 43.2 L24.85 43.15 25.7 42.7 24.8 43.2" fill="#0ea6de" fill-rule="evenodd" stroke="none"/>
      <path d="M4.15 23.15 L4.25 23.1 4.15 23.15 M5.3 27.8 L5.4 27.75 5.3 27.8" fill="#0d95c8" fill-rule="evenodd" stroke="none"/>
      <path d="M23.6 20.65 L23.75 20.65 23.75 20.85 23.6 20.65" fill="#dbcc79" fill-rule="evenodd" stroke="none"/>
      <path d="M8.0 15.2 L7.8 15.3 8.0 15.2 M15.85 45.55 L16.15 45.5 16.15 45.6 15.85 45.55" fill="#c9a83a" fill-rule="evenodd" stroke="none"/>
      <path d="M31.3 32.55 L31.45 32.55 31.35 32.9 31.3 32.55" fill="#b37233" fill-rule="evenodd" stroke="none"/>
      <path d="M7.3 35.8 L7.95 35.95 7.3 35.95 7.3 35.8 M21.5 32.75 L21.6 32.6 21.7 32.5 21.5 32.75 M15.85 45.55 L15.8 45.55 15.45 45.55 16.15 45.45 15.85 45.5 15.85 45.55 M12.3 45.25 L12.75 45.35 12.45 45.35 12.3 45.25 M23.9 43.65 L23.95 43.65 23.9 43.7 23.9 43.65 M7.45 38.1 L7.5 38.2 7.55 38.65 7.45 38.2 7.45 38.1" fill="#6a4e20" fill-rule="evenodd" stroke="none"/>
      <path d="M31.35 32.9 L31.45 32.55 31.45 32.9 31.35 32.9" fill="#8a5f2b" fill-rule="evenodd" stroke="none"/>
      <path d="M9.0 13.65 L9.7 13.1 19.35 13.1 20.2 13.1 Q22.05 13.4 20.9 13.3 L22.9 14.2 23.75 20.65 23.6 20.65 18.55 20.5 17.9 20.6 17.85 20.65 Q14.55 21.25 11.55 23.55 L11.4 23.55 9.45 20.5 6.1 16.65 9.0 14.75 8.0 15.2 9.45 13.75 9.0 13.65 M18.65 15.85 L19.35 13.1 18.65 15.85" fill="#e0f5ff" fill-rule="evenodd" stroke="none"/>
      <path d="M32.9 34.65 L32.45 36.45 Q31.25 39.5 28.85 42.15 L28.6 42.4 28.45 42.55 26.8 44.0 24.75 45.25 23.95 43.65 28.8 38.25 28.85 38.25 31.2 35.35 31.45 32.9 31.45 32.55 Q31.5 33.9 32.9 34.65 M0.0 28.25 Q0.75 22.3 4.85 17.95 L6.1 16.65 9.45 20.5 11.4 23.55 10.05 24.7 7.0 28.1 Q5.45 31.6 5.3 35.5 L3.95 35.0 Q1.05 33.7 0.45 29.7 L0.3 29.55 0.0 28.25 M4.15 23.15 L4.25 23.1 4.15 23.15 M11.55 23.55 Q14.55 21.25 17.85 20.65 L17.9 20.6 18.55 20.5 23.6 20.65 22.35 21.95 22.2 22.1 19.35 21.95 Q15.8 22.3 13.1 24.4 L12.8 24.7 11.55 23.55 M24.8 43.2 L25.7 42.7 24.85 43.15 24.8 43.2 M5.3 27.8 L5.4 27.75 5.3 27.8" fill="#a6e2ff" fill-rule="evenodd" stroke="none"/>
      <path d="M24.75 45.25 L23.75 45.9 18.4 47.35 16.75 47.55 14.6 47.35 12.45 46.9 11.1 45.75 Q10.05 44.65 9.3 43.4 L12.3 45.25 12.45 45.35 12.75 45.35 15.45 45.55 15.8 45.55 15.85 45.55 16.15 45.6 16.15 45.5 Q22.9 44.9 23.85 43.7 L23.9 43.7 23.95 43.65 24.75 45.25" fill="#5bcaff" fill-rule="evenodd" stroke="none"/>
      <path d="M22.85 14.05 L23.25 14.35 28.6 17.95 30.5 20.5 32.25 24.9 33.25 31.55 33.15 32.35 32.4 27.85 Q31.5 25.3 29.7 23.9 L26.5 21.65 25.6 21.15 24.2 20.85 23.75 20.85 23.75 20.65 22.9 14.2 22.95 14.2 22.85 14.05 M7.75 44.8 L4.85 42.4 3.2 40.45 Q0.0 35.95 0.0 30.15 L0.0 28.25 0.3 29.55 0.45 29.7 Q1.05 33.7 3.95 35.0 L5.3 35.5 5.3 36.6 5.95 40.3 7.75 44.8" fill="#28b9ff" fill-rule="evenodd" stroke="none"/>
      <path d="M33.15 32.35 L32.9 34.65 Q31.5 33.9 31.45 32.55 L31.3 32.55 Q30.65 28.85 30.8 28.4 L28.0 24.2 26.8 23.4 26.65 23.4 25.6 22.95 25.3 22.75 22.55 22.1 22.35 21.95 23.6 20.65 23.75 20.85 24.2 20.85 25.6 21.15 26.5 21.65 29.7 23.9 Q31.5 25.3 32.4 27.85 L33.15 32.35 M12.45 46.9 L8.05 45.1 7.75 44.8 5.95 40.3 5.3 36.6 5.3 35.5 Q5.45 31.6 7.0 28.1 L10.05 24.7 11.4 23.55 11.55 23.55 12.8 24.7 11.1 26.15 Q7.45 29.8 7.3 35.15 L7.3 35.8 7.3 35.95 7.45 38.1 7.45 38.2 7.55 38.65 Q7.8 40.35 8.5 41.85 L9.3 43.4 Q10.05 44.65 11.1 45.75 L12.45 46.9" fill="#00a4f2" fill-rule="evenodd" stroke="none"/>
      <path d="M22.85 31.1 Q24.5 28.9 25.3 25.85 L25.6 22.95 26.65 23.4 26.8 23.4 28.0 24.2 30.8 28.4 Q30.65 28.85 31.3 32.55 L31.35 32.9 31.45 32.9 31.2 35.35 28.85 38.25 28.8 38.25 Q24.9 31.1 22.85 31.1" fill="#0088ca" fill-rule="evenodd" stroke="none"/>
      <path d="M14.0 36.35 L17.35 35.65 21.25 33.1 21.3 33.05 21.5 32.75 21.7 32.5 22.4 31.7 22.85 31.1 Q24.9 31.1 28.8 38.25 L23.95 43.65 23.9 43.65 23.85 43.65 19.3 42.05 Q17.45 37.2 14.0 36.35" fill="#006595" fill-rule="evenodd" stroke="none"/>
      <path d="M7.95 35.95 L10.8 36.75 12.15 36.75 14.0 36.35 Q17.45 37.2 19.3 42.05 L23.85 43.65 23.85 43.7 Q22.9 44.9 16.15 45.5 L16.15 45.45 15.45 45.55 12.75 45.35 12.3 45.25 9.3 43.4 8.5 41.85 Q7.8 40.35 7.55 38.65 L7.5 38.2 7.45 38.1 7.3 35.95 7.95 35.95" fill="#004566" fill-rule="evenodd" stroke="none"/>
      <path d="M9.0 13.65 L9.7 13.1 M20.2 13.1 Q22.05 13.4 20.9 13.3 L22.9 14.2 22.95 14.2 22.85 14.05 23.25 14.35 28.6 17.95 30.5 20.5 32.25 24.9 33.25 31.55 33.15 32.35 32.9 34.65 32.45 36.45 Q31.25 39.5 28.85 42.15 L28.6 42.4 28.45 42.55 26.8 44.0 24.75 45.25 23.75 45.9 18.4 47.35 16.75 47.55 14.6 47.35 12.45 46.9 8.05 45.1 7.75 44.8 4.85 42.4 3.2 40.45 Q0.0 35.95 0.0 30.15 L0.0 28.25 Q0.75 22.3 4.85 17.95 L6.1 16.65 9.0 14.75 8.0 15.2 7.8 15.3 8.0 15.2 9.45 13.75 M12.8 24.7 L13.1 24.4 Q15.8 22.3 19.35 21.95 L22.2 22.1 M12.8 24.7 L11.1 26.15 Q7.45 29.8 7.3 35.15 L7.3 35.8 7.95 35.95 10.8 36.75 12.15 36.75 14.0 36.35 17.35 35.65 21.25 33.1 21.5 32.75 21.6 32.6 21.7 32.5 22.4 31.7 22.85 31.1 Q24.5 28.9 25.3 25.85 L25.6 22.95 25.3 22.75 22.55 22.1 22.2 22.1 M25.6 22.95 L26.65 23.4 26.8 23.4 28.0 24.2 M19.35 13.1 L18.65 15.85 M28.85 38.25 L28.8 38.25 Q24.9 31.1 22.85 31.1 M21.25 33.1 L21.3 33.05 21.5 32.75 21.7 32.5 M9.3 43.4 Q10.05 44.65 11.1 45.75 L12.45 46.9 M7.3 35.8 L7.3 35.95 7.45 38.1 7.45 38.2 7.55 38.65 Q7.8 40.35 8.5 41.85 L9.3 43.4" fill="none" stroke="#33444a" stroke-linecap="round" stroke-linejoin="round" stroke-opacity="0.6313726" stroke-width="0.05"/>
    </g>
    <g id="shape2" transform="matrix(1.0, 0.0, 0.0, 1.0, 0.35, 0.35)">
      <path d="M5.2 4.5 L6.05 0.0 12.05 2.0 18.05 0.0 19.25 6.2 24.1 10.5 19.25 14.7 18.6 18.25 14.05 15.15 7.75 15.5 8.3 9.2 5.2 4.5" fill="#e0f5ff" fill-rule="evenodd" stroke="none"/>
      <path d="M5.2 4.5 L8.3 9.2 7.75 15.5 14.05 15.15 18.6 18.25 18.05 20.9 12.05 18.8 6.05 20.9 4.85 14.7 0.0 10.5 4.85 6.2 5.2 4.5" fill="#cceeff" fill-rule="evenodd" stroke="none"/>
      <path d="M18.6 18.25 L19.25 14.7 24.1 10.5 19.25 6.2 18.05 0.0 12.05 2.0 6.05 0.0 5.2 4.5 M18.6 18.25 L18.05 20.9 12.05 18.8 6.05 20.9 4.85 14.7 0.0 10.5 4.85 6.2 5.2 4.5" fill="none" stroke="#83c6e1" stroke-linecap="round" stroke-linejoin="round" stroke-opacity="0.6901961" stroke-width="0.75"/>
    </g>
  </defs>
</svg>
