<?xml version="1.0" encoding="UTF-8" standalone="no"?>
<svg xmlns:xlink="http://www.w3.org/1999/xlink" height="440.0px" width="440.0px" xmlns="http://www.w3.org/2000/svg">
  <g transform="matrix(10.0, 0.0, 0.0, 10.0, 0.0, 0.0)">
    <use height="44.0" transform="matrix(1.0, 0.0, 0.0, 1.0, 0.0, 0.0)" width="44.0" xlink:href="#shape0"/>
  </g>
  <defs>
    <g id="shape0" transform="matrix(1.0, 0.0, 0.0, 1.0, 0.0, 0.0)">
      <path d="M44.0 44.0 L0.0 44.0 0.0 0.0 44.0 0.0 44.0 44.0" fill="#43adca" fill-opacity="0.0" fill-rule="evenodd" stroke="none"/>
      <path d="M15.3 8.2 L17.35 6.75 16.15 8.45 16.0 8.65 15.45 9.55 15.3 8.2" fill="#f8ffe6" fill-rule="evenodd" stroke="none"/>
      <path d="M23.9 4.55 L23.0 4.65 Q22.15 4.65 21.3 5.2 L21.25 5.2 21.1 5.35 Q19.95 6.05 18.7 7.65 L17.45 9.35 17.35 9.55 Q16.15 11.35 15.15 13.55 L14.8 14.45 14.75 14.6 14.35 15.45 14.3 15.55 12.3 16.85 Q12.7 15.3 13.35 13.7 L13.4 13.55 13.8 12.65 Q14.55 11.0 15.45 9.55 L16.0 8.65 16.15 8.45 17.35 6.75 15.3 8.2 12.85 6.8 14.1 5.1 Q15.45 3.45 16.7 2.65 L19.7 4.45 19.95 4.3 Q20.8 3.75 21.65 3.75 L22.45 3.8 23.9 4.55" fill="#daf0b8" fill-rule="evenodd" stroke="none"/>
      <path d="M22.45 3.8 L21.65 3.75 Q20.8 3.75 19.95 4.3 L19.7 4.45 16.7 2.65 Q17.55 2.1 18.4 2.1 L19.25 2.25 22.45 3.8 M12.85 6.8 L15.3 8.2 15.45 9.55 Q14.55 11.0 13.8 12.65 L13.4 13.55 13.35 13.7 Q12.7 15.3 12.3 16.85 L12.05 18.25 8.75 16.95 Q9.05 14.7 10.05 12.05 L10.15 11.9 10.55 11.0 Q11.55 8.75 12.85 6.8 M8.65 20.15 Q10.3 20.85 11.85 21.65 L11.95 21.8 Q11.8 22.5 12.05 23.0 L12.8 23.75 12.85 23.85 10.35 22.95 9.6 22.2 9.55 22.1 8.8 21.35 Q8.5 20.85 8.65 20.15" fill="#b0c484" fill-rule="evenodd" stroke="none"/>
      <path d="M14.3 15.55 L13.45 18.85 13.4 19.15 13.35 19.45 13.15 20.5 Q13.1 21.55 13.2 22.25 L13.2 22.5 13.25 22.7 Q13.15 23.4 13.35 24.05 L13.25 23.95 12.85 23.85 12.8 23.75 12.05 23.0 Q11.8 22.5 11.95 21.8 L11.85 21.65 Q10.3 20.85 8.65 20.15 8.5 19.55 8.5 18.6 L8.5 17.95 8.75 16.95 12.05 18.25 12.3 16.85 14.3 15.55" fill="#8ca350" fill-rule="evenodd" stroke="none"/>
      <path d="M23.9 4.55 L24.6 4.9 24.4 4.9 Q23.6 4.9 22.75 5.45 L22.35 5.7 Q21.25 6.5 20.15 7.9 L18.95 9.6 18.45 10.25 Q17.4 11.9 16.6 13.8 L16.2 14.7 16.15 14.8 Q15.15 17.25 14.85 19.4 L14.8 19.7 14.6 20.75 Q14.55 22.1 14.75 22.95 L14.65 23.0 Q14.6 23.75 14.9 24.1 L15.6 24.9 15.65 24.95 16.15 25.5 14.95 25.0 13.35 24.05 Q13.15 23.4 13.25 22.7 L13.2 22.5 13.2 22.25 Q13.1 21.55 13.15 20.5 L13.35 19.45 13.4 19.15 13.45 18.85 14.3 15.55 14.35 15.45 14.75 14.6 14.8 14.45 15.15 13.55 Q16.15 11.35 17.35 9.55 L17.45 9.35 18.7 7.65 Q19.95 6.05 21.1 5.35 L21.25 5.2 21.3 5.2 Q22.15 4.65 23.0 4.65 L23.9 4.55" fill="#485027" fill-rule="evenodd" stroke="none"/>
      <path d="M13.35 24.05 L14.95 25.0 M16.7 2.65 Q15.45 3.45 14.1 5.1 L12.85 6.8 Q11.55 8.75 10.55 11.0 L10.15 11.9 10.05 12.05 Q9.05 14.7 8.75 16.95 L8.5 17.95 8.5 18.6 Q8.5 19.55 8.65 20.15 8.5 20.85 8.8 21.35 L9.55 22.1 9.6 22.2 10.35 22.95 12.85 23.85 13.25 23.95 13.35 24.05 M22.45 3.8 L19.25 2.25 18.4 2.1 Q17.55 2.1 16.7 2.65" fill="none" stroke="#000000" stroke-linecap="round" stroke-linejoin="round" stroke-opacity="0.2" stroke-width="0.05"/>
      <path d="M21.2 10.95 L23.3 9.4 22.05 11.2 21.9 11.35 21.3 12.3 21.2 10.95 M26.5 14.55 Q28.2 14.3 30.2 12.4 29.0 13.85 28.0 15.65 27.25 16.85 26.65 18.25 L26.05 19.65 Q26.9 15.85 26.5 14.55" fill="#f8ffe6" fill-rule="evenodd" stroke="none"/>
      <path d="M18.7 27.05 L18.65 27.05 18.7 27.0 18.7 27.05" fill="#faed7c" fill-rule="evenodd" stroke="none"/>
      <path d="M18.7 9.5 L19.9 7.75 Q21.3 6.0 22.65 5.2 L25.75 7.05 26.0 6.9 Q26.9 6.35 27.75 6.35 L28.6 6.45 30.05 7.15 29.15 7.3 Q28.25 7.3 27.4 7.85 L27.35 7.9 27.15 7.95 Q26.0 8.75 24.7 10.35 L23.9 11.45 23.45 12.1 23.3 12.3 23.3 12.35 Q22.05 14.25 21.05 16.4 L20.65 17.35 20.6 17.5 20.25 18.35 20.2 18.5 18.15 19.85 19.15 16.55 19.25 16.4 19.65 15.5 21.3 12.3 21.9 11.35 22.05 11.2 23.3 9.4 21.2 10.95 18.7 9.5 M36.0 9.0 L36.85 9.85 37.0 10.05 37.55 11.75 Q38.1 15.4 34.7 22.95 L32.8 25.85 Q30.45 29.45 28.55 30.8 L27.4 31.35 26.6 31.5 Q25.8 31.5 25.15 31.05 24.7 30.75 24.4 30.1 L24.25 29.7 24.05 28.05 24.25 26.4 24.65 24.35 Q25.15 21.95 26.05 19.65 L26.65 18.25 Q27.25 16.85 28.0 15.65 29.0 13.85 30.2 12.4 28.2 14.3 26.5 14.55 L24.4 13.05 24.9 12.35 25.3 11.8 26.2 10.6 28.45 8.4 32.45 10.1 Q33.35 9.3 34.25 9.0 L34.45 9.0 Q35.25 8.8 36.0 9.0 M34.75 11.5 Q33.2 10.95 31.1 13.05 L30.15 14.15 Q29.35 15.1 28.75 16.2 L27.35 18.85 26.0 22.45 25.45 24.75 25.45 25.35 Q25.0 28.25 26.2 29.1 27.9 30.25 30.4 27.45 L32.15 25.15 33.8 22.5 34.25 21.4 Q37.6 13.2 34.75 11.5 M32.8 25.85 L32.15 25.15 32.8 25.85" fill="#daf0b8" fill-rule="evenodd" stroke="none"/>
      <path d="M22.65 5.2 Q23.5 4.65 24.35 4.65 L25.2 4.8 28.45 6.35 28.6 6.45 36.0 9.0 Q35.25 8.8 34.45 9.0 L34.25 9.0 Q33.35 9.3 32.45 10.1 L28.45 8.4 28.85 8.1 Q29.75 7.55 30.6 7.55 L30.75 7.55 30.05 7.15 28.6 6.45 27.75 6.35 Q26.9 6.35 26.0 6.9 L25.75 7.05 22.65 5.2 M25.15 31.05 L20.8 28.3 22.1 28.7 21.55 28.25 21.5 28.1 20.75 27.4 Q20.5 26.9 20.5 26.2 22.35 27.05 24.05 28.05 L24.25 29.7 24.4 30.1 Q24.7 30.75 25.15 31.05 M18.65 27.05 L16.05 26.1 15.3 25.35 15.2 25.25 14.5 24.5 Q14.25 24.05 14.3 23.25 L17.65 24.75 17.65 24.95 Q17.6 25.65 17.9 26.15 L18.7 27.0 18.65 27.05 M14.45 19.95 Q14.8 17.65 15.85 14.9 L15.9 14.8 16.3 13.85 Q17.35 11.5 18.7 9.5 L21.2 10.95 21.3 12.3 19.65 15.5 19.25 16.4 19.15 16.55 18.15 19.85 17.85 21.3 Q16.15 20.55 14.45 19.95 M26.5 14.55 Q26.9 15.85 26.05 19.65 25.15 21.95 24.65 24.35 22.65 23.35 20.7 22.5 21.05 20.25 22.05 17.75 L22.1 17.65 22.5 16.65 24.4 13.05 26.5 14.55" fill="#b0c484" fill-rule="evenodd" stroke="none"/>
      <path d="M19.15 27.25 L19.05 27.2 18.7 27.05 18.7 27.0 17.9 26.15 Q17.6 25.65 17.65 24.95 L17.65 24.75 14.3 23.25 14.2 21.65 14.25 21.0 14.45 19.95 Q16.15 20.55 17.85 21.3 L18.15 19.85 20.2 18.5 Q19.6 20.25 19.3 21.9 L19.25 22.2 19.15 22.55 19.0 23.6 19.0 25.45 19.05 25.65 19.05 25.85 19.15 27.25 M24.65 24.35 L24.25 26.4 24.05 28.05 Q22.35 27.05 20.5 26.2 L20.6 26.1 Q20.45 25.25 20.45 23.85 L20.65 22.8 20.7 22.5 Q22.65 23.35 24.65 24.35" fill="#8ca350" fill-rule="evenodd" stroke="none"/>
      <path d="M20.8 28.3 L19.15 27.25 19.05 25.85 19.05 25.65 19.0 25.45 19.0 23.6 19.15 22.55 19.25 22.2 19.3 21.9 Q19.6 20.25 20.2 18.5 L20.25 18.35 20.6 17.5 20.65 17.35 21.05 16.4 Q22.05 14.25 23.3 12.35 L23.3 12.3 23.45 12.1 23.9 11.45 25.3 11.8 24.9 12.35 24.4 13.05 22.5 16.65 22.1 17.65 22.05 17.75 Q21.05 20.25 20.7 22.5 L20.65 22.8 20.45 23.85 Q20.45 25.25 20.6 26.1 L20.5 26.2 Q20.5 26.9 20.75 27.4 L21.5 28.1 21.55 28.25 22.1 28.7 20.8 28.3 M30.15 14.15 Q33.85 15.55 34.25 21.4 L33.8 22.5 32.15 25.15 30.4 27.45 Q27.9 30.25 26.2 29.1 25.0 28.25 25.45 25.35 L25.45 24.75 26.0 22.45 27.35 18.85 28.75 16.2 Q29.35 15.1 30.15 14.15 M32.15 25.15 L26.0 22.45 32.15 25.15" fill="#637238" fill-rule="evenodd" stroke="none"/>
      <path d="M23.9 11.45 L24.7 10.35 Q26.0 8.75 27.15 7.95 L27.35 7.9 27.4 7.85 Q28.25 7.3 29.15 7.3 L30.05 7.15 30.75 7.55 30.6 7.55 Q29.75 7.55 28.85 8.1 L28.45 8.4 26.2 10.6 25.3 11.8 23.9 11.45 M30.15 14.15 L31.1 13.05 Q33.2 10.95 34.75 11.5 37.6 13.2 34.25 21.4 33.85 15.55 30.15 14.15" fill="#485027" fill-rule="evenodd" stroke="none"/>
      <path d="M18.7 9.5 L19.9 7.75 Q21.3 6.0 22.65 5.2 23.5 4.65 24.35 4.65 L25.2 4.8 28.45 6.35 28.6 6.45 36.0 9.0 36.85 9.85 37.0 10.05 37.55 11.75 Q38.1 15.4 34.7 22.95 L32.8 25.85 Q30.45 29.45 28.55 30.8 L27.4 31.35 26.6 31.5 Q25.8 31.5 25.15 31.05 L20.8 28.3 19.15 27.25 19.05 27.2 18.7 27.05 18.65 27.05 16.05 26.1 15.3 25.35 15.2 25.25 14.5 24.5 Q14.25 24.05 14.3 23.25 L14.2 21.65 14.25 21.0 14.45 19.95 Q14.8 17.65 15.85 14.9 L15.9 14.8 16.3 13.85 Q17.35 11.5 18.7 9.5 M34.25 21.4 Q37.6 13.2 34.75 11.5 M26.0 22.45 L32.15 25.15 32.8 25.85 M33.8 22.5 L34.25 21.4" fill="none" stroke="#000000" stroke-linecap="round" stroke-linejoin="round" stroke-opacity="0.2" stroke-width="0.05"/>
      <path d="M29.15 13.5 Q28.65 13.05 28.65 12.4 28.65 11.8 29.15 11.3 29.6 10.9 30.2 10.9 30.85 10.9 31.3 11.3 31.8 11.8 31.8 12.4 31.8 13.05 31.3 13.5 30.85 14.0 30.2 14.0 29.6 14.0 29.15 13.5" fill="#f0f9e3" fill-rule="evenodd" stroke="none"/>
      <path d="M12.65 14.1 L11.5 16.35 Q9.25 26.4 14.9 37.5 L14.75 35.1 20.7 36.35 24.25 38.05 20.15 38.9 19.65 39.05 16.05 39.9 14.9 42.25 11.5 34.15 7.35 32.2 5.85 30.55 10.65 31.95 Q7.05 21.7 9.35 14.1 L12.65 14.1" fill="#b0c484" fill-rule="evenodd" stroke="none"/>
      <path d="M20.7 36.35 L14.75 35.1 14.9 37.5 Q9.25 26.4 11.5 16.35 L12.65 14.1 14.3 15.15 Q9.9 24.1 13.95 33.1 L20.7 36.35 M14.9 42.25 L16.05 39.9 19.65 39.05 Q15.85 40.45 15.6 43.55 L14.9 42.3 14.9 42.25" fill="#8ca350" fill-rule="evenodd" stroke="none"/>
      <path d="M7.35 32.2 L11.5 34.15 14.9 42.25 14.9 42.3 Q12.15 37.5 7.35 32.2" fill="#bbe9af" fill-rule="evenodd" stroke="none"/>
      <path d="M20.7 36.35 L13.95 33.1 Q9.9 24.1 14.3 15.15 M9.35 14.1 Q7.05 21.7 10.65 31.95 L5.85 30.55 7.35 32.2 M20.15 38.9 L24.25 38.05 20.7 36.35 M19.65 39.05 Q15.85 40.45 15.6 43.55 L14.9 42.3 Q12.15 37.5 7.35 32.2" fill="none" stroke="#000000" stroke-linecap="round" stroke-linejoin="round" stroke-opacity="0.2" stroke-width="0.05"/>
    </g>
  </defs>
</svg>
