<?xml version="1.0" encoding="UTF-8" standalone="no"?>
<svg xmlns:xlink="http://www.w3.org/1999/xlink" height="440.0px" width="440.0px" xmlns="http://www.w3.org/2000/svg">
  <g transform="matrix(10.0, 0.0, 0.0, 10.0, 0.0, 0.0)">
    <use height="44.0" transform="matrix(1.0, 0.0, 0.0, 1.0, 0.0, 0.0)" width="44.0" xlink:href="#shape0"/>
    <use height="57.55" transform="matrix(0.7038, 0.0, 0.0, 0.6758, 4.8721, 2.166)" width="49.1" xlink:href="#sprite0"/>
  </g>
  <defs>
    <g id="shape0" transform="matrix(1.0, 0.0, 0.0, 1.0, 0.0, 0.0)">
      <path d="M44.0 44.0 L0.0 44.0 0.0 0.0 44.0 0.0 44.0 44.0" fill="#43adca" fill-opacity="0.0" fill-rule="evenodd" stroke="none"/>
    </g>
    <g id="sprite0" transform="matrix(1.0, 0.0, 0.0, 1.0, 25.9, 31.05)">
      <use height="57.55" transform="matrix(1.0, 0.0, 0.0, 1.0, -25.9, -31.05)" width="49.1" xlink:href="#shape1"/>
    </g>
    <g id="shape1" transform="matrix(1.0, 0.0, 0.0, 1.0, 25.9, 31.05)">
      <path d="M2.15 -30.5 L6.05 -29.8 Q9.65 -28.85 12.55 -26.8 16.2 -22.95 12.85 -12.3 L11.8 -12.8 Q9.85 -13.3 7.75 -11.75 10.5 -25.7 2.15 -30.5" fill="url(#gradient0)" fill-rule="evenodd" stroke="none"/>
      <path d="M7.75 -11.75 Q9.85 -13.3 11.8 -12.8 L12.85 -12.3 Q14.75 -11.1 15.45 -7.45 L15.8 -4.6 Q12.35 -8.9 5.75 -7.55 L5.7 -9.8 5.95 -10.0 7.75 -11.75 M0.65 9.1 Q4.15 4.0 5.25 -2.4 11.55 -2.55 15.15 1.5 L14.85 2.8 Q13.3 8.55 10.25 12.05 L9.25 13.1 Q7.35 14.85 5.55 14.95 L4.4 14.8 Q1.6 14.05 0.7 9.5 L0.65 9.1" fill="#543201" fill-rule="evenodd" stroke="none"/>
      <path d="M12.55 -26.8 Q17.2 -23.5 20.0 -17.45 21.65 -13.85 22.3 -10.0 21.5 -4.2 15.8 -4.6 L15.45 -7.45 Q14.75 -11.1 12.85 -12.3 16.2 -22.95 12.55 -26.8 M22.2 0.2 L21.45 3.85 Q18.35 15.25 9.55 21.5 L8.4 22.3 Q11.05 15.7 9.25 13.1 L10.25 12.05 Q13.3 8.55 14.85 2.8 L15.15 1.5 15.2 1.5 Q20.25 3.6 22.2 0.2 M-2.0 25.95 Q-5.35 26.2 -8.75 25.3 -14.75 23.65 -18.75 19.1 -10.25 21.5 0.45 9.3 L0.7 9.5 Q1.6 14.05 4.4 14.8 L5.55 14.95 Q3.65 22.55 -2.0 25.95 M-25.05 4.95 Q-26.05 -1.45 -24.15 -8.4 L-23.75 -9.8 Q-23.4 -7.6 -21.85 -6.05 -19.05 -3.25 -13.95 -4.4 -8.9 -5.5 -4.5 -9.85 -0.1 -14.25 1.05 -19.35 2.15 -24.45 -0.65 -27.2 -2.9 -29.45 -6.55 -29.2 -2.3 -30.85 2.15 -30.5 10.5 -25.7 7.75 -11.75 L5.95 -10.0 5.7 -9.8 Q2.8 -6.35 1.35 -0.8 0.8 1.15 0.6 2.95 -16.2 12.25 -25.05 4.95 M-2.9 -18.55 Q-3.7 -15.05 -6.7 -12.0 -9.75 -9.0 -13.2 -8.2 -16.7 -7.45 -18.6 -9.4 -20.55 -11.3 -19.75 -14.8 -19.0 -18.3 -15.95 -21.3 -12.95 -24.3 -9.45 -25.1 -6.0 -25.85 -4.1 -23.95 -2.15 -22.05 -2.9 -18.55 M-10.05 -15.1 Q-8.65 -16.5 -8.3 -18.1 -8.05 -19.3 -8.45 -20.05 L-8.8 -20.55 Q-9.7 -21.45 -11.3 -21.1 -12.9 -20.75 -14.3 -19.35 -15.7 -18.0 -16.0 -16.4 -16.4 -14.8 -15.5 -13.9 L-15.05 -13.55 -13.0 -13.35 Q-11.4 -13.7 -10.05 -15.1" fill="url(#gradient1)" fill-rule="evenodd" stroke="none"/>
      <path d="M5.25 -2.4 L5.75 -7.55 Q12.35 -8.9 15.8 -4.6 15.9 -1.75 15.15 1.5 11.55 -2.55 5.25 -2.4" fill="#241500" fill-rule="evenodd" stroke="none"/>
      <path d="M22.3 -10.0 Q23.1 -5.1 22.2 0.2 20.25 3.6 15.2 1.5 L15.15 1.5 Q15.9 -1.75 15.8 -4.6 21.5 -4.2 22.3 -10.0" fill="url(#gradient2)" fill-rule="evenodd" stroke="none"/>
      <path d="M-18.75 19.1 Q-21.05 16.45 -22.7 12.85 -24.45 9.0 -25.05 4.95 -16.2 12.25 0.6 2.95 0.15 6.25 0.65 9.1 L0.45 9.3 Q-10.25 21.5 -18.75 19.1" fill="url(#gradient3)" fill-rule="evenodd" stroke="none"/>
      <path d="M8.4 22.3 Q3.3 25.55 -2.0 25.95 3.65 22.55 5.55 14.95 7.35 14.85 9.25 13.1 11.05 15.7 8.4 22.3" fill="url(#gradient4)" fill-rule="evenodd" stroke="none"/>
      <path d="M-23.75 -9.8 Q-20.55 -20.2 -12.25 -26.1 -9.45 -28.1 -6.55 -29.2 -2.9 -29.45 -0.65 -27.2 2.15 -24.45 1.05 -19.35 -0.1 -14.25 -4.5 -9.85 -8.9 -5.5 -13.95 -4.4 -19.05 -3.25 -21.85 -6.05 -23.4 -7.6 -23.75 -9.8 M-2.9 -18.55 Q-2.15 -22.05 -4.1 -23.95 -6.0 -25.85 -9.45 -25.1 -12.95 -24.3 -15.95 -21.3 -19.0 -18.3 -19.75 -14.8 -20.55 -11.3 -18.6 -9.4 -16.7 -7.45 -13.2 -8.2 -9.75 -9.0 -6.7 -12.0 -3.7 -15.05 -2.9 -18.55" fill="url(#gradient5)" fill-rule="evenodd" stroke="none"/>
      <path d="M-10.05 -15.1 Q-11.4 -13.7 -13.0 -13.35 L-15.05 -13.55 -15.5 -13.9 Q-16.4 -14.8 -16.0 -16.4 -15.7 -18.0 -14.3 -19.35 -12.9 -20.75 -11.3 -21.1 -9.7 -21.45 -8.8 -20.55 L-8.45 -20.05 Q-8.05 -19.3 -8.3 -18.1 -8.65 -16.5 -10.05 -15.1 M-11.05 -18.8 L-11.9 -18.95 Q-12.45 -18.85 -12.9 -18.4 L-13.5 -17.4 Q-13.6 -16.9 -13.3 -16.6 L-13.15 -16.45 -12.45 -16.4 Q-11.95 -16.55 -11.5 -16.95 -11.05 -17.45 -10.9 -18.0 -10.85 -18.4 -10.95 -18.65 L-11.05 -18.8" fill="url(#gradient6)" fill-rule="evenodd" stroke="none"/>
      <path d="M-11.05 -18.8 L-10.95 -18.65 Q-10.85 -18.4 -10.9 -18.0 -11.05 -17.45 -11.5 -16.95 -11.95 -16.55 -12.45 -16.4 L-13.15 -16.45 -13.3 -16.6 Q-13.6 -16.9 -13.5 -17.4 L-12.9 -18.4 Q-12.45 -18.85 -11.9 -18.95 L-11.05 -18.8" fill="#cc3300" fill-rule="evenodd" stroke="none"/>
      <path d="M2.15 -30.5 L6.05 -29.8 Q9.65 -28.85 12.55 -26.8 17.2 -23.5 20.0 -17.45 21.65 -13.85 22.3 -10.0 23.1 -5.1 22.2 0.2 L21.45 3.85 Q18.35 15.25 9.55 21.5 L8.4 22.3 Q3.3 25.55 -2.0 25.95 -5.35 26.2 -8.75 25.3 -14.75 23.65 -18.75 19.1 -21.05 16.45 -22.7 12.85 -24.45 9.0 -25.05 4.95 -26.05 -1.45 -24.15 -8.4 L-23.75 -9.8 Q-20.55 -20.2 -12.25 -26.1 -9.45 -28.1 -6.55 -29.2 -2.3 -30.85 2.15 -30.5 M7.75 -11.75 Q9.85 -13.3 11.8 -12.8 L12.85 -12.3 Q14.75 -11.1 15.45 -7.45 L15.8 -4.6 M5.25 -2.4 L5.75 -7.55 5.7 -9.8 Q2.8 -6.35 1.35 -0.8 0.8 1.15 0.6 2.95 0.15 6.25 0.65 9.1 4.15 4.0 5.25 -2.4 M15.15 1.5 Q15.9 -1.75 15.8 -4.6 M5.7 -9.8 L5.95 -10.0 7.75 -11.75 M9.25 13.1 L10.25 12.05 Q13.3 8.55 14.85 2.8 L15.15 1.5 M0.65 9.1 L0.7 9.5 Q1.6 14.05 4.4 14.8 L5.55 14.95 Q7.35 14.85 9.25 13.1" fill="none" stroke="#000000" stroke-linecap="round" stroke-linejoin="round" stroke-opacity="0.47843137" stroke-width="1.0"/>
      <path d="M5.25 -2.4 Q11.55 -2.55 15.15 1.5 M15.8 -4.6 Q12.35 -8.9 5.75 -7.55" fill="none" stroke="#009933" stroke-linecap="round" stroke-linejoin="round" stroke-width="1.0"/>
      <path d="M2.15 -30.5 Q10.5 -25.7 7.75 -11.75 M12.85 -12.3 Q16.2 -22.95 12.55 -26.8 M15.8 -4.6 Q21.5 -4.2 22.3 -10.0 M15.15 1.5 L15.2 1.5 Q20.25 3.6 22.2 0.2 M9.25 13.1 Q11.05 15.7 8.4 22.3 M0.45 9.3 Q-10.25 21.5 -18.75 19.1 M-23.75 -9.8 Q-23.4 -7.6 -21.85 -6.05 -19.05 -3.25 -13.95 -4.4 -8.9 -5.5 -4.5 -9.85 -0.1 -14.25 1.05 -19.35 2.15 -24.45 -0.65 -27.2 -2.9 -29.45 -6.55 -29.2 M-2.9 -18.55 Q-3.7 -15.05 -6.7 -12.0 -9.75 -9.0 -13.2 -8.2 -16.7 -7.45 -18.6 -9.4 -20.55 -11.3 -19.75 -14.8 -19.0 -18.3 -15.95 -21.3 -12.95 -24.3 -9.45 -25.1 -6.0 -25.85 -4.1 -23.95 -2.15 -22.05 -2.9 -18.55 M-10.05 -15.1 Q-11.4 -13.7 -13.0 -13.35 L-15.05 -13.55 -15.5 -13.9 Q-16.4 -14.8 -16.0 -16.4 -15.7 -18.0 -14.3 -19.35 -12.9 -20.75 -11.3 -21.1 -9.7 -21.45 -8.8 -20.55 L-8.45 -20.05 Q-8.05 -19.3 -8.3 -18.1 -8.65 -16.5 -10.05 -15.1 M0.6 2.95 Q-16.2 12.25 -25.05 4.95 M5.55 14.95 Q3.65 22.55 -2.0 25.95" fill="none" stroke="#00ff99" stroke-linecap="round" stroke-linejoin="round" stroke-width="1.0"/>
      <path d="M0.45 9.3 L0.65 9.1" fill="none" stroke="#00ff00" stroke-linecap="round" stroke-linejoin="round" stroke-width="1.0"/>
    </g>
    <linearGradient gradientTransform="matrix(0.0014, 0.0051, -0.0058, 0.0016, 9.6, -21.7)" gradientUnits="userSpaceOnUse" id="gradient0" spreadMethod="pad" x1="-819.2" x2="819.2">
      <stop offset="0.0" stop-color="#663300"/>
      <stop offset="1.0" stop-color="#b16a01"/>
    </linearGradient>
    <radialGradient cx="0" cy="0" gradientTransform="matrix(0.0466, 0.0125, -0.0125, 0.0466, -8.2, -13.0)" gradientUnits="userSpaceOnUse" id="gradient1" r="819.2" spreadMethod="pad">
      <stop offset="0.0" stop-color="#fece89"/>
      <stop offset="0.4549019607843137" stop-color="#b16a01"/>
      <stop offset="1.0" stop-color="#fec167"/>
    </radialGradient>
    <linearGradient gradientTransform="matrix(-0.0018, 5.0E-4, -0.0018, -0.0065, 19.65, -3.45)" gradientUnits="userSpaceOnUse" id="gradient2" spreadMethod="pad" x1="-819.2" x2="819.2">
      <stop offset="0.0" stop-color="#663300"/>
      <stop offset="1.0" stop-color="#b16a01"/>
    </linearGradient>
    <linearGradient gradientTransform="matrix(0.0106, -0.0028, 0.0026, 0.0099, -9.5, 9.45)" gradientUnits="userSpaceOnUse" id="gradient3" spreadMethod="pad" x1="-819.2" x2="819.2">
      <stop offset="0.0" stop-color="#663300"/>
      <stop offset="1.0" stop-color="#b16a01"/>
    </linearGradient>
    <linearGradient gradientTransform="matrix(0.0018, -0.0066, 0.0055, 0.0015, 5.3, 16.7)" gradientUnits="userSpaceOnUse" id="gradient4" spreadMethod="pad" x1="-819.2" x2="819.2">
      <stop offset="0.0" stop-color="#663300"/>
      <stop offset="1.0" stop-color="#b16a01"/>
    </linearGradient>
    <linearGradient gradientTransform="matrix(-0.0175, -0.0065, 0.006, -0.0163, -17.85, -19.1)" gradientUnits="userSpaceOnUse" id="gradient5" spreadMethod="pad" x1="-819.2" x2="819.2">
      <stop offset="0.0" stop-color="#663300"/>
      <stop offset="1.0" stop-color="#b16a01"/>
    </linearGradient>
    <linearGradient gradientTransform="matrix(-0.0072, -0.0019, 0.0014, -0.0051, -17.2, -18.6)" gradientUnits="userSpaceOnUse" id="gradient6" spreadMethod="pad" x1="-819.2" x2="819.2">
      <stop offset="0.0" stop-color="#663300"/>
      <stop offset="1.0" stop-color="#b16a01"/>
    </linearGradient>
  </defs>
</svg>
