<?xml version="1.0" encoding="UTF-8" standalone="no"?>
<svg xmlns:xlink="http://www.w3.org/1999/xlink" height="440.0px" width="440.0px" xmlns="http://www.w3.org/2000/svg">
  <g transform="matrix(10.0, 0.0, 0.0, 10.0, 0.0, 0.0)">
    <use height="44.0" transform="matrix(1.0, 0.0, 0.0, 1.0, 0.0, 0.0)" width="44.0" xlink:href="#shape0"/>
  </g>
  <defs>
    <g id="shape0" transform="matrix(1.0, 0.0, 0.0, 1.0, 0.0, 0.0)">
      <path d="M44.0 44.0 L0.0 44.0 0.0 0.0 44.0 0.0 44.0 44.0" fill="#33cc33" fill-opacity="0.0" fill-rule="evenodd" stroke="none"/>
      <path d="M34.6 24.55 L34.65 24.55 34.65 24.6 34.6 24.55 M33.95 25.75 L33.95 25.8 33.9 25.75 33.95 25.75" fill="#daa854" fill-rule="evenodd" stroke="none"/>
      <path d="M27.8 35.45 L28.1 35.65 28.05 35.7 27.8 35.45" fill="#835d2a" fill-rule="evenodd" stroke="none"/>
      <path d="M9.95 19.75 L9.2 18.3 10.15 17.1 9.95 18.4 10.25 20.35 10.3 20.5 10.2 20.35 9.95 19.75" fill="#5e3c1a" fill-rule="evenodd" stroke="none"/>
      <path d="M29.15 19.0 L30.85 18.3 32.45 19.05 34.05 20.85 34.2 20.75 34.4 20.0 36.45 20.1 35.85 20.85 35.6 22.55 35.6 22.8 Q35.15 22.0 33.65 21.3 L33.6 21.3 33.2 21.2 31.75 21.6 31.15 21.1 32.65 20.3 31.35 19.15 29.15 19.0 M33.55 25.3 L33.85 24.75 34.55 24.6 34.6 24.55 34.65 24.6 33.95 25.75 33.9 25.75 33.25 26.0 33.15 25.95 33.55 25.3 M33.2 21.2 L34.05 20.85 33.2 21.2 M31.95 36.55 L32.05 36.7 32.15 36.75 32.3 37.0 31.15 37.65 Q31.55 36.95 30.0 35.0 L30.75 35.1 31.35 35.6 31.95 36.55 M30.65 39.6 L30.2 39.55 30.5 38.1 28.05 35.7 28.1 35.65 30.75 37.95 30.65 39.6 M29.6 40.15 L28.6 39.25 27.7 39.2 27.25 39.15 26.55 38.55 21.85 33.65 21.05 32.85 22.4 33.45 27.0 37.95 28.05 37.4 27.8 38.7 29.45 37.95 30.05 38.35 29.6 40.15 M11.5 33.0 L12.35 33.25 12.4 33.3 11.5 33.0 M33.45 26.05 L34.95 26.35 34.7 27.3 Q34.55 26.55 33.45 26.05 M27.7 39.2 L27.8 38.7 27.7 39.2" fill="#63522e" fill-rule="evenodd" stroke="none"/>
      <path d="M25.45 20.15 L25.5 20.15 25.55 20.2 25.45 20.15 M35.7 22.8 L35.6 22.8 35.6 22.55 35.7 22.8" fill="#534226" fill-rule="evenodd" stroke="none"/>
      <path d="M29.35 18.2 L29.35 18.15 29.5 17.4 31.95 16.55 31.75 17.1 32.45 19.05 30.85 18.3 29.15 19.0 29.3 18.25 29.35 18.2 M12.0 15.55 L11.95 15.5 12.3 15.75 12.0 15.55 M28.05 37.4 L28.95 37.6 29.45 37.95 27.8 38.7 28.05 37.4" fill="#735d3f" fill-rule="evenodd" stroke="none"/>
      <path d="M32.3 31.6 L32.25 31.65 32.25 31.6 32.3 31.6" fill="#8d7450" fill-rule="evenodd" stroke="none"/>
      <path d="M28.3 32.6 L28.35 32.6 29.15 33.45 28.3 32.6 M27.95 31.3 L27.6 31.45 27.9 31.25 27.95 31.3 M30.0 35.0 Q31.55 36.95 31.15 37.65 L30.75 37.95 28.1 35.65 27.8 35.45 27.05 34.7 27.8 35.45 28.05 35.7 30.5 38.1 30.05 38.35 29.45 37.95 28.95 37.6 28.05 37.4 25.45 34.55 27.05 34.7 30.0 35.0" fill="#5c482c" fill-rule="evenodd" stroke="none"/>
      <path d="M33.7 28.05 L32.3 31.6 32.25 31.6 31.85 30.4 32.2 28.7 33.7 28.05" fill="#65471b" fill-rule="evenodd" stroke="none"/>
      <path d="M30.3 24.15 L29.6 23.2 32.35 22.75 33.05 23.7 30.3 24.15" fill="#4a3413" fill-rule="evenodd" stroke="none"/>
      <path d="M24.05 20.05 L24.15 19.9 24.95 20.05 24.05 20.05 M25.45 20.15 L25.35 18.05 26.25 18.7 25.5 20.15 25.45 20.15 M33.95 25.8 L35.6 26.45 35.4 27.5 34.7 27.45 34.7 27.3 34.95 26.35 33.45 26.05 33.25 26.0 33.9 25.75 33.95 25.8" fill="#998d6f" fill-rule="evenodd" stroke="none"/>
      <path d="M24.35 27.95 L23.95 23.2 25.45 20.15 25.55 20.2 Q25.5 21.55 26.55 21.15 L26.6 21.2 26.65 21.3 26.65 21.55 26.75 21.55 26.9 21.55 28.6 23.15 29.35 24.75 31.25 24.7 31.35 25.75 31.55 27.3 32.5 27.35 33.9 27.45 33.8 27.8 33.7 28.05 32.2 28.7 31.85 30.4 32.25 31.6 29.65 29.75 28.35 30.9 26.85 29.5 27.05 30.55 27.9 31.25 27.6 31.45 27.95 31.3 30.3 33.15 29.15 33.45 28.35 32.6 28.3 32.6 27.95 32.6 25.5 33.15 25.85 31.65 25.65 30.55 24.35 27.95 M26.6 21.2 L26.6 22.0 26.75 21.55 26.6 22.0 26.6 21.2" fill="#2f2415" fill-rule="evenodd" stroke="none"/>
      <path d="M31.35 25.75 L33.55 25.3 33.15 25.95 33.25 26.0 33.45 26.05 Q34.55 26.55 34.7 27.3 L34.7 27.45 33.9 27.45 32.5 27.35 31.55 27.3 31.35 25.75 M32.25 31.65 L33.75 32.7 33.05 33.75 32.75 34.1 32.7 34.15 31.35 35.6 30.75 35.1 30.0 35.0 27.05 34.7 25.5 33.15 27.05 34.7 25.45 34.55 24.95 33.95 25.4 33.65 25.5 33.15 27.95 32.6 28.3 32.6 29.15 33.45 30.3 33.15 27.95 31.3 27.9 31.25 27.05 30.55 26.85 29.5 28.35 30.9 29.65 29.75 32.25 31.6 32.25 31.65 M30.75 32.5 L32.7 34.15 30.75 32.5" fill="#463620" fill-rule="evenodd" stroke="none"/>
      <path d="M27.15 19.35 L28.1 19.95 Q28.1 19.7 29.25 18.25 L29.3 18.25 29.15 19.0 31.35 19.15 32.65 20.3 31.15 21.1 31.75 21.6 33.2 21.2 33.6 21.3 33.65 21.3 Q35.15 22.0 35.6 22.8 L35.7 22.8 36.0 24.55 35.35 24.55 35.05 24.55 34.65 24.55 34.6 24.55 34.55 24.6 33.85 24.75 33.55 25.3 31.35 25.75 31.25 24.7 29.35 24.75 28.6 23.15 26.9 21.55 26.85 21.15 26.8 21.15 26.8 21.3 26.75 21.55 26.8 21.3 26.8 21.15 26.85 21.15 26.9 21.55 26.75 21.55 26.65 21.55 26.65 21.3 26.6 21.2 26.6 21.15 26.55 21.15 26.6 21.15 26.6 21.2 26.55 21.15 Q25.5 21.55 25.55 20.2 L25.5 20.15 26.25 18.7 27.15 19.35 M31.15 21.8 L31.75 21.6 31.15 21.8 M33.05 23.7 L32.35 22.75 29.6 23.2 30.3 24.15 33.05 23.7" fill="#342518" fill-rule="evenodd" stroke="none"/>
      <path d="M28.75 16.55 L27.15 19.35 26.25 18.7 25.35 18.05 25.45 20.15 25.35 20.15 25.15 20.1 24.95 20.05 24.15 19.9 24.05 20.05 22.65 24.05 22.8 24.7 23.55 27.75 11.0 24.5 9.75 25.0 9.95 19.75 10.2 20.35 10.3 20.5 10.25 20.35 12.85 19.4 11.95 19.15 13.5 16.55 12.3 15.75 17.35 16.65 22.4 17.15 25.9 17.15 28.75 16.55 M18.5 21.7 L10.25 20.35 18.5 21.7 M24.3 30.85 Q24.0 30.15 18.6 28.3 L11.0 25.7 18.5 27.35 23.75 28.4 24.3 30.85 M24.25 32.35 L24.95 32.05 24.25 32.95 24.25 33.15 21.55 31.4 24.25 32.35 M24.35 34.25 L24.95 33.95 25.45 34.55 28.05 37.4 27.0 37.95 22.4 33.45 24.35 34.25 M18.65 19.35 L24.05 20.05 18.65 19.35 M19.35 23.95 L22.8 24.7 19.35 23.95" fill="#836d27" fill-rule="evenodd" stroke="none"/>
      <path d="M26.55 38.55 L25.35 37.4 23.15 36.65 Q19.45 35.4 15.7 34.9 L10.25 34.5 9.75 33.25 9.55 32.75 9.35 32.15 8.35 31.0 8.2 30.25 7.95 29.6 21.85 33.65 26.55 38.55 M10.15 17.1 L10.4 16.95 12.0 15.55 12.3 15.75 13.5 16.55 11.95 19.15 12.85 19.4 10.25 20.35 9.95 18.4 10.15 17.1 M16.65 34.4 Q21.35 35.6 21.65 35.4 L21.8 35.35 21.55 34.85 21.35 34.75 13.75 33.65 16.65 34.4 M11.5 33.0 L12.4 33.3 12.35 33.25 11.5 33.0" fill="#6f5122" fill-rule="evenodd" stroke="none"/>
      <path d="M7.95 29.6 L7.5 28.35 7.5 28.3 9.5 28.1 9.4 26.9 10.75 26.9 9.8 28.25 13.15 29.75 21.55 31.4 24.25 33.15 24.35 34.25 22.4 33.45 21.05 32.85 21.85 33.65 7.95 29.6 M16.65 34.4 L13.75 33.65 21.35 34.75 21.55 34.85 21.8 35.35 21.65 35.4 Q21.35 35.6 16.65 34.4 M11.15 29.75 L21.05 32.85 11.15 29.75" fill="#5a411d" fill-rule="evenodd" stroke="none"/>
      <path d="M29.5 17.4 L29.35 18.15 29.35 18.2 29.25 18.25 Q28.1 19.7 28.1 19.95 L27.15 19.35 28.75 16.55 29.35 17.5 29.5 17.4 M32.45 19.05 L31.75 17.1 31.95 16.55 34.7 18.8 34.4 20.0 34.2 20.75 34.05 20.85 32.45 19.05 M24.95 20.05 L25.15 20.1 25.35 20.15 25.45 20.15 23.95 23.2 24.35 27.95 23.55 27.75 22.8 24.7 22.65 24.05 24.05 20.05 24.95 20.05 M36.0 24.55 L35.7 22.8 35.6 22.55 35.85 20.85 36.45 20.1 36.95 23.05 36.0 24.55 M33.75 32.7 L34.15 33.0 34.2 33.75 32.95 35.3 31.95 36.55 31.35 35.6 32.7 34.15 32.75 34.1 33.05 33.75 33.75 32.7 M32.3 37.0 L31.9 38.95 30.65 39.6 30.75 37.95 31.15 37.65 32.3 37.0 M30.2 39.55 L30.15 39.9 29.6 40.15 30.05 38.35 30.5 38.1 30.2 39.55 M23.75 28.4 L24.35 27.95 25.65 30.55 25.85 31.65 25.5 33.15 25.4 33.65 24.95 33.95 24.35 34.25 24.25 33.15 24.25 32.95 24.95 32.05 24.25 32.35 24.3 30.85 23.75 28.4 M32.95 35.3 L32.7 34.15 32.95 35.3 M25.3 31.8 L24.95 32.05 25.3 31.8" fill="#b19741" fill-rule="evenodd" stroke="none"/>
      <path d="M23.55 27.75 L24.35 27.95 23.75 28.4 18.5 27.35 11.0 25.7 18.6 28.3 Q24.0 30.15 24.3 30.85 L24.25 32.35 21.55 31.4 13.15 29.75 9.8 28.25 10.75 26.9 9.4 26.9 Q10.4 26.15 10.1 25.75 L9.75 25.0 11.0 24.5 23.55 27.75" fill="#ae8300" fill-rule="evenodd" stroke="none"/>
      <path d="M29.35 18.2 L29.35 18.15 29.5 17.4 29.35 17.5 28.75 16.55 M29.35 18.2 L29.3 18.25 M31.95 16.55 L29.5 17.4 M12.3 15.75 L17.35 16.65 22.4 17.15 25.9 17.15 28.75 16.55 M24.95 20.05 L25.15 20.1 M25.35 20.15 L25.45 20.15 25.5 20.15 25.55 20.2 Q25.5 21.55 26.55 21.15 L26.6 21.15 26.6 21.2 M24.95 20.05 L24.05 20.05 18.65 19.35 M23.55 27.75 L24.35 27.95 25.65 30.55 25.85 31.65 25.5 33.15 27.05 34.7 27.8 35.45 28.1 35.65 M26.75 21.55 L26.8 21.3 26.8 21.15 26.85 21.15 26.9 21.55 M33.85 24.75 L34.55 24.6 34.6 24.55 34.65 24.55 35.05 24.55 M35.35 24.55 L36.0 24.55 M33.2 21.2 L31.75 21.6 31.15 21.8 M26.75 21.55 L26.6 22.0 26.6 21.2 M33.05 23.7 L32.35 22.75 29.6 23.2 30.3 24.15 M34.05 20.85 L34.2 20.75 34.4 20.0 34.7 18.8 31.95 16.55 M34.05 20.85 L33.2 21.2 M34.65 24.6 L34.65 24.55 M34.65 24.6 L33.95 25.75 33.95 25.8 35.6 26.45 35.4 27.5 34.7 27.45 33.9 27.45 33.8 27.8 M33.7 28.05 L32.3 31.6 M34.15 33.0 L34.2 33.75 32.95 35.3 31.95 36.55 32.05 36.7 M32.15 36.75 L32.3 37.0 31.9 38.95 30.65 39.6 M30.2 39.55 L30.15 39.9 29.6 40.15 28.6 39.25 27.7 39.2 27.25 39.15 26.55 38.55 25.35 37.4 23.15 36.65 Q19.45 35.4 15.7 34.9 L10.25 34.5 9.75 33.25 9.55 32.75 9.35 32.15 8.35 31.0 8.2 30.25 7.95 29.6 7.5 28.35 7.5 28.3 9.5 28.1 9.4 26.9 Q10.4 26.15 10.1 25.75 L9.75 25.0 9.95 19.75 9.2 18.3 10.15 17.1 M10.4 16.95 L12.0 15.55 M11.95 15.5 L12.3 15.75 12.0 15.55 M36.45 20.1 L34.4 20.0 M36.45 20.1 L36.95 23.05 36.0 24.55 M10.25 20.35 L18.5 21.7 M10.3 20.5 L10.2 20.35 9.95 19.75 M34.7 27.3 L34.7 27.45 M32.5 27.35 L33.9 27.45 M32.7 34.15 L32.95 35.3 M32.7 34.15 L30.75 32.5 M24.25 32.35 L24.95 32.05 25.3 31.8 M22.4 33.45 L21.05 32.85 11.15 29.75 M21.55 31.4 L13.15 29.75 M24.25 32.35 L21.55 31.4 M24.95 33.95 L24.35 34.25 22.4 33.45 M28.05 37.4 L25.45 34.55 24.95 33.95 25.4 33.65 25.5 33.15 M27.8 38.7 L27.7 39.2 M27.8 38.7 L28.05 37.4 M22.8 24.7 L19.35 23.95" fill="none" stroke="#000000" stroke-linecap="round" stroke-linejoin="round" stroke-opacity="0.2" stroke-width="0.05"/>
      <path d="M25.1 20.95 Q22.85 23.25 19.4 24.85 15.95 26.35 14.05 24.9 12.15 23.45 12.15 21.45 12.2 19.4 14.1 17.95 16.05 16.5 18.75 16.5 L25.3 16.7 Q29.1 16.85 28.25 17.75 L25.1 20.95" fill="#000000" fill-opacity="0.3019608" fill-rule="evenodd" stroke="none"/>
      <path d="M21.85 8.0 L22.15 7.6 22.3 7.1 22.6 6.0 Q23.0 5.75 23.3 6.0 L22.9 7.15 22.45 8.25 22.15 8.75 21.45 8.45 21.85 8.0 M23.8 9.35 L23.9 9.0 24.15 8.4 24.4 6.55 25.05 6.7 25.0 8.45 24.15 8.4 25.0 8.45 Q24.95 9.5 24.35 10.55 L23.3 9.95 23.6 9.6 23.8 9.35 M12.2 14.4 Q12.45 13.85 13.6 13.5 L13.5 14.6 13.85 14.9 14.6 15.15 14.9 15.25 14.0 15.9 13.5 15.55 Q12.85 15.2 12.4 14.65 L12.2 14.4 M16.55 7.9 L18.4 7.35 17.85 8.85 17.7 8.2 17.85 8.85 18.0 9.35 18.1 9.8 17.0 10.0 16.6 8.95 16.55 7.9 M18.4 6.2 L18.45 5.65 18.7 4.95 19.3 4.55 Q20.25 4.25 21.1 4.8 21.6 5.15 21.65 5.65 20.85 5.1 19.8 5.25 L19.75 5.3 19.4 5.5 18.7 4.95 19.4 5.5 Q19.15 5.8 19.2 6.2 L19.45 7.5 18.75 7.6 18.4 6.2 M22.3 7.1 L22.9 7.15 22.3 7.1 M23.35 13.35 L24.0 13.95 Q22.35 14.9 20.25 15.85 L15.35 16.3 16.05 15.4 16.7 15.3 20.05 14.8 20.9 14.45 Q21.4 14.2 21.8 14.05 L23.35 13.35 M19.3 4.55 L19.8 5.25 19.3 4.55 M13.95 15.3 L13.5 15.55 13.95 15.3" fill="#aa9155" fill-rule="evenodd" stroke="none"/>
      <path d="M26.55 9.6 L27.45 9.95 27.55 11.25 27.2 11.65 24.7 13.5 Q24.3 13.75 24.0 13.95 L23.35 13.35 24.0 12.95 24.7 13.5 24.0 12.95 24.9 12.45 26.05 11.5 26.25 11.2 26.75 10.5 26.55 9.6 M12.45 22.5 L11.75 21.5 Q11.25 20.35 11.25 19.35 L12.2 14.4 12.4 14.65 11.8 20.25 12.45 22.5 M13.6 13.5 L13.75 12.35 15.3 10.75 16.55 7.9 16.6 8.95 16.05 10.5 14.15 12.5 13.85 14.9 13.5 14.6 13.6 13.5 M21.25 6.65 L21.9 6.75 22.05 7.2 21.2 7.2 21.0 7.4 20.7 7.55 Q20.55 8.15 20.85 8.55 L21.1 8.9 20.45 9.2 21.1 8.9 21.45 8.45 22.15 8.75 21.2 9.65 20.05 10.2 20.75 11.75 20.25 12.0 20.75 11.75 22.4 10.85 22.55 10.65 23.0 10.25 23.3 9.95 24.35 10.55 23.95 11.05 Q22.55 12.3 20.15 12.75 L19.55 12.3 20.15 12.75 21.8 14.05 Q21.4 14.2 20.9 14.45 L18.6 12.65 17.95 11.65 17.35 10.7 17.3 10.55 17.0 10.05 17.0 10.0 18.1 9.8 18.35 10.7 18.55 11.0 18.8 11.3 19.55 12.3 20.25 12.0 Q19.45 10.9 19.0 9.3 L19.75 9.25 19.0 9.3 18.95 8.95 18.75 7.6 19.45 7.5 19.55 8.3 19.65 8.75 19.65 8.95 19.75 9.25 19.8 9.5 20.05 10.2 19.8 9.5 20.45 9.2 20.05 8.4 20.0 7.1 20.55 6.85 21.05 6.55 21.25 6.65 M20.55 6.85 L21.0 7.4 20.55 6.85 M16.05 15.4 L15.35 16.3 14.0 15.9 14.9 15.25 16.05 15.4 M17.8 10.35 L17.3 10.55 17.8 10.35 M17.95 11.65 L18.8 11.3 17.95 11.65" fill="#8e7a46" fill-rule="evenodd" stroke="none"/>
      <path d="M24.95 18.45 Q20.55 21.55 15.7 23.4 14.7 20.9 15.35 16.3 L20.25 15.85 Q22.35 14.9 24.0 13.95 24.3 13.75 24.7 13.5 L24.95 18.45 M21.65 5.65 L21.25 6.65 21.05 6.55 20.55 6.85 20.0 7.1 19.55 8.3 19.45 7.5 19.2 6.2 Q19.15 5.8 19.4 5.5 L19.75 5.3 19.8 5.25 Q20.85 5.1 21.65 5.65 M20.85 8.55 Q20.55 8.15 20.7 7.55 L21.0 7.4 20.85 8.55 M20.75 11.75 L20.05 10.2 21.2 9.65 22.15 8.75 22.4 10.85 20.75 11.75 M19.0 9.3 Q19.45 10.9 20.25 12.0 L19.55 12.3 18.8 11.3 18.55 11.0 19.0 9.3 M20.15 12.75 Q22.55 12.3 23.95 11.05 L24.35 10.55 24.9 12.45 24.0 12.95 23.35 13.35 21.8 14.05 20.15 12.75 M20.9 14.45 L20.05 14.8 16.7 15.3 Q17.55 14.15 17.95 11.65 L18.6 12.65 20.9 14.45 M24.25 16.9 L24.0 13.95 24.25 16.9" fill="#35291b" fill-rule="evenodd" stroke="none"/>
      <path d="M26.75 17.05 L24.95 18.45 24.7 13.5 27.2 11.65 26.65 13.3 26.75 17.05 M15.7 23.4 L15.0 23.75 14.4 24.0 Q13.9 22.9 13.95 20.8 13.55 18.7 14.0 15.9 L15.35 16.3 Q14.7 20.9 15.7 23.4 M22.05 7.2 L21.85 8.0 21.45 8.45 21.1 8.9 20.85 8.55 21.0 7.4 21.2 7.2 22.05 7.2 M22.15 8.75 L22.45 8.25 22.9 7.15 23.05 7.8 23.15 8.4 23.0 10.25 22.55 10.65 22.4 10.85 22.15 8.75 M25.0 8.45 Q25.95 9.2 26.05 10.35 L26.25 11.2 26.05 11.5 25.55 10.05 26.05 11.5 24.9 12.45 24.35 10.55 Q24.95 9.5 25.0 8.45 M20.05 8.4 L20.45 9.2 19.8 9.5 19.75 9.25 19.65 8.95 20.05 8.4 M16.7 15.3 L16.05 15.4 14.9 15.25 14.6 15.15 15.2 14.05 16.55 12.35 17.3 10.55 16.55 12.35 15.2 14.05 14.6 15.15 13.85 14.9 15.35 12.8 16.45 11.5 17.0 10.05 17.3 10.55 17.35 10.7 17.95 11.65 Q17.55 14.15 16.7 15.3 M18.75 7.6 L18.95 8.95 19.0 9.3 18.55 11.0 18.35 10.7 18.1 9.8 18.0 9.35 18.75 7.6 M14.25 19.65 Q14.3 22.15 15.0 23.75 14.3 22.15 14.25 19.65" fill="#473724" fill-rule="evenodd" stroke="none"/>
      <path d="M23.3 6.0 L23.65 7.55 23.8 9.35 23.6 9.6 23.3 9.95 23.0 10.25 23.15 8.4 23.05 7.8 22.9 7.15 23.3 6.0 M25.05 6.7 Q26.25 7.9 26.55 9.6 L26.75 10.5 26.25 11.2 26.05 10.35 Q25.95 9.2 25.0 8.45 L25.05 6.7 M27.55 11.25 L27.1 13.45 27.3 16.0 26.75 17.05 26.65 13.3 27.2 11.65 27.55 11.25 M14.4 24.0 L13.55 23.95 12.45 22.5 11.8 20.25 12.4 14.65 Q12.85 15.2 13.5 15.55 L14.0 15.9 Q13.55 18.7 13.95 20.8 13.9 22.9 14.4 24.0 M18.4 7.35 L18.4 6.2 18.75 7.6 18.0 9.35 17.85 8.85 18.4 7.35 M20.0 7.1 L20.05 8.4 19.65 8.95 19.65 8.75 19.55 8.3 20.0 7.1 M23.6 9.6 L23.05 7.8 23.6 9.6 M17.0 10.0 L17.0 10.05 16.45 11.5 15.35 12.8 13.85 14.9 14.15 12.5 16.05 10.5 16.6 8.95 17.0 10.0 M13.1 20.1 Q12.8 18.25 13.5 15.55 12.8 18.25 13.1 20.1" fill="#726039" fill-rule="evenodd" stroke="none"/>
      <path d="M21.85 8.0 L22.15 7.6 22.3 7.1 22.6 6.0 Q23.0 5.75 23.3 6.0 L23.65 7.55 23.8 9.35 23.9 9.0 24.15 8.4 24.4 6.55 25.05 6.7 Q26.25 7.9 26.55 9.6 L27.45 9.95 27.55 11.25 27.1 13.45 27.3 16.0 26.75 17.05 24.95 18.45 M15.7 23.4 L15.0 23.75 14.4 24.0 13.55 23.95 12.45 22.5 11.75 21.5 Q11.25 20.35 11.25 19.35 L12.2 14.4 Q12.45 13.85 13.6 13.5 L13.75 12.35 15.3 10.75 16.55 7.9 18.4 7.35 18.4 6.2 18.45 5.65 18.7 4.95 19.3 4.55 Q20.25 4.25 21.1 4.8 21.6 5.15 21.65 5.65 L21.25 6.65 21.9 6.75 22.05 7.2 21.85 8.0 21.45 8.45 22.15 8.75 22.45 8.25 22.9 7.15 22.3 7.1 M25.05 6.7 L25.0 8.45 Q25.95 9.2 26.05 10.35 M26.25 11.2 L26.75 10.5 26.55 9.6 M25.0 8.45 L24.15 8.4 M23.0 10.25 L23.15 8.4 23.05 7.8 22.9 7.15 23.3 6.0 M20.85 8.55 Q20.55 8.15 20.7 7.55 L21.0 7.4 20.55 6.85 20.0 7.1 20.05 8.4 20.45 9.2 21.1 8.9 20.85 8.55 21.0 7.4 21.2 7.2 22.05 7.2 M20.55 6.85 L21.05 6.55 21.25 6.65 M21.45 8.45 L21.1 8.9 M20.25 12.0 L20.75 11.75 20.05 10.2 19.8 9.5 19.75 9.25 19.0 9.3 Q19.45 10.9 20.25 12.0 L19.55 12.3 20.15 12.75 Q22.55 12.3 23.95 11.05 L24.35 10.55 23.3 9.95 23.0 10.25 22.55 10.65 22.4 10.85 20.75 11.75 M23.6 9.6 L23.8 9.35 M23.6 9.6 L23.3 9.95 M24.35 10.55 Q24.95 9.5 25.0 8.45 M22.15 8.75 L21.2 9.65 20.05 10.2 M22.4 10.85 L22.15 8.75 M23.05 7.8 L23.6 9.6 M27.2 11.65 L27.55 11.25 M25.55 10.05 L26.05 11.5 26.25 11.2 M27.2 11.65 L24.7 13.5 24.95 18.45 M23.35 13.35 L24.0 13.95 Q24.3 13.75 24.7 13.5 L24.0 12.95 23.35 13.35 21.8 14.05 Q21.4 14.2 20.9 14.45 L20.05 14.8 16.7 15.3 16.05 15.4 15.35 16.3 20.25 15.85 Q22.35 14.9 24.0 13.95 L24.25 16.9 M24.9 12.45 L24.0 12.95 M26.05 11.5 L24.9 12.45 24.35 10.55 M19.8 5.25 L19.3 4.55 M19.4 5.5 L18.7 4.95 M19.4 5.5 L19.75 5.3 19.8 5.25 Q20.85 5.1 21.65 5.65 M19.45 7.5 L19.2 6.2 Q19.15 5.8 19.4 5.5 M18.4 6.2 L18.75 7.6 19.45 7.5 19.55 8.3 20.0 7.1 M19.55 8.3 L19.65 8.75 19.65 8.95 19.75 9.25 M19.0 9.3 L18.95 8.95 18.75 7.6 18.0 9.35 18.1 9.8 18.35 10.7 18.55 11.0 19.0 9.3 M17.85 8.85 L18.4 7.35 M16.6 8.95 L16.55 7.9 M17.0 10.05 L17.0 10.0 16.6 8.95 M15.35 12.8 L16.45 11.5 17.0 10.05 17.3 10.55 17.8 10.35 M17.3 10.55 L16.55 12.35 15.2 14.05 14.6 15.15 14.9 15.25 16.05 15.4 M17.95 11.65 L17.35 10.7 17.3 10.55 M19.55 12.3 L18.8 11.3 17.95 11.65 18.6 12.65 20.9 14.45 M18.55 11.0 L18.8 11.3 M17.85 8.85 L17.7 8.2 M17.0 10.0 L18.1 9.8 M18.0 9.35 L17.85 8.85 M14.6 15.15 L13.85 14.9 13.5 14.6 13.6 13.5 M12.2 14.4 L12.4 14.65 Q12.85 15.2 13.5 15.55 L13.95 15.3 M14.0 15.9 L13.5 15.55 Q12.8 18.25 13.1 20.1 M14.0 15.9 L14.9 15.25 M13.95 20.8 Q13.55 18.7 14.0 15.9 L15.35 16.3 Q14.7 20.9 15.7 23.4 M15.0 23.75 Q14.3 22.15 14.25 19.65 M16.7 15.3 Q17.55 14.15 17.95 11.65 M21.8 14.05 L20.15 12.75 M19.8 9.5 L20.45 9.2" fill="none" stroke="#000000" stroke-linecap="round" stroke-linejoin="round" stroke-opacity="0.2" stroke-width="0.05"/>
      <path d="M17.65 22.6 Q18.5 22.95 18.55 22.15 17.85 21.3 17.85 20.35 L17.85 19.55 18.1 19.3 Q17.8 20.8 19.4 22.45 19.05 23.4 18.0 23.25 L17.65 22.6" fill="#666666" fill-rule="evenodd" stroke="none"/>
      <path d="M17.65 22.6 Q16.8 20.65 17.85 19.55 L17.85 20.35 Q17.85 21.3 18.55 22.15 18.5 22.95 17.65 22.6" fill="#cccccc" fill-rule="evenodd" stroke="none"/>
      <path d="M17.85 19.55 Q16.8 20.65 17.65 22.6 M17.85 19.55 L18.1 19.3 Q17.8 20.8 19.4 22.45 19.05 23.4 18.0 23.25 L17.65 22.6" fill="none" stroke="#000000" stroke-linecap="round" stroke-linejoin="round" stroke-opacity="0.2" stroke-width="0.05"/>
      <path d="M11.25 21.1 Q11.65 21.75 12.0 21.0 11.9 19.95 12.25 19.1 L12.55 18.3 12.75 18.2 Q12.0 19.45 12.4 21.6 11.8 22.35 11.2 21.85 L11.25 21.1" fill="#666666" fill-rule="evenodd" stroke="none"/>
      <path d="M12.55 18.3 L12.25 19.1 Q11.9 19.95 12.0 21.0 11.65 21.75 11.25 21.1 11.45 18.95 12.55 18.3" fill="#cccccc" fill-rule="evenodd" stroke="none"/>
      <path d="M12.55 18.3 Q11.45 18.95 11.25 21.1 L11.2 21.85 Q11.8 22.35 12.4 21.6 12.0 19.45 12.75 18.2 L12.55 18.3 Z" fill="none" stroke="#000000" stroke-linecap="round" stroke-linejoin="round" stroke-opacity="0.2" stroke-width="0.05"/>
    </g>
  </defs>
</svg>
