<?xml version="1.0" encoding="UTF-8" standalone="no"?>
<svg xmlns:xlink="http://www.w3.org/1999/xlink" height="440.0px" width="440.0px" xmlns="http://www.w3.org/2000/svg">
  <g transform="matrix(10.0, 0.0, 0.0, 10.0, 0.0, 0.0)">
    <use height="44.05" transform="matrix(1.0, 0.0, 0.0, 1.0, 0.0, -0.05)" width="44.0" xlink:href="#shape0"/>
  </g>
  <defs>
    <g id="shape0" transform="matrix(1.0, 0.0, 0.0, 1.0, 0.0, 0.05)">
      <path d="M44.0 44.0 L0.0 44.0 0.0 0.0 44.0 0.0 44.0 44.0" fill="#43adca" fill-opacity="0.0" fill-rule="evenodd" stroke="none"/>
      <path d="M13.3 36.4 Q17.35 34.25 19.35 32.0 22.2 32.0 27.25 35.5 L25.05 38.8 Q23.35 40.3 18.0 42.9 L17.55 42.9 16.35 42.5 Q15.2 42.1 14.8 41.05 L13.8 37.95 13.3 36.4" fill="#ff0000" fill-rule="evenodd" stroke="none"/>
      <path d="M13.3 36.4 L13.8 37.95 14.8 41.05 Q15.2 42.1 16.35 42.5 L17.55 42.9 12.25 42.3 Q8.95 39.55 10.0 38.0 L13.3 36.4" fill="#5c0101" fill-rule="evenodd" stroke="none"/>
      <path d="M17.55 42.9 L18.0 42.9 Q23.35 40.3 25.05 38.8 L27.25 35.5 Q22.2 32.0 19.35 32.0 17.35 34.25 13.3 36.4 M17.55 42.9 L12.25 42.3 Q8.95 39.55 10.0 38.0 L13.3 36.4" fill="none" stroke="#000000" stroke-linecap="round" stroke-linejoin="round" stroke-opacity="0.2" stroke-width="1.5"/>
      <path d="M22.45 35.4 L22.65 35.25 22.7 35.15 22.6 35.3 22.55 35.35 22.5 35.4 22.4 35.45 22.45 35.4 22.4 35.45 22.45 35.4 M22.4 35.45 L22.5 35.4 22.4 35.45" fill="#664222" fill-rule="evenodd" stroke="none"/>
      <path d="M19.7 25.1 L19.75 25.15 19.7 25.1" fill="#9e6637" fill-rule="evenodd" stroke="none"/>
      <path d="M21.5 39.85 Q19.95 39.2 19.1 37.7 15.8 33.25 14.15 30.15 L15.1 29.4 18.3 26.75 19.7 25.1 19.75 25.15 19.85 25.15 20.0 25.25 22.1 27.9 23.95 30.35 Q24.35 30.85 22.45 35.4 L22.4 35.45 22.3 35.55 21.95 36.35 21.55 38.35 21.5 39.85 M22.3 35.55 L19.1 37.7 22.3 35.55" fill="#ff0000" fill-rule="evenodd" stroke="none"/>
      <path d="M14.15 30.15 Q11.8 25.65 11.45 22.0 L19.1 9.55 22.05 9.6 Q26.8 14.55 31.75 23.3 L34.05 27.9 32.1 32.5 Q28.35 37.7 23.1 40.3 L21.5 39.85 21.55 38.35 21.95 36.35 22.3 35.55 22.4 35.45 22.5 35.4 22.55 35.35 22.6 35.3 22.7 35.15 22.65 35.25 22.45 35.4 Q24.35 30.85 23.95 30.35 L22.1 27.9 20.0 25.25 19.85 25.15 19.75 25.15 19.7 25.1 18.3 26.75 15.1 29.4 14.15 30.15 M31.75 23.3 Q30.0 28.25 22.7 35.15 30.0 28.25 31.75 23.3" fill="#6a0000" fill-rule="evenodd" stroke="none"/>
      <path d="M14.15 30.15 Q11.8 25.65 11.45 22.0 L19.1 9.55 22.05 9.6 Q26.8 14.55 31.75 23.3 L34.05 27.9 32.1 32.5 Q28.35 37.7 23.1 40.3 L21.5 39.85 Q19.95 39.2 19.1 37.7 15.8 33.25 14.15 30.15 M22.45 35.4 L22.65 35.25 22.7 35.15 Q30.0 28.25 31.75 23.3 M22.7 35.15 L22.6 35.3 22.55 35.35 22.5 35.4 22.4 35.45 22.3 35.55 M22.5 35.4 L22.4 35.45 M22.45 35.4 L22.4 35.45 M19.1 37.7 L22.3 35.55" fill="none" stroke="#000000" stroke-linecap="round" stroke-linejoin="round" stroke-opacity="0.2" stroke-width="1.5"/>
      <path d="M21.7 34.0 L22.55 34.25 Q22.85 35.0 22.7 35.95 L21.9 36.15 Q22.0 35.35 21.7 34.0" fill="#000000" fill-rule="evenodd" stroke="none"/>
      <path d="M14.35 13.05 Q15.3 14.6 15.65 16.9 16.0 19.15 15.55 20.35 14.05 20.55 12.05 21.45 L9.8 22.4 Q9.45 22.45 10.05 21.65 L7.8 23.55 6.45 25.3 4.8 24.25 3.7 23.05 3.5 22.55 3.3 21.95 2.8 20.6 2.85 20.5 Q7.7 15.55 12.7 11.7 L12.8 11.7 14.35 13.05 Q11.65 14.45 9.15 16.65 5.25 20.0 3.7 23.05 5.25 20.0 9.15 16.65 11.65 14.45 14.35 13.05" fill="#ff0000" fill-rule="evenodd" stroke="none"/>
      <path d="M3.7 23.05 L4.8 24.25 6.45 25.3 7.8 23.55 10.05 21.65 Q9.45 22.45 9.8 22.4 L12.05 21.45 Q14.05 20.55 15.55 20.35 16.0 19.15 15.65 16.9 15.3 14.6 14.35 13.05 17.05 11.6 19.5 12.0 21.95 15.9 15.6 23.3 L14.85 24.15 Q10.8 24.45 8.5 25.8 8.3 26.6 7.1 27.6 4.35 28.1 3.4 27.3 L3.2 26.8 3.1 26.5 Q2.75 24.95 3.7 23.05 M7.5 26.5 L8.5 25.8 7.5 26.5" fill="#6d0101" fill-rule="evenodd" stroke="none"/>
      <path d="M3.7 23.05 Q2.75 24.95 3.1 26.5 1.9 23.0 2.8 20.6 L3.3 21.95 3.5 22.55 3.7 23.05 M19.5 12.0 Q17.05 11.6 14.35 13.05 L12.8 11.7 18.15 10.6 Q19.05 11.25 19.5 12.0" fill="#a90101" fill-rule="evenodd" stroke="none"/>
      <path d="M3.7 23.05 Q2.75 24.95 3.1 26.5 M8.5 25.8 L7.5 26.5 M19.5 12.0 Q17.05 11.6 14.35 13.05 M3.7 23.05 Q5.25 20.0 9.15 16.65 11.65 14.45 14.35 13.05" fill="none" stroke="#422f1d" stroke-linecap="round" stroke-linejoin="round" stroke-opacity="0.5019608" stroke-width="1.5"/>
      <path d="M3.1 26.5 L3.2 26.8 3.4 27.3 Q4.35 28.1 7.1 27.6 8.3 26.6 8.5 25.8 10.8 24.45 14.85 24.15 L15.6 23.3 Q21.95 15.9 19.5 12.0 19.05 11.25 18.15 10.6 L12.8 11.7 12.7 11.7 Q7.7 15.55 2.85 20.5 L2.8 20.6 Q1.9 23.0 3.1 26.5" fill="none" stroke="#000000" stroke-linecap="round" stroke-linejoin="round" stroke-opacity="0.2" stroke-width="1.5"/>
      <path d="M3.55 22.75 L4.45 24.3 3.85 24.95 Q3.3 24.25 3.05 23.3 L3.55 22.75" fill="#000000" fill-rule="evenodd" stroke="none"/>
      <path d="M7.3 19.85 L5.6 19.8 5.45 18.9 7.2 19.1 7.3 19.85" fill="#000000" fill-rule="evenodd" stroke="none"/>
      <path d="M12.95 15.0 Q12.55 14.3 11.75 13.75 L12.4 12.95 Q13.1 13.45 13.5 14.3 L12.95 15.0" fill="#000000" fill-rule="evenodd" stroke="none"/>
      <path d="M14.8 14.0 L13.85 12.4 14.25 12.0 15.4 13.3 14.8 14.0" fill="#000000" fill-rule="evenodd" stroke="none"/>
      <path d="M5.9 38.2 Q4.3 36.95 2.85 34.85 2.45 32.5 4.2 31.15 L9.1 31.15 Q11.9 29.85 13.9 28.05 L15.85 29.5 11.55 32.55 8.3 34.45 8.2 36.0 Q8.25 37.4 9.65 38.95 L5.9 38.2 M8.0 31.6 L9.1 31.15 8.0 31.6" fill="#ff0000" fill-rule="evenodd" stroke="none"/>
      <path d="M11.7 39.8 L8.0 39.4 Q6.95 39.0 5.9 38.2 L9.65 38.95 Q10.8 39.7 11.7 39.8 M15.85 29.5 Q18.85 32.2 21.05 36.4 19.5 37.3 13.6 39.25 L9.65 38.95 Q8.25 37.4 8.2 36.0 L8.3 34.45 11.55 32.55 15.85 29.5" fill="#990000" fill-rule="evenodd" stroke="none"/>
      <path d="M21.05 36.4 Q21.65 37.45 21.35 38.25 L16.85 39.9 11.7 39.8 Q10.8 39.7 9.65 38.95 L13.6 39.25 Q19.5 37.3 21.05 36.4" fill="#4b0101" fill-rule="evenodd" stroke="none"/>
      <path d="M21.05 36.4 Q21.65 37.45 21.35 38.25 L16.85 39.9 11.7 39.8 8.0 39.4 Q6.95 39.0 5.9 38.2 4.3 36.95 2.85 34.85 2.45 32.5 4.2 31.15 L9.1 31.15 Q11.9 29.85 13.9 28.05 L15.85 29.5 Q18.85 32.2 21.05 36.4 19.5 37.3 13.6 39.25 L9.65 38.95 5.9 38.2 M9.1 31.15 L8.0 31.6" fill="none" stroke="#000000" stroke-linecap="round" stroke-linejoin="round" stroke-opacity="0.2" stroke-width="0.05"/>
      <path d="M18.05 36.55 Q18.6 37.15 19.5 37.4 L19.05 38.4 17.7 37.35 Q17.7 36.95 18.05 36.55" fill="#000000" fill-rule="evenodd" stroke="none"/>
      <path d="M14.8 39.45 L13.95 39.55 Q13.4 38.9 13.15 38.05 13.4 37.7 13.85 37.5 L14.8 39.45" fill="#000000" fill-rule="evenodd" stroke="none"/>
      <path d="M12.15 39.7 L11.25 39.6 Q10.9 38.85 10.9 37.9 11.2 37.55 11.7 37.6 11.75 38.45 12.15 39.7" fill="#000000" fill-rule="evenodd" stroke="none"/>
      <path d="M7.8 38.85 L7.15 38.9 6.45 37.6 6.95 37.25 7.8 38.85" fill="#000000" fill-rule="evenodd" stroke="none"/>
      <path d="M20.75 37.8 L20.2 35.7 21.05 35.55 Q21.5 36.35 21.5 37.2 L20.75 37.8" fill="#000000" fill-rule="evenodd" stroke="none"/>
      <path d="M8.75 25.95 Q9.3 25.55 10.05 25.35 L12.2 24.9 14.3 25.05 14.85 25.5 14.55 25.95 13.85 26.8 10.8 29.75 10.05 30.35 9.5 30.75 9.5 30.8 9.55 30.35 9.55 29.9 9.5 29.8 8.95 26.45 8.75 25.95" fill="#b0936b" fill-rule="evenodd" stroke="none"/>
      <path d="M16.35 22.7 L16.1 22.7 16.0 22.7 16.35 22.7 M9.35 23.85 L9.25 23.85 9.0 23.9 9.35 23.85 M7.95 25.95 L8.0 26.1 8.05 26.35 7.95 25.95 M8.15 26.5 L8.75 25.95 8.95 26.45 9.5 29.8 9.55 29.9 9.55 30.35 9.5 30.8 9.5 30.85 9.45 30.95 9.45 31.35 10.35 30.7 10.85 30.25 11.1 30.1 13.85 27.7 14.0 27.5 14.25 27.35 14.4 27.2 14.6 26.95 15.45 26.15 15.8 26.5 15.8 26.65 15.05 27.4 15.05 27.45 14.3 28.15 14.25 28.25 11.7 30.65 10.9 31.3 10.8 31.4 8.5 32.65 8.4 32.6 8.65 31.45 8.7 31.3 8.75 31.3 8.75 31.2 8.7 31.2 8.8 30.85 8.7 28.9 8.15 26.5 M8.8 30.85 L8.75 31.15 8.7 31.2 8.75 31.15 8.8 30.85 M9.3 31.85 L9.45 31.35 9.3 31.85" fill="#806035" fill-rule="evenodd" stroke="none"/>
      <path d="M8.75 25.95 L8.7 25.65 8.65 25.65 8.6 25.5 8.35 24.9 9.0 24.7 9.25 24.65 9.65 24.5 Q13.25 23.45 15.6 23.25 L15.7 23.25 16.05 23.25 Q16.7 24.55 16.05 25.5 L15.55 26.05 15.45 26.15 14.6 26.95 14.4 27.2 14.25 27.35 14.0 27.5 13.85 27.7 11.1 30.1 10.85 30.25 10.35 30.7 9.45 31.35 9.45 30.95 9.5 30.85 9.5 30.8 9.5 30.75 10.05 30.35 10.8 29.75 13.85 26.8 14.55 25.95 14.85 25.5 14.3 25.05 12.2 24.9 10.05 25.35 Q9.3 25.55 8.75 25.95" fill="#856f51" fill-rule="evenodd" stroke="none"/>
      <path d="M16.35 22.7 L16.45 22.65 Q17.6 24.25 16.55 25.85 L15.8 26.65 15.8 26.5 15.45 26.15 15.55 26.05 16.05 25.5 Q16.7 24.55 16.05 23.25 L15.7 23.25 15.6 23.25 Q13.25 23.45 9.65 24.5 L9.25 24.65 9.0 24.7 8.35 24.9 8.6 25.5 8.65 25.65 8.7 25.65 8.75 25.95 8.15 26.5 8.05 26.35 8.0 26.1 7.95 25.95 7.85 25.75 7.5 24.85 Q7.25 24.8 7.85 24.35 L7.95 24.3 8.1 24.2 9.0 23.9 9.25 23.85 9.35 23.85 10.0 23.7 10.35 23.6 11.55 23.4 11.6 23.4 12.05 23.35 12.25 23.3 14.8 22.9 15.9 22.75 16.0 22.7 16.1 22.7 16.35 22.7 M9.35 23.85 L10.35 23.6 9.35 23.85" fill="#614928" fill-rule="evenodd" stroke="none"/>
      <path d="M8.75 25.95 L8.7 25.65 8.65 25.65 8.6 25.5 8.35 24.9 9.0 24.7 9.25 24.65 9.65 24.5 Q13.25 23.45 15.6 23.25 L15.7 23.25 16.05 23.25 Q16.7 24.55 16.05 25.5 L15.55 26.05 15.45 26.15 M8.75 25.95 L8.95 26.45 9.5 29.8 9.55 29.9 9.55 30.35 9.5 30.8 M9.5 30.85 L9.45 30.95 9.45 31.35 10.35 30.7 10.85 30.25 11.1 30.1 13.85 27.7 14.0 27.5 14.25 27.35 14.4 27.2 14.6 26.95 15.45 26.15 M9.45 31.35 L9.3 31.85" fill="none" stroke="#422f1d" stroke-linecap="round" stroke-linejoin="round" stroke-opacity="0.15294118" stroke-width="1.5"/>
      <path d="M15.8 26.65 L16.55 25.85 Q17.6 24.25 16.45 22.65 L16.35 22.7 16.1 22.7 16.0 22.7 15.9 22.75 14.8 22.9 12.25 23.3 12.05 23.35 11.6 23.4 11.55 23.4 10.35 23.6 9.35 23.85 9.25 23.85 9.0 23.9 8.1 24.2 7.95 24.3 7.85 24.35 Q7.25 24.8 7.5 24.85 L7.85 25.75 7.95 25.95 8.0 26.1 8.05 26.35 8.15 26.5 M15.8 26.65 L15.05 27.4 15.05 27.45 14.3 28.15 14.25 28.25 11.7 30.65 10.9 31.3 10.8 31.4 8.5 32.65 8.4 32.6 8.65 31.45 8.7 31.3 8.75 31.3 8.75 31.2 8.7 31.2 8.8 30.85 8.7 28.9 8.15 26.5 M16.35 22.7 L16.0 22.7 M8.7 31.2 L8.75 31.15 8.8 30.85 M10.35 23.6 L10.0 23.7 9.35 23.85 9.0 23.9 M7.95 25.95 L8.05 26.35" fill="none" stroke="#422f1d" stroke-linecap="round" stroke-linejoin="round" stroke-opacity="0.3019608" stroke-width="0.05"/>
      <path d="M32.9 16.85 L32.85 16.8 32.3 16.65 Q32.1 16.65 31.95 16.8 L31.8 16.9 31.75 16.95 Q31.55 17.2 31.5 17.5 L31.7 18.05 31.8 18.1 32.2 18.25 32.75 18.0 32.8 17.95 32.9 17.85 33.0 17.4 32.9 16.85 M35.3 19.6 L35.3 19.55 35.3 19.6 35.1 19.7 35.0 19.85 34.95 19.85 34.95 19.9 34.9 19.95 34.85 20.0 34.8 20.15 34.7 20.25 Q34.65 20.5 34.75 20.6 L35.05 20.65 35.3 20.5 35.4 20.35 35.45 20.35 35.65 20.0 35.65 19.65 35.3 19.6 M28.5 7.6 L40.3 20.45 Q38.45 21.8 36.15 25.0 31.6 22.2 28.35 19.3 24.7 15.85 23.1 13.35 25.15 10.6 28.5 7.6 M22.35 12.0 Q20.45 8.5 20.4 4.9 L23.2 1.85 27.6 6.6 Q25.2 8.55 22.35 12.0 M29.2 13.85 L29.3 13.4 29.1 12.75 28.5 12.5 28.1 12.65 27.85 12.9 27.8 12.95 27.5 13.6 Q27.45 14.05 27.7 14.3 27.95 14.55 28.3 14.5 28.65 14.45 28.95 14.2 L29.0 14.15 29.2 13.85" fill="#000000" fill-rule="evenodd" stroke="none"/>
      <path d="M32.9 16.85 L33.0 17.4 32.9 17.85 32.8 17.95 32.75 18.0 32.2 18.25 31.8 18.1 31.7 18.05 31.5 17.5 Q31.55 17.2 31.75 16.95 L31.8 16.9 31.95 16.8 Q32.1 16.65 32.3 16.65 L32.85 16.8 32.9 16.85 M35.3 19.6 L35.65 19.65 35.65 20.0 35.45 20.35 35.4 20.35 35.3 20.5 35.05 20.65 34.75 20.6 Q34.65 20.5 34.7 20.25 L34.8 20.15 34.85 20.0 34.9 19.95 34.95 19.9 34.95 19.85 35.0 19.85 35.1 19.7 35.3 19.6 M23.1 13.35 L23.05 13.55 21.9 12.55 22.35 12.0 Q25.2 8.55 27.6 6.6 L28.5 7.6 Q25.15 10.6 23.1 13.35 M29.2 13.85 L29.0 14.15 28.95 14.2 Q28.65 14.45 28.3 14.5 27.95 14.55 27.7 14.3 27.45 14.05 27.5 13.6 L27.8 12.95 27.85 12.9 28.1 12.65 28.5 12.5 29.1 12.75 29.3 13.4 29.2 13.85" fill="#d1b183" fill-rule="evenodd" stroke="none"/>
      <path d="M32.9 16.85 L33.0 17.4 32.9 17.85 32.8 17.95 32.75 18.0 32.2 18.25 31.8 18.1 31.7 18.05 31.5 17.5 Q31.55 17.2 31.75 16.95 L31.8 16.9 31.95 16.8 Q32.1 16.65 32.3 16.65 L32.85 16.8 32.9 16.85 M35.3 19.6 L35.65 19.65 35.65 20.0 35.45 20.35 35.4 20.35 35.3 20.5 35.05 20.65 34.75 20.6 Q34.65 20.5 34.7 20.25 L34.8 20.15 34.85 20.0 34.9 19.95 34.95 19.9 34.95 19.85 35.0 19.85 35.1 19.7 35.3 19.6 M28.5 7.6 L40.3 20.45 Q38.45 21.8 36.15 25.0 31.6 22.2 28.35 19.3 24.7 15.85 23.1 13.35 L23.05 13.55 21.9 12.55 22.35 12.0 Q20.45 8.5 20.4 4.9 L23.2 1.85 27.6 6.6 Q25.2 8.55 22.35 12.0 M28.5 7.6 Q25.15 10.6 23.1 13.35 M29.2 13.85 L29.0 14.15 28.95 14.2 Q28.65 14.45 28.3 14.5 27.95 14.55 27.7 14.3 27.45 14.05 27.5 13.6 L27.8 12.95 27.85 12.9 28.1 12.65 28.5 12.5 29.1 12.75 29.3 13.4 29.2 13.85" fill="none" stroke="#42301e" stroke-linecap="round" stroke-linejoin="round" stroke-width="1.5"/>
      <path d="M40.9 21.5 Q39.95 21.3 39.0 20.15 L37.95 18.65 37.8 18.25 Q37.6 18.05 37.75 17.25 L37.95 15.7 36.25 14.9 34.35 13.6 33.0 11.85 31.8 10.3 28.4 7.8 Q25.25 5.6 22.75 2.85 L22.05 1.8 22.0 1.4 Q22.25 0.7 23.0 0.2 27.65 1.85 38.2 12.35 L42.3 19.5 Q42.65 21.6 40.9 21.5" fill="#ebdbc3" fill-rule="evenodd" stroke="none"/>
      <path d="M22.0 1.4 L22.05 1.8 22.75 2.85 Q25.25 5.6 28.4 7.8 L31.8 10.3 33.0 11.85 34.35 13.6 36.25 14.9 37.95 15.7 37.75 17.25 Q37.6 18.05 37.8 18.25 L37.95 18.65 39.0 20.15 Q39.95 21.3 40.9 21.5 L39.95 21.85 Q34.95 19.35 34.4 15.55 31.2 10.95 25.1 6.95 21.25 4.1 21.8 2.85 21.7 2.05 22.0 1.4 M35.75 17.9 L34.4 15.55 35.75 17.9" fill="#b0936b" fill-rule="evenodd" stroke="none"/>
      <path d="M40.9 21.5 Q42.65 21.6 42.3 19.5 L38.2 12.35 Q27.65 1.85 23.0 0.2 22.25 0.7 22.0 1.4 21.7 2.05 21.8 2.85 21.25 4.1 25.1 6.95 31.2 10.95 34.4 15.55 L35.75 17.9 M40.9 21.5 L39.95 21.85 Q34.95 19.35 34.4 15.55" fill="none" stroke="#000000" stroke-linecap="round" stroke-linejoin="round" stroke-opacity="0.2" stroke-width="0.05"/>
      <path d="M36.95 27.6 L36.6 27.45 36.15 27.1 35.7 27.2 Q34.7 27.25 31.9 25.55 L30.05 24.2 28.85 23.1 28.2 22.75 27.7 22.4 25.95 19.85 22.3 15.05 18.65 10.65 17.9 9.45 17.1 8.25 Q16.9 8.05 17.0 6.9 L17.3 5.5 Q19.25 3.9 20.6 4.2 L21.6 8.05 20.4 7.1 21.6 8.05 Q25.4 11.35 27.2 16.55 31.65 21.75 35.45 22.7 L38.05 22.9 Q38.45 25.55 36.95 27.6 M27.6 17.8 L27.2 16.55 27.6 17.8" fill="#ebdbc3" fill-rule="evenodd" stroke="none"/>
      <path d="M17.3 5.5 L17.0 6.9 Q16.9 8.05 17.1 8.25 L17.9 9.45 18.65 10.65 22.3 15.05 25.95 19.85 27.7 22.4 28.2 22.75 28.85 23.1 30.05 24.2 31.9 25.55 Q34.7 27.25 35.7 27.2 L36.15 27.1 36.6 27.45 36.95 27.6 35.7 28.95 Q32.5 28.1 29.15 25.9 19.8 16.5 15.9 9.05 L16.4 6.4 17.3 5.5" fill="#b0936b" fill-rule="evenodd" stroke="none"/>
      <path d="M17.3 5.5 L16.4 6.4 15.9 9.05 Q19.8 16.5 29.15 25.9 32.5 28.1 35.7 28.95 L36.95 27.6 Q38.45 25.55 38.05 22.9 L35.45 22.7 Q31.65 21.75 27.2 16.55 L27.6 17.8 M20.4 7.1 L21.6 8.05 20.6 4.2 Q19.25 3.9 17.3 5.5 M27.2 16.55 Q25.4 11.35 21.6 8.05" fill="none" stroke="#000000" stroke-linecap="round" stroke-linejoin="round" stroke-opacity="0.2" stroke-width="0.05"/>
      <path d="M29.55 28.25 Q29.4 28.3 29.3 28.4 L29.35 28.35 29.55 28.25 M28.6 28.8 L28.45 28.9 28.5 28.9 28.6 28.8 M26.65 27.45 L26.5 27.55 25.7 28.15 25.55 28.25 Q26.05 27.8 26.65 27.45 M32.45 30.15 L32.5 30.15 32.75 29.45 32.3 30.7 32.4 30.5 32.4 30.45 32.45 30.15 M32.5 30.15 L32.4 30.45 32.5 30.15" fill="#2b0000" fill-rule="evenodd" stroke="none"/>
      <path d="M25.95 38.35 L25.75 38.4 25.8 38.4 25.95 38.35" fill="#d4c7ad" fill-rule="evenodd" stroke="none"/>
      <path d="M28.25 29.8 L28.25 29.75 28.25 29.8" fill="#c22020" fill-rule="evenodd" stroke="none"/>
      <path d="M26.5 31.1 L25.5 29.9 Q25.3 29.3 26.15 28.6 26.45 28.35 27.0 28.1 L27.25 27.95 27.55 27.8 27.9 27.65 Q28.85 27.4 27.8 28.95 L27.7 29.1 28.25 29.75 28.25 29.8 28.3 29.85 28.5 30.3 28.4 30.7 28.25 30.9 28.25 30.95 28.2 30.95 27.75 30.35 27.6 30.2 26.8 29.75 26.3 29.85 Q26.0 30.2 27.05 31.45 L26.55 31.2 26.5 31.15 26.5 31.1 M27.55 29.35 L27.7 29.15 27.7 29.1 27.7 29.15 27.55 29.35" fill="#9c8566" fill-rule="evenodd" stroke="none"/>
      <path d="M26.5 31.15 L26.5 31.1 26.5 31.15 M32.1 31.3 L32.05 31.3 32.05 31.35 32.05 31.3 32.05 31.25 32.1 31.3 M27.05 31.45 L27.05 31.5 27.05 31.45" fill="#540505" fill-rule="evenodd" stroke="none"/>
      <path d="M26.2 38.3 L25.95 38.35 25.8 38.4 25.45 38.3 Q23.7 37.5 27.25 33.05 L28.9 31.6 29.05 31.5 28.9 31.6 Q24.3 36.25 26.2 38.3" fill="#91866f" fill-rule="evenodd" stroke="none"/>
      <path d="M25.3 38.65 L25.2 38.7 25.1 38.75 25.0 38.75 24.95 38.8 24.85 38.75 Q24.15 38.3 24.1 36.75 24.45 34.2 27.05 31.5 L27.05 31.45 27.45 31.45 27.55 31.4 28.15 31.0 28.25 30.95 28.25 30.9 28.4 30.7 29.1 30.4 29.3 30.4 30.05 30.3 30.4 30.3 30.8 30.35 29.65 31.0 29.05 31.5 28.9 31.6 27.25 33.05 Q23.7 37.5 25.45 38.3 L25.8 38.4 25.75 38.4 25.35 38.65 25.3 38.65" fill="#ffcc00" fill-rule="evenodd" stroke="none"/>
      <path d="M24.95 38.8 L24.8 38.8 24.85 38.75 24.95 38.8 M27.05 31.45 L27.05 31.5 27.05 31.45 M26.55 31.2 L26.5 31.15 26.55 31.2" fill="#cc9900" fill-rule="evenodd" stroke="none"/>
      <path d="M28.25 29.75 L28.45 29.65 29.0 29.3 29.55 29.05 29.6 29.05 29.65 29.0 29.9 28.95 30.3 28.8 31.25 28.55 32.3 28.85 Q32.6 29.3 32.45 30.15 L32.4 30.45 32.4 30.5 32.3 30.7 32.3 30.75 32.25 30.8 32.25 30.85 32.25 30.9 32.25 30.95 32.2 30.95 32.1 31.3 32.05 31.25 Q32.15 30.15 31.4 30.2 L31.25 30.2 31.1 30.25 30.8 30.35 30.4 30.3 30.05 30.3 29.3 30.4 29.1 30.4 28.4 30.7 28.5 30.3 28.3 29.85 28.25 29.8 28.25 29.75" fill="#dbaf02" fill-rule="evenodd" stroke="none"/>
      <path d="M24.8 38.8 L24.65 38.85 Q24.1 38.9 23.75 38.55 23.05 37.9 23.5 36.05 L23.6 35.6 Q24.1 33.95 25.7 32.05 L26.5 31.15 26.55 31.2 27.05 31.45 27.05 31.5 Q24.45 34.2 24.1 36.75 24.15 38.3 24.85 38.75 L24.8 38.8" fill="#c28202" fill-rule="evenodd" stroke="none"/>
      <path d="M29.55 28.25 L29.7 28.2 30.45 27.9 30.6 27.85 30.75 27.8 30.95 27.8 31.15 27.75 31.2 27.75 Q32.25 27.55 32.6 28.0 L32.85 28.8 32.75 29.45 32.5 30.15 32.45 30.15 Q32.6 29.3 32.3 28.85 L31.25 28.55 30.3 28.8 29.9 28.95 29.65 29.0 29.6 29.05 29.55 29.05 29.0 29.3 28.45 29.65 28.25 29.75 27.7 29.1 27.8 28.95 Q28.85 27.4 27.9 27.65 L27.55 27.8 27.25 27.95 27.0 28.1 Q26.45 28.35 26.15 28.6 25.3 29.3 25.5 29.9 L26.5 31.1 26.5 31.15 25.7 32.05 Q24.1 33.95 23.6 35.6 L23.5 36.05 Q23.05 37.9 23.75 38.55 24.1 38.9 24.65 38.85 L24.8 38.8 24.95 38.8 25.0 38.75 25.1 38.75 25.2 38.7 25.3 38.65 24.0 39.2 23.75 39.25 23.15 39.05 Q22.1 38.3 22.7 35.9 23.05 34.35 24.2 32.8 L25.65 31.15 24.9 30.25 Q24.45 29.65 24.65 29.2 L25.55 28.25 25.7 28.15 26.5 27.55 26.65 27.45 26.7 27.45 26.75 27.4 28.0 26.9 28.25 26.8 Q29.25 26.7 29.0 27.65 L28.95 27.9 28.5 28.9 28.45 28.9 28.6 28.8 29.3 28.4 Q29.4 28.3 29.55 28.25" fill="#784d30" fill-rule="evenodd" stroke="none"/>
      <path d="M27.05 31.45 Q26.0 30.2 26.3 29.85 L26.8 29.75 27.6 30.2 27.75 30.35 28.2 30.95 28.25 30.95 28.15 31.0 27.55 31.4 27.45 31.45 27.05 31.45" fill="#f0e3d2" fill-rule="evenodd" stroke="none"/>
      <path d="M32.05 31.35 L32.05 31.65 31.9 32.35 31.1 34.0 29.95 35.5 28.7 36.8 28.65 36.85 28.65 36.8 28.35 36.55 28.15 35.35 Q28.2 34.35 27.8 34.05 27.45 33.75 26.75 34.9 26.05 36.05 26.1 36.7 26.15 37.4 26.65 38.15 L26.5 38.2 26.4 38.2 26.2 38.3 Q24.3 36.25 28.9 31.6 L29.05 31.5 29.65 31.0 30.8 30.35 31.1 30.25 31.25 30.2 31.4 30.2 Q32.15 30.15 32.05 31.25 L32.05 31.3 32.05 31.35" fill="#ebe3d8" fill-rule="evenodd" stroke="none"/>
      <path d="M28.65 36.85 L27.8 37.55 27.1 37.95 27.05 37.95 26.65 38.15 Q26.15 37.4 26.1 36.7 26.05 36.05 26.75 34.9 27.45 33.75 27.8 34.05 28.2 34.35 28.15 35.35 L28.35 36.55 28.65 36.8 28.65 36.85" fill="#d7c7b0" fill-rule="evenodd" stroke="none"/>
      <path d="M25.3 38.65 L25.2 38.7 25.1 38.75 25.0 38.75 M24.95 38.8 L24.8 38.8 24.65 38.85 Q24.1 38.9 23.75 38.55 23.05 37.9 23.5 36.05 L23.6 35.6 Q24.1 33.95 25.7 32.05 L26.5 31.15 26.5 31.1 25.5 29.9 Q25.3 29.3 26.15 28.6 26.45 28.35 27.0 28.1 L27.25 27.95 27.55 27.8 27.9 27.65 Q28.85 27.4 27.8 28.95 L27.7 29.1 28.25 29.75 28.45 29.65 29.0 29.3 29.55 29.05 29.6 29.05 29.65 29.0 29.9 28.95 30.3 28.8 31.25 28.55 32.3 28.85 Q32.6 29.3 32.45 30.15 M32.5 30.15 L32.75 29.45 M32.3 30.7 L32.3 30.75 32.25 30.8 32.25 30.85 32.25 30.9 32.25 30.95 32.2 30.95 32.1 31.3 32.05 31.3 32.05 31.35 32.05 31.65 31.9 32.35 31.1 34.0 29.95 35.5 28.7 36.8 28.65 36.85 27.8 37.55 27.1 37.95 27.05 37.95 26.65 38.15 26.5 38.2 26.4 38.2 26.2 38.3 25.95 38.35 25.75 38.4 25.35 38.65 25.3 38.65 M30.8 30.35 L31.1 30.25 31.25 30.2 31.4 30.2 Q32.15 30.15 32.05 31.25 M27.7 29.1 L27.7 29.15 27.55 29.35 M28.4 30.7 L28.5 30.3 28.3 29.85 28.25 29.8 28.25 29.75 M28.25 30.95 L28.25 30.9 28.4 30.7 M28.25 30.95 L28.15 31.0 27.55 31.4 27.45 31.45 27.05 31.45 26.55 31.2 26.5 31.15 26.5 31.1 M30.8 30.35 L29.65 31.0 29.05 31.5 28.9 31.6 27.25 33.05 Q23.7 37.5 25.45 38.3 L25.8 38.4 25.95 38.35 M32.4 30.45 L32.5 30.15 M32.3 30.7 L32.4 30.5 32.4 30.45 32.45 30.15 M32.05 31.35 L32.05 31.3 32.05 31.25 M25.75 38.4 L25.8 38.4" fill="none" stroke="#422f1d" stroke-linecap="round" stroke-linejoin="round" stroke-opacity="0.3019608" stroke-width="0.05"/>
      <path d="M42.3 19.5 L38.2 12.35 Q27.65 1.85 23.0 0.2 22.25 0.7 22.0 1.4 21.7 2.05 21.8 2.85 21.7 3.1 21.75 3.45 L20.7 4.6 20.6 4.2 Q19.25 3.9 17.3 5.5 L16.4 6.4 15.9 9.05 16.9 10.85 12.8 11.7 12.7 11.7 Q7.7 15.55 2.85 20.5 L2.8 20.6 Q1.9 23.0 3.1 26.5 L3.2 26.8 3.4 27.3 Q4.35 28.1 7.1 27.6 L8.15 26.5 8.7 28.9 8.8 30.85 8.8 31.0 8.75 31.15 4.2 31.15 Q2.45 32.5 2.85 34.85 4.3 36.95 5.9 38.2 6.95 39.0 8.0 39.4 L9.95 39.7 Q10.45 40.8 12.25 42.3 L17.55 42.9 18.0 42.9 22.95 40.3 23.1 40.3 26.65 38.15 27.05 37.95 27.1 37.95 27.8 37.55 28.65 36.85 28.7 36.8 29.95 35.5 31.1 34.0 31.55 33.25 32.1 32.5 33.85 28.35 35.7 28.95 36.95 27.6 Q38.45 25.55 38.05 22.9 L37.8 22.9 39.15 21.45 39.95 21.85 40.9 21.5 Q42.65 21.6 42.3 19.5 Z" fill="none" stroke="#000000" stroke-linecap="round" stroke-linejoin="round" stroke-opacity="0.3019608" stroke-width="0.5"/>
    </g>
  </defs>
</svg>
