<?xml version="1.0" encoding="UTF-8" standalone="no"?>
<svg xmlns:xlink="http://www.w3.org/1999/xlink" height="440.0px" width="440.0px" xmlns="http://www.w3.org/2000/svg">
  <g transform="matrix(10.0, 0.0, 0.0, 10.0, 0.0, 0.0)">
    <use height="44.0" transform="matrix(1.0, 0.0, 0.0, 1.0, 0.0, 0.0)" width="44.0" xlink:href="#shape0"/>
  </g>
  <defs>
    <g id="shape0" transform="matrix(1.0, 0.0, 0.0, 1.0, 0.0, 0.0)">
      <path d="M44.0 44.0 L0.0 44.0 0.0 0.0 44.0 0.0 44.0 44.0" fill="#43adca" fill-opacity="0.0" fill-rule="evenodd" stroke="none"/>
      <path d="M25.4 6.15 L22.5 8.7 21.8 15.95 18.75 17.35 18.6 17.5 15.3 15.7 14.45 13.35 14.4 13.2 16.25 10.75 17.1 14.3 22.5 8.7 21.7 3.85 25.15 2.9 25.4 6.15 M30.15 15.9 L33.5 14.1 36.4 20.45 33.45 19.5 30.15 15.9 M11.05 22.65 L13.65 23.1 18.35 20.8 20.85 24.9 21.1 28.05 19.05 29.1 18.4 29.4 13.45 23.55 11.05 22.65 M13.65 23.1 L19.05 29.1 13.65 23.1" fill="#faf0c0" fill-rule="evenodd" stroke="none"/>
      <path d="M21.7 3.85 L22.5 8.7 17.1 14.3 16.25 10.75 21.2 3.95 21.7 3.85 M30.15 15.9 L26.2 14.35 26.45 12.5 31.4 12.5 33.5 14.1 30.15 15.9 M8.65 21.8 L9.0 20.8 11.2 19.65 18.35 20.8 13.65 23.1 11.05 22.65 8.65 21.8" fill="#fcf3d8" fill-rule="evenodd" stroke="none"/>
      <path d="M14.45 13.35 L15.3 15.7 18.6 17.5 18.75 17.35 21.8 15.95 22.5 8.7 25.4 6.15 25.75 9.55 23.9 19.55 23.9 19.6 23.15 19.65 23.35 18.5 21.85 17.35 19.85 18.65 20.45 19.7 19.35 19.7 24.1 26.9 22.0 32.2 19.95 33.55 19.05 29.1 21.1 28.05 20.85 24.9 18.35 20.8 11.2 19.65 12.85 18.8 14.2 13.45 14.45 13.35 M14.6 18.0 L12.85 18.8 14.6 18.0 M26.2 14.35 L30.15 15.9 33.45 19.5 36.4 20.45 37.35 22.5 36.1 26.65 33.1 24.4 32.8 23.25 31.8 20.4 31.55 19.3 31.5 19.3 26.4 15.85 26.2 14.35 M34.1 22.5 L32.8 23.25 34.1 22.5 M17.3 33.8 L17.9 34.0 16.15 36.5 12.1 33.35 11.8 32.55 17.3 33.8 M26.15 35.85 L26.9 31.85 Q27.1 33.75 31.2 32.7 L26.15 35.85" fill="#c2b585" fill-rule="evenodd" stroke="none"/>
      <path d="M25.75 9.55 L26.2 14.35 26.4 15.85 26.7 18.85 22.65 23.25 20.45 19.7 22.65 23.25 26.7 18.85 26.4 15.85 31.5 19.3 31.8 20.4 32.8 23.25 33.1 24.4 36.1 26.65 34.6 31.5 32.8 31.65 31.2 32.7 Q27.1 33.75 26.9 31.85 L26.15 35.85 25.15 39.0 20.5 40.45 13.9 37.3 8.25 30.95 Q7.55 26.4 8.55 22.3 L11.05 22.65 13.45 23.55 18.4 29.4 19.05 29.1 19.95 33.55 22.0 32.2 24.1 26.9 19.35 19.7 20.45 19.7 23.15 19.65 23.9 19.6 23.9 19.55 25.75 9.55 M19.95 38.95 L20.65 36.95 19.95 33.55 20.65 36.95 19.95 38.95 M8.55 25.4 L10.45 26.55 10.5 26.55 10.45 26.55 8.55 25.4 M17.9 34.0 L18.2 33.35 15.3 28.45 14.4 27.3 13.65 27.15 10.5 26.55 10.1 27.7 11.8 32.55 12.1 33.35 16.15 36.5 17.9 34.0 M16.15 28.25 L14.4 27.3 16.15 28.25 M32.95 27.45 L34.55 27.65 32.95 27.45" fill="#9b8c5e" fill-rule="evenodd" stroke="none"/>
      <path d="M14.45 13.35 L14.2 13.45 14.4 13.2 14.45 13.35 M23.15 19.65 L20.45 19.7 19.85 18.65 21.85 17.35 23.35 18.5 23.15 19.65 M31.5 19.3 L31.55 19.3 31.8 20.4 31.5 19.3 M8.65 21.8 L11.05 22.65 8.55 22.3 8.65 21.8" fill="#b0a579" fill-rule="evenodd" stroke="none"/>
      <path d="M17.3 33.8 L14.6 32.8 13.35 28.55 13.65 27.15 14.4 27.3 15.3 28.45 18.2 33.35 17.9 34.0 17.3 33.8" fill="#453c2c" fill-rule="evenodd" stroke="none"/>
      <path d="M13.65 27.15 L13.35 28.55 14.6 32.8 17.3 33.8 11.8 32.55 10.1 27.7 10.5 26.55 13.65 27.15" fill="#7d704c" fill-rule="evenodd" stroke="none"/>
      <path d="M32.8 23.25 L34.1 22.5 M34.55 27.65 L32.95 27.45" fill="none" stroke="#000000" stroke-linecap="round" stroke-linejoin="round" stroke-opacity="0.2" stroke-width="0.7000000000000001"/>
      <path d="M14.2 13.45 L12.85 18.8 14.6 18.0 M25.75 9.55 L25.4 6.15 25.15 2.9 21.7 3.85 21.2 3.95 16.25 10.75 14.4 13.2 14.2 13.45 M33.5 14.1 L31.4 12.5 26.45 12.5 26.2 14.35 25.75 9.55 M20.45 19.7 L22.65 23.25 26.7 18.85 26.4 15.85 26.2 14.35 M23.15 19.65 L23.35 18.5 21.85 17.35 19.85 18.65 20.45 19.7 M19.95 33.55 L20.65 36.95 19.95 38.95 M36.1 26.65 L37.35 22.5 36.4 20.45 33.5 14.1 M11.2 19.65 L9.0 20.8 8.65 21.8 8.55 22.3 11.05 22.65 13.65 23.1 M11.2 19.65 L12.85 18.8 M19.05 29.1 L13.65 23.1 M10.5 26.55 L10.45 26.55 8.55 25.4 M17.9 34.0 L18.2 33.35 15.3 28.45 14.4 27.3 13.65 27.15 10.5 26.55 10.1 27.7 11.8 32.55 M12.1 33.35 L11.8 32.55 M17.9 34.0 L16.15 36.5 M14.4 27.3 L16.15 28.25 M19.05 29.1 L19.95 33.55 M8.55 22.3 Q7.55 26.4 8.25 30.95 L13.9 37.3 20.5 40.45 25.15 39.0 26.15 35.85 31.2 32.7 32.8 31.65 34.6 31.5 36.1 26.65" fill="none" stroke="#000000" stroke-linecap="round" stroke-linejoin="round" stroke-opacity="0.3019608" stroke-width="0.05"/>
      <path d="M21.2 3.95 L14.2 13.45 12.85 18.8 9.0 20.8 8.65 21.8 8.55 22.3 Q7.55 26.4 8.25 30.95 L13.9 37.3 20.5 40.45 25.15 39.0 26.15 35.85 32.8 31.65 34.6 31.5 37.35 22.5 33.5 14.1 31.4 12.5 26.45 12.5 26.2 14.35 25.15 2.9 21.7 3.85 21.2 3.95 Z" fill="none" stroke="#000000" stroke-linecap="round" stroke-linejoin="round" stroke-opacity="0.3019608" stroke-width="0.5"/>
    </g>
  </defs>
</svg>
