<?xml version="1.0" encoding="UTF-8" standalone="no"?>
<svg xmlns:xlink="http://www.w3.org/1999/xlink" height="440.0px" width="440.0px" xmlns="http://www.w3.org/2000/svg">
  <g transform="matrix(10.0, 0.0, 0.0, 10.0, 0.0, 0.0)">
    <use height="44.0" transform="matrix(1.0, 0.0, 0.0, 1.0, 0.0, 0.0)" width="44.0" xlink:href="#shape0"/>
    <use height="27.6" transform="matrix(-0.2744, -0.0146, 0.0225, -0.4234, 38.95, 15.8)" width="50.15" xlink:href="#sprite0"/>
    <use height="34.8" transform="matrix(-0.5472, -0.0279, -0.0125, 0.3552, 42.2, 4.35)" width="34.8" xlink:href="#sprite1"/>
    <use height="34.8" transform="matrix(-0.3089, 0.0858, 0.0675, 0.243, 14.45, 29.8)" width="34.8" xlink:href="#sprite1"/>
    <use height="13.1" transform="matrix(0.1885, 0.0, 0.0, 0.1885, 9.95, 34.35)" width="13.3" xlink:href="#sprite2"/>
    <use height="34.6" transform="matrix(1.0, 0.0, 0.0, 1.0, 4.3, 5.25)" width="35.35" xlink:href="#shape4"/>
  </g>
  <defs>
    <g id="shape0" transform="matrix(1.0, 0.0, 0.0, 1.0, 0.0, 0.0)">
      <path d="M44.0 44.0 L0.0 44.0 0.0 0.0 44.0 0.0 44.0 44.0" fill="#43adca" fill-opacity="0.0" fill-rule="evenodd" stroke="none"/>
      <path d="M9.55 14.05 L10.15 13.5 10.2 13.6 10.25 13.65 Q9.85 13.8 9.55 14.05" fill="#e0c585" fill-rule="evenodd" stroke="none"/>
      <path d="M19.2 9.4 Q19.45 10.6 14.25 12.15 L14.0 12.15 Q12.05 12.45 10.25 13.65 L10.2 13.6 Q12.65 11.55 15.75 10.15 17.35 9.5 19.2 9.4" fill="#eab131" fill-rule="evenodd" stroke="none"/>
      <path d="M14.25 12.15 Q16.65 11.75 19.3 12.6 L19.6 12.7 19.9 12.85 Q24.65 14.65 27.45 19.5 30.35 24.7 29.2 30.0 30.05 29.8 30.95 29.25 32.3 28.5 33.7 27.2 L33.6 27.85 33.2 28.9 Q32.15 29.0 30.6 30.1 L28.95 31.55 Q28.0 34.5 26.2 36.35 L25.85 36.6 23.9 38.1 Q19.6 40.6 14.5 39.0 11.35 37.85 9.05 35.4 7.65 33.95 6.6 32.1 3.75 27.05 4.9 21.6 5.8 16.55 9.55 14.05 9.85 13.8 10.25 13.65 12.05 12.45 14.0 12.15 L14.25 12.15 M16.6 13.8 Q13.35 13.45 10.6 15.1 8.7 16.15 7.65 17.8 6.2 19.5 5.8 22.0 5.3 25.0 5.95 27.7 6.45 29.55 7.45 31.3 L9.3 33.8 Q11.5 36.25 14.55 37.3 18.15 38.6 21.35 37.4 L23.05 36.7 23.4 36.3 Q26.85 34.05 27.75 29.65 28.65 25.0 26.05 20.5 23.6 15.9 19.0 14.4 L16.6 13.8" fill="#f49302" fill-rule="evenodd" stroke="none"/>
      <path d="M19.2 9.4 Q21.55 9.35 24.3 10.25 L24.8 10.5 Q19.9 11.15 19.9 12.85 L19.6 12.7 19.3 12.6 Q16.65 11.75 14.25 12.15 19.45 10.6 19.2 9.4" fill="#ffff2f" fill-rule="evenodd" stroke="none"/>
      <path d="M33.2 28.9 Q32.15 32.4 29.45 34.55 L27.35 35.9 26.55 36.25 26.2 36.55 26.2 36.35 Q28.0 34.5 28.95 31.55 L30.6 30.1 Q32.15 29.0 33.2 28.9" fill="#e6b100" fill-rule="evenodd" stroke="none"/>
      <path d="M5.95 27.7 Q5.3 25.0 5.8 22.0 6.2 19.5 7.65 17.8 8.7 16.15 10.6 15.1 13.35 13.45 16.6 13.8 15.1 14.85 14.2 16.2 13.2 17.5 12.7 19.3 7.4 20.4 5.95 27.7" fill="#170f2d" fill-rule="evenodd" stroke="none"/>
      <path d="M9.3 33.8 L7.45 31.3 Q6.45 29.55 5.95 27.7 7.4 20.4 12.7 19.3 L12.35 20.5 Q11.5 24.8 13.5 28.8 12.0 29.05 10.9 29.9 9.25 31.15 9.25 33.35 L9.3 33.8" fill="#4f3193" fill-rule="evenodd" stroke="none"/>
      <path d="M19.9 12.85 Q19.9 11.15 24.8 10.5 29.35 12.2 32.2 17.15 L33.4 20.05 33.65 20.9 Q34.35 24.0 33.7 27.2 32.3 28.5 30.95 29.25 30.05 29.8 29.2 30.0 30.35 24.7 27.45 19.5 24.65 14.65 19.9 12.85" fill="url(#gradient0)" fill-rule="evenodd" stroke="none"/>
      <path d="M23.4 36.3 L23.05 36.7 21.35 37.4 Q18.15 38.6 14.55 37.3 11.5 36.25 9.3 33.8 L9.25 33.35 Q9.25 31.15 10.9 29.9 12.0 29.05 13.5 28.8 L14.05 29.75 Q16.65 34.25 21.1 35.8 L23.4 36.3" fill="#af7dee" fill-rule="evenodd" stroke="none"/>
      <path d="M24.8 10.5 L24.3 10.25 Q21.55 9.35 19.2 9.4 M24.8 10.5 Q29.35 12.2 32.2 17.15 L33.4 20.05 33.65 20.9 Q34.35 24.0 33.7 27.2 L33.6 27.85 33.2 28.9 Q32.15 32.4 29.45 34.55 L27.35 35.9 26.55 36.25 26.2 36.55 25.85 36.6 23.9 38.1 Q19.6 40.6 14.5 39.0 11.35 37.85 9.05 35.4 7.65 33.95 6.6 32.1 3.75 27.05 4.9 21.6 5.8 16.55 9.55 14.05 L10.15 13.5 10.2 13.6 Q12.65 11.55 15.75 10.15 17.35 9.5 19.2 9.4 M9.55 14.05 Q9.85 13.8 10.25 13.65 M16.6 13.8 L19.0 14.4 Q23.6 15.9 26.05 20.5 28.65 25.0 27.75 29.65 26.85 34.05 23.4 36.3 M12.7 19.3 Q13.2 17.5 14.2 16.2 15.1 14.85 16.6 13.8 M12.7 19.3 L12.35 20.5 Q11.5 24.8 13.5 28.8 L14.05 29.75 Q16.65 34.25 21.1 35.8 L23.4 36.3 M26.2 36.35 L25.85 36.6" fill="none" stroke="#382510" stroke-linecap="round" stroke-linejoin="round" stroke-opacity="0.3019608" stroke-width="0.5"/>
      <path d="M32.75 31.4 Q31.7 32.05 30.45 32.55 L27.7 33.85 26.65 33.9 25.3 33.65 25.65 33.45 27.0 33.7 27.45 33.65 32.35 31.4 32.55 30.95 32.75 31.4" fill="#716044" fill-rule="evenodd" stroke="none"/>
      <path d="M25.65 33.45 L27.35 33.45 32.55 30.95 32.35 31.4 27.45 33.65 27.0 33.7 25.65 33.45" fill="#000000" fill-opacity="0.3019608" fill-rule="evenodd" stroke="none"/>
      <path d="M24.65 37.55 L24.4 37.45 25.55 35.9 26.65 33.9 27.7 33.85 26.05 35.75 24.65 37.55" fill="#ffd002" fill-rule="evenodd" stroke="none"/>
      <path d="M30.45 32.55 L30.7 33.65 27.75 36.3 24.65 37.55 26.05 35.75 27.7 33.85 30.45 32.55 M24.4 37.45 L23.05 36.2 25.3 33.65 26.65 33.9 25.55 35.9 24.4 37.45" fill="#f49302" fill-rule="evenodd" stroke="none"/>
      <path d="M32.75 31.4 L32.75 31.55 Q32.3 32.65 30.75 34.35 L29.25 35.4 27.75 36.3 30.7 33.65 30.45 32.55 Q31.7 32.05 32.75 31.4" fill="#c17402" fill-rule="evenodd" stroke="none"/>
      <path d="M27.75 36.3 L29.25 35.4 30.75 34.35 Q32.3 32.65 32.75 31.55 L32.75 31.4 M27.75 36.3 L24.65 37.55 24.4 37.45 23.05 36.2 25.3 33.65 25.65 33.45 M32.55 30.95 L32.75 31.4 M32.55 30.95 L32.35 31.4 27.45 33.65 27.0 33.7 25.65 33.45" fill="none" stroke="#382510" stroke-linecap="round" stroke-linejoin="round" stroke-opacity="0.3019608" stroke-width="0.5"/>
      <path d="M10.6 12.95 L11.35 13.8 11.85 14.05 12.15 14.4 12.05 14.35 10.8 13.9 9.95 12.85 10.6 12.95" fill="#716044" fill-rule="evenodd" stroke="none"/>
      <path d="M11.85 14.05 L11.35 13.8 10.6 12.95 11.8 13.75 11.85 14.05" fill="#000000" fill-opacity="0.3019608" fill-rule="evenodd" stroke="none"/>
      <path d="M10.8 13.9 L12.05 14.35 9.85 15.9 Q8.35 16.85 7.55 17.85 L7.4 17.65 10.8 13.9" fill="#ffd002" fill-rule="evenodd" stroke="none"/>
      <path d="M9.95 12.85 L10.8 13.9 7.4 17.65 6.65 16.8 6.45 16.3 9.95 12.85" fill="#f49302" fill-rule="evenodd" stroke="none"/>
      <path d="M12.05 14.35 L8.45 17.95 7.55 17.85 Q8.35 16.85 9.85 15.9 L12.05 14.35" fill="#bb6906" fill-rule="evenodd" stroke="none"/>
      <path d="M7.4 17.65 L7.55 17.85 8.45 17.95 12.05 14.35 10.8 16.7 8.25 18.8 6.85 18.15 6.2 17.5 6.65 16.8 7.4 17.65" fill="#382510" fill-opacity="0.3019608" fill-rule="evenodd" stroke="none"/>
      <path d="M11.85 14.05 L11.35 13.8 10.6 12.95 9.95 12.85 M12.15 14.4 L11.85 14.05 M6.65 16.8 L6.45 16.3 9.95 12.85 M7.55 17.85 L7.4 17.65 6.65 16.8 M8.45 17.95 L7.55 17.85" fill="none" stroke="#382510" stroke-linecap="round" stroke-linejoin="round" stroke-opacity="0.3019608" stroke-width="0.5"/>
      <path d="M28.8 22.9 Q27.95 20.95 26.55 19.1 25.15 17.15 25.65 15.65 26.15 14.1 27.75 14.1 29.35 14.1 31.0 15.75 32.65 17.35 33.45 19.8 34.25 22.25 33.85 24.9 33.45 27.55 31.55 26.2 29.6 24.85 28.8 22.9" fill="#382510" fill-opacity="0.3529412" fill-rule="evenodd" stroke="none"/>
      <path d="M26.35 7.25 Q25.15 7.65 23.6 9.0 L23.95 8.3 Q25.35 7.1 26.65 6.75 L26.35 7.25 M24.3 13.05 Q24.55 11.9 25.1 10.8 L26.2 11.0 Q25.85 12.35 26.0 13.6 L24.3 13.05" fill="#f1af01" fill-rule="evenodd" stroke="none"/>
      <path d="M23.6 9.0 Q25.15 7.65 26.35 7.25 L27.7 7.15 Q26.05 8.9 25.1 10.8 24.55 11.9 24.3 13.05 22.65 11.3 23.6 9.0" fill="#bb6906" fill-rule="evenodd" stroke="none"/>
      <path d="M26.35 7.25 L26.65 6.75 28.8 6.8 Q27.45 7.75 26.65 9.75 26.35 10.4 26.2 11.0 L25.1 10.8 Q26.05 8.9 27.7 7.15 L26.35 7.25" fill="#ffcc00" fill-rule="evenodd" stroke="none"/>
      <path d="M26.65 6.75 Q25.35 7.1 23.95 8.3 L23.6 9.0 Q22.65 11.3 24.3 13.05 L26.0 13.6 Q25.85 12.35 26.2 11.0 26.35 10.4 26.65 9.75 27.45 7.75 28.8 6.8 L26.65 6.75 Z" fill="none" stroke="#000000" stroke-linecap="round" stroke-linejoin="round" stroke-opacity="0.2" stroke-width="0.5"/>
      <path d="M37.15 7.8 Q39.4 10.05 39.4 13.15 39.4 16.25 37.15 18.5 34.9 20.75 31.8 20.75 28.65 20.75 26.4 18.5 24.15 16.25 24.15 13.15 24.15 10.05 26.4 7.8 28.65 5.5 31.8 5.5 34.9 5.5 37.15 7.8" fill="url(#gradient1)" fill-rule="evenodd" stroke="none"/>
      <path d="M37.15 7.8 Q39.4 10.05 39.4 13.15 39.4 16.25 37.15 18.5 34.9 20.75 31.8 20.75 28.65 20.75 26.4 18.5 24.15 16.25 24.15 13.15 24.15 10.05 26.4 7.8 28.65 5.5 31.8 5.5 34.9 5.5 37.15 7.8 Z" fill="none" stroke="#382510" stroke-linecap="round" stroke-linejoin="round" stroke-opacity="0.3019608" stroke-width="0.5"/>
      <path d="M31.3 8.3 Q33.05 8.3 34.15 9.4 35.4 10.65 35.4 12.35 35.4 14.1 34.15 15.25 33.05 16.5 31.3 16.5 29.6 16.5 28.35 15.25 27.2 14.1 27.2 12.35 27.2 10.65 28.35 9.4 29.6 8.3 31.3 8.3" fill="#c68efe" fill-opacity="0.7019608" fill-rule="evenodd" stroke="none"/>
      <path d="M35.85 11.2 Q36.9 11.2 37.6 11.9 38.3 12.6 38.3 13.65 38.3 14.65 37.6 15.4 36.9 16.1 35.85 16.1 34.8 16.1 34.1 15.4 33.4 14.65 33.4 13.65 33.4 12.6 34.1 11.9 34.8 11.2 35.85 11.2" fill="#ce9efe" fill-rule="evenodd" stroke="none"/>
      <path d="M33.35 7.35 Q34.1 7.35 34.55 7.85 35.1 8.35 35.1 9.1 35.1 9.85 34.55 10.35 34.1 10.85 33.35 10.85 32.6 10.85 32.1 10.35 31.6 9.85 31.6 9.1 31.6 8.35 32.1 7.85 32.6 7.35 33.35 7.35" fill="#d8b4fe" fill-rule="evenodd" stroke="none"/>
      <path d="M34.4 9.8 Q34.05 10.15 33.55 10.15 33.05 10.15 32.7 9.8 32.35 9.4 32.35 8.9 32.35 8.4 32.7 8.1 33.05 7.75 33.55 7.75 34.05 7.75 34.4 8.1 34.75 8.4 34.75 8.9 34.75 9.4 34.4 9.8" fill="#eef2ff" fill-rule="evenodd" stroke="none"/>
      <path d="M23.65 13.25 L24.0 15.25 23.2 18.1 Q22.15 16.8 22.45 14.55 L23.65 13.25" fill="#f1af01" fill-rule="evenodd" stroke="none"/>
      <path d="M24.0 15.25 L27.2 11.05 Q26.35 15.95 27.6 19.4 L25.15 19.3 Q23.95 18.95 23.2 18.1 L24.0 15.25" fill="#bb6906" fill-rule="evenodd" stroke="none"/>
      <path d="M23.65 13.25 Q25.05 11.95 27.2 11.05 L24.0 15.25 23.65 13.25" fill="#ffcc00" fill-rule="evenodd" stroke="none"/>
      <path d="M27.2 11.05 Q27.95 19.85 31.1 20.4 28.8 20.75 27.6 19.4 26.35 15.95 27.2 11.05" fill="#382510" fill-opacity="0.3019608" fill-rule="evenodd" stroke="none"/>
      <path d="M27.2 11.05 Q25.05 11.95 23.65 13.25 M27.6 19.4 L25.15 19.3 Q23.95 18.95 23.2 18.1 22.15 16.8 22.45 14.55 L23.65 13.25 M27.6 19.4 Q26.35 15.95 27.2 11.05 Z" fill="none" stroke="#000000" stroke-linecap="round" stroke-linejoin="round" stroke-opacity="0.2" stroke-width="0.5"/>
      <path d="M32.55 21.3 L30.3 22.05 29.8 20.4 32.35 20.2 32.55 21.3 M34.35 22.8 Q35.75 21.25 36.1 20.05 L36.6 19.75 Q36.25 21.05 35.05 22.45 L34.35 22.8" fill="#f1af01" fill-rule="evenodd" stroke="none"/>
      <path d="M30.3 22.05 L32.55 21.3 Q34.45 20.35 36.2 18.7 L36.1 20.05 Q35.75 21.25 34.35 22.8 32.1 23.75 30.3 22.05" fill="#bb6906" fill-rule="evenodd" stroke="none"/>
      <path d="M36.1 20.05 L36.2 18.7 Q34.45 20.35 32.55 21.3 L32.35 20.2 33.6 19.75 Q35.6 18.95 36.55 17.6 36.85 18.65 36.6 19.75 L36.1 20.05" fill="#ffcc00" fill-rule="evenodd" stroke="none"/>
      <path d="M30.3 22.05 Q32.1 23.75 34.35 22.8 M32.35 20.2 L29.8 20.4 30.3 22.05 M36.6 19.75 Q36.25 21.05 35.05 22.45 L34.35 22.8 M36.6 19.75 Q36.85 18.65 36.55 17.6 35.6 18.95 33.6 19.75 L32.35 20.2" fill="none" stroke="#000000" stroke-linecap="round" stroke-linejoin="round" stroke-opacity="0.2" stroke-width="0.5"/>
    </g>
    <linearGradient gradientTransform="matrix(-0.0067, -0.0105, 0.0048, -0.0031, 27.9, 19.15)" gradientUnits="userSpaceOnUse" id="gradient0" spreadMethod="pad" x1="-819.2" x2="819.2">
      <stop offset="0.6039215686274509" stop-color="#ffcc00"/>
      <stop offset="1.0" stop-color="#bb6906"/>
    </linearGradient>
    <radialGradient cx="0" cy="0" gradientTransform="matrix(0.0106, 0.0, 0.0, 0.0106, 31.7, 13.4)" gradientUnits="userSpaceOnUse" id="gradient1" r="819.2" spreadMethod="pad">
      <stop offset="0.32941176470588235" stop-color="#7957ca"/>
      <stop offset="0.8509803921568627" stop-color="#221540"/>
    </radialGradient>
    <g id="sprite0" transform="matrix(1.0, 0.0, 0.0, 1.0, 0.0, 0.0)">
      <use height="27.6" transform="matrix(1.0, 0.0, 0.0, 1.0, 0.0, 0.0)" width="50.15" xlink:href="#shape1"/>
    </g>
    <g id="shape1" transform="matrix(1.0, 0.0, 0.0, 1.0, 0.0, 0.0)">
      <path d="M22.05 18.4 L24.15 27.6 18.6 19.1 0.0 22.15 17.95 16.05 14.05 0.0 20.7 15.45 50.15 6.75 22.05 18.4" fill="#eef2ff" fill-opacity="0.5294118" fill-rule="evenodd" stroke="none"/>
    </g>
    <g id="sprite1" transform="matrix(1.0, 0.0, 0.0, 1.0, 0.0, 0.0)">
      <use height="34.8" transform="matrix(1.0, 0.0, 0.0, 1.0, 0.0, 0.0)" width="34.8" xlink:href="#shape2"/>
    </g>
    <g id="shape2" transform="matrix(1.0, 0.0, 0.0, 1.0, 0.0, 0.0)">
      <path d="M17.4 34.8 Q10.2 34.8 5.1 29.7 0.0 24.6 0.0 17.4 0.0 10.2 5.1 5.1 10.2 0.0 17.4 0.0 24.6 0.0 29.7 5.1 34.8 10.2 34.8 17.4 34.8 24.6 29.7 29.7 24.6 34.8 17.4 34.8" fill="url(#gradient2)" fill-rule="evenodd" stroke="none"/>
    </g>
    <radialGradient cx="0" cy="0" gradientTransform="matrix(0.0221, 0.0, 0.0, 0.0221, 17.4, 17.4)" gradientUnits="userSpaceOnUse" id="gradient2" r="819.2" spreadMethod="pad">
      <stop offset="0.0" stop-color="#ffffff"/>
      <stop offset="0.9882352941176471" stop-color="#ffffff" stop-opacity="0.0"/>
    </radialGradient>
    <g id="sprite2" transform="matrix(1.0, 0.0, 0.0, 1.0, 0.0, 0.0)">
      <use height="5.65" transform="matrix(1.9197, 0.3823, -0.3823, 1.9197, 2.1533, 0.0161)" width="5.8" xlink:href="#shape3"/>
    </g>
    <g id="shape3" transform="matrix(1.0, 0.0, 0.0, 1.0, 2.9, 2.8)">
      <path d="M0.55 0.9 Q0.25 1.25 -0.2 1.25 -0.65 1.25 -1.0 0.9 L-1.3 0.15 -1.0 -0.65 -0.2 -0.95 Q0.25 -0.95 0.55 -0.65 L0.9 0.15 0.55 0.9" fill="#fffffd" fill-rule="evenodd" stroke="none"/>
      <path d="M2.9 -0.2 L1.05 2.65 -1.6 2.85 -2.9 0.15 -1.7 -2.45 1.25 -2.8 2.9 -0.2 M0.55 0.9 L0.9 0.15 0.55 -0.65 Q0.25 -0.95 -0.2 -0.95 L-1.0 -0.65 -1.3 0.15 -1.0 0.9 Q-0.65 1.25 -0.2 1.25 0.25 1.25 0.55 0.9" fill="#ffffea" fill-opacity="0.43137255" fill-rule="evenodd" stroke="none"/>
    </g>
    <g id="shape4" transform="matrix(1.0, 0.0, 0.0, 1.0, -4.3, -5.25)">
      <path d="M37.15 7.8 Q39.4 10.05 39.4 13.15 39.4 16.25 37.15 18.5 L36.7 18.9 36.6 19.75 Q36.25 21.05 35.05 22.45 L34.35 22.8 34.0 22.95 34.0 23.2 Q34.1 25.2 33.7 27.2 L33.6 27.85 33.2 28.9 32.35 31.05 32.55 30.95 32.75 31.4 32.75 31.55 Q32.3 32.65 30.75 34.35 L29.25 35.4 27.75 36.3 24.75 37.55 23.9 38.1 Q19.6 40.6 14.5 39.0 11.35 37.85 9.05 35.4 7.65 33.95 6.6 32.1 3.75 27.05 4.9 21.6 5.3 19.35 6.3 17.6 L6.2 17.5 6.65 16.8 6.45 16.3 9.95 12.85 10.6 12.95 10.85 13.1 Q13.05 11.4 15.75 10.15 17.35 9.5 19.2 9.4 L23.3 9.95 23.6 9.0 23.95 8.3 Q25.35 7.1 26.65 6.75 L27.85 6.65 Q29.6 5.5 31.8 5.5 34.9 5.5 37.15 7.8 M23.2 18.1 Q23.95 18.95 25.15 19.3 L25.35 19.3 26.05 20.5 Q28.65 25.0 27.75 29.65 27.3 31.8 26.3 33.45 L25.65 33.45 25.3 33.65 23.05 36.2 23.15 36.3 21.1 35.8 Q16.65 34.25 14.05 29.75 L13.5 28.8 Q11.5 24.8 12.35 20.5 L12.7 19.3 Q13.2 17.5 14.2 16.2 15.1 14.85 16.6 13.8 L19.0 14.4 Q20.9 15.0 22.45 16.15 22.55 17.3 23.2 18.1" fill="none" stroke="#000000" stroke-linecap="round" stroke-linejoin="round" stroke-opacity="0.3019608" stroke-width="0.5"/>
    </g>
  </defs>
</svg>
