<?xml version="1.0" encoding="UTF-8" standalone="no"?>
<svg xmlns:xlink="http://www.w3.org/1999/xlink" height="440.0px" width="440.0px" xmlns="http://www.w3.org/2000/svg">
  <g transform="matrix(10.0, 0.0, 0.0, 10.0, 0.0, 0.0)">
    <use height="44.0" transform="matrix(1.0, 0.0, 0.0, 1.0, 0.0, 0.0)" width="44.0" xlink:href="#shape0"/>
    <use height="34.8" transform="matrix(-0.7258, 0.0, 0.0, 0.571, 32.65, 0.3)" width="34.8" xlink:href="#sprite0"/>
    <use height="20.95" transform="matrix(-0.7087, 0.1009, -0.1687, -0.8029, 33.4, 19.45)" width="24.45" xlink:href="#sprite1"/>
    <use height="60.8" transform="matrix(0.1119, -0.1544, 0.2046, 0.0427, 10.7, 41.0)" width="60.8" xlink:href="#sprite2"/>
    <use height="5.65" transform="matrix(0.4406, 0.0878, -0.0878, 0.4406, 19.5179, 36.1618)" width="5.8" xlink:href="#shape4"/>
  </g>
  <defs>
    <g id="shape0" transform="matrix(1.0, 0.0, 0.0, 1.0, 0.0, 0.0)">
      <path d="M44.0 44.0 L0.0 44.0 0.0 0.0 44.0 0.0 44.0 44.0" fill="#43adca" fill-opacity="0.0" fill-rule="evenodd" stroke="none"/>
      <path d="M37.25 26.4 L37.3 26.45 37.25 26.5 37.25 26.4 M37.25 31.3 L36.0 33.9 35.65 34.45 31.15 39.0 Q32.1 37.95 32.65 36.7 33.2 35.5 33.3 34.05 L35.6 31.95 Q37.15 30.75 37.25 31.3 M30.1 39.85 Q29.55 39.75 29.55 40.3 L27.0 36.95 27.2 36.85 28.1 37.75 30.1 39.85 M12.75 16.9 L14.45 19.7 14.1 20.0 11.95 16.55 11.9 16.5 13.5 14.9 12.95 15.7 12.75 16.3 12.75 16.9" fill="#aa591e" fill-rule="evenodd" stroke="none"/>
      <path d="M20.15 20.35 L17.75 19.8 15.05 19.75 14.55 19.85 14.45 19.7 12.75 16.9 14.55 16.05 16.0 16.05 17.0 16.2 17.3 16.2 19.7 16.65 20.15 20.35 M29.4 32.9 Q29.55 31.65 29.2 30.25 L29.2 30.1 31.9 30.2 31.9 30.15 33.05 30.85 33.1 30.85 33.1 30.9 33.05 31.0 33.2 31.25 33.25 32.05 33.3 32.85 33.3 34.05 Q33.2 35.5 32.65 36.7 32.1 37.95 31.15 39.0 L30.95 39.1 30.95 39.15 30.75 39.25 30.1 39.85 28.1 37.75 27.75 36.35 27.8 36.25 Q29.15 34.85 29.4 32.9 M29.05 29.7 Q28.15 26.2 25.05 23.35 L24.4 22.9 25.7 19.7 27.45 21.05 32.45 28.15 32.75 29.35 32.8 29.4 32.8 29.55 29.05 29.7 M14.1 38.3 L13.85 37.7 13.8 37.7 16.0 34.9 18.1 33.5 15.9 35.6 14.1 38.3 M6.15 24.4 L6.45 24.2 6.1 23.95 Q7.85 24.7 10.05 25.1 L10.3 25.35 10.4 25.5 10.0 25.9 Q7.75 25.5 6.15 24.4 M11.9 16.5 L11.95 16.55 11.9 16.55 11.9 16.5" fill="#ea8915" fill-rule="evenodd" stroke="none"/>
      <path d="M6.1 23.95 Q6.25 22.75 6.65 21.8 L10.35 23.3 Q10.0 24.15 10.05 25.1 7.85 24.7 6.1 23.95 M22.6 38.05 L27.0 36.95 26.15 37.45 Q24.65 38.15 22.6 38.05" fill="#efa74e" fill-rule="evenodd" stroke="none"/>
      <path d="M21.15 30.7 Q22.35 31.55 23.7 32.15 25.8 35.5 18.8 37.2 17.3 36.6 15.9 35.6 L18.1 33.5 21.15 30.7 M29.2 30.1 Q29.45 29.8 29.05 29.7 L32.8 29.55 32.8 29.4 33.35 29.65 31.9 30.15 31.9 30.2 29.2 30.1 M36.0 22.65 L37.1 25.75 35.65 27.3 Q34.1 28.95 32.75 29.35 L32.45 28.15 32.15 27.1 Q34.25 26.7 36.0 22.65 M37.45 27.8 L37.45 28.1 37.4 29.85 37.4 30.55 37.25 31.3 Q37.15 30.75 35.6 31.95 L33.3 34.05 33.3 32.85 33.25 32.05 33.2 31.25 Q35.05 29.4 36.35 28.5 36.85 28.0 37.45 27.8" fill="#884717" fill-rule="evenodd" stroke="none"/>
      <path d="M22.9 19.6 L20.3 20.4 20.15 20.35 19.7 16.65 22.85 16.55 22.9 19.6 M24.4 22.9 L24.25 20.15 25.15 18.1 25.7 19.7 24.4 22.9 M14.55 16.05 L12.75 16.9 12.75 16.3 12.95 15.7 14.55 16.05 M27.45 21.05 L29.45 22.5 Q31.2 23.8 32.15 27.1 L32.45 28.15 27.45 21.05 M33.1 30.85 L33.05 30.85 31.9 30.15 33.35 29.65 33.45 29.65 33.1 30.8 33.1 30.85 M27.2 36.85 L27.75 36.35 28.1 37.75 27.2 36.85" fill="#ef9c4b" fill-rule="evenodd" stroke="none"/>
      <path d="M37.1 25.75 L37.25 26.4 37.25 26.5 37.45 27.8 Q36.85 28.0 36.35 28.5 35.05 29.4 33.2 31.25 L33.05 31.0 33.1 30.9 33.1 30.85 33.1 30.8 33.45 29.65 33.35 29.65 32.8 29.4 32.75 29.35 Q34.1 28.95 35.65 27.3 L37.1 25.75" fill="#743914" fill-rule="evenodd" stroke="none"/>
      <path d="M15.05 19.75 Q14.85 20.65 15.05 21.6 13.9 21.05 10.3 25.35 L10.05 25.1 Q10.0 24.15 10.35 23.3 L10.6 22.9 Q10.95 22.15 11.6 21.45 12.65 20.35 14.1 20.0 L14.45 19.7 14.55 19.85 15.05 19.75" fill="#5e2f11" fill-rule="evenodd" stroke="none"/>
      <path d="M26.1 13.4 L26.25 16.2 22.9 19.6 22.85 16.55 25.1 14.35 26.1 13.4 M20.3 30.0 L20.6 30.8 21.15 30.7 18.1 33.5 16.0 34.9 13.8 37.7 13.25 37.7 13.25 37.65 15.2 35.05 20.3 30.0" fill="#963807" fill-rule="evenodd" stroke="none"/>
      <path d="M21.75 12.0 Q24.0 12.3 26.1 13.2 L26.1 13.4 25.1 14.35 24.95 13.45 21.75 12.0" fill="#ba3e0a" fill-rule="evenodd" stroke="none"/>
      <path d="M23.7 32.15 Q25.15 32.7 26.7 32.9 28.25 33.1 29.4 32.9 29.15 34.85 27.8 36.25 L27.75 36.35 27.2 36.85 27.0 36.95 22.6 38.05 21.65 37.95 18.8 37.2 Q25.8 35.5 23.7 32.15" fill="#9c4e1a" fill-rule="evenodd" stroke="none"/>
      <path d="M22.3 41.7 L22.2 41.7 Q17.85 41.1 14.1 38.3 L15.9 35.6 Q17.3 36.6 18.8 37.2 L21.65 37.95 22.6 38.05 25.05 39.65 Q22.5 39.5 22.3 41.7" fill="url(#gradient0)" fill-rule="evenodd" stroke="none"/>
      <path d="M13.25 37.65 L12.05 36.7 Q7.4 32.5 6.4 27.2 6.05 25.65 6.15 24.4 7.75 25.5 10.0 25.9 L10.15 27.55 10.8 29.6 12.15 31.95 14.25 34.3 15.2 35.05 13.25 37.65" fill="url(#gradient1)" fill-rule="evenodd" stroke="none"/>
      <path d="M29.55 40.3 Q26.65 42.2 22.3 41.7 22.5 39.5 25.05 39.65 L22.6 38.05 Q24.65 38.15 26.15 37.45 L27.0 36.95 29.55 40.3" fill="url(#gradient2)" fill-rule="evenodd" stroke="none"/>
      <path d="M6.65 21.8 Q7.15 20.1 8.45 18.8 L8.75 18.35 Q9.85 17.45 11.05 16.9 L11.9 16.55 11.95 16.55 14.1 20.0 Q12.65 20.35 11.6 21.45 10.95 22.15 10.6 22.9 L10.35 23.3 6.65 21.8" fill="url(#gradient3)" fill-rule="evenodd" stroke="none"/>
      <path d="M15.05 21.6 L15.2 22.45 16.15 25.05 17.55 27.3 Q13.6 25.25 12.15 31.95 L10.8 29.6 10.15 27.55 10.0 25.9 10.4 25.5 10.3 25.35 Q13.9 21.05 15.05 21.6" fill="url(#gradient4)" fill-rule="evenodd" stroke="none"/>
      <path d="M17.55 27.3 L19.35 29.25 20.3 30.0 15.2 35.05 14.25 34.3 12.15 31.95 Q13.6 25.25 17.55 27.3" fill="url(#gradient5)" fill-rule="evenodd" stroke="none"/>
      <path d="M25.15 18.1 L28.4 14.5 31.55 16.95 Q34.55 19.6 36.0 22.65 34.25 26.7 32.15 27.1 31.2 23.8 29.45 22.5 L27.45 21.05 25.7 19.7 25.15 18.1" fill="url(#gradient6)" fill-rule="evenodd" stroke="none"/>
      <path d="M8.75 18.35 L12.7 14.45 12.95 14.25 12.95 14.2 Q15.95 11.35 21.15 11.95 L21.4 12.0 21.75 12.0 24.95 13.45 25.1 14.35 22.85 16.55 19.7 16.65 17.3 16.2 17.0 16.2 16.0 16.05 14.55 16.05 12.95 15.7 13.5 14.9 11.9 16.5 11.9 16.55 11.05 16.9 Q9.85 17.45 8.75 18.35" fill="url(#gradient7)" fill-rule="evenodd" stroke="none"/>
      <path d="M21.75 12.0 Q24.0 12.3 26.1 13.2 L26.1 13.4 26.25 16.2 22.9 19.6 20.3 20.4 20.15 20.35 17.75 19.8 15.05 19.75 Q14.85 20.65 15.05 21.6 L15.2 22.45 16.15 25.05 17.55 27.3 19.35 29.25 20.3 30.0 20.6 30.8 21.15 30.7 Q22.35 31.55 23.7 32.15 25.15 32.7 26.7 32.9 28.25 33.1 29.4 32.9 29.55 31.65 29.2 30.25 L29.2 30.1 M29.05 29.7 Q28.15 26.2 25.05 23.35 L24.4 22.9 24.25 20.15 25.15 18.1 28.4 14.5 31.55 16.95 Q34.55 19.6 36.0 22.65 L37.1 25.75 37.25 26.4 37.3 26.45 37.25 26.5 37.45 27.8 37.45 28.1 37.4 29.85 37.4 30.55 37.25 31.3 36.0 33.9 35.65 34.45 31.15 39.0 30.95 39.1 30.95 39.15 30.75 39.25 30.1 39.85 Q29.55 39.75 29.55 40.3 26.65 42.2 22.3 41.7 L22.2 41.7 Q17.85 41.1 14.1 38.3 L13.85 37.7 13.8 37.7 13.25 37.7 13.25 37.65 12.05 36.7 Q7.4 32.5 6.4 27.2 6.05 25.65 6.15 24.4 L6.45 24.2 6.1 23.95 Q6.25 22.75 6.65 21.8 7.15 20.1 8.45 18.8 L8.75 18.35 12.7 14.45 12.95 14.25 12.95 14.2 Q15.95 11.35 21.15 11.95 L21.4 12.0 21.75 12.0 Z" fill="none" stroke="#382510" stroke-linecap="round" stroke-linejoin="round" stroke-opacity="0.4" stroke-width="0.5"/>
      <path d="M15.5 10.55 Q18.75 9.65 21.9 9.95 L22.5 10.05 Q25.5 10.1 24.35 11.95 L23.05 12.9 Q22.05 13.55 21.2 13.5 L20.4 13.25 20.25 13.2 20.2 13.1 Q17.4 10.8 12.55 11.95 L14.85 10.65 15.5 10.55 M30.2 13.95 Q30.65 14.45 30.95 15.5 31.2 16.5 30.85 17.05 30.4 17.6 29.25 17.65 28.1 17.65 27.6 17.05 L26.75 15.8 Q26.4 15.05 27.2 14.5 27.95 13.95 28.85 13.7 29.7 13.35 30.2 13.95" fill="#ffff2f" fill-opacity="0.62352943" fill-rule="evenodd" stroke="none"/>
      <path d="M32.5 16.6 Q34.25 18.0 34.25 20.0 34.25 21.9 32.5 23.3 30.75 24.7 28.3 24.7 25.8 24.7 24.05 23.3 22.3 21.9 22.3 20.0 22.3 18.0 24.05 16.6 25.8 15.2 28.3 15.2 30.75 15.2 32.5 16.6" fill="#382510" fill-opacity="0.3019608" fill-rule="evenodd" stroke="none"/>
      <path d="M31.05 7.1 L35.0 7.35 35.35 7.65 30.75 8.0 30.75 7.95 31.05 7.1 M35.7 8.45 L35.7 9.3 32.75 11.7 32.15 11.35 35.7 8.45 M32.65 14.1 L33.5 14.8 34.8 16.1 Q35.25 17.25 34.2 17.8 L31.5 18.05 31.45 17.8 31.45 17.65 31.45 17.4 32.65 14.1 M26.0 3.35 L27.3 2.6 29.45 1.35 Q30.55 1.3 30.9 2.45 L29.8 5.6 28.95 4.9 28.9 4.9 28.85 4.8 28.55 4.6 Q27.4 3.8 26.0 3.35" fill="#a04c0d" fill-rule="evenodd" stroke="none"/>
      <path d="M32.75 11.7 L32.65 14.1 31.45 17.4 30.7 15.9 30.4 15.4 Q31.25 15.25 32.05 11.3 L32.15 11.35 32.75 11.7 M30.2 19.15 Q28.85 20.7 26.8 21.8 L22.85 22.9 Q20.0 23.2 17.35 22.0 L16.8 21.7 Q15.0 20.7 13.8 19.1 12.8 17.8 12.35 16.3 L12.05 15.1 13.3 15.5 14.65 18.4 17.65 20.25 Q18.3 21.8 20.15 21.45 L20.85 21.25 21.15 20.95 27.6 19.0 30.2 19.15 M12.4 10.15 L13.55 7.7 14.05 7.85 13.35 10.75 12.1 11.05 12.4 10.15 M21.15 2.75 L23.35 2.8 23.6 2.8 25.55 3.25 26.0 3.35 Q27.4 3.8 28.55 4.6 L28.95 4.9 29.8 5.6 Q30.6 6.25 31.05 7.1 L30.75 7.95 28.75 7.1 Q25.45 3.0 21.15 2.75" fill="#696316" fill-rule="evenodd" stroke="none"/>
      <path d="M28.55 4.6 L28.85 4.8 28.9 4.9 28.95 4.9 28.55 4.6 M15.25 14.65 L15.3 14.65 15.25 14.65" fill="#b8a021" fill-rule="evenodd" stroke="none"/>
      <path d="M31.3 18.55 L30.85 19.0 30.2 19.15 27.6 19.0 27.1 18.9 26.5 18.55 Q25.7 17.75 25.85 16.55 L25.85 16.5 30.15 17.85 30.85 17.15 28.4 14.2 Q29.6 14.35 30.4 15.4 L30.7 15.9 31.45 17.4 31.45 17.65 31.45 17.8 31.3 18.55 M16.8 21.7 L14.45 22.95 13.95 22.75 Q13.2 22.45 12.95 21.75 L13.8 19.1 Q15.0 20.7 16.8 21.7 M12.05 15.1 L10.65 14.35 Q10.1 14.1 10.0 13.5 9.75 12.3 10.9 11.7 11.6 11.2 12.1 11.05 L13.35 10.75 14.05 10.6 14.15 10.7 11.3 12.0 11.25 12.0 11.5 12.9 15.25 14.65 Q14.95 15.25 13.95 15.45 L13.3 15.5 12.05 15.1 M13.6 2.8 L13.8 2.75 13.8 2.7 16.95 3.95 17.45 4.2 17.6 4.75 17.55 4.9 Q17.15 6.05 16.3 6.8 15.5 7.55 14.5 7.7 L14.4 7.8 13.3 3.8 13.6 2.8 M24.55 11.15 Q24.4 12.05 23.7 12.65 L23.05 13.1 22.35 10.75 24.55 11.15 M20.85 21.25 L20.15 21.45 Q18.3 21.8 17.65 20.25 18.9 21.05 21.2 20.9 L21.15 20.95 20.85 21.25 M31.45 17.65 L31.3 17.35 Q31.05 17.25 30.95 17.5 L30.6 18.05 30.55 18.65 30.55 19.0 30.9 18.8 31.25 18.3 31.45 17.65 M10.9 12.6 L10.8 12.2 10.2 13.0 10.2 13.65 10.45 13.95 10.75 13.65 10.9 13.0 10.9 12.6" fill="#b87d1d" fill-rule="evenodd" stroke="none"/>
      <path d="M19.9 12.0 L18.1 12.15 Q16.8 11.95 16.1 10.9 15.4 9.95 15.8 8.75 16.0 7.5 17.05 6.8 L18.1 6.4 21.4 7.8 21.7 8.5 Q21.2 8.55 20.65 9.0 L20.55 9.15 19.9 10.15 19.7 10.9 Q19.65 11.5 19.9 12.0" fill="#bbaf2b" fill-rule="evenodd" stroke="none"/>
      <path d="M19.9 10.15 L20.55 9.15 20.65 9.0 Q21.2 8.55 21.7 8.5 L22.3 8.5 22.45 8.55 22.05 10.4 19.9 10.15 M21.8 17.75 L21.8 17.8 19.55 20.15 18.9 20.1 18.9 20.15 18.3 17.35 18.45 17.2 18.75 16.95 19.4 16.8 20.85 16.95 21.45 17.4 21.8 17.75" fill="#d8ca7c" fill-rule="evenodd" stroke="none"/>
      <path d="M19.9 12.0 Q19.65 11.5 19.7 10.9 L19.9 10.15 22.05 10.4 22.45 8.55 22.5 8.55 23.95 9.4 24.0 9.4 24.0 9.45 24.1 9.65 24.4 10.05 24.4 10.2 24.5 10.3 24.55 10.8 24.6 10.85 24.55 11.05 24.55 11.15 22.35 10.75 23.05 13.1 22.0 13.35 Q21.0 13.35 20.3 12.6 L19.9 12.0 M28.15 14.25 L28.35 14.1 28.4 14.2 30.85 17.15 30.15 17.85 25.85 16.5 26.0 16.1 26.3 15.5 26.7 14.95 27.0 14.8 27.25 14.55 27.85 14.3 28.15 14.25 M24.1 9.65 L24.4 10.2 24.1 9.65 M18.3 17.35 L18.9 20.15 18.9 20.1 19.55 20.15 21.8 17.8 Q22.6 19.2 21.6 20.45 L21.3 20.9 21.15 20.95 21.2 20.9 Q18.9 21.05 17.65 20.25 L17.65 20.15 Q17.05 18.65 18.3 17.35 M14.15 10.7 L14.2 10.75 Q15.2 11.2 15.5 12.35 15.85 13.5 15.25 14.65 L11.5 12.9 11.25 12.0 11.3 12.0 14.15 10.7 M10.9 12.6 L10.9 13.0 10.75 13.65 10.45 13.95 10.2 13.65 10.2 13.0 10.8 12.2 10.9 12.6" fill="#e2b141" fill-rule="evenodd" stroke="none"/>
      <path d="M30.75 7.95 L30.75 8.0 Q30.6 8.85 30.9 9.7 31.25 10.7 32.05 11.3 31.25 15.25 30.4 15.4 29.6 14.35 28.4 14.2 29.3 12.8 29.6 11.3 L29.8 10.05 Q29.3 8.1 28.75 7.1 L30.75 7.95 M24.4 10.05 Q25.4 11.05 25.45 12.5 L25.45 12.6 Q24.1 13.7 22.0 13.35 L23.05 13.1 23.7 12.65 Q24.4 12.05 24.55 11.15 L24.55 11.05 24.6 10.85 24.55 10.8 24.5 10.3 24.4 10.2 24.4 10.05 M21.8 17.8 L21.8 17.75 21.95 17.75 24.2 17.25 Q25.1 17.0 25.85 16.55 25.7 17.75 26.5 18.55 L27.1 18.9 27.6 19.0 21.15 20.95 21.3 20.9 21.6 20.45 Q22.6 19.2 21.8 17.8 M18.45 17.2 L18.3 17.35 Q17.05 18.65 17.65 20.15 L17.65 20.25 14.65 18.4 13.3 15.5 13.95 15.45 Q14.95 15.25 15.25 14.65 L15.3 14.65 Q16.3 16.2 18.2 17.0 L18.45 17.2 M17.6 4.75 L17.55 5.05 17.55 4.9 17.6 4.75 M14.5 7.7 L14.05 10.6 13.35 10.75 14.05 7.85 14.2 7.8 14.4 7.8 14.5 7.7" fill="#7d6d1a" fill-rule="evenodd" stroke="none"/>
      <path d="M35.35 7.65 L35.7 8.45 32.15 11.35 32.05 11.3 Q31.25 10.7 30.9 9.7 30.6 8.85 30.75 8.0 L35.35 7.65 M26.8 21.8 L26.4 24.3 24.35 24.8 22.85 22.9 26.8 21.8 M13.55 7.7 L12.25 4.25 Q12.6 3.2 13.6 2.8 L13.3 3.8 14.4 7.8 14.2 7.8 14.05 7.85 13.55 7.7 M31.45 17.65 L31.25 18.3 30.9 18.8 30.55 19.0 30.55 18.65 30.6 18.05 30.95 17.5 Q31.05 17.25 31.3 17.35 L31.45 17.65" fill="#ae6916" fill-rule="evenodd" stroke="none"/>
      <path d="M31.5 18.05 L31.3 18.55 31.45 17.8 31.5 18.05" fill="#a37201" fill-rule="evenodd" stroke="none"/>
      <path d="M10.9 11.7 L11.55 10.25 12.4 10.15 12.1 11.05 Q11.6 11.2 10.9 11.7" fill="#963807" fill-rule="evenodd" stroke="none"/>
      <path d="M16.95 3.95 Q18.9 2.95 21.1 2.75 L21.15 2.75 Q25.45 3.0 28.75 7.1 29.3 8.1 29.8 10.05 L29.6 11.3 Q29.3 12.8 28.4 14.2 L28.35 14.1 28.15 14.25 27.85 14.3 27.25 14.55 27.0 14.8 26.7 14.95 26.3 15.5 26.0 16.1 25.85 16.5 25.85 16.55 Q25.1 17.0 24.2 17.25 L21.95 17.75 21.8 17.75 21.45 17.4 20.85 16.95 19.4 16.8 18.75 16.95 18.45 17.2 18.2 17.0 Q16.3 16.2 15.3 14.65 L15.25 14.65 Q15.85 13.5 15.5 12.35 15.2 11.2 14.2 10.75 L14.15 10.7 14.05 10.6 14.5 7.7 Q15.5 7.55 16.3 6.8 17.15 6.05 17.55 4.9 L17.55 5.05 17.6 4.75 17.45 4.2 16.95 3.95 M21.7 8.5 L21.4 7.8 18.1 6.4 17.05 6.8 Q16.0 7.5 15.8 8.75 15.4 9.95 16.1 10.9 16.8 11.95 18.1 12.15 L19.9 12.0 20.3 12.6 Q21.0 13.35 22.0 13.35 24.1 13.7 25.45 12.6 L25.45 12.5 Q25.4 11.05 24.4 10.05 L24.1 9.65 24.0 9.45 24.0 9.4 23.95 9.4 22.5 8.55 22.45 8.55 22.3 8.5 21.7 8.5" fill="url(#gradient8)" fill-rule="evenodd" stroke="none"/>
      <path d="M31.05 7.1 L35.0 7.35 35.35 7.65 35.7 8.45 35.7 9.3 32.75 11.7 32.65 14.1 33.5 14.8 34.8 16.1 Q35.25 17.25 34.2 17.8 L31.5 18.05 31.3 18.55 30.85 19.0 30.2 19.15 Q28.85 20.7 26.8 21.8 L26.4 24.3 24.35 24.8 22.85 22.9 Q20.0 23.2 17.35 22.0 L16.8 21.7 14.45 22.95 13.95 22.75 Q13.2 22.45 12.95 21.75 L13.8 19.1 Q12.8 17.8 12.35 16.3 L12.05 15.1 10.65 14.35 Q10.1 14.1 10.0 13.5 9.75 12.3 10.9 11.7 L11.55 10.25 12.4 10.15 13.55 7.7 12.25 4.25 Q12.6 3.2 13.6 2.8 L13.8 2.75 13.8 2.7 16.95 3.95 Q18.9 2.95 21.1 2.75 L21.15 2.75 23.35 2.8 23.6 2.8 25.55 3.25 26.0 3.35 27.3 2.6 29.45 1.35 Q30.55 1.3 30.9 2.45 L29.8 5.6 Q30.6 6.25 31.05 7.1 M28.55 4.6 L28.85 4.8 28.9 4.9 28.95 4.9 29.8 5.6 M28.55 4.6 Q27.4 3.8 26.0 3.35 M31.45 17.65 L31.45 17.4 32.65 14.1 M31.45 17.65 L31.45 17.8 31.5 18.05 M22.85 22.9 L26.8 21.8 M12.4 10.15 L12.1 11.05 Q11.6 11.2 10.9 11.7 M13.8 19.1 Q15.0 20.7 16.8 21.7" fill="none" stroke="#382510" stroke-linecap="round" stroke-linejoin="round" stroke-opacity="0.3019608" stroke-width="0.5"/>
      <path d="M31.05 7.1 L30.75 7.95 30.75 8.0 M19.9 12.0 Q19.65 11.5 19.7 10.9 L19.9 10.15 M22.5 8.55 L23.95 9.4 24.0 9.4 24.0 9.45 24.1 9.65 M22.0 13.35 Q21.0 13.35 20.3 12.6 L19.9 12.0 M28.4 14.2 Q29.6 14.35 30.4 15.4 M32.05 11.3 Q31.25 10.7 30.9 9.7 30.6 8.85 30.75 8.0 M28.4 14.2 L28.35 14.1 28.15 14.25 M26.0 16.1 L25.85 16.5 M31.45 17.4 L30.7 15.9 30.4 15.4 M24.4 10.2 L24.5 10.3 24.55 10.8 24.6 10.85 24.55 11.05 24.55 11.15 Q24.4 12.05 23.7 12.65 L23.05 13.1 22.0 13.35 M24.4 10.2 L24.1 9.65 M21.8 17.8 L21.8 17.75 21.45 17.4 M19.4 16.8 L18.75 16.95 18.45 17.2 18.3 17.35 M21.8 17.8 Q22.6 19.2 21.6 20.45 L21.3 20.9 21.15 20.95 M27.6 19.0 L27.1 18.9 26.5 18.55 Q25.7 17.75 25.85 16.55 L25.85 16.5 M17.65 20.25 Q18.3 21.8 20.15 21.45 L20.85 21.25 M13.3 15.5 L12.05 15.1 M27.6 19.0 L30.2 19.15 M32.05 11.3 L32.15 11.35 32.75 11.7 M16.95 3.95 L17.45 4.2 17.6 4.75 17.55 5.05 17.55 4.9 Q17.15 6.05 16.3 6.8 15.5 7.55 14.5 7.7 M14.05 10.6 L14.15 10.7 M14.2 10.75 Q15.2 11.2 15.5 12.35 15.85 13.5 15.25 14.65 14.95 15.25 13.95 15.45 L13.3 15.5 M17.6 4.75 L17.55 4.9 M14.4 7.8 L14.5 7.7 M14.05 7.85 L13.55 7.7 M14.4 7.8 L14.2 7.8 14.05 7.85 M13.35 10.75 L14.05 10.6 M12.1 11.05 L13.35 10.75 M17.65 20.25 L17.65 20.15 Q17.05 18.65 18.3 17.35" fill="none" stroke="#382510" stroke-linecap="round" stroke-linejoin="round" stroke-opacity="0.3019608" stroke-width="0.25"/>
    </g>
    <linearGradient gradientTransform="matrix(0.0033, 7.0E-4, -6.0E-4, 0.0029, 20.35, 38.85)" gradientUnits="userSpaceOnUse" id="gradient0" spreadMethod="pad" x1="-819.2" x2="819.2">
      <stop offset="0.0" stop-color="#efa74e"/>
      <stop offset="0.9725490196078431" stop-color="#f0ba77"/>
    </linearGradient>
    <linearGradient gradientTransform="matrix(-0.0012, -0.0033, 0.0032, -0.0012, 9.75, 28.75)" gradientUnits="userSpaceOnUse" id="gradient1" spreadMethod="pad" x1="-819.2" x2="819.2">
      <stop offset="0.0" stop-color="#efa74e"/>
      <stop offset="0.9725490196078431" stop-color="#f0ce77"/>
    </linearGradient>
    <linearGradient gradientTransform="matrix(-0.0043, 4.0E-4, -2.0E-4, -0.0028, 23.25, 39.55)" gradientUnits="userSpaceOnUse" id="gradient2" spreadMethod="pad" x1="-819.2" x2="819.2">
      <stop offset="0.0" stop-color="#ea8915"/>
      <stop offset="0.9725490196078431" stop-color="#b86810"/>
    </linearGradient>
    <linearGradient gradientTransform="matrix(-0.0014, 0.0026, -0.0032, -0.0017, 9.6, 22.2)" gradientUnits="userSpaceOnUse" id="gradient3" spreadMethod="pad" x1="-819.2" x2="819.2">
      <stop offset="0.0" stop-color="#ea8915"/>
      <stop offset="0.9725490196078431" stop-color="#b86810"/>
    </linearGradient>
    <linearGradient gradientTransform="matrix(0.0013, 0.0019, -0.0042, 0.0028, 14.05, 27.5)" gradientUnits="userSpaceOnUse" id="gradient4" spreadMethod="pad" x1="-819.2" x2="819.2">
      <stop offset="0.0" stop-color="#743c13"/>
      <stop offset="0.9882352941176471" stop-color="#4a250b"/>
    </linearGradient>
    <linearGradient gradientTransform="matrix(-0.0024, -0.0024, 0.0031, -0.0032, 14.75, 29.65)" gradientUnits="userSpaceOnUse" id="gradient5" spreadMethod="pad" x1="-819.2" x2="819.2">
      <stop offset="0.0" stop-color="#884717"/>
      <stop offset="0.9882352941176471" stop-color="#b55b1e"/>
    </linearGradient>
    <linearGradient gradientTransform="matrix(0.0021, 0.0022, -0.0029, 0.0029, 32.9, 23.0)" gradientUnits="userSpaceOnUse" id="gradient6" spreadMethod="pad" x1="-819.2" x2="819.2">
      <stop offset="0.0" stop-color="#aa591e"/>
      <stop offset="0.9882352941176471" stop-color="#cf6a25"/>
    </linearGradient>
    <linearGradient gradientTransform="matrix(-0.0048, 3.0E-4, -2.0E-4, -0.0036, 16.1, 14.95)" gradientUnits="userSpaceOnUse" id="gradient7" spreadMethod="pad" x1="-819.2" x2="819.2">
      <stop offset="0.0" stop-color="#aa591e"/>
      <stop offset="0.9882352941176471" stop-color="#cf6a25"/>
    </linearGradient>
    <linearGradient gradientTransform="matrix(0.0049, 0.0029, -0.0046, 0.0078, 24.65, 12.25)" gradientUnits="userSpaceOnUse" id="gradient8" spreadMethod="pad" x1="-819.2" x2="819.2">
      <stop offset="0.0" stop-color="#b8a021"/>
      <stop offset="0.9882352941176471" stop-color="#ebcb2a"/>
    </linearGradient>
    <g id="sprite0" transform="matrix(1.0, 0.0, 0.0, 1.0, 0.0, 0.0)">
      <use height="34.8" transform="matrix(1.0, 0.0, 0.0, 1.0, 0.0, 0.0)" width="34.8" xlink:href="#shape1"/>
    </g>
    <g id="shape1" transform="matrix(1.0, 0.0, 0.0, 1.0, 0.0, 0.0)">
      <path d="M17.4 34.8 Q10.2 34.8 5.1 29.7 0.0 24.6 0.0 17.4 0.0 10.2 5.1 5.1 10.2 0.0 17.4 0.0 24.6 0.0 29.7 5.1 34.8 10.2 34.8 17.4 34.8 24.6 29.7 29.7 24.6 34.8 17.4 34.8" fill="url(#gradient9)" fill-rule="evenodd" stroke="none"/>
    </g>
    <radialGradient cx="0" cy="0" gradientTransform="matrix(0.0221, 0.0, 0.0, 0.0221, 17.4, 17.4)" gradientUnits="userSpaceOnUse" id="gradient9" r="819.2" spreadMethod="pad">
      <stop offset="0.0" stop-color="#ffffff"/>
      <stop offset="0.9882352941176471" stop-color="#ffffff" stop-opacity="0.0"/>
    </radialGradient>
    <g id="sprite1" transform="matrix(1.0, 0.0, 0.0, 1.0, 0.0, 0.0)">
      <use height="20.95" transform="matrix(1.0, 0.0, 0.0, 1.0, 0.0, 0.0)" width="24.45" xlink:href="#shape2"/>
    </g>
    <g id="shape2" transform="matrix(1.0, 0.0, 0.0, 1.0, 0.0, 0.0)">
      <path d="M14.85 11.4 Q15.8 11.6 16.25 12.45 16.85 13.3 16.6 14.35 16.4 15.3 15.55 15.9 14.65 16.4 13.65 16.2 12.65 15.9 12.1 15.1 11.6 14.2 11.8 13.2 12.1 12.2 12.9 11.65 13.8 11.15 14.85 11.4" fill="#ffffff" fill-opacity="0.5882353" fill-rule="evenodd" stroke="none"/>
      <path d="M18.2 11.35 L20.15 11.25 18.75 12.55 Q19.05 13.8 18.8 15.05 18.5 16.35 17.65 17.3 L19.1 20.95 16.55 18.25 Q14.8 19.3 12.8 18.85 10.8 18.35 9.75 16.65 9.05 15.5 8.95 14.3 7.75 12.35 4.85 11.5 8.3 12.45 9.7 11.4 10.3 10.4 11.35 9.75 13.1 8.75 15.1 9.15 16.95 9.5 18.1 11.15 L18.2 11.35 M14.85 11.4 Q13.8 11.15 12.9 11.65 12.1 12.2 11.8 13.2 11.6 14.2 12.1 15.1 12.65 15.9 13.65 16.2 14.65 16.4 15.55 15.9 16.4 15.3 16.6 14.35 16.85 13.3 16.25 12.45 15.8 11.6 14.85 11.4" fill="#ffffff" fill-opacity="0.1764706" fill-rule="evenodd" stroke="none"/>
      <path d="M15.4 13.55 L18.1 17.55 13.35 14.65 7.05 18.5 12.75 13.55 0.0 0.0 14.25 12.25 24.45 5.95 15.4 13.55" fill="#ffffff" fill-opacity="0.5882353" fill-rule="evenodd" stroke="none"/>
    </g>
    <g id="sprite2" transform="matrix(1.0, 0.0, 0.0, 1.0, 0.0, 0.0)">
      <use height="60.8" transform="matrix(1.0, 0.0, 0.0, 1.0, 0.0, 0.0)" width="60.8" xlink:href="#shape3"/>
    </g>
    <g id="shape3" transform="matrix(1.0, 0.0, 0.0, 1.0, 0.0, 0.0)">
      <path d="M60.8 30.4 Q60.8 43.0 51.9 51.9 43.0 60.8 30.4 60.8 17.8 60.8 8.9 51.9 0.0 43.0 0.0 30.4 0.0 17.8 8.9 8.9 17.8 0.0 30.4 0.0 43.0 0.0 51.9 8.9 60.8 17.8 60.8 30.4" fill="url(#gradient10)" fill-rule="evenodd" stroke="none"/>
    </g>
    <radialGradient cx="0" cy="0" gradientTransform="matrix(0.0374, 0.0, 0.0, 0.0374, 30.4, 30.4)" gradientUnits="userSpaceOnUse" id="gradient10" r="819.2" spreadMethod="pad">
      <stop offset="0.0" stop-color="#ffffff"/>
      <stop offset="1.0" stop-color="#ffffff" stop-opacity="0.0"/>
    </radialGradient>
    <g id="shape4" transform="matrix(1.0, 0.0, 0.0, 1.0, 2.9, 2.8)">
      <path d="M0.55 0.9 Q0.25 1.25 -0.2 1.25 -0.65 1.25 -1.0 0.9 L-1.3 0.15 -1.0 -0.65 -0.2 -0.95 Q0.25 -0.95 0.55 -0.65 L0.9 0.15 0.55 0.9" fill="#ffffe6" fill-rule="evenodd" stroke="none"/>
      <path d="M2.9 -0.2 L1.05 2.65 -1.6 2.85 -2.9 0.15 -1.7 -2.45 1.25 -2.8 2.9 -0.2 M0.55 0.9 L0.9 0.15 0.55 -0.65 Q0.25 -0.95 -0.2 -0.95 L-1.0 -0.65 -1.3 0.15 -1.0 0.9 Q-0.65 1.25 -0.2 1.25 0.25 1.25 0.55 0.9" fill="#fefe30" fill-opacity="0.43137255" fill-rule="evenodd" stroke="none"/>
    </g>
  </defs>
</svg>
