<?xml version="1.0" encoding="UTF-8" standalone="no"?>
<svg xmlns:xlink="http://www.w3.org/1999/xlink" height="440.0px" width="440.0px" xmlns="http://www.w3.org/2000/svg">
  <g transform="matrix(10.0, 0.0, 0.0, 10.0, 0.0, 0.0)">
    <use height="44.0" transform="matrix(1.0, 0.0, 0.0, 1.0, 0.0, 0.0)" width="44.0" xlink:href="#shape0"/>
    <use height="30.65" transform="matrix(0.4429, 0.0, 0.0, 0.4429, 13.9, 24.9785)" width="35.35" xlink:href="#sprite0"/>
    <use height="15.95" transform="matrix(0.2674, 0.332, -0.2671, 0.5025, 31.9, 19.95)" width="13.2" xlink:href="#sprite1"/>
    <use height="15.95" transform="matrix(0.2263, 0.3551, -0.3275, 0.4726, 31.9, 18.05)" width="13.2" xlink:href="#sprite1"/>
    <use height="9.9" transform="matrix(1.0, 0.0, 0.0, 1.0, 7.9, 15.0)" width="9.4" xlink:href="#shape3"/>
    <use height="165.0" transform="matrix(0.0096, 0.0271, -0.0597, 0.0419, 18.0341, 16.0625)" width="165.0" xlink:href="#sprite2"/>
    <use height="15.95" transform="matrix(0.4439, -0.105, 0.4097, 0.5434, 15.35, 17.65)" width="13.2" xlink:href="#sprite1"/>
    <use height="15.95" transform="matrix(0.4248, -0.1806, 0.4783, 0.4664, 12.7, 19.0)" width="13.2" xlink:href="#sprite1"/>
    <use height="15.95" transform="matrix(0.2457, -0.2588, 0.3871, 0.4717, 12.65, 19.65)" width="13.2" xlink:href="#sprite1"/>
    <use height="8.4" transform="matrix(1.0, 0.0, 0.0, 1.0, 13.75, 17.6)" width="10.95" xlink:href="#shape5"/>
    <use height="125.0" transform="matrix(-0.0271, -0.0275, -0.0406, 0.0471, 33.3266, 14.0733)" width="509.3" xlink:href="#sprite3"/>
    <use height="101.2" transform="matrix(-0.0355, -0.032, -0.0333, 0.0402, 28.7287, 15.005)" width="385.2" xlink:href="#sprite4"/>
    <use height="166.35" transform="matrix(0.0177, -0.0249, 0.0235, 0.0252, 30.3641, 18.3726)" width="340.6" xlink:href="#sprite5"/>
    <use height="125.0" transform="matrix(-0.0053, -0.0358, -0.0427, 0.0023, 35.7609, 21.4859)" width="509.3" xlink:href="#sprite3"/>
    <use height="101.2" transform="matrix(-0.0305, -0.0202, 0.0279, -0.0462, 20.2979, 21.3159)" width="385.2" xlink:href="#sprite4"/>
    <use height="166.35" transform="matrix(-0.037, -0.0187, -0.0171, 0.0288, 25.0289, 13.8541)" width="340.6" xlink:href="#sprite5"/>
    <use height="18.6" transform="matrix(1.0, 0.0, 0.0, 1.0, 18.6, 13.3)" width="15.35" xlink:href="#shape9"/>
    <use height="166.35" transform="matrix(-0.0802, -0.0381, 0.0696, -0.0488, 28.2882, 19.8615)" width="192.7" xlink:href="#sprite6"/>
    <use height="166.35" transform="matrix(-0.0152, -0.0314, -0.0358, 0.0079, 32.9808, 13.4062)" width="340.6" xlink:href="#sprite5"/>
    <use height="40.0" transform="matrix(1.0, 0.0, 0.0, 1.0, 7.05, 2.75)" width="30.95" xlink:href="#shape11"/>
  </g>
  <defs>
    <g id="shape0" transform="matrix(1.0, 0.0, 0.0, 1.0, 0.0, 0.0)">
      <path d="M44.0 44.0 L0.0 44.0 0.0 0.0 44.0 0.0 44.0 44.0" fill="#43adca" fill-opacity="0.0" fill-rule="evenodd" stroke="none"/>
      <path d="M14.4 17.85 Q16.2 17.85 17.3 19.15 18.35 20.45 18.1 22.3 17.85 24.05 16.4 25.25 14.95 26.45 13.2 26.4 11.35 26.3 10.3 25.0 9.2 23.7 9.5 21.95 9.7 20.15 11.15 18.95 12.6 17.75 14.4 17.85" fill="url(#gradient0)" fill-rule="evenodd" stroke="none"/>
      <path d="M30.15 19.95 L30.5 20.2 30.05 20.05 30.15 19.95" fill="#444444" fill-rule="evenodd" stroke="none"/>
      <path d="M30.15 19.95 L30.05 20.05 30.5 20.2 Q31.75 21.3 32.6 22.6 34.0 24.55 34.4 27.1 35.4 32.2 32.3 36.55 L32.2 36.7 32.15 36.75 31.15 38.0 30.8 38.35 29.3 39.7 Q26.75 41.6 23.3 42.25 L20.0 42.5 Q16.3 42.3 13.1 40.25 11.0 38.95 9.65 37.15 8.0 34.95 7.5 32.1 L7.4 31.4 Q7.15 29.55 7.45 27.85 7.65 26.5 8.2 25.2 8.8 23.8 9.8 22.5 10.75 21.15 11.9 20.15 14.55 17.85 18.2 17.1 L18.65 17.0 18.85 17.0 22.35 16.8 Q25.45 17.0 28.2 18.55 L28.9 19.0 30.15 19.95 M26.5 32.85 Q28.1 30.9 27.7 28.6 27.55 27.6 27.0 26.8 L26.25 26.3 Q23.65 24.8 20.45 25.5 17.2 26.0 15.3 28.3 L14.6 29.35 Q14.4 30.15 14.6 31.05 15.0 33.35 17.2 34.55 19.5 35.8 22.2 35.3 L23.9 34.8 Q25.45 34.15 26.5 32.85" fill="url(#gradient1)" fill-rule="evenodd" stroke="none"/>
      <path d="M30.5 20.2 L30.15 19.95 M30.5 20.2 Q31.75 21.3 32.6 22.6 34.0 24.55 34.4 27.1 35.4 32.2 32.3 36.55 M31.15 38.0 L30.8 38.35 M29.3 39.7 Q26.75 41.6 23.3 42.25 L20.0 42.5 Q16.3 42.3 13.1 40.25 11.0 38.95 9.65 37.15 8.0 34.95 7.5 32.1 L7.4 31.4 Q7.15 29.55 7.45 27.85 7.65 26.5 8.2 25.2 8.8 23.8 9.8 22.5 10.75 21.15 11.9 20.15 14.55 17.85 18.2 17.1 L18.65 17.0 18.85 17.0 22.35 16.8 Q25.45 17.0 28.2 18.55 L28.9 19.0 30.15 19.95 M31.15 38.0 L32.15 36.75 32.2 36.7" fill="none" stroke="#382510" stroke-linecap="round" stroke-linejoin="round" stroke-opacity="0.3019608" stroke-width="0.7000000000000001"/>
      <path d="M32.3 36.55 L32.2 36.7 31.15 38.0 M30.8 38.35 L29.3 39.7" fill="none" stroke="#382510" stroke-linecap="round" stroke-linejoin="round" stroke-opacity="0.101960786" stroke-width="0.4"/>
    </g>
    <radialGradient cx="0" cy="0" gradientTransform="matrix(0.0046, -0.0038, 0.0034, 0.0041, 13.8, 22.1)" gradientUnits="userSpaceOnUse" id="gradient0" r="819.2" spreadMethod="pad">
      <stop offset="0.00392156862745098" stop-color="#e0fafc"/>
      <stop offset="1.0" stop-color="#e5dcdc" stop-opacity="0.0"/>
    </radialGradient>
    <radialGradient cx="0" cy="0" gradientTransform="matrix(0.0288, 0.0, 0.0, 0.0288, 14.0, 21.8)" gradientUnits="userSpaceOnUse" id="gradient1" r="819.2" spreadMethod="pad">
      <stop offset="0.0" stop-color="#36434a"/>
      <stop offset="0.8705882352941177" stop-color="#111617"/>
      <stop offset="1.0" stop-color="#344047"/>
    </radialGradient>
    <g id="sprite0" transform="matrix(1.0, 0.0, 0.0, 1.0, 0.0, 0.5)">
      <use height="30.65" transform="matrix(1.0, 0.0, 0.0, 1.0, 0.0, -0.5)" width="35.35" xlink:href="#shape1"/>
    </g>
    <g id="shape1" transform="matrix(1.0, 0.0, 0.0, 1.0, 0.0, 0.5)">
      <path d="M3.45 17.2 Q4.95 19.45 7.7 21.0 9.1 21.8 10.7 22.3 11.7 27.15 17.8 30.05 12.55 30.55 8.0 28.1 2.7 20.25 3.45 17.2" fill="#45584c" fill-rule="evenodd" stroke="none"/>
      <path d="M22.7 21.65 Q26.3 20.1 28.6 17.1 32.3 12.8 31.35 7.65 30.85 5.4 29.65 3.4 34.15 6.65 35.1 11.85 36.05 16.85 33.3 21.25 L29.25 19.85 31.05 24.15 Q28.85 26.4 26.15 27.8 27.85 23.8 22.7 21.65" fill="#7b8f78" fill-rule="evenodd" stroke="none"/>
      <path d="M22.7 21.65 Q27.85 23.8 26.15 27.8 23.55 29.15 20.35 29.7 L17.8 30.05 Q11.7 27.15 10.7 22.3 L18.85 22.75 Q20.95 22.4 22.7 21.65 M31.05 24.15 L29.25 19.85 33.3 21.25 34.55 25.65 31.05 24.15" fill="#567161" fill-rule="evenodd" stroke="none"/>
      <path d="M1.75 9.3 Q1.4 11.1 1.75 13.1 L1.85 13.4 Q2.35 15.6 3.45 17.2 2.7 20.25 8.0 28.1 L7.2 27.75 Q1.3 24.45 0.2 18.35 -0.65 13.55 1.75 9.3" fill="#38453d" fill-rule="evenodd" stroke="none"/>
      <path d="M29.65 3.4 Q30.85 5.4 31.35 7.65 32.3 12.8 28.6 17.1 26.3 20.1 22.7 21.65 M29.65 3.4 L28.05 2.35 Q22.25 -0.95 15.0 0.4 7.7 1.8 3.4 7.0 2.4 8.1 1.75 9.3 1.4 11.1 1.75 13.1 L1.85 13.4 Q2.35 15.6 3.45 17.2 4.95 19.45 7.7 21.0 9.1 21.8 10.7 22.3 L18.85 22.75 Q20.95 22.4 22.7 21.65" fill="none" stroke="#352a1d" stroke-linecap="round" stroke-linejoin="round" stroke-opacity="0.3019608" stroke-width="1.0"/>
    </g>
    <g id="sprite1" transform="matrix(1.0, 0.0, 0.0, 1.0, 0.0, 0.0)">
      <use height="15.95" transform="matrix(1.0, 0.0, 0.0, 1.0, 0.0, 0.0)" width="13.2" xlink:href="#shape2"/>
    </g>
    <g id="shape2" transform="matrix(1.0, 0.0, 0.0, 1.0, 0.0, 0.0)">
      <path d="M11.1 0.3 Q11.25 2.4 11.05 4.2 10.7 7.05 9.45 9.3 L4.85 8.75 9.45 9.3 Q7.95 11.8 5.2 13.5 3.25 14.7 0.65 15.55 L0.0 15.25 2.95 11.45 4.45 9.5 4.8 8.8 4.85 8.75 6.65 5.35 9.45 0.0 11.1 0.3 M6.65 5.35 L11.05 4.2 6.65 5.35 M2.95 11.45 L5.2 13.5 2.95 11.45" fill="#aca78d" fill-rule="evenodd" stroke="none"/>
      <path d="M11.1 0.3 L11.4 0.35 13.0 1.7 13.15 3.65 13.2 4.25 Q13.05 7.3 11.75 9.6 10.8 11.2 9.3 12.45 L6.3 14.45 5.2 13.5 6.3 14.45 Q4.0 15.65 1.5 15.95 L0.65 15.55 Q3.25 14.7 5.2 13.5 7.95 11.8 9.45 9.3 10.7 7.05 11.05 4.2 11.25 2.4 11.1 0.3 M13.15 3.65 L11.05 4.2 13.15 3.65 M11.75 9.6 L9.45 9.3 11.75 9.6" fill="#8e8a74" fill-rule="evenodd" stroke="none"/>
      <path d="M11.1 0.3 L11.4 0.35 13.0 1.7 13.15 3.65 13.2 4.25 Q13.05 7.3 11.75 9.6 10.8 11.2 9.3 12.45 L6.3 14.45 6.55 14.7 M11.05 4.2 L13.15 3.65 M9.45 9.3 L11.75 9.6 M0.65 15.55 L0.0 15.25 2.95 11.45 4.45 9.5 4.8 8.8 4.85 8.75 6.65 5.35 9.45 0.0 11.1 0.3 M4.85 8.75 L9.45 9.3 M5.2 13.5 L6.3 14.45 Q4.0 15.65 1.5 15.95 L0.65 15.55 M5.2 13.5 L2.95 11.45 M11.05 4.2 L6.65 5.35" fill="none" stroke="#000000" stroke-linecap="round" stroke-linejoin="round" stroke-opacity="0.2" stroke-width="0.05"/>
    </g>
    <g id="shape3" transform="matrix(1.0, 0.0, 0.0, 1.0, -7.9, -15.0)">
      <path d="M13.0 20.75 L13.55 21.25 13.55 22.05 13.0 22.6 12.2 22.55 11.65 22.0 Q11.5 21.6 11.65 21.25 11.85 20.85 12.25 20.7 L13.0 20.75" fill="#ffffff" fill-rule="evenodd" stroke="none"/>
      <path d="M13.0 20.75 L12.25 20.7 Q11.85 20.85 11.65 21.25 11.5 21.6 11.65 22.0 L12.2 22.55 13.0 22.6 13.55 22.05 13.55 21.25 13.0 20.75 M14.4 20.95 L15.15 21.05 14.55 21.5 14.35 22.5 13.7 23.3 14.0 24.9 13.2 23.6 11.65 23.55 Q10.9 23.25 10.55 22.45 L10.45 21.45 Q10.1 20.55 9.0 20.0 10.3 20.65 10.95 20.35 L11.75 19.8 Q12.5 19.5 13.3 19.8 14.0 20.15 14.35 20.9 L14.4 20.95" fill="#ffffff" fill-opacity="0.3019608" fill-rule="evenodd" stroke="none"/>
      <path d="M13.1 21.65 L13.9 23.45 12.2 21.9 9.35 23.0 12.05 21.45 7.9 15.0 12.75 21.0 17.3 19.25 13.1 21.65" fill="#ffffff" fill-rule="evenodd" stroke="none"/>
    </g>
    <g id="sprite2" transform="matrix(1.0, 0.0, 0.0, 1.0, 82.5, 82.5)">
      <use height="165.0" transform="matrix(1.0, 0.0, 0.0, 1.0, -82.5, -82.5)" width="165.0" xlink:href="#shape4"/>
    </g>
    <g id="shape4" transform="matrix(1.0, 0.0, 0.0, 1.0, 82.5, 82.5)">
      <path d="M58.35 -58.35 Q82.5 -34.2 82.5 0.0 82.5 34.25 58.35 58.35 34.25 82.5 0.0 82.5 -34.2 82.5 -58.35 58.35 -82.5 34.25 -82.5 0.0 -82.5 -34.2 -58.35 -58.35 -34.2 -82.5 0.0 -82.5 34.25 -82.5 58.35 -58.35" fill="url(#gradient2)" fill-rule="evenodd" stroke="none"/>
    </g>
    <radialGradient cx="0" cy="0" gradientTransform="matrix(0.1022, 0.0, 0.0, 0.1022, 0.0, 0.0)" gradientUnits="userSpaceOnUse" id="gradient2" r="819.2" spreadMethod="pad">
      <stop offset="0.5058823529411764" stop-color="#e8e2b5"/>
      <stop offset="1.0" stop-color="#e6d080" stop-opacity="0.0"/>
    </radialGradient>
    <g id="shape5" transform="matrix(1.0, 0.0, 0.0, 1.0, -13.75, -17.6)">
      <path d="M17.7 18.45 L18.15 17.8 24.7 24.8 22.45 25.9 21.65 25.7 21.65 25.55 21.05 26.0 20.45 25.9 18.35 22.05 17.8 19.85 13.75 18.8 15.4 17.6 17.7 18.45" fill="#000000" fill-opacity="0.5019608" fill-rule="evenodd" stroke="none"/>
    </g>
    <g id="sprite3" transform="matrix(1.0, 0.0, 0.0, 1.0, 6.3, 106.05)">
      <use height="125.0" transform="matrix(1.0, 0.0, 0.0, 1.0, -6.3, -106.05)" width="509.3" xlink:href="#shape6"/>
    </g>
    <g id="shape6" transform="matrix(1.0, 0.0, 0.0, 1.0, 6.3, 106.05)">
      <path d="M-5.25 -103.3 L-6.2 -104.25 -6.3 -106.05 -5.25 -103.3" fill="url(#gradient3)" fill-rule="evenodd" stroke="none"/>
      <path d="M58.4 -54.55 Q64.85 -62.3 70.45 -70.65 L76.35 -72.0 97.75 -76.05 Q91.1 -63.55 81.0 -51.6 102.5 -65.2 117.5 -79.7 L160.85 -87.2 164.4 -87.95 144.8 -62.7 179.9 -88.85 Q383.45 -108.45 426.25 -84.1 469.0 -59.8 497.05 -35.0 480.2 -46.5 456.3 -46.15 430.75 -45.85 363.85 -34.05 297.0 -22.25 181.2 2.15 L151.15 -16.7 170.0 4.25 Q138.15 10.4 104.8 18.2 90.1 -6.8 72.35 -29.9 L72.25 -30.0 Q277.05 -77.6 372.4 -77.9 L329.65 -80.5 Q271.85 -83.9 65.4 -40.2 61.3 -47.05 58.4 -54.55" fill="url(#gradient4)" fill-rule="evenodd" stroke="none"/>
      <path d="M65.4 -40.2 Q271.85 -83.9 329.65 -80.5 L372.4 -77.9 Q277.05 -77.6 72.25 -30.0 68.45 -34.95 65.4 -40.2" fill="url(#gradient5)" fill-rule="evenodd" stroke="none"/>
      <path d="M70.45 -70.65 Q64.85 -62.3 58.4 -54.55 M104.8 18.2 Q138.15 10.4 170.0 4.25 L151.15 -16.7 181.2 2.15 Q297.0 -22.25 363.85 -34.05 430.75 -45.85 456.3 -46.15 480.2 -46.5 497.05 -35.0 469.0 -59.8 426.25 -84.1 383.45 -108.45 179.9 -88.85 L144.8 -62.7 164.4 -87.95 M117.5 -79.7 Q102.5 -65.2 81.0 -51.6 91.1 -63.55 97.75 -76.05" fill="none" stroke="#000000" stroke-linecap="round" stroke-linejoin="miter" stroke-miterlimit="10.0" stroke-opacity="0.5019608" stroke-width="1.5"/>
    </g>
    <linearGradient gradientTransform="matrix(0.2762, 0.0, 0.0, 0.0348, 265.5, -62.9)" gradientUnits="userSpaceOnUse" id="gradient3" spreadMethod="pad" x1="-819.2" x2="819.2">
      <stop offset="0.0" stop-color="#050403"/>
      <stop offset="1.0" stop-color="#272e1f"/>
    </linearGradient>
    <linearGradient gradientTransform="matrix(0.2762, 0.0, 0.0, 0.0348, 265.5, -62.9)" gradientUnits="userSpaceOnUse" id="gradient4" spreadMethod="pad" x1="-819.2" x2="819.2">
      <stop offset="0.0" stop-color="#050403"/>
      <stop offset="1.0" stop-color="#354a4a"/>
    </linearGradient>
    <linearGradient gradientTransform="matrix(0.2762, 0.0, 0.0, 0.0348, 265.5, -62.9)" gradientUnits="userSpaceOnUse" id="gradient5" spreadMethod="pad" x1="-819.2" x2="819.2">
      <stop offset="0.0" stop-color="#0b0c08"/>
      <stop offset="1.0" stop-color="#5e8080"/>
    </linearGradient>
    <g id="sprite4" transform="matrix(1.0, 0.0, 0.0, 1.0, -114.65, 91.5)">
      <use height="101.2" transform="matrix(1.0, 0.0, 0.0, 1.0, 114.65, -91.5)" width="385.2" xlink:href="#shape7"/>
    </g>
    <g id="shape7" transform="matrix(1.0, 0.0, 0.0, 1.0, -114.65, 91.5)">
      <path d="M136.2 -32.15 L136.0 -32.75 133.5 -40.05 302.85 -49.85 Q366.55 -53.6 433.4 -44.55 346.9 -53.4 136.2 -32.15" fill="url(#gradient6)" fill-rule="evenodd" stroke="none"/>
      <path d="M133.5 -40.05 Q126.25 -59.9 115.4 -77.7 122.25 -84.15 127.8 -90.75 L165.6 -89.5 144.8 -62.7 179.9 -88.85 Q411.05 -77.4 491.8 -34.35 L499.1 -30.2 Q464.3 -30.15 428.15 -28.25 L427.4 -28.2 Q311.45 -22.15 181.2 2.15 L151.15 -16.7 170.0 4.25 146.65 8.95 Q142.85 -11.7 136.2 -32.15 346.9 -53.4 433.4 -44.55 366.55 -53.6 302.85 -49.85 L133.5 -40.05 M433.4 -44.55 L460.7 -40.35 Q449.1 -42.95 433.4 -44.55" fill="url(#gradient7)" fill-rule="evenodd" stroke="none"/>
      <path d="M115.4 -77.7 Q122.25 -84.15 127.8 -90.75 L165.6 -89.5 144.8 -62.7 179.9 -88.85 Q411.05 -77.4 491.8 -34.35 L499.1 -30.2 Q464.3 -30.15 428.15 -28.25 L427.4 -28.2 Q311.45 -22.15 181.2 2.15 L151.15 -16.7 170.0 4.25 146.65 8.95" fill="none" stroke="#000000" stroke-linecap="round" stroke-linejoin="round" stroke-opacity="0.5019608" stroke-width="1.5"/>
    </g>
    <linearGradient gradientTransform="matrix(0.2762, 0.0, 0.0, 0.0348, 265.5, -62.9)" gradientUnits="userSpaceOnUse" id="gradient6" spreadMethod="pad" x1="-819.2" x2="819.2">
      <stop offset="0.0" stop-color="#070705"/>
      <stop offset="1.0" stop-color="#373f2b"/>
    </linearGradient>
    <linearGradient gradientTransform="matrix(0.2762, 0.0, 0.0, 0.0348, 265.5, -62.9)" gradientUnits="userSpaceOnUse" id="gradient7" spreadMethod="pad" x1="-819.2" x2="819.2">
      <stop offset="0.0" stop-color="#030201"/>
      <stop offset="1.0" stop-color="#131919"/>
    </linearGradient>
    <g id="sprite5" transform="matrix(1.0, 0.0, 0.0, 1.0, 22.05, 106.05)">
      <use height="166.35" transform="matrix(1.0, 0.0, 0.0, 1.0, -22.05, -106.05)" width="340.6" xlink:href="#shape8"/>
    </g>
    <g id="shape8" transform="matrix(1.0, 0.0, 0.0, 1.0, 22.05, 106.05)">
      <path d="M33.95 -20.95 L99.05 52.65 Q52.3 22.2 23.5 -19.95 20.45 23.3 56.65 60.3 11.45 20.0 10.9 -19.55 -1.15 -4.1 20.15 40.3 -6.55 7.85 -2.45 -33.25 -24.65 -43.75 -20.85 -11.55 -26.85 -45.25 -3.25 -49.7 -4.7 -69.4 -6.3 -106.05 5.75 -73.9 9.7 -41.6 9.95 -53.35 19.0 -80.0 19.65 -80.2 20.0 -80.55 L20.65 -82.05 20.15 -83.3 25.6 -98.45 Q24.75 -76.55 15.3 -42.25 29.55 -60.95 55.4 -82.2 51.0 -56.0 37.2 -34.55 L34.25 -30.2 33.05 -28.6 28.8 -22.1 33.95 -20.95" fill="url(#gradient8)" fill-rule="evenodd" stroke="none"/>
      <path d="M33.95 -20.95 L28.8 -22.1 33.05 -28.6 34.25 -30.2 39.25 -34.6 121.65 -30.65 33.95 -20.95" fill="url(#gradient9)" fill-rule="evenodd" stroke="none"/>
      <path d="M39.25 -34.6 Q66.3 -59.15 82.55 -91.4 L104.5 -91.2 Q97.1 -70.7 81.0 -51.6 110.6 -70.3 127.8 -90.75 L165.6 -89.5 144.8 -62.7 179.9 -88.85 Q233.2 -90.5 286.0 -78.75 L317.8 -71.25 315.7 -70.15 Q314.3 -69.25 312.15 -67.2 314.15 -47.45 290.45 -28.1 281.65 -20.9 269.35 -13.85 L264.9 -14.3 Q248.6 -14.3 214.0 -7.3 192.8 -3.0 179.65 1.15 L151.15 -16.7 169.9 4.15 162.6 5.7 Q130.25 12.1 96.35 20.15 67.85 -12.35 33.95 -20.95 L121.65 -30.65 39.25 -34.6" fill="url(#gradient10)" fill-rule="evenodd" stroke="none"/>
      <path d="M39.25 -34.6 Q66.3 -59.15 82.55 -91.4 L104.5 -91.2 Q97.1 -70.7 81.0 -51.6 110.6 -70.3 127.8 -90.75 L165.6 -89.5 144.8 -62.7 179.9 -88.85 Q233.2 -90.5 286.0 -78.75 L317.8 -71.25 M179.65 1.15 L151.15 -16.7 169.9 4.15 M162.6 5.7 Q130.25 12.1 96.35 20.15 67.85 -12.35 33.95 -20.95" fill="none" stroke="#000000" stroke-linecap="round" stroke-linejoin="round" stroke-opacity="0.5019608" stroke-width="1.5"/>
    </g>
    <linearGradient gradientTransform="matrix(0.2762, 0.0, 0.0, 0.0348, 265.5, -62.9)" gradientUnits="userSpaceOnUse" id="gradient8" spreadMethod="pad" x1="-819.2" x2="819.2">
      <stop offset="0.0" stop-color="#050403"/>
      <stop offset="1.0" stop-color="#272e1f"/>
    </linearGradient>
    <linearGradient gradientTransform="matrix(0.2762, 0.0, 0.0, 0.0348, 265.5, -62.9)" gradientUnits="userSpaceOnUse" id="gradient9" spreadMethod="pad" x1="-819.2" x2="819.2">
      <stop offset="0.0" stop-color="#0b0c08"/>
      <stop offset="1.0" stop-color="#3f5250"/>
    </linearGradient>
    <linearGradient gradientTransform="matrix(0.2839, 0.0, 0.0, 0.0681, 266.5, -35.65)" gradientUnits="userSpaceOnUse" id="gradient10" spreadMethod="pad" x1="-819.2" x2="819.2">
      <stop offset="0.0" stop-color="#050403"/>
      <stop offset="1.0" stop-color="#2b3b3b"/>
    </linearGradient>
    <g id="shape9" transform="matrix(1.0, 0.0, 0.0, 1.0, -18.6, -13.3)">
      <path d="M27.0 31.9 L25.9 31.3 23.35 25.25 18.75 19.6 Q18.05 17.7 20.75 13.85 L21.8 13.6 26.4 13.45 Q18.5 15.2 20.9 19.8 L23.65 25.4 25.0 28.15 25.1 28.4 27.0 31.85 27.0 31.9" fill="#131a19" fill-rule="evenodd" stroke="none"/>
      <path d="M27.0 31.9 L27.0 31.85 Q31.55 24.7 30.55 14.55 L31.75 15.15 32.05 15.35 33.7 18.15 Q34.4 22.3 32.95 25.55 L30.9 28.6 30.4 29.15 28.75 30.6 28.3 31.0 27.05 31.9 27.0 31.9" fill="#405959" fill-rule="evenodd" stroke="none"/>
      <path d="M27.0 31.85 L25.1 28.4 25.0 28.15 23.65 25.4 20.9 19.8 Q18.5 15.2 26.4 13.45 28.45 13.7 30.55 14.55 31.55 24.7 27.0 31.85" fill="url(#gradient11)" fill-rule="evenodd" stroke="none"/>
      <path d="M26.4 13.45 L21.8 13.6 20.75 13.85 Q18.05 17.7 18.75 19.6 L23.35 25.25 25.9 31.3 27.0 31.9 M26.4 13.45 Q28.45 13.7 30.55 14.55 L31.75 15.15 32.05 15.35 33.7 18.15 Q34.4 22.3 32.95 25.55 L30.9 28.6 M30.4 29.15 L28.75 30.6 28.3 31.0 M27.05 31.9 L27.0 31.9" fill="none" stroke="#000000" stroke-linecap="round" stroke-linejoin="round" stroke-opacity="0.3019608" stroke-width="0.05"/>
      <path d="M26.4 24.25 L26.85 24.75 27.0 25.1 Q26.65 24.3 26.1 24.8 26.2 23.6 26.4 24.25" fill="#0f1312" fill-rule="evenodd" stroke="none"/>
      <path d="M26.35 22.8 L26.4 24.25 Q26.2 23.6 26.1 24.8 26.1 23.4 26.35 22.8" fill="#455c5c" fill-rule="evenodd" stroke="none"/>
      <path d="M26.4 24.25 L26.35 22.8 Q26.7 23.05 26.85 24.0 L27.0 25.1 26.85 24.75 26.4 24.25" fill="url(#gradient12)" fill-rule="evenodd" stroke="none"/>
      <path d="M31.35 26.2 Q31.75 25.35 32.05 25.55 32.2 24.55 31.95 25.2 L31.5 25.85 31.35 26.2" fill="#0f1312" fill-rule="evenodd" stroke="none"/>
      <path d="M31.95 25.2 Q32.2 24.55 32.05 25.55 L32.3 23.8 31.95 25.2" fill="#455c5c" fill-rule="evenodd" stroke="none"/>
      <path d="M31.35 26.2 L31.5 25.85 31.95 25.2 32.3 23.8 Q31.95 24.2 31.7 25.15 L31.35 26.2" fill="url(#gradient13)" fill-rule="evenodd" stroke="none"/>
    </g>
    <linearGradient gradientTransform="matrix(-0.0037, 0.0075, -0.0081, -0.004, 30.5, 19.25)" gradientUnits="userSpaceOnUse" id="gradient11" spreadMethod="pad" x1="-819.2" x2="819.2">
      <stop offset="0.0" stop-color="#050403"/>
      <stop offset="1.0" stop-color="#354a4a"/>
    </linearGradient>
    <linearGradient gradientTransform="matrix(-0.0161, 0.0108, -0.0059, -0.0085, 36.65, 19.3)" gradientUnits="userSpaceOnUse" id="gradient12" spreadMethod="pad" x1="-819.2" x2="819.2">
      <stop offset="0.23921568627450981" stop-color="#050403"/>
      <stop offset="1.0" stop-color="#2e4141"/>
    </linearGradient>
    <linearGradient gradientTransform="matrix(0.009, 0.0034, 0.0059, -0.0102, 25.85, 24.75)" gradientUnits="userSpaceOnUse" id="gradient13" spreadMethod="pad" x1="-819.2" x2="819.2">
      <stop offset="0.23921568627450981" stop-color="#050403"/>
      <stop offset="1.0" stop-color="#2e4141"/>
    </linearGradient>
    <g id="sprite6" transform="matrix(1.0, 0.0, 0.0, 1.0, 22.05, 106.05)">
      <use height="166.35" transform="matrix(1.0, 0.0, 0.0, 1.0, -22.05, -106.05)" width="192.7" xlink:href="#shape10"/>
    </g>
    <g id="shape10" transform="matrix(1.0, 0.0, 0.0, 1.0, 22.05, 106.05)">
      <path d="M33.95 -20.95 L99.05 52.65 Q52.3 22.2 23.5 -19.95 20.45 23.3 56.65 60.3 11.45 20.0 10.9 -19.55 -1.15 -4.1 20.15 40.3 -6.55 7.85 -2.45 -33.25 -24.65 -43.75 -20.85 -11.55 -26.85 -45.25 -3.25 -49.7 -4.7 -69.4 -6.3 -106.05 5.75 -73.9 9.7 -41.6 9.95 -53.35 19.0 -80.0 19.65 -80.2 20.0 -80.55 L20.65 -82.05 20.15 -83.3 25.6 -98.45 Q24.75 -76.55 15.3 -42.25 29.55 -60.95 55.4 -82.2 51.0 -56.0 37.2 -34.55 L34.25 -30.2 33.05 -28.6 28.8 -22.1 33.95 -20.95" fill="url(#gradient14)" fill-rule="evenodd" stroke="none"/>
      <path d="M33.95 -20.95 L28.8 -22.1 33.05 -28.6 34.25 -30.2 39.25 -34.6 121.65 -30.65 33.95 -20.95" fill="url(#gradient15)" fill-rule="evenodd" stroke="none"/>
      <path d="M39.25 -34.6 Q66.3 -59.15 82.55 -91.4 L101.35 -91.25 103.45 -88.4 Q96.0 -69.4 81.0 -51.6 99.35 -63.2 113.0 -75.45 L160.7 -10.7 151.15 -16.7 169.9 4.15 Q166.1 4.9 134.05 -11.5 102.0 -27.9 96.35 20.15 67.85 -12.35 33.95 -20.95 L121.65 -30.65 39.25 -34.6" fill="url(#gradient16)" fill-rule="evenodd" stroke="none"/>
      <path d="M39.25 -34.6 Q66.3 -59.15 82.55 -91.4 L101.35 -91.25 M103.45 -88.4 Q96.0 -69.4 81.0 -51.6 99.35 -63.2 113.0 -75.45 M160.7 -10.7 L151.15 -16.7 169.9 4.15 M134.05 -11.5 Q102.0 -27.9 96.35 20.15 67.85 -12.35 33.95 -20.95" fill="none" stroke="#000000" stroke-linecap="round" stroke-linejoin="round" stroke-opacity="0.5019608" stroke-width="1.5"/>
    </g>
    <linearGradient gradientTransform="matrix(0.2762, 0.0, 0.0, 0.0348, 265.5, -62.9)" gradientUnits="userSpaceOnUse" id="gradient14" spreadMethod="pad" x1="-819.2" x2="819.2">
      <stop offset="0.0" stop-color="#050403"/>
      <stop offset="1.0" stop-color="#272e1f"/>
    </linearGradient>
    <linearGradient gradientTransform="matrix(0.2762, 0.0, 0.0, 0.0348, 265.5, -62.9)" gradientUnits="userSpaceOnUse" id="gradient15" spreadMethod="pad" x1="-819.2" x2="819.2">
      <stop offset="0.0" stop-color="#0b0c08"/>
      <stop offset="1.0" stop-color="#3f5250"/>
    </linearGradient>
    <linearGradient gradientTransform="matrix(0.2839, 0.0, 0.0, 0.0681, 266.5, -35.65)" gradientUnits="userSpaceOnUse" id="gradient16" spreadMethod="pad" x1="-819.2" x2="819.2">
      <stop offset="0.0" stop-color="#050403"/>
      <stop offset="1.0" stop-color="#2b3b3b"/>
    </linearGradient>
    <g id="shape11" transform="matrix(1.0, 0.0, 0.0, 1.0, -7.05, -2.75)">
      <path d="M33.6 8.95 Q33.2 6.8 32.55 6.05 L30.1 3.6 Q30.65 4.2 30.75 5.05 L30.75 8.4 30.65 9.85 30.5 9.55 30.45 9.6 29.6 7.55 29.6 7.75 29.55 7.65 28.9 8.5 29.3 7.2 Q28.55 5.5 27.3 3.95 L26.55 3.0 26.55 3.1 26.5 3.2 Q25.75 3.35 25.4 4.2 L25.25 5.0 25.3 5.15 25.85 6.8 26.0 7.65 Q22.45 3.25 20.7 3.2 L16.8 3.55 Q17.75 3.45 18.35 4.15 L20.4 7.3 20.6 7.65 20.65 8.8 20.55 8.75 20.25 8.25 20.25 8.5 Q16.05 5.75 13.45 5.2 L13.05 5.15 15.5 7.5 15.55 7.5 19.15 11.45 17.85 10.8 18.1 12.0 17.25 10.6 Q15.35 9.55 13.2 8.9 L11.9 8.5 11.95 8.6 12.0 8.7 Q11.6 9.25 12.15 10.25 L12.7 11.05 12.85 11.15 14.6 12.3 15.75 13.2 17.1 13.15 16.05 13.4 16.3 13.6 17.25 14.3 Q14.7 13.25 12.5 12.05 L10.3 10.7 10.4 11.05 Q11.3 13.7 15.1 17.15 L14.95 17.2 15.2 17.75 15.0 17.9 14.9 17.85 13.9 18.7 10.95 21.2 Q9.4 22.5 9.45 23.0 8.7 24.05 8.2 25.2 7.65 26.5 7.45 27.85 7.15 29.55 7.4 31.4 L7.5 32.1 Q8.0 34.95 9.65 37.15 11.0 38.95 13.1 40.25 16.3 42.3 20.0 42.5 L23.3 42.25 Q26.75 41.6 29.3 39.7 L31.15 38.0 32.15 36.75 32.2 36.7 32.3 36.55 Q35.4 32.2 34.4 27.1 L34.3 26.5 34.95 25.1 34.85 23.95 34.75 23.8 34.45 23.1 34.35 23.2 34.4 22.25 34.3 22.15 34.05 21.4 33.9 21.5 33.95 20.85 34.55 21.0 33.95 20.75 33.95 20.4 35.65 20.6 Q34.65 20.6 33.9 20.1 L33.9 19.55 36.25 19.4 33.85 19.15 33.8 18.9 33.85 18.85 33.85 18.8 35.4 18.6 36.3 16.6 36.35 16.35 35.55 16.35 36.5 16.1 36.9 14.95 37.6 13.55 37.65 13.45 37.75 12.55 Q37.7 11.5 37.2 11.05 L37.2 10.9 37.2 10.8 36.45 11.4 Q35.25 12.4 34.35 13.75 L34.25 14.9 34.1 14.15 34.05 14.25 34.0 13.8 Q35.05 12.6 35.1 11.15 L34.0 13.0 33.75 10.25 33.55 8.75 33.6 8.95 M19.45 11.8 L19.3 11.6 19.35 11.8 19.45 11.8 M19.9 25.6 L20.0 26.1 21.0 26.2 21.6 25.75 21.6 25.95 22.55 26.15 23.5 25.6 25.9 31.3 27.0 31.9 27.05 31.9 27.25 31.8 26.9 32.35 26.55 32.75 26.0 33.45 24.95 34.3 23.9 34.8 23.55 34.95 22.45 35.25 22.2 35.3 22.0 35.35 18.65 35.1 17.3 34.5 Q16.1 33.8 15.45 32.8 L14.7 31.15 14.7 31.0 Q14.5 30.1 14.7 29.3 L14.55 29.6 14.6 29.35 15.3 28.3 Q16.45 26.9 18.15 26.15 L18.35 26.1 18.55 26.85 18.8 26.85 19.15 26.75 19.7 25.65 19.9 25.6" fill="none" stroke="#000000" stroke-linecap="round" stroke-linejoin="round" stroke-opacity="0.3019608" stroke-width="0.5"/>
    </g>
  </defs>
</svg>
