<?xml version="1.0" encoding="UTF-8" standalone="no"?>
<svg xmlns:xlink="http://www.w3.org/1999/xlink" height="440.0px" width="440.0px" xmlns="http://www.w3.org/2000/svg">
  <g transform="matrix(10.0, 0.0, 0.0, 10.0, 0.0, 0.0)">
    <use height="44.0" transform="matrix(1.0, 0.0, 0.0, 1.0, 0.0, 0.0)" width="44.0" xlink:href="#shape0"/>
  </g>
  <defs>
    <g id="shape0" transform="matrix(1.0, 0.0, 0.0, 1.0, 0.0, 0.0)">
      <path d="M44.0 44.0 L0.0 44.0 0.0 0.0 44.0 0.0 44.0 44.0" fill="#43adca" fill-opacity="0.0" fill-rule="evenodd" stroke="none"/>
      <path d="M25.75 22.1 L25.85 21.9 26.5 20.75 Q27.3 19.75 28.35 19.7 L28.95 19.75 Q30.1 20.0 30.95 21.6 L31.6 22.95 Q32.05 24.3 32.15 25.95 29.8 24.6 26.65 25.65 L26.15 23.15 25.75 22.1" fill="#7d7865" fill-rule="evenodd" stroke="none"/>
      <path d="M26.1 31.85 Q27.1 28.9 26.65 25.65 29.8 24.6 32.15 25.95 L32.2 26.6 Q32.35 29.6 31.35 31.75 L31.0 32.45 Q30.35 33.55 29.45 33.85 L28.85 34.0 Q27.35 34.1 26.2 32.0 L26.1 31.85" fill="#a19a82" fill-rule="evenodd" stroke="none"/>
      <path d="M16.75 14.7 Q18.6 13.25 20.85 12.75 L22.9 12.45 26.65 12.85 Q29.4 13.7 31.75 16.15 33.1 17.6 33.95 19.3 34.5 22.2 31.6 22.95 L30.95 21.6 Q30.1 20.0 28.95 19.75 L28.35 19.7 Q27.3 19.75 26.5 20.75 L25.85 21.9 25.75 22.1 Q24.8 24.15 24.95 27.0 25.0 28.05 25.2 28.95 25.4 30.55 26.1 31.85 L26.05 32.0 Q22.6 39.5 18.0 39.7 16.45 38.75 15.05 37.3 13.65 35.8 12.75 33.95 11.25 31.05 11.15 27.4 L11.15 26.7 Q11.7 27.65 12.65 28.2 14.5 29.1 16.85 27.7 19.2 26.4 20.7 23.65 22.2 20.8 22.05 18.2 21.8 15.65 20.0 14.75 18.55 14.05 16.75 14.7" fill="#ede9d7" fill-rule="evenodd" stroke="none"/>
      <path d="M11.15 26.7 Q11.2 21.2 14.45 17.1 15.5 15.7 16.75 14.7 18.55 14.05 20.0 14.75 21.8 15.65 22.05 18.2 22.2 20.8 20.7 23.65 19.2 26.4 16.85 27.7 14.5 29.1 12.65 28.2 11.7 27.65 11.15 26.7" fill="#fafaf5" fill-rule="evenodd" stroke="none"/>
      <path d="M33.95 19.3 Q35.1 21.55 35.45 24.25 L35.65 26.05 Q35.85 32.0 32.4 36.4 L31.95 36.9 Q29.9 39.25 27.35 40.3 L23.9 41.05 Q20.65 41.2 18.0 39.7 22.6 39.5 26.05 32.0 L26.2 32.0 Q27.35 34.1 28.85 34.0 L29.45 33.85 Q30.35 33.55 31.0 32.45 L31.35 31.75 Q32.35 29.6 32.2 26.6 L32.15 25.95 Q32.05 24.3 31.6 22.95 34.5 22.2 33.95 19.3" fill="#dbd7c7" fill-rule="evenodd" stroke="none"/>
      <path d="M16.75 14.7 Q18.6 13.25 20.85 12.75 L22.9 12.45 26.65 12.85 Q29.4 13.7 31.75 16.15 33.1 17.6 33.95 19.3 35.1 21.55 35.45 24.25 L35.65 26.05 Q35.85 32.0 32.4 36.4 L31.95 36.9 Q29.9 39.25 27.35 40.3 L23.9 41.05 Q20.65 41.2 18.0 39.7 16.45 38.75 15.05 37.3 13.65 35.8 12.75 33.95 11.25 31.05 11.15 27.4 L11.15 26.7 Q11.2 21.2 14.45 17.1 15.5 15.7 16.75 14.7 M25.75 22.1 L25.85 21.9 26.5 20.75 Q27.3 19.75 28.35 19.7 L28.95 19.75 Q30.1 20.0 30.95 21.6 L31.6 22.95 M26.65 25.65 L26.15 23.15 25.75 22.1 Q24.8 24.15 24.95 27.0 25.0 28.05 25.2 28.95 25.4 30.55 26.1 31.85 27.1 28.9 26.65 25.65 M32.15 25.95 Q32.05 24.3 31.6 22.95 M26.1 31.85 L26.2 32.0 Q27.35 34.1 28.85 34.0 L29.45 33.85 Q30.35 33.55 31.0 32.45 L31.35 31.75 Q32.35 29.6 32.2 26.6 L32.15 25.95" fill="none" stroke="#000000" stroke-linecap="round" stroke-linejoin="round" stroke-opacity="0.47843137" stroke-width="1.0"/>
      <path d="M11.45 24.75 L11.3 23.25 Q12.2 21.55 13.3 21.65 L13.75 24.15 Q12.2 23.8 11.45 24.75 M22.5 21.9 L21.8 23.5 Q20.7 22.35 18.3 21.85 16.75 30.95 18.7 38.5 L14.85 36.1 Q14.9 35.75 15.1 35.8 L15.8 33.0 Q16.25 30.25 16.9 21.8 13.6 26.55 13.85 31.9 L12.5 30.05 Q12.5 26.8 15.95 20.3 15.45 19.45 13.7 18.95 L14.95 17.7 17.35 18.8 Q19.7 15.8 20.3 15.55 L21.9 16.2 Q19.55 18.5 18.9 19.75 21.25 20.65 22.5 21.9" fill="#000000" fill-rule="evenodd" stroke="none"/>
      <path d="M20.65 8.85 Q23.1 10.05 22.7 7.15 26.1 11.35 30.25 13.2 34.35 14.95 36.55 20.35 38.8 25.8 36.2 32.9 33.55 39.95 27.75 41.8 21.95 43.6 16.55 40.8 11.1 37.95 9.7 33.4 8.4 28.9 10.25 21.9 12.05 14.85 11.85 10.9 14.65 13.95 15.25 11.9 15.75 9.8 14.85 2.2 18.25 7.7 20.65 8.85" fill="url(#gradient0)" fill-rule="evenodd" stroke="none"/>
      <path d="M20.65 8.85 Q18.25 7.7 14.85 2.2 15.75 9.8 15.25 11.9 14.65 13.95 11.85 10.9 12.05 14.85 10.25 21.9 8.4 28.9 9.7 33.4 11.1 37.95 16.55 40.8 21.95 43.6 27.75 41.8 33.55 39.95 36.2 32.9 38.8 25.8 36.55 20.35 34.35 14.95 30.25 13.2 26.1 11.35 22.7 7.15 23.1 10.05 20.65 8.85 Z" fill="none" stroke="#ffffff" stroke-linecap="round" stroke-linejoin="round" stroke-opacity="0.8" stroke-width="0.05"/>
    </g>
    <radialGradient cx="0" cy="0" gradientTransform="matrix(0.0081, 0.0255, 0.0361, -0.0074, 25.55, 31.0)" gradientUnits="userSpaceOnUse" id="gradient0" r="819.2" spreadMethod="pad">
      <stop offset="0.39215686274509803" stop-color="#b1e4fa" stop-opacity="0.19215687"/>
      <stop offset="1.0" stop-color="#e2f4fc" stop-opacity="0.87058824"/>
    </radialGradient>
  </defs>
</svg>
