<?xml version="1.0" encoding="UTF-8" standalone="no"?>
<svg xmlns:xlink="http://www.w3.org/1999/xlink" height="440.0px" width="440.0px" xmlns="http://www.w3.org/2000/svg">
  <g transform="matrix(10.0, 0.0, 0.0, 10.0, 0.0, 0.0)">
    <use height="44.0" transform="matrix(1.0, 0.0, 0.0, 1.0, 0.0, 0.0)" width="44.0" xlink:href="#shape0"/>
    <use height="72.7" transform="matrix(0.4238, 0.0, 0.0, 0.4238, 6.2267, 8.4438)" width="77.9" xlink:href="#sprite0"/>
    <use height="15.75" transform="matrix(1.0, 0.0, 0.0, 1.0, 13.55, 5.85)" width="13.75" xlink:href="#shape4"/>
    <use height="37.2" transform="matrix(0.4238, 0.0, 0.0, 0.4238, 14.3366, 5.8168)" width="30.55" xlink:href="#sprite3"/>
    <use height="15.95" transform="matrix(1.0, 0.0, 0.0, 1.0, 13.45, 5.8)" width="16.9" xlink:href="#shape6"/>
    <use height="14.6" transform="matrix(-0.2257, -1.2285, 1.1387, -0.0588, 7.2433, 18.2035)" width="12.9" xlink:href="#sprite4"/>
    <use height="1.3" transform="matrix(0.6688, -6.1423, 5.6077, -0.2898, 10.9761, 13.5169)" width="1.3" xlink:href="#sprite5"/>
    <use height="33.9" transform="matrix(1.0, 0.0, 0.0, 1.0, 5.95, 5.6)" width="33.55" xlink:href="#shape8"/>
  </g>
  <defs>
    <g id="shape0" transform="matrix(1.0, 0.0, 0.0, 1.0, 0.0, 0.0)">
      <path d="M44.0 44.0 L0.0 44.0 0.0 0.0 44.0 0.0 44.0 44.0" fill="#43adca" fill-opacity="0.0" fill-rule="evenodd" stroke="none"/>
    </g>
    <g id="sprite0" transform="matrix(1.0, 0.0, 0.0, 1.0, 38.75, 36.35)">
      <use height="72.7" transform="matrix(1.0, 0.0, 0.0, 1.0, -38.7, -36.35)" width="77.4" xlink:href="#shape1"/>
      <use height="72.7" transform="matrix(1.0, 0.0, 0.0, 1.0, -38.25, -36.35)" width="77.4" xlink:href="#sprite1"/>
      <use height="72.7" transform="matrix(1.0, 0.0, 0.0, 1.0, -38.75, -36.35)" width="77.4" xlink:href="#sprite2"/>
    </g>
    <g id="shape1" transform="matrix(1.0, 0.0, 0.0, 1.0, 38.7, 36.35)">
      <path d="M17.15 -8.25 L18.2 -6.25 18.7 -4.95 19.1 -3.55 19.25 -2.9 Q20.5 3.45 15.85 8.9 20.1 3.55 19.0 -2.8 18.6 -5.75 17.05 -7.95 L16.5 -8.4 15.9 -8.8 14.95 -9.4 Q9.5 -12.45 3.15 -12.2 L2.8 -12.2 -1.4 -11.7 -4.6 -10.95 -5.75 -10.6 -4.55 -11.1 -3.75 -11.45 -3.6 -11.45 -1.4 -12.0 -1.2 -12.05 3.35 -12.45 Q9.75 -12.55 15.15 -9.5 L16.1 -8.85 16.7 -8.5 17.15 -8.25 M10.05 13.85 L8.6 14.55 8.45 14.6 7.5 15.0 8.35 14.6 10.55 13.55 10.05 13.85 M-9.05 -9.25 L-8.7 -9.4 -9.75 -8.85 -9.05 -9.25" fill="url(#gradient0)" fill-rule="evenodd" stroke="none"/>
      <path d="M26.05 -27.2 L26.85 -26.6 25.6 -27.0 26.05 -27.2" fill="#444444" fill-rule="evenodd" stroke="none"/>
      <path d="M15.65 9.15 Q13.35 12.05 10.05 13.85 L10.55 13.55 15.65 9.15" fill="#726927" fill-rule="evenodd" stroke="none"/>
      <path d="M-9.05 -9.25 L-9.75 -8.85 -10.45 -8.4 -9.05 -9.25" fill="#928e31" fill-rule="evenodd" stroke="none"/>
      <path d="M23.15 19.45 L23.2 19.6 22.9 19.5 23.15 19.45" fill="#c5b474" fill-rule="evenodd" stroke="none"/>
      <path d="M8.6 14.55 L8.55 14.65 8.45 14.6 8.6 14.55" fill="#d7ceb0" fill-rule="evenodd" stroke="none"/>
      <path d="M-10.3 22.6 L-10.25 22.3 -10.0 22.65 -10.3 22.6" fill="#877f46" fill-rule="evenodd" stroke="none"/>
      <path d="M-13.7 -33.65 L-12.0 -34.25 -6.55 -35.6 -5.9 -35.7 -0.05 -36.35 Q2.75 -34.1 4.6 -31.5 9.05 -25.2 6.75 -18.5 L0.7 -17.8 -3.25 -15.2 Q-0.05 -27.8 -9.7 -32.3 L-13.7 -33.65 M-38.6 3.05 L-38.7 -0.4 Q-38.6 -3.95 -37.75 -7.4 L-37.65 -7.65 Q-36.35 -4.75 -34.55 -2.65 -29.45 3.4 -22.2 1.65 L-22.25 1.8 -25.1 2.55 -23.75 9.8 Q-28.95 11.55 -34.65 7.0 -36.7 5.4 -38.6 3.05" fill="#dccdab" fill-rule="evenodd" stroke="none"/>
      <path d="M-3.25 -15.2 L0.7 -17.8 6.75 -18.5 Q5.7 -15.5 3.35 -12.45 L-1.2 -12.05 -1.4 -12.0 -3.6 -11.45 -3.75 -11.45 -4.55 -11.1 Q-3.75 -13.25 -3.25 -15.2 M21.55 -11.65 Q25.15 -8.15 29.4 -2.8 L29.4 -2.7 21.75 -3.4 Q20.05 -6.1 17.15 -8.25 L16.7 -8.5 16.1 -8.85 Q19.4 -10.3 21.55 -11.65 M23.15 19.3 L23.15 19.45 22.9 19.5 18.9 17.7 16.7 12.4 21.75 14.05 23.15 19.3 M-23.75 9.8 L-25.1 2.55 -22.25 1.8 -22.2 1.65 -18.3 0.3 Q-20.3 4.2 -19.95 8.6 L-23.75 9.8" fill="#b29f76" fill-rule="evenodd" stroke="none"/>
      <path d="M29.4 -2.7 Q32.3 4.85 27.8 13.75 26.25 16.5 23.15 19.3 L21.75 14.05 Q25.1 8.6 23.95 2.3 23.4 -0.8 21.75 -3.4 L29.4 -2.7 M22.9 19.5 Q20.3 21.7 16.7 24.0 8.45 29.25 -2.25 28.1 L-12.2 26.5 -10.35 22.55 -10.3 22.6 -10.0 22.65 Q-4.25 25.7 2.35 25.15 L5.5 24.65 Q9.5 24.0 12.85 22.35 16.2 20.55 18.9 17.7 L22.9 19.5" fill="#98845e" fill-rule="evenodd" stroke="none"/>
      <path d="M-17.75 -0.8 L-17.85 0.05 Q-18.05 1.9 -17.75 3.9 L-17.65 4.3 Q-17.0 7.05 -15.65 9.0 -16.6 12.75 -10.25 22.3 L-10.3 22.6 -10.35 22.55 -10.95 22.2 Q-14.55 20.2 -16.75 17.4 -19.05 14.4 -19.75 10.5 L-19.95 8.6 Q-20.3 4.2 -18.3 0.3 L-17.75 -0.8" fill="#544634" fill-rule="evenodd" stroke="none"/>
      <path d="M-15.65 9.0 Q-13.75 11.85 -10.3 13.75 L-9.5 14.2 -6.8 15.35 -6.55 15.4 Q-5.3 21.5 2.35 25.15 -4.25 25.7 -10.0 22.65 L-10.25 22.3 Q-16.6 12.75 -15.65 9.0" fill="#64543e" fill-rule="evenodd" stroke="none"/>
      <path d="M8.55 14.65 Q14.95 17.35 12.85 22.35 9.5 24.0 5.5 24.65 L2.35 25.15 Q-5.3 21.5 -6.55 15.4 -1.95 16.9 3.6 15.95 L7.5 15.0 8.45 14.6 8.55 14.65" fill="#6f5c44" fill-rule="evenodd" stroke="none"/>
      <path d="M15.85 8.9 Q20.5 3.45 19.25 -2.9 L19.1 -3.55 18.7 -4.95 18.2 -6.25 17.15 -8.25 Q20.05 -6.1 21.75 -3.4 23.4 -0.8 23.95 2.3 25.1 8.6 21.75 14.05 L16.7 12.4 18.9 17.7 Q16.2 20.55 12.85 22.35 14.95 17.35 8.55 14.65 L8.6 14.55 10.05 13.85 Q13.35 12.05 15.65 9.15 L15.85 8.9" fill="#7d6a4f" fill-rule="evenodd" stroke="none"/>
      <path d="M6.75 -18.5 Q9.05 -25.2 4.6 -31.5 2.75 -34.1 -0.05 -36.35 L3.85 -36.25 11.15 -35.1 Q15.55 -33.9 19.75 -31.7 20.05 -31.5 20.5 -31.3 L22.35 -30.05 24.55 -28.5 25.75 -26.25 Q29.35 -18.3 21.5 -11.75 L19.95 -13.2 Q14.9 -18.55 6.75 -18.5 M-31.0 22.45 Q-34.95 17.6 -36.9 11.55 L-37.65 9.0 -38.05 7.05 -38.6 3.05 Q-36.7 5.4 -34.65 7.0 -28.95 11.55 -23.75 9.8 L-22.35 17.3 -18.5 21.15 Q-21.4 25.05 -27.75 23.5 L-31.0 22.45" fill="#d4c5a5" fill-rule="evenodd" stroke="none"/>
      <path d="M24.55 -28.5 L26.05 -27.2 25.6 -27.0 26.85 -26.6 Q36.0 -18.95 38.1 -7.1 40.8 7.65 31.6 20.25 22.45 32.7 6.55 35.65 -9.15 38.45 -22.25 30.1 -27.45 26.75 -31.0 22.45 L-27.75 23.5 Q-21.4 25.05 -18.5 21.15 L-13.35 26.3 -12.2 26.5 -2.25 28.1 Q8.45 29.25 16.7 24.0 20.3 21.7 22.9 19.5 L23.2 19.6 23.15 19.45 23.15 19.3 Q26.25 16.5 27.8 13.75 32.3 4.85 29.4 -2.7 L29.4 -2.8 Q25.15 -8.15 21.55 -11.65 L21.5 -11.75 Q29.35 -18.3 25.75 -26.25 L24.55 -28.5" fill="#ccbd9f" fill-rule="evenodd" stroke="none"/>
      <path d="M21.5 -11.75 L21.55 -11.65 Q19.4 -10.3 16.1 -8.85 L15.15 -9.5 Q9.75 -12.55 3.35 -12.45 5.7 -15.5 6.75 -18.5 14.9 -18.55 19.95 -13.2 L21.5 -11.75" fill="#998866" fill-rule="evenodd" stroke="none"/>
      <path d="M-12.2 26.5 L-13.35 26.3 -18.5 21.15 -22.35 17.3 -23.75 9.8 -19.95 8.6 -19.75 10.5 Q-19.05 14.4 -16.75 17.4 -14.55 20.2 -10.95 22.2 L-10.35 22.55 -12.2 26.5" fill="#a3916d" fill-rule="evenodd" stroke="none"/>
      <path d="M-13.7 -33.65 L-9.7 -32.3 Q-0.05 -27.8 -3.25 -15.2 L-8.0 -12.15 -13.9 -13.1 -18.6 -7.3 -22.2 1.65 Q-29.45 3.4 -34.55 -2.65 -36.35 -4.75 -37.65 -7.65 L-37.25 -9.1 -36.1 -12.45 Q-34.3 -16.45 -31.45 -20.2 L-28.45 -23.85 Q-22.35 -30.55 -13.7 -33.65" fill="#e6d6b3" fill-rule="evenodd" stroke="none"/>
      <path d="M-4.55 -11.1 L-5.75 -10.6 Q-7.3 -10.1 -8.7 -9.4 L-9.05 -9.25 -10.45 -8.4 -14.75 -4.85 -15.75 -3.75 -17.75 -0.8 -18.3 0.3 -22.2 1.65 -18.6 -7.3 -13.9 -13.1 -8.0 -12.15 -3.25 -15.2 Q-3.75 -13.25 -4.55 -11.1" fill="#bfaa80" fill-rule="evenodd" stroke="none"/>
      <path d="M-24.65 -23.6 Q-17.65 -30.2 -2.25 -31.25 -14.0 -25.25 -20.05 -20.85 -25.5 -15.75 -34.5 -3.4 -31.35 -16.8 -24.65 -23.6" fill="#f2ead9" fill-rule="evenodd" stroke="none"/>
    </g>
    <linearGradient gradientTransform="matrix(0.0472, -0.0027, 0.0025, 0.0442, -0.05, -0.1)" gradientUnits="userSpaceOnUse" id="gradient0" spreadMethod="pad" x1="-819.2" x2="819.2">
      <stop offset="0.0" stop-color="#efe4cb"/>
      <stop offset="0.5058823529411764" stop-color="#ae9a4a"/>
    </linearGradient>
    <g id="sprite1" transform="matrix(1.0, 0.0, 0.0, 1.0, 38.7, 36.35)">
      <use height="72.7" transform="matrix(1.0, 0.0, 0.0, 1.0, -38.7, -36.35)" width="77.4" xlink:href="#shape2"/>
    </g>
    <g id="shape2" transform="matrix(1.0, 0.0, 0.0, 1.0, 38.7, 36.35)">
      <path d="M-31.45 -20.2 L-28.45 -23.85 Q-22.35 -30.55 -13.7 -33.65 L-12.0 -34.25 -6.55 -35.6 -5.9 -35.7 -0.05 -36.35 3.85 -36.25 11.15 -35.1 Q15.55 -33.9 19.75 -31.7 20.05 -31.5 20.5 -31.3 L22.35 -30.05 24.55 -28.5 26.05 -27.2 26.85 -26.6 Q36.0 -18.95 38.1 -7.1 40.8 7.65 31.6 20.25 22.45 32.7 6.55 35.65 -9.15 38.45 -22.25 30.1 -27.45 26.75 -31.0 22.45 -34.95 17.6 -36.9 11.55 L-37.65 9.0 -38.05 7.05 -38.6 3.05 -38.7 -0.4 Q-38.6 -3.95 -37.75 -7.4 L-37.65 -7.65 -37.25 -9.1 -36.1 -12.45 Q-34.3 -16.45 -31.45 -20.2 M-17.75 3.9 L-17.65 4.3 Q-17.0 7.05 -15.65 9.0 -13.75 11.85 -10.3 13.75 L-9.5 14.2 -6.8 15.35 -6.55 15.4 Q-1.95 16.9 3.6 15.95 L7.5 15.0 8.35 14.6 10.55 13.55 15.65 9.15 15.85 8.9 Q20.1 3.55 19.0 -2.8 18.6 -5.75 17.05 -7.95 L16.5 -8.4 15.9 -8.8 14.95 -9.4 Q9.5 -12.45 3.15 -12.2 L2.8 -12.2 -1.4 -11.7 -4.6 -10.95 -5.75 -10.6 Q-7.3 -10.1 -8.7 -9.4 L-9.35 -9.05 -9.5 -8.95 -9.75 -8.85 -10.45 -8.4 -14.75 -4.85 -15.75 -3.75 -17.75 -0.8 -17.85 0.05 Q-18.05 1.9 -17.75 3.9" fill="url(#gradient1)" fill-rule="evenodd" stroke="none"/>
    </g>
    <radialGradient cx="0" cy="0" gradientTransform="matrix(0.0485, 0.0, 0.0, 0.0485, 0.0, 0.0)" gradientUnits="userSpaceOnUse" id="gradient1" r="819.2" spreadMethod="pad">
      <stop offset="0.0" stop-color="#361e01"/>
      <stop offset="1.0" stop-color="#361c01" stop-opacity="0.0"/>
    </radialGradient>
    <g id="sprite2" transform="matrix(1.0, 0.0, 0.0, 1.0, 176.7, 21.85)">
      <use height="72.7" transform="matrix(1.0, 0.0, 0.0, 1.0, -176.7, -21.85)" width="77.4" xlink:href="#shape3"/>
    </g>
    <g id="shape3" transform="matrix(1.0, 0.0, 0.0, 1.0, 176.7, 21.85)">
      <path d="M-169.45 -5.7 L-166.45 -9.35 Q-160.35 -16.05 -151.7 -19.15 L-150.0 -19.75 -144.55 -21.1 -143.9 -21.2 -138.05 -21.85 -134.15 -21.75 -126.85 -20.6 Q-122.45 -19.4 -118.25 -17.2 L-117.5 -16.8 -115.65 -15.55 Q-114.5 -14.85 -113.45 -14.0 L-111.95 -12.7 -111.15 -12.1 Q-102.0 -4.45 -99.9 7.4 -97.2 22.15 -106.4 34.75 -115.55 47.2 -131.45 50.15 -147.15 52.95 -160.25 44.6 -165.45 41.25 -169.0 36.95 -172.95 32.1 -174.9 26.05 L-175.65 23.5 -176.05 21.55 -176.6 17.55 -176.7 14.1 Q-176.6 10.55 -175.75 7.1 L-175.65 6.85 -175.25 5.4 -174.1 2.05 Q-172.3 -1.95 -169.45 -5.7 M-120.95 6.55 L-121.5 6.1 -122.1 5.7 -123.05 5.1 Q-128.5 2.05 -134.85 2.3 L-135.2 2.3 -139.4 2.8 Q-141.1 3.1 -142.6 3.55 L-143.75 3.9 -146.7 5.1 -147.35 5.45 -147.5 5.55 -147.75 5.65 -148.45 6.1 -152.75 9.65 -153.75 10.75 -155.75 13.7 -155.85 14.55 Q-156.05 16.4 -155.75 18.4 L-155.65 18.8 Q-155.0 21.55 -153.65 23.5 -151.75 26.35 -148.3 28.25 L-147.5 28.7 Q-146.25 29.35 -144.8 29.85 L-144.55 29.9 Q-139.95 31.4 -134.4 30.45 L-130.5 29.5 -129.65 29.1 Q-128.5 28.65 -127.45 28.05 L-122.35 23.65 -122.15 23.4 Q-117.9 18.05 -119.0 11.7 -119.4 8.75 -120.95 6.55" fill="url(#gradient2)" fill-rule="evenodd" stroke="none"/>
    </g>
    <radialGradient cx="0" cy="0" gradientTransform="matrix(0.0485, 0.0, 0.0, 0.0485, -131.0, 32.0)" gradientUnits="userSpaceOnUse" id="gradient2" r="819.2" spreadMethod="pad">
      <stop offset="0.0" stop-color="#361e01"/>
      <stop offset="1.0" stop-color="#361c01" stop-opacity="0.0"/>
    </radialGradient>
    <g id="shape4" transform="matrix(1.0, 0.0, 0.0, 1.0, -13.55, -5.85)">
      <path d="M14.35 7.85 L18.45 6.55 Q23.1 5.4 26.0 6.15 L26.45 7.25 18.25 9.05 18.1 9.1 17.95 8.9 16.55 8.3 14.35 7.85" fill="#935905" fill-rule="evenodd" stroke="none"/>
      <path d="M26.75 17.05 L26.15 18.85 25.35 20.7 22.75 21.6 22.35 21.5 Q22.9 19.8 22.9 18.85 L22.9 18.8 26.75 17.05" fill="#633503" fill-rule="evenodd" stroke="none"/>
      <path d="M27.05 9.65 L27.2 10.6 Q27.55 13.9 26.75 17.05 L22.9 18.8 22.9 18.75 Q22.8 17.15 22.3 15.05 L21.2 11.6 27.05 9.65" fill="#703f04" fill-rule="evenodd" stroke="none"/>
      <path d="M26.45 7.25 L26.9 8.85 27.05 9.65 21.2 11.6 21.15 11.45 Q19.85 10.0 18.3 9.1 L18.8 9.0 18.25 9.05 26.45 7.25" fill="#7a4704" fill-rule="evenodd" stroke="none"/>
      <path d="M22.35 21.5 L18.45 20.25 18.5 20.1 18.6 20.05 18.65 20.0 18.95 19.85 19.7 19.55 21.35 20.35 21.6 18.95 21.5 16.6 21.15 14.45 Q19.4 11.0 17.05 9.5 L17.0 9.5 16.9 9.45 15.55 8.85 15.0 8.7 14.4 10.65 14.4 10.7 13.55 11.2 14.35 7.85 16.55 8.3 17.95 8.9 18.1 9.1 18.25 9.05 18.3 9.1 Q19.85 10.0 21.15 11.45 L21.2 11.6 22.3 15.05 Q22.8 17.15 22.9 18.75 L22.9 18.8 22.75 18.9 22.9 18.85 Q22.9 19.8 22.35 21.5" fill="#dc880a" fill-rule="evenodd" stroke="none"/>
      <path d="M22.9 18.8 L22.9 18.85 22.75 18.9 22.9 18.8" fill="#ff0000" fill-rule="evenodd" stroke="none"/>
      <path d="M19.7 19.55 L20.2 19.35 20.65 19.2 21.6 18.95 21.35 20.35 19.7 19.55 M16.9 9.45 L16.8 9.6 14.4 10.65 15.0 8.7 15.55 8.85 16.9 9.45" fill="#492d03" fill-rule="evenodd" stroke="none"/>
    </g>
    <g id="sprite3" transform="matrix(1.0, 0.0, 0.0, 1.0, 15.25, 18.6)">
      <use height="37.2" transform="matrix(1.0, 0.0, 0.0, 1.0, -15.25, -18.6)" width="30.55" xlink:href="#shape5"/>
    </g>
    <g id="shape5" transform="matrix(1.0, 0.0, 0.0, 1.0, 15.25, 18.6)">
      <path d="M14.35 -11.5 L14.7 -9.6 15.0 -7.45 Q15.9 0.35 13.95 7.8 L12.6 12.05 10.65 16.4 4.55 18.6 3.65 18.3 Q4.95 14.35 4.85 12.1 L4.25 12.25 4.5 12.15 4.85 11.95 4.85 11.85 Q4.65 8.1 3.45 3.15 L0.9 -5.05 0.85 -5.05 0.75 -5.3 0.75 -5.35 Q-2.3 -8.8 -5.95 -10.9 L-4.55 -11.25 -6.4 -10.95 -6.75 -11.35 -10.05 -12.8 -15.25 -13.85 -5.6 -16.95 Q5.4 -19.7 12.25 -17.85 L13.3 -15.35 14.35 -11.5" fill="url(#gradient3)" fill-rule="evenodd" stroke="none"/>
    </g>
    <radialGradient cx="0" cy="0" gradientTransform="matrix(0.0421, 0.0, 0.0, 0.0421, 13.75, 9.25)" gradientUnits="userSpaceOnUse" id="gradient3" r="819.2" spreadMethod="pad">
      <stop offset="0.0" stop-color="#361e01"/>
      <stop offset="1.0" stop-color="#361c01" stop-opacity="0.0"/>
    </radialGradient>
    <g id="shape6" transform="matrix(1.0, 0.0, 0.0, 1.0, -13.45, -5.8)">
      <path d="M22.0 12.9 L22.15 13.0 27.15 10.8 27.2 10.85 28.5 12.4 Q29.4 13.15 30.25 13.45 L30.25 13.5 Q29.5 14.15 27.85 14.8 L26.25 15.25 26.2 15.25 24.2 14.55 Q22.85 13.9 21.95 12.9 L22.05 12.95 22.0 12.9" fill="#361901" fill-rule="evenodd" stroke="none"/>
      <path d="M22.0 12.9 L22.05 12.95 21.9 12.85 21.95 12.9 Q22.85 13.9 24.2 14.55 L26.2 15.25 25.75 16.65 25.65 16.5 25.7 16.6 Q24.1 16.0 22.3 14.35 L21.75 13.7 21.05 11.7 22.0 12.85 22.0 12.9" fill="#dc880a" fill-rule="evenodd" stroke="none"/>
      <path d="M26.2 15.25 L26.25 15.25 27.85 14.8 Q29.5 14.15 30.25 13.5 L29.6 15.05 25.75 16.65 26.2 15.25" fill="#774603" fill-rule="evenodd" stroke="none"/>
      <path d="M27.25 10.9 L27.2 10.6 27.05 9.7 26.9 8.9 26.45 7.25 26.0 6.2 Q23.1 5.4 18.45 6.6 L14.35 7.9 13.55 11.25 14.45 10.7 Q15.6 10.05 16.8 9.6 L16.9 9.45 17.0 9.55 17.05 9.55 Q19.45 11.05 21.15 14.45 L21.5 16.65 21.6 19.0 20.7 19.25 20.2 19.4 19.7 19.55 18.95 19.9 18.65 20.05 18.6 20.1 18.5 20.1 18.45 20.25 22.75 21.65 25.35 20.7 26.15 18.85 26.75 17.05 26.95 16.15 29.6 15.05 30.25 13.5 Q29.45 13.15 28.5 12.45 27.7 11.75 27.25 10.9 Z" fill="none" stroke="#000000" stroke-linecap="round" stroke-linejoin="round" stroke-opacity="0.2509804" stroke-width="0.25"/>
    </g>
    <g id="sprite4" transform="matrix(1.0, 0.0, 0.0, 1.0, 6.45, 7.3)">
      <use height="1.3" transform="matrix(9.9174, 3.1483, 0.0, 0.7797, -6.4422, -2.3886)" width="1.3" xlink:href="#sprite5"/>
      <use height="1.3" transform="matrix(-1.6617, -10.2577, 0.5943, -0.973, 0.8675, 7.3101)" width="1.3" xlink:href="#sprite5"/>
    </g>
    <g id="sprite5" transform="matrix(1.0, 0.0, 0.0, 1.0, 0.7, 0.75)">
      <use height="2.3" transform="matrix(0.5652, 0.0, 0.0, 0.5652, -0.7, -0.75)" width="2.3" xlink:href="#sprite6"/>
    </g>
    <g id="sprite6" transform="matrix(1.0, 0.0, 0.0, 1.0, 1.15, 1.15)">
      <use height="2.3" transform="matrix(1.0, 0.0, 0.0, 1.0, -1.15, -1.15)" width="2.3" xlink:href="#shape7"/>
    </g>
    <g id="shape7" transform="matrix(1.0, 0.0, 0.0, 1.0, 1.15, 1.15)">
      <path d="M0.8 -0.85 L1.15 0.0 Q1.15 0.5 0.8 0.8 0.5 1.15 0.0 1.15 -0.5 1.15 -0.85 0.8 L-1.15 0.0 -0.85 -0.85 Q-0.5 -1.15 0.0 -1.15 L0.8 -0.85" fill="url(#gradient4)" fill-rule="evenodd" stroke="none"/>
    </g>
    <radialGradient cx="0" cy="0" gradientTransform="matrix(0.0018, 0.0, 0.0, 0.0018, 0.0, 0.0)" gradientUnits="userSpaceOnUse" id="gradient4" r="819.2" spreadMethod="pad">
      <stop offset="0.0" stop-color="#fee3bc"/>
      <stop offset="0.5372549019607843" stop-color="#ffe3bd" stop-opacity="0.0"/>
    </radialGradient>
    <g id="shape8" transform="matrix(1.0, 0.0, 0.0, 1.0, -5.95, -5.6)">
      <path d="M31.55 10.55 L31.2 10.4 Q29.45 9.45 27.55 8.95 L26.9 8.8 26.75 8.2 26.65 7.85 26.45 7.2 26.0 6.15 22.7 5.85 18.45 6.5 14.35 7.85 13.55 11.2 Q11.9 12.25 10.55 13.75 L9.3 15.3 Q8.05 16.85 7.3 18.55 L6.8 20.0 6.65 20.6 6.6 20.7 Q6.25 22.15 6.2 23.7 L6.25 25.15 Q6.3 26.0 6.5 26.85 L6.65 27.65 6.95 28.75 Q7.8 31.3 9.45 33.35 L10.7 34.65 13.1 36.5 13.2 36.6 Q16.35 38.65 19.9 39.1 L22.25 39.25 23.85 39.2 25.6 38.95 Q32.35 37.7 36.25 32.4 40.15 27.1 39.0 20.85 38.1 15.8 34.25 12.55 L33.9 12.3 33.25 11.75 32.3 11.1 31.55 10.55 M28.95 19.85 Q28.15 19.4 27.3 19.1 L26.7 18.95 26.15 18.85 25.35 20.7 22.75 21.6 18.45 20.25 18.5 20.2 18.4 20.25 16.6 21.8 16.15 22.25 15.3 23.5 15.3 23.85 15.3 25.5 15.35 25.65 16.2 27.65 Q17.0 28.85 18.5 29.65 L18.8 29.85 19.95 30.35 20.05 30.35 22.1 30.75 23.5 30.7 24.15 30.6 25.8 30.2 26.15 30.05 26.5 29.9 26.9 29.7 27.1 29.6 29.25 27.7 29.35 27.6 29.45 27.45 29.5 27.4 29.55 27.3 29.6 27.25 30.65 25.05 Q30.9 23.9 30.65 22.65 30.5 21.4 29.85 20.5 L29.6 20.3 29.35 20.1 28.95 19.85" fill="none" stroke="#000000" stroke-linecap="round" stroke-linejoin="round" stroke-opacity="0.3019608" stroke-width="0.5"/>
    </g>
  </defs>
</svg>
