<?xml version="1.0" encoding="UTF-8" standalone="no"?>
<svg xmlns:xlink="http://www.w3.org/1999/xlink" height="440.0px" width="440.0px" xmlns="http://www.w3.org/2000/svg">
  <g transform="matrix(10.0, 0.0, 0.0, 10.0, 0.0, 0.0)">
    <use height="44.0" transform="matrix(1.0, 0.0, 0.0, 1.0, 0.0, 0.0)" width="44.0" xlink:href="#shape0"/>
    <use height="22.9" transform="matrix(1.0, 0.0, 0.0, 1.0, 10.55, 7.7)" width="31.15" xlink:href="#sprite0"/>
    <use height="19.1" transform="matrix(1.0, 0.0, 0.0, 1.0, 11.8, 17.0)" width="29.15" xlink:href="#sprite1"/>
    <use height="32.6" transform="matrix(1.0, 0.0, 0.0, 1.0, 4.5, 8.7)" width="33.35" xlink:href="#shape3"/>
    <use height="36.95" transform="matrix(1.0, 0.0, 0.0, 1.0, 1.55, 5.2)" width="41.85" xlink:href="#sprite2"/>
    <use height="5.1" transform="matrix(0.1231, -0.4594, 0.4594, 0.1231, 11.9307, 19.945)" width="6.6" xlink:href="#sprite3"/>
    <use height="5.0" transform="matrix(0.3363, -0.3363, 0.3363, 0.3363, 26.5867, 30.5889)" width="7.15" xlink:href="#sprite5"/>
    <use height="1.3" transform="matrix(2.0364, -10.9916, 6.8985, -0.1623, 8.2006, 24.5158)" width="1.3" xlink:href="#sprite6"/>
    <use height="34.6" transform="matrix(1.0, 0.0, 0.0, 1.0, 4.0, 7.45)" width="38.15" xlink:href="#shape10"/>
    <use height="41.15" transform="matrix(0.8084, 0.0, 0.0, 0.8084, 1.15, 2.5443)" width="28.7" xlink:href="#sprite8"/>
  </g>
  <defs>
    <g id="shape0" transform="matrix(1.0, 0.0, 0.0, 1.0, 0.0, 0.0)">
      <path d="M44.0 44.0 L0.0 44.0 0.0 0.0 44.0 0.0 44.0 44.0" fill="#43adca" fill-opacity="0.0" fill-rule="evenodd" stroke="none"/>
      <path d="M12.85 7.7 Q14.1 7.65 16.05 8.25 L17.0 9.8 16.1 9.5 14.2 9.2 14.0 9.2 12.85 7.7 M19.4 9.55 L20.55 10.05 23.2 11.45 22.75 12.4 20.0 11.0 19.4 9.55 M26.0 13.1 L28.7 14.9 28.0 15.65 25.55 14.05 26.0 13.1 M31.05 16.6 L33.75 18.75 33.1 19.55 30.55 17.55 31.05 16.6 M36.7 21.4 L38.8 23.65 37.25 23.6 37.0 23.3 35.1 21.35 36.7 21.4 M40.6 26.1 Q42.1 28.45 41.5 29.65 L41.0 30.2 40.85 30.25 38.95 28.6 39.35 28.2 Q39.8 27.35 38.7 25.55 L40.6 26.1 M10.55 9.15 Q10.6 8.75 10.8 8.5 L12.6 9.85 12.45 10.2 Q12.3 10.9 12.95 12.1 L13.1 12.3 11.6 12.3 Q10.3 10.25 10.55 9.15 M13.7 15.05 L13.45 14.8 13.4 14.7 14.85 14.65 15.0 14.85 15.2 15.05 13.7 15.05 M21.8 20.85 L21.8 20.9 21.1 20.35 21.8 20.85 M33.5 27.75 L33.7 27.85 34.7 28.2 34.95 28.3 35.2 28.35 36.05 28.6 37.4 30.4 36.15 30.1 34.7 29.6 34.5 29.5 33.5 27.75" fill="#452e18" fill-rule="evenodd" stroke="none"/>
      <path d="M14.2 9.2 L16.1 9.5 17.0 9.8 14.85 14.65 14.25 13.9 13.95 13.5 13.1 12.3 12.95 12.1 14.2 9.2 M10.4 14.65 L8.15 19.1 8.1 19.25 7.85 19.25 7.75 19.2 10.4 14.65 M20.0 11.0 L22.75 12.4 22.1 13.75 19.5 17.8 17.15 16.6 20.0 11.0 M24.8 21.05 L22.75 19.7 25.55 14.05 28.0 15.65 24.8 21.05 M32.75 27.45 L31.05 25.85 35.1 21.35 37.0 23.3 37.25 23.6 33.05 27.6 32.75 27.45 M29.55 24.6 L28.15 23.5 27.55 23.0 30.55 17.55 33.1 19.55 29.55 24.6 M35.2 28.35 L38.7 25.55 Q39.8 27.35 39.35 28.2 L38.95 28.6 38.8 28.65 36.05 28.6 35.2 28.35" fill="#22160b" fill-rule="evenodd" stroke="none"/>
      <path d="M33.55 36.05 L30.85 35.8 34.5 29.5 34.7 29.6 36.15 30.1 37.4 30.4 33.55 36.05 M8.0 19.4 L7.85 19.25 8.1 19.25 8.0 19.4 M7.7 19.25 Q6.95 17.5 7.3 16.4 L7.55 15.9 10.55 9.15 Q10.3 10.25 11.6 12.3 L10.4 14.65 7.75 19.2 7.7 19.25 M13.4 14.7 L13.45 14.8 13.7 15.05 11.9 19.2 11.55 18.6 13.4 14.7 M18.3 25.45 L17.15 27.55 Q16.2 27.6 15.2 27.0 L14.5 26.45 16.6 22.25 Q17.45 22.95 17.9 24.05 L18.3 25.45 M20.45 27.8 L22.5 27.6 Q23.4 27.75 24.2 28.2 L21.65 31.85 20.45 30.95 Q19.7 30.25 19.45 29.45 L20.45 27.8 M19.35 28.8 L19.3 28.8 19.35 28.8 M30.4 30.5 L29.25 32.25 28.5 32.0 30.4 30.5" fill="#6f4b23" fill-rule="evenodd" stroke="none"/>
      <path d="M13.7 15.05 L15.2 15.05 15.4 15.3 16.25 16.2 16.45 16.4 17.2 17.1 15.5 16.95 15.15 16.65 13.95 15.3 13.7 15.05 M21.1 20.35 L20.5 21.3 Q19.2 20.3 18.05 19.3 L19.55 19.1 21.1 20.35 M23.2 23.3 L23.65 22.2 25.7 23.6 26.2 23.95 26.25 25.3 23.2 23.3 M28.7 25.4 L31.05 26.65 31.1 26.65 31.65 26.9 32.6 28.7 32.0 28.45 31.8 28.35 29.2 27.05 28.7 25.4 M31.05 26.65 L31.8 28.35 31.05 26.65" fill="#382513" fill-rule="evenodd" stroke="none"/>
      <path d="M27.55 34.8 L26.8 34.5 24.85 33.7 29.1 27.0 29.2 27.05 31.8 28.35 30.4 30.5 28.5 32.0 29.25 32.25 27.55 34.8 M21.5 32.05 L18.9 30.45 19.45 29.45 Q19.7 30.25 20.45 30.95 L21.65 31.85 21.5 32.05 M16.45 28.8 L15.35 27.95 14.2 27.0 14.5 26.45 15.2 27.0 Q16.2 27.6 17.15 27.55 L16.45 28.8 M11.75 24.75 L9.7 22.5 11.55 18.6 11.9 19.2 13.7 15.05 13.95 15.3 15.15 16.65 15.5 16.95 11.75 24.75 M7.85 19.25 L7.7 19.25 7.75 19.2 7.85 19.25 M23.15 23.25 L23.2 23.3 26.25 25.3 24.2 28.2 Q23.4 27.75 22.5 27.6 L20.45 27.8 23.15 23.25 M18.05 19.3 Q19.2 20.3 20.5 21.3 L18.3 25.45 17.9 24.05 Q17.45 22.95 16.6 22.25 L18.05 19.3" fill="#61411e" fill-rule="evenodd" stroke="none"/>
      <path d="M40.85 30.25 L40.9 30.3 36.95 34.55 36.7 34.95 35.5 35.7 33.55 36.05 37.4 30.4 40.85 30.25 M30.85 35.8 L28.7 35.2 28.0 34.65 30.85 34.1 31.85 33.1 29.25 32.25 30.4 30.5 32.6 28.7 33.15 28.95 34.5 29.5 30.85 35.8 M13.4 14.7 L11.55 18.6 10.2 16.55 9.2 17.55 9.45 20.5 8.0 19.4 8.1 19.25 8.15 19.1 10.4 14.65 11.6 12.3 12.25 13.25 13.4 14.7 M18.3 25.45 L18.15 26.6 17.7 27.45 17.65 27.5 17.6 27.45 17.15 27.55 18.3 25.45 M16.6 22.25 L14.5 26.45 Q13.7 25.75 13.3 24.75 12.65 23.4 13.1 22.25 13.3 21.7 13.65 21.35 14.8 21.1 16.05 21.85 L16.6 22.25 M24.2 28.2 L25.1 28.8 Q26.15 29.8 26.25 31.0 L26.25 31.15 26.25 31.25 26.2 31.2 26.15 31.25 25.55 31.75 Q24.6 32.45 23.05 32.25 L21.65 31.85 24.2 28.2 M19.3 28.8 L19.35 28.65 19.45 28.5 20.0 28.0 Q20.2 27.85 20.45 27.8 L19.45 29.45 19.35 28.8 19.3 28.8" fill="#573b1b" fill-rule="evenodd" stroke="none"/>
      <path d="M12.85 7.7 L14.0 9.2 13.1 9.4 12.75 9.65 12.6 9.85 10.8 8.5 10.9 8.4 11.3 8.05 Q11.9 7.7 12.85 7.7 M17.0 9.8 L16.05 8.25 16.6 8.4 17.8 8.85 19.0 9.35 19.4 9.55 20.0 11.0 19.8 10.9 18.75 10.45 Q17.8 10.05 17.0 9.8 M23.2 11.45 Q24.6 12.2 26.0 13.1 L25.55 14.05 Q24.15 13.15 22.75 12.4 L23.2 11.45 M28.7 14.9 L30.8 16.4 31.05 16.6 30.55 17.55 30.05 17.15 28.0 15.65 28.7 14.9 M33.75 18.75 L36.7 21.4 35.1 21.35 33.1 19.55 33.75 18.75 M38.8 23.65 L39.9 25.05 40.6 26.1 38.7 25.55 37.95 24.5 37.9 24.45 37.25 23.6 38.8 23.65 M11.6 12.3 L13.1 12.3 13.95 13.5 14.25 13.9 14.85 14.65 13.4 14.7 12.25 13.25 11.6 12.3 M15.5 16.95 L17.2 17.1 19.55 19.1 18.05 19.3 15.5 16.95 M21.1 20.35 L21.8 20.9 21.8 20.85 23.65 22.2 23.2 23.3 23.15 23.25 21.3 21.9 20.5 21.3 21.1 20.35 M26.25 25.3 L26.2 23.95 28.7 25.4 29.2 27.05 29.1 27.0 26.25 25.3 M31.65 26.9 L32.1 27.15 32.75 27.45 33.05 27.6 33.5 27.75 34.5 29.5 33.15 28.95 32.6 28.7 31.65 26.9 M37.4 30.4 L36.05 28.6 38.8 28.65 38.95 28.6 40.85 30.25 37.4 30.4" fill="#2b1c0f" fill-rule="evenodd" stroke="none"/>
      <path d="M28.7 35.2 L27.55 34.8 29.25 32.25 31.85 33.1 30.85 34.1 28.0 34.65 28.7 35.2 M24.85 33.7 L21.5 32.05 21.65 31.85 23.05 32.25 Q24.6 32.45 25.55 31.75 L26.15 31.25 26.2 31.2 26.25 31.25 26.25 31.15 26.25 31.0 Q26.15 29.8 25.1 28.8 L24.2 28.2 26.25 25.3 29.1 27.0 24.85 33.7 M18.9 30.45 Q17.65 29.7 16.45 28.8 L17.15 27.55 17.6 27.45 17.65 27.5 17.7 27.45 18.15 26.6 18.3 25.45 20.5 21.3 21.3 21.9 23.15 23.25 20.45 27.8 Q20.2 27.85 20.0 28.0 L19.45 28.5 19.35 28.65 19.3 28.8 19.35 28.8 19.45 29.45 18.9 30.45 M14.2 27.0 L11.75 24.75 15.5 16.95 18.05 19.3 16.6 22.25 16.05 21.85 Q14.8 21.1 13.65 21.35 13.3 21.7 13.1 22.25 12.65 23.4 13.3 24.75 13.7 25.75 14.5 26.45 L14.2 27.0 M9.7 22.5 L7.95 19.8 7.9 19.65 8.0 19.4 9.45 20.5 9.2 17.55 10.2 16.55 11.55 18.6 9.7 22.5 M31.8 28.35 L32.0 28.45 32.6 28.7 30.4 30.5 31.8 28.35" fill="#472e15" fill-rule="evenodd" stroke="none"/>
      <path d="M14.0 9.2 L14.2 9.2 12.95 12.1 Q12.3 10.9 12.45 10.2 L12.6 9.85 12.75 9.65 13.1 9.4 14.0 9.2 M15.2 15.05 L15.0 14.85 14.85 14.65 17.0 9.8 Q17.8 10.05 18.75 10.45 L19.8 10.9 20.0 11.0 17.15 16.6 16.95 16.5 16.25 16.2 15.4 15.3 15.2 15.05 M22.1 13.75 L22.75 12.4 Q24.15 13.15 25.55 14.05 L22.75 19.7 Q21.7 19.0 20.65 18.45 L20.05 18.1 22.1 13.75 M31.05 25.85 L29.55 24.6 33.1 19.55 35.1 21.35 31.05 25.85 M27.55 23.0 L27.2 22.75 24.8 21.05 28.0 15.65 30.05 17.15 30.55 17.55 27.55 23.0 M37.25 23.6 L37.9 24.45 37.95 24.5 38.7 25.55 35.2 28.35 34.95 28.3 34.7 28.2 33.7 27.85 33.5 27.75 33.05 27.6 37.25 23.6" fill="#0d0804" fill-rule="evenodd" stroke="none"/>
      <path d="M12.85 7.7 L14.0 9.2 M17.0 9.8 L16.05 8.25 M7.9 19.65 L8.0 19.4 M11.6 12.3 L13.1 12.3 M12.6 9.85 L10.8 8.5 M14.85 14.65 L13.4 14.7 11.55 18.6 9.7 22.5 M15.5 16.95 L17.2 17.1 M11.6 12.3 L10.4 14.65 8.15 19.1 M8.1 19.25 L8.0 19.4 M12.95 12.1 L14.2 9.2 M17.0 9.8 L14.85 14.65 M19.4 9.55 L20.0 11.0 17.15 16.6 M22.75 12.4 L23.2 11.45 M22.1 13.75 L22.75 12.4 M25.55 14.05 L26.0 13.1 M21.1 20.35 L20.5 21.3 18.3 25.45 M23.2 23.3 L23.65 22.2 M20.05 18.1 L22.1 13.75 M17.15 27.55 L16.45 28.8 M18.05 19.3 L19.55 19.1 M17.15 27.55 L18.3 25.45 M16.6 22.25 L14.5 26.45 14.2 27.0 M26.25 25.3 L26.2 23.95 M24.8 21.05 L28.0 15.65 M25.55 14.05 L22.75 19.7 M29.2 27.05 L28.7 25.4 M26.25 25.3 L24.2 28.2 21.65 31.85 21.5 32.05 M23.15 23.25 L20.45 27.8 19.45 29.45 18.9 30.45 M18.05 19.3 L16.6 22.25 M11.75 24.75 L15.5 16.95 M37.25 23.6 L38.8 23.65 M37.25 23.6 L33.05 27.6 M35.2 28.35 L38.7 25.55 40.6 26.1 M33.1 19.55 L29.55 24.6 M33.1 19.55 L33.75 18.75 M31.05 16.6 L30.55 17.55 M27.55 23.0 L30.55 17.55 M31.05 25.85 L35.1 21.35 36.7 21.4 M37.4 30.4 L36.05 28.6 M34.5 29.5 L33.5 27.75 M29.25 32.25 L30.4 30.5 M31.8 28.35 L30.4 30.5 M30.85 35.8 L34.5 29.5 M27.55 34.8 L29.25 32.25 M40.85 30.25 L38.95 28.6 M31.8 28.35 L31.05 26.65 M33.55 36.05 L37.4 30.4 M28.7 14.9 L28.0 15.65 M24.85 33.7 L29.1 27.0" fill="none" stroke="#000000" stroke-linecap="round" stroke-linejoin="round" stroke-opacity="0.15294118" stroke-width="0.05"/>
    </g>
    <g id="sprite0" transform="matrix(1.0, 0.0, 0.0, 1.0, 15.55, 11.45)">
      <use height="22.9" transform="matrix(1.0, 0.0, 0.0, 1.0, -15.55, -11.45)" width="31.15" xlink:href="#shape1"/>
    </g>
    <g id="shape1" transform="matrix(1.0, 0.0, 0.0, 1.0, 15.55, 11.45)">
      <path d="M5.0 -2.55 L7.7 -0.4 10.65 2.25 12.75 4.5 13.85 5.9 14.55 6.95 Q16.05 9.3 15.45 10.5 L14.95 11.05 14.8 11.1 11.35 11.25 10.1 10.95 8.65 10.45 8.45 10.35 7.1 9.8 6.55 9.55 5.95 9.3 5.75 9.2 3.15 7.9 3.05 7.85 0.2 6.15 -2.85 4.15 -2.9 4.1 -4.75 2.75 -5.55 2.15 -8.0 0.15 -10.55 -2.2 -10.9 -2.5 -12.1 -3.85 -12.35 -4.1 -12.6 -4.35 -12.65 -4.45 -13.8 -5.9 -14.45 -6.85 Q-15.75 -8.9 -15.5 -10.0 L-15.25 -10.65 -15.15 -10.75 -14.75 -11.1 -13.2 -11.45 -10.0 -10.9 -9.45 -10.75 -8.25 -10.3 -7.05 -9.8 -6.65 -9.6 -5.5 -9.1 -2.85 -7.7 -0.05 -6.05 Q1.3 -5.25 2.65 -4.25 L4.75 -2.75 5.0 -2.55 M4.0 -2.0 L1.95 -3.5 -0.5 -5.1 -3.3 -6.75 -6.05 -8.15 -6.25 -8.25 -7.3 -8.7 -9.05 -9.35 -9.95 -9.65 -11.85 -9.95 -12.05 -9.95 -12.95 -9.75 -13.3 -9.5 -13.45 -9.3 -13.6 -8.95 Q-13.75 -8.25 -13.1 -7.05 L-12.95 -6.85 -12.1 -5.65 -11.8 -5.25 -11.2 -4.5 -11.05 -4.3 -10.85 -4.1 -10.65 -3.85 -9.8 -2.95 -9.6 -2.75 -8.85 -2.05 -6.5 -0.05 -4.95 1.2 -4.25 1.75 -4.25 1.7 -2.4 3.05 -0.35 4.45 0.15 4.8 2.65 6.25 5.0 7.5 5.05 7.5 5.6 7.75 6.05 8.0 6.7 8.3 7.0 8.45 7.45 8.6 7.65 8.7 8.65 9.05 8.9 9.15 9.15 9.2 10.0 9.45 12.75 9.5 12.9 9.45 13.3 9.05 Q13.75 8.2 12.65 6.4 L11.9 5.35 11.85 5.3 11.2 4.45 10.95 4.15 9.05 2.2 7.05 0.4 4.5 -1.6 4.0 -2.0" fill="url(#gradient0)" fill-rule="evenodd" stroke="none"/>
    </g>
    <linearGradient gradientTransform="matrix(-0.0146, -0.0121, 0.0089, -0.0108, -0.2, -0.15)" gradientUnits="userSpaceOnUse" id="gradient0" spreadMethod="pad" x1="-819.2" x2="819.2">
      <stop offset="0.0" stop-color="#973e02"/>
      <stop offset="1.0" stop-color="#963b02" stop-opacity="0.0"/>
    </linearGradient>
    <g id="sprite1" transform="matrix(1.0, 0.0, 0.0, 1.0, 14.55, 9.55)">
      <use height="19.1" transform="matrix(1.0, 0.0, 0.0, 1.0, -14.55, -9.55)" width="29.15" xlink:href="#shape2"/>
    </g>
    <g id="shape2" transform="matrix(1.0, 0.0, 0.0, 1.0, 14.55, 9.55)">
      <path d="M-5.0 -4.6 L-3.15 -3.25 -3.1 -3.2 -0.05 -1.2 2.8 0.5 2.9 0.55 5.5 1.85 5.7 1.95 6.3 2.2 6.85 2.45 8.2 3.0 8.4 3.1 9.85 3.6 11.1 3.9 14.55 3.75 14.6 3.8 10.65 8.05 10.4 8.45 9.2 9.2 7.25 9.55 4.55 9.3 2.4 8.7 1.25 8.3 0.5 8.0 -1.45 7.2 -4.8 5.55 -7.4 3.95 -9.85 2.3 -10.95 1.45 -12.1 0.5 -14.55 -1.75 -10.8 -9.55 -8.25 -7.2 -5.8 -5.2 -5.0 -4.6" fill="url(#gradient1)" fill-rule="evenodd" stroke="none"/>
    </g>
    <linearGradient gradientTransform="matrix(-0.012, -0.0083, 0.0067, -0.0096, 4.85, 1.95)" gradientUnits="userSpaceOnUse" id="gradient1" spreadMethod="pad" x1="-819.2" x2="819.2">
      <stop offset="0.0" stop-color="#20150b"/>
      <stop offset="1.0" stop-color="#21150b" stop-opacity="0.0"/>
    </linearGradient>
    <g id="shape3" transform="matrix(1.0, 0.0, 0.0, 1.0, -4.5, -8.7)">
      <path d="M28.45 38.0 L28.55 38.05 28.4 38.05 28.45 38.0 M9.15 23.25 L9.1 23.3 9.0 23.15 9.15 23.25" fill="#4a3f29" fill-rule="evenodd" stroke="none"/>
      <path d="M27.6 35.55 L29.55 37.05 28.45 38.0 25.75 35.9 27.6 35.55 M25.35 37.35 L24.75 40.3 23.75 41.3 24.6 37.15 25.35 37.35 M16.45 8.7 L18.15 10.6 20.7 21.25 19.7 22.25 16.45 8.7" fill="#452e18" fill-rule="evenodd" stroke="none"/>
      <path d="M24.95 24.5 L36.2 23.95 37.85 25.05 23.95 25.5 24.95 24.5 M4.5 26.65 L5.5 25.65 8.1 24.35 8.3 24.7 4.5 26.65 M6.35 21.1 L7.35 20.1 9.05 21.4 9.15 23.25 9.0 23.15 6.35 21.1 M8.8 18.45 L9.8 17.45 11.5 20.1 10.85 21.6 8.8 18.45 M17.25 28.4 Q16.8 28.8 16.15 28.95 15.0 29.25 13.75 28.5 12.95 28.0 12.45 27.3 L13.4 26.55 14.8 27.9 Q16.05 28.65 17.2 28.35 L17.25 28.4 M23.7 33.2 Q24.55 33.1 25.15 32.65 L25.75 32.15 25.8 32.1 25.85 32.15 Q25.75 33.2 24.8 33.8 24.2 34.25 23.35 34.35 L23.7 33.2" fill="#a26933" fill-rule="evenodd" stroke="none"/>
      <path d="M37.85 25.05 L28.1 32.9 26.9 33.85 30.45 35.0 27.6 35.55 25.75 35.9 28.45 38.0 28.4 38.05 25.35 37.35 24.6 37.15 23.75 41.3 18.35 34.0 16.4 34.55 13.0 32.1 12.9 29.85 4.5 26.65 8.3 24.7 8.1 24.35 6.35 21.1 9.0 23.15 9.1 23.3 9.15 23.25 9.05 21.4 8.8 18.45 10.85 21.6 11.5 20.1 16.45 8.7 19.7 22.25 23.95 25.5 37.85 25.05 M13.25 22.25 L13.2 22.25 Q12.05 22.55 11.65 23.75 11.4 24.45 11.5 25.2 L11.85 26.25 12.45 27.3 Q12.95 28.0 13.75 28.5 15.0 29.25 16.15 28.95 16.8 28.8 17.25 28.4 L17.3 28.35 17.75 27.5 Q18.1 26.35 17.5 24.95 16.9 23.5 15.65 22.75 14.4 22.0 13.25 22.25 M18.9 29.7 Q18.55 30.2 18.6 30.85 18.65 32.05 19.7 33.0 L20.65 33.75 Q21.4 34.2 22.3 34.3 L23.35 34.35 Q24.2 34.25 24.8 33.8 25.75 33.2 25.85 32.15 L25.85 32.05 25.85 31.9 Q25.75 30.7 24.7 29.7 23.6 28.75 22.1 28.5 20.6 28.25 19.6 28.9 L19.05 29.4 18.95 29.55 18.9 29.7" fill="#63431f" fill-rule="evenodd" stroke="none"/>
      <path d="M20.7 21.25 L24.95 24.5 23.95 25.5 19.7 22.25 20.7 21.25 M28.1 32.9 L31.45 34.0 30.45 35.0 26.9 33.85 28.1 32.9 M11.5 25.2 Q11.4 24.45 11.65 23.75 12.05 22.55 13.2 22.25 L13.25 22.25 Q12.9 22.6 12.7 23.15 12.45 23.85 12.55 24.65 L11.5 25.2 M18.9 29.7 L18.95 29.7 Q19.0 30.9 20.05 31.85 20.55 32.35 21.1 32.65 L20.65 33.75 19.7 33.0 Q18.65 32.05 18.6 30.85 18.55 30.2 18.9 29.7" fill="#4d331a" fill-rule="evenodd" stroke="none"/>
      <path d="M11.5 25.2 L12.55 24.65 12.9 25.65 13.4 26.55 12.45 27.3 11.85 26.25 11.5 25.2 M20.65 33.75 L21.1 32.65 Q21.8 33.05 22.65 33.15 L23.7 33.2 23.35 34.35 22.3 34.3 Q21.4 34.2 20.65 33.75" fill="#593a1e" fill-rule="evenodd" stroke="none"/>
      <path d="M20.7 21.25 L24.95 24.5 36.2 23.95 37.85 25.05 28.1 32.9 31.45 34.0 30.45 35.0 27.6 35.55 29.55 37.05 28.45 38.0 25.75 35.9 27.6 35.55 M28.4 38.05 L25.35 37.35 24.75 40.3 23.75 41.3 18.35 34.0 16.4 34.55 13.0 32.1 12.9 29.85 4.5 26.65 5.5 25.65 8.1 24.35 6.35 21.1 7.35 20.1 9.05 21.4 8.8 18.45 9.8 17.45 11.5 20.1 16.45 8.7 18.15 10.6 20.7 21.25 19.7 22.25 23.95 25.5 24.95 24.5 M9.15 23.25 L9.1 23.3 9.0 23.15 6.35 21.1 M9.15 23.25 L9.0 23.15 M8.1 24.35 L8.3 24.7 4.5 26.65 M9.05 21.4 L9.15 23.25 M13.25 22.25 L13.2 22.25 Q12.05 22.55 11.65 23.75 11.4 24.45 11.5 25.2 M12.55 24.65 Q12.45 23.85 12.7 23.15 12.9 22.6 13.25 22.25 14.4 22.0 15.65 22.75 16.9 23.5 17.5 24.95 18.1 26.35 17.75 27.5 L17.3 28.35 17.25 28.4 Q16.8 28.8 16.15 28.95 15.0 29.25 13.75 28.5 12.95 28.0 12.45 27.3 L11.85 26.25 11.5 25.2 M11.5 20.1 L10.85 21.6 8.8 18.45 M19.7 22.25 L16.45 8.7 M13.4 26.55 L14.8 27.9 Q16.05 28.65 17.2 28.35 L17.25 28.4 M21.1 32.65 Q20.55 32.35 20.05 31.85 19.0 30.9 18.95 29.7 L18.9 29.7 Q18.55 30.2 18.6 30.85 18.65 32.05 19.7 33.0 L20.65 33.75 M21.1 32.65 Q21.8 33.05 22.65 33.15 L23.7 33.2 Q24.55 33.1 25.15 32.65 L25.75 32.15 25.8 32.1 25.85 32.15 25.85 32.05 25.85 31.9 Q25.75 30.7 24.7 29.7 23.6 28.75 22.1 28.5 20.6 28.25 19.6 28.9 L19.05 29.4 18.95 29.55 18.9 29.7 M13.4 26.55 L12.9 25.65 12.55 24.65 M23.35 34.35 L22.3 34.3 Q21.4 34.2 20.65 33.75 M23.35 34.35 Q24.2 34.25 24.8 33.8 25.75 33.2 25.85 32.15 M30.45 35.0 L26.9 33.85 28.1 32.9 M23.75 41.3 L24.6 37.15 25.35 37.35 M28.45 38.0 L28.4 38.05 M23.95 25.5 L37.85 25.05" fill="none" stroke="#000000" stroke-linecap="round" stroke-linejoin="round" stroke-opacity="0.15294118" stroke-width="0.05"/>
    </g>
    <g id="sprite2" transform="matrix(1.0, 0.0, 0.0, 1.0, 21.35, 16.8)">
      <clipPath id="clipPath0" transform="matrix(1.0, 0.0, 0.0, 1.0, 21.35, 16.8)">
        <use height="36.95" transform="matrix(1.0, 0.0, 0.0, 1.0, -21.35, -16.8)" width="41.85" xlink:href="#shape4"/>
      </clipPath>
      <g clip-path="url(#clipPath0)">
        <use height="32.6" transform="matrix(1.0, 0.0, 0.0, 1.0, -18.35, -13.3)" width="33.35" xlink:href="#shape5"/>
      </g>
    </g>
    <g id="shape4" transform="matrix(1.0, 0.0, 0.0, 1.0, 21.35, 16.8)">
      <path d="M19.65 -9.35 L20.5 -10.1 20.5 -9.55 19.95 -9.05 19.65 -9.35 M-1.55 18.7 L-2.2 19.5 -2.25 19.45 -1.7 18.45 -1.55 18.7 M-2.95 17.55 L-3.1 17.7 Q-4.45 19.15 -5.45 19.15 L-5.75 19.1 -5.3 18.4 -5.2 18.5 -5.45 18.85 -5.45 18.9 -3.35 17.35 -2.95 17.55 M-10.55 14.5 L-10.6 14.6 -10.75 14.55 -10.9 14.55 -10.75 14.55 -10.6 14.6 -11.1 15.15 -11.4 14.95 -11.5 14.65 -11.45 14.45 -11.4 14.2 -10.95 14.35 -11.0 14.5 -11.45 14.45 -11.0 14.5 -11.0 14.65 -10.9 14.55 -10.8 14.4 -10.2 13.65 -10.1 13.6 -10.05 13.65 -10.55 14.5 -10.8 14.4 -10.55 14.5 M-3.95 -15.25 L-2.8 -16.8 -3.8 -15.25 -3.95 -15.25 M-1.65 -15.1 L-0.55 -16.45 -1.25 -15.05 -1.65 -15.1 M-15.2 12.9 L-15.0 12.95 -15.15 13.6 -15.35 13.55 -15.15 13.6 -15.5 15.35 -15.65 15.35 -15.65 15.1 -15.35 13.55 -15.2 12.9 M-12.05 13.95 L-12.45 14.4 -12.6 14.4 -12.8 14.35 -12.6 14.4 -12.45 14.4 -12.8 14.75 -12.95 14.55 -12.8 14.35 -12.45 13.8 -12.05 13.95" fill="#009999" fill-rule="evenodd" stroke="none"/>
      <path d="M0.5 -14.95 L0.4 -14.7 Q0.4 -13.95 1.2 -13.8 L8.9 -13.15 Q16.25 -12.55 19.65 -9.35 L15.65 -5.75 Q10.55 -1.1 7.8 2.4 4.0 7.05 1.5 10.65 L-1.55 14.75 -2.95 16.85 -3.35 17.35 Q-3.75 17.2 -4.3 17.0 L-8.0 15.55 -10.55 14.5 -10.05 13.65 -10.1 13.6 -10.2 13.65 -10.8 14.4 -10.95 14.35 -11.4 14.2 -12.05 13.95 -12.45 13.8 -13.0 13.6 -15.0 12.95 -13.3 7.3 -10.5 -0.75 Q-7.9 -8.85 -3.8 -15.25 L-1.65 -15.1 -2.0 -14.45 -3.15 -12.15 -5.6 -7.55 -8.3 -1.95 -9.85 1.55 -9.75 1.7 -9.65 1.65 Q-8.8 0.15 -7.55 -2.85 L-5.4 -7.4 Q-3.85 -9.95 -1.25 -15.05 L-0.05 -15.0 0.5 -14.95 M19.95 -9.05 L20.0 -9.0 20.5 -8.4 20.5 7.6 19.4 10.4 Q18.5 12.65 14.95 15.65 11.8 18.3 10.3 18.75 L4.7 19.8 0.85 20.15 Q-0.5 20.15 -1.05 19.6 L-1.55 18.7 -0.65 17.5 0.95 15.8 0.25 16.75 0.35 16.7 1.75 15.0 3.8 12.95 5.15 11.95 2.65 15.0 1.65 16.5 0.8 17.4 Q0.65 17.75 1.1 17.8 L1.0 18.2 1.0 18.45 1.05 18.45 1.3 17.8 3.35 16.7 3.4 16.7 3.3 16.85 Q3.3 17.2 3.65 17.2 5.05 16.1 5.05 15.7 L4.7 15.4 3.8 15.7 3.3 15.95 2.9 15.8 2.4 15.95 3.6 14.3 5.6 11.9 Q5.6 11.45 5.25 11.5 L5.4 11.35 5.25 11.2 4.6 11.85 3.85 12.5 2.7 13.7 1.0 15.25 Q-0.8 17.05 -1.7 18.45 L-2.3 17.85 -2.95 17.55 -1.2 15.15 1.95 11.05 8.25 2.75 Q10.95 -0.7 16.15 -5.55 L19.95 -9.05 M-10.6 14.6 Q-9.2 14.9 -9.2 15.85 -9.2 16.2 -10.05 16.5 L-13.2 16.9 Q-17.7 16.9 -21.35 14.7 L-21.35 -12.05 Q-18.75 -13.6 -15.55 -14.55 -11.95 -15.6 -8.95 -15.6 L-3.95 -15.25 Q-6.0 -12.45 -7.65 -9.0 -9.05 -5.95 -10.7 -0.95 L-13.45 7.1 -15.2 12.9 -16.25 12.6 -16.7 12.75 -16.95 13.05 -15.35 13.55 -15.65 15.1 -15.65 15.35 -15.5 15.35 -15.15 13.6 -12.8 14.35 -12.95 14.55 -12.8 14.75 -12.45 14.4 -11.45 14.45 -11.5 14.65 -11.4 14.95 -11.1 15.15 -10.6 14.6 M-3.65 -6.55 Q-2.8 -8.95 -2.5 -10.75 L-5.2 -2.4 -5.15 -2.4 -3.65 -6.55" fill="#00ff66" fill-rule="evenodd" stroke="none"/>
      <path d="M0.5 -14.95 L0.4 -14.7 Q0.4 -13.95 1.2 -13.8 L8.9 -13.15 Q16.25 -12.55 19.65 -9.35 M19.95 -9.05 L20.0 -9.0 20.5 -8.4 M20.5 7.6 L19.4 10.4 Q18.5 12.65 14.95 15.65 11.8 18.3 10.3 18.75 L4.7 19.8 0.85 20.15 Q-0.5 20.15 -1.05 19.6 L-1.55 18.7 -1.7 18.45 -2.3 17.85 -2.95 17.55 M-3.35 17.35 Q-3.75 17.2 -4.3 17.0 L-8.0 15.55 -10.55 14.5 -10.8 14.4 M-10.6 14.6 Q-9.2 14.9 -9.2 15.85 -9.2 16.2 -10.05 16.5 L-13.2 16.9 Q-17.7 16.9 -21.35 14.7 M-21.35 -12.05 Q-18.75 -13.6 -15.55 -14.55 -11.95 -15.6 -8.95 -15.6 L-3.95 -15.25 M-3.8 -15.25 L-1.65 -15.1 M-1.25 -15.05 L-0.05 -15.0 0.5 -14.95 0.6 -15.15 0.8 -15.95 M4.45 -14.35 L0.5 -14.95 M-3.35 17.35 L-2.95 17.55 M19.95 -9.05 L19.65 -9.35 M-3.8 -15.25 L-3.95 -15.25 M-15.2 12.9 L-15.0 12.95 M-1.25 -15.05 L-1.65 -15.1 M-11.4 14.2 L-12.05 13.95 M-12.45 14.4 L-11.45 14.45 -11.0 14.5 -10.9 14.55 -10.75 14.55 -10.6 14.6 M-11.4 14.2 L-10.95 14.35 -10.8 14.4 M-12.45 14.4 L-12.6 14.4 -12.8 14.35 M-12.45 13.8 L-12.05 13.95 M-15.15 13.6 L-12.8 14.35 M-12.45 13.8 L-13.0 13.6 -15.0 12.95 M-15.2 12.9 L-16.25 12.6 -16.7 12.75 -16.95 13.05 -15.35 13.55 -15.15 13.6" fill="none" stroke="#006600" stroke-linecap="round" stroke-linejoin="round" stroke-width="0.05"/>
    </g>
    <g id="shape5" transform="matrix(1.0, 0.0, 0.0, 1.0, 18.35, 13.3)">
      <path d="M-12.0 -0.4 L-6.4 -13.3 -3.15 0.25 1.1 3.5 15.0 3.05 4.05 11.85 7.6 13.0 2.9 13.9 5.6 16.0 5.55 16.05 1.75 15.15 0.9 19.3 -4.5 12.0 -6.45 12.55 -9.85 10.1 -9.95 7.85 -18.35 4.65 -14.55 2.7 -16.5 -0.9 -13.85 1.15 -13.75 1.3 -13.7 1.25 -14.05 -3.55 -12.0 -0.4 M-9.6 0.25 L-9.65 0.25 Q-10.8 0.55 -11.2 1.75 -11.45 2.45 -11.35 3.2 L-11.0 4.25 -10.4 5.3 -9.1 6.5 Q-7.85 7.25 -6.7 6.95 L-5.6 6.4 -5.55 6.35 Q-5.25 6.0 -5.1 5.5 -4.75 4.35 -5.35 2.95 -5.95 1.5 -7.2 0.75 -8.45 0.0 -9.6 0.25 M-3.15 11.0 L-2.2 11.75 -0.55 12.3 0.5 12.35 1.95 11.8 Q2.9 11.2 3.0 10.15 L3.0 10.05 3.0 9.9 Q2.9 8.7 1.85 7.7 0.75 6.75 -0.75 6.5 -2.25 6.25 -3.25 6.9 L-3.8 7.4 -3.9 7.55 -3.95 7.7 Q-4.3 8.2 -4.25 8.85 -4.2 10.05 -3.15 11.0" fill="#9e929e" fill-rule="evenodd" stroke="none"/>
    </g>
    <g id="sprite3" transform="matrix(1.0, 0.0, 0.0, 1.0, 2.65, 1.4)">
      <use height="7.4" transform="matrix(0.871, 0.0, 0.0, 0.6319, -2.4729, -0.9882)" width="7.4" xlink:href="#sprite4"/>
      <use height="7.4" transform="matrix(0.871, 0.0, 0.0, 0.6319, -2.6729, -0.9882)" width="7.4" xlink:href="#sprite4"/>
      <use height="4.1" transform="matrix(1.0, 0.0, 0.0, 1.0, -2.0, -1.4)" width="4.9" xlink:href="#shape7"/>
    </g>
    <g id="sprite4" transform="matrix(1.0, 0.0, 0.0, 1.0, 3.7, 3.7)">
      <use height="7.4" transform="matrix(1.0, 0.0, 0.0, 1.0, -3.7, -3.7)" width="7.4" xlink:href="#shape6"/>
    </g>
    <g id="shape6" transform="matrix(1.0, 0.0, 0.0, 1.0, 3.7, 3.7)">
      <path d="M2.6 -2.65 Q3.7 -1.55 3.7 0.0 3.7 1.55 2.6 2.6 1.55 3.7 0.0 3.7 -1.55 3.7 -2.65 2.6 -3.7 1.55 -3.7 0.0 -3.7 -1.55 -2.65 -2.65 -1.55 -3.7 0.0 -3.7 1.55 -3.7 2.6 -2.65" fill="url(#gradient2)" fill-rule="evenodd" stroke="none"/>
    </g>
    <radialGradient cx="0" cy="0" gradientTransform="matrix(0.0046, 0.0, 0.0, 0.0046, 0.0, 0.0)" gradientUnits="userSpaceOnUse" id="gradient2" r="819.2" spreadMethod="pad">
      <stop offset="0.0" stop-color="#000000"/>
      <stop offset="1.0" stop-color="#010101" stop-opacity="0.0"/>
    </radialGradient>
    <g id="shape7" transform="matrix(1.0, 0.0, 0.0, 1.0, 2.0, 1.4)">
      <path d="M-0.05 -1.2 L1.75 -1.1 Q2.55 -0.7 2.75 0.05 2.95 0.8 2.45 1.5 L0.95 2.5 -0.8 2.4 Q-1.65 2.05 -1.85 1.3 -2.05 0.5 -1.5 -0.2 -1.0 -0.95 -0.05 -1.2" fill="#472d05" fill-rule="evenodd" stroke="none"/>
      <path d="M-0.05 -1.2 L1.75 -1.1 Q2.55 -0.7 2.75 0.05 2.95 0.8 2.45 1.5 L0.95 2.5 -0.8 2.4 Q-1.65 2.05 -1.85 1.3 -2.05 0.5 -1.5 -0.2 -1.0 -0.95 -0.05 -1.2 Z" fill="none" stroke="#5f3c07" stroke-linecap="round" stroke-linejoin="round" stroke-opacity="0.4" stroke-width="0.25"/>
      <path d="M1.45 -0.1 Q1.6 0.35 1.35 0.8 L0.5 1.45 -0.55 1.3 Q-1.05 1.05 -1.15 0.6 -1.3 0.05 -1.0 -0.4 L-0.15 -0.95 0.9 -0.85 1.45 -0.1" fill="#86540b" fill-rule="evenodd" stroke="none"/>
      <path d="M1.85 -0.55 L1.95 -0.15 1.55 0.0 1.0 -0.15 0.6 -0.55 0.55 -0.95 0.9 -1.1 1.45 -0.9 1.85 -0.55" fill="#f3bb69" fill-rule="evenodd" stroke="none"/>
    </g>
    <g id="sprite5" transform="matrix(1.0, 0.0, 0.0, 1.0, 3.2, 1.3)">
      <use height="7.4" transform="matrix(0.871, 0.0, 0.0, 0.6319, -2.4729, -0.9882)" width="7.4" xlink:href="#sprite4"/>
      <use height="7.4" transform="matrix(0.871, 0.0, 0.0, 0.6319, -3.2229, -0.9882)" width="7.4" xlink:href="#sprite4"/>
      <use height="4.0" transform="matrix(1.0, 0.0, 0.0, 1.0, -2.0, -1.3)" width="5.0" xlink:href="#shape8"/>
    </g>
    <g id="shape8" transform="matrix(1.0, 0.0, 0.0, 1.0, 2.0, 1.3)">
      <path d="M0.5 -1.2 Q1.5 -1.2 2.25 -0.65 2.9 -0.1 2.9 0.7 2.9 1.45 2.2 2.05 1.5 2.6 0.5 2.6 -0.45 2.6 -1.1 2.05 -1.9 1.5 -1.9 0.7 -1.9 -0.1 -1.15 -0.65 -0.45 -1.2 0.5 -1.2" fill="#472d05" fill-rule="evenodd" stroke="none"/>
      <path d="M0.5 -1.2 Q1.5 -1.2 2.25 -0.65 2.9 -0.1 2.9 0.7 2.9 1.45 2.2 2.05 1.5 2.6 0.5 2.6 -0.45 2.6 -1.1 2.05 -1.9 1.5 -1.9 0.7 -1.9 -0.1 -1.15 -0.65 -0.45 -1.2 0.5 -1.2 Z" fill="none" stroke="#5f3c07" stroke-linecap="round" stroke-linejoin="round" stroke-opacity="0.4" stroke-width="0.25"/>
      <path d="M1.7 0.25 L1.35 1.05 0.35 1.5 -0.65 1.05 -1.0 0.25 Q-1.0 -0.35 -0.6 -0.7 L0.35 -1.0 Q0.95 -1.0 1.3 -0.6 L1.7 0.25" fill="#86540b" fill-rule="evenodd" stroke="none"/>
      <path d="M2.2 -0.1 L2.2 0.3 1.75 0.35 1.25 0.05 Q1.05 -0.15 1.0 -0.45 0.9 -0.7 1.05 -0.8 L1.4 -0.85 1.9 -0.5 2.2 -0.1" fill="#f3bb69" fill-rule="evenodd" stroke="none"/>
    </g>
    <g id="sprite6" transform="matrix(1.0, 0.0, 0.0, 1.0, 0.7, 0.75)">
      <use height="2.3" transform="matrix(0.5652, 0.0, 0.0, 0.5652, -0.7, -0.75)" width="2.3" xlink:href="#sprite7"/>
    </g>
    <g id="sprite7" transform="matrix(1.0, 0.0, 0.0, 1.0, 1.15, 1.15)">
      <use height="2.3" transform="matrix(1.0, 0.0, 0.0, 1.0, -1.15, -1.15)" width="2.3" xlink:href="#shape9"/>
    </g>
    <g id="shape9" transform="matrix(1.0, 0.0, 0.0, 1.0, 1.15, 1.15)">
      <path d="M0.8 0.8 Q0.5 1.15 0.0 1.15 -0.5 1.15 -0.85 0.8 L-1.15 0.0 -0.85 -0.85 Q-0.5 -1.15 0.0 -1.15 L0.8 -0.85 1.15 0.0 Q1.15 0.5 0.8 0.8" fill="url(#gradient3)" fill-rule="evenodd" stroke="none"/>
    </g>
    <radialGradient cx="0" cy="0" gradientTransform="matrix(0.0018, 0.0, 0.0, 0.0018, 0.0, 0.0)" gradientUnits="userSpaceOnUse" id="gradient3" r="819.2" spreadMethod="pad">
      <stop offset="0.0" stop-color="#fee3bc"/>
      <stop offset="0.5372549019607843" stop-color="#ffe3bd" stop-opacity="0.0"/>
    </radialGradient>
    <g id="shape10" transform="matrix(1.0, 0.0, 0.0, 1.0, -4.0, -7.45)">
      <path d="M30.8 16.65 L28.7 15.15 26.0 13.35 Q24.6 12.45 23.2 11.7 L20.55 10.3 19.4 9.8 19.0 9.6 17.8 9.1 16.6 8.65 16.05 8.5 Q14.1 7.9 12.85 7.95 11.9 7.95 11.3 8.3 L10.9 8.65 10.8 8.75 Q10.6 9.0 10.55 9.4 L7.55 16.15 7.3 16.65 Q6.95 17.75 7.7 19.5 L7.85 19.5 8.0 19.65 7.9 19.9 7.95 20.05 8.75 21.45 7.35 20.35 6.35 21.35 8.1 24.6 5.5 25.9 4.5 26.9 12.9 30.1 13.0 32.35 16.4 34.8 18.35 34.25 23.75 41.55 24.75 40.55 25.35 37.6 28.4 38.3 28.55 38.3 28.45 38.25 29.55 37.3 27.6 35.8 29.0 35.55 30.85 36.05 33.55 36.3 35.5 35.95 36.7 35.2 36.95 34.8 40.9 30.55 40.85 30.5 41.0 30.45 41.5 29.9 Q42.1 28.7 40.6 26.35 L39.9 25.3 38.8 23.9 36.7 21.65 33.75 19.0 31.05 16.85 30.8 16.65 M27.2 23.0 L24.8 21.3 22.75 19.95 Q21.7 19.25 20.65 18.7 L20.45 18.6 20.05 18.65 20.35 20.0 21.1 20.6 21.8 21.1 23.65 22.45 25.7 23.85 26.2 24.2 26.6 24.45 27.0 24.7 29.2 24.55 28.15 23.75 27.55 23.25 27.2 23.0" fill="none" stroke="#000000" stroke-linecap="round" stroke-linejoin="round" stroke-opacity="0.3019608" stroke-width="1.0"/>
    </g>
    <g id="sprite8" transform="matrix(1.0, 0.0, 0.0, 1.0, 0.0, -2.9)">
      <use height="41.15" transform="matrix(1.0, 0.0, 0.0, 1.0, 0.0, 2.9)" width="28.7" xlink:href="#shape11"/>
    </g>
    <g id="shape11" transform="matrix(1.0, 0.0, 0.0, 1.0, 0.0, -2.9)">
      <path d="M16.3 19.25 L23.95 17.6 28.6 17.45 Q29.2 18.0 25.9 19.45 21.9 20.95 15.7 22.7 L15.65 22.7 13.4 23.35 5.45 25.2 0.1 25.45 Q-0.5 24.9 3.5 23.35 6.75 21.9 12.95 20.15 L14.05 19.85 16.3 19.25" fill="url(#gradient4)" fill-rule="evenodd" stroke="none"/>
      <path d="M15.65 22.7 L12.5 38.25 Q11.15 44.05 10.7 44.05 10.2 44.05 10.9 38.3 L13.4 23.35 15.65 22.7 M14.05 19.85 L16.75 6.7 17.75 2.9 18.85 2.9 18.35 6.65 16.3 19.25 14.05 19.85" fill="url(#gradient5)" fill-rule="evenodd" stroke="none"/>
    </g>
    <radialGradient cx="0" cy="0" gradientTransform="matrix(-0.0227, 0.0064, -0.0022, -0.002, 14.35, 21.45)" gradientUnits="userSpaceOnUse" id="gradient4" r="819.2" spreadMethod="pad">
      <stop offset="0.0" stop-color="#fee3bc"/>
      <stop offset="0.5372549019607843" stop-color="#ffe3bd" stop-opacity="0.0"/>
    </radialGradient>
    <radialGradient cx="0" cy="0" gradientTransform="matrix(0.0065, -0.0351, 0.0017, 0.0, 14.75, 22.0)" gradientUnits="userSpaceOnUse" id="gradient5" r="819.2" spreadMethod="pad">
      <stop offset="0.0" stop-color="#fee3bc"/>
      <stop offset="0.5372549019607843" stop-color="#ffe3bd" stop-opacity="0.0"/>
    </radialGradient>
  </defs>
</svg>
