<?xml version="1.0" encoding="UTF-8" standalone="no"?>
<svg xmlns:xlink="http://www.w3.org/1999/xlink" height="440.0px" width="440.0px" xmlns="http://www.w3.org/2000/svg">
  <g transform="matrix(10.0, 0.0, 0.0, 10.0, 0.0, 0.0)">
    <use height="44.0" transform="matrix(1.0, 0.0, 0.0, 1.0, 0.0, 0.0)" width="44.0" xlink:href="#shape0"/>
    <use height="47.4" transform="matrix(0.8391, 0.0, 0.0, 0.8391, -3.7276, 0.508)" width="53.05" xlink:href="#sprite0"/>
    <use height="43.0" transform="matrix(0.8391, 0.0, 0.0, 0.8391, 4.4598, 4.3598)" width="43.0" xlink:href="#sprite2"/>
    <use height="43.0" transform="matrix(0.8391, 0.0, 0.0, 0.8391, 4.4598, 4.2098)" width="43.0" xlink:href="#sprite3"/>
    <use height="37.05" transform="matrix(1.0, 0.0, 0.0, 1.0, 3.65, 3.65)" width="37.1" xlink:href="#shape6"/>
    <use height="31.2" transform="matrix(0.8391, 0.0, 0.0, 0.8391, 4.2908, 5.0603)" width="40.85" xlink:href="#sprite4"/>
    <use height="31.2" transform="matrix(0.8391, 0.0, 0.0, 0.8391, 4.2908, 5.0603)" width="40.85" xlink:href="#sprite4"/>
    <use height="54.3" transform="matrix(0.8391, 0.0, 0.0, 0.8391, -4.8489, -5.2351)" width="54.7" xlink:href="#sprite5"/>
  </g>
  <defs>
    <g id="shape0" transform="matrix(1.0, 0.0, 0.0, 1.0, 0.0, 0.0)">
      <path d="M44.0 44.0 L0.0 44.0 0.0 0.0 44.0 0.0 44.0 44.0" fill="#43adca" fill-opacity="0.0" fill-rule="evenodd" stroke="none"/>
      <path d="M22.5 4.35 Q29.95 4.35 35.25 9.65 40.55 14.9 40.55 22.4 40.55 29.85 35.25 35.15 29.95 40.45 22.5 40.45 15.05 40.45 9.75 35.15 4.45 29.85 4.45 22.4 4.45 14.9 9.75 9.65 15.05 4.35 22.5 4.35 M32.1 19.85 Q30.75 19.3 29.15 19.3 25.35 19.3 21.95 21.95 18.5 24.6 17.5 28.4 17.05 30.05 17.2 31.55 17.4 33.4 18.45 34.85 20.45 37.55 24.2 37.55 27.1 37.55 29.7 36.05 L31.35 34.85 Q34.75 32.15 35.75 28.4 L36.0 27.25 Q36.45 24.2 34.85 21.95 33.75 20.45 32.1 19.85" fill="#090a09" fill-rule="evenodd" stroke="none"/>
      <path d="M32.1 19.85 Q33.75 20.45 34.85 21.95 36.45 24.2 36.0 27.25 L35.75 28.4 Q34.75 32.15 31.35 34.85 L29.7 36.05 Q27.1 37.55 24.2 37.55 20.45 37.55 18.45 34.85 17.4 33.4 17.2 31.55 18.55 32.1 20.25 32.1 L20.55 32.1 Q24.15 31.95 27.35 29.4 L29.55 27.3 Q31.15 25.35 31.75 22.95 32.25 21.25 32.1 19.85" fill="#3f4238" fill-rule="evenodd" stroke="none"/>
      <path d="M36.1 27.25 L35.85 28.4 Q34.85 32.15 31.45 34.85 L29.75 36.05 28.85 36.3 22.4 36.7 Q19.7 36.05 19.7 34.25 19.7 33.2 20.65 32.1 24.2 31.95 27.45 29.4 L29.65 27.3 35.3 27.05 36.1 27.25" fill="#ffffff" fill-opacity="0.050980393" fill-rule="evenodd" stroke="none"/>
    </g>
    <g id="sprite0" transform="matrix(1.0, 0.0, 0.0, 1.0, 26.55, 13.1)">
      <clipPath id="clipPath0" transform="matrix(1.0, 0.0, 0.0, 1.0, 26.55, 13.1)">
        <use height="43.0" transform="matrix(1.0, 0.0, 0.0, 1.0, -17.0, -8.7)" width="43.0" xlink:href="#shape1"/>
      </clipPath>
      <g clip-path="url(#clipPath0)">
        <use height="22.95" transform="matrix(1.0, 0.0, 0.0, 1.0, -18.05, -11.45)" width="36.1" xlink:href="#shape2"/>
        <use height="28.6" transform="matrix(1.0, 0.0, 0.2797, 1.0, -26.5501, -13.1)" width="45.05" xlink:href="#sprite1"/>
      </g>
    </g>
    <g id="shape1" transform="matrix(1.0, 0.0, 0.0, 1.0, 17.0, 8.7)">
      <path d="M19.7 -2.4 Q26.0 3.9 26.0 12.8 26.0 21.7 19.7 28.0 13.4 34.3 4.5 34.3 -4.4 34.3 -10.7 28.0 -17.0 21.7 -17.0 12.8 -17.0 3.9 -10.7 -2.4 -4.4 -8.7 4.5 -8.7 13.4 -8.7 19.7 -2.4" fill="#cccc33" fill-rule="evenodd" stroke="none"/>
      <path d="M19.7 -2.4 Q26.0 3.9 26.0 12.8 26.0 21.7 19.7 28.0 13.4 34.3 4.5 34.3 -4.4 34.3 -10.7 28.0 -17.0 21.7 -17.0 12.8 -17.0 3.9 -10.7 -2.4 -4.4 -8.7 4.5 -8.7 13.4 -8.7 19.7 -2.4 Z" fill="none" stroke="#ff66cc" stroke-linecap="round" stroke-linejoin="round" stroke-width="0.05"/>
    </g>
    <g id="shape2" transform="matrix(1.0, 0.0, 0.0, 1.0, 18.05, 11.45)">
      <path d="M16.3 -0.1 Q14.3 3.0 10.65 5.45 8.6 6.85 6.05 8.0 -0.9 11.35 -7.75 11.5 -14.4 11.5 -16.95 8.2 -19.5 4.75 -16.25 0.0 -13.0 -4.65 -6.05 -8.05 0.95 -11.4 7.8 -11.45 14.5 -11.5 16.95 -8.1 17.85 -6.95 18.0 -5.5 18.3 -3.0 16.3 -0.1" fill="url(#gradient0)" fill-rule="evenodd" stroke="none"/>
    </g>
    <radialGradient cx="0" cy="0" gradientTransform="matrix(0.0289, -0.0103, 0.0045, 0.0141, -5.2, -3.65)" gradientUnits="userSpaceOnUse" id="gradient0" r="819.2" spreadMethod="pad">
      <stop offset="0.0" stop-color="#ffffff" stop-opacity="0.6"/>
      <stop offset="1.0" stop-color="#ffffff" stop-opacity="0.0"/>
    </radialGradient>
    <g id="sprite1" transform="matrix(1.0, 0.0, 0.0, 1.0, 22.5, 14.3)">
      <use height="28.6" transform="matrix(1.0, 0.0, 0.0, 1.0, -22.5, -14.3)" width="45.05" xlink:href="#shape3"/>
    </g>
    <g id="shape3" transform="matrix(1.0, 0.0, 0.0, 1.0, 22.5, 14.3)">
      <path d="M20.35 -0.15 Q17.9 3.7 13.35 6.75 10.75 8.5 7.6 9.9 -1.05 14.1 -9.6 14.3 -17.9 14.3 -21.1 10.15 -24.25 5.85 -20.2 -0.05 -16.15 -5.85 -7.5 -10.1 1.25 -14.25 9.75 -14.3 18.1 -14.4 21.2 -10.15 22.3 -8.7 22.5 -6.9 22.85 -3.8 20.35 -0.15" fill="url(#gradient1)" fill-rule="evenodd" stroke="none"/>
    </g>
    <radialGradient cx="0" cy="0" gradientTransform="matrix(0.0584, -0.0207, 0.0091, 0.0285, -4.85, -11.0)" gradientUnits="userSpaceOnUse" id="gradient1" r="819.2" spreadMethod="pad">
      <stop offset="0.0" stop-color="#ffffff" stop-opacity="0.2509804"/>
      <stop offset="1.0" stop-color="#ffffff" stop-opacity="0.0"/>
    </radialGradient>
    <g id="sprite2" transform="matrix(1.0, 0.0, 0.0, 1.0, 21.5, 21.5)">
      <use height="43.0" transform="matrix(1.0, 0.0, 0.0, 1.0, -21.5, -21.5)" width="43.0" xlink:href="#shape4"/>
    </g>
    <g id="shape4" transform="matrix(1.0, 0.0, 0.0, 1.0, 21.5, 21.5)">
      <path d="M-5.95 7.15 Q-6.5 9.15 -6.3 10.9 -6.1 13.1 -4.8 14.85 -2.45 18.05 2.05 18.05 5.45 18.05 8.55 16.25 L10.55 14.85 Q14.6 11.65 15.8 7.15 L16.1 5.8 Q16.65 2.15 14.7 -0.5 13.4 -2.3 11.45 -3.05 L7.9 -3.7 Q3.4 -3.7 -0.65 -0.5 -4.75 2.65 -5.95 7.15 M-15.2 15.2 Q-21.5 8.9 -21.5 0.0 -21.5 -8.9 -15.2 -15.2 -8.9 -21.5 0.0 -21.5 8.9 -21.5 15.2 -15.2 21.5 -8.9 21.5 0.0 21.5 8.9 15.2 15.2 8.9 21.5 0.0 21.5 -8.9 21.5 -15.2 15.2" fill="url(#gradient2)" fill-rule="evenodd" stroke="none"/>
    </g>
    <linearGradient gradientTransform="matrix(0.0262, 0.0, 0.0, 0.0262, 0.0, 0.0)" gradientUnits="userSpaceOnUse" id="gradient2" spreadMethod="pad" x1="-819.2" x2="819.2">
      <stop offset="0.0" stop-color="#ffffff"/>
      <stop offset="1.0" stop-color="#000000"/>
    </linearGradient>
    <g id="sprite3" transform="matrix(1.0, 0.0, 0.0, 1.0, 21.5, 21.5)">
      <use height="43.0" transform="matrix(1.0, 0.0, 0.0, 1.0, -21.5, -21.5)" width="43.0" xlink:href="#shape5"/>
    </g>
    <g id="shape5" transform="matrix(1.0, 0.0, 0.0, 1.0, 21.5, 21.5)">
      <path d="M11.45 -3.05 L7.9 -3.7 Q3.4 -3.7 -0.65 -0.5 -4.75 2.65 -5.95 7.15 -6.5 9.15 -6.3 10.9 -6.1 13.1 -4.8 14.85 -2.45 18.05 2.05 18.05 5.45 18.05 8.55 16.25 L10.55 14.85 Q14.6 11.65 15.8 7.15 L16.1 5.8 Q16.65 2.15 14.7 -0.5 13.4 -2.3 11.45 -3.05 M15.2 15.2 Q8.9 21.5 0.0 21.5 -8.9 21.5 -15.2 15.2 -21.5 8.9 -21.5 0.0 -21.5 -8.9 -15.2 -15.2 -8.9 -21.5 0.0 -21.5 8.9 -21.5 15.2 -15.2 21.5 -8.9 21.5 0.0 21.5 8.9 15.2 15.2" fill="url(#gradient3)" fill-rule="evenodd" stroke="none"/>
    </g>
    <linearGradient gradientTransform="matrix(0.0206, 0.0163, -0.0163, 0.0206, 0.0, 0.0)" gradientUnits="userSpaceOnUse" id="gradient3" spreadMethod="pad" x1="-819.2" x2="819.2">
      <stop offset="0.0" stop-color="#ff0000"/>
      <stop offset="1.0" stop-color="#ff0000" stop-opacity="0.0"/>
    </linearGradient>
    <g id="shape6" transform="matrix(1.0, 0.0, 0.0, 1.0, -3.65, -3.65)">
      <path d="M34.95 34.95 Q29.7 40.2 22.2 40.2 14.75 40.2 9.45 34.95 4.15 29.65 4.15 22.15 4.15 14.7 9.45 9.4 14.75 4.15 22.2 4.15 29.7 4.15 34.95 9.4 40.25 14.7 40.25 22.15 40.25 29.65 34.95 34.95 Z" fill="none" stroke="#000000" stroke-linecap="round" stroke-linejoin="round" stroke-opacity="0.3019608" stroke-width="1.0"/>
      <path d="M19.35 15.6 L18.75 15.2 17.15 14.4 21.55 8.5 21.3 10.9 18.8 14.1 19.35 15.6 M17.35 7.95 L15.35 10.3 Q12.75 13.7 11.35 16.95 L10.2 16.95 Q11.55 13.75 14.55 10.2 L17.35 7.35 17.35 7.95 M14.9 21.8 L14.7 22.75 14.35 25.9 12.6 26.4 12.55 26.4 Q12.7 24.95 13.5 22.85 L14.4 20.9 14.9 21.8 M5.75 22.6 Q5.9 19.85 6.95 17.35 L7.9 15.6 8.3 16.2 7.45 18.55 Q6.8 20.65 6.75 22.45 L5.8 22.6 5.75 22.6" fill="#bf5920" fill-rule="evenodd" stroke="none"/>
      <path d="M31.5 13.45 Q31.85 10.65 30.4 8.05 29.45 6.45 27.9 5.1 L28.1 5.0 Q33.25 8.5 31.8 13.9 31.0 17.0 28.85 19.3 30.75 16.75 31.3 14.4 L30.75 13.9 31.5 13.45 M22.9 17.25 L22.6 17.8 Q23.5 19.1 24.0 20.65 22.25 17.6 19.35 15.6 L18.8 14.1 20.85 15.7 22.05 17.0 22.9 17.25 M21.55 8.5 Q20.05 7.8 17.95 7.45 L17.8 7.4 17.35 7.95 17.35 7.35 15.2 7.15 13.25 7.1 15.25 6.8 Q19.85 6.3 23.2 8.3 L22.75 8.9 22.9 9.25 22.6 9.2 21.3 10.9 21.55 8.5 M11.35 16.95 L11.05 17.75 Q14.25 20.6 20.3 23.5 17.6 22.55 15.05 21.2 L14.9 21.8 14.4 20.9 12.85 19.95 Q11.0 18.85 9.75 17.75 L8.3 16.2 7.9 15.6 7.8 15.4 Q6.75 13.45 7.6 11.6 7.4 12.7 8.0 13.9 8.7 15.45 10.2 16.95 L11.35 16.95 M14.35 25.9 L14.35 26.7 18.0 26.9 Q14.7 27.6 11.25 26.85 8.35 26.2 6.65 24.6 4.75 22.8 4.3 19.85 4.7 21.3 5.75 22.6 L5.8 22.6 6.75 22.45 6.75 23.6 Q8.95 25.6 12.55 26.4 L12.6 26.4 14.35 25.9 M35.75 12.3 Q35.6 11.0 35.0 9.8 L35.15 9.8 Q37.75 13.7 35.45 17.0 34.15 18.85 32.1 19.85 36.25 16.5 35.75 12.3 M12.6 30.8 Q14.8 30.6 17.5 28.4 L17.3 29.25 17.25 29.7 Q13.65 32.25 9.7 30.45 L12.6 30.8 M35.5 23.1 L35.5 21.65 Q37.0 20.75 37.8 19.4 L38.55 16.55 38.2 19.1 Q37.55 21.25 35.5 23.1" fill="#ffcc00" fill-rule="evenodd" stroke="none"/>
      <path d="M30.75 13.9 L30.6 13.85 28.6 12.3 27.85 11.8 27.15 12.2 27.2 11.35 Q24.9 9.95 22.9 9.25 L22.75 8.9 Q27.1 10.0 29.75 11.95 L31.5 13.45 30.75 13.9" fill="#da612e" fill-rule="evenodd" stroke="none"/>
      <path d="M27.15 12.2 Q25.9 13.15 24.3 15.25 L22.9 17.25 22.05 17.0 Q23.3 14.75 25.5 12.7 L27.2 11.35 27.15 12.2" fill="#823717" fill-rule="evenodd" stroke="none"/>
      <path d="M35.5 23.1 L34.85 21.95 35.5 21.65 35.5 23.1" fill="#585c4e" fill-rule="evenodd" stroke="none"/>
    </g>
    <g id="sprite4" transform="matrix(1.0, 0.0, 0.0, 1.0, 20.45, 15.6)">
      <use height="31.2" transform="matrix(1.0, 0.0, 0.0, 1.0, -20.45, -15.6)" width="40.85" xlink:href="#shape7"/>
    </g>
    <g id="shape7" transform="matrix(1.0, 0.0, 0.0, 1.0, 20.45, 15.6)">
      <path d="M7.9 -15.6 Q14.05 -11.45 12.35 -5.0 11.4 -1.35 8.8 1.4 11.05 -1.6 11.75 -4.4 L11.05 -5.0 10.9 -5.1 8.5 -6.95 7.6 -7.55 6.8 -7.05 Q5.3 -5.9 3.4 -3.4 L1.75 -1.0 1.35 -0.4 Q2.45 1.2 3.05 3.0 0.95 -0.6 -2.5 -3.0 L-3.25 -3.5 -5.1 -4.45 0.1 -11.45 Q-1.65 -12.3 -4.15 -12.7 L-4.35 -12.75 -7.3 -9.3 Q-10.4 -5.25 -12.05 -1.4 L-12.4 -0.45 Q-8.6 2.95 -1.35 6.4 -4.6 5.3 -7.65 3.7 L-8.05 5.5 -8.45 9.3 -8.45 10.25 -4.1 10.5 Q-8.05 11.3 -12.15 10.4 -15.6 9.65 -17.65 7.75 -19.9 5.6 -20.45 2.05 -19.95 3.8 -18.7 5.35 -18.55 2.1 -17.3 -0.9 L-16.15 -3.0 -16.25 -3.25 Q-17.55 -5.55 -16.5 -7.75 -16.75 -6.45 -16.05 -5.0 -15.2 -3.2 -13.4 -1.4 -11.8 -5.2 -8.2 -9.4 L-4.9 -12.8 -7.45 -13.05 -9.8 -13.1 -7.4 -13.5 Q-1.9 -14.05 2.1 -11.7 L1.55 -10.95 Q6.7 -9.65 9.9 -7.35 L11.95 -5.55 Q12.4 -8.9 10.65 -12.0 9.55 -13.9 7.7 -15.5 L7.9 -15.6 M1.35 -10.65 L-3.15 -4.8 -0.7 -2.85 0.7 -1.3 Q2.2 -4.0 4.85 -6.45 L6.85 -8.05 Q4.1 -9.7 1.7 -10.55 L1.35 -10.65 M16.7 -1.3 Q15.15 0.9 12.7 2.05 17.65 -1.95 17.05 -6.9 16.85 -8.45 16.15 -9.9 L16.3 -9.9 Q19.45 -5.25 16.7 -1.3 M19.5 1.55 L20.4 -1.85 19.95 1.2 Q19.2 3.75 16.75 5.95 L16.75 4.2 Q18.55 3.15 19.5 1.55 M-15.65 -2.25 L-16.7 0.5 Q-17.45 3.0 -17.55 5.15 L-17.55 6.55 Q-14.9 8.95 -10.6 9.9 -10.45 8.15 -9.45 5.65 L-8.4 3.3 -10.25 2.2 -13.95 -0.45 -15.65 -2.25 M-10.55 15.15 Q-7.95 14.9 -4.7 12.25 L-4.95 13.25 -5.0 13.8 Q-9.3 16.85 -14.0 14.7 L-10.55 15.15" fill="#ff6600" fill-rule="evenodd" stroke="none"/>
    </g>
    <g id="sprite5" transform="matrix(1.0, 0.0, 0.0, 1.0, 27.35, 24.95)">
      <clipPath id="clipPath1" transform="matrix(1.0, 0.0, 0.0, 1.0, 27.35, 24.95)">
        <use height="43.0" transform="matrix(1.0, 0.0, 0.0, 1.0, -16.15, -13.65)" width="43.0" xlink:href="#shape8"/>
      </clipPath>
      <g clip-path="url(#clipPath1)">
        <use height="14.0" transform="matrix(1.021, -0.5895, 1.1357, 1.9671, -27.3489, -2.57)" width="38.0" xlink:href="#sprite6"/>
        <use height="14.0" transform="matrix(0.2904, -0.503, 0.969, 0.5595, -22.301, 3.7899)" width="38.0" xlink:href="#sprite6"/>
        <use height="14.0" transform="matrix(0.2904, -0.503, 0.969, 0.5595, -19.551, 3.7899)" width="38.0" xlink:href="#sprite6"/>
        <use height="14.0" transform="matrix(0.7339, -0.4237, 0.8163, 1.4139, -21.1586, -5.6975)" width="38.0" xlink:href="#sprite6"/>
      </g>
    </g>
    <g id="shape8" transform="matrix(1.0, 0.0, 0.0, 1.0, 16.15, 13.65)">
      <path d="M20.55 -7.35 Q26.85 -1.05 26.85 7.85 26.85 16.75 20.55 23.05 14.25 29.35 5.35 29.35 -3.55 29.35 -9.85 23.05 -16.15 16.75 -16.15 7.85 -16.15 -1.05 -9.85 -7.35 -3.55 -13.65 5.35 -13.65 14.25 -13.65 20.55 -7.35 M21.15 15.0 L21.45 13.65 Q22.0 10.0 20.05 7.35 18.75 5.55 16.8 4.8 15.2 4.15 13.25 4.15 8.75 4.15 4.7 7.35 0.6 10.5 -0.6 15.0 -1.15 17.0 -0.95 18.75 -0.75 20.95 0.55 22.7 2.9 25.9 7.4 25.9 10.8 25.9 13.9 24.1 L15.9 22.7 Q19.95 19.5 21.15 15.0" fill="#ff6633" fill-rule="evenodd" stroke="none"/>
    </g>
    <g id="sprite6" transform="matrix(1.0, 0.0, 0.0, 1.0, 19.0, 7.0)">
      <use height="14.0" transform="matrix(1.0, 0.0, 0.0, 1.0, -19.0, -7.0)" width="38.0" xlink:href="#shape9"/>
    </g>
    <g id="shape9" transform="matrix(1.0, 0.0, 0.0, 1.0, 19.0, 7.0)">
      <path d="M13.4 -4.95 Q19.0 -2.9 19.0 0.0 19.0 2.9 13.4 4.95 7.85 7.0 0.0 7.0 -7.85 7.0 -13.45 4.95 -19.0 2.9 -19.0 0.0 -19.0 -2.9 -13.45 -4.95 -7.85 -7.0 0.0 -7.0 7.85 -7.0 13.4 -4.95" fill="url(#gradient4)" fill-rule="evenodd" stroke="none"/>
    </g>
    <radialGradient cx="0" cy="0" gradientTransform="matrix(0.0244, 0.0, 0.0, 0.0244, 0.0, 0.0)" gradientUnits="userSpaceOnUse" id="gradient4" r="819.2" spreadMethod="pad">
      <stop offset="0.0" stop-color="#ff6200" stop-opacity="0.3019608"/>
      <stop offset="1.0" stop-color="#ff6200" stop-opacity="0.0"/>
    </radialGradient>
  </defs>
</svg>
