<?xml version="1.0" encoding="UTF-8" standalone="no"?>
<svg xmlns:xlink="http://www.w3.org/1999/xlink" height="440.0px" width="440.0px" xmlns="http://www.w3.org/2000/svg">
  <g transform="matrix(10.0, 0.0, 0.0, 10.0, 0.0, 0.0)">
    <use height="44.0" transform="matrix(1.0, 0.0, 0.0, 1.0, 0.0, 0.0)" width="44.0" xlink:href="#shape0"/>
  </g>
  <defs>
    <g id="shape0" transform="matrix(1.0, 0.0, 0.0, 1.0, 0.0, 0.0)">
      <path d="M44.0 44.0 L0.0 44.0 0.0 0.0 44.0 0.0 44.0 44.0" fill="#43adca" fill-opacity="0.0" fill-rule="evenodd" stroke="none"/>
      <path d="M7.1 29.05 L8.35 27.8 9.05 26.15 9.05 28.15 7.45 29.9 7.1 29.05 M11.4 31.4 L11.85 31.05 Q12.65 30.2 13.15 28.35 L13.15 30.5 12.1 32.55 11.4 31.4 M17.5 33.85 L18.0 33.0 Q19.15 31.2 20.95 29.95 L19.95 32.7 18.25 34.85 17.5 33.85 M25.0 35.1 L25.45 35.2 Q26.75 35.3 27.25 33.8 L27.5 32.65 27.55 31.0 27.5 30.3 Q27.55 28.5 28.7 27.2 28.65 28.35 29.0 29.2 29.3 29.95 29.95 30.5 32.7 28.85 32.8 26.8 L32.1 25.35 Q30.75 22.75 28.25 20.65 L30.85 22.3 32.8 24.6 Q34.1 26.35 34.9 28.0 32.45 28.95 31.15 31.05 L30.45 32.25 29.65 34.7 Q29.0 34.7 28.7 33.7 28.5 35.85 27.3 36.95 L25.35 35.3 25.0 35.1 M17.75 38.95 L18.85 36.0 Q22.7 35.3 25.6 36.95 25.8 38.55 25.15 40.15 23.6 39.15 20.35 38.5 18.5 38.55 17.75 38.95 M28.5 30.7 L28.5 32.55 28.55 32.8 28.7 33.7 28.55 32.8 28.5 32.55 28.5 30.7 M11.45 33.55 Q15.35 32.8 17.1 35.25 16.15 38.05 14.7 39.1 13.55 38.35 11.6 37.8 9.05 37.3 8.7 37.8 L9.2 37.05 9.6 36.4 11.45 33.55 M6.6 30.8 Q9.75 30.9 10.45 33.0 9.35 34.5 7.85 34.8 L7.25 34.45 Q6.1 33.8 5.15 33.5 L4.15 33.45 5.05 32.5 5.7 31.75 6.6 30.8 M4.5 28.3 Q6.45 28.8 6.55 29.95 5.65 31.1 4.85 31.3 2.85 30.2 2.45 30.4 L4.5 28.3" fill="#1b2117" fill-rule="evenodd" stroke="none"/>
      <path d="M28.25 20.65 Q22.45 17.25 16.05 16.6 16.45 13.55 20.7 13.55 23.6 13.6 25.9 15.45 27.5 16.75 28.0 18.5 L28.05 18.75 Q28.35 19.65 28.25 20.65 M38.55 34.6 Q38.9 35.35 36.75 37.6 32.4 40.75 32.15 39.55 33.75 35.85 38.55 34.6 M26.25 41.3 Q24.45 41.8 22.95 41.3 18.95 40.65 17.75 38.95 18.5 38.55 20.35 38.5 23.6 39.15 25.15 40.15 25.9 40.65 26.25 41.3 M9.6 36.4 L9.2 37.05 8.55 36.9 Q7.55 36.65 6.35 36.0 L4.5 34.6 Q3.85 33.9 4.0 33.6 L4.15 33.45 5.15 33.5 Q6.1 33.8 7.25 34.45 L7.85 34.8 9.15 35.8 9.6 36.4 M8.7 37.8 Q9.05 37.3 11.6 37.8 13.55 38.35 14.7 39.1 15.8 39.9 16.1 40.95 13.6 41.0 12.65 40.45 9.15 38.9 8.7 37.8 M4.85 31.3 L5.7 31.75 5.05 32.5 Q3.25 31.8 2.35 30.5 L2.45 30.4 Q2.85 30.2 4.85 31.3" fill="#0f120c" fill-rule="evenodd" stroke="none"/>
      <path d="M35.4 28.7 L35.5 28.85 Q37.45 31.7 38.55 34.6 33.75 35.85 32.15 39.55 L30.5 36.35 Q30.05 32.35 35.4 28.7 M27.05 38.15 L26.25 41.3 Q25.9 40.65 25.15 40.15 25.8 38.55 25.6 36.95 L27.05 38.15 M17.1 35.25 L17.65 36.7 16.1 40.95 Q15.8 39.9 14.7 39.1 16.15 38.05 17.1 35.25 M11.45 33.55 L9.6 36.4 9.15 35.8 7.85 34.8 Q9.35 34.5 10.45 33.0 L11.45 33.55 M7.0 30.35 L6.6 30.8 5.7 31.75 4.85 31.3 Q5.65 31.1 6.55 29.95 L7.0 30.35" fill="#131710" fill-rule="evenodd" stroke="none"/>
      <path d="M13.8 16.65 L16.05 16.6 Q22.45 17.25 28.25 20.65 30.75 22.75 32.1 25.35 L32.8 26.8 Q32.7 28.85 29.95 30.5 29.3 29.95 29.0 29.2 28.65 28.35 28.7 27.2 27.55 28.5 27.5 30.3 L27.55 31.0 27.5 32.65 27.25 33.8 Q26.75 35.3 25.45 35.2 L25.0 35.1 24.6 34.9 19.15 35.05 19.95 32.7 20.95 29.95 Q19.15 31.2 18.0 33.0 L17.5 33.85 Q15.45 31.55 12.1 32.55 L13.15 30.5 13.15 28.35 Q12.65 30.2 11.85 31.05 L11.4 31.4 Q10.1 29.9 7.45 29.9 L9.05 28.15 9.05 26.15 8.35 27.8 7.1 29.05 Q6.3 27.65 4.5 28.3 L5.95 26.65 Q5.3 25.1 6.85 25.05 L7.4 25.05 13.8 16.65" fill="url(#gradient0)" fill-rule="evenodd" stroke="none"/>
      <path d="M16.05 16.6 L13.8 16.65 Q15.85 11.5 18.4 7.3 28.9 12.2 28.0 18.5 27.5 16.75 25.9 15.45 23.6 13.6 20.7 13.55 16.45 13.55 16.05 16.6" fill="url(#gradient1)" fill-rule="evenodd" stroke="none"/>
      <path d="M28.0 18.5 Q28.9 12.2 18.4 7.3 L21.2 3.15 Q31.05 4.8 37.4 9.65 34.55 17.15 30.85 22.3 L28.25 20.65 Q28.35 19.65 28.05 18.75 L28.0 18.5" fill="url(#gradient2)" fill-rule="evenodd" stroke="none"/>
      <path d="M4.5 28.3 Q6.3 27.65 7.1 29.05 L6.55 29.95 Q6.45 28.8 4.5 28.3 M7.45 29.9 Q10.1 29.9 11.4 31.4 L10.45 33.0 Q9.75 30.9 6.6 30.8 L7.0 30.35 7.45 29.9 M12.1 32.55 Q15.45 31.55 17.5 33.85 L17.1 35.25 Q15.35 32.8 11.45 33.55 L12.1 32.55 M19.15 35.05 L24.6 34.9 25.0 35.1 25.15 35.45 25.6 36.95 Q22.7 35.3 18.85 36.0 L19.15 35.05" fill="#d6a73e" fill-rule="evenodd" stroke="none"/>
      <path d="M34.9 28.0 L35.15 28.35 35.4 28.7 Q30.05 32.35 30.5 36.35 L29.65 34.7 30.45 32.25 31.15 31.05 Q32.45 28.95 34.9 28.0 M27.3 36.95 L27.05 38.15 25.6 36.95 25.15 35.45 25.0 35.1 25.35 35.3 27.3 36.95 M17.65 36.7 L17.1 35.25 17.5 33.85 18.25 34.85 17.65 36.7 M7.1 29.05 L7.45 29.9 7.0 30.35 6.55 29.95 7.1 29.05 M10.45 33.0 L11.4 31.4 12.1 32.55 11.45 33.55 10.45 33.0" fill="#806325" fill-rule="evenodd" stroke="none"/>
      <path d="M16.05 16.6 L13.8 16.65 7.4 25.05 6.85 25.05 Q5.3 25.1 5.95 26.65 L4.5 28.3 Q6.3 27.65 7.1 29.05 L7.45 29.9 7.0 30.35 6.6 30.8 M9.05 28.15 L7.45 29.9 Q10.1 29.9 11.4 31.4 L12.1 32.55 11.45 33.55 9.6 36.4 9.2 37.05 8.7 37.8 Q9.05 37.3 11.6 37.8 13.55 38.35 14.7 39.1 15.8 39.9 16.1 40.95 13.6 41.0 12.65 40.45 9.15 38.9 8.7 37.8 M13.15 30.5 L12.1 32.55 Q15.45 31.55 17.5 33.85 M19.95 32.7 L19.15 35.05 24.6 34.9 25.0 35.1 25.35 35.3 27.3 36.95 27.05 38.15 26.25 41.3 Q24.45 41.8 22.95 41.3 18.95 40.65 17.75 38.95 L18.85 36.0 19.15 35.05 M28.25 20.65 Q22.45 17.25 16.05 16.6 16.45 13.55 20.7 13.55 23.6 13.6 25.9 15.45 27.5 16.75 28.0 18.5 L28.05 18.75 Q28.35 19.65 28.25 20.65 L30.85 22.3 32.8 24.6 Q34.1 26.35 34.9 28.0 L35.15 28.35 35.4 28.7 35.5 28.85 Q37.45 31.7 38.55 34.6 38.9 35.35 36.75 37.6 32.4 40.75 32.15 39.55 L30.5 36.35 29.65 34.7 Q29.0 34.7 28.7 33.7 28.5 35.85 27.3 36.95 M18.4 7.3 Q15.85 11.5 13.8 16.65 M30.85 22.3 Q34.55 17.15 37.4 9.65 31.05 4.8 21.2 3.15 L18.4 7.3 M28.7 33.7 L28.55 32.8 28.5 32.55 28.5 30.7 M34.9 28.0 Q32.45 28.95 31.15 31.05 L30.45 32.25 29.65 34.7 M17.65 36.7 L18.25 34.85 17.5 33.85 M25.15 40.15 Q23.6 39.15 20.35 38.5 18.5 38.55 17.75 38.95 M16.1 40.95 L17.65 36.7 M25.15 40.15 Q25.9 40.65 26.25 41.3 M19.95 32.7 L18.25 34.85 M7.85 34.8 L9.15 35.8 9.6 36.4 M4.85 31.3 L5.7 31.75 6.6 30.8 M5.05 32.5 Q3.25 31.8 2.35 30.5 L2.45 30.4 4.5 28.3 M5.05 32.5 L5.7 31.75 M4.15 33.45 L5.05 32.5 M4.85 31.3 Q2.85 30.2 2.45 30.4 M4.15 33.45 L4.0 33.6 Q3.85 33.9 4.5 34.6 L6.35 36.0 Q7.55 36.65 8.55 36.9 L9.2 37.05 M4.0 33.6 L4.15 33.45 5.15 33.5 Q6.1 33.8 7.25 34.45 L7.85 34.8 M32.15 39.55 Q33.75 35.85 38.55 34.6" fill="none" stroke="#000000" stroke-linecap="round" stroke-linejoin="round" stroke-opacity="0.3019608" stroke-width="0.5"/>
      <path d="M35.65 15.6 Q33.9 11.7 27.85 9.1 21.65 6.45 17.4 7.75 18.35 5.5 20.55 3.7 30.8 4.45 38.05 10.75 37.25 13.4 35.65 15.6 M13.8 13.65 Q17.0 10.7 23.25 12.4 30.35 14.65 34.25 19.8 L33.1 19.8 Q28.6 15.2 22.1 13.05 15.9 12.25 14.55 14.8 L13.8 13.65" fill="#151a12" fill-rule="evenodd" stroke="none"/>
      <path d="M17.4 7.75 Q21.65 6.45 27.85 9.1 33.9 11.7 35.65 15.6 L35.9 16.35 34.25 19.8 Q30.35 14.65 23.25 12.4 17.0 10.7 13.8 13.65 14.45 11.1 17.05 7.85 L17.4 7.75" fill="url(#gradient3)" fill-rule="evenodd" stroke="none"/>
      <path d="M17.4 7.75 Q21.65 6.45 27.85 9.1 33.9 11.7 35.65 15.6 37.25 13.4 38.05 10.75 30.8 4.45 20.55 3.7 18.35 5.5 17.4 7.75 L17.05 7.85 Q14.45 11.1 13.8 13.65 L14.55 14.8 Q15.9 12.25 22.1 13.05 28.6 15.2 33.1 19.8 L34.25 19.8 35.9 16.35 35.65 15.6" fill="none" stroke="#000000" stroke-linecap="round" stroke-linejoin="round" stroke-opacity="0.3019608" stroke-width="0.5"/>
      <path d="M30.7 5.8 L31.75 5.0 32.85 5.05 Q32.85 6.55 29.55 7.6 29.95 6.5 30.7 5.8" fill="#c69b39" fill-rule="evenodd" stroke="none"/>
      <path d="M40.9 9.3 L40.05 11.35 37.25 12.85 Q34.4 13.85 30.55 11.45 33.4 12.45 36.5 11.55 38.7 11.0 40.9 9.3 M23.25 7.7 L17.45 7.85 17.0 6.95 16.85 6.6 Q19.3 6.35 23.25 7.7" fill="#10140e" fill-rule="evenodd" stroke="none"/>
      <path d="M32.85 5.05 Q33.75 5.4 33.5 6.8 31.05 6.55 30.55 11.45 L29.1 10.25 Q29.15 8.7 29.55 7.6 32.85 6.55 32.85 5.05" fill="#784f1c" fill-rule="evenodd" stroke="none"/>
      <path d="M29.1 10.25 Q27.85 9.4 26.6 8.85 24.95 8.05 23.25 7.7 19.3 6.35 16.85 6.6 16.85 6.15 18.35 4.05 19.85 2.0 20.5 1.6 25.15 1.75 28.95 4.7 L30.7 5.8 Q29.95 6.5 29.55 7.6 29.15 8.7 29.1 10.25" fill="url(#gradient4)" fill-rule="evenodd" stroke="none"/>
      <path d="M33.5 6.8 L38.65 7.8 40.9 9.3 Q38.7 11.0 36.5 11.55 33.4 12.45 30.55 11.45 31.05 6.55 33.5 6.8" fill="url(#gradient5)" fill-rule="evenodd" stroke="none"/>
      <path d="M30.7 5.8 L31.75 5.0 32.85 5.05 Q33.75 5.4 33.5 6.8 L38.65 7.8 40.9 9.3 40.05 11.35 37.25 12.85 Q34.4 13.85 30.55 11.45 L29.1 10.25 Q27.85 9.4 26.6 8.85 24.95 8.05 23.25 7.7 L17.45 7.85 17.0 6.95 16.85 6.6 Q16.85 6.15 18.35 4.05 19.85 2.0 20.5 1.6 25.15 1.75 28.95 4.7 L30.7 5.8 Q29.95 6.5 29.55 7.6 M29.1 10.25 Q29.15 8.7 29.55 7.6 M33.5 6.8 Q31.05 6.55 30.55 11.45" fill="none" stroke="#000000" stroke-linecap="round" stroke-linejoin="round" stroke-opacity="0.3019608" stroke-width="0.5"/>
      <path d="M27.0 15.4 L28.2 16.35 M20.55 12.75 L23.05 12.9 M16.5 13.55 L17.8 12.9 M14.85 16.0 L15.2 15.15 M34.35 15.25 L35.5 13.55 M31.9 19.3 L32.85 17.85 M36.65 32.35 L37.2 33.4 M30.5 21.5 L31.2 20.35 M30.25 22.2 L31.25 23.45 M32.0 24.6 L32.85 25.75 M33.5 26.75 L34.25 28.05 M28.2 31.05 L28.2 29.75 M19.15 32.65 L19.9 31.4 M16.3 38.55 L15.7 39.4 M17.45 35.45 L16.85 36.55 M26.7 37.25 L26.1 38.6 M26.55 35.8 L27.2 35.05 M28.0 34.05 L28.0 32.75 M17.65 34.15 L18.5 33.25 M6.0 30.8 L5.4 31.3 M7.4 29.2 L6.7 29.95 M8.45 27.3 L7.95 28.25 M10.25 34.15 L9.55 35.0 M11.45 32.2 L11.05 33.0 M12.5 30.0 L12.2 31.05 M35.15 29.45 L35.75 30.65 M28.75 18.1 L29.0 19.7" fill="none" stroke="#000000" stroke-linecap="round" stroke-linejoin="round" stroke-opacity="0.3019608" stroke-width="0.5"/>
      <path d="M23.35 8.9 L23.55 8.85 23.85 8.6 Q24.25 8.25 24.25 7.75 24.25 7.25 23.85 6.85 L23.55 6.6 23.0 6.45 22.55 6.55 22.7 6.4 23.1 6.1 23.75 5.95 Q24.4 5.95 24.8 6.4 25.25 6.85 25.25 7.45 25.25 8.05 24.8 8.5 L23.75 8.95 23.35 8.9 M25.15 14.35 Q21.75 12.35 19.35 9.2 L19.35 6.25 Q20.35 10.3 24.6 12.95 L25.15 14.35 M34.5 20.4 L33.0 20.3 Q31.7 17.3 27.85 15.5 L26.9 14.05 Q28.35 15.2 30.35 15.95 33.2 17.4 34.5 20.4 M29.05 12.95 L29.0 12.75 Q28.95 12.45 29.05 12.35 L29.4 11.9 30.7 11.75 Q31.45 11.9 32.0 12.4 32.6 12.95 32.65 13.55 L32.2 14.35 31.85 14.55 31.95 14.4 31.9 14.05 31.45 13.15 Q30.95 12.7 30.3 12.6 L29.85 12.55 29.3 12.65 29.05 12.95" fill="#10140e" fill-rule="evenodd" stroke="none"/>
      <path d="M28.65 7.5 L29.6 7.55 Q30.95 8.7 29.95 9.9 29.0 9.6 27.85 11.0 L27.2 11.4 Q24.55 12.85 24.95 10.4 L25.8 9.3 25.85 9.2 Q25.9 10.55 28.35 9.2 29.7 8.25 28.65 7.5" fill="#c69b39" fill-rule="evenodd" stroke="none"/>
      <path d="M29.6 7.55 Q30.7 8.05 31.1 8.75 30.8 10.05 29.95 9.9 30.95 8.7 29.6 7.55 M24.95 10.4 Q24.55 12.85 27.2 11.4 25.4 14.75 24.6 12.95 24.3 11.65 24.95 10.4" fill="#784f1c" fill-rule="evenodd" stroke="none"/>
      <path d="M27.6 7.85 Q28.15 7.6 28.65 7.5 29.7 8.25 28.35 9.2 25.9 10.55 25.85 9.2 26.75 8.3 27.6 7.85" fill="#ffff99" fill-rule="evenodd" stroke="none"/>
      <path d="M25.15 14.35 L24.6 12.95 Q25.4 14.75 27.2 11.4 L27.85 11.0 Q26.35 12.5 26.9 14.05 L27.85 15.5 Q25.95 15.9 25.15 14.35 M31.1 8.75 Q31.5 9.6 30.95 10.75 30.5 10.05 29.95 9.9 30.8 10.05 31.1 8.75" fill="#634117" fill-rule="evenodd" stroke="none"/>
      <path d="M30.95 10.75 Q34.35 12.6 36.45 16.05 36.4 18.55 34.5 20.4 33.2 17.4 30.35 15.95 28.35 15.2 26.9 14.05 26.35 12.5 27.85 11.0 29.0 9.6 29.95 9.9 30.5 10.05 30.95 10.75 M31.85 14.55 L32.2 14.35 32.65 13.55 Q32.6 12.95 32.0 12.4 31.45 11.9 30.7 11.75 L29.4 11.9 29.05 12.35 Q28.95 12.45 29.0 12.75 L29.05 12.95 Q29.15 13.4 29.6 13.8 30.15 14.35 30.95 14.5 L31.55 14.55 31.85 14.55" fill="url(#gradient6)" fill-rule="evenodd" stroke="none"/>
      <path d="M23.35 8.9 L23.75 8.95 24.8 8.5 Q25.25 8.05 25.25 7.45 25.25 6.85 24.8 6.4 24.4 5.95 23.75 5.95 L23.1 6.1 22.7 6.4 22.55 6.55 Q22.25 6.95 22.25 7.45 22.25 8.05 22.7 8.5 L23.1 8.85 23.35 8.9 M24.6 12.95 Q20.35 10.3 19.35 6.25 L21.4 1.4 24.75 3.25 Q24.7 5.85 27.6 7.85 26.75 8.3 25.85 9.2 L25.8 9.3 24.95 10.4 Q24.3 11.65 24.6 12.95" fill="url(#gradient7)" fill-rule="evenodd" stroke="none"/>
      <path d="M22.55 6.55 L23.0 6.45 23.55 6.6 23.85 6.85 Q24.25 7.25 24.25 7.75 24.25 8.25 23.85 8.6 L23.55 8.85 23.35 8.9 23.75 8.95 24.8 8.5 Q25.25 8.05 25.25 7.45 25.25 6.85 24.8 6.4 24.4 5.95 23.75 5.95 L23.1 6.1 22.7 6.4 22.55 6.55 Q22.25 6.95 22.25 7.45 22.25 8.05 22.7 8.5 L23.1 8.85 23.35 8.9 M19.35 6.25 L19.35 9.2 Q21.75 12.35 25.15 14.35 L24.6 12.95 Q20.35 10.3 19.35 6.25 L21.4 1.4 24.75 3.25 Q24.7 5.85 27.6 7.85 28.15 7.6 28.65 7.5 L29.6 7.55 Q30.7 8.05 31.1 8.75 31.5 9.6 30.95 10.75 34.35 12.6 36.45 16.05 36.4 18.55 34.5 20.4 L33.0 20.3 Q31.7 17.3 27.85 15.5 25.95 15.9 25.15 14.35 M29.05 12.95 L29.0 12.75 Q28.95 12.45 29.05 12.35 L29.4 11.9 30.7 11.75 Q31.45 11.9 32.0 12.4 32.6 12.95 32.65 13.55 L32.2 14.35 31.85 14.55 31.55 14.55 30.95 14.5 Q30.15 14.35 29.6 13.8 29.15 13.4 29.05 12.95 L29.3 12.65 29.85 12.55 30.3 12.6 Q30.95 12.7 31.45 13.15 L31.9 14.05 31.95 14.4 31.85 14.55 M24.95 10.4 L25.8 9.3 25.85 9.2 Q26.75 8.3 27.6 7.85 M27.85 11.0 Q29.0 9.6 29.95 9.9 30.5 10.05 30.95 10.75 M27.85 15.5 L26.9 14.05 Q26.35 12.5 27.85 11.0 M34.5 20.4 Q33.2 17.4 30.35 15.95 28.35 15.2 26.9 14.05 M24.6 12.95 Q24.3 11.65 24.95 10.4" fill="none" stroke="#000000" stroke-linecap="round" stroke-linejoin="round" stroke-opacity="0.3019608" stroke-width="0.5"/>
      <path d="M14.65 19.35 L14.45 19.05 14.65 19.35 M14.45 19.05 Q15.8 18.4 17.55 18.25 20.1 18.1 22.1 18.95 25.15 20.0 25.6 22.35 L25.7 22.65 24.7 22.9 25.7 22.65 Q26.05 23.75 25.3 25.25 24.7 26.45 23.5 27.2 22.4 27.9 20.8 28.25 L21.45 28.3 Q22.25 29.55 21.95 30.85 19.65 31.95 16.15 31.25 16.15 30.5 17.6 28.7 L15.2 27.95 13.1 27.1 12.6 28.1 12.2 27.6 12.6 28.1 11.5 29.85 Q9.75 28.1 9.75 26.0 10.2 25.25 11.5 24.6 10.95 22.25 12.3 20.65 13.25 19.65 14.45 19.05 M16.15 22.6 Q16.25 21.75 15.55 21.15 14.95 20.65 14.55 20.7 12.55 20.9 12.4 22.3 12.3 23.15 12.8 24.0 L15.45 23.95 Q16.05 23.4 16.15 22.6 M22.1 23.55 Q20.4 22.9 19.05 24.15 17.9 25.25 18.1 25.8 18.2 26.3 18.95 26.6 L21.3 26.55 22.45 26.15 23.05 25.55 Q23.3 24.8 22.85 24.15 22.55 23.7 22.1 23.55 M23.0 26.65 L23.5 27.2 23.0 26.65" fill="#ffffcc" fill-rule="evenodd" stroke="none"/>
      <path d="M14.45 19.05 L14.65 19.35 M13.8 18.1 L14.45 19.05 M25.7 22.65 L26.8 22.35 M24.7 22.9 L25.7 22.65 M23.5 27.2 L23.8 27.55 M23.5 27.2 L23.0 26.65 M12.2 27.6 L12.6 28.1 13.1 28.7" fill="none" stroke="#000000" stroke-linecap="round" stroke-linejoin="round" stroke-opacity="0.3019608" stroke-width="0.5"/>
      <path d="M32.85 5.05 Q33.75 5.4 33.5 6.8 L38.65 7.8 40.9 9.3 40.05 11.35 37.3 12.8 35.9 15.2 36.45 16.05 Q36.4 18.55 34.5 20.4 L33.0 20.3 32.65 19.6 30.85 22.3 32.8 24.6 Q34.1 26.35 34.9 28.0 L35.15 28.35 35.5 28.85 Q37.45 31.7 38.55 34.6 38.9 35.35 36.75 37.6 32.4 40.75 32.15 39.55 L29.65 34.7 Q29.0 34.7 28.7 33.7 28.5 35.85 27.3 36.95 L26.25 41.3 Q24.45 41.8 22.95 41.3 18.95 40.65 17.75 38.95 L19.95 32.7 18.25 34.85 16.1 40.95 Q13.6 41.0 12.65 40.45 9.15 38.9 8.7 37.8 L9.2 37.05 8.55 36.9 Q7.55 36.65 6.35 36.0 L4.5 34.6 Q3.85 33.9 4.0 33.6 L5.05 32.5 Q3.25 31.8 2.35 30.5 L2.45 30.4 5.95 26.65 Q5.3 25.1 6.85 25.05 L7.4 25.05 13.8 16.65 14.65 14.7 14.55 14.8 13.8 13.65 Q14.45 11.1 17.05 7.85 L17.4 7.75 17.0 6.95 16.85 6.6 Q16.85 6.15 18.35 4.05 19.85 2.0 20.5 1.6 L21.3 1.65 21.4 1.4 22.0 1.75 Q25.8 2.25 28.95 4.7 L30.7 5.8 31.75 5.0 32.85 5.05 Z" fill="none" stroke="#000000" stroke-linecap="round" stroke-linejoin="round" stroke-opacity="0.4509804" stroke-width="0.7000000000000001"/>
      <path d="M28.45 6.4 L36.45 1.45 29.1 7.25 31.75 10.45 28.75 7.8 26.15 8.75 27.75 7.0 23.6 2.1 28.45 6.4" fill="#fcf3d8" fill-opacity="0.7921569" fill-rule="evenodd" stroke="none"/>
      <path d="M30.8 6.45 Q31.45 7.1 33.25 7.0 31.7 7.2 31.0 8.05 L30.45 9.15 Q29.8 9.95 28.8 9.95 27.7 10.0 26.9 9.3 L25.45 10.55 26.45 8.7 Q26.05 8.15 25.9 7.4 25.8 6.7 26.05 6.15 L25.45 5.3 26.55 5.55 26.55 5.45 Q27.25 4.75 28.2 4.7 29.25 4.7 30.05 5.45 L30.8 6.45 M27.05 7.25 Q27.1 7.85 27.5 8.2 27.95 8.55 28.5 8.5 29.0 8.5 29.3 8.15 L29.6 7.2 29.15 6.25 Q28.7 5.85 28.2 5.85 27.7 5.95 27.3 6.35 27.0 6.8 27.05 7.25" fill="#fcf3d8" fill-opacity="0.3019608" fill-rule="evenodd" stroke="none"/>
      <path d="M27.05 7.25 Q27.0 6.8 27.3 6.35 27.7 5.95 28.2 5.85 28.7 5.85 29.15 6.25 L29.6 7.2 29.3 8.15 Q29.0 8.5 28.5 8.5 27.95 8.55 27.5 8.2 27.1 7.85 27.05 7.25" fill="#fcf3d8" fill-opacity="0.84313726" fill-rule="evenodd" stroke="none"/>
    </g>
    <linearGradient gradientTransform="matrix(0.0107, 0.0135, -0.0089, 0.007, 14.45, 19.9)" gradientUnits="userSpaceOnUse" id="gradient0" spreadMethod="pad" x1="-819.2" x2="819.2">
      <stop offset="0.0" stop-color="#424f39"/>
      <stop offset="1.0" stop-color="#272e21"/>
    </linearGradient>
    <linearGradient gradientTransform="matrix(0.0124, -0.0072, 0.0059, 0.0101, 18.65, 11.25)" gradientUnits="userSpaceOnUse" id="gradient1" spreadMethod="pad" x1="-819.2" x2="819.2">
      <stop offset="0.0" stop-color="#424f39"/>
      <stop offset="1.0" stop-color="#151a12"/>
    </linearGradient>
    <linearGradient gradientTransform="matrix(0.0115, 0.0086, -0.0069, 0.0094, 20.35, 9.55)" gradientUnits="userSpaceOnUse" id="gradient2" spreadMethod="pad" x1="-819.2" x2="819.2">
      <stop offset="0.0" stop-color="#424f39"/>
      <stop offset="0.9725490196078431" stop-color="#151a12"/>
    </linearGradient>
    <linearGradient gradientTransform="matrix(0.0027, 7.0E-4, -0.002, 0.0074, 19.85, 12.65)" gradientUnits="userSpaceOnUse" id="gradient3" spreadMethod="pad" x1="-819.2" x2="819.2">
      <stop offset="0.0" stop-color="#2d3626"/>
      <stop offset="0.9725490196078431" stop-color="#171c14"/>
    </linearGradient>
    <linearGradient gradientTransform="matrix(0.0049, 0.0028, -0.0026, 0.0046, 23.25, 5.6)" gradientUnits="userSpaceOnUse" id="gradient4" spreadMethod="pad" x1="-819.2" x2="819.2">
      <stop offset="0.0" stop-color="#2d3626"/>
      <stop offset="0.9725490196078431" stop-color="#171c14"/>
    </linearGradient>
    <linearGradient gradientTransform="matrix(-0.0063, 0.0, 0.0, -0.0032, 35.7, 9.4)" gradientUnits="userSpaceOnUse" id="gradient5" spreadMethod="pad" x1="-819.2" x2="819.2">
      <stop offset="0.0" stop-color="#2d3626"/>
      <stop offset="0.9725490196078431" stop-color="#171c14"/>
    </linearGradient>
    <linearGradient gradientTransform="matrix(-0.0049, -0.0033, 0.0036, -0.0054, 31.55, 15.15)" gradientUnits="userSpaceOnUse" id="gradient6" spreadMethod="pad" x1="-819.2" x2="819.2">
      <stop offset="0.0" stop-color="#2d3626"/>
      <stop offset="0.9725490196078431" stop-color="#171c14"/>
    </linearGradient>
    <linearGradient gradientTransform="matrix(0.0016, 0.0028, -0.0061, 0.0035, 23.95, 8.55)" gradientUnits="userSpaceOnUse" id="gradient7" spreadMethod="pad" x1="-819.2" x2="819.2">
      <stop offset="0.0" stop-color="#2d3626"/>
      <stop offset="0.9725490196078431" stop-color="#171c14"/>
    </linearGradient>
  </defs>
</svg>
