<?xml version="1.0" encoding="UTF-8" standalone="no"?>
<svg xmlns:xlink="http://www.w3.org/1999/xlink" height="440.0px" width="440.0px" xmlns="http://www.w3.org/2000/svg">
  <g transform="matrix(10.0, 0.0, 0.0, 10.0, 0.0, 0.0)">
    <use height="44.0" transform="matrix(1.0, 0.0, 0.0, 1.0, 0.0, 0.0)" width="44.0" xlink:href="#shape0"/>
    <use height="39.45" transform="matrix(0.81, 0.0, 0.0, 0.81, 0.9, 9.2)" width="49.8" xlink:href="#sprite0"/>
    <use height="32.45" transform="matrix(1.0, 0.0, 0.0, 1.0, 1.45, 4.85)" width="40.85" xlink:href="#shape2"/>
  </g>
  <defs>
    <g id="shape0" transform="matrix(1.0, 0.0, 0.0, 1.0, 0.0, 0.0)">
      <path d="M44.0 44.0 L0.0 44.0 0.0 0.0 44.0 0.0 44.0 44.0" fill="#43adca" fill-opacity="0.0" fill-rule="evenodd" stroke="none"/>
    </g>
    <g id="sprite0" transform="matrix(1.0, 0.0, 0.0, 1.0, 0.0, 0.0)">
      <use height="39.45" transform="matrix(1.0, 0.0, 0.0, 1.0, 0.0, 0.0)" width="49.8" xlink:href="#shape1"/>
    </g>
    <g id="shape1" transform="matrix(1.0, 0.0, 0.0, 1.0, 0.0, 0.0)">
      <path d="M32.15 30.4 L32.15 30.2 Q32.0 28.35 31.05 27.6 L30.25 27.2 28.7 26.75 29.6 28.1 30.05 28.85 30.9 30.5 31.65 32.75 31.95 33.45 32.1 32.85 32.15 30.4 M49.6 30.85 L49.6 30.9 49.75 31.65 49.75 31.9 49.7 33.85 Q49.5 35.2 48.7 36.4 L47.4 37.85 46.0 38.65 45.2 39.0 36.15 39.4 35.2 39.4 Q27.45 39.15 23.05 37.85 L21.3 37.3 Q16.4 34.5 15.75 29.9 13.25 23.35 6.05 18.6 1.95 16.0 0.0 10.05 0.05 6.85 1.65 4.4 L4.25 1.7 Q6.95 0.0 8.85 0.0 11.35 -0.1 15.45 2.85 18.1 4.55 19.0 3.8 20.25 2.65 21.75 2.15 L23.9 1.8 25.25 2.15 26.95 2.85 28.85 4.45 29.3 4.95 Q29.85 5.9 30.05 7.2 L30.1 7.65 29.95 10.0 29.75 12.5 29.8 12.55 30.2 12.6 30.75 12.9 32.3 13.6 34.35 14.65 Q35.05 15.15 35.5 16.35 L35.85 17.25 36.15 18.0 36.4 19.3 36.4 20.15 36.75 22.2 37.2 23.15 Q37.6 23.75 37.3 24.25 L37.15 24.45 Q39.45 25.5 42.3 25.75 L44.15 25.95 Q46.4 26.25 47.3 26.85 48.8 27.85 49.45 30.25 L49.6 30.85" fill="#000000" fill-opacity="0.29803923" fill-rule="evenodd" stroke="none"/>
    </g>
    <g id="shape2" transform="matrix(1.0, 0.0, 0.0, 1.0, -1.45, -4.85)">
      <path d="M25.1 8.7 Q23.35 9.9 19.9 9.9 15.3 9.8 12.4 7.9 L11.9 7.45 Q11.65 7.25 11.6 7.35 L10.55 6.5 Q9.35 5.65 8.05 5.65 L6.35 5.95 Q5.7 6.15 5.15 6.5 7.35 5.1 8.9 5.1 10.9 5.0 14.25 7.4 16.35 8.8 17.1 8.2 18.1 7.25 19.35 6.85 L21.05 6.55 22.15 6.85 Q23.15 7.15 23.55 7.4 24.4 8.0 25.1 8.7 M37.45 26.15 Q39.3 26.35 40.0 26.85 41.25 27.65 41.75 29.6 L41.9 30.1 41.9 30.15 42.0 30.75 42.0 30.95 41.95 32.5 41.1 32.9 Q35.1 34.95 28.7 32.65 29.15 31.45 29.05 30.0 L29.0 29.95 28.9 29.25 28.95 29.25 30.0 30.25 30.65 30.45 30.65 30.65 30.65 31.25 Q30.7 31.6 32.75 31.75 L32.9 31.3 32.9 31.0 33.1 31.05 39.6 31.4 39.55 31.95 Q40.5 32.75 41.15 31.5 L41.15 31.15 41.3 31.1 41.55 31.05 41.9 30.15 41.35 29.65 41.0 29.75 40.5 28.9 Q39.75 28.15 38.95 28.55 L39.45 29.95 33.4 29.55 32.75 29.45 32.55 28.9 31.5 28.25 30.4 27.95 30.1 28.1 30.4 28.55 30.45 28.7 30.45 28.9 30.2 28.75 28.9 29.2 Q28.4 26.85 27.0 25.95 L26.55 25.75 37.45 26.15" fill="#f7ae09" fill-rule="evenodd" stroke="none"/>
      <path d="M25.8 15.25 L27.85 16.1 29.55 16.95 Q30.1 17.4 30.45 18.35 L30.75 19.1 Q28.95 20.1 21.4 16.35 L21.25 16.3 Q18.55 15.4 17.45 14.7 L17.3 14.6 16.55 13.85 16.35 13.45 16.35 13.35 17.0 13.75 18.15 14.2 18.7 14.35 21.45 14.6 Q23.25 14.4 25.8 15.25 M30.6 29.3 L30.45 28.9 30.45 28.7 30.4 28.55 30.1 28.1 30.4 27.95 31.5 28.25 32.55 28.9 32.75 29.45 32.9 29.8 Q32.15 30.9 30.6 29.3 M39.45 29.95 L38.95 28.55 Q39.75 28.15 40.5 28.9 L41.0 29.75 41.1 29.95 Q40.65 31.45 39.45 30.1 L39.45 29.95" fill="#993333" fill-rule="evenodd" stroke="none"/>
      <path d="M12.65 8.6 Q19.9 12.05 26.05 10.95 L26.1 11.3 Q23.6 14.4 18.15 14.2 L17.0 13.75 16.35 13.35 16.35 13.45 15.8 14.2 15.75 14.2 15.7 14.2 15.55 14.85 15.8 15.9 Q13.65 15.8 13.75 18.9 13.05 17.35 12.9 15.6 12.75 14.05 13.0 12.3 13.4 10.1 12.65 8.6 M30.2 37.0 Q23.95 36.8 20.4 35.75 L23.2 36.15 Q25.05 36.05 26.3 35.4 L27.65 34.2 28.5 33.1 28.7 32.65 Q35.1 34.95 41.1 32.9 36.7 36.65 30.2 37.0 M28.95 29.25 L28.9 29.2 30.2 28.75 30.45 28.9 30.6 29.3 30.65 29.75 28.95 29.2 28.95 29.25 M32.95 30.2 L32.9 29.8 32.75 29.45 33.4 29.55 39.45 29.95 39.45 30.1 39.6 30.55 32.95 30.2 M41.0 29.75 L41.35 29.65 41.9 30.15 41.1 30.3 41.1 29.95 41.0 29.75" fill="#9c6f05" fill-rule="evenodd" stroke="none"/>
      <path d="M30.65 29.75 L30.6 29.3 Q32.15 30.9 32.9 29.8 L32.95 30.2 33.0 30.5 32.9 31.0 32.9 31.3 32.75 31.75 Q30.7 31.6 30.65 31.25 L30.65 30.65 30.65 30.45 30.65 29.8 30.65 29.75 M41.15 31.15 L41.15 31.5 Q40.5 32.75 39.55 31.95 L39.6 31.4 39.6 30.6 39.6 30.55 39.45 30.1 Q40.65 31.45 41.1 29.95 L41.1 30.3 41.15 30.4 41.15 31.15" fill="#531c1c" fill-rule="evenodd" stroke="none"/>
      <path d="M30.65 30.45 L30.0 30.25 28.95 29.25 28.95 29.2 30.65 29.75 30.65 29.8 30.65 30.45 M32.9 31.0 L33.0 30.5 32.95 30.2 39.6 30.55 39.6 30.6 39.6 31.4 33.1 31.05 32.9 31.0 M41.9 30.15 L41.55 31.05 41.3 31.1 41.15 31.15 41.15 30.4 41.1 30.3 41.9 30.15" fill="#fac95a" fill-rule="evenodd" stroke="none"/>
      <path d="M25.1 8.7 L25.45 9.1 Q25.9 9.9 26.05 10.95 19.9 12.05 12.65 8.6 L12.45 8.2 11.6 7.35 Q11.65 7.25 11.9 7.45 L12.4 7.9 Q15.3 9.8 19.9 9.9 23.35 9.9 25.1 8.7 M31.8 24.9 Q33.65 25.75 35.95 25.95 L37.45 26.15 26.55 25.75 25.05 25.35 23.6 25.15 22.95 25.05 Q19.85 24.8 17.65 23.35 15.5 21.9 14.25 19.9 L13.75 18.9 Q13.65 15.8 15.8 15.9 18.05 16.65 19.55 17.65 21.85 20.25 21.5 21.65 L20.65 21.45 21.05 22.45 22.35 23.55 Q23.3 24.2 25.5 24.7 L28.5 25.25 30.15 25.2 31.5 25.05 31.6 24.95 31.75 24.9 31.8 24.9" fill="#c68b06" fill-rule="evenodd" stroke="none"/>
      <path d="M26.1 11.3 L25.95 13.2 Q25.8 14.25 25.8 15.25 23.25 14.4 21.45 14.6 L18.7 14.35 18.15 14.2 Q23.6 14.4 26.1 11.3 M41.95 32.5 Q41.8 33.6 41.15 34.6 L40.1 35.75 38.95 36.4 38.3 36.7 31.0 37.0 30.2 37.0 Q36.7 36.65 41.1 32.9 L41.95 32.5 M15.8 15.9 L17.55 15.8 Q19.2 16.1 20.35 16.85 21.7 17.75 22.2 18.6 22.75 19.45 22.45 20.45 L22.05 21.2 21.5 21.65 Q21.85 20.25 19.55 17.65 18.05 16.65 15.8 15.9" fill="#5a4003" fill-rule="evenodd" stroke="none"/>
      <path d="M16.35 13.45 L16.55 13.85 17.3 14.6 17.45 14.7 Q18.55 15.4 21.25 16.3 L21.4 16.35 Q22.65 17.2 23.15 18.05 L23.2 18.1 Q23.7 18.9 23.6 19.75 L23.2 21.5 23.15 21.85 22.85 22.7 22.45 23.15 22.35 23.55 21.05 22.45 20.65 21.45 21.5 21.65 22.05 21.2 22.45 20.45 Q22.75 19.45 22.2 18.6 21.7 17.75 20.35 16.85 19.2 16.1 17.55 15.8 L15.8 15.9 15.55 14.85 15.7 14.2 15.75 14.2 15.8 14.2 16.35 13.45" fill="#b33c3c" fill-rule="evenodd" stroke="none"/>
      <path d="M31.0 19.7 L31.2 20.75 31.2 21.45 31.5 23.1 Q25.95 22.9 23.2 21.5 L23.6 19.75 Q23.7 18.9 23.2 18.1 L23.15 18.05 Q27.8 20.6 31.0 19.7 M11.9 16.3 L12.25 18.25 13.15 20.2 Q14.65 22.7 16.65 24.2 18.7 25.7 20.55 25.9 L23.6 26.4 24.95 26.75 25.7 27.85 Q21.25 29.1 14.35 26.7 12.0 22.9 7.45 19.5 L5.75 18.1 Q3.9 16.15 2.65 13.35 8.75 13.6 11.9 16.3 M16.8 31.85 Q22.35 29.55 27.35 31.65 L27.6 32.2 27.3 33.1 Q25.25 35.15 23.75 35.1 L21.25 34.65 18.8 33.8 Q17.8 33.25 16.8 31.85" fill="#6c2424" fill-rule="evenodd" stroke="none"/>
      <path d="M30.75 19.1 L31.0 19.7 Q27.8 20.6 23.15 18.05 22.65 17.2 21.4 16.35 28.95 20.1 30.75 19.1" fill="#862d2d" fill-rule="evenodd" stroke="none"/>
      <path d="M11.6 7.35 L12.45 8.2 12.65 8.6 Q13.4 10.1 13.0 12.3 12.75 14.05 12.9 15.6 13.05 17.35 13.75 18.9 L14.25 19.9 Q15.5 21.9 17.65 23.35 19.85 24.8 22.95 25.05 L23.6 25.15 25.05 25.35 26.55 25.75 27.0 25.95 Q28.4 26.85 28.9 29.2 L28.95 29.25 28.9 29.25 27.75 29.55 28.9 29.25 29.0 29.95 29.05 30.0 Q29.15 31.45 28.7 32.65 L28.5 33.1 27.65 34.2 26.3 35.4 Q25.05 36.05 23.2 36.15 L20.4 35.75 18.95 35.3 Q15.0 33.05 14.45 29.3 12.45 24.0 6.6 20.15 3.3 18.05 1.7 13.25 1.75 10.65 3.05 8.65 L5.15 6.5 Q5.7 6.15 6.35 5.95 L8.05 5.65 Q9.35 5.65 10.55 6.5 L11.6 7.35 M24.95 26.75 L23.6 26.4 20.55 25.9 Q18.7 25.7 16.65 24.2 14.65 22.7 13.15 20.2 L12.25 18.25 11.9 16.3 11.9 15.1 12.0 12.05 11.8 10.7 Q11.45 9.05 10.5 8.0 9.6 6.95 7.95 6.8 6.25 6.7 5.7 7.2 L4.45 8.45 3.55 9.5 3.5 9.6 3.25 9.9 Q2.35 11.25 2.65 13.35 3.9 16.15 5.75 18.1 L7.45 19.5 Q12.0 22.9 14.35 26.7 L15.05 28.0 Q15.9 30.35 16.8 31.85 17.8 33.25 18.8 33.8 L21.25 34.65 23.75 35.1 Q25.25 35.15 27.3 33.1 L27.6 32.2 27.7 31.7 27.75 29.75 27.75 29.55 Q27.65 28.05 26.85 27.45 L26.2 27.15 24.95 26.75" fill="#845c04" fill-rule="evenodd" stroke="none"/>
      <path d="M31.5 23.1 L31.85 23.85 Q32.15 24.35 31.9 24.75 L31.8 24.9 31.75 24.9 31.6 24.95 31.5 25.05 30.15 25.2 28.5 25.25 25.5 24.7 Q23.3 24.2 22.35 23.55 L22.45 23.15 22.85 22.7 23.15 21.85 23.2 21.5 Q25.95 22.9 31.5 23.1 M11.9 16.3 Q8.75 13.6 2.65 13.35 2.35 11.25 3.25 9.9 L3.5 9.6 3.55 9.5 Q8.8 9.9 12.0 12.05 L11.9 15.1 11.9 16.3 M14.35 26.7 Q21.25 29.1 25.7 27.85 L26.05 28.45 26.75 29.8 27.35 31.65 Q22.35 29.55 16.8 31.85 15.9 30.35 15.05 28.0 L14.35 26.7" fill="#4d1a1a" fill-rule="evenodd" stroke="none"/>
      <path d="M3.55 9.5 L4.45 8.45 5.7 7.2 Q6.25 6.7 7.95 6.8 9.6 6.95 10.5 8.0 11.45 9.05 11.8 10.7 L12.0 12.05 Q8.8 9.9 3.55 9.5" fill="#200b0b" fill-rule="evenodd" stroke="none"/>
      <path d="M25.7 27.85 L24.95 26.75 26.2 27.15 26.85 27.45 Q27.65 28.05 27.75 29.55 M27.6 32.2 L27.7 31.7 27.75 29.75 27.75 29.55 M27.35 31.65 L26.75 29.8 26.05 28.45 25.7 27.85 M27.35 31.65 L27.6 32.2" fill="none" stroke="#000000" stroke-linecap="round" stroke-linejoin="round" stroke-opacity="0.4" stroke-width="0.5"/>
      <path d="M25.8 15.25 Q23.25 14.4 21.45 14.6 L18.7 14.35 18.15 14.2 17.0 13.75 16.35 13.35 16.35 13.45 15.8 14.2 15.75 14.2 15.7 14.2 15.55 14.85 15.8 15.9 17.55 15.8 Q19.2 16.1 20.35 16.85 21.7 17.75 22.2 18.6 22.75 19.45 22.45 20.45 L22.05 21.2 21.5 21.65 20.65 21.45 21.05 22.45 22.35 23.55 M31.8 24.9 L31.75 24.9 31.6 24.95 31.5 25.05 30.15 25.2 28.5 25.25 25.5 24.7 Q23.3 24.2 22.35 23.55 M27.75 29.55 L28.9 29.25 28.95 29.25 28.9 29.2 M28.95 29.25 L28.95 29.2 30.65 29.75 30.6 29.3 30.45 28.9 30.45 28.7 30.4 28.55 30.1 28.1 30.4 27.95 31.5 28.25 32.55 28.9 32.75 29.45 32.9 29.8 M30.65 29.75 L30.65 29.8 30.65 30.45 30.65 30.65 30.65 31.25 Q30.7 31.6 32.75 31.75 L32.9 31.3 32.9 31.0 33.0 30.5 32.95 30.2 M39.45 29.95 L38.95 28.55 Q39.75 28.15 40.5 28.9 L41.0 29.75 M41.15 31.15 L41.15 31.5 Q40.5 32.75 39.55 31.95 L39.6 31.4 M41.1 30.3 L41.15 30.4 41.15 31.15 M39.6 30.55 L39.6 30.6 39.6 31.4 M41.1 29.95 Q40.65 31.45 39.45 30.1 L39.6 30.55 32.95 30.2" fill="none" stroke="#000000" stroke-linecap="round" stroke-linejoin="round" stroke-opacity="0.3019608" stroke-width="0.05"/>
      <path d="M26.05 10.95 Q25.9 9.9 25.45 9.1 L25.1 8.7 M26.05 10.95 L26.1 11.3 25.95 13.2 Q25.8 14.25 25.8 15.25 L27.85 16.1 29.55 16.95 Q30.1 17.4 30.45 18.35 L30.75 19.1 31.0 19.7 31.2 20.75 31.2 21.45 31.5 23.1 31.85 23.85 Q32.15 24.35 31.9 24.75 L31.8 24.9 Q33.65 25.75 35.95 25.95 L37.45 26.15 Q39.3 26.35 40.0 26.85 41.25 27.65 41.75 29.6 L41.9 30.1 41.9 30.15 42.0 30.75 42.0 30.95 41.95 32.5 Q41.8 33.6 41.15 34.6 L40.1 35.75 38.95 36.4 38.3 36.7 31.0 37.0 30.2 37.0 Q23.95 36.8 20.4 35.75 L18.95 35.3 Q15.0 33.05 14.45 29.3 12.45 24.0 6.6 20.15 3.3 18.05 1.7 13.25 1.75 10.65 3.05 8.65 L5.15 6.5 Q7.35 5.1 8.9 5.1 10.9 5.0 14.25 7.4 16.35 8.8 17.1 8.2 18.1 7.25 19.35 6.85 L21.05 6.55 22.15 6.85 Q23.15 7.15 23.55 7.4 24.4 8.0 25.1 8.7" fill="none" stroke="#000000" stroke-linecap="round" stroke-linejoin="round" stroke-opacity="0.2901961" stroke-width="0.5"/>
      <path d="M24.2 17.95 L23.95 17.3 23.9 16.95 24.0 16.4 Q24.3 17.6 25.7 17.6 L26.65 16.95 26.7 16.8 Q26.95 16.25 26.6 15.75 L26.15 15.3 26.85 15.75 26.95 15.8 27.3 16.55 Q27.1 16.35 27.05 16.85 L26.6 17.7 26.55 17.8 25.05 17.95 Q24.1 17.5 24.2 17.95" fill="#9c6f05" fill-rule="evenodd" stroke="none"/>
      <path d="M27.3 16.55 L27.35 16.95 Q27.35 17.7 26.85 18.2 26.35 18.7 25.65 18.7 L25.25 18.7 25.95 18.35 26.55 17.8 26.6 17.7 27.05 16.85 Q27.1 16.35 27.3 16.55" fill="#ec8e02" fill-rule="evenodd" stroke="none"/>
      <path d="M24.8 15.45 L25.65 15.25 26.15 15.3 26.6 15.75 Q26.65 16.55 26.15 16.75 25.6 16.95 24.9 16.55 24.25 16.15 24.8 15.45 M25.4 16.1 L25.75 16.25 26.1 16.1 26.25 15.8 26.1 15.4 25.75 15.3 25.4 15.4 Q25.25 15.55 25.25 15.8 L25.4 16.1" fill="#fedf67" fill-rule="evenodd" stroke="none"/>
      <path d="M25.4 16.1 L25.25 15.8 Q25.25 15.55 25.4 15.4 L25.75 15.3 26.1 15.4 26.25 15.8 26.1 16.1 25.75 16.25 25.4 16.1" fill="#ffffff" fill-rule="evenodd" stroke="none"/>
      <path d="M24.0 16.4 L24.4 15.75 24.8 15.45 Q24.25 16.15 24.9 16.55 25.6 16.95 26.15 16.75 26.65 16.55 26.6 15.75 26.95 16.25 26.7 16.8 L26.65 16.95 25.7 17.6 Q24.3 17.6 24.0 16.4" fill="#ffcc00" fill-rule="evenodd" stroke="none"/>
      <path d="M25.25 18.7 L24.55 18.3 24.4 18.2 24.2 17.95 Q24.1 17.5 25.05 17.95 L26.55 17.8 25.95 18.35 25.25 18.7" fill="#cc9933" fill-rule="evenodd" stroke="none"/>
      <path d="M27.3 16.55 L27.35 16.95 Q27.35 17.7 26.85 18.2 26.35 18.7 25.65 18.7 L25.25 18.7 24.55 18.3 24.4 18.2 24.2 17.95 23.95 17.3 23.9 16.95 24.0 16.4 24.4 15.75 24.8 15.45 25.65 15.25 26.15 15.3 26.85 15.75 26.95 15.8 27.3 16.55 Z" fill="none" stroke="#000000" stroke-linecap="round" stroke-linejoin="round" stroke-opacity="0.4" stroke-width="0.5"/>
    </g>
  </defs>
</svg>
