<?xml version="1.0" encoding="UTF-8" standalone="no"?>
<svg xmlns:xlink="http://www.w3.org/1999/xlink" height="520.0px" width="520.0px" xmlns="http://www.w3.org/2000/svg">
  <g transform="matrix(10.0, 0.0, 0.0, 10.0, 0.0, 0.0)">
    <use height="52.0" transform="matrix(1.0, 0.0, 0.0, 1.0, 0.0, 0.0)" width="52.0" xlink:href="#shape0"/>
    <use height="29.9" transform="matrix(1.5366, 0.0, 0.0, 1.5366, 1.3867, 2.755)" width="30.45" xlink:href="#sprite0"/>
  </g>
  <defs>
    <g id="shape0" transform="matrix(1.0, 0.0, 0.0, 1.0, 0.0, 0.0)">
      <path d="M52.0 52.0 L0.0 52.0 0.0 0.0 52.0 0.0 52.0 52.0" fill="#33cc33" fill-opacity="0.0" fill-rule="evenodd" stroke="none"/>
    </g>
    <g id="sprite0" transform="matrix(1.0, 0.0, 0.0, 1.0, -7.15, -7.65)">
      <use height="25.45" transform="matrix(1.0, 0.0, 0.0, 1.0, 11.45, 9.9)" width="24.45" xlink:href="#shape1"/>
      <use height="60.8" transform="matrix(0.0637, 0.0641, 0.1243, -0.1133, 23.5, 32.2)" width="60.8" xlink:href="#sprite1"/>
      <use height="5.65" transform="matrix(0.4771, 0.095, -0.093, 0.4672, 28.5268, 29.1163)" width="5.8" xlink:href="#shape3"/>
      <use height="25.7" transform="matrix(0.0064, -0.7509, 0.4644, 0.0081, 7.1511, 29.9951)" width="25.7" xlink:href="#sprite2"/>
      <use height="60.8" transform="matrix(0.0868, 0.0873, 0.0984, -0.0897, 24.05, 30.85)" width="60.8" xlink:href="#sprite1"/>
      <use height="29.9" transform="matrix(1.0, 0.0, 0.0, 1.0, 9.4, 7.65)" width="28.2" xlink:href="#sprite4"/>
      <use height="60.8" transform="matrix(0.0637, 0.0641, 0.1243, -0.1133, 7.25, 27.05)" width="60.8" xlink:href="#sprite1"/>
      <use height="5.65" transform="matrix(0.4771, 0.095, -0.093, 0.4672, 12.2768, 23.9663)" width="5.8" xlink:href="#shape3"/>
      <use height="60.8" transform="matrix(0.0868, 0.0873, 0.0984, -0.0897, 7.75, 25.8)" width="60.8" xlink:href="#sprite1"/>
      <use height="60.8" transform="matrix(0.0637, 0.0641, 0.1243, -0.1133, 22.3, 17.95)" width="60.8" xlink:href="#sprite1"/>
      <use height="5.65" transform="matrix(0.4771, 0.095, -0.093, 0.4672, 27.3268, 14.8663)" width="5.8" xlink:href="#shape3"/>
      <use height="60.8" transform="matrix(0.0868, 0.0873, 0.0984, -0.0897, 22.8, 16.7)" width="60.8" xlink:href="#sprite1"/>
    </g>
    <g id="shape1" transform="matrix(1.0, 0.0, 0.0, 1.0, -11.45, -9.9)">
      <path d="M28.15 10.8 Q29.95 11.35 31.5 12.6 35.4 15.7 35.65 20.8 35.8 24.95 33.85 28.4 L32.8 29.95 Q30.6 33.0 27.45 34.25 29.65 32.6 30.25 31.5 L30.75 31.1 31.65 30.2 33.0 28.3 33.05 28.2 Q34.7 25.2 34.65 22.15 L34.6 21.35 34.6 20.95 34.55 20.25 34.25 18.9 Q33.85 17.4 33.05 16.35 L33.0 16.3 32.7 16.0 Q31.35 12.0 28.15 10.8 M17.85 11.8 L18.8 11.3 Q20.25 10.65 22.05 10.4 L23.1 10.2 22.6 10.65 Q21.55 11.75 27.25 13.95 L26.15 14.1 25.75 14.2 24.95 14.5 24.65 14.6 24.2 13.5 Q23.05 11.85 19.0 11.8 L17.85 11.8 M30.15 29.2 L28.3 29.1 28.4 28.9 Q29.55 27.7 29.55 26.7 29.55 26.15 28.65 26.05 L27.7 26.2 26.4 27.3 25.6 28.25 Q24.55 27.65 24.05 26.75 L24.2 26.6 25.6 24.95 26.2 24.05 26.65 23.1 Q31.2 21.9 31.15 27.6 L31.15 28.0 30.15 29.2" fill="#6b4c00" fill-rule="evenodd" stroke="none"/>
      <path d="M23.1 10.2 L27.05 10.5 28.15 10.8 Q31.35 12.0 32.7 16.0 L31.3 14.85 30.25 14.35 29.7 14.15 27.25 13.95 Q21.55 11.75 22.6 10.65 L23.1 10.2" fill="#946a00" fill-rule="evenodd" stroke="none"/>
      <path d="M21.3 35.0 Q18.55 34.7 16.25 32.95 13.9 31.15 12.8 28.65 12.05 27.1 11.8 25.3 L11.8 25.25 11.7 23.55 11.75 22.0 Q12.05 18.95 13.65 16.1 14.1 15.2 14.75 14.55 16.1 12.85 17.85 11.8 L19.0 11.8 Q23.05 11.85 24.2 13.5 L24.65 14.6 24.95 14.5 25.75 14.2 26.15 14.1 27.25 13.95 29.7 14.15 30.25 14.35 31.3 14.85 32.7 16.0 33.0 16.3 33.05 16.35 Q33.85 17.4 34.25 18.9 L34.55 20.25 34.6 20.95 34.6 21.35 34.15 19.2 Q34.5 21.75 32.75 24.2 L32.9 22.7 32.8 21.4 32.7 20.6 Q33.75 20.1 33.45 17.65 L33.05 17.05 33.0 17.0 31.3 15.55 Q30.8 15.2 30.25 15.0 L29.7 14.85 26.4 14.75 26.15 14.8 25.75 14.9 24.95 15.15 24.6 15.3 Q22.8 16.1 21.35 17.5 21.15 16.4 20.6 15.7 L20.9 15.1 Q20.9 14.15 19.3 13.75 L18.45 13.55 17.85 13.5 17.5 13.6 Q17.0 13.8 16.85 14.15 L16.0 14.25 15.65 14.65 14.55 16.3 Q12.9 19.1 12.65 22.15 L12.55 23.65 12.55 23.8 12.7 25.35 12.7 25.45 12.8 25.8 Q13.0 27.4 13.65 28.8 L14.3 30.1 Q15.4 31.8 17.15 33.1 19.1 34.55 21.3 35.0" fill="#fff059" fill-rule="evenodd" stroke="none"/>
      <path d="M34.6 21.35 L34.65 22.15 Q34.7 25.2 33.05 28.2 L31.35 27.7 31.6 27.25 Q32.45 25.8 32.75 24.2 34.5 21.75 34.15 19.2 L34.6 21.35 M27.4 16.55 L26.6 16.7 25.3 17.05 Q22.8 18.05 21.25 20.65 L20.05 19.1 21.35 17.5 Q22.8 16.1 24.6 15.3 L24.95 15.15 25.75 14.9 26.15 14.8 26.4 14.75 Q29.0 14.85 29.65 16.95 28.55 16.5 27.4 16.55" fill="#e8a100" fill-rule="evenodd" stroke="none"/>
      <path d="M27.5 20.35 L27.6 19.65 27.5 17.55 27.4 16.55 Q28.55 16.5 29.65 16.95 L29.7 16.95 30.25 17.25 Q32.1 18.3 32.7 20.6 L32.8 21.4 32.9 22.7 Q29.8 22.7 27.5 20.35" fill="#381400" fill-rule="evenodd" stroke="none"/>
      <path d="M27.4 16.55 L27.5 17.55 27.6 19.65 27.5 20.35 26.65 23.1 26.2 24.05 25.6 24.95 24.2 26.6 24.05 26.75 Q24.55 27.65 25.6 28.25 25.2 28.8 25.2 29.2 25.2 30.15 26.3 30.15 27.25 30.15 28.3 29.1 L30.15 29.2 29.05 30.2 27.75 30.95 27.2 31.2 26.95 31.3 Q22.65 31.3 20.65 27.55 L21.15 27.4 23.75 25.8 25.0 24.3 25.5 23.45 Q26.6 21.5 26.85 19.55 L26.75 17.65 26.6 16.7 27.4 16.55" fill="#855c00" fill-rule="evenodd" stroke="none"/>
      <path d="M32.7 20.6 Q32.1 18.3 30.25 17.25 L29.7 16.95 29.65 16.95 Q29.0 14.85 26.4 14.75 L29.7 14.85 30.25 15.0 Q30.8 15.2 31.3 15.55 L33.0 17.0 33.05 17.05 33.45 17.65 Q33.75 20.1 32.7 20.6 M21.35 17.5 L20.05 19.1 19.4 20.1 18.7 21.45 Q17.85 23.4 17.75 25.35 L17.7 26.2 17.75 26.4 17.75 26.55 17.8 26.95 Q14.2 26.4 12.55 23.8 L12.55 23.65 12.65 22.15 Q12.9 19.1 14.55 16.3 L15.65 14.65 16.0 14.25 16.85 14.15 16.75 14.55 Q16.75 15.1 17.85 15.55 L19.45 15.9 20.6 15.7 Q21.15 16.4 21.35 17.5" fill="#ffc900" fill-rule="evenodd" stroke="none"/>
      <path d="M33.05 28.2 L33.0 28.3 31.65 30.2 30.75 31.1 30.25 31.5 Q28.95 32.55 27.4 33.15 25.5 33.9 23.85 33.7 L23.7 33.7 23.5 33.7 Q22.3 33.5 21.15 32.8 L20.05 31.95 19.6 31.5 Q18.35 30.1 17.9 27.9 L17.85 27.35 17.8 26.95 17.75 26.55 17.85 27.1 Q18.25 29.25 19.6 30.75 L19.95 31.15 Q20.45 31.65 21.1 32.0 22.25 32.7 23.5 32.9 L23.6 32.9 23.75 32.95 Q25.45 33.1 27.3 32.35 28.85 31.75 30.15 30.75 30.35 30.55 30.65 30.3 L31.3 29.7 Q30.7 29.2 29.05 30.2 L30.15 29.2 31.15 28.0 31.35 27.7 33.05 28.2 M20.05 19.1 L21.25 20.65 20.9 21.1 20.1 22.95 Q20.05 20.45 18.7 21.45 L19.4 20.1 20.05 19.1" fill="#ab7600" fill-rule="evenodd" stroke="none"/>
      <path d="M26.95 31.3 L27.2 31.2 27.75 30.95 29.05 30.2 Q30.7 29.2 31.3 29.7 L30.65 30.3 Q30.35 30.55 30.15 30.75 28.85 31.75 27.3 32.35 25.45 33.1 23.75 32.95 L23.6 32.9 23.5 32.9 Q22.25 32.7 21.1 32.0 20.45 31.65 19.95 31.15 L19.6 30.75 Q18.25 29.25 17.85 27.1 L17.75 26.55 17.75 26.4 17.7 26.2 17.75 25.35 Q17.85 23.4 18.7 21.45 20.05 20.45 20.1 22.95 19.35 24.85 19.65 26.85 L19.85 27.8 20.2 28.7 20.2 28.75 Q20.9 30.25 22.3 31.05 24.4 32.3 26.95 31.3" fill="#c78e00" fill-rule="evenodd" stroke="none"/>
      <path d="M14.3 30.1 L13.65 28.8 Q13.0 27.4 12.8 25.8 16.2 28.05 19.6 31.5 19.2 32.85 16.95 31.95 L14.3 30.1" fill="#e3b200" fill-rule="evenodd" stroke="none"/>
      <path d="M27.45 34.25 L24.95 34.95 Q23.05 35.25 21.3 35.0 19.1 34.55 17.15 33.1 15.4 31.8 14.3 30.1 L16.95 31.95 Q19.2 32.85 19.6 31.5 16.2 28.05 12.8 25.8 L12.7 25.45 12.7 25.35 12.55 23.8 Q14.2 26.4 17.8 26.95 L17.85 27.35 17.9 27.9 Q18.35 30.1 19.6 31.5 L20.05 31.95 21.15 32.8 Q22.3 33.5 23.5 33.7 L23.7 33.7 23.85 33.7 Q25.5 33.9 27.4 33.15 28.95 32.55 30.25 31.5 29.65 32.6 27.45 34.25" fill="#d4a700" fill-rule="evenodd" stroke="none"/>
      <path d="M26.65 23.1 L27.5 20.35 Q29.8 22.7 32.9 22.7 L32.75 24.2 Q32.45 25.8 31.6 27.25 L31.35 27.7 31.15 28.0 31.15 27.6 Q31.2 21.9 26.65 23.1" fill="#290e00" fill-rule="evenodd" stroke="none"/>
      <path d="M20.65 27.55 Q22.65 31.3 26.95 31.3 24.4 32.3 22.3 31.05 20.9 30.25 20.2 28.75 L20.2 28.7 19.85 27.8 20.65 27.55" fill="#773409" fill-rule="evenodd" stroke="none"/>
      <path d="M16.85 14.15 Q17.0 13.8 17.5 13.6 L17.85 13.5 18.45 13.55 19.3 13.75 Q20.9 14.15 20.9 15.1 L20.6 15.7 19.45 15.9 17.85 15.55 Q16.75 15.1 16.75 14.55 L16.85 14.15" fill="#fff8b2" fill-rule="evenodd" stroke="none"/>
      <path d="M28.3 29.1 Q27.25 30.15 26.3 30.15 25.2 30.15 25.2 29.2 25.2 28.8 25.6 28.25 L26.4 27.3 27.7 26.2 28.65 26.05 Q29.55 26.15 29.55 26.7 29.55 27.7 28.4 28.9 L28.3 29.1" fill="#856e3b" fill-rule="evenodd" stroke="none"/>
      <path d="M28.15 10.8 Q29.95 11.35 31.5 12.6 35.4 15.7 35.65 20.8 35.8 24.95 33.85 28.4 L32.8 29.95 Q30.6 33.0 27.45 34.25 L24.95 34.95 Q23.05 35.25 21.3 35.0 18.55 34.7 16.25 32.95 13.9 31.15 12.8 28.65 12.05 27.1 11.8 25.3 L11.8 25.25 11.7 23.55 11.75 22.0 Q12.05 18.95 13.65 16.1 14.1 15.2 14.75 14.55 16.1 12.85 17.85 11.8 L18.8 11.3 Q20.25 10.65 22.05 10.4 L23.1 10.2 27.05 10.5 28.15 10.8 M26.6 16.7 L26.75 17.65 26.85 19.55 Q26.6 21.5 25.5 23.45 L25.0 24.3 23.75 25.8 21.15 27.4 20.65 27.55 19.85 27.8 19.65 26.85 Q19.35 24.85 20.1 22.95 L20.9 21.1 21.25 20.65 Q22.8 18.05 25.3 17.05 L26.6 16.7" fill="none" stroke="#000000" stroke-linecap="round" stroke-linejoin="round" stroke-opacity="0.3019608" stroke-width="0.5"/>
    </g>
    <g id="sprite1" transform="matrix(1.0, 0.0, 0.0, 1.0, 0.0, 0.0)">
      <use height="60.8" transform="matrix(1.0, 0.0, 0.0, 1.0, 0.0, 0.0)" width="60.8" xlink:href="#shape2"/>
    </g>
    <g id="shape2" transform="matrix(1.0, 0.0, 0.0, 1.0, 0.0, 0.0)">
      <path d="M60.8 30.4 Q60.8 43.0 51.9 51.9 43.0 60.8 30.4 60.8 17.8 60.8 8.9 51.9 0.0 43.0 0.0 30.4 0.0 17.8 8.9 8.9 17.8 0.0 30.4 0.0 43.0 0.0 51.9 8.9 60.8 17.8 60.8 30.4" fill="url(#gradient0)" fill-rule="evenodd" stroke="none"/>
    </g>
    <radialGradient cx="0" cy="0" gradientTransform="matrix(0.0374, 0.0, 0.0, 0.0374, 30.4, 30.4)" gradientUnits="userSpaceOnUse" id="gradient0" r="819.2" spreadMethod="pad">
      <stop offset="0.0" stop-color="#ffffff"/>
      <stop offset="1.0" stop-color="#ffffff" stop-opacity="0.0"/>
    </radialGradient>
    <g id="shape3" transform="matrix(1.0, 0.0, 0.0, 1.0, 2.9, 2.8)">
      <path d="M0.55 0.9 Q0.25 1.25 -0.2 1.25 -0.65 1.25 -1.0 0.9 L-1.3 0.15 -1.0 -0.65 -0.2 -0.95 Q0.25 -0.95 0.55 -0.65 L0.9 0.15 0.55 0.9" fill="#ffffe6" fill-rule="evenodd" stroke="none"/>
      <path d="M2.9 -0.2 L1.05 2.65 -1.6 2.85 -2.9 0.15 -1.7 -2.45 1.25 -2.8 2.9 -0.2 M0.55 0.9 L0.9 0.15 0.55 -0.65 Q0.25 -0.95 -0.2 -0.95 L-1.0 -0.65 -1.3 0.15 -1.0 0.9 Q-0.65 1.25 -0.2 1.25 0.25 1.25 0.55 0.9" fill="#fefe30" fill-opacity="0.43137255" fill-rule="evenodd" stroke="none"/>
    </g>
    <g id="sprite2" transform="matrix(1.0, 0.0, 0.0, 1.0, 12.85, 12.85)">
      <use height="12.4" transform="matrix(1.1839, 0.0, 0.0, 1.1839, -6.9899, -7.5899)" width="12.4" xlink:href="#sprite3"/>
      <use height="5.7" transform="matrix(1.0, 0.0, 0.0, 1.0, -2.2, -2.3)" width="5.4" xlink:href="#shape5"/>
      <use height="12.4" transform="matrix(2.0717, 0.0, 0.0, 2.0717, -12.8448, -12.8448)" width="12.4" xlink:href="#sprite3"/>
    </g>
    <g id="sprite3" transform="matrix(1.0, 0.0, 0.0, 1.0, 6.2, 6.2)">
      <use height="12.4" transform="matrix(1.0, 0.0, 0.0, 1.0, -6.2, -6.2)" width="12.4" xlink:href="#shape4"/>
    </g>
    <g id="shape4" transform="matrix(1.0, 0.0, 0.0, 1.0, 6.2, 6.2)">
      <path d="M4.35 -4.4 Q6.2 -2.55 6.2 0.0 6.2 2.55 4.35 4.35 2.55 6.2 0.0 6.2 -2.55 6.2 -4.4 4.35 -6.2 2.55 -6.2 0.0 -6.2 -2.55 -4.4 -4.4 -2.55 -6.2 0.0 -6.2 2.55 -6.2 4.35 -4.4" fill="url(#gradient1)" fill-rule="evenodd" stroke="none"/>
    </g>
    <radialGradient cx="0" cy="0" gradientTransform="matrix(0.005, 0.0, 0.0, 0.005, 0.0, 0.0)" gradientUnits="userSpaceOnUse" id="gradient1" r="819.2" spreadMethod="pad">
      <stop offset="0.0" stop-color="#ffffff" stop-opacity="0.3019608"/>
      <stop offset="1.0" stop-color="#ffffff" stop-opacity="0.0"/>
    </radialGradient>
    <g id="shape5" transform="matrix(1.0, 0.0, 0.0, 1.0, 2.2, 2.3)">
      <path d="M0.9 0.25 L3.2 0.65 0.9 1.0 0.5 3.4 0.15 1.0 -2.2 0.65 0.15 0.25 0.5 -2.3 0.9 0.25" fill="#ffffff" fill-rule="evenodd" stroke="none"/>
    </g>
    <g id="sprite4" transform="matrix(1.0, 0.0, 0.0, 1.0, 0.25, 0.25)">
      <use height="29.9" transform="matrix(1.0, 0.0, 0.0, 1.0, -0.25, -0.25)" width="28.2" xlink:href="#shape6"/>
    </g>
    <g id="shape6" transform="matrix(1.0, 0.0, 0.0, 1.0, 0.25, 0.25)">
      <path d="M13.4 3.85 L13.35 3.8 13.45 3.8 13.4 3.85" fill="#746136" fill-rule="evenodd" stroke="none"/>
      <path d="M22.2 2.3 L21.9 2.35 Q21.8 2.35 21.75 2.45 L18.55 0.95 17.55 0.3 22.2 2.3 M0.4 16.55 L0.45 16.55 0.4 16.6 0.4 16.55" fill="#bba066" fill-rule="evenodd" stroke="none"/>
      <path d="M23.35 23.2 L21.95 22.65 22.2 22.4 23.35 23.2" fill="#7e7b6d" fill-rule="evenodd" stroke="none"/>
      <path d="M2.5 15.35 L2.45 15.4 2.45 15.3 2.5 15.35" fill="#c8b384" fill-rule="evenodd" stroke="none"/>
      <path d="M1.75 9.6 Q3.45 11.1 5.2 11.6 L5.45 11.65 6.8 11.8 6.85 11.75 6.95 11.35 8.2 9.0 8.85 8.4 9.25 8.3 9.5 8.4 10.75 9.2 9.95 10.35 Q8.95 11.95 8.3 13.6 L3.3 11.5 2.05 10.7 1.8 10.5 1.7 10.1 1.65 10.05 1.75 9.6 M7.1 12.85 L8.3 13.6 7.1 12.85 Q6.85 12.7 6.8 12.2 L6.8 11.8 6.8 12.2 Q6.85 12.7 7.1 12.85" fill="#e8a100" fill-rule="evenodd" stroke="none"/>
      <path d="M21.75 2.45 L21.3 2.95 20.45 4.55 19.05 4.35 17.15 3.55 17.05 2.9 16.7 2.25 16.6 2.2 16.55 2.2 16.45 2.15 16.4 2.15 15.65 1.8 16.15 0.8 16.8 0.25 16.9 0.2 16.95 0.2 18.55 0.95 21.75 2.45 M13.25 4.65 L13.4 6.5 13.35 6.55 8.4 4.4 8.3 4.4 8.3 4.35 8.1 2.5 8.2 2.5 13.25 4.65 M5.45 11.65 Q8.45 9.65 5.05 7.7 L3.1 6.9 Q3.35 6.4 3.7 6.3 4.1 6.1 4.4 6.3 L4.5 6.3 9.25 8.3 8.85 8.4 8.2 9.0 6.95 11.35 6.85 11.75 6.8 11.8 5.45 11.65 M7.35 17.65 L5.9 18.3 5.55 18.6 0.45 16.55 0.4 16.55 0.9 16.15 2.45 15.4 2.5 15.35 7.35 17.4 7.35 17.65 M3.55 24.55 L4.55 22.75 8.65 24.4 9.35 25.3 8.6 26.7 3.55 24.55" fill="#fff059" fill-rule="evenodd" stroke="none"/>
      <path d="M15.65 1.8 L16.4 2.15 16.05 2.25 14.05 3.15 Q13.6 3.35 13.45 3.8 L13.35 3.8 13.4 3.85 13.35 3.95 Q6.95 1.7 11.8 0.2 L15.65 1.8 M3.1 6.9 L5.05 7.7 Q8.45 9.65 5.45 11.65 L5.2 11.6 Q3.45 11.1 1.75 9.6 L1.9 9.2 3.1 6.9 M0.15 17.15 L5.25 19.2 5.15 19.8 5.4 22.15 5.7 22.75 4.05 22.0 3.95 22.0 1.0 20.65 0.6 20.6 0.4 20.4 0.3 20.05 0.3 19.95 0.05 17.55 0.0 17.45 0.0 17.4 0.05 17.2 0.15 17.15 M3.55 24.55 L8.6 26.7 Q8.35 27.1 8.4 27.55 8.45 28.0 8.75 28.2 L10.35 29.25 5.4 27.1 5.25 27.05 3.6 26.0 3.45 25.9 3.45 25.85 3.3 25.45 Q3.25 25.0 3.45 24.6 L3.55 24.55" fill="#ffc900" fill-rule="evenodd" stroke="none"/>
      <path d="M0.45 16.55 L5.55 18.6 5.4 18.85 5.25 19.2 0.15 17.15 0.25 16.75 0.4 16.6 0.45 16.55" fill="#fff8b2" fill-rule="evenodd" stroke="none"/>
      <path d="M25.15 9.4 L24.2 7.3 26.95 8.75 26.4 8.8 25.15 9.4 M15.6 27.1 L15.8 28.7 16.0 29.25 12.45 27.15 15.6 27.1" fill="#946a00" fill-rule="evenodd" stroke="none"/>
      <path d="M11.8 0.2 Q6.95 1.7 13.35 3.95 L13.25 4.65 8.2 2.5 8.1 2.5 8.1 2.1 8.35 1.65 8.95 1.0 10.95 0.1 Q11.3 -0.05 11.6 0.1 L11.8 0.2" fill="#ffff1a" fill-rule="evenodd" stroke="none"/>
      <path d="M21.75 2.45 Q21.8 2.35 21.9 2.35 L22.2 2.3 22.45 2.35 22.5 2.45 22.6 2.45 24.15 3.45 24.25 3.55 24.35 3.65 24.5 4.05 24.55 4.1 24.3 4.95 23.5 6.4 22.9 5.8 Q21.75 4.85 20.45 4.55 L21.3 2.95 21.75 2.45 M25.15 9.4 L26.4 8.8 26.95 8.75 27.15 8.85 27.35 9.0 27.45 9.45 27.7 11.9 27.7 12.0 27.7 12.05 27.5 12.7 26.9 13.35 25.5 14.0 25.55 12.7 Q25.55 10.85 25.15 9.4 M23.35 23.2 L22.2 22.4 22.9 21.3 24.6 18.0 25.8 18.8 25.9 18.85 25.95 18.9 26.15 19.4 26.15 19.65 25.95 20.2 24.65 22.6 24.1 23.2 23.95 23.2 23.95 23.25 23.4 23.2 23.35 23.2 M13.35 3.95 L13.4 3.85 13.45 3.8 Q13.6 3.35 14.05 3.15 L16.05 2.25 16.4 2.15 16.45 2.15 16.55 2.2 16.6 2.2 16.7 2.25 17.05 2.9 17.25 4.6 16.45 4.8 Q14.85 5.4 13.4 6.5 L13.25 4.65 13.35 3.95 M8.6 26.7 L9.35 25.3 9.95 25.85 Q11.1 26.8 12.4 27.15 L11.65 28.65 11.05 29.25 Q10.7 29.45 10.35 29.25 L8.75 28.2 Q8.45 28.0 8.4 27.55 8.35 27.1 8.6 26.7 M19.45 25.2 L19.65 27.05 19.4 27.85 18.8 28.45 16.85 29.35 16.15 29.35 16.1 29.3 16.0 29.25 15.8 28.7 15.6 27.1 16.45 26.85 Q18.05 26.3 19.45 25.2" fill="#c28600" fill-rule="evenodd" stroke="none"/>
      <path d="M5.9 18.3 L7.35 17.65 7.25 19.05 Q7.25 20.8 7.65 22.2 L6.4 22.8 Q6.05 23.0 5.8 22.8 L5.7 22.75 5.4 22.15 5.15 19.8 5.25 19.2 5.4 18.85 5.55 18.6 5.9 18.3" fill="#d49300" fill-rule="evenodd" stroke="none"/>
      <path d="M22.2 2.3 L21.9 2.35 Q21.8 2.35 21.75 2.45 L21.3 2.95 M23.5 6.4 L24.3 4.95 24.55 4.1 24.5 4.05 24.35 3.65 24.25 3.55 24.15 3.45 22.6 2.45 22.5 2.45 22.45 2.35 22.2 2.3 M18.55 0.95 L21.75 2.45 M26.4 8.8 L26.95 8.75 24.2 7.3 M25.5 14.0 L26.9 13.35 27.5 12.7 27.7 12.05 27.7 12.0 27.7 11.9 27.45 9.45 27.35 9.0 27.15 8.85 26.95 8.75 M23.35 23.2 L22.2 22.4 M24.6 18.0 L25.8 18.8 25.9 18.85 25.95 18.9 26.15 19.4 26.15 19.65 25.95 20.2 24.65 22.6 24.1 23.2 23.95 23.2 23.95 23.25 23.4 23.2 23.35 23.2 M15.65 1.8 L16.15 0.8 16.8 0.25 16.9 0.2 16.95 0.2 18.55 0.95 M16.4 2.15 L15.65 1.8 11.8 0.2 M13.4 3.85 L13.35 3.8 13.45 3.8 M16.05 2.25 L16.4 2.15 16.45 2.15 16.55 2.2 16.6 2.2 16.7 2.25 17.05 2.9 17.15 3.55 M17.25 4.6 L17.05 2.9 M8.1 2.5 L8.1 2.1 8.35 1.65 8.95 1.0 10.95 0.1 Q11.3 -0.05 11.6 0.1 L11.8 0.2 M13.4 6.5 L13.35 6.55 M8.4 4.4 L8.3 4.4 8.3 4.35 8.1 2.5 8.2 2.5 M3.1 6.9 L1.9 9.2 1.75 9.6 M9.25 8.3 L4.5 6.3 4.4 6.3 Q4.1 6.1 3.7 6.3 3.35 6.4 3.1 6.9 M8.3 13.6 L3.3 11.5 2.05 10.7 1.8 10.5 1.7 10.1 1.65 10.05 1.75 9.6 M9.25 8.3 L9.5 8.4 10.75 9.2 M8.3 13.6 L7.1 12.85 M7.35 17.65 L7.35 17.4 M2.45 15.4 L0.9 16.15 0.4 16.55 0.4 16.6 0.25 16.75 0.15 17.15 0.05 17.2 0.0 17.4 0.0 17.45 0.05 17.55 0.3 19.95 0.3 20.05 0.4 20.4 0.6 20.6 1.0 20.65 3.95 22.0 4.05 22.0 5.7 22.75 5.8 22.8 Q6.05 23.0 6.4 22.8 L7.65 22.2 M5.55 18.6 L5.9 18.3 M2.45 15.3 L2.45 15.4 M8.65 24.4 L4.55 22.75 3.55 24.55 3.45 24.6 Q3.25 25.0 3.3 25.45 L3.45 25.85 3.45 25.9 3.6 26.0 5.25 27.05 5.4 27.1 10.35 29.25 8.75 28.2 M16.0 29.25 L16.1 29.3 16.15 29.35 16.85 29.35 18.8 28.45 19.4 27.85 19.65 27.05 19.45 25.2 M15.8 28.7 L16.0 29.25 12.45 27.15 15.6 27.1 M10.35 29.25 Q10.7 29.45 11.05 29.25 L11.65 28.65 12.4 27.15" fill="none" stroke="#000000" stroke-linecap="round" stroke-linejoin="round" stroke-opacity="0.2" stroke-width="0.5"/>
      <path d="M21.3 2.95 L20.45 4.55 Q21.75 4.85 22.9 5.8 L23.5 6.4 M24.2 7.3 L25.15 9.4 26.4 8.8 M25.15 9.4 Q25.55 10.85 25.55 12.7 L25.5 14.0 M22.2 22.4 L22.9 21.3 24.6 18.0 M13.35 3.95 L13.4 3.85 M13.45 3.8 Q13.6 3.35 14.05 3.15 L16.05 2.25 M17.15 3.55 L19.05 4.35 20.45 4.55 M13.4 6.5 Q14.85 5.4 16.45 4.8 L17.25 4.6 M13.35 3.95 L13.25 4.65 13.4 6.5 M13.35 6.55 L8.4 4.4 M6.85 11.75 L6.95 11.35 8.2 9.0 8.85 8.4 9.25 8.3 M10.75 9.2 L9.95 10.35 Q8.95 11.95 8.3 13.6 M7.1 12.85 Q6.85 12.7 6.8 12.2 L6.8 11.8 M5.9 18.3 L7.35 17.65 M7.35 17.4 L2.5 15.35 2.45 15.3 M0.4 16.55 L0.45 16.55 5.55 18.6 M0.15 17.15 L5.25 19.2 5.4 18.85 5.55 18.6 M5.7 22.75 L5.4 22.15 5.15 19.8 5.25 19.2 M3.55 24.55 L8.6 26.7 9.35 25.3 8.65 24.4 M8.75 28.2 Q8.45 28.0 8.4 27.55 8.35 27.1 8.6 26.7 M7.65 22.2 Q7.25 20.8 7.25 19.05 L7.35 17.65 M19.45 25.2 Q18.05 26.3 16.45 26.85 L15.6 27.1 15.8 28.7 M12.4 27.15 Q11.1 26.8 9.95 25.85 L9.35 25.3" fill="none" stroke="#000000" stroke-linecap="round" stroke-linejoin="round" stroke-opacity="0.07058824" stroke-width="0.5"/>
    </g>
  </defs>
</svg>
