<?xml version="1.0" encoding="UTF-8" standalone="no"?>
<svg xmlns:xlink="http://www.w3.org/1999/xlink" height="520.0px" width="520.0px" xmlns="http://www.w3.org/2000/svg">
  <g transform="matrix(10.0, 0.0, 0.0, 10.0, 0.0, 0.0)">
    <use height="52.0" transform="matrix(1.0, 0.0, 0.0, 1.0, 0.0, 0.0)" width="52.0" xlink:href="#shape0"/>
    <use height="50.95" transform="matrix(0.9321, 0.0, 0.0, 0.9323, 2.3927, 2.3)" width="49.8" xlink:href="#sprite0"/>
  </g>
  <defs>
    <g id="shape0" transform="matrix(1.0, 0.0, 0.0, 1.0, 0.0, 0.0)">
      <path d="M52.0 0.0 L52.0 52.0 0.0 52.0 0.0 0.0 52.0 0.0" fill="#33cc33" fill-opacity="0.0" fill-rule="evenodd" stroke="none"/>
      <path d="M32.7 19.8 L30.0 24.95 Q29.25 26.6 28.85 28.4 L30.95 26.55 31.8 26.75 31.85 25.75 32.8 23.6 32.7 19.8 M41.2 6.65 L42.5 7.3 43.6 8.65 Q49.75 16.6 48.65 28.4 46.5 33.05 43.25 37.3 L38.55 42.65 Q35.3 45.85 31.3 48.9 L28.85 49.55 26.3 49.75 26.25 49.75 Q23.3 49.7 19.65 48.4 14.65 46.65 8.4 42.65 L7.25 41.45 Q6.7 40.7 6.3 39.55 2.85 29.9 5.5 20.45 L6.6 17.1 7.2 17.05 7.45 15.4 Q8.65 13.35 10.25 11.55 14.95 6.05 22.7 2.65 L23.55 2.25 Q32.3 2.6 39.55 5.85 L41.2 6.65" fill="none" stroke="#000000" stroke-linecap="round" stroke-linejoin="round" stroke-opacity="0.3019608" stroke-width="1.0"/>
    </g>
    <g id="sprite0" transform="matrix(1.0, 0.0, 0.0, 1.0, 2.1, 0.0)">
      <clipPath id="clipPath0" transform="matrix(1.0, 0.0, 0.0, 1.0, 2.1, 0.0)">
        <use height="50.95" transform="matrix(1.0, 0.0, 0.0, 1.0, 0.0, 0.0)" width="47.7" xlink:href="#shape1"/>
      </clipPath>
      <g clip-path="url(#clipPath0)">
        <use height="50.95" transform="matrix(1.0, 0.0, 0.0, 1.0, 0.0, 0.0)" width="47.7" xlink:href="#shape2"/>
        <use height="136.85" transform="matrix(0.1902, 0.0085, -0.1289, 0.2884, 15.5482, -0.0222)" width="148.25" xlink:href="#sprite1"/>
      </g>
    </g>
    <g id="shape1" transform="matrix(1.0, 0.0, 0.0, 1.0, 0.0, 0.0)">
      <path d="M42.1 6.85 Q48.7 15.35 47.5 28.0 45.2 33.0 41.7 37.55 39.45 40.5 36.7 43.3 33.2 46.75 28.9 50.0 L26.25 50.7 23.55 50.95 23.5 50.95 Q20.3 50.85 16.4 49.5 11.05 47.6 4.35 43.3 L3.1 42.0 Q2.5 41.2 2.1 40.0 -1.6 29.65 1.2 19.5 L2.4 15.9 3.05 15.85 3.3 14.1 Q4.6 11.9 6.3 9.95 11.35 4.05 19.65 0.4 L20.6 0.0 Q29.95 0.35 37.75 3.85 L39.55 4.7 40.9 5.4 42.1 6.85 M30.4 18.8 L27.5 24.3 Q26.7 26.1 26.3 28.0 L28.55 26.05 29.45 26.25 29.5 25.2 30.5 22.9 30.4 18.8" fill="#000000" fill-opacity="0.2" fill-rule="evenodd" stroke="none"/>
    </g>
    <g id="shape2" transform="matrix(1.0, 0.0, 0.0, 1.0, 0.0, 0.0)">
      <path d="M1.2 19.5 L2.4 15.9 3.05 15.85 Q5.0 15.55 3.3 14.1 4.6 11.9 6.3 9.95 11.55 6.8 17.6 6.7 L34.2 7.4 Q29.75 9.95 24.8 13.8 21.45 18.45 17.7 29.35 12.25 32.4 7.4 31.15 0.8 29.35 1.2 19.5" fill="#bdbd2f" fill-rule="evenodd" stroke="none"/>
      <path d="M3.05 15.85 L3.3 14.1 Q5.0 15.55 3.05 15.85 M16.55 32.85 L17.1 33.0 Q19.75 32.2 17.1 34.3 14.4 33.15 13.0 32.0 L16.55 32.85" fill="#565616" fill-rule="evenodd" stroke="none"/>
      <path d="M2.1 40.0 Q-1.6 29.65 1.2 19.5 0.8 29.35 7.4 31.15 12.25 32.4 17.7 29.35 L16.55 32.85 13.0 32.0 15.25 34.2 Q16.25 34.95 16.35 37.5 16.35 40.05 18.5 45.8 19.7 48.35 21.45 50.0 19.2 49.75 15.2 48.1 L12.8 47.15 Q5.35 44.15 2.1 40.0" fill="#79781e" fill-rule="evenodd" stroke="none"/>
      <path d="M26.25 50.7 L23.55 50.95 23.5 50.95 21.45 50.0 Q19.7 48.35 18.5 45.8 16.35 40.05 16.35 37.5 16.25 34.95 15.25 34.2 L13.0 32.0 Q14.4 33.15 17.1 34.3 L17.1 34.5 Q17.5 43.55 20.5 48.0 21.8 49.75 23.5 50.4 L23.55 50.4 26.25 50.7 M6.3 9.95 Q11.35 4.05 19.65 0.4 L23.05 0.85 21.65 1.75 26.1 1.35 Q30.55 2.15 34.1 3.35 L35.6 5.8 36.3 4.2 36.3 4.15 37.85 4.8 38.55 5.1 37.95 5.4 34.45 7.2 34.2 7.4 17.6 6.7 Q11.55 6.8 6.3 9.95" fill="#dad966" fill-rule="evenodd" stroke="none"/>
      <path d="M36.65 3.4 L37.75 3.85 39.55 4.7 40.9 5.4 42.1 6.85 Q40.4 6.0 38.7 6.3 L38.1 6.55 34.55 8.2 Q29.5 10.75 26.0 13.8 L25.5 14.2 Q20.0 22.6 17.1 33.0 L16.55 32.85 17.7 29.35 Q21.45 18.45 24.8 13.8 29.75 9.95 34.2 7.4 L34.45 7.2 37.95 5.4 38.55 5.1 37.85 4.8 36.3 4.15 36.65 3.4 M19.65 0.4 L20.6 0.0 24.0 0.25 23.05 0.85 19.65 0.4 M28.75 0.95 L33.45 2.2 34.1 3.35 Q30.55 2.15 26.1 1.35 L28.75 0.95 M43.5 25.1 L43.65 21.0 Q43.6 18.85 43.2 16.9 L42.4 13.95 41.4 11.8 42.85 14.0 Q44.0 16.35 44.05 19.65 L44.15 20.75 Q44.35 23.3 44.0 27.2 L40.95 31.2 36.2 35.7 29.3 40.6 35.95 35.05 36.15 34.85 40.8 29.85 43.3 26.5 43.5 25.1" fill="#e2e18b" fill-rule="evenodd" stroke="none"/>
      <path d="M42.1 6.85 Q48.7 15.35 47.5 28.0 45.2 33.0 41.7 37.55 L40.95 31.2 44.0 27.2 Q44.35 23.3 44.15 20.75 L44.05 19.65 Q44.0 16.35 42.85 14.0 L41.4 11.8 38.75 12.35 38.1 6.55 38.7 6.3 Q40.4 6.0 42.1 6.85 M23.5 50.95 Q20.3 50.85 16.4 49.5 11.05 47.6 4.35 43.3 L3.1 42.0 Q2.5 41.2 2.1 40.0 5.35 44.15 12.8 47.15 L15.2 48.1 Q19.2 49.75 21.45 50.0 L23.5 50.95 M17.1 33.0 Q20.0 22.6 25.5 14.2 L26.0 13.8 23.55 50.4 23.5 50.4 Q21.8 49.75 20.5 48.0 17.5 43.55 17.1 34.5 L17.1 34.3 Q19.75 32.2 17.1 33.0" fill="#969525" fill-rule="evenodd" stroke="none"/>
      <path d="M36.7 43.3 Q33.2 46.75 28.9 50.0 L26.25 50.7 23.55 50.4 26.0 13.8 Q29.5 10.75 34.55 8.2 L34.9 14.05 Q33.35 14.9 31.8 16.1 L30.65 18.35 30.4 18.8 27.5 24.3 Q26.7 26.1 26.3 28.0 26.05 28.95 25.95 30.0 25.8 31.05 25.8 32.1 25.75 34.7 26.3 37.5 27.75 41.5 29.2 40.7 L29.3 40.6 36.2 35.7 36.7 43.3" fill="#888822" fill-rule="evenodd" stroke="none"/>
      <path d="M41.7 37.55 Q39.45 40.5 36.7 43.3 L36.2 35.7 40.95 31.2 41.7 37.55 M34.55 8.2 L38.1 6.55 38.75 12.35 36.55 13.2 Q35.7 13.55 34.9 14.05 L34.55 8.2" fill="#9c9c27" fill-rule="evenodd" stroke="none"/>
      <path d="M42.4 13.95 L43.2 16.9 Q43.6 18.85 43.65 21.0 L43.5 25.1 40.9 22.4 39.85 21.5 Q37.55 19.65 35.2 18.9 32.95 18.15 30.65 18.35 L31.8 16.1 Q33.35 14.9 34.9 14.05 35.7 13.55 36.55 13.2 L42.4 13.95" fill="#730202" fill-rule="evenodd" stroke="none"/>
      <path d="M35.95 35.05 L29.3 40.6 29.2 40.7 Q27.75 41.5 26.3 37.5 25.75 34.7 25.8 32.1 27.35 34.9 35.95 35.05 M41.4 11.8 L42.4 13.95 36.55 13.2 38.75 12.35 41.4 11.8 M29.45 26.25 L29.5 25.2 32.3 26.9 29.45 26.25" fill="#620202" fill-rule="evenodd" stroke="none"/>
      <path d="M24.0 0.25 L28.75 0.95 26.1 1.35 21.65 1.75 23.05 0.85 24.0 0.25 M33.45 2.2 L34.5 2.55 36.55 3.35 36.65 3.4 36.3 4.15 36.3 4.2 35.6 5.8 34.1 3.35 33.45 2.2 M43.5 25.1 L43.3 26.5 40.8 29.85 36.15 34.85 35.95 35.05 Q27.35 34.9 25.8 32.1 25.8 31.05 25.95 30.0 26.05 28.95 26.3 28.0 L28.55 26.05 29.45 26.25 32.3 26.9 29.5 25.2 30.5 22.9 30.4 18.8 30.65 18.35 Q32.95 18.15 35.2 18.9 37.55 19.65 39.85 21.5 L40.9 22.4 43.5 25.1" fill="#a30303" fill-rule="evenodd" stroke="none"/>
      <path d="M36.65 3.4 L37.75 3.85 39.55 4.7 40.9 5.4 42.1 6.85 Q48.7 15.35 47.5 28.0 45.2 33.0 41.7 37.55 39.45 40.5 36.7 43.3 33.2 46.75 28.9 50.0 L26.25 50.7 23.55 50.95 23.5 50.95 Q20.3 50.85 16.4 49.5 11.05 47.6 4.35 43.3 L3.1 42.0 Q2.5 41.2 2.1 40.0 -1.6 29.65 1.2 19.5 L2.4 15.9 3.05 15.85 3.3 14.1 Q4.6 11.9 6.3 9.95 11.35 4.05 19.65 0.4 L20.6 0.0 24.0 0.25 28.75 0.95 33.45 2.2 34.5 2.55 36.55 3.35 36.65 3.4 36.3 4.15 M36.55 13.2 Q35.7 13.55 34.9 14.05 33.35 14.9 31.8 16.1 L30.65 18.35 M34.1 3.35 L35.6 5.8 36.3 4.2 36.3 4.15 M33.45 2.2 L34.1 3.35 M26.1 1.35 L21.65 1.75 23.05 0.85 24.0 0.25 M38.75 12.35 L41.4 11.8 M26.1 1.35 L28.75 0.95 M29.5 25.2 L30.5 22.9 30.4 18.8 27.5 24.3 Q26.7 26.1 26.3 28.0 L28.55 26.05 29.45 26.25 29.5 25.2 M32.3 26.9 L29.45 26.25 M30.4 18.8 L30.65 18.35 M38.75 12.35 L36.55 13.2 M23.5 50.4 L23.55 50.4 M25.8 32.1 Q25.8 31.05 25.95 30.0 26.05 28.95 26.3 28.0 M29.2 40.7 Q27.75 41.5 26.3 37.5 25.75 34.7 25.8 32.1 M26.25 50.7 L23.55 50.4" fill="none" stroke="#000000" stroke-linecap="round" stroke-linejoin="round" stroke-opacity="0.3019608" stroke-width="0.05"/>
      <path d="M4.25 42.25 L4.25 42.1 1.7 37.0 3.6 38.45 4.4 38.95 Q4.9 35.95 6.6 32.5 7.7 36.4 9.15 39.6 L9.5 40.35 10.4 42.05 Q13.75 43.4 17.5 44.1 L14.1 47.25 14.7 47.9 12.8 47.15 Q9.75 45.9 7.4 44.5 L4.25 42.25" fill="#ad0404" fill-rule="evenodd" stroke="none"/>
      <path d="M10.7 7.9 Q11.7 7.55 12.75 7.3 L15.55 8.0 Q16.75 7.25 18.05 6.7 L21.25 6.55 21.5 6.55 20.8 7.85 20.05 9.35 20.2 9.4 Q23.15 10.45 25.9 11.8 22.3 12.55 18.65 13.6 L18.45 13.65 17.8 15.95 Q16.9 19.7 16.7 23.9 L15.45 22.35 Q13.15 19.3 12.0 15.85 8.1 17.25 4.2 19.1 7.35 14.5 10.95 11.35 L10.7 7.9 M14.7 47.9 L16.4 49.5 Q12.2 48.0 7.2 45.05 L4.35 43.3 4.25 42.25 7.4 44.5 Q9.75 45.9 12.8 47.15 L14.7 47.9" fill="#e10404" fill-rule="evenodd" stroke="none"/>
      <path d="M10.7 7.9 L10.7 6.9 12.75 7.3 Q11.7 7.55 10.7 7.9 M18.05 6.7 Q19.8 5.85 21.7 5.35 L22.3 5.2 21.5 6.55 21.25 6.55 18.05 6.7" fill="#f91717" fill-rule="evenodd" stroke="none"/>
      <path d="M12.75 7.3 L10.7 6.9 10.7 7.9 M12.75 7.3 L15.55 8.0 Q16.75 7.25 18.05 6.7 19.8 5.85 21.7 5.35 L22.3 5.2 21.5 6.55 20.8 7.85 20.05 9.35 20.2 9.4 Q23.15 10.45 25.9 11.8 22.3 12.55 18.65 13.6 L18.45 13.65 17.8 15.95 Q16.9 19.7 16.7 23.9 L15.45 22.35 Q13.15 19.3 12.0 15.85 8.1 17.25 4.2 19.1 7.35 14.5 10.95 11.35 L10.7 7.9 M14.7 47.9 L16.4 49.5 Q12.2 48.0 7.2 45.05 L4.35 43.3 4.25 42.25 4.25 42.1 1.7 37.0 3.6 38.45 4.4 38.95 Q4.9 35.95 6.6 32.5 7.7 36.4 9.15 39.6 L9.5 40.35 10.4 42.05 Q13.75 43.4 17.5 44.1 L14.1 47.25 14.7 47.9" fill="none" stroke="#000000" stroke-linecap="round" stroke-linejoin="round" stroke-opacity="0.3019608" stroke-width="0.05"/>
    </g>
    <g id="sprite1" transform="matrix(1.0, 0.0, 0.0, 1.0, 73.5, 65.0)">
      <use height="136.85" transform="matrix(1.0, 0.0, 0.0, 1.0, -73.5, -65.0)" width="148.25" xlink:href="#shape3"/>
    </g>
    <g id="shape3" transform="matrix(1.0, 0.0, 0.0, 1.0, 73.5, 65.0)">
      <path d="M36.65 -54.65 Q60.05 -42.0 69.75 -17.95 80.55 8.9 68.0 34.1 55.45 59.35 26.8 68.2 -1.8 77.05 -29.7 64.3 -57.6 51.6 -68.45 24.75 -79.3 -2.05 -66.75 -27.25 L-66.7 -27.3 Q-54.1 -52.5 -25.5 -61.4 3.1 -70.2 31.0 -57.5 L36.65 -54.65" fill="url(#gradient0)" fill-rule="evenodd" stroke="none"/>
    </g>
    <radialGradient cx="0" cy="0" gradientTransform="matrix(0.0914, 0.0, 0.0, 0.0914, 0.6, 3.4)" gradientUnits="userSpaceOnUse" id="gradient0" r="819.2" spreadMethod="pad">
      <stop offset="0.0" stop-color="#ffffff"/>
      <stop offset="1.0" stop-color="#ffffff" stop-opacity="0.0"/>
    </radialGradient>
  </defs>
</svg>
