<?xml version="1.0" encoding="UTF-8" standalone="no"?>
<svg xmlns:xlink="http://www.w3.org/1999/xlink" height="520.0px" width="520.0px" xmlns="http://www.w3.org/2000/svg">
  <g transform="matrix(10.0, 0.0, 0.0, 10.0, 0.0, 0.0)">
    <use height="52.0" transform="matrix(1.0, 0.0, 0.0, 1.0, 0.0, 0.0)" width="52.0" xlink:href="#sprite0"/>
  </g>
  <defs>
    <g id="sprite0" transform="matrix(1.0, 0.0, 0.0, 1.0, 0.0, 0.0)">
      <use height="52.0" transform="matrix(1.0, 0.0, 0.0, 1.0, 0.0, 0.0)" width="52.0" xlink:href="#sprite1"/>
      <use height="46.6" transform="matrix(1.0, 0.0, 0.0, 1.0, 5.85, 2.4)" width="42.7" xlink:href="#shape1"/>
      <use height="46.8" transform="matrix(-0.1832, -0.1411, 0.4168, -0.541, 12.1, 46.0)" width="46.8" xlink:href="#sprite2"/>
      <use height="47.65" transform="matrix(1.0, 0.0, 0.0, 1.0, 5.35, 1.85)" width="43.65" xlink:href="#shape3"/>
    </g>
    <g id="sprite1" transform="matrix(1.0, 0.0, 0.0, 1.0, 0.0, 0.0)">
      <use height="52.0" transform="matrix(1.0, 0.0, 0.0, 1.0, 0.0, 0.0)" width="52.0" xlink:href="#shape0"/>
    </g>
    <g id="shape0" transform="matrix(1.0, 0.0, 0.0, 1.0, 0.0, 0.0)">
      <path d="M52.0 0.0 L52.0 52.0 0.0 52.0 0.0 0.0 52.0 0.0" fill="#ffba2e" fill-opacity="0.0" fill-rule="evenodd" stroke="none"/>
    </g>
    <g id="shape1" transform="matrix(1.0, 0.0, 0.0, 1.0, -5.85, -2.4)">
      <path d="M16.25 20.75 Q17.55 18.65 19.55 17.35 20.5 16.65 21.45 16.45 L24.85 16.55 Q26.2 17.0 27.1 18.05 L27.15 18.15 27.3 18.35 28.0 19.45 28.3 20.35 28.3 20.4 28.35 20.5 28.35 20.6 28.45 22.3 28.35 23.7 28.25 23.8 27.75 21.45 Q26.95 19.2 25.2 18.55 22.55 17.65 19.9 19.4 17.75 20.85 16.9 22.95 15.95 25.3 15.9 26.9 L15.9 28.45 15.5 27.35 Q15.15 26.65 15.15 24.8 15.15 23.0 16.25 20.75 M23.65 16.5 Q22.8 16.4 22.65 17.0 22.35 17.65 23.0 17.85 L23.8 17.65 24.3 17.35 Q24.55 16.65 23.65 16.5 M21.95 17.5 Q22.4 16.45 20.65 17.05 18.9 17.7 18.55 18.4 L18.25 18.95 18.2 19.15 18.5 19.5 Q18.9 19.7 20.45 18.75 L21.95 17.5 M24.55 30.9 Q23.35 32.15 22.35 32.4 L20.1 32.55 Q18.9 32.35 20.0 32.4 L20.45 32.4 22.4 31.95 24.1 31.2 24.55 30.9" fill="#f0b012" fill-rule="evenodd" stroke="none"/>
      <path d="M21.95 17.5 L20.45 18.75 Q18.9 19.7 18.5 19.5 L18.2 19.15 18.25 18.95 18.55 18.4 Q18.9 17.7 20.65 17.05 22.4 16.45 21.95 17.5 M23.65 16.5 Q24.55 16.65 24.3 17.35 L23.8 17.65 23.0 17.85 Q22.35 17.65 22.65 17.0 22.8 16.4 23.65 16.5" fill="#ffd56b" fill-rule="evenodd" stroke="none"/>
      <path d="M28.35 20.5 Q29.25 23.5 27.9 26.9 27.05 29.25 25.45 30.8 L23.85 32.1 Q21.4 33.55 19.2 33.1 L18.5 32.85 18.25 32.8 Q16.15 31.9 15.25 29.45 L15.05 28.9 Q14.1 25.8 15.45 22.45 L16.25 20.75 Q15.15 23.0 15.15 24.8 15.15 26.65 15.5 27.35 L15.9 28.45 15.9 26.9 Q15.95 25.3 16.9 22.95 17.75 20.85 19.9 19.4 22.55 17.65 25.2 18.55 26.95 19.2 27.75 21.45 L28.25 23.8 28.35 23.7 28.45 22.3 28.35 20.6 28.35 20.5 M24.55 30.9 L24.1 31.2 22.4 31.95 20.45 32.4 20.0 32.4 Q18.9 32.35 20.1 32.55 L22.35 32.4 Q23.35 32.15 24.55 30.9" fill="url(#gradient0)" fill-rule="evenodd" stroke="none"/>
      <path d="M18.55 27.0 Q18.45 25.6 19.05 24.1 19.8 21.95 21.55 20.9 23.4 19.8 24.95 20.4 L25.1 20.4 Q26.65 21.0 27.1 22.85 27.7 24.75 26.8 26.85 L26.2 28.15 26.25 27.5 Q26.0 25.8 24.5 25.2 L24.35 25.2 Q22.8 24.6 20.65 25.5 19.5 26.1 18.55 27.0 M25.4 22.05 L25.4 21.4 Q25.1 20.95 24.15 20.9 L22.1 21.1 Q21.25 21.65 20.95 22.4 L20.9 22.8 Q21.0 23.4 21.65 23.6 22.9 24.0 24.1 23.3 L25.4 22.05" fill="#171016" fill-rule="evenodd" stroke="none"/>
      <path d="M25.4 22.05 L24.1 23.3 Q22.9 24.0 21.65 23.6 21.0 23.4 20.9 22.8 L20.95 22.4 Q21.25 21.65 22.1 21.1 L24.15 20.9 Q25.1 20.95 25.4 21.4 L25.4 22.05" fill="#362735" fill-rule="evenodd" stroke="none"/>
      <path d="M18.55 27.0 Q19.5 26.1 20.65 25.5 22.8 24.6 24.35 25.2 L24.5 25.2 Q26.0 25.8 26.25 27.5 L26.2 28.15 Q25.55 29.4 24.35 30.05 22.65 31.25 21.05 30.65 L21.0 30.6 Q19.35 30.0 18.8 28.1 L18.55 27.0" fill="#000000" fill-rule="evenodd" stroke="none"/>
      <path d="M21.85 24.5 L25.6 24.0 25.95 22.9 Q27.3 26.25 23.5 29.4 L24.7 27.1 21.45 27.5 25.15 26.25 25.7 24.65 20.45 25.3 22.85 22.7 21.85 24.5 M20.65 26.6 Q20.7 26.4 20.9 26.3 L21.3 26.25 21.6 26.55 21.65 26.95 21.35 27.25 20.95 27.2 20.65 27.0 20.65 26.6" fill="#31d6e8" fill-rule="evenodd" stroke="none"/>
      <path d="M21.85 24.5 L25.6 24.0 25.95 22.9 Q27.3 26.25 23.5 29.4 L24.7 27.1 21.45 27.5 25.15 26.25 25.7 24.65 20.45 25.3 22.85 22.7 21.85 24.5 M20.65 26.6 Q20.7 26.4 20.9 26.3 L21.3 26.25 21.6 26.55 21.65 26.95 21.35 27.25 20.95 27.2 20.65 27.0 20.65 26.6" fill="none" stroke="#ffffff" stroke-linecap="round" stroke-linejoin="round" stroke-opacity="0.2" stroke-width="1.0"/>
      <path d="M28.35 23.9 L27.05 24.45 25.7 24.95 22.1 22.8 Q21.9 19.65 23.5 14.0 L24.05 12.2 24.1 12.1 23.7 14.15 Q23.45 16.2 23.65 18.2 L24.55 18.0 26.45 16.4 26.7 16.2 26.35 16.75 26.05 17.75 25.3 20.7 25.25 20.85 25.6 20.9 27.35 20.85 27.25 20.9 26.9 21.55 26.2 23.1 27.7 23.75 28.35 23.9" fill="#1a2122" fill-rule="evenodd" stroke="none"/>
      <path d="M24.1 12.1 L24.35 11.75 Q26.4 8.3 28.85 5.35 31.4 2.15 31.4 2.4 L31.05 4.35 29.0 12.2 27.75 14.4 26.95 15.7 26.7 16.2 26.45 16.4 24.55 18.0 23.65 18.2 Q23.45 16.2 23.7 14.15 L24.1 12.1 M24.85 13.8 Q24.5 14.7 24.3 16.3 25.9 15.45 26.15 14.35 26.3 13.2 25.7 13.05 25.15 12.85 24.85 13.8" fill="#2e393d" fill-rule="evenodd" stroke="none"/>
      <path d="M26.95 15.7 Q28.05 14.5 30.1 12.85 31.45 11.8 33.9 10.65 33.55 12.3 30.65 18.3 L29.5 19.4 27.9 20.55 27.5 20.8 27.8 20.6 27.35 20.85 25.6 20.9 25.25 20.85 25.3 20.7 26.05 17.75 26.35 16.75 26.7 16.2 26.95 15.7 M28.1 17.55 Q27.75 17.2 27.35 17.75 L26.5 19.45 Q27.75 19.4 28.15 18.7 28.5 17.95 28.1 17.55" fill="#252f30" fill-rule="evenodd" stroke="none"/>
      <path d="M27.9 20.55 L28.3 20.5 28.6 20.5 31.5 20.55 32.8 20.85 Q31.6 22.5 28.35 23.9 L27.7 23.75 26.2 23.1 26.9 21.55 27.25 20.9 27.35 20.85 27.8 20.6 27.5 20.8 27.9 20.55 M28.55 22.2 Q28.35 21.75 28.0 21.95 L27.15 22.8 Q27.95 23.4 28.35 23.0 28.7 22.65 28.55 22.2" fill="#1e2526" fill-rule="evenodd" stroke="none"/>
      <path d="M28.1 17.55 Q28.5 17.95 28.15 18.7 27.75 19.4 26.5 19.45 L27.35 17.75 Q27.75 17.2 28.1 17.55 M24.85 13.8 Q25.15 12.85 25.7 13.05 26.3 13.2 26.15 14.35 25.9 15.45 24.3 16.3 24.5 14.7 24.85 13.8 M28.55 22.2 Q28.7 22.65 28.35 23.0 27.95 23.4 27.15 22.8 L28.0 21.95 Q28.35 21.75 28.55 22.2" fill="#8eb9cb" fill-rule="evenodd" stroke="none"/>
      <path d="M26.95 23.05 L28.8 23.5 30.0 24.1 28.75 25.05 28.7 25.0 27.5 24.4 25.75 24.0 Q26.3 23.5 26.95 23.05 M30.15 46.3 L30.1 46.35 30.05 46.35 30.0 46.35 29.85 46.5 29.8 46.55 29.75 46.6 29.35 46.85 29.25 46.9 28.8 47.1 Q26.35 48.25 23.25 47.05 19.5 45.55 16.95 41.55 14.45 37.6 14.5 33.5 14.7 30.0 16.65 28.1 L17.45 27.4 17.9 27.1 18.05 27.0 18.15 26.9 18.2 26.9 18.35 26.9 18.45 26.8 18.55 26.75 18.65 26.75 21.8 26.45 22.5 26.6 23.65 25.65 25.2 26.1 26.4 26.7 25.1 27.6 26.9 28.8 Q28.35 29.95 29.55 31.55 L30.15 32.45 Q31.5 34.55 32.05 36.7 32.6 38.6 32.55 40.65 L32.4 42.1 Q32.2 43.5 31.5 44.6 L30.3 46.2 Q30.25 46.2 30.15 46.3 M30.65 42.55 Q31.05 41.5 31.05 40.1 31.15 38.35 30.65 36.7 30.3 35.3 29.5 33.85 L29.0 33.2 29.0 33.1 28.55 32.45 28.5 32.35 28.45 32.3 28.45 32.25 28.3 32.05 26.35 30.15 24.9 29.2 24.15 28.8 23.8 28.7 22.65 28.35 21.2 28.15 20.85 28.15 19.4 28.45 19.35 28.4 19.2 28.5 19.15 28.5 18.8 28.7 18.45 28.95 Q16.15 30.55 15.95 34.05 15.9 37.5 18.05 40.8 L18.65 41.9 19.95 43.45 21.5 44.75 Q23.65 46.4 25.3 46.25 L27.9 45.7 28.65 45.1 28.75 45.05 28.9 44.95 29.15 44.65 29.1 44.75 30.25 43.35 30.65 42.55 M30.1 46.35 L30.25 46.2 30.3 46.2 30.25 46.2 30.1 46.35 M29.35 46.85 L29.8 46.55 29.35 46.85 M29.25 46.9 L29.85 46.5 29.25 46.9" fill="#97b8c7" fill-rule="evenodd" stroke="none"/>
      <path d="M34.3 27.95 L35.05 29.05 Q37.55 32.95 37.5 37.1 37.3 40.55 35.4 42.5 L34.15 43.4 Q36.0 41.45 36.2 38.0 36.25 33.85 33.75 29.95 L33.1 28.9 34.3 27.95 M31.95 45.05 L31.1 45.65 30.15 46.3 Q30.25 46.2 30.3 46.2 L31.5 44.6 Q32.2 43.5 32.4 42.1 L32.55 40.65 Q32.6 38.6 32.05 36.7 31.5 34.55 30.15 32.45 L29.55 31.55 30.8 30.65 31.45 31.6 Q33.95 35.55 33.9 39.7 33.7 43.05 31.95 45.05 M18.05 40.8 Q15.9 37.5 15.95 34.05 16.15 30.55 18.45 28.95 L18.8 28.7 19.15 28.5 19.2 28.5 19.35 28.4 19.4 28.45 20.85 28.15 Q20.4 29.2 20.3 30.65 20.25 34.15 22.4 37.45 L22.6 37.7 22.7 37.8 24.7 40.25 Q20.85 39.65 20.25 43.2 L18.3 41.0 18.05 40.8" fill="#2e393d" fill-rule="evenodd" stroke="none"/>
      <path d="M30.0 24.1 Q32.4 25.45 34.3 27.95 L33.1 28.9 33.0 28.85 Q31.1 26.35 28.75 25.05 L30.0 24.1 M26.95 23.05 Q26.3 23.5 25.75 24.0 L25.65 23.95 Q23.0 23.5 20.95 24.9 L20.75 25.1 20.6 25.1 Q21.15 24.7 22.25 24.0 L22.2 24.05 22.5 23.85 Q24.45 22.6 26.95 23.05 M29.55 31.55 Q28.35 29.95 26.9 28.8 L25.1 27.6 26.4 26.7 Q28.8 28.0 30.7 30.5 L30.8 30.65 29.55 31.55 M23.65 25.65 L22.5 26.6 21.8 26.45 18.65 26.75 18.55 26.75 18.45 26.8 18.35 26.9 18.2 26.9 18.15 26.9 18.05 27.0 17.85 27.1 18.25 26.8 18.45 26.75 18.65 26.55 Q20.7 25.15 23.35 25.65 L23.65 25.65 M30.65 42.55 L30.25 43.35 29.1 44.75 29.15 44.65 28.9 44.95 28.75 45.05 28.65 45.1 27.7 45.45 24.85 45.65 Q22.6 45.55 20.6 43.6 L20.25 43.2 Q20.85 39.65 24.7 40.25 25.95 41.5 27.6 42.1 L30.65 42.55" fill="#576a73" fill-rule="evenodd" stroke="none"/>
      <path d="M28.65 45.1 L27.9 45.7 25.3 46.25 Q23.65 46.4 21.5 44.75 L19.95 43.45 18.65 41.9 18.05 40.8 18.3 41.0 20.25 43.2 20.6 43.6 Q22.6 45.55 24.85 45.65 L27.7 45.45 28.65 45.1" fill="#c5d5de" fill-rule="evenodd" stroke="none"/>
      <path d="M34.15 43.4 L33.8 43.65 31.95 45.05 Q33.7 43.05 33.9 39.7 33.95 35.55 31.45 31.6 L30.8 30.65 32.9 29.05 33.1 28.9 33.75 29.95 Q36.25 33.85 36.2 38.0 36.0 41.45 34.15 43.4" fill="#262f33" fill-rule="evenodd" stroke="none"/>
      <path d="M20.6 25.1 L20.75 25.1 20.95 24.9 Q23.0 23.5 25.65 23.95 L25.75 24.0 24.65 24.8 23.65 25.65 23.35 25.65 Q20.7 25.15 18.65 26.55 L18.45 26.75 18.25 26.8 20.6 25.1 M26.4 26.7 L28.75 25.05 Q31.1 26.35 33.0 28.85 L33.1 28.9 32.9 29.05 30.8 30.65 30.7 30.5 Q28.8 28.0 26.4 26.7" fill="#4b5a63" fill-rule="evenodd" stroke="none"/>
      <path d="M25.75 24.0 L27.5 24.4 28.7 25.0 28.75 25.05 26.4 26.7 25.2 26.1 23.65 25.65 24.65 24.8 25.75 24.0" fill="#88a4b3" fill-rule="evenodd" stroke="none"/>
      <path d="M30.1 46.35 L29.8 46.55 29.35 46.85 M29.25 46.9 L28.8 47.1 M16.65 28.1 L16.65 27.95 14.45 29.55 M20.6 25.1 L20.75 25.1 20.95 24.9 Q23.0 23.5 25.65 23.95 L25.75 24.0 27.5 24.4 28.7 25.0 28.75 25.05 Q31.1 26.35 33.0 28.85 L33.1 28.9 33.75 29.95 Q36.25 33.85 36.2 38.0 36.0 41.45 34.15 43.4 M26.4 26.7 L25.2 26.1 23.65 25.65 M30.8 30.65 L31.45 31.6 Q33.95 35.55 33.9 39.7 33.7 43.05 31.95 45.05 M26.4 26.7 Q28.8 28.0 30.7 30.5 L30.8 30.65 M30.1 46.35 L30.05 46.35 30.0 46.35 29.85 46.5 29.25 46.9 M30.3 46.2 L30.25 46.2 30.1 46.35 M16.65 27.95 L16.75 27.85 17.5 27.35 17.55 27.25 18.2 26.8 18.25 26.8 17.85 27.1 17.55 27.25 M18.25 26.8 L18.45 26.75 18.65 26.55 Q20.7 25.15 23.35 25.65 L23.65 25.65 M17.5 27.35 Q17.05 27.6 16.65 27.95" fill="none" stroke="#97b6c7" stroke-linecap="round" stroke-linejoin="round" stroke-opacity="0.4" stroke-width="0.05"/>
      <path d="M25.75 30.2 Q26.35 30.55 27.1 30.75 L29.3 31.55 Q27.25 31.9 26.1 30.7 L25.75 30.2 M6.8 49.0 Q6.35 47.9 6.05 45.7 L5.85 42.3 Q5.9 38.45 6.85 36.1 8.85 30.9 14.05 24.75 L14.25 24.5 Q18.05 21.7 21.55 18.4 23.9 16.25 26.35 14.5 L29.75 12.25 19.05 22.3 25.0 16.45 Q23.95 17.05 21.0 19.95 18.3 22.4 17.1 23.8 L13.85 27.2 Q11.85 29.2 10.7 30.85 8.5 33.95 7.5 37.85 6.9 40.1 6.55 44.55 L6.6 44.55 Q6.5 47.0 6.8 49.0" fill="#576a73" fill-rule="evenodd" stroke="none"/>
      <path d="M19.05 22.3 L18.85 22.45 Q14.55 26.95 11.8 30.95 6.8 38.3 6.6 44.55 L6.55 44.55 Q6.9 40.1 7.5 37.85 8.5 33.95 10.7 30.85 11.85 29.2 13.85 27.2 L17.1 23.8 Q18.3 22.4 21.0 19.95 23.95 17.05 25.0 16.45 L19.05 22.3" fill="#97b8c7" fill-rule="evenodd" stroke="none"/>
      <path d="M29.75 12.25 L29.7 15.85 Q27.7 18.85 26.5 22.05 25.55 24.5 25.2 26.7 L25.05 28.5 Q25.15 29.45 25.75 30.2 L26.1 30.7 Q27.25 31.9 29.3 31.55 L29.35 31.5 27.8 35.05 Q18.85 38.6 14.4 41.55 9.55 44.7 6.8 49.0 6.5 47.0 6.6 44.55 6.8 38.3 11.8 30.95 14.55 26.95 18.85 22.45 L19.05 22.3 29.75 12.25" fill="url(#gradient1)" fill-rule="evenodd" stroke="none"/>
      <path d="M32.0 18.85 L32.1 19.0 Q34.5 20.95 35.3 24.55 35.85 26.95 35.4 29.15 L34.75 31.05 Q33.6 33.65 31.5 34.45 L30.75 34.65 30.5 34.75 30.05 34.8 28.8 32.8 28.0 34.65 26.15 33.7 25.7 33.35 Q23.2 31.3 22.45 27.75 L22.15 25.85 Q22.05 23.35 23.05 21.2 23.45 20.1 24.1 19.45 25.3 18.0 26.95 17.6 28.3 17.25 29.65 17.6 L29.75 17.65 30.05 17.75 Q30.6 17.85 31.15 18.3 L32.0 18.8 32.0 18.85" fill="#000000" fill-opacity="0.3019608" fill-rule="evenodd" stroke="none"/>
      <path d="M39.05 26.6 L36.95 26.6 34.85 26.6 29.45 23.0 Q29.45 19.75 32.3 14.6 L33.25 13.0 33.35 12.95 Q32.9 13.8 32.6 14.8 32.0 16.8 32.2 18.95 L33.6 19.05 36.7 18.25 37.0 18.1 Q36.7 18.25 36.5 18.5 L35.95 19.4 Q35.1 20.7 34.55 22.15 L34.5 22.3 35.0 22.5 37.75 23.05 37.6 23.15 36.95 23.65 35.75 24.9 Q36.4 25.45 37.95 26.1 L39.05 26.6" fill="#1a2122" fill-rule="evenodd" stroke="none"/>
      <path d="M33.35 12.95 L33.75 12.65 Q37.2 9.95 41.2 7.9 45.35 5.7 45.3 5.95 L44.65 7.85 Q44.05 9.45 40.9 14.95 L38.85 16.75 37.5 17.7 37.0 18.1 36.7 18.25 33.6 19.05 32.2 18.95 Q32.0 16.8 32.6 14.8 32.9 13.8 33.35 12.95 M34.35 14.95 Q33.8 15.7 33.4 17.25 35.95 17.05 36.3 15.95 36.65 14.9 35.75 14.5 34.9 14.1 34.35 14.95" fill="#2e393d" fill-rule="evenodd" stroke="none"/>
      <path d="M37.5 17.7 Q39.25 16.95 42.6 16.1 L48.55 15.35 Q47.9 16.95 43.0 21.8 L41.2 22.5 38.55 23.05 37.95 23.1 38.4 23.05 37.75 23.05 35.0 22.5 34.5 22.3 34.55 22.15 Q35.1 20.7 35.95 19.4 L36.5 18.5 Q36.7 18.25 37.0 18.1 L37.5 17.7 M39.15 20.05 L38.0 19.95 Q37.3 20.35 36.55 21.3 L39.1 21.2 Q39.65 20.6 39.15 20.05" fill="#252f30" fill-rule="evenodd" stroke="none"/>
      <path d="M38.55 23.05 L39.15 23.1 39.65 23.25 44.1 24.5 46.1 25.25 Q44.1 26.45 39.05 26.6 L37.95 26.1 Q36.4 25.45 35.75 24.9 L36.95 23.65 37.6 23.15 37.75 23.05 38.4 23.05 37.95 23.1 38.55 23.05 M39.45 24.95 Q39.2 24.4 38.65 24.45 38.1 24.6 37.25 25.0 38.5 25.95 39.05 25.65 39.65 25.4 39.45 24.95" fill="#1e2526" fill-rule="evenodd" stroke="none"/>
      <path d="M39.15 20.05 Q39.65 20.6 39.1 21.2 L36.55 21.3 Q37.3 20.35 38.0 19.95 L39.15 20.05 M34.35 14.95 Q34.9 14.1 35.75 14.5 36.65 14.9 36.3 15.95 35.95 17.05 33.4 17.25 33.8 15.7 34.35 14.95 M39.45 24.95 Q39.65 25.4 39.05 25.65 38.5 25.95 37.25 25.0 38.1 24.6 38.65 24.45 39.2 24.4 39.45 24.95" fill="#8eb9cb" fill-rule="evenodd" stroke="none"/>
      <path d="M26.0 18.4 Q25.8 17.25 24.65 18.7 23.6 20.2 23.7 21.0 L23.7 21.65 23.8 21.85 24.25 22.0 Q24.7 21.9 25.45 20.2 26.1 18.7 26.0 18.4 M23.1 24.25 Q23.0 21.75 23.95 19.6 24.3 18.5 25.05 17.8 26.2 16.4 27.9 15.95 L30.55 15.9 30.65 16.05 30.95 16.1 Q31.55 16.25 32.1 16.65 L32.9 17.2 32.9 17.25 Q32.95 17.2 33.0 17.3 L33.05 17.35 34.05 18.8 34.8 19.95 34.75 20.1 Q33.95 19.1 33.0 18.45 31.1 16.95 29.3 17.45 26.6 18.2 25.35 21.05 24.4 23.45 24.85 25.7 25.35 28.15 26.2 29.55 L27.05 30.8 26.15 30.15 Q25.5 29.75 24.45 28.2 23.45 26.7 23.1 24.25 M26.85 16.55 Q26.1 16.95 26.3 17.6 26.4 18.25 27.05 18.1 L27.65 17.45 27.85 16.9 Q27.75 16.25 26.85 16.55 M35.6 28.05 Q35.35 29.75 34.65 30.55 L32.85 31.9 Q31.7 32.35 32.7 31.8 L33.05 31.55 34.4 30.15 35.4 28.55 35.6 28.05" fill="#f0b012" fill-rule="evenodd" stroke="none"/>
      <path d="M26.0 18.4 Q26.1 18.7 25.45 20.2 24.7 21.9 24.25 22.0 L23.8 21.85 23.7 21.65 23.7 21.0 Q23.6 20.2 24.65 18.7 25.8 17.25 26.0 18.4 M26.85 16.55 Q27.75 16.25 27.85 16.9 L27.65 17.45 27.05 18.1 Q26.4 18.25 26.3 17.6 26.1 16.95 26.85 16.55" fill="#ffd56b" fill-rule="evenodd" stroke="none"/>
      <path d="M33.0 17.3 Q35.4 19.3 36.2 22.85 36.8 25.3 36.35 27.5 L35.7 29.4 Q34.55 32.0 32.4 32.85 L31.7 33.05 31.45 33.1 Q29.2 33.55 27.1 32.0 L26.65 31.65 Q24.1 29.65 23.4 26.1 L23.1 24.25 Q23.45 26.7 24.45 28.2 25.5 29.75 26.15 30.15 L27.05 30.8 26.2 29.55 Q25.35 28.15 24.85 25.7 24.4 23.45 25.35 21.05 26.6 18.2 29.3 17.45 31.1 16.95 33.0 18.45 33.95 19.1 34.75 20.1 L34.8 19.95 34.05 18.8 33.05 17.35 33.0 17.3 M35.6 28.05 L35.4 28.55 34.4 30.15 33.05 31.55 32.7 31.8 Q31.7 32.35 32.85 31.9 L34.65 30.55 Q35.35 29.75 35.6 28.05" fill="url(#gradient2)" fill-rule="evenodd" stroke="none"/>
      <path d="M30.95 19.65 Q30.45 19.4 29.65 19.9 28.55 20.25 28.0 21.2 27.7 22.15 27.8 22.95 L27.95 23.3 Q28.4 23.75 29.05 23.6 30.3 23.2 30.9 21.95 31.45 20.9 31.3 20.25 L30.95 19.65 M28.35 28.15 Q27.5 27.0 27.15 25.45 26.6 23.2 27.45 21.35 28.35 19.45 29.95 19.1 L30.1 19.05 Q31.75 18.65 33.2 19.85 34.7 21.15 35.15 23.4 L35.35 24.85 35.05 24.25 Q33.85 22.95 32.3 23.35 L32.15 23.4 Q30.5 23.75 29.25 25.75 28.65 26.85 28.35 28.15" fill="#171016" fill-rule="evenodd" stroke="none"/>
      <path d="M30.95 19.65 L31.3 20.25 Q31.45 20.9 30.9 21.95 30.3 23.2 29.05 23.6 28.4 23.75 27.95 23.3 L27.8 22.95 Q27.7 22.15 28.0 21.2 28.55 20.25 29.65 19.9 30.45 19.4 30.95 19.65" fill="#362735" fill-rule="evenodd" stroke="none"/>
      <path d="M28.35 28.15 Q28.65 26.85 29.25 25.75 30.5 23.75 32.15 23.4 L32.3 23.35 Q33.85 22.95 35.05 24.25 L35.35 24.85 Q35.5 26.2 34.85 27.4 34.1 29.35 32.45 29.7 L32.4 29.75 Q30.7 30.15 29.15 28.9 L28.35 28.15" fill="#000000" fill-rule="evenodd" stroke="none"/>
      <path d="M30.1 26.9 L29.85 26.6 29.9 26.2 Q30.05 26.0 30.25 25.95 L30.65 26.0 30.9 26.35 30.85 26.7 30.5 26.95 30.1 26.9 M29.7 24.2 L32.55 21.65 32.25 20.55 Q35.2 22.6 33.85 27.3 L33.6 24.75 31.05 26.9 33.4 23.8 33.0 22.2 28.95 25.6 29.5 22.15 29.7 24.2" fill="#31d6e8" fill-rule="evenodd" stroke="none"/>
      <path d="M30.1 26.9 L29.85 26.6 29.9 26.2 Q30.05 26.0 30.25 25.95 L30.65 26.0 30.9 26.35 30.85 26.7 30.5 26.95 30.1 26.9 M29.7 24.2 L32.55 21.65 32.25 20.55 Q35.2 22.6 33.85 27.3 L33.6 24.75 31.05 26.9 33.4 23.8 33.0 22.2 28.95 25.6 29.5 22.15 29.7 24.2" fill="none" stroke="#ffffff" stroke-linecap="round" stroke-linejoin="round" stroke-opacity="0.2" stroke-width="1.0"/>
      <path d="M12.5 27.25 Q13.25 26.65 13.7 26.8 13.6 27.6 12.65 28.15 L12.0 28.35 Q12.85 28.05 13.0 27.45 11.65 28.15 11.1 29.3 L10.05 31.45 7.75 35.2 10.05 31.05 10.8 28.95 12.5 27.25" fill="#2e393d" fill-rule="evenodd" stroke="none"/>
      <path d="M10.5 38.35 Q12.05 33.25 18.1 30.3 L17.95 29.65 17.35 28.9 17.25 28.9 Q16.45 28.85 15.95 29.4 15.55 30.1 16.15 30.3 14.95 30.6 14.7 29.75 15.45 28.55 17.25 28.15 L17.75 28.0 Q19.0 28.3 19.6 29.45 L19.65 29.65 Q19.7 30.2 19.2 30.9 13.2 32.95 10.5 38.35" fill="#191e21" fill-rule="evenodd" stroke="none"/>
      <path d="M10.5 38.35 Q13.2 32.95 19.2 30.9 19.7 30.2 19.65 29.65 M16.15 30.3 Q15.55 30.1 15.95 29.4 16.45 28.85 17.25 28.9" fill="none" stroke="#97b6c7" stroke-linecap="round" stroke-linejoin="round" stroke-opacity="0.4" stroke-width="0.05"/>
    </g>
    <radialGradient cx="0" cy="0" gradientTransform="matrix(0.0144, 0.0052, -0.0073, 0.0188, 23.4, 20.2)" gradientUnits="userSpaceOnUse" id="gradient0" r="819.2" spreadMethod="pad">
      <stop offset="0.0" stop-color="#f0b012"/>
      <stop offset="1.0" stop-color="#b3540e"/>
    </radialGradient>
    <radialGradient cx="0" cy="0" gradientTransform="matrix(0.0277, -0.0217, 0.0119, 0.0152, 13.95, 40.65)" gradientUnits="userSpaceOnUse" id="gradient1" r="819.2" spreadMethod="pad">
      <stop offset="0.0" stop-color="#576a73"/>
      <stop offset="1.0" stop-color="#2e393d"/>
    </radialGradient>
    <radialGradient cx="0" cy="0" gradientTransform="matrix(0.0148, -0.0037, 0.0043, 0.0197, 28.75, 19.8)" gradientUnits="userSpaceOnUse" id="gradient2" r="819.2" spreadMethod="pad">
      <stop offset="0.0" stop-color="#f0b012"/>
      <stop offset="1.0" stop-color="#b3540e"/>
    </radialGradient>
    <g id="sprite2" transform="matrix(1.0, 0.0, 0.0, 1.0, 0.0, 0.0)">
      <use height="46.8" transform="matrix(1.0, 0.0, 0.0, 1.0, 0.0, 0.0)" width="46.8" xlink:href="#shape2"/>
    </g>
    <g id="shape2" transform="matrix(1.0, 0.0, 0.0, 1.0, 0.0, 0.0)">
      <path d="M39.95 6.85 Q46.8 13.7 46.8 23.4 46.8 33.1 39.95 39.95 33.1 46.8 23.4 46.8 13.7 46.8 6.85 39.95 0.0 33.1 0.0 23.4 0.0 13.7 6.85 6.85 13.7 0.0 23.4 0.0 33.1 0.0 39.95 6.85" fill="url(#gradient3)" fill-rule="evenodd" stroke="none"/>
    </g>
    <radialGradient cx="0" cy="0" fx="534.4" fy="0" gradientTransform="matrix(0.0294, 0.0, 0.0, 0.0294, 23.4, 23.4)" gradientUnits="userSpaceOnUse" id="gradient3" r="819.2" spreadMethod="pad">
      <stop offset="0.0" stop-color="#ffa8d2"/>
      <stop offset="1.0" stop-color="#ffa8d2" stop-opacity="0.0"/>
    </radialGradient>
    <g id="shape3" transform="matrix(1.0, 0.0, 0.0, 1.0, -5.35, -1.85)">
      <path d="M44.65 7.8 L40.9 14.95 38.85 16.75 37.5 17.7 Q39.2 16.9 42.55 16.1 L48.5 15.35 Q47.9 16.9 42.95 21.8 L41.1 22.5 38.55 23.05 39.15 23.15 39.6 23.25 Q41.85 23.8 44.05 24.5 L46.05 25.25 Q44.05 26.45 39.0 26.65 L36.9 26.65 36.5 26.65 36.35 27.45 35.75 29.4 35.55 29.85 Q37.5 33.4 37.45 37.15 37.3 40.55 35.4 42.5 L34.1 43.4 33.85 43.6 31.95 45.0 31.1 45.65 30.35 46.2 30.3 46.2 30.25 46.25 30.15 46.3 30.1 46.35 30.05 46.35 30.0 46.35 29.8 46.45 29.8 46.5 29.75 46.6 29.45 46.8 29.25 46.95 28.85 47.1 Q26.35 48.25 23.25 47.05 19.55 45.55 16.95 41.55 L16.3 40.45 14.4 41.55 Q9.55 44.7 6.8 49.0 6.35 47.9 6.05 45.7 L5.85 42.3 Q5.9 38.45 6.85 36.1 8.85 30.9 14.05 24.75 L14.25 24.5 14.95 23.95 15.45 22.45 16.3 20.75 Q17.6 18.65 19.6 17.4 20.55 16.7 21.4 16.45 L22.95 16.25 23.5 14.0 24.0 12.25 24.1 12.1 24.3 11.75 Q26.4 8.3 28.8 5.3 31.4 2.1 31.35 2.4 L31.1 4.35 29.0 12.2 28.5 13.1 29.75 12.25 29.75 13.15 30.1 12.85 33.85 10.65 32.65 14.0 33.2 13.0 Q33.2 12.95 33.35 12.9 L33.75 12.6 Q37.25 10.0 41.1 7.9 45.35 5.7 45.3 6.0 L44.65 7.8 M28.8 32.95 L28.0 34.65 27.8 35.05 Q24.8 36.25 22.35 37.35 L22.4 37.4 22.65 37.7 22.65 37.85 Q23.6 39.25 24.7 40.25 26.0 41.45 27.6 42.15 L30.65 42.55 Q31.05 41.45 31.05 40.05 31.1 38.35 30.65 36.7 30.35 35.45 29.7 34.3 L29.0 33.2 29.0 33.15 28.9 33.0 28.8 32.95 M22.35 37.35 Q18.75 38.9 16.3 40.45" fill="none" stroke="#000000" stroke-linecap="round" stroke-linejoin="round" stroke-opacity="0.3019608" stroke-width="1.0"/>
    </g>
  </defs>
</svg>
