<?xml version="1.0" encoding="UTF-8" standalone="no"?>
<svg xmlns:xlink="http://www.w3.org/1999/xlink" height="520.0px" width="520.0px" xmlns="http://www.w3.org/2000/svg">
  <g transform="matrix(10.0, 0.0, 0.0, 10.0, 0.0, 0.0)">
    <use height="52.0" transform="matrix(1.0, 0.0, 0.0, 1.0, 0.0, 0.0)" width="52.0" xlink:href="#shape0"/>
    <use height="136.85" transform="matrix(0.1752, -0.0526, 0.0633, 0.1282, 8.4564, 15.4889)" width="148.25" xlink:href="#sprite0"/>
    <use height="136.85" transform="matrix(0.0945, -0.0234, 0.1162, 0.1048, 6.3503, 30.7087)" width="148.25" xlink:href="#sprite0"/>
    <use height="81.5" transform="matrix(0.2334, -0.0091, 0.0091, 0.2336, 13.85, 23.65)" width="81.5" xlink:href="#sprite1"/>
  </g>
  <defs>
    <g id="shape0" transform="matrix(1.0, 0.0, 0.0, 1.0, 0.0, 0.0)">
      <path d="M52.0 0.0 L52.0 52.0 0.0 52.0 0.0 0.0 52.0 0.0" fill="#795fa9" fill-opacity="0.0" fill-rule="evenodd" stroke="none"/>
      <path d="M30.95 12.2 L30.65 12.3 30.85 12.15 30.95 12.2" fill="#000099" fill-rule="evenodd" stroke="none"/>
      <path d="M30.95 12.2 L30.85 12.15 30.65 12.3" fill="none" stroke="#ff0000" stroke-linecap="round" stroke-linejoin="round" stroke-width="0.05"/>
      <path d="M5.55 24.35 L7.1 24.8 8.1 26.3 7.05 27.2 Q6.8 27.4 6.95 27.7 8.25 30.75 11.5 35.0 L12.4 36.2 Q16.7 41.5 23.05 44.25 L26.45 45.45 30.8 46.25 Q32.9 46.45 34.85 46.2 L37.0 46.1 Q39.9 45.65 43.0 43.25 L43.2 43.1 Q45.7 40.75 47.1 35.9 L47.25 35.5 Q48.65 30.4 47.65 27.4 L46.2 23.35 43.05 16.55 42.45 15.1 42.0 14.6 40.85 14.3 Q40.75 13.25 40.3 12.5 L41.1 11.75 40.05 8.75 39.65 8.3 23.65 4.95 22.2 5.0 18.75 7.95 4.1 20.9 4.1 21.6 5.55 24.35 M33.45 29.2 Q33.85 30.95 33.5 33.0 33.0 35.75 31.4 37.8 31.05 35.65 31.8 33.05 32.35 30.9 33.45 29.2" fill="none" stroke="#000000" stroke-linecap="round" stroke-linejoin="round" stroke-opacity="0.3019608" stroke-width="1.0"/>
      <path d="M29.55 42.75 L29.15 42.2 Q26.55 38.8 24.0 32.1 L33.95 22.95 32.8 24.8 Q30.5 28.5 29.8 31.35 28.3 38.1 29.3 42.0 L29.55 42.75 M31.6 38.7 L31.45 38.15 31.4 37.8 Q33.0 35.75 33.5 33.0 33.85 30.95 33.45 29.2 L33.8 28.75 44.1 30.35 Q44.25 31.75 43.9 33.45 L43.65 34.4 Q42.7 37.95 40.25 40.3 L39.85 40.65 31.6 38.7" fill="#eeb000" fill-rule="evenodd" stroke="none"/>
      <path d="M23.7 32.4 L24.25 33.9 Q25.35 36.55 26.6 39.0 L27.65 40.9 24.2 41.2 Q18.0 41.0 11.5 35.0 8.25 30.75 6.95 27.7 L23.7 32.4 M34.3 45.95 L32.35 45.2 31.85 44.9 Q33.3 44.0 33.6 42.3 34.3 42.7 35.15 42.8 L36.95 42.7 Q35.3 43.95 34.3 45.95 M41.05 16.4 L42.45 15.1 43.05 16.55 45.05 20.9 Q43.5 22.5 42.95 25.5 L42.8 25.9 42.7 25.75 Q41.8 24.9 40.5 24.65 41.85 20.05 41.05 16.4 M39.85 40.65 Q37.6 42.6 35.3 42.35 34.1 42.2 33.25 41.5 L33.2 41.45 Q32.35 40.7 31.8 39.35 L31.7 39.1 31.6 38.7 39.85 40.65" fill="#c08602" fill-rule="evenodd" stroke="none"/>
      <path d="M27.65 40.9 L29.4 43.2 31.65 45.35 Q33.2 46.05 34.85 46.2 32.9 46.45 30.8 46.25 L26.45 45.45 23.05 44.25 Q16.7 41.5 12.4 36.2 L11.5 35.0 Q18.0 41.0 24.2 41.2 L27.65 40.9 M42.0 14.6 L23.65 31.8 7.05 27.2 25.1 10.95 42.0 14.6 M33.8 28.75 L35.0 27.35 35.2 27.15 35.5 26.85 36.75 25.95 Q37.7 25.35 38.6 25.2 L40.1 25.05 Q41.45 25.25 42.4 26.1 43.15 26.85 43.6 28.1 L44.1 30.35 33.8 28.75" fill="#9d7200" fill-rule="evenodd" stroke="none"/>
      <path d="M37.0 46.1 L34.3 45.95 Q35.3 43.95 36.95 42.7 38.65 42.3 40.35 40.65 42.95 38.2 44.0 34.45 L44.2 33.6 Q44.95 30.35 43.9 27.8 L42.8 25.9 42.95 25.5 Q43.5 22.5 45.05 20.9 L46.2 23.35 47.65 27.4 Q48.65 30.4 47.25 35.5 L47.1 35.9 Q45.7 40.75 43.2 43.1 L43.0 43.25 Q39.9 45.65 37.0 46.1 M31.85 44.9 L29.55 42.75 29.3 42.0 Q28.3 38.1 29.8 31.35 30.5 28.5 32.8 24.8 L33.95 22.95 41.05 16.4 Q41.85 20.05 40.5 24.65 L40.25 24.6 38.65 24.7 Q37.65 24.9 36.7 25.55 35.95 25.95 35.15 26.7 L35.1 26.8 34.85 27.0 33.25 29.0 Q32.05 30.75 31.45 33.0 30.7 35.75 31.0 38.0 L31.1 38.35 31.4 39.45 31.5 39.65 Q32.05 41.05 32.95 41.9 L33.0 41.9 33.6 42.3 Q33.3 44.0 31.85 44.9" fill="#ffde4f" fill-rule="evenodd" stroke="none"/>
      <path d="M27.65 40.9 L26.6 39.0 Q25.35 36.55 24.25 33.9 L23.7 32.4 6.95 27.7 Q6.8 27.4 7.05 27.2 L23.65 31.8 42.0 14.6 42.45 15.1 41.05 16.4 33.95 22.95 24.0 32.1 Q26.55 38.8 29.15 42.2 L29.55 42.75 31.85 44.9 32.35 45.2 34.3 45.95 37.0 46.1 34.85 46.2 Q33.2 46.05 31.65 45.35 L29.4 43.2 27.65 40.9 M33.6 42.3 L33.0 41.9 32.95 41.9 Q32.05 41.05 31.5 39.65 L31.4 39.45 31.1 38.35 31.0 38.0 Q30.7 35.75 31.45 33.0 32.05 30.75 33.25 29.0 L34.85 27.0 35.1 26.8 35.15 26.7 Q35.95 25.95 36.7 25.55 37.65 24.9 38.65 24.7 L40.25 24.6 40.5 24.65 Q41.8 24.9 42.7 25.75 L42.8 25.9 43.9 27.8 Q44.95 30.35 44.2 33.6 L44.0 34.45 Q42.95 38.2 40.35 40.65 38.65 42.3 36.95 42.7 L35.15 42.8 Q34.3 42.7 33.6 42.3 M31.6 38.7 L31.7 39.1 31.8 39.35 Q32.35 40.7 33.2 41.45 L33.25 41.5 Q34.1 42.2 35.3 42.35 37.6 42.6 39.85 40.65 L40.25 40.3 Q42.7 37.95 43.65 34.4 L43.9 33.45 Q44.25 31.75 44.1 30.35 L43.6 28.1 Q43.15 26.85 42.4 26.1 41.45 25.25 40.1 25.05 L38.6 25.2 Q37.7 25.35 36.75 25.95 L35.5 26.85 35.2 27.15 35.0 27.35 33.8 28.75 33.45 29.2 Q32.35 30.9 31.8 33.05 31.05 35.65 31.4 37.8 L31.45 38.15 31.6 38.7" fill="#ffff98" fill-rule="evenodd" stroke="none"/>
      <path d="M34.85 46.2 L37.0 46.1 M42.45 15.1 L42.0 14.6 25.1 10.95 7.05 27.2 Q6.8 27.4 6.95 27.7 8.25 30.75 11.5 35.0 L12.4 36.2 Q16.7 41.5 23.05 44.25 L26.45 45.45 30.8 46.25 Q32.9 46.45 34.85 46.2 M31.6 38.7 L31.45 38.15 31.4 37.8 Q31.05 35.65 31.8 33.05 32.35 30.9 33.45 29.2 L33.8 28.75 M45.05 20.9 L43.05 16.55 42.45 15.1 M33.45 29.2 Q33.85 30.95 33.5 33.0 33.0 35.75 31.4 37.8 M45.05 20.9 L46.2 23.35 47.65 27.4 Q48.65 30.4 47.25 35.5 L47.1 35.9 Q45.7 40.75 43.2 43.1 L43.0 43.25 Q39.9 45.65 37.0 46.1" fill="none" stroke="#000000" stroke-linecap="round" stroke-linejoin="round" stroke-opacity="0.3019608" stroke-width="0.05"/>
      <path d="M8.0 23.65 L21.8 27.55 23.25 30.75 10.85 27.3 9.7 25.35 8.0 23.65" fill="#934fc1" fill-rule="evenodd" stroke="none"/>
      <path d="M6.8 23.1 L8.0 23.65 9.7 25.35 10.85 27.3 8.4 26.55 Q6.7 25.1 6.8 23.1 M22.35 27.55 L27.05 23.15 Q26.4 25.0 26.9 26.4 L27.35 27.25 23.7 30.6 Q22.75 29.1 22.35 27.55 M38.85 12.15 L39.55 11.55 Q40.75 12.55 40.9 14.75 L39.85 15.75 Q40.15 14.75 39.9 13.85 39.65 12.95 38.85 12.15" fill="#b181d3" fill-rule="evenodd" stroke="none"/>
      <path d="M27.05 23.15 L38.85 12.15 Q39.65 12.95 39.9 13.85 40.15 14.75 39.85 15.75 L27.35 27.25 26.9 26.4 Q26.4 25.0 27.05 23.15" fill="#c19adc" fill-rule="evenodd" stroke="none"/>
      <path d="M21.8 27.55 L22.35 27.55 Q22.75 29.1 23.7 30.6 L23.25 30.75 21.8 27.55" fill="#efe6f7" fill-rule="evenodd" stroke="none"/>
      <path d="M8.0 23.65 L6.8 23.1 23.55 8.2 39.55 11.55 38.85 12.15 27.05 23.15 22.35 27.55 21.8 27.55 8.0 23.65" fill="#532772" fill-rule="evenodd" stroke="none"/>
      <path d="M6.8 23.1 L8.0 23.65 21.8 27.55 22.35 27.55 27.05 23.15 38.85 12.15 39.55 11.55 23.55 8.2 6.8 23.1 Q6.7 25.1 8.4 26.55 L10.85 27.3 M23.7 30.6 L23.25 30.75 10.85 27.3 M23.7 30.6 L27.35 27.25 M39.85 15.75 L40.9 14.75 Q40.75 12.55 39.55 11.55 M39.85 15.75 L27.35 27.25" fill="none" stroke="#000000" stroke-linecap="round" stroke-linejoin="round" stroke-opacity="0.3019608" stroke-width="0.05"/>
      <path d="M7.95 20.1 L7.65 20.05 22.45 6.65 22.65 7.1 19.25 10.15 7.95 20.1 M35.85 12.6 L38.55 10.15 Q38.05 11.35 37.95 12.4 37.75 13.6 38.1 14.55 L35.05 17.3 35.75 14.6 35.85 12.6" fill="#eeb000" fill-rule="evenodd" stroke="none"/>
      <path d="M7.65 20.05 L7.95 20.1 14.65 22.0 21.0 23.8 22.7 22.25 Q22.9 22.8 21.8 24.7 L20.85 25.6 4.1 20.9 18.75 7.95 Q21.25 6.1 23.65 4.95 L26.3 5.5 26.5 6.2 25.95 7.25 22.35 6.45 7.15 19.9 7.65 20.05 M22.5 28.9 Q21.6 27.25 21.6 26.1 L35.85 12.6 35.75 14.6 35.05 17.3 22.5 28.9 M38.55 10.15 L40.05 8.75 41.1 11.75 38.1 14.55 Q37.75 13.6 37.95 12.4 38.05 11.35 38.55 10.15 M35.5 7.45 L39.35 8.5 25.4 21.4 25.4 21.25 Q25.45 20.1 26.35 18.85 L28.05 17.3 36.05 9.9 36.45 9.6 36.6 9.45 28.9 7.8 Q28.8 7.35 29.0 6.85 L29.5 6.15 35.5 7.45" fill="#ffde4f" fill-rule="evenodd" stroke="none"/>
      <path d="M12.9 24.05 L6.1 22.15 4.1 21.6 4.1 20.9 20.85 25.6 21.8 24.7 Q22.9 22.8 22.7 22.25 L26.35 18.85 Q25.45 20.1 25.4 21.25 L25.4 21.4 39.35 8.5 35.5 7.45 39.65 8.3 40.05 8.75 38.55 10.15 35.85 12.6 21.6 26.1 Q21.6 27.25 22.5 28.9 L22.3 29.1 Q21.5 26.9 20.2 26.25 L12.9 24.05 M22.45 6.65 L7.65 20.05 7.15 19.9 22.35 6.45 25.95 7.25 26.5 6.2 26.3 5.5 29.5 6.15 29.0 6.85 Q28.8 7.35 28.9 7.8 L36.6 9.45 36.45 9.6 22.45 6.65 M23.65 4.95 Q21.25 6.1 18.75 7.95 L22.2 5.0 23.65 4.95" fill="#ffff98" fill-rule="evenodd" stroke="none"/>
      <path d="M8.4 25.2 Q8.45 24.45 8.05 23.8 7.5 22.9 6.1 22.15 L12.9 24.05 13.2 25.15 Q13.65 26.05 14.75 26.95 L8.4 25.2 M22.65 7.1 L22.45 6.65 36.45 9.6 36.05 9.9 29.85 8.65 22.65 7.1" fill="#9d7200" fill-rule="evenodd" stroke="none"/>
      <path d="M6.1 22.15 Q7.5 22.9 8.05 23.8 8.45 24.45 8.4 25.2 L5.55 24.35 4.1 21.6 6.1 22.15 M14.75 26.95 Q13.65 26.05 13.2 25.15 L12.9 24.05 20.2 26.25 Q21.5 26.9 22.3 29.1 L14.75 26.95 M7.95 20.1 L19.25 10.15 Q16.35 13.45 15.05 16.0 13.2 19.75 14.65 22.0 L7.95 20.1 M29.85 8.65 L36.05 9.9 28.05 17.3 Q29.75 14.6 30.2 12.4 30.6 10.3 29.85 8.65" fill="#c08602" fill-rule="evenodd" stroke="none"/>
      <path d="M19.25 10.15 L22.65 7.1 29.85 8.65 Q30.6 10.3 30.2 12.4 29.75 14.6 28.05 17.3 L26.35 18.85 22.7 22.25 21.0 23.8 14.65 22.0 Q13.2 19.75 15.05 16.0 16.35 13.45 19.25 10.15" fill="#c98d03" fill-rule="evenodd" stroke="none"/>
      <path d="M8.4 25.2 L14.75 26.95 M4.1 21.6 L5.55 24.35 8.4 25.2 M7.65 20.05 L7.95 20.1 19.25 10.15 22.65 7.1 M7.65 20.05 L7.15 19.9 M26.3 5.5 L23.65 4.95 22.2 5.0 18.75 7.95 4.1 20.9 4.1 21.6 M22.7 22.25 L21.0 23.8 14.65 22.0 7.95 20.1 M40.05 8.75 L39.65 8.3 35.5 7.45 29.5 6.15 26.3 5.5 M26.35 18.85 L22.7 22.25 M22.3 29.1 L22.5 28.9 35.05 17.3 38.1 14.55 41.1 11.75 40.05 8.75 M22.3 29.1 L14.75 26.95 M36.05 9.9 L36.45 9.6 M36.05 9.9 L29.85 8.65 22.65 7.1 M28.05 17.3 L36.05 9.9 M26.35 18.85 L28.05 17.3" fill="none" stroke="#000000" stroke-linecap="round" stroke-linejoin="round" stroke-opacity="0.3019608" stroke-width="0.05"/>
      <path d="M17.95 13.1 Q17.8 12.85 17.4 12.85 L16.45 13.05 Q15.95 13.25 15.65 13.55 15.35 13.9 15.5 14.15 15.6 14.4 16.05 14.4 L17.0 14.25 17.8 13.65 17.95 13.1 M26.05 9.5 L26.15 9.45 28.75 9.25 28.85 9.2 Q29.55 9.55 29.85 10.3 29.9 11.15 28.75 12.15 26.95 13.55 25.5 13.5 L24.0 14.45 23.95 14.45 24.05 14.45 24.4 14.55 24.6 14.6 25.5 14.75 28.5 14.65 28.3 15.1 27.0 16.3 26.8 16.5 25.35 15.65 25.15 15.5 24.9 15.4 24.65 15.3 24.45 15.25 24.0 15.15 23.85 15.1 23.7 15.05 Q23.25 13.75 23.75 12.45 24.45 10.65 26.05 9.5 M16.95 16.95 L17.25 16.75 17.6 16.45 Q18.35 15.95 19.4 15.65 L19.55 15.6 20.5 15.35 21.8 14.85 19.9 14.9 19.35 15.1 18.15 15.5 Q15.55 16.0 14.9 14.8 L14.9 14.7 Q14.8 13.85 15.8 12.9 16.8 12.0 18.25 11.5 20.6 11.65 21.7 13.7 22.55 15.15 21.3 17.0 20.1 18.75 17.5 18.8 15.95 18.55 16.95 16.95" fill="#ca5202" fill-rule="evenodd" stroke="none"/>
      <path d="M17.95 13.1 L17.8 13.65 17.0 14.25 16.05 14.4 Q15.6 14.4 15.5 14.15 15.35 13.9 15.65 13.55 15.95 13.25 16.45 13.05 L17.4 12.85 Q17.8 12.85 17.95 13.1 M18.25 11.5 L18.35 11.45 19.35 11.25 Q20.85 11.05 21.9 11.85 22.3 12.4 21.95 13.05 22.05 13.55 22.6 13.8 L22.75 13.9 22.85 13.2 22.65 12.65 Q22.6 11.8 23.6 10.85 24.6 9.95 26.05 9.5 24.45 10.65 23.75 12.45 23.25 13.75 23.7 15.05 L23.3 14.95 22.9 15.8 Q23.45 16.9 22.35 18.0 20.2 19.75 17.35 19.75 16.55 19.65 16.25 19.05 L16.1 18.75 Q16.05 18.15 16.65 17.2 L16.85 17.05 16.95 16.95 Q15.95 18.55 17.5 18.8 20.1 18.75 21.3 17.0 22.55 15.15 21.7 13.7 20.6 11.65 18.25 11.5 M28.5 14.65 L29.0 14.8 28.75 14.9 28.3 15.1 28.5 14.65 M27.2 17.45 L27.0 17.55 26.95 17.5 26.55 16.65 26.8 16.5 27.0 16.3 27.0 16.6 Q26.9 17.1 27.2 17.45" fill="#ea6004" fill-rule="evenodd" stroke="none"/>
      <path d="M22.2 12.05 L22.55 12.75 22.6 12.95 22.7 13.25 22.65 13.8 22.15 13.1 22.3 12.45 22.25 12.4 22.2 12.05 M30.0 10.05 L30.3 10.7 30.35 10.8 30.45 11.2 Q30.55 12.0 29.55 12.95 L27.6 14.15 Q27.05 13.9 27.25 13.3 L29.1 12.1 Q30.05 11.2 30.05 10.45 L30.05 10.35 30.0 10.05 M29.0 14.8 L29.3 15.4 27.2 17.45 Q26.9 17.1 27.0 16.6 L28.75 14.9 29.0 14.8 M23.5 18.25 L23.45 18.25 22.75 19.15 21.05 20.25 20.75 19.35 22.35 18.25 23.1 17.35 23.5 18.25 M17.25 16.75 L16.5 16.6 Q15.65 16.45 15.4 15.9 L15.35 15.75 15.05 15.1 15.3 15.45 16.15 15.8 17.1 15.9 17.6 16.45 17.25 16.75" fill="#a34100" fill-rule="evenodd" stroke="none"/>
      <path d="M19.35 11.25 Q20.3 11.05 21.1 11.25 22.0 11.45 22.2 12.05 L22.25 12.4 22.3 12.45 22.15 13.1 22.65 13.8 22.75 13.9 22.6 13.8 Q22.05 13.55 21.95 13.05 22.3 12.4 21.9 11.85 20.85 11.05 19.35 11.25 M28.85 9.2 Q29.6 9.4 29.9 9.9 L30.0 10.05 30.05 10.35 30.05 10.45 Q30.05 11.2 29.1 12.1 L27.25 13.3 26.6 13.55 25.35 13.8 Q24.65 14.05 24.0 14.45 L25.5 13.5 Q26.95 13.55 28.75 12.15 29.9 11.15 29.85 10.3 29.55 9.55 28.85 9.2 M16.05 19.3 L15.9 18.8 Q15.85 18.1 16.65 17.2 16.05 18.15 16.1 18.75 L16.25 19.05 Q16.55 19.65 17.35 19.75 20.2 19.75 22.35 18.0 23.45 16.9 22.9 15.8 L23.3 14.95 Q23.1 15.4 23.05 15.9 L23.2 16.1 23.25 16.2 23.3 16.5 23.1 17.35 22.35 18.25 20.75 19.35 19.85 19.7 17.15 19.95 16.3 19.55 16.05 19.3 M15.05 15.1 L15.0 15.1 14.9 14.8 Q15.55 16.0 18.15 15.5 L19.35 15.1 19.9 14.9 21.8 14.85 19.9 15.2 19.45 15.35 18.85 15.6 17.1 15.9 16.15 15.8 15.3 15.45 15.05 15.1 M27.0 16.3 L28.3 15.1 28.75 14.9 27.0 16.6 27.0 16.3 M25.35 15.65 L26.8 16.5 26.55 16.65 Q26.3 16.05 25.35 15.65" fill="#f97117" fill-rule="evenodd" stroke="none"/>
      <path d="M27.6 14.15 L26.95 14.35 25.75 14.65 25.5 14.75 24.6 14.6 24.4 14.55 24.05 14.45 23.95 14.45 24.0 14.45 Q24.65 14.05 25.35 13.8 L26.6 13.55 27.25 13.3 Q27.05 13.9 27.6 14.15 M25.25 16.2 L24.45 16.0 24.25 15.95 23.75 15.8 23.3 14.95 23.7 15.05 23.85 15.1 24.0 15.15 24.45 15.25 24.65 15.3 Q25.15 15.7 25.25 16.2 M23.45 16.7 L23.6 17.0 23.65 17.05 23.7 17.35 23.5 18.25 23.1 17.35 23.3 16.5 23.25 16.2 23.45 16.7 M21.05 20.25 L20.25 20.55 17.5 20.8 Q16.65 20.55 16.45 20.05 L16.4 20.0 16.05 19.3 16.3 19.55 17.15 19.95 19.85 19.7 20.75 19.35 21.05 20.25 M17.6 16.45 L17.1 15.9 18.85 15.6 19.45 15.35 19.55 15.6 19.4 15.65 Q18.35 15.95 17.6 16.45" fill="#8f3901" fill-rule="evenodd" stroke="none"/>
      <path d="M26.95 17.5 Q26.6 16.75 25.25 16.2 25.15 15.7 24.65 15.3 L24.9 15.4 25.15 15.5 25.35 15.65 Q26.3 16.05 26.55 16.65 L26.95 17.5 M23.75 15.8 L23.45 16.7 23.25 16.2 23.2 16.1 23.05 15.9 Q23.1 15.4 23.3 14.95 L23.75 15.8 M19.45 15.35 L19.9 15.2 21.8 14.85 20.5 15.35 19.55 15.6 19.45 15.35" fill="#6d2c01" fill-rule="evenodd" stroke="none"/>
      <path d="M18.25 11.5 L18.35 11.45 19.35 11.25 Q20.3 11.05 21.1 11.25 22.0 11.45 22.2 12.05 L22.55 12.75 22.6 12.95 22.7 13.25 22.65 13.8 22.75 13.9 22.85 13.2 22.65 12.65 Q22.6 11.8 23.6 10.85 24.6 9.95 26.05 9.5 L26.15 9.45 28.75 9.25 28.85 9.2 Q29.6 9.4 29.9 9.9 L30.0 10.05 30.3 10.7 30.35 10.8 30.45 11.2 Q30.55 12.0 29.55 12.95 L27.6 14.15 M25.5 14.75 L28.5 14.65 29.0 14.8 29.3 15.4 27.2 17.45 M16.4 20.0 L16.05 19.3 15.9 18.8 Q15.85 18.1 16.65 17.2 L16.85 17.05 16.95 16.95 17.25 16.75 16.5 16.6 Q15.65 16.45 15.4 15.9 L15.35 15.75 15.05 15.1 15.0 15.1 14.9 14.8 14.9 14.7 Q14.8 13.85 15.8 12.9 16.8 12.0 18.25 11.5 M17.25 16.75 L17.6 16.45 M21.8 14.85 L20.5 15.35 19.55 15.6 19.4 15.65 Q18.35 15.95 17.6 16.45 M24.0 14.45 L23.95 14.45 24.05 14.45 24.4 14.55 24.6 14.6 25.5 14.75" fill="none" stroke="#000000" stroke-linecap="round" stroke-linejoin="round" stroke-opacity="0.3019608" stroke-width="0.05"/>
      <path d="M25.8 8.85 L25.9 8.8 28.55 8.6 28.6 8.6 Q29.3 8.9 29.6 9.7 29.65 10.5 28.55 11.5 26.7 12.9 25.3 12.85 24.0 13.4 23.75 13.8 L23.8 13.8 24.2 13.9 24.4 13.95 25.25 14.1 28.25 14.0 28.1 14.5 26.75 15.65 26.55 15.85 Q25.9 15.3 25.1 15.0 L24.9 14.85 24.65 14.75 24.4 14.7 24.2 14.6 23.8 14.5 23.6 14.45 23.45 14.45 Q23.05 13.15 23.5 11.8 24.2 10.0 25.8 8.85 M16.65 16.45 L16.65 16.4 16.7 16.3 17.0 16.1 17.35 15.85 Q18.1 15.3 19.15 15.0 L19.3 14.95 20.3 14.75 21.55 14.2 19.65 14.25 19.1 14.5 17.95 14.9 Q15.3 15.4 14.7 14.15 L14.7 14.05 Q14.55 13.2 15.6 12.25 16.55 11.35 18.0 10.85 20.35 11.05 21.45 13.05 22.3 14.55 21.1 16.35 19.85 18.15 17.25 18.2 15.8 17.9 16.65 16.45 M15.4 12.95 Q15.1 13.25 15.3 13.5 15.4 13.75 15.8 13.75 L16.8 13.6 17.55 13.0 Q17.85 12.7 17.75 12.45 17.55 12.2 17.15 12.25 L16.25 12.4 15.4 12.95" fill="#ca5202" fill-rule="evenodd" stroke="none"/>
      <path d="M28.25 14.0 L28.8 14.2 28.55 14.3 28.1 14.5 28.25 14.0 M26.95 16.8 L26.75 16.9 26.75 16.85 26.35 16.05 26.55 15.85 26.75 15.65 26.75 15.95 Q26.65 16.45 26.95 16.8 M16.4 16.6 L16.65 16.45 Q15.8 17.9 17.25 18.2 19.85 18.15 21.1 16.35 22.3 14.55 21.45 13.05 20.35 11.05 18.0 10.85 L18.1 10.85 19.1 10.65 Q20.6 10.45 21.65 11.25 22.05 11.8 21.7 12.4 21.8 12.9 22.35 13.15 L22.5 13.25 22.6 12.55 22.45 12.0 Q22.35 11.15 23.4 10.25 24.35 9.3 25.8 8.85 24.2 10.0 23.5 11.8 23.05 13.15 23.45 14.45 L23.05 14.35 Q22.75 14.7 22.65 15.2 23.25 16.25 22.1 17.35 19.95 19.1 17.15 19.15 16.35 19.0 16.0 18.4 L15.85 18.1 Q15.8 17.5 16.4 16.6 M15.4 12.95 L16.25 12.4 17.15 12.25 Q17.55 12.2 17.75 12.45 17.85 12.7 17.55 13.0 L16.8 13.6 15.8 13.75 Q15.4 13.75 15.3 13.5 15.1 13.25 15.4 12.95" fill="#ea6004" fill-rule="evenodd" stroke="none"/>
      <path d="M29.75 9.4 L30.05 10.05 30.1 10.2 30.2 10.55 Q30.3 11.35 29.3 12.35 L27.35 13.5 Q26.8 13.3 27.0 12.65 L28.85 11.45 Q29.8 10.55 29.8 9.8 L29.8 9.7 29.75 9.4 M28.8 14.2 L29.1 14.8 26.95 16.8 Q26.65 16.45 26.75 15.95 L28.55 14.3 28.8 14.2 M23.25 17.6 L22.55 18.5 20.8 19.6 20.5 18.7 22.1 17.65 22.85 16.75 23.25 17.6 M17.0 16.1 L16.3 16.0 Q15.45 15.8 15.15 15.3 L15.1 15.1 14.8 14.5 15.05 14.8 Q15.35 15.0 15.9 15.2 L16.85 15.25 17.35 15.85 17.0 16.1 M21.95 11.4 L22.3 12.1 22.4 12.3 22.45 12.6 22.4 13.15 21.9 12.45 22.05 11.85 22.0 11.75 21.95 11.4" fill="#a34100" fill-rule="evenodd" stroke="none"/>
      <path d="M28.6 8.6 Q29.35 8.75 29.65 9.25 L29.75 9.4 29.8 9.7 29.8 9.8 Q29.8 10.55 28.85 11.45 L27.0 12.65 26.35 12.9 25.1 13.15 Q24.4 13.4 23.75 13.8 24.0 13.4 25.3 12.85 26.7 12.9 28.55 11.5 29.65 10.5 29.6 9.7 29.3 8.9 28.6 8.6 M15.8 18.65 L15.65 18.15 Q15.6 17.45 16.4 16.6 15.8 17.5 15.85 18.1 L16.0 18.4 Q16.35 19.0 17.15 19.15 19.95 19.1 22.1 17.35 23.25 16.25 22.65 15.2 22.75 14.7 23.05 14.35 22.85 14.8 22.8 15.25 L22.95 15.5 23.0 15.6 23.05 15.65 23.05 15.85 Q23.15 16.3 22.85 16.75 L22.1 17.65 20.5 18.7 19.6 19.05 16.9 19.3 16.05 18.95 15.8 18.65 M14.8 14.5 L14.8 14.45 14.7 14.15 Q15.3 15.4 17.95 14.9 L19.1 14.5 19.65 14.25 21.55 14.2 19.65 14.55 19.2 14.7 18.6 14.95 16.85 15.25 15.9 15.2 Q15.35 15.0 15.05 14.8 L14.8 14.5 M19.1 10.65 L20.85 10.6 Q21.75 10.8 21.95 11.4 L22.0 11.75 22.05 11.85 21.9 12.45 22.4 13.15 22.5 13.25 22.35 13.15 Q21.8 12.9 21.7 12.4 22.05 11.8 21.65 11.25 20.6 10.45 19.1 10.65 M25.1 15.0 Q25.9 15.3 26.55 15.85 L26.35 16.05 Q26.05 15.4 25.1 15.0 M26.75 15.65 L28.1 14.5 28.55 14.3 26.75 15.95 26.75 15.65" fill="#f97117" fill-rule="evenodd" stroke="none"/>
      <path d="M27.35 13.5 L26.7 13.7 25.5 14.0 25.25 14.1 24.4 13.95 24.2 13.9 23.8 13.8 23.75 13.8 Q24.4 13.4 25.1 13.15 L26.35 12.9 27.0 12.65 Q26.8 13.3 27.35 13.5 M25.0 15.6 L24.2 15.35 24.0 15.3 23.5 15.2 23.05 14.35 23.45 14.45 23.6 14.45 23.8 14.5 24.2 14.6 24.4 14.7 Q24.9 15.05 25.0 15.6 M23.2 16.05 L23.4 16.35 23.4 16.4 23.45 16.75 23.25 17.6 22.85 16.75 Q23.15 16.3 23.05 15.85 L23.05 15.65 23.2 16.05 M20.8 19.6 L20.0 19.95 17.25 20.15 Q16.4 19.95 16.2 19.45 L16.15 19.4 15.8 18.65 16.05 18.95 16.9 19.3 19.6 19.05 20.5 18.7 20.8 19.6 M19.3 14.95 L19.15 15.0 Q18.1 15.3 17.35 15.85 L16.85 15.25 18.6 14.95 19.2 14.7 19.3 14.95" fill="#8f3901" fill-rule="evenodd" stroke="none"/>
      <path d="M26.75 16.85 Q26.35 16.1 25.0 15.6 24.9 15.05 24.4 14.7 L24.65 14.75 24.9 14.85 25.1 15.0 Q26.05 15.4 26.35 16.05 L26.75 16.85 M23.5 15.2 L23.2 16.05 23.05 15.65 23.0 15.6 22.95 15.5 22.8 15.25 Q22.85 14.8 23.05 14.35 L23.5 15.2 M21.55 14.2 L20.3 14.75 19.3 14.95 19.2 14.7 19.65 14.55 21.55 14.2" fill="#6d2c01" fill-rule="evenodd" stroke="none"/>
      <path d="M25.8 8.85 L25.9 8.8 28.55 8.6 28.6 8.6 Q29.35 8.75 29.65 9.25 L29.75 9.4 30.05 10.05 M25.25 14.1 L28.25 14.0 28.8 14.2 29.1 14.8 M16.15 19.4 L15.8 18.65 15.65 18.15 Q15.6 17.45 16.4 16.6 L16.65 16.45 16.65 16.4 16.7 16.3 17.0 16.1 M15.1 15.1 L14.8 14.5 14.8 14.45 14.7 14.15 14.7 14.05 Q14.55 13.2 15.6 12.25 16.55 11.35 18.0 10.85 L18.1 10.85 19.1 10.65 20.85 10.6 Q21.75 10.8 21.95 11.4 L22.3 12.1 22.4 12.3 22.45 12.6 22.4 13.15 22.5 13.25 22.6 12.55 22.45 12.0 Q22.35 11.15 23.4 10.25 24.35 9.3 25.8 8.85 M23.75 13.8 L23.8 13.8 24.2 13.9 24.4 13.95 25.25 14.1 M21.55 14.2 L20.3 14.75 19.3 14.95 19.15 15.0 Q18.1 15.3 17.35 15.85 L17.0 16.1" fill="none" stroke="#000000" stroke-linecap="round" stroke-linejoin="round" stroke-opacity="0.3019608" stroke-width="0.05"/>
    </g>
    <g id="sprite0" transform="matrix(1.0, 0.0, 0.0, 1.0, 73.5, 65.0)">
      <use height="136.85" transform="matrix(1.0, 0.0, 0.0, 1.0, -73.5, -65.0)" width="148.25" xlink:href="#shape1"/>
    </g>
    <g id="shape1" transform="matrix(1.0, 0.0, 0.0, 1.0, 73.5, 65.0)">
      <path d="M36.65 -54.65 Q60.05 -42.0 69.75 -17.95 80.55 8.9 68.0 34.1 55.45 59.35 26.8 68.2 -1.8 77.05 -29.7 64.3 -57.6 51.6 -68.45 24.75 -79.3 -2.05 -66.75 -27.25 L-66.7 -27.3 Q-54.1 -52.5 -25.5 -61.4 3.1 -70.2 31.0 -57.5 L36.65 -54.65" fill="url(#gradient0)" fill-rule="evenodd" stroke="none"/>
    </g>
    <radialGradient cx="0" cy="0" gradientTransform="matrix(0.0914, 0.0, 0.0, 0.0914, 0.6, 3.4)" gradientUnits="userSpaceOnUse" id="gradient0" r="819.2" spreadMethod="pad">
      <stop offset="0.0" stop-color="#ffffff"/>
      <stop offset="1.0" stop-color="#ffffff" stop-opacity="0.0"/>
    </radialGradient>
    <g id="sprite1" transform="matrix(1.0, 0.0, 0.0, 1.0, 0.0, 0.0)">
      <use height="26.7" transform="matrix(0.0042, -1.3515, 1.3935, 0.02, 22.09, 56.0263)" width="26.7" xlink:href="#sprite2"/>
      <use height="26.7" transform="matrix(0.0095, -3.0486, 0.372, 0.0053, 36.507, 81.3775)" width="26.7" xlink:href="#sprite2"/>
      <use height="26.7" transform="matrix(3.0486, 0.0095, -0.0053, 0.372, 0.1225, 31.607)" width="26.7" xlink:href="#sprite2"/>
    </g>
    <g id="sprite2" transform="matrix(1.0, 0.0, 0.0, 1.0, 13.35, 13.35)">
      <use height="26.7" transform="matrix(1.0, 0.0, 0.0, 1.0, -13.35, -13.35)" width="26.7" xlink:href="#shape2"/>
    </g>
    <g id="shape2" transform="matrix(1.0, 0.0, 0.0, 1.0, 13.35, 13.35)">
      <path d="M9.3 -9.85 Q13.35 -5.8 13.35 0.0 13.35 5.8 9.3 9.3 5.8 13.35 0.0 13.35 -5.8 13.35 -9.85 9.3 -13.35 5.8 -13.35 0.0 -13.35 -5.8 -9.85 -9.85 -5.8 -13.35 0.0 -13.35 5.8 -13.35 9.3 -9.85" fill="url(#gradient1)" fill-rule="evenodd" stroke="none"/>
    </g>
    <radialGradient cx="0" cy="0" gradientTransform="matrix(0.0213, 0.0, 0.0, 0.0213, 0.0, 0.0)" gradientUnits="userSpaceOnUse" id="gradient1" r="819.2" spreadMethod="pad">
      <stop offset="0.19607843137254902" stop-color="#fee3bc" stop-opacity="0.42745098"/>
      <stop offset="0.5019607843137255" stop-color="#fee3bc" stop-opacity="0.06666667"/>
      <stop offset="0.7607843137254902" stop-color="#ffe3bd" stop-opacity="0.0"/>
    </radialGradient>
  </defs>
</svg>
