<?xml version="1.0" encoding="UTF-8" standalone="no"?>
<svg xmlns:xlink="http://www.w3.org/1999/xlink" height="440.0px" width="440.0px" xmlns="http://www.w3.org/2000/svg">
  <g transform="matrix(10.0, 0.0, 0.0, 10.0, 0.0, 0.0)">
    <use height="44.0" transform="matrix(1.0, 0.0, 0.0, 1.0, 0.0, 0.0)" width="44.0" xlink:href="#shape0"/>
    <use height="5.4" transform="matrix(0.5828, -0.0403, 0.0403, 0.5828, 11.7975, 22.3035)" width="5.2" xlink:href="#sprite0"/>
    <use height="5.4" transform="matrix(0.5828, -0.0403, 0.0403, 0.5828, 9.6475, 23.4535)" width="5.2" xlink:href="#sprite0"/>
    <use height="5.4" transform="matrix(0.5828, -0.0403, 0.0403, 0.5828, 8.8475, 25.8035)" width="5.2" xlink:href="#sprite0"/>
    <use height="12.4" transform="matrix(1.0, 0.0, 0.0, 1.0, 10.85, 28.8)" width="4.75" xlink:href="#shape3"/>
    <use height="5.4" transform="matrix(0.5828, -0.0403, 0.0403, 0.5828, 15.8975, 32.4035)" width="5.2" xlink:href="#sprite0"/>
    <use height="13.0" transform="matrix(1.0, 0.0, 0.0, 1.0, 15.0, 16.4)" width="11.85" xlink:href="#shape4"/>
    <use height="5.4" transform="matrix(0.5828, -0.0403, 0.0403, 0.5828, 19.3975, 29.2035)" width="5.2" xlink:href="#sprite0"/>
    <use height="5.4" transform="matrix(0.5828, -0.0403, 0.0403, 0.5828, 17.7975, 31.0035)" width="5.2" xlink:href="#sprite0"/>
    <use height="32.35" transform="matrix(1.0, 0.0, 0.0, 1.0, 3.8, 6.8)" width="29.0" xlink:href="#shape5"/>
  </g>
  <defs>
    <g id="shape0" transform="matrix(1.0, 0.0, 0.0, 1.0, 0.0, 0.0)">
      <path d="M44.0 44.0 L0.0 44.0 0.0 0.0 44.0 0.0 44.0 44.0" fill="#43adca" fill-opacity="0.0" fill-rule="evenodd" stroke="none"/>
      <path d="M13.95 20.55 Q12.4 19.5 9.1 19.25 L8.25 19.2 5.8 19.2 4.25 19.25 3.9 19.25 Q4.65 20.85 6.25 23.0 L6.65 23.55 6.8 23.5 7.75 23.2 Q11.1 22.25 13.25 22.25 L13.65 22.25 13.85 21.65 13.9 21.6 13.95 21.35 14.2 20.7 14.8 19.2 Q11.55 15.0 11.05 10.95 L11.8 10.95 13.2 11.1 14.05 11.2 14.4 11.25 17.1 11.85 Q17.55 11.4 18.35 12.25 L19.6 12.65 Q20.3 12.4 21.1 13.2 L23.35 14.35 Q24.5 15.0 27.4 16.25 L29.55 17.15 31.75 11.55 31.75 11.45 31.8 11.35 32.05 11.3 32.1 11.25 32.15 11.25 32.35 11.25 32.45 11.2 32.6 11.25 32.95 11.3 33.35 11.3 34.0 10.55 34.0 10.5 32.2 9.5 Q27.05 6.65 23.7 5.35 L21.15 4.25 17.25 3.25 15.4 3.0 14.65 3.05 14.3 3.05 14.2 3.05 13.55 3.05 13.3 3.15 Q10.55 3.8 9.5 5.9 L9.45 6.0 9.15 7.1 8.95 7.8 8.8 8.2 8.5 8.4 6.4 12.1 6.05 12.65 7.75 13.65 8.65 14.2 Q10.85 15.7 11.55 17.05 M32.35 11.25 L32.6 11.25 M32.15 11.25 L32.05 11.3 M29.55 17.15 L29.4 18.3 29.8 19.0 29.75 19.0 30.45 19.85 32.4 22.25 33.9 24.2 34.35 24.9 Q35.6 27.55 36.2 30.7 L32.65 30.45 Q28.3 29.35 24.55 27.4 L20.9 25.2 20.05 24.55 M24.55 27.4 Q26.3 26.45 26.8 25.1 27.0 24.5 26.6 24.0 L25.75 23.4 Q24.35 22.9 22.2 24.0 L20.9 25.2 M38.3 16.35 L38.6 16.7 38.25 16.15 38.25 16.2 38.3 16.35 M38.25 16.15 L38.1 15.9 34.75 11.4 33.35 11.3 M38.6 16.7 L38.7 16.9 39.25 17.4 40.75 19.45 Q40.3 19.95 41.1 20.2 42.5 22.7 43.1 25.5 43.35 28.9 41.85 30.4 L41.5 30.65 M41.35 30.9 L39.55 32.25 39.25 32.55 Q37.75 33.7 36.25 36.15 L36.2 36.2 35.9 36.7 35.75 36.9 Q34.85 38.5 32.4 38.6 L31.2 38.6 30.4 38.55 28.05 38.15 27.6 38.05 27.65 39.2 24.45 37.7 22.9 36.8 22.2 40.35 Q20.95 39.4 19.45 37.85 L18.1 36.4 16.7 39.15 15.4 36.75 Q14.85 40.05 13.3 40.95 L12.3 41.2 Q11.65 41.25 11.35 40.7 10.45 39.2 11.25 36.6 9.65 38.95 8.05 39.15 L7.0 38.95 Q6.4 38.75 6.35 38.1 6.1 36.0 8.65 33.45 6.3 34.6 4.9 34.05 L4.05 33.45 Q3.65 32.95 3.9 32.4 4.45 30.9 6.6 29.9 L6.4 29.85 8.45 27.75 6.9 26.55 4.5 24.25 6.65 23.55 M19.45 24.05 L18.3 23.0 17.55 22.25 16.2 20.8 16.3 21.0 17.15 22.65 17.2 22.85 17.7 24.2 17.75 24.3 18.15 24.45 18.95 24.95 Q21.1 26.25 22.75 27.45 L24.0 28.4 25.9 30.1 25.65 30.2 Q26.2 30.95 26.6 32.2 L27.35 35.5 27.5 37.05 30.9 36.55 32.4 36.25 35.8 35.3 33.05 32.95 31.55 31.9 29.8 30.85 27.9 30.15 27.35 30.05 M27.6 38.05 L27.5 37.05 M14.2 3.05 L14.2 3.0 14.3 3.05 M4.25 19.25 L3.9 18.2 3.75 17.8 3.55 16.45 Q3.5 15.0 4.3 14.1 L4.65 13.75 4.45 11.85 6.05 12.65 M8.5 8.4 L9.15 7.1 M5.8 19.2 L5.2 16.6 5.05 15.9 4.65 13.75 M8.45 27.75 L8.7 27.5 9.0 27.25 9.3 27.0 9.5 26.5 Q9.85 26.15 10.4 26.1 L10.45 26.1 10.55 26.05 10.45 25.95 Q10.05 25.65 10.05 25.1 L10.15 24.5 9.65 23.8 11.2 23.75 11.45 23.75 12.2 23.8 Q12.2 23.35 12.45 23.0 12.8 22.65 13.35 22.6 L13.5 22.6 13.65 22.25 M11.2 23.75 Q10.65 23.8 10.3 24.15 L10.15 24.5 M12.2 23.8 L12.2 23.95 12.2 24.15 Q12.25 24.55 12.6 24.8 12.95 25.2 13.5 25.15 14.05 25.1 14.4 24.7 L14.7 24.2 14.75 23.75 Q14.7 23.2 14.25 22.9 13.95 22.6 13.5 22.6 M12.2 24.15 L12.1 24.05 11.45 23.75 M10.55 26.05 L10.6 26.1 Q10.85 26.3 11.2 26.3 L11.35 26.3 11.6 26.3 12.25 25.85 Q12.6 25.45 12.6 24.9 L12.6 24.8 M23.15 22.9 Q24.55 21.0 24.3 19.4 24.2 18.8 23.6 18.55 L22.6 18.45 Q21.0 18.65 19.4 21.05 L18.3 23.0 M14.8 19.2 L14.95 18.9 15.5 19.75 Q16.05 17.45 17.3 16.7 17.8 16.4 18.3 16.4 18.9 16.4 19.25 16.95 20.15 18.45 19.4 21.05 M15.5 19.75 L16.2 20.8 M14.7 24.2 L15.35 24.5 M17.75 24.3 L17.75 24.45 17.8 24.55 17.9 25.4 17.9 25.65 M22.2 24.0 L22.9 23.15 M20.95 29.5 Q20.4 29.55 20.05 29.9 19.75 30.3 19.8 30.85 L19.9 31.35 19.95 31.4 20.25 31.6 20.65 32.0 21.1 32.05 Q21.65 32.0 22.0 31.6 L22.35 30.95 22.35 30.65 Q22.3 30.1 21.85 29.8 21.5 29.45 20.95 29.5 M19.95 31.4 L19.85 31.35 19.75 31.35 19.35 31.3 18.95 31.4 18.45 31.7 Q18.15 32.1 18.2 32.65 L18.25 32.9 18.6 33.5 18.85 33.7 19.05 33.8 19.5 33.85 Q20.05 33.8 20.4 33.4 20.75 33.0 20.75 32.45 L20.65 32.0 M19.9 31.35 L19.85 31.35 19.75 31.35 M25.65 30.2 L23.9 30.6 23.25 30.75 23.3 30.95 Q23.5 33.1 22.95 36.45 L22.95 36.5 22.9 36.8 M23.25 30.75 L22.35 30.95 M18.95 31.4 L17.7 31.4 16.75 31.25 16.55 31.2 16.15 31.1 M19.05 33.8 L18.9 34.35 18.45 35.5 18.1 36.4 M18.25 32.9 Q17.9 32.65 17.45 32.7 16.9 32.75 16.55 33.1 16.25 33.5 16.3 34.05 16.3 34.6 16.7 34.9 17.05 35.3 17.6 35.25 18.15 35.2 18.5 34.8 18.85 34.4 18.85 33.85 L18.85 33.7 M15.4 36.75 L14.85 35.65 13.65 32.65 13.35 32.45 12.55 34.3 11.25 36.6 M13.9 28.6 L12.7 27.45 12.5 27.2 12.0 26.7 11.6 26.3 M9.3 27.0 L9.25 27.45 Q9.25 28.0 9.65 28.3 10.0 28.7 10.55 28.65 11.1 28.6 11.45 28.2 L11.8 27.25 Q11.75 26.7 11.3 26.4 L11.2 26.3 M10.6 26.1 L10.45 26.1 M8.65 33.45 Q9.85 32.2 11.8 30.9 L11.55 30.45 9.75 30.35 6.6 29.9 M13.2 30.45 L12.8 30.45 12.65 30.45 12.85 30.6 13.25 30.8 13.2 30.45 13.2 30.4 13.2 30.05 M13.65 32.65 L13.3 31.1 13.25 30.8 M11.8 30.9 L12.45 31.75 13.35 32.45 M11.55 30.45 L12.65 30.45" fill="none" stroke="#000000" stroke-linecap="round" stroke-linejoin="round" stroke-opacity="0.3019608" stroke-width="0.7000000000000001"/>
      <path d="M14.2 3.05 L14.2 3.0 14.3 3.05 14.2 3.05" fill="#333333" fill-rule="evenodd" stroke="none"/>
      <path d="M41.55 30.75 L41.45 30.85 41.3 30.75 41.55 30.75" fill="#ba5400" fill-rule="evenodd" stroke="none"/>
      <path d="M41.45 30.85 L41.35 30.9 41.3 30.75 41.45 30.85" fill="#f9bbf1" fill-rule="evenodd" stroke="none"/>
      <path d="M27.6 38.05 Q24.9 37.4 22.7 36.3 L15.7 32.65 Q12.5 30.7 8.6 25.7 L8.0 25.05 Q7.9 23.9 7.0 23.75 4.5 20.6 3.9 18.2 L3.75 17.8 3.55 16.45 Q7.7 17.25 9.1 13.05 L8.65 9.85 8.7 8.5 8.8 8.2 9.5 12.05 Q10.0 13.9 11.05 16.15 16.95 26.8 31.15 31.3 L31.35 31.4 Q33.75 36.6 27.6 38.05" fill="#e897db" fill-rule="evenodd" stroke="none"/>
      <path d="M3.55 16.45 Q3.5 15.0 4.3 14.1 L5.1 13.5 5.15 13.5 6.4 12.1 9.15 7.1 8.95 7.8 8.8 8.2 8.8 8.15 8.7 8.5 8.65 9.85 9.1 13.05 Q7.7 17.25 3.55 16.45" fill="#ffb5f3" fill-rule="evenodd" stroke="none"/>
      <path d="M31.75 11.45 L31.8 11.35 31.75 11.55 31.75 11.45" fill="#87587e" fill-rule="evenodd" stroke="none"/>
      <path d="M40.75 19.45 Q40.3 19.95 41.1 20.2 L38.75 20.05 36.4 22.4 38.4 19.35 40.75 19.45 M34.0 10.5 L34.0 10.55 33.35 11.3 33.0 11.3 32.95 11.3 32.6 11.25 32.45 11.2 32.3 11.15 34.0 10.5 M17.1 11.85 L18.85 9.35 18.35 12.25 Q17.55 11.4 17.1 11.85" fill="#573951" fill-rule="evenodd" stroke="none"/>
      <path d="M38.4 19.35 L36.4 22.4 38.75 20.05 39.4 21.2 Q43.85 30.5 36.2 30.7 35.6 27.55 34.35 24.9 L33.9 24.2 32.4 22.25 30.45 19.85 30.55 19.65 29.8 19.0 29.4 18.3 29.55 17.15 31.75 11.55 Q33.55 13.85 34.7 14.75 L34.7 14.8 34.55 14.7 35.0 15.35 38.4 19.35" fill="#cf7cbf" fill-rule="evenodd" stroke="none"/>
      <path d="M41.35 30.9 L39.55 32.25 39.25 32.55 Q37.75 33.7 36.25 36.15 L36.2 36.2 35.9 36.7 35.75 36.9 Q34.85 38.5 32.4 38.6 L31.2 38.6 30.4 38.55 28.05 38.15 27.6 38.05 Q33.75 36.6 31.35 31.4 L33.25 31.85 34.2 31.9 Q36.0 32.05 40.8 30.95 L40.9 30.95 40.95 31.0 41.05 30.95 41.3 30.75 41.35 30.9 M31.8 11.35 L31.6 11.25 31.55 11.35 31.75 11.55 29.55 17.15 27.4 16.25 Q24.5 15.0 23.35 14.35 L21.1 13.2 Q20.3 12.4 19.6 12.65 L18.35 12.25 18.85 9.35 17.1 11.85 14.4 11.25 14.05 11.2 13.2 11.1 11.8 10.95 11.05 10.95 11.0 10.0 Q10.8 5.85 14.1 5.2 L14.15 5.2 14.35 5.2 14.35 5.15 14.35 5.1 14.5 5.15 15.05 5.2 15.0 5.3 15.05 5.3 15.15 5.3 15.2 5.3 Q19.9 5.8 22.3 6.65 26.05 8.1 32.1 11.1 L32.3 11.15 32.15 11.25 32.1 11.25 32.05 11.3 31.8 11.35" fill="#ba6fac" fill-rule="evenodd" stroke="none"/>
      <path d="M41.1 20.2 Q42.5 22.7 43.1 25.5 43.35 28.9 41.85 30.4 L41.3 30.75 41.05 30.95 40.95 31.0 41.15 30.85 40.8 30.95 Q36.0 32.05 34.2 31.9 L33.25 31.85 31.35 31.4 31.15 31.3 Q16.95 26.8 11.05 16.15 10.0 13.9 9.5 12.05 L8.8 8.2 8.95 7.8 9.15 7.1 9.45 6.0 9.5 5.9 Q10.55 3.8 13.3 3.15 L13.55 3.05 14.2 3.05 14.3 3.05 14.65 3.05 15.4 3.0 17.25 3.25 21.15 4.25 23.7 5.35 Q27.05 6.65 32.2 9.5 L34.0 10.5 32.3 11.15 32.1 11.1 Q26.05 8.1 22.3 6.65 19.9 5.8 15.2 5.3 L15.05 5.2 14.5 5.15 14.35 5.1 14.35 5.15 14.15 5.2 14.1 5.2 Q10.8 5.85 11.0 10.0 L11.05 10.95 Q11.9 17.55 20.05 24.55 25.5 28.65 32.65 30.45 L36.2 30.7 Q43.85 30.5 39.4 21.2 L38.75 20.05 41.1 20.2 M33.35 11.3 L34.75 11.4 38.1 15.9 38.25 16.15 38.25 16.2 38.3 16.35 38.6 16.7 38.7 16.9 39.25 17.4 40.75 19.45 38.4 19.35 35.0 15.35 34.55 14.7 34.7 14.8 34.7 14.75 Q33.55 13.85 31.75 11.55 L31.8 11.35 32.05 11.3 32.15 11.25 32.35 11.25 32.6 11.25 32.95 11.3 33.0 11.3 33.25 11.35 33.35 11.4 33.35 11.3" fill="#754c6b" fill-rule="evenodd" stroke="none"/>
      <path d="M32.15 11.25 L32.3 11.15 32.45 11.2 32.6 11.25 32.35 11.25 32.15 11.25 M15.2 5.3 L15.15 5.3 15.05 5.2 15.2 5.3 M32.35 11.25 L32.45 11.2 32.35 11.25" fill="url(#gradient0)" fill-rule="evenodd" stroke="none"/>
      <path d="M31.55 11.35 L31.6 11.25 31.8 11.35 31.75 11.45 31.55 11.35" fill="url(#gradient1)" fill-rule="evenodd" stroke="none"/>
      <path d="M31.75 11.55 L31.55 11.35 31.75 11.45 31.75 11.55" fill="url(#gradient2)" fill-rule="evenodd" stroke="none"/>
      <path d="M38.1 15.9 L38.3 16.2 38.25 16.15 38.1 15.9 M32.05 11.3 L32.1 11.25 32.15 11.25 32.05 11.3" fill="url(#gradient3)" fill-rule="evenodd" stroke="none"/>
      <path d="M15.15 5.3 L15.05 5.3 15.0 5.3 15.05 5.2 15.15 5.3 M33.0 11.3 L33.35 11.3 33.35 11.4 33.25 11.35 33.0 11.3 M15.05 5.2 L15.05 5.3 15.05 5.2" fill="url(#gradient4)" fill-rule="evenodd" stroke="none"/>
      <path d="M29.8 19.0 L30.55 19.65 30.45 19.85 29.75 19.0 29.8 19.0" fill="url(#gradient5)" fill-rule="evenodd" stroke="none"/>
      <path d="M38.25 16.15 L38.3 16.2 38.25 16.2 38.25 16.15" fill="url(#gradient6)" fill-rule="evenodd" stroke="none"/>
      <path d="M14.35 5.15 L14.35 5.2 14.15 5.2 14.35 5.15" fill="url(#gradient7)" fill-rule="evenodd" stroke="none"/>
      <path d="M40.95 31.0 L40.9 30.95 40.8 30.95 41.15 30.85 40.95 31.0 M8.7 8.5 L8.8 8.15 8.8 8.2 8.7 8.5" fill="url(#gradient8)" fill-rule="evenodd" stroke="none"/>
      <path d="M40.75 19.45 Q40.3 19.95 41.1 20.2 42.5 22.7 43.1 25.5 43.35 28.9 41.85 30.4 L41.55 30.75 M41.35 30.9 L39.55 32.25 39.25 32.55 Q37.75 33.7 36.25 36.15 L36.2 36.2 35.9 36.7 35.75 36.9 Q34.85 38.5 32.4 38.6 L31.2 38.6 30.4 38.55 28.05 38.15 27.6 38.05 Q24.9 37.4 22.7 36.3 L15.7 32.65 Q12.5 30.7 8.6 25.7 L8.0 25.05 Q7.9 23.9 7.0 23.75 4.5 20.6 3.9 18.2 L3.75 17.8 3.55 16.45 Q3.5 15.0 4.3 14.1 L5.1 13.5 5.15 13.5 6.4 12.1 9.15 7.1 9.45 6.0 9.5 5.9 Q10.55 3.8 13.3 3.15 L13.55 3.05 14.2 3.05 14.2 3.0 14.3 3.05 14.65 3.05 15.4 3.0 17.25 3.25 21.15 4.25 23.7 5.35 Q27.05 6.65 32.2 9.5 L34.0 10.5 34.0 10.55 33.35 11.3 34.75 11.4 38.1 15.9 38.3 16.2 38.6 16.7 38.7 16.9 39.25 17.4 40.75 19.45 M40.95 31.0 L40.9 30.95 M41.3 30.75 L41.85 30.4 M31.8 11.35 L32.05 11.3 32.1 11.25 32.15 11.25 32.3 11.15 M11.05 10.95 L11.8 10.95 13.2 11.1 14.05 11.2 14.4 11.25 17.1 11.85 Q17.55 11.4 18.35 12.25 L19.6 12.65 Q20.3 12.4 21.1 13.2 L23.35 14.35 Q24.5 15.0 27.4 16.25 L29.55 17.15 31.75 11.55 M31.75 11.45 L31.8 11.35 M32.6 11.25 L32.45 11.2 32.35 11.25 32.6 11.25 32.95 11.3 33.0 11.3 33.35 11.3 M32.15 11.25 L32.05 11.3 M31.75 11.45 L31.75 11.55 M32.35 11.25 L32.15 11.25 M29.55 17.15 L29.4 18.3 29.8 19.0 29.75 19.0 30.45 19.85 32.4 22.25 33.9 24.2 34.35 24.9 Q35.6 27.55 36.2 30.7 L32.65 30.45 Q25.5 28.65 20.05 24.55 11.9 17.55 11.05 10.95 M38.25 16.15 L38.25 16.2 38.3 16.35 38.6 16.7 M38.25 16.15 L38.1 15.9 M14.3 3.05 L14.2 3.05 M15.05 5.3 L15.05 5.2 M8.8 8.2 L8.95 7.8 9.15 7.1 M8.7 8.5 L8.8 8.2" fill="none" stroke="#000000" stroke-linecap="round" stroke-linejoin="round" stroke-opacity="0.3019608" stroke-width="0.05"/>
      <path d="M30.55 19.65 L30.45 19.85" fill="none" stroke="#ff0000" stroke-linecap="round" stroke-linejoin="round" stroke-width="0.05"/>
      <path d="M7.75 13.65 Q5.15 13.25 5.05 15.9 4.5 13.45 4.45 11.85 L7.75 13.65" fill="#ffffff" fill-rule="evenodd" stroke="none"/>
      <path d="M5.05 15.9 Q5.15 13.25 7.75 13.65 10.7 15.45 11.55 17.05 L6.45 21.55 Q5.5 18.3 5.05 15.9" fill="url(#gradient9)" fill-rule="evenodd" stroke="none"/>
      <path d="M7.75 13.65 L4.45 11.85 Q4.5 13.45 5.05 15.9 5.5 18.3 6.45 21.55 M11.55 17.05 Q10.7 15.45 7.75 13.65 Z" fill="none" stroke="#000000" stroke-linecap="round" stroke-linejoin="round" stroke-opacity="0.3019608" stroke-width="0.05"/>
      <path d="M8.25 19.2 Q5.0 20.15 6.25 23.0 4.65 20.85 3.9 19.25 L8.25 19.2" fill="#ffffff" fill-rule="evenodd" stroke="none"/>
      <path d="M6.25 23.0 Q5.0 20.15 8.25 19.2 12.2 19.35 13.95 20.55 L10.75 28.3 6.25 23.0" fill="url(#gradient10)" fill-rule="evenodd" stroke="none"/>
      <path d="M6.25 23.0 L10.75 28.3 M13.95 20.55 Q12.2 19.35 8.25 19.2 L3.9 19.25 Q4.65 20.85 6.25 23.0 Z" fill="none" stroke="#000000" stroke-linecap="round" stroke-linejoin="round" stroke-opacity="0.3019608" stroke-width="0.05"/>
      <path d="M7.75 23.2 Q5.3 24.75 6.9 26.55 L4.5 24.25 7.75 23.2" fill="#ffffff" fill-rule="evenodd" stroke="none"/>
      <path d="M6.9 26.55 Q5.3 24.75 7.75 23.2 12.75 21.75 15.15 22.5 L13.75 31.1 Q9.45 28.6 6.9 26.55" fill="url(#gradient11)" fill-rule="evenodd" stroke="none"/>
      <path d="M6.9 26.55 Q9.45 28.6 13.75 31.1 M15.15 22.5 Q12.75 21.75 7.75 23.2 L4.5 24.25 6.9 26.55 Z" fill="none" stroke="#000000" stroke-linecap="round" stroke-linejoin="round" stroke-opacity="0.3019608" stroke-width="0.05"/>
      <path d="M27.35 30.05 Q29.6 30.3 33.05 32.95 34.05 35.1 32.4 36.25 L24.8 37.3 27.35 30.05" fill="url(#gradient12)" fill-rule="evenodd" stroke="none"/>
      <path d="M32.4 36.25 Q34.05 35.1 33.05 32.95 L35.8 35.3 32.4 36.25" fill="#ffffff" fill-rule="evenodd" stroke="none"/>
      <path d="M33.05 32.95 Q29.6 30.3 27.35 30.05 M24.8 37.3 L32.4 36.25 M33.05 32.95 L35.8 35.3 32.4 36.25" fill="none" stroke="#000000" stroke-linecap="round" stroke-linejoin="round" stroke-opacity="0.3019608" stroke-width="0.05"/>
      <path d="M25.35 29.8 Q26.75 31.4 27.35 35.5 27.2 38.6 24.45 37.7 21.85 36.2 18.3 33.7 L25.35 29.8" fill="url(#gradient13)" fill-rule="evenodd" stroke="none"/>
      <path d="M24.45 37.7 Q27.2 38.6 27.35 35.5 L27.65 39.2 24.45 37.7" fill="#ffffff" fill-rule="evenodd" stroke="none"/>
      <path d="M27.35 35.5 Q26.75 31.4 25.35 29.8 M18.3 33.7 Q21.85 36.2 24.45 37.7 M27.35 35.5 L27.65 39.2 24.45 37.7" fill="none" stroke="#000000" stroke-linecap="round" stroke-linejoin="round" stroke-opacity="0.3019608" stroke-width="0.05"/>
      <path d="M22.8 28.85 Q23.8 31.2 22.95 36.5 21.85 39.45 19.45 37.85 17.05 35.4 14.0 31.4 L22.8 28.85" fill="url(#gradient14)" fill-rule="evenodd" stroke="none"/>
      <path d="M19.45 37.85 Q21.85 39.45 22.95 36.5 L22.2 40.35 Q20.95 39.4 19.45 37.85" fill="#ffffff" fill-rule="evenodd" stroke="none"/>
      <path d="M22.95 36.5 Q23.8 31.2 22.8 28.85 M14.0 31.4 Q17.05 35.4 19.45 37.85 M22.95 36.5 L22.2 40.35 Q20.95 39.4 19.45 37.85" fill="none" stroke="#000000" stroke-linecap="round" stroke-linejoin="round" stroke-opacity="0.3019608" stroke-width="0.05"/>
      <path d="M8.7 27.5 Q7.6 29.35 9.75 30.35 L6.4 29.85 8.7 27.5" fill="#ffffff" fill-rule="evenodd" stroke="none"/>
      <path d="M9.75 30.35 Q7.6 29.35 8.7 27.5 11.05 25.35 12.7 24.9 L15.45 30.4 9.75 30.35" fill="url(#gradient15)" fill-rule="evenodd" stroke="none"/>
      <path d="M9.75 30.35 L15.45 30.4 M12.7 24.9 Q11.05 25.35 8.7 27.5 L6.4 29.85 9.75 30.35 Z" fill="none" stroke="#000000" stroke-linecap="round" stroke-linejoin="round" stroke-opacity="0.3019608" stroke-width="0.05"/>
      <path d="M18.45 35.5 Q16.65 38.15 14.85 35.65 13.15 32.0 13.2 30.05 L20.25 29.8 18.45 35.5" fill="url(#gradient16)" fill-rule="evenodd" stroke="none"/>
      <path d="M14.85 35.65 Q16.65 38.15 18.45 35.5 L16.7 39.15 14.85 35.65" fill="#ffffff" fill-rule="evenodd" stroke="none"/>
      <path d="M18.45 35.5 L20.25 29.8 M13.2 30.05 Q13.15 32.0 14.85 35.65 L16.7 39.15 18.45 35.5 Z" fill="none" stroke="#000000" stroke-linecap="round" stroke-linejoin="round" stroke-opacity="0.3019608" stroke-width="0.05"/>
      <path d="M22.75 27.45 Q24.15 29.6 22.35 30.95 L16.15 31.1 17.8 24.25 22.75 27.45" fill="url(#gradient17)" fill-rule="evenodd" stroke="none"/>
      <path d="M22.35 30.95 Q24.15 29.6 22.75 27.45 24.8 28.9 25.9 30.1 L22.35 30.95" fill="#ffffff" fill-rule="evenodd" stroke="none"/>
      <path d="M22.35 30.95 L25.9 30.1 Q24.8 28.9 22.75 27.45 L17.8 24.25 M16.15 31.1 L22.35 30.95 Z" fill="none" stroke="#000000" stroke-linecap="round" stroke-linejoin="round" stroke-opacity="0.3019608" stroke-width="0.05"/>
      <path d="M16.3 21.0 Q15.1 20.2 13.95 21.35 14.4 19.9 14.95 18.9 L16.3 21.0" fill="#ffffff" fill-rule="evenodd" stroke="none"/>
      <path d="M13.95 21.35 Q15.1 20.2 16.3 21.0 17.95 23.95 17.9 25.65 L12.35 26.65 13.95 21.35" fill="url(#gradient18)" fill-rule="evenodd" stroke="none"/>
      <path d="M16.3 21.0 L14.95 18.9 Q14.4 19.9 13.95 21.35 L12.35 26.65 M17.9 25.65 Q17.95 23.95 16.3 21.0 Z" fill="none" stroke="#000000" stroke-linecap="round" stroke-linejoin="round" stroke-opacity="0.3019608" stroke-width="0.05"/>
      <path d="M11.45 23.75 Q10.4 24.55 10.9 25.5 L9.65 23.8 11.45 23.75" fill="#ffffff" fill-rule="evenodd" stroke="none"/>
      <path d="M10.9 25.5 Q10.4 24.55 11.45 23.75 14.15 23.75 15.35 24.5 L13.9 28.6 10.9 25.5" fill="url(#gradient19)" fill-rule="evenodd" stroke="none"/>
      <path d="M11.45 23.75 L9.65 23.8 10.9 25.5 13.9 28.6 M15.35 24.5 Q14.15 23.75 11.45 23.75 Z" fill="none" stroke="#000000" stroke-linecap="round" stroke-linejoin="round" stroke-opacity="0.3019608" stroke-width="0.05"/>
    </g>
    <linearGradient gradientTransform="matrix(-0.0111, -0.003, -3.0E-4, 0.0051, 23.35, 10.95)" gradientUnits="userSpaceOnUse" id="gradient0" spreadMethod="pad" x1="-819.2" x2="819.2">
      <stop offset="0.0" stop-color="#e07d10"/>
      <stop offset="1.0" stop-color="#de5810"/>
    </linearGradient>
    <linearGradient gradientTransform="matrix(-0.0025, -7.0E-4, -3.0E-4, 0.004, 29.6, 13.85)" gradientUnits="userSpaceOnUse" id="gradient1" spreadMethod="pad" x1="-819.2" x2="819.2">
      <stop offset="0.0" stop-color="#e07d10"/>
      <stop offset="1.0" stop-color="#de5810"/>
    </linearGradient>
    <linearGradient gradientTransform="matrix(-0.0012, 2.0E-4, 6.0E-4, 0.0011, 36.25, 13.9)" gradientUnits="userSpaceOnUse" id="gradient2" spreadMethod="pad" x1="-819.2" x2="819.2">
      <stop offset="0.0" stop-color="#f5b151"/>
      <stop offset="1.0" stop-color="#fcc547"/>
    </linearGradient>
    <linearGradient gradientTransform="matrix(-0.0024, -7.0E-4, -1.0E-4, 0.0012, 33.7, 12.5)" gradientUnits="userSpaceOnUse" id="gradient3" spreadMethod="pad" x1="-819.2" x2="819.2">
      <stop offset="0.0" stop-color="#f5b151"/>
      <stop offset="1.0" stop-color="#fcc547"/>
    </linearGradient>
    <linearGradient gradientTransform="matrix(-0.0131, -0.0036, -2.0E-4, 0.003, 26.0, 8.05)" gradientUnits="userSpaceOnUse" id="gradient4" spreadMethod="pad" x1="-819.2" x2="819.2">
      <stop offset="0.0" stop-color="#f5b151"/>
      <stop offset="1.0" stop-color="#fcc547"/>
    </linearGradient>
    <linearGradient gradientTransform="matrix(-0.0029, -8.0E-4, -4.0E-4, 0.0062, 35.55, 20.0)" gradientUnits="userSpaceOnUse" id="gradient5" spreadMethod="pad" x1="-819.2" x2="819.2">
      <stop offset="0.0" stop-color="#914008"/>
      <stop offset="1.0" stop-color="#a85c15"/>
    </linearGradient>
    <linearGradient gradientTransform="matrix(-0.002, 0.002, 0.0072, 0.0055, 42.65, 22.3)" gradientUnits="userSpaceOnUse" id="gradient6" spreadMethod="pad" x1="-819.2" x2="819.2">
      <stop offset="0.0" stop-color="#a7550b"/>
      <stop offset="1.0" stop-color="#843307"/>
    </linearGradient>
    <linearGradient gradientTransform="matrix(-0.0028, 0.0029, 0.0016, 0.0012, 12.55, 8.05)" gradientUnits="userSpaceOnUse" id="gradient7" spreadMethod="pad" x1="-819.2" x2="819.2">
      <stop offset="0.0" stop-color="#a7550b"/>
      <stop offset="1.0" stop-color="#843307"/>
    </linearGradient>
    <linearGradient gradientTransform="matrix(-0.0209, -0.0057, -9.0E-4, 0.0131, 22.1, 23.75)" gradientUnits="userSpaceOnUse" id="gradient8" spreadMethod="pad" x1="-819.2" x2="819.2">
      <stop offset="0.0" stop-color="#a7550b"/>
      <stop offset="1.0" stop-color="#843307"/>
    </linearGradient>
    <linearGradient gradientTransform="matrix(-0.0015, -0.0023, 0.0043, -0.0028, 5.55, 15.95)" gradientUnits="userSpaceOnUse" id="gradient9" spreadMethod="pad" x1="-819.2" x2="819.2">
      <stop offset="0.0" stop-color="#e897db"/>
      <stop offset="1.0" stop-color="#ab6fa0"/>
    </linearGradient>
    <linearGradient gradientTransform="matrix(-0.0027, -0.0015, 0.0032, -0.0056, 6.45, 22.4)" gradientUnits="userSpaceOnUse" id="gradient10" spreadMethod="pad" x1="-819.2" x2="819.2">
      <stop offset="0.0" stop-color="#e897db"/>
      <stop offset="1.0" stop-color="#ab6fa0"/>
    </linearGradient>
    <linearGradient gradientTransform="matrix(-0.0031, -7.0E-4, 0.0019, -0.0064, 7.15, 26.35)" gradientUnits="userSpaceOnUse" id="gradient11" spreadMethod="pad" x1="-819.2" x2="819.2">
      <stop offset="0.0" stop-color="#e897db"/>
      <stop offset="1.0" stop-color="#ab6fa0"/>
    </linearGradient>
    <linearGradient gradientTransform="matrix(0.0031, 6.0E-4, 0.0012, -0.0058, 28.5, 35.15)" gradientUnits="userSpaceOnUse" id="gradient12" spreadMethod="pad" x1="-819.2" x2="819.2">
      <stop offset="0.0" stop-color="#e897db"/>
      <stop offset="1.0" stop-color="#ffccfb"/>
    </linearGradient>
    <linearGradient gradientTransform="matrix(0.0018, 0.0024, 0.005, -0.0036, 22.55, 34.5)" gradientUnits="userSpaceOnUse" id="gradient13" spreadMethod="pad" x1="-819.2" x2="819.2">
      <stop offset="0.0" stop-color="#e897db"/>
      <stop offset="1.0" stop-color="#ffccfb"/>
    </linearGradient>
    <linearGradient gradientTransform="matrix(0.0011, 0.0032, 0.0065, -0.0028, 18.25, 33.5)" gradientUnits="userSpaceOnUse" id="gradient14" spreadMethod="pad" x1="-819.2" x2="819.2">
      <stop offset="0.0" stop-color="#e897db"/>
      <stop offset="1.0" stop-color="#ffccfb"/>
    </linearGradient>
    <linearGradient gradientTransform="matrix(-0.0024, 7.0E-4, -0.0014, -0.0044, 10.25, 29.25)" gradientUnits="userSpaceOnUse" id="gradient15" spreadMethod="pad" x1="-819.2" x2="819.2">
      <stop offset="0.0" stop-color="#e897db"/>
      <stop offset="1.0" stop-color="#ab6fa0"/>
    </linearGradient>
    <linearGradient gradientTransform="matrix(1.0E-4, 0.0029, -0.0054, -6.0E-4, 17.75, 32.6)" gradientUnits="userSpaceOnUse" id="gradient16" spreadMethod="pad" x1="-819.2" x2="819.2">
      <stop offset="0.0" stop-color="#e897db"/>
      <stop offset="1.0" stop-color="#ffccfb"/>
    </linearGradient>
    <linearGradient gradientTransform="matrix(0.0028, 7.0E-4, -0.002, 0.0051, 19.75, 27.4)" gradientUnits="userSpaceOnUse" id="gradient17" spreadMethod="pad" x1="-819.2" x2="819.2">
      <stop offset="0.0" stop-color="#e897db"/>
      <stop offset="1.0" stop-color="#ffccfb"/>
    </linearGradient>
    <linearGradient gradientTransform="matrix(-1.0E-4, -0.0022, 0.0043, -2.0E-4, 13.5, 21.8)" gradientUnits="userSpaceOnUse" id="gradient18" spreadMethod="pad" x1="-819.2" x2="819.2">
      <stop offset="0.0" stop-color="#e897db"/>
      <stop offset="1.0" stop-color="#ab6fa0"/>
    </linearGradient>
    <linearGradient gradientTransform="matrix(-0.0016, -8.0E-4, 0.0015, -0.003, 11.25, 25.5)" gradientUnits="userSpaceOnUse" id="gradient19" spreadMethod="pad" x1="-819.2" x2="819.2">
      <stop offset="0.0" stop-color="#e897db"/>
      <stop offset="1.0" stop-color="#ab6fa0"/>
    </linearGradient>
    <g id="sprite0" transform="matrix(1.0, 0.0, 0.0, 1.0, 1.4, 2.15)">
      <clipPath id="clipPath0" transform="matrix(1.0, 0.0, 0.0, 1.0, 1.4, 2.15)">
        <use height="5.4" transform="matrix(1.0, 0.0, 0.0, 1.0, -1.4, -2.15)" width="5.2" xlink:href="#shape1"/>
      </clipPath>
      <g clip-path="url(#clipPath0)">
        <use height="4.4" transform="matrix(1.0, 0.0, 0.0, 1.0, -0.95, -1.55)" width="4.4" xlink:href="#shape2"/>
      </g>
    </g>
    <g id="shape1" transform="matrix(1.0, 0.0, 0.0, 1.0, 1.4, 2.15)">
      <path d="M1.6 -2.15 Q2.65 -2.15 3.3 -1.35 3.9 -0.55 3.75 0.55 3.6 1.65 2.75 2.45 1.9 3.25 0.85 3.25 -0.25 3.25 -0.9 2.45 -1.5 1.65 -1.35 0.55 -1.2 -0.55 -0.35 -1.35 0.5 -2.15 1.6 -2.15" fill="#754c69" fill-opacity="0.8" fill-rule="evenodd" stroke="none"/>
    </g>
    <g id="shape2" transform="matrix(1.0, 0.0, 0.0, 1.0, 0.95, 1.55)">
      <path d="M0.65 -0.9 L0.6 -0.9 0.0 -0.4 Q-0.3 0.0 -0.15 0.5 L0.05 0.9 -0.05 1.0 -0.1 1.35 0.1 1.6 0.5 1.65 0.8 1.45 0.85 1.35 1.35 1.3 2.15 0.75 Q2.45 0.3 2.35 -0.15 L1.75 -0.85 1.55 -0.95 1.5 -1.0 Q2.0 -0.95 2.45 -0.5 2.95 -0.05 2.95 0.65 2.95 1.35 2.45 1.85 1.95 2.35 1.25 2.35 0.55 2.35 0.05 1.85 -0.45 1.35 -0.45 0.65 -0.45 -0.05 0.05 -0.5 0.3 -0.8 0.65 -0.9" fill="#c4c4c4" fill-rule="evenodd" stroke="none"/>
      <path d="M0.6 -0.9 L0.65 -0.9 1.25 -1.0 1.5 -1.0 1.55 -0.95 1.65 -0.75 1.55 -0.35 1.2 -0.1 0.75 -0.15 0.55 -0.45 0.6 -0.85 0.6 -0.9 M0.85 1.35 L0.8 1.45 0.5 1.65 0.1 1.6 -0.1 1.35 -0.05 1.0 0.05 0.9 0.25 0.75 0.65 0.8 0.85 1.05 0.85 1.35" fill="#ffffff" fill-rule="evenodd" stroke="none"/>
      <path d="M1.55 -0.95 L1.75 -0.85 2.35 -0.15 Q2.45 0.3 2.15 0.75 L1.35 1.3 0.85 1.35 0.85 1.05 0.65 0.8 0.25 0.75 0.05 0.9 -0.15 0.5 Q-0.3 0.0 0.0 -0.4 L0.6 -0.9 0.6 -0.85 0.55 -0.45 0.75 -0.15 1.2 -0.1 1.55 -0.35 1.65 -0.75 1.55 -0.95" fill="#dedede" fill-rule="evenodd" stroke="none"/>
      <path d="M0.65 -0.9 Q0.3 -0.8 0.05 -0.5 -0.45 -0.05 -0.45 0.65 -0.45 1.35 0.05 1.85 0.55 2.35 1.25 2.35 1.95 2.35 2.45 1.85 2.95 1.35 2.95 0.65 2.95 -0.05 2.45 -0.5 2.0 -0.95 1.5 -1.0 L1.25 -1.0 0.65 -0.9 M-0.35 -0.9 Q0.3 -1.55 1.25 -1.55 2.15 -1.55 2.8 -0.9 3.45 -0.25 3.45 0.65 3.45 1.55 2.8 2.2 2.15 2.85 1.25 2.85 0.3 2.85 -0.35 2.2 -0.95 1.55 -0.95 0.65 -0.95 -0.25 -0.35 -0.9" fill="#ffffff" fill-opacity="0.5019608" fill-rule="evenodd" stroke="none"/>
      <path d="M-0.35 -0.9 Q-0.95 -0.25 -0.95 0.65 -0.95 1.55 -0.35 2.2 0.3 2.85 1.25 2.85 2.15 2.85 2.8 2.2 3.45 1.55 3.45 0.65 3.45 -0.25 2.8 -0.9 2.15 -1.55 1.25 -1.55 0.3 -1.55 -0.35 -0.9 Z" fill="none" stroke="#000000" stroke-linecap="round" stroke-linejoin="round" stroke-opacity="0.3019608" stroke-width="0.05"/>
    </g>
    <g id="shape3" transform="matrix(1.0, 0.0, 0.0, 1.0, -10.85, -28.8)">
      <path d="M11.35 40.7 Q9.35 37.35 15.6 28.8 L15.6 34.75 Q15.25 39.8 13.3 40.95 L12.3 41.2 Q11.65 41.25 11.35 40.7" fill="#ffffff" fill-rule="evenodd" stroke="none"/>
      <path d="M11.35 40.7 Q11.65 41.25 12.3 41.2 L13.3 40.95 Q15.25 39.8 15.6 34.75 L15.6 28.8 Q9.35 37.35 11.35 40.7 Z" fill="none" stroke="#000000" stroke-linecap="round" stroke-linejoin="round" stroke-opacity="0.15294118" stroke-width="0.05"/>
    </g>
    <g id="shape4" transform="matrix(1.0, 0.0, 0.0, 1.0, -15.0, -16.4)">
      <path d="M19.25 16.95 Q21.25 20.25 15.15 28.85 L15.1 22.9 Q15.35 17.9 17.3 16.7 17.8 16.4 18.3 16.4 18.9 16.4 19.25 16.95" fill="#ffffff" fill-rule="evenodd" stroke="none"/>
      <path d="M19.25 16.95 Q18.9 16.4 18.3 16.4 17.8 16.4 17.3 16.7 15.35 17.9 15.1 22.9 L15.15 28.85 Q21.25 20.25 19.25 16.95 Z" fill="none" stroke="#000000" stroke-linecap="round" stroke-linejoin="round" stroke-opacity="0.15294118" stroke-width="0.05"/>
      <path d="M26.8 25.1 Q25.5 28.75 15.0 29.4 L19.55 25.6 Q23.6 22.65 25.75 23.4 L26.6 24.0 Q27.0 24.5 26.8 25.1" fill="#ffffff" fill-rule="evenodd" stroke="none"/>
      <path d="M26.8 25.1 Q27.0 24.5 26.6 24.0 L25.75 23.4 Q23.6 22.65 19.55 25.6 L15.0 29.4 Q25.5 28.75 26.8 25.1 Z" fill="none" stroke="#000000" stroke-linecap="round" stroke-linejoin="round" stroke-opacity="0.15294118" stroke-width="0.05"/>
      <path d="M24.3 19.4 Q24.85 23.25 15.85 28.75 L18.15 23.25 Q20.35 18.75 22.6 18.45 L23.6 18.55 Q24.2 18.8 24.3 19.4" fill="#ffffff" fill-rule="evenodd" stroke="none"/>
      <path d="M24.3 19.4 Q24.2 18.8 23.6 18.55 L22.6 18.45 Q20.35 18.75 18.15 23.25 L15.85 28.75 Q24.85 23.25 24.3 19.4 Z" fill="none" stroke="#000000" stroke-linecap="round" stroke-linejoin="round" stroke-opacity="0.15294118" stroke-width="0.05"/>
    </g>
    <g id="shape5" transform="matrix(1.0, 0.0, 0.0, 1.0, -3.8, -6.8)">
      <path d="M3.9 32.4 Q5.25 28.75 15.7 28.2 L11.1 31.95 Q7.0 34.85 4.9 34.05 L4.05 33.45 Q3.65 32.95 3.9 32.4" fill="#ffffff" fill-rule="evenodd" stroke="none"/>
      <path d="M3.9 32.4 Q3.65 32.95 4.05 33.45 L4.9 34.05 Q7.0 34.85 11.1 31.95 L15.7 28.2 Q5.25 28.75 3.9 32.4 Z" fill="none" stroke="#000000" stroke-linecap="round" stroke-linejoin="round" stroke-opacity="0.15294118" stroke-width="0.05"/>
      <path d="M6.35 38.1 Q5.85 34.25 14.9 28.85 L12.55 34.3 Q10.3 38.85 8.05 39.15 L7.0 38.95 Q6.4 38.75 6.35 38.1" fill="#ffffff" fill-rule="evenodd" stroke="none"/>
      <path d="M6.35 38.1 Q6.4 38.75 7.0 38.95 L8.05 39.15 Q10.3 38.85 12.55 34.3 L14.9 28.85 Q5.85 34.25 6.35 38.1 Z" fill="none" stroke="#000000" stroke-linecap="round" stroke-linejoin="round" stroke-opacity="0.15294118" stroke-width="0.05"/>
      <path d="M14.4 25.35 L14.35 25.4 Q13.5 25.7 13.1 26.4 12.5 27.2 12.75 28.2 12.85 28.7 13.2 29.05 L13.05 29.25 Q12.75 29.5 12.9 29.95 L13.35 30.5 14.15 30.55 14.8 30.15 14.9 30.0 15.9 29.85 Q17.0 29.55 17.5 28.7 18.15 27.85 17.9 26.9 17.6 25.85 16.65 25.45 L16.3 25.3 16.2 25.2 Q17.25 25.3 18.1 26.15 19.1 27.1 19.1 28.55 19.1 30.0 18.1 31.0 17.1 32.0 15.65 32.0 14.2 32.0 13.2 31.0 12.25 30.0 12.25 28.55 12.25 27.1 13.2 26.15 13.7 25.6 14.4 25.35" fill="#c4c4c4" fill-rule="evenodd" stroke="none"/>
      <path d="M14.35 25.4 L14.4 25.35 15.65 25.1 16.2 25.2 16.3 25.3 16.45 25.65 16.3 26.45 15.6 27.0 14.7 26.9 Q14.3 26.65 14.2 26.25 14.05 25.75 14.3 25.45 L14.35 25.4 M14.9 30.0 L14.8 30.15 14.15 30.55 13.35 30.5 12.9 29.95 Q12.75 29.5 13.05 29.25 L13.2 29.05 Q13.35 28.85 13.65 28.75 L14.45 28.85 Q14.85 28.95 14.9 29.4 L14.9 30.0" fill="#ffffff" fill-rule="evenodd" stroke="none"/>
      <path d="M16.3 25.3 L16.65 25.45 Q17.6 25.85 17.9 26.9 18.15 27.85 17.5 28.7 17.0 29.55 15.9 29.85 L14.9 30.0 14.9 29.4 Q14.85 28.95 14.45 28.85 L13.65 28.75 Q13.35 28.85 13.2 29.05 12.85 28.7 12.75 28.2 12.5 27.2 13.1 26.4 13.5 25.7 14.35 25.4 L14.3 25.45 Q14.05 25.75 14.2 26.25 14.3 26.65 14.7 26.9 L15.6 27.0 16.3 26.45 16.45 25.65 16.3 25.3" fill="#dedede" fill-rule="evenodd" stroke="none"/>
      <path d="M14.4 25.35 Q13.7 25.6 13.2 26.15 12.25 27.1 12.25 28.55 12.25 30.0 13.2 31.0 14.2 32.0 15.65 32.0 17.1 32.0 18.1 31.0 19.1 30.0 19.1 28.55 19.1 27.1 18.1 26.15 17.25 25.3 16.2 25.2 L15.65 25.1 14.4 25.35 M12.45 25.4 Q13.8 24.05 15.65 24.05 17.5 24.05 18.85 25.4 20.2 26.65 20.2 28.55 20.2 30.4 18.85 31.75 17.5 33.1 15.65 33.1 13.8 33.1 12.45 31.75 11.15 30.4 11.15 28.55 11.15 26.65 12.45 25.4" fill="#ffffff" fill-opacity="0.5019608" fill-rule="evenodd" stroke="none"/>
      <path d="M12.45 25.4 Q11.15 26.65 11.15 28.55 11.15 30.4 12.45 31.75 13.8 33.1 15.65 33.1 17.5 33.1 18.85 31.75 20.2 30.4 20.2 28.55 20.2 26.65 18.85 25.4 17.5 24.05 15.65 24.05 13.8 24.05 12.45 25.4 Z" fill="none" stroke="#000000" stroke-linecap="round" stroke-linejoin="round" stroke-opacity="0.3019608" stroke-width="0.05"/>
      <path d="M15.7 26.35 L24.45 22.45 15.35 25.3 13.8 21.4 14.65 25.35 12.35 26.95 14.85 26.55 17.05 32.7 15.7 26.35" fill="#fcf3d8" fill-opacity="0.7921569" fill-rule="evenodd" stroke="none"/>
      <path d="M16.9 24.4 Q16.65 23.5 17.7 22.05 16.7 23.2 15.6 23.35 L14.2 23.15 Q13.25 23.25 12.65 24.15 12.05 25.0 12.25 26.05 L10.4 26.6 12.55 26.75 13.45 27.85 Q14.1 28.35 14.7 28.45 L15.15 29.45 15.45 28.4 15.55 28.45 Q16.55 28.25 17.15 27.5 17.65 26.6 17.45 25.55 L16.9 24.4 M14.2 27.0 L13.6 26.15 Q13.5 25.55 13.85 25.2 14.1 24.7 14.6 24.7 15.2 24.65 15.6 24.95 L16.2 25.85 Q16.35 26.45 16.05 26.9 15.75 27.25 15.2 27.3 14.6 27.35 14.2 27.0" fill="#fcf3d8" fill-opacity="0.3019608" fill-rule="evenodd" stroke="none"/>
      <path d="M14.2 27.0 Q14.6 27.35 15.2 27.3 15.75 27.25 16.05 26.9 16.35 26.45 16.2 25.85 L15.6 24.95 Q15.2 24.65 14.6 24.7 14.1 24.7 13.85 25.2 13.5 25.55 13.6 26.15 L14.2 27.0" fill="#fcf3d8" fill-opacity="0.84313726" fill-rule="evenodd" stroke="none"/>
      <path d="M11.3 9.15 Q11.05 8.25 12.1 6.8 11.1 7.95 10.0 8.1 L8.6 7.9 Q7.65 8.0 7.05 8.9 6.45 9.75 6.65 10.8 L4.8 11.35 6.95 11.5 7.85 12.6 Q8.5 13.1 9.1 13.2 L9.55 14.2 9.85 13.15 9.95 13.2 Q10.95 13.0 11.55 12.25 12.05 11.35 11.85 10.3 L11.3 9.15 M8.6 11.75 Q8.1 11.4 8.0 10.9 7.9 10.3 8.25 9.95 8.5 9.45 9.0 9.45 9.6 9.4 10.0 9.7 10.45 10.0 10.6 10.6 10.75 11.2 10.45 11.65 10.15 12.0 9.6 12.05 9.0 12.1 8.6 11.75" fill="#fcf3d8" fill-opacity="0.3019608" fill-rule="evenodd" stroke="none"/>
      <path d="M8.6 11.75 Q9.0 12.1 9.6 12.05 10.15 12.0 10.45 11.65 10.75 11.2 10.6 10.6 10.45 10.0 10.0 9.7 9.6 9.4 9.0 9.45 8.5 9.45 8.25 9.95 7.9 10.3 8.0 10.9 8.1 11.4 8.6 11.75" fill="#fcf3d8" fill-opacity="0.84313726" fill-rule="evenodd" stroke="none"/>
      <path d="M29.4 33.5 Q29.15 32.6 30.2 31.15 29.2 32.3 28.1 32.45 L26.7 32.25 Q25.75 32.35 25.15 33.25 24.55 34.1 24.75 35.15 L22.9 35.7 25.05 35.85 25.95 36.95 Q26.6 37.45 27.2 37.55 L27.65 38.55 27.95 37.5 28.05 37.55 Q29.05 37.35 29.65 36.6 30.15 35.7 29.95 34.65 L29.4 33.5 M26.7 36.1 Q26.2 35.75 26.1 35.25 26.0 34.65 26.35 34.3 26.6 33.8 27.1 33.8 27.7 33.75 28.1 34.05 28.55 34.35 28.7 34.95 28.85 35.55 28.55 36.0 28.25 36.35 27.7 36.4 27.1 36.45 26.7 36.1" fill="#fcf3d8" fill-opacity="0.3019608" fill-rule="evenodd" stroke="none"/>
      <path d="M26.7 36.1 Q27.1 36.45 27.7 36.4 28.25 36.35 28.55 36.0 28.85 35.55 28.7 34.95 28.55 34.35 28.1 34.05 27.7 33.75 27.1 33.8 26.6 33.8 26.35 34.3 26.0 34.65 26.1 35.25 26.2 35.75 26.7 36.1" fill="#fcf3d8" fill-opacity="0.84313726" fill-rule="evenodd" stroke="none"/>
      <path d="M32.15 13.3 Q31.95 12.5 32.8 11.35 31.95 12.35 31.05 12.45 L29.95 12.25 Q29.1 12.35 28.65 13.05 28.15 13.75 28.35 14.6 L26.75 15.1 28.55 15.2 29.3 16.15 Q29.8 16.55 30.35 16.6 L30.7 17.4 31.0 16.6 31.05 16.6 Q31.85 16.4 32.3 15.8 32.75 15.1 32.6 14.25 L32.15 13.3 M29.9 15.45 Q29.5 15.15 29.45 14.7 29.35 14.25 29.6 13.9 29.85 13.55 30.2 13.5 L31.05 13.75 31.55 14.5 Q31.65 14.95 31.4 15.3 L30.7 15.7 29.9 15.45" fill="#fcf3d8" fill-opacity="0.3019608" fill-rule="evenodd" stroke="none"/>
      <path d="M29.9 15.45 L30.7 15.7 31.4 15.3 Q31.65 14.95 31.55 14.5 L31.05 13.75 30.2 13.5 Q29.85 13.55 29.6 13.9 29.35 14.25 29.45 14.7 29.5 15.15 29.9 15.45" fill="#fcf3d8" fill-opacity="0.84313726" fill-rule="evenodd" stroke="none"/>
      <path d="M29.8 7.95 Q29.65 7.55 30.2 6.8 L29.1 7.45 28.45 7.35 Q28.0 7.4 27.7 7.85 27.4 8.25 27.5 8.75 L26.6 9.05 27.65 9.15 28.05 9.65 Q28.4 9.9 28.7 9.95 L28.9 10.45 29.05 9.95 29.1 9.95 Q29.6 9.9 29.95 9.5 L30.1 8.5 29.8 7.95 M28.45 9.25 L28.15 8.85 28.25 8.35 28.65 8.1 29.15 8.25 29.45 8.65 29.35 9.2 28.95 9.4 28.45 9.25" fill="#fcf3d8" fill-opacity="0.3019608" fill-rule="evenodd" stroke="none"/>
      <path d="M28.45 9.25 L28.95 9.4 29.35 9.2 29.45 8.65 29.15 8.25 28.65 8.1 28.25 8.35 28.15 8.85 28.45 9.25" fill="#fcf3d8" fill-opacity="0.84313726" fill-rule="evenodd" stroke="none"/>
    </g>
  </defs>
</svg>
