<?xml version="1.0" encoding="UTF-8" standalone="no"?>
<svg xmlns:xlink="http://www.w3.org/1999/xlink" height="440.0px" width="440.0px" xmlns="http://www.w3.org/2000/svg">
  <g transform="matrix(10.0, 0.0, 0.0, 10.0, 0.0, 0.0)">
    <use height="44.0" transform="matrix(1.0, 0.0, 0.0, 1.0, 0.0, 0.0)" width="44.0" xlink:href="#shape0"/>
    <use height="58.7" transform="matrix(0.5417, 0.0, 0.0, 0.5417, 2.7104, 6.2235)" width="73.45" xlink:href="#sprite0"/>
  </g>
  <defs>
    <g id="shape0" transform="matrix(1.0, 0.0, 0.0, 1.0, 0.0, 0.0)">
      <path d="M44.0 44.0 L0.0 44.0 0.0 0.0 44.0 0.0 44.0 44.0" fill="#43adca" fill-opacity="0.0" fill-rule="evenodd" stroke="none"/>
    </g>
    <g id="sprite0" transform="matrix(1.0, 0.0, 0.0, 1.0, 32.1, 23.4)">
      <use height="30.9" transform="matrix(1.0, 0.0, 0.0, 1.0, -32.1, -0.3)" width="30.2" xlink:href="#sprite1"/>
      <use height="97.8" transform="matrix(0.3493, -0.0014, 0.0014, 0.3493, -14.4781, 1.1361)" width="85.1" xlink:href="#shape2"/>
      <use height="46.1" transform="matrix(1.0, 0.0, 0.0, 1.0, -23.2, -23.4)" width="64.55" xlink:href="#shape3"/>
    </g>
    <g id="sprite1" transform="matrix(1.0, 0.0, 0.0, 1.0, 15.1, 15.45)">
      <use height="30.9" transform="matrix(1.0, 0.0, 0.0, 1.0, -15.1, -15.45)" width="30.2" xlink:href="#shape1"/>
    </g>
    <g id="shape1" transform="matrix(1.0, 0.0, 0.0, 1.0, 15.1, 15.45)">
      <path d="M-13.05 2.5 L-13.05 2.45 -13.05 2.5" fill="#000000" fill-opacity="0.3019608" fill-rule="evenodd" stroke="none"/>
      <path d="M-4.2 3.05 L-4.3 2.9 -4.25 2.85 Q-4.15 2.9 -4.2 3.05" fill="#9d926c" fill-rule="evenodd" stroke="none"/>
      <path d="M9.65 -8.65 L8.75 -9.3 Q6.1 -10.65 3.75 -9.7 1.4 -8.65 0.6 -5.8 0.0 -3.4 1.5 -2.7 1.9 -2.5 2.35 -2.4 L3.9 -1.85 4.2 -1.7 Q5.5 -1.0 6.6 0.4 L6.85 0.7 Q8.15 2.35 9.35 3.1 L10.65 3.65 Q12.3 3.85 13.1 1.4 L13.15 1.05 Q13.9 -1.8 12.6 -4.85 11.95 -6.6 10.75 -7.8 L10.35 -8.1 9.65 -8.65 M-14.25 -2.45 L-14.3 -3.2 -14.3 -4.6 -14.05 -5.6 Q-13.2 -8.45 -9.95 -11.4 -5.3 -15.65 0.9 -15.45 7.15 -15.25 11.25 -10.75 L11.95 -9.9 Q14.25 -7.0 14.85 -3.5 L14.85 -3.2 15.0 -1.6 15.0 -1.5 15.05 -1.3 15.0 -1.25 13.45 2.3 11.75 4.45 Q8.35 7.55 4.8 6.0 L0.25 3.4 -1.45 2.3 -3.3 0.75 Q-5.05 -0.45 -6.65 -0.85 L-9.65 -0.75 -9.55 -0.85 -9.85 -0.75 Q-10.45 -0.4 -10.95 -0.45 -12.5 -0.45 -13.55 -1.6 L-14.25 -2.45 M15.0 -1.5 L15.0 -1.25 15.0 -1.5 M-12.3 1.85 L-12.4 1.95 -12.45 1.95 -12.3 1.85 M-3.9 -7.15 L-2.9 -6.9 -2.35 -6.7 Q-1.15 -6.5 -0.4 -8.0 0.45 -9.85 -0.4 -11.35 -1.25 -12.8 -3.4 -13.15 L-4.0 -13.15 -4.8 -13.2 -5.1 -13.1 -5.15 -13.1 Q-6.35 -12.95 -7.55 -12.3 -9.65 -11.2 -10.5 -9.3 -11.4 -7.5 -10.35 -6.95 L-9.35 -6.65 -6.85 -6.95 -6.65 -7.05 -6.6 -7.0 -4.3 -7.25 -4.05 -7.15 -3.9 -7.15" fill="#e0e0b3" fill-rule="evenodd" stroke="none"/>
      <path d="M9.65 -8.65 L10.35 -8.1 10.75 -7.8 Q11.95 -6.6 12.6 -4.85 13.9 -1.8 13.15 1.05 L13.1 1.4 Q12.3 3.85 10.65 3.65 L9.35 3.1 Q11.6 -0.25 11.3 -2.9 11.1 -5.2 8.9 -7.0 L8.75 -7.15 8.55 -7.4 Q8.5 -7.9 8.9 -8.3 L9.65 -8.65 M-14.25 -2.45 L-13.55 -1.6 Q-12.5 -0.45 -10.95 -0.45 -10.45 -0.4 -9.85 -0.75 L-9.55 -0.85 -9.65 -0.75 -6.65 -0.85 Q-5.05 -0.45 -3.3 0.75 L-1.45 2.3 0.25 3.4 4.8 6.0 Q8.35 7.55 11.75 4.45 L13.45 2.3 15.0 -1.25 15.0 0.0 Q14.6 6.15 9.95 10.4 6.15 13.9 1.8 12.95 L3.0 11.15 Q3.95 9.45 0.7 6.5 -2.6 3.5 -4.25 2.8 L-4.25 2.85 -4.85 2.55 -7.1 1.25 -7.85 1.0 -10.8 1.05 Q-11.6 1.3 -12.3 1.85 L-12.45 1.95 Q-13.85 -0.4 -14.25 -2.45 M15.0 -1.6 L14.85 -3.2 14.85 -3.5 15.0 -1.6 M15.05 -1.3 L15.1 -1.4 Q15.15 -0.4 15.05 -1.3 M-4.6 -12.0 Q-4.7 -12.65 -4.35 -13.0 L-4.0 -13.15 -3.4 -13.15 Q-1.25 -12.8 -0.4 -11.35 0.45 -9.85 -0.4 -8.0 -1.15 -6.5 -2.35 -6.7 L-2.9 -6.9 -3.9 -7.15 Q-2.15 -7.15 -1.15 -9.0 -0.6 -10.3 -1.75 -11.15 -2.75 -12.3 -4.35 -12.0 L-4.5 -11.95 -4.6 -12.0" fill="#aea378" fill-rule="evenodd" stroke="none"/>
      <path d="M3.9 -1.85 L2.35 -2.4 Q1.9 -2.5 1.5 -2.7 0.0 -3.4 0.6 -5.8 1.4 -8.65 3.75 -9.7 6.1 -10.65 8.75 -9.3 L9.65 -8.65 8.9 -8.3 Q8.5 -7.9 8.55 -7.4 7.1 -8.85 5.05 -8.4 2.9 -8.2 2.25 -6.3 1.75 -3.25 3.9 -1.85 M-4.25 2.85 L-4.25 2.8 Q-2.6 3.5 0.7 6.5 3.95 9.45 3.0 11.15 L1.8 12.95 1.1 12.75 0.0 12.35 -0.95 11.95 -0.6 11.25 Q-0.1 10.25 -0.2 9.3 L-0.2 9.25 Q-0.25 7.9 -1.15 6.35 L-1.3 6.1 -1.35 6.05 -4.2 3.05 Q-4.15 2.9 -4.25 2.85 M-4.0 -13.15 L-4.35 -13.0 Q-4.7 -12.65 -4.6 -12.0 -8.9 -11.6 -9.35 -6.65 L-10.35 -6.95 Q-11.4 -7.5 -10.5 -9.3 -9.65 -11.2 -7.55 -12.3 -6.35 -12.95 -5.15 -13.1 L-5.1 -13.1 -4.8 -13.2 -4.0 -13.15" fill="#746a47" fill-rule="evenodd" stroke="none"/>
      <path d="M9.35 3.1 Q8.15 2.35 6.85 0.7 L6.6 0.4 Q5.5 -1.0 4.2 -1.7 L3.9 -1.85 Q1.75 -3.25 2.25 -6.3 2.9 -8.2 5.05 -8.4 7.1 -8.85 8.55 -7.4 L8.75 -7.15 8.9 -7.0 Q11.1 -5.2 11.3 -2.9 11.6 -0.25 9.35 3.1 M-4.6 -12.0 L-4.5 -11.95 -4.35 -12.0 Q-2.75 -12.3 -1.75 -11.15 -0.6 -10.3 -1.15 -9.0 -2.15 -7.15 -3.9 -7.15 L-4.05 -7.15 -4.3 -7.25 -6.6 -7.0 -6.65 -7.05 -6.85 -6.95 -9.35 -6.65 Q-8.9 -11.6 -4.6 -12.0" fill="#322e1f" fill-rule="evenodd" stroke="none"/>
      <path d="M9.35 3.1 Q8.15 2.35 6.85 0.7 L6.6 0.4 Q5.5 -1.0 4.2 -1.7 L3.9 -1.85 M8.55 -7.4 L8.75 -7.15 8.9 -7.0 Q11.1 -5.2 11.3 -2.9 11.6 -0.25 9.35 3.1 M14.85 -3.5 Q14.25 -7.0 11.95 -9.9 L11.25 -10.75 Q7.15 -15.25 0.9 -15.45 -5.3 -15.65 -9.95 -11.4 -13.2 -8.45 -14.05 -5.6 L-14.3 -4.6 -14.3 -3.2 -14.25 -2.45 M15.0 -1.25 L15.0 -1.5 15.0 -1.6 M14.85 -3.5 L15.0 -1.6 M1.8 12.95 Q6.15 13.9 9.95 10.4 14.6 6.15 15.0 0.0 L15.0 -1.25 M1.8 12.95 L1.1 12.75 0.0 12.35 -0.95 11.95 -0.6 11.25 Q-0.1 10.25 -0.2 9.3 L-0.2 9.25 Q-0.25 7.9 -1.15 6.35 L-1.3 6.1 -1.35 6.05 -4.2 3.05 -4.3 2.9 M-4.25 2.85 L-4.85 2.55 -7.1 1.25 -7.85 1.0 -10.8 1.05 Q-11.6 1.3 -12.3 1.85 L-12.4 1.95 -12.45 1.95 Q-13.85 -0.4 -14.25 -2.45 M-4.6 -12.0 L-4.5 -11.95 -4.35 -12.0 Q-2.75 -12.3 -1.75 -11.15 -0.6 -10.3 -1.15 -9.0 -2.15 -7.15 -3.9 -7.15 L-4.05 -7.15 -4.3 -7.25 -6.6 -7.0 -6.65 -7.05 -6.85 -6.95 -9.35 -6.65 M-4.2 3.05 Q-4.15 2.9 -4.25 2.85" fill="none" stroke="#000000" stroke-linecap="round" stroke-linejoin="round" stroke-opacity="0.3019608" stroke-width="0.05"/>
      <path d="M3.9 -1.85 Q1.75 -3.25 2.25 -6.3 2.9 -8.2 5.05 -8.4 7.1 -8.85 8.55 -7.4 M-9.35 -6.65 Q-8.9 -11.6 -4.6 -12.0" fill="none" stroke="#000000" stroke-linecap="round" stroke-linejoin="round" stroke-opacity="0.5019608" stroke-width="0.05"/>
      <path d="M12.2 5.05 Q12.25 4.35 12.55 3.7 L13.35 2.65 14.0 2.55 Q14.3 2.8 14.2 3.3 L13.75 4.55 13.05 5.65 Q12.65 6.05 12.35 5.85 12.05 5.65 12.2 5.05" fill="#11110b" fill-rule="evenodd" stroke="none"/>
      <path d="M-2.6 4.25 Q-2.4 4.9 -2.45 5.75 L-3.55 7.25 -3.85 8.15 Q-4.05 8.85 -3.8 9.3 L-4.3 10.05 Q-5.9 12.3 -9.15 10.9 -12.5 9.4 -13.85 7.9 -14.6 7.05 -14.7 5.9 L-14.8 5.85 -14.7 5.6 -13.9 3.65 Q-13.3 2.6 -12.25 1.75 L-11.05 0.9 -10.25 0.6 -10.85 1.7 -11.15 2.55 -11.25 2.6 -11.25 2.8 Q-11.6 3.95 -11.2 4.4 L-9.7 4.3 Q-8.7 3.75 -7.65 2.45 L-7.5 2.25 -7.1 1.65 -6.8 1.1 Q-6.55 1.25 -6.2 1.5 L-7.4 3.5 -7.55 4.05 Q-8.0 5.5 -7.4 6.2 -6.9 6.9 -5.7 6.4 -4.55 5.95 -3.45 4.65 L-3.1 4.15 -2.9 3.95 -2.6 4.25 M-7.9 0.65 L-7.85 0.65 -7.8 0.65 -7.9 0.65" fill="#e0e0b3" fill-rule="evenodd" stroke="none"/>
      <path d="M-2.6 4.25 L-1.95 4.85 -1.7 5.15 Q-0.1 6.8 0.3 9.0 L0.3 9.05 0.25 9.3 0.25 9.35 Q0.35 11.0 -1.25 12.65 L-2.05 13.45 -2.1 13.45 Q-4.55 15.65 -7.8 15.45 -11.05 15.3 -13.2 12.9 -15.3 10.45 -15.05 7.2 L-14.8 5.85 -14.7 5.9 Q-14.6 7.05 -13.85 7.9 -12.5 9.4 -9.15 10.9 -5.9 12.3 -4.3 10.05 L-3.8 9.3 Q-4.05 8.85 -3.85 8.15 L-3.55 7.25 -2.45 5.75 Q-2.4 4.9 -2.6 4.25 M-10.25 0.6 L-7.9 0.65 -7.8 0.65 -7.15 0.9 Q-7.0 0.95 -6.8 1.1 L-7.1 1.65 -7.5 2.25 -7.65 2.45 Q-8.7 3.75 -9.7 4.3 L-11.2 4.4 Q-11.6 3.95 -11.25 2.8 L-11.25 2.6 -11.15 2.55 -10.85 1.7 -10.25 0.6 M-6.2 1.5 L-5.9 1.65 -4.05 2.85 -4.0 2.9 -2.9 3.95 -3.1 4.15 -3.45 4.65 Q-4.55 5.95 -5.7 6.4 -6.9 6.9 -7.4 6.2 -8.0 5.5 -7.55 4.05 L-7.4 3.5 -6.2 1.5" fill="#aea378" fill-rule="evenodd" stroke="none"/>
      <path d="M-14.8 5.85 L-15.05 7.2 Q-15.3 10.45 -13.2 12.9 -11.05 15.3 -7.8 15.45 -4.55 15.65 -2.1 13.45 L-2.05 13.45 -1.25 12.65 Q0.35 11.0 0.25 9.35 L0.25 9.3 0.3 9.05 0.3 9.0 Q-0.1 6.8 -1.7 5.15 L-1.95 4.85 -2.6 4.25 M-14.8 5.85 L-14.7 5.6 -13.9 3.65 Q-13.3 2.6 -12.25 1.75 L-11.05 0.9 -10.25 0.6 -7.9 0.65 -7.85 0.65 -7.8 0.65 -7.15 0.9 Q-7.0 0.95 -6.8 1.1 -6.55 1.25 -6.2 1.5 L-5.9 1.65 -4.05 2.85 -4.0 2.9 -2.9 3.95 -2.6 4.25 M-7.9 0.65 L-7.8 0.65" fill="none" stroke="#000000" stroke-linecap="round" stroke-linejoin="round" stroke-opacity="0.3019608" stroke-width="0.05"/>
      <path d="M-4.3 6.85 L-4.25 6.8 -3.95 5.95 Q-3.3 4.7 -1.95 3.7 L-1.05 3.1 -0.4 2.8 0.65 2.5 Q1.85 2.35 2.25 3.15 2.65 3.95 2.0 5.2 L1.9 5.4 1.3 6.05 Q0.0 7.2 -1.6 7.5 -3.3 7.85 -4.25 6.85 L-4.3 6.85 M-7.85 2.25 Q-7.45 1.05 -6.5 -0.05 L-6.45 -0.05 -6.05 -0.55 Q-5.15 -1.45 -4.2 -1.8 L-3.8 -1.9 Q-2.95 -2.1 -2.55 -1.6 -2.2 -1.15 -2.2 -0.4 L-2.35 0.55 -2.55 1.1 -3.15 1.85 Q-4.1 2.7 -5.25 3.15 -6.7 3.7 -7.4 2.95 L-7.85 2.25 M-6.85 -1.0 L-7.3 -0.55 -9.3 1.1 Q-10.9 2.15 -11.7 1.45 L-11.65 1.35 -11.6 1.2 -11.3 0.35 -10.3 -1.3 -9.7 -1.9 -8.2 -3.15 Q-7.2 -3.8 -6.75 -3.3 -6.45 -2.95 -6.55 -2.25 L-6.7 -1.5 -6.85 -1.0" fill="#e0e0b3" fill-rule="evenodd" stroke="none"/>
      <path d="M1.9 5.4 L1.25 6.35 0.8 6.95 0.0 7.55 Q-1.35 8.5 -2.55 8.65 -3.8 8.8 -4.25 8.0 -4.5 7.5 -4.3 6.85 L-4.25 6.85 Q-3.3 7.85 -1.6 7.5 0.0 7.2 1.3 6.05 L1.9 5.4 M-2.55 1.1 L-3.15 2.3 -3.55 2.85 -3.85 3.3 Q-5.0 4.65 -6.15 5.1 -7.3 5.55 -7.85 4.85 -8.4 4.15 -7.95 2.75 L-7.85 2.25 -7.4 2.95 Q-6.7 3.7 -5.25 3.15 -4.1 2.7 -3.15 1.85 L-2.55 1.1 M-11.7 1.45 Q-10.9 2.15 -9.3 1.1 L-7.3 -0.55 -6.85 -1.0 -7.5 0.35 -7.95 0.9 -8.15 1.1 Q-9.15 2.45 -10.1 3.0 -11.2 3.65 -11.65 3.15 -12.05 2.65 -11.7 1.45" fill="#746a47" fill-rule="evenodd" stroke="none"/>
      <path d="M-4.3 6.85 L-4.25 6.8 -3.95 5.95 Q-3.3 4.7 -1.95 3.7 L-1.05 3.1 -0.4 2.8 0.65 2.5 Q1.85 2.35 2.25 3.15 2.65 3.95 2.0 5.2 L1.9 5.4 M-7.85 2.25 Q-7.45 1.05 -6.5 -0.05 L-6.45 -0.05 -6.05 -0.55 Q-5.15 -1.45 -4.2 -1.8 L-3.8 -1.9 Q-2.95 -2.1 -2.55 -1.6 -2.2 -1.15 -2.2 -0.4 L-2.35 0.55 -2.55 1.1 M-6.85 -1.0 L-6.7 -1.5 -6.55 -2.25 Q-6.45 -2.95 -6.75 -3.3 -7.2 -3.8 -8.2 -3.15 L-9.7 -1.9 -10.3 -1.3 -11.3 0.35 -11.6 1.2 -11.65 1.35 -11.7 1.45" fill="none" stroke="#000000" stroke-linecap="round" stroke-linejoin="round" stroke-opacity="0.3019608" stroke-width="0.05"/>
      <path d="M1.9 5.4 L1.25 6.35 0.8 6.95 0.0 7.55 Q-1.35 8.5 -2.55 8.65 -3.8 8.8 -4.25 8.0 -4.5 7.5 -4.3 6.85 M-2.55 1.1 L-3.15 2.3 -3.55 2.85 -3.85 3.3 Q-5.0 4.65 -6.15 5.1 -7.3 5.55 -7.85 4.85 -8.4 4.15 -7.95 2.75 L-7.85 2.25 M-11.7 1.45 Q-12.05 2.65 -11.65 3.15 -11.2 3.65 -10.1 3.0 -9.15 2.45 -8.15 1.1 L-7.95 0.9 -7.5 0.35 -6.85 -1.0" fill="none" stroke="#000000" stroke-linecap="round" stroke-linejoin="round" stroke-opacity="0.39215687" stroke-width="0.05"/>
      <path d="M-1.2 -6.2 L-3.05 -3.4 -3.5 -3.5 -3.85 -4.1 -3.55 -5.05 -2.75 -5.65 -1.2 -6.2" fill="#746a47" fill-rule="evenodd" stroke="none"/>
      <path d="M-0.8 -5.8 L-2.5 -2.95 -2.1 -2.6 -1.1 -2.55 -0.35 -3.2 Q-0.1 -3.65 -0.2 -4.2 L-0.8 -5.8" fill="#746a47" fill-rule="evenodd" stroke="none"/>
    </g>
    <g id="shape2" transform="matrix(1.0, 0.0, 0.0, 1.0, 42.55, 48.45)">
      <path d="M-18.95 28.75 L-18.9 29.15 -19.1 28.75 -18.95 28.75" fill="#000000" fill-opacity="0.3019608" fill-rule="evenodd" stroke="none"/>
      <path d="M12.3 11.15 L11.45 11.0 11.45 10.95 12.3 11.15 M-0.55 11.05 L-1.1 11.1 -1.15 10.95 -0.55 11.05" fill="#b3a77b" fill-rule="evenodd" stroke="none"/>
      <path d="M22.4 -42.0 L23.05 -41.55 26.75 -38.75 26.85 -38.65 27.55 -38.05 26.85 -38.65 27.5 -38.2 27.55 -38.05 Q31.5 -30.25 32.1 -27.9 33.25 -23.2 33.25 -20.15 33.25 -6.85 23.15 -2.4 18.4 -0.3 8.85 2.35 L3.1 3.85 Q-0.4 4.0 -3.75 4.7 -9.65 6.3 -13.6 8.75 -17.6 11.15 -19.25 15.35 L-19.3 15.0 -19.55 15.7 Q-20.15 17.65 -21.2 18.7 -24.15 22.05 -28.6 22.05 L-31.8 21.8 -33.6 20.5 -36.45 17.65 -38.1 15.3 Q-42.55 8.0 -42.55 -4.6 -42.55 -22.8 -30.05 -35.65 -17.55 -48.45 0.0 -48.45 L3.2 -48.35 Q13.75 -47.65 22.4 -42.0 M-18.9 26.15 L-18.8 26.4 -18.9 26.4 -18.95 26.4 -18.9 26.15 -18.9 26.4 -18.9 26.15 M25.8 -17.5 Q27.95 -18.2 29.4 -19.3 33.2 -22.4 29.35 -28.95 L28.85 -29.7 Q24.15 -36.85 15.25 -40.0 10.15 -41.8 5.3 -41.6 L3.95 -41.55 1.3 -41.05 -1.7 -40.3 Q-9.8 -37.45 -12.2 -30.45 -14.6 -23.4 -10.05 -16.2 -6.3 -10.25 -1.7 -12.1 -0.65 -12.6 0.4 -13.35 2.3 -14.75 4.65 -15.6 L5.65 -15.95 Q9.55 -17.25 14.7 -16.95 L15.75 -16.9 Q21.9 -16.4 25.8 -17.5 M-22.1 -9.05 Q-20.8 -10.2 -19.2 -10.9 -18.4 -11.2 -17.8 -11.65 -14.95 -13.85 -16.75 -18.3 -19.1 -23.8 -23.9 -24.85 -28.7 -25.95 -33.45 -22.0 L-34.75 -20.75 -36.35 -19.0 -36.7 -18.35 -36.8 -18.2 Q-38.8 -15.35 -39.75 -11.5 -41.45 -4.85 -39.2 0.6 -36.95 6.05 -33.7 4.8 -32.5 4.4 -31.25 3.25 -29.15 1.25 -27.15 -2.65 L-26.8 -3.2 -26.75 -3.3 Q-24.95 -6.65 -22.7 -8.55 L-22.1 -9.05" fill="#ffffcc" fill-rule="evenodd" stroke="none"/>
      <path d="M26.75 -38.75 L23.05 -41.55 22.4 -42.0 Q24.65 -40.55 26.75 -38.75 M-31.8 21.8 L-28.6 22.05 Q-24.15 22.05 -21.2 18.7 -20.15 17.65 -19.55 15.7 L-19.3 15.0 -19.25 15.35 Q-17.6 11.15 -13.6 8.75 -9.65 6.3 -3.75 4.7 -0.4 4.0 3.1 3.85 L8.85 2.35 Q18.4 -0.3 23.15 -2.4 33.25 -6.85 33.25 -20.15 33.25 -23.2 32.1 -27.9 31.5 -30.25 27.55 -38.05 L30.1 -35.65 Q42.55 -22.8 42.55 -4.6 42.55 10.15 32.05 17.5 32.35 16.75 30.6 11.5 28.85 6.25 16.15 7.45 3.5 8.5 -1.25 10.7 L-1.3 10.7 -1.15 10.95 -2.9 11.45 Q-8.65 13.2 -10.1 13.85 -11.2 14.3 -12.15 14.9 -18.05 20.8 -17.8 21.3 -18.75 23.45 -18.9 26.15 L-18.95 26.4 Q-26.75 24.95 -31.8 21.8 M27.5 -38.2 L27.3 -38.55 Q29.55 -36.75 27.5 -38.2 M1.3 -41.05 L3.95 -41.55 5.3 -41.6 Q10.15 -41.8 15.25 -40.0 24.15 -36.85 28.85 -29.7 L29.35 -28.95 Q33.2 -22.4 29.4 -19.3 27.95 -18.2 25.8 -17.5 23.05 -28.75 16.8 -33.4 11.45 -37.35 3.5 -36.3 L2.75 -36.2 1.85 -36.2 Q0.7 -37.2 0.7 -38.8 0.7 -39.95 1.3 -41.05 M-33.3 -17.2 Q-35.0 -18.25 -35.0 -19.7 L-34.75 -20.75 -33.45 -22.0 Q-28.7 -25.95 -23.9 -24.85 -19.1 -23.8 -16.75 -18.3 -14.95 -13.85 -17.8 -11.65 -18.4 -11.2 -19.2 -10.9 -20.8 -10.2 -22.1 -9.05 -18.25 -12.7 -20.2 -18.7 -22.0 -22.35 -26.0 -21.7 -30.45 -21.85 -32.85 -17.8 L-33.2 -17.35 -33.3 -17.2" fill="#c7ba89" fill-rule="evenodd" stroke="none"/>
      <path d="M-1.15 10.95 L-1.3 10.7 -1.25 10.7 -1.15 10.95" fill="#baab70" fill-rule="evenodd" stroke="none"/>
      <path d="M32.05 17.5 L30.4 18.65 30.25 18.75 27.25 20.25 24.5 21.5 23.8 19.35 Q22.6 16.4 20.4 14.7 L20.35 14.7 Q17.25 12.1 12.3 11.15 L11.45 10.95 11.3 10.95 Q1.85 10.65 -0.55 11.05 L-1.15 10.95 -1.25 10.7 Q3.5 8.5 16.15 7.45 28.85 6.25 30.6 11.5 32.35 16.75 32.05 17.5 M4.65 -15.6 Q2.3 -14.75 0.4 -13.35 -0.65 -12.6 -1.7 -12.1 -6.3 -10.25 -10.05 -16.2 -14.6 -23.4 -12.2 -30.45 -9.8 -37.45 -1.7 -40.3 L1.3 -41.05 Q0.7 -39.95 0.7 -38.8 0.7 -37.2 1.85 -36.2 -4.05 -36.0 -6.95 -30.7 -10.8 -25.9 -8.0 -20.7 -2.45 -13.6 4.65 -15.6 M-34.75 -20.75 L-35.0 -19.7 Q-35.0 -18.25 -33.3 -17.2 -40.95 -7.35 -31.25 3.25 -32.5 4.4 -33.7 4.8 -36.95 6.05 -39.2 0.6 -41.45 -4.85 -39.75 -11.5 -38.8 -15.35 -36.8 -18.2 L-36.7 -18.35 -36.35 -19.0 -34.75 -20.75" fill="#847951" fill-rule="evenodd" stroke="none"/>
      <path d="M25.8 -17.5 Q21.9 -16.4 15.75 -16.9 L14.7 -16.95 Q9.55 -17.25 5.65 -15.95 L4.65 -15.6 Q-2.45 -13.6 -8.0 -20.7 -10.8 -25.9 -6.95 -30.7 -4.05 -36.0 1.85 -36.2 L2.75 -36.2 3.5 -36.3 Q11.45 -37.35 16.8 -33.4 23.05 -28.75 25.8 -17.5 M-33.3 -17.2 L-33.2 -17.35 -32.85 -17.8 Q-30.45 -21.85 -26.0 -21.7 -22.0 -22.35 -20.2 -18.7 -18.25 -12.7 -22.1 -9.05 L-22.7 -8.55 Q-24.95 -6.65 -26.75 -3.3 L-26.8 -3.2 -27.15 -2.65 Q-29.15 1.25 -31.25 3.25 -40.95 -7.35 -33.3 -17.2" fill="#393524" fill-rule="evenodd" stroke="none"/>
      <path d="M22.4 -42.0 Q13.75 -47.65 3.2 -48.35 L0.0 -48.45 Q-17.55 -48.45 -30.05 -35.65 -42.55 -22.8 -42.55 -4.6 -42.55 8.0 -38.1 15.3 L-36.45 17.65 -33.6 20.5 -31.8 21.8 M27.55 -38.05 L26.85 -38.65 26.75 -38.75 Q24.65 -40.55 22.4 -42.0 M27.55 -38.05 L30.1 -35.65 Q42.55 -22.8 42.55 -4.6 42.55 10.15 32.05 17.5 L30.4 18.65 30.25 18.75 27.25 20.25 24.5 21.5 23.8 19.35 Q22.6 16.4 20.4 14.7 L20.35 14.7 Q17.25 12.1 12.3 11.15 L11.45 11.0 M11.45 10.95 L11.3 10.95 Q1.85 10.65 -0.55 11.05 L-1.1 11.1 M-1.15 10.95 L-2.9 11.45 Q-8.65 13.2 -10.1 13.85 -11.2 14.3 -12.15 14.9 -18.05 20.8 -17.8 21.3 -18.75 23.45 -18.9 26.15 L-18.9 26.4 -18.95 26.4 Q-26.75 24.95 -31.8 21.8 M-18.8 26.4 L-18.9 26.4 M25.8 -17.5 Q21.9 -16.4 15.75 -16.9 L14.7 -16.95 Q9.55 -17.25 5.65 -15.95 L4.65 -15.6 M1.85 -36.2 L2.75 -36.2 3.5 -36.3 Q11.45 -37.35 16.8 -33.4 23.05 -28.75 25.8 -17.5 M12.3 11.15 L11.45 10.95 M-33.3 -17.2 L-33.2 -17.35 -32.85 -17.8 Q-30.45 -21.85 -26.0 -21.7 -22.0 -22.35 -20.2 -18.7 -18.25 -12.7 -22.1 -9.05 L-22.7 -8.55 Q-24.95 -6.65 -26.75 -3.3 L-26.8 -3.2 -27.15 -2.65 Q-29.15 1.25 -31.25 3.25 M-0.55 11.05 L-1.15 10.95" fill="none" stroke="#000000" stroke-linecap="round" stroke-linejoin="round" stroke-opacity="0.3019608" stroke-width="0.05"/>
      <path d="M-31.25 3.25 Q-40.95 -7.35 -33.3 -17.2 M1.85 -36.2 Q-4.05 -36.0 -6.95 -30.7 -10.8 -25.9 -8.0 -20.7 -2.45 -13.6 4.65 -15.6" fill="none" stroke="#000000" stroke-linecap="round" stroke-linejoin="round" stroke-opacity="0.5019608" stroke-width="0.05"/>
      <path d="M35.35 -20.0 Q34.15 -21.3 33.35 -23.35 32.6 -25.4 32.6 -27.0 32.7 -28.35 33.7 -28.65 34.7 -28.8 35.65 -27.6 36.7 -26.3 37.45 -24.25 38.25 -22.2 38.35 -20.55 38.45 -18.95 37.5 -18.8 36.5 -18.5 35.35 -20.0" fill="#14140d" fill-rule="evenodd" stroke="none"/>
      <path d="M5.1 10.05 Q6.9 10.85 8.65 12.6 8.75 15.45 9.6 17.9 10.15 19.25 10.85 20.2 L10.9 20.35 Q12.05 22.05 13.5 22.45 L14.1 25.0 Q15.8 32.75 6.35 36.9 -3.1 41.05 -8.95 41.05 -12.25 41.05 -15.0 39.0 L-15.25 39.15 -15.65 38.45 Q-17.25 35.85 -18.1 33.0 -19.15 29.55 -19.0 25.75 -18.95 23.4 -18.45 21.55 L-17.5 19.25 -16.35 22.65 -15.25 25.0 -15.1 25.3 -14.9 25.55 Q-13.05 28.7 -11.25 28.7 -9.3 28.7 -8.6 25.3 -7.8 22.1 -8.65 17.35 L-8.8 16.65 -9.25 14.6 -9.8 12.9 -7.85 12.3 Q-7.3 16.0 -5.75 18.9 L-5.0 20.2 Q-2.7 23.9 -0.2 24.05 2.3 24.3 3.6 20.85 4.9 17.6 4.25 12.65 L3.9 11.0 3.75 10.15 5.1 10.05 M-12.85 14.35 L-12.85 14.25 -12.7 14.2 -12.85 14.35" fill="#ffffcc" fill-rule="evenodd" stroke="none"/>
      <path d="M5.1 10.05 L7.6 9.9 8.7 9.85 Q15.45 9.65 20.7 13.15 L20.85 13.25 Q21.2 13.45 21.45 13.75 L21.45 13.8 Q25.05 16.8 25.6 23.6 L25.7 26.75 25.7 26.8 Q25.45 36.25 18.75 42.95 12.1 49.5 2.85 49.35 -6.4 49.05 -12.8 42.25 L-15.25 39.15 -15.0 39.0 Q-12.25 41.05 -8.95 41.05 -3.1 41.05 6.35 36.9 15.8 32.75 14.1 25.0 L13.5 22.45 Q12.05 22.05 10.9 20.35 L10.85 20.2 Q10.15 19.25 9.6 17.9 8.75 15.45 8.65 12.6 6.9 10.85 5.1 10.05 M-17.5 19.25 Q-16.0 16.5 -12.85 14.35 L-12.7 14.2 -10.85 13.25 -9.8 12.9 -9.25 14.6 -8.8 16.65 -8.65 17.35 Q-7.8 22.1 -8.6 25.3 -9.3 28.7 -11.25 28.7 -13.05 28.7 -14.9 25.55 L-15.1 25.3 -15.25 25.0 -16.35 22.65 -17.5 19.25 M-7.85 12.3 L-6.9 12.0 -0.7 10.45 -0.6 10.4 3.75 10.15 3.9 11.0 4.25 12.65 Q4.9 17.6 3.6 20.85 2.3 24.3 -0.2 24.05 -2.7 23.9 -5.0 20.2 L-5.75 18.9 Q-7.3 16.0 -7.85 12.3" fill="#c7ba89" fill-rule="evenodd" stroke="none"/>
      <path d="M-15.25 39.15 L-12.8 42.25 Q-6.4 49.05 2.85 49.35 12.1 49.5 18.75 42.95 25.45 36.25 25.7 26.8 L25.7 26.75 25.6 23.6 Q25.05 16.8 21.45 13.8 L21.45 13.75 Q21.2 13.45 20.85 13.25 L20.7 13.15 Q15.45 9.65 8.7 9.85 L7.6 9.9 5.1 10.05 M-15.25 39.15 L-15.65 38.45 Q-17.25 35.85 -18.1 33.0 -19.15 29.55 -19.0 25.75 -18.95 23.4 -18.45 21.55 L-17.5 19.25 Q-16.0 16.5 -12.85 14.35 L-12.85 14.25 -12.7 14.2 -10.85 13.25 -9.8 12.9 -7.85 12.3 -6.9 12.0 -0.7 10.45 -0.6 10.4 3.75 10.15 5.1 10.05 M-12.85 14.35 L-12.7 14.2" fill="none" stroke="#000000" stroke-linecap="round" stroke-linejoin="round" stroke-opacity="0.3019608" stroke-width="0.05"/>
      <path d="M7.25 18.7 L7.2 18.55 Q6.5 17.6 5.95 16.25 4.6 12.45 5.1 7.6 L5.6 4.4 6.15 2.6 Q6.75 1.0 7.6 -0.2 9.65 -3.1 12.15 -2.4 14.6 -1.75 16.05 2.1 L16.3 2.65 16.4 5.25 Q16.4 10.3 13.9 14.3 11.25 18.55 7.35 18.55 L7.25 18.7 M-9.4 17.25 Q-11.05 14.15 -11.6 10.05 L-11.6 10.0 -11.8 8.15 Q-12.0 4.4 -10.95 1.7 L-10.4 0.55 Q-9.2 -1.55 -7.2 -1.4 -5.6 -1.25 -4.15 0.15 -3.2 1.0 -2.4 2.35 L-1.5 3.95 Q-1.15 5.25 -1.15 6.65 -1.15 10.35 -2.45 13.6 -4.1 17.8 -7.05 17.8 -8.15 17.8 -9.4 17.25 M-18.55 23.9 L-18.75 23.65 -18.9 23.35 -20.0 21.0 Q-21.0 18.7 -21.55 15.7 L-21.9 13.15 Q-22.15 10.0 -21.65 7.6 -20.95 4.3 -19.0 4.3 -17.75 4.3 -16.4 5.8 L-15.15 7.6 -14.4 9.0 -14.3 10.65 Q-14.3 15.85 -14.65 18.1 -15.6 23.65 -18.55 23.9" fill="#ffffcc" fill-rule="evenodd" stroke="none"/>
      <path d="M16.3 2.65 L17.0 5.95 17.25 8.05 17.1 10.85 Q16.65 15.7 14.45 18.55 12.45 21.45 9.9 20.8 8.4 20.4 7.25 18.7 L7.35 18.55 Q11.25 18.55 13.9 14.3 16.4 10.3 16.4 5.25 L16.3 2.65 M-1.5 3.95 Q-0.7 5.55 -0.2 7.5 L0.25 9.35 0.6 11.0 Q1.25 15.95 -0.05 19.2 -1.35 22.65 -3.85 22.4 -6.35 22.25 -8.65 18.55 L-9.4 17.25 Q-8.15 17.8 -7.05 17.8 -4.1 17.8 -2.45 13.6 -1.15 10.35 -1.15 6.65 -1.15 5.25 -1.5 3.95 M-18.55 23.9 Q-15.6 23.65 -14.65 18.1 -14.3 15.85 -14.3 10.65 L-14.4 9.0 -12.9 12.95 -12.45 15.0 -12.3 15.7 Q-11.45 20.45 -12.25 23.65 -12.95 27.05 -14.9 27.05 -16.7 27.05 -18.55 23.9" fill="#847951" fill-rule="evenodd" stroke="none"/>
      <path d="M7.25 18.7 L7.2 18.55 Q6.5 17.6 5.95 16.25 4.6 12.45 5.1 7.6 L5.6 4.4 6.15 2.6 Q6.75 1.0 7.6 -0.2 9.65 -3.1 12.15 -2.4 14.6 -1.75 16.05 2.1 L16.3 2.65 M-9.4 17.25 Q-11.05 14.15 -11.6 10.05 L-11.6 10.0 -11.8 8.15 Q-12.0 4.4 -10.95 1.7 L-10.4 0.55 Q-9.2 -1.55 -7.2 -1.4 -5.6 -1.25 -4.15 0.15 -3.2 1.0 -2.4 2.35 L-1.5 3.95 M-14.4 9.0 L-15.15 7.6 -16.4 5.8 Q-17.75 4.3 -19.0 4.3 -20.95 4.3 -21.65 7.6 -22.15 10.0 -21.9 13.15 L-21.55 15.7 Q-21.0 18.7 -20.0 21.0 L-18.9 23.35 -18.75 23.65 -18.55 23.9" fill="none" stroke="#000000" stroke-linecap="round" stroke-linejoin="round" stroke-opacity="0.3019608" stroke-width="0.05"/>
      <path d="M16.3 2.65 L17.0 5.95 17.25 8.05 17.1 10.85 Q16.65 15.7 14.45 18.55 12.45 21.45 9.9 20.8 8.4 20.4 7.25 18.7 M-1.5 3.95 Q-0.7 5.55 -0.2 7.5 L0.25 9.35 0.6 11.0 Q1.25 15.95 -0.05 19.2 -1.35 22.65 -3.85 22.4 -6.35 22.25 -8.65 18.55 L-9.4 17.25 M-14.4 9.0 L-12.9 12.95 -12.45 15.0 -12.3 15.7 Q-11.45 20.45 -12.25 23.65 -12.95 27.05 -14.9 27.05 -16.7 27.05 -18.55 23.9" fill="none" stroke="#000000" stroke-linecap="round" stroke-linejoin="round" stroke-opacity="0.39215687" stroke-width="0.05"/>
      <path d="M-14.4 -13.25 L-12.0 -3.7 -13.1 -3.0 Q-14.25 -2.6 -15.25 -3.5 -16.2 -4.4 -16.5 -5.95 -16.85 -7.45 -16.4 -8.85 L-14.4 -13.25" fill="#847951" fill-rule="evenodd" stroke="none"/>
      <path d="M-12.9 -13.4 Q-10.95 -7.6 -10.1 -4.1 L-8.55 -4.3 Q-7.1 -4.85 -6.55 -6.3 -6.05 -7.7 -6.55 -9.15 -7.05 -10.6 -8.35 -11.4 L-12.9 -13.4" fill="#847951" fill-rule="evenodd" stroke="none"/>
    </g>
    <g id="shape3" transform="matrix(1.0, 0.0, 0.0, 1.0, 23.2, 23.4)">
      <path d="M25.05 2.85 L22.1 6.1 Q19.25 8.75 16.05 11.0 14.45 12.0 12.75 11.85 L9.25 11.2 9.25 10.4 Q12.5 10.9 15.7 10.4 16.8 10.15 17.7 9.45 L24.25 2.15 25.05 2.85" fill="#473d16" fill-rule="evenodd" stroke="none"/>
      <path d="M25.05 2.85 L22.1 6.1 Q19.25 8.75 16.05 11.0 14.45 12.0 12.75 11.85 L9.25 11.2 M9.25 10.4 Q12.5 10.9 15.7 10.4 16.8 10.15 17.7 9.45 L24.25 2.15" fill="none" stroke="#000000" stroke-linecap="round" stroke-linejoin="round" stroke-opacity="0.3019608" stroke-width="0.5"/>
      <path d="M27.9 20.25 L27.95 20.25 28.05 20.3 27.9 20.25" fill="#000000" fill-opacity="0.3019608" fill-rule="evenodd" stroke="none"/>
      <path d="M29.1 11.35 L28.95 11.55 28.95 11.5 29.1 11.35" fill="#b3a77b" fill-rule="evenodd" stroke="none"/>
      <path d="M30.1 -2.1 L30.65 -3.4 Q31.0 -5.1 28.55 -6.05 L28.25 -6.15 22.3 -5.95 Q20.5 -5.35 19.25 -4.25 L18.9 -3.95 18.25 -3.25 17.6 -2.4 Q16.05 0.2 16.85 2.6 17.75 5.05 20.55 6.05 22.9 6.8 23.75 5.3 L24.05 4.5 24.7 3.0 24.95 2.65 Q25.7 1.45 27.15 0.45 L27.45 0.2 Q29.25 -0.95 30.1 -2.1 M22.9 21.15 L22.15 21.15 20.75 21.0 19.8 20.7 Q17.0 19.7 14.25 16.25 10.3 11.3 10.9 5.05 11.5 -1.15 16.3 -4.95 L17.15 -5.65 Q20.2 -7.75 23.8 -8.1 L24.1 -8.1 25.35 -8.15 25.8 -8.15 26.05 -8.15 29.5 -6.35 31.5 -4.5 Q34.4 -0.85 32.65 2.55 L29.75 6.95 28.55 8.6 26.85 10.35 Q25.55 12.05 25.05 13.6 24.5 15.15 24.95 16.65 L24.85 16.55 24.9 16.8 Q25.2 17.45 25.1 17.95 25.05 19.5 23.85 20.5 L22.9 21.15 M27.4 19.5 L27.45 19.55 27.45 19.6 27.4 19.5 M18.85 10.6 L19.25 9.5 19.45 8.95 Q19.75 7.7 18.3 6.9 16.45 5.9 14.95 6.65 13.35 7.4 12.9 9.55 L12.85 10.15 12.8 10.95 12.85 11.25 12.85 11.3 Q12.9 12.5 13.5 13.75 14.5 16.0 16.3 16.95 L18.7 16.9 19.0 15.95 18.85 13.45 18.85 13.25 18.85 13.2 Q18.6 11.9 18.8 10.85 L18.85 10.6" fill="#ffffcc" fill-rule="evenodd" stroke="none"/>
      <path d="M30.1 -2.1 Q26.9 -4.6 24.15 -4.5 21.8 -4.45 19.9 -2.4 L19.7 -2.25 19.45 -2.05 Q18.95 -2.05 18.6 -2.5 18.35 -2.8 18.25 -3.25 L18.9 -3.95 19.25 -4.25 Q20.5 -5.35 22.3 -5.95 L28.25 -6.15 28.55 -6.05 Q31.0 -5.1 30.65 -3.4 L30.1 -2.1 M22.9 21.15 L23.85 20.5 Q25.05 19.5 25.1 17.95 25.2 17.45 24.9 16.8 L24.85 16.55 24.95 16.65 Q24.5 15.15 25.05 13.6 25.55 12.05 26.85 10.35 L28.55 8.6 29.75 6.95 32.65 2.55 Q34.4 -0.85 31.5 -4.5 L29.5 -6.35 26.05 -8.15 27.3 -8.05 Q33.5 -7.2 37.45 -2.25 40.65 1.75 39.4 6.0 39.35 5.75 37.7 4.75 36.05 3.65 32.85 6.8 29.65 9.8 28.85 11.4 L28.85 11.45 28.95 11.5 28.55 12.0 27.1 14.25 26.8 14.95 Q26.5 17.85 26.65 17.95 26.85 18.75 27.4 19.5 L27.45 19.6 Q25.0 20.9 22.9 21.15 M25.35 -8.15 L24.1 -8.1 23.8 -8.1 25.35 -8.15 M26.05 -8.15 L25.9 -8.2 Q26.9 -8.25 26.05 -8.15 M12.85 10.15 L12.9 9.55 Q13.35 7.4 14.95 6.65 16.45 5.9 18.3 6.9 19.75 7.7 19.45 8.95 L19.25 9.5 18.85 10.6 Q19.1 8.8 17.3 7.55 16.0 6.95 15.0 8.0 13.8 8.95 14.0 10.55 L14.0 10.75 14.0 10.8 Q13.3 10.85 13.0 10.5 L12.85 10.15" fill="#c7ba89" fill-rule="evenodd" stroke="none"/>
      <path d="M28.95 11.5 L28.85 11.45 28.85 11.4 28.95 11.5" fill="#baab70" fill-rule="evenodd" stroke="none"/>
      <path d="M18.25 -3.25 Q18.35 -2.8 18.6 -2.5 18.95 -2.05 19.45 -2.05 17.9 -0.65 18.25 1.35 18.25 3.55 20.15 4.35 23.25 5.1 24.7 3.0 L24.05 4.5 23.75 5.3 Q22.9 6.8 20.55 6.05 17.75 5.05 16.85 2.6 16.05 0.2 17.6 -2.4 L18.25 -3.25 M39.4 6.0 L39.2 6.75 38.7 7.8 38.25 8.75 37.55 8.35 Q36.55 7.8 35.6 7.8 34.2 7.8 32.65 8.6 L32.35 8.75 32.35 8.8 Q29.65 10.75 29.1 11.35 L28.95 11.5 28.85 11.4 Q29.65 9.8 32.85 6.8 36.05 3.65 37.7 4.75 39.35 5.75 39.4 6.0 M19.0 15.95 L18.7 16.9 16.3 16.95 Q14.5 16.0 13.5 13.75 12.9 12.5 12.85 11.3 L12.85 11.25 12.8 10.95 12.85 10.15 13.0 10.5 Q13.3 10.85 14.0 10.8 14.1 15.15 19.0 15.95" fill="#847951" fill-rule="evenodd" stroke="none"/>
      <path d="M19.45 -2.05 L19.7 -2.25 19.9 -2.4 Q21.8 -4.45 24.15 -4.5 26.9 -4.6 30.1 -2.1 29.25 -0.95 27.45 0.2 L27.15 0.45 Q25.7 1.45 24.95 2.65 L24.7 3.0 Q23.25 5.1 20.15 4.35 18.25 3.55 18.25 1.35 17.9 -0.65 19.45 -2.05 M18.85 10.6 L18.8 10.85 Q18.6 11.9 18.85 13.2 L18.85 13.25 18.85 13.45 19.0 15.95 Q14.1 15.15 14.0 10.8 L14.0 10.75 14.0 10.55 Q13.8 8.95 15.0 8.0 16.0 6.95 17.3 7.55 19.1 8.8 18.85 10.6" fill="#393524" fill-rule="evenodd" stroke="none"/>
      <path d="M19.45 -2.05 L19.7 -2.25 19.9 -2.4 Q21.8 -4.45 24.15 -4.5 26.9 -4.6 30.1 -2.1 M24.7 3.0 L24.95 2.65 Q25.7 1.45 27.15 0.45 L27.45 0.2 Q29.25 -0.95 30.1 -2.1 M23.8 -8.1 Q20.2 -7.75 17.15 -5.65 L16.3 -4.95 Q11.5 -1.15 10.9 5.05 10.3 11.3 14.25 16.25 17.0 19.7 19.8 20.7 L20.75 21.0 22.15 21.15 22.9 21.15 M26.05 -8.15 L25.8 -8.15 25.35 -8.15 M23.8 -8.1 L25.35 -8.15 M26.05 -8.15 L27.3 -8.05 Q33.5 -7.2 37.45 -2.25 40.65 1.75 39.4 6.0 L39.2 6.75 38.7 7.8 38.25 8.75 37.55 8.35 Q36.55 7.8 35.6 7.8 34.2 7.8 32.65 8.6 L32.35 8.75 32.35 8.8 Q29.65 10.75 29.1 11.35 L28.95 11.55 M28.95 11.5 L28.55 12.0 27.1 14.25 26.8 14.95 Q26.5 17.85 26.65 17.95 26.85 18.75 27.4 19.5 L27.45 19.55 27.45 19.6 Q25.0 20.9 22.9 21.15 M29.1 11.35 L28.95 11.5 M18.85 10.6 L18.8 10.85 Q18.6 11.9 18.85 13.2 L18.85 13.25 18.85 13.45 19.0 15.95 M14.0 10.8 L14.0 10.75 14.0 10.55 Q13.8 8.95 15.0 8.0 16.0 6.95 17.3 7.55 19.1 8.8 18.85 10.6" fill="none" stroke="#000000" stroke-linecap="round" stroke-linejoin="round" stroke-opacity="0.3019608" stroke-width="0.05"/>
      <path d="M19.45 -2.05 Q17.9 -0.65 18.25 1.35 18.25 3.55 20.15 4.35 23.25 5.1 24.7 3.0 M19.0 15.95 Q14.1 15.15 14.0 10.8" fill="none" stroke="#000000" stroke-linecap="round" stroke-linejoin="round" stroke-opacity="0.5019608" stroke-width="0.05"/>
      <path d="M32.15 -4.9 Q31.5 -5.0 30.85 -5.4 L29.85 -6.2 Q29.55 -6.65 29.75 -6.9 L30.55 -7.05 31.75 -6.55 32.8 -5.75 Q33.2 -5.3 32.95 -5.05 L32.15 -4.9" fill="#14140d" fill-rule="evenodd" stroke="none"/>
      <path d="M30.45 9.9 L31.95 9.8 33.35 11.05 34.2 11.4 34.25 11.45 35.45 11.4 36.15 12.0 Q38.3 13.75 36.65 16.9 34.95 20.15 33.35 21.4 32.45 22.1 31.25 22.15 L31.25 22.25 31.0 22.15 29.1 21.2 27.25 19.45 26.5 18.15 26.3 17.3 27.35 18.0 28.15 18.35 28.25 18.45 28.35 18.45 30.05 18.55 Q30.55 18.15 30.0 17.0 29.5 16.0 28.3 14.9 L28.1 14.7 27.55 14.25 27.0 13.9 27.4 13.3 29.4 14.65 29.9 14.85 Q31.3 15.35 32.05 14.85 32.8 14.4 32.4 13.15 32.05 12.0 30.75 10.75 L30.3 10.4 30.05 10.2 30.45 9.9 M26.5 14.95 L26.45 14.95 26.5 14.85 26.5 14.95" fill="#ffffcc" fill-rule="evenodd" stroke="none"/>
      <path d="M30.45 9.9 L31.05 9.3 31.35 9.05 Q33.15 7.55 35.35 7.35 L35.45 7.3 35.7 7.35 Q37.35 7.4 39.0 9.1 L39.7 9.95 Q41.7 12.6 41.3 15.85 40.95 19.1 38.4 21.1 35.8 23.05 32.55 22.6 L31.25 22.25 31.25 22.15 Q32.45 22.1 33.35 21.4 34.95 20.15 36.65 16.9 38.3 13.75 36.15 12.0 L35.45 11.4 34.25 11.45 34.2 11.4 33.35 11.05 31.95 9.8 30.45 9.9 M26.3 17.3 Q26.1 16.25 26.5 14.95 L26.5 14.85 26.8 14.2 27.0 13.9 27.55 14.25 28.1 14.7 28.3 14.9 Q29.5 16.0 30.0 17.0 30.55 18.15 30.05 18.55 L28.35 18.45 28.25 18.45 28.15 18.35 27.35 18.0 26.3 17.3 M27.4 13.3 L27.55 13.0 28.95 11.25 30.05 10.2 30.3 10.4 30.75 10.75 Q32.05 12.0 32.4 13.15 32.8 14.4 32.05 14.85 31.3 15.35 29.9 14.85 L29.4 14.65 27.4 13.3" fill="#c7ba89" fill-rule="evenodd" stroke="none"/>
      <path d="M31.25 22.25 L32.55 22.6 Q35.8 23.05 38.4 21.1 40.95 19.1 41.3 15.85 41.7 12.6 39.7 9.95 L39.0 9.1 Q37.35 7.4 35.7 7.35 L35.45 7.3 35.35 7.35 Q33.15 7.55 31.35 9.05 L31.05 9.3 30.45 9.9 M31.25 22.25 L31.0 22.15 29.1 21.2 27.25 19.45 26.5 18.15 26.3 17.3 Q26.1 16.25 26.5 14.95 L26.45 14.95 26.5 14.85 26.8 14.2 27.0 13.9 27.4 13.3 27.55 13.0 28.95 11.25 30.05 10.2 30.45 9.9 M26.5 14.95 L26.5 14.85" fill="none" stroke="#000000" stroke-linecap="round" stroke-linejoin="round" stroke-opacity="0.3019608" stroke-width="0.05"/>
      <path d="M32.9 11.75 L32.85 11.75 Q32.45 11.65 32.0 11.4 30.8 10.65 29.9 9.2 L29.35 8.25 29.1 7.6 28.85 6.55 Q28.8 5.3 29.65 4.95 30.45 4.55 31.7 5.3 L31.9 5.4 32.45 6.15 Q33.55 7.5 33.75 9.1 33.95 10.85 32.9 11.7 L32.9 11.75 M28.05 15.0 Q26.95 14.5 25.9 13.55 L25.45 13.0 Q24.55 12.05 24.2 11.1 L24.1 10.65 Q24.0 9.85 24.6 9.4 L25.75 9.2 26.7 9.4 27.3 9.7 28.0 10.3 Q28.8 11.3 29.15 12.5 29.65 14.0 28.85 14.65 L28.05 15.0 M27.0 18.8 L26.9 18.8 26.8 18.7 25.95 18.35 24.35 17.25 23.75 16.6 Q23.0 15.8 22.6 15.0 22.1 13.95 22.6 13.55 L23.65 13.4 24.35 13.6 24.85 13.85 25.25 14.25 26.8 16.4 Q27.75 18.1 27.0 18.8" fill="#ffffcc" fill-rule="evenodd" stroke="none"/>
      <path d="M31.9 5.4 L32.8 6.15 33.3 6.7 33.85 7.5 Q34.8 8.9 34.85 10.15 34.9 11.4 34.1 11.75 33.6 11.95 32.9 11.75 L32.9 11.7 Q33.95 10.85 33.75 9.1 33.55 7.5 32.45 6.15 L31.9 5.4 M27.3 9.7 L28.45 10.35 28.95 10.75 29.4 11.1 Q30.65 12.35 31.05 13.5 31.45 14.75 30.7 15.2 29.95 15.7 28.55 15.2 L28.05 15.0 28.85 14.65 Q29.65 14.0 29.15 12.5 28.8 11.3 28.0 10.3 L27.3 9.7 M27.0 18.8 Q27.75 18.1 26.8 16.4 L25.25 14.25 24.85 13.85 Q25.5 14.15 26.15 14.6 L26.7 15.05 26.9 15.25 Q28.2 16.35 28.65 17.35 29.2 18.45 28.7 18.9 L27.0 18.8" fill="#847951" fill-rule="evenodd" stroke="none"/>
      <path d="M32.9 11.75 L32.85 11.75 Q32.45 11.65 32.0 11.4 30.8 10.65 29.9 9.2 L29.35 8.25 29.1 7.6 28.85 6.55 Q28.8 5.3 29.65 4.95 30.45 4.55 31.7 5.3 L31.9 5.4 M28.05 15.0 Q26.95 14.5 25.9 13.55 L25.45 13.0 Q24.55 12.05 24.2 11.1 L24.1 10.65 Q24.0 9.85 24.6 9.4 L25.75 9.2 26.7 9.4 27.3 9.7 M24.85 13.85 L24.35 13.6 23.65 13.4 22.6 13.55 Q22.1 13.95 22.6 15.0 23.0 15.8 23.75 16.6 L24.35 17.25 25.95 18.35 26.8 18.7 26.9 18.8 27.0 18.8" fill="none" stroke="#000000" stroke-linecap="round" stroke-linejoin="round" stroke-opacity="0.3019608" stroke-width="0.05"/>
      <path d="M31.9 5.4 L32.8 6.15 33.3 6.7 33.85 7.5 Q34.8 8.9 34.85 10.15 34.9 11.4 34.1 11.75 33.6 11.95 32.9 11.75 M27.3 9.7 L28.45 10.35 28.95 10.75 29.4 11.1 Q30.65 12.35 31.05 13.5 31.45 14.75 30.7 15.2 29.95 15.7 28.55 15.2 L28.05 15.0 M24.85 13.85 Q25.5 14.15 26.15 14.6 L26.7 15.05 26.9 15.25 Q28.2 16.35 28.65 17.35 29.2 18.45 28.7 18.9 L27.0 18.8" fill="none" stroke="#000000" stroke-linecap="round" stroke-linejoin="round" stroke-opacity="0.39215687" stroke-width="0.05"/>
      <path d="M20.0 7.75 L22.75 9.9 22.6 10.3 Q22.4 10.65 21.9 10.65 L21.0 10.25 20.45 9.45 20.0 7.75" fill="#847951" fill-rule="evenodd" stroke="none"/>
      <path d="M20.4 7.35 Q22.2 8.55 23.2 9.3 L23.55 8.85 Q23.85 8.4 23.65 7.95 L23.0 7.15 22.05 6.95 20.4 7.35" fill="#847951" fill-rule="evenodd" stroke="none"/>
      <path d="M1.6 -19.4 Q-3.2 -20.35 -7.9 -18.7 -7.9 -15.9 -4.35 -16.25 -0.3 -16.1 1.65 -19.05 L1.6 -19.4 M29.1 -4.2 L29.05 -4.65 Q28.8 -9.45 24.95 -12.4 L18.6 -16.95 Q14.25 -19.95 8.95 -21.55 4.15 -23.0 -0.8 -22.2 L-4.4 -21.3 Q-6.05 -20.8 -7.2 -19.75 L0.6 -20.1 2.2 -19.8 Q2.75 -17.95 0.65 -16.95 -3.35 -15.05 -7.25 -16.45 -8.55 -16.8 -8.6 -18.05 L-8.7 -18.6 Q-15.05 -15.65 -19.4 -10.45 L-21.0 -8.1 Q-23.6 -3.05 -20.95 1.4 L-20.55 2.0 -21.45 2.35 -22.05 1.05 Q-24.25 -4.3 -21.0 -9.7 L-20.3 -10.85 Q-17.0 -14.5 -12.7 -17.15 -8.5 -19.75 -3.95 -21.8 -2.1 -22.6 -0.05 -22.95 4.85 -23.55 9.5 -22.2 14.3 -20.7 18.35 -18.0 L25.8 -12.85 Q27.85 -11.3 28.95 -8.75 29.9 -6.55 30.1 -4.15 L29.1 -4.2" fill="#473d16" fill-rule="evenodd" stroke="none"/>
      <path d="M1.6 -19.4 Q-3.2 -20.35 -7.9 -18.7 -7.9 -15.9 -4.35 -16.25 -0.3 -16.1 1.65 -19.05 L1.6 -19.4 M29.1 -4.2 L29.05 -4.65 Q28.8 -9.45 24.95 -12.4 L18.6 -16.95 Q14.25 -19.95 8.95 -21.55 4.15 -23.0 -0.8 -22.2 L-4.4 -21.3 Q-6.05 -20.8 -7.2 -19.75 L0.6 -20.1 2.2 -19.8 Q2.75 -17.95 0.65 -16.95 -3.35 -15.05 -7.25 -16.45 -8.55 -16.8 -8.6 -18.05 L-8.7 -18.6 Q-15.05 -15.65 -19.4 -10.45 L-21.0 -8.1 Q-23.6 -3.05 -20.95 1.4 L-20.55 2.0 M-21.45 2.35 L-22.05 1.05 Q-24.25 -4.3 -21.0 -9.7 L-20.3 -10.85 Q-17.0 -14.5 -12.7 -17.15 -8.5 -19.75 -3.95 -21.8 -2.1 -22.6 -0.05 -22.95 4.85 -23.55 9.5 -22.2 14.3 -20.7 18.35 -18.0 L25.8 -12.85 Q27.85 -11.3 28.95 -8.75 29.9 -6.55 30.1 -4.15" fill="none" stroke="#000000" stroke-linecap="round" stroke-linejoin="round" stroke-opacity="0.3019608" stroke-width="0.5"/>
      <path d="M30.45 -3.3 L29.2 -3.4 Q28.5 -3.6 28.05 -3.95 27.65 -4.2 27.75 -4.55 27.85 -4.9 28.35 -5.0 L29.6 -4.85 30.75 -4.35 Q31.2 -4.0 31.1 -3.65 31.0 -3.3 30.45 -3.3" fill="#14140d" fill-rule="evenodd" stroke="none"/>
      <path d="M9.35 12.35 L8.85 11.2 8.8 9.95 Q8.9 9.5 9.25 9.4 L9.85 9.75 10.3 10.9 10.4 12.15 10.0 12.75 Q9.65 12.85 9.35 12.35" fill="#14140d" fill-rule="evenodd" stroke="none"/>
    </g>
  </defs>
</svg>
