<?xml version="1.0" encoding="UTF-8" standalone="no"?>
<svg xmlns:xlink="http://www.w3.org/1999/xlink" height="440.0px" width="440.0px" xmlns="http://www.w3.org/2000/svg">
  <g transform="matrix(10.0, 0.0, 0.0, 10.0, 0.0, 0.0)">
    <use height="44.0" transform="matrix(1.0, 0.0, 0.0, 1.0, 0.0, 0.0)" width="44.0" xlink:href="#shape0"/>
  </g>
  <defs>
    <g id="shape0" transform="matrix(1.0, 0.0, 0.0, 1.0, 0.0, 0.0)">
      <path d="M44.0 44.0 L0.0 44.0 0.0 0.0 44.0 0.0 44.0 44.0" fill="#43adca" fill-opacity="0.0" fill-rule="evenodd" stroke="none"/>
      <path d="M6.15 14.35 Q4.05 13.0 4.6 11.35 L4.65 11.2 Q5.35 9.45 7.4 8.45 9.65 7.2 12.5 7.55 14.5 7.75 16.2 8.75 L17.25 9.45 Q13.0 9.6 16.75 15.1 L15.6 14.3 Q13.9 13.35 11.9 13.15 9.05 12.8 6.8 14.0 6.4 14.2 6.15 14.35 M33.35 14.75 L33.4 14.75 37.05 14.95 Q39.25 15.2 40.3 16.0 40.95 16.55 41.1 17.2 41.2 17.7 40.9 18.3 40.15 20.05 37.8 20.75 L36.4 20.55 33.85 20.4 Q27.9 18.0 33.35 14.75" fill="#151a26" fill-rule="evenodd" stroke="none"/>
      <path d="M3.9 14.3 Q3.45 13.45 3.55 12.45 3.8 10.2 5.35 8.7 6.7 7.35 8.9 6.95 L12.6 6.65 Q14.6 6.85 16.3 7.85 L19.3 9.95 Q23.65 13.0 30.0 13.65 L33.5 13.85 37.15 14.05 37.2 14.05 37.95 14.15 Q39.25 14.2 40.6 15.05 42.45 16.15 42.3 17.65 42.2 18.55 41.25 19.9 L40.65 20.55 40.55 20.65 40.25 20.9 40.2 20.95 39.75 21.3 Q38.6 22.2 37.85 22.45 L35.45 22.75 32.0 22.85 27.2 22.6 22.7 22.0 22.4 21.95 22.15 21.9 21.4 21.7 20.4 21.4 18.15 20.7 Q16.85 20.35 13.2 18.85 L9.95 17.65 6.9 16.55 4.9 15.4 3.9 14.3 M17.25 9.45 L16.2 8.75 Q14.5 7.75 12.5 7.55 9.65 7.2 7.4 8.45 5.35 9.45 4.65 11.2 L4.6 11.35 Q4.05 13.0 6.15 14.35 L7.2 14.95 14.7 18.05 Q21.85 20.95 29.15 21.15 L29.75 21.2 29.4 21.15 34.6 21.3 37.8 20.75 Q40.15 20.05 40.9 18.3 41.2 17.7 41.1 17.2 40.95 16.55 40.3 16.0 39.25 15.2 37.05 14.95 L33.4 14.75 33.35 14.75 29.9 14.55 Q23.55 13.9 19.2 10.85 L17.25 9.45" fill="#fe1a1a" fill-rule="evenodd" stroke="none"/>
      <path d="M16.75 15.1 Q13.0 9.6 17.25 9.45 L19.2 10.85 Q23.55 13.9 29.9 14.55 L33.35 14.75 Q27.9 18.0 33.85 20.4 L32.8 20.35 29.25 20.15 Q22.9 19.5 18.6 16.45 L16.75 15.1" fill="#485069" fill-rule="evenodd" stroke="none"/>
      <path d="M22.4 21.95 L22.7 22.0 27.2 22.6 32.0 22.85 35.45 22.75 37.85 22.45 Q38.6 22.2 39.75 21.3 L40.2 20.95 40.25 20.9 40.55 20.65 40.65 20.55 40.55 20.7 40.25 21.0 39.8 21.65 38.85 23.35 38.55 24.1 38.35 24.4 38.15 24.8 37.95 26.55 38.05 26.55 38.45 25.65 39.15 24.8 39.8 25.25 39.75 25.95 Q39.65 26.9 38.3 27.8 L36.75 28.55 36.1 28.55 34.35 28.45 Q30.55 28.05 27.65 28.35 L24.0 28.45 21.45 28.4 22.35 28.3 26.8 27.9 Q30.45 27.7 30.25 26.85 30.0 26.1 22.95 24.95 27.3 25.0 28.05 24.3 28.9 23.35 25.65 22.65 L22.4 21.95 M19.85 24.1 L18.35 23.6 18.0 23.5 18.4 23.55 19.85 24.1" fill="#a90101" fill-rule="evenodd" stroke="none"/>
      <path d="M40.25 21.0 L39.95 21.85 40.2 24.0 40.2 24.05 Q40.5 26.0 40.25 26.35 L39.1 27.75 Q38.5 28.45 36.75 28.55 L38.3 27.8 Q39.65 26.9 39.75 25.95 L39.8 25.25 39.15 24.8 38.45 25.65 38.05 26.55 37.95 26.55 38.15 24.8 38.35 24.4 38.55 24.1 38.85 23.35 39.8 21.65 40.25 21.0" fill="#820101" fill-rule="evenodd" stroke="none"/>
      <path d="M3.9 14.3 L4.9 15.4 6.9 16.55 9.95 17.65 13.2 18.85 Q16.85 20.35 18.15 20.7 L20.4 21.4 21.4 21.7 22.15 21.9 22.4 21.95 25.65 22.65 Q28.9 23.35 28.05 24.3 27.3 25.0 22.95 24.95 30.0 26.1 30.25 26.85 30.45 27.7 26.8 27.9 L22.35 28.3 21.45 28.4 21.05 28.35 19.7 28.25 Q14.65 27.9 10.15 25.15 L5.3 21.95 Q4.75 21.45 4.65 20.0 L4.65 19.3 4.85 17.65 4.35 16.05 3.9 14.3 M19.85 24.1 L18.4 23.55 18.0 23.5 18.35 23.6 19.85 24.1 M5.7 20.5 L4.85 17.65 5.7 20.5" fill="#cc3300" fill-rule="evenodd" stroke="none"/>
      <path d="M41.25 19.9 Q42.2 18.55 42.3 17.65 42.45 16.15 40.6 15.05 39.25 14.2 37.95 14.15 L37.2 14.05 37.15 14.05 33.5 13.85 30.0 13.65 Q23.65 13.0 19.3 9.95 L16.3 7.85 Q14.6 6.85 12.6 6.65 L8.9 6.95 Q6.7 7.35 5.35 8.7 3.8 10.2 3.55 12.45 3.45 13.45 3.9 14.3 L4.9 15.4 6.9 16.55 9.95 17.65 13.2 18.85 M17.25 9.45 L16.2 8.75 Q14.5 7.75 12.5 7.55 9.65 7.2 7.4 8.45 5.35 9.45 4.65 11.2 L4.6 11.35 Q4.05 13.0 6.15 14.35 6.4 14.2 6.8 14.0 9.05 12.8 11.9 13.15 13.9 13.35 15.6 14.3 L16.75 15.1 M17.25 9.45 L19.2 10.85 Q23.55 13.9 29.9 14.55 L33.35 14.75 33.4 14.75 37.05 14.95 Q39.25 15.2 40.3 16.0 40.95 16.55 41.1 17.2 41.2 17.7 40.9 18.3 40.15 20.05 37.8 20.75 L34.6 21.3 29.4 21.15 29.75 21.2 29.15 21.15 Q21.85 20.95 14.7 18.05 L7.2 14.95 6.15 14.35 M29.4 21.15 L28.75 21.15 29.15 21.15 29.4 21.15 M33.85 20.4 L32.8 20.35 29.25 20.15 Q22.9 19.5 18.6 16.45 L16.75 15.1 M40.65 20.55 L40.55 20.7 40.25 21.0 39.95 21.85 40.2 24.0 40.2 24.05 Q40.5 26.0 40.25 26.35 L39.1 27.75 Q38.5 28.45 36.75 28.55 M36.1 28.55 L34.35 28.45 Q30.55 28.05 27.65 28.35 L24.0 28.45 21.45 28.4 21.05 28.35 19.7 28.25 Q14.65 27.9 10.15 25.15 L5.3 21.95 Q4.75 21.45 4.65 20.0 L4.65 19.3 4.85 17.65 4.35 16.05 3.9 14.3 M40.25 21.0 L39.8 21.65 38.85 23.35 38.55 24.1 38.35 24.4 M33.85 20.4 L36.4 20.55 37.8 20.75 M4.85 17.65 L5.7 20.5" fill="none" stroke="#000000" stroke-linecap="round" stroke-linejoin="round" stroke-opacity="0.3019608" stroke-width="0.05"/>
      <path d="M40.65 20.55 L41.25 19.9 Z" fill="none" stroke="#00ff00" stroke-linecap="round" stroke-linejoin="round" stroke-width="0.05"/>
      <path d="M18.75 21.6 L22.85 13.6 23.25 13.35 22.15 23.0 18.9 21.75 18.75 21.6" fill="#666666" fill-rule="evenodd" stroke="none"/>
      <path d="M18.75 21.6 L16.95 19.85 22.85 13.6 18.75 21.6" fill="#cccccc" fill-rule="evenodd" stroke="none"/>
      <path d="M22.85 13.6 L16.95 19.85 18.75 21.6 M22.85 13.6 L23.25 13.35 22.15 23.0 18.9 21.75 18.75 21.6" fill="none" stroke="#000000" stroke-linecap="round" stroke-linejoin="round" stroke-opacity="0.15294118" stroke-width="0.05"/>
      <path d="M16.6 12.1 L16.4 20.5 13.8 20.45 16.2 11.25 16.6 12.1" fill="#cccccc" fill-rule="evenodd" stroke="none"/>
      <path d="M16.6 12.1 L19.0 18.65 17.15 20.5 16.4 20.5 16.6 12.1" fill="#5e5e5e" fill-rule="evenodd" stroke="none"/>
      <path d="M16.4 20.5 L17.15 20.5 19.0 18.65 16.6 12.1 M16.4 20.5 L13.8 20.45 16.2 11.25 16.6 12.1" fill="none" stroke="#000000" stroke-linecap="round" stroke-linejoin="round" stroke-opacity="0.15294118" stroke-width="0.05"/>
      <path d="M10.9 28.25 L11.2 28.1 11.5 27.75 10.9 28.25 M16.2 25.3 Q15.8 28.1 14.85 29.85 13.6 32.2 12.2 32.9 11.1 33.45 8.2 34.0 L7.3 34.15 Q6.35 33.9 8.05 30.7 8.4 30.0 8.9 29.45 6.4 30.95 4.85 32.85 L4.25 33.55 Q6.15 25.5 15.35 25.2 L16.2 25.3" fill="#910101" fill-rule="evenodd" stroke="none"/>
      <path d="M10.9 28.25 L11.5 27.75 11.2 28.1 10.9 28.25 M7.3 34.15 L7.0 34.15 Q3.85 34.65 3.2 35.35 3.35 32.9 4.1 30.8 4.95 28.25 6.7 26.75 8.4 25.25 10.9 24.6 L16.35 24.15 16.2 25.3 15.35 25.2 Q6.15 25.5 4.25 33.55 L4.85 32.85 Q6.4 30.95 8.9 29.45 8.4 30.0 8.05 30.7 6.35 33.9 7.3 34.15" fill="#fd3535" fill-rule="evenodd" stroke="none"/>
      <path d="M7.3 34.15 L7.0 34.15 Q3.85 34.65 3.2 35.35 3.35 32.9 4.1 30.8 4.95 28.25 6.7 26.75 8.4 25.25 10.9 24.6 L16.35 24.15 16.2 25.3 Q15.8 28.1 14.85 29.85 13.6 32.2 12.2 32.9 11.1 33.45 8.2 34.0 L7.3 34.15 Z" fill="none" stroke="#000000" stroke-linecap="round" stroke-linejoin="round" stroke-opacity="0.3019608" stroke-width="0.05"/>
      <path d="M26.65 31.5 L27.25 33.85 Q27.2 35.95 28.0 38.0 28.75 40.05 29.95 40.85 L27.7 40.95 25.35 40.95 Q22.45 40.65 20.5 39.2 18.15 37.45 18.45 34.65 L18.45 34.5 Q18.7 35.95 19.1 36.6 L19.8 37.35 Q19.7 34.6 22.3 32.05 20.85 35.0 21.5 35.9 22.1 36.8 23.3 36.45 L25.55 34.9 Q26.6 33.8 26.7 32.8 L26.65 31.5 M20.65 29.95 L21.4 28.85 22.65 26.5 24.55 28.35 25.0 28.95 25.6 29.85 26.1 30.55 25.3 29.8 Q24.75 29.25 24.45 29.2 23.15 29.05 22.3 31.25 L22.65 29.7 Q22.8 28.9 22.25 28.8 21.75 28.75 20.95 29.7 L20.75 30.05 20.65 29.95 M22.25 31.15 L22.25 31.25 22.25 31.45 22.25 31.15" fill="#910101" fill-rule="evenodd" stroke="none"/>
      <path d="M18.45 34.5 Q18.65 33.2 20.0 31.0 L20.15 30.75 20.65 29.95 20.75 30.05 20.95 29.7 Q21.75 28.75 22.25 28.8 22.8 28.9 22.65 29.7 L22.3 31.25 Q23.15 29.05 24.45 29.2 24.75 29.25 25.3 29.8 L26.1 30.55 26.65 31.5 26.7 32.8 Q26.6 33.8 25.55 34.9 L23.3 36.45 Q22.1 36.8 21.5 35.9 20.85 35.0 22.3 32.05 19.7 34.6 19.8 37.35 L19.1 36.6 Q18.7 35.95 18.45 34.5 M22.25 31.15 L22.25 31.45 22.25 31.25 22.25 31.15" fill="#db0202" fill-rule="evenodd" stroke="none"/>
      <path d="M26.65 31.5 L27.25 33.85 Q27.2 35.95 28.0 38.0 28.75 40.05 29.95 40.85 L27.7 40.95 25.35 40.95 Q22.45 40.65 20.5 39.2 18.15 37.45 18.45 34.65 L18.45 34.5 Q18.65 33.2 20.0 31.0 M20.15 30.75 L20.65 29.95 21.4 28.85 22.65 26.5 24.55 28.35 25.0 28.95 25.6 29.85 26.1 30.55 26.65 31.5 Z" fill="none" stroke="#000000" stroke-linecap="round" stroke-linejoin="round" stroke-opacity="0.3019608" stroke-width="0.05"/>
      <path d="M13.3 18.9 L13.4 18.75 Q14.8 16.8 17.15 17.1 19.5 17.1 21.45 19.2 L21.65 19.45 Q22.75 21.4 23.0 24.2 L23.0 24.3 Q23.05 27.15 22.15 28.8 L22.05 28.9 Q20.65 31.0 18.0 31.0 L17.8 31.0 Q15.45 30.65 13.95 28.45 12.4 26.55 12.4 23.75 L12.35 23.7 Q12.15 20.85 13.3 18.9 M17.25 19.85 L17.05 19.85 Q16.15 19.7 15.65 20.4 14.95 21.75 15.1 23.75 L15.1 23.85 Q15.1 25.7 16.1 26.9 L16.15 27.0 Q16.9 28.05 17.95 28.25 19.05 28.25 19.7 27.4 20.3 26.2 20.3 24.2 20.1 22.25 19.3 20.85 18.4 19.9 17.25 19.85" fill="#ffcc00" fill-rule="evenodd" stroke="none"/>
      <path d="M17.25 19.85 Q18.4 19.9 19.3 20.85 20.1 22.25 20.3 24.2 20.3 26.2 19.7 27.4 19.05 28.25 17.95 28.25 16.9 28.05 16.15 27.0 L16.1 26.9 Q15.1 25.7 15.1 23.85 L15.1 23.75 Q14.95 21.75 15.65 20.4 16.15 19.7 17.05 19.85 L17.25 19.85 M13.3 18.9 Q12.15 20.85 12.35 23.7 L12.4 23.75 Q12.4 26.55 13.95 28.45 15.45 30.65 17.8 31.0 L18.0 31.0 Q20.65 31.0 22.05 28.9 L22.15 28.8 Q23.05 27.15 23.0 24.3 L23.0 24.2 Q22.75 21.4 21.65 19.45 L21.45 19.2 Q19.5 17.1 17.15 17.1 14.8 16.8 13.4 18.75 L13.3 18.9" fill="none" stroke="#000000" stroke-linecap="round" stroke-linejoin="round" stroke-opacity="0.3019608" stroke-width="0.05"/>
      <path d="M18.25 23.6 Q18.35 21.9 17.7 20.6 17.35 19.65 16.3 19.5 15.5 19.4 14.7 20.2 14.1 21.4 14.15 23.0 14.1 24.5 14.55 25.6 15.3 26.75 16.15 26.95 17.1 27.05 17.6 25.95 18.3 25.0 18.25 23.6 M19.55 20.6 Q20.45 22.35 20.7 24.7 20.75 27.2 19.95 28.6 18.9 30.15 16.9 30.1 15.25 29.9 14.1 28.25 12.8 26.65 12.75 24.25 12.6 21.8 13.55 20.1 14.55 18.7 16.2 19.0 18.0 18.95 19.55 20.6" fill="#bb6906" fill-rule="evenodd" stroke="none"/>
      <path d="M18.25 23.6 Q18.3 25.0 17.6 25.95 17.1 27.05 16.15 26.95 15.3 26.75 14.55 25.6 14.1 24.5 14.15 23.0 14.1 21.4 14.7 20.2 15.5 19.4 16.3 19.5 17.35 19.65 17.7 20.6 18.35 21.9 18.25 23.6" fill="#ffcc00" fill-rule="evenodd" stroke="none"/>
      <path d="M19.55 20.6 Q18.0 18.95 16.2 19.0 14.55 18.7 13.55 20.1 12.6 21.8 12.75 24.25 12.8 26.65 14.1 28.25 15.25 29.9 16.9 30.1 18.9 30.15 19.95 28.6 20.75 27.2 20.7 24.7 20.45 22.35 19.55 20.6 Z" fill="none" stroke="#000000" stroke-linecap="round" stroke-linejoin="round" stroke-opacity="0.3019608" stroke-width="0.05"/>
      <path d="M15.1 20.05 Q14.4 20.45 13.95 21.2 13.6 22.15 13.7 22.9 13.8 23.65 14.35 24.0 L15.55 24.1 Q16.2 23.85 16.55 22.9 17.0 22.15 16.95 21.25 16.85 20.5 16.3 20.15 L15.1 20.05" fill="#ffffff" fill-rule="evenodd" stroke="none"/>
      <path d="M14.9 26.45 L14.7 27.2 Q14.8 27.7 15.05 28.0 15.25 28.35 15.6 28.35 L16.15 28.1 16.25 27.3 16.05 26.5 Q15.8 26.2 15.45 26.15 15.1 26.15 14.9 26.45" fill="#ffffff" fill-rule="evenodd" stroke="none"/>
      <path d="M23.45 35.3 L23.3 35.25 Q24.15 32.85 24.25 30.15 L24.45 30.0 Q27.0 33.25 23.45 35.3" fill="#fe1a1a" fill-rule="evenodd" stroke="none"/>
      <path d="M42.3 17.65 Q42.45 16.15 40.6 15.05 39.25 14.2 37.95 14.15 L37.2 14.05 37.15 14.05 33.5 13.85 30.0 13.65 Q23.65 13.0 19.3 9.95 L16.3 7.85 Q14.6 6.85 12.6 6.65 L8.9 6.95 Q6.7 7.35 5.35 8.7 3.8 10.2 3.55 12.45 3.45 13.45 3.9 14.3 L4.35 16.05 4.85 17.65 4.65 19.3 4.65 20.0 Q4.75 21.45 5.3 21.95 L9.85 24.95 Q8.0 25.6 6.7 26.75 4.95 28.25 4.1 30.8 3.35 32.9 3.2 35.35 3.85 34.65 7.0 34.15 L7.3 34.15 8.2 34.0 Q11.1 33.45 12.2 32.9 13.6 32.2 14.85 29.85 L14.95 29.65 Q16.2 30.75 17.8 31.0 L18.0 31.0 20.35 30.5 20.15 30.75 20.0 31.0 Q18.65 33.2 18.45 34.5 L18.45 34.65 Q18.15 37.45 20.5 39.2 22.45 40.65 25.35 40.95 L27.7 40.95 29.95 40.85 Q28.75 40.05 28.0 38.0 27.2 35.95 27.25 33.85 L26.65 31.5 26.1 30.55 25.6 29.85 25.0 28.95 24.65 28.45 27.65 28.35 Q30.55 28.05 34.35 28.45 L36.1 28.55 36.75 28.55 Q38.5 28.45 39.1 27.75 L40.25 26.35 Q40.5 26.0 40.2 24.05 L40.2 24.0 39.95 21.85 40.25 21.0 40.55 20.7 40.65 20.55 41.25 19.9 Q42.2 18.55 42.3 17.65 M22.65 18.65 Q25.6 19.8 29.25 20.15 L32.8 20.35 33.85 20.4 36.4 20.55 37.8 20.75 34.6 21.3 29.55 21.15 29.75 21.2 29.15 21.15 28.85 21.15 28.75 21.15 22.45 20.4 22.65 18.65 M6.15 14.35 Q6.4 14.2 6.8 14.0 9.05 12.8 11.9 13.15 13.8 13.35 15.45 14.2 L14.55 17.65 14.25 17.85 7.2 14.95 6.15 14.35" fill="none" stroke="#000000" stroke-linecap="round" stroke-linejoin="round" stroke-opacity="0.3019608" stroke-width="0.5"/>
    </g>
  </defs>
</svg>
