<?xml version="1.0" encoding="UTF-8" standalone="no"?>
<svg xmlns:xlink="http://www.w3.org/1999/xlink" height="440.0px" width="440.0px" xmlns="http://www.w3.org/2000/svg">
  <g transform="matrix(10.0, 0.0, 0.0, 10.0, 0.0, 0.0)">
    <use height="44.0" transform="matrix(1.0, 0.0, 0.0, 1.0, -0.1, 0.0)" width="44.1" xlink:href="#shape0"/>
    <use height="0.0" transform="matrix(0.1227, 0.0539, 0.0094, 0.1036, 14.35, 21.85)" width="0.0" xlink:href="#sprite0"/>
    <use height="22.75" transform="matrix(1.0, 0.0, 0.0, 1.0, 0.25, 10.85)" width="36.1" xlink:href="#shape1"/>
  </g>
  <defs>
    <g id="shape0" transform="matrix(1.0, 0.0, 0.0, 1.0, 0.1, 0.0)">
      <path d="M44.0 44.0 L0.0 44.0 0.0 0.0 44.0 0.0 44.0 44.0" fill="#43adca" fill-opacity="0.0" fill-rule="evenodd" stroke="none"/>
      <path d="M5.3 7.85 Q5.8 9.45 6.85 10.55 L8.05 11.6 8.25 11.5 9.55 11.05 10.65 10.9 10.75 10.9 10.85 10.9 Q7.8 9.55 6.05 8.25 L5.4 7.8 5.3 7.7 5.25 7.65 5.3 7.85 M11.7 10.1 L11.25 10.45 11.5 10.15 11.7 10.1 Q12.55 9.95 14.25 10.7 L14.45 10.8 14.6 10.95 Q15.45 11.6 14.05 12.9 L13.8 13.05 13.75 13.1 14.6 13.55 Q15.65 13.25 16.05 12.25 L16.05 11.9 15.65 10.6 Q15.0 9.55 13.45 8.95 L12.45 8.6 Q9.4 7.6 5.3 7.65 L5.25 7.65 M13.45 8.95 Q15.75 7.9 19.15 7.3 L19.3 7.3 20.65 7.2 Q23.85 7.0 27.35 7.1 L30.35 7.25 30.55 7.2 30.6 7.2 33.35 8.1 34.55 8.6 35.0 8.8 35.8 9.15 37.65 9.8 39.65 12.2 38.4 15.35 Q40.75 17.05 43.05 20.1 L43.0 20.15 42.8 20.2 40.15 20.55 42.8 24.5 42.7 24.55 42.4 24.65 Q40.4 25.05 38.45 24.65 L36.9 24.15 37.65 25.75 37.7 25.8 37.65 25.85 37.4 25.9 34.7 25.7 36.35 29.9 36.25 29.9 35.9 29.95 Q33.75 29.95 31.8 29.15 30.35 28.5 29.3 27.35 L29.25 31.5 29.25 31.55 29.2 31.55 28.95 31.45 Q27.25 30.8 25.95 29.5 L25.65 29.2 24.7 33.35 24.75 33.35 24.25 34.75 Q25.7 35.35 26.15 36.65 25.05 37.65 23.6 37.75 23.3 39.1 22.0 40.05 20.25 39.5 19.9 38.3 18.45 39.1 17.0 38.6 17.0 37.25 17.65 36.2 17.05 35.4 17.05 34.2 17.8 33.8 18.55 33.8 L18.5 33.65 18.3 32.5 17.95 31.75 17.9 31.7 16.9 28.8 16.85 28.6 16.3 26.0 16.3 25.85 15.95 25.85 15.0 25.4 14.15 27.0 Q13.4 28.5 12.9 29.95 13.6 30.0 14.3 30.4 14.2 31.55 13.6 32.35 14.2 33.35 14.2 34.75 L14.15 34.75 Q12.75 35.15 11.3 34.3 10.9 35.6 9.15 36.05 7.95 35.0 7.6 33.7 6.25 33.6 5.1 32.55 5.7 31.3 7.1 30.8 6.7 30.1 6.6 29.25 L8.6 29.1 9.3 27.9 9.35 27.9 9.4 27.5 9.45 27.45 Q9.8 26.2 10.45 24.95 L10.45 24.9 10.5 24.95 10.6 24.8 Q11.05 23.75 11.75 22.8 L11.8 22.7 11.6 22.4 11.6 22.3 10.95 20.15 10.9 19.95 10.95 19.9 11.9 18.05 13.6 17.8 14.15 17.7 12.8 16.2 12.7 16.7 11.7 16.55 11.65 16.55 11.55 16.5 11.55 16.4 10.85 16.65 10.05 17.95 M36.9 14.35 L36.85 14.05 36.85 14.0 36.75 14.0 34.7 13.05 34.2 13.5 35.65 13.8 36.7 14.25 36.9 14.35 38.35 15.3 38.4 15.35 M35.65 15.1 Q34.45 14.45 33.85 14.3 L33.45 14.3 33.25 14.35 33.1 14.5 Q34.25 14.9 35.55 15.85 L36.8 16.85 36.95 15.9 35.95 15.25 35.65 15.1 M36.8 16.85 L37.15 17.15 37.3 17.3 37.4 17.2 37.6 17.1 37.65 16.8 37.55 16.55 36.95 15.9 M35.9 18.8 Q35.45 18.0 34.2 17.0 L33.7 16.65 31.95 15.55 31.85 15.6 30.25 16.25 29.95 16.35 29.75 16.4 29.55 16.55 Q30.5 16.65 31.4 17.25 L32.55 18.05 33.9 19.45 34.3 19.95 34.4 20.05 34.5 20.1 35.1 20.05 35.25 20.0 35.35 20.0 35.7 19.8 36.05 19.25 35.9 18.8 M37.3 17.3 L38.7 18.75 40.15 20.55 M43.0 20.15 L42.85 20.1 42.7 20.1 42.55 20.0 42.2 19.9 M42.85 20.1 L43.05 20.1 M42.7 24.55 L42.35 24.4 41.6 24.1 Q38.75 22.9 35.35 20.0 M36.85 25.4 L37.2 25.55 37.35 25.75 37.45 25.75 37.5 25.7 37.7 25.8 M37.65 25.85 L37.45 25.75 M36.25 29.9 L35.9 29.7 35.2 29.2 Q32.5 27.35 29.6 23.65 L29.5 23.65 29.3 23.65 28.8 23.6 29.3 27.35 M34.7 13.05 L34.8 12.9 32.05 11.35 31.95 11.3 31.8 11.15 26.75 10.75 Q23.35 10.55 19.45 10.8 L19.25 10.85 19.0 10.85 18.65 10.95 Q17.25 11.35 16.05 11.9 M31.95 11.3 L31.95 11.15 31.8 9.7 31.8 9.6 33.35 8.1 M32.2 13.95 L32.1 13.95 32.1 14.0 32.2 13.95 32.25 13.9 33.0 13.65 34.2 13.5 M32.2 13.95 L32.25 13.9 M29.95 16.35 L29.1 14.75 29.05 14.7 29.1 14.65 29.1 14.6 29.2 14.65 29.25 14.65 30.3 14.3 Q31.2 14.1 32.2 14.3 L32.15 14.0 32.1 14.0 M33.25 14.35 L32.9 14.45 33.1 14.5 M32.2 14.3 L32.9 14.45 M27.35 7.1 L26.0 9.25 26.2 9.35 26.75 10.75 M29.05 14.7 L29.2 14.7 29.25 14.65 30.8 15.9 30.85 15.95 30.95 15.9 30.8 15.25 31.95 15.55 M28.2 17.4 L28.25 17.4 28.2 17.4 Q29.4 18.05 30.6 19.3 L31.35 20.15 31.35 18.85 31.15 18.65 Q30.0 17.65 29.4 17.4 L28.95 17.3 28.25 17.4 M13.6 17.8 L14.05 18.05 15.5 16.9 18.85 18.3 19.1 18.55 19.1 18.6 20.1 19.95 20.8 19.95 21.85 19.85 21.65 19.75 22.25 18.15 22.35 18.15 22.35 18.1 22.4 18.2 22.4 18.25 23.25 18.65 23.85 17.45 23.9 17.4 23.9 17.35 24.0 17.4 24.05 17.45 24.45 17.55 24.25 16.85 24.25 16.75 24.35 16.8 24.4 16.85 25.55 16.7 Q26.6 16.7 27.6 17.15 L27.65 16.7 27.65 16.65 27.8 16.65 28.65 16.5 29.55 16.55 M27.65 16.7 L27.8 16.65 M26.25 18.5 L26.85 18.2 Q26.25 17.8 25.9 17.75 L25.9 18.25 26.25 18.5 27.35 19.85 27.85 20.75 28.7 23.3 28.8 23.6 M29.6 23.65 L30.0 23.5 30.45 23.0 30.4 22.6 Q30.2 21.6 28.9 20.2 L28.55 19.8 Q27.55 18.7 26.85 18.2 M27.6 17.15 L28.2 17.4 M30.85 15.95 L30.8 15.95 30.25 16.25 M31.35 20.15 L32.05 21.1 32.3 21.45 32.35 21.5 32.45 21.4 32.7 21.3 32.8 21.05 32.8 21.0 Q32.7 20.15 31.4 18.9 L31.35 18.85 M19.25 10.85 L19.6 8.9 20.65 7.2 M15.95 25.85 L15.45 23.1 15.4 23.0 16.05 20.4 19.1 18.6 M20.1 19.95 L20.2 20.1 18.85 22.95 19.8 23.0 20.05 24.65 20.25 24.85 20.35 24.85 20.65 24.85 20.65 24.65 22.0 24.9 22.0 24.95 23.9 24.6 23.8 23.9 23.9 23.9 24.15 23.9 22.5 22.25 22.45 20.1 21.85 19.85 M23.9 17.4 L24.05 17.45 M24.45 17.55 L25.0 17.7 25.25 17.85 24.4 16.85 24.25 16.85 M22.45 20.1 L22.5 20.1 22.55 20.1 22.55 19.6 22.4 18.25 22.35 18.25 22.25 18.15 M24.15 23.9 L24.0 22.4 23.95 21.9 Q23.6 20.1 23.0 19.6 L22.65 20.15 22.55 20.1 M24.9 18.7 L24.75 18.7 24.75 18.6 23.95 18.35 23.65 18.5 23.5 18.6 23.35 18.7 Q24.8 19.65 25.45 21.55 L25.95 24.45 25.95 24.5 26.3 24.5 26.6 24.5 26.8 24.3 26.9 24.05 Q27.1 23.1 26.45 21.3 L26.35 21.1 25.25 19.0 24.9 18.7 24.85 18.65 24.75 18.6 23.9 18.3 23.65 18.5 M23.35 18.7 L23.3 18.7 23.25 18.65 M23.5 18.6 L23.3 18.7 M22.0 24.95 L22.1 25.25 22.55 25.65 22.65 25.75 22.75 25.8 23.15 25.85 23.75 25.7 24.05 25.15 23.9 24.6 M17.9 31.7 L18.05 31.35 Q18.6 30.2 19.65 29.65 L19.8 29.5 20.55 28.6 20.6 28.5 20.5 27.05 20.55 26.75 20.15 25.2 20.05 24.7 19.75 25.0 19.2 25.8 18.75 26.25 18.7 26.45 Q17.5 27.05 16.95 28.55 L16.9 28.8 M20.55 26.75 L20.65 24.85 M24.05 25.15 L24.15 23.9 M20.05 24.7 L20.05 24.65 M20.15 25.2 L20.4 25.0 20.25 24.85 M18.85 22.95 Q17.35 22.95 16.0 23.65 L16.3 25.85 M22.8 34.35 L23.55 34.5 22.7 33.05 22.35 32.35 20.45 33.2 20.35 33.2 Q19.35 33.8 18.55 33.7 L18.5 33.65 M20.35 33.2 L18.55 32.95 18.3 32.5 M22.35 32.35 L22.45 32.3 22.15 31.65 21.55 30.85 Q20.8 29.75 20.6 28.5 M22.15 31.65 L23.75 33.05 24.25 33.4 24.5 33.55 24.35 33.25 24.35 33.2 24.1 32.5 Q23.0 29.85 22.75 25.8 M22.7 33.05 L23.75 33.05 M32.35 21.5 L33.55 23.45 34.7 25.7 M25.95 24.5 L25.95 25.05 25.95 26.25 25.65 29.2 M29.2 31.55 L29.1 31.35 29.0 31.25 28.9 31.0 28.65 30.7 M29.1 31.35 L29.15 31.35 29.25 31.55 M25.25 17.85 L25.9 18.25 M23.6 36.5 L23.6 37.75 M23.55 34.5 L24.25 34.75 M24.7 33.35 L24.6 33.6 24.5 33.55 M18.55 33.8 L18.7 34.85 18.7 35.0 17.65 36.2 M19.9 38.3 L19.75 37.3 M34.4 20.05 Q35.75 21.75 36.9 24.15 M35.8 9.15 L34.5 8.65 36.0 10.75 34.8 12.9 M1.15 23.6 L0.75 23.8 0.55 23.95 0.4 24.0 0.3 24.15 0.5 24.15 3.45 23.95 Q3.8 22.85 4.25 21.9 L5.5 19.45 5.65 19.25 5.8 19.05 5.65 18.75 Q5.75 17.9 7.0 16.65 L7.55 16.1 7.75 15.95 Q8.85 15.0 9.4 14.75 L9.95 14.65 10.4 14.7 11.0 14.75 11.5 14.7 11.4 14.0 11.4 13.95 11.25 13.95 10.65 13.8 10.35 13.75 10.3 13.75 8.6 13.95 Q7.9 14.15 7.2 14.55 L7.1 14.65 Q6.0 15.3 4.85 16.6 L4.45 17.0 Q2.15 19.7 0.25 24.05 L0.25 24.1 0.4 24.0 M11.4 13.95 L11.4 13.9 11.35 13.9 11.25 13.95 M7.0 16.65 L7.55 16.5 7.65 16.5 7.7 16.45 8.5 15.45 9.75 15.15 10.65 14.85 10.4 14.7 M11.65 16.55 L11.7 16.5 11.85 16.3 12.25 15.6 12.8 14.8 11.65 14.7 11.6 14.7 11.5 14.7 M11.0 14.75 L10.65 14.85 M9.3 12.7 L8.6 13.85 Q8.35 13.55 8.5 13.35 L9.3 12.7 10.3 12.25 11.0 12.05 Q11.85 11.85 12.15 12.35 12.45 12.85 12.15 14.2 L12.2 14.2 13.05 14.0 13.4 13.3 Q13.6 12.65 13.4 12.0 L13.1 11.65 Q12.2 10.8 10.85 10.9 M12.8 14.8 L13.0 14.8 12.95 14.75 12.95 14.7 12.85 14.75 12.8 14.8 M12.2 14.2 L11.6 14.7 M13.4 13.3 L13.8 13.05 M12.8 16.2 L13.0 14.85 13.0 14.8 M14.05 12.9 L14.6 10.95 M9.75 15.15 Q8.7 15.6 7.75 16.55 L7.4 16.9 Q6.55 17.8 5.8 19.05 M7.65 16.5 L7.4 16.85 7.4 16.9 M7.55 16.5 L7.4 16.85 M7.9 19.5 Q7.3 20.55 7.35 21.3 L8.25 20.15 7.9 19.5 7.9 19.45 Q8.15 19.0 8.55 18.5 L8.9 18.0 Q10.5 15.95 11.45 15.8 L11.55 16.4 M10.95 19.9 L10.95 20.15 M14.05 18.05 L13.0 18.9 12.45 20.55 12.55 21.0 12.6 21.6 12.65 22.95 13.7 24.55 13.85 24.85 15.0 25.4 M10.3 12.25 L10.35 13.75 M8.05 11.6 Q5.2 12.8 2.05 15.3 L2.1 15.35 2.35 15.35 3.05 15.3 7.1 14.65 M2.1 15.35 L2.25 15.5 Q3.5 16.25 4.85 16.6 M0.25 24.1 L0.3 24.15 M2.5 28.6 Q4.7 28.5 6.6 27.55 8.65 26.5 9.75 24.5 L10.85 22.3 10.95 22.05 9.5 21.45 9.45 21.5 9.15 21.8 8.6 21.9 8.4 21.95 8.3 21.95 Q5.7 25.75 3.15 27.75 L2.5 28.35 2.2 28.55 2.5 28.6 M3.45 23.95 Q2.65 26.05 2.1 28.55 L2.2 28.55 M11.8 22.7 L11.9 22.55 11.6 22.3 M11.9 22.55 L12.6 21.6 M13.7 24.55 L13.55 24.55 13.35 24.65 11.75 24.55 10.95 24.75 10.7 24.85 10.5 24.95 M9.45 27.45 L9.6 27.4 12.05 27.35 12.25 27.25 13.35 27.25 14.15 27.0 M8.3 21.95 L7.85 21.8 7.35 21.3 M13.6 32.35 Q13.3 31.7 12.6 31.1 L12.65 30.9 12.7 30.6 12.6 30.85 10.5 30.15 Q9.5 29.45 9.15 28.7 L9.35 27.95 9.35 27.9 M7.1 30.8 Q7.45 30.55 7.8 30.55 L8.6 29.1 M7.8 30.55 L8.55 30.35 M12.9 29.95 L12.7 30.6 M7.9 19.45 L8.9 21.2 M11.3 34.3 L11.45 33.35 M7.6 33.7 L7.7 32.5" fill="none" stroke="#000000" stroke-linecap="round" stroke-linejoin="round" stroke-opacity="0.15294118" stroke-width="0.7000000000000001"/>
      <path d="M24.95 20.35 L27.55 19.75 27.85 19.85 28.8 20.0 28.7 20.15 27.5 21.3 26.9 21.8 26.8 21.85 25.7 22.65 23.3 23.7 Q20.75 23.3 19.15 22.35 L18.2 21.9 19.1 21.75 19.45 22.15 22.0 21.95 22.25 21.9 24.65 20.85 24.95 20.35" fill="#7a4218" fill-rule="evenodd" stroke="none"/>
      <path d="M27.55 19.75 L29.55 19.3 29.6 19.35 28.8 20.0 27.85 19.85 27.55 19.75 M19.1 21.75 L24.95 20.35 24.65 20.85 22.25 21.9 22.0 21.95 19.45 22.15 19.1 21.75" fill="#94592d" fill-rule="evenodd" stroke="none"/>
      <path d="M29.55 19.3 L29.6 19.3 29.6 19.35 29.55 19.3" fill="#af6a36" fill-rule="evenodd" stroke="none"/>
      <path d="M25.7 22.65 L23.3 23.7 Q20.75 23.3 19.15 22.35 L18.2 21.9" fill="none" stroke="#000000" stroke-linecap="round" stroke-linejoin="round" stroke-opacity="0.5019608" stroke-width="0.05"/>
      <path d="M22.5 19.65 L22.4 19.75 22.4 19.7 22.5 19.65" fill="#b19741" fill-rule="evenodd" stroke="none"/>
      <path d="M34.5 8.65 L34.55 8.6 35.0 8.8 35.8 9.15 34.5 8.65" fill="#c7b769" fill-rule="evenodd" stroke="none"/>
      <path d="M31.95 11.15 L31.95 11.3 31.8 11.15 31.95 11.15 M36.85 14.0 L36.85 14.05 36.8 14.05 36.8 14.0 36.85 14.0 M14.6 10.9 L14.5 10.75 14.7 10.65 14.6 10.9" fill="#216373" fill-rule="evenodd" stroke="none"/>
      <path d="M10.25 11.15 L10.3 11.1 10.3 11.2 10.25 11.15" fill="#bdac64" fill-rule="evenodd" stroke="none"/>
      <path d="M26.0 9.25 L26.2 9.35 26.0 9.4 26.0 9.25 M36.75 14.0 L36.75 13.95 36.8 14.0 36.75 14.0" fill="#3398b0" fill-rule="evenodd" stroke="none"/>
      <path d="M7.4 16.85 L7.6 16.25 7.7 16.35 7.4 16.85" fill="#854f26" fill-rule="evenodd" stroke="none"/>
      <path d="M36.75 13.95 L36.85 14.0 36.8 14.0 36.75 13.95" fill="#9a5e2d" fill-rule="evenodd" stroke="none"/>
      <path d="M36.8 14.05 L36.75 14.0 36.8 14.0 36.8 14.05" fill="#b80101" fill-rule="evenodd" stroke="none"/>
      <path d="M10.25 11.2 L10.25 11.15 10.3 11.2 10.25 11.2" fill="#d40000" fill-rule="evenodd" stroke="none"/>
      <path d="M34.5 8.65 L34.55 8.6 34.5 8.65" fill="#768221" fill-rule="evenodd" stroke="none"/>
      <path d="M36.75 14.0 L36.75 13.95 36.75 14.0" fill="#555e18" fill-rule="evenodd" stroke="none"/>
      <path d="M34.55 8.6 L34.5 8.65 36.0 10.75 35.7 11.35 31.8 9.7 31.8 9.6 33.35 8.1 31.8 9.6 31.8 9.7 31.85 10.1 26.2 9.35 26.0 9.25 27.35 7.1 30.35 7.25 30.55 7.2 30.6 7.2 33.35 8.1 34.55 8.6 M7.6 16.25 L8.05 14.65 10.25 11.2 10.3 11.2 10.3 11.35 10.3 11.75 10.35 14.15 10.35 14.65 10.7 14.9 11.1 15.2 11.5 15.45 12.1 15.45 12.6 16.0 11.8 16.3 11.7 16.35 10.85 16.65 10.05 17.95 9.4 19.35 Q8.15 18.55 7.7 16.35 L7.6 16.25 M34.7 13.05 L36.75 14.0 36.8 14.05 35.1 16.45 31.85 18.45 29.95 16.65 31.4 18.85 31.3 18.9 27.05 21.15 22.5 22.25 22.4 19.75 22.5 19.65 Q23.3 18.55 23.95 18.35 L26.05 18.55 Q27.3 18.05 29.75 16.4 L31.85 15.6 34.7 13.05 M10.7 14.9 L10.55 14.95 8.5 15.45 7.7 16.35 8.5 15.45 10.55 14.95 10.7 14.9" fill="#cc9d28" fill-rule="evenodd" stroke="none"/>
      <path d="M31.35 22.15 L31.15 22.3 25.05 24.8 24.6 24.35 24.2 23.95 22.5 22.25 27.05 21.15 31.3 18.9 31.35 22.15" fill="#87681b" fill-rule="evenodd" stroke="none"/>
      <path d="M36.3 18.5 L31.35 22.15 31.3 18.9 31.4 18.85 29.95 16.65 31.85 18.45 35.1 16.45 36.8 14.05 36.85 14.05 Q37.2 16.1 36.3 18.5 M24.6 24.35 L24.2 24.5 21.45 24.9 20.35 24.85 17.25 24.15 16.4 23.95 16.4 19.2 Q18.15 19.9 19.5 20.0 L19.55 19.9 20.8 19.95 19.5 21.45 20.0 23.15 24.2 23.95 24.6 24.35 M11.6 22.3 L11.6 22.4 11.9 22.85 8.9 21.2 7.0 17.8 7.4 16.85 7.7 16.35 Q8.15 18.55 9.4 19.35 L10.05 17.95 10.85 16.65 11.7 16.35 11.8 16.3 12.6 16.0 14.15 17.7 13.6 17.8 11.9 18.05 10.95 19.9 10.9 19.95 10.95 20.15 11.6 22.3 M26.0 9.4 L26.2 9.35 26.75 10.75 Q23.35 10.55 19.45 10.8 L19.25 10.85 19.0 10.85 18.65 10.95 Q16.0 11.75 14.0 12.95 L14.6 10.9 19.45 9.55 19.25 10.85 19.45 9.55 Q22.05 9.8 26.0 9.4" fill="#705616" fill-rule="evenodd" stroke="none"/>
      <path d="M31.8 9.7 L35.7 11.35 34.8 12.9 32.05 11.35 31.95 11.3 31.95 11.15 31.8 11.15 26.75 10.75 26.2 9.35 31.85 10.1 31.8 9.7 M31.85 10.1 L31.95 11.15 31.85 10.1 M36.75 13.95 L38.7 11.05 39.65 12.2 38.35 15.45 Q37.4 16.6 36.3 18.5 37.2 16.1 36.85 14.05 L36.85 14.0 36.75 13.95 M16.4 23.95 L15.6 23.7 14.05 23.35 Q12.25 22.95 11.6 22.3 L10.95 20.15 10.95 19.9 11.9 18.05 13.6 17.8 15.3 18.65 15.5 18.75 15.6 18.8 16.4 19.2 16.4 23.95 M22.4 19.75 L22.5 22.25 24.2 23.95 20.0 23.15 19.5 21.45 20.8 19.95 22.4 19.7 22.4 19.75 M14.5 10.75 L14.6 10.9 14.0 12.95 13.9 13.0 Q12.3 13.95 11.1 15.2 L10.7 14.9 10.35 14.65 10.35 14.15 Q11.55 12.45 14.5 10.75" fill="#523f10" fill-rule="evenodd" stroke="none"/>
      <path d="M35.7 11.35 L36.0 10.75 34.5 8.65 35.8 9.15 37.65 9.8 38.7 11.05 36.75 13.95 36.75 14.0 34.7 13.05 34.8 12.9 35.7 11.35 M27.35 7.1 L26.0 9.25 26.0 9.4 Q22.05 9.8 19.45 9.55 L14.6 10.9 14.7 10.65 14.5 10.75 Q11.55 12.45 10.35 14.15 L10.3 11.75 10.35 11.35 10.3 11.35 10.3 11.2 13.05 9.05 13.25 9.0 Q15.65 7.9 19.15 7.3 L19.3 7.3 20.65 7.2 Q23.85 7.0 27.35 7.1 M13.25 9.0 L14.7 10.55 14.7 10.65 14.7 10.55 13.25 9.0 M20.65 7.2 L19.6 8.9 19.45 9.55 19.6 8.9 20.65 7.2" fill="#b88a24" fill-rule="evenodd" stroke="none"/>
      <path d="M35.7 11.35 L36.0 10.75 34.5 8.65 35.8 9.15 M34.8 12.9 L35.7 11.35 M38.7 11.05 L37.65 9.8 35.8 9.15 M34.7 13.05 L34.8 12.9 M38.7 11.05 L39.65 12.2 38.35 15.45 M25.05 24.8 L24.6 24.35 24.2 24.5 21.45 24.9 20.35 24.85 17.25 24.15 16.4 23.95 15.6 23.7 14.05 23.35 Q12.25 22.95 11.6 22.3 L11.6 22.4 M8.9 21.2 L7.0 17.8 7.4 16.85 7.6 16.25 8.05 14.65 10.25 11.2 10.25 11.15 10.3 11.1 10.3 11.2 M34.7 13.05 L31.85 15.6 29.75 16.4 Q27.3 18.05 26.05 18.55 L23.95 18.35 Q23.3 18.55 22.5 19.65 L22.4 19.75 22.5 22.25 M20.8 19.95 L22.4 19.7 22.5 19.65 M24.6 24.35 L24.2 23.95 22.5 22.25 M20.8 19.95 L19.55 19.9 19.5 20.0 Q18.15 19.9 16.4 19.2 M10.35 14.15 L10.35 14.65 10.7 14.9 11.1 15.2 11.5 15.45 12.1 15.45 12.6 16.0 14.15 17.7 13.6 17.8 11.9 18.05 10.95 19.9 10.95 20.15 11.6 22.3 M10.3 11.75 L10.3 11.35 10.3 11.2 M10.3 11.75 L10.35 14.15 M7.7 16.35 L7.4 16.85 M13.6 17.8 L15.3 18.65 15.5 18.75 15.6 18.8 16.4 19.2 M10.95 20.15 L10.9 19.95 10.95 19.9" fill="none" stroke="#000000" stroke-linecap="round" stroke-linejoin="round" stroke-opacity="0.4" stroke-width="0.05"/>
      <path d="M34.55 8.6 L33.35 8.1 31.8 9.6 31.8 9.7 M35.8 9.15 L35.0 8.8 34.55 8.6 M33.35 8.1 L30.6 7.2 30.55 7.2 30.35 7.25 27.35 7.1 26.0 9.25 26.2 9.35 26.75 10.75 31.8 11.15 31.95 11.3 32.05 11.35 34.8 12.9 M31.85 10.1 L31.8 9.7 M31.95 11.3 L31.95 11.15 31.85 10.1 M10.3 11.2 L13.05 9.05 13.25 9.0 Q15.65 7.9 19.15 7.3 L19.3 7.3 20.65 7.2 Q23.85 7.0 27.35 7.1 M14.6 10.9 L14.7 10.65 14.7 10.55 13.25 9.0 M11.1 15.2 Q12.3 13.95 13.9 13.0 L14.0 12.95 14.6 10.9 M19.45 9.55 L19.6 8.9 20.65 7.2 M10.3 11.35 L10.35 11.35 10.3 11.75 M19.45 9.55 L19.25 10.85 19.45 10.8 Q23.35 10.55 26.75 10.75 M19.25 10.85 L19.0 10.85 18.65 10.95 Q16.0 11.75 14.0 12.95" fill="none" stroke="#000000" stroke-linecap="round" stroke-linejoin="round" stroke-opacity="0.3019608" stroke-width="0.05"/>
      <path d="M11.6 22.4 L11.9 22.85 M36.75 14.0 L34.7 13.05 M31.4 18.85 L29.95 16.65 M36.85 14.0 L36.85 14.05 Q37.2 16.1 36.3 18.5 M36.8 14.0 L36.85 14.0 M36.8 14.0 L36.75 14.0 M31.3 18.9 L31.35 22.15 M7.7 16.35 L8.5 15.45 10.55 14.95 10.7 14.9 M12.6 16.0 L11.8 16.3 11.7 16.35 10.85 16.65 10.05 17.95" fill="none" stroke="#000000" stroke-linecap="round" stroke-linejoin="round" stroke-opacity="0.2" stroke-width="0.05"/>
      <path d="M5.3 7.65 L5.3 7.7 5.25 7.65 5.3 7.65" fill="#7c9124" fill-rule="evenodd" stroke="none"/>
      <path d="M5.3 7.65 Q9.4 7.6 12.45 8.6 16.15 9.65 16.05 12.25 15.65 13.25 14.6 13.55 L13.75 13.1 Q15.8 11.45 14.25 10.7 12.3 9.85 11.5 10.15 11.2 10.2 11.25 10.65 L11.2 10.7 10.85 10.8 Q7.8 9.55 6.05 8.25 L5.4 7.8 5.3 7.7 5.3 7.65 M5.3 7.85 Q8.1 10.25 9.85 11.25 L9.2 11.75 8.9 12.0 Q7.7 11.55 6.85 10.55 5.8 9.45 5.3 7.85" fill="#ffa4a4" fill-rule="evenodd" stroke="none"/>
      <path d="M5.3 7.7 L5.4 7.8 6.05 8.25 Q7.8 9.55 10.85 10.8 10.3 10.95 9.85 11.25 8.1 10.25 5.3 7.85 L5.25 7.65 5.3 7.7" fill="#de6464" fill-rule="evenodd" stroke="none"/>
      <path d="M13.75 13.1 L14.6 13.55 Q15.65 13.25 16.05 12.25 16.15 9.65 12.45 8.6 9.4 7.6 5.3 7.65 L5.25 7.65 5.3 7.85 Q5.8 9.45 6.85 10.55 7.7 11.55 8.9 12.0" fill="none" stroke="#000000" stroke-linecap="round" stroke-linejoin="round" stroke-opacity="0.3019608" stroke-width="0.05"/>
      <path d="M5.3 7.7 L5.4 7.8 6.05 8.25 Q7.8 9.55 10.85 10.8 M5.25 7.65 L5.3 7.7" fill="none" stroke="#000000" stroke-linecap="round" stroke-linejoin="round" stroke-opacity="0.101960786" stroke-width="0.05"/>
      <path d="M11.2 10.7 L11.25 10.65 Q11.2 10.2 11.5 10.15 12.3 9.85 14.25 10.7 15.8 11.45 13.75 13.1 Z" fill="none" stroke="#000000" stroke-linecap="round" stroke-linejoin="round" stroke-opacity="0.4509804" stroke-width="0.05"/>
      <path d="M37.6 17.1 L37.65 16.8 Q37.4 16.0 35.65 15.1 34.45 14.45 33.85 14.3 L33.45 14.3 32.6 14.55 Q32.3 15.85 32.15 14.0 L32.1 14.0 32.25 13.9 33.0 13.65 35.65 13.8 Q36.9 14.2 38.35 15.3 40.75 17.0 43.05 20.1 L43.0 20.15 42.8 20.2 39.85 20.5 Q38.25 20.3 37.0 19.25 L35.5 18.05 36.3 17.35 36.3 17.4 36.55 17.55 37.7 18.25 Q39.7 19.3 42.2 19.9 L42.55 20.0 42.7 20.1 42.85 20.1 42.95 20.05 Q39.8 18.65 37.6 17.1 M43.05 20.1 L42.95 20.05 43.05 20.1 42.85 20.1 43.05 20.1 M42.85 20.1 L43.0 20.15 42.85 20.1" fill="#ffa4a4" fill-rule="evenodd" stroke="none"/>
      <path d="M36.55 17.45 L37.0 17.45 37.15 17.35 37.2 17.4 37.4 17.2 37.6 17.1 Q39.8 18.65 42.95 20.05 L42.85 20.1 42.7 20.1 42.55 20.0 42.2 19.9 Q39.7 19.3 37.7 18.25 L36.55 17.55 36.55 17.45" fill="#c23e3e" fill-rule="evenodd" stroke="none"/>
      <path d="M36.3 17.35 L36.55 17.45 36.55 17.55 36.3 17.4 36.3 17.35" fill="#de6464" fill-rule="evenodd" stroke="none"/>
      <path d="M33.45 14.3 L32.6 14.55 Q32.3 15.85 32.15 14.0 L32.1 14.0 32.1 13.95 32.2 13.95 32.25 13.9 33.0 13.65 35.65 13.8 Q36.9 14.2 38.35 15.3 40.75 17.0 43.05 20.1 L43.0 20.15 42.8 20.2 39.85 20.5 Q38.25 20.3 37.0 19.25 L35.5 18.05 36.3 17.35 36.55 17.45 37.0 17.45 37.15 17.35 37.2 17.4 M42.95 20.05 L43.05 20.1 M32.1 14.0 L32.25 13.9 M36.3 17.35 L36.3 17.4 36.55 17.55 M42.7 20.1 L42.85 20.1 43.05 20.1" fill="none" stroke="#000000" stroke-linecap="round" stroke-linejoin="round" stroke-opacity="0.3019608" stroke-width="0.05"/>
      <path d="M37.6 17.1 L37.65 16.8 Q37.4 16.0 35.65 15.1 34.45 14.45 33.85 14.3 L33.45 14.3 M37.2 17.4 L37.4 17.2 37.6 17.1" fill="none" stroke="#000000" stroke-linecap="round" stroke-linejoin="round" stroke-opacity="0.4509804" stroke-width="0.05"/>
      <path d="M42.2 19.9 L42.55 20.0 42.7 20.1 M43.0 20.15 L42.85 20.1" fill="none" stroke="#000000" stroke-linecap="round" stroke-linejoin="round" stroke-opacity="0.101960786" stroke-width="0.05"/>
      <path d="M30.8 15.95 L30.8 15.9 30.85 15.95 30.8 15.9 29.25 14.65 30.3 14.3 Q33.4 13.65 37.15 17.15 40.05 19.85 42.8 24.5 L42.7 24.55 42.35 24.4 41.6 24.1 Q38.75 22.9 35.35 20.0 L35.7 19.8 36.05 19.25 Q35.8 18.15 33.7 16.65 31.6 15.15 30.8 15.25 L30.95 15.9 30.85 15.95 30.8 15.95 M29.1 14.7 L29.1 14.75 29.05 14.7 29.1 14.7" fill="#7c9124" fill-rule="evenodd" stroke="none"/>
      <path d="M30.8 15.9 L30.8 15.95 29.95 16.35 29.1 14.75 29.1 14.7 29.2 14.7 29.25 14.65 30.8 15.9 M42.7 24.55 L42.4 24.65 Q40.4 25.05 38.45 24.65 36.3 24.15 34.75 22.6 L33.0 20.75 34.15 19.85 34.5 20.1 35.1 20.05 35.25 20.0 35.35 20.0 Q38.75 22.9 41.6 24.1 L42.35 24.4 42.7 24.55" fill="#58701c" fill-rule="evenodd" stroke="none"/>
      <path d="M30.8 15.95 L30.85 15.95 30.8 15.9 29.25 14.65 29.2 14.7 29.1 14.7 M29.1 14.75 L29.95 16.35 30.8 15.95 M30.8 15.25 L30.95 15.9 30.85 15.95 M29.05 14.7 L29.1 14.7 M29.05 14.7 L29.1 14.65 29.1 14.6 29.2 14.65 29.25 14.65 30.3 14.3 Q33.4 13.65 37.15 17.15 40.05 19.85 42.8 24.5 L42.7 24.55 42.4 24.65 Q40.4 25.05 38.45 24.65 36.3 24.15 34.75 22.6 L33.0 20.75 34.15 19.85 34.5 20.1 35.1 20.05 35.25 20.0 35.35 20.0 M29.1 14.75 L29.05 14.7" fill="none" stroke="#000000" stroke-linecap="round" stroke-linejoin="round" stroke-opacity="0.3019608" stroke-width="0.05"/>
      <path d="M35.35 20.0 Q38.75 22.9 41.6 24.1 L42.35 24.4 42.7 24.55" fill="none" stroke="#000000" stroke-linecap="round" stroke-linejoin="round" stroke-opacity="0.101960786" stroke-width="0.05"/>
      <path d="M35.35 20.0 L35.7 19.8 36.05 19.25 Q35.8 18.15 33.7 16.65 31.6 15.15 30.8 15.25" fill="none" stroke="#000000" stroke-linecap="round" stroke-linejoin="round" stroke-opacity="0.4509804" stroke-width="0.05"/>
      <path d="M27.8 16.65 L28.65 16.5 Q30.05 16.4 31.4 17.25 32.65 17.95 33.9 19.45 36.0 21.85 37.65 25.75 L37.7 25.8 37.65 25.85 37.4 25.9 34.2 25.55 Q32.55 25.0 31.45 23.55 L30.2 21.95 31.2 21.3 31.25 21.35 31.45 21.55 32.5 22.6 Q34.3 24.2 36.85 25.4 L37.2 25.55 37.35 25.75 37.45 25.75 37.5 25.7 37.55 25.75 Q34.6 23.5 32.7 21.3 L32.8 21.0 Q32.7 20.1 31.15 18.65 30.0 17.65 29.4 17.4 L28.95 17.3 28.05 17.4 Q27.35 18.8 27.65 16.7 L27.8 16.65 M37.7 25.8 L37.5 25.7 37.7 25.8 M37.55 25.75 L37.65 25.75 37.55 25.75 M37.45 25.75 L37.65 25.85 37.45 25.75" fill="#ffa4a4" fill-rule="evenodd" stroke="none"/>
      <path d="M31.5 21.55 L31.95 21.55 32.15 21.55 32.2 21.55 32.45 21.4 32.7 21.3 Q34.6 23.5 37.55 25.75 L37.5 25.7 37.45 25.75 37.35 25.75 37.2 25.55 36.85 25.4 Q34.3 24.2 32.5 22.6 L31.45 21.55 31.5 21.55" fill="#c23e3e" fill-rule="evenodd" stroke="none"/>
      <path d="M31.2 21.3 L31.5 21.55 31.45 21.55 31.25 21.35 31.2 21.3" fill="#de6464" fill-rule="evenodd" stroke="none"/>
      <path d="M27.8 16.65 L28.65 16.5 Q30.05 16.4 31.4 17.25 32.65 17.95 33.9 19.45 36.0 21.85 37.65 25.75 L37.7 25.8 37.65 25.85 37.4 25.9 34.2 25.55 Q32.55 25.0 31.45 23.55 L30.2 21.95 31.2 21.3 31.5 21.55 31.95 21.55 32.15 21.55 32.2 21.55 M28.95 17.3 L28.05 17.4 Q27.35 18.8 27.65 16.7 L27.65 16.65 27.7 16.65 27.8 16.65 27.65 16.7 M31.2 21.3 L31.25 21.35 31.45 21.55 M37.35 25.75 L37.45 25.75 37.5 25.7 37.7 25.8 M37.65 25.75 L37.55 25.75" fill="none" stroke="#000000" stroke-linecap="round" stroke-linejoin="round" stroke-opacity="0.3019608" stroke-width="0.05"/>
      <path d="M32.2 21.55 L32.45 21.4 32.7 21.3 32.8 21.0 Q32.7 20.1 31.15 18.65 30.0 17.65 29.4 17.4 L28.95 17.3" fill="none" stroke="#000000" stroke-linecap="round" stroke-linejoin="round" stroke-opacity="0.4509804" stroke-width="0.05"/>
      <path d="M36.85 25.4 L37.2 25.55 37.35 25.75 M37.65 25.85 L37.45 25.75" fill="none" stroke="#000000" stroke-linecap="round" stroke-linejoin="round" stroke-opacity="0.101960786" stroke-width="0.05"/>
      <path d="M9.3 27.9 L11.35 23.95 12.25 25.0 Q12.9 25.4 13.7 25.6 L12.8 29.8 Q11.9 29.9 10.65 29.1 L9.3 27.9 10.65 29.1 11.15 31.95 Q10.4 31.35 10.15 31.4 10.25 35.15 9.15 36.05 7.95 35.0 7.6 33.7 6.25 33.6 5.1 32.55 5.7 31.3 7.1 30.8 7.45 30.55 7.8 30.55 L8.6 29.1 9.3 27.9 M8.55 30.35 L7.8 30.55 8.55 30.35 M7.7 32.5 L7.6 33.7 7.7 32.5" fill="#cc9d28" fill-rule="evenodd" stroke="none"/>
      <path d="M10.65 29.1 Q11.9 29.9 12.8 29.8 L12.7 29.9 12.65 30.9 12.6 31.1 Q13.3 31.7 13.6 32.35 14.2 33.35 14.2 34.75 L14.15 34.75 Q12.75 35.15 11.3 34.3 10.9 35.6 9.15 36.05 10.25 35.15 10.15 31.4 10.4 31.35 11.15 31.95 L10.65 29.1 M7.1 30.8 Q6.7 30.1 6.6 29.25 L8.6 29.1 7.8 30.55 Q7.45 30.55 7.1 30.8 M11.45 33.35 L11.3 34.3 11.45 33.35" fill="#87681b" fill-rule="evenodd" stroke="none"/>
      <path d="M12.7 29.9 Q13.5 29.95 14.3 30.4 14.2 31.55 13.6 32.35 13.3 31.7 12.6 31.1 L12.65 30.9 12.7 29.9" fill="#523d10" fill-rule="evenodd" stroke="none"/>
      <path d="M12.8 29.8 L13.7 25.6 Q12.9 25.4 12.25 25.0 L11.35 23.95 9.3 27.9 10.65 29.1 Q11.9 29.9 12.8 29.8 L12.7 29.9 Q13.5 29.95 14.3 30.4 14.2 31.55 13.6 32.35 14.2 33.35 14.2 34.75 L14.15 34.75 Q12.75 35.15 11.3 34.3 10.9 35.6 9.15 36.05 7.95 35.0 7.6 33.7 6.25 33.6 5.1 32.55 5.7 31.3 7.1 30.8 6.7 30.1 6.6 29.25 L8.6 29.1 9.3 27.9 M12.7 29.9 L12.65 30.9 12.6 31.1 Q13.3 31.7 13.6 32.35 M11.3 34.3 L11.45 33.35 M8.6 29.1 L7.8 30.55 8.55 30.35 M7.1 30.8 Q7.45 30.55 7.8 30.55 M7.6 33.7 L7.7 32.5" fill="none" stroke="#422e1c" stroke-linecap="round" stroke-linejoin="round" stroke-opacity="0.3019608" stroke-width="0.05"/>
      <path d="M10.6 24.8 L10.7 24.85 10.5 24.95 10.6 24.8" fill="#47ffea" fill-rule="evenodd" stroke="none"/>
      <path d="M15.5 24.4 L15.45 24.3 15.55 24.35 15.5 24.4" fill="#36c4b3" fill-rule="evenodd" stroke="none"/>
      <path d="M10.5 24.95 L10.45 24.95 10.45 24.9 10.5 24.95" fill="#c7b973" fill-rule="evenodd" stroke="none"/>
      <path d="M10.7 24.85 L10.6 24.8 Q11.05 23.7 11.8 22.7 L15.4 24.3 15.15 24.35 13.55 24.55 13.35 24.65 10.7 24.85 M9.45 27.45 L12.05 27.35 12.25 27.25 14.15 27.0 Q13.15 29.0 12.6 30.85 L10.5 30.15 Q9.5 29.45 9.15 28.7 L9.4 27.5 9.45 27.45" fill="#cc9d28" fill-rule="evenodd" stroke="none"/>
      <path d="M15.4 24.3 L11.8 22.7 13.0 21.0 Q15.1 21.65 16.45 23.15 L15.55 24.35 15.45 24.3 15.4 24.3" fill="#523d10" fill-rule="evenodd" stroke="none"/>
      <path d="M10.7 24.85 L13.35 24.65 13.55 24.55 15.15 24.35 15.4 24.3 15.45 24.3 15.5 24.4 14.15 27.0 12.25 27.25 12.05 27.35 9.45 27.45 Q9.8 26.2 10.45 24.95 L10.5 24.95 10.7 24.85" fill="#b88a24" fill-rule="evenodd" stroke="none"/>
      <path d="M10.7 24.85 L13.35 24.65 13.55 24.55 15.15 24.35 15.4 24.3 M10.5 24.95 L10.7 24.85 M9.45 27.45 L12.05 27.35 12.25 27.25 14.15 27.0 M9.4 27.5 L9.45 27.45" fill="none" stroke="#000000" stroke-linecap="round" stroke-linejoin="round" stroke-opacity="0.2" stroke-width="0.05"/>
      <path d="M11.8 22.7 Q11.05 23.7 10.6 24.8 L10.5 24.95 10.45 24.9 10.45 24.95 Q9.8 26.2 9.45 27.45 M14.15 27.0 L15.5 24.4 M11.8 22.7 L13.0 21.0 Q15.1 21.65 16.45 23.15 L15.55 24.35 15.5 24.4 M14.15 27.0 Q13.15 29.0 12.6 30.85 L10.5 30.15 Q9.5 29.45 9.15 28.7 L9.4 27.5" fill="none" stroke="#000000" stroke-linecap="round" stroke-linejoin="round" stroke-opacity="0.4" stroke-width="0.05"/>
      <path d="M19.1 18.6 L16.05 20.4 15.4 23.0 12.55 21.0 12.45 20.55 13.0 18.9 15.5 16.9 18.85 18.3 19.1 18.55 19.1 18.6" fill="#cc9d28" fill-rule="evenodd" stroke="none"/>
      <path d="M12.55 21.0 L15.4 23.0 15.45 23.1 15.95 25.85 13.85 24.85 12.65 22.95 12.55 21.0" fill="#705616" fill-rule="evenodd" stroke="none"/>
      <path d="M15.4 23.0 L16.05 20.4 19.1 18.6 20.2 20.1 18.4 22.45 15.45 23.1 15.4 23.0" fill="#87681b" fill-rule="evenodd" stroke="none"/>
      <path d="M15.45 23.1 L18.4 22.45 20.2 20.1 18.7 23.2 20.4 25.0 19.25 25.8 15.95 25.85 15.45 23.1" fill="#523d10" fill-rule="evenodd" stroke="none"/>
      <path d="M19.1 18.6 L19.1 18.55 18.85 18.3 15.5 16.9 13.0 18.9 12.45 20.55 12.55 21.0 M15.4 23.0 L15.45 23.1 M20.2 20.1 L19.1 18.6 M15.95 25.85 L13.85 24.85 12.65 22.95 12.55 21.0 M15.95 25.85 L19.25 25.8 20.4 25.0 18.7 23.2 20.2 20.1" fill="none" stroke="#000000" stroke-linecap="round" stroke-linejoin="round" stroke-opacity="0.4" stroke-width="0.05"/>
      <path d="M15.4 23.0 L16.05 20.4 19.1 18.6 M15.45 23.1 L15.95 25.85" fill="none" stroke="#000000" stroke-linecap="round" stroke-linejoin="round" stroke-opacity="0.2" stroke-width="0.05"/>
      <path d="M18.55 33.8 L18.5 33.65 18.55 33.7 18.55 33.8" fill="#36c4b3" fill-rule="evenodd" stroke="none"/>
      <path d="M18.5 33.65 L17.7 29.4 19.25 28.9 20.15 27.85 22.1 31.85 20.7 33.0 Q19.5 33.8 18.55 33.7 19.5 33.8 20.7 33.0 L20.1 35.9 Q20.9 35.3 21.15 35.35 20.9 39.15 22.0 40.05 20.25 39.5 19.9 38.3 18.45 39.1 17.0 38.6 17.0 37.25 17.65 36.2 L18.7 35.0 18.7 34.85 18.55 33.8 18.55 33.7 18.5 33.65 M19.75 37.3 L19.9 38.3 19.75 37.3" fill="#cc9d28" fill-rule="evenodd" stroke="none"/>
      <path d="M22.1 31.85 L22.7 33.05 23.55 34.5 24.25 34.75 Q25.7 35.35 26.15 36.65 25.05 37.65 23.6 37.75 23.3 39.1 22.0 40.05 20.9 39.15 21.15 35.35 20.9 35.3 20.1 35.9 L20.7 33.0 22.1 31.85 M17.65 36.2 Q17.05 35.4 17.05 34.2 17.8 33.8 18.55 33.8 L18.7 34.85 18.7 35.0 17.65 36.2 M23.6 37.75 L23.6 36.5 23.6 37.75 M23.55 34.5 L22.8 34.35 23.55 34.5" fill="#87681b" fill-rule="evenodd" stroke="none"/>
      <path d="M22.7 33.05 L24.75 33.35 24.25 34.75 23.55 34.5 22.7 33.05" fill="#523d10" fill-rule="evenodd" stroke="none"/>
      <path d="M18.5 33.65 L17.7 29.4 19.25 28.9 20.15 27.85 22.1 31.85 22.7 33.05 24.75 33.35 24.25 34.75 Q25.7 35.35 26.15 36.65 25.05 37.65 23.6 37.75 23.3 39.1 22.0 40.05 20.25 39.5 19.9 38.3 18.45 39.1 17.0 38.6 17.0 37.25 17.65 36.2 17.05 35.4 17.05 34.2 17.8 33.8 18.55 33.8 L18.5 33.65 18.55 33.7 Q19.5 33.8 20.7 33.0 L22.1 31.85 M18.55 33.8 L18.7 34.85 18.7 35.0 17.65 36.2 M22.7 33.05 L23.55 34.5 24.25 34.75 M22.8 34.35 L23.55 34.5 M23.6 36.5 L23.6 37.75 M19.9 38.3 L19.75 37.3" fill="none" stroke="#422e1c" stroke-linecap="round" stroke-linejoin="round" stroke-opacity="0.3019608" stroke-width="0.05"/>
      <path d="M16.95 28.55 L16.9 28.8 16.85 28.6 16.95 28.55" fill="#47ffe1" fill-rule="evenodd" stroke="none"/>
      <path d="M19.95 24.7 L20.05 24.7 19.95 24.7" fill="#536118" fill-rule="evenodd" stroke="none"/>
      <path d="M16.3 26.0 Q17.9 25.15 19.95 24.7 L19.75 25.0 18.75 26.25 18.7 26.45 Q17.5 27.05 16.95 28.55 L16.85 28.6 16.3 26.0 M17.9 31.7 Q18.45 30.3 19.65 29.65 L19.8 29.5 20.9 27.95 Q21.55 30.3 22.45 32.3 L20.45 33.2 18.55 32.95 17.95 31.75 17.9 31.7" fill="#cc9d28" fill-rule="evenodd" stroke="none"/>
      <path d="M20.05 24.7 L19.95 24.7 Q17.9 25.15 16.3 26.0 L16.0 23.65 Q17.8 22.7 19.8 23.0 L20.05 24.7" fill="#523d10" fill-rule="evenodd" stroke="none"/>
      <path d="M19.95 24.7 L20.05 24.7 Q20.35 26.4 20.9 27.95 L19.8 29.5 19.65 29.65 Q18.45 30.3 17.9 31.7 L16.9 28.8 16.95 28.55 Q17.5 27.05 18.7 26.45 L18.75 26.25 19.75 25.0 19.95 24.7" fill="#ab8022" fill-rule="evenodd" stroke="none"/>
      <path d="M19.95 24.7 L19.75 25.0 18.75 26.25 18.7 26.45 Q17.5 27.05 16.95 28.55 L16.9 28.8 M17.9 31.7 Q18.45 30.3 19.65 29.65 L19.8 29.5 20.9 27.95 M17.95 31.75 L17.9 31.7" fill="none" stroke="#000000" stroke-linecap="round" stroke-linejoin="round" stroke-opacity="0.2" stroke-width="0.05"/>
      <path d="M20.05 24.7 L19.8 23.0 Q17.8 22.7 16.0 23.65 L16.3 26.0 M16.9 28.8 L17.9 31.7 M20.9 27.95 Q20.35 26.4 20.05 24.7 M16.85 28.6 L16.9 28.8 M16.85 28.6 L16.3 26.0 M20.9 27.95 Q21.55 30.3 22.45 32.3 L20.45 33.2 18.55 32.95 17.95 31.75" fill="none" stroke="#000000" stroke-linecap="round" stroke-linejoin="round" stroke-opacity="0.4" stroke-width="0.05"/>
    </g>
    <g id="shape1" transform="matrix(1.0, 0.0, 0.0, 1.0, -0.25, -10.85)">
      <path d="M2.1 15.35 L2.05 15.3 Q5.3 12.7 8.25 11.5 11.85 10.0 13.4 12.0 13.7 13.05 13.05 14.0 L12.15 14.2 Q12.7 11.6 11.0 12.05 8.95 12.6 8.5 13.35 8.35 13.55 8.6 13.85 L8.6 13.9 8.4 14.25 Q5.3 15.2 3.05 15.3 L2.35 15.35 2.1 15.35" fill="#7c9124" fill-rule="evenodd" stroke="none"/>
      <path d="M2.1 15.35 L2.35 15.35 3.05 15.3 Q5.3 15.2 8.4 14.25 7.85 14.95 7.75 16.0 L7.7 16.45 5.2 16.65 Q3.65 16.35 2.25 15.5 L2.1 15.35" fill="#58701c" fill-rule="evenodd" stroke="none"/>
      <path d="M12.15 14.2 L13.05 14.0 Q13.7 13.05 13.4 12.0 11.85 10.0 8.25 11.5 5.3 12.7 2.05 15.3 L2.1 15.35 2.25 15.5 Q3.65 16.35 5.2 16.65 L7.7 16.45" fill="none" stroke="#000000" stroke-linecap="round" stroke-linejoin="round" stroke-opacity="0.3019608" stroke-width="0.05"/>
      <path d="M2.1 15.35 L2.35 15.35 3.05 15.3 Q5.3 15.2 8.4 14.25" fill="none" stroke="#000000" stroke-linecap="round" stroke-linejoin="round" stroke-opacity="0.101960786" stroke-width="0.05"/>
      <path d="M8.6 13.9 L8.6 13.85 Q8.35 13.55 8.5 13.35 8.95 12.6 11.0 12.05 12.7 11.6 12.15 14.2 Z" fill="none" stroke="#000000" stroke-linecap="round" stroke-linejoin="round" stroke-opacity="0.4509804" stroke-width="0.05"/>
      <path d="M25.8 18.5 L25.75 18.5 25.8 18.5 25.75 18.5 Q24.75 17.1 24.4 16.85 L25.55 16.7 Q28.9 16.7 32.05 21.1 34.5 24.5 36.35 29.9 L36.25 29.9 35.9 29.7 35.2 29.2 Q32.5 27.35 29.6 23.65 L30.0 23.5 30.45 23.0 Q30.45 21.8 28.55 19.8 26.75 17.85 25.9 17.75 L25.9 18.5 25.8 18.5" fill="#7c9124" fill-rule="evenodd" stroke="none"/>
      <path d="M24.4 16.85 Q24.75 17.1 25.75 18.5 L24.75 18.7 24.25 16.85 24.35 16.85 24.4 16.85 M36.25 29.9 L35.9 29.95 Q33.75 29.95 31.8 29.15 29.7 28.2 28.4 26.25 L27.0 23.9 28.4 23.3 28.7 23.55 29.3 23.65 29.5 23.65 29.6 23.65 Q32.5 27.35 35.2 29.2 L35.9 29.7 36.25 29.9" fill="#58701c" fill-rule="evenodd" stroke="none"/>
      <path d="M25.75 18.5 L25.8 18.5 25.75 18.5 Q24.75 17.1 24.4 16.85 L24.35 16.85 24.25 16.85 24.75 18.7 25.75 18.5 M25.9 17.75 L25.9 18.5 25.8 18.5 M24.25 16.85 L24.25 16.8 24.25 16.75 24.35 16.8 24.4 16.85 25.55 16.7 Q28.9 16.7 32.05 21.1 34.5 24.5 36.35 29.9 L36.25 29.9 35.9 29.95 Q33.75 29.95 31.8 29.15 29.7 28.2 28.4 26.25 L27.0 23.9 28.4 23.3 28.7 23.55 29.3 23.65 29.5 23.65 29.6 23.65" fill="none" stroke="#000000" stroke-linecap="round" stroke-linejoin="round" stroke-opacity="0.3019608" stroke-width="0.05"/>
      <path d="M29.6 23.65 Q32.5 27.35 35.2 29.2 L35.9 29.7 36.25 29.9" fill="none" stroke="#000000" stroke-linecap="round" stroke-linejoin="round" stroke-opacity="0.101960786" stroke-width="0.05"/>
      <path d="M29.6 23.65 L30.0 23.5 30.45 23.0 Q30.45 21.8 28.55 19.8 26.75 17.85 25.9 17.75" fill="none" stroke="#000000" stroke-linecap="round" stroke-linejoin="round" stroke-opacity="0.4509804" stroke-width="0.05"/>
      <path d="M26.6 24.5 L26.8 24.3 Q27.2 23.35 26.35 21.1 L25.25 19.0 24.85 18.65 23.9 18.3 Q22.55 19.35 23.85 17.45 L23.9 17.4 24.05 17.45 25.0 17.7 Q26.4 18.3 27.35 19.85 28.2 21.15 28.7 23.3 29.55 26.75 29.25 31.5 L29.25 31.55 29.2 31.55 28.95 31.45 Q27.25 30.8 25.95 29.5 24.6 28.15 24.25 26.15 L23.8 23.9 25.1 23.8 25.1 23.85 25.2 24.2 25.7 25.7 Q26.75 28.25 28.65 30.7 L28.9 31.0 29.0 31.25 29.1 31.35 29.15 31.35 29.2 31.4 Q27.35 27.65 26.6 24.5 M29.25 31.5 L29.2 31.4 29.25 31.5 M29.25 31.55 L29.15 31.35 29.25 31.55 M29.1 31.35 L29.2 31.55 29.1 31.35" fill="#ffa4a4" fill-rule="evenodd" stroke="none"/>
      <path d="M25.25 24.15 L25.75 24.4 25.9 24.45 25.95 24.5 26.3 24.5 26.6 24.5 Q27.35 27.65 29.2 31.4 L29.15 31.35 29.1 31.35 29.0 31.25 28.9 31.0 28.65 30.7 Q26.75 28.25 25.7 25.7 L25.2 24.2 25.25 24.15" fill="#c23e3e" fill-rule="evenodd" stroke="none"/>
      <path d="M25.1 23.8 L25.25 24.15 25.2 24.2 25.1 23.85 25.1 23.8" fill="#de6464" fill-rule="evenodd" stroke="none"/>
      <path d="M24.85 18.65 L23.9 18.3 Q22.55 19.35 23.85 17.45 L23.9 17.4 23.9 17.35 24.0 17.4 24.05 17.45 25.0 17.7 Q26.4 18.3 27.35 19.85 28.2 21.15 28.7 23.3 29.55 26.75 29.25 31.5 L29.25 31.55 29.2 31.55 28.95 31.45 Q27.25 30.8 25.95 29.5 24.6 28.15 24.25 26.15 L23.8 23.9 25.1 23.8 25.25 24.15 25.75 24.4 25.9 24.45 25.95 24.5 M29.2 31.4 L29.25 31.5 M23.9 17.4 L24.05 17.45 M25.1 23.8 L25.1 23.85 25.2 24.2 M29.0 31.25 L29.1 31.35 29.15 31.35 29.25 31.55" fill="none" stroke="#000000" stroke-linecap="round" stroke-linejoin="round" stroke-opacity="0.3019608" stroke-width="0.05"/>
      <path d="M26.6 24.5 L26.8 24.3 Q27.2 23.35 26.35 21.1 L25.25 19.0 24.85 18.65 M25.95 24.5 L26.3 24.5 26.6 24.5" fill="none" stroke="#000000" stroke-linecap="round" stroke-linejoin="round" stroke-opacity="0.4509804" stroke-width="0.05"/>
      <path d="M28.65 30.7 L28.9 31.0 29.0 31.25 M29.2 31.55 L29.1 31.35" fill="none" stroke="#000000" stroke-linecap="round" stroke-linejoin="round" stroke-opacity="0.101960786" stroke-width="0.05"/>
      <path d="M22.5 20.1 L22.55 20.1 22.5 20.1 M22.55 20.1 L22.4 18.25 23.35 18.7 Q25.9 20.35 25.95 25.05 26.05 28.75 24.6 33.6 L24.5 33.55 24.35 33.25 24.1 32.5 Q23.0 29.85 22.75 25.8 L23.15 25.85 23.75 25.7 Q24.4 24.85 24.0 22.4 23.65 20.15 23.0 19.6 L22.65 20.15 22.55 20.1 M22.3 18.2 L22.25 18.15 22.3 18.2" fill="#7c9124" fill-rule="evenodd" stroke="none"/>
      <path d="M22.55 20.1 L22.5 20.1 21.65 19.75 22.25 18.15 22.3 18.2 22.35 18.25 22.4 18.25 22.55 20.1 M24.5 33.55 L24.25 33.4 Q22.6 32.35 21.55 30.85 20.4 29.1 20.5 27.05 L20.65 24.65 22.0 24.9 22.1 25.25 22.55 25.65 22.65 25.75 22.75 25.8 Q23.0 29.85 24.1 32.5 L24.35 33.25 24.5 33.55" fill="#58701c" fill-rule="evenodd" stroke="none"/>
      <path d="M22.5 20.1 L22.55 20.1 22.4 18.25 22.35 18.25 22.3 18.2 M22.25 18.15 L21.65 19.75 22.5 20.1 M23.0 19.6 L22.65 20.15 22.55 20.1 M22.25 18.15 L22.3 18.2 M22.25 18.15 L22.35 18.15 22.35 18.1 22.4 18.2 22.4 18.25 23.35 18.7 Q25.9 20.35 25.95 25.05 26.05 28.75 24.6 33.6 L24.5 33.55 24.25 33.4 Q22.6 32.35 21.55 30.85 20.4 29.1 20.5 27.05 L20.65 24.65 22.0 24.9 22.1 25.25 22.55 25.65 22.65 25.75 22.75 25.8" fill="none" stroke="#000000" stroke-linecap="round" stroke-linejoin="round" stroke-opacity="0.3019608" stroke-width="0.05"/>
      <path d="M22.75 25.8 Q23.0 29.85 24.1 32.5 L24.35 33.25 24.5 33.55" fill="none" stroke="#000000" stroke-linecap="round" stroke-linejoin="round" stroke-opacity="0.101960786" stroke-width="0.05"/>
      <path d="M22.75 25.8 L23.15 25.85 23.75 25.7 Q24.4 24.85 24.0 22.4 23.65 20.15 23.0 19.6" fill="none" stroke="#000000" stroke-linecap="round" stroke-linejoin="round" stroke-opacity="0.4509804" stroke-width="0.05"/>
      <path d="M0.25 24.05 Q2.15 19.7 4.45 17.0 5.85 15.35 7.2 14.55 8.75 13.6 10.3 13.75 L11.25 13.95 11.4 13.95 11.4 14.0 Q11.75 16.25 11.0 14.75 L9.95 14.65 9.4 14.75 7.55 16.1 Q5.8 17.7 5.65 18.75 L5.8 19.05 Q3.65 21.55 0.35 24.0 L0.25 24.05 0.35 24.0 0.4 24.0 0.25 24.1 0.4 24.0 0.55 23.95 0.75 23.8 1.15 23.6 Q3.95 22.3 6.05 20.5 L7.1 19.35 7.25 19.3 7.65 18.9 7.6 19.05 7.25 19.3 7.6 19.05 8.25 20.15 7.1 21.6 Q5.9 23.2 4.05 23.75 L0.5 24.15 0.3 24.15 0.25 24.1 0.25 24.05 M0.3 24.15 L0.4 24.0 0.3 24.15" fill="#ffa4a4" fill-rule="evenodd" stroke="none"/>
      <path d="M0.35 24.0 Q3.65 21.55 5.8 19.05 L6.05 19.2 6.3 19.35 6.45 19.35 6.6 19.35 7.1 19.35 6.05 20.5 Q3.95 22.3 1.15 23.6 L0.75 23.8 0.55 23.95 0.4 24.0 0.35 24.0" fill="#c23e3e" fill-rule="evenodd" stroke="none"/>
      <path d="M7.25 19.3 L7.1 19.35 7.25 19.3" fill="#de6464" fill-rule="evenodd" stroke="none"/>
      <path d="M9.95 14.65 L11.0 14.75 Q11.75 16.25 11.4 14.0 L11.4 13.95 11.25 13.95 10.3 13.75 Q8.75 13.6 7.2 14.55 5.85 15.35 4.45 17.0 2.15 19.7 0.25 24.05 L0.35 24.0 M11.4 13.95 L11.4 13.9 11.35 13.9 11.25 13.95 M7.6 19.05 L7.65 18.9 7.25 19.3 7.6 19.05 8.25 20.15 7.1 21.6 Q5.9 23.2 4.05 23.75 L0.5 24.15 0.3 24.15 0.25 24.1 0.25 24.05 M7.1 19.35 L6.6 19.35 6.45 19.35 6.3 19.35 M7.1 19.35 L7.25 19.3 7.1 19.35 M0.55 23.95 L0.4 24.0 M0.25 24.1 L0.4 24.0" fill="none" stroke="#000000" stroke-linecap="round" stroke-linejoin="round" stroke-opacity="0.3019608" stroke-width="0.05"/>
      <path d="M5.8 19.05 L5.65 18.75 Q5.8 17.7 7.55 16.1 L9.4 14.75 9.95 14.65 M6.3 19.35 L6.05 19.2 5.8 19.05" fill="none" stroke="#000000" stroke-linecap="round" stroke-linejoin="round" stroke-opacity="0.4509804" stroke-width="0.05"/>
      <path d="M1.15 23.6 L0.75 23.8 0.55 23.95 M0.4 24.0 L0.3 24.15" fill="none" stroke="#000000" stroke-linecap="round" stroke-linejoin="round" stroke-opacity="0.101960786" stroke-width="0.05"/>
      <path d="M11.7 16.55 L11.7 16.5 11.65 16.55 11.7 16.5 12.8 14.8 11.65 14.7 Q8.25 14.85 5.5 19.45 3.35 23.0 2.1 28.55 L2.2 28.55 2.5 28.35 3.15 27.75 Q5.7 25.75 8.3 21.95 L7.85 21.8 7.35 21.3 Q7.25 20.1 8.9 18.0 10.5 15.95 11.45 15.8 L11.55 16.5 11.65 16.55 11.7 16.55 M12.95 14.8 L13.0 14.85 13.0 14.8 12.95 14.8" fill="#7c9124" fill-rule="evenodd" stroke="none"/>
      <path d="M11.7 16.5 L11.7 16.55 12.7 16.7 13.0 14.85 12.95 14.8 12.85 14.8 12.8 14.8 11.7 16.5 M2.2 28.55 L2.5 28.6 Q4.7 28.5 6.6 27.55 8.65 26.5 9.75 24.5 L10.95 22.05 9.5 21.45 9.15 21.8 8.6 21.9 8.4 21.95 8.3 21.95 Q5.7 25.75 3.15 27.75 L2.5 28.35 2.2 28.55" fill="#58701c" fill-rule="evenodd" stroke="none"/>
      <path d="M11.7 16.55 L11.65 16.55 11.7 16.5 12.8 14.8 12.85 14.8 12.95 14.8 M13.0 14.85 L12.7 16.7 11.7 16.55 M11.45 15.8 L11.55 16.5 11.65 16.55 M13.0 14.8 L12.95 14.8 M13.0 14.8 L12.95 14.75 12.95 14.7 12.85 14.75 12.8 14.8 11.65 14.7 Q8.25 14.85 5.5 19.45 3.35 23.0 2.1 28.55 L2.2 28.55 2.5 28.6 Q4.7 28.5 6.6 27.55 8.65 26.5 9.75 24.5 L10.95 22.05 9.5 21.45 9.15 21.8 8.6 21.9 8.4 21.95 8.3 21.95 M13.0 14.85 L13.0 14.8" fill="none" stroke="#000000" stroke-linecap="round" stroke-linejoin="round" stroke-opacity="0.3019608" stroke-width="0.05"/>
      <path d="M8.3 21.95 Q5.7 25.75 3.15 27.75 L2.5 28.35 2.2 28.55" fill="none" stroke="#000000" stroke-linecap="round" stroke-linejoin="round" stroke-opacity="0.101960786" stroke-width="0.05"/>
      <path d="M8.3 21.95 L7.85 21.8 7.35 21.3 Q7.25 20.1 8.9 18.0 10.5 15.95 11.45 15.8" fill="none" stroke="#000000" stroke-linecap="round" stroke-linejoin="round" stroke-opacity="0.4509804" stroke-width="0.05"/>
    </g>
  </defs>
</svg>
