<?xml version="1.0" encoding="UTF-8" standalone="no"?>
<svg xmlns:xlink="http://www.w3.org/1999/xlink" height="440.0px" width="440.0px" xmlns="http://www.w3.org/2000/svg">
  <g transform="matrix(10.0, 0.0, 0.0, 10.0, 0.0, 0.0)">
    <use height="44.0" transform="matrix(1.0, 0.0, 0.0, 1.0, 0.0, 0.0)" width="44.0" xlink:href="#shape0"/>
  </g>
  <defs>
    <g id="shape0" transform="matrix(1.0, 0.0, 0.0, 1.0, 0.0, 0.0)">
      <path d="M44.0 44.0 L0.0 44.0 0.0 0.0 44.0 0.0 44.0 44.0" fill="#43adca" fill-opacity="0.0" fill-rule="evenodd" stroke="none"/>
      <path d="M3.9 19.65 L3.85 18.9 Q3.75 16.25 5.25 13.45 L5.25 13.05 5.25 12.85 Q5.2 11.25 4.1 9.45 2.85 7.3 1.0 7.35 L1.9 6.75 2.35 6.35 Q3.65 6.85 5.0 8.35 5.9 9.35 6.3 10.85 L6.3 10.95 6.35 11.15 6.45 11.45 6.55 11.25 6.85 10.9 6.9 10.8 7.3 10.25 Q7.7 9.75 8.5 9.4 L10.65 8.8 12.7 8.6 15.35 8.65 Q19.15 8.9 23.75 10.15 L25.25 10.5 Q30.55 12.15 34.65 14.35 L37.3 15.9 Q41.35 18.45 41.95 20.75 L41.9 20.85 41.95 21.0 41.95 21.15 42.05 21.5 41.9 24.6 Q41.45 27.2 39.95 29.6 L39.5 30.25 39.45 30.3 39.15 30.8 38.75 31.2 Q37.8 31.85 36.05 32.15 L31.25 32.35 30.35 32.35 29.85 32.3 29.65 32.25 28.75 32.2 26.75 31.95 25.95 31.8 25.45 31.6 24.95 31.5 23.35 31.2 23.05 31.15 22.2 30.95 Q22.15 32.85 21.65 34.3 20.75 33.15 19.45 32.4 19.15 32.25 13.65 29.8 L13.55 28.75 13.65 28.05 13.0 27.65 12.85 27.9 12.5 29.25 11.45 28.8 Q8.05 27.25 6.45 23.55 L6.3 23.45 Q4.7 22.05 4.1 20.85 L4.0 20.45 M39.2 20.15 L39.15 20.2 Q34.5 15.9 26.35 13.45 18.5 11.1 13.5 11.0 L13.15 11.0 12.15 11.05 11.25 11.05 9.15 11.35 9.0 11.4 Q8.35 11.55 7.85 11.8 7.2 12.05 6.8 12.45 7.55 14.15 9.0 15.4 10.3 16.65 13.3 18.1 L13.6 18.1 15.9 18.35 17.05 18.55 23.1 19.95 24.35 20.35 24.95 20.55 26.85 21.3 27.6 21.55 Q30.8 22.75 33.55 24.4 L33.6 24.4 34.15 24.45 35.7 24.4 36.05 24.4 37.25 24.35 38.25 24.2 38.4 24.15 38.65 24.15 39.3 24.05 39.8 23.9 40.1 23.75 41.1 23.05 41.2 23.05 41.3 22.9 41.25 22.8 Q40.85 21.6 39.3 20.25 L39.2 20.15 M13.3 18.1 L14.65 18.7 Q16.1 19.4 17.35 20.6 L21.5 22.1 22.55 22.4 22.9 22.5 25.45 23.25 27.75 23.7 27.85 23.7 28.35 23.85 28.45 23.9 28.55 23.9 29.0 24.0 29.05 24.0 29.0 23.95 29.95 24.1 31.05 24.2 33.0 24.3 33.55 24.4 31.1 24.25 29.95 24.15 29.05 24.0 M33.2 25.25 L32.3 25.4 32.1 25.6 31.7 26.15 31.6 26.9 31.6 27.1 31.7 27.05 32.15 26.9 32.05 25.95 33.05 26.0 33.4 25.45 33.2 25.25 M34.15 24.45 L33.4 25.45 33.7 26.0 Q33.9 26.4 33.7 26.95 L33.65 27.1 33.65 27.3 34.0 27.55 M33.05 26.0 L33.5 26.45 33.65 27.1 M33.65 27.3 L33.7 27.8 33.65 29.0 Q33.5 30.05 32.85 31.0 L32.4 31.45 32.25 31.6 32.7 31.95 M37.05 25.45 Q36.85 25.9 37.0 26.4 L37.5 26.2 37.3 25.2 Q38.05 25.0 38.5 25.2 L38.75 24.8 38.5 24.55 37.65 24.7 37.4 24.85 37.05 25.45 M37.0 26.4 L37.0 26.45 Q37.15 26.95 37.55 27.15 L37.5 26.2 M37.0 26.4 L36.45 26.65 M37.4 24.85 L37.25 24.35 M32.1 25.6 L31.95 24.95 M31.6 27.1 L31.65 27.15 32.05 27.75 32.1 27.75 32.15 26.95 32.15 26.9 M31.6 27.1 L31.1 27.4 M30.7 31.25 L30.3 31.5 30.35 31.55 30.4 31.7 Q30.5 32.1 30.85 32.2 L31.7 32.15 32.25 31.6 32.2 31.6 30.8 31.65 31.05 31.1 31.6 29.65 Q31.4 29.65 31.15 29.8 L30.95 30.0 30.5 30.55 30.3 31.5 29.8 31.8 M31.6 29.65 L31.75 29.05 32.05 27.85 32.1 27.75 M30.85 29.35 L30.95 30.0 M32.4 31.45 L32.2 31.6 M36.65 28.55 L36.85 29.15 37.1 29.0 37.3 28.9 37.4 28.25 37.55 27.15 M36.85 29.15 L36.5 29.75 Q36.3 30.2 36.45 30.7 L36.95 30.55 37.3 28.9 M36.45 30.7 L36.45 30.75 Q36.6 31.3 37.05 31.45 L37.8 31.35 38.3 30.9 38.15 30.75 Q37.45 31.3 36.8 31.0 L36.95 30.55 M36.45 30.7 L35.9 30.95 M41.3 22.9 L41.35 22.85 41.7 22.35 41.75 22.0 41.95 21.55 41.7 22.35 M38.5 25.2 L38.8 25.5 39.05 26.2 Q39.2 25.75 39.0 25.3 L38.75 24.8 39.3 24.05 M39.05 26.2 L39.2 26.85 39.3 28.05 38.75 30.1 38.55 30.4 38.45 30.6 38.3 30.9 38.75 31.2 M38.55 30.4 Q38.3 30.6 38.15 30.75 M6.3 10.95 L6.2 11.85 6.15 12.1 6.15 12.35 Q5.85 15.45 6.55 17.25 7.25 19.0 8.6 20.5 L8.85 20.8 9.05 21.05 9.2 21.15 9.3 21.25 10.0 21.95 10.85 22.6 14.35 25.15 17.8 27.9 20.05 30.35 Q21.4 32.25 21.65 34.3 M17.35 20.6 Q18.8 21.95 20.0 23.9 L18.6 23.65 17.05 24.0 Q16.05 24.35 15.8 24.65 L16.4 24.5 17.75 24.4 18.65 24.55 18.7 24.6 20.9 25.5 Q22.2 28.25 22.2 30.55 L22.2 30.95 M13.65 28.05 L13.8 27.45 14.05 26.5 14.05 26.35 13.0 27.65 M6.45 11.45 L6.65 12.1 6.65 12.05 Q6.6 11.7 6.7 11.3 L6.85 10.9 M6.45 23.55 L6.25 23.05 Q5.15 20.3 5.15 16.8 5.15 15.55 5.3 14.65 L5.25 13.45 M6.65 12.1 L6.8 12.45 M5.3 14.65 L5.7 16.5 Q6.7 19.0 9.05 21.05" fill="none" stroke="#000000" stroke-linecap="round" stroke-linejoin="round" stroke-opacity="0.15294118" stroke-width="0.7000000000000001"/>
      <path d="M9.0 15.6 L9.25 15.8 9.35 15.9 9.4 15.9 9.4 16.0 9.0 15.6" fill="#9e653f" fill-rule="evenodd" stroke="none"/>
      <path d="M39.2 20.1 L39.2 20.15 39.15 20.15 39.2 20.1" fill="#6c2206" fill-rule="evenodd" stroke="none"/>
      <path d="M38.4 24.1 L38.25 24.15 38.25 24.1 38.4 24.1" fill="#6b3c0d" fill-rule="evenodd" stroke="none"/>
      <path d="M6.0 12.05 L6.15 11.85 6.15 12.05 6.0 12.05" fill="#9e5e1f" fill-rule="evenodd" stroke="none"/>
      <path d="M29.0 23.95 L28.45 23.85 29.0 23.9 29.0 23.95" fill="#8a521b" fill-rule="evenodd" stroke="none"/>
      <path d="M23.35 31.15 L23.05 31.1 23.25 31.0 23.35 31.15 M41.95 21.5 L41.7 22.3 41.75 21.95 41.95 21.5 M39.8 23.85 L38.65 24.1 38.4 24.1 38.25 24.1 39.8 23.85 M33.55 24.35 L31.1 24.2 29.95 24.1 29.05 23.95 29.0 23.9 29.05 23.95 29.0 23.95 29.0 23.9 29.95 24.05 31.05 24.15 33.0 24.25 33.55 24.35 M18.9 24.35 L19.15 24.45 18.55 24.6 Q18.65 24.45 18.9 24.35" fill="#704316" fill-rule="evenodd" stroke="none"/>
      <path d="M12.95 16.3 L13.0 16.4 12.95 16.35 12.95 16.3" fill="#2e1905" fill-rule="evenodd" stroke="none"/>
      <path d="M41.35 22.8 L41.3 22.85 41.25 22.75 41.35 22.8" fill="#3b2107" fill-rule="evenodd" stroke="none"/>
      <path d="M9.4 15.9 L11.05 17.15 9.4 16.0 9.4 15.9" fill="#331c06" fill-rule="evenodd" stroke="none"/>
      <path d="M41.95 21.1 L42.05 21.45 41.95 21.5 41.9 21.3 41.95 21.1 M29.85 32.25 L29.65 32.2 29.85 32.1 29.85 32.25" fill="#593511" fill-rule="evenodd" stroke="none"/>
      <path d="M9.25 15.8 L9.4 15.9 9.35 15.9 9.25 15.8" fill="#261404" fill-rule="evenodd" stroke="none"/>
      <path d="M6.15 11.85 L6.35 11.5 6.55 11.2 6.85 10.85 6.7 11.25 Q6.6 11.65 6.65 12.0 L6.7 12.5 Q7.0 13.55 8.05 14.7 L8.9 15.5 9.0 15.6 9.4 16.0 11.05 17.15 11.6 17.55 11.9 17.7 12.3 17.95 12.55 18.1 15.6 19.75 15.4 20.55 12.35 18.9 12.1 18.75 11.6 18.45 11.25 18.35 9.0 16.65 8.6 16.25 8.3 16.0 7.95 15.7 Q6.55 14.35 6.25 13.1 6.05 12.85 6.15 12.65 L6.15 12.05 6.15 11.85" fill="#d4a32a" fill-rule="evenodd" stroke="none"/>
      <path d="M13.65 28.0 L13.0 27.6 11.25 26.7 10.0 25.95 9.7 25.8 9.3 25.55 8.95 25.4 6.7 23.65 6.3 23.4 Q4.7 22.0 4.1 20.8 L4.0 20.4 4.0 20.25 3.9 19.8 3.9 19.6 3.85 18.85 Q3.75 15.6 6.0 12.05 L6.15 12.05 6.15 12.65 Q6.05 12.85 6.25 13.1 6.55 14.35 7.95 15.7 L8.3 16.0 8.6 16.25 9.0 16.65 11.25 18.35 11.6 18.45 12.1 18.75 12.35 18.9 15.4 20.55 13.65 28.0" fill="#cc9528" fill-rule="evenodd" stroke="none"/>
      <path d="M42.05 21.45 L41.9 24.55 Q41.45 27.15 39.95 29.55 L39.5 30.2 39.45 30.25 39.15 30.75 Q38.25 31.75 36.05 32.1 L31.25 32.3 30.35 32.3 29.85 32.25 29.85 32.1 31.9 30.0 Q33.25 28.0 29.65 24.55 L29.05 23.95 29.95 24.1 31.1 24.2 33.55 24.35 33.6 24.35 35.7 24.35 36.05 24.35 38.25 24.15 38.4 24.1 38.65 24.1 39.8 23.85 40.1 23.7 41.1 23.0 41.2 23.0 41.3 22.85 41.35 22.8 41.7 22.3 41.95 21.5 42.05 21.45 M24.95 31.45 L23.35 31.15 23.25 31.0 23.05 31.1 20.4 30.4 20.05 30.3 16.35 29.0 15.35 28.65 13.9 28.05 13.65 28.0 15.4 20.55 15.6 19.75 Q18.25 21.0 21.5 22.05 L22.75 23.85 21.35 23.6 19.8 23.95 18.9 24.35 Q18.65 24.45 18.55 24.6 L19.15 24.45 20.5 24.35 Q21.35 24.35 23.65 25.45 24.95 28.2 24.95 30.5 L24.95 31.45" fill="#805d19" fill-rule="evenodd" stroke="none"/>
      <path d="M41.85 20.5 L41.95 20.7 41.9 20.8 41.95 20.95 41.95 21.1 41.9 21.3 41.95 21.5 41.75 21.95 41.7 22.3 41.35 22.8 41.25 22.75 Q40.85 21.55 39.3 20.2 L39.2 20.1 39.15 20.15 Q34.5 15.85 26.35 13.4 18.5 11.05 13.5 10.95 14.2 9.7 15.35 8.6 19.15 8.85 23.75 10.1 L25.25 10.45 Q30.55 12.1 34.65 14.3 L37.3 15.85 Q41.35 18.4 41.85 20.5" fill="#66460e" fill-rule="evenodd" stroke="none"/>
      <path d="M6.85 10.85 L6.9 10.75 7.3 10.2 Q7.7 9.7 8.5 9.35 L10.65 8.75 12.7 8.55 15.35 8.6 Q14.2 9.7 13.5 10.95 18.5 11.05 26.35 13.4 34.5 15.85 39.15 20.15 L39.2 20.15 39.2 20.1 39.3 20.2 Q40.85 21.55 41.25 22.75 L41.3 22.85 41.2 23.0 41.1 23.0 40.1 23.7 39.8 23.85 38.25 24.1 38.25 24.15 36.05 24.35 35.7 24.35 33.6 24.35 33.55 24.35 Q30.8 22.7 27.6 21.5 L26.85 21.25 24.95 20.5 24.35 20.3 23.1 19.9 17.05 18.5 15.9 18.3 13.6 18.05 13.0 16.4 12.95 16.3 Q12.2 13.4 13.5 10.95 L13.15 10.95 12.15 11.0 11.25 11.0 9.15 11.3 9.0 11.35 Q8.35 11.5 7.85 11.75 L6.7 12.5 6.65 12.0 Q6.6 11.65 6.7 11.25 L6.85 10.85" fill="#422d09" fill-rule="evenodd" stroke="none"/>
      <path d="M13.5 10.95 Q12.2 13.4 12.95 16.3 L12.95 16.35 13.0 16.4 13.6 18.05 12.3 17.95 11.9 17.7 11.6 17.55 11.05 17.15 9.4 15.9 9.25 15.8 9.0 15.6 8.9 15.5 8.05 14.7 Q7.0 13.55 6.7 12.5 L7.85 11.75 Q8.35 11.5 9.0 11.35 L9.15 11.3 11.25 11.0 12.15 11.0 13.15 10.95 13.5 10.95" fill="#302106" fill-rule="evenodd" stroke="none"/>
      <path d="M29.65 32.2 L28.75 32.15 26.75 31.9 25.95 31.75 25.45 31.55 24.95 31.45 24.95 30.5 Q24.95 28.2 23.65 25.45 21.35 24.35 20.5 24.35 L19.15 24.45 18.9 24.35 19.8 23.95 21.35 23.6 22.75 23.85 21.5 22.05 22.55 22.35 22.9 22.45 25.45 23.2 27.75 23.65 27.85 23.65 28.35 23.8 28.45 23.85 29.0 23.95 29.05 23.95 29.65 24.55 Q33.25 28.0 31.9 30.0 L29.85 32.1 29.65 32.2" fill="#b88424" fill-rule="evenodd" stroke="none"/>
      <path d="M41.95 20.7 L41.9 20.8 41.95 20.95 41.95 21.1 42.05 21.45 41.9 24.55 Q41.45 27.15 39.95 29.55 L39.5 30.2 39.45 30.25 39.15 30.75 Q38.25 31.75 36.05 32.1 L31.25 32.3 30.35 32.3 29.85 32.25 29.65 32.2 28.75 32.15 26.75 31.9 25.95 31.75 25.45 31.55 24.95 31.45 23.35 31.15 23.05 31.1 20.4 30.4 20.05 30.3 16.35 29.0 15.35 28.65 13.9 28.05 13.65 28.0 13.0 27.6 11.25 26.7 10.0 25.95 9.7 25.8 9.3 25.55 8.95 25.4 6.7 23.65 6.3 23.4 Q4.7 22.0 4.1 20.8 L4.0 20.4 M3.9 19.6 L3.85 18.85 Q3.75 15.6 6.0 12.05 L6.15 11.85 M6.35 11.5 L6.55 11.2 6.85 10.85 6.9 10.75 7.3 10.2 Q7.7 9.7 8.5 9.35 L10.65 8.75 12.7 8.55 15.35 8.6 Q19.15 8.85 23.75 10.1 L25.25 10.45 Q30.55 12.1 34.65 14.3 L37.3 15.85 Q41.35 18.4 41.85 20.5 M41.9 21.3 L41.95 21.5 41.7 22.3 41.35 22.8 41.3 22.85 41.2 23.0 41.1 23.0 40.1 23.7 39.8 23.85 38.65 24.1 38.4 24.1 38.25 24.15 36.05 24.35 35.7 24.35 33.6 24.35 33.55 24.35 31.1 24.2 29.95 24.1 29.05 23.95 29.0 23.95 28.45 23.85 28.35 23.8 27.85 23.65 27.75 23.65 25.45 23.2 22.9 22.45 22.55 22.35 21.5 22.05 M13.6 18.05 L15.9 18.3 17.05 18.5 23.1 19.9 24.35 20.3 24.95 20.5 26.85 21.25 27.6 21.5 Q30.8 22.7 33.55 24.35 L33.0 24.25 31.05 24.15 29.95 24.05 29.0 23.9 29.05 23.95 M41.7 22.3 L41.75 21.95 41.95 21.5 M39.2 20.1 L39.15 20.15 M38.25 24.1 L38.4 24.1 M6.7 12.5 Q7.0 13.55 8.05 14.7 L8.9 15.5 9.0 15.6 9.25 15.8 9.35 15.9 9.4 15.9 9.4 16.0 11.05 17.15 11.6 17.55 11.9 17.7 12.3 17.95 13.6 18.05 M6.7 12.5 L6.65 12.0 Q6.6 11.65 6.7 11.25 L6.85 10.85 M9.4 16.0 L9.0 15.6 M12.3 17.95 L12.55 18.1 15.6 19.75 Q18.25 21.0 21.5 22.05" fill="none" stroke="#000000" stroke-linecap="round" stroke-linejoin="round" stroke-opacity="0.3019608" stroke-width="0.05"/>
      <path d="M41.3 22.85 L41.25 22.75 Q40.85 21.55 39.3 20.2 L39.2 20.1 M39.15 20.15 Q34.5 15.85 26.35 13.4 18.5 11.05 13.5 10.95 L13.15 10.95 12.15 11.0 11.25 11.0 9.15 11.3 9.0 11.35 Q8.35 11.5 7.85 11.75 L6.7 12.5" fill="none" stroke="#704316" stroke-linecap="round" stroke-linejoin="round" stroke-opacity="0.6627451" stroke-width="0.05"/>
      <path d="M31.6 27.05 L31.7 26.1 32.1 25.55 32.3 25.35 33.2 25.2 33.4 25.4 33.7 25.95 Q33.9 26.35 33.7 26.9 L33.55 27.15 33.05 27.7 32.2 27.75 Q31.8 27.65 31.65 27.1 L31.6 27.05 31.95 26.85 31.6 27.05 M33.1 26.95 L33.55 27.15 33.1 26.95 M33.4 25.4 L33.1 25.85 33.4 25.4" fill="#2e1d0e" fill-rule="evenodd" stroke="none"/>
      <path d="M33.4 25.4 L33.2 25.2 32.3 25.35 32.1 25.55 31.7 26.1 31.6 27.05 31.95 26.85 M32.1 25.55 L31.95 24.9 M31.6 27.05 L31.1 27.35 M31.6 27.05 L31.65 27.1 Q31.8 27.65 32.2 27.75 L33.05 27.7 33.55 27.15 33.1 26.95 M33.4 25.4 L33.7 25.95 Q33.9 26.35 33.7 26.9 L33.55 27.15 34.0 27.5 M33.1 25.85 L33.4 25.4 34.15 24.35" fill="none" stroke="#000000" stroke-linecap="round" stroke-linejoin="round" stroke-opacity="0.3019608" stroke-width="0.05"/>
      <path d="M30.3 31.45 L30.5 30.5 30.95 29.95 31.15 29.75 32.05 29.6 32.25 29.8 32.5 30.35 32.45 31.25 32.25 31.55 31.7 32.1 30.85 32.15 Q30.45 32.05 30.35 31.5 L30.3 31.45 30.7 31.2 30.3 31.45 M31.85 31.3 L32.25 31.55 31.85 31.3 M32.25 29.8 L31.9 30.2 32.25 29.8" fill="#2e1d0e" fill-rule="evenodd" stroke="none"/>
      <path d="M32.25 29.8 L32.05 29.6 31.15 29.75 30.95 29.95 30.5 30.5 30.3 31.45 30.7 31.2 M30.95 29.95 L30.85 29.3 M30.3 31.45 L29.8 31.75 M30.3 31.45 L30.35 31.5 Q30.45 32.05 30.85 32.15 L31.7 32.1 32.25 31.55 31.85 31.3 M32.25 29.8 L33.1 28.75 M32.25 29.8 L32.5 30.35 32.45 31.25 32.25 31.55 32.7 31.9 M31.9 30.2 L32.25 29.8 Z" fill="none" stroke="#000000" stroke-linecap="round" stroke-linejoin="round" stroke-opacity="0.3019608" stroke-width="0.05"/>
      <path d="M33.65 28.95 L31.75 29.0 30.8 31.6 Q31.65 32.2 32.85 30.95 33.5 30.0 33.65 28.95" fill="#8a6923" fill-rule="evenodd" stroke="none"/>
      <path d="M33.65 28.95 L33.7 27.75 33.5 26.4 Q33.25 25.7 32.05 25.9 L32.15 26.9 31.75 29.0 33.65 28.95" fill="#f49302" fill-rule="evenodd" stroke="none"/>
      <path d="M31.75 29.0 L32.15 26.9 32.05 25.9 Q33.25 25.7 33.5 26.4 L33.7 27.75 33.65 28.95 M31.75 29.0 L30.8 31.6 Q31.65 32.2 32.85 30.95 33.5 30.0 33.65 28.95" fill="none" stroke="#000000" stroke-linecap="round" stroke-linejoin="round" stroke-opacity="0.3019608" stroke-width="0.05"/>
      <path d="M37.0 26.35 Q36.85 25.85 37.05 25.4 L37.4 24.8 37.65 24.65 38.5 24.5 38.75 24.75 38.45 25.15 38.75 24.75 39.0 25.25 Q39.2 25.75 39.0 26.25 L38.85 26.55 38.35 27.0 37.6 27.1 Q37.15 26.95 37.0 26.4 L37.0 26.35 37.3 26.15 37.0 26.35 M38.5 26.25 L38.85 26.55 38.5 26.25" fill="#2e1d0e" fill-rule="evenodd" stroke="none"/>
      <path d="M38.75 24.75 L38.5 24.5 37.65 24.65 37.4 24.8 37.05 25.4 Q36.85 25.85 37.0 26.35 L37.3 26.15 M37.4 24.8 L37.2 24.2 M37.0 26.35 L36.45 26.6 M37.0 26.35 L37.0 26.4 Q37.15 26.95 37.6 27.1 L38.35 27.0 38.85 26.55 38.5 26.25 M38.45 25.15 L38.75 24.75 39.5 23.7 M38.75 24.75 L39.0 25.25 Q39.2 25.75 39.0 26.25 L38.85 26.55 39.4 26.9" fill="none" stroke="#000000" stroke-linecap="round" stroke-linejoin="round" stroke-opacity="0.3019608" stroke-width="0.05"/>
      <path d="M36.45 30.65 Q36.3 30.15 36.5 29.7 L36.85 29.1 37.1 28.95 37.95 28.8 38.2 29.05 37.9 29.45 38.2 29.05 38.45 29.55 Q38.65 30.05 38.45 30.55 L38.3 30.85 37.8 31.3 37.05 31.4 Q36.6 31.25 36.45 30.7 L36.45 30.65 36.75 30.45 36.45 30.65 M37.95 30.55 L38.3 30.85 37.95 30.55" fill="#2e1d0e" fill-rule="evenodd" stroke="none"/>
      <path d="M38.2 29.05 L37.95 28.8 37.1 28.95 36.85 29.1 36.5 29.7 Q36.3 30.15 36.45 30.65 L36.75 30.45 M36.85 29.1 L36.65 28.5 M36.45 30.65 L35.9 30.9 M36.45 30.65 L36.45 30.7 Q36.6 31.25 37.05 31.4 L37.8 31.3 38.3 30.85 37.95 30.55 M38.3 30.85 L38.85 31.2 M37.9 29.45 L38.2 29.05 38.95 28.0 M38.2 29.05 L38.45 29.55 Q38.65 30.05 38.45 30.55 L38.3 30.85" fill="none" stroke="#000000" stroke-linecap="round" stroke-linejoin="round" stroke-opacity="0.3019608" stroke-width="0.05"/>
      <path d="M39.3 28.0 Q38.95 26.95 37.4 28.2 L36.8 30.95 Q37.7 31.4 38.75 30.05 L39.3 28.0" fill="#8a6923" fill-rule="evenodd" stroke="none"/>
      <path d="M39.3 28.0 L39.2 26.8 38.8 25.45 Q38.5 24.85 37.3 25.15 L37.5 26.15 37.4 28.2 Q38.95 26.95 39.3 28.0" fill="#f49302" fill-rule="evenodd" stroke="none"/>
      <path d="M37.4 28.2 L37.5 26.15 37.3 25.15 Q38.5 24.85 38.8 25.45 L39.2 26.8 39.3 28.0 M37.4 28.2 L36.8 30.95 Q37.7 31.4 38.75 30.05 L39.3 28.0" fill="none" stroke="#000000" stroke-linecap="round" stroke-linejoin="round" stroke-opacity="0.3019608" stroke-width="0.05"/>
      <path d="M1.9 6.7 L2.35 6.3 Q3.65 6.8 5.0 8.3 5.9 9.3 6.3 10.8 L6.3 10.9 Q5.7 15.0 6.55 17.2 7.25 18.95 8.6 20.45 6.15 18.1 5.85 15.1 5.55 11.95 5.65 10.45 5.15 8.55 3.25 7.45 L1.9 6.7" fill="#825a12" fill-rule="evenodd" stroke="none"/>
      <path d="M1.9 6.7 L3.25 7.45 Q5.15 8.55 5.65 10.45 5.55 11.95 5.85 15.1 6.15 18.1 8.6 20.45 L8.85 20.75 9.2 21.1 Q6.75 19.05 5.7 16.45 L5.3 14.6 5.25 13.0 5.25 12.8 Q5.2 11.2 4.1 9.4 2.85 7.25 1.0 7.3 L1.9 6.7" fill="#b37f19" fill-rule="evenodd" stroke="none"/>
      <path d="M21.65 34.25 Q20.75 33.1 19.45 32.35 19.15 32.2 13.65 29.75 L13.55 28.7 13.8 27.4 14.05 26.45 14.05 26.3 Q13.4 26.9 12.85 27.85 L12.5 29.2 11.45 28.75 Q7.8 27.1 6.25 23.0 5.15 20.25 5.15 16.75 5.15 15.5 5.3 14.6 L5.7 16.45 Q6.75 19.05 9.2 21.1 L9.3 21.2 10.0 21.9 10.85 22.55 Q15.8 26.05 17.8 27.85 21.2 30.85 21.65 34.25" fill="#e0a42c" fill-rule="evenodd" stroke="none"/>
      <path d="M8.6 20.45 Q7.25 18.95 6.55 17.2 5.7 15.0 6.3 10.9 L6.35 11.1 Q7.0 13.65 9.0 15.35 10.6 16.85 14.65 18.65 17.75 20.15 20.0 23.85 L18.6 23.6 17.05 23.95 Q16.05 24.3 15.8 24.6 L16.4 24.45 17.75 24.35 Q18.6 24.35 20.9 25.45 22.2 28.2 22.2 30.5 22.2 32.65 21.65 34.25 21.2 30.85 17.8 27.85 15.8 26.05 10.85 22.55 L10.0 21.9 9.3 21.2 9.2 21.1 8.85 20.75 8.6 20.45" fill="#eebf55" fill-rule="evenodd" stroke="none"/>
      <path d="M6.3 10.9 L6.3 10.8 Q5.9 9.3 5.0 8.3 3.65 6.8 2.35 6.3 L1.9 6.7 M8.6 20.45 Q7.25 18.95 6.55 17.2 5.7 15.0 6.3 10.9 L6.35 11.1 Q7.0 13.65 9.0 15.35 10.6 16.85 14.65 18.65 17.75 20.15 20.0 23.85 L18.6 23.6 17.05 23.95 Q16.05 24.3 15.8 24.6 L16.4 24.45 17.75 24.35 Q18.6 24.35 20.9 25.45 22.2 28.2 22.2 30.5 22.2 32.65 21.65 34.25 20.75 33.1 19.45 32.35 19.15 32.2 13.65 29.75 L13.55 28.7 13.8 27.4 14.05 26.45 14.05 26.3 Q13.4 26.9 12.85 27.85 L12.5 29.2 11.45 28.75 Q7.8 27.1 6.25 23.0 5.15 20.25 5.15 16.75 5.15 15.5 5.3 14.6 L5.25 13.0 5.25 12.8 Q5.2 11.2 4.1 9.4 2.85 7.25 1.0 7.3 L1.9 6.7 M5.3 14.6 L5.7 16.45 Q6.75 19.05 9.2 21.1 L8.85 20.75 8.6 20.45 M21.65 34.25 Q21.2 30.85 17.8 27.85 15.8 26.05 10.85 22.55 L10.0 21.9 9.3 21.2 9.2 21.1" fill="none" stroke="#000000" stroke-linecap="round" stroke-linejoin="round" stroke-opacity="0.3019608" stroke-width="0.05"/>
    </g>
  </defs>
</svg>
