<?xml version="1.0" encoding="UTF-8" standalone="no"?>
<svg xmlns:xlink="http://www.w3.org/1999/xlink" height="440.0px" width="440.0px" xmlns="http://www.w3.org/2000/svg">
  <g transform="matrix(10.0, 0.0, 0.0, 10.0, 0.0, 0.0)">
    <use height="44.0" transform="matrix(0.9091, 0.0, 0.0, 0.9091, 2.0, 2.0)" width="44.0" xlink:href="#sprite0"/>
  </g>
  <defs>
    <g id="sprite0" transform="matrix(1.0, 0.0, 0.0, 1.0, 0.0, 0.0)">
      <use height="44.0" transform="matrix(1.0, 0.0, 0.0, 1.0, 0.0, 0.0)" width="44.0" xlink:href="#shape0"/>
      <use height="136.05" transform="matrix(0.1853, 0.0, 0.0, 0.1839, 3.0073, 9.5081)" width="205.05" xlink:href="#sprite1"/>
    </g>
    <g id="shape0" transform="matrix(1.0, 0.0, 0.0, 1.0, 0.0, 0.0)">
      <path d="M44.0 44.0 L0.0 44.0 0.0 0.0 44.0 0.0 44.0 44.0" fill="#43adca" fill-opacity="0.0" fill-rule="evenodd" stroke="none"/>
    </g>
    <g id="sprite1" transform="matrix(1.0, 0.0, 0.0, 1.0, 0.5, 0.5)">
      <use height="136.05" transform="matrix(1.0, 0.0, 0.0, 1.0, -0.5, -0.5)" width="205.05" xlink:href="#shape1"/>
    </g>
    <g id="shape1" transform="matrix(1.0, 0.0, 0.0, 1.0, 0.5, 0.5)">
      <path d="M196.05 16.0 L188.55 25.5 170.55 21.0 174.05 15.5 153.05 12.0 123.8 8.75 126.2 6.4 128.55 4.0 176.55 7.0 196.05 16.0 M107.55 135.05 L76.55 135.05 53.05 127.55 52.7 124.35 49.55 95.0 43.55 27.5 65.45 33.9 75.55 86.5 80.55 94.0 76.05 65.0 76.05 54.5 76.05 39.0 85.55 28.0 108.6 30.8 118.55 32.0 124.65 31.05 130.75 30.15 137.55 42.0 111.65 40.75 76.05 39.0 111.65 40.75 111.6 41.0 113.55 53.5 121.05 98.5 119.75 114.5 107.55 135.05" fill="#989701" fill-rule="evenodd" stroke="none"/>
      <path d="M188.55 25.5 L196.05 16.0 199.05 65.5 204.05 91.5 196.05 116.0 185.55 77.0 185.55 54.0 188.55 25.5 M123.8 8.75 L153.05 12.0 150.05 28.0 142.05 29.0 Q146.5 61.15 139.25 64.95 137.8 56.0 137.55 42.0 L130.75 30.15 124.65 31.05 124.35 22.55 124.65 31.05 118.55 32.0 108.6 30.8 108.55 10.55 119.55 11.0 124.35 22.55 123.8 8.75 M70.55 0.0 L71.05 15.0 67.1 22.4 64.45 21.4 61.0 10.5 70.55 0.0 M75.55 25.5 L72.55 36.5 76.05 54.5 76.05 65.0 80.55 94.0 75.55 86.5 65.45 33.9 75.55 25.5 M20.0 87.2 Q14.65 82.3 17.0 61.0 20.5 48.55 26.0 44.0 L33.55 47.0 Q34.2 48.1 34.65 49.65 27.95 47.4 25.0 67.5 23.6 79.35 26.65 83.55 23.35 85.35 20.0 87.2 M131.55 30.0 L130.75 30.15 131.55 30.0" fill="#666600" fill-rule="evenodd" stroke="none"/>
      <path d="M185.55 54.0 L185.55 77.0 185.55 94.0 190.3 120.4 191.15 125.2 171.55 131.05 Q172.8 81.6 156.55 86.5 147.65 92.9 149.65 121.1 149.95 125.55 150.55 130.55 L118.05 135.05 118.3 132.05 119.75 114.5 121.05 98.5 113.55 53.5 111.6 41.0 111.65 40.75 137.55 42.0 Q137.8 56.0 139.25 64.95 142.0 81.6 149.05 81.0 158.55 73.9 156.05 41.0 L180.55 34.0 185.05 30.0 185.55 54.0 M44.55 125.5 L27.55 111.5 18.5 108.5 19.45 103.7 22.5 88.5 Q26.15 89.55 29.2 85.45 31.55 82.3 33.55 76.0 36.85 57.35 34.65 49.65 34.2 48.1 33.55 47.0 L26.0 44.0 Q20.5 48.55 17.0 61.0 14.65 82.3 20.0 87.2 L13.0 106.0 0.0 95.5 11.5 60.5 15.5 22.0 15.5 7.0 17.3 6.6 17.5 10.0 43.55 27.5 49.55 95.0 44.55 125.5" fill="#878601" fill-rule="evenodd" stroke="none"/>
      <path d="M170.55 21.0 L188.55 25.5 185.55 54.0 185.05 30.0 171.3 24.45 170.55 21.0 M185.55 77.0 L196.05 116.0 190.3 120.4 185.55 94.0 185.55 77.0 M171.55 131.05 Q162.25 110.45 149.65 121.1 147.65 92.9 156.55 86.5 172.8 81.6 171.55 131.05 M118.3 132.05 Q112.05 128.4 107.55 135.05 L119.75 114.5 118.3 132.05 M52.7 124.35 Q49.6 120.0 44.55 125.5 L49.55 95.0 52.7 124.35 M19.45 103.7 L13.0 106.0 20.0 87.2 Q21.1 88.2 22.5 88.5 L19.45 103.7 M34.65 49.65 Q36.85 57.35 33.55 76.0 31.55 82.3 29.2 85.45 27.65 84.9 26.65 83.55 23.6 79.35 25.0 67.5 27.95 47.4 34.65 49.65" fill="#333300" fill-rule="evenodd" stroke="none"/>
      <path d="M17.3 6.6 L24.5 5.0 41.05 5.0 70.55 0.0 61.0 10.5 39.5 12.2 64.45 21.4 67.1 22.4 75.55 25.5 65.45 33.9 43.55 27.5 17.5 10.0 17.3 6.6 M73.55 9.0 L79.05 0.5 123.55 3.5 119.55 11.0 108.55 10.55 73.55 9.0 M29.55 8.5 L39.5 12.2 29.55 8.5 M150.05 28.0 L158.05 27.0 166.55 22.5 171.3 24.45 185.05 30.0 180.55 34.0 156.05 41.0 142.05 29.0 150.05 28.0" fill="#baba01" fill-rule="evenodd" stroke="none"/>
      <path d="M126.2 6.4 L123.8 8.75 124.35 22.55 119.55 11.0 123.55 3.5 126.2 6.4 M153.05 12.0 L174.05 15.5 170.55 21.0 171.3 24.45 166.55 22.5 158.05 27.0 150.05 28.0 153.05 12.0 M60.05 11.5 L61.0 10.5 60.05 11.5 M61.0 10.5 L64.45 21.4 39.5 12.2 61.0 10.5" fill="#3c3c00" fill-rule="evenodd" stroke="none"/>
      <path d="M71.05 15.0 L73.55 9.0 108.55 10.55 108.6 30.8 85.55 28.0 76.05 39.0 76.05 54.5 72.55 36.5 75.55 25.5 67.1 22.4 71.05 15.0 M29.2 85.45 Q26.15 89.55 22.5 88.5 21.1 88.2 20.0 87.2 23.35 85.35 26.65 83.55 27.65 84.9 29.2 85.45 M142.05 29.0 L156.05 41.0 Q158.55 73.9 149.05 81.0 142.0 81.6 139.25 64.95 146.5 61.15 142.05 29.0" fill="#545401" fill-rule="evenodd" stroke="none"/>
      <path d="M188.55 25.5 L196.05 16.0 176.55 7.0 128.55 4.0 126.2 6.4 123.8 8.75 153.05 12.0 174.05 15.5 170.55 21.0 188.55 25.5 185.55 54.0 185.55 77.0 196.05 116.0 204.05 91.5 199.05 65.5 196.05 16.0 M185.55 77.0 L185.55 94.0 190.3 120.4 196.05 116.0 M185.05 30.0 L185.55 54.0 M190.3 120.4 L191.15 125.2 171.55 131.05 Q162.25 110.45 149.65 121.1 149.95 125.55 150.55 130.55 L118.05 135.05 118.3 132.05 Q112.05 128.4 107.55 135.05 L76.55 135.05 53.05 127.55 52.7 124.35 Q49.6 120.0 44.55 125.5 L27.55 111.5 18.5 108.5 19.45 103.7 13.0 106.0 0.0 95.5 11.5 60.5 15.5 22.0 15.5 7.0 17.3 6.6 24.5 5.0 41.05 5.0 70.55 0.0 71.05 15.0 73.55 9.0 79.05 0.5 123.55 3.5 126.2 6.4 M43.55 27.5 L17.5 10.0 17.3 6.6 M61.0 10.5 L60.05 11.5 M64.45 21.4 L67.1 22.4 71.05 15.0 M61.0 10.5 L64.45 21.4 39.5 12.2 29.55 8.5 M67.1 22.4 L75.55 25.5 72.55 36.5 76.05 54.5 76.05 39.0 85.55 28.0 108.6 30.8 118.55 32.0 124.65 31.05 130.75 30.15 131.55 30.0 M108.55 10.55 L73.55 9.0 M75.55 25.5 L65.45 33.9 75.55 86.5 80.55 94.0 76.05 65.0 76.05 54.5 M20.0 87.2 Q14.65 82.3 17.0 61.0 20.5 48.55 26.0 44.0 L33.55 47.0 Q34.2 48.1 34.65 49.65 36.85 57.35 33.55 76.0 31.55 82.3 29.2 85.45 26.15 89.55 22.5 88.5 L19.45 103.7 M20.0 87.2 L13.0 106.0 M22.5 88.5 Q21.1 88.2 20.0 87.2 23.35 85.35 26.65 83.55 23.6 79.35 25.0 67.5 27.95 47.4 34.65 49.65 M29.2 85.45 Q27.65 84.9 26.65 83.55 M43.55 27.5 L65.45 33.9 M49.55 95.0 L52.7 124.35 M61.0 10.5 L70.55 0.0 M171.3 24.45 L166.55 22.5 158.05 27.0 150.05 28.0 142.05 29.0 156.05 41.0 180.55 34.0 185.05 30.0 171.3 24.45 170.55 21.0 M123.8 8.75 L124.35 22.55 124.65 31.05 M108.55 10.55 L119.55 11.0 123.55 3.5 M113.55 53.5 L121.05 98.5 119.75 114.5 118.3 132.05 M137.55 42.0 L130.75 30.15 M119.55 11.0 L124.35 22.55 M111.65 40.75 L137.55 42.0 Q137.8 56.0 139.25 64.95 146.5 61.15 142.05 29.0 M139.25 64.95 Q142.0 81.6 149.05 81.0 158.55 73.9 156.05 41.0 M76.05 39.0 L111.65 40.75 M119.75 114.5 L107.55 135.05 M171.55 131.05 Q172.8 81.6 156.55 86.5 147.65 92.9 149.65 121.1 M49.55 95.0 L44.55 125.5" fill="none" stroke="#000000" stroke-linecap="round" stroke-linejoin="round" stroke-opacity="0.4" stroke-width="0.2"/>
      <path d="M199.05 65.5 L196.05 16.0 176.55 7.0 128.55 4.0 126.2 6.4 123.55 3.5 79.05 0.5 73.55 9.0 71.05 15.0 70.55 0.0 41.05 5.0 24.5 5.0 15.5 7.0 15.5 22.0 11.5 60.5 0.0 95.5 13.0 106.0 19.45 103.7 18.5 108.5 27.55 111.5 44.55 125.5 Q49.6 120.0 52.7 124.35 L53.05 127.55 76.55 135.05 107.55 135.05 Q112.05 128.4 118.3 132.05 L118.05 135.05 150.55 130.55 Q149.95 125.55 149.65 121.1 162.25 110.45 171.55 131.05 L191.15 125.2 190.3 120.4 196.05 116.0 204.05 91.5 199.05 65.5 Z" fill="none" stroke="#000000" stroke-linecap="round" stroke-linejoin="round" stroke-opacity="0.4" stroke-width="1.0"/>
    </g>
  </defs>
</svg>
