<?xml version="1.0" encoding="UTF-8" standalone="no"?>
<svg xmlns:xlink="http://www.w3.org/1999/xlink" height="440.0px" width="440.0px" xmlns="http://www.w3.org/2000/svg">
  <g transform="matrix(10.0, 0.0, 0.0, 10.0, 0.0, 0.0)">
    <use height="44.0" transform="matrix(0.9091, 0.0, 0.0, 0.9091, 2.0, 2.0)" width="44.0" xlink:href="#sprite0"/>
  </g>
  <defs>
    <g id="sprite0" transform="matrix(1.0, 0.0, 0.0, 1.0, 0.0, 0.0)">
      <use height="44.0" transform="matrix(1.0, 0.0, 0.0, 1.0, 0.0, 0.0)" width="44.0" xlink:href="#shape0"/>
      <use height="105.9" transform="matrix(0.2948, 0.0, 0.0, 0.2948, 3.0, 6.4)" width="128.9" xlink:href="#sprite1"/>
    </g>
    <g id="shape0" transform="matrix(1.0, 0.0, 0.0, 1.0, 0.0, 0.0)">
      <path d="M44.0 44.0 L0.0 44.0 0.0 0.0 44.0 0.0 44.0 44.0" fill="#43adca" fill-opacity="0.0" fill-rule="evenodd" stroke="none"/>
    </g>
    <g id="sprite1" transform="matrix(1.0, 0.0, 0.0, 1.0, 0.0, 0.0)">
      <use height="72.0" transform="matrix(1.0, 0.0, 0.0, 1.0, 16.85, 24.4)" width="112.05" xlink:href="#shape1"/>
      <use height="39.0" transform="matrix(-0.237, 0.1914, 0.1752, 0.217, 25.65, 37.25)" width="43.5" xlink:href="#sprite2"/>
      <use height="39.0" transform="matrix(-0.1823, 0.1472, 0.1348, 0.1669, 108.85, 49.3)" width="43.5" xlink:href="#sprite2"/>
      <use height="39.0" transform="matrix(-0.4149, 0.1946, 0.1474, 0.3542, 103.3, 16.0)" width="43.5" xlink:href="#sprite2"/>
      <use height="39.0" transform="matrix(-0.0434, 0.1012, 0.1459, 0.0498, 32.95, 53.0)" width="43.5" xlink:href="#sprite2"/>
      <use height="39.0" transform="matrix(-0.0434, 0.1012, 0.1459, 0.0498, 25.35, 67.15)" width="43.5" xlink:href="#sprite2"/>
      <use height="39.0" transform="matrix(-0.0434, 0.1012, 0.1459, 0.0498, 106.15, 34.65)" width="43.5" xlink:href="#sprite2"/>
      <use height="39.0" transform="matrix(-0.1823, 0.1472, 0.1348, 0.1669, 41.9, 67.15)" width="43.5" xlink:href="#sprite2"/>
      <use height="92.8" transform="matrix(1.0, 0.0, 0.0, 1.0, 14.1, 13.1)" width="103.0" xlink:href="#shape3"/>
      <use height="18.4" transform="matrix(1.19, -0.6871, 0.6749, 1.169, 0.0093, 35.1236)" width="27.75" xlink:href="#sprite3"/>
      <use height="18.4" transform="matrix(1.3648, 0.1402, -0.1378, 1.3407, 79.1407, -0.0076)" width="27.75" xlink:href="#sprite3"/>
      <use height="30.6" transform="matrix(1.0, 0.0, 0.0, 1.0, 97.75, 55.2)" width="26.0" xlink:href="#shape5"/>
    </g>
    <g id="shape1" transform="matrix(1.0, 0.0, 0.0, 1.0, -16.85, -24.4)">
      <path d="M100.85 32.15 L105.1 36.65 108.55 46.05 103.5 43.05 100.3 42.7 Q97.0 48.35 89.4 51.55 87.95 48.8 87.15 44.35 L80.3 49.6 84.35 38.75 86.45 36.1 Q90.4 32.1 95.8 31.25 L100.85 32.15" fill="#8c231d" fill-rule="evenodd" stroke="none"/>
      <path d="M84.55 42.1 Q86.2 38.3 87.3 38.1 88.45 37.95 88.2 41.55 L87.2 52.35 Q86.5 59.5 91.75 62.75 97.05 66.0 89.9 71.0 82.65 76.05 81.3 66.55 79.9 56.95 81.25 51.4 82.65 45.85 84.55 42.1" fill="#961f1f" fill-rule="evenodd" stroke="none"/>
      <path d="M99.8 40.95 L99.65 40.4 100.0 39.9 100.6 39.8 Q100.85 39.8 101.05 40.1 L101.2 40.6 100.85 41.15 100.3 41.3 99.8 40.95 M99.45 55.05 Q99.95 55.1 100.15 55.45 100.45 55.9 100.35 56.35 L99.9 57.15 99.05 57.35 Q98.6 57.3 98.25 56.8 98.05 56.4 98.15 56.0 98.2 55.5 98.6 55.25 98.95 54.95 99.45 55.05 M101.3 67.1 Q102.15 67.25 102.6 68.05 103.0 68.85 102.75 69.9 102.55 70.75 101.8 71.4 101.05 71.95 100.2 71.8 99.35 71.5 98.95 70.7 98.5 69.95 98.7 69.0 98.95 68.0 99.7 67.5 100.45 66.9 101.3 67.1 M105.0 66.2 Q105.0 65.75 105.4 65.45 105.75 65.2 106.25 65.25 106.75 65.35 106.95 65.7 107.25 66.1 107.15 66.6 L106.7 67.35 105.85 67.55 105.05 67.05 Q104.85 66.65 105.0 66.2 M96.7 72.4 Q96.25 74.15 94.85 75.25 93.45 76.25 91.85 75.95 90.25 75.55 89.45 74.05 88.6 72.6 89.1 70.8 89.5 68.9 91.0 67.95 92.4 66.85 93.95 67.2 95.5 67.55 96.35 69.1 97.15 70.6 96.7 72.4 M87.05 65.95 Q86.45 65.8 86.15 65.4 85.85 65.0 86.05 64.4 86.05 63.95 86.5 63.65 87.0 63.25 87.55 63.3 L88.35 63.9 88.6 64.85 88.05 65.7 87.05 65.95" fill="#771a1a" fill-opacity="0.7019608" fill-rule="evenodd" stroke="none"/>
      <path d="M98.5 59.0 Q100.0 59.25 100.9 60.5 101.75 61.75 101.45 63.35 101.15 64.9 99.8 65.85 98.55 66.75 97.1 66.55 95.5 66.25 94.65 65.05 93.75 63.75 94.15 62.15 94.4 60.65 95.7 59.75 96.95 58.75 98.5 59.0" fill="#4f1111" fill-opacity="0.7019608" fill-rule="evenodd" stroke="none"/>
      <path d="M97.55 59.6 Q97.8 59.15 98.4 59.05 98.9 59.0 99.5 59.3 L100.4 60.05 Q100.65 60.55 100.5 61.0 L99.7 61.55 Q99.15 61.55 98.65 61.05 L97.75 60.3 Q97.35 60.05 97.55 59.6 M99.45 62.65 Q99.85 62.35 100.3 62.3 L100.9 62.4 Q101.1 62.7 100.95 63.1 L100.55 63.9 99.7 64.25 Q99.3 64.35 99.25 63.85 L99.15 63.25 Q99.05 62.95 99.45 62.65" fill="#ea9999" fill-opacity="0.7019608" fill-rule="evenodd" stroke="none"/>
      <path d="M87.3 37.7 Q88.2 37.55 88.25 39.55 88.25 41.55 87.3 44.7 86.4 47.7 85.05 49.9 83.8 52.1 82.9 52.25 81.95 52.4 81.9 50.4 81.9 48.3 82.8 45.3 83.65 42.25 84.95 40.05 86.3 37.8 87.3 37.7 M83.15 64.9 Q82.65 66.7 81.85 67.4 81.1 67.9 80.55 66.9 79.95 65.75 79.95 63.7 79.85 61.5 80.3 59.7 80.8 57.8 81.65 57.2 82.35 56.7 82.95 57.8 83.5 58.85 83.6 61.0 83.65 63.1 83.15 64.9" fill="#ffffff" fill-opacity="0.6" fill-rule="evenodd" stroke="none"/>
      <path d="M108.2 46.9 Q108.85 48.05 109.65 50.8 L110.8 55.95 Q111.15 58.35 111.0 59.4 110.85 60.3 110.15 59.05 109.5 57.9 108.8 55.35 108.05 52.65 107.65 50.15 107.25 47.7 107.45 46.75 107.6 45.75 108.2 46.9" fill="#ffffff" fill-opacity="0.6" fill-rule="evenodd" stroke="none"/>
      <path d="M110.35 63.0 L110.4 64.0 110.0 65.3 109.45 66.05 Q109.1 66.2 108.95 65.8 108.8 65.4 108.9 64.75 109.0 64.05 109.35 63.5 L109.9 62.8 Q110.2 62.6 110.35 63.0" fill="#ffffff" fill-opacity="0.6" fill-rule="evenodd" stroke="none"/>
      <path d="M94.65 76.15 Q86.55 77.2 81.25 72.35 78.05 69.4 78.65 55.25 79.1 51.85 81.0 46.85 L84.25 38.3 Q88.15 31.1 96.25 30.55 102.15 30.2 104.25 34.55 107.8 38.6 110.55 52.65 113.8 62.1 108.55 69.1 103.1 74.55 94.75 76.05 L94.7 76.0 94.7 76.1 94.65 76.15" fill="url(#gradient0)" fill-rule="evenodd" stroke="none"/>
      <path d="M94.65 76.15 Q86.55 77.2 81.25 72.35 78.05 69.4 78.65 55.25 79.1 51.85 81.0 46.85 L84.25 38.3 Q88.15 31.1 96.25 30.55 102.15 30.2 104.25 34.55 107.8 38.6 110.55 52.65 113.8 62.1 108.55 69.1 103.1 74.55 94.75 76.05 L94.7 76.0 94.7 76.1" fill="none" stroke="#a14040" stroke-linecap="round" stroke-linejoin="round" stroke-opacity="0.5019608" stroke-width="0.05"/>
      <path d="M102.5 47.15 L101.9 51.9 103.6 58.8 105.2 54.35 106.85 52.4 Q110.9 53.5 116.3 50.9 116.05 48.65 114.8 45.9 L120.55 44.75 114.15 41.4 111.95 41.15 Q108.3 41.3 105.0 43.9 L102.5 47.15" fill="#8c231d" fill-rule="evenodd" stroke="none"/>
      <path d="M115.35 43.25 Q113.0 42.2 112.3 42.7 111.6 43.25 113.1 45.0 L117.8 50.05 Q120.95 53.4 119.3 58.05 117.6 62.75 123.5 61.35 129.45 59.85 126.5 54.15 123.65 48.35 120.75 46.25 117.8 44.1 115.35 43.25" fill="#961f1f" fill-rule="evenodd" stroke="none"/>
      <path d="M106.5 51.2 L106.3 50.85 106.0 50.75 Q105.75 50.75 105.6 51.0 L105.45 51.45 105.6 51.8 106.0 51.9 106.35 51.65 106.5 51.2 M112.1 58.35 Q111.85 58.65 111.9 58.95 111.85 59.35 112.1 59.55 L112.65 59.7 113.2 59.35 113.4 58.65 113.15 58.15 Q112.95 57.95 112.6 58.0 L112.1 58.35 M115.7 65.7 Q115.3 66.25 115.3 66.95 115.4 67.55 115.95 67.95 L117.05 68.2 118.1 67.5 118.35 66.3 Q118.3 65.6 117.8 65.2 117.35 64.85 116.7 65.0 116.1 65.15 115.7 65.7 M113.6 67.8 L113.35 67.3 112.8 67.15 Q112.45 67.15 112.25 67.5 L112.0 68.1 Q112.0 68.5 112.25 68.7 L112.8 68.85 113.3 68.5 113.6 67.8 M120.2 65.9 Q121.2 66.55 122.4 66.3 123.55 66.05 124.3 65.05 125.05 63.9 124.9 62.7 124.8 61.4 123.85 60.8 122.9 60.0 121.75 60.35 120.5 60.55 119.8 61.65 119.05 62.65 119.2 64.0 119.3 65.15 120.2 65.9 M123.1 57.1 L123.4 56.3 Q123.4 55.95 123.05 55.75 122.9 55.5 122.5 55.55 122.1 55.65 121.85 56.0 121.6 56.3 121.6 56.75 L121.85 57.4 122.5 57.55 123.1 57.1" fill="#771a1a" fill-opacity="0.7019608" fill-rule="evenodd" stroke="none"/>
      <path d="M114.15 59.9 Q113.4 60.85 113.4 62.0 113.4 63.1 114.15 63.8 114.95 64.4 116.05 64.2 117.1 64.0 117.8 63.0 118.55 62.0 118.6 60.85 118.55 59.75 117.75 59.1 117.05 58.45 115.95 58.7 114.85 58.9 114.15 59.9" fill="#4f1111" fill-opacity="0.7019608" fill-rule="evenodd" stroke="none"/>
      <path d="M113.5 61.5 Q113.5 61.9 113.8 62.05 L114.45 61.85 114.85 61.05 115.05 60.1 Q115.15 59.8 114.9 59.7 114.6 59.6 114.2 59.9 113.9 60.1 113.7 60.6 L113.5 61.5 M114.4 62.6 L114.1 63.0 114.3 63.4 114.85 63.6 115.5 63.3 Q115.75 63.1 115.6 62.85 L115.4 62.45 115.0 62.3 Q114.65 62.4 114.4 62.6" fill="#ea9999" fill-opacity="0.7019608" fill-rule="evenodd" stroke="none"/>
      <path d="M112.2 42.45 Q111.65 42.9 112.4 43.95 113.15 45.0 114.8 46.15 116.5 47.15 118.1 47.6 L120.2 47.55 Q120.8 47.1 120.05 46.05 119.25 44.95 117.55 43.9 115.95 42.8 114.4 42.4 L112.2 42.45 M124.9 54.3 Q125.9 55.0 126.55 54.9 127.2 54.75 127.05 53.9 126.95 53.0 126.2 51.9 125.4 50.7 124.45 50.05 123.45 49.25 122.8 49.45 122.2 49.6 122.3 50.5 122.35 51.35 123.15 52.55 123.95 53.65 124.9 54.3" fill="#ffffff" fill-opacity="0.6" fill-rule="evenodd" stroke="none"/>
      <path d="M104.05 58.9 Q104.15 59.9 104.75 61.75 L106.1 65.1 107.35 67.05 Q107.8 67.4 107.65 66.35 107.6 65.35 107.0 63.65 L105.65 60.35 104.5 58.4 Q104.0 57.95 104.05 58.9" fill="#ffffff" fill-opacity="0.6" fill-rule="evenodd" stroke="none"/>
      <path d="M109.2 68.5 L109.55 69.1 110.25 69.5 110.9 69.55 111.05 69.2 110.7 68.6 Q110.35 68.3 110.0 68.2 L109.35 68.15 Q109.15 68.25 109.2 68.5" fill="#ffffff" fill-opacity="0.6" fill-rule="evenodd" stroke="none"/>
      <path d="M122.9 66.6 Q127.8 62.55 128.85 57.05 129.5 53.75 123.75 46.7 122.15 45.15 119.25 43.6 L114.15 41.0 Q109.2 39.4 104.5 43.65 101.15 46.8 101.65 50.25 101.25 54.3 105.1 63.2 106.9 70.0 112.55 70.7 117.65 70.45 122.85 66.6 L122.85 66.5 122.85 66.55 122.9 66.6" fill="url(#gradient1)" fill-rule="evenodd" stroke="none"/>
      <path d="M122.9 66.6 Q127.8 62.55 128.85 57.05 129.5 53.75 123.75 46.7 122.15 45.15 119.25 43.6 L114.15 41.0 Q109.2 39.4 104.5 43.65 101.15 46.8 101.65 50.25 101.25 54.3 105.1 63.2 106.9 70.0 112.55 70.7 117.65 70.45 122.85 66.6 L122.85 66.5 122.85 66.55" fill="none" stroke="#a14040" stroke-linecap="round" stroke-linejoin="round" stroke-opacity="0.5019608" stroke-width="0.05"/>
      <path d="M27.85 54.75 L26.85 61.05 28.95 70.85 31.4 65.2 33.85 62.85 Q39.45 65.3 47.25 63.1 46.95 59.95 45.25 55.9 L53.5 55.75 44.6 49.6 41.5 48.75 Q36.3 48.05 31.5 50.85 L27.85 54.75" fill="#8c231d" fill-rule="evenodd" stroke="none"/>
      <path d="M46.2 52.4 Q42.85 50.35 41.9 50.9 40.9 51.5 42.95 54.3 L49.4 62.35 Q53.75 67.65 51.15 73.6 48.6 79.6 57.05 79.1 65.45 78.55 61.55 70.05 57.75 61.45 53.7 57.85 49.65 54.25 46.2 52.4" fill="#961f1f" fill-rule="evenodd" stroke="none"/>
      <path d="M33.35 61.15 L33.1 60.6 32.6 60.5 Q32.35 60.4 32.1 60.7 31.85 60.9 31.85 61.25 L32.1 61.75 32.6 62.0 33.15 61.75 33.35 61.15 M41.0 72.25 Q40.6 72.6 40.6 73.05 40.6 73.6 40.95 73.9 L41.7 74.25 42.5 73.85 42.9 73.0 42.5 72.25 Q42.25 71.9 41.75 71.9 41.3 71.85 41.0 72.25 M45.75 83.15 Q45.2 83.85 45.2 84.8 45.35 85.65 46.05 86.4 46.7 86.95 47.65 86.95 48.5 86.9 49.1 86.25 49.7 85.5 49.55 84.65 49.5 83.65 48.8 83.05 48.1 82.4 47.3 82.5 46.35 82.5 45.75 83.15 M42.7 85.5 Q42.7 85.05 42.35 84.8 42.1 84.4 41.65 84.5 41.2 84.45 40.85 84.8 40.45 85.2 40.5 85.6 40.5 86.15 40.8 86.5 41.15 86.8 41.6 86.8 L42.35 86.45 42.7 85.5 M52.2 84.55 Q53.5 85.7 55.25 85.65 56.9 85.55 58.0 84.3 59.1 83.0 58.9 81.3 58.85 79.5 57.5 78.4 56.25 77.15 54.5 77.25 52.85 77.3 51.8 78.65 50.7 79.85 50.8 81.65 51.0 83.35 52.2 84.55 M56.65 73.2 L57.1 72.2 56.65 71.3 Q56.35 71.0 55.85 71.0 55.3 71.0 54.9 71.4 54.5 71.8 54.55 72.4 54.55 72.9 54.85 73.35 L55.8 73.6 56.65 73.2" fill="#771a1a" fill-opacity="0.7019608" fill-rule="evenodd" stroke="none"/>
      <path d="M43.75 74.85 Q42.7 76.0 42.65 77.55 42.65 79.1 43.7 80.25 44.8 81.25 46.3 81.25 47.8 81.15 48.85 80.05 50.0 78.85 50.05 77.3 50.1 75.7 48.95 74.65 47.95 73.6 46.45 73.65 44.9 73.7 43.75 74.85" fill="#4f1111" fill-opacity="0.7019608" fill-rule="evenodd" stroke="none"/>
      <path d="M42.85 76.9 Q42.8 77.45 43.25 77.75 L44.15 77.65 Q44.65 77.3 44.8 76.6 L45.1 75.45 Q45.25 74.95 44.9 74.75 L43.95 74.85 43.15 75.75 Q42.85 76.35 42.85 76.9 M44.1 78.65 Q43.75 78.75 43.65 79.2 43.65 79.5 44.0 79.75 44.25 80.0 44.75 80.1 L45.55 79.85 Q45.95 79.65 45.75 79.25 L45.5 78.7 Q45.4 78.4 44.95 78.45 L44.1 78.65" fill="#ea9999" fill-opacity="0.7019608" fill-rule="evenodd" stroke="none"/>
      <path d="M41.7 50.6 Q40.9 51.05 41.95 52.7 42.95 54.3 45.35 56.2 47.65 58.05 49.9 59.0 52.05 59.95 52.85 59.5 53.7 59.0 52.7 57.35 51.6 55.65 49.3 53.85 47.0 51.95 44.85 51.05 42.55 50.05 41.7 50.6 M59.3 69.85 Q60.65 71.0 61.6 71.05 62.5 71.0 62.4 69.85 62.25 68.55 61.2 66.85 L58.85 63.85 Q57.45 62.65 56.45 62.75 55.6 62.75 55.7 64.0 55.8 65.25 56.85 67.0 57.95 68.7 59.3 69.85" fill="#ffffff" fill-opacity="0.6" fill-rule="evenodd" stroke="none"/>
      <path d="M29.75 71.2 Q29.8 72.55 30.6 75.25 31.35 77.75 32.4 80.15 33.35 82.35 34.0 83.05 34.65 83.65 34.55 82.25 34.5 80.85 33.7 78.4 32.9 75.7 31.9 73.5 30.9 71.2 30.3 70.55 29.7 69.85 29.75 71.2" fill="#ffffff" fill-opacity="0.6" fill-rule="evenodd" stroke="none"/>
      <path d="M36.45 85.5 L36.95 86.45 37.9 87.15 38.8 87.4 Q39.15 87.35 39.0 86.95 L38.55 86.05 Q38.1 85.55 37.55 85.3 L36.65 85.1 Q36.35 85.1 36.45 85.5" fill="#ffffff" fill-opacity="0.6" fill-rule="evenodd" stroke="none"/>
      <path d="M55.9 86.15 Q62.95 81.85 64.7 74.6 65.7 70.15 57.85 59.15 55.7 56.65 51.6 53.85 L44.45 49.05 Q37.55 45.7 30.75 50.4 25.9 53.85 26.45 58.7 25.7 64.2 30.85 77.25 33.15 86.95 41.05 89.3 48.3 90.2 55.8 86.1 L55.8 86.0 55.85 86.1 55.9 86.15" fill="url(#gradient2)" fill-rule="evenodd" stroke="none"/>
      <path d="M55.9 86.15 Q62.95 81.85 64.7 74.6 65.7 70.15 57.85 59.15 55.7 56.65 51.6 53.85 L44.45 49.05 Q37.55 45.7 30.75 50.4 25.9 53.85 26.45 58.7 25.7 64.2 30.85 77.25 33.15 86.95 41.05 89.3 48.3 90.2 55.8 86.1 L55.8 86.0 55.85 86.1" fill="none" stroke="#a14040" stroke-linecap="round" stroke-linejoin="round" stroke-opacity="0.5019608" stroke-width="0.05"/>
      <path d="M34.4 67.75 L37.35 71.2 39.65 77.8 36.0 75.3 33.65 74.7 Q31.0 78.15 25.3 79.45 24.3 77.5 23.9 74.45 L18.65 77.25 22.0 70.5 23.65 68.9 Q26.7 66.65 30.7 66.65 L34.4 67.75" fill="#8c231d" fill-rule="evenodd" stroke="none"/>
      <path d="M22.0 72.7 Q23.35 70.35 24.2 70.35 25.0 70.35 24.7 72.7 L23.65 79.8 Q22.85 84.5 26.6 87.15 30.4 89.85 24.9 92.5 19.4 95.05 18.75 88.6 18.05 82.1 19.3 78.55 20.55 75.0 22.0 72.7" fill="#961f1f" fill-rule="evenodd" stroke="none"/>
      <path d="M33.35 73.55 L33.25 73.1 Q33.3 72.9 33.5 72.85 L33.9 72.8 34.25 73.05 34.35 73.45 34.1 73.75 33.7 73.8 33.35 73.55 M32.55 82.85 L33.1 83.2 33.2 83.8 32.8 84.25 32.2 84.3 31.65 83.9 Q31.45 83.6 31.6 83.35 31.65 83.05 31.95 82.9 L32.55 82.85 M33.5 91.05 Q34.1 91.25 34.4 91.8 34.7 92.4 34.45 93.05 L33.7 93.95 32.5 94.05 Q31.9 93.75 31.65 93.2 31.3 92.65 31.55 92.0 31.75 91.4 32.3 91.15 L33.5 91.05 M36.6 90.35 L37.2 90.3 37.7 90.65 Q37.95 91.0 37.85 91.3 L37.45 91.75 36.85 91.8 36.3 91.4 Q36.1 91.1 36.2 90.85 L36.6 90.35 M29.95 94.1 Q29.5 95.2 28.45 95.8 L26.2 95.95 Q25.0 95.55 24.5 94.45 23.95 93.35 24.35 92.2 24.7 91.05 25.85 90.5 L28.05 90.35 Q29.2 90.75 29.75 91.85 30.3 92.95 29.95 94.1 M23.0 88.8 L22.4 88.35 Q22.2 88.05 22.35 87.7 22.4 87.35 22.7 87.2 L23.45 87.1 24.05 87.6 24.2 88.25 23.75 88.75 23.0 88.8" fill="#771a1a" fill-opacity="0.7019608" fill-rule="evenodd" stroke="none"/>
      <path d="M31.75 85.35 Q32.8 85.65 33.45 86.6 34.0 87.5 33.75 88.55 33.45 89.55 32.45 90.05 L30.4 90.2 Q29.25 89.9 28.65 88.95 28.05 88.05 28.4 87.0 28.65 86.05 29.6 85.55 L31.75 85.35" fill="#4f1111" fill-opacity="0.7019608" fill-rule="evenodd" stroke="none"/>
      <path d="M32.45 85.65 L33.1 86.3 Q33.3 86.6 33.15 86.9 L32.5 87.15 Q32.1 87.1 31.75 86.75 L31.1 86.15 Q30.85 85.9 31.0 85.65 31.15 85.4 31.65 85.4 L32.45 85.65 M32.3 87.9 L32.9 87.75 Q33.2 87.7 33.4 87.9 L33.4 88.35 33.0 88.8 32.4 88.95 Q32.1 88.95 32.1 88.65 L32.05 88.25 Q32.0 88.05 32.3 87.9" fill="#ea9999" fill-opacity="0.7019608" fill-rule="evenodd" stroke="none"/>
      <path d="M24.2 70.1 Q24.85 70.1 24.8 71.4 24.75 72.75 23.95 74.7 23.15 76.65 22.1 77.95 21.05 79.3 20.35 79.3 19.65 79.3 19.7 77.95 19.8 76.55 20.55 74.65 21.35 72.75 22.4 71.4 23.45 70.05 24.2 70.1 M20.15 87.75 Q19.65 88.9 19.1 89.25 18.55 89.5 18.1 88.8 17.75 88.0 17.8 86.6 17.8 85.2 18.2 84.0 18.6 82.75 19.3 82.45 19.85 82.2 20.2 83.0 20.65 83.75 20.6 85.2 20.55 86.55 20.15 87.75" fill="#ffffff" fill-opacity="0.6" fill-rule="evenodd" stroke="none"/>
      <path d="M39.2 78.3 L40.15 81.0 40.8 84.55 40.85 86.9 Q40.7 87.5 40.2 86.55 39.8 85.7 39.35 83.95 38.85 82.05 38.7 80.4 38.5 78.7 38.65 78.15 38.8 77.45 39.2 78.3" fill="#ffffff" fill-opacity="0.6" fill-rule="evenodd" stroke="none"/>
      <path d="M40.25 89.25 L40.25 89.95 39.9 90.75 39.45 91.2 Q39.2 91.2 39.1 91.0 39.0 90.7 39.15 90.3 39.25 89.85 39.5 89.5 39.7 89.1 39.95 89.05 40.15 88.95 40.25 89.25" fill="#ffffff" fill-opacity="0.6" fill-rule="evenodd" stroke="none"/>
      <path d="M28.2 96.4 Q22.2 96.25 18.45 92.45 16.2 90.2 17.15 80.85 17.6 78.6 19.15 75.5 L21.9 70.15 Q25.05 65.75 31.05 66.2 35.35 66.6 36.8 69.75 39.3 72.75 40.75 82.35 42.85 89.0 38.7 93.1 34.5 96.15 28.25 96.35 L28.2 96.3 28.25 96.3 28.2 96.4" fill="url(#gradient3)" fill-rule="evenodd" stroke="none"/>
      <path d="M28.2 96.4 Q22.2 96.25 18.45 92.45 16.2 90.2 17.15 80.85 17.6 78.6 19.15 75.5 L21.9 70.15 Q25.05 65.75 31.05 66.2 35.35 66.6 36.8 69.75 39.3 72.75 40.75 82.35 42.85 89.0 38.7 93.1 34.5 96.15 28.25 96.35 L28.2 96.3 28.25 96.3" fill="none" stroke="#a14040" stroke-linecap="round" stroke-linejoin="round" stroke-opacity="0.5019608" stroke-width="0.05"/>
      <path d="M62.05 53.65 L63.2 54.85 63.7 54.65 63.2 54.85 64.75 58.0 65.35 57.85 63.7 54.65 62.55 53.5 62.05 53.65 M46.25 57.9 L46.75 57.0 45.95 56.1 45.15 57.75 48.1 63.1 46.25 57.9 M38.95 53.65 Q52.8 40.05 66.65 35.95 87.55 31.8 94.25 35.45 L95.5 34.2 Q98.75 30.15 94.2 28.05 90.3 26.6 75.65 27.15 60.95 27.75 41.85 40.6 36.55 45.3 35.85 48.7 36.7 51.85 38.95 53.65 M40.8 56.65 L39.4 55.95 Q37.9 54.85 36.7 53.4 39.05 58.1 38.55 61.0 39.85 62.65 41.7 64.1 39.9 59.15 40.8 56.65 M98.35 32.55 Q98.2 34.25 97.0 35.45 L95.5 37.05 Q97.6 40.45 98.6 45.5 L99.0 48.2 Q101.0 45.1 101.75 42.1 L101.9 41.2 Q99.7 38.2 98.35 32.55 M67.05 53.75 L66.05 54.05 71.6 64.45 72.55 64.2 67.05 53.75 M43.7 65.45 L44.1 63.7 43.1 59.7 43.7 65.45 M63.95 60.75 Q64.15 62.0 66.3 61.45 L68.0 65.3 68.2 65.25 68.45 64.85 68.35 64.8 Q68.25 63.7 66.35 60.2 L65.8 60.65 64.5 60.9 64.35 60.85 63.95 60.75" fill="#6c3c1e" fill-rule="evenodd" stroke="none"/>
      <path d="M50.8 57.8 L46.25 57.9 48.1 63.1 45.15 57.75 Q42.75 57.45 40.8 56.65 39.9 59.15 41.7 64.1 L43.7 65.45 43.1 59.7 44.1 63.7 44.6 65.8 47.2 66.5 Q51.25 66.8 55.55 66.6 52.45 62.65 50.8 57.8 M95.5 37.05 Q89.9 42.65 83.05 46.75 87.15 51.15 88.55 56.4 L88.75 57.25 Q93.5 54.2 97.5 50.25 L99.0 48.2 98.6 45.5 Q97.6 40.45 95.5 37.05" fill="#b45832" fill-rule="evenodd" stroke="none"/>
      <path d="M63.2 54.85 Q56.2 57.25 50.8 57.8 52.45 62.65 55.55 66.6 L63.3 66.0 68.0 65.3 66.3 61.45 Q64.15 62.0 63.95 60.75 L63.4 60.25 63.35 60.15 Q63.2 59.65 63.5 59.1 63.75 58.45 64.5 58.05 L64.75 58.0 63.2 54.85 M36.7 53.4 Q35.25 51.75 34.25 49.55 36.3 54.5 37.35 59.1 L38.55 61.0 Q39.05 58.1 36.7 53.4 M97.85 29.2 Q98.45 31.1 98.35 32.55 99.7 38.2 101.9 41.2 L102.05 38.5 Q99.75 34.6 97.85 29.2 M83.05 46.75 Q75.7 51.15 67.05 53.75 L72.55 64.2 Q80.15 62.2 86.5 58.6 L88.75 57.25 88.55 56.4 Q87.15 51.15 83.05 46.75" fill="#bc6734" fill-rule="evenodd" stroke="none"/>
      <path d="M59.05 54.5 Q52.1 56.25 47.2 56.15 L46.75 57.0 46.25 57.9 50.8 57.8 Q56.2 57.25 63.2 54.85 L62.05 53.65 60.4 54.1 59.05 54.5 M45.95 56.1 Q41.5 55.75 38.95 53.65 36.7 51.85 35.85 48.7 36.55 45.3 41.85 40.6 60.95 27.75 75.65 27.15 90.3 26.6 94.2 28.05 98.75 30.15 95.5 34.2 L94.25 35.45 Q81.85 47.8 65.35 52.75 L66.05 54.05 67.05 53.75 Q75.7 51.15 83.05 46.75 89.9 42.65 95.5 37.05 L97.0 35.45 Q98.2 34.25 98.35 32.55 98.45 31.1 97.85 29.2 L97.75 29.0 Q97.6 28.4 96.65 27.3 95.45 25.9 90.8 24.85 78.8 23.4 63.0 27.75 42.15 33.75 33.95 47.55 33.95 48.75 34.25 49.55 35.25 51.75 36.7 53.4 37.9 54.85 39.4 55.95 L40.8 56.65 Q42.75 57.45 45.15 57.75 L45.95 56.1" fill="#d19947" fill-rule="evenodd" stroke="none"/>
      <path d="M60.4 54.1 L62.05 53.65 62.55 53.5 63.7 54.65 65.35 57.85 65.9 57.8 66.05 57.85 64.1 54.2 Q63.1 53.75 62.35 52.75 L60.4 54.1 M63.3 66.0 L64.35 66.5 Q67.45 66.75 69.85 65.55 L66.9 59.45 66.8 59.55 66.35 60.2 Q68.25 63.7 68.35 64.8 L68.45 64.85 68.2 65.25 68.0 65.3 63.3 66.0 M63.35 60.15 L63.4 60.25 63.95 60.75 64.35 60.85 64.5 60.9 Q65.1 59.9 66.95 59.0 L66.85 58.45 66.65 58.2 Q65.7 60.2 63.35 60.15" fill="#5c4901" fill-rule="evenodd" stroke="none"/>
      <path d="M64.35 66.5 Q66.6 67.25 69.1 67.05 71.65 66.75 71.95 65.35 L71.25 65.25 64.6 53.2 Q63.65 53.75 62.65 52.5 L62.35 52.75 Q63.1 53.75 64.1 54.2 L66.05 57.85 66.65 58.2 66.85 58.45 66.95 59.0 66.9 59.45 66.95 59.0 Q65.1 59.9 64.5 60.9 L65.8 60.65 66.35 60.2 66.8 59.55 66.9 59.45 69.85 65.55 Q67.45 66.75 64.35 66.5" fill="#a08001" fill-rule="evenodd" stroke="none"/>
      <path d="M59.05 54.5 L60.4 54.1 62.35 52.75 62.65 52.5 Q63.65 53.75 64.6 53.2 L71.25 65.25 71.95 65.35 72.0 65.15 71.6 64.45 66.05 54.05 65.35 52.75 Q65.1 51.25 62.85 51.05 59.5 53.0 59.05 54.5 M64.75 58.0 L64.5 58.05 Q63.75 58.45 63.5 59.1 63.2 59.65 63.35 60.15 65.7 60.2 66.65 58.2 L66.05 57.85 65.9 57.8 65.35 57.85 64.75 58.0" fill="#ffcc00" fill-rule="evenodd" stroke="none"/>
      <path d="M46.75 57.0 L47.2 56.15 Q52.1 56.25 59.05 54.5 L60.4 54.1 62.05 53.65 62.55 53.5 63.7 54.65 M46.25 57.9 L46.75 57.0 45.95 56.1 Q41.5 55.75 38.95 53.65 52.8 40.05 66.65 35.95 87.55 31.8 94.25 35.45 81.85 47.8 65.35 52.75 65.1 51.25 62.85 51.05 59.5 53.0 59.05 54.5 M39.4 55.95 Q37.9 54.85 36.7 53.4 M34.25 49.55 Q33.95 48.75 33.95 47.55 42.15 33.75 63.0 27.75 78.8 23.4 90.8 24.85 95.45 25.9 96.65 27.3 97.6 28.4 97.75 29.0 L97.85 29.2 M66.05 54.05 L65.35 52.75 M45.95 56.1 L45.15 57.75 48.1 63.1 46.25 57.9 M34.25 49.55 Q36.3 54.5 37.35 59.1 L38.55 61.0 Q39.85 62.65 41.7 64.1 L43.7 65.45 44.1 63.7 44.6 65.8 47.2 66.5 Q51.25 66.8 55.55 66.6 L63.3 66.0 64.35 66.5 Q66.6 67.25 69.1 67.05 71.65 66.75 71.95 65.35 L72.0 65.15 71.6 64.45 72.55 64.2 Q80.15 62.2 86.5 58.6 L88.75 57.25 Q93.5 54.2 97.5 50.25 L99.0 48.2 Q101.0 45.1 101.75 42.1 L101.9 41.2 102.05 38.5 Q99.75 34.6 97.85 29.2 M43.7 65.45 L43.1 59.7 44.1 63.7 M35.85 48.7 Q36.7 51.85 38.95 53.65 M64.75 58.0 L64.5 58.05 Q63.75 58.45 63.5 59.1 63.2 59.65 63.35 60.15 L63.4 60.25 63.95 60.75 M68.0 65.3 L63.3 66.0 M65.35 57.85 L64.75 58.0 M66.05 57.85 L65.9 57.8 65.35 57.85 63.7 54.65 M66.35 60.2 L66.8 59.55 66.9 59.45 66.95 59.0 66.85 58.45 66.65 58.2 66.05 57.85 M64.5 60.9 L64.35 60.85 63.95 60.75 M64.5 60.9 L65.8 60.65 66.35 60.2 Q68.25 63.7 68.35 64.8 M68.45 64.85 L68.2 65.25 68.0 65.3 M71.6 64.45 L66.05 54.05 M67.05 53.75 L72.55 64.2 M94.25 35.45 L95.5 34.2 Q98.75 30.15 94.2 28.05" fill="none" stroke="#000000" stroke-linecap="round" stroke-linejoin="round" stroke-opacity="0.4" stroke-width="0.2"/>
      <path d="M63.2 54.85 Q56.2 57.25 50.8 57.8 L46.25 57.9 M45.15 57.75 Q42.75 57.45 40.8 56.65 L39.4 55.95 M36.7 53.4 Q35.25 51.75 34.25 49.55 M97.85 29.2 Q98.45 31.1 98.35 32.55 98.2 34.25 97.0 35.45 L95.5 37.05 Q89.9 42.65 83.05 46.75 75.7 51.15 67.05 53.75 L66.05 54.05 M63.7 54.65 L63.2 54.85 M41.85 40.6 Q36.55 45.3 35.85 48.7" fill="none" stroke="#ff9900" stroke-linecap="round" stroke-linejoin="round" stroke-opacity="0.4" stroke-width="0.2"/>
      <path d="M63.25 52.45 L63.8 52.75 64.3 52.65 64.5 52.25 64.25 51.8 63.7 51.5 63.2 51.6 Q63.0 51.7 63.0 51.95 L63.25 52.45" fill="#ffffff" fill-rule="evenodd" stroke="none"/>
      <path d="M65.0 59.55 L65.65 59.5 66.1 59.0 66.15 58.55 Q66.05 58.35 65.75 58.3 L65.15 58.45 Q64.8 58.6 64.65 58.85 L64.6 59.35 Q64.7 59.6 65.0 59.55" fill="#ffffff" fill-rule="evenodd" stroke="none"/>
    </g>
    <linearGradient gradientTransform="matrix(0.0, -0.0206, 0.0203, -0.0018, 95.1, 54.4)" gradientUnits="userSpaceOnUse" id="gradient0" spreadMethod="pad" x1="-819.2" x2="819.2">
      <stop offset="0.06666666666666667" stop-color="#59be3a" stop-opacity="0.7019608"/>
      <stop offset="0.5137254901960784" stop-color="#baf57c" stop-opacity="0.7019608"/>
      <stop offset="1.0" stop-color="#d2f4d6" stop-opacity="0.6509804"/>
    </linearGradient>
    <linearGradient gradientTransform="matrix(-0.0079, -0.0108, -0.0119, 0.0104, 114.3, 55.45)" gradientUnits="userSpaceOnUse" id="gradient1" spreadMethod="pad" x1="-819.2" x2="819.2">
      <stop offset="0.06666666666666667" stop-color="#59be3a" stop-opacity="0.7019608"/>
      <stop offset="0.5137254901960784" stop-color="#baf57c" stop-opacity="0.7019608"/>
      <stop offset="1.0" stop-color="#d2f4d6" stop-opacity="0.6509804"/>
    </linearGradient>
    <linearGradient gradientTransform="matrix(-0.0108, -0.0166, -0.0173, 0.0114, 44.15, 68.9)" gradientUnits="userSpaceOnUse" id="gradient2" spreadMethod="pad" x1="-819.2" x2="819.2">
      <stop offset="0.06666666666666667" stop-color="#59be3a" stop-opacity="0.7019608"/>
      <stop offset="0.5137254901960784" stop-color="#baf57c" stop-opacity="0.7019608"/>
      <stop offset="1.0" stop-color="#d2f4d6" stop-opacity="0.6509804"/>
    </linearGradient>
    <linearGradient gradientTransform="matrix(8.0E-4, -0.0137, 0.015, 8.0E-4, 29.35, 81.95)" gradientUnits="userSpaceOnUse" id="gradient3" spreadMethod="pad" x1="-819.2" x2="819.2">
      <stop offset="0.06666666666666667" stop-color="#59be3a" stop-opacity="0.7019608"/>
      <stop offset="0.5137254901960784" stop-color="#baf57c" stop-opacity="0.7019608"/>
      <stop offset="1.0" stop-color="#d2f4d6" stop-opacity="0.6509804"/>
    </linearGradient>
    <g id="sprite2" transform="matrix(1.0, 0.0, 0.0, 1.0, 0.0, 0.0)">
      <use height="39.0" transform="matrix(1.0, 0.0, 0.0, 1.0, 0.0, 0.0)" width="43.5" xlink:href="#shape2"/>
    </g>
    <g id="shape2" transform="matrix(1.0, 0.0, 0.0, 1.0, 0.0, 0.0)">
      <path d="M36.65 22.65 Q37.2 24.65 39.25 24.65 42.05 24.65 42.05 19.95 42.05 15.4 39.3 15.9 36.5 16.4 36.5 20.65 L36.65 22.65 M37.7 10.5 Q37.7 6.9 32.15 4.25 26.6 1.55 26.6 5.95 26.6 6.3 30.55 9.8 34.45 13.3 34.9 13.3 36.35 13.3 37.1 12.35 37.7 11.55 37.7 10.5 M37.1 5.7 Q43.5 11.4 43.5 19.5 43.5 27.6 37.1 33.3 30.75 39.0 21.75 39.0 12.75 39.0 6.35 33.3 0.0 27.6 0.0 19.5 0.0 11.4 6.35 5.7 12.75 0.0 21.75 0.0 30.75 0.0 37.1 5.7" fill="#d06a6a" fill-opacity="0.48235294" fill-rule="evenodd" stroke="none"/>
      <path d="M37.7 10.5 Q37.7 11.55 37.1 12.35 36.35 13.3 34.9 13.3 34.45 13.3 30.55 9.8 26.6 6.3 26.6 5.95 26.6 1.55 32.15 4.25 37.7 6.9 37.7 10.5 M36.65 22.65 L36.5 20.65 Q36.5 16.4 39.3 15.9 42.05 15.4 42.05 19.95 42.05 24.65 39.25 24.65 37.2 24.65 36.65 22.65" fill="#e6bbbb" fill-opacity="0.48235294" fill-rule="evenodd" stroke="none"/>
    </g>
    <g id="shape3" transform="matrix(1.0, 0.0, 0.0, 1.0, -14.1, -13.1)">
      <path d="M44.8 65.95 Q47.2 66.85 48.85 66.7 50.9 75.9 45.8 79.85 35.45 86.9 24.4 79.15 11.45 68.25 14.95 48.7 20.05 28.75 31.3 32.4 41.95 37.15 45.4 56.1 43.0 55.75 40.9 55.0 41.85 61.15 44.8 65.95 L46.95 68.95 44.8 65.95 M40.9 55.0 Q40.55 52.9 40.5 50.65 40.55 52.9 40.9 55.0" fill="url(#gradient4)" fill-rule="evenodd" stroke="none"/>
      <path d="M96.65 51.2 Q97.1 43.45 91.7 37.85 88.15 41.35 83.85 44.05 81.1 29.6 88.4 19.55 95.6 9.5 103.55 15.3 112.15 22.9 116.1 38.15 120.1 58.0 106.55 66.15 95.95 70.05 89.65 56.75 93.55 54.15 96.65 51.2 L96.05 55.2 96.65 51.2 M91.7 37.85 L90.25 36.5 91.7 37.85" fill="url(#gradient5)" fill-rule="evenodd" stroke="none"/>
      <path d="M96.65 51.2 Q97.1 43.45 91.7 37.85 88.15 41.35 83.85 44.05 81.1 29.6 88.4 19.55 95.6 9.5 103.55 15.3 112.15 22.9 116.1 38.15 120.1 58.0 106.55 66.15 95.95 70.05 89.65 56.75 93.55 54.15 96.65 51.2 L96.05 55.2 M90.25 36.5 L91.7 37.85 M44.8 65.95 Q47.2 66.85 48.85 66.7 50.9 75.9 45.8 79.85 35.45 86.9 24.4 79.15 11.45 68.25 14.95 48.7 20.05 28.75 31.3 32.4 41.95 37.15 45.4 56.1 43.0 55.75 40.9 55.0 41.85 61.15 44.8 65.95 L46.95 68.95 M40.5 50.65 Q40.55 52.9 40.9 55.0" fill="none" stroke="#000000" stroke-linecap="round" stroke-linejoin="round" stroke-opacity="0.4" stroke-width="0.2"/>
      <path d="M101.4 15.7 Q109.85 25.15 113.1 40.25 111.95 44.65 109.1 41.9 107.2 31.65 98.85 19.75 97.2 13.6 101.4 15.7 M108.55 56.95 Q109.75 52.0 109.75 47.55 112.0 43.9 113.8 47.2 114.75 52.65 113.15 57.45 109.3 63.35 108.55 56.95" fill="#ffffff" fill-opacity="0.48235294" fill-rule="evenodd" stroke="none"/>
      <path d="M19.0 43.0 Q15.3 54.5 18.0 65.9 20.5 67.85 21.95 64.25 19.85 56.6 22.65 43.7 21.8 38.8 19.0 43.0 M27.75 73.05 Q25.0 70.8 23.4 68.15 20.25 67.35 19.85 70.65 21.05 74.6 24.15 76.4 29.45 77.45 27.75 73.05" fill="#ffffff" fill-opacity="0.48235294" fill-rule="evenodd" stroke="none"/>
      <path d="M43.7 76.5 L47.15 79.5 50.4 85.65 46.45 83.7 44.05 83.55 Q41.95 87.3 36.55 89.55 35.2 87.75 34.35 84.85 L29.65 88.4 31.85 81.15 33.25 79.35 Q35.9 76.7 39.9 76.05 L43.7 76.5" fill="#8c231d" fill-rule="evenodd" stroke="none"/>
      <path d="M32.2 83.35 Q33.25 80.8 34.05 80.65 34.85 80.55 34.9 82.95 L34.95 90.1 Q34.95 94.9 39.05 96.95 43.25 99.0 38.2 102.45 33.15 105.9 31.55 99.6 29.8 93.3 30.45 89.55 31.1 85.85 32.2 83.35" fill="#961f1f" fill-rule="evenodd" stroke="none"/>
      <path d="M43.55 82.4 L43.45 82.0 43.65 81.7 44.05 81.6 44.4 81.75 44.55 82.1 44.3 82.45 43.95 82.6 43.55 82.4 M44.2 91.7 L44.85 91.95 45.0 92.55 44.7 93.1 44.1 93.25 43.5 92.9 43.35 92.35 Q43.35 92.05 43.65 91.85 43.85 91.65 44.2 91.7 M46.45 99.65 Q47.1 99.75 47.5 100.25 47.85 100.8 47.75 101.5 47.65 102.1 47.15 102.45 L45.95 102.75 Q45.3 102.6 44.95 102.1 44.6 101.6 44.7 100.95 44.8 100.3 45.3 99.95 45.8 99.55 46.45 99.65 M49.15 99.0 Q49.15 98.7 49.4 98.5 L50.0 98.35 Q50.35 98.4 50.55 98.65 L50.75 99.2 50.5 99.7 49.9 99.85 Q49.55 99.85 49.3 99.55 L49.15 99.0 M43.4 103.2 Q43.2 104.45 42.25 105.15 41.2 105.85 40.05 105.65 38.8 105.45 38.1 104.5 37.4 103.45 37.6 102.3 37.75 101.05 38.85 100.35 39.8 99.65 41.0 99.85 42.15 100.05 42.9 101.1 43.6 102.05 43.4 103.2 M35.75 99.1 Q35.3 99.05 35.05 98.75 34.8 98.5 34.9 98.1 34.9 97.8 35.2 97.6 35.55 97.35 35.95 97.4 36.3 97.45 36.55 97.75 L36.85 98.4 36.45 98.95 35.75 99.1" fill="#771a1a" fill-opacity="0.7019608" fill-rule="evenodd" stroke="none"/>
      <path d="M43.8 94.35 Q44.9 94.45 45.7 95.25 46.4 96.1 46.35 97.15 46.2 98.2 45.25 98.85 44.4 99.45 43.3 99.35 42.1 99.25 41.35 98.35 40.65 97.55 40.8 96.5 40.9 95.45 41.75 94.85 42.65 94.2 43.8 94.35" fill="#4f1111" fill-opacity="0.7019608" fill-rule="evenodd" stroke="none"/>
      <path d="M43.75 94.4 L44.55 94.5 45.3 95.0 45.45 95.65 44.85 96.0 44.05 95.75 43.35 95.2 Q43.05 95.0 43.15 94.75 43.3 94.45 43.75 94.4 M45.35 96.5 L45.85 96.55 45.95 97.0 45.65 97.55 45.05 97.8 Q44.75 97.8 44.7 97.5 L44.6 97.15 Q44.5 96.95 44.75 96.75 L45.35 96.5" fill="#ea9999" fill-opacity="0.7019608" fill-rule="evenodd" stroke="none"/>
      <path d="M33.95 80.4 Q34.65 80.3 34.8 81.65 35.0 82.95 34.45 85.05 34.0 87.05 33.2 88.55 32.35 90.0 31.7 90.1 31.0 90.25 30.85 88.95 30.65 87.55 31.15 85.5 31.6 83.5 32.4 82.05 33.25 80.5 33.95 80.4 M32.75 98.5 Q32.5 99.7 32.0 100.15 31.45 100.55 30.95 99.85 30.45 99.1 30.3 97.7 30.05 96.3 30.3 95.05 30.5 93.8 31.1 93.4 31.6 93.1 32.1 93.8 32.6 94.5 32.8 95.95 33.0 97.3 32.75 98.5" fill="#ffffff" fill-opacity="0.6" fill-rule="evenodd" stroke="none"/>
      <path d="M50.15 86.15 L51.5 88.7 52.7 92.05 53.1 94.4 Q53.05 95.0 52.45 94.15 51.85 93.4 51.15 91.7 L49.95 88.35 Q49.45 86.7 49.55 86.05 49.6 85.4 50.15 86.15" fill="#ffffff" fill-opacity="0.6" fill-rule="evenodd" stroke="none"/>
      <path d="M52.9 96.8 L53.0 97.5 52.8 98.35 52.4 98.85 Q52.15 98.95 52.05 98.7 51.9 98.45 51.9 98.05 L52.1 97.15 52.55 96.65 Q52.75 96.55 52.9 96.8" fill="#ffffff" fill-opacity="0.6" fill-rule="evenodd" stroke="none"/>
      <path d="M42.15 105.75 Q36.15 106.55 31.85 103.45 29.25 101.55 28.75 92.15 28.85 89.9 29.9 86.6 L31.75 80.85 Q34.2 76.05 40.15 75.55 44.5 75.2 46.4 78.1 49.3 80.7 52.35 89.95 55.45 96.15 52.0 100.9 48.3 104.6 42.2 105.7 L42.15 105.65 42.1 105.7 42.15 105.75" fill="url(#gradient6)" fill-rule="evenodd" stroke="none"/>
      <path d="M42.15 105.75 Q36.15 106.55 31.85 103.45 29.25 101.55 28.75 92.15 28.85 89.9 29.9 86.6 L31.75 80.85 Q34.2 76.05 40.15 75.55 44.5 75.2 46.4 78.1 49.3 80.7 52.35 89.95 55.45 96.15 52.0 100.9 48.3 104.6 42.2 105.7 L42.15 105.65 42.1 105.7" fill="none" stroke="#a14040" stroke-linecap="round" stroke-linejoin="round" stroke-opacity="0.5019608" stroke-width="0.05"/>
    </g>
    <linearGradient gradientTransform="matrix(-0.0163, 0.0095, -0.0158, -0.0273, 27.45, 60.65)" gradientUnits="userSpaceOnUse" id="gradient4" spreadMethod="pad" x1="-819.2" x2="819.2">
      <stop offset="0.06666666666666667" stop-color="#59be3a" stop-opacity="0.7019608"/>
      <stop offset="0.5137254901960784" stop-color="#baf57c" stop-opacity="0.7019608"/>
      <stop offset="1.0" stop-color="#d2f4d6" stop-opacity="0.6509804"/>
    </linearGradient>
    <linearGradient gradientTransform="matrix(0.021, 0.0056, -0.0081, 0.0304, 105.6, 41.7)" gradientUnits="userSpaceOnUse" id="gradient5" spreadMethod="pad" x1="-819.2" x2="819.2">
      <stop offset="0.06666666666666667" stop-color="#59be3a" stop-opacity="0.7019608"/>
      <stop offset="0.5137254901960784" stop-color="#baf57c" stop-opacity="0.7019608"/>
      <stop offset="1.0" stop-color="#d2f4d6" stop-opacity="0.6509804"/>
    </linearGradient>
    <linearGradient gradientTransform="matrix(-0.0014, -0.0137, 0.015, -0.0015, 40.95, 91.35)" gradientUnits="userSpaceOnUse" id="gradient6" spreadMethod="pad" x1="-819.2" x2="819.2">
      <stop offset="0.06666666666666667" stop-color="#59be3a" stop-opacity="0.7019608"/>
      <stop offset="0.5137254901960784" stop-color="#baf57c" stop-opacity="0.7019608"/>
      <stop offset="1.0" stop-color="#d2f4d6" stop-opacity="0.6509804"/>
    </linearGradient>
    <g id="sprite3" transform="matrix(1.0, 0.0, 0.0, 1.0, 13.85, 11.2)">
      <use height="18.4" transform="matrix(1.0, 0.0, 0.0, 1.0, -13.85, -11.2)" width="27.75" xlink:href="#shape4"/>
    </g>
    <g id="shape4" transform="matrix(1.0, 0.0, 0.0, 1.0, 13.85, 11.2)">
      <path d="M-8.4 -1.25 Q-8.55 -3.6 -10.45 -7.15 -7.45 -7.1 -1.3 -5.3 L-8.4 -1.25" fill="#e5c59a" fill-rule="evenodd" stroke="none"/>
      <path d="M-8.4 -1.25 Q-8.55 -3.6 -10.45 -7.15 -7.45 -7.1 -1.3 -5.3" fill="none" stroke="#9e8769" stroke-linecap="round" stroke-linejoin="round" stroke-width="0.05"/>
      <path d="M0.0 -5.15 Q5.25 -6.85 10.25 -7.25 8.25 -3.0 8.15 0.05 L0.0 -5.15" fill="#e5c59a" fill-rule="evenodd" stroke="none"/>
      <path d="M0.0 -5.15 Q5.25 -6.85 10.25 -7.25 8.25 -3.0 8.15 0.05" fill="none" stroke="#9e8769" stroke-linecap="round" stroke-linejoin="round" stroke-width="0.05"/>
      <path d="M-7.4 1.35 L-8.8 -2.85 -5.4 -1.5 -4.05 -0.25 -3.55 2.1 Q-5.3 1.45 -7.4 1.35" fill="#e5c59a" fill-rule="evenodd" stroke="none"/>
      <path d="M-7.4 1.35 L-13.85 1.75 Q-12.75 -0.9 -8.8 -2.85 L-7.4 1.35" fill="#fff5e0" fill-rule="evenodd" stroke="none"/>
      <path d="M-8.8 -2.85 Q-12.75 -0.9 -13.85 1.75 L-7.4 1.35" fill="none" stroke="#9e8769" stroke-linecap="round" stroke-linejoin="round" stroke-width="0.05"/>
      <path d="M5.75 -2.0 L9.85 -2.7 8.8 -0.7 7.45 1.9 Q4.35 2.4 1.55 3.45 1.4 0.8 5.75 -2.0 M4.75 -0.05 Q7.05 -0.95 8.8 -0.7 7.05 -0.95 4.75 -0.05" fill="#e5c59a" fill-rule="evenodd" stroke="none"/>
      <path d="M7.45 1.9 L8.8 -0.7 Q9.7 -0.6 10.5 -0.1 9.7 -0.6 8.8 -0.7 L9.85 -2.7 Q12.55 -0.45 13.9 2.75 10.2 1.75 7.45 1.9" fill="#fff5e0" fill-rule="evenodd" stroke="none"/>
      <path d="M9.85 -2.7 L5.75 -2.0 M1.55 3.45 Q4.35 2.4 7.45 1.9 10.2 1.75 13.9 2.75 12.55 -0.45 9.85 -2.7" fill="none" stroke="#9e8769" stroke-linecap="round" stroke-linejoin="round" stroke-width="0.05"/>
      <path d="M8.8 -0.7 Q7.05 -0.95 4.75 -0.05 M8.8 -0.7 Q9.7 -0.6 10.5 -0.1" fill="none" stroke="#9e8769" stroke-linecap="round" stroke-linejoin="round" stroke-width="0.05"/>
      <path d="M-7.1 2.2 L-7.15 2.2 -7.1 2.2" fill="#7cd100" fill-rule="evenodd" stroke="none"/>
      <path d="M4.5 3.1 Q0.5 2.55 -3.45 3.1 -4.75 2.05 -7.1 2.2 -4.1 0.3 -1.25 -0.15 2.85 0.65 4.5 3.1 M-2.1 1.05 L-3.45 3.1 -2.1 1.05" fill="#e5c59a" fill-rule="evenodd" stroke="none"/>
      <path d="M-7.1 2.2 Q-4.75 2.05 -3.45 3.1 0.5 2.55 4.5 3.1 -0.5 4.1 -4.55 7.2 -5.45 4.45 -7.15 2.2 L-7.1 2.2" fill="#fff5e0" fill-rule="evenodd" stroke="none"/>
      <path d="M-7.15 2.2 Q-5.45 4.45 -4.55 7.2 -0.5 4.1 4.5 3.1" fill="none" stroke="#9e8769" stroke-linecap="round" stroke-linejoin="round" stroke-width="0.05"/>
      <path d="M-3.45 3.1 L-2.1 1.05" fill="none" stroke="#9e8769" stroke-linecap="round" stroke-linejoin="round" stroke-width="0.05"/>
      <path d="M5.2 0.15 Q7.8 -2.75 6.5 -5.05 L11.2 -4.05 Q9.35 -0.95 7.85 -0.35 L5.2 0.15 M-3.15 -5.85 L-3.35 -6.4 Q-3.7 -8.15 -0.45 -10.4 L3.35 -7.15 Q-0.1 -7.35 -3.15 -5.85 M-3.85 0.5 L-6.55 0.45 Q-8.05 0.2 -10.85 -2.9 L-6.85 -4.55 Q-6.3 -1.8 -3.85 0.5" fill="#b3946d" fill-rule="evenodd" stroke="none"/>
      <path d="M-6.45 -3.0 Q-5.7 -7.65 -3.6 -10.8 -2.1 -7.0 1.3 -4.5 -5.5 -0.65 -6.45 -3.0" fill="#866742" fill-rule="evenodd" stroke="none"/>
      <path d="M-6.45 -3.0 Q-5.7 -7.65 -3.6 -10.8 -2.1 -7.0 1.3 -4.5" fill="none" stroke="#694e34" stroke-linecap="round" stroke-linejoin="round" stroke-width="0.05"/>
      <path d="M-3.35 0.85 Q-5.7 0.4 -6.7 -1.55 -7.45 -5.8 -6.0 -8.15 -5.65 -2.75 -3.35 0.85" fill="url(#gradient7)" fill-rule="evenodd" stroke="none"/>
      <path d="M-6.0 -8.15 Q-4.4 -3.3 -1.0 0.95 L-3.35 0.85 Q-5.65 -2.75 -6.0 -8.15" fill="#866742" fill-rule="evenodd" stroke="none"/>
      <path d="M2.55 -11.2 L2.6 -11.2 2.55 -11.2" fill="#fff1d1" fill-rule="evenodd" stroke="none"/>
      <path d="M2.55 -11.2 L2.6 -11.2 Q5.75 -7.65 6.05 -3.25 5.45 -2.25 4.6 -2.4 5.45 -6.1 2.55 -11.2" fill="url(#gradient8)" fill-rule="evenodd" stroke="none"/>
      <path d="M4.6 -2.4 Q1.75 -2.05 -2.35 -3.75 1.65 -6.6 2.55 -11.2 5.45 -6.1 4.6 -2.4" fill="#866742" fill-rule="evenodd" stroke="none"/>
      <path d="M5.95 -8.8 Q7.55 -6.15 7.05 -1.85 6.05 0.2 3.3 0.05 5.3 -2.45 5.95 -8.8" fill="url(#gradient9)" fill-rule="evenodd" stroke="none"/>
      <path d="M3.3 0.05 L1.4 -0.25 Q4.6 -4.05 5.95 -8.8 5.3 -2.45 3.3 0.05" fill="#866742" fill-rule="evenodd" stroke="none"/>
      <path d="M0.0 -0.35 Q-1.65 -0.35 -2.85 -1.55 -4.0 -2.7 -4.0 -4.35 -4.0 -6.0 -2.85 -7.2 -1.65 -8.35 0.0 -8.35 1.65 -8.35 2.8 -7.2 4.0 -6.0 4.0 -4.35 4.0 -2.7 2.8 -1.55 1.65 -0.35 0.0 -0.35" fill="#ffd919" fill-rule="evenodd" stroke="none"/>
      <path d="M2.3 -6.0 Q2.25 -5.6 1.85 -5.6 1.45 -5.6 0.95 -6.0 0.55 -6.35 0.3 -6.85 0.05 -7.35 0.1 -7.75 0.2 -8.1 0.6 -8.1 L1.45 -7.75 2.2 -6.85 Q2.45 -6.35 2.3 -6.0" fill="#fff8df" fill-rule="evenodd" stroke="none"/>
      <path d="M2.0 -1.05 Q-2.75 0.25 -3.7 -3.05 -2.5 -5.15 -1.8 -5.6 0.0 -3.75 3.75 -2.6 L2.0 -1.05" fill="#876642" fill-opacity="0.3019608" fill-rule="evenodd" stroke="none"/>
      <path d="M-0.35 1.35 L-3.6 0.9 Q-3.0 -2.45 0.0 -6.05 3.1 -4.4 4.4 0.25 2.2 1.35 -0.35 1.35" fill="url(#gradient10)" fill-rule="evenodd" stroke="none"/>
      <path d="M5.5 -1.75 L6.75 -0.2 Q2.6 1.9 1.35 1.55 4.1 -0.1 5.5 -1.75 M-6.45 0.0 L-5.35 -1.55 Q-3.75 0.1 -0.85 1.75 -2.1 2.1 -6.45 0.0" fill="#a18562" fill-rule="evenodd" stroke="none"/>
    </g>
    <linearGradient gradientTransform="matrix(-5.0E-4, -0.0036, 0.0018, -2.0E-4, -5.45, -3.55)" gradientUnits="userSpaceOnUse" id="gradient7" spreadMethod="pad" x1="-819.2" x2="819.2">
      <stop offset="0.06666666666666667" stop-color="#ed9c16"/>
      <stop offset="0.5137254901960784" stop-color="#f2cc4f"/>
      <stop offset="1.0" stop-color="#fceadb"/>
    </linearGradient>
    <linearGradient gradientTransform="matrix(-6.0E-4, -0.0033, 0.0012, -2.0E-4, 4.6, -5.9)" gradientUnits="userSpaceOnUse" id="gradient8" spreadMethod="pad" x1="-819.2" x2="819.2">
      <stop offset="0.06666666666666667" stop-color="#ed9c16"/>
      <stop offset="0.5137254901960784" stop-color="#f2cc4f"/>
      <stop offset="1.0" stop-color="#fceadb"/>
    </linearGradient>
    <linearGradient gradientTransform="matrix(6.0E-4, -0.0043, 0.0021, 3.0E-4, 5.6, -4.0)" gradientUnits="userSpaceOnUse" id="gradient9" spreadMethod="pad" x1="-819.2" x2="819.2">
      <stop offset="0.06666666666666667" stop-color="#ed9c16"/>
      <stop offset="0.5137254901960784" stop-color="#f2cc4f"/>
      <stop offset="1.0" stop-color="#fceadb"/>
    </linearGradient>
    <linearGradient gradientTransform="matrix(1.0E-4, -0.0031, 0.0049, 1.0E-4, 0.45, -2.15)" gradientUnits="userSpaceOnUse" id="gradient10" spreadMethod="pad" x1="-819.2" x2="819.2">
      <stop offset="0.01568627450980392" stop-color="#ed9c16"/>
      <stop offset="0.3176470588235294" stop-color="#f2cc4f"/>
      <stop offset="0.9333333333333333" stop-color="#fceadb"/>
    </linearGradient>
    <g id="shape5" transform="matrix(1.0, 0.0, 0.0, 1.0, -97.75, -55.2)">
      <path d="M99.55 60.35 L98.3 65.0 98.9 72.15 101.15 67.95 103.0 66.25 Q106.75 68.0 112.45 66.35 112.55 64.05 111.7 61.05 L117.45 60.95 111.8 56.5 109.65 55.85 Q106.1 55.4 102.45 57.45 L99.55 60.35" fill="#8c231d" fill-rule="evenodd" stroke="none"/>
      <path d="M112.7 58.5 Q110.5 57.05 109.75 57.5 109.0 57.9 110.25 59.9 L114.05 65.8 Q116.6 69.65 114.25 74.05 111.95 78.45 117.9 78.05 123.9 77.6 121.85 71.4 119.95 65.05 117.45 62.45 114.9 59.85 112.7 58.5" fill="#961f1f" fill-rule="evenodd" stroke="none"/>
      <path d="M102.85 65.0 L102.75 64.65 102.4 64.5 Q102.25 64.45 102.0 64.65 L101.75 65.1 101.9 65.45 102.25 65.6 102.65 65.45 102.85 65.0 M107.25 73.1 Q106.9 73.4 106.95 73.7 106.85 74.1 107.05 74.35 L107.55 74.6 108.1 74.35 108.5 73.65 108.35 73.1 Q108.15 72.85 107.8 72.85 107.5 72.85 107.25 73.1 M109.65 81.1 Q109.15 81.6 109.15 82.25 109.1 82.95 109.6 83.45 109.95 83.85 110.65 83.85 111.25 83.85 111.7 83.35 L112.2 82.15 Q112.2 81.5 111.75 81.0 111.4 80.55 110.75 80.6 110.1 80.55 109.65 81.1 M106.6 82.05 L106.05 82.35 105.7 82.95 Q105.65 83.3 105.85 83.55 106.05 83.8 106.35 83.75 L106.95 83.5 107.3 82.85 107.1 82.3 Q106.95 82.05 106.6 82.05 M114.05 82.05 Q114.9 82.9 116.05 82.85 117.2 82.8 118.1 81.9 119.0 80.85 119.05 79.65 119.15 78.35 118.3 77.55 117.55 76.6 116.3 76.75 115.1 76.75 114.25 77.7 113.35 78.65 113.3 79.95 113.3 81.2 114.05 82.05 M118.15 73.75 L118.5 73.0 Q118.6 72.65 118.3 72.35 118.15 72.1 117.8 72.1 117.4 72.1 117.1 72.45 116.75 72.65 116.75 73.1 116.7 73.55 116.9 73.8 L117.5 74.05 118.15 73.75" fill="#771a1a" fill-opacity="0.7019608" fill-rule="evenodd" stroke="none"/>
      <path d="M109.0 75.0 Q108.1 75.85 107.9 77.0 107.8 78.15 108.45 78.95 109.1 79.7 110.2 79.65 111.25 79.6 112.1 78.75 113.0 77.9 113.15 76.75 113.35 75.6 112.65 74.85 112.0 74.05 110.95 74.1 109.85 74.15 109.0 75.0" fill="#4f1111" fill-opacity="0.7019608" fill-rule="evenodd" stroke="none"/>
      <path d="M108.45 75.65 Q108.15 76.1 108.15 76.5 108.05 76.95 108.35 77.15 L109.0 77.05 109.55 76.3 109.85 75.45 Q110.0 75.1 109.75 74.9 L109.1 75.0 Q108.75 75.15 108.45 75.65 M109.5 77.65 L108.8 77.8 108.5 78.2 Q108.45 78.4 108.65 78.6 L109.2 78.85 109.8 78.7 109.95 78.2 109.85 77.8 Q109.8 77.6 109.5 77.65" fill="#ea9999" fill-opacity="0.7019608" fill-rule="evenodd" stroke="none"/>
      <path d="M109.65 57.3 Q109.05 57.6 109.65 58.8 110.2 59.95 111.7 61.35 L114.65 63.4 Q116.1 64.1 116.7 63.75 117.35 63.4 116.8 62.2 116.2 60.95 114.7 59.6 113.25 58.25 111.8 57.6 110.3 56.85 109.65 57.3 M120.3 71.3 L121.85 72.15 Q122.45 72.1 122.5 71.25 122.55 70.35 121.9 69.1 121.35 67.75 120.5 66.9 119.65 66.05 119.0 66.1 118.35 66.1 118.3 67.05 118.3 67.9 118.85 69.25 119.45 70.5 120.3 71.3" fill="#ffffff" fill-opacity="0.6" fill-rule="evenodd" stroke="none"/>
      <path d="M99.3 72.45 L99.6 75.4 100.4 79.0 Q100.9 80.6 101.3 81.15 101.7 81.6 101.75 80.5 L101.5 77.65 100.65 74.1 99.75 72.0 Q99.4 71.45 99.3 72.45" fill="#ffffff" fill-opacity="0.6" fill-rule="evenodd" stroke="none"/>
      <path d="M102.75 82.95 L103.05 83.6 103.65 84.2 104.25 84.35 104.5 84.0 104.2 83.35 103.6 82.8 103.0 82.65 102.75 82.95" fill="#ffffff" fill-opacity="0.6" fill-rule="evenodd" stroke="none"/>
      <path d="M116.3 83.35 Q121.65 80.15 123.55 74.8 124.65 71.55 120.05 63.55 118.8 61.65 116.15 59.65 L111.55 56.2 Q107.0 53.75 101.85 57.25 98.1 59.8 98.05 63.4 97.05 67.4 99.55 76.95 100.3 84.05 105.65 85.7 110.6 86.35 116.25 83.35 L116.3 83.25 116.3 83.3 116.3 83.35" fill="url(#gradient11)" fill-rule="evenodd" stroke="none"/>
      <path d="M116.3 83.35 Q121.65 80.15 123.55 74.8 124.65 71.55 120.05 63.55 118.8 61.65 116.15 59.65 L111.55 56.2 Q107.0 53.75 101.85 57.25 98.1 59.8 98.05 63.4 97.05 67.4 99.55 76.95 100.3 84.05 105.65 85.7 110.6 86.35 116.25 83.35 L116.3 83.25 116.3 83.3" fill="none" stroke="#a14040" stroke-linecap="round" stroke-linejoin="round" stroke-opacity="0.5019608" stroke-width="0.05"/>
    </g>
    <linearGradient gradientTransform="matrix(-0.0061, -0.0121, -0.0131, 0.0084, 109.55, 70.75)" gradientUnits="userSpaceOnUse" id="gradient11" spreadMethod="pad" x1="-819.2" x2="819.2">
      <stop offset="0.06666666666666667" stop-color="#59be3a" stop-opacity="0.7019608"/>
      <stop offset="0.5137254901960784" stop-color="#baf57c" stop-opacity="0.7019608"/>
      <stop offset="1.0" stop-color="#d2f4d6" stop-opacity="0.6509804"/>
    </linearGradient>
  </defs>
</svg>
