<?xml version="1.0" encoding="UTF-8" standalone="no"?>
<svg xmlns:xlink="http://www.w3.org/1999/xlink" height="440.0px" width="440.0px" xmlns="http://www.w3.org/2000/svg">
  <g transform="matrix(10.0, 0.0, 0.0, 10.0, 0.0, 0.0)">
    <use height="44.0" transform="matrix(1.0, 0.0, 0.0, 1.0, 0.0, 0.0)" width="44.0" xlink:href="#shape0"/>
    <use height="32.5" transform="matrix(0.5183, 0.0403, -0.017, 0.2116, 7.8, 21.85)" width="32.5" xlink:href="#sprite0"/>
    <use height="28.15" transform="matrix(1.0, 0.0, 0.0, 1.0, 3.0, 7.95)" width="38.05" xlink:href="#shape2"/>
  </g>
  <defs>
    <g id="shape0" transform="matrix(1.0, 0.0, 0.0, 1.0, 0.0, 0.0)">
      <path d="M44.0 44.0 L0.0 44.0 0.0 0.0 44.0 0.0 44.0 44.0" fill="#43adca" fill-opacity="0.0" fill-rule="evenodd" stroke="none"/>
      <path d="M5.2 10.65 L6.85 9.25 Q7.9 11.0 10.3 11.7 11.25 9.25 12.7 8.2 12.15 10.6 13.65 11.8 14.4 10.05 16.15 9.25 L16.6 9.5 Q14.95 11.4 15.85 11.5 L18.05 11.15 19.0 12.15 18.95 12.2 Q16.0 13.45 14.1 14.55 12.85 12.9 13.05 11.35 L11.05 11.35 Q10.9 12.7 10.2 13.95 9.15 12.85 8.2 12.55 8.9 13.55 8.95 15.05 7.5 16.05 6.0 16.15 7.05 16.65 7.95 18.5 L8.85 19.1 8.7 20.15 Q6.55 20.1 5.0 21.4 L3.7 18.95 Q5.3 18.1 5.9 15.95 4.7 14.55 3.25 14.0 L5.5 13.85 3.8 14.1 Q5.25 14.1 6.4 14.85 L6.15 14.0 6.2 14.0 Q5.95 12.2 5.05 10.75 L5.15 10.65 6.6 13.0 6.85 11.05 6.3 9.95 5.2 10.65 M17.65 13.35 L16.95 14.35 17.1 13.9 17.65 13.35 M16.45 21.05 L17.35 22.05 16.9 22.3 16.45 21.05 M16.7 22.45 L15.25 23.15 14.1 21.75 Q15.5 21.7 16.7 22.45 M11.3 21.35 Q10.65 22.5 10.3 23.65 L9.4 21.2 10.9 20.65 11.3 21.35" fill="#dab869" fill-rule="evenodd" stroke="none"/>
      <path d="M18.95 12.2 L19.0 12.15 17.65 13.35 17.1 13.9 16.95 14.35 17.0 15.1 Q18.4 14.45 20.0 14.75 L20.2 15.15 Q18.15 15.55 18.65 16.0 L20.35 16.9 20.45 17.95 Q19.8 17.9 18.45 18.6 L16.45 19.8 16.45 21.05 16.9 22.3 17.2 22.8 16.7 22.45 Q15.5 21.7 14.1 21.75 13.3 22.75 13.7 24.35 L11.7 24.05 Q11.8 22.55 11.3 21.35 L10.9 20.65 9.4 21.2 8.05 21.9 8.7 20.15 8.85 19.1 7.95 18.5 Q7.05 16.65 6.0 16.15 7.5 16.05 8.95 15.05 8.9 13.55 8.2 12.55 9.15 12.85 10.2 13.95 10.9 12.7 11.05 11.35 L13.05 11.35 Q12.85 12.9 14.1 14.55 16.0 13.45 18.95 12.2" fill="#a68c4f" fill-rule="evenodd" stroke="none"/>
      <path d="M5.5 13.85 L6.1 13.9 6.15 14.0 6.4 14.85 Q5.25 14.1 3.8 14.1 L5.5 13.85 M5.15 10.65 L5.2 10.65 6.3 9.95 6.85 11.05 6.6 13.0 5.15 10.65" fill="#ebd8ad" fill-rule="evenodd" stroke="none"/>
      <path d="M5.2 10.65 L6.85 9.25 Q7.9 11.0 10.3 11.7 11.25 9.25 12.7 8.2 12.15 10.6 13.65 11.8 14.4 10.05 16.15 9.25 L16.6 9.5 Q14.95 11.4 15.85 11.5 L18.05 11.15 19.0 12.15 18.95 12.2 M17.65 13.35 L16.95 14.35 M16.45 21.05 L17.35 22.05 16.9 22.3 M16.7 22.45 L15.25 23.15 14.1 21.75 M11.3 21.35 Q10.65 22.5 10.3 23.65 L9.4 21.2 M8.7 20.15 Q6.55 20.1 5.0 21.4 L3.7 18.95 Q5.3 18.1 5.9 15.95 4.7 14.55 3.25 14.0 L5.5 13.85 M6.15 14.0 L6.2 14.0 Q5.95 12.2 5.05 10.75 L5.15 10.65" fill="none" stroke="#000000" stroke-linecap="round" stroke-linejoin="round" stroke-opacity="0.3019608" stroke-width="0.05"/>
      <path d="M12.7 23.75 L21.75 25.45 21.8 25.45 21.8 25.65 33.0 26.7 33.15 26.85 33.35 26.85 34.45 25.85 Q39.4 25.3 37.4 22.65 32.85 18.85 21.35 16.35 L17.5 16.0 13.8 16.15 Q13.85 15.8 13.35 15.55 L13.7 15.1 21.55 15.45 26.9 16.65 Q32.75 18.8 38.5 22.05 41.1 24.15 40.75 24.7 L40.65 25.05 40.2 24.5 39.65 25.6 39.4 25.8 Q37.8 27.05 33.7 27.05 L33.25 27.05 Q25.9 28.4 13.1 24.85 15.2 26.55 23.5 28.65 L18.45 27.9 Q22.95 31.15 29.4 31.6 29.65 32.55 30.4 33.75 L30.5 33.85 Q17.6 34.45 11.8 32.05 5.55 29.3 4.5 26.9 5.1 24.0 3.9 19.95 L4.35 17.8 Q8.2 15.9 12.3 15.25 L13.35 15.55 Q13.85 15.8 13.8 16.15 L9.2 17.0 Q5.0 18.2 5.65 20.0 6.4 21.85 11.75 23.5 L12.7 23.75" fill="#497c8a" fill-rule="evenodd" stroke="none"/>
      <path d="M24.45 24.5 Q18.95 23.1 13.7 23.05 L12.7 23.75 11.75 23.5 Q6.4 21.85 5.65 20.0 5.0 18.2 9.2 17.0 L13.8 16.15 17.5 16.0 Q22.15 20.55 24.45 24.5 M13.7 23.05 Q12.75 19.2 13.8 16.15 12.75 19.2 13.7 23.05" fill="#1b2120" fill-rule="evenodd" stroke="none"/>
      <path d="M23.5 28.65 L29.25 28.95 31.15 28.85 Q28.9 29.55 29.4 31.6 22.95 31.15 18.45 27.9 L23.5 28.65" fill="#394357" fill-rule="evenodd" stroke="none"/>
      <path d="M40.25 29.15 L40.2 30.3 40.1 31.45 Q39.2 33.55 33.25 34.95 L31.95 34.8 31.85 34.65 31.2 33.85 32.25 33.8 Q39.75 32.8 40.25 29.15 M33.6 28.65 L36.95 28.15 Q35.95 30.8 30.15 31.65 29.95 29.65 31.5 29.25 L33.6 28.65" fill="#333c4d" fill-rule="evenodd" stroke="none"/>
      <path d="M31.15 28.85 L29.25 28.95 23.5 28.65 Q15.2 26.55 13.1 24.85 25.9 28.4 33.25 27.05 L33.2 27.9 Q33.1 28.6 31.7 28.85 L31.15 28.85" fill="#3f6a74" fill-rule="evenodd" stroke="none"/>
      <path d="M21.8 25.45 L25.55 25.8 29.4 26.0 31.35 26.05 31.75 26.05 34.45 25.85 33.35 26.85 33.15 26.85 33.0 26.7 21.8 25.65 21.8 25.45 M26.9 16.65 Q34.0 18.5 37.05 20.85 L38.5 22.05 Q32.75 18.8 26.9 16.65" fill="#80afbb" fill-rule="evenodd" stroke="none"/>
      <path d="M31.7 28.85 Q33.1 28.6 33.2 27.9 L33.25 27.05 33.7 27.05 33.9 27.35 Q34.05 28.3 33.6 28.65 L31.7 28.85" fill="#2c4a51" fill-rule="evenodd" stroke="none"/>
      <path d="M31.2 33.85 L31.0 33.85 30.5 33.85 30.4 33.75 Q29.65 32.55 29.4 31.6 L30.15 31.65 31.2 33.85" fill="#244042" fill-rule="evenodd" stroke="none"/>
      <path d="M31.15 28.85 L31.7 28.85 33.6 28.65 31.5 29.25 Q29.95 29.65 30.15 31.65 L29.4 31.6 Q28.9 29.55 31.15 28.85 M31.55 35.7 L31.0 35.7 31.2 35.15 31.05 34.65 30.5 33.85 31.0 33.85 31.2 33.85 31.85 34.65 31.95 34.8 Q32.05 35.15 31.55 35.7" fill="#262f37" fill-rule="evenodd" stroke="none"/>
      <path d="M40.1 31.45 Q39.3 34.75 32.25 35.65 L31.55 35.7 Q32.05 35.15 31.95 34.8 L33.25 34.95 Q39.2 33.55 40.1 31.45 M31.0 35.7 Q17.75 36.35 11.8 33.9 6.95 31.75 5.2 29.85 L6.65 30.55 Q9.95 33.15 16.8 34.5 L29.15 35.2 Q30.2 35.45 31.05 34.65 L31.2 35.15 31.0 35.7" fill="#232935" fill-rule="evenodd" stroke="none"/>
      <path d="M5.2 29.85 Q4.2 28.7 4.3 27.7 L4.5 26.9 Q5.55 29.3 11.8 32.05 17.6 34.45 30.5 33.85 L31.05 34.65 Q30.2 35.45 29.15 35.2 L16.8 34.5 Q9.95 33.15 6.65 30.55 L5.2 29.85" fill="url(#gradient0)" fill-rule="evenodd" stroke="none"/>
      <path d="M29.4 26.0 Q26.9 25.1 24.45 24.5 22.15 20.55 17.5 16.0 L21.35 16.35 Q32.85 18.85 37.4 22.65 39.4 25.3 34.45 25.85 L31.75 26.05 31.35 26.05 29.4 26.0" fill="url(#gradient1)" fill-rule="evenodd" stroke="none"/>
      <path d="M40.65 25.05 L40.55 25.75 40.3 28.45 40.25 29.15 Q39.75 32.8 32.25 33.8 L31.2 33.85 30.15 31.65 Q35.95 30.8 36.95 28.15 L33.6 28.65 Q34.05 28.3 33.9 27.35 L33.7 27.05 Q37.8 27.05 39.4 25.8 L39.65 25.6 40.2 24.5 40.65 25.05 M38.15 27.6 L36.95 28.15 38.15 27.6" fill="url(#gradient2)" fill-rule="evenodd" stroke="none"/>
      <path d="M29.4 26.0 Q26.9 25.1 24.45 24.5 18.95 23.1 13.7 23.05 L12.7 23.75 21.75 25.45 M21.8 25.45 L25.55 25.8 29.4 26.0 31.35 26.05 31.75 26.05 34.45 25.85 Q39.4 25.3 37.4 22.65 M31.15 28.85 L31.7 28.85 M29.4 31.6 Q28.9 29.55 31.15 28.85 M38.5 22.05 Q41.1 24.15 40.75 24.7 L40.65 25.05 40.55 25.75 40.3 28.45 M40.25 29.15 L40.2 30.3 40.1 31.45 Q39.3 34.75 32.25 35.65 L31.55 35.7 31.0 35.7 Q17.75 36.35 11.8 33.9 6.95 31.75 5.2 29.85 4.2 28.7 4.3 27.7 L4.5 26.9 Q5.1 24.0 3.9 19.95 L4.35 17.8 Q8.2 15.9 12.3 15.25 L13.35 15.55 13.7 15.1 21.55 15.45 26.9 16.65 Q34.0 18.5 37.05 20.85 L38.5 22.05 M33.6 28.65 L36.95 28.15 38.15 27.6 M33.6 28.65 L31.7 28.85 M13.8 16.15 Q13.85 15.8 13.35 15.55 M13.8 16.15 L17.5 16.0 M12.7 23.75 L11.75 23.5 Q6.4 21.85 5.65 20.0 5.0 18.2 9.2 17.0 L13.8 16.15 Q12.75 19.2 13.7 23.05 M31.05 34.65 L30.5 33.85 30.4 33.75 Q29.65 32.55 29.4 31.6 M31.05 34.65 L31.2 35.15 31.0 35.7" fill="none" stroke="#000000" stroke-linecap="round" stroke-linejoin="round" stroke-opacity="0.3019608" stroke-width="0.05"/>
      <path d="M14.35 18.05 L12.55 18.2 Q12.0 17.8 12.45 17.45 L14.15 17.3 Q14.9 17.5 14.35 18.05" fill="#415050" fill-rule="evenodd" stroke="none"/>
      <path d="M14.35 18.05 L12.55 18.2 Q12.0 17.8 12.45 17.45 L14.15 17.3 Q14.9 17.5 14.35 18.05 Z" fill="none" stroke="#000000" stroke-linecap="round" stroke-linejoin="round" stroke-opacity="0.3019608" stroke-width="0.7000000000000001"/>
      <path d="M14.25 20.2 L12.45 20.35 Q11.95 20.0 12.35 19.6 L14.05 19.45 Q14.8 19.65 14.25 20.2" fill="#2e3837" fill-rule="evenodd" stroke="none"/>
      <path d="M14.25 20.2 L12.45 20.35 Q11.95 20.0 12.35 19.6 L14.05 19.45 Q14.8 19.65 14.25 20.2 Z" fill="none" stroke="#000000" stroke-linecap="round" stroke-linejoin="round" stroke-opacity="0.3019608" stroke-width="0.7000000000000001"/>
      <path d="M12.7 22.55 L14.45 22.4 Q15.0 21.85 14.2 21.65 L12.55 21.8 Q12.1 22.2 12.7 22.55" fill="#293434" fill-rule="evenodd" stroke="none"/>
      <path d="M12.7 22.55 Q12.1 22.2 12.55 21.8 L14.2 21.65 Q15.0 21.85 14.45 22.4 L12.7 22.55 Z" fill="none" stroke="#000000" stroke-linecap="round" stroke-linejoin="round" stroke-opacity="0.3019608" stroke-width="0.7000000000000001"/>
      <path d="M21.95 28.5 L19.75 28.2 19.1 27.95 17.75 27.6 16.55 27.35 16.35 27.35 15.55 27.2 15.25 27.2 15.0 28.65 13.5 27.4 15.05 26.45 Q17.55 27.35 20.5 27.45 L21.95 28.5 M21.15 29.55 L22.75 30.25 23.3 33.15 22.4 33.9 21.05 33.85 19.9 32.85 20.15 32.6 20.15 32.3 21.15 29.55 M9.55 25.55 Q9.2 26.35 9.1 27.45 L9.05 28.55 5.75 25.2 6.1 24.05 9.55 25.55 M9.15 30.45 L9.15 30.8 9.2 30.95 Q7.35 30.4 6.55 29.5 L7.85 30.05 9.15 30.45" fill="#dab869" fill-rule="evenodd" stroke="none"/>
      <path d="M6.8 22.65 L10.05 24.15 Q9.45 24.7 9.55 25.55 L6.1 24.05 6.45 23.3 Q6.55 22.9 6.8 22.65 M9.05 28.55 L9.15 30.45 7.85 30.05 5.65 28.45 Q5.45 26.65 5.75 25.2 L9.05 28.55 M15.0 28.65 Q14.9 30.0 15.75 30.95 L13.75 30.15 13.2 27.55 13.5 27.4 15.0 28.65 M15.05 26.45 L15.95 25.9 19.45 26.65 20.5 27.45 Q17.55 27.35 15.05 26.45" fill="#f4ebd7" fill-rule="evenodd" stroke="none"/>
      <path d="M18.8 33.65 L19.9 32.85 21.05 33.85 18.8 33.65" fill="#ebd8ad" fill-rule="evenodd" stroke="none"/>
      <path d="M6.8 22.65 Q7.3 22.05 8.2 22.15 9.6 23.1 11.85 23.5 10.65 23.65 10.05 24.15 L6.8 22.65 M15.95 25.9 L17.2 25.15 19.45 26.65 15.95 25.9" fill="#f9f2e3" fill-rule="evenodd" stroke="none"/>
      <path d="M21.95 28.5 L22.25 28.75 22.3 28.85 22.45 28.95 22.65 29.4 22.75 30.25 21.15 29.55 21.2 29.35 20.1 28.4 19.75 28.2 21.95 28.5 M22.4 33.9 L20.9 35.1 16.8 34.5 16.65 34.5 17.7 34.15 18.8 33.65 21.05 33.85 22.4 33.9 M9.2 30.95 Q8.8 31.3 9.2 32.1 L9.25 32.25 Q7.7 31.6 6.2 30.35 L5.6 29.75 Q5.3 29.1 5.7 28.75 L5.65 28.45 7.85 30.05 6.55 29.5 Q7.35 30.4 9.2 30.95" fill="#997e44" fill-rule="evenodd" stroke="none"/>
      <path d="M5.8 30.1 L5.6 29.75 6.2 30.35 5.8 30.1" fill="#766234" fill-rule="evenodd" stroke="none"/>
      <path d="M20.9 35.1 L20.15 35.7 Q16.8 35.65 14.15 34.75 L16.65 34.5 16.8 34.5 20.9 35.1 M9.25 32.25 L9.55 32.75 9.55 32.8 Q7.5 31.95 6.05 30.45 L5.8 30.1 6.2 30.35 Q7.7 31.6 9.25 32.25" fill="#4d3f22" fill-rule="evenodd" stroke="none"/>
      <path d="M21.95 28.5 L29.25 28.95 31.15 28.85 M21.95 28.5 L19.75 28.2 18.45 27.9 16.55 27.35" fill="none" stroke="#000000" stroke-linecap="round" stroke-linejoin="round" stroke-opacity="0.3019608" stroke-width="1.0"/>
    </g>
    <radialGradient cx="0" cy="0" gradientTransform="matrix(0.031, 0.0, 0.0, 0.0304, 6.8, 29.3)" gradientUnits="userSpaceOnUse" id="gradient0" r="819.2" spreadMethod="pad">
      <stop offset="0.0" stop-color="#3f6a74"/>
      <stop offset="1.0" stop-color="#333c4d"/>
    </radialGradient>
    <radialGradient cx="0" cy="0" gradientTransform="matrix(0.0257, 0.0, 0.0, 0.0253, 36.75, 24.45)" gradientUnits="userSpaceOnUse" id="gradient1" r="819.2" spreadMethod="pad">
      <stop offset="0.0" stop-color="#293434"/>
      <stop offset="1.0" stop-color="#1f2524"/>
    </radialGradient>
    <radialGradient cx="0" cy="0" gradientTransform="matrix(0.0142, 0.0, 0.0, 0.0139, 39.4, 25.8)" gradientUnits="userSpaceOnUse" id="gradient2" r="819.2" spreadMethod="pad">
      <stop offset="0.0" stop-color="#3f6a74"/>
      <stop offset="1.0" stop-color="#2c4a51"/>
    </radialGradient>
    <g id="sprite0" transform="matrix(1.0, 0.0, 0.0, 1.0, 0.0, 0.0)">
      <use height="32.5" transform="matrix(1.0, 0.0, 0.0, 1.0, 0.0, 0.0)" width="32.5" xlink:href="#shape1"/>
    </g>
    <g id="shape1" transform="matrix(1.0, 0.0, 0.0, 1.0, 0.0, 0.0)">
      <path d="M4.75 27.75 Q0.0 23.0 0.0 16.25 0.0 9.5 4.75 4.75 9.5 0.0 16.25 0.0 23.0 0.0 27.75 4.75 32.5 9.5 32.5 16.25 32.5 23.0 27.75 27.75 23.0 32.5 16.25 32.5 9.5 32.5 4.75 27.75" fill="url(#gradient3)" fill-rule="evenodd" stroke="none"/>
    </g>
    <radialGradient cx="0" cy="0" gradientTransform="matrix(0.0203, 0.0, 0.0, 0.0203, 16.25, 16.25)" gradientUnits="userSpaceOnUse" id="gradient3" r="819.2" spreadMethod="pad">
      <stop offset="0.0" stop-color="#fbce6a"/>
      <stop offset="1.0" stop-color="#fbce6a" stop-opacity="0.0"/>
    </radialGradient>
    <g id="shape2" transform="matrix(1.0, 0.0, 0.0, 1.0, -3.0, -7.95)">
      <path d="M28.9 30.2 L33.25 32.55 33.25 32.9 33.25 32.55 34.8 33.35 Q34.35 33.8 33.7 33.9 L33.25 32.9 32.9 34.0 Q30.15 33.25 28.9 30.2" fill="#ebd8ad" fill-rule="evenodd" stroke="none"/>
      <path d="M28.6 29.65 L33.15 30.7 33.25 32.55 33.15 30.7 36.0 31.35 Q35.5 32.65 34.8 33.35 L33.25 32.55 28.9 30.2 28.6 29.65" fill="#dab869" fill-rule="evenodd" stroke="none"/>
      <path d="M28.6 29.65 L28.4 29.05 32.95 28.85 33.15 30.7 32.95 28.85 36.6 28.45 36.0 31.35 33.15 30.7 28.6 29.65" fill="#8b7830" fill-rule="evenodd" stroke="none"/>
      <path d="M28.4 29.05 L28.6 29.65 28.9 30.2 M33.15 30.7 L32.95 28.85 M33.25 32.55 L33.15 30.7 M36.0 31.35 L36.6 28.45 M34.8 33.35 Q34.35 33.8 33.7 33.9 L33.25 32.9 32.9 34.0 Q30.15 33.25 28.9 30.2 M33.25 32.9 L33.25 32.55 M34.8 33.35 Q35.5 32.65 36.0 31.35" fill="none" stroke="#000000" stroke-linecap="round" stroke-linejoin="round" stroke-opacity="0.3019608" stroke-width="0.05"/>
      <path d="M33.9 31.35 L33.95 32.0 M35.65 32.05 L35.55 30.95 M34.0 32.7 L34.1 33.85 M32.4 32.45 L32.55 33.9 M31.45 33.45 L31.25 31.0" fill="none" stroke="#000000" stroke-linecap="round" stroke-linejoin="round" stroke-opacity="0.101960786" stroke-width="0.30000000000000004"/>
      <path d="M34.55 26.6 L34.7 26.9 34.7 28.1 34.55 28.45 34.2 28.6 33.9 28.45 33.75 28.1 33.75 26.9 33.9 26.6 Q34.05 26.45 34.2 26.45 34.4 26.45 34.55 26.6 M32.05 28.25 L32.05 27.05 32.2 26.75 Q32.35 26.6 32.55 26.6 L32.85 26.75 33.0 27.05 33.0 28.25 32.85 28.6 32.55 28.7 32.2 28.6 32.05 28.25" fill="#000000" fill-opacity="0.7529412" fill-rule="evenodd" stroke="none"/>
      <path d="M34.25 26.75 L34.2 26.9 34.0 27.0 33.75 26.9 33.7 26.75 33.75 26.55 34.0 26.45 34.2 26.55 34.25 26.75 M32.5 26.7 L32.6 26.9 32.5 27.05 32.3 27.2 32.1 27.05 32.05 26.9 32.1 26.7 32.3 26.6 32.5 26.7" fill="#ffffff" fill-rule="evenodd" stroke="none"/>
      <path d="M24.45 24.5 Q19.85 23.3 15.35 23.1 L15.25 23.15 15.25 23.1 13.7 23.05 13.6 23.15 13.6 24.0 21.75 25.45 21.8 25.45 25.55 25.8 29.4 26.0 Q26.9 25.1 24.45 24.5 M40.75 24.7 L40.65 25.05 40.55 25.75 40.3 28.45 40.25 29.15 40.2 30.3 40.1 31.45 Q39.3 34.75 32.25 35.65 L31.55 35.7 31.0 35.7 Q24.8 36.0 20.2 35.65 L20.15 35.7 Q16.8 35.65 14.15 34.75 L14.45 34.75 Q12.95 34.4 11.8 33.9 10.05 33.15 8.75 32.4 L7.5 31.65 5.2 29.85 Q4.2 28.7 4.3 27.7 L4.5 26.9 Q5.1 24.0 3.9 19.95 L4.0 19.5 3.7 18.95 4.2 18.65 4.35 17.8 5.35 17.35 5.9 15.95 Q4.7 14.55 3.25 14.0 L5.5 13.85 6.1 13.9 6.15 14.0 6.2 14.0 Q5.95 12.2 5.05 10.75 L5.15 10.65 5.2 10.65 6.85 9.25 Q7.9 11.0 10.3 11.7 11.25 9.25 12.7 8.2 12.15 10.6 13.65 11.8 14.4 10.05 16.15 9.25 L16.6 9.5 Q14.95 11.4 15.85 11.5 L18.05 11.15 19.0 12.15 18.95 12.2 19.0 12.15 17.65 13.35 16.95 14.35 16.95 14.95 17.3 15.0 20.0 14.75 20.2 15.15 19.95 15.2 21.55 15.45 26.9 16.65 Q34.0 18.5 37.05 20.85 L38.5 22.05 Q41.1 24.15 40.75 24.7" fill="none" stroke="#000000" stroke-linecap="round" stroke-linejoin="round" stroke-opacity="0.3019608" stroke-width="0.5"/>
    </g>
  </defs>
</svg>
