<?xml version="1.0" encoding="UTF-8" standalone="no"?>
<svg xmlns:xlink="http://www.w3.org/1999/xlink" height="440.0px" width="440.0px" xmlns="http://www.w3.org/2000/svg">
  <g transform="matrix(10.0, 0.0, 0.0, 10.0, 0.0, 0.0)">
    <use height="44.0" transform="matrix(1.0, 0.0, 0.0, 1.0, 0.0, 0.0)" width="44.0" xlink:href="#shape0"/>
    <use height="49.4" transform="matrix(0.4483, -0.1572, 0.1572, 0.4483, 2.5, 17.3)" width="55.7" xlink:href="#sprite0"/>
    <use height="27.2" transform="matrix(1.0, 0.0, 0.0, 1.0, 1.6, 8.7)" width="39.9" xlink:href="#shape3"/>
  </g>
  <defs>
    <g id="shape0" transform="matrix(1.0, 0.0, 0.0, 1.0, 0.0, 0.0)">
      <path d="M44.0 44.0 L0.0 44.0 0.0 0.0 44.0 0.0 44.0 44.0" fill="#43adca" fill-opacity="0.0" fill-rule="evenodd" stroke="none"/>
      <path d="M39.7 13.8 L39.7 13.75 39.75 13.8 39.7 13.8" fill="#361900" fill-rule="evenodd" stroke="none"/>
      <path d="M2.0 22.9 L2.5 23.9 2.95 24.5 3.6 25.0 6.2 28.55 5.45 25.9 6.35 26.2 Q6.15 29.25 8.15 32.35 4.3 31.4 3.65 29.0 L3.6 28.9 2.0 22.9" fill="#d20202" fill-rule="evenodd" stroke="none"/>
      <path d="M6.35 26.2 L8.85 26.55 Q14.95 27.3 22.7 25.2 27.9 23.85 31.85 21.7 32.95 25.25 30.45 29.3 L24.35 31.35 Q16.55 33.4 10.5 32.7 L8.15 32.35 Q6.15 29.25 6.35 26.2 M23.45 9.4 L23.8 9.75 23.85 10.9 Q22.6 14.1 25.85 15.5 L25.1 15.6 Q21.2 13.7 22.95 10.3 L23.45 9.4" fill="#bf0202" fill-rule="evenodd" stroke="none"/>
      <path d="M34.2 10.45 L32.25 10.05 31.25 9.95 29.85 9.9 29.55 9.9 29.15 9.95 23.8 9.75 23.45 9.4 32.55 9.1 34.05 9.3 35.15 9.6 35.95 9.85 36.8 10.15 Q39.3 11.4 39.7 13.75 L39.7 13.8 Q39.75 14.6 39.2 15.45 L38.65 16.35 Q37.6 17.9 35.35 19.5 33.75 20.7 31.85 21.7 27.9 23.85 22.7 25.2 14.95 27.3 8.85 26.55 L6.35 26.2 5.45 25.9 3.5 23.85 3.6 25.0 2.95 24.5 2.5 23.9 2.0 22.9 1.95 22.85 1.95 22.7 Q1.25 19.7 6.05 16.2 7.95 14.8 10.35 13.65 11.5 13.05 12.75 12.55 L12.8 12.55 13.6 13.2 9.2 14.8 7.95 16.0 7.5 16.3 7.05 16.6 Q3.2 19.5 3.75 21.9 L3.75 22.05 Q4.15 23.3 5.6 24.15 L5.95 24.3 Q7.45 24.9 9.85 25.05 15.2 25.65 22.3 23.8 29.3 21.9 33.6 18.8 L36.65 16.05 36.85 15.75 Q37.7 14.3 37.4 12.95 37.15 12.1 36.35 11.45 L35.6 10.35 34.2 10.45" fill="#e80202" fill-rule="evenodd" stroke="none"/>
      <path d="M35.6 10.35 L36.35 11.45 34.45 11.9 35.6 10.35 M7.95 16.0 L9.2 14.8 13.6 13.2 9.8 15.65 7.95 16.0 M3.5 23.85 L5.45 25.9 6.2 28.55 3.5 23.85 M23.8 9.75 L29.15 9.95 Q26.25 10.1 23.85 10.9 L23.8 9.75" fill="#ff0303" fill-rule="evenodd" stroke="none"/>
      <path d="M34.2 10.45 L35.6 10.35 34.45 11.9 34.2 10.45 M13.6 13.2 L12.8 12.55 Q16.0 13.5 15.9 15.6 15.4 13.75 13.6 13.2 M3.6 25.0 L3.5 23.85 6.2 28.55 3.6 25.0" fill="#6e0101" fill-rule="evenodd" stroke="none"/>
      <path d="M31.85 21.7 Q33.75 20.7 35.35 19.5 37.6 17.9 38.65 16.35 L39.2 15.45 Q39.75 14.6 39.7 13.8 L39.75 13.8 41.15 19.05 Q41.85 22.1 37.0 25.65 34.2 27.7 30.45 29.3 32.95 25.25 31.85 21.7" fill="#730101" fill-rule="evenodd" stroke="none"/>
      <path d="M5.6 24.15 Q4.15 23.3 3.75 22.05 L3.75 21.9 Q3.2 19.5 7.05 16.6 5.65 20.8 8.8 21.6 L7.7 22.35 5.6 24.15" fill="#4d0000" fill-rule="evenodd" stroke="none"/>
      <path d="M29.15 9.95 L29.55 9.9 29.85 9.9 31.25 9.95 32.25 10.05 34.2 10.45 34.45 11.9 36.35 11.45 Q37.15 12.1 37.4 12.95 37.7 14.3 36.85 15.75 L34.2 15.3 33.4 15.2 25.85 15.5 Q22.6 14.1 23.85 10.9 26.25 10.1 29.15 9.95 M7.05 16.6 L7.5 16.3 7.95 16.0 9.8 15.65 13.6 13.2 Q15.4 13.75 15.9 15.6 15.85 16.9 14.4 18.75 11.3 20.0 8.8 21.6 5.65 20.8 7.05 16.6" fill="#690101" fill-rule="evenodd" stroke="none"/>
      <path d="M36.85 15.75 L36.65 16.05 33.6 18.8 Q29.3 21.9 22.3 23.8 15.2 25.65 9.85 25.05 7.45 24.9 5.95 24.3 L5.6 24.15 7.7 22.35 8.8 21.6 Q11.3 20.0 14.4 18.75 15.85 16.9 15.9 15.6 16.0 13.5 12.8 12.55 L12.75 12.55 Q11.5 13.05 10.35 13.65 7.95 14.8 6.05 16.2 1.25 19.7 1.95 22.7 L1.95 22.85 2.0 22.9 M39.7 13.75 Q39.3 11.4 36.8 10.15 L35.95 9.85 35.15 9.6 34.05 9.3 32.55 9.1 23.45 9.4 22.95 10.3 Q21.2 13.7 25.1 15.6 L25.85 15.5 33.4 15.2 34.2 15.3 36.85 15.75 M39.75 13.8 L39.7 13.75 M8.15 32.35 Q4.3 31.4 3.65 29.0 L3.6 28.9 2.0 22.9 M8.15 32.35 L10.5 32.7 Q16.55 33.4 24.35 31.35 L30.45 29.3 M39.75 13.8 L41.15 19.05 Q41.85 22.1 37.0 25.65 34.2 27.7 30.45 29.3" fill="none" stroke="#000000" stroke-linecap="round" stroke-linejoin="round" stroke-opacity="0.3019608" stroke-width="0.45"/>
      <path d="M31.05 16.2 L30.9 16.15 Q27.85 14.95 25.2 15.1 L24.55 15.15 Q23.05 15.3 21.75 15.9 L20.3 15.05 20.9 14.75 Q24.6 13.1 29.3 14.7 L31.05 16.2 M31.2 16.75 L31.15 16.45 Q32.7 15.35 35.4 16.0 L37.6 17.55 Q34.9 16.15 31.9 17.3 L31.2 16.75 M14.9 22.35 Q13.2 22.7 11.75 23.75 L11.1 22.85 12.6 22.05 14.25 21.4 14.9 22.35" fill="#5e5e5e" fill-rule="evenodd" stroke="none"/>
      <path d="M20.3 15.05 L21.75 15.9 Q18.1 17.5 15.4 22.35 L14.75 21.0 Q17.1 16.7 20.3 15.05 M11.75 23.75 Q10.1 24.8 8.7 26.55 L8.45 26.35 8.15 25.55 8.1 25.45 8.25 25.25 Q9.35 23.85 11.1 22.85 L11.75 23.75" fill="#7d7d7d" fill-rule="evenodd" stroke="none"/>
      <path d="M21.75 15.9 L21.65 16.25 Q21.4 16.85 21.5 17.2 L21.55 17.35 Q18.95 18.75 17.05 22.55 L17.85 25.2 18.05 26.25 18.35 27.25 20.25 33.8 24.05 34.4 Q24.35 35.25 24.95 35.65 L24.45 35.6 19.0 34.9 15.4 22.35 Q18.1 17.5 21.75 15.9 M11.75 23.75 Q13.2 22.7 14.9 22.35 L15.25 23.75 Q13.8 23.9 12.25 24.9 L10.05 26.65 11.6 31.85 13.8 32.4 18.1 33.5 18.5 34.9 10.5 32.55 8.7 26.55 Q10.1 24.8 11.75 23.75" fill="#3a3a3a" fill-rule="evenodd" stroke="none"/>
      <path d="M30.1 18.05 L29.85 17.85 29.8 17.8 29.55 17.8 29.2 18.05 29.15 18.35 29.3 18.65 29.4 18.7 29.8 18.7 30.0 18.45 30.1 18.05 M27.85 17.85 L28.1 18.15 28.15 18.2 28.4 18.15 28.7 17.95 28.75 17.5 28.55 17.25 28.15 17.2 27.95 17.45 Q27.75 17.6 27.85 17.85 M25.8 16.8 L25.4 16.8 Q25.2 16.85 25.15 17.05 L25.05 17.45 25.3 17.7 25.7 17.8 25.95 17.5 25.95 17.15 25.8 16.8 M27.2 16.9 L26.7 16.85 26.55 17.15 26.45 17.5 26.7 17.7 27.0 17.85 27.3 17.5 27.35 17.2 27.2 16.9 M28.1 28.5 L29.5 27.35 30.65 26.05 Q31.4 24.95 31.6 23.85 L31.7 23.65 Q31.85 22.6 31.55 21.6 31.2 20.5 30.55 19.75 L28.5 18.55 27.0 18.15 24.5 18.2 23.25 18.65 23.2 18.7 Q23.2 17.6 23.55 16.65 L23.65 16.5 Q26.7 15.9 30.6 17.9 L33.8 29.1 32.95 30.2 32.8 30.15 31.4 29.85 28.95 29.0 28.1 28.5 M31.6 25.7 Q30.85 27.65 28.95 29.0 30.85 27.65 31.6 25.7 M23.75 17.2 Q23.5 17.4 23.55 17.55 L23.9 17.9 24.2 17.9 24.45 17.65 24.5 17.25 24.3 17.0 23.95 17.0 23.75 17.2 M25.9 20.4 Q27.55 22.65 27.1 27.25 L26.5 26.45 26.15 24.0 26.05 23.65 25.4 22.15 Q25.45 21.25 25.75 20.55 L25.9 20.4 M34.95 20.3 L36.25 20.0 Q36.65 19.9 36.95 20.2 L36.7 19.4 Q36.45 19.55 36.15 19.65 L35.35 19.2 35.2 19.3 35.35 19.2 36.15 19.65 Q36.45 19.55 36.7 19.4 L36.95 20.2 Q36.65 19.9 36.25 20.0 L34.95 20.3 34.15 21.2 33.7 19.5 34.6 19.85 35.2 19.3 35.3 19.05 35.2 18.95 36.85 19.2 Q37.65 21.1 38.1 23.4 L36.6 25.3 36.4 25.05 37.85 23.45 37.6 22.7 35.85 24.45 35.3 23.35 35.45 23.35 35.55 23.4 36.1 23.4 36.35 23.25 36.55 23.15 37.0 22.75 37.2 22.45 37.25 22.1 37.3 21.9 37.25 21.25 36.9 20.6 36.55 20.45 36.25 20.35 35.75 20.35 35.5 20.45 35.25 20.55 34.85 20.75 34.9 20.55 34.95 20.3 M35.35 19.7 L35.4 19.8 35.5 19.8 35.55 19.75 35.55 19.65 35.5 19.55 35.45 19.5 35.35 19.6 35.35 19.7 M34.15 20.0 L34.1 20.05 34.0 20.25 34.15 20.3 34.3 20.35 34.3 20.25 34.3 20.15 34.25 20.0 34.15 20.0 M36.6 19.65 L36.5 19.7 36.6 19.8 36.65 19.9 36.7 19.8 36.7 19.75 36.6 19.65 M13.95 30.1 L14.0 30.1 14.3 30.05 14.95 29.7 15.35 29.4 15.5 29.05 15.55 28.85 15.55 28.25 15.0 27.5 14.65 27.3 14.2 27.2 13.55 27.15 13.1 27.2 12.8 27.3 12.6 27.3 12.3 27.1 15.2 27.05 14.6 25.1 13.75 26.2 12.55 25.95 12.25 26.5 12.2 25.85 Q13.6 25.1 15.0 24.75 L17.25 32.5 13.8 31.9 13.85 31.5 16.3 31.9 15.95 30.7 13.95 30.7 13.95 30.4 13.95 30.1 M32.5 29.0 L32.5 29.15 32.6 29.25 32.85 29.3 32.95 29.15 33.05 28.95 32.9 28.8 32.75 28.8 32.55 28.9 32.5 29.0 32.35 29.05 32.5 29.4 32.55 29.6 33.0 29.6 33.2 29.35 33.35 28.9 Q33.15 28.2 32.35 28.45 31.8 28.7 31.55 29.2 L31.4 29.85 31.55 29.2 Q31.8 28.7 32.35 28.45 33.15 28.2 33.35 28.9 L33.2 29.35 33.0 29.6 32.55 29.6 32.5 29.4 32.35 29.05 32.5 29.0 M26.65 30.3 L26.65 30.25 26.7 30.25 26.65 30.3" fill="#de9400" fill-rule="evenodd" stroke="none"/>
      <path d="M34.85 20.75 L35.25 20.55 35.5 20.45 35.75 20.35 36.25 20.35 36.55 20.45 36.9 20.6 37.25 21.25 37.3 21.9 37.25 22.1 37.2 22.45 37.0 22.75 36.55 23.15 36.35 23.25 36.1 23.4 35.55 23.4 35.45 23.35 35.3 23.35 35.2 23.2 34.75 22.95 34.55 22.65 34.4 22.1 34.5 21.2 34.7 21.0 34.8 20.9 34.85 20.75 M34.85 21.1 L34.8 21.1 34.75 21.3 Q34.5 21.8 34.65 22.3 L34.85 22.8 35.2 23.05 35.25 23.0 35.45 23.1 35.5 23.1 35.6 23.2 36.1 23.1 36.2 23.05 36.4 23.0 36.8 22.65 37.0 22.3 37.1 21.95 37.1 21.4 37.1 21.35 Q36.95 20.85 36.45 20.6 L36.2 20.55 35.7 20.55 35.45 20.65 35.3 20.7 34.9 21.0 34.85 21.1 M14.75 29.6 L14.95 29.3 15.35 28.85 15.3 28.35 15.3 28.3 14.45 27.45 14.1 27.35 13.5 27.3 13.1 27.35 12.85 27.4 12.75 27.5 12.4 27.65 12.3 27.7 12.25 27.75 12.0 27.95 Q11.65 28.45 11.8 28.95 L12.15 29.5 12.5 29.8 12.8 29.9 12.85 29.9 13.0 30.0 13.65 29.95 13.9 29.9 14.0 29.9 14.15 29.85 14.75 29.6 M12.6 27.3 L12.8 27.3 13.1 27.2 13.55 27.15 14.2 27.2 14.65 27.3 15.0 27.5 15.55 28.25 15.55 28.85 15.5 29.05 15.35 29.4 14.95 29.7 14.3 30.05 14.0 30.1 13.95 30.1 13.7 30.2 12.9 30.15 12.75 30.1 12.6 30.05 12.4 30.0 11.85 29.65 11.6 29.25 11.5 28.8 Q11.4 28.3 11.75 27.9 L12.0 27.65 12.1 27.6 12.2 27.5 Q12.35 27.35 12.6 27.3 M23.9 34.0 L23.9 33.95 23.95 33.95 23.9 34.0 M26.65 30.3 L26.6 30.35 26.3 30.4 26.65 30.3 M28.25 31.6 L28.4 31.55 28.4 31.6 28.25 31.6" fill="#b88e3a" fill-rule="evenodd" stroke="none"/>
      <path d="M26.75 19.0 L27.9 19.3 Q30.0 20.05 30.55 22.0 30.85 22.95 30.6 23.95 L29.75 25.75 28.9 26.9 Q30.5 21.6 26.75 19.0 M24.0 21.0 L24.1 21.0 Q24.35 20.9 24.8 21.25 L24.95 21.4 25.15 21.7 25.4 22.15 26.05 23.65 26.15 24.0 26.5 26.45 26.45 26.95 26.1 27.6 25.85 26.15 25.1 23.5 24.0 21.0 M35.7 20.55 L36.2 20.55 36.45 20.6 Q36.95 20.85 37.1 21.35 L37.1 21.4 37.1 21.95 37.0 22.3 36.8 22.65 36.4 23.0 Q36.45 21.2 35.7 20.55 M36.8 22.65 Q37.1 21.25 36.2 20.55 37.1 21.25 36.8 22.65 M14.1 27.35 L14.45 27.45 15.3 28.3 15.3 28.35 15.35 28.85 14.95 29.3 14.75 29.6 Q15.3 28.2 14.1 27.35 M13.95 30.7 L15.95 30.7 16.3 31.9 13.85 31.5 13.05 31.45 13.05 31.4 13.25 31.25 13.3 31.0 13.1 30.75 12.9 30.75 12.6 30.85 12.6 31.15 12.75 31.35 12.75 31.4 12.45 31.35 12.25 30.65 13.95 30.7 M14.95 30.9 L14.7 30.85 14.5 30.95 14.55 31.25 14.65 31.45 14.85 31.5 15.1 31.4 15.1 31.05 14.95 30.9 M14.1 30.85 L13.95 30.75 13.85 30.8 Q13.7 30.8 13.65 30.95 13.55 31.05 13.6 31.2 L13.8 31.45 13.85 31.45 14.0 31.5 14.25 31.35 14.2 31.0 14.1 30.85 M15.35 31.3 L15.55 31.5 15.75 31.55 15.95 31.45 15.95 31.15 15.8 30.95 15.55 30.85 Q15.4 30.85 15.4 31.0 15.2 31.15 15.35 31.3" fill="#914f00" fill-rule="evenodd" stroke="none"/>
      <path d="M21.55 17.35 L22.25 16.9 22.25 17.55 22.2 17.55 22.3 17.65 22.2 17.95 22.05 18.4 22.0 19.15 20.25 20.35 19.9 20.7 19.65 20.9 18.9 21.85 Q17.75 23.5 17.85 25.2 L17.05 22.55 Q18.95 18.75 21.55 17.35 M21.15 18.1 Q20.95 18.15 20.85 18.3 L20.8 18.7 21.1 18.95 21.45 19.0 21.75 18.75 21.7 18.35 21.5 18.1 21.15 18.1 M22.65 28.85 L22.35 28.8 21.65 28.55 Q20.6 28.25 19.95 27.6 19.3 26.9 19.0 25.95 L18.95 25.7 Q19.2 25.9 19.35 25.9 L19.8 24.85 20.15 23.25 Q20.1 22.55 19.65 22.55 L19.4 22.7 19.7 22.15 20.35 21.4 20.6 21.2 Q19.75 24.2 21.15 26.8 L22.65 28.85 M22.6 19.85 L23.2 19.55 23.45 19.4 24.6 19.15 25.2 19.6 24.95 20.4 Q24.8 20.95 24.8 21.25 24.35 20.9 24.1 21.0 L24.0 21.0 Q23.7 21.2 23.65 21.75 L23.6 21.8 23.55 21.95 23.55 22.25 Q23.5 23.1 23.75 24.2 L23.8 24.55 23.85 24.75 Q24.3 26.15 24.9 27.0 L24.95 27.15 25.55 27.65 24.95 27.15 24.9 27.0 Q24.35 25.15 25.1 23.5 L25.85 26.15 26.1 27.6 26.05 27.65 25.55 27.65 25.35 28.1 24.8 28.1 24.65 27.9 Q22.3 24.0 22.55 20.45 22.5 20.1 22.6 19.85 M20.4 19.8 L20.4 19.4 20.2 19.15 19.85 19.15 Q19.65 19.2 19.5 19.35 L19.55 19.7 19.75 20.0 20.05 20.0 20.4 19.8 M34.95 20.3 L34.9 20.55 34.85 20.75 34.8 20.9 34.7 21.0 34.5 21.2 34.4 22.1 34.55 22.65 34.75 22.95 35.2 23.2 35.3 23.35 35.85 24.45 35.35 24.95 35.6 25.9 36.4 25.05 36.6 25.3 35.3 26.6 33.05 19.2 35.2 18.95 33.05 19.2 35.3 26.6 36.6 25.3 37.0 25.7 35.25 27.95 32.5 18.6 33.7 18.15 Q34.15 18.5 34.65 18.65 L35.2 18.95 35.3 19.05 35.2 19.3 34.6 19.85 33.7 19.5 34.15 21.2 34.95 20.3 M34.85 21.1 L34.9 21.0 35.3 20.7 Q35.25 21.9 36.1 23.1 L35.6 23.2 35.5 23.1 Q34.7 22.15 34.85 21.1 M13.8 32.4 L11.6 31.85 10.05 26.65 12.25 24.9 12.15 25.7 12.2 25.85 12.25 26.5 12.55 25.95 13.75 26.2 14.6 25.1 15.2 27.05 12.3 27.1 12.6 27.3 Q12.35 27.35 12.2 27.5 L12.1 27.6 12.0 27.65 11.75 27.9 Q11.4 28.3 11.5 28.8 L11.6 29.25 11.85 29.65 12.4 30.0 12.6 30.05 12.75 30.1 12.9 30.15 13.7 30.2 13.95 30.1 13.95 30.4 13.95 30.7 12.25 30.65 12.45 31.35 12.75 31.4 13.05 31.45 13.85 31.5 13.8 31.9 11.8 31.5 10.55 27.1 12.2 25.85 10.55 27.1 11.8 31.5 13.8 31.9 13.85 32.15 13.8 32.4 M17.6 21.9 L17.6 22.25 17.8 22.55 18.2 22.6 18.4 22.35 18.4 22.0 18.25 21.7 17.85 21.7 Q17.7 21.75 17.6 21.9 M18.8 20.4 Q18.6 20.45 18.5 20.6 L18.5 20.95 18.7 21.25 19.1 21.3 19.3 21.0 19.4 20.65 19.1 20.4 18.8 20.4 M19.3 28.25 L19.25 28.25 19.25 28.8 Q19.3 30.0 20.25 31.15 21.2 32.25 22.1 32.25 22.9 32.25 22.8 31.1 L22.65 30.5 23.5 30.55 22.65 30.5 22.3 30.05 21.1 29.35 21.95 29.6 22.25 29.7 22.8 29.75 23.5 29.8 23.5 30.0 23.5 30.55 23.8 30.6 26.3 30.4 26.35 30.45 26.3 30.45 26.75 31.25 Q24.95 31.85 26.05 31.85 L25.85 32.15 25.5 32.1 25.2 31.8 25.2 31.3 25.55 31.05 25.6 31.05 25.8 31.05 26.0 31.25 26.05 31.25 26.1 31.2 26.2 31.25 26.3 31.05 26.4 30.9 26.2 30.75 25.5 30.65 25.4 30.65 25.25 30.7 Q24.9 30.8 24.8 31.2 24.55 31.55 24.7 32.0 L25.15 32.5 25.85 32.55 25.95 32.5 26.0 32.5 26.55 32.05 26.65 31.8 27.05 31.8 27.15 32.0 27.25 32.0 27.25 32.05 27.55 31.9 27.65 31.7 28.25 31.6 28.4 31.6 Q30.5 31.4 28.3 32.25 L24.05 33.95 23.95 33.95 23.9 33.95 23.9 34.0 24.05 34.4 20.25 33.8 18.35 27.25 19.15 28.15 19.3 28.25 M21.5 32.9 L21.6 33.0 21.7 33.4 21.65 33.55 21.5 33.5 20.8 33.4 20.45 33.0 Q20.3 32.7 20.55 32.55 20.75 32.35 21.1 32.25 21.45 32.15 22.2 32.95 L23.9 33.95 22.2 32.95 Q21.45 32.15 21.1 32.25 20.75 32.35 20.55 32.55 20.3 32.7 20.45 33.0 L20.8 33.4 21.5 33.5 21.65 33.55 21.7 33.4 21.6 33.0 21.5 32.9 21.5 32.85 21.4 32.6 21.15 32.65 21.0 32.75 20.95 33.0 21.15 33.2 21.35 33.2 21.55 33.05 21.5 32.9 M12.75 26.7 L12.85 26.6 12.9 26.45 12.8 26.3 12.6 26.25 12.4 26.35 12.4 26.55 12.45 26.65 12.75 26.7 M14.7 26.15 L14.55 25.95 14.4 25.9 Q14.3 25.9 14.25 26.0 L14.25 26.2 14.3 26.4 14.5 26.4 14.6 26.35 14.7 26.15 M11.15 27.5 L11.35 27.5 11.45 27.45 11.55 27.3 11.4 27.2 11.3 27.15 11.1 27.25 11.1 27.3 11.1 27.35 11.1 27.45 11.1 27.5 11.15 27.5 M12.3 27.1 Q11.7 27.3 11.2 27.75 L11.1 27.5 11.2 27.75 Q11.7 27.3 12.3 27.1 M12.25 26.5 L11.9 27.05 11.0 27.05 11.1 27.25 11.0 27.05 11.9 27.05 12.25 26.5 M26.8 30.25 L27.65 30.2 27.3 30.4 27.25 30.8 26.8 30.25 M27.85 30.2 L28.1 30.2 28.1 30.55 27.85 30.2 M28.7 30.2 L28.95 30.25 28.95 30.6 Q28.85 30.6 28.7 30.7 L28.7 30.2 M24.65 32.85 L24.8 32.85 24.3 31.15 24.15 31.15 23.8 31.3 24.2 33.0 24.65 32.85" fill="#ffc900" fill-rule="evenodd" stroke="none"/>
      <path d="M18.95 25.7 L18.95 25.65 18.9 25.6 18.85 25.15 Q18.7 23.9 19.4 22.7 L19.65 22.55 Q20.1 22.55 20.15 23.25 L19.8 24.85 19.35 25.9 Q19.2 25.9 18.95 25.7 M20.6 21.2 L20.9 20.85 21.05 20.75 21.2 20.6 21.7 26.5 21.7 27.05 21.15 26.8 Q19.75 24.2 20.6 21.2 M23.8 24.55 L23.75 24.2 Q23.5 23.1 23.55 22.25 L23.55 21.95 23.9 21.7 24.25 21.95 24.65 23.2 24.55 24.2 24.15 24.65 23.8 24.55 M35.35 19.7 L35.35 19.6 35.45 19.5 35.5 19.55 35.55 19.65 35.55 19.75 35.5 19.8 35.4 19.8 35.35 19.7 M34.15 20.0 L34.25 20.0 34.3 20.15 34.3 20.25 34.3 20.35 34.15 20.3 34.0 20.25 34.1 20.05 34.15 20.0 M35.5 23.1 L35.45 23.1 35.25 23.0 35.2 23.05 34.85 22.8 34.65 22.3 Q34.5 21.8 34.75 21.3 L34.8 21.1 34.85 21.1 Q34.7 22.15 35.5 23.1 M36.6 19.65 L36.7 19.75 36.7 19.8 36.65 19.9 36.6 19.8 36.5 19.7 36.6 19.65 M37.3 23.05 L37.5 23.1 37.7 23.25 37.65 23.55 37.5 23.7 37.35 23.65 37.25 23.45 37.25 23.2 Q37.2 23.05 37.3 23.05 M36.1 24.4 L36.2 24.25 36.4 24.25 36.5 24.45 36.5 24.65 36.35 24.85 36.2 24.8 36.1 24.6 36.1 24.4 M36.65 23.75 L36.85 23.6 37.0 23.65 37.1 23.85 37.15 24.05 37.05 24.25 36.85 24.2 36.7 24.0 36.65 23.75 M12.85 29.9 L12.8 29.9 12.5 29.8 12.15 29.5 11.8 28.95 Q11.65 28.45 12.0 27.95 L12.25 27.75 12.3 27.75 Q11.95 28.85 12.85 29.9 M19.3 28.25 L19.5 28.45 Q20.1 29.0 21.1 29.35 L22.3 30.05 22.65 30.5 22.8 31.1 Q22.9 32.25 22.1 32.25 21.2 32.25 20.25 31.15 19.3 30.0 19.25 28.8 L19.25 28.25 19.3 28.25 M20.05 29.6 Q21.05 30.3 22.65 30.5 21.05 30.3 20.05 29.6 M14.7 26.15 L14.6 26.35 14.5 26.4 14.3 26.4 14.25 26.2 14.25 26.0 Q14.3 25.9 14.4 25.9 L14.55 25.95 14.7 26.15 M12.75 26.7 L12.45 26.65 12.4 26.55 12.4 26.35 12.6 26.25 12.8 26.3 12.9 26.45 12.85 26.6 12.75 26.7 M11.1 27.25 L11.3 27.15 11.4 27.2 11.55 27.3 11.45 27.45 11.35 27.5 11.15 27.5 11.1 27.45 11.1 27.35 11.1 27.3 11.1 27.25 M12.75 31.35 L12.6 31.15 12.6 30.85 12.9 30.75 13.1 30.75 13.3 31.0 13.25 31.25 13.05 31.4 12.75 31.35 M14.1 30.85 L14.2 31.0 14.25 31.35 14.0 31.5 13.85 31.45 13.8 31.45 13.6 31.2 Q13.55 31.05 13.65 30.95 13.7 30.8 13.85 30.8 L13.95 30.75 14.1 30.85 M14.95 30.9 L15.1 31.05 15.1 31.4 14.85 31.5 14.65 31.45 14.55 31.25 14.5 30.95 14.7 30.85 14.95 30.9 M15.35 31.3 Q15.2 31.15 15.4 31.0 15.4 30.85 15.55 30.85 L15.8 30.95 15.95 31.15 15.95 31.45 15.75 31.55 15.55 31.5 15.35 31.3 M35.55 25.2 L35.55 24.9 35.65 24.75 35.75 24.8 35.9 25.05 35.9 25.25 35.85 25.4 35.65 25.35 35.55 25.2 M28.1 30.2 L28.15 29.75 28.3 29.75 28.6 29.65 28.5 31.5 28.4 31.55 28.25 31.6 27.75 31.05 27.6 30.9 27.45 31.85 27.25 32.0 27.15 32.0 27.05 31.8 26.75 31.25 26.3 30.45 26.35 30.45 26.6 30.35 26.65 30.3 26.7 30.25 27.15 30.9 27.25 30.8 27.3 30.4 27.65 30.2 28.05 30.7 28.1 30.55 28.1 30.2 M28.95 30.25 L28.95 29.4 29.05 29.35 29.1 29.35 30.35 30.9 29.9 31.05 29.8 30.75 29.75 30.75 29.35 30.85 29.3 31.3 28.9 31.45 28.95 30.6 28.95 30.25 M25.5 30.65 L26.0 30.75 Q26.2 30.8 26.25 30.95 L26.15 31.05 26.0 31.25 25.8 31.05 25.6 31.05 25.4 31.05 25.05 31.35 25.05 31.8 25.3 32.15 25.75 32.2 25.85 32.15 26.05 31.85 26.1 31.75 26.3 31.75 26.55 31.85 26.45 32.1 25.95 32.5 25.85 32.55 25.15 32.5 24.7 32.0 Q24.55 31.55 24.8 31.2 24.9 30.8 25.25 30.7 L25.4 30.65 25.5 30.65 M29.5 30.45 L29.5 30.35 29.3 30.1 29.3 30.5 29.5 30.45 M24.65 32.85 L24.2 33.0 23.8 31.3 24.15 31.15 24.65 32.85" fill="#fff58c" fill-rule="evenodd" stroke="none"/>
      <path d="M23.2 18.7 L23.25 18.65 24.5 18.2 27.0 18.15 28.5 18.55 30.55 19.75 Q31.2 20.5 31.55 21.6 31.85 22.6 31.7 23.65 L31.6 23.85 Q31.4 24.95 30.65 26.05 L29.5 27.35 28.1 28.5 27.4 28.8 26.3 29.3 25.2 29.55 23.5 29.8 22.8 29.75 22.25 29.7 21.95 29.6 21.1 29.35 Q20.1 29.0 19.5 28.45 L19.3 28.25 19.15 28.15 18.35 27.25 17.85 25.2 Q17.75 23.5 18.9 21.85 L19.65 20.9 19.9 20.7 20.25 20.35 22.0 19.15 Q22.05 19.05 22.2 19.05 L23.2 18.7 M26.75 19.0 L25.3 19.05 24.6 19.15 23.45 19.4 23.2 19.55 22.6 19.85 Q22.5 20.1 22.55 20.45 22.3 24.0 24.65 27.9 L24.8 28.1 25.25 28.8 26.15 28.55 27.0 28.15 27.4 27.95 27.75 27.8 28.9 26.9 29.75 25.75 30.6 23.95 Q30.85 22.95 30.55 22.0 30.0 20.05 27.9 19.3 L26.75 19.0 M23.4 28.95 L23.95 28.95 25.25 28.8 23.95 28.95 23.4 28.95 Q21.45 24.25 21.7 20.3 L21.2 20.6 21.05 20.75 20.9 20.85 20.6 21.2 20.35 21.4 19.7 22.15 19.4 22.7 Q18.7 23.9 18.85 25.15 L18.9 25.6 18.95 25.65 18.95 25.7 19.0 25.95 Q19.3 26.9 19.95 27.6 20.6 28.25 21.65 28.55 L22.35 28.8 22.65 28.85 23.05 28.9 23.4 28.95 M22.6 19.85 L22.1 20.05 21.7 20.3 22.1 20.05 22.6 19.85 M35.3 20.7 L35.45 20.65 35.7 20.55 Q36.45 21.2 36.4 23.0 L36.2 23.05 36.1 23.1 Q35.25 21.9 35.3 20.7 M14.15 29.85 L14.0 29.9 13.9 29.9 13.65 29.95 Q12.8 28.7 12.9 27.55 L12.85 27.4 13.1 27.35 13.5 27.3 14.0 27.9 14.15 28.4 14.15 29.85" fill="#ffb100" fill-rule="evenodd" stroke="none"/>
      <path d="M21.15 18.1 L21.5 18.1 21.7 18.35 21.75 18.75 21.45 19.0 21.1 18.95 20.8 18.7 20.85 18.3 Q20.95 18.15 21.15 18.1 M20.4 19.8 L20.05 20.0 19.75 20.0 19.55 19.7 19.5 19.35 Q19.65 19.2 19.85 19.15 L20.2 19.15 20.4 19.4 20.4 19.8 M18.8 20.4 L19.1 20.4 19.4 20.65 19.3 21.0 19.1 21.3 18.7 21.25 18.5 20.95 18.5 20.6 Q18.6 20.45 18.8 20.4 M17.6 21.9 Q17.7 21.75 17.85 21.7 L18.25 21.7 18.4 22.0 18.4 22.35 18.2 22.6 17.8 22.55 17.6 22.25 17.6 21.9 M13.65 29.95 L13.0 30.0 12.85 29.9 Q11.95 28.85 12.3 27.75 L12.3 27.7 12.4 27.65 12.75 27.5 12.85 27.4 12.9 27.55 Q12.8 28.7 13.65 29.95 M21.5 32.9 L21.55 33.05 21.35 33.2 21.15 33.2 20.95 33.0 21.0 32.75 21.15 32.65 21.4 32.6 21.5 32.85 21.5 32.9 M13.05 31.4 L13.05 31.45 12.75 31.4 12.75 31.35 13.05 31.4" fill="#cca033" fill-rule="evenodd" stroke="none"/>
      <path d="M24.6 19.15 L25.3 19.05 26.75 19.0 Q30.5 21.6 28.9 26.9 L27.75 27.8 27.4 27.95 27.0 28.15 27.1 27.65 27.1 27.25 Q27.55 22.65 25.9 20.4 L25.2 19.6 24.6 19.15 M14.75 29.6 L14.15 29.85 14.15 28.4 14.0 27.9 13.5 27.3 14.1 27.35 Q15.3 28.2 14.75 29.6" fill="#ad7300" fill-rule="evenodd" stroke="none"/>
      <path d="M28.1 28.5 L28.95 29.0 31.4 29.85 32.8 30.15 32.95 30.2 Q29.15 34.55 24.05 34.4 L23.9 34.0 23.95 33.95 24.05 33.95 Q24.85 34.15 28.25 32.95 30.65 32.15 31.25 30.45 L31.4 29.85 31.25 30.45 Q30.65 32.15 28.25 32.95 24.85 34.15 24.05 33.95 L28.3 32.25 Q30.5 31.4 28.4 31.6 L28.7 31.5 28.7 30.7 Q28.85 30.6 28.95 30.6 L28.9 31.45 29.3 31.3 29.45 31.25 29.5 30.85 29.8 30.75 29.9 31.05 30.35 30.9 30.45 30.9 29.3 29.3 29.1 29.35 29.05 29.35 28.95 29.4 28.95 30.25 28.7 30.2 28.7 29.6 28.6 29.65 28.3 29.75 28.15 29.75 28.1 30.2 27.85 30.2 27.85 30.15 27.65 30.2 26.8 30.25 26.7 30.25 28.95 29.0 26.7 30.25 26.65 30.25 26.65 30.3 26.3 30.4 23.8 30.6 23.5 30.55 23.5 30.0 23.5 29.8 25.2 29.55 26.3 29.3 27.4 28.8 28.1 28.5 M22.25 16.9 L23.65 16.5 23.55 16.65 Q23.2 17.6 23.2 18.7 L22.2 19.05 Q22.05 19.05 22.0 19.15 L22.05 18.4 22.2 17.95 22.25 18.0 22.4 18.25 22.7 18.25 23.1 18.05 23.2 17.65 22.9 17.35 22.5 17.35 22.25 17.55 22.25 16.9 M35.85 24.45 L37.6 22.7 37.85 23.45 36.4 25.05 35.6 25.9 35.35 24.95 35.85 24.45 M36.6 25.3 L38.1 23.4 Q37.65 21.1 36.85 19.2 L35.2 18.95 34.65 18.65 Q34.15 18.5 33.7 18.15 35.45 17.85 37.25 18.6 L38.75 23.55 37.0 25.7 36.6 25.3 M36.65 23.75 L36.7 24.0 36.85 24.2 37.05 24.25 37.15 24.05 37.1 23.85 37.0 23.65 36.85 23.6 36.65 23.75 M36.1 24.4 L36.1 24.6 36.2 24.8 36.35 24.85 36.5 24.65 36.5 24.45 36.4 24.25 36.2 24.25 36.1 24.4 M37.3 23.05 Q37.2 23.05 37.25 23.2 L37.25 23.45 37.35 23.65 37.5 23.7 37.65 23.55 37.7 23.25 37.5 23.1 37.3 23.05 M18.1 33.5 L13.8 32.4 13.85 32.15 13.8 31.9 17.25 32.5 15.0 24.75 Q13.6 25.1 12.2 25.85 L12.15 25.7 12.25 24.9 Q13.8 23.9 15.25 23.75 L18.15 33.5 18.1 33.5 M35.55 25.2 L35.65 25.35 35.85 25.4 35.9 25.25 35.9 25.05 35.75 24.8 35.65 24.75 35.55 24.9 35.55 25.2 M26.3 31.75 L26.1 31.75 26.05 31.85 Q24.95 31.85 26.75 31.25 L27.05 31.8 26.65 31.8 26.3 31.7 26.3 31.75 M27.65 31.7 L27.75 31.05 28.25 31.6 27.65 31.7" fill="#cc7000" fill-rule="evenodd" stroke="none"/>
      <path d="M11.15 27.5 L11.1 27.5 11.1 27.45 11.15 27.5" fill="#c59541" fill-rule="evenodd" stroke="none"/>
      <path d="M12.25 27.75 L12.3 27.7 12.3 27.75 12.25 27.75" fill="#fff29b" fill-rule="evenodd" stroke="none"/>
      <path d="M8.7 26.55 L10.5 32.55 10.1 32.3 8.45 26.35 8.7 26.55" fill="#2e2e2e" fill-rule="evenodd" stroke="none"/>
      <path d="M34.55 28.3 L31.2 16.75 31.9 17.3 35.5 29.2 34.55 28.3" fill="#262626" fill-rule="evenodd" stroke="none"/>
      <path d="M21.75 15.9 Q23.05 15.3 24.55 15.15 L25.2 15.1 Q27.85 14.95 30.9 16.15 L31.05 16.2 31.15 16.45 31.2 16.75 34.55 28.3 34.9 29.65 31.35 33.15 Q28.45 35.75 25.1 35.65 L24.95 35.65 Q24.35 35.25 24.05 34.4 29.15 34.55 32.95 30.2 L33.8 29.1 30.6 17.9 Q26.7 15.9 23.65 16.5 L22.25 16.9 21.55 17.35 21.5 17.2 Q21.4 16.85 21.65 16.25 L21.75 15.9 M15.4 22.35 L19.0 34.9 17.95 32.6 14.75 21.0 15.4 22.35 M31.9 17.3 Q34.9 16.15 37.6 17.55 L39.45 23.45 35.5 29.2 31.9 17.3 M37.0 25.7 L38.75 23.55 37.25 18.6 Q35.45 17.85 33.7 18.15 L32.5 18.6 35.25 27.95 37.0 25.7 M18.35 27.25 L18.05 26.25 17.85 25.2 18.35 27.25" fill="#000000" fill-rule="evenodd" stroke="none"/>
      <path d="M27.2 16.9 L27.35 17.2 27.3 17.5 27.0 17.85 26.7 17.7 26.45 17.5 26.55 17.15 26.7 16.85 27.2 16.9 M25.8 16.8 L25.95 17.15 25.95 17.5 25.7 17.8 25.3 17.7 25.05 17.45 25.15 17.05 Q25.2 16.85 25.4 16.8 L25.8 16.8 M27.85 17.85 Q27.75 17.6 27.95 17.45 L28.15 17.2 28.55 17.25 28.75 17.5 28.7 17.95 28.4 18.15 28.15 18.2 28.1 18.15 27.85 17.85 M30.1 18.05 L30.0 18.45 29.8 18.7 29.4 18.7 29.3 18.65 29.15 18.35 29.2 18.05 29.55 17.8 29.8 17.8 29.85 17.85 30.1 18.05 M22.25 17.55 L22.5 17.35 22.9 17.35 23.2 17.65 23.1 18.05 22.7 18.25 22.4 18.25 22.25 18.0 22.2 17.95 22.3 17.65 22.2 17.55 22.25 17.55 M23.75 17.2 L23.95 17.0 24.3 17.0 24.5 17.25 24.45 17.65 24.2 17.9 23.9 17.9 23.55 17.55 Q23.5 17.4 23.75 17.2 M32.5 29.0 L32.55 28.9 32.75 28.8 32.9 28.8 33.05 28.95 32.95 29.15 32.85 29.3 32.6 29.25 32.5 29.15 32.5 29.0" fill="#a87935" fill-rule="evenodd" stroke="none"/>
      <path d="M27.0 28.15 L26.15 28.55 25.25 28.8 24.8 28.1 25.35 28.1 25.55 27.65 26.05 27.65 26.1 27.6 26.45 26.95 26.5 26.45 27.1 27.25 27.1 27.65 27.0 28.15 M25.2 19.6 L25.9 20.4 25.75 20.55 Q25.45 21.25 25.4 22.15 L25.15 21.7 24.95 21.4 24.8 21.25 Q24.8 20.95 24.95 20.4 L25.2 19.6" fill="#b87a00" fill-rule="evenodd" stroke="none"/>
      <path d="M23.4 28.95 L23.05 28.9 22.65 28.85 21.15 26.8 21.7 27.05 21.7 26.5 21.2 20.6 21.7 20.3 Q21.45 24.25 23.4 28.95 M24.9 27.0 Q24.3 26.15 23.85 24.75 L23.8 24.55 24.15 24.65 24.55 24.2 24.65 23.2 24.25 21.95 23.9 21.7 23.55 21.95 23.6 21.8 23.65 21.75 Q23.7 21.2 24.0 21.0 L25.1 23.5 Q24.35 25.15 24.9 27.0" fill="#d49300" fill-rule="evenodd" stroke="none"/>
      <path d="M26.0 31.25 L26.15 31.05 26.1 31.2 26.3 31.05 26.2 31.25 26.1 31.2 26.05 31.25 26.0 31.25 M26.35 30.45 L26.3 30.4 26.6 30.35 26.35 30.45" fill="#c79f4e" fill-rule="evenodd" stroke="none"/>
      <path d="M26.7 30.25 L26.8 30.25 27.25 30.8 27.15 30.9 26.7 30.25 M27.65 30.2 L27.85 30.15 27.85 30.2 28.1 30.55 28.05 30.7 27.65 30.2 M28.6 29.65 L28.7 29.6 28.7 30.2 28.7 30.7 28.7 31.5 28.4 31.6 28.4 31.55 28.5 31.5 28.6 29.65 M29.1 29.35 L29.3 29.3 30.45 30.9 30.35 30.9 29.1 29.35 M29.8 30.75 L29.5 30.85 29.45 31.25 29.3 31.3 29.35 30.85 29.75 30.75 29.8 30.75 M26.15 31.05 L26.25 30.95 Q26.2 30.8 26.0 30.75 L25.5 30.65 26.2 30.75 26.4 30.9 26.3 31.05 26.1 31.2 26.15 31.05 M25.95 32.5 L26.45 32.1 26.55 31.85 26.3 31.75 26.3 31.7 26.65 31.8 26.55 32.05 26.0 32.5 25.95 32.5 M25.85 32.15 L25.75 32.2 25.3 32.15 25.05 31.8 25.05 31.35 25.4 31.05 25.6 31.05 25.55 31.05 25.2 31.3 25.2 31.8 25.5 32.1 25.85 32.15 M29.5 30.45 L29.3 30.5 29.3 30.1 29.5 30.35 29.5 30.45 M24.15 31.15 L24.3 31.15 24.8 32.85 24.65 32.85 24.15 31.15 M27.75 31.05 L27.65 31.7 27.55 31.9 27.25 32.05 27.25 32.0 27.45 31.85 27.6 30.9 27.75 31.05" fill="#856129" fill-rule="evenodd" stroke="none"/>
      <path d="M27.2 16.9 L27.35 17.2 27.3 17.5 27.0 17.85 26.7 17.7 26.45 17.5 26.55 17.15 26.7 16.85 27.2 16.9 M25.8 16.8 L25.95 17.15 25.95 17.5 25.7 17.8 25.3 17.7 25.05 17.45 25.15 17.05 Q25.2 16.85 25.4 16.8 L25.8 16.8 M27.85 17.85 Q27.75 17.6 27.95 17.45 L28.15 17.2 28.55 17.25 28.75 17.5 28.7 17.95 28.4 18.15 28.15 18.2 28.1 18.15 27.85 17.85 M30.1 18.05 L30.0 18.45 29.8 18.7 29.4 18.7 29.3 18.65 29.15 18.35 29.2 18.05 29.55 17.8 29.8 17.8 29.85 17.85 30.1 18.05 M23.2 18.7 L23.25 18.65 24.5 18.2 27.0 18.15 28.5 18.55 30.55 19.75 Q31.2 20.5 31.55 21.6 31.85 22.6 31.7 23.65 L31.6 23.85 Q31.4 24.95 30.65 26.05 L29.5 27.35 28.1 28.5 M28.95 29.0 Q30.85 27.65 31.6 25.7 M21.55 17.35 L22.25 16.9 23.65 16.5 Q26.7 15.9 30.6 17.9 M24.95 35.65 L25.1 35.65 Q28.45 35.75 31.35 33.15 L34.9 29.65 34.55 28.3 31.2 16.75 31.15 16.45 31.05 16.2 29.3 14.7 Q24.6 13.1 20.9 14.75 L20.3 15.05 M19.0 34.9 L24.45 35.6 24.95 35.65 M21.15 18.1 L21.5 18.1 21.7 18.35 21.75 18.75 21.45 19.0 21.1 18.95 20.8 18.7 20.85 18.3 Q20.95 18.15 21.15 18.1 M22.25 17.55 L22.5 17.35 22.9 17.35 23.2 17.65 23.1 18.05 22.7 18.25 22.4 18.25 22.25 18.0 22.2 17.95 M22.0 19.15 Q22.05 19.05 22.2 19.05 L23.2 18.7 M22.3 17.65 L22.2 17.55 22.25 17.55 M23.75 17.2 L23.95 17.0 24.3 17.0 24.5 17.25 24.45 17.65 24.2 17.9 23.9 17.9 23.55 17.55 Q23.5 17.4 23.75 17.2 M24.6 19.15 L25.3 19.05 26.75 19.0 27.9 19.3 Q30.0 20.05 30.55 22.0 30.85 22.95 30.6 23.95 L29.75 25.75 28.9 26.9 27.75 27.8 27.4 27.95 27.0 28.15 26.15 28.55 25.25 28.8 23.95 28.95 23.4 28.95 23.05 28.9 22.65 28.85 22.35 28.8 21.65 28.55 Q20.6 28.25 19.95 27.6 19.3 26.9 19.0 25.95 L18.95 25.7 18.95 25.65 18.9 25.6 M18.85 25.15 Q18.7 23.9 19.4 22.7 L19.7 22.15 20.35 21.4 20.6 21.2 20.9 20.85 21.05 20.75 21.2 20.6 21.7 20.3 22.1 20.05 22.6 19.85 23.2 19.55 23.45 19.4 24.6 19.15 25.2 19.6 25.9 20.4 Q27.55 22.65 27.1 27.25 L27.1 27.65 27.0 28.15 M24.0 21.0 L24.1 21.0 Q24.35 20.9 24.8 21.25 M24.95 21.4 L25.15 21.7 25.4 22.15 M20.4 19.8 L20.05 20.0 19.75 20.0 19.55 19.7 19.5 19.35 Q19.65 19.2 19.85 19.15 L20.2 19.15 20.4 19.4 20.4 19.8 M17.85 25.2 Q17.75 23.5 18.9 21.85 L19.65 20.9 19.9 20.7 20.25 20.35 22.0 19.15 M22.6 19.85 Q22.5 20.1 22.55 20.45 22.3 24.0 24.65 27.9 L24.8 28.1 25.25 28.8 M25.55 27.65 L24.95 27.15 24.9 27.0 Q24.3 26.15 23.85 24.75 L23.8 24.55 23.75 24.2 Q23.5 23.1 23.55 22.25 L23.55 21.95 23.6 21.8 23.65 21.75 Q23.7 21.2 24.0 21.0 M26.1 27.6 L26.45 26.95 26.5 26.45 26.15 24.0 26.05 23.65 25.4 22.15 M37.6 17.55 L35.4 16.0 Q32.7 15.35 31.15 16.45 M35.2 19.3 L35.35 19.2 36.15 19.65 Q36.45 19.55 36.7 19.4 L36.95 20.2 Q36.65 19.9 36.25 20.0 L34.95 20.3 M34.85 20.75 L35.25 20.55 35.5 20.45 35.75 20.35 36.25 20.35 36.55 20.45 36.9 20.6 37.25 21.25 37.3 21.9 37.25 22.1 37.2 22.45 37.0 22.75 36.55 23.15 36.35 23.25 36.1 23.4 35.55 23.4 35.45 23.35 35.3 23.35 35.2 23.2 34.75 22.95 34.55 22.65 34.4 22.1 34.5 21.2 34.7 21.0 34.8 20.9 34.85 20.75 M35.85 24.45 L37.6 22.7 37.85 23.45 36.4 25.05 35.6 25.9 35.35 24.95 35.85 24.45 M36.6 25.3 L38.1 23.4 Q37.65 21.1 36.85 19.2 L35.2 18.95 33.05 19.2 35.3 26.6 36.6 25.3 M35.2 19.3 L34.6 19.85 33.7 19.5 34.15 21.2 34.95 20.3 M35.35 19.7 L35.35 19.6 35.45 19.5 35.5 19.55 35.55 19.65 35.55 19.75 35.5 19.8 35.4 19.8 35.35 19.7 M37.0 25.7 L38.75 23.55 37.25 18.6 Q35.45 17.85 33.7 18.15 L32.5 18.6 35.25 27.95 37.0 25.7 M34.15 20.0 L34.25 20.0 34.3 20.15 34.3 20.25 34.3 20.35 34.15 20.3 34.0 20.25 34.1 20.05 34.15 20.0 M35.5 23.1 L35.45 23.1 35.25 23.0 35.2 23.05 34.85 22.8 34.65 22.3 Q34.5 21.8 34.75 21.3 L34.8 21.1 34.85 21.1 34.9 21.0 35.3 20.7 35.45 20.65 35.7 20.55 36.2 20.55 36.45 20.6 Q36.95 20.85 37.1 21.35 L37.1 21.4 37.1 21.95 37.0 22.3 36.8 22.65 36.4 23.0 36.2 23.05 36.1 23.1 35.6 23.2 35.5 23.1 M36.6 19.65 L36.7 19.75 36.7 19.8 36.65 19.9 36.6 19.8 36.5 19.7 36.6 19.65 M37.3 23.05 L37.5 23.1 37.7 23.25 37.65 23.55 37.5 23.7 37.35 23.65 37.25 23.45 37.25 23.2 Q37.2 23.05 37.3 23.05 M36.1 24.4 L36.2 24.25 36.4 24.25 36.5 24.45 36.5 24.65 36.35 24.85 36.2 24.8 36.1 24.6 36.1 24.4 M36.65 23.75 L36.85 23.6 37.0 23.65 37.1 23.85 37.15 24.05 37.05 24.25 36.85 24.2 36.7 24.0 36.65 23.75 M36.2 20.55 Q37.1 21.25 36.8 22.65 M36.4 23.0 Q36.45 21.2 35.7 20.55 M36.1 23.1 Q35.25 21.9 35.3 20.7 M37.6 17.55 L39.45 23.45 35.5 29.2 34.55 28.3 M10.5 32.55 L18.5 34.9 18.1 33.5 13.8 32.4 11.6 31.85 10.05 26.65 12.25 24.9 Q13.8 23.9 15.25 23.75 L14.9 22.35 14.25 21.4 12.6 22.05 11.1 22.85 M18.8 20.4 L19.1 20.4 19.4 20.65 19.3 21.0 19.1 21.3 18.7 21.25 18.5 20.95 18.5 20.6 Q18.6 20.45 18.8 20.4 M17.6 21.9 Q17.7 21.75 17.85 21.7 L18.25 21.7 18.4 22.0 18.4 22.35 18.2 22.6 17.8 22.55 17.6 22.25 17.6 21.9 M18.35 27.25 L18.05 26.25 17.85 25.2 17.05 22.55 Q18.95 18.75 21.55 17.35 M18.35 27.25 L17.85 25.2 M14.1 27.35 L14.45 27.45 15.3 28.3 15.3 28.35 15.35 28.85 14.95 29.3 14.75 29.6 14.15 29.85 14.0 29.9 13.9 29.9 13.65 29.95 13.0 30.0 12.85 29.9 12.8 29.9 M12.25 27.75 L12.3 27.7 12.4 27.65 12.75 27.5 12.85 27.4 13.1 27.35 13.5 27.3 14.1 27.35 Q15.3 28.2 14.75 29.6 M12.6 27.3 L12.8 27.3 13.1 27.2 13.55 27.15 14.2 27.2 14.65 27.3 15.0 27.5 15.55 28.25 15.55 28.85 15.5 29.05 15.35 29.4 14.95 29.7 14.3 30.05 14.0 30.1 13.95 30.1 M13.95 30.7 L15.95 30.7 16.3 31.9 13.85 31.5 M13.8 31.9 L17.25 32.5 15.0 24.75 Q13.6 25.1 12.2 25.85 M12.25 26.5 L12.55 25.95 13.75 26.2 14.6 25.1 15.2 27.05 12.3 27.1 M12.6 27.3 Q12.35 27.35 12.2 27.5 L12.1 27.6 12.0 27.65 11.75 27.9 Q11.4 28.3 11.5 28.8 L11.6 29.25 11.85 29.65 12.4 30.0 12.6 30.05 12.75 30.1 12.9 30.15 13.7 30.2 13.95 30.1 M21.1 29.35 Q20.1 29.0 19.5 28.45 L19.3 28.25 19.15 28.15 18.35 27.25 M22.65 30.5 Q21.05 30.3 20.05 29.6 M23.9 33.95 L22.2 32.95 Q21.45 32.15 21.1 32.25 20.75 32.35 20.55 32.55 20.3 32.7 20.45 33.0 L20.8 33.4 21.5 33.5 21.65 33.55 21.7 33.4 21.6 33.0 21.5 32.9 21.55 33.05 21.35 33.2 21.15 33.2 20.95 33.0 21.0 32.75 21.15 32.65 21.4 32.6 21.5 32.85 21.5 32.9 M14.7 26.15 L14.6 26.35 14.5 26.4 14.3 26.4 14.25 26.2 14.25 26.0 Q14.3 25.9 14.4 25.9 L14.55 25.95 14.7 26.15 M12.75 26.7 L12.45 26.65 12.4 26.55 12.4 26.35 12.6 26.25 12.8 26.3 12.9 26.45 12.85 26.6 12.75 26.7 M13.65 29.95 Q12.8 28.7 12.9 27.55 L12.85 27.4 M11.1 27.25 L11.3 27.15 11.4 27.2 11.55 27.3 11.45 27.45 11.35 27.5 11.15 27.5 11.1 27.45 11.1 27.35 11.1 27.3 11.1 27.25 11.0 27.05 11.9 27.05 12.25 26.5 M11.1 27.5 L11.2 27.75 Q11.7 27.3 12.3 27.1 M11.1 27.45 L11.1 27.5 M12.3 27.75 L12.3 27.7 M13.8 31.9 L11.8 31.5 10.55 27.1 12.2 25.85 M14.15 29.85 L14.15 28.4 14.0 27.9 13.5 27.3 M12.75 31.35 L12.6 31.15 12.6 30.85 12.9 30.75 13.1 30.75 13.3 31.0 13.25 31.25 13.05 31.4 M13.05 31.45 L13.85 31.5 M14.1 30.85 L14.2 31.0 14.25 31.35 14.0 31.5 13.85 31.45 13.8 31.45 13.6 31.2 Q13.55 31.05 13.65 30.95 13.7 30.8 13.85 30.8 L13.95 30.75 14.1 30.85 M14.95 30.9 L15.1 31.05 15.1 31.4 14.85 31.5 14.65 31.45 14.55 31.25 14.5 30.95 14.7 30.85 14.95 30.9 M13.95 30.7 L12.25 30.65 12.45 31.35 12.75 31.4 13.05 31.45 M12.75 31.35 L13.05 31.4 M15.25 23.75 L18.15 33.5 18.1 33.5 M15.35 31.3 Q15.2 31.15 15.4 31.0 15.4 30.85 15.55 30.85 L15.8 30.95 15.95 31.15 15.95 31.45 15.75 31.55 15.55 31.5 15.35 31.3 M19.0 34.9 L17.95 32.6 14.75 21.0 Q17.1 16.7 20.3 15.05 M8.45 26.35 L8.15 25.55 8.1 25.45 8.25 25.25 Q9.35 23.85 11.1 22.85 M10.5 32.55 L10.1 32.3 8.45 26.35 M35.55 25.2 L35.55 24.9 35.65 24.75 35.75 24.8 35.9 25.05 35.9 25.25 35.85 25.4 35.65 25.35 35.55 25.2 M32.5 29.0 L32.55 28.9 32.75 28.8 32.9 28.8 33.05 28.95 32.95 29.15 32.85 29.3 32.6 29.25 32.5 29.15 32.5 29.0 32.35 29.05 32.5 29.4 32.55 29.6 33.0 29.6 33.2 29.35 33.35 28.9 Q33.15 28.2 32.35 28.45 31.8 28.7 31.55 29.2 L31.4 29.85 M24.05 33.95 Q24.85 34.15 28.25 32.95 30.65 32.15 31.25 30.45 L31.4 29.85 M28.95 29.0 L26.7 30.25 26.8 30.25 M27.65 30.2 L27.85 30.15 27.85 30.2 M28.1 30.2 L28.15 29.75 28.3 29.75 M28.6 29.65 L28.7 29.6 28.7 30.2 28.7 30.7 28.7 31.5 28.4 31.6 28.4 31.55 28.5 31.5 28.6 29.65 M28.95 30.25 L28.95 29.4 29.05 29.35 M29.1 29.35 L29.3 29.3 30.45 30.9 30.35 30.9 29.9 31.05 29.8 30.75 29.5 30.85 29.45 31.25 29.3 31.3 28.9 31.45 28.95 30.6 M24.05 33.95 L23.95 33.95 23.9 33.95 M26.1 27.6 L26.05 27.65 25.55 27.65 M26.15 31.05 L26.25 30.95 Q26.2 30.8 26.0 30.75 L25.5 30.65 25.4 30.65 25.25 30.7 Q24.9 30.8 24.8 31.2 24.55 31.55 24.7 32.0 L25.15 32.5 25.85 32.55 25.95 32.5 26.45 32.1 26.55 31.85 26.3 31.75 26.1 31.75 26.05 31.85 25.85 32.15 25.75 32.2 25.3 32.15 25.05 31.8 25.05 31.35 25.4 31.05 25.6 31.05 25.8 31.05 26.0 31.25 26.15 31.05 26.1 31.2 26.3 31.05 26.4 30.9 26.2 30.75 25.5 30.65 M26.75 31.25 L26.3 30.45 26.35 30.45 M23.8 30.6 L23.5 30.55 22.65 30.5 M21.1 29.35 L21.95 29.6 22.25 29.7 22.8 29.75 23.5 29.8 25.2 29.55 26.3 29.3 27.4 28.8 28.1 28.5 M26.65 30.3 L26.65 30.25 26.7 30.25 27.15 30.9 27.25 30.8 26.8 30.25 M26.6 30.35 L26.65 30.3 26.3 30.4 M26.6 30.35 L26.35 30.45 M26.65 30.3 L26.7 30.25 M27.25 30.8 L27.3 30.4 27.65 30.2 28.05 30.7 28.1 30.55 27.85 30.2 M28.1 30.55 L28.1 30.2 M28.95 30.25 L28.95 30.6 M29.3 31.3 L29.35 30.85 29.75 30.75 29.8 30.75 M29.5 30.45 L29.5 30.35 29.3 30.1 29.3 30.5 29.5 30.45 M30.35 30.9 L29.1 29.35 M21.15 26.8 L22.65 28.85 M25.6 31.05 L25.55 31.05 25.2 31.3 25.2 31.8 25.5 32.1 25.85 32.15 M24.15 31.15 L24.3 31.15 24.8 32.85 24.65 32.85 24.2 33.0 23.8 31.3 24.15 31.15 24.65 32.85 M28.4 31.55 L28.25 31.6 27.75 31.05 27.6 30.9 27.45 31.85 27.25 32.0 27.25 32.05 27.55 31.9 27.65 31.7 27.75 31.05 M27.25 32.0 L27.15 32.0 27.05 31.8 26.75 31.25 M26.65 31.8 L26.55 32.05 26.0 32.5 25.95 32.5 M26.3 31.05 L26.2 31.25 26.1 31.2 26.05 31.25 26.0 31.25 M26.3 31.75 L26.3 31.7 26.65 31.8 M28.9 26.9 Q30.5 21.6 26.75 19.0 M20.6 21.2 Q19.75 24.2 21.15 26.8" fill="none" stroke="#000000" stroke-linecap="round" stroke-linejoin="round" stroke-opacity="0.2" stroke-width="0.05"/>
    </g>
    <g id="sprite0" transform="matrix(1.0, 0.0, 0.0, 1.0, 0.0, 0.0)">
      <use height="15.35" transform="matrix(1.409, -1.409, 1.409, 1.409, 0.0, 27.75)" width="19.7" xlink:href="#sprite1"/>
      <use height="39.45" transform="matrix(1.0, 0.0, 0.0, 1.0, 11.1, 1.6)" width="44.6" xlink:href="#shape2"/>
    </g>
    <g id="sprite1" transform="matrix(1.0, 0.0, 0.0, 1.0, 0.0, 0.0)">
      <use height="15.35" transform="matrix(1.0, 0.0, 0.0, 1.0, 0.0, 0.0)" width="19.7" xlink:href="#shape1"/>
    </g>
    <g id="shape1" transform="matrix(1.0, 0.0, 0.0, 1.0, 0.0, 0.0)">
      <path d="M13.55 8.2 L0.0 4.55 12.95 9.7 10.55 15.35 13.7 10.25 17.9 10.6 14.75 8.8 18.7 0.0 13.55 8.2" fill="#fcf3d8" fill-opacity="0.29411766" fill-rule="evenodd" stroke="none"/>
      <path d="M10.25 9.3 Q9.6 10.5 7.0 11.1 9.3 10.7 10.6 11.6 11.05 12.5 11.9 13.05 13.15 13.85 14.6 13.45 16.25 13.05 17.05 11.7 L19.7 12.8 17.45 10.65 Q17.8 9.75 17.65 8.6 17.45 7.5 16.9 6.85 L17.4 5.35 16.0 6.2 15.95 6.05 Q14.65 5.35 13.2 5.65 11.75 6.15 10.85 7.5 10.35 8.35 10.25 9.3 M15.95 8.85 Q16.1 9.7 15.65 10.3 15.2 11.1 14.45 11.25 13.7 11.45 13.1 11.05 12.35 10.6 12.25 9.85 12.15 9.05 12.6 8.3 13.0 7.55 13.8 7.3 14.45 7.2 15.15 7.6 15.8 8.1 15.95 8.85" fill="#fcf3d8" fill-opacity="0.10980392" fill-rule="evenodd" stroke="none"/>
      <path d="M15.95 8.85 Q15.8 8.1 15.15 7.6 14.45 7.2 13.8 7.3 13.0 7.55 12.6 8.3 12.15 9.05 12.25 9.85 12.35 10.6 13.1 11.05 13.7 11.45 14.45 11.25 15.2 11.1 15.65 10.3 16.1 9.7 15.95 8.85" fill="#fcf3d8" fill-opacity="0.3137255" fill-rule="evenodd" stroke="none"/>
    </g>
    <g id="shape2" transform="matrix(1.0, 0.0, 0.0, 1.0, -11.1, -1.6)">
      <path d="M52.95 34.75 Q48.75 40.75 39.9 41.05 31.15 41.35 22.85 35.55 14.9 30.0 12.0 21.9 9.5 13.75 13.9 7.75 18.1 1.8 26.85 1.6 35.6 1.6 43.7 7.15 51.85 12.75 54.75 20.8 57.35 28.9 52.95 34.75" fill="url(#gradient0)" fill-rule="evenodd" stroke="none"/>
    </g>
    <radialGradient cx="0" cy="0" gradientTransform="matrix(-0.031, -0.0213, 0.0165, -0.0225, 33.5, 21.3)" gradientUnits="userSpaceOnUse" id="gradient0" r="819.2" spreadMethod="pad">
      <stop offset="0.0" stop-color="#ffffde" stop-opacity="0.3882353"/>
      <stop offset="0.4117647058823529" stop-color="#ffffcc" stop-opacity="0.0"/>
    </radialGradient>
    <g id="shape3" transform="matrix(1.0, 0.0, 0.0, 1.0, -1.6, -8.7)">
      <path d="M34.05 9.3 L32.55 9.1 23.45 9.4 22.95 10.3 Q21.8 12.5 23.05 14.1 L20.9 14.75 20.3 15.05 Q17.1 16.7 14.75 21.0 L15.85 25.0 15.65 25.05 14.9 22.35 14.25 21.4 12.6 22.05 11.1 22.85 Q9.55 23.7 8.5 24.95 L5.95 24.3 5.6 24.15 7.7 22.35 8.8 21.6 Q11.3 20.0 14.4 18.75 15.85 16.9 15.9 15.6 16.0 13.5 12.8 12.55 L12.75 12.55 Q11.5 13.05 10.35 13.65 7.95 14.8 6.05 16.2 1.25 19.7 1.95 22.7 L1.95 22.85 2.0 22.9 3.6 28.9 3.65 29.0 Q4.3 31.4 8.15 32.35 L10.5 32.7 11.3 32.8 18.5 34.9 18.1 33.5 18.15 33.5 17.9 32.65 17.95 32.65 19.0 34.9 24.45 35.6 24.95 35.65 25.1 35.65 Q28.45 35.75 31.35 33.15 L34.9 29.65 34.55 28.3 35.5 29.2 39.3 23.7 Q41.65 21.25 41.15 19.05 L39.75 13.8 39.7 13.75 Q39.3 11.4 36.8 10.15 L35.95 9.85 35.15 9.6 34.05 9.3 M36.2 16.6 L35.4 16.0 Q32.7 15.35 31.15 16.45 L31.05 16.2 29.8 15.15 33.4 15.2 34.2 15.3 36.85 15.75 36.65 16.05 36.2 16.6" fill="none" stroke="#000000" stroke-linecap="round" stroke-linejoin="round" stroke-opacity="0.3019608" stroke-width="0.5"/>
    </g>
  </defs>
</svg>
