<?xml version="1.0" encoding="UTF-8" standalone="no"?>
<svg xmlns:xlink="http://www.w3.org/1999/xlink" height="440.0px" width="440.0px" xmlns="http://www.w3.org/2000/svg">
  <g transform="matrix(10.0, 0.0, 0.0, 10.0, 0.0, 0.0)">
    <use height="44.0" transform="matrix(1.0, 0.0, 0.0, 1.0, 0.0, 0.0)" width="44.0" xlink:href="#shape0"/>
  </g>
  <defs>
    <g id="shape0" transform="matrix(1.0, 0.0, 0.0, 1.0, 0.0, 0.0)">
      <path d="M44.0 44.0 L0.0 44.0 0.0 0.0 44.0 0.0 44.0 44.0" fill="#43adca" fill-opacity="0.0" fill-rule="evenodd" stroke="none"/>
      <path d="M28.05 23.95 L23.05 28.8 13.2 28.0 Q14.95 31.3 8.2 28.75 L4.8 24.3 2.05 18.8 Q7.25 21.85 13.05 23.95 L12.4 23.65 28.05 23.95" fill="#7b5117" fill-rule="evenodd" stroke="none"/>
      <path d="M20.9 41.9 Q17.9 38.1 14.95 36.15 L14.8 36.05 Q11.95 34.85 9.95 36.7 8.8 33.1 8.75 30.1 L8.65 29.5 9.85 29.75 14.4 32.9 16.35 34.9 14.95 36.15 16.35 34.9 Q19.1 38.05 20.75 41.25 L21.1 42.05 20.9 41.9" fill="#d98711" fill-rule="evenodd" stroke="none"/>
      <path d="M8.65 29.5 L8.55 29.5 8.45 29.35 8.2 28.75 Q14.95 31.3 13.2 28.0 L23.05 28.8 Q22.55 30.65 20.15 32.5 L19.45 33.05 16.7 34.7 16.35 34.9 14.4 32.9 9.85 29.75 8.65 29.5" fill="#ae6c0e" fill-rule="evenodd" stroke="none"/>
      <path d="M21.35 42.35 L20.9 41.9 21.1 42.05 21.35 42.35" fill="#fad98f" fill-rule="evenodd" stroke="none"/>
      <path d="M23.05 28.8 Q24.55 28.8 30.45 26.8 32.65 25.4 34.85 24.1 L35.1 33.3 Q23.9 39.7 21.35 42.35 L21.1 42.05 20.75 41.25 Q19.1 38.05 16.35 34.9 L16.7 34.7 19.45 33.05 20.15 32.5 Q22.55 30.65 23.05 28.8 M35.1 33.3 L16.7 34.7 35.1 33.3" fill="#e7a843" fill-rule="evenodd" stroke="none"/>
      <path d="M28.05 23.95 L29.45 23.7 33.25 21.9 34.85 24.1 Q32.65 25.4 30.45 26.8 24.55 28.8 23.05 28.8 L28.05 23.95" fill="#ad7e32" fill-rule="evenodd" stroke="none"/>
      <path d="M28.05 23.95 L23.05 28.8 M16.35 34.9 L16.7 34.7 19.45 33.05 20.15 32.5 Q22.55 30.65 23.05 28.8 M16.35 34.9 L14.95 36.15 M16.7 34.7 L35.1 33.3" fill="none" stroke="#000000" stroke-linecap="round" stroke-linejoin="round" stroke-opacity="0.18039216" stroke-width="0.05"/>
      <path d="M34.85 24.1 L33.25 21.9 29.45 23.7 28.05 23.95 M34.85 24.1 L35.1 33.3 Q23.9 39.7 21.35 42.35 L20.9 41.9 Q17.9 38.1 14.95 36.15 L14.8 36.05 Q11.95 34.85 9.95 36.7 8.8 33.1 8.75 30.1 L8.65 29.5 8.55 29.5 8.45 29.35 8.2 28.75 4.8 24.3 2.05 18.8 Q7.25 21.85 13.05 23.95 L12.4 23.65 28.05 23.95 Z" fill="none" stroke="#292212" stroke-linecap="round" stroke-linejoin="round" stroke-opacity="0.3019608" stroke-width="0.05"/>
      <path d="M15.8 34.15 L16.45 36.25 19.45 35.8 17.65 33.25 15.8 34.15 M20.75 28.7 L20.1 30.75 24.4 31.6 25.6 29.7 20.75 28.7 M25.45 24.6 L26.35 26.2 30.65 25.8 30.65 23.4 25.45 24.6" fill="#79592b" fill-rule="evenodd" stroke="none"/>
      <path d="M26.05 30.2 L28.5 29.9 Q26.5 31.1 28.95 32.2 L25.9 31.5 Q26.5 30.85 26.05 30.2" fill="#000000" fill-opacity="0.2" fill-rule="evenodd" stroke="none"/>
      <path d="M20.9 31.0 Q24.75 31.05 24.35 29.5 L25.6 29.7 26.05 30.2 Q26.5 30.85 25.9 31.5 L25.4 31.8 Q22.85 31.95 20.9 31.0" fill="#51546a" fill-rule="evenodd" stroke="none"/>
      <path d="M20.9 31.0 L18.9 29.55 Q19.1 28.85 20.1 28.35 21.0 29.05 24.35 29.5 24.75 31.05 20.9 31.0" fill="#757798" fill-rule="evenodd" stroke="none"/>
      <path d="M18.9 29.55 L15.1 28.1 M24.35 29.5 Q21.0 29.05 20.1 28.35 19.1 28.85 18.9 29.55 L20.9 31.0 M24.35 29.5 L25.6 29.7 26.05 30.2 28.5 29.9 29.95 29.65 M25.9 31.5 L28.95 32.2 30.8 32.55 M25.9 31.5 L25.4 31.8 Q22.85 31.95 20.9 31.0 M26.05 30.2 Q26.5 30.85 25.9 31.5" fill="none" stroke="#382510" stroke-linecap="round" stroke-linejoin="round" stroke-opacity="0.2" stroke-width="0.05"/>
      <path d="M17.6 33.0 L16.2 33.1 15.3 31.7 Q16.55 32.7 16.7 30.9 L17.6 33.0" fill="#000000" fill-opacity="0.2" fill-rule="evenodd" stroke="none"/>
      <path d="M17.6 33.0 Q17.65 33.75 19.05 35.5 18.4 36.4 16.3 34.75 16.1 33.95 16.2 33.1 L17.6 33.0" fill="#757798" fill-rule="evenodd" stroke="none"/>
      <path d="M19.05 35.5 L19.55 36.2 Q19.65 36.9 19.1 37.1 L18.2 37.2 Q16.7 36.1 16.3 34.75 18.4 36.4 19.05 35.5" fill="#51546a" fill-rule="evenodd" stroke="none"/>
      <path d="M16.7 30.9 L16.25 29.75 M19.05 35.5 L19.55 36.2 Q19.65 36.9 19.1 37.1 L19.95 38.55 M19.05 35.5 Q17.65 33.75 17.6 33.0 L16.2 33.1 Q16.1 33.95 16.3 34.75 M16.2 33.1 L15.3 31.7 14.6 30.6 M17.6 33.0 L16.7 30.9 M19.1 37.1 L18.2 37.2 Q16.7 36.1 16.3 34.75" fill="none" stroke="#382510" stroke-linecap="round" stroke-linejoin="round" stroke-opacity="0.2" stroke-width="0.05"/>
      <path d="M2.65 16.1 Q3.3 14.2 7.0 12.3 L7.8 11.9 Q12.55 9.7 19.45 8.6 26.35 7.7 32.0 8.35 L35.0 9.7 36.15 9.55 35.95 8.95 Q38.2 9.65 39.1 10.7 38.6 12.1 36.45 13.4 L35.0 14.1 33.1 13.8 31.65 13.65 33.35 9.75 30.15 9.55 28.3 8.95 26.45 8.8 12.55 10.8 8.75 12.95 11.25 15.95 Q9.35 16.65 7.65 17.4 L6.5 17.6 6.25 17.65 6.35 17.8 6.45 17.9 6.5 18.0 6.45 18.0 Q3.65 17.35 2.65 16.1" fill="#3f340e" fill-rule="evenodd" stroke="none"/>
      <path d="M11.25 15.95 L8.75 12.95 12.55 10.8 26.45 8.8 28.3 8.95 30.15 9.55 33.35 9.75 31.65 13.65 19.7 14.0 Q14.9 14.75 11.25 15.95" fill="#4d4011" fill-rule="evenodd" stroke="none"/>
      <path d="M6.35 17.8 L6.25 17.65 6.5 17.6 6.35 17.8" fill="#c2a561" fill-rule="evenodd" stroke="none"/>
      <path d="M2.0 14.55 L2.0 14.45 Q2.0 12.65 4.6 10.9 L5.35 11.5 10.1 8.95 14.7 7.6 16.0 8.15 Q17.1 7.75 18.15 7.3 L17.3 6.5 18.9 6.15 29.25 5.6 31.2 5.7 31.6 5.9 32.35 6.0 Q37.65 6.6 38.8 8.55 L39.05 9.15 39.15 9.65 35.55 8.25 29.75 7.1 18.75 8.05 15.75 9.0 14.2 8.65 4.45 12.85 2.35 15.7 2.1 15.0 2.0 14.55" fill="#a6854e" fill-rule="evenodd" stroke="none"/>
      <path d="M39.1 10.7 Q38.2 9.65 35.95 8.95 L36.15 9.55 35.0 9.7 32.0 8.35 Q26.35 7.7 19.45 8.6 12.55 9.7 7.8 11.9 L7.0 12.3 Q3.3 14.2 2.65 16.1 L2.35 15.7 4.45 12.85 14.2 8.65 15.75 9.0 18.75 8.05 29.75 7.1 35.55 8.25 39.15 9.65 39.1 10.7" fill="#836940" fill-rule="evenodd" stroke="none"/>
      <path d="M6.45 17.9 L6.35 17.8 6.5 17.6 7.65 17.4 Q9.35 16.65 11.25 15.95 14.9 14.75 19.7 14.0 L31.65 13.65 33.1 13.8 35.0 14.1 32.6 15.35 Q29.1 15.1 25.1 15.4 L23.4 15.65 22.9 15.65 20.95 15.8 Q16.9 16.45 13.65 17.45 L10.15 18.75 9.65 18.65 9.15 18.6 6.45 17.9" fill="#725a38" fill-rule="evenodd" stroke="none"/>
      <path d="M16.0 28.7 L10.4 28.25 7.15 27.4 6.3 27.0 Q5.1 26.45 4.6 25.75 L4.55 25.7 Q0.85 22.25 1.7 15.9 L4.0 18.6 7.5 19.9 7.15 18.5 9.25 20.15 14.35 20.45 16.0 28.7" fill="url(#gradient0)" fill-rule="evenodd" stroke="none"/>
      <path d="M21.9 18.3 Q25.35 25.9 34.75 25.2 30.15 27.2 23.65 28.2 L16.0 28.7 14.35 20.45 13.95 18.95 21.5 18.35 21.9 18.3" fill="#3b311c" fill-rule="evenodd" stroke="none"/>
      <path d="M41.85 15.45 Q41.85 16.65 40.8 19.2 L39.6 22.05 Q38.45 23.3 36.05 24.55 L34.75 25.2 Q25.35 25.9 21.9 18.3 L24.55 17.85 Q26.0 17.35 26.85 16.6 L26.95 17.3 28.1 17.0 Q30.75 21.45 37.15 21.95 41.2 19.15 41.85 15.45" fill="#4d3f23" fill-rule="evenodd" stroke="none"/>
      <path d="M41.85 15.45 Q41.2 19.15 37.15 21.95 30.75 21.45 28.1 17.0 L32.0 15.65 32.6 15.35 35.0 14.1 36.45 13.4 Q38.6 12.1 39.1 10.7 L39.15 9.65 39.05 9.15 38.8 8.55 Q41.7 12.0 41.85 15.45" fill="url(#gradient1)" fill-rule="evenodd" stroke="none"/>
      <path d="M1.7 15.9 L1.9 15.0 2.1 15.0 2.35 15.7 2.65 16.1 Q3.65 17.35 6.45 18.0 L6.5 18.0 6.45 17.9 9.15 18.6 9.65 18.65 10.15 18.75 10.5 18.75 13.95 18.95 14.35 20.45 9.25 20.15 7.15 18.5 7.5 19.9 4.0 18.6 1.7 15.9 M4.6 10.9 Q5.35 10.35 6.45 9.85 10.85 7.6 17.3 6.5 L18.15 7.3 Q17.1 7.75 16.0 8.15 L14.7 7.6 10.1 8.95 5.35 11.5 4.6 10.9" fill="#d9ad66" fill-rule="evenodd" stroke="none"/>
      <path d="M9.65 18.65 L9.15 18.6" fill="none" stroke="#382510" stroke-linecap="round" stroke-linejoin="round" stroke-opacity="0.2" stroke-width="1.0"/>
      <path d="M34.75 25.2 L36.05 24.55 Q38.45 23.3 39.6 22.05 L40.8 19.2 Q41.85 16.65 41.85 15.45 M28.1 17.0 L26.95 17.3 M24.55 17.85 L21.9 18.3 M34.75 25.2 Q30.15 27.2 23.65 28.2 L16.0 28.7 10.4 28.25 7.15 27.4 6.3 27.0 Q5.1 26.45 4.6 25.75 L4.55 25.7 Q0.85 22.25 1.7 15.9 L1.9 15.0 2.0 14.55 2.0 14.45 Q2.0 12.65 4.6 10.9 5.35 10.35 6.45 9.85 10.85 7.6 17.3 6.5 L18.9 6.15 29.25 5.6 M31.2 5.7 L31.6 5.9 32.35 6.0 Q37.65 6.6 38.8 8.55 41.7 12.0 41.85 15.45 M2.65 16.1 Q3.65 17.35 6.45 18.0 L6.5 18.0 M35.0 14.1 L36.45 13.4 Q38.6 12.1 39.1 10.7 L39.15 9.65 39.05 9.15 38.8 8.55 M2.35 15.7 L2.65 16.1 M13.95 18.95 L21.5 18.35 21.9 18.3 M22.9 15.65 L20.95 15.8 Q16.9 16.45 13.65 17.45 L10.15 18.75 10.5 18.75 13.95 18.95 M28.1 17.0 L32.0 15.65 32.6 15.35 Q29.1 15.1 25.1 15.4 M32.6 15.35 L35.0 14.1 M2.1 15.0 L2.0 14.55 M2.1 15.0 L2.35 15.7 M10.15 18.75 L9.65 18.65 Z" fill="none" stroke="#382510" stroke-linecap="round" stroke-linejoin="round" stroke-opacity="0.3019608" stroke-width="0.05"/>
      <path d="M42.35 22.7 L43.75 23.7 43.7 24.95 38.0 26.95 Q32.25 25.9 24.85 26.9 22.1 25.15 21.75 19.1 L27.55 18.6 Q33.7 18.9 42.35 22.7" fill="#826840" fill-rule="evenodd" stroke="none"/>
      <path d="M27.55 18.6 L37.7 19.1 42.35 22.7 Q33.7 18.9 27.55 18.6" fill="#d9ad66" fill-rule="evenodd" stroke="none"/>
      <path d="M42.35 22.7 L43.75 23.7 43.7 24.95 38.0 26.95 Q32.25 25.9 24.85 26.9 M21.75 19.1 L27.55 18.6 37.7 19.1 42.35 22.7 Z" fill="none" stroke="#382510" stroke-linecap="round" stroke-linejoin="round" stroke-opacity="0.3019608" stroke-width="0.05"/>
      <path d="M28.75 22.05 L28.75 22.65 28.75 22.05 29.4 22.3 30.0 23.1 30.1 23.4 29.9 24.0 29.15 24.5 Q28.65 24.6 28.25 24.3 L28.15 24.25 27.65 23.5 27.65 22.85 27.75 22.6 Q28.0 22.15 28.5 22.05 L28.75 22.05 M28.35 23.9 L28.15 24.25 28.35 23.9 M29.5 23.45 L30.1 23.4 29.5 23.45" fill="#2e1d0e" fill-rule="evenodd" stroke="none"/>
      <path d="M28.75 22.05 L28.8 20.85 M28.75 22.65 L28.75 22.05 28.5 22.05 Q28.0 22.15 27.75 22.6 L27.65 22.85 27.65 23.5 28.15 24.25 28.35 23.9 M27.65 22.85 L27.05 22.45 M28.15 24.25 L28.25 24.3 Q28.65 24.6 29.15 24.5 L29.9 24.0 30.1 23.4 29.5 23.45 M28.15 24.25 L27.85 24.7 M30.1 23.4 L30.8 23.4 M30.1 23.4 L30.0 23.1 29.4 22.3 28.75 22.05 Z" fill="none" stroke="#382510" stroke-linecap="round" stroke-linejoin="round" stroke-opacity="0.3019608" stroke-width="0.4"/>
      <path d="M26.8 23.9 Q27.0 25.9 25.55 27.35 24.2 28.8 22.05 28.85 19.85 28.95 18.15 27.6 16.55 26.25 16.35 24.25 16.2 22.25 17.55 20.75 19.0 19.35 21.2 19.25 23.35 19.2 24.95 20.5 26.65 21.9 26.8 23.9" fill="#382510" fill-opacity="0.3019608" fill-rule="evenodd" stroke="none"/>
      <path d="M22.65 22.6 Q25.4 23.7 23.65 27.8 L23.05 28.3 21.9 29.1 22.45 27.2 22.85 26.55 Q23.35 25.65 23.25 24.45 23.2 23.45 22.65 22.6 M13.85 29.2 L15.85 30.25 Q13.85 30.0 12.15 28.8 L11.75 28.55 11.05 27.05 12.5 28.45 13.65 29.1 13.85 29.2" fill="#8d4803" fill-rule="evenodd" stroke="none"/>
      <path d="M13.85 29.2 L14.55 29.4 15.6 29.65 16.85 29.7 17.2 29.65 17.3 29.65 Q19.9 29.45 21.65 28.0 L22.45 27.2 21.9 29.1 Q20.15 30.15 17.75 30.3 L15.85 30.25 13.85 29.2" fill="#382510" fill-rule="evenodd" stroke="none"/>
      <path d="M20.9 20.95 Q22.75 20.8 22.45 20.1 24.85 21.6 25.0 24.0 25.15 26.15 23.65 27.8 25.4 23.7 22.65 22.6 22.15 21.7 21.1 21.05 L20.9 20.95 M10.05 22.65 Q10.1 23.55 10.8 23.1 10.25 24.0 10.4 25.15 10.45 25.9 10.65 26.5 L10.8 26.65 11.05 27.05 11.75 28.55 Q9.75 27.1 9.55 24.9 9.5 23.7 10.05 22.65" fill="#b77a40" fill-rule="evenodd" stroke="none"/>
      <path d="M10.8 23.1 Q11.2 22.25 11.95 21.6 13.2 20.5 14.9 20.2 L15.0 22.05 Q14.45 24.0 14.8 25.8 L14.95 27.05 15.1 28.95 Q12.8 28.25 11.15 26.95 L10.8 26.65 10.65 26.5 Q10.45 25.9 10.4 25.15 10.25 24.0 10.8 23.1" fill="#9e9cbf" fill-rule="evenodd" stroke="none"/>
      <path d="M15.7 20.05 L15.8 20.0 16.45 19.9 17.55 19.9 Q19.55 20.4 20.9 21.55 22.75 23.05 22.45 25.0 L22.4 25.3 20.45 25.15 22.1 26.2 20.65 27.7 20.15 28.75 19.9 28.8 19.15 28.45 18.95 28.55 Q17.6 29.1 16.1 29.25 L16.1 29.2 Q15.55 28.45 15.05 27.0 L14.8 25.8 Q14.45 24.0 15.0 22.05 L15.7 20.05" fill="#9594b7" fill-rule="evenodd" stroke="none"/>
      <path d="M14.9 20.2 Q15.3 20.75 15.7 20.05 L15.0 22.05 14.9 20.2 M14.8 25.8 L15.05 27.0 14.95 27.05 14.8 25.8 M10.8 26.65 L11.15 26.95 11.05 27.05 10.8 26.65" fill="#757798" fill-rule="evenodd" stroke="none"/>
      <path d="M17.55 19.9 Q19.3 20.05 20.9 20.95 L21.1 21.05 Q22.15 21.7 22.65 22.6 23.2 23.45 23.25 24.45 23.35 25.65 22.85 26.55 L22.45 27.2 21.65 28.0 Q19.9 29.45 17.3 29.65 L17.2 29.65 16.85 29.7 15.6 29.65 14.55 29.4 13.85 29.2 13.65 29.1 12.5 28.45 11.05 27.05 11.15 26.95 Q12.8 28.25 15.1 28.95 L14.95 27.05 15.05 27.0 Q15.55 28.45 16.1 29.2 L16.1 29.25 Q17.6 29.1 18.95 28.55 L19.15 28.45 19.9 28.8 20.15 28.75 20.65 27.7 22.1 26.2 20.45 25.15 22.4 25.3 22.45 25.0 Q22.75 23.05 20.9 21.55 19.55 20.4 17.55 19.9 M16.85 29.7 L16.1 29.25 16.85 29.7" fill="#47497a" fill-rule="evenodd" stroke="none"/>
      <path d="M22.45 20.1 Q22.75 20.8 20.9 20.95 19.3 20.05 17.55 19.9 L16.45 19.9 15.8 20.0 15.7 20.05 Q15.3 20.75 14.9 20.2 13.2 20.5 11.95 21.6 11.2 22.25 10.8 23.1 10.1 23.55 10.05 22.65 L10.1 22.6 Q10.55 21.6 11.55 20.6 13.65 18.9 16.9 18.7 20.05 18.55 22.4 20.05 L22.45 20.1" fill="#e8d15f" fill-rule="evenodd" stroke="none"/>
      <path d="M22.45 20.1 L22.4 20.05 Q20.05 18.55 16.9 18.7 13.65 18.9 11.55 20.6 10.55 21.6 10.1 22.6 L10.05 22.65 M10.8 23.1 Q11.2 22.25 11.95 21.6 13.2 20.5 14.9 20.2 15.3 20.75 15.7 20.05 L15.8 20.0 16.45 19.9 17.55 19.9 Q19.3 20.05 20.9 20.95 L21.1 21.05 Q22.15 21.7 22.65 22.6 M23.65 27.8 Q25.15 26.15 25.0 24.0 24.85 21.6 22.45 20.1 M22.45 27.2 L22.85 26.55 Q23.35 25.65 23.25 24.45 23.2 23.45 22.65 22.6 M15.7 20.05 L15.0 22.05 Q14.45 24.0 14.8 25.8 L15.05 27.0 Q15.55 28.45 16.1 29.2 L16.1 29.25 16.85 29.7 15.6 29.65 14.55 29.4 13.85 29.2 M22.45 27.2 L21.65 28.0 Q19.9 29.45 17.3 29.65 L17.2 29.65 16.85 29.7 M15.85 30.25 L17.75 30.3 Q20.15 30.15 21.9 29.1 M10.8 26.65 L11.05 27.05 12.5 28.45 13.65 29.1 13.85 29.2 M10.8 26.65 L10.65 26.5 Q10.45 25.9 10.4 25.15 10.25 24.0 10.8 23.1 M15.85 30.25 Q13.85 30.0 12.15 28.8 L11.75 28.55 Q9.75 27.1 9.55 24.9 9.5 23.7 10.05 22.65 M23.65 27.8 L23.05 28.3 21.9 29.1" fill="none" stroke="#382510" stroke-linecap="round" stroke-linejoin="round" stroke-opacity="0.5019608" stroke-width="0.30000000000000004"/>
      <path d="M17.8 19.45 L15.65 19.65 13.55 20.0 Q12.7 20.1 12.75 19.75 12.8 19.55 13.7 19.3 L15.95 18.9 18.0 18.85 Q18.85 18.9 18.85 19.1 18.8 19.5 17.8 19.45" fill="#ffffff" fill-rule="evenodd" stroke="none"/>
      <path d="M20.35 21.85 Q20.3 22.3 19.5 22.5 L17.6 22.85 Q16.5 22.8 15.85 22.35 15.3 21.8 15.4 21.3 15.55 20.75 16.35 20.45 L18.2 20.35 Q19.25 20.45 19.85 20.95 20.4 21.4 20.35 21.85" fill="#ffffff" fill-rule="evenodd" stroke="none"/>
      <path d="M14.8 21.3 Q14.95 21.6 14.55 22.05 L13.4 22.95 Q12.65 23.4 12.05 23.3 L11.4 22.8 Q11.25 22.4 11.7 21.9 12.1 21.5 12.85 21.1 L14.15 20.95 14.8 21.3" fill="#ffffff" fill-rule="evenodd" stroke="none"/>
      <path d="M17.9 22.05 Q17.55 22.35 17.2 22.35 16.7 22.3 16.4 22.0 16.05 21.7 16.05 21.4 16.05 21.0 16.45 20.75 16.75 20.45 17.2 20.55 17.55 20.55 17.9 20.85 L18.2 21.5 17.9 22.05" fill="#fff6e7" fill-opacity="0.7019608" fill-rule="evenodd" stroke="none"/>
      <path d="M5.35 23.9 Q5.1 23.45 5.0 22.9 L5.0 22.25 5.1 21.95 Q5.25 21.55 5.65 21.6 L5.85 21.7 5.85 22.35 5.85 21.7 6.3 22.15 6.75 23.25 6.8 23.6 6.7 24.25 Q6.5 24.55 6.15 24.5 L5.45 24.0 5.35 23.9 5.5 23.55 5.35 23.9 M6.4 23.45 L6.8 23.6 6.4 23.45" fill="#2e1d0e" fill-rule="evenodd" stroke="none"/>
      <path d="M5.0 22.25 L4.55 21.6 M5.85 21.7 L5.65 21.6 Q5.25 21.55 5.1 21.95 L5.0 22.25 5.0 22.9 Q5.1 23.45 5.35 23.9 L5.5 23.55 M5.85 22.35 L5.85 21.7 5.9 20.45 M5.35 23.9 L5.15 24.3 M5.35 23.9 L5.45 24.0 6.15 24.5 Q6.5 24.55 6.7 24.25 L6.8 23.6 6.4 23.45 M6.8 23.6 L7.35 23.8 M6.8 23.6 L6.75 23.25 6.3 22.15 5.85 21.7" fill="none" stroke="#382510" stroke-linecap="round" stroke-linejoin="round" stroke-opacity="0.3019608" stroke-width="0.4"/>
      <path d="M6.4 24.2 L6.4 24.3 Q6.65 26.3 8.2 27.4 L7.4 27.15 5.0 26.8 Q4.7 25.4 6.25 24.3 L6.4 24.2" fill="#000000" fill-opacity="0.3019608" fill-rule="evenodd" stroke="none"/>
      <path d="M5.25 23.3 Q5.5 23.3 5.55 23.45 L5.75 23.6 5.75 23.65 5.85 23.8 6.35 24.1 6.45 24.2 6.4 24.2 6.25 24.3 Q4.7 25.4 5.0 26.8 L5.35 27.65 6.4 27.95 Q6.4 29.9 3.85 29.65 L3.45 29.35 Q0.55 26.95 2.75 24.85 4.5 23.2 5.25 23.3" fill="#e6b100" fill-rule="evenodd" stroke="none"/>
      <path d="M8.2 27.4 L8.4 28.2 Q6.5 31.45 3.85 29.65 6.4 29.9 6.4 27.95 7.1 27.75 7.4 27.15 L8.2 27.4" fill="#bb6906" fill-rule="evenodd" stroke="none"/>
      <path d="M8.2 27.4 L8.4 28.2 Q6.5 31.45 3.85 29.65 L3.45 29.35 Q0.55 26.95 2.75 24.85 4.5 23.2 5.25 23.3 M6.25 24.3 Q4.7 25.4 5.0 26.8 M7.4 27.15 Q7.1 27.75 6.4 27.95 L5.35 27.65 5.0 26.8" fill="none" stroke="#000000" stroke-linecap="round" stroke-linejoin="round" stroke-opacity="0.3019608" stroke-width="0.05"/>
      <path d="M3.35 27.45 L2.9 27.8 Q2.65 27.65 2.35 26.9 2.1 26.1 2.7 25.45 3.25 24.85 3.95 24.6 L4.85 24.45 Q5.1 24.65 4.75 25.1 L3.95 26.25 3.35 27.45" fill="#ffff2f" fill-rule="evenodd" stroke="none"/>
      <path d="M3.35 25.9 L2.6 26.0 2.1 25.6 Q1.85 25.25 1.95 24.9 2.05 24.5 2.4 24.35 L3.1 24.25 3.65 24.65 3.75 25.4 3.35 25.9" fill="#ffffcc" fill-rule="evenodd" stroke="none"/>
      <path d="M43.7 24.95 L38.0 26.95 34.95 26.55 35.1 33.3 Q23.9 39.7 21.35 42.35 L20.9 41.9 Q17.9 38.1 14.95 36.15 L14.8 36.05 Q11.95 34.85 9.95 36.7 8.8 33.1 8.75 30.1 L8.65 29.5 8.55 29.5 8.45 29.35 8.2 28.75 8.15 28.65 Q6.3 31.3 3.85 29.65 L3.45 29.35 Q1.1 27.4 2.15 25.65 L2.1 25.6 Q1.85 25.25 1.95 24.9 2.05 24.5 2.4 24.35 L3.1 24.25 3.35 24.35 Q1.0 21.05 1.7 15.9 L1.9 15.0 2.1 15.0 2.0 14.55 2.0 14.45 Q2.0 12.65 4.6 10.9 5.35 10.35 6.45 9.85 10.85 7.6 17.3 6.5 L18.9 6.15 29.25 5.6 31.2 5.7 31.6 5.9 32.35 6.0 Q37.65 6.6 38.8 8.55 41.7 12.0 41.85 15.45 41.85 16.65 40.8 19.2 L40.15 21.0 43.75 23.7 43.7 24.95 M26.85 16.6 Q26.0 17.35 24.55 17.85 L21.9 18.3 21.5 18.35 18.55 18.75 16.9 18.7 15.1 18.95 14.55 18.95 13.95 18.95 10.5 18.75 10.15 18.75 13.65 17.45 Q16.9 16.45 20.95 15.8 L22.9 15.65 23.4 15.65 25.1 15.4 Q29.1 15.1 32.6 15.35 L32.0 15.65 28.1 17.0 26.95 17.3 26.85 16.6" fill="none" stroke="#000000" stroke-linecap="round" stroke-linejoin="round" stroke-opacity="0.3019608" stroke-width="0.5"/>
    </g>
    <linearGradient gradientTransform="matrix(0.0062, 0.0026, -0.0022, 0.0052, 9.2, 23.3)" gradientUnits="userSpaceOnUse" id="gradient0" spreadMethod="pad" x1="-819.2" x2="819.2">
      <stop offset="0.00784313725490196" stop-color="#826840"/>
      <stop offset="1.0" stop-color="#ae8b51"/>
    </linearGradient>
    <linearGradient gradientTransform="matrix(4.0E-4, -0.0015, 0.0076, 0.0021, 36.4, 11.25)" gradientUnits="userSpaceOnUse" id="gradient1" spreadMethod="pad" x1="-819.2" x2="819.2">
      <stop offset="0.00784313725490196" stop-color="#634e30"/>
      <stop offset="1.0" stop-color="#ae8b51"/>
    </linearGradient>
  </defs>
</svg>
