<?xml version="1.0" encoding="UTF-8" standalone="no"?>
<svg xmlns:xlink="http://www.w3.org/1999/xlink" height="440.0px" width="440.0px" xmlns="http://www.w3.org/2000/svg">
  <g transform="matrix(10.0, 0.0, 0.0, 10.0, 0.0, 0.0)">
    <use height="44.0" transform="matrix(1.0, 0.0, 0.0, 1.0, 0.0, 0.0)" width="44.0" xlink:href="#shape0"/>
  </g>
  <defs>
    <g id="shape0" transform="matrix(1.0, 0.0, 0.0, 1.0, 0.0, 0.0)">
      <path d="M44.0 44.0 L0.0 44.0 0.0 0.0 44.0 0.0 44.0 44.0" fill="#43adca" fill-opacity="0.0" fill-rule="evenodd" stroke="none"/>
      <path d="M19.75 33.5 L19.05 36.15 16.4 35.7 16.8 33.9 19.25 31.85 23.1 32.4 23.05 33.55 23.1 32.4 26.0 32.65 29.15 32.8 26.0 33.25 26.25 35.9 23.7 36.15 23.05 33.55 22.2 33.6 19.75 33.5 19.9 32.8 19.75 33.5 M37.25 25.95 L37.5 26.7 37.55 27.05 38.4 29.6 37.45 31.0 36.65 29.65 36.3 29.0 36.35 28.8 36.65 27.85 37.25 25.95 M26.0 33.25 L26.0 32.65 26.0 33.25" fill="#be8910" fill-rule="evenodd" stroke="none"/>
      <path d="M36.65 27.85 L36.35 28.8 36.3 29.0 36.65 29.65 35.85 30.35 34.9 30.9 35.9 32.9 33.75 33.85 32.7 31.85 31.8 32.15 27.1 32.1 Q31.65 29.3 36.65 27.85 M32.4 31.25 L32.7 31.85 32.4 31.25 M34.55 30.0 L34.9 30.9 34.55 30.0" fill="#7a5a10" fill-rule="evenodd" stroke="none"/>
      <path d="M19.25 31.85 Q13.85 30.8 9.35 28.7 L6.8 27.4 8.25 24.0 Q21.35 29.05 36.75 25.05 L37.25 25.95 36.65 27.85 Q31.65 29.3 27.1 32.1 L31.8 32.15 29.85 32.65 29.15 32.8 26.0 32.65 23.1 32.4 19.25 31.85" fill="#59410b" fill-rule="evenodd" stroke="none"/>
      <path d="M11.0 30.1 L10.7 30.8 11.0 30.1 M16.95 33.15 Q15.15 32.8 13.55 32.15 L12.6 33.7 9.85 32.65 10.7 30.8 8.7 29.4 9.35 28.7 8.7 29.4 7.15 31.75 5.45 31.0 6.8 27.4 9.35 28.7 Q13.85 30.8 19.25 31.85 L16.8 33.9 16.95 33.15 16.95 32.5 16.95 33.15" fill="#d19612" fill-rule="evenodd" stroke="none"/>
      <path d="M10.7 30.8 L11.0 30.1 M10.7 30.8 L9.85 32.65 12.6 33.7 13.55 32.15 Q15.15 32.8 16.95 33.15 L16.95 32.5 M16.8 33.9 L16.4 35.7 19.05 36.15 19.75 33.5 19.9 32.8 M16.95 33.15 L16.8 33.9 M9.35 28.7 L8.7 29.4 10.7 30.8 M6.8 27.4 L5.45 31.0 7.15 31.75 8.7 29.4 M36.65 29.65 L37.45 31.0 38.4 29.6 37.55 27.05 37.5 26.7 37.25 25.95 36.75 25.05 Q21.35 29.05 8.25 24.0 L6.8 27.4 M36.35 28.8 L36.3 29.0 36.65 29.65 35.85 30.35 34.9 30.9 35.9 32.9 33.75 33.85 32.7 31.85 31.8 32.15 29.85 32.65 29.15 32.8 26.0 33.25 26.25 35.9 23.7 36.15 23.05 33.55 22.2 33.6 19.75 33.5 M34.9 30.9 L34.55 30.0 M32.7 31.85 L32.4 31.25 M23.05 33.55 L23.1 32.4 M26.0 32.65 L26.0 33.25" fill="none" stroke="#382510" stroke-linecap="round" stroke-linejoin="round" stroke-opacity="0.3019608" stroke-width="0.05"/>
      <path d="M30.45 9.7 L30.45 9.65 30.5 9.7 30.45 9.7" fill="#f1e7bf" fill-rule="evenodd" stroke="none"/>
      <path d="M36.9 26.65 L36.15 27.15 Q36.2 25.25 35.3 23.55 L35.8 23.05 35.85 23.15 Q36.85 24.8 36.9 26.65 M33.7 14.05 L34.5 14.65 35.05 15.35 35.4 15.9 Q35.75 16.55 35.9 17.65 L35.1 18.4 35.2 18.2 35.2 18.15 Q35.0 16.55 34.6 15.8 L33.95 15.2 32.85 15.15 33.1 14.85 33.35 14.6 33.45 14.45 33.7 14.05" fill="#804b47" fill-rule="evenodd" stroke="none"/>
      <path d="M34.65 22.45 L34.35 22.1 34.35 21.85 Q34.45 19.95 35.0 18.7 L35.05 18.5 35.1 18.4 35.9 17.65 35.95 18.1 35.9 18.35 35.8 18.55 Q35.15 20.5 35.1 21.65 L35.1 22.05 35.15 22.15 35.6 22.75 35.8 23.05 35.3 23.55 35.1 23.25 34.7 22.6 34.7 22.55 34.65 22.45" fill="#3c2222" fill-rule="evenodd" stroke="none"/>
      <path d="M30.5 9.7 L33.65 10.4 33.85 10.45 Q34.85 10.8 35.45 11.25 L35.6 11.4 35.75 11.45 35.8 11.6 35.85 11.7 35.95 12.05 35.95 13.15 36.05 13.25 Q36.15 13.85 35.6 14.7 L35.05 15.35 34.5 14.65 Q35.0 13.95 35.0 13.2 35.0 11.6 32.1 10.75 L30.3 10.35 30.25 10.5 29.55 10.35 27.6 10.2 25.65 10.1 25.3 10.1 23.95 10.05 23.3 10.05 17.0 10.2 16.75 10.2 13.75 10.35 12.1 10.55 11.9 10.6 11.15 10.75 9.1 12.25 9.55 14.4 9.65 14.4 9.7 14.45 9.8 14.5 10.8 15.1 11.9 15.75 17.3 17.55 19.2 18.0 21.0 18.25 21.25 18.25 21.95 18.3 23.3 18.3 24.05 18.2 27.45 17.7 27.45 17.75 30.75 16.85 31.9 16.4 33.35 15.65 33.95 15.2 34.6 15.8 34.1 16.15 Q32.5 17.7 30.9 18.35 L30.1 18.65 27.35 19.45 26.85 19.6 26.7 19.6 25.4 19.9 25.15 20.0 16.8 18.35 12.6 18.1 12.55 18.1 11.45 17.6 9.3 16.35 8.35 15.6 8.05 15.4 7.05 14.1 6.8 13.5 6.7 13.45 6.75 12.0 7.05 11.4 Q7.8 10.45 9.5 10.2 L18.55 9.3 Q24.6 9.1 28.1 9.4 L30.35 9.7 30.45 9.7 30.5 9.7 M32.65 28.8 L32.4 28.9 32.0 29.05 28.05 30.25 22.5 31.1 18.05 30.5 16.05 30.0 11.75 28.45 10.0 27.4 9.85 27.3 7.35 25.65 5.9 24.0 Q5.45 21.55 6.8 20.6 6.75 21.6 8.2 23.05 L8.8 23.65 8.65 23.6 8.25 23.65 8.2 23.95 Q8.2 25.15 11.05 26.9 14.1 28.8 17.2 29.0 L17.9 29.0 17.9 28.65 Q23.75 30.3 31.65 29.0 L32.65 28.8" fill="#fdb40b" fill-rule="evenodd" stroke="none"/>
      <path d="M6.8 20.6 L6.85 20.55 7.0 20.4 7.45 19.65 Q11.9 23.4 18.7 21.8 10.05 20.7 7.25 15.85 L6.75 13.5 6.8 13.5 7.05 14.1 8.05 15.4 8.35 15.6 9.3 16.35 11.45 17.6 12.55 18.1 12.6 18.1 16.0 19.05 20.1 20.0 22.35 20.1 25.15 20.0 25.4 19.9 26.7 19.6 26.85 19.6 Q24.65 26.05 14.1 27.15 L14.5 27.35 Q12.55 26.65 10.75 25.25 L9.25 24.05 8.8 23.65 8.2 23.05 Q6.75 21.6 6.8 20.6" fill="#eba501" fill-rule="evenodd" stroke="none"/>
      <path d="M33.7 14.05 L33.75 14.0 Q34.15 13.05 34.0 12.3 L33.85 11.95 32.55 11.35 30.25 10.5 30.3 10.35 32.1 10.75 Q35.0 11.6 35.0 13.2 35.0 13.95 34.5 14.65 L33.7 14.05 M27.45 17.7 L29.4 17.1 30.95 16.5 31.5 16.15 32.35 15.55 32.85 15.15 33.95 15.2 33.35 15.65 31.9 16.4 30.75 16.85 27.45 17.75 27.45 17.7 M25.15 20.0 L22.35 20.1 20.1 20.0 16.0 19.05 12.6 18.1 16.8 18.35 25.15 20.0 M14.5 27.35 L14.65 27.4 17.9 28.65 17.9 29.0 17.2 29.0 Q14.1 28.8 11.05 26.9 8.2 25.15 8.2 23.95 L8.25 23.65 8.65 23.6 8.8 23.65 9.25 24.05 10.75 25.25 Q12.55 26.65 14.5 27.35" fill="#fdd32d" fill-rule="evenodd" stroke="none"/>
      <path d="M35.75 11.45 L35.85 11.6 35.95 11.65 35.85 11.7 35.8 11.6 35.75 11.45 M6.75 13.5 L6.7 13.45 6.8 13.5 6.75 13.5" fill="url(#gradient0)" fill-rule="evenodd" stroke="none"/>
      <path d="M21.95 18.3 L21.25 18.25 21.0 18.25 19.2 18.0 17.3 17.55 11.9 15.75 10.8 15.1 Q10.9 13.25 14.8 12.05 18.6 14.45 21.95 18.3" fill="#6b3602" fill-rule="evenodd" stroke="none"/>
      <path d="M35.95 11.65 L36.15 12.15 36.3 12.45 36.25 14.65 36.15 15.3 Q36.25 18.75 37.3 20.55 38.15 21.85 38.45 23.25 L38.45 23.45 36.65 23.1 35.85 23.15 35.8 23.05 35.6 22.75 35.15 22.15 Q36.1 21.35 36.1 19.9 36.1 18.85 35.8 18.55 L35.9 18.35 35.95 18.1 35.9 17.65 Q35.75 16.55 35.4 15.9 L35.05 15.35 35.6 14.7 Q36.15 13.85 36.05 13.25 L35.95 13.15 35.95 12.05 35.85 11.7 35.95 11.65 M35.05 18.5 L35.05 18.45 34.8 18.45 Q28.95 22.05 25.85 24.35 L25.8 24.45 34.35 22.55 34.65 22.45 34.7 22.55 34.7 22.6 35.1 23.25 31.55 24.0 28.55 24.95 Q28.2 24.95 26.25 25.9 24.05 27.0 24.05 27.65 24.05 29.0 30.75 29.0 L30.8 29.0 31.65 29.0 Q23.75 30.3 17.9 28.65 L14.65 27.4 14.5 27.35 14.1 27.15 Q24.65 26.05 26.85 19.6 L27.35 19.45 30.1 18.65 30.9 18.35 Q32.5 17.7 34.1 16.15 L34.6 15.8 Q35.0 16.55 35.2 18.15 L35.2 18.2 35.1 18.4 35.05 18.5" fill="#ad6302" fill-rule="evenodd" stroke="none"/>
      <path d="M38.45 23.45 L38.45 23.85 Q38.45 25.3 36.9 26.65 36.85 24.8 35.85 23.15 L36.65 23.1 38.45 23.45 M36.15 27.15 L33.8 28.3 32.65 28.8 31.65 29.0 30.8 29.0 30.75 29.0 Q24.05 29.0 24.05 27.65 24.05 27.0 26.25 25.9 28.2 24.95 28.55 24.95 L31.55 24.0 35.1 23.25 35.3 23.55 Q36.2 25.25 36.15 27.15 M7.45 19.65 Q7.75 18.85 7.65 17.7 L7.6 17.45 7.25 16.05 7.25 15.85 Q10.05 20.7 18.7 21.8 11.9 23.4 7.45 19.65" fill="#bf7702" fill-rule="evenodd" stroke="none"/>
      <path d="M34.65 22.45 L34.35 22.55 25.8 24.45 25.85 24.35 Q28.95 22.05 34.8 18.45 L35.05 18.45 35.05 18.5 35.0 18.7 Q34.45 19.95 34.35 21.85 L34.35 22.1 34.65 22.45 M35.8 18.55 Q36.1 18.85 36.1 19.9 36.1 21.35 35.15 22.15 L35.1 22.05 35.1 21.65 Q35.15 20.5 35.8 18.55" fill="#945101" fill-rule="evenodd" stroke="none"/>
      <path d="M30.25 10.5 L32.55 11.35 33.85 11.95 34.0 12.3 Q34.15 13.05 33.75 14.0 L33.7 14.05 33.45 14.45 33.35 14.6 Q28.45 12.95 21.65 14.2 29.7 14.45 31.5 16.15 L30.95 16.5 29.4 17.1 27.45 17.7 24.05 18.2 Q20.6 16.4 18.85 14.3 22.55 12.75 29.95 12.5 23.65 11.7 17.7 12.55 15.5 12.05 15.95 11.15 19.0 10.1 23.3 10.05 L23.95 10.05 25.3 10.1 25.65 10.1 27.6 10.2 29.55 10.35 30.25 10.5" fill="#8d4803" fill-rule="evenodd" stroke="none"/>
      <path d="M23.3 10.05 Q19.0 10.1 15.95 11.15 15.5 12.05 17.7 12.55 23.65 11.7 29.95 12.5 22.55 12.75 18.85 14.3 20.6 16.4 24.05 18.2 L23.3 18.3 21.95 18.3 Q18.6 14.45 14.8 12.05 10.9 13.25 10.8 15.1 L9.8 14.5 9.7 14.45 9.65 14.4 9.55 14.4 9.1 12.25 11.15 10.75 11.9 10.6 12.1 10.55 13.75 10.35 16.75 10.2 17.0 10.2 23.3 10.05" fill="#4f2601" fill-rule="evenodd" stroke="none"/>
      <path d="M31.5 16.15 Q29.7 14.45 21.65 14.2 28.45 12.95 33.35 14.6 L33.1 14.85 32.85 15.15 32.35 15.55 31.5 16.15" fill="#a35303" fill-rule="evenodd" stroke="none"/>
      <path d="M30.45 9.7 L30.45 9.65 30.5 9.7 33.65 10.4 33.85 10.45 Q34.85 10.8 35.45 11.25 L35.6 11.4 35.75 11.45 35.85 11.6 35.95 11.65 36.15 12.15 36.3 12.45 36.25 14.65 36.15 15.3 Q36.25 18.75 37.3 20.55 38.15 21.85 38.45 23.25 L38.45 23.45 38.45 23.85 Q38.45 25.3 36.9 26.65 L36.15 27.15 33.8 28.3 32.65 28.8 32.4 28.9 32.0 29.05 28.05 30.25 22.5 31.1 18.05 30.5 16.05 30.0 11.75 28.45 10.0 27.4 M9.85 27.3 L7.35 25.65 5.9 24.0 Q5.45 21.55 6.8 20.6 L6.85 20.55 7.0 20.4 7.45 19.65 Q7.75 18.85 7.65 17.7 L7.6 17.45 7.25 16.05 7.25 15.85 6.75 13.5 6.7 13.45 6.75 12.0 7.05 11.4 Q7.8 10.45 9.5 10.2 L18.55 9.3 Q24.6 9.1 28.1 9.4 L30.35 9.7 30.45 9.7 Z" fill="none" stroke="#382510" stroke-linecap="round" stroke-linejoin="round" stroke-opacity="0.4" stroke-width="0.05"/>
      <path d="M19.15 25.3 L19.8 24.65 20.6 24.75 20.95 25.4 20.2 26.7 Q19.85 26.85 19.45 27.05 L18.9 26.3 19.15 25.3 M16.8 24.4 Q17.25 25.1 17.1 25.75 L16.35 26.25 15.45 25.4 15.45 24.4 16.2 23.8 16.8 24.4 M14.2 24.3 L13.4 25.1 13.9 26.2 13.95 26.25 Q15.2 25.5 15.1 27.15 14.6 27.95 14.85 28.8 15.05 29.65 16.35 28.5 17.3 28.35 18.1 29.15 L18.1 29.9 Q18.75 30.85 19.45 29.8 L19.5 29.15 Q20.15 28.45 21.1 28.9 L21.45 29.6 Q22.65 29.8 22.6 29.25 L22.35 28.7 22.45 28.1 Q22.7 27.7 21.95 27.15 22.2 26.3 22.95 25.85 L23.35 25.8 24.0 24.45 21.7 21.75 Q19.65 20.75 18.1 20.7 L15.9 21.35 14.6 22.75 14.2 24.3" fill="#574a22" fill-opacity="0.8" fill-rule="evenodd" stroke="none"/>
      <path d="M36.8 25.0 L34.95 26.25 34.65 26.2 Q34.2 26.0 34.3 25.6 L34.4 25.35 34.95 25.0 Q35.05 25.75 36.8 25.0" fill="#6b622c" fill-rule="evenodd" stroke="none"/>
      <path d="M34.95 25.0 L36.6 23.65 Q37.25 23.65 37.4 24.0 L36.8 25.0 Q35.05 25.75 34.95 25.0" fill="#ac9c46" fill-rule="evenodd" stroke="none"/>
      <path d="M34.65 26.2 L33.35 27.1 Q34.15 26.3 33.4 26.0 L33.45 25.85 34.3 25.6 Q34.2 26.0 34.65 26.2" fill="#000000" fill-opacity="0.2" fill-rule="evenodd" stroke="none"/>
      <path d="M37.4 24.0 L38.3 23.05 M34.95 25.0 L36.6 23.65 Q37.25 23.65 37.4 24.0 L36.8 25.0 34.95 26.25 34.65 26.2 33.35 27.1 33.05 27.25 M34.95 25.0 L34.4 25.35 34.3 25.6 Q34.2 26.0 34.65 26.2 M34.3 25.6 L33.45 25.85" fill="none" stroke="#000000" stroke-linecap="round" stroke-linejoin="round" stroke-opacity="0.2" stroke-width="0.25"/>
      <path d="M28.65 16.7 L30.8 15.95 31.6 16.3 29.05 17.0 28.65 16.7 M31.8 16.5 L32.45 18.5 31.7 21.2 30.4 20.85 30.4 20.8 29.7 18.0 Q30.6 17.0 31.8 16.5" fill="#e4daa6" fill-rule="evenodd" stroke="none"/>
      <path d="M31.6 16.3 L31.8 16.5 Q30.6 17.0 29.7 18.0 L29.05 17.0 31.6 16.3" fill="#f7f3dd" fill-rule="evenodd" stroke="none"/>
      <path d="M30.05 22.75 L30.4 22.65 29.35 17.75 29.0 17.3 28.8 17.15 28.65 16.7 29.05 17.0 29.7 18.0 30.4 20.8 30.4 20.85 30.7 23.1 30.05 22.75" fill="#716044" fill-rule="evenodd" stroke="none"/>
      <path d="M30.05 22.75 L28.8 17.15 29.0 17.3 29.35 17.75 30.4 22.65 30.05 22.75" fill="#000000" fill-opacity="0.3019608" fill-rule="evenodd" stroke="none"/>
      <path d="M32.45 18.5 L32.9 22.0 Q32.2 22.65 30.9 23.05 L30.7 23.1 30.4 20.85 31.7 21.2 32.45 18.5" fill="#b89f65" fill-rule="evenodd" stroke="none"/>
      <path d="M30.05 22.75 L30.4 22.65 29.35 17.75 29.0 17.3 28.8 17.15 28.65 16.7 30.8 15.95 31.6 16.3 31.8 16.5 32.45 18.5 32.9 22.0 Q32.2 22.65 30.9 23.05 L30.7 23.1 30.05 22.75 Z" fill="none" stroke="#382510" stroke-linecap="round" stroke-linejoin="round" stroke-opacity="0.3019608" stroke-width="0.25"/>
      <path d="M9.0 14.85 L9.5 14.45 10.9 15.0 10.65 15.3 9.0 14.85 M8.5 17.05 Q8.65 16.05 8.95 15.1 9.65 15.45 10.25 16.3 L9.85 19.1 9.85 19.15 9.0 19.5 8.5 17.05" fill="#e4daa6" fill-rule="evenodd" stroke="none"/>
      <path d="M8.95 15.1 L9.0 14.85 10.65 15.3 10.25 16.3 Q9.65 15.45 8.95 15.1" fill="#f7f3dd" fill-rule="evenodd" stroke="none"/>
      <path d="M10.9 15.0 L10.8 15.45 10.65 15.55 10.5 16.05 9.85 20.8 10.1 20.9 9.7 21.25 Q9.7 20.25 9.85 19.15 L9.85 19.1 10.25 16.3 10.65 15.3 10.9 15.0" fill="#716044" fill-rule="evenodd" stroke="none"/>
      <path d="M10.8 15.45 L10.1 20.9 9.85 20.8 10.5 16.05 10.65 15.55 10.8 15.45" fill="#000000" fill-opacity="0.3019608" fill-rule="evenodd" stroke="none"/>
      <path d="M9.7 21.25 L9.55 21.25 Q8.7 20.95 8.25 20.4 L8.5 17.05 9.0 19.5 9.85 19.15 Q9.7 20.25 9.7 21.25" fill="#b89f65" fill-rule="evenodd" stroke="none"/>
      <path d="M9.0 14.85 L9.5 14.45 10.9 15.0 10.8 15.45 M10.1 20.9 L9.7 21.25 9.55 21.25 Q8.7 20.95 8.25 20.4 L8.5 17.05 Q8.65 16.05 8.95 15.1 L9.0 14.85 M10.1 20.9 L9.85 20.8 10.5 16.05 10.65 15.55 10.8 15.45" fill="none" stroke="#382510" stroke-linecap="round" stroke-linejoin="round" stroke-opacity="0.3019608" stroke-width="0.25"/>
      <path d="M30.5 9.7 L30.45 9.65 30.45 9.7 30.35 9.7 28.1 9.4 Q24.6 9.1 18.55 9.3 L9.5 10.2 Q7.8 10.45 7.05 11.4 L6.75 12.0 6.7 13.45 6.75 13.5 7.25 15.85 7.25 16.05 7.6 17.45 7.65 17.7 Q7.75 18.85 7.45 19.65 L7.0 20.4 6.85 20.55 6.8 20.6 Q5.45 21.55 5.9 24.0 L7.35 25.65 7.5 25.75 5.45 31.0 7.15 31.75 8.7 29.4 10.7 30.8 9.85 32.65 12.6 33.7 13.55 32.15 Q15.15 32.8 16.95 33.15 L16.8 33.9 16.4 35.7 19.05 36.15 19.75 33.5 22.2 33.6 23.05 33.55 23.7 36.15 26.25 35.9 26.0 33.25 29.15 32.8 29.85 32.65 31.8 32.15 32.7 31.85 33.75 33.85 35.9 32.9 34.9 30.9 35.85 30.35 36.65 29.65 37.45 31.0 38.4 29.6 37.55 27.05 37.5 26.7 37.4 26.2 Q38.45 25.05 38.45 23.85 L38.45 23.45 38.45 23.25 38.4 23.05 Q38.1 21.75 37.3 20.55 36.25 18.75 36.15 15.3 L36.25 14.65 36.3 12.45 36.15 12.15 35.95 11.65 35.85 11.6 35.75 11.45 35.6 11.4 35.45 11.25 Q34.85 10.8 33.85 10.45 L33.65 10.4 30.5 9.7 Z" fill="none" stroke="#000000" stroke-linecap="round" stroke-linejoin="round" stroke-opacity="0.3019608" stroke-width="0.5"/>
    </g>
    <linearGradient gradientTransform="matrix(0.0134, -2.0E-4, 3.0E-4, 0.0118, 24.65, 21.3)" gradientUnits="userSpaceOnUse" id="gradient0" spreadMethod="pad" x1="-819.2" x2="819.2">
      <stop offset="0.0" stop-color="#383f22"/>
      <stop offset="0.8823529411764706" stop-color="#3c3c00"/>
    </linearGradient>
  </defs>
</svg>
