<?xml version="1.0" encoding="UTF-8" standalone="no"?>
<svg xmlns:xlink="http://www.w3.org/1999/xlink" height="440.0px" width="440.0px" xmlns="http://www.w3.org/2000/svg">
  <g transform="matrix(10.0, 0.0, 0.0, 10.0, 0.0, 0.0)">
    <use height="44.0" transform="matrix(1.0, 0.0, 0.0, 1.0, 0.0, 0.0)" width="44.0" xlink:href="#shape0"/>
  </g>
  <defs>
    <g id="shape0" transform="matrix(1.0, 0.0, 0.0, 1.0, 0.0, 0.0)">
      <path d="M44.0 44.0 L0.0 44.0 0.0 0.0 44.0 0.0 44.0 44.0" fill="#33cc33" fill-opacity="0.0" fill-rule="evenodd" stroke="none"/>
      <path d="M34.85 12.05 L35.3 12.75 35.4 12.9 35.9 13.65 35.95 13.7 36.9 15.25 37.3 16.05 36.25 16.95 35.95 16.75 35.9 15.1 35.55 13.75 35.2 12.85 35.05 12.5 34.85 12.05 M22.35 11.75 L22.45 11.65 23.9 10.4 24.7 9.55 24.4 9.95 24.2 10.15 24.15 10.25 23.15 11.65 22.35 11.75 M28.05 11.4 L28.8 10.85 29.6 9.95 29.05 10.7 28.55 11.45 28.05 11.4 M24.95 28.2 L24.5 27.0 23.6 25.7 23.1 25.1 23.0 24.95 22.45 24.3 23.4 25.25 23.8 25.55 25.25 26.8 25.3 26.85 25.7 27.4 26.9 28.7 26.85 28.8 24.95 28.2 M27.45 22.35 L28.55 23.05 28.8 23.15 29.45 23.45 30.75 24.15 31.25 24.55 31.3 24.6 32.75 25.45 32.75 25.55 30.7 25.45 30.4 24.95 29.25 23.7 28.65 23.2 28.55 23.15 28.25 22.95 27.45 22.35 M32.05 19.65 L32.5 19.9 32.75 20.0 Q33.85 20.25 34.35 20.65 L34.45 20.7 34.85 21.05 35.95 21.75 35.95 21.85 34.3 22.3 34.3 22.25 Q33.95 21.25 33.15 20.5 L32.5 20.0 32.45 19.95 32.45 19.9 32.05 19.65 M13.6 12.25 L13.5 12.35 Q12.3 13.55 11.75 14.75 L10.45 15.35 10.3 15.15 10.85 14.6 11.3 14.0 Q11.9 13.35 13.2 12.5 L14.1 11.7 13.85 11.95 13.6 12.2 13.6 12.25 M18.65 10.75 L17.65 12.7 16.9 12.9 17.0 12.75 18.45 10.9 19.05 10.1 18.65 10.75 M9.25 14.75 L8.7 15.2 Q6.8 16.4 6.0 17.85 L3.85 18.0 3.8 17.85 5.35 16.85 6.0 16.4 Q6.75 15.85 8.35 15.25 L9.25 14.75 M5.4 20.7 L5.8 21.3 5.85 21.4 7.45 23.9 7.85 24.7 8.85 26.55 8.8 26.7 6.5 25.4 6.5 25.25 6.45 23.9 6.4 23.5 5.8 21.55 5.6 21.15 5.4 20.7 M1.55 23.7 L1.5 23.5 3.05 22.35 3.35 22.05 Q3.05 22.85 3.0 23.7 L1.55 23.7 M10.8 23.15 L11.5 24.35 11.75 24.65 12.75 26.1 12.95 26.5 13.1 26.8 13.45 27.5 14.4 29.3 14.4 29.4 12.7 28.05 12.65 27.6 12.35 26.6 11.8 25.2 11.65 24.8 11.25 24.1 11.2 23.95 10.8 23.15 M18.65 28.8 L18.55 28.3 18.1 27.0 18.05 26.8 17.3 25.15 16.85 24.2 17.5 25.4 18.45 26.75 18.5 26.85 18.9 27.55 19.25 28.2 20.1 29.85 20.1 29.95 18.65 28.8 M13.25 31.7 L13.8 31.25 14.15 31.95 15.1 33.8 15.1 33.9 13.45 32.65 13.25 31.7 M18.7 34.6 L18.3 33.05 18.25 32.85 18.3 32.8 18.75 32.65 19.0 33.15 19.05 33.2 19.4 33.9 20.35 35.75 20.35 35.85 18.7 34.6 M6.7 30.4 L6.75 30.0 7.9 29.35 8.05 29.7 9.05 31.55 9.0 31.7 6.7 30.4 M36.7 27.95 L36.65 28.1 34.6 27.95 34.5 27.95 34.05 27.25 33.9 27.1 33.8 26.95 33.1 26.25 33.25 25.8 34.05 26.2 34.3 26.35 34.5 26.5 34.55 26.55 35.15 26.95 35.2 27.0 36.7 27.95 M31.2 32.5 L31.2 32.6 29.05 32.25 Q28.65 31.15 27.7 30.15 L27.1 29.55 27.15 29.45 28.5 30.25 29.3 30.85 29.85 31.35 31.2 32.5 M24.6 32.4 L25.05 32.95 25.1 33.05 26.35 34.65 26.35 34.75 24.3 33.85 24.05 33.05 23.9 32.7 24.6 32.4" fill="#a16f33" fill-rule="evenodd" stroke="none"/>
      <path d="M34.95 12.3 L34.9 12.25 34.6 11.6 34.5 11.4 34.5 11.35 34.6 11.6 34.8 11.95 34.95 12.3 M24.7 9.55 L24.7 9.6 24.4 9.95 24.7 9.55 M29.6 9.95 L29.65 10.0 29.25 10.6 29.2 10.6 29.6 9.95 M23.0 24.95 L22.95 24.95 22.4 24.35 22.45 24.3 23.0 24.95 M28.05 22.85 L27.45 22.45 27.45 22.35 28.05 22.85 M32.45 19.9 L32.4 19.9 31.9 19.55 31.9 19.5 32.0 19.6 32.05 19.65 32.45 19.9 M13.85 11.95 L13.65 12.2 13.6 12.2 13.85 11.95 M19.05 10.1 L19.15 9.9 19.15 9.95 18.8 10.55 18.75 10.6 19.05 10.1 M8.85 15.05 L9.55 14.55 9.55 14.6 8.9 15.05 8.85 15.05 M5.5 20.95 L5.45 20.9 5.15 20.25 5.05 20.05 5.05 20.0 5.15 20.25 5.35 20.6 5.5 20.95 M5.0 29.9 L5.8 30.05 5.05 30.0 5.0 29.9 M11.2 23.95 L11.15 23.9 10.75 23.1 10.75 23.05 10.8 23.15 11.2 23.95 M17.2 25.0 L17.15 24.95 16.85 24.25 16.85 24.2 17.2 25.0 M16.8 32.75 L17.35 32.85 17.5 32.9 17.35 32.9 16.8 32.85 16.8 32.75 M10.25 31.75 L11.1 32.05 10.3 31.85 10.25 31.75 M22.8 32.9 L22.75 32.85 22.8 32.85 23.7 32.7 22.85 32.9 22.8 32.9 M5.2 34.9 L6.0 35.05 5.25 35.0 5.2 34.9 M16.55 39.1 L17.35 39.3 16.6 39.2 16.55 39.1 M12.1 37.35 L11.35 37.25 11.3 37.15 12.1 37.35 M34.0 32.9 L33.15 33.35 33.05 33.3 34.0 32.9 M27.65 37.0 L26.7 37.3 26.65 37.25 27.65 37.0 M22.95 38.55 L22.05 38.6 22.0 38.55 22.95 38.55 M29.3 30.3 L29.25 30.25 29.95 30.0 29.3 30.3" fill="#523919" fill-rule="evenodd" stroke="none"/>
      <path d="M34.8 11.95 L34.85 12.05 35.05 12.5 34.95 12.3 34.8 11.95 M29.2 10.6 L29.05 10.7 29.6 9.95 29.2 10.6 M28.25 22.95 L28.1 22.9 28.05 22.85 27.45 22.35 28.25 22.95 M14.1 11.7 L14.15 11.6 14.15 11.65 13.65 12.2 13.85 11.95 14.1 11.7 M18.75 10.6 L18.65 10.75 19.05 10.1 18.75 10.6 M8.85 15.05 L8.7 15.2 9.25 14.75 9.55 14.55 8.85 15.05 M5.35 20.6 L5.4 20.7 5.6 21.15 5.5 20.95 5.35 20.6 M17.3 25.15 L17.2 25.0 16.85 24.2 17.3 25.15" fill="#664820" fill-rule="evenodd" stroke="none"/>
      <path d="M35.7 21.05 L36.35 21.8 36.35 21.9 35.95 21.75 34.85 21.05 34.45 20.7 34.35 20.65 Q33.85 20.25 32.75 20.0 L32.5 19.9 32.05 19.65 32.0 19.6 31.9 19.5 31.9 19.55 32.4 19.9 32.45 19.9 32.45 19.95 32.5 20.0 33.15 20.5 Q33.95 21.25 34.3 22.25 L34.3 22.3 34.3 22.35 33.35 23.05 33.1 22.5 33.0 22.3 31.7 19.4 32.4 19.4 32.8 19.45 Q33.8 19.65 34.75 20.25 L35.7 21.05 M34.8 11.95 L34.6 11.6 34.5 11.35 34.5 11.4 34.6 11.6 34.9 12.25 34.95 12.3 35.05 12.5 35.2 12.85 35.55 13.75 35.9 15.1 35.95 16.75 35.45 16.6 35.15 15.35 35.1 15.1 Q34.8 13.8 33.75 12.95 L33.9 12.35 34.3 11.05 34.95 11.8 Q36.45 13.55 37.55 15.85 L37.3 16.05 36.9 15.25 35.95 13.7 35.9 13.65 35.4 12.9 35.3 12.75 34.85 12.05 34.8 11.95 M21.8 11.8 L22.1 11.5 24.2 9.75 24.95 9.35 24.25 11.55 23.15 11.65 24.15 10.25 24.2 10.15 24.4 9.95 24.7 9.6 24.7 9.55 23.9 10.4 22.45 11.65 22.35 11.75 21.8 11.8 M19.35 9.65 L18.6 12.45 17.65 12.7 18.65 10.75 18.75 10.6 18.8 10.55 19.15 9.95 19.15 9.9 19.05 10.1 18.45 10.9 17.0 12.75 16.9 12.9 16.5 13.05 Q17.5 11.4 18.75 10.15 L19.35 9.65 M27.4 11.4 L27.65 11.2 29.1 10.15 29.8 9.8 29.45 11.5 28.9 11.45 28.55 11.45 29.05 10.7 29.2 10.6 29.25 10.6 29.65 10.0 29.6 9.95 28.8 10.85 28.05 11.4 27.4 11.4 M22.2 24.1 L22.95 24.5 24.15 25.35 25.7 26.8 Q26.6 27.75 27.3 29.0 L27.3 29.05 26.9 28.7 25.7 27.4 25.3 26.85 25.25 26.8 23.8 25.55 23.4 25.25 22.45 24.3 22.4 24.35 22.95 24.95 23.0 24.95 23.1 25.1 23.6 25.7 24.5 27.0 24.95 28.2 24.95 28.25 23.85 28.3 23.6 27.7 23.5 27.45 22.95 26.05 22.2 24.1 M27.15 22.25 L28.0 22.45 29.4 23.0 29.7 23.1 31.65 24.3 32.7 25.15 33.3 25.7 33.25 25.75 33.3 25.7 32.7 25.15 33.0 25.25 34.15 25.85 Q34.3 25.9 34.45 26.05 L34.75 26.2 35.1 26.45 37.15 28.15 37.2 28.2 37.2 28.25 36.7 27.95 35.2 27.0 35.15 26.95 34.55 26.55 34.5 26.5 34.3 26.35 34.05 26.2 33.25 25.8 33.25 25.75 32.75 25.45 31.3 24.6 31.25 24.55 30.75 24.15 29.45 23.45 28.8 23.15 28.55 23.05 27.45 22.35 27.45 22.45 28.05 22.85 28.1 22.9 28.25 22.95 28.55 23.15 28.65 23.2 29.25 23.7 30.4 24.95 30.7 25.45 30.65 25.5 29.55 25.9 29.2 25.35 29.05 25.1 27.15 22.25 M13.6 12.25 L13.65 12.2 14.15 11.65 14.15 11.6 14.1 11.7 13.2 12.5 Q11.9 13.35 11.3 14.0 L10.85 14.6 10.3 15.15 10.15 14.85 Q11.65 13.0 13.65 11.8 L14.4 11.4 13.15 14.15 11.75 14.75 Q12.3 13.55 13.5 12.35 L13.6 12.25 M8.7 15.2 L8.85 15.05 8.9 15.05 9.55 14.6 9.55 14.55 9.25 14.75 8.35 15.25 Q6.75 15.85 6.0 16.4 L5.35 16.85 3.8 17.85 3.3 18.15 3.3 18.1 Q5.8 15.6 8.95 14.6 L9.85 14.4 8.55 16.35 6.45 18.05 6.0 17.9 6.0 17.85 Q6.8 16.4 8.7 15.2 M5.35 20.6 L5.15 20.25 5.05 20.0 5.05 20.05 5.15 20.25 5.45 20.9 5.5 20.95 5.6 21.15 5.8 21.55 6.4 23.5 6.45 23.9 6.5 25.25 6.5 25.4 5.05 24.8 4.95 24.75 4.0 24.4 4.0 23.9 4.1 22.9 4.4 21.25 4.6 20.5 4.7 20.25 4.85 19.7 5.15 20.05 5.5 20.45 5.85 20.85 7.8 23.9 9.0 26.6 9.2 27.15 9.2 27.2 8.85 26.55 7.85 24.7 7.45 23.9 5.85 21.4 5.8 21.3 5.4 20.7 5.35 20.6 M1.5 23.5 L1.0 23.85 1.0 23.8 Q2.35 22.1 3.9 21.0 L3.35 22.05 3.05 22.35 1.5 23.5 M4.25 28.6 L4.85 29.65 4.2 29.4 4.25 28.6 M10.8 23.15 L10.75 23.05 10.75 23.1 11.15 23.9 11.2 23.95 11.25 24.1 11.65 24.8 11.8 25.2 12.35 26.6 12.65 27.6 12.7 28.05 12.7 28.1 11.7 27.7 11.55 27.0 11.4 26.65 10.55 22.75 11.2 23.45 11.95 24.4 12.85 25.75 13.5 26.9 14.8 29.85 14.75 29.9 14.4 29.3 13.45 27.5 13.1 26.8 12.95 26.5 12.75 26.1 11.75 24.65 11.5 24.35 10.8 23.15 M16.65 23.9 L17.25 24.5 18.75 26.7 18.75 26.75 19.65 28.4 20.45 30.35 20.4 30.4 20.1 29.85 19.25 28.2 18.9 27.55 18.5 26.85 18.45 26.75 17.5 25.4 16.85 24.2 16.85 24.25 17.15 24.95 17.2 25.0 17.3 25.15 18.05 26.8 18.1 27.0 18.55 28.3 18.65 28.8 18.65 28.85 17.8 28.65 17.65 27.9 17.55 27.6 16.65 23.9 M17.35 32.9 L17.5 32.9 18.25 32.85 18.3 33.05 18.7 34.6 18.65 34.65 17.7 34.35 17.55 33.55 17.4 33.2 17.35 32.9 M13.25 31.7 L13.45 32.65 13.4 32.7 12.45 32.4 12.4 32.05 13.25 31.7 M15.1 33.8 L14.15 31.95 13.8 31.25 14.05 31.0 15.15 33.45 15.5 34.35 15.45 34.45 15.1 33.8 M9.0 31.15 L9.4 32.15 9.4 32.2 9.05 31.55 8.05 29.7 7.9 29.35 8.1 29.1 8.7 30.35 9.0 31.15 M19.0 32.45 L19.45 33.3 20.75 36.3 20.7 36.4 20.35 35.75 19.4 33.9 19.05 33.2 19.0 33.15 18.75 32.65 19.0 32.45 M23.1 33.8 L22.95 33.15 22.9 33.05 22.8 32.9 22.85 32.9 23.7 32.7 23.9 32.7 24.05 33.05 24.3 33.85 24.25 33.9 23.1 33.8 M6.7 30.4 L6.6 30.35 5.9 30.1 6.75 30.0 6.7 30.4 M33.1 26.25 L33.8 26.95 33.9 27.1 34.05 27.25 34.5 27.95 34.5 28.0 33.35 28.4 33.15 28.15 33.15 28.1 32.95 27.85 32.75 27.6 32.7 27.55 32.6 27.45 33.1 26.25 M31.2 32.5 L29.85 31.35 29.3 30.85 28.5 30.25 27.15 29.45 27.3 29.05 Q28.15 29.45 28.95 30.0 L29.25 30.25 29.3 30.3 31.75 32.75 31.7 32.85 31.2 32.5 M27.1 29.55 L27.7 30.15 Q28.65 31.15 29.05 32.25 L29.0 32.3 27.75 32.55 27.5 31.9 27.35 31.7 26.7 30.3 27.1 29.55 M24.6 32.4 L24.7 32.3 24.9 32.2 25.45 32.9 26.8 35.1 26.75 35.2 26.35 34.65 25.1 33.05 25.05 32.95 24.6 32.4" fill="#61441f" fill-rule="evenodd" stroke="none"/>
      <path d="M32.45 19.9 L32.45 19.95 32.45 19.9 M13.65 12.2 L13.6 12.25 13.6 12.2 13.65 12.2" fill="#523a1a" fill-rule="evenodd" stroke="none"/>
      <path d="M36.35 21.9 L36.1 22.9 Q35.65 24.6 35.0 25.8 L34.75 26.2 34.45 26.05 34.85 25.15 35.9 22.05 35.95 21.85 35.95 21.75 36.35 21.9 M26.9 28.7 L27.3 29.05 27.15 29.45 27.1 29.55 26.7 30.3 Q25.95 31.6 24.9 32.2 L24.7 32.3 24.6 32.4 23.9 32.7 23.7 32.7 23.85 32.6 24.4 32.15 24.7 31.9 26.4 29.7 26.65 29.2 26.7 29.2 26.7 29.15 26.85 28.85 26.85 28.8 26.9 28.7 M32.75 25.45 L33.25 25.75 33.25 25.8 33.1 26.25 32.6 27.45 31.55 28.95 31.0 29.4 29.95 30.0 30.8 29.1 32.25 26.85 32.65 25.9 32.75 25.6 32.75 25.55 32.75 25.45 M3.3 18.15 L3.8 17.85 3.85 18.0 4.6 20.05 4.15 20.6 Q3.6 19.55 3.3 18.15 M8.85 26.55 L9.2 27.2 8.1 29.1 7.9 29.35 6.75 30.0 5.9 30.1 5.8 30.05 6.75 29.6 7.65 28.85 7.85 28.6 8.8 26.7 8.85 26.55 M1.5 23.5 L1.55 23.7 Q2.1 26.3 3.2 28.4 L3.15 29.05 3.15 29.15 Q1.65 27.45 1.0 23.85 L1.5 23.5 M14.4 29.3 L14.75 29.9 14.35 30.6 14.05 31.0 13.8 31.25 13.25 31.7 12.4 32.05 12.1 32.05 11.4 32.1 11.1 32.05 11.2 32.05 12.3 31.55 13.05 31.05 13.45 30.65 13.7 30.4 13.9 30.15 14.4 29.4 14.4 29.3 M20.1 29.85 L20.4 30.4 19.75 31.7 19.0 32.45 18.75 32.65 18.3 32.8 18.25 32.85 17.5 32.9 18.15 32.55 18.5 32.25 18.75 32.0 19.2 31.5 20.1 29.95 20.1 29.85 M15.1 33.9 L15.1 33.8 15.45 34.45 Q14.8 36.1 13.95 36.8 L13.05 37.25 12.1 37.35 13.45 36.4 Q14.45 35.45 15.1 33.9 M9.4 32.2 L8.1 34.35 6.95 35.0 6.0 35.05 7.7 34.0 Q8.6 33.1 9.0 31.7 L9.05 31.55 9.4 32.2 M20.35 35.85 L20.35 35.75 20.7 36.4 20.2 37.55 Q19.35 38.95 18.3 39.2 L17.35 39.3 Q18.65 38.65 19.6 37.25 L20.35 35.85 M36.7 27.95 L37.2 28.25 Q36.65 31.0 35.05 32.25 L34.0 32.9 Q35.6 31.3 36.35 29.1 L36.65 28.1 36.7 27.95 M31.6 33.15 Q30.55 35.5 28.85 36.45 L27.65 37.0 Q29.8 35.45 31.0 33.1 L31.2 32.6 31.2 32.5 31.7 32.85 31.6 33.15 M25.75 37.05 Q25.0 37.95 24.05 38.3 L22.95 38.55 25.0 36.9 26.35 34.75 26.35 34.65 26.75 35.2 25.75 37.05" fill="#745425" fill-rule="evenodd" stroke="none"/>
      <path d="M34.3 11.05 L33.9 12.35 33.75 12.95 33.2 12.55 33.45 12.15 34.3 11.05 M29.8 9.8 Q31.35 11.25 33.45 12.15 L33.2 12.55 Q31.8 11.7 29.45 11.5 L29.8 9.8 M22.1 11.5 L21.8 11.8 18.6 12.45 19.35 9.65 Q20.45 10.95 22.1 11.5 M24.25 11.55 L24.95 9.35 Q26.05 10.5 27.65 11.2 L27.4 11.4 24.25 11.55 M31.35 20.25 L31.7 19.4 33.0 22.3 33.1 22.5 33.35 23.05 33.3 23.15 31.65 24.3 29.7 23.1 29.9 22.8 31.35 20.25 M22.2 24.1 L22.95 26.05 23.5 27.45 23.6 27.7 23.85 28.3 23.85 28.4 23.0 28.45 19.65 28.4 18.75 26.75 18.85 26.7 Q20.9 25.75 22.2 24.1 M25.7 26.8 L24.15 25.35 Q26.05 24.0 27.15 22.25 L29.05 25.1 29.2 25.35 29.55 25.9 29.55 25.95 27.65 26.4 25.7 26.8 M13.15 14.15 L14.4 11.4 16.4 13.05 13.15 14.15 M10.15 14.85 L10.3 15.15 10.45 15.35 9.9 15.55 8.55 16.35 9.85 14.4 10.15 14.85 M3.9 21.0 L4.15 20.6 4.6 20.05 4.85 19.7 4.7 20.25 4.6 20.5 4.4 21.25 4.1 22.9 4.0 23.9 4.0 24.4 4.0 24.45 3.6 24.3 2.95 24.05 3.0 23.7 Q3.05 22.85 3.35 22.05 L3.9 21.0 M9.0 26.6 L7.8 23.9 Q9.4 23.7 10.55 22.75 L11.4 26.65 11.55 27.0 11.7 27.7 11.65 27.75 11.6 27.75 11.5 27.7 11.3 27.6 10.75 27.4 10.7 27.35 9.0 26.6 M3.15 29.05 L3.2 28.4 3.5 27.25 3.55 27.1 4.25 28.6 4.2 29.4 4.2 29.45 4.05 29.4 3.75 29.3 3.15 29.05 M13.5 26.9 L12.85 25.75 12.9 25.55 Q15.25 25.5 16.65 23.9 L17.55 27.6 17.65 27.9 17.8 28.65 17.8 28.7 17.3 28.55 15.3 27.75 Q14.2 27.3 13.5 26.9 M14.35 30.6 L16.8 32.75 16.8 32.85 17.35 32.9 17.4 33.2 17.55 33.55 17.7 34.35 17.7 34.4 16.45 33.95 15.15 33.45 14.05 31.0 14.35 30.6 M11.4 32.1 L12.1 32.05 12.4 32.05 12.45 32.4 12.45 32.45 11.85 32.25 11.5 32.15 11.4 32.1 M10.1 31.6 L9.0 31.15 8.7 30.35 10.1 31.6 M19.0 32.45 L19.75 31.7 22.75 32.85 22.8 32.9 22.9 33.05 22.95 33.15 23.1 33.8 23.1 33.85 20.25 33.45 19.8 33.35 19.45 33.3 19.0 32.45 M31.55 28.95 L32.6 27.45 32.7 27.55 32.75 27.6 32.95 27.85 33.15 28.1 33.15 28.15 33.35 28.4 33.35 28.45 31.55 28.95 M27.75 32.55 L27.75 32.6 27.35 32.65 25.45 32.9 24.9 32.2 Q25.95 31.6 26.7 30.3 L27.35 31.7 27.5 31.9 27.75 32.55" fill="#422d13" fill-rule="evenodd" stroke="none"/>
      <path d="M24.95 28.25 L24.95 28.2 26.85 28.8 26.85 28.85 26.7 29.15 26.7 29.2 26.65 29.2 26.4 29.7 24.7 31.9 24.4 32.15 23.85 32.6 23.7 32.7 23.85 32.55 24.25 31.95 24.45 31.65 Q25.05 30.45 25.05 29.25 L24.95 28.25 M35.95 16.75 L36.25 16.95 36.05 17.15 35.95 16.75 M34.3 22.3 L35.95 21.85 35.9 22.05 34.85 25.15 34.45 26.05 Q34.3 25.9 34.15 25.85 L34.15 25.75 Q34.6 24.0 34.35 22.65 L34.3 22.35 34.3 22.3 M6.0 17.85 L6.0 17.9 5.7 19.0 Q5.3 19.5 5.15 20.05 L4.85 19.7 4.6 20.05 3.85 18.0 6.0 17.85 M3.2 28.4 Q2.1 26.3 1.55 23.7 L3.0 23.7 2.95 24.05 Q2.85 25.3 3.45 26.85 L3.5 27.25 3.2 28.4 M5.8 30.05 Q6.35 29.3 6.55 28.35 L6.7 27.3 6.7 26.75 6.5 25.4 8.8 26.7 7.85 28.6 7.65 28.85 6.75 29.6 5.8 30.05 M12.7 28.1 L12.7 28.05 14.4 29.4 13.9 30.15 13.7 30.4 13.45 30.65 13.05 31.05 12.3 31.55 11.2 32.05 11.1 32.05 11.15 32.05 12.1 31.0 12.6 29.9 12.7 29.45 12.75 28.85 12.7 28.1 M18.65 28.85 L18.65 28.8 20.1 29.95 19.2 31.5 18.75 32.0 18.5 32.25 18.15 32.55 17.5 32.9 18.0 32.25 18.25 31.85 18.4 31.45 18.5 31.25 Q18.8 30.15 18.65 28.85 M13.45 32.65 L15.1 33.9 Q14.45 35.45 13.45 36.4 L12.1 37.35 13.0 36.0 Q13.65 34.5 13.4 32.7 L13.45 32.65 M18.7 34.6 L20.35 35.85 19.6 37.25 Q18.65 38.65 17.35 39.3 18.35 38.15 18.65 36.7 L18.65 34.65 18.7 34.6 M6.0 35.05 Q6.85 33.9 6.9 32.3 L6.7 30.4 9.0 31.7 Q8.6 33.1 7.7 34.0 L6.0 35.05 M34.5 27.95 L34.6 27.95 36.65 28.1 36.35 29.1 Q35.6 31.3 34.0 32.9 34.75 31.6 34.9 30.4 L34.9 29.65 34.7 28.45 34.5 28.0 34.5 27.95 M32.75 25.55 L32.75 25.6 32.65 25.9 32.25 26.85 30.8 29.1 29.95 30.0 30.4 29.2 Q31.35 27.2 30.65 25.5 L30.7 25.45 32.75 25.55 M29.05 32.25 L31.2 32.6 31.0 33.1 Q29.8 35.45 27.65 37.0 29.35 34.95 29.15 33.0 L29.15 32.9 29.0 32.3 29.05 32.25 M24.3 33.85 L26.35 34.75 25.0 36.9 22.95 38.55 24.1 36.7 Q24.55 35.35 24.25 33.9 L24.3 33.85" fill="#ad7a37" fill-rule="evenodd" stroke="none"/>
      <path d="M6.0 17.9 L6.45 18.05 5.7 19.0 6.0 17.9" fill="url(#gradient0)" fill-rule="evenodd" stroke="none"/>
      <path d="M3.45 26.85 L3.55 27.1 3.5 27.25 3.45 26.85" fill="url(#gradient1)" fill-rule="evenodd" stroke="none"/>
      <path d="M35.45 16.6 L35.95 16.75 36.05 17.15 35.7 17.5 35.45 16.6" fill="url(#gradient2)" fill-rule="evenodd" stroke="none"/>
      <path d="M42.95 14.45 Q42.65 14.3 42.25 14.45 L42.7 13.85 42.95 14.45" fill="#f9a800" fill-rule="evenodd" stroke="none"/>
      <path d="M42.25 14.45 Q42.65 14.3 42.95 14.45 42.15 17.3 43.5 21.6 39.8 23.15 37.2 27.55 L36.1 22.9 36.35 21.9 36.35 21.8 35.7 21.05 35.25 19.2 36.15 18.2 37.0 17.35 Q37.3 17.0 37.7 16.75 L37.9 16.6 Q39.95 14.95 42.25 14.45 M38.8 21.2 L39.6 21.35 40.25 20.8 Q40.45 20.4 40.3 19.85 L39.75 19.0 39.15 18.85 38.9 18.85 Q38.5 18.95 38.3 19.4 38.1 19.85 38.25 20.35 L38.8 21.2 M5.85 20.85 L5.85 20.8 5.9 20.45 6.25 19.7 Q6.55 19.05 7.15 18.5 L7.25 18.4 7.85 17.85 8.25 17.55 Q10.95 17.9 13.65 19.1 11.55 17.75 10.2 16.35 L10.4 16.25 Q10.65 16.1 10.95 16.0 L11.35 15.8 11.5 15.75 12.35 15.35 12.75 15.15 Q14.3 14.45 15.95 13.95 L16.3 13.85 17.4 13.5 18.35 13.25 19.15 13.05 19.3 13.85 Q19.55 15.55 19.0 17.35 L18.75 18.1 18.7 18.15 16.9 21.2 15.55 21.85 9.95 21.1 10.35 21.25 Q11.95 21.75 12.65 22.7 L13.0 23.4 11.95 24.4 11.2 23.45 10.55 22.75 Q9.4 23.7 7.8 23.9 L5.85 20.85" fill="#996600" fill-rule="evenodd" stroke="none"/>
      <path d="M42.7 13.85 L42.25 14.45 Q39.95 14.95 37.9 16.6 L37.7 16.75 Q37.3 17.0 37.0 17.35 L36.15 18.2 35.25 19.2 34.7 18.8 33.9 18.75 34.0 18.45 34.45 16.15 Q34.4 14.85 33.6 13.95 L32.85 13.35 Q31.55 12.5 29.25 12.25 L28.65 12.15 28.1 12.2 27.25 12.2 27.05 12.2 26.7 12.2 24.0 12.3 23.9 12.3 22.8 12.45 21.65 12.6 21.1 12.7 19.15 13.05 18.35 13.25 17.4 13.5 16.3 13.85 15.95 13.95 Q14.3 14.45 12.75 15.15 L12.35 15.35 11.5 15.75 11.35 15.8 10.95 16.0 Q10.65 16.1 10.4 16.25 L10.2 16.35 8.55 16.7 8.25 17.55 7.85 17.85 7.25 18.4 7.15 18.5 Q6.55 19.05 6.25 19.7 L5.9 20.45 5.85 20.8 5.85 20.85 5.5 20.45 5.15 20.05 Q5.3 19.5 5.7 19.0 L6.45 18.05 8.55 16.35 9.9 15.55 10.45 15.35 11.75 14.75 13.15 14.15 16.4 13.05 16.5 13.05 16.9 12.9 17.65 12.7 18.6 12.45 21.8 11.8 22.35 11.75 23.15 11.65 24.25 11.55 27.4 11.4 28.05 11.4 28.55 11.45 28.9 11.45 29.45 11.5 Q31.8 11.7 33.2 12.55 L33.75 12.95 Q34.8 13.8 35.1 15.1 L35.15 15.35 35.25 16.5 34.9 18.45 34.7 18.8 34.9 18.45 35.7 17.5 36.05 17.15 36.25 16.95 37.3 16.05 37.55 15.85 Q39.6 14.35 42.5 13.6 L42.7 13.85 M39.15 18.85 L39.75 19.0 40.3 19.85 Q40.45 20.4 40.25 20.8 L39.6 21.35 38.8 21.2 Q39.4 20.95 39.65 20.3 39.9 19.65 39.15 18.85 M18.75 26.75 L18.75 26.7 18.85 26.7 18.75 26.75" fill="#de9400" fill-rule="evenodd" stroke="none"/>
      <path d="M23.9 12.3 L24.0 12.3 26.7 12.2 27.05 12.2 27.15 12.3 27.75 13.2 28.0 13.7 Q28.75 15.05 28.75 16.6 L28.75 17.1 28.75 17.5 28.25 19.4 Q26.7 19.25 24.75 19.4 L22.1 19.7 Q21.4 18.05 21.7 16.4 L21.8 16.0 21.95 15.45 22.55 14.2 23.15 13.25 23.9 12.3" fill="#785000" fill-rule="evenodd" stroke="none"/>
      <path d="M27.05 12.2 L27.25 12.2 28.1 12.2 28.65 12.15 29.25 12.25 Q31.55 12.5 32.85 13.35 L33.6 13.95 Q34.4 14.85 34.45 16.15 L34.0 18.45 33.9 18.75 33.2 18.9 32.95 18.95 32.8 19.45 32.4 19.4 31.7 19.4 31.35 20.25 28.85 19.45 28.25 19.4 28.75 17.5 28.75 17.1 28.75 16.6 Q28.75 15.05 28.0 13.7 L27.75 13.2 27.15 12.3 27.05 12.2 M8.55 16.7 L10.2 16.35 Q11.55 17.75 13.65 19.1 L8.55 16.7 M15.55 21.85 L15.5 21.9 13.65 22.25 13.6 22.25 10.35 21.25 9.95 21.1 15.55 21.85" fill="#543800" fill-rule="evenodd" stroke="none"/>
      <path d="M29.4 23.0 L29.9 22.8 29.7 23.1 29.4 23.0" fill="url(#gradient3)" fill-rule="evenodd" stroke="none"/>
      <path d="M35.15 15.35 L35.45 16.6 35.7 17.5 34.9 18.45 35.25 16.5 35.15 15.35" fill="url(#gradient4)" fill-rule="evenodd" stroke="none"/>
      <path d="M33.9 18.75 L34.7 18.8 35.25 19.2 34.75 20.25 Q33.8 19.65 32.8 19.45 L32.95 18.95 33.2 18.9 33.9 18.75" fill="#7e542c" fill-rule="evenodd" stroke="none"/>
      <path d="M35.25 19.2 L35.7 21.05 34.75 20.25 35.25 19.2 M36.1 22.9 L37.2 27.55 37.3 28.0 37.15 28.15 35.1 26.45 35.0 25.8 Q35.65 24.6 36.1 22.9" fill="url(#gradient5)" fill-rule="evenodd" stroke="none"/>
      <path d="M35.1 26.45 L34.75 26.2 35.0 25.8 35.1 26.45" fill="url(#gradient6)" fill-rule="evenodd" stroke="none"/>
      <path d="M23.9 12.3 L23.15 13.25 22.55 14.2 21.95 15.45 21.8 16.0 21.7 16.4 Q21.4 18.05 22.1 19.7 L19.85 20.15 19.55 20.25 16.9 21.2 18.7 18.15 18.75 18.1 19.0 17.35 Q19.55 15.55 19.3 13.85 L19.15 13.05 21.1 12.7 21.65 12.6 22.8 12.45 23.9 12.3" fill="#a66e00" fill-rule="evenodd" stroke="none"/>
      <path d="M8.25 17.55 L8.55 16.7 13.65 19.1 Q10.95 17.9 8.25 17.55 M13.6 22.25 L13.0 23.4 12.65 22.7 Q11.95 21.75 10.35 21.25 L13.6 22.25" fill="#ffaa00" fill-rule="evenodd" stroke="none"/>
      <path d="M33.35 23.05 L34.3 22.35 34.35 22.65 Q34.6 24.0 34.15 25.75 L34.15 25.85 33.0 25.25 33.3 23.15 33.35 23.05" fill="url(#gradient7)" fill-rule="evenodd" stroke="none"/>
      <path d="M32.7 25.15 L31.65 24.3 33.3 23.15 33.0 25.25 32.7 25.15" fill="url(#gradient8)" fill-rule="evenodd" stroke="none"/>
      <path d="M34.5 28.0 L34.7 28.45 34.9 29.65 34.9 30.4 Q34.75 31.6 34.0 32.9 L33.05 33.3 32.95 33.1 33.35 28.45 33.35 28.4 34.5 28.0" fill="url(#gradient9)" fill-rule="evenodd" stroke="none"/>
      <path d="M29.95 30.0 L31.0 29.4 31.55 28.95 33.35 28.45 32.95 33.1 33.05 33.3 31.6 33.15 31.7 32.85 31.75 32.75 29.3 30.3 29.95 30.0" fill="url(#gradient10)" fill-rule="evenodd" stroke="none"/>
      <path d="M30.65 25.5 Q31.35 27.2 30.4 29.2 L29.95 30.0 29.25 30.25 28.95 30.0 29.55 25.95 29.55 25.9 30.65 25.5" fill="url(#gradient11)" fill-rule="evenodd" stroke="none"/>
      <path d="M27.3 29.05 L27.3 29.0 Q26.6 27.75 25.7 26.8 L27.65 26.4 29.55 25.95 28.95 30.0 Q28.15 29.45 27.3 29.05" fill="url(#gradient12)" fill-rule="evenodd" stroke="none"/>
      <path d="M29.0 32.3 L29.15 32.9 29.15 33.0 Q29.35 34.95 27.65 37.0 L26.65 37.25 26.55 37.05 27.75 32.6 27.75 32.55 29.0 32.3" fill="url(#gradient13)" fill-rule="evenodd" stroke="none"/>
      <path d="M26.65 37.25 L25.75 37.05 26.75 35.2 26.8 35.1 25.45 32.9 27.35 32.65 27.75 32.6 26.55 37.05 26.65 37.25" fill="url(#gradient14)" fill-rule="evenodd" stroke="none"/>
      <path d="M19.45 33.3 L19.8 33.35 20.25 33.45 23.1 33.85 21.9 38.3 22.0 38.55 20.2 37.55 20.7 36.4 20.75 36.3 19.45 33.3" fill="url(#gradient15)" fill-rule="evenodd" stroke="none"/>
      <path d="M23.1 33.85 L23.1 33.8 24.25 33.9 Q24.55 35.35 24.1 36.7 L22.95 38.55 22.0 38.55 21.9 38.3 23.1 33.85" fill="url(#gradient16)" fill-rule="evenodd" stroke="none"/>
      <path d="M20.4 30.4 L20.45 30.35 19.65 28.4 23.0 28.45 23.85 28.4 22.7 32.65 22.75 32.85 19.75 31.7 20.4 30.4" fill="url(#gradient17)" fill-rule="evenodd" stroke="none"/>
      <path d="M23.85 28.3 L24.95 28.25 25.05 29.25 Q25.05 30.45 24.45 31.65 L24.25 31.95 23.85 32.55 23.7 32.7 22.8 32.85 22.75 32.85 22.7 32.65 23.85 28.4 23.85 28.3" fill="url(#gradient18)" fill-rule="evenodd" stroke="none"/>
      <path d="M15.15 33.45 L16.45 33.95 17.7 34.4 16.5 38.85 16.55 39.1 13.95 36.8 Q14.8 36.1 15.45 34.45 L15.5 34.35 15.15 33.45" fill="url(#gradient19)" fill-rule="evenodd" stroke="none"/>
      <path d="M17.7 34.4 L17.7 34.35 18.65 34.65 18.65 36.7 Q18.35 38.15 17.35 39.3 L16.55 39.1 16.5 38.85 17.7 34.4" fill="url(#gradient20)" fill-rule="evenodd" stroke="none"/>
      <path d="M17.8 28.65 L18.65 28.85 Q18.8 30.15 18.5 31.25 L18.4 31.45 18.25 31.85 18.0 32.25 17.5 32.9 17.35 32.85 16.8 32.75 16.75 32.55 17.3 30.65 17.3 30.55 17.8 28.7 17.8 28.65" fill="url(#gradient21)" fill-rule="evenodd" stroke="none"/>
      <path d="M14.75 29.9 L14.8 29.85 13.5 26.9 Q14.2 27.3 15.3 27.75 L17.3 28.55 17.8 28.7 17.3 30.55 17.3 30.65 16.75 32.55 16.8 32.75 14.35 30.6 14.75 29.9" fill="url(#gradient22)" fill-rule="evenodd" stroke="none"/>
      <path d="M12.45 32.45 L12.45 32.4 13.4 32.7 Q13.65 34.5 13.0 36.0 L12.1 37.35 11.3 37.15 11.25 36.9 12.45 32.45" fill="url(#gradient23)" fill-rule="evenodd" stroke="none"/>
      <path d="M11.4 32.1 L11.5 32.15 11.85 32.25 12.45 32.45 11.25 36.9 11.3 37.15 8.1 34.35 9.4 32.2 9.4 32.15 9.0 31.15 10.1 31.6 10.25 31.75 10.3 31.85 11.1 32.05 11.4 32.1" fill="url(#gradient24)" fill-rule="evenodd" stroke="none"/>
      <path d="M11.7 27.7 L12.7 28.1 12.75 28.85 12.7 29.45 12.6 29.9 12.1 31.0 11.15 32.05 11.1 32.05 10.25 31.75 10.2 31.55 11.6 27.9 11.65 27.85 11.65 27.75 11.7 27.7" fill="url(#gradient25)" fill-rule="evenodd" stroke="none"/>
      <path d="M9.2 27.2 L9.2 27.15 9.0 26.6 10.7 27.35 10.75 27.4 11.3 27.6 11.5 27.7 11.6 27.75 11.65 27.75 11.65 27.85 11.6 27.9 10.2 31.55 10.25 31.75 10.1 31.6 8.7 30.35 8.1 29.1 9.2 27.2" fill="url(#gradient26)" fill-rule="evenodd" stroke="none"/>
      <path d="M3.15 29.15 L3.15 29.05 3.75 29.3 4.05 29.4 4.2 29.45 4.3 30.0 4.3 30.15 4.3 30.2 5.15 34.7 5.2 34.9 5.25 35.0 Q3.05 31.5 3.15 29.15" fill="url(#gradient27)" fill-rule="evenodd" stroke="none"/>
      <path d="M4.85 29.65 L5.05 30.0 5.8 30.05 5.9 30.1 6.6 30.35 6.7 30.4 6.9 32.3 Q6.85 33.9 6.0 35.05 L5.2 34.9 5.15 34.7 4.3 30.2 4.3 30.15 4.3 30.0 4.2 29.45 4.2 29.4 4.85 29.65" fill="url(#gradient28)" fill-rule="evenodd" stroke="none"/>
      <path d="M4.0 24.4 L4.95 24.75 5.05 24.8 6.5 25.4 6.7 26.75 6.7 27.3 6.55 28.35 Q6.35 29.3 5.8 30.05 L5.0 29.9 4.95 29.7 4.4 27.15 4.2 25.8 4.0 24.45 4.0 24.4" fill="url(#gradient29)" fill-rule="evenodd" stroke="none"/>
      <path d="M2.95 24.05 L3.6 24.3 4.0 24.45 4.2 25.8 4.4 27.15 4.95 29.7 5.0 29.9 5.05 30.0 4.85 29.65 4.25 28.6 3.55 27.1 3.45 26.85 Q2.85 25.3 2.95 24.05" fill="url(#gradient30)" fill-rule="evenodd" stroke="none"/>
      <path d="M42.95 14.45 L42.7 13.85 M35.25 19.2 L35.7 21.05 36.35 21.8 36.35 21.9 36.1 22.9 37.2 27.55 Q39.8 23.15 43.5 21.6 42.15 17.3 42.95 14.45 M37.55 15.85 Q39.6 14.35 42.5 13.6 L42.7 13.85 M37.3 16.05 L37.55 15.85 Q36.45 13.55 34.95 11.8 L34.3 11.05 M33.75 12.95 Q34.8 13.8 35.1 15.1 L35.15 15.35 35.45 16.6 35.7 17.5 34.9 18.45 M29.8 9.8 Q31.35 11.25 33.45 12.15 L34.3 11.05 M22.1 11.5 L21.8 11.8 22.35 11.75 23.15 11.65 24.25 11.55 27.4 11.4 28.05 11.4 28.55 11.45 28.9 11.45 29.45 11.5 Q31.8 11.7 33.2 12.55 L33.75 12.95 M24.95 9.35 L24.2 9.75 22.1 11.5 Q20.45 10.95 19.35 9.65 M18.6 12.45 L21.8 11.8 M33.9 18.75 L34.7 18.8 34.9 18.45 M28.25 19.4 L28.85 19.45 31.35 20.25 31.7 19.4 32.4 19.4 32.8 19.45 32.95 18.95 33.2 18.9 33.9 18.75 M27.65 11.2 L27.4 11.4 M29.8 9.8 L29.1 10.15 27.65 11.2 Q26.05 10.5 24.95 9.35 M22.1 19.7 L24.75 19.4 Q26.7 19.25 28.25 19.4 M24.15 25.35 L22.95 24.5 22.2 24.1 M23.6 27.7 L23.85 28.3 23.85 28.4 23.0 28.45 19.65 28.4 18.75 26.75 18.75 26.7 18.85 26.7 Q20.9 25.75 22.2 24.1 M27.3 29.05 L27.3 29.0 Q26.6 27.75 25.7 26.8 L24.15 25.35 Q26.05 24.0 27.15 22.25 L28.0 22.45 29.4 23.0 29.9 22.8 31.35 20.25 M33.25 25.75 L33.3 25.7 32.7 25.15 31.65 24.3 29.7 23.1 29.4 23.0 M29.7 23.1 L29.9 22.8 M36.05 17.15 L36.25 16.95 37.3 16.05 M35.7 17.5 L36.05 17.15 M35.25 19.2 L34.7 18.8 M33.1 22.5 L33.35 23.05 33.3 23.15 31.65 24.3 M33.0 25.25 L34.15 25.85 M34.75 20.25 Q33.8 19.65 32.8 19.45 M38.8 21.2 L38.25 20.35 Q38.1 19.85 38.3 19.4 38.5 18.95 38.9 18.85 L39.15 18.85 Q39.9 19.65 39.65 20.3 39.4 20.95 38.8 21.2 M35.7 21.05 L34.75 20.25 M33.2 12.55 L33.45 12.15 M11.75 14.75 L13.15 14.15 16.4 13.05 14.4 11.4 13.65 11.8 Q11.65 13.0 10.15 14.85 L10.3 15.15 M17.65 12.7 L18.6 12.45 M16.9 12.9 L17.65 12.7 M16.5 13.05 Q17.5 11.4 18.75 10.15 L19.35 9.65 M6.45 18.05 L8.55 16.35 9.9 15.55 10.45 15.35 10.3 15.15 M9.85 14.4 L8.95 14.6 Q5.8 15.6 3.3 18.1 L3.3 18.15 M16.9 21.2 L19.55 20.25 19.85 20.15 22.1 19.7 M3.9 21.0 L4.15 20.6 Q3.6 19.55 3.3 18.15 M4.85 19.7 L4.6 20.05 4.15 20.6 M9.2 27.2 L9.2 27.15 9.0 26.6 7.8 23.9 5.85 20.85 5.5 20.45 5.15 20.05 4.85 19.7 M1.0 23.85 Q1.65 27.45 3.15 29.15 L3.15 29.05 3.2 28.4 M3.0 23.7 Q3.05 22.85 3.35 22.05 M1.0 23.85 L1.0 23.8 Q2.35 22.1 3.9 21.0 L3.35 22.05 M4.0 24.45 L4.0 24.4 M2.95 24.05 L3.6 24.3 4.0 24.45 M4.95 29.7 L5.0 29.9 M3.0 23.7 L2.95 24.05 Q2.85 25.3 3.45 26.85 L3.55 27.1 4.25 28.6 4.85 29.65 5.05 30.0 5.0 29.9 M5.15 20.05 Q5.3 19.5 5.7 19.0 L6.45 18.05 M16.5 13.05 L16.9 12.9 M16.4 13.05 L16.5 13.05 M10.45 15.35 L11.75 14.75 M14.75 29.9 L14.8 29.85 13.5 26.9 12.85 25.75 11.95 24.4 11.2 23.45 10.55 22.75 M11.55 27.0 L11.7 27.7 11.65 27.75 11.6 27.75 11.5 27.7 11.3 27.6 10.75 27.4 10.7 27.35 9.0 26.6 M13.6 22.25 L13.0 23.4 11.95 24.4 M15.55 21.85 L15.5 21.9 13.65 22.25 13.6 22.25 M16.9 21.2 L15.55 21.85 M18.75 26.7 L17.25 24.5 16.65 23.9 M17.65 27.9 L17.8 28.65 17.8 28.7 17.3 28.55 15.3 27.75 Q14.2 27.3 13.5 26.9 M20.4 30.4 L20.45 30.35 19.65 28.4 M7.8 23.9 Q9.4 23.7 10.55 22.75 M9.85 14.4 L10.15 14.85 M18.75 26.75 L18.85 26.7 M16.75 32.55 L16.8 32.75 16.8 32.85 17.35 32.9 17.5 32.9 M12.85 25.75 L12.9 25.55 Q15.25 25.5 16.65 23.9 M10.2 31.55 L10.25 31.75 10.1 31.6 9.0 31.15 9.4 32.15 9.4 32.2 8.1 34.35 11.3 37.15 11.25 36.9 M14.75 29.9 L14.35 30.6 16.8 32.75 M13.8 31.25 L13.25 31.7 M13.8 31.25 L14.05 31.0 14.35 30.6 M14.05 31.0 L15.15 33.45 16.45 33.95 17.7 34.4 17.7 34.35 17.55 33.55 M12.4 32.05 L12.1 32.05 11.4 32.1 11.5 32.15 11.85 32.25 12.45 32.45 12.45 32.4 12.4 32.05 13.25 31.7 M11.1 32.05 L10.3 31.85 10.25 31.75 M11.4 32.1 L11.1 32.05 M19.75 31.7 L19.0 32.45 19.45 33.3 19.8 33.35 20.25 33.45 23.1 33.85 23.1 33.8 22.95 33.15 22.9 33.05 M22.8 32.9 L22.75 32.85 19.75 31.7 20.4 30.4 M18.75 32.65 L18.3 32.8 18.25 32.85 17.5 32.9 M19.0 32.45 L18.75 32.65 M15.15 33.45 L15.5 34.35 15.45 34.45 Q14.8 36.1 13.95 36.8 L16.55 39.1 16.5 38.85 M6.75 30.0 L5.9 30.1 5.8 30.05 5.05 30.0 M6.75 30.0 L7.9 29.35 8.1 29.1 9.2 27.2 M8.7 30.35 L8.1 29.1 M3.55 27.1 L3.5 27.25 3.2 28.4 M3.15 29.05 L3.75 29.3 4.05 29.4 4.2 29.45 4.2 29.4 M5.15 34.7 L5.2 34.9 M5.25 35.0 L5.2 34.9 M6.0 35.05 L5.25 35.0 Q3.05 31.5 3.15 29.15 M8.1 34.35 L6.95 35.0 6.0 35.05 M10.1 31.6 L8.7 30.35 9.0 31.15 M17.35 39.3 L16.6 39.2 16.55 39.1 M20.2 37.55 Q19.35 38.95 18.3 39.2 L17.35 39.3 M12.1 37.35 L11.35 37.25 11.3 37.15 M12.1 37.35 L13.05 37.25 13.95 36.8 M37.2 28.25 L37.2 28.2 37.15 28.15 35.1 26.45 34.75 26.2 34.45 26.05 Q34.3 25.9 34.15 25.85 M33.25 25.8 L33.1 26.25 M34.0 32.9 L35.05 32.25 Q36.65 31.0 37.2 28.25 M37.2 27.55 L37.3 28.0 37.15 28.15 M34.75 26.2 L35.0 25.8 Q35.65 24.6 36.1 22.9 M33.25 25.75 L33.25 25.8 M29.95 30.0 L31.0 29.4 31.55 28.95 32.6 27.45 33.1 26.25 M34.7 28.45 L34.9 29.65 M34.0 32.9 L33.15 33.35 33.05 33.3 31.6 33.15 Q30.55 35.5 28.85 36.45 L27.65 37.0 26.7 37.3 26.65 37.25 25.75 37.05 Q25.0 37.95 24.05 38.3 L22.95 38.55 22.05 38.6 22.0 38.55 20.2 37.55 20.7 36.4 20.75 36.3 19.45 33.3 M33.35 28.45 L33.35 28.4 33.15 28.15 33.15 28.1 32.95 27.85 M32.7 25.15 L33.0 25.25 M31.55 28.95 L33.35 28.45 M32.95 33.1 L33.05 33.3 M27.15 29.45 L27.1 29.55 26.7 30.3 M27.75 32.55 L27.75 32.6 27.35 32.65 25.45 32.9 24.9 32.2 Q25.95 31.6 26.7 30.3 M26.55 37.05 L26.65 37.25 M31.7 32.85 L31.75 32.75 29.3 30.3 29.25 30.25 28.95 30.0 Q28.15 29.45 27.3 29.05 L27.15 29.45 M31.7 32.85 L31.6 33.15 M29.55 25.9 L29.55 25.95 27.65 26.4 25.7 26.8 M29.2 25.35 L29.55 25.9 M27.5 31.9 L27.75 32.55 M29.95 30.0 L29.3 30.3 M22.7 32.65 L22.75 32.85 M24.9 32.2 L24.7 32.3 24.6 32.4 23.9 32.7 23.7 32.7 22.85 32.9 22.8 32.9 M26.75 35.2 L26.8 35.1 25.45 32.9 M26.75 35.2 L25.75 37.05 M21.9 38.3 L22.0 38.55" fill="none" stroke="#000000" stroke-linecap="round" stroke-linejoin="round" stroke-opacity="0.3019608" stroke-width="0.05"/>
      <path d="M43.5 21.6 Q40.35 22.9 38.0 26.3 L37.2 27.55 37.3 28.0 37.15 28.15 37.2 28.2 37.2 28.25 Q36.65 31.0 35.05 32.25 L34.0 32.9 33.15 33.35 33.05 33.3 31.6 33.15 Q30.55 35.5 28.85 36.45 L27.65 37.0 26.7 37.3 26.65 37.25 25.75 37.05 Q25.0 37.95 24.05 38.3 L22.95 38.55 22.05 38.6 22.0 38.55 20.2 37.55 Q19.35 38.95 18.3 39.2 L17.35 39.3 16.6 39.2 16.55 39.1 13.95 36.8 13.05 37.25 12.1 37.35 11.35 37.25 11.3 37.15 8.1 34.35 6.95 35.0 6.0 35.05 5.25 35.0 Q3.05 31.5 3.15 29.15 1.65 27.45 1.0 23.85 L1.0 23.8 Q2.35 22.1 3.9 21.0 L4.15 20.6 Q3.6 19.55 3.3 18.15 L3.3 18.1 Q5.8 15.6 8.95 14.6 L9.85 14.4 10.15 14.85 Q11.65 13.0 13.65 11.8 L14.4 11.4 16.4 13.05 16.5 13.05 Q17.5 11.4 18.75 10.15 L19.35 9.65 Q20.45 10.95 22.1 11.5 L24.2 9.75 24.95 9.35 Q26.05 10.5 27.65 11.2 L29.1 10.15 29.8 9.8 Q31.35 11.25 33.45 12.15 L34.3 11.05 34.95 11.8 Q36.45 13.55 37.55 15.85 L38.0 15.55 Q39.9 14.3 42.5 13.6 L42.7 13.85 42.95 14.45 Q42.15 17.3 43.5 21.6 M22.2 24.1 Q20.9 25.75 18.85 26.7 L18.75 26.7 17.25 24.5 16.65 23.9 Q15.25 25.5 12.9 25.55 L12.85 25.75 11.95 24.4 13.0 23.4 13.6 22.25 13.65 22.25 15.5 21.9 15.55 21.85 16.9 21.2 19.55 20.25 19.85 20.15 22.1 19.7 24.75 19.4 Q26.7 19.25 28.25 19.4 L28.85 19.45 31.35 20.25 29.9 22.8 29.4 23.0 28.0 22.45 27.15 22.25 Q26.05 24.0 24.15 25.35 L22.95 24.5 22.2 24.1" fill="none" stroke="#000000" stroke-linecap="round" stroke-linejoin="round" stroke-opacity="0.3019608" stroke-width="0.5"/>
    </g>
    <linearGradient gradientTransform="matrix(0.0031, 5.0E-4, 9.0E-4, -0.0024, 7.85, 19.2)" gradientUnits="userSpaceOnUse" id="gradient0" spreadMethod="pad" x1="-819.2" x2="819.2">
      <stop offset="0.0" stop-color="#745425"/>
      <stop offset="1.0" stop-color="#573d1b"/>
    </linearGradient>
    <linearGradient gradientTransform="matrix(0.0031, 9.0E-4, 8.0E-4, -0.0031, 5.6, 25.55)" gradientUnits="userSpaceOnUse" id="gradient1" spreadMethod="pad" x1="-819.2" x2="819.2">
      <stop offset="0.0" stop-color="#745425"/>
      <stop offset="1.0" stop-color="#573d1b"/>
    </linearGradient>
    <linearGradient gradientTransform="matrix(-0.0025, -0.0012, -2.0E-4, -0.0029, 34.95, 17.05)" gradientUnits="userSpaceOnUse" id="gradient2" spreadMethod="pad" x1="-819.2" x2="819.2">
      <stop offset="0.0" stop-color="#745425"/>
      <stop offset="1.0" stop-color="#573d1b"/>
    </linearGradient>
    <linearGradient gradientTransform="matrix(-0.0158, -9.0E-4, 7.0E-4, -0.0104, 22.55, 19.65)" gradientUnits="userSpaceOnUse" id="gradient3" spreadMethod="pad" x1="-819.2" x2="819.2">
      <stop offset="0.0" stop-color="#c68600"/>
      <stop offset="0.9882352941176471" stop-color="#d9a302"/>
    </linearGradient>
    <linearGradient gradientTransform="matrix(8.0E-4, 5.0E-4, -9.0E-4, 0.0015, 35.1, 17.0)" gradientUnits="userSpaceOnUse" id="gradient4" spreadMethod="pad" x1="-819.2" x2="819.2">
      <stop offset="0.0" stop-color="#6f4a00"/>
      <stop offset="0.9882352941176471" stop-color="#3c2300"/>
    </linearGradient>
    <linearGradient gradientTransform="matrix(7.0E-4, 0.0027, -0.0018, 5.0E-4, 35.05, 24.15)" gradientUnits="userSpaceOnUse" id="gradient5" spreadMethod="pad" x1="-819.2" x2="819.2">
      <stop offset="0.0" stop-color="#543d1d"/>
      <stop offset="0.9882352941176471" stop-color="#382614"/>
    </linearGradient>
    <linearGradient gradientTransform="matrix(0.0011, 0.0043, -0.0015, 4.0E-4, 33.6, 24.2)" gradientUnits="userSpaceOnUse" id="gradient6" spreadMethod="pad" x1="-819.2" x2="819.2">
      <stop offset="0.0" stop-color="#453218"/>
      <stop offset="0.9882352941176471" stop-color="#130d06"/>
    </linearGradient>
    <linearGradient gradientTransform="matrix(-0.0024, 0.0014, -4.0E-4, -0.0024, 32.75, 24.2)" gradientUnits="userSpaceOnUse" id="gradient7" spreadMethod="pad" x1="-819.2" x2="819.2">
      <stop offset="0.0" stop-color="#745425"/>
      <stop offset="1.0" stop-color="#573d1b"/>
    </linearGradient>
    <linearGradient gradientTransform="matrix(-0.0028, 0.001, -2.0E-4, -0.0043, 29.75, 26.5)" gradientUnits="userSpaceOnUse" id="gradient8" spreadMethod="pad" x1="-819.2" x2="819.2">
      <stop offset="0.0" stop-color="#523919"/>
      <stop offset="1.0" stop-color="#3d2a12"/>
    </linearGradient>
    <linearGradient gradientTransform="matrix(-0.0031, 5.0E-4, -9.0E-4, -0.0024, 32.65, 29.3)" gradientUnits="userSpaceOnUse" id="gradient9" spreadMethod="pad" x1="-819.2" x2="819.2">
      <stop offset="0.0" stop-color="#745425"/>
      <stop offset="1.0" stop-color="#573d1b"/>
    </linearGradient>
    <linearGradient gradientTransform="matrix(-0.0036, 1.0E-4, -8.0E-4, -0.0042, 28.85, 30.55)" gradientUnits="userSpaceOnUse" id="gradient10" spreadMethod="pad" x1="-819.2" x2="819.2">
      <stop offset="0.0" stop-color="#523919"/>
      <stop offset="1.0" stop-color="#3d2a12"/>
    </linearGradient>
    <linearGradient gradientTransform="matrix(-0.003, 5.0E-4, -7.0E-4, -0.0022, 28.85, 26.65)" gradientUnits="userSpaceOnUse" id="gradient11" spreadMethod="pad" x1="-819.2" x2="819.2">
      <stop offset="0.0" stop-color="#745425"/>
      <stop offset="1.0" stop-color="#573d1b"/>
    </linearGradient>
    <linearGradient gradientTransform="matrix(-0.0035, 0.0, -6.0E-4, -0.0038, 25.1, 27.8)" gradientUnits="userSpaceOnUse" id="gradient12" spreadMethod="pad" x1="-819.2" x2="819.2">
      <stop offset="0.0" stop-color="#523919"/>
      <stop offset="1.0" stop-color="#3d2a12"/>
    </linearGradient>
    <linearGradient gradientTransform="matrix(-0.0032, 2.0E-4, -5.0E-4, -0.0024, 26.95, 33.3)" gradientUnits="userSpaceOnUse" id="gradient13" spreadMethod="pad" x1="-819.2" x2="819.2">
      <stop offset="0.0" stop-color="#745425"/>
      <stop offset="1.0" stop-color="#573d1b"/>
    </linearGradient>
    <linearGradient gradientTransform="matrix(-0.0037, -4.0E-4, -1.0E-4, -0.0041, 22.85, 34.1)" gradientUnits="userSpaceOnUse" id="gradient14" spreadMethod="pad" x1="-819.2" x2="819.2">
      <stop offset="0.0" stop-color="#523919"/>
      <stop offset="1.0" stop-color="#3d2a12"/>
    </linearGradient>
    <linearGradient gradientTransform="matrix(-0.0034, -0.0014, 0.0, -0.0044, 18.55, 34.15)" gradientUnits="userSpaceOnUse" id="gradient15" spreadMethod="pad" x1="-819.2" x2="819.2">
      <stop offset="0.0" stop-color="#523919"/>
      <stop offset="1.0" stop-color="#3d2a12"/>
    </linearGradient>
    <linearGradient gradientTransform="matrix(-0.003, -7.0E-4, -4.0E-4, -0.0027, 22.35, 34.4)" gradientUnits="userSpaceOnUse" id="gradient16" spreadMethod="pad" x1="-819.2" x2="819.2">
      <stop offset="0.0" stop-color="#745425"/>
      <stop offset="1.0" stop-color="#573d1b"/>
    </linearGradient>
    <linearGradient gradientTransform="matrix(-0.0032, -7.0E-4, 0.0, -0.004, 19.55, 29.35)" gradientUnits="userSpaceOnUse" id="gradient17" spreadMethod="pad" x1="-819.2" x2="819.2">
      <stop offset="0.0" stop-color="#523919"/>
      <stop offset="1.0" stop-color="#3d2a12"/>
    </linearGradient>
    <linearGradient gradientTransform="matrix(-0.0028, -2.0E-4, -4.0E-4, -0.0024, 23.15, 29.05)" gradientUnits="userSpaceOnUse" id="gradient18" spreadMethod="pad" x1="-819.2" x2="819.2">
      <stop offset="0.0" stop-color="#745425"/>
      <stop offset="1.0" stop-color="#573d1b"/>
    </linearGradient>
    <linearGradient gradientTransform="matrix(-0.0028, -0.002, 2.0E-4, -0.0046, 13.8, 34.0)" gradientUnits="userSpaceOnUse" id="gradient19" spreadMethod="pad" x1="-819.2" x2="819.2">
      <stop offset="0.0" stop-color="#523919"/>
      <stop offset="1.0" stop-color="#3d2a12"/>
    </linearGradient>
    <linearGradient gradientTransform="matrix(-0.0025, -0.0012, -2.0E-4, -0.0029, 17.0, 34.85)" gradientUnits="userSpaceOnUse" id="gradient20" spreadMethod="pad" x1="-819.2" x2="819.2">
      <stop offset="0.0" stop-color="#745425"/>
      <stop offset="1.0" stop-color="#573d1b"/>
    </linearGradient>
    <linearGradient gradientTransform="matrix(-0.0022, -0.0011, -2.0E-4, -0.0025, 17.2, 29.05)" gradientUnits="userSpaceOnUse" id="gradient21" spreadMethod="pad" x1="-819.2" x2="819.2">
      <stop offset="0.0" stop-color="#745425"/>
      <stop offset="1.0" stop-color="#573d1b"/>
    </linearGradient>
    <linearGradient gradientTransform="matrix(-0.0024, -0.0017, 2.0E-4, -0.004, 14.45, 28.3)" gradientUnits="userSpaceOnUse" id="gradient22" spreadMethod="pad" x1="-819.2" x2="819.2">
      <stop offset="0.0" stop-color="#523919"/>
      <stop offset="1.0" stop-color="#3d2a12"/>
    </linearGradient>
    <linearGradient gradientTransform="matrix(-0.0025, -0.0012, -2.0E-4, -0.0029, 11.75, 32.9)" gradientUnits="userSpaceOnUse" id="gradient23" spreadMethod="pad" x1="-819.2" x2="819.2">
      <stop offset="0.0" stop-color="#745425"/>
      <stop offset="1.0" stop-color="#573d1b"/>
    </linearGradient>
    <linearGradient gradientTransform="matrix(-0.0028, -0.002, 2.0E-4, -0.0046, 8.55, 32.05)" gradientUnits="userSpaceOnUse" id="gradient24" spreadMethod="pad" x1="-819.2" x2="819.2">
      <stop offset="0.0" stop-color="#523919"/>
      <stop offset="1.0" stop-color="#3d2a12"/>
    </linearGradient>
    <linearGradient gradientTransform="matrix(-0.0026, -0.0014, -1.0E-4, -0.0026, 10.95, 28.1)" gradientUnits="userSpaceOnUse" id="gradient25" spreadMethod="pad" x1="-819.2" x2="819.2">
      <stop offset="0.0" stop-color="#745425"/>
      <stop offset="1.0" stop-color="#573d1b"/>
    </linearGradient>
    <linearGradient gradientTransform="matrix(-0.0029, -0.0021, 4.0E-4, -0.0041, 7.6, 26.9)" gradientUnits="userSpaceOnUse" id="gradient26" spreadMethod="pad" x1="-819.2" x2="819.2">
      <stop offset="0.0" stop-color="#523919"/>
      <stop offset="1.0" stop-color="#3d2a12"/>
    </linearGradient>
    <linearGradient gradientTransform="matrix(-0.0028, -0.002, 2.0E-4, -0.0046, 2.45, 29.8)" gradientUnits="userSpaceOnUse" id="gradient27" spreadMethod="pad" x1="-819.2" x2="819.2">
      <stop offset="0.0" stop-color="#523919"/>
      <stop offset="1.0" stop-color="#3d2a12"/>
    </linearGradient>
    <linearGradient gradientTransform="matrix(-0.0025, -0.0012, -2.0E-4, -0.0029, 5.7, 30.7)" gradientUnits="userSpaceOnUse" id="gradient28" spreadMethod="pad" x1="-819.2" x2="819.2">
      <stop offset="0.0" stop-color="#745425"/>
      <stop offset="1.0" stop-color="#573d1b"/>
    </linearGradient>
    <linearGradient gradientTransform="matrix(-0.0025, -0.0012, -2.0E-4, -0.0029, 5.5, 25.7)" gradientUnits="userSpaceOnUse" id="gradient29" spreadMethod="pad" x1="-819.2" x2="819.2">
      <stop offset="0.0" stop-color="#745425"/>
      <stop offset="1.0" stop-color="#573d1b"/>
    </linearGradient>
    <linearGradient gradientTransform="matrix(-0.0028, -0.002, 2.0E-4, -0.0046, 2.25, 24.8)" gradientUnits="userSpaceOnUse" id="gradient30" spreadMethod="pad" x1="-819.2" x2="819.2">
      <stop offset="0.0" stop-color="#523919"/>
      <stop offset="1.0" stop-color="#3d2a12"/>
    </linearGradient>
  </defs>
</svg>
