<?xml version="1.0" encoding="UTF-8" standalone="no"?>
<svg xmlns:xlink="http://www.w3.org/1999/xlink" height="440.0px" width="440.0px" xmlns="http://www.w3.org/2000/svg">
  <g transform="matrix(10.0, 0.0, 0.0, 10.0, 0.0, 0.0)">
    <use height="44.0" transform="matrix(1.0, 0.0, 0.0, 1.0, 0.0, 0.0)" width="44.0" xlink:href="#shape0"/>
  </g>
  <defs>
    <g id="shape0" transform="matrix(1.0, 0.0, 0.0, 1.0, 0.0, 0.0)">
      <path d="M44.0 44.0 L0.0 44.0 0.0 0.0 44.0 0.0 44.0 44.0" fill="#43adca" fill-opacity="0.0" fill-rule="evenodd" stroke="none"/>
      <path d="M35.15 9.0 L35.05 9.05 Q33.85 9.7 32.4 11.25 29.75 14.05 26.9 19.05 L25.9 20.65 24.4 23.55 23.55 25.15 22.3 27.75 19.0 34.3 15.05 35.9 14.4 34.95 12.7 33.2 12.75 33.2 13.65 33.6 14.55 33.8 15.55 34.0 16.5 33.9 16.5 33.85 Q15.05 32.6 13.2 30.0 L10.15 25.3 10.15 25.25 Q14.55 13.9 18.15 8.75 17.25 10.45 18.7 9.0 L20.8 6.05 Q23.3 2.9 25.35 2.5 25.8 2.7 26.05 3.35 L26.4 4.85 26.2 7.5 25.85 9.1 25.9 8.45 25.95 6.5 25.9 5.9 25.6 4.35 25.4 4.0 25.05 3.5 24.7 3.35 24.65 3.35 24.5 3.35 24.05 3.45 23.5 3.8 21.4 6.15 Q18.15 10.6 13.75 20.1 L13.4 20.8 Q12.9 21.1 13.15 19.55 L12.6 22.6 12.6 22.65 12.4 24.0 12.35 24.5 12.25 26.45 12.35 26.2 Q12.65 25.25 13.75 25.9 L14.0 26.05 Q15.15 26.75 16.8 27.0 L17.2 27.0 17.45 27.05 17.55 27.05 18.55 27.1 19.15 26.85 19.4 26.7 Q20.85 26.05 21.7 25.2 L21.7 25.25 22.0 24.95 22.4 24.35 22.8 23.7 23.05 23.2 Q22.6 24.35 22.9 24.2 L23.3 23.85 23.4 23.65 Q25.8 18.5 29.9 13.3 32.85 9.25 35.4 7.65 L35.55 7.65 Q36.3 7.65 36.5 8.3 L36.55 8.95 35.95 10.35 34.85 12.4 33.45 14.35 Q30.75 18.05 26.8 22.0 L27.0 21.3 27.15 21.1 Q32.85 15.55 34.9 11.7 L35.0 11.6 35.8 9.75 35.95 9.1 35.95 8.8 35.15 9.0" fill="#cef487" fill-rule="evenodd" stroke="none"/>
      <path d="M25.9 20.65 L27.55 19.3 Q33.0 14.3 35.15 9.0 L35.95 8.8 35.95 9.1 35.8 9.75 35.0 11.6 34.9 11.7 Q32.85 15.55 27.15 21.1 L27.0 21.3 24.3 23.8 24.4 23.55 25.9 20.65 M22.3 21.4 Q22.4 22.45 23.05 22.4 22.35 22.6 21.95 23.2 L21.7 23.65 22.3 21.4" fill="#5c8521" fill-rule="evenodd" stroke="none"/>
      <path d="M23.05 23.2 L22.8 23.7 22.4 24.35 22.0 24.95 21.7 25.2 Q20.85 26.05 19.4 26.7 L19.15 26.85 18.55 27.1 17.55 27.05 17.45 27.05 17.2 27.0 17.5 26.8 17.55 26.75 17.6 26.7 17.65 26.75 Q19.0 25.2 20.15 21.85 L20.8 20.05 21.45 18.45 Q26.2 5.2 24.7 3.35 L25.05 3.5 25.4 4.0 25.6 4.35 25.9 5.9 25.95 6.5 25.9 8.45 25.85 9.1 25.6 10.15 23.0 18.75 22.7 19.65 22.55 20.25 22.3 21.4 21.7 23.65 21.95 23.2 Q22.35 22.6 23.05 22.4 L23.2 22.35 23.25 22.35 23.6 22.15 23.05 23.2" fill="#80ad25" fill-rule="evenodd" stroke="none"/>
      <path d="M35.4 7.65 Q32.85 9.25 29.9 13.3 25.8 18.5 23.4 23.65 L23.3 23.85 22.9 24.2 Q22.6 24.35 23.05 23.2 L23.6 22.15 24.1 21.1 24.25 20.85 Q26.0 17.4 28.25 14.25 32.7 8.05 35.4 7.65 M25.35 2.5 Q23.3 2.9 20.8 6.05 L18.7 9.0 Q17.25 10.45 18.15 8.75 L18.6 8.0 Q22.2 3.3 24.1 2.55 L25.35 2.45 25.35 2.5" fill="#e3fea3" fill-rule="evenodd" stroke="none"/>
      <path d="M27.0 21.3 L26.8 22.0 23.75 24.9 23.55 25.15 24.4 23.55 24.3 23.8 27.0 21.3 M22.0 24.95 L21.7 25.25 21.7 25.2 22.0 24.95 M13.75 25.9 Q12.65 25.25 12.35 26.2 L12.25 26.45 12.35 24.5 13.1 25.4 13.75 25.9 M12.6 22.6 L13.15 19.55 Q12.9 21.1 13.4 20.8 L12.6 22.6 M10.1 39.4 Q11.75 40.2 11.0 39.5 L11.3 39.55 12.1 40.15 Q10.9 40.1 10.1 39.4" fill="#9fd14d" fill-rule="evenodd" stroke="none"/>
      <path d="M10.15 25.3 L13.2 30.0 Q15.05 32.6 16.5 33.85 L16.5 33.9 15.55 34.0 14.55 33.8 13.65 33.6 12.75 33.2 12.7 33.2 14.4 34.95 15.05 35.9 11.65 36.55 9.4 36.3 9.75 29.4 10.15 25.3" fill="#c2ed7b" fill-rule="evenodd" stroke="none"/>
      <path d="M9.4 36.3 L11.65 36.55 15.05 35.9 15.05 36.4 Q14.9 37.55 13.6 37.95 L11.4 38.1 Q9.9 37.85 9.4 37.05 L9.4 36.3" fill="#94b85f" fill-rule="evenodd" stroke="none"/>
      <path d="M15.05 35.9 L19.0 34.3 18.75 34.8 15.9 40.35 Q15.0 41.35 13.7 41.05 L12.5 40.5 12.1 40.15 11.3 39.55 11.0 39.5 Q11.75 40.2 10.1 39.4 L9.95 39.3 9.35 38.55 9.4 37.05 Q9.9 37.85 11.4 38.1 L13.6 37.95 Q14.9 37.55 15.05 36.4 L15.05 35.9" fill="#9fbf6b" fill-rule="evenodd" stroke="none"/>
      <path d="M35.15 9.0 L35.05 9.05 Q33.85 9.7 32.4 11.25 29.75 14.05 26.9 19.05 L25.9 20.65 27.55 19.3 Q33.0 14.3 35.15 9.0 L35.95 8.8 M26.8 22.0 Q30.75 18.05 33.45 14.35 L34.85 12.4 35.95 10.35 36.55 8.95 36.5 8.3 Q36.3 7.65 35.55 7.65 L35.4 7.65 M23.05 23.2 L22.8 23.7 22.4 24.35 22.0 24.95 21.7 25.25 M21.7 25.2 Q20.85 26.05 19.4 26.7 L19.15 26.85 18.55 27.1 17.55 27.05 17.45 27.05 17.2 27.0 16.8 27.0 Q15.15 26.75 14.0 26.05 L13.75 25.9 M12.25 26.45 L12.35 24.5 12.4 24.0 12.6 22.65 12.6 22.6 13.15 19.55 M13.4 20.8 L13.75 20.1 Q18.15 10.6 21.4 6.15 L23.5 3.8 24.05 3.45 24.5 3.35 24.65 3.35 24.7 3.35 25.05 3.5 25.4 4.0 25.6 4.35 M25.85 9.1 L26.2 7.5 26.4 4.85 26.05 3.35 Q25.8 2.7 25.35 2.5 M18.15 8.75 Q14.55 13.9 10.15 25.25 L10.15 25.3 M19.0 34.3 L22.3 27.75 23.55 25.15 24.4 23.55 25.9 20.65 M18.15 8.75 L18.6 8.0 Q22.2 3.3 24.1 2.55 L25.35 2.45 25.35 2.5 M25.85 9.1 L25.6 10.15 23.0 18.75 22.7 19.65 22.55 20.25 22.3 21.4 Q22.4 22.45 23.05 22.4 L23.2 22.35 23.25 22.35 23.6 22.15 24.1 21.1 24.25 20.85 Q26.0 17.4 28.25 14.25 32.7 8.05 35.4 7.65 M23.05 23.2 L23.6 22.15 M21.7 23.65 L22.3 21.4 M24.7 3.35 Q26.2 5.2 21.45 18.45 L20.8 20.05 20.15 21.85 Q19.0 25.2 17.65 26.75 L17.6 26.7 17.55 26.75 17.5 26.8 M13.4 20.8 L12.6 22.6 M12.35 24.5 L13.1 25.4 13.75 25.9 M9.4 37.05 L9.35 38.55 9.95 39.3 10.1 39.4 M11.0 39.5 L11.3 39.55 12.1 40.15 12.5 40.5 13.7 41.05 Q15.0 41.35 15.9 40.35 L18.75 34.8 19.0 34.3 M9.4 36.3 L9.75 29.4 10.15 25.3 M9.4 37.05 L9.4 36.3 M12.1 40.15 Q10.9 40.1 10.1 39.4 M26.8 22.0 L23.75 24.9 23.55 25.15 M21.7 25.2 L22.0 24.95" fill="none" stroke="#000000" stroke-linecap="round" stroke-linejoin="round" stroke-opacity="0.3019608" stroke-width="0.05"/>
      <path d="M14.8 31.65 L15.3 31.1 16.1 31.75 16.8 32.45 17.3 32.9 17.3 32.95 17.25 33.0 16.85 33.45 16.35 32.9 15.6 32.3 14.8 31.65" fill="#e2bf72" fill-opacity="0.03137255" fill-rule="evenodd" stroke="none"/>
      <path d="M15.4 29.85 L14.7 30.6 14.15 30.1 13.95 29.95 14.6 29.3 14.7 29.2 15.0 29.45 15.05 29.55 15.4 29.85 M14.2 32.3 L14.6 31.85 14.8 31.65 15.6 32.3 15.05 33.0 14.2 32.3 M15.3 31.1 L16.0 30.35 16.75 31.1 16.1 31.75 15.3 31.1" fill="#000000" fill-opacity="0.023529412" fill-rule="evenodd" stroke="none"/>
      <path d="M17.0 27.15 L16.15 27.8 15.2 28.7 15.8 29.25 15.9 29.3 17.0 28.2 17.35 27.9 M16.0 30.35 L15.5 29.9 15.4 29.85 14.7 30.6 14.2 31.2 13.6 31.9 Q13.9 32.05 14.2 32.3 L14.6 31.85 14.8 31.65 15.3 31.1 16.0 30.35 16.75 31.1 17.25 30.65 17.25 30.6 17.15 30.5 17.1 30.45 16.45 29.85 16.35 29.7 15.9 29.3 M15.4 29.85 L15.05 29.55 15.0 29.45 14.7 29.2 14.6 29.3 13.95 29.95 14.15 30.1 14.7 30.6 M15.2 28.7 L14.9 28.4 14.05 27.65 M14.7 29.2 L14.6 29.15 14.05 28.6 13.75 28.35 13.55 28.15 M17.3 29.05 L16.5 29.85 16.45 29.85 M13.95 29.95 L13.55 29.6 13.1 29.1 M12.1 31.0 L12.75 31.4 13.4 30.6 12.65 30.05 M13.6 31.9 L13.3 31.7 13.15 31.65 12.75 31.4 M13.4 30.6 L13.65 30.8 13.8 30.85 14.2 31.2 M13.55 33.15 L13.7 32.95 13.1 32.5 12.35 31.9 11.85 32.6 M19.15 31.1 L18.9 31.3 18.55 31.65 18.45 31.75 18.6 31.95 19.15 32.6 M16.8 32.45 L17.4 31.8 17.5 31.65 17.55 31.6 17.9 31.25 18.15 30.95 19.2 29.95 M17.4 31.8 L17.45 31.85 17.5 31.85 17.55 31.9 17.95 32.35 18.5 33.15 18.65 33.5 M18.45 31.75 L17.9 31.25 M15.6 32.3 L16.35 32.9 16.85 33.45 17.25 33.0 17.3 32.95 17.3 32.9 16.8 32.45 16.1 31.75 15.3 31.1 M17.3 32.95 L17.95 32.35 M16.1 31.75 L16.75 31.1 M17.25 30.6 L17.3 30.55 18.85 29.15 M13.7 32.95 L14.55 33.6 15.05 33.0 14.2 32.3 M16.35 32.9 L16.25 33.0 15.7 33.65 16.2 34.2 16.4 33.95 16.5 33.9 16.85 33.45 M15.7 33.65 L15.2 34.25 15.65 34.65 15.7 34.75 16.35 35.35 M16.9 34.9 L16.65 34.75 16.6 34.7 16.25 34.25 16.2 34.2 M15.05 33.0 L15.6 32.3 14.8 31.65 M16.6 35.95 L16.8 35.7 16.95 35.45 17.45 34.75" fill="none" stroke="#000000" stroke-linecap="round" stroke-linejoin="miter" stroke-opacity="0.03137255" stroke-width="0.1"/>
      <path d="M8.3 40.5 Q5.35 38.5 5.2 34.15 5.1 29.9 7.9 25.85 10.6 22.0 14.55 20.6 18.5 19.35 21.45 21.5 24.3 23.55 24.4 27.8 24.4 32.1 21.7 36.0 19.0 40.0 15.1 41.4 11.15 42.65 8.3 40.5" fill="url(#gradient0)" fill-rule="evenodd" stroke="none"/>
      <path d="M32.4 11.25 Q29.75 14.05 26.9 19.05 L25.9 20.65 27.55 19.3 Q30.8 16.35 32.85 13.3 34.25 11.15 35.15 9.0 L35.05 9.05 Q34.05 9.6 32.85 10.8 L32.4 11.25 M35.4 7.65 L35.55 7.65 Q36.3 7.65 36.5 8.3 L36.55 8.95 35.95 10.35 34.85 12.4 33.45 14.35 32.85 15.15 Q30.3 18.5 26.8 22.0 L23.75 24.9 23.55 25.15 22.3 27.75 19.0 34.3 18.75 34.8 15.9 40.35 Q15.0 41.35 13.7 41.05 L12.5 40.5 12.1 40.15 Q10.9 40.1 10.1 39.4 L9.95 39.3 9.35 38.55 9.4 37.05 9.4 36.3 9.75 29.4 10.15 25.3 10.15 25.25 Q14.55 13.9 18.15 8.75 L18.6 8.0 Q22.2 3.3 24.1 2.55 L25.35 2.45 25.35 2.5 Q25.8 2.7 26.05 3.35 L26.4 4.85 26.2 7.5 25.85 9.1 25.6 10.15 23.0 18.75 22.7 19.65 22.55 20.25 22.3 21.4 Q22.4 22.45 23.05 22.4 L23.2 22.35 23.25 22.35 23.6 22.15 24.1 21.1 24.25 20.85 Q26.0 17.4 28.25 14.25 30.85 10.65 32.85 9.0 34.3 7.8 35.4 7.65 M24.65 3.35 L24.7 3.35 Q26.2 5.2 21.45 18.45 L20.8 20.05 20.15 21.85 Q19.0 25.2 17.65 26.75 L17.6 26.7 17.55 26.75 17.5 26.8 17.2 27.0 17.0 27.0 16.8 27.0 Q15.15 26.75 14.0 26.05 L13.75 25.9 13.1 25.4 12.35 24.5 12.4 24.0 12.6 22.65 12.6 22.6 13.4 20.8 13.75 20.1 Q18.15 10.6 21.4 6.15 L23.5 3.8 24.05 3.45 24.5 3.35 24.65 3.35" fill="none" stroke="#000000" stroke-linecap="round" stroke-linejoin="round" stroke-opacity="0.3019608" stroke-width="0.5"/>
    </g>
    <radialGradient cx="0" cy="0" gradientTransform="matrix(0.0104, -0.0151, 0.011, 0.008, 14.85, 31.05)" gradientUnits="userSpaceOnUse" id="gradient0" r="819.2" spreadMethod="pad">
      <stop offset="0.0" stop-color="#ffffde" stop-opacity="0.52156866"/>
      <stop offset="0.4117647058823529" stop-color="#ffffcc" stop-opacity="0.0"/>
    </radialGradient>
  </defs>
</svg>
