<?xml version="1.0" encoding="UTF-8" standalone="no"?>
<svg xmlns:xlink="http://www.w3.org/1999/xlink" height="440.0px" width="440.0px" xmlns="http://www.w3.org/2000/svg">
  <g transform="matrix(10.0, 0.0, 0.0, 10.0, 0.0, 0.0)">
    <use height="44.0" transform="matrix(1.0, 0.0, 0.0, 1.0, 0.0, 0.0)" width="44.0" xlink:href="#shape0"/>
    <use height="38.5" transform="matrix(-1.0, 0.0, 0.0, 1.0, 41.95, 6.05)" width="38.65" xlink:href="#sprite0"/>
    <use height="36.7" transform="matrix(1.0, 0.0, 0.0, 1.0, 2.9, 5.55)" width="39.05" xlink:href="#shape13"/>
  </g>
  <defs>
    <g id="shape0" transform="matrix(1.0, 0.0, 0.0, 1.0, 0.0, 0.0)">
      <path d="M44.0 44.0 L0.0 44.0 0.0 0.0 44.0 0.0 44.0 44.0" fill="#43adca" fill-opacity="0.0" fill-rule="evenodd" stroke="none"/>
    </g>
    <g id="sprite0" transform="matrix(1.0, 0.0, 0.0, 1.0, 1.25, 0.0)">
      <use height="12.9" transform="matrix(1.7112, 0.2735, 0.0, 1.8335, 15.4976, 11.6167)" width="11.85" xlink:href="#sprite1"/>
      <use height="19.95" transform="matrix(1.0, 0.0, 0.0, 1.0, 17.1, 15.85)" width="17.4" xlink:href="#shape4"/>
      <use height="13.7" transform="matrix(0.6566, 0.0, 0.0, 0.6566, 18.55, 21.45)" width="12.9" xlink:href="#sprite3"/>
      <use height="34.1" transform="matrix(1.0, 0.0, 0.0, 1.0, 0.0, 0.0)" width="36.35" xlink:href="#shape5"/>
      <use height="25.3" transform="matrix(0.3991, -0.3991, 0.319, 0.1191, 11.5, 18.25)" width="25.3" xlink:href="#sprite6"/>
      <use height="10.2" transform="matrix(1.0, 0.0, 0.0, 1.0, -0.85, 8.95)" width="38.25" xlink:href="#shape7"/>
      <use height="13.5" transform="matrix(1.0, 0.0, 0.0, 1.0, 20.5, 8.55)" width="12.4" xlink:href="#sprite7"/>
      <use height="8.85" transform="matrix(1.0, 0.0, 0.0, 1.0, 23.65, 12.05)" width="8.6" xlink:href="#shape9"/>
      <use height="13.7" transform="matrix(1.0, 0.0, 0.0, 1.0, 23.45, 11.75)" width="12.9" xlink:href="#sprite8"/>
      <use height="13.7" transform="matrix(0.4186, 0.0, 0.0, 0.4186, -1.25, 9.85)" width="12.9" xlink:href="#sprite8"/>
      <use height="13.7" transform="matrix(0.4186, 0.0, 0.0, 0.4186, 3.9, 13.55)" width="12.9" xlink:href="#sprite8"/>
      <use height="13.7" transform="matrix(0.4186, 0.0, 0.0, 0.4186, 12.05, 14.45)" width="12.9" xlink:href="#sprite8"/>
      <use height="18.65" transform="matrix(1.0, 0.0, 0.0, 1.0, 12.7, 7.5)" width="24.6" xlink:href="#shape12"/>
    </g>
    <g id="sprite1" transform="matrix(1.0, 0.0, 0.0, 1.0, 1.55, 8.05)">
      <use height="23.25" transform="matrix(0.5536, 0.0, 0.0, 0.5536, 0.2508, -8.0415)" width="17.15" xlink:href="#sprite2"/>
      <use height="13.7" transform="matrix(0.313, 0.0, 0.0, 0.313, 6.25, -5.35)" width="12.9" xlink:href="#sprite3"/>
      <use height="13.7" transform="matrix(0.313, 0.0, 0.0, 0.313, -1.55, -4.65)" width="12.9" xlink:href="#sprite3"/>
    </g>
    <g id="sprite2" transform="matrix(1.0, 0.0, 0.0, 1.0, -25.2, -15.55)">
      <use height="23.25" transform="matrix(1.0, 0.0, 0.0, 1.0, 25.2, 15.55)" width="17.15" xlink:href="#shape1"/>
    </g>
    <g id="shape1" transform="matrix(1.0, 0.0, 0.0, 1.0, -0.2, 0.1)">
      <path d="M13.7 9.05 L13.9 10.5 13.55 10.75 13.55 8.85 13.65 9.0 13.7 9.05" fill="url(#gradient0)" fill-rule="evenodd" stroke="none"/>
      <path d="M13.55 8.85 L13.7 8.95 13.75 8.95 13.7 9.05 13.65 9.0 13.55 8.85" fill="#eebe00" fill-rule="evenodd" stroke="none"/>
      <path d="M12.25 16.1 L12.25 16.3 12.1 16.2 12.25 16.1" fill="#805618" fill-rule="evenodd" stroke="none"/>
      <path d="M4.45 13.85 L4.45 11.05 9.7 7.9 9.7 7.95 9.75 7.9 12.15 6.95 12.2 7.05 12.2 7.3 12.15 7.65 12.05 8.25 12.1 10.05 4.45 13.85" fill="#30230f" fill-rule="evenodd" stroke="none"/>
      <path d="M12.1 10.05 L12.2 12.7 4.45 16.45 4.45 13.85 12.1 10.05" fill="#573a10" fill-rule="evenodd" stroke="none"/>
      <path d="M12.2 12.7 L12.25 16.1 12.1 16.2 4.5 20.1 4.45 20.1 4.45 16.45 12.2 12.7" fill="#734d15" fill-rule="evenodd" stroke="none"/>
      <path d="M12.25 16.3 L12.1 16.2" fill="none" stroke="#000000" stroke-linecap="round" stroke-linejoin="round" stroke-opacity="0.3019608" stroke-width="0.2"/>
      <path d="M12.1 16.2 L4.5 20.1 M12.1 16.2 L12.25 16.1 M12.2 12.7 L4.45 16.45" fill="none" stroke="#000000" stroke-linecap="round" stroke-linejoin="round" stroke-opacity="0.2" stroke-width="0.2"/>
      <path d="M14.25 7.1 Q13.8 7.1 13.45 7.45 13.1 7.8 13.1 8.25 13.1 8.7 13.45 9.05 L14.25 9.35 15.05 9.05 15.35 8.25 15.05 7.45 Q14.7 7.1 14.25 7.1" fill="#ffffcc" fill-rule="evenodd" stroke="none"/>
      <path d="M4.4 20.25 L3.6 9.6 12.45 6.75 Q6.65 10.85 5.85 18.65 4.7 19.6 4.4 20.25" fill="#000000" fill-opacity="0.2" fill-rule="evenodd" stroke="none"/>
      <path d="M8.7 3.95 L9.4 3.6 9.6 3.5 11.05 2.85 11.35 2.75 11.5 2.65 Q14.65 8.35 17.25 7.7 L17.25 14.25 Q15.3 10.55 13.55 8.2 L13.55 6.35 12.45 6.85 Q10.45 4.5 8.7 3.95 M0.2 10.7 Q3.2 16.35 4.45 13.6 L4.45 19.8 Q1.2 14.45 0.2 15.2 L0.2 10.7" fill="#eebe00" fill-rule="evenodd" stroke="none"/>
      <path d="M8.7 3.95 Q10.45 4.5 12.45 6.85 L12.15 6.95 9.75 7.9 9.75 7.75 9.7 7.9 4.45 11.05 4.45 13.6 Q3.2 16.35 0.2 10.7 L0.2 8.95 0.3 7.75 0.35 7.75 8.7 3.95 M13.55 8.2 Q15.3 10.55 17.25 14.25 L17.25 14.8 17.25 14.95 13.55 16.8 13.55 10.75 13.9 10.5 13.7 9.05 13.75 8.95 13.7 8.95 13.55 8.85 13.55 8.2 M17.25 7.7 Q14.65 8.35 11.5 2.65 L12.45 2.2 17.25 0.0 17.25 7.7 M4.45 20.15 L4.45 20.3 4.45 21.25 0.75 23.05 0.75 22.2 0.2 22.2 0.2 15.2 Q1.2 14.45 4.45 19.8 L4.45 20.1 4.45 20.15" fill="url(#gradient1)" fill-rule="evenodd" stroke="none"/>
      <path d="M12.45 6.85 L13.55 6.35 13.55 8.2 13.55 8.85 13.55 10.75 13.55 16.8 12.25 16.3 12.05 8.25 12.15 7.65 12.2 7.3 12.2 7.05 12.15 6.95 12.45 6.85" fill="#a26409" fill-rule="evenodd" stroke="none"/>
      <path d="M17.25 14.25 L17.25 7.7 M11.5 2.65 L12.45 2.2 17.25 0.0 17.25 7.7 M13.55 16.8 L17.25 14.95 17.25 14.8 M12.25 16.3 L13.55 16.8 M4.45 20.15 L4.45 20.1 M0.75 23.05 L4.45 21.25 4.45 20.3" fill="none" stroke="#000000" stroke-linecap="round" stroke-linejoin="round" stroke-opacity="0.3019608" stroke-width="0.2"/>
      <path d="M0.2 8.95 L0.2 10.7 0.2 15.2 0.2 22.2" fill="none" stroke="#ffd304" stroke-linecap="round" stroke-linejoin="round" stroke-opacity="0.4" stroke-width="0.05"/>
      <path d="M4.45 20.3 L4.45 20.15" fill="none" stroke="#000000" stroke-linecap="round" stroke-linejoin="round" stroke-opacity="0.2" stroke-width="0.2"/>
    </g>
    <linearGradient gradientTransform="matrix(-0.0015, -0.0057, -0.0112, 0.003, 0.85, 7.85)" gradientUnits="userSpaceOnUse" id="gradient0" spreadMethod="pad" x1="-819.2" x2="819.2">
      <stop offset="0.0" stop-color="#bd8406"/>
      <stop offset="1.0" stop-color="#eebe00"/>
    </linearGradient>
    <linearGradient gradientTransform="matrix(-0.0015, -0.0056, 0.0102, -0.0027, 10.1, 6.9)" gradientUnits="userSpaceOnUse" id="gradient1" spreadMethod="pad" x1="-819.2" x2="819.2">
      <stop offset="0.0" stop-color="#bd8406"/>
      <stop offset="1.0" stop-color="#eebe00"/>
    </linearGradient>
    <g id="sprite3" transform="matrix(1.0, 0.0, 0.0, 1.0, 0.0, 0.0)">
      <use height="5.1" transform="matrix(2.6863, 0.0, 0.0, 2.6863, 0.0176, -0.001)" width="4.8" xlink:href="#sprite4"/>
      <use height="5.1" transform="matrix(1.7342, 0.0, 0.0, 1.7342, 2.2886, 2.4652)" width="4.8" xlink:href="#sprite4"/>
    </g>
    <g id="sprite4" transform="matrix(1.0, 0.0, 0.0, 1.0, 1.65, 1.75)">
      <use height="1.6" transform="matrix(1.0, 0.0, 0.0, 1.0, 0.0, 0.0)" width="1.5" xlink:href="#shape2"/>
      <use height="1.6" transform="matrix(3.1875, 0.0, 0.0, 3.1875, -1.65, -1.75)" width="1.5" xlink:href="#sprite5"/>
    </g>
    <g id="shape2" transform="matrix(1.0, 0.0, 0.0, 1.0, 0.0, 0.0)">
      <path d="M0.75 0.0 Q0.45 0.0 0.25 0.25 0.0 0.45 0.0 0.8 L0.25 1.35 Q0.45 1.6 0.75 1.6 L1.3 1.35 1.5 0.8 1.3 0.25 0.75 0.0" fill="#ffffcc" fill-opacity="0.41960785" fill-rule="evenodd" stroke="none"/>
    </g>
    <g id="sprite5" transform="matrix(1.0, 0.0, 0.0, 1.0, 0.0, 0.0)">
      <use height="1.6" transform="matrix(1.0, 0.0, 0.0, 1.0, 0.0, 0.0)" width="1.5" xlink:href="#shape3"/>
    </g>
    <g id="shape3" transform="matrix(1.0, 0.0, 0.0, 1.0, 0.0, 0.0)">
      <path d="M0.75 0.0 Q0.45 0.0 0.25 0.25 0.0 0.45 0.0 0.8 L0.25 1.35 Q0.45 1.6 0.75 1.6 L1.3 1.35 1.5 0.8 1.3 0.25 0.75 0.0" fill="#ffffcc" fill-opacity="0.41960785" fill-rule="evenodd" stroke="none"/>
    </g>
    <g id="shape4" transform="matrix(1.0, 0.0, 0.0, 1.0, -17.1, -15.85)">
      <path d="M22.95 23.95 L20.55 26.8 18.85 27.55 17.45 26.15 17.9 16.8 34.5 15.85 33.9 18.5 30.5 20.15 30.15 21.2 27.4 21.7 22.95 23.95" fill="#000000" fill-opacity="0.2" fill-rule="evenodd" stroke="none"/>
      <path d="M19.3 25.4 L19.15 35.7 17.2 33.9 17.35 23.1 19.3 25.4" fill="#a36509" fill-rule="evenodd" stroke="none"/>
      <path d="M19.15 35.7 L17.2 33.9 17.35 23.1 19.3 25.4" fill="none" stroke="#000000" stroke-linecap="round" stroke-linejoin="round" stroke-opacity="0.2" stroke-width="0.2"/>
    </g>
    <g id="shape5" transform="matrix(1.0, 0.0, 0.0, 1.0, 0.0, 0.0)">
      <path d="M19.2 30.05 Q18.95 30.05 18.75 30.25 L18.55 30.75 18.75 31.2 19.2 31.45 19.7 31.2 19.9 30.75 19.7 30.25 19.2 30.05" fill="#ffffcc" fill-rule="evenodd" stroke="none"/>
      <path d="M20.0 28.3 Q19.5 28.25 19.1 28.55 18.4 28.9 18.2 29.65 17.95 30.4 18.35 31.05 L17.2 32.0 18.75 31.45 19.6 31.9 20.6 31.95 21.1 32.45 21.1 31.7 21.25 31.65 Q21.85 31.3 22.05 30.6 22.25 29.85 21.85 29.2 L21.2 28.55 Q20.8 28.05 21.2 26.75 20.75 27.85 20.0 28.3 M19.7 29.45 L20.4 29.35 21.05 29.75 21.15 30.5 20.65 31.0 19.95 31.15 19.3 30.7 Q19.1 30.35 19.2 29.95 19.3 29.6 19.7 29.45" fill="#fcf3d8" fill-opacity="0.3019608" fill-rule="evenodd" stroke="none"/>
      <path d="M19.7 29.45 Q19.3 29.6 19.2 29.95 19.1 30.35 19.3 30.7 L19.95 31.15 20.65 31.0 21.15 30.5 21.05 29.75 20.4 29.35 19.7 29.45" fill="#fcf3d8" fill-rule="evenodd" stroke="none"/>
      <path d="M20.3 29.7 L18.35 27.5 19.85 29.9 18.65 31.65 20.3 30.7 23.25 34.1 20.85 30.25 25.9 25.1 20.3 29.7" fill="#fcf3d8" fill-rule="evenodd" stroke="none"/>
      <path d="M32.95 8.45 Q34.55 6.5 35.2 4.6 L35.05 3.9 Q34.0 2.65 27.4 2.0 13.85 1.25 5.7 3.1 L4.05 3.95 Q0.1 6.15 1.25 8.7 L3.15 10.4 3.6 10.65 2.95 11.25 2.8 11.15 2.6 11.0 Q1.1 9.85 0.15 7.55 L0.0 6.7 Q-0.05 5.75 0.9 5.15 3.5 3.05 5.7 2.35 L15.95 1.35 Q18.0 1.25 20.05 1.3 L23.55 1.3 Q26.35 1.05 27.75 0.0 L28.7 0.6 26.85 1.35 28.5 1.55 31.2 2.0 Q35.4 2.8 36.15 4.0 35.4 7.55 33.55 9.75 L32.75 10.6 32.6 10.65 Q28.95 12.5 25.25 13.4 L18.65 14.25 14.95 14.1 8.9 13.35 Q5.95 12.7 3.5 11.5 L4.15 10.95 Q7.45 12.65 13.15 13.0 L18.35 12.95 Q23.4 12.65 27.95 11.4 30.55 10.95 31.75 9.7 L32.95 8.45" fill="#996600" fill-rule="evenodd" stroke="none"/>
      <path d="M4.15 10.95 L3.5 11.5 Q5.95 12.7 8.9 13.35 10.45 13.95 10.4 16.2 L9.6 17.15 Q9.5 18.15 10.9 19.15 L8.6 18.55 Q4.4 16.8 1.6 14.2 0.9 13.5 0.65 12.4 0.6 10.2 0.15 7.55 1.1 9.85 2.6 11.0 L2.8 11.15 2.95 11.25 3.6 10.65 Q3.8 11.1 4.15 10.95 M2.95 11.25 L3.7 14.2 3.5 11.5 Q3.25 11.65 2.95 11.25" fill="#754f00" fill-rule="evenodd" stroke="none"/>
      <path d="M8.9 13.35 L14.95 14.1 18.65 14.25 20.1 20.2 Q15.35 20.2 10.9 19.15 9.5 18.15 9.6 17.15 L10.4 16.2 Q10.45 13.95 8.9 13.35 M2.95 11.25 Q3.25 11.65 3.5 11.5 L3.7 14.2 2.95 11.25" fill="#513600" fill-rule="evenodd" stroke="none"/>
      <path d="M16.05 6.5 Q15.1 5.95 14.85 6.65 L12.1 3.8 16.05 6.5 M12.9 6.85 Q12.0 6.25 11.9 7.0 L10.05 3.25 12.9 6.85" fill="#241800" fill-rule="evenodd" stroke="none"/>
      <path d="M18.65 14.25 L25.25 13.4 25.4 19.9 20.1 20.2 18.65 14.25" fill="#362400" fill-rule="evenodd" stroke="none"/>
      <path d="M25.25 13.4 Q28.95 12.5 32.6 10.65 L32.75 10.6 33.55 9.75 Q35.4 7.55 36.15 4.0 L36.05 8.9 36.35 11.35 Q36.0 13.8 34.5 15.8 L27.95 19.55 25.4 19.9 25.25 13.4 M28.5 1.55 L26.85 1.35 28.7 0.6 28.5 1.55" fill="#472f00" fill-rule="evenodd" stroke="none"/>
      <path d="M35.05 3.9 Q33.55 7.35 28.5 7.0 L17.2 6.45 16.05 6.5 12.1 3.8 14.85 6.65 12.9 6.85 10.05 3.25 11.9 7.0 8.4 7.75 Q1.9 7.9 4.05 3.95 L5.7 3.1 Q13.85 1.25 27.4 2.0 34.0 2.65 35.05 3.9" fill="#291a00" fill-rule="evenodd" stroke="none"/>
      <path d="M35.05 3.9 L35.2 4.6 Q34.55 6.5 32.95 8.45 32.9 8.0 32.25 7.75 L28.5 7.0 Q33.55 7.35 35.05 3.9 M3.15 10.4 L1.25 8.7 Q0.1 6.15 4.05 3.95 1.9 7.9 8.4 7.75 4.65 8.7 3.15 10.4" fill="#1c1200" fill-rule="evenodd" stroke="none"/>
      <path d="M32.95 8.45 Q34.55 6.5 35.2 4.6 L35.05 3.9 M28.5 7.0 L32.25 7.75 Q32.9 8.0 32.95 8.45 L31.75 9.7 Q30.55 10.95 27.95 11.4 23.4 12.65 18.35 12.95 L13.15 13.0 Q7.45 12.65 4.15 10.95 3.8 11.1 3.6 10.65 L3.15 10.4 1.25 8.7 Q0.1 6.15 4.05 3.95 L5.7 3.1 Q13.85 1.25 27.4 2.0 34.0 2.65 35.05 3.9 M36.15 4.0 Q35.4 2.8 31.2 2.0 L28.5 1.55 26.85 1.35 28.7 0.6 27.75 0.0 Q26.35 1.05 23.55 1.3 L20.05 1.3 Q18.0 1.25 15.95 1.35 L5.7 2.35 Q3.5 3.05 0.9 5.15 -0.05 5.75 0.0 6.7 L0.15 7.55 M25.4 19.9 L27.95 19.55 34.5 15.8 Q36.0 13.8 36.35 11.35 L36.05 8.9 36.15 4.0 M28.7 0.6 L28.5 1.55 M25.4 19.9 L20.1 20.2 Q15.35 20.2 10.9 19.15 L8.6 18.55 Q4.4 16.8 1.6 14.2 0.9 13.5 0.65 12.4 0.6 10.2 0.15 7.55 M16.05 6.5 Q15.1 5.95 14.85 6.65 L12.9 6.85 Q12.0 6.25 11.9 7.0 L8.4 7.75 Q4.65 8.7 3.15 10.4 M16.05 6.5 L17.2 6.45 28.5 7.0" fill="none" stroke="#000000" stroke-linecap="round" stroke-linejoin="round" stroke-opacity="0.4" stroke-width="0.05"/>
    </g>
    <g id="sprite6" transform="matrix(1.0, 0.0, 0.0, 1.0, 0.0, 0.0)">
      <use height="25.3" transform="matrix(1.0, 0.0, 0.0, 1.0, 0.0, 0.0)" width="25.3" xlink:href="#shape6"/>
    </g>
    <g id="shape6" transform="matrix(1.0, 0.0, 0.0, 1.0, 0.0, 0.0)">
      <path d="M21.6 21.6 Q17.9 25.3 12.65 25.3 7.4 25.3 3.7 21.6 0.0 17.9 0.0 12.65 0.0 7.4 3.7 3.7 7.4 0.0 12.65 0.0 17.9 0.0 21.6 3.7 25.3 7.4 25.3 12.65 25.3 17.9 21.6 21.6" fill="url(#gradient2)" fill-rule="evenodd" stroke="none"/>
    </g>
    <radialGradient cx="0" cy="0" gradientTransform="matrix(0.0162, 0.0, 0.0, 0.0162, 12.65, 12.65)" gradientUnits="userSpaceOnUse" id="gradient2" r="819.2" spreadMethod="pad">
      <stop offset="0.00784313725490196" stop-color="#fac09f"/>
      <stop offset="1.0" stop-color="#faca9f" stop-opacity="0.0"/>
    </radialGradient>
    <g id="shape7" transform="matrix(1.0, 0.0, 0.0, 1.0, 0.85, -8.95)">
      <path d="M15.25 16.2 Q15.7 15.7 16.45 15.7 17.15 15.7 17.65 16.2 18.1 16.7 18.1 17.4 18.1 18.1 17.65 18.6 17.15 19.05 16.45 19.05 15.7 19.05 15.25 18.6 14.75 18.1 14.75 17.4 14.75 16.7 15.25 16.2" fill="#bd8406" fill-rule="evenodd" stroke="none"/>
      <path d="M15.25 16.2 Q15.7 15.7 16.45 15.7 17.15 15.7 17.65 16.2 18.1 16.7 18.1 17.4 18.1 18.1 17.65 18.6 17.15 19.05 16.45 19.05 15.7 19.05 15.25 18.6 14.75 18.1 14.75 17.4 14.75 16.7 15.25 16.2 Z" fill="none" stroke="#000000" stroke-linecap="round" stroke-linejoin="round" stroke-opacity="0.15294118" stroke-width="0.2"/>
      <path d="M17.15 16.1 Q16.85 16.1 16.65 16.35 16.4 16.55 16.4 16.9 L16.65 17.45 Q16.85 17.7 17.15 17.7 L17.7 17.45 17.9 16.9 17.7 16.35 17.15 16.1" fill="#ffffcc" fill-rule="evenodd" stroke="none"/>
      <path d="M5.9 14.6 Q6.35 14.1 7.1 14.1 7.8 14.1 8.3 14.6 L8.75 15.8 Q8.75 16.5 8.3 17.0 7.8 17.45 7.1 17.45 6.35 17.45 5.9 17.0 5.4 16.5 5.4 15.8 5.4 15.1 5.9 14.6" fill="#bd8406" fill-rule="evenodd" stroke="none"/>
      <path d="M5.9 14.6 Q6.35 14.1 7.1 14.1 7.8 14.1 8.3 14.6 L8.75 15.8 Q8.75 16.5 8.3 17.0 7.8 17.45 7.1 17.45 6.35 17.45 5.9 17.0 5.4 16.5 5.4 15.8 5.4 15.1 5.9 14.6 Z" fill="none" stroke="#000000" stroke-linecap="round" stroke-linejoin="round" stroke-opacity="0.15294118" stroke-width="0.2"/>
      <path d="M7.8 14.5 Q7.5 14.5 7.3 14.75 7.05 14.95 7.05 15.3 L7.3 15.85 7.8 16.1 8.35 15.85 8.55 15.3 8.35 14.75 Q8.1 14.5 7.8 14.5" fill="#ffffcc" fill-rule="evenodd" stroke="none"/>
      <path d="M-0.25 10.95 Q0.2 10.45 0.95 10.45 1.65 10.45 2.15 10.95 2.6 11.45 2.6 12.15 2.6 12.85 2.15 13.35 1.65 13.8 0.95 13.8 0.2 13.8 -0.25 13.35 -0.75 12.85 -0.75 12.15 -0.75 11.45 -0.25 10.95" fill="#bd8406" fill-rule="evenodd" stroke="none"/>
      <path d="M-0.25 10.95 Q0.2 10.45 0.95 10.45 1.65 10.45 2.15 10.95 2.6 11.45 2.6 12.15 2.6 12.85 2.15 13.35 1.65 13.8 0.95 13.8 0.2 13.8 -0.25 13.35 -0.75 12.85 -0.75 12.15 -0.75 11.45 -0.25 10.95 Z" fill="none" stroke="#000000" stroke-linecap="round" stroke-linejoin="round" stroke-opacity="0.15294118" stroke-width="0.2"/>
      <path d="M1.65 10.85 Q1.35 10.85 1.15 11.1 0.9 11.3 0.9 11.65 L1.15 12.2 Q1.35 12.45 1.65 12.45 L2.2 12.2 2.4 11.65 2.2 11.1 1.65 10.85" fill="#ffffcc" fill-rule="evenodd" stroke="none"/>
      <path d="M34.45 9.55 Q34.9 9.05 35.65 9.05 36.35 9.05 36.85 9.55 37.3 10.05 37.3 10.75 37.3 11.45 36.85 11.95 36.35 12.4 35.65 12.4 34.9 12.4 34.45 11.95 33.95 11.45 33.95 10.75 33.95 10.05 34.45 9.55" fill="#bd8406" fill-rule="evenodd" stroke="none"/>
      <path d="M34.45 9.55 Q34.9 9.05 35.65 9.05 36.35 9.05 36.85 9.55 37.3 10.05 37.3 10.75 37.3 11.45 36.85 11.95 36.35 12.4 35.65 12.4 34.9 12.4 34.45 11.95 33.95 11.45 33.95 10.75 33.95 10.05 34.45 9.55 Z" fill="none" stroke="#000000" stroke-linecap="round" stroke-linejoin="round" stroke-opacity="0.15294118" stroke-width="0.2"/>
      <path d="M36.35 9.45 Q36.05 9.45 35.85 9.7 35.6 9.9 35.6 10.25 L35.85 10.8 Q36.05 11.05 36.35 11.05 L36.9 10.8 37.1 10.25 36.9 9.7 Q36.65 9.45 36.35 9.45" fill="#ffffcc" fill-rule="evenodd" stroke="none"/>
    </g>
    <g id="sprite7" transform="matrix(1.0, 0.0, 0.0, 1.0, 0.1, 0.1)">
      <use height="13.5" transform="matrix(1.0, 0.0, 0.0, 1.0, -0.1, -0.1)" width="12.4" xlink:href="#shape8"/>
    </g>
    <g id="shape8" transform="matrix(1.0, 0.0, 0.0, 1.0, 0.1, 0.1)">
      <path d="M0.85 3.55 Q2.1 4.25 4.4 4.05 L4.75 3.95 Q2.85 5.2 2.1 6.4 2.35 5.0 0.85 3.55" fill="#fff06a" fill-rule="evenodd" stroke="none"/>
      <path d="M1.0 5.5 L1.05 5.15 0.0 4.05 0.1 2.85 0.85 3.55 Q2.35 5.0 2.1 6.4 L1.95 7.6 1.0 5.5" fill="#f6c239" fill-rule="evenodd" stroke="none"/>
      <path d="M1.9 11.55 L0.9 10.75 1.0 5.5 1.95 7.6 2.0 9.5 1.9 11.55 M0.1 2.85 L2.55 1.95 3.2 1.65 3.7 1.55 Q5.15 1.05 6.75 0.7 L7.9 0.45 8.8 0.2 8.95 0.15 9.45 0.1 9.65 0.0 10.0 0.45 11.35 1.7 7.1 3.3 4.75 3.95 4.4 4.05 Q2.1 4.25 0.85 3.55 L0.1 2.85" fill="#dda515" fill-rule="evenodd" stroke="none"/>
      <path d="M12.2 3.25 L12.15 6.2 Q5.65 8.7 2.0 9.5 L1.95 7.6 2.1 6.4 Q2.85 5.2 4.75 3.95 L7.1 3.3 12.2 3.25" fill="#ae7400" fill-rule="evenodd" stroke="none"/>
      <path d="M11.35 1.7 L11.4 1.75 12.2 3.25 7.1 3.3 11.35 1.7" fill="#ca8f00" fill-rule="evenodd" stroke="none"/>
      <path d="M12.05 8.1 L12.05 9.55 9.95 11.7 4.3 13.3 4.05 13.15 4.35 13.0 4.45 13.0 Q8.95 10.35 12.05 8.1" fill="#965f00" fill-rule="evenodd" stroke="none"/>
      <path d="M12.15 6.2 L12.05 8.1 Q8.95 10.35 4.45 13.0 L4.35 13.0 4.05 13.15 1.9 11.55 2.0 9.5 Q5.65 8.7 12.15 6.2" fill="#a66c00" fill-rule="evenodd" stroke="none"/>
      <path d="M12.15 6.2 L12.05 8.1 12.05 9.55 9.95 11.7 4.3 13.3 4.05 13.15 1.9 11.55 0.9 10.75 1.0 5.5 1.05 5.15 0.0 4.05 0.1 2.85 2.55 1.95 3.2 1.65 3.7 1.55 Q5.15 1.05 6.75 0.7 L7.9 0.45 8.8 0.2 M8.95 0.15 L9.45 0.1 9.65 0.0 10.0 0.45 11.35 1.7 11.4 1.75 12.2 3.25 12.15 6.2 Z" fill="none" stroke="#502300" stroke-linecap="round" stroke-linejoin="round" stroke-opacity="0.2509804" stroke-width="0.25"/>
    </g>
    <g id="shape9" transform="matrix(1.0, 0.0, 0.0, 1.0, -23.65, -12.05)">
      <path d="M26.7 19.0 L28.05 18.6 27.85 15.45 28.5 14.85 Q29.15 14.25 29.15 13.55 L29.2 13.15 29.75 13.35 Q30.35 13.6 30.3 14.3 30.2 15.0 29.55 15.65 L28.9 16.2 29.2 19.4 27.8 19.7 26.45 20.2 26.7 19.0" fill="#493e2e" fill-rule="evenodd" stroke="none"/>
      <path d="M29.2 13.15 L29.15 13.55 Q29.15 14.25 28.5 14.85 L27.85 15.45 28.05 18.6 26.7 19.0 27.2 16.7 26.6 16.5 Q26.2 16.3 26.15 15.9 L26.1 15.55 Q26.15 14.85 26.8 14.2 27.45 13.5 28.3 13.25 L29.2 13.15" fill="#140f0c" fill-rule="evenodd" stroke="none"/>
      <path d="M26.7 19.0 L26.45 20.2 27.8 19.7 29.2 19.4 M29.2 13.15 L28.3 13.25 Q27.45 13.5 26.8 14.2 26.15 14.85 26.1 15.55 L26.15 15.9 Q26.2 16.3 26.6 16.5 L27.2 16.7 26.7 19.0 Z" fill="none" stroke="#130f12" stroke-linecap="round" stroke-linejoin="round" stroke-opacity="0.2" stroke-width="0.25"/>
      <path d="M24.0 19.5 Q24.25 19.3 24.55 19.3 L25.1 19.5 25.3 20.05 25.1 20.6 24.55 20.8 Q24.25 20.8 24.0 20.6 L23.8 20.05 24.0 19.5" fill="#bd8406" fill-rule="evenodd" stroke="none"/>
      <path d="M24.0 19.5 Q24.25 19.3 24.55 19.3 L25.1 19.5 25.3 20.05 25.1 20.6 24.55 20.8 Q24.25 20.8 24.0 20.6 L23.8 20.05 24.0 19.5 Z" fill="none" stroke="#000000" stroke-linecap="round" stroke-linejoin="round" stroke-opacity="0.15294118" stroke-width="0.2"/>
      <path d="M24.9 19.45 Q24.75 19.45 24.65 19.6 L24.55 19.85 24.65 20.1 24.9 20.2 25.1 20.1 25.2 19.85 25.1 19.6 24.9 19.45" fill="#ffffcc" fill-rule="evenodd" stroke="none"/>
      <path d="M30.6 17.95 Q30.85 17.75 31.15 17.75 L31.7 17.95 31.9 18.5 31.7 19.05 31.15 19.25 Q30.85 19.25 30.6 19.05 L30.4 18.5 30.6 17.95" fill="#bd8406" fill-rule="evenodd" stroke="none"/>
      <path d="M30.6 17.95 Q30.85 17.75 31.15 17.75 L31.7 17.95 31.9 18.5 31.7 19.05 31.15 19.25 Q30.85 19.25 30.6 19.05 L30.4 18.5 30.6 17.95 Z" fill="none" stroke="#000000" stroke-linecap="round" stroke-linejoin="round" stroke-opacity="0.15294118" stroke-width="0.2"/>
      <path d="M31.5 17.9 Q31.35 17.9 31.25 18.05 L31.15 18.3 31.25 18.55 31.5 18.65 31.7 18.55 31.8 18.3 31.7 18.05 31.5 17.9" fill="#ffffcc" fill-rule="evenodd" stroke="none"/>
      <path d="M30.85 12.35 L31.4 12.15 31.95 12.35 32.15 12.9 31.95 13.45 Q31.75 13.65 31.4 13.65 L30.85 13.45 30.65 12.9 30.85 12.35" fill="#bd8406" fill-rule="evenodd" stroke="none"/>
      <path d="M30.85 12.35 L31.4 12.15 31.95 12.35 32.15 12.9 31.95 13.45 Q31.75 13.65 31.4 13.65 L30.85 13.45 30.65 12.9 30.85 12.35 Z" fill="none" stroke="#000000" stroke-linecap="round" stroke-linejoin="round" stroke-opacity="0.15294118" stroke-width="0.2"/>
      <path d="M31.75 12.3 Q31.6 12.3 31.5 12.45 L31.4 12.7 31.5 12.95 31.75 13.05 31.95 12.95 32.05 12.7 31.95 12.45 31.75 12.3" fill="#ffffcc" fill-rule="evenodd" stroke="none"/>
      <path d="M23.95 14.3 L24.5 14.1 25.05 14.3 25.25 14.85 25.05 15.4 24.5 15.6 23.95 15.4 23.75 14.85 23.95 14.3" fill="#bd8406" fill-rule="evenodd" stroke="none"/>
      <path d="M23.95 14.3 L24.5 14.1 25.05 14.3 25.25 14.85 25.05 15.4 24.5 15.6 23.95 15.4 23.75 14.85 23.95 14.3 Z" fill="none" stroke="#000000" stroke-linecap="round" stroke-linejoin="round" stroke-opacity="0.15294118" stroke-width="0.2"/>
      <path d="M24.85 14.25 Q24.7 14.25 24.6 14.4 L24.5 14.65 24.6 14.9 24.85 15.0 25.05 14.9 25.15 14.65 25.05 14.4 24.85 14.25" fill="#ffffcc" fill-rule="evenodd" stroke="none"/>
    </g>
    <g id="sprite8" transform="matrix(1.0, 0.0, 0.0, 1.0, 0.0, 0.0)">
      <use height="5.1" transform="matrix(2.6863, 0.0, 0.0, 2.6863, 0.0176, -0.001)" width="4.8" xlink:href="#sprite9"/>
      <use height="5.1" transform="matrix(1.7342, 0.0, 0.0, 1.7342, 2.2886, 2.4652)" width="4.8" xlink:href="#sprite9"/>
    </g>
    <g id="sprite9" transform="matrix(1.0, 0.0, 0.0, 1.0, 1.65, 1.75)">
      <use height="1.6" transform="matrix(1.0, 0.0, 0.0, 1.0, 0.0, 0.0)" width="1.5" xlink:href="#shape10"/>
      <use height="1.6" transform="matrix(3.1875, 0.0, 0.0, 3.1875, -1.65, -1.75)" width="1.5" xlink:href="#sprite10"/>
    </g>
    <g id="shape10" transform="matrix(1.0, 0.0, 0.0, 1.0, 0.0, 0.0)">
      <path d="M0.75 0.0 Q0.45 0.0 0.25 0.25 0.0 0.45 0.0 0.8 L0.25 1.35 Q0.45 1.6 0.75 1.6 L1.3 1.35 1.5 0.8 1.3 0.25 0.75 0.0" fill="#ffffcc" fill-opacity="0.41960785" fill-rule="evenodd" stroke="none"/>
    </g>
    <g id="sprite10" transform="matrix(1.0, 0.0, 0.0, 1.0, 0.0, 0.0)">
      <use height="1.6" transform="matrix(1.0, 0.0, 0.0, 1.0, 0.0, 0.0)" width="1.5" xlink:href="#shape11"/>
    </g>
    <g id="shape11" transform="matrix(1.0, 0.0, 0.0, 1.0, 0.0, 0.0)">
      <path d="M0.75 0.0 Q0.45 0.0 0.25 0.25 0.0 0.45 0.0 0.8 L0.25 1.35 Q0.45 1.6 0.75 1.6 L1.3 1.35 1.5 0.8 1.3 0.25 0.75 0.0" fill="#ffffcc" fill-opacity="0.41960785" fill-rule="evenodd" stroke="none"/>
    </g>
    <g id="shape12" transform="matrix(1.0, 0.0, 0.0, 1.0, -12.7, -7.5)">
      <path d="M31.4 10.7 Q30.9 10.65 30.5 10.95 29.8 11.3 29.6 12.05 29.35 12.8 29.75 13.45 L28.6 14.4 30.15 13.85 31.0 14.3 32.0 14.35 32.5 14.85 32.5 14.1 32.65 14.05 Q33.25 13.7 33.45 13.0 33.65 12.25 33.25 11.6 L32.6 10.95 Q32.2 10.45 32.6 9.15 32.15 10.25 31.4 10.7 M31.1 11.85 L31.8 11.75 Q32.2 11.85 32.45 12.15 L32.55 12.9 32.05 13.4 31.35 13.55 Q30.9 13.4 30.7 13.1 30.5 12.75 30.6 12.35 30.7 12.0 31.1 11.85" fill="#fcf3d8" fill-opacity="0.3019608" fill-rule="evenodd" stroke="none"/>
      <path d="M31.1 11.85 Q30.7 12.0 30.6 12.35 30.5 12.75 30.7 13.1 30.9 13.4 31.35 13.55 L32.05 13.4 32.55 12.9 32.45 12.15 Q32.2 11.85 31.8 11.75 L31.1 11.85" fill="#fcf3d8" fill-rule="evenodd" stroke="none"/>
      <path d="M31.7 12.1 L29.75 9.9 31.25 12.3 30.05 14.05 31.7 13.1 34.65 16.5 32.25 12.65 37.3 7.5 31.7 12.1" fill="#fcf3d8" fill-rule="evenodd" stroke="none"/>
      <path d="M20.45 15.2 L21.4 20.8 18.55 25.1 Q16.4 25.7 15.2 23.9 L14.75 23.15 17.0 20.6 14.55 22.05 Q14.45 20.9 15.1 19.55 L15.1 19.5 20.45 15.2" fill="#543700" fill-rule="evenodd" stroke="none"/>
      <path d="M21.65 14.2 L20.45 15.2 15.1 19.5 15.1 19.55 14.15 18.95 14.3 18.75 21.15 13.85 21.65 14.2" fill="#996600" fill-rule="evenodd" stroke="none"/>
      <path d="M21.4 20.8 L20.45 15.2 21.65 14.2 21.35 19.8 21.9 20.05 21.4 20.8" fill="#2b1b00" fill-rule="evenodd" stroke="none"/>
      <path d="M14.55 22.05 L17.0 20.6 14.75 23.15 13.5 22.15 14.55 22.05" fill="#3d2500" fill-rule="evenodd" stroke="none"/>
      <path d="M15.1 19.55 Q14.45 20.9 14.55 22.05 L13.5 22.15 14.75 23.15 15.2 23.9 Q16.4 25.7 18.55 25.1 L16.95 25.9 Q12.8 24.9 12.95 22.0 13.05 20.45 14.15 18.95 L15.1 19.55" fill="#bf7f00" fill-rule="evenodd" stroke="none"/>
      <path d="M21.4 20.8 L21.9 20.05 M18.55 25.1 L21.4 20.8 M14.15 18.95 L14.3 18.75 21.15 13.85 21.65 14.2 M14.15 18.95 Q13.05 20.45 12.95 22.0 12.8 24.9 16.95 25.9 L18.55 25.1" fill="none" stroke="#000000" stroke-linecap="round" stroke-linejoin="round" stroke-opacity="0.3019608" stroke-width="0.5"/>
    </g>
    <g id="shape13" transform="matrix(1.0, 0.0, 0.0, 1.0, -2.9, -5.55)">
      <path d="M40.7 12.75 Q40.75 11.8 39.8 11.2 37.2 9.1 35.0 8.4 L24.75 7.4 20.65 7.35 17.15 7.35 Q14.35 7.1 12.95 6.05 L12.0 6.65 12.2 7.6 9.5 8.05 Q5.3 8.85 4.55 10.05 L4.65 14.6 3.4 13.55 4.65 14.85 4.65 14.95 4.65 15.15 Q4.2 15.25 3.85 15.6 3.4 16.1 3.4 16.8 3.4 17.5 3.85 18.0 4.15 18.3 4.55 18.4 4.95 20.05 5.95 21.5 L5.95 36.0 9.45 37.35 10.7 36.65 10.85 36.55 18.0 39.35 17.45 40.15 18.1 39.4 18.1 40.45 21.55 41.75 21.6 41.75 21.6 41.7 23.5 39.95 23.5 38.05 23.4 31.8 23.75 31.95 Q27.9 30.95 27.75 28.05 27.65 26.9 27.05 25.75 L29.8 25.2 32.1 24.6 Q36.3 22.85 39.1 20.25 L39.45 19.85 39.75 19.85 Q40.5 19.85 40.95 19.4 41.45 18.9 41.45 18.2 41.45 17.5 40.95 17.0 40.65 16.65 40.15 16.55 L40.55 13.6 40.7 12.75 M20.0 19.25 L20.0 18.85 19.85 17.6 16.0 16.25 14.75 15.8 13.35 15.4 12.2 15.15 11.3 14.9 11.15 14.85 10.65 14.8 10.45 14.7 10.1 15.15 9.2 16.0 8.95 15.75 7.75 14.5 Q7.8 14.05 8.45 13.8 L12.2 13.05 23.5 12.5 24.65 12.55 Q25.6 12.0 25.85 12.7 L27.8 12.9 Q28.7 12.3 28.8 13.05 L32.3 13.8 Q36.05 14.75 37.55 16.45 L37.1 16.7 Q36.9 17.15 36.55 17.0 33.25 18.7 27.55 19.05 L20.0 18.85" fill="none" stroke="#000000" stroke-linecap="round" stroke-linejoin="round" stroke-opacity="0.3019608" stroke-width="1.0"/>
    </g>
  </defs>
</svg>
