<?xml version="1.0" encoding="UTF-8" standalone="no"?>
<svg xmlns:xlink="http://www.w3.org/1999/xlink" height="440.0px" width="440.0px" xmlns="http://www.w3.org/2000/svg">
  <g transform="matrix(10.0, 0.0, 0.0, 10.0, 0.0, 0.0)">
    <use height="44.0" transform="matrix(1.0, 0.0, 0.0, 1.0, 0.0, 0.0)" width="44.0" xlink:href="#shape0"/>
    <use height="60.8" transform="matrix(0.0981, -0.061, -0.0345, -0.1136, 27.65, 20.7)" width="60.8" xlink:href="#sprite0"/>
    <use height="10.9" transform="matrix(0.1196, -0.151, -0.1869, -0.1098, 24.35, 15.1)" width="12.9" xlink:href="#sprite1"/>
    <use height="29.9" transform="matrix(1.0, 0.0, 0.0, 1.0, 1.8, 7.6)" width="40.9" xlink:href="#shape3"/>
    <use height="26.0" transform="matrix(-0.3333, 0.0, 0.0, 0.3333, 39.7833, 26.0167)" width="23.8" xlink:href="#sprite2"/>
    <use height="7.2" transform="matrix(1.0, 0.0, 0.0, 1.0, 32.95, 27.4)" width="7.0" xlink:href="#shape5"/>
    <use height="34.45" transform="matrix(-0.1862, 0.048, 0.0, 0.1862, 39.7, 26.9)" width="34.9" xlink:href="#sprite3"/>
    <use height="60.8" transform="matrix(-0.0634, -0.0051, -0.0499, 0.0667, 37.6, 27.15)" width="60.8" xlink:href="#sprite0"/>
    <use height="13.1" transform="matrix(-0.2649, 0.0684, 0.0, 0.2649, 37.15, 25.95)" width="13.3" xlink:href="#sprite4"/>
    <use height="9.85" transform="matrix(1.0, 0.0, 0.0, 1.0, 2.6, 17.25)" width="8.3" xlink:href="#shape8"/>
    <use height="34.45" transform="matrix(-0.1158, 0.1534, 0.1158, 0.1457, 5.8, 16.95)" width="34.9" xlink:href="#sprite3"/>
    <use height="60.8" transform="matrix(-9.0E-4, 0.0635, -0.071, 0.0433, 6.95, 17.1)" width="60.8" xlink:href="#sprite0"/>
    <use height="13.1" transform="matrix(0.139, 0.2356, -0.1873, 0.1873, 5.25, 16.95)" width="13.3" xlink:href="#sprite4"/>
    <use height="10.9" transform="matrix(-0.201, 0.0539, 0.0539, 0.201, 7.35, 21.95)" width="12.9" xlink:href="#sprite1"/>
    <use height="60.8" transform="matrix(0.0676, -0.0731, -0.1363, -0.259, 11.1, 32.1)" width="60.8" xlink:href="#sprite0"/>
    <use height="10.9" transform="matrix(0.2474, -0.1428, -0.1428, -0.2474, 20.15, 35.55)" width="12.9" xlink:href="#sprite1"/>
    <use height="16.7" transform="matrix(1.0, 0.0, 0.0, 1.0, 10.8, 21.1)" width="17.55" xlink:href="#shape9"/>
    <use height="34.45" transform="matrix(-0.3153, 0.0, 0.0284, 0.324, 23.3, 24.15)" width="34.9" xlink:href="#sprite3"/>
    <use height="60.8" transform="matrix(-0.1634, -0.0553, -0.1127, 0.1382, 25.85, 21.8)" width="60.8" xlink:href="#sprite0"/>
    <use height="10.9" transform="matrix(-0.2958, 0.0, 0.0267, 0.304, 21.75, 30.35)" width="12.9" xlink:href="#sprite1"/>
    <use height="60.8" transform="matrix(-0.1634, -0.0553, -0.1127, 0.1382, 25.25, 23.15)" width="60.8" xlink:href="#sprite0"/>
    <use height="13.1" transform="matrix(-0.2958, 0.0, 0.0267, 0.304, 22.3, 24.75)" width="13.3" xlink:href="#sprite4"/>
    <use height="13.1" transform="matrix(-0.2548, 0.0, 0.023, 0.2619, 18.2, 22.45)" width="13.3" xlink:href="#sprite4"/>
    <use height="5.65" transform="matrix(-0.1069, -0.3436, -0.3436, 0.1069, 12.572, 24.6972)" width="5.8" xlink:href="#shape7"/>
    <use height="5.65" transform="matrix(-0.1069, -0.3436, -0.3436, 0.1069, 14.222, 25.3972)" width="5.8" xlink:href="#shape7"/>
  </g>
  <defs>
    <g id="shape0" transform="matrix(1.0, 0.0, 0.0, 1.0, 0.0, 0.0)">
      <path d="M44.0 44.0 L0.0 44.0 0.0 0.0 44.0 0.0 44.0 44.0" fill="#43adca" fill-opacity="0.0" fill-rule="evenodd" stroke="none"/>
      <path d="M29.9 11.2 Q30.65 11.95 30.9 12.95 31.35 14.65 30.25 16.0 29.5 17.0 28.25 17.4 27.0 18.6 28.75 18.45 30.2 17.95 31.1 16.75 32.45 15.1 31.95 13.05 L31.6 12.2 Q30.2 10.3 29.9 11.2" fill="#f1df94" fill-rule="evenodd" stroke="none"/>
      <path d="M20.25 13.95 L21.0 14.15 21.25 13.95 Q21.0 12.45 22.0 11.15 L22.05 11.05 21.75 10.75 21.45 10.6 21.15 10.9 Q20.05 12.3 20.25 13.95" fill="#856f49" fill-rule="evenodd" stroke="none"/>
      <path d="M28.75 18.45 Q27.0 18.6 28.25 17.4 L27.15 17.7 24.25 17.3 Q26.75 18.95 24.95 18.65 L27.45 18.8 28.75 18.45" fill="#4c3c22" fill-rule="evenodd" stroke="none"/>
      <path d="M28.25 17.4 Q29.5 17.0 30.25 16.0 31.35 14.65 30.9 12.95 30.65 11.95 29.9 11.2 L28.75 10.25 Q27.05 9.25 25.05 9.5 23.15 9.8 22.05 11.05 L22.0 11.15 Q21.0 12.45 21.25 13.95 L21.0 14.15 20.25 13.95 20.4 14.65 Q20.9 16.65 22.95 17.85 23.95 18.4 24.95 18.65 26.75 18.95 24.25 17.3 L27.15 17.7 28.25 17.4" fill="#6f5731" fill-rule="evenodd" stroke="none"/>
      <path d="M29.9 11.2 Q30.2 10.3 31.6 12.2 30.95 10.75 29.35 9.8 27.25 8.6 24.95 8.9 22.75 9.2 21.45 10.6 L21.75 10.75 22.05 11.05 Q23.15 9.8 25.05 9.5 27.05 9.25 28.75 10.25 L29.9 11.2" fill="#8d7450" fill-rule="evenodd" stroke="none"/>
      <path d="M31.6 12.2 L31.95 13.05 Q32.45 15.1 31.1 16.75 30.2 17.95 28.75 18.45 M24.95 18.65 Q23.95 18.4 22.95 17.85 20.9 16.65 20.4 14.65 L20.25 13.95 M21.45 10.6 Q22.75 9.2 24.95 8.9 27.25 8.6 29.35 9.8 30.95 10.75 31.6 12.2 M21.45 10.6 L21.15 10.9 Q20.05 12.3 20.25 13.95 M24.95 18.65 L27.45 18.8 28.75 18.45" fill="none" stroke="#000000" stroke-linecap="round" stroke-linejoin="round" stroke-opacity="0.3019608" stroke-width="0.5"/>
    </g>
    <g id="sprite0" transform="matrix(1.0, 0.0, 0.0, 1.0, 0.0, 0.0)">
      <use height="60.8" transform="matrix(1.0, 0.0, 0.0, 1.0, 0.0, 0.0)" width="60.8" xlink:href="#shape1"/>
    </g>
    <g id="shape1" transform="matrix(1.0, 0.0, 0.0, 1.0, 0.0, 0.0)">
      <path d="M60.8 30.4 Q60.8 43.0 51.9 51.9 43.0 60.8 30.4 60.8 17.8 60.8 8.9 51.9 0.0 43.0 0.0 30.4 0.0 17.8 8.9 8.9 17.8 0.0 30.4 0.0 43.0 0.0 51.9 8.9 60.8 17.8 60.8 30.4" fill="url(#gradient0)" fill-rule="evenodd" stroke="none"/>
    </g>
    <radialGradient cx="0" cy="0" gradientTransform="matrix(0.0374, 0.0, 0.0, 0.0374, 30.4, 30.4)" gradientUnits="userSpaceOnUse" id="gradient0" r="819.2" spreadMethod="pad">
      <stop offset="0.0" stop-color="#ffffff"/>
      <stop offset="1.0" stop-color="#ffffff" stop-opacity="0.0"/>
    </radialGradient>
    <g id="sprite1" transform="matrix(1.0, 0.0, 0.0, 1.0, 0.0, 0.0)">
      <use height="10.9" transform="matrix(1.0, 0.0, 0.0, 1.0, 0.0, 0.0)" width="12.9" xlink:href="#shape2"/>
    </g>
    <g id="shape2" transform="matrix(1.0, 0.0, 0.0, 1.0, 0.0, 0.0)">
      <path d="M0.15 7.65 Q0.4 7.15 0.85 7.05 L1.6 7.1 1.8 7.15 2.0 7.2 2.3 7.25 2.95 7.6 4.3 8.65 Q5.3 9.65 4.85 10.45 4.25 11.5 1.85 10.1 -0.5 8.75 0.15 7.65 M4.3 0.05 L5.95 0.0 9.7 0.5 Q12.9 1.35 12.9 3.35 12.9 6.1 6.7 6.1 0.6 6.1 0.6 3.2 0.6 1.95 1.3 1.3 L2.75 0.55 3.35 0.35 3.7 0.2 4.3 0.05" fill="#d8f9c1" fill-opacity="0.25882354" fill-rule="evenodd" stroke="none"/>
    </g>
    <g id="shape3" transform="matrix(1.0, 0.0, 0.0, 1.0, -1.8, -7.6)">
      <path d="M13.15 11.4 L17.75 9.45 17.8 9.45 19.6 9.95 27.5 11.55 32.25 13.4 34.2 13.9 37.45 18.85 39.75 20.45 38.5 20.35 40.1 22.85 38.6 23.45 36.9 24.25 35.4 24.85 29.85 27.25 12.95 22.6 9.95 18.1 9.15 16.95 8.1 15.35 7.2 13.95 13.15 11.4 M5.4 13.05 L5.45 13.9 Q6.15 15.75 7.5 17.85 L9.1 20.25 9.2 20.4 11.15 23.4 12.7 24.45 24.8 28.0 28.5 29.0 29.55 29.05 30.1 28.95 30.2 28.9 37.3 26.2 41.3 24.5 42.2 22.95 35.45 12.75 35.4 12.75 17.5 7.85 5.4 13.05 M3.85 18.75 L2.7 19.2 2.7 19.25 7.3 26.15 10.1 29.95 11.0 30.5 11.05 30.55 13.25 31.15 13.1 30.65 14.5 31.5 18.3 32.5 Q25.6 34.5 28.35 34.9 L28.65 34.9 32.65 33.2 33.55 32.85 33.55 32.8 Q37.15 31.4 40.2 29.7 L40.7 29.35 40.3 28.75 40.15 29.35 33.4 32.3 28.25 34.55 15.15 30.95 10.3 29.6 7.6 25.55 3.6 19.55 3.85 18.75" fill="#cc8800" fill-rule="evenodd" stroke="none"/>
      <path d="M24.6 15.9 L16.4 13.65 15.8 15.5 32.2 20.0 32.8 18.15 24.6 15.9 M17.15 11.35 L28.75 14.55 33.55 15.85 34.2 13.9 32.25 13.4 26.95 12.35 19.6 9.95 17.8 9.45 17.75 9.45 17.15 11.35 M42.2 22.95 L41.3 24.5 42.45 24.9 42.2 22.95 M28.5 29.0 L24.8 28.0 18.05 26.4 Q15.75 26.65 15.75 27.85 L20.35 29.1 29.25 31.5 29.45 30.95 Q29.2 29.6 28.5 29.0 M12.8 33.25 L27.4 37.25 27.55 36.85 27.25 35.6 Q24.8 34.5 18.3 32.5 L14.5 31.5 16.25 33.35 14.3 31.9 Q13.1 31.95 12.8 33.25 M40.55 30.7 L40.7 29.35 40.2 29.7 Q37.15 31.4 33.55 32.8 L33.55 32.85 39.9 30.4 Q40.4 30.4 40.55 30.7" fill="#ffb700" fill-rule="evenodd" stroke="none"/>
      <path d="M17.15 11.35 L17.75 9.45 13.15 11.4 12.85 11.7 Q12.55 11.9 12.4 12.45 L12.25 13.5 12.6 13.35 13.2 13.1 17.15 11.35 M15.8 15.5 L16.4 13.65 11.85 15.7 Q11.3 16.1 11.3 16.6 L11.4 17.5 15.8 15.5 M41.3 24.5 L37.3 26.2 34.9 27.35 Q33.35 28.5 32.75 30.0 L36.95 28.2 41.1 26.4 42.1 26.0 42.45 24.9 41.3 24.5 M30.4 36.0 L40.2 31.8 40.55 30.7 Q40.4 30.4 39.9 30.4 L33.55 32.85 32.65 33.2 Q30.55 34.5 30.4 36.0 M39.75 20.45 L37.45 18.85 36.15 18.9 39.75 20.45 M13.25 31.15 L14.3 31.9 16.25 33.35 13.1 30.65 13.25 31.15" fill="#8f4e00" fill-rule="evenodd" stroke="none"/>
      <path d="M19.6 9.95 L26.95 12.35 32.25 13.4 27.5 11.55 19.6 9.95 M34.2 13.9 L33.55 15.85 36.0 19.55 36.2 19.85 38.6 23.45 40.1 22.85 38.5 20.35 36.15 18.9 37.45 18.85 34.2 13.9 M7.5 17.85 L4.85 14.65 4.2 14.5 3.9 15.55 4.55 16.55 7.15 20.4 11.25 26.6 11.45 26.05 11.15 23.4 9.2 20.4 9.1 20.25 7.5 17.85 M37.3 26.2 L30.2 28.9 30.1 28.95 29.55 29.05 28.5 29.0 Q29.2 29.6 29.45 30.95 L30.0 30.05 30.7 29.35 34.9 27.35 37.3 26.2 M2.7 19.25 L2.05 21.3 9.45 32.3 9.6 31.75 9.65 30.35 7.3 26.15 2.7 19.25 M35.4 24.85 L36.9 24.25 35.9 22.75 32.8 18.15 32.2 20.0 35.4 24.85 M27.55 36.85 L28.65 34.9 28.35 34.9 Q25.6 34.5 18.3 32.5 24.8 34.5 27.25 35.6 L27.55 36.85 M28.05 35.2 L28.1 35.2 28.05 35.2" fill="#ffd742" fill-rule="evenodd" stroke="none"/>
      <path d="M7.5 17.85 Q6.15 15.75 5.45 13.9 L5.4 13.05 4.2 14.5 4.85 14.65 7.5 17.85 M24.8 28.0 L12.7 24.45 11.15 23.4 11.45 26.05 12.7 25.1 18.05 26.4 24.8 28.0 M9.2 20.4 L9.1 20.25 9.2 20.4 M38.5 20.35 L39.75 20.45 36.15 18.9 38.5 20.35 M13.1 30.65 L16.25 33.35 14.5 31.5 13.1 30.65 M7.3 26.15 L9.65 30.35 9.6 31.75 11.05 30.55 11.0 30.5 10.1 29.95 7.3 26.15" fill="#ffe687" fill-rule="evenodd" stroke="none"/>
      <path d="M9.45 32.3 L9.45 32.35 12.8 33.25 Q13.1 31.95 14.3 31.9 L13.25 31.15 11.05 30.55 9.6 31.75 9.45 32.3 M11.45 26.05 L11.25 26.6 15.75 27.85 Q15.75 26.65 18.05 26.4 L12.7 25.1 11.45 26.05" fill="#edaa00" fill-rule="evenodd" stroke="none"/>
      <path d="M12.25 13.5 L12.4 12.45 Q12.55 11.9 12.85 11.7 L13.15 11.4 7.2 13.95 8.1 15.35 11.75 13.75 11.85 13.7 12.25 13.5 M11.85 15.7 L10.9 16.15 9.15 16.95 9.95 18.1 11.4 17.5 11.3 16.6 Q11.3 16.1 11.85 15.7 M27.4 37.25 L27.45 37.25 30.4 36.0 Q30.55 34.5 32.65 33.2 L28.65 34.9 27.55 36.85 27.4 37.25 M32.75 30.0 Q33.35 28.5 34.9 27.35 L30.7 29.35 30.0 30.05 29.45 30.95 29.25 31.5 32.75 30.0" fill="#824400" fill-rule="evenodd" stroke="none"/>
      <path d="M7.15 20.4 L7.0 21.2 Q6.85 22.85 7.6 25.55 L10.3 29.6 11.25 26.6 7.15 20.4 M36.9 24.25 L38.6 23.45 36.2 19.85 36.1 19.7 35.85 20.3 35.9 22.75 36.9 24.25" fill="#f9e79f" fill-rule="evenodd" stroke="none"/>
      <path d="M24.6 15.9 Q26.55 16.0 28.05 15.1 L28.75 14.55 17.15 11.35 16.4 13.65 24.6 15.9" fill="#ccad4b" fill-rule="evenodd" stroke="none"/>
      <path d="M28.75 14.55 L28.05 15.1 Q26.55 16.0 24.6 15.9 L32.8 18.15 33.55 15.85 28.75 14.55 M10.3 29.6 L15.15 30.95 Q16.15 29.7 18.5 29.3 L20.35 29.1 15.75 27.85 11.25 26.6 10.3 29.6" fill="#c2a247" fill-rule="evenodd" stroke="none"/>
      <path d="M33.55 15.85 L32.8 18.15 35.9 22.75 35.85 20.3 36.1 19.7 36.0 19.55 33.55 15.85 M4.55 16.55 L3.85 18.75 3.6 19.55 7.6 25.55 Q6.85 22.85 7.0 21.2 L7.15 20.4 4.55 16.55" fill="#ffeead" fill-rule="evenodd" stroke="none"/>
      <path d="M16.4 13.65 L17.15 11.35 13.2 13.1 12.6 13.35 Q11.9 13.9 11.5 14.55 11.0 15.25 10.9 16.15 L11.85 15.7 16.4 13.65 M28.25 34.55 L33.4 32.3 Q33.6 30.9 35.0 29.65 35.75 28.9 36.95 28.2 L32.75 30.0 29.25 31.5 28.25 34.55" fill="#6c5c25" fill-rule="evenodd" stroke="none"/>
      <path d="M12.6 13.35 L12.25 13.5 11.85 13.7 11.75 13.75 8.1 15.35 9.15 16.95 10.9 16.15 Q11.0 15.25 11.5 14.55 11.9 13.9 12.6 13.35 M40.3 28.75 L41.1 26.4 36.95 28.2 Q35.75 28.9 35.0 29.65 33.6 30.9 33.4 32.3 L40.15 29.35 40.3 28.75" fill="#605220" fill-rule="evenodd" stroke="none"/>
      <path d="M15.15 30.95 L28.25 34.55 29.25 31.5 20.35 29.1 18.5 29.3 Q16.15 29.7 15.15 30.95" fill="#927c32" fill-rule="evenodd" stroke="none"/>
      <path d="M4.2 14.5 L5.4 13.05 17.5 7.85 35.4 12.75 35.45 12.75 42.2 22.95 M4.2 14.5 L3.9 15.55 4.55 16.55 3.85 18.75 2.7 19.2 2.7 19.25 2.05 21.3 9.45 32.3 9.45 32.35 12.8 33.25 27.4 37.25 27.45 37.25 30.4 36.0 40.2 31.8 40.55 30.7 40.7 29.35 40.3 28.75 41.1 26.4 42.1 26.0 42.45 24.9 42.2 22.95 M40.15 29.35 L40.3 28.75 M9.95 18.1 L12.95 22.6 29.85 27.25 35.4 24.85 M11.4 17.5 L9.95 18.1 M11.4 17.5 L15.8 15.5 32.2 20.0 35.4 24.85" fill="none" stroke="#000000" stroke-linecap="round" stroke-linejoin="round" stroke-opacity="0.3019608" stroke-width="0.5"/>
      <path d="M24.6 15.9 L16.4 13.65 11.85 15.7 10.9 16.15 9.15 16.95 M17.15 11.35 L28.75 14.55 33.55 15.85 M32.8 18.15 L24.6 15.9 M17.15 11.35 L13.2 13.1 12.6 13.35 12.25 13.5 11.85 13.7 11.75 13.75 8.1 15.35 M7.6 25.55 L3.6 19.55 3.85 18.75 M7.6 25.55 L10.3 29.6 15.15 30.95 28.25 34.55 33.4 32.3 40.15 29.35 M11.25 26.6 L7.15 20.4 4.55 16.55 M20.35 29.1 L15.75 27.85 11.25 26.6 M20.35 29.1 L29.25 31.5 M36.0 19.55 L36.2 19.85 M36.0 19.55 L33.55 15.85 M35.9 22.75 L32.8 18.15 M36.95 28.2 L41.1 26.4 M36.95 28.2 L32.75 30.0 29.25 31.5 M35.9 22.75 L36.9 24.25 M38.6 23.45 L36.2 19.85" fill="none" stroke="#000000" stroke-linecap="round" stroke-linejoin="round" stroke-opacity="0.15294118" stroke-width="0.5"/>
      <path d="M40.75 27.1 L41.0 26.35 29.2 31.45 11.2 26.5 9.55 24.05 9.3 24.55 11.1 27.2 28.95 32.05 29.0 32.05 40.75 27.1" fill="#000000" fill-opacity="0.21960784" fill-rule="evenodd" stroke="none"/>
      <path d="M8.6 15.85 L13.3 13.75 17.0 12.15 17.25 11.3 13.3 13.05 Q10.75 14.2 8.25 15.3 L8.6 15.85 M33.65 15.85 L33.65 15.9 17.25 11.4 17.0 12.1 33.45 16.6 33.45 16.55 38.2 23.7 38.7 23.5 33.65 15.85" fill="#000000" fill-opacity="0.21960784" fill-rule="evenodd" stroke="none"/>
      <path d="M36.8 26.2 L37.9 27.25 Q39.1 28.65 38.8 30.3 38.5 31.9 36.9 32.8 L35.5 33.3 Q37.15 33.6 38.55 32.75 39.95 31.9 40.25 30.35 40.35 29.8 39.95 29.45 40.15 28.35 39.55 27.5 L38.65 26.65 Q37.5 25.9 36.8 26.2" fill="#000000" fill-opacity="0.21960784" fill-rule="evenodd" stroke="none"/>
    </g>
    <g id="sprite2" transform="matrix(1.0, 0.0, 0.0, 1.0, 0.25, 0.25)">
      <use height="26.0" transform="matrix(1.0, 0.0, 0.0, 1.0, -0.25, -0.25)" width="23.8" xlink:href="#shape4"/>
    </g>
    <g id="shape4" transform="matrix(1.0, 0.0, 0.0, 1.0, 0.25, 0.25)">
      <path d="M1.65 15.55 L1.6 15.5 0.85 13.8 0.3 11.7 0.25 11.3 0.35 11.3 Q0.5 12.5 0.95 13.75 L1.7 15.5 1.65 15.55" fill="#3f1900" fill-rule="evenodd" stroke="none"/>
      <path d="M16.95 3.75 Q19.75 6.1 21.55 9.65 L22.55 12.0 Q22.2 15.05 21.0 13.95 L19.85 10.95 19.0 9.55 Q18.05 7.95 16.75 6.7 15.85 5.4 16.35 3.95 L16.95 3.75" fill="#c0b276" fill-rule="evenodd" stroke="none"/>
      <path d="M5.1 3.1 L6.25 2.9 Q8.55 2.75 11.1 4.1 L11.5 4.3 Q14.65 6.15 16.55 9.35 L17.3 10.5 Q18.4 12.7 18.65 14.8 18.85 16.5 18.45 18.1 17.6 21.7 14.4 22.7 L12.75 23.05 11.15 23.05 Q9.4 22.75 7.45 21.65 3.95 19.6 1.95 15.95 L1.7 15.5 0.95 13.75 Q0.5 12.5 0.35 11.3 0.15 10.1 0.3 8.9 L0.5 7.9 0.85 6.8 1.1 6.2 Q2.2 4.0 4.6 3.25 L5.1 3.1 M2.0 8.6 Q1.25 11.85 3.1 15.5 4.95 19.15 8.35 21.15 11.65 23.05 14.6 22.15 17.5 21.15 18.3 17.95 19.05 14.65 17.25 11.05 L15.8 8.75 Q14.2 6.7 12.0 5.45 8.6 3.5 5.7 4.45 2.8 5.35 2.0 8.6" fill="#6a583a" fill-rule="evenodd" stroke="none"/>
      <path d="M10.25 0.25 Q12.2 0.65 14.25 1.85 L15.0 2.25 13.05 3.75 Q10.4 2.3 8.05 2.25 8.4 1.95 8.8 1.8 10.05 1.05 10.25 0.25 M23.3 16.9 L23.05 19.3 Q21.95 23.8 17.85 25.1 L14.0 25.45 16.5 25.05 Q20.2 23.85 21.2 19.8 L21.35 19.05 Q22.6 15.4 23.3 16.9 M2.0 8.6 Q2.8 5.35 5.7 4.45 8.6 3.5 12.0 5.45 14.2 6.7 15.8 8.75 L17.25 11.05 Q19.05 14.65 18.3 17.95 17.5 21.15 14.6 22.15 11.65 23.05 8.35 21.15 4.95 19.15 3.1 15.5 1.25 11.85 2.0 8.6" fill="#886e40" fill-rule="evenodd" stroke="none"/>
      <path d="M1.85 15.95 L1.65 15.55 1.7 15.5 1.95 15.95 1.85 15.95" fill="#383829" fill-rule="evenodd" stroke="none"/>
      <path d="M15.0 2.25 L16.95 3.75 16.35 3.95 Q15.85 5.4 16.75 6.7 15.2 5.05 13.25 3.85 L13.05 3.75 15.0 2.25 M22.55 12.0 L22.95 13.35 Q23.4 15.2 23.3 16.9 22.6 15.4 21.35 19.05 21.6 17.4 21.35 15.65 L21.0 13.95 Q22.2 15.05 22.55 12.0" fill="#c9b97c" fill-rule="evenodd" stroke="none"/>
      <path d="M8.2 0.0 L10.25 0.25 Q10.05 1.05 8.8 1.8 8.4 1.95 8.05 2.25 10.4 2.3 13.05 3.75 L13.25 3.85 Q15.2 5.05 16.75 6.7 18.05 7.95 19.0 9.55 L19.85 10.95 21.0 13.95 21.35 15.65 Q21.6 17.4 21.35 19.05 L21.2 19.8 Q20.2 23.85 16.5 25.05 L14.0 25.45 12.4 25.1 Q11.55 24.5 11.3 23.9 10.95 23.25 11.15 23.05 L12.75 23.05 14.4 22.7 Q17.6 21.7 18.45 18.1 18.85 16.5 18.65 14.8 18.4 12.7 17.3 10.5 L16.55 9.35 Q14.65 6.15 11.5 4.3 L11.1 4.1 Q8.55 2.75 6.25 2.9 L5.1 3.1 Q2.7 1.85 8.2 0.0" fill="#725b35" fill-rule="evenodd" stroke="none"/>
      <path d="M12.4 25.1 Q10.75 24.75 9.1 23.75 4.35 21.1 1.85 15.95 L1.95 15.95 Q3.95 19.6 7.45 21.65 9.4 22.75 11.15 23.05 10.95 23.25 11.3 23.9 11.55 24.5 12.4 25.1 M0.25 11.3 Q-0.25 8.65 0.3 6.3 1.4 1.75 5.5 0.45 L8.2 0.0 Q2.7 1.85 5.1 3.1 L4.6 3.25 Q2.2 4.0 1.1 6.2 L0.85 6.8 0.5 7.9 0.3 8.9 Q0.15 10.1 0.35 11.3 L0.25 11.3" fill="#3c301b" fill-rule="evenodd" stroke="none"/>
      <path d="M8.2 0.0 L10.25 0.25 Q12.2 0.65 14.25 1.85 L15.0 2.25 16.95 3.75 Q19.75 6.1 21.55 9.65 L22.55 12.0 22.95 13.35 Q23.4 15.2 23.3 16.9 L23.05 19.3 Q21.95 23.8 17.85 25.1 L14.0 25.45 12.4 25.1 Q10.75 24.75 9.1 23.75 4.35 21.1 1.85 15.95 L1.65 15.55 1.6 15.5 0.85 13.8 0.3 11.7 0.25 11.3 Q-0.25 8.65 0.3 6.3 1.4 1.75 5.5 0.45 L8.2 0.0 Z" fill="none" stroke="#000000" stroke-linecap="round" stroke-linejoin="round" stroke-opacity="0.3019608" stroke-width="0.5"/>
    </g>
    <g id="shape5" transform="matrix(1.0, 0.0, 0.0, 1.0, -32.95, -27.4)">
      <path d="M34.15 33.85 Q35.1 34.55 36.45 34.25 37.8 33.9 38.75 32.7 39.7 31.5 39.7 30.15 39.7 28.8 38.75 28.1 37.8 27.4 36.45 27.75 35.1 28.05 34.15 29.25 33.2 30.45 33.2 31.8 33.2 33.15 34.15 33.85" fill="url(#gradient1)" fill-rule="evenodd" stroke="none"/>
      <path d="M34.15 33.85 Q35.1 34.55 36.45 34.25 37.8 33.9 38.75 32.7 39.7 31.5 39.7 30.15 39.7 28.8 38.75 28.1 37.8 27.4 36.45 27.75 35.1 28.05 34.15 29.25 33.2 30.45 33.2 31.8 33.2 33.15 34.15 33.85 Z" fill="none" stroke="#000000" stroke-linecap="round" stroke-linejoin="round" stroke-opacity="0.15294118" stroke-width="0.5"/>
    </g>
    <radialGradient cx="0" cy="0" gradientTransform="matrix(-0.0053, 0.0014, 0.0, 0.0053, 35.55, 30.8)" gradientUnits="userSpaceOnUse" id="gradient1" r="819.2" spreadMethod="pad">
      <stop offset="0.0" stop-color="#d4e9ff"/>
      <stop offset="0.47843137254901963" stop-color="#cccccc"/>
      <stop offset="1.0" stop-color="#ffcc99"/>
    </radialGradient>
    <g id="sprite3" transform="matrix(1.0, 0.0, 0.0, 1.0, 0.0, 0.0)">
      <use height="34.45" transform="matrix(1.0, 0.0, 0.0, 1.0, 0.0, 0.0)" width="34.9" xlink:href="#shape6"/>
    </g>
    <g id="shape6" transform="matrix(1.0, 0.0, 0.0, 1.0, 0.0, 0.0)">
      <path d="M20.75 34.2 L17.45 34.45 Q10.2 34.45 5.1 29.35 0.5 24.75 0.05 18.4 15.55 21.65 20.75 34.2" fill="#000000" fill-opacity="0.14117648" fill-rule="evenodd" stroke="none"/>
      <path d="M0.05 18.4 L0.0 17.0 Q0.0 9.8 5.1 4.7 L5.2 4.6 Q8.75 1.1 13.3 0.0 3.95 4.8 8.0 16.15 12.8 26.05 25.35 26.85 32.9 26.1 34.9 17.6 34.75 22.65 32.0 26.65 L29.75 29.35 Q25.85 33.25 20.75 34.2 15.55 21.65 0.05 18.4" fill="#000000" fill-opacity="0.19215687" fill-rule="evenodd" stroke="none"/>
    </g>
    <g id="sprite4" transform="matrix(1.0, 0.0, 0.0, 1.0, 0.0, 0.0)">
      <use height="5.65" transform="matrix(1.9197, 0.3823, -0.3823, 1.9197, 2.1533, 0.0161)" width="5.8" xlink:href="#shape7"/>
    </g>
    <g id="shape7" transform="matrix(1.0, 0.0, 0.0, 1.0, 2.9, 2.8)">
      <path d="M0.55 0.9 Q0.25 1.25 -0.2 1.25 -0.65 1.25 -1.0 0.9 L-1.3 0.15 -1.0 -0.65 -0.2 -0.95 Q0.25 -0.95 0.55 -0.65 L0.9 0.15 0.55 0.9" fill="#fffffd" fill-rule="evenodd" stroke="none"/>
      <path d="M2.9 -0.2 L1.05 2.65 -1.6 2.85 -2.9 0.15 -1.7 -2.45 1.25 -2.8 2.9 -0.2 M0.55 0.9 L0.9 0.15 0.55 -0.65 Q0.25 -0.95 -0.2 -0.95 L-1.0 -0.65 -1.3 0.15 -1.0 0.9 Q-0.65 1.25 -0.2 1.25 0.25 1.25 0.55 0.9" fill="#ffffea" fill-opacity="0.43137255" fill-rule="evenodd" stroke="none"/>
    </g>
    <g id="shape8" transform="matrix(1.0, 0.0, 0.0, 1.0, -2.6, -17.25)">
      <path d="M9.9 24.85 L10.3 25.1 Q11.25 23.5 10.7 21.45 10.1 19.4 8.4 18.05 L9.25 19.8 Q9.95 22.1 8.75 23.8 7.6 25.5 6.65 25.65 L5.9 25.75 Q5.1 26.0 3.55 24.9 4.3 26.55 5.7 26.75 L7.4 27.0 Q9.1 26.75 9.9 24.85" fill="#000000" fill-opacity="0.38039216" fill-rule="evenodd" stroke="none"/>
      <path d="M4.2 19.15 L4.15 19.15 4.05 19.25 3.7 19.85 3.5 20.45 3.75 19.9 4.2 19.15" fill="#4f2000" fill-rule="evenodd" stroke="none"/>
      <path d="M7.25 18.35 L7.1 18.25 5.55 18.15 5.35 18.2 5.0 18.4 4.75 18.6 4.2 19.15 3.75 19.9 3.5 20.45 3.5 20.5 Q3.05 21.9 3.4 23.25 3.6 24.0 3.95 24.5 L4.35 24.85 4.8 25.15 6.85 25.05 7.65 24.3 8.35 23.0 8.45 22.5 Q8.75 21.3 8.45 20.15 L8.4 20.0 Q8.15 19.1 7.55 18.55 L7.25 18.35 M9.1 18.9 L8.4 18.9 8.15 18.85 8.95 20.35 9.75 20.5 9.7 20.2 9.1 18.9 M7.3 25.95 L7.1 26.1 4.75 26.2 4.05 25.7 5.05 26.55 7.65 26.4 8.25 25.9 7.3 25.95 M8.3 20.55 Q8.55 21.35 8.4 22.2 L8.2 23.1 Q7.8 24.35 6.85 24.95 L4.95 25.1 Q4.1 24.6 3.75 23.35 3.4 22.1 3.85 20.8 4.25 19.5 5.2 18.9 L7.05 18.8 Q7.95 19.3 8.3 20.55" fill="#856f49" fill-rule="evenodd" stroke="none"/>
      <path d="M8.3 20.55 Q7.95 19.3 7.05 18.8 L5.2 18.9 Q4.25 19.5 3.85 20.8 3.4 22.1 3.75 23.35 4.1 24.6 4.95 25.1 L6.85 24.95 Q7.8 24.35 8.2 23.1 L8.4 22.2 Q8.55 21.35 8.3 20.55" fill="#ab8a50" fill-rule="evenodd" stroke="none"/>
      <path d="M3.5 20.5 L3.5 20.45 3.5 20.5" fill="#474734" fill-rule="evenodd" stroke="none"/>
      <path d="M4.2 19.15 L4.75 18.6 5.0 18.4 5.35 18.2 5.55 18.15 7.1 18.25 7.25 18.35 Q6.95 17.5 8.7 18.35 L7.95 17.85 5.35 17.95 Q4.65 18.4 4.15 19.15 L4.2 19.15 M3.95 24.5 Q3.6 24.0 3.4 23.25 3.05 21.9 3.5 20.5 L3.5 20.45 3.45 20.6 Q2.8 22.4 3.3 24.15 L3.75 25.25 Q3.7 24.9 3.8 24.7 L3.95 24.5" fill="#fce89c" fill-rule="evenodd" stroke="none"/>
      <path d="M9.15 21.95 L9.0 23.15 8.85 23.7 8.4 24.65 Q8.45 25.2 9.25 24.55 L9.55 23.8 9.9 21.3 9.7 21.2 Q9.2 21.45 9.15 21.95" fill="#4c3c22" fill-rule="evenodd" stroke="none"/>
      <path d="M8.95 20.35 L8.95 20.45 9.15 21.95 Q9.2 21.45 9.7 21.2 L9.9 21.3 9.75 20.5 8.95 20.35 M8.4 24.65 L8.1 25.15 7.3 25.95 8.25 25.9 9.0 24.95 9.25 24.55 Q8.45 25.2 8.4 24.65" fill="#6f5731" fill-rule="evenodd" stroke="none"/>
      <path d="M8.7 18.35 Q6.95 17.5 7.25 18.35 L7.55 18.55 Q8.15 19.1 8.4 20.0 L8.45 20.15 Q8.75 21.3 8.45 22.5 L8.35 23.0 7.65 24.3 6.85 25.05 4.8 25.15 4.35 24.85 3.95 24.5 3.8 24.7 Q3.7 24.9 3.75 25.25 L4.05 25.7 4.75 26.2 7.1 26.1 7.3 25.95 8.1 25.15 8.4 24.65 8.85 23.7 9.0 23.15 9.15 21.95 8.95 20.45 8.95 20.35 8.15 18.85 8.4 18.9 9.1 18.9 8.7 18.35" fill="#ac8a51" fill-rule="evenodd" stroke="none"/>
      <path d="M4.15 19.15 Q4.65 18.4 5.35 17.95 L7.95 17.85 8.7 18.35 9.1 18.9 9.7 20.2 9.75 20.5 9.9 21.3 9.55 23.8 9.25 24.55 9.0 24.95 8.25 25.9 7.65 26.4 5.05 26.55 4.05 25.7 3.75 25.25 3.3 24.15 Q2.8 22.4 3.45 20.6 L3.5 20.45 3.7 19.85 4.05 19.25 4.15 19.15 Z" fill="none" stroke="#000000" stroke-linecap="round" stroke-linejoin="round" stroke-opacity="0.3019608" stroke-width="0.5"/>
      <path d="M7.75 19.45 Q6.9 18.4 5.75 18.4 4.55 18.45 3.7 19.55 2.85 20.65 2.85 22.2 2.85 23.75 3.7 24.8 4.55 25.85 5.7 25.8 6.9 25.75 7.75 24.65 8.6 23.55 8.6 22.0 8.6 20.5 7.75 19.45" fill="url(#gradient2)" fill-rule="evenodd" stroke="none"/>
      <path d="M7.75 19.45 Q6.9 18.4 5.75 18.4 4.55 18.45 3.7 19.55 2.85 20.65 2.85 22.2 2.85 23.75 3.7 24.8 4.55 25.85 5.7 25.8 6.9 25.75 7.75 24.65 8.6 23.55 8.6 22.0 8.6 20.5 7.75 19.45 Z" fill="none" stroke="#000000" stroke-linecap="round" stroke-linejoin="round" stroke-opacity="0.15294118" stroke-width="0.5"/>
    </g>
    <radialGradient cx="0" cy="0" gradientTransform="matrix(-0.0033, 0.0044, 0.0033, 0.0042, 4.9, 22.55)" gradientUnits="userSpaceOnUse" id="gradient2" r="819.2" spreadMethod="pad">
      <stop offset="0.0" stop-color="#d4e9ff"/>
      <stop offset="0.47843137254901963" stop-color="#cccccc"/>
      <stop offset="1.0" stop-color="#ffcc99"/>
    </radialGradient>
    <g id="shape9" transform="matrix(1.0, 0.0, 0.0, 1.0, -10.8, -21.1)">
      <path d="M24.6 26.0 L25.8 27.55 Q27.05 29.75 26.35 32.05 25.6 34.35 23.35 35.4 21.85 36.1 20.3 36.0 L20.1 36.0 20.3 36.1 21.25 36.5 24.2 36.35 25.05 36.2 Q26.8 35.2 27.35 33.85 27.9 32.5 27.9 31.15 L28.35 31.3 Q28.35 29.9 27.7 28.65 26.7 26.65 24.6 26.0" fill="#000000" fill-opacity="0.38039216" fill-rule="evenodd" stroke="none"/>
      <path d="M21.35 24.0 Q23.85 24.3 22.2 22.55 20.3 21.35 18.05 21.35 14.9 21.35 12.85 23.7 L12.05 24.8 Q11.0 28.05 12.3 27.55 12.7 26.15 13.65 24.95 15.3 23.0 17.95 23.0 19.75 23.0 21.35 24.0" fill="#f1df94" fill-rule="evenodd" stroke="none"/>
      <path d="M23.15 34.8 Q21.55 36.45 19.15 36.45 L18.95 36.45 18.85 37.0 18.9 37.55 19.5 37.55 Q22.2 37.55 24.05 35.9 23.9 34.9 23.55 34.9 L23.15 34.8" fill="#856f49" fill-rule="evenodd" stroke="none"/>
      <path d="M24.7 28.5 Q24.15 26.5 22.65 24.95 L21.35 24.0 Q19.75 23.0 17.95 23.0 15.3 23.0 13.65 24.95 12.7 26.15 12.3 27.55 12.1 28.55 12.2 29.75 12.45 32.5 14.45 34.45 16.45 36.35 18.95 36.45 L19.15 36.45 Q21.55 36.45 23.15 34.8 L23.45 34.45 Q25.15 32.5 24.9 29.75 L24.7 28.5" fill="#ab8a50" fill-rule="evenodd" stroke="none"/>
      <path d="M21.35 24.0 L22.65 24.95 Q24.15 26.5 24.7 28.5 24.5 24.3 25.7 26.55 25.05 24.95 23.7 23.7 23.0 23.0 22.2 22.55 23.85 24.3 21.35 24.0" fill="#4c3c22" fill-rule="evenodd" stroke="none"/>
      <path d="M25.7 26.55 Q24.5 24.3 24.7 28.5 L24.9 29.75 Q25.15 32.5 23.45 34.45 L23.15 34.8 23.55 34.9 Q23.9 34.9 24.05 35.9 L24.75 35.15 Q26.75 32.8 26.45 29.45 26.35 27.9 25.7 26.55" fill="#6f5731" fill-rule="evenodd" stroke="none"/>
      <path d="M18.95 36.45 Q16.45 36.35 14.45 34.45 12.45 32.5 12.2 29.75 12.1 28.55 12.3 27.55 11.0 28.05 12.05 24.8 10.9 26.8 11.1 29.45 11.4 32.8 13.9 35.15 16.1 37.3 18.9 37.55 L18.85 37.0 18.95 36.45" fill="#8d7450" fill-rule="evenodd" stroke="none"/>
      <path d="M22.2 22.55 Q23.0 23.0 23.7 23.7 25.05 24.95 25.7 26.55 M24.05 35.9 L24.75 35.15 Q26.75 32.8 26.45 29.45 26.35 27.9 25.7 26.55 M12.05 24.8 L12.85 23.7 Q14.9 21.35 18.05 21.35 20.3 21.35 22.2 22.55 M24.05 35.9 Q22.2 37.55 19.5 37.55 L18.9 37.55 M12.05 24.8 Q10.9 26.8 11.1 29.45 11.4 32.8 13.9 35.15 16.1 37.3 18.9 37.55" fill="none" stroke="#000000" stroke-linecap="round" stroke-linejoin="round" stroke-opacity="0.3019608" stroke-width="0.5"/>
      <path d="M12.8 29.7 Q13.0 32.05 14.75 33.7 16.5 35.35 18.8 35.35 21.05 35.35 22.55 33.7 24.0 32.05 23.8 29.7 23.6 27.35 21.85 25.7 20.05 24.05 17.8 24.05 15.5 24.05 14.05 25.7 12.6 27.35 12.8 29.7" fill="url(#gradient3)" fill-rule="evenodd" stroke="none"/>
      <path d="M12.8 29.7 Q13.0 32.05 14.75 33.7 16.5 35.35 18.8 35.35 21.05 35.35 22.55 33.7 24.0 32.05 23.8 29.7 23.6 27.35 21.85 25.7 20.05 24.05 17.8 24.05 15.5 24.05 14.05 25.7 12.6 27.35 12.8 29.7 Z" fill="none" stroke="#000000" stroke-linecap="round" stroke-linejoin="round" stroke-opacity="0.15294118" stroke-width="0.5"/>
    </g>
    <radialGradient cx="0" cy="0" gradientTransform="matrix(-0.009, 0.0, 8.0E-4, 0.0093, 16.7, 29.05)" gradientUnits="userSpaceOnUse" id="gradient3" r="819.2" spreadMethod="pad">
      <stop offset="0.0" stop-color="#d4e9ff"/>
      <stop offset="0.47843137254901963" stop-color="#cccccc"/>
      <stop offset="1.0" stop-color="#ffcc99"/>
    </radialGradient>
  </defs>
</svg>
