<?xml version="1.0" encoding="UTF-8" standalone="no"?>
<svg xmlns:xlink="http://www.w3.org/1999/xlink" height="520.0px" width="520.0px" xmlns="http://www.w3.org/2000/svg">
  <g transform="matrix(10.0, 0.0, 0.0, 10.0, 0.0, 0.0)">
    <use height="52.0" transform="matrix(1.0, 0.0, 0.0, 1.0, 0.0, 0.0)" width="52.0" xlink:href="#sprite0"/>
  </g>
  <defs>
    <g id="sprite0" transform="matrix(1.0, 0.0, 0.0, 1.0, 0.0, 0.0)">
      <use height="52.0" transform="matrix(1.0, 0.0, 0.0, 1.0, 0.0, 0.0)" width="52.0" xlink:href="#sprite1"/>
      <use height="38.65" transform="matrix(1.0, 0.0, 0.0, 1.0, 2.7, 7.15)" width="46.55" xlink:href="#shape1"/>
    </g>
    <g id="sprite1" transform="matrix(1.0, 0.0, 0.0, 1.0, 0.0, 0.0)">
      <use height="52.0" transform="matrix(1.0, 0.0, 0.0, 1.0, 0.0, 0.0)" width="52.0" xlink:href="#shape0"/>
    </g>
    <g id="shape0" transform="matrix(1.0, 0.0, 0.0, 1.0, 0.0, 0.0)">
      <path d="M52.0 0.0 L52.0 52.0 0.0 52.0 0.0 0.0 52.0 0.0" fill="#dea558" fill-opacity="0.0" fill-rule="evenodd" stroke="none"/>
    </g>
    <g id="shape1" transform="matrix(1.0, 0.0, 0.0, 1.0, -2.7, -7.15)">
      <path d="M44.8 11.3 Q47.3 13.35 47.45 15.15 47.55 17.6 47.15 19.05 46.75 20.5 46.75 22.5 L46.85 25.4 46.9 25.95 Q48.75 27.75 48.75 30.2 L48.75 30.6 48.1 29.55 47.8 29.1 Q46.5 26.95 46.35 25.3 L46.5 21.6 Q46.5 18.5 45.4 18.5 L45.0 18.5 44.5 18.95 44.65 17.25 44.6 15.95 44.3 14.65 44.0 13.15 43.95 12.8 44.15 11.85 44.25 11.65 Q44.4 11.4 44.8 11.3 M44.1 37.75 L42.15 39.1 Q37.85 41.9 32.4 43.5 L32.4 43.25 Q32.4 42.35 30.5 39.8 28.55 37.3 28.55 35.1 L28.95 32.5 29.35 30.35 Q29.35 29.1 28.65 28.7 34.2 27.45 38.6 24.9 39.85 24.7 39.85 26.55 L39.55 28.7 Q39.2 30.05 39.2 30.8 39.2 32.8 41.7 34.9 43.7 36.55 44.1 37.75 M16.65 45.2 Q13.25 44.85 10.4 43.85 8.45 43.15 7.1 42.3 L7.05 41.9 Q7.05 41.35 7.9 39.75 8.75 38.15 8.75 35.95 8.75 33.35 7.7 31.9 6.65 30.45 6.65 29.1 L6.7 28.05 Q6.8 27.55 7.35 27.2 L7.8 27.2 8.05 27.35 10.0 28.3 10.6 28.5 11.3 28.75 16.75 29.75 16.45 30.0 16.4 31.0 17.2 33.8 Q17.95 36.1 17.95 38.0 17.95 39.25 17.3 41.35 16.6 43.45 16.6 44.65 L16.65 45.2 M3.35 21.15 Q4.2 17.2 10.2 13.3 L10.85 12.9 11.4 12.6 11.5 12.55 12.4 12.8 12.7 13.4 12.7 14.15 Q7.8 17.1 5.0 22.15 L4.65 21.05 4.05 20.8 3.45 21.0 3.35 21.15 M21.05 8.85 L23.85 8.3 27.85 7.8 Q32.5 7.45 36.0 7.85 L37.45 8.05 36.8 8.4 Q36.4 8.65 36.35 9.05 L36.4 9.4 36.4 9.65 36.45 9.95 33.25 9.7 23.55 10.45 Q23.7 9.1 21.05 8.85" fill="#224469" fill-rule="evenodd" stroke="none"/>
      <path d="M40.55 8.8 L39.55 9.65 39.45 10.65 36.45 9.95 36.4 9.65 36.4 9.4 36.35 9.05 Q36.4 8.65 36.8 8.4 L37.45 8.05 38.25 8.2 40.55 8.8 M42.0 11.7 L42.3 10.95 43.1 10.1 44.8 11.3 Q44.4 11.4 44.25 11.65 L44.15 11.85 43.95 12.8 44.0 13.15 42.0 11.7 M48.75 30.6 Q48.65 32.0 48.0 33.35 47.35 32.15 46.1 30.95 43.65 28.6 43.65 26.85 L43.95 23.5 43.7 22.05 43.15 21.55 43.75 20.95 44.5 18.95 45.0 18.5 45.4 18.5 Q46.5 18.5 46.5 21.6 L46.35 25.3 Q46.5 26.95 47.8 29.1 L48.1 29.55 48.75 30.6 M46.85 35.05 L44.1 37.75 Q43.7 36.55 41.7 34.9 39.2 32.8 39.2 30.8 39.2 30.05 39.55 28.7 L39.85 26.55 Q39.85 24.7 38.6 24.9 L39.85 24.1 40.35 23.8 41.05 23.3 41.45 23.0 41.55 22.9 42.25 23.2 42.35 23.9 42.1 25.5 41.85 27.45 Q41.85 29.65 44.4 31.75 46.6 33.65 46.85 35.05 M32.4 43.5 L26.3 44.8 26.15 44.85 26.25 44.0 25.15 40.9 Q24.05 37.6 24.05 34.75 L24.15 31.7 Q24.3 30.75 23.9 30.2 L23.35 29.6 25.25 29.35 28.25 28.8 28.65 28.7 Q29.35 29.1 29.35 30.35 L28.95 32.5 28.55 35.1 Q28.55 37.3 30.5 39.8 32.4 42.35 32.4 43.25 L32.4 43.5 M23.15 45.2 Q19.7 45.45 16.65 45.2 L16.6 44.65 Q16.6 43.45 17.3 41.35 17.95 39.25 17.95 38.0 17.95 36.1 17.2 33.8 L16.4 31.0 16.45 30.0 16.75 29.75 17.3 29.8 21.0 29.8 20.7 30.65 Q20.7 31.35 21.65 33.35 22.55 35.3 22.55 37.05 L22.05 43.25 Q22.05 44.25 22.3 44.45 L23.15 45.2 M7.1 42.3 L5.1 40.5 5.05 40.45 4.95 39.65 Q4.95 38.6 5.9 37.45 6.85 36.35 6.85 35.5 6.85 34.2 5.75 31.8 4.65 29.4 4.65 28.5 4.65 27.05 5.15 26.75 5.4 26.55 6.25 26.25 6.85 26.95 7.8 27.2 L7.35 27.2 Q6.8 27.55 6.7 28.05 L6.65 29.1 Q6.65 30.45 7.7 31.9 8.75 33.35 8.75 35.95 8.75 38.15 7.9 39.75 7.05 41.35 7.05 41.9 L7.1 42.3 M3.85 37.1 L3.85 36.95 Q3.85 34.7 5.4 32.55 L5.25 31.5 Q5.9 32.9 5.9 33.75 5.9 35.05 4.7 36.15 L3.85 37.1 M3.5 25.6 Q3.2 24.05 3.2 22.45 L3.25 21.6 3.35 21.15 3.45 21.0 4.05 20.8 4.65 21.05 5.0 22.15 5.2 24.05 Q3.7 24.15 3.5 25.6 M11.5 12.55 Q13.15 11.55 14.75 10.85 L15.05 10.7 Q16.3 11.05 16.45 12.1 L16.5 12.3 16.05 12.45 Q14.25 13.2 12.7 14.15 L12.7 13.4 12.4 12.8 11.5 12.55 M18.2 9.5 L21.05 8.85 Q23.7 9.1 23.55 10.45 L19.75 11.25 Q19.7 10.55 19.1 10.05 L18.2 9.5" fill="#f9eaca" fill-rule="evenodd" stroke="none"/>
      <path d="M44.0 13.15 L44.3 14.65 44.6 15.95 44.65 17.25 44.5 18.95 43.75 20.95 43.15 21.55 42.95 21.75 42.4 22.25 41.55 22.9 41.45 23.0 41.2 22.95 40.7 22.8 40.6 22.75 40.6 22.65 40.15 22.1 40.15 21.45 Q40.15 21.0 40.55 20.1 L41.2 18.8 41.55 17.3 41.75 15.75 Q41.5 13.15 42.0 11.7 L44.0 13.15 M36.45 9.95 L39.45 10.65 39.45 11.0 39.65 14.3 Q39.65 16.15 38.8 18.85 L37.95 21.9 38.1 22.2 35.7 21.9 35.3 21.9 35.15 21.6 Q35.0 21.35 35.2 20.8 L35.95 18.4 36.55 15.3 36.55 12.0 36.45 9.95 M23.55 10.45 L23.4 11.7 Q23.1 14.15 23.65 16.9 24.2 19.6 25.0 20.5 25.8 21.4 25.6 21.95 L25.4 22.5 21.7 23.3 21.95 22.45 20.6 20.25 Q19.2 17.85 19.2 15.1 19.2 14.25 19.5 13.0 L19.75 11.3 19.75 11.25 23.55 10.45 M16.5 12.3 L16.4 14.8 Q16.4 17.7 18.15 20.25 L19.85 23.0 19.7 23.85 Q17.6 24.45 15.7 25.25 L15.85 24.5 Q15.95 23.9 14.7 21.6 L13.35 18.95 Q12.6 16.45 12.6 15.35 L12.7 14.15 Q14.25 13.2 16.05 12.45 L16.5 12.3" fill="#c7b185" fill-rule="evenodd" stroke="none"/>
      <path d="M40.55 8.8 L41.15 9.05 42.75 9.85 43.1 10.1 42.3 10.95 42.0 11.7 41.3 11.35 39.45 10.65 39.55 9.65 40.55 8.8 M48.0 33.35 L46.85 35.05 Q46.6 33.65 44.4 31.75 41.85 29.65 41.85 27.45 L42.1 25.5 42.35 23.9 42.25 23.2 41.55 22.9 42.4 22.25 42.95 21.75 43.15 21.55 43.7 22.05 43.95 23.5 43.65 26.85 Q43.65 28.6 46.1 30.95 47.35 32.15 48.0 33.35 M26.15 44.85 L23.45 45.15 23.15 45.2 22.3 44.45 Q22.05 44.25 22.05 43.25 L22.55 37.05 Q22.55 35.3 21.65 33.35 20.7 31.35 20.7 30.65 L21.0 29.8 22.95 29.65 23.35 29.6 23.9 30.2 Q24.3 30.75 24.15 31.7 L24.05 34.75 Q24.05 37.6 25.15 40.9 L26.25 44.0 26.15 44.85 M5.05 40.45 L4.85 40.15 Q3.9 38.75 3.85 37.1 L4.7 36.15 Q5.9 35.05 5.9 33.75 5.9 32.9 5.25 31.5 L4.3 28.45 3.75 26.6 3.5 25.6 Q3.7 24.15 5.2 24.05 5.45 25.45 6.25 26.25 5.4 26.55 5.15 26.75 4.65 27.05 4.65 28.5 4.65 29.4 5.75 31.8 6.85 34.2 6.85 35.5 6.85 36.35 5.9 37.45 4.95 38.6 4.95 39.65 L5.05 40.45 M15.05 10.7 Q16.25 10.15 17.4 9.75 L18.2 9.5 19.1 10.05 Q19.7 10.55 19.75 11.25 18.0 11.7 16.5 12.3 L16.45 12.1 Q16.3 11.05 15.05 10.7" fill="#990000" fill-rule="evenodd" stroke="none"/>
      <path d="M39.45 10.65 L41.3 11.35 42.0 11.7 Q41.5 13.15 41.75 15.75 L41.55 17.3 41.2 18.8 40.55 20.1 Q40.15 21.0 40.15 21.45 L40.15 22.1 40.6 22.65 40.6 22.75 38.1 22.2 37.95 21.9 38.8 18.85 Q39.65 16.15 39.65 14.3 L39.45 11.0 39.45 10.65 M19.75 11.25 L19.75 11.3 19.5 13.0 Q19.2 14.25 19.2 15.1 19.2 17.85 20.6 20.25 L21.95 22.45 21.7 23.3 19.7 23.85 19.85 23.0 18.15 20.25 Q16.4 17.7 16.4 14.8 L16.5 12.3 Q18.0 11.7 19.75 11.25" fill="#5c0101" fill-rule="evenodd" stroke="none"/>
      <path d="M36.45 9.95 L36.55 12.0 36.55 15.3 35.95 18.4 35.2 20.8 Q35.0 21.35 35.15 21.6 L35.3 21.9 26.3 22.35 25.4 22.5 25.6 21.95 Q25.8 21.4 25.0 20.5 24.2 19.6 23.65 16.9 23.1 14.15 23.4 11.7 L23.55 10.45 33.25 9.7 36.45 9.95 M12.7 14.15 L12.6 15.35 Q12.6 16.45 13.35 18.95 L14.7 21.6 Q15.95 23.9 15.85 24.5 L15.7 25.25 Q12.85 26.4 10.4 28.0 L10.0 28.3 8.05 27.35 7.8 27.2 Q6.85 26.95 6.25 26.25 5.45 25.45 5.2 24.05 L5.0 22.15 Q7.8 17.1 12.7 14.15" fill="#172d47" fill-rule="evenodd" stroke="none"/>
      <path d="M43.1 10.1 L42.75 9.85 41.15 9.05 40.55 8.8 M43.1 10.1 L44.8 11.3 Q47.3 13.35 47.45 15.15 47.55 17.6 47.15 19.05 46.75 20.5 46.75 22.5 L46.85 25.4 46.9 25.95 Q48.75 27.75 48.75 30.2 L48.75 30.6 Q48.65 32.0 48.0 33.35 L46.85 35.05 44.1 37.75 42.15 39.1 Q37.85 41.9 32.4 43.5 L26.3 44.8 26.15 44.85 23.45 45.15 23.15 45.2 Q19.7 45.45 16.65 45.2 13.25 44.85 10.4 43.85 8.45 43.15 7.1 42.3 L5.1 40.5 5.05 40.45 4.85 40.15 Q3.9 38.75 3.85 37.1 L3.85 36.95 Q3.85 34.7 5.4 32.55 L5.25 31.5 4.3 28.45 3.75 26.6 3.5 25.6 Q3.2 24.05 3.2 22.45 L3.25 21.6 3.35 21.15 Q4.2 17.2 10.2 13.3 L10.85 12.9 11.4 12.6 11.5 12.55 Q13.15 11.55 14.75 10.85 L15.05 10.7 Q16.25 10.15 17.4 9.75 L18.2 9.5 21.05 8.85 23.85 8.3 27.85 7.8 Q32.5 7.45 36.0 7.85 L37.45 8.05 38.25 8.2 40.55 8.8 M40.6 22.75 L40.7 22.8 41.2 22.95 41.45 23.0 41.05 23.3 40.35 23.8 39.85 24.1 38.6 24.9 M41.55 22.9 L42.4 22.25 42.95 21.75 43.15 21.55 43.75 20.95 44.5 18.95 M38.1 22.2 L40.6 22.75 M35.3 21.9 L35.7 21.9 38.1 22.2 M21.7 23.3 L25.4 22.5 26.3 22.35 35.3 21.9 M19.7 23.85 L21.7 23.3 M15.7 25.25 Q17.6 24.45 19.7 23.85 M10.0 28.3 L10.4 28.0 Q12.85 26.4 15.7 25.25 M16.75 29.75 L11.3 28.75 10.6 28.5 10.0 28.3 8.05 27.35 7.8 27.2 M21.0 29.8 L17.3 29.8 16.75 29.75 M28.65 28.7 L28.25 28.8 25.25 29.35 23.35 29.6 22.95 29.65 21.0 29.8 M28.65 28.7 Q34.2 27.45 38.6 24.9" fill="none" stroke="#000000" stroke-linecap="round" stroke-linejoin="round" stroke-opacity="0.3019608" stroke-width="1.0"/>
      <path d="M46.9 21.55 L47.05 22.3 47.15 22.45 48.0 24.15 48.25 25.0 48.35 25.75 Q47.5 28.85 43.55 31.95 37.95 36.35 29.25 37.95 L20.85 38.2 21.15 36.8 27.65 36.05 Q36.35 34.5 42.0 30.3 45.7 27.45 46.65 24.65 47.0 23.6 46.95 22.6 L46.95 22.45 46.9 21.55" fill="#990000" fill-rule="evenodd" stroke="none"/>
      <path d="M48.35 25.75 L48.3 26.95 Q47.8 30.5 43.15 33.95 37.3 38.35 28.25 39.9 19.25 41.55 12.15 39.65 4.95 37.6 4.0 33.1 L3.9 32.65 3.85 31.95 3.95 30.65 3.9 30.55 3.9 30.5 4.05 30.05 4.1 30.0 4.55 30.25 4.1 30.0 4.25 29.5 4.35 29.5 4.55 30.25 Q5.15 31.95 6.8 33.25 L8.15 34.15 Q9.8 35.05 12.15 35.75 16.3 36.9 21.15 36.8 L20.85 38.2 29.25 37.95 Q37.95 36.35 43.55 31.95 47.5 28.85 48.35 25.75" fill="#5c0101" fill-rule="evenodd" stroke="none"/>
      <path d="M48.3 26.95 L48.3 27.85 Q48.55 31.95 43.15 36.0 37.3 40.4 28.3 42.0 L20.45 42.7 Q16.05 42.7 12.2 41.7 5.05 39.65 4.1 35.2 L4.0 34.3 4.05 34.3 4.0 34.0 3.95 33.1 4.0 33.1 Q4.95 37.6 12.15 39.65 19.25 41.55 28.25 39.9 37.3 38.35 43.15 33.95 47.8 30.5 48.3 26.95" fill="#c7b185" fill-rule="evenodd" stroke="none"/>
      <path d="M4.0 30.05 L4.0 29.9 4.1 30.0 4.05 30.05 4.0 30.05 M4.55 30.25 L4.8 30.5 7.2 31.6 Q9.65 32.55 12.95 33.5 16.2 34.4 21.05 34.35 L27.6 33.6 Q36.3 32.0 41.95 27.75 45.7 24.9 46.6 22.1 L46.9 21.1 46.9 21.35 46.9 21.55 46.95 22.45 46.95 22.6 Q47.0 23.6 46.65 24.65 45.7 27.45 42.0 30.3 36.35 34.5 27.65 36.05 L21.15 36.8 Q16.3 36.9 12.15 35.75 9.8 35.05 8.15 34.15 L6.8 33.25 Q5.15 31.95 4.55 30.25" fill="#f9eaca" fill-rule="evenodd" stroke="none"/>
      <path d="M4.25 29.5 L4.35 29.5" fill="none" stroke="#000000" stroke-linecap="round" stroke-linejoin="round" stroke-opacity="0.3019608" stroke-width="0.05"/>
      <path d="M46.9 21.55 L47.05 22.3 47.15 22.45 48.0 24.15 48.25 25.0 48.35 25.75 48.3 26.95 M48.3 27.85 Q48.55 31.95 43.15 36.0 37.3 40.4 28.3 42.0 L20.45 42.7 Q16.05 42.7 12.2 41.7 5.05 39.65 4.1 35.2 L4.0 34.3 4.0 34.0 M3.95 33.1 L4.0 33.1 3.9 32.65 3.85 31.95 3.95 30.65 3.9 30.55 3.9 30.5 4.0 30.05 4.0 29.9 4.1 30.0 M4.55 30.25 L4.8 30.5 7.2 31.6 Q9.65 32.55 12.95 33.5 16.2 34.4 21.05 34.35 L27.6 33.6 Q36.3 32.0 41.95 27.75 45.7 24.9 46.6 22.1 L46.9 21.1 46.9 21.35 46.9 21.55 M4.55 30.25 L4.1 30.0" fill="none" stroke="#000000" stroke-linecap="round" stroke-linejoin="round" stroke-opacity="0.2" stroke-width="0.05"/>
      <path d="M23.25 31.55 L23.4 31.55 Q30.5 30.8 37.0 28.1 45.05 24.75 47.0 19.85 46.75 21.0 46.75 22.5 L46.85 25.25 46.85 25.4 46.9 25.95 47.0 26.05 47.05 26.1 46.95 26.15 47.05 27.15 Q47.05 29.3 45.35 31.65 43.65 34.0 37.85 36.95 32.05 39.85 28.3 40.4 L25.35 40.65 24.0 40.0 23.35 38.5 Q22.9 37.45 22.8 36.9 22.65 36.25 22.65 35.2 L22.95 33.25 23.25 31.55 M20.75 11.2 L20.65 11.2 24.2 10.55 29.6 10.1 32.85 10.0 36.05 10.25 40.2 11.1 Q42.55 11.65 44.3 14.7 46.05 17.7 41.45 23.0 L41.2 22.95 40.7 22.8 40.6 22.75 38.1 22.2 35.7 21.9 35.3 21.9 26.3 22.35 25.4 22.5 21.7 23.3 19.7 23.85 Q17.6 24.45 15.7 25.25 12.85 26.4 10.4 28.0 L10.0 28.3 8.3 27.5 Q12.1 24.05 20.3 21.75 L21.9 21.35 23.45 20.95 23.6 20.75 Q23.9 20.3 23.9 19.3 L22.95 13.65 Q22.85 12.0 21.9 11.5 L20.75 11.2" fill="#000000" fill-opacity="0.3019608" fill-rule="evenodd" stroke="none"/>
      <path d="M23.25 31.55 L18.05 31.8 11.65 31.2 Q9.5 30.7 7.15 29.5 5.75 28.8 4.3 26.4 L3.4 24.95 3.2 22.45 3.25 21.6 3.35 21.15 Q4.2 17.2 10.2 13.3 L10.85 12.9 11.4 12.6 11.5 12.55 Q13.15 11.55 14.75 10.85 L15.05 10.7 Q16.25 10.15 17.4 9.75 L18.2 9.5 21.05 8.85 23.85 8.3 27.85 7.8 Q32.5 7.45 36.0 7.85 L37.45 8.05 38.25 8.2 40.55 8.8 41.15 9.05 42.75 9.85 43.1 10.1 44.8 11.3 Q47.3 13.35 47.45 15.15 L47.5 15.95 47.5 16.35 47.15 19.05 47.0 19.85 Q45.05 24.75 37.0 28.1 30.5 30.8 23.4 31.55 L23.25 31.55 M47.05 26.1 Q48.75 27.85 48.75 30.2 L48.75 30.6 Q48.65 32.0 48.0 33.35 L46.85 35.05 44.1 37.75 42.15 39.1 Q37.85 41.9 32.4 43.5 L26.3 44.8 26.15 44.85 23.45 45.15 23.15 45.2 Q19.7 45.45 16.65 45.2 13.25 44.85 10.4 43.85 8.45 43.15 7.1 42.3 L5.1 40.5 5.05 40.45 4.85 40.15 Q3.9 38.75 3.85 37.1 L3.85 36.95 Q3.85 34.7 5.4 32.55 8.65 38.0 10.8 39.15 12.9 40.3 18.7 40.6 L25.35 40.65 28.3 40.4 Q32.05 39.85 37.85 36.95 43.65 34.0 45.35 31.65 47.05 29.3 47.05 27.15 L46.95 26.15 47.05 26.1 M41.45 23.0 Q46.05 17.7 44.3 14.7 42.55 11.65 40.2 11.1 L36.05 10.25 32.85 10.0 29.6 10.1 24.2 10.55 20.65 11.2 20.75 11.2 20.25 11.35 19.95 11.45 19.1 11.7 15.1 13.15 Q5.35 17.2 5.35 22.95 5.35 25.1 7.8 27.2 L8.05 27.35 8.3 27.5 10.0 28.3 10.6 28.5 11.3 28.75 16.75 29.75 17.3 29.8 21.0 29.8 22.95 29.65 23.35 29.6 25.25 29.35 28.25 28.8 28.65 28.7 Q34.2 27.45 38.6 24.9 L39.85 24.1 40.35 23.8 41.05 23.3 41.45 23.0" fill="#ffffcc" fill-opacity="0.2" fill-rule="evenodd" stroke="none"/>
      <path d="M10.0 28.3 L8.3 27.5" fill="none" stroke="#000000" stroke-linecap="round" stroke-linejoin="round" stroke-opacity="0.3019608" stroke-width="0.05"/>
    </g>
  </defs>
</svg>
