<?xml version="1.0" encoding="UTF-8" standalone="no"?>
<svg xmlns:xlink="http://www.w3.org/1999/xlink" height="520.0px" width="520.0px" xmlns="http://www.w3.org/2000/svg">
  <g transform="matrix(10.0, 0.0, 0.0, 10.0, 0.0, 0.0)">
    <use height="52.0" transform="matrix(1.0, 0.0, 0.0, 1.0, 0.0, 0.0)" width="52.0" xlink:href="#shape0"/>
    <use height="52.3" transform="matrix(0.2834, -0.1636, 0.1498, 0.2594, -0.9463, 23.7273)" width="138.55" xlink:href="#sprite0"/>
    <use height="31.3" transform="matrix(1.0, 0.0, 0.0, 1.0, 5.4, 8.05)" width="42.45" xlink:href="#shape15"/>
    <use height="115.2" transform="matrix(-0.0305, -0.0695, 0.0589, -0.0258, 6.6203, 42.2863)" width="166.25" xlink:href="#sprite11"/>
    <use height="3.4" transform="matrix(1.0, 0.0, 0.0, 1.0, 9.3, 36.5)" width="2.35" xlink:href="#shape16"/>
    <use height="50.25" transform="matrix(0.2679, -0.1164, 0.1164, 0.2679, 6.4539, 30.8121)" width="52.6" xlink:href="#sprite1"/>
    <use height="115.2" transform="matrix(-0.0467, -0.0597, -0.0411, 0.0321, 51.264, 14.2607)" width="166.25" xlink:href="#sprite7"/>
    <use height="5.6" transform="matrix(1.0, 0.0, 0.0, 1.0, 44.25, 12.0)" width="3.25" xlink:href="#shape17"/>
    <use height="50.25" transform="matrix(-0.203, 0.145, 0.1613, 0.2258, 42.9604, 8.5573)" width="52.6" xlink:href="#sprite6"/>
    <use height="17.65" transform="matrix(1.0, 0.0, 0.0, 1.0, 20.75, 18.6)" width="20.25" xlink:href="#shape18"/>
    <use height="123.8" transform="matrix(0.1295, -0.0568, 0.0598, 0.1361, 18.7527, 24.0802)" width="134.3" xlink:href="#sprite4"/>
    <use height="12.2" transform="matrix(0.1088, 0.2661, 0.3596, -0.147, 19.7, 32.25)" width="5.25" xlink:href="#sprite12"/>
    <use height="12.2" transform="matrix(-0.0506, 0.2232, 0.1862, 0.0422, 7.65, 34.4)" width="5.25" xlink:href="#sprite12"/>
    <use height="12.2" transform="matrix(0.1559, 0.2183, 0.1822, -0.1301, 36.95, 21.9)" width="5.25" xlink:href="#sprite12"/>
    <use height="12.2" transform="matrix(0.201, 0.1919, -0.1133, 0.1186, 45.2, 12.15)" width="5.25" xlink:href="#sprite12"/>
    <use height="55.0" transform="matrix(0.1098, -0.0634, 0.0634, 0.1097, 36.4, 19.95)" width="46.4" xlink:href="#sprite13"/>
    <use height="55.0" transform="matrix(0.1535, -0.0411, 0.0411, 0.1535, 26.65, 16.25)" width="46.4" xlink:href="#sprite13"/>
    <use height="55.0" transform="matrix(0.1, -0.0268, 0.0268, 0.1, 13.4, 26.1)" width="46.4" xlink:href="#sprite13"/>
    <use height="55.0" transform="matrix(0.0723, -0.0194, 0.0194, 0.0723, 41.15, 10.1)" width="46.4" xlink:href="#sprite13"/>
  </g>
  <defs>
    <g id="shape0" transform="matrix(1.0, 0.0, 0.0, 1.0, 0.0, 0.0)">
      <path d="M0.0 0.0 L52.0 0.0 52.0 52.0 0.0 52.0 0.0 0.0" fill="#ffffff" fill-opacity="0.0" fill-rule="evenodd" stroke="none"/>
      <path d="M42.4 5.55 L41.8 5.7 40.9 6.4 39.65 5.6 39.25 5.4 38.75 5.3 38.35 5.3 38.3 5.3 37.95 5.3 37.7 5.45 37.6 5.5 35.55 6.65 35.0 7.15 34.85 7.4 34.65 7.85 34.55 9.2 34.3 8.9 Q33.45 8.05 32.25 7.7 L32.0 7.6 30.55 7.5 29.5 7.8 29.0 8.05 28.85 8.15 28.75 8.2 28.7 8.2 28.45 8.4 28.4 8.45 27.7 8.85 27.65 8.85 27.6 8.9 27.5 8.95 27.4 9.0 Q26.3 9.7 25.85 10.85 L25.55 11.6 25.5 11.75 25.45 13.15 25.15 13.3 Q24.2 12.05 22.55 11.7 L21.85 11.55 Q20.3 11.45 18.85 12.3 L18.0 12.75 17.95 12.8 17.75 13.0 17.35 13.3 16.85 13.75 16.4 14.25 16.2 14.55 16.1 14.7 16.1 14.75 15.9 15.05 Q15.4 16.2 15.6 17.9 L15.65 18.15 15.95 18.85 15.05 18.4 14.85 18.3 14.05 18.15 Q12.8 17.95 11.7 18.5 L11.6 18.55 11.55 18.6 11.5 18.65 11.45 18.65 10.35 19.3 10.25 19.35 10.1 19.45 9.75 19.7 9.65 19.85 8.95 20.5 Q8.55 21.05 8.4 21.75 L8.3 22.1 Q8.1 23.4 8.5 24.6 L8.85 25.55 Q8.3 25.2 7.75 25.05 L7.25 24.95 6.9 24.9 6.15 25.15 4.05 26.35 3.7 26.65 3.45 27.05 3.3 27.35 3.15 27.9 3.1 28.4 Q3.0 29.3 3.35 30.5 L3.2 30.95 Q2.85 32.05 3.25 33.85 L3.3 34.05 3.7 35.5 Q4.25 37.05 5.2 38.45 6.5 40.5 7.85 41.05 L7.9 41.15 9.05 41.2 9.1 41.15 9.15 41.15 9.25 41.1 9.3 41.05 10.95 40.35 11.25 40.2 Q12.0 40.9 12.95 41.4 L13.2 41.45 Q14.5 42.15 15.8 42.1 L16.0 42.15 16.15 42.15 16.45 42.1 18.15 41.7 18.2 41.65 18.25 41.65 18.35 41.6 18.4 41.55 18.45 41.55 18.5 41.5 18.65 41.45 18.7 41.45 19.15 41.25 20.35 40.7 20.5 40.65 Q21.85 40.05 22.7 38.95 L23.45 37.7 23.5 37.55 26.0 36.65 26.65 37.05 27.45 37.4 28.35 37.75 30.25 38.1 31.0 38.15 33.8 37.55 33.85 37.55 33.85 37.5 34.05 37.45 34.8 37.1 34.8 37.05 35.15 36.95 35.2 36.9 35.5 36.8 35.85 36.65 Q38.85 35.15 40.1 31.8 40.9 29.45 40.5 27.05 L42.25 25.15 42.55 25.1 Q43.55 25.05 44.4 24.6 L44.8 24.3 44.95 24.25 46.0 23.45 46.15 23.35 46.2 23.35 46.3 23.25 46.35 23.2 46.4 23.2 46.45 23.15 46.55 23.1 46.55 23.05 46.6 23.05 47.6 22.05 47.8 21.75 47.85 21.65 47.95 21.45 Q48.45 20.5 48.5 19.15 L48.55 18.95 48.45 17.9 48.4 17.55 48.2 16.75 48.2 16.65 48.2 16.6 49.35 15.75 49.4 15.7 49.5 15.6 49.55 15.6 49.9 14.7 49.9 14.6 Q49.85 13.25 48.65 11.15 L46.65 8.5 45.65 7.45 45.45 7.25 Q44.1 6.05 43.1 5.7 L42.7 5.55 42.4 5.55 M34.9 18.4 L33.6 19.6 33.5 19.55 Q31.5 19.05 29.5 19.55 31.65 18.4 33.95 17.5 L34.8 17.2 34.9 18.25 34.9 18.4 M19.65 27.45 L20.75 28.1 20.75 28.0 20.85 28.1 21.75 27.65 Q21.85 26.6 22.25 25.55 22.7 24.25 23.45 23.25 21.0 25.0 18.7 27.1 L19.2 27.25 19.65 27.45" fill="none" stroke="#000000" stroke-linecap="round" stroke-linejoin="round" stroke-opacity="0.3019608" stroke-width="1.0"/>
    </g>
    <g id="sprite0" transform="matrix(1.0, 0.0, 0.0, 1.0, 97.35, 11.75)">
      <use height="50.25" transform="matrix(0.5995, 0.0, 0.0, 0.5995, -12.4499, -6.9999)" width="52.6" xlink:href="#sprite1"/>
      <use height="123.8" transform="matrix(0.247, 0.0, 0.0, 0.2472, -45.4117, -11.7618)" width="134.3" xlink:href="#sprite4"/>
      <use height="50.25" transform="matrix(-0.5847, 0.0, 0.0, 0.6505, -43.4038, -5.8126)" width="52.6" xlink:href="#sprite6"/>
      <use height="115.2" transform="matrix(0.0, -0.2191, -0.2234, 0.0, -71.5942, 40.552)" width="166.25" xlink:href="#sprite7"/>
      <use height="115.2" transform="matrix(0.0, -0.1996, 0.2148, 0.0, 16.4463, 32.7295)" width="166.25" xlink:href="#sprite11"/>
    </g>
    <g id="sprite1" transform="matrix(1.0, 0.0, 0.0, 1.0, 0.25, 0.25)">
      <use height="50.25" transform="matrix(1.0, 0.0, 0.0, 1.0, -0.25, -0.25)" width="52.6" xlink:href="#shape1"/>
      <use height="47.9" transform="matrix(1.0, 0.0, 0.0, 1.0, 0.0, 2.0)" width="44.35" xlink:href="#sprite2"/>
      <use height="6.3" transform="matrix(1.0, 0.0, 0.0, 1.0, 12.7, 32.55)" width="7.9" xlink:href="#shape3"/>
      <use height="0.0" transform="matrix(-0.4577, 0.0, 0.0, 0.4267, 50.15, 0.5)" width="0.0" xlink:href="#sprite3"/>
    </g>
    <g id="shape1" transform="matrix(1.0, 0.0, 0.0, 1.0, 0.25, 0.25)">
      <path d="M52.1 24.85 Q52.1 28.0 51.5 30.9 50.65 35.0 48.6 38.5 L45.75 42.45 Q43.0 45.65 39.7 47.45 35.5 49.75 30.45 49.75 L29.9 49.75 22.55 49.75 22.45 49.75 21.95 49.75 21.85 49.75 21.75 49.75 21.6 49.75 Q17.25 49.75 13.55 48.05 9.6 46.2 6.3 42.45 L5.7 41.75 Q3.15 38.55 1.75 34.85 0.95 32.75 0.5 30.45 L0.2 28.25 0.05 25.85 0.0 24.85 Q0.0 22.8 0.25 20.9 L0.5 19.3 Q0.95 16.9 1.85 14.65 3.2 11.05 5.7 8.0 L6.3 7.25 9.3 4.35 Q14.45 0.2 21.0 0.0 L21.6 0.0 22.0 0.0 22.25 0.05 22.45 0.05 22.45 0.0 22.6 0.0 30.9 0.0 32.7 0.15 Q35.75 0.45 38.5 1.7 41.85 3.2 44.65 6.05 L45.75 7.25 Q50.15 12.3 51.5 18.8 52.1 21.7 52.1 24.85 M22.45 42.9 Q25.05 42.75 27.3 41.75 L29.7 40.4 32.65 37.65 Q36.3 33.5 37.0 27.95 L37.2 25.1 Q37.2 17.7 32.65 12.45 L32.4 12.15 32.15 11.85 29.7 9.75 Q26.45 7.45 22.45 7.3 L21.7 7.25 Q16.7 7.25 12.8 10.4 L11.25 11.85 10.7 12.45 9.45 14.1 9.1 14.65 8.7 15.3 Q6.15 19.6 6.15 25.1 L6.15 25.85 Q6.2 27.1 6.4 28.25 6.9 31.85 8.7 34.85 L10.5 37.45 10.7 37.65 13.4 40.15 Q17.05 42.9 21.7 42.9 L22.45 42.9" fill="#b97600" fill-rule="evenodd" stroke="none"/>
      <path d="M22.45 7.3 Q26.45 7.45 29.7 9.75 L32.15 11.85 32.4 12.15 32.65 12.45 Q37.2 17.7 37.2 25.1 L37.0 27.95 Q36.3 33.5 32.65 37.65 L29.7 40.4 27.3 41.75 Q25.05 42.75 22.45 42.9 16.5 42.6 12.2 37.65 L11.3 36.55 10.2 34.85 Q8.4 31.85 7.9 28.25 7.7 27.1 7.65 25.85 L7.65 25.1 Q7.65 20.15 9.7 16.2 L10.2 15.3 10.8 14.3 12.2 12.45 12.75 11.85 Q16.85 7.55 22.45 7.3" fill="#b96c00" fill-rule="evenodd" stroke="none"/>
      <path d="M22.45 42.9 L21.7 42.9 Q17.05 42.9 13.4 40.15 L10.7 37.65 10.5 37.45 8.7 34.85 Q6.9 31.85 6.4 28.25 6.2 27.1 6.15 25.85 L6.15 25.1 Q6.15 19.6 8.7 15.3 L9.1 14.65 9.45 14.1 10.7 12.45 11.25 11.85 12.8 10.4 Q16.7 7.25 21.7 7.25 L22.45 7.3 Q16.85 7.55 12.75 11.85 L12.2 12.45 10.8 14.3 10.2 15.3 9.7 16.2 Q7.65 20.15 7.65 25.1 L7.65 25.85 Q7.7 27.1 7.9 28.25 8.4 31.85 10.2 34.85 L11.3 36.55 12.2 37.65 Q16.5 42.6 22.45 42.9" fill="#966000" fill-rule="evenodd" stroke="none"/>
      <path d="M52.1 24.85 Q52.1 28.0 51.5 30.9 50.65 35.0 48.6 38.5 L45.75 42.45 Q43.0 45.65 39.7 47.45 35.5 49.75 30.45 49.75 L29.9 49.75 22.55 49.75 22.45 49.75 21.95 49.75 21.85 49.75 21.75 49.75 21.6 49.75 Q17.25 49.75 13.55 48.05 9.6 46.2 6.3 42.45 L5.7 41.75 Q3.15 38.55 1.75 34.85 0.95 32.75 0.5 30.45 L0.2 28.25 0.05 25.85 0.0 24.85 Q0.0 22.8 0.25 20.9 L0.5 19.3 Q0.95 16.9 1.85 14.65 3.2 11.05 5.7 8.0 L6.3 7.25 9.3 4.35 Q14.45 0.2 21.0 0.0 L21.6 0.0 22.0 0.0 22.25 0.05 22.45 0.05 22.45 0.0 22.6 0.0 30.9 0.0 32.7 0.15 Q35.75 0.45 38.5 1.7 41.85 3.2 44.65 6.05 L45.75 7.25 Q50.15 12.3 51.5 18.8 52.1 21.7 52.1 24.85" fill="none" stroke="#684500" stroke-linecap="round" stroke-linejoin="round" stroke-opacity="0.3019608" stroke-width="0.5"/>
      <path d="M22.45 7.3 Q26.45 7.45 29.7 9.75 L32.15 11.85 32.4 12.15 32.65 12.45 Q37.2 17.7 37.2 25.1 L37.0 27.95 Q36.3 33.5 32.65 37.65 L29.7 40.4 27.3 41.75 Q25.05 42.75 22.45 42.9 L21.7 42.9 Q17.05 42.9 13.4 40.15 L10.7 37.65 10.5 37.45 8.7 34.85 Q6.9 31.85 6.4 28.25 6.2 27.1 6.15 25.85 L6.15 25.1 Q6.15 19.6 8.7 15.3 L9.1 14.65 9.45 14.1 10.7 12.45 11.25 11.85 12.8 10.4 Q16.7 7.25 21.7 7.25 L22.45 7.3 Q16.85 7.55 12.75 11.85 L12.2 12.45 10.8 14.3 10.2 15.3 9.7 16.2 Q7.65 20.15 7.65 25.1 L7.65 25.85 Q7.7 27.1 7.9 28.25 8.4 31.85 10.2 34.85 L11.3 36.55 12.2 37.65 Q16.5 42.6 22.45 42.9" fill="none" stroke="#966000" stroke-linecap="round" stroke-linejoin="round" stroke-width="0.05"/>
      <path d="M24.45 9.65 L25.55 9.95 26.7 10.4 Q27.45 10.8 28.2 11.3 L29.55 12.25 31.05 13.7 32.15 15.15 23.75 25.9 33.75 31.95 32.95 33.55 32.7 34.0 Q31.1 36.7 28.9 38.35 L28.15 38.85 22.75 34.3 21.3 33.05 22.4 40.6 22.2 40.6 21.4 40.6 21.2 40.6 Q17.75 40.4 14.75 38.1 L11.4 15.6 Q13.65 12.1 16.95 10.55 L17.75 10.2 17.9 10.15 19.1 18.6 20.15 16.85 24.45 9.65" fill="#b97600" fill-rule="evenodd" stroke="none"/>
      <path d="M28.15 38.85 L28.9 38.35 Q31.1 36.7 32.7 34.0 L32.95 33.55 33.75 31.95 23.75 25.9 32.15 15.15 31.05 13.7 29.55 12.25 28.2 11.3 Q27.45 10.8 26.7 10.4 L25.55 9.95 24.45 9.65 25.75 9.65 27.95 10.4 29.5 11.3 Q30.2 11.7 30.85 12.25 L32.35 13.7 33.45 15.15 25.05 25.9 35.05 31.95 34.25 33.55 34.0 34.0 Q32.1 37.15 29.45 38.85 L28.15 38.85 M20.15 16.85 L19.1 18.6 17.9 10.15 19.2 10.15 20.15 16.85 M22.4 40.6 L21.3 33.05 22.75 34.3 23.7 40.6 23.5 40.6 22.7 40.6 22.5 40.6 22.4 40.6" fill="#966000" fill-rule="evenodd" stroke="none"/>
      <path d="M36.2 5.1 L33.7 3.15 Q32.5 2.4 31.3 1.9 28.75 0.75 25.9 0.4 L26.9 0.2 28.75 0.05 28.85 0.05 29.5 0.0 30.05 0.0 33.2 0.35 Q35.55 0.75 37.7 1.7 L40.1 2.95 42.8 5.05 36.2 5.1 M47.75 38.2 L44.9 42.1 44.0 43.1 Q40.7 46.5 36.75 48.05 33.7 49.25 30.25 49.35 L29.6 49.35 29.05 49.35 28.85 49.35 28.75 49.35 27.1 49.2 30.35 48.25 Q34.3 46.7 37.6 43.3 L38.5 42.3 41.35 38.4 Q43.05 35.45 43.95 32.15 L50.3 32.15 Q49.4 35.35 47.75 38.2" fill="#966000" fill-rule="evenodd" stroke="none"/>
      <path d="M36.2 5.1 L42.8 5.05 44.9 7.2 Q46.8 9.35 48.15 11.8 L41.35 11.3 Q40.1 9.2 38.5 7.4 L36.2 5.1" fill="#b99600" fill-rule="evenodd" stroke="none"/>
    </g>
    <g id="sprite2" transform="matrix(1.0, 0.0, 0.0, 1.0, 0.0, 0.0)">
      <use height="47.9" transform="matrix(1.0, 0.0, 0.0, 1.0, 0.0, 0.0)" width="44.35" xlink:href="#shape2"/>
    </g>
    <g id="shape2" transform="matrix(1.0, 0.0, 0.0, 1.0, 0.0, 0.0)">
      <path d="M22.1 47.75 L21.95 47.75 21.85 47.75 21.8 47.75 21.75 47.75 21.6 47.75 19.4 47.65 Q16.9 47.35 14.7 46.5 L14.65 46.5 14.2 46.35 13.55 46.05 Q9.6 44.2 6.3 40.45 0.0 33.2 0.0 22.85 0.0 20.8 0.25 18.9 1.25 11.1 6.3 5.25 6.55 9.9 8.3 14.0 L8.5 14.0 Q6.35 18.05 6.35 23.1 6.35 30.3 10.7 35.45 L10.9 35.65 Q12.15 37.1 13.6 38.15 16.3 40.15 19.5 40.75 L21.7 40.9 21.9 40.9 22.1 40.9 Q16.2 40.55 11.95 35.65 L11.05 34.55 Q7.4 29.7 7.4 23.1 7.4 18.05 9.55 14.0 L9.9 14.0 Q12.05 21.5 17.5 26.15 25.65 33.15 35.3 31.75 38.8 31.25 42.5 29.65 41.6 33.3 39.75 36.5 L36.9 40.45 36.75 40.6 36.1 41.35 Q31.7 46.0 26.0 47.3 L25.85 47.3 22.55 47.75 22.45 47.75 22.15 47.75 22.1 47.75" fill="#b97600" fill-rule="evenodd" stroke="none"/>
      <path d="M42.5 29.65 Q43.25 26.4 43.25 22.85 43.25 12.55 36.9 5.25 33.9 1.75 30.25 0.0 34.55 1.75 38.0 5.75 44.35 13.05 44.35 23.35 44.35 26.1 43.9 28.65 L43.85 29.0 Q42.95 33.1 40.9 36.65 L38.05 40.6 37.9 40.75 37.25 41.5 Q32.85 46.15 27.15 47.45 L27.0 47.45 23.7 47.9 23.6 47.9 23.0 47.9 22.9 47.9 22.75 47.9 22.1 47.75 22.15 47.75 22.45 47.75 22.55 47.75 25.85 47.3 26.0 47.3 Q31.7 46.0 36.1 41.35 L36.75 40.6 36.9 40.45 39.75 36.5 Q41.6 33.3 42.5 29.65 M21.75 47.75 L19.4 47.65 21.6 47.75 21.75 47.75" fill="#b99600" fill-rule="evenodd" stroke="none"/>
    </g>
    <g id="shape3" transform="matrix(1.0, 0.0, 0.0, 1.0, -12.7, -32.55)">
      <path d="M13.8 35.15 Q14.25 34.6 14.95 34.4 L16.25 34.55 Q16.85 34.95 16.95 35.65 17.05 36.3 16.6 36.9 16.15 37.55 15.4 37.7 14.7 37.9 14.15 37.5 13.55 37.15 13.45 36.5 13.35 35.8 13.8 35.15" fill="#b99631" fill-rule="evenodd" stroke="none"/>
      <path d="M17.6 33.55 Q17.8 33.3 18.15 33.2 L18.8 33.25 Q19.1 33.45 19.1 33.8 L18.95 34.4 18.4 34.8 17.75 34.7 17.4 34.2 17.6 33.55" fill="#b99631" fill-rule="evenodd" stroke="none"/>
      <path d="M20.55 34.5 Q20.75 35.75 19.75 36.95 18.8 38.1 17.15 38.65 L14.25 38.6 Q13.0 38.1 12.75 36.9 12.55 35.7 13.55 34.55 14.55 33.3 16.15 32.85 L19.05 32.8 Q20.35 33.35 20.55 34.5" fill="#b99631" fill-opacity="0.3019608" fill-rule="evenodd" stroke="none"/>
    </g>
    <g id="sprite4" transform="matrix(1.0, 0.0, 0.0, 1.0, 0.25, 0.25)">
      <use height="123.8" transform="matrix(1.0, 0.0, 0.0, 1.0, -0.25, -0.25)" width="134.3" xlink:href="#shape4"/>
      <use height="123.25" transform="matrix(1.0, 0.0, 0.0, 1.0, 9.1, 0.0)" width="122.7" xlink:href="#sprite5"/>
      <use height="15.7" transform="matrix(1.0, 0.0, 0.0, 1.0, 48.05, 79.6)" width="19.65" xlink:href="#shape6"/>
      <use height="0.0" transform="matrix(1.0, 0.0, 0.0, 1.0, 1.45, 4.7)" width="0.0" xlink:href="#sprite3"/>
    </g>
    <g id="shape4" transform="matrix(1.0, 0.0, 0.0, 1.0, 0.25, 0.25)">
      <path d="M74.55 105.85 Q89.45 104.2 100.4 93.15 113.35 80.25 113.35 62.0 113.35 43.7 100.4 30.75 97.85 28.25 95.1 26.2 84.9 18.55 71.75 17.95 L71.75 17.85 72.65 17.85 Q87.35 17.85 98.55 26.2 101.3 28.25 103.85 30.75 116.8 43.7 116.8 62.0 116.8 80.25 103.85 93.15 91.65 105.45 74.55 106.1 L74.55 105.85" fill="#966000" fill-rule="evenodd" stroke="none"/>
      <path d="M59.1 123.25 L59.0 123.25 Q35.15 122.35 18.0 105.2 0.0 87.2 0.0 61.65 0.0 53.65 1.8 46.4 5.65 30.45 18.0 18.05 35.35 0.75 59.55 0.05 L60.1 0.0 72.15 0.0 Q92.65 0.0 108.3 11.65 112.15 14.5 115.7 18.05 133.8 36.1 133.8 61.65 133.8 87.2 115.7 105.2 98.65 122.35 74.8 123.25 L72.15 123.3 70.0 123.3 69.5 123.25 66.9 123.1 66.9 123.25 64.3 123.25 59.1 123.25 M74.55 105.85 L74.55 106.1 Q91.65 105.45 103.85 93.15 116.8 80.25 116.8 62.0 116.8 43.7 103.85 30.75 101.3 28.25 98.55 26.2 87.35 17.85 72.65 17.85 L71.75 17.85 71.75 17.95 70.9 17.9 69.2 18.0 68.35 18.05 Q52.8 19.4 41.4 30.75 28.55 43.7 28.55 62.0 28.55 80.25 41.4 93.15 50.45 102.2 62.1 104.95 L68.9 105.95 70.75 106.1 71.1 106.1 74.55 105.85" fill="#b97600" fill-rule="evenodd" stroke="none"/>
      <path d="M71.75 17.95 Q84.9 18.55 95.1 26.2 97.85 28.25 100.4 30.75 113.35 43.7 113.35 62.0 113.35 80.25 100.4 93.15 89.45 104.2 74.55 105.85 L71.1 106.1 70.75 106.1 68.9 105.95 62.1 104.95 Q50.45 102.2 41.4 93.15 28.55 80.25 28.55 62.0 28.55 43.7 41.4 30.75 52.8 19.4 68.35 18.05 L69.2 18.0 70.9 17.9 71.75 17.95" fill="#b96c00" fill-rule="evenodd" stroke="none"/>
      <path d="M59.1 123.25 L64.3 123.25" fill="none" stroke="#684500" stroke-linecap="round" stroke-linejoin="round" stroke-opacity="0.3019608" stroke-width="0.05"/>
      <path d="M59.1 123.25 L59.0 123.25 Q35.15 122.35 18.0 105.2 0.0 87.2 0.0 61.65 0.0 53.65 1.8 46.4 5.65 30.45 18.0 18.05 35.35 0.75 59.55 0.05 L60.1 0.0 72.15 0.0 Q92.65 0.0 108.3 11.65 112.15 14.5 115.7 18.05 133.8 36.1 133.8 61.65 133.8 87.2 115.7 105.2 98.65 122.35 74.8 123.25 L72.15 123.3 70.0 123.3 69.5 123.25 66.9 123.25 64.3 123.25 61.65 123.3 59.5 123.3 59.1 123.25 Z" fill="none" stroke="#684500" stroke-linecap="round" stroke-linejoin="round" stroke-opacity="0.3019608" stroke-width="0.5"/>
      <path d="M17.1 19.95 Q21.65 16.95 27.15 17.6 22.75 21.4 17.85 28.55 17.25 26.85 10.1 29.55 13.3 24.25 17.1 19.95" fill="#b99600" fill-rule="evenodd" stroke="none"/>
      <path d="M27.15 17.6 Q21.65 16.95 17.1 19.95 32.9 1.95 59.3 0.75 42.85 2.75 27.15 17.6" fill="#966000" fill-rule="evenodd" stroke="none"/>
      <path d="M13.0 85.45 Q20.6 101.65 28.65 107.8 44.35 120.95 60.8 122.7 34.4 121.65 18.6 105.7 9.95 97.05 4.5 83.9 11.2 86.5 13.0 85.45" fill="#966000" fill-rule="evenodd" stroke="none"/>
      <path d="M59.45 25.65 L59.9 25.5 63.05 43.25 63.6 46.55 79.25 24.25 Q82.7 24.9 85.9 26.15 88.15 27.05 90.45 28.3 L94.3 30.75 98.75 34.3 102.2 38.0 77.3 64.8 106.8 79.95 104.45 83.95 103.75 85.0 Q98.2 92.9 90.3 97.1 L69.9 82.7 70.3 85.05 73.2 101.55 72.65 101.55 70.3 101.55 69.75 101.55 Q59.6 101.05 50.65 95.2 L40.8 39.1 Q47.45 30.35 57.2 26.5 L59.45 25.65" fill="#b97600" fill-rule="evenodd" stroke="none"/>
      <path d="M69.75 101.55 Q57.95 101.9 47.75 95.2 L37.9 39.1 Q45.3 29.35 56.55 25.65 L57.0 25.5 59.45 25.5 59.45 25.65 57.2 26.5 Q47.45 30.35 40.8 39.1 L50.65 95.2 Q59.6 101.05 69.75 101.55 M63.05 43.25 L76.35 24.25 79.25 24.25 63.6 46.55 63.05 43.25 M90.3 97.1 L87.4 97.1 70.3 85.05 69.9 82.7 90.3 97.1" fill="#966000" fill-rule="evenodd" stroke="none"/>
    </g>
    <g id="sprite5" transform="matrix(1.0, 0.0, 0.0, 1.0, 0.0, 0.0)">
      <use height="123.25" transform="matrix(1.0, 0.0, 0.0, 1.0, 0.0, 0.0)" width="122.7" xlink:href="#shape5"/>
    </g>
    <g id="shape5" transform="matrix(1.0, 0.0, 0.0, 1.0, 0.0, 0.0)">
      <path d="M24.7 12.25 Q27.9 9.75 31.3 7.8 42.7 1.25 56.4 0.2 L60.35 0.0 61.75 0.0 57.8 0.2 Q44.1 1.25 32.7 7.8 30.8 20.35 31.9 31.2 34.3 55.0 51.4 70.45 69.6 84.85 100.1 81.0 L100.55 81.25 Q87.55 104.05 65.0 106.1 L65.45 106.1 Q88.85 104.65 102.5 82.35 L102.8 82.5 Q113.15 81.8 122.7 77.9 118.65 93.25 106.6 105.2 89.55 122.35 65.7 123.25 L60.4 123.25 57.8 123.1 57.8 123.25 56.4 123.25 Q51.5 122.75 46.9 121.65 30.6 117.8 18.0 105.2 0.0 87.2 0.0 61.65 0.0 48.45 4.8 37.25 9.3 26.75 18.0 18.05 L20.2 16.0 22.05 14.35 24.1 12.65 24.45 12.4 24.7 12.25" fill="#b98214" fill-rule="evenodd" stroke="none"/>
    </g>
    <g id="shape6" transform="matrix(1.0, 0.0, 0.0, 1.0, -48.05, -79.6)">
      <path d="M50.75 86.15 Q51.85 84.65 53.65 84.2 55.45 83.75 56.9 84.65 58.3 85.5 58.55 87.25 58.8 88.95 57.7 90.5 56.6 92.0 54.8 92.45 53.0 92.9 51.55 92.0 50.1 91.1 49.85 89.4 49.6 87.65 50.75 86.15" fill="#b99631" fill-rule="evenodd" stroke="none"/>
      <path d="M60.2 82.2 Q60.75 81.45 61.6 81.25 62.45 81.05 63.1 81.5 63.85 81.9 63.95 82.75 64.1 83.55 63.5 84.3 L62.15 85.2 60.6 85.0 Q59.9 84.55 59.75 83.75 59.65 82.9 60.2 82.2" fill="#b99631" fill-rule="evenodd" stroke="none"/>
      <path d="M67.6 84.55 Q68.1 87.55 65.65 90.5 63.2 93.45 59.15 94.7 55.1 95.95 51.9 94.7 48.7 93.4 48.15 90.4 47.65 87.45 50.1 84.45 52.55 81.5 56.6 80.25 60.65 79.0 63.85 80.25 67.05 81.5 67.6 84.55" fill="#b99631" fill-opacity="0.3019608" fill-rule="evenodd" stroke="none"/>
    </g>
    <g id="sprite6" transform="matrix(1.0, 0.0, 0.0, 1.0, 0.25, 0.25)">
      <use height="50.25" transform="matrix(1.0, 0.0, 0.0, 1.0, -0.25, -0.25)" width="52.6" xlink:href="#shape7"/>
      <use height="47.9" transform="matrix(1.0, 0.0, 0.0, 1.0, 0.0, 2.0)" width="44.35" xlink:href="#sprite2"/>
      <use height="6.3" transform="matrix(1.0, 0.0, 0.0, 1.0, 12.7, 32.55)" width="7.9" xlink:href="#shape8"/>
      <use height="0.0" transform="matrix(-0.4577, 0.0, 0.0, 0.4267, 50.15, 0.5)" width="0.0" xlink:href="#sprite3"/>
    </g>
    <g id="shape7" transform="matrix(1.0, 0.0, 0.0, 1.0, 0.25, 0.25)">
      <path d="M52.1 24.85 Q52.1 28.0 51.5 30.9 50.65 35.0 48.6 38.5 L45.75 42.45 Q43.0 45.65 39.7 47.45 35.5 49.75 30.45 49.75 L29.9 49.75 22.55 49.75 22.45 49.75 21.95 49.75 21.85 49.75 21.75 49.75 21.6 49.75 Q17.25 49.75 13.55 48.05 9.6 46.2 6.3 42.45 L5.7 41.75 Q3.15 38.55 1.75 34.85 0.95 32.75 0.5 30.45 L0.2 28.25 0.05 25.85 0.0 24.85 Q0.0 22.8 0.25 20.9 L0.5 19.3 Q0.95 16.9 1.85 14.65 3.2 11.05 5.7 8.0 L6.3 7.25 9.3 4.35 Q14.45 0.2 21.0 0.0 L21.6 0.0 22.0 0.0 22.25 0.05 22.45 0.05 22.45 0.0 22.6 0.0 30.9 0.0 32.7 0.15 Q35.75 0.45 38.5 1.7 41.85 3.2 44.65 6.05 L45.75 7.25 Q50.15 12.3 51.5 18.8 52.1 21.7 52.1 24.85 M22.45 42.9 Q25.05 42.75 27.3 41.75 L29.7 40.4 32.65 37.65 Q36.3 33.5 37.0 27.95 L37.2 25.1 Q37.2 17.7 32.65 12.45 L32.4 12.15 32.15 11.85 29.7 9.75 Q26.45 7.45 22.45 7.3 L21.7 7.25 Q16.7 7.25 12.8 10.4 L11.25 11.85 10.7 12.45 9.45 14.1 9.1 14.65 8.7 15.3 Q6.15 19.6 6.15 25.1 L6.15 25.85 Q6.2 27.1 6.4 28.25 6.9 31.85 8.7 34.85 L10.5 37.45 10.7 37.65 13.4 40.15 Q17.05 42.9 21.7 42.9 L22.45 42.9" fill="#b97600" fill-rule="evenodd" stroke="none"/>
      <path d="M22.45 7.3 Q26.45 7.45 29.7 9.75 L32.15 11.85 32.4 12.15 32.65 12.45 Q37.2 17.7 37.2 25.1 L37.0 27.95 Q36.3 33.5 32.65 37.65 L29.7 40.4 27.3 41.75 Q25.05 42.75 22.45 42.9 16.5 42.6 12.2 37.65 L11.3 36.55 10.2 34.85 Q8.4 31.85 7.9 28.25 7.7 27.1 7.65 25.85 L7.65 25.1 Q7.65 20.15 9.7 16.2 L10.2 15.3 10.8 14.3 12.2 12.45 12.75 11.85 Q16.85 7.55 22.45 7.3" fill="#b96c00" fill-rule="evenodd" stroke="none"/>
      <path d="M22.45 42.9 L21.7 42.9 Q17.05 42.9 13.4 40.15 L10.7 37.65 10.5 37.45 8.7 34.85 Q6.9 31.85 6.4 28.25 6.2 27.1 6.15 25.85 L6.15 25.1 Q6.15 19.6 8.7 15.3 L9.1 14.65 9.45 14.1 10.7 12.45 11.25 11.85 12.8 10.4 Q16.7 7.25 21.7 7.25 L22.45 7.3 Q16.85 7.55 12.75 11.85 L12.2 12.45 10.8 14.3 10.2 15.3 9.7 16.2 Q7.65 20.15 7.65 25.1 L7.65 25.85 Q7.7 27.1 7.9 28.25 8.4 31.85 10.2 34.85 L11.3 36.55 12.2 37.65 Q16.5 42.6 22.45 42.9" fill="#966000" fill-rule="evenodd" stroke="none"/>
      <path d="M52.1 24.85 Q52.1 28.0 51.5 30.9 50.65 35.0 48.6 38.5 L45.75 42.45 Q43.0 45.65 39.7 47.45 35.5 49.75 30.45 49.75 L29.9 49.75 22.55 49.75 22.45 49.75 21.95 49.75 21.85 49.75 21.75 49.75 21.6 49.75 Q17.25 49.75 13.55 48.05 9.6 46.2 6.3 42.45 L5.7 41.75 Q3.15 38.55 1.75 34.85 0.95 32.75 0.5 30.45 L0.2 28.25 0.05 25.85 0.0 24.85 Q0.0 22.8 0.25 20.9 L0.5 19.3 Q0.95 16.9 1.85 14.65 3.2 11.05 5.7 8.0 L6.3 7.25 9.3 4.35 Q14.45 0.2 21.0 0.0 L21.6 0.0 22.0 0.0 22.25 0.05 22.45 0.05 22.45 0.0 22.6 0.0 30.9 0.0 32.7 0.15 Q35.75 0.45 38.5 1.7 41.85 3.2 44.65 6.05 L45.75 7.25 Q50.15 12.3 51.5 18.8 52.1 21.7 52.1 24.85" fill="none" stroke="#684500" stroke-linecap="round" stroke-linejoin="round" stroke-opacity="0.3019608" stroke-width="0.5"/>
      <path d="M22.45 7.3 Q26.45 7.45 29.7 9.75 L32.15 11.85 32.4 12.15 32.65 12.45 Q37.2 17.7 37.2 25.1 L37.0 27.95 Q36.3 33.5 32.65 37.65 L29.7 40.4 27.3 41.75 Q25.05 42.75 22.45 42.9 L21.7 42.9 Q17.05 42.9 13.4 40.15 L10.7 37.65 10.5 37.45 8.7 34.85 Q6.9 31.85 6.4 28.25 6.2 27.1 6.15 25.85 L6.15 25.1 Q6.15 19.6 8.7 15.3 L9.1 14.65 9.45 14.1 10.7 12.45 11.25 11.85 12.8 10.4 Q16.7 7.25 21.7 7.25 L22.45 7.3 Q16.85 7.55 12.75 11.85 L12.2 12.45 10.8 14.3 10.2 15.3 9.7 16.2 Q7.65 20.15 7.65 25.1 L7.65 25.85 Q7.7 27.1 7.9 28.25 8.4 31.85 10.2 34.85 L11.3 36.55 12.2 37.65 Q16.5 42.6 22.45 42.9" fill="none" stroke="#966000" stroke-linecap="round" stroke-linejoin="round" stroke-width="0.05"/>
      <path d="M21.7 23.3 L23.65 12.4 23.8 12.45 25.2 12.85 25.35 12.95 25.65 13.05 Q28.3 14.1 30.25 16.1 L30.9 16.8 28.05 25.25 30.2 24.25 33.95 22.45 34.0 22.6 34.0 22.65 34.15 23.2 34.2 23.5 34.25 23.7 Q35.1 27.35 34.05 31.05 L16.7 39.45 16.5 39.5 Q13.0 37.95 10.75 34.8 L10.3 34.0 10.2 33.85 16.8 30.75 7.95 27.05 Q7.85 26.5 7.9 25.85 L7.9 24.55 8.25 22.75 8.6 21.15 9.4 19.25 10.3 17.75 10.5 17.85 21.5 24.25 21.7 23.3" fill="#b97600" fill-rule="evenodd" stroke="none"/>
      <path d="M23.8 12.45 L25.45 12.4 27.0 12.85 27.45 13.05 Q30.1 14.1 32.05 16.1 L32.7 16.8 30.2 24.25 28.05 25.25 30.9 16.8 30.25 16.1 Q28.3 14.1 25.65 13.05 L25.35 12.95 25.2 12.85 23.8 12.45 M34.0 22.6 L35.55 22.55 35.75 22.45 35.8 22.65 36.0 23.5 36.05 23.7 Q36.9 27.35 35.85 31.05 L18.3 39.5 18.2 39.45 16.7 39.45 34.05 31.05 Q35.1 27.35 34.25 23.7 L34.2 23.5 34.15 23.2 34.0 22.65 34.0 22.6 M10.5 17.85 L12.05 17.85 12.1 17.75 21.7 23.3 21.5 24.25 10.5 17.85" fill="#966000" fill-rule="evenodd" stroke="none"/>
      <path d="M36.2 5.1 L33.7 3.15 Q32.5 2.4 31.3 1.9 28.75 0.75 25.9 0.4 L26.9 0.2 28.75 0.05 28.85 0.05 29.5 0.0 30.05 0.0 33.2 0.35 Q35.55 0.75 37.7 1.7 L40.1 2.95 42.8 5.05 36.2 5.1 M47.75 38.2 L44.9 42.1 44.0 43.1 Q40.7 46.5 36.75 48.05 33.7 49.25 30.25 49.35 L29.6 49.35 29.05 49.35 28.85 49.35 28.75 49.35 27.1 49.2 30.35 48.25 Q34.3 46.7 37.6 43.3 L38.5 42.3 41.35 38.4 Q43.05 35.45 43.95 32.15 L50.3 32.15 Q49.4 35.35 47.75 38.2" fill="#966000" fill-rule="evenodd" stroke="none"/>
      <path d="M36.2 5.1 L42.8 5.05 44.9 7.2 Q46.8 9.35 48.15 11.8 L41.35 11.3 Q40.1 9.2 38.5 7.4 L36.2 5.1" fill="#b99600" fill-rule="evenodd" stroke="none"/>
    </g>
    <g id="shape8" transform="matrix(1.0, 0.0, 0.0, 1.0, -12.7, -32.55)">
      <path d="M13.8 35.15 Q14.25 34.6 14.95 34.4 L16.25 34.55 Q16.85 34.95 16.95 35.65 17.05 36.3 16.6 36.9 16.15 37.55 15.4 37.7 14.7 37.9 14.15 37.5 13.55 37.15 13.45 36.5 13.35 35.8 13.8 35.15" fill="#b99631" fill-rule="evenodd" stroke="none"/>
      <path d="M17.6 33.55 Q17.8 33.3 18.15 33.2 L18.8 33.25 Q19.1 33.45 19.1 33.8 L18.95 34.4 18.4 34.8 17.75 34.7 17.4 34.2 17.6 33.55" fill="#b99631" fill-rule="evenodd" stroke="none"/>
      <path d="M20.55 34.5 Q20.75 35.75 19.75 36.95 18.8 38.1 17.15 38.65 L14.25 38.6 Q13.0 38.1 12.75 36.9 12.55 35.7 13.55 34.55 14.55 33.3 16.15 32.85 L19.05 32.8 Q20.35 33.35 20.55 34.5" fill="#b99631" fill-opacity="0.3019608" fill-rule="evenodd" stroke="none"/>
    </g>
    <g id="sprite7" transform="matrix(1.0, 0.0, 0.0, 1.0, 1.15, 0.25)">
      <use height="115.2" transform="matrix(1.0, 0.0, 0.0, 1.0, -1.15, -0.25)" width="166.25" xlink:href="#shape9"/>
      <use height="118.5" transform="matrix(0.3193, 0.4226, -0.8453, 0.1596, 117.2856, 13.8291)" width="91.1" xlink:href="#sprite8"/>
      <use height="84.15" transform="matrix(1.0, 0.0, 0.0, 1.0, -0.65, 0.55)" width="157.65" xlink:href="#sprite9"/>
      <use height="0.0" transform="matrix(1.0, 0.0, 0.0, 1.0, 21.85, 62.05)" width="0.0" xlink:href="#sprite10"/>
      <use height="17.15" transform="matrix(1.0, 0.0, 0.0, 1.0, 31.2, 28.15)" width="33.25" xlink:href="#shape12"/>
    </g>
    <g id="shape9" transform="matrix(1.0, 0.0, 0.0, 1.0, 1.15, 0.25)">
      <path d="M163.6 47.8 L163.25 48.8 163.45 48.85 162.5 52.0 161.4 54.4 159.9 56.75 159.9 56.8 156.65 60.7 Q154.3 63.35 151.3 65.65 L145.45 69.7 Q134.1 76.65 116.55 80.7 L117.0 81.65 Q122.0 93.65 116.55 108.8 134.1 104.7 145.45 97.8 148.65 95.9 151.3 93.7 154.3 91.45 156.65 88.8 L159.9 84.85 Q161.55 82.45 162.5 80.1 163.55 77.45 163.7 74.85 L163.7 46.75 163.6 47.8 M-0.65 42.3 L-0.65 41.3 Q-0.6 33.55 5.75 25.9 L6.95 24.55 Q20.95 9.05 52.85 3.0 74.75 -1.1 96.3 0.9 106.1 1.8 115.85 4.0 L118.5 4.6 Q142.2 10.4 154.3 21.7 156.9 24.2 159.0 26.95 L161.4 30.65 Q164.4 36.35 164.6 41.35 L164.55 74.55 Q164.35 77.5 163.25 80.4 162.25 83.05 160.45 85.7 L157.0 90.05 Q154.5 92.9 151.3 95.35 148.45 97.7 145.05 99.7 132.9 107.1 114.15 111.05 L111.05 111.65 Q85.1 116.55 59.7 112.85 L50.45 111.15 48.1 110.65 Q30.85 106.75 19.4 100.15 16.4 86.85 18.85 71.7 L19.4 68.55 17.55 67.45 Q10.55 62.95 5.9 57.35 L4.9 56.05 Q2.8 53.3 1.5 50.55 -0.2 47.0 -0.55 43.5 L-0.65 42.3 M145.6 43.4 L145.7 41.55 Q145.7 36.0 141.4 30.3 139.8 28.15 137.7 26.25 130.3 19.25 117.1 15.0 L110.15 13.05 108.15 12.55 Q84.15 7.15 59.5 11.8 34.9 16.45 24.1 28.45 L23.2 29.45 Q17.5 36.3 18.4 43.3 18.55 44.75 19.05 46.25 L19.9 48.5 Q20.95 50.6 22.55 52.75 26.3 57.65 32.35 61.55 41.5 67.2 55.8 70.45 L57.65 70.85 64.8 72.15 Q84.35 75.05 104.4 71.25 120.5 68.2 130.65 62.05 133.25 60.45 135.45 58.65 L139.85 54.6 Q143.2 50.9 144.65 47.15 L145.6 43.4 M160.5 54.2 L160.45 54.1 160.45 54.15 160.5 54.2" fill="#b97600" fill-rule="evenodd" stroke="none"/>
      <path d="M163.6 47.8 L163.7 46.75 163.7 74.85 Q163.55 77.45 162.5 80.1 161.55 82.45 159.9 84.85 L156.65 88.8 Q154.3 91.45 151.3 93.7 148.65 95.9 145.45 97.8 134.1 104.7 116.55 108.8 122.0 93.65 117.0 81.65 L116.55 80.7 Q134.1 76.65 145.45 69.7 L151.3 65.65 Q154.3 63.35 156.65 60.7 L159.9 56.8 159.95 56.85 159.9 56.75 161.4 54.4 162.5 52.0 163.45 48.85 163.6 47.8 M5.9 88.95 L4.9 87.65 Q2.8 84.9 1.5 82.15 -0.45 78.0 -0.65 73.9 L-0.65 46.25 -0.65 45.25 -0.65 43.5 -0.55 43.5 Q-0.2 47.0 1.5 50.55 2.8 53.3 4.9 56.05 L5.9 57.35 5.45 60.55 Q3.45 75.05 5.9 88.95" fill="#966000" fill-rule="evenodd" stroke="none"/>
      <path d="M18.4 43.3 Q19.0 38.15 23.2 33.05 L24.1 32.05 Q34.9 20.05 59.5 15.4 84.15 10.75 108.15 16.15 L110.15 16.65 Q115.7 18.0 120.4 19.75 131.25 23.75 137.7 29.85 139.8 31.75 141.4 33.9 145.0 38.7 145.6 43.4 L144.65 47.15 Q143.2 50.9 139.85 54.6 L135.45 58.65 Q133.25 60.45 130.65 62.05 120.5 68.2 104.4 71.25 84.35 75.05 64.8 72.15 L57.65 70.85 55.8 70.45 Q41.5 67.2 32.35 61.55 26.3 57.65 22.55 52.75 20.95 50.6 19.9 48.5 L19.05 46.25 Q18.55 44.75 18.4 43.3" fill="#b96c00" fill-rule="evenodd" stroke="none"/>
      <path d="M160.5 54.2 L160.45 54.15 160.45 54.1 160.5 54.2" fill="#9f5a03" fill-rule="evenodd" stroke="none"/>
      <path d="M-0.65 43.5 L-0.65 42.3 -0.55 43.5 -0.65 43.5" fill="#a9670a" fill-rule="evenodd" stroke="none"/>
      <path d="M19.4 100.15 L17.55 99.05 Q10.55 94.55 5.9 88.95 3.45 75.05 5.45 60.55 L5.9 57.35 Q10.55 62.95 17.55 67.45 L19.4 68.55 18.85 71.7 Q16.4 86.85 19.4 100.15" fill="#b99610" fill-rule="evenodd" stroke="none"/>
      <path d="M145.6 43.4 Q145.0 38.7 141.4 33.9 139.8 31.75 137.7 29.85 131.25 23.75 120.4 19.75 115.7 18.0 110.15 16.65 L108.15 16.15 Q84.15 10.75 59.5 15.4 34.9 20.05 24.1 32.05 L23.2 33.05 Q19.0 38.15 18.4 43.3 17.5 36.3 23.2 29.45 L24.1 28.45 Q34.9 16.45 59.5 11.8 84.15 7.15 108.15 12.55 L110.15 13.05 117.1 15.0 Q130.3 19.25 137.7 26.25 139.8 28.15 141.4 30.3 145.7 36.0 145.7 41.55 L145.6 43.4" fill="url(#gradient0)" fill-rule="evenodd" stroke="none"/>
      <path d="M-0.65 42.3 L-0.65 41.3 Q-0.6 33.55 5.75 25.9 L6.95 24.55 Q20.95 9.05 52.85 3.0 74.75 -1.1 96.3 0.9 106.1 1.8 115.85 4.0 L118.5 4.6 Q142.2 10.4 154.3 21.7 156.9 24.2 159.0 26.95 L161.4 30.65 Q164.4 36.35 164.6 41.35 L164.55 74.55 Q164.35 77.5 163.25 80.4 162.25 83.05 160.45 85.7 L157.0 90.05 Q154.5 92.9 151.3 95.35 148.45 97.7 145.05 99.7 132.9 107.1 114.15 111.05 L111.05 111.65 Q85.1 116.55 59.7 112.85 L50.45 111.15 48.1 110.65 Q30.85 106.75 19.4 100.15 L17.55 99.05 Q10.55 94.55 5.9 88.95 L4.9 87.65 Q2.8 84.9 1.5 82.15 -0.45 78.0 -0.65 73.9 L-0.65 46.25 -0.65 45.25 -0.65 43.5 -0.65 42.3 Z" fill="none" stroke="#684500" stroke-linecap="round" stroke-linejoin="round" stroke-opacity="0.3019608" stroke-width="1.0"/>
    </g>
    <radialGradient cx="0" cy="0" gradientTransform="matrix(0.0862, -0.0498, 0.0305, 0.0528, 163.4, 106.0)" gradientUnits="userSpaceOnUse" id="gradient0" r="819.2" spreadMethod="pad">
      <stop offset="0.0" stop-color="#785e17"/>
      <stop offset="1.0" stop-color="#9a5c08"/>
    </radialGradient>
    <g id="sprite8" transform="matrix(1.0, 0.0, 0.0, 1.0, 4.9, 0.0)">
      <use height="118.5" transform="matrix(1.0, 0.0, 0.0, 1.0, -4.9, 0.0)" width="91.1" xlink:href="#shape10"/>
    </g>
    <g id="shape10" transform="matrix(1.0, 0.0, 0.0, 1.0, 4.9, 0.0)">
      <path d="M30.8 0.1 L31.55 0.0 31.55 0.1 30.8 0.1 M31.55 115.3 L31.5 115.3 30.8 115.2 31.55 115.2 31.55 115.3" fill="#b67913" fill-rule="evenodd" stroke="none"/>
      <path d="M22.35 3.2 L48.05 31.9 48.05 24.2 48.05 0.1 48.75 0.1 Q54.15 0.95 59.1 3.0 L61.05 3.85 Q69.35 7.75 76.35 15.1 L76.35 100.15 Q68.5 108.35 59.1 112.3 L57.9 112.75 Q53.5 114.45 48.75 115.2 L48.05 115.2 48.05 101.05 48.05 86.75 24.4 113.1 Q13.05 108.95 3.9 98.75 L2.7 97.4 -1.3 92.15 34.2 62.3 -4.9 29.2 -1.15 22.9 Q1.1 19.6 3.9 16.5 6.1 14.05 8.4 11.95 11.1 9.55 13.95 7.6 17.9 4.9 22.25 3.1 L22.35 3.2" fill="#b97600" fill-rule="evenodd" stroke="none"/>
      <path d="M48.05 24.2 L48.05 31.9 22.35 3.2 32.1 6.4 48.05 24.2 M24.4 113.1 L48.05 86.75 48.05 101.05 34.5 116.75 Q32.9 115.9 31.55 115.35 L31.55 115.3 31.55 115.2 30.8 115.2 30.75 115.4 24.4 113.1 M48.75 115.2 Q53.5 114.45 57.9 112.75 L59.1 112.3 Q68.5 108.35 76.35 100.15 L76.35 15.1 Q69.35 7.75 61.05 3.85 75.2 6.9 86.2 18.4 L86.2 103.45 Q74.25 116.0 58.6 118.5 L57.9 118.5 48.7 115.4 48.75 115.2" fill="#966000" fill-rule="evenodd" stroke="none"/>
    </g>
    <g id="sprite9" transform="matrix(1.0, 0.0, 0.0, 1.0, 0.0, 0.0)">
      <use height="84.15" transform="matrix(1.0, 0.0, 0.0, 1.0, 0.0, 0.0)" width="157.65" xlink:href="#shape11"/>
    </g>
    <g id="shape11" transform="matrix(1.0, 0.0, 0.0, 1.0, 0.0, 0.0)">
      <path d="M0.1 43.05 L0.0 42.05 0.0 41.05 Q0.05 33.3 6.4 25.65 L7.6 24.3 Q21.6 8.8 53.5 2.75 75.4 -1.35 96.95 0.65 106.75 1.55 116.5 3.75 L119.15 4.35 Q131.9 7.45 141.25 12.2 144.35 13.75 147.1 15.45 L149.25 16.8 Q152.4 19.0 155.0 21.45 L156.65 23.1 157.5 24.05 155.65 23.65 Q147.85 22.2 134.65 23.05 128.0 18.25 118.0 15.05 114.7 14.0 111.05 13.1 L109.05 12.6 Q85.05 7.2 60.4 11.85 35.8 16.5 25.0 28.5 L24.1 29.5 Q18.4 36.35 19.3 43.35 19.9 38.2 24.1 33.1 L25.0 32.1 Q35.8 20.1 60.4 15.45 85.05 10.8 109.05 16.2 L111.05 16.7 Q116.6 18.05 121.3 19.8 128.8 22.55 134.2 26.35 119.35 25.85 104.35 28.65 76.65 33.9 64.5 47.35 64.0 47.9 61.3 53.2 58.55 58.5 58.5 61.2 58.4 63.9 59.25 67.2 60.05 70.45 68.65 72.45 64.25 72.2 55.6 70.2 49.25 75.25 46.95 77.95 L46.65 78.3 Q30.8 74.5 20.05 68.3 L18.2 67.2 Q11.2 62.7 6.55 57.1 L5.55 55.8 Q3.45 53.05 2.15 50.3 0.45 46.65 0.1 43.05" fill="#b98214" fill-rule="evenodd" stroke="none"/>
      <path d="M134.65 23.05 L134.45 23.0 Q134.55 26.35 134.2 26.35 128.8 22.55 121.3 19.8 116.6 18.05 111.05 16.7 L109.05 16.2 Q85.05 10.8 60.4 15.45 35.8 20.1 25.0 32.1 L24.1 33.1 Q19.9 38.2 19.3 43.35 18.4 36.35 24.1 29.5 L25.0 28.5 Q35.8 16.5 60.4 11.85 85.05 7.2 109.05 12.6 L111.05 13.1 Q114.7 14.0 118.0 15.05 128.0 18.25 134.65 23.05" fill="#b98214" fill-opacity="0.4" fill-rule="evenodd" stroke="none"/>
      <path d="M46.95 77.95 L48.75 78.35 51.1 78.85 60.35 80.55 Q85.75 84.25 111.7 79.35 L114.8 78.75 Q133.55 74.8 145.7 67.4 149.1 65.4 151.95 63.05 155.1 60.65 157.6 57.85 L157.65 57.9 Q155.15 60.85 151.95 63.35 149.1 65.75 145.7 67.85 133.7 75.45 115.25 79.85 L114.8 79.95 111.7 80.6 Q85.75 86.15 60.35 83.05 L51.1 81.55 48.75 81.1 Q31.5 77.65 20.05 71.3 L19.5 71.0 18.2 70.25 Q11.2 65.9 6.55 60.45 L6.1 59.85 5.55 59.15 Q3.45 56.45 2.15 53.75 0.2 49.65 0.0 45.55 L0.0 44.55 0.0 44.35 0.1 43.05 Q0.45 46.65 2.15 50.3 3.45 53.05 5.55 55.8 L6.55 57.1 Q11.2 62.7 18.2 67.2 L20.05 68.3 Q30.8 74.5 46.65 78.3 L46.95 77.95" fill="#b99631" fill-rule="evenodd" stroke="none"/>
    </g>
    <g id="shape12" transform="matrix(1.0, 0.0, 0.0, 1.0, -31.2, -28.15)">
      <path d="M35.75 35.2 Q37.55 33.5 40.65 33.05 43.7 32.55 46.15 33.55 48.55 34.5 49.0 36.4 49.4 38.3 47.5 39.95 45.65 41.65 42.6 42.15 39.5 42.6 37.1 41.6 34.65 40.65 34.25 38.75 33.8 36.85 35.75 35.2" fill="#b99631" fill-rule="evenodd" stroke="none"/>
      <path d="M51.75 30.95 Q52.65 30.15 54.1 29.9 L56.75 30.15 Q57.95 30.65 58.15 31.55 58.3 32.45 57.4 33.2 56.5 34.05 55.05 34.25 L52.4 34.0 Q51.2 33.55 51.05 32.65 50.85 31.75 51.75 30.95" fill="#b99631" fill-rule="evenodd" stroke="none"/>
      <path d="M64.3 33.5 Q65.2 36.75 61.0 40.05 56.85 43.3 50.0 44.65 43.15 46.0 37.7 44.65 32.25 43.25 31.35 39.95 30.45 36.7 34.65 33.45 38.8 30.2 45.65 28.85 52.5 27.5 57.95 28.85 63.4 30.25 64.3 33.5" fill="#b99631" fill-opacity="0.3019608" fill-rule="evenodd" stroke="none"/>
    </g>
    <g id="sprite11" transform="matrix(1.0, 0.0, 0.0, 1.0, 1.15, 0.25)">
      <use height="115.2" transform="matrix(1.0, 0.0, 0.0, 1.0, -1.15, -0.25)" width="166.25" xlink:href="#shape13"/>
      <use height="118.5" transform="matrix(0.3193, 0.4226, -0.8453, 0.1596, 117.2856, 13.8291)" width="91.1" xlink:href="#sprite8"/>
      <use height="84.15" transform="matrix(1.0, 0.0, 0.0, 1.0, -0.65, 0.55)" width="157.65" xlink:href="#sprite9"/>
      <use height="0.0" transform="matrix(1.0, 0.0, 0.0, 1.0, 21.85, 62.05)" width="0.0" xlink:href="#sprite10"/>
      <use height="17.15" transform="matrix(1.0, 0.0, 0.0, 1.0, 31.2, 28.15)" width="33.25" xlink:href="#shape14"/>
    </g>
    <g id="shape13" transform="matrix(1.0, 0.0, 0.0, 1.0, 1.15, 0.25)">
      <path d="M163.45 48.85 L162.5 52.0 161.4 54.4 159.9 56.75 159.9 56.8 156.65 60.7 Q154.3 63.35 151.3 65.65 L145.45 69.7 Q134.1 76.65 116.55 80.7 L117.0 81.65 Q122.0 93.65 116.55 108.8 134.1 104.7 145.45 97.8 148.65 95.9 151.3 93.7 154.3 91.45 156.65 88.8 L159.9 84.85 Q161.55 82.45 162.5 80.1 163.55 77.45 163.7 74.85 L163.7 46.75 163.6 47.8 163.25 48.8 163.45 48.85 M-0.65 42.3 L-0.65 41.3 Q-0.6 33.55 5.75 25.9 L6.95 24.55 Q20.95 9.05 52.85 3.0 74.75 -1.1 96.3 0.9 106.1 1.8 115.85 4.0 L118.5 4.6 Q142.2 10.4 154.3 21.7 156.9 24.2 159.0 26.95 L161.4 30.65 Q164.4 36.35 164.6 41.35 L164.55 74.55 Q164.35 77.5 163.25 80.4 162.25 83.05 160.45 85.7 L157.0 90.05 Q154.5 92.9 151.3 95.35 148.45 97.7 145.05 99.7 132.9 107.1 114.15 111.05 L111.05 111.65 Q85.1 116.55 59.7 112.85 L50.45 111.15 48.1 110.65 Q30.85 106.75 19.4 100.15 16.4 86.85 18.85 71.7 L19.4 68.55 17.55 67.45 Q10.55 62.95 5.9 57.35 L4.9 56.05 Q2.8 53.3 1.5 50.55 -0.2 47.0 -0.55 43.5 L-0.65 42.3 M18.4 43.3 Q18.55 44.75 19.05 46.25 L19.9 48.5 Q20.95 50.6 22.55 52.75 26.3 57.65 32.35 61.55 41.5 67.2 55.8 70.45 L57.65 70.85 64.8 72.15 Q84.35 75.05 104.4 71.25 120.5 68.2 130.65 62.05 133.25 60.45 135.45 58.65 L139.85 54.6 Q143.2 50.9 144.65 47.15 L145.6 43.4 145.7 41.55 Q145.7 36.0 141.4 30.3 139.8 28.15 137.7 26.25 130.3 19.25 117.1 15.0 L110.15 13.05 108.15 12.55 Q84.15 7.15 59.5 11.8 34.9 16.45 24.1 28.45 L23.2 29.45 Q17.5 36.3 18.4 43.3 M160.45 54.15 L160.5 54.2 160.45 54.1 160.45 54.15" fill="#b97600" fill-rule="evenodd" stroke="none"/>
      <path d="M163.45 48.85 L163.6 47.8 163.7 46.75 163.7 74.85 Q163.55 77.45 162.5 80.1 161.55 82.45 159.9 84.85 L156.65 88.8 Q154.3 91.45 151.3 93.7 148.65 95.9 145.45 97.8 134.1 104.7 116.55 108.8 122.0 93.65 117.0 81.65 L116.55 80.7 Q134.1 76.65 145.45 69.7 L151.3 65.65 Q154.3 63.35 156.65 60.7 L159.9 56.8 159.95 56.85 159.9 56.75 161.4 54.4 162.5 52.0 163.45 48.85 M5.9 88.95 L4.9 87.65 Q2.8 84.9 1.5 82.15 -0.45 78.0 -0.65 73.9 L-0.65 46.25 -0.65 45.25 -0.65 43.5 -0.55 43.5 Q-0.2 47.0 1.5 50.55 2.8 53.3 4.9 56.05 L5.9 57.35 5.45 60.55 Q3.45 75.05 5.9 88.95" fill="#966000" fill-rule="evenodd" stroke="none"/>
      <path d="M145.6 43.4 L144.65 47.15 Q143.2 50.9 139.85 54.6 L135.45 58.65 Q133.25 60.45 130.65 62.05 120.5 68.2 104.4 71.25 84.35 75.05 64.8 72.15 L57.65 70.85 55.8 70.45 Q41.5 67.2 32.35 61.55 26.3 57.65 22.55 52.75 20.95 50.6 19.9 48.5 L19.05 46.25 Q18.55 44.75 18.4 43.3 19.0 38.15 23.2 33.05 L24.1 32.05 Q34.9 20.05 59.5 15.4 84.15 10.75 108.15 16.15 L110.15 16.65 Q115.7 18.0 120.4 19.75 131.25 23.75 137.7 29.85 139.8 31.75 141.4 33.9 145.0 38.7 145.6 43.4" fill="#b96c00" fill-rule="evenodd" stroke="none"/>
      <path d="M160.45 54.15 L160.45 54.1 160.5 54.2 160.45 54.15" fill="#9f5a03" fill-rule="evenodd" stroke="none"/>
      <path d="M-0.65 43.5 L-0.65 42.3 -0.55 43.5 -0.65 43.5" fill="#a9670a" fill-rule="evenodd" stroke="none"/>
      <path d="M19.4 100.15 L17.55 99.05 Q10.55 94.55 5.9 88.95 3.45 75.05 5.45 60.55 L5.9 57.35 Q10.55 62.95 17.55 67.45 L19.4 68.55 18.85 71.7 Q16.4 86.85 19.4 100.15" fill="#b99610" fill-rule="evenodd" stroke="none"/>
      <path d="M18.4 43.3 Q17.5 36.3 23.2 29.45 L24.1 28.45 Q34.9 16.45 59.5 11.8 84.15 7.15 108.15 12.55 L110.15 13.05 117.1 15.0 Q130.3 19.25 137.7 26.25 139.8 28.15 141.4 30.3 145.7 36.0 145.7 41.55 L145.6 43.4 Q145.0 38.7 141.4 33.9 139.8 31.75 137.7 29.85 131.25 23.75 120.4 19.75 115.7 18.0 110.15 16.65 L108.15 16.15 Q84.15 10.75 59.5 15.4 34.9 20.05 24.1 32.05 L23.2 33.05 Q19.0 38.15 18.4 43.3" fill="url(#gradient1)" fill-rule="evenodd" stroke="none"/>
      <path d="M-0.65 42.3 L-0.65 41.3 Q-0.6 33.55 5.75 25.9 L6.95 24.55 Q20.95 9.05 52.85 3.0 74.75 -1.1 96.3 0.9 106.1 1.8 115.85 4.0 L118.5 4.6 Q142.2 10.4 154.3 21.7 156.9 24.2 159.0 26.95 L161.4 30.65 Q164.4 36.35 164.6 41.35 L164.55 74.55 Q164.35 77.5 163.25 80.4 162.25 83.05 160.45 85.7 L157.0 90.05 Q154.5 92.9 151.3 95.35 148.45 97.7 145.05 99.7 132.9 107.1 114.15 111.05 L111.05 111.65 Q85.1 116.55 59.7 112.85 L50.45 111.15 48.1 110.65 Q30.85 106.75 19.4 100.15 L17.55 99.05 Q10.55 94.55 5.9 88.95 L4.9 87.65 Q2.8 84.9 1.5 82.15 -0.45 78.0 -0.65 73.9 L-0.65 46.25 -0.65 45.25 -0.65 43.5 -0.65 42.3 Z" fill="none" stroke="#684500" stroke-linecap="round" stroke-linejoin="round" stroke-opacity="0.3019608" stroke-width="1.0"/>
    </g>
    <radialGradient cx="0" cy="0" gradientTransform="matrix(0.0862, -0.0498, 0.0305, 0.0528, 163.4, 106.0)" gradientUnits="userSpaceOnUse" id="gradient1" r="819.2" spreadMethod="pad">
      <stop offset="0.0" stop-color="#785e17"/>
      <stop offset="1.0" stop-color="#9a5c08"/>
    </radialGradient>
    <g id="shape14" transform="matrix(1.0, 0.0, 0.0, 1.0, -31.2, -28.15)">
      <path d="M35.75 35.2 Q37.55 33.5 40.65 33.05 43.7 32.55 46.15 33.55 48.55 34.5 49.0 36.4 49.4 38.3 47.5 39.95 45.65 41.65 42.6 42.15 39.5 42.6 37.1 41.6 34.65 40.65 34.25 38.75 33.8 36.85 35.75 35.2" fill="#b99631" fill-rule="evenodd" stroke="none"/>
      <path d="M51.75 30.95 Q52.65 30.15 54.1 29.9 L56.75 30.15 Q57.95 30.65 58.15 31.55 58.3 32.45 57.4 33.2 56.5 34.05 55.05 34.25 L52.4 34.0 Q51.2 33.55 51.05 32.65 50.85 31.75 51.75 30.95" fill="#b99631" fill-rule="evenodd" stroke="none"/>
      <path d="M64.3 33.5 Q65.2 36.75 61.0 40.05 56.85 43.3 50.0 44.65 43.15 46.0 37.7 44.65 32.25 43.25 31.35 39.95 30.45 36.7 34.65 33.45 38.8 30.2 45.65 28.85 52.5 27.5 57.95 28.85 63.4 30.25 64.3 33.5" fill="#b99631" fill-opacity="0.3019608" fill-rule="evenodd" stroke="none"/>
    </g>
    <g id="shape15" transform="matrix(1.0, 0.0, 0.0, 1.0, -5.4, -8.05)">
      <path d="M5.9 31.95 Q6.05 31.25 5.4 31.35 7.6 28.05 10.1 25.2 19.5 14.2 33.5 10.0 37.9 8.7 42.75 8.05 42.4 8.6 43.0 9.2 38.2 9.75 33.8 11.1 20.55 15.1 10.85 25.7 8.25 28.55 5.9 31.95" fill="#870101" fill-rule="evenodd" stroke="none"/>
      <path d="M10.85 25.7 Q20.55 15.1 33.8 11.1 L33.85 13.05 Q21.85 16.65 12.8 26.5 L10.85 25.7" fill="#68502b" fill-rule="evenodd" stroke="none"/>
      <path d="M5.9 31.95 Q8.25 28.55 10.85 25.7 L12.8 26.5 Q9.9 29.7 7.3 33.55 L5.9 31.95 M33.8 11.1 Q38.2 9.75 43.0 9.2 43.7 9.85 42.9 11.3 38.2 11.75 33.85 13.05 L33.8 11.1" fill="#4f3c20" fill-rule="evenodd" stroke="none"/>
      <path d="M33.85 13.05 L33.95 17.5 Q24.85 21.1 17.3 28.4 L12.8 26.5 Q21.85 16.65 33.85 13.05" fill="#4a3920" fill-rule="evenodd" stroke="none"/>
      <path d="M42.9 11.3 L40.95 15.3 Q37.35 16.15 33.95 17.5 L33.85 13.05 Q38.2 11.75 42.9 11.3 M17.3 28.4 Q15.1 30.55 13.0 33.05 L12.0 33.2 7.3 33.55 Q9.9 29.7 12.8 26.5 L17.3 28.4" fill="#3c2e1a" fill-rule="evenodd" stroke="none"/>
      <path d="M43.0 9.2 Q42.4 8.6 42.75 8.05 37.9 8.7 33.5 10.0 19.5 14.2 10.1 25.2 7.6 28.05 5.4 31.35 6.05 31.25 5.9 31.95 M43.0 9.2 Q43.7 9.85 42.9 11.3 L40.95 15.3 43.6 13.6 M33.95 17.5 Q37.35 16.15 40.95 15.3 M7.3 33.55 L12.0 33.2 13.0 33.05 Q15.1 30.55 17.3 28.4 24.85 21.1 33.95 17.5 M7.3 33.55 L5.9 31.95" fill="none" stroke="#000000" stroke-linecap="round" stroke-linejoin="round" stroke-opacity="0.3019608" stroke-width="0.05"/>
      <path d="M9.3 33.2 L8.65 32.7 Q30.0 26.9 43.1 9.3 L43.25 11.05 Q31.4 27.65 9.3 33.2" fill="#870101" fill-rule="evenodd" stroke="none"/>
      <path d="M43.25 11.05 L43.55 12.25 Q34.15 28.65 10.3 33.9 L9.3 33.2 Q31.4 27.65 43.25 11.05" fill="#660000" fill-rule="evenodd" stroke="none"/>
      <path d="M43.55 12.25 L47.85 17.25 Q36.05 37.35 14.1 39.35 L10.3 33.9 Q34.15 28.65 43.55 12.25" fill="#430101" fill-rule="evenodd" stroke="none"/>
      <path d="M9.3 33.2 L8.65 32.7 Q30.0 26.9 43.1 9.3 L43.25 11.05 43.55 12.25 47.85 17.25 Q36.05 37.35 14.1 39.35 L10.3 33.9 9.3 33.2 M10.3 33.9 Q34.15 28.65 43.55 12.25" fill="none" stroke="#000000" stroke-linecap="round" stroke-linejoin="round" stroke-opacity="0.3019608" stroke-width="0.05"/>
    </g>
    <g id="shape16" transform="matrix(1.0, 0.0, 0.0, 1.0, -9.3, -36.5)">
      <path d="M11.65 39.9 L10.25 39.5 Q9.2 38.3 9.3 36.5 L11.65 39.9" fill="#000000" fill-opacity="0.3019608" fill-rule="evenodd" stroke="none"/>
    </g>
    <g id="shape17" transform="matrix(1.0, 0.0, 0.0, 1.0, -44.25, -12.0)">
      <path d="M46.2 17.45 L44.25 12.0 Q47.2 15.0 47.5 17.6 L46.2 17.45" fill="#000000" fill-opacity="0.3019608" fill-rule="evenodd" stroke="none"/>
    </g>
    <g id="shape18" transform="matrix(1.0, 0.0, 0.0, 1.0, -20.75, -18.6)">
      <path d="M23.95 36.25 Q20.75 32.45 20.75 28.0 25.15 31.95 23.95 36.25" fill="#000000" fill-opacity="0.3019608" fill-rule="evenodd" stroke="none"/>
      <path d="M41.0 25.15 Q35.8 23.55 34.95 18.6 39.0 21.0 41.0 25.15" fill="#000000" fill-opacity="0.3019608" fill-rule="evenodd" stroke="none"/>
    </g>
    <g id="sprite12" transform="matrix(1.0, 0.0, 0.0, 1.0, 0.0, 0.0)">
      <use height="12.2" transform="matrix(1.0, 0.0, 0.0, 1.0, 0.0, 0.0)" width="5.25" xlink:href="#shape19"/>
    </g>
    <g id="shape19" transform="matrix(1.0, 0.0, 0.0, 1.0, 0.0, 0.0)">
      <path d="M4.9 3.8 Q5.6 6.6 4.85 8.9 L4.25 10.2 3.7 10.65 Q2.75 11.3 2.0 11.2 4.0 9.95 3.85 6.2 3.6 2.1 2.15 0.95 L3.55 1.3 4.25 1.75 4.9 3.8" fill="#333333" fill-rule="evenodd" stroke="none"/>
      <path d="M0.9 3.9 L0.7 2.7 Q0.9 1.75 1.35 1.35 1.65 1.0 2.15 0.95 3.6 2.1 3.85 6.2 4.0 9.95 2.0 11.2 1.45 11.15 1.0 10.65 L0.7 10.2 1.0 8.5 Q1.3 6.2 0.9 3.9" fill="#999999" fill-rule="evenodd" stroke="none"/>
      <path d="M0.4 9.0 Q1.05 6.4 0.5 3.65 L0.9 3.9 Q1.3 6.2 1.0 8.5 L0.4 9.0" fill="#000000" fill-opacity="0.24313726" fill-rule="evenodd" stroke="none"/>
      <path d="M0.5 3.65 L0.45 3.65 Q-0.3 2.35 0.25 1.35 0.75 0.3 1.8 0.05 4.4 -0.35 5.15 1.55 L5.15 2.7 4.9 3.8 4.25 1.75 3.55 1.3 2.15 0.95 Q1.65 1.0 1.35 1.35 0.9 1.75 0.7 2.7 L0.9 3.9 0.5 3.65 M4.85 8.9 Q5.4 10.3 4.95 10.55 4.45 12.2 2.0 12.2 0.75 12.25 0.05 11.0 -0.05 9.6 0.4 9.0 L1.0 8.5 0.7 10.2 1.0 10.65 Q1.45 11.15 2.0 11.2 2.75 11.3 3.7 10.65 L4.25 10.2 4.85 8.9" fill="#915600" fill-opacity="0.6" fill-rule="evenodd" stroke="none"/>
    </g>
    <g id="sprite13" transform="matrix(1.0, 0.0, 0.0, 1.0, 0.0, 0.0)">
      <use height="55.0" transform="matrix(1.0, 0.0, 0.0, 1.0, 0.0, 0.0)" width="46.4" xlink:href="#shape20"/>
    </g>
    <g id="shape20" transform="matrix(1.0, 0.0, 0.0, 1.0, 0.0, 0.0)">
      <path d="M36.6 0.0 L29.0 24.6 46.4 36.4 27.2 30.8 12.0 55.0 22.0 28.0 0.0 21.2 23.8 24.6 36.6 0.0" fill="#f2fdc6" fill-opacity="0.3019608" fill-rule="evenodd" stroke="none"/>
      <path d="M11.9 12.75 L27.0 24.45 45.6 12.6 30.6 26.5 37.9 41.5 26.85 30.1 6.75 40.75 24.4 26.1 11.9 12.75" fill="#f2fdc6" fill-opacity="0.5019608" fill-rule="evenodd" stroke="none"/>
    </g>
  </defs>
</svg>
