<?xml version="1.0" encoding="UTF-8" standalone="no"?>
<svg xmlns:xlink="http://www.w3.org/1999/xlink" height="520.0px" width="520.0px" xmlns="http://www.w3.org/2000/svg">
  <g transform="matrix(10.0, 0.0, 0.0, 10.0, 0.0, 0.0)">
    <use height="52.0" transform="matrix(1.0, 0.0, 0.0, 1.0, 0.0, 0.0)" width="52.0" xlink:href="#shape0"/>
    <use height="136.85" transform="matrix(0.129, 0.0408, 0.0, 0.092, 21.1653, 8.8194)" width="148.25" xlink:href="#sprite0"/>
    <use height="136.85" transform="matrix(0.0928, 0.0293, 0.0, 0.0914, 17.2823, 20.3564)" width="148.25" xlink:href="#sprite0"/>
  </g>
  <defs>
    <g id="shape0" transform="matrix(1.0, 0.0, 0.0, 1.0, 0.0, 0.0)">
      <path d="M52.0 0.0 L52.0 52.0 0.0 52.0 0.0 0.0 52.0 0.0" fill="#795fa9" fill-opacity="0.0" fill-rule="evenodd" stroke="none"/>
      <path d="M40.15 13.9 Q41.45 14.3 42.35 14.85 43.2 15.4 43.75 16.1 44.6 17.15 44.75 18.5 L44.75 19.15 44.75 19.35 45.95 20.0 46.7 20.9 47.0 21.25 Q48.35 23.4 47.55 26.0 46.7 28.5 44.65 29.8 L43.1 30.5 43.05 30.65 43.0 30.75 42.85 30.95 41.45 32.3 40.75 32.5 40.1 32.65 40.05 32.65 40.0 32.7 39.9 32.7 39.4 32.85 39.2 32.85 39.05 32.9 38.85 32.95 35.7 33.45 35.1 35.1 35.05 35.1 Q34.75 34.5 34.25 34.5 33.7 34.5 33.2 35.05 L32.4 36.0 Q32.15 36.4 32.4 37.0 32.7 37.6 33.25 37.8 L34.4 37.55 34.2 38.35 Q33.4 38.6 32.45 39.65 31.2 41.1 29.75 44.05 31.0 39.95 30.7 38.25 30.55 37.3 29.95 37.1 L29.45 37.2 Q28.0 37.65 25.9 40.0 26.15 38.45 26.0 37.55 L25.65 36.75 26.25 36.55 26.75 35.8 26.85 35.05 26.8 34.6 Q26.75 33.95 26.35 34.4 L26.2 34.55 25.7 34.8 Q25.5 34.75 25.2 35.1 L25.15 35.15 25.05 35.25 Q24.65 35.75 24.8 36.0 L25.0 36.35 24.0 36.55 Q19.75 38.0 18.1 43.7 17.15 43.7 15.75 45.5 16.25 43.45 15.8 42.8 15.45 42.25 14.55 42.55 L17.2 39.1 Q17.85 37.65 17.45 36.75 L16.5 36.9 15.95 37.0 11.85 37.25 10.95 37.2 10.0 37.75 9.8 37.85 9.15 38.0 8.65 38.05 8.55 38.05 Q8.5 37.35 8.75 36.5 L8.15 36.45 Q7.3 36.35 6.6 35.9 L6.65 35.85 8.2 34.6 7.7 33.8 7.2 32.25 7.35 32.25 8.95 32.2 9.55 32.35 9.65 32.4 9.6 32.3 Q9.45 31.8 9.7 30.95 L9.9 30.2 10.05 29.9 10.05 29.85 10.65 30.4 11.15 31.05 11.6 31.8 11.9 32.3 13.85 30.55 12.9 29.9 Q12.15 28.95 10.95 28.5 L9.2 28.05 8.45 28.7 6.9 29.5 6.7 29.5 6.4 29.55 5.15 29.55 5.1 29.55 5.15 29.55 6.2 28.3 6.25 28.25 6.25 28.2 6.2 28.2 4.7 27.55 3.95 27.15 Q4.5 26.2 5.25 25.65 L5.3 25.6 5.3 25.55 3.85 24.8 4.7 24.35 4.8 24.25 5.5 24.05 5.95 24.0 5.05 22.95 5.0 22.95 6.3 22.7 Q7.65 22.65 8.7 23.5 L9.0 23.75 10.7 24.0 Q12.15 24.4 13.1 25.65 L13.45 26.0 14.55 26.9 15.7 25.95 17.9 23.4 17.9 23.35 17.85 22.55 17.9 21.6 Q16.6 20.1 16.15 18.55 15.7 17.0 16.1 15.4 L16.2 15.1 Q16.75 13.7 18.2 13.3 L18.6 13.2 20.0 13.15 20.0 12.75 20.3 11.5 20.35 11.5 20.4 11.3 20.8 10.65 20.8 10.6 20.85 10.6 21.15 10.25 21.45 10.0 22.4 9.55 Q25.55 8.1 29.9 9.15 31.85 9.65 33.55 10.55 L36.05 11.95 Q38.05 13.1 40.15 13.9 M28.85 35.1 L28.75 35.7 28.15 36.15 28.1 36.2 27.8 36.15 27.8 35.95 27.8 35.85 28.0 35.5 28.35 35.1 28.85 35.1 M14.5 32.35 L14.5 32.6 15.8 32.45 15.85 32.45 15.95 32.2 15.8 31.75 15.45 31.55 Q15.3 31.55 15.3 31.65 14.8 31.8 14.5 32.35" fill="none" stroke="#000000" stroke-linecap="round" stroke-linejoin="round" stroke-opacity="0.3019608" stroke-width="1.0"/>
      <path d="M46.7 20.9 Q46.8 22.5 46.1 22.45 44.65 22.45 44.1 21.6 L44.65 21.15 Q45.75 20.35 46.7 20.9 45.75 20.35 44.65 21.15 L44.1 21.6 42.85 20.15 43.1 18.5 45.95 20.0 46.7 20.9" fill="#cab460" fill-rule="evenodd" stroke="none"/>
      <path d="M42.75 20.75 L43.75 22.0 44.15 22.35 45.25 23.05 Q47.05 23.7 47.0 21.3 48.35 23.4 47.55 26.0 L45.05 26.55 42.1 24.7 42.15 24.35 Q43.0 22.9 43.75 22.0 43.0 22.9 42.15 24.35 L42.75 20.75" fill="#a99545" fill-rule="evenodd" stroke="none"/>
      <path d="M44.1 21.6 Q44.65 22.45 46.1 22.45 46.8 22.5 46.7 20.9 L47.0 21.3 Q47.05 23.7 45.25 23.05 L44.15 22.35 43.75 22.0 42.75 20.75 42.85 20.15 44.1 21.6 43.75 22.0 44.1 21.6" fill="#d1c872" fill-rule="evenodd" stroke="none"/>
      <path d="M42.85 20.15 L42.75 20.75 42.15 24.35 42.1 24.7 45.05 26.55 47.55 26.0 Q48.35 23.4 47.0 21.3 L46.7 20.9 45.95 20.0 43.1 18.5 42.85 20.15" fill="none" stroke="#000000" stroke-linecap="round" stroke-linejoin="round" stroke-opacity="0.3019608" stroke-width="0.30000000000000004"/>
      <path d="M46.7 20.9 Q45.75 20.35 44.65 21.15 L44.1 21.6 M43.75 22.0 L44.1 21.6 M42.15 24.35 Q43.0 22.9 43.75 22.0" fill="none" stroke="#000000" stroke-linecap="round" stroke-linejoin="round" stroke-opacity="0.101960786" stroke-width="0.05"/>
      <path d="M19.3 13.5 L20.8 13.4 20.9 14.4 20.3 14.85 Q19.8 13.85 19.3 13.5 19.8 13.85 20.3 14.85 19.85 15.35 19.55 16.25 L19.5 16.3 19.5 16.65 Q19.6 17.75 20.2 18.7 L17.15 17.65 17.0 17.3 16.6 15.2 16.65 15.15 Q16.95 13.75 19.3 13.5" fill="#cab460" fill-rule="evenodd" stroke="none"/>
      <path d="M20.45 15.3 Q20.8 14.95 21.4 14.8 L21.65 14.8 22.05 15.85 21.3 18.05 21.0 16.95 20.45 15.3 21.0 16.95 21.3 18.05 21.0 19.0 20.4 18.8 20.1 17.15 20.1 16.95 Q19.9 15.85 20.45 15.3" fill="#a99545" fill-rule="evenodd" stroke="none"/>
      <path d="M19.3 13.5 Q18.95 13.2 18.6 13.2 18.95 13.2 19.3 13.5 16.95 13.75 16.65 15.15 L16.6 15.2 17.0 17.3 17.15 17.65 16.5 17.45 16.1 15.4 16.2 15.15 Q16.75 13.7 18.2 13.3 L18.6 13.2 21.0 13.3 21.65 14.8 21.4 14.8 Q20.8 14.95 20.45 15.3 L20.3 14.85 20.45 15.3 Q19.9 15.85 20.1 16.95 L20.1 17.15 20.4 18.8 20.2 18.7 Q19.6 17.75 19.5 16.65 L19.5 16.3 19.55 16.25 Q19.85 15.35 20.3 14.85 L20.9 14.4 20.8 13.4 19.3 13.5" fill="#d1c872" fill-rule="evenodd" stroke="none"/>
      <path d="M21.65 14.8 L21.0 13.3 18.6 13.2 18.2 13.3 Q16.75 13.7 16.2 15.15 L16.1 15.4 M21.3 18.05 L22.05 15.85 21.65 14.8 M21.0 19.0 L21.3 18.05" fill="none" stroke="#000000" stroke-linecap="round" stroke-linejoin="round" stroke-opacity="0.3019608" stroke-width="0.30000000000000004"/>
      <path d="M18.6 13.2 Q18.95 13.2 19.3 13.5 19.8 13.85 20.3 14.85 L20.45 15.3 21.0 16.95 21.3 18.05" fill="none" stroke="#000000" stroke-linecap="round" stroke-linejoin="round" stroke-opacity="0.101960786" stroke-width="0.05"/>
      <path d="M29.25 9.5 Q31.6 10.05 33.9 11.25 L35.1 12.0 34.45 12.8 Q34.2 13.75 34.8 14.4 35.05 17.0 34.05 20.05 L33.7 19.9 33.45 19.85 33.3 19.8 32.95 19.65 31.7 19.25 31.55 19.15 31.35 19.1 31.55 19.15 31.7 19.25 31.35 19.1 31.2 19.05 31.15 19.05 31.1 19.0 28.65 18.0 27.85 17.7 Q29.4 15.05 29.45 11.1 L29.25 10.25 29.25 9.5 M23.65 9.55 Q23.95 9.6 23.95 9.75 24.4 10.05 24.3 10.5 L23.95 11.2 Q23.0 11.8 23.05 12.75 L23.05 13.0 23.1 13.05 23.15 13.35 23.2 13.5 23.25 13.55 23.45 14.0 23.5 14.05 21.75 13.95 Q20.8 12.2 21.95 10.5 22.35 10.1 23.0 9.8 L23.65 9.55 M27.05 19.0 L28.15 19.6 30.65 20.7 33.9 21.9 34.35 22.0 35.4 22.2 35.05 22.85 Q33.55 26.55 33.25 30.45 33.3 33.2 32.65 33.65 26.5 33.65 22.7 30.5 22.2 29.55 22.85 28.35 25.6 24.9 27.05 20.0 L27.05 19.0 M35.55 21.6 L32.9 21.0 Q29.7 19.85 27.25 18.55 27.45 18.2 27.85 18.1 29.9 19.3 32.15 20.0 L35.6 20.95 35.65 21.0 35.55 21.6 M40.15 15.5 L40.35 15.1 41.1 14.7 Q42.95 15.5 43.5 16.55 44.25 18.85 43.35 20.1 43.05 19.5 42.45 19.55 42.75 16.65 40.15 15.5 M40.7 16.65 L40.35 16.4 40.15 15.6 41.3 16.65 41.9 18.1 Q41.65 17.25 40.7 16.65 41.65 17.25 41.9 18.1 L42.0 19.0 42.0 19.05 42.0 19.1 42.0 19.2 41.8 19.75 41.55 20.0 41.5 20.05 41.0 20.35 40.3 20.55 40.25 20.55 39.9 20.6 39.4 20.7 39.35 20.7 Q40.6 18.9 40.7 16.65 M44.7 19.6 L44.65 19.8 44.3 20.8 44.15 21.0 Q42.9 23.5 43.65 25.6 44.2 30.75 41.45 32.3 L40.75 32.5 Q42.05 31.1 42.4 28.1 41.95 25.05 42.9 22.25 L44.15 21.0 42.9 22.25 Q43.7 21.35 43.5 20.5 44.35 19.3 44.25 17.65 L44.7 19.6 M20.0 13.55 Q20.35 11.45 21.15 10.75 L21.15 10.85 21.1 10.9 21.1 10.95 Q20.55 12.8 21.45 14.5 21.15 15.2 21.45 16.2 L21.45 16.3 21.9 16.75 Q22.15 19.3 20.2 20.95 18.95 22.15 18.3 24.65 16.7 20.65 20.5 18.45 21.35 17.1 20.7 15.4 L20.2 14.45 20.15 14.35 20.1 14.2 20.0 13.55" fill="#715a28" fill-rule="evenodd" stroke="none"/>
      <path d="M29.25 9.5 L29.25 10.25 29.45 11.1 Q29.4 15.05 27.85 17.7 L27.75 17.6 27.15 17.3 27.05 17.2 25.7 16.35 25.6 16.25 25.2 15.9 25.1 15.8 24.35 15.15 24.3 15.1 24.1 14.85 24.0 14.75 23.7 14.4 Q25.05 16.55 27.85 18.1 27.45 18.2 27.25 18.55 25.1 17.35 23.5 16.0 22.3 15.0 21.75 13.95 L23.5 14.05 23.45 14.0 23.25 13.55 23.2 13.5 23.15 13.35 23.1 13.05 23.05 13.0 23.05 12.75 Q23.0 11.8 23.95 11.2 L24.3 10.5 Q24.4 10.05 23.95 9.75 23.95 9.6 23.65 9.55 L26.15 9.15 29.25 9.5 M34.05 20.05 Q35.05 17.0 34.8 14.4 34.2 13.75 34.45 12.8 L35.1 12.0 Q36.95 13.1 38.55 13.65 40.1 14.2 41.1 14.7 L40.35 15.1 40.15 15.5 40.15 15.6 40.35 16.4 40.1 16.3 40.35 16.4 40.7 16.65 Q40.6 18.9 39.35 20.7 L36.3 20.65 35.5 20.45 34.05 20.05 M29.2 11.1 Q25.95 10.2 23.95 11.2 25.95 10.2 29.2 11.1 M21.45 14.5 L21.45 14.55 23.4 16.5 Q25.0 17.85 27.05 19.0 L27.05 20.0 Q25.6 24.9 22.85 28.35 22.2 29.55 22.7 30.5 L21.05 28.9 Q19.05 26.55 18.3 24.65 18.95 22.15 20.2 20.95 22.15 19.3 21.9 16.75 L21.45 16.3 21.45 16.2 Q21.15 15.2 21.45 14.5 M32.65 33.65 Q33.3 33.2 33.25 30.45 33.55 26.55 35.05 22.85 L35.4 22.2 40.85 21.9 41.95 21.5 43.25 20.8 43.5 20.5 Q43.7 21.35 42.9 22.25 41.75 23.0 40.0 23.3 41.75 23.0 42.9 22.25 41.95 25.05 42.4 28.1 42.05 31.1 40.75 32.5 36.3 33.65 32.65 33.65 M43.35 20.1 L42.45 20.9 Q39.85 22.35 35.55 21.6 L35.65 21.0 Q41.9 21.45 42.45 19.65 L42.45 19.55 Q43.05 19.5 43.35 20.1 M23.8 18.25 L21.9 16.75 23.8 18.25 M23.7 14.4 L23.5 14.05 23.7 14.4 M24.1 14.85 L24.05 14.8 24.0 14.75 24.05 14.8 24.1 14.85" fill="#6f532b" fill-rule="evenodd" stroke="none"/>
      <path d="M35.1 12.0 L33.9 11.25 Q31.6 10.05 29.25 9.5 29.4 9.15 29.9 9.15 31.85 9.65 33.55 10.55 L36.05 11.95 35.1 12.0 M28.65 18.0 L31.1 19.0 31.15 19.05 31.2 19.05 31.35 19.1 31.7 19.25 32.95 19.65 33.3 19.8 33.45 19.85 33.7 19.9 34.05 20.05 35.5 20.45 35.6 20.95 32.15 20.0 Q29.9 19.3 27.85 18.1 L28.65 18.0 M41.1 14.7 L42.35 14.9 43.75 16.1 44.25 17.65 43.5 16.55 Q42.95 15.5 41.1 14.7 M40.15 15.6 L40.15 15.5 Q42.75 16.65 42.45 19.55 L41.8 19.75 42.0 19.2 42.0 19.1 42.0 19.05 42.0 19.0 41.9 18.1 41.3 16.65 40.15 15.6 M22.4 9.55 L23.65 9.55 23.0 9.8 Q21.55 10.1 21.15 10.75 20.35 11.45 20.0 13.55 19.9 12.5 20.3 11.5 L20.5 11.15 20.75 10.75 20.85 10.6 21.15 10.25 21.45 10.05 Q21.9 9.75 22.4 9.55" fill="#a28033" fill-rule="evenodd" stroke="none"/>
      <path d="M27.85 17.7 L28.65 18.0 27.85 18.1 Q25.05 16.55 23.7 14.4 L24.0 14.75 24.1 14.85 24.3 15.1 24.35 15.15 25.1 15.8 25.2 15.9 25.6 16.25 25.7 16.35 27.05 17.2 27.15 17.3 27.75 17.6 27.85 17.7 M35.1 12.0 L36.05 11.95 Q38.05 13.15 40.15 13.9 41.45 14.3 42.35 14.9 L41.1 14.7 Q40.1 14.2 38.55 13.65 36.95 13.1 35.1 12.0 M29.9 9.15 Q29.4 9.15 29.25 9.5 L26.15 9.15 23.65 9.55 22.4 9.55 Q25.55 8.1 29.9 9.15 M35.65 21.0 L35.6 20.95 35.5 20.45 36.3 20.65 39.35 20.7 39.4 20.7 39.9 20.6 40.25 20.55 40.3 20.55 41.0 20.35 41.5 20.05 41.55 20.0 41.8 19.75 42.45 19.55 42.45 19.65 Q41.9 21.45 35.65 21.0" fill="#98733d" fill-rule="evenodd" stroke="none"/>
      <path d="M27.05 19.0 L27.25 18.55 Q29.7 19.85 32.9 21.0 L35.55 21.6 35.4 22.2 34.35 22.0 33.9 21.9 30.65 20.7 28.15 19.6 27.05 19.0 M21.75 13.95 L21.7 14.05 21.45 14.5 Q20.55 12.8 21.1 10.95 L21.1 10.9 21.15 10.85 21.15 10.75 Q21.55 10.1 23.0 9.8 22.35 10.1 21.95 10.5 20.8 12.2 21.75 13.95 M43.5 20.5 L43.35 20.15 43.35 20.1 Q44.25 18.85 43.5 16.55 L44.25 17.65 43.75 16.1 Q44.6 17.15 44.75 18.55 L44.7 19.6 44.25 17.65 Q44.35 19.3 43.5 20.5" fill="#7c642e" fill-rule="evenodd" stroke="none"/>
      <path d="M27.25 18.55 L27.05 19.0 Q25.0 17.85 23.4 16.5 L21.45 14.55 21.45 14.5 21.7 14.05 21.75 13.95 Q22.3 15.0 23.5 16.0 25.1 17.35 27.25 18.55 M35.4 22.2 L35.55 21.6 Q39.85 22.35 42.45 20.9 L43.35 20.1 43.35 20.15 43.5 20.5 43.25 20.8 41.95 21.5 40.85 21.9 35.4 22.2" fill="#7a5b30" fill-rule="evenodd" stroke="none"/>
      <path d="M29.25 9.5 L29.25 10.25 29.45 11.1 Q29.4 15.05 27.85 17.7 M34.05 20.05 Q35.05 17.0 34.8 14.4 34.2 13.75 34.45 12.8 L35.1 12.0 36.05 11.95 M29.9 9.15 Q29.4 9.15 29.25 9.5 M23.65 9.55 Q23.95 9.6 23.95 9.75 24.4 10.05 24.3 10.5 L23.95 11.2 M27.25 18.55 L27.05 19.0 27.05 20.0 Q25.6 24.9 22.85 28.35 22.2 29.55 22.7 30.5 M35.4 22.2 L35.55 21.6 35.65 21.0 35.6 20.95 M21.75 13.95 L21.7 14.05 21.45 14.5 Q21.15 15.2 21.45 16.2 M32.65 33.65 Q33.3 33.2 33.25 30.45 33.55 26.55 35.05 22.85 L35.4 22.2 M43.5 20.5 L43.35 20.15 43.35 20.1 M27.85 18.1 Q27.45 18.2 27.25 18.55 M40.15 15.5 L40.35 15.1 41.1 14.7 42.35 14.9 M40.15 15.6 L40.15 15.5 M42.45 19.55 Q43.05 19.5 43.35 20.1 M40.15 15.6 L40.35 16.4 M41.8 19.75 L42.45 19.55 M42.9 22.25 Q41.95 25.05 42.4 28.1 42.05 31.1 40.75 32.5 M43.5 20.5 Q43.7 21.35 42.9 22.25 M39.35 20.7 Q40.6 18.9 40.7 16.65 M35.5 20.45 L35.6 20.95 M23.65 9.55 L22.4 9.55 M23.5 14.05 L21.75 13.95 M18.3 24.65 Q18.95 22.15 20.2 20.95 22.15 19.3 21.9 16.75" fill="none" stroke="#000000" stroke-linecap="round" stroke-linejoin="round" stroke-opacity="0.101960786" stroke-width="0.05"/>
      <path d="M27.85 17.7 L28.65 18.0 31.1 19.0 31.15 19.05 31.2 19.05 31.35 19.1 M31.7 19.25 L32.95 19.65 33.3 19.8 33.45 19.85 33.7 19.9 34.05 20.05 35.5 20.45 36.3 20.65 39.35 20.7 39.4 20.7 39.9 20.6 40.25 20.55 40.3 20.55 41.0 20.35 41.5 20.05 41.55 20.0 41.8 19.75 42.0 19.2 42.0 19.1 42.0 19.05 42.0 19.0 41.9 18.1 M36.05 11.95 L33.55 10.55 Q31.85 9.65 29.9 9.15 M23.95 11.2 Q25.95 10.2 29.2 11.1 M27.85 17.7 L27.75 17.6 27.15 17.3 27.05 17.2 25.7 16.35 25.6 16.25 25.2 15.9 M24.3 15.1 L24.1 14.85 M24.0 14.75 L23.7 14.4 M22.7 30.5 Q26.5 33.65 32.65 33.65 M42.35 14.9 Q41.45 14.3 40.15 13.9 38.05 13.15 36.05 11.95 M40.35 16.4 L40.1 16.3 M40.35 16.4 L40.7 16.65 Q41.65 17.25 41.9 18.1 M42.35 14.9 L43.75 16.1 M44.15 21.0 Q42.9 23.5 43.65 25.6 44.2 30.75 41.45 32.3 L40.75 32.5 Q36.3 33.65 32.65 33.65 M42.9 22.25 Q41.75 23.0 40.0 23.3 M44.15 21.0 L42.9 22.25 M22.4 9.55 Q21.9 9.75 21.45 10.05 M20.85 10.6 L20.75 10.75 20.5 11.15 M21.45 16.2 L21.45 16.3 21.9 16.75 23.8 18.25 M23.95 11.2 Q23.0 11.8 23.05 12.75 M23.15 13.35 L23.2 13.5 M18.3 24.65 Q16.7 20.65 20.5 18.45 21.35 17.1 20.7 15.4 M22.7 30.5 L21.05 28.9 Q19.05 26.55 18.3 24.65 M22.4 9.55 Q25.55 8.1 29.9 9.15" fill="none" stroke="#000000" stroke-linecap="round" stroke-linejoin="round" stroke-opacity="0.3019608" stroke-width="0.30000000000000004"/>
      <path d="M31.35 19.1 L31.55 19.15 31.7 19.25 M25.2 15.9 L25.1 15.8 24.35 15.15 24.3 15.1 M23.05 12.75 L23.05 13.0 23.1 13.05 23.15 13.35 M23.2 13.5 L23.25 13.55 23.45 14.0 23.5 14.05 23.7 14.4 M24.0 14.75 L24.05 14.8 24.1 14.85" fill="none" stroke="#000000" stroke-linecap="round" stroke-linejoin="round" stroke-opacity="0.3019608" stroke-width="0.05"/>
      <path d="M41.95 18.25 L41.85 17.95 41.65 17.55 41.25 17.05 40.7 16.65 40.35 16.45 40.35 16.4 40.1 16.3 Q37.2 15.35 34.4 14.05 31.75 12.75 29.2 11.1 L27.45 10.75 Q25.4 10.45 24.0 11.15 L23.95 11.2 Q23.0 11.8 23.05 12.75 22.85 11.0 23.9 10.7 25.75 9.8 27.95 10.05 29.45 10.2 31.15 10.9 L34.95 13.05 38.6 14.75 40.1 15.55 41.3 16.65 Q41.8 17.3 41.95 18.25 M42.0 19.05 L42.0 19.0 Q42.0 18.8 42.0 19.05 M21.4 16.25 L20.7 15.4 20.2 14.45 20.15 14.35 20.1 14.2 Q19.8 12.75 20.3 11.5 L20.8 10.65 20.85 10.6 21.15 10.25 21.45 10.05 21.1 10.95 Q20.55 12.8 21.45 14.55 L23.4 16.5 Q25.45 18.2 28.15 19.6 L30.65 20.7 33.9 21.9 34.35 22.0 Q38.0 22.75 40.85 21.9 L41.95 21.5 43.25 20.8 Q44.95 18.8 43.75 16.1 44.6 17.15 44.75 18.55 L44.65 19.8 44.15 21.0 43.45 21.8 42.3 22.7 40.75 23.2 40.0 23.3 36.85 23.55 34.4 23.15 Q34.15 24.5 32.5 24.9 L32.15 24.95 29.3 24.15 29.1 23.55 Q28.4 22.1 26.7 21.6 L25.4 25.25 19.35 20.45 Q18.7 21.5 18.3 22.85 L18.65 23.25 19.7 24.3 18.55 25.2 18.3 24.65 18.1 24.0 Q17.8 23.1 17.85 22.3 17.9 20.75 19.05 19.55 L19.35 20.45 Q20.1 19.2 21.1 18.4 L21.8 18.8 Q23.6 19.7 25.75 19.55 L23.8 18.25 21.4 16.25" fill="#000000" fill-opacity="0.2" fill-rule="evenodd" stroke="none"/>
      <path d="M23.05 12.75 Q23.0 11.8 23.95 11.2 L24.0 11.15 Q25.4 10.45 27.45 10.75 L29.2 11.1 Q31.75 12.75 34.4 14.05 37.2 15.35 40.1 16.3 L40.35 16.4 40.35 16.45 40.7 16.65 41.25 17.05 41.65 17.55 41.85 17.95 41.95 18.25 42.0 19.0 42.0 19.05 42.0 19.2 41.8 19.75 41.55 20.0 41.5 20.05 41.0 20.35 40.3 20.55 Q40.6 18.55 37.0 17.65 35.0 16.8 33.35 15.95 30.6 14.55 28.6 13.05 27.4 12.3 26.35 12.3 24.8 12.3 23.65 14.05 L23.55 14.15 23.5 14.05 23.25 13.55 23.1 13.05 23.05 13.0 23.05 12.75 M44.15 21.0 L43.65 22.2 Q43.3 23.3 43.35 24.3 L43.65 25.6 43.75 27.3 Q43.7 29.45 43.0 30.75 L41.45 32.3 40.75 32.5 40.0 32.7 39.05 32.9 32.65 33.65 Q28.8 33.65 25.9 32.45 27.75 31.25 27.75 29.65 L31.45 31.05 32.95 31.5 38.25 31.9 40.1 31.65 42.55 30.95 42.9 28.1 32.3 28.1 25.4 25.25 26.7 21.6 Q28.4 22.1 29.1 23.55 L29.3 24.15 32.15 24.95 32.5 24.9 Q34.15 24.5 34.4 23.15 L36.85 23.55 Q38.55 24.75 40.65 24.75 L42.8 24.45 42.8 24.25 Q42.85 22.85 43.45 21.8 L44.15 21.0 M22.1 29.95 L21.05 28.9 20.5 28.2 22.1 26.35 23.55 27.4 22.1 29.95" fill="#000000" fill-opacity="0.3019608" fill-rule="evenodd" stroke="none"/>
      <path d="M23.55 14.15 L23.65 14.05 Q24.8 12.3 26.35 12.3 27.4 12.3 28.6 13.05 30.6 14.55 33.35 15.95 35.0 16.8 37.0 17.65 40.6 18.55 40.3 20.55 L39.35 20.7 36.3 20.65 35.5 20.45 34.05 20.05 31.55 19.15 31.1 19.0 28.65 18.0 27.85 17.7 27.15 17.3 25.6 16.25 25.1 15.8 24.35 15.15 24.05 14.8 23.7 14.35 23.55 14.15 M25.9 32.45 L24.5 31.75 22.7 30.5 22.1 29.95 23.55 27.4 22.1 26.35 20.5 28.2 Q19.25 26.6 18.55 25.2 L19.7 24.3 18.65 23.25 18.3 22.85 Q18.7 21.5 19.35 20.45 L25.4 25.25 32.3 28.1 42.9 28.1 42.55 30.95 40.1 31.65 38.25 31.9 32.95 31.5 31.45 31.05 27.75 29.65 Q27.75 31.25 25.9 32.45" fill="#000000" fill-opacity="0.5019608" fill-rule="evenodd" stroke="none"/>
      <path d="M21.1 18.4 Q21.65 17.55 21.4 16.25 L23.8 18.25 25.75 19.55 Q23.6 19.7 21.8 18.8 L21.1 18.4 M36.85 23.55 L40.0 23.3 40.75 23.2 42.3 22.7 43.45 21.8 Q42.85 22.85 42.8 24.25 L42.8 24.45 40.65 24.75 Q38.55 24.75 36.85 23.55" fill="#000000" fill-opacity="0.4117647" fill-rule="evenodd" stroke="none"/>
      <path d="M20.2 38.1 Q23.15 36.5 25.1 33.7 L26.85 30.6 28.4 31.25 Q26.9 32.2 25.7 34.15 L25.2 35.15 25.15 35.15 25.05 35.25 Q24.65 35.75 24.8 36.05 L25.0 36.4 24.0 36.55 Q19.75 38.0 18.1 43.7 17.15 43.7 15.75 45.5 16.25 43.45 15.8 42.8 18.5 41.0 20.2 38.1 M33.4 32.75 L35.8 33.25 35.1 35.15 35.05 35.1 Q34.75 34.5 34.25 34.5 33.7 34.5 33.2 35.05 L32.4 36.0 Q32.15 36.4 32.4 37.0 32.7 37.65 33.25 37.8 L34.4 37.55 34.2 38.35 Q33.4 38.6 32.45 39.7 31.2 41.1 29.75 44.05 31.0 39.95 30.7 38.25 30.55 37.3 29.95 37.1 L29.45 37.2 Q28.0 37.65 25.9 40.0 26.15 38.45 26.0 37.6 L28.85 36.75 Q32.2 35.4 33.4 32.75 M11.6 32.55 L12.5 32.95 11.05 32.95 11.6 32.55" fill="#6c382d" fill-rule="evenodd" stroke="none"/>
      <path d="M28.4 31.25 L26.85 30.6 25.1 33.7 Q23.15 36.5 20.2 38.1 L17.05 39.35 17.2 39.15 Q18.1 37.2 17.05 36.2 L23.85 29.1 Q22.5 28.3 21.4 27.35 L20.05 29.5 Q18.45 31.6 16.5 32.8 L12.7 33.0 12.65 32.95 12.5 32.95 11.6 32.55 Q14.0 30.8 15.45 28.25 L19.65 25.7 17.9 23.4 18.85 21.8 37.2 30.15 35.8 33.25 33.4 32.75 28.4 31.25 M15.3 31.65 Q14.8 31.85 14.5 32.35 14.45 32.9 14.95 32.8 L15.15 32.8 15.75 32.55 15.95 32.2 15.8 31.75 15.45 31.6 Q15.3 31.55 15.3 31.65" fill="#612d27" fill-rule="evenodd" stroke="none"/>
      <path d="M28.4 31.25 L33.4 32.75 Q32.2 35.4 28.85 36.75 L26.0 37.6 25.65 36.75 26.25 36.55 26.75 35.8 26.85 35.1 26.8 34.65 Q26.75 33.95 26.35 34.4 L26.2 34.55 25.7 34.8 Q25.5 34.75 25.2 35.15 L25.7 34.15 Q26.9 32.2 28.4 31.25 M17.9 23.4 L19.65 25.7 15.45 28.25 15.95 27.35 13.95 27.35 15.7 25.95 17.9 23.4 M12.7 33.0 L16.5 32.8 Q18.45 31.6 20.05 29.5 L21.4 27.35 Q22.5 28.3 23.85 29.1 L17.05 36.2 Q15.65 34.9 10.9 35.35 13.2 33.95 12.7 33.0 M17.05 39.35 L20.2 38.1 Q18.5 41.0 15.8 42.8 15.45 42.25 14.55 42.55 L17.05 39.35 M28.1 36.2 L28.15 36.15 28.75 35.7 28.85 35.1 28.35 35.1 28.0 35.5 27.8 35.85 27.8 35.95 27.8 36.15 28.1 36.2" fill="#91433c" fill-rule="evenodd" stroke="none"/>
      <path d="M35.8 33.25 L37.2 30.15 18.85 21.8 17.9 23.4 15.7 25.95 13.95 27.35 15.95 27.35 15.45 28.25 Q14.0 30.8 11.6 32.55 L11.05 32.95 12.5 32.95 12.65 32.95 12.7 33.0 Q13.2 33.95 10.9 35.35 15.65 34.9 17.05 36.2 18.1 37.2 17.2 39.15 L17.05 39.35 M15.8 42.8 Q16.25 43.45 15.75 45.5 17.15 43.7 18.1 43.7 19.75 38.0 24.0 36.55 L25.0 36.4 24.8 36.05 Q24.65 35.75 25.05 35.25 L25.15 35.15 M35.1 35.15 L35.8 33.25 M35.1 35.15 L35.1 35.2 35.05 35.1 Q34.75 34.5 34.25 34.5 33.7 34.5 33.2 35.05 L32.4 36.0 Q32.15 36.4 32.4 37.0 32.7 37.65 33.25 37.8 L34.4 37.55 34.2 38.35 Q33.4 38.6 32.45 39.7 31.2 41.1 29.75 44.05 31.0 39.95 30.7 38.25 30.55 37.3 29.95 37.1 L29.45 37.2 Q28.0 37.65 25.9 40.0 26.15 38.45 26.0 37.6 L25.65 36.75 26.25 36.55 26.75 35.8 26.85 35.1 26.8 34.65 Q26.75 33.95 26.35 34.4 L26.2 34.55 25.7 34.8 Q25.5 34.75 25.2 35.15 M28.1 36.2 L27.8 36.15 27.8 35.95 27.8 35.85 28.0 35.5 28.35 35.1 28.85 35.1 28.75 35.7 28.15 36.15 28.1 36.2 M27.8 36.15 L27.8 35.95 M15.45 31.6 L15.3 31.65 Q14.8 31.85 14.5 32.35 14.45 32.9 14.95 32.8 L15.15 32.8 15.75 32.55 15.95 32.2 15.8 31.75 15.45 31.6 Q15.3 31.55 15.3 31.65 M15.8 42.8 Q15.45 42.25 14.55 42.55 L17.05 39.35" fill="none" stroke="#000000" stroke-linecap="round" stroke-linejoin="round" stroke-opacity="0.3019608" stroke-width="0.30000000000000004"/>
      <path d="M29.5 25.05 L31.5 30.2" fill="none" stroke="#000000" stroke-linecap="round" stroke-linejoin="round" stroke-opacity="0.101960786" stroke-width="0.05"/>
      <path d="M19.55 16.25 L19.5 16.3 19.5 16.65 Q18.25 15.8 17.0 17.3 18.25 15.8 19.5 16.65 19.6 18.0 20.55 19.15 19.95 19.5 19.9 21.0 19.95 19.5 20.55 19.15 21.5 20.4 23.4 21.5 L22.7 22.25 22.65 22.2 22.7 22.2 22.25 22.1 19.9 21.0 Q17.75 19.6 17.0 17.3 L16.6 15.2 16.6 15.15 16.65 15.15 Q18.25 14.55 19.55 16.25" fill="#cab460" fill-rule="evenodd" stroke="none"/>
      <path d="M16.2 15.35 Q16.3 16.7 16.7 17.7 L16.15 18.55 16.7 17.7 Q16.95 18.45 17.35 19.0 18.65 20.75 19.95 21.55 L20.25 23.85 Q16.95 21.2 16.15 18.55 15.7 17.0 16.1 15.4 L16.2 15.35 M22.65 22.2 L22.7 22.25 20.85 24.3 20.25 23.85 19.95 21.55 Q21.3 22.4 22.65 22.2" fill="#a99545" fill-rule="evenodd" stroke="none"/>
      <path d="M19.5 16.65 L19.5 16.3 19.55 16.25 20.1 17.15 19.5 16.65 20.1 17.15 Q20.3 18.2 21.1 19.1 L20.55 19.15 21.1 19.1 Q22.0 20.2 23.7 21.15 L23.4 21.5 Q21.5 20.4 20.55 19.15 19.6 18.0 19.5 16.65 M16.6 15.15 L16.6 15.2 17.0 17.3 16.7 17.7 17.0 17.3 Q17.75 19.6 19.9 21.0 L19.95 21.55 19.9 21.0 22.25 22.1 22.7 22.2 22.65 22.2 Q21.3 22.4 19.95 21.55 18.65 20.75 17.35 19.0 16.95 18.45 16.7 17.7 16.3 16.7 16.2 15.35 L16.6 15.15" fill="#d1c872" fill-rule="evenodd" stroke="none"/>
      <path d="M16.1 15.4 Q15.7 17.0 16.15 18.55 M22.7 22.25 L23.4 21.5 23.7 21.15 Q22.0 20.2 21.1 19.1 20.3 18.2 20.1 17.15 M22.7 22.25 L20.85 24.3 20.25 23.85 Q16.95 21.2 16.15 18.55" fill="none" stroke="#000000" stroke-linecap="round" stroke-linejoin="round" stroke-opacity="0.3019608" stroke-width="0.30000000000000004"/>
      <path d="M17.0 17.3 Q18.25 15.8 19.5 16.65 L20.1 17.15 M16.7 17.7 L17.0 17.3 M19.9 21.0 Q19.95 19.5 20.55 19.15 L21.1 19.1 M16.15 18.55 L16.7 17.7 M19.95 21.55 L19.9 21.0 M19.95 21.55 L20.25 23.85" fill="none" stroke="#000000" stroke-linecap="round" stroke-linejoin="round" stroke-opacity="0.101960786" stroke-width="0.05"/>
      <path d="M5.0 22.9 L5.05 22.95 5.0 22.95 5.0 22.9 M7.05 23.95 Q6.45 23.35 5.5 23.05 7.05 22.7 8.55 23.75 L7.9 23.8 8.6 24.15 9.95 24.1 Q11.35 24.35 12.9 25.8 L13.0 25.95 Q14.05 27.2 15.05 27.35 L15.4 27.35 16.4 27.1 17.55 25.7 Q18.9 24.2 20.15 23.45 L20.35 23.35 Q20.55 23.65 19.8 24.55 19.9 23.9 20.15 23.45 19.9 23.9 19.8 24.55 L19.55 24.85 Q18.35 25.6 17.15 27.15 L16.3 28.3 Q15.9 28.75 15.4 28.85 L14.25 28.75 Q14.4 27.8 15.05 27.35 14.4 27.8 14.25 28.75 13.25 28.4 11.95 27.2 L11.5 27.0 Q12.05 25.95 13.0 25.95 12.05 25.95 11.5 27.0 9.8 26.25 8.15 26.2 L7.65 26.2 5.65 26.6 4.55 27.1 5.4 25.95 Q6.4 25.15 7.85 25.35 L7.05 23.95 7.8 23.8 7.05 23.95 M5.65 24.3 L5.85 24.8 5.75 24.8 4.7 24.55 5.65 24.3 M3.85 24.75 L3.9 24.8 3.85 24.8 3.85 24.75 M5.15 29.55 L5.1 29.5 5.15 29.55 M6.2 28.3 L6.25 28.25 6.2 28.3 M6.75 28.4 L6.0 28.8 6.55 28.35 6.75 28.4 M17.15 27.15 L17.55 25.7 17.15 27.15 M9.95 24.1 Q8.6 24.5 8.15 26.2 8.6 24.5 9.95 24.1" fill="#cab460" fill-rule="evenodd" stroke="none"/>
      <path d="M5.05 22.95 Q6.0 23.4 6.75 24.15 L6.85 24.25 7.5 25.05 6.45 25.0 Q5.8 25.2 5.3 25.55 L3.9 24.8 5.75 24.8 5.85 24.8 5.65 24.3 5.5 24.05 5.95 23.95 6.3 24.55 6.45 25.0 6.3 24.55 5.95 23.95 5.05 22.95 M4.7 27.5 L5.75 26.85 7.1 26.5 7.55 26.45 7.65 26.45 8.15 26.4 8.0 27.5 8.0 27.95 7.0 28.0 6.9 28.0 6.35 28.2 6.25 28.25 6.25 28.2 6.2 28.2 4.7 27.5 M19.75 25.05 L20.0 24.9 Q21.25 23.5 20.8 22.8 L21.75 22.6 Q22.6 23.6 22.15 25.75 21.05 26.3 20.0 27.8 L19.55 28.45 17.65 30.4 Q16.6 31.2 15.4 31.05 L14.45 30.85 12.9 29.85 Q12.15 28.95 10.95 28.5 L9.2 28.05 8.45 28.7 6.9 29.45 6.7 29.5 6.4 29.55 5.15 29.55 7.35 28.55 6.75 28.4 6.55 28.35 6.25 28.25 6.35 28.2 6.9 28.0 7.0 28.0 8.0 27.95 8.0 27.5 8.15 26.4 Q9.8 26.4 11.35 27.25 L12.5 27.95 Q13.4 28.8 14.25 29.1 L15.4 29.15 Q16.2 29.0 16.9 28.2 L17.15 27.8 Q18.4 25.9 19.75 25.05 19.7 26.2 20.0 27.8 19.7 26.2 19.75 25.05 M17.65 30.4 Q17.15 29.05 17.15 27.8 17.15 29.05 17.65 30.4 M14.45 30.85 Q14.2 29.85 14.25 29.1 14.2 29.85 14.45 30.85 M6.3 24.55 L6.75 24.15 6.3 24.55 M9.2 28.05 L8.2 27.95 8.0 27.95 8.2 27.95 9.2 28.05 M10.95 28.5 L11.35 27.25 10.95 28.5" fill="#a99545" fill-rule="evenodd" stroke="none"/>
      <path d="M5.05 22.95 L5.0 22.9 6.3 22.7 Q7.65 22.65 8.7 23.5 L9.0 23.75 8.6 23.75 8.55 23.75 8.6 23.75 9.0 23.75 10.7 23.95 Q12.15 24.4 13.1 25.6 L13.45 26.0 Q14.45 27.15 15.4 27.1 L15.5 27.1 Q16.3 26.95 17.0 26.0 L18.1 24.6 17.55 25.7 18.1 24.6 Q19.3 23.3 20.65 22.85 L20.8 22.8 Q21.25 23.5 20.0 24.9 L19.75 25.05 19.8 24.55 19.75 25.05 Q18.4 25.9 17.15 27.8 L17.15 27.15 17.15 27.8 16.9 28.2 Q16.2 29.0 15.4 29.15 L14.25 29.1 14.25 28.75 14.25 29.1 Q13.4 28.8 12.5 27.95 L11.35 27.25 11.5 27.0 11.35 27.25 Q9.8 26.4 8.15 26.4 L7.65 26.45 7.55 26.45 7.1 26.5 5.75 26.85 4.7 27.5 3.95 27.15 Q4.5 26.15 5.25 25.6 L5.3 25.55 Q5.8 25.2 6.45 25.0 L7.5 25.05 6.85 24.25 6.75 24.15 Q6.0 23.4 5.05 22.95 M7.05 23.95 Q6.95 24.05 6.8 24.1 L6.75 24.15 6.8 24.1 Q6.95 24.05 7.05 23.95 L7.85 25.35 Q6.4 25.15 5.4 25.95 L4.55 27.1 5.65 26.6 7.65 26.2 8.15 26.2 8.15 26.4 8.15 26.2 Q9.8 26.25 11.5 27.0 L11.95 27.2 Q13.25 28.4 14.25 28.75 L15.4 28.85 Q15.9 28.75 16.3 28.3 L17.15 27.15 Q18.35 25.6 19.55 24.85 L19.8 24.55 Q20.55 23.65 20.35 23.35 L20.15 23.45 20.65 22.85 20.15 23.45 Q18.9 24.2 17.55 25.7 L16.4 27.1 15.4 27.35 15.05 27.35 Q15.2 27.2 15.4 27.15 L15.5 27.1 15.4 27.15 Q15.2 27.2 15.05 27.35 14.05 27.2 13.0 25.95 L13.45 26.0 13.0 25.95 12.9 25.8 Q11.35 24.35 9.95 24.1 L8.6 24.15 7.9 23.8 8.55 23.75 Q7.05 22.7 5.5 23.05 6.45 23.35 7.05 23.95 M5.5 24.05 L5.65 24.3 4.7 24.55 5.75 24.8 3.9 24.8 3.85 24.75 4.65 24.3 4.8 24.25 5.5 24.05 M5.15 29.55 L5.1 29.5 6.2 28.3 6.25 28.25 6.55 28.35 6.0 28.8 6.75 28.4 7.35 28.55 5.15 29.55 M9.95 24.1 L10.7 23.95 9.95 24.1" fill="#d1c872" fill-rule="evenodd" stroke="none"/>
      <path d="M5.0 22.9 L5.0 22.95 5.05 22.95 5.95 23.95 5.5 24.05 4.8 24.25 4.65 24.3 3.85 24.75 M8.55 23.75 L8.6 23.75 9.0 23.75 8.7 23.5 Q7.65 22.65 6.3 22.7 L5.0 22.9 M3.9 24.8 L5.3 25.55 Q5.8 25.2 6.45 25.0 L6.3 24.55 5.95 23.95 M3.9 24.8 L3.85 24.8 3.85 24.75 M5.3 25.55 L5.25 25.6 Q4.5 26.15 3.95 27.15 L4.7 27.5 M5.1 29.5 L5.15 29.55 M5.1 29.5 L6.2 28.3 6.25 28.25 6.25 28.2 6.2 28.2 4.7 27.5 M20.8 22.8 L20.65 22.85 Q19.3 23.3 18.1 24.6 L17.0 26.0 Q16.3 26.95 15.5 27.1 L15.4 27.1 Q14.45 27.15 13.45 26.0 L13.1 25.6 Q12.15 24.4 10.7 23.95 L9.0 23.75 M20.8 22.8 L21.75 22.6 Q22.6 23.6 22.15 25.75 21.05 26.3 20.0 27.8 L19.55 28.45 17.65 30.4 Q16.6 31.2 15.4 31.05 L14.45 30.85 12.9 29.85 Q12.15 28.95 10.95 28.5 L9.2 28.05 8.45 28.7 6.9 29.45 6.7 29.5 6.4 29.55 5.15 29.55 M7.9 23.8 L8.55 23.75 M8.0 27.95 L8.2 27.95 9.2 28.05" fill="none" stroke="#000000" stroke-linecap="round" stroke-linejoin="round" stroke-opacity="0.3019608" stroke-width="0.30000000000000004"/>
      <path d="M6.75 24.15 L6.8 24.1 Q6.95 24.05 7.05 23.95 L7.8 23.8 M8.15 26.4 L8.15 26.2 Q8.6 24.5 9.95 24.1 M20.65 22.85 L20.15 23.45 Q19.9 23.9 19.8 24.55 L19.75 25.05 Q19.7 26.2 20.0 27.8 M6.25 28.25 L6.2 28.3 M18.1 24.6 L17.55 25.7 17.15 27.15 17.15 27.8 Q17.15 29.05 17.65 30.4 M14.25 28.75 L14.25 29.1 Q14.2 29.85 14.45 30.85 M15.5 27.1 L15.4 27.15 Q15.2 27.2 15.05 27.35 14.4 27.8 14.25 28.75 M13.45 26.0 L13.0 25.95 Q12.05 25.95 11.5 27.0 L11.35 27.25 10.95 28.5 M10.7 23.95 L9.95 24.1 M6.75 24.15 L6.3 24.55 M8.0 27.95 L7.0 28.0 6.9 28.0 6.35 28.2 6.25 28.25 M8.15 26.4 L8.0 27.5 8.0 27.95" fill="none" stroke="#000000" stroke-linecap="round" stroke-linejoin="round" stroke-opacity="0.101960786" stroke-width="0.05"/>
      <path d="M25.75 22.05 L25.35 22.1 Q23.75 22.25 23.0 24.05 L21.95 24.75 Q21.45 23.75 21.45 22.7 21.45 23.75 21.95 24.75 21.25 24.9 20.9 24.05 20.75 23.75 21.45 22.7 L22.15 21.8 Q23.5 20.6 25.05 20.85 L25.85 21.1 Q27.0 21.8 25.75 22.05 L25.05 20.85 25.75 22.05" fill="#cab460" fill-rule="evenodd" stroke="none"/>
      <path d="M22.15 25.15 Q23.25 24.65 23.5 23.9 24.7 22.2 25.85 22.35 26.25 23.5 26.3 25.2 25.3 27.1 23.8 27.15 L22.15 25.15 23.8 27.15 Q25.3 27.1 26.3 25.2 26.25 23.5 25.85 22.35 L26.15 22.35 Q26.85 22.15 26.95 21.6 L27.8 22.85 Q28.5 24.6 27.25 27.0 24.95 29.85 21.95 27.35 20.35 25.95 20.5 24.1 21.15 25.6 22.05 25.2 L22.15 25.15" fill="#a99545" fill-rule="evenodd" stroke="none"/>
      <path d="M21.95 24.75 L23.0 24.05 Q23.75 22.25 25.35 22.1 L25.75 22.05 25.85 22.35 25.75 22.05 Q27.0 21.8 25.85 21.1 L25.05 20.85 Q23.5 20.6 22.15 21.8 L21.45 22.7 Q20.75 23.75 20.9 24.05 21.25 24.9 21.95 24.75 L22.15 25.15 21.95 24.75 M25.85 22.35 Q24.7 22.2 23.5 23.9 23.25 24.65 22.15 25.15 L22.05 25.2 Q21.15 25.6 20.5 24.1 L20.6 23.55 21.55 21.9 21.45 22.7 21.55 21.9 Q22.6 20.5 23.9 20.4 L24.5 20.4 Q25.9 20.45 26.95 21.6 26.85 22.15 26.15 22.35 L25.85 22.35 M25.05 20.85 L24.5 20.4 25.05 20.85" fill="#d1c872" fill-rule="evenodd" stroke="none"/>
      <path d="M21.55 21.9 L20.6 23.55 20.5 24.1 Q20.35 25.95 21.95 27.35 24.95 29.85 27.25 27.0 28.5 24.6 27.8 22.85 L26.95 21.6 Q25.9 20.45 24.5 20.4 M21.55 21.9 Q22.6 20.5 23.9 20.4 L24.5 20.4" fill="none" stroke="#000000" stroke-linecap="round" stroke-linejoin="round" stroke-opacity="0.3019608" stroke-width="0.30000000000000004"/>
      <path d="M21.95 24.75 L22.15 25.15 23.8 27.15 Q25.3 27.1 26.3 25.2 26.25 23.5 25.85 22.35 L25.75 22.05 25.05 20.85 M21.45 22.7 Q21.45 23.75 21.95 24.75 M21.45 22.7 L21.55 21.9 M24.5 20.4 L25.05 20.85" fill="none" stroke="#000000" stroke-linecap="round" stroke-linejoin="round" stroke-opacity="0.101960786" stroke-width="0.05"/>
      <path d="M28.45 24.6 L29.3 25.0 Q31.9 26.1 34.75 26.5 37.5 26.85 40.45 26.5 L41.25 26.4 41.35 26.45 Q43.1 26.35 43.1 27.0 L43.1 27.25 41.85 26.65 41.35 26.45 41.85 26.65 43.1 27.25 Q42.8 28.3 39.6 28.8 L35.9 28.85 Q31.9 28.7 29.65 27.75 28.5 27.3 27.8 26.6 26.5 24.8 28.45 24.6 M29.3 25.0 Q28.55 26.0 29.65 27.75 28.55 26.0 29.3 25.0 M34.75 26.5 Q34.85 27.6 35.9 28.85 34.85 27.6 34.75 26.5" fill="#cab460" fill-rule="evenodd" stroke="none"/>
      <path d="M41.95 26.1 L42.25 26.0 Q43.3 25.5 43.7 24.7 L43.75 24.7 43.8 24.7 Q44.95 23.4 46.7 24.0 47.5 24.35 47.55 26.0 46.7 28.5 44.65 29.8 45.0 28.55 43.5 27.5 45.0 28.55 44.65 29.8 42.7 31.0 39.7 31.1 L38.4 31.15 36.2 29.2 38.4 31.15 31.8 30.3 Q29.15 29.6 26.7 28.35 L25.9 27.9 25.5 25.5 Q25.25 23.85 26.7 23.85 L27.15 23.9 28.3 24.5 Q26.4 24.45 27.25 26.4 28.3 27.5 29.9 28.1 32.45 29.1 36.2 29.2 L39.8 29.1 40.5 29.0 Q43.25 28.65 43.5 27.5 L43.45 26.8 Q43.25 26.25 42.15 26.15 L41.95 26.1 M31.8 30.3 L29.9 28.1 31.8 30.3" fill="#a99545" fill-rule="evenodd" stroke="none"/>
      <path d="M41.95 26.1 L42.15 26.15 Q43.25 26.25 43.45 26.8 L43.5 27.5 43.1 27.25 43.5 27.5 Q43.25 28.65 40.5 29.0 L39.8 29.1 36.2 29.2 35.9 28.85 36.2 29.2 Q32.45 29.1 29.9 28.1 28.3 27.5 27.25 26.4 26.4 24.45 28.3 24.5 L28.45 24.6 Q26.5 24.8 27.8 26.6 28.5 27.3 29.65 27.75 L29.9 28.1 29.65 27.75 Q31.9 28.7 35.9 28.85 L39.6 28.8 Q42.8 28.3 43.1 27.25 L43.1 27.0 Q43.1 26.35 41.35 26.45 L41.25 26.4 41.95 26.1" fill="#d1c872" fill-rule="evenodd" stroke="none"/>
      <path d="M43.7 24.7 Q43.3 25.5 42.25 26.0 L41.95 26.1 M44.65 29.8 Q46.7 28.5 47.55 26.0 M28.45 24.6 L29.3 25.0 Q31.9 26.1 34.75 26.5 37.5 26.85 40.45 26.5 L41.25 26.4 41.95 26.1 M38.4 31.15 L39.7 31.1 Q42.7 31.0 44.65 29.8 M31.8 30.3 L38.4 31.15 M28.3 24.5 L28.45 24.6 M31.8 30.3 Q29.15 29.6 26.7 28.35 L25.9 27.9 25.5 25.5 Q25.25 23.85 26.7 23.85 L27.15 23.9 28.3 24.5" fill="none" stroke="#000000" stroke-linecap="round" stroke-linejoin="round" stroke-opacity="0.3019608" stroke-width="0.30000000000000004"/>
      <path d="M43.5 27.5 Q45.0 28.55 44.65 29.8 M47.55 26.0 Q47.5 24.35 46.7 24.0 44.95 23.4 43.8 24.7 L43.75 24.7 43.7 24.7 M41.25 26.4 L41.35 26.45 41.85 26.65 43.1 27.25 43.5 27.5 M36.2 29.2 L38.4 31.15 M35.9 28.85 L36.2 29.2 M29.9 28.1 L31.8 30.3 M29.65 27.75 Q28.55 26.0 29.3 25.0 M29.9 28.1 L29.65 27.75 M35.9 28.85 Q34.85 27.6 34.75 26.5" fill="none" stroke="#000000" stroke-linecap="round" stroke-linejoin="round" stroke-opacity="0.101960786" stroke-width="0.05"/>
      <path d="M6.65 35.85 L6.6 35.85 6.65 35.85 M24.15 25.6 Q24.55 25.25 25.05 25.0 25.35 25.1 25.0 26.4 24.75 25.75 24.15 25.6 24.75 25.75 25.0 26.4 L24.85 26.75 22.9 30.4 Q23.05 29.0 22.35 28.45 23.05 29.0 22.9 30.4 L21.45 32.2 18.95 33.85 Q16.95 34.85 14.6 35.25 L14.35 35.3 14.45 35.15 Q15.9 33.8 15.85 32.85 15.9 33.8 14.45 35.15 L14.35 35.3 13.7 35.35 Q12.2 34.9 11.6 34.3 L11.5 34.05 Q11.05 33.15 11.6 32.85 L11.95 32.9 13.2 33.0 12.55 33.45 11.5 34.05 12.55 33.45 13.2 33.0 15.85 32.85 19.4 31.8 19.75 31.5 Q19.8 32.6 18.95 33.85 19.8 32.6 19.75 31.5 L22.35 28.45 23.35 26.85 24.15 25.6 M10.95 32.25 L10.8 31.95 10.4 30.9 10.35 30.4 11.7 32.45 11.65 32.45 11.45 32.35 11.25 32.3 11.0 32.25 10.95 32.25 M11.3 34.4 L11.3 34.35 11.3 34.4 M9.05 36.55 L9.5 36.9 8.9 37.5 9.05 36.55 M9.85 37.1 L9.9 37.15 9.9 37.1 9.85 37.1 M9.8 33.1 L9.8 33.05 9.8 33.1 9.3 33.55 9.8 33.1 M10.35 33.8 L8.65 35.2 Q7.9 35.65 7.45 35.55 L9.45 33.65 9.3 33.55 Q8.1 33.0 8.0 32.5 L9.65 32.6 9.8 33.05 10.3 33.6 10.35 33.7 10.35 33.8" fill="#cab460" fill-rule="evenodd" stroke="none"/>
      <path d="M25.2 24.55 L26.05 24.6 Q27.15 25.95 24.95 30.3 L24.7 30.7 Q22.95 33.55 21.15 35.1 19.65 36.3 18.15 36.6 L16.55 36.9 15.95 37.0 11.85 37.2 10.95 37.2 10.0 37.75 9.8 37.85 9.15 38.0 8.65 38.0 9.9 37.1 9.9 37.15 9.85 37.1 9.5 36.9 9.05 36.55 9.0 36.45 9.55 36.5 9.0 36.45 8.8 36.45 8.15 36.45 Q7.35 36.35 6.65 35.85 L8.1 36.0 8.45 35.8 Q9.8 35.0 10.15 34.3 L10.35 33.8 10.35 33.7 10.3 33.6 9.8 33.05 9.65 32.6 9.65 32.4 9.6 32.25 Q9.5 31.75 9.7 30.9 L9.9 30.2 10.05 29.9 10.1 30.45 10.25 31.25 10.4 31.55 10.8 32.2 10.95 32.25 11.0 32.25 11.25 32.3 11.45 32.35 11.65 32.45 11.45 32.45 Q10.85 32.7 10.95 33.55 L11.05 33.7 11.25 34.15 11.3 34.4 11.3 34.35 Q11.75 35.05 13.55 35.7 L13.7 35.7 13.9 35.7 15.0 35.6 18.3 34.7 Q20.5 33.7 22.35 31.8 L22.6 31.5 Q24.2 29.3 25.15 27.1 L25.55 25.85 Q25.6 24.75 25.2 24.55 M8.25 34.55 L7.7 33.8 7.2 32.25 7.35 32.2 Q7.75 32.95 8.35 33.3 8.7 33.6 9.2 33.7 L8.95 33.9 8.25 34.55 M24.7 30.7 Q25.25 28.4 25.15 27.1 25.25 28.4 24.7 30.7 M21.15 35.1 L22.6 31.5 21.15 35.1 M15.95 37.0 L16.3 36.7 18.3 34.7 16.3 36.7 15.95 37.0 M11.85 37.2 L13.8 35.75 13.9 35.7 13.8 35.75 11.85 37.2 M9.75 35.9 L10.4 35.8 11.0 35.5 11.45 35.1 11.3 34.4 11.45 35.1 11.0 35.5 10.4 35.8 9.75 35.9 9.55 36.5 9.75 35.9 M10.95 37.2 L9.9 37.15 10.95 37.2 M10.95 33.55 L10.75 33.05 10.95 33.55" fill="#a99545" fill-rule="evenodd" stroke="none"/>
      <path d="M8.65 38.0 L8.6 38.0 Q8.5 37.35 8.8 36.45 L9.0 36.45 9.05 36.55 8.9 37.5 9.5 36.9 9.85 37.1 9.9 37.1 8.65 38.0 M6.65 35.85 L8.25 34.55 8.95 33.9 9.2 33.7 9.3 33.55 9.2 33.7 Q8.7 33.6 8.35 33.3 7.75 32.95 7.35 32.2 8.2 32.0 8.95 32.2 L9.55 32.3 9.65 32.4 9.65 32.6 8.0 32.5 Q8.1 33.0 9.3 33.55 L9.45 33.65 7.45 35.55 Q7.9 35.65 8.65 35.2 L10.35 33.8 10.15 34.3 Q9.8 35.0 8.45 35.8 L8.1 36.0 6.65 35.85 M10.05 29.9 L10.05 29.85 10.65 30.35 11.15 31.05 11.6 31.75 12.0 32.5 13.4 32.6 15.8 32.45 19.25 31.4 19.7 31.05 22.15 28.3 23.4 25.8 23.65 25.65 Q24.45 24.7 25.2 24.55 25.6 24.75 25.55 25.85 L25.15 27.1 25.0 26.4 25.15 27.1 Q24.2 29.3 22.6 31.5 L22.9 30.4 22.6 31.5 22.35 31.8 Q20.5 33.7 18.3 34.7 L18.95 33.85 18.3 34.7 15.0 35.6 13.9 35.7 13.7 35.7 13.55 35.7 Q11.75 35.05 11.3 34.35 L11.3 34.4 11.25 34.15 11.5 34.05 11.25 34.15 11.05 33.7 10.95 33.55 Q10.85 32.7 11.45 32.45 L11.65 32.45 11.7 32.45 10.35 30.4 10.4 30.9 10.8 31.95 10.95 32.25 10.8 32.2 10.4 31.55 10.25 31.25 10.1 30.45 10.05 29.9 M25.0 26.4 Q25.35 25.1 25.05 25.0 24.55 25.25 24.15 25.6 L23.65 25.65 24.15 25.6 23.35 26.85 22.35 28.45 22.15 28.3 22.35 28.45 19.75 31.5 19.4 31.8 15.85 32.85 13.2 33.0 13.4 32.6 13.2 33.0 11.95 32.9 11.6 32.85 Q11.05 33.15 11.5 34.05 L11.6 34.3 Q12.2 34.9 13.7 35.35 L14.35 35.3 13.9 35.7 14.35 35.3 14.6 35.25 Q16.95 34.85 18.95 33.85 L21.45 32.2 22.9 30.4 24.85 26.75 25.0 26.4 M19.7 31.05 L19.75 31.5 19.7 31.05 M12.0 32.5 L11.7 32.45 12.0 32.5 M15.8 32.45 L15.85 32.85 15.8 32.45" fill="#d1c872" fill-rule="evenodd" stroke="none"/>
      <path d="M25.2 24.55 L26.05 24.6 Q27.15 25.95 24.95 30.3 L24.7 30.7 Q22.95 33.55 21.15 35.1 19.65 36.3 18.15 36.6 L16.55 36.9 15.95 37.0 11.85 37.2 10.95 37.2 10.0 37.75 9.8 37.85 9.15 38.0 8.65 38.0 8.6 38.0 Q8.5 37.35 8.8 36.45 L8.15 36.45 Q7.35 36.35 6.65 35.85 L6.6 35.85 6.65 35.85 8.25 34.55 7.7 33.8 7.2 32.25 7.35 32.2 Q8.2 32.0 8.95 32.2 L9.55 32.3 9.65 32.4 9.6 32.25 Q9.5 31.75 9.7 30.9 L9.9 30.2 10.05 29.9 10.05 29.85 10.65 30.35 11.15 31.05 11.6 31.75 12.0 32.5 13.4 32.6 15.8 32.45 19.25 31.4 19.7 31.05 22.15 28.3 23.4 25.8 23.65 25.65 Q24.45 24.7 25.2 24.55 M10.95 32.25 L11.0 32.25 11.25 32.3 11.45 32.35 11.65 32.45 11.7 32.45 12.0 32.5 M11.25 34.15 L11.3 34.4 11.45 35.1 11.0 35.5 10.4 35.8 9.75 35.9 M9.55 36.5 L9.0 36.45 M9.85 37.1 L9.9 37.15 10.95 37.2 M9.8 33.05 L9.8 33.1 M9.8 33.05 L9.65 32.6 M8.95 33.9 L8.25 34.55 M9.65 32.4 L9.65 32.6 M10.95 33.55 L11.05 33.7 11.25 34.15 M10.75 33.05 L10.95 33.55 M8.8 36.45 L9.0 36.45" fill="none" stroke="#000000" stroke-linecap="round" stroke-linejoin="round" stroke-opacity="0.3019608" stroke-width="0.30000000000000004"/>
      <path d="M25.15 27.1 Q25.25 28.4 24.7 30.7 M25.0 26.4 L25.15 27.1 M22.6 31.5 L21.15 35.1 M23.65 25.65 L24.15 25.6 Q24.75 25.75 25.0 26.4 M22.9 30.4 L22.6 31.5 M18.3 34.7 L16.3 36.7 15.95 37.0 M15.85 32.85 Q15.9 33.8 14.45 35.15 L14.35 35.3 M18.95 33.85 Q19.8 32.6 19.75 31.5 L19.7 31.05 M22.35 28.45 L22.15 28.3 M22.35 28.45 Q23.05 29.0 22.9 30.4 M18.95 33.85 L18.3 34.7 M13.9 35.7 L13.8 35.75 11.85 37.2 M13.4 32.6 L13.2 33.0 M15.85 32.85 L15.8 32.45 M11.5 34.05 L12.55 33.45 13.2 33.0 M11.5 34.05 L11.25 34.15 M13.9 35.7 L14.35 35.3 M9.75 35.9 L9.55 36.5 M9.0 36.45 L9.05 36.55 9.5 36.9 9.85 37.1 M9.8 33.1 L9.3 33.55 9.2 33.7 8.95 33.9" fill="none" stroke="#000000" stroke-linecap="round" stroke-linejoin="round" stroke-opacity="0.101960786" stroke-width="0.05"/>
    </g>
    <g id="sprite0" transform="matrix(1.0, 0.0, 0.0, 1.0, 73.5, 65.0)">
      <use height="136.85" transform="matrix(1.0, 0.0, 0.0, 1.0, -73.5, -65.0)" width="148.25" xlink:href="#shape1"/>
    </g>
    <g id="shape1" transform="matrix(1.0, 0.0, 0.0, 1.0, 73.5, 65.0)">
      <path d="M36.65 -54.65 Q60.05 -42.0 69.75 -17.95 80.55 8.9 68.0 34.1 55.45 59.35 26.8 68.2 -1.8 77.05 -29.7 64.3 -57.6 51.6 -68.45 24.75 -79.3 -2.05 -66.75 -27.25 L-66.7 -27.3 Q-54.1 -52.5 -25.5 -61.4 3.1 -70.2 31.0 -57.5 L36.65 -54.65" fill="url(#gradient0)" fill-rule="evenodd" stroke="none"/>
    </g>
    <radialGradient cx="0" cy="0" gradientTransform="matrix(0.0914, 0.0, 0.0, 0.0914, 0.6, 3.4)" gradientUnits="userSpaceOnUse" id="gradient0" r="819.2" spreadMethod="pad">
      <stop offset="0.0" stop-color="#ffffff"/>
      <stop offset="1.0" stop-color="#ffffff" stop-opacity="0.0"/>
    </radialGradient>
  </defs>
</svg>
