<?xml version="1.0" encoding="UTF-8" standalone="no"?>
<svg xmlns:xlink="http://www.w3.org/1999/xlink" height="520.0px" width="520.0px" xmlns="http://www.w3.org/2000/svg">
  <g transform="matrix(10.0, 0.0, 0.0, 10.0, 0.0, 0.0)">
    <use height="52.0" transform="matrix(1.0, 0.0, 0.0, 1.0, 0.0, 0.0)" width="52.0" xlink:href="#shape0"/>
    <use height="136.85" transform="matrix(0.0546, 0.0016, -0.0025, 0.0848, 9.102, 28.0166)" width="148.25" xlink:href="#sprite0"/>
    <use height="136.85" transform="matrix(-0.0185, 0.0514, 0.0798, 0.0288, 34.2732, 12.1024)" width="148.25" xlink:href="#sprite0"/>
    <use height="136.85" transform="matrix(0.0458, 0.0542, 0.104, -0.0878, 14.8731, 26.7702)" width="148.25" xlink:href="#sprite0"/>
    <use height="136.85" transform="matrix(0.0282, 0.0431, 0.1008, -0.0658, 8.7256, 16.2562)" width="148.25" xlink:href="#sprite0"/>
  </g>
  <defs>
    <g id="shape0" transform="matrix(1.0, 0.0, 0.0, 1.0, 0.0, 0.0)">
      <path d="M52.0 0.0 L52.0 52.0 0.0 52.0 0.0 0.0 52.0 0.0" fill="#795fa9" fill-opacity="0.0" fill-rule="evenodd" stroke="none"/>
      <path d="M38.25 13.65 Q43.25 15.5 46.65 20.0 L47.1 20.65 48.2 22.45 Q49.05 26.65 47.45 29.45 L46.7 30.5 Q45.85 30.65 44.75 29.1 L44.1 28.05 43.55 27.1 42.9 27.9 42.1 28.45 42.05 28.45 Q41.8 28.35 42.0 27.3 L42.2 26.45 42.7 25.3 Q42.85 25.05 43.05 25.15 44.05 26.7 45.2 27.6 45.9 28.2 46.7 28.5 46.6 26.7 45.9 25.1 L45.1 24.1 Q40.8 21.05 36.5 22.95 34.75 24.35 32.6 26.65 31.0 28.4 29.15 31.3 L28.8 31.25 28.6 31.2 26.2 31.4 Q16.8 32.65 13.4 42.6 L16.75 45.8 16.5 46.05 Q15.3 47.05 13.45 46.8 L12.9 46.7 11.45 46.25 Q10.85 45.9 11.45 45.5 L13.5 45.65 13.95 45.35 13.5 45.1 Q10.8 43.2 10.1 42.2 L9.8 40.5 8.65 34.0 8.4 32.05 8.2 30.15 7.85 30.3 7.6 30.3 7.2 29.55 7.45 28.6 7.15 28.45 6.05 27.65 5.3 27.1 Q3.7 26.45 5.35 22.05 5.95 20.55 6.8 19.2 8.45 16.55 11.2 14.35 13.15 12.7 15.15 11.6 17.3 10.25 19.6 9.5 L21.0 9.0 23.85 8.1 25.3 7.65 26.35 7.35 28.3 6.8 28.8 6.65 31.45 6.2 Q33.85 6.0 34.05 7.7 34.2 9.0 34.8 10.5 L35.4 11.75 37.0 12.35 37.45 12.6 Q38.1 13.0 38.25 13.65 M20.05 18.5 L18.95 19.15 Q15.95 21.1 14.8 23.7 L19.15 22.35 Q19.35 20.6 20.25 19.3 L20.05 18.5 M23.3 20.5 L21.7 21.3 22.5 20.35 Q23.25 19.7 24.25 19.7 L23.3 20.5 M28.4 14.95 L26.1 17.75 25.3 17.45 22.5 17.65 22.1 17.35 Q23.8 16.45 25.5 15.85 L27.65 15.15 28.4 14.95" fill="none" stroke="#000000" stroke-linecap="round" stroke-linejoin="round" stroke-opacity="0.3019608" stroke-width="1.0"/>
      <path d="M43.6 20.05 Q42.2 19.05 40.75 18.3 L38.75 16.95 Q37.05 14.8 38.6 14.4 41.55 14.9 46.65 20.0 L47.1 20.65 48.2 22.45 46.6 22.4 45.7 21.75 43.6 20.05 M42.1 28.45 L42.05 28.45 Q41.8 28.3 42.0 27.3 L42.2 26.45 42.7 25.3 43.0 26.15 42.1 28.45 M31.9 8.1 L31.8 8.05 28.7 7.95 27.1 8.35 25.9 8.65 24.1 9.25 21.0 10.25 18.05 11.3 Q16.35 11.95 15.1 12.95 L14.55 13.4 Q8.75 18.9 7.05 22.2 6.15 23.9 6.4 24.95 L7.3 24.9 11.9 24.3 14.25 23.85 14.05 24.7 14.2 25.05 9.55 25.9 7.45 26.2 6.05 26.35 5.55 26.35 5.3 26.4 6.05 27.65 5.3 27.1 Q3.7 26.4 5.35 22.0 L6.8 19.15 Q8.45 16.55 11.2 14.3 L15.15 11.55 Q17.3 10.25 19.6 9.45 L21.0 9.0 23.85 8.05 25.3 7.6 26.35 7.3 28.3 6.8 28.8 6.6 31.45 6.15 Q33.85 6.0 34.05 7.7 34.2 9.0 34.8 10.5 L33.55 8.45 33.3 8.1 33.0 8.95 32.35 10.4 31.65 11.75 30.75 13.4 30.65 13.5 30.25 14.15 29.2 13.75 30.0 12.35 30.15 12.05 31.85 8.2 31.9 8.1 M7.45 28.6 L7.7 28.8 8.4 29.1 7.6 30.25 Q7.3 30.1 7.2 29.55 L7.45 28.6 M14.45 35.55 L13.9 37.55 13.9 37.65 Q13.1 40.0 11.85 41.95 L11.0 42.15 10.8 42.05 Q10.2 41.75 9.8 40.5 L8.65 33.95 8.65 32.3 Q8.7 30.35 9.4 30.05 12.05 28.85 14.15 31.85 L14.35 32.15 14.45 35.55 M13.95 45.35 L15.15 45.85 13.5 46.3 11.45 46.25 Q10.85 45.85 11.45 45.5 L13.5 45.65 Q13.7 45.45 13.95 45.35" fill="#556a6f" fill-rule="evenodd" stroke="none"/>
      <path d="M37.95 13.75 L38.25 13.65 Q43.25 15.45 46.65 20.0 41.55 14.9 38.6 14.4 37.05 14.8 38.75 16.95 L40.75 18.3 39.7 17.8 39.0 17.6 Q37.95 17.2 37.45 16.25 L37.2 15.45 Q37.05 14.9 37.25 14.5 37.45 14.0 37.95 13.75 M33.2 9.85 L31.95 12.35 31.05 13.8 30.85 14.05 30.55 14.5 30.4 14.3 30.25 14.15 30.65 13.5 30.75 13.4 31.65 11.75 32.35 10.4 33.0 8.95 33.3 8.1 33.55 8.45 33.2 9.85 M6.4 24.95 Q6.15 23.9 7.05 22.2 8.75 18.9 14.55 13.4 L15.1 12.95 Q16.35 11.95 18.05 11.3 L21.0 10.25 24.1 9.25 25.9 8.65 27.1 8.35 28.7 7.95 31.8 8.05 31.9 8.1 31.85 8.15 28.9 8.45 27.45 8.75 26.15 9.1 25.6 9.25 24.2 9.65 21.0 10.75 Q18.65 11.65 16.05 12.9 L15.05 13.75 Q11.3 17.0 9.0 20.35 7.95 21.8 7.2 23.35 L6.4 24.95 M6.05 26.35 L7.45 26.2 9.55 25.9 14.2 25.05 14.3 25.25 7.45 26.4 6.05 26.35 M8.2 30.1 Q9.1 28.75 11.1 28.9 13.15 29.3 14.2 30.75 14.75 31.55 15.0 32.65 L14.45 35.55 14.35 32.15 14.15 31.85 Q12.05 28.85 9.4 30.05 8.7 30.35 8.65 32.3 L8.65 33.95 8.4 32.0 8.2 30.1" fill="#829a9f" fill-rule="evenodd" stroke="none"/>
      <path d="M6.4 24.95 L7.2 23.35 Q7.95 21.8 9.0 20.35 9.8 22.9 11.9 24.3 L7.3 24.9 6.4 24.95 M25.6 9.25 L26.15 9.1 27.45 8.75 28.9 8.45 31.85 8.15 31.9 8.1 31.85 8.2 30.15 12.05 30.0 12.35 29.2 13.75 28.9 14.2 28.4 14.9 27.65 15.1 Q27.25 10.95 25.6 9.25" fill="#161c1d" fill-rule="evenodd" stroke="none"/>
      <path d="M35.8 12.5 Q36.5 12.35 37.35 13.15 L37.95 13.75 Q37.45 14.0 37.25 14.5 37.05 14.9 37.2 15.45 L37.45 16.25 Q37.95 17.2 39.0 17.6 L39.7 17.8 40.75 18.3 Q42.2 19.05 43.6 20.05 45.05 21.3 46.35 23.5 L47.0 24.85 47.05 25.1 Q47.75 27.25 47.45 29.45 L46.7 30.5 Q45.85 30.65 44.75 29.1 L44.1 28.05 44.85 28.85 Q45.95 29.95 46.25 29.7 46.95 29.7 46.7 28.5 46.6 26.7 45.9 25.1 L45.1 24.1 Q40.8 21.0 36.5 22.95 34.75 24.35 32.6 26.65 33.0 25.35 32.9 23.35 L32.9 23.25 Q33.5 22.2 33.45 21.45 L33.4 20.65 Q33.5 18.6 33.25 16.8 32.9 14.3 31.95 12.35 L33.2 9.85 Q34.05 13.65 35.9 16.65 L36.3 15.35 Q36.5 14.15 36.1 12.95 L35.8 12.5 M43.55 27.05 L42.9 27.9 42.1 28.45 43.0 26.15 43.55 27.05 M9.0 20.35 Q11.3 17.0 15.05 13.75 L16.05 12.9 Q18.65 11.65 21.0 10.75 L24.2 9.65 25.6 9.25 Q27.25 10.95 27.65 15.1 L25.5 15.85 Q23.25 16.65 20.95 17.95 L18.95 19.15 Q15.95 21.1 14.8 23.7 L14.55 23.75 14.25 23.85 11.9 24.3 Q9.8 22.9 9.0 20.35 M23.05 30.65 L24.7 31.1 26.2 31.4 Q16.8 32.6 13.4 42.55 L16.75 45.8 16.5 46.05 13.6 44.35 Q11.85 43.25 11.0 42.15 L11.85 41.95 Q13.1 40.0 13.9 37.65 L13.9 37.55 14.45 35.55 15.0 32.65 Q14.75 31.55 14.2 30.75 13.15 29.3 11.1 28.9 9.1 28.75 8.2 30.1 L7.85 30.25 7.6 30.25 8.4 29.1 7.7 28.8 7.45 28.6 7.15 28.4 7.65 28.2 Q10.6 26.85 14.4 27.65 L14.55 27.65 Q15.9 28.3 17.3 29.25 18.95 30.2 20.75 30.55 L23.05 30.65" fill="#21292c" fill-rule="evenodd" stroke="none"/>
      <path d="M29.2 13.75 L30.25 14.15 29.5 15.35 26.25 19.35 23.5 22.1 20.9 23.1 14.5 25.0 14.2 25.05 14.05 24.7 14.25 23.85 14.55 23.75 14.8 23.7 Q17.85 22.85 20.9 21.65 L23.3 20.5 25.95 17.9 28.4 14.9 28.9 14.2 29.2 13.75" fill="#e6b100" fill-rule="evenodd" stroke="none"/>
      <path d="M30.55 14.5 L29.75 15.75 26.4 20.05 23.95 22.75 Q26.1 25.6 27.35 28.0 25.1 24.35 22.85 23.1 L20.9 23.65 14.5 25.2 14.3 25.25 14.2 25.05 14.5 25.0 20.9 23.1 23.5 22.1 26.25 19.35 29.5 15.35 30.25 14.15 30.4 14.3 30.55 14.5" fill="#f9e117" fill-rule="evenodd" stroke="none"/>
      <path d="M37.95 13.75 L37.35 13.15 Q36.5 12.35 35.8 12.5 L35.4 11.75 35.8 12.5 36.1 12.95 Q36.5 14.15 36.3 15.35 L35.9 16.65 Q34.05 13.65 33.2 9.85 L33.55 8.45 34.8 10.5 35.4 11.75 37.0 12.35 37.45 12.55 Q38.1 12.95 38.25 13.65 L37.95 13.75 M31.95 12.35 Q32.9 14.3 33.25 16.8 33.5 18.6 33.4 20.65 L33.45 21.45 Q33.5 22.2 32.9 23.25 L32.9 23.05 32.75 21.3 32.6 20.15 30.6 19.95 32.1 18.0 Q31.5 15.95 30.55 14.5 L30.85 14.05 31.05 13.8 31.95 12.35 M46.7 28.5 Q46.95 29.7 46.25 29.7 45.95 29.95 44.85 28.85 L44.1 28.05 43.55 27.05 43.0 26.15 42.7 25.3 Q42.85 25.0 43.05 25.1 44.05 26.65 45.2 27.6 45.9 28.15 46.7 28.5 M47.45 29.45 Q47.75 27.25 47.05 25.1 L47.0 24.85 46.35 23.5 Q45.05 21.3 43.6 20.05 L45.7 21.75 46.6 22.4 48.2 22.45 Q49.05 26.65 47.45 29.45 M6.05 27.65 L5.3 26.4 5.55 26.35 6.05 26.35 7.45 26.4 14.3 25.25 14.4 25.45 14.45 25.55 Q15.6 27.2 17.9 28.6 L20.15 27.15 19.95 29.7 20.8 30.05 23.05 30.65 20.75 30.55 Q18.95 30.2 17.3 29.25 15.9 28.3 14.55 27.65 L14.4 27.65 Q10.6 26.85 7.65 28.2 L7.15 28.4 6.05 27.65 M11.0 42.15 Q11.85 43.25 13.6 44.35 L16.5 46.05 Q15.3 47.05 13.45 46.8 L12.9 46.7 11.45 46.25 13.5 46.3 15.15 45.85 13.95 45.35 13.5 45.05 Q10.8 43.2 10.1 42.15 L9.8 40.5 Q10.2 41.75 10.8 42.05 L11.0 42.15" fill="#2e393d" fill-rule="evenodd" stroke="none"/>
      <path d="M32.9 23.25 L32.9 23.35 Q32.1 26.95 28.8 31.25 L28.6 31.2 26.2 31.4 24.7 31.1 23.05 30.65 28.55 30.8 27.35 28.0 Q26.1 25.6 23.95 22.75 L26.4 20.05 29.75 15.75 30.55 14.5 Q31.5 15.95 32.1 18.0 L30.6 19.95 32.6 20.15 32.75 21.3 32.9 23.05 32.9 23.25 32.85 22.65 32.9 23.05 32.85 22.65 32.9 23.25" fill="#bb6906" fill-rule="evenodd" stroke="none"/>
      <path d="M32.9 23.35 Q33.0 25.35 32.6 26.65 31.0 28.35 29.15 31.25 L28.8 31.25 Q32.1 26.95 32.9 23.35" fill="#6b3703" fill-rule="evenodd" stroke="none"/>
      <path d="M14.3 25.25 L14.5 25.2 20.9 23.65 22.85 23.1 Q25.1 24.35 27.35 28.0 L28.55 30.8 23.05 30.65 20.8 30.05 19.95 29.7 20.15 27.15 17.9 28.6 Q15.6 27.2 14.45 25.55 L14.4 25.45 14.3 25.25" fill="#d29402" fill-rule="evenodd" stroke="none"/>
      <path d="M38.25 13.65 Q38.1 12.95 37.45 12.55 L37.0 12.35 35.4 11.75 35.8 12.5 36.1 12.95 Q36.5 14.15 36.3 15.35 L35.9 16.65 M32.9 23.25 L32.9 23.35 Q33.0 25.35 32.6 26.65 34.75 24.35 36.5 22.95 40.8 21.0 45.1 24.1 L45.9 25.1 Q46.6 26.7 46.7 28.5 M44.1 28.05 L44.75 29.1 Q45.85 30.65 46.7 30.5 L47.45 29.45 M46.65 20.0 Q43.25 15.45 38.25 13.65 M48.2 22.45 L47.1 20.65 46.65 20.0 M43.55 27.05 L42.9 27.9 42.1 28.45 M42.05 28.45 Q41.8 28.3 42.0 27.3 L42.2 26.45 42.7 25.3 Q42.85 25.0 43.05 25.1 44.05 26.65 45.2 27.6 45.9 28.15 46.7 28.5 M44.1 28.05 L43.55 27.05 43.0 26.15 M48.2 22.45 Q49.05 26.65 47.45 29.45 M31.9 8.1 L31.85 8.2 30.15 12.05 30.0 12.35 29.2 13.75 30.25 14.15 M34.8 10.5 Q34.2 9.0 34.05 7.7 33.85 6.0 31.45 6.15 L28.8 6.6 28.3 6.8 26.35 7.3 25.3 7.6 23.85 8.05 21.0 9.0 19.6 9.45 Q17.3 10.25 15.15 11.55 L11.2 14.3 Q8.45 16.55 6.8 19.15 L5.35 22.0 Q3.7 26.4 5.3 27.1 L6.05 27.65 7.15 28.4 7.45 28.6 7.7 28.8 8.4 29.1 M14.2 25.05 L14.05 24.7 14.25 23.85 11.9 24.3 7.3 24.9 6.4 24.95 M14.8 23.7 Q15.95 21.1 18.95 19.15 L20.95 17.95 Q23.25 16.65 25.5 15.85 L27.65 15.1 28.4 14.9 25.95 17.9 23.3 20.5 20.9 21.65 Q17.85 22.85 14.8 23.7 L14.55 23.75 14.25 23.85 M34.8 10.5 L35.4 11.75 M28.4 14.9 L28.9 14.2 29.2 13.75 M30.55 14.5 L30.4 14.3 30.25 14.15 M14.2 25.05 L14.3 25.25 14.4 25.45 14.45 25.55 Q15.6 27.2 17.9 28.6 L20.15 27.15 19.95 29.7 20.8 30.05 23.05 30.65 24.7 31.1 26.2 31.4 28.6 31.2 28.8 31.25 29.15 31.25 Q31.0 28.35 32.6 26.65 M30.55 14.5 Q31.5 15.95 32.1 18.0 L30.6 19.95 32.6 20.15 32.75 21.3 32.9 23.05 32.9 23.25 32.85 22.65 32.9 23.05 M7.6 30.25 L7.85 30.25 8.2 30.1 Q9.1 28.75 11.1 28.9 M16.5 46.05 L16.75 45.8 13.4 42.55 Q16.8 32.6 26.2 31.4 M8.65 33.95 L9.8 40.5 10.1 42.15 Q10.8 43.2 13.5 45.05 L13.95 45.35 15.15 45.85 M11.45 46.25 L12.9 46.7 13.45 46.8 Q15.3 47.05 16.5 46.05 M13.95 45.35 Q13.7 45.45 13.5 45.65 L11.45 45.5 Q10.85 45.85 11.45 46.25 M7.45 28.6 L7.2 29.55 Q7.3 30.1 7.6 30.25 M8.2 30.1 L8.4 32.0 8.65 33.95" fill="none" stroke="#000000" stroke-linecap="round" stroke-linejoin="round" stroke-opacity="0.3019608" stroke-width="0.30000000000000004"/>
      <path d="M32.05 16.05 L29.5 19.1 29.3 15.35 31.45 13.4 32.05 16.05" fill="#000000" fill-rule="evenodd" stroke="none"/>
      <path d="M35.6 17.4 L34.0 19.65 30.3 20.2 33.15 17.25 35.6 17.4" fill="#000000" fill-rule="evenodd" stroke="none"/>
      <path d="M15.45 27.7 L19.0 25.95 15.35 24.95 13.05 26.6 15.45 27.7" fill="#000000" fill-rule="evenodd" stroke="none"/>
      <path d="M15.6 32.6 L18.1 31.5 19.4 28.05 15.95 30.15 15.6 32.6" fill="#000000" fill-rule="evenodd" stroke="none"/>
      <path d="M30.3 25.1 Q30.1 27.7 28.3 29.1 26.5 30.6 24.1 30.05 21.8 29.5 20.35 27.3 18.85 25.05 19.15 22.45 19.3 20.65 20.25 19.3 L19.15 15.3 22.5 17.6 25.3 17.45 Q27.7 18.0 29.1 20.2 30.55 22.45 30.3 25.1 M28.3 24.6 Q28.45 22.95 27.55 21.55 26.65 20.15 25.15 19.8 23.65 19.4 22.5 20.3 21.35 21.25 21.2 22.9 21.0 24.6 21.95 26.0 22.9 27.45 24.4 27.75 25.85 28.05 27.0 27.15 28.15 26.2 28.3 24.6" fill="#000000" fill-rule="evenodd" stroke="none"/>
      <path d="M27.55 19.5 L28.6 20.7 Q29.85 22.65 29.65 24.85 29.45 27.0 27.85 28.35 26.2 29.6 24.2 29.2 22.15 28.85 20.9 26.9 L20.9 26.85 Q19.65 25.0 19.85 22.75 20.1 20.65 21.2 19.4 L20.4 17.0 22.25 18.65 Q23.5 17.9 25.35 18.4 26.6 18.6 27.55 19.5 M27.95 21.15 L27.0 20.05 Q26.15 19.35 25.1 19.1 23.4 18.65 22.1 19.7 20.8 20.8 20.6 22.75 20.45 24.65 21.4 26.3 L21.55 26.4 Q22.6 28.1 24.4 28.45 26.1 28.75 27.4 27.8 28.7 26.7 28.85 24.85 29.05 22.9 27.95 21.15" fill="#66ffff" fill-opacity="0.49019608" fill-rule="evenodd" stroke="none"/>
      <path d="M27.3 19.6 L28.35 20.9 Q29.55 22.7 29.35 24.9 29.15 26.95 27.7 28.2 26.3 29.3 24.35 28.95 22.35 28.55 21.2 26.7 L21.05 26.5 Q19.95 24.8 20.1 22.6 20.4 20.5 21.6 19.45 L21.15 18.1 22.1 19.05 Q23.35 18.05 25.15 18.55 26.35 18.8 27.3 19.6 M28.15 21.0 L27.15 19.75 Q26.2 19.0 25.05 18.75 23.35 18.3 21.95 19.4 20.6 20.6 20.35 22.6 20.15 24.65 21.25 26.4 L21.4 26.6 Q22.55 28.35 24.4 28.75 26.25 29.1 27.55 28.0 28.95 26.85 29.1 24.9 29.35 22.8 28.15 21.0" fill="#66ffff" fill-rule="evenodd" stroke="none"/>
      <path d="M31.25 16.1 L30.05 17.6 29.95 15.7 31.05 14.55 31.25 16.1 M33.3 18.0 L34.35 17.95 33.55 19.1 31.85 19.35 33.3 18.0 M15.6 26.95 L14.3 26.5 15.55 25.7 17.25 26.2 15.6 26.95 M17.8 30.95 L16.55 31.6 16.75 30.5 18.25 29.45 17.8 30.95" fill="#66ffff" fill-opacity="0.49019608" fill-rule="evenodd" stroke="none"/>
      <path d="M33.2 18.3 L33.8 18.3 33.35 18.85 32.45 19.0 33.2 18.3 M15.65 26.75 L14.85 26.4 15.6 25.95 16.75 26.25 15.65 26.75 M30.85 16.1 L30.25 16.8 30.25 15.85 30.75 15.35 30.85 16.1 M17.6 30.7 L16.85 31.1 16.95 30.45 17.85 29.85 17.6 30.7" fill="#66ffff" fill-rule="evenodd" stroke="none"/>
    </g>
    <g id="sprite0" transform="matrix(1.0, 0.0, 0.0, 1.0, 73.5, 65.0)">
      <use height="136.85" transform="matrix(1.0, 0.0, 0.0, 1.0, -73.5, -65.0)" width="148.25" xlink:href="#shape1"/>
    </g>
    <g id="shape1" transform="matrix(1.0, 0.0, 0.0, 1.0, 73.5, 65.0)">
      <path d="M36.65 -54.65 Q60.05 -42.0 69.75 -17.95 80.55 8.9 68.0 34.1 55.45 59.35 26.8 68.2 -1.8 77.05 -29.7 64.3 -57.6 51.6 -68.45 24.75 -79.3 -2.05 -66.75 -27.25 L-66.7 -27.3 Q-54.1 -52.5 -25.5 -61.4 3.1 -70.2 31.0 -57.5 L36.65 -54.65" fill="url(#gradient0)" fill-rule="evenodd" stroke="none"/>
    </g>
    <radialGradient cx="0" cy="0" gradientTransform="matrix(0.0914, 0.0, 0.0, 0.0914, 0.6, 3.4)" gradientUnits="userSpaceOnUse" id="gradient0" r="819.2" spreadMethod="pad">
      <stop offset="0.0" stop-color="#ffffff"/>
      <stop offset="1.0" stop-color="#ffffff" stop-opacity="0.0"/>
    </radialGradient>
  </defs>
</svg>
