<?xml version="1.0" encoding="UTF-8" standalone="no"?>
<svg xmlns:xlink="http://www.w3.org/1999/xlink" height="440.0px" width="440.0px" xmlns="http://www.w3.org/2000/svg">
  <g transform="matrix(10.0, 0.0, 0.0, 10.0, 0.0, 0.0)">
    <use height="44.0" transform="matrix(1.0, 0.0, 0.0, 1.0, 0.0, 0.0)" width="44.0" xlink:href="#shape0"/>
    <use height="19.5" transform="matrix(0.5925, -0.8142, 0.5629, 0.8476, 8.0, 27.3)" width="19.5" xlink:href="#sprite0"/>
    <use height="26.9" transform="matrix(0.2222, 0.0724, -0.4085, 0.4711, 14.4779, 13.4643)" width="27.65" xlink:href="#sprite1"/>
    <use height="17.9" transform="matrix(1.0, 0.0, 0.0, 1.0, 7.2, 18.95)" width="14.75" xlink:href="#shape3"/>
    <use height="26.9" transform="matrix(0.4868, 0.0, -0.1745, 0.6073, 10.0794, 20.532)" width="27.65" xlink:href="#sprite1"/>
    <use height="31.4" transform="matrix(1.0, 0.0, 0.0, 1.0, 7.9, 1.4)" width="30.95" xlink:href="#shape4"/>
    <use height="15.55" transform="matrix(0.4803, 0.4863, -0.5977, 0.9, 13.8901, 15.4614)" width="15.55" xlink:href="#sprite2"/>
    <use height="15.55" transform="matrix(0.4803, 0.4863, -0.5977, 0.9, 21.0901, 16.3114)" width="15.55" xlink:href="#sprite2"/>
  </g>
  <defs>
    <g id="shape0" transform="matrix(1.0, 0.0, 0.0, 1.0, 0.0, 0.0)">
      <path d="M44.0 44.0 L0.0 44.0 0.0 0.0 44.0 0.0 44.0 44.0" fill="#43adca" fill-opacity="0.0" fill-rule="evenodd" stroke="none"/>
      <path d="M22.15 16.75 L22.55 17.1 Q21.55 17.3 21.0 17.8 20.1 18.6 20.1 19.95 L20.85 20.75 21.9 22.3 22.25 23.35 22.45 24.1 22.6 25.2 22.6 25.85 22.6 26.25 22.45 26.85 22.35 27.9 22.5 28.0 Q24.3 29.3 25.1 28.2 26.6 22.65 22.75 19.2 L23.45 19.7 Q27.15 22.95 26.7 27.15 L26.65 27.15 26.05 29.7 25.85 30.35 25.8 30.45 25.6 30.85 23.7 34.3 Q21.7 37.25 18.55 39.6 L17.65 38.8 20.95 36.05 Q21.4 34.55 19.5 33.75 L19.4 33.85 19.3 34.0 19.25 34.05 18.95 34.45 18.7 34.6 17.45 35.7 Q15.45 37.25 13.05 37.55 L12.8 37.6 Q10.5 37.8 8.95 36.7 L9.25 36.55 Q7.6 35.55 6.9 33.55 6.6 32.75 6.45 31.75 L6.5 31.75 6.55 31.7 7.05 33.5 8.05 34.95 Q9.9 37.2 13.05 36.85 L14.8 36.35 15.3 36.2 Q16.9 35.45 18.3 34.1 L18.8 33.55 19.0 33.35 20.05 31.95 21.15 29.85 21.7 27.8 21.75 27.2 21.8 27.0 21.9 25.5 21.55 23.75 21.25 22.75 21.2 22.7 21.05 22.35 20.35 21.35 20.05 21.05 Q18.25 19.2 15.25 19.55 12.05 19.95 9.5 22.75 L9.3 23.0 8.6 23.9 Q7.75 25.15 7.25 26.45 6.05 28.55 5.9 30.6 L5.8 30.6 5.9 29.2 5.95 28.95 Q6.5 25.5 8.8 22.8 L9.2 22.25 Q11.5 19.7 14.3 18.95 L14.6 18.9 14.55 18.85 Q16.6 18.15 16.65 16.65 L20.8 16.45 22.15 16.75" fill="#dec361" fill-rule="evenodd" stroke="none"/>
      <path d="M26.7 27.15 Q27.15 22.95 23.45 19.7 L22.75 19.2 Q26.6 22.65 25.1 28.2 24.3 29.3 22.5 28.0 L22.35 27.9 22.45 26.85 22.6 26.25 22.6 25.85 22.6 25.2 22.45 24.1 22.25 23.35 21.9 22.3 20.85 20.75 20.1 19.95 Q20.1 18.6 21.0 17.8 21.55 17.3 22.55 17.1 L22.15 16.75 22.6 16.95 23.3 17.2 23.8 17.5 24.05 17.8 Q27.6 22.1 26.75 27.2 L26.7 27.15 M8.95 36.7 Q10.5 37.8 12.8 37.6 L13.05 37.55 Q15.45 37.25 17.45 35.7 L18.7 34.6 18.95 34.45 19.25 34.05 19.3 34.0 19.4 33.85 19.5 33.75 Q21.4 34.55 20.95 36.05 L17.65 38.8 16.75 37.8 16.4 37.35 16.6 40.3 Q13.8 41.95 10.6 40.7 10.55 39.55 11.15 37.9 9.5 38.55 8.6 40.35 7.6 39.6 6.9 38.5 6.85 36.9 8.35 36.6 L8.95 36.7" fill="#a07c2f" fill-rule="evenodd" stroke="none"/>
      <path d="M24.05 17.8 L23.8 17.5 24.15 17.7 24.05 17.8" fill="#cc4b0a" fill-rule="evenodd" stroke="none"/>
      <path d="M26.75 27.2 Q27.6 22.1 24.05 17.8 L24.15 17.7 Q27.55 19.75 28.5 24.3 29.3 27.8 28.2 31.25 27.1 32.65 25.9 30.4 L25.85 30.35 26.05 29.7 26.65 27.15 26.75 27.2 M21.2 22.7 L21.25 22.75 21.55 23.75 21.9 25.5 21.8 27.0 21.75 27.2 21.7 27.8 21.15 29.85 20.05 31.95 19.0 33.35 18.8 33.55 18.3 34.1 Q16.9 35.45 15.3 36.2 L14.8 36.25 Q12.05 36.65 10.35 34.6 L9.5 33.3 Q8.9 31.95 8.95 30.2 L9.05 29.55 Q9.45 26.4 11.7 23.9 L11.75 23.85 Q13.95 21.45 16.7 21.1 19.3 20.8 20.95 22.45 L21.2 22.7" fill="#7a5d23" fill-rule="evenodd" stroke="none"/>
      <path d="M21.05 22.35 L21.2 22.7 20.95 22.45 21.05 22.35 M15.3 36.2 L14.8 36.35 14.8 36.25 15.3 36.2" fill="#4a1e08" fill-rule="evenodd" stroke="none"/>
      <path d="M9.3 23.0 L9.5 22.75 Q12.05 19.95 15.25 19.55 18.25 19.2 20.05 21.05 L20.35 21.35 21.05 22.35 20.95 22.45 Q19.3 20.8 16.7 21.1 13.95 21.45 11.75 23.85 L11.75 23.8 9.3 23.0 M14.8 36.35 L13.05 36.85 Q9.9 37.2 8.05 34.95 L7.05 33.5 6.55 31.7 Q6.4 31.05 6.4 30.3 L6.4 30.25 6.4 30.1 6.45 29.7 6.55 29.2 8.95 30.2 Q8.9 31.95 9.5 33.3 L10.35 34.6 Q12.05 36.65 14.8 36.25 L14.8 36.35 M17.65 38.8 L18.55 39.6 19.55 40.25 Q18.55 42.45 17.3 42.2 16.8 41.55 16.6 40.3 L16.4 37.35 16.75 37.8 17.65 38.8 M10.6 40.7 Q10.15 41.4 8.6 40.35 9.5 38.55 11.15 37.9 10.55 39.55 10.6 40.7" fill="#422f13" fill-rule="evenodd" stroke="none"/>
      <path d="M8.6 23.9 L9.3 23.0 11.75 23.8 11.7 23.9 Q9.45 26.4 9.05 29.55 L8.95 30.2 6.55 29.2 Q7.0 26.7 8.75 24.0 L8.6 23.9 M18.55 39.6 Q21.7 37.25 23.7 34.3 L25.6 30.85 25.8 30.45 25.9 30.4 Q27.1 32.65 28.2 31.25 L26.95 34.25 Q24.75 38.4 21.1 40.55 L21.0 40.65 19.55 40.25 18.55 39.6 M17.3 42.2 Q13.9 43.1 10.8 41.7 10.55 41.3 10.6 40.7 13.8 41.95 16.6 40.3 16.8 41.55 17.3 42.2" fill="#5c461a" fill-rule="evenodd" stroke="none"/>
      <path d="M7.25 26.45 Q7.75 25.15 8.6 23.9 L8.75 24.0 Q7.85 25.25 7.25 26.45 M11.7 23.9 L11.75 23.8 11.75 23.85 11.7 23.9" fill="#87370e" fill-rule="evenodd" stroke="none"/>
      <path d="M5.8 30.6 L5.9 30.6 5.9 30.65 5.85 31.1 5.8 30.6 M6.55 31.7 L6.5 31.75 6.35 30.8 6.4 30.3 Q6.4 31.05 6.55 31.7" fill="#ffff2f" fill-rule="evenodd" stroke="none"/>
      <path d="M5.9 30.6 Q6.05 28.55 7.25 26.45 7.85 25.25 8.75 24.0 7.0 26.7 6.55 29.2 L6.45 29.7 6.4 30.1 6.4 30.25 6.4 30.3 6.35 30.8 6.5 31.75 6.45 31.75 Q6.6 32.75 6.9 33.55 7.6 35.55 9.25 36.55 L8.95 36.7 8.35 36.6 Q6.85 36.9 6.9 38.5 5.7 36.85 5.25 34.65 L5.2 34.4 Q5.5 35.0 6.0 33.05 L5.85 31.1 5.9 30.65 5.9 30.6" fill="#ffe170" fill-rule="evenodd" stroke="none"/>
      <path d="M26.7 27.15 L26.75 27.2 26.65 27.15 26.7 27.15" fill="#b3825d" fill-rule="evenodd" stroke="none"/>
      <path d="M25.8 30.45 L25.85 30.35 25.9 30.4 25.8 30.45" fill="#873106" fill-rule="evenodd" stroke="none"/>
      <path d="M16.65 16.65 Q16.6 18.15 14.55 18.85 L14.6 18.9 14.3 18.95 Q11.5 19.7 9.2 22.25 L8.8 22.8 Q6.5 25.5 5.95 28.95 L5.9 29.2 5.8 30.6 5.85 31.1 6.0 33.05 Q5.5 35.0 5.2 34.4 4.65 31.6 5.25 28.75 5.75 26.7 6.85 24.6 7.8 22.75 9.1 21.3 10.85 19.3 13.15 18.1 L14.35 17.5 16.05 16.8 16.65 16.65" fill="#f4e771" fill-rule="evenodd" stroke="none"/>
      <path d="M23.8 17.5 L23.3 17.2 22.6 16.95 22.15 16.75 20.8 16.45 16.65 16.65 16.05 16.8 14.35 17.5 13.15 18.1 Q10.85 19.3 9.1 21.3 7.8 22.75 6.85 24.6 5.75 26.7 5.25 28.75 4.65 31.6 5.2 34.4 L5.25 34.65 Q5.7 36.85 6.9 38.5 M21.2 22.7 L21.25 22.75 21.55 23.75 21.9 25.5 21.8 27.0 21.75 27.2 21.7 27.8 21.15 29.85 20.05 31.95 19.0 33.35 18.8 33.55 18.3 34.1 Q16.9 35.45 15.3 36.2 L14.8 36.25 Q12.05 36.65 10.35 34.6 L9.5 33.3 Q8.9 31.95 8.95 30.2 L9.05 29.55 Q9.45 26.4 11.7 23.9 L11.75 23.85 Q13.95 21.45 16.7 21.1 19.3 20.8 20.95 22.45 L21.2 22.7 M17.65 38.8 L18.55 39.6 19.55 40.25 21.0 40.65 21.1 40.55 Q24.75 38.4 26.95 34.25 L28.2 31.25 Q29.3 27.8 28.5 24.3 27.55 19.75 24.15 17.7 L23.8 17.5 M8.6 40.35 Q7.6 39.6 6.9 38.5 M16.6 40.3 L16.4 37.35 16.75 37.8 17.65 38.8 M19.55 40.25 Q18.55 42.45 17.3 42.2 13.9 43.1 10.8 41.7 10.55 41.3 10.6 40.7 10.15 41.4 8.6 40.35 9.5 38.55 11.15 37.9 10.55 39.55 10.6 40.7 M16.6 40.3 Q16.8 41.55 17.3 42.2" fill="none" stroke="#000000" stroke-linecap="round" stroke-linejoin="round" stroke-opacity="0.3019608" stroke-width="0.05"/>
      <path d="M19.4 33.85 L19.5 33.75" fill="none" stroke="#000000" stroke-linecap="round" stroke-linejoin="round" stroke-opacity="0.3019608" stroke-width="1.0"/>
    </g>
    <g id="sprite0" transform="matrix(1.0, 0.0, 0.0, 1.0, 0.0, 0.0)">
      <use height="19.5" transform="matrix(1.0, 0.0, 0.0, 1.0, 0.0, 0.0)" width="19.5" xlink:href="#shape1"/>
    </g>
    <g id="shape1" transform="matrix(1.0, 0.0, 0.0, 1.0, 0.0, 0.0)">
      <path d="M19.5 9.75 Q19.5 13.8 16.65 16.65 13.8 19.5 9.75 19.5 5.7 19.5 2.85 16.65 0.0 13.8 0.0 9.75 0.0 5.7 2.85 2.85 5.7 0.0 9.75 0.0 13.8 0.0 16.65 2.85 19.5 5.7 19.5 9.75" fill="url(#gradient0)" fill-rule="evenodd" stroke="none"/>
    </g>
    <radialGradient cx="0" cy="0" gradientTransform="matrix(0.0102, 0.0, 0.0, 0.0102, 10.8, 11.75)" gradientUnits="userSpaceOnUse" id="gradient0" r="819.2" spreadMethod="pad">
      <stop offset="0.0" stop-color="#fbf1bf"/>
      <stop offset="1.0" stop-color="#faf0be" stop-opacity="0.0"/>
    </radialGradient>
    <g id="sprite1" transform="matrix(1.0, 0.0, 0.0, 1.0, 13.8, 13.45)">
      <use height="26.9" transform="matrix(1.0, 0.0, 0.0, 1.0, -13.8, -13.45)" width="27.65" xlink:href="#shape2"/>
    </g>
    <g id="shape2" transform="matrix(1.0, 0.0, 0.0, 1.0, 13.8, 13.45)">
      <path d="M13.85 -0.45 Q13.95 5.1 10.0 9.15 6.05 13.25 0.35 13.45 -5.35 13.65 -9.5 9.85 -13.65 6.05 -13.8 0.5 -13.9 -5.05 -9.95 -9.15 -5.95 -13.25 -0.25 -13.45 5.45 -13.65 9.55 -9.85 13.7 -6.0 13.85 -0.45" fill="url(#gradient1)" fill-rule="evenodd" stroke="none"/>
    </g>
    <radialGradient cx="0" cy="0" gradientTransform="matrix(0.018, 0.0, 0.0, 0.018, 0.0, 0.0)" gradientUnits="userSpaceOnUse" id="gradient1" r="819.2" spreadMethod="pad">
      <stop offset="0.23921568627450981" stop-color="#ffffcc"/>
      <stop offset="0.8823529411764706" stop-color="#ffffcc" stop-opacity="0.0"/>
    </radialGradient>
    <g id="shape3" transform="matrix(1.0, 0.0, 0.0, 1.0, -7.2, -18.95)">
      <path d="M20.55 20.75 Q20.95 22.3 20.7 24.45 19.4 23.2 17.9 27.8 L17.75 27.7 Q17.95 26.4 17.15 25.2 16.4 24.4 15.0 24.65 14.0 24.7 12.95 25.65 11.7 27.2 11.5 28.5 10.95 22.7 7.2 29.45 7.2 29.0 7.35 28.5 7.9 25.1 10.4 22.3 12.8 19.45 15.95 19.05 18.8 18.6 20.55 20.75" fill="#efe7d3" fill-rule="evenodd" stroke="none"/>
      <path d="M21.8 27.25 L21.75 27.6 21.75 27.2 21.8 27.25 M17.75 27.7 L17.9 27.8 17.75 28.2 17.75 27.7" fill="#660000" fill-rule="evenodd" stroke="none"/>
      <path d="M21.75 27.2 L21.8 27.2 21.8 27.25 21.75 27.2" fill="#a34218" fill-rule="evenodd" stroke="none"/>
      <path d="M20.55 20.75 L20.75 21.05 Q22.4 23.25 21.8 27.2 L21.75 27.2 Q21.2 25.1 20.7 24.45 20.95 22.3 20.55 20.75 M7.6 33.0 Q7.15 31.45 7.2 29.45 10.95 22.7 11.5 28.5 11.7 27.2 12.95 25.65 14.0 24.7 15.0 24.65 16.4 24.4 17.15 25.2 17.95 26.4 17.75 27.7 L17.75 28.2 17.9 27.8 Q19.4 23.2 20.7 24.45 L20.55 24.8 20.55 25.25 Q20.0 28.3 17.7 31.2 15.2 33.9 12.0 34.4 9.35 34.7 7.6 33.0" fill="#dccba3" fill-rule="evenodd" stroke="none"/>
      <path d="M20.7 24.45 Q21.2 25.1 21.75 27.2 L21.75 27.6 Q21.2 30.6 18.9 33.6 16.5 36.3 13.3 36.8 10.2 37.1 8.4 34.9 7.8 34.05 7.6 33.0 9.35 34.7 12.0 34.4 15.2 33.9 17.7 31.2 20.0 28.3 20.55 25.25 L20.55 24.8 20.7 24.45" fill="#cfb885" fill-rule="evenodd" stroke="none"/>
      <path d="M21.8 27.2 Q22.4 23.25 20.75 21.05 L20.55 20.75 M21.75 27.6 Q21.2 30.6 18.9 33.6 16.5 36.3 13.3 36.8 10.2 37.1 8.4 34.9 7.8 34.05 7.6 33.0" fill="none" stroke="#000000" stroke-linecap="round" stroke-linejoin="round" stroke-opacity="0.5529412" stroke-width="0.05"/>
      <path d="M21.8 27.2 L21.8 27.25 21.75 27.6 M7.6 33.0 Q7.15 31.45 7.2 29.45 7.2 29.0 7.35 28.5 7.9 25.1 10.4 22.3 12.8 19.45 15.95 19.05 18.8 18.6 20.55 20.75" fill="none" stroke="#000000" stroke-linecap="round" stroke-linejoin="round" stroke-opacity="0.3137255" stroke-width="0.05"/>
    </g>
    <g id="shape4" transform="matrix(1.0, 0.0, 0.0, 1.0, -7.9, -1.4)">
      <path d="M11.55 23.7 L11.05 24.35 10.35 24.45 10.05 23.9 10.2 23.05 10.8 22.4 11.45 22.35 11.75 22.85 11.55 23.7" fill="#ffffff" fill-rule="evenodd" stroke="none"/>
      <path d="M11.1 25.2 L10.8 26.05 10.6 25.4 9.8 25.4 9.25 24.8 7.9 25.3 9.15 24.3 Q9.05 23.45 9.5 22.6 9.95 21.75 10.7 21.35 11.1 21.05 11.5 21.05 12.35 20.6 13.0 19.3 12.25 20.8 12.35 21.45 L12.6 22.25 Q12.7 23.0 12.25 23.9 L11.15 25.2 11.1 25.2 M11.55 23.7 L11.75 22.85 11.45 22.35 10.8 22.4 10.2 23.05 10.05 23.9 10.35 24.45 11.05 24.35 11.55 23.7" fill="#ffffff" fill-opacity="0.3019608" fill-rule="evenodd" stroke="none"/>
      <path d="M10.8 23.95 L9.1 25.0 10.75 22.95 10.5 20.1 11.2 22.75 17.4 17.55 11.4 23.45 11.85 28.1 10.8 23.95" fill="#ffffff" fill-rule="evenodd" stroke="none"/>
      <path d="M27.5 32.4 L26.85 32.8 26.35 32.2 Q26.2 31.7 26.3 31.0 26.4 30.3 26.75 29.75 27.0 29.3 27.35 29.35 27.7 29.4 27.9 29.95 L27.95 31.25 27.5 32.4" fill="#000000" fill-rule="evenodd" stroke="none"/>
      <path d="M31.2 9.6 L29.3 10.3 Q29.35 9.05 30.0 7.75 L31.45 8.1 31.9 8.05 31.2 9.6 M18.15 14.2 L21.1 13.85 23.75 14.1 Q20.15 15.3 18.8 16.05 L18.35 16.3 16.65 16.55 Q14.8 17.0 13.15 17.9 15.05 15.75 18.15 14.2 M29.5 12.35 L31.25 11.7 Q31.6 13.35 32.85 15.1 31.95 15.7 30.95 15.75 29.9 14.05 29.5 12.35 M31.35 29.75 Q31.05 30.35 31.05 30.9 L31.2 31.85 31.15 31.85 30.85 31.9 29.25 32.0 28.45 32.05 27.6 32.0 27.1 31.4 Q26.95 31.0 27.2 30.65 L27.85 30.15 29.4 30.0 30.5 29.9 31.35 29.75" fill="#963807" fill-rule="evenodd" stroke="none"/>
      <path d="M31.2 9.6 L31.2 9.65 31.85 9.35 Q36.95 6.8 37.1 3.6 L37.1 3.4 Q35.45 3.85 33.45 6.0 32.45 7.05 31.9 8.05 L31.45 8.1 30.0 7.75 Q30.75 6.2 32.25 4.65 34.85 1.9 36.9 1.45 L36.95 1.45 Q38.35 1.2 38.65 2.05 L38.65 2.1 Q38.9 2.45 38.85 3.55 38.95 7.1 34.8 9.85 L32.05 11.3 31.25 11.7 29.5 12.35 29.35 12.4 25.05 13.65 23.75 14.1 21.1 13.85 18.15 14.2 Q19.8 13.3 25.05 11.6 L29.0 10.45 29.1 10.45 29.1 10.4 29.2 10.4 29.3 10.35 29.3 10.3 31.2 9.6 M31.35 29.75 Q32.8 29.25 34.1 27.5 35.7 25.4 35.7 22.8 35.65 21.45 32.8 18.2 L32.55 17.9 30.95 15.75 Q31.95 15.7 32.85 15.1 L34.05 16.75 34.9 17.75 Q37.6 21.1 37.45 22.7 37.45 26.0 35.45 28.75 33.55 31.2 31.2 31.85 L31.05 30.9 Q31.05 30.35 31.35 29.75" fill="#cf760a" fill-rule="evenodd" stroke="none"/>
      <path d="M31.9 8.05 Q32.45 7.05 33.45 6.0 35.45 3.85 37.1 3.4 L37.1 3.6 Q36.95 6.8 31.85 9.35 L31.2 9.65 31.2 9.6 29.3 10.3 29.3 10.35 29.2 10.4 29.1 10.4 29.1 10.45 29.0 10.45 25.05 11.6 Q19.8 13.3 18.15 14.2 M23.75 14.1 L25.05 13.65 29.35 12.4 29.5 12.35 31.25 11.7 32.05 11.3 34.8 9.85 Q38.95 7.1 38.85 3.55 38.9 2.45 38.65 2.1 L38.65 2.05 Q38.35 1.2 36.95 1.45 L36.9 1.45 Q34.85 1.9 32.25 4.65 30.75 6.2 30.0 7.75 M31.9 8.05 L31.2 9.6 31.85 9.35 M29.2 10.4 L29.3 10.3 Q29.35 9.05 30.0 7.75 M30.95 15.75 L32.55 17.9 32.8 18.2 Q35.65 21.45 35.7 22.8 35.7 25.4 34.1 27.5 32.8 29.25 31.35 29.75 M31.2 31.85 Q33.55 31.2 35.45 28.75 37.45 26.0 37.45 22.7 37.6 21.1 34.9 17.75 L34.05 16.75 32.85 15.1 Q31.6 13.35 31.25 11.7 M30.95 15.75 Q29.9 14.05 29.5 12.35 M13.15 17.9 Q15.05 15.75 18.15 14.2 M18.35 16.3 L18.8 16.05 Q20.15 15.3 23.75 14.1 M31.15 31.85 L30.85 31.9 29.25 32.0 28.45 32.05 27.6 32.0 27.1 31.4 Q26.95 31.0 27.2 30.65 L27.85 30.15 29.4 30.0 30.5 29.9 31.35 29.75" fill="none" stroke="#000000" stroke-linecap="round" stroke-linejoin="round" stroke-opacity="0.3019608" stroke-width="0.05"/>
      <path d="M18.35 16.3 L16.65 16.55 Q14.8 17.0 13.15 17.9" fill="none" stroke="#000000" stroke-linecap="round" stroke-linejoin="round" stroke-opacity="0.5529412" stroke-width="0.05"/>
    </g>
    <g id="sprite2" transform="matrix(1.0, 0.0, 0.0, 1.0, 7.75, 7.8)">
      <use height="15.55" transform="matrix(1.0, 0.0, 0.0, 1.0, -7.75, -7.8)" width="15.55" xlink:href="#shape5"/>
    </g>
    <g id="shape5" transform="matrix(1.0, 0.0, 0.0, 1.0, 7.75, 7.8)">
      <path d="M0.0 -7.8 Q3.25 -7.8 5.5 -5.55 7.8 -3.25 7.8 -0.05 7.8 3.15 5.5 5.45 3.25 7.75 0.0 7.75 -3.2 7.75 -5.45 5.45 -7.75 3.15 -7.75 -0.05 -7.75 -3.25 -5.45 -5.55 -3.2 -7.8 0.0 -7.8" fill="url(#gradient2)" fill-rule="evenodd" stroke="none"/>
    </g>
    <radialGradient cx="0" cy="0" gradientTransform="matrix(0.0098, 0.0, 0.0, 0.0098, 0.0, -0.05)" gradientUnits="userSpaceOnUse" id="gradient2" r="819.2" spreadMethod="pad">
      <stop offset="0.0" stop-color="#ffffff"/>
      <stop offset="0.19607843137254902" stop-color="#ffffff"/>
      <stop offset="0.21176470588235294" stop-color="#ffd70a" stop-opacity="0.4627451"/>
      <stop offset="1.0" stop-color="#ffeb2b" stop-opacity="0.0"/>
    </radialGradient>
  </defs>
</svg>
