<?xml version="1.0" encoding="UTF-8" standalone="no"?>
<svg xmlns:xlink="http://www.w3.org/1999/xlink" height="520.0px" width="520.0px" xmlns="http://www.w3.org/2000/svg">
  <g transform="matrix(10.0, 0.0, 0.0, 10.0, 0.0, 0.0)">
    <use height="52.0" transform="matrix(1.0, 0.0, 0.0, 1.0, 0.0, 0.0)" width="52.0" xlink:href="#shape0"/>
    <use height="30.05" transform="matrix(0.3285, 0.1552, -0.1554, 0.3282, 16.6, 20.8)" width="32.95" xlink:href="#sprite0"/>
    <use height="136.85" transform="matrix(0.195, -0.0109, 0.0, 0.1203, 9.4158, 27.732)" width="148.25" xlink:href="#sprite1"/>
  </g>
  <defs>
    <g id="shape0" transform="matrix(1.0, 0.0, 0.0, 1.0, 0.0, 0.0)">
      <path d="M52.0 0.0 L52.0 52.0 0.0 52.0 0.0 0.0 52.0 0.0" fill="#795fa9" fill-opacity="0.0" fill-rule="evenodd" stroke="none"/>
      <path d="M40.35 21.35 L40.45 21.45 41.3 22.55 41.45 22.9 41.5 23.15 41.75 24.35 42.55 24.75 42.7 24.8 44.25 25.7 Q48.35 28.35 48.65 29.75 L48.7 29.9 48.7 29.95 48.7 30.6 48.65 31.5 48.6 32.0 Q48.1 36.45 45.3 40.55 L44.4 41.75 Q43.65 42.6 42.9 43.0 41.25 43.85 39.3 42.8 38.45 42.3 37.6 41.95 33.85 40.6 29.95 43.05 L26.3 44.4 25.5 44.6 18.85 45.1 Q15.75 44.7 13.1 42.95 9.25 39.9 8.5 35.65 8.15 33.45 8.6 30.95 8.8 29.85 9.15 28.7 9.5 27.15 9.3 25.9 9.05 24.55 8.2 23.5 L8.25 23.4 8.15 23.4 Q7.6 22.6 7.85 21.6 L7.7 21.6 8.15 20.85 8.45 20.25 8.35 20.25 Q6.4 19.95 5.5 19.15 4.8 18.45 4.7 17.45 L5.0 16.25 Q5.3 15.35 5.95 14.95 6.45 14.25 7.8 14.2 L7.45 12.9 Q7.35 11.75 7.95 10.7 L8.7 9.65 Q8.95 9.4 9.25 9.25 L9.4 9.15 Q10.25 8.65 11.3 8.65 L12.2 8.7 12.8 9.0 12.95 9.05 13.25 9.35 13.3 9.35 Q13.75 8.4 14.4 7.85 L14.8 7.65 Q15.75 7.0 17.2 6.95 L17.3 6.95 17.3 7.0 17.55 6.95 17.6 6.95 18.95 7.1 Q19.8 7.4 19.75 8.4 L19.45 9.8 19.45 9.9 Q18.55 12.25 18.45 15.1 L18.45 15.7 18.45 16.1 18.7 16.3 20.95 17.95 22.1 18.1 Q23.6 18.4 25.0 19.3 L26.4 20.35 31.3 21.35 36.6 22.4 37.7 21.7 38.0 21.65 38.1 21.65 39.1 21.35 39.3 21.3 40.35 21.35 M47.6 30.65 L47.55 30.75 47.5 30.65 47.6 30.65" fill="none" stroke="#000000" stroke-linecap="round" stroke-linejoin="round" stroke-opacity="0.3019608" stroke-width="1.0"/>
      <path d="M12.2 13.6 L12.0 14.05 Q11.9 14.8 12.25 15.7 L12.75 16.6 13.6 17.65 13.25 17.85 13.6 17.65 16.6 20.45 21.15 23.45 Q28.75 28.15 36.4 30.45 L41.6 31.75 43.8 32.15 44.6 32.2 47.5 32.0 Q48.45 31.55 48.7 30.6 L48.65 31.5 48.1 32.1 47.65 32.4 45.3 32.7 44.75 32.65 43.85 32.55 41.7 32.15 41.6 31.75 41.7 32.15 36.25 30.85 36.1 30.75 Q28.5 28.45 20.85 23.75 L16.55 20.85 Q14.45 19.3 13.25 17.85 L12.45 16.85 11.9 15.8 Q11.5 14.9 11.6 14.15 11.85 13.8 12.2 13.6 M13.25 14.75 L13.3 14.6 Q13.4 14.25 13.8 14.25 14.35 14.2 15.45 14.85 L17.15 16.05 18.45 17.15 Q22.95 21.05 30.7 22.05 37.4 22.95 41.95 25.45 L42.75 25.9 43.3 26.2 Q47.5 29.0 47.65 30.4 L47.6 30.4 47.6 30.6 47.5 30.65 Q47.3 29.2 43.15 26.5 43.0 26.35 42.85 26.3 L41.75 25.65 Q37.2 23.2 30.6 22.35 22.8 21.3 18.3 17.4 L17.05 16.4 15.15 15.05 Q14.15 14.45 13.65 14.55 13.35 14.5 13.25 14.75" fill="#58a2eb" fill-rule="evenodd" stroke="none"/>
      <path d="M17.05 16.4 L18.3 17.4 Q22.8 21.3 30.6 22.35 37.2 23.2 41.75 25.65 40.75 28.8 37.0 29.9 33.1 28.65 28.6 26.55 21.5 23.15 17.1 19.55 L16.75 19.3 Q16.3 17.35 17.05 16.4" fill="#104981" fill-rule="evenodd" stroke="none"/>
      <path d="M12.2 13.6 Q12.9 13.15 13.9 13.35 14.65 13.3 16.2 14.35 L17.25 15.1 18.7 16.3 Q23.35 20.3 31.3 21.4 37.95 22.3 42.55 24.75 L42.7 24.8 44.2 25.75 Q48.35 28.4 48.65 29.75 L48.65 29.9 48.7 29.9 48.7 29.95 48.7 30.6 Q48.45 31.55 47.5 32.0 L44.6 32.2 43.8 32.15 41.6 31.75 Q41.45 31.2 40.95 30.95 41.45 31.2 41.6 31.75 L36.4 30.45 Q28.75 28.15 21.15 23.45 L16.6 20.45 13.6 17.65 12.75 16.6 12.25 15.7 Q11.9 14.8 12.0 14.05 L12.2 13.6 M14.8 17.5 L14.35 17.4 Q13.95 17.4 13.6 17.65 13.95 17.4 14.35 17.4 L14.8 17.5 16.75 19.3 17.1 19.55 Q21.5 23.15 28.6 26.55 33.1 28.65 37.0 29.9 L40.95 30.95 41.3 31.0 43.65 31.4 Q47.05 31.75 47.55 30.75 L47.6 30.6 47.6 30.4 47.65 30.4 Q47.5 29.0 43.3 26.2 L42.75 25.9 41.95 25.45 Q37.4 22.95 30.7 22.05 22.95 21.05 18.45 17.15 L17.15 16.05 15.45 14.85 Q14.35 14.2 13.8 14.25 13.4 14.25 13.3 14.6 L13.25 14.75 Q13.1 15.25 13.6 16.05 L14.8 17.5" fill="#2b88e6" fill-rule="evenodd" stroke="none"/>
      <path d="M48.65 31.5 L48.6 32.0 Q48.05 36.45 45.25 40.55 L44.4 41.75 Q43.7 42.6 42.9 43.0 L45.15 39.8 Q47.35 36.05 47.65 32.4 L48.1 32.1 48.65 31.5 M26.3 44.4 L25.5 44.65 Q25.25 42.0 24.55 39.9 L24.95 37.0 24.9 36.0 Q25.3 25.0 15.9 24.7 11.95 24.9 8.6 30.95 L9.15 28.75 Q9.5 27.2 9.3 25.9 9.1 24.6 8.25 23.5 L8.25 23.4 Q8.45 21.65 9.3 20.35 10.3 19.15 10.7 17.95 L10.9 17.4 Q11.25 15.85 11.9 15.8 L12.45 16.85 13.25 17.85 Q14.45 19.3 16.55 20.85 L20.85 23.75 Q28.5 28.45 36.1 30.75 L36.25 30.85 Q36.65 32.75 36.15 34.65 34.65 39.8 26.3 44.4 M9.3 25.9 Q9.75 22.7 12.0 19.35 12.65 18.35 13.25 17.85 12.65 18.35 12.0 19.35 9.75 22.7 9.3 25.9" fill="#1870c5" fill-rule="evenodd" stroke="none"/>
      <path d="M8.5 35.65 Q8.15 33.45 8.6 30.95 11.95 24.9 15.9 24.7 25.3 25.0 24.9 36.0 L24.95 37.0 24.55 39.9 23.45 37.3 Q21.25 33.15 16.85 31.3 12.4 30.25 8.5 35.65 M8.15 23.4 Q7.0 21.8 9.45 18.9 L9.7 18.65 Q10.4 17.75 10.9 15.9 11.1 14.8 11.6 14.15 11.5 14.9 11.9 15.8 11.25 15.85 10.9 17.4 L10.7 17.95 Q10.3 19.15 9.3 20.35 8.45 21.65 8.25 23.4 L8.15 23.4" fill="#1a78d5" fill-rule="evenodd" stroke="none"/>
      <path d="M18.8 45.1 Q15.7 44.7 13.1 42.95 9.25 39.9 8.5 35.65 12.4 30.25 16.85 31.3 21.25 33.15 23.45 37.3 L24.55 39.9 Q23.35 44.25 18.8 45.1" fill="#e1b504" fill-rule="evenodd" stroke="none"/>
      <path d="M42.9 43.0 Q41.25 43.85 39.3 42.8 L37.55 41.95 Q33.85 40.65 29.95 43.05 L26.3 44.4 Q34.65 39.8 36.15 34.65 36.65 32.75 36.25 30.85 L41.7 32.15 43.85 32.55 44.75 32.65 45.3 32.7 47.65 32.4 Q47.35 36.05 45.15 39.8 L42.9 43.0 M37.55 41.95 Q39.0 40.8 40.65 37.05 41.55 34.9 41.7 33.45 L41.7 32.15 41.7 33.45 Q41.55 34.9 40.65 37.05 39.0 40.8 37.55 41.95" fill="#1663ad" fill-rule="evenodd" stroke="none"/>
      <path d="M25.5 44.65 L18.8 45.1 Q23.35 44.25 24.55 39.9 25.25 42.0 25.5 44.65" fill="#af8c03" fill-rule="evenodd" stroke="none"/>
      <path d="M14.8 17.5 L13.6 16.05 Q13.1 15.25 13.25 14.75 13.35 14.5 13.65 14.55 14.15 14.45 15.15 15.05 L17.05 16.4 Q16.3 17.35 16.75 19.3 L14.8 17.5 M47.55 30.75 Q47.05 31.75 43.65 31.4 L41.3 31.0 40.95 30.95 37.0 29.9 Q40.75 28.8 41.75 25.65 L42.85 26.3 Q43.0 26.35 43.15 26.5 47.3 29.2 47.5 30.65 L47.55 30.75" fill="#0f4171" fill-rule="evenodd" stroke="none"/>
      <path d="M48.7 30.6 L48.7 29.95 48.7 29.9 48.65 29.9 48.65 29.75 Q48.35 28.4 44.2 25.75 L42.7 24.8 42.55 24.75 Q37.95 22.3 31.3 21.4 23.35 20.3 18.7 16.3 L17.25 15.1 16.2 14.35 Q14.65 13.3 13.9 13.35 12.9 13.15 12.2 13.6 M13.6 17.65 Q13.95 17.4 14.35 17.4 L14.8 17.5 13.6 16.05 Q13.1 15.25 13.25 14.75 M47.55 30.75 Q47.05 31.75 43.65 31.4 L41.3 31.0 40.95 30.95 Q41.45 31.2 41.6 31.75 L41.7 32.15 41.7 33.45 Q41.55 34.9 40.65 37.05 39.0 40.8 37.55 41.95 33.85 40.65 29.95 43.05 L26.3 44.4 25.5 44.65 18.8 45.1 Q15.7 44.7 13.1 42.95 9.25 39.9 8.5 35.65 8.15 33.45 8.6 30.95 L9.15 28.75 Q9.5 27.2 9.3 25.9 9.1 24.6 8.25 23.5 L8.15 23.4 Q7.0 21.8 9.45 18.9 L9.7 18.65 Q10.4 17.75 10.9 15.9 11.1 14.8 11.6 14.15 11.85 13.8 12.2 13.6 M48.7 30.6 L48.65 31.5 48.6 32.0 Q48.05 36.45 45.25 40.55 L44.4 41.75 Q43.7 42.6 42.9 43.0 41.25 43.85 39.3 42.8 L37.55 41.95 M37.0 29.9 L40.95 30.95 M13.25 17.85 L13.6 17.65 M8.5 35.65 Q12.4 30.25 16.85 31.3 21.25 33.15 23.45 37.3 L24.55 39.9 Q25.25 42.0 25.5 44.65 M37.0 29.9 Q33.1 28.65 28.6 26.55 21.5 23.15 17.1 19.55 L16.75 19.3 14.8 17.5 M13.25 17.85 Q12.65 18.35 12.0 19.35 9.75 22.7 9.3 25.9" fill="none" stroke="#000000" stroke-linecap="round" stroke-linejoin="round" stroke-opacity="0.3019608" stroke-width="0.30000000000000004"/>
      <path d="M11.05 18.35 L11.3 18.25 Q12.2 18.9 12.5 19.75 12.7 20.35 12.4 20.8 L12.0 21.15 Q11.45 20.1 10.55 19.5 10.6 18.65 11.05 18.35 M41.2 39.6 Q41.3 40.2 40.6 40.6 39.35 40.0 37.85 39.85 L37.8 39.15 Q37.9 38.65 38.6 38.55 39.65 38.5 41.15 39.25 L41.2 39.6 M10.7 23.4 Q10.85 24.05 10.6 24.45 L10.2 24.8 Q9.55 23.8 8.75 23.15 8.8 22.3 9.15 22.05 L9.4 21.9 Q10.35 22.55 10.7 23.4 M42.85 35.8 Q42.95 36.4 42.2 36.8 40.95 36.2 39.5 36.05 L39.45 35.4 Q39.55 34.9 40.2 34.8 41.3 34.75 42.75 35.5 L42.85 35.8" fill="#000000" fill-opacity="0.3019608" fill-rule="evenodd" stroke="none"/>
      <path d="M39.55 34.9 Q40.9 35.05 41.75 35.55 42.7 35.7 42.95 35.3 L42.9 35.0 Q41.45 34.25 40.4 34.3 39.7 34.4 39.55 34.9" fill="#674718" fill-rule="evenodd" stroke="none"/>
      <path d="M42.95 35.3 Q42.7 35.7 41.75 35.55 40.9 35.05 39.55 34.9 L39.65 35.55 Q41.1 35.7 42.35 36.3 43.05 35.9 42.95 35.3" fill="#593e15" fill-rule="evenodd" stroke="none"/>
      <path d="M39.55 34.9 Q39.7 34.4 40.4 34.3 41.45 34.25 42.9 35.0 L42.95 35.3 Q43.05 35.9 42.35 36.3 41.1 35.7 39.65 35.55 L39.55 34.9 Z" fill="none" stroke="#000000" stroke-linecap="round" stroke-linejoin="round" stroke-opacity="0.3019608" stroke-width="0.30000000000000004"/>
      <path d="M41.3 39.1 L41.25 38.8 Q39.8 38.05 38.75 38.1 38.05 38.2 37.9 38.7 39.25 38.85 40.1 39.35 41.05 39.5 41.3 39.1" fill="#674718" fill-rule="evenodd" stroke="none"/>
      <path d="M37.9 38.7 L38.0 39.35 Q39.45 39.5 40.7 40.1 41.4 39.7 41.3 39.1 41.05 39.5 40.1 39.35 39.25 38.85 37.9 38.7" fill="#593e15" fill-rule="evenodd" stroke="none"/>
      <path d="M37.9 38.7 L38.0 39.35 Q39.45 39.5 40.7 40.1 41.4 39.7 41.3 39.1 L41.25 38.8 Q39.8 38.05 38.75 38.1 38.05 38.2 37.9 38.7 Z" fill="none" stroke="#000000" stroke-linecap="round" stroke-linejoin="round" stroke-opacity="0.3019608" stroke-width="0.30000000000000004"/>
      <path d="M11.15 17.9 L11.4 17.8 Q12.3 18.45 12.65 19.3 12.85 19.95 12.55 20.35 12.05 19.35 11.4 19.05 11.0 18.4 11.15 17.9" fill="#674718" fill-rule="evenodd" stroke="none"/>
      <path d="M12.55 20.35 L12.15 20.7 Q11.55 19.65 10.75 19.05 10.75 18.25 11.15 17.9 11.0 18.4 11.4 19.05 12.05 19.35 12.55 20.35" fill="#593e15" fill-rule="evenodd" stroke="none"/>
      <path d="M12.55 20.35 L12.15 20.7 Q11.55 19.65 10.75 19.05 10.75 18.25 11.15 17.9 L11.4 17.8 Q12.3 18.45 12.65 19.3 12.85 19.95 12.55 20.35 Z" fill="none" stroke="#000000" stroke-linecap="round" stroke-linejoin="round" stroke-opacity="0.3019608" stroke-width="0.30000000000000004"/>
      <path d="M10.75 24.0 Q10.25 23.0 9.6 22.7 9.2 22.05 9.35 21.55 L9.6 21.45 Q10.5 22.1 10.85 22.95 11.05 23.6 10.75 24.0" fill="#674718" fill-rule="evenodd" stroke="none"/>
      <path d="M9.35 21.55 Q9.2 22.05 9.6 22.7 10.25 23.0 10.75 24.0 L10.35 24.35 Q9.75 23.3 8.95 22.7 8.95 21.9 9.35 21.55" fill="#593e15" fill-rule="evenodd" stroke="none"/>
      <path d="M10.75 24.0 Q11.05 23.6 10.85 22.95 10.5 22.1 9.6 21.45 L9.35 21.55 Q8.95 21.9 8.95 22.7 9.75 23.3 10.35 24.35 L10.75 24.0 Z" fill="none" stroke="#000000" stroke-linecap="round" stroke-linejoin="round" stroke-opacity="0.3019608" stroke-width="0.30000000000000004"/>
      <path d="M41.1 29.5 L41.7 29.95 Q42.65 30.9 42.2 32.35 L41.65 33.45 Q40.65 34.95 38.8 35.05 L38.45 35.2 38.2 35.3 38.75 36.35 Q39.0 37.25 38.5 38.05 L37.1 39.3 36.9 39.4 35.5 39.75 35.35 39.8 34.85 39.9 Q33.65 40.0 32.45 38.9 L31.25 37.45 Q30.75 36.3 29.85 35.95 L29.65 35.95 28.6 36.05 27.7 35.85 27.4 36.4 Q26.4 37.9 24.85 38.85 L22.9 39.75 Q19.75 40.7 16.85 39.35 L15.85 38.8 14.85 38.25 Q11.7 36.3 10.65 32.45 9.6 28.55 11.25 25.05 L11.4 24.75 11.0 24.55 Q9.75 23.8 9.6 22.45 L9.5 22.25 Q8.8 21.55 7.65 21.6 L11.65 14.6 19.0 10.65 18.8 11.2 18.75 11.25 Q17.9 13.65 17.8 16.5 L17.8 17.1 17.9 19.55 Q19.7 19.1 21.45 19.5 22.95 19.75 24.4 20.7 L26.55 22.5 Q27.6 23.6 28.25 25.1 L28.95 26.95 29.2 28.1 32.45 26.65 39.75 28.5 38.75 29.25 40.4 29.2 41.1 29.5" fill="#000000" fill-opacity="0.3019608" fill-rule="evenodd" stroke="none"/>
      <path d="M15.15 23.4 L15.0 23.45 15.1 23.35 Q17.35 21.85 17.05 20.05 16.7 18.1 16.7 16.3 16.75 13.55 17.4 11.25 L17.7 10.35 Q18.75 7.5 16.3 7.5 L16.0 7.5 15.55 7.55 Q14.95 7.55 14.45 7.85 L14.8 7.6 15.9 7.3 16.35 7.25 16.7 7.25 17.65 7.45 Q18.4 7.8 18.35 8.7 L18.05 10.15 17.75 11.0 Q17.05 13.25 17.05 16.1 L17.05 16.15 17.4 19.8 Q17.45 21.05 16.65 22.15 L15.15 23.4 M5.0 16.25 Q5.3 15.3 5.95 14.95 6.5 14.5 7.35 14.6 L8.1 14.75 8.25 14.9 6.2 15.0 Q5.45 15.3 5.0 16.25 M8.7 9.65 L9.25 9.2 9.4 9.1 11.3 8.6 12.25 8.65 10.95 9.05 11.4 9.25 11.55 9.35 12.2 10.0 Q12.6 10.55 12.7 11.4 L12.55 12.0 11.9 10.2 11.45 9.7 Q10.9 9.2 10.2 9.1 9.5 9.1 8.7 9.65" fill="#ffffff" fill-rule="evenodd" stroke="none"/>
      <path d="M17.3 6.95 L17.35 6.95 17.6 6.9 18.95 7.05 Q18.85 7.45 17.65 7.45 L16.7 7.25 16.35 7.25 15.9 7.3 14.8 7.6 Q15.75 6.95 17.25 6.95 L17.3 6.95 M5.95 14.95 Q6.5 14.2 7.85 14.2 L7.9 14.35 8.1 14.75 7.35 14.6 Q6.5 14.5 5.95 14.95 M12.85 8.95 L12.95 9.0 13.3 9.35 Q12.9 10.15 12.7 11.4 12.6 10.55 12.2 10.0 L11.55 9.35 11.4 9.25 Q12.85 9.3 12.85 8.95" fill="#d9d5d0" fill-rule="evenodd" stroke="none"/>
      <path d="M18.95 7.05 Q19.8 7.4 19.8 8.4 19.1 8.05 18.35 8.7 18.4 7.8 17.65 7.45 18.85 7.45 18.95 7.05 M15.0 23.45 L14.3 23.6 14.0 23.7 Q11.5 22.4 11.1 20.2 10.95 19.35 11.1 18.35 L10.65 18.95 7.3 18.85 6.45 18.5 Q4.65 17.4 6.2 15.0 L8.25 14.9 9.35 16.3 9.5 16.5 10.9 17.75 12.95 19.2 12.7 19.05 9.9 16.2 Q8.25 14.0 8.3 12.3 L8.35 11.85 Q8.75 10.25 10.2 9.1 10.9 9.2 11.45 9.7 L11.9 10.2 12.55 12.0 12.45 14.1 12.45 14.5 Q12.45 15.55 12.6 16.6 12.7 17.5 13.5 18.5 L14.05 19.2 13.8 18.35 Q13.0 16.15 12.85 14.25 12.75 12.25 13.2 10.65 13.5 9.5 14.4 8.65 15.05 8.05 16.0 7.5 L16.3 7.5 Q18.75 7.5 17.7 10.35 L17.4 11.25 Q16.75 13.55 16.7 16.3 16.7 18.1 17.05 20.05 17.35 21.85 15.1 23.35 L15.0 23.45 M12.25 8.65 L12.85 8.95 Q12.85 9.3 11.4 9.25 L10.95 9.05 12.25 8.65" fill="#f8f5f5" fill-rule="evenodd" stroke="none"/>
      <path d="M19.8 8.4 L19.5 9.8 19.45 9.85 Q18.6 12.2 18.5 15.1 L18.45 15.7 Q17.8 16.7 17.05 16.15 L17.05 16.1 Q17.05 13.25 17.75 11.0 L18.05 10.15 18.35 8.7 Q19.1 8.05 19.8 8.4" fill="#e8e4e3" fill-rule="evenodd" stroke="none"/>
      <path d="M14.0 23.7 Q12.7 23.85 11.65 23.15 10.45 22.4 10.25 21.05 L10.2 20.85 Q9.5 20.15 8.35 20.25 6.4 19.95 5.55 19.15 4.8 18.45 4.75 17.45 4.8 16.8 5.0 16.25 5.45 15.3 6.2 15.0 4.65 17.4 6.45 18.5 L7.3 18.85 10.65 18.95 11.1 18.35 Q10.95 19.35 11.1 20.2 11.5 22.4 14.0 23.7 M7.85 14.2 Q7.5 13.55 7.45 12.9 7.4 11.75 8.0 10.65 L8.7 9.65 Q9.5 9.1 10.2 9.1 8.75 10.25 8.35 11.85 L8.3 12.3 Q8.25 14.0 9.9 16.2 L12.7 19.05 12.95 19.2 10.9 17.75 9.5 16.5 9.35 16.3 8.25 14.9 8.1 14.75 7.9 14.35 7.85 14.2 M13.3 9.35 L13.3 9.3 Q13.75 8.35 14.45 7.85 14.95 7.55 15.55 7.55 L16.0 7.5 Q15.05 8.05 14.4 8.65 13.5 9.5 13.2 10.65 12.75 12.25 12.85 14.25 13.0 16.15 13.8 18.35 L14.05 19.2 13.5 18.5 Q12.7 17.5 12.6 16.6 12.45 15.55 12.45 14.5 L12.45 14.1 12.55 12.0 12.7 11.4 Q12.9 10.15 13.3 9.35 M10.65 18.95 Q10.35 19.4 10.3 19.9 L10.2 20.2 10.25 20.8 10.2 20.85 10.25 20.8 10.2 20.2 10.3 19.9 Q10.35 19.4 10.65 18.95" fill="#f0edec" fill-rule="evenodd" stroke="none"/>
      <path d="M18.45 15.7 Q18.45 17.5 18.75 19.45 18.85 20.75 18.05 21.8 17.15 23.0 15.7 23.3 L15.15 23.4 16.65 22.15 Q17.45 21.05 17.4 19.8 L17.05 16.15 Q17.8 16.7 18.45 15.7" fill="#cac2bd" fill-rule="evenodd" stroke="none"/>
      <path d="M17.6 6.9 L17.3 6.95 M17.6 6.9 L18.95 7.05 Q19.8 7.4 19.8 8.4 L19.5 9.8 19.45 9.85 Q18.6 12.2 18.5 15.1 L18.45 15.7 Q18.45 17.5 18.75 19.45 18.85 20.75 18.05 21.8 17.15 23.0 15.7 23.3 L15.15 23.4 15.0 23.45 14.3 23.6 14.0 23.7 Q12.7 23.85 11.65 23.15 10.45 22.4 10.25 21.05 L10.2 20.85 Q9.5 20.15 8.35 20.25 6.4 19.95 5.55 19.15 4.8 18.45 4.75 17.45 4.8 16.8 5.0 16.25 5.3 15.3 5.95 14.95 6.5 14.2 7.85 14.2 7.5 13.55 7.45 12.9 7.4 11.75 8.0 10.65 L8.7 9.65 9.25 9.2 9.4 9.1 11.3 8.6 12.25 8.65 12.85 8.95 12.95 9.0 13.3 9.35 13.3 9.3 Q13.75 8.35 14.45 7.85 L14.8 7.6 Q15.75 6.95 17.25 6.95 L17.3 6.95 M12.6 16.6 Q12.45 15.55 12.45 14.5 L12.45 14.1 12.55 12.0 M10.9 17.75 L9.5 16.5 9.35 16.3 8.25 14.9 M12.7 11.4 Q12.9 10.15 13.3 9.35 M12.7 11.4 L12.55 12.0 M10.2 20.85 L10.25 20.8 10.2 20.2 10.3 19.9 Q10.35 19.4 10.65 18.95 M8.1 14.75 L8.25 14.9 M7.85 14.2 L7.9 14.35 8.1 14.75" fill="none" stroke="#000000" stroke-linecap="round" stroke-linejoin="round" stroke-opacity="0.3019608" stroke-width="0.30000000000000004"/>
      <path d="M15.55 19.5 L16.15 19.2 16.9 18.95 19.6 18.55 Q21.65 18.6 23.65 19.85 L25.1 20.95 25.4 21.25 Q27.1 21.8 27.2 21.1 28.25 22.25 28.9 23.75 27.85 23.35 27.35 24.0 L27.95 25.8 Q28.55 27.95 28.35 29.9 L28.0 31.7 27.55 33.05 27.4 33.3 25.75 35.8 Q24.4 37.15 22.6 37.85 L22.2 37.95 21.65 38.1 17.5 38.0 16.45 37.4 Q19.2 38.75 22.1 37.8 L22.8 37.55 Q25.65 36.35 27.15 33.25 L27.75 31.65 28.1 29.9 Q28.3 28.0 27.75 25.9 27.2 23.9 26.05 22.4 L24.9 21.15 23.45 20.1 Q20.3 18.1 16.9 19.2 L16.55 19.3 Q15.35 19.75 14.4 20.45 L15.55 19.5" fill="#ffff98" fill-rule="evenodd" stroke="none"/>
      <path d="M19.6 18.55 Q20.25 17.95 22.1 18.1 23.55 18.4 25.05 19.35 26.25 20.05 27.2 21.1 27.1 21.8 25.4 21.25 L25.1 20.95 23.65 19.85 Q21.65 18.6 19.6 18.55 M27.55 33.05 L28.0 31.7 28.35 29.9 Q28.55 27.95 27.95 25.8 L27.35 24.0 Q27.85 23.35 28.9 23.75 L29.6 25.6 Q30.55 29.15 29.35 32.45 27.65 34.05 27.55 33.05" fill="#ffde4f" fill-rule="evenodd" stroke="none"/>
      <path d="M22.1 18.1 Q20.25 17.95 19.6 18.55 L16.9 18.95 16.15 19.2 15.55 19.5 Q16.6 18.75 17.95 18.35 L22.1 18.1 M14.4 20.45 Q15.35 19.75 16.55 19.3 L16.9 19.2 Q20.3 18.1 23.45 20.1 L24.9 21.15 26.05 22.4 Q27.2 23.9 27.75 25.9 28.3 28.0 28.1 29.9 L27.75 31.65 27.15 33.25 Q25.65 36.35 22.8 37.55 L22.1 37.8 Q19.2 38.75 16.45 37.4 L15.5 36.9 Q12.35 34.9 11.3 31.1 10.25 27.2 11.85 23.7 12.85 21.65 14.4 20.45 M21.25 25.65 L20.7 25.75 20.9 26.0 21.25 25.9 21.25 25.65" fill="#f4a33c" fill-rule="evenodd" stroke="none"/>
      <path d="M21.65 38.1 L22.2 37.95 22.6 37.85 Q24.4 37.15 25.75 35.8 27.9 34.05 28.05 35.05 27.05 36.5 25.5 37.45 23.15 38.35 21.65 38.1" fill="#cc6b22" fill-rule="evenodd" stroke="none"/>
      <path d="M17.5 38.0 L21.65 38.1 Q23.15 38.35 25.5 37.45 L23.55 38.4 Q20.4 39.35 17.5 38.0 M25.75 35.8 L27.4 33.3 27.55 33.05 Q27.65 34.05 29.35 32.45 L28.95 33.45 28.05 35.05 Q27.9 34.05 25.75 35.8" fill="#894518" fill-rule="evenodd" stroke="none"/>
      <path d="M21.25 25.65 L21.25 25.9 20.9 26.0 20.7 25.75 21.25 25.65" fill="#741414" fill-rule="evenodd" stroke="none"/>
      <path d="M22.1 18.1 L17.95 18.35 Q16.6 18.75 15.55 19.5 M27.2 21.1 Q26.25 20.05 25.05 19.35 23.55 18.4 22.1 18.1 M16.45 37.4 L17.5 38.0 M28.9 23.75 Q28.25 22.25 27.2 21.1 M14.4 20.45 L15.55 19.5 M16.45 37.4 L15.5 36.9 Q12.35 34.9 11.3 31.1 10.25 27.2 11.85 23.7 12.85 21.65 14.4 20.45 M28.9 23.75 L29.6 25.6 Q30.55 29.15 29.35 32.45 L28.95 33.45 28.05 35.05 Q27.05 36.5 25.5 37.45 L23.55 38.4 Q20.4 39.35 17.5 38.0" fill="none" stroke="#000000" stroke-linecap="round" stroke-linejoin="round" stroke-opacity="0.3019608" stroke-width="0.30000000000000004"/>
      <path d="M20.9 36.05 Q18.85 36.55 16.85 35.6 L16.75 35.55 16.1 35.2 Q13.5 33.6 12.65 30.45 11.75 27.35 13.1 24.5 13.9 22.8 15.15 21.8 15.8 21.35 16.6 21.05 L17.25 20.75 17.55 20.65 17.55 20.7 16.65 21.05 Q16.05 21.35 15.5 21.75 14.25 22.75 13.45 24.4 L13.4 24.5 Q12.1 27.3 12.95 30.35 13.5 32.45 14.8 33.85 L16.4 35.1 17.15 35.5 17.2 35.5 18.95 36.1 20.9 36.05" fill="#ffff98" fill-rule="evenodd" stroke="none"/>
      <path d="M20.9 36.05 L18.95 36.1 17.2 35.5 17.15 35.5 16.4 35.1 14.8 33.85 15.55 33.7 17.1 34.95 17.85 35.35 20.2 35.95 21.2 35.95 21.3 35.95 20.9 36.05 M13.4 24.5 L13.45 24.4 Q14.25 22.75 15.5 21.75 16.05 21.35 16.65 21.05 L17.55 20.7 18.1 20.6 Q17.05 20.95 16.2 21.6 14.95 22.5 14.2 24.05 L13.4 24.5" fill="#cc6b22" fill-rule="evenodd" stroke="none"/>
      <path d="M14.8 33.85 Q13.5 32.45 12.95 30.35 12.1 27.3 13.4 24.5 L14.2 24.05 14.15 24.2 Q12.8 27.05 13.65 30.2 14.25 32.3 15.55 33.7 L14.8 33.85" fill="#ffde4f" fill-rule="evenodd" stroke="none"/>
      <path d="M18.2 20.55 L18.55 20.45 Q20.6 20.25 22.6 21.5 25.15 23.1 26.05 26.25 26.9 29.35 25.55 32.2 24.25 34.9 21.75 35.85 L21.7 35.8 21.45 35.95 21.3 35.95 21.2 35.95 20.2 35.95 20.35 35.9 20.35 35.95 Q22.95 35.0 24.2 32.3 25.55 29.45 24.7 26.35 23.8 23.2 21.25 21.6 19.75 20.65 18.2 20.55" fill="#741414" fill-rule="evenodd" stroke="none"/>
      <path d="M18.1 20.6 L18.2 20.55 Q19.75 20.65 21.25 21.6 23.8 23.2 24.7 26.35 25.55 29.45 24.2 32.3 22.95 35.0 20.35 35.95 L20.35 35.9 20.2 35.95 17.85 35.35 17.1 34.95 15.55 33.7 Q14.25 32.3 13.65 30.2 12.8 27.05 14.15 24.2 L14.2 24.05 Q14.95 22.5 16.2 21.6 17.05 20.95 18.1 20.6" fill="#911a1a" fill-rule="evenodd" stroke="none"/>
      <path d="M18.1 20.6 L18.2 20.55 18.55 20.45 Q20.6 20.25 22.6 21.5 25.15 23.1 26.05 26.25 26.9 29.35 25.55 32.2 24.25 34.9 21.75 35.85 L21.7 35.8 21.45 35.95 21.3 35.95" fill="none" stroke="#000000" stroke-linecap="round" stroke-linejoin="round" stroke-opacity="0.3019608" stroke-width="0.30000000000000004"/>
      <path d="M39.3 23.2 L39.1 22.85 Q38.65 22.05 38.15 21.85 L37.65 21.7 37.7 21.7 38.0 21.65 38.05 21.65 38.5 21.75 38.8 21.85 39.35 22.5 39.7 23.1 39.9 23.55 40.1 24.75 39.9 25.75 Q39.55 26.8 38.45 27.8 L37.9 28.2 38.2 28.2 38.35 28.2 37.95 28.25 37.8 28.3 37.95 28.25 38.35 28.2 38.95 28.2 39.4 28.25 40.1 28.55 40.5 28.85 Q41.6 29.8 41.25 31.2 L40.65 32.55 39.45 33.7 39.1 33.8 40.25 32.65 40.75 31.7 Q41.5 29.8 39.7 28.65 L38.6 28.3 38.15 28.3 37.9 28.3 37.8 28.3 Q37.65 28.35 37.55 28.5 L37.55 28.3 38.75 27.25 39.6 25.6 39.65 24.5 39.5 23.7 39.3 23.2 M37.55 36.2 Q37.7 35.2 36.8 34.0 L36.95 34.05 37.6 35.05 Q38.05 36.0 37.6 36.9 L36.55 38.05 36.15 38.4 36.0 38.4 35.5 38.55 36.3 37.95 Q37.4 37.15 37.55 36.2" fill="#ffffff" fill-rule="evenodd" stroke="none"/>
      <path d="M39.4 27.85 Q40.3 27.65 41.05 27.85 L39.4 28.25 38.95 28.2 38.35 28.2 39.4 27.85 M42.85 31.0 L42.3 32.1 Q41.3 33.6 39.45 33.7 L40.65 32.55 41.25 31.2 Q42.3 30.55 42.85 31.0 M39.15 36.7 L37.75 37.95 37.55 38.05 36.15 38.4 36.55 38.05 37.6 36.9 Q38.65 36.3 39.15 36.7" fill="#d9d5d0" fill-rule="evenodd" stroke="none"/>
      <path d="M37.65 21.7 L38.15 21.85 Q38.65 22.05 39.1 22.85 L39.3 23.2 Q39.55 25.25 38.1 26.8 36.3 28.5 33.15 30.0 L30.25 31.2 32.95 30.65 Q34.3 30.25 35.45 29.65 L37.55 28.5 Q37.65 28.35 37.8 28.3 L37.9 28.3 38.15 28.3 38.6 28.3 39.7 28.65 Q41.5 29.8 40.75 31.7 39.5 34.15 35.45 33.3 33.7 32.95 31.5 32.0 L31.1 31.85 32.9 32.7 33.6 33.0 34.9 33.5 35.2 33.65 36.65 34.0 36.8 34.0 Q37.7 35.2 37.55 36.2 36.25 37.75 34.5 36.9 L33.7 36.45 Q31.4 35.0 31.8 33.6 L31.95 33.35 32.25 32.75 30.25 33.45 28.9 33.3 Q28.1 33.05 28.0 32.45 28.9 29.8 28.4 27.25 33.5 25.7 36.3 22.65 37.05 21.9 37.65 21.7 M39.9 25.75 L40.1 24.75 39.9 23.55 39.7 23.1 40.95 23.2 41.45 22.95 41.5 23.15 Q41.95 24.4 41.45 25.6 L39.9 25.75 M38.8 21.85 L38.5 21.75 38.05 21.65 39.05 21.4 39.25 21.3 40.35 21.35 40.45 21.4 40.3 21.4 Q39.2 21.4 38.8 21.85 M42.35 28.6 Q43.3 29.55 42.85 31.0 42.3 30.55 41.25 31.2 41.6 29.8 40.5 28.85 L42.35 28.6 M39.4 35.0 Q39.65 35.85 39.15 36.7 38.65 36.3 37.6 36.9 38.05 36.0 37.6 35.05 L39.4 35.0" fill="#f8f5f5" fill-rule="evenodd" stroke="none"/>
      <path d="M39.3 23.2 L39.5 23.7 39.65 24.5 39.6 25.6 38.75 27.25 37.55 28.3 37.55 28.5 35.45 29.65 Q34.3 30.25 32.95 30.65 L30.25 31.2 33.15 30.0 Q36.3 28.5 38.1 26.8 39.55 25.25 39.3 23.2 M28.0 32.45 Q28.1 33.05 28.9 33.3 L30.25 33.45 32.25 32.75 31.95 33.35 31.8 33.6 Q31.4 35.0 33.7 36.45 L34.5 36.9 Q36.25 37.75 37.55 36.2 37.4 37.15 36.3 37.95 L35.5 38.55 Q34.3 38.65 33.1 37.55 L31.9 36.1 Q31.4 34.95 30.5 34.6 L30.25 34.6 29.25 34.7 Q28.5 34.65 27.75 34.2 L27.35 33.9 28.0 32.45 M36.8 34.0 L36.65 34.0 35.2 33.65 34.9 33.5 33.6 33.0 32.9 32.7 31.1 31.85 31.5 32.0 Q33.7 32.95 35.45 33.3 39.5 34.15 40.75 31.7 L40.25 32.65 39.1 33.8 38.85 33.95 36.95 34.05 36.8 34.0 M30.5 34.6 L31.05 34.3 31.8 33.6 31.05 34.3 30.5 34.6" fill="#f0edec" fill-rule="evenodd" stroke="none"/>
      <path d="M39.7 23.1 L39.35 22.5 38.8 21.85 Q39.2 21.4 40.3 21.4 L40.45 21.4 41.3 22.55 41.45 22.95 40.95 23.2 39.7 23.1 M41.05 27.85 L41.75 28.1 42.35 28.6 40.5 28.85 40.1 28.55 39.4 28.25 41.05 27.85" fill="#e8e4e3" fill-rule="evenodd" stroke="none"/>
      <path d="M38.35 28.2 L38.2 28.2 37.9 28.2 38.45 27.8 Q39.55 26.8 39.9 25.75 L41.45 25.6 Q40.95 26.75 39.4 27.85 L38.35 28.2 M38.85 33.95 L39.4 35.0 37.6 35.05 36.95 34.05 38.85 33.95" fill="#cac2bd" fill-rule="evenodd" stroke="none"/>
      <path d="M37.55 28.5 Q37.65 28.35 37.8 28.3 L37.95 28.25 38.35 28.2 M38.05 21.65 L38.0 21.65 37.7 21.7 37.65 21.7 Q37.05 21.9 36.3 22.65 33.5 25.7 28.4 27.25 28.9 29.8 28.0 32.45 M31.95 33.35 L31.8 33.6 31.05 34.3 30.5 34.6 30.25 34.6 29.25 34.7 Q28.5 34.65 27.75 34.2 L27.35 33.9 28.0 32.45 M36.65 34.0 L35.2 33.65 34.9 33.5 33.6 33.0 32.9 32.7 M41.45 22.95 L41.5 23.15 Q41.95 24.4 41.45 25.6 40.95 26.75 39.4 27.85 40.3 27.65 41.05 27.85 L41.75 28.1 42.35 28.6 Q43.3 29.55 42.85 31.0 L42.3 32.1 Q41.3 33.6 39.45 33.7 L39.1 33.8 38.85 33.95 39.4 35.0 Q39.65 35.85 39.15 36.7 L37.75 37.95 37.55 38.05 36.15 38.4 36.0 38.4 35.5 38.55 Q34.3 38.65 33.1 37.55 L31.9 36.1 Q31.4 34.95 30.5 34.6 M40.45 21.4 L41.3 22.55 41.45 22.95 M40.45 21.4 L40.35 21.35 39.25 21.3 39.05 21.4 38.05 21.65 M39.4 27.85 L38.35 28.2 M37.55 28.5 L35.45 29.65 Q34.3 30.25 32.95 30.65 M38.85 33.95 L36.95 34.05 36.8 34.0 M36.15 38.4 L36.0 38.4" fill="none" stroke="#000000" stroke-linecap="round" stroke-linejoin="round" stroke-opacity="0.3019608" stroke-width="0.30000000000000004"/>
      <path d="M17.15 18.05 L17.8 17.75 18.6 18.1 18.6 18.35 17.3 18.6 17.15 18.05" fill="#cac2bd" fill-rule="evenodd" stroke="none"/>
      <path d="M16.85 18.3 L17.15 18.05 17.3 18.6 16.9 18.75 16.85 18.3" fill="#ffffff" fill-rule="evenodd" stroke="none"/>
      <path d="M16.9 18.75 L16.25 19.05 16.85 18.3 16.9 18.75" fill="#f3f1f1" fill-rule="evenodd" stroke="none"/>
      <path d="M18.6 18.1 L18.6 18.35 17.3 18.6 16.9 18.75 16.25 19.05" fill="none" stroke="#000000" stroke-linecap="round" stroke-linejoin="round" stroke-opacity="0.3019608" stroke-width="0.30000000000000004"/>
    </g>
    <g id="sprite0" transform="matrix(1.0, 0.0, 0.0, 1.0, 0.0, 0.0)">
      <use height="30.05" transform="matrix(1.0, 0.0, 0.0, 1.0, 0.0, 0.0)" width="32.95" xlink:href="#shape1"/>
    </g>
    <g id="shape1" transform="matrix(1.0, 0.0, 0.0, 1.0, 0.0, 0.0)">
      <path d="M30.5 9.4 L31.45 12.3 32.1 13.9 32.25 14.2 32.95 15.6 32.05 14.9 31.8 14.65 30.9 13.8 30.0 12.25 Q29.2 10.2 30.05 7.65 L30.5 9.4 M30.4 17.4 L29.3 18.4 Q29.65 16.15 30.8 16.6 L31.4 16.95 31.7 17.2 31.35 17.15 Q30.9 17.1 30.4 17.4 M20.3 29.65 L16.95 30.0 Q12.2 29.15 7.45 21.65 12.7 26.15 17.2 26.05 L19.15 25.85 Q21.35 25.0 23.4 23.15 26.2 20.6 28.6 16.1 28.35 21.8 25.5 25.55 23.55 28.05 20.3 29.65 M4.5 4.05 Q6.05 5.0 8.15 7.8 6.1 6.25 4.3 5.7 L0.0 5.6 Q1.05 3.1 3.85 3.7 4.15 3.8 4.5 4.05" fill="#cc6b22" fill-rule="evenodd" stroke="none"/>
      <path d="M31.6 16.3 L31.1 16.1 30.15 15.7 29.45 15.5 Q24.1 14.0 19.55 18.75 L17.6 21.1 15.7 23.95 Q15.8 18.1 14.9 13.45 L14.55 11.7 Q16.5 10.65 18.35 10.15 24.65 8.5 29.75 13.55 L30.65 14.5 31.4 15.45 31.75 15.85 32.4 16.75 31.6 16.3 M29.0 11.6 Q23.5 6.5 18.6 6.85 L16.15 7.3 Q14.85 7.75 13.65 8.8 L12.05 4.8 Q13.5 3.5 15.35 2.85 L18.9 2.6 Q24.8 3.25 29.0 11.6 M10.6 12.5 Q8.9 15.3 7.4 19.4 7.4 13.45 8.9 9.6 L10.6 12.5 M3.25 0.15 L4.95 0.0 Q10.9 0.2 13.5 11.85 14.6 16.85 15.1 23.85 11.7 10.1 4.7 2.0 L3.05 0.2 3.25 0.15" fill="#f4a33c" fill-rule="evenodd" stroke="none"/>
    </g>
    <g id="sprite1" transform="matrix(1.0, 0.0, 0.0, 1.0, 73.5, 65.0)">
      <use height="136.85" transform="matrix(1.0, 0.0, 0.0, 1.0, -73.5, -65.0)" width="148.25" xlink:href="#shape2"/>
    </g>
    <g id="shape2" transform="matrix(1.0, 0.0, 0.0, 1.0, 73.5, 65.0)">
      <path d="M36.65 -54.65 Q60.05 -42.0 69.75 -17.95 80.55 8.9 68.0 34.1 55.45 59.35 26.8 68.2 -1.8 77.05 -29.7 64.3 -57.6 51.6 -68.45 24.75 -79.3 -2.05 -66.75 -27.25 L-66.7 -27.3 Q-54.1 -52.5 -25.5 -61.4 3.1 -70.2 31.0 -57.5 L36.65 -54.65" fill="url(#gradient0)" fill-rule="evenodd" stroke="none"/>
    </g>
    <radialGradient cx="0" cy="0" gradientTransform="matrix(0.0914, 0.0, 0.0, 0.0914, 0.6, 3.4)" gradientUnits="userSpaceOnUse" id="gradient0" r="819.2" spreadMethod="pad">
      <stop offset="0.0" stop-color="#ffffff"/>
      <stop offset="1.0" stop-color="#ffffff" stop-opacity="0.0"/>
    </radialGradient>
  </defs>
</svg>
