<?xml version="1.0" encoding="UTF-8" standalone="no"?>
<svg xmlns:xlink="http://www.w3.org/1999/xlink" height="520.0px" width="520.0px" xmlns="http://www.w3.org/2000/svg">
  <g transform="matrix(10.0, 0.0, 0.0, 10.0, 0.0, 0.0)">
    <use height="52.0" transform="matrix(1.0, 0.0, 0.0, 1.0, 0.0, 0.0)" width="52.0" xlink:href="#shape0"/>
    <use height="136.85" transform="matrix(0.2088, 0.0, 0.0, 0.2017, 8.3553, 7.9371)" width="148.25" xlink:href="#sprite0"/>
  </g>
  <defs>
    <g id="shape0" transform="matrix(1.0, 0.0, 0.0, 1.0, 0.0, 0.0)">
      <path d="M52.0 0.0 L52.0 52.0 0.0 52.0 0.0 0.0 52.0 0.0" fill="#795fa9" fill-opacity="0.0" fill-rule="evenodd" stroke="none"/>
      <path d="M17.05 8.5 Q22.3 5.95 27.8 6.1 31.2 6.6 34.55 10.2 35.55 10.1 36.85 8.65 37.4 9.8 37.25 11.45 L40.65 10.9 42.6 10.2 42.55 11.65 42.8 11.6 43.5 11.65 Q45.7 11.8 47.65 13.15 48.3 13.75 48.05 14.25 47.8 14.7 46.55 15.05 L46.0 16.05 45.4 16.55 Q47.35 18.7 47.7 21.8 L47.7 23.25 Q47.3 25.45 45.35 23.95 44.65 24.35 43.6 24.25 42.75 24.15 42.1 23.7 L42.05 23.65 41.95 23.6 42.4 24.45 Q44.3 28.25 42.3 32.7 L41.55 34.1 Q39.95 36.0 38.75 34.45 L38.25 34.6 Q37.35 34.65 36.45 33.85 L35.3 32.3 35.25 32.25 34.85 31.25 Q34.55 30.55 34.75 29.8 L34.2 29.45 33.45 29.0 Q33.1 31.3 32.1 33.3 L29.45 32.6 29.45 33.0 Q30.2 33.3 30.65 34.15 L31.1 35.15 31.1 35.2 Q31.5 36.15 31.5 37.25 31.6 38.3 31.2 39.0 L31.65 39.65 Q34.1 42.35 30.45 43.25 L28.85 43.35 Q22.65 43.5 19.55 39.7 L18.3 37.65 17.65 36.15 17.6 35.95 16.9 37.25 16.25 38.8 16.3 38.85 Q17.05 39.55 17.05 40.55 L17.05 41.6 17.05 41.65 16.5 43.45 15.75 44.3 Q16.0 46.65 13.95 45.9 L13.25 45.45 Q10.4 43.5 9.45 40.5 L9.15 40.7 Q8.5 41.25 7.65 41.1 L7.45 41.05 5.6 41.1 Q4.85 38.85 5.4 36.65 5.65 35.8 6.05 35.0 L4.8 34.5 4.15 34.05 Q5.85 32.35 6.75 30.45 L6.95 30.0 Q5.2 29.45 4.45 27.85 6.0 27.5 7.2 26.45 6.95 24.1 7.0 22.1 L7.2 19.6 Q7.45 18.0 8.0 16.75 8.8 14.8 10.8 12.85 13.1 10.6 17.05 8.5 M40.7 21.95 L40.3 21.5 40.65 21.65 40.65 21.8 40.7 21.95" fill="none" stroke="#000000" stroke-linecap="round" stroke-linejoin="round" stroke-opacity="0.3019608" stroke-width="1.0"/>
      <path d="M43.65 13.3 Q43.4 13.55 43.5 13.85 L43.45 13.85 Q43.15 14.55 43.75 15.4 L43.75 15.55 44.15 16.05 44.2 16.0 45.35 16.65 45.4 16.6 46.05 16.05 Q46.65 15.5 46.6 14.65 46.7 13.7 45.9 13.3 L44.05 13.15 43.9 13.2 43.65 13.3" fill="#fea64e" fill-rule="evenodd" stroke="none"/>
      <path d="M45.35 16.65 L44.2 16.0 44.15 16.05 43.75 15.55 43.75 15.4 Q43.15 14.55 43.45 13.85 L43.5 13.85 Q43.4 13.55 43.65 13.3 42.85 13.6 42.15 14.2 41.35 15.0 41.35 15.85 41.35 16.75 42.05 17.2 L43.9 17.3 Q44.75 17.15 45.35 16.65" fill="#fd8002" fill-rule="evenodd" stroke="none"/>
      <path d="M43.9 13.2 L44.05 13.15 45.9 13.3 Q46.7 13.7 46.6 14.65 46.65 15.5 46.05 16.05 L45.4 16.6 M45.35 16.65 Q44.75 17.15 43.9 17.3 L42.05 17.2 Q41.35 16.75 41.35 15.85 41.35 15.0 42.15 14.2 42.85 13.6 43.65 13.3" fill="none" stroke="#000000" stroke-linecap="round" stroke-linejoin="round" stroke-opacity="0.3019608" stroke-width="0.30000000000000004"/>
      <path d="M45.3 15.55 L45.5 15.9 45.8 16.05 46.1 15.75 46.25 15.3 46.1 14.85 45.8 14.8 45.45 15.05 45.3 15.55" fill="#feb770" fill-rule="evenodd" stroke="none"/>
      <path d="M42.8 11.6 L43.5 11.65 Q43.2 13.2 46.05 13.5 L46.85 13.45 47.65 13.15 Q48.3 13.75 48.05 14.25 47.8 14.75 46.45 15.1 45.6 15.35 44.9 15.7 L42.7 13.6 42.8 11.6" fill="#334044" fill-rule="evenodd" stroke="none"/>
      <path d="M43.5 11.65 Q45.7 11.8 47.65 13.15 L46.85 13.45 46.05 13.5 Q43.2 13.2 43.5 11.65" fill="#4e6269" fill-rule="evenodd" stroke="none"/>
      <path d="M44.9 15.7 Q41.9 17.1 39.95 19.65 37.4 20.2 35.55 17.45 35.05 14.75 37.8 13.1 40.4 11.7 42.8 11.6 L42.7 13.6 44.9 15.7" fill="#21292c" fill-rule="evenodd" stroke="none"/>
      <path d="M42.8 11.6 L43.5 11.65 Q45.7 11.8 47.65 13.15 48.3 13.75 48.05 14.25 47.8 14.75 46.45 15.1 45.6 15.35 44.9 15.7 41.9 17.1 39.95 19.65 37.4 20.2 35.55 17.45 35.05 14.75 37.8 13.1 40.4 11.7 42.8 11.6 Z" fill="none" stroke="#000000" stroke-linecap="round" stroke-linejoin="round" stroke-opacity="0.3019608" stroke-width="0.05"/>
      <path d="M43.25 12.6 L43.95 13.7 42.8 14.75 41.3 14.3 41.65 13.0 43.25 12.6 M45.55 12.6 L46.8 13.1 46.45 13.8 45.0 13.75 44.45 13.0 45.55 12.6" fill="#db0202" fill-opacity="0.6901961" fill-rule="evenodd" stroke="none"/>
      <path d="M6.85 37.9 L7.45 37.85 Q8.15 37.65 8.9 38.35 L9.05 38.4 9.45 38.85 9.4 38.85 Q9.8 39.45 9.85 40.2 L9.85 40.15 9.15 40.75 Q8.55 41.25 7.65 41.05 6.75 41.0 6.45 40.15 6.15 39.35 6.65 38.3 L6.7 38.1 6.85 37.9" fill="#fea64e" fill-rule="evenodd" stroke="none"/>
      <path d="M9.85 40.2 Q9.8 39.45 9.4 38.85 L9.45 38.85 9.05 38.4 8.9 38.35 Q8.15 37.65 7.45 37.85 L6.85 37.9 8.0 36.6 Q8.85 35.9 9.75 36.05 10.65 36.15 10.95 37.0 11.2 37.8 10.8 38.8 10.5 39.6 9.85 40.2" fill="#fd8002" fill-rule="evenodd" stroke="none"/>
      <path d="M6.7 38.1 L6.65 38.3 Q6.15 39.35 6.45 40.15 6.75 41.0 7.65 41.05 8.55 41.25 9.15 40.75 L9.85 40.15 M9.85 40.2 Q10.5 39.6 10.8 38.8 11.2 37.8 10.95 37.0 10.65 36.15 9.75 36.05 8.85 35.9 8.0 36.6 L6.85 37.9" fill="none" stroke="#000000" stroke-linecap="round" stroke-linejoin="round" stroke-opacity="0.3019608" stroke-width="0.30000000000000004"/>
      <path d="M8.8 39.95 Q9.05 40.0 9.1 40.15 L9.2 40.55 8.85 40.8 8.35 40.8 8.0 40.6 7.95 40.3 8.3 40.0 8.8 39.95" fill="#feb770" fill-rule="evenodd" stroke="none"/>
      <path d="M7.8 32.4 L8.1 32.5 5.95 35.9 8.5 35.75 Q8.0 37.55 8.55 39.6 L7.75 40.55 Q6.4 42.8 5.6 41.1 6.15 41.2 6.8 40.15 8.45 37.3 7.8 36.35 7.2 35.45 5.4 36.65 6.0 34.45 7.8 32.4" fill="#334044" fill-rule="evenodd" stroke="none"/>
      <path d="M5.4 36.65 Q7.2 35.45 7.8 36.35 8.45 37.3 6.8 40.15 6.15 41.2 5.6 41.1 4.85 38.85 5.4 36.65" fill="#4e6269" fill-rule="evenodd" stroke="none"/>
      <path d="M8.55 39.6 Q8.0 37.55 8.5 35.75 L5.95 35.9 8.1 32.5 7.8 32.4 8.5 31.65 Q10.9 29.6 13.3 30.85 15.35 33.45 14.1 35.7 10.85 36.8 8.55 39.6" fill="#21292c" fill-rule="evenodd" stroke="none"/>
      <path d="M8.55 39.6 Q10.85 36.8 14.1 35.7 15.35 33.45 13.3 30.85 10.9 29.6 8.5 31.65 L7.8 32.4 Q6.0 34.45 5.4 36.65 4.85 38.85 5.6 41.1 6.4 42.8 7.75 40.55 L8.55 39.6 Z" fill="none" stroke="#000000" stroke-linecap="round" stroke-linejoin="round" stroke-opacity="0.3019608" stroke-width="0.05"/>
      <path d="M12.85 40.1 Q12.9 40.5 13.25 40.75 L13.2 40.75 Q13.5 41.6 14.75 41.9 L14.9 42.0 15.6 42.1 15.55 42.05 Q16.4 42.1 17.1 41.65 L17.1 41.6 17.1 40.55 Q17.1 39.6 16.35 38.85 15.6 38.0 14.65 38.25 13.7 38.5 13.1 39.65 L12.95 39.8 12.85 40.1" fill="#fea64e" fill-rule="evenodd" stroke="none"/>
      <path d="M17.1 41.65 Q16.4 42.1 15.55 42.05 L15.6 42.1 14.9 42.0 14.75 41.9 Q13.5 41.6 13.2 40.75 L13.25 40.75 Q12.9 40.5 12.85 40.1 12.5 41.05 12.5 42.15 12.5 43.45 13.25 44.3 14.0 45.0 14.9 44.8 15.85 44.55 16.5 43.5 17.0 42.65 17.1 41.65" fill="#fd8002" fill-rule="evenodd" stroke="none"/>
      <path d="M12.95 39.8 L13.1 39.65 Q13.7 38.5 14.65 38.25 15.6 38.0 16.35 38.85 17.1 39.6 17.1 40.55 L17.1 41.6 M17.1 41.65 Q17.0 42.65 16.5 43.5 15.85 44.55 14.9 44.8 14.0 45.0 13.25 44.3 12.5 43.45 12.5 42.15 12.5 41.05 12.85 40.1" fill="none" stroke="#000000" stroke-linecap="round" stroke-linejoin="round" stroke-opacity="0.3019608" stroke-width="0.30000000000000004"/>
      <path d="M16.1 40.7 L16.5 40.9 Q16.8 40.95 16.9 40.7 L16.9 40.2 16.6 39.75 Q16.45 39.5 16.15 39.45 L15.85 39.7 15.75 40.15 16.1 40.7" fill="#feb770" fill-rule="evenodd" stroke="none"/>
      <path d="M10.0 33.45 L9.65 35.9 Q11.6 35.95 13.8 35.05 13.45 36.75 14.45 39.75 15.45 37.3 16.7 36.55 L16.9 37.25 Q15.5 40.25 15.7 43.8 16.2 46.75 13.95 45.9 L13.25 45.45 Q14.4 45.15 13.55 42.1 12.85 38.05 11.65 36.95 10.15 36.25 9.05 38.45 8.9 37.1 9.15 35.6 9.4 34.35 10.0 33.45" fill="#334044" fill-rule="evenodd" stroke="none"/>
      <path d="M9.05 38.45 Q10.15 36.25 11.65 36.95 12.85 38.05 13.55 42.1 14.4 45.15 13.25 45.45 9.45 42.9 9.05 38.45" fill="#4e6269" fill-rule="evenodd" stroke="none"/>
      <path d="M16.9 37.25 L16.7 36.55 Q15.45 37.3 14.45 39.75 13.45 36.75 13.8 35.05 11.6 35.95 9.65 35.9 L10.0 33.45 Q11.1 31.8 13.4 31.4 17.6 32.2 18.15 35.1 L16.9 37.25" fill="#21292c" fill-rule="evenodd" stroke="none"/>
      <path d="M10.0 33.45 Q9.4 34.35 9.15 35.6 8.9 37.1 9.05 38.45 9.45 42.9 13.25 45.45 L13.95 45.9 Q16.2 46.75 15.7 43.8 15.5 40.25 16.9 37.25 L18.15 35.1 Q17.6 32.2 13.4 31.4 11.1 31.8 10.0 33.45 Z" fill="none" stroke="#000000" stroke-linecap="round" stroke-linejoin="round" stroke-opacity="0.3019608" stroke-width="0.05"/>
      <path d="M27.35 35.85 L27.95 36.3 27.95 36.35 Q28.55 36.95 29.6 36.6 L29.7 36.6 30.2 36.35 30.2 36.3 31.15 35.15 31.1 35.1 30.65 34.1 Q30.15 33.2 29.3 32.9 28.4 32.45 27.85 33.15 27.25 33.9 27.3 35.3 L27.35 35.55 27.35 35.85" fill="#fea64e" fill-rule="evenodd" stroke="none"/>
      <path d="M31.15 35.15 L30.2 36.3 30.2 36.35 29.7 36.6 29.6 36.6 Q28.55 36.95 27.95 36.35 L27.95 36.3 27.35 35.85 Q27.55 36.95 28.05 38.0 28.65 39.3 29.6 39.65 30.45 40.0 31.0 39.3 31.6 38.5 31.5 37.2 31.5 36.1 31.15 35.15" fill="#fd8002" fill-rule="evenodd" stroke="none"/>
      <path d="M27.35 35.55 L27.3 35.3 Q27.25 33.9 27.85 33.15 28.4 32.45 29.3 32.9 30.15 33.2 30.65 34.1 L31.1 35.1 M31.15 35.15 Q31.5 36.1 31.5 37.2 31.6 38.5 31.0 39.3 30.45 40.0 29.6 39.65 28.65 39.3 28.05 38.0 27.55 36.95 27.35 35.85" fill="none" stroke="#000000" stroke-linecap="round" stroke-linejoin="round" stroke-opacity="0.3019608" stroke-width="0.30000000000000004"/>
      <path d="M29.95 34.75 L30.4 34.7 30.55 34.35 30.3 33.9 29.9 33.55 29.45 33.55 29.35 33.95 29.5 34.4 29.95 34.75" fill="#feb770" fill-rule="evenodd" stroke="none"/>
      <path d="M29.6 34.55 L29.6 34.65 Q30.05 37.3 31.65 39.65 34.1 42.35 30.45 43.25 L28.85 43.35 Q31.0 42.95 31.3 42.25 31.4 41.2 29.95 40.4 29.2 40.25 27.9 38.65 L26.25 36.75 Q26.55 34.85 27.65 33.6 L29.6 34.55 M17.5 33.6 Q17.8 35.75 18.7 37.0 20.05 34.9 22.05 34.3 L22.95 35.3 Q22.1 35.3 21.25 35.65 19.15 36.8 19.55 39.7 L18.3 37.65 17.65 36.15 Q17.3 34.85 17.5 33.6" fill="#334044" fill-rule="evenodd" stroke="none"/>
      <path d="M26.25 36.75 L27.9 38.65 Q29.2 40.25 29.95 40.4 31.4 41.2 31.3 42.25 31.0 42.95 28.85 43.35 22.65 43.5 19.55 39.7 19.15 36.8 21.25 35.65 22.1 35.3 22.95 35.3 24.45 36.8 26.1 37.7 L26.25 36.75" fill="#4e6269" fill-rule="evenodd" stroke="none"/>
      <path d="M29.6 34.55 L27.65 33.6 Q26.55 34.85 26.25 36.75 L26.1 37.7 Q24.45 36.8 22.95 35.3 L22.05 34.3 Q20.05 34.9 18.7 37.0 17.8 35.75 17.5 33.6 18.0 30.85 21.1 28.45 27.35 26.0 29.95 28.6 29.15 31.7 29.6 34.55" fill="#21292c" fill-rule="evenodd" stroke="none"/>
      <path d="M28.85 43.35 L30.45 43.25 Q34.1 42.35 31.65 39.65 30.05 37.3 29.6 34.65 M29.6 34.55 Q29.15 31.7 29.95 28.6 27.35 26.0 21.1 28.45 18.0 30.85 17.5 33.6 17.3 34.85 17.65 36.15 L18.3 37.65 19.55 39.7 Q22.65 43.5 28.85 43.35 Z" fill="none" stroke="#000000" stroke-linecap="round" stroke-linejoin="round" stroke-opacity="0.3019608" stroke-width="0.05"/>
      <path d="M43.5 20.15 L43.7 20.75 Q44.15 21.4 43.6 22.3 L43.6 22.45 43.3 22.95 43.25 22.9 42.15 23.75 42.1 23.7 41.35 23.15 Q40.75 22.7 40.65 21.85 40.5 20.9 41.2 20.4 41.95 19.95 43.05 20.1 L43.2 20.1 43.5 20.15" fill="#fea64e" fill-rule="evenodd" stroke="none"/>
      <path d="M42.15 23.75 L43.25 22.9 43.3 22.95 43.6 22.45 43.6 22.3 Q44.15 21.4 43.7 20.75 L43.5 20.15 45.05 20.95 Q45.95 21.7 46.05 22.5 46.15 23.4 45.4 23.9 L43.65 24.25 42.15 23.75" fill="#fd8002" fill-rule="evenodd" stroke="none"/>
      <path d="M43.2 20.1 L43.05 20.1 Q41.95 19.95 41.2 20.4 40.5 20.9 40.65 21.85 40.75 22.7 41.35 23.15 L42.1 23.7 M42.15 23.75 L43.65 24.25 45.4 23.9 Q46.15 23.4 46.05 22.5 45.95 21.7 45.05 20.95 L43.5 20.15" fill="none" stroke="#000000" stroke-linecap="round" stroke-linejoin="round" stroke-opacity="0.3019608" stroke-width="0.30000000000000004"/>
      <path d="M42.0 22.6 L41.95 22.95 41.55 23.1 41.25 22.85 41.05 22.4 Q41.05 22.15 41.2 21.95 L41.5 21.9 41.85 22.1 42.0 22.6" fill="#feb770" fill-rule="evenodd" stroke="none"/>
      <path d="M42.05 14.05 L44.2 15.4 Q41.25 15.3 41.5 17.75 L41.65 18.2 40.15 17.15 Q41.8 15.7 42.05 14.05 M47.7 21.8 L47.7 23.25 Q47.25 25.6 45.05 23.7 43.4 22.5 41.6 21.9 L40.9 20.75 42.35 19.6 Q43.45 21.35 45.95 22.4 47.0 22.85 47.7 21.8" fill="#334044" fill-rule="evenodd" stroke="none"/>
      <path d="M44.2 15.4 Q47.3 17.85 47.7 21.8 47.0 22.85 45.95 22.4 43.45 21.35 42.35 19.6 L42.95 19.05 41.65 18.2 41.65 18.25 41.65 18.2 41.5 17.75 Q41.25 15.3 44.2 15.4" fill="#4e6269" fill-rule="evenodd" stroke="none"/>
      <path d="M41.6 21.9 Q39.1 21.0 36.35 21.25 34.15 19.25 35.65 15.25 38.05 12.6 41.4 13.75 L42.05 14.05 Q41.8 15.7 40.15 17.15 L41.65 18.2 41.65 18.25 41.65 18.2 42.95 19.05 42.35 19.6 40.9 20.75 41.6 21.9" fill="#21292c" fill-rule="evenodd" stroke="none"/>
      <path d="M41.6 21.9 Q39.1 21.0 36.35 21.25 34.15 19.25 35.65 15.25 38.05 12.6 41.4 13.75 L42.05 14.05 44.2 15.4 Q47.3 17.85 47.7 21.8 L47.7 23.25 Q47.25 25.6 45.05 23.7 43.4 22.5 41.6 21.9 Z" fill="none" stroke="#000000" stroke-linecap="round" stroke-linejoin="round" stroke-opacity="0.3019608" stroke-width="0.05"/>
      <path d="M38.2 29.65 L38.1 30.3 38.15 30.35 Q38.2 31.2 37.3 31.8 L37.2 31.95 36.7 32.25 36.7 32.15 35.3 32.25 35.3 32.2 34.9 31.25 Q34.55 30.35 34.85 29.45 35.1 28.45 36.0 28.4 36.85 28.4 37.85 29.3 L38.0 29.4 38.2 29.65" fill="#fea64e" fill-rule="evenodd" stroke="none"/>
      <path d="M35.3 32.25 L36.7 32.15 36.7 32.25 37.2 31.95 37.3 31.8 Q38.2 31.2 38.15 30.35 L38.1 30.3 38.2 29.65 39.25 31.4 Q39.75 32.7 39.45 33.65 39.15 34.6 38.25 34.6 37.4 34.6 36.5 33.8 L35.3 32.25" fill="#fd8002" fill-rule="evenodd" stroke="none"/>
      <path d="M38.0 29.4 L37.85 29.3 Q36.85 28.4 36.0 28.4 35.1 28.45 34.85 29.45 34.55 30.35 34.9 31.25 L35.3 32.2 M35.3 32.25 L36.5 33.8 Q37.4 34.6 38.25 34.6 39.15 34.6 39.45 33.65 39.75 32.7 39.25 31.4 L38.2 29.65" fill="none" stroke="#000000" stroke-linecap="round" stroke-linejoin="round" stroke-opacity="0.3019608" stroke-width="0.30000000000000004"/>
      <path d="M35.7 31.1 L35.45 31.4 35.1 31.35 34.9 30.85 34.95 30.3 Q35.05 30.05 35.25 29.95 L35.6 30.05 35.8 30.5 35.7 31.1" fill="#feb770" fill-rule="evenodd" stroke="none"/>
      <path d="M38.4 20.3 L40.05 21.35 40.1 21.4 Q41.6 22.85 42.4 24.45 40.4 23.0 38.95 24.05 38.15 24.8 37.9 25.65 L36.7 23.45 Q38.25 23.05 39.95 21.95 L38.4 20.3 M42.3 32.7 L41.55 34.1 Q39.55 36.55 38.2 33.55 36.65 31.0 34.2 29.45 L34.7 27.3 Q36.25 27.3 37.9 27.95 L38.5 29.8 Q40.3 33.85 42.3 32.7" fill="#334044" fill-rule="evenodd" stroke="none"/>
      <path d="M42.4 24.45 Q44.3 28.25 42.3 32.7 40.3 33.85 38.5 29.8 L37.9 27.95 38.6 28.3 37.9 25.65 Q38.15 24.8 38.95 24.05 40.4 23.0 42.4 24.45" fill="#4e6269" fill-rule="evenodd" stroke="none"/>
      <path d="M34.2 29.45 Q32.25 28.2 29.75 27.6 28.5 24.6 32.7 20.8 35.85 19.35 38.4 20.3 L39.95 21.95 Q38.25 23.05 36.7 23.45 L37.9 25.65 38.6 28.3 37.9 27.95 Q36.25 27.3 34.7 27.3 L34.2 29.45" fill="#21292c" fill-rule="evenodd" stroke="none"/>
      <path d="M34.2 29.45 Q32.25 28.2 29.75 27.6 28.5 24.6 32.7 20.8 35.85 19.35 38.4 20.3 L40.05 21.35 40.1 21.4 Q41.6 22.85 42.4 24.45 44.3 28.25 42.3 32.7 L41.55 34.1 Q39.55 36.55 38.2 33.55 36.65 31.0 34.2 29.45 Z" fill="none" stroke="#000000" stroke-linecap="round" stroke-linejoin="round" stroke-opacity="0.3019608" stroke-width="0.05"/>
      <path d="M31.3 13.3 Q30.95 13.85 30.35 14.05 L29.2 13.95 Q28.6 13.65 28.3 13.05 27.9 12.4 28.1 11.8 28.3 11.25 29.0 11.15 L30.3 11.25 Q30.95 11.55 31.25 12.1 31.55 12.7 31.3 13.3 M27.2 17.35 Q27.7 17.5 27.85 17.95 28.1 18.3 27.9 18.7 L27.3 19.3 26.45 19.2 25.8 18.6 Q25.6 18.2 25.75 17.8 L26.35 17.3 27.2 17.35 M29.95 20.65 L29.7 20.35 29.75 19.95 Q29.85 19.8 30.05 19.75 L30.4 19.75 30.65 20.05 30.6 20.45 30.35 20.7 29.95 20.65" fill="none" stroke="#ff0000" stroke-linecap="round" stroke-linejoin="round" stroke-width="0.05"/>
      <path d="M10.8 12.85 Q13.1 10.6 17.05 8.5 22.3 5.95 27.8 6.1 31.2 6.6 34.55 10.2 35.55 10.1 36.85 8.65 37.0 10.15 35.85 11.15 35.25 10.85 34.55 10.2 35.25 10.85 35.85 11.15 L36.65 11.45 37.25 11.45 40.65 10.9 42.6 10.2 41.75 11.55 40.2 12.4 Q37.1 13.8 35.1 12.75 35.25 13.8 34.7 15.55 31.1 20.75 24.6 22.35 12.6 24.3 9.25 18.75 8.2 16.85 10.8 12.85 M40.15 15.85 L42.7 17.7 Q40.25 19.35 37.8 19.7 L37.65 19.7 37.8 19.65 Q40.1 19.1 41.4 17.8 40.65 16.75 39.1 15.75 L37.4 14.8 39.25 15.35 40.15 15.85 M37.95 21.5 Q39.0 23.95 39.05 26.5 37.85 24.7 36.4 23.9 L34.7 23.35 36.55 23.5 Q37.4 23.7 38.2 24.35 38.25 23.35 37.45 20.8 L37.1 19.8 37.5 20.55 37.95 21.5 M33.65 26.7 L33.45 28.9 Q33.15 31.25 32.1 33.3 L30.55 32.25 26.45 29.5 31.5 31.95 32.65 28.9 Q33.25 26.85 33.55 24.0 L33.6 25.1 33.65 26.7 M13.75 38.7 Q12.4 36.7 12.15 34.5 L12.1 33.3 Q12.1 31.95 12.65 30.45 L13.05 29.3 Q10.65 28.4 9.1 25.25 10.75 27.8 14.05 28.8 L13.5 30.05 Q12.15 33.5 13.65 37.25 14.05 33.35 17.95 30.1 14.95 33.85 13.75 38.7 M19.0 29.85 Q20.8 32.5 23.15 33.55 L25.5 29.45 25.2 30.15 23.45 34.4 Q20.35 33.3 19.0 29.85" fill="#db0202" fill-rule="evenodd" stroke="none"/>
      <path d="M36.85 8.65 Q37.4 9.8 37.25 11.45 L36.65 11.45 35.85 11.15 Q37.0 10.15 36.85 8.65 M4.15 34.05 Q5.85 32.35 6.75 30.45 L6.95 30.0 7.45 28.15 7.45 28.1 7.45 28.05 7.4 27.8 7.2 26.45 Q6.95 24.1 7.0 22.1 L7.8 25.65 Q8.4 27.5 7.95 29.4 6.5 32.85 4.15 34.05 M4.45 27.85 Q6.0 27.5 7.2 26.45 L7.4 27.8 4.45 27.85 M7.2 19.6 Q7.45 18.0 8.0 16.75 8.8 14.8 10.8 12.85 8.2 16.85 9.25 18.75 12.6 24.3 24.6 22.35 31.1 20.75 34.7 15.55 35.25 13.8 35.1 12.75 37.1 13.8 40.2 12.4 L41.75 11.55 39.85 13.45 Q38.65 14.25 37.1 14.7 L37.4 14.8 39.1 15.75 Q40.65 16.75 41.4 17.8 40.1 19.1 37.8 19.65 L37.65 19.7 37.1 19.8 37.45 20.8 Q38.25 23.35 38.2 24.35 37.4 23.7 36.55 23.5 L34.7 23.35 33.55 23.35 33.55 24.0 Q33.25 26.85 32.65 28.9 L31.5 31.95 26.45 29.5 26.25 29.25 25.75 28.65 25.5 29.35 25.5 29.45 23.15 33.55 Q20.8 32.5 19.0 29.85 L18.95 29.75 18.8 29.15 18.2 29.75 17.95 30.1 Q14.05 33.35 13.65 37.25 12.15 33.5 13.5 30.05 L14.05 28.8 Q10.75 27.8 9.1 25.25 7.9 22.95 7.2 19.6" fill="#b80101" fill-rule="evenodd" stroke="none"/>
      <path d="M42.6 10.2 Q42.9 13.5 40.15 15.85 L39.25 15.35 37.4 14.8 37.1 14.7 Q38.65 14.25 39.85 13.45 L41.75 11.55 42.6 10.2 M42.7 17.7 Q40.75 20.65 37.95 21.5 L37.5 20.55 37.1 19.8 37.65 19.7 37.8 19.7 Q40.25 19.35 42.7 17.7 M39.05 26.5 L35.65 26.35 33.65 26.7 33.6 25.1 33.55 24.0 33.55 23.35 34.7 23.35 36.4 23.9 Q37.85 24.7 39.05 26.5 M32.1 33.3 Q29.5 32.8 27.8 31.85 26.05 34.05 24.35 37.3 21.2 35.75 19.85 33.4 16.8 35.25 13.75 38.7 14.95 33.85 17.95 30.1 L18.2 29.75 18.8 29.15 18.95 29.75 19.0 29.85 Q20.35 33.3 23.45 34.4 L25.2 30.15 25.5 29.45 25.5 29.35 25.75 28.65 26.25 29.25 26.45 29.5 30.55 32.25 32.1 33.3 M4.8 34.5 L4.15 34.05 Q6.5 32.85 7.95 29.4 8.4 27.5 7.8 25.65 L7.0 22.1 7.2 19.6 Q7.9 22.95 9.1 25.25 10.65 28.4 13.05 29.3 L12.65 30.45 Q12.1 31.95 12.1 33.3 8.35 35.0 4.8 34.5 M6.95 30.0 Q5.2 29.45 4.45 27.85 L7.4 27.8 7.45 28.05 7.45 28.1 7.45 28.15 6.95 30.0 M27.8 31.85 L26.5 30.95 27.8 31.85 M19.85 33.4 L19.05 31.35 19.85 33.4" fill="#7e0101" fill-rule="evenodd" stroke="none"/>
      <path d="M12.15 34.5 Q7.2 35.9 4.8 34.5 8.35 35.0 12.1 33.3 L12.15 34.5" fill="#4b0101" fill-rule="evenodd" stroke="none"/>
      <path d="M10.8 12.85 Q13.1 10.6 17.05 8.5 22.3 5.95 27.8 6.1 31.2 6.6 34.55 10.2 35.55 10.1 36.85 8.65 37.4 9.8 37.25 11.45 L40.65 10.9 42.6 10.2 Q42.9 13.5 40.15 15.85 L42.7 17.7 Q40.75 20.65 37.95 21.5 39.0 23.95 39.05 26.5 L35.65 26.35 33.65 26.7 33.45 28.9 Q33.15 31.25 32.1 33.3 29.5 32.8 27.8 31.85 26.05 34.05 24.35 37.3 21.2 35.75 19.85 33.4 16.8 35.25 13.75 38.7 12.4 36.7 12.15 34.5 7.2 35.9 4.8 34.5 L4.15 34.05 Q5.85 32.35 6.75 30.45 L6.95 30.0 Q5.2 29.45 4.45 27.85 6.0 27.5 7.2 26.45 6.95 24.1 7.0 22.1 L7.2 19.6 Q7.45 18.0 8.0 16.75 8.8 14.8 10.8 12.85 M12.65 30.45 Q12.1 31.95 12.1 33.3 L12.15 34.5 M37.4 14.8 L37.1 14.7 M35.85 11.15 Q35.25 10.85 34.55 10.2 M37.95 21.5 L37.5 20.55 37.1 19.8 M37.25 11.45 L36.65 11.45 35.85 11.15 M40.15 15.85 L39.25 15.35 37.4 14.8 M7.4 27.8 L7.45 28.05 7.45 28.1 7.45 28.15 6.95 30.0 M7.4 27.8 L7.2 26.45 M33.65 26.7 L33.6 25.1 M19.05 31.35 L19.85 33.4 M26.5 30.95 L27.8 31.85" fill="none" stroke="#000000" stroke-linecap="round" stroke-linejoin="round" stroke-opacity="0.3019608" stroke-width="0.30000000000000004"/>
      <path d="M33.35 18.4 L35.65 19.4 36.0 21.5 33.95 21.85 32.3 19.9 33.35 18.4 M29.05 25.0 L29.05 24.2 29.9 23.85 30.35 24.5 29.8 25.2 29.05 25.0 M26.05 21.85 L27.9 22.15 27.7 24.3 25.75 25.3 24.7 23.75 26.05 21.85 M28.1 19.05 L28.75 19.8 28.05 20.7 27.05 20.5 27.05 19.4 28.1 19.05 M24.75 27.5 L24.8 26.65 25.65 26.35 26.15 27.0 25.6 27.7 24.75 27.5 M12.7 20.35 L12.3 19.75 12.8 18.95 13.5 19.1 13.45 19.95 12.7 20.35 M10.45 19.15 L11.35 20.7 10.25 22.65 8.65 22.3 8.8 20.15 10.45 19.15 M8.85 18.7 L8.4 17.9 9.1 16.95 9.95 17.1 9.85 18.1 8.85 18.7" fill="#7e0101" fill-opacity="0.57254905" fill-rule="evenodd" stroke="none"/>
      <path d="M8.4 24.2 L9.15 24.35 9.05 25.2 8.25 25.6 7.9 24.95 8.4 24.2" fill="#5c0101" fill-opacity="0.57254905" fill-rule="evenodd" stroke="none"/>
      <path d="M26.35 8.35 L24.05 8.5 Q21.4 8.95 18.15 10.6 14.85 12.3 12.85 14.15 11.65 15.3 11.4 16.1 10.7 16.0 10.5 15.55 10.05 14.6 12.0 12.8 L13.55 11.5 14.25 11.05 Q17.5 8.95 20.75 7.75 L21.85 7.4 23.2 7.1 Q25.8 6.6 26.3 7.55 26.5 7.85 26.35 8.35" fill="#000000" fill-opacity="0.101960786" fill-rule="evenodd" stroke="none"/>
      <path d="M11.4 16.1 Q11.65 15.3 12.85 14.15 14.85 12.3 18.15 10.6 21.4 8.95 24.05 8.5 L26.35 8.35 Q26.1 9.15 24.8 10.35 L23.85 11.15 Q23.05 10.9 19.1 13.75 16.15 15.55 13.65 16.0 L11.4 16.1" fill="#000000" fill-opacity="0.6627451" fill-rule="evenodd" stroke="none"/>
      <path d="M24.2 11.35 Q25.75 12.4 26.05 14.15 25.95 15.0 24.75 15.7 L26.05 17.25 24.35 15.9 21.85 17.15 Q23.95 15.95 25.5 14.45 26.2 13.85 24.2 11.35 M24.35 15.9 L24.75 15.7 24.35 15.9" fill="#b80101" fill-rule="evenodd" stroke="none"/>
      <path d="M11.4 16.1 L13.65 16.0 Q16.15 15.55 19.1 13.75 23.05 10.9 23.85 11.15 L24.8 10.35 Q26.1 9.15 26.35 8.35 M23.85 11.15 L24.2 11.35 Q25.75 12.4 26.05 14.15 25.95 15.0 24.75 15.7 L26.05 17.25 M24.35 15.9 L21.85 17.15 M24.75 15.7 L24.35 15.9" fill="none" stroke="#000000" stroke-linecap="round" stroke-linejoin="round" stroke-opacity="0.3019608" stroke-width="0.30000000000000004"/>
      <path d="M21.7 13.4 Q22.0 12.9 22.6 12.7 L23.7 12.8 Q24.25 13.1 24.45 13.65 24.65 14.25 24.3 14.8 L23.5 15.55 22.3 15.4 Q21.8 15.15 21.6 14.55 21.4 14.0 21.7 13.4" fill="#000000" fill-opacity="0.3019608" fill-rule="evenodd" stroke="none"/>
      <path d="M22.2 12.9 Q22.05 13.2 22.15 13.55 L22.6 14.1 23.3 14.15 23.8 13.7 23.85 13.05 23.4 12.5 22.75 12.5 22.2 12.9 M21.7 13.0 Q21.95 12.4 22.55 12.25 L23.7 12.35 Q24.25 12.65 24.4 13.25 L24.35 14.3 23.45 15.1 22.35 14.95 Q21.75 14.7 21.55 14.15 21.4 13.55 21.7 13.0" fill="#f4a33c" fill-rule="evenodd" stroke="none"/>
      <path d="M22.2 12.9 L22.75 12.5 23.4 12.5 23.85 13.05 23.8 13.7 23.3 14.15 22.6 14.1 22.15 13.55 Q22.05 13.2 22.2 12.9" fill="#ffde4f" fill-rule="evenodd" stroke="none"/>
      <path d="M21.7 13.0 Q21.95 12.4 22.55 12.25 L23.7 12.35 Q24.25 12.65 24.4 13.25 L24.35 14.3 23.45 15.1 22.35 14.95 Q21.75 14.7 21.55 14.15 21.4 13.55 21.7 13.0 Z" fill="none" stroke="#000000" stroke-linecap="round" stroke-linejoin="round" stroke-opacity="0.3019608" stroke-width="0.30000000000000004"/>
      <path d="M21.95 12.85 L22.3 12.65 22.6 12.75 22.65 13.0 22.5 13.35 22.2 13.5 21.9 13.5 Q21.75 13.4 21.85 13.15 L21.95 12.85" fill="#ffff98" fill-rule="evenodd" stroke="none"/>
      <path d="M40.1 29.25 L39.35 27.8 40.25 26.85 41.55 27.7 41.5 29.2 40.1 29.25" fill="#db0202" fill-opacity="0.6901961" fill-rule="evenodd" stroke="none"/>
      <path d="M41.9 26.4 L41.35 27.1 40.7 26.15 40.8 24.85 41.6 24.95 41.9 26.4" fill="#db0202" fill-opacity="0.6901961" fill-rule="evenodd" stroke="none"/>
      <path d="M42.8 29.1 L42.35 29.9 41.9 29.0 42.0 27.65 42.55 27.75 42.8 29.1" fill="#db0202" fill-opacity="0.6901961" fill-rule="evenodd" stroke="none"/>
      <path d="M13.95 42.3 L13.75 40.65 12.45 40.4 11.85 41.9 12.8 43.05 13.95 42.3" fill="#db0202" fill-opacity="0.6901961" fill-rule="evenodd" stroke="none"/>
      <path d="M9.4 37.8 L10.0 38.5 10.55 37.5 10.3 36.2 9.55 36.4 9.4 37.8" fill="#db0202" fill-opacity="0.6901961" fill-rule="evenodd" stroke="none"/>
      <path d="M22.2 39.3 L23.1 38.9 22.5 37.65 21.25 37.2 21.05 38.2 22.2 39.3" fill="#db0202" fill-opacity="0.6901961" fill-rule="evenodd" stroke="none"/>
      <path d="M20.3 39.25 L20.45 38.25 19.85 37.05 19.25 37.25 19.6 38.65 20.3 39.25" fill="#db0202" fill-opacity="0.6901961" fill-rule="evenodd" stroke="none"/>
      <path d="M26.55 42.65 L27.45 42.25 26.85 41.0 25.6 40.55 25.4 41.55 26.55 42.65" fill="#db0202" fill-opacity="0.6901961" fill-rule="evenodd" stroke="none"/>
    </g>
    <g id="sprite0" transform="matrix(1.0, 0.0, 0.0, 1.0, 73.5, 65.0)">
      <use height="136.85" transform="matrix(1.0, 0.0, 0.0, 1.0, -73.5, -65.0)" width="148.25" xlink:href="#shape1"/>
    </g>
    <g id="shape1" transform="matrix(1.0, 0.0, 0.0, 1.0, 73.5, 65.0)">
      <path d="M36.65 -54.65 Q60.05 -42.0 69.75 -17.95 80.55 8.9 68.0 34.1 55.45 59.35 26.8 68.2 -1.8 77.05 -29.7 64.3 -57.6 51.6 -68.45 24.75 -79.3 -2.05 -66.75 -27.25 L-66.7 -27.3 Q-54.1 -52.5 -25.5 -61.4 3.1 -70.2 31.0 -57.5 L36.65 -54.65" fill="url(#gradient0)" fill-rule="evenodd" stroke="none"/>
    </g>
    <radialGradient cx="0" cy="0" gradientTransform="matrix(0.0914, 0.0, 0.0, 0.0914, 0.6, 3.4)" gradientUnits="userSpaceOnUse" id="gradient0" r="819.2" spreadMethod="pad">
      <stop offset="0.0" stop-color="#ffffff"/>
      <stop offset="1.0" stop-color="#ffffff" stop-opacity="0.0"/>
    </radialGradient>
  </defs>
</svg>
