<?xml version="1.0" encoding="UTF-8" standalone="no"?>
<svg xmlns:xlink="http://www.w3.org/1999/xlink" height="440.0px" width="440.0px" xmlns="http://www.w3.org/2000/svg">
  <g transform="matrix(10.0, 0.0, 0.0, 10.0, 0.0, 0.0)">
    <use height="44.0" transform="matrix(1.0, 0.0, 0.0, 1.0, 0.0, 0.0)" width="44.0" xlink:href="#shape0"/>
    <use height="5.45" transform="matrix(-0.7486, -0.4002, -0.409, 0.7534, 25.0221, 15.9203)" width="5.5" xlink:href="#sprite0"/>
    <use height="5.05" transform="matrix(1.0, 0.0, 0.0, 1.0, 18.4, 12.85)" width="7.8" xlink:href="#shape2"/>
    <use height="105.6" transform="matrix(0.1443, 0.0482, -0.0499, 0.1449, 9.0905, 10.1408)" width="101.6" xlink:href="#sprite1"/>
    <use height="6.7" transform="matrix(1.0, 0.0, 0.0, 1.0, 16.95, 26.15)" width="9.7" xlink:href="#shape7"/>
    <use height="47.7" transform="matrix(0.1041, 0.0348, -0.036, 0.1045, 19.05, 19.3)" width="50.0" xlink:href="#sprite2"/>
    <use height="47.7" transform="matrix(0.0714, 0.0238, -0.0247, 0.0717, 25.7, 23.5)" width="50.0" xlink:href="#sprite2"/>
    <use height="15.15" transform="matrix(1.0, 0.0, 0.0, 1.0, 15.4, 18.7)" width="15.3" xlink:href="#shape8"/>
    <use height="65.0" transform="matrix(0.1486, -0.0304, 0.0172, 0.089, 16.6619, 20.0977)" width="65.0" xlink:href="#sprite3"/>
    <use height="14.7" transform="matrix(1.0, 0.0, 0.0, 1.0, 15.45, 19.3)" width="14.6" xlink:href="#shape9"/>
  </g>
  <defs>
    <g id="shape0" transform="matrix(1.0, 0.0, 0.0, 1.0, 0.0, 0.0)">
      <path d="M44.0 44.0 L0.0 44.0 0.0 0.0 44.0 0.0 44.0 44.0" fill="#43adca" fill-opacity="0.0" fill-rule="evenodd" stroke="none"/>
      <path d="M40.85 29.4 Q39.9 27.0 36.4 25.85 L35.9 25.7 35.3 25.6 32.7 25.15 30.8 24.9 30.35 24.85 30.5 23.7 30.75 21.5 30.9 19.85 30.9 19.65 30.95 18.6 Q30.95 15.9 29.9 14.45 L29.0 13.5 Q28.35 13.0 27.6 12.8 L26.25 12.6 Q25.55 12.6 24.35 13.3 L24.25 13.0 Q23.85 10.2 22.4 7.65 L21.6 6.4 21.05 5.7 Q19.8 4.3 18.35 3.75 L16.2 3.4 Q14.3 3.45 12.6 4.7 L11.25 5.9 Q8.85 8.55 8.85 11.95 L8.85 12.5 8.95 13.8 9.0 13.95 9.2 15.4 Q8.45 16.0 7.85 16.9 6.15 19.5 6.65 22.45 7.15 24.75 8.75 26.25 L9.75 27.05 Q11.85 28.45 14.2 28.3 L14.4 28.25 14.7 28.25 15.3 28.1 15.9 28.0 Q16.4 30.1 17.95 31.6 L18.95 32.4 Q21.05 33.75 23.4 33.6 L23.55 33.55 23.9 33.55 24.5 33.45 Q27.15 32.9 28.75 30.9 28.85 32.95 29.2 34.4 L29.4 35.15 29.7 35.95 Q30.55 38.25 32.3 38.9 L33.85 39.1 34.85 39.05 36.1 38.75 Q38.05 38.1 39.45 36.2 L40.2 35.15 40.8 33.8 Q41.2 32.65 41.2 31.45 L41.15 30.45 40.85 29.4 M21.35 8.25 Q22.85 11.1 23.0 13.95 L22.8 14.1 21.6 13.8 21.2 14.0 21.15 14.0 21.05 14.1 19.9 14.95 19.85 15.15 Q19.8 15.4 19.9 15.65 L19.8 15.75 19.75 15.9 19.6 16.25 18.0 14.85 Q15.9 13.45 13.55 13.65 L12.55 13.5 Q12.2 13.55 10.4 14.4 13.0 13.3 13.1 13.7 L12.5 13.8 Q11.3 14.05 10.35 14.6 L10.25 14.0 10.15 13.1 10.1 11.95 Q10.1 9.05 12.2 6.75 L13.7 5.5 Q14.9 4.7 16.2 4.65 17.25 4.7 18.25 5.15 19.25 5.6 20.15 6.6 L20.6 7.15 21.35 8.25 M28.85 15.15 Q29.65 16.45 29.65 18.6 L29.6 19.6 29.45 21.35 29.35 22.4 Q28.55 21.1 27.2 20.2 25.2 18.85 22.95 18.95 L23.9 17.95 24.1 17.55 24.25 17.8 24.1 17.5 24.2 16.65 24.55 16.75 24.55 16.35 24.35 15.75 24.15 15.45 24.2 15.3 24.65 15.15 25.85 14.8 Q26.45 14.45 26.1 13.9 L26.25 13.85 27.3 14.0 Q27.85 14.15 28.3 14.55 L28.85 15.15 M39.8 30.6 L39.9 31.45 Q39.9 32.55 39.5 33.6 L39.1 34.5 38.45 35.45 Q37.25 37.05 35.6 37.55 L34.8 37.75 33.85 37.8 32.95 37.7 Q31.5 37.25 30.8 35.3 L30.6 34.75 30.5 34.25 Q30.05 32.5 30.0 29.65 L30.0 28.75 30.1 28.5 30.15 27.7 30.2 26.5 30.25 26.2 30.25 26.1 30.45 26.15 30.75 26.2 32.1 26.35 34.75 26.75 35.5 26.9 35.7 26.95 Q38.85 27.9 39.65 30.05 L39.8 30.6" fill="none" stroke="#000000" stroke-linecap="round" stroke-linejoin="round" stroke-opacity="0.3019608" stroke-width="1.0"/>
      <path d="M28.95 25.95 L25.0 25.4 Q17.5 24.55 14.0 22.35 8.85 19.05 8.85 11.95 8.85 8.55 11.25 5.9 13.55 3.45 16.2 3.4 19.9 3.3 22.4 7.65 23.95 10.4 24.3 13.35 25.55 12.6 26.25 12.6 28.55 12.6 29.9 14.45 30.95 15.9 30.95 18.6 L30.5 23.7 30.35 24.85 29.1 24.65 30.35 24.85 30.8 24.9 35.9 25.7 Q41.25 27.25 41.2 31.45 41.2 33.9 39.45 36.2 37.35 39.05 33.85 39.1 30.55 39.2 29.4 35.15 28.7 32.9 28.7 28.7 L28.95 25.95 30.25 26.2 30.0 28.7 Q30.0 32.65 30.6 34.75 31.45 37.8 33.85 37.8 36.7 37.8 38.45 35.45 39.9 33.5 39.9 31.45 39.85 28.15 35.5 26.9 L30.75 26.2 30.25 26.1 30.25 26.2 28.95 25.95 M29.1 24.65 L29.2 23.5 29.65 18.6 Q29.65 16.45 28.85 15.15 27.95 13.85 26.25 13.85 25.6 13.9 24.3 14.75 L24.2 15.3 23.95 15.7 23.5 15.85 23.05 15.6 23.0 15.5 21.95 16.2 21.5 16.35 Q21.2 16.3 21.05 16.1 L20.95 15.65 Q21.0 15.3 21.2 15.2 L23.0 13.95 Q22.85 11.1 21.35 8.25 19.3 4.75 16.2 4.65 14.1 4.7 12.2 6.75 10.1 9.05 10.1 11.95 10.1 18.3 14.75 21.25 18.0 23.25 25.15 24.1 L29.1 24.65" fill="#733f10" fill-rule="evenodd" stroke="none"/>
      <path d="M30.35 24.85 L30.5 23.7 30.95 18.6 Q30.95 15.9 29.9 14.45 28.55 12.6 26.25 12.6 25.55 12.6 24.3 13.35 23.95 10.4 22.4 7.65 19.9 3.3 16.2 3.4 13.55 3.45 11.25 5.9 8.85 8.55 8.85 11.95 8.85 19.05 14.0 22.35 17.5 24.55 25.0 25.4 L28.95 25.95 30.25 26.2 30.25 26.1 30.75 26.2 35.5 26.9 Q39.85 28.15 39.9 31.45 39.9 33.5 38.45 35.45 36.7 37.8 33.85 37.8 31.45 37.8 30.6 34.75 30.0 32.65 30.0 28.7 L30.25 26.2 30.75 26.2 M29.1 24.65 L25.15 24.1 Q18.0 23.25 14.75 21.25 10.1 18.3 10.1 11.95 10.1 9.05 12.2 6.75 14.1 4.7 16.2 4.65 19.3 4.75 21.35 8.25 22.85 11.1 23.0 13.95 L21.2 15.2 Q21.0 15.3 20.95 15.65 L21.05 16.1 Q21.2 16.3 21.5 16.35 L21.95 16.2 23.0 15.5 23.05 15.6 23.5 15.85 23.95 15.7 24.2 15.3 24.3 14.75 Q25.6 13.9 26.25 13.85 27.95 13.85 28.85 15.15 29.65 16.45 29.65 18.6 L29.2 23.5 29.1 24.65 30.35 24.85 30.8 24.9 35.9 25.7 Q41.25 27.25 41.2 31.45 41.2 33.9 39.45 36.2 37.35 39.05 33.85 39.1 30.55 39.2 29.4 35.15 28.7 32.9 28.7 28.7 L28.95 25.95" fill="none" stroke="#000000" stroke-linecap="round" stroke-linejoin="round" stroke-opacity="0.3019608" stroke-width="0.05"/>
      <path d="M12.55 4.7 L13.05 4.7 13.75 5.6" fill="none" stroke="#000000" stroke-linecap="round" stroke-linejoin="round" stroke-opacity="0.3019608" stroke-width="0.05"/>
      <path d="M8.75 13.95 Q8.95 13.65 9.45 13.65 L9.9 13.65 10.3 14.05" fill="none" stroke="#000000" stroke-linecap="round" stroke-linejoin="round" stroke-opacity="0.3019608" stroke-width="0.05"/>
      <path d="M8.9 12.5 L9.35 12.45 Q9.6 12.45 10.15 13.1" fill="none" stroke="#000000" stroke-linecap="round" stroke-linejoin="round" stroke-opacity="0.3019608" stroke-width="0.05"/>
      <path d="M18.25 5.05 L18.55 4.45 18.3 3.9" fill="none" stroke="#000000" stroke-linecap="round" stroke-linejoin="round" stroke-opacity="0.3019608" stroke-width="0.05"/>
      <path d="M20.45 7.1 L21.35 7.0 21.6 6.3" fill="none" stroke="#000000" stroke-linecap="round" stroke-linejoin="round" stroke-opacity="0.3019608" stroke-width="0.05"/>
      <path d="M20.1 6.6 Q21.0 6.35 21.05 5.65" fill="none" stroke="#000000" stroke-linecap="round" stroke-linejoin="round" stroke-opacity="0.3019608" stroke-width="0.05"/>
      <path d="M12.75 19.45 Q11.5 19.4 11.5 20.45" fill="none" stroke="#000000" stroke-linecap="round" stroke-linejoin="round" stroke-opacity="0.3019608" stroke-width="0.05"/>
      <path d="M12.15 18.75 L11.7 18.75 Q10.9 18.75 11.15 19.55" fill="none" stroke="#000000" stroke-linecap="round" stroke-linejoin="round" stroke-opacity="0.3019608" stroke-width="0.05"/>
      <path d="M27.3 13.9 L27.8 13.15 27.55 12.75" fill="none" stroke="#000000" stroke-linecap="round" stroke-linejoin="round" stroke-opacity="0.3019608" stroke-width="0.05"/>
      <path d="M28.2 14.55 L28.7 14.25 28.95 13.55" fill="none" stroke="#000000" stroke-linecap="round" stroke-linejoin="round" stroke-opacity="0.3019608" stroke-width="0.05"/>
      <path d="M29.6 19.6 L30.5 19.9 31.15 19.65" fill="none" stroke="#000000" stroke-linecap="round" stroke-linejoin="round" stroke-opacity="0.3019608" stroke-width="0.05"/>
      <path d="M29.45 21.35 L30.1 21.75 30.8 21.45" fill="none" stroke="#000000" stroke-linecap="round" stroke-linejoin="round" stroke-opacity="0.3019608" stroke-width="0.05"/>
      <path d="M26.6 25.65 L26.65 24.45" fill="none" stroke="#000000" stroke-linecap="round" stroke-linejoin="round" stroke-opacity="0.3019608" stroke-width="0.05"/>
      <path d="M25.05 25.35 L25.3 24.1" fill="none" stroke="#000000" stroke-linecap="round" stroke-linejoin="round" stroke-opacity="0.3019608" stroke-width="0.05"/>
      <path d="M32.1 26.3 Q32.8 26.2 32.7 25.2" fill="none" stroke="#000000" stroke-linecap="round" stroke-linejoin="round" stroke-opacity="0.3019608" stroke-width="0.05"/>
      <path d="M34.75 26.65 Q35.35 26.45 35.35 25.8 L35.3 25.5" fill="none" stroke="#000000" stroke-linecap="round" stroke-linejoin="round" stroke-opacity="0.3019608" stroke-width="0.05"/>
      <path d="M35.7 26.9 L36.05 26.5 36.35 25.9" fill="none" stroke="#000000" stroke-linecap="round" stroke-linejoin="round" stroke-opacity="0.3019608" stroke-width="0.05"/>
      <path d="M29.15 34.3 Q29.35 34.7 30.0 34.7 L30.45 34.25" fill="none" stroke="#000000" stroke-linecap="round" stroke-linejoin="round" stroke-opacity="0.3019608" stroke-width="0.05"/>
      <path d="M29.65 35.95 L30.05 36.0 Q30.5 36.0 30.75 35.3" fill="none" stroke="#000000" stroke-linecap="round" stroke-linejoin="round" stroke-opacity="0.3019608" stroke-width="0.05"/>
      <path d="M32.3 38.8 L32.75 38.35 32.95 37.65" fill="none" stroke="#000000" stroke-linecap="round" stroke-linejoin="round" stroke-opacity="0.3019608" stroke-width="0.05"/>
      <path d="M34.85 38.95 L35.2 38.5 Q35.2 38.1 34.8 37.75" fill="none" stroke="#000000" stroke-linecap="round" stroke-linejoin="round" stroke-opacity="0.3019608" stroke-width="0.05"/>
      <path d="M36.05 38.7 L36.15 38.3 Q36.15 37.75 35.55 37.55" fill="none" stroke="#000000" stroke-linecap="round" stroke-linejoin="round" stroke-opacity="0.3019608" stroke-width="0.05"/>
      <path d="M40.05 35.05 Q40.05 34.65 39.75 34.5 39.4 34.35 39.0 34.5" fill="none" stroke="#000000" stroke-linecap="round" stroke-linejoin="round" stroke-opacity="0.3019608" stroke-width="0.05"/>
      <path d="M40.8 33.8 Q40.35 33.35 40.0 33.35 39.8 33.35 39.55 33.6" fill="none" stroke="#000000" stroke-linecap="round" stroke-linejoin="round" stroke-opacity="0.3019608" stroke-width="0.05"/>
      <path d="M41.0 30.45 L40.6 30.3 Q40.3 30.3 40.05 30.55" fill="none" stroke="#000000" stroke-linecap="round" stroke-linejoin="round" stroke-opacity="0.3019608" stroke-width="0.05"/>
      <path d="M40.9 29.4 L40.3 29.4 Q39.6 29.85 39.6 30.25" fill="none" stroke="#000000" stroke-linecap="round" stroke-linejoin="round" stroke-opacity="0.3019608" stroke-width="0.05"/>
      <path d="M28.5 28.5 L28.9 28.6 29.2 28.75 29.75 28.6 30.1 28.25" fill="none" stroke="#000000" stroke-linecap="round" stroke-linejoin="round" stroke-opacity="0.3019608" stroke-width="0.05"/>
      <path d="M28.5 29.55 L29.3 30.1 Q29.8 30.1 30.1 29.45" fill="none" stroke="#000000" stroke-linecap="round" stroke-linejoin="round" stroke-opacity="0.3019608" stroke-width="0.05"/>
    </g>
    <g id="sprite0" transform="matrix(1.0, 0.0, 0.0, 1.0, 2.75, 1.5)">
      <use height="5.45" transform="matrix(1.0, 0.0, 0.0, 1.0, -2.75, -1.5)" width="5.5" xlink:href="#shape1"/>
    </g>
    <g id="shape1" transform="matrix(1.0, 0.0, 0.0, 1.0, 2.75, 1.5)">
      <path d="M0.35 -0.8 L0.15 -1.15 -0.3 -1.3 -0.7 -1.15 -0.9 -0.8 -0.7 -0.4 -0.3 -0.25 Q0.0 -0.25 0.15 -0.4 L0.35 -0.8 M0.0 -1.5 Q1.15 -1.5 1.95 -0.75 L2.55 0.1 2.65 0.5 2.75 1.2 2.75 1.4 Q2.7 2.45 1.95 3.15 1.15 3.95 0.0 3.95 -1.15 3.95 -1.95 3.15 L-2.0 3.1 Q-2.75 2.3 -2.75 1.2 -2.75 0.1 -1.95 -0.75 L-1.9 -0.75 -0.8 -1.35 -0.35 -1.45 0.0 -1.5 M2.55 0.8 L2.4 0.2 2.4 0.15 Q1.65 -0.8 0.55 -1.15 1.5 0.15 0.05 0.95 -1.4 1.75 -2.3 0.5 -2.6 1.6 -2.1 2.45 -1.2 3.75 0.4 3.6 2.15 3.35 2.45 1.7 L2.5 1.35 2.55 0.8" fill="#ffcc33" fill-rule="evenodd" stroke="none"/>
      <path d="M0.35 -0.8 L0.15 -0.4 Q0.0 -0.25 -0.3 -0.25 L-0.7 -0.4 -0.9 -0.8 -0.7 -1.15 -0.3 -1.3 0.15 -1.15 0.35 -0.8" fill="#ffffff" fill-rule="evenodd" stroke="none"/>
      <path d="M2.55 0.8 L2.5 1.35 2.45 1.7 Q1.8 1.45 1.85 1.15 1.85 0.8 2.55 0.8" fill="#bd954d" fill-rule="evenodd" stroke="none"/>
      <path d="M2.45 1.7 Q2.15 3.35 0.4 3.6 -1.2 3.75 -2.1 2.45 -2.6 1.6 -2.3 0.5 -1.4 1.75 0.05 0.95 1.5 0.15 0.55 -1.15 1.65 -0.8 2.4 0.15 L2.4 0.2 2.55 0.8 Q1.85 0.8 1.85 1.15 1.8 1.45 2.45 1.7" fill="#b17c01" fill-rule="evenodd" stroke="none"/>
      <path d="M0.0 -1.5 L-0.35 -1.45 -0.8 -1.35 -1.9 -0.75 -1.95 -0.75 Q-2.75 0.1 -2.75 1.2 -2.75 2.3 -2.0 3.1 L-1.95 3.15 Q-1.15 3.95 0.0 3.95 1.15 3.95 1.95 3.15 2.7 2.45 2.75 1.4 L2.75 1.2 2.65 0.5 2.55 0.1 1.95 -0.75 Q1.15 -1.5 0.0 -1.5 M2.45 1.7 Q1.8 1.45 1.85 1.15 1.85 0.8 2.55 0.8" fill="none" stroke="#000000" stroke-linecap="round" stroke-linejoin="round" stroke-opacity="0.3019608" stroke-width="0.05"/>
      <path d="M2.05 2.2 L1.6 2.55 1.25 2.15 1.15 1.4 1.45 0.6 Q1.7 0.3 1.9 0.35 L2.25 0.65 2.4 1.45 2.05 2.2" fill="#42341f" fill-rule="evenodd" stroke="none"/>
    </g>
    <g id="shape2" transform="matrix(1.0, 0.0, 0.0, 1.0, -18.4, -12.85)">
      <path d="M22.85 15.95 L23.25 15.9 23.5 15.55 23.45 15.2 23.1 14.95 22.65 15.05 22.4 15.35 22.45 15.7 22.85 15.95" fill="#ffffff" fill-rule="evenodd" stroke="none"/>
      <path d="M23.5 16.25 L23.9 16.45 23.8 16.1 24.1 15.65 24.05 15.1 24.8 14.6 23.95 14.85 Q23.7 14.5 23.2 14.45 L22.3 14.5 21.9 14.85 20.75 15.0 Q21.55 15.2 21.75 15.45 L21.9 15.9 22.6 16.35 23.5 16.3 23.5 16.25 M22.85 15.95 L22.45 15.7 22.4 15.35 22.65 15.05 23.1 14.95 23.45 15.2 23.5 15.55 23.25 15.9 22.85 15.95" fill="#ffffff" fill-opacity="0.3019608" fill-rule="evenodd" stroke="none"/>
      <path d="M23.15 15.6 L24.2 15.1 22.85 15.2 21.95 13.95 22.65 15.35 18.4 16.65 22.8 15.75 24.25 17.8 23.15 15.6" fill="#ffffff" fill-rule="evenodd" stroke="none"/>
      <path d="M24.55 16.35 L24.55 16.75 24.05 16.55 23.35 16.35 21.5 17.5 21.15 17.75 20.65 17.5 Q20.1 17.3 19.85 16.7 L20.95 17.2 21.15 16.85 21.4 16.75 22.75 16.15 24.55 16.35 M19.95 15.75 L19.85 15.15 19.9 14.95 Q20.0 15.4 20.35 15.35 L20.8 15.3 20.15 15.5 19.95 15.75" fill="#1f0e00" fill-rule="evenodd" stroke="none"/>
      <path d="M23.15 14.15 L23.3 14.15 23.4 14.2 Q23.9 14.4 23.9 14.95 L23.85 15.15 24.35 15.75 24.55 16.35 22.75 16.15 21.4 16.75 21.15 16.85 20.95 17.2 19.85 16.7 Q19.75 16.35 19.9 15.95 L19.95 15.75 20.15 15.5 20.8 15.3 21.4 15.05 20.8 15.3 20.35 15.35 Q20.0 15.4 19.9 14.95 L21.15 14.0 21.6 13.8 21.45 14.05 21.45 14.4 Q21.55 14.8 22.2 14.9 L21.4 15.05 Q21.3 15.25 21.35 15.4 L21.5 15.7 22.85 15.8 22.9 15.7 Q23.1 15.1 22.4 14.8 L23.0 14.85 23.05 14.7 23.15 14.15 M23.85 15.15 L23.65 15.05 23.0 14.85 23.65 15.05 23.85 15.15" fill="#733f10" fill-rule="evenodd" stroke="none"/>
      <path d="M21.6 13.8 L22.9 14.1 23.15 14.15 23.05 14.7 23.0 14.85 22.4 14.8 Q23.1 15.1 22.9 15.7 L22.85 15.8 21.5 15.7 21.35 15.4 Q21.3 15.25 21.4 15.05 L22.2 14.9 Q21.55 14.8 21.45 14.4 L21.45 14.05 21.6 13.8 M22.4 14.8 L22.2 14.9 22.4 14.8" fill="#a16925" fill-rule="evenodd" stroke="none"/>
      <path d="M23.15 14.15 L23.3 14.15 23.4 14.2 Q23.9 14.4 23.9 14.95 L23.85 15.15 24.35 15.75 24.55 16.35 24.55 16.75 24.05 16.55 23.35 16.35 21.5 17.5 21.15 17.75 20.65 17.5 Q20.1 17.3 19.85 16.7 19.75 16.35 19.9 15.95 L19.95 15.75 19.85 15.15 19.9 14.95 21.15 14.0 21.6 13.8 22.9 14.1 23.15 14.15 M23.0 14.85 L23.65 15.05 23.85 15.15 M21.4 15.05 L20.8 15.3 20.15 15.5 19.95 15.75 M22.2 14.9 L21.4 15.05 M22.2 14.9 L22.4 14.8 23.0 14.85" fill="none" stroke="#000000" stroke-linecap="round" stroke-linejoin="round" stroke-opacity="0.3019608" stroke-width="0.05"/>
      <path d="M21.15 13.85 Q20.9 14.05 21.05 14.35 M23.2 13.9 L23.05 14.45 M21.5 16.85 L22.05 17.05 M22.9 16.95 L22.7 16.65 M21.3 14.8 L21.45 14.95 M20.25 15.4 L20.25 15.9 M20.55 16.35 L21.0 16.6 M23.75 17.55 L23.25 17.25 M23.4 16.3 L23.35 15.9 23.35 15.8 M23.2 15.3 L22.9 14.95 22.85 14.9" fill="none" stroke="#000000" stroke-linecap="round" stroke-linejoin="round" stroke-opacity="0.101960786" stroke-width="0.30000000000000004"/>
      <path d="M24.05 13.4 L24.3 13.4 24.35 13.3 24.15 14.15 23.75 14.85 23.65 14.95 23.4 14.85 23.35 14.75 23.25 14.75 23.2 14.65 23.25 14.0 23.25 13.95 23.8 14.0 24.05 13.4" fill="#1f0e00" fill-rule="evenodd" stroke="none"/>
      <path d="M24.05 13.4 L23.8 14.0 23.25 13.95 23.4 13.1 23.5 13.2 24.05 13.4" fill="#733f10" fill-rule="evenodd" stroke="none"/>
      <path d="M24.35 13.3 L24.3 13.4 24.05 13.4 23.5 13.2 23.4 13.1 23.8 12.85 Q24.35 12.8 24.35 13.3" fill="#a16925" fill-rule="evenodd" stroke="none"/>
      <path d="M23.35 14.75 L23.4 14.85" fill="none" stroke="#000000" stroke-linecap="round" stroke-linejoin="round" stroke-opacity="0.3019608" stroke-width="0.5"/>
      <path d="M24.35 13.3 L24.3 13.4 24.05 13.4 M23.25 14.0 L23.2 14.65 M23.65 14.95 L23.75 14.85 24.15 14.15 24.35 13.3 Q24.35 12.8 23.8 12.85 L23.4 13.1 M23.25 13.95 L23.4 13.1" fill="none" stroke="#000000" stroke-linecap="round" stroke-linejoin="round" stroke-opacity="0.3019608" stroke-width="0.05"/>
      <path d="M23.75 13.7 L23.65 13.45 M23.45 14.6 L23.35 14.3 M23.8 14.9 L23.65 14.7 M24.05 14.15 L23.85 14.0" fill="none" stroke="#000000" stroke-linecap="round" stroke-linejoin="round" stroke-opacity="0.101960786" stroke-width="0.30000000000000004"/>
      <path d="M25.55 14.45 L25.75 14.75 25.85 14.8 24.65 15.15 23.5 15.4 23.45 15.25 23.4 15.1 23.35 14.95 23.4 14.85 23.45 14.6 24.6 14.7 25.55 14.45" fill="#1f0e00" fill-rule="evenodd" stroke="none"/>
      <path d="M25.5 13.55 L25.5 13.6 25.45 13.75 Q25.35 14.15 25.55 14.45 L24.6 14.7 23.45 14.6 24.35 14.1 25.5 13.55" fill="#733f10" fill-rule="evenodd" stroke="none"/>
      <path d="M25.85 14.8 L25.75 14.75 25.55 14.45 Q25.35 14.15 25.45 13.75 L25.5 13.6 25.5 13.55 Q25.85 13.6 26.05 13.85 26.45 14.45 25.85 14.8" fill="#a16925" fill-rule="evenodd" stroke="none"/>
      <path d="M23.4 14.85 L23.35 14.95" fill="none" stroke="#000000" stroke-linecap="round" stroke-linejoin="round" stroke-opacity="0.3019608" stroke-width="0.5"/>
      <path d="M25.55 14.45 L25.75 14.75 25.85 14.8 Q26.45 14.45 26.05 13.85 25.85 13.6 25.5 13.55 L25.5 13.6 M23.45 15.25 L23.5 15.4 24.65 15.15 25.85 14.8 M23.45 14.6 L24.35 14.1 25.5 13.55" fill="none" stroke="#000000" stroke-linecap="round" stroke-linejoin="round" stroke-opacity="0.3019608" stroke-width="0.05"/>
      <path d="M23.7 14.8 L24.0 14.45 M23.5 15.5 L23.6 15.15 M24.95 14.5 L25.2 14.1 M24.65 15.15 L24.7 14.85" fill="none" stroke="#000000" stroke-linecap="round" stroke-linejoin="round" stroke-opacity="0.101960786" stroke-width="0.30000000000000004"/>
    </g>
    <g id="sprite1" transform="matrix(1.0, 0.0, 0.0, 1.0, 52.85, 122.55)">
      <use height="45.05" transform="matrix(1.0, 0.0, 0.0, 1.0, -35.4, -68.85)" width="66.15" xlink:href="#shape3"/>
      <use height="47.7" transform="matrix(0.7212, 0.0, 0.0, 0.7212, -39.95, -100.55)" width="50.0" xlink:href="#sprite2"/>
      <use height="47.7" transform="matrix(0.4944, 0.0, 0.0, 0.4944, 10.75, -88.1)" width="50.0" xlink:href="#sprite2"/>
      <use height="98.3" transform="matrix(1.0, 0.0, 0.0, 1.0, -48.4, -115.25)" width="97.15" xlink:href="#shape5"/>
      <use height="65.0" transform="matrix(0.8581, -0.4954, 0.2973, 0.515, -52.8508, -90.3343)" width="65.0" xlink:href="#sprite3"/>
    </g>
    <g id="shape3" transform="matrix(1.0, 0.0, 0.0, 1.0, 35.4, 68.85)">
      <path d="M-30.65 -51.05 L-30.95 -51.05 -31.0 -51.15 Q-32.7 -51.6 -33.05 -50.1 L-33.15 -49.85 Q-34.3 -50.25 -35.1 -49.3 L-35.15 -49.2 Q-35.45 -48.85 -35.35 -48.35 -34.9 -47.1 -33.3 -46.55 -32.45 -46.4 -31.5 -46.55 L-31.35 -46.55 Q-30.6 -46.8 -30.25 -47.5 L-29.75 -48.6 Q-29.25 -50.1 -30.65 -51.05" fill="#fd2424" fill-rule="evenodd" stroke="none"/>
      <path d="M23.5 -40.3 Q23.45 -42.35 22.25 -43.9 20.95 -45.55 19.1 -45.8 17.1 -46.05 15.7 -44.7 14.3 -43.3 14.3 -41.25 14.2 -39.05 15.55 -37.35 16.8 -35.7 18.8 -35.45 20.65 -35.2 22.05 -36.6 L22.3 -36.8 23.05 -36.6 Q23.7 -36.45 24.25 -36.95 24.8 -37.5 24.85 -38.35 24.75 -39.15 24.3 -39.75 L23.5 -40.3 M-10.65 -38.95 L-10.8 -39.9 Q-12.1 -47.4 -9.8 -54.3 -6.0 -65.7 4.15 -67.95 L8.7 -68.75 Q11.5 -69.45 18.55 -66.1 26.55 -62.3 29.4 -52.95 32.05 -44.2 29.5 -37.1 28.25 -33.6 27.0 -31.8 8.55 -21.1 -7.4 -35.7 -5.85 -35.8 -4.15 -38.1 -1.9 -40.95 -0.5 -45.8 0.8 -50.5 0.5 -54.6 0.15 -58.5 -1.65 -59.2 -3.4 -60.0 -5.65 -57.15 -7.85 -54.2 -9.2 -49.4 -10.55 -44.6 -10.3 -40.65 L-9.9 -38.15 -10.65 -38.95" fill="#fe6767" fill-rule="evenodd" stroke="none"/>
      <path d="M22.3 -36.8 L22.05 -36.6 Q20.65 -35.2 18.8 -35.45 16.8 -35.7 15.55 -37.35 14.2 -39.05 14.3 -41.25 14.3 -43.3 15.7 -44.7 17.1 -46.05 19.1 -45.8 20.95 -45.55 22.25 -43.9 23.45 -42.35 23.5 -40.3 L23.15 -40.45 Q22.45 -40.55 21.9 -40.05 21.35 -39.45 21.4 -38.65 21.25 -37.9 21.75 -37.2 L22.3 -36.8 M-9.9 -38.15 L-10.3 -40.65 Q-10.55 -44.6 -9.2 -49.4 -7.85 -54.2 -5.65 -57.15 -3.4 -60.0 -1.65 -59.2 0.15 -58.5 0.5 -54.6 0.8 -50.5 -0.5 -45.8 -1.9 -40.95 -4.15 -38.1 -5.85 -35.8 -7.4 -35.7 L-8.15 -35.95 Q-9.35 -36.4 -9.9 -38.15" fill="#fd2424" fill-rule="evenodd" stroke="none"/>
      <path d="M22.3 -36.8 L21.75 -37.2 Q21.25 -37.9 21.4 -38.65 21.35 -39.45 21.9 -40.05 22.45 -40.55 23.15 -40.45 L23.5 -40.3 24.3 -39.75 Q24.75 -39.15 24.85 -38.35 24.8 -37.5 24.25 -36.95 23.7 -36.45 23.05 -36.6 L22.3 -36.8" fill="#ffffff" fill-rule="evenodd" stroke="none"/>
      <path d="M27.0 -31.8 Q13.15 -22.2 6.9 -24.1 0.65 -26.05 -3.65 -29.7 -9.2 -32.95 -10.65 -38.95 L-9.9 -38.15 Q-9.35 -36.4 -8.15 -35.95 L-7.4 -35.7 Q8.55 -21.1 27.0 -31.8" fill="url(#gradient0)" fill-rule="evenodd" stroke="none"/>
      <path d="M-20.0 -37.4 L-19.7 -37.3 Q-19.45 -37.25 -19.25 -37.5 -19.0 -37.7 -18.95 -38.05 L-19.15 -38.55 -19.5 -38.8 Q-19.55 -39.6 -20.05 -40.25 -20.55 -40.85 -21.25 -40.95 -22.05 -41.1 -22.6 -40.5 -23.15 -40.0 -23.15 -39.2 -23.15 -38.3 -22.6 -37.65 -22.1 -37.0 -21.35 -36.9 -20.65 -36.8 -20.1 -37.3 L-20.0 -37.4 M-32.9 -38.25 L-32.95 -38.65 Q-33.5 -41.55 -32.6 -44.3 -31.1 -48.8 -27.1 -49.65 L-25.35 -49.95 Q-24.25 -50.25 -21.45 -48.9 -18.35 -47.45 -17.2 -43.75 -16.15 -40.35 -17.2 -37.55 -17.65 -36.2 -18.2 -35.45 -25.4 -31.25 -31.65 -37.0 -31.05 -37.05 -30.35 -37.95 -29.5 -39.1 -28.9 -40.95 -28.45 -42.8 -28.55 -44.45 -28.7 -45.95 -29.4 -46.25 -30.1 -46.55 -30.95 -45.4 -31.85 -44.25 -32.35 -42.4 -32.85 -40.5 -32.75 -38.95 L-32.6 -38.0 -32.9 -38.25" fill="#fe6767" fill-rule="evenodd" stroke="none"/>
      <path d="M-19.5 -38.8 L-19.65 -38.85 -20.15 -38.7 -20.35 -38.15 -20.2 -37.6 -20.0 -37.4 -20.1 -37.3 Q-20.65 -36.8 -21.35 -36.9 -22.1 -37.0 -22.6 -37.65 -23.15 -38.3 -23.15 -39.2 -23.15 -40.0 -22.6 -40.5 -22.05 -41.1 -21.25 -40.95 -20.55 -40.85 -20.05 -40.25 -19.55 -39.6 -19.5 -38.8 M-32.6 -38.0 L-32.75 -38.95 Q-32.85 -40.5 -32.35 -42.4 -31.85 -44.25 -30.95 -45.4 -30.1 -46.55 -29.4 -46.25 -28.7 -45.95 -28.55 -44.45 -28.45 -42.8 -28.9 -40.95 -29.5 -39.1 -30.35 -37.95 -31.05 -37.05 -31.65 -37.0 L-31.95 -37.1 Q-32.45 -37.3 -32.6 -38.0" fill="#fd2424" fill-rule="evenodd" stroke="none"/>
      <path d="M-19.5 -38.8 L-19.15 -38.55 -18.95 -38.05 Q-19.0 -37.7 -19.25 -37.5 -19.45 -37.25 -19.7 -37.3 L-20.0 -37.4 -20.2 -37.6 -20.35 -38.15 -20.15 -38.7 -19.65 -38.85 -19.5 -38.8" fill="#ffffff" fill-rule="evenodd" stroke="none"/>
      <path d="M-18.2 -35.45 Q-23.6 -31.7 -26.05 -32.45 -28.5 -33.2 -30.2 -34.6 -32.35 -35.9 -32.9 -38.25 L-32.6 -38.0 Q-32.45 -37.3 -31.95 -37.1 L-31.65 -37.0 Q-25.4 -31.25 -18.2 -35.45" fill="url(#gradient1)" fill-rule="evenodd" stroke="none"/>
    </g>
    <radialGradient cx="0" cy="0" gradientTransform="matrix(-0.0179, -0.023, -0.0193, 0.0188, 8.25, -25.75)" gradientUnits="userSpaceOnUse" id="gradient0" r="819.2" spreadMethod="pad">
      <stop offset="0.19215686274509805" stop-color="#fd2424" stop-opacity="0.9607843"/>
      <stop offset="0.9254901960784314" stop-color="#fe5d5d"/>
    </radialGradient>
    <radialGradient cx="0" cy="0" gradientTransform="matrix(-0.007, -0.009, -0.0076, 0.0074, -25.55, -33.1)" gradientUnits="userSpaceOnUse" id="gradient1" r="819.2" spreadMethod="pad">
      <stop offset="0.19215686274509805" stop-color="#fd2424" stop-opacity="0.9607843"/>
      <stop offset="0.9254901960784314" stop-color="#fe5d5d"/>
    </radialGradient>
    <g id="sprite2" transform="matrix(1.0, 0.0, 0.0, 1.0, 0.0, 0.0)">
      <use height="47.7" transform="matrix(1.0, 0.0, 0.0, 1.0, 0.0, 0.0)" width="50.0" xlink:href="#shape4"/>
    </g>
    <g id="shape4" transform="matrix(1.0, 0.0, 0.0, 1.0, 0.0, 0.0)">
      <path d="M39.2 12.45 L39.65 11.7 Q40.0 11.05 39.55 10.3 39.15 9.55 38.25 9.25 L36.6 9.4 35.7 10.1 Q33.5 9.6 31.45 10.45 29.25 11.4 28.4 13.35 27.6 15.45 28.65 17.35 29.75 19.25 32.05 19.85 L36.6 19.65 Q38.8 18.75 39.6 16.65 40.45 14.7 39.35 12.8 L39.2 12.45 M27.25 47.7 L26.15 47.6 Q17.65 46.8 10.75 42.35 -0.5 34.85 0.0 23.1 0.3 21.2 0.4 17.95 0.5 14.7 6.2 8.0 12.65 0.35 23.7 0.0 33.95 -0.35 40.95 4.5 44.4 6.9 46.0 8.85 52.3 32.0 31.75 45.1 32.05 43.4 30.05 40.85 27.6 37.6 22.75 34.65 17.95 31.85 13.45 31.0 9.1 30.25 7.8 32.0 6.45 33.7 8.9 36.95 11.45 40.25 16.3 43.1 21.1 45.95 25.5 46.8 L28.3 47.1 27.25 47.7" fill="#fe6767" fill-rule="evenodd" stroke="none"/>
      <path d="M35.7 10.1 L35.5 10.45 Q35.15 11.25 35.55 12.0 36.0 12.75 36.9 12.9 37.7 13.25 38.55 12.9 L39.2 12.45 39.35 12.8 Q40.45 14.7 39.6 16.65 38.8 18.75 36.6 19.65 L32.05 19.85 Q29.75 19.25 28.65 17.35 27.6 15.45 28.4 13.35 29.25 11.4 31.45 10.45 33.5 9.6 35.7 10.1 M28.3 47.1 L25.5 46.8 Q21.1 45.95 16.3 43.1 11.45 40.25 8.9 36.95 6.45 33.7 7.8 32.0 9.1 30.25 13.45 31.0 17.95 31.85 22.75 34.65 27.6 37.6 30.05 40.85 32.05 43.4 31.75 45.1 L31.25 45.9 Q30.4 47.05 28.3 47.1" fill="#fd2424" fill-rule="evenodd" stroke="none"/>
      <path d="M35.7 10.1 L36.6 9.4 38.25 9.25 Q39.15 9.55 39.55 10.3 40.0 11.05 39.65 11.7 L39.2 12.45 38.55 12.9 Q37.7 13.25 36.9 12.9 36.0 12.75 35.55 12.0 35.15 11.25 35.5 10.45 L35.7 10.1" fill="#ffffff" fill-rule="evenodd" stroke="none"/>
      <path d="M46.0 8.85 Q52.4 26.7 48.5 32.95 44.6 39.15 39.35 42.8 34.2 47.85 27.25 47.7 L28.3 47.1 Q30.4 47.05 31.25 45.9 L31.75 45.1 Q52.3 32.0 46.0 8.85" fill="url(#gradient2)" fill-rule="evenodd" stroke="none"/>
    </g>
    <radialGradient cx="0" cy="0" gradientTransform="matrix(-0.0302, 0.0128, 0.0149, 0.0265, 47.1, 31.0)" gradientUnits="userSpaceOnUse" id="gradient2" r="819.2" spreadMethod="pad">
      <stop offset="0.19215686274509805" stop-color="#fd2424" stop-opacity="0.9607843"/>
      <stop offset="0.9254901960784314" stop-color="#fe5d5d"/>
    </radialGradient>
    <g id="shape5" transform="matrix(1.0, 0.0, 0.0, 1.0, 48.4, 115.25)">
      <path d="M4.35 -107.6 Q-0.65 -105.75 -5.1 -103.2 -17.45 -96.45 -26.35 -85.45 -31.65 -78.8 -35.4 -71.3 L-39.55 -60.95 -40.25 -65.6 -42.55 -59.3 Q-39.2 -80.2 -34.15 -87.9 -26.2 -99.95 -12.6 -104.85 -6.05 -107.2 0.95 -107.6 L4.35 -107.6" fill="#ffffff" fill-rule="evenodd" stroke="none"/>
      <path d="M20.6 -22.15 L18.9 -21.35 17.5 -21.35 Q12.25 -21.7 7.55 -23.4 3.0 -25.05 -0.8 -27.9 2.9 -26.5 6.6 -25.45 11.8 -24.15 17.25 -24.45 20.85 -24.8 24.4 -25.95 L20.6 -22.15" fill="url(#gradient3)" fill-rule="evenodd" stroke="none"/>
      <path d="M5.45 -108.45 L4.35 -107.6 0.95 -107.6 5.45 -108.45 M-21.3 -105.5 Q-20.1 -108.05 -20.5 -108.8 -21.75 -110.95 -35.75 -99.15 -26.35 -108.0 -24.1 -109.1 L-17.75 -110.05 Q-8.95 -111.2 -13.15 -109.15 -13.4 -109.0 -13.7 -108.9 L-13.75 -108.85 -17.8 -107.05 -21.3 -105.5 M-20.5 -108.8 L-17.75 -110.05 -20.5 -108.8 M-17.8 -111.7 Q-9.85 -114.55 -1.1 -115.25 L-17.8 -111.7" fill="url(#gradient4)" fill-rule="evenodd" stroke="none"/>
      <path d="M-20.5 -22.15 Q-17.95 -23.15 -14.8 -24.65 -11.85 -25.2 -15.4 -24.35 -4.7 -17.0 17.65 -20.8 3.35 -15.0 -12.3 -19.2 -16.65 -20.35 -20.5 -22.15" fill="url(#gradient5)" fill-rule="evenodd" stroke="none"/>
      <path d="M4.35 -107.6 L5.45 -108.45 9.2 -109.15 7.95 -110.35 Q-5.25 -110.9 -17.8 -107.05 L-13.75 -108.85 -13.7 -108.9 Q-13.4 -109.0 -13.15 -109.15 -8.95 -111.2 -17.75 -110.05 -3.3 -116.1 12.55 -111.85 27.4 -107.85 36.75 -96.55 43.7 -85.05 47.1 -71.55 L48.25 -66.15 Q48.25 -60.4 46.8 -54.4 L46.95 -58.75 Q46.85 -71.6 41.3 -83.5 42.55 -73.35 42.1 -63.35 L41.9 -62.15 41.2 -62.0 Q40.55 -72.6 34.6 -81.15 28.6 -89.75 20.95 -94.3 21.55 -81.15 18.65 -67.75 15.7 -54.35 4.9 -43.85 -5.95 -33.4 -19.05 -25.55 L-7.65 -28.15 -14.8 -24.65 Q-17.95 -23.15 -20.5 -22.15 -33.7 -28.25 -41.4 -41.55 -51.3 -58.75 -46.15 -77.9 -41.0 -97.1 -23.8 -107.05 -22.2 -108.0 -20.5 -108.8 -20.1 -108.05 -21.3 -105.5 -34.4 -96.6 -40.3 -82.85 -43.75 -74.85 -44.75 -68.45 -45.55 -57.25 -41.9 -46.55 L-41.2 -44.6 Q-41.2 -52.9 -39.55 -60.95 L-35.4 -71.3 Q-31.65 -78.8 -26.35 -85.45 -17.45 -96.45 -5.1 -103.2 -0.65 -105.75 4.35 -107.6" fill="url(#gradient6)" fill-rule="evenodd" stroke="none"/>
      <path d="M-14.8 -24.65 L-7.65 -28.15 -19.05 -25.55 Q-5.95 -33.4 4.9 -43.85 15.7 -54.35 18.65 -67.75 21.55 -81.15 20.95 -94.3 28.6 -89.75 34.6 -81.15 40.55 -72.6 41.2 -62.0 L41.9 -62.15 42.1 -63.35 Q42.55 -73.35 41.3 -83.5 46.85 -71.6 46.95 -58.75 L46.8 -54.4 46.45 -53.05 Q41.35 -33.9 24.1 -24.0 L20.85 -22.25 20.6 -22.15 24.4 -25.95 Q20.85 -24.8 17.25 -24.45 11.8 -24.15 6.6 -25.45 2.9 -26.5 -0.8 -27.9 3.0 -25.05 7.55 -23.4 12.25 -21.7 17.5 -21.35 L18.9 -21.35 17.65 -20.8 Q-4.7 -17.0 -15.4 -24.35 -11.85 -25.2 -14.8 -24.65" fill="url(#gradient7)" fill-rule="evenodd" stroke="none"/>
      <path d="M-39.55 -60.95 Q-41.2 -52.9 -41.2 -44.6 L-41.9 -46.55 Q-45.55 -57.25 -44.75 -68.45 -43.75 -74.85 -40.3 -82.85 -34.4 -96.6 -21.3 -105.5 L-17.8 -107.05 Q-5.25 -110.9 7.95 -110.35 L9.2 -109.15 5.45 -108.45 0.95 -107.6 Q-6.05 -107.2 -12.6 -104.85 -26.2 -99.95 -34.15 -87.9 -39.2 -80.2 -42.55 -59.3 L-40.25 -65.6 -39.55 -60.95" fill="#1a8285" fill-opacity="0.38039216" fill-rule="evenodd" stroke="none"/>
      <path d="M48.25 -66.15 L47.1 -71.55 Q43.7 -85.05 36.75 -96.55" fill="none" stroke="#266a85" stroke-linecap="round" stroke-linejoin="round" stroke-opacity="0.44313726" stroke-width="0.05"/>
      <path d="M-20.5 -108.8 Q-22.2 -108.0 -23.8 -107.05 -41.0 -97.1 -46.15 -77.9 -51.3 -58.75 -41.4 -41.55 -33.7 -28.25 -20.5 -22.15 M46.8 -54.4 Q48.25 -60.4 48.25 -66.15 M36.75 -96.55 Q27.4 -107.85 12.55 -111.85 -3.3 -116.1 -17.75 -110.05 L-20.5 -108.8 M46.8 -54.4 L46.45 -53.05 Q41.35 -33.9 24.1 -24.0 L20.85 -22.25 20.6 -22.15 18.9 -21.35 17.65 -20.8 Q3.35 -15.0 -12.3 -19.2 -16.65 -20.35 -20.5 -22.15 M36.75 -96.55 Q39.4 -93.3 41.65 -89.45 48.15 -78.25 48.25 -66.15 Z" fill="none" stroke="#266785" stroke-linecap="round" stroke-linejoin="round" stroke-opacity="0.3019608" stroke-width="1.0"/>
      <path d="M23.65 -96.95 L19.05 -100.6 Q5.1 -111.0 16.05 -108.9 26.85 -106.85 35.65 -90.85 24.4 -102.3 23.65 -96.95" fill="#ffffcc" fill-rule="evenodd" stroke="none"/>
      <path d="M31.85 -98.75 Q35.85 -94.05 44.8 -75.05 53.75 -56.1 35.55 -24.0 5.4 -38.9 -27.45 -22.65 -40.4 -73.95 -27.35 -92.55 -12.9 -112.95 2.8 -113.3 18.75 -114.05 31.85 -98.75" fill="url(#gradient8)" fill-rule="evenodd" stroke="none"/>
    </g>
    <linearGradient gradientTransform="matrix(0.0119, -0.0561, 0.0862, 0.018, 30.95, -56.85)" gradientUnits="userSpaceOnUse" id="gradient3" spreadMethod="pad" x1="-819.2" x2="819.2">
      <stop offset="0.0" stop-color="#59c1bc"/>
      <stop offset="1.0" stop-color="#ffffff" stop-opacity="0.0"/>
    </linearGradient>
    <linearGradient gradientTransform="matrix(0.0053, -0.0329, 0.0883, 0.0106, 36.85, -77.5)" gradientUnits="userSpaceOnUse" id="gradient4" spreadMethod="pad" x1="-819.2" x2="819.2">
      <stop offset="0.0" stop-color="#59c1bc"/>
      <stop offset="1.0" stop-color="#ffffff" stop-opacity="0.0"/>
    </linearGradient>
    <linearGradient gradientTransform="matrix(-0.0279, -0.028, 0.9339, -0.8923, -27.45, -41.35)" gradientUnits="userSpaceOnUse" id="gradient5" spreadMethod="pad" x1="-819.2" x2="819.2">
      <stop offset="0.01568627450980392" stop-color="#308076"/>
      <stop offset="1.0" stop-color="#ffffff" stop-opacity="0.0"/>
    </linearGradient>
    <linearGradient gradientTransform="matrix(0.0119, -0.0561, 0.0862, 0.018, 30.95, -56.85)" gradientUnits="userSpaceOnUse" id="gradient6" spreadMethod="pad" x1="-819.2" x2="819.2">
      <stop offset="0.0" stop-color="#59bbc2"/>
      <stop offset="1.0" stop-color="#ffffff" stop-opacity="0.0"/>
    </linearGradient>
    <linearGradient gradientTransform="matrix(0.0041, -0.0554, 0.0463, 0.0049, 10.6, -56.25)" gradientUnits="userSpaceOnUse" id="gradient7" spreadMethod="pad" x1="-819.2" x2="819.2">
      <stop offset="0.01568627450980392" stop-color="#307680"/>
      <stop offset="0.9333333333333333" stop-color="#3a9799" stop-opacity="0.3019608"/>
    </linearGradient>
    <radialGradient cx="0" cy="0" gradientTransform="matrix(0.0806, 0.0393, -0.0406, 0.0681, 13.25, -97.7)" gradientUnits="userSpaceOnUse" id="gradient8" r="819.2" spreadMethod="pad">
      <stop offset="0.0" stop-color="#ffffcc" stop-opacity="0.3137255"/>
      <stop offset="1.0" stop-color="#ffff99" stop-opacity="0.0"/>
    </radialGradient>
    <g id="sprite3" transform="matrix(1.0, 0.0, 0.0, 1.0, 32.5, 32.5)">
      <use height="65.0" transform="matrix(1.0, 0.0, 0.0, 1.0, -32.5, -32.5)" width="65.0" xlink:href="#shape6"/>
    </g>
    <g id="shape6" transform="matrix(1.0, 0.0, 0.0, 1.0, 32.5, 32.5)">
      <path d="M22.95 -23.0 Q32.5 -13.45 32.5 0.0 32.5 13.45 22.95 22.95 13.45 32.5 0.0 32.5 -13.45 32.5 -23.0 22.95 -32.5 13.45 -32.5 0.0 -32.5 -13.45 -23.0 -23.0 -13.45 -32.5 0.0 -32.5 13.45 -32.5 22.95 -23.0" fill="url(#gradient9)" fill-rule="evenodd" stroke="none"/>
    </g>
    <radialGradient cx="0" cy="0" gradientTransform="matrix(0.0406, 0.0, 0.0, 0.0406, 0.0, 0.0)" gradientUnits="userSpaceOnUse" id="gradient9" r="819.2" spreadMethod="pad">
      <stop offset="0.0" stop-color="#fff5a5"/>
      <stop offset="1.0" stop-color="#f5ad4e" stop-opacity="0.0"/>
    </radialGradient>
    <g id="shape7" transform="matrix(1.0, 0.0, 0.0, 1.0, -16.95, -26.15)">
      <path d="M17.9 26.9 L17.55 26.95 17.2 26.95 17.15 27.1 17.35 27.45 17.6 27.5 17.6 27.55 17.8 27.5 18.0 27.3 17.95 26.9 17.9 26.9" fill="#fd2424" fill-rule="evenodd" stroke="none"/>
      <path d="M24.8 31.5 L24.9 31.55 25.1 31.6 25.3 31.4 25.25 31.2 25.15 31.05 25.15 30.5 24.8 30.05 24.25 30.0 Q24.0 30.15 23.9 30.5 23.75 30.8 23.85 31.1 L24.25 31.55 24.75 31.5 24.8 31.5 M20.2 29.65 L20.2 29.5 Q20.4 28.35 21.05 27.4 22.15 25.95 23.75 26.15 L24.45 26.2 25.75 27.1 Q26.75 28.0 26.65 29.5 26.55 30.9 25.85 31.85 L25.25 32.45 Q22.05 33.1 20.5 30.25 L21.05 30.05 22.0 29.1 22.55 27.85 Q22.7 27.25 22.45 27.1 L21.8 27.2 20.9 28.15 Q20.45 28.8 20.3 29.4 L20.25 29.75 20.2 29.65" fill="#fe6767" fill-rule="evenodd" stroke="none"/>
      <path d="M25.15 31.05 L25.1 31.05 24.9 31.0 24.8 31.2 24.8 31.4 24.8 31.5 24.75 31.5 24.25 31.55 23.85 31.1 Q23.75 30.8 23.9 30.5 24.0 30.15 24.25 30.0 L24.8 30.05 25.15 30.5 25.15 31.05 M20.25 29.75 L20.3 29.4 Q20.45 28.8 20.9 28.15 L21.8 27.2 22.45 27.1 Q22.7 27.25 22.55 27.85 L22.0 29.1 21.05 30.05 20.5 30.25 20.35 30.15 20.25 29.75" fill="#fd2424" fill-rule="evenodd" stroke="none"/>
      <path d="M25.15 31.05 L25.25 31.2 25.3 31.4 25.1 31.6 24.9 31.55 24.8 31.5 24.8 31.4 24.8 31.2 24.9 31.0 25.1 31.05 25.15 31.05" fill="#ffffff" fill-rule="evenodd" stroke="none"/>
      <path d="M25.25 32.45 L21.95 32.6 Q21.15 32.0 20.7 31.25 20.05 30.55 20.2 29.65 L20.25 29.75 20.35 30.15 20.5 30.25 Q22.05 33.1 25.25 32.45" fill="url(#gradient10)" fill-rule="evenodd" stroke="none"/>
      <path d="M18.9 29.2 L18.85 29.0 18.75 28.85 18.55 28.8 18.35 28.95 18.4 29.2 18.55 29.4 18.75 29.4 18.8 29.45 18.85 29.4 18.95 29.35 18.9 29.25 18.9 29.2 M16.95 28.6 L16.95 28.55 17.25 27.8 Q17.7 27.2 18.35 27.25 L18.6 27.3 19.1 27.65 Q19.5 28.0 19.45 28.6 L19.2 29.5 18.9 29.75 Q17.65 30.0 17.05 28.9 L17.25 28.8 17.65 28.45 17.85 27.95 17.8 27.65 17.55 27.7 17.25 28.1 17.0 28.55 16.95 28.7 16.95 28.6" fill="#fe6767" fill-rule="evenodd" stroke="none"/>
      <path d="M18.75 29.4 L18.55 29.4 18.4 29.2 18.35 28.95 18.55 28.8 18.75 28.85 18.85 29.0 18.9 29.2 18.85 29.2 18.8 29.2 18.75 29.3 18.75 29.35 18.75 29.4 M16.95 28.7 L17.0 28.55 17.25 28.1 17.55 27.7 17.8 27.65 17.85 27.95 17.65 28.45 17.25 28.8 17.05 28.9 17.0 28.85 16.95 28.7" fill="#fd2424" fill-rule="evenodd" stroke="none"/>
      <path d="M18.75 29.4 L18.75 29.35 18.75 29.3 18.8 29.2 18.85 29.2 18.9 29.2 18.9 29.25 18.95 29.35 18.85 29.4 18.8 29.45 18.75 29.4" fill="#ffffff" fill-rule="evenodd" stroke="none"/>
      <path d="M18.9 29.75 L17.6 29.8 17.15 29.3 Q16.9 29.0 16.95 28.6 L16.95 28.7 17.0 28.85 17.05 28.9 Q17.65 30.0 18.9 29.75" fill="url(#gradient11)" fill-rule="evenodd" stroke="none"/>
    </g>
    <radialGradient cx="0" cy="0" gradientTransform="matrix(-0.0014, -0.0042, -0.0037, 0.0018, 22.25, 32.4)" gradientUnits="userSpaceOnUse" id="gradient10" r="819.2" spreadMethod="pad">
      <stop offset="0.19215686274509805" stop-color="#fd2424" stop-opacity="0.9607843"/>
      <stop offset="0.9254901960784314" stop-color="#fe5d5d"/>
    </radialGradient>
    <radialGradient cx="0" cy="0" gradientTransform="matrix(-6.0E-4, -0.0016, -0.0015, 7.0E-4, 17.7, 29.7)" gradientUnits="userSpaceOnUse" id="gradient11" r="819.2" spreadMethod="pad">
      <stop offset="0.19215686274509805" stop-color="#fd2424" stop-opacity="0.9607843"/>
      <stop offset="0.9254901960784314" stop-color="#fe5d5d"/>
    </radialGradient>
    <g id="shape8" transform="matrix(1.0, 0.0, 0.0, 1.0, -15.4, -18.7)">
      <path d="M17.1 25.0 L17.25 24.35 16.55 25.15 Q18.1 22.3 19.25 21.35 21.0 20.0 23.15 19.95 L25.25 20.25 25.75 20.4 24.2 20.55 Q22.1 20.95 20.25 22.05 L18.25 23.75 17.1 25.0" fill="#ffffff" fill-rule="evenodd" stroke="none"/>
      <path d="M25.25 20.25 L26.0 20.3 25.75 20.4 25.25 20.25 M22.55 19.4 L22.0 19.45 22.3 19.1 22.7 18.95 22.3 19.1 Q22.15 18.65 19.55 19.7 21.35 18.85 21.7 18.8 L22.7 18.95 Q24.05 19.2 23.35 19.3 L23.2 19.3 22.55 19.4" fill="url(#gradient12)" fill-rule="evenodd" stroke="none"/>
      <path d="M26.0 20.3 L25.25 20.25 23.15 19.95 Q21.0 20.0 19.25 21.35 18.1 22.3 16.55 25.15 L17.25 24.35 17.1 25.0 16.05 27.35 16.05 27.0 Q16.05 25.3 16.75 23.75 17.2 22.85 18.1 21.85 19.6 20.1 22.0 19.45 L22.55 19.4 Q24.55 19.4 26.45 20.2 L26.55 20.4 26.0 20.3" fill="#912604" fill-opacity="0.38039216" fill-rule="evenodd" stroke="none"/>
      <path d="M23.9 33.55 L23.55 33.55 23.4 33.5 22.05 32.75 21.05 31.65 22.0 32.45 23.5 33.05 24.6 33.15 23.9 33.55" fill="url(#gradient13)" fill-rule="evenodd" stroke="none"/>
      <path d="M23.4 33.6 Q21.05 33.75 18.95 32.4 L17.95 31.6 18.8 31.55 Q19.95 33.1 23.4 33.6" fill="url(#gradient14)" fill-rule="evenodd" stroke="none"/>
      <path d="M26.0 20.3 L26.55 20.4 26.45 20.2 Q24.55 19.4 22.55 19.4 L23.2 19.3 23.35 19.3 Q24.05 19.2 22.7 18.95 25.1 18.8 27.2 20.2 29.1 21.45 29.9 23.5 30.35 25.5 30.15 27.7 L30.1 28.5 29.25 30.1 29.5 29.5 Q30.15 27.6 29.9 25.65 L29.05 28.6 28.95 28.8 28.8 28.75 Q29.25 27.25 28.8 25.7 28.45 24.15 27.55 23.1 L25.9 26.85 Q24.75 28.6 22.7 29.65 L18.3 31.15 20.05 31.3 18.85 31.5 18.8 31.55 17.95 31.6 Q16.3 30.05 15.85 27.75 15.3 24.8 17.0 22.25 18.75 19.75 21.65 19.15 L22.3 19.1 22.0 19.45 Q19.6 20.1 18.1 21.85 17.2 22.85 16.75 23.75 16.05 25.3 16.05 27.0 L16.05 27.35 17.1 25.0 18.25 23.75 20.25 22.05 Q22.1 20.95 24.2 20.55 L25.75 20.4 26.0 20.3" fill="url(#gradient15)" fill-rule="evenodd" stroke="none"/>
      <path d="M29.25 30.1 L29.15 30.35 Q27.5 32.85 24.5 33.45 L23.9 33.55 24.6 33.15 23.5 33.05 22.0 32.45 21.05 31.65 22.05 32.75 23.4 33.5 23.55 33.55 23.4 33.6 Q19.95 33.1 18.8 31.55 L18.85 31.5 20.05 31.3 18.3 31.15 22.7 29.65 Q24.75 28.6 25.9 26.85 L27.55 23.1 Q28.45 24.15 28.8 25.7 29.25 27.25 28.8 28.75 L28.95 28.8 29.05 28.6 29.9 25.65 Q30.15 27.6 29.5 29.5 L29.25 30.1" fill="url(#gradient16)" fill-rule="evenodd" stroke="none"/>
      <path d="M15.4 26.6 L15.4 26.95" fill="none" stroke="#266a85" stroke-linecap="round" stroke-linejoin="round" stroke-opacity="0.44313726" stroke-width="0.05"/>
      <path d="M22.7 18.95 L22.3 19.1 M22.7 18.95 Q25.1 18.8 27.2 20.2 29.1 21.45 29.9 23.5 L30.3 24.85 Q30.65 26.75 30.1 28.5 L29.25 30.1 29.15 30.35 Q27.5 32.85 24.5 33.45 L23.9 33.55 23.55 33.55 23.4 33.6 Q21.05 33.75 18.95 32.4 L17.95 31.6 Q16.3 30.05 15.85 27.75 15.3 24.8 17.0 22.25 18.75 19.75 21.65 19.15 L22.3 19.1" fill="none" stroke="#852b26" stroke-linecap="round" stroke-linejoin="round" stroke-opacity="0.4627451" stroke-width="0.5"/>
      <path d="M28.0 22.8 L27.5 22.1 Q26.05 19.9 27.55 20.7 29.0 21.55 29.45 24.3 28.4 22.1 28.0 22.8" fill="#ffffcc" fill-rule="evenodd" stroke="none"/>
    </g>
    <linearGradient gradientTransform="matrix(0.0024, -0.0045, 0.0122, 0.0058, 29.0, 26.3)" gradientUnits="userSpaceOnUse" id="gradient12" spreadMethod="pad" x1="-819.2" x2="819.2">
      <stop offset="0.0" stop-color="#59c1bc"/>
      <stop offset="1.0" stop-color="#ffffff" stop-opacity="0.0"/>
    </linearGradient>
    <linearGradient gradientTransform="matrix(0.0045, -0.0076, 0.0116, 0.0068, 27.1, 29.05)" gradientUnits="userSpaceOnUse" id="gradient13" spreadMethod="pad" x1="-819.2" x2="819.2">
      <stop offset="0.0" stop-color="#c24d29"/>
      <stop offset="1.0" stop-color="#ffffff" stop-opacity="0.0"/>
    </linearGradient>
    <linearGradient gradientTransform="matrix(-0.0026, -0.0054, 0.1794, -0.0843, 17.85, 28.45)" gradientUnits="userSpaceOnUse" id="gradient14" spreadMethod="pad" x1="-819.2" x2="819.2">
      <stop offset="0.01568627450980392" stop-color="#80370f"/>
      <stop offset="1.0" stop-color="#ffcfcf" stop-opacity="0.0"/>
    </linearGradient>
    <linearGradient gradientTransform="matrix(0.0045, -0.0076, 0.0116, 0.0068, 27.1, 29.05)" gradientUnits="userSpaceOnUse" id="gradient15" spreadMethod="pad" x1="-819.2" x2="819.2">
      <stop offset="0.0" stop-color="#c25736"/>
      <stop offset="1.0" stop-color="#ffbdbd" stop-opacity="0.2"/>
    </linearGradient>
    <linearGradient gradientTransform="matrix(0.0033, -0.0078, 0.0064, 0.0029, 24.15, 28.1)" gradientUnits="userSpaceOnUse" id="gradient16" spreadMethod="pad" x1="-819.2" x2="819.2">
      <stop offset="0.01568627450980392" stop-color="#803a30"/>
      <stop offset="0.9333333333333333" stop-color="#c73f3f" stop-opacity="0.3019608"/>
    </linearGradient>
    <g id="shape9" transform="matrix(1.0, 0.0, 0.0, 1.0, -15.45, -19.3)">
      <path d="M29.3 23.0 Q29.7 23.85 30.05 27.0 30.35 30.25 26.15 34.0 22.5 30.45 17.0 31.15 17.7 23.05 20.5 21.0 23.6 18.75 25.9 19.45 28.2 20.15 29.3 23.0" fill="url(#gradient17)" fill-rule="evenodd" stroke="none"/>
      <path d="M19.3 23.25 L18.65 23.5 18.0 23.3 17.75 22.75 Q17.85 22.35 18.1 22.1 18.35 21.85 18.8 21.8 L19.35 22.0 Q19.65 22.25 19.6 22.6 L19.3 23.25" fill="#ffffff" fill-rule="evenodd" stroke="none"/>
      <path d="M19.3 23.25 L19.6 22.6 Q19.65 22.25 19.35 22.0 L18.8 21.8 Q18.35 21.85 18.1 22.1 17.85 22.35 17.75 22.75 L18.0 23.3 18.65 23.5 19.3 23.25 M18.55 24.25 L18.15 24.85 18.05 24.2 17.3 23.85 16.85 23.1 15.45 22.95 16.85 22.65 Q16.9 21.95 17.5 21.45 18.1 20.9 18.8 20.85 L19.7 20.95 Q20.55 20.9 21.4 20.2 20.4 21.05 20.4 21.65 L20.55 22.4 Q20.5 23.1 19.9 23.65 19.35 24.15 18.6 24.25 L18.55 24.25" fill="#ffffff" fill-opacity="0.3019608" fill-rule="evenodd" stroke="none"/>
      <path d="M18.5 23.05 L16.7 23.2 18.6 22.25 18.85 19.75 19.1 22.25 25.95 20.5 19.15 22.9 18.8 27.0 18.5 23.05" fill="#ffffff" fill-rule="evenodd" stroke="none"/>
    </g>
    <radialGradient cx="0" cy="0" gradientTransform="matrix(0.0097, 0.0096, -0.0093, 0.0079, 26.6, 22.25)" gradientUnits="userSpaceOnUse" id="gradient17" r="819.2" spreadMethod="pad">
      <stop offset="0.0" stop-color="#ffe5cc" stop-opacity="0.3137255"/>
      <stop offset="1.0" stop-color="#ffdd99" stop-opacity="0.0"/>
    </radialGradient>
  </defs>
</svg>
