<?xml version="1.0" encoding="UTF-8" standalone="no"?>
<svg xmlns:xlink="http://www.w3.org/1999/xlink" height="440.0px" width="440.0px" xmlns="http://www.w3.org/2000/svg">
  <g transform="matrix(10.0, 0.0, 0.0, 10.0, 0.0, 0.0)">
    <use height="44.0" transform="matrix(1.0, 0.0, 0.0, 1.0, 0.0, 0.0)" width="44.0" xlink:href="#shape0"/>
    <use height="39.55" transform="matrix(0.9, 0.0, 0.0, 0.9, 1.2401, 3.7451)" width="27.35" xlink:href="#sprite0"/>
    <use height="39.55" transform="matrix(-1.0, 0.0301, 0.0, 1.0, 43.15, 2.2167)" width="27.35" xlink:href="#sprite0"/>
  </g>
  <defs>
    <g id="shape0" transform="matrix(1.0, 0.0, 0.0, 1.0, 0.0, 0.0)">
      <path d="M44.0 44.0 L0.0 44.0 0.0 0.0 44.0 0.0 44.0 44.0" fill="#43adca" fill-opacity="0.0" fill-rule="evenodd" stroke="none"/>
      <path d="M10.8 11.45 L10.85 10.85 Q10.85 10.4 10.55 10.2 L10.3 9.95 9.55 9.6 8.75 9.0 8.65 8.9 8.65 9.0 Q8.1 11.35 7.5 11.85 7.0 12.55 7.0 13.35 L7.1 13.4 7.15 13.45 7.45 14.25 7.35 14.7 7.4 14.75 Q7.85 14.8 8.1 15.05 8.45 15.4 8.45 15.9 L8.4 16.3 8.45 16.35 8.5 16.4 8.6 16.45 9.0 16.6 9.35 15.9 M9.0 16.6 L9.05 16.6 9.05 16.65 9.0 16.85 9.1 17.2 9.2 17.4 9.3 17.45 9.55 17.55 9.7 17.65 9.8 17.7 10.7 17.65 10.8 17.6 11.2 17.25 11.3 17.0 12.9 12.8 12.85 12.5 12.7 11.85 12.7 11.7 12.65 11.25 12.65 10.65 12.65 10.2 12.7 10.05 12.9 9.75 12.95 9.75 13.05 9.6 12.75 9.15 12.6 8.9 12.35 8.75 Q12.1 8.5 11.75 8.4 L10.9 7.8 Q10.35 7.35 10.0 7.2 L9.95 7.15 9.85 7.1 Q9.95 6.8 10.4 6.65 10.75 6.4 11.25 6.3 L14.85 5.75 17.55 5.9 17.6 5.75 Q17.85 5.15 18.65 4.7 L19.2 4.4 19.7 4.2 14.85 3.75 Q12.4 3.75 10.35 4.5 8.15 5.25 7.6 6.2 L7.55 6.3 7.4 7.1 Q7.3 7.55 7.7 8.0 L8.65 8.9 M12.9 12.8 L13.0 13.25 13.2 14.25 Q13.55 15.65 14.3 16.65 L14.9 17.4 15.3 17.65 15.45 17.75 15.65 17.9 15.95 18.05 16.3 18.0 16.35 18.0 16.55 18.0 16.65 17.95 16.9 17.95 17.0 17.75 17.1 17.7 16.9 17.0 16.9 16.9 16.2 16.55 Q15.8 16.15 15.8 15.6 L16.0 14.95 15.75 14.45 15.6 13.8 15.3 12.5 15.15 11.65 15.1 11.55 15.1 11.5 15.1 11.0 15.05 10.6 Q15.15 10.5 15.7 10.35 L18.1 9.9 18.05 9.3 18.05 9.15 17.9 7.95 17.65 7.95 17.55 8.0 16.4 8.2 14.95 8.6 Q14.6 8.7 14.35 8.85 L13.85 9.05 M13.55 9.2 Q13.2 9.35 13.05 9.6 M19.7 4.2 L22.15 3.45 22.1 3.45 Q25.25 2.7 28.0 2.65 30.75 2.6 33.05 3.35 35.5 4.1 36.1 5.2 L36.15 5.3 36.3 6.15 Q36.4 6.65 36.0 7.15 L34.9 8.2 34.9 8.3 Q35.55 10.9 36.2 11.45 36.75 12.15 36.75 13.05 37.05 12.8 37.5 12.8 38.05 12.8 38.45 13.2 38.8 13.55 38.8 14.1 38.8 14.65 38.45 15.05 L37.6 15.4 37.7 15.95 37.35 16.9 Q36.95 17.25 36.4 17.25 L36.0 17.2 35.65 18.0 34.7 18.35 Q34.15 18.4 33.8 18.0 L33.75 17.95 33.65 18.0 32.65 18.0 32.55 17.95 32.55 18.9 Q32.65 20.75 33.3 21.85 L34.35 24.2 35.45 25.15 Q36.6 26.5 37.5 28.6 37.8 29.0 37.5 29.35 L37.35 29.6 36.8 29.9 36.6 29.95 Q36.9 30.55 37.55 31.15 L38.45 31.75 Q39.9 32.55 40.4 33.55 L40.45 33.85 Q41.9 34.55 42.3 36.45 42.2 37.8 41.75 38.75 40.9 40.75 38.4 41.5 L38.35 41.55 Q31.2 42.7 28.7 41.45 L26.1 40.15 26.05 40.15 25.55 39.5 20.6 37.15 Q20.2 36.65 20.05 35.35 L17.05 36.85 16.6 37.45 16.55 37.45 14.2 38.7 5.55 39.05 5.5 39.0 Q3.25 38.35 2.45 36.6 2.05 35.7 2.0 34.55 2.35 32.8 3.65 32.15 L3.7 31.9 Q4.15 31.0 5.45 30.2 L6.25 29.6 7.15 28.55 6.95 28.5 6.45 28.2 6.35 28.0 Q6.05 27.7 6.35 27.3 7.15 25.45 8.15 24.15 L9.15 23.25 Q9.55 22.05 10.1 21.15 10.7 20.15 10.8 18.45 L10.8 17.6 M17.9 7.95 L17.7 7.3 17.55 6.8 17.55 6.45 17.55 5.9 M22.8 7.2 L23.7 7.25 24.9 7.4 25.0 7.45 26.3 7.65 27.9 8.1 28.6 8.3 29.15 8.55 M22.95 9.35 L23.0 9.4 22.9 9.4 22.85 9.4 22.95 9.35 23.15 9.4 23.2 9.4 23.65 9.45 23.85 9.5 24.4 9.65 27.05 10.05 27.8 10.3 27.75 10.75 27.75 11.3 27.75 11.35 27.7 11.5 27.55 12.4 27.2 13.85 27.0 14.6 Q26.45 15.9 25.7 16.6 M22.9 9.4 L22.95 9.35 M29.55 8.75 L30.05 9.1 30.35 8.6 30.55 8.35 Q30.65 8.2 30.8 8.15 L31.5 7.7 32.4 7.05 Q33.05 6.5 33.4 6.35 L33.5 6.3 33.6 6.2 Q33.5 5.9 33.0 5.75 32.6 5.5 32.05 5.4 L31.65 5.3 29.0 4.9 28.0 4.85 22.8 5.6 Q20.7 6.0 20.3 6.35 M30.05 9.1 L30.15 9.25 30.2 9.25 30.4 9.6 30.45 9.75 30.5 10.25 30.45 10.95 30.45 11.45 30.4 11.6 30.25 12.35 30.2 12.65 Q30.7 14.5 31.95 17.3 L32.1 17.55 32.55 17.95 M34.9 8.2 L34.8 8.3 33.9 9.0 33.1 9.4 32.8 9.7 Q32.5 9.95 32.5 10.45 L32.55 11.1 M34.2 16.0 L34.55 16.75 34.95 16.55 35.1 16.5 35.15 16.45 35.2 16.4 35.1 15.95 Q35.1 15.4 35.5 15.05 35.8 14.7 36.35 14.65 L36.2 14.1 Q36.2 13.55 36.6 13.2 L36.65 13.2 36.75 13.05 M36.35 14.65 L36.4 14.65 Q36.95 14.65 37.35 15.05 L37.6 15.4 M36.0 17.2 L35.5 16.9 35.2 16.4 M34.35 24.2 L33.4 23.45 33.35 23.45 Q32.3 22.75 31.3 22.6 32.95 23.45 34.3 25.3 L35.55 27.2 36.4 29.15 M34.55 16.75 L34.55 16.8 34.5 16.8 34.5 16.85 34.55 17.05 34.4 17.45 34.3 17.65 34.25 17.7 33.9 17.85 33.75 17.95 M30.2 12.65 L30.1 13.15 29.85 14.25 Q29.45 15.9 28.65 17.0 L27.95 17.8 27.55 18.15 27.35 18.25 27.15 18.4 26.8 18.6 26.4 18.55 26.35 18.55 26.15 18.6 26.0 18.55 25.85 18.55 26.0 19.2 Q26.0 19.75 25.65 20.15 25.25 20.5 24.7 20.5 24.15 20.5 23.8 20.15 L23.45 19.5 23.35 19.6 Q22.95 19.95 22.4 19.95 L21.5 19.6 21.3 19.35 21.2 21.5 20.9 22.9 20.7 23.35 20.5 24.1 20.2 28.0 19.95 29.65 19.2 31.0 19.2 31.05 19.55 32.2 19.9 33.05 Q20.5 34.25 21.3 34.5 L21.55 34.55 Q22.55 34.9 23.65 33.85 L23.55 33.8 23.6 33.75 22.6 32.05 22.0 32.6 M18.1 9.9 L17.9 11.35 17.45 12.45 17.05 13.0 Q16.8 13.65 17.0 14.3 L17.1 14.3 Q17.65 14.3 18.05 14.7 18.4 15.05 18.4 15.6 L18.4 15.75 Q18.8 15.75 19.15 16.1 19.5 16.45 19.5 16.95 L20.1 16.8 Q20.65 16.8 21.05 17.2 L21.3 17.55 21.6 17.65 Q21.95 17.35 22.4 17.35 22.95 17.35 23.35 17.75 L23.6 18.15 23.9 18.2 Q24.15 17.95 24.55 17.9 L24.7 17.9 Q25.25 17.9 25.65 18.3 L25.85 18.55 M31.3 22.15 L30.55 22.25 31.3 22.6 M16.9 16.9 L17.1 16.35 17.3 16.1 Q17.5 15.9 17.75 15.8 L18.2 15.7 18.4 15.75 M16.0 14.95 L16.2 14.7 Q16.5 14.35 17.0 14.3 M16.9 17.95 L16.7 18.6 Q16.7 19.1 17.0 19.45 L17.85 19.75 Q18.35 19.75 18.65 19.4 L19.0 18.75 18.9 18.6 18.9 18.55 18.8 18.2 18.6 18.25 18.2 18.3 18.0 18.3 17.6 18.2 17.3 17.95 17.1 17.7 M18.8 18.2 L18.8 18.1 18.85 17.9 Q18.85 17.5 19.2 17.2 L19.5 17.0 19.5 16.95 M21.2 21.5 Q20.95 20.4 20.95 19.15 L20.1 19.4 Q19.55 19.4 19.2 19.05 L19.0 18.75 M23.45 19.5 L23.4 19.2 Q23.4 18.75 23.7 18.45 L23.6 18.15 M23.7 18.45 L23.8 18.3 23.9 18.2 M21.3 17.55 L21.4 17.9 21.5 17.75 21.6 17.65 M20.95 19.15 L21.05 19.05 21.15 18.95 21.1 18.65 Q21.1 18.2 21.4 17.9 M21.3 19.35 L21.15 18.95 M20.5 24.1 L20.4 23.05 20.25 22.55 20.05 22.4 12.55 21.45 11.9 21.8 Q10.45 22.6 9.3 24.2 L8.1 26.05 7.3 27.8 M21.5 27.75 L21.8 27.4 Q21.55 24.5 22.0 23.75 L22.2 23.55 30.55 22.25 M3.65 32.15 Q3.35 33.15 3.35 33.7 L3.35 33.95 3.4 34.0 3.85 34.4 Q5.6 35.75 9.05 35.85 L10.8 35.8 11.6 35.75 11.8 35.75 12.1 35.75 14.4 35.6 16.1 34.8 16.65 34.35 16.75 34.2 Q17.45 33.2 18.3 32.3 L18.65 31.9 18.75 31.7 18.8 31.65 19.2 31.0 M18.75 31.7 L18.8 31.7 18.8 31.65 19.55 32.2 M18.65 31.9 L18.4 32.95 18.4 33.0 18.1 34.25 19.9 33.2 19.9 33.05 M20.05 35.35 Q19.9 34.45 19.9 33.2 M22.6 32.05 L22.35 31.65 21.8 27.4 M23.6 33.75 L23.7 33.85 23.8 34.05 24.2 34.5 25.9 36.55 25.95 36.75 26.55 37.2 28.5 38.05 31.1 38.15 31.35 38.1 31.4 38.1 31.65 38.1 32.5 38.1 34.5 38.1 Q38.3 37.9 40.2 36.4 L40.75 35.85 40.8 35.8 40.8 35.55 40.45 33.85 M23.7 33.85 L23.65 33.85 M21.7 35.05 Q22.95 36.05 24.4 36.65 L24.05 35.3 24.05 35.2 23.8 34.05 M20.4 23.05 L20.9 22.9 M25.55 39.5 Q24.9 38.45 24.4 36.65 M40.8 35.8 L40.8 35.85 40.75 35.85 M17.05 36.85 Q17.65 35.9 18.1 34.25 M7.0 13.35 Q6.7 13.1 6.3 13.1 5.8 13.1 5.45 13.45 5.15 13.8 5.15 14.3 5.15 14.8 5.45 15.15 L6.25 15.45 6.45 15.1 Q6.8 14.75 7.3 14.75 L7.35 14.75 7.35 14.7 M7.4 14.75 L7.35 14.75 M6.25 15.45 L6.15 15.95 Q6.15 16.45 6.45 16.8 6.8 17.1 7.3 17.1 L7.7 17.05 8.1 16.75 8.4 16.3 M7.7 17.05 L8.0 17.75 8.85 18.05 Q9.35 18.05 9.65 17.7 L9.7 17.65 M11.9 21.8 Q10.95 21.95 10.05 22.6 L10.0 22.6 9.15 23.25 M12.55 21.45 L11.9 21.35 M3.4 34.0 L3.35 34.0 3.35 33.95 M9.05 11.4 L8.75 10.15 M34.5 11.0 L34.8 9.55" fill="none" stroke="#000000" stroke-linecap="round" stroke-linejoin="round" stroke-opacity="0.3019608" stroke-width="0.7000000000000001"/>
    </g>
    <g id="sprite0" transform="matrix(1.0, 0.0, 0.0, 1.0, 14.4, 19.95)">
      <use height="42.7" transform="matrix(-0.4124, 0.0, 0.0, 0.4124, 8.8481, -0.4182)" width="36.3" xlink:href="#sprite1"/>
      <use height="50.2" transform="matrix(-0.4124, 0.0, -0.065, 0.3986, 7.8973, -0.3861)" width="46.15" xlink:href="#sprite2"/>
      <use height="31.8" transform="matrix(1.0, 0.0, 0.0, 1.0, -10.05, -19.95)" width="23.0" xlink:href="#shape3"/>
    </g>
    <g id="sprite1" transform="matrix(1.0, 0.0, 0.0, 1.0, 16.0, 15.2)">
      <use height="42.7" transform="matrix(1.0, 0.0, 0.0, 1.0, -16.0, -15.2)" width="36.3" xlink:href="#shape1"/>
    </g>
    <g id="shape1" transform="matrix(1.0, 0.0, 0.0, 1.0, 16.0, 15.2)">
      <path d="M-13.25 5.0 L-13.15 5.5 Q-13.55 -0.5 -12.05 -4.1 L-7.4 -11.85 Q2.6 -17.2 11.2 -13.95 L18.85 -2.9 16.7 0.9 Q18.0 6.9 18.05 12.55 L17.75 17.8 Q9.55 22.25 -1.1 21.0 -7.05 19.4 -11.6 15.55 -7.05 19.4 -1.1 21.0 9.55 22.25 17.75 17.8 L18.05 12.55 20.2 16.25 Q20.55 20.8 19.45 23.9 11.95 27.4 4.65 27.5 L-1.75 26.95 -14.3 20.45 Q-16.2 18.15 -16.0 8.25 -15.5 5.75 -13.25 5.0 L-13.2 10.85 -13.25 5.0 M16.05 2.05 L16.7 0.9 16.05 2.05 M17.75 17.8 L17.6 19.1 17.75 17.8" fill="#080706" fill-rule="evenodd" stroke="none"/>
      <path d="M16.7 0.9 L18.85 -2.9 11.2 -13.95 Q2.6 -17.2 -7.4 -11.85 L-12.05 -4.1 Q-13.55 -0.5 -13.15 5.5 L-13.25 5.0 -13.2 10.85 M-11.6 15.55 Q-7.05 19.4 -1.1 21.0 9.55 22.25 17.75 17.8 L18.05 12.55 Q18.0 6.9 16.7 0.9 L16.05 2.05 M18.05 12.55 L20.2 16.25 Q20.55 20.8 19.45 23.9 11.95 27.4 4.65 27.5 L-1.75 26.95 -14.3 20.45 Q-16.2 18.15 -16.0 8.25 -15.5 5.75 -13.25 5.0 M17.6 19.1 L17.75 17.8" fill="none" stroke="#000000" stroke-linecap="round" stroke-linejoin="round" stroke-opacity="0.4" stroke-width="0.05"/>
    </g>
    <g id="sprite2" transform="matrix(1.0, 0.0, 0.0, 1.0, 19.4, 23.8)">
      <use height="50.2" transform="matrix(1.0, 0.0, 0.0, 1.0, -19.4, -23.8)" width="46.15" xlink:href="#shape2"/>
    </g>
    <g id="shape2" transform="matrix(1.0, 0.0, 0.0, 1.0, 19.4, 23.8)">
      <path d="M15.55 -4.25 L15.3 -4.35 15.55 -4.7 15.55 -4.25 M1.9 6.65 L1.95 6.75 1.9 6.75 1.9 6.65" fill="#879880" fill-rule="evenodd" stroke="none"/>
      <path d="M-17.2 4.85 L-17.15 5.0 -17.3 4.95 -17.2 4.85" fill="#6a7a66" fill-rule="evenodd" stroke="none"/>
      <path d="M10.15 12.5 L10.2 12.45 10.15 12.5 M15.25 25.45 L15.25 25.4 15.4 25.4 15.25 25.45 M-13.75 21.05 L-13.85 21.05 -13.75 21.05" fill="#32382f" fill-rule="evenodd" stroke="none"/>
      <path d="M1.65 6.65 L1.9 6.65 1.9 6.75 1.9 6.8 1.65 6.65 M-8.2 0.0 L-8.15 0.25 -8.25 0.05 -8.2 0.0" fill="#54604f" fill-rule="evenodd" stroke="none"/>
      <path d="M-0.15 16.25 L0.45 16.2 0.45 16.3 -0.15 16.25" fill="#3d2800" fill-rule="evenodd" stroke="none"/>
      <path d="M23.25 11.4 L23.45 11.25 23.4 11.4 23.25 11.4" fill="#471c06" fill-rule="evenodd" stroke="none"/>
      <path d="M15.55 -4.7 L15.3 -4.35 Q12.85 -0.7 15.25 0.9 12.55 3.45 -0.65 6.6 -9.4 5.85 -8.15 0.25 L-8.2 0.0 -8.95 -4.0 Q-8.85 -11.95 14.15 -10.75 L15.55 -5.85 15.55 -5.75 15.55 -5.25 15.55 -4.7" fill="#bdb3a0" fill-rule="evenodd" stroke="none"/>
      <path d="M15.3 -4.35 L15.55 -4.25 Q15.85 -2.55 17.45 -0.8 L19.35 0.85 Q22.5 3.0 23.45 5.55 L23.45 6.3 Q23.75 9.0 23.55 10.55 23.75 -0.2 1.95 6.75 L1.9 6.65 1.65 6.65 -0.65 6.6 Q12.55 3.45 15.25 0.9 12.85 -0.7 15.3 -4.35" fill="#ccc1ad" fill-rule="evenodd" stroke="none"/>
      <path d="M1.95 6.75 Q23.75 -0.2 23.55 10.55 L23.45 11.25 23.25 11.4 21.85 12.55 Q15.25 17.15 2.55 16.45 L0.45 16.3 0.45 16.2 -0.15 16.25 -0.2 16.25 Q-1.1 12.35 1.9 6.8 L1.9 6.75 1.95 6.75 M10.2 12.45 L10.15 12.5 10.2 12.45" fill="#7a7468" fill-rule="evenodd" stroke="none"/>
      <path d="M-0.65 6.6 L1.65 6.65 1.9 6.8 Q-1.1 12.35 -0.2 16.25 L-0.9 16.35 -7.1 15.9 Q-10.25 14.9 -12.7 12.45 L-12.85 12.0 Q-14.3 9.2 -16.15 6.65 -15.65 3.3 -8.25 0.05 L-8.15 0.25 Q-9.4 5.85 -0.65 6.6 M4.15 -23.6 Q10.7 -20.45 14.15 -10.75 -8.85 -11.95 -8.95 -4.0 -10.25 -12.9 -7.4 -22.1 L4.15 -23.6" fill="#5d584f" fill-rule="evenodd" stroke="none"/>
      <path d="M-8.95 -4.0 L-8.2 0.0 -8.25 0.05 Q-15.65 3.3 -16.15 6.65 L-16.9 5.55 -17.15 5.0 -17.2 4.85 -19.4 -0.65 Q-19.3 -17.45 -17.05 -20.45 L-16.6 -20.9 -7.4 -22.1 Q-10.25 -12.9 -8.95 -4.0" fill="#45413b" fill-rule="evenodd" stroke="none"/>
      <path d="M23.55 10.55 Q23.75 9.0 23.45 6.3 26.6 8.15 26.75 12.95 26.1 16.2 24.6 18.65 25.85 14.75 23.45 12.5 L21.85 12.55 23.25 11.4 23.4 11.4 23.45 11.25 23.55 10.55 M-0.2 16.25 L-0.15 16.25 0.45 16.3 2.55 16.45 0.6 17.15 0.4 17.3 -2.25 17.85 Q-4.3 18.2 -7.9 16.8 -8.95 20.9 -7.55 22.85 -6.1 26.2 15.25 25.4 L15.25 25.45 Q-2.4 27.7 -8.0 24.5 L-13.75 21.05 -13.85 21.05 -11.45 14.85 Q-9.55 15.6 -7.1 15.9 L-0.9 16.35 -0.2 16.25" fill="#1c1b18" fill-rule="evenodd" stroke="none"/>
      <path d="M-16.9 5.55 L-16.15 6.65 Q-14.3 9.2 -12.85 12.0 L-12.7 12.45 Q-10.25 14.9 -7.1 15.9 -9.55 15.6 -11.45 14.85 L-13.85 21.05 Q-16.3 17.6 -16.75 8.7 L-16.75 8.45 -16.9 5.55" fill="#080706" fill-rule="evenodd" stroke="none"/>
      <path d="M21.85 12.55 L23.45 12.5 Q25.85 14.75 24.6 18.65 21.65 23.55 15.4 25.4 L15.25 25.4 Q-6.1 26.2 -7.55 22.85 -8.95 20.9 -7.9 16.8 -4.3 18.2 -2.25 17.85 L0.4 17.3 0.6 17.15 2.55 16.45 Q15.25 17.15 21.85 12.55" fill="#282621" fill-rule="evenodd" stroke="none"/>
      <path d="M4.15 -23.6 L5.95 -23.8 M15.55 -4.25 L15.55 -4.7 M23.55 10.55 Q23.75 9.0 23.45 6.3 L23.45 5.55 Q22.5 3.0 19.35 0.85 L17.45 -0.8 Q15.85 -2.55 15.55 -4.25 M14.15 -10.75 L15.55 -5.85 M4.15 -23.6 Q10.7 -20.45 14.15 -10.75 M23.45 11.25 L23.55 10.55 M23.25 11.4 L23.45 11.25 23.4 11.4 23.25 11.4 21.85 12.55 M24.6 18.65 Q26.1 16.2 26.75 12.95 26.6 8.15 23.45 6.3 M-0.2 16.25 L-0.15 16.25 0.45 16.2 M0.45 16.3 L2.55 16.45 Q15.25 17.15 21.85 12.55 M10.15 12.5 L10.2 12.45 M15.25 25.45 L15.4 25.4 M24.6 18.65 Q21.65 23.55 15.4 25.4 M-7.4 -22.1 L-16.6 -20.9 -17.05 -20.45 Q-19.3 -17.45 -19.4 -0.65 L-17.2 4.85 -17.15 5.0 -16.9 5.55 -16.15 6.65 Q-14.3 9.2 -12.85 12.0 L-12.7 12.45 Q-10.25 14.9 -7.1 15.9 L-0.9 16.35 -0.2 16.25 M-17.15 5.0 L-17.3 4.95 -17.2 4.85 M-13.85 21.05 Q-16.3 17.6 -16.75 8.7 L-16.75 8.45 -16.9 5.55 M-13.85 21.05 L-13.75 21.05 M15.25 25.45 Q-2.4 27.7 -8.0 24.5 L-13.75 21.05 M-0.15 16.25 L0.45 16.3 M-7.4 -22.1 L4.15 -23.6 Z" fill="none" stroke="#000000" stroke-linecap="round" stroke-linejoin="round" stroke-opacity="0.3019608" stroke-width="0.05"/>
    </g>
    <g id="shape3" transform="matrix(1.0, 0.0, 0.0, 1.0, 10.05, 19.95)">
      <path d="M-3.95 -6.2 L-3.9 -6.5 Q-3.75 -5.0 -3.95 -6.2" fill="#80503c" fill-rule="evenodd" stroke="none"/>
      <path d="M3.15 3.3 L3.6 4.0 3.4 3.75 3.35 3.7 3.25 3.5 3.15 3.3" fill="#74191f" fill-rule="evenodd" stroke="none"/>
      <path d="M3.6 4.0 L3.65 4.1 3.75 4.3 3.6 4.4 3.6 4.35 3.5 4.05 3.4 3.8 3.4 3.75 3.6 4.0 M-2.15 2.15 L-1.9 2.25 -2.1 2.25 -2.15 2.15" fill="#511113" fill-rule="evenodd" stroke="none"/>
      <path d="M-4.7 3.9 L-4.75 3.95 -4.75 3.9 -4.7 3.9" fill="#907c32" fill-rule="evenodd" stroke="none"/>
      <path d="M-3.8 -3.6 Q-3.2 -3.2 -2.3 -2.9 L0.95 -2.35 3.05 -2.05 4.85 1.9 Q5.2 2.45 5.05 2.95 L3.75 2.3 2.0 1.85 Q-1.25 -1.35 -4.6 1.0 L-4.65 1.0 -5.6 1.75 -4.65 1.0 -4.6 1.0 Q-1.25 -1.35 2.0 1.85 L3.75 2.3 5.05 2.95 Q8.15 6.65 5.45 4.95 L3.15 3.3 3.1 3.25 3.05 3.1 2.95 2.95 2.65 2.6 2.0 1.85 2.65 2.6 2.95 2.95 3.05 3.1 3.1 3.25 3.15 3.3 3.25 3.5 3.35 3.7 3.4 3.75 3.4 3.8 3.5 4.05 3.6 4.35 3.6 4.4 3.8 5.1 4.9 8.25 Q5.75 10.15 6.8 11.15 L7.45 11.7 7.2 11.75 Q5.65 12.35 3.8 9.45 L3.75 9.35 3.55 9.0 2.9 7.3 2.9 7.2 1.7 5.05 1.35 4.6 1.0 4.2 Q-0.15 2.7 -1.25 2.35 L-1.9 2.25 -2.15 2.15 -3.2 1.9 Q-4.1 1.9 -4.9 2.4 L-6.2 3.5 -7.2 4.85 -8.6 7.25 -8.75 7.0 Q-9.05 6.65 -8.75 6.25 -7.85 4.15 -6.7 2.75 L-5.6 1.75 -4.55 -0.6 Q-3.9 -1.75 -3.8 -3.6 M8.5 2.5 L8.95 2.75 9.25 3.1 Q9.8 3.85 9.8 4.55 9.8 7.3 8.4 8.5 L7.55 8.5 7.9 7.6 Q8.6 5.75 8.65 4.25 L8.5 2.5" fill="#7b407e" fill-rule="evenodd" stroke="none"/>
      <path d="M5.05 2.95 Q5.2 2.45 4.85 1.9 L3.05 -2.05 0.95 -2.35 -2.3 -2.9 Q-3.2 -3.2 -3.8 -3.6 L-3.8 -5.05 Q-3.8 -4.65 -3.85 -5.25 L-3.95 -6.2 -4.3 -8.1 Q0.1 -14.2 3.05 -12.05 6.0 -9.95 8.35 -11.6 L7.85 -6.35 7.6 -5.15 Q7.2 -2.3 7.85 0.05 L8.05 0.5 8.35 1.7 8.05 0.5 7.85 0.05 8.4 0.2 Q10.15 1.6 10.05 2.7 10.2 5.45 9.55 8.15 8.75 11.25 7.45 11.7 L6.8 11.15 Q5.75 10.15 4.9 8.25 L3.8 5.1 3.6 4.4 3.75 4.3 3.65 4.1 3.6 4.0 3.15 3.3 5.45 4.95 Q8.15 6.65 5.05 2.95 6.3 3.7 7.25 4.95 6.3 3.7 5.05 2.95 M-3.95 -6.2 Q-3.75 -5.0 -3.9 -6.5 L-3.95 -6.2 M6.75 9.8 L5.55 8.35 5.5 8.25 3.85 4.5 3.75 4.3 3.85 4.5 5.5 8.25 5.55 8.35 6.75 9.8 M8.4 1.8 L8.35 1.7 8.35 1.75 8.4 1.8 8.5 2.5 8.65 4.25 Q8.6 5.75 7.9 7.6 L7.55 8.5 8.4 8.5 Q9.8 7.3 9.8 4.55 9.8 3.85 9.25 3.1 L8.95 2.75 8.5 2.5 8.4 1.8" fill="#58145c" fill-rule="evenodd" stroke="none"/>
      <path d="M-2.15 2.15 L-2.1 2.25 -3.25 2.55 -4.6 3.75 -4.7 3.9 -4.75 3.9 -6.75 6.35 -7.7 7.6 -8.05 7.55 -8.6 7.25 -7.2 4.85 -6.2 3.5 -4.9 2.4 Q-4.1 1.9 -3.2 1.9 L-2.15 2.15" fill="#48104b" fill-rule="evenodd" stroke="none"/>
      <path d="M5.05 2.95 Q6.3 3.7 7.25 4.95 M-4.3 -8.1 L-3.95 -6.2 -3.9 -6.5 Q-3.75 -5.0 -3.95 -6.2 L-3.85 -5.25 Q-3.8 -4.65 -3.8 -5.05 L-3.8 -3.6 Q-3.9 -1.75 -4.55 -0.6 L-5.6 1.75 -4.65 1.0 -4.6 1.0 Q-1.25 -1.35 2.0 1.85 L3.75 2.3 5.05 2.95 M3.6 4.0 L3.65 4.1 3.75 4.3 3.85 4.5 5.5 8.25 5.55 8.35 6.75 9.8 M7.85 0.05 Q7.2 -2.3 7.6 -5.15 L7.85 -6.35 8.35 -11.6 M7.85 0.05 L8.05 0.5 8.35 1.7 8.4 1.8 8.5 2.5 M7.45 11.7 Q8.75 11.25 9.55 8.15 10.2 5.45 10.05 2.7 10.15 1.6 8.4 0.2 L7.85 0.05 M3.15 3.3 L3.1 3.25 3.05 3.1 2.95 2.95 2.65 2.6 2.0 1.85 M-1.25 2.35 Q-0.15 2.7 1.0 4.2 L1.35 4.6 1.7 5.05 2.9 7.2 M2.9 7.3 L3.55 9.0 3.75 9.35 3.8 9.45 Q5.65 12.35 7.2 11.75 L7.45 11.7 M3.4 3.75 L3.35 3.7 3.25 3.5 3.15 3.3 M3.6 4.0 L3.4 3.75 M-2.1 2.25 L-1.9 2.25 M-2.1 2.25 L-3.25 2.55 -4.6 3.75 -4.7 3.9 -4.75 3.95 -4.75 3.9 -6.75 6.35 -7.7 7.6 -8.05 7.55 -8.6 7.25 -8.75 7.0 Q-9.05 6.65 -8.75 6.25 -7.85 4.15 -6.7 2.75 L-5.6 1.75" fill="none" stroke="#000000" stroke-linecap="round" stroke-linejoin="round" stroke-opacity="0.3019608" stroke-width="0.05"/>
      <path d="M-6.15 -16.35 L-5.25 -17.7 Q-1.2 -19.35 5.75 -18.85 L9.55 -18.3 9.15 -17.5 5.45 -17.95 Q-0.2 -18.35 -6.15 -16.35" fill="#6e3f2c" fill-rule="evenodd" stroke="none"/>
      <path d="M-6.15 -16.35 Q-0.2 -18.35 5.45 -17.95 L9.15 -17.5 Q5.9 -12.05 -4.8 -14.6 L-6.15 -16.35" fill="#1e1400" fill-rule="evenodd" stroke="none"/>
      <path d="M9.15 -17.5 L9.55 -18.3 5.75 -18.85 Q-1.2 -19.35 -5.25 -17.7 L-6.15 -16.35 Q-0.2 -18.35 5.45 -17.95 L9.15 -17.5 Q5.9 -12.05 -4.8 -14.6 L-6.15 -16.35" fill="none" stroke="#000000" stroke-linecap="round" stroke-linejoin="round" stroke-opacity="0.3019608" stroke-width="0.05"/>
      <path d="M-1.45 -13.3 Q-1.45 -13.65 -1.8 -14.2 L-1.3 -13.45 -1.4 -13.3 -1.45 -13.3 M1.95 -4.05 L1.6 -4.25 1.6 -4.3 1.95 -4.05" fill="#9c6800" fill-rule="evenodd" stroke="none"/>
      <path d="M11.3 -10.5 L11.5 -10.3 11.7 -9.95 11.3 -10.5" fill="#8c7729" fill-rule="evenodd" stroke="none"/>
      <path d="M5.55 -13.35 L5.55 -13.4 5.6 -13.35 5.55 -13.35 M-6.15 -14.1 L-6.15 -14.2 -6.05 -14.1 -6.15 -14.1 M-5.7 -11.35 L-5.7 -11.3 -5.75 -11.45 -5.7 -11.35" fill="#74191f" fill-rule="evenodd" stroke="none"/>
      <path d="M1.75 -8.05 L1.55 -8.8 1.75 -8.75 1.75 -8.05 M5.85 -13.4 L5.75 -13.35 5.65 -13.35 5.6 -13.35 5.8 -13.4 5.9 -13.4 5.85 -13.4 5.8 -13.4 5.85 -13.4 M5.75 -13.35 L5.8 -13.4 5.75 -13.35" fill="#511113" fill-rule="evenodd" stroke="none"/>
      <path d="M5.9 -13.4 L5.95 -13.45 6.3 -13.5 5.95 -13.4 5.85 -13.4 5.65 -13.35 5.75 -13.35 5.85 -13.4 5.9 -13.4" fill="#370c0c" fill-rule="evenodd" stroke="none"/>
      <path d="M6.65 -13.6 L6.6 -13.6 6.65 -13.6 M5.55 -13.35 L5.6 -13.35 5.65 -13.35 5.6 -13.25 5.55 -13.35" fill="#8c1e21" fill-rule="evenodd" stroke="none"/>
      <path d="M-3.75 -12.05 L-3.8 -11.4 Q-4.1 -9.8 -5.35 -6.7 L-5.7 -5.85 -5.75 -5.65 -6.35 -5.9 -6.4 -5.95 Q-7.4 -7.2 -7.8 -8.2 -8.1 -10.0 -7.05 -10.55 -6.65 -9.45 -6.05 -8.85 L-6.0 -8.85 Q-5.85 -8.7 -5.7 -8.7 -5.35 -8.55 -5.2 -8.7 -4.95 -9.25 -5.7 -11.3 L-5.7 -11.35 -5.75 -11.45 -6.05 -12.85 -6.05 -14.1 -5.15 -13.45 -4.35 -13.05 -4.05 -12.8 Q-3.75 -12.55 -3.75 -12.05" fill="#48104b" fill-rule="evenodd" stroke="none"/>
      <path d="M4.55 -4.45 L3.05 -6.1 Q2.3 -6.75 1.75 -8.05 L1.75 -8.75 1.8 -9.7 Q1.85 -10.45 2.35 -11.05 L2.6 -11.35 Q6.55 -11.65 10.7 -13.75 10.55 -11.95 11.3 -10.5 L11.7 -9.95 Q12.1 -8.85 11.35 -7.65 L10.55 -6.65 Q9.45 -5.75 5.95 -4.85 L4.55 -4.45 M-4.65 -16.1 L-4.75 -16.15 -4.65 -16.1" fill="#7b407e" fill-rule="evenodd" stroke="none"/>
      <path d="M1.55 -8.8 L1.2 -10.25 1.05 -11.15 1.0 -11.3 1.0 -11.35 1.0 -11.9 0.95 -12.35 4.35 -13.1 5.55 -13.35 5.6 -13.25 5.65 -13.35 5.85 -13.4 5.95 -13.4 6.3 -13.5 6.7 -13.6 6.65 -13.6 Q10.5 -14.65 11.05 -15.65 L10.7 -13.75 Q6.55 -11.65 2.6 -11.35 L2.35 -11.05 Q1.85 -10.45 1.8 -9.7 L1.75 -8.75 1.55 -8.8 M-6.15 -14.1 L-6.05 -14.1 -6.05 -12.85 -5.75 -11.45 -5.7 -11.3 Q-4.95 -9.25 -5.2 -8.7 -5.35 -8.55 -5.7 -8.7 -5.85 -8.7 -6.0 -8.85 L-6.05 -8.85 Q-6.65 -9.45 -7.05 -10.55 -8.1 -10.0 -7.8 -8.2 -8.35 -9.75 -7.45 -10.95 -6.8 -11.5 -6.15 -14.1" fill="#58145c" fill-rule="evenodd" stroke="none"/>
      <path d="M-1.8 -14.2 L-2.05 -14.4 -2.75 -14.8 -3.65 -15.45 -4.65 -16.1 -4.75 -16.15 -4.85 -16.25 -4.25 -16.7 -4.2 -16.75 -3.3 -17.1 0.75 -17.75 5.95 -17.2 Q8.25 -16.8 8.5 -16.45 L8.6 -16.4 Q8.25 -16.1 5.95 -15.6 L5.05 -15.5 3.85 -15.3 3.75 -15.25 2.45 -15.0 0.85 -14.55 0.15 -14.3 -0.4 -14.05 -0.65 -13.95 -0.75 -13.9 -1.3 -13.45 -1.8 -14.2" fill="#221c1c" fill-rule="evenodd" stroke="none"/>
      <path d="M-7.4 -17.1 L-7.35 -17.2 Q-6.75 -18.3 -4.3 -19.1 -2.0 -19.95 0.75 -19.95 L6.65 -19.35 6.6 -19.35 9.55 -18.5 Q10.8 -17.95 11.15 -17.2 L11.2 -16.5 Q10.85 -15.85 9.75 -15.4 L8.0 -14.75 6.65 -14.35 5.8 -14.15 4.35 -13.8 2.75 -13.5 1.4 -13.2 Q0.8 -12.9 0.95 -12.35 L1.0 -11.9 1.0 -11.35 1.0 -11.3 1.05 -11.15 1.2 -10.25 1.55 -8.8 1.75 -8.05 Q2.3 -6.75 3.05 -6.1 L4.55 -4.45 4.35 -4.4 3.85 -4.35 3.8 -4.3 2.75 -4.15 2.6 -4.1 2.35 -4.4 1.75 -4.85 1.05 -5.75 Q0.25 -6.95 -0.15 -8.7 L-0.4 -9.95 -0.5 -10.5 -0.55 -10.8 -0.7 -11.65 -0.75 -12.35 -0.8 -13.15 -0.75 -13.7 -0.7 -13.85 -0.75 -13.9 -0.65 -13.95 -0.4 -14.05 0.15 -14.3 0.85 -14.55 2.45 -15.0 3.75 -15.25 3.85 -15.3 5.05 -15.5 5.95 -15.6 Q8.25 -16.1 8.6 -16.4 L8.6 -16.45 8.75 -16.8 Q8.75 -17.65 7.5 -18.25 6.25 -18.85 3.45 -19.1 L-2.55 -18.7 Q-5.75 -18.1 -5.75 -17.15 L-5.4 -16.6 -4.85 -16.25 -4.75 -16.15 -4.75 -16.0 -4.65 -16.1 -3.65 -15.45 -2.75 -14.8 -2.05 -14.4 -1.8 -14.2 Q-1.45 -13.65 -1.45 -13.3 L-1.65 -12.95 -1.7 -12.8 -1.75 -12.3 -1.7 -11.6 -2.45 -8.9 Q-3.25 -6.0 -4.2 -5.0 L-4.35 -4.95 -5.15 -4.6 -5.55 -4.8 -5.65 -5.0 -5.75 -5.65 -5.7 -5.85 -5.35 -6.7 Q-4.1 -9.8 -3.8 -11.4 L-3.75 -12.05 -3.65 -12.1 -3.55 -12.95 Q-3.55 -13.45 -3.85 -13.7 L-4.15 -13.95 Q-4.95 -14.2 -5.95 -15.1 L-7.05 -16.15 Q-7.45 -16.6 -7.35 -17.1 L-7.4 -17.1 M0.85 -4.75 L0.8 -4.8 1.2 -4.5 0.85 -4.75 M1.6 -4.3 L1.6 -4.25 1.6 -4.3 M-6.15 -14.2 Q-5.65 -13.75 -5.15 -13.45 L-6.05 -14.1 -6.15 -14.2" fill="#ccc1ad" fill-rule="evenodd" stroke="none"/>
      <path d="M-7.4 -17.1 L-7.35 -17.1 Q-7.45 -16.6 -7.05 -16.15 L-5.95 -15.1 Q-4.95 -14.2 -4.15 -13.95 L-3.85 -13.7 Q-3.55 -13.45 -3.55 -12.95 L-3.65 -12.1 -3.75 -12.05 Q-3.75 -12.55 -4.05 -12.8 L-4.35 -13.05 -5.15 -13.45 Q-5.65 -13.75 -6.15 -14.2 L-7.25 -15.25 Q-7.65 -15.7 -7.55 -16.2 L-7.4 -17.1 M-5.15 -4.6 L-4.35 -4.95 -4.2 -5.0 Q-3.25 -6.0 -2.45 -8.9 L-1.7 -11.6 -1.75 -12.3 -1.7 -12.8 -1.65 -12.95 -1.45 -13.3 -1.4 -13.3 -1.3 -13.45 -0.75 -13.9 -0.7 -13.85 -0.75 -13.7 -0.8 -13.15 -0.75 -12.35 -0.7 -11.65 -0.55 -10.8 -0.5 -10.5 -0.4 -9.95 -0.15 -8.7 Q0.25 -6.95 1.05 -5.75 L1.75 -4.85 2.35 -4.4 2.6 -4.1 2.4 -4.1 2.35 -4.1 1.95 -4.05 1.6 -4.3 1.6 -4.25 1.4 -4.4 1.2 -4.5 0.8 -4.8 0.1 -5.6 Q-0.7 -6.7 -1.1 -8.3 L-1.35 -9.4 -1.45 -9.9 Q-1.95 -8.05 -3.2 -5.2 L-3.35 -4.95 -3.9 -4.5 -4.9 -4.45 -5.15 -4.6 M-4.85 -16.25 L-5.4 -16.6 -5.75 -17.15 Q-5.75 -18.1 -2.55 -18.7 L3.45 -19.1 Q6.25 -18.85 7.5 -18.25 8.75 -17.65 8.75 -16.8 L8.6 -16.45 8.5 -16.45 Q8.25 -16.8 5.95 -17.2 L0.75 -17.75 -3.3 -17.1 -4.2 -16.75 -4.25 -16.7 -4.85 -16.25 M0.95 -12.35 Q0.8 -12.9 1.4 -13.2 L2.75 -13.5 4.35 -13.8 5.8 -14.15 6.65 -14.35 8.0 -14.75 9.75 -15.4 Q10.85 -15.85 11.2 -16.5 L11.2 -16.15 11.05 -15.65 Q10.5 -14.65 6.65 -13.6 L6.7 -13.6 6.3 -13.5 5.95 -13.45 5.9 -13.4 5.8 -13.4 5.6 -13.35 5.55 -13.4 5.55 -13.35 4.35 -13.1 0.95 -12.35 M6.6 -13.6 L6.65 -13.6 6.6 -13.6 M-1.45 -9.9 L-1.5 -10.2 -1.65 -10.95 -1.7 -11.6 -1.65 -10.95 -1.5 -10.2 -1.45 -9.9" fill="#b5a689" fill-rule="evenodd" stroke="none"/>
      <path d="M11.2 -16.5 L11.15 -17.2 Q10.8 -17.95 9.55 -18.5 L6.6 -19.35 6.65 -19.35 0.75 -19.95 Q-2.0 -19.95 -4.3 -19.1 -6.75 -18.3 -7.35 -17.2 L-7.4 -17.1 -7.55 -16.2 Q-7.65 -15.7 -7.25 -15.25 L-6.15 -14.2 Q-5.65 -13.75 -5.15 -13.45 L-4.35 -13.05 -4.05 -12.8 Q-3.75 -12.55 -3.75 -12.05 L-3.8 -11.4 M-5.35 -6.7 L-5.7 -5.85 M-5.75 -5.65 L-5.65 -5.0 -5.55 -4.8 -5.15 -4.6 M-1.7 -11.6 L-1.75 -12.3 -1.7 -12.8 -1.65 -12.95 -1.45 -13.3 M-1.8 -14.2 L-2.05 -14.4 -2.75 -14.8 -3.65 -15.45 -4.65 -16.1 -4.75 -16.15 -4.85 -16.25 -4.25 -16.7 M5.95 -15.6 L5.05 -15.5 3.85 -15.3 3.75 -15.25 2.45 -15.0 0.85 -14.55 0.15 -14.3 -0.4 -14.05 M-0.65 -13.95 L-0.75 -13.9 -1.3 -13.45 -1.4 -13.3 -1.45 -13.3 M3.8 -4.3 L3.85 -4.35 M3.05 -6.1 Q2.3 -6.75 1.75 -8.05 L1.55 -8.8 1.2 -10.25 1.05 -11.15 1.0 -11.3 1.0 -11.35 1.0 -11.9 0.95 -12.35 M11.2 -16.5 L11.2 -16.15 11.05 -15.65 10.7 -13.75 Q10.55 -11.95 11.3 -10.5 M5.9 -13.4 L5.95 -13.45 M6.65 -13.6 L6.6 -13.6 M5.85 -13.4 L5.75 -13.35 5.65 -13.35 M5.85 -13.4 L5.9 -13.4 5.8 -13.4 5.85 -13.4 M5.8 -13.4 L5.75 -13.35 M5.6 -13.35 L5.8 -13.4 M5.6 -13.35 L5.55 -13.35 4.35 -13.1 0.95 -12.35 M-4.2 -16.75 L-3.3 -17.1 0.75 -17.75 5.95 -17.2 Q8.25 -16.8 8.5 -16.45 M0.8 -4.8 L0.85 -4.75 M1.2 -4.5 L0.8 -4.8 0.1 -5.6 Q-0.7 -6.7 -1.1 -8.3 L-1.35 -9.4 -1.45 -9.9 Q-1.95 -8.05 -3.2 -5.2 L-3.35 -4.95 -3.9 -4.5 -4.9 -4.45 -5.15 -4.6 M1.6 -4.25 L1.95 -4.05 2.35 -4.1 2.4 -4.1 M1.6 -4.25 L1.4 -4.4 1.2 -4.5 M11.7 -9.95 L11.3 -10.5 M-6.15 -14.2 L-6.15 -14.1 Q-6.8 -11.5 -7.45 -10.95 -8.35 -9.75 -7.8 -8.2 -7.4 -7.2 -6.4 -5.95 L-6.35 -5.9 -5.75 -5.65 M-6.05 -14.1 L-6.15 -14.2 M-1.3 -13.45 L-1.8 -14.2 M-1.7 -11.6 L-1.65 -10.95 -1.5 -10.2 -1.45 -9.9 M-5.75 -11.45 L-6.05 -12.85 M-5.75 -11.45 L-5.7 -11.35" fill="none" stroke="#000000" stroke-linecap="round" stroke-linejoin="round" stroke-opacity="0.3019608" stroke-width="0.05"/>
      <path d="M2.6 -4.1 L2.75 -4.15 3.8 -4.3 M3.85 -4.35 L4.35 -4.4 4.55 -4.45 M11.7 -9.95 Q12.1 -8.85 11.35 -7.65 L10.55 -6.65 Q9.45 -5.75 5.95 -4.85 L4.55 -4.45 M2.4 -4.1 L2.6 -4.1" fill="none" stroke="#000000" stroke-linecap="round" stroke-linejoin="round" stroke-opacity="0.4509804" stroke-width="0.05"/>
      <path d="M-9.7 -7.3 Q-10.05 -7.65 -10.05 -8.2 L-9.7 -9.15 Q-9.3 -9.55 -8.75 -9.55 -8.2 -9.55 -7.85 -9.2 -7.45 -8.85 -7.45 -8.3 -7.45 -7.75 -7.85 -7.35 -8.2 -6.95 -8.75 -6.95 -9.3 -6.95 -9.7 -7.3" fill="#b5a484" fill-rule="evenodd" stroke="none"/>
      <path d="M-9.7 -7.3 Q-9.3 -6.95 -8.75 -6.95 -8.2 -6.95 -7.85 -7.35 -7.45 -7.75 -7.45 -8.3 -7.45 -8.85 -7.85 -9.2 -8.2 -9.55 -8.75 -9.55 -9.3 -9.55 -9.7 -9.15 L-10.05 -8.2 Q-10.05 -7.65 -9.7 -7.3 Z" fill="none" stroke="#000000" stroke-linecap="round" stroke-linejoin="round" stroke-opacity="0.4" stroke-width="0.05"/>
      <path d="M-8.35 -7.75 L-8.8 -8.2 -9.0 -8.9 -8.75 -9.4 -8.3 -9.35 -7.8 -8.9 -7.6 -8.2 -7.8 -7.75 Q-8.05 -7.6 -8.35 -7.75" fill="#ccb894" fill-rule="evenodd" stroke="none"/>
      <path d="M-8.05 -8.4 L-8.35 -8.35 -8.65 -8.65 -8.8 -9.1 -8.6 -9.4 -8.3 -9.4 -8.0 -9.1 -7.85 -8.7 -8.05 -8.4" fill="#cccccc" fill-rule="evenodd" stroke="none"/>
      <path d="M-8.3 -7.65 L-8.6 -7.6 -8.9 -7.8 -9.05 -8.1 -8.85 -8.3 -8.55 -8.3 -8.25 -8.1 -8.1 -7.85 -8.3 -7.65" fill="#cccccc" fill-rule="evenodd" stroke="none"/>
      <path d="M-8.6 -5.45 Q-8.95 -5.8 -8.95 -6.35 -8.95 -6.9 -8.6 -7.3 -8.2 -7.7 -7.65 -7.7 -7.1 -7.7 -6.75 -7.35 -6.35 -7.0 -6.35 -6.45 -6.35 -5.9 -6.75 -5.5 -7.1 -5.1 -7.65 -5.1 -8.2 -5.1 -8.6 -5.45" fill="#b5a484" fill-rule="evenodd" stroke="none"/>
      <path d="M-8.6 -5.45 Q-8.2 -5.1 -7.65 -5.1 -7.1 -5.1 -6.75 -5.5 -6.35 -5.9 -6.35 -6.45 -6.35 -7.0 -6.75 -7.35 -7.1 -7.7 -7.65 -7.7 -8.2 -7.7 -8.6 -7.3 -8.95 -6.9 -8.95 -6.35 -8.95 -5.8 -8.6 -5.45 Z" fill="none" stroke="#000000" stroke-linecap="round" stroke-linejoin="round" stroke-opacity="0.4" stroke-width="0.05"/>
      <path d="M-7.25 -5.9 L-7.7 -6.35 -7.9 -7.05 -7.65 -7.55 -7.2 -7.5 -6.7 -7.05 -6.5 -6.35 -6.7 -5.9 Q-6.95 -5.75 -7.25 -5.9" fill="#ccb894" fill-rule="evenodd" stroke="none"/>
      <path d="M-6.95 -6.55 L-7.25 -6.5 -7.55 -6.8 -7.7 -7.25 -7.5 -7.55 -7.2 -7.55 -6.9 -7.25 -6.75 -6.85 Q-6.8 -6.65 -6.95 -6.55" fill="#cccccc" fill-rule="evenodd" stroke="none"/>
      <path d="M-7.2 -5.8 L-7.5 -5.75 -7.8 -5.95 -7.95 -6.25 -7.75 -6.45 -7.45 -6.45 -7.15 -6.25 -7.0 -6.0 -7.2 -5.8" fill="#cccccc" fill-rule="evenodd" stroke="none"/>
      <path d="M-5.35 -6.45 L-5.5 -6.5 -5.7 -6.5 -5.95 -6.5 -6.2 -6.0 -6.05 -5.4 -6.25 -5.2 -6.1 -4.9 -5.8 -4.7 -5.5 -4.75 -5.4 -4.8 -5.05 -4.8 -4.9 -4.6 -5.05 -4.45 Q-5.4 -4.05 -5.95 -4.05 -6.5 -4.05 -6.9 -4.4 L-7.25 -5.3 -6.9 -6.25 Q-6.5 -6.65 -5.95 -6.65 L-5.3 -6.5 -5.35 -6.45" fill="#b5a484" fill-rule="evenodd" stroke="none"/>
      <path d="M-5.7 -6.5 L-5.8 -6.5 -6.0 -6.2 -5.85 -5.75 -5.55 -5.45 -5.5 -5.4 -5.05 -4.8 -5.4 -4.8 -5.3 -4.95 -5.45 -5.2 -5.75 -5.4 -6.05 -5.4 -6.2 -6.0 -5.95 -6.5 -5.7 -6.5" fill="#ccb894" fill-rule="evenodd" stroke="none"/>
      <path d="M-5.5 -5.4 L-5.55 -5.45 -5.85 -5.75 -6.0 -6.2 -5.8 -6.5 -5.7 -6.5 -5.5 -6.5 -5.35 -6.45 Q-5.7 -5.95 -5.5 -5.4 M-6.05 -5.4 L-5.75 -5.4 -5.45 -5.2 -5.3 -4.95 -5.4 -4.8 -5.5 -4.75 -5.8 -4.7 -6.1 -4.9 -6.25 -5.2 -6.05 -5.4" fill="#cccccc" fill-rule="evenodd" stroke="none"/>
      <path d="M-5.3 -6.5 L-5.95 -6.65 Q-6.5 -6.65 -6.9 -6.25 L-7.25 -5.3 -6.9 -4.4 Q-6.5 -4.05 -5.95 -4.05 -5.4 -4.05 -5.05 -4.45 L-4.9 -4.6" fill="none" stroke="#000000" stroke-linecap="round" stroke-linejoin="round" stroke-opacity="0.4" stroke-width="0.05"/>
      <path d="M10.7 -6.4 Q10.35 -6.75 10.35 -7.3 10.35 -7.85 10.7 -8.25 11.1 -8.65 11.65 -8.65 L12.55 -8.3 Q12.95 -7.95 12.95 -7.4 12.95 -6.85 12.55 -6.45 12.2 -6.05 11.65 -6.05 11.1 -6.05 10.7 -6.4" fill="#b5a484" fill-rule="evenodd" stroke="none"/>
      <path d="M10.7 -6.4 Q11.1 -6.05 11.65 -6.05 12.2 -6.05 12.55 -6.45 12.95 -6.85 12.95 -7.4 12.95 -7.95 12.55 -8.3 L11.65 -8.65 Q11.1 -8.65 10.7 -8.25 10.35 -7.85 10.35 -7.3 10.35 -6.75 10.7 -6.4 Z" fill="none" stroke="#000000" stroke-linecap="round" stroke-linejoin="round" stroke-opacity="0.4" stroke-width="0.05"/>
      <path d="M12.05 -6.85 L11.6 -7.3 11.4 -8.0 11.65 -8.5 12.1 -8.45 12.6 -8.0 12.8 -7.3 Q12.8 -6.95 12.6 -6.85 12.35 -6.7 12.05 -6.85" fill="#ccb894" fill-rule="evenodd" stroke="none"/>
      <path d="M12.35 -7.5 L12.05 -7.45 11.75 -7.75 11.6 -8.2 11.8 -8.5 12.1 -8.5 12.4 -8.2 12.55 -7.8 12.35 -7.5" fill="#cccccc" fill-rule="evenodd" stroke="none"/>
      <path d="M12.1 -6.75 L11.8 -6.7 11.5 -6.9 11.35 -7.2 11.55 -7.4 11.85 -7.4 12.15 -7.2 12.3 -6.95 12.1 -6.75" fill="#cccccc" fill-rule="evenodd" stroke="none"/>
      <path d="M9.6 -4.95 Q9.25 -5.3 9.25 -5.85 9.25 -6.4 9.6 -6.8 10.0 -7.2 10.55 -7.2 11.1 -7.2 11.45 -6.85 11.85 -6.5 11.85 -5.95 11.85 -5.4 11.45 -5.0 11.1 -4.6 10.55 -4.6 10.0 -4.6 9.6 -4.95" fill="#b5a484" fill-rule="evenodd" stroke="none"/>
      <path d="M9.6 -4.95 Q10.0 -4.6 10.55 -4.6 11.1 -4.6 11.45 -5.0 11.85 -5.4 11.85 -5.95 11.85 -6.5 11.45 -6.85 11.1 -7.2 10.55 -7.2 10.0 -7.2 9.6 -6.8 9.25 -6.4 9.25 -5.85 9.25 -5.3 9.6 -4.95 Z" fill="none" stroke="#000000" stroke-linecap="round" stroke-linejoin="round" stroke-opacity="0.4" stroke-width="0.05"/>
      <path d="M10.95 -5.4 L10.5 -5.85 10.3 -6.55 10.55 -7.05 11.0 -7.0 11.5 -6.55 11.7 -5.85 11.5 -5.4 Q11.25 -5.25 10.95 -5.4" fill="#ccb894" fill-rule="evenodd" stroke="none"/>
      <path d="M11.25 -6.05 L10.95 -6.0 10.65 -6.3 Q10.5 -6.55 10.5 -6.75 L10.7 -7.05 11.0 -7.05 11.3 -6.75 11.45 -6.35 11.25 -6.05" fill="#cccccc" fill-rule="evenodd" stroke="none"/>
      <path d="M11.0 -5.3 L10.7 -5.25 10.4 -5.45 10.25 -5.75 10.45 -5.95 10.75 -5.95 11.05 -5.75 11.2 -5.5 11.0 -5.3" fill="#cccccc" fill-rule="evenodd" stroke="none"/>
      <path d="M7.7 -3.8 Q7.35 -4.15 7.35 -4.7 7.35 -5.25 7.7 -5.65 8.1 -6.05 8.65 -6.05 9.2 -6.05 9.55 -5.7 9.95 -5.35 9.95 -4.8 9.95 -4.25 9.55 -3.85 9.2 -3.45 8.65 -3.45 8.1 -3.45 7.7 -3.8" fill="#b5a484" fill-rule="evenodd" stroke="none"/>
      <path d="M7.7 -3.8 Q8.1 -3.45 8.65 -3.45 9.2 -3.45 9.55 -3.85 9.95 -4.25 9.95 -4.8 9.95 -5.35 9.55 -5.7 9.2 -6.05 8.65 -6.05 8.1 -6.05 7.7 -5.65 7.35 -5.25 7.35 -4.7 7.35 -4.15 7.7 -3.8 Z" fill="none" stroke="#000000" stroke-linecap="round" stroke-linejoin="round" stroke-opacity="0.4" stroke-width="0.05"/>
      <path d="M9.05 -4.25 L8.6 -4.7 8.4 -5.4 8.65 -5.9 9.1 -5.85 9.6 -5.4 9.8 -4.7 9.6 -4.25 Q9.35 -4.1 9.05 -4.25" fill="#ccb894" fill-rule="evenodd" stroke="none"/>
      <path d="M9.35 -4.9 L9.05 -4.85 8.75 -5.15 8.6 -5.6 8.8 -5.9 9.1 -5.9 9.4 -5.6 9.55 -5.2 9.35 -4.9" fill="#cccccc" fill-rule="evenodd" stroke="none"/>
      <path d="M9.1 -4.15 L8.8 -4.1 8.5 -4.3 8.35 -4.6 8.55 -4.8 8.85 -4.8 9.15 -4.6 9.3 -4.35 9.1 -4.15" fill="#cccccc" fill-rule="evenodd" stroke="none"/>
      <path d="M5.4 -3.2 Q5.05 -3.55 5.05 -4.1 5.05 -4.65 5.4 -5.05 5.8 -5.45 6.35 -5.45 6.9 -5.45 7.25 -5.1 7.65 -4.75 7.65 -4.2 7.65 -3.65 7.25 -3.25 6.9 -2.85 6.35 -2.85 5.8 -2.85 5.4 -3.2" fill="#b5a484" fill-rule="evenodd" stroke="none"/>
      <path d="M5.4 -3.2 Q5.8 -2.85 6.35 -2.85 6.9 -2.85 7.25 -3.25 7.65 -3.65 7.65 -4.2 7.65 -4.75 7.25 -5.1 6.9 -5.45 6.35 -5.45 5.8 -5.45 5.4 -5.05 5.05 -4.65 5.05 -4.1 5.05 -3.55 5.4 -3.2 Z" fill="none" stroke="#000000" stroke-linecap="round" stroke-linejoin="round" stroke-opacity="0.4" stroke-width="0.05"/>
      <path d="M6.75 -3.65 L6.3 -4.1 6.1 -4.8 6.35 -5.3 6.8 -5.25 7.3 -4.8 7.5 -4.1 Q7.5 -3.75 7.3 -3.65 7.05 -3.5 6.75 -3.65" fill="#ccb894" fill-rule="evenodd" stroke="none"/>
      <path d="M7.05 -4.3 L6.75 -4.25 6.45 -4.55 Q6.3 -4.8 6.3 -5.0 L6.5 -5.3 6.8 -5.3 7.1 -5.0 7.25 -4.6 7.05 -4.3" fill="#cccccc" fill-rule="evenodd" stroke="none"/>
      <path d="M6.8 -3.55 L6.5 -3.5 6.2 -3.7 6.05 -4.0 6.25 -4.2 6.55 -4.2 6.85 -4.0 7.0 -3.75 6.8 -3.55" fill="#cccccc" fill-rule="evenodd" stroke="none"/>
      <path d="M3.1 -2.55 Q2.75 -2.9 2.75 -3.45 2.75 -4.0 3.1 -4.4 3.5 -4.8 4.05 -4.8 4.6 -4.8 4.95 -4.45 5.35 -4.1 5.35 -3.55 5.35 -3.0 4.95 -2.6 4.6 -2.2 4.05 -2.2 3.5 -2.2 3.1 -2.55" fill="#b5a484" fill-rule="evenodd" stroke="none"/>
      <path d="M3.1 -2.55 Q3.5 -2.2 4.05 -2.2 4.6 -2.2 4.95 -2.6 5.35 -3.0 5.35 -3.55 5.35 -4.1 4.95 -4.45 4.6 -4.8 4.05 -4.8 3.5 -4.8 3.1 -4.4 2.75 -4.0 2.75 -3.45 2.75 -2.9 3.1 -2.55 Z" fill="none" stroke="#000000" stroke-linecap="round" stroke-linejoin="round" stroke-opacity="0.4" stroke-width="0.05"/>
      <path d="M4.45 -3.0 L4.0 -3.45 3.8 -4.15 4.05 -4.65 4.5 -4.6 5.0 -4.15 5.2 -3.45 5.0 -3.0 Q4.75 -2.85 4.45 -3.0" fill="#ccb894" fill-rule="evenodd" stroke="none"/>
      <path d="M4.75 -3.65 L4.45 -3.6 4.15 -3.9 Q4.0 -4.15 4.0 -4.35 L4.2 -4.65 4.5 -4.65 4.8 -4.35 4.95 -3.95 4.75 -3.65" fill="#cccccc" fill-rule="evenodd" stroke="none"/>
      <path d="M4.5 -2.9 L4.2 -2.85 3.9 -3.05 3.75 -3.35 3.95 -3.55 4.25 -3.55 4.55 -3.35 4.7 -3.1 4.5 -2.9" fill="#cccccc" fill-rule="evenodd" stroke="none"/>
    </g>
  </defs>
</svg>
