<?xml version="1.0" encoding="UTF-8" standalone="no"?>
<svg xmlns:xlink="http://www.w3.org/1999/xlink" height="440.0px" width="440.0px" xmlns="http://www.w3.org/2000/svg">
  <g transform="matrix(10.0, 0.0, 0.0, 10.0, 0.0, 0.0)">
    <use height="44.0" transform="matrix(0.9091, 0.0, 0.0, 0.9091, 2.0, 2.0)" width="44.0" xlink:href="#sprite0"/>
  </g>
  <defs>
    <g id="sprite0" transform="matrix(1.0, 0.0, 0.0, 1.0, 0.0, 0.0)">
      <use height="44.0" transform="matrix(1.0, 0.0, 0.0, 1.0, 0.0, 0.0)" width="44.0" xlink:href="#shape0"/>
    </g>
    <g id="shape0" transform="matrix(1.0, 0.0, 0.0, 1.0, 0.0, 0.0)">
      <path d="M44.0 44.0 L0.0 44.0 0.0 0.0 44.0 0.0 44.0 44.0" fill="#43adca" fill-opacity="0.0" fill-rule="evenodd" stroke="none"/>
      <path d="M18.65 26.95 L18.2 27.1 15.4 27.7 Q13.85 27.95 12.8 27.2 L12.5 26.5 Q13.15 25.7 14.2 25.15 L13.75 26.25 Q13.15 26.75 13.6 26.9 14.35 27.8 18.65 26.35 L18.65 26.95" fill="#a09176" fill-rule="evenodd" stroke="none"/>
      <path d="M35.25 6.55 L37.45 7.65 Q39.85 9.3 39.85 11.85 L39.85 12.25 39.0 10.65 Q37.75 8.65 36.5 8.1 33.3 6.9 30.8 6.4 L35.25 6.55 M30.25 20.65 L27.15 21.7 26.55 22.5 26.25 22.8 23.9 23.8 25.9 22.15 26.8 21.2 25.9 22.15 22.5 23.1 Q20.55 22.95 16.2 24.15 18.25 23.3 20.45 22.85 L26.3 21.3 26.8 21.2 26.8 21.15 Q27.0 20.55 25.85 20.45 23.2 19.9 19.3 20.45 L19.15 20.5 Q16.9 20.35 16.05 19.35 15.2 18.4 15.45 18.4 L16.2 16.6 Q16.35 20.05 20.8 19.4 L21.35 19.4 26.8 19.75 26.9 19.75 26.95 19.75 27.0 19.75 Q27.95 20.1 27.8 20.8 L31.8 19.25 32.75 18.85 30.25 20.65 M27.8 20.8 L27.55 21.4 27.15 21.7 27.55 21.4 27.8 20.8" fill="#996600" fill-rule="evenodd" stroke="none"/>
      <path d="M39.85 12.25 Q39.8 13.6 38.9 14.7 L39.0 10.65 39.85 12.25 M38.65 15.05 L37.2 17.15 Q34.3 19.35 31.25 20.3 L30.25 20.65 32.75 18.85 37.05 16.45 Q38.05 15.85 38.65 15.05 M26.25 22.8 L25.8 23.25 24.55 24.25 23.15 25.1 20.25 26.45 18.65 26.95 18.65 26.35 20.7 25.6 23.9 23.8 26.25 22.8 M14.2 25.15 L14.35 25.0 16.2 24.15 Q20.55 22.95 22.5 23.1 L16.85 24.7 Q14.5 25.65 13.75 26.25 L14.2 25.15 M15.45 18.4 Q14.5 16.55 15.65 14.35 16.9 12.1 17.75 10.95 20.65 7.1 23.85 7.2 19.8 9.0 17.35 12.7 16.15 14.55 16.2 16.5 L16.2 16.6 15.45 18.4 M26.45 6.2 L27.75 5.8 Q32.15 4.8 35.25 6.55 L30.8 6.4 30.5 6.4 26.45 6.25 26.45 6.2 M21.35 19.4 Q24.35 18.8 26.8 19.75 L21.35 19.4 M17.75 10.95 L17.35 12.7 17.75 10.95" fill="#553311" fill-rule="evenodd" stroke="none"/>
      <path d="M35.25 6.55 L37.45 7.65 Q39.85 9.3 39.85 11.85 L39.85 12.25 Q39.8 13.6 38.9 14.7 L38.65 15.05 37.2 17.15 Q34.3 19.35 31.25 20.3 L30.25 20.65 27.15 21.7 26.55 22.5 26.25 22.8 25.8 23.25 24.55 24.25 23.15 25.1 20.25 26.45 18.65 26.95 18.2 27.1 15.4 27.7 Q13.85 27.95 12.8 27.2 L12.5 26.5 Q13.15 25.7 14.2 25.15 L14.35 25.0 16.2 24.15 Q18.25 23.3 20.45 22.85 L26.3 21.3 26.8 21.2 26.8 21.15 Q27.0 20.55 25.85 20.45 23.2 19.9 19.3 20.45 L19.15 20.5 Q16.9 20.35 16.05 19.35 15.2 18.4 15.45 18.4 14.5 16.55 15.65 14.35 16.9 12.1 17.75 10.95 20.65 7.1 23.85 7.2 25.0 6.6 26.2 6.25 L26.25 6.25 26.45 6.2 27.75 5.8 Q32.15 4.8 35.25 6.55 M30.8 6.4 Q33.3 6.9 36.5 8.1 37.75 8.65 39.0 10.65 L38.9 14.7 M38.65 15.05 Q38.05 15.85 37.05 16.45 L32.75 18.85 M30.8 6.4 L30.5 6.4 26.45 6.25 26.4 6.25 23.85 7.2 Q19.8 9.0 17.35 12.7 16.15 14.55 16.2 16.5 L16.2 16.6 Q16.35 20.05 20.8 19.4 L21.35 19.4 Q24.35 18.8 26.8 19.75 M26.95 19.75 L27.0 19.75 Q27.95 20.1 27.8 20.8 L31.8 19.25 32.75 18.85 M26.25 6.25 L26.4 6.25 M26.95 19.75 L26.9 19.75 26.8 19.75 M26.8 21.2 L25.9 22.15 23.9 23.8 20.7 25.6 18.65 26.35 Q14.35 27.8 13.6 26.9 13.15 26.75 13.75 26.25 14.5 25.65 16.85 24.7 L22.5 23.1 M27.15 21.7 L27.55 21.4 27.8 20.8 M25.9 22.15 L22.5 23.1" fill="none" stroke="#382510" stroke-linecap="round" stroke-linejoin="round" stroke-opacity="0.2" stroke-width="0.4"/>
      <path d="M35.25 6.55 L30.8 6.4 M39.0 10.65 L39.85 12.25 M32.75 18.85 L30.25 20.65 M26.8 19.75 L26.95 19.75 M26.8 19.75 L21.35 19.4 M23.9 23.8 L26.25 22.8 M16.2 16.6 L15.45 18.4 M17.35 12.7 L17.75 10.95 M22.5 23.1 Q20.55 22.95 16.2 24.15 M13.75 26.25 L14.2 25.15 M18.65 26.35 L18.65 26.95" fill="none" stroke="#382510" stroke-linecap="round" stroke-linejoin="round" stroke-opacity="0.15294118" stroke-width="0.2"/>
      <path d="M6.55 25.45 L6.25 26.2 6.65 25.4 6.55 25.45 M9.75 34.1 L9.4 33.7 9.4 33.75 9.75 34.1" fill="#66cc33" fill-rule="evenodd" stroke="none"/>
      <path d="M6.25 26.2 L5.9 26.85 5.9 27.05 5.85 28.0 5.85 28.25 5.8 29.05 5.75 29.25 5.8 29.25 5.8 29.3 5.8 29.7 6.0 30.8 6.25 31.35 Q7.25 31.75 8.05 32.3 L8.4 31.8 9.85 32.4 9.9 32.3 Q9.85 30.35 8.95 28.55 8.1 26.8 6.65 25.4 L6.25 26.2 M4.85 32.5 L5.0 32.5 5.25 33.05 Q6.5 34.95 8.9 35.7 L8.55 34.4 9.8 34.3 9.85 34.1 9.75 34.1 9.4 33.75 7.9 32.65 6.5 31.9 4.8 31.4 4.85 32.5" fill="#9b2700" fill-rule="evenodd" stroke="none"/>
      <path d="M6.5 25.4 L6.55 25.45 6.65 25.4 6.5 25.4" fill="#f0ff66" fill-rule="evenodd" stroke="none"/>
      <path d="M6.65 25.4 L6.5 25.4 6.65 25.4" fill="#ffff66" fill-rule="evenodd" stroke="none"/>
      <path d="M6.25 31.35 L4.75 30.9 4.8 31.4 6.5 31.9 7.9 32.65 9.4 33.75 9.4 33.7 8.05 32.3 Q7.25 31.75 6.25 31.35 M9.9 32.3 Q10.25 29.65 9.5 27.9 8.8 25.8 6.75 24.7 L6.5 25.4 6.65 25.4 Q8.1 26.8 8.95 28.55 9.85 30.35 9.9 32.3" fill="#ff6633" fill-rule="evenodd" stroke="none"/>
      <path d="M5.9 27.05 L5.8 26.95 5.85 28.0 5.9 27.05" fill="#445288" fill-rule="evenodd" stroke="none"/>
      <path d="M5.85 28.25 L5.75 28.7 5.75 29.0 5.8 29.05 5.85 28.25" fill="#9fa7c7" fill-rule="evenodd" stroke="none"/>
      <path d="M4.8 31.4 L4.75 31.4 4.85 32.5 4.8 31.4 M9.8 34.3 L9.95 34.3 9.85 34.1 9.8 34.3" fill="#5366ac" fill-rule="evenodd" stroke="none"/>
      <path d="M9.85 32.4 L9.9 32.3 9.85 32.4" fill="#5c6413" fill-rule="evenodd" stroke="none"/>
      <path d="M9.85 32.4 L9.9 32.4 9.9 32.3 9.85 32.4" fill="#ca8d02" fill-rule="evenodd" stroke="none"/>
      <path d="M9.9 32.4 L9.95 32.4 9.9 32.3 9.9 32.4" fill="#384472" fill-rule="evenodd" stroke="none"/>
      <path d="M6.5 25.4 L6.55 25.45 6.25 26.2 5.9 26.85 5.9 27.05 5.85 28.0 5.85 28.25 5.75 28.7 5.75 29.0 5.8 29.05 5.75 29.25 5.8 29.25 5.8 29.3 5.8 29.7 6.0 30.8 6.25 31.35 4.75 30.9 4.8 31.4 4.85 32.5 5.0 32.5 5.25 33.05 Q6.5 34.95 8.9 35.7 M9.95 34.3 L9.85 34.1 9.75 34.1 9.4 33.7 8.05 32.3 M9.95 32.4 L9.9 32.3 Q10.25 29.65 9.5 27.9 8.8 25.8 6.75 24.7 L6.5 25.4 M6.25 31.35 Q7.25 31.75 8.05 32.3" fill="none" stroke="#000000" stroke-linecap="round" stroke-linejoin="round" stroke-opacity="0.3019608" stroke-width="0.05"/>
      <path d="M6.15 31.35 L6.55 31.35 7.6 31.55 9.35 31.75 Q11.4 31.75 13.6 30.85 17.15 29.4 17.15 26.85 17.15 25.95 16.45 25.05 L16.65 25.05 16.7 24.1 16.7 24.05 Q16.7 22.75 15.9 21.55 L15.6 23.3 15.6 23.35 15.6 23.85 15.6 24.55 15.35 24.7 14.55 23.7 14.0 23.05 Q12.6 21.35 10.8 20.55 L10.15 20.35 Q10.55 22.1 12.1 23.85 10.7 24.1 9.35 25.1 L8.95 25.45 Q7.55 26.65 6.8 28.35 L6.25 29.95 6.25 30.0 6.2 30.45 6.15 31.35" fill="#ff6633" fill-rule="evenodd" stroke="none"/>
      <path d="M15.9 21.55 Q16.7 22.75 16.7 24.05 L16.7 24.1 16.65 25.05 16.45 25.05 Q17.15 25.95 17.15 26.85 17.15 29.4 13.6 30.85 11.4 31.75 9.35 31.75 L7.6 31.55 6.55 31.35 6.15 31.35 6.15 31.7 6.15 32.25 7.65 32.1 10.8 32.4 Q11.7 32.75 11.75 33.2 11.9 34.2 9.35 35.25 L9.3 35.35 11.1 35.95 Q14.4 37.05 16.65 34.0 18.8 31.0 18.7 28.55 18.55 26.65 17.85 25.25 L17.65 25.2 17.65 25.1 17.65 24.7 17.55 24.45 Q17.45 22.7 16.45 21.15 L16.35 21.0 16.1 20.85 15.9 21.55" fill="#cc3300" fill-rule="evenodd" stroke="none"/>
      <path d="M16.45 21.15 Q17.45 22.7 17.55 24.45 L17.65 24.7 17.65 25.1 17.65 25.2 17.85 25.25 Q18.55 26.65 18.7 28.55 18.8 31.0 16.65 34.0 14.4 37.05 11.1 35.95 L9.3 35.35 9.15 35.3 9.35 35.25 Q11.9 34.2 11.75 33.2 11.7 32.75 10.8 32.4 L7.65 32.1 6.15 32.25 Q6.25 33.2 6.8 34.15 7.2 35.0 7.95 35.65 L8.25 35.9 Q10.4 37.75 13.2 38.05 15.95 38.25 18.4 36.95 L19.45 36.35 Q24.35 32.3 20.95 27.4 L19.45 25.65 18.7 25.1 Q18.25 22.3 16.45 21.15 M10.8 20.55 Q12.6 21.35 14.0 23.05 L14.55 23.7 15.35 24.7 15.6 24.55 15.6 23.85 15.6 23.35 15.6 23.3 Q13.5 21.15 10.8 20.55" fill="#9b2700" fill-rule="evenodd" stroke="none"/>
      <path d="M9.3 35.35 L9.35 35.25 9.15 35.3 9.3 35.35" fill="#ffcc00" fill-rule="evenodd" stroke="none"/>
      <path d="M15.9 21.55 L16.1 20.85 16.35 21.0 16.45 21.15 M6.15 32.25 L6.15 31.7 6.15 31.35 6.2 30.45 6.25 30.0 6.25 29.95 6.8 28.35 Q7.55 26.65 8.95 25.45 L9.35 25.1 Q10.7 24.1 12.1 23.85 10.55 22.1 10.15 20.35 L10.8 20.55 M15.6 24.55 L15.6 23.85 15.6 23.35 15.6 23.3 15.9 21.55 M6.15 32.25 Q6.25 33.2 6.8 34.15 7.2 35.0 7.95 35.65 L8.25 35.9 Q10.4 37.75 13.2 38.05 15.95 38.25 18.4 36.95 L19.45 36.35 Q24.35 32.3 20.95 27.4 L19.45 25.65 18.7 25.1 Q18.25 22.3 16.45 21.15 M15.6 23.3 Q13.5 21.15 10.8 20.55" fill="none" stroke="#000000" stroke-linecap="round" stroke-linejoin="round" stroke-opacity="0.3019608" stroke-width="0.05"/>
      <path d="M25.3 32.0 L25.2 31.95 25.25 32.1 25.3 32.0 M15.2 36.1 L15.25 36.0 15.2 36.1" fill="#f0ff66" fill-rule="evenodd" stroke="none"/>
      <path d="M25.2 31.95 L25.3 32.0 25.85 31.25 20.75 31.4 Q18.55 32.25 16.25 34.55 18.15 33.05 20.5 32.35 L25.2 31.95 M19.8 36.85 L17.55 36.1 15.25 36.0 15.2 36.1 17.35 36.45 19.05 37.1 20.75 38.2 21.3 37.8 Q20.55 37.25 19.8 36.85" fill="#ff6633" fill-rule="evenodd" stroke="none"/>
      <path d="M25.25 32.1 L25.2 31.95 24.75 32.85 25.25 32.1 M14.75 36.0 L15.2 36.1 15.25 36.0 14.75 36.0" fill="#66cc33" fill-rule="evenodd" stroke="none"/>
      <path d="M25.2 31.95 L20.5 32.35 Q18.15 33.05 16.25 34.55 L16.1 34.6 17.85 35.4 17.55 36.1 19.8 36.85 20.5 36.65 21.7 35.95 22.05 35.65 22.1 35.65 22.2 35.6 22.4 35.45 23.05 34.8 23.1 34.65 23.25 34.6 23.4 34.55 24.15 33.8 24.3 33.7 24.3 33.65 24.75 32.85 25.2 31.95 M14.55 36.0 L14.45 36.15 15.2 37.25 13.7 38.0 Q16.15 39.45 18.9 39.05 L19.5 38.75 19.7 38.9 20.75 38.2 19.05 37.1 17.35 36.45 15.2 36.1 14.75 36.0 14.55 36.0" fill="#9b2700" fill-rule="evenodd" stroke="none"/>
      <path d="M24.3 33.65 L24.3 33.7 24.35 33.65 24.3 33.65 M16.1 34.6 L16.25 34.55 16.1 34.55 16.1 34.6" fill="#384472" fill-rule="evenodd" stroke="none"/>
      <path d="M24.15 33.8 L23.4 34.55 24.25 33.8 24.15 33.8" fill="#445288" fill-rule="evenodd" stroke="none"/>
      <path d="M14.45 36.15 L14.55 36.0 14.35 36.0 14.45 36.15 M20.75 38.2 L19.7 38.9 20.8 38.2 20.75 38.2" fill="#5366ac" fill-rule="evenodd" stroke="none"/>
      <path d="M23.05 34.8 L22.4 35.45 22.45 35.4 22.65 35.25 23.05 34.8" fill="#9fa7c7" fill-rule="evenodd" stroke="none"/>
      <path d="M16.25 34.55 Q18.55 32.25 20.75 31.4 L25.85 31.25 25.3 32.0 25.25 32.1 24.75 32.85 24.3 33.65 M24.3 33.7 L24.15 33.8 23.4 34.55 23.25 34.6 23.1 34.65 23.05 34.8 M22.4 35.45 L22.2 35.6 22.1 35.65 22.05 35.65 21.7 35.95 20.5 36.65 19.8 36.85 17.55 36.1 M16.25 34.55 L16.1 34.55 M24.3 33.7 L24.35 33.65 24.3 33.65 M14.35 36.0 L14.55 36.0 14.75 36.0 15.25 36.0 17.55 36.1 M20.75 38.2 L19.7 38.9 19.5 38.75 18.9 39.05 Q16.15 39.45 13.7 38.0 M20.75 38.2 L21.3 37.8 Q20.55 37.25 19.8 36.85 M22.4 35.45 L22.45 35.4 22.65 35.25 23.05 34.8" fill="none" stroke="#000000" stroke-linecap="round" stroke-linejoin="round" stroke-opacity="0.3019608" stroke-width="0.05"/>
      <path d="M5.3 38.25 Q5.85 38.65 7.3 38.25 L12.2 36.6 11.4 35.6 8.0 37.5 Q3.45 39.45 8.75 33.65 8.3 33.7 7.95 34.05 5.1 37.05 5.3 38.25" fill="#ffcc33" fill-rule="evenodd" stroke="none"/>
      <path d="M12.2 36.6 L7.3 38.25 Q5.85 38.65 5.3 38.25 5.4 39.25 7.6 39.1 L13.4 38.05 12.2 36.6" fill="#ba4a01" fill-rule="evenodd" stroke="none"/>
      <path d="M8.75 33.65 Q3.45 39.45 8.0 37.5 L11.4 35.6 9.95 34.1 Q9.4 33.6 8.75 33.65" fill="#a94401" fill-rule="evenodd" stroke="none"/>
      <path d="M5.3 38.25 Q5.85 38.65 7.3 38.25 L12.2 36.6 13.4 38.05 7.6 39.1 Q5.4 39.25 5.3 38.25 5.1 37.05 7.95 34.05 8.3 33.7 8.75 33.65 M11.4 35.6 L12.2 36.6 M11.4 35.6 L9.95 34.1 Q9.4 33.6 8.75 33.65" fill="none" stroke="#996600" stroke-linecap="round" stroke-linejoin="round" stroke-opacity="0.2" stroke-width="0.25"/>
      <path d="M5.4 36.6 Q4.3 39.25 7.55 38.5 L12.4 36.8 Q10.65 34.05 9.4 33.25 L11.0 35.9 7.0 37.6 Q5.1 38.95 5.4 36.6" fill="#ae7c13" fill-rule="evenodd" stroke="none"/>
      <path d="M5.55 36.35 L5.4 36.6 Q5.1 38.95 7.0 37.6 L11.0 35.9 9.4 33.25 9.4 33.2 9.2 33.1 9.95 35.25 5.7 37.5 5.55 36.35" fill="#f0ac0f" fill-rule="evenodd" stroke="none"/>
      <path d="M9.2 33.1 L8.95 33.0 Q8.05 32.7 7.4 33.45 6.1 35.15 5.55 36.35 L5.7 37.5 9.95 35.25 9.2 33.1" fill="#ffcc00" fill-rule="evenodd" stroke="none"/>
      <path d="M5.55 36.35 L5.4 36.6 Q4.3 39.25 7.55 38.5 L12.4 36.8 Q10.65 34.05 9.4 33.25 L9.4 33.2 9.2 33.1 M8.95 33.0 Q8.05 32.7 7.4 33.45 6.1 35.15 5.55 36.35 Z" fill="none" stroke="#996600" stroke-linecap="round" stroke-linejoin="round" stroke-opacity="0.2" stroke-width="0.25"/>
      <path d="M7.05 34.7 L7.4 34.0 7.6 33.7 8.0 33.6 8.2 33.5 8.45 33.6 8.65 33.7 8.15 34.35 7.4 34.85 7.05 34.85 7.05 34.7" fill="#ffffcc" fill-rule="evenodd" stroke="none"/>
      <path d="M9.3 28.6 L8.8 27.4 Q8.45 27.0 8.15 27.5 7.85 27.9 7.8 28.9 L7.85 30.55 7.9 30.85 8.0 31.1 Q7.9 30.55 8.5 31.25 9.15 31.8 9.05 32.2 L9.1 32.25 9.35 31.75 9.45 30.8 9.45 29.85 9.4 29.8 Q9.35 29.95 9.25 29.75 L9.05 29.3 8.95 28.85 9.1 28.6 Q9.15 28.45 9.3 28.6" fill="#000000" fill-rule="evenodd" stroke="none"/>
      <path d="M9.3 28.6 Q9.15 28.45 9.1 28.6 L8.95 28.85 9.05 29.3 9.25 29.75 Q9.35 29.95 9.4 29.8 L9.45 29.85 9.5 29.55 9.45 29.05 9.35 28.65 9.3 28.6" fill="#ffffff" fill-rule="evenodd" stroke="none"/>
      <path d="M9.1 32.25 L9.05 32.2 9.05 32.25 9.1 32.25" fill="url(#gradient0)" fill-rule="evenodd" stroke="none"/>
      <path d="M9.05 32.2 Q9.15 31.8 8.5 31.25 7.9 30.55 8.0 31.1 8.15 32.0 8.45 32.25 8.75 32.65 9.05 32.25 L9.05 32.2" fill="#5b583e" fill-rule="evenodd" stroke="none"/>
      <path d="M8.65 28.45 L8.65 28.25 8.65 28.1 8.7 28.1 8.75 28.15 8.8 28.35 8.75 28.5 8.75 28.55 8.65 28.45" fill="#ffffff" fill-rule="evenodd" stroke="none"/>
      <path d="M12.95 30.45 L13.05 30.5 13.05 30.4 12.95 30.45 M12.45 34.05 L12.35 33.95 12.35 34.05 12.45 34.05" fill="#4d2601" fill-rule="evenodd" stroke="none"/>
      <path d="M13.1 31.6 L13.05 31.6 12.8 31.55 12.55 31.1 12.55 30.7 Q12.55 30.45 12.7 30.35 L12.95 30.45 13.05 30.4 Q12.8 29.55 12.45 29.3 12.0 28.95 11.5 29.3 10.95 29.8 10.8 30.8 10.6 31.55 10.8 32.4 L10.8 32.7 10.85 32.95 Q10.85 32.4 11.7 33.1 12.45 33.6 12.35 33.95 L12.45 34.05 12.8 33.5 13.05 32.55 13.1 31.6" fill="#000000" fill-rule="evenodd" stroke="none"/>
      <path d="M12.95 30.45 L12.7 30.35 Q12.55 30.45 12.55 30.7 L12.55 31.1 12.8 31.55 13.05 31.6 13.1 31.6 13.3 31.3 13.2 30.85 13.05 30.5 12.95 30.45" fill="#ffffff" fill-rule="evenodd" stroke="none"/>
      <path d="M12.35 33.95 Q12.45 33.6 11.7 33.1 10.85 32.4 10.85 32.95 11.05 33.7 11.4 34.0 L12.35 34.05 12.35 33.95" fill="#5b583e" fill-rule="evenodd" stroke="none"/>
      <path d="M12.25 30.25 L12.2 30.05 12.25 29.9 12.3 29.9 12.4 30.0 12.45 30.15 12.4 30.35 12.3 30.35 12.25 30.25" fill="#ffffff" fill-rule="evenodd" stroke="none"/>
      <path d="M12.75 32.05 L13.65 31.75 14.05 30.9 13.85 30.05 Q13.5 29.75 13.05 29.75 12.6 29.75 12.15 30.05 11.8 30.45 11.75 30.9 11.7 31.35 12.0 31.75 12.25 32.05 12.75 32.05" fill="url(#gradient1)" fill-rule="evenodd" stroke="none"/>
      <path d="M9.15 30.15 L10.05 29.85 10.45 29.0 10.25 28.15 Q9.9 27.85 9.45 27.85 8.95 27.85 8.55 28.15 8.2 28.55 8.15 29.0 8.05 29.5 8.4 29.85 L9.15 30.15" fill="url(#gradient2)" fill-rule="evenodd" stroke="none"/>
    </g>
    <radialGradient cx="0" cy="0" gradientTransform="matrix(0.0017, 0.0019, -2.0E-4, 0.0031, 8.6, 29.85)" gradientUnits="userSpaceOnUse" id="gradient0" r="819.2" spreadMethod="pad">
      <stop offset="0.21176470588235294" stop-color="#453929"/>
      <stop offset="0.5254901960784314" stop-color="#252016"/>
    </radialGradient>
    <radialGradient cx="0" cy="0" gradientTransform="matrix(-0.0015, 0.0, -2.0E-4, 0.0015, 12.9, 30.9)" gradientUnits="userSpaceOnUse" id="gradient1" r="819.2" spreadMethod="pad">
      <stop offset="0.6666666666666666" stop-color="#f7fed6"/>
      <stop offset="1.0" stop-color="#f7ffd6" stop-opacity="0.0"/>
    </radialGradient>
    <radialGradient cx="0" cy="0" gradientTransform="matrix(-0.0015, 0.0, -2.0E-4, 0.0015, 9.3, 29.0)" gradientUnits="userSpaceOnUse" id="gradient2" r="819.2" spreadMethod="pad">
      <stop offset="0.6666666666666666" stop-color="#f7fed6"/>
      <stop offset="1.0" stop-color="#f7ffd6" stop-opacity="0.0"/>
    </radialGradient>
  </defs>
</svg>
