<?xml version="1.0" encoding="UTF-8" standalone="no"?>
<svg xmlns:xlink="http://www.w3.org/1999/xlink" height="440.0px" width="440.0px" xmlns="http://www.w3.org/2000/svg">
  <g transform="matrix(10.0, 0.0, 0.0, 10.0, 0.0, 0.0)">
    <use height="44.0" transform="matrix(0.9091, 0.0, 0.0, 0.9091, 2.0, 2.0)" width="44.0" xlink:href="#sprite0"/>
  </g>
  <defs>
    <g id="sprite0" transform="matrix(1.0, 0.0, 0.0, 1.0, 0.0, 0.0)">
      <use height="44.0" transform="matrix(1.0, 0.0, 0.0, 1.0, 0.0, 0.0)" width="44.0" xlink:href="#shape0"/>
    </g>
    <g id="shape0" transform="matrix(1.0, 0.0, 0.0, 1.0, 0.0, 0.0)">
      <path d="M44.0 44.0 L0.0 44.0 0.0 0.0 44.0 0.0 44.0 44.0" fill="#43adca" fill-opacity="0.0" fill-rule="evenodd" stroke="none"/>
      <path d="M17.95 26.95 L17.5 27.1 14.7 27.7 Q13.2 27.95 12.15 27.25 L11.8 26.5 Q12.5 25.7 13.55 25.2 L13.05 26.3 Q12.45 26.75 12.9 26.9 13.7 27.8 17.95 26.35 L17.95 26.95" fill="#a09176" fill-rule="evenodd" stroke="none"/>
      <path d="M34.45 6.7 L36.65 7.75 Q39.05 9.4 39.05 11.95 L39.05 12.35 38.15 10.75 Q36.95 8.75 35.7 8.25 32.55 7.0 30.0 6.55 L34.45 6.7 M29.5 20.7 L26.4 21.75 25.8 22.5 25.5 22.8 23.2 23.85 25.15 22.2 26.05 21.25 25.15 22.2 21.75 23.1 Q19.85 22.95 15.5 24.2 17.55 23.3 19.7 22.9 L25.55 21.35 26.05 21.25 26.05 21.2 Q26.25 20.6 25.1 20.5 22.5 19.95 18.6 20.5 L18.45 20.55 Q16.25 20.4 15.35 19.4 14.5 18.45 14.8 18.45 L15.5 16.65 Q15.65 20.1 20.1 19.45 L20.65 19.5 26.05 19.8 26.15 19.8 26.2 19.8 26.25 19.8 Q27.2 20.15 27.05 20.85 L31.0 19.3 31.95 18.9 29.5 20.7 M27.05 20.85 L26.8 21.45 26.4 21.75 26.8 21.45 27.05 20.85" fill="#996600" fill-rule="evenodd" stroke="none"/>
      <path d="M39.05 12.35 Q38.95 13.7 38.1 14.75 L38.15 10.75 39.05 12.35 M37.85 15.15 L36.4 17.2 Q33.5 19.4 30.5 20.35 L29.5 20.7 31.95 18.9 Q34.15 17.9 36.25 16.5 37.25 15.9 37.85 15.15 M25.5 22.8 L25.05 23.3 23.85 24.25 22.4 25.15 19.55 26.45 17.95 26.95 17.95 26.35 20.0 25.6 23.2 23.85 25.5 22.8 M13.55 25.2 L13.7 25.0 15.5 24.2 Q19.85 22.95 21.75 23.1 L16.15 24.7 Q13.85 25.65 13.05 26.3 L13.55 25.2 M14.8 18.45 Q13.85 16.65 14.95 14.4 L17.05 11.05 Q19.95 7.25 23.1 7.3 19.1 9.15 16.7 12.8 15.45 14.65 15.5 16.55 L15.5 16.65 14.8 18.45 M25.7 6.35 L27.0 5.95 Q31.35 4.9 34.45 6.7 L30.0 6.55 29.7 6.5 25.7 6.35 M20.65 19.5 L26.05 19.8 20.65 19.5 M17.05 11.05 L16.7 12.8 17.05 11.05" fill="#553311" fill-rule="evenodd" stroke="none"/>
      <path d="M34.45 6.7 L36.65 7.75 Q39.05 9.4 39.05 11.95 L39.05 12.35 Q38.95 13.7 38.1 14.75 L37.85 15.15 36.4 17.2 Q33.5 19.4 30.5 20.35 L29.5 20.7 26.4 21.75 25.8 22.5 25.5 22.8 25.05 23.3 23.85 24.25 22.4 25.15 19.55 26.45 17.95 26.95 17.5 27.1 14.7 27.7 Q13.2 27.95 12.15 27.25 L11.8 26.5 Q12.5 25.7 13.55 25.2 L13.7 25.0 15.5 24.2 Q17.55 23.3 19.7 22.9 L25.55 21.35 26.05 21.25 26.05 21.2 Q26.25 20.6 25.1 20.5 22.5 19.95 18.6 20.5 L18.45 20.55 Q16.25 20.4 15.35 19.4 14.5 18.45 14.8 18.45 13.85 16.65 14.95 14.4 L17.05 11.05 Q19.95 7.25 23.1 7.3 24.25 6.75 25.45 6.35 L25.5 6.35 25.7 6.35 27.0 5.95 Q31.35 4.9 34.45 6.7 M30.0 6.55 Q32.55 7.0 35.7 8.25 36.95 8.75 38.15 10.75 L38.1 14.75 M37.85 15.15 Q37.25 15.9 36.25 16.5 34.15 17.9 31.95 18.9 M30.0 6.55 L29.7 6.5 25.7 6.35 25.65 6.35 23.1 7.3 Q19.1 9.15 16.7 12.8 15.45 14.65 15.5 16.55 L15.5 16.65 Q15.65 20.1 20.1 19.45 L20.65 19.5 26.05 19.8 M26.2 19.8 L26.25 19.8 Q27.2 20.15 27.05 20.85 L31.0 19.3 31.95 18.9 M25.5 6.35 L25.65 6.35 M26.2 19.8 L26.15 19.8 26.05 19.8 M26.05 21.25 L25.15 22.2 23.2 23.85 20.0 25.6 17.95 26.35 Q13.7 27.8 12.9 26.9 12.45 26.75 13.05 26.3 13.85 25.65 16.15 24.7 L21.75 23.1 M26.4 21.75 L26.8 21.45 27.05 20.85 M25.15 22.2 L21.75 23.1" fill="none" stroke="#382510" stroke-linecap="round" stroke-linejoin="round" stroke-opacity="0.2" stroke-width="0.4"/>
      <path d="M34.45 6.7 L30.0 6.55 M38.15 10.75 L39.05 12.35 M31.95 18.9 L29.5 20.7 M26.05 19.8 L26.2 19.8 M26.05 19.8 L20.65 19.5 M23.2 23.85 L25.5 22.8 M15.5 16.65 L14.8 18.45 M16.7 12.8 L17.05 11.05 M21.75 23.1 Q19.85 22.95 15.5 24.2 M13.05 26.3 L13.55 25.2 M17.95 26.35 L17.95 26.95" fill="none" stroke="#382510" stroke-linecap="round" stroke-linejoin="round" stroke-opacity="0.15294118" stroke-width="0.2"/>
      <path d="M8.8 33.7 L8.95 33.85 8.75 33.75 8.8 33.7 M5.65 26.2 L5.95 25.5 6.0 25.45 5.65 26.2" fill="#66cc33" fill-rule="evenodd" stroke="none"/>
      <path d="M5.9 25.45 L6.0 25.45 5.95 25.5 5.9 25.45" fill="#f0ff66" fill-rule="evenodd" stroke="none"/>
      <path d="M5.9 25.45 L5.9 25.4 6.0 25.45 5.9 25.45" fill="#ffff66" fill-rule="evenodd" stroke="none"/>
      <path d="M5.25 28.0 L5.2 26.95 5.3 27.05 5.25 28.0" fill="#445288" fill-rule="evenodd" stroke="none"/>
      <path d="M5.2 29.0 L5.15 29.0 5.15 28.7 5.25 28.25 5.2 29.0" fill="#9fa7c7" fill-rule="evenodd" stroke="none"/>
      <path d="M9.2 34.05 L9.35 34.25 9.15 34.25 9.2 34.05 M4.25 32.45 L4.15 31.4 4.2 31.4 4.25 32.45" fill="#5366ac" fill-rule="evenodd" stroke="none"/>
      <path d="M9.25 32.3 L9.25 32.4 9.25 32.3" fill="#ca8d02" fill-rule="evenodd" stroke="none"/>
      <path d="M9.25 32.3 L9.35 32.4 9.25 32.4 9.25 32.3" fill="#384472" fill-rule="evenodd" stroke="none"/>
      <path d="M6.0 25.45 L5.9 25.4 6.15 24.7 Q8.15 25.8 8.9 27.9 9.6 29.65 9.25 32.3 9.2 30.3 8.35 28.5 7.5 26.85 6.0 25.45 M7.45 32.3 L8.8 33.7 8.75 33.75 7.25 32.6 5.9 31.9 4.2 31.4 4.15 30.9 5.65 31.35 Q6.65 31.7 7.45 32.3" fill="#cc99ff" fill-rule="evenodd" stroke="none"/>
      <path d="M9.25 32.4 L7.75 31.75 7.45 32.3 Q6.65 31.7 5.65 31.35 L5.4 30.75 5.2 29.7 5.2 29.3 5.2 29.25 5.15 29.25 5.2 29.0 5.25 28.25 5.25 28.0 5.3 27.05 5.3 26.9 5.65 26.2 6.0 25.45 Q7.5 26.85 8.35 28.5 9.2 30.3 9.25 32.3 L9.25 32.4 M8.95 33.85 L9.1 34.05 9.2 34.05 9.15 34.25 7.95 34.35 8.25 35.65 Q5.9 34.9 4.65 33.0 L4.4 32.45 4.25 32.45 4.2 31.4 5.9 31.9 7.25 32.6 8.75 33.75 8.95 33.85" fill="#6d4f8a" fill-rule="evenodd" stroke="none"/>
      <path d="M5.9 25.4 L5.9 25.45 M5.9 25.4 L6.15 24.7 Q8.15 25.8 8.9 27.9 9.6 29.65 9.25 32.3 L9.35 32.4 M7.45 32.3 L8.8 33.7 8.95 33.85 9.1 34.05 9.2 34.05 9.35 34.25 M8.25 35.65 Q5.9 34.9 4.65 33.0 L4.4 32.45 4.25 32.45 M4.2 31.4 L4.15 30.9 5.65 31.35 5.4 30.75 5.2 29.7 5.2 29.3 5.2 29.25 5.15 29.25 5.2 29.0 5.15 29.0 5.15 28.7 5.25 28.25 5.25 28.0 M5.3 27.05 L5.3 26.9 5.65 26.2 5.95 25.5 5.9 25.45 M5.65 31.35 Q6.65 31.7 7.45 32.3 M5.3 27.05 L5.25 28.0 M4.2 31.4 L4.25 32.45" fill="none" stroke="#000000" stroke-linecap="round" stroke-linejoin="round" stroke-opacity="0.3019608" stroke-width="0.05"/>
      <path d="M8.65 35.3 L8.5 35.25 8.7 35.2 8.65 35.3" fill="#ffcc00" fill-rule="evenodd" stroke="none"/>
      <path d="M5.5 31.3 L5.6 30.45 5.65 30.0 5.65 29.95 6.2 28.35 Q6.9 26.65 8.3 25.5 L8.7 25.15 Q10.05 24.15 11.45 23.9 9.9 22.15 9.5 20.4 L10.2 20.6 Q11.95 21.4 13.4 23.1 L13.9 23.75 14.7 24.7 14.95 24.6 14.95 23.9 14.95 23.4 14.95 23.35 15.25 21.6 Q16.05 22.8 16.05 24.05 L16.05 24.15 15.95 25.1 15.75 25.1 Q16.45 25.95 16.45 26.9 16.45 29.4 12.95 30.8 10.75 31.7 8.7 31.7 L6.95 31.5 5.95 31.3 5.5 31.3" fill="#cc99ff" fill-rule="evenodd" stroke="none"/>
      <path d="M15.75 21.2 Q17.55 22.35 18.0 25.15 L18.75 25.65 20.25 27.4 Q23.65 32.3 18.75 36.25 L17.7 36.9 Q15.3 38.2 12.55 38.0 9.75 37.7 7.65 35.9 L7.35 35.65 Q6.6 34.95 6.2 34.15 L5.5 32.2 7.05 32.05 10.2 32.4 Q11.0 32.75 11.15 33.15 L11.15 33.2 Q11.25 34.2 8.7 35.2 L8.5 35.25 8.65 35.3 10.45 35.95 Q13.7 37.0 15.95 33.95 18.15 31.0 18.0 28.5 17.9 26.65 17.2 25.25 L17.0 25.2 17.0 25.15 17.0 24.7 16.85 24.45 Q16.75 22.75 15.75 21.2 M10.2 20.6 Q12.85 21.2 14.95 23.35 L14.95 23.4 14.95 23.9 14.95 24.6 14.7 24.7 13.9 23.75 13.4 23.1 Q11.95 21.4 10.2 20.6" fill="#6d4f8a" fill-rule="evenodd" stroke="none"/>
      <path d="M15.25 21.6 L15.45 20.9 15.7 21.05 15.75 21.2 Q16.75 22.75 16.85 24.45 L17.0 24.7 17.0 25.15 17.0 25.2 17.2 25.25 Q17.9 26.65 18.0 28.5 18.15 31.0 15.95 33.95 13.7 37.0 10.45 35.95 L8.65 35.3 8.7 35.2 Q11.25 34.2 11.15 33.2 L11.15 33.15 Q11.0 32.75 10.2 32.4 L7.05 32.05 5.5 32.2 5.5 31.65 5.5 31.3 5.95 31.3 6.95 31.5 8.7 31.7 Q10.75 31.7 12.95 30.8 16.45 29.4 16.45 26.9 16.45 25.95 15.75 25.1 L15.95 25.1 16.05 24.15 16.05 24.05 Q16.05 22.8 15.25 21.6" fill="#996fbf" fill-rule="evenodd" stroke="none"/>
      <path d="M15.25 21.6 L15.45 20.9 15.7 21.05 15.75 21.2 Q17.55 22.35 18.0 25.15 L18.75 25.65 20.25 27.4 Q23.65 32.3 18.75 36.25 L17.7 36.9 Q15.3 38.2 12.55 38.0 9.75 37.7 7.65 35.9 L7.35 35.65 Q6.6 34.95 6.2 34.15 L5.5 32.2 5.5 31.65 5.5 31.3 5.6 30.45 5.65 30.0 5.65 29.95 6.2 28.35 Q6.9 26.65 8.3 25.5 L8.7 25.15 Q10.05 24.15 11.45 23.9 9.9 22.15 9.5 20.4 L10.2 20.6 Q12.85 21.2 14.95 23.35 L15.25 21.6 M14.95 24.6 L14.95 23.9 14.95 23.4 14.95 23.35" fill="none" stroke="#000000" stroke-linecap="round" stroke-linejoin="round" stroke-opacity="0.3019608" stroke-width="0.05"/>
      <path d="M24.55 32.0 L24.5 32.05 24.45 31.95 24.55 32.0" fill="#f0ff66" fill-rule="evenodd" stroke="none"/>
      <path d="M24.0 32.8 L24.45 31.95 24.5 32.05 24.0 32.8 M14.15 35.95 L14.55 35.95 14.5 36.05 14.15 35.95" fill="#66cc33" fill-rule="evenodd" stroke="none"/>
      <path d="M15.55 34.5 L15.45 34.55 15.45 34.5 15.55 34.5 M23.55 33.7 L23.55 33.65 23.65 33.65 23.55 33.7" fill="#384472" fill-rule="evenodd" stroke="none"/>
      <path d="M22.7 34.5 L23.45 33.75 23.5 33.75 22.7 34.5" fill="#445288" fill-rule="evenodd" stroke="none"/>
      <path d="M13.75 36.1 L13.7 35.95 13.9 35.95 13.75 36.1 M19.25 38.65 L20.05 38.15 19.25 38.65" fill="#5366ac" fill-rule="evenodd" stroke="none"/>
      <path d="M21.8 35.3 L22.3 34.75 21.95 35.2 21.8 35.3" fill="#9fa7c7" fill-rule="evenodd" stroke="none"/>
      <path d="M16.85 36.05 Q17.95 36.25 19.1 36.8 L20.55 37.75 20.05 38.15 18.4 37.05 16.7 36.4 14.5 36.05 14.55 35.95 16.85 36.05 M24.45 31.95 L19.8 32.35 Q17.5 33.0 15.55 34.5 17.85 32.2 20.05 31.4 L25.1 31.2 24.55 32.0 24.45 31.95" fill="#cc99ff" fill-rule="evenodd" stroke="none"/>
      <path d="M15.45 34.55 L15.55 34.5 Q17.5 33.0 19.8 32.35 L24.45 31.95 24.0 32.8 23.55 33.65 23.55 33.7 23.45 33.75 22.7 34.5 22.55 34.55 22.4 34.65 22.3 34.75 21.8 35.3 21.75 35.3 21.7 35.4 21.45 35.55 21.4 35.65 21.3 35.65 21.0 35.95 Q20.5 36.2 19.8 36.6 L19.1 36.8 Q17.95 36.25 16.85 36.05 L17.2 35.3 15.45 34.55 M13.75 36.1 L13.9 35.95 14.15 35.95 14.5 36.05 16.7 36.4 18.4 37.05 20.05 38.15 19.25 38.65 19.0 38.8 18.8 38.7 18.2 38.95 Q15.45 39.4 13.05 37.95 L14.5 37.2 13.75 36.1" fill="#6d4f8a" fill-rule="evenodd" stroke="none"/>
      <path d="M16.85 36.05 Q17.95 36.25 19.1 36.8 L19.8 36.6 Q20.5 36.2 21.0 35.95 L21.3 35.65 21.4 35.65 21.45 35.55 21.7 35.4 21.75 35.3 21.8 35.3 21.95 35.2 22.3 34.75 22.4 34.65 22.55 34.55 22.7 34.5 23.45 33.75 23.55 33.7 23.65 33.65 23.55 33.65 24.0 32.8 M15.55 34.5 Q17.85 32.2 20.05 31.4 L25.1 31.2 24.55 32.0 24.5 32.05 24.0 32.8 M15.45 34.5 L15.55 34.5 M13.9 35.95 L13.7 35.95 M13.9 35.95 L14.15 35.95 14.55 35.95 16.85 36.05 M20.05 38.15 L20.55 37.75 19.1 36.8 M13.05 37.95 Q15.45 39.4 18.2 38.95 L18.8 38.7 19.0 38.8 19.25 38.65 20.05 38.15" fill="none" stroke="#000000" stroke-linecap="round" stroke-linejoin="round" stroke-opacity="0.3019608" stroke-width="0.05"/>
      <path d="M4.7 38.2 Q5.3 38.6 6.7 38.2 L11.6 36.55 10.8 35.55 7.4 37.45 Q2.85 39.35 8.15 33.65 7.7 33.7 7.35 34.0 4.5 37.0 4.7 38.2" fill="#ffcc33" fill-rule="evenodd" stroke="none"/>
      <path d="M11.6 36.55 L6.7 38.2 Q5.3 38.6 4.7 38.2 4.85 39.2 7.05 39.05 L12.75 38.0 11.6 36.55" fill="#ba4a01" fill-rule="evenodd" stroke="none"/>
      <path d="M8.15 33.65 Q2.85 39.35 7.4 37.45 L10.8 35.55 9.35 34.1 Q8.75 33.55 8.15 33.65" fill="#a94401" fill-rule="evenodd" stroke="none"/>
      <path d="M4.7 38.2 Q5.3 38.6 6.7 38.2 L11.6 36.55 12.75 38.0 7.05 39.05 Q4.85 39.2 4.7 38.2 4.5 37.0 7.35 34.0 7.7 33.7 8.15 33.65 M10.8 35.55 L11.6 36.55 M10.8 35.55 L9.35 34.1 Q8.75 33.55 8.15 33.65" fill="none" stroke="#996600" stroke-linecap="round" stroke-linejoin="round" stroke-opacity="0.2" stroke-width="0.25"/>
      <path d="M4.85 36.55 Q3.7 39.2 6.95 38.45 L11.8 36.75 Q10.05 34.0 8.8 33.25 L10.4 35.85 6.4 37.55 Q4.5 38.9 4.85 36.55" fill="#ae7c13" fill-rule="evenodd" stroke="none"/>
      <path d="M4.95 36.3 L4.85 36.55 Q4.5 38.9 6.4 37.55 L10.4 35.85 8.8 33.25 8.8 33.2 8.6 33.05 9.35 35.2 5.1 37.45 4.95 36.3" fill="#f0ac0f" fill-rule="evenodd" stroke="none"/>
      <path d="M8.6 33.05 L8.35 32.95 Q7.5 32.7 6.8 33.4 5.5 35.1 4.95 36.3 L5.1 37.45 9.35 35.2 8.6 33.05" fill="#ffcc00" fill-rule="evenodd" stroke="none"/>
      <path d="M4.95 36.3 L4.85 36.55 Q3.7 39.2 6.95 38.45 L11.8 36.75 Q10.05 34.0 8.8 33.25 L8.8 33.2 8.6 33.05 M8.35 32.95 Q7.5 32.7 6.8 33.4 5.5 35.1 4.95 36.3 Z" fill="none" stroke="#996600" stroke-linecap="round" stroke-linejoin="round" stroke-opacity="0.2" stroke-width="0.25"/>
      <path d="M6.45 34.65 L6.8 33.95 7.0 33.7 7.4 33.55 7.65 33.45 7.85 33.55 8.05 33.7 7.55 34.3 6.8 34.8 6.45 34.8 6.45 34.65" fill="#ffffcc" fill-rule="evenodd" stroke="none"/>
      <path d="M8.7 28.6 L8.2 27.4 Q7.85 27.0 7.55 27.5 7.25 27.9 7.2 28.9 L7.25 30.55 7.3 30.8 7.4 31.1 Q7.3 30.55 7.9 31.2 8.55 31.8 8.45 32.15 L8.5 32.2 8.75 31.7 8.85 30.75 8.85 29.85 8.8 29.8 8.65 29.75 8.45 29.3 8.35 28.85 Q8.35 28.6 8.5 28.6 8.55 28.45 8.7 28.6" fill="#000000" fill-rule="evenodd" stroke="none"/>
      <path d="M8.7 28.6 Q8.55 28.45 8.5 28.6 8.35 28.6 8.35 28.85 L8.45 29.3 8.65 29.75 8.8 29.8 8.85 29.85 8.9 29.5 8.85 29.05 8.75 28.65 8.7 28.6" fill="#ffffff" fill-rule="evenodd" stroke="none"/>
      <path d="M8.5 32.2 L8.45 32.15 8.45 32.2 8.5 32.2" fill="url(#gradient0)" fill-rule="evenodd" stroke="none"/>
      <path d="M8.45 32.15 Q8.55 31.8 7.9 31.2 7.3 30.55 7.4 31.1 7.55 32.0 7.85 32.25 L8.45 32.2 8.45 32.15" fill="#5b583e" fill-rule="evenodd" stroke="none"/>
      <path d="M8.0 28.45 L7.95 28.25 8.0 28.1 8.05 28.1 8.1 28.15 8.15 28.35 8.1 28.5 8.1 28.55 8.0 28.45" fill="#ffffff" fill-rule="evenodd" stroke="none"/>
      <path d="M12.3 30.45 L12.4 30.5 12.4 30.35 12.3 30.45 M11.8 34.0 L11.75 33.9 11.75 34.0 11.8 34.0" fill="#4d2601" fill-rule="evenodd" stroke="none"/>
      <path d="M12.5 31.6 L12.4 31.6 12.2 31.55 11.9 31.1 11.9 30.7 12.1 30.3 12.3 30.45 12.4 30.35 Q12.2 29.55 11.8 29.3 11.35 28.95 10.9 29.3 10.35 29.8 10.15 30.75 10.0 31.55 10.15 32.4 L10.15 32.7 10.25 32.9 Q10.25 32.4 11.05 33.05 11.8 33.55 11.75 33.9 L11.8 34.0 12.2 33.45 12.4 32.5 12.5 31.6" fill="#000000" fill-rule="evenodd" stroke="none"/>
      <path d="M12.3 30.45 L12.1 30.3 11.9 30.7 11.9 31.1 12.2 31.55 12.4 31.6 12.5 31.6 12.65 31.25 12.6 30.8 12.4 30.5 12.3 30.45" fill="#ffffff" fill-rule="evenodd" stroke="none"/>
      <path d="M11.75 33.9 Q11.8 33.55 11.05 33.05 10.25 32.4 10.25 32.9 10.45 33.7 10.8 33.95 L11.75 34.0 11.75 33.9" fill="#5b583e" fill-rule="evenodd" stroke="none"/>
      <path d="M11.55 30.25 L11.55 30.1 11.55 29.95 11.65 29.95 11.75 30.0 11.8 30.2 11.75 30.3 11.65 30.4 11.55 30.25" fill="#ffffff" fill-rule="evenodd" stroke="none"/>
      <path d="M12.15 32.0 L13.05 31.7 13.45 30.85 Q13.5 30.4 13.2 30.05 L12.45 29.75 Q11.95 29.75 11.55 30.05 11.2 30.4 11.15 30.85 11.05 31.35 11.35 31.7 L12.15 32.0" fill="url(#gradient1)" fill-rule="evenodd" stroke="none"/>
      <path d="M8.55 30.15 L9.45 29.85 9.85 29.0 9.65 28.15 Q9.3 27.85 8.85 27.85 8.35 27.85 7.95 28.15 7.6 28.55 7.55 29.0 7.5 29.45 7.8 29.85 L8.55 30.15" fill="url(#gradient2)" fill-rule="evenodd" stroke="none"/>
    </g>
    <radialGradient cx="0" cy="0" gradientTransform="matrix(0.0017, 0.0019, -2.0E-4, 0.0031, 8.0, 29.85)" gradientUnits="userSpaceOnUse" id="gradient0" r="819.2" spreadMethod="pad">
      <stop offset="0.21176470588235294" stop-color="#453929"/>
      <stop offset="0.5254901960784314" stop-color="#252016"/>
    </radialGradient>
    <radialGradient cx="0" cy="0" gradientTransform="matrix(-0.0015, 0.0, -2.0E-4, 0.0015, 12.25, 30.85)" gradientUnits="userSpaceOnUse" id="gradient1" r="819.2" spreadMethod="pad">
      <stop offset="0.6666666666666666" stop-color="#f7fed6"/>
      <stop offset="1.0" stop-color="#f7ffd6" stop-opacity="0.0"/>
    </radialGradient>
    <radialGradient cx="0" cy="0" gradientTransform="matrix(-0.0015, 0.0, -2.0E-4, 0.0015, 8.7, 29.0)" gradientUnits="userSpaceOnUse" id="gradient2" r="819.2" spreadMethod="pad">
      <stop offset="0.6666666666666666" stop-color="#f7fed6"/>
      <stop offset="1.0" stop-color="#f7ffd6" stop-opacity="0.0"/>
    </radialGradient>
  </defs>
</svg>
