<?xml version="1.0" encoding="UTF-8" standalone="no"?>
<svg xmlns:xlink="http://www.w3.org/1999/xlink" height="440.0px" width="440.0px" xmlns="http://www.w3.org/2000/svg">
  <g transform="matrix(10.0, 0.0, 0.0, 10.0, 0.0, 0.0)">
    <use height="44.0" transform="matrix(1.0, 0.0, 0.0, 1.0, 0.0, 0.0)" width="44.0" xlink:href="#shape0"/>
    <use height="40.9" transform="matrix(0.7977, 0.0, 0.0, 0.7977, 1.8973, 5.2867)" width="26.35" xlink:href="#sprite0"/>
    <use height="40.9" transform="matrix(-0.8864, 0.0267, 0.0, 0.8864, 42.8696, 4.2604)" width="26.35" xlink:href="#sprite0"/>
  </g>
  <defs>
    <g id="shape0" transform="matrix(1.0, 0.0, 0.0, 1.0, 0.0, 0.0)">
      <path d="M44.0 44.0 L0.0 44.0 0.0 0.0 44.0 0.0 44.0 44.0" fill="#43adca" fill-opacity="0.0" fill-rule="evenodd" stroke="none"/>
      <path d="M18.5 6.5 L17.6 6.45 Q18.55 6.8 19.05 7.5 L19.2 7.6 18.85 8.15 18.0 9.2 17.05 10.05 16.9 10.15 16.35 10.4 14.85 11.1 13.65 11.6 11.15 11.9 11.85 12.1 12.55 12.3 13.35 12.35 13.9 12.5 14.2 12.75 M17.6 6.45 L13.55 6.7 Q10.7 6.95 9.45 8.9 8.85 9.8 9.25 10.6 L9.8 11.2 10.45 11.6 11.15 11.9 M12.55 5.7 Q11.55 6.05 10.6 6.8 8.55 8.25 8.05 10.55 7.85 11.3 7.9 12.2 7.95 13.35 8.25 14.2 8.65 15.25 9.4 15.85 L9.45 15.8 9.55 15.95 9.7 16.05 9.9 16.15 11.95 16.65 14.5 16.65 15.0 16.7 15.3 16.65 Q14.7 16.15 14.75 15.7 14.75 14.65 17.3 13.55 L20.15 11.65 20.15 11.3 20.15 11.15 Q20.15 9.8 21.15 9.8 L21.2 9.7 21.25 9.55 21.25 9.5 21.3 9.4 Q21.55 8.6 21.3 7.85 L21.25 7.75 21.25 7.6 Q21.0 6.85 20.15 6.2 19.35 5.6 17.0 5.45 L14.3 5.4 12.55 5.7 M24.35 6.2 L25.4 6.05 29.85 6.2 Q33.05 6.35 34.45 8.5 35.15 9.5 34.7 10.35 L34.1 11.1 33.35 11.55 32.55 11.9 31.75 12.1 31.0 12.4 30.15 12.45 29.6 12.6 29.25 12.9 M21.25 7.6 Q21.6 6.65 22.6 5.85 23.45 5.2 26.1 4.95 L29.1 4.7 31.0 5.1 Q32.15 5.45 33.2 6.2 35.45 7.75 36.05 10.3 37.4 12.15 35.8 14.4 35.35 15.55 34.55 16.25 34.9 17.2 34.75 17.9 35.0 17.9 35.1 18.1 L35.15 18.4 34.85 19.05 34.9 18.95 35.0 19.15 35.0 19.95 Q35.45 20.6 35.4 21.25 L35.2 21.85 Q37.4 22.5 37.3 24.65 37.3 25.65 36.7 26.5 L35.95 27.25 36.15 27.6 36.95 29.3 M36.05 10.3 L36.2 12.05 35.8 14.4 M34.55 16.25 L34.5 16.15 34.5 16.25 34.0 16.65 33.95 16.7 33.85 16.75 33.1 17.0 32.4 17.1 29.4 17.5 28.0 17.35 28.25 17.1 28.65 16.25 Q28.6 15.05 25.8 13.95 23.6 13.05 22.5 11.8 L22.1 11.3 22.05 11.2 22.0 11.1 Q21.05 11.0 20.45 11.6 L20.3 11.75 20.15 12.05 19.9 12.55 19.85 12.65 19.8 12.8 Q19.1 14.35 20.2 15.15 L20.95 15.6 M33.95 16.7 L33.95 16.65 33.95 16.7 M34.5 16.25 L33.95 16.65 M34.85 19.05 L34.0 19.8 34.0 20.05 33.95 20.15 33.9 20.45 33.6 21.1 32.3 22.55 30.95 23.35 31.7 23.2 32.4 23.15 M34.75 17.9 Q34.5 18.85 33.35 19.4 L32.7 19.9 32.75 19.85 Q31.55 20.7 30.3 21.05 L29.5 21.25 Q32.15 21.2 33.5 20.45 L34.0 20.05 M33.5 20.45 L33.95 20.15 M22.85 16.8 L23.45 17.75 23.85 18.2 24.4 18.55 Q25.7 19.15 27.7 18.55 28.7 19.85 30.4 19.9 L31.3 19.85 33.35 19.4 M31.7 23.2 L32.5 23.55 Q32.55 23.45 32.7 23.45 L32.85 23.3 34.4 21.6 Q34.9 20.8 35.0 19.95 M32.5 23.55 Q34.4 24.7 35.95 27.25 M35.2 21.85 L34.4 21.6 M30.95 23.35 L27.3 23.9 24.5 24.4 24.3 24.4 24.15 24.55 Q23.75 25.25 23.95 27.7 L24.0 28.2 24.05 28.95 24.25 30.15 24.6 30.0 24.65 29.0 24.9 28.75 26.85 27.35 27.65 28.5 28.45 28.25 28.6 30.1 28.15 29.85 Q29.2 30.8 29.15 32.55 L29.1 33.05 Q28.95 34.3 28.4 35.3 L28.35 35.25 27.7 36.1 29.3 37.05 29.85 37.25 32.2 37.3 32.45 37.25 32.5 37.25 32.65 37.3 33.45 37.3 Q38.15 37.4 40.25 35.75 L40.75 35.3 40.8 35.25 40.8 35.0 40.5 33.55 40.45 33.25 Q40.0 32.35 38.7 31.65 L37.9 31.05 Q37.25 30.45 37.05 29.9 M40.5 33.55 Q41.8 34.1 42.1 35.8 42.05 36.95 41.65 37.8 40.9 39.6 38.7 40.3 L38.6 40.3 Q32.35 41.35 30.05 40.25 L27.75 39.1 Q27.15 38.5 26.7 37.3 L25.15 37.05 20.55 34.85 Q20.15 34.45 20.05 33.2 L17.85 34.35 16.5 34.5 Q16.1 35.65 15.5 36.25 L15.45 36.25 13.4 37.35 5.7 37.65 5.65 37.65 Q3.7 37.05 3.05 35.5 2.6 34.7 2.6 33.7 2.9 32.15 4.0 31.55 L4.05 31.3 Q4.5 30.5 5.65 29.85 L6.35 29.3 7.15 28.2 M40.75 35.3 L40.8 35.3 40.8 35.25 M25.4 6.05 Q24.35 6.45 23.8 7.25 L23.7 7.35 24.1 8.0 25.0 9.15 25.95 9.95 26.15 10.1 26.8 10.4 28.55 11.15 29.75 11.65 29.8 11.65 32.55 11.9 M21.2 9.7 L21.3 9.7 21.25 9.55 M22.05 11.2 L21.95 10.85 21.9 10.85 21.75 10.6 21.35 9.85 21.15 9.8 M22.5 11.8 L22.45 11.75 21.95 10.85 M21.35 9.85 L21.3 9.7 M19.75 21.0 L20.25 20.95 20.5 20.7 Q20.2 20.15 20.2 19.65 L20.3 19.2 20.75 18.15 20.8 18.0 20.95 17.8 20.25 17.3 19.2 18.15 19.15 18.25 18.1 18.8 M20.95 17.8 L21.05 17.85 22.45 18.2 22.5 18.2 23.2 17.85 23.4 17.8 23.45 17.75 M23.85 18.2 L23.4 17.8 M32.4 17.1 L28.8 17.25 28.25 17.1 M20.15 11.65 L20.15 11.7 20.15 12.05 M11.95 16.65 L14.4 16.8 15.0 16.7 M17.55 18.15 L17.45 18.1 17.3 18.05 17.55 18.15 18.5 17.7 Q17.3 18.2 15.55 17.7 14.6 18.95 13.05 19.05 L12.35 19.0 10.55 18.65 11.05 19.05 11.0 19.05 Q12.15 19.75 13.3 20.05 L13.95 20.2 14.0 20.05 14.3 19.55 14.45 19.25 Q15.2 18.3 16.2 18.15 L16.6 18.1 17.0 18.05 17.3 18.05 M20.25 17.3 L20.2 17.3 19.6 17.0 19.4 16.95 19.25 17.1 18.5 17.7 M19.4 16.95 L19.35 16.95 19.25 17.1 M19.35 16.95 L20.05 16.15 20.15 15.95 20.2 15.15 M20.15 16.55 L20.25 17.25 20.25 17.3 M13.8 21.35 L13.8 21.0 13.95 20.2 Q11.45 20.25 10.2 19.55 L9.9 19.35 9.95 19.6 10.25 20.2 Q10.65 20.9 11.4 21.45 L11.4 21.5 Q11.95 21.9 12.65 22.15 L15.9 22.55 18.65 21.9 19.45 21.55 20.25 20.95 M18.35 22.9 L18.6 22.9 18.7 23.05 Q19.1 23.6 18.95 25.9 L18.9 26.3 18.8 27.0 19.8 26.35 20.25 25.85 20.05 25.3 19.95 25.05 19.85 24.1 19.9 23.55 Q20.05 22.75 20.45 22.25 L21.1 21.7 21.0 21.5 19.45 22.5 19.05 22.6 19.0 22.6 18.35 22.9 15.9 22.55 M12.65 22.15 L11.9 22.05 11.25 22.4 Q9.5 23.45 8.15 25.8 L7.95 26.15 7.2 27.7 M11.9 22.05 L11.35 22.0 M11.25 22.4 L11.05 22.3 10.85 22.15 Q9.95 21.5 9.5 20.65 L8.8 20.9 Q6.8 21.55 6.85 23.45 6.9 24.4 7.45 25.15 L8.15 25.8 M4.0 31.55 L3.75 32.95 3.8 33.1 3.85 33.15 4.2 33.55 Q6.1 35.0 10.35 34.8 L11.05 34.75 11.25 34.75 11.5 34.75 13.55 34.6 14.2 34.4 15.55 33.5 15.0 32.8 14.95 32.85 Q14.45 32.0 14.35 30.85 L14.3 30.35 Q14.25 28.75 15.2 27.9 L15.35 27.8 15.4 27.75 15.35 27.75 14.75 28.2 14.9 26.5 15.6 26.65 16.3 25.65 18.3 27.0 18.4 27.95 18.65 28.1 18.8 27.0 M15.55 33.5 Q16.15 33.9 16.75 33.8 17.55 33.65 17.55 33.05 L17.6 33.0 17.6 32.45 17.6 32.35 17.35 31.3 17.2 30.85 17.05 30.1 17.0 30.1 17.0 29.3 16.65 28.4 Q16.15 29.5 16.25 30.4 L16.35 31.1 16.7 32.05 16.8 32.5 16.8 33.0 16.7 33.0 16.1 32.85 15.65 32.35 Q15.15 31.5 15.05 30.25 L15.1 29.7 Q15.25 28.6 16.25 28.05 L15.85 27.95 15.4 27.7 15.4 27.75 M16.65 28.4 L16.5 28.15 16.25 28.05 M17.35 31.3 L17.45 31.1 17.45 31.05 18.45 29.35 18.5 29.25 17.7 29.4 17.55 29.9 17.05 30.1 M17.7 29.4 L17.75 28.65 M18.4 27.95 L18.45 28.85 18.55 28.9 18.65 29.0 Q19.1 29.35 19.35 30.05 L19.9 31.45 19.85 32.05 19.85 32.1 20.0 32.25 20.5 32.35 20.6 32.35 20.6 32.15 20.65 32.1 20.65 32.0 Q20.7 31.05 20.2 29.8 L20.15 29.7 19.55 28.8 Q19.2 28.3 18.65 28.1 M18.65 29.0 L18.5 29.1 18.5 29.15 18.5 29.25 M18.45 28.85 L18.5 29.15 M18.5 29.1 L18.55 28.9 M16.25 26.9 L15.6 26.65 M24.4 18.55 L25.45 19.1 25.6 19.0 26.05 18.95 26.55 18.95 27.0 19.0 Q28.1 19.15 28.9 20.2 L29.15 20.55 29.45 21.1 29.5 21.25 29.65 22.1 29.65 22.5 M25.75 19.25 L25.45 19.1 M22.45 18.2 L23.6 19.1 23.85 19.25 24.9 19.85 M21.0 21.5 L20.95 21.45 20.5 20.7 M27.3 23.9 L24.2 23.3 23.4 22.9 22.5 22.35 22.05 21.85 21.35 21.7 21.2 21.8 21.1 21.95 21.2 22.35 Q21.85 23.25 23.45 24.0 L23.8 24.15 23.85 24.15 24.5 24.4 M21.2 21.8 L21.1 21.7 M23.05 22.4 L22.5 22.35 M19.55 28.8 L21.0 27.95 21.1 26.75 20.8 26.45 20.7 26.35 20.25 25.85 M21.55 33.05 L22.15 33.55 22.6 32.0 23.25 31.0 22.45 30.7 21.7 30.05 21.2 29.1 21.1 28.45 21.1 27.75 21.15 26.75 21.1 26.75 M24.05 28.95 Q23.55 28.8 23.0 28.3 L22.45 27.75 22.1 27.2 21.8 27.1 21.15 26.75 M21.0 27.95 L21.0 29.35 20.95 29.15 20.95 31.3 M26.9 28.75 L27.65 28.5 M25.25 30.75 L25.35 31.6 25.45 32.1 26.1 32.35 26.1 31.5 26.55 30.45 26.7 30.1 26.95 30.05 27.4 29.9 27.85 29.65 27.9 29.7 28.15 29.85 M20.2 29.8 L20.95 29.15 M8.8 20.9 L8.6 20.35 Q8.55 19.8 9.0 19.25 L8.95 18.5 9.05 18.3 9.2 18.5 8.9 17.8 8.95 17.55 9.2 17.35 9.25 17.35 Q9.1 16.75 9.4 15.85 M8.25 14.2 Q6.8 12.2 8.05 10.55 M10.2 19.55 L9.9 19.3 9.9 19.35 M9.2 18.5 L9.85 19.0 9.9 19.3 M9.5 20.65 Q9.1 20.0 9.0 19.25 M10.55 18.65 Q9.45 18.2 9.25 17.35 M3.85 33.15 L3.8 33.15 3.8 33.1 M26.95 30.05 Q28.05 30.6 28.25 31.85 L28.25 32.45 Q28.15 33.85 27.6 34.85 L27.15 35.35 26.45 35.55 26.3 35.6 26.3 35.05 26.45 34.5 26.8 33.45 27.0 32.65 Q27.05 31.65 26.55 30.45 M26.1 32.35 L25.9 33.15 25.75 33.7 Q25.4 34.55 25.4 34.9 L25.4 35.65 25.45 35.7 Q25.45 36.3 26.35 36.45 L26.4 36.45 Q27.05 36.55 27.7 36.1 M25.35 31.6 L24.45 31.45 24.5 30.95 24.35 31.05 24.4 31.25 24.45 31.5 25.6 33.45 25.6 33.5 25.75 33.7 M25.6 33.5 L25.55 33.5 25.6 33.45 M26.45 34.5 L26.85 34.95 27.15 35.35 M24.35 31.05 Q24.3 31.05 24.2 31.15 L24.4 31.25 M24.2 31.15 Q23.75 31.6 23.45 32.3 23.0 33.15 22.95 33.95 24.05 34.6 25.4 34.9 M22.95 33.95 L22.95 34.65 22.95 34.7 22.2 34.9 22.1 34.9 22.1 34.75 22.05 34.7 22.05 34.6 22.15 33.55 M26.7 37.3 L26.4 36.45 M20.05 33.2 L20.0 32.25 M17.45 31.1 L17.5 31.1 17.45 31.05 M16.7 32.05 L16.35 32.45 16.1 32.85 M19.9 31.45 L17.65 32.35 17.6 32.35 M16.5 34.5 L16.75 33.8 M24.6 30.0 L24.5 30.95 M23.25 31.0 L24.25 30.15" fill="none" stroke="#000000" stroke-linecap="round" stroke-linejoin="round" stroke-opacity="0.3019608" stroke-width="0.7000000000000001"/>
    </g>
    <g id="sprite0" transform="matrix(1.0, 0.0, 0.0, 1.0, 16.55, 20.7)">
      <use height="9.45" transform="matrix(1.0, 0.0, 0.0, 1.0, -9.55, -17.9)" width="18.65" xlink:href="#shape1"/>
      <use height="42.7" transform="matrix(-0.4124, 0.0, 0.0, 0.4124, 9.3481, -1.6682)" width="36.3" xlink:href="#sprite1"/>
      <use height="50.2" transform="matrix(-0.4124, 0.0, -0.065, 0.3986, 5.7473, 0.2139)" width="46.15" xlink:href="#sprite2"/>
      <use height="35.75" transform="matrix(1.0, 0.0, 0.0, 1.0, -10.3, -20.7)" width="20.1" xlink:href="#shape4"/>
    </g>
    <g id="shape1" transform="matrix(1.0, 0.0, 0.0, 1.0, 9.55, 17.9)">
      <path d="M2.95 -15.55 L1.75 -16.65 2.95 -15.55 M6.8 -8.7 Q4.8 -10.3 1.65 -10.45 -1.7 -10.6 -2.45 -12.1 -2.8 -12.8 -2.45 -13.9 -5.2 -13.2 -8.0 -10.05 -8.45 -9.55 -8.3 -9.15 -11.3 -12.8 -7.15 -15.65 L-2.8 -15.55 Q-0.5 -18.15 1.75 -16.65 L2.5 -17.65 4.15 -17.9 Q5.1 -17.85 5.2 -17.5 L5.85 -16.55 6.45 -14.75 Q9.15 -16.05 9.1 -13.5 9.05 -10.95 8.3 -11.35 L8.25 -11.5 7.95 -11.95 7.55 -12.4 Q7.35 -12.95 6.6 -12.95 L5.75 -12.8 5.1 -12.15 4.7 -11.6 Q4.5 -11.5 5.2 -9.9 5.3 -9.65 5.9 -9.35 L6.8 -8.7 M5.4 -14.9 L6.45 -14.75 5.4 -14.9" fill="#989178" fill-rule="evenodd" stroke="none"/>
      <path d="M6.8 -8.7 L5.9 -9.35 Q5.3 -9.65 5.2 -9.9 4.5 -11.5 4.7 -11.6 L5.1 -12.15 5.75 -12.8 6.6 -12.95 Q7.35 -12.95 7.55 -12.4 L7.95 -11.95 8.25 -11.5 8.3 -11.35 8.3 -10.2 8.25 -9.85 Q8.05 -8.75 7.1 -8.45 L6.8 -8.7" fill="#cac8c2" fill-rule="evenodd" stroke="none"/>
      <path d="M1.75 -16.65 L2.95 -15.55 M6.45 -14.75 L5.85 -16.55 5.2 -17.5 Q5.1 -17.85 4.15 -17.9 L2.5 -17.65 1.75 -16.65 Q-0.5 -18.15 -2.8 -15.55 L-7.15 -15.65 Q-11.3 -12.8 -8.3 -9.15 -8.45 -9.55 -8.0 -10.05 -5.2 -13.2 -2.45 -13.9 -2.8 -12.8 -2.45 -12.1 -1.7 -10.6 1.65 -10.45 4.8 -10.3 6.8 -8.7 M8.3 -11.35 Q9.05 -10.95 9.1 -13.5 9.15 -16.05 6.45 -14.75 L5.4 -14.9 M8.3 -11.35 L8.3 -10.2 8.25 -9.85 Q8.05 -8.75 7.1 -8.45 L6.8 -8.7" fill="none" stroke="#000000" stroke-linecap="round" stroke-linejoin="round" stroke-opacity="0.3019608" stroke-width="0.05"/>
      <path d="M2.7 -16.15 L5.75 -14.95 5.9 -15.15 6.05 -15.55 Q4.35 -18.65 2.65 -16.2 L2.7 -16.15" fill="#cac8c2" fill-rule="evenodd" stroke="none"/>
      <path d="M-0.75 -14.55 Q-3.65 -11.25 1.15 -10.85 2.4 -12.8 -0.35 -13.15 L-0.4 -14.2 Q-0.5 -14.85 -0.75 -14.55" fill="#cac8c2" fill-rule="evenodd" stroke="none"/>
      <path d="M-4.3 -14.5 L-5.35 -14.75 Q-10.25 -13.75 -8.15 -9.85 L-4.3 -14.5" fill="#cac8c2" fill-rule="evenodd" stroke="none"/>
      <path d="M-0.15 -14.85 L2.3 -14.7 Q2.65 -14.85 2.5 -15.15 0.65 -18.2 -0.25 -14.9 L-0.15 -14.85" fill="#cac8c2" fill-rule="evenodd" stroke="none"/>
    </g>
    <g id="sprite1" transform="matrix(1.0, 0.0, 0.0, 1.0, 16.0, 15.2)">
      <use height="42.7" transform="matrix(1.0, 0.0, 0.0, 1.0, -16.0, -15.2)" width="36.3" xlink:href="#shape2"/>
    </g>
    <g id="shape2" transform="matrix(1.0, 0.0, 0.0, 1.0, 16.0, 15.2)">
      <path d="M-13.25 5.0 L-13.15 5.5 Q-13.55 -0.5 -12.05 -4.1 L-7.4 -11.85 Q2.6 -17.2 11.2 -13.95 L18.85 -2.9 16.7 0.9 Q18.0 6.9 18.05 12.55 L20.2 16.25 Q20.55 20.8 19.45 23.9 11.95 27.4 4.65 27.5 L-1.75 26.95 -14.3 20.45 Q-16.2 18.15 -16.0 8.25 -15.5 5.75 -13.25 5.0 L-13.2 10.85 -13.25 5.0 M16.05 2.05 L16.7 0.9 16.05 2.05 M17.75 17.8 L17.6 19.1 17.75 17.8 Q9.55 22.25 -1.1 21.0 -7.05 19.4 -11.6 15.55 -7.05 19.4 -1.1 21.0 9.55 22.25 17.75 17.8 L18.05 12.55 17.75 17.8" fill="#593008" fill-rule="evenodd" stroke="none"/>
      <path d="M16.7 0.9 L18.85 -2.9 11.2 -13.95 Q2.6 -17.2 -7.4 -11.85 L-12.05 -4.1 Q-13.55 -0.5 -13.15 5.5 L-13.25 5.0 -13.2 10.85 M16.7 0.9 Q18.0 6.9 18.05 12.55 L20.2 16.25 Q20.55 20.8 19.45 23.9 11.95 27.4 4.65 27.5 L-1.75 26.95 -14.3 20.45 Q-16.2 18.15 -16.0 8.25 -15.5 5.75 -13.25 5.0 M-11.6 15.55 Q-7.05 19.4 -1.1 21.0 9.55 22.25 17.75 17.8 L18.05 12.55 M17.6 19.1 L17.75 17.8 M16.7 0.9 L16.05 2.05" fill="none" stroke="#000000" stroke-linecap="round" stroke-linejoin="round" stroke-opacity="0.4" stroke-width="0.05"/>
    </g>
    <g id="sprite2" transform="matrix(1.0, 0.0, 0.0, 1.0, 19.4, 23.8)">
      <use height="50.2" transform="matrix(1.0, 0.0, 0.0, 1.0, -19.4, -23.8)" width="46.15" xlink:href="#shape3"/>
    </g>
    <g id="shape3" transform="matrix(1.0, 0.0, 0.0, 1.0, 19.4, 23.8)">
      <path d="M15.55 -4.25 L15.3 -4.35 15.55 -4.7 15.55 -4.25 M1.9 6.65 L1.95 6.75 1.9 6.75 1.9 6.65" fill="#879880" fill-rule="evenodd" stroke="none"/>
      <path d="M-17.2 4.85 L-17.15 5.0 -17.3 4.95 -17.2 4.85" fill="#6a7a66" fill-rule="evenodd" stroke="none"/>
      <path d="M10.15 12.5 L10.2 12.45 10.15 12.5 M15.25 25.4 L15.4 25.4 15.25 25.45 15.25 25.4 M-13.75 21.05 L-13.85 21.05 -13.75 21.05" fill="#32382f" fill-rule="evenodd" stroke="none"/>
      <path d="M1.65 6.65 L1.9 6.65 1.9 6.75 1.9 6.8 1.65 6.65 M-8.2 0.0 L-8.15 0.25 -8.25 0.05 -8.2 0.0" fill="#54604f" fill-rule="evenodd" stroke="none"/>
      <path d="M-0.15 16.25 L0.45 16.2 0.45 16.3 -0.15 16.25" fill="#3d2800" fill-rule="evenodd" stroke="none"/>
      <path d="M23.25 11.4 L23.45 11.25 23.4 11.4 23.25 11.4" fill="#471c06" fill-rule="evenodd" stroke="none"/>
      <path d="M15.55 -4.7 L15.3 -4.35 Q12.85 -0.7 15.25 0.9 12.55 3.45 -0.65 6.6 -9.4 5.85 -8.15 0.25 L-8.2 0.0 -8.95 -4.0 Q-8.85 -11.95 14.15 -10.75 L15.55 -5.85 15.55 -5.75 15.55 -5.25 15.55 -4.7 M1.95 6.75 Q23.75 -0.2 23.55 10.55 L23.45 11.25 23.25 11.4 21.85 12.55 Q15.25 17.15 2.55 16.45 L0.45 16.3 0.45 16.2 -0.15 16.25 -0.2 16.25 Q-1.1 12.35 1.9 6.8 L1.9 6.75 1.95 6.75 M10.2 12.45 L10.15 12.5 10.2 12.45" fill="#ad9230" fill-rule="evenodd" stroke="none"/>
      <path d="M15.3 -4.35 L15.55 -4.25 Q15.85 -2.55 17.45 -0.8 L19.35 0.85 Q22.5 3.0 23.45 5.55 L23.45 6.3 Q23.75 9.0 23.55 10.55 23.75 -0.2 1.95 6.75 L1.9 6.65 1.65 6.65 -0.65 6.6 Q12.55 3.45 15.25 0.9 12.85 -0.7 15.3 -4.35" fill="#ccbf89" fill-rule="evenodd" stroke="none"/>
      <path d="M-0.65 6.6 L1.65 6.65 1.9 6.8 Q-1.1 12.35 -0.2 16.25 L-0.9 16.35 -7.1 15.9 Q-10.25 14.9 -12.7 12.45 L-12.85 12.0 Q-14.3 9.2 -16.15 6.65 -15.65 3.3 -8.25 0.05 L-8.15 0.25 Q-9.4 5.85 -0.65 6.6 M4.15 -23.6 Q10.7 -20.45 14.15 -10.75 -8.85 -11.95 -8.95 -4.0 -10.25 -12.9 -7.4 -22.1 L4.15 -23.6" fill="#7e6618" fill-rule="evenodd" stroke="none"/>
      <path d="M-8.95 -4.0 L-8.2 0.0 -8.25 0.05 Q-15.65 3.3 -16.15 6.65 L-16.9 5.55 -17.15 5.0 -17.2 4.85 -19.4 -0.65 Q-19.3 -17.45 -17.05 -20.45 L-16.6 -20.9 -7.4 -22.1 Q-10.25 -12.9 -8.95 -4.0" fill="#584810" fill-rule="evenodd" stroke="none"/>
      <path d="M23.55 10.55 Q23.75 9.0 23.45 6.3 26.6 8.15 26.75 12.95 26.1 16.2 24.6 18.65 25.85 14.75 23.45 12.5 L21.85 12.55 23.25 11.4 23.4 11.4 23.45 11.25 23.55 10.55 M-0.2 16.25 L-0.15 16.25 0.45 16.3 2.55 16.45 0.6 17.15 0.4 17.3 -2.25 17.85 Q-4.3 18.2 -7.9 16.8 -8.95 20.9 -7.55 22.85 -6.1 26.2 15.25 25.4 L15.25 25.45 Q-2.4 27.7 -8.0 24.5 L-13.75 21.05 -13.85 21.05 -11.45 14.85 Q-9.55 15.6 -7.1 15.9 L-0.9 16.35 -0.2 16.25" fill="#683808" fill-rule="evenodd" stroke="none"/>
      <path d="M-16.9 5.55 L-16.15 6.65 Q-14.3 9.2 -12.85 12.0 L-12.7 12.45 Q-10.25 14.9 -7.1 15.9 -9.55 15.6 -11.45 14.85 L-13.85 21.05 Q-16.3 17.6 -16.75 8.7 L-16.75 8.45 -16.9 5.55" fill="#593008" fill-rule="evenodd" stroke="none"/>
      <path d="M21.85 12.55 L23.45 12.5 Q25.85 14.75 24.6 18.65 21.65 23.55 15.4 25.4 L15.25 25.4 Q-6.1 26.2 -7.55 22.85 -8.95 20.9 -7.9 16.8 -4.3 18.2 -2.25 17.85 L0.4 17.3 0.6 17.15 2.55 16.45 Q15.25 17.15 21.85 12.55" fill="#97550d" fill-rule="evenodd" stroke="none"/>
      <path d="M4.15 -23.6 L5.95 -23.8 M15.55 -4.25 L15.55 -4.7 M23.55 10.55 Q23.75 9.0 23.45 6.3 L23.45 5.55 Q22.5 3.0 19.35 0.85 L17.45 -0.8 Q15.85 -2.55 15.55 -4.25 M14.15 -10.75 L15.55 -5.85 M4.15 -23.6 Q10.7 -20.45 14.15 -10.75 M23.45 11.25 L23.55 10.55 M23.25 11.4 L23.45 11.25 23.4 11.4 23.25 11.4 21.85 12.55 M24.6 18.65 Q26.1 16.2 26.75 12.95 26.6 8.15 23.45 6.3 M-0.2 16.25 L-0.15 16.25 0.45 16.2 M0.45 16.3 L2.55 16.45 Q15.25 17.15 21.85 12.55 M10.15 12.5 L10.2 12.45 M15.25 25.45 L15.4 25.4 Q21.65 23.55 24.6 18.65 M-7.4 -22.1 L-16.6 -20.9 -17.05 -20.45 Q-19.3 -17.45 -19.4 -0.65 L-17.2 4.85 -17.15 5.0 -16.9 5.55 -16.15 6.65 Q-14.3 9.2 -12.85 12.0 L-12.7 12.45 Q-10.25 14.9 -7.1 15.9 L-0.9 16.35 -0.2 16.25 M-17.15 5.0 L-17.3 4.95 -17.2 4.85 M-13.85 21.05 Q-16.3 17.6 -16.75 8.7 L-16.75 8.45 -16.9 5.55 M-13.85 21.05 L-13.75 21.05 M15.25 25.45 Q-2.4 27.7 -8.0 24.5 L-13.75 21.05 M-0.15 16.25 L0.45 16.3 M-7.4 -22.1 L4.15 -23.6 Z" fill="none" stroke="#000000" stroke-linecap="round" stroke-linejoin="round" stroke-opacity="0.3019608" stroke-width="0.05"/>
    </g>
    <g id="shape4" transform="matrix(1.0, 0.0, 0.0, 1.0, 10.3, 20.7)">
      <path d="M0.05 -1.55 L0.4 -1.65 1.55 -2.05 2.6 -2.7 4.2 -3.8 Q5.25 -4.7 5.55 -4.35 L6.05 -3.6 6.3 -3.2 7.1 -1.6 7.2 -1.2 7.65 0.35 8.05 5.85 7.9 6.5 7.35 7.65 Q6.65 8.6 5.25 8.85 L4.85 8.9 4.3 9.1 4.15 9.2 3.9 9.35 4.0 9.05 4.4 7.25 4.35 7.3 Q4.4 6.25 3.7 5.15 L1.65 3.4 Q-4.35 5.2 -6.2 2.65 -6.25 2.25 -5.3 -0.35 L-5.2 -0.7 -3.5 -0.8 -1.35 -1.15 0.05 -1.5 0.05 -1.55" fill="#ad9230" fill-rule="evenodd" stroke="none"/>
      <path d="M3.9 9.35 L4.15 9.2 4.3 9.1 4.85 8.9 5.25 8.85 Q6.65 8.6 7.35 7.65 L7.9 6.5 8.05 5.85 7.65 0.35 7.2 -1.2 7.1 -1.6 6.3 -3.2 6.05 -3.6 5.55 -4.35 Q5.25 -4.7 4.2 -3.8 L2.6 -2.7 1.55 -2.05 0.4 -1.65 0.05 -1.55 M-5.2 -0.7 L-5.3 -0.35 Q-6.25 2.25 -6.2 2.65" fill="none" stroke="#000000" stroke-linecap="round" stroke-linejoin="round" stroke-opacity="0.3019608" stroke-width="0.05"/>
      <path d="M-4.1 -4.95 L-4.15 -4.9 -4.15 -4.95 -4.1 -4.95" fill="#302d3a" fill-rule="evenodd" stroke="none"/>
      <path d="M-0.7 -6.5 L-0.2 -6.55 -0.7 -6.4 -0.7 -6.5 M4.2 -9.2 L3.95 -9.0 4.1 -9.25 4.2 -9.2" fill="#465900" fill-rule="evenodd" stroke="none"/>
      <path d="M7.2 -14.3 L7.1 -14.0 7.05 -14.0 6.25 -12.55 Q4.8 -10.5 4.1 -9.25 L3.95 -9.0 4.2 -9.2 4.4 -9.35 Q5.1 -9.95 5.95 -10.2 L6.8 -10.05 6.95 -9.15 6.95 -8.8 6.65 -6.4 6.55 -5.95 6.2 -5.1 5.9 -4.7 4.4 -3.5 4.25 -3.4 4.15 -3.3 Q3.25 -2.8 2.25 -2.4 0.2 -2.35 -1.4 -2.95 L-2.35 -3.4 -2.75 -3.55 -2.9 -3.65 -3.6 -4.2 -4.15 -4.9 -4.1 -4.95 Q-4.3 -5.55 -0.7 -6.4 L-0.2 -6.55 -0.7 -6.5 Q-5.9 -6.3 -6.5 -7.05 -8.9 -8.3 -9.0 -12.05 -9.1 -16.35 -5.65 -18.85 -4.45 -19.75 -3.2 -20.15 L-1.05 -20.65 2.35 -20.5 Q5.35 -20.3 6.3 -19.55 9.05 -17.5 7.25 -14.3 L7.2 -14.3" fill="#ad9230" fill-rule="evenodd" stroke="none"/>
      <path d="M-6.5 -7.05 Q-5.9 -6.3 -0.7 -6.5 L-0.7 -6.4 Q-4.3 -5.55 -4.1 -4.95 L-4.15 -4.95 -4.15 -4.9 -3.6 -4.2 -2.9 -3.65 -2.75 -3.55 -2.35 -3.4 -1.4 -2.95 Q0.2 -2.35 2.25 -2.4 0.95 -1.95 -0.45 -1.85 L-1.3 -1.75 -3.1 -1.9 -3.55 -2.05 -4.4 -2.35 -4.7 -2.5 -4.9 -2.65 -5.6 -3.2 -5.7 -3.35 -6.1 -3.75 Q-6.9 -4.65 -6.95 -5.3 L-6.7 -6.4 -6.5 -7.05 M6.8 -10.05 L5.95 -10.2 Q5.1 -9.95 4.4 -9.35 L4.2 -9.2 4.1 -9.25 Q4.8 -10.5 6.25 -12.55 L7.05 -14.0 Q6.85 -13.55 6.8 -12.45 L6.7 -10.9 6.8 -10.05" fill="#7e6618" fill-rule="evenodd" stroke="none"/>
      <path d="M7.05 -14.0 L7.1 -14.0 7.2 -14.3 M7.25 -14.3 Q9.05 -17.5 6.3 -19.55 5.35 -20.3 2.35 -20.5 L-1.05 -20.65 -3.2 -20.15 Q-4.45 -19.75 -5.65 -18.85 -9.1 -16.35 -9.0 -12.05 -8.9 -8.3 -6.5 -7.05 -5.9 -6.3 -0.7 -6.5 L-0.2 -6.55 M6.2 -5.1 L6.55 -5.95 6.65 -6.4 6.95 -8.8 6.95 -9.15 6.8 -10.05 M3.95 -9.0 L4.1 -9.25 Q4.8 -10.5 6.25 -12.55 L7.05 -14.0 Q6.85 -13.55 6.8 -12.45 L6.7 -10.9 6.8 -10.05 M7.25 -14.3 L7.1 -14.0 M-6.1 -3.75 Q-6.9 -4.65 -6.95 -5.3 L-6.7 -6.4 -6.5 -7.05" fill="none" stroke="#000000" stroke-linecap="round" stroke-linejoin="round" stroke-opacity="0.3019608" stroke-width="0.05"/>
      <path d="M4.3 -19.15 Q5.75 -18.95 6.2 -18.05 L6.25 -17.65 Q4.35 -15.05 1.2 -13.45 -1.35 -12.1 -4.05 -12.15 L-4.95 -12.45 Q-3.3 -12.25 -1.8 -12.8 L1.6 -14.3 Q3.6 -15.35 5.1 -17.8 L4.95 -17.95 Q4.35 -18.85 3.15 -19.25 L4.3 -19.15" fill="#7e6618" fill-rule="evenodd" stroke="none"/>
      <path d="M3.15 -19.25 Q4.35 -18.85 4.95 -17.95 L5.1 -17.8 Q3.6 -15.35 1.6 -14.3 L-1.8 -12.8 Q-3.3 -12.25 -4.95 -12.45 -5.85 -12.75 -6.65 -13.3 -8.15 -14.5 -7.1 -16.2 -5.5 -18.65 -1.9 -18.9 L3.15 -19.25" fill="#2e1a04" fill-rule="evenodd" stroke="none"/>
      <path d="M4.3 -19.15 L3.15 -19.25 Q4.35 -18.85 4.95 -17.95 L5.1 -17.8 Q3.6 -15.35 1.6 -14.3 L-1.8 -12.8 Q-3.3 -12.25 -4.95 -12.45 L-4.05 -12.15 -3.2 -11.9 -2.2 -11.85 -1.05 -11.65 M3.15 -19.25 L-1.9 -18.9 Q-5.5 -18.65 -7.1 -16.2 -8.15 -14.5 -6.65 -13.3 -5.85 -12.75 -4.95 -12.45" fill="none" stroke="#000000" stroke-linecap="round" stroke-linejoin="round" stroke-opacity="0.3019608" stroke-width="0.05"/>
      <path d="M6.75 -0.35 L6.85 -0.25 Q8.0 3.65 6.55 6.9 L6.55 6.85 Q6.35 3.2 6.75 -0.35" fill="#ccbf89" fill-rule="evenodd" stroke="none"/>
      <path d="M7.4 -18.25 Q8.75 -16.15 6.7 -13.8 4.25 -11.05 0.9 -10.35 L0.95 -10.4 Q5.7 -13.6 7.4 -18.25" fill="#ccbf89" fill-rule="evenodd" stroke="none"/>
      <path d="M-7.25 -12.6 L-7.05 -12.55 -3.05 -10.0 Q-3.75 -9.3 -4.8 -9.65 -7.95 -10.65 -7.25 -12.6" fill="#ccbf89" fill-rule="evenodd" stroke="none"/>
      <path d="M-7.85 3.8 L-7.85 3.95 -7.95 3.95 -7.85 3.8" fill="#97550d" fill-rule="evenodd" stroke="none"/>
      <path d="M2.45 10.55 L2.45 10.3 2.55 10.35 2.45 10.55" fill="#703400" fill-rule="evenodd" stroke="none"/>
      <path d="M3.25 9.15 L3.1 9.1 3.3 9.05 3.25 9.15" fill="#8a7e5d" fill-rule="evenodd" stroke="none"/>
      <path d="M-7.85 3.8 Q-7.35 3.2 -6.15 3.2 -3.55 3.2 -0.5 4.45 3.25 5.9 3.5 8.2 L3.5 8.45 3.3 9.05 3.1 9.1 3.25 9.15 3.15 9.4 2.55 10.35 2.45 10.3 2.1 8.85 1.45 7.25 2.1 8.85 2.45 10.3 2.45 10.55 1.95 12.0 0.95 13.15 1.05 12.6 1.2 11.7 Q1.2 10.8 -0.05 9.25 -1.3 7.8 -2.05 7.6 L-5.05 6.8 -7.5 6.25 -8.0 6.2 Q-8.45 6.2 -8.75 6.7 L-8.95 7.3 -8.75 6.7 Q-8.45 6.2 -8.0 6.2 L-7.5 6.25 -8.95 7.3 -9.3 6.8 Q-9.3 5.9 -8.55 5.35 L-7.95 3.95 -7.85 3.95 -7.85 3.8 M-4.6 5.2 L-5.55 5.05 -6.8 4.85 Q-7.8 4.85 -8.5 5.35 L-8.55 5.35 -8.5 5.35 Q-7.8 4.85 -6.8 4.85 L-5.55 5.05 -4.6 5.2" fill="#7e6618" fill-rule="evenodd" stroke="none"/>
      <path d="M3.3 9.05 L3.5 8.45 3.5 8.2 Q3.25 5.9 -0.5 4.45 -3.55 3.2 -6.15 3.2 -7.35 3.2 -7.85 3.8 L-7.95 3.95 -8.55 5.35 -8.5 5.35 Q-7.8 4.85 -6.8 4.85 L-5.55 5.05 -4.6 5.2 M3.25 9.15 L3.3 9.05 M2.45 10.3 L2.1 8.85 1.45 7.25 M-7.5 6.25 L-5.05 6.8 -2.05 7.6 Q-1.3 7.8 -0.05 9.25 1.2 10.8 1.2 11.7 L1.05 12.6 0.95 13.15 1.95 12.0 2.45 10.55 2.45 10.3 M2.55 10.35 L3.15 9.4 3.25 9.15 M2.45 10.55 L2.55 10.35 M-8.55 5.35 Q-9.3 5.9 -9.3 6.8 L-8.95 7.3 -8.75 6.7 Q-8.45 6.2 -8.0 6.2 L-7.5 6.25" fill="none" stroke="#000000" stroke-linecap="round" stroke-linejoin="round" stroke-opacity="0.3019608" stroke-width="0.05"/>
      <path d="M6.35 9.9 Q7.0 11.6 6.95 12.85 L6.95 12.9 6.9 12.95 6.9 13.2 6.75 13.2 Q6.1 13.25 5.95 12.9 6.1 11.6 5.35 10.3 4.6 8.4 2.6 8.3 L2.25 8.2 2.1 7.8 2.25 7.45 2.55 7.35 Q5.1 7.45 6.35 9.9" fill="#7e6618" fill-rule="evenodd" stroke="none"/>
      <path d="M6.35 9.9 Q5.1 7.45 2.55 7.35 L2.25 7.45 2.1 7.8 2.25 8.2 2.6 8.3 Q4.6 8.4 5.35 10.3 6.1 11.6 5.95 12.9 6.1 13.25 6.75 13.2 L6.9 13.2 6.9 12.95 6.95 12.9 6.95 12.85 Q7.0 11.6 6.35 9.9 Z" fill="none" stroke="#000000" stroke-linecap="round" stroke-linejoin="round" stroke-opacity="0.3019608" stroke-width="0.05"/>
      <path d="M-0.15 13.75 L-0.2 13.8 -0.15 13.75" fill="#af8c48" fill-rule="evenodd" stroke="none"/>
      <path d="M-0.2 13.8 Q-0.95 12.5 -1.05 10.7 -1.15 8.05 1.1 7.0 L1.45 6.9 1.75 7.15 1.8 7.5 1.55 7.75 Q-0.15 8.65 -0.05 10.6 0.05 12.2 0.7 13.25 1.25 14.1 2.0 14.05 L2.15 14.05 2.15 13.45 1.6 11.65 Q1.0 10.15 2.0 8.1 L2.3 7.8 2.65 7.85 2.95 8.1 2.9 8.45 Q2.1 10.15 2.6 11.3 L3.15 13.35 3.15 14.1 3.1 14.15 Q3.1 14.8 2.1 15.0 0.8 15.3 -0.15 13.75 L-0.2 13.8" fill="#ad9230" fill-rule="evenodd" stroke="none"/>
      <path d="M-0.2 13.8 Q-0.95 12.5 -1.05 10.7 -1.15 8.05 1.1 7.0 L1.45 6.9 1.75 7.15 1.8 7.5 1.55 7.75 Q-0.15 8.65 -0.05 10.6 0.05 12.2 0.7 13.25 1.25 14.1 2.0 14.05 L2.15 14.05 2.15 13.45 1.6 11.65 Q1.0 10.15 2.0 8.1 L2.3 7.8 2.65 7.85 2.95 8.1 2.9 8.45 Q2.1 10.15 2.6 11.3 L3.15 13.35 3.15 14.1 3.1 14.15 Q3.1 14.8 2.1 15.0 0.8 15.3 -0.15 13.75 L-0.2 13.8 Z" fill="none" stroke="#000000" stroke-linecap="round" stroke-linejoin="round" stroke-opacity="0.3019608" stroke-width="0.05"/>
      <path d="M3.05 5.85 L4.05 6.5 4.25 9.35 3.25 9.55 3.35 8.55 2.7 7.7 3.05 5.85 M0.65 6.1 L1.05 5.55 1.6 6.3 0.65 6.1" fill="#7e6618" fill-rule="evenodd" stroke="none"/>
      <path d="M1.05 5.55 L1.5 4.8 2.85 5.7 3.05 5.85 2.7 7.7 3.35 8.55 3.25 9.55 3.1 10.15 2.35 10.35 2.35 9.45 1.75 7.9 0.95 7.7 0.4 7.4 -0.4 8.0 -0.25 5.85 0.65 6.1 1.6 6.3 1.05 5.55" fill="#ad9230" fill-rule="evenodd" stroke="none"/>
      <path d="M1.05 5.55 L1.5 4.8 2.85 5.7 M3.05 5.85 L4.05 6.5 4.25 9.35 3.25 9.55 3.1 10.15 2.35 10.35 2.35 9.45 1.75 7.9 0.95 7.7 0.4 7.4 -0.4 8.0 -0.25 5.85 0.65 6.1 1.05 5.55 M1.6 6.3 L0.65 6.1 M3.35 8.55 L3.25 9.55" fill="none" stroke="#000000" stroke-linecap="round" stroke-linejoin="round" stroke-opacity="0.3019608" stroke-width="0.05"/>
      <path d="M3.05 -3.15 Q3.5 -3.1 3.25 -2.8 0.25 0.7 -3.75 -0.95 L-3.7 -1.0 Q-0.4 -2.0 3.05 -3.15" fill="#ccbf89" fill-rule="evenodd" stroke="none"/>
      <path d="M2.5 -2.95 Q1.75 -2.2 0.5 -2.0 L-2.35 -2.25 Q-3.75 -2.6 -5.15 -3.45 L-5.1 -3.4 Q-6.35 -4.4 -6.75 -5.3 L-7.0 -5.55 -7.4 -5.6 -7.75 -5.4 -7.8 -5.0 Q-7.45 -3.8 -5.75 -2.6 -4.25 -1.65 -2.6 -1.25 L0.65 -1.05 Q2.4 -1.2 3.3 -2.2 L3.45 -2.6 3.3 -2.9 2.9 -3.05 2.5 -2.95" fill="#7e6618" fill-rule="evenodd" stroke="none"/>
      <path d="M2.5 -2.95 L2.9 -3.05 3.3 -2.9 3.45 -2.6 3.3 -2.2 Q2.4 -1.2 0.65 -1.05 L-2.6 -1.25 Q-4.25 -1.65 -5.75 -2.6 -7.45 -3.8 -7.8 -5.0 L-7.75 -5.4 -7.4 -5.6 -7.0 -5.55 -6.75 -5.3 Q-6.35 -4.4 -5.1 -3.4 L-5.15 -3.45 Q-3.75 -2.6 -2.35 -2.25 L0.5 -2.0 Q1.75 -2.2 2.5 -2.95 Z" fill="none" stroke="#000000" stroke-linecap="round" stroke-linejoin="round" stroke-opacity="0.3019608" stroke-width="0.05"/>
      <path d="M4.8 -5.15 L6.7 -7.2 Q7.7 -7.0 8.35 -5.95 L8.45 -5.75 8.65 -4.9 Q8.7 -3.25 7.2 -3.15 6.4 -3.15 5.5 -3.95 4.85 -4.5 4.65 -5.0 L4.8 -5.15 M8.0 -1.8 L8.75 -1.15 Q9.4 -0.45 9.45 0.85 L9.35 1.95 9.25 2.2 9.1 2.1 Q8.45 2.7 7.75 2.7 5.5 2.8 5.4 0.5 5.35 -0.65 5.8 -1.0 L6.6 -1.05 Q7.3 -1.05 8.0 -1.8 M1.35 -4.6 L1.9 -4.65 2.4 -4.7 3.45 -3.95 Q3.95 -3.65 4.05 -3.15 L4.2 -2.7 Q4.2 -2.05 3.45 -1.15 2.6 -0.25 1.8 -0.2 0.85 -0.15 0.15 -0.8 -0.5 -1.4 -0.55 -2.35 -0.6 -3.4 0.2 -4.0 L1.35 -4.6 M1.55 3.75 L0.95 4.45 Q0.1 5.05 -0.8 5.1 -3.0 5.2 -3.1 3.2 -3.1 2.35 -2.05 1.55 -1.15 0.9 -0.35 0.9 L0.5 0.9 0.75 0.95 1.25 1.55 Q1.85 2.25 1.85 2.65 1.9 3.25 1.55 3.75 M2.85 4.25 L3.5 3.95 4.3 4.8 5.5 5.25 5.25 5.65 4.65 5.7 3.4 5.45 Q2.85 5.15 2.85 4.7 L2.85 4.25 M-6.45 -1.55 L-6.0 -1.25 -5.45 -0.95 Q-4.9 -0.55 -4.85 -0.05 -4.85 0.65 -5.9 1.2 L-7.5 1.65 Q-9.65 1.75 -9.7 0.5 -9.75 -0.35 -7.85 -1.15 L-6.45 -1.55 M-4.5 2.65 Q-5.0 5.0 -7.35 3.45 L-7.25 3.35 -5.05 2.25 -4.8 2.4 Q-4.6 2.45 -4.5 2.65 M-6.1 -2.0 L-6.25 -2.0 Q-7.7 -2.45 -6.9 -3.1 L-6.65 -3.1 Q-6.15 -2.55 -6.1 -2.0" fill="#cac8c2" fill-rule="evenodd" stroke="none"/>
      <path d="M4.65 -5.0 Q4.85 -4.5 5.5 -3.95 6.4 -3.15 7.2 -3.15 8.7 -3.25 8.65 -4.9 L8.45 -5.75 9.0 -4.1 Q9.0 -3.15 8.2 -2.1 L8.0 -1.8 Q7.3 -1.05 6.6 -1.05 L5.8 -1.0 Q5.35 -0.65 5.4 0.5 5.5 2.8 7.75 2.7 8.45 2.7 9.1 2.1 L9.25 2.2 Q9.0 3.0 8.35 3.6 L6.85 4.45 5.9 5.75 Q4.95 6.55 4.05 6.55 3.3 6.6 2.3 5.7 L1.45 4.55 Q0.6 5.45 -0.85 5.5 -3.9 5.65 -4.15 3.8 L-4.75 4.25 -5.8 4.4 -6.9 4.15 -7.5 3.8 -8.15 5.2 Q-8.95 5.0 -9.6 4.2 -10.25 3.25 -10.3 2.1 -10.4 -0.3 -7.85 -1.15 L-8.15 -1.8 Q-8.2 -2.5 -7.65 -3.25 L-7.15 -3.7 Q-5.9 -1.95 -1.45 -2.0 L-1.4 -2.2 -0.8 -3.2 Q0.1 -4.35 1.35 -4.6 L0.2 -4.0 Q-0.6 -3.4 -0.55 -2.35 -0.5 -1.4 0.15 -0.8 0.85 -0.15 1.8 -0.2 2.6 -0.25 3.45 -1.15 4.2 -2.05 4.2 -2.7 L4.05 -3.15 Q3.95 -3.65 3.45 -3.95 L2.4 -4.7 2.95 -4.65 3.85 -4.1 3.9 -4.2 4.65 -5.0 M1.55 3.75 Q1.9 3.25 1.85 2.65 1.85 2.25 1.25 1.55 L0.75 0.95 0.5 0.9 -0.35 0.9 Q-1.15 0.9 -2.05 1.55 -3.1 2.35 -3.1 3.2 -3.0 5.2 -0.8 5.1 0.1 5.05 0.95 4.45 L1.55 3.75 Q1.75 4.1 1.55 4.35 L1.45 4.55 1.55 4.35 Q1.75 4.1 1.55 3.75 M-1.6 -0.55 L-1.45 -2.0 -1.6 -0.55 M2.85 4.25 L2.85 4.7 Q2.85 5.15 3.4 5.45 L4.65 5.7 5.25 5.65 5.5 5.25 4.3 4.8 3.5 3.95 2.85 4.25 M-7.85 -1.15 Q-9.75 -0.35 -9.7 0.5 -9.65 1.75 -7.5 1.65 L-5.9 1.2 Q-4.85 0.65 -4.85 -0.05 -4.9 -0.55 -5.45 -0.95 L-6.0 -1.25 -6.45 -1.55 -7.85 -1.15 M-6.1 -2.0 Q-6.15 -2.55 -6.65 -3.1 L-6.9 -3.1 Q-7.7 -2.45 -6.25 -2.0 L-6.1 -2.0 M-4.5 2.65 Q-4.6 2.45 -4.8 2.4 L-5.05 2.25 -7.25 3.35 -7.35 3.45 Q-5.0 5.0 -4.5 2.65" fill="#989178" fill-rule="evenodd" stroke="none"/>
      <path d="M8.45 -5.75 L8.35 -5.95 Q7.7 -7.0 6.7 -7.2 L4.8 -5.15 M8.45 -5.75 L9.0 -4.1 Q9.0 -3.15 8.2 -2.1 L8.0 -1.8 8.75 -1.15 Q9.4 -0.45 9.45 0.85 L9.35 1.95 9.25 2.2 Q9.0 3.0 8.35 3.6 L6.85 4.45 5.9 5.75 Q4.95 6.55 4.05 6.55 3.3 6.6 2.3 5.7 L1.45 4.55 Q0.6 5.45 -0.85 5.5 -3.9 5.65 -4.15 3.8 L-4.75 4.25 -5.8 4.4 -6.9 4.15 -7.5 3.8 -8.15 5.2 Q-8.95 5.0 -9.6 4.2 -10.25 3.25 -10.3 2.1 -10.4 -0.3 -7.85 -1.15 L-8.15 -1.8 Q-8.2 -2.5 -7.65 -3.25 L-7.15 -3.7 Q-5.9 -1.95 -1.45 -2.0 L-1.4 -2.2 -0.8 -3.2 Q0.1 -4.35 1.35 -4.6 L1.9 -4.65 2.4 -4.7 2.95 -4.65 3.85 -4.1 3.9 -4.2 4.65 -5.0 M5.8 -1.0 L6.6 -1.05 Q7.3 -1.05 8.0 -1.8 M1.55 3.75 Q1.75 4.1 1.55 4.35 L1.45 4.55 M-1.45 -2.0 L-1.6 -0.55 M-7.85 -1.15 L-6.45 -1.55" fill="none" stroke="#000000" stroke-linecap="round" stroke-linejoin="round" stroke-opacity="0.3019608" stroke-width="0.05"/>
      <path d="M2.7 -4.35 L4.55 -5.4 Q5.8 -6.3 6.45 -7.35 7.05 -8.4 6.95 -9.4 L7.05 -9.7 7.45 -10.0 7.75 -9.85 8.05 -9.5 Q8.3 -8.2 7.4 -6.85 6.65 -5.6 5.2 -4.6 4.4 -4.05 3.5 -3.65 L2.7 -4.35" fill="#7e6618" fill-rule="evenodd" stroke="none"/>
      <path d="M2.7 -4.35 L4.55 -5.4 Q5.8 -6.3 6.45 -7.35 7.05 -8.4 6.95 -9.4 L7.05 -9.7 7.45 -10.0 7.75 -9.85 8.05 -9.5 Q8.3 -8.2 7.4 -6.85 6.65 -5.6 5.2 -4.6 4.4 -4.05 3.5 -3.65" fill="none" stroke="#000000" stroke-linecap="round" stroke-linejoin="round" stroke-opacity="0.3019608" stroke-width="0.05"/>
      <path d="M4.9 1.05 L4.95 1.05 Q7.1 0.15 7.85 -1.05 L8.0 -1.45 7.75 -1.7 6.95 -1.5 Q6.25 -0.65 4.45 0.15 L0.8 0.95 Q-2.45 1.1 -4.65 -0.4 L-4.65 -0.45 Q-6.4 -1.65 -6.55 -3.5 L-7.55 -4.4 -7.7 -4.15 Q-7.85 -1.4 -5.3 0.4 -2.9 2.1 0.8 1.95 2.75 1.9 4.9 1.05" fill="#7e6618" fill-rule="evenodd" stroke="none"/>
      <path d="M4.9 1.05 Q2.75 1.9 0.8 1.95 -2.9 2.1 -5.3 0.4 -7.85 -1.4 -7.7 -4.15 L-7.55 -4.4 -6.55 -3.5 Q-6.4 -1.65 -4.65 -0.45 L-4.65 -0.4 Q-2.45 1.1 0.8 0.95 L4.45 0.15 Q6.25 -0.65 6.95 -1.5 L7.75 -1.7 8.0 -1.45 7.85 -1.05 Q7.1 0.15 4.95 1.05 L4.9 1.05 Z" fill="none" stroke="#000000" stroke-linecap="round" stroke-linejoin="round" stroke-opacity="0.3019608" stroke-width="0.05"/>
      <path d="M6.9 -13.45 L6.3 -12.65 5.85 -12.05 Q5.85 -10.7 6.1 -10.7 L6.7 -10.45 7.55 -10.2 8.4 -10.45 Q9.1 -10.75 9.1 -11.2 L9.25 -11.6 9.4 -12.05 9.4 -12.15 9.45 -12.05 Q10.35 -10.15 9.0 -9.15 L9.15 -7.65 8.95 -6.8 Q8.95 -6.5 8.1 -6.1 7.15 -5.65 6.45 -5.65 L5.35 -6.1 Q3.8 -4.25 0.6 -5.15 -0.85 -3.2 -3.45 -3.5 -8.5 -3.95 -7.1 -7.55 -7.1 -7.25 -6.5 -7.05 -2.65 -5.9 0.25 -6.45 -0.5 -7.05 -0.45 -7.65 -0.4 -9.0 2.75 -10.35 5.65 -11.6 6.9 -13.45 M6.05 -7.3 L5.35 -6.1 6.05 -7.3 M9.0 -9.15 L8.05 -8.65 9.0 -9.15" fill="#989178" fill-rule="evenodd" stroke="none"/>
      <path d="M6.9 -13.45 L7.05 -13.75 Q8.1 -13.9 8.75 -13.2 L8.9 -13.0 9.4 -12.15 9.4 -12.05 9.25 -11.6 9.1 -11.2 Q9.1 -10.75 8.4 -10.45 L7.55 -10.2 6.7 -10.45 6.1 -10.7 Q5.85 -10.7 5.85 -12.05 L6.3 -12.65 6.9 -13.45" fill="#cac8c2" fill-rule="evenodd" stroke="none"/>
      <path d="M9.4 -12.15 L8.9 -13.0 8.75 -13.2 Q8.1 -13.9 7.05 -13.75 L6.9 -13.45 M9.4 -12.15 L9.45 -12.05 Q10.35 -10.15 9.0 -9.15 L9.15 -7.65 8.95 -6.8 Q8.95 -6.5 8.1 -6.1 7.15 -5.65 6.45 -5.65 L5.35 -6.1 Q3.8 -4.25 0.6 -5.15 -0.85 -3.2 -3.45 -3.5 -8.5 -3.95 -7.1 -7.55 -7.1 -7.25 -6.5 -7.05 -2.65 -5.9 0.25 -6.45 -0.5 -7.05 -0.45 -7.65 -0.4 -9.0 2.75 -10.35 5.65 -11.6 6.9 -13.45 M8.05 -8.65 L9.0 -9.15 M5.35 -6.1 L6.05 -7.3" fill="none" stroke="#000000" stroke-linecap="round" stroke-linejoin="round" stroke-opacity="0.3019608" stroke-width="0.05"/>
      <path d="M6.05 -6.8 L8.4 -8.75 8.65 -8.7 8.9 -8.45 Q8.55 -5.65 6.0 -6.75 L6.05 -6.8" fill="#cac8c2" fill-rule="evenodd" stroke="none"/>
      <path d="M2.15 -6.6 Q-1.95 -7.85 2.45 -9.9 4.35 -9.0 1.95 -7.75 L2.3 -7.0 Q2.45 -6.5 2.15 -6.6" fill="#cac8c2" fill-rule="evenodd" stroke="none"/>
      <path d="M-1.25 -5.35 Q-1.55 -4.9 -2.1 -4.8 -7.1 -3.7 -6.75 -7.1 L-1.25 -5.35" fill="#cac8c2" fill-rule="evenodd" stroke="none"/>
      <path d="M2.85 -6.65 Q4.1 -6.9 5.05 -7.6 L5.4 -7.35 Q4.9 -4.6 2.75 -6.55 L2.85 -6.65" fill="#cac8c2" fill-rule="evenodd" stroke="none"/>
    </g>
  </defs>
</svg>
