<?xml version="1.0" encoding="UTF-8" standalone="no"?>
<svg xmlns:xlink="http://www.w3.org/1999/xlink" height="440.0px" width="440.0px" xmlns="http://www.w3.org/2000/svg">
  <g transform="matrix(10.0, 0.0, 0.0, 10.0, 0.0, 0.0)">
    <use height="44.0" transform="matrix(1.0, 0.0, 0.0, 1.0, 0.0, 0.0)" width="44.0" xlink:href="#shape0"/>
    <use height="42.65" transform="matrix(0.7924, 0.0802, -0.0779, 0.7695, 4.9535, 5.7626)" width="24.25" xlink:href="#sprite0"/>
    <use height="18.05" transform="matrix(-0.95, 0.0, 0.0, 0.95, 18.245, 0.535)" width="13.0" xlink:href="#sprite2"/>
    <use height="42.65" transform="matrix(-0.8341, 0.0844, 0.082, 0.81, 37.246, 5.9949)" width="24.25" xlink:href="#sprite0"/>
    <use height="18.05" transform="matrix(1.0, 0.0, 0.0, 1.0, 23.3, 0.5)" width="13.0" xlink:href="#sprite2"/>
  </g>
  <defs>
    <g id="shape0" transform="matrix(1.0, 0.0, 0.0, 1.0, 0.0, 0.0)">
      <path d="M44.0 44.0 L0.0 44.0 0.0 0.0 44.0 0.0 44.0 44.0" fill="#43adca" fill-opacity="0.0" fill-rule="evenodd" stroke="none"/>
      <path d="M35.2 29.7 L35.05 29.4 34.65 29.25 34.5 29.15 34.1 29.6 34.6 30.25 34.6 30.3 34.6 30.5 35.35 30.5 36.95 30.0 37.55 29.65 37.5 29.45 Q37.2 28.3 36.0 27.85 L35.0 27.65 32.3 27.9 34.1 29.6 M35.05 29.4 L35.1 29.4 35.4 29.3 35.4 29.0 35.1 28.7 35.05 28.65 34.65 28.5 34.65 28.55 34.35 28.6 34.35 28.65 34.35 28.95 34.5 29.15 M35.1 28.7 L35.3 28.5 M34.6 30.5 L34.55 30.65 34.35 30.9 35.1 31.0 35.8 30.85 36.35 30.7 36.65 30.65 Q37.6 29.95 37.55 29.65 M38.75 39.9 L40.05 38.75 40.2 36.75 40.2 36.35 40.25 36.15 Q40.25 33.7 39.1 32.5 L39.1 32.45 37.55 32.1 36.85 31.85 36.75 31.8 36.65 31.8 36.55 31.8 Q36.4 31.65 36.25 31.6 L36.1 31.6 35.95 31.45 35.3 31.1 35.1 31.0 M35.4 29.3 L35.75 29.5 M36.65 40.8 L38.35 40.15 M31.75 3.9 L31.3 3.85 Q31.0 4.0 30.7 5.0 L30.65 6.1 Q31.2 7.3 31.2 8.55 L31.2 8.75 31.25 8.8 31.3 8.7 31.3 8.65 31.45 7.55 31.5 7.4 Q31.7 6.4 32.2 5.65 L32.05 4.3 31.75 3.9 32.15 1.95 Q32.6 1.0 32.95 0.95 33.3 0.85 33.55 1.75 33.55 3.45 32.9 4.85 33.5 4.6 33.65 5.0 33.8 5.4 33.55 6.3 L33.2 7.05 33.3 6.95 Q34.05 6.9 34.15 7.3 34.2 7.75 33.65 8.65 L32.85 9.55 32.95 9.5 Q33.55 9.7 33.55 10.2 L33.2 11.05 33.45 12.6 Q33.55 14.55 32.55 15.65 L32.75 16.0 32.95 16.65 33.0 17.5 32.85 18.75 M32.2 5.65 L32.6 5.15 32.9 4.85 M24.95 6.75 L24.8 7.3 24.8 7.6 24.9 8.0 25.25 8.95 25.55 9.05 26.2 9.9 26.25 9.45 26.3 9.15 26.3 9.1 26.1 7.95 25.75 7.2 25.6 6.95 Q25.15 6.5 24.95 6.75 M25.75 7.2 L26.4 7.15 28.25 7.25 29.45 7.65 29.4 7.25 Q29.45 6.25 29.75 5.95 30.1 5.6 30.65 6.1 M29.6 8.5 L29.6 8.45 29.5 8.4 29.6 8.5 Q29.85 9.8 30.5 10.5 L30.55 10.55 30.95 9.45 31.0 9.3 31.0 9.25 31.2 8.9 31.2 8.75 M29.5 8.4 L29.35 8.25 28.65 8.15 28.4 8.35 Q28.15 8.75 28.25 9.7 L28.4 10.15 28.8 10.2 Q29.55 11.0 29.75 12.15 L30.4 12.45 30.45 12.45 30.5 12.25 29.95 12.1 30.55 11.1 30.55 11.05 30.5 10.5 M28.4 10.15 Q28.15 10.15 28.05 10.3 L28.1 10.5 28.1 10.95 28.1 11.15 27.9 11.95 27.95 11.9 Q28.4 11.8 28.55 12.1 L28.65 12.4 Q29.2 13.15 29.35 14.1 L29.65 14.2 29.7 14.05 29.65 14.05 29.7 14.0 29.8 12.85 29.8 12.8 29.75 12.15 M28.05 10.3 L27.95 10.2 27.3 10.25 27.25 10.35 Q27.25 11.6 26.7 12.05 L26.7 12.2 26.7 12.5 26.7 12.6 26.85 13.4 26.85 13.45 26.95 13.4 27.1 13.3 Q27.3 12.5 27.9 11.95 M26.3 9.1 Q26.55 8.75 26.8 8.95 L27.2 9.8 27.25 10.35 M28.65 8.15 L27.1 8.05 26.1 7.95 M25.25 8.95 L25.0 9.05 Q24.8 9.25 25.0 10.0 L25.3 10.65 25.35 10.65 Q26.15 11.2 26.65 12.1 L26.65 12.0 26.35 11.25 26.35 11.15 26.2 9.9 M26.65 12.0 L26.7 12.05 M26.7 12.2 L26.65 12.1 M25.3 12.45 Q24.75 12.5 24.75 12.85 L24.8 13.2 25.15 13.75 25.4 13.95 25.65 13.85 26.75 14.55 26.9 14.7 27.05 14.7 27.5 14.65 27.45 14.5 27.0 14.6 27.0 14.0 27.0 13.8 27.0 13.7 26.95 13.6 26.75 13.35 25.6 12.55 25.3 12.45 M26.95 13.4 L27.05 13.45 27.1 13.3 M26.85 13.4 L26.75 13.35 M27.0 13.7 L27.05 13.6 26.95 13.6 M27.05 13.6 L27.05 13.45 M25.6 12.55 L24.95 11.8 Q24.65 11.2 24.75 10.85 24.8 10.6 25.3 10.65 M27.45 14.5 L27.55 14.45 27.65 14.15 Q27.85 13.55 28.3 13.2 L28.4 13.2 28.55 13.2 28.6 13.05 28.65 12.4 M28.55 13.2 L28.9 13.45 29.05 13.9 28.95 14.35 28.9 14.5 Q29.2 14.5 29.3 14.75 L29.35 14.8 29.4 14.95 29.4 14.75 29.35 14.1 M27.8 10.9 L28.1 10.5 M31.25 8.8 L31.3 8.75 31.3 8.7 M31.3 8.75 L31.35 8.65 Q32.05 7.6 33.2 7.05 M31.2 8.9 L31.25 8.8 M30.55 10.55 L30.55 10.6 30.6 10.6 30.95 10.6 Q31.75 9.7 32.85 9.55 M30.95 10.6 L30.9 10.65 30.95 10.6 M30.6 10.6 L30.8 10.75 30.9 10.65 M30.5 12.25 L30.8 12.3 Q31.25 11.8 31.85 11.6 L32.15 11.5 32.5 11.4 32.75 11.5 32.95 11.35 33.2 11.05 M30.8 10.75 L30.6 11.0 30.55 11.1 M29.7 14.0 L30.3 12.9 30.75 12.35 30.45 12.45 M29.8 12.8 L30.15 12.55 30.4 12.45 M29.7 14.05 L30.0 14.2 30.3 14.2 Q31.05 13.45 32.0 13.3 L32.25 13.45 32.5 13.25 33.05 12.1 32.75 11.5 M30.75 12.35 L30.8 12.3 M29.6 8.45 L29.45 7.65 M16.85 7.0 L16.7 6.45 Q16.5 6.25 16.05 6.65 L15.95 6.9 15.65 7.65 Q15.45 8.15 15.4 8.7 L15.5 9.0 15.55 9.45 Q15.75 9.0 16.1 8.65 L16.4 8.55 16.7 7.7 16.8 7.3 16.85 7.0 17.9 7.2 Q20.3 7.55 21.0 8.15 L21.05 8.15 Q21.9 7.8 23.55 7.55 L24.8 7.3 M9.15 17.75 L9.0 16.7 9.05 15.85 9.2 15.25 9.4 14.9 Q8.5 13.85 8.55 12.05 L8.85 10.5 Q8.5 10.05 8.55 9.7 8.5 9.25 9.1 9.05 L9.15 9.05 8.35 8.3 Q7.9 7.4 7.95 7.05 8.0 6.6 8.7 6.65 L8.9 6.75 8.55 6.05 Q8.3 5.15 8.45 4.8 8.6 4.45 9.1 4.65 8.45 3.3 8.5 1.7 8.7 0.9 9.1 0.95 L9.8 1.95 10.2 3.75 10.6 3.7 Q10.9 3.9 11.2 4.8 L11.3 5.9 Q11.8 5.45 12.1 5.75 12.4 6.0 12.45 7.0 L12.45 7.3 13.5 7.0 15.25 6.85 15.95 6.9 M19.5 8.35 L18.6 8.1 19.7 9.15 20.2 8.65 20.35 8.5 21.05 8.15 M16.4 8.55 L16.65 8.65 16.6 9.55 16.3 10.2 Q16.8 10.15 16.85 10.4 L16.65 11.3 16.1 12.0 16.4 11.9 16.85 12.3 16.8 12.65 16.9 12.6 18.2 11.8 18.25 11.75 19.15 10.9 Q19.0 10.0 19.7 9.15 M15.4 8.7 Q15.1 8.35 14.9 8.55 L14.55 9.3 14.55 9.9 15.05 11.45 15.35 10.7 15.55 9.45 M15.05 11.45 L15.05 11.55 Q15.5 10.7 16.3 10.2 M15.05 11.55 L15.05 11.9 15.05 12.05 14.95 12.8 15.0 12.75 16.1 12.0 M14.95 12.8 L14.9 12.85 14.85 12.8 14.7 12.85 14.75 13.0 14.8 13.0 15.0 12.75 M14.75 13.0 L14.75 13.05 14.75 13.1 14.8 13.0 M14.85 12.8 L14.7 12.7 14.7 12.85 M14.7 12.7 L14.65 12.65 14.45 12.45 14.2 12.1 13.9 11.5 13.85 11.35 13.35 11.45 13.2 11.6 13.15 11.8 13.15 11.85 13.25 12.45 13.35 12.6 13.5 12.6 13.85 13.0 14.05 13.35 14.2 13.7 14.4 13.8 14.75 13.9 14.75 13.2 14.75 13.1 M14.4 13.8 L14.3 13.95 14.9 13.95 14.95 13.9 15.25 13.6 Q15.6 13.35 16.0 13.2 L16.3 13.3 16.5 13.1 16.8 12.65 M16.3 13.3 L16.4 13.45 16.4 13.6 Q16.45 13.9 16.1 14.45 L15.95 14.6 16.0 14.85 15.75 15.65 16.0 15.85 16.0 16.0 16.0 16.2 15.9 16.55 Q16.4 16.2 17.25 15.9 L18.75 15.25 18.75 15.15 18.75 15.1 18.6 13.9 Q18.5 12.9 19.35 12.15 M19.15 10.9 L19.35 11.6 19.8 12.35 20.0 12.55 20.45 13.1 20.45 13.15 20.5 13.2 20.5 13.25 20.75 13.55 22.85 16.0 24.35 16.65 25.75 17.35 25.6 16.95 25.6 16.75 25.65 16.6 Q25.7 16.45 25.9 16.4 L25.6 15.55 25.7 15.3 25.55 15.15 Q25.15 14.6 25.2 14.25 L25.25 14.05 25.4 13.95 M24.8 13.2 L24.65 13.15 23.35 12.35 23.3 12.3 22.0 11.0 21.4 10.2 21.5 9.95 21.95 9.25 22.85 8.4 21.9 8.7 M21.0 14.9 L20.5 14.45 20.45 14.35 20.35 14.3 20.0 13.65 19.8 13.2 Q19.7 12.95 20.15 13.0 L20.0 12.55 M20.3 13.7 L20.25 13.35 20.15 13.0 M16.7 7.7 L18.6 8.1 M22.85 16.0 L21.9 15.45 M14.9 13.95 L14.5 14.45 14.3 14.95 14.25 15.1 14.2 15.1 14.15 15.25 14.3 15.3 14.4 15.3 15.2 14.65 15.6 14.45 15.95 14.6 M15.75 15.65 L15.6 15.6 15.2 15.8 14.45 16.4 14.35 16.55 14.25 16.65 14.1 16.85 14.05 17.0 13.9 17.35 13.85 17.55 13.8 17.55 13.75 17.65 14.0 17.7 14.1 17.7 15.0 17.45 15.7 16.85 15.9 16.55 M17.0 18.1 L16.5 18.25 16.5 18.4 16.45 18.8 16.5 18.85 18.6 19.2 M17.95 16.6 L16.35 18.05 16.5 18.25 M15.8 17.3 L15.95 17.85 16.0 17.85 Q16.15 17.85 16.3 18.0 L16.35 18.05 M15.25 17.8 L15.6 18.1 15.65 18.1 15.95 17.85 M10.65 18.45 L10.5 18.2 10.3 18.35 10.25 18.85 11.05 19.6 11.7 19.85 12.35 19.95 15.15 19.5 16.0 19.1 16.15 19.05 16.15 19.0 15.8 18.9 15.6 18.5 15.55 18.5 15.15 18.55 14.85 18.7 14.5 18.85 12.45 19.1 11.65 18.9 Q11.3 18.75 11.05 18.45 L10.9 18.25 10.65 18.0 10.55 17.95 10.5 18.2 M15.15 18.55 L15.55 18.4 15.6 18.1 M15.55 18.5 L15.55 18.4 M11.7 19.85 L11.7 21.45 12.65 21.75 14.75 21.7 15.35 21.55 15.25 20.0 15.15 19.5 M16.45 18.8 L16.45 18.85 16.5 18.85 M16.45 18.85 L16.2 19.0 16.15 19.05 16.2 19.4 M16.2 19.0 L16.15 19.0 M15.0 17.45 Q14.6 17.95 14.85 18.7 M18.75 15.25 L19.2 18.05 19.5 18.8 19.5 18.85 19.8 19.9 Q20.0 21.0 19.85 22.15 M19.5 18.85 L19.5 20.2 19.35 20.9 19.25 21.25 18.9 22.35 18.8 22.7 18.8 22.75 18.75 22.8 18.7 23.45 Q18.65 24.4 19.0 25.6 19.2 26.5 19.7 27.6 20.8 29.2 23.05 28.45 L23.35 28.35 Q24.15 28.0 24.65 27.5 L24.85 27.3 25.35 26.55 24.45 26.3 24.4 26.3 24.0 26.4 23.95 26.85 M19.35 20.9 Q19.1 21.05 19.1 21.25 L19.05 21.45 18.9 21.75 18.8 22.6 18.8 22.75 M18.8 22.6 L17.3 22.2 17.0 22.1 16.75 22.2 16.8 22.6 M16.4 20.5 L16.55 21.05 16.6 21.05 Q16.75 21.05 16.9 21.2 L17.1 21.4 17.5 21.15 18.8 20.15 M16.25 21.3 L16.3 21.3 16.2 21.3 16.25 21.3 M17.5 21.15 L17.1 21.45 17.1 21.6 17.05 22.0 17.3 22.2 M17.1 21.4 L17.1 21.45 M16.3 21.3 L16.55 21.05 M14.8 22.6 L12.55 22.6 11.65 22.4 11.6 23.05 11.4 24.05 Q11.9 24.5 12.9 24.7 L15.9 24.5 Q15.4 23.55 15.35 22.45 L14.8 22.6 M16.75 22.2 L16.45 22.15 15.35 22.45 M15.8 21.85 L16.2 21.7 16.15 21.7 16.2 21.3 15.35 21.55 M16.45 22.15 L16.4 22.1 16.2 21.7 M17.05 22.0 L17.0 22.1 M16.2 21.3 L15.85 21.0 M16.9 24.25 L16.95 24.3 17.0 24.3 17.1 24.2 16.9 24.25 16.6 24.0 M16.55 24.85 L16.95 24.7 16.9 24.7 16.95 24.3 M17.55 25.6 L17.5 25.2 17.15 25.1 17.1 25.1 16.3 25.3 16.8 25.95 16.95 26.15 18.2 27.05 18.45 27.15 19.25 27.35 19.25 26.95 19.1 26.6 18.8 25.15 18.15 25.05 17.8 25.0 17.5 25.2 M17.1 25.1 L16.95 24.7 M15.9 24.5 L16.9 24.25 M18.7 23.45 L18.7 23.55 18.65 23.8 18.8 25.15 M18.7 23.55 L17.8 24.35 17.85 24.45 18.35 24.3 M17.85 24.45 L17.85 24.6 17.85 24.95 18.15 25.05 M17.15 23.5 L17.3 24.05 17.35 24.05 17.65 24.2 17.8 24.35 M17.85 24.95 L17.8 25.0 M17.1 24.2 L17.3 24.05 M24.45 22.45 L24.45 22.5 24.4 22.6 24.45 23.05 24.6 23.2 24.8 23.25 25.1 23.2 25.2 23.15 25.4 22.75 25.45 22.7 25.4 22.35 25.35 22.3 25.0 22.05 24.95 22.05 Q24.8 22.05 24.6 22.2 L24.45 22.45 24.4 22.45 24.45 22.5 M24.4 22.45 L22.7 21.2 M24.45 23.05 L24.25 23.3 24.6 23.2 M24.45 26.3 L24.6 25.9 24.65 25.85 24.55 25.45 24.45 25.35 24.2 25.2 24.15 25.2 Q24.0 25.2 23.8 25.35 L23.7 25.55 23.65 25.6 23.6 25.75 23.65 26.2 23.7 26.25 24.0 26.4 M25.35 26.55 L29.05 26.75 30.8 26.25 30.85 26.2 31.35 25.85 31.6 25.6 31.5 25.05 31.35 24.95 31.3 24.9 31.3 24.45 31.15 24.45 31.1 24.5 31.0 24.5 30.7 24.75 30.45 25.15 Q30.0 25.65 28.85 25.85 L25.8 25.7 24.65 25.4 24.55 25.45 M24.65 25.4 L24.45 25.35 M23.65 25.6 L23.1 25.5 M24.2 25.2 L24.35 24.65 M23.7 25.55 L21.9 24.0 22.55 23.75 24.25 23.3 M32.25 13.45 Q32.55 13.65 32.55 14.0 L32.0 15.15 31.7 15.4 31.7 15.55 31.4 16.4 31.45 16.35 32.5 15.55 32.55 15.65 M30.3 14.2 L29.9 14.7 29.8 14.8 29.4 15.5 29.35 15.65 29.25 15.95 29.85 15.4 30.2 15.2 Q30.65 14.95 31.15 14.85 L31.3 14.9 31.7 15.4 M29.25 15.95 L29.3 16.05 29.4 16.75 29.35 16.95 29.0 17.65 29.2 17.65 30.2 17.35 31.15 16.7 31.2 16.65 31.4 16.4 M30.9 18.35 L31.45 18.45 31.55 18.2 31.75 18.0 31.8 18.0 31.9 17.45 M31.95 18.25 L32.0 18.25 32.15 17.85 31.95 18.25 31.8 18.0 M29.2 17.65 L29.15 17.8 29.15 18.05 28.95 18.25 Q28.75 18.45 28.5 18.45 L28.3 18.55 28.2 18.65 27.8 18.65 28.1 18.85 28.8 19.15 28.85 19.2 29.85 18.85 30.25 18.45 30.25 17.55 30.2 17.35 M27.8 18.65 L27.75 18.55 27.65 18.55 26.75 18.3 Q27.1 18.85 26.85 19.6 L27.25 19.7 29.35 20.0 30.15 19.85 30.2 18.9 30.25 18.45 M26.85 19.6 L26.55 19.45 26.05 19.4 25.85 19.8 25.45 19.9 25.45 19.95 25.6 20.0 26.55 20.45 Q28.1 21.05 29.45 20.95 L30.15 20.85 30.85 20.55 31.7 19.75 31.6 19.2 31.45 19.1 31.4 19.05 31.4 18.75 31.2 18.8 30.95 19.05 30.85 19.25 30.15 19.85 M31.7 19.75 L31.85 19.4 31.85 19.1 31.8 19.1 31.6 19.2 M31.65 20.45 L31.55 21.0 31.65 21.1 31.85 20.8 32.45 20.05 32.6 19.45 32.05 19.0 31.95 18.9 31.85 19.1 M32.0 18.25 L32.0 18.65 31.95 18.7 32.05 19.0 M31.95 18.9 L31.95 18.7 M31.45 18.45 L31.4 18.55 31.4 18.75 M32.6 19.45 L32.95 19.7 M32.15 17.85 L32.6 16.95 M27.55 14.45 L27.5 14.65 27.45 14.95 27.5 15.75 27.5 15.85 27.55 15.85 27.95 15.75 Q28.15 14.95 28.7 14.5 L28.9 14.5 M26.9 14.7 L27.25 15.15 27.4 15.5 27.5 15.75 M27.55 15.85 L27.6 16.0 27.35 16.05 27.65 16.45 27.9 17.05 27.85 16.3 27.85 16.25 27.95 15.75 M27.9 17.05 L27.9 17.15 28.2 16.4 28.25 16.35 28.5 16.0 28.65 15.85 28.7 15.8 28.85 15.8 29.2 15.9 29.25 15.95 M29.4 15.5 L29.4 14.95 M27.75 18.55 L28.0 18.5 28.0 18.45 27.9 18.45 27.9 18.2 27.7 17.8 27.65 17.65 27.5 17.4 27.45 17.35 27.3 17.2 26.45 16.55 26.05 16.35 25.9 16.4 M27.35 16.05 Q26.8 15.4 26.05 15.15 L25.7 15.3 M25.75 17.35 L25.95 17.65 26.75 18.3 M26.05 19.4 L26.1 19.35 26.1 19.25 26.0 18.95 25.65 18.7 25.6 18.7 25.25 18.85 25.1 19.1 25.05 19.25 25.1 19.7 25.15 19.75 25.45 19.9 25.45 19.95 25.4 20.35 M25.1 19.7 L25.1 19.75 25.15 19.75 M26.55 19.45 L26.1 19.25 M26.0 18.95 L26.4 18.6 M25.65 18.7 L25.8 18.15 M27.45 17.35 L27.7 17.35 27.9 17.35 27.9 17.15 M27.9 18.2 L27.85 17.55 27.85 17.45 27.8 17.45 27.7 17.8 M27.8 17.45 L27.7 17.35 M27.85 17.45 L27.9 17.35 M28.0 18.45 Q28.55 18.35 29.0 17.65 M25.4 22.35 L26.3 22.65 26.45 21.0 26.55 20.45 M25.4 22.75 L25.8 22.95 M25.35 22.3 L25.75 21.95 M25.1 23.2 L26.3 23.6 26.9 23.7 29.25 23.75 30.2 23.5 30.95 23.15 31.4 22.75 31.35 22.2 31.2 22.1 31.15 22.05 31.15 21.55 30.9 21.75 30.9 21.8 30.15 22.55 29.15 22.85 26.95 22.75 26.3 22.65 M25.0 22.05 L25.15 21.5 M25.8 25.7 Q26.25 24.7 26.3 23.6 M31.55 21.0 L31.5 21.0 31.3 21.2 31.2 21.45 31.15 21.55 M31.35 22.2 L31.55 22.1 31.7 21.7 31.75 21.65 31.75 21.6 31.75 21.25 31.7 21.25 31.65 21.1 M32.45 20.05 L32.3 20.85 32.3 21.15 32.3 23.75 32.3 23.85 32.75 23.2 M31.75 21.25 L31.85 20.8 M31.7 21.7 L31.95 21.8 31.9 21.75 31.75 21.6 M31.4 22.75 L31.7 22.4 31.9 22.0 31.95 21.8 M31.95 22.85 L31.7 22.4 M30.15 22.55 L30.15 20.85 M31.2 21.45 L30.85 21.35 M31.5 25.05 L31.7 24.95 31.85 24.75 31.85 24.55 31.9 24.5 31.9 24.4 31.9 24.1 31.85 24.1 31.7 23.85 31.65 23.85 31.45 24.05 31.35 24.3 31.3 24.4 31.3 24.45 M31.35 24.3 L31.15 24.45 M31.85 24.55 L32.1 24.65 M31.9 24.4 L32.3 23.85 M31.7 23.85 L31.8 23.3 M31.9 24.1 L32.3 23.75 M30.45 25.15 L30.3 24.2 30.2 23.5 M31.6 25.6 L31.85 25.2 31.9 25.0 31.85 24.75 M30.85 26.2 L31.35 26.8 31.55 27.05 31.7 27.15 31.85 27.2 31.9 27.25 32.1 27.4 32.15 27.4 32.3 26.0 31.85 25.2 M25.25 18.85 L23.55 17.45 M24.6 25.9 L25.0 26.1 M24.65 25.4 L24.95 25.1 M24.8 23.25 L24.75 23.7 M25.1 19.1 L24.55 19.0 M24.9 8.0 L22.85 8.4 M22.85 20.15 L25.1 19.75 M9.1 4.65 L9.4 4.95 9.8 5.45 9.9 4.15 10.2 3.75 M9.8 5.45 L10.5 7.05 10.5 7.15 10.55 8.3 10.6 8.4 10.65 8.45 10.7 8.4 10.7 8.15 Q10.75 6.95 11.25 5.9 L11.3 5.9 M8.85 10.5 L9.1 10.85 9.3 11.0 9.5 10.9 9.75 10.95 10.05 11.05 Q10.6 11.25 11.1 11.75 L11.45 11.7 11.95 11.55 11.45 10.6 11.4 10.6 11.35 10.5 11.2 10.25 11.0 10.05 10.2 9.8 10.15 9.8 9.45 9.35 9.15 9.05 M9.4 14.9 L9.4 14.85 10.5 15.6 10.6 15.7 10.65 15.75 Q10.3 15.15 10.3 14.8 L10.3 14.75 10.0 14.5 Q9.5 13.8 9.5 13.35 9.45 13.05 9.7 12.85 L9.5 12.7 Q9.0 12.0 9.0 11.55 8.95 11.2 9.3 11.0 M10.7 8.4 L10.7 8.55 10.9 8.9 11.0 9.1 11.4 10.05 11.5 9.95 12.25 8.2 12.3 8.05 12.45 7.3 M12.3 8.05 L12.45 8.0 12.5 7.9 13.1 7.8 14.6 7.7 15.65 7.65 M12.25 8.2 L12.45 8.0 M13.1 7.8 L13.45 8.05 Q13.7 8.35 13.55 9.3 L13.45 9.65 Q13.65 9.65 13.8 9.9 L13.9 9.75 14.45 9.8 14.55 9.9 M13.8 9.9 Q13.65 10.1 13.65 10.65 L13.85 11.35 M11.45 11.7 L11.5 11.85 11.5 11.9 11.6 11.9 12.2 11.6 Q12.35 10.45 13.0 9.75 L13.45 9.65 M10.7 8.55 L10.65 8.45 M11.2 10.25 L11.35 10.1 11.0 10.05 M11.4 10.05 L11.4 10.1 11.35 10.1 M11.4 10.6 L11.5 9.95 M11.5 11.85 L11.1 11.75 11.6 12.35 12.2 13.4 11.85 13.55 11.65 13.55 11.9 13.9 12.1 14.15 12.45 14.75 Q12.4 14.25 12.5 14.05 L12.55 13.45 12.25 13.55 12.1 12.3 12.1 12.25 11.8 12.0 11.6 11.9 M11.65 13.55 Q10.9 12.85 10.0 12.7 L9.7 12.85 M12.45 14.75 L12.5 14.95 12.6 15.2 12.65 15.15 13.0 15.05 13.1 15.05 13.2 15.15 13.4 15.35 13.55 15.6 13.6 15.7 13.85 16.3 13.85 16.2 13.9 15.6 13.9 15.5 13.8 15.0 13.55 14.4 13.25 14.0 13.1 13.8 12.95 13.8 Q12.65 13.8 12.5 14.05 M12.55 13.45 L12.6 13.2 Q12.75 12.45 13.15 11.85 M12.95 13.8 L12.9 13.75 Q12.75 13.1 12.9 12.85 13.05 12.6 13.35 12.6 M12.1 12.25 L12.2 11.6 M8.9 6.75 Q9.9 7.3 10.55 8.3 M14.2 15.1 L13.8 15.0 M14.2 13.7 L14.3 14.3 14.3 14.95 M12.6 15.2 L12.5 15.3 Q12.4 15.5 12.45 15.95 L12.5 16.2 12.8 16.85 Q13.25 17.5 13.8 17.55 M12.8 16.85 L12.6 16.8 12.65 16.95 12.65 17.0 12.85 17.4 Q13.05 17.6 13.25 17.6 L13.4 17.7 13.55 17.8 13.9 17.8 14.0 17.7 M14.0 16.65 L14.15 16.55 13.9 16.55 13.9 16.7 13.95 16.7 14.0 16.65 M13.9 17.35 L13.9 16.75 13.9 16.7 M13.85 16.3 L13.9 16.55 M14.15 16.55 L14.35 16.55 M14.4 15.3 L14.1 15.7 13.85 16.2 M10.3 14.75 Q10.3 14.4 10.7 14.2 L10.8 14.15 11.75 14.5 11.95 14.65 12.6 15.2 M11.65 18.9 L11.6 18.0 11.6 17.5 11.6 16.75 11.7 16.55 10.8 15.95 10.65 15.75 M11.6 17.5 L12.0 18.0 12.95 18.3 13.0 18.25 13.7 18.0 13.9 17.8 M10.0 16.65 L10.15 17.2 10.35 17.4 10.45 17.65 11.0 17.5 M9.35 16.2 L9.95 17.45 10.15 17.2 M9.0 18.75 L9.4 18.5 9.9 18.2 10.0 17.85 9.95 17.85 9.95 17.45 M10.3 18.35 L10.1 18.25 10.1 18.5 10.25 18.85 M10.1 18.25 L10.05 18.1 9.9 18.2 M10.05 18.1 L10.0 17.85 M10.45 17.65 L10.5 17.8 10.55 17.95 M10.0 21.85 L10.25 21.4 10.05 21.0 Q10.0 20.85 10.1 20.75 L10.1 20.7 10.15 20.6 10.15 20.25 10.05 19.85 9.55 19.25 9.65 19.85 9.7 20.0 9.65 22.65 10.05 23.0 10.25 22.75 10.1 22.2 M10.05 19.85 L10.25 20.15 10.35 20.0 10.2 19.45 M13.95 16.7 L14.05 17.0 M12.6 16.8 L11.7 16.55 M9.4 18.5 L9.55 19.25 M11.05 20.3 L10.65 20.45 10.7 20.5 Q10.95 20.55 11.0 20.7 L11.0 20.75 11.7 21.45 M10.7 20.5 L10.7 20.6 10.7 21.0 10.85 21.25 M10.35 20.0 L10.55 20.2 10.65 20.45 M10.1 20.75 L10.2 20.65 10.15 20.65 10.15 20.6 M10.7 21.0 L10.5 21.15 10.45 21.65 10.9 22.0 11.65 22.4 M10.5 21.15 L10.3 21.05 10.2 20.65 M10.15 20.25 L10.25 20.15 M6.3 29.95 Q6.4 29.85 6.8 29.65 6.9 29.55 7.05 29.5 L6.4 29.4 5.8 29.25 5.5 29.2 Q4.6 28.5 4.65 28.25 L4.7 28.05 Q5.0 26.95 6.15 26.55 L7.1 26.35 9.65 26.6 9.85 26.5 10.1 26.15 10.1 26.1 10.1 25.95 10.05 25.95 Q9.95 26.0 9.8 26.1 L9.65 24.85 10.1 24.05 10.05 23.9 Q10.0 23.8 10.1 23.65 L10.1 23.4 10.05 23.4 10.05 23.35 9.65 22.8 9.65 22.75 9.25 22.25 M9.65 22.65 L9.65 22.8 M10.25 22.75 L10.45 22.95 10.55 23.15 10.55 23.2 10.6 23.35 10.75 23.4 10.8 23.4 11.1 23.65 11.4 24.05 M10.25 21.4 L10.45 21.65 M10.75 24.0 L10.6 23.75 10.4 23.9 10.35 24.4 10.55 24.65 11.05 25.0 11.35 25.15 12.7 25.55 16.3 25.3 M10.6 23.35 L10.6 23.75 M10.4 23.9 L10.2 23.8 10.15 23.6 10.1 23.6 10.1 23.65 M10.15 23.6 L10.1 23.4 M10.35 24.4 L10.1 24.05 M11.05 25.0 L10.6 25.55 10.4 25.75 10.3 25.85 10.1 26.1 M10.1 25.95 L10.3 25.85 M9.85 26.5 L10.6 26.1 11.2 26.2 11.35 26.4 11.35 26.6 11.7 26.65 11.7 26.7 11.8 26.7 11.9 26.7 12.75 27.05 14.6 28.25 M10.05 23.35 L10.05 23.0 M12.5 28.4 L12.75 28.75 12.75 28.7 13.15 28.6 13.35 28.15 M12.2 29.65 L12.55 29.45 12.5 29.1 Q12.55 28.85 12.75 28.75 M13.15 28.6 L13.2 28.65 13.55 28.8 14.0 28.5 M13.55 28.8 L13.6 28.85 13.55 29.25 13.45 29.5 13.8 29.9 M11.9 26.7 L11.85 26.7 11.7 26.7 M9.65 26.6 L7.45 28.85 7.45 28.9 7.45 29.05 7.55 29.15 7.7 29.4 8.3 29.85 8.7 29.55 8.2 28.95 8.25 28.9 Q9.45 27.55 10.55 26.85 L11.1 26.65 11.35 26.6 M11.2 27.1 L11.0 27.6 11.05 27.6 11.35 27.7 11.8 27.4 M10.5 28.7 L10.65 28.4 10.6 28.45 10.3 28.3 9.95 28.5 M10.3 28.3 Q10.25 28.2 10.35 28.05 L10.65 27.8 10.45 27.6 M11.35 28.5 L11.1 28.25 11.0 28.3 10.65 28.4 M11.35 27.7 L11.3 28.0 11.1 28.25 M10.65 27.8 L10.65 27.75 11.0 27.6 M12.8 30.0 L12.9 29.65 12.85 29.7 12.55 29.45 M13.45 29.5 L13.3 29.55 12.9 29.65 M8.2 28.95 L8.25 28.95 8.35 29.0 9.05 29.05 9.2 29.05 10.8 29.5 Q11.95 29.95 12.8 30.6 L13.3 31.35 13.25 31.8 13.2 31.8 12.95 31.3 Q11.75 30.35 10.3 29.9 L9.55 29.6 8.9 29.55 8.75 29.55 8.7 29.55 M7.7 27.95 L7.45 27.7 7.35 27.75 7.0 27.85 6.85 28.15 M8.15 26.85 L7.7 27.15 7.65 27.45 7.45 27.7 M7.6 26.65 L7.35 27.05 7.4 27.05 7.7 27.15 M6.3 27.95 L6.65 27.75 6.7 27.5 7.0 27.25 6.75 27.0 M7.0 27.25 L7.0 27.2 7.35 27.05 M7.45 29.05 L6.75 29.05 Q5.95 28.95 5.2 28.55 L4.65 28.25 M7.0 27.85 L6.95 27.9 Q6.75 27.9 6.65 27.75 M3.55 37.95 L2.3 36.85 2.15 35.05 2.1 34.55 2.1 34.4 Q2.05 32.05 3.2 30.95 L3.2 30.9 4.65 30.6 5.35 30.35 5.45 30.3 5.55 30.25 5.65 30.25 5.9 30.1 M7.7 29.4 L7.05 29.5 M7.95 39.2 L5.95 38.95 M8.5 39.25 L8.85 39.25 12.6 38.95 12.7 38.95 12.8 38.95 Q14.45 38.55 15.25 37.7 L15.25 37.6 15.3 37.4 15.6 36.85 15.75 35.95 Q16.2 34.3 17.35 33.45 L17.4 33.35 17.55 32.95 17.85 32.15 17.85 32.1 18.2 31.3 M5.55 38.8 L3.9 38.2 M34.35 28.6 L33.9 28.3 M34.65 28.5 L34.4 28.15 M31.85 27.2 L31.85 27.45 32.05 27.75 32.3 27.9 M27.05 29.7 Q28.2 28.8 29.05 28.45 L29.95 28.05 30.05 28.05 30.15 28.05 30.2 28.0 30.5 27.95 30.5 27.7 30.65 27.5 31.35 27.35 32.05 27.75 M31.85 27.45 L31.7 27.15 M34.35 30.9 L33.75 31.35 33.25 31.0 33.1 31.0 32.4 31.1 31.6 31.45 Q30.1 31.85 28.85 32.9 L28.55 33.45 28.5 33.45 28.45 32.95 28.95 32.15 Q29.95 31.45 31.1 30.95 L32.75 30.55 32.95 30.55 33.7 30.4 33.75 30.4 33.85 30.45 33.75 30.35 Q32.55 28.9 31.35 28.15 L30.75 28.0 30.5 27.95 M29.95 28.05 L30.0 28.05 30.1 28.1 30.15 28.05 M30.85 29.05 L30.55 29.1 30.55 29.15 30.55 29.45 30.7 29.65 30.85 29.75 31.25 29.9 31.3 29.9 31.6 29.8 31.6 29.5 31.3 29.2 31.25 29.15 30.85 29.0 30.85 29.05 M30.55 29.1 L30.1 28.8 M30.85 29.0 L30.75 28.45 M31.4 30.2 L31.25 29.9 M31.6 29.8 L31.95 30.0 M30.7 29.65 L30.45 29.95 M33.25 31.0 L33.8 30.45 33.85 30.45 M28.4 29.55 L28.55 30.05 28.95 30.15 29.0 30.2 29.3 29.85 M28.55 30.05 L28.2 30.25 28.2 30.3 Q28.05 30.45 28.15 30.7 L28.25 30.95 28.4 31.05 28.85 31.15 28.9 31.15 29.25 30.95 29.3 30.5 29.0 30.2 M28.2 30.25 L27.7 29.9 M28.25 30.95 L27.9 31.4 M28.9 31.55 L28.85 31.15 M29.25 30.95 L29.6 31.15 M22.75 32.35 L22.3 32.2 21.95 32.2 Q20.75 32.1 20.1 31.35 L19.5 30.4 19.5 30.45 19.55 30.65 19.5 30.65 19.2 30.7 18.7 30.85 M21.2 26.75 L23.6 26.25 23.65 26.2 M19.5 30.4 L19.35 29.85 19.25 27.35 M33.55 41.25 L33.1 41.2 29.2 40.9 29.1 40.9 29.0 40.95 Q27.25 40.5 26.4 39.65 L26.4 39.6 26.45 39.5 26.35 39.35 26.05 38.7 25.85 37.75 Q25.4 36.1 24.25 35.1 L24.0 34.6 22.75 34.95 22.6 35.05 22.5 35.0 22.25 34.9 22.1 34.75 21.95 34.75 21.85 34.75 21.5 34.6 Q20.4 34.35 19.85 33.9 L19.75 33.0 19.55 33.05 19.5 33.05 19.35 33.1 19.25 33.2 18.9 33.35 18.85 33.4 18.7 33.25 17.55 32.95 M23.3 32.85 L23.65 33.75 23.65 33.8 24.0 34.6 M19.55 31.1 L19.75 33.0 M19.25 26.95 L20.4 29.05 M23.6 26.25 L23.7 26.25 M34.05 41.25 L36.2 40.9" fill="none" stroke="#000000" stroke-linecap="round" stroke-linejoin="round" stroke-opacity="0.3019608" stroke-width="0.7000000000000001"/>
    </g>
    <g id="sprite0" transform="matrix(1.0, 0.0, 0.0, 1.0, 13.6, 28.65)">
      <use height="42.65" transform="matrix(1.0, 0.0, 0.0, 1.0, -13.6, -28.65)" width="24.25" xlink:href="#shape1"/>
      <use height="3.1" transform="matrix(-0.9232, 0.212, -0.2107, -0.9098, 3.4229, -12.776)" width="2.7" xlink:href="#sprite1"/>
      <use height="3.1" transform="matrix(-0.9232, 0.212, -0.2107, -0.9098, 4.6229, -8.726)" width="2.7" xlink:href="#sprite1"/>
      <use height="3.1" transform="matrix(-0.9232, 0.212, -0.2107, -0.9098, 5.9229, -4.976)" width="2.7" xlink:href="#sprite1"/>
      <use height="3.1" transform="matrix(-0.5326, 0.1223, -0.2107, -0.9098, -4.4544, -12.7549)" width="2.7" xlink:href="#sprite1"/>
      <use height="3.1" transform="matrix(-0.5326, 0.1223, -0.2107, -0.9098, -3.8044, -9.1549)" width="2.7" xlink:href="#sprite1"/>
      <use height="3.1" transform="matrix(-0.5326, 0.1223, -0.2107, -0.9098, -3.6544, -5.6049)" width="2.7" xlink:href="#sprite1"/>
      <use height="20.2" transform="matrix(1.0, 0.0, 0.0, 1.0, -11.15, -16.4)" width="19.05" xlink:href="#shape3"/>
      <use height="3.1" transform="matrix(-0.4027, -0.5272, 0.7386, -0.5664, -3.9512, 0.8397)" width="2.7" xlink:href="#sprite1"/>
      <use height="3.1" transform="matrix(-0.4027, -0.5272, 0.7386, -0.5664, -8.5512, 0.6397)" width="2.7" xlink:href="#sprite1"/>
      <use height="3.1" transform="matrix(-0.6121, -0.8013, 0.7386, -0.5664, -0.6685, 2.3597)" width="2.7" xlink:href="#sprite1"/>
      <use height="9.65" transform="matrix(1.0, 0.0, 0.0, 1.0, -5.65, -13.95)" width="10.35" xlink:href="#shape4"/>
    </g>
    <g id="shape1" transform="matrix(1.0, 0.0, 0.0, 1.0, 13.6, 28.65)">
      <path d="M9.6 -4.55 L9.95 -4.2 9.95 -4.15 9.95 -3.95 9.6 -4.55 M4.05 -6.3 L3.95 -5.9 4.0 -6.3 4.05 -6.3 M6.15 2.05 L6.3 1.9 6.3 1.95 6.25 1.95 6.15 2.05 M8.4 0.95 L8.45 0.95 8.4 0.95 M-0.5 8.3 L-0.45 8.4 -0.5 8.35 -0.5 8.3" fill="#423f39" fill-rule="evenodd" stroke="none"/>
      <path d="M-3.6 -5.45 L-3.7 -5.45 -3.75 -5.5 -3.6 -5.45" fill="#1e404d" fill-rule="evenodd" stroke="none"/>
      <path d="M10.35 -0.5 L10.35 -0.55 10.4 -0.6 10.4 -0.55 10.35 -0.5" fill="#b1a087" fill-rule="evenodd" stroke="none"/>
      <path d="M8.0 3.35 L7.85 3.35 8.0 3.35" fill="#161616" fill-rule="evenodd" stroke="none"/>
      <path d="M2.7 7.85 L2.75 7.55 2.85 7.85 2.7 7.85" fill="#2a250f" fill-rule="evenodd" stroke="none"/>
      <path d="M3.35 10.75 L3.25 11.0 3.25 10.75 3.35 10.75" fill="#120f07" fill-rule="evenodd" stroke="none"/>
      <path d="M0.35 13.0 L0.25 13.1 0.25 13.05 0.35 13.0" fill="#935618" fill-rule="evenodd" stroke="none"/>
      <path d="M-3.7 -5.45 L-3.75 -5.45 -3.75 -5.5 -3.7 -5.45" fill="#990000" fill-rule="evenodd" stroke="none"/>
      <path d="M-10.0 2.9 L-9.9 2.85 -9.9 2.95 -10.0 2.9" fill="#99937a" fill-rule="evenodd" stroke="none"/>
      <path d="M-12.55 3.85 L-10.85 3.3 -11.35 3.75 Q-10.1 4.7 -8.5 5.0 L-8.55 5.15 -11.25 4.7 -12.6 3.95 -12.55 3.85" fill="#bfbfbf" fill-rule="evenodd" stroke="none"/>
      <path d="M-0.55 8.3 L-0.5 8.3 -0.5 8.35 -0.55 8.3" fill="#b4a469" fill-rule="evenodd" stroke="none"/>
      <path d="M-0.5 8.35 L-0.45 8.4 -0.5 8.4 -0.55 8.3 -0.5 8.35" fill="#23353c" fill-rule="evenodd" stroke="none"/>
      <path d="M-12.65 3.95 L-12.65 3.9 -12.6 3.95 -12.65 3.95" fill="#603326" fill-rule="evenodd" stroke="none"/>
      <path d="M-12.65 3.9 L-12.55 3.85 -12.6 3.95 -12.65 3.9" fill="#877e57" fill-rule="evenodd" stroke="none"/>
      <path d="M-8.55 5.15 L-8.5 5.0 -8.5 5.15 -8.55 5.15" fill="#302c39" fill-rule="evenodd" stroke="none"/>
      <path d="M-1.6 4.35 L-1.4 4.3 -1.6 4.4 -1.6 4.35" fill="#272430" fill-rule="evenodd" stroke="none"/>
      <path d="M10.2 -0.2 L10.2 -0.35 10.25 -0.4 10.35 -0.5 10.4 -0.55 10.4 -0.4 10.4 -0.35 10.45 -0.2 10.2 -0.2" fill="#1a1820" fill-rule="evenodd" stroke="none"/>
      <path d="M-1.8 4.35 L-1.6 4.35 -1.6 4.4 -1.8 4.35" fill="#1b1d24" fill-rule="evenodd" stroke="none"/>
      <path d="M-3.8 -8.55 L-1.15 -7.6 4.3 -8.75 Q5.65 -8.6 7.1 -7.4 L8.25 -6.2 8.2 -6.85 9.3 -5.1 9.45 -4.8 9.6 -4.55 9.95 -3.95 9.95 -3.8 Q9.9 -3.25 10.0 -2.65 L9.95 -1.95 10.0 -1.85 10.35 -1.0 10.35 -0.95 10.4 -0.75 10.4 -0.65 10.4 -0.6 10.35 -0.55 10.35 -0.5 10.25 -0.4 10.2 -0.35 10.2 -0.2 10.15 -0.2 9.8 0.2 8.45 0.95 8.4 0.95 7.65 1.25 7.25 1.35 7.1 1.5 7.05 1.5 6.3 1.95 6.3 1.9 6.15 2.05 5.95 2.15 5.05 2.5 4.75 2.45 4.7 2.45 3.05 -0.65 2.95 -0.6 1.25 1.95 1.15 2.05 0.85 2.4 0.85 2.45 0.65 2.65 -0.45 3.6 -0.7 3.85 -1.4 4.3 -1.6 4.35 -1.8 4.35 -1.95 4.4 -2.5 4.55 -2.8 4.65 -6.1 5.1 -8.5 5.15 -8.5 5.0 Q-10.1 4.7 -11.35 3.75 L-10.85 3.3 -10.0 2.9 -9.9 2.95 -9.9 2.85 -9.75 2.8 -9.65 2.75 -9.35 2.55 -9.15 2.45 -9.0 2.3 -8.85 2.25 -8.25 1.8 -7.95 1.55 -7.7 1.4 -6.75 0.2 -5.55 -1.65 -5.3 -1.85 -4.85 -2.6 -4.25 -3.9 -3.6 -5.45 -3.75 -5.5 -3.5 -7.05 -3.8 -8.55 M4.05 -6.3 L4.0 -6.3 3.95 -5.9 4.05 -6.3" fill="#345400" fill-rule="evenodd" stroke="none"/>
      <path d="M-1.4 4.3 L-0.7 3.85 -0.45 3.6 0.65 2.65 0.85 2.45 0.85 2.4 1.15 2.05 1.25 1.95 2.95 -0.6 3.05 -0.65 4.7 2.45 4.75 2.45 5.05 2.5 5.95 2.15 5.1 2.8 4.9 3.0 4.15 3.7 3.45 4.65 3.1 5.35 3.05 5.4 3.05 5.6 Q2.65 6.45 2.7 7.45 L2.75 7.5 2.75 7.55 2.7 7.85 2.65 7.95 2.15 8.7 2.05 8.85 1.7 9.0 1.7 9.05 0.35 9.85 Q0.25 9.85 0.2 9.95 L0.1 10.0 -0.35 10.15 -0.45 8.4 -0.5 8.3 -0.8 6.75 -0.9 6.45 -1.6 4.4 -1.4 4.3" fill="#314500" fill-rule="evenodd" stroke="none"/>
      <path d="M-13.5 8.8 L-13.55 8.55 Q-13.85 5.55 -12.65 3.95 L-12.6 3.95 -11.25 4.7 -8.55 5.15 -8.5 5.15 -6.1 5.1 -2.8 4.65 -2.5 4.55 -1.95 4.4 -1.8 4.35 -1.6 4.4 -0.9 6.45 -0.8 6.75 -0.5 8.3 -0.55 8.3 -0.5 8.4 -0.45 8.4 -0.35 10.15 -0.4 10.15 -0.65 10.2 -0.8 10.25 -1.55 10.4 -4.5 10.85 -5.6 10.95 -6.3 11.05 -7.75 11.0 -8.15 10.95 -10.95 10.35 Q-12.4 9.8 -13.5 8.8" fill="#1d2c00" fill-rule="evenodd" stroke="none"/>
      <path d="M5.95 2.15 L6.15 2.05 6.25 1.95 6.3 1.95 7.05 1.5 7.1 1.5 7.25 1.35 7.65 1.25 8.0 3.35 8.1 4.55 8.0 4.55 7.85 4.6 7.7 4.8 7.35 5.0 7.25 5.05 7.25 5.0 6.2 2.45 5.85 3.6 5.85 3.65 5.55 4.7 5.4 5.2 5.35 5.3 Q4.05 6.65 3.7 8.75 L3.6 9.95 3.35 10.75 3.25 10.75 Q3.05 9.8 3.2 9.45 L2.85 7.85 2.75 7.55 2.75 7.5 2.7 7.45 Q2.65 6.45 3.05 5.6 L3.05 5.4 3.1 5.35 3.45 4.65 4.15 3.7 4.9 3.0 5.1 2.8 5.95 2.15 M0.25 13.05 L0.1 13.05 -4.45 13.9 -4.95 13.95 -4.95 13.8 -5.35 13.45 -5.45 14.0 -5.6 14.0 -8.15 13.9 -8.25 13.3 -8.5 13.1 -8.7 13.8 -10.8 13.2 -11.0 12.5 -11.3 12.95 Q-12.25 12.45 -13.0 11.7 L-13.4 9.35 -13.5 8.8 Q-12.4 9.8 -10.95 10.35 L-8.15 10.95 -7.75 11.0 -6.3 11.05 -5.6 10.95 -4.5 10.85 -1.55 10.4 -0.8 10.25 -0.65 10.2 -0.4 10.15 0.25 13.05 M8.0 3.35 L7.85 3.35 8.0 3.35" fill="#bf7200" fill-rule="evenodd" stroke="none"/>
      <path d="M7.65 1.25 L8.4 0.95 8.65 1.2 8.45 0.95 9.8 0.2 10.15 -0.2 10.2 -0.2 10.45 -0.2 10.35 3.35 8.5 4.4 8.1 4.55 8.0 3.35 7.65 1.25 M3.25 11.0 L3.3 11.05 3.3 11.1 Q2.4 12.3 0.35 13.0 L0.25 13.05 -0.4 10.15 -0.35 10.15 0.1 10.0 0.2 9.95 Q0.25 9.85 0.35 9.85 L1.7 9.05 1.7 9.0 2.05 8.85 2.15 8.7 2.65 7.95 2.7 7.85 2.85 7.85 3.2 9.45 Q3.05 9.8 3.25 10.75 L3.25 11.0" fill="#bf9900" fill-rule="evenodd" stroke="none"/>
      <path d="M7.25 5.05 L7.05 4.95 5.55 4.7 5.85 3.65 5.9 3.65 5.85 3.6 6.2 2.45 7.25 5.0 7.25 5.05" fill="#7e4800" fill-rule="evenodd" stroke="none"/>
      <path d="M9.95 -4.2 L9.75 -7.1 Q9.4 -10.05 8.5 -11.9 L7.95 -12.95 M10.4 -0.65 L10.4 -0.75 10.35 -0.95 10.35 -1.0 10.0 -1.85 9.95 -1.95 10.0 -2.65 Q9.9 -3.25 9.95 -3.8 L9.95 -3.95 M9.95 -4.2 L9.95 -4.15 9.95 -3.95 M10.45 -0.2 L10.35 3.35 8.5 4.4 8.1 4.55 8.0 4.55 7.85 4.6 7.7 4.8 7.35 5.0 7.25 5.05 7.05 4.95 5.55 4.7 5.4 5.2 5.35 5.3 Q4.05 6.65 3.7 8.75 L3.6 9.95 3.35 10.75 3.25 11.0 3.3 11.05 3.3 11.1 Q2.4 12.3 0.35 13.0 M0.25 13.1 L0.25 13.05 0.1 13.05 -4.45 13.9 -4.95 13.95 M-5.45 14.0 L-5.6 14.0 -8.15 13.9 M-8.7 13.8 L-10.8 13.2 M-11.3 12.95 Q-12.25 12.45 -13.0 11.7 L-13.4 9.35 -13.5 8.8 -13.55 8.55 Q-13.85 5.55 -12.65 3.95 L-12.65 3.9 M-12.55 3.85 L-10.85 3.3 -10.0 2.9 -9.9 2.85 -9.75 2.8 -9.65 2.75 -9.35 2.55 -9.15 2.45 -9.0 2.3 M-8.85 2.25 L-8.25 1.8 -7.95 1.55 -7.7 1.4 -6.75 0.2 -5.55 -1.65 -5.3 -1.85 -4.85 -2.6 -4.25 -3.9 -3.6 -5.45 M-3.75 -5.45 L-3.75 -5.5 -3.5 -7.05 -3.8 -8.55 M2.75 7.55 L2.75 7.5 M-0.4 10.15 L-0.35 10.15 M5.85 3.6 L5.85 3.65 5.55 4.7 M6.2 2.45 L5.85 3.6 M0.25 13.05 L0.35 13.0" fill="none" stroke="#000000" stroke-linecap="round" stroke-linejoin="round" stroke-opacity="0.3019608" stroke-width="0.05"/>
      <path d="M6.45 1.7 L6.6 1.9 6.35 2.05 6.45 1.7" fill="#272430" fill-rule="evenodd" stroke="none"/>
      <path d="M2.5 -9.7 L2.85 -9.8 Q3.5 -9.9 4.0 -10.25 L5.05 -10.95 6.65 -12.15 Q7.7 -13.1 8.0 -12.75 L8.5 -11.9 8.75 -11.5 9.55 -9.75 9.65 -9.35 10.1 -7.65 10.5 -1.75 10.35 -1.0 9.8 0.2 Q9.1 1.25 7.7 1.5 L7.3 1.55 6.75 1.8 6.6 1.9 6.45 1.7 6.85 -0.2 6.8 -0.15 Q6.85 -1.3 6.15 -2.5 L4.1 -4.35 Q-1.9 -2.45 -3.75 -5.15 L-3.95 -5.8 -4.25 -6.5 -4.75 -7.75 -4.8 -7.85 -4.7 -8.9 -4.7 -9.0 -4.55 -8.95 -4.15 -8.9 -2.95 -8.8 -1.05 -8.9 1.1 -9.25 2.5 -9.65 2.5 -9.7" fill="#314500" fill-rule="evenodd" stroke="none"/>
      <path d="M6.6 1.9 L6.75 1.8 7.3 1.55 7.7 1.5 Q9.1 1.25 9.8 0.2 L10.35 -1.0 10.5 -1.75 10.1 -7.65 9.65 -9.35 9.55 -9.75 8.75 -11.5 8.5 -11.9 8.0 -12.75 Q7.7 -13.1 6.65 -12.15 L5.05 -10.95 4.0 -10.25 Q3.5 -9.9 2.85 -9.8 L2.5 -9.7 M-4.7 -9.0 L-4.7 -8.9 -4.8 -7.85 -4.75 -7.75 -4.25 -6.5 -3.95 -5.8 -3.75 -5.15 M6.6 1.9 L6.35 2.05" fill="none" stroke="#000000" stroke-linecap="round" stroke-linejoin="round" stroke-opacity="0.3019608" stroke-width="0.05"/>
      <path d="M7.25 -21.9 L7.25 -21.75 7.15 -21.9 7.25 -21.9" fill="#2a250f" fill-rule="evenodd" stroke="none"/>
      <path d="M7.5 -23.7 L8.0 -24.9 7.7 -24.0 7.5 -23.7" fill="#999999" fill-rule="evenodd" stroke="none"/>
      <path d="M7.25 -21.9 L7.15 -21.9 7.25 -21.75 7.25 -21.7 7.05 -18.65 Q7.0 -17.4 7.45 -12.7 L7.5 -12.45 Q7.6 -10.6 6.6 -9.2 L5.4 -8.0 4.1 -7.25 4.05 -7.25 3.3 -6.9 2.95 -6.8 1.55 -6.35 1.4 -6.35 Q-0.2 -10.35 1.7 -12.9 -1.15 -13.45 -1.3 -14.4 -1.85 -17.95 -1.35 -19.6 L-3.6 -20.35 -3.55 -20.55 0.7 -20.45 2.45 -20.8 3.3 -21.1 Q4.35 -21.5 5.3 -22.05 L6.25 -22.65 6.75 -23.0 7.25 -21.9" fill="#314500" fill-rule="evenodd" stroke="none"/>
      <path d="M1.4 -6.35 L0.55 -6.35 0.55 -6.3 0.0 -6.15 -1.2 -6.05 -3.0 -6.2 -4.45 -6.65 -4.7 -6.75 Q-4.4 -10.25 -5.3 -15.15 -4.65 -16.6 -5.5 -17.05 L-3.6 -20.35 -1.35 -19.6 Q-1.85 -17.95 -1.3 -14.4 -1.15 -13.45 1.7 -12.9 -0.2 -10.35 1.4 -6.35" fill="#1d2c00" fill-rule="evenodd" stroke="none"/>
      <path d="M7.25 -21.75 L7.25 -21.9 6.75 -23.0 7.5 -23.7 M7.25 -21.75 L7.25 -21.7 7.05 -18.65 Q7.0 -17.4 7.45 -12.7 L7.5 -12.45 Q7.6 -10.6 6.6 -9.2 L5.4 -8.0 4.1 -7.25 M4.05 -7.25 L3.3 -6.9 2.95 -6.8 1.55 -6.35 M-4.7 -6.75 Q-4.4 -10.25 -5.3 -15.15 -4.65 -16.6 -5.5 -17.05" fill="none" stroke="#000000" stroke-linecap="round" stroke-linejoin="round" stroke-opacity="0.3019608" stroke-width="0.05"/>
      <path d="M-4.7 -3.5 L-4.6 -3.1 -4.7 -3.45 -5.0 -3.1 -4.7 -3.5 -4.7 -3.45 -4.7 -3.5" fill="#272430" fill-rule="evenodd" stroke="none"/>
      <path d="M7.0 -10.7 L7.15 -11.0 7.5 -12.5 7.45 -12.95 7.3 -13.4 7.35 -14.6 8.4 -14.15 9.35 -13.25 9.65 -12.7 9.85 -12.05 10.05 -11.65 10.6 -9.2 10.45 -5.75 Q10.3 -4.85 9.15 -2.5 7.45 -5.5 3.8 -5.15 L2.35 -4.85 Q-0.8 -4.15 -3.7 -4.95 L-3.9 -5.0 Q-3.85 -4.6 -4.7 -3.5 -6.5 -9.8 -5.6 -12.95 L-4.9 -14.05 -4.75 -12.2 -4.6 -9.05 -3.8 -7.95 Q-3.0 -7.0 -2.2 -6.7 L-1.2 -6.2 Q0.55 -6.3 2.15 -6.95 L4.0 -7.9 4.35 -8.15 Q6.45 -9.5 7.0 -10.7" fill="#314500" fill-rule="evenodd" stroke="none"/>
      <path d="M7.0 -10.7 L7.15 -11.0 7.5 -12.5 7.45 -12.95 7.3 -13.4 7.35 -14.6 8.4 -14.15 9.35 -13.25 M9.65 -12.7 L9.85 -12.05 10.05 -11.65 10.6 -9.2 10.45 -5.75 Q10.3 -4.85 9.15 -2.5 M-3.7 -4.95 L-3.9 -5.0 Q-3.85 -4.6 -4.7 -3.5 L-4.6 -3.1 M-4.7 -3.45 L-5.0 -3.1 -4.7 -3.5 -4.7 -3.45 M-5.6 -12.95 L-4.9 -14.05 -4.75 -12.2 M2.15 -6.95 L4.0 -7.9" fill="none" stroke="#000000" stroke-linecap="round" stroke-linejoin="round" stroke-opacity="0.3019608" stroke-width="0.05"/>
      <path d="M4.0 -7.9 L4.35 -8.15 Q6.45 -9.5 7.0 -10.7 Z" fill="none" stroke="#000000" stroke-linecap="round" stroke-linejoin="round" stroke-opacity="0.0" stroke-width="0.05"/>
      <path d="M-2.3 -14.7 L-2.45 -14.7 -2.6 -15.25 -2.3 -14.7 -2.2 -14.7 -2.3 -14.7" fill="#161616" fill-rule="evenodd" stroke="none"/>
      <path d="M-3.3 -14.75 L-3.3 -14.8 -3.25 -14.8 -3.25 -14.75 -3.3 -14.75" fill="#2d2a36" fill-rule="evenodd" stroke="none"/>
      <path d="M-5.7 -16.65 Q-8.15 -17.75 -8.35 -21.05 -8.55 -24.85 -5.15 -27.0 -4.0 -27.8 -2.75 -28.2 L-0.6 -28.6 2.8 -28.45 Q5.8 -28.3 6.75 -27.65 9.55 -25.8 7.85 -23.0 L7.8 -23.0 7.7 -22.75 7.65 -22.75 6.9 -21.5 4.7 -18.35 Q5.55 -19.1 6.65 -19.4 L7.5 -19.3 7.7 -18.45 7.7 -18.2 7.45 -16.05 7.4 -15.65 7.0 -14.85 6.75 -14.55 5.15 -13.4 3.6 -12.7 3.15 -12.55 Q-0.6 -12.1 -0.7 -14.65 L-0.7 -14.5 -0.75 -14.55 -0.75 -15.0 -1.0 -15.8 0.6 -16.2 0.55 -16.2 1.0 -16.55 2.45 -17.1 0.25 -17.1 Q-0.9 -17.3 -0.8 -18.85 L-0.25 -19.5 Q0.8 -19.8 1.8 -20.4 4.95 -22.15 6.85 -25.3 L6.8 -25.75 Q6.35 -26.95 4.9 -27.2 L3.75 -27.45 Q1.2 -28.0 -1.3 -27.4 -4.75 -27.25 -6.35 -24.55 L-6.5 -24.35 -6.65 -23.95 -6.85 -23.5 Q-7.1 -22.55 -6.65 -21.65 -5.5 -21.55 -4.9 -20.75 L-4.2 -19.85 -3.8 -18.75 Q-3.65 -18.0 -3.65 -16.45 -3.2 -16.7 -2.8 -16.9 L-2.75 -16.15 -2.75 -15.8 -2.6 -15.25 -2.45 -14.7 -2.3 -14.7 -1.75 -14.5 -1.5 -14.4 -1.3 -14.3 -0.9 -14.35 -1.95 -13.65 -2.0 -13.65 -2.05 -13.7 -2.05 -13.6 -3.3 -13.85 Q-4.25 -14.55 -4.25 -15.8 L-3.65 -16.4 -3.75 -16.4 -5.7 -16.65 M-6.65 -23.95 L-6.85 -23.6 -6.85 -23.5 -6.85 -23.6 -6.65 -23.95 M-4.35 -19.6 L-4.4 -19.55 -4.35 -19.6 M-3.3 -14.75 L-3.25 -14.75 -3.25 -14.8 -3.3 -14.8 -3.3 -14.75" fill="#314500" fill-rule="evenodd" stroke="none"/>
      <path d="M-5.7 -16.65 L-3.75 -16.4 -3.65 -16.4 -4.25 -15.8 Q-4.25 -14.55 -3.3 -13.85 L-2.05 -13.6 -2.05 -13.7 -2.0 -13.65 -1.95 -13.65 -0.9 -14.35 -0.75 -14.55 -0.7 -14.5 -0.7 -14.65 Q-0.6 -12.1 3.15 -12.55 L0.5 -12.05 Q-0.8 -11.9 -1.85 -12.05 -3.55 -12.3 -4.7 -13.25 -6.05 -14.3 -6.1 -15.1 L-5.9 -16.05 -5.7 -16.65 M3.75 -27.45 L4.9 -27.2 Q6.35 -26.95 6.8 -25.75 L6.85 -25.3 Q4.95 -22.15 1.8 -20.4 0.8 -19.8 -0.25 -19.5 L-0.8 -18.85 Q-0.9 -17.3 0.25 -17.1 L2.45 -17.1 1.0 -16.55 0.55 -16.2 0.6 -16.2 -1.0 -15.8 -1.1 -16.15 -1.75 -17.5 Q-2.1 -18.15 -1.95 -18.75 L-1.75 -19.2 -1.3 -19.8 -1.2 -19.85 -0.15 -20.25 0.8 -20.7 2.2 -21.45 Q4.2 -22.6 5.7 -25.5 L5.55 -25.75 Q4.95 -26.8 3.75 -27.45 M7.5 -19.3 L6.65 -19.4 Q5.55 -19.1 4.7 -18.35 L6.9 -21.5 7.65 -22.75 7.45 -21.35 7.4 -20.0 7.5 -19.3 M0.55 -16.2 L-1.1 -16.15 0.55 -16.2 M-2.05 -13.6 L-1.95 -13.65 -2.05 -13.6" fill="#1d2c00" fill-rule="evenodd" stroke="none"/>
      <path d="M-6.65 -23.95 L-6.5 -24.35 -6.35 -24.55 -6.65 -23.95" fill="#000000" fill-rule="evenodd" stroke="none"/>
      <path d="M-2.8 -16.9 Q-3.2 -16.7 -3.65 -16.45 -3.65 -18.0 -3.8 -18.75 L-4.2 -19.85 -4.9 -20.75 Q-5.5 -21.55 -6.65 -21.65 -7.1 -22.55 -6.85 -23.5 L-6.6 -22.7 Q-6.3 -21.95 -5.95 -21.95 L-5.45 -21.75 Q-3.85 -21.75 -3.25 -20.45 L-2.95 -19.5 -2.85 -19.0 -2.8 -17.55 -2.8 -16.9 M-4.35 -19.6 L-4.4 -19.55 -4.35 -19.6" fill="#436100" fill-rule="evenodd" stroke="none"/>
      <path d="M-0.9 -14.35 L-1.3 -14.3 -1.5 -14.4 -1.75 -14.5 -2.3 -14.7 -2.2 -14.7 -2.3 -14.7 -2.6 -15.25 -2.75 -15.8 -2.75 -16.15 -2.8 -16.9 -2.8 -17.55 -2.85 -19.0 -2.95 -19.5 -3.25 -20.45 Q-3.85 -21.75 -5.45 -21.75 L-5.95 -21.95 Q-6.3 -21.95 -6.6 -22.7 L-6.85 -23.5 -6.65 -23.95 -6.35 -24.55 Q-4.75 -27.25 -1.3 -27.4 1.2 -28.0 3.75 -27.45 4.95 -26.8 5.55 -25.75 L5.7 -25.5 Q4.2 -22.6 2.2 -21.45 L0.8 -20.7 -0.15 -20.25 -1.2 -19.85 -1.3 -19.8 -1.75 -19.2 -1.95 -18.75 Q-2.1 -18.15 -1.75 -17.5 L-1.1 -16.15 -1.0 -15.8 -0.75 -15.0 -0.75 -14.55 -0.9 -14.35" fill="#2a1809" fill-rule="evenodd" stroke="none"/>
      <path d="M7.85 -23.0 Q9.55 -25.8 6.75 -27.65 5.8 -28.3 2.8 -28.45 L-0.6 -28.6 -2.75 -28.2 Q-4.0 -27.8 -5.15 -27.0 -8.55 -24.85 -8.35 -21.05 -8.15 -17.75 -5.7 -16.65 L-3.75 -16.4 -3.65 -16.4 -4.25 -15.8 Q-4.25 -14.55 -3.3 -13.85 L-2.05 -13.6 M-1.95 -13.65 L-0.9 -14.35 -1.3 -14.3 -1.5 -14.4 -1.75 -14.5 -2.3 -14.7 -2.6 -15.25 -2.75 -15.8 -2.75 -16.15 -2.8 -16.9 -2.8 -17.55 -2.85 -19.0 -2.95 -19.5 -3.25 -20.45 Q-3.85 -21.75 -5.45 -21.75 L-5.95 -21.95 Q-6.3 -21.95 -6.6 -22.7 L-6.85 -23.5 -6.65 -23.95 -6.35 -24.55 Q-4.75 -27.25 -1.3 -27.4 1.2 -28.0 3.75 -27.45 L4.9 -27.2 M-6.65 -21.65 Q-7.1 -22.55 -6.85 -23.5 L-6.85 -23.6 -6.65 -23.95 -6.5 -24.35 -6.35 -24.55 M0.55 -16.2 L0.6 -16.2 M-1.0 -15.8 L-0.75 -15.0 -0.75 -14.55 -0.9 -14.35 M6.75 -14.55 L7.0 -14.85 7.4 -15.65 7.45 -16.05 7.7 -18.2 7.7 -18.45 7.5 -19.3 7.4 -20.0 7.45 -21.35 7.65 -22.75 7.7 -22.75 7.8 -23.0 M4.7 -18.35 L6.9 -21.5 7.65 -22.75 M7.85 -23.0 L7.7 -22.75 M3.75 -27.45 Q4.95 -26.8 5.55 -25.75 L5.7 -25.5 Q4.2 -22.6 2.2 -21.45 L0.8 -20.7 -0.15 -20.25 -1.2 -19.85 -1.3 -19.8 -1.75 -19.2 -1.95 -18.75 Q-2.1 -18.15 -1.75 -17.5 L-1.1 -16.15 0.55 -16.2 M-1.85 -12.05 Q-3.55 -12.3 -4.7 -13.25 -6.05 -14.3 -6.1 -15.1 L-5.9 -16.05 -5.7 -16.65 M-1.1 -16.15 L-1.0 -15.8 M-1.95 -13.65 L-2.05 -13.6" fill="none" stroke="#000000" stroke-linecap="round" stroke-linejoin="round" stroke-opacity="0.3019608" stroke-width="0.05"/>
      <path d="M7.3 -20.4 L7.95 -21.95 Q8.05 -22.35 7.65 -22.25 L7.6 -22.25 7.65 -22.3 8.2 -23.3 8.4 -23.35 Q9.5 -22.5 9.5 -21.3 L9.25 -16.2 9.0 -15.1 Q8.6 -13.1 9.0 -11.05 L9.05 -11.45 Q9.0 -12.55 9.25 -12.5 L9.6 -12.25 10.15 -10.95 10.3 -10.5 10.35 -10.4 Q10.75 -8.95 10.45 -6.95 L10.05 -6.2 9.4 -5.2 8.35 -4.5 Q6.95 -4.5 6.3 -7.05 5.85 -8.7 5.85 -10.35 L5.95 -11.9 6.1 -13.15 6.3 -14.45 6.1 -16.5 5.8 -17.45 5.65 -18.3 Q5.65 -18.85 5.95 -19.2 L6.75 -19.75 7.15 -20.2 7.3 -20.4" fill="#bf9900" fill-rule="evenodd" stroke="none"/>
      <path d="M7.65 -22.25 Q8.05 -22.35 7.95 -21.95 L7.3 -20.4 7.65 -22.25" fill="#352618" fill-rule="evenodd" stroke="none"/>
      <path d="M5.95 -19.2 Q5.65 -18.85 5.65 -18.3 L5.8 -17.45 6.1 -16.5 6.3 -14.45 6.1 -13.15 5.95 -11.9 5.85 -10.35 Q5.85 -8.7 6.3 -7.05 6.95 -4.5 8.35 -4.5 L9.4 -5.2 10.05 -6.2 10.45 -6.95 9.85 -4.45 Q8.7 -2.35 5.95 -2.95 4.7 -3.25 3.95 -3.95 1.75 -6.1 1.45 -8.95 1.2 -11.8 0.55 -13.0 -0.1 -14.2 0.5 -15.2 1.1 -16.25 3.0 -17.2 L5.95 -19.2 M9.6 -12.25 L9.25 -12.5 Q9.0 -12.55 9.05 -11.45 L9.0 -11.05 Q8.6 -13.1 9.0 -15.1 8.95 -14.0 9.6 -12.25" fill="#9f7200" fill-rule="evenodd" stroke="none"/>
      <path d="M7.3 -20.4 L7.95 -21.95 Q8.05 -22.35 7.65 -22.25 M7.15 -20.2 L6.75 -19.75 M10.45 -6.95 Q10.75 -8.95 10.35 -10.4 L10.3 -10.5 10.15 -10.95 9.6 -12.25 M9.0 -11.05 Q8.6 -13.1 9.0 -15.1 L9.25 -16.2 9.5 -21.3 Q9.5 -22.5 8.4 -23.35 L8.2 -23.3 M7.6 -22.25 L7.65 -22.25 M10.45 -6.95 L9.85 -4.45 Q8.7 -2.35 5.95 -2.95 4.7 -3.25 3.95 -3.95 1.75 -6.1 1.45 -8.95 1.2 -11.8 0.55 -13.0 -0.1 -14.2 0.5 -15.2 1.1 -16.25 3.0 -17.2 L5.95 -19.2 M9.0 -15.1 Q8.95 -14.0 9.6 -12.25" fill="none" stroke="#000000" stroke-linecap="round" stroke-linejoin="round" stroke-opacity="0.3019608" stroke-width="0.05"/>
      <path d="M-5.0 -3.15 L-5.55 -7.35 Q-5.7 -10.05 -5.95 -11.1 L-6.7 -13.35 -7.2 -15.1 -7.2 -16.15 -7.05 -17.0 -6.85 -17.55 -5.45 -16.7 -5.3 -16.65 Q-4.6 -15.45 -4.3 -12.4 L-4.1 -6.7 Q-4.1 -4.4 -5.0 -3.15" fill="#9f7200" fill-rule="evenodd" stroke="none"/>
      <path d="M-5.0 -3.15 Q-4.1 -4.4 -4.1 -6.7 L-4.3 -12.4 Q-4.6 -15.45 -5.3 -16.65 L-4.2 -16.35 -3.6 -16.4 -3.9 -15.4 -3.7 -13.75 Q-2.4 -5.6 -4.05 -3.95 L-4.3 -3.65 -5.0 -3.15" fill="#bf9900" fill-rule="evenodd" stroke="none"/>
      <path d="M-5.3 -16.65 L-5.45 -16.7 -6.85 -17.55 -7.05 -17.0 -7.2 -16.15 -7.2 -15.1 -6.7 -13.35 -5.95 -11.1 Q-5.7 -10.05 -5.55 -7.35 L-5.0 -3.15 M-5.3 -16.65 L-4.2 -16.35 -3.6 -16.4 -3.9 -15.4 -3.7 -13.75 Q-2.4 -5.6 -4.05 -3.95 L-4.3 -3.65 -5.0 -3.15" fill="none" stroke="#000000" stroke-linecap="round" stroke-linejoin="round" stroke-opacity="0.3019608" stroke-width="0.05"/>
    </g>
    <g id="sprite1" transform="matrix(1.0, 0.0, 0.0, 1.0, 1.35, 1.55)">
      <use height="3.1" transform="matrix(1.0, 0.0, 0.0, 1.0, -1.35, -1.55)" width="2.7" xlink:href="#shape2"/>
    </g>
    <g id="shape2" transform="matrix(1.0, 0.0, 0.0, 1.0, 1.35, 1.55)">
      <path d="M-0.4 -0.65 L-0.4 -0.7 0.05 -0.9 Q0.3 -0.9 0.5 -0.7 L0.7 -0.15 0.7 -0.1 0.55 0.45 0.5 0.45 0.1 0.7 0.05 0.7 -0.4 0.45 -0.55 0.1 -0.6 -0.1 -0.4 -0.65" fill="#1c1200" fill-rule="evenodd" stroke="none"/>
      <path d="M-0.75 -1.0 L-0.4 -0.65 -0.4 -0.7 0.05 -0.9 0.05 -1.45 M0.05 -0.9 Q0.3 -0.9 0.5 -0.7 L0.7 -0.15 1.25 -0.25 M0.7 -0.15 L0.7 -0.1 0.55 0.45 0.95 0.95 M0.55 0.45 L0.5 0.45 0.1 0.7 0.15 1.45 M0.1 0.7 L0.05 0.7 -0.4 0.45 -0.55 0.1 -1.25 0.2 M-0.55 0.1 L-0.6 -0.1 -0.4 -0.65" fill="none" stroke="#000000" stroke-linecap="round" stroke-linejoin="round" stroke-opacity="0.3019608" stroke-width="0.25"/>
    </g>
    <g id="shape3" transform="matrix(1.0, 0.0, 0.0, 1.0, 11.15, 16.4)">
      <path d="M5.2 -13.15 L1.35 -13.5 4.05 -16.4 5.2 -13.15" fill="url(#gradient0)" fill-rule="evenodd" stroke="none"/>
      <path d="M5.2 -13.15 L1.35 -13.5 4.05 -16.4" fill="none" stroke="#000000" stroke-linecap="round" stroke-linejoin="round" stroke-opacity="0.3019608" stroke-width="0.05"/>
      <path d="M5.55 -11.95 L6.65 -8.65 2.75 -9.35 5.55 -11.95" fill="url(#gradient1)" fill-rule="evenodd" stroke="none"/>
      <path d="M6.65 -8.65 L2.75 -9.35 5.55 -11.95" fill="none" stroke="#000000" stroke-linecap="round" stroke-linejoin="round" stroke-opacity="0.3019608" stroke-width="0.05"/>
      <path d="M7.9 -5.35 L4.1 -5.7 6.8 -8.6 7.9 -5.35" fill="url(#gradient2)" fill-rule="evenodd" stroke="none"/>
      <path d="M7.9 -5.35 L4.1 -5.7 6.8 -8.6" fill="none" stroke="#000000" stroke-linecap="round" stroke-linejoin="round" stroke-opacity="0.3019608" stroke-width="0.05"/>
      <path d="M-6.75 -15.85 L-6.85 -12.45 -5.5 -13.65 -6.75 -15.85" fill="url(#gradient3)" fill-rule="evenodd" stroke="none"/>
      <path d="M-6.85 -12.45 L-5.5 -13.65 -6.75 -15.85" fill="none" stroke="#000000" stroke-linecap="round" stroke-linejoin="round" stroke-opacity="0.3019608" stroke-width="0.05"/>
      <path d="M-5.35 -8.65 L-4.6 -10.2 -6.2 -12.0 -5.35 -8.65" fill="url(#gradient4)" fill-rule="evenodd" stroke="none"/>
      <path d="M-5.35 -8.65 L-4.6 -10.2 -6.2 -12.0" fill="none" stroke="#000000" stroke-linecap="round" stroke-linejoin="round" stroke-opacity="0.3019608" stroke-width="0.05"/>
      <path d="M-6.15 -8.1 L-5.3 -4.75 -4.55 -6.3 -6.15 -8.1" fill="url(#gradient5)" fill-rule="evenodd" stroke="none"/>
      <path d="M-5.3 -4.75 L-4.55 -6.3 -6.15 -8.1" fill="none" stroke="#000000" stroke-linecap="round" stroke-linejoin="round" stroke-opacity="0.3019608" stroke-width="0.05"/>
      <path d="M-2.5 -2.6 L-2.4 -2.6 -2.3 -2.6 -2.35 -2.6 -2.5 -2.6" fill="#195763" fill-rule="evenodd" stroke="none"/>
      <path d="M0.1 3.7 L0.05 3.8 0.0 3.8 0.1 3.7" fill="#2d98ae" fill-rule="evenodd" stroke="none"/>
      <path d="M1.3 -0.95 L2.85 -0.1 Q0.6 1.8 1.65 1.5 L0.1 3.7 Q0.25 2.9 -0.6 2.3 -1.85 1.55 -3.3 1.1 L-5.35 0.8 -5.55 0.8 -5.05 -0.05 -3.7 -1.5 -2.8 -2.35 -2.35 -2.6 -2.3 -2.6 -1.2 -2.25 Q-0.1 -1.9 1.3 -0.95 M-11.15 0.3 L-11.1 0.05 Q-10.85 -1.4 -9.45 -2.1 L-8.35 -2.45 -5.1 -2.45 -7.55 0.7 -7.55 0.75 -7.5 1.0 -8.4 1.05 -10.4 0.65 -11.15 0.3" fill="#345400" fill-rule="evenodd" stroke="none"/>
      <path d="M-7.2 1.45 L-8.85 1.55 -9.6 1.4 -9.95 1.4 Q-11.15 0.65 -11.15 0.3 L-10.4 0.65 -8.4 1.05 -7.5 1.0 -7.2 1.45 M-2.95 -2.65 L-2.55 -2.65 -2.5 -2.6 -2.35 -2.6 -2.8 -2.35 -3.7 -1.5 -5.05 -0.05 -5.55 0.8 -6.45 0.75 -6.55 0.75 -6.55 0.7 Q-5.25 -1.25 -3.95 -2.3 L-3.25 -2.6 -2.95 -2.65" fill="#253f00" fill-rule="evenodd" stroke="none"/>
      <path d="M-4.85 1.45 L-5.7 1.45 -5.85 1.45 -5.9 1.45 -6.6 0.8 -6.55 0.75 -6.45 0.75 -5.55 0.8 -5.5 0.95 -4.85 1.45" fill="#162600" fill-rule="evenodd" stroke="none"/>
      <path d="M0.0 3.8 L-0.4 3.2 Q-2.05 2.05 -3.85 1.7 L-4.85 1.45 -5.5 0.95 -5.55 0.8 -5.35 0.8 -3.3 1.1 Q-1.85 1.55 -0.6 2.3 0.25 2.9 0.1 3.7 L0.0 3.8" fill="#1e3500" fill-rule="evenodd" stroke="none"/>
      <path d="M-5.1 -2.45 L-4.0 -3.25 -3.2 -3.2 -3.0 -2.95 -2.95 -2.65 -3.25 -2.6 -3.95 -2.3 Q-5.25 -1.25 -6.55 0.7 L-6.6 0.75 -7.1 0.75 -7.55 0.75 -7.55 0.7 -5.1 -2.45" fill="#bf9900" fill-rule="evenodd" stroke="none"/>
      <path d="M-5.9 1.45 L-6.4 1.9 -7.2 1.45 -7.5 1.0 -7.55 0.75 -7.1 0.75 -6.6 0.75 -6.65 0.8 -6.6 0.8 -5.9 1.45" fill="#7e5c18" fill-rule="evenodd" stroke="none"/>
      <path d="M0.05 3.8 L0.0 3.8 -0.4 3.2 Q-2.05 2.05 -3.85 1.7 L-4.85 1.45 -5.7 1.45 -5.85 1.45 -5.9 1.45 -6.4 1.9 -7.2 1.45 -8.85 1.55 -9.6 1.4 -9.95 1.4 Q-11.15 0.65 -11.15 0.3 L-11.1 0.05 Q-10.85 -1.4 -9.45 -2.1 L-8.35 -2.45 -5.1 -2.45 -4.0 -3.25 -3.2 -3.2 -3.0 -2.95 -2.95 -2.65 -2.55 -2.65 -2.5 -2.6 -2.4 -2.6 -2.3 -2.6 -1.2 -2.25 Q-0.1 -1.9 1.3 -0.95 M-6.55 0.7 Q-5.25 -1.25 -3.95 -2.3 L-3.25 -2.6 -2.95 -2.65 M-2.35 -2.6 L-2.5 -2.6 M-2.3 -2.6 L-2.35 -2.6 M-6.55 0.7 L-6.6 0.75 -6.65 0.8 -6.55 0.75 M-7.5 1.0 L-7.2 1.45 M-6.6 0.8 L-6.65 0.8 M-7.55 0.75 L-7.5 1.0 M-6.6 0.8 L-5.9 1.45 M-5.1 -2.45 L-7.55 0.7" fill="none" stroke="#000000" stroke-linecap="round" stroke-linejoin="round" stroke-opacity="0.3019608" stroke-width="0.05"/>
      <path d="M-7.55 0.7 L-7.55 0.75" fill="none" stroke="#0000bf" stroke-linecap="round" stroke-linejoin="round" stroke-width="0.05"/>
      <path d="M-5.55 0.8 L-5.35 0.8 -3.3 1.1 Q-1.85 1.55 -0.6 2.3 0.25 2.9 0.1 3.7 M-6.55 0.75 L-6.45 0.75 -5.55 0.8 M-7.5 1.0 L-8.4 1.05 -10.4 0.65 -11.15 0.3" fill="none" stroke="#000000" stroke-linecap="round" stroke-linejoin="round" stroke-opacity="0.101960786" stroke-width="0.05"/>
    </g>
    <linearGradient gradientTransform="matrix(-0.0014, 4.0E-4, -8.0E-4, -0.003, 3.0, -14.35)" gradientUnits="userSpaceOnUse" id="gradient0" spreadMethod="pad" x1="-819.2" x2="819.2">
      <stop offset="0.0" stop-color="#000000" stop-opacity="0.0"/>
      <stop offset="1.0" stop-color="#000000" stop-opacity="0.3019608"/>
    </linearGradient>
    <linearGradient gradientTransform="matrix(-0.0014, 2.0E-4, -8.0E-4, -0.003, 4.45, -10.05)" gradientUnits="userSpaceOnUse" id="gradient1" spreadMethod="pad" x1="-819.2" x2="819.2">
      <stop offset="0.0" stop-color="#000000" stop-opacity="0.0"/>
      <stop offset="1.0" stop-color="#000000" stop-opacity="0.3019608"/>
    </linearGradient>
    <linearGradient gradientTransform="matrix(-0.0014, 4.0E-4, -8.0E-4, -0.003, 5.75, -6.55)" gradientUnits="userSpaceOnUse" id="gradient2" spreadMethod="pad" x1="-819.2" x2="819.2">
      <stop offset="0.0" stop-color="#000000" stop-opacity="0.0"/>
      <stop offset="1.0" stop-color="#000000" stop-opacity="0.3019608"/>
    </linearGradient>
    <linearGradient gradientTransform="matrix(5.0E-4, 0.0, 0.0, -0.0031, -6.15, -14.05)" gradientUnits="userSpaceOnUse" id="gradient3" spreadMethod="pad" x1="-819.2" x2="819.2">
      <stop offset="0.0" stop-color="#000000" stop-opacity="0.0"/>
      <stop offset="1.0" stop-color="#000000" stop-opacity="0.3019608"/>
    </linearGradient>
    <linearGradient gradientTransform="matrix(4.0E-4, -1.0E-4, -8.0E-4, -0.003, -5.25, -10.45)" gradientUnits="userSpaceOnUse" id="gradient4" spreadMethod="pad" x1="-819.2" x2="819.2">
      <stop offset="0.0" stop-color="#000000" stop-opacity="0.0"/>
      <stop offset="1.0" stop-color="#000000" stop-opacity="0.3019608"/>
    </linearGradient>
    <linearGradient gradientTransform="matrix(4.0E-4, -1.0E-4, -8.0E-4, -0.003, -5.2, -6.55)" gradientUnits="userSpaceOnUse" id="gradient5" spreadMethod="pad" x1="-819.2" x2="819.2">
      <stop offset="0.0" stop-color="#000000" stop-opacity="0.0"/>
      <stop offset="1.0" stop-color="#000000" stop-opacity="0.3019608"/>
    </linearGradient>
    <g id="shape4" transform="matrix(1.0, 0.0, 0.0, 1.0, 5.65, 13.95)">
      <path d="M1.9 -12.95 L2.15 -13.3 2.05 -13.75 1.7 -13.95 1.35 -13.9 Q-0.75 -12.55 -2.55 -12.55 -4.05 -12.5 -4.6 -13.45 L-4.95 -13.75 -5.3 -13.7 -5.6 -13.35 -5.6 -12.95 Q-4.8 -11.35 -2.6 -11.35 -0.5 -11.35 1.9 -12.95" fill="#bf9600" fill-rule="evenodd" stroke="none"/>
      <path d="M1.9 -12.95 Q-0.5 -11.35 -2.6 -11.35 -4.8 -11.35 -5.6 -12.95 L-5.6 -13.35 -5.3 -13.7 -4.95 -13.75 -4.6 -13.45 Q-4.05 -12.5 -2.55 -12.55 -0.75 -12.55 1.35 -13.9 L1.7 -13.95 2.05 -13.75 2.15 -13.3 1.9 -12.95 Z" fill="none" stroke="#000000" stroke-linecap="round" stroke-linejoin="round" stroke-opacity="0.3019608" stroke-width="0.05"/>
      <path d="M3.05 -9.25 L3.35 -9.55 3.25 -10.0 2.85 -10.25 2.45 -10.2 Q0.1 -9.05 -1.95 -9.15 -3.65 -9.25 -4.2 -10.2 L-4.6 -10.5 -5.0 -10.5 -5.35 -10.15 -5.35 -9.75 Q-4.5 -8.15 -2.0 -8.0 0.35 -7.85 3.05 -9.25" fill="#bf9600" fill-rule="evenodd" stroke="none"/>
      <path d="M3.05 -9.25 Q0.35 -7.85 -2.0 -8.0 -4.5 -8.15 -5.35 -9.75 L-5.35 -10.15 -5.0 -10.5 -4.6 -10.5 -4.2 -10.2 Q-3.65 -9.25 -1.95 -9.15 0.1 -9.05 2.45 -10.2 L2.85 -10.25 3.25 -10.0 3.35 -9.55 3.05 -9.25 Z" fill="none" stroke="#000000" stroke-linecap="round" stroke-linejoin="round" stroke-opacity="0.3019608" stroke-width="0.05"/>
      <path d="M4.3 -5.55 L4.65 -5.85 4.6 -6.3 4.15 -6.55 3.7 -6.55 Q0.95 -5.35 -1.3 -5.4 -3.1 -5.5 -3.7 -6.5 L-4.0 -6.8 -4.5 -6.75 -4.95 -6.45 -4.95 -6.05 Q-4.15 -4.4 -1.45 -4.3 1.2 -4.1 4.3 -5.55" fill="#bf9600" fill-rule="evenodd" stroke="none"/>
      <path d="M4.3 -5.55 Q1.2 -4.1 -1.45 -4.3 -4.15 -4.4 -4.95 -6.05 L-4.95 -6.45 -4.5 -6.75 -4.0 -6.8 -3.7 -6.5 Q-3.1 -5.5 -1.3 -5.4 0.95 -5.35 3.7 -6.55 L4.15 -6.55 4.6 -6.3 4.65 -5.85 4.3 -5.55 Z" fill="none" stroke="#000000" stroke-linecap="round" stroke-linejoin="round" stroke-opacity="0.3019608" stroke-width="0.05"/>
    </g>
    <g id="sprite2" transform="matrix(1.0, 0.0, 0.0, 1.0, 6.1, 5.7)">
      <clipPath id="clipPath0" transform="matrix(1.0, 0.0, 0.0, 1.0, 6.1, 5.7)">
        <use height="18.05" transform="matrix(1.0, 0.0, 0.0, 1.0, -6.1, -5.7)" width="13.0" xlink:href="#shape5"/>
      </clipPath>
      <g clip-path="url(#clipPath0)">
        <use height="17.6" transform="matrix(1.0, 0.0, 0.0, 1.0, -4.7, -5.25)" width="9.45" xlink:href="#shape6"/>
      </g>
    </g>
    <g id="shape5" transform="matrix(1.0, 0.0, 0.0, 1.0, 6.1, 5.7)">
      <path d="M-6.1 3.15 Q-4.15 2.75 -2.2 3.15 0.6 3.3 2.05 5.15 L2.35 5.6 2.55 5.9 2.4 6.45 2.05 7.0 1.95 7.0 1.55 7.15 Q0.25 7.15 -0.15 8.05 L-0.35 8.7 -0.4 9.05 -0.35 10.05 -0.3 10.5 -0.25 11.05 -0.25 11.3 -0.35 11.7 -0.6 12.05 -1.0 12.2 -1.2 12.25 -1.35 12.35 -1.65 12.3 -1.8 12.15 -1.85 11.85 -1.7 11.3 -1.6 11.05 -1.2 10.1 Q-0.95 9.65 -1.1 9.25 L-1.3 8.9 -1.7 8.5 -1.8 8.45 -2.7 8.2 -3.45 7.85 -4.65 7.35 -6.1 6.4 -6.1 6.15 -6.1 3.15 M-5.55 6.2 L-6.1 6.15 -5.55 6.2 M0.5 6.2 L2.05 7.0 0.5 6.2" fill="#2a1809" fill-rule="evenodd" stroke="none"/>
      <path d="M2.05 7.0 L2.4 6.45 2.55 5.9 2.35 5.6 2.05 5.15 Q0.6 3.3 -2.2 3.15 -4.15 2.75 -6.1 3.15 L-6.1 -5.7 6.9 -5.7 6.9 5.9 Q4.85 7.4 3.65 7.4 L2.05 7.0" fill="url(#gradient6)" fill-rule="evenodd" stroke="none"/>
      <path d="M-6.1 3.15 Q-4.15 2.75 -2.2 3.15 0.6 3.3 2.05 5.15 L2.35 5.6 2.55 5.9 2.4 6.45 2.05 7.0 3.65 7.4 Q4.85 7.4 6.9 5.9 M-6.1 6.15 L-5.55 6.2 M2.05 7.0 L1.95 7.0 1.55 7.15 Q0.25 7.15 -0.15 8.05 L-0.35 8.7 -0.4 9.05 -0.35 10.05 -0.3 10.5 -0.25 11.05 -0.25 11.3 -0.35 11.7 -0.6 12.05 -1.0 12.2 -1.2 12.25 -1.35 12.35 -1.65 12.3 -1.8 12.15 -1.85 11.85 -1.7 11.3 -1.6 11.05 -1.2 10.1 Q-0.95 9.65 -1.1 9.25 L-1.3 8.9 -1.7 8.5 -1.8 8.45 -2.7 8.2 -3.45 7.85 -4.65 7.35 -6.1 6.4 M2.05 7.0 L0.5 6.2" fill="none" stroke="#000000" stroke-linecap="round" stroke-linejoin="round" stroke-opacity="0.3019608" stroke-width="0.05"/>
    </g>
    <linearGradient gradientTransform="matrix(1.0, 0.0, 0.0, 1.0, 0.0, 0.0)" gradientUnits="userSpaceOnUse" id="gradient6" spreadMethod="pad" x1="-819.2" x2="819.2">
      <stop offset="0.0" stop-color="#000000" stop-opacity="0.0"/>
      <stop offset="1.0" stop-color="#000000" stop-opacity="0.3019608"/>
    </linearGradient>
    <g id="shape6" transform="matrix(1.0, 0.0, 0.0, 1.0, 4.7, 5.25)">
      <path d="M3.55 -5.25 Q3.2 -5.2 2.75 -4.25 1.95 -1.55 2.5 0.05 L3.3 -0.95 Q2.45 -1.6 3.55 -5.25" fill="#997200" fill-rule="evenodd" stroke="none"/>
      <path d="M3.55 -5.25 Q2.45 -1.6 3.3 -0.95 4.15 -2.5 4.15 -4.45 3.9 -5.35 3.55 -5.25" fill="#bf9926" fill-rule="evenodd" stroke="none"/>
      <path d="M3.3 -0.95 L2.5 0.05 Q1.95 -1.55 2.75 -4.25 3.2 -5.2 3.55 -5.25 M3.3 -0.95 Q4.15 -2.5 4.15 -4.45 3.9 -5.35 3.55 -5.25" fill="none" stroke="#000000" stroke-linecap="round" stroke-linejoin="round" stroke-opacity="0.41960785" stroke-width="0.05"/>
      <path d="M1.9 -2.35 Q1.6 -2.2 1.3 -1.2 1.0 1.45 1.85 2.6 L2.4 1.4 Q1.45 1.2 1.9 -2.35" fill="#997200" fill-rule="evenodd" stroke="none"/>
      <path d="M1.9 -2.35 Q1.45 1.2 2.4 1.4 3.05 -0.2 2.65 -1.9 2.3 -2.55 1.9 -2.35" fill="#bf9926" fill-rule="evenodd" stroke="none"/>
      <path d="M2.4 1.4 L1.85 2.6 Q1.0 1.45 1.3 -1.2 1.6 -2.2 1.9 -2.35 M2.4 1.4 Q3.05 -0.2 2.65 -1.9 2.3 -2.55 1.9 -2.35" fill="none" stroke="#000000" stroke-linecap="round" stroke-linejoin="round" stroke-opacity="0.41960785" stroke-width="0.05"/>
      <path d="M0.35 -0.25 Q0.05 0.05 0.0 1.05 0.25 3.75 1.45 4.6 L1.75 3.25 Q0.7 3.35 0.35 -0.25" fill="#997200" fill-rule="evenodd" stroke="none"/>
      <path d="M0.35 -0.25 Q0.7 3.35 1.75 3.25 2.0 1.5 1.25 -0.1 0.7 -0.6 0.35 -0.25" fill="#bf9926" fill-rule="evenodd" stroke="none"/>
      <path d="M1.75 3.25 L1.45 4.6 Q0.25 3.75 0.0 1.05 0.05 0.05 0.35 -0.25 M1.75 3.25 Q2.0 1.5 1.25 -0.1 0.7 -0.6 0.35 -0.25" fill="none" stroke="#000000" stroke-linecap="round" stroke-linejoin="round" stroke-opacity="0.41960785" stroke-width="0.05"/>
      <path d="M-1.0 2.15 Q-1.25 2.55 -1.15 3.5 -0.35 5.9 1.05 6.25 L1.15 4.85 Q0.05 5.35 -1.0 2.15" fill="#997200" fill-rule="evenodd" stroke="none"/>
      <path d="M-1.0 2.15 Q0.05 5.35 1.15 4.85 1.05 3.15 -0.05 2.05 L-1.0 2.15" fill="#bf9926" fill-rule="evenodd" stroke="none"/>
      <path d="M1.15 4.85 L1.05 6.25 Q-0.35 5.9 -1.15 3.5 -1.25 2.55 -1.0 2.15 M1.15 4.85 Q1.05 3.15 -0.05 2.05 L-1.0 2.15" fill="none" stroke="#000000" stroke-linecap="round" stroke-linejoin="round" stroke-opacity="0.41960785" stroke-width="0.05"/>
      <path d="M-1.45 4.2 Q-1.7 4.55 -1.6 5.5 -1.0 7.75 0.25 8.0 L0.4 6.65 Q-0.6 7.2 -1.45 4.2" fill="#997200" fill-rule="evenodd" stroke="none"/>
      <path d="M-1.45 4.2 Q-0.6 7.2 0.4 6.65 0.4 5.05 -0.6 4.0 -1.2 3.8 -1.45 4.2" fill="#bf9926" fill-rule="evenodd" stroke="none"/>
      <path d="M0.4 6.65 L0.25 8.0 Q-1.0 7.75 -1.6 5.5 -1.7 4.55 -1.45 4.2 M0.4 6.65 Q0.4 5.05 -0.6 4.0 -1.2 3.8 -1.45 4.2" fill="none" stroke="#000000" stroke-linecap="round" stroke-linejoin="round" stroke-opacity="0.41960785" stroke-width="0.05"/>
      <path d="M4.25 -1.2 Q4.4 -0.8 4.15 0.1 3.1 2.3 1.9 2.65 L2.05 1.35 Q2.85 1.85 4.25 -1.2" fill="#997200" fill-rule="evenodd" stroke="none"/>
      <path d="M4.25 -1.2 Q2.85 1.85 2.05 1.35 2.4 -0.35 3.5 -1.35 4.1 -1.6 4.25 -1.2" fill="#bf9926" fill-rule="evenodd" stroke="none"/>
      <path d="M2.05 1.35 L1.9 2.65 Q3.1 2.3 4.15 0.1 4.4 -0.8 4.25 -1.2 M2.05 1.35 Q2.4 -0.35 3.5 -1.35 4.1 -1.6 4.25 -1.2" fill="none" stroke="#000000" stroke-linecap="round" stroke-linejoin="round" stroke-opacity="0.41960785" stroke-width="0.05"/>
      <path d="M4.75 1.1 Q4.8 1.55 4.25 2.45 2.55 4.45 1.15 4.4 1.3 3.65 1.6 3.05 2.45 3.8 4.75 1.1" fill="#997200" fill-rule="evenodd" stroke="none"/>
      <path d="M4.75 1.1 Q2.45 3.8 1.6 3.05 2.4 1.5 3.9 0.75 4.65 0.7 4.75 1.1" fill="#bf9926" fill-rule="evenodd" stroke="none"/>
      <path d="M1.6 3.05 Q1.3 3.65 1.15 4.4 2.55 4.45 4.25 2.45 4.8 1.55 4.75 1.1 M1.6 3.05 Q2.4 1.5 3.9 0.75 4.65 0.7 4.75 1.1" fill="none" stroke="#000000" stroke-linecap="round" stroke-linejoin="round" stroke-opacity="0.41960785" stroke-width="0.05"/>
      <path d="M4.15 4.0 Q4.15 4.45 3.55 5.15 1.75 6.5 0.55 5.9 L1.2 4.8 Q1.75 5.85 4.15 4.0" fill="#997200" fill-rule="evenodd" stroke="none"/>
      <path d="M4.15 4.0 Q1.75 5.85 1.2 4.8 2.15 3.5 3.55 3.3 4.15 3.5 4.15 4.0" fill="#bf9926" fill-rule="evenodd" stroke="none"/>
      <path d="M1.2 4.8 L0.55 5.9 Q1.75 6.5 3.55 5.15 4.15 4.45 4.15 4.0 M1.2 4.8 Q2.15 3.5 3.55 3.3 4.15 3.5 4.15 4.0" fill="none" stroke="#000000" stroke-linecap="round" stroke-linejoin="round" stroke-opacity="0.41960785" stroke-width="0.05"/>
      <path d="M3.65 5.9 L3.1 7.05 Q1.4 8.4 0.25 7.85 L0.9 6.7 Q1.4 7.8 3.65 5.9" fill="#997200" fill-rule="evenodd" stroke="none"/>
      <path d="M3.65 5.9 Q1.4 7.8 0.9 6.7 1.8 5.4 3.1 5.2 3.65 5.4 3.65 5.9" fill="#bf9926" fill-rule="evenodd" stroke="none"/>
      <path d="M0.9 6.7 L0.25 7.85 Q1.4 8.4 3.1 7.05 L3.65 5.9 M0.9 6.7 Q1.8 5.4 3.1 5.2 3.65 5.4 3.65 5.9" fill="none" stroke="#000000" stroke-linecap="round" stroke-linejoin="round" stroke-opacity="0.41960785" stroke-width="0.05"/>
      <path d="M-1.85 6.1 Q-2.1 6.45 -2.0 7.4 -1.4 9.65 -0.15 9.9 L0.0 8.55 Q-1.0 9.1 -1.85 6.1" fill="#997200" fill-rule="evenodd" stroke="none"/>
      <path d="M-1.85 6.1 Q-1.0 9.1 0.0 8.55 0.0 6.95 -1.0 5.9 -1.6 5.7 -1.85 6.1" fill="#bf9926" fill-rule="evenodd" stroke="none"/>
      <path d="M0.0 8.55 L-0.15 9.9 Q-1.4 9.65 -2.0 7.4 -2.1 6.45 -1.85 6.1 M0.0 8.55 Q0.0 6.95 -1.0 5.9 -1.6 5.7 -1.85 6.1" fill="none" stroke="#000000" stroke-linecap="round" stroke-linejoin="round" stroke-opacity="0.41960785" stroke-width="0.05"/>
      <path d="M3.15 7.8 L2.6 8.95 Q0.9 10.3 -0.25 9.75 L0.4 8.6 Q0.9 9.7 3.15 7.8" fill="#997200" fill-rule="evenodd" stroke="none"/>
      <path d="M3.15 7.8 Q0.9 9.7 0.4 8.6 1.3 7.3 2.6 7.1 3.15 7.3 3.15 7.8" fill="#bf9926" fill-rule="evenodd" stroke="none"/>
      <path d="M0.4 8.6 L-0.25 9.75 Q0.9 10.3 2.6 8.95 L3.15 7.8 M0.4 8.6 Q1.3 7.3 2.6 7.1 3.15 7.3 3.15 7.8" fill="none" stroke="#000000" stroke-linecap="round" stroke-linejoin="round" stroke-opacity="0.41960785" stroke-width="0.05"/>
      <path d="M-2.75 7.65 Q-3.0 8.0 -2.9 8.95 -2.3 11.2 -1.05 11.45 L-0.9 10.1 Q-1.9 10.65 -2.75 7.65" fill="#997200" fill-rule="evenodd" stroke="none"/>
      <path d="M-2.75 7.65 Q-1.9 10.65 -0.9 10.1 -0.9 8.5 -1.9 7.45 -2.5 7.25 -2.75 7.65" fill="#bf9926" fill-rule="evenodd" stroke="none"/>
      <path d="M-0.9 10.1 L-1.05 11.45 Q-2.3 11.2 -2.9 8.95 -3.0 8.0 -2.75 7.65 M-0.9 10.1 Q-0.9 8.5 -1.9 7.45 -2.5 7.25 -2.75 7.65" fill="none" stroke="#000000" stroke-linecap="round" stroke-linejoin="round" stroke-opacity="0.41960785" stroke-width="0.05"/>
      <path d="M2.3 9.35 L1.75 10.5 Q0.05 11.85 -1.1 11.3 L-0.45 10.15 Q0.05 11.25 2.3 9.35" fill="#997200" fill-rule="evenodd" stroke="none"/>
      <path d="M2.3 9.35 Q0.05 11.25 -0.45 10.15 0.45 8.85 1.75 8.65 2.3 8.85 2.3 9.35" fill="#bf9926" fill-rule="evenodd" stroke="none"/>
      <path d="M-0.45 10.15 L-1.1 11.3 Q0.05 11.85 1.75 10.5 L2.3 9.35 M-0.45 10.15 Q0.45 8.85 1.75 8.65 2.3 8.85 2.3 9.35" fill="none" stroke="#000000" stroke-linecap="round" stroke-linejoin="round" stroke-opacity="0.41960785" stroke-width="0.05"/>
      <path d="M-4.45 0.55 L-4.6 1.4 Q-4.15 3.35 -3.15 4.1 L-3.1 3.25 Q-3.8 3.15 -4.45 0.55" fill="#997200" fill-rule="evenodd" stroke="none"/>
      <path d="M-4.45 0.55 Q-3.8 3.15 -3.1 3.25 -3.1 1.95 -3.8 0.75 -4.25 0.3 -4.45 0.55" fill="#bf9926" fill-rule="evenodd" stroke="none"/>
      <path d="M-3.1 3.25 L-3.15 4.1 Q-4.15 3.35 -4.6 1.4 L-4.45 0.55 M-3.1 3.25 Q-3.1 1.95 -3.8 0.75 -4.25 0.3 -4.45 0.55" fill="none" stroke="#000000" stroke-linecap="round" stroke-linejoin="round" stroke-opacity="0.41960785" stroke-width="0.05"/>
      <path d="M-4.4 2.85 Q-4.6 3.05 -4.4 3.8 -3.7 5.5 -2.75 5.9 -2.7 5.4 -2.8 4.95 -3.45 5.15 -4.4 2.85" fill="#997200" fill-rule="evenodd" stroke="none"/>
      <path d="M-4.4 2.85 Q-3.45 5.15 -2.8 4.95 -3.0 3.75 -3.85 2.85 -4.25 2.6 -4.4 2.85" fill="#bf9926" fill-rule="evenodd" stroke="none"/>
      <path d="M-2.8 4.95 Q-2.7 5.4 -2.75 5.9 -3.7 5.5 -4.4 3.8 -4.6 3.05 -4.4 2.85 M-2.8 4.95 Q-3.0 3.75 -3.85 2.85 -4.25 2.6 -4.4 2.85" fill="none" stroke="#000000" stroke-linecap="round" stroke-linejoin="round" stroke-opacity="0.41960785" stroke-width="0.05"/>
      <path d="M-4.65 4.65 L-4.45 5.6 Q-3.3 7.15 -2.25 7.25 L-2.55 6.3 Q-3.2 6.75 -4.65 4.65" fill="#997200" fill-rule="evenodd" stroke="none"/>
      <path d="M-4.65 4.65 Q-3.2 6.75 -2.55 6.3 -3.05 5.15 -4.05 4.45 -4.6 4.4 -4.65 4.65" fill="#bf9926" fill-rule="evenodd" stroke="none"/>
      <path d="M-2.55 6.3 L-2.25 7.25 Q-3.3 7.15 -4.45 5.6 L-4.65 4.65 M-2.55 6.3 Q-3.05 5.15 -4.05 4.45 -4.6 4.4 -4.65 4.65" fill="none" stroke="#000000" stroke-linecap="round" stroke-linejoin="round" stroke-opacity="0.41960785" stroke-width="0.05"/>
      <path d="M-4.65 6.65 Q-4.7 7.0 -4.25 7.55 -2.95 8.7 -1.9 8.45 L-2.35 7.55 Q-2.85 8.25 -4.65 6.65" fill="#997200" fill-rule="evenodd" stroke="none"/>
      <path d="M-4.65 6.65 Q-2.85 8.25 -2.35 7.55 -3.05 6.55 -4.1 6.25 -4.65 6.3 -4.65 6.65" fill="#bf9926" fill-rule="evenodd" stroke="none"/>
      <path d="M-2.35 7.55 L-1.9 8.45 Q-2.95 8.7 -4.25 7.55 -4.7 7.0 -4.65 6.65 M-2.35 7.55 Q-3.05 6.55 -4.1 6.25 -4.65 6.3 -4.65 6.65" fill="none" stroke="#000000" stroke-linecap="round" stroke-linejoin="round" stroke-opacity="0.41960785" stroke-width="0.05"/>
      <path d="M-4.2 8.05 L-3.85 8.95 Q-2.7 10.1 -1.8 9.8 L-2.15 8.95 Q-2.6 9.65 -4.2 8.05" fill="#997200" fill-rule="evenodd" stroke="none"/>
      <path d="M-4.2 8.05 Q-2.6 9.65 -2.15 8.95 -2.8 7.95 -3.75 7.65 -4.2 7.7 -4.2 8.05" fill="#bf9926" fill-rule="evenodd" stroke="none"/>
      <path d="M-2.15 8.95 L-1.8 9.8 Q-2.7 10.1 -3.85 8.95 L-4.2 8.05 M-2.15 8.95 Q-2.8 7.95 -3.75 7.65 -4.2 7.7 -4.2 8.05" fill="none" stroke="#000000" stroke-linecap="round" stroke-linejoin="round" stroke-opacity="0.41960785" stroke-width="0.05"/>
      <path d="M-2.6 2.75 L-2.2 3.6 Q-2.05 5.3 -2.7 5.85 L-3.05 5.05 Q-2.4 5.05 -2.6 2.75" fill="#997200" fill-rule="evenodd" stroke="none"/>
      <path d="M-2.6 2.75 Q-2.4 5.05 -3.05 5.05 -3.4 3.9 -3.1 2.9 -2.85 2.55 -2.6 2.75" fill="#bf9926" fill-rule="evenodd" stroke="none"/>
      <path d="M-3.05 5.05 L-2.7 5.85 Q-2.05 5.3 -2.2 3.6 L-2.6 2.75 M-3.05 5.05 Q-3.4 3.9 -3.1 2.9 -2.85 2.55 -2.6 2.75" fill="none" stroke="#000000" stroke-linecap="round" stroke-linejoin="round" stroke-opacity="0.41960785" stroke-width="0.05"/>
      <path d="M-1.45 4.0 Q-1.25 4.2 -1.3 4.95 -1.65 6.75 -2.55 7.25 L-2.7 6.3 Q-1.95 6.45 -1.45 4.0" fill="#997200" fill-rule="evenodd" stroke="none"/>
      <path d="M-1.45 4.0 Q-1.95 6.45 -2.7 6.3 -2.75 5.0 -2.1 4.05 L-1.45 4.0" fill="#bf9926" fill-rule="evenodd" stroke="none"/>
      <path d="M-2.7 6.3 L-2.55 7.25 Q-1.65 6.75 -1.3 4.95 -1.25 4.2 -1.45 4.0 M-2.7 6.3 Q-2.75 5.0 -2.1 4.05 L-1.45 4.0" fill="none" stroke="#000000" stroke-linecap="round" stroke-linejoin="round" stroke-opacity="0.41960785" stroke-width="0.05"/>
      <path d="M-0.85 5.9 Q-0.65 6.2 -0.8 6.85 -1.45 8.3 -2.4 8.4 L-2.4 7.5 Q-1.65 7.9 -0.85 5.9" fill="#997200" fill-rule="evenodd" stroke="none"/>
      <path d="M-0.85 5.9 Q-1.65 7.9 -2.4 7.5 -2.25 6.35 -1.45 5.7 -1.0 5.6 -0.85 5.9" fill="#bf9926" fill-rule="evenodd" stroke="none"/>
      <path d="M-2.4 7.5 L-2.4 8.4 Q-1.45 8.3 -0.8 6.85 -0.65 6.2 -0.85 5.9 M-2.4 7.5 Q-2.25 6.35 -1.45 5.7 -1.0 5.6 -0.85 5.9" fill="none" stroke="#000000" stroke-linecap="round" stroke-linejoin="round" stroke-opacity="0.41960785" stroke-width="0.05"/>
      <path d="M-0.5 7.25 Q-0.3 7.55 -0.45 8.15 -1.0 9.6 -1.9 9.65 L-1.95 8.75 Q-1.2 9.2 -0.5 7.25" fill="#997200" fill-rule="evenodd" stroke="none"/>
      <path d="M-0.5 7.25 Q-1.2 9.2 -1.95 8.75 -1.85 7.6 -1.1 7.0 -0.65 6.9 -0.5 7.25" fill="#bf9926" fill-rule="evenodd" stroke="none"/>
      <path d="M-1.95 8.75 L-1.9 9.65 Q-1.0 9.6 -0.45 8.15 -0.3 7.55 -0.5 7.25 M-1.95 8.75 Q-1.85 7.6 -1.1 7.0 -0.65 6.9 -0.5 7.25" fill="none" stroke="#000000" stroke-linecap="round" stroke-linejoin="round" stroke-opacity="0.41960785" stroke-width="0.05"/>
      <path d="M-3.8 9.35 L-3.45 10.25 Q-2.3 11.4 -1.4 11.1 L-1.75 10.25 Q-2.2 10.95 -3.8 9.35" fill="#997200" fill-rule="evenodd" stroke="none"/>
      <path d="M-3.8 9.35 Q-2.2 10.95 -1.75 10.25 -2.4 9.25 -3.35 8.95 L-3.8 9.35" fill="#bf9926" fill-rule="evenodd" stroke="none"/>
      <path d="M-1.75 10.25 L-1.4 11.1 Q-2.3 11.4 -3.45 10.25 L-3.8 9.35 M-1.75 10.25 Q-2.4 9.25 -3.35 8.95 L-3.8 9.35" fill="none" stroke="#000000" stroke-linecap="round" stroke-linejoin="round" stroke-opacity="0.41960785" stroke-width="0.05"/>
      <path d="M-0.1 8.55 Q0.1 8.85 -0.05 9.45 -0.6 10.9 -1.5 10.95 L-1.55 10.05 Q-0.8 10.5 -0.1 8.55" fill="#997200" fill-rule="evenodd" stroke="none"/>
      <path d="M-0.1 8.55 Q-0.8 10.5 -1.55 10.05 -1.45 8.9 -0.7 8.3 -0.25 8.2 -0.1 8.55" fill="#bf9926" fill-rule="evenodd" stroke="none"/>
      <path d="M-1.55 10.05 L-1.5 10.95 Q-0.6 10.9 -0.05 9.45 0.1 8.85 -0.1 8.55 M-1.55 10.05 Q-1.45 8.9 -0.7 8.3 -0.25 8.2 -0.1 8.55" fill="none" stroke="#000000" stroke-linecap="round" stroke-linejoin="round" stroke-opacity="0.41960785" stroke-width="0.05"/>
      <path d="M-3.8 10.55 L-3.45 11.45 Q-2.3 12.6 -1.4 12.3 L-1.75 11.45 Q-2.2 12.15 -3.8 10.55" fill="#997200" fill-rule="evenodd" stroke="none"/>
      <path d="M-3.8 10.55 Q-2.2 12.15 -1.75 11.45 -2.4 10.45 -3.35 10.15 L-3.8 10.55" fill="#bf9926" fill-rule="evenodd" stroke="none"/>
      <path d="M-1.75 11.45 L-1.4 12.3 Q-2.3 12.6 -3.45 11.45 L-3.8 10.55 M-1.75 11.45 Q-2.4 10.45 -3.35 10.15 L-3.8 10.55" fill="none" stroke="#000000" stroke-linecap="round" stroke-linejoin="round" stroke-opacity="0.41960785" stroke-width="0.05"/>
      <path d="M-0.1 9.85 Q0.1 10.15 -0.05 10.75 -0.6 12.2 -1.5 12.25 L-1.55 11.35 Q-0.8 11.8 -0.1 9.85" fill="#997200" fill-rule="evenodd" stroke="none"/>
      <path d="M-0.1 9.85 Q-0.8 11.8 -1.55 11.35 -1.45 10.2 -0.7 9.6 -0.25 9.5 -0.1 9.85" fill="#bf9926" fill-rule="evenodd" stroke="none"/>
      <path d="M-1.55 11.35 L-1.5 12.25 Q-0.6 12.2 -0.05 10.75 0.1 10.15 -0.1 9.85 M-1.55 11.35 Q-1.45 10.2 -0.7 9.6 -0.25 9.5 -0.1 9.85" fill="none" stroke="#000000" stroke-linecap="round" stroke-linejoin="round" stroke-opacity="0.41960785" stroke-width="0.05"/>
    </g>
  </defs>
</svg>
