<?xml version="1.0" encoding="UTF-8" standalone="no"?>
<svg xmlns:xlink="http://www.w3.org/1999/xlink" height="440.0px" width="440.0px" xmlns="http://www.w3.org/2000/svg">
  <g transform="matrix(10.0, 0.0, 0.0, 10.0, 0.0, 0.0)">
    <use height="44.0" transform="matrix(1.0, 0.0, 0.0, 1.0, 0.0, 0.0)" width="44.0" xlink:href="#shape0"/>
    <use height="32.2" transform="matrix(0.9, 0.0, 0.0, 0.9518, 1.0951, 5.6072)" width="26.85" xlink:href="#sprite0"/>
    <use height="32.2" transform="matrix(-1.0, 0.0318, 0.0, 1.0576, 43.1, 4.7647)" width="26.85" xlink:href="#sprite0"/>
  </g>
  <defs>
    <g id="shape0" transform="matrix(1.0, 0.0, 0.0, 1.0, 0.0, 0.0)">
      <path d="M44.0 44.0 L0.0 44.0 0.0 0.0 44.0 0.0 44.0 44.0" fill="#43adca" fill-opacity="0.0" fill-rule="evenodd" stroke="none"/>
      <path d="M35.65 10.25 L35.7 11.25 37.25 12.1 37.3 12.05 37.1 10.7 Q36.9 8.3 34.9 6.85 L34.05 6.7 M23.2 11.9 L24.1 12.0 25.0 12.15 25.25 12.15 25.35 12.15 25.45 12.2 26.75 12.35 28.4 12.65 29.1 13.0 Q29.9 13.2 30.35 13.6 L30.6 13.85 31.05 12.85 31.3 12.6 31.95 12.1 32.85 11.25 Q33.5 10.5 33.9 10.35 L33.95 10.25 Q33.85 9.85 33.3 9.7 32.95 9.4 32.35 9.4 L28.3 8.95 24.15 9.8 23.1 10.1 21.55 10.7 21.35 10.75 21.05 10.9 20.6 11.2 M35.7 11.25 Q35.6 15.8 38.0 19.45 L38.15 19.65 36.55 19.6 35.7 19.35 35.95 22.15 35.95 22.2 34.9 21.95 34.4 21.65 35.45 23.4 36.3 25.4 Q38.65 25.05 40.25 26.85 L40.3 26.9 40.4 26.95 Q41.45 27.85 41.35 29.55 41.8 29.9 41.75 30.8 L41.75 30.95 42.0 31.0 41.75 31.1 42.7 31.3 Q43.25 31.95 43.05 33.45 L42.15 35.5 41.85 35.1 41.65 35.6 Q40.8 37.7 38.3 38.55 L38.25 38.55 35.05 39.0 Q30.5 39.45 28.6 38.5 L26.0 37.15 25.95 37.15 25.45 36.35 25.35 36.35 Q23.5 36.3 22.15 35.6 21.0 35.15 20.2 34.2 L19.95 33.85 19.7 33.05 19.7 32.95 17.05 33.55 17.0 33.55 16.5 34.25 16.45 34.25 14.1 35.55 Q12.4 36.45 8.3 36.2 L8.15 36.2 5.45 35.9 5.4 35.9 Q3.15 35.2 2.35 33.35 L2.2 32.95 1.95 33.25 1.15 31.4 Q0.95 30.05 1.45 29.5 L2.3 29.25 2.1 29.15 2.3 29.1 2.3 28.95 Q2.25 28.2 2.65 27.9 2.55 26.35 3.5 25.5 L3.55 25.45 3.7 25.4 Q5.1 23.75 7.2 23.95 L8.0 22.15 8.9 20.6 8.5 20.85 7.55 21.15 7.55 21.05 7.75 18.5 7.0 18.8 5.55 18.9 5.7 18.7 Q7.85 15.3 7.75 11.25 L6.35 12.05 6.3 12.05 6.5 10.8 Q6.7 8.6 8.5 7.3 L6.85 6.85 Q11.25 4.65 15.75 6.35 L16.25 6.5 16.55 6.4 Q19.05 5.7 20.95 6.95 L21.0 7.0 21.05 6.95 Q23.15 5.5 25.9 6.2 L26.25 6.3 26.8 6.05 Q31.8 4.05 36.7 6.35 L34.9 6.85 M30.35 13.6 L30.5 13.9 30.65 14.15 30.9 14.65 31.35 16.3 31.45 18.65 30.9 20.7 30.25 22.4 31.8 24.55 31.95 24.8 32.55 23.7 32.7 23.45 33.7 21.1 33.75 20.75 33.75 19.4 33.65 18.3 M25.55 20.7 L25.45 21.85 Q25.3 24.0 26.4 25.7 L26.8 26.3 27.1 26.65 27.65 27.3 27.6 26.85 30.25 22.4 M33.7 21.1 L34.4 21.65 M34.6 17.45 Q35.35 18.05 35.7 19.35 M40.95 31.35 L41.05 31.05 41.1 30.9 41.15 30.85 41.35 29.55 M41.1 30.9 L41.15 30.95 41.3 31.15 41.6 31.55 41.95 32.25 42.2 33.2 41.85 35.1 M41.75 31.1 L41.75 30.95 41.65 30.95 41.15 30.85 M31.85 27.5 Q32.6 26.85 33.55 26.35 L34.75 25.75 36.3 25.4 M21.7 29.95 Q22.15 30.5 22.85 30.9 L23.5 31.2 23.85 31.25 23.7 30.65 23.6 30.45 23.45 30.45 23.5 30.4 22.95 29.3 M23.5 30.4 L23.6 30.45 M23.7 30.65 L24.1 31.1 24.3 31.35 25.8 33.3 25.85 33.45 27.15 34.4 27.25 34.45 27.55 34.6 28.4 34.85 28.6 34.9 29.0 34.95 29.55 35.15 M25.45 36.35 Q24.55 34.85 23.95 31.95 L23.95 31.85 23.85 31.25 M35.2 38.7 L35.05 39.0 M16.9 19.45 L17.0 20.5 17.4 20.75 Q17.5 19.25 18.55 17.85 L18.1 16.9 Q17.0 15.25 17.65 13.2 L16.25 13.25 16.25 13.1 Q16.35 12.45 16.6 11.85 L15.8 12.0 14.3 12.35 13.7 12.6 Q13.0 12.85 12.55 13.25 L12.45 13.45 12.3 13.7 12.1 14.2 Q11.75 14.95 11.65 15.7 11.45 16.7 11.6 17.8 L12.1 19.6 12.65 21.15 13.3 22.2 13.4 22.35 15.05 25.05 15.0 25.45 15.5 24.9 15.75 24.55 16.15 24.05 Q17.1 22.4 17.0 20.5 M19.2 8.7 L19.65 8.45 19.65 8.4 20.25 8.05 20.7 7.85 21.05 7.7 21.1 7.7 20.95 7.6 20.65 7.45 20.95 7.4 20.55 7.3 21.0 7.0 M21.1 7.7 L21.35 7.5 20.95 7.4 M12.55 13.25 L12.35 13.4 11.95 12.55 11.7 12.35 11.15 11.9 10.3 11.2 Q9.75 10.5 9.4 10.35 L9.35 10.3 9.85 9.85 Q10.25 9.5 10.75 9.45 12.45 8.95 14.4 9.0 L18.05 9.6 18.25 9.35 M16.6 11.85 Q17.05 10.55 18.05 9.6 M8.5 7.3 L9.25 7.1 M7.75 11.25 L7.8 10.35 M8.75 16.8 Q8.05 17.35 7.75 18.5 M8.9 20.6 L9.55 20.05 9.55 19.75 9.5 18.5 9.6 17.5 M11.25 25.75 L9.7 24.75 8.55 24.3 7.2 23.95 M12.65 21.15 L11.15 23.3 10.6 22.35 10.45 22.1 9.55 20.05 M20.25 14.7 Q20.55 16.4 20.2 17.65 L19.4 19.0 18.95 19.4 18.95 19.25 19.0 19.1 19.0 18.7 18.8 18.15 18.55 17.85 M17.65 13.2 L18.55 12.95 18.9 12.75 19.35 12.45 M17.4 20.75 Q17.25 21.85 17.65 23.05 L17.7 23.15 17.75 23.15 18.0 22.8 19.0 21.95 Q19.65 21.35 20.35 20.85 L20.4 20.4 20.45 20.25 20.75 19.55 M20.15 23.55 L20.25 22.95 19.0 21.95 M20.25 22.95 L20.6 23.3 20.6 23.75 20.7 23.45 20.75 23.35 20.65 22.7 20.35 20.85 M21.05 24.95 L21.1 24.6 21.05 24.5 21.05 24.45 21.05 24.95 21.0 25.45 21.0 25.5 20.95 26.25 21.0 26.9 21.0 27.35 20.95 27.15 20.95 27.55 21.05 27.45 21.0 27.65 21.2 29.1 M21.9 25.35 L21.85 24.8 21.45 25.15 21.45 25.6 21.25 25.2 21.1 24.65 21.1 24.6 M21.05 24.45 L20.75 23.35 M21.0 25.5 L20.95 25.4 21.0 25.45 M20.95 27.55 L20.9 27.6 20.75 27.7 20.05 28.55 Q19.65 29.2 19.5 30.0 L19.45 30.55 19.45 30.65 19.45 31.4 19.5 31.85 19.65 32.85 19.7 32.95 M13.3 32.55 L13.75 32.4 14.25 32.35 14.3 32.3 15.05 32.0 15.35 31.85 15.5 31.8 16.55 30.95 16.65 30.8 18.0 29.05 18.2 28.75 18.55 28.35 18.65 28.15 18.7 28.1 19.2 27.1 M18.65 28.15 L18.7 28.15 18.7 28.1 M18.55 28.35 L18.45 28.95 19.3 28.55 20.35 27.7 M17.0 33.55 Q17.75 32.2 18.3 29.55 L18.3 29.45 18.45 28.95 M2.65 27.9 L2.85 29.0 2.85 29.1 2.85 29.15 2.7 29.3 2.45 29.65 2.2 30.25 1.9 31.15 2.2 32.95 M2.85 29.0 L2.4 29.1 2.3 29.1 2.3 29.25 M21.85 24.8 Q23.4 23.25 25.45 21.85" fill="none" stroke="#000000" stroke-linecap="round" stroke-linejoin="round" stroke-opacity="0.3019608" stroke-width="0.7000000000000001"/>
    </g>
    <g id="sprite0" transform="matrix(1.0, 0.0, 0.0, 1.0, 14.45, 12.6)">
      <use height="36.45" transform="matrix(-0.4124, 0.0, 0.0, 0.4124, 7.7141, -0.4182)" width="32.1" xlink:href="#sprite1"/>
      <use height="8.55" transform="matrix(1.0, 0.0, 0.0, 1.0, 0.15, 8.2)" width="9.05" xlink:href="#shape2"/>
      <use height="50.2" transform="matrix(-0.4124, 0.0, -0.065, 0.3986, 8.4953, -0.3861)" width="47.6" xlink:href="#sprite2"/>
      <use height="31.1" transform="matrix(1.0, 0.0, 0.0, 1.0, -14.45, -12.6)" width="26.85" xlink:href="#shape4"/>
    </g>
    <g id="sprite1" transform="matrix(1.0, 0.0, 0.0, 1.0, 13.25, 15.2)">
      <use height="36.45" transform="matrix(1.0, 0.0, 0.0, 1.0, -13.25, -15.2)" width="32.1" xlink:href="#shape1"/>
    </g>
    <g id="shape1" transform="matrix(1.0, 0.0, 0.0, 1.0, 13.25, 15.2)">
      <path d="M16.7 0.9 Q18.0 6.9 18.05 12.55 L17.75 17.8 Q9.55 22.25 -1.1 21.0 -6.9 19.45 -11.35 15.75 L-13.2 10.85 -13.25 5.0 -13.15 5.5 Q-13.55 -0.5 -12.05 -4.1 L-7.4 -11.85 Q2.6 -17.2 11.2 -13.95 L18.85 -2.9 16.7 0.9 16.05 2.05 16.7 0.9" fill="#342238" fill-rule="evenodd" stroke="none"/>
      <path d="M16.7 0.9 L18.85 -2.9 11.2 -13.95 Q2.6 -17.2 -7.4 -11.85 L-12.05 -4.1 Q-13.55 -0.5 -13.15 5.5 L-13.25 5.0 -13.2 10.85 -11.35 15.75 Q-6.9 19.45 -1.1 21.0 9.55 22.25 17.75 17.8 L18.05 12.55 Q18.0 6.9 16.7 0.9 L16.05 2.05" fill="none" stroke="#000000" stroke-linecap="round" stroke-linejoin="round" stroke-opacity="0.3019608" stroke-width="0.05"/>
    </g>
    <g id="shape2" transform="matrix(1.0, 0.0, 0.0, 1.0, -0.15, -8.2)">
      <path d="M7.75 8.3 L7.65 8.35 7.6 8.2 7.75 8.3" fill="#a32800" fill-rule="evenodd" stroke="none"/>
      <path d="M7.65 8.35 L7.75 8.3 7.9 8.4 8.6 9.2 9.15 10.55 9.2 11.05 9.2 11.15 9.15 12.3 9.0 13.25 8.95 13.45 8.85 13.4 8.35 13.95 Q7.85 14.55 7.0 14.7 L6.8 14.75 Q5.95 15.0 5.9 14.25 L5.9 14.05 Q5.7 13.05 5.95 12.45 L6.95 10.6 7.45 9.75 7.65 8.35" fill="#cb96b1" fill-rule="evenodd" stroke="none"/>
      <path d="M6.95 10.6 L5.95 12.45 Q5.7 13.05 5.9 14.05 L5.9 14.25 Q5.95 15.0 6.8 14.75 L7.0 14.7 Q7.85 14.55 8.35 13.95 L8.85 13.4 8.95 13.45 8.7 14.2 8.45 14.55 Q7.65 15.45 6.5 15.95 5.15 16.65 3.3 16.75 L2.4 16.75 0.15 16.25 0.15 16.2 1.4 15.0 1.45 15.1 1.5 15.05 1.65 14.05 2.0 12.45 5.15 11.8 5.15 11.75 5.8 11.5 6.95 10.6" fill="#ab5a80" fill-rule="evenodd" stroke="none"/>
      <path d="M7.65 8.35 L7.45 9.75 M8.95 13.45 L9.0 13.25 9.15 12.3 9.2 11.15 9.2 11.05 9.15 10.55 8.6 9.2 7.9 8.4 7.75 8.3 7.6 8.2 7.65 8.35 M5.15 11.75 L5.8 11.5 6.95 10.6 M8.95 13.45 L8.7 14.2 8.45 14.55 Q7.65 15.45 6.5 15.95 5.15 16.65 3.3 16.75 L2.4 16.75 0.15 16.25 M1.65 14.05 L2.0 12.45 5.15 11.8" fill="none" stroke="#000000" stroke-linecap="round" stroke-linejoin="round" stroke-opacity="0.3019608" stroke-width="0.05"/>
    </g>
    <g id="sprite2" transform="matrix(1.0, 0.0, 0.0, 1.0, 20.85, 23.8)">
      <use height="50.2" transform="matrix(1.0, 0.0, 0.0, 1.0, -20.85, -23.8)" width="47.6" xlink:href="#shape3"/>
    </g>
    <g id="shape3" transform="matrix(1.0, 0.0, 0.0, 1.0, 20.85, 23.8)">
      <path d="M22.35 6.2 L22.3 6.3 22.1 6.05 22.35 6.2" fill="#bd9444" fill-rule="evenodd" stroke="none"/>
      <path d="M1.9 6.65 L1.95 6.7 1.95 6.75 1.9 6.75 1.9 6.65" fill="#879880" fill-rule="evenodd" stroke="none"/>
      <path d="M24.7 8.95 L24.45 8.95 24.55 8.5 24.85 7.9 24.9 8.3 25.0 8.95 24.7 8.95 M24.4 13.6 L24.4 13.65 24.35 13.6 24.4 13.6" fill="#583a00" fill-rule="evenodd" stroke="none"/>
      <path d="M1.65 6.65 L1.9 6.65 1.9 6.75 1.9 6.8 1.75 6.7 1.65 6.65 M-8.15 0.25 L-8.25 0.05 -8.2 0.0 -8.15 0.25" fill="#54604f" fill-rule="evenodd" stroke="none"/>
      <path d="M15.4 25.4 L15.25 25.45 15.25 25.4 15.4 25.4 M-13.75 21.05 L-13.85 21.05 -13.75 21.05 M10.2 12.45 L10.15 12.5 10.2 12.45" fill="#32382f" fill-rule="evenodd" stroke="none"/>
      <path d="M-17.15 5.0 L-17.3 4.95 -17.2 4.85 -17.15 5.0" fill="#6a7a66" fill-rule="evenodd" stroke="none"/>
      <path d="M1.45 16.85 L1.35 16.9 1.35 16.85 1.45 16.85 M0.4 17.3 L0.4 17.2 0.55 17.2 0.4 17.3 M-3.35 16.45 L-3.35 16.55 -3.35 16.45" fill="#1e1400" fill-rule="evenodd" stroke="none"/>
      <path d="M0.15 5.95 L-0.1 5.65 0.2 5.8 0.15 5.95 M1.95 6.75 L1.95 6.7 1.9 6.65 1.65 6.65 1.85 6.6 2.0 6.7 1.95 6.75" fill="#288c99" fill-rule="evenodd" stroke="none"/>
      <path d="M11.7 16.15 L12.35 16.05 11.95 16.45 11.7 16.15 M15.25 13.05 L15.2 13.05 15.25 13.05" fill="#332000" fill-rule="evenodd" stroke="none"/>
      <path d="M14.15 -10.75 L15.5 -6.0 11.7 -5.2 Q7.4 -3.85 3.95 -1.35 7.4 -3.85 11.7 -5.2 L15.5 -6.0 15.55 -5.85 15.55 -6.0 Q21.3 -6.55 24.45 -2.25 L24.65 -2.1 24.8 -1.95 24.55 -1.8 24.25 -0.75 23.25 0.85 Q21.5 2.8 18.9 3.85 L18.1 4.2 17.65 4.15 17.6 4.4 Q15.05 5.6 12.1 5.85 L3.7 6.3 1.3 6.35 1.3 6.5 1.85 6.6 1.65 6.65 1.75 6.7 0.15 6.65 Q-9.3 5.85 -8.15 0.25 L-8.2 0.0 -8.95 -4.0 Q-8.85 -11.95 14.15 -10.75 M0.15 5.95 L0.2 5.8 -0.1 5.65 0.15 5.95" fill="#79607e" fill-rule="evenodd" stroke="none"/>
      <path d="M4.15 -23.6 Q10.7 -20.45 14.15 -10.75 -8.85 -11.95 -8.95 -4.0 L-8.2 0.0 -8.25 0.05 -8.15 0.25 Q-9.3 5.85 0.15 6.65 L1.75 6.7 1.9 6.8 1.9 6.75 1.95 6.75 2.0 6.7 1.85 6.6 1.3 6.5 1.3 6.35 3.7 6.3 12.1 5.85 Q15.05 5.6 17.6 4.4 L17.65 4.15 18.1 4.2 18.9 3.85 Q21.5 2.8 23.25 0.85 L24.25 -0.75 24.55 -1.8 24.8 -1.95 Q27.85 1.0 25.0 7.55 L24.85 7.9 24.55 8.5 24.45 8.95 24.7 8.95 24.4 9.6 24.45 9.6 24.4 9.6 23.3 11.25 Q20.3 14.65 12.35 16.05 L11.7 16.15 1.3 17.2 0.6 17.2 0.6 17.15 0.55 17.2 0.4 17.2 -0.85 17.2 -1.2 17.25 -1.7 17.15 -3.15 16.95 -3.45 16.9 -4.5 16.65 -5.7 16.25 -7.1 15.9 -9.75 14.75 Q-11.35 13.8 -12.7 12.45 L-12.85 12.0 Q-14.3 9.2 -16.15 6.65 L-16.9 5.55 -17.15 5.0 -17.2 4.85 -18.2 2.3 -19.4 -0.65 -19.5 -0.5 -20.45 -2.55 Q-21.15 -5.15 -20.6 -8.1 -20.15 -10.6 -18.95 -12.15 -18.35 -18.7 -17.05 -20.45 L-16.6 -20.9 4.15 -23.6 M22.1 6.05 L22.3 6.3 22.35 6.2 22.1 6.05 M1.45 16.85 L1.35 16.85 1.35 16.9 1.45 16.85 M15.25 13.05 L15.2 13.05 15.25 13.05 M10.15 12.5 L10.2 12.45 10.15 12.5 M-18.95 -12.15 L-19.25 -7.15 -18.95 -12.15 M-3.35 16.45 L-3.35 16.55 -3.35 16.45" fill="#533659" fill-rule="evenodd" stroke="none"/>
      <path d="M25.0 7.55 L25.05 7.65 25.4 8.1 25.9 9.0 Q26.7 10.6 26.75 12.95 26.1 16.2 24.6 18.65 21.65 23.55 15.4 25.4 L15.25 25.4 15.25 25.45 7.45 26.25 Q-3.75 26.95 -8.0 24.5 L-13.75 21.05 -13.85 21.05 Q-16.3 17.6 -16.75 8.7 L-16.75 8.45 -16.9 5.55 -16.15 6.65 Q-14.3 9.2 -12.85 12.0 L-12.7 12.45 Q-11.35 13.8 -9.75 14.75 L-7.1 15.9 -5.7 16.25 -4.5 16.65 -3.45 16.9 -3.15 16.95 -1.7 17.15 -1.2 17.25 -0.85 17.2 0.4 17.2 0.4 17.3 -1.0 17.65 -2.25 17.85 Q-4.3 18.2 -7.9 16.8 -8.95 20.9 -7.55 22.85 -6.4 25.55 7.9 25.55 L9.2 22.9 Q10.35 20.1 11.1 17.3 L11.95 16.45 12.35 16.05 Q20.3 14.65 23.3 11.25 L24.4 9.6 24.45 9.6 24.4 9.6 24.7 8.95 25.0 8.95 24.9 8.3 24.85 7.9 25.0 7.55 M24.4 13.6 L24.35 13.6 24.4 13.65 24.4 13.6 M7.45 26.25 L7.9 25.55 7.45 26.25" fill="#ab5a80" fill-rule="evenodd" stroke="none"/>
      <path d="M0.4 17.3 L0.55 17.2 0.6 17.15 0.6 17.2 1.3 17.2 11.7 16.15 11.95 16.45 11.1 17.3 Q10.35 20.1 9.2 22.9 L7.9 25.55 Q-6.4 25.55 -7.55 22.85 -8.95 20.9 -7.9 16.8 -4.3 18.2 -2.25 17.85 L-1.0 17.65 0.4 17.3" fill="#cb96b1" fill-rule="evenodd" stroke="none"/>
      <path d="M4.15 -23.6 Q10.7 -20.45 14.15 -10.75 L15.5 -6.0 15.55 -6.0 Q21.3 -6.55 24.45 -2.25 L24.65 -2.1 24.8 -1.95 Q27.85 1.0 25.0 7.55 L25.05 7.65 25.4 8.1 25.9 9.0 Q26.7 10.6 26.75 12.95 26.1 16.2 24.6 18.65 21.65 23.55 15.4 25.4 L15.25 25.45 7.45 26.25 Q-3.75 26.95 -8.0 24.5 L-13.75 21.05 -13.85 21.05 Q-16.3 17.6 -16.75 8.7 L-16.75 8.45 -16.9 5.55 -17.15 5.0 -17.3 4.95 -17.2 4.85 -18.2 2.3 M-18.95 -12.15 Q-18.35 -18.7 -17.05 -20.45 L-16.6 -20.9 4.15 -23.6 5.95 -23.8 M3.95 -1.35 Q7.4 -3.85 11.7 -5.2 L15.5 -6.0 15.55 -5.85 M24.85 7.9 L24.55 8.5 M24.85 7.9 L25.0 7.55 M22.1 6.05 L22.35 6.2 M-4.5 16.65 L-5.7 16.25 -7.1 15.9 -9.75 14.75 Q-11.35 13.8 -12.7 12.45 L-12.85 12.0 Q-14.3 9.2 -16.15 6.65 L-16.9 5.55 M7.9 25.55 L7.45 26.25 M10.15 12.5 L10.2 12.45 M-19.25 -7.15 L-18.95 -12.15 M-17.2 4.85 L-17.15 5.0" fill="none" stroke="#000000" stroke-linecap="round" stroke-linejoin="round" stroke-opacity="0.3019608" stroke-width="0.05"/>
    </g>
    <g id="shape4" transform="matrix(1.0, 0.0, 0.0, 1.0, 14.45, 12.6)">
      <path d="M-6.25 -10.85 L-5.4 -11.05 Q-7.3 -10.25 -7.3 -8.75 L-7.0 -7.65 Q-6.55 -6.8 -5.3 -5.9 L-2.45 -3.75 -2.0 -4.1 -2.25 -3.6 -2.7 -2.0 -2.25 -3.6 -2.0 -4.1 -1.75 -4.25 -0.8 -4.7 0.3 -4.5 5.45 -5.05 Q7.95 -5.75 9.7 -7.6 L9.7 -7.45 12.4 -5.5 12.4 -5.35 11.0 -5.35 9.75 -5.75 9.3 -6.05 9.45 -5.6 9.5 -5.3 Q9.45 -4.7 9.55 -4.2 L9.55 -3.6 9.5 -3.3 9.45 -2.7 9.45 -2.6 9.25 -1.7 9.25 -1.2 Q9.2 -0.65 9.4 -0.2 L9.65 0.25 Q9.55 -0.3 10.1 -0.95 11.9 1.3 11.0 3.95 10.9 2.65 9.95 1.7 9.1 0.75 7.8 0.5 L7.55 0.0 Q5.9 0.0 4.8 0.85 7.75 2.05 7.2 5.6 L7.2 6.0 Q5.5 4.4 3.2 3.05 L3.1 1.95 1.3 -1.55 1.2 1.6 Q1.2 2.75 0.5 3.8 L-0.9 1.2 -0.95 1.55 -0.9 4.8 -1.6 3.7 -2.25 2.1 Q-3.1 -0.05 -2.7 -2.0 -4.9 1.6 -3.15 5.8 L-3.3 6.0 -3.9 5.0 -5.05 2.55 -5.1 0.95 -5.0 -0.1 -6.3 1.45 Q-7.2 2.7 -7.3 3.7 L-7.05 0.95 Q-6.7 -0.25 -5.95 -0.85 L-5.95 -1.0 -7.6 0.35 Q-8.3 0.95 -9.35 1.15 -6.95 -2.4 -7.05 -6.75 L-7.05 -6.7 -7.0 -7.65 -7.2 -7.55 -7.6 -7.35 -8.2 -6.55 -8.55 -5.95 -8.5 -5.9 -8.6 -5.85 -8.65 -5.85 -8.45 -7.15 Q-8.25 -9.45 -6.25 -10.85 M-1.85 -4.35 L-1.95 -4.4 -1.7 -4.6 -1.85 -4.35 M9.65 -9.55 L9.65 -9.5 9.6 -9.5 9.65 -9.55 M8.4 -3.85 Q7.8 -0.85 9.7 0.55 L9.7 0.4 9.65 0.25 9.7 0.4 9.7 0.55 Q7.8 -0.85 8.4 -3.85" fill="#a39d82" fill-rule="evenodd" stroke="none"/>
      <path d="M-5.3 -7.7 Q-5.55 -7.7 -5.85 -8.15 L-6.15 -8.75 Q-6.1 -9.8 -2.85 -10.3 0.3 -10.8 3.15 -10.4 5.95 -9.9 7.15 -9.2 L7.6 -8.85 Q8.35 -8.25 8.3 -7.5 L8.15 -7.15 8.05 -7.15 7.6 -7.45 5.55 -8.15 Q2.75 -8.9 0.35 -9.05 L-3.7 -8.55 -4.65 -8.2 -4.7 -8.15 -5.3 -7.7 M7.9 0.75 L7.8 0.5 Q9.1 0.75 9.95 1.7 10.9 2.65 11.0 3.95 L10.95 4.05 10.9 4.05 10.65 3.7 8.3 1.95 8.2 1.4 7.9 0.75 M-1.6 3.7 L-3.15 5.8 Q-4.9 1.6 -2.7 -2.0 -3.1 -0.05 -2.25 2.1 L-1.6 3.7 M-5.05 2.55 L-6.25 3.4 -7.3 3.7 Q-7.2 2.7 -6.3 1.45 L-5.0 -0.1 -5.1 0.95 -5.05 2.55 M-7.05 0.95 L-7.9 1.25 -9.5 1.35 -9.35 1.15 Q-8.3 0.95 -7.6 0.35 L-5.95 -1.0 -5.95 -0.85 Q-6.7 -0.25 -7.05 0.95 M-7.05 -6.7 L-8.5 -5.9 -8.55 -5.95 -8.2 -6.55 -7.6 -7.35 -7.2 -7.55 -7.0 -7.65 -7.05 -6.7" fill="#706344" fill-rule="evenodd" stroke="none"/>
      <path d="M-2.0 -4.1 L-1.85 -4.35 -1.75 -4.25 -2.0 -4.1 M7.2 6.0 L7.4 6.05 7.2 6.45 7.2 6.0" fill="#bdb697" fill-rule="evenodd" stroke="none"/>
      <path d="M8.05 -7.15 L8.15 -7.05 8.1 -7.05 8.05 -7.15" fill="#081e20" fill-rule="evenodd" stroke="none"/>
      <path d="M-1.95 -4.4 L-2.4 -5.3 -2.65 -5.5 -3.3 -6.0 -4.2 -6.75 Q-4.85 -7.45 -5.25 -7.6 L-5.3 -7.7 -4.7 -8.15 -4.65 -8.2 -3.7 -8.55 0.35 -9.05 Q2.75 -8.9 5.55 -8.15 L7.6 -7.45 8.05 -7.15 8.1 -7.05 7.6 -6.85 5.45 -6.4 4.55 -6.3 3.3 -6.15 3.2 -6.1 1.9 -5.9 0.25 -5.55 -0.45 -5.25 -1.7 -4.6 -1.95 -4.4" fill="#14110c" fill-rule="evenodd" stroke="none"/>
      <path d="M-6.25 -10.85 L-8.05 -11.3 Q-3.15 -13.6 1.85 -11.85 L2.4 -11.65 2.75 -11.75 Q5.5 -12.5 7.6 -11.2 L8.1 -10.85 7.3 -10.65 7.6 -10.5 7.95 -10.35 8.4 -10.15 9.0 -9.85 9.45 -9.6 9.55 -9.6 Q9.55 -9.55 9.65 -9.55 L9.8 -9.4 10.4 -9.0 Q12.0 -7.65 12.4 -5.5 L9.7 -7.45 9.7 -7.6 Q7.95 -5.75 5.45 -5.05 L0.3 -4.5 -0.8 -4.7 -1.75 -4.25 -1.85 -4.35 -2.0 -4.1 -2.45 -3.75 -5.3 -5.9 Q-6.55 -6.8 -7.0 -7.65 L-7.3 -8.75 Q-7.3 -10.25 -5.4 -11.05 L-6.25 -10.85 M-1.95 -4.4 L-1.85 -4.35 -1.7 -4.6 -0.45 -5.25 0.25 -5.55 1.9 -5.9 3.2 -6.1 3.3 -6.15 4.55 -6.3 5.45 -6.4 7.6 -6.85 8.1 -7.05 8.15 -7.05 8.05 -7.15 8.15 -7.15 8.3 -7.5 Q8.35 -8.25 7.6 -8.85 L7.15 -9.2 Q5.95 -9.9 3.15 -10.4 0.3 -10.8 -2.85 -10.3 -6.1 -9.8 -6.15 -8.75 L-5.85 -8.15 Q-5.55 -7.7 -5.3 -7.7 L-5.25 -7.6 Q-4.85 -7.45 -4.2 -6.75 L-3.3 -6.0 -2.65 -5.5 -2.4 -5.3 -1.95 -4.4 M9.65 -9.55 L9.6 -9.5 9.65 -9.5 9.65 -9.55 M9.65 0.25 L9.4 -0.2 Q9.2 -0.65 9.25 -1.2 L9.25 -1.7 9.45 -2.6 9.45 -2.7 9.5 -3.3 9.55 -3.6 9.55 -4.2 Q9.45 -4.7 9.5 -5.3 L9.45 -5.6 9.3 -6.05 9.75 -5.75 11.0 -5.35 Q11.65 -3.45 10.55 -1.85 L10.1 -0.95 Q9.55 -0.3 9.65 0.25 M7.8 0.5 L7.9 0.75 8.2 1.4 8.3 1.95 7.6 5.4 7.55 5.55 7.4 6.05 7.2 6.0 7.2 5.6 Q7.75 2.05 4.8 0.85 5.9 0.0 7.55 0.0 L7.8 0.5 M3.2 3.05 Q3.35 5.4 1.85 7.3 L1.55 7.65 1.0 8.25 1.05 7.8 -0.9 4.8 -0.95 1.55 -0.9 1.2 0.5 3.8 Q1.2 2.75 1.2 1.6 L1.3 -1.55 3.1 1.95 3.2 3.05" fill="#ccc8b3" fill-rule="evenodd" stroke="none"/>
      <path d="M9.65 -9.55 Q9.55 -9.55 9.55 -9.6 L9.45 -9.6 9.0 -9.85 8.4 -10.15 7.95 -10.35 7.6 -10.5 7.3 -10.65 8.1 -10.85 7.6 -11.2 Q5.5 -12.5 2.75 -11.75 L2.4 -11.65 1.85 -11.85 Q-3.15 -13.6 -8.05 -11.3 L-6.25 -10.85 -5.4 -11.05 M-2.0 -4.1 L-1.85 -4.35 M-1.95 -4.4 L-2.4 -5.3 -2.65 -5.5 -3.3 -6.0 -4.2 -6.75 Q-4.85 -7.45 -5.25 -7.6 L-5.3 -7.7 -4.7 -8.15 M5.45 -6.4 L4.55 -6.3 3.3 -6.15 3.2 -6.1 1.9 -5.9 0.25 -5.55 -0.45 -5.25 -1.7 -4.6 -1.85 -4.35 M12.4 -5.5 Q12.0 -7.65 10.4 -9.0 M9.8 -9.4 L9.65 -9.55 M-4.65 -8.2 L-3.7 -8.55 0.35 -9.05 Q2.75 -8.9 5.55 -8.15 L7.6 -7.45 8.05 -7.15 M9.65 0.25 Q9.55 -0.3 10.1 -0.95 L10.55 -1.85 Q11.65 -3.45 11.0 -5.35 L9.75 -5.75 9.3 -6.05 M9.65 0.25 L9.7 0.4 9.7 0.55 Q7.8 -0.85 8.4 -3.85 M7.4 6.05 L7.55 5.55 7.6 5.4 8.3 1.95 8.2 1.4 7.9 0.75 M11.0 -5.35 L12.4 -5.35 12.4 -5.5 M11.0 3.95 L10.95 4.05 10.9 4.05 10.65 3.7 8.3 1.95 M7.4 6.05 L7.2 6.45 7.2 6.0 Q5.5 4.4 3.2 3.05 3.35 5.4 1.85 7.3 L1.55 7.65 1.0 8.25 1.05 7.8 -0.9 4.8 -1.6 3.7 -3.15 5.8 -3.3 6.0 -3.9 5.0 -5.05 2.55 -6.25 3.4 -7.3 3.7 -7.05 0.95 -7.9 1.25 -9.5 1.35 -9.35 1.15 Q-6.95 -2.4 -7.05 -6.75 L-7.05 -6.7 -8.5 -5.9 -8.6 -5.85 -8.65 -5.85 -8.45 -7.15 Q-8.25 -9.45 -6.25 -10.85 M3.1 1.95 L3.2 3.05 M10.1 -0.95 Q11.9 1.3 11.0 3.95 M-7.0 -7.65 L-7.05 -6.7 M-5.95 -1.0 L-5.95 -0.85 Q-6.7 -0.25 -7.05 0.95 M-1.7 -4.6 L-1.95 -4.4 M-2.0 -4.1 L-2.25 -3.6 -2.7 -2.0 Q-3.1 -0.05 -2.25 2.1 L-1.6 3.7 M-5.05 2.55 L-5.1 0.95 -5.0 -0.1" fill="none" stroke="#000000" stroke-linecap="round" stroke-linejoin="round" stroke-opacity="0.3019608" stroke-width="0.05"/>
      <path d="M-12.0 15.1 L-12.5 15.3 -12.6 15.3 -13.5 16.45 -13.65 16.15 -13.8 13.8 -13.2 13.25 -13.35 14.15 -11.4 13.1 -11.05 14.95 -11.15 14.95 -11.75 14.95 -12.0 15.1" fill="#a0946f" fill-rule="evenodd" stroke="none"/>
      <path d="M-13.65 16.15 L-14.4 14.5 Q-14.6 13.1 -14.05 12.5 L-13.1 12.25 -13.35 12.15 -13.1 12.1 -13.1 12.25 -13.0 12.1 -11.75 11.8 -11.4 13.1 -13.35 14.15 -13.2 13.25 -13.8 13.8 -13.65 16.15" fill="#c4c2bc" fill-rule="evenodd" stroke="none"/>
      <path d="M-13.35 12.15 L-13.1 11.95 Q-13.15 10.75 -12.2 10.55 L-11.7 10.65 -11.4 10.7 Q-10.8 10.95 -10.3 12.15 L-10.15 12.45 Q-9.8 13.45 -9.8 14.2 -9.8 15.85 -10.9 15.85 L-11.8 15.5 -12.0 15.1 -11.75 14.95 -11.15 14.95 -11.05 14.95 -11.4 13.1 -11.75 11.8 -13.0 12.1 -13.1 12.25 -13.1 12.1 -13.35 12.15 M-13.0 12.1 L-13.1 12.1 -13.0 12.1 M-13.1 11.95 L-13.1 12.1 -13.1 11.95" fill="#533659" fill-rule="evenodd" stroke="none"/>
      <path d="M-13.65 16.15 L-14.4 14.5 Q-14.6 13.1 -14.05 12.5 L-13.1 12.25 -13.35 12.15 M-12.0 15.1 L-12.5 15.3 -12.6 15.3 -13.5 16.45 -13.65 16.15 M-11.4 13.1 L-11.75 11.8 -13.0 12.1 M-13.1 12.1 L-13.35 12.15 M-13.1 12.1 L-13.0 12.1 M-11.4 13.1 L-11.05 14.95 -11.15 14.95 -11.75 14.95 -12.0 15.1" fill="none" stroke="#000000" stroke-linecap="round" stroke-linejoin="round" stroke-opacity="0.4" stroke-width="0.05"/>
      <path d="M-13.1 11.95 Q-13.15 10.75 -12.2 10.55 L-11.7 10.65 -11.4 10.7 M-10.15 12.45 Q-9.8 13.45 -9.8 14.2 -9.8 15.85 -10.9 15.85 L-11.8 15.5 -12.0 15.1 M-13.1 12.25 L-13.1 12.1 -13.1 11.95" fill="none" stroke="#000000" stroke-linecap="round" stroke-linejoin="round" stroke-opacity="0.3019608" stroke-width="0.05"/>
      <path d="M-11.4 10.7 Q-10.8 10.95 -10.3 12.15 L-10.15 12.45" fill="none" stroke="#000000" stroke-linecap="round" stroke-linejoin="round" stroke-opacity="0.0" stroke-width="0.05"/>
      <path d="M-7.7 18.2 L-8.45 17.3 -8.55 17.15 -8.55 17.1 -9.1 15.8 -9.25 14.95 -8.55 13.85 -6.9 13.65 -6.55 13.85 -6.9 16.35 -7.65 15.25 -7.7 18.2 M-8.45 17.3 L-8.55 17.1 -8.45 17.3" fill="#c4c2bc" fill-rule="evenodd" stroke="none"/>
      <path d="M-6.45 17.4 L-7.45 18.5 -7.7 18.2 -7.65 15.25 -6.9 16.35 -6.55 13.85 -5.4 14.6 -4.85 15.6 -6.45 17.4" fill="#a0946f" fill-rule="evenodd" stroke="none"/>
      <path d="M-4.45 13.25 Q-3.8 14.1 -3.8 14.9 -3.8 16.1 -4.65 16.75 -5.25 17.15 -6.45 17.4 L-4.85 15.6 -5.4 14.6 -6.55 13.85 -6.9 13.65 -8.55 13.85 -9.25 14.95 -9.1 15.8 -8.55 17.1 Q-10.1 16.65 -10.1 14.9 -10.1 13.5 -9.5 13.0 -8.9 12.5 -7.35 12.5 L-7.15 12.5 -6.8 12.6 -6.7 12.6 -5.3 12.4 -5.05 12.6 -4.45 13.25" fill="#533659" fill-rule="evenodd" stroke="none"/>
      <path d="M-6.45 17.4 L-7.45 18.5 -7.7 18.2 -8.45 17.3 -8.55 17.15 -8.55 17.1 M-6.55 13.85 L-6.9 13.65 -8.55 13.85 -9.25 14.95 -9.1 15.8 -8.55 17.1 M-6.45 17.4 L-4.85 15.6 -5.4 14.6 -6.55 13.85" fill="none" stroke="#000000" stroke-linecap="round" stroke-linejoin="round" stroke-opacity="0.4" stroke-width="0.05"/>
      <path d="M-4.45 13.25 Q-3.8 14.1 -3.8 14.9 -3.8 16.1 -4.65 16.75 -5.25 17.15 -6.45 17.4 M-8.55 17.1 Q-10.1 16.65 -10.1 14.9 -10.1 13.5 -9.5 13.0 -8.9 12.5 -7.35 12.5 L-7.15 12.5 -6.8 12.6 M-8.55 17.1 L-8.45 17.3" fill="none" stroke="#000000" stroke-linecap="round" stroke-linejoin="round" stroke-opacity="0.3019608" stroke-width="0.05"/>
      <path d="M1.15 12.8 Q1.6 13.35 1.6 14.15 L1.0 15.2 0.1 15.95 -2.6 16.6 -2.9 16.7 -3.0 16.7 Q-3.75 16.7 -4.3 16.05 -4.8 15.45 -4.8 14.65 -4.8 13.65 -3.8 12.7 -2.8 11.75 -1.95 11.75 L-1.9 11.75 -1.5 11.85 1.15 12.8" fill="#533659" fill-rule="evenodd" stroke="none"/>
      <path d="M1.15 12.8 Q1.6 13.35 1.6 14.15 L1.0 15.2 0.1 15.95 -2.6 16.6 -2.9 16.7 -3.0 16.7 Q-3.75 16.7 -4.3 16.05 -4.8 15.45 -4.8 14.65 -4.8 13.65 -3.8 12.7 -2.8 11.75 -1.95 11.75 L-1.9 11.75" fill="none" stroke="#000000" stroke-linecap="round" stroke-linejoin="round" stroke-opacity="0.3019608" stroke-width="0.05"/>
      <path d="M-1.25 18.5 Q-2.2 17.7 -2.8 16.55 L-3.25 15.6 -3.55 14.7 Q-3.4 13.6 -2.05 13.3 L-1.7 13.15 -2.15 15.55 -2.55 14.6 -2.5 16.25 -1.25 18.5" fill="#c4c2bc" fill-rule="evenodd" stroke="none"/>
      <path d="M-1.7 13.15 Q-0.55 12.8 0.2 14.25 L0.05 15.55 -0.3 16.65 Q-0.6 17.6 -1.25 18.5 L-2.5 16.25 -2.55 14.6 -2.15 15.55 -1.7 13.15" fill="#a0946f" fill-rule="evenodd" stroke="none"/>
      <path d="M-1.7 13.15 Q-0.55 12.8 0.2 14.25 L0.05 15.55 -0.3 16.65 Q-0.6 17.6 -1.25 18.5 -2.2 17.7 -2.8 16.55 L-3.25 15.6 -3.55 14.7 Q-3.4 13.6 -2.05 13.3 L-1.7 13.15 Z" fill="none" stroke="#000000" stroke-linecap="round" stroke-linejoin="round" stroke-opacity="0.4" stroke-width="0.05"/>
      <path d="M1.1 13.8 L1.0 13.85 Q-0.45 13.3 -1.65 12.3 L-1.65 12.2 Q-1.45 11.9 -1.1 11.95 L-0.5 12.1 Q1.05 12.4 1.1 13.8" fill="#79607e" fill-rule="evenodd" stroke="none"/>
      <path d="M-2.95 12.7 Q-2.75 12.35 -2.3 12.3 L-2.2 12.45 Q-2.0 13.35 -2.95 12.75 L-2.95 12.7" fill="#79607e" fill-rule="evenodd" stroke="none"/>
      <path d="M-9.15 13.3 Q-8.75 12.55 -7.9 12.5 -6.65 12.3 -6.15 13.25 L-9.15 13.35 -9.15 13.3" fill="#79607e" fill-rule="evenodd" stroke="none"/>
      <path d="M-12.1 11.2 Q-11.95 10.95 -11.7 10.95 L-11.7 11.0 Q-10.2 11.95 -11.2 13.2 L-11.25 13.15 Q-11.9 12.3 -12.1 11.25 L-12.1 11.2" fill="#79607e" fill-rule="evenodd" stroke="none"/>
    </g>
  </defs>
</svg>
