<?xml version="1.0" encoding="UTF-8" standalone="no"?>
<svg xmlns:xlink="http://www.w3.org/1999/xlink" height="440.0px" width="440.0px" xmlns="http://www.w3.org/2000/svg">
  <g transform="matrix(10.0, 0.0, 0.0, 10.0, 0.0, 0.0)">
    <use height="44.0" transform="matrix(1.0, 0.0, 0.0, 1.0, 0.0, 0.0)" width="44.0" xlink:href="#shape0"/>
    <use height="19.95" transform="matrix(1.0, 0.0, 0.0, 1.0, 1.5, 11.45)" width="26.5" xlink:href="#sprite0"/>
    <use height="18.7" transform="matrix(1.0, 0.0, 0.0, 1.0, 14.6, 16.0)" width="27.55" xlink:href="#sprite1"/>
  </g>
  <defs>
    <g id="shape0" transform="matrix(1.0, 0.0, 0.0, 1.0, 0.0, 0.0)">
      <path d="M44.0 44.0 L0.0 44.0 0.0 0.0 44.0 0.0 44.0 44.0" fill="#43adca" fill-opacity="0.0" fill-rule="evenodd" stroke="none"/>
      <path d="M27.3 16.5 L27.3 16.55 27.3 16.6 Q27.35 17.35 26.7 18.0 27.75 18.3 27.95 18.65 L27.9 19.05 27.7 20.55 28.6 20.65 Q29.45 20.35 31.35 18.15 32.9 16.3 33.9 16.1 L34.15 16.05 Q36.45 16.05 38.7 16.9 41.05 17.8 41.4 19.2 L41.45 19.55 41.5 19.65 41.7 21.25 41.95 22.25 41.95 22.45 41.65 23.25 42.15 26.75 Q42.0 26.55 42.05 26.7 L42.1 27.35 Q42.0 28.45 40.8 29.6 L40.8 29.8 40.25 30.05 39.35 30.7 38.55 31.2 36.1 32.4 Q33.85 33.4 31.25 34.0 L29.8 34.45 29.55 34.35 27.4 34.65 27.3 34.65 23.85 34.75 23.55 34.7 22.65 34.65 22.3 34.65 20.7 34.25 20.4 34.2 Q18.15 33.75 17.55 33.05 L17.45 32.9 17.35 32.7 15.85 30.15 14.95 30.75 11.5 31.4 11.2 31.4 6.7 31.1 5.1 30.7 4.95 30.65 Q3.85 30.2 3.7 29.6 L3.7 29.35 1.9 25.9 1.5 25.15 Q1.5 24.65 1.9 24.15 2.65 23.15 4.75 22.05 L2.6 23.3 2.15 22.25 1.85 21.55 Q1.85 21.0 2.0 20.9 L2.1 20.85 2.4 20.75 2.5 20.65 5.65 19.15 5.8 19.05 6.1 19.0 Q6.95 18.85 8.55 19.9 L8.7 20.0 9.15 20.25 9.6 20.1 Q8.85 19.3 8.85 18.55 8.85 18.2 9.2 17.75 L9.3 17.7 9.55 17.6 12.05 16.35 12.7 16.2 14.75 16.3 16.1 14.2 Q17.5 11.85 18.5 11.7 L18.65 11.7 19.55 11.55 23.1 11.75 Q25.6 12.2 26.15 13.5 L26.25 13.85 26.35 13.95 26.8 15.45 27.25 16.4 27.3 16.5 26.8 15.45 M26.25 13.85 L26.3 13.95 26.2 14.95 Q25.8 15.65 24.6 16.35 L22.3 17.65 25.75 17.75 26.7 18.0 M23.1 18.9 L23.15 19.75 22.35 20.0 Q21.8 20.05 21.3 19.7 L20.55 18.8 Q20.3 18.35 20.55 18.05 20.75 17.7 21.3 17.7 21.85 17.75 22.35 18.1 L23.1 18.9 M26.2 14.95 Q25.4 14.5 24.05 14.2 21.7 13.75 19.45 14.15 18.45 14.35 17.1 16.75 L18.75 17.05 19.85 17.25 21.35 17.55 21.8 17.65 22.3 17.65 M21.8 17.65 Q23.9 18.25 24.25 20.6 L24.45 20.5 27.35 19.45 27.9 19.05 M9.55 17.6 L11.8 17.65 12.5 17.75 16.05 18.4 18.3 18.85 18.45 18.85 Q20.8 19.3 21.3 21.6 L21.4 21.95 Q22.8 21.3 24.25 20.6 M21.4 21.95 L22.35 22.15 25.45 20.7 24.45 20.5 24.25 20.6 M26.05 24.6 L26.05 24.7 24.95 25.2 26.4 25.4 26.45 25.4 29.8 25.9 Q30.85 26.25 31.45 26.8 32.15 27.45 32.15 28.35 L32.1 28.9 34.95 27.85 36.15 27.35 36.1 27.05 36.15 27.05 Q35.8 24.3 33.2 23.6 L33.05 23.55 30.1 22.8 27.3 23.55 27.3 23.6 27.3 23.9 26.75 24.3 26.05 24.6 25.45 20.7 M36.15 27.05 L39.05 25.7 39.05 25.65 38.75 24.7 Q38.15 23.2 36.6 22.65 L36.1 22.45 34.6 22.05 33.5 21.8 32.5 21.55 31.4 21.25 30.15 20.95 28.6 20.65 M32.5 21.55 L34.95 20.35 39.55 20.25 40.1 20.4 Q40.6 20.6 40.9 20.9 L41.15 20.6 Q40.45 20.0 39.2 19.5 36.95 18.65 34.65 18.65 L34.0 18.85 Q33.15 19.25 31.85 20.75 L31.4 21.25 M27.3 23.55 L27.3 23.5 27.35 23.25 27.5 22.15 27.7 20.55 M27.3 23.5 L27.5 23.45 27.35 23.25 M30.1 22.8 L27.5 22.15 M37.1 23.2 L37.85 24.0 37.9 24.85 Q37.65 25.15 37.1 25.1 36.55 25.15 36.05 24.8 L35.3 23.9 Q35.05 23.45 35.3 23.15 35.5 22.8 36.05 22.8 L37.1 23.2 M41.45 19.55 L41.45 19.65 41.15 20.6 M41.95 22.45 L41.7 21.25 M38.75 24.7 L39.85 24.3 40.95 23.85 41.65 23.25 M40.95 23.85 L40.45 24.4 39.5 25.3 39.05 25.65 M40.9 20.9 L39.35 21.7 36.6 22.65 M36.1 27.05 L36.15 27.05 37.1 27.25 40.2 25.8 39.2 25.6 39.05 25.7 M40.8 29.6 L40.2 25.8 M37.1 27.25 L37.6 31.25 40.25 30.05 M36.2 28.05 L36.4 30.65 36.6 30.6 36.2 27.75 36.2 28.05 M36.15 27.35 L36.2 27.75 M32.1 28.9 L32.1 29.05 33.0 29.4 33.1 33.4 31.25 34.0 M36.6 30.6 L36.65 31.0 37.6 31.25 M24.95 25.2 L22.85 26.15 22.2 26.0 21.4 26.25 21.25 26.35 22.2 26.6 22.8 26.65 25.1 26.9 26.2 27.15 Q27.25 27.5 27.85 28.05 L27.9 28.05 28.5 28.3 M21.4 28.5 Q23.85 27.3 22.2 26.6 L21.1 26.4 19.05 27.8 19.05 29.05 17.25 29.65 17.95 29.8 18.3 29.9 20.1 30.25 20.45 30.3 20.9 30.3 21.4 30.35 21.75 30.4 25.45 30.3 28.45 29.8 28.55 29.8 28.55 29.6 Q28.55 28.7 27.85 28.05 24.95 27.05 21.8 28.65 M29.55 34.35 L28.85 34.1 28.85 33.8 28.45 33.9 28.35 31.5 28.55 29.8 M32.1 29.05 L32.05 29.05 28.8 30.1 29.75 30.45 33.0 29.4 M29.75 30.45 L29.8 34.45 M28.8 30.1 L28.85 33.8 M22.35 22.15 L22.85 26.15 M7.95 24.7 Q10.05 22.9 14.55 24.35 14.4 23.7 13.9 23.3 L12.25 22.65 11.15 22.55 8.85 22.6 6.05 22.3 5.55 22.0 4.75 22.05 M2.4 20.75 L2.5 20.7 Q3.4 20.6 5.1 21.7 L5.25 21.8 5.55 22.0 M9.6 20.1 L9.6 20.15 12.1 19.35 12.75 19.1 11.8 17.65 M14.55 24.35 L14.6 24.75 14.45 26.45 14.4 26.7 14.65 29.7 14.8 29.65 14.75 25.75 18.0 24.7 18.05 24.7 18.15 23.7 18.2 23.05 Q18.2 22.15 17.5 21.55 16.9 21.1 15.85 20.9 14.25 20.6 12.5 20.85 L12.45 20.85 Q10.75 21.05 9.4 20.4 L9.15 20.25 M5.45 22.35 Q9.3 23.05 7.45 24.55 M17.1 16.75 L15.4 16.4 14.75 16.3 M16.05 18.4 L12.1 19.35 M21.4 21.95 L21.35 21.95 21.45 22.6 21.85 25.6 21.9 25.9 22.2 26.0 M18.15 23.7 L18.9 23.1 19.3 22.85 19.8 22.5 19.9 22.45 Q21.0 21.7 21.3 21.6 M14.75 25.75 L15.7 26.1 18.95 25.05 18.05 24.7 M21.45 22.6 L21.45 23.15 21.65 25.7 21.85 25.6 M21.1 26.4 L21.25 26.35 M15.85 30.15 L15.95 30.05 15.75 30.1 14.8 29.75 14.8 29.65 M1.9 25.9 L2.9 26.55 3.1 26.55 3.1 26.6 4.8 27.0 4.85 27.0 5.45 27.15 5.75 27.15 9.9 27.4 10.85 27.35 14.1 26.65 14.45 26.45 M15.7 26.1 L15.75 30.1 M17.35 32.7 L17.55 33.05 M15.95 30.05 L17.25 29.65 M19.05 27.8 L18.95 25.05" fill="none" stroke="#000000" stroke-linecap="round" stroke-linejoin="round" stroke-opacity="0.3019608" stroke-width="0.7000000000000001"/>
    </g>
    <g id="sprite0" transform="matrix(1.0, 0.0, 0.0, 1.0, 13.25, 9.95)">
      <use height="19.95" transform="matrix(1.0, 0.0, 0.0, 1.0, -13.25, -9.95)" width="26.5" xlink:href="#shape1"/>
    </g>
    <g id="shape1" transform="matrix(1.0, 0.0, 0.0, 1.0, 13.25, 9.95)">
      <path d="M-3.9 5.9 L-0.65 5.2 2.75 2.7 4.15 1.65 4.55 1.4 5.05 1.05 5.15 1.0 Q6.25 0.25 6.55 0.15 L12.6 -2.0 13.15 -2.4 12.55 2.15 12.55 2.45 12.0 2.85 6.65 4.8 Q6.05 5.0 3.2 7.1 L0.2 9.3 -3.25 9.95 Q-0.9 7.95 -3.9 5.9" fill="#825600" fill-rule="evenodd" stroke="none"/>
      <path d="M13.15 -2.4 L12.6 -2.0 6.55 0.15 Q6.25 0.25 5.15 1.0 L5.05 1.05 4.55 1.4 4.15 1.65 2.75 2.7 -0.65 5.2 -3.9 5.9 -4.85 5.95 -9.0 5.7 -9.3 5.7 -9.9 5.55 -9.95 5.55 -11.65 5.15 -11.65 5.1 -11.85 5.1 -12.85 4.45 -13.25 3.7 Q-13.25 3.2 -12.85 2.7 -11.45 0.75 -5.0 -1.4 -0.65 -2.9 4.35 -3.5 L11.0 -3.7 Q12.95 -3.3 13.2 -2.8 L13.15 -2.4" fill="#be9500" fill-rule="evenodd" stroke="none"/>
      <path d="M-12.85 4.45 L-11.85 5.1 -11.65 5.1 -11.65 5.15 -9.95 5.55 -9.9 5.55 -9.3 5.7 -9.0 5.7 -4.85 5.95 -3.9 5.9 Q-0.9 7.95 -3.25 9.95 L-3.55 9.95 -8.05 9.65 -9.65 9.25 -9.8 9.2 Q-10.9 8.75 -11.05 8.15 L-11.05 7.9 -12.85 4.45" fill="#a87200" fill-rule="evenodd" stroke="none"/>
      <path d="M-3.9 5.9 L-0.65 5.2 2.75 2.7 4.15 1.65 4.55 1.4 5.05 1.05 5.15 1.0 Q6.25 0.25 6.55 0.15 L12.6 -2.0 13.15 -2.4 13.2 -2.8 Q12.95 -3.3 11.0 -3.7 L4.35 -3.5 Q-0.65 -2.9 -5.0 -1.4 -11.45 0.75 -12.85 2.7 -13.25 3.2 -13.25 3.7 L-12.85 4.45 -11.85 5.1 -11.65 5.1 -11.65 5.15 -9.95 5.55 -9.9 5.55 -9.3 5.7 -9.0 5.7 -4.85 5.95 -3.9 5.9 M-3.25 9.95 L0.2 9.3 3.2 7.1 Q6.05 5.0 6.65 4.8 L12.0 2.85 12.55 2.45 12.55 2.15 13.15 -2.4 M-12.85 4.45 L-11.05 7.9 -11.05 8.15 Q-10.9 8.75 -9.8 9.2 L-9.65 9.25 -8.05 9.65 -3.55 9.95 -3.25 9.95" fill="none" stroke="#000000" stroke-linecap="round" stroke-linejoin="round" stroke-opacity="0.3019608" stroke-width="0.05"/>
      <path d="M-9.3 0.9 Q-5.45 1.6 -7.3 3.1 M-6.8 3.25 Q-4.7 1.45 -0.35 2.9" fill="none" stroke="#000000" stroke-linecap="round" stroke-linejoin="round" stroke-opacity="0.4" stroke-width="0.05"/>
      <path d="M-2.6 -0.55 L-2.3 -0.6 -2.25 -0.6 -2.3 -0.55 -2.6 -0.4 -2.6 -0.55 M-8.45 0.95 L-8.7 0.85 -8.45 0.8 -8.45 0.95" fill="#ad2b00" fill-rule="evenodd" stroke="none"/>
      <path d="M-8.45 0.8 L-8.45 0.95 -8.45 0.8" fill="#0b7aa6" fill-rule="evenodd" stroke="none"/>
      <path d="M-12.25 -0.8 L-9.1 -2.3 -8.95 -2.4 -8.65 -2.45 Q-7.8 -2.6 -6.2 -1.55 L-6.05 -1.45 -5.35 -1.05 Q-5.55 -0.55 -6.35 0.0 -7.35 0.65 -8.45 0.8 L-8.7 0.85 -9.2 0.55 -9.65 0.25 Q-11.35 -0.85 -12.25 -0.75 L-12.25 -0.8 M-2.25 -0.6 Q-0.5 -0.85 1.1 -0.55 L2.75 0.1 Q2.5 0.45 1.3 1.05 L-0.85 1.85 Q-1.45 1.4 -2.5 1.2 L-3.6 1.1 -3.7 0.75 Q-3.7 0.25 -2.6 -0.4 L-2.3 -0.55 -2.25 -0.6" fill="#b711c3" fill-rule="evenodd" stroke="none"/>
      <path d="M-5.35 -1.05 Q-4.15 -0.45 -2.6 -0.55 L-2.6 -0.4 Q-3.7 0.25 -3.7 0.75 L-3.6 1.1 -5.9 1.15 -8.45 0.95 -8.45 0.8 Q-7.35 0.65 -6.35 0.0 -5.55 -0.55 -5.35 -1.05 M2.75 0.1 Q3.45 0.7 3.45 1.6 L3.25 3.5 3.55 5.9 3.6 6.65 -0.1 8.25 -0.35 5.25 -0.15 3.3 Q-0.15 2.4 -0.85 1.85 L1.3 1.05 Q2.5 0.45 2.75 0.1" fill="#880c91" fill-rule="evenodd" stroke="none"/>
      <path d="M-9.2 0.55 Q-10.0 0.25 -12.15 1.85 L-12.6 0.8 -12.9 0.1 -12.75 -0.55 -12.65 -0.6 -12.35 -0.7 -12.25 -0.75 Q-11.35 -0.85 -9.65 0.25 L-9.2 0.55" fill="#1d0220" fill-rule="evenodd" stroke="none"/>
      <path d="M-9.2 0.55 Q-10.0 0.25 -12.15 1.85 L-12.6 0.8 -12.9 0.1 -12.75 -0.55 -12.65 -0.6 -12.35 -0.7 -12.25 -0.8 -9.1 -2.3 -8.95 -2.4 -8.65 -2.45 Q-7.8 -2.6 -6.2 -1.55 L-6.05 -1.45 -5.35 -1.05 Q-4.15 -0.45 -2.6 -0.55 L-2.3 -0.6 -2.25 -0.6 Q-0.5 -0.85 1.1 -0.55 L2.75 0.1 Q3.45 0.7 3.45 1.6 L3.25 3.5 3.55 5.9 3.6 6.65 -0.1 8.25 -0.35 5.25 -0.15 3.3 Q-0.15 2.4 -0.85 1.85 -1.45 1.4 -2.5 1.2 L-3.6 1.1 -5.9 1.15 -8.45 0.95 -8.7 0.85 -9.2 0.55 -9.65 0.25 Q-11.35 -0.85 -12.25 -0.75 L-12.35 -0.7" fill="none" stroke="#000000" stroke-linecap="round" stroke-linejoin="round" stroke-opacity="0.3019608" stroke-width="0.05"/>
      <path d="M0.0 4.3 L3.25 3.25 4.2 3.6 0.95 4.65 0.0 4.3" fill="#a0a0a0" fill-rule="evenodd" stroke="none"/>
      <path d="M0.0 4.3 L0.95 4.65 1.0 8.65 0.05 8.3 0.0 4.3" fill="#7b7b7b" fill-rule="evenodd" stroke="none"/>
      <path d="M0.95 4.65 L4.2 3.6 4.3 7.6 1.0 8.65 0.95 4.65" fill="#666666" fill-rule="evenodd" stroke="none"/>
      <path d="M4.2 3.6 L3.25 3.25 0.0 4.3 M4.2 3.6 L4.3 7.6 1.0 8.65 0.05 8.3 0.0 4.3" fill="none" stroke="#000000" stroke-linecap="round" stroke-linejoin="round" stroke-opacity="0.3019608" stroke-width="0.05"/>
      <path d="M0.0 4.3 L0.95 4.65 4.2 3.6 M0.95 4.65 L1.0 8.65" fill="none" stroke="#d9d9d9" stroke-linecap="round" stroke-linejoin="round" stroke-opacity="0.3019608" stroke-width="0.05"/>
      <path d="M11.45 -6.5 L11.55 -7.5 11.6 -7.5 12.05 -6.0 12.55 -4.95 12.55 -4.9 12.55 -4.85 Q12.6 -3.6 10.8 -2.65 L7.75 -1.0 6.95 -3.5 9.85 -5.1 Q11.05 -5.8 11.45 -6.5" fill="#880c91" fill-rule="evenodd" stroke="none"/>
      <path d="M3.9 -9.75 L3.85 -9.15 Q3.85 -7.9 4.7 -7.3 3.7 -7.1 2.3 -4.7 L1.6 -3.55 -0.95 -4.25 Q-0.2 -4.65 1.35 -7.25 2.75 -9.6 3.75 -9.75 L3.9 -9.75" fill="#000000" fill-rule="evenodd" stroke="none"/>
      <path d="M4.7 -7.3 Q3.85 -7.9 3.85 -9.15 L3.9 -9.75 4.8 -9.9 8.35 -9.7 Q10.85 -9.25 11.4 -7.95 L11.5 -7.6 11.55 -7.5 11.45 -6.5 9.3 -7.25 Q6.95 -7.7 4.7 -7.3" fill="#3b0542" fill-rule="evenodd" stroke="none"/>
      <path d="M4.7 -7.3 Q6.95 -7.7 9.3 -7.25 L11.45 -6.5 11.55 -7.5 11.5 -7.6 11.4 -7.95 Q10.85 -9.25 8.35 -9.7 L4.8 -9.9 3.9 -9.75 3.75 -9.75 Q2.75 -9.6 1.35 -7.25 -0.2 -4.65 -0.95 -4.25 L1.6 -3.55 2.3 -4.7 Q3.7 -7.1 4.7 -7.3 M12.55 -4.95 L12.55 -4.9 12.55 -4.85 Q12.6 -3.6 10.8 -2.65 L7.75 -1.0 6.95 -3.5 9.85 -5.1 Q11.05 -5.8 11.45 -6.5 M11.6 -7.5 L11.5 -7.6 M12.55 -4.95 L12.05 -6.0 11.6 -7.5 M12.05 -6.0 L12.5 -5.05 12.55 -4.95" fill="none" stroke="#000000" stroke-linecap="round" stroke-linejoin="round" stroke-opacity="0.3019608" stroke-width="0.05"/>
      <path d="M3.55 -2.6 L3.65 -2.65 3.7 -2.6 3.55 -2.6" fill="#ad2b00" fill-rule="evenodd" stroke="none"/>
      <path d="M-5.2 -3.85 L-2.7 -5.1 -2.05 -5.25 0.65 -5.05 4.0 -4.4 5.1 -4.2 5.1 -4.15 Q5.1 -3.8 4.35 -3.15 L3.65 -2.65 3.55 -2.6 -2.25 -3.7 -2.95 -3.8 -5.2 -3.85" fill="#b711c3" fill-rule="evenodd" stroke="none"/>
      <path d="M3.65 -2.65 L4.35 -3.15 Q5.1 -3.8 5.1 -4.15 L5.1 -4.2 6.6 -3.9 Q9.65 -3.3 9.6 0.35 L9.75 2.8 6.9 4.25 6.7 1.7 Q6.75 -2.0 3.7 -2.6 L3.65 -2.65" fill="#880c91" fill-rule="evenodd" stroke="none"/>
      <path d="M-5.2 -3.85 L-2.95 -3.8 -2.0 -2.35 -5.15 -1.3 Q-5.9 -2.15 -5.9 -2.9 L-5.55 -3.7 -5.45 -3.75 -5.2 -3.85" fill="#1d0220" fill-rule="evenodd" stroke="none"/>
      <path d="M5.1 -4.2 L4.0 -4.4 0.65 -5.05 -2.05 -5.25 -2.7 -5.1 -5.2 -3.85 -2.95 -3.8 -2.25 -3.7 3.55 -2.6 M5.1 -4.2 L6.6 -3.9 Q9.65 -3.3 9.6 0.35 L9.75 2.8 6.9 4.25 6.7 1.7 Q6.75 -2.0 3.7 -2.6 L3.55 -2.6 M-5.2 -3.85 L-5.45 -3.75 -5.55 -3.7 -5.9 -2.9 Q-5.9 -2.15 -5.15 -1.3 L-2.0 -2.35 -2.95 -3.8" fill="none" stroke="#000000" stroke-linecap="round" stroke-linejoin="round" stroke-opacity="0.3019608" stroke-width="0.05"/>
      <path d="M6.6 0.5 L9.7 -0.95 10.7 -0.75 7.6 0.7 6.6 0.5" fill="#a0a0a0" fill-rule="evenodd" stroke="none"/>
      <path d="M6.6 0.5 L7.6 0.7 8.1 4.7 7.15 4.45 6.6 0.5" fill="#7b7b7b" fill-rule="evenodd" stroke="none"/>
      <path d="M7.6 0.7 L10.7 -0.75 11.3 3.25 8.1 4.7 7.6 0.7" fill="#666666" fill-rule="evenodd" stroke="none"/>
      <path d="M10.7 -0.75 L9.7 -0.95 6.6 0.5 M10.7 -0.75 L11.3 3.25 8.1 4.7 7.15 4.45 6.6 0.5" fill="none" stroke="#000000" stroke-linecap="round" stroke-linejoin="round" stroke-opacity="0.3019608" stroke-width="0.05"/>
      <path d="M6.6 0.5 L7.6 0.7 10.7 -0.75 M7.6 0.7 L8.1 4.7" fill="none" stroke="#d9d9d9" stroke-linecap="round" stroke-linejoin="round" stroke-opacity="0.3019608" stroke-width="0.05"/>
      <path d="M7.6 -1.45 Q7.05 -1.4 6.55 -1.75 L5.8 -2.65 Q5.55 -3.1 5.8 -3.4 6.0 -3.75 6.55 -3.75 L7.6 -3.35 8.35 -2.55 8.4 -1.7 Q8.15 -1.4 7.6 -1.45" fill="#a0a0a0" fill-rule="evenodd" stroke="none"/>
      <path d="M7.6 -1.45 Q7.05 -1.4 6.55 -1.75 L5.8 -2.65 Q5.55 -3.1 5.8 -3.4 6.0 -3.75 6.55 -3.75 L7.6 -3.35 8.35 -2.55 8.4 -1.7 Q8.15 -1.4 7.6 -1.45 Z" fill="none" stroke="#000000" stroke-linecap="round" stroke-linejoin="round" stroke-opacity="0.3019608" stroke-width="0.05"/>
      <path d="M7.0 -2.3 Q6.8 -2.45 6.75 -2.7 L6.65 -3.0 7.0 -3.1 7.35 -2.95 7.7 -2.6 7.7 -2.3 7.45 -2.25 7.0 -2.3" fill="#444444" fill-rule="evenodd" stroke="none"/>
    </g>
    <g id="sprite1" transform="matrix(1.0, 0.0, 0.0, 1.0, 13.75, 9.35)">
      <use height="18.7" transform="matrix(1.0, 0.0, 0.0, 1.0, -13.75, -9.35)" width="27.55" xlink:href="#shape2"/>
    </g>
    <g id="shape2" transform="matrix(1.0, 0.0, 0.0, 1.0, 13.75, 9.35)">
      <path d="M-1.05 9.25 L-4.5 9.35 -4.8 9.3 -5.7 9.25 -6.05 9.25 -7.65 8.85 -7.95 8.8 Q-10.2 8.35 -10.8 7.65 L-11.0 7.3 -13.55 3.0 Q-13.05 3.8 -10.4 4.4 L-10.05 4.5 -8.25 4.85 -7.9 4.9 -7.45 4.9 -6.95 4.95 -6.6 5.0 -2.9 4.9 Q-0.15 7.35 -1.05 9.25" fill="#c68600" fill-rule="evenodd" stroke="none"/>
      <path d="M-13.55 3.0 L-13.6 2.95 Q-14.1 2.2 -12.95 1.45 L-12.85 1.4 -6.35 -0.5 -3.25 -1.35 1.75 -2.6 Q5.85 -4.8 6.6 -5.05 L11.2 -5.15 11.75 -5.0 Q12.75 -4.6 13.05 -3.85 L13.15 -3.05 13.15 -3.0 Q13.05 -2.0 12.1 -1.0 L11.15 -0.1 10.15 0.6 9.3 1.15 6.6 2.45 Q3.65 3.75 0.1 4.4 L-2.9 4.9 -6.6 5.0 -6.95 4.95 -7.45 4.9 -7.9 4.9 -8.25 4.85 -10.05 4.5 -10.4 4.4 Q-13.05 3.8 -13.55 3.0" fill="#e0b000" fill-rule="evenodd" stroke="none"/>
      <path d="M13.15 -3.0 L13.8 1.35 Q13.65 1.15 13.7 1.3 L13.75 1.95 Q13.6 3.55 11.0 5.3 L10.2 5.8 7.75 7.0 Q5.0 8.2 1.7 8.85 L-0.95 9.25 -1.05 9.25 Q-0.15 7.35 -2.9 4.9 L0.1 4.4 Q3.65 3.75 6.6 2.45 L9.3 1.15 10.15 0.6 11.15 -0.1 12.1 -1.0 Q13.05 -2.0 13.15 -3.0" fill="#8c5d00" fill-rule="evenodd" stroke="none"/>
      <path d="M-13.55 3.0 L-13.6 2.95 Q-14.1 2.2 -12.95 1.45 L-12.85 1.4 -6.35 -0.5 -3.25 -1.35 1.75 -2.6 Q5.85 -4.8 6.6 -5.05 L11.2 -5.15 11.75 -5.0 Q12.75 -4.6 13.05 -3.85 L13.15 -3.05 13.15 -3.0 13.8 1.35 Q13.65 1.15 13.7 1.3 L13.75 1.95 Q13.6 3.55 11.0 5.3 L10.2 5.8 7.75 7.0 Q5.0 8.2 1.7 8.85 L-0.95 9.25 -1.05 9.25 -4.5 9.35 -4.8 9.3 -5.7 9.25 -6.05 9.25 -7.65 8.85 -7.95 8.8 Q-10.2 8.35 -10.8 7.65 L-10.9 7.5 -11.0 7.3 -13.55 3.0 Q-13.05 3.8 -10.4 4.4 L-10.05 4.5 -8.25 4.85 -7.9 4.9 -7.45 4.9 -6.95 4.95 -6.6 5.0 -2.9 4.9 0.1 4.4 Q3.65 3.75 6.6 2.45 L9.3 1.15 10.15 0.6 11.15 -0.1 12.1 -1.0 Q13.05 -2.0 13.15 -3.0 M-11.0 7.3 L-10.8 7.65" fill="none" stroke="#000000" stroke-linecap="round" stroke-linejoin="round" stroke-opacity="0.3019608" stroke-width="0.05"/>
      <path d="M-6.55 3.25 Q-3.05 1.45 0.15 2.9 M-7.2 0.9 Q-3.9 1.6 -6.95 3.1" fill="none" stroke="#000000" stroke-linecap="round" stroke-linejoin="round" stroke-opacity="0.4" stroke-width="0.05"/>
      <path d="M12.8 -4.8 L13.1 -5.75 13.15 -5.75 13.35 -4.15 13.6 -2.95 Q13.45 -1.75 11.5 -1.1 L8.2 0.0 7.85 -2.65 11.0 -3.7 Q12.3 -4.15 12.8 -4.8" fill="#a00fab" fill-rule="evenodd" stroke="none"/>
      <path d="M5.65 -6.55 Q5.4 -7.15 5.4 -8.1 5.4 -8.85 5.55 -9.3 L5.8 -9.35 Q8.1 -9.35 10.35 -8.5 12.7 -7.6 13.05 -6.2 L13.1 -5.85 13.1 -5.75 12.8 -4.8 Q12.1 -5.4 10.85 -5.9 8.6 -6.75 6.3 -6.75 L5.65 -6.55" fill="#46064d" fill-rule="evenodd" stroke="none"/>
      <path d="M5.55 -9.3 Q5.4 -8.85 5.4 -8.1 5.4 -7.15 5.65 -6.55 4.8 -6.15 3.5 -4.65 L1.8 -2.85 0.2 -4.75 Q1.05 -5.0 3.0 -7.25 4.55 -9.1 5.55 -9.3" fill="#330438" fill-rule="evenodd" stroke="none"/>
      <path d="M5.55 -9.3 Q4.55 -9.1 3.0 -7.25 1.05 -5.0 0.2 -4.75 L1.8 -2.85 3.5 -4.65 Q4.8 -6.15 5.65 -6.55 L6.3 -6.75 Q8.6 -6.75 10.85 -5.9 12.1 -5.4 12.8 -4.8 L13.1 -5.75 13.1 -5.85 13.05 -6.2 Q12.7 -7.6 10.35 -8.5 8.1 -9.35 5.8 -9.35 L5.55 -9.3 M12.8 -4.8 Q12.3 -4.15 11.0 -3.7 L7.85 -2.65 8.2 0.0 11.5 -1.1 Q13.45 -1.75 13.6 -2.95 L13.35 -4.15 13.15 -5.75 13.1 -5.85 M13.35 -4.15 L13.6 -3.15 13.6 -2.95" fill="none" stroke="#000000" stroke-linecap="round" stroke-linejoin="round" stroke-opacity="0.3019608" stroke-width="0.05"/>
      <path d="M4.85 -1.8 L4.7 -1.85 4.8 -1.9 4.85 -1.8 M6.25 -3.35 L6.3 -3.35 6.25 -3.3 6.25 -3.35" fill="#cc3300" fill-rule="evenodd" stroke="none"/>
      <path d="M-1.8 -3.45 L-0.85 -1.95 -4.0 -1.1 Q-4.75 -2.0 -4.75 -2.75 L-4.4 -3.5 -4.3 -3.55 -4.05 -3.65 -1.8 -3.45" fill="#230326" fill-rule="evenodd" stroke="none"/>
      <path d="M4.8 -1.9 L4.7 -1.85 -1.1 -3.3 -1.8 -3.45 -4.05 -3.65 -1.55 -4.75 -0.9 -4.85 1.8 -4.45 5.15 -3.6 6.25 -3.35 6.25 -3.3 Q6.25 -2.95 5.5 -2.35 L4.8 -1.9" fill="#d714e6" fill-rule="evenodd" stroke="none"/>
      <path d="M4.85 -1.8 L4.8 -1.9 5.5 -2.35 Q6.25 -2.95 6.25 -3.3 L6.3 -3.35 7.75 -2.95 Q10.8 -2.15 10.75 1.5 L10.9 3.95 8.05 5.25 7.85 2.65 Q7.9 -1.0 4.85 -1.8" fill="#a00fab" fill-rule="evenodd" stroke="none"/>
      <path d="M4.7 -1.85 L4.85 -1.8 M4.7 -1.85 L-1.1 -3.3 -1.8 -3.45 -0.85 -1.95 -4.0 -1.1 Q-4.75 -2.0 -4.75 -2.75 L-4.4 -3.5 -4.3 -3.55 -4.05 -3.65 -1.55 -4.75 -0.9 -4.85 1.8 -4.45 5.15 -3.6 6.25 -3.35 6.3 -3.35 7.75 -2.95 Q10.8 -2.15 10.75 1.5 L10.9 3.95 8.05 5.25 7.85 2.65 Q7.9 -1.0 4.85 -1.8 M-4.05 -3.65 L-1.8 -3.45" fill="none" stroke="#000000" stroke-linecap="round" stroke-linejoin="round" stroke-opacity="0.3019608" stroke-width="0.05"/>
      <path d="M-1.95 0.0 L-1.9 0.0 -1.95 0.05 -1.95 0.0 M-8.15 0.65 L-8.35 0.55 -8.1 0.55 -8.15 0.65" fill="#cc3300" fill-rule="evenodd" stroke="none"/>
      <path d="M-8.1 0.65 L-8.15 0.65 -8.1 0.55 -8.1 0.65" fill="#0e9cd4" fill-rule="evenodd" stroke="none"/>
      <path d="M-11.9 -1.55 L-8.75 -2.65 -8.6 -2.7 -8.3 -2.75 Q-7.45 -2.75 -5.85 -1.5 L-5.7 -1.4 -5.0 -0.9 Q-5.2 -0.4 -6.0 0.05 -7.0 0.55 -8.1 0.55 L-8.35 0.55 -8.85 0.2 -9.3 -0.15 Q-11.0 -1.5 -11.9 -1.5 L-11.9 -1.55 M-1.9 0.0 Q-0.15 0.0 1.45 0.5 2.5 0.85 3.1 1.4 L1.65 2.15 -0.5 2.65 Q-1.1 2.1 -2.15 1.75 L-3.25 1.5 -3.35 1.15 Q-3.35 0.65 -2.25 0.15 L-1.95 0.05 -1.9 0.0" fill="#d714e6" fill-rule="evenodd" stroke="none"/>
      <path d="M-8.85 0.2 L-11.9 1.0 -12.25 0.0 -12.55 -0.75 -12.4 -1.4 -12.3 -1.45 -12.0 -1.5 -11.9 -1.5 Q-11.0 -1.5 -9.3 -0.15 L-8.85 0.2" fill="#230326" fill-rule="evenodd" stroke="none"/>
      <path d="M-5.0 -0.9 Q-3.65 -0.05 -1.95 0.0 L-1.95 0.05 -2.25 0.15 Q-3.35 0.65 -3.35 1.15 L-3.25 1.5 -5.55 1.25 Q-6.95 1.2 -8.1 0.65 L-8.1 0.55 Q-7.0 0.55 -6.0 0.05 -5.2 -0.4 -5.0 -0.9 M3.1 1.4 Q3.8 2.05 3.8 2.95 L3.6 4.85 3.9 7.3 3.85 7.3 0.1 8.5 0.0 6.1 0.2 4.2 Q0.2 3.3 -0.5 2.65 L1.65 2.15 3.1 1.4" fill="#a00fab" fill-rule="evenodd" stroke="none"/>
      <path d="M-8.85 0.2 L-11.9 1.0 -12.25 0.0 -12.55 -0.75 -12.4 -1.4 -12.3 -1.45 -12.0 -1.5 -11.9 -1.55 -8.75 -2.65 -8.6 -2.7 -8.3 -2.75 Q-7.45 -2.75 -5.85 -1.5 L-5.7 -1.4 -5.0 -0.9 Q-3.65 -0.05 -1.95 0.0 L-1.9 0.0 Q-0.15 0.0 1.45 0.5 2.5 0.85 3.1 1.4 3.8 2.05 3.8 2.95 L3.6 4.85 3.9 7.3 3.85 7.3 0.1 8.5 0.0 6.1 0.2 4.2 Q0.2 3.3 -0.5 2.65 -1.1 2.1 -2.15 1.75 L-3.25 1.5 -5.55 1.25 Q-6.95 1.2 -8.1 0.65 L-8.15 0.65 -8.35 0.55 -8.85 0.2 -9.3 -0.15 Q-11.0 -1.5 -11.9 -1.5 L-12.0 -1.5" fill="none" stroke="#000000" stroke-linecap="round" stroke-linejoin="round" stroke-opacity="0.3019608" stroke-width="0.05"/>
      <path d="M0.45 4.7 L3.7 3.65 4.65 4.0 1.4 5.05 0.45 4.7" fill="#bdbdbd" fill-rule="evenodd" stroke="none"/>
      <path d="M0.45 4.7 L1.4 5.05 1.45 9.05 0.5 8.7 0.45 4.7" fill="#919191" fill-rule="evenodd" stroke="none"/>
      <path d="M1.4 5.05 L4.65 4.0 4.75 8.0 1.45 9.05 1.4 5.05" fill="#787878" fill-rule="evenodd" stroke="none"/>
      <path d="M4.65 4.0 L3.7 3.65 0.45 4.7 M4.65 4.0 L4.75 8.0 1.45 9.05 0.5 8.7 0.45 4.7" fill="none" stroke="#000000" stroke-linecap="round" stroke-linejoin="round" stroke-opacity="0.3019608" stroke-width="0.05"/>
      <path d="M0.45 4.7 L1.4 5.05 4.65 4.0 M1.4 5.05 L1.45 9.05" fill="none" stroke="#ffffff" stroke-linecap="round" stroke-linejoin="round" stroke-opacity="0.3019608" stroke-width="0.05"/>
      <path d="M11.85 0.4 L8.75 1.85 7.75 1.65 Q9.35 0.95 10.85 0.2 L11.85 0.4" fill="#bdbdbd" fill-rule="evenodd" stroke="none"/>
      <path d="M8.75 1.85 L9.25 5.85 8.3 5.6 7.75 1.65 8.75 1.85" fill="#919191" fill-rule="evenodd" stroke="none"/>
      <path d="M9.25 5.85 L8.75 1.85 11.85 0.4 12.45 4.4 9.25 5.85" fill="#787878" fill-rule="evenodd" stroke="none"/>
      <path d="M9.25 5.85 L12.45 4.4 11.85 0.4 10.85 0.2 Q9.35 0.95 7.75 1.65 L8.3 5.6 9.25 5.85" fill="none" stroke="#000000" stroke-linecap="round" stroke-linejoin="round" stroke-opacity="0.3019608" stroke-width="0.05"/>
      <path d="M8.75 1.85 L9.25 5.85 M11.85 0.4 L8.75 1.85 7.75 1.65" fill="none" stroke="#ffffff" stroke-linecap="round" stroke-linejoin="round" stroke-opacity="0.3019608" stroke-width="0.05"/>
      <path d="M8.75 -0.3 Q8.2 -0.25 7.7 -0.6 7.2 -0.95 6.95 -1.5 6.7 -1.95 6.95 -2.25 7.15 -2.6 7.7 -2.6 L8.75 -2.2 9.5 -1.4 9.55 -0.55 Q9.3 -0.25 8.75 -0.3" fill="#bdbdbd" fill-rule="evenodd" stroke="none"/>
      <path d="M8.75 -0.3 Q8.2 -0.25 7.7 -0.6 7.2 -0.95 6.95 -1.5 6.7 -1.95 6.95 -2.25 7.15 -2.6 7.7 -2.6 L8.75 -2.2 9.5 -1.4 9.55 -0.55 Q9.3 -0.25 8.75 -0.3 Z" fill="none" stroke="#000000" stroke-linecap="round" stroke-linejoin="round" stroke-opacity="0.3019608" stroke-width="0.05"/>
      <path d="M8.15 -1.15 L7.9 -1.55 7.8 -1.85 8.15 -1.95 8.5 -1.8 8.85 -1.45 8.85 -1.15 8.6 -1.1 8.15 -1.15" fill="#515151" fill-rule="evenodd" stroke="none"/>
    </g>
  </defs>
</svg>
