<?xml version="1.0" encoding="UTF-8" standalone="no"?>
<svg xmlns:xlink="http://www.w3.org/1999/xlink" height="440.0px" width="440.0px" xmlns="http://www.w3.org/2000/svg">
  <g transform="matrix(10.0, 0.0, 0.0, 10.0, 0.0, 0.0)">
    <use height="44.0" transform="matrix(1.0, 0.0, 0.0, 1.0, 0.0, 0.0)" width="44.0" xlink:href="#shape0"/>
    <use height="5.45" transform="matrix(-0.0737, -0.9277, 0.9277, -0.0737, 14.361, 25.4116)" width="5.5" xlink:href="#sprite0"/>
    <use height="8.3" transform="matrix(1.0, 0.0, 0.0, 1.0, 7.8, 31.15)" width="7.25" xlink:href="#shape2"/>
    <use height="14.6" transform="matrix(-0.3881, -1.0908, 0.9187, -0.3316, 11.9966, 39.2564)" width="12.9" xlink:href="#sprite1"/>
    <use height="1.3" transform="matrix(-0.3102, -3.8472, 2.9551, -1.0666, 14.8009, 32.393)" width="1.3" xlink:href="#sprite2"/>
    <use height="29.95" transform="matrix(1.0, 0.0, 0.0, 1.0, 1.9, 1.9)" width="39.7" xlink:href="#shape4"/>
  </g>
  <defs>
    <g id="shape0" transform="matrix(1.0, 0.0, 0.0, 1.0, 0.0, 0.0)">
      <path d="M44.0 44.0 L0.0 44.0 0.0 0.0 44.0 0.0 44.0 44.0" fill="#43adca" fill-opacity="0.0" fill-rule="evenodd" stroke="none"/>
      <path d="M41.35 20.5 Q40.8 20.55 39.6 21.05 L39.1 21.25 39.6 24.95 38.1 24.65 38.05 24.8 38.2 25.2 37.95 26.0 37.0 26.75 36.3 27.0 36.3 27.55 36.2 30.15 33.65 27.85 Q33.55 29.7 33.05 31.85 L33.0 31.85 30.15 28.65 28.7 26.9 22.25 25.3 21.55 25.05 21.55 25.1 21.6 25.1 21.65 25.15 Q21.25 26.0 20.8 26.05 L20.6 25.95 20.5 25.9 20.4 25.85 20.7 26.3 Q21.6 27.6 21.6 29.3 L21.5 30.45 21.4 30.85 Q21.15 32.05 21.6 33.2 L21.7 33.25 23.15 34.25 23.35 34.5 23.75 35.45 23.75 35.9 Q23.75 36.75 23.1 37.5 L21.7 38.5 21.2 38.75 20.8 38.95 19.8 39.25 19.0 40.5 Q18.15 41.4 16.95 41.4 15.75 41.4 14.85 40.5 14.35 40.0 14.15 39.35 L11.7 38.5 Q9.6 37.45 9.6 35.9 9.6 34.3 11.7 33.25 L11.8 33.2 Q12.1 32.25 12.0 31.25 L11.8 30.35 11.7 29.3 Q11.7 27.1 13.1 25.55 13.85 24.75 14.85 24.4 L14.35 23.6 14.25 23.15 14.15 22.85 14.15 22.75 13.0 22.2 12.95 22.2 Q12.3 22.3 11.95 20.75 L11.0 20.15 9.95 19.5 Q7.85 21.55 6.55 22.0 L6.5 22.0 6.7 18.05 5.9 18.25 Q4.0 18.8 3.25 19.1 L2.8 19.35 Q3.05 18.55 5.45 15.6 L6.6 14.3 6.85 12.35 4.7 12.1 2.7 11.5 4.9 10.15 Q3.5 9.75 1.9 8.95 L1.95 8.9 Q2.25 8.65 4.9 7.5 L7.55 6.4 7.85 4.0 7.85 3.9 Q7.85 3.6 8.0 3.4 8.5 1.75 12.1 1.9 16.35 2.0 20.25 5.1 24.15 8.1 31.95 10.0 39.7 11.85 39.7 13.95 L39.7 14.1 39.7 14.45 39.2 17.8 39.65 18.25 Q41.4 19.85 41.6 20.5 L41.35 20.5 M21.55 25.05 Q21.3 24.6 21.2 23.4 20.9 21.5 20.9 19.15 L21.2 15.95 21.3 14.95 Q21.55 13.6 21.8 13.4 L21.85 13.35 22.1 13.4 21.9 12.9 21.55 12.35 21.0 12.35 20.8 12.5 20.5 12.9 Q20.15 13.4 19.9 14.4 L19.65 15.55 Q19.35 17.25 19.3 19.35 19.25 22.15 19.65 24.25 L19.7 24.4 Q19.85 25.15 20.1 25.5 L20.15 25.55 20.35 25.8 20.4 25.85 M18.55 4.65 Q16.25 3.35 13.75 3.3 10.2 3.3 10.2 4.95 10.2 6.5 13.1 8.5 L13.3 8.4 13.4 8.4 13.85 8.6 21.0 12.35 21.2 12.25 21.55 12.35 M23.25 19.55 L25.75 19.25 26.65 19.2 29.6 19.15 30.15 19.15 Q29.8 18.4 26.85 16.15 L24.1 14.15 23.45 13.95 23.4 13.95 21.8 13.4 M21.9 12.9 L23.45 13.4 Q28.9 15.05 32.7 15.1 36.6 15.05 36.6 13.25 36.6 11.5 30.15 9.95 23.7 8.4 20.45 6.0 L19.05 4.95 M25.75 19.25 L26.4 23.5 26.35 23.5 Q24.65 23.45 21.55 21.55 M37.6 16.75 L39.2 17.8 M38.1 24.65 L36.8 23.9 M37.7 21.85 L38.6 21.45 39.1 21.25 M39.7 14.45 Q39.3 16.1 35.05 16.05 30.45 16.1 24.1 14.15 M33.65 27.85 L33.65 27.3 33.65 27.25 33.45 25.55 M26.85 24.9 L27.2 25.3 28.7 26.9 M36.3 27.0 Q36.2 25.1 35.5 24.35 M38.05 24.8 L37.95 26.0 M8.0 3.4 L7.85 4.0 Q7.95 6.1 12.5 8.9 L12.7 9.0 13.1 8.5 M11.95 20.75 L11.85 20.35 Q11.35 18.3 11.45 15.6 11.5 13.3 11.9 11.55 L12.1 10.55 Q12.35 9.55 12.7 9.0 M7.55 6.4 L8.1 6.15 8.4 6.0 M4.9 10.15 L5.35 10.3 6.75 10.5 M7.35 12.2 L6.85 12.35 M6.7 18.05 L7.8 17.75 8.95 17.5 M14.15 22.75 Q14.1 21.8 14.7 21.05 L14.2 20.45 Q13.7 19.6 13.7 18.35 13.7 17.1 14.2 16.1 14.7 15.15 15.4 15.1 16.05 15.0 16.55 15.8 17.05 16.65 17.05 17.9 17.05 19.1 16.6 20.1 L16.65 20.1 17.0 20.1 Q17.7 20.15 18.3 20.7 19.1 21.4 19.2 22.45 19.3 23.5 18.6 24.3 L18.6 24.35 18.55 24.45 Q19.4 24.8 20.1 25.5 M17.0 20.1 Q18.5 20.5 18.85 22.15 19.1 23.4 18.2 24.3 L17.95 24.5 Q17.25 25.05 16.15 24.85 L16.75 24.05 Q16.9 23.4 16.45 22.65 15.6 21.35 14.45 22.35 L14.95 21.2 14.7 21.05 M15.8 21.1 L15.4 21.25 14.95 21.2 M14.85 24.4 L15.0 24.55 15.0 24.6 Q15.85 25.3 16.85 25.2 17.85 25.15 18.55 24.45 M9.95 19.5 L10.65 18.75 M8.25 12.45 L6.6 14.3 M10.85 34.6 L11.8 33.2 M19.8 39.25 L18.05 39.5 M10.85 36.0 Q13.2 38.75 18.15 38.15 M19.8 37.8 L20.15 37.75" fill="none" stroke="#000000" stroke-linecap="round" stroke-linejoin="round" stroke-opacity="0.3019608" stroke-width="0.7000000000000001"/>
      <path d="M15.45 35.95 L15.45 36.0 15.45 35.95" fill="#9e5e04" fill-rule="evenodd" stroke="none"/>
      <path d="M15.45 36.0 L15.45 35.95 Q15.8 35.7 16.2 35.65 15.8 35.75 15.45 36.0" fill="#ffb80b" fill-rule="evenodd" stroke="none"/>
      <path d="M16.2 35.65 L16.95 35.5 Q18.15 35.5 19.0 36.4 19.9 37.25 19.9 38.45 19.9 39.65 19.0 40.5 18.15 41.4 16.95 41.4 15.75 41.4 14.85 40.5 14.0 39.65 14.0 38.45 14.0 37.25 14.85 36.4 15.1 36.15 15.45 36.0 15.8 35.75 16.2 35.65" fill="#b17c01" fill-rule="evenodd" stroke="none"/>
      <path d="M15.45 35.95 L15.45 36.0 Q15.1 36.15 14.85 36.4 14.0 37.25 14.0 38.45 14.0 39.65 14.85 40.5 15.75 41.4 16.95 41.4 18.15 41.4 19.0 40.5 19.9 39.65 19.9 38.45 19.9 37.25 19.0 36.4 18.15 35.5 16.95 35.5 L16.2 35.65 Q15.8 35.75 15.45 36.0 M16.2 35.65 Q15.8 35.7 15.45 35.95 Z" fill="none" stroke="#000000" stroke-linecap="round" stroke-linejoin="round" stroke-opacity="0.3019608" stroke-width="0.05"/>
      <path d="M15.05 36.25 Q15.5 35.95 15.9 35.8 16.8 35.55 17.6 36.1 18.35 36.65 18.55 37.55 18.7 38.55 18.1 39.4 17.55 40.35 16.65 40.55 L15.0 40.35 Q14.25 39.8 14.1 38.8 13.9 37.9 14.5 37.05 L15.05 36.25" fill="#ffb80b" fill-rule="evenodd" stroke="none"/>
      <path d="M21.7 33.25 L23.15 34.25 23.35 34.5 Q21.95 33.95 21.65 33.3 L21.7 33.25 M21.2 38.75 L20.8 38.95 16.7 39.55 Q13.75 39.55 11.7 38.5 9.6 37.45 9.6 35.9 9.6 34.3 11.7 33.25 L11.8 33.2 Q12.1 32.25 12.0 31.25 L11.8 30.35 11.7 29.3 Q11.7 27.1 13.1 25.55 14.55 24.05 16.65 24.05 18.7 24.05 20.15 25.55 L20.7 26.3 21.15 28.55 Q21.35 30.25 19.7 32.7 18.05 35.1 15.3 35.5 L22.85 35.25 23.0 35.0 23.0 35.1 23.0 35.45 23.0 35.75 Q22.9 36.7 22.0 37.5 L21.35 38.0 21.2 38.75 M11.8 33.2 L10.85 34.6 11.8 33.2" fill="#ffb80b" fill-rule="evenodd" stroke="none"/>
      <path d="M21.6 33.2 L21.7 33.25 21.65 33.3 21.6 33.2" fill="#d27e02" fill-rule="evenodd" stroke="none"/>
      <path d="M23.35 34.5 L23.75 35.45 23.75 35.9 Q23.75 36.75 23.1 37.5 L21.7 38.5 21.2 38.75 21.35 38.0 22.0 37.5 Q22.9 36.7 23.0 35.75 L23.0 35.45 23.0 35.1 23.0 35.0 22.85 35.25 15.3 35.5 Q18.05 35.1 19.7 32.7 21.35 30.25 21.15 28.55 L20.7 26.3 Q21.6 27.6 21.6 29.3 L21.5 30.45 21.4 30.85 Q21.15 32.05 21.6 33.2 L21.65 33.3 Q21.95 33.95 23.35 34.5" fill="#b17c01" fill-rule="evenodd" stroke="none"/>
      <path d="M21.7 33.25 L23.15 34.25 23.35 34.5 23.75 35.45 23.75 35.9 Q23.75 36.75 23.1 37.5 L21.7 38.5 21.2 38.75 20.8 38.95 16.7 39.55 Q13.75 39.55 11.7 38.5 9.6 37.45 9.6 35.9 9.6 34.3 11.7 33.25 L11.8 33.2 Q12.1 32.25 12.0 31.25 L11.8 30.35 11.7 29.3 Q11.7 27.1 13.1 25.55 14.55 24.05 16.65 24.05 18.7 24.05 20.15 25.55 L20.7 26.3 Q21.6 27.6 21.6 29.3 L21.5 30.45 21.4 30.85 Q21.15 32.05 21.6 33.2 L21.7 33.25 M10.85 34.6 L11.8 33.2" fill="none" stroke="#000000" stroke-linecap="round" stroke-linejoin="round" stroke-opacity="0.3019608" stroke-width="0.05"/>
      <path d="M16.55 26.5 Q16.75 27.5 16.3 28.75 15.85 29.95 15.05 30.65 14.95 30.65 14.9 30.75 L14.25 31.15 14.0 31.15 13.65 31.1 Q13.0 30.85 12.9 29.8 12.8 28.8 13.25 27.55 13.7 26.4 14.4 25.7 15.2 24.95 15.8 25.2 L16.2 25.35 16.25 25.5 16.55 26.35 16.55 26.5" fill="#ffffff" fill-rule="evenodd" stroke="none"/>
      <path d="M19.8 37.8 L20.15 37.75 M10.85 36.0 Q13.2 38.75 18.15 38.15" fill="none" stroke="#ffffff" stroke-linecap="round" stroke-linejoin="round" stroke-opacity="0.9411765" stroke-width="1.0"/>
    </g>
    <g id="sprite0" transform="matrix(1.0, 0.0, 0.0, 1.0, 2.75, 1.5)">
      <use height="5.45" transform="matrix(1.0, 0.0, 0.0, 1.0, -2.75, -1.5)" width="5.5" xlink:href="#shape1"/>
    </g>
    <g id="shape1" transform="matrix(1.0, 0.0, 0.0, 1.0, 2.75, 1.5)">
      <path d="M0.35 -0.8 L0.15 -0.4 Q0.0 -0.25 -0.3 -0.25 L-0.7 -0.4 -0.9 -0.8 -0.7 -1.15 -0.3 -1.3 0.15 -1.15 0.35 -0.8" fill="#ffffff" fill-rule="evenodd" stroke="none"/>
      <path d="M2.55 0.8 L2.5 1.35 2.45 1.7 Q1.8 1.45 1.85 1.15 1.85 0.8 2.55 0.8" fill="#bd954d" fill-rule="evenodd" stroke="none"/>
      <path d="M2.45 1.7 Q2.15 3.35 0.4 3.6 -1.2 3.75 -2.1 2.45 -2.6 1.6 -2.3 0.5 -1.4 1.75 0.05 0.95 1.5 0.15 0.55 -1.15 1.65 -0.8 2.4 0.15 L2.4 0.2 2.55 0.8 Q1.85 0.8 1.85 1.15 1.8 1.45 2.45 1.7" fill="#b17c01" fill-rule="evenodd" stroke="none"/>
      <path d="M0.35 -0.8 L0.15 -1.15 -0.3 -1.3 -0.7 -1.15 -0.9 -0.8 -0.7 -0.4 -0.3 -0.25 Q0.0 -0.25 0.15 -0.4 L0.35 -0.8 M0.0 -1.5 Q1.15 -1.5 1.95 -0.75 L2.55 0.1 2.65 0.5 2.75 1.2 2.75 1.4 Q2.7 2.45 1.95 3.15 1.15 3.95 0.0 3.95 -1.15 3.95 -1.95 3.15 L-2.0 3.1 Q-2.75 2.3 -2.75 1.2 -2.75 0.1 -1.95 -0.75 L-1.9 -0.75 -0.8 -1.35 -0.35 -1.45 0.0 -1.5 M2.55 0.8 L2.4 0.2 2.4 0.15 Q1.65 -0.8 0.55 -1.15 1.5 0.15 0.05 0.95 -1.4 1.75 -2.3 0.5 -2.6 1.6 -2.1 2.45 -1.2 3.75 0.4 3.6 2.15 3.35 2.45 1.7 L2.5 1.35 2.55 0.8" fill="#ffb80b" fill-rule="evenodd" stroke="none"/>
      <path d="M0.0 -1.5 L-0.35 -1.45 -0.8 -1.35 -1.9 -0.75 -1.95 -0.75 Q-2.75 0.1 -2.75 1.2 -2.75 2.3 -2.0 3.1 L-1.95 3.15 Q-1.15 3.95 0.0 3.95 1.15 3.95 1.95 3.15 2.7 2.45 2.75 1.4 L2.75 1.2 2.65 0.5 2.55 0.1 1.95 -0.75 Q1.15 -1.5 0.0 -1.5 M2.45 1.7 Q1.8 1.45 1.85 1.15 1.85 0.8 2.55 0.8" fill="none" stroke="#000000" stroke-linecap="round" stroke-linejoin="round" stroke-opacity="0.3019608" stroke-width="0.05"/>
      <path d="M2.05 2.2 L1.6 2.55 1.25 2.15 1.15 1.4 1.45 0.6 Q1.7 0.3 1.9 0.35 L2.25 0.65 2.4 1.45 2.05 2.2" fill="#42341f" fill-rule="evenodd" stroke="none"/>
    </g>
    <g id="shape2" transform="matrix(1.0, 0.0, 0.0, 1.0, -7.8, -31.15)">
      <path d="M10.9 36.25 L10.55 36.75 9.95 36.9 9.5 36.55 9.45 35.9 9.9 35.4 10.5 35.25 10.9 35.6 10.9 36.25" fill="#ffffff" fill-rule="evenodd" stroke="none"/>
      <path d="M10.9 36.25 L10.9 35.6 10.5 35.25 9.9 35.4 9.45 35.9 9.5 36.55 9.95 36.9 10.55 36.75 10.9 36.25 M10.8 37.35 L10.75 38.0 10.45 37.6 9.6 37.6 9.0 37.25 7.8 37.8 8.7 36.9 Q8.45 36.3 8.7 35.65 8.9 34.95 9.5 34.55 9.85 34.3 10.2 34.3 10.9 33.9 11.25 32.9 10.85 34.05 11.1 34.5 L11.6 35.05 Q11.85 35.65 11.6 36.3 L10.85 37.35 10.8 37.35" fill="#ffffff" fill-opacity="0.3019608" fill-rule="evenodd" stroke="none"/>
      <path d="M10.25 36.45 L8.9 37.45 9.95 35.75 9.0 33.7 10.35 35.6 15.05 31.15 10.7 36.05 12.25 39.45 10.25 36.45" fill="#ffffff" fill-rule="evenodd" stroke="none"/>
    </g>
    <g id="sprite1" transform="matrix(1.0, 0.0, 0.0, 1.0, 6.45, 7.3)">
      <use height="1.3" transform="matrix(9.9174, 3.1483, 0.0, 0.7797, -6.4422, -2.3886)" width="1.3" xlink:href="#sprite2"/>
      <use height="1.3" transform="matrix(-1.6617, -10.2577, 0.5943, -0.973, 0.8675, 7.3101)" width="1.3" xlink:href="#sprite2"/>
    </g>
    <g id="sprite2" transform="matrix(1.0, 0.0, 0.0, 1.0, 0.7, 0.75)">
      <use height="2.3" transform="matrix(0.5652, 0.0, 0.0, 0.5652, -0.7, -0.75)" width="2.3" xlink:href="#sprite3"/>
    </g>
    <g id="sprite3" transform="matrix(1.0, 0.0, 0.0, 1.0, 1.15, 1.15)">
      <use height="2.3" transform="matrix(1.0, 0.0, 0.0, 1.0, -1.15, -1.15)" width="2.3" xlink:href="#shape3"/>
    </g>
    <g id="shape3" transform="matrix(1.0, 0.0, 0.0, 1.0, 1.15, 1.15)">
      <path d="M0.8 0.8 Q0.5 1.15 0.0 1.15 -0.5 1.15 -0.85 0.8 L-1.15 0.0 -0.85 -0.85 Q-0.5 -1.15 0.0 -1.15 L0.8 -0.85 1.15 0.0 Q1.15 0.5 0.8 0.8" fill="url(#gradient0)" fill-rule="evenodd" stroke="none"/>
    </g>
    <radialGradient cx="0" cy="0" gradientTransform="matrix(0.0018, 0.0, 0.0, 0.0018, 0.0, 0.0)" gradientUnits="userSpaceOnUse" id="gradient0" r="819.2" spreadMethod="pad">
      <stop offset="0.0" stop-color="#fee3bc"/>
      <stop offset="0.5372549019607843" stop-color="#ffe3bd" stop-opacity="0.0"/>
    </radialGradient>
    <g id="shape4" transform="matrix(1.0, 0.0, 0.0, 1.0, -1.9, -1.9)">
      <path d="M7.85 4.0 L7.85 3.9 Q7.85 3.6 8.0 3.4 L7.85 4.0" fill="#996600" fill-rule="evenodd" stroke="none"/>
      <path d="M39.7 14.45 L38.05 24.8 37.95 26.0 37.0 26.75 33.5 27.25 Q28.85 27.4 22.25 25.3 15.65 23.15 11.0 20.15 6.35 17.3 6.35 15.2 L6.55 14.4 7.85 4.0 Q7.95 6.1 12.5 8.9 L16.8 11.35 17.95 11.85 Q20.65 13.05 23.8 14.05 30.35 16.1 35.05 16.05 39.3 16.1 39.7 14.45" fill="#855800" fill-rule="evenodd" stroke="none"/>
      <path d="M19.05 4.95 L20.45 6.0 Q23.7 8.4 30.15 9.95 36.6 11.5 36.6 13.25 36.6 15.05 32.7 15.1 28.9 15.05 23.45 13.4 L18.05 11.3 16.5 10.55 16.05 9.3 Q14.7 4.9 18.55 4.75 L18.55 4.65 18.7 4.75 19.05 4.95" fill="#593706" fill-rule="evenodd" stroke="none"/>
      <path d="M16.5 10.55 L14.1 9.15 Q10.2 6.75 10.2 4.95 10.2 3.3 13.75 3.3 16.25 3.35 18.55 4.65 L18.55 4.75 Q14.7 4.9 16.05 9.3 L16.5 10.55" fill="#452904" fill-rule="evenodd" stroke="none"/>
      <path d="M8.0 3.4 Q8.5 1.75 12.1 1.9 16.35 2.0 20.25 5.1 24.15 8.1 31.95 10.0 39.7 11.85 39.7 13.95 L39.7 14.1 39.7 14.45 Q39.3 16.1 35.05 16.05 30.35 16.1 23.8 14.05 20.65 13.05 17.95 11.85 L16.8 11.35 12.5 8.9 Q7.95 6.1 7.85 4.0 L8.0 3.4 M16.5 10.55 L18.05 11.3 23.45 13.4 Q28.9 15.05 32.7 15.1 36.6 15.05 36.6 13.25 36.6 11.5 30.15 9.95 23.7 8.4 20.45 6.0 L19.05 4.95 18.7 4.75 18.55 4.65 Q16.25 3.35 13.75 3.3 10.2 3.3 10.2 4.95 10.2 6.75 14.1 9.15 L16.5 10.55" fill="#c78a00" fill-rule="evenodd" stroke="none"/>
      <path d="M8.0 3.4 L7.85 4.0 Q7.95 6.1 12.5 8.9 L16.8 11.35 17.95 11.85 Q20.65 13.05 23.8 14.05 30.35 16.1 35.05 16.05 39.3 16.1 39.7 14.45 M19.05 4.95 L20.45 6.0 Q23.7 8.4 30.15 9.95 36.6 11.5 36.6 13.25 36.6 15.05 32.7 15.1 28.9 15.05 23.45 13.4 L18.05 11.3 16.5 10.55 14.1 9.15 Q10.2 6.75 10.2 4.95 10.2 3.3 13.75 3.3 16.25 3.35 18.55 4.65 L18.7 4.75" fill="none" stroke="#000000" stroke-linecap="round" stroke-linejoin="round" stroke-opacity="0.101960786" stroke-width="0.05"/>
      <path d="M8.0 3.4 Q8.5 1.75 12.1 1.9 16.35 2.0 20.25 5.1 24.15 8.1 31.95 10.0 39.7 11.85 39.7 13.95 L39.7 14.1 39.7 14.45 38.05 24.8 38.2 25.2 37.95 26.0 37.0 26.75 33.5 27.25 Q28.85 27.4 22.25 25.3 15.65 23.15 11.0 20.15 6.35 17.3 6.35 15.2 L6.55 14.4 7.85 4.0 7.85 3.9 Q7.85 3.6 8.0 3.4 M38.05 24.8 L37.95 26.0" fill="none" stroke="#000000" stroke-linecap="round" stroke-linejoin="round" stroke-opacity="0.3019608" stroke-width="0.05"/>
      <path d="M21.55 12.35 L21.0 12.35 21.2 12.25 21.55 12.35" fill="#ffb80b" fill-rule="evenodd" stroke="none"/>
      <path d="M19.65 15.55 Q19.35 17.25 19.3 19.35 19.25 22.15 19.65 24.25 19.95 25.65 20.5 25.9 L13.0 22.2 12.95 22.2 Q12.25 22.3 11.85 20.35 11.35 18.3 11.45 15.6 11.5 13.3 11.9 11.55 16.4 12.15 19.65 15.55" fill="#b3a77b" fill-rule="evenodd" stroke="none"/>
      <path d="M21.0 12.35 Q20.4 12.55 19.9 14.4 L19.65 15.55 Q16.4 12.15 11.9 11.55 L12.1 10.55 Q12.65 8.5 13.3 8.4 L13.4 8.4 13.85 8.6 21.0 12.35" fill="#e3dece" fill-rule="evenodd" stroke="none"/>
      <path d="M21.55 12.35 L22.1 13.4 21.85 13.35 Q21.55 13.45 21.3 14.95 L21.2 15.95 20.9 19.15 Q20.9 21.5 21.2 23.4 21.3 24.65 21.55 25.1 L21.6 25.1 21.65 25.15 Q21.25 26.0 20.8 26.05 L20.6 25.95 20.5 25.9 Q19.95 25.65 19.65 24.25 19.25 22.15 19.3 19.35 19.35 17.25 19.65 15.55 L19.9 14.4 Q20.4 12.55 21.0 12.35 L21.55 12.35" fill="#595138" fill-rule="evenodd" stroke="none"/>
      <path d="M20.5 25.9 L20.6 25.95 20.8 26.05 Q21.25 26.0 21.65 25.15 L21.6 25.1 21.55 25.1 Q21.3 24.65 21.2 23.4 20.9 21.5 20.9 19.15 L21.2 15.95 21.3 14.95 Q21.55 13.45 21.85 13.35 L22.1 13.4 21.55 12.35 21.0 12.35 Q20.4 12.55 19.9 14.4 L19.65 15.55 Q19.35 17.25 19.3 19.35 19.25 22.15 19.65 24.25 19.95 25.65 20.5 25.9 L13.0 22.2 12.95 22.2 Q12.25 22.3 11.85 20.35 11.35 18.3 11.45 15.6 11.5 13.3 11.9 11.55 L12.1 10.55 Q12.65 8.5 13.3 8.4 L13.4 8.4 13.85 8.6 21.0 12.35 21.2 12.25 21.55 12.35" fill="none" stroke="#000000" stroke-linecap="round" stroke-linejoin="round" stroke-opacity="0.3019608" stroke-width="0.05"/>
      <path d="M14.2 20.45 Q13.7 19.6 13.7 18.35 13.7 17.1 14.2 16.1 14.7 15.15 15.4 15.1 16.05 15.0 16.55 15.8 17.05 16.65 17.05 17.9 17.05 19.15 16.55 20.15 16.05 21.15 15.4 21.25 14.7 21.3 14.2 20.45" fill="#70684d" fill-rule="evenodd" stroke="none"/>
      <path d="M14.2 20.45 Q13.7 19.6 13.7 18.35 13.7 17.1 14.2 16.1 14.7 15.15 15.4 15.1 16.05 15.0 16.55 15.8 17.05 16.65 17.05 17.9 17.05 19.15 16.55 20.15 16.05 21.15 15.4 21.25 14.7 21.3 14.2 20.45 Z" fill="none" stroke="#000000" stroke-linecap="round" stroke-linejoin="round" stroke-opacity="0.3019608" stroke-width="0.05"/>
      <path d="M14.3 18.1 L14.1 17.25 14.3 16.45 Q14.55 16.05 14.85 16.0 L15.35 16.3 15.6 17.1 15.35 17.95 14.85 18.35 Q14.55 18.4 14.3 18.1" fill="#e3dece" fill-rule="evenodd" stroke="none"/>
      <path d="M35.4 24.25 L35.5 24.35 Q36.3 25.2 36.3 27.55 L36.2 30.15 33.65 27.85 Q33.55 29.7 33.05 31.85 L33.0 31.85 33.15 31.1 Q33.15 29.7 31.5 27.0 L29.9 24.65 35.4 24.25 M33.45 25.55 L33.65 27.3 33.65 27.85 33.65 27.3 33.45 25.55 M26.85 24.9 L29.7 24.7 29.55 26.05 29.55 26.2 Q29.1 25.7 27.2 25.3 L26.85 24.9" fill="#855800" fill-rule="evenodd" stroke="none"/>
      <path d="M29.9 24.65 L31.5 27.0 Q33.15 29.7 33.15 31.1 L33.0 31.85 30.15 28.65 27.2 25.3 Q29.1 25.7 29.55 26.2 L29.55 26.05 29.7 24.7 29.9 24.65" fill="#c78a00" fill-rule="evenodd" stroke="none"/>
      <path d="M33.65 27.85 L36.2 30.15 36.3 27.55 Q36.3 25.2 35.5 24.35 L35.4 24.25 M33.0 31.85 L33.05 31.85 Q33.55 29.7 33.65 27.85 L33.65 27.3 33.45 25.55 M27.2 25.3 L30.15 28.65 33.0 31.85 M26.85 24.9 L27.2 25.3 M29.55 26.2 L29.55 26.05" fill="none" stroke="#000000" stroke-linecap="round" stroke-linejoin="round" stroke-opacity="0.3019608" stroke-width="0.05"/>
      <path d="M8.75 14.1 L8.7 14.05 8.85 13.9 8.75 14.1" fill="#ab7a00" fill-rule="evenodd" stroke="none"/>
      <path d="M3.25 19.1 Q3.95 18.65 6.0 17.5 L9.15 15.65 8.0 15.9 Q7.1 16.05 6.8 16.35 L6.7 16.35 8.25 14.7 8.75 14.1 8.85 13.9 10.65 18.75 Q8.05 21.45 6.55 22.0 L8.95 17.5 6.7 18.05 5.9 18.25 Q4.0 18.8 3.25 19.1" fill="#855800" fill-rule="evenodd" stroke="none"/>
      <path d="M8.7 14.05 L8.75 14.1 8.25 14.7 6.7 16.35 6.8 16.35 Q7.1 16.05 8.0 15.9 L9.15 15.65 6.0 17.5 Q3.95 18.65 3.25 19.1 L2.8 19.35 Q3.05 18.55 5.45 15.6 L8.25 12.45 8.7 14.05 M6.7 18.05 L8.95 17.5 6.55 22.0 6.5 22.0 6.7 18.05" fill="#c78a00" fill-rule="evenodd" stroke="none"/>
      <path d="M8.25 12.45 L5.45 15.6 Q3.05 18.55 2.8 19.35 L3.25 19.1 Q4.0 18.8 5.9 18.25 L6.7 18.05 8.95 17.5 M6.55 22.0 Q8.05 21.45 10.65 18.75 M6.7 18.05 L6.5 22.0 6.55 22.0" fill="none" stroke="#000000" stroke-linecap="round" stroke-linejoin="round" stroke-opacity="0.3019608" stroke-width="0.05"/>
      <path d="M23.0 15.6 L23.7 16.25 Q24.7 17.15 25.55 17.4 L25.45 17.45 24.15 17.4 22.8 17.65 26.4 18.4 29.6 19.15 26.65 19.2 25.75 19.25 23.25 19.55 26.35 23.5 Q24.65 23.45 21.55 21.55 L23.0 15.6" fill="#855800" fill-rule="evenodd" stroke="none"/>
      <path d="M29.6 19.15 L26.4 18.4 22.8 17.65 24.15 17.4 25.45 17.45 25.55 17.4 Q24.7 17.15 23.7 16.25 L23.0 15.6 23.2 15.7 23.45 13.8 Q24.25 14.1 26.85 16.15 29.8 18.4 30.15 19.15 L29.6 19.15 M26.35 23.5 L23.25 19.55 25.75 19.25 26.4 23.5 26.35 23.5" fill="#c78a00" fill-rule="evenodd" stroke="none"/>
      <path d="M21.55 21.55 Q24.65 23.45 26.35 23.5 M23.25 19.55 L25.75 19.25 26.65 19.2 29.6 19.15 30.15 19.15 Q29.8 18.4 26.85 16.15 24.25 14.1 23.45 13.8 M25.75 19.25 L26.4 23.5 26.35 23.5" fill="none" stroke="#000000" stroke-linecap="round" stroke-linejoin="round" stroke-opacity="0.3019608" stroke-width="0.05"/>
      <path d="M6.95 7.6 L8.1 6.15 8.4 6.0 8.1 8.0 7.0 7.65 6.95 7.6 M1.95 8.9 L2.45 9.1 5.95 8.85 8.05 8.15 7.45 12.15 7.35 12.2 4.7 12.1 2.7 11.5 4.9 10.15 Q3.5 9.75 1.9 8.95 L1.95 8.9 M6.75 10.5 L5.35 10.3 4.9 10.15 5.35 10.3 6.75 10.5" fill="#855800" fill-rule="evenodd" stroke="none"/>
      <path d="M8.1 6.15 L6.95 7.6 7.0 7.65 8.1 8.0 8.05 8.15 5.95 8.85 2.45 9.1 1.95 8.9 Q2.25 8.65 4.9 7.5 L8.1 6.15" fill="#c78a00" fill-rule="evenodd" stroke="none"/>
      <path d="M8.1 6.15 L4.9 7.5 Q2.25 8.65 1.95 8.9 M7.0 7.65 L6.95 7.6 M8.1 6.15 L8.4 6.0 M7.45 12.15 L7.35 12.2 4.7 12.1 2.7 11.5 4.9 10.15 Q3.5 9.75 1.9 8.95 L1.95 8.9 M4.9 10.15 L5.35 10.3 6.75 10.5" fill="none" stroke="#000000" stroke-linecap="round" stroke-linejoin="round" stroke-opacity="0.3019608" stroke-width="0.05"/>
      <path d="M37.4 18.35 L37.5 18.4 37.45 18.45 37.4 18.35" fill="#ab7a00" fill-rule="evenodd" stroke="none"/>
      <path d="M41.35 20.5 Q40.8 20.55 39.6 21.05 L39.1 21.25 37.7 21.85 39.6 24.95 Q38.6 25.15 36.8 23.9 L37.4 18.35 37.45 18.45 37.85 18.85 38.95 19.6 38.85 19.7 38.15 19.85 37.4 20.2 39.45 20.35 41.35 20.5" fill="#855800" fill-rule="evenodd" stroke="none"/>
      <path d="M37.6 16.75 Q38.1 16.8 39.65 18.25 41.4 19.85 41.6 20.5 L41.35 20.5 39.45 20.35 37.4 20.2 38.15 19.85 38.85 19.7 38.95 19.6 37.85 18.85 37.45 18.45 37.5 18.4 37.6 16.75 M39.1 21.25 L39.6 24.95 37.7 21.85 39.1 21.25" fill="#c78a00" fill-rule="evenodd" stroke="none"/>
      <path d="M37.6 16.75 Q38.1 16.8 39.65 18.25 41.4 19.85 41.6 20.5 L41.35 20.5 Q40.8 20.55 39.6 21.05 L39.1 21.25 39.6 24.95 Q38.6 25.15 36.8 23.9 M37.7 21.85 L39.1 21.25" fill="none" stroke="#000000" stroke-linecap="round" stroke-linejoin="round" stroke-opacity="0.3019608" stroke-width="0.05"/>
    </g>
  </defs>
</svg>
