<?xml version="1.0" encoding="UTF-8" standalone="no"?>
<svg xmlns:xlink="http://www.w3.org/1999/xlink" height="440.0px" width="440.0px" xmlns="http://www.w3.org/2000/svg">
  <g transform="matrix(10.0, 0.0, 0.0, 10.0, 0.0, 0.0)">
    <use height="44.0" transform="matrix(1.0, 0.0, 0.0, 1.0, 0.0, 0.0)" width="44.0" xlink:href="#shape0"/>
    <use height="82.7" transform="matrix(0.4415, -0.0079, 0.011, 0.1893, 4.8, 25.45)" width="82.7" xlink:href="#sprite0"/>
    <use height="39.95" transform="matrix(1.0, 0.0, 0.0, 1.0, 2.6, 1.55)" width="37.9" xlink:href="#shape2"/>
  </g>
  <defs>
    <g id="shape0" transform="matrix(1.0, 0.0, 0.0, 1.0, 0.0, 0.0)">
      <path d="M44.0 44.0 L0.0 44.0 0.0 0.0 44.0 0.0 44.0 44.0" fill="#43adca" fill-opacity="0.0" fill-rule="evenodd" stroke="none"/>
      <path d="M32.55 31.3 Q32.55 30.7 33.25 30.45 L30.7 29.15 Q30.1 28.85 30.1 28.1 30.1 26.35 36.2 26.45 42.2 26.5 42.2 29.55 42.2 32.55 37.4 32.8 32.55 33.0 32.55 31.3" fill="#000000" fill-opacity="0.07058824" fill-rule="evenodd" stroke="none"/>
    </g>
    <g id="sprite0" transform="matrix(1.0, 0.0, 0.0, 1.0, 0.0, 0.0)">
      <use height="82.7" transform="matrix(1.0, 0.0, 0.0, 1.0, 0.0, 0.0)" width="82.7" xlink:href="#shape1"/>
    </g>
    <g id="shape1" transform="matrix(1.0, 0.0, 0.0, 1.0, 0.0, 0.0)">
      <path d="M70.6 12.1 Q82.7 24.2 82.7 41.35 82.7 58.5 70.6 70.6 58.5 82.7 41.35 82.7 24.2 82.7 12.1 70.6 0.0 58.5 0.0 41.35 0.0 24.2 12.1 12.1 24.2 0.0 41.35 0.0 58.5 0.0 70.6 12.1" fill="url(#gradient0)" fill-rule="evenodd" stroke="none"/>
    </g>
    <radialGradient cx="0" cy="0" gradientTransform="matrix(0.0508, 0.0, 0.0, 0.0508, 41.35, 41.35)" gradientUnits="userSpaceOnUse" id="gradient0" r="819.2" spreadMethod="pad">
      <stop offset="0.0" stop-color="#000000" stop-opacity="0.3019608"/>
      <stop offset="1.0" stop-color="#000000" stop-opacity="0.0"/>
    </radialGradient>
    <g id="shape2" transform="matrix(1.0, 0.0, 0.0, 1.0, -2.6, -1.55)">
      <path d="M29.1 4.75 Q28.85 2.95 25.85 3.75 L25.8 3.8 25.75 3.7 Q25.35 3.35 24.45 3.1 L23.65 2.95 22.25 2.75 Q20.5 2.6 18.45 2.8 15.4 3.05 13.35 3.85 12.35 4.2 11.85 4.7 11.9 4.3 11.65 4.2 L11.25 4.05 10.1 4.15 Q10.7 3.75 11.65 3.45 L11.65 3.4 11.9 3.35 Q14.7 2.3 18.7 1.95 L26.0 2.15 Q28.6 2.6 29.15 3.5 L29.25 3.9 29.1 4.75 M26.3 10.15 Q26.5 8.4 24.1 7.8 L22.7 7.55 20.0 7.55 23.0 7.15 24.3 6.85 25.85 6.4 28.0 5.6 28.1 5.55 28.6 5.2 28.35 6.05 27.8 8.25 Q27.55 9.25 27.45 10.2 L26.9 10.15 26.75 10.15 26.3 10.15 26.75 10.15 26.9 10.15 27.0 13.3 26.95 13.3 26.45 13.5 26.8 14.7 26.8 14.9 Q24.85 16.0 22.7 16.5 24.85 16.0 26.8 14.9 L27.45 17.65 27.05 17.85 28.2 19.75 25.8 21.15 25.05 21.3 Q26.45 20.15 26.55 18.65 L25.9 18.8 25.8 18.8 25.8 18.85 21.75 19.6 18.9 19.75 12.75 19.2 13.15 18.45 14.95 18.95 16.8 17.85 16.85 19.25 19.1 19.35 21.9 19.15 26.05 18.2 Q26.6 17.05 25.5 16.25 L25.45 16.2 22.3 17.0 21.3 17.2 Q16.4 18.1 13.35 16.8 L13.45 16.25 Q17.7 17.4 21.65 16.75 L22.3 16.6 22.7 16.5 Q24.5 15.65 24.95 14.75 L22.35 15.0 22.3 15.0 Q16.8 15.35 13.25 13.7 L13.3 13.2 13.9 13.3 14.5 13.4 20.1 13.2 Q20.45 10.75 22.3 12.55 L23.0 12.3 26.15 10.55 23.5 10.4 21.25 10.2 12.5 8.85 11.4 8.6 10.9 7.2 10.95 7.15 11.85 7.45 Q16.65 9.0 21.6 9.7 L23.6 9.95 26.3 10.15 M22.5 14.3 L22.6 14.3 26.45 13.5 22.6 14.3 22.5 14.3 22.6 14.25 Q24.7 13.35 25.85 12.05 24.4 12.7 22.8 13.15 L17.25 14.0 22.5 14.3 M14.5 13.4 L17.25 14.0 14.5 13.4 M26.05 18.2 L27.05 17.85 26.05 18.2 M27.35 19.95 L27.65 19.9 27.95 19.75 27.4 19.0 27.25 19.2 27.05 19.45 27.35 19.7 27.3 19.85 27.35 19.95 M26.75 10.15 L26.15 10.55 26.75 10.15 M8.5 24.95 L8.65 24.95 8.75 24.95 11.4 24.8 13.25 24.8 16.2 25.05 18.85 25.45 20.7 25.9 22.35 26.4 Q23.35 26.0 21.35 25.0 L20.85 24.85 19.35 24.4 16.6 23.85 14.2 23.6 Q11.95 23.4 9.85 23.65 L10.45 23.1 14.45 23.25 16.6 23.55 19.45 24.2 19.85 24.35 21.8 23.8 21.05 23.55 20.05 23.25 16.85 22.6 15.2 22.4 Q13.0 22.25 10.75 22.45 11.5 21.4 12.75 21.2 L15.15 21.6 17.05 21.8 22.7 21.65 Q24.6 22.25 25.9 23.5 27.25 24.75 27.9 26.65 L27.75 26.55 27.55 26.5 27.3 26.4 Q26.95 26.4 27.0 26.75 L27.0 26.9 27.15 27.05 Q26.85 27.15 26.5 27.6 L26.4 27.85 25.8 27.4 25.1 26.95 23.95 26.15 23.0 25.65 22.35 25.35 21.8 25.1 21.8 23.8 21.8 25.1 22.35 25.35 23.0 25.65 23.95 26.15 25.1 26.95 25.8 27.4 26.4 27.85 26.4 27.9 26.15 28.5 Q25.9 29.05 25.15 29.05 L25.1 28.95 25.3 28.5 25.4 28.5 Q25.8 28.5 25.8 28.15 L25.85 28.3 25.95 28.15 25.9 28.05 25.85 28.05 25.8 28.15 Q25.65 27.8 25.3 27.8 L25.15 27.8 25.1 27.75 24.9 27.7 23.65 27.4 22.8 27.25 Q22.75 27.1 22.5 27.1 L22.25 27.15 20.55 26.8 19.85 26.65 20.45 27.15 21.75 28.55 22.5 29.9 22.55 29.9 22.8 29.9 22.9 30.45 23.15 30.8 23.15 30.9 23.0 31.3 Q23.0 31.05 22.55 31.0 22.1 31.0 22.1 31.4 L22.1 31.5 21.8 31.55 21.8 30.75 21.85 30.55 21.75 30.3 21.65 29.7 21.45 29.45 20.3 28.15 18.9 26.85 18.4 26.55 16.6 25.8 16.1 25.7 12.85 25.35 8.45 25.75 8.4 25.75 8.05 25.7 7.4 25.7 8.5 24.95 M11.4 24.8 L13.05 25.0 16.1 25.65 16.6 25.8 16.1 25.65 13.05 25.0 11.4 24.8 M3.1 27.75 Q3.35 29.2 3.95 29.2 4.2 29.25 4.6 28.9 L4.6 29.05 4.65 29.45 Q4.75 30.4 6.4 31.35 8.35 32.55 11.3 33.05 L15.1 33.35 15.35 33.3 16.55 33.15 Q17.8 32.9 18.45 32.4 L19.6 32.9 20.5 32.75 20.7 32.65 Q20.5 33.1 20.55 33.75 L20.55 34.05 20.45 34.0 20.4 34.0 20.4 33.9 Q20.35 33.4 19.65 33.55 19.1 33.65 19.05 33.95 L18.2 34.2 17.75 34.35 17.65 34.3 17.65 34.25 Q17.65 33.9 17.15 33.85 16.7 33.85 16.7 34.2 L16.0 34.1 15.55 34.05 15.1 34.15 15.0 34.2 Q15.0 33.85 14.55 33.8 14.15 33.75 14.15 34.1 L14.2 34.2 14.05 34.25 13.85 34.35 13.75 34.35 13.45 34.35 12.45 34.25 12.45 34.1 Q12.45 33.85 11.5 33.7 L10.55 33.85 9.75 33.7 9.9 33.8 8.95 33.7 8.85 33.6 8.9 33.35 Q8.9 33.1 7.55 32.55 L7.3 32.4 Q7.25 32.25 6.8 32.15 L6.45 32.2 5.6 32.0 5.65 31.9 5.45 31.6 5.55 31.5 5.65 31.3 Q5.65 31.05 5.35 31.1 5.05 31.1 5.05 31.3 L5.1 31.5 Q4.9 31.5 4.9 31.8 L4.95 31.95 4.65 31.9 4.6 31.85 4.5 31.75 4.45 31.65 4.6 31.4 Q4.6 31.15 4.2 31.15 L4.15 31.15 Q4.0 30.9 3.7 31.0 L3.4 30.55 3.5 30.55 3.7 30.45 3.8 30.25 Q3.8 29.95 3.4 29.9 L3.1 29.95 Q2.65 28.8 3.1 27.75 M21.3 31.75 L21.45 31.3 21.5 31.65 21.3 31.75 M26.7 24.95 L27.0 25.8 27.0 25.1 26.95 24.9 26.7 24.95 M26.85 26.5 L26.95 26.25 Q26.95 25.85 26.45 25.75 25.95 25.7 25.95 26.1 L26.05 26.4 26.6 26.65 26.85 26.5 M4.15 30.7 L4.2 30.65 4.05 30.55 3.95 30.6 4.15 30.7 M4.6 30.25 Q4.25 30.25 4.25 30.5 L4.65 30.8 4.8 30.7 4.9 30.5 4.6 30.25 M26.4 27.9 L25.0 27.35 23.75 26.85 22.6 26.45 22.35 26.4 22.6 26.45 23.75 26.85 25.0 27.35 26.4 27.9 M25.45 26.0 L25.35 25.95 25.2 25.95 25.4 26.05 25.45 26.0 M25.35 24.75 Q25.85 24.75 25.85 24.35 25.85 23.85 25.15 23.7 24.55 23.55 24.6 24.1 L24.7 24.4 Q24.9 24.75 25.35 24.75 M22.55 29.9 L23.05 30.75 23.15 30.9 23.05 30.75 22.55 29.9 M22.5 29.9 L21.65 28.85 20.35 27.75 18.9 26.85 20.35 27.75 21.65 28.85 22.5 29.9" fill="#423c1d" fill-rule="evenodd" stroke="none"/>
      <path d="M25.8 3.8 L25.85 3.75 Q28.85 2.95 29.1 4.75 L28.6 5.2 28.1 5.55 28.0 5.6 25.85 6.4 24.3 6.85 23.0 7.15 20.0 7.55 22.7 7.55 24.1 7.8 Q26.5 8.4 26.3 10.15 L23.6 9.95 21.6 9.7 Q16.65 9.0 11.85 7.45 L10.95 7.15 10.8 7.1 10.75 7.1 Q9.1 6.55 9.05 5.7 8.95 5.4 9.15 5.05 L10.1 4.15 11.25 4.05 11.65 4.2 Q11.9 4.3 11.85 4.7 L11.5 5.1 11.45 5.5 11.5 5.7 11.55 5.8 Q11.9 6.25 12.9 6.55 L13.75 6.75 19.05 6.9 23.7 6.0 24.1 5.85 Q24.25 5.8 24.45 5.7 L24.9 5.5 25.9 4.7 26.0 4.2 25.8 3.8 M25.1 28.95 L24.85 28.7 Q24.4 28.35 23.7 28.35 23.0 28.35 22.75 29.0 L22.8 29.9 22.55 29.9 22.5 29.9 21.75 28.55 20.45 27.15 19.85 26.65 20.55 26.8 22.25 27.15 Q22.1 27.2 22.1 27.45 L22.1 27.6 Q22.2 27.8 22.5 27.8 L22.85 27.45 22.8 27.25 23.65 27.4 24.9 27.7 25.1 27.75 25.15 27.8 Q24.85 27.85 24.9 28.15 L25.0 28.35 25.3 28.5 25.1 28.95 M24.5 28.05 L24.45 28.15 24.55 28.2 24.65 28.1 24.5 28.05 M22.15 28.25 L22.1 28.35 22.15 28.4 22.5 28.35 22.3 28.25 22.15 28.25 M23.6 27.65 L23.6 27.6 Q23.2 27.5 23.2 27.8 L23.5 28.0 23.6 27.9 23.65 27.8 23.6 27.65" fill="#574f27" fill-rule="evenodd" stroke="none"/>
      <path d="M11.85 4.7 Q12.35 4.2 13.35 3.85 15.4 3.05 18.45 2.8 20.5 2.6 22.25 2.75 L23.65 2.95 24.45 3.1 Q25.35 3.35 25.75 3.7 L25.8 3.8 26.0 4.2 25.9 4.7 24.9 5.5 24.45 5.7 Q24.25 5.8 24.1 5.85 L23.7 6.0 19.05 6.9 13.75 6.75 12.9 6.55 Q11.9 6.25 11.55 5.8 L11.5 5.7 11.45 5.5 11.5 5.1 11.85 4.7 M4.6 28.9 Q4.8 27.9 6.85 27.5 L6.9 27.5 7.9 27.35 11.4 27.5 12.05 27.6 Q13.9 27.9 15.4 28.5 L17.05 29.25 17.3 29.45 Q19.0 30.55 18.9 31.6 L18.45 32.4 Q17.8 32.9 16.55 33.15 L15.35 33.3 15.1 33.35 11.3 33.05 Q8.35 32.55 6.4 31.35 4.75 30.4 4.65 29.45 L4.6 29.05 4.6 28.9" fill="#181a0b" fill-rule="evenodd" stroke="none"/>
      <path d="M26.15 10.55 L23.0 12.3 22.3 12.55 Q20.45 10.75 20.1 13.2 L14.5 13.4 13.9 13.3 13.3 13.2 12.45 13.0 11.4 8.6 12.5 8.85 21.25 10.2 23.5 10.4 26.15 10.55 M13.25 13.7 Q16.8 15.35 22.3 15.0 L22.35 15.0 24.95 14.75 Q24.5 15.65 22.7 16.5 L22.3 16.6 21.65 16.75 Q17.7 17.4 13.45 16.25 L13.0 16.1 13.25 13.7 M22.5 14.3 L17.25 14.0 22.8 13.15 Q24.4 12.7 25.85 12.05 24.7 13.35 22.6 14.25 L22.5 14.3 M26.05 18.2 L21.9 19.15 19.1 19.35 16.85 19.25 16.8 17.85 14.95 18.95 13.15 18.45 12.9 18.4 13.35 16.8 Q16.4 18.1 21.3 17.2 L22.3 17.0 25.45 16.2 25.5 16.25 Q26.6 17.05 26.05 18.2 M12.75 19.2 L18.9 19.75 21.75 19.6 25.8 18.85 25.75 18.95 25.8 19.05 25.9 19.1 26.05 19.1 26.25 19.1 26.3 19.0 26.15 18.8 25.9 18.8 26.55 18.65 Q26.45 20.15 25.05 21.3 L22.7 21.65 17.05 21.8 15.15 21.6 12.75 21.2 11.75 21.0 12.75 19.2 M22.35 26.4 L20.7 25.9 18.85 25.45 16.2 25.05 13.25 24.8 11.4 24.8 8.75 24.95 8.65 24.95 8.5 24.95 9.85 23.65 Q11.95 23.4 14.2 23.6 L16.6 23.85 19.35 24.4 20.85 24.85 21.35 25.0 Q23.35 26.0 22.35 26.4 M10.75 22.45 Q13.0 22.25 15.2 22.4 L16.85 22.6 20.05 23.25 21.05 23.55 21.8 23.8 19.85 24.35 19.45 24.2 16.6 23.55 14.45 23.25 10.45 23.1 10.75 22.45 M25.2 20.4 L25.2 20.55 25.4 20.7 25.65 20.5 25.2 20.4" fill="url(#gradient1)" fill-rule="evenodd" stroke="none"/>
      <path d="M25.8 18.85 L25.8 18.8 25.9 18.8 26.15 18.8 26.3 19.0 26.25 19.1 26.05 19.1 25.9 19.1 25.8 19.05 25.75 18.95 25.8 18.85 M27.35 19.95 L27.3 19.85 27.35 19.7 27.05 19.45 27.25 19.2 27.4 19.0 27.95 19.75 27.65 19.9 27.35 19.95 M20.7 32.65 L20.75 32.45 20.35 32.15 20.25 31.85 Q20.25 31.45 20.7 31.5 21.05 31.55 21.05 31.9 21.2 31.8 21.3 31.75 L21.5 31.65 21.8 31.55 22.1 31.5 22.1 31.4 Q22.1 31.0 22.55 31.0 23.0 31.05 23.0 31.3 L23.15 30.9 23.15 30.8 22.9 30.45 22.8 29.9 22.75 29.0 Q23.0 28.35 23.7 28.35 24.4 28.35 24.85 28.7 L25.1 28.95 25.15 29.05 Q25.9 29.05 26.15 28.5 L26.4 27.9 26.4 27.85 26.5 27.6 Q26.85 27.15 27.15 27.05 L27.0 26.9 27.0 26.75 Q26.95 26.4 27.3 26.4 L27.55 26.5 27.75 26.55 27.9 26.65 Q28.3 26.9 28.3 27.5 L28.3 27.65 28.65 28.1 28.65 28.2 28.55 28.45 28.45 28.55 28.45 28.75 28.45 29.1 28.25 29.05 26.9 29.95 26.45 30.4 26.25 30.35 26.1 30.3 26.25 30.6 26.35 30.85 26.15 31.3 25.55 31.5 24.9 31.35 24.55 31.75 24.05 32.2 23.9 32.55 23.45 32.85 Q23.25 32.85 23.15 32.7 L22.9 33.05 22.65 33.65 22.4 33.6 22.25 33.5 21.9 33.75 21.4 34.0 21.45 34.35 21.4 34.6 21.15 34.75 20.85 34.7 20.7 34.8 20.3 34.8 19.8 34.95 19.75 34.95 18.8 35.15 18.45 35.4 17.45 35.6 16.4 35.45 16.25 35.1 15.9 35.2 15.7 35.2 15.3 35.45 14.4 35.6 13.6 35.4 13.1 35.5 Q12.45 35.5 9.15 34.25 L9.15 34.3 9.1 34.55 Q9.05 34.75 8.7 34.75 7.95 34.75 7.85 34.55 L7.9 34.15 Q7.3 34.1 7.25 33.85 L6.8 33.4 6.75 33.7 Q6.55 33.9 6.35 33.9 5.5 33.9 5.1 33.5 L4.9 32.85 4.9 32.65 4.15 32.9 Q3.7 32.9 3.55 32.65 L3.4 32.4 3.6 32.15 Q3.3 31.9 3.3 31.45 3.3 31.2 3.65 31.0 L3.7 31.0 Q4.0 30.9 4.15 31.15 L4.2 31.15 Q4.6 31.15 4.6 31.4 L4.45 31.65 4.5 31.75 4.6 31.85 4.65 31.9 4.95 31.95 4.9 31.8 Q4.9 31.5 5.1 31.5 L5.05 31.3 Q5.05 31.1 5.35 31.1 5.65 31.05 5.65 31.3 L5.55 31.5 5.45 31.6 5.65 31.9 5.6 32.0 6.45 32.2 6.8 32.15 Q7.25 32.25 7.3 32.4 L7.55 32.55 Q8.9 33.1 8.9 33.35 L8.85 33.6 8.95 33.7 9.9 33.8 9.75 33.7 10.55 33.85 11.5 33.7 Q12.45 33.85 12.45 34.1 L12.45 34.25 13.45 34.35 13.75 34.35 13.85 34.35 14.05 34.25 14.2 34.2 14.15 34.1 Q14.15 33.75 14.55 33.8 15.0 33.85 15.0 34.2 L15.1 34.15 15.55 34.05 16.0 34.1 16.7 34.2 Q16.7 33.85 17.15 33.85 17.65 33.9 17.65 34.25 L17.65 34.3 17.75 34.35 18.2 34.2 19.05 33.95 Q19.1 33.65 19.65 33.55 20.35 33.4 20.4 33.9 L20.4 34.0 20.45 34.0 20.55 34.05 20.55 33.75 Q20.5 33.1 20.7 32.65 M21.35 31.0 L21.0 30.8 20.95 30.55 Q20.95 30.05 21.4 30.15 L21.75 30.3 21.85 30.55 21.8 30.75 21.75 30.85 21.35 31.0 M3.1 29.95 L3.4 29.9 Q3.8 29.95 3.8 30.25 L3.7 30.45 3.5 30.55 3.4 30.55 Q3.0 30.5 3.0 30.15 L3.1 29.95 M4.6 30.25 L4.9 30.5 4.8 30.7 4.65 30.8 4.25 30.5 Q4.25 30.25 4.6 30.25 M4.15 30.7 L3.95 30.6 4.05 30.55 4.2 30.65 4.15 30.7 M26.85 26.5 L26.6 26.65 26.05 26.4 25.95 26.1 Q25.95 25.7 26.45 25.75 26.95 25.85 26.95 26.25 L26.85 26.5 M26.7 24.95 L26.95 24.9 27.0 25.1 27.0 25.8 26.7 24.95 M25.2 20.4 L25.65 20.5 25.4 20.7 25.2 20.55 25.2 20.4 M25.35 24.75 Q24.9 24.75 24.7 24.4 L24.6 24.1 Q24.55 23.55 25.15 23.7 25.85 23.85 25.85 24.35 25.85 24.75 25.35 24.75 M25.45 26.0 L25.4 26.05 25.2 25.95 25.35 25.95 25.45 26.0 M25.15 27.8 L25.3 27.8 Q25.65 27.8 25.8 28.15 L25.85 28.05 25.9 28.05 25.95 28.15 25.85 28.3 25.8 28.15 Q25.8 28.5 25.4 28.5 L25.3 28.5 25.0 28.35 24.9 28.15 Q24.85 27.85 25.15 27.8 M24.5 28.05 L24.65 28.1 24.55 28.2 24.45 28.15 24.5 28.05 M22.8 27.25 L22.85 27.45 22.5 27.8 Q22.2 27.8 22.1 27.6 L22.1 27.45 Q22.1 27.2 22.25 27.15 L22.5 27.1 Q22.75 27.1 22.8 27.25 M23.6 27.65 L23.65 27.8 23.6 27.9 23.5 28.0 23.2 27.8 Q23.2 27.5 23.6 27.6 L23.6 27.65 M22.15 28.25 L22.3 28.25 22.5 28.35 22.15 28.4 22.1 28.35 22.15 28.25 M19.1 30.5 L19.25 30.3 19.45 30.2 19.6 30.2 19.55 30.4 19.35 30.65 19.1 30.5" fill="#7d6b2a" fill-rule="evenodd" stroke="none"/>
      <path d="M7.4 25.7 L8.05 25.7 8.4 25.75 8.45 25.75 12.85 25.35 16.1 25.7 16.6 25.8 18.4 26.55 18.9 26.85 20.3 28.15 21.45 29.45 21.65 29.7 21.75 30.3 21.4 30.15 Q20.95 30.05 20.95 30.55 L21.0 30.8 21.35 31.0 21.45 31.3 21.35 31.0 21.75 30.85 21.8 30.75 21.8 31.55 21.5 31.65 21.45 31.3 21.3 31.75 Q21.2 31.8 21.05 31.9 21.05 31.55 20.7 31.5 20.25 31.45 20.25 31.85 L20.35 32.15 20.75 32.45 20.7 32.65 20.5 32.75 19.6 32.9 18.45 32.4 18.9 31.6 Q19.0 30.55 17.3 29.45 L17.05 29.25 15.4 28.5 Q13.9 27.9 12.05 27.6 L11.4 27.5 7.9 27.35 6.9 27.5 6.85 27.5 Q4.8 27.9 4.6 28.9 4.2 29.25 3.95 29.2 3.35 29.2 3.1 27.75 L3.1 27.7 Q3.4 27.05 4.1 26.4 L4.2 26.3 Q5.25 25.65 7.4 25.7 M19.1 30.5 L19.35 30.65 19.55 30.4 19.6 30.2 19.45 30.2 19.25 30.3 19.1 30.5 M13.9 26.85 L12.1 26.4 8.45 25.75 12.1 26.4 13.9 26.85" fill="url(#gradient2)" fill-rule="evenodd" stroke="none"/>
      <path d="M11.85 4.7 Q12.35 4.2 13.35 3.85 15.4 3.05 18.45 2.8 20.5 2.6 22.25 2.75 L23.65 2.95 24.45 3.1 Q25.35 3.35 25.75 3.7 L25.8 3.8 26.0 4.2 25.9 4.7 24.9 5.5 24.45 5.7 Q24.25 5.8 24.1 5.85 L23.7 6.0 19.05 6.9 13.75 6.75 12.9 6.55 Q11.9 6.25 11.55 5.8 L11.5 5.7 11.45 5.5 11.5 5.1 11.85 4.7 M26.3 10.15 L26.75 10.15 26.9 10.15 M28.6 5.2 L28.1 5.55 M10.9 7.2 L10.8 7.1 10.95 7.15 11.85 7.45 Q16.65 9.0 21.6 9.7 L23.6 9.95 26.3 10.15 M13.3 13.2 L13.9 13.3 14.5 13.4 20.1 13.2 Q20.45 10.75 22.3 12.55 L23.0 12.3 26.15 10.55 26.75 10.15 M13.3 13.2 L13.25 13.7 M22.7 16.5 Q24.85 16.0 26.8 14.9 M26.45 13.5 L22.6 14.3 22.5 14.3 17.25 14.0 14.5 13.4 M13.15 18.45 L14.95 18.95 16.8 17.85 16.85 19.25 19.1 19.35 21.9 19.15 26.05 18.2 M27.05 17.85 L26.05 18.2 M13.45 16.25 Q17.7 17.4 21.65 16.75 L22.3 16.6 22.7 16.5 M8.5 24.95 L8.65 24.95 8.75 24.95 11.4 24.8 13.25 24.8 16.2 25.05 18.85 25.45 20.7 25.9 22.35 26.4 22.6 26.45 23.75 26.85 25.0 27.35 26.4 27.9 M7.4 25.7 L8.05 25.7 8.4 25.75 8.45 25.75 12.1 26.4 13.9 26.85 M16.6 25.8 L16.1 25.65 13.05 25.0 11.4 24.8 M4.6 28.9 Q4.8 27.9 6.85 27.5 L6.9 27.5 7.9 27.35 11.4 27.5 12.05 27.6 Q13.9 27.9 15.4 28.5 L17.05 29.25 17.3 29.45 Q19.0 30.55 18.9 31.6 L18.45 32.4 Q17.8 32.9 16.55 33.15 L15.35 33.3 15.1 33.35 11.3 33.05 Q8.35 32.55 6.4 31.35 4.75 30.4 4.65 29.45 L4.6 29.05 4.6 28.9 M21.45 31.3 L21.35 31.0 M18.9 26.85 L18.4 26.55 16.6 25.8 M4.6 31.85 L4.65 31.9 M22.7 21.65 L17.05 21.8 15.15 21.6 12.75 21.2 M21.8 23.8 L21.8 25.1 22.35 25.35 23.0 25.65 23.95 26.15 25.1 26.95 25.8 27.4 26.4 27.85 M22.5 29.9 L22.55 29.9 M23.15 30.9 L23.05 30.75 22.55 29.9 M21.5 31.65 L21.45 31.3 M18.9 26.85 L20.35 27.75 21.65 28.85 22.5 29.9 M21.8 23.8 L19.85 24.35 19.45 24.2 16.6 23.55 14.45 23.25 10.45 23.1" fill="none" stroke="#000000" stroke-linecap="round" stroke-linejoin="miter" stroke-miterlimit="5.0" stroke-opacity="0.15294118" stroke-width="0.25"/>
      <path d="M29.1 4.75 L29.25 3.9 29.15 3.5 Q28.6 2.6 26.0 2.15 L18.7 1.95 Q14.7 2.3 11.9 3.35 L11.65 3.4 11.65 3.45 Q10.7 3.75 10.1 4.15 M26.9 10.15 L27.45 10.2 Q27.55 9.25 27.8 8.25 L28.35 6.05 28.6 5.2 M29.1 4.75 L28.6 5.2 M10.8 7.1 L10.75 7.1 Q9.1 6.55 9.05 5.7 8.95 5.4 9.15 5.05 L10.1 4.15 M11.4 8.6 L12.45 13.0 13.3 13.2 M26.8 14.9 L26.8 14.7 26.45 13.5 M13.35 16.8 L12.9 18.4 13.15 18.45 12.75 19.2 M25.05 21.3 L25.8 21.15 28.2 19.75 27.05 17.85 M13.45 16.25 L13.0 16.1 13.25 13.7 M13.35 16.8 L13.45 16.25 M26.9 10.15 L27.0 13.3 26.95 13.3 26.45 13.5 M26.8 14.9 L27.45 17.65 27.05 17.85 M11.4 8.6 L10.9 7.2 M9.85 23.65 L8.5 24.95 7.4 25.7 Q5.25 25.65 4.2 26.3 L4.1 26.4 Q3.4 27.05 3.1 27.7 M3.4 30.55 L3.7 31.0 M3.1 29.95 Q2.65 28.8 3.1 27.75 M27.9 26.65 Q27.25 24.75 25.9 23.5 24.6 22.25 22.7 21.65 M12.75 21.2 Q11.5 21.4 10.75 22.45 M25.05 21.3 L22.7 21.65 M10.45 23.1 L9.85 23.65 M10.45 23.1 L10.75 22.45 M12.75 21.2 L11.75 21.0 12.75 19.2" fill="none" stroke="#000000" stroke-linecap="round" stroke-linejoin="round" stroke-opacity="0.3019608" stroke-width="0.5"/>
      <path d="M29.2 3.95 L29.05 4.75 28.55 5.2 28.3 6.1 27.75 8.25 27.4 10.25 26.85 10.15 27.0 13.3 26.9 13.3 26.4 13.55 26.75 14.7 26.75 14.95 27.4 17.7 27.05 17.9 28.15 19.75 25.75 21.15 25.0 21.3 22.65 21.65 Q24.55 22.3 25.85 23.5 27.2 24.8 27.85 26.65 28.25 26.95 28.25 27.5 L28.25 27.65 28.6 28.1 28.6 28.2 28.5 28.5 28.45 28.55 28.45 28.8 28.45 29.1 28.2 29.05 26.85 29.95 26.4 30.4 26.2 30.35 26.1 30.3 26.2 30.65 26.3 30.85 26.15 31.3 25.5 31.5 24.85 31.35 24.5 31.75 24.0 32.25 23.85 32.6 23.4 32.85 23.1 32.75 22.9 33.1 22.6 33.65 22.4 33.6 22.2 33.5 21.9 33.75 21.35 34.0 21.45 34.4 21.35 34.6 21.1 34.75 20.8 34.7 20.65 34.85 20.25 34.85 19.75 34.95 19.7 34.95 18.75 35.15 18.4 35.45 17.4 35.6 16.4 35.45 16.2 35.1 15.9 35.2 15.65 35.2 15.25 35.45 14.35 35.6 13.6 35.45 13.1 35.5 9.1 34.25 9.1 34.3 9.05 34.55 Q9.0 34.75 8.65 34.75 L7.8 34.55 7.85 34.15 7.2 33.9 6.75 33.45 6.7 33.7 6.3 33.9 Q5.45 33.9 5.05 33.5 L4.85 32.85 4.85 32.7 4.1 32.9 3.5 32.7 3.4 32.4 Q3.4 32.25 3.55 32.2 3.25 31.9 3.25 31.45 3.25 31.2 3.6 31.0 L3.65 31.0 3.4 30.55 Q2.95 30.5 2.95 30.1 L3.05 29.95 Q2.6 28.85 3.05 27.75 L3.05 27.7 4.05 26.4 4.15 26.3 Q5.25 25.7 7.35 25.75 L8.5 24.95 10.4 23.1 10.75 22.5 Q11.45 21.45 12.7 21.2 L11.75 21.05 13.15 18.45 12.85 18.4 13.4 16.3 12.95 16.1 13.25 13.2 12.4 13.05 Q12.15 10.95 11.35 8.6 L10.85 7.25 10.9 7.2 10.8 7.15 10.75 7.15 Q9.05 6.6 9.0 5.7 L9.1 5.05 10.05 4.2 Q10.65 3.8 11.6 3.5 L11.6 3.45 11.85 3.4 Q14.65 2.35 18.7 1.95 L25.95 2.15 Q28.55 2.6 29.1 3.5 L29.2 3.95" fill="#000000" fill-opacity="0.3019608" fill-rule="evenodd" stroke="none"/>
      <path d="M36.75 6.35 L36.7 6.25 Q36.3 5.85 35.4 5.6 L34.6 5.4 33.2 5.2 Q31.45 5.0 29.4 5.25 26.35 5.55 24.3 6.45 23.3 6.8 22.8 7.3 L22.6 6.8 22.2 6.65 21.05 6.75 Q21.65 6.3 22.6 6.0 L22.6 5.9 22.85 5.85 Q25.65 4.7 29.65 4.3 L36.95 4.5 Q39.55 5.0 40.1 6.05 L40.2 6.5 40.05 7.4 Q39.8 5.4 36.8 6.3 L36.75 6.35 M37.25 13.35 Q37.45 11.4 35.05 10.8 L33.65 10.5 30.95 10.5 33.95 10.05 35.25 9.75 36.8 9.25 38.95 8.35 39.05 8.25 39.55 7.9 39.3 8.85 Q38.95 10.05 38.75 11.25 L38.4 13.45 37.85 13.35 37.7 13.35 37.25 13.35 37.7 13.35 37.85 13.35 37.95 16.85 37.9 16.85 37.4 17.05 37.75 18.4 37.75 18.65 Q35.8 19.8 33.65 20.4 35.8 19.8 37.75 18.65 L38.4 21.65 38.0 21.9 39.15 23.95 36.75 25.55 36.0 25.7 Q37.4 24.4 37.5 22.8 L36.85 22.95 36.75 22.95 36.75 23.0 32.7 23.8 29.85 23.95 23.7 23.35 24.1 22.55 25.9 23.05 27.75 21.9 27.8 23.4 30.05 23.5 32.85 23.3 37.0 22.3 Q37.55 21.0 36.45 20.1 L36.4 20.05 33.25 20.95 32.25 21.15 Q27.35 22.15 24.3 20.7 L24.4 20.1 Q28.65 21.4 32.6 20.65 L33.25 20.5 33.65 20.4 Q35.45 19.45 35.9 18.45 L33.3 18.75 33.25 18.75 Q27.75 19.1 24.2 17.3 L24.25 16.75 24.85 16.85 25.45 16.95 31.05 16.75 Q31.4 14.05 33.25 16.0 L33.95 15.75 Q35.6 15.0 37.1 13.8 L34.45 13.65 32.2 13.45 23.45 11.9 22.35 11.65 21.85 10.1 21.9 10.05 22.8 10.4 Q27.6 12.1 32.55 12.85 L34.55 13.15 37.25 13.35 M33.45 17.95 L33.55 17.95 Q35.6 17.8 37.4 17.05 35.6 17.8 33.55 17.95 L33.45 17.95 33.55 17.9 Q35.65 16.9 36.8 15.45 L33.75 16.7 28.2 17.65 33.45 17.95 M25.45 16.95 L28.2 17.65 25.45 16.95 M37.0 22.3 L38.0 21.9 37.0 22.3 M38.3 24.2 L38.6 24.15 38.9 23.95 38.35 23.1 38.2 23.35 38.0 23.65 38.3 23.9 38.25 24.1 38.3 24.2 M37.7 13.35 L37.1 13.8 37.7 13.35 M18.35 30.6 L19.45 29.75 19.6 29.75 19.7 29.75 22.35 29.55 24.2 29.55 27.15 29.85 29.8 30.3 31.65 30.8 33.3 31.3 Q34.3 30.9 32.3 29.8 L31.8 29.6 30.3 29.1 27.55 28.5 25.15 28.2 20.8 28.3 21.4 27.65 25.4 27.85 27.55 28.15 30.4 28.9 30.8 29.05 32.75 28.45 32.0 28.15 31.0 27.85 27.8 27.1 26.15 26.95 Q23.95 26.75 21.7 27.0 22.45 25.8 23.7 25.6 L26.1 26.05 28.0 26.25 33.65 26.1 Q35.55 26.75 36.85 28.1 38.2 29.5 38.85 31.6 L38.7 31.45 38.5 31.4 38.25 31.3 Q37.9 31.3 37.95 31.7 L37.95 31.85 38.1 32.05 37.45 32.65 37.35 32.95 37.35 33.0 35.95 32.35 34.7 31.8 33.55 31.35 33.3 31.3 33.55 31.35 34.7 31.8 35.95 32.35 37.35 33.0 37.1 33.65 Q36.85 34.25 36.1 34.25 L36.05 34.15 36.25 33.65 36.35 33.65 Q36.75 33.65 36.75 33.25 L36.8 33.45 36.9 33.25 36.85 33.15 36.8 33.15 36.75 33.25 Q36.6 32.85 36.25 32.85 L36.1 32.85 36.05 32.8 35.85 32.75 34.6 32.45 33.75 32.25 Q33.7 32.1 33.45 32.1 L33.2 32.15 31.5 31.75 30.8 31.6 31.4 32.15 32.7 33.7 33.45 35.15 33.5 35.15 33.75 35.15 33.85 35.8 34.1 36.2 34.1 36.3 33.95 36.75 33.5 36.4 Q33.05 36.4 33.05 36.85 L33.05 36.95 32.75 37.0 32.75 36.1 32.8 35.9 32.7 35.6 32.6 35.0 32.4 34.7 31.25 33.25 29.85 31.8 29.35 31.45 27.55 30.7 27.05 30.6 23.8 30.2 19.4 30.65 19.35 30.65 19.0 30.6 18.35 30.6 M14.05 32.8 Q14.3 34.45 14.9 34.45 L15.55 34.1 15.55 34.25 15.6 34.7 Q15.7 35.75 17.35 36.8 19.3 38.15 22.25 38.7 L26.05 39.05 26.3 39.0 27.5 38.8 Q28.75 38.55 29.4 37.95 30.0 38.4 30.55 38.55 L31.45 38.35 31.65 38.25 Q31.45 38.75 31.5 39.45 L31.5 39.75 31.4 39.7 31.35 39.7 31.35 39.6 Q31.3 39.1 30.6 39.2 30.05 39.3 30.0 39.65 L29.15 39.95 28.7 40.1 28.6 40.05 28.6 40.0 Q28.6 39.6 28.1 39.55 27.65 39.55 27.65 39.95 L26.95 39.8 26.5 39.75 Q26.15 39.75 26.05 39.9 L25.95 39.95 Q25.95 39.55 25.5 39.5 L25.1 39.8 25.15 39.95 25.0 40.0 24.8 40.1 24.7 40.1 24.4 40.1 23.4 40.0 23.4 39.8 Q23.4 39.55 22.45 39.35 21.65 39.25 21.5 39.55 L20.7 39.35 20.85 39.5 19.9 39.35 19.8 39.25 19.85 39.05 Q19.85 38.75 18.5 38.15 L18.25 37.95 17.75 37.7 17.4 37.75 16.55 37.5 16.6 37.4 16.4 37.1 16.5 36.95 16.6 36.75 16.3 36.5 Q16.0 36.5 16.0 36.75 L16.05 36.95 Q15.85 36.95 15.85 37.3 L15.9 37.45 15.6 37.4 15.55 37.35 15.45 37.25 15.4 37.15 15.55 36.85 Q15.55 36.55 15.15 36.55 L15.1 36.55 Q14.95 36.3 14.65 36.4 L14.35 35.9 14.45 35.9 14.65 35.8 14.75 35.55 14.35 35.15 Q14.15 35.15 14.05 35.25 13.6 34.0 14.05 32.8 M32.25 37.25 L32.4 36.75 32.45 37.15 32.25 37.25 M15.1 36.05 L15.15 36.0 15.0 35.9 14.9 35.95 15.1 36.05 M15.55 35.55 Q15.2 35.55 15.2 35.85 15.25 36.2 15.6 36.2 L15.75 36.05 15.85 35.85 15.55 35.55 M37.8 31.4 L37.9 31.15 Q37.9 30.75 37.4 30.65 36.9 30.6 36.9 31.0 L37.0 31.3 Q37.25 31.6 37.55 31.6 L37.8 31.4 M37.65 29.75 L37.95 30.7 37.95 29.9 37.9 29.7 37.65 29.75 M32.75 28.45 L32.75 29.9 Q33.1 30.0 33.3 30.2 L33.95 30.5 34.9 31.1 36.05 31.9 36.75 32.45 37.35 32.95 36.75 32.45 36.05 31.9 34.9 31.1 33.95 30.5 33.3 30.2 Q33.1 30.0 32.75 29.9 L32.75 28.45 M36.4 30.9 L36.3 30.85 36.15 30.85 36.35 30.95 36.4 30.9 M36.3 29.5 Q36.8 29.5 36.8 29.05 36.8 28.5 36.1 28.35 35.5 28.15 35.55 28.8 L35.65 29.1 Q35.85 29.5 36.3 29.5 M33.5 35.15 L34.0 36.1 34.1 36.3 34.0 36.1 33.5 35.15 M22.35 29.55 L24.0 29.8 27.05 30.5 27.55 30.7 27.05 30.5 24.0 29.8 22.35 29.55 M33.45 35.15 L32.6 34.05 31.3 32.8 29.85 31.8 31.3 32.8 32.6 34.05 33.45 35.15" fill="#423c1d" fill-rule="evenodd" stroke="none"/>
      <path d="M36.75 6.35 L36.8 6.3 Q39.8 5.4 40.05 7.4 L39.55 7.9 39.05 8.25 38.95 8.35 36.8 9.25 35.25 9.75 33.95 10.05 30.95 10.5 33.65 10.5 35.05 10.8 Q37.45 11.4 37.25 13.35 L34.55 13.15 32.55 12.85 Q27.6 12.1 22.8 10.4 L21.9 10.05 21.75 10.0 21.7 10.0 Q20.05 9.4 20.0 8.45 19.9 8.1 20.1 7.7 20.35 7.25 21.05 6.75 L22.2 6.65 22.6 6.8 22.8 7.3 22.45 7.75 Q22.35 8.0 22.4 8.2 L22.45 8.45 22.5 8.55 23.85 9.4 24.7 9.6 30.0 9.8 Q32.7 9.5 34.65 8.8 L35.05 8.6 35.4 8.45 35.85 8.2 36.85 7.3 36.95 6.8 36.75 6.35 M36.25 33.65 L36.05 34.15 35.8 33.9 Q35.35 33.5 34.65 33.5 33.95 33.5 33.7 34.2 L33.75 35.15 33.5 35.15 33.45 35.15 32.7 33.7 31.4 32.15 30.8 31.6 31.5 31.75 33.2 32.15 Q33.05 32.2 33.05 32.5 L33.05 32.65 Q33.15 32.85 33.45 32.85 L33.8 32.5 33.75 32.25 34.6 32.45 35.85 32.75 36.05 32.8 36.1 32.85 Q35.8 32.95 35.85 33.25 L35.95 33.5 36.25 33.65 M35.45 33.15 L35.4 33.25 35.5 33.3 35.6 33.2 35.45 33.15 M33.1 33.4 L33.05 33.5 33.1 33.55 33.45 33.5 33.25 33.4 33.1 33.4 M34.55 32.7 L34.55 32.65 Q34.15 32.55 34.15 32.85 L34.45 33.1 34.55 33.0 34.6 32.85 34.55 32.7" fill="#574f27" fill-rule="evenodd" stroke="none"/>
      <path d="M22.8 7.3 Q23.3 6.8 24.3 6.45 26.35 5.55 29.4 5.25 31.45 5.0 33.2 5.2 L34.6 5.4 35.4 5.6 Q36.3 5.85 36.7 6.25 L36.75 6.35 36.95 6.8 36.85 7.3 35.85 8.2 35.4 8.45 35.05 8.6 34.65 8.8 Q32.7 9.5 30.0 9.8 L24.7 9.6 23.85 9.4 22.5 8.55 22.45 8.45 22.4 8.2 Q22.35 8.0 22.45 7.75 L22.8 7.3 M15.55 34.1 Q15.75 33.0 17.8 32.55 L17.85 32.55 18.85 32.35 22.35 32.55 23.0 32.65 Q24.85 33.0 26.35 33.65 27.25 34.05 28.0 34.5 L28.25 34.7 Q29.95 35.9 29.85 37.1 L29.4 37.95 Q28.75 38.55 27.5 38.8 L26.3 39.0 26.05 39.05 22.25 38.7 Q19.3 38.15 17.35 36.8 15.7 35.75 15.6 34.7 L15.55 34.25 15.55 34.1" fill="#181a0b" fill-rule="evenodd" stroke="none"/>
      <path d="M37.1 13.8 Q35.6 15.0 33.95 15.75 L33.25 16.0 Q31.4 14.05 31.05 16.75 L25.45 16.95 24.85 16.85 24.25 16.75 23.4 16.5 22.35 11.65 23.45 11.9 32.2 13.45 34.45 13.65 37.1 13.8 M24.2 17.3 Q27.75 19.1 33.25 18.75 L33.3 18.75 35.9 18.45 Q35.45 19.45 33.65 20.4 L33.25 20.5 32.6 20.65 Q28.65 21.4 24.4 20.1 L23.95 19.95 24.2 17.3 M33.45 17.95 L28.2 17.65 33.75 16.7 36.8 15.45 Q35.65 16.9 33.55 17.9 L33.45 17.95 M24.1 22.55 L23.85 22.5 24.3 20.7 Q27.35 22.15 32.25 21.15 L33.25 20.95 36.4 20.05 36.45 20.1 Q37.55 21.0 37.0 22.3 L32.85 23.3 30.05 23.5 27.8 23.4 27.75 21.9 25.9 23.05 24.1 22.55 M23.7 23.35 L29.85 23.95 32.7 23.8 36.75 23.0 36.7 23.05 36.75 23.2 36.85 23.25 37.0 23.25 37.2 23.25 37.25 23.1 37.1 22.95 36.85 22.95 37.5 22.8 Q37.4 24.4 36.0 25.7 L33.65 26.1 28.0 26.25 26.1 26.05 23.7 25.6 22.7 25.35 23.7 23.35 M19.45 29.75 L20.8 28.3 25.15 28.2 27.55 28.5 30.3 29.1 31.8 29.6 32.3 29.8 Q34.3 30.9 33.3 31.3 L31.65 30.8 29.8 30.3 27.15 29.85 24.2 29.55 22.35 29.55 19.7 29.75 19.6 29.75 19.45 29.75 M21.4 27.65 L21.7 27.0 Q23.95 26.75 26.15 26.95 L27.8 27.1 31.0 27.85 32.0 28.15 32.75 28.45 30.8 29.05 30.4 28.9 27.55 28.15 25.4 27.85 21.4 27.65 M36.15 24.85 L36.35 25.05 36.6 24.8 36.15 24.7 36.15 24.85" fill="url(#gradient3)" fill-rule="evenodd" stroke="none"/>
      <path d="M36.75 23.0 L36.75 22.95 36.85 22.95 37.1 22.95 37.25 23.1 37.2 23.25 37.0 23.25 36.85 23.25 36.75 23.2 36.7 23.05 36.75 23.0 M38.3 24.2 L38.25 24.1 38.3 23.9 38.0 23.65 38.2 23.35 38.35 23.1 38.9 23.95 38.6 24.15 38.3 24.2 M31.65 38.25 L31.7 38.05 31.3 37.7 31.2 37.35 Q31.2 36.9 31.65 36.95 32.0 37.0 32.0 37.4 L32.25 37.25 32.45 37.15 32.75 37.0 33.05 36.95 33.05 36.85 Q33.05 36.4 33.5 36.4 L33.95 36.75 34.1 36.3 34.1 36.2 33.85 35.8 33.75 35.15 33.7 34.2 Q33.95 33.5 34.65 33.5 35.35 33.5 35.8 33.9 L36.05 34.15 36.1 34.25 Q36.85 34.25 37.1 33.65 L37.35 33.0 37.35 32.95 37.45 32.65 38.1 32.05 37.95 31.85 37.95 31.7 Q37.9 31.3 38.25 31.3 L38.5 31.4 38.7 31.45 38.85 31.6 Q39.25 31.85 39.25 32.55 L39.25 32.7 39.6 33.2 39.6 33.3 39.5 33.6 39.4 33.7 39.4 33.95 39.4 34.35 39.2 34.25 Q38.35 35.15 37.85 35.25 L37.4 35.75 37.2 35.7 37.05 35.6 37.2 35.95 37.3 36.25 37.1 36.75 36.5 36.95 35.85 36.8 35.5 37.25 35.0 37.75 34.85 38.15 34.4 38.5 34.1 38.3 33.85 38.7 33.6 39.3 33.35 39.25 33.2 39.15 32.85 39.45 32.35 39.7 32.4 40.1 32.35 40.4 32.1 40.55 31.8 40.5 31.65 40.6 31.25 40.6 30.75 40.75 30.7 40.75 29.75 41.0 29.4 41.3 28.4 41.5 27.35 41.35 27.2 40.95 26.85 41.05 26.65 41.05 26.25 41.35 25.35 41.5 24.55 41.3 24.05 41.4 Q23.4 41.4 20.1 40.0 L20.1 40.05 20.05 40.35 Q20.0 40.55 19.65 40.55 L18.8 40.35 18.85 39.9 18.2 39.55 17.75 39.1 17.7 39.35 17.3 39.6 Q16.45 39.6 16.05 39.15 L15.85 38.5 15.85 38.25 Q15.75 38.55 15.1 38.55 14.65 38.55 14.5 38.25 L14.35 37.95 14.55 37.7 Q14.25 37.4 14.25 36.9 14.25 36.65 14.6 36.4 L14.65 36.4 Q14.95 36.3 15.1 36.55 L15.15 36.55 Q15.55 36.55 15.55 36.85 L15.4 37.15 15.45 37.25 15.55 37.35 15.6 37.4 15.9 37.45 15.85 37.3 Q15.85 36.95 16.05 36.95 L16.0 36.75 Q16.0 36.5 16.3 36.5 L16.6 36.75 16.5 36.95 16.4 37.1 16.6 37.4 16.55 37.5 17.4 37.75 17.75 37.7 18.25 37.95 18.5 38.15 Q19.85 38.75 19.85 39.05 L19.8 39.25 19.9 39.35 20.85 39.5 20.7 39.35 21.5 39.55 Q21.65 39.25 22.45 39.35 23.4 39.55 23.4 39.8 L23.4 40.0 24.4 40.1 24.7 40.1 24.8 40.1 25.0 40.0 25.15 39.95 25.1 39.8 25.5 39.5 Q25.95 39.55 25.95 39.95 L26.05 39.9 Q26.15 39.75 26.5 39.75 L26.95 39.8 27.65 39.95 Q27.65 39.55 28.1 39.55 28.6 39.6 28.6 40.0 L28.6 40.05 28.7 40.1 29.15 39.95 30.0 39.65 Q30.05 39.3 30.6 39.2 31.3 39.1 31.35 39.6 L31.35 39.7 31.4 39.7 31.5 39.75 31.5 39.45 Q31.45 38.75 31.65 38.25 M32.3 36.4 L31.95 36.2 31.9 35.9 Q31.9 35.35 32.35 35.45 L32.7 35.6 32.8 35.9 32.75 36.1 32.7 36.25 32.3 36.4 M14.05 35.25 Q14.15 35.15 14.35 35.15 L14.75 35.55 14.65 35.8 14.45 35.9 14.35 35.9 Q13.95 35.85 13.95 35.45 L14.05 35.25 M15.55 35.55 L15.85 35.85 15.75 36.05 15.6 36.2 Q15.25 36.2 15.2 35.85 15.2 35.55 15.55 35.55 M15.1 36.05 L14.9 35.95 15.0 35.9 15.15 36.0 15.1 36.05 M37.65 29.75 L37.9 29.7 37.95 29.9 37.95 30.7 37.65 29.75 M37.8 31.4 L37.55 31.6 Q37.25 31.6 37.0 31.3 L36.9 31.0 Q36.9 30.6 37.4 30.65 37.9 30.75 37.9 31.15 L37.8 31.4 M36.15 24.85 L36.15 24.7 36.6 24.8 36.35 25.05 36.15 24.85 M36.3 29.5 Q35.85 29.5 35.65 29.1 L35.55 28.8 Q35.5 28.15 36.1 28.35 36.8 28.5 36.8 29.05 36.8 29.5 36.3 29.5 M36.4 30.9 L36.35 30.95 36.15 30.85 36.3 30.85 36.4 30.9 M36.1 32.85 L36.25 32.85 Q36.6 32.85 36.75 33.25 L36.8 33.15 36.85 33.15 36.9 33.25 36.8 33.45 36.75 33.25 Q36.75 33.65 36.35 33.65 L36.25 33.65 35.95 33.5 35.85 33.25 Q35.8 32.95 36.1 32.85 M33.75 32.25 L33.8 32.5 33.45 32.85 Q33.15 32.85 33.05 32.65 L33.05 32.5 Q33.05 32.2 33.2 32.15 L33.45 32.1 Q33.7 32.1 33.75 32.25 M35.45 33.15 L35.6 33.2 35.5 33.3 35.4 33.25 35.45 33.15 M34.55 32.7 L34.6 32.85 34.55 33.0 34.45 33.1 34.15 32.85 Q34.15 32.55 34.55 32.65 L34.55 32.7 M33.1 33.4 L33.25 33.4 33.45 33.5 33.1 33.55 33.05 33.5 33.1 33.4 M30.05 35.85 Q30.05 35.7 30.2 35.6 L30.4 35.5 30.55 35.5 30.5 35.75 30.3 36.0 30.05 35.85" fill="#7d6b2a" fill-rule="evenodd" stroke="none"/>
      <path d="M14.05 32.75 L15.05 31.3 15.15 31.2 Q16.2 30.5 18.35 30.6 L19.0 30.6 19.35 30.65 19.4 30.65 23.8 30.2 27.05 30.6 27.55 30.7 29.35 31.45 29.85 31.8 31.25 33.25 32.4 34.7 32.6 35.0 32.7 35.6 32.35 35.45 Q31.9 35.35 31.9 35.9 L31.95 36.2 32.3 36.4 32.4 36.75 32.3 36.4 32.7 36.25 32.75 36.1 32.75 37.0 32.45 37.15 32.4 36.75 32.25 37.25 32.0 37.4 Q32.0 37.0 31.65 36.95 31.2 36.9 31.2 37.35 L31.3 37.7 31.7 38.05 31.65 38.25 31.45 38.35 30.55 38.55 Q30.0 38.4 29.4 37.95 L29.85 37.1 Q29.95 35.9 28.25 34.7 L28.0 34.5 Q27.25 34.05 26.35 33.65 24.85 33.0 23.0 32.65 L22.35 32.55 18.85 32.35 17.85 32.55 17.8 32.55 Q15.75 33.0 15.55 34.1 L14.9 34.45 Q14.3 34.45 14.05 32.8 L14.05 32.75 M24.85 31.8 L23.05 31.3 19.4 30.65 23.05 31.3 24.85 31.8 M30.05 35.85 L30.3 36.0 30.5 35.75 30.55 35.5 30.4 35.5 30.2 35.6 Q30.05 35.7 30.05 35.85" fill="url(#gradient4)" fill-rule="evenodd" stroke="none"/>
      <path d="M22.8 7.3 Q23.3 6.8 24.3 6.45 26.35 5.55 29.4 5.25 31.45 5.0 33.2 5.2 L34.6 5.4 35.4 5.6 Q36.3 5.85 36.7 6.25 L36.75 6.35 M22.8 7.3 L22.45 7.75 Q22.35 8.0 22.4 8.2 L22.45 8.45 22.5 8.55 23.85 9.4 24.7 9.6 30.0 9.8 Q32.7 9.5 34.65 8.8 L35.05 8.6 35.4 8.45 35.85 8.2 36.85 7.3 36.95 6.8 36.75 6.35 M37.25 13.35 L37.7 13.35 37.85 13.35 M39.55 7.9 L39.05 8.25 M21.85 10.1 L21.75 10.0 21.9 10.05 22.8 10.4 Q27.6 12.1 32.55 12.85 L34.55 13.15 37.25 13.35 M24.25 16.75 L24.85 16.85 25.45 16.95 31.05 16.75 Q31.4 14.05 33.25 16.0 L33.95 15.75 Q35.6 15.0 37.1 13.8 L37.7 13.35 M24.25 16.75 L24.2 17.3 M33.65 20.4 Q35.8 19.8 37.75 18.65 M37.4 17.05 Q35.6 17.8 33.55 17.95 L33.45 17.95 28.2 17.65 25.45 16.95 M24.1 22.55 L25.9 23.05 27.75 21.9 27.8 23.4 30.05 23.5 32.85 23.3 37.0 22.3 M38.0 21.9 L37.0 22.3 M24.4 20.1 Q28.65 21.4 32.6 20.65 L33.25 20.5 33.65 20.4 M15.55 34.1 Q15.75 33.0 17.8 32.55 L17.85 32.55 18.85 32.35 22.35 32.55 23.0 32.65 Q24.85 33.0 26.35 33.65 27.25 34.05 28.0 34.5 L28.25 34.7 Q29.95 35.9 29.85 37.1 L29.4 37.95 Q28.75 38.55 27.5 38.8 L26.3 39.0 26.05 39.05 22.25 38.7 Q19.3 38.15 17.35 36.8 15.7 35.75 15.6 34.7 L15.55 34.25 15.55 34.1 M32.4 36.75 L32.3 36.4 M29.85 31.8 L29.35 31.45 27.55 30.7 27.05 30.5 24.0 29.8 22.35 29.55 24.2 29.55 27.15 29.85 29.8 30.3 31.65 30.8 33.3 31.3 33.55 31.35 34.7 31.8 35.95 32.35 37.35 33.0 M19.4 30.65 L23.05 31.3 24.85 31.8 M19.4 30.65 L19.35 30.65 19.0 30.6 18.35 30.6 M19.45 29.75 L19.6 29.75 19.7 29.75 22.35 29.55 M15.55 37.35 L15.6 37.4 M33.65 26.1 L28.0 26.25 26.1 26.05 23.7 25.6 M37.35 32.95 L36.75 32.45 36.05 31.9 34.9 31.1 33.95 30.5 33.3 30.2 Q33.1 30.0 32.75 29.9 L32.75 28.45 30.8 29.05 30.4 28.9 27.55 28.15 25.4 27.85 21.4 27.65 M33.45 35.15 L33.5 35.15 M34.1 36.3 L34.0 36.1 33.5 35.15 M32.45 37.15 L32.4 36.75 M29.85 31.8 L31.3 32.8 32.6 34.05 33.45 35.15" fill="none" stroke="#000000" stroke-linecap="round" stroke-linejoin="miter" stroke-miterlimit="5.0" stroke-opacity="0.15294118" stroke-width="0.25"/>
      <path d="M40.05 7.4 L40.2 6.5 40.1 6.05 Q39.55 5.0 36.95 4.5 L29.65 4.3 Q25.65 4.7 22.85 5.85 L22.6 5.9 22.6 6.0 Q21.65 6.3 21.05 6.75 M37.85 13.35 L38.4 13.45 38.75 11.25 Q38.95 10.05 39.3 8.85 L39.55 7.9 M40.05 7.4 L39.55 7.9 M21.75 10.0 L21.7 10.0 Q20.05 9.4 20.0 8.45 19.9 8.1 20.1 7.7 20.35 7.25 21.05 6.75 M22.35 11.65 L23.4 16.5 24.25 16.75 M37.75 18.65 L37.75 18.4 37.4 17.05 M23.7 23.35 L24.1 22.55 23.85 22.5 24.3 20.7 24.4 20.1 23.95 19.95 24.2 17.3 M36.0 25.7 L36.75 25.55 39.15 23.95 38.0 21.9 M37.85 13.35 L37.95 16.85 37.9 16.85 37.4 17.05 M37.75 18.65 L38.4 21.65 38.0 21.9 M22.35 11.65 L21.85 10.1 M18.35 30.6 L19.45 29.75 20.8 28.3 21.4 27.65 21.7 27.0 Q22.45 25.8 23.7 25.6 L22.7 25.35 23.7 23.35 M18.35 30.6 Q16.2 30.5 15.15 31.2 L15.05 31.3 14.05 32.75 M14.35 35.9 L14.65 36.4 M14.05 35.25 Q13.6 34.0 14.05 32.8 M38.85 31.6 Q38.2 29.5 36.85 28.1 35.55 26.75 33.65 26.1 M36.0 25.7 L33.65 26.1" fill="none" stroke="#000000" stroke-linecap="round" stroke-linejoin="round" stroke-opacity="0.3019608" stroke-width="0.5"/>
    </g>
    <linearGradient gradientTransform="matrix(-0.0129, 0.0, -1.0E-4, -0.003, 15.65, 11.0)" gradientUnits="userSpaceOnUse" id="gradient1" spreadMethod="pad" x1="-819.2" x2="819.2">
      <stop offset="0.0" stop-color="#574f27"/>
      <stop offset="1.0" stop-color="#7d7030"/>
    </linearGradient>
    <linearGradient gradientTransform="matrix(-4.0E-4, -0.0097, 0.0051, 0.0, 12.75, 24.8)" gradientUnits="userSpaceOnUse" id="gradient2" spreadMethod="pad" x1="-819.2" x2="819.2">
      <stop offset="0.0" stop-color="#574f27"/>
      <stop offset="0.9411764705882353" stop-color="#7d7030"/>
    </linearGradient>
    <linearGradient gradientTransform="matrix(-0.0129, 0.0, -1.0E-4, -0.0033, 26.6, 14.35)" gradientUnits="userSpaceOnUse" id="gradient3" spreadMethod="pad" x1="-819.2" x2="819.2">
      <stop offset="0.0" stop-color="#574f27"/>
      <stop offset="1.0" stop-color="#7d7030"/>
    </linearGradient>
    <linearGradient gradientTransform="matrix(-4.0E-4, -0.0107, 0.0051, 0.0, 23.7, 29.55)" gradientUnits="userSpaceOnUse" id="gradient4" spreadMethod="pad" x1="-819.2" x2="819.2">
      <stop offset="0.0" stop-color="#574f27"/>
      <stop offset="0.9411764705882353" stop-color="#7d7030"/>
    </linearGradient>
  </defs>
</svg>
