<?xml version="1.0" encoding="UTF-8" standalone="no"?>
<svg xmlns:xlink="http://www.w3.org/1999/xlink" height="440.0px" width="440.0px" xmlns="http://www.w3.org/2000/svg">
  <g transform="matrix(10.0, 0.0, 0.0, 10.0, 0.0, 0.0)">
    <use height="44.0" transform="matrix(0.9091, 0.0, 0.0, 0.9091, 2.0, 2.0)" width="44.0" xlink:href="#sprite0"/>
  </g>
  <defs>
    <g id="sprite0" transform="matrix(1.0, 0.0, 0.0, 1.0, 0.0, 0.0)">
      <use height="44.0" transform="matrix(1.0, 0.0, 0.0, 1.0, 0.0, 0.0)" width="44.0" xlink:href="#shape0"/>
      <use height="43.2" transform="matrix(0.768, 0.0, 0.0739, 0.768, 4.2474, 2.8696)" width="27.1" xlink:href="#sprite1"/>
      <use height="43.2" transform="matrix(0.8336, 0.0, 0.0, 0.8336, 14.6999, 4.1499)" width="27.1" xlink:href="#sprite1"/>
    </g>
    <g id="shape0" transform="matrix(1.0, 0.0, 0.0, 1.0, 0.0, 0.0)">
      <path d="M44.0 44.0 L0.0 44.0 0.0 0.0 44.0 0.0 44.0 44.0" fill="#43adca" fill-opacity="0.0" fill-rule="evenodd" stroke="none"/>
    </g>
    <g id="sprite1" transform="matrix(1.0, 0.0, 0.0, 1.0, 0.3, 0.3)">
      <use height="43.2" transform="matrix(1.0, 0.0, 0.0, 1.0, -0.3, -0.3)" width="27.1" xlink:href="#shape1"/>
    </g>
    <g id="shape1" transform="matrix(1.0, 0.0, 0.0, 1.0, 0.3, 0.3)">
      <path d="M19.35 26.95 Q19.6 24.95 21.0 23.8 L22.7 22.65 23.1 23.55 Q21.9 24.15 21.2 24.95 L21.05 25.2 Q24.5 26.7 20.35 29.2 L20.5 29.7 21.1 31.8 21.5 33.25 21.05 33.95 20.2 34.1 20.25 32.85 19.6 30.6 Q19.1 28.5 19.35 26.95 M16.4 33.35 L16.35 32.85 Q16.25 32.15 14.85 29.85 L16.85 28.35 Q18.0 29.65 18.65 31.4 L16.4 33.35 M11.4 31.85 Q12.5 32.9 13.15 34.3 13.7 35.6 13.9 37.15 L11.2 34.65 Q9.25 33.15 7.3 32.45 5.25 31.7 3.15 31.85 L3.65 31.45 6.7 28.85 9.45 30.45 11.4 31.85 M21.05 25.2 Q19.8 26.8 20.35 29.2 19.8 26.8 21.05 25.2" fill="#786641" fill-rule="evenodd" stroke="none"/>
      <path d="M10.2 8.15 L10.35 9.15 10.2 8.95 10.2 8.15" fill="#37383f" fill-rule="evenodd" stroke="none"/>
      <path d="M0.0 36.35 L0.0 35.8 0.8 34.35 1.4 37.6 0.0 36.35 M5.9 25.7 Q6.3 25.2 7.2 24.65 7.85 24.3 8.7 24.3 10.25 24.2 12.55 25.2 14.5 26.35 15.7 27.3 L15.8 27.4 16.85 28.35 14.85 29.85 Q13.2 27.95 10.9 26.6 8.35 25.2 6.5 25.55 L5.9 25.7 M5.5 39.55 L10.85 39.55 9.65 40.6 5.5 39.55" fill="#b3ac93" fill-rule="evenodd" stroke="none"/>
      <path d="M8.0 42.6 L5.15 42.25 4.15 40.35 2.1 40.9 Q0.8 40.0 0.0 38.9 L0.0 36.35 1.4 37.6 2.75 38.25 5.1 39.35 5.5 39.55 9.65 40.6 Q9.8 41.6 8.0 42.6 M5.55 26.65 Q5.5 26.2 5.9 25.7 L6.5 25.55 Q8.35 25.2 10.9 26.6 13.2 27.95 14.85 29.85 16.25 32.15 16.35 32.85 L16.4 33.35 16.4 33.9 16.25 33.5 Q15.65 31.8 14.2 30.35 12.8 28.9 10.6 27.6 8.0 26.2 6.2 26.5 L5.55 26.65" fill="#9c8b59" fill-rule="evenodd" stroke="none"/>
      <path d="M0.8 34.35 Q1.75 32.9 2.65 32.25 L3.15 31.85 Q5.25 31.7 7.3 32.45 7.6 34.75 2.75 38.25 L1.4 37.6 0.8 34.35 M11.2 34.65 L13.9 37.15 10.85 39.55 5.5 39.55 5.1 39.35 Q7.95 35.35 11.2 34.65" fill="#a19268" fill-rule="evenodd" stroke="none"/>
      <path d="M6.7 28.85 L3.65 31.45 Q3.55 28.85 4.9 28.5 5.6 28.35 6.7 28.85" fill="#211926" fill-rule="evenodd" stroke="none"/>
      <path d="M10.95 42.2 L8.0 42.6 Q9.8 41.6 9.65 40.6 L10.85 39.55 13.9 37.15 14.0 38.65 12.3 39.65 10.95 42.2" fill="#897235" fill-rule="evenodd" stroke="none"/>
      <path d="M13.9 40.25 Q12.7 41.65 10.95 42.2 L12.3 39.65 14.0 38.65 13.9 40.25 M5.15 42.25 L4.45 42.1 2.1 40.9 4.15 40.35 5.15 42.25" fill="#736a25" fill-rule="evenodd" stroke="none"/>
      <path d="M7.3 32.45 Q9.25 33.15 11.2 34.65 7.95 35.35 5.1 39.35 L2.75 38.25 Q7.6 34.75 7.3 32.45" fill="#9c8b5c" fill-rule="evenodd" stroke="none"/>
      <path d="M21.2 24.95 Q23.2 24.95 23.35 26.8 L22.75 27.8 Q21.65 29.2 20.5 29.7 L20.35 29.2 Q24.5 26.7 21.05 25.2 L21.2 24.95" fill="#a18e68" fill-rule="evenodd" stroke="none"/>
      <path d="M23.35 26.8 L23.35 27.2 Q23.35 30.75 21.1 31.8 L20.5 29.7 Q21.65 29.2 22.75 27.8 L23.35 26.8" fill="#9c8b5d" fill-rule="evenodd" stroke="none"/>
      <path d="M22.7 22.65 L21.0 23.8 Q19.6 24.95 19.35 26.95 18.55 28.4 16.85 28.35 L15.8 27.4 15.7 27.3 Q17.55 26.85 14.65 24.2 12.9 22.15 11.15 21.9 10.35 21.95 9.35 22.9 9.25 22.25 10.0 21.55 10.65 21.0 10.7 19.75 L10.7 19.3 10.85 13.35 10.6 11.2 Q11.9 13.65 14.3 13.85 18.4 14.15 21.4 12.9 L21.4 21.6 22.7 22.65 M11.8 18.75 Q12.0 17.5 10.85 13.35 12.0 17.5 11.8 18.75 M2.65 32.25 Q2.15 29.5 4.0 27.7 5.45 27.4 6.15 27.7 9.0 28.5 12.35 32.1 L11.4 31.85 9.45 30.45 6.7 28.85 Q5.6 28.35 4.9 28.5 3.55 28.85 3.65 31.45 L3.15 31.85 2.65 32.25 M13.55 22.3 Q15.0 23.45 15.5 22.45 16.1 21.15 14.1 20.2 12.1 19.3 11.0 20.65 10.25 21.7 11.25 21.6 12.15 21.1 13.55 22.3" fill="#57684f" fill-rule="evenodd" stroke="none"/>
      <path d="M4.0 27.7 L5.05 26.85 5.55 26.65 6.2 26.5 Q8.0 26.2 10.6 27.6 12.8 28.9 14.2 30.35 14.45 32.1 13.3 32.35 L12.35 32.1 Q9.0 28.5 6.15 27.7 5.45 27.4 4.0 27.7 M8.7 24.3 L9.65 23.5 Q11.8 21.95 14.65 24.2 17.55 26.85 15.7 27.3 14.5 26.35 12.55 25.2 10.25 24.2 8.7 24.3 M13.55 22.3 Q12.15 21.1 11.25 21.6 10.25 21.7 11.0 20.65 12.1 19.3 14.1 20.2 16.1 21.15 15.5 22.45 15.0 23.45 13.55 22.3" fill="#7a8466" fill-rule="evenodd" stroke="none"/>
      <path d="M20.2 34.1 L19.35 35.4 Q19.25 33.15 18.65 31.4 18.0 29.65 16.85 28.35 18.55 28.4 19.35 26.95 19.1 28.5 19.6 30.6 L20.25 32.85 20.2 34.1 M16.6 38.2 L14.5 40.05 13.9 40.25 14.0 38.65 13.9 37.15 Q13.7 35.6 13.15 34.3 12.5 32.9 11.4 31.85 L12.35 32.1 13.3 32.35 Q14.45 32.1 14.2 30.35 15.65 31.8 16.25 33.5 L16.4 33.9 16.6 35.2 16.6 38.2 M9.65 23.5 L9.35 22.9 Q10.35 21.95 11.15 21.9 12.9 22.15 14.65 24.2 11.8 21.95 9.65 23.5" fill="#47503b" fill-rule="evenodd" stroke="none"/>
      <path d="M21.4 12.9 Q18.4 14.15 14.3 13.85 11.9 13.65 10.6 11.2 L10.35 9.3 10.95 10.05 10.35 9.15 10.2 8.15 10.2 7.35 21.4 8.5 21.4 12.9" fill="#3d422f" fill-rule="evenodd" stroke="none"/>
      <path d="M19.35 35.4 L19.35 36.35 Q18.6 37.45 17.2 38.2 L16.6 38.2 16.6 35.2 16.4 33.9 16.4 33.35 18.65 31.4 Q19.25 33.15 19.35 35.4" fill="#5c4d31" fill-rule="evenodd" stroke="none"/>
      <path d="M19.35 26.95 Q19.6 24.95 21.0 23.8 L22.7 22.65 21.4 21.6 21.4 12.9 M10.6 11.2 L10.85 13.35 M10.2 8.15 L10.2 7.35 21.4 8.5 21.4 12.9 M22.7 22.65 L23.1 23.55 Q21.9 24.15 21.2 24.95 23.2 24.95 23.35 26.8 L23.35 27.2 Q23.35 30.75 21.1 31.8 L21.5 33.25 21.05 33.95 20.2 34.1 19.35 35.4 19.35 36.35 Q18.6 37.45 17.2 38.2 L16.6 38.2 14.5 40.05 13.9 40.25 Q12.7 41.65 10.95 42.2 L8.0 42.6 5.15 42.25 4.45 42.1 2.1 40.9 Q0.8 40.0 0.0 38.9 L0.0 36.35 0.0 35.8 0.8 34.35 Q1.75 32.9 2.65 32.25 2.15 29.5 4.0 27.7 L5.05 26.85 5.55 26.65 Q5.5 26.2 5.9 25.7 6.3 25.2 7.2 24.65 7.85 24.3 8.7 24.3 L9.65 23.5 9.35 22.9 Q9.25 22.25 10.0 21.55 10.65 21.0 10.7 19.75 L10.7 19.3 10.85 13.35 M10.2 8.15 L10.35 9.15 10.95 10.05 M10.35 9.3 L10.6 11.2 M10.35 9.15 L10.2 8.95 10.2 8.15 M10.35 9.3 L10.35 9.15 M15.7 27.3 L15.8 27.4 16.85 28.35 Q18.0 29.65 18.65 31.4 19.25 33.15 19.35 35.4 M19.35 26.95 Q19.1 28.5 19.6 30.6 L20.25 32.85 20.2 34.1 M9.65 23.5 Q11.8 21.95 14.65 24.2 M5.55 26.65 L6.2 26.5 Q8.0 26.2 10.6 27.6 12.8 28.9 14.2 30.35 15.65 31.8 16.25 33.5 L16.4 33.9 16.6 35.2 16.6 38.2 M13.9 37.15 Q13.7 35.6 13.15 34.3 12.5 32.9 11.4 31.85 L9.45 30.45 6.7 28.85 3.65 31.45 3.15 31.85 M13.9 37.15 L14.0 38.65 13.9 40.25 M8.7 24.3 Q10.25 24.2 12.55 25.2 14.5 26.35 15.7 27.3 M2.65 32.25 L3.15 31.85 M22.75 27.8 L23.35 26.8 M20.35 29.2 L20.5 29.7 21.1 31.8 M20.35 29.2 Q19.8 26.8 21.05 25.2 L21.2 24.95" fill="none" stroke="#130d05" stroke-linecap="round" stroke-linejoin="round" stroke-opacity="0.3019608" stroke-width="0.6000000000000001"/>
      <path d="M10.85 13.35 Q12.0 17.5 11.8 18.75" fill="none" stroke="#130d05" stroke-linecap="round" stroke-linejoin="round" stroke-opacity="0.15294118" stroke-width="0.4"/>
      <path d="M5.1 39.35 Q7.95 35.35 11.2 34.65" fill="none" stroke="#130d05" stroke-linecap="round" stroke-linejoin="round" stroke-opacity="0.15294118" stroke-width="0.30000000000000004"/>
      <path d="M18.15 12.85 Q15.25 16.7 15.9 20.1" fill="none" stroke="#130d05" stroke-linecap="round" stroke-linejoin="round" stroke-opacity="0.15294118" stroke-width="0.4"/>
      <path d="M22.25 10.75 Q22.6 9.5 25.05 8.4 L25.9 8.3 Q26.35 8.65 26.4 9.3 26.45 10.4 25.25 10.95 24.4 11.2 22.95 13.2 L22.25 13.75 22.25 10.75" fill="#47503b" fill-rule="evenodd" stroke="none"/>
      <path d="M22.25 13.75 L21.35 15.1 19.05 16.9 16.9 14.95 18.9 14.95 Q20.65 14.85 22.25 13.75" fill="#3b3e2d" fill-rule="evenodd" stroke="none"/>
      <path d="M19.1 11.7 L20.6 11.7 22.25 10.75 22.25 13.75 Q20.65 14.85 18.9 14.95 L16.9 14.95 16.6 12.45 19.1 11.7" fill="#556248" fill-rule="evenodd" stroke="none"/>
      <path d="M25.9 8.3 L25.05 8.4 Q22.6 9.5 22.25 10.75 L20.6 11.7 19.1 11.7 16.9 11.7 17.9 11.0 Q19.75 11.5 21.25 10.4 23.0 7.8 24.7 7.85 25.45 7.95 25.9 8.3" fill="#7a8466" fill-rule="evenodd" stroke="none"/>
      <path d="M16.9 11.7 L19.1 11.7 16.6 12.45 16.9 11.7" fill="#959781" fill-rule="evenodd" stroke="none"/>
      <path d="M25.9 8.3 Q25.45 7.95 24.7 7.85 23.0 7.8 21.25 10.4 19.75 11.5 17.9 11.0 M22.25 13.75 L22.95 13.2 Q24.4 11.2 25.25 10.95 26.45 10.4 26.4 9.3 26.35 8.65 25.9 8.3 M22.25 13.75 Q20.65 14.85 18.9 14.95 L16.9 14.95" fill="none" stroke="#130d05" stroke-linecap="round" stroke-linejoin="round" stroke-opacity="0.3019608" stroke-width="0.6000000000000001"/>
      <path d="M18.75 11.15 L18.95 12.05 18.95 14.1 18.95 14.15 18.85 15.75 18.6 15.35 18.8 15.4 18.75 11.75 18.65 11.3 18.6 11.15 18.6 10.85 18.75 11.15" fill="#5d4c31" fill-rule="evenodd" stroke="none"/>
      <path d="M18.6 11.15 L18.65 11.3 18.75 11.75 18.8 15.4 18.6 15.35 18.65 11.5 18.6 11.15" fill="#130d05" fill-opacity="0.3019608" fill-rule="evenodd" stroke="none"/>
      <path d="M18.85 15.75 L18.95 14.15 19.5 14.75 20.2 13.1 20.0 15.6 18.95 15.8 18.85 15.75" fill="#553917" fill-rule="evenodd" stroke="none"/>
      <path d="M18.95 12.05 Q19.5 11.6 20.1 11.55 L20.2 13.1 19.5 14.75 18.95 14.15 18.95 14.1 18.95 12.05" fill="#5a4728" fill-rule="evenodd" stroke="none"/>
      <path d="M20.05 11.35 L18.75 11.15 18.6 10.85 19.7 10.95 20.05 11.35" fill="#68512f" fill-rule="evenodd" stroke="none"/>
      <path d="M18.95 12.05 L18.75 11.15 20.05 11.35 20.1 11.55 Q19.5 11.6 18.95 12.05" fill="#8a5c25" fill-rule="evenodd" stroke="none"/>
      <path d="M20.1 11.55 L20.05 11.35 19.7 10.95 18.6 10.85 18.6 11.15 18.65 11.3 18.75 11.75 18.8 15.4 18.6 15.35 18.85 15.75 18.95 15.8 20.0 15.6 20.2 13.1 20.1 11.55 Z" fill="none" stroke="#37250f" stroke-linecap="round" stroke-linejoin="round" stroke-opacity="0.3019608" stroke-width="0.6000000000000001"/>
      <path d="M20.3 6.55 L20.6 6.1 Q22.4 3.8 20.0 2.3 L17.7 0.9 18.35 0.25 19.35 0.25 Q21.05 1.05 21.6 1.85 L22.3 3.2 22.5 3.95 Q22.9 6.25 20.35 7.85 18.45 9.0 15.65 8.35 13.1 7.85 11.0 6.45 L10.25 6.55 Q10.5 7.95 10.05 8.95 9.5 8.3 9.25 7.3 9.7 5.3 9.35 3.75 9.95 0.6 15.45 0.0 L16.0 0.75 15.05 1.05 14.5 1.25 14.15 1.5 Q12.75 1.75 11.6 2.9 10.15 4.25 12.05 5.55 L12.9 6.05 15.5 7.15 Q18.85 8.3 20.3 6.55" fill="#b3ac93" fill-rule="evenodd" stroke="none"/>
      <path d="M12.05 5.55 Q10.15 4.25 11.6 2.9 12.75 1.75 14.15 1.5 L14.5 1.25 15.05 1.05 16.2 1.4 16.2 3.1 15.8 3.2 13.2 4.2 Q12.0 5.15 12.05 5.55" fill="#605133" fill-rule="evenodd" stroke="none"/>
      <path d="M15.05 1.05 L16.0 0.75 16.2 0.95 16.2 1.4 15.05 1.05 M17.7 0.9 L20.0 2.3 Q22.4 3.8 20.6 6.1 20.7 4.35 18.1 3.6 L17.7 3.5 17.7 0.9" fill="#786641" fill-rule="evenodd" stroke="none"/>
      <path d="M20.6 6.1 L20.3 6.55 Q20.3 5.1 17.75 3.85 17.95 3.75 18.1 3.6 20.7 4.35 20.6 6.1 M12.9 6.05 L12.05 5.55 Q12.0 5.15 13.2 4.2 L15.8 3.2 16.2 3.7 Q13.5 4.5 12.9 6.05" fill="#4e4128" fill-rule="evenodd" stroke="none"/>
      <path d="M10.05 8.95 Q10.5 7.95 10.25 6.55 L11.0 6.45 Q13.1 7.85 15.65 8.35 18.45 9.0 20.35 7.85 22.9 6.25 22.5 3.95 23.1 6.5 22.35 8.1 21.45 9.95 18.2 10.8 14.15 11.4 11.25 9.7 L10.05 8.95" fill="url(#gradient0)" fill-rule="evenodd" stroke="none"/>
      <path d="M20.3 6.55 Q18.85 8.3 15.5 7.15 L12.9 6.05 Q13.5 4.5 16.2 3.7 L16.6 4.2 17.35 4.15 17.75 3.85 Q20.3 5.1 20.3 6.55" fill="#37250f" fill-rule="evenodd" stroke="none"/>
      <path d="M20.6 6.1 L20.3 6.55 Q18.85 8.3 15.5 7.15 L12.9 6.05 12.05 5.55 M16.0 0.75 L15.45 0.0 Q9.95 0.6 9.35 3.75 9.7 5.3 9.25 7.3 9.5 8.3 10.05 8.95 L11.25 9.7 Q14.15 11.4 18.2 10.8 21.45 9.95 22.35 8.1 23.1 6.5 22.5 3.95 L22.3 3.2 21.6 1.85 Q21.05 1.05 19.35 0.25 L18.35 0.25 17.7 0.9 M18.1 3.6 Q17.95 3.75 17.75 3.85 20.3 5.1 20.3 6.55 M16.0 0.75 L16.2 0.95 16.2 1.4 16.2 3.1 15.8 3.2 16.2 3.7 16.6 4.2 17.35 4.15 17.75 3.85 M18.1 3.6 L17.7 3.5 17.7 0.9 M12.9 6.05 Q13.5 4.5 16.2 3.7" fill="none" stroke="#130d05" stroke-linecap="round" stroke-linejoin="round" stroke-opacity="0.3019608" stroke-width="0.6000000000000001"/>
      <path d="M22.35 18.4 Q22.7 17.15 25.15 16.05 L26.0 15.95 Q26.45 16.3 26.5 16.95 26.55 18.05 25.35 18.6 24.5 18.85 23.05 20.85 L22.35 21.4 22.35 18.4" fill="#47503b" fill-rule="evenodd" stroke="none"/>
      <path d="M22.35 21.4 L21.45 22.75 19.15 24.55 17.0 22.6 19.0 22.6 Q20.75 22.5 22.35 21.4" fill="#3b3e2d" fill-rule="evenodd" stroke="none"/>
      <path d="M19.2 19.35 L20.7 19.35 22.35 18.4 22.35 21.4 Q20.75 22.5 19.0 22.6 L17.0 22.6 16.7 20.1 19.2 19.35" fill="#556248" fill-rule="evenodd" stroke="none"/>
      <path d="M18.0 18.65 Q19.85 19.15 21.35 18.05 23.1 15.45 24.8 15.5 25.55 15.6 26.0 15.95 L25.15 16.05 Q22.7 17.15 22.35 18.4 L20.7 19.35 19.2 19.35 17.0 19.35 18.0 18.65" fill="#7a8466" fill-rule="evenodd" stroke="none"/>
      <path d="M17.0 19.35 L19.2 19.35 16.7 20.1 17.0 19.35" fill="#959781" fill-rule="evenodd" stroke="none"/>
      <path d="M26.0 15.95 Q25.55 15.6 24.8 15.5 23.1 15.45 21.35 18.05 19.85 19.15 18.0 18.65 M26.0 15.95 Q26.45 16.3 26.5 16.95 26.55 18.05 25.35 18.6 24.5 18.85 23.05 20.85 L22.35 21.4 Q20.75 22.5 19.0 22.6 L17.0 22.6" fill="none" stroke="#130d05" stroke-linecap="round" stroke-linejoin="round" stroke-opacity="0.3019608" stroke-width="0.6000000000000001"/>
      <path d="M9.35 24.4 Q9.7 24.5 9.85 24.7 10.05 25.0 9.85 25.25 L9.3 25.6 8.6 25.65 8.05 25.4 Q7.9 25.15 8.05 24.9 L8.6 24.5 9.35 24.4" fill="#924d05" fill-rule="evenodd" stroke="none"/>
      <path d="M9.35 24.4 Q9.7 24.5 9.85 24.7 10.05 25.0 9.85 25.25 L9.3 25.6 8.6 25.65 8.05 25.4 Q7.9 25.15 8.05 24.9 L8.6 24.5 9.35 24.4 Z" fill="none" stroke="#3a3d39" stroke-linecap="round" stroke-linejoin="round" stroke-opacity="0.5019608" stroke-width="0.5"/>
      <path d="M14.35 26.5 Q14.75 26.6 14.95 26.85 15.15 27.25 14.95 27.55 L14.3 28.0 13.5 28.05 Q13.05 28.05 12.85 27.75 12.65 27.45 12.85 27.1 L13.5 26.6 14.35 26.5" fill="#924d05" fill-rule="evenodd" stroke="none"/>
      <path d="M14.35 26.5 Q14.75 26.6 14.95 26.85 15.15 27.25 14.95 27.55 L14.3 28.0 13.5 28.05 Q13.05 28.05 12.85 27.75 12.65 27.45 12.85 27.1 L13.5 26.6 14.35 26.5 Z" fill="none" stroke="#3a3d39" stroke-linecap="round" stroke-linejoin="round" stroke-opacity="0.5019608" stroke-width="0.5"/>
      <path d="M18.85 18.8 L19.05 19.7 19.05 21.75 19.05 21.8 18.95 23.4 18.7 23.0 18.9 23.05 18.85 19.4 18.75 18.95 18.7 18.8 18.7 18.5 18.85 18.8" fill="#5d4c31" fill-rule="evenodd" stroke="none"/>
      <path d="M18.7 18.8 L18.75 18.95 18.85 19.4 18.9 23.05 18.7 23.0 18.75 19.15 18.7 18.8" fill="#130d05" fill-opacity="0.3019608" fill-rule="evenodd" stroke="none"/>
      <path d="M18.95 23.4 L19.05 21.8 19.6 22.4 20.3 20.75 20.1 23.25 19.05 23.45 18.95 23.4" fill="#553917" fill-rule="evenodd" stroke="none"/>
      <path d="M19.05 19.7 Q19.6 19.25 20.2 19.2 L20.3 20.75 19.6 22.4 19.05 21.8 19.05 21.75 19.05 19.7" fill="#5a4728" fill-rule="evenodd" stroke="none"/>
      <path d="M20.15 19.0 L18.85 18.8 18.7 18.5 19.8 18.6 20.15 19.0" fill="#68512f" fill-rule="evenodd" stroke="none"/>
      <path d="M19.05 19.7 L18.85 18.8 20.15 19.0 20.2 19.2 Q19.6 19.25 19.05 19.7" fill="#8a5c25" fill-rule="evenodd" stroke="none"/>
      <path d="M20.2 19.2 L20.15 19.0 19.8 18.6 18.7 18.5 18.7 18.8 18.75 18.95 18.85 19.4 18.9 23.05 18.7 23.0 18.95 23.4 19.05 23.45 20.1 23.25 20.3 20.75 20.2 19.2 Z" fill="none" stroke="#37250f" stroke-linecap="round" stroke-linejoin="round" stroke-opacity="0.3019608" stroke-width="0.6000000000000001"/>
    </g>
    <linearGradient gradientTransform="matrix(0.0078, -7.0E-4, 0.0, 0.004, 16.4, 7.7)" gradientUnits="userSpaceOnUse" id="gradient0" spreadMethod="pad" x1="-819.2" x2="819.2">
      <stop offset="0.00784313725490196" stop-color="#9c8c5b"/>
      <stop offset="0.8823529411764706" stop-color="#937f3f"/>
    </linearGradient>
  </defs>
</svg>
