<?xml version="1.0" encoding="UTF-8" standalone="no"?>
<svg xmlns:xlink="http://www.w3.org/1999/xlink" height="440.0px" width="440.0px" xmlns="http://www.w3.org/2000/svg">
  <g transform="matrix(10.0, 0.0, 0.0, 10.0, 0.0, 0.0)">
    <use height="44.0" transform="matrix(0.9091, 0.0, 0.0, 0.9091, 2.0, 2.0)" width="44.0" xlink:href="#sprite0"/>
  </g>
  <defs>
    <g id="sprite0" transform="matrix(1.0, 0.0, 0.0, 1.0, 0.0, 0.0)">
      <use height="44.0" transform="matrix(1.0, 0.0, 0.0, 1.0, 0.0, 0.0)" width="44.0" xlink:href="#shape0"/>
      <use height="111.3" transform="matrix(0.1428, 0.0, 0.0, 0.1428, 12.2295, 14.4646)" width="90.7" xlink:href="#shape1"/>
      <use height="106.55" transform="matrix(0.1554, 0.0, 0.0, 0.1554, 3.2732, 15.6303)" width="101.4" xlink:href="#shape2"/>
      <use height="45.9" transform="matrix(-0.2406, 0.0036, 0.0026, 0.231, 25.2035, 7.743)" width="50.55" xlink:href="#shape3"/>
      <use height="46.6" transform="matrix(0.319, 0.0, 0.0, 0.319, 20.4614, 17.6062)" width="46.35" xlink:href="#shape4"/>
      <use height="115.25" transform="matrix(0.1452, 0.0, 0.0, 0.1477, 25.3704, 16.3522)" width="96.0" xlink:href="#shape5"/>
      <use height="110.2" transform="matrix(0.1713, 0.0, 0.0, 0.1713, 17.1451, 19.4224)" width="114.45" xlink:href="#shape6"/>
      <use height="55.8" transform="matrix(0.2642, 0.0389, -0.036, 0.2446, 21.5792, 6.5686)" width="64.9" xlink:href="#shape7"/>
    </g>
    <g id="shape0" transform="matrix(1.0, 0.0, 0.0, 1.0, 0.0, 0.0)">
      <path d="M44.0 44.0 L0.0 44.0 0.0 0.0 44.0 0.0 44.0 44.0" fill="#43adca" fill-opacity="0.0" fill-rule="evenodd" stroke="none"/>
    </g>
    <g id="shape1" transform="matrix(1.0, 0.0, 0.0, 1.0, 49.5, 14.6)">
      <path d="M5.2 58.35 L38.3 58.35 Q41.6 78.1 32.05 80.3 22.45 82.5 15.25 81.2 7.95 79.85 6.95 75.15 5.9 70.5 5.2 58.35" fill="#100b0a" fill-rule="evenodd" stroke="none"/>
      <path d="M5.2 58.35 Q5.9 70.5 6.95 75.15 7.95 79.85 15.25 81.2 22.45 82.5 32.05 80.3 41.6 78.1 38.3 58.35 L5.2 58.35 Z" fill="none" stroke="#332720" stroke-linecap="round" stroke-linejoin="round" stroke-width="1.5"/>
      <path d="M-0.55 88.95 Q-2.3 92.8 -9.7 94.8 -17.1 96.75 -27.9 95.35 -34.2 93.75 -34.85 75.7 -20.7 51.4 1.9 68.1 1.25 85.05 -0.55 88.95" fill="#100b0a" fill-rule="evenodd" stroke="none"/>
      <path d="M-0.55 88.95 Q-2.3 92.8 -9.7 94.8 -17.1 96.75 -27.9 95.35 -34.2 93.75 -34.85 75.7 -20.7 51.4 1.9 68.1 1.25 85.05 -0.55 88.95 Z" fill="none" stroke="#332720" stroke-linecap="round" stroke-linejoin="round" stroke-width="1.5"/>
      <path d="M-47.75 5.1 Q-37.3 3.1 -33.35 -1.3 L-29.85 -3.8 Q-23.25 -8.9 1.8 -13.85 L11.8 -11.85 Q21.4 -10.3 30.2 -10.45 35.55 -11.1 40.15 -5.2 41.1 -0.1 39.15 4.05 37.85 7.8 34.75 11.0 L33.3 17.9 Q41.3 41.75 37.15 60.4 16.3 74.1 3.85 69.7 L1.6 68.7 Q-2.75 70.3 -3.8 72.6 L-3.85 72.8 -6.35 77.1 Q-8.8 81.4 -14.85 78.05 L-11.25 75.1 -11.45 68.65 -11.6 65.8 Q-12.7 42.6 -16.9 28.65 -21.5 22.75 -46.95 5.4 L-47.25 5.35 -47.8 5.1 -47.75 5.1 M6.9 67.6 L1.6 68.7 6.9 67.6 M28.65 16.1 L29.9 15.2 34.75 11.0 29.9 15.2 28.65 16.1" fill="#644d19" fill-rule="evenodd" stroke="none"/>
      <path d="M-47.75 5.1 Q-37.3 3.1 -33.35 -1.3 L-29.85 -3.8 Q-23.25 -8.9 1.8 -13.85 L11.8 -11.85 Q21.4 -10.3 30.2 -10.45 35.55 -11.1 40.15 -5.2 41.1 -0.1 39.15 4.05 37.85 7.8 34.75 11.0 L33.3 17.9 Q41.3 41.75 37.15 60.4 16.3 74.1 3.85 69.7 L1.6 68.7 Q-2.75 70.3 -3.8 72.6 L-3.85 72.8 -6.35 77.1 Q-8.8 81.4 -14.85 78.05 M-47.8 5.1 L-48.75 5.25 M34.75 11.0 L29.9 15.2 28.65 16.1 M1.6 68.7 L6.9 67.6" fill="none" stroke="#332720" stroke-linecap="round" stroke-linejoin="round" stroke-width="1.5"/>
      <path d="M15.8 18.15 Q22.1 17.8 27.0 22.9 31.6 28.1 32.05 35.5 32.3 42.9 28.8 48.75 25.35 54.7 18.5 55.4 11.55 55.8 6.7 49.95 2.1 43.9 1.9 36.9 1.55 29.85 5.6 24.2 9.65 18.5 15.8 18.15 M6.05 41.7 Q12.3 52.5 17.95 52.2 23.2 51.75 26.25 47.85 29.5 43.9 29.05 38.35 L28.8 37.4 28.25 36.95 24.0 41.35 Q20.6 44.55 18.95 44.65 12.45 45.0 6.05 41.7" fill="#d4c7ad" fill-rule="evenodd" stroke="none"/>
      <path d="M6.05 41.7 Q12.45 45.0 18.95 44.65 20.6 44.55 24.0 41.35 L28.25 36.95 28.8 37.4 29.05 38.35 Q29.5 43.9 26.25 47.85 23.2 51.75 17.95 52.2 12.3 52.5 6.05 41.7" fill="#91866f" fill-rule="evenodd" stroke="none"/>
      <path d="M15.8 18.15 Q22.1 17.8 27.0 22.9 31.6 28.1 32.05 35.5 32.3 42.9 28.8 48.75 25.35 54.7 18.5 55.4 11.55 55.8 6.7 49.95 2.1 43.9 1.9 36.9 1.55 29.85 5.6 24.2 9.65 18.5 15.8 18.15 Z" fill="none" stroke="#332720" stroke-linecap="round" stroke-linejoin="round" stroke-width="1.5"/>
      <path d="M9.75 33.3 Q9.05 32.2 9.05 31.5 9.05 28.0 12.1 27.4 15.0 26.75 15.0 29.3 15.1 30.65 14.65 31.95 13.8 34.6 11.4 34.6 10.5 34.6 9.75 33.3" fill="#ffffff" fill-rule="evenodd" stroke="none"/>
    </g>
    <g id="shape2" transform="matrix(1.0, 0.0, 0.0, 1.0, 75.15, 7.85)">
      <path d="M-42.45 70.5 Q-42.6 78.0 -44.1 82.65 -53.6 84.95 -59.9 83.0 -66.05 81.0 -67.5 77.15 -69.05 73.25 -69.7 61.1 L-42.45 70.5" fill="#100b0a" fill-rule="evenodd" stroke="none"/>
      <path d="M-42.45 70.5 L-69.7 61.1 Q-69.05 73.25 -67.5 77.15 -66.05 81.0 -59.9 83.0 -53.6 84.95 -44.1 82.65 -42.6 78.0 -42.45 70.5 Z" fill="none" stroke="#332720" stroke-linecap="round" stroke-linejoin="round" stroke-width="1.5"/>
      <path d="M-4.5 71.95 Q-5.4 85.85 -7.4 90.35 -9.35 94.75 -19.05 97.1 -28.7 99.55 -41.05 94.9 -44.35 90.45 -43.8 81.45 L-43.0 73.25 Q-24.4 70.15 -4.5 71.95" fill="#100b0a" fill-rule="evenodd" stroke="none"/>
      <path d="M-4.5 71.95 Q-5.4 85.85 -7.4 90.35 -9.35 94.75 -19.05 97.1 -28.7 99.55 -41.05 94.9 -44.35 90.45 -43.8 81.45 L-43.0 73.25 Q-24.4 70.15 -4.5 71.95 Z" fill="none" stroke="#332720" stroke-linecap="round" stroke-linejoin="round" stroke-width="1.5"/>
      <path d="M0.95 32.55 Q3.35 27.8 6.05 24.55 9.95 38.8 11.7 57.6 12.45 58.05 13.35 60.95 14.2 63.85 -11.2 73.5 -4.95 66.35 -16.05 68.85 -10.65 64.4 -12.8 56.45 -15.0 48.45 -7.6 41.5 -0.15 34.6 0.95 32.55" fill="#215c5a" fill-rule="evenodd" stroke="none"/>
      <path d="M-64.15 20.15 Q-65.3 23.3 -62.25 29.5 -59.25 35.65 -51.4 40.35 -43.6 45.15 -35.6 45.95 -4.9 38.1 2.25 33.7 9.3 29.3 11.5 23.5 9.8 14.75 4.8 7.15 L13.3 14.6 Q13.3 16.65 13.7 18.9 15.15 27.0 18.25 34.4 18.7 36.35 18.55 38.4 18.35 41.5 16.65 44.05 L16.45 45.3 Q14.2 52.35 20.75 53.45 L21.9 53.65 Q20.6 57.95 20.5 63.45 L20.45 65.05 23.0 65.1 Q-11.1 86.05 -37.5 83.0 -60.4 77.4 -68.05 63.8 -69.3 32.1 -64.15 20.15" fill="#ad651f" fill-rule="evenodd" stroke="none"/>
      <path d="M-11.4 -1.6 Q-9.75 -0.5 -7.6 0.0 -3.0 1.15 1.5 2.7 L4.2 6.25 4.8 7.15 Q9.8 14.75 11.5 23.5 9.3 29.3 2.25 33.7 -4.9 38.1 -35.6 45.95 -43.6 45.15 -51.4 40.35 -59.25 35.65 -62.25 29.5 -65.3 23.3 -64.15 20.15 -58.95 11.25 -38.05 4.95 -22.8 0.4 -11.4 -1.6" fill="#e6ad3d" fill-rule="evenodd" stroke="none"/>
      <path d="M-11.4 -1.6 Q-22.8 0.4 -38.05 4.95 -58.95 11.25 -64.15 20.15 M23.0 65.1 Q-11.1 86.05 -37.5 83.0 -60.4 77.4 -68.05 63.8 -69.3 32.1 -64.15 20.15" fill="none" stroke="#32251b" stroke-linecap="round" stroke-linejoin="round" stroke-width="1.5"/>
      <path d="M-42.0 51.35 L-41.2 53.15 Q-39.15 56.9 -35.15 56.9 -30.25 56.9 -27.55 52.0 -28.7 69.55 -27.95 86.15 -29.9 88.7 -31.7 89.15 -37.6 89.95 -41.7 85.95 -44.65 68.75 -42.0 51.35" fill="#211612" fill-rule="evenodd" stroke="none"/>
      <path d="M-42.0 51.35 Q-41.2 46.05 -39.9 40.7 L-38.5 38.75 Q-37.35 37.5 -35.95 36.95 -28.5 35.6 -26.65 41.3 L-26.65 41.7 -27.55 52.0 Q-30.25 56.9 -35.15 56.9 -39.15 56.9 -41.2 53.15 L-42.0 51.35" fill="#6f4811" fill-rule="evenodd" stroke="none"/>
      <path d="M-27.55 52.0 L-26.65 41.7 -26.65 41.3 Q-28.5 35.6 -35.95 36.95 -37.35 37.5 -38.5 38.75 L-39.9 40.7 Q-41.2 46.05 -42.0 51.35 M-27.55 52.0 Q-28.7 69.55 -27.95 86.15 -29.9 88.7 -31.7 89.15 -37.6 89.95 -41.7 85.95 -44.65 68.75 -42.0 51.35" fill="none" stroke="#332720" stroke-linecap="round" stroke-linejoin="round" stroke-width="1.5"/>
      <path d="M8.65 4.5 Q11.85 6.05 14.75 7.95 26.8 18.3 25.5 48.75 25.7 58.6 23.45 66.65 L23.4 66.85 20.55 71.2 Q17.75 75.55 10.9 72.15 L14.95 69.15 Q14.2 39.0 8.6 22.1 2.95 15.7 -3.0 11.25 L12.95 15.75 13.75 14.95 Q14.5 13.85 14.5 12.15 14.5 10.25 13.65 7.8 L8.65 4.5 M15.95 9.5 L13.65 7.8 15.95 9.5 M25.2 43.55 L25.5 48.75 25.2 43.55 M11.6 25.55 L8.6 22.1 11.6 25.55" fill="#644d19" fill-rule="evenodd" stroke="none"/>
      <path d="M-3.0 11.25 Q-12.1 4.5 -22.15 2.45 L-31.9 3.4 Q-30.6 -2.95 -22.25 -7.1 -15.75 -5.95 -9.75 -4.05 0.35 -0.6 8.65 4.5 L13.65 7.8 Q14.5 10.25 14.5 12.15 14.5 13.85 13.75 14.95 L12.95 15.75 -3.0 11.25" fill="#bd9539" fill-rule="evenodd" stroke="none"/>
      <path d="M-3.0 11.25 Q-12.1 4.5 -22.15 2.45 L-31.9 3.4 Q-30.6 -2.95 -22.25 -7.1 -15.75 -5.95 -9.75 -4.05 0.35 -0.6 8.65 4.5 M25.5 48.75 Q25.7 58.6 23.45 66.65 L23.4 66.85 20.55 71.2 Q17.75 75.55 10.9 72.15 L14.95 69.15 Q14.2 39.0 8.6 22.1 2.95 15.7 -3.0 11.25 M13.65 7.8 L8.65 4.5 M8.6 22.1 L11.6 25.55 M25.5 48.75 L25.2 43.55 M13.65 7.8 L15.95 9.5" fill="none" stroke="#332720" stroke-linecap="round" stroke-linejoin="round" stroke-width="1.5"/>
      <path d="M-73.85 40.0 L-73.85 40.1 Q-72.65 42.4 -71.85 42.4 -69.9 42.4 -66.1 38.0 L-63.8 34.95 Q-64.75 53.0 -64.2 69.85 -65.55 72.15 -66.65 72.55 -70.65 73.1 -73.4 69.15 -75.1 54.6 -73.85 40.0" fill="#211612" fill-rule="evenodd" stroke="none"/>
      <path d="M-73.85 40.0 Q-73.4 33.5 -72.85 30.5 -72.35 27.5 -71.55 26.05 -70.8 24.55 -65.65 21.8 -64.6 22.15 -63.35 27.55 L-63.35 27.75 -63.8 34.95 -66.1 38.0 Q-69.9 42.4 -71.85 42.4 -72.65 42.4 -73.85 40.1 L-73.85 40.0" fill="#6f4811" fill-rule="evenodd" stroke="none"/>
      <path d="M-63.8 34.95 L-63.35 27.75 -63.35 27.55 Q-64.6 22.15 -65.65 21.8 -70.8 24.55 -71.55 26.05 -72.35 27.5 -72.85 30.5 -73.4 33.5 -73.85 40.0 M-63.8 34.95 Q-64.75 53.0 -64.2 69.85 -65.55 72.15 -66.65 72.55 -70.65 73.1 -73.4 69.15 -75.1 54.6 -73.85 40.0" fill="none" stroke="#332720" stroke-linecap="round" stroke-linejoin="round" stroke-width="1.5"/>
      <path d="M-35.6 1.05 Q-36.9 1.85 -38.0 3.4 -35.35 0.0 -33.0 2.2 -30.6 4.25 -33.0 11.15 -33.5 13.65 -33.6 16.1 L-35.0 17.0 Q-43.1 19.75 -41.0 9.9 L-40.35 7.8 Q-45.85 8.35 -42.85 5.3 -39.85 2.1 -35.6 1.05 M-40.35 7.8 L-39.65 6.35 Q-38.9 4.6 -38.0 3.4 -38.9 4.6 -39.65 6.35 L-40.35 7.8" fill="#d1b786" fill-rule="evenodd" stroke="none"/>
      <path d="M-33.0 11.15 Q-30.6 5.05 -29.05 4.7 L-28.5 4.85 -28.15 5.05 -27.95 5.25 -28.15 5.05 -28.5 4.85 -29.05 4.7 Q-30.6 5.05 -33.0 11.15 -30.6 4.25 -33.0 2.2 -35.35 0.0 -38.0 3.4 -36.9 1.85 -35.6 1.05 -32.25 -1.0 -28.05 1.3 -23.85 3.4 -25.4 4.85 -26.5 5.85 -27.95 5.25 L-24.95 6.95 Q-21.65 9.35 -23.0 12.0 -24.55 14.55 -27.3 14.75 L-30.05 12.65 -33.0 11.15" fill="#917b55" fill-rule="evenodd" stroke="none"/>
      <path d="M-27.95 5.25 L-28.15 5.05 -28.5 4.85 -29.05 4.7 Q-30.6 5.05 -33.0 11.15 L-30.05 12.65 -27.3 14.75 Q-24.55 14.55 -23.0 12.0 -21.65 9.35 -24.95 6.95 L-27.95 5.25 Q-26.5 5.85 -25.4 4.85 -23.85 3.4 -28.05 1.3 -32.25 -1.0 -35.6 1.05 -36.9 1.85 -38.0 3.4 -38.9 4.6 -39.65 6.35 L-40.35 7.8 Q-45.85 8.35 -42.85 5.3 -39.85 2.1 -35.6 1.05 M-33.0 11.15 Q-33.5 13.65 -33.6 16.1 L-35.0 17.0 Q-43.1 19.75 -41.0 9.9 L-40.35 7.8" fill="none" stroke="#332720" stroke-linecap="round" stroke-linejoin="round" stroke-opacity="0.49803922" stroke-width="1.5"/>
      <path d="M-0.9 31.75 L-3.7 28.05 -5.0 26.85 Q-9.2 22.75 -13.05 21.9 -14.45 21.35 -16.7 20.9 -19.05 20.4 -18.05 18.7 -17.1 16.9 -15.1 15.8 0.1 18.7 0.65 26.15 1.1 33.6 -0.9 31.75 M-8.6 31.5 L-10.4 32.95 Q-16.05 34.35 -19.55 29.9 L-20.2 29.1 Q-18.85 26.6 -17.25 24.85 L-15.6 23.45 -15.25 23.4 Q-14.15 23.1 -11.65 25.15 -9.1 27.3 -8.6 31.5" fill="#d1b786" fill-rule="evenodd" stroke="none"/>
      <path d="M-15.6 23.45 L-15.25 23.15 -15.25 23.4 -15.6 23.45 M-0.9 17.4 L-0.1 17.5 Q5.65 17.85 8.65 22.0 L6.2 22.25 Q3.9 20.0 0.3 18.1 L-0.4 17.6 -0.9 17.4" fill="#917b55" fill-rule="evenodd" stroke="none"/>
      <path d="M6.2 22.25 Q9.3 25.4 10.15 28.75 L10.25 29.5 9.55 30.5 Q6.65 33.95 2.7 34.85 1.55 34.75 -0.9 31.75 1.1 33.6 0.65 26.15 0.1 18.7 -15.1 15.8 -10.3 13.85 -4.05 15.75 -2.35 16.5 -0.9 17.4 L-0.4 17.6 0.3 18.1 Q3.9 20.0 6.2 22.25 M-5.0 26.85 L-5.45 28.9 -5.45 29.1 -8.6 31.5 Q-9.1 27.3 -11.65 25.15 -14.15 23.1 -15.25 23.4 L-15.25 23.15 Q-14.2 22.3 -13.05 21.9 -9.2 22.75 -5.0 26.85" fill="#987950" fill-rule="evenodd" stroke="none"/>
      <path d="M6.2 22.25 Q9.3 25.4 10.15 28.75 L10.25 29.5 9.55 30.5 Q6.65 33.95 2.7 34.85 1.55 34.75 -0.9 31.75 L-3.7 28.05 -5.0 26.85 -5.45 28.9 M-5.45 29.1 L-8.6 31.5 -10.4 32.95 Q-16.05 34.35 -19.55 29.9 L-20.2 29.1 Q-18.85 26.6 -17.25 24.85 L-15.6 23.45 -15.25 23.15 Q-14.2 22.3 -13.05 21.9 -14.45 21.35 -16.7 20.9 -19.05 20.4 -18.05 18.7 -17.1 16.9 -15.1 15.8 -10.3 13.85 -4.05 15.75 -2.35 16.5 -0.9 17.4 L-0.1 17.5 Q5.65 17.85 8.65 22.0 L6.2 22.25 Q3.9 20.0 0.3 18.1 L-0.4 17.6 -0.9 17.4 M-13.05 21.9 Q-9.2 22.75 -5.0 26.85" fill="none" stroke="#332720" stroke-linecap="round" stroke-linejoin="round" stroke-opacity="0.49803922" stroke-width="1.5"/>
    </g>
    <g id="shape3" transform="matrix(1.0, 0.0, 0.0, 1.0, 27.4, 14.75)">
      <path d="M-24.4 19.6 L-24.8 19.75 -24.95 19.4 -24.4 19.6" fill="#6b0808" fill-rule="evenodd" stroke="none"/>
      <path d="M-22.85 10.55 Q-20.9 5.6 -17.4 1.25 -0.35 0.2 15.55 0.7 20.35 5.7 22.4 12.25 21.5 20.3 16.55 24.4 3.65 35.35 -20.15 26.35 -24.0 22.85 -24.8 19.75 L-24.4 19.6 -17.5 21.9 -10.2 25.2 -4.8 25.55 Q-1.8 25.5 4.4 23.95 12.0 22.05 11.9 20.05 11.85 18.7 10.65 15.85 9.4 12.85 7.9 11.1 6.9 9.9 3.75 10.2 L-1.1 10.7 Q-4.3 10.6 -9.9 9.15 -15.05 7.85 -18.7 7.95 -19.45 7.95 -21.15 9.15 L-22.85 10.55" fill="#987950" fill-rule="evenodd" stroke="none"/>
      <path d="M-22.85 10.55 L-21.15 9.15 Q-19.45 7.95 -18.7 7.95 -15.05 7.85 -9.9 9.15 -4.3 10.6 -1.1 10.7 L3.75 10.2 Q6.9 9.9 7.9 11.1 9.4 12.85 10.65 15.85 11.85 18.7 11.9 20.05 12.0 22.05 4.4 23.95 -1.8 25.5 -4.8 25.55 L-10.2 25.2 -17.5 21.9 -24.4 19.6 -24.95 19.4 Q-25.2 18.0 -24.9 16.8 -24.25 13.75 -23.05 10.95 L-22.85 10.55" fill="#e6dbbf" fill-rule="evenodd" stroke="none"/>
      <path d="M-24.8 19.75 Q-24.0 22.85 -20.15 26.35 3.65 35.35 16.55 24.4 21.5 20.3 22.4 12.25 20.35 5.7 15.55 0.7 -0.35 0.2 -17.4 1.25 -20.9 5.6 -22.85 10.55 M-24.8 19.75 L-24.95 19.4 Q-25.2 18.0 -24.9 16.8 -24.25 13.75 -23.05 10.95" fill="none" stroke="#332720" stroke-linecap="round" stroke-linejoin="round" stroke-opacity="0.49803922" stroke-width="1.5"/>
      <path d="M17.3 2.75 Q18.45 4.2 4.55 9.0 -6.1 10.6 -20.8 5.25 -10.15 7.6 4.2 7.2 12.25 5.65 17.3 2.75" fill="#000000" fill-rule="evenodd" stroke="none"/>
      <path d="M16.6 -8.3 L16.1 -7.95 16.6 -8.2 16.6 -8.3 M15.3 -7.55 L15.4 -7.6 15.8 -7.8 16.1 -7.95 15.8 -7.8 15.4 -7.6 15.3 -7.55 Q-1.55 -10.85 -19.15 -5.65 L-18.15 -5.6 Q-12.3 -5.0 -4.65 -2.85 L-8.35 -2.65 -9.25 -2.65 -9.5 -2.7 -12.45 -3.3 -17.25 -3.9 Q-18.05 -3.85 -21.45 -1.25 -20.6 -0.5 -15.15 1.5 -9.7 3.5 -8.7 3.45 -6.35 3.3 -1.1 1.35 L5.0 -1.05 11.75 -2.45 Q16.45 -3.5 16.4 -4.35 16.35 -5.2 15.45 -5.85 L13.7 -6.8 15.3 -7.55 M-20.75 -5.75 L-19.15 -5.65 -20.75 -5.75 M-20.6 -11.85 Q-1.45 -15.9 17.05 -12.4 L21.7 -9.1 Q22.3 -4.95 21.45 -0.3 L18.75 1.9 17.3 2.75 Q12.25 5.65 4.2 7.2 -10.15 7.6 -20.8 5.25 L-25.2 4.0 Q-27.3 0.7 -26.35 -8.95 -23.4 -10.75 -20.65 -11.9 L-20.6 -11.85" fill="#987950" fill-rule="evenodd" stroke="none"/>
      <path d="M13.7 -6.8 L15.45 -5.85 Q16.35 -5.2 16.4 -4.35 16.45 -3.5 11.75 -2.45 L5.0 -1.05 -1.1 1.35 Q-6.35 3.3 -8.7 3.45 -9.7 3.5 -15.15 1.5 -20.6 -0.5 -21.45 -1.25 -18.05 -3.85 -17.25 -3.9 L-12.45 -3.3 -9.5 -2.7 -9.25 -2.65 -8.35 -2.65 -4.65 -2.85 Q6.15 -3.65 12.85 -6.45 L13.7 -6.8" fill="#e6dbbf" fill-rule="evenodd" stroke="none"/>
      <path d="M15.3 -7.55 L13.7 -6.8 12.85 -6.45 Q6.15 -3.65 -4.65 -2.85 -12.3 -5.0 -18.15 -5.6 L-19.15 -5.65 Q-1.55 -10.85 15.3 -7.55" fill="#806443" fill-rule="evenodd" stroke="none"/>
      <path d="M16.1 -7.95 L16.6 -8.3 M16.1 -7.95 L15.8 -7.8 15.4 -7.6 15.3 -7.55 13.7 -6.8 12.85 -6.45 Q6.15 -3.65 -4.65 -2.85 -12.3 -5.0 -18.15 -5.6 L-19.15 -5.65 -20.75 -5.75 M-20.6 -11.85 Q-1.45 -15.9 17.05 -12.4 L21.7 -9.1 Q22.3 -4.95 21.45 -0.3 L18.75 1.9 17.3 2.75 Q18.45 4.2 4.55 9.0 -6.1 10.6 -20.8 5.25 L-25.2 4.0 Q-27.3 0.7 -26.35 -8.95 -23.4 -10.75 -20.65 -11.9 M17.3 2.75 Q12.25 5.65 4.2 7.2 -10.15 7.6 -20.8 5.25" fill="none" stroke="#332720" stroke-linecap="round" stroke-linejoin="round" stroke-opacity="0.49803922" stroke-width="1.5"/>
    </g>
    <g id="shape4" transform="matrix(1.0, 0.0, 0.0, 1.0, 21.75, 22.55)">
      <path d="M17.35 -21.8 L20.35 -16.1 20.35 -13.35 22.15 -11.0 Q24.55 -1.6 23.55 3.8 L17.55 9.25 13.2 15.3 Q5.7 12.7 -10.1 2.65 L-5.8 -9.35 0.05 -16.35 -0.15 -20.35 17.35 -21.8 M18.95 5.1 L17.55 9.25 18.95 5.1 M20.35 -13.35 L20.35 -10.15 20.35 -13.35" fill="#e6bb5d" fill-rule="evenodd" stroke="none"/>
      <path d="M17.35 -21.8 L20.35 -16.1 20.35 -13.35 22.15 -11.0 Q24.55 -1.6 23.55 3.8 L17.55 9.25 13.2 15.3 M-10.1 2.65 L-5.8 -9.35 0.05 -16.35 -0.15 -20.35 M20.35 -10.15 L20.35 -13.35 M17.55 9.25 L18.95 5.1" fill="none" stroke="#332720" stroke-linecap="round" stroke-linejoin="round" stroke-width="1.5"/>
      <path d="M3.85 16.25 L2.25 18.7 Q-0.45 17.4 -3.45 17.85 L-0.95 15.65 Q1.35 15.1 3.85 16.25 1.35 15.1 -0.95 15.65 L-3.45 17.85 Q-0.45 17.4 2.25 18.7 L3.85 16.25 M15.95 11.4 L12.7 15.45 7.2 17.8 4.65 22.45 Q-1.55 24.45 -5.15 21.85 L-5.05 19.75 Q-9.3 21.2 -11.35 18.55 L-11.35 17.35 Q-13.9 17.8 -15.75 16.75 L-15.75 15.65 Q-18.05 15.4 -19.15 14.65 L-19.35 13.1 -20.95 11.95 Q-21.25 9.7 -20.15 7.45 L-16.6 7.0 -14.0 4.1 -9.5 1.15 3.4 6.75 15.95 11.4 M-6.7 10.7 L-8.35 11.25 -9.35 13.75 -11.35 14.85 -11.35 17.35 -11.35 14.85 -9.35 13.75 -8.35 11.25 -6.7 10.7 M-18.8 9.35 L-17.4 9.1 -17.95 8.15 -19.65 8.3 Q-18.95 8.65 -18.8 9.35 -18.95 8.65 -19.65 8.3 L-17.95 8.15 -17.4 9.1 -18.8 9.35 M-16.4 10.8 L-18.3 11.1 Q-16.6 11.85 -16.65 12.4 L-14.75 11.55 Q-15.4 10.4 -16.4 10.8 -15.4 10.4 -14.75 11.55 L-16.65 12.4 Q-16.6 11.85 -18.3 11.1 L-16.4 10.8 M-15.75 15.65 L-15.4 12.65 -13.2 11.6 -11.8 9.7 -9.75 9.05 -11.8 9.7 -13.2 11.6 -15.4 12.65 -15.75 15.65 M-13.05 7.6 L-14.75 8.5 -16.05 10.25 -18.65 10.55 -19.35 13.1 -18.65 10.55 -16.05 10.25 -14.75 8.5 -13.05 7.6 M-12.75 14.0 Q-13.5 13.25 -14.65 13.0 L-12.85 12.2 Q-11.85 12.2 -11.0 13.0 L-12.75 14.0 -11.0 13.0 Q-11.85 12.2 -12.85 12.2 L-14.65 13.0 Q-13.5 13.25 -12.75 14.0 M-1.65 10.95 Q-2.8 12.0 -2.75 15.25 L-4.95 17.65 -5.05 19.75 -4.95 17.65 -2.75 15.25 Q-2.8 12.0 -1.65 10.95 M-8.3 14.15 L-10.1 15.25 Q-7.8 15.3 -6.9 16.25 L-5.9 15.05 Q-6.85 13.75 -8.3 14.15 -6.85 13.75 -5.9 15.05 L-6.9 16.25 Q-7.8 15.3 -10.1 15.25 L-8.3 14.15" fill="#e6bb5d" fill-rule="evenodd" stroke="none"/>
      <path d="M15.95 11.4 L12.7 15.45 7.2 17.8 4.65 22.45 Q-1.55 24.45 -5.15 21.85 L-5.05 19.75 Q-9.3 21.2 -11.35 18.55 L-11.35 17.35 Q-13.9 17.8 -15.75 16.75 L-15.75 15.65 Q-18.05 15.4 -19.15 14.65 L-19.35 13.1 -20.95 11.95 Q-21.25 9.7 -20.15 7.45 L-16.6 7.0 -14.0 4.1 -9.5 1.15 M-11.35 17.35 L-11.35 14.85 -9.35 13.75 -8.35 11.25 -6.7 10.7 M-19.35 13.1 L-18.65 10.55 -16.05 10.25 -14.75 8.5 -13.05 7.6 M-9.75 9.05 L-11.8 9.7 -13.2 11.6 -15.4 12.65 -15.75 15.65 M-5.05 19.75 L-4.95 17.65 -2.75 15.25 Q-2.8 12.0 -1.65 10.95" fill="none" stroke="#332720" stroke-linecap="round" stroke-linejoin="round" stroke-width="1.5"/>
      <path d="M3.85 16.25 Q1.35 15.1 -0.95 15.65 L-3.45 17.85 Q-0.45 17.4 2.25 18.7 L3.85 16.25 M-16.4 10.8 Q-15.4 10.4 -14.75 11.55 L-16.65 12.4 Q-16.6 11.85 -18.3 11.1 L-16.4 10.8 M-18.8 9.35 Q-18.95 8.65 -19.65 8.3 L-17.95 8.15 -17.4 9.1 -18.8 9.35 M-12.75 14.0 L-11.0 13.0 Q-11.85 12.2 -12.85 12.2 L-14.65 13.0 Q-13.5 13.25 -12.75 14.0 M-8.3 14.15 Q-6.85 13.75 -5.9 15.05 L-6.9 16.25 Q-7.8 15.3 -10.1 15.25 L-8.3 14.15" fill="none" stroke="#332720" stroke-linecap="round" stroke-linejoin="round" stroke-opacity="0.5019608" stroke-width="1.5"/>
    </g>
    <g id="shape5" transform="matrix(1.0, 0.0, 0.0, 1.0, 43.95, 15.9)">
      <path d="M47.5 40.9 L47.4 41.6 47.4 42.2 47.35 42.6 47.25 43.25 47.1 42.75 47.2 43.25 47.05 42.75 47.1 42.75 47.2 42.45 47.5 40.9" fill="#000000" fill-rule="evenodd" stroke="none"/>
      <path d="M47.5 40.9 L47.4 41.6 47.4 42.2" fill="none" stroke="#32251b" stroke-linecap="round" stroke-linejoin="round" stroke-width="1.5"/>
      <path d="M-33.65 21.4 Q-36.0 24.75 -39.3 31.75 -42.6 38.7 -38.95 49.15 -35.25 59.6 -27.35 61.1 -19.45 62.65 -14.15 51.25 -8.75 39.9 -15.25 27.0 -21.75 14.1 -26.5 16.05 -31.2 18.05 -33.65 21.4 M-21.0 57.4 Q-22.55 58.75 -24.35 59.2 -26.1 59.7 -29.15 58.6 -32.1 57.5 -34.0 54.95 -35.95 52.4 -37.4 48.8 -36.25 50.45 -34.45 50.55 L-30.35 50.45 Q-28.15 50.2 -25.55 48.75 -22.85 47.3 -20.45 45.1 -18.0 42.95 -16.9 42.95 -15.8 42.9 -14.75 43.7 -13.65 44.55 -14.8 48.05 -15.95 51.6 -17.7 53.85 -19.4 56.1 -21.0 57.4" fill="#d4c7ad" fill-rule="evenodd" stroke="none"/>
      <path d="M-21.0 57.4 Q-19.4 56.1 -17.7 53.85 -15.95 51.6 -14.8 48.05 -13.65 44.55 -14.75 43.7 -15.8 42.9 -16.9 42.95 -18.0 42.95 -20.45 45.1 -22.85 47.3 -25.55 48.75 -28.15 50.2 -30.35 50.45 L-34.45 50.55 Q-36.25 50.45 -37.4 48.8 -35.95 52.4 -34.0 54.95 -32.1 57.5 -29.15 58.6 -26.1 59.7 -24.35 59.2 -22.55 58.75 -21.0 57.4" fill="#91866f" fill-rule="evenodd" stroke="none"/>
      <path d="M-33.65 21.4 Q-36.0 24.75 -39.3 31.75 -42.6 38.7 -38.95 49.15 -35.25 59.6 -27.35 61.1 -19.45 62.65 -14.15 51.25 -8.75 39.9 -15.25 27.0 -21.75 14.1 -26.5 16.05 -31.2 18.05 -33.65 21.4 Z" fill="none" stroke="#332720" stroke-linecap="round" stroke-linejoin="round" stroke-opacity="0.5019608" stroke-width="1.5"/>
      <path d="M15.55 78.35 Q11.9 75.1 14.05 63.7 L49.5 55.45 Q51.95 69.05 51.1 73.65 50.2 78.2 38.0 80.7 25.8 83.2 15.55 78.35" fill="#100b0a" fill-rule="evenodd" stroke="none"/>
      <path d="M15.55 78.35 Q11.9 75.1 14.05 63.7 L49.5 55.45 Q51.95 69.05 51.1 73.65 50.2 78.2 38.0 80.7 25.8 83.2 15.55 78.35 Z" fill="none" stroke="#332720" stroke-linecap="round" stroke-linejoin="round" stroke-width="1.5"/>
      <path d="M36.25 67.6 Q37.25 88.1 35.95 92.6 34.6 97.0 22.25 98.35 9.85 99.65 0.15 93.8 -3.2 90.2 -0.6 65.6 L2.55 68.0 36.25 67.6" fill="#100b0a" fill-rule="evenodd" stroke="none"/>
      <path d="M36.25 67.6 Q37.25 88.1 35.95 92.6 34.6 97.0 22.25 98.35 9.85 99.65 0.15 93.8 -3.2 90.2 -0.6 65.6 L2.55 68.0 36.25 67.6 Z" fill="none" stroke="#332720" stroke-linecap="round" stroke-linejoin="round" stroke-width="1.5"/>
      <path d="M19.0 -14.8 Q24.25 -13.35 35.7 -9.0 47.2 -4.7 49.6 -1.7 47.65 5.7 43.85 13.15 46.8 20.45 48.5 26.45 49.1 28.55 48.45 37.5 L48.4 38.15 48.1 39.75 48.0 40.05 47.95 40.05 48.1 40.6 48.0 40.05 48.15 40.6 48.25 39.9 48.45 38.15 48.45 37.5 Q50.6 44.7 51.2 52.8 52.5 57.95 34.4 71.15 1.6 75.4 -19.2 54.9 -35.55 54.1 -43.2 43.55 -40.8 31.0 -34.35 22.2 -27.8 13.3 -31.25 4.15 -35.5 2.25 -34.6 -1.8 -33.7 -5.9 -10.0 -11.15 13.6 -16.35 19.0 -14.8" fill="#644d19" fill-rule="evenodd" stroke="none"/>
      <path d="M19.0 -14.8 Q13.6 -16.35 -10.0 -11.15 -33.7 -5.9 -34.6 -1.8 -35.5 2.25 -31.25 4.15 -27.8 13.3 -34.35 22.2 -40.8 31.0 -43.2 43.55 -35.55 54.1 -19.2 54.9 1.6 75.4 34.4 71.15 52.5 57.95 51.2 52.8 50.6 44.7 48.45 37.5 L48.45 38.15 48.25 39.9 48.15 40.6 48.0 40.05 48.1 40.6 47.95 40.05 48.0 40.05 48.1 39.75 48.4 38.15 48.45 37.5 Q49.1 28.55 48.5 26.45 46.8 20.45 43.85 13.15 47.65 5.7 49.6 -1.7 47.2 -4.7 35.7 -9.0 24.25 -13.35 19.0 -14.8 Z" fill="none" stroke="#32251b" stroke-linecap="round" stroke-linejoin="round" stroke-width="1.5"/>
      <path d="M47.65 29.45 Q49.95 35.85 46.4 44.95 42.75 54.1 36.3 54.95 29.85 55.9 25.85 44.3 21.9 32.75 27.35 22.35 32.75 12.0 37.35 14.3 41.9 16.65 43.65 19.8 45.4 22.95 47.65 29.45 M28.85 38.05 Q27.95 37.95 27.05 38.6 26.15 39.3 26.9 42.45 27.55 45.75 28.85 47.9 30.15 50.0 31.35 51.3 32.55 52.55 34.0 53.05 L37.9 52.85 Q40.4 52.05 42.05 49.9 43.8 47.75 45.15 44.6 44.15 46.0 42.7 46.0 L39.4 45.6 Q37.55 45.3 35.55 43.8 33.45 42.3 31.6 40.2 29.75 38.15 28.85 38.05" fill="#d4c7ad" fill-rule="evenodd" stroke="none"/>
      <path d="M28.85 38.05 Q29.75 38.15 31.6 40.2 33.45 42.3 35.55 43.8 37.55 45.3 39.4 45.6 L42.7 46.0 Q44.15 46.0 45.15 44.6 43.8 47.75 42.05 49.9 40.4 52.05 37.9 52.85 L34.0 53.05 Q32.55 52.55 31.35 51.3 30.15 50.0 28.85 47.9 27.55 45.75 26.9 42.45 26.15 39.3 27.05 38.6 27.95 37.95 28.85 38.05" fill="#91866f" fill-rule="evenodd" stroke="none"/>
      <path d="M47.65 29.45 Q49.95 35.85 46.4 44.95 42.75 54.1 36.3 54.95 29.85 55.9 25.85 44.3 21.9 32.75 27.35 22.35 32.75 12.0 37.35 14.3 41.9 16.65 43.65 19.8 45.4 22.95 47.65 29.45 Z" fill="none" stroke="#332720" stroke-linecap="round" stroke-linejoin="round" stroke-width="1.5"/>
      <path d="M41.9 29.2 Q41.3 30.75 40.25 30.85 39.2 31.0 38.3 29.65 37.4 28.4 37.2 26.45 37.0 24.6 37.6 23.1 38.2 21.65 39.25 21.5 40.3 21.4 41.2 22.65 42.1 23.95 42.3 25.85 42.5 27.75 41.9 29.2" fill="#ffffff" fill-rule="evenodd" stroke="none"/>
    </g>
    <g id="shape6" transform="matrix(1.0, 0.0, 0.0, 1.0, 57.25, 6.0)">
      <path d="M-41.5 95.4 Q-48.75 93.3 -50.45 88.4 -52.15 83.55 -51.75 70.35 L-15.4 75.7 Q-10.9 89.9 -15.95 93.35 -21.05 96.8 -24.9 97.2 -35.0 97.3 -41.5 95.4" fill="#100b0a" fill-rule="evenodd" stroke="none"/>
      <path d="M-41.5 95.4 Q-35.0 97.3 -24.9 97.2 -21.05 96.8 -15.95 93.35 -10.9 89.9 -15.4 75.7 L-51.75 70.35 Q-52.15 83.55 -50.45 88.4 -48.75 93.3 -41.5 95.4 Z" fill="none" stroke="#332720" stroke-linecap="round" stroke-linejoin="round" stroke-width="1.5"/>
      <path d="M30.35 94.6 Q29.25 99.7 15.55 102.5 1.85 105.3 -9.45 99.85 -13.45 96.25 -10.75 83.55 L29.05 74.3 Q31.45 89.45 30.35 94.6" fill="#100b0a" fill-rule="evenodd" stroke="none"/>
      <path d="M30.35 94.6 Q29.25 99.7 15.55 102.5 1.85 105.3 -9.45 99.85 -13.45 96.25 -10.75 83.55 L29.05 74.3 Q31.45 89.45 30.35 94.6 Z" fill="none" stroke="#332720" stroke-linecap="round" stroke-linejoin="round" stroke-width="1.5"/>
      <path d="M20.55 42.75 Q22.4 38.9 24.5 36.15 27.5 46.85 28.9 61.3 29.45 61.55 30.15 63.8 30.85 65.95 11.15 75.3 16.0 69.3 7.4 72.1 11.6 68.2 9.95 62.2 8.2 56.2 13.95 50.3 19.7 44.4 20.55 42.75" fill="#b07a39" fill-rule="evenodd" stroke="none"/>
      <path d="M-28.7 10.35 L-28.75 10.35 -28.95 10.35 -28.7 10.35 M-30.35 11.2 L-30.5 11.15 -30.2 11.1 -30.35 11.2" fill="#e6ad3d" fill-rule="evenodd" stroke="none"/>
      <path d="M43.7 62.65 L43.85 63.05 44.0 63.65 43.85 63.05 44.1 63.55 44.0 63.65 43.75 63.9 43.55 64.1 43.6 63.4 43.7 62.65 M43.75 63.9 L43.6 63.4 43.75 63.9 M44.0 65.05 L44.15 65.35 44.1 65.45 44.0 65.05" fill="#ad651f" fill-rule="evenodd" stroke="none"/>
      <path d="M43.7 62.65 L43.6 63.4 43.75 63.9 44.0 65.05 44.15 65.35 44.1 65.45 M44.0 63.65 L43.85 63.05" fill="none" stroke="#32251b" stroke-linecap="round" stroke-linejoin="round" stroke-width="1.5"/>
      <path d="M-9.55 5.25 L-4.45 4.2 Q4.7 2.8 18.95 8.4 33.25 14.0 38.6 21.15 43.9 28.3 39.95 27.3 L35.05 26.05 Q35.9 30.2 37.9 33.35 40.65 37.8 41.3 64.1 L41.25 64.8 41.65 65.75 41.75 66.1 Q34.2 77.2 28.85 83.4 23.4 89.6 -2.5 90.6 -28.2 91.5 -49.0 79.05 L-49.15 78.95 -49.2 78.9 -49.1 79.2 Q-52.8 76.55 -53.6 74.2 -54.4 71.75 -54.45 68.2 -53.55 38.3 -49.7 28.35 L-49.5 28.1 -49.15 31.5 Q-48.6 33.85 -47.05 34.55 -25.8 46.25 11.55 47.95 22.95 42.4 29.9 32.35 13.6 17.75 -11.55 11.7 L-19.9 10.3 Q-23.75 10.25 -29.0 12.1 L-23.2 9.5 Q-19.0 7.75 -14.35 6.5 L-12.35 5.9 -9.55 5.25 M34.45 22.45 L35.05 26.05 34.45 22.45" fill="#ad651f" fill-rule="evenodd" stroke="none"/>
      <path d="M-29.0 12.1 Q-23.75 10.25 -19.9 10.3 L-11.55 11.7 Q13.6 17.75 29.9 32.35 22.95 42.4 11.55 47.95 -25.8 46.25 -47.05 34.55 -48.6 33.85 -49.15 31.5 L-49.5 28.1 Q-41.9 19.05 -30.95 13.15 L-30.8 13.05 -29.4 12.3 -29.35 12.3 -29.0 12.1" fill="#e6ad3d" fill-rule="evenodd" stroke="none"/>
      <path d="M-9.55 5.25 L-12.35 5.9 -14.35 6.5 Q-19.0 7.75 -23.2 9.5 L-29.0 12.1 -29.35 12.3 -29.4 12.3 -30.8 13.05 -30.95 13.15 Q-41.9 19.05 -49.5 28.1 L-49.7 28.35 Q-53.55 38.3 -54.45 68.2 -54.4 71.75 -53.6 74.2 -52.8 76.55 -49.1 79.2 L-49.2 78.9 -49.15 78.95 -49.0 79.05 Q-28.2 91.5 -2.5 90.6 23.4 89.6 28.85 83.4 34.2 77.2 41.75 66.1 L41.65 65.75 41.25 64.8 41.3 64.1 Q40.65 37.8 37.9 33.35 35.9 30.2 35.05 26.05 L34.45 22.45" fill="none" stroke="#32251b" stroke-linecap="round" stroke-linejoin="round" stroke-width="1.5"/>
      <path d="M-55.8 48.15 L-55.8 48.3 Q-54.25 50.75 -53.2 50.75 -50.65 50.75 -45.7 46.0 L-42.65 42.7 Q-43.95 62.2 -43.2 80.4 -44.95 82.85 -46.45 83.3 -51.65 83.85 -55.2 79.6 -57.45 63.9 -55.8 48.15" fill="#211612" fill-rule="evenodd" stroke="none"/>
      <path d="M-55.8 48.15 Q-55.2 41.15 -54.15 37.4 -53.15 33.65 -52.1 32.05 -51.1 30.5 -46.5 28.7 -43.7 28.9 -42.1 34.75 L-42.1 34.9 -42.65 42.7 -45.7 46.0 Q-50.65 50.75 -53.2 50.75 -54.25 50.75 -55.8 48.3 L-55.8 48.15" fill="#6f4811" fill-rule="evenodd" stroke="none"/>
      <path d="M-42.65 42.7 L-42.1 34.9 -42.1 34.75 Q-43.7 28.9 -46.5 28.7 -51.1 30.5 -52.1 32.05 -53.15 33.65 -54.15 37.4 -55.2 41.15 -55.8 48.15 M-42.65 42.7 Q-43.95 62.2 -43.2 80.4 -44.95 82.85 -46.45 83.3 -51.65 83.85 -55.2 79.6 -57.45 63.9 -55.8 48.15" fill="none" stroke="#332720" stroke-linecap="round" stroke-linejoin="round" stroke-width="1.5"/>
      <path d="M45.35 4.65 Q40.45 6.0 43.2 9.6 45.9 13.2 43.35 14.75 40.8 16.25 43.35 27.35 50.45 33.15 56.45 50.25 49.35 54.85 46.3 63.75 L46.05 64.45 Q41.25 75.85 35.05 76.3 38.0 61.75 37.95 54.65 37.85 47.5 36.65 37.7 35.55 29.0 32.95 21.75 22.9 7.1 -11.15 6.3 -23.0 8.65 -37.75 17.45 -36.8 13.75 -35.55 11.25 -34.25 8.65 -30.6 5.15 -26.95 1.65 -20.9 -2.35 0.0 -10.6 45.35 4.65 M46.3 63.75 Q50.05 51.55 49.65 40.45 50.05 51.55 46.3 63.75" fill="#644d19" fill-rule="evenodd" stroke="none"/>
      <path d="M56.45 50.25 Q49.35 54.85 46.3 63.75 L46.05 64.45 Q41.25 75.85 35.05 76.3 38.0 61.75 37.95 54.65 37.85 47.5 36.65 37.7 35.55 29.0 32.95 21.75 22.9 7.1 -11.15 6.3 -23.0 8.65 -37.75 17.45 -36.8 13.75 -35.55 11.25 -34.25 8.65 -30.6 5.15 -26.95 1.65 -20.9 -2.35 0.0 -10.6 45.35 4.65 M49.65 40.45 Q50.05 51.55 46.3 63.75" fill="none" stroke="#32251b" stroke-linecap="round" stroke-linejoin="round" stroke-width="1.5"/>
      <path d="M19.3 7.9 Q20.85 7.0 22.65 6.95 L25.15 7.2 Q29.35 10.7 26.4 13.1 23.6 14.75 21.9 16.65 20.75 18.35 20.7 19.2 16.85 25.15 14.0 24.4 11.1 23.6 8.2 20.15 9.8 15.1 13.1 12.0 14.65 10.5 16.5 9.35 14.65 10.5 13.1 12.0 10.65 11.1 11.25 10.55 12.7 9.2 15.0 8.4 17.5 8.4 16.5 9.35 17.8 8.55 19.3 7.9 M33.85 23.35 Q30.35 27.5 25.85 25.15 L22.1 20.4 Q22.5 19.65 24.0 18.7 25.55 17.75 27.4 17.2 29.35 16.65 31.15 18.7 32.95 20.6 33.85 23.35" fill="#d1b786" fill-rule="evenodd" stroke="none"/>
      <path d="M19.3 7.9 Q17.8 8.55 16.5 9.35 17.5 8.4 15.0 8.4 16.9 7.65 19.3 7.9 M20.7 19.2 Q20.75 18.35 21.9 16.65 23.6 14.75 26.4 13.1 29.35 10.7 25.15 7.2 L26.3 7.45 27.2 7.7 Q28.0 7.95 30.1 9.05 32.2 10.15 33.1 13.65 33.95 17.05 32.0 17.2 33.4 19.4 34.45 22.6 L33.85 23.35 Q32.95 20.6 31.15 18.7 29.35 16.65 27.4 17.2 25.55 17.75 24.0 18.7 22.5 19.65 22.1 20.4 L20.95 18.9 20.7 19.2 M20.95 18.9 Q24.95 13.9 29.15 13.9 L30.95 15.8 32.0 17.2 30.95 15.8 29.15 13.9 Q24.95 13.9 20.95 18.9 M31.25 14.75 Q30.5 13.9 29.15 13.9 30.5 13.9 31.25 14.75" fill="#917b55" fill-rule="evenodd" stroke="none"/>
      <path d="M25.15 7.2 L22.65 6.95 Q20.85 7.0 19.3 7.9 17.8 8.55 16.5 9.35 14.65 10.5 13.1 12.0 9.8 15.1 8.2 20.15 11.1 23.6 14.0 24.4 16.85 25.15 20.7 19.2 M25.15 7.2 L26.3 7.45 27.2 7.7 Q28.0 7.95 30.1 9.05 32.2 10.15 33.1 13.65 33.95 17.05 32.0 17.2 33.4 19.4 34.45 22.6 L33.85 23.35 Q30.35 27.5 25.85 25.15 L22.1 20.4 20.95 18.9 20.7 19.2 M32.0 17.2 L30.95 15.8 29.15 13.9 Q24.95 13.9 20.95 18.9 M29.15 13.9 Q30.5 13.9 31.25 14.75 M19.3 7.9 Q16.9 7.65 15.0 8.4 12.7 9.2 11.25 10.55 10.65 11.1 13.1 12.0" fill="none" stroke="#332720" stroke-linecap="round" stroke-linejoin="round" stroke-opacity="0.49803922" stroke-width="1.5"/>
      <path d="M-18.9 20.85 L-21.0 18.45 -23.55 15.65 Q-27.1 10.1 -30.75 10.55 L-32.15 11.65 -29.6 11.7 Q-28.05 12.1 -26.95 13.85 -25.9 15.65 -26.2 17.65 L-26.2 17.7 -31.25 22.1 Q-34.4 22.0 -36.3 18.65 L-35.95 16.5 Q-35.6 15.25 -34.1 13.6 L-34.0 13.5 -33.9 13.1 -33.9 11.4 -33.5 10.1 -33.25 9.55 Q-31.45 5.65 -26.9 5.15 L-24.7 4.95 Q-16.45 8.3 -13.4 14.6 -11.35 18.2 -18.9 20.85 M-33.9 13.1 L-33.9 13.35 -34.0 13.5 -33.9 13.35 -33.9 13.1 M-30.75 10.55 L-32.8 10.95 -30.75 10.55 M-33.9 13.35 L-32.15 11.65 -33.9 13.35" fill="#d1b786" fill-rule="evenodd" stroke="none"/>
      <path d="M-24.7 4.95 L-20.15 5.2 Q-13.2 4.6 -10.1 7.65 -9.8 8.35 -13.85 9.9 -11.35 12.75 -10.3 16.75 -14.05 20.1 -15.95 20.9 L-18.9 20.85 Q-11.35 18.2 -13.4 14.6 -16.45 8.3 -24.7 4.95 M-23.55 15.65 L-24.85 16.5 -26.1 17.6 -26.2 17.65 Q-25.9 15.65 -26.95 13.85 -28.05 12.1 -29.6 11.7 L-32.15 11.65 -30.75 10.55 Q-27.1 10.1 -23.55 15.65 M-13.85 9.9 Q-16.1 7.5 -19.1 5.75 L-20.15 5.2 -19.1 5.75 Q-16.1 7.5 -13.85 9.9" fill="#917b55" fill-rule="evenodd" stroke="none"/>
      <path d="M-24.7 4.95 L-20.15 5.2 Q-13.2 4.6 -10.1 7.65 -9.8 8.35 -13.85 9.9 -11.35 12.75 -10.3 16.75 -14.05 20.1 -15.95 20.9 L-18.9 20.85 -21.0 18.45 -23.55 15.65 -24.85 16.5 -26.1 17.6 -26.2 17.65 -26.2 17.7 -31.25 22.1 Q-34.4 22.0 -36.3 18.65 L-35.95 16.5 Q-35.6 15.25 -34.1 13.6 L-34.0 13.5 -33.9 13.35 -33.9 13.1 -33.9 11.4 -33.5 10.1 -33.25 9.55 Q-31.45 5.65 -26.9 5.15 L-24.7 4.95 M-20.15 5.2 L-19.1 5.75 Q-16.1 7.5 -13.85 9.9 M-23.55 15.65 Q-27.1 10.1 -30.75 10.55 L-32.15 11.65 -33.9 13.35 M-32.8 10.95 L-30.75 10.55" fill="none" stroke="#32251b" stroke-linecap="round" stroke-linejoin="round" stroke-opacity="0.49803922" stroke-width="1.5"/>
      <path d="M-11.45 54.3 L-10.65 56.2 Q-8.65 60.15 -4.7 60.15 0.05 60.15 2.7 54.95 1.6 73.4 2.3 90.85 0.4 93.5 -1.35 94.0 -7.1 94.85 -11.1 90.65 -14.0 72.55 -11.45 54.3" fill="#211612" fill-rule="evenodd" stroke="none"/>
      <path d="M-11.45 54.3 Q-10.65 48.75 -9.35 43.1 L-8.0 41.1 Q-6.9 39.75 -5.5 39.2 1.75 37.75 3.6 43.8 L3.6 44.15 2.7 54.95 Q0.05 60.15 -4.7 60.15 -8.65 60.15 -10.65 56.2 L-11.45 54.3" fill="#6f4811" fill-rule="evenodd" stroke="none"/>
      <path d="M2.7 54.95 L3.6 44.15 3.6 43.8 Q1.75 37.75 -5.5 39.2 -6.9 39.75 -8.0 41.1 L-9.35 43.1 Q-10.65 48.75 -11.45 54.3 M2.7 54.95 Q1.6 73.4 2.3 90.85 0.4 93.5 -1.35 94.0 -7.1 94.85 -11.1 90.65 -14.0 72.55 -11.45 54.3" fill="none" stroke="#332720" stroke-linecap="round" stroke-linejoin="round" stroke-width="1.5"/>
    </g>
    <g id="shape7" transform="matrix(1.0, 0.0, 0.0, 1.0, 35.7, 19.8)">
      <path d="M11.35 12.1 Q11.75 12.0 14.65 15.6 17.5 19.25 17.7 20.6 18.0 23.0 10.85 26.6 5.45 29.3 3.3 29.75 L-4.85 30.05 -14.3 29.55 Q-17.85 28.35 -22.3 28.15 -25.1 27.25 -26.0 20.15 -26.05 19.55 -23.0 16.85 L-10.2 17.4 Q-8.2 17.3 0.6 15.3 L5.05 14.75 Q6.3 14.5 11.35 12.1" fill="#e6dbbf" fill-rule="evenodd" stroke="none"/>
      <path d="M22.4 0.55 Q26.35 7.5 28.35 18.05 L23.55 28.0 19.5 29.95 Q-0.55 38.95 -20.75 32.65 L-22.8 31.95 Q-29.1 25.95 -29.65 21.35 -26.95 13.15 -26.45 7.85 L22.4 0.55 M11.35 12.1 Q6.3 14.5 5.05 14.75 L0.6 15.3 Q-8.2 17.3 -10.2 17.4 L-23.0 16.85 Q-26.05 19.55 -26.0 20.15 -25.1 27.25 -22.3 28.15 -17.85 28.35 -14.3 29.55 L-4.85 30.05 3.3 29.75 Q5.45 29.3 10.85 26.6 18.0 23.0 17.7 20.6 17.5 19.25 14.65 15.6 11.75 12.0 11.35 12.1" fill="#987950" fill-rule="evenodd" stroke="none"/>
      <path d="M22.4 0.55 L-26.45 7.85 Q-26.95 13.15 -29.65 21.35 -29.1 25.95 -22.8 31.95 L-20.75 32.65 Q-0.55 38.95 19.5 29.95 L23.55 28.0 28.35 18.05 Q26.35 7.5 22.4 0.55 Z" fill="none" stroke="#332720" stroke-linecap="round" stroke-linejoin="round" stroke-opacity="0.49803922" stroke-width="1.5"/>
      <path d="M-26.2 9.6 Q-19.0 11.95 -8.45 11.8 9.75 8.55 22.65 2.65 5.45 13.45 -8.4 14.2 -27.25 11.75 -26.2 9.6" fill="#000000" fill-rule="evenodd" stroke="none"/>
      <path d="M18.45 -17.85 L18.5 -18.2 Q20.85 -18.8 25.9 -16.95 29.65 -4.85 27.85 -0.05 L22.65 2.65 Q9.75 8.55 -8.45 11.8 -19.0 11.95 -26.2 9.6 L-28.2 8.85 -32.3 6.7 Q-34.55 0.95 -34.95 -4.4 -32.6 -8.6 -29.2 -10.7 L-28.9 -10.35 Q-8.75 -22.3 18.45 -17.85 M14.25 -9.75 L16.45 -10.45 19.2 -11.25 19.45 -11.4 Q-4.45 -14.2 -26.6 -4.2 L-26.7 -4.2 -26.8 -4.2 -26.85 -4.25 -27.2 -4.3 Q-27.9 -3.8 -29.35 -1.3 -30.8 1.05 -30.7 1.65 -30.15 5.25 -20.3 6.5 L-8.75 6.85 Q-3.85 6.05 -0.8 4.95 3.35 3.25 7.45 1.7 11.25 0.3 13.8 -1.55 L19.5 -6.25 Q19.15 -7.35 16.15 -8.8 L14.25 -9.75 M20.9 -12.65 L19.45 -11.4 20.9 -12.65 M-28.55 -4.3 L-27.2 -4.3 -28.55 -4.3" fill="#987950" fill-rule="evenodd" stroke="none"/>
      <path d="M6.3 -4.45 L0.05 -3.45 6.3 -4.45 M-26.6 -4.2 L-23.0 -3.35 Q-13.8 -1.6 0.05 -3.45 7.8 -7.45 14.25 -9.75 L16.15 -8.8 Q19.15 -7.35 19.5 -6.25 L13.8 -1.55 Q11.25 0.3 7.45 1.7 3.35 3.25 -0.8 4.95 -3.85 6.05 -8.75 6.85 L-20.3 6.5 Q-30.15 5.25 -30.7 1.65 -30.8 1.05 -29.35 -1.3 -27.9 -3.8 -27.2 -4.3 L-26.85 -4.25 -26.8 -4.2 -26.7 -4.2 -26.6 -4.2" fill="#e6dbbf" fill-rule="evenodd" stroke="none"/>
      <path d="M19.45 -11.4 L19.2 -11.25 16.45 -10.45 14.25 -9.75 Q7.8 -7.45 0.05 -3.45 -13.8 -1.6 -23.0 -3.35 L-26.6 -4.2 Q-4.45 -14.2 19.45 -11.4" fill="#755c3d" fill-rule="evenodd" stroke="none"/>
      <path d="M18.45 -17.85 Q-8.75 -22.3 -28.9 -10.35 M-29.2 -10.7 Q-32.6 -8.6 -34.95 -4.4 -34.55 0.95 -32.3 6.7 L-28.2 8.85 -26.2 9.6 Q-19.0 11.95 -8.45 11.8 9.75 8.55 22.65 2.65 L27.85 -0.05 Q29.65 -4.85 25.9 -16.95 20.85 -18.8 18.5 -18.2 M0.05 -3.45 L6.3 -4.45 M14.25 -9.75 L16.45 -10.45 19.2 -11.25 19.45 -11.4 20.9 -12.65 M-26.6 -4.2 L-23.0 -3.35 Q-13.8 -1.6 0.05 -3.45 7.8 -7.45 14.25 -9.75 M-27.2 -4.3 L-28.55 -4.3 M-27.2 -4.3 L-26.85 -4.25 -26.8 -4.2 -26.7 -4.2 -26.6 -4.2 M-26.2 9.6 Q-27.25 11.75 -8.4 14.2 5.45 13.45 22.65 2.65" fill="none" stroke="#332720" stroke-linecap="round" stroke-linejoin="round" stroke-opacity="0.49803922" stroke-width="1.5"/>
    </g>
  </defs>
</svg>
