<?xml version="1.0" encoding="UTF-8" standalone="no"?>
<svg xmlns:xlink="http://www.w3.org/1999/xlink" height="440.0px" width="440.0px" xmlns="http://www.w3.org/2000/svg">
  <g transform="matrix(10.0, 0.0, 0.0, 10.0, 0.0, 0.0)">
    <use height="44.0" transform="matrix(1.0, 0.0, 0.0, 1.0, 0.0, 0.0)" width="44.0" xlink:href="#shape0"/>
    <use height="44.15" transform="matrix(0.844, 0.0, 0.0, 0.844, 0.0945, 1.7963)" width="38.0" xlink:href="#sprite0"/>
    <use height="44.15" transform="matrix(0.844, 0.0, 0.0, 0.844, 7.8945, 4.1463)" width="38.0" xlink:href="#sprite0"/>
  </g>
  <defs>
    <g id="shape0" transform="matrix(1.0, 0.0, 0.0, 1.0, 0.0, 0.0)">
      <path d="M44.0 44.0 L0.0 44.0 0.0 0.0 44.0 0.0 44.0 44.0" fill="#43adca" fill-opacity="0.0" fill-rule="evenodd" stroke="none"/>
    </g>
    <g id="sprite0" transform="matrix(1.0, 0.0, 0.0, 1.0, 22.4, 21.45)">
      <use height="13.55" transform="matrix(1.0, 0.0, 0.0, 1.0, -14.85, 9.15)" width="25.0" xlink:href="#shape1"/>
      <use height="83.5" transform="matrix(0.4957, 0.0, 0.0, 0.5025, -15.5756, -20.9508)" width="62.85" xlink:href="#sprite1"/>
      <use height="9.35" transform="matrix(1.0, 0.0, 0.0, 1.0, -10.85, 2.35)" width="14.0" xlink:href="#shape12"/>
      <use height="41.9" transform="matrix(1.0, 0.0, 0.0, 1.0, -22.4, -20.95)" width="37.45" xlink:href="#sprite3"/>
      <use height="42.9" transform="matrix(1.0, 0.0, 0.0, 1.0, -16.1, -21.45)" width="31.5" xlink:href="#shape15"/>
    </g>
    <g id="shape1" transform="matrix(1.0, 0.0, 0.0, 1.0, 14.85, -9.15)">
      <path d="M-9.65 18.8 L-10.8 18.85 -13.45 18.4 -14.5 17.55 -14.55 17.3 Q-14.6 16.6 -13.5 16.1 L-10.85 15.65 -8.3 16.1 Q-7.2 16.7 -7.15 17.35 L-7.2 17.35 Q-7.4 18.0 -8.25 18.35 -9.3 17.85 -10.4 17.3 L-9.65 18.8" fill="#3e414f" fill-rule="evenodd" stroke="none"/>
      <path d="M-14.5 17.55 L-13.45 18.4 -10.8 18.85 -9.65 18.8 -9.1 20.35 -8.25 18.35 Q-7.4 18.0 -7.2 17.35 L-7.15 19.85 Q-7.1 20.45 -7.95 20.75 L-8.15 20.9 -9.3 21.2 -9.4 21.25 -10.75 21.35 -13.4 20.8 -14.5 20.05 -14.5 19.75 -14.45 19.45 -14.4 18.8 -14.5 17.55" fill="#1c1e24" fill-rule="evenodd" stroke="none"/>
      <path d="M-9.65 18.8 L-10.4 17.3 Q-9.3 17.85 -8.25 18.35 L-9.1 20.35 -9.65 18.8" fill="#5c5f6d" fill-rule="evenodd" stroke="none"/>
      <path d="M-7.2 17.35 L-7.15 17.35 Q-7.2 16.7 -8.3 16.1 L-10.85 15.65 -13.5 16.1 Q-14.6 16.6 -14.55 17.3 L-14.5 17.55 -14.4 18.8 -14.45 19.45 -14.5 19.75 -14.5 20.05 -13.4 20.8 -10.75 21.35 -9.4 21.25 -9.3 21.2 -8.15 20.9 -7.95 20.75 Q-7.1 20.45 -7.15 19.85 L-7.2 17.35 Z" fill="none" stroke="#000000" stroke-linecap="round" stroke-linejoin="round" stroke-opacity="0.3019608" stroke-width="0.6000000000000001"/>
      <path d="M-6.95 18.95 L-7.05 18.7 Q-7.15 18.0 -6.15 17.4 -5.15 16.9 -3.55 16.7 L-1.0 16.9 Q0.15 17.35 0.3 18.0 L0.25 18.0 Q0.1 18.7 -0.7 19.1 L-2.95 18.3 -2.05 19.7 -3.2 19.85 -5.85 19.65 Q-6.75 19.35 -6.95 18.95" fill="#3e414f" fill-rule="evenodd" stroke="none"/>
      <path d="M0.25 18.0 L0.55 20.5 Q0.65 21.05 -0.15 21.5 L-0.35 21.65 Q-0.8 21.95 -1.45 22.1 L-1.55 22.15 -2.9 22.4 -5.55 22.1 Q-6.45 21.85 -6.75 21.4 L-6.75 21.1 -6.75 20.8 -6.75 20.15 -6.95 18.95 Q-6.75 19.35 -5.85 19.65 L-3.2 19.85 -2.05 19.7 -1.35 21.15 -0.7 19.1 Q0.1 18.7 0.25 18.0" fill="#1c1e24" fill-rule="evenodd" stroke="none"/>
      <path d="M-0.7 19.1 L-1.35 21.15 -2.05 19.7 -2.95 18.3 -0.7 19.1" fill="#5c5f6d" fill-rule="evenodd" stroke="none"/>
      <path d="M0.25 18.0 L0.55 20.5 Q0.65 21.05 -0.15 21.5 L-0.35 21.65 Q-0.8 21.95 -1.45 22.1 L-1.55 22.15 -2.9 22.4 -5.55 22.1 Q-6.45 21.85 -6.75 21.4 L-6.75 21.1 -6.75 20.8 -6.75 20.15 -6.95 18.95 -7.05 18.7 Q-7.15 18.0 -6.15 17.4 -5.15 16.9 -3.55 16.7 L-1.0 16.9 Q0.15 17.35 0.3 18.0 L0.25 18.0 Z" fill="none" stroke="#000000" stroke-linecap="round" stroke-linejoin="round" stroke-opacity="0.3019608" stroke-width="0.6000000000000001"/>
      <path d="M2.5 11.35 L2.45 11.1 Q2.4 10.4 3.5 9.9 4.55 9.5 6.15 9.45 L8.7 9.9 Q9.8 10.5 9.85 11.15 L9.8 11.15 Q9.6 11.8 8.75 12.15 L6.6 11.1 7.35 12.6 6.2 12.65 3.55 12.2 Q2.7 11.8 2.5 11.35" fill="#3e414f" fill-rule="evenodd" stroke="none"/>
      <path d="M9.8 11.15 L9.85 13.65 Q9.9 14.25 9.05 14.55 L8.85 14.7 7.7 15.0 7.6 15.05 6.25 15.15 Q4.75 15.15 3.6 14.6 2.75 14.25 2.5 13.85 L2.5 13.55 2.55 13.25 2.6 12.6 2.5 11.35 Q2.7 11.8 3.55 12.2 L6.2 12.65 7.35 12.6 7.9 14.15 8.75 12.15 Q9.6 11.8 9.8 11.15" fill="#1c1e24" fill-rule="evenodd" stroke="none"/>
      <path d="M8.75 12.15 L7.9 14.15 7.35 12.6 6.6 11.1 8.75 12.15" fill="#5c5f6d" fill-rule="evenodd" stroke="none"/>
      <path d="M9.8 11.15 L9.85 13.65 Q9.9 14.25 9.05 14.55 L8.85 14.7 7.7 15.0 7.6 15.05 6.25 15.15 Q4.75 15.15 3.6 14.6 2.75 14.25 2.5 13.85 L2.5 13.55 2.55 13.25 2.6 12.6 2.5 11.35 2.45 11.1 Q2.4 10.4 3.5 9.9 4.55 9.5 6.15 9.45 L8.7 9.9 Q9.8 10.5 9.85 11.15 L9.8 11.15 Z" fill="none" stroke="#000000" stroke-linecap="round" stroke-linejoin="round" stroke-opacity="0.3019608" stroke-width="0.6000000000000001"/>
    </g>
    <g id="sprite1" transform="matrix(1.0, 0.0, 0.0, 1.0, -17.7, -9.85)">
      <use height="83.5" transform="matrix(1.0, 0.0, 0.0, 1.0, 17.7, 9.85)" width="62.85" xlink:href="#sprite2"/>
    </g>
    <g id="sprite2" transform="matrix(1.0, 0.0, 0.0, 1.0, 0.0, 0.85)">
      <use height="42.45" transform="matrix(1.0, 0.0, 0.0, 1.0, 0.0, 40.2)" width="52.25" xlink:href="#shape2"/>
      <use height="191.05" transform="matrix(-0.0036, 0.1017, 0.1007, 0.0035, 31.998, -0.8394)" width="154.8" xlink:href="#shape3"/>
      <use height="153.2" transform="matrix(-0.0542, -0.0857, -0.0848, 0.0546, 35.8114, 7.4868)" width="89.05" xlink:href="#shape4"/>
      <use height="46.1" transform="matrix(1.0, 0.0, 0.0, 1.0, 0.05, 32.55)" width="52.2" xlink:href="#shape5"/>
      <use height="75.25" transform="matrix(0.1424, 0.0114, -0.0125, 0.1417, 10.0865, 6.3077)" width="71.35" xlink:href="#shape6"/>
      <use height="72.5" transform="matrix(1.0, 0.0, 0.0, 1.0, 1.15, 6.7)" width="52.0" xlink:href="#shape7"/>
      <use height="191.05" transform="matrix(-0.0761, 0.0111, 0.0111, 0.0761, 60.7167, 38.4152)" width="154.8" xlink:href="#shape3"/>
      <use height="167.05" transform="matrix(-0.072, 0.0271, 0.0271, 0.072, 50.0706, 35.8331)" width="166.3" xlink:href="#shape8"/>
      <use height="51.55" transform="matrix(-0.1526, 0.0243, 0.0243, 0.1526, 57.775, 35.842)" width="63.6" xlink:href="#shape9"/>
      <use height="75.25" transform="matrix(-0.076, 0.0121, 0.0121, 0.076, 56.9572, 42.307)" width="71.35" xlink:href="#shape6"/>
      <use height="25.55" transform="matrix(1.0, 0.0, 0.0, 1.0, 44.75, 20.25)" width="10.45" xlink:href="#shape10"/>
      <use height="87.65" transform="matrix(-0.1197, -0.0276, -0.0276, 0.1197, 54.768, 47.8593)" width="76.2" xlink:href="#shape11"/>
      <use height="51.55" transform="matrix(-0.1538, 0.0103, 0.0103, 0.1538, 54.3767, 41.0539)" width="63.6" xlink:href="#shape9"/>
      <use height="75.25" transform="matrix(0.0759, 0.0103, -0.0103, 0.0759, 42.2799, 45.4743)" width="71.35" xlink:href="#shape6"/>
      <use height="75.25" transform="matrix(-0.0689, -0.0329, -0.0329, 0.0689, 59.2475, 48.179)" width="71.35" xlink:href="#shape6"/>
      <use height="75.25" transform="matrix(0.0812, -0.1717, -0.1678, -0.0775, 20.4675, 27.9001)" width="71.35" xlink:href="#shape6"/>
      <use height="75.25" transform="matrix(0.0053, -0.133, 0.1421, 0.0069, 18.2585, 22.5377)" width="71.35" xlink:href="#shape6"/>
      <use height="75.25" transform="matrix(-0.0067, -0.1901, 0.185, -0.0049, 27.7735, 25.6685)" width="71.35" xlink:href="#shape6"/>
      <use height="75.25" transform="matrix(-0.1214, -0.0415, 0.0416, -0.1226, 49.5168, 18.8966)" width="71.35" xlink:href="#shape6"/>
      <use height="75.25" transform="matrix(-0.0379, -0.0793, 0.0967, -0.0454, 38.162, 19.7385)" width="71.35" xlink:href="#shape6"/>
    </g>
    <g id="shape2" transform="matrix(1.0, 0.0, 0.0, 1.0, 0.0, -40.2)">
      <path d="M35.9 75.85 Q36.8 74.15 36.0 70.3 37.0 72.75 38.45 73.45 L36.95 75.2 35.9 75.85 M38.55 73.3 L38.6 72.35 38.8 72.45 38.55 73.3 M0.05 71.6 L0.05 71.0 3.2 68.15 Q2.75 72.1 5.75 75.9 2.35 74.25 0.05 71.6 M13.15 78.15 Q14.6 77.85 15.1 75.05 L16.5 78.55 13.15 78.15 M20.75 78.65 Q22.85 78.0 24.05 76.8 25.3 78.0 28.0 78.2 L20.75 78.65 M30.1 77.95 L30.8 73.6 32.15 77.45 30.8 77.85 30.1 77.95" fill="#203138" fill-rule="evenodd" stroke="none"/>
      <path d="M20.6 40.4 L20.55 40.2 20.7 40.35 20.6 40.4" fill="#283e47" fill-rule="evenodd" stroke="none"/>
      <path d="M38.6 72.35 Q39.25 62.1 44.2 60.6 47.05 61.7 51.7 59.25 52.15 60.2 52.25 61.5 L51.65 63.05 48.8 62.55 44.5 66.1 Q41.95 67.85 38.8 72.45 L38.6 72.35" fill="#003040" fill-rule="evenodd" stroke="none"/>
      <path d="M35.9 75.85 L36.95 75.2 38.45 73.45 38.55 73.3 38.8 72.45 Q41.95 67.85 44.5 66.1 50.1 65.05 51.65 63.05 L52.25 61.5 52.2 63.15 51.8 65.4 Q50.35 67.0 45.45 68.0 41.1 71.25 38.7 78.9 L30.8 81.85 Q8.3 85.05 0.3 75.6 L0.05 71.6 Q2.35 74.25 5.75 75.9 8.8 81.9 12.1 77.95 L13.15 78.15 16.5 78.55 18.25 78.65 Q22.35 80.95 28.1 79.6 L29.7 78.0 30.1 77.95 30.8 77.85 32.15 77.45 32.4 77.4 34.0 78.45 35.9 75.9 35.9 75.85" fill="#50421b" fill-rule="evenodd" stroke="none"/>
      <path d="M5.75 75.9 Q8.55 77.25 12.1 77.95 8.8 81.9 5.75 75.9 M18.25 78.65 L20.75 78.65 28.0 78.2 29.7 78.0 28.1 79.6 Q22.35 80.95 18.25 78.65 M32.4 77.4 L35.9 75.9 34.0 78.45 32.4 77.4" fill="#ae8d3b" fill-rule="evenodd" stroke="none"/>
      <path d="M44.5 66.1 L48.8 62.55 51.65 63.05 Q50.1 65.05 44.5 66.1" fill="#726637" fill-rule="evenodd" stroke="none"/>
    </g>
    <g id="shape3" transform="matrix(1.0, 0.0, 0.0, 1.0, 75.4, 92.6)">
      <path d="M20.8 -92.6 L35.65 -24.2 77.4 37.0 52.25 66.75 Q41.25 66.35 30.6 58.7 L31.35 56.9 26.65 60.1 Q4.25 74.3 -36.15 82.45 -34.2 71.1 -30.15 61.8 L2.4 22.95 Q-37.9 33.55 -66.3 26.35 L-68.5 24.75 Q-63.75 14.25 -58.35 5.95 L-24.6 1.1 Q-46.5 -11.2 -65.85 -32.75 -73.0 -44.95 -75.4 -58.6 -62.35 -60.7 -43.35 -58.85 -28.75 -67.15 -17.6 -70.85 L20.8 -92.6 M-25.3 -56.45 L-43.35 -58.85 -25.3 -56.45" fill="#857d62" fill-rule="evenodd" stroke="none"/>
      <path d="M77.4 37.0 L79.15 39.55 Q81.55 68.8 60.95 97.85 49.55 101.3 23.7 85.25 17.45 90.2 16.5 90.45 L16.15 90.5 14.5 90.85 Q-16.35 96.65 -36.2 82.55 L-36.15 82.45 Q4.25 74.3 26.65 60.1 L31.35 56.9 30.6 58.7 Q41.25 66.35 52.25 66.75 L77.4 37.0 M-65.85 -32.75 Q-46.5 -11.2 -24.6 1.1 L-58.35 5.95 Q-52.5 -3.05 -46.05 -9.4 -58.45 -20.35 -65.85 -32.75 M-66.3 26.35 Q-37.9 33.55 2.4 22.95 L-30.15 61.8 Q-25.9 51.75 -19.25 44.1 L-19.45 43.95 Q-25.6 44.4 -34.0 42.2 L-31.35 39.4 Q-25.55 34.1 -17.5 30.55 -25.55 34.1 -31.35 39.4 -50.6 37.05 -66.3 26.35 M-37.0 -2.1 Q-41.8 -5.7 -46.05 -9.4 -41.8 -5.7 -37.0 -2.1 M-14.8 39.5 L-19.25 44.1 -14.8 39.5" fill="#6e6343" fill-rule="evenodd" stroke="none"/>
      <path d="M20.8 -92.6 L-17.6 -70.85 Q-28.75 -67.15 -43.35 -58.85 L-25.3 -56.45 M-36.15 82.45 L-36.2 82.55 Q-16.35 96.65 14.5 90.85 L16.15 90.5 16.5 90.45 Q17.45 90.2 23.7 85.25 49.55 101.3 60.95 97.85 81.55 68.8 79.15 39.55 M-43.35 -58.85 Q-62.35 -60.7 -75.4 -58.6 -73.0 -44.95 -65.85 -32.75 -58.45 -20.35 -46.05 -9.4 -41.8 -5.7 -37.0 -2.1 M-58.35 5.95 Q-63.75 14.25 -68.5 24.75 L-66.3 26.35 Q-50.6 37.05 -31.35 39.4 L-34.0 42.2 Q-25.6 44.4 -19.45 43.95 M-30.15 61.8 Q-34.2 71.1 -36.15 82.45 M-19.25 44.1 L-14.8 39.5 M-31.35 39.4 Q-25.55 34.1 -17.5 30.55 M-19.25 44.1 Q-25.9 51.75 -30.15 61.8 M-46.05 -9.4 Q-52.5 -3.05 -58.35 5.95" fill="none" stroke="#000000" stroke-linecap="round" stroke-linejoin="round" stroke-opacity="0.3019608" stroke-width="0.05"/>
    </g>
    <g id="shape4" transform="matrix(1.0, 0.0, 0.0, 1.0, 44.55, 76.6)">
      <path d="M11.4 -41.3 L13.55 -37.5 Q18.15 12.25 -18.4 52.85 -43.05 29.15 -42.95 1.35 -50.8 -42.95 -19.6 -76.6 17.75 -39.5 11.4 -41.3 6.8 -48.6 -0.6 -54.65 6.8 -48.6 11.4 -41.3" fill="#857d62" fill-rule="evenodd" stroke="none"/>
      <path d="M13.55 -37.5 L15.75 -32.5 Q22.45 -14.35 14.45 10.15 33.75 10.85 43.9 19.15 46.95 38.15 34.25 58.5 25.6 74.15 14.45 76.6 -5.45 65.3 -18.4 52.85 18.15 12.25 13.55 -37.5 M9.55 22.65 Q12.45 16.2 14.45 10.15 12.45 16.2 9.55 22.65" fill="#6e6343" fill-rule="evenodd" stroke="none"/>
      <path d="M13.55 -37.5 L11.4 -41.3 Q6.8 -48.6 -0.6 -54.65 M14.45 10.15 Q22.45 -14.35 15.75 -32.5 L13.55 -37.5 M34.25 58.5 Q46.95 38.15 43.9 19.15 33.75 10.85 14.45 10.15 12.45 16.2 9.55 22.65" fill="none" stroke="#000000" stroke-linecap="round" stroke-linejoin="round" stroke-opacity="0.3019608" stroke-width="0.05"/>
    </g>
    <g id="shape5" transform="matrix(1.0, 0.0, 0.0, 1.0, -0.05, -32.55)">
      <path d="M20.7 40.35 L19.25 38.95 19.3 38.9 19.05 38.65 19.95 37.25 20.1 37.25 21.95 37.65 Q30.2 39.05 37.3 37.35 L37.65 37.25 Q45.0 35.4 49.2 32.55 L49.4 32.9 49.45 32.9 Q53.1 39.95 52.0 53.85 L51.05 52.25 50.05 50.7 46.1 45.7 Q42.95 42.5 39.95 41.75 L26.65 43.25 20.7 40.35" fill="#003040" fill-rule="evenodd" stroke="none"/>
      <path d="M52.0 53.85 L52.0 53.9 51.55 58.95 51.7 59.25 Q47.05 61.7 44.2 60.6 39.25 62.1 38.6 72.35 L38.55 73.3 38.45 73.45 Q37.0 72.75 36.0 70.3 36.8 74.15 35.9 75.85 L35.9 75.9 32.4 77.4 32.15 77.45 30.8 73.6 30.1 77.95 29.7 78.0 28.0 78.2 Q25.3 78.0 24.05 76.8 22.85 78.0 20.75 78.65 L18.25 78.65 16.5 78.55 15.1 75.05 Q14.6 77.85 13.15 78.15 L12.1 77.95 Q8.55 77.25 5.75 75.9 2.75 72.1 3.2 68.15 L0.05 71.0 Q0.05 63.75 3.4 60.25 7.45 59.95 12.1 57.65 22.6 48.95 20.6 40.4 L20.7 40.35 26.65 43.25 39.95 41.75 Q42.95 42.5 46.1 45.7 L50.05 50.7 51.05 52.25 52.0 53.85" fill="#004152" fill-rule="evenodd" stroke="none"/>
      <path d="M5.4 60.05 Q8.3 59.55 12.15 57.6 14.9 55.4 18.55 50.7 L24.85 49.65 33.5 53.35 39.1 58.55 28.35 70.15 22.75 71.3 18.15 67.75 17.65 67.5 17.65 67.45 12.95 64.7 12.4 64.45 12.15 64.25 11.9 64.2 8.45 62.3 5.4 60.05" fill="#004c63" fill-rule="evenodd" stroke="none"/>
      <path d="M39.1 58.55 L40.15 59.5 40.15 59.55 42.0 61.2 43.35 65.45 43.1 67.15 39.8 70.95 Q38.65 74.55 36.15 75.45 33.05 77.8 25.5 78.5 24.8 74.25 22.75 71.3 L28.35 70.15 39.1 58.55" fill="#00384a" fill-rule="evenodd" stroke="none"/>
      <path d="M11.9 64.2 L7.0 63.15 Q5.4 63.1 2.25 64.2 0.65 66.25 0.2 67.7 0.5 63.45 3.45 60.2 L5.4 60.05 8.45 62.3 11.9 64.2" fill="#005975" fill-rule="evenodd" stroke="none"/>
    </g>
    <g id="shape6" transform="matrix(1.0, 0.0, 0.0, 1.0, 35.7, 37.65)">
      <path d="M0.9 -37.65 L1.0 -37.65 Q23.3 -30.25 35.65 -16.5 35.55 -12.45 34.6 -4.85 2.05 13.35 -35.05 7.95 L-35.7 6.4 -35.45 6.0 Q-29.3 -4.15 -22.45 -11.6 L6.7 -28.9 -16.45 -32.7 -16.9 -33.1 -15.85 -33.7 Q-8.15 -37.7 0.9 -37.65" fill="#aea38d" fill-rule="evenodd" stroke="none"/>
      <path d="M-16.45 -32.7 L6.7 -28.9 -22.45 -11.6 -18.9 -15.25 Q-12.8 -21.05 -6.2 -24.85 -11.15 -27.15 -16.45 -32.7 M-35.05 7.95 Q2.05 13.35 34.6 -4.85 L33.95 0.25 Q32.35 11.75 5.2 36.15 L1.6 37.05 Q-25.1 30.0 -35.05 7.95 M-0.75 -27.55 L-6.2 -24.85 -0.75 -27.55" fill="#857d62" fill-rule="evenodd" stroke="none"/>
      <path d="M0.9 -37.65 Q-8.15 -37.7 -15.85 -33.7 L-16.9 -33.1 -16.45 -32.7 M-22.45 -11.6 Q-29.3 -4.15 -35.45 6.0 L-35.7 6.4 -35.05 7.95 M1.6 37.05 L3.8 37.6 M-22.45 -11.6 L-18.9 -15.25 Q-12.8 -21.05 -6.2 -24.85 -11.15 -27.15 -16.45 -32.7 M-6.2 -24.85 L-0.75 -27.55 M1.6 37.05 Q-25.1 30.0 -35.05 7.95" fill="none" stroke="#000000" stroke-linecap="round" stroke-linejoin="round" stroke-opacity="0.3019608" stroke-width="0.05"/>
    </g>
    <g id="shape7" transform="matrix(1.0, 0.0, 0.0, 1.0, -1.15, -6.7)">
      <path d="M41.9 12.45 L38.4 13.9 30.8 16.0 Q27.3 14.15 25.4 11.4 32.35 9.4 37.75 9.0 L41.9 12.45" fill="#746137" fill-rule="evenodd" stroke="none"/>
      <path d="M37.65 37.45 L37.3 37.55 37.65 37.45" fill="#534628" fill-rule="evenodd" stroke="none"/>
      <path d="M18.45 29.4 Q18.45 27.95 18.0 26.6 L16.7 24.0 Q11.85 15.2 19.6 10.55 25.6 10.75 33.1 8.05 40.3 6.05 45.95 7.05 47.75 7.2 48.1 10.65 L42.3 13.8 Q40.8 16.5 37.9 17.95 33.75 20.05 29.4 21.45 L19.7 21.8 Q24.05 23.35 28.8 24.15 L35.9 34.0 Q33.65 35.9 31.55 36.5 27.85 37.5 24.0 37.55 L21.95 37.85 20.1 37.45 19.95 37.45 Q15.8 36.55 17.35 33.55 L17.4 33.5 19.35 35.05 18.45 29.4 M41.9 12.45 L42.4 12.2 Q47.25 9.7 41.5 8.9 L37.75 9.0 Q32.35 9.4 25.4 11.4 L18.1 13.8 Q16.15 15.95 17.35 16.85 22.4 17.9 30.8 16.0 L38.4 13.9 41.9 12.45" fill="#867c51" fill-rule="evenodd" stroke="none"/>
      <path d="M21.95 37.85 L24.0 37.55 Q27.85 37.5 31.55 36.5 33.65 35.9 35.9 34.0 L28.8 24.15 Q24.05 23.35 19.7 21.8 L29.4 21.45 Q33.75 20.05 37.9 17.95 40.8 16.5 42.3 13.8 L48.1 10.65 Q48.3 12.85 47.9 16.5 48.55 19.75 49.65 21.7 L49.65 26.4 51.4 23.8 Q53.05 25.7 53.15 28.15 44.3 35.0 37.65 37.45 L37.3 37.55 Q30.2 39.25 21.95 37.85" fill="#726637" fill-rule="evenodd" stroke="none"/>
      <path d="M53.15 28.15 L53.15 28.95 Q51.75 31.05 49.2 32.75 45.0 35.6 37.65 37.45 44.3 35.0 53.15 28.15 M37.75 9.0 L41.5 8.9 Q47.25 9.7 42.4 12.2 L41.9 12.45 37.75 9.0 M30.8 16.0 Q22.4 17.9 17.35 16.85 16.15 15.95 18.1 13.8 L25.4 11.4 Q27.3 14.15 30.8 16.0" fill="#534825" fill-rule="evenodd" stroke="none"/>
      <path d="M18.45 29.4 L19.35 35.05 17.4 33.5 Q18.4 31.4 18.45 29.4 M49.65 21.7 L51.15 23.55 51.4 23.8 49.65 26.4 49.65 21.7" fill="#928963" fill-rule="evenodd" stroke="none"/>
      <path d="M9.4 74.95 Q10.2 75.3 10.6 76.0 10.95 76.65 10.7 77.35 10.4 78.0 9.65 78.2 L8.05 78.05 Q7.2 77.65 6.85 76.95 6.45 76.25 6.75 75.6 7.0 74.9 7.8 74.75 L9.4 74.95" fill="#3e4228" fill-opacity="0.101960786" fill-rule="evenodd" stroke="none"/>
      <path d="M6.95 78.1 Q7.15 78.45 7.0 78.75 L6.45 79.2 5.7 79.1 5.1 78.55 Q4.95 78.2 5.1 77.9 L5.6 77.45 6.4 77.6 6.95 78.1" fill="#3e4228" fill-opacity="0.4" fill-rule="evenodd" stroke="none"/>
      <path d="M2.95 76.0 Q1.9 75.55 1.4 74.6 0.95 73.75 1.3 72.95 1.65 72.1 2.6 71.85 3.6 71.65 4.65 72.1 5.7 72.6 6.15 73.45 6.65 74.35 6.3 75.2 5.95 76.0 4.95 76.2 L2.95 76.0" fill="#3e4228" fill-opacity="0.3019608" fill-rule="evenodd" stroke="none"/>
      <path d="M51.55 28.75 L51.5 28.75 51.5 28.7 51.55 28.75" fill="#203138" fill-rule="evenodd" stroke="none"/>
    </g>
    <g id="shape8" transform="matrix(1.0, 0.0, 0.0, 1.0, 83.15, 83.55)">
      <path d="M55.45 -0.8 Q67.4 -2.0 80.85 0.0 80.25 2.2 81.95 2.4 77.55 22.85 65.5 35.6 21.7 39.85 11.0 43.2 -12.0 23.45 -42.6 6.05 L-83.15 -11.35 -79.45 -32.7 Q-74.4 -38.55 -66.9 -45.15 L-57.25 -53.2 Q-59.0 -47.6 -60.55 -41.35 L-62.0 -35.3 -60.55 -41.35 -43.15 -30.85 Q-49.2 -56.95 -45.1 -82.35 L-44.4 -83.55 Q-23.8 -72.55 -12.0 -50.95 L-3.85 -17.0 Q10.55 -38.45 35.35 -49.45 L36.35 -49.55 Q42.0 -29.9 36.3 -9.4 L38.95 -10.55 Q36.25 -1.4 29.85 6.2 26.15 10.6 21.2 14.45 L55.45 -0.8 M69.8 50.9 L67.3 54.7 68.8 52.4 69.8 50.9 M22.0 0.8 Q28.7 -5.75 36.3 -9.4 28.7 -5.75 22.0 0.8" fill="#aea38d" fill-rule="evenodd" stroke="none"/>
      <path d="M38.95 -10.55 L40.25 -11.1 Q39.15 -2.4 36.2 3.3 L36.3 3.55 Q45.35 0.2 55.45 -0.8 L21.2 14.45 Q26.15 10.6 29.85 6.2 36.25 -1.4 38.95 -10.55 M80.85 0.0 L81.5 0.1 82.1 2.65 82.9 7.5 Q85.05 27.85 69.8 50.9 L68.8 52.4 67.3 54.7 48.3 83.5 Q43.8 77.15 38.65 71.0 L34.9 66.65 Q26.55 57.2 16.75 48.25 L11.0 43.2 Q21.7 39.85 65.5 35.6 77.55 22.85 81.95 2.4 80.25 2.2 80.85 0.0 M-57.25 -53.2 Q-51.95 -70.9 -45.1 -82.35 -49.2 -56.95 -43.15 -30.85 L-60.55 -41.35 Q-59.0 -47.6 -57.25 -53.2 M-12.0 -50.95 Q-9.1 -45.55 -6.7 -39.45 10.0 -47.15 35.35 -49.45 10.55 -38.45 -3.85 -17.0 L-12.0 -50.95 M36.3 3.55 L29.85 6.2 36.3 3.55 M-6.7 -39.45 Q-4.65 -34.2 -3.0 -28.5 -4.65 -34.2 -6.7 -39.45" fill="#857d62" fill-rule="evenodd" stroke="none"/>
      <path d="M38.95 -10.55 L40.25 -11.1 Q39.15 -2.4 36.2 3.3 M36.3 3.55 Q45.35 0.2 55.45 -0.8 67.4 -2.0 80.85 0.0 L81.5 0.1 82.1 2.65 82.9 7.5 Q85.05 27.85 69.8 50.9 M-79.45 -32.7 Q-74.4 -38.55 -66.9 -45.15 L-57.25 -53.2 Q-51.95 -70.9 -45.1 -82.35 L-44.4 -83.55 Q-23.8 -72.55 -12.0 -50.95 -9.1 -45.55 -6.7 -39.45 10.0 -47.15 35.35 -49.45 L36.35 -49.55 Q42.0 -29.9 36.3 -9.4 L38.95 -10.55 M29.85 6.2 L36.3 3.55 M67.3 54.7 L68.8 52.4 69.8 50.9 M36.3 -9.4 Q28.7 -5.75 22.0 0.8 M-60.55 -41.35 L-62.0 -35.3 M-3.0 -28.5 Q-4.65 -34.2 -6.7 -39.45 M-57.25 -53.2 Q-59.0 -47.6 -60.55 -41.35" fill="none" stroke="#000000" stroke-linecap="round" stroke-linejoin="round" stroke-opacity="0.3019608" stroke-width="0.05"/>
    </g>
    <g id="shape9" transform="matrix(1.0, 0.0, 0.0, 1.0, 31.8, 25.8)">
      <path d="M-5.7 -25.05 L-5.1 -25.8 Q16.65 -23.35 30.7 -0.55 L31.05 2.95 Q28.2 13.45 22.25 21.2 L-3.3 25.2 -7.0 25.7 Q-13.2 -0.7 -5.7 -25.05" fill="#aea38d" fill-rule="evenodd" stroke="none"/>
      <path d="M-22.1 14.6 L-21.55 9.0 -22.1 14.6 M-7.0 25.7 Q-17.7 26.3 -29.75 18.8 -32.75 10.15 -31.4 1.65 -25.0 5.1 -21.55 9.0 -18.9 -7.8 -5.7 -25.05 -13.2 -0.7 -7.0 25.7" fill="#857d62" fill-rule="evenodd" stroke="none"/>
      <path d="M-5.7 -25.05 L-5.1 -25.8 Q16.65 -23.35 30.7 -0.55 L31.8 1.2 M-21.55 9.0 L-22.1 14.6 M-29.75 18.8 Q-32.75 10.15 -31.4 1.65 -25.0 5.1 -21.55 9.0 -18.9 -7.8 -5.7 -25.05 Z" fill="none" stroke="#000000" stroke-linecap="round" stroke-linejoin="round" stroke-opacity="0.3019608" stroke-width="0.05"/>
    </g>
    <g id="shape10" transform="matrix(1.0, 0.0, 0.0, 1.0, -44.75, -20.25)">
      <path d="M53.1 37.0 Q54.7 38.05 55.05 40.0 55.35 41.95 54.3 43.6 53.15 45.2 51.2 45.6 49.2 46.0 47.65 44.85 45.95 43.7 45.65 41.7 45.25 39.8 46.4 38.15 47.45 36.5 49.5 36.15 51.4 35.75 53.1 37.0" fill="#00303e" fill-rule="evenodd" stroke="none"/>
      <path d="M53.1 37.0 Q54.7 38.05 55.05 40.0 55.35 41.95 54.3 43.6 53.15 45.2 51.2 45.6 49.2 46.0 47.65 44.85 45.95 43.7 45.65 41.7 45.25 39.8 46.4 38.15 47.45 36.5 49.5 36.15 51.4 35.75 53.1 37.0 Z" fill="none" stroke="#000000" stroke-linecap="round" stroke-linejoin="round" stroke-opacity="0.2" stroke-width="0.2"/>
      <path d="M47.95 41.6 Q47.5 41.7 47.1 41.4 L46.6 40.7 46.8 39.85 47.6 39.3 Q48.1 39.25 48.45 39.5 L48.95 40.2 Q49.05 40.75 48.75 41.2 48.55 41.55 47.95 41.6" fill="#16819b" fill-rule="evenodd" stroke="none"/>
      <path d="M46.0 27.75 Q45.15 26.3 44.9 24.55 44.55 22.6 45.15 21.4 45.7 20.2 46.75 20.25 47.7 20.35 48.65 21.85 49.6 23.25 49.75 25.15 50.05 27.0 49.5 28.2 48.95 29.4 47.95 29.45 46.95 29.2 46.0 27.75" fill="#001317" fill-rule="evenodd" stroke="none"/>
      <path d="M46.15 27.45 L47.4 27.6 48.15 27.4 48.6 29.1 48.5 29.15 46.95 32.2 48.5 29.15 48.6 29.1 49.05 31.6 49.25 34.7 47.7 36.5 49.25 34.7 Q49.1 36.75 48.3 38.05 47.85 37.7 47.8 37.1 L47.7 36.5 46.95 32.2 46.15 27.45" fill="#7b7150" fill-rule="evenodd" stroke="none"/>
      <path d="M46.15 27.35 L45.95 26.4 Q45.85 25.75 46.25 25.15 46.55 24.6 47.15 24.5 L47.35 24.4 Q48.05 24.3 48.65 24.7 L49.3 25.4 49.4 25.8 49.55 26.45 48.6 29.1 49.55 26.45 50.3 31.3 51.15 36.5 50.9 37.85 49.75 38.55 Q49.1 38.65 48.5 38.25 L48.3 38.05 Q49.1 36.75 49.25 34.7 L49.6 33.95 Q50.15 32.65 50.3 31.3 50.15 32.65 49.6 33.95 L49.25 34.7 49.05 31.6 48.6 29.1 48.15 27.4 47.4 27.6 46.15 27.45 46.15 27.35" fill="#574f38" fill-rule="evenodd" stroke="none"/>
      <path d="M48.6 29.1 L49.55 26.45 Q49.65 25.65 49.3 25.4 M48.6 29.1 L48.5 29.15 46.95 32.2 M47.7 36.5 L49.25 34.7 M50.3 31.3 Q50.15 32.65 49.6 33.95 L49.25 34.7" fill="none" stroke="#000000" stroke-linecap="round" stroke-linejoin="round" stroke-opacity="0.3019608" stroke-width="0.05"/>
      <path d="M49.55 26.45 L49.4 25.8 49.3 25.4 48.65 24.7 Q48.05 24.3 47.35 24.4 L47.15 24.5 Q46.55 24.6 46.25 25.15 45.85 25.75 45.95 26.4 L46.15 27.35 M46.95 32.2 L47.7 36.5 M49.55 26.45 L50.3 31.3 51.15 36.5 50.9 37.85 49.75 38.55 Q49.1 38.65 48.5 38.25 L48.3 38.05 Q47.85 37.7 47.8 37.1 L47.7 36.5 M46.15 27.45 L46.95 32.2" fill="none" stroke="#000000" stroke-linecap="round" stroke-linejoin="round" stroke-opacity="0.4" stroke-width="0.5"/>
    </g>
    <g id="shape11" transform="matrix(1.0, 0.0, 0.0, 1.0, 38.1, 43.8)">
      <path d="M-25.45 22.9 Q-35.2 -10.4 -25.5 -32.8 -7.95 -38.75 33.05 -31.65 38.45 -16.65 38.1 -0.85 30.5 24.5 4.45 42.0 0.85 44.45 -0.35 43.65 -13.6 20.55 -16.3 1.2 L-20.25 12.0 -22.65 20.0 Q-23.85 22.6 -25.45 22.9" fill="#857d62" fill-rule="evenodd" stroke="none"/>
      <path d="M-28.9 -38.1 Q-12.15 -41.45 6.15 -43.8 23.1 -40.05 33.05 -31.65 -7.95 -38.75 -25.5 -32.8 -35.2 -10.4 -25.45 22.9 -37.05 9.8 -38.1 -8.35 -37.65 -22.7 -28.9 -38.1 M-0.35 43.65 Q-14.5 30.25 -20.25 12.0 L-16.3 1.2 Q-13.6 20.55 -0.35 43.65" fill="#6e6343" fill-rule="evenodd" stroke="none"/>
      <path d="M33.05 -31.65 Q23.1 -40.05 6.15 -43.8 -12.15 -41.45 -28.9 -38.1 M-38.1 -8.35 Q-37.05 9.8 -25.45 22.9 M38.1 -0.85 Q30.5 24.5 4.45 42.0 0.85 44.45 -0.35 43.65 -14.5 30.25 -20.25 12.0 L-22.65 20.0 Q-23.85 22.6 -25.45 22.9 M-20.25 12.0 L-16.3 1.2" fill="none" stroke="#000000" stroke-linecap="round" stroke-linejoin="round" stroke-opacity="0.3019608" stroke-width="0.05"/>
    </g>
    <g id="shape12" transform="matrix(1.0, 0.0, 0.0, 1.0, 10.85, -2.35)">
      <path d="M-6.3 6.6 L-5.85 6.8 Q-5.0 7.0 -4.2 7.45 L-3.7 7.7 -0.75 9.9 Q-0.45 10.2 -0.4 10.6 -0.25 11.05 -0.4 11.35 L-0.65 11.7 -0.7 11.65 -0.8 11.7 -1.4 11.45 -1.55 11.3 -3.7 9.7 Q-5.05 8.8 -6.45 8.5 L-8.4 8.35 -9.3 8.45 -10.65 9.0 -10.85 8.05 -10.5 7.05 -9.9 6.55 -9.85 6.55 -9.8 6.55 -9.7 6.45 -9.7 6.5 -7.8 6.35 -6.3 6.6" fill="#003040" fill-rule="evenodd" stroke="none"/>
      <path d="M-0.9 11.1 L-1.8 10.35 -2.25 9.45 -2.05 8.9 -1.2 9.0 Q-0.65 9.2 -0.25 9.7 0.2 10.15 0.25 10.6 0.3 11.0 0.0 11.2 L-0.9 11.1" fill="#001317" fill-rule="evenodd" stroke="none"/>
      <path d="M-2.65 3.25 Q-1.9 3.4 -1.2 3.9 L-0.75 4.15 Q0.55 5.0 1.9 6.3 L2.2 7.05 2.2 7.8 2.0 8.15 1.95 8.15 1.85 8.15 Q1.6 8.2 1.3 7.9 L1.2 7.8 Q0.25 6.75 -0.7 6.2 -1.95 5.3 -3.15 5.0 L-4.85 4.95 -5.6 5.05 -6.8 5.6 -7.05 4.7 -6.7 3.65 -6.2 3.05 -6.15 3.05 -6.1 3.05 -6.0 2.95 -6.0 3.0 -4.35 2.8 -3.05 3.05 -2.65 3.25" fill="#003040" fill-rule="evenodd" stroke="none"/>
      <path d="M1.95 7.6 L1.05 6.85 0.65 5.9 Q0.6 5.45 0.9 5.3 L1.8 5.4 2.75 6.05 Q3.15 6.55 3.15 7.0 L2.9 7.65 1.95 7.6" fill="#001317" fill-rule="evenodd" stroke="none"/>
      <path d="M1.15 6.2 L0.75 6.0 Q-0.6 5.05 -0.9 4.2 -1.15 3.6 -0.75 3.25 L-1.2 3.0 -0.75 3.2 Q0.65 3.9 2.1 5.05 L2.45 5.7 2.45 6.45 2.2 6.8 2.15 6.8 1.15 6.2 Q0.75 4.95 -0.05 4.05 L-0.75 3.25 -0.05 4.05 Q0.75 4.95 1.15 6.2" fill="#7b7150" fill-rule="evenodd" stroke="none"/>
      <path d="M-0.75 3.25 Q-1.15 3.6 -0.9 4.2 -0.6 5.05 0.75 6.0 L1.15 6.2 1.3 6.55 1.15 6.2 2.15 6.8 2.05 6.85 1.5 6.65 1.3 6.55 Q0.3 5.65 -0.75 5.2 L-0.75 5.15 -2.1 3.15 Q-2.45 2.75 -2.85 2.55 -2.45 2.75 -2.1 3.15 L-0.75 5.15 -0.75 5.2 Q-2.05 4.45 -3.4 4.3 L-5.25 4.4 -6.25 3.3 -6.45 3.0 -6.25 3.3 -5.25 4.4 -6.15 4.6 -6.75 5.55 -7.3 4.0 -6.45 3.0 Q-5.75 2.45 -4.6 2.4 L-3.55 3.75 -3.4 4.3 -3.55 3.75 -4.6 2.4 -4.3 2.35 -3.7 2.35 -3.25 2.4 -2.85 2.55 -2.2 2.65 -1.2 3.0 -0.75 3.25" fill="#574f38" fill-rule="evenodd" stroke="none"/>
      <path d="M-0.75 3.25 L-1.2 3.0 M-2.85 2.55 Q-2.45 2.75 -2.1 3.15 L-0.75 5.15 -0.75 5.2 M1.3 6.55 L1.15 6.2 Q0.75 4.95 -0.05 4.05 L-0.75 3.25 M-3.4 4.3 L-3.55 3.75 -4.6 2.4 Q-5.75 2.45 -6.45 3.0 L-6.25 3.3 -5.25 4.4 M-7.3 4.0 L-6.45 3.0" fill="none" stroke="#000000" stroke-linecap="round" stroke-linejoin="round" stroke-opacity="0.3019608" stroke-width="0.05"/>
      <path d="M-1.2 3.0 L-2.2 2.65 -2.85 2.55 M-0.75 5.2 Q0.3 5.65 1.3 6.55 M-1.2 3.0 L-0.75 3.2 Q0.65 3.9 2.1 5.05 L2.45 5.7 2.45 6.45 2.2 6.8 M2.15 6.8 L2.05 6.85 1.5 6.65 1.3 6.55 M-5.25 4.4 L-3.4 4.3 Q-2.05 4.45 -0.75 5.2 M-3.7 2.35 L-3.25 2.4 -2.85 2.55 M-5.25 4.4 L-6.15 4.6 -6.75 5.55 -7.3 4.0" fill="none" stroke="#000000" stroke-linecap="round" stroke-linejoin="round" stroke-opacity="0.4" stroke-width="0.05"/>
      <path d="M-4.2 6.65 L-3.7 6.85 Q-2.25 7.55 -0.75 8.7 -0.45 8.95 -0.4 9.35 -0.25 9.75 -0.4 10.1 L-0.65 10.45 -0.7 10.45 -1.7 9.85 Q-2.15 8.6 -2.95 7.7 L-3.7 6.9 -2.95 7.7 Q-2.15 8.6 -1.7 9.85 L-2.15 9.65 Q-3.5 8.7 -3.85 7.85 -4.1 7.25 -3.7 6.9 L-4.2 6.65" fill="#7b7150" fill-rule="evenodd" stroke="none"/>
      <path d="M-0.7 10.45 L-0.8 10.5 -1.4 10.3 Q-1.45 10.2 -1.55 10.2 L-3.7 8.85 Q-5.05 8.1 -6.45 7.95 L-8.4 8.05 -9.3 8.25 -10.65 8.95 -10.85 8.05 -10.5 7.0 -9.9 6.4 -9.7 6.3 -9.7 6.35 -7.8 5.95 -6.3 6.05 -5.85 6.2 Q-5.0 6.3 -4.2 6.65 L-3.7 6.9 Q-4.1 7.25 -3.85 7.85 -3.5 8.7 -2.15 9.65 L-1.7 9.85 -0.7 10.45 M-8.4 8.05 L-9.4 6.95 -9.7 6.35 -9.4 6.95 -8.4 8.05 M-3.7 8.85 L-3.7 8.8 -5.1 6.8 Q-5.45 6.4 -5.85 6.2 -5.45 6.4 -5.1 6.8 L-3.7 8.8 -3.7 8.85 M-1.55 10.2 L-1.7 9.85 -1.55 10.2 M-9.7 6.35 L-9.9 6.4 -9.7 6.35 M-6.45 7.95 L-6.6 7.4 -7.8 5.95 -6.6 7.4 -6.45 7.95" fill="#574f38" fill-rule="evenodd" stroke="none"/>
      <path d="M-9.7 6.3 L-9.7 6.35 -9.4 6.95 -8.4 8.05 M-4.2 6.65 L-3.7 6.9 -2.95 7.7 Q-2.15 8.6 -1.7 9.85 L-1.55 10.2 M-5.85 6.2 Q-5.45 6.4 -5.1 6.8 L-3.7 8.8 -3.7 8.85 M-7.8 5.95 L-6.6 7.4 -6.45 7.95" fill="none" stroke="#000000" stroke-linecap="round" stroke-linejoin="round" stroke-opacity="0.3019608" stroke-width="0.05"/>
      <path d="M-4.2 6.65 L-3.7 6.85 Q-2.25 7.55 -0.75 8.7 -0.45 8.95 -0.4 9.35 -0.25 9.75 -0.4 10.1 L-0.65 10.45 M-0.7 10.45 L-0.8 10.5 -1.4 10.3 Q-1.45 10.2 -1.55 10.2 L-3.7 8.85 Q-5.05 8.1 -6.45 7.95 L-8.4 8.05 -9.3 8.25 -10.65 8.95 -10.85 8.05 -10.5 7.0 -9.9 6.4 -9.7 6.3 M-9.7 6.35 L-7.8 5.95 -6.3 6.05 -5.85 6.2 Q-5.0 6.3 -4.2 6.65 M-9.9 6.4 L-9.7 6.35" fill="none" stroke="#000000" stroke-linecap="round" stroke-linejoin="round" stroke-opacity="0.4" stroke-width="0.05"/>
    </g>
    <g id="sprite3" transform="matrix(1.0, 0.0, 0.0, 1.0, 15.25, 18.9)">
      <clipPath id="clipPath0" transform="matrix(1.0, 0.0, 0.0, 1.0, 15.25, 18.9)">
        <use height="41.9" transform="matrix(1.0, 0.0, 0.0, 1.0, -8.3, -18.9)" width="30.5" xlink:href="#shape13"/>
      </clipPath>
      <g clip-path="url(#clipPath0)">
        <use height="8.1" transform="matrix(1.049, -0.1719, 1.3232, 0.8048, -11.2986, 10.6402)" width="7.8" xlink:href="#sprite4"/>
        <use height="8.1" transform="matrix(0.7116, -0.7874, 1.5338, -0.196, -15.2672, 16.7437)" width="7.8" xlink:href="#sprite4"/>
        <use height="8.1" transform="matrix(1.1303, -0.235, -0.1201, 1.195, -2.4535, -7.3023)" width="7.8" xlink:href="#sprite4"/>
        <use height="8.1" transform="matrix(0.3036, 0.6025, -1.1853, 0.1933, 12.9442, -17.1114)" width="7.8" xlink:href="#sprite4"/>
      </g>
    </g>
    <g id="shape13" transform="matrix(1.0, 0.0, 0.0, 1.0, 8.3, 18.9)">
      <path d="M9.25 -18.9 Q9.95 -18.8 10.5 -18.35 L11.7 -17.3 12.45 -17.95 13.4 -18.4 13.45 -18.3 Q14.0 -17.5 14.05 -16.5 L14.2 -16.65 14.3 -15.85 15.2 -16.4 16.2 -16.65 Q16.95 -15.65 16.55 -14.05 L16.5 -13.95 16.35 -13.7 Q17.05 -12.95 17.15 -11.85 L17.2 -11.75 17.15 -11.7 16.0 -10.95 15.75 -10.75 15.5 -10.65 15.45 -10.25 Q15.75 -8.65 16.3 -7.65 L17.05 -6.7 17.2 -6.6 Q18.0 -5.65 18.05 -4.4 L18.05 -4.0 16.7 -2.55 17.1 -0.4 17.85 -0.05 18.35 -0.25 18.4 -0.15 Q19.45 0.8 19.9 1.95 L20.15 2.0 20.6 1.55 20.75 2.2 20.8 2.2 22.0 2.05 21.75 3.1 21.15 4.1 21.7 4.65 22.2 5.25 22.1 5.35 20.85 6.05 21.0 6.1 20.45 6.3 20.95 6.9 21.25 7.65 Q20.6 8.3 19.4 8.3 L19.35 8.25 19.0 8.1 Q18.2 8.85 17.75 8.8 L17.45 9.15 17.25 11.05 17.35 11.2 17.6 12.35 17.6 12.4 17.6 13.2 17.4 14.3 Q16.65 15.1 14.25 15.6 12.05 17.25 10.9 21.1 L6.95 22.6 Q-4.2 24.2 -8.15 19.45 L-8.3 17.45 -8.3 17.1 -8.2 15.45 Q-7.9 13.05 -6.6 11.7 L-3.35 10.9 -3.5 10.5 -3.55 10.2 -3.55 10.0 -3.45 9.55 -3.2 8.95 -2.6 8.35 -2.55 8.35 -2.5 8.35 -2.4 8.25 -2.4 8.3 -0.5 7.9 0.1 7.95 0.45 7.5 0.45 7.45 0.35 7.05 Q-0.05 6.35 0.0 5.95 L0.85 4.95 Q1.3 4.6 1.95 4.45 2.2 3.1 1.9 1.75 L1.9 1.65 1.25 1.0 1.15 0.85 1.55 0.25 Q-0.45 -0.2 0.3 -1.7 L0.35 -1.7 Q0.8 -2.75 0.85 -3.8 L0.6 -5.2 0.0 -6.5 -0.05 -6.6 -1.8 -6.3 -1.85 -6.25 -1.9 -6.4 Q-3.35 -8.1 -2.9 -10.7 L-2.75 -10.85 Q-3.3 -11.4 -3.55 -12.15 L-3.55 -12.25 -2.55 -13.5 -2.35 -13.6 -2.25 -13.7 -1.3 -14.3 -1.95 -14.95 -2.0 -14.95 -1.9 -15.0 -0.7 -15.2 Q0.65 -14.6 1.45 -13.7 L1.7 -14.45 Q2.2 -15.55 3.05 -15.95 L4.2 -14.9 Q5.05 -15.95 6.0 -16.2 L6.3 -16.25 6.5 -16.25 7.4 -16.15 8.55 -15.9 8.55 -15.95 9.2 -17.25 Q9.1 -18.25 9.25 -18.9" fill="#008e23" fill-rule="evenodd" stroke="none"/>
    </g>
    <g id="sprite4" transform="matrix(1.0, 0.0, 0.0, 1.0, 3.9, 4.2)">
      <use height="8.1" transform="matrix(1.0, 0.0, 0.0, 1.0, -3.9, -4.2)" width="7.8" xlink:href="#shape14"/>
    </g>
    <g id="shape14" transform="matrix(1.0, 0.0, 0.0, 1.0, 3.9, 4.2)">
      <path d="M2.75 -2.75 Q3.9 -1.6 3.9 0.0 3.9 1.6 2.75 2.75 1.6 3.9 0.0 3.9 -1.6 3.9 -2.75 2.75 -3.9 1.6 -3.9 0.0 -3.9 -1.1 -3.35 -1.95 -1.85 -5.85 2.55 -2.95 L2.75 -2.75" fill="url(#gradient0)" fill-rule="evenodd" stroke="none"/>
    </g>
    <radialGradient cx="0" cy="0" gradientTransform="matrix(0.0048, 0.0, 0.0, 0.0048, 0.0, 0.0)" gradientUnits="userSpaceOnUse" id="gradient0" r="819.2" spreadMethod="pad">
      <stop offset="0.0" stop-color="#b2b26a" stop-opacity="0.4509804"/>
      <stop offset="1.0" stop-color="#b2b26a" stop-opacity="0.0"/>
    </radialGradient>
    <g id="shape15" transform="matrix(1.0, 0.0, 0.0, 1.0, 16.1, 21.45)">
      <path d="M-9.55 -15.75 L-8.6 -16.35 -9.25 -17.0 -9.3 -17.0 -9.2 -17.05 -8.0 -17.25 Q-6.65 -16.65 -5.85 -15.75 L-5.6 -16.5 Q-5.1 -17.6 -4.25 -18.0 -3.6 -17.8 -3.1 -16.95 -2.25 -18.0 -1.3 -18.25 L-1.0 -18.3 -0.8 -18.3 0.1 -18.2 1.25 -17.95 1.25 -18.0 1.9 -19.3 Q1.8 -20.3 1.95 -20.95 2.65 -20.85 3.2 -20.4 L4.4 -19.35 5.15 -20.0 6.1 -20.45 6.15 -20.35 Q6.7 -19.55 6.75 -18.55 L6.9 -18.7 7.0 -17.9 7.9 -18.45 8.9 -18.7 Q9.65 -17.7 9.25 -16.1 L9.2 -16.0 9.05 -15.75 Q9.75 -15.0 9.85 -13.9 L9.9 -13.8 9.85 -13.75 Q9.25 -13.3 8.7 -13.0 L8.45 -12.8 8.2 -12.7 8.15 -12.3 Q8.45 -10.7 9.0 -9.7 L9.75 -8.75 9.9 -8.65 Q10.7 -7.7 10.75 -6.45 L10.75 -6.05 Q10.25 -5.25 9.4 -4.6 L9.8 -2.45 10.55 -2.1 11.05 -2.3 11.1 -2.2 Q12.15 -1.25 12.6 -0.1 L12.85 -0.05 13.3 -0.5 13.45 0.15 13.5 0.15 14.7 0.0 14.45 1.05 13.85 2.05 14.4 2.6 14.9 3.2 14.8 3.3 Q14.25 3.75 13.55 4.0 L13.7 4.05 13.15 4.25 13.65 4.85 13.95 5.6 Q13.3 6.25 12.1 6.25 L12.05 6.2 11.7 6.05 Q10.9 6.8 10.45 6.75 L10.15 7.1 9.95 9.0 10.05 9.15 10.3 10.3 10.3 10.35 10.3 11.15 10.1 12.25 Q9.35 13.05 6.95 13.55 4.75 15.2 3.6 19.05 L-0.35 20.55 Q-11.5 22.15 -15.45 17.4 L-15.6 15.4 -15.6 15.05 -15.5 13.4 Q-15.2 11.0 -13.9 9.65 L-10.65 8.85 -10.8 8.45 -10.85 8.15 -10.85 7.95 -10.75 7.5 -10.5 6.9 -9.9 6.3 -9.8 6.3 -9.7 6.2 -9.7 6.25 -7.8 5.85 -7.2 5.9 -6.85 5.45 -6.85 5.4 -6.95 5.0 -7.3 3.9 -6.45 2.9 -5.35 2.4 Q-5.1 1.05 -5.4 -0.3 L-5.4 -0.4 -6.05 -1.05 -6.15 -1.2 -5.75 -1.8 Q-7.75 -2.25 -7.0 -3.75 L-6.95 -3.75 Q-6.5 -4.8 -6.45 -5.85 L-6.7 -7.25 -7.3 -8.55 -7.35 -8.65 -9.1 -8.35 -9.15 -8.3 -9.2 -8.45 Q-10.65 -10.15 -10.2 -12.75 L-10.05 -12.9 -10.85 -14.2 -10.85 -14.3 -9.85 -15.55 -9.65 -15.65 -9.55 -15.75 Z" fill="none" stroke="#000000" stroke-linecap="round" stroke-linejoin="round" stroke-opacity="0.3019608" stroke-width="1.0"/>
    </g>
  </defs>
</svg>
