<?xml version="1.0" encoding="UTF-8" standalone="no"?>
<svg xmlns:xlink="http://www.w3.org/1999/xlink" height="440.0px" width="440.0px" xmlns="http://www.w3.org/2000/svg">
  <g transform="matrix(10.0, 0.0, 0.0, 10.0, 0.0, 0.0)">
    <use height="44.0" transform="matrix(1.0, 0.0, 0.0, 1.0, 0.0, 0.0)" width="44.0" xlink:href="#shape0"/>
    <use height="93.85" transform="matrix(0.3312, 0.0, 0.0, 0.3312, 1.9672, 4.6672)" width="84.4" xlink:href="#sprite0"/>
    <use height="33.0" transform="matrix(1.0, 0.0, 0.0, 1.0, 10.75, 7.15)" width="31.2" xlink:href="#shape2"/>
    <use height="56.0" transform="matrix(0.1579, 0.1361, -0.182, 0.2112, 17.0, 20.45)" width="56.0" xlink:href="#sprite1"/>
    <use height="56.0" transform="matrix(0.2702, 0.2329, -0.3114, 0.3613, 25.3, -3.15)" width="56.0" xlink:href="#sprite1"/>
  </g>
  <defs>
    <g id="shape0" transform="matrix(1.0, 0.0, 0.0, 1.0, 0.0, 0.0)">
      <path d="M44.0 44.0 L0.0 44.0 0.0 0.0 44.0 0.0 44.0 44.0" fill="#43adca" fill-opacity="0.0" fill-rule="evenodd" stroke="none"/>
      <path d="M27.7 23.55 L27.65 23.6 27.55 23.55 27.7 23.55 M7.85 21.7 L7.65 21.6 7.95 21.6 7.85 21.7 M2.7 27.15 L2.55 27.0 2.7 27.05 2.7 27.15" fill="#000000" fill-opacity="0.3019608" fill-rule="evenodd" stroke="none"/>
      <path d="M40.5 26.1 L40.75 26.45 41.2 26.75 40.25 27.1 39.9 27.55 39.85 27.6 39.95 28.6 39.15 28.4 38.7 28.85 38.65 29.0 39.15 29.85 38.15 29.95 37.7 30.25 37.65 30.3 37.5 31.3 37.05 30.95 36.65 31.95 36.5 32.2 37.15 32.25 36.4 32.9 37.9 32.9 36.0 34.0 Q34.7 34.6 33.7 34.55 L34.1 35.1 31.7 35.0 Q28.85 37.5 26.3 39.0 L25.9 39.25 23.2 39.9 18.7 39.45 Q14.65 38.55 13.95 36.3 13.8 35.9 13.8 35.35 L11.65 35.65 7.4 34.95 Q3.55 33.8 2.9 31.6 L2.75 30.45 2.25 29.4 2.2 29.2 2.1 28.1 2.1 27.25 Q3.35 27.0 4.65 25.6 L4.85 25.3 4.9 25.15 4.55 24.8 5.4 24.25 Q5.6 23.95 5.9 23.8 5.4 23.2 3.7 22.9 4.95 22.0 6.4 22.15 4.2 21.3 4.8 18.3 L6.1 19.4 6.15 19.35 6.4 18.95 6.6 18.1 5.75 18.0 7.15 17.15 7.0 16.8 8.2 17.0 8.35 16.85 8.4 17.0 8.45 17.0 8.55 17.05 9.4 17.3 9.65 17.0 10.05 16.2 Q9.45 15.35 9.2 14.3 L9.1 14.35 Q7.4 14.9 6.15 16.55 6.25 15.4 6.5 14.35 L7.15 12.45 7.25 12.35 7.25 12.3 7.3 12.2 7.35 12.05 7.7 11.5 8.25 10.65 8.45 10.45 6.05 10.0 Q6.9 8.95 7.95 8.2 9.45 7.1 11.4 6.7 L12.35 6.55 13.1 6.5 11.8 5.65 Q14.3 5.1 16.6 5.55 18.0 5.8 19.25 6.45 L19.55 6.65 19.5 5.9 18.95 4.75 19.25 4.8 19.75 4.9 Q21.5 5.4 22.75 6.9 L22.9 7.05 Q24.25 6.0 25.95 6.0 L26.45 6.0 Q25.65 6.6 25.4 7.55 L25.35 8.0 25.8 8.15 25.95 8.2 26.0 8.2 Q26.85 8.5 27.5 8.95 L27.7 9.0 Q29.15 9.2 30.5 9.75 L30.85 9.9 30.7 9.2 30.25 8.2 30.15 8.0 30.45 8.05 31.0 8.15 31.2 8.2 Q32.9 8.6 34.2 9.95 L34.3 10.1 Q35.75 8.95 37.5 8.8 L38.0 8.8 Q37.2 9.45 36.95 10.45 L36.85 10.9 37.4 11.05 37.6 11.1 Q39.35 11.55 40.45 12.8 L41.7 14.8 40.45 14.3 40.05 14.15 38.2 14.0 39.1 17.85 39.05 17.8 38.65 17.25 38.55 17.15 37.15 15.95 37.5 17.25 37.55 17.85 37.6 19.55 37.45 20.35 36.6 19.45 36.15 19.9 36.4 20.7 36.3 20.6 Q36.75 21.95 37.6 22.85 L36.7 22.85 36.75 22.9 37.15 23.85 37.4 24.2 Q37.8 24.0 38.3 23.95 L38.4 23.95 38.45 23.95 38.55 23.95 39.9 23.85 39.75 24.15 41.2 25.15 40.3 25.2 40.5 26.05 40.5 26.1 M12.05 16.85 L12.0 16.8 12.0 17.15 12.25 17.05 12.05 16.85 M10.9 17.75 L10.9 17.65 10.9 17.5 10.9 17.4 10.25 18.3 10.4 19.2 10.4 19.35 10.7 19.0 10.7 18.8 10.8 18.3 10.9 17.75" fill="#000000" fill-rule="evenodd" stroke="none"/>
      <path d="M40.5 26.1 L40.75 26.45 41.2 26.75 40.25 27.1 39.9 27.55 39.85 27.6 39.95 28.6 39.15 28.4 38.7 28.85 38.65 29.0 39.15 29.85 38.15 29.95 37.7 30.25 37.65 30.3 37.5 31.3 37.05 30.95 36.65 31.95 36.5 32.2 37.15 32.25 36.4 32.9 37.9 32.9 36.0 34.0 Q34.7 34.6 33.7 34.55 L34.1 35.1 31.7 35.0 Q28.85 37.5 26.3 39.0 L25.9 39.25 23.2 39.9 18.7 39.45 Q14.65 38.55 13.95 36.3 13.8 35.9 13.8 35.35 L11.65 35.65 7.4 34.95 Q3.55 33.8 2.9 31.6 L2.75 30.45 2.25 29.4 2.2 29.2 2.1 28.1 2.1 27.25 Q3.35 27.0 4.65 25.6 L4.85 25.3 4.9 25.15 4.55 24.8 5.4 24.25 Q5.6 23.95 5.9 23.8 5.4 23.2 3.7 22.9 4.95 22.0 6.4 22.15 4.2 21.3 4.8 18.3 L6.1 19.4 6.15 19.35 6.4 18.95 6.6 18.1 5.75 18.0 7.15 17.15 7.0 16.8 8.2 17.0 8.35 16.85 8.4 17.0 8.45 17.0 8.55 17.05 9.4 17.3 9.65 17.0 10.05 16.2 Q9.45 15.35 9.2 14.3 L9.1 14.35 Q7.4 14.9 6.15 16.55 6.25 15.4 6.5 14.35 L7.15 12.45 7.25 12.35 7.25 12.3 7.3 12.2 7.35 12.05 7.7 11.5 8.25 10.65 8.45 10.45 6.05 10.0 Q6.9 8.95 7.95 8.2 9.45 7.1 11.4 6.7 L12.35 6.55 13.1 6.5 11.8 5.65 Q14.3 5.1 16.6 5.55 18.0 5.8 19.25 6.45 L19.55 6.65 19.5 5.9 18.95 4.75 19.25 4.8 19.75 4.9 Q21.5 5.4 22.75 6.9 L22.9 7.05 Q24.25 6.0 25.95 6.0 L26.45 6.0 Q25.65 6.6 25.4 7.55 L25.35 8.0 25.8 8.15 25.95 8.2 26.0 8.2 Q26.85 8.5 27.5 8.95 L27.7 9.0 Q29.15 9.2 30.5 9.75 L30.85 9.9 30.7 9.2 30.25 8.2 30.15 8.0 30.45 8.05 31.0 8.15 31.2 8.2 Q32.9 8.6 34.2 9.95 L34.3 10.1 Q35.75 8.95 37.5 8.8 L38.0 8.8 Q37.2 9.45 36.95 10.45 L36.85 10.9 37.4 11.05 37.6 11.1 Q39.35 11.55 40.45 12.8 L41.7 14.8 40.45 14.3 40.05 14.15 38.2 14.0 39.1 17.85 39.05 17.8 38.65 17.25 38.55 17.15 37.15 15.95 37.5 17.25 37.55 17.85 37.6 19.55 37.45 20.35 36.6 19.45 36.15 19.9 36.4 20.7 36.3 20.6 Q36.75 21.95 37.6 22.85 L36.7 22.85 36.75 22.9 37.15 23.85 37.4 24.2 Q37.8 24.0 38.3 23.95 L38.4 23.95 38.45 23.95 38.55 23.95 39.9 23.85 39.75 24.15 41.2 25.15 40.3 25.2 40.5 26.05 40.5 26.1 M12.05 16.85 L12.25 17.05 12.0 17.15 12.0 16.8 12.05 16.85 M10.9 17.75 L10.9 17.65 10.9 17.5 10.9 17.4 10.25 18.3 10.4 19.2 10.4 19.35 10.7 19.0 10.7 18.8 10.8 18.3 10.9 17.75" fill="none" stroke="#000000" stroke-linecap="round" stroke-linejoin="round" stroke-opacity="0.5019608" stroke-width="1.0"/>
    </g>
    <g id="sprite0" transform="matrix(1.0, 0.0, 0.0, 1.0, 0.25, 0.25)">
      <use height="93.85" transform="matrix(1.0, 0.0, 0.0, 1.0, -0.25, -0.25)" width="84.4" xlink:href="#shape1"/>
    </g>
    <g id="shape1" transform="matrix(1.0, 0.0, 0.0, 1.0, 0.25, 0.25)">
      <path d="M38.35 21.75 L35.45 18.95 33.95 18.9 Q30.9 26.9 34.25 31.9 L34.45 32.0 36.75 32.45 37.2 32.45 36.75 32.45 34.45 32.0 34.25 31.9 34.3 32.0 34.45 32.2 35.25 33.15 37.7 33.05 37.2 32.45 36.8 31.6 36.3 30.45 Q35.25 27.4 36.75 23.85 L38.35 21.75 Q37.6 24.2 38.15 26.15 L39.05 24.9 39.1 24.85 Q39.75 23.0 38.55 21.95 L38.35 21.75 M28.7 46.55 Q29.4 45.5 29.75 44.15 L30.0 41.25 30.0 41.1 29.95 38.7 Q29.95 36.95 30.2 35.1 29.4 35.8 28.45 37.25 28.65 41.75 27.15 45.15 27.65 45.45 28.05 45.85 L28.7 46.55 M28.7 28.9 Q26.15 32.45 25.8 36.15 25.55 38.35 24.45 40.0 L24.3 40.25 24.7 40.9 24.75 40.95 24.75 40.9 Q26.0 39.8 26.7 38.15 L27.15 36.65 Q27.45 34.35 28.55 32.2 L29.7 30.4 28.7 28.9" fill="#7d6239" fill-rule="evenodd" stroke="none"/>
      <path d="M38.35 21.75 L36.75 23.85 Q35.25 27.4 36.3 30.45 L36.85 28.65 Q37.25 27.35 38.15 26.15 37.6 24.2 38.35 21.75 M34.25 31.9 Q30.9 26.9 33.95 18.9 L33.7 19.0 33.0 19.45 31.9 20.55 31.75 20.7 31.65 20.85 31.3 21.55 Q30.4 23.55 30.1 25.35 L29.9 26.95 30.1 29.1 30.25 29.65 30.85 31.4 31.4 32.25 32.0 33.05 32.15 33.25 32.4 33.55 Q34.45 36.1 36.35 36.45 L36.7 36.5 Q38.65 36.5 38.65 34.4 L38.6 34.15 38.15 33.7 37.7 33.05 35.25 33.15 34.45 32.2 34.3 32.0 34.25 31.9 32.35 30.65 31.35 29.6 29.9 26.95 31.35 29.6 32.35 30.65 34.25 31.9 M27.7 27.8 Q25.6 30.35 24.3 33.9 L24.25 34.1 24.25 34.15 22.9 36.95 22.1 37.95 22.25 38.0 23.5 39.15 24.2 40.15 24.3 40.25 24.45 40.0 Q25.55 38.35 25.8 36.15 26.15 32.45 28.7 28.9 L28.25 27.1 28.1 27.3 27.7 27.8 M28.45 37.25 Q27.35 39.15 26.1 42.5 L25.75 43.95 25.55 44.4 Q26.3 44.6 27.15 45.15 28.65 41.75 28.45 37.25" fill="#665030" fill-rule="evenodd" stroke="none"/>
      <path d="M31.3 21.55 Q29.2 23.0 28.3 25.3 L27.8 27.05 27.7 27.8 28.1 27.3 28.25 27.1 28.7 28.9 29.7 30.4 28.55 32.2 Q27.45 34.35 27.15 36.65 L26.7 38.15 26.65 38.5 26.65 38.95 26.6 39.2 26.6 39.3 26.4 41.0 26.1 42.5 Q27.35 39.15 28.45 37.25 29.4 35.8 30.2 35.1 L30.55 33.25 32.15 33.25 32.0 33.05 31.4 32.25 30.85 31.4 30.25 29.65 30.1 29.1 29.9 26.95 30.1 25.35 Q30.4 23.55 31.3 21.55 M28.25 27.1 L28.65 26.65 29.0 26.3 30.1 25.35 29.0 26.3 28.65 26.65 28.25 27.1 M29.7 30.4 L30.25 29.65 29.7 30.4 M30.55 33.25 L30.85 31.4 30.55 33.25" fill="#443620" fill-rule="evenodd" stroke="none"/>
      <path d="M28.85 54.45 L29.7 56.0 Q29.45 53.8 30.05 51.45 L30.1 50.25 29.9 49.05 Q29.5 47.6 28.7 46.55 L28.05 45.85 Q25.0 47.4 28.5 54.0 L28.85 54.45 M24.3 40.25 L24.2 40.15 Q17.6 37.2 18.45 43.5 L19.45 43.55 19.75 46.2 19.8 47.0 20.6 46.1 21.3 45.3 22.8 44.8 22.85 48.45 23.05 49.2 23.3 50.2 23.4 49.85 Q23.7 47.85 24.8 45.95 L25.15 44.35 25.2 43.65 Q25.2 42.2 24.7 40.95 L24.7 40.9 24.3 40.25" fill="#c9cccc" fill-rule="evenodd" stroke="none"/>
      <path d="M22.1 37.95 Q21.0 37.25 19.6 37.1 L19.25 37.05 19.05 37.05 18.85 37.05 14.95 36.45 15.4 37.4 Q13.3 39.3 11.15 40.0 L16.4 39.75 16.35 41.65 18.15 41.75 18.15 43.45 18.45 43.5 Q17.6 37.2 24.2 40.15 L23.5 39.15 22.25 38.0 22.1 37.95 M25.55 44.4 L25.15 44.35 24.8 45.95 Q23.7 47.85 23.4 49.85 L23.3 50.2 23.05 49.2 23.15 51.0 24.4 50.65 25.05 52.25 25.7 53.95 26.6 51.8 27.15 51.8 28.5 54.0 28.45 54.05 28.85 54.45 28.5 54.0 Q25.0 47.4 28.05 45.85 27.65 45.45 27.15 45.15 26.3 44.6 25.55 44.4" fill="#a5aeae" fill-rule="evenodd" stroke="none"/>
      <path d="M12.35 44.05 Q11.75 44.65 11.05 44.8 L13.8 46.05 14.75 47.45 14.85 47.55 Q14.4 49.4 14.5 50.6 15.4 49.85 16.9 50.1 L18.15 51.4 18.25 51.85 18.25 51.9 Q17.75 53.85 16.75 54.4 L19.7 54.75 20.95 55.85 21.05 55.9 Q21.1 57.85 21.5 59.0 21.9 58.3 22.8 58.0 L23.7 57.8 26.25 59.45 Q25.9 57.4 27.85 55.5 L28.85 54.45 28.45 54.05 26.6 51.8 25.7 53.95 25.05 52.25 24.25 53.65 23.95 51.9 21.6 52.8 21.05 51.0 19.45 51.1 Q19.8 50.25 20.7 49.65 L21.6 49.15 22.85 48.45 21.9 46.25 20.6 46.1 19.8 47.0 19.75 46.2 18.8 46.9 18.2 44.5 16.6 44.9 16.65 42.8 12.35 44.05 M16.7 47.1 L15.45 46.5 15.8 45.15 16.7 47.1 M18.15 51.4 L19.05 52.45 19.45 51.1 19.05 52.45 18.15 51.4 M23.9 56.2 L22.8 56.6 22.85 54.35 23.9 56.2" fill="#939f9f" fill-rule="evenodd" stroke="none"/>
      <path d="M11.15 40.0 Q12.05 40.8 13.65 40.3 13.1 41.5 13.1 42.9 L13.1 42.95 12.35 44.05 16.65 42.8 16.6 44.9 18.2 44.5 18.8 46.9 19.75 46.2 19.45 43.55 18.45 43.5 18.15 43.45 18.15 41.75 16.35 41.65 16.4 39.75 11.15 40.0 M16.7 47.1 L15.8 45.15 15.45 46.5 16.7 47.1 M20.6 46.1 L21.9 46.25 22.85 48.45 22.8 44.8 21.3 45.3 20.6 46.1 M22.85 48.45 L21.6 49.15 20.7 49.65 Q19.8 50.25 19.45 51.1 L21.05 51.0 21.6 52.8 23.95 51.9 24.25 53.65 25.05 52.25 24.4 50.65 23.15 51.0 23.05 49.2 22.85 48.45 M26.6 51.8 L28.45 54.05 28.5 54.0 27.15 51.8 26.6 51.8 M23.9 56.2 L22.85 54.35 22.8 56.6 23.9 56.2" fill="#849393" fill-rule="evenodd" stroke="none"/>
      <path d="M33.95 18.9 L35.45 18.95 38.35 21.75 M36.75 23.85 Q35.25 27.4 36.3 30.45 L36.8 31.6 37.2 32.45 36.75 32.45 34.45 32.0 34.25 31.9 M33.95 18.9 L33.7 19.0 33.0 19.45 31.9 20.55 31.75 20.7 31.65 20.85 31.3 21.55 Q29.2 23.0 28.3 25.3 L27.8 27.05 27.7 27.8 Q25.6 30.35 24.3 33.9 L24.25 34.1 24.25 34.15 22.9 36.95 22.1 37.95 Q21.0 37.25 19.6 37.1 L19.25 37.05 19.05 37.05 18.85 37.05 14.95 36.45 15.4 37.4 Q13.3 39.3 11.15 40.0 12.05 40.8 13.65 40.3 13.1 41.5 13.1 42.9 L13.1 42.95 12.35 44.05 Q11.75 44.65 11.05 44.8 L13.8 46.05 14.75 47.45 14.85 47.55 Q14.4 49.4 14.5 50.6 15.4 49.85 16.9 50.1 L18.15 51.4 18.25 51.85 18.25 51.9 Q17.75 53.85 16.75 54.4 L19.7 54.75 20.95 55.85 21.05 55.9 Q21.1 57.85 21.5 59.0 21.9 58.3 22.8 58.0 L23.7 57.8 26.25 59.45 Q25.9 57.4 27.85 55.5 L28.85 54.45 29.7 56.0 Q29.45 53.8 30.05 51.45 L30.1 50.25 29.9 49.05 Q29.5 47.6 28.7 46.55 29.4 45.5 29.75 44.15 L30.0 41.25 30.0 41.1 29.95 38.7 Q29.95 36.95 30.2 35.1 L30.55 33.25 32.15 33.25 32.4 33.55 Q34.45 36.1 36.35 36.45 L36.7 36.5 Q38.65 36.5 38.65 34.4 L38.6 34.15 38.15 33.7 37.7 33.05 37.2 32.45 M29.9 26.95 L30.1 25.35 Q30.4 23.55 31.3 21.55 M30.1 25.35 L29.0 26.3 28.65 26.65 28.25 27.1 28.1 27.3 27.7 27.8 M24.3 40.25 L24.2 40.15 23.5 39.15 22.25 38.0 22.1 37.95 M32.15 33.25 L32.0 33.05 31.4 32.25 30.85 31.4 30.25 29.65 30.1 29.1 29.9 26.95 31.35 29.6 32.35 30.65 34.25 31.9 M30.25 29.65 L29.7 30.4 28.55 32.2 Q27.45 34.35 27.15 36.65 L26.7 38.15 Q26.0 39.8 24.75 40.9 L24.75 40.95 M24.7 40.9 L24.3 40.25 M38.15 26.15 Q37.25 27.35 36.85 28.65 L36.3 30.45 M38.15 26.15 L39.05 24.9 39.1 24.85 Q39.75 23.0 38.55 21.95 L38.35 21.75 M26.1 42.5 L26.4 41.0 26.6 39.3 26.6 39.2 26.65 38.95 26.65 38.5 26.7 38.15 M26.1 42.5 L25.75 43.95 25.55 44.4 25.15 44.35 25.2 43.65 Q25.2 42.2 24.7 40.95 L24.75 40.95 M24.7 40.95 L24.7 40.9 M30.85 31.4 L30.55 33.25 M18.45 43.5 L18.15 43.45 18.15 41.75 M19.75 46.2 L19.45 43.55 18.45 43.5 M20.6 46.1 L21.3 45.3 M22.85 48.45 L21.6 49.15 20.7 49.65 Q19.8 50.25 19.45 51.1 L19.05 52.45 18.15 51.4 M20.6 46.1 L19.8 47.0 19.75 46.2 M23.05 49.2 L23.15 51.0 24.4 50.65 25.05 52.25 25.7 53.95 26.6 51.8 M28.05 45.85 L28.7 46.55 M22.85 48.45 L23.05 49.2 23.3 50.2 23.4 49.85 Q23.7 47.85 24.8 45.95 L25.15 44.35 M28.05 45.85 Q27.65 45.45 27.15 45.15 26.3 44.6 25.55 44.4" fill="none" stroke="#000000" stroke-linecap="round" stroke-linejoin="round" stroke-opacity="0.3019608" stroke-width="0.5"/>
      <path d="M62.95 30.35 Q63.75 30.75 64.45 31.3 L67.05 33.25 68.85 35.05 67.4 36.35 65.7 37.85 65.4 38.05 63.5 39.4 63.3 39.55 61.0 40.9 Q56.95 42.7 55.05 43.15 L48.05 43.8 Q52.25 42.15 53.9 39.6 52.25 42.15 48.05 43.8 L45.5 43.5 41.85 43.1 37.85 42.0 Q35.9 41.2 34.3 40.15 32.3 38.85 30.8 37.1 L30.2 36.5 29.65 35.8 Q28.9 34.85 28.55 33.65 L28.25 31.8 29.9 33.2 28.55 33.65 29.9 33.2 30.4 33.6 30.4 34.3 30.9 34.0 Q33.85 36.15 36.9 37.55 L37.4 38.9 37.9 40.1 38.1 40.7 40.6 39.05 Q47.05 41.0 53.8 39.55 53.7 36.0 52.2 34.7 L54.5 34.25 56.85 33.45 57.0 33.45 Q58.45 35.4 59.55 37.65 L60.1 38.9 60.6 37.15 Q61.1 34.65 60.65 31.75 L61.95 31.0 62.95 30.35 M53.95 39.55 L53.8 39.55 53.9 39.6 53.95 39.55 Q55.25 37.25 54.5 34.25 55.25 37.25 53.95 39.55 M64.45 31.3 Q65.3 32.9 65.4 34.4 L65.25 36.0 64.8 37.35 63.5 39.4 64.8 37.35 65.25 36.0 65.4 34.4 Q65.3 32.9 64.45 31.3 M37.4 38.9 L34.3 40.15 37.4 38.9" fill="#665030" fill-rule="evenodd" stroke="none"/>
      <path d="M67.4 36.35 L67.9 38.5 Q63.0 44.95 53.85 45.8 51.3 46.05 48.4 45.8 42.35 45.0 37.85 43.05 33.05 40.9 29.95 37.4 L30.8 37.1 Q32.3 38.85 34.3 40.15 35.9 41.2 37.85 42.0 L41.85 43.1 45.5 43.5 48.05 43.8 55.05 43.15 Q56.95 42.7 61.0 40.9 L63.3 39.55 63.5 39.4 65.4 38.05 65.7 37.85 67.4 36.35 M71.65 45.4 L69.0 45.2 68.95 45.25 66.7 42.75 71.65 45.4 M72.95 52.7 L74.7 54.45 75.1 54.75 70.4 55.0 Q70.95 57.9 71.0 60.65 71.0 65.15 69.45 69.4 L68.2 72.2 67.85 73.0 64.45 71.95 Q62.0 71.0 59.75 69.35 L59.45 69.15 Q61.45 68.05 62.3 66.1 L62.25 66.3 62.55 64.7 65.35 64.85 Q65.1 67.6 62.65 68.6 69.65 70.5 69.25 59.95 L69.3 59.55 66.9 46.95 Q68.4 51.65 72.95 52.7 M52.1 34.65 L52.15 34.65 54.5 30.8 55.15 31.4 56.7 33.1 57.0 33.45 56.85 33.45 54.5 34.25 52.2 34.7 52.1 34.65 M60.65 31.75 L60.1 29.05 60.05 28.9 62.95 30.35 61.95 31.0 60.65 31.75 M48.8 34.9 L44.95 34.65 Q46.7 32.5 48.25 29.75 L48.8 34.9" fill="#939f9f" fill-rule="evenodd" stroke="none"/>
      <path d="M67.9 38.5 Q69.2 42.55 71.65 45.4 L66.7 42.75 68.95 45.25 69.0 45.2 69.05 45.35 70.15 48.3 70.75 49.5 72.95 52.7 Q68.4 51.65 66.9 46.95 L69.3 59.55 69.25 59.95 Q69.65 70.5 62.65 68.6 65.1 67.6 65.35 64.85 L62.55 64.7 Q62.6 63.2 61.8 61.4 58.4 63.3 54.3 61.95 L53.9 61.8 Q52.25 59.6 51.0 57.05 L50.55 56.15 50.5 55.85 50.45 55.7 50.05 54.6 51.5 52.5 Q51.1 54.9 52.95 55.15 55.6 52.4 53.85 45.8 63.0 44.95 67.9 38.5 M40.05 50.65 Q40.25 48.35 41.55 47.15 41.45 48.7 43.45 50.5 L41.65 51.75 41.5 51.85 40.05 50.65" fill="#a5aeae" fill-rule="evenodd" stroke="none"/>
      <path d="M67.85 73.0 L69.75 73.25 Q68.8 74.8 67.5 75.0 64.55 75.95 62.3 75.1 62.9 76.45 66.15 76.5 68.6 76.45 69.6 75.15 L71.75 75.3 Q68.75 77.2 66.2 78.25 60.05 79.2 57.3 74.7 L57.05 74.3 Q52.4 63.75 38.95 56.75 L37.55 56.3 Q26.85 52.6 15.95 53.35 L15.85 53.3 14.95 53.1 15.85 53.3 15.95 53.35 16.35 53.55 Q15.55 53.55 15.0 53.85 14.0 54.3 13.6 55.75 L13.3 57.1 Q12.3 57.15 11.5 57.6 10.1 55.75 4.9 54.85 9.1 53.15 14.95 53.1 L14.25 53.0 Q9.25 48.3 9.25 43.45 11.8 45.9 15.45 45.9 L15.25 45.8 16.15 46.15 Q16.25 47.6 17.2 49.2 15.95 42.3 18.05 39.75 20.3 42.7 25.95 45.3 L25.75 45.05 28.6 47.15 33.1 43.8 Q34.75 46.8 37.7 48.85 L39.1 49.7 40.05 50.65 41.5 51.85 41.65 51.75 43.45 50.5 Q46.0 49.25 49.4 50.05 49.35 52.3 50.05 54.6 L50.45 55.7 50.5 55.85 50.55 56.15 51.0 57.05 53.1 62.45 54.3 61.95 Q58.4 63.3 61.8 61.4 62.6 63.2 62.55 64.7 L62.25 66.3 62.3 66.1 Q59.7 68.75 56.55 67.45 L59.75 69.35 Q62.0 71.0 64.45 71.95 L67.85 73.0 M9.95 59.0 L9.8 59.15 Q9.1 60.1 8.6 61.55 L7.5 60.5 9.95 59.0 M58.5 79.2 L59.6 79.35 60.7 81.15 60.05 81.1 58.5 79.2" fill="#8b7554" fill-rule="evenodd" stroke="none"/>
      <path d="M17.2 49.2 Q16.25 47.6 16.15 46.15 14.25 41.2 18.9 36.6 20.95 40.9 25.0 44.4 L25.95 45.3 Q20.3 42.7 18.05 39.75 15.95 42.3 17.2 49.2 M15.45 45.9 Q11.8 45.9 9.25 43.45 9.25 48.3 14.25 53.0 L14.95 53.1 Q9.1 53.15 4.9 54.85 8.75 52.05 13.15 52.6 L14.25 53.0 13.15 52.6 Q6.5 50.0 8.3 40.9 11.1 43.95 15.45 45.9 M28.6 47.15 Q30.25 44.0 34.05 42.3 35.6 45.55 37.75 48.2 L39.1 49.7 37.7 48.85 Q34.75 46.8 33.1 43.8 L28.6 47.15" fill="#afa494" fill-rule="evenodd" stroke="none"/>
      <path d="M13.6 55.75 Q14.0 54.3 15.0 53.85 28.15 55.8 37.45 61.15 41.45 63.45 44.8 66.4 51.6 74.75 47.3 79.4 L34.5 88.6 22.5 89.0 Q19.15 87.5 18.75 85.3 14.95 86.9 6.1 81.25 L2.1 77.65 0.6 74.4 0.45 73.9 Q0.0 70.4 1.45 68.75 14.95 80.6 21.6 77.35 27.45 79.8 33.95 77.6 36.45 74.9 37.2 72.4 37.75 70.5 37.3 68.8 L36.75 67.45 Q35.95 65.85 34.25 64.3 L40.3 66.4 37.05 64.15 Q32.65 62.2 28.35 60.65 22.7 58.0 13.6 55.75 M18.7 84.15 L18.75 85.3 18.7 84.15" fill="#403018" fill-rule="evenodd" stroke="none"/>
      <path d="M13.3 57.1 L13.6 55.75 Q22.7 58.0 28.35 60.65 20.8 58.05 13.3 57.1 M9.8 59.15 Q22.2 60.45 34.25 64.3 35.95 65.85 36.75 67.45 22.55 63.45 7.75 62.9 L8.4 62.05 8.6 61.55 Q9.1 60.1 9.8 59.15" fill="#4f3a1d" fill-rule="evenodd" stroke="none"/>
      <path d="M11.5 57.6 Q12.3 57.15 13.3 57.1 20.8 58.05 28.35 60.65 32.0 62.4 34.25 64.3 22.2 60.45 9.8 59.15 L9.95 59.0 10.05 58.9 Q10.7 58.05 11.5 57.6 M7.75 62.9 Q22.55 63.45 36.75 67.45 L37.3 68.8 Q37.75 70.5 37.2 72.4 36.45 74.9 33.95 77.6 27.45 79.8 21.6 77.35 14.95 80.6 1.45 68.75 0.0 70.4 0.45 73.9 -0.1 72.05 0.05 70.45 L0.05 67.9 Q3.85 67.2 7.75 62.9" fill="#634924" fill-rule="evenodd" stroke="none"/>
      <path d="M67.5 75.0 L69.6 75.15 Q68.6 76.45 66.15 76.5 62.9 76.45 62.3 75.1 64.55 75.95 67.5 75.0 M62.3 66.1 Q61.45 68.05 59.45 69.15 L59.75 69.35 56.55 67.45 Q59.7 68.75 62.3 66.1 M15.95 53.35 Q26.85 52.6 37.55 56.3 L38.95 56.75 Q52.4 63.75 57.05 74.3 L57.3 74.7 Q60.05 79.2 66.2 78.25 62.45 79.75 59.6 79.35 L58.5 79.2 Q57.4 78.85 56.4 78.2 57.4 78.85 58.5 79.2 L60.05 81.1 53.8 80.45 55.0 79.45 56.4 78.2 55.65 77.6 55.3 77.2 53.75 74.75 51.15 71.1 Q46.9 65.75 41.45 62.0 L37.5 59.6 Q28.35 54.6 16.35 53.55 L15.95 53.35 M54.3 61.95 L53.1 62.45 51.0 57.05 Q52.25 59.6 53.9 61.8 L54.3 61.95" fill="#645238" fill-rule="evenodd" stroke="none"/>
      <path d="M15.0 53.85 Q15.55 53.55 16.35 53.55 28.35 54.6 37.5 59.6 L41.45 62.0 Q46.9 65.75 51.15 71.1 L53.75 74.75 52.05 76.0 47.3 79.4 Q51.6 74.75 44.8 66.4 41.45 63.45 37.45 61.15 28.15 55.8 15.0 53.85" fill="#271c0f" fill-rule="evenodd" stroke="none"/>
      <path d="M52.1 34.65 L52.2 34.7 Q53.7 36.0 53.8 39.55 47.05 41.0 40.6 39.05 L41.95 37.95 44.95 34.65 48.8 34.9 49.1 37.95 Q50.8 36.45 52.1 34.65 M53.9 39.6 L53.8 39.55 53.95 39.55 53.9 39.6 M30.9 34.0 Q32.45 32.9 33.45 31.2 L33.95 31.5 36.9 37.55 Q33.85 36.15 30.9 34.0 M30.4 33.6 L29.9 33.2 30.4 33.0 29.9 33.2 28.25 31.8 Q28.15 29.8 28.8 27.2 30.15 30.1 30.4 33.0 L30.4 33.6" fill="#7d6239" fill-rule="evenodd" stroke="none"/>
      <path d="M25.95 45.3 L25.0 44.4 Q26.15 42.15 29.05 41.8 28.4 40.8 26.9 39.95 28.35 38.15 29.85 37.45 L29.95 37.4 Q33.05 40.9 37.85 43.05 42.35 45.0 48.4 45.8 51.3 46.05 53.85 45.8 55.6 52.4 52.95 55.15 51.1 54.9 51.5 52.5 L50.05 54.6 Q49.35 52.3 49.4 50.05 46.0 49.25 43.45 50.5 41.45 48.7 41.55 47.15 40.25 48.35 40.05 50.65 L39.1 49.7 37.75 48.2 Q35.6 45.55 34.05 42.3 30.25 44.0 28.6 47.15 L25.75 45.05 25.95 45.3" fill="#c9cccc" fill-rule="evenodd" stroke="none"/>
      <path d="M34.25 64.3 Q32.0 62.4 28.35 60.65 32.65 62.2 37.05 64.15 L40.3 66.4 34.25 64.3" fill="#574223" fill-rule="evenodd" stroke="none"/>
      <path d="M52.05 76.0 L53.75 74.75 55.3 77.2 55.65 77.6 56.4 78.2 55.0 79.45 Q52.85 78.35 52.05 76.0" fill="#181009" fill-rule="evenodd" stroke="none"/>
      <path d="M47.3 79.4 L52.05 76.0 Q52.85 78.35 55.0 79.45 L53.8 80.45 Q45.45 87.25 37.95 91.35 L36.8 91.95 Q33.45 93.3 28.9 93.35 L28.95 92.25 Q22.25 92.0 19.15 88.65 11.85 88.8 2.5 81.1 2.0 79.45 2.1 77.65 L6.1 81.25 Q14.95 86.9 18.75 85.3 19.15 87.5 22.5 89.0 L34.5 88.6 47.3 79.4" fill="#271a0f" fill-rule="evenodd" stroke="none"/>
      <path d="M2.5 81.1 Q11.85 88.8 19.15 88.65 22.25 92.0 28.95 92.25 L28.9 93.35 Q23.35 93.35 16.05 91.2 4.4 87.8 2.5 81.1" fill="#403018" fill-rule="evenodd" stroke="none"/>
      <path d="M68.85 35.05 L67.4 36.35 67.9 38.5 Q69.2 42.55 71.65 45.4 L69.0 45.2 69.05 45.35 70.15 48.3 70.75 49.5 72.95 52.7 74.7 54.45 75.1 54.75 70.4 55.0 Q70.95 57.9 71.0 60.65 71.0 65.15 69.45 69.4 L68.2 72.2 67.85 73.0 69.75 73.25 Q68.8 74.8 67.5 75.0 L69.6 75.15 71.75 75.3 72.55 75.4 M62.55 64.7 L62.25 66.3 M62.3 66.1 Q61.45 68.05 59.45 69.15 L59.75 69.35 Q62.0 71.0 64.45 71.95 L67.85 73.0 M14.95 53.1 L15.85 53.3 15.95 53.35 M66.2 78.25 Q68.75 77.2 71.75 75.3 M16.15 46.15 Q16.25 47.6 17.2 49.2 M25.95 45.3 L25.0 44.4 Q20.95 40.9 18.9 36.6 14.25 41.2 16.15 46.15 L15.25 45.8 M14.25 53.0 L14.95 53.1 M4.9 54.85 Q10.1 55.75 11.5 57.6 12.3 57.15 13.3 57.1 L13.6 55.75 Q14.0 54.3 15.0 53.85 15.55 53.55 16.35 53.55 L15.95 53.35 M13.15 52.6 L14.25 53.0 M9.95 59.0 L9.8 59.15 M28.35 60.65 Q20.8 58.05 13.3 57.1 M11.5 57.6 Q10.7 58.05 10.05 58.9 L9.95 59.0 7.5 60.5 8.6 61.55 Q9.1 60.1 9.8 59.15 M8.6 61.55 L8.4 62.05 7.75 62.9 Q3.85 67.2 0.05 67.9 L0.05 70.45 Q-0.1 72.05 0.45 73.9 M37.05 64.15 Q32.65 62.2 28.35 60.65 M13.15 52.6 Q8.75 52.05 4.9 54.85 M15.45 45.9 Q11.1 43.95 8.3 40.9 6.5 50.0 13.15 52.6 M52.1 34.65 L52.2 34.7 54.5 34.25 56.85 33.45 57.0 33.45 M62.95 30.35 L61.95 31.0 60.65 31.75 M48.8 34.9 L44.95 34.65 M53.95 39.55 Q55.25 37.25 54.5 34.25 M53.95 39.55 L53.9 39.6 Q52.25 42.15 48.05 43.8 L55.05 43.15 Q56.95 42.7 61.0 40.9 L63.3 39.55 63.5 39.4 64.8 37.35 65.25 36.0 65.4 34.4 Q65.3 32.9 64.45 31.3 M63.5 39.4 L65.4 38.05 65.7 37.85 67.4 36.35 M33.45 31.2 L33.95 31.5 M30.4 33.0 L29.9 33.2 M28.25 31.8 L28.55 33.65 29.9 33.2 M29.95 37.4 L29.85 37.45 Q28.35 38.15 26.9 39.95 28.4 40.8 29.05 41.8 26.15 42.15 25.0 44.4 M28.55 33.65 Q28.9 34.85 29.65 35.8 L30.2 36.5 30.8 37.1 Q32.3 38.85 34.3 40.15 L37.4 38.9 M30.8 37.1 L29.95 37.4 M28.8 27.2 Q28.15 29.8 28.25 31.8 M34.3 40.15 Q35.9 41.2 37.85 42.0 L41.85 43.1 45.5 43.5 48.05 43.8 M39.1 49.7 L37.75 48.2 Q35.6 45.55 34.05 42.3 30.25 44.0 28.6 47.15 M39.1 49.7 L40.05 50.65 41.5 51.85 41.65 51.75 43.45 50.5 Q46.0 49.25 49.4 50.05 49.35 52.3 50.05 54.6 M25.75 45.05 L28.6 47.15 M53.75 74.75 L51.15 71.1 Q46.9 65.75 41.45 62.0 L37.5 59.6 Q28.35 54.6 16.35 53.55 M51.0 57.05 L50.55 56.15 50.5 55.85 50.45 55.7 50.05 54.6 M54.3 61.95 L53.9 61.8 Q52.25 59.6 51.0 57.05 M54.3 61.95 Q58.4 63.3 61.8 61.4 62.6 63.2 62.55 64.7 M47.3 79.4 L52.05 76.0 53.75 74.75 55.3 77.2 55.65 77.6 56.4 78.2 Q57.4 78.85 58.5 79.2 L59.6 79.35 Q62.45 79.75 66.2 78.25 M53.8 80.45 L55.0 79.45 M60.05 81.1 L60.7 81.15 59.6 79.35 M53.8 80.45 L60.05 81.1 M56.4 78.2 L55.0 79.45 M33.95 77.6 Q27.45 79.8 21.6 77.35 M0.6 74.4 L2.1 77.65 6.1 81.25 Q14.95 86.9 18.75 85.3 L18.7 84.15 M28.9 93.35 Q33.45 93.3 36.8 91.95 L37.95 91.35 Q45.45 87.25 53.8 80.45 M28.9 93.35 Q23.35 93.35 16.05 91.2 4.4 87.8 2.5 81.1 2.0 79.45 2.1 77.65 M18.75 85.3 Q19.15 87.5 22.5 89.0 L34.5 88.6 47.3 79.4 M62.3 75.1 Q64.55 75.95 67.5 75.0" fill="none" stroke="#000000" stroke-linecap="round" stroke-linejoin="round" stroke-opacity="0.3019608" stroke-width="0.5"/>
      <path d="M70.25 9.9 L71.7 10.3 72.3 10.5 Q74.15 13.05 72.65 15.45 71.75 16.85 69.65 18.25 L66.4 16.45 67.4 17.65 67.8 18.1 68.3 19.05 65.95 20.25 65.6 20.4 65.35 20.5 57.6 22.15 Q54.2 22.3 53.0 21.3 52.2 20.55 52.45 19.25 L51.2 22.65 Q44.7 22.8 37.75 21.55 34.15 21.6 37.9 31.35 28.35 22.8 31.15 20.05 L29.05 19.5 Q28.3 19.5 27.9 20.15 27.6 20.55 27.45 21.2 L27.5 19.0 26.75 18.8 Q22.1 20.6 21.3 27.8 21.0 26.35 21.0 24.8 L20.95 23.7 21.05 23.0 21.0 22.7 Q20.55 19.65 22.4 18.05 19.6 18.5 16.55 21.6 L15.8 22.45 16.0 22.1 16.95 20.4 18.65 17.9 19.25 17.2 19.95 16.3 Q21.3 14.7 22.85 14.35 20.75 14.7 20.1 12.6 17.4 14.85 12.25 15.8 L12.0 15.85 Q18.2 8.05 28.2 5.9 L31.05 5.45 33.3 5.25 29.45 2.7 Q36.95 1.0 43.95 2.4 50.0 4.1 52.5 6.9 L53.0 7.55 52.85 5.7 52.6 3.55 Q52.1 1.85 50.95 0.0 L51.9 0.15 53.45 0.9 Q58.95 3.7 62.0 8.6 L62.9 6.9 Q67.05 3.85 72.15 3.75 68.55 5.4 67.95 8.75 L67.9 9.05 70.25 9.9 M66.55 13.85 L66.6 13.7 Q65.8 11.9 63.2 10.7 L62.35 10.35 62.25 10.3 Q58.95 8.95 53.3 8.5 L52.75 8.5 51.8 8.4 47.4 8.25 44.85 8.2 44.35 8.2 Q32.05 9.2 27.7 10.95 25.15 11.9 25.75 13.05 26.65 13.55 28.05 13.9 32.45 15.15 41.65 15.9 L41.95 15.9 47.25 16.2 53.1 16.5 62.3 15.95 64.65 15.3 66.6 13.95 66.55 13.85 M34.0 5.2 L33.3 5.25 34.0 5.2" fill="#c9cccc" fill-rule="evenodd" stroke="none"/>
      <path d="M25.75 13.05 Q25.55 12.05 28.1 11.25 32.35 9.9 44.55 9.1 L45.0 9.15 47.55 9.15 Q47.4 14.5 41.95 15.9 L41.65 15.9 Q32.45 15.15 28.05 13.9 26.65 13.55 25.75 13.05" fill="#584730" fill-rule="evenodd" stroke="none"/>
      <path d="M47.55 9.15 L53.25 9.4 Q59.0 9.9 62.4 11.1 65.45 12.2 66.55 13.85 L66.6 13.95 64.65 15.3 62.3 15.95 53.1 16.5 47.25 16.2 41.95 15.9 Q47.4 14.5 47.55 9.15" fill="#392c1e" fill-rule="evenodd" stroke="none"/>
      <path d="M72.15 3.75 L73.6 3.8 Q71.2 5.6 70.5 8.45 L70.25 9.9 67.9 9.05 67.95 8.75 Q68.55 5.4 72.15 3.75 M72.3 10.5 Q77.3 12.15 80.45 16.15 82.55 18.75 83.9 22.35 80.3 18.85 76.3 17.5 74.8 16.95 73.25 16.75 L73.7 18.7 73.85 19.3 76.15 30.8 76.05 30.7 74.3 27.0 Q71.85 22.4 68.75 19.95 L68.3 19.05 68.75 19.95 Q70.0 22.4 70.75 24.9 L71.6 28.7 71.8 30.45 Q72.0 33.05 71.75 35.55 L71.35 38.0 68.95 35.15 68.85 35.05 Q66.8 32.9 64.45 31.3 63.75 30.75 62.95 30.35 L60.05 28.9 60.1 29.05 60.65 31.75 60.8 33.25 Q60.95 35.0 60.7 36.5 L60.1 38.9 Q58.9 35.85 57.0 33.45 L56.7 33.1 56.05 32.35 56.45 29.5 56.2 26.55 55.85 27.7 54.55 30.7 54.5 30.8 52.75 33.8 52.1 34.65 Q50.8 36.45 49.1 37.95 L48.55 32.75 49.7 29.95 50.3 27.85 50.75 24.75 49.6 27.3 48.25 29.75 Q46.7 32.5 44.95 34.65 L41.95 37.95 38.1 40.7 37.4 38.9 Q35.95 35.15 33.95 31.5 L33.6 30.9 31.75 27.7 32.0 30.0 Q32.0 32.45 30.65 34.15 L30.4 34.3 30.4 33.0 Q30.15 30.1 28.8 27.2 L28.3 26.1 28.2 26.5 28.05 27.2 27.7 29.2 Q26.95 33.55 26.9 37.4 26.35 37.35 25.8 36.75 22.55 33.2 21.5 28.9 L21.3 29.0 Q16.15 30.7 12.4 35.6 L12.35 35.65 Q12.7 32.1 13.45 29.05 L15.4 23.25 15.6 22.95 15.7 22.75 15.8 22.45 16.55 21.6 Q19.6 18.5 22.4 18.05 20.55 19.65 21.0 22.7 L21.05 23.0 20.95 23.7 21.0 24.8 Q21.0 26.35 21.3 27.8 22.1 20.6 26.75 18.8 L27.5 19.0 27.45 21.2 Q27.6 20.55 27.9 20.15 28.3 19.5 29.05 19.5 L31.15 20.05 Q28.35 22.8 37.9 31.35 34.15 21.6 37.75 21.55 44.7 22.8 51.2 22.65 L52.45 19.25 Q52.2 20.55 53.0 21.3 54.2 22.3 57.6 22.15 L65.35 20.5 65.6 20.4 65.95 20.25 68.3 19.05 67.8 18.1 67.4 17.65 66.4 16.45 69.65 18.25 Q71.75 16.85 72.65 15.45 74.15 13.05 72.3 10.5 M19.25 17.2 L12.0 15.85 12.25 15.8 Q17.4 14.85 20.1 12.6 20.75 14.7 22.85 14.35 21.3 14.7 19.95 16.3 L19.25 17.2 M43.95 2.4 Q48.05 3.25 51.95 5.2 L52.85 5.7 53.0 7.55 52.5 6.9 Q50.0 4.1 43.95 2.4 M51.9 0.15 L53.45 0.5 Q58.75 2.0 62.5 6.5 L62.9 6.9 62.0 8.6 Q58.95 3.7 53.45 0.9 L51.9 0.15 M25.75 13.05 Q25.15 11.9 27.7 10.95 32.05 9.2 44.35 8.2 L44.85 8.2 47.4 8.25 51.8 8.4 52.75 8.5 53.3 8.5 Q58.95 8.95 62.25 10.3 L62.35 10.35 63.2 10.7 Q65.8 11.9 66.6 13.7 L66.55 13.85 Q65.45 12.2 62.4 11.1 59.0 9.9 53.25 9.4 L47.55 9.15 45.0 9.15 44.55 9.1 Q32.35 9.9 28.1 11.25 25.55 12.05 25.75 13.05 M56.4 25.9 L56.2 26.55 56.4 25.9 M27.8 24.85 L28.3 26.1 27.8 24.85 M31.75 27.7 L30.1 25.15 31.75 27.7 M21.5 28.9 L21.3 27.8 21.5 28.9" fill="#a5aeae" fill-rule="evenodd" stroke="none"/>
      <path d="M83.9 22.35 Q82.1 21.2 80.35 20.5 L79.15 20.1 Q76.55 19.2 73.85 19.3 L73.7 18.7 73.25 16.75 Q74.8 16.95 76.3 17.5 80.3 18.85 83.9 22.35 M76.05 30.7 L74.9 28.9 74.6 28.6 Q73.0 26.55 70.75 24.9 70.0 22.4 68.75 19.95 71.85 22.4 74.3 27.0 L76.05 30.7 M54.5 30.8 L54.55 30.7 55.85 27.7 56.2 26.55 56.45 29.5 56.05 32.35 55.55 31.85 55.15 31.4 54.5 30.8 M50.75 24.75 L50.3 27.85 49.7 29.95 48.55 32.75 48.25 29.75 49.6 27.3 50.75 24.75 M33.6 30.9 L33.45 31.2 33.0 31.8 Q32.05 33.25 30.65 34.15 32.0 32.45 32.0 30.0 L31.75 27.7 33.6 30.9" fill="#939f9f" fill-rule="evenodd" stroke="none"/>
      <path d="M68.95 35.15 L67.6 36.3 68.25 38.8 64.4 35.5 62.85 34.45 60.8 33.25 60.65 31.75 60.1 29.05 60.05 28.9 62.95 30.35 Q63.75 30.75 64.45 31.3 66.8 32.9 68.85 35.05 L68.95 35.15 M60.7 36.5 Q61.05 40.0 60.0 42.8 58.85 39.65 56.95 37.1 L56.65 36.75 55.95 35.85 55.1 34.9 54.45 34.25 52.7 37.15 52.0 37.9 Q50.7 39.65 49.05 41.0 L48.15 32.75 44.9 37.45 41.9 40.45 Q40.05 41.95 38.05 42.95 L37.35 41.1 Q35.9 37.2 33.95 33.45 L33.55 32.8 33.4 33.15 Q32.3 34.85 30.65 35.85 L30.35 36.0 30.35 34.65 Q30.1 31.75 28.75 28.7 L28.25 27.65 28.05 27.2 28.2 26.5 28.3 26.1 28.8 27.2 Q30.15 30.1 30.4 33.0 L30.4 34.3 30.65 34.15 Q32.05 33.25 33.0 31.8 L33.45 31.2 33.6 30.9 33.95 31.5 Q35.95 35.15 37.4 38.9 L38.1 40.7 41.95 37.95 44.95 34.65 Q46.7 32.5 48.25 29.75 L48.55 32.75 49.1 37.95 Q50.8 36.45 52.1 34.65 L52.75 33.8 54.5 30.8 55.15 31.4 55.55 31.85 56.05 32.35 56.7 33.1 57.0 33.45 Q58.9 35.85 60.1 38.9 L60.7 36.5" fill="#000000" fill-opacity="0.3019608" fill-rule="evenodd" stroke="none"/>
      <path d="M72.15 3.75 L73.6 3.8 Q71.2 5.6 70.5 8.45 L70.25 9.9 71.7 10.3 72.3 10.5 Q77.3 12.15 80.45 16.15 82.55 18.75 83.9 22.35 82.1 21.2 80.35 20.5 L79.15 20.1 Q76.55 19.2 73.85 19.3 L76.15 30.8 76.05 30.7 74.9 28.9 74.6 28.6 Q73.0 26.55 70.75 24.9 L71.6 28.7 71.8 30.45 Q72.0 33.05 71.75 35.55 L71.35 38.0 68.95 35.15 68.85 35.05 Q66.8 32.9 64.45 31.3 63.75 30.75 62.95 30.35 L60.05 28.9 60.1 29.05 60.65 31.75 60.8 33.25 Q60.95 35.0 60.7 36.5 M28.05 27.2 L27.7 29.2 Q26.95 33.55 26.9 37.4 26.35 37.35 25.8 36.75 22.55 33.2 21.5 28.9 L21.3 29.0 Q16.15 30.7 12.4 35.6 L12.35 35.65 Q12.7 32.1 13.45 29.05 L15.4 23.25 15.6 22.95 15.7 22.75 M15.8 22.45 L16.0 22.1 16.95 20.4 18.65 17.9 19.25 17.2 12.0 15.85 Q18.2 8.05 28.2 5.9 L31.05 5.45 33.3 5.25 29.45 2.7 Q36.95 1.0 43.95 2.4 48.05 3.25 51.95 5.2 L52.85 5.7 52.6 3.55 Q52.1 1.85 50.95 0.0 L51.9 0.15 53.45 0.5 Q58.75 2.0 62.5 6.5 L62.9 6.9 Q67.05 3.85 72.15 3.75 M25.75 13.05 Q25.55 12.05 28.1 11.25 32.35 9.9 44.55 9.1 L45.0 9.15 47.55 9.15 53.25 9.4 Q59.0 9.9 62.4 11.1 65.45 12.2 66.55 13.85 L66.6 13.95 64.65 15.3 62.3 15.95 53.1 16.5 47.25 16.2 41.95 15.9 M41.65 15.9 Q32.45 15.15 28.05 13.9 26.65 13.55 25.75 13.05 M67.4 17.65 L67.8 18.1 68.3 19.05 68.75 19.95 Q70.0 22.4 70.75 24.9 M56.2 26.55 L55.85 27.7 54.55 30.7 54.5 30.8 55.15 31.4 55.55 31.85 56.05 32.35 56.7 33.1 57.0 33.45 Q58.9 35.85 60.1 38.9 L60.7 36.5 M56.2 26.55 L56.4 25.9 M48.55 32.75 L49.1 37.95 Q50.8 36.45 52.1 34.65 L52.75 33.8 54.5 30.8 M48.25 29.75 L49.6 27.3 50.75 24.75 M30.65 34.15 Q32.05 33.25 33.0 31.8 L33.45 31.2 33.6 30.9 31.75 27.7 M30.65 34.15 L30.4 34.3 30.4 33.0 Q30.15 30.1 28.8 27.2 L28.3 26.1 28.2 26.5 M33.6 30.9 L33.95 31.5 Q35.95 35.15 37.4 38.9 L38.1 40.7 41.95 37.95 44.95 34.65 Q46.7 32.5 48.25 29.75 L48.55 32.75 M73.85 19.3 L73.7 18.7 M33.3 5.25 L34.0 5.2 M19.95 16.3 L19.25 17.2 M21.0 22.7 L21.05 23.0 20.95 23.7 21.0 24.8 Q21.0 26.35 21.3 27.8 L21.5 28.9 M30.1 25.15 L31.75 27.7 M28.3 26.1 L27.8 24.85" fill="none" stroke="#000000" stroke-linecap="round" stroke-linejoin="round" stroke-opacity="0.3019608" stroke-width="0.5"/>
    </g>
    <g id="shape2" transform="matrix(1.0, 0.0, 0.0, 1.0, -10.75, -7.15)">
      <path d="M26.0 8.25 Q27.65 8.75 28.7 10.1 29.4 10.95 29.8 12.15 L28.65 11.55 28.25 11.4 26.5 11.15 27.25 14.95 27.2 14.9 26.85 14.3 26.75 14.2 Q26.2 13.55 25.45 13.0 L25.75 14.25 25.8 14.85 25.8 16.5 25.65 17.35 24.85 16.4 24.45 16.75 24.65 17.6 24.55 17.5 Q24.95 18.85 25.75 19.8 L24.9 19.7 24.9 19.75 25.25 20.75 25.45 21.15 26.2 22.2 26.8 22.8 26.9 22.9 25.35 22.95 25.55 24.85 Q25.55 26.35 25.05 27.75 L24.6 28.65 24.5 28.95 25.15 29.0 24.4 29.6 25.8 29.7 23.95 30.65 21.8 31.05 22.15 31.6 19.85 31.4 Q17.1 33.65 14.6 35.0 L14.25 35.2 12.25 35.65 11.7 34.6 Q11.5 34.1 11.55 33.45 L11.0 32.4 10.95 32.25 10.75 31.1 10.75 30.25 Q12.05 29.9 13.35 28.4 L13.6 28.1 13.65 27.9 13.25 27.6 14.15 27.0 14.65 26.5 Q14.15 25.9 12.3 25.75 13.65 24.7 15.15 24.8 12.85 24.05 13.4 20.95 14.4 21.9 15.9 22.5 L15.85 22.45 16.15 22.55 Q15.45 20.95 17.05 19.3 17.8 20.7 19.2 21.8 19.6 21.0 20.6 20.85 L19.85 20.25 20.85 19.35 20.9 19.35 21.2 19.2 20.95 19.0 20.75 18.8 20.35 18.1 20.25 17.5 20.35 16.25 20.2 16.1 20.15 15.95 20.05 16.6 19.8 19.4 19.45 19.2 Q18.3 18.1 17.9 16.65 L17.8 16.7 Q16.05 17.35 14.8 19.1 L14.75 19.1 Q14.85 17.9 15.1 16.85 L15.75 14.85 15.8 14.75 15.85 14.7 15.85 14.6 15.95 14.5 16.25 13.9 16.85 13.0 17.0 12.75 14.5 12.45 Q16.6 9.7 20.05 8.75 L21.05 8.55 21.8 8.45 20.45 7.65 25.45 7.25 25.4 7.55 25.3 8.05 25.8 8.15 26.0 8.25" fill="#000000" fill-opacity="0.3019608" fill-rule="evenodd" stroke="none"/>
      <path d="M18.4 24.3 Q17.7 22.65 19.3 21.05 20.05 22.4 21.45 23.5 L21.8 23.8 Q19.85 23.05 19.05 22.1 18.35 23.0 18.8 25.3 18.45 24.8 18.4 24.3 M22.75 24.35 Q23.3 23.25 24.6 22.6 L25.9 24.5 26.4 25.0 25.9 24.75 Q24.85 24.1 24.3 23.15 L22.75 24.35 M14.55 27.45 Q15.9 26.45 17.4 26.5 15.1 25.8 15.65 22.7 16.65 23.65 18.15 24.2 16.9 24.3 16.0 23.55 16.05 25.15 17.8 26.6 L18.05 26.65 Q16.0 26.8 14.55 27.45 M17.8 26.6 L17.4 26.5 17.8 26.6" fill="#dbceba" fill-rule="evenodd" stroke="none"/>
      <path d="M21.45 23.5 Q21.85 22.7 22.85 22.55 L22.1 21.95 23.1 21.1 23.15 21.05 Q24.25 22.15 25.9 22.8 27.5 23.35 29.6 23.5 L31.5 23.35 Q32.15 25.55 31.25 26.5 30.6 26.45 30.7 25.7 L30.2 26.4 29.95 24.9 27.9 25.15 Q27.2 24.6 27.2 24.1 26.8 24.5 26.75 25.3 L26.4 25.0 25.9 24.5 24.6 22.6 Q23.3 23.25 22.75 24.35 L21.75 23.75 21.8 23.8 21.45 23.5" fill="#fcffff" fill-rule="evenodd" stroke="none"/>
      <path d="M23.2 39.9 L18.7 39.45 Q14.65 38.55 13.95 36.35 17.25 38.75 19.75 38.55 20.85 39.6 23.2 39.5 L23.2 39.9" fill="#513c1e" fill-rule="evenodd" stroke="none"/>
      <path d="M16.4 28.75 L16.4 28.7 16.9 28.25 Q17.15 28.1 17.5 28.05 L22.75 28.9 Q24.05 29.4 24.8 30.0 20.6 29.0 16.3 28.8 L16.4 28.75 M13.2 33.95 L13.0 32.8 13.0 31.95 Q14.3 31.65 15.6 30.1 20.75 29.95 25.7 31.0 L25.9 31.45 Q26.1 32.0 25.9 32.65 L24.8 34.45 20.55 34.65 Q18.25 35.9 13.5 32.2 13.0 32.8 13.2 33.95" fill="#7c5c2e" fill-rule="evenodd" stroke="none"/>
      <path d="M23.45 19.9 L24.3 18.9 24.5 19.0 25.55 20.95 23.45 19.9 M26.85 21.35 L27.3 21.0 28.3 19.8 29.65 19.8 29.75 20.85 30.8 19.65 Q31.35 20.05 31.4 21.25 L31.45 21.25 31.45 21.3 31.4 21.25 26.85 21.35 M23.25 19.75 L23.1 19.65 23.25 19.55 23.1 19.65 22.5 19.2 22.65 17.65 Q23.15 18.6 23.25 19.55 L23.25 19.75" fill="#9d7b48" fill-rule="evenodd" stroke="none"/>
      <path d="M36.5 32.2 L37.2 32.25 36.4 32.9 34.6 33.05 Q34.85 33.5 35.95 33.45 36.8 33.35 37.15 32.9 L37.9 32.9 36.0 34.0 Q33.85 34.45 32.85 33.0 L32.8 32.9 Q31.1 29.4 26.4 27.35 L25.9 27.25 Q22.15 26.25 18.4 26.7 L18.35 26.7 18.05 26.65 18.35 26.7 18.4 26.7 18.55 26.8 18.05 26.9 Q17.75 27.05 17.6 27.55 L17.5 28.05 Q17.15 28.1 16.9 28.25 16.4 27.65 14.55 27.45 16.0 26.8 18.05 26.65 L17.8 26.6 Q16.05 25.15 16.0 23.55 16.9 24.3 18.15 24.2 L18.1 24.2 18.4 24.3 Q18.45 24.8 18.8 25.3 18.35 23.0 19.05 22.1 19.85 23.05 21.8 23.8 L21.75 23.75 22.75 24.35 24.3 23.15 Q24.85 24.1 25.9 24.75 L26.4 25.0 26.75 25.3 27.25 25.65 27.3 25.6 27.9 25.15 29.95 24.9 30.2 26.4 30.35 26.75 30.35 26.8 31.35 29.0 31.75 28.8 Q33.15 29.15 34.35 28.45 L34.65 29.5 34.55 30.1 34.55 30.0 Q33.65 30.95 32.55 30.6 L33.65 31.15 33.7 31.15 Q34.5 31.65 35.35 31.95 L36.5 32.2 M16.4 28.75 L16.3 28.8 15.9 29.65 15.5 29.3 16.4 28.75 M33.7 34.55 L34.1 35.1 33.9 35.1 33.35 34.5 33.7 34.55" fill="#ae936a" fill-rule="evenodd" stroke="none"/>
      <path d="M36.4 32.9 L37.15 32.9 Q36.8 33.35 35.95 33.45 34.85 33.5 34.6 33.05 L36.4 32.9 M18.4 26.7 Q22.15 26.25 25.9 27.25 L26.4 27.35 Q31.1 29.4 32.8 32.9 L32.85 33.0 Q33.85 34.45 36.0 34.0 34.7 34.6 33.7 34.55 L33.35 34.5 32.6 34.2 33.35 34.5 33.9 35.1 31.7 35.0 32.1 34.65 32.6 34.2 32.3 34.05 32.2 33.9 31.65 33.1 30.7 31.95 Q29.2 30.2 27.3 29.05 L25.9 28.35 Q22.7 26.85 18.55 26.8 L18.4 26.7 M34.55 30.0 L33.6 31.1 33.65 31.15 32.55 30.6 Q33.65 30.95 34.55 30.0 M30.35 26.8 L30.4 26.9 31.6 28.75 31.75 28.8 31.35 29.0 30.35 26.8" fill="#7d6746" fill-rule="evenodd" stroke="none"/>
      <path d="M19.6 37.4 Q18.3 38.0 15.2 36.3 L13.8 35.2 13.25 34.15 13.2 33.95 Q13.0 32.8 13.5 32.2 18.25 35.9 20.55 34.65 L24.8 34.45 25.9 32.65 Q26.1 32.0 25.9 31.45 L25.7 31.0 24.8 30.0 26.95 30.6 25.8 29.9 22.75 28.9 Q20.75 28.15 17.6 27.55 17.75 27.05 18.05 26.9 22.65 27.25 25.9 28.9 27.3 29.55 28.5 30.5 30.9 33.15 29.45 34.8 L25.1 38.15 20.95 38.6 Q19.75 38.15 19.6 37.4 L19.55 37.0 19.6 37.4" fill="#503c1f" fill-rule="evenodd" stroke="none"/>
      <path d="M13.8 35.2 L15.2 36.3 Q18.3 38.0 19.6 37.4 19.75 38.15 20.95 38.6 L25.1 38.15 29.45 34.8 31.05 33.55 Q31.35 34.3 32.1 34.65 L31.7 35.0 Q28.85 37.5 26.3 39.05 L25.9 39.25 23.2 39.9 23.2 39.5 Q20.85 39.6 19.75 38.55 17.25 38.75 13.95 36.35 L13.8 35.2" fill="#312113" fill-rule="evenodd" stroke="none"/>
      <path d="M31.65 33.1 L32.2 33.9 32.3 34.05 32.6 34.2 32.1 34.65 Q31.35 34.3 31.05 33.55 L31.65 33.1" fill="#1f150c" fill-rule="evenodd" stroke="none"/>
      <path d="M31.65 33.1 L31.05 33.55 29.45 34.8 Q30.9 33.15 28.5 30.5 27.3 29.55 25.9 28.9 22.65 27.25 18.05 26.9 L18.55 26.8 Q22.7 26.85 25.9 28.35 L27.3 29.05 Q29.2 30.2 30.7 31.95 L31.65 33.1" fill="#312413" fill-rule="evenodd" stroke="none"/>
      <path d="M16.3 28.8 Q20.6 29.0 24.8 30.0 L25.7 31.0 Q20.75 29.95 15.6 30.1 L15.85 29.8 15.9 29.65 16.3 28.8 M22.75 28.9 L17.5 28.05 17.6 27.55 Q20.75 28.15 22.75 28.9" fill="#634925" fill-rule="evenodd" stroke="none"/>
      <path d="M24.8 30.0 Q24.05 29.4 22.75 28.9 L25.8 29.9 26.95 30.6 24.8 30.0" fill="#6d532c" fill-rule="evenodd" stroke="none"/>
      <path d="M28.3 19.8 L29.4 18.1 29.65 19.8 28.3 19.8 M30.8 19.65 L31.6 18.3 31.8 18.5 32.35 19.05 32.45 19.15 32.4 19.15 31.6 19.45 30.8 19.65 M33.75 18.5 L33.5 17.6 33.5 17.55 34.5 18.0 34.2 18.2 33.75 18.5 M36.1 19.9 L36.3 20.6 Q34.65 22.9 31.5 23.35 L29.6 23.5 Q27.5 23.35 25.9 22.8 24.25 22.15 23.15 21.05 L23.45 20.95 24.65 21.9 25.9 22.4 27.3 22.7 28.55 22.8 29.45 22.8 31.9 22.45 33.9 21.55 34.7 21.05 34.75 21.0 35.4 20.5 35.5 20.45 36.1 19.9 M37.6 22.85 L36.7 22.85 35.9 22.05 37.6 22.85 M38.15 25.3 L38.75 25.85 38.9 25.95 37.25 26.1 37.5 28.0 Q37.55 29.5 37.05 30.95 L36.65 31.95 36.5 32.2 35.35 31.95 Q34.5 31.65 33.7 31.15 L33.65 31.15 33.6 31.1 34.55 30.0 34.55 30.1 34.65 29.5 Q35.1 29.85 35.6 29.5 35.55 30.45 34.7 30.85 37.15 31.35 36.9 27.8 L36.9 27.65 36.0 23.45 Q36.55 25.0 38.15 25.3" fill="#b8c7c7" fill-rule="evenodd" stroke="none"/>
      <path d="M36.3 20.6 Q36.75 21.95 37.6 22.85 L35.9 22.05 36.7 22.85 36.75 22.9 37.15 23.85 37.35 24.25 38.15 25.3 Q36.55 25.0 36.0 23.45 L36.9 27.65 36.9 27.8 Q37.15 31.35 34.7 30.85 35.55 30.45 35.6 29.5 35.1 29.85 34.65 29.5 L34.35 28.45 Q33.15 29.15 31.75 28.8 L31.6 28.75 30.4 26.9 30.35 26.8 30.35 26.75 30.2 26.4 30.7 25.7 Q30.6 26.45 31.25 26.5 32.15 25.55 31.5 23.35 34.65 22.9 36.3 20.6 M26.75 25.3 Q26.8 24.5 27.2 24.1 27.2 24.6 27.9 25.15 L27.3 25.6 27.25 25.65 26.75 25.3" fill="#cfdada" fill-rule="evenodd" stroke="none"/>
      <path d="M23.25 19.75 L23.25 20.0 23.45 19.9 25.55 20.95 25.75 21.4 25.9 21.8 26.0 22.0 26.85 21.35 31.4 21.25 31.45 21.3 Q30.9 22.15 29.45 22.8 30.9 22.15 31.45 21.3 L31.45 21.25 31.4 21.25 Q31.35 20.05 30.8 19.65 L31.6 19.45 32.4 19.15 32.45 19.15 33.4 20.5 33.6 20.9 33.75 20.3 33.75 18.5 34.2 18.2 34.5 18.0 35.05 18.25 35.95 18.85 36.6 19.4 36.1 19.9 35.5 20.45 35.4 20.5 34.75 21.0 35.2 20.3 35.35 19.85 35.4 19.3 35.05 18.25 35.4 19.3 35.35 19.85 35.2 20.3 34.75 21.0 34.7 21.05 33.9 21.55 31.9 22.45 29.45 22.8 28.55 22.8 27.3 22.7 25.9 22.4 24.65 21.9 23.45 20.95 23.2 20.75 23.0 20.5 22.6 19.85 22.5 19.2 23.1 19.65 22.6 19.85 23.1 19.65 23.25 19.75 M25.75 21.4 L24.65 21.9 25.75 21.4 M31.6 19.45 Q31.9 20.45 31.45 21.25 31.9 20.45 31.6 19.45" fill="#80643c" fill-rule="evenodd" stroke="none"/>
      <path d="M24.3 18.9 L24.5 19.0 M36.6 19.4 L36.1 19.9 36.3 20.6 Q36.75 21.95 37.6 22.85 L36.7 22.85 36.75 22.9 37.15 23.85 37.35 24.25 38.15 25.3 38.75 25.85 38.9 25.95 37.25 26.1 37.5 28.0 Q37.55 29.5 37.05 30.95 L36.65 31.95 36.5 32.2 37.2 32.25 36.4 32.9 37.15 32.9 37.9 32.9 38.15 32.9 M23.25 19.55 L23.1 19.65 M22.5 19.2 L22.6 19.85 23.1 19.65 M22.6 19.85 L23.0 20.5 23.2 20.75 23.45 20.95 24.65 21.9 25.75 21.4 M22.65 17.65 L22.5 19.2 M18.1 24.2 L18.4 24.3 Q17.7 22.65 19.3 21.05 20.05 22.4 21.45 23.5 21.85 22.7 22.85 22.55 L22.1 21.95 23.1 21.1 23.15 21.05 23.45 20.95 M21.45 23.5 L21.8 23.8 M21.75 23.75 L22.75 24.35 Q23.3 23.25 24.6 22.6 L25.9 24.5 26.4 25.0 26.75 25.3 27.25 25.65 27.3 25.6 27.9 25.15 29.95 24.9 30.2 26.4 30.35 26.75 30.35 26.8 30.4 26.9 31.6 28.75 31.75 28.8 Q33.15 29.15 34.35 28.45 L34.65 29.5 34.55 30.1 M28.3 19.8 L29.65 19.8 M24.65 21.9 L25.9 22.4 27.3 22.7 28.55 22.8 29.45 22.8 Q30.9 22.15 31.45 21.3 M33.75 18.5 L34.2 18.2 34.5 18.0 M34.75 21.0 L35.4 20.5 35.5 20.45 36.1 19.9 M35.05 18.25 L35.4 19.3 35.35 19.85 35.2 20.3 34.75 21.0 34.7 21.05 33.9 21.55 31.9 22.45 29.45 22.8 M30.8 19.65 L31.6 19.45 32.4 19.15 32.45 19.15 M31.45 21.25 Q31.9 20.45 31.6 19.45 M31.45 21.25 L31.45 21.3 M16.9 28.25 L16.4 28.7 16.4 28.75 16.3 28.8 15.9 29.65 15.5 29.3 16.4 28.75 M22.75 28.9 L17.5 28.05 Q17.15 28.1 16.9 28.25 16.4 27.65 14.55 27.45 15.9 26.45 17.4 26.5 15.1 25.8 15.65 22.7 16.65 23.65 18.15 24.2 M17.8 26.6 L18.05 26.65 18.35 26.7 18.4 26.7 18.55 26.8 18.05 26.9 Q17.75 27.05 17.6 27.55 L17.5 28.05 M36.0 34.0 L37.9 32.9 M13.2 33.95 L13.0 32.8 13.0 31.95 Q14.3 31.65 15.6 30.1 L15.85 29.8 15.9 29.65 M13.8 35.2 L15.2 36.3 Q18.3 38.0 19.6 37.4 L19.55 37.0 M20.55 34.65 L24.8 34.45 M13.8 35.2 L13.25 34.15 M13.95 36.35 L13.8 35.2 M34.55 30.0 L33.6 31.1 33.65 31.15 33.7 31.15 Q34.5 31.65 35.35 31.95 L36.5 32.2 M34.6 33.05 L36.4 32.9 M33.7 34.55 L34.1 35.1 33.9 35.1 31.7 35.0 Q28.85 37.5 26.3 39.05 L25.9 39.25 23.2 39.9 18.7 39.45 Q14.65 38.55 13.95 36.35 M33.7 34.55 Q34.7 34.6 36.0 34.0 M31.65 33.1 L32.2 33.9 32.3 34.05 32.6 34.2 33.35 34.5 33.7 34.55 M32.6 34.2 L32.1 34.65 31.7 35.0 M31.65 33.1 L31.05 33.55 M18.55 26.8 Q22.7 26.85 25.9 28.35 L27.3 29.05 Q29.2 30.2 30.7 31.95 L31.65 33.1 M25.8 29.9 L22.75 28.9 M29.45 34.8 L31.05 33.55 M17.4 26.5 L17.8 26.6 M19.6 37.4 Q19.75 38.15 20.95 38.6 L25.1 38.15 29.45 34.8 M18.4 24.3 Q18.45 24.8 18.8 25.3" fill="none" stroke="#000000" stroke-linecap="round" stroke-linejoin="round" stroke-opacity="0.3019608" stroke-width="0.5"/>
      <path d="M31.85 18.4 L32.9 17.55 33.45 17.55 Q34.4 20.3 33.25 21.9 L33.15 21.95 32.35 22.05 32.2 22.05 32.35 22.05 33.15 21.95 33.25 21.9 33.2 21.95 33.15 22.0 32.9 22.35 32.05 22.25 32.2 22.05 32.35 21.75 32.55 21.4 Q32.9 20.4 32.4 19.15 L31.85 18.4 Q32.1 19.25 31.95 19.9 L31.65 19.5 31.6 19.45 Q31.4 18.8 31.8 18.5 L31.85 18.4 M35.05 27.0 L34.7 26.15 34.65 25.15 34.65 25.1 34.7 24.3 34.6 23.1 35.2 23.85 Q35.1 25.35 35.6 26.55 L35.3 26.75 35.05 27.0 M35.15 21.0 Q36.05 22.3 36.15 23.55 36.2 24.3 36.6 24.85 L36.65 24.95 36.5 25.15 35.8 24.2 35.65 23.65 35.2 22.15 34.8 21.5 35.15 21.0 M36.5 25.2 L36.5 25.15 36.5 25.2" fill="#9d7b48" fill-rule="evenodd" stroke="none"/>
      <path d="M31.85 18.4 L32.4 19.15 Q32.9 20.4 32.55 21.4 L32.35 20.75 31.95 19.9 Q32.1 19.25 31.85 18.4 M33.25 21.9 Q34.4 20.3 33.45 17.55 L33.5 17.6 33.75 17.75 34.15 18.15 34.2 18.2 34.2 18.25 34.3 18.5 34.7 19.8 34.75 20.35 34.7 21.05 34.65 21.25 34.4 21.8 34.25 22.1 34.0 22.35 33.95 22.45 33.9 22.55 Q33.15 23.35 32.5 23.4 L32.35 23.4 Q31.7 23.4 31.7 22.7 L31.7 22.6 31.85 22.45 32.05 22.25 32.9 22.35 33.15 22.0 33.2 21.95 33.25 21.9 33.9 21.55 34.25 21.2 34.75 20.35 34.25 21.2 33.9 21.55 33.25 21.9 M35.55 20.65 L36.65 22.8 36.7 22.85 36.7 22.9 37.15 23.85 37.4 24.2 37.35 24.25 36.9 24.6 36.65 24.9 36.65 24.95 36.6 24.85 Q36.2 24.3 36.15 23.55 36.05 22.3 35.15 21.0 L35.35 20.45 35.4 20.5 35.55 20.65 M35.2 23.85 L36.0 25.65 36.1 26.15 36.2 26.3 Q35.9 26.35 35.6 26.55 35.1 25.35 35.2 23.85" fill="#80643c" fill-rule="evenodd" stroke="none"/>
      <path d="M34.3 18.5 Q35.05 19.05 35.35 19.85 L35.5 20.45 35.55 20.65 35.4 20.5 35.35 20.45 35.15 21.0 34.8 21.5 35.2 22.15 35.65 23.65 35.8 24.2 35.85 24.3 35.85 24.45 35.85 24.55 35.9 25.15 36.0 25.65 35.2 23.85 34.6 23.1 34.5 22.45 33.95 22.45 34.0 22.35 34.25 22.1 34.4 21.8 34.65 21.25 34.7 21.05 34.75 20.35 34.7 19.8 34.3 18.5 M35.35 20.45 L35.2 20.3 35.1 20.15 34.7 19.8 35.1 20.15 35.2 20.3 35.35 20.45 M34.8 21.5 L34.65 21.25 34.8 21.5 M34.5 22.45 L34.4 21.8 34.5 22.45" fill="#564429" fill-rule="evenodd" stroke="none"/>
      <path d="M34.95 29.6 L34.65 30.15 34.55 28.6 34.55 28.2 34.65 27.8 35.05 27.0 35.3 26.75 Q36.35 27.35 35.1 29.5 L34.95 29.6 M36.65 24.95 L36.65 24.9 Q39.0 24.05 38.65 26.15 L38.3 26.15 38.2 27.05 38.15 27.3 37.9 27.0 37.65 26.7 37.1 26.5 37.1 27.75 37.0 28.0 36.9 28.3 36.9 28.2 36.45 26.85 36.3 26.3 36.3 26.05 36.5 25.2 36.5 25.15 36.65 24.95" fill="#fcffff" fill-rule="evenodd" stroke="none"/>
      <path d="M37.4 24.2 Q37.8 24.0 38.3 23.95 L38.4 23.95 38.45 23.95 38.55 23.95 39.9 23.85 39.75 24.15 41.2 25.15 39.4 24.95 39.4 25.6 38.75 25.6 38.75 26.15 38.65 26.15 Q39.0 24.05 36.65 24.9 L36.9 24.6 37.35 24.25 37.4 24.2 M36.2 26.3 L36.3 26.3 36.45 26.85 36.9 28.2 36.9 28.3 37.0 28.0 36.95 28.55 36.55 28.45 36.3 28.95 36.05 29.5 35.75 28.8 35.6 28.8 35.1 29.5 34.95 29.6 35.1 29.5 Q36.35 27.35 35.3 26.75 L35.6 26.55 Q35.9 26.35 36.2 26.3" fill="#cfdada" fill-rule="evenodd" stroke="none"/>
      <path d="M40.75 26.45 L41.2 26.75 40.25 27.1 39.9 27.55 39.85 27.6 39.95 28.6 39.15 28.4 38.7 28.85 38.65 29.0 39.15 29.85 38.15 29.95 37.7 30.25 37.65 30.3 37.5 31.3 37.05 30.95 36.75 30.85 35.85 31.35 Q36.0 30.7 35.3 30.0 L34.95 29.6 35.1 29.5 35.75 28.8 36.05 29.5 36.3 28.95 36.55 29.45 36.7 28.9 37.5 29.2 37.7 28.6 38.25 28.7 37.85 28.2 37.5 28.0 37.1 27.75 37.45 27.0 37.9 27.0 38.15 27.3 38.2 27.05 38.5 27.3 38.7 26.5 39.3 26.65 39.3 25.95 40.75 26.45 M39.2 27.4 L39.65 27.25 39.55 26.75 39.2 27.4 M38.7 28.85 L38.35 29.15 38.25 28.7 38.35 29.15 38.7 28.85 M36.65 30.3 L37.05 30.5 37.05 29.7 36.65 30.3" fill="#b8c7c7" fill-rule="evenodd" stroke="none"/>
      <path d="M41.2 25.15 L40.3 25.2 40.5 26.05 40.5 26.1 40.75 26.45 39.3 25.95 39.3 26.65 38.7 26.5 38.5 27.3 38.2 27.05 38.3 26.15 38.65 26.15 38.75 26.15 38.75 25.6 39.4 25.6 39.4 24.95 41.2 25.15 M39.2 27.4 L39.55 26.75 39.65 27.25 39.2 27.4 M37.9 27.0 L37.45 27.0 37.1 27.75 37.1 26.5 37.65 26.7 37.9 27.0 M37.1 27.75 L37.5 28.0 37.85 28.2 38.25 28.7 37.7 28.6 37.5 29.2 36.7 28.9 36.55 29.45 36.3 28.95 36.55 28.45 36.95 28.55 37.0 28.0 37.1 27.75 M35.75 28.8 L35.1 29.5 35.6 28.8 35.75 28.8 M36.65 30.3 L37.05 29.7 37.05 30.5 36.65 30.3" fill="#a5b8b8" fill-rule="evenodd" stroke="none"/>
      <path d="M33.45 17.55 L32.9 17.55 31.85 18.4 M32.4 19.15 Q32.9 20.4 32.55 21.4 L32.35 21.75 32.2 22.05 32.35 22.05 33.15 21.95 33.25 21.9 M33.45 17.55 L33.5 17.6 33.75 17.75 34.15 18.15 34.2 18.2 34.2 18.25 34.3 18.5 Q35.05 19.05 35.35 19.85 L35.5 20.45 35.55 20.65 36.65 22.8 36.7 22.85 36.7 22.9 37.15 23.85 37.4 24.2 Q37.8 24.0 38.3 23.95 L38.4 23.95 38.45 23.95 38.55 23.95 39.9 23.85 39.75 24.15 41.2 25.15 40.3 25.2 40.5 26.05 40.5 26.1 40.75 26.45 41.2 26.75 40.25 27.1 39.9 27.55 39.85 27.6 39.95 28.6 39.15 28.4 38.7 28.85 38.65 29.0 39.15 29.85 38.15 29.95 37.7 30.25 37.65 30.3 37.5 31.3 37.05 30.95 36.75 30.85 35.85 31.35 Q36.0 30.7 35.3 30.0 L34.95 29.6 34.65 30.15 34.55 28.6 34.55 28.2 34.65 27.8 35.05 27.0 34.7 26.15 34.65 25.15 34.65 25.1 34.7 24.3 34.6 23.1 34.5 22.45 33.95 22.45 33.9 22.55 Q33.15 23.35 32.5 23.4 L32.35 23.4 Q31.7 23.4 31.7 22.7 L31.7 22.6 31.85 22.45 32.05 22.25 32.2 22.05 M34.75 20.35 L34.7 19.8 34.3 18.5 M34.7 19.8 L35.1 20.15 35.2 20.3 35.35 20.45 35.4 20.5 35.55 20.65 M36.65 24.95 L36.65 24.9 36.9 24.6 37.35 24.25 37.4 24.2 M33.95 22.45 L34.0 22.35 34.25 22.1 34.4 21.8 34.65 21.25 34.7 21.05 34.75 20.35 34.25 21.2 33.9 21.55 33.25 21.9 M34.8 21.5 L35.2 22.15 35.65 23.65 35.8 24.2 36.5 25.15 36.5 25.2 36.5 25.15 36.65 24.95 M34.65 21.25 L34.8 21.5 M31.95 19.9 L32.35 20.75 32.55 21.4 M31.95 19.9 L31.65 19.5 31.6 19.45 Q31.4 18.8 31.8 18.5 L31.85 18.4 M36.0 25.65 L35.9 25.15 35.85 24.55 35.85 24.45 35.85 24.3 35.8 24.2 M36.0 25.65 L36.1 26.15 36.2 26.3 36.3 26.3 36.3 26.05 36.5 25.2 M34.4 21.8 L34.5 22.45 M38.65 26.15 L38.75 26.15 38.75 25.6 M38.2 27.05 L38.3 26.15 38.65 26.15 M37.9 27.0 L37.65 26.7 M37.1 27.75 L37.5 28.0 37.85 28.2 38.25 28.7 38.35 29.15 38.7 28.85 M37.9 27.0 L38.15 27.3 38.2 27.05 M37.0 28.0 L36.95 28.55 36.55 28.45 36.3 28.95 36.05 29.5 35.75 28.8 M35.3 26.75 L35.05 27.0 M37.1 27.75 L37.0 28.0 36.9 28.3 36.9 28.2 36.45 26.85 36.3 26.3 M35.3 26.75 L35.6 26.55 Q35.9 26.35 36.2 26.3" fill="none" stroke="#000000" stroke-linecap="round" stroke-linejoin="round" stroke-opacity="0.3019608" stroke-width="0.5"/>
      <path d="M36.85 10.9 L37.4 11.05 37.6 11.1 Q38.25 11.9 37.75 12.75 L36.75 13.75 35.6 13.2 35.95 13.6 36.1 13.75 36.3 14.05 35.45 14.5 35.35 14.55 35.25 14.6 32.6 15.35 31.0 15.15 Q30.7 14.9 30.8 14.45 L30.35 15.6 25.7 15.55 Q24.45 15.65 25.85 18.85 22.45 16.15 23.45 15.2 L22.7 15.05 Q22.45 15.05 22.3 15.3 L22.15 15.65 22.15 14.9 21.85 14.85 Q20.3 15.55 20.05 18.0 L19.95 17.0 19.9 16.6 19.95 16.4 19.9 16.3 Q19.75 15.3 20.35 14.7 19.4 14.9 18.4 16.0 L18.1 16.3 18.2 16.2 18.5 15.6 19.05 14.75 19.25 14.5 19.5 14.15 20.5 13.45 Q19.8 13.6 19.55 12.95 18.6 13.7 16.85 14.15 L16.75 14.2 Q18.85 11.4 22.3 10.5 L23.3 10.3 24.05 10.15 22.7 9.4 27.7 9.0 Q29.85 9.4 30.7 10.3 L30.9 10.5 30.85 9.9 30.7 9.2 30.15 8.0 30.45 8.05 31.0 8.25 Q32.9 9.1 34.0 10.65 L34.3 10.1 Q35.75 8.95 37.5 8.8 36.3 9.45 36.1 10.6 L36.05 10.7 36.85 10.9 M35.65 12.35 L35.65 12.3 Q35.35 11.7 34.45 11.35 L34.15 11.25 31.0 10.8 30.8 10.8 30.5 10.8 28.95 10.85 28.05 10.9 27.9 10.9 Q23.65 11.5 22.15 12.2 21.3 12.55 21.5 12.95 L22.3 13.2 27.0 13.55 27.15 13.55 29.0 13.55 31.0 13.5 34.2 13.15 35.0 12.85 35.65 12.4 35.65 12.35 M24.3 10.15 L24.05 10.15 24.3 10.15" fill="#fcffff" fill-rule="evenodd" stroke="none"/>
      <path d="M21.5 12.95 Q21.45 12.6 22.3 12.3 23.75 11.75 28.0 11.2 L28.15 11.2 29.05 11.15 Q29.0 12.95 27.15 13.55 L27.0 13.55 22.3 13.2 21.5 12.95" fill="#6f593c" fill-rule="evenodd" stroke="none"/>
      <path d="M29.05 11.15 L31.0 11.15 34.2 11.5 Q35.25 11.8 35.65 12.35 L35.65 12.4 35.0 12.85 34.2 13.15 31.0 13.5 29.0 13.55 27.15 13.55 Q29.0 12.95 29.05 11.15" fill="#483726" fill-rule="evenodd" stroke="none"/>
      <path d="M37.5 8.8 L38.0 8.8 Q37.2 9.45 36.95 10.45 L36.85 10.9 36.05 10.7 36.1 10.6 Q36.3 9.45 37.5 8.8 M37.6 11.1 Q39.35 11.55 40.45 12.8 L41.7 14.8 Q40.45 13.7 39.05 13.35 L37.95 13.15 38.15 13.8 38.2 14.0 39.1 17.85 39.05 17.8 38.4 16.6 Q37.55 15.1 36.45 14.35 L36.3 14.05 36.45 14.35 37.15 15.95 37.5 17.25 37.55 17.85 37.6 19.55 37.45 20.35 36.6 19.45 36.6 19.4 35.05 18.25 34.5 18.0 33.5 17.55 33.5 17.6 33.75 18.5 33.8 19.0 33.8 20.1 33.6 20.9 32.45 19.15 32.35 19.05 32.1 18.8 32.25 17.8 32.15 16.85 32.0 17.25 31.6 18.25 31.6 18.3 31.0 19.35 30.8 19.65 29.75 20.8 29.55 19.1 29.9 18.1 30.1 17.4 30.25 16.35 29.85 17.25 29.4 18.1 28.3 19.8 27.3 20.95 26.0 22.0 25.75 21.4 24.45 19.0 24.35 18.75 23.7 17.75 23.8 18.5 23.35 19.95 23.25 20.0 23.25 19.55 Q23.15 18.6 22.65 17.65 L22.45 17.3 22.45 17.4 22.4 17.65 22.3 18.35 22.05 21.1 21.7 20.9 Q20.55 19.8 20.15 18.35 L20.05 18.4 Q18.3 19.1 17.05 20.8 L17.0 20.85 Q17.1 19.65 17.35 18.6 L18.0 16.6 18.05 16.5 18.1 16.4 18.1 16.3 18.4 16.0 Q19.4 14.9 20.35 14.7 19.75 15.3 19.9 16.3 L19.95 16.4 19.9 16.6 19.95 17.0 20.05 18.0 Q20.3 15.55 21.85 14.85 L22.15 14.9 22.15 15.65 22.3 15.3 Q22.45 15.05 22.7 15.05 L23.45 15.2 Q22.45 16.15 25.85 18.85 24.45 15.65 25.7 15.55 L30.35 15.6 30.8 14.45 Q30.7 14.9 31.0 15.15 L32.6 15.35 35.25 14.6 35.35 14.55 35.45 14.5 36.3 14.05 36.1 13.75 35.95 13.6 35.6 13.2 36.75 13.75 37.75 12.75 Q38.25 11.9 37.6 11.1 M19.25 14.5 L16.75 14.2 16.85 14.15 Q18.6 13.7 19.55 12.95 19.8 13.6 20.5 13.45 L19.5 14.15 19.25 14.5 M27.7 9.0 Q29.15 9.2 30.5 9.75 L30.85 9.9 30.9 10.5 30.7 10.3 Q29.85 9.4 27.7 9.0 M30.45 8.05 L31.0 8.15 Q32.85 8.5 34.2 9.95 L34.3 10.1 34.0 10.65 Q32.9 9.1 31.0 8.25 L30.45 8.05 M21.5 12.95 Q21.3 12.55 22.15 12.2 23.65 11.5 27.9 10.9 L28.05 10.9 28.95 10.85 30.5 10.8 30.8 10.8 31.0 10.8 34.15 11.25 34.45 11.35 Q35.35 11.7 35.65 12.3 L35.65 12.35 Q35.25 11.8 34.2 11.5 L31.0 11.15 29.05 11.15 28.15 11.2 28.0 11.2 Q23.75 11.75 22.3 12.3 21.45 12.6 21.5 12.95 M32.2 16.6 L32.15 16.85 32.2 16.6 M22.3 16.9 L22.45 17.3 22.3 16.9 M23.7 17.75 L23.1 16.95 23.7 17.75 M20.15 18.35 L20.05 18.0 20.15 18.35" fill="#cfdada" fill-rule="evenodd" stroke="none"/>
      <path d="M41.7 14.8 L40.45 14.3 40.05 14.15 38.2 14.0 38.15 13.8 37.95 13.15 39.05 13.35 Q40.45 13.7 41.7 14.8 M39.05 17.8 L38.65 17.25 38.55 17.15 37.15 15.95 36.45 14.35 Q37.55 15.1 38.4 16.6 L39.05 17.8 M31.6 18.3 L31.6 18.25 32.0 17.25 32.15 16.85 32.25 17.8 32.1 18.8 31.95 18.6 31.8 18.5 31.6 18.3 M30.25 16.35 L30.1 17.4 29.9 18.1 29.55 19.1 29.4 18.1 29.85 17.25 30.25 16.35 M24.35 18.75 L24.3 18.9 24.15 19.1 23.35 19.95 23.8 18.5 23.7 17.75 24.35 18.75" fill="#b8c7c7" fill-rule="evenodd" stroke="none"/>
      <path d="M36.6 19.45 L36.15 19.9 36.4 20.7 35.05 19.65 34.5 19.35 33.8 19.0 33.75 18.5 33.5 17.6 33.5 17.55 34.5 18.0 35.05 18.25 36.6 19.4 36.6 19.45 M33.8 20.1 Q33.9 21.25 33.6 22.2 L32.45 20.35 32.35 20.25 32.1 20.0 31.8 19.65 31.6 19.45 31.0 20.5 30.8 20.75 29.75 21.85 29.4 19.1 28.3 20.75 27.3 21.8 26.0 22.75 25.75 22.15 24.45 19.65 24.35 19.4 24.3 19.55 23.35 20.5 23.25 20.55 23.25 20.1 Q23.15 19.15 22.65 18.15 L22.45 17.8 22.4 17.65 22.45 17.4 22.45 17.3 22.65 17.65 Q23.15 18.6 23.25 19.55 L23.25 20.0 23.35 19.95 24.15 19.1 24.3 18.9 24.35 18.75 24.45 19.0 25.75 21.4 26.0 22.0 27.3 20.95 28.3 19.8 29.4 18.1 29.55 19.1 29.75 20.8 30.8 19.65 31.0 19.35 31.6 18.3 31.8 18.5 31.95 18.6 32.1 18.8 32.35 19.05 32.45 19.15 33.6 20.9 33.8 20.1" fill="#000000" fill-opacity="0.3019608" fill-rule="evenodd" stroke="none"/>
      <path d="M37.5 8.8 L38.0 8.8 Q37.2 9.45 36.95 10.45 L36.85 10.9 37.4 11.05 37.6 11.1 Q39.35 11.55 40.45 12.8 L41.7 14.8 40.45 14.3 40.05 14.15 38.2 14.0 39.1 17.85 39.05 17.8 38.65 17.25 38.55 17.15 37.15 15.95 37.5 17.25 37.55 17.85 37.6 19.55 37.45 20.35 36.6 19.45 36.6 19.4 35.05 18.25 34.5 18.0 33.5 17.55 33.5 17.6 33.75 18.5 33.8 19.0 33.8 20.1 M22.4 17.65 L22.3 18.35 22.05 21.1 21.7 20.9 Q20.55 19.8 20.15 18.35 L20.05 18.4 Q18.3 19.1 17.05 20.8 L17.0 20.85 Q17.1 19.65 17.35 18.6 L18.0 16.6 18.05 16.5 18.1 16.4 M18.1 16.3 L18.2 16.2 18.5 15.6 19.05 14.75 19.25 14.5 16.75 14.2 Q18.85 11.4 22.3 10.5 L23.3 10.3 24.05 10.15 22.7 9.4 27.7 9.0 Q29.15 9.2 30.5 9.75 L30.85 9.9 30.7 9.2 30.15 8.0 30.45 8.05 31.0 8.15 Q32.85 8.5 34.2 9.95 L34.3 10.1 Q35.75 8.95 37.5 8.8 M21.5 12.95 Q21.45 12.6 22.3 12.3 23.75 11.75 28.0 11.2 L28.15 11.2 29.05 11.15 31.0 11.15 34.2 11.5 Q35.25 11.8 35.65 12.35 L35.65 12.4 35.0 12.85 34.2 13.15 31.0 13.5 29.0 13.55 27.15 13.55 M27.0 13.55 L22.3 13.2 21.5 12.95 M35.95 13.6 L36.1 13.75 36.3 14.05 36.45 14.35 37.15 15.95 M32.15 16.85 L32.0 17.25 31.6 18.25 31.6 18.3 31.8 18.5 31.95 18.6 32.1 18.8 32.35 19.05 32.45 19.15 33.6 20.9 33.8 20.1 M32.15 16.85 L32.2 16.6 M29.55 19.1 L29.75 20.8 30.8 19.65 31.0 19.35 31.6 18.3 M29.4 18.1 L29.85 17.25 30.25 16.35 M23.35 19.95 L24.15 19.1 24.3 18.9 24.35 18.75 23.7 17.75 M23.35 19.95 L23.25 20.0 23.25 19.55 Q23.15 18.6 22.65 17.65 L22.45 17.3 22.45 17.4 M24.35 18.75 L24.45 19.0 25.75 21.4 26.0 22.0 27.3 20.95 28.3 19.8 29.4 18.1 29.55 19.1 M38.2 14.0 L38.15 13.8 M24.05 10.15 L24.3 10.15 M19.5 14.15 L19.25 14.5 M19.9 16.3 L19.95 16.4 19.9 16.6 19.95 17.0 20.05 18.0 20.15 18.35 M23.1 16.95 L23.7 17.75 M22.45 17.3 L22.3 16.9" fill="none" stroke="#000000" stroke-linecap="round" stroke-linejoin="round" stroke-opacity="0.3019608" stroke-width="0.5"/>
    </g>
    <g id="sprite1" transform="matrix(1.0, 0.0, 0.0, 1.0, 0.0, 0.0)">
      <use height="56.0" transform="matrix(1.0, 0.0, 0.0, 1.0, 0.0, 0.0)" width="56.0" xlink:href="#shape3"/>
    </g>
    <g id="shape3" transform="matrix(1.0, 0.0, 0.0, 1.0, 0.0, 0.0)">
      <path d="M47.8 47.8 Q39.6 56.0 28.0 56.0 16.4 56.0 8.2 47.8 0.0 39.6 0.0 28.0 0.0 16.4 8.2 8.2 16.4 0.0 28.0 0.0 39.6 0.0 47.8 8.2 56.0 16.4 56.0 28.0 56.0 39.6 47.8 47.8" fill="url(#gradient0)" fill-rule="evenodd" stroke="none"/>
    </g>
    <radialGradient cx="0" cy="0" gradientTransform="matrix(0.0349, 0.0, 0.0, 0.0349, 28.0, 28.0)" gradientUnits="userSpaceOnUse" id="gradient0" r="819.2" spreadMethod="pad">
      <stop offset="0.0" stop-color="#ffee69" stop-opacity="0.8"/>
      <stop offset="1.0" stop-color="#fef18a" stop-opacity="0.0"/>
    </radialGradient>
  </defs>
</svg>
