<?xml version="1.0" encoding="UTF-8" standalone="no"?>
<svg xmlns:xlink="http://www.w3.org/1999/xlink" height="440.0px" width="440.0px" xmlns="http://www.w3.org/2000/svg">
  <g transform="matrix(10.0, 0.0, 0.0, 10.0, 0.0, 0.0)">
    <use height="44.0" transform="matrix(1.0, 0.0, 0.0, 1.0, 0.0, 0.0)" width="44.0" xlink:href="#shape0"/>
    <use height="38.9" transform="matrix(0.7258, 0.0, 0.0, 0.8996, 1.6797, 2.0713)" width="42.0" xlink:href="#sprite0"/>
    <use height="38.9" transform="matrix(0.7656, 0.0, 0.0, 0.9489, 9.9705, 5.3467)" width="42.0" xlink:href="#sprite0"/>
  </g>
  <defs>
    <g id="shape0" transform="matrix(1.0, 0.0, 0.0, 1.0, 0.0, 0.0)">
      <path d="M44.0 44.0 L0.0 44.0 0.0 0.0 44.0 0.0 44.0 44.0" fill="#43adca" fill-opacity="0.0" fill-rule="evenodd" stroke="none"/>
    </g>
    <g id="sprite0" transform="matrix(1.0, 0.0, 0.0, 1.0, 20.35, 39.05)">
      <use height="38.45" transform="matrix(1.0, 0.0, 0.0, 1.0, -19.6, -38.6)" width="39.4" xlink:href="#shape1"/>
      <use height="4.6" transform="matrix(1.0, 0.0, 0.0, 1.0, -17.0, -5.3)" width="4.6" xlink:href="#sprite1"/>
      <use height="4.6" transform="matrix(1.3049, 0.3249, -1.9584, 1.1307, -11.3428, -15.0983)" width="4.6" xlink:href="#sprite1"/>
      <use height="4.6" transform="matrix(1.432, 0.4141, -1.6844, 0.8899, -6.2455, -26.3961)" width="4.6" xlink:href="#sprite1"/>
      <use height="4.6" transform="matrix(2.0458, 0.8834, -2.0969, 1.1079, 12.2402, -39.0281)" width="4.6" xlink:href="#sprite1"/>
      <use height="4.6" transform="matrix(1.0, 0.0, 0.0, 1.0, -10.75, -5.0)" width="4.6" xlink:href="#sprite1"/>
      <use height="4.6" transform="matrix(1.0, 0.0, 0.0, 1.0, -5.1, -6.15)" width="4.6" xlink:href="#sprite1"/>
      <use height="4.6" transform="matrix(0.4354, 0.3442, -1.8979, 0.188, 3.5791, -23.5065)" width="4.6" xlink:href="#sprite1"/>
    </g>
    <g id="shape1" transform="matrix(1.0, 0.0, 0.0, 1.0, 19.6, 38.6)">
      <path d="M2.45 -29.9 L3.05 -31.0 3.15 -31.25 Q4.85 -34.05 7.9 -36.75 L8.05 -36.85 10.2 -38.0 Q11.65 -38.7 15.25 -37.95 L17.1 -37.1 17.95 -36.55 Q19.2 -35.75 19.2 -34.75 L19.2 -34.6 Q19.2 -33.8 18.4 -33.0 L18.15 -32.75 17.8 -32.5 17.6 -32.2 17.5 -32.15 17.1 -31.8 17.0 -31.75 Q15.6 -30.65 13.8 -29.8 L11.2 -28.3 10.95 -28.15 10.9 -28.1 10.85 -28.1 10.75 -28.0 9.95 -27.55 8.1 -26.3 7.2 -25.65 6.65 -25.25 6.25 -25.05 5.65 -24.95 Q6.9 -27.05 9.05 -28.85 10.9 -30.45 12.5 -31.2 16.45 -32.7 16.75 -34.05 L16.9 -34.75 16.35 -35.65 15.05 -36.4 13.35 -36.9 Q11.15 -37.3 9.55 -36.2 8.1 -35.25 6.55 -33.45 4.45 -31.05 3.4 -28.3 L3.25 -27.85 3.2 -27.75 3.2 -27.7 2.9 -26.65 2.7 -27.2 Q2.45 -28.25 2.45 -29.65 L2.45 -29.9" fill="#8e7458" fill-rule="evenodd" stroke="none"/>
      <path d="M6.2 -11.15 L6.5 -10.65 6.5 -10.4 5.85 -9.5 6.45 -10.3 6.35 -10.65 6.2 -11.15 M-18.8 -6.9 L-18.8 -7.15 -18.8 -7.0 -18.8 -6.9 M1.2 -25.65 L1.35 -26.45 1.35 -26.65 Q1.65 -28.3 2.45 -29.9 L2.45 -29.65 Q2.45 -28.25 2.7 -27.2 L2.9 -26.65 3.2 -27.7 3.2 -27.75 3.25 -27.85 3.4 -28.3 Q4.45 -31.05 6.55 -33.45 8.1 -35.25 9.55 -36.2 11.15 -37.3 13.35 -36.9 L15.05 -36.4 16.35 -35.65 16.9 -34.75 16.75 -34.05 Q16.05 -32.85 12.65 -31.6 11.05 -30.8 9.2 -29.25 6.9 -27.25 5.6 -24.95 L5.55 -24.9 5.55 -24.85 Q3.6 -24.6 2.9 -26.65 L2.6 -25.5 2.2 -22.6 0.95 -22.45 0.95 -22.5 0.9 -22.55 1.1 -25.0 1.15 -25.1 1.2 -25.65 M5.65 -24.95 L6.25 -25.05 6.65 -25.25 7.2 -25.65 8.1 -26.3 9.95 -27.55 10.75 -28.0 10.1 -27.45 8.9 -26.35 8.55 -26.0 7.6 -24.75 7.05 -23.95 4.8 -23.2 5.65 -24.9 5.65 -24.95 M1.1 -25.0 L1.15 -25.1 1.1 -25.0" fill="#745f47" fill-rule="evenodd" stroke="none"/>
      <path d="M16.75 -34.05 Q16.45 -32.7 12.5 -31.2 10.9 -30.45 9.05 -28.85 6.9 -27.05 5.65 -24.95 L5.65 -24.9 4.8 -23.2 3.15 -22.8 2.55 -22.65 2.2 -22.6 2.6 -25.5 2.9 -26.65 Q3.6 -24.6 5.55 -24.85 L5.55 -24.9 5.6 -24.95 Q6.9 -27.25 9.2 -29.25 11.05 -30.8 12.65 -31.6 16.05 -32.85 16.75 -34.05" fill="#594837" fill-rule="evenodd" stroke="none"/>
      <path d="M19.2 -34.6 L19.2 -32.45 18.65 -32.85 18.15 -32.75 18.4 -33.0 Q19.2 -33.8 19.2 -34.6 M18.55 -29.95 L17.5 -28.95 17.15 -28.6 17.05 -28.55 17.0 -28.5 17.0 -31.75 17.1 -31.8 17.5 -32.15 17.6 -32.2 17.45 -31.95 17.4 -31.9 17.4 -31.8 17.3 -31.55 Q17.25 -30.9 17.5 -30.45 17.75 -30.0 18.25 -30.0 L18.55 -29.95 M16.25 -24.1 L15.85 -19.25 15.8 -12.7 16.0 -10.0 13.8 -8.85 Q13.9 -17.15 12.75 -21.95 L12.75 -22.05 Q13.6 -22.95 16.25 -24.1 M-8.3 -0.5 L-9.6 -0.45 -9.9 -0.4 -9.95 -3.75 -8.35 -3.9 -8.35 -3.7 -9.75 -2.3 -8.3 -0.85 -8.3 -0.5 M-10.55 -0.4 L-11.1 -0.4 -11.15 -3.7 -10.6 -3.7 -10.55 -0.4 M-14.9 -0.8 Q-16.85 -1.25 -17.9 -2.1 L-18.3 -2.5 -18.75 -3.3 -18.7 -3.1 -18.35 -3.15 -17.75 -4.25 -18.25 -5.7 Q-17.6 -5.05 -16.55 -4.6 -15.8 -4.25 -14.9 -4.05 L-14.9 -3.9 -16.25 -2.55 -15.9 -2.2 -15.8 -2.1 -15.3 -1.6 -15.25 -1.55 -15.2 -1.5 -14.9 -1.2 -14.9 -0.8 M-18.8 -6.0 L-18.8 -6.5 -18.6 -6.2 -18.7 -6.2 -18.35 -5.3 -18.55 -5.75 -18.7 -6.2 -18.8 -6.0 M-18.2 -4.75 L-18.05 -4.35 -18.2 -4.75" fill="#262626" fill-rule="evenodd" stroke="none"/>
      <path d="M11.0 -22.55 L10.1 -24.25 7.6 -21.55 6.55 -19.85 5.45 -17.0 5.55 -19.1 5.85 -20.25 6.05 -20.65 6.6 -21.65 7.1 -22.45 7.5 -23.0 8.05 -23.65 8.1 -23.65 8.9 -23.55 9.8 -24.15 Q10.2 -24.55 10.25 -25.05 10.35 -25.55 10.05 -25.8 L9.75 -25.9 9.25 -25.9 8.35 -25.3 7.95 -24.5 7.85 -24.35 7.95 -23.8 7.2 -24.0 7.05 -23.95 7.6 -24.75 8.55 -26.0 8.9 -26.35 10.1 -27.45 10.75 -28.0 10.85 -28.1 10.9 -28.1 10.95 -28.15 11.2 -28.3 13.8 -29.8 Q15.6 -30.65 17.0 -31.75 L17.0 -28.5 15.3 -27.35 15.45 -27.95 Q15.45 -28.45 15.05 -28.85 L14.75 -29.1 14.2 -29.2 Q13.7 -29.2 13.3 -28.8 13.0 -28.5 12.95 -28.05 L12.95 -27.9 Q12.95 -27.35 13.3 -27.0 13.6 -26.7 13.95 -26.6 L13.8 -26.55 Q12.65 -26.05 11.6 -25.35 L12.75 -22.05 12.75 -21.95 11.0 -22.55 M6.5 -10.4 L6.5 -6.95 Q6.4 -6.6 5.7 -5.95 L4.95 -5.35 3.8 -4.55 4.85 -6.4 3.05 -7.45 5.7 -9.4 5.85 -9.5 6.5 -10.4 M3.7 -4.5 L1.9 -3.55 0.55 -2.9 Q-0.75 -2.3 -2.05 -1.85 -5.1 -0.8 -8.3 -0.5 L-8.3 -0.85 -8.2 -0.75 -6.65 -2.3 -8.2 -3.85 -8.35 -3.7 -8.35 -3.9 Q-4.3 -4.25 -0.5 -5.8 L-0.45 -5.85 Q1.45 -6.55 2.85 -7.3 L1.85 -5.6 3.7 -4.5 M-9.9 -0.4 L-10.55 -0.4 -10.6 -3.7 -9.95 -3.75 -9.9 -0.4 M-11.1 -0.4 L-14.7 -0.75 -14.9 -0.8 -14.9 -1.2 -14.7 -1.0 -14.65 -1.0 -13.9 -1.2 -12.5 -2.6 -13.75 -3.85 -11.15 -3.7 -11.1 -0.4 M5.7 -20.25 L5.75 -20.25 5.75 -20.2 5.7 -20.25 M-14.9 -4.05 L-14.75 -4.0 -14.9 -3.9 -14.9 -4.05 M-2.05 -1.85 L-0.95 -3.75 -2.85 -4.85 -3.95 -2.95 -2.05 -1.85" fill="#000000" fill-rule="evenodd" stroke="none"/>
      <path d="M19.2 -32.45 L19.25 -32.4 19.4 -31.7 19.15 -31.0 18.95 -30.8 Q18.65 -30.45 18.25 -30.5 17.8 -30.55 17.6 -30.95 17.35 -31.3 17.4 -31.8 L17.4 -31.9 17.45 -31.95 17.4 -31.8 17.45 -31.95 17.6 -32.2 17.8 -32.5 18.15 -32.75 18.65 -32.85 19.2 -32.45 M8.45 -25.35 L8.25 -25.05 8.25 -24.75 8.5 -24.7 8.85 -24.95 9.1 -25.25 9.1 -25.55 8.85 -25.6 8.8 -25.55 8.45 -25.35 M7.95 -24.5 L8.35 -25.3 9.25 -25.9 9.75 -25.9 9.8 -25.85 10.0 -25.25 9.6 -24.4 8.8 -23.9 8.15 -24.0 Q7.9 -24.15 7.95 -24.5 M18.5 -31.75 L18.55 -32.05 18.5 -32.05 18.5 -32.1 18.3 -32.35 18.0 -32.35 17.75 -32.1 17.65 -31.7 17.9 -31.5 18.2 -31.5 18.5 -31.75 M12.95 -28.05 Q13.0 -28.5 13.3 -28.8 13.7 -29.2 14.2 -29.2 L14.75 -29.1 14.8 -29.05 15.1 -28.25 14.8 -27.45 Q14.5 -27.1 14.05 -27.05 13.6 -27.05 13.25 -27.4 L12.95 -28.05 M13.3 -28.5 Q13.25 -28.3 13.35 -28.2 L13.35 -28.15 13.6 -28.1 13.95 -28.2 14.2 -28.5 14.15 -28.85 13.9 -28.95 13.85 -28.95 13.5 -28.8 13.3 -28.5" fill="#604b33" fill-rule="evenodd" stroke="none"/>
      <path d="M19.25 -32.4 L19.35 -32.3 19.55 -31.3 19.1 -30.25 Q18.85 -30.0 18.55 -29.95 L18.25 -30.0 Q17.75 -30.0 17.5 -30.45 17.25 -30.9 17.3 -31.55 L17.4 -31.8 Q17.35 -31.3 17.6 -30.95 17.8 -30.55 18.25 -30.5 18.65 -30.45 18.95 -30.8 L19.15 -31.0 19.4 -31.7 19.25 -32.4 M9.75 -25.9 L10.05 -25.8 Q10.35 -25.55 10.25 -25.05 10.2 -24.55 9.8 -24.15 L8.9 -23.55 8.1 -23.65 8.15 -23.7 8.2 -23.75 8.2 -23.85 8.1 -23.8 7.95 -23.8 7.85 -24.35 7.95 -24.5 Q7.9 -24.15 8.15 -24.0 L8.8 -23.9 9.6 -24.4 10.0 -25.25 9.8 -25.85 9.75 -25.9 M13.95 -26.6 Q13.6 -26.7 13.3 -27.0 12.95 -27.35 12.95 -27.9 L12.95 -28.05 13.25 -27.4 Q13.6 -27.05 14.05 -27.05 14.5 -27.1 14.8 -27.45 L15.1 -28.25 14.8 -29.05 14.75 -29.1 15.05 -28.85 Q15.45 -28.45 15.45 -27.95 L15.3 -27.35 15.05 -27.05 14.2 -26.6 13.95 -26.6" fill="#392c1e" fill-rule="evenodd" stroke="none"/>
      <path d="M17.15 -28.55 L16.25 -24.1 Q13.6 -22.95 12.75 -22.05 L11.6 -25.35 Q12.65 -26.05 13.8 -26.55 L13.95 -26.6 14.2 -26.6 15.05 -27.05 15.3 -27.35 17.0 -28.5 17.05 -28.55 17.15 -28.55" fill="#0b0b0b" fill-rule="evenodd" stroke="none"/>
      <path d="M17.15 -28.6 L17.15 -28.55 17.05 -28.55 17.15 -28.6 M-18.75 -3.3 L-18.9 -3.7 -18.8 -3.55 -18.8 -3.75 -18.7 -3.1 -18.75 -3.3 M-19.25 -4.65 L-19.35 -4.95 -18.8 -6.0 -18.7 -6.2 -18.7 -6.15 -18.8 -5.75 -18.85 -5.2 -18.95 -4.75 -19.1 -4.85 -19.15 -4.85 -19.25 -4.65 M2.85 -7.3 L2.95 -7.5 3.9 -6.15 1.85 -5.6 2.85 -7.3 M-14.75 -4.0 L-14.7 -4.05 -14.9 -3.6 -15.1 -3.0 -15.25 -2.55 -15.6 -2.55 -15.7 -2.55 -15.8 -2.55 Q-16.2 -2.5 -15.9 -2.2 L-16.25 -2.55 -14.9 -3.9 -14.75 -4.0 M-18.3 -4.45 Q-18.1 -4.45 -18.2 -4.75 L-18.05 -4.35 -18.3 -4.45 M-19.15 -4.85 L-19.35 -4.95 -19.15 -4.85 M-14.7 -4.1 L-14.7 -4.05 -14.7 -4.1 M-16.25 -2.55 L-15.8 -2.55 -16.25 -2.55 M-15.2 -1.5 Q-14.85 -1.2 -14.95 -1.6 L-14.9 -1.6 -14.85 -1.55 -14.85 -1.5 -14.7 -1.05 -14.7 -1.0 -14.9 -1.2 -15.2 -1.5 M-13.5 -2.9 L-13.15 -2.55 -13.8 -2.55 -13.85 -2.55 -13.95 -2.55 Q-13.4 -2.6 -13.4 -2.75 L-13.5 -2.9 M-8.35 -3.7 L-8.2 -3.85 -7.6 -2.3 -9.75 -2.3 -8.35 -3.7 M-2.85 -4.85 L-1.9 -3.5 -3.95 -2.95 -2.85 -4.85" fill="#b2b2b2" fill-rule="evenodd" stroke="none"/>
      <path d="M13.8 -8.85 L12.2 -9.9 12.35 -14.35 Q12.3 -19.45 11.0 -22.55 L12.75 -21.95 Q13.9 -17.15 13.8 -8.85" fill="#151515" fill-rule="evenodd" stroke="none"/>
      <path d="M8.45 -25.35 L8.8 -25.55 8.85 -25.6 9.1 -25.55 9.1 -25.25 8.85 -24.95 8.5 -24.7 8.25 -24.75 8.25 -25.05 8.45 -25.35 M18.5 -31.75 L18.2 -31.5 17.9 -31.5 17.65 -31.7 17.75 -32.1 18.0 -32.35 18.3 -32.35 18.5 -32.1 18.5 -32.05 18.55 -32.05 18.5 -31.75 M13.3 -28.5 L13.5 -28.8 13.85 -28.95 13.9 -28.95 14.15 -28.85 14.2 -28.5 13.95 -28.2 13.6 -28.1 13.35 -28.15 13.35 -28.2 Q13.25 -28.3 13.3 -28.5" fill="#a07d56" fill-rule="evenodd" stroke="none"/>
      <path d="M1.1 -25.0 L0.9 -22.55 0.9 -22.5 0.95 -22.5 0.95 -22.45 0.9 -22.45 0.95 -22.4 0.8 -22.4 -2.15 -22.45 -4.75 -22.85 -5.75 -23.1 Q-7.05 -23.5 -7.25 -23.8 L-7.3 -23.9 -7.25 -23.9 -7.3 -24.0 -6.85 -24.3 -6.25 -24.5 -4.05 -24.8 1.1 -25.1 1.1 -25.0" fill="#1f0404" fill-rule="evenodd" stroke="none"/>
      <path d="M-10.25 -23.85 L-10.25 -23.95 -9.6 -24.4 -8.8 -24.7 -8.75 -24.7 -5.9 -25.2 1.2 -25.65 1.15 -25.1 1.1 -25.1 -4.05 -24.8 -6.25 -24.5 -6.85 -24.3 -7.3 -24.0 -7.25 -23.9 -7.3 -23.9 -7.25 -23.8 Q-7.05 -23.5 -5.75 -23.1 L-4.75 -22.85 -2.15 -22.45 0.8 -22.4 0.95 -22.4 0.9 -22.45 0.95 -22.45 2.2 -22.6 2.55 -22.65 3.15 -22.8 5.2 -22.6 4.5 -22.4 2.85 -22.0 2.2 -21.9 2.1 -21.85 0.85 -21.65 0.4 -21.65 Q-1.5 -21.5 -3.35 -21.7 L-5.45 -22.0 -6.0 -22.1 -6.8 -22.3 -8.15 -22.75 Q-9.9 -23.35 -10.15 -23.75 L-10.25 -23.85 M8.2 -23.75 L8.15 -23.7 8.1 -23.8 8.2 -23.75" fill="#816a44" fill-rule="evenodd" stroke="none"/>
      <path d="M8.1 -23.65 L8.05 -23.65 6.6 -23.05 5.2 -22.6 3.15 -22.8 4.8 -23.2 7.05 -23.95 7.2 -24.0 7.95 -23.8 8.1 -23.8 8.15 -23.7 8.1 -23.65" fill="#685637" fill-rule="evenodd" stroke="none"/>
      <path d="M8.1 -23.8 L8.2 -23.85 8.2 -23.75 8.1 -23.8" fill="#804848" fill-rule="evenodd" stroke="none"/>
      <path d="M5.95 -12.25 L6.2 -11.15 6.35 -10.65 6.45 -10.3 5.85 -9.5 5.7 -9.4 3.05 -7.45 2.95 -7.5 2.85 -7.3 Q1.45 -6.55 -0.45 -5.85 L-0.5 -5.8 Q-4.3 -4.25 -8.35 -3.9 L-9.95 -3.75 -10.6 -3.7 -11.15 -3.7 -13.75 -3.85 -14.15 -4.25 -14.75 -4.1 -14.7 -4.05 -14.75 -4.0 -14.9 -4.05 Q-15.8 -4.25 -16.55 -4.6 -17.6 -5.05 -18.25 -5.7 L-18.45 -6.25 -18.6 -6.2 -18.8 -6.5 -18.85 -6.55 -18.8 -6.9 -18.8 -7.0 -18.4 -6.35 -16.55 -5.05 Q-12.8 -3.4 -5.45 -4.85 L-0.45 -6.35 0.4 -6.65 Q4.35 -8.95 5.65 -11.6 L5.7 -11.75 5.95 -12.25 M8.05 -23.65 L7.5 -23.0 7.1 -22.45 6.6 -21.65 6.05 -20.65 5.85 -20.25 5.9 -20.6 5.75 -20.25 5.7 -20.25 5.6 -20.85 5.4 -21.25 Q5.05 -21.7 4.35 -21.85 L2.85 -22.0 4.5 -22.4 5.2 -22.6 6.6 -23.05 8.05 -23.65" fill="#5e2046" fill-rule="evenodd" stroke="none"/>
      <path d="M5.45 -17.0 L5.65 -13.85 5.8 -13.05 5.85 -12.7 5.95 -12.25 5.7 -11.75 5.65 -11.6 Q4.35 -8.95 0.4 -6.65 L-0.45 -6.35 -5.45 -4.85 Q-12.8 -3.4 -16.55 -5.05 L-18.4 -6.35 -18.8 -7.0 -18.8 -7.15 -18.7 -7.6 Q-18.6 -6.95 -17.85 -6.55 -17.1 -6.15 -15.6 -6.0 L-13.0 -6.1 Q-11.85 -6.4 -9.55 -7.6 -7.25 -8.75 -6.5 -9.95 -5.75 -11.1 -5.75 -11.4 L-6.35 -12.35 Q-6.75 -12.8 -7.9 -13.45 L-8.6 -13.85 -9.25 -14.15 -9.25 -14.2 -7.9 -13.85 -7.85 -13.85 -7.2 -13.65 Q-3.7 -12.75 -2.9 -13.25 L-2.35 -13.85 Q-2.1 -14.15 -2.0 -14.6 L-1.95 -15.35 Q-1.95 -16.8 -2.1 -17.85 L-2.25 -18.55 Q-2.45 -19.6 -2.8 -20.2 L-2.9 -20.35 Q-3.55 -21.25 -5.45 -22.0 L-3.35 -21.7 Q-1.5 -21.5 0.4 -21.65 L0.85 -21.65 2.1 -21.85 2.2 -21.9 2.85 -22.0 4.35 -21.85 Q5.05 -21.7 5.4 -21.25 L5.6 -20.85 5.7 -20.25 5.75 -20.2 5.75 -20.25 5.9 -20.6 5.85 -20.25 5.55 -19.1 5.45 -17.0" fill="#8c1963" fill-rule="evenodd" stroke="none"/>
      <path d="M0.9 -22.55 L0.95 -22.5 0.9 -22.5 0.9 -22.55" fill="#202035" fill-rule="evenodd" stroke="none"/>
      <path d="M-18.7 -7.6 L-18.6 -8.15 -17.6 -10.2 Q-16.45 -12.1 -13.2 -13.85 L-12.85 -14.0 -12.8 -14.05 Q-11.3 -14.8 -10.6 -16.2 -10.0 -18.1 -10.2 -21.1 L-10.25 -21.45 -10.25 -22.5 -10.25 -23.05 -10.25 -23.85 -10.15 -23.75 Q-9.9 -23.35 -8.15 -22.75 L-6.8 -22.3 -6.0 -22.1 -5.45 -22.0 Q-3.55 -21.25 -2.9 -20.35 L-2.8 -20.2 Q-2.45 -19.6 -2.25 -18.55 L-2.1 -17.85 Q-1.95 -16.8 -1.95 -15.35 L-2.0 -14.6 Q-2.1 -14.15 -2.35 -13.85 L-2.9 -13.25 Q-3.7 -12.75 -7.2 -13.65 L-7.85 -13.85 -7.9 -13.85 -9.25 -14.2 -9.3 -14.2 -9.25 -14.15 -8.6 -13.85 -7.9 -13.45 Q-6.75 -12.8 -6.35 -12.35 L-5.75 -11.4 Q-5.75 -11.1 -6.5 -9.95 -7.25 -8.75 -9.55 -7.6 -11.85 -6.4 -13.0 -6.1 L-15.6 -6.0 Q-17.1 -6.15 -17.85 -6.55 -18.6 -6.95 -18.7 -7.6" fill="#b2478e" fill-rule="evenodd" stroke="none"/>
      <path d="M-9.25 -14.2 L-9.25 -14.15 -9.3 -14.2 -9.25 -14.2" fill="#272740" fill-rule="evenodd" stroke="none"/>
      <path d="M3.75 -4.5 L3.7 -4.5 1.85 -5.6 3.9 -6.15 2.95 -7.5 3.05 -7.45 4.85 -6.4 3.9 -6.15 3.75 -4.55 3.75 -4.5 M-18.05 -4.35 L-18.25 -4.0 -18.15 -4.15 -18.3 -4.45 -18.05 -4.35 M-18.55 -3.4 L-18.7 -3.1 -18.8 -3.75 -18.6 -3.35 -18.55 -3.4 M-13.15 -2.55 L-13.6 -2.1 -13.45 -2.3 -13.8 -2.55 -13.15 -2.55 M-14.35 -1.35 L-14.65 -1.0 -14.7 -1.0 -14.7 -1.05 -14.85 -1.5 -14.45 -1.25 -14.35 -1.35 M-9.75 -2.3 L-7.6 -2.3 -8.2 -3.85 -6.65 -2.3 -7.6 -2.3 -8.2 -0.75 -8.3 -0.85 -9.75 -2.3 M-0.95 -3.75 L-1.9 -3.5 -2.05 -1.85 -3.95 -2.95 -1.9 -3.5 -2.85 -4.85 -0.95 -3.75" fill="#949b9b" fill-rule="evenodd" stroke="none"/>
      <path d="M3.8 -4.55 L3.75 -4.5 3.75 -4.55 3.9 -6.15 4.85 -6.4 3.8 -4.55 M-6.65 -2.3 L-8.2 -0.75 -7.6 -2.3 -6.65 -2.3 M-2.05 -1.85 L-1.9 -3.5 -0.95 -3.75 -2.05 -1.85" fill="#7f8c8c" fill-rule="evenodd" stroke="none"/>
      <path d="M-18.6 -6.2 L-18.45 -6.25 -18.25 -5.7 -17.75 -4.25 -18.35 -3.15 -18.7 -3.1 -18.55 -3.4 -18.45 -3.6 -18.35 -3.75 -18.25 -4.0 -18.05 -4.35 -18.2 -4.75 -18.2 -4.8 -18.3 -5.15 -18.35 -5.3 -18.7 -6.2 -18.6 -6.2 M-14.7 -4.05 L-14.75 -4.1 -14.15 -4.25 -13.75 -3.85 -12.5 -2.6 -13.9 -1.2 -14.65 -1.0 -14.35 -1.35 -14.1 -1.6 -13.9 -1.8 -13.6 -2.1 -13.15 -2.55 -13.5 -2.9 -13.55 -2.95 -14.3 -3.7 -14.7 -4.1 -14.7 -4.05" fill="#190412" fill-opacity="0.2" fill-rule="evenodd" stroke="none"/>
      <path d="M-18.9 -3.7 L-18.95 -3.75 -18.95 -3.8 -19.15 -4.4 -19.2 -4.55 -19.25 -4.65 -19.15 -4.85 -19.1 -4.85 -18.9 -4.45 -18.95 -4.75 -18.75 -4.65 -18.8 -4.65 -18.85 -4.3 -18.85 -4.2 -18.8 -3.95 -18.8 -3.8 -18.8 -3.75 -18.8 -3.55 -18.9 -3.7 M-18.35 -5.3 L-18.3 -5.15 -18.2 -4.8 -18.2 -4.75 Q-18.1 -4.45 -18.3 -4.45 L-18.35 -4.5 -18.4 -4.5 -18.65 -4.65 -18.8 -4.8 -18.85 -5.2 -18.8 -5.75 Q-18.7 -6.15 -18.55 -5.75 L-18.35 -5.3 M-15.1 -3.0 L-14.9 -3.6 Q-14.75 -3.95 -14.45 -3.8 L-14.3 -3.7 -13.55 -2.95 -13.5 -2.9 -13.4 -2.75 Q-13.4 -2.6 -13.95 -2.55 L-14.0 -2.55 -14.65 -2.55 -14.9 -2.6 -15.1 -3.0 M-15.7 -2.55 L-15.6 -2.55 Q-15.3 -2.55 -15.15 -2.2 L-15.25 -2.55 -14.75 -2.55 -14.9 -2.5 Q-15.2 -2.4 -15.1 -2.1 L-15.1 -2.05 -15.0 -1.8 -14.95 -1.65 -14.95 -1.6 Q-14.85 -1.2 -15.2 -1.5 L-15.25 -1.55 -15.3 -1.6 -15.8 -2.1 -15.9 -2.2 Q-16.2 -2.5 -15.8 -2.55 L-15.7 -2.55 M-15.0 -1.8 L-14.95 -1.6 -15.0 -1.8" fill="#818e8e" fill-rule="evenodd" stroke="none"/>
      <path d="M-18.95 -4.75 L-18.9 -4.45 -19.1 -4.85 -18.95 -4.75 M-15.6 -2.55 L-15.25 -2.55 -15.15 -2.2 Q-15.3 -2.55 -15.6 -2.55" fill="#abb2b2" fill-rule="evenodd" stroke="none"/>
      <path d="M-18.8 -5.75 L-18.7 -6.15 -18.7 -6.2 -18.55 -5.75 Q-18.7 -6.15 -18.8 -5.75 M-18.65 -4.65 L-18.7 -4.65 -18.75 -4.65 -18.95 -4.75 -18.85 -5.2 -18.8 -4.8 -18.65 -4.65 M-15.25 -2.55 L-15.1 -3.0 -14.9 -2.6 -14.65 -2.55 -14.75 -2.55 -15.25 -2.55 M-14.9 -3.6 L-14.7 -4.05 -14.7 -4.1 -14.3 -3.7 -14.45 -3.8 Q-14.75 -3.95 -14.9 -3.6" fill="#a0a7a7" fill-rule="evenodd" stroke="none"/>
      <path d="M-18.25 -4.0 L-18.35 -3.75 -18.45 -3.6 -18.55 -3.4 -18.6 -3.35 -18.8 -3.75 -18.8 -3.8 -18.8 -3.95 -18.85 -4.2 -18.85 -4.3 -18.8 -4.65 -18.75 -4.65 -18.7 -4.65 -18.65 -4.65 -18.4 -4.5 -18.35 -4.5 -18.3 -4.45 -18.15 -4.15 -18.25 -4.0 M-14.75 -2.55 L-14.65 -2.55 -14.0 -2.55 -13.95 -2.55 -13.85 -2.55 -13.8 -2.55 -13.45 -2.3 -13.6 -2.1 -13.9 -1.8 -14.1 -1.6 -14.35 -1.35 -14.45 -1.25 -14.85 -1.5 -14.85 -1.55 -14.9 -1.6 -14.95 -1.6 -14.95 -1.65 -15.0 -1.8 -15.1 -2.05 -15.1 -2.1 Q-15.2 -2.4 -14.9 -2.5 L-14.75 -2.55" fill="#667d7d" fill-rule="evenodd" stroke="none"/>
      <path d="M1.2 -25.65 L1.15 -25.1 1.1 -25.0 0.9 -22.55 M0.95 -22.45 L2.2 -22.6 2.55 -22.65 M1.1 -25.0 L1.1 -25.1 M-7.25 -23.9 L-7.3 -23.9 -7.25 -23.8 Q-7.05 -23.5 -5.75 -23.1 L-4.75 -22.85 -2.15 -22.45 0.8 -22.4 0.95 -22.4 0.9 -22.45 0.95 -22.45 M8.1 -23.65 L8.05 -23.65 7.5 -23.0 7.1 -22.45 6.6 -21.65 6.05 -20.65 5.85 -20.25 M5.55 -19.1 L5.45 -17.0 M7.95 -23.8 L8.1 -23.8 8.2 -23.75 8.15 -23.7 8.1 -23.65 M8.2 -23.85 L8.2 -23.75 M5.2 -22.6 L6.6 -23.05 8.05 -23.65 M7.95 -23.8 L7.2 -24.0 7.05 -23.95 4.8 -23.2 3.15 -22.8 M5.2 -22.6 L4.5 -22.4 2.85 -22.0 2.2 -21.9 2.1 -21.85 0.85 -21.65 0.4 -21.65 Q-1.5 -21.5 -3.35 -21.7 L-5.45 -22.0 -6.0 -22.1 -6.8 -22.3 -8.15 -22.75 Q-9.9 -23.35 -10.15 -23.75 L-10.25 -23.85" fill="none" stroke="#000000" stroke-linecap="round" stroke-linejoin="round" stroke-opacity="0.15294118" stroke-width="0.05"/>
      <path d="M3.8 -4.55 L3.75 -4.5 3.7 -4.5 M3.05 -7.45 L4.85 -6.4 3.8 -4.55 M2.95 -7.5 L2.85 -7.3 1.85 -5.6 3.9 -6.15 2.95 -7.5 3.05 -7.45 M4.85 -6.4 L3.9 -6.15 3.75 -4.55 3.75 -4.5 M1.85 -5.6 L3.7 -4.5" fill="none" stroke="url(#gradient0)" stroke-linecap="round" stroke-linejoin="round" stroke-width="0.05"/>
      <path d="M-8.2 -3.85 L-8.35 -3.7 -9.75 -2.3 -7.6 -2.3 -8.2 -3.85 -6.65 -2.3 -8.2 -0.75 -8.3 -0.85 M-9.75 -2.3 L-8.3 -0.85 M-8.2 -0.75 L-7.6 -2.3 -6.65 -2.3" fill="none" stroke="url(#gradient1)" stroke-linecap="round" stroke-linejoin="round" stroke-width="0.05"/>
      <path d="M-0.95 -3.75 L-1.9 -3.5 -2.05 -1.85 -0.95 -3.75 -2.85 -4.85 -1.9 -3.5 -3.95 -2.95 -2.05 -1.85 M-2.85 -4.85 L-3.95 -2.95" fill="none" stroke="url(#gradient2)" stroke-linecap="round" stroke-linejoin="round" stroke-width="0.05"/>
      <path d="M19.2 -32.45 L19.25 -32.4 M17.6 -32.2 L17.8 -32.5 18.15 -32.75 M17.4 -31.8 L17.45 -31.95 17.6 -32.2 M18.55 -29.95 L18.25 -30.0 Q17.75 -30.0 17.5 -30.45 17.25 -30.9 17.3 -31.55 L17.4 -31.8 M19.2 -32.45 L18.65 -32.85 18.15 -32.75" fill="none" stroke="#000000" stroke-linecap="round" stroke-linejoin="round" stroke-opacity="0.15294118" stroke-width="0.25"/>
      <path d="M-14.75 -4.0 L-14.7 -4.05 -14.7 -4.1 -14.7 -4.05 M-15.6 -2.55 L-15.25 -2.55 -15.1 -3.0 -14.9 -3.6 -14.7 -4.05 M-15.7 -2.55 L-15.6 -2.55 M-15.15 -2.2 L-15.25 -2.55 -14.75 -2.55 M-15.9 -2.2 L-16.25 -2.55 -14.9 -3.9 M-15.3 -1.6 L-15.8 -2.1 M-15.8 -2.55 L-16.25 -2.55 M-15.25 -1.55 L-15.2 -1.5 M-14.95 -1.6 L-15.0 -1.8 -15.1 -2.05 M-14.75 -4.0 L-14.9 -3.9 M-14.7 -4.1 L-14.3 -3.7 -13.55 -2.95 M-14.1 -1.6 L-14.35 -1.35 -14.65 -1.0 M-13.8 -2.55 L-13.85 -2.55 M-14.0 -2.55 L-14.65 -2.55 M-13.15 -2.55 L-13.8 -2.55 M-14.9 -1.6 L-14.85 -1.55 -14.85 -1.5 -14.7 -1.05 -14.7 -1.0 -14.65 -1.0 M-14.7 -1.0 L-14.9 -1.2 -15.2 -1.5" fill="none" stroke="url(#gradient3)" stroke-linecap="round" stroke-linejoin="round" stroke-width="0.05"/>
      <path d="M-18.9 -3.7 L-18.95 -3.75 M-19.2 -4.55 L-19.25 -4.65 M-18.35 -5.3 L-18.3 -5.15 -18.2 -4.8 M-18.45 -3.6 L-18.55 -3.4 -18.7 -3.1 -18.75 -3.3 M-18.8 -5.75 L-18.7 -6.15 -18.7 -6.2 -18.8 -6.0 M-18.65 -4.65 L-18.7 -4.65 M-18.85 -4.2 L-18.8 -3.95 -18.8 -3.8 M-18.95 -4.75 L-18.85 -5.2 -18.8 -5.75 M-18.65 -4.65 L-18.4 -4.5 M-18.35 -4.5 L-18.3 -4.45 M-18.75 -4.65 L-18.95 -4.75 -18.9 -4.45 M-18.35 -5.3 L-18.55 -5.75 -18.7 -6.2 M-19.35 -4.95 L-19.15 -4.85 M-18.05 -4.35 L-18.3 -4.45 M-18.8 -3.75 L-18.7 -3.1 M-19.1 -4.85 L-18.95 -4.75" fill="none" stroke="url(#gradient4)" stroke-linecap="round" stroke-linejoin="round" stroke-width="0.05"/>
      <path d="M2.45 -29.9 L3.05 -31.0 3.15 -31.25 Q4.85 -34.05 7.9 -36.75 L8.05 -36.85 10.2 -38.0 Q11.65 -38.7 15.25 -37.95 L17.1 -37.1 17.95 -36.55 Q19.2 -35.75 19.2 -34.75 L19.2 -34.6 19.2 -32.45 M19.25 -32.4 L19.35 -32.3 19.55 -31.3 19.1 -30.25 Q18.85 -30.0 18.55 -29.95 L17.5 -28.95 17.15 -28.6 M17.15 -28.55 L16.25 -24.1 15.85 -19.25 15.8 -12.7 16.0 -10.0 13.8 -8.85 12.2 -9.9 12.35 -14.35 Q12.3 -19.45 11.0 -22.55 L10.1 -24.25 7.6 -21.55 6.55 -19.85 5.45 -17.0 5.65 -13.85 5.8 -13.05 5.85 -12.7 5.95 -12.25 6.2 -11.15 6.35 -10.65 6.45 -10.3 M6.5 -10.4 L6.5 -6.95 Q6.4 -6.6 5.7 -5.95 L4.95 -5.35 3.8 -4.55 M3.7 -4.5 L1.9 -3.55 0.55 -2.9 Q-0.75 -2.3 -2.05 -1.85 -5.1 -0.8 -8.3 -0.5 L-9.6 -0.45 -9.9 -0.4 -10.55 -0.4 -11.1 -0.4 -14.7 -0.75 -14.9 -0.8 Q-16.85 -1.25 -17.9 -2.1 L-18.3 -2.5 -18.75 -3.3 -18.9 -3.7 M-18.95 -3.8 L-19.15 -4.4 M-19.25 -4.65 L-19.35 -4.95 -18.8 -6.0 -18.8 -6.5 -18.85 -6.55 -18.8 -6.9 M-18.8 -7.15 L-18.7 -7.6 -18.6 -8.15 -17.6 -10.2 Q-16.45 -12.1 -13.2 -13.85 L-12.85 -14.0 -12.8 -14.05 Q-11.3 -14.8 -10.6 -16.2 -10.0 -18.1 -10.2 -21.1 L-10.25 -21.45 -10.25 -22.5 -10.25 -23.05 -10.25 -23.85 -10.25 -23.95 -9.6 -24.4 -8.8 -24.7 -8.75 -24.7 -5.9 -25.2 1.2 -25.65 1.35 -26.45 1.35 -26.65 Q1.65 -28.3 2.45 -29.9 M7.95 -24.5 L8.35 -25.3 9.25 -25.9 9.75 -25.9 10.05 -25.8 Q10.35 -25.55 10.25 -25.05 10.2 -24.55 9.8 -24.15 L8.9 -23.55 8.1 -23.65 M7.95 -24.5 L7.85 -24.35 7.95 -23.8 M13.95 -26.6 Q13.6 -26.7 13.3 -27.0 12.95 -27.35 12.95 -27.9 L12.95 -28.05 Q13.0 -28.5 13.3 -28.8 13.7 -29.2 14.2 -29.2 L14.75 -29.1 15.05 -28.85 Q15.45 -28.45 15.45 -27.95 L15.3 -27.35 15.05 -27.05 14.2 -26.6 13.95 -26.6" fill="none" stroke="#000000" stroke-linecap="round" stroke-linejoin="round" stroke-opacity="0.3019608" stroke-width="0.5"/>
    </g>
    <radialGradient cx="0" cy="0" gradientTransform="matrix(-0.0018, 5.0E-4, 5.0E-4, 0.0018, 3.95, -6.2)" gradientUnits="userSpaceOnUse" id="gradient0" r="819.2" spreadMethod="pad">
      <stop offset="0.0" stop-color="#ffffff" stop-opacity="0.5529412"/>
      <stop offset="0.9921568627450981" stop-color="#ffffff" stop-opacity="0.0"/>
    </radialGradient>
    <radialGradient cx="0" cy="0" gradientTransform="matrix(-0.0019, 0.0, 0.0, 0.0019, -7.6, -2.3)" gradientUnits="userSpaceOnUse" id="gradient1" r="819.2" spreadMethod="pad">
      <stop offset="0.0" stop-color="#ffffff" stop-opacity="0.5529412"/>
      <stop offset="0.9921568627450981" stop-color="#ffffff" stop-opacity="0.0"/>
    </radialGradient>
    <radialGradient cx="0" cy="0" gradientTransform="matrix(-0.0018, 5.0E-4, 5.0E-4, 0.0018, -1.85, -3.55)" gradientUnits="userSpaceOnUse" id="gradient2" r="819.2" spreadMethod="pad">
      <stop offset="0.0" stop-color="#ffffff" stop-opacity="0.5529412"/>
      <stop offset="0.9921568627450981" stop-color="#ffffff" stop-opacity="0.0"/>
    </radialGradient>
    <radialGradient cx="0" cy="0" gradientTransform="matrix(0.0019, 0.0, 0.0, 0.0019, -15.3, -2.6)" gradientUnits="userSpaceOnUse" id="gradient3" r="819.2" spreadMethod="pad">
      <stop offset="0.0" stop-color="#ffffff" stop-opacity="0.5529412"/>
      <stop offset="0.9921568627450981" stop-color="#ffffff" stop-opacity="0.0"/>
    </radialGradient>
    <radialGradient cx="0" cy="0" gradientTransform="matrix(8.0E-4, 4.0E-4, 0.0, 0.0019, -18.95, -4.8)" gradientUnits="userSpaceOnUse" id="gradient4" r="819.2" spreadMethod="pad">
      <stop offset="0.0" stop-color="#ffffff" stop-opacity="0.5529412"/>
      <stop offset="0.9921568627450981" stop-color="#ffffff" stop-opacity="0.0"/>
    </radialGradient>
    <g id="sprite1" transform="matrix(1.0, 0.0, 0.0, 1.0, 2.3, 4.6)">
      <use height="4.6" transform="matrix(1.0, 0.0, 0.0, 1.0, -2.3, -4.6)" width="4.6" xlink:href="#shape2"/>
    </g>
    <g id="shape2" transform="matrix(1.0, 0.0, 0.0, 1.0, 2.3, 4.6)">
      <path d="M1.6 -0.7 Q0.95 0.0 0.0 0.0 -0.95 0.0 -1.65 -0.7 -2.3 -1.35 -2.3 -2.3 -2.3 -3.25 -1.65 -3.95 -0.95 -4.6 0.0 -4.6 0.95 -4.6 1.6 -3.95 2.3 -3.25 2.3 -2.3 2.3 -1.35 1.6 -0.7" fill="url(#gradient5)" fill-rule="evenodd" stroke="none"/>
    </g>
    <radialGradient cx="0" cy="0" gradientTransform="matrix(0.0037, 0.0, 0.0, 0.0037, 0.0, -2.3)" gradientUnits="userSpaceOnUse" id="gradient5" r="819.2" spreadMethod="pad">
      <stop offset="0.0" stop-color="#b2b2b2"/>
      <stop offset="1.0" stop-color="#b2b2b2" stop-opacity="0.0"/>
    </radialGradient>
  </defs>
</svg>
