<?xml version="1.0" encoding="UTF-8" standalone="no"?>
<svg xmlns:xlink="http://www.w3.org/1999/xlink" height="520.0px" width="520.0px" xmlns="http://www.w3.org/2000/svg">
  <g transform="matrix(10.0, 0.0, 0.0, 10.0, 0.0, 0.0)">
    <use height="52.0" transform="matrix(1.0, 0.0, 0.0, 1.0, 0.0, 0.0)" width="52.0" xlink:href="#shape0"/>
    <use height="82.7" transform="matrix(0.484, -0.0131, 0.0145, 0.2178, 3.3, 26.6)" width="82.7" xlink:href="#sprite0"/>
    <use height="44.95" transform="matrix(0.5723, -0.0626, 0.0352, 0.5693, 1.1557, 12.4537)" width="61.45" xlink:href="#sprite1"/>
    <use height="44.35" transform="matrix(0.5723, -0.0626, 0.0352, 0.5693, 1.2648, 12.5741)" width="60.95" xlink:href="#sprite2"/>
    <use height="23.4" transform="matrix(1.0, 0.0, 0.0, 1.0, 14.95, 23.8)" width="29.25" xlink:href="#shape4"/>
    <use height="34.8" transform="matrix(0.3602, 0.469, 0.4265, -0.2806, 10.7, 28.6)" width="34.8" xlink:href="#sprite3"/>
    <use height="23.05" transform="matrix(1.0, 0.0, 0.0, 1.0, 36.2, 11.55)" width="14.7" xlink:href="#shape6"/>
  </g>
  <defs>
    <g id="shape0" transform="matrix(1.0, 0.0, 0.0, 1.0, 0.0, 0.0)">
      <path d="M52.0 0.0 L52.0 52.0 0.0 52.0 0.0 0.0 52.0 0.0" fill="#33cc33" fill-opacity="0.0" fill-rule="evenodd" stroke="none"/>
    </g>
    <g id="sprite0" transform="matrix(1.0, 0.0, 0.0, 1.0, 0.0, 0.0)">
      <use height="82.7" transform="matrix(1.0, 0.0, 0.0, 1.0, 0.0, 0.0)" width="82.7" xlink:href="#shape1"/>
    </g>
    <g id="shape1" transform="matrix(1.0, 0.0, 0.0, 1.0, 0.0, 0.0)">
      <path d="M70.6 12.1 Q82.7 24.2 82.7 41.35 82.7 58.5 70.6 70.6 58.5 82.7 41.35 82.7 24.2 82.7 12.1 70.6 0.0 58.5 0.0 41.35 0.0 24.2 12.1 12.1 24.2 0.0 41.35 0.0 58.5 0.0 70.6 12.1" fill="url(#gradient0)" fill-rule="evenodd" stroke="none"/>
    </g>
    <radialGradient cx="0" cy="0" gradientTransform="matrix(0.0508, 0.0, 0.0, 0.0508, 41.35, 41.35)" gradientUnits="userSpaceOnUse" id="gradient0" r="819.2" spreadMethod="pad">
      <stop offset="0.0" stop-color="#000000" stop-opacity="0.3019608"/>
      <stop offset="1.0" stop-color="#000000" stop-opacity="0.0"/>
    </radialGradient>
    <g id="sprite1" transform="matrix(1.0, 0.0, 0.0, 1.0, 0.25, 14.25)">
      <use height="44.95" transform="matrix(1.0, 0.0, 0.0, 1.0, -0.25, -14.25)" width="61.45" xlink:href="#shape2"/>
    </g>
    <g id="shape2" transform="matrix(1.0, 0.0, 0.0, 1.0, 0.25, 14.25)">
      <path d="M37.5 -7.35 L37.2 -8.9 37.0 -10.25 36.75 -13.7 37.6 -14.0 38.95 -13.15 Q39.25 -12.9 39.8 -10.7 L37.5 -7.35 M39.15 -1.35 L42.05 -4.65 42.35 -1.45 Q42.85 2.0 43.75 3.8 L44.2 4.6 45.55 5.8 47.1 7.85 49.65 11.15 Q47.85 10.75 45.05 8.2 L44.95 8.15 43.2 5.95 Q41.5 3.65 40.25 1.1 L39.15 -1.35 M46.25 -0.2 L45.9 -2.0 45.95 -2.2 43.85 -3.4 43.85 -4.55 45.95 -3.0 45.85 -4.15 48.35 -5.4 Q48.3 -4.75 48.4 -4.0 L48.5 -3.15 46.25 -0.2 M46.8 -12.5 Q47.35 -12.7 47.6 -12.1 L47.9 -10.5 46.1 -8.45 46.8 -12.5 M42.35 -1.45 L40.25 1.1 42.35 -1.45 M45.95 -3.0 L45.95 -2.2 45.95 -3.0 M55.45 -3.3 L56.85 -5.05 57.9 -6.25 Q58.35 -5.9 58.35 -5.05 L58.4 -4.55 57.85 -3.7 55.45 -3.3 M52.85 0.35 L54.65 -0.2 53.8 3.95 51.55 4.9 52.85 0.35 M53.5 5.2 L51.35 12.35 51.15 13.15 47.95 6.6 46.85 3.15 48.7 0.3 Q49.05 5.45 49.7 8.7 L49.8 8.95 49.8 8.9 50.3 10.15 51.1 6.4 53.5 5.2 M50.3 10.15 L50.35 10.35 50.3 10.15 50.35 10.35 50.3 10.15 M43.75 3.8 L43.2 5.95 43.75 3.8 M50.35 10.35 L51.15 13.15 50.35 10.35" fill="#e9d411" fill-rule="evenodd" stroke="none"/>
      <path d="M35.85 -0.95 L35.75 -1.3 35.35 -3.0 34.3 -6.5 37.9 -5.5 Q38.15 -4.2 38.55 -3.1 L39.15 -1.35 40.25 1.1 35.85 -0.95 M37.2 -8.9 L34.85 -10.3 Q35.05 -12.1 35.95 -13.1 L36.75 -13.7 37.0 -10.25 37.2 -8.9 M44.1 1.4 L44.1 1.2 43.9 -0.95 46.1 -0.05 46.25 0.0 46.85 3.15 44.1 1.4 M45.9 -5.65 L44.2 -7.15 44.2 -7.4 44.9 -9.75 44.95 -9.85 Q45.45 -11.05 46.15 -11.9 L46.8 -12.5 46.1 -8.45 45.9 -5.65 M44.9 -9.75 L46.1 -8.45 44.9 -9.75 M35.35 -3.0 L39.15 -1.35 35.35 -3.0 M55.45 -3.3 L55.1 -5.4 55.45 -3.3 53.85 -1.5 53.45 -4.3 55.1 -5.4 56.6 -6.4 57.9 -6.25 56.85 -5.05 55.45 -3.3 M51.15 13.15 Q47.45 12.2 42.15 7.6 L39.65 5.25 43.05 6.25 43.2 5.95 44.95 8.15 45.05 8.2 Q47.85 10.75 49.65 11.15 L51.15 13.15 M49.8 8.9 L50.1 5.2 Q50.15 4.05 50.45 3.05 L50.55 2.5 Q51.1 0.45 51.85 -0.9 L52.85 0.35 51.55 4.9 51.1 6.4 50.3 10.15 49.8 8.9 M50.1 5.2 L51.1 6.4 50.1 5.2 M50.45 3.05 L51.55 4.9 50.45 3.05" fill="#c9aa0f" fill-rule="evenodd" stroke="none"/>
      <path d="M37.9 -5.5 L37.5 -7.35 39.8 -10.7 40.5 -7.45 38.55 -3.1 Q38.15 -4.2 37.9 -5.5 M47.9 -10.5 L48.1 -8.65 45.9 -5.65 46.1 -8.45 47.9 -10.5 M46.25 0.0 L46.25 -0.2 48.5 -3.15 48.7 0.3 46.85 3.15 46.25 0.0 M53.85 -1.5 L55.45 -3.3 57.85 -3.7 55.85 -1.6 53.95 -1.15 53.85 -1.5 M53.8 3.95 L53.75 4.05 53.5 5.2 51.1 6.4 51.55 4.9 53.8 3.95" fill="#ebdd56" fill-rule="evenodd" stroke="none"/>
      <path d="M45.55 5.8 Q44.5 3.8 44.1 1.4 L46.85 3.15 47.95 6.6 51.15 13.15 49.65 11.15 47.1 7.85 45.55 5.8 M39.65 5.25 L39.8 5.1 Q40.15 4.7 40.1 4.1 39.9 3.45 39.5 3.1 39.0 2.65 38.25 2.65 L37.65 2.7 37.35 2.25 37.4 2.15 Q38.0 1.5 37.5 1.1 L36.55 0.8 35.85 -0.95 40.25 1.1 Q41.5 3.65 43.2 5.95 L43.05 6.25 39.65 5.25" fill="#b4950d" fill-rule="evenodd" stroke="none"/>
      <path d="M44.1 1.4 L44.1 1.2 M46.1 -0.05 L46.25 -0.2 48.5 -3.15 M44.9 -9.75 L44.95 -9.85 M45.9 -5.65 L46.1 -8.45 44.9 -9.75 M35.85 -0.95 L40.25 1.1 39.15 -1.35 35.35 -3.0 M37.2 -8.9 L37.0 -10.25 36.75 -13.7 M38.55 -3.1 Q38.15 -4.2 37.9 -5.5 M40.25 1.1 L42.35 -1.45 M45.95 -2.2 L45.95 -3.0 M46.1 -8.45 L46.8 -12.5 M46.1 -8.45 L47.9 -10.5 M37.5 -7.35 L39.8 -10.7 M55.1 -5.4 L55.45 -3.3 56.85 -5.05 M53.85 -1.5 L55.45 -3.3 57.85 -3.7 M39.65 5.25 L43.05 6.25 43.2 5.95 Q41.5 3.65 40.25 1.1 M51.15 13.15 L47.95 6.6 46.85 3.15 44.1 1.4 M48.7 0.3 L46.85 3.15 46.25 0.0 M50.3 10.15 L51.1 6.4 50.1 5.2 M51.55 4.9 L53.8 3.95 M51.1 6.4 L53.5 5.2 M51.1 6.4 L51.55 4.9 50.45 3.05 M51.55 4.9 L52.85 0.35 M49.65 11.15 Q47.85 10.75 45.05 8.2 L44.95 8.15 43.2 5.95 43.75 3.8" fill="none" stroke="#000000" stroke-linecap="round" stroke-linejoin="round" stroke-opacity="0.15294118" stroke-width="0.25"/>
      <path d="M35.85 -0.95 L35.75 -1.3 35.35 -3.0 34.3 -6.5 37.9 -5.5 37.5 -7.35 37.2 -8.9 34.85 -10.3 Q35.05 -12.1 35.95 -13.1 L36.75 -13.7 37.6 -14.0 38.95 -13.15 Q39.25 -12.9 39.8 -10.7 L40.5 -7.45 38.55 -3.1 39.15 -1.35 42.05 -4.65 42.35 -1.45 Q42.85 2.0 43.75 3.8 L44.2 4.6 45.55 5.8 Q44.5 3.8 44.1 1.4 M44.1 1.2 L43.9 -0.95 46.1 -0.05 46.25 0.0 46.25 -0.2 45.9 -2.0 45.95 -2.2 43.85 -3.4 43.85 -4.55 45.95 -3.0 45.85 -4.15 45.9 -5.65 44.2 -7.15 44.2 -7.4 44.9 -9.75 M44.95 -9.85 Q45.45 -11.05 46.15 -11.9 L46.8 -12.5 Q47.35 -12.7 47.6 -12.1 L47.9 -10.5 48.1 -8.65 45.9 -5.65 M39.65 5.25 L39.8 5.1 Q40.15 4.7 40.1 4.1 39.9 3.45 39.5 3.1 39.0 2.65 38.25 2.65 L37.65 2.7 37.35 2.25 37.4 2.15 Q38.0 1.5 37.5 1.1 L36.55 0.8 35.85 -0.95 M48.5 -3.15 L48.4 -4.0 Q48.3 -4.75 48.35 -5.4 L45.85 -4.15 M57.9 -6.25 L56.6 -6.4 55.1 -5.4 53.45 -4.3 53.85 -1.5 53.65 -1.05 53.95 -1.15 55.85 -1.6 57.85 -3.7 58.4 -4.55 58.35 -5.05 Q58.35 -5.9 57.9 -6.25 M52.85 0.35 L54.65 -0.2 53.8 3.95 53.75 4.05 53.5 5.2 51.35 12.35 51.15 13.15 Q47.45 12.2 42.15 7.6 L39.65 5.25 M53.95 -1.15 L53.85 -1.5 M49.8 8.9 L50.1 5.2 Q50.15 4.05 50.45 3.05 L50.55 2.5 Q51.1 0.45 51.85 -0.9 L52.85 0.35 53.65 -1.05 M49.65 11.15 L47.1 7.85 45.55 5.8 M49.7 8.7 L49.8 8.95 49.8 8.9 49.7 8.7 Q49.05 5.45 48.7 0.3 M50.3 10.15 L50.35 10.35 50.3 10.15 49.8 8.9 M49.65 11.15 L51.15 13.15 50.35 10.35 M48.5 -3.15 L48.7 0.3" fill="none" stroke="#000000" stroke-linecap="round" stroke-linejoin="round" stroke-opacity="0.3019608" stroke-width="0.5"/>
      <path d="M55.2 13.95 Q55.45 14.7 55.35 15.5 55.25 16.65 54.7 17.4 L54.2 17.85 Q53.15 18.75 51.8 18.45 50.4 18.25 49.5 17.05 L49.05 16.25 Q48.7 15.4 48.7 14.35 48.9 12.95 50.0 12.05 L50.55 11.65 52.3 11.4 Q53.75 11.7 54.65 12.85 L55.2 13.95" fill="#000000" fill-opacity="0.3019608" fill-rule="evenodd" stroke="none"/>
      <path d="M49.3 15.05 Q48.95 14.25 49.0 13.2 49.15 11.8 50.25 10.9 L50.75 10.45 Q50.15 11.3 50.0 12.4 L50.0 12.75 Q50.05 13.85 50.7 14.8 50.6 15.75 49.3 15.05" fill="#4d3719" fill-rule="evenodd" stroke="none"/>
      <path d="M50.75 10.45 L52.6 10.2 Q53.95 10.5 54.9 11.65 L55.45 12.75 Q53.2 13.75 50.0 12.75 L50.0 12.4 Q50.15 11.3 50.75 10.45" fill="#6e5125" fill-rule="evenodd" stroke="none"/>
      <path d="M55.0 16.2 L54.45 16.7 Q53.4 17.6 52.0 17.25 50.65 17.1 49.8 15.9 L49.3 15.05 Q50.6 15.75 50.7 14.8 L50.85 15.0 Q51.7 16.25 53.0 16.5 L55.0 16.2" fill="#362611" fill-rule="evenodd" stroke="none"/>
      <path d="M55.45 12.75 L55.6 14.3 Q55.55 15.45 55.0 16.2 L53.0 16.5 Q51.7 16.25 50.85 15.0 L50.7 14.8 Q50.05 13.85 50.0 12.75 53.2 13.75 55.45 12.75" fill="#654722" fill-rule="evenodd" stroke="none"/>
      <path d="M50.75 10.45 L52.6 10.2 Q53.95 10.5 54.9 11.65 L55.45 12.75 55.6 14.3 Q55.55 15.45 55.0 16.2 L54.45 16.7 Q53.4 17.6 52.0 17.25 50.65 17.1 49.8 15.9 L49.3 15.05 Q48.95 14.25 49.0 13.2 49.15 11.8 50.25 10.9 L50.75 10.45 Z" fill="none" stroke="#000000" stroke-linecap="round" stroke-linejoin="round" stroke-opacity="0.3019608" stroke-width="0.5"/>
      <path d="M53.45 11.45 L53.5 13.0 54.85 13.35 54.8 14.6 53.65 14.5 53.65 15.8 52.7 15.65 52.7 14.6 52.25 14.6 52.1 14.65 51.2 14.65 50.7 12.95 52.45 13.0 52.25 11.5 53.45 11.45" fill="#000000" fill-opacity="0.3019608" fill-rule="evenodd" stroke="none"/>
      <path d="M54.05 12.55 L54.9 12.75 54.85 14.0 54.15 14.0 Q53.2 13.5 54.05 12.55" fill="#e9d411" fill-rule="evenodd" stroke="none"/>
      <path d="M52.5 12.4 L52.3 10.85 53.5 10.85 53.5 12.35 52.8 12.4 52.5 12.4" fill="#c9aa0f" fill-rule="evenodd" stroke="none"/>
      <path d="M53.7 13.95 L53.65 15.2 52.8 15.0 52.75 14.0 53.7 13.95" fill="#b4950d" fill-rule="evenodd" stroke="none"/>
      <path d="M52.3 14.0 L52.15 14.05 51.3 14.1 50.75 12.35 52.5 12.4 52.8 12.4 Q54.1 12.9 52.3 14.0" fill="#ebdd56" fill-rule="evenodd" stroke="none"/>
      <path d="M53.5 12.35 L54.05 12.55 Q53.2 13.5 54.15 14.0 L53.7 13.95 52.75 14.0 52.3 14.0 Q54.1 12.9 52.8 12.4 L53.5 12.35" fill="#d5be10" fill-rule="evenodd" stroke="none"/>
      <path d="M52.5 12.4 L52.3 10.85 53.5 10.85 53.5 12.35 54.05 12.55 54.9 12.75 54.85 14.0 54.15 14.0 53.7 13.95 53.65 15.2 52.8 15.0 52.75 14.0 52.3 14.0 M52.15 14.05 L51.3 14.1 50.75 12.35 52.5 12.4 52.8 12.4 53.5 12.35 M52.75 14.0 L53.7 13.95" fill="none" stroke="#000000" stroke-linecap="round" stroke-linejoin="round" stroke-opacity="0.15294118" stroke-width="0.25"/>
      <path d="M49.45 6.95 L46.4 10.75 43.55 11.15 45.35 6.2 49.45 6.95" fill="#94825e" fill-rule="evenodd" stroke="none"/>
      <path d="M44.5 5.35 L48.8 6.2 49.45 6.95 45.35 6.2 44.5 5.35" fill="#e8d5b4" fill-rule="evenodd" stroke="none"/>
      <path d="M43.55 11.15 L42.55 11.25 44.5 5.35 45.35 6.2 43.55 11.15" fill="#d1c1a4" fill-rule="evenodd" stroke="none"/>
      <path d="M44.5 5.35 L48.8 6.2 49.45 6.95 46.4 10.75 43.55 11.15 42.55 11.25 44.5 5.35 Z" fill="none" stroke="#000000" stroke-linecap="round" stroke-linejoin="round" stroke-opacity="0.3019608" stroke-width="0.5"/>
      <path d="M42.95 16.35 Q43.6 13.1 49.5 9.85 L49.5 9.8 52.35 9.7 Q59.45 9.25 58.45 12.5 57.7 14.8 50.0 15.75 L51.15 16.5 Q53.5 18.25 55.35 20.4 51.8 18.1 48.2 16.85 L46.5 16.3 46.3 16.35 44.3 16.45 42.95 16.35" fill="#b29d72" fill-rule="evenodd" stroke="none"/>
      <path d="M49.5 9.8 L49.5 9.85 Q43.6 13.1 42.95 16.35 37.6 15.95 34.45 12.1 L33.4 10.3 32.05 7.95 Q29.7 2.65 32.2 6.35 L33.25 7.65 Q37.3 10.85 42.9 10.15 L49.5 9.8 M45.05 27.6 L43.0 24.9 46.1 24.2 45.05 27.6" fill="#94825e" fill-rule="evenodd" stroke="none"/>
      <path d="M42.95 16.35 L44.3 16.45 46.3 16.35 46.5 16.3 48.2 16.85 Q51.8 18.1 55.35 20.4 L55.7 20.85 56.85 22.45 Q51.35 18.45 45.8 17.1 L43.15 17.1 Q35.85 16.65 32.8 10.35 L32.75 10.2 32.7 10.15 Q29.1 3.45 30.4 2.45 33.6 9.5 40.8 9.4 L53.2 8.8 Q61.95 8.4 60.8 12.8 58.6 15.45 51.15 16.5 L50.0 15.75 Q57.7 14.8 58.45 12.5 59.45 9.25 52.35 9.7 L49.5 9.8 42.9 10.15 Q37.3 10.85 33.25 7.65 L32.2 6.35 Q29.7 2.65 32.05 7.95 L33.4 10.3 34.45 12.1 Q37.6 15.95 42.95 16.35 M33.4 10.3 L32.8 10.15 32.7 10.15 32.8 10.15 33.4 10.3" fill="#e8d5b4" fill-rule="evenodd" stroke="none"/>
      <path d="M40.65 18.45 Q44.6 19.7 48.65 22.05 51.6 23.75 53.65 25.5 L54.6 26.4 45.05 27.6 46.1 24.2 43.0 24.9 Q39.95 25.65 36.8 26.9 L35.55 25.75 Q33.45 23.95 30.15 22.35 L29.85 22.2 Q35.8 20.85 40.65 18.45" fill="#b9a685" fill-rule="evenodd" stroke="none"/>
      <path d="M55.35 20.4 Q53.5 18.25 51.15 16.5 58.6 15.45 60.8 12.8 61.1 19.15 57.75 24.05 L56.05 26.2 54.6 26.4 53.65 25.5 Q51.6 23.75 48.65 22.05 44.6 19.7 40.65 18.45 L43.15 17.1 45.8 17.1 Q51.35 18.45 56.85 22.45 L55.7 20.85 55.35 20.4 M56.85 22.45 L57.75 24.05 56.85 22.45" fill="#bcad92" fill-rule="evenodd" stroke="none"/>
      <path d="M43.15 17.1 L40.65 18.45 Q37.3 17.4 34.05 17.15 L28.4 16.3 24.2 15.45 22.95 14.65 20.7 13.75 20.2 13.75 20.25 13.85 19.55 13.75 18.55 13.75 Q17.85 13.9 17.8 14.5 L15.4 14.2 7.9 13.2 2.35 12.0 0.1 11.4 0.5 9.25 Q4.3 11.05 8.15 11.05 L8.35 11.05 16.55 10.2 25.25 9.4 32.7 10.15 25.25 9.4 16.55 10.2 8.35 11.05 8.15 11.05 Q4.3 11.05 0.5 9.25 L0.6 9.0 Q1.45 7.25 2.35 7.35 L6.2 8.4 Q10.6 9.05 16.0 7.75 L16.1 7.75 19.1 6.9 Q20.8 6.25 22.5 5.2 L24.25 4.05 Q27.4 2.25 30.35 2.45 L30.4 2.45 Q29.1 3.45 32.7 10.15 L32.75 10.2 32.8 10.35 Q35.85 16.65 43.15 17.1 M9.45 11.65 L7.3 12.05 Q7.1 13.1 9.6 13.1 L10.4 13.1 10.9 12.6 10.8 12.3 9.6 11.7 9.45 11.65" fill="#d1c1a4" fill-rule="evenodd" stroke="none"/>
      <path d="M17.8 14.5 Q17.85 13.9 18.55 13.75 L19.55 13.75 20.25 13.85 20.2 13.75 20.7 13.75 22.95 14.65 24.2 15.45 22.3 15.15 17.8 14.5 M9.45 11.65 L9.6 11.7 10.8 12.3 10.9 12.6 10.4 13.1 9.6 13.1 Q7.1 13.1 7.3 12.05 L9.45 11.65" fill="#74812b" fill-rule="evenodd" stroke="none"/>
      <path d="M0.1 11.4 L2.35 12.0 7.9 13.2 15.4 14.2 17.8 14.5 17.8 14.65 Q17.8 15.95 20.05 17.05 21.95 18.05 23.3 18.05 L24.4 17.95 Q25.2 17.75 25.2 17.15 25.2 16.3 24.2 15.45 L28.4 16.3 34.05 17.15 Q37.3 17.4 40.65 18.45 35.8 20.85 29.85 22.2 24.5 19.55 18.9 18.6 18.25 17.6 16.9 16.8 14.55 15.3 11.9 15.3 9.0 15.3 7.95 16.8 7.5 17.45 7.4 18.65 6.3 19.0 5.55 19.5 L5.1 19.85 4.3 19.6 Q3.2 19.6 2.7 20.05 L2.4 20.3 Q-0.4 16.25 0.1 11.4" fill="#ccb893" fill-rule="evenodd" stroke="none"/>
      <path d="M4.1 22.4 L2.4 20.3 2.7 20.05 Q3.2 19.6 4.3 19.6 L5.1 19.85 Q4.1 20.75 4.1 22.05 L4.1 22.4 M24.2 15.45 Q25.2 16.3 25.2 17.15 25.2 17.75 24.4 17.95 L23.3 18.05 Q21.95 18.05 20.05 17.05 17.8 15.95 17.8 14.65 L17.8 14.5 22.3 15.15 24.2 15.45 M7.4 18.65 Q7.5 17.45 7.95 16.8 9.0 15.3 11.9 15.3 14.55 15.3 16.9 16.8 18.25 17.6 18.9 18.6 L12.4 18.05 7.4 18.65" fill="#687326" fill-rule="evenodd" stroke="none"/>
      <path d="M22.5 30.45 Q18.2 30.5 14.65 29.45 13.8 28.45 13.8 27.65 13.8 26.65 14.8 26.1 16.2 25.3 19.8 25.25 L19.95 25.35 Q22.55 26.7 22.55 29.5 L22.5 30.45" fill="#424617" fill-rule="evenodd" stroke="none"/>
      <path d="M32.05 29.0 L32.0 29.05 Q26.85 30.35 22.5 30.45 L22.55 29.5 Q22.55 26.7 19.95 25.35 L19.8 25.25 20.35 25.25 Q23.6 25.25 27.85 26.7 31.05 27.85 32.05 29.0" fill="#a28d69" fill-rule="evenodd" stroke="none"/>
      <path d="M36.8 26.9 L32.05 29.0 Q31.05 27.85 27.85 26.7 23.6 25.25 20.35 25.25 L19.8 25.25 Q18.2 24.45 16.45 24.45 L16.45 24.0 16.65 23.8 Q23.85 23.55 29.85 22.2 L30.15 22.35 Q33.45 23.95 35.55 25.75 L36.8 26.9" fill="#ab997b" fill-rule="evenodd" stroke="none"/>
      <path d="M5.4 23.6 L4.1 22.4 4.1 22.05 Q4.1 20.75 5.1 19.85 L5.2 19.9 5.85 20.2 6.35 20.1 6.8 20.0 7.65 20.25 7.65 20.3 7.75 20.3 7.65 20.25 7.45 19.9 7.4 19.15 7.4 18.65 12.4 18.05 18.9 18.6 Q19.45 19.45 19.45 20.45 19.45 22.05 18.25 22.9 L17.3 23.45 Q16.9 23.65 16.65 23.8 11.35 24.0 5.4 23.6" fill="#5b6522" fill-rule="evenodd" stroke="none"/>
      <path d="M7.4 18.65 L7.4 19.15 7.45 19.9 7.65 20.25 7.75 20.3 7.65 20.3 7.65 20.25 6.8 20.0 6.35 20.1 5.85 20.2 5.2 19.9 5.1 19.85 5.55 19.5 Q6.3 19.0 7.4 18.65 M18.9 18.6 Q24.5 19.55 29.85 22.2 23.85 23.55 16.65 23.8 16.9 23.65 17.3 23.45 L18.25 22.9 Q19.45 22.05 19.45 20.45 19.45 19.45 18.9 18.6" fill="#c0ad8a" fill-rule="evenodd" stroke="none"/>
      <path d="M14.65 29.45 Q9.85 28.0 6.4 24.45 L5.4 23.6 Q11.35 24.0 16.65 23.8 L16.45 24.0 16.45 24.45 Q18.2 24.45 19.8 25.25 16.2 25.3 14.8 26.1 13.8 26.65 13.8 27.65 13.8 28.45 14.65 29.45" fill="#4e561d" fill-rule="evenodd" stroke="none"/>
      <path d="M0.5 9.25 L0.1 11.4 M54.6 26.4 L56.05 26.2 57.75 24.05 Q61.1 19.15 60.8 12.8 61.95 8.4 53.2 8.8 L40.8 9.4 Q33.6 9.5 30.4 2.45 M43.0 24.9 L45.05 27.6 54.6 26.4 M43.0 24.9 Q39.95 25.65 36.8 26.9 L32.05 29.0 32.0 29.05 Q26.85 30.35 22.5 30.45 18.2 30.5 14.65 29.45 9.85 28.0 6.4 24.45 L5.4 23.6 4.1 22.4 2.4 20.3 Q-0.4 16.25 0.1 11.4 M30.35 2.45 Q27.4 2.25 24.25 4.05 L22.5 5.2 Q20.8 6.25 19.1 6.9 L16.1 7.75 16.0 7.75 Q10.6 9.05 6.2 8.4 L2.35 7.35 Q1.45 7.25 0.6 9.0 L0.5 9.25" fill="none" stroke="#000000" stroke-linecap="round" stroke-linejoin="round" stroke-opacity="0.3019608" stroke-width="0.5"/>
      <path d="M55.35 20.4 Q53.5 18.25 51.15 16.5 L50.0 15.75" fill="none" stroke="#000000" stroke-linecap="round" stroke-linejoin="round" stroke-opacity="0.15294118" stroke-width="0.25"/>
      <path d="M32.7 10.15 L25.25 9.4 16.55 10.2 8.35 11.05 8.15 11.05 Q4.3 11.05 0.5 9.25 M0.1 11.4 L2.35 12.0 7.9 13.2 15.4 14.2 17.8 14.5 22.3 15.15 24.2 15.45 28.4 16.3 34.05 17.15 Q37.3 17.4 40.65 18.45 44.6 19.7 48.65 22.05 51.6 23.75 53.65 25.5 L54.6 26.4 M57.75 24.05 L56.85 22.45 M32.7 10.15 L32.8 10.15 33.4 10.3 M29.85 22.2 L30.15 22.35 Q33.45 23.95 35.55 25.75 L36.8 26.9 M4.1 22.4 L4.1 22.05 Q4.1 20.75 5.1 19.85 L5.55 19.5 Q6.3 19.0 7.4 18.65 M18.9 18.6 Q24.5 19.55 29.85 22.2 M18.9 18.6 L12.4 18.05 7.4 18.65 M14.65 29.45 Q13.8 28.45 13.8 27.65 13.8 26.65 14.8 26.1 16.2 25.3 19.8 25.25 L20.35 25.25 Q23.6 25.25 27.85 26.7 31.05 27.85 32.05 29.0" fill="none" stroke="#000000" stroke-linecap="round" stroke-linejoin="round" stroke-opacity="0.101960786" stroke-width="0.15000000000000002"/>
      <path d="M12.9 8.4 L13.7 9.2 Q20.0 8.25 21.65 3.7 L21.65 3.55 Q21.2 2.25 21.5 1.15 18.95 6.3 12.9 8.4" fill="#d1c1a4" fill-rule="evenodd" stroke="none"/>
      <path d="M13.7 9.2 L13.75 9.2 17.0 9.05 Q21.6 7.15 22.65 4.1 L21.65 3.7 Q20.0 8.25 13.7 9.2" fill="#b9a685" fill-rule="evenodd" stroke="none"/>
      <path d="M22.65 4.1 Q22.0 2.1 22.85 0.5 L22.0 0.0 21.5 1.15 Q21.2 2.25 21.65 3.55 L21.65 3.7 22.65 4.1" fill="#e8d5b4" fill-rule="evenodd" stroke="none"/>
      <path d="M13.7 9.2 L13.75 9.2 17.0 9.05 Q21.6 7.15 22.65 4.1 22.0 2.1 22.85 0.5 L22.0 0.0 21.5 1.15 Q18.95 6.3 12.9 8.4" fill="none" stroke="#000000" stroke-linecap="round" stroke-linejoin="round" stroke-opacity="0.3019608" stroke-width="0.5"/>
      <path d="M25.0 16.1 Q29.15 17.2 31.65 19.5 L30.7 25.5 Q28.5 21.1 23.3 19.6 26.35 18.5 25.0 16.1" fill="#ccb893" fill-rule="evenodd" stroke="none"/>
      <path d="M25.0 16.1 Q28.85 15.8 32.75 18.85 L31.65 19.5 Q29.15 17.2 25.0 16.1" fill="#e8d5b4" fill-rule="evenodd" stroke="none"/>
      <path d="M31.65 19.5 L32.75 18.85 32.25 24.2 30.7 25.5 31.65 19.5" fill="#ab997b" fill-rule="evenodd" stroke="none"/>
      <path d="M32.75 18.85 Q28.85 15.8 25.0 16.1 M32.75 18.85 L32.25 24.2 30.7 25.5 Q28.5 21.1 23.3 19.6" fill="none" stroke="#000000" stroke-linecap="round" stroke-linejoin="round" stroke-opacity="0.101960786" stroke-width="0.5"/>
    </g>
    <g id="sprite2" transform="matrix(1.0, 0.0, 0.0, 1.0, -0.1, 14.0)">
      <use height="44.35" transform="matrix(1.0, 0.0, 0.0, 1.0, 0.1, -14.0)" width="60.95" xlink:href="#shape3"/>
    </g>
    <g id="shape3" transform="matrix(1.0, 0.0, 0.0, 1.0, -0.1, 14.0)">
      <path d="M48.9 6.1 L49.55 6.85 47.85 8.95 53.3 8.7 Q62.05 8.3 60.9 12.7 61.2 19.05 57.85 23.95 L56.15 26.1 45.15 27.5 43.1 24.8 Q40.05 25.55 36.9 26.8 L32.15 28.9 32.1 28.95 Q26.95 30.25 22.6 30.35 18.3 30.4 14.75 29.35 9.95 27.9 6.5 24.35 L5.5 23.5 4.2 22.3 2.5 20.2 Q-0.3 16.15 0.2 11.3 L0.6 9.15 0.7 8.9 Q1.55 7.15 2.45 7.25 L6.3 8.3 Q9.4 8.75 13.0 8.25 L13.25 8.2 Q19.1 6.1 21.6 1.05 L22.1 -0.1 22.95 0.4 Q22.1 2.0 22.75 4.0 L22.0 5.45 22.6 5.1 24.35 3.95 Q27.5 2.15 30.45 2.35 L30.5 2.35 Q33.7 9.4 40.9 9.3 L43.3 9.2 44.6 5.25 48.9 6.1" fill="#c2ab7c" fill-rule="evenodd" stroke="none"/>
      <path d="M34.5 -6.5 L38.1 -5.5 37.7 -7.35 37.4 -8.9 35.05 -10.3 Q35.25 -12.1 36.15 -13.1 36.5 -13.55 36.95 -13.7 37.3 -14.0 37.8 -14.0 38.35 -13.85 39.15 -13.15 39.45 -12.9 40.0 -10.7 L40.7 -7.45 38.75 -3.1 39.35 -1.35 42.25 -4.65 42.55 -1.45 Q43.05 2.0 43.95 3.8 L44.4 4.6 45.75 5.8 Q44.7 3.8 44.3 1.4 L44.3 1.2 44.1 -0.95 46.3 -0.05 46.45 0.0 46.45 -0.2 46.1 -2.0 46.15 -2.2 44.05 -3.4 44.05 -4.55 46.15 -3.0 46.05 -4.15 48.55 -5.4 Q48.5 -4.75 48.6 -4.0 L48.7 -3.15 48.9 0.3 Q49.25 5.45 49.9 8.7 L50.0 8.95 50.0 8.9 50.3 5.2 Q50.35 4.05 50.65 3.05 L50.75 2.5 Q51.3 0.45 52.05 -0.9 L53.05 0.35 54.85 -0.2 54.0 3.95 53.95 4.05 53.7 5.2 52.25 10.15 52.8 10.2 Q54.15 10.5 55.1 11.65 L55.65 12.75 Q55.9 13.55 55.8 14.3 L55.55 15.6 Q55.45 16.7 54.9 17.4 L54.4 17.85 Q53.35 18.75 52.0 18.45 50.6 18.25 49.7 17.05 L49.25 16.25 Q48.9 15.4 48.9 14.35 L49.2 13.35 49.2 13.2 49.4 12.45 Q46.3 11.05 42.35 7.6 L39.85 5.25 40.0 5.1 Q40.35 4.7 40.3 4.1 40.1 3.45 39.7 3.1 39.2 2.65 38.45 2.65 L37.85 2.7 37.55 2.25 37.6 2.15 Q38.2 1.5 37.7 1.1 37.35 0.75 36.75 0.8 L36.05 -0.95 35.95 -1.3 35.55 -3.0 34.5 -6.5 M47.8 -12.1 L48.1 -10.5 48.3 -8.65 46.1 -5.65 44.4 -7.15 44.4 -7.4 45.1 -9.75 45.15 -9.85 Q45.65 -11.05 46.35 -11.9 L47.0 -12.5 Q47.55 -12.7 47.8 -12.1 M53.65 -4.3 L56.8 -6.4 58.1 -6.25 Q58.55 -5.9 58.55 -5.05 L58.6 -4.55 58.05 -3.7 56.05 -1.6 54.15 -1.15 54.05 -1.5 53.65 -4.3" fill="#c2ab7c" fill-rule="evenodd" stroke="none"/>
    </g>
    <g id="shape4" transform="matrix(1.0, 0.0, 0.0, 1.0, -14.95, -23.8)">
      <path d="M38.8 32.95 L40.45 31.0 41.1 29.65 Q42.6 26.85 41.55 25.3 L41.8 25.1 42.7 25.85 43.9 29.65 43.9 31.0 42.85 31.5 38.8 32.95 M15.3 37.1 L15.3 37.0 Q15.5 36.35 16.25 35.7 L17.65 34.7 18.1 34.4 Q19.6 33.3 20.1 32.35 22.75 31.95 24.55 30.7 L26.05 29.15 28.05 29.45 29.35 29.9 Q31.1 30.75 32.55 32.5 L32.7 32.75 29.15 33.5 23.55 34.45 Q22.0 34.9 20.2 36.6 L19.95 36.85 19.8 36.7 Q18.8 35.5 18.15 35.6 L16.95 36.2 15.3 37.1" fill="#e3d2b2" fill-rule="evenodd" stroke="none"/>
      <path d="M39.5 25.4 L40.4 27.95 40.55 26.15 Q41.6 27.55 40.0 30.7 L38.65 30.55 Q37.5 30.7 36.4 31.25 36.65 29.9 37.35 28.05 L38.75 25.2 39.5 25.4" fill="#c2ab7c" fill-rule="evenodd" stroke="none"/>
      <path d="M20.95 45.55 L19.6 45.2 19.05 45.0 Q14.75 42.25 15.25 37.35 L15.3 37.1 16.95 36.2 18.15 35.6 Q18.8 35.5 19.8 36.7 L19.95 36.85 Q18.05 38.75 18.2 40.45 18.45 42.35 20.05 44.5 L20.95 45.55" fill="#b09a72" fill-rule="evenodd" stroke="none"/>
      <path d="M40.85 25.85 L40.55 26.15 40.4 27.95 39.5 25.4 40.55 24.45 40.85 25.85 M32.7 32.75 L32.55 32.5 Q31.1 30.75 29.35 29.9 L33.55 27.2 Q36.8 25.45 38.75 25.2 L37.35 28.05 Q36.65 29.9 36.4 31.25 L35.95 31.45 33.2 33.2 32.7 32.75" fill="#a18e66" fill-rule="evenodd" stroke="none"/>
      <path d="M40.0 30.7 Q39.2 32.25 34.8 34.25 L34.6 34.3 34.55 34.3 33.2 33.2 35.95 31.45 36.4 31.25 Q37.5 30.7 38.65 30.55 L40.0 30.7 M38.75 37.4 L38.55 37.35 39.05 36.95 38.75 37.4 M34.6 34.3 L34.8 34.25 34.65 34.3 34.6 34.3" fill="#8c7b59" fill-rule="evenodd" stroke="none"/>
      <path d="M40.55 26.15 L40.85 25.85 41.55 25.3 Q42.6 26.85 41.1 29.65 L40.45 31.0 38.8 32.95 36.25 33.85 34.8 34.25 36.25 33.85 38.8 32.95 37.2 34.15 34.65 34.3 34.8 34.25 Q39.2 32.25 40.0 30.7 41.6 27.55 40.55 26.15 M40.55 24.45 L39.5 25.4 38.75 25.2 Q36.8 25.45 33.55 27.2 L29.35 29.9 28.05 29.45 33.6 26.15 34.15 25.95 Q38.15 23.4 40.2 24.25 40.4 24.3 40.55 24.45" fill="#fce8c4" fill-rule="evenodd" stroke="none"/>
      <path d="M40.65 37.8 L38.75 37.4 39.05 36.95 40.45 35.75 40.65 37.8" fill="#695c43" fill-rule="evenodd" stroke="none"/>
      <path d="M20.1 32.35 L20.35 31.55 Q20.7 30.3 21.45 30.1 23.75 29.2 25.8 29.2 L26.05 29.15 24.55 30.7 Q22.75 31.95 20.1 32.35 M19.95 36.85 L20.2 36.6 Q22.0 34.9 23.55 34.45 L29.15 33.5 32.7 32.75 33.2 33.2 34.55 34.3 33.1 34.5 30.2 34.9 25.5 36.3 Q22.7 37.5 22.1 39.3 L21.95 39.15 19.95 36.85" fill="#dec8a0" fill-rule="evenodd" stroke="none"/>
      <path d="M25.65 46.15 L20.95 45.55 20.05 44.5 Q18.45 42.35 18.2 40.45 18.05 38.75 19.95 36.85 L21.95 39.15 22.1 39.3 Q21.75 40.05 21.85 40.85 22.1 42.85 24.35 45.05 L25.65 46.15" fill="#a38f6a" fill-rule="evenodd" stroke="none"/>
      <path d="M43.9 31.0 L43.95 33.0 42.65 33.05 Q40.5 33.3 37.9 34.55 35.3 35.85 33.25 37.7 L33.15 37.45 Q32.55 36.55 30.7 36.75 29.05 36.9 27.95 37.7 26.65 38.65 26.75 39.9 26.95 41.55 28.05 42.1 L28.5 42.25 Q24.7 41.9 22.1 39.3 22.7 37.5 25.5 36.3 L30.2 34.9 33.1 34.5 34.55 34.3 34.6 34.3 34.65 34.3 37.2 34.15 38.8 32.95 42.85 31.5 43.9 31.0" fill="#d1bc96" fill-rule="evenodd" stroke="none"/>
      <path d="M30.85 45.1 Q28.6 46.2 25.65 46.15 L24.35 45.05 Q22.1 42.85 21.85 40.85 21.75 40.05 22.1 39.3 24.7 41.9 28.5 42.25 L29.75 42.25 29.8 42.4 29.75 42.55 29.05 43.1 Q28.3 43.75 28.35 44.25 28.4 44.7 29.0 44.9 L30.85 45.1" fill="#917f5e" fill-rule="evenodd" stroke="none"/>
      <path d="M43.95 33.0 L43.95 33.95 43.9 34.3 Q43.75 36.55 41.7 37.45 L40.65 37.8 40.45 35.75 39.05 36.95 39.3 36.5 39.8 35.35 39.7 35.1 Q37.95 35.8 37.15 37.0 36.45 38.0 36.6 39.05 L36.6 39.3 36.1 39.15 Q34.85 40.05 34.25 40.1 33.7 40.15 33.65 39.85 L33.25 37.7 Q35.3 35.85 37.9 34.55 40.5 33.3 42.65 33.05 L43.95 33.0 M35.0 36.7 Q34.6 37.05 34.65 37.65 34.7 38.0 35.2 37.95 35.75 37.9 36.05 37.5 L36.3 36.9 Q36.25 36.6 35.75 36.65 35.5 36.65 35.4 36.8 L35.0 36.7" fill="#c2ae8b" fill-rule="evenodd" stroke="none"/>
      <path d="M29.8 42.4 L30.0 42.4 29.75 42.55 29.8 42.4" fill="#857456" fill-rule="evenodd" stroke="none"/>
      <path d="M38.55 37.35 L36.65 39.3 36.6 39.3 36.6 39.05 Q36.45 38.0 37.15 37.0 37.95 35.8 39.7 35.1 L39.8 35.35 39.3 36.5 39.05 36.95 38.55 37.35" fill="#baa686" fill-rule="evenodd" stroke="none"/>
      <path d="M33.25 37.7 L33.05 37.8 Q31.15 39.45 30.3 40.95 L29.75 42.25 28.5 42.25 28.05 42.1 Q26.95 41.55 26.75 39.9 26.65 38.65 27.95 37.7 29.05 36.9 30.7 36.75 32.55 36.55 33.15 37.45 L33.25 37.7" fill="#717d2a" fill-rule="evenodd" stroke="none"/>
      <path d="M36.6 39.3 L34.8 41.3 Q33.5 41.95 31.4 42.2 L29.75 42.25 30.3 40.95 Q31.15 39.45 33.05 37.8 L33.25 37.7 33.65 39.85 Q33.7 40.15 34.25 40.1 34.85 40.05 36.1 39.15 L36.6 39.3 M35.0 36.7 L35.4 36.8 Q35.5 36.65 35.75 36.65 36.25 36.6 36.3 36.9 L36.05 37.5 Q35.75 37.9 35.2 37.95 34.7 38.0 34.65 37.65 34.6 37.05 35.0 36.7" fill="#636e25" fill-rule="evenodd" stroke="none"/>
      <path d="M34.8 41.3 L34.45 41.9 34.1 42.25 34.05 42.3 33.7 42.8 32.4 44.1 31.25 44.3 Q29.95 44.45 29.75 42.75 L29.75 42.55 30.0 42.4 29.8 42.4 29.75 42.25 31.4 42.2 Q33.5 41.95 34.8 41.3" fill="#47521b" fill-rule="evenodd" stroke="none"/>
      <path d="M32.4 44.1 L30.85 45.1 29.0 44.9 Q28.4 44.7 28.35 44.25 28.3 43.75 29.05 43.1 L29.75 42.55 29.75 42.75 Q29.95 44.45 31.25 44.3 L32.4 44.1" fill="#546121" fill-rule="evenodd" stroke="none"/>
      <path d="M40.85 25.85 L40.55 24.45 M40.0 30.7 Q39.2 32.25 34.8 34.25 M41.55 25.3 L40.85 25.85 M41.55 25.3 L41.8 25.1 42.7 25.85 43.9 29.65 43.9 31.0 43.95 33.0 43.95 33.95 43.9 34.3 Q43.75 36.55 41.7 37.45 L40.65 37.8 38.75 37.4 38.55 37.35 36.65 39.3 36.6 39.3 34.8 41.3 34.45 41.9 34.1 42.25 34.05 42.3 33.7 42.8 32.4 44.1 30.85 45.1 Q28.6 46.2 25.65 46.15 L20.95 45.55 19.6 45.2 19.05 45.0 Q14.75 42.25 15.25 37.35 L15.3 37.1 15.3 37.0 Q15.5 36.35 16.25 35.7 L17.65 34.7 18.1 34.4 Q19.6 33.3 20.1 32.35 L20.35 31.55 Q20.7 30.3 21.45 30.1 23.75 29.2 25.8 29.2 L26.05 29.15 28.05 29.45 33.6 26.15 34.15 25.95 Q38.15 23.4 40.2 24.25 40.4 24.3 40.55 24.45 M32.7 32.75 L32.55 32.5 Q31.1 30.75 29.35 29.9 L28.05 29.45 M34.55 34.3 L33.2 33.2 32.7 32.75 M36.4 31.25 Q37.5 30.7 38.65 30.55 L40.0 30.7 M34.6 34.3 L34.65 34.3 34.8 34.25 M33.2 33.2 L35.95 31.45 36.4 31.25" fill="none" stroke="#000000" stroke-linecap="round" stroke-linejoin="round" stroke-opacity="0.3019608" stroke-width="0.5"/>
      <path d="M23.4 47.05 L23.15 47.1" fill="none" stroke="#000000" stroke-linecap="round" stroke-linejoin="round" stroke-opacity="0.15294118" stroke-width="0.25"/>
      <path d="M34.8 34.25 L36.25 33.85 38.8 32.95 42.85 31.5 43.9 31.0 M33.25 37.7 Q35.3 35.85 37.9 34.55 40.5 33.3 42.65 33.05 L43.95 33.0 M19.95 36.85 L20.2 36.6 Q22.0 34.9 23.55 34.45 L29.15 33.5 32.7 32.75 M20.95 45.55 L20.05 44.5 Q18.45 42.35 18.2 40.45 18.05 38.75 19.95 36.85 M22.1 39.3 Q22.7 37.5 25.5 36.3 L30.2 34.9 33.1 34.5 34.55 34.3 M34.6 34.3 L34.55 34.3 M34.8 34.25 L34.6 34.3 M39.05 36.95 L39.3 36.5 39.8 35.35 39.7 35.1 Q37.95 35.8 37.15 37.0 36.45 38.0 36.6 39.05 L36.6 39.3 M33.25 37.7 L33.05 37.8 Q31.15 39.45 30.3 40.95 L29.75 42.25 M20.1 32.35 Q22.75 31.95 24.55 30.7 L26.05 29.15 M32.4 44.1 L31.25 44.3 Q29.95 44.45 29.75 42.75 L29.75 42.55 M29.8 42.4 L29.75 42.55 M29.8 42.4 L29.75 42.25 M22.1 39.3 Q21.75 40.05 21.85 40.85 22.1 42.85 24.35 45.05 L25.65 46.15 M39.05 36.95 L38.75 37.4" fill="none" stroke="#000000" stroke-linecap="round" stroke-linejoin="round" stroke-opacity="0.101960786" stroke-width="0.15000000000000002"/>
      <path d="M29.6 34.15 Q28.2 35.4 25.8 36.05 26.55 34.65 24.85 34.05 27.8 33.15 29.05 30.7 L29.6 34.15" fill="#dec8a0" fill-rule="evenodd" stroke="none"/>
      <path d="M30.2 34.45 L29.6 34.15 29.05 30.7 29.95 31.4 30.2 34.45" fill="#fce8c4" fill-rule="evenodd" stroke="none"/>
      <path d="M30.2 34.45 Q28.0 36.25 25.8 36.05 28.2 35.4 29.6 34.15 L30.2 34.45" fill="#a18f74" fill-rule="evenodd" stroke="none"/>
      <path d="M25.8 36.05 Q28.0 36.25 30.2 34.45 M24.85 34.05 Q27.8 33.15 29.05 30.7 L29.95 31.4 30.2 34.45" fill="none" stroke="#000000" stroke-linecap="round" stroke-linejoin="round" stroke-opacity="0.101960786" stroke-width="0.15000000000000002"/>
    </g>
    <g id="sprite3" transform="matrix(1.0, 0.0, 0.0, 1.0, 0.0, 0.0)">
      <use height="34.8" transform="matrix(1.0, 0.0, 0.0, 1.0, 0.0, 0.0)" width="34.8" xlink:href="#shape5"/>
    </g>
    <g id="shape5" transform="matrix(1.0, 0.0, 0.0, 1.0, 0.0, 0.0)">
      <path d="M17.4 34.8 Q10.2 34.8 5.1 29.7 0.0 24.6 0.0 17.4 0.0 10.2 5.1 5.1 10.2 0.0 17.4 0.0 24.6 0.0 29.7 5.1 34.8 10.2 34.8 17.4 34.8 24.6 29.7 29.7 24.6 34.8 17.4 34.8" fill="url(#gradient1)" fill-rule="evenodd" stroke="none"/>
    </g>
    <radialGradient cx="0" cy="0" gradientTransform="matrix(0.0221, 0.0, 0.0, 0.0221, 17.4, 17.4)" gradientUnits="userSpaceOnUse" id="gradient1" r="819.2" spreadMethod="pad">
      <stop offset="0.0" stop-color="#ffffff"/>
      <stop offset="0.9882352941176471" stop-color="#ffffff" stop-opacity="0.0"/>
    </radialGradient>
    <g id="shape6" transform="matrix(1.0, 0.0, 0.0, 1.0, -36.2, -11.55)">
      <path d="M45.75 15.1 Q46.1 15.15 46.1 15.55 L45.85 16.55 44.3 17.3 45.75 15.1 M43.05 19.65 L44.85 19.55 44.55 20.4 44.35 20.9 Q43.35 21.5 42.3 22.05 L42.6 20.95 42.6 20.85 41.75 19.6 42.05 18.95 42.85 20.4 43.05 19.65 M43.55 22.95 L42.05 28.1 42.0 28.25 42.05 28.2 42.0 29.05 43.45 27.1 45.1 26.95 42.1 30.6 41.8 31.0 42.0 29.15 42.0 29.05 42.0 29.15 41.8 31.0 41.6 26.45 41.8 24.1 43.55 22.95 M50.6 21.5 L50.55 22.3 50.4 22.65 49.85 23.0 48.4 22.6 49.65 21.95 50.6 21.5 M38.55 19.6 L41.0 18.45 40.35 20.35 Q39.75 22.45 39.85 23.7 L39.9 24.3 40.4 25.35 40.75 26.95 41.45 29.45 Q40.45 28.8 39.45 26.6 L39.45 26.55 39.0 24.85 Q38.6 23.1 38.55 21.25 L38.55 19.6 M40.2 11.85 L40.8 11.95 41.4 12.75 41.25 14.35 39.1 15.7 39.3 14.7 39.55 13.95 40.2 11.85 M42.85 20.4 L42.6 20.85 42.85 20.4 M45.95 24.05 L47.15 24.15 45.6 26.35 44.05 26.35 45.95 24.05 M40.35 20.35 L38.55 21.25 40.35 20.35 M39.85 23.7 L39.0 24.85 39.85 23.7" fill="#fde613" fill-rule="evenodd" stroke="none"/>
      <path d="M42.05 28.2 L43.15 26.1 43.9 24.95 44.1 24.7 45.7 23.1 45.95 24.05 44.05 26.35 43.45 27.1 43.15 26.1 43.45 27.1 42.0 29.05 42.05 28.2 M47.05 23.25 L47.45 21.5 48.7 21.35 49.85 21.1 Q50.4 21.25 50.6 21.5 L49.65 21.95 48.4 22.6 47.05 23.25 M44.3 17.3 L43.95 16.2 44.3 17.3 43.5 18.8 42.9 17.55 42.95 17.4 43.95 16.2 44.0 16.15 45.25 15.3 45.75 15.1 44.3 17.3 M38.6 18.4 L38.55 19.6 38.55 21.25 36.5 19.0 36.55 18.8 36.75 17.7 37.05 15.35 38.8 16.9 38.6 18.4 M40.7 22.45 Q40.65 22.4 40.75 22.3 L41.2 21.05 42.2 22.1 42.25 22.15 Q41.95 23.15 41.8 24.1 L40.7 22.45 M41.8 31.0 Q39.85 29.5 38.0 25.55 L37.1 23.5 38.85 25.0 39.0 24.85 39.45 26.55 39.45 26.6 Q40.45 28.8 41.45 29.45 L41.8 31.0 M48.7 21.35 L48.4 22.6 48.7 21.35 M43.9 24.95 L44.05 26.35 43.9 24.95 M39.3 14.7 L38.3 13.35 Q38.85 12.35 39.6 12.0 L40.2 11.85 39.55 13.95 39.3 14.7 M36.75 17.7 L38.55 19.6 36.75 17.7" fill="#dbb911" fill-rule="evenodd" stroke="none"/>
      <path d="M45.85 16.55 L45.5 17.65 43.5 18.8 44.3 17.3 45.85 16.55 M44.35 20.9 L43.55 22.95 41.8 24.1 Q41.95 23.15 42.25 22.15 L42.3 22.1 42.3 22.05 Q43.35 21.5 44.35 20.9 M49.85 23.0 L48.2 23.65 47.0 23.45 47.05 23.25 48.4 22.6 49.85 23.0 M41.25 14.35 L40.85 16.4 38.6 18.4 38.8 16.9 39.1 15.7 41.25 14.35 M45.6 26.35 L45.55 26.45 45.1 26.95 43.45 27.1 44.05 26.35 45.6 26.35" fill="#fff05e" fill-rule="evenodd" stroke="none"/>
      <path d="M40.4 25.35 Q40.3 23.9 40.7 22.45 L41.8 24.1 41.6 26.45 41.8 31.0 41.45 29.45 40.75 26.95 40.4 25.35 M37.1 23.5 L37.25 23.45 37.7 22.95 37.6 22.25 37.0 21.7 36.6 21.55 36.55 21.25 36.6 21.2 Q37.1 20.95 36.95 20.6 L36.45 20.15 Q36.4 19.55 36.5 19.0 L38.55 21.25 Q38.6 23.1 39.0 24.85 L38.85 25.0 37.1 23.5" fill="#c4a20f" fill-rule="evenodd" stroke="none"/>
      <path d="M42.2 22.1 L42.3 22.1 M42.6 20.85 L42.85 20.4" fill="none" stroke="#000000" stroke-linecap="round" stroke-linejoin="round" stroke-opacity="0.15294118" stroke-width="0.25"/>
      <path d="M45.75 15.1 Q46.1 15.15 46.1 15.55 L45.85 16.55 45.5 17.65 43.5 18.8 43.05 19.65 44.85 19.55 44.55 20.4 44.35 20.9 43.55 22.95 42.05 28.1 42.05 28.2 43.15 26.1 43.9 24.95 44.1 24.7 45.7 23.1 45.95 24.05 46.8 23.4 47.05 23.25 47.45 21.5 48.7 21.35 49.85 21.1 Q50.4 21.25 50.6 21.5 L50.55 22.3 50.4 22.65 49.85 23.0 48.2 23.65 47.0 23.45 46.8 23.4 M45.75 15.1 L45.25 15.3 44.0 16.15 M43.95 16.2 L42.95 17.4 42.9 17.55 43.5 18.8 M41.25 14.35 L40.85 16.4 38.6 18.4 38.55 19.6 41.0 18.45 40.35 20.35 Q39.75 22.45 39.85 23.7 L39.9 24.3 40.4 25.35 Q40.3 23.9 40.7 22.45 M40.75 22.3 L41.2 21.05 42.2 22.1 M42.3 22.1 L42.3 22.05 42.6 20.95 42.6 20.85 41.75 19.6 42.05 18.95 42.85 20.4 43.05 19.65 M40.2 11.85 L40.8 11.95 41.4 12.75 41.25 14.35 M39.1 15.7 L38.8 16.9 M42.25 22.15 L42.2 22.1 M42.25 22.15 L42.3 22.1 M45.95 24.05 L47.15 24.15 45.6 26.35 45.55 26.45 45.1 26.95 42.1 30.6 41.8 31.0 Q39.85 29.5 38.0 25.55 L37.1 23.5 37.25 23.45 37.7 22.95 37.6 22.25 37.0 21.7 36.6 21.55 36.55 21.25 36.6 21.2 Q37.1 20.95 36.95 20.6 L36.45 20.15 Q36.4 19.55 36.5 19.0 L36.55 18.8 36.75 17.7 37.05 15.35 38.8 16.9 M47.0 23.45 L47.05 23.25 M42.0 29.05 L42.0 29.15 41.8 31.0 41.45 29.45 40.75 26.95 40.4 25.35 M42.05 28.2 L42.0 29.05 M42.05 28.1 L42.0 28.25 42.05 28.2 M39.3 14.7 L38.3 13.35 Q38.85 12.35 39.6 12.0 L40.2 11.85 M39.3 14.7 L39.1 15.7" fill="none" stroke="#000000" stroke-linecap="round" stroke-linejoin="round" stroke-opacity="0.3019608" stroke-width="0.5"/>
      <path d="M43.95 16.2 L44.3 17.3 45.75 15.1 M44.0 16.15 L43.95 16.2 M43.5 18.8 L44.3 17.3 45.85 16.55 M40.7 22.45 Q40.65 22.4 40.75 22.3 M41.25 14.35 L39.1 15.7 M38.8 16.9 L38.6 18.4 M41.8 24.1 L40.7 22.45 M41.8 24.1 Q41.95 23.15 42.25 22.15 M42.3 22.05 Q43.35 21.5 44.35 20.9 M41.8 24.1 L43.55 22.95 M47.05 23.25 L48.4 22.6 48.7 21.35 M48.4 22.6 L49.85 23.0 M48.4 22.6 L49.65 21.95 M43.45 27.1 L43.15 26.1 M43.45 27.1 L45.1 26.95 M43.45 27.1 L44.05 26.35 43.9 24.95 M41.45 29.45 Q40.45 28.8 39.45 26.6 L39.45 26.55 39.0 24.85 38.85 25.0 37.1 23.5 M42.0 29.05 L43.45 27.1 M41.8 31.0 L41.6 26.45 41.8 24.1 M44.05 26.35 L45.6 26.35 M44.05 26.35 L45.95 24.05 M40.2 11.85 L39.55 13.95 39.3 14.7 M38.55 21.25 L38.55 19.6 36.75 17.7 M38.55 21.25 L40.35 20.35 M36.5 19.0 L38.55 21.25 Q38.6 23.1 39.0 24.85 L39.85 23.7" fill="none" stroke="#000000" stroke-linecap="round" stroke-linejoin="round" stroke-opacity="0.101960786" stroke-width="0.25"/>
      <path d="M43.95 32.45 L43.65 33.4 42.8 34.35 42.35 34.5 Q41.5 34.75 40.8 34.2 40.05 33.75 39.9 32.85 L39.8 32.25 Q39.8 31.65 40.1 31.1 40.5 30.3 41.4 30.1 L41.8 29.95 42.9 30.25 Q43.65 30.8 43.85 31.7 L43.95 32.45" fill="#000000" fill-opacity="0.3019608" fill-rule="evenodd" stroke="none"/>
      <path d="M40.15 31.55 Q40.15 31.0 40.45 30.45 40.9 29.65 41.75 29.45 L42.2 29.35 Q41.6 29.65 41.25 30.25 L41.15 30.45 Q40.95 31.1 41.05 31.85 40.7 32.3 40.15 31.55" fill="#543c1c" fill-rule="evenodd" stroke="none"/>
      <path d="M42.2 29.35 Q42.75 29.3 43.3 29.65 44.0 30.15 44.25 31.1 L44.3 31.85 Q42.75 31.85 41.15 30.45 L41.25 30.25 Q41.6 29.65 42.2 29.35" fill="#785829" fill-rule="evenodd" stroke="none"/>
      <path d="M43.15 33.7 L42.75 33.85 Q41.9 34.05 41.2 33.55 40.45 33.1 40.25 32.15 L40.15 31.55 Q40.7 32.3 41.05 31.85 L41.05 32.0 Q41.25 32.85 42.0 33.35 42.55 33.75 43.15 33.7" fill="#3b2a13" fill-rule="evenodd" stroke="none"/>
      <path d="M44.3 31.85 L44.0 32.75 43.15 33.7 Q42.55 33.75 42.0 33.35 41.25 32.85 41.05 32.0 L41.05 31.85 Q40.95 31.1 41.15 30.45 42.75 31.85 44.3 31.85" fill="#6e4e25" fill-rule="evenodd" stroke="none"/>
      <path d="M42.2 29.35 Q42.75 29.3 43.3 29.65 44.0 30.15 44.25 31.1 L44.3 31.85 44.0 32.75 43.15 33.7 42.75 33.85 Q41.9 34.05 41.2 33.55 40.45 33.1 40.25 32.15 L40.15 31.55 Q40.15 31.0 40.45 30.45 40.9 29.65 41.75 29.45 L42.2 29.35 Z" fill="none" stroke="#000000" stroke-linecap="round" stroke-linejoin="round" stroke-opacity="0.3019608" stroke-width="0.5"/>
      <path d="M43.45 30.55 L43.05 31.45 43.8 32.0 43.4 32.7 42.75 32.35 42.45 33.1 41.95 32.8 42.25 32.15 41.95 32.05 41.85 32.05 41.35 31.85 41.45 30.75 42.45 31.2 42.75 30.3 43.45 30.55" fill="#000000" fill-opacity="0.3019608" fill-rule="evenodd" stroke="none"/>
      <path d="M43.55 31.35 L44.0 31.7 43.65 32.4 43.25 32.2 Q42.8 31.7 43.55 31.35" fill="#fde613" fill-rule="evenodd" stroke="none"/>
      <path d="M42.7 30.9 L43.0 30.0 43.7 30.25 43.3 31.15 42.9 31.0 42.7 30.9" fill="#dbb911" fill-rule="evenodd" stroke="none"/>
      <path d="M43.0 32.1 L42.7 32.85 42.2 32.5 42.45 31.9 43.0 32.1" fill="#c4a20f" fill-rule="evenodd" stroke="none"/>
      <path d="M42.15 31.75 L42.05 31.8 41.55 31.55 41.7 30.45 42.7 30.9 42.9 31.0 Q43.45 31.65 42.15 31.75" fill="#fff05e" fill-rule="evenodd" stroke="none"/>
      <path d="M43.3 31.15 L43.55 31.35 Q42.8 31.7 43.25 32.2 L43.0 32.1 42.45 31.9 42.15 31.75 Q43.45 31.65 42.9 31.0 L43.3 31.15" fill="#e8cf12" fill-rule="evenodd" stroke="none"/>
      <path d="M42.7 30.9 L43.0 30.0 43.7 30.25 43.3 31.15 43.55 31.35 44.0 31.7 43.65 32.4 43.25 32.2 43.0 32.1 42.7 32.85 42.2 32.5 42.45 31.9 42.15 31.75 M42.05 31.8 L41.55 31.55 41.7 30.45 42.7 30.9 42.9 31.0 43.3 31.15 M42.45 31.9 L43.0 32.1" fill="none" stroke="#000000" stroke-linecap="round" stroke-linejoin="round" stroke-opacity="0.15294118" stroke-width="0.25"/>
    </g>
  </defs>
</svg>
