<?xml version="1.0" encoding="UTF-8" standalone="no"?>
<svg xmlns:xlink="http://www.w3.org/1999/xlink" height="520.0px" width="520.0px" xmlns="http://www.w3.org/2000/svg">
  <g transform="matrix(10.0, 0.0, 0.0, 10.0, 0.0, 0.0)">
    <use height="52.0" transform="matrix(1.0, 0.0, 0.0, 1.0, 0.0, 0.0)" width="52.0" xlink:href="#shape0"/>
    <use height="49.25" transform="matrix(0.7167, 0.0, 0.0, 0.7077, 14.9275, 1.3877)" width="51.0" xlink:href="#sprite0"/>
    <use height="49.25" transform="matrix(0.7649, 0.0, 0.0, 0.902, 0.7558, 5.5794)" width="51.0" xlink:href="#sprite0"/>
  </g>
  <defs>
    <g id="shape0" transform="matrix(1.0, 0.0, 0.0, 1.0, 0.0, 0.0)">
      <path d="M52.0 0.0 L52.0 52.0 0.0 52.0 0.0 0.0 52.0 0.0" fill="#ffffff" fill-opacity="0.0" fill-rule="evenodd" stroke="none"/>
    </g>
    <g id="sprite0" transform="matrix(1.0, 0.0, 0.0, 1.0, 0.45, 0.3)">
      <use height="49.25" transform="matrix(1.0, 0.0, 0.0, 1.0, -0.45, -0.3)" width="51.0" xlink:href="#shape1"/>
      <use height="36.05" transform="matrix(0.2669, 0.0103, 0.0, 0.2452, 42.9, 2.0)" width="10.1" xlink:href="#sprite1"/>
      <use height="36.05" transform="matrix(0.251, -0.0674, 0.064, 0.273, 40.0, 0.7)" width="10.1" xlink:href="#sprite1"/>
      <use height="18.35" transform="matrix(1.0, 0.0, 0.0, 1.0, 28.65, 9.0)" width="19.5" xlink:href="#shape3"/>
      <use height="36.05" transform="matrix(-0.373, -0.0547, 0.0, 0.2452, 33.1, 2.2)" width="10.1" xlink:href="#sprite1"/>
      <use height="36.05" transform="matrix(-0.3603, -0.1594, -0.0521, 0.207, 36.9, 3.85)" width="10.1" xlink:href="#sprite1"/>
      <use height="42.45" transform="matrix(1.0, 0.0, 0.0, 1.0, 18.15, -0.1)" width="32.15" xlink:href="#shape4"/>
    </g>
    <g id="shape1" transform="matrix(1.0, 0.0, 0.0, 1.0, 0.45, 0.3)">
      <path d="M45.2 2.25 L44.6 2.3 Q44.45 2.85 44.7 4.6 L44.75 4.65 44.8 5.0 44.8 5.1 44.8 5.65 44.85 6.4 44.8 6.8 44.65 7.5 Q44.35 8.8 43.55 9.95 L42.9 9.75 43.1 8.95 43.15 8.65 43.3 7.95 43.3 3.45 Q43.05 1.9 42.3 0.35 L42.2 0.3 41.75 0.25 Q41.55 0.65 42.15 2.4 L42.35 3.05 42.45 3.35 42.75 4.25 42.85 4.6 43.0 5.35 43.0 5.55 Q43.3 7.6 42.55 9.65 L42.55 9.7 42.35 9.7 42.3 9.7 41.25 9.7 40.7 9.5 40.5 9.5 37.95 9.0 37.8 9.0 37.35 9.0 36.6 9.0 35.45 9.15 34.25 9.5 34.0 9.55 33.45 8.1 33.3 7.4 33.3 6.7 33.5 5.7 33.75 5.15 33.85 4.85 Q34.55 3.7 34.5 3.1 L33.7 2.55 33.7 2.6 33.6 2.6 Q32.95 3.35 32.7 4.35 L32.6 4.85 32.6 5.95 Q32.7 7.45 33.55 9.3 L33.7 9.7 33.0 10.0 31.8 9.5 30.7 7.45 30.45 6.6 30.4 6.05 30.4 5.75 30.4 5.4 30.5 4.5 30.55 4.35 Q30.9 2.7 30.7 2.1 30.5 1.6 29.85 1.9 L29.75 1.95 Q29.25 3.25 29.35 4.7 L29.3 4.7 25.2 5.5 Q25.2 3.35 22.75 1.15 18.15 2.05 15.65 3.8 L14.35 2.3 13.15 1.6 Q12.4 2.75 12.1 4.0 L11.15 3.65 Q8.45 2.7 6.1 2.8 6.3 3.95 6.9 5.05 L7.6 6.3 4.1 6.25 Q1.75 6.45 0.05 7.15 2.0 8.85 4.8 10.05 L5.3 10.3 4.85 10.65 Q3.45 11.6 2.5 12.75 0.9 14.7 0.75 16.9 L1.15 16.95 3.45 17.05 5.75 17.0 7.85 16.85 Q7.3 17.7 7.05 18.7 L6.95 18.85 Q6.8 19.65 6.8 20.45 L6.8 20.7 6.8 20.95 8.6 20.65 8.7 20.6 9.65 20.3 9.9 20.2 10.1 22.6 10.2 22.6 Q10.8 28.75 9.9 34.95 L9.7 35.1 9.55 35.4 9.45 35.95 9.35 36.7 9.35 36.75 Q9.3 38.05 9.6 39.3 L10.1 40.0 11.75 41.35 12.85 41.9 14.5 41.8 14.65 42.2 Q16.25 45.1 20.25 46.55 L22.45 47.15 25.1 48.15 Q30.55 49.15 34.5 46.6 L34.7 46.45 36.35 44.8 37.6 44.2 Q38.1 43.25 37.95 42.15 L37.65 40.95 38.05 40.25 Q38.9 38.4 38.4 36.15 L37.7 34.1 37.65 34.0 Q36.2 30.6 36.1 28.1 L36.05 27.45 36.1 26.85 39.45 27.4 41.65 27.15 42.85 26.85 43.3 26.65 43.35 26.65 Q44.35 26.65 45.4 26.1 L45.5 26.15 45.6 26.2 46.2 26.55 46.95 26.9 47.45 27.05 47.5 27.05 47.55 27.05 47.6 26.7 47.55 25.2 47.4 24.05 47.45 23.15 47.45 23.1 47.5 22.6 47.65 22.35 47.7 22.2 48.95 21.1 49.5 20.05 49.9 18.9 50.05 17.85 50.05 17.7 50.0 17.2 49.85 16.7 49.6 16.25 49.6 16.2 49.55 16.2 49.6 16.45 Q49.35 14.95 48.55 13.65 L48.35 13.35 48.0 12.85 47.75 12.55 46.45 11.35 45.85 10.95 45.35 10.7 44.6 10.45 43.85 10.1 44.2 9.45 44.9 8.1 45.05 7.6 45.45 6.05 45.5 5.85 45.6 5.15 Q45.65 3.75 45.3 2.3 L45.2 2.25 M29.6 5.95 L29.55 6.05 28.65 7.7 28.65 7.75 28.6 7.75 28.1 8.35 30.5 9.1 31.05 9.2 31.2 9.3 30.4 7.9 29.8 6.6 29.75 6.45 29.6 5.95 M28.1 20.55 L26.1 20.15 Q26.25 24.1 26.95 28.45 L26.95 28.9 27.3 28.95 27.9 29.0 28.55 29.8 28.35 27.75 Q28.25 26.05 28.5 24.4 28.7 22.95 29.15 21.65 L28.1 20.55 M29.55 35.55 L29.85 35.95 30.5 36.4 30.25 35.25 Q29.8 35.65 29.55 35.55" fill="none" stroke="#000000" stroke-linecap="round" stroke-linejoin="round" stroke-opacity="0.3019608" stroke-width="1.0"/>
      <path d="M23.1 13.25 L26.1 13.05 26.0 15.6 Q24.8 14.75 24.25 16.95 23.75 14.75 23.1 13.25 M26.95 28.45 L26.95 28.9 25.85 28.8 25.8 27.9 25.8 27.35 Q26.15 28.9 26.95 28.45 M30.1 34.85 L30.15 34.85 30.15 34.9 30.25 35.25 Q29.8 35.65 29.55 35.55 25.95 34.6 23.15 35.55 22.05 35.9 21.1 36.6 L20.05 37.45 19.8 37.65 18.4 38.15 Q18.2 37.7 18.3 37.35 L18.5 36.8 18.05 35.95 Q18.45 36.5 19.35 36.35 L19.45 36.3 20.9 35.8 Q27.15 34.15 30.1 34.85 L30.15 34.9 30.1 34.85 M37.6 44.2 L36.35 44.8 Q37.6 43.1 34.45 43.55 32.8 43.8 31.05 44.55 29.0 45.35 26.75 46.9 L26.65 46.95 22.45 47.15 20.25 46.55 Q16.25 45.1 14.65 42.2 L14.5 41.8 Q15.4 39.7 16.85 38.4 L17.75 39.75 Q17.45 39.65 17.4 40.8 L17.4 41.6 Q17.45 43.55 20.8 44.75 L23.4 45.45 Q26.25 46.1 29.75 44.6 L31.25 43.85 Q33.5 42.8 35.8 42.85 L37.05 43.15 Q37.65 43.5 37.6 44.2 M10.1 40.0 L9.6 39.3 Q9.3 38.05 9.35 36.75 L9.35 36.7 9.45 35.95 9.55 35.4 Q9.5 36.15 9.75 36.7 10.05 37.35 10.7 37.65 L10.95 37.7 Q12.05 37.75 11.7 36.85 L11.45 36.3 11.65 36.25 11.95 36.15 Q12.75 35.75 12.75 34.5 L12.35 32.1 Q11.65 27.05 12.15 22.3 12.55 18.75 11.95 15.75 L11.0 12.5 16.55 12.85 Q14.75 17.3 14.45 22.5 14.2 26.8 14.65 30.8 L14.7 31.15 Q15.0 32.5 15.9 32.1 L15.9 33.0 14.15 34.9 13.75 35.5 13.2 36.5 13.05 36.95 13.0 37.05 12.85 37.65 12.7 38.15 12.55 39.25 Q12.1 39.9 11.5 40.1 L10.1 40.0 M9.7 35.1 L9.9 34.95 9.85 35.35 9.7 35.1 M17.15 36.8 L16.65 37.2 Q15.5 38.2 14.7 39.7 L14.5 40.05 Q13.35 40.65 13.85 39.3 L13.5 39.3 12.95 39.4 Q13.3 36.0 15.25 34.2 L15.85 34.15 16.1 34.6 15.85 35.45 15.3 36.6 16.2 35.9 Q17.25 35.1 17.15 36.8" fill="#7c3100" fill-rule="evenodd" stroke="none"/>
      <path d="M29.55 35.55 L29.85 35.95 Q28.45 35.35 26.0 35.45 22.9 35.85 21.9 37.25 L21.9 37.6 Q22.0 38.05 22.7 38.35 L23.45 38.6 Q28.85 38.45 30.5 36.8 L30.45 37.25 Q29.75 38.25 28.2 38.45 L26.65 38.8 Q25.4 39.2 24.4 39.8 L28.75 38.9 Q30.55 38.4 30.95 37.7 33.25 39.55 38.05 40.25 L37.65 40.95 Q36.6 40.4 35.45 40.15 L32.05 40.3 30.8 40.7 30.25 40.95 Q28.2 41.85 26.15 43.55 L25.5 43.7 Q22.9 43.4 21.4 42.75 19.95 42.15 19.5 41.2 19.45 40.65 19.55 40.05 19.7 38.75 20.45 37.5 L21.1 36.6 Q22.05 35.9 23.15 35.55 25.95 34.6 29.55 35.55 M19.75 13.4 L20.7 13.35 Q18.5 17.15 18.1 22.75 17.85 25.75 19.1 28.35 L19.1 28.4 Q19.65 28.95 21.4 29.15 L19.75 29.6 Q18.15 30.1 16.6 30.95 L16.45 29.8 Q16.0 26.1 16.5 22.2 17.2 16.55 19.75 13.4 M25.8 27.9 L25.85 28.8 24.55 28.75 25.8 27.9 M11.95 15.75 Q12.55 18.75 12.15 22.3 11.65 27.05 12.35 32.1 L12.75 34.5 Q12.75 35.75 11.95 36.15 11.45 34.55 11.35 31.25 11.2 27.95 11.45 22.05 L11.95 15.75" fill="#341a04" fill-rule="evenodd" stroke="none"/>
      <path d="M26.95 28.9 L27.3 28.95 27.9 29.0 28.55 29.8 28.75 30.9 Q29.1 32.45 29.7 33.9 L27.85 33.75 26.4 32.4 25.3 30.8 24.55 28.75 25.85 28.8 26.95 28.9 M37.65 40.95 L37.95 42.15 Q38.0 42.95 37.05 43.15 L35.8 42.85 Q33.5 42.8 31.25 43.85 28.5 44.35 28.55 43.15 28.35 42.15 30.25 40.95 L30.8 40.7 32.05 40.3 35.45 40.15 Q36.6 40.4 37.65 40.95 M16.35 31.1 L16.6 30.95 Q18.15 30.1 19.75 29.6 L21.4 29.15 21.8 29.05 Q23.25 30.6 23.7 32.25 24.0 33.2 23.95 34.15 L21.25 34.55 19.1 34.2 Q17.15 33.45 16.35 31.1" fill="#b97c2d" fill-rule="evenodd" stroke="none"/>
      <path d="M23.1 13.25 Q23.75 14.75 24.25 16.95 24.9 19.65 25.3 23.45 L25.8 27.35 25.8 27.9 24.55 28.75 21.8 29.05 21.4 29.15 Q19.65 28.95 19.1 28.4 L19.1 28.35 Q17.85 25.75 18.1 22.75 18.5 17.15 20.7 13.35 L23.1 13.25 M29.85 35.95 L30.5 36.4 30.5 36.8 Q28.85 38.45 23.45 38.6 L22.7 38.35 Q22.0 38.05 21.9 37.6 L21.9 37.25 Q22.9 35.85 26.0 35.45 28.45 35.35 29.85 35.95 M30.45 37.25 L30.95 37.7 Q30.55 38.4 28.75 38.9 L24.4 39.8 Q25.4 39.2 26.65 38.8 L28.2 38.45 Q29.75 38.25 30.45 37.25 M25.1 24.65 Q22.5 24.0 19.85 24.65 22.5 24.0 25.1 24.65 M24.45 22.6 Q22.25 21.75 19.8 22.6 22.25 21.75 24.45 22.6 M24.85 26.9 L19.85 27.2 24.85 26.9" fill="#472506" fill-rule="evenodd" stroke="none"/>
      <path d="M24.25 16.95 Q24.8 14.75 26.0 15.6 25.9 21.55 26.95 28.45 26.15 28.9 25.8 27.35 L25.3 23.45 Q24.9 19.65 24.25 16.95 M29.7 33.9 L30.1 34.85 Q27.15 34.15 20.9 35.8 L19.45 36.3 19.35 36.35 Q18.45 36.5 18.05 35.95 L17.9 35.7 17.25 34.45 15.9 31.3 15.9 32.1 Q15.0 32.5 14.7 31.15 L14.65 30.8 Q14.2 26.8 14.45 22.5 14.75 17.3 16.55 12.85 L19.75 13.4 Q17.2 16.55 16.5 22.2 16.0 26.1 16.45 29.8 L16.6 30.95 16.35 31.1 15.9 31.3 16.35 31.1 Q17.15 33.45 19.1 34.2 L21.25 34.55 23.95 34.15 24.2 34.1 27.85 33.75 29.7 33.9 M37.95 42.15 Q38.1 43.25 37.6 44.2 37.65 43.5 37.05 43.15 38.0 42.95 37.95 42.15 M9.55 35.4 L9.7 35.1 9.85 35.35 10.5 35.85 11.0 36.15 11.25 36.3 11.45 36.3 11.7 36.85 Q12.05 37.75 10.95 37.7 L10.7 37.65 Q10.05 37.35 9.75 36.7 9.5 36.15 9.55 35.4 M17.75 39.75 L17.95 39.9 18.0 40.55 Q18.25 41.8 19.45 42.6 L21.2 43.4 25.5 43.7 26.15 43.55 Q28.2 41.85 30.25 40.95 28.35 42.15 28.55 43.15 28.5 44.35 31.25 43.85 L29.75 44.6 Q26.25 46.1 23.4 45.45 L20.8 44.75 Q17.45 43.55 17.4 41.6 L17.4 40.8 Q17.45 39.65 17.75 39.75" fill="#a4570a" fill-rule="evenodd" stroke="none"/>
      <path d="M14.5 41.8 L13.0 41.9 Q13.0 40.8 13.25 40.35 13.6 41.25 14.1 40.95 L14.5 41.8 M9.9 34.95 Q10.85 28.5 10.15 22.15 9.95 16.45 7.8 10.85 L11.0 12.5 11.95 15.75 11.45 22.05 Q11.2 27.95 11.35 31.25 11.45 34.55 11.95 36.15 L11.65 36.25 11.45 36.3 11.25 36.3 11.0 36.15 10.5 35.85 9.85 35.35 9.9 34.95 M17.95 39.9 L18.85 38.7 19.8 37.65 20.05 37.45 21.1 36.6 20.45 37.5 Q19.7 38.75 19.55 40.05 19.45 40.65 19.5 41.2 19.95 42.15 21.4 42.75 22.9 43.4 25.5 43.7 L21.2 43.4 19.45 42.6 Q18.25 41.8 18.0 40.55 L17.95 39.9" fill="#1f0e02" fill-rule="evenodd" stroke="none"/>
      <path d="M36.35 44.8 L34.7 46.45 34.5 46.6 Q30.5 47.85 29.7 47.15 28.6 46.05 31.05 44.55 32.8 43.8 34.45 43.55 37.6 43.1 36.35 44.8 M13.0 41.9 L12.85 41.9 11.75 41.35 10.1 40.0 11.5 40.1 Q12.1 39.9 12.55 39.25 L12.5 39.95 13.25 40.35 Q13.0 40.8 13.0 41.9 M15.9 33.0 L15.9 32.1 15.9 31.3 17.25 34.45 17.9 35.7 18.05 35.95 18.5 36.8 18.3 37.35 Q18.2 37.7 18.4 38.15 L17.15 36.8 18.4 38.15 19.8 37.65 18.85 38.7 17.95 39.9 17.75 39.75 16.85 38.4 Q15.4 39.7 14.5 41.8 L14.1 40.95 14.5 40.05 14.7 39.7 Q15.5 38.2 16.65 37.2 L17.15 36.8 17.8 36.5 16.2 33.0 15.9 33.0" fill="#5f2600" fill-rule="evenodd" stroke="none"/>
      <path d="M21.8 29.05 L24.55 28.75 25.3 30.8 26.4 32.4 27.85 33.75 24.2 34.1 23.95 34.15 Q24.0 33.2 23.7 32.25 23.25 30.6 21.8 29.05" fill="#c2a93c" fill-rule="evenodd" stroke="none"/>
      <path d="M34.5 46.6 Q30.55 49.15 25.1 48.15 L22.45 47.15 26.65 46.95 26.75 46.9 Q29.0 45.35 31.05 44.55 28.6 46.05 29.7 47.15 30.5 47.85 34.5 46.6 M15.9 33.0 L16.2 33.0 17.8 36.5 17.15 36.8 Q17.25 35.1 16.2 35.9 L15.3 36.6 15.85 35.45 16.1 34.6 15.85 34.15 15.25 34.2 Q13.3 36.0 12.95 39.4 L13.5 39.3 13.85 39.3 Q13.35 40.65 14.5 40.05 L14.1 40.95 Q13.6 41.25 13.25 40.35 L12.5 39.95 12.55 39.25 12.7 38.15 12.85 37.65 13.0 37.05 13.05 36.95 13.2 36.5 13.75 35.5 14.15 34.9 15.9 33.0" fill="#4c1e00" fill-rule="evenodd" stroke="none"/>
      <path d="M26.0 15.6 L26.1 13.05 23.1 13.25 Q23.75 14.75 24.25 16.95 24.8 14.75 26.0 15.6 25.9 21.55 26.95 28.45 L26.95 28.9 27.3 28.95 27.9 29.0 28.55 29.8 M30.25 35.25 Q29.8 35.65 29.55 35.55 L29.85 35.95 30.5 36.4 M37.65 40.95 L37.95 42.15 Q38.1 43.25 37.6 44.2 L36.35 44.8 34.7 46.45 34.5 46.6 Q30.55 49.15 25.1 48.15 L22.45 47.15 20.25 46.55 Q16.25 45.1 14.65 42.2 L14.5 41.8 13.0 41.9 12.85 41.9 11.75 41.35 10.1 40.0 9.6 39.3 Q9.3 38.05 9.35 36.75 L9.35 36.7 9.45 35.95 9.55 35.4 9.7 35.1 9.9 34.95 Q10.85 28.5 10.15 22.15 9.95 16.45 7.8 10.85 L11.0 12.5 16.55 12.85 19.75 13.4 20.7 13.35 23.1 13.25 M25.85 28.8 L25.8 27.9 M24.55 28.75 L25.85 28.8 26.95 28.9 M25.8 27.35 L25.8 27.9 M11.95 15.75 L11.0 12.5 M11.95 36.15 Q12.75 35.75 12.75 34.5 L12.35 32.1 Q11.65 27.05 12.15 22.3 12.55 18.75 11.95 15.75 M11.95 36.15 L11.65 36.25 11.45 36.3 11.25 36.3 11.0 36.15 10.5 35.85 9.85 35.35 9.9 34.95 M15.9 33.0 L15.9 32.1 15.9 31.3 16.35 31.1 16.6 30.95 16.45 29.8 Q16.0 26.1 16.5 22.2 17.2 16.55 19.75 13.4 M21.4 29.15 L19.75 29.6 Q18.15 30.1 16.6 30.95 M21.4 29.15 L21.8 29.05 24.55 28.75 M19.85 27.2 L24.85 26.9 M19.8 22.6 Q22.25 21.75 24.45 22.6 M19.85 24.65 Q22.5 24.0 25.1 24.65 M15.9 33.0 L16.2 33.0 17.8 36.5 17.15 36.8 18.4 38.15 M25.8 27.35 L25.3 23.45 Q24.9 19.65 24.25 16.95 M21.1 36.6 Q22.05 35.9 23.15 35.55 25.95 34.6 29.55 35.55 M17.15 36.8 L16.65 37.2 Q15.5 38.2 14.7 39.7 L14.5 40.05 14.1 40.95 14.5 41.8 M17.95 39.9 L18.85 38.7 19.8 37.65 18.4 38.15 M19.8 37.65 L20.05 37.45 21.1 36.6 M25.5 43.7 L26.15 43.55 Q28.2 41.85 30.25 40.95 L30.8 40.7 32.05 40.3 35.45 40.15 Q36.6 40.4 37.65 40.95 M25.5 43.7 L21.2 43.4 19.45 42.6 Q18.25 41.8 18.0 40.55 L17.95 39.9 M12.55 39.25 L12.7 38.15 12.85 37.65 13.0 37.05 13.05 36.95 13.2 36.5 13.75 35.5 14.15 34.9 15.9 33.0 M13.0 41.9 Q13.0 40.8 13.25 40.35 L12.5 39.95 12.55 39.25 M14.1 40.95 Q13.6 41.25 13.25 40.35 M30.45 37.25 Q29.75 38.25 28.2 38.45 L26.65 38.8 Q25.4 39.2 24.4 39.8 M36.35 44.8 Q37.6 43.1 34.45 43.55 32.8 43.8 31.05 44.55 29.0 45.35 26.75 46.9 L26.65 46.95 22.45 47.15" fill="none" stroke="#000000" stroke-linecap="round" stroke-linejoin="round" stroke-opacity="0.3019608" stroke-width="0.05"/>
      <path d="M38.05 40.25 L37.65 40.95 M30.1 34.85 L30.15 34.9" fill="none" stroke="#000000" stroke-linecap="round" stroke-linejoin="round" stroke-opacity="0.3019608" stroke-width="0.05"/>
      <path d="M29.9 20.0 Q31.4 17.0 34.5 15.15 37.1 13.2 40.2 14.1 43.6 15.2 44.9 17.75 38.9 19.75 36.4 25.6 36.1 26.5 36.05 27.45 33.65 27.3 31.5 26.35 L30.75 25.7 Q29.7 24.55 29.7 22.5 29.65 21.4 29.9 20.0" fill="#1f0e02" fill-rule="evenodd" stroke="none"/>
      <path d="M29.7 22.5 Q29.7 24.55 30.75 25.7 L31.5 26.35 Q30.95 33.6 35.0 37.65 35.6 38.35 37.1 38.8 38.35 38.8 38.4 36.15 38.9 38.4 38.05 40.25 32.95 39.5 30.95 37.7 31.4 36.55 30.7 34.65 29.65 32.65 29.1 29.55 28.6 25.5 29.7 22.5" fill="#341a04" fill-rule="evenodd" stroke="none"/>
      <path d="M29.9 20.0 Q29.65 21.4 29.7 22.5 28.6 25.5 29.1 29.55 29.65 32.65 30.7 34.65 31.4 36.55 30.95 37.7 L30.45 37.25 30.5 36.4 30.25 35.25 30.15 34.9 30.15 34.85 30.1 34.85 29.7 33.9 Q29.1 32.45 28.75 30.9 L28.55 29.8 28.35 27.75 Q28.25 26.05 28.5 24.4 28.85 21.95 29.9 20.0 M31.5 26.35 Q33.65 27.3 36.05 27.45 L36.1 28.1 Q36.2 30.6 37.65 34.0 L37.7 34.1 38.4 36.15 Q38.35 38.8 37.1 38.8 35.6 38.35 35.0 37.65 30.95 33.6 31.5 26.35" fill="#472506" fill-rule="evenodd" stroke="none"/>
      <path d="M36.05 27.45 Q36.1 26.5 36.4 25.6 38.9 19.75 44.9 17.75 43.6 15.2 40.2 14.1 37.1 13.2 34.5 15.15 31.4 17.0 29.9 20.0 M36.05 27.45 L36.1 28.1 Q36.2 30.6 37.65 34.0 L37.7 34.1 38.4 36.15 Q38.9 38.4 38.05 40.25 M30.45 37.25 L30.5 36.4 30.25 35.25 30.15 34.9 M30.1 34.85 L29.7 33.9 Q29.1 32.45 28.75 30.9 L28.55 29.8 28.35 27.75 Q28.25 26.05 28.5 24.4 28.85 21.95 29.9 20.0" fill="none" stroke="#000000" stroke-linecap="round" stroke-linejoin="round" stroke-opacity="0.3019608" stroke-width="0.05"/>
      <path d="M9.9 19.7 L19.45 16.2 25.95 19.7 Q26.05 21.55 25.25 23.35 22.6 22.6 20.15 20.65 17.6 23.45 13.35 25.5 12.0 23.9 11.75 21.7 11.25 22.35 10.1 22.6 L9.9 19.7" fill="#000000" fill-opacity="0.5019608" fill-rule="evenodd" stroke="none"/>
      <path d="M36.1 33.05 Q36.45 32.95 36.9 33.75 L37.7 35.8 38.05 38.0 Q38.05 38.9 37.7 39.0 37.4 39.1 37.15 38.25 L36.55 36.2 36.0 34.0 Q35.8 33.1 36.1 33.05" fill="#6a2f09" fill-rule="evenodd" stroke="none"/>
      <path d="M29.9 20.0 Q28.85 21.95 28.5 24.4 28.25 26.05 28.35 27.75 L28.55 29.8 27.9 29.0 27.3 28.95 26.95 28.9 26.95 28.45 Q25.9 21.55 26.0 15.6 L26.1 13.05 19.75 13.4 16.55 12.85 11.0 12.5 7.8 10.85 Q9.95 16.45 10.15 22.15 10.85 28.5 9.9 34.95 L9.7 35.1 9.55 35.4 9.45 35.95 9.35 36.7 9.35 36.75 Q9.3 38.05 9.6 39.3 L10.1 40.0 11.75 41.35 12.85 41.9 14.5 41.8 14.65 42.2 Q16.25 45.1 20.25 46.55 L22.45 47.15 25.1 48.15 Q30.55 49.15 34.5 46.6 L34.7 46.45 36.35 44.8 37.6 44.2 Q38.1 43.25 37.95 42.15 L37.65 40.95 38.05 40.25 Q38.9 38.4 38.4 36.15 L37.7 34.1 37.65 34.0 Q36.2 30.6 36.1 28.1 L36.05 27.45 Q36.1 26.5 36.4 25.6 38.9 19.75 44.9 17.75 43.6 15.2 40.2 14.1 37.1 13.2 34.5 15.15 31.4 17.0 29.9 20.0 M29.85 35.95 L30.5 36.4 30.25 35.25 Q29.8 35.65 29.55 35.55 L29.85 35.95" fill="none" stroke="#000000" stroke-linecap="round" stroke-linejoin="round" stroke-opacity="0.3019608" stroke-width="0.5"/>
      <path d="M6.05 2.8 Q6.8 4.2 7.85 4.95 9.3 6.05 11.45 5.8 L11.05 4.7 11.1 3.6 Q8.45 2.7 6.05 2.8 M12.05 3.95 L11.9 4.65 11.75 6.0 Q13.55 5.8 14.05 4.45 14.4 3.6 14.35 2.3 L13.1 1.6 Q12.4 2.75 12.05 3.95 M15.6 3.75 L14.95 4.4 14.3 4.95 14.0 5.25 13.25 6.2 20.55 5.85 21.55 5.45 21.95 5.35 Q23.1 4.55 23.25 3.55 23.65 2.45 22.75 1.15 18.15 2.05 15.6 3.75 M0.75 16.9 L4.0 14.7 5.35 13.55 Q7.95 11.15 9.25 8.35 6.95 9.2 5.3 10.3 L4.8 10.6 Q3.4 11.6 2.5 12.7 0.85 14.7 0.75 16.9 M0.0 7.1 L4.4 8.15 Q8.8 8.7 9.45 6.45 L8.6 6.35 7.55 6.3 4.1 6.25 Q1.75 6.45 0.0 7.1 M29.75 4.65 Q27.35 4.8 25.2 5.45 L23.1 6.15 22.45 6.45 Q21.35 7.65 23.75 7.55 L24.8 7.55 Q29.0 7.1 29.75 4.65 M28.15 8.3 L26.45 8.7 Q25.8 8.85 25.5 9.1 25.8 10.4 29.2 10.8 L29.95 10.9 34.95 10.95 Q33.1 9.95 31.05 9.2 L30.5 9.05 28.15 8.3 M28.6 13.35 L27.7 13.5 Q26.85 14.25 28.55 14.8 L31.9 15.5 29.0 13.55 28.6 13.35" fill="#8c8c02" fill-rule="evenodd" stroke="none"/>
      <path d="M11.1 3.6 L11.05 4.7 11.45 5.8 Q9.3 6.05 7.85 4.95 6.8 4.2 6.05 2.8 6.3 3.95 6.9 5.1 L7.55 6.3 8.6 6.35 9.45 6.45 Q8.8 8.7 4.4 8.15 L0.0 7.1 Q1.95 8.8 4.75 10.05 L5.3 10.3 Q6.95 9.2 9.25 8.35 7.95 11.15 5.35 13.55 L4.0 14.7 0.75 16.9 1.15 16.9 Q4.95 15.7 7.05 13.85 9.8 11.7 10.2 9.55 L9.9 8.3 11.6 8.15 Q10.6 7.5 10.15 6.7 11.0 6.85 11.8 7.4 11.55 6.85 11.8 6.25 L12.45 6.6 Q12.65 6.05 14.0 5.25 L14.3 4.95 14.95 4.4 15.6 3.75 14.35 2.3 Q14.4 3.6 14.05 4.45 13.55 5.8 11.75 6.0 L11.9 4.65 12.05 3.95 11.1 3.6 M22.75 1.15 Q23.65 2.45 23.25 3.55 23.1 4.55 21.95 5.35 L21.55 5.45 20.55 5.85 13.25 6.2 13.05 6.5 18.45 6.6 18.2 7.85 19.5 7.45 21.6 6.75 Q21.45 7.6 20.5 8.5 L25.9 8.3 Q22.7 9.55 22.3 11.1 24.5 12.1 26.95 13.55 L23.45 13.75 24.5 14.85 25.0 15.25 28.15 15.8 28.2 15.8 28.25 15.8 29.65 15.9 31.95 15.6 31.9 15.5 28.55 14.8 Q26.85 14.25 27.7 13.5 L28.6 13.35 29.1 13.25 31.75 12.5 Q33.65 11.85 34.95 10.95 L29.95 10.9 29.2 10.8 Q25.8 10.4 25.5 9.1 25.8 8.85 26.45 8.7 L28.15 8.3 28.6 7.75 Q29.8 6.15 29.75 4.65 29.0 7.1 24.8 7.55 L23.75 7.55 Q21.35 7.65 22.45 6.45 L23.1 6.15 25.2 5.45 Q25.2 3.4 22.75 1.15 M28.55 16.35 L28.15 16.3 23.95 15.65 24.6 16.9 25.25 17.8 25.9 18.6 26.95 19.3 Q28.05 19.85 29.2 20.7 29.6 19.25 29.1 17.6 L28.55 16.35 M13.3 22.6 Q13.75 20.3 13.15 18.5 12.7 17.15 11.8 16.05 11.35 17.25 11.55 18.6 11.8 20.45 13.3 22.6 M8.4 19.25 L8.55 18.75 Q8.95 17.75 8.25 16.75 7.45 17.6 7.1 18.8 L7.05 18.9 6.75 20.45 6.75 20.7 6.75 20.9 7.95 19.9 8.4 19.25" fill="#666501" fill-rule="evenodd" stroke="none"/>
      <path d="M14.0 5.25 Q12.65 6.05 12.45 6.6 L11.8 6.25 Q11.55 6.85 11.8 7.4 11.0 6.85 10.15 6.7 10.6 7.5 11.6 8.15 L9.9 8.3 10.2 9.55 Q9.8 11.7 7.05 13.85 4.95 15.7 1.15 16.9 L3.45 17.0 Q7.15 15.95 9.4 14.0 L8.75 15.35 7.8 16.8 7.0 18.65 6.9 18.85 Q6.75 19.65 6.75 20.45 L7.05 18.9 7.1 18.8 Q7.45 17.6 8.25 16.75 8.95 17.75 8.55 18.75 L8.4 19.25 10.7 15.85 10.9 17.35 11.15 18.6 11.4 19.4 Q12.05 21.2 13.3 22.6 17.65 19.2 18.45 14.05 L22.6 13.85 21.7 14.8 25.0 15.25 24.5 14.85 23.45 13.75 26.95 13.55 Q24.5 12.1 22.3 11.1 22.7 9.55 25.9 8.3 L20.5 8.5 Q21.45 7.6 21.6 6.75 L19.5 7.45 18.2 7.85 18.45 6.6 13.05 6.5 13.25 6.2 14.0 5.25 M13.3 22.6 Q11.8 20.45 11.55 18.6 11.35 17.25 11.8 16.05 12.7 17.15 13.15 18.5 13.75 20.3 13.3 22.6" fill="#4c4c00" fill-rule="evenodd" stroke="none"/>
      <path d="M28.2 15.8 L28.15 15.8 25.0 15.25 21.7 14.8 22.6 13.85 18.45 14.05 Q17.65 19.2 13.3 22.6 16.85 21.25 19.85 18.15 L20.05 17.9 20.3 18.1 Q23.65 19.9 29.2 20.7 28.05 19.85 26.95 19.3 L25.9 18.6 25.25 17.8 24.6 16.9 23.95 15.65 28.15 16.3 28.55 16.35 28.3 15.85 28.2 15.8 M11.4 19.4 L11.15 18.6 10.9 17.35 10.7 15.85 8.4 19.25 7.95 19.9 6.75 20.9 8.6 20.65 11.4 19.4 M7.8 16.8 L8.75 15.35 9.4 14.0 Q7.15 15.95 3.45 17.0 L5.7 17.0 7.8 16.8" fill="#393900" fill-rule="evenodd" stroke="none"/>
      <path d="M11.1 3.6 L12.05 3.95 11.9 4.65 11.75 6.0 M14.35 2.3 L15.6 3.75 14.95 4.4 14.3 4.95 14.0 5.25 M1.15 16.9 L0.75 16.9 M9.25 8.35 Q6.95 9.2 5.3 10.3 L4.75 10.05 Q1.95 8.8 0.0 7.1 M9.45 6.45 L8.6 6.35 7.55 6.3 6.9 5.1 Q6.3 3.95 6.05 2.8 8.45 2.7 11.1 3.6 M7.55 6.3 L4.1 6.25 Q1.75 6.45 0.0 7.1 M13.25 6.2 L14.0 5.25 M25.2 5.45 Q25.2 3.4 22.75 1.15 18.15 2.05 15.6 3.75 M29.75 4.65 Q27.35 4.8 25.2 5.45 L23.1 6.15 22.45 6.45 M29.75 4.65 Q29.8 6.15 28.6 7.75 L28.15 8.3 M34.95 10.95 Q33.65 11.85 31.75 12.5 L29.1 13.25 28.6 13.35 27.7 13.5 M31.9 15.5 L31.95 15.6 29.65 15.9 28.25 15.8 28.2 15.8 28.15 15.8 25.0 15.25 M14.35 2.3 L13.1 1.6 Q12.4 2.75 12.05 3.95 M34.95 10.95 Q33.1 9.95 31.05 9.2 L30.5 9.05 28.15 8.3 M31.9 15.5 L29.0 13.55 28.6 13.35 M29.2 20.7 Q23.65 19.9 20.3 18.1 L20.05 17.9 19.85 18.15 Q16.85 21.25 13.3 22.6 12.05 21.2 11.4 19.4 L11.15 18.6 10.9 17.35 M6.75 20.45 Q6.75 19.65 6.9 18.85 L7.0 18.65 7.8 16.8 8.75 15.35 M3.45 17.0 L1.15 16.9 M28.2 15.8 L28.3 15.85 28.55 16.35 29.1 17.6 Q29.6 19.25 29.2 20.7 M5.3 10.3 L4.8 10.6 Q3.4 11.6 2.5 12.7 0.85 14.7 0.75 16.9 M11.4 19.4 L8.6 20.65 6.75 20.9 6.75 20.7 6.75 20.45 M3.45 17.0 L5.7 17.0 7.8 16.8" fill="none" stroke="#000000" stroke-linecap="round" stroke-linejoin="round" stroke-opacity="0.3019608" stroke-width="0.05"/>
      <path d="M10.7 12.8 L10.6 12.5 Q10.2 10.55 13.2 9.35 15.8 8.3 18.25 8.55 23.15 9.2 24.95 11.5 L23.85 12.5 Q21.75 13.9 17.7 14.25 13.6 14.5 12.3 13.75 L10.7 12.8" fill="#1f0e02" fill-rule="evenodd" stroke="none"/>
      <path d="M24.95 11.5 Q23.15 9.2 18.25 8.55 15.8 8.3 13.2 9.35 10.2 10.55 10.6 12.5 L10.7 12.8 Q9.6 12.2 9.05 11.6 L5.1 10.0 5.6 10.0 10.25 10.2 9.9 8.3 12.2 8.4 Q11.8 7.35 7.8 6.05 L11.9 6.35 14.6 6.15 21.05 4.9 20.8 5.2 17.5 6.75 20.3 6.2 21.0 6.3 Q22.3 5.35 24.1 5.05 L22.65 7.35 23.35 9.15 25.1 10.8 27.4 10.75 25.3 11.5 24.95 11.5" fill="#393900" fill-rule="evenodd" stroke="none"/>
      <path d="M27.4 10.75 L25.1 10.8 23.35 9.15 22.65 7.35 24.1 5.05 24.45 4.8 Q24.05 6.7 25.05 8.8 L25.35 9.4 25.45 9.65 Q26.1 10.4 27.75 10.65 L27.4 10.75 M20.3 6.2 L17.5 6.75 20.8 5.2 20.3 6.2 M7.8 6.05 Q11.8 7.35 12.2 8.4 L9.9 8.3 10.25 10.2 5.6 10.0 Q6.6 9.15 7.9 8.85 L9.15 7.65 7.8 6.05" fill="#4c4c00" fill-rule="evenodd" stroke="none"/>
      <path d="M0.05 7.15 Q1.75 6.45 4.1 6.25 L7.6 6.3 6.9 5.05 Q6.3 3.95 6.1 2.8 8.45 2.7 11.15 3.65 L12.1 4.0 Q12.4 2.75 13.15 1.6 L14.35 2.3 15.65 3.8 Q18.15 2.05 22.75 1.15 25.2 3.35 25.2 5.5 27.35 4.85 29.75 4.7 29.85 6.15 28.6 7.75 L28.1 8.35 30.5 9.1 31.05 9.2 35.0 11.0 Q33.7 11.9 31.75 12.5 L29.15 13.25 28.6 13.35 29.0 13.6 31.9 15.5 32.0 15.6 29.65 15.9 28.25 15.8 28.2 15.8 28.3 15.85 28.55 16.35 29.1 17.65 Q29.6 19.25 29.2 20.7 23.65 19.9 20.3 18.15 L20.05 17.95 19.9 18.2 Q16.85 21.25 13.35 22.6 12.1 21.25 11.4 19.45 10.2 20.2 8.6 20.65 L6.8 20.95 6.8 20.7 6.8 20.45 Q6.8 19.65 6.95 18.85 L7.05 18.7 Q7.3 17.7 7.85 16.85 L5.75 17.0 3.45 17.05 1.15 16.95 0.75 16.9 Q0.9 14.7 2.5 12.75 3.45 11.6 4.85 10.65 L5.3 10.3 4.8 10.05 Q2.0 8.85 0.05 7.15 Z" fill="none" stroke="#000000" stroke-linecap="round" stroke-linejoin="round" stroke-opacity="0.3019608" stroke-width="0.5"/>
      <path d="M44.05 10.3 Q44.95 10.45 45.8 10.95 L45.9 11.15 46.5 12.15 Q46.95 12.65 47.4 12.8 L47.95 12.85 48.35 13.35 Q47.55 14.05 44.05 10.3" fill="#b97c2d" fill-rule="evenodd" stroke="none"/>
      <path d="M48.35 13.35 Q49.4 14.95 49.65 16.8 49.9 19.25 48.7 20.7 47.45 22.15 45.4 21.9 43.35 21.6 41.75 19.7 40.1 17.8 39.8 15.35 39.5 13.0 40.75 11.5 42.0 10.0 44.05 10.3 47.55 14.05 48.35 13.35" fill="#9b5119" fill-rule="evenodd" stroke="none"/>
      <path d="M45.8 10.95 Q46.85 11.5 47.7 12.5 L47.95 12.85 47.4 12.8 Q46.95 12.65 46.5 12.15 L45.9 11.15 45.8 10.95" fill="#c2a93c" fill-rule="evenodd" stroke="none"/>
      <path d="M48.35 13.35 Q49.4 14.95 49.65 16.8 49.9 19.25 48.7 20.7 47.45 22.15 45.4 21.9 43.35 21.6 41.75 19.7 40.1 17.8 39.8 15.35 39.5 13.0 40.75 11.5 42.0 10.0 44.05 10.3 44.95 10.45 45.8 10.95 46.85 11.5 47.7 12.5 L47.95 12.85 48.35 13.35 Z" fill="none" stroke="#000000" stroke-linecap="round" stroke-linejoin="round" stroke-opacity="0.3019608" stroke-width="0.05"/>
      <path d="M42.25 9.65 L42.55 9.7 Q44.8 10.05 46.6 12.3 48.1 14.2 48.6 16.55 48.95 17.5 49.4 17.1 L49.55 16.2 49.95 17.2 Q49.0 18.3 48.45 17.45 L47.9 15.45 Q46.15 11.5 42.25 9.65" fill="#2c1603" fill-rule="evenodd" stroke="none"/>
      <path d="M49.95 17.2 Q50.15 18.3 49.45 20.05 49.1 21.25 47.7 22.2 46.35 24.0 44.1 23.7 41.8 23.35 40.0 21.1 38.2 18.8 37.85 15.9 37.55 13.0 38.9 11.15 40.2 9.45 42.25 9.65 46.15 11.5 47.9 15.45 L48.45 17.45 Q49.0 18.3 49.95 17.2" fill="#1f0e02" fill-rule="evenodd" stroke="none"/>
      <path d="M49.95 17.2 Q50.15 18.3 49.45 20.05 49.1 21.25 47.7 22.2 46.35 24.0 44.1 23.7 41.8 23.35 40.0 21.1 38.2 18.8 37.85 15.9 37.55 13.0 38.9 11.15 40.2 9.45 42.25 9.65 L42.55 9.7 Q44.8 10.05 46.6 12.3 48.1 14.2 48.6 16.55 48.95 17.5 49.4 17.1 L49.55 16.2 49.95 17.2 Z" fill="none" stroke="#000000" stroke-linecap="round" stroke-linejoin="round" stroke-opacity="0.3019608" stroke-width="0.05"/>
    </g>
    <g id="sprite1" transform="matrix(1.0, 0.0, 0.0, 1.0, 0.0, 0.0)">
      <use height="36.05" transform="matrix(1.0, 0.0, 0.0, 1.0, 0.0, 0.0)" width="10.1" xlink:href="#shape2"/>
    </g>
    <g id="shape2" transform="matrix(1.0, 0.0, 0.0, 1.0, 0.0, 0.0)">
      <path d="M7.25 14.75 Q7.65 15.4 8.6 14.55 10.3 8.15 8.7 0.65 L9.0 0.95 Q10.4 6.7 10.05 12.6 9.45 21.3 4.95 30.3 3.15 33.85 1.35 36.05 L0.0 35.7 Q6.1 28.3 7.15 19.45 L7.25 14.75" fill="#1f0e02" fill-rule="evenodd" stroke="none"/>
      <path d="M7.25 14.75 L6.85 10.35 Q5.0 -2.6 8.7 0.65 10.3 8.15 8.6 14.55 7.65 15.4 7.25 14.75" fill="#341a04" fill-rule="evenodd" stroke="none"/>
    </g>
    <g id="shape3" transform="matrix(1.0, 0.0, 0.0, 1.0, -28.65, -9.0)">
      <path d="M47.2 15.1 L47.95 17.3 48.1 18.2 48.15 19.45 Q47.6 21.2 46.25 22.6 44.65 24.25 42.6 24.95 L39.25 25.4 Q34.95 25.45 31.6 22.55 29.85 21.05 28.85 19.2 L28.7 18.1 Q28.5 16.6 28.85 15.25 29.05 14.15 29.7 13.1 L29.7 13.4 29.7 13.45 Q29.85 14.8 30.4 15.95 L30.65 16.5 Q31.45 18.05 32.95 19.35 35.75 21.75 39.35 21.75 L42.2 21.35 Q43.95 20.75 45.25 19.35 L46.5 17.65 46.9 16.7 46.95 16.45 47.2 15.1" fill="#aa7f1d" fill-rule="evenodd" stroke="none"/>
      <path d="M29.7 13.1 L30.8 11.65 Q32.25 10.1 34.25 9.45 L37.35 9.0 Q41.35 9.05 44.5 11.7 46.25 13.2 47.2 15.1 L46.95 16.45 46.9 16.7 46.5 17.65 45.25 19.35 Q43.95 20.75 42.2 21.35 L39.35 21.75 Q35.75 21.75 32.95 19.35 31.45 18.05 30.65 16.5 L30.4 15.95 Q29.85 14.8 29.7 13.45 L29.7 13.4 29.7 13.1" fill="#af8d3f" fill-rule="evenodd" stroke="none"/>
      <path d="M48.15 19.45 L47.9 21.6 Q47.35 23.3 46.0 24.7 43.45 27.4 39.45 27.35 35.4 27.35 32.3 24.65 29.55 22.3 28.85 19.2 29.85 21.05 31.6 22.55 34.95 25.45 39.25 25.4 L42.6 24.95 Q44.65 24.25 46.25 22.6 47.6 21.2 48.15 19.45" fill="#7c5c11" fill-rule="evenodd" stroke="none"/>
      <path d="M29.7 13.1 L30.8 11.65 Q32.25 10.1 34.25 9.45 L37.35 9.0 Q41.35 9.05 44.5 11.7 46.25 13.2 47.2 15.1 L47.95 17.3 48.1 18.2 48.15 19.45 47.9 21.6 Q47.35 23.3 46.0 24.7 43.45 27.4 39.45 27.35 35.4 27.35 32.3 24.65 29.55 22.3 28.85 19.2 L28.7 18.1 Q28.5 16.6 28.85 15.25 29.05 14.15 29.7 13.1 Z" fill="none" stroke="#000000" stroke-linecap="round" stroke-linejoin="round" stroke-opacity="0.3019608" stroke-width="0.05"/>
      <path d="M43.35 15.45 L39.9 15.75 Q37.85 15.45 36.4 14.45 34.95 13.45 34.95 12.3 34.95 11.15 36.4 10.55 L39.9 10.25 Q41.9 10.55 43.35 11.55 44.8 12.6 44.8 13.75 44.8 14.9 43.35 15.45" fill="#b49b62" fill-rule="evenodd" stroke="none"/>
    </g>
    <g id="shape4" transform="matrix(1.0, 0.0, 0.0, 1.0, -18.15, 0.1)">
      <path d="M30.7 11.5 L30.75 11.5 30.7 11.5" fill="#7c5c11" fill-rule="evenodd" stroke="none"/>
      <path d="M37.1 20.25 L37.4 18.2 Q37.4 15.6 35.95 13.6 L35.5 12.95 34.15 11.85 Q33.45 11.4 32.6 11.3 L30.75 11.5 30.7 11.5 30.15 11.8 30.2 11.75 31.15 10.85 Q32.75 10.45 34.85 11.65 36.85 12.75 37.5 15.45 38.0 17.35 37.9 19.1 L37.7 20.6 Q37.4 21.4 36.75 21.65 37.2 21.0 37.1 20.25 M29.15 21.7 Q27.65 20.3 27.4 19.2 L27.35 19.05 27.35 19.0 27.35 18.85 Q27.3 18.25 27.95 18.25 30.85 18.55 33.45 20.5 36.05 22.8 34.3 23.35 31.55 23.45 29.15 21.7" fill="#2c1603" fill-rule="evenodd" stroke="none"/>
      <path d="M30.15 11.8 L30.7 11.5 Q29.7 12.35 29.35 13.7 29.0 15.05 29.45 16.1 29.95 17.15 30.95 17.3 32.0 17.45 33.0 16.6 34.0 15.8 34.35 14.45 34.7 13.1 34.25 12.05 L34.15 11.85 35.5 12.95 Q35.85 14.45 35.4 16.2 34.9 18.05 33.7 19.3 L33.05 18.9 31.8 18.25 30.35 17.7 29.35 17.45 28.75 17.4 27.85 17.35 27.8 16.8 Q27.8 15.2 28.35 14.0 28.65 13.2 29.2 12.6 L29.8 12.05 30.15 11.8" fill="#b97c2d" fill-rule="evenodd" stroke="none"/>
      <path d="M35.5 12.95 L35.95 13.6 Q37.4 15.6 37.4 18.2 L37.1 20.25 Q36.5 21.2 35.1 20.5 L33.7 19.3 Q34.9 18.05 35.4 16.2 35.85 14.45 35.5 12.95" fill="#9b5119" fill-rule="evenodd" stroke="none"/>
      <path d="M30.75 11.5 L32.6 11.3 Q33.45 11.4 34.15 11.85 L34.25 12.05 Q34.7 13.1 34.35 14.45 34.0 15.8 33.0 16.6 32.0 17.45 30.95 17.3 29.95 17.15 29.45 16.1 29.0 15.05 29.35 13.7 29.7 12.35 30.7 11.5 L30.75 11.5" fill="#c2a93c" fill-rule="evenodd" stroke="none"/>
      <path d="M36.75 21.65 Q37.4 21.4 37.7 20.6 36.8 25.25 32.0 24.55 30.65 23.9 29.6 22.35 L29.15 21.7 Q31.55 23.45 34.3 23.35 36.05 22.8 33.45 20.5 L34.15 21.0 Q35.15 21.7 36.2 21.8 L36.75 21.65" fill="#1f0e02" fill-rule="evenodd" stroke="none"/>
      <path d="M37.1 20.25 Q37.2 21.0 36.75 21.65 L36.2 21.8 Q35.15 21.7 34.15 21.0 L33.45 20.5 Q30.85 18.55 27.95 18.25 27.3 18.25 27.35 18.85 27.15 17.6 27.85 17.35 L28.75 17.4 29.35 17.45 30.35 17.7 31.8 18.25 33.05 18.9 33.7 19.3 35.1 20.5 Q36.5 21.2 37.1 20.25 M37.7 20.6 L37.9 19.1 Q38.0 17.35 37.5 15.45 36.85 12.75 34.85 11.65 32.75 10.45 31.15 10.85 32.0 10.3 33.05 10.3 L33.8 10.45 Q35.95 10.9 37.15 12.85 38.35 14.85 38.75 18.25 39.15 21.6 37.55 23.5 35.95 25.45 33.6 25.1 L32.0 24.55 Q36.8 25.25 37.7 20.6" fill="#341a04" fill-rule="evenodd" stroke="none"/>
      <path d="M35.5 12.95 L35.95 13.6 Q37.4 15.6 37.4 18.2 L37.1 20.25 M31.15 10.85 L30.2 11.75 30.15 11.8 30.7 11.5 30.75 11.5 32.6 11.3 Q33.45 11.4 34.15 11.85 L35.5 12.95 M33.7 19.3 L35.1 20.5 Q36.5 21.2 37.1 20.25 M31.15 10.85 Q32.0 10.3 33.05 10.3 L33.8 10.45 Q35.95 10.9 37.15 12.85 38.35 14.85 38.75 18.25 39.15 21.6 37.55 23.5 35.95 25.45 33.6 25.1 L32.0 24.55 Q30.65 23.9 29.6 22.35 L29.15 21.7 Q27.65 20.3 27.4 19.2 L27.35 19.05 27.35 19.0 27.35 18.85 Q27.15 17.6 27.85 17.35 L27.8 16.8 Q27.8 15.2 28.35 14.0 28.65 13.2 29.2 12.6 L29.8 12.05 30.15 11.8 M33.7 19.3 L33.05 18.9 31.8 18.25 30.35 17.7 29.35 17.45 28.75 17.4 27.85 17.35" fill="none" stroke="#000000" stroke-linecap="round" stroke-linejoin="round" stroke-opacity="0.3019608" stroke-width="0.05"/>
      <path d="M45.3 19.25 L45.5 19.45 45.95 20.55 Q46.35 21.6 46.85 21.85 47.7 22.2 47.4 23.05 L46.65 24.6 Q43.2 24.85 42.3 22.95 L43.0 21.65 Q43.05 20.95 43.6 19.45 L43.65 19.3 Q43.95 19.55 44.3 19.6 L45.1 19.45 45.3 19.25" fill="#2c1603" fill-rule="evenodd" stroke="none"/>
      <path d="M45.3 19.25 L45.1 19.45 44.3 19.6 Q43.95 19.55 43.65 19.3 L45.3 19.25" fill="#341a04" fill-rule="evenodd" stroke="none"/>
      <path d="M42.3 22.95 Q43.2 24.85 46.65 24.6 L45.45 26.05 41.6 26.15 Q40.5 25.0 41.9 23.25 L42.3 22.95" fill="#1f0e02" fill-rule="evenodd" stroke="none"/>
      <path d="M46.65 24.6 L47.4 23.05 Q47.7 22.2 46.85 21.85 46.35 21.6 45.95 20.55 L45.5 19.45 45.3 19.25 43.65 19.3 43.6 19.45 Q43.05 20.95 43.0 21.65 L42.3 22.95 M46.65 24.6 L45.45 26.05 41.6 26.15 Q40.5 25.0 41.9 23.25 L42.3 22.95" fill="none" stroke="#000000" stroke-linecap="round" stroke-linejoin="round" stroke-opacity="0.3019608" stroke-width="0.05"/>
      <path d="M47.55 27.0 Q47.05 25.35 45.5 23.45 43.65 20.4 44.95 19.9 L45.9 20.6 46.95 22.55 47.05 22.85 47.15 23.2 47.4 24.05 Q47.65 25.5 47.55 27.0 M47.05 22.85 L45.95 22.95 47.05 22.85 M47.15 23.2 L45.9 23.3 47.15 23.2" fill="#387a8e" fill-rule="evenodd" stroke="none"/>
      <path d="M42.85 23.65 Q42.15 24.75 42.6 24.95 L43.7 24.5 44.55 23.75 Q44.6 22.75 43.2 23.3 L43.7 21.65 Q44.1 19.6 44.95 19.9 43.65 20.4 45.5 23.45 47.05 25.35 47.55 27.0 L47.45 27.0 Q46.2 26.4 45.6 25.8 44.6 25.25 43.4 25.45 L43.3 25.45 Q42.5 25.7 42.05 25.05 L42.15 24.75 Q42.35 24.25 42.85 23.65" fill="#224e59" fill-rule="evenodd" stroke="none"/>
      <path d="M43.2 23.3 Q44.6 22.75 44.55 23.75 L43.7 24.5 42.6 24.95 Q42.15 24.75 42.85 23.65 L43.2 23.3 M46.95 22.55 Q47.7 23.05 47.4 24.05 L47.15 23.2 47.05 22.85 46.95 22.55" fill="#2c6675" fill-rule="evenodd" stroke="none"/>
      <path d="M42.05 25.05 Q42.5 25.7 43.3 25.45 L43.4 25.45 Q44.6 25.25 45.6 25.8 46.2 26.4 47.45 27.0 46.85 26.9 45.6 26.2 44.95 25.8 44.15 25.7 43.55 26.25 42.3 26.05 41.95 25.65 42.05 25.05 M43.25 25.8 L44.15 25.7 43.25 25.8" fill="#1c414a" fill-rule="evenodd" stroke="none"/>
      <path d="M42.85 23.65 Q42.35 24.25 42.15 24.75 L42.05 25.05 M47.45 27.0 L47.55 27.0 M44.95 19.9 Q44.1 19.6 43.7 21.65 L43.2 23.3 42.85 23.65 M46.95 22.55 L45.9 20.6 44.95 19.9 M47.4 24.05 Q47.7 23.05 46.95 22.55 L47.05 22.85 47.15 23.2 47.4 24.05 Q47.65 25.5 47.55 27.0 M45.9 23.3 L47.15 23.2 M45.95 22.95 L47.05 22.85 M47.45 27.0 Q46.85 26.9 45.6 26.2 44.95 25.8 44.15 25.7 43.55 26.25 42.3 26.05 41.95 25.65 42.05 25.05 M44.15 25.7 L43.25 25.8" fill="none" stroke="#000000" stroke-linecap="round" stroke-linejoin="round" stroke-opacity="0.3019608" stroke-width="0.05"/>
      <path d="M45.5 22.65 L45.25 22.15 45.05 21.65 45.05 21.3 45.3 21.45 45.65 21.9 45.8 22.45 45.75 22.8 45.5 22.65" fill="#1c414a" fill-rule="evenodd" stroke="none"/>
      <path d="M45.5 22.65 L45.25 22.15 45.05 21.65 45.05 21.3 45.3 21.45 45.65 21.9 45.8 22.45 45.75 22.8 45.5 22.65 Z" fill="none" stroke="#000000" stroke-linecap="round" stroke-linejoin="round" stroke-opacity="0.3019608" stroke-width="0.05"/>
      <path d="M46.85 22.4 L46.65 22.0 46.4 21.6 46.25 21.35 46.3 21.55 46.5 22.0 46.75 22.45 46.9 22.65 46.85 22.4" fill="#1c414a" fill-rule="evenodd" stroke="none"/>
      <path d="M46.85 22.4 L46.65 22.0 46.4 21.6 46.25 21.35 46.3 21.55 46.5 22.0 46.75 22.45 46.9 22.65 46.85 22.4 Z" fill="none" stroke="#000000" stroke-linecap="round" stroke-linejoin="round" stroke-opacity="0.3019608" stroke-width="0.05"/>
      <path d="M42.2 0.25 Q41.15 -0.45 42.35 3.05 L42.75 4.2 43.05 5.55 Q43.3 7.6 42.65 9.65 L42.55 9.65 42.3 9.7 41.3 9.7 Q39.45 9.05 37.35 8.95 35.65 8.95 34.25 9.5 L34.0 9.55 Q33.25 8.05 33.3 6.7 L33.5 5.75 33.85 4.85 Q35.2 2.45 33.7 2.55 L33.6 2.6 Q32.85 3.6 32.55 4.85 32.45 6.7 33.6 9.25 L33.8 9.7 32.5 10.3 Q30.75 8.5 30.45 6.6 L30.4 5.45 30.55 4.35 Q31.2 1.2 29.85 1.9 L29.75 1.9 Q29.25 3.2 29.3 4.7 29.6 6.85 31.3 9.35 L32.15 10.45 Q31.6 10.55 31.2 10.85 L30.2 11.7 30.2 11.8 30.15 11.8 29.85 12.0 29.25 12.6 Q28.7 13.2 28.4 13.95 27.85 15.15 27.85 16.7 L27.85 17.3 Q27.25 17.6 27.35 18.8 L27.35 18.95 27.45 19.1 Q27.65 20.3 29.2 21.65 L29.6 22.4 Q30.7 23.85 32.05 24.6 L32.5 24.85 Q35.6 27.3 39.45 27.3 41.6 27.4 43.3 26.65 44.3 26.65 45.45 26.1 L45.6 26.2 Q46.8 26.95 47.5 27.0 L47.55 27.1 Q47.7 25.5 47.4 24.0 47.6 23.5 47.4 23.05 L47.5 22.6 47.7 22.25 47.7 22.15 Q49.1 21.25 49.5 20.05 50.2 18.3 50.0 17.25 L49.6 16.1 49.65 16.55 Q49.4 14.85 48.35 13.35 L48.05 12.85 47.75 12.45 45.85 10.95 44.7 10.45 43.9 10.0 44.25 9.5 Q45.4 7.25 45.6 5.1 45.65 3.65 45.35 2.25 L45.2 2.2 Q44.25 1.35 44.7 4.55 L44.85 5.7 44.8 6.8 Q44.6 8.5 43.55 9.95 L42.95 9.7 43.15 8.65 Q43.7 5.85 43.3 3.45 43.05 1.9 42.3 0.3 L42.2 0.25 Z" fill="none" stroke="#000000" stroke-linecap="round" stroke-linejoin="round" stroke-opacity="0.3019608" stroke-width="0.5"/>
      <path d="M37.55 41.8 L37.5 42.25 37.05 42.35 Q36.75 42.25 36.5 42.0 L36.2 41.45 36.3 41.05 Q36.45 40.85 36.7 40.9 37.05 41.0 37.3 41.25 L37.55 41.8" fill="#c2c273" fill-rule="evenodd" stroke="none"/>
      <path d="M25.75 30.5 L25.7 30.95 25.25 31.05 24.7 30.7 24.4 30.15 24.5 29.75 Q24.65 29.55 24.9 29.6 25.25 29.7 25.5 29.95 L25.75 30.5" fill="#c2c273" fill-rule="evenodd" stroke="none"/>
      <path d="M19.05 36.15 L19.1 36.35 18.95 36.5 18.6 36.45 18.25 36.3 18.15 36.05 18.35 35.95 18.75 35.95 19.05 36.15" fill="#c2c273" fill-rule="evenodd" stroke="none"/>
    </g>
  </defs>
</svg>
