<?xml version="1.0" encoding="UTF-8" standalone="no"?>
<svg xmlns:xlink="http://www.w3.org/1999/xlink" height="520.0px" width="520.0px" xmlns="http://www.w3.org/2000/svg">
  <g transform="matrix(10.0, 0.0, 0.0, 10.0, 0.0, 0.0)">
    <use height="0.1" transform="matrix(1.0, 0.0, 0.0, 1.0, 0.0, 0.0)" width="0.05" xlink:href="#shape0"/>
    <use height="52.0" transform="matrix(1.0, 0.0, 0.0, 1.0, 0.0, 0.0)" width="52.0" xlink:href="#sprite0"/>
  </g>
  <defs>
    <g id="shape0" transform="matrix(1.0, 0.0, 0.0, 1.0, 0.0, 0.0)">
      <path d="M0.05 0.1 L0.0 0.1 0.0 0.0 0.05 0.1" fill="#910f0a" fill-rule="evenodd" stroke="none"/>
    </g>
    <g id="sprite0" transform="matrix(1.0, 0.0, 0.0, 1.0, 0.0, 0.0)">
      <use height="52.0" transform="matrix(1.0, 0.0, 0.0, 1.0, 0.0, 0.0)" width="52.0" xlink:href="#sprite1"/>
      <use height="42.45" transform="matrix(1.0, 0.0, 0.0, 1.0, 1.8, 1.45)" width="34.7" xlink:href="#sprite2"/>
      <use height="49.8" transform="matrix(1.0, 0.0, 0.0, 1.0, 1.3, 0.95)" width="49.3" xlink:href="#shape3"/>
    </g>
    <g id="sprite1" transform="matrix(1.0, 0.0, 0.0, 1.0, 0.0, 0.0)">
      <use height="52.0" transform="matrix(1.0, 0.0, 0.0, 1.0, 0.0, 0.0)" width="52.0" xlink:href="#shape1"/>
    </g>
    <g id="shape1" transform="matrix(1.0, 0.0, 0.0, 1.0, 0.0, 0.0)">
      <path d="M52.0 0.0 L52.0 52.0 0.0 52.0 0.0 0.0 52.0 0.0" fill="#ffba2e" fill-opacity="0.0" fill-rule="evenodd" stroke="none"/>
    </g>
    <g id="sprite2" transform="matrix(1.0, 0.0, 0.0, 1.0, 0.0, 0.0)">
      <use height="42.45" transform="matrix(1.0, 0.0, 0.0, 1.0, 0.0, 0.0)" width="34.7" xlink:href="#shape2"/>
    </g>
    <g id="shape2" transform="matrix(1.0, 0.0, 0.0, 1.0, 0.0, 0.0)">
      <path d="M10.65 10.3 Q14.05 8.4 18.05 0.0 L18.1 0.15 Q17.15 6.25 13.65 11.7 11.85 11.6 10.65 10.3" fill="#271f26" fill-rule="evenodd" stroke="none"/>
      <path d="M18.1 0.15 Q18.6 7.5 17.3 11.1 L13.65 11.7 Q17.15 6.25 18.1 0.15" fill="#0e0b0d" fill-rule="evenodd" stroke="none"/>
      <path d="M10.65 10.3 Q14.05 8.4 18.05 0.0 L18.1 0.15 Q18.6 7.5 17.3 11.1" fill="none" stroke="#66b5b5" stroke-linecap="round" stroke-linejoin="round" stroke-opacity="0.3019608" stroke-width="0.05"/>
      <path d="M0.0 41.35 Q1.3 38.4 6.1 34.45 L6.8 33.9 6.8 33.85 7.35 33.8 6.8 33.9 8.9 34.05 9.15 34.05 10.5 34.5 10.45 34.5 10.35 34.5 9.95 34.4 10.3 34.5 Q13.75 35.7 15.1 37.3 9.8 41.4 0.0 41.35" fill="#271f26" fill-rule="evenodd" stroke="none"/>
      <path d="M6.8 33.85 L6.55 33.05 Q5.5 25.55 5.55 19.75 5.55 17.3 6.45 15.25 7.6 12.2 9.3 10.95 13.2 7.85 19.5 9.3 23.2 10.35 25.0 12.45 27.3 16.55 21.9 18.9 L16.7 19.35 Q19.35 25.05 15.5 35.3 L13.55 35.05 14.8 35.9 17.5 37.95 Q19.45 39.35 22.15 38.95 L17.95 41.0 16.55 41.45 13.8 42.15 7.1 42.45 Q2.85 42.25 0.0 41.35 9.8 41.4 15.1 37.3 13.75 35.7 10.3 34.5 L9.95 34.4 10.35 34.5 10.45 34.5 10.5 34.5 9.15 34.05 8.9 34.05 6.8 33.9 7.35 33.8 6.8 33.85" fill="#161419" fill-rule="evenodd" stroke="none"/>
      <path d="M25.0 12.45 Q27.2 15.45 26.45 19.6 24.35 28.5 22.15 38.95 19.45 39.35 17.5 37.95 L14.8 35.9 13.55 35.05 15.5 35.3 Q19.35 25.05 16.7 19.35 L21.9 18.9 Q27.3 16.55 25.0 12.45" fill="#0e0b0d" fill-rule="evenodd" stroke="none"/>
      <path d="M6.8 33.85 L6.55 33.05 Q5.5 25.55 5.55 19.75 5.55 17.3 6.45 15.25 7.6 12.2 9.3 10.95 13.2 7.85 19.5 9.3 23.2 10.35 25.0 12.45 27.2 15.45 26.45 19.6 24.35 28.5 22.15 38.95 M16.55 41.45 L13.8 42.15 7.1 42.45 Q2.85 42.25 0.0 41.35 1.3 38.4 6.1 34.45 L6.8 33.9 6.8 33.85 Z" fill="none" stroke="#66b5b5" stroke-linecap="round" stroke-linejoin="round" stroke-opacity="0.3019608" stroke-width="0.05"/>
      <path d="M23.75 15.6 L34.7 8.65 Q29.45 14.55 23.15 18.75 23.05 16.7 23.75 15.6" fill="#271f26" fill-rule="evenodd" stroke="none"/>
      <path d="M23.15 18.75 Q29.45 14.55 34.7 8.65 30.55 17.3 25.95 21.1 23.9 20.0 23.15 18.75" fill="#0e0b0d" fill-rule="evenodd" stroke="none"/>
      <path d="M34.7 8.65 L23.75 15.6 M34.7 8.65 Q30.55 17.3 25.95 21.1" fill="none" stroke="#66b5b5" stroke-linecap="round" stroke-linejoin="round" stroke-opacity="0.3019608" stroke-width="0.05"/>
      <path d="M25.2 14.05 Q25.5 15.1 24.8 16.05 23.65 17.9 20.35 18.5 17.25 19.3 13.95 18.5 10.85 17.75 9.05 15.8 8.2 14.75 8.4 13.6 8.5 14.25 9.0 14.9 10.8 16.9 13.9 17.6 17.2 18.4 20.3 17.65 23.6 17.0 24.8 15.2 L25.2 14.05 M12.35 14.55 Q11.4 13.2 12.1 12.3 12.75 11.3 14.85 11.0 L19.1 11.4 Q21.3 12.1 21.4 13.85 L20.85 13.2 Q20.05 12.05 18.25 11.65 16.45 11.2 14.6 11.6 12.95 12.0 12.5 12.85 11.95 13.75 12.35 14.55" fill="#a356a1" fill-rule="evenodd" stroke="none"/>
      <path d="M8.4 13.6 Q8.45 12.9 8.85 12.2 10.05 10.5 12.95 9.65 L19.55 9.9 Q22.85 10.65 24.35 12.4 25.05 13.2 25.2 14.05 L24.8 15.2 Q23.6 17.0 20.3 17.65 17.2 18.4 13.9 17.6 10.8 16.9 9.0 14.9 8.5 14.25 8.4 13.6 M11.0 10.8 Q10.5 10.8 10.2 11.2 L9.95 11.8 Q9.95 12.4 10.85 12.4 11.25 12.4 11.55 12.0 L11.8 11.45 Q11.8 10.8 11.0 10.8 M13.1 10.55 Q13.1 10.2 12.7 10.2 12.25 10.2 12.25 10.6 L12.65 10.95 12.95 10.8 13.1 10.55 M12.35 14.55 L12.35 14.6 12.65 14.95 Q13.45 16.05 15.3 16.45 17.1 16.9 18.7 16.45 20.55 16.1 21.2 15.1 21.65 14.45 21.4 13.85 21.3 12.1 19.1 11.4 L14.85 11.0 Q12.75 11.3 12.1 12.3 11.4 13.2 12.35 14.55" fill="#c27ec0" fill-rule="evenodd" stroke="none"/>
      <path d="M13.1 10.55 L12.95 10.8 12.65 10.95 12.25 10.6 Q12.25 10.2 12.7 10.2 13.1 10.2 13.1 10.55 M11.0 10.8 Q11.8 10.8 11.8 11.45 L11.55 12.0 Q11.25 12.4 10.85 12.4 9.95 12.4 9.95 11.8 L10.2 11.2 Q10.5 10.8 11.0 10.8" fill="#c2c2c2" fill-rule="evenodd" stroke="none"/>
      <path d="M21.4 13.85 Q21.65 14.45 21.2 15.1 20.55 16.1 18.7 16.45 17.1 16.9 15.3 16.45 13.45 16.05 12.65 14.95 L12.35 14.6 12.35 14.55 Q11.95 13.75 12.5 12.85 12.95 12.0 14.6 11.6 16.45 11.2 18.25 11.65 20.05 12.05 20.85 13.2 L21.4 13.85" fill="#0e0b0d" fill-rule="evenodd" stroke="none"/>
      <path d="M8.4 13.6 Q8.45 12.9 8.85 12.2 10.05 10.5 12.95 9.65 L19.55 9.9 Q22.85 10.65 24.35 12.4 25.05 13.2 25.2 14.05 25.5 15.1 24.8 16.05 23.65 17.9 20.35 18.5 17.25 19.3 13.95 18.5 10.85 17.75 9.05 15.8 8.2 14.75 8.4 13.6 M12.35 14.6 L12.35 14.55 Q11.95 13.75 12.5 12.85 12.95 12.0 14.6 11.6 16.45 11.2 18.25 11.65 20.05 12.05 20.85 13.2 L21.4 13.85 Q21.65 14.45 21.2 15.1 20.55 16.1 18.7 16.45 17.1 16.9 15.3 16.45 13.45 16.05 12.65 14.95 L12.35 14.6" fill="none" stroke="#000000" stroke-linecap="round" stroke-linejoin="round" stroke-opacity="0.3019608" stroke-width="0.05"/>
      <path d="M8.9 29.6 L7.6 29.5 6.7 29.0 Q5.8 26.75 6.3 24.7 7.15 26.95 8.9 29.6" fill="#7ec287" fill-rule="evenodd" stroke="none"/>
      <path d="M9.95 33.55 L10.2 33.15 10.6 32.65 10.65 32.6 11.95 33.2 10.75 34.35 10.1 34.6 9.9 34.65 7.85 35.2 7.65 35.25 7.0 34.6 9.05 33.95 9.5 33.75 9.95 33.55" fill="#744b72" fill-rule="evenodd" stroke="none"/>
      <path d="M9.05 33.95 Q8.45 33.35 8.2 32.75 L8.45 32.65 9.3 32.45 9.95 33.55 9.5 33.75 9.05 33.95 M10.75 34.35 L12.05 35.2 12.1 35.25 11.25 35.7 11.0 35.55 9.9 34.65 10.1 34.6 10.75 34.35 M13.95 35.15 L14.2 34.35 15.05 34.35 14.4 35.85 13.9 36.5 13.85 36.5 13.8 36.5 13.2 36.1 13.95 35.15" fill="#533652" fill-rule="evenodd" stroke="none"/>
      <path d="M20.7 38.15 L21.1 38.35 20.4 38.85 19.85 39.3 19.45 39.2 20.55 38.15 20.7 38.15 M18.95 37.35 L19.55 37.7 17.95 39.05 17.85 39.0 17.15 38.7 18.55 37.0 18.95 37.35" fill="#3c2639" fill-rule="evenodd" stroke="none"/>
      <path d="M8.9 29.6 Q7.15 26.95 6.3 24.7 5.8 26.75 6.7 29.0 L7.6 29.5 8.9 29.6" fill="none" stroke="#c2c2c2" stroke-linecap="round" stroke-linejoin="round" stroke-opacity="0.3019608" stroke-width="3.0"/>
      <path d="M20.7 38.15 L21.1 38.35 20.4 38.85 19.85 39.3 19.45 39.2 20.55 38.15 20.7 38.15 M9.05 33.95 Q8.45 33.35 8.2 32.75 L8.45 32.65 9.3 32.45 9.95 33.55 10.2 33.15 10.6 32.65 10.65 32.6 11.95 33.2 10.75 34.35 12.05 35.2 12.1 35.25 11.25 35.7 11.0 35.55 9.9 34.65 7.85 35.2 7.65 35.25 7.0 34.6 9.05 33.95 9.5 33.75 9.95 33.55 M13.95 35.15 L13.2 36.1 13.8 36.5 13.85 36.5 13.9 36.5 14.4 35.85 15.05 34.35 14.2 34.35 13.95 35.15 M9.9 34.65 L10.1 34.6 10.75 34.35 M18.95 37.35 L19.55 37.7 17.95 39.05 17.85 39.0 17.15 38.7 18.55 37.0 18.95 37.35" fill="none" stroke="#000000" stroke-linecap="round" stroke-linejoin="round" stroke-opacity="0.3019608" stroke-width="0.05"/>
      <path d="M16.8 31.45 L14.85 31.45 Q12.5 31.35 11.35 30.4 15.85 29.05 19.15 26.7 18.4 29.85 16.8 31.45" fill="#7ec287" fill-rule="evenodd" stroke="none"/>
      <path d="M16.8 31.45 L14.85 31.45 Q12.5 31.35 11.35 30.4 15.85 29.05 19.15 26.7 18.4 29.85 16.8 31.45 Z" fill="none" stroke="#c2c2c2" stroke-linecap="round" stroke-linejoin="round" stroke-opacity="0.3019608" stroke-width="3.0"/>
    </g>
    <g id="shape3" transform="matrix(1.0, 0.0, 0.0, 1.0, -1.3, -0.95)">
      <path d="M33.5 7.95 Q32.55 14.05 29.05 19.5 27.25 19.4 26.05 18.1 29.45 16.2 33.45 7.8 L33.5 7.95" fill="#342933" fill-rule="evenodd" stroke="none"/>
      <path d="M29.05 19.5 Q32.55 14.05 33.5 7.95 34.0 15.3 32.7 18.9 30.65 19.65 29.05 19.5" fill="#130f12" fill-rule="evenodd" stroke="none"/>
      <path d="M32.7 18.9 Q34.0 15.3 33.5 7.95 L33.45 7.8 Q29.45 16.2 26.05 18.1" fill="none" stroke="#86eeee" stroke-linecap="round" stroke-linejoin="round" stroke-opacity="0.3019608" stroke-width="0.05"/>
      <path d="M15.4 49.15 Q16.7 46.2 21.5 42.25 L22.2 41.7 22.2 41.65 22.75 41.6 22.2 41.7 24.3 41.85 24.55 41.85 25.9 42.3 25.85 42.3 25.75 42.3 25.35 42.2 25.7 42.3 Q29.15 43.5 30.5 45.1 25.2 49.2 15.4 49.15" fill="#342933" fill-rule="evenodd" stroke="none"/>
      <path d="M22.2 41.65 L21.95 40.85 Q20.9 33.35 20.95 27.55 20.95 25.1 21.85 23.05 23.0 20.0 24.7 18.75 28.6 15.65 34.9 17.1 38.6 18.15 40.4 20.25 42.7 24.35 37.3 26.7 L32.1 27.15 Q34.75 32.85 30.9 43.1 L28.95 42.85 30.2 43.7 32.9 45.75 Q34.85 47.15 37.55 46.75 35.45 47.8 33.35 48.8 L31.95 49.25 29.2 49.95 22.5 50.25 Q18.25 50.05 15.4 49.15 25.2 49.2 30.5 45.1 29.15 43.5 25.7 42.3 L25.35 42.2 25.75 42.3 25.85 42.3 25.9 42.3 24.55 41.85 24.3 41.85 22.2 41.7 22.75 41.6 22.2 41.65" fill="#1e1b21" fill-rule="evenodd" stroke="none"/>
      <path d="M40.4 20.25 Q42.6 23.25 41.85 27.4 39.75 36.3 37.55 46.75 34.85 47.15 32.9 45.75 L30.2 43.7 28.95 42.85 30.9 43.1 Q34.75 32.85 32.1 27.15 L37.3 26.7 Q42.7 24.35 40.4 20.25" fill="#130f12" fill-rule="evenodd" stroke="none"/>
      <path d="M22.2 41.65 L21.95 40.85 Q20.9 33.35 20.95 27.55 20.95 25.1 21.85 23.05 23.0 20.0 24.7 18.75 28.6 15.65 34.9 17.1 38.6 18.15 40.4 20.25 42.6 23.25 41.85 27.4 39.75 36.3 37.55 46.75 M31.95 49.25 L29.2 49.95 22.5 50.25 Q18.25 50.05 15.4 49.15 16.7 46.2 21.5 42.25 L22.2 41.7 22.2 41.65 Z" fill="none" stroke="#86eeee" stroke-linecap="round" stroke-linejoin="round" stroke-opacity="0.3019608" stroke-width="0.05"/>
      <path d="M39.15 23.4 L50.1 16.45 Q44.85 22.35 38.55 26.55 38.45 24.5 39.15 23.4" fill="#342933" fill-rule="evenodd" stroke="none"/>
      <path d="M38.55 26.55 Q44.85 22.35 50.1 16.45 45.95 25.1 41.35 28.9 39.3 27.8 38.55 26.55" fill="#130f12" fill-rule="evenodd" stroke="none"/>
      <path d="M50.1 16.45 L39.15 23.4 M50.1 16.45 Q45.95 25.1 41.35 28.9" fill="none" stroke="#86eeee" stroke-linecap="round" stroke-linejoin="round" stroke-opacity="0.3019608" stroke-width="0.05"/>
      <path d="M23.8 21.4 Q23.9 22.05 24.4 22.7 26.2 24.7 29.3 25.4 32.6 26.2 35.7 25.45 39.0 24.8 40.2 23.0 L40.6 21.85 Q40.9 22.9 40.2 23.85 39.05 25.7 35.75 26.3 32.65 27.1 29.35 26.3 26.25 25.55 24.45 23.6 23.6 22.55 23.8 21.4 M36.8 21.65 L36.25 21.0 Q35.45 19.85 33.65 19.45 31.85 19.0 30.0 19.4 28.35 19.8 27.9 20.65 27.35 21.55 27.75 22.35 26.8 21.0 27.5 20.1 28.15 19.1 30.25 18.8 L34.5 19.2 Q36.7 19.9 36.8 21.65" fill="#d671d4" fill-rule="evenodd" stroke="none"/>
      <path d="M40.6 21.85 L40.2 23.0 Q39.0 24.8 35.7 25.45 32.6 26.2 29.3 25.4 26.2 24.7 24.4 22.7 23.9 22.05 23.8 21.4 23.85 20.7 24.25 20.0 25.45 18.3 28.35 17.45 L34.95 17.7 Q38.25 18.45 39.75 20.2 40.45 21.0 40.6 21.85 M26.4 18.6 Q25.9 18.6 25.6 19.0 L25.35 19.6 Q25.35 20.2 26.25 20.2 26.65 20.2 26.95 19.8 L27.2 19.25 Q27.2 18.6 26.4 18.6 M28.1 18.0 Q27.65 18.0 27.65 18.4 27.65 18.75 28.05 18.75 L28.35 18.6 28.5 18.35 Q28.5 18.0 28.1 18.0 M27.75 22.4 L28.05 22.75 Q28.85 23.85 30.7 24.25 32.5 24.7 34.1 24.25 35.95 23.9 36.6 22.9 37.05 22.25 36.8 21.65 36.7 19.9 34.5 19.2 L30.25 18.8 Q28.15 19.1 27.5 20.1 26.8 21.0 27.75 22.35 L27.75 22.4" fill="#ffa6fd" fill-rule="evenodd" stroke="none"/>
      <path d="M28.1 18.0 Q28.5 18.0 28.5 18.35 L28.35 18.6 28.05 18.75 Q27.65 18.75 27.65 18.4 27.65 18.0 28.1 18.0 M26.4 18.6 Q27.2 18.6 27.2 19.25 L26.95 19.8 Q26.65 20.2 26.25 20.2 25.35 20.2 25.35 19.6 L25.6 19.0 Q25.9 18.6 26.4 18.6" fill="#ffffff" fill-rule="evenodd" stroke="none"/>
      <path d="M27.75 22.4 L27.75 22.35 Q27.35 21.55 27.9 20.65 28.35 19.8 30.0 19.4 31.85 19.0 33.65 19.45 35.45 19.85 36.25 21.0 L36.8 21.65 Q37.05 22.25 36.6 22.9 35.95 23.9 34.1 24.25 32.5 24.7 30.7 24.25 28.85 23.85 28.05 22.75 L27.75 22.4" fill="#130f12" fill-rule="evenodd" stroke="none"/>
      <path d="M23.8 21.4 Q23.6 22.55 24.45 23.6 26.25 25.55 29.35 26.3 32.65 27.1 35.75 26.3 39.05 25.7 40.2 23.85 40.9 22.9 40.6 21.85 40.45 21.0 39.75 20.2 38.25 18.45 34.95 17.7 L28.35 17.45 Q25.45 18.3 24.25 20.0 23.85 20.7 23.8 21.4 M27.75 22.4 L28.05 22.75 Q28.85 23.85 30.7 24.25 32.5 24.7 34.1 24.25 35.95 23.9 36.6 22.9 37.05 22.25 36.8 21.65 L36.25 21.0 Q35.45 19.85 33.65 19.45 31.85 19.0 30.0 19.4 28.35 19.8 27.9 20.65 27.35 21.55 27.75 22.35 M27.75 22.4 L27.75 22.35" fill="none" stroke="#000000" stroke-linecap="round" stroke-linejoin="round" stroke-opacity="0.3019608" stroke-width="0.05"/>
      <path d="M23.0 37.3 L22.1 36.8 Q21.2 34.55 21.7 32.5 22.55 34.75 24.3 37.4 L23.0 37.3" fill="#a6ffb2" fill-rule="evenodd" stroke="none"/>
      <path d="M25.35 41.35 L25.6 40.95 26.0 40.45 26.05 40.4 Q26.7 40.65 27.35 41.0 L26.15 42.15 25.5 42.4 25.3 42.45 23.25 43.0 23.05 43.05 22.4 42.4 24.45 41.75 24.9 41.55 25.35 41.35" fill="#996396" fill-rule="evenodd" stroke="none"/>
      <path d="M24.45 41.75 Q23.85 41.15 23.6 40.55 L23.85 40.45 24.7 40.25 25.35 41.35 24.9 41.55 24.45 41.75 M26.15 42.15 L27.45 43.0 27.5 43.05 26.65 43.5 26.4 43.35 25.3 42.45 25.5 42.4 26.15 42.15 M29.35 42.95 L29.6 42.15 30.45 42.15 29.8 43.65 29.3 44.3 29.25 44.3 29.2 44.3 28.6 43.9 29.35 42.95" fill="#6e476c" fill-rule="evenodd" stroke="none"/>
      <path d="M36.1 45.95 L36.5 46.15 35.8 46.65 35.25 47.1 34.85 47.0 35.95 45.95 36.1 45.95 M34.35 45.15 L34.95 45.5 33.35 46.85 33.25 46.8 32.55 46.5 33.95 44.8 34.35 45.15" fill="#4f334c" fill-rule="evenodd" stroke="none"/>
      <path d="M23.0 37.3 L24.3 37.4 Q22.55 34.75 21.7 32.5 21.2 34.55 22.1 36.8 L23.0 37.3" fill="none" stroke="#ffffff" stroke-linecap="round" stroke-linejoin="round" stroke-opacity="0.3019608" stroke-width="3.0"/>
      <path d="M36.1 45.95 L36.5 46.15 35.8 46.65 35.25 47.1 34.85 47.0 35.95 45.95 36.1 45.95 M24.45 41.75 Q23.85 41.15 23.6 40.55 L23.85 40.45 24.7 40.25 25.35 41.35 25.6 40.95 26.0 40.45 26.05 40.4 Q26.7 40.65 27.35 41.0 L26.15 42.15 27.45 43.0 27.5 43.05 26.65 43.5 26.4 43.35 25.3 42.45 23.25 43.0 23.05 43.05 22.4 42.4 24.45 41.75 24.9 41.55 25.35 41.35 M29.35 42.95 L28.6 43.9 29.2 44.3 29.25 44.3 29.3 44.3 29.8 43.65 30.45 42.15 29.6 42.15 29.35 42.95 M25.3 42.45 L25.5 42.4 26.15 42.15 M34.35 45.15 L34.95 45.5 33.35 46.85 33.25 46.8 32.55 46.5 33.95 44.8 34.35 45.15" fill="none" stroke="#000000" stroke-linecap="round" stroke-linejoin="round" stroke-opacity="0.3019608" stroke-width="0.05"/>
      <path d="M32.2 39.25 L30.25 39.25 Q27.9 39.15 26.75 38.2 31.25 36.85 34.55 34.5 33.8 37.65 32.2 39.25" fill="#a6ffb2" fill-rule="evenodd" stroke="none"/>
      <path d="M32.2 39.25 L30.25 39.25 Q27.9 39.15 26.75 38.2 31.25 36.85 34.55 34.5 33.8 37.65 32.2 39.25 Z" fill="none" stroke="#ffffff" stroke-linecap="round" stroke-linejoin="round" stroke-opacity="0.3019608" stroke-width="3.0"/>
      <path d="M13.55 11.0 Q16.45 8.55 19.85 1.45 L19.9 1.6 Q20.25 7.05 19.65 10.45 L21.3 10.75 Q25.0 11.8 26.8 13.9 L27.8 15.65 29.75 14.4 Q31.5 11.85 33.45 7.8 L33.5 7.95 33.65 11.95 36.5 10.1 33.4 15.8 33.25 16.8 34.9 17.1 Q38.6 18.15 40.4 20.25 L41.4 22.0 50.1 16.45 Q46.05 24.95 41.55 28.75 L37.55 46.75 Q35.45 47.8 33.35 48.8 L31.95 49.25 29.2 49.95 22.5 50.25 Q18.25 50.05 15.4 49.15 16.7 46.2 21.5 42.25 L22.2 41.7 22.2 41.65 22.1 41.35 19.75 42.45 18.35 42.9 15.6 43.6 8.9 43.9 Q4.65 43.7 1.8 42.8 3.1 39.85 7.9 35.9 L8.6 35.35 8.6 35.3 8.35 34.5 Q7.3 27.0 7.35 21.2 7.35 18.75 8.25 16.7 9.4 13.65 11.1 12.4 12.2 11.5 13.55 11.0 Z" fill="none" stroke="#000000" stroke-linecap="round" stroke-linejoin="round" stroke-opacity="0.3019608" stroke-width="1.0"/>
    </g>
  </defs>
</svg>
