<?xml version="1.0" encoding="UTF-8" standalone="no"?>
<svg xmlns:xlink="http://www.w3.org/1999/xlink" height="520.0px" width="520.0px" xmlns="http://www.w3.org/2000/svg">
  <g transform="matrix(10.0, 0.0, 0.0, 10.0, 0.0, 0.0)">
    <use height="52.0" transform="matrix(1.0, 0.0, 0.0, 1.0, 0.0, 0.0)" width="52.0" xlink:href="#shape0"/>
    <use height="136.85" transform="matrix(0.0503, 0.0049, -0.011, 0.1136, 31.7176, 17.2081)" width="148.25" xlink:href="#sprite0"/>
    <use height="136.85" transform="matrix(0.0464, 0.0045, -0.0094, 0.0977, 18.1545, 16.6216)" width="148.25" xlink:href="#sprite0"/>
    <use height="136.85" transform="matrix(0.063, 0.0236, -0.0127, 0.034, 31.8453, 39.3583)" width="148.25" xlink:href="#sprite0"/>
    <use height="136.85" transform="matrix(0.0664, -0.0111, 0.006, 0.0358, 9.9847, 39.2884)" width="148.25" xlink:href="#sprite0"/>
    <use height="81.5" transform="matrix(-0.1432, 0.0089, 0.0089, 0.1432, 38.4, 35.1)" width="81.5" xlink:href="#sprite1"/>
  </g>
  <defs>
    <g id="shape0" transform="matrix(1.0, 0.0, 0.0, 1.0, 0.0, 0.0)">
      <path d="M52.0 0.0 L52.0 52.0 0.0 52.0 0.0 0.0 52.0 0.0" fill="#795fa9" fill-opacity="0.0" fill-rule="evenodd" stroke="none"/>
      <path d="M46.4 5.2 Q40.9 8.15 37.05 13.2 L36.5 13.95 36.35 10.0 36.35 9.85 Q36.3 7.2 35.3 7.4 33.4 7.8 32.0 12.2 31.55 14.75 31.9 16.9 L31.0 16.95 30.8 16.95 Q29.6 19.45 29.7 21.8 L30.0 22.05 30.1 22.15 30.0 22.35 30.0 22.8 Q29.8 24.3 29.9 25.5 L30.6 27.0 31.2 29.25 31.35 30.3 31.5 33.3 31.05 35.4 30.55 36.9 29.95 38.2 Q28.4 39.85 27.5 41.85 27.6 42.3 28.55 42.85 L28.6 42.95 28.9 43.15 29.05 43.25 29.4 43.45 29.45 43.5 29.35 44.15 28.95 44.6 Q28.6 45.25 30.1 46.0 L31.8 46.7 33.85 47.35 35.75 47.75 41.1 48.0 43.3 47.65 44.65 46.8 Q42.15 44.6 39.75 43.7 L37.1 40.5 Q36.15 39.5 35.75 38.2 35.4 37.15 35.5 35.8 L35.6 34.65 36.5 30.8 37.6 27.7 39.1 24.45 39.15 24.3 39.3 24.1 40.3 23.5 40.5 22.85 40.8 22.55 40.75 22.05 40.9 21.65 41.05 21.6 Q44.1 20.4 45.65 18.25 46.3 17.5 45.4 17.3 L43.55 17.2 42.4 17.4 Q47.35 11.25 47.55 6.9 47.65 4.6 46.4 5.2 M14.9 11.9 L14.0 9.85 Q12.4 6.25 10.4 4.1 9.75 4.1 9.7 5.8 9.85 9.85 11.65 14.4 L11.95 15.1 12.8 16.95 12.95 17.25 13.0 17.35 12.9 17.3 12.75 17.25 11.95 17.1 Q10.05 16.75 10.45 17.5 L11.3 18.7 12.45 19.85 12.9 20.2 13.4 20.5 13.65 20.65 13.95 20.85 13.65 21.3 13.6 21.5 13.85 21.8 14.2 22.05 14.3 23.5 14.75 23.6 15.2 23.65 16.6 23.8 16.65 23.8 16.7 23.85 16.7 23.9 16.75 24.2 16.8 24.3 17.0 24.8 18.3 28.35 18.5 29.05 19.45 32.25 20.05 34.35 Q20.75 37.6 17.75 38.15 L16.85 38.25 14.85 38.5 14.8 38.5 Q12.15 39.0 10.0 40.35 L9.25 40.8 Q6.85 41.35 5.15 43.0 6.65 44.15 9.0 44.7 L13.4 45.2 16.55 45.05 17.1 44.95 Q20.3 44.5 20.85 43.55 21.15 43.05 20.8 42.5 20.5 41.85 22.6 41.6 L23.25 41.5 25.5 40.85 Q25.45 39.95 24.8 39.1 22.85 36.4 23.85 32.25 L24.55 29.65 24.8 28.85 25.35 25.95 24.6 22.95 24.45 22.6 24.7 22.45 24.7 22.4 24.7 20.85 Q24.55 18.7 23.65 16.8 L21.8 16.45 19.7 15.9 19.6 15.25 19.45 14.6 18.9 12.5 18.65 11.85 Q17.55 8.65 15.75 7.35 15.0 8.65 14.95 11.0 L15.0 12.2 14.95 11.95 14.9 11.9" fill="none" stroke="#000000" stroke-linecap="round" stroke-linejoin="round" stroke-opacity="0.3019608" stroke-width="1.0"/>
      <path d="M33.85 23.55 L33.8 23.6 33.2 23.45 32.65 23.3 32.4 23.2 31.9 23.0 32.4 23.2 32.65 23.3 33.25 23.4 33.85 23.55 M29.45 43.5 L29.4 43.45 29.45 43.45 29.45 43.5" fill="#f0b630" fill-rule="evenodd" stroke="none"/>
      <path d="M28.9 43.15 L28.6 42.95 28.9 43.15 M36.55 43.8 L36.3 43.85 36.15 43.85 36.3 43.85 36.55 43.8" fill="#ffde4f" fill-rule="evenodd" stroke="none"/>
      <path d="M31.45 22.8 L30.8 22.55 30.75 22.5 30.7 22.5 30.7 22.45 30.75 22.45 30.85 22.5 31.45 22.8" fill="#ffff98" fill-rule="evenodd" stroke="none"/>
      <path d="M37.25 14.85 L34.5 16.5 Q34.65 17.8 34.95 18.7 35.6 20.65 36.85 21.1 L38.65 19.4 38.25 20.2 Q37.35 21.9 35.8 23.1 L35.2 23.5 34.9 23.7 33.85 23.55 33.25 23.4 32.65 23.3 32.4 23.2 33.5 23.05 33.45 22.65 Q33.45 20.0 31.75 17.4 L31.2 17.45 Q29.95 19.35 30.2 21.55 30.1 21.85 30.35 22.1 L30.7 22.45 30.7 22.5 30.1 22.15 30.0 22.05 29.7 21.8 Q29.6 19.45 30.8 16.95 L31.0 16.95 Q33.45 16.95 37.25 14.85 M30.55 23.15 L32.35 23.85 Q31.8 24.9 31.95 27.15 L32.1 29.3 32.15 29.35 Q32.65 31.65 32.15 34.5 L31.8 36.35 31.2 36.55 Q31.85 34.85 31.8 33.05 L31.55 29.3 31.1 27.05 30.55 25.9 Q30.15 24.75 30.55 23.15 M28.6 42.95 Q28.05 42.5 28.15 42.1 28.6 40.75 29.55 39.5 L30.35 39.55 Q29.1 40.45 29.0 41.6 28.9 42.8 29.55 42.45 L29.65 42.6 29.8 43.0 29.8 43.15 29.85 44.1 29.85 44.15 Q29.25 45.05 30.1 45.55 L30.6 45.85 31.2 46.1 31.95 46.45 35.75 47.75 33.85 47.35 31.8 46.7 30.1 46.0 Q28.6 45.25 28.95 44.6 L29.35 44.15 29.45 43.5 29.45 43.45 29.4 43.45 29.05 43.25 28.9 43.15 28.6 42.95 M31.0 37.05 L31.1 36.95 31.6 36.7 30.8 38.9 29.9 38.95 30.15 38.7 31.0 37.05" fill="#f2edda" fill-rule="evenodd" stroke="none"/>
      <path d="M39.25 13.7 L39.65 14.4 Q39.55 17.3 38.65 19.4 L36.85 21.1 Q35.6 20.65 34.95 18.7 34.65 17.8 34.5 16.5 L37.25 14.85 39.25 13.7 M31.9 23.0 L32.4 23.2 32.65 23.3 32.35 23.85 30.55 23.15 30.75 22.5 30.8 22.55 31.45 22.8 31.55 22.9 31.9 23.0 31.55 22.9 31.45 22.8 30.85 22.5 30.75 22.45 30.7 22.45 30.35 22.1 Q30.1 21.85 30.2 21.55 29.95 19.35 31.2 17.45 L31.75 17.4 Q33.45 20.0 33.45 22.65 L33.5 23.05 32.4 23.2 31.9 23.0 M32.35 23.85 L34.4 24.25 Q35.0 24.65 34.95 26.4 L34.9 27.45 34.8 29.5 34.6 31.15 34.4 33.05 33.8 36.45 33.4 37.65 Q32.8 39.65 32.75 42.1 L32.75 42.2 Q32.7 43.05 32.2 43.6 L31.75 43.95 Q31.6 44.3 31.75 44.35 L32.5 44.65 33.3 45.0 33.95 45.35 Q34.5 45.75 34.25 46.15 L31.95 46.35 31.2 46.1 30.6 45.85 30.1 45.55 Q29.25 45.05 29.85 44.15 L29.85 44.1 29.8 43.15 29.8 43.0 29.65 42.6 29.55 42.45 Q28.9 42.8 29.0 41.6 29.1 40.45 30.35 39.55 L29.55 39.5 Q28.6 40.75 28.15 42.1 28.05 42.5 28.6 42.95 L28.55 42.85 Q27.6 42.3 27.5 41.85 28.4 39.85 29.95 38.2 L30.55 36.9 31.05 35.4 31.5 33.3 Q31.6 31.2 31.2 29.25 L30.6 27.0 29.9 25.5 Q29.8 24.3 30.0 22.8 L30.55 23.15 Q30.15 24.75 30.55 25.9 L31.1 27.05 31.55 29.3 31.8 33.05 Q31.85 34.85 31.2 36.55 L31.8 36.35 32.15 34.5 Q32.65 31.65 32.15 29.35 L32.1 29.3 31.95 27.15 Q31.8 24.9 32.35 23.85 M36.8 28.35 L37.05 27.65 38.45 24.45 39.1 24.45 37.6 27.7 Q36.25 30.95 35.6 34.65 L35.5 35.8 Q35.4 37.15 35.75 38.2 36.15 39.5 37.1 40.5 L39.75 43.7 Q42.15 44.6 44.65 46.8 L43.3 47.65 41.1 48.0 Q43.6 47.55 43.75 46.55 42.4 45.5 40.15 44.4 38.8 43.8 37.25 43.8 L37.2 43.8 37.15 43.8 36.55 43.8 37.55 43.65 37.65 43.65 39.0 43.6 38.75 43.3 38.7 43.25 37.35 41.65 Q36.15 40.1 35.45 38.4 L35.35 38.15 Q34.8 35.25 35.35 33.55 L35.6 32.3 Q36.1 30.25 36.8 28.35 M31.0 37.05 L30.15 38.7 29.9 38.95 30.8 38.9 31.6 36.7 31.1 36.95 31.0 37.05" fill="#d5cebc" fill-rule="evenodd" stroke="none"/>
      <path d="M39.65 14.4 L39.25 13.7 41.5 16.7 Q41.5 18.95 40.9 21.4 L40.3 23.5 39.3 24.1 38.6 24.2 38.45 24.25 38.6 24.2 39.3 24.1 39.15 24.3 39.1 24.45 38.45 24.45 37.05 27.65 36.8 28.35 Q35.45 31.4 34.6 31.15 L34.8 29.5 34.9 27.45 34.95 26.4 Q35.0 24.65 34.4 24.25 L32.35 23.85 32.65 23.3 33.2 23.45 33.8 23.6 33.85 23.55 34.9 23.7 36.5 23.75 39.95 23.1 40.5 21.15 Q41.0 19.0 40.95 16.7 L39.65 14.4 M33.85 23.6 L33.8 23.6 33.85 23.6 34.4 24.25 38.45 24.45 38.45 24.25 38.25 24.25 35.85 23.95 34.85 23.8 33.85 23.6 M30.75 22.5 L30.55 23.15 30.0 22.8 30.0 22.35 30.1 22.15 30.7 22.5 30.75 22.5 M31.2 46.1 L31.95 46.35 34.25 46.15 Q34.5 45.75 33.95 45.35 L33.3 45.0 32.5 44.65 31.75 44.35 Q31.6 44.3 31.75 43.95 L32.2 43.6 Q32.7 43.05 32.75 42.2 L32.75 42.1 Q32.8 39.65 33.4 37.65 L33.8 36.45 34.4 33.05 Q35.3 31.2 35.6 32.3 L35.35 33.55 Q34.8 35.25 35.35 38.15 L35.45 38.4 Q36.15 40.1 37.35 41.65 L38.7 43.25 38.75 43.3 39.0 43.6 37.65 43.65 37.55 43.65 36.55 43.8 37.15 43.8 37.2 43.8 37.25 43.8 Q38.8 43.8 40.15 44.4 42.4 45.5 43.75 46.55 43.6 47.55 41.1 48.0 L35.75 47.75 31.95 46.45 31.2 46.1 M36.55 43.8 L36.3 43.85 36.15 43.85 36.3 43.85 36.55 43.8" fill="#a6a093" fill-rule="evenodd" stroke="none"/>
      <path d="M38.65 19.4 Q39.55 17.3 39.65 14.4 L40.95 16.7 Q41.0 19.0 40.5 21.15 L39.95 23.1 36.5 23.75 34.9 23.7 35.2 23.5 35.8 23.1 Q37.35 21.9 38.25 20.2 L38.65 19.4 M33.85 23.6 L34.85 23.8 35.85 23.95 38.25 24.25 38.45 24.25 38.45 24.45 34.4 24.25 33.85 23.6 M34.4 33.05 L34.6 31.15 Q35.45 31.4 36.8 28.35 36.1 30.25 35.6 32.3 35.3 31.2 34.4 33.05" fill="#817a6d" fill-rule="evenodd" stroke="none"/>
      <path d="M39.25 13.7 L37.25 14.85 M33.8 23.6 L33.85 23.6 34.85 23.8 35.85 23.95 38.25 24.25 38.45 24.25 38.6 24.2 39.3 24.1 40.3 23.5 40.9 21.4 Q41.5 18.95 41.5 16.7 L39.25 13.7 M31.9 23.0 L32.4 23.2 32.65 23.3 33.2 23.45 33.8 23.6 M31.9 23.0 L31.55 22.9 31.45 22.8 30.8 22.55 30.75 22.5 M30.0 22.8 Q29.8 24.3 29.9 25.5 L30.6 27.0 31.2 29.25 Q31.6 31.2 31.5 33.3 L31.05 35.4 30.55 36.9 29.95 38.2 Q28.4 39.85 27.5 41.85 27.6 42.3 28.55 42.85 L28.6 42.95 M39.1 24.45 L39.15 24.3 39.3 24.1 M39.1 24.45 L37.6 27.7 Q36.25 30.95 35.6 34.65 L35.5 35.8 Q35.4 37.15 35.75 38.2 36.15 39.5 37.1 40.5 L39.75 43.7 Q42.15 44.6 44.65 46.8 L43.3 47.65 41.1 48.0 35.75 47.75 33.85 47.35 31.8 46.7 30.1 46.0 Q28.6 45.25 28.95 44.6 L29.35 44.15 29.45 43.5 29.4 43.45 29.05 43.25 28.9 43.15 28.6 42.95 M30.1 22.15 L30.0 22.05 29.7 21.8 Q29.6 19.45 30.8 16.95 L31.0 16.95 Q33.45 16.95 37.25 14.85 M30.7 22.5 L30.75 22.5 M30.1 22.15 L30.0 22.35 30.0 22.8 M30.7 22.5 L30.1 22.15" fill="none" stroke="#000000" stroke-linecap="round" stroke-linejoin="round" stroke-opacity="0.3019608" stroke-width="0.30000000000000004"/>
      <path d="M16.7 23.9 L16.7 23.85 16.75 23.9 16.7 23.9" fill="#f0b630" fill-rule="evenodd" stroke="none"/>
      <path d="M16.7 23.85 L16.7 23.8 16.7 23.85 M21.65 41.2 L21.7 41.25 21.65 41.2" fill="#b7741d" fill-rule="evenodd" stroke="none"/>
      <path d="M16.7 23.85 L16.65 23.8 16.7 23.8 16.7 23.85" fill="#8a5017" fill-rule="evenodd" stroke="none"/>
      <path d="M24.45 22.6 L24.6 22.95 24.05 23.15 24.0 22.75 24.45 22.6 M17.1 44.95 L16.55 45.05 13.4 45.2 Q15.95 44.6 17.25 43.35 L17.9 42.7 18.2 42.3 18.3 41.9 18.15 40.55 18.45 40.25 19.5 39.6 19.9 39.3 20.35 39.55 20.35 39.6 Q20.8 40.05 20.7 41.05 L20.65 41.6 Q20.2 41.85 20.25 42.3 20.6 42.85 20.35 43.4 19.8 44.35 17.1 44.95 M16.8 24.3 L16.75 24.2 16.7 23.9 16.75 23.9 17.3 24.25 21.05 23.85 Q21.95 26.05 22.15 28.7 L22.2 29.4 Q22.2 32.55 22.75 34.65 L23.05 34.1 Q23.05 36.05 23.35 37.05 23.9 38.6 23.7 40.0 23.65 40.6 22.7 41.15 L21.85 41.2 21.7 41.25 21.65 41.2 Q20.9 39.95 21.15 38.05 L21.65 36.85 Q21.95 32.95 21.3 30.15 L20.95 28.95 20.85 28.55 Q19.7 25.55 17.3 24.25 L16.8 24.3 M23.05 17.15 L23.5 17.2 Q24.1 18.6 24.3 20.75 L24.4 22.05 23.9 22.2 23.25 20.6 Q22.85 19.05 23.05 17.15" fill="#a6a093" fill-rule="evenodd" stroke="none"/>
      <path d="M20.75 18.8 L20.7 18.2 20.4 16.65 23.05 17.15 Q22.85 19.05 23.25 20.6 L23.9 22.2 20.3 23.1 20.65 21.65 20.8 20.15 20.75 18.8 M17.75 23.85 L21.0 23.45 21.05 23.85 17.3 24.25 16.75 23.9 16.7 23.85 16.7 23.8 17.0 23.85 17.05 23.85 17.3 23.85 17.75 23.85 M24.05 23.15 Q24.6 25.3 24.15 27.8 L23.85 28.8 Q23.25 31.4 23.05 34.1 L22.75 34.65 Q22.2 32.55 22.2 29.4 L22.15 28.7 Q21.95 26.05 21.05 23.85 L24.05 23.15 M23.35 37.05 L24.35 39.2 Q25.0 40.15 24.75 40.65 24.1 41.1 22.7 41.15 23.65 40.6 23.7 40.0 23.9 38.6 23.35 37.05 M21.7 41.25 Q20.95 41.4 20.65 41.6 L20.7 41.05 Q20.8 40.05 20.35 39.6 L20.35 39.55 19.9 39.3 21.15 38.05 Q20.9 39.95 21.65 41.2 L21.7 41.25" fill="#817a6d" fill-rule="evenodd" stroke="none"/>
      <path d="M21.0 23.45 L24.0 22.75 24.05 23.15 21.05 23.85 21.0 23.45" fill="#605a53" fill-rule="evenodd" stroke="none"/>
      <path d="M15.0 14.05 L15.05 13.75 Q17.95 15.55 21.8 16.45 L23.65 16.8 Q24.55 18.7 24.7 20.85 L24.7 22.4 24.7 22.45 24.45 22.6 24.0 22.75 21.0 23.45 17.75 23.85 Q15.15 23.5 14.75 23.0 L14.7 19.25 Q16.9 19.55 17.85 22.55 L18.05 23.5 20.3 23.1 23.9 22.2 24.4 22.05 24.3 20.75 Q24.1 18.6 23.5 17.2 L23.05 17.15 20.4 16.65 20.7 18.2 20.75 18.8 20.6 20.1 Q20.4 21.2 20.05 21.05 L19.3 20.35 18.8 19.85 Q16.8 17.5 16.05 14.55 L15.0 14.05 M24.6 22.95 L25.35 25.95 24.8 28.85 23.85 32.25 Q22.85 36.4 24.8 39.1 25.45 39.95 25.5 40.85 L23.25 41.5 22.6 41.6 Q20.5 41.85 20.8 42.5 21.15 43.05 20.85 43.55 20.3 44.5 17.1 44.95 19.8 44.35 20.35 43.4 20.6 42.85 20.25 42.3 20.2 41.85 20.65 41.6 20.95 41.4 21.7 41.25 L21.85 41.2 22.7 41.15 Q24.1 41.1 24.75 40.65 25.0 40.15 24.35 39.2 L23.35 37.05 Q23.05 36.05 23.05 34.1 23.25 31.4 23.85 28.8 L24.15 27.8 Q24.6 25.3 24.05 23.15 L24.6 22.95 M13.4 45.2 L9.0 44.7 Q6.3 43.8 5.9 43.0 7.1 41.85 9.35 41.2 L11.95 41.55 Q9.65 41.6 9.7 40.85 L10.3 40.4 10.8 40.15 11.05 39.95 Q12.45 39.25 14.8 38.5 L14.85 38.5 16.85 38.25 17.75 38.15 Q20.75 37.6 20.05 34.35 L19.45 32.25 19.0 29.2 Q20.0 28.65 21.3 30.15 21.95 32.95 21.65 36.85 L21.15 38.05 19.9 39.3 19.5 39.6 18.45 40.25 18.15 40.55 18.3 41.9 18.2 42.3 17.9 42.7 17.25 43.35 Q15.95 44.6 13.4 45.2 M17.0 24.8 L16.8 24.3 17.3 24.25 Q19.7 25.55 20.85 28.55 L20.95 28.95 Q20.2 29.0 19.45 28.45 L18.65 27.8 17.0 24.8" fill="#d5cebc" fill-rule="evenodd" stroke="none"/>
      <path d="M9.0 44.7 Q6.65 44.15 5.15 43.0 6.85 41.35 9.25 40.8 L10.0 40.35 Q12.15 39.0 14.8 38.5 12.45 39.25 11.05 39.95 L10.8 40.15 10.3 40.4 9.7 40.85 Q9.65 41.6 11.95 41.55 L9.35 41.2 Q7.1 41.85 5.9 43.0 6.3 43.8 9.0 44.7 M19.45 32.25 L18.3 28.35 17.0 24.8 18.65 27.8 19.45 28.45 Q20.2 29.0 20.95 28.95 L21.3 30.15 Q20.0 28.65 19.0 29.2 L19.45 32.25 M16.65 23.8 L16.6 23.8 15.2 23.65 14.75 23.6 14.3 23.5 Q14.0 21.4 14.2 19.05 14.35 16.7 15.0 14.05 L16.05 14.55 Q16.8 17.5 18.8 19.85 L19.3 20.35 20.05 21.05 Q20.4 21.2 20.6 20.1 L20.75 18.8 20.8 20.15 20.65 21.65 20.3 23.1 18.05 23.5 17.85 22.55 Q16.9 19.55 14.7 19.25 L14.75 23.0 Q15.15 23.5 17.75 23.85 L17.3 23.85 17.05 23.85 17.0 23.85 16.7 23.8 16.65 23.8" fill="#f2edda" fill-rule="evenodd" stroke="none"/>
      <path d="M15.0 14.05 L15.05 13.75 Q17.95 15.55 21.8 16.45 L23.65 16.8 Q24.55 18.7 24.7 20.85 L24.7 22.4 24.7 22.45 24.45 22.6 24.6 22.95 25.35 25.95 24.8 28.85 23.85 32.25 Q22.85 36.4 24.8 39.1 25.45 39.95 25.5 40.85 L23.25 41.5 22.6 41.6 Q20.5 41.85 20.8 42.5 21.15 43.05 20.85 43.55 20.3 44.5 17.1 44.95 L16.55 45.05 13.4 45.2 9.0 44.7 Q6.65 44.15 5.15 43.0 6.85 41.35 9.25 40.8 L10.0 40.35 Q12.15 39.0 14.8 38.5 M14.85 38.5 L16.85 38.25 17.75 38.15 Q20.75 37.6 20.05 34.35 L19.45 32.25 18.3 28.35 17.0 24.8 16.8 24.3 16.75 24.2 16.7 23.9 16.7 23.85 16.65 23.8 16.6 23.8 15.2 23.65 14.75 23.6 14.3 23.5 Q14.0 21.4 14.2 19.05 14.35 16.7 15.0 14.05 M17.75 23.85 L21.0 23.45 24.0 22.75 24.45 22.6 M16.65 23.8 L16.7 23.8 17.0 23.85 17.05 23.85 17.3 23.85 17.75 23.85" fill="none" stroke="#000000" stroke-linecap="round" stroke-linejoin="round" stroke-opacity="0.3019608" stroke-width="0.30000000000000004"/>
      <path d="M37.65 13.1 Q41.65 8.2 46.45 5.7 47.45 5.25 47.0 8.3 46.1 11.05 41.35 15.2 L39.7 16.15 Q36.5 17.15 37.65 13.1 M38.2 21.95 L38.15 22.35 37.45 22.05 37.6 21.75 38.2 21.95 M40.65 21.75 L40.4 21.4 40.75 21.3 41.05 21.6 40.65 21.75 M42.1 17.8 L42.45 17.4 43.55 17.25 43.2 17.65 44.55 17.7 45.35 18.1 43.2 20.0 Q40.8 20.45 41.25 19.3 42.15 18.25 43.2 17.65 L42.1 17.8 M37.1 13.2 L37.0 13.9 36.5 14.65 36.5 13.95 37.1 13.2 M32.2 15.35 L32.2 14.95 Q32.05 12.35 33.5 9.55 35.35 6.85 35.9 8.8 L36.0 10.65 Q36.0 12.25 35.25 15.05 L34.45 16.25 Q33.4 17.0 32.2 15.35 M36.05 15.7 L36.4 15.75 36.35 16.0 36.35 16.3 36.05 16.2 36.05 15.7 M37.55 17.55 Q37.1 18.95 36.4 19.15 36.05 19.4 35.5 18.45 35.4 17.25 35.6 16.55 36.75 16.8 37.55 17.55" fill="#d5cebc" fill-rule="evenodd" stroke="none"/>
      <path d="M41.35 15.2 Q46.1 11.05 47.0 8.3 47.45 5.25 46.45 5.7 41.65 8.2 37.65 13.1 L37.0 13.9 37.1 13.2 Q40.9 8.2 46.45 5.25 47.65 4.6 47.6 6.95 47.35 11.25 42.45 17.4 L42.1 17.8 41.6 18.45 39.6 20.65 40.4 21.4 40.65 21.75 40.85 22.55 Q40.45 23.4 38.15 22.35 L38.2 21.95 40.5 22.4 Q38.4 21.55 39.0 20.6 L40.7 18.8 43.1 15.8 Q45.15 13.1 46.2 10.6 43.15 13.85 41.35 15.2 M37.45 22.05 L37.05 22.95 Q36.2 23.75 34.85 22.65 30.9 18.7 32.05 12.25 33.4 7.85 35.35 7.4 36.3 7.2 36.4 9.9 L36.4 10.0 36.5 13.95 36.5 14.65 36.4 15.75 36.05 15.7 36.15 11.2 Q36.0 13.45 35.25 15.05 36.0 12.25 36.0 10.65 L35.9 8.8 Q35.35 6.85 33.5 9.55 32.05 12.35 32.2 14.95 L32.2 15.35 Q32.25 17.65 33.3 19.65 33.9 20.9 34.85 22.0 L35.0 22.15 Q36.35 23.4 37.05 21.85 L37.65 19.9 Q37.9 18.6 37.65 17.65 L37.55 17.55 Q36.75 16.8 35.6 16.55 35.4 17.25 35.5 18.45 L35.8 19.85 Q35.35 18.7 35.2 17.55 L35.1 16.35 Q35.2 15.9 36.05 16.2 L36.35 16.3 37.8 17.05 Q38.6 17.9 38.1 20.0 L37.6 21.75 37.45 22.05 M41.05 21.6 L40.75 21.3 Q42.0 20.8 43.2 20.0 L45.35 18.1 44.55 17.7 43.2 17.65 43.55 17.25 45.4 17.35 Q46.3 17.5 45.7 18.25 44.1 20.45 41.05 21.6" fill="#f2edda" fill-rule="evenodd" stroke="none"/>
      <path d="M41.35 15.2 Q43.15 13.85 46.2 10.6 45.15 13.1 43.1 15.8 41.2 17.25 39.2 17.2 37.25 16.8 36.35 16.0 L36.4 15.75 36.5 14.65 37.0 13.9 37.65 13.1 Q36.5 17.15 39.7 16.15 L41.35 15.2 M40.7 18.8 L39.0 20.6 Q38.4 21.55 40.5 22.4 L38.2 21.95 37.6 21.75 38.1 20.0 Q39.75 18.6 40.7 18.8 M35.25 15.05 Q36.0 13.45 36.15 11.2 L36.05 15.7 36.05 16.2 Q35.2 15.9 35.1 16.35 L35.2 17.55 Q34.7 19.4 33.3 19.65 32.25 17.65 32.2 15.35 33.4 17.0 34.45 16.25 L35.25 15.05 M35.0 22.15 Q36.05 19.85 37.65 19.9 L37.05 21.85 Q36.35 23.4 35.0 22.15 M40.75 21.3 L40.15 20.55 41.25 19.3 Q40.8 20.45 43.2 20.0 42.0 20.8 40.75 21.3" fill="#a6a093" fill-rule="evenodd" stroke="none"/>
      <path d="M43.1 15.8 L40.7 18.8 Q39.75 18.6 38.1 20.0 38.6 17.9 37.8 17.05 L36.35 16.3 36.35 16.0 Q37.25 16.8 39.2 17.2 41.2 17.25 43.1 15.8 M40.4 21.4 L39.6 20.65 41.6 18.45 42.1 17.8 43.2 17.65 Q42.15 18.25 41.25 19.3 L40.15 20.55 40.75 21.3 40.4 21.4 M37.55 17.55 L37.65 17.65 Q37.9 18.6 37.65 19.9 36.05 19.85 35.0 22.15 L34.85 22.0 Q33.9 20.9 33.3 19.65 34.7 19.4 35.2 17.55 35.35 18.7 35.8 19.85 L35.5 18.45 Q36.05 19.4 36.4 19.15 37.1 18.95 37.55 17.55" fill="#817a6d" fill-rule="evenodd" stroke="none"/>
      <path d="M38.15 22.35 Q40.45 23.4 40.85 22.55 L40.65 21.75 40.4 21.4 39.6 20.65 41.6 18.45 42.1 17.8 42.45 17.4 Q47.35 11.25 47.6 6.95 47.65 4.6 46.45 5.25 40.9 8.2 37.1 13.2 M37.45 22.05 L37.05 22.95 Q36.2 23.75 34.85 22.65 30.9 18.7 32.05 12.25 33.4 7.85 35.35 7.4 36.3 7.2 36.4 9.9 L36.4 10.0 36.5 13.95 37.1 13.2 M36.4 15.75 L36.5 14.65 36.5 13.95 M35.8 19.85 Q35.35 18.7 35.2 17.55 L35.1 16.35 Q35.2 15.9 36.05 16.2 L36.35 16.3 36.35 16.0 36.4 15.75 M37.6 21.75 L37.45 22.05 38.15 22.35 M38.1 20.0 L37.6 21.75 M43.55 17.25 L42.45 17.4 M40.65 21.75 L41.05 21.6 Q44.1 20.45 45.7 18.25 46.3 17.5 45.4 17.35 L43.55 17.25 M36.35 16.3 L37.8 17.05 Q38.6 17.9 38.1 20.0" fill="none" stroke="#000000" stroke-linecap="round" stroke-linejoin="round" stroke-opacity="0.3019608" stroke-width="0.30000000000000004"/>
      <path d="M13.0 17.35 L13.2 17.75 12.9 17.7 12.75 17.25 12.9 17.3 13.0 17.35 M14.3 20.6 L14.0 20.85 13.65 20.65 13.9 20.35 14.3 20.6 M13.6 21.5 L13.75 21.5 14.25 21.5 14.6 21.7 16.1 21.95 16.35 22.4 14.4 22.2 13.9 21.8 13.6 21.5 M11.95 14.1 Q10.2 9.7 10.2 5.6 10.25 4.15 11.45 6.1 L12.55 7.8 Q13.75 10.55 13.8 13.6 L13.4 14.6 Q12.75 15.15 12.05 14.25 L11.95 14.1 M14.85 12.45 L14.9 11.9 14.95 11.95 15.0 12.2 15.05 12.5 15.1 12.95 14.85 12.45 M15.6 16.55 L15.9 16.45 16.0 16.9 15.65 16.95 15.6 16.55 M15.5 14.05 L15.4 13.05 Q15.2 10.45 15.85 8.0 16.65 8.65 17.7 10.6 L18.0 12.1 18.05 14.4 17.95 15.4 Q17.75 16.15 17.45 16.2 L17.15 16.3 16.75 16.25 16.4 16.05 16.25 15.9 Q15.8 15.35 15.5 14.05 M15.95 20.05 L15.75 19.3 15.7 18.9 15.6 18.5 Q15.65 17.8 16.0 17.4 16.2 17.35 16.45 17.75 L16.65 17.9 17.05 18.45 Q17.4 19.75 17.15 20.15 16.6 20.85 15.95 20.05 M10.85 17.4 L12.65 17.6 12.85 17.7 13.85 19.25 12.85 18.85 12.8 18.8 12.15 18.4 10.85 17.4" fill="#d5cebc" fill-rule="evenodd" stroke="none"/>
      <path d="M14.5 20.45 L14.3 20.6 13.9 20.35 13.35 19.95 13.15 19.85 12.65 19.45 Q11.35 18.35 10.85 17.4 L12.15 18.4 12.8 18.8 12.85 18.85 13.85 19.25 14.5 20.45 M14.25 18.8 L13.6 17.55 13.45 17.35 13.2 16.85 13.2 16.8 12.0 14.25 11.95 14.1 12.05 14.25 Q12.75 15.15 13.4 14.6 L13.8 13.6 Q14.1 12.1 13.35 9.25 L14.85 12.45 15.1 12.95 15.1 13.15 15.3 14.85 15.45 15.65 14.85 16.4 Q14.4 17.3 14.25 18.8 M16.85 22.35 L16.35 22.4 16.1 21.95 16.5 21.95 16.85 22.35 M15.9 16.45 L15.85 16.2 15.5 14.05 Q15.8 15.35 16.25 15.9 L16.4 16.05 16.75 16.25 17.15 16.3 17.45 16.2 Q17.75 16.15 17.95 15.4 L18.15 14.15 18.2 12.0 18.25 11.8 18.25 12.0 18.65 13.05 19.3 15.7 19.25 16.2 Q19.05 18.25 17.7 18.55 L17.3 18.6 17.2 18.35 16.85 17.7 16.65 17.35 16.1 16.9 16.0 16.9 15.9 16.45 M19.65 18.1 L19.6 20.3 Q19.1 23.1 17.7 22.6 L17.2 22.2 Q18.25 18.85 19.65 18.1" fill="#a6a093" fill-rule="evenodd" stroke="none"/>
      <path d="M13.2 17.75 L13.25 17.85 13.7 18.6 14.1 19.4 14.15 19.45 14.75 20.35 14.5 20.45 13.85 19.25 12.85 17.7 12.9 17.7 13.2 17.75 M14.25 21.5 L14.75 21.45 Q15.35 21.2 15.2 20.6 L14.25 18.8 Q14.4 17.3 14.85 16.4 L15.45 15.65 15.55 16.3 15.6 16.55 15.65 16.95 Q15.25 17.3 15.3 18.5 L15.35 18.7 15.5 19.75 15.7 20.45 16.5 21.95 16.1 21.95 14.6 21.7 14.25 21.5 M19.3 15.7 L19.4 16.15 19.65 18.1 Q18.25 18.85 17.2 22.2 16.55 21.6 16.1 20.5 L15.95 20.05 Q16.6 20.85 17.15 20.15 17.4 19.75 17.05 18.45 L17.65 19.55 17.3 18.6 17.7 18.55 Q19.05 18.25 19.25 16.2 L19.3 15.7" fill="#817a6d" fill-rule="evenodd" stroke="none"/>
      <path d="M13.0 17.35 L12.95 17.25 12.8 16.95 11.95 15.1 11.7 14.35 Q9.85 9.85 9.75 5.8 9.75 4.05 10.4 4.1 12.4 6.25 14.05 9.85 L14.9 11.9 14.85 12.45 13.35 9.25 Q14.1 12.1 13.8 13.6 13.75 10.55 12.55 7.8 L11.45 6.1 Q10.25 4.15 10.2 5.6 10.2 9.7 11.95 14.1 L12.0 14.25 13.2 16.8 13.2 16.85 13.45 17.35 13.6 17.55 14.25 18.8 15.2 20.6 Q15.35 21.2 14.75 21.45 L14.25 21.5 13.75 21.5 13.6 21.5 13.7 21.3 14.0 20.85 14.3 20.6 14.5 20.45 14.75 20.35 14.15 19.45 14.1 19.4 13.7 18.6 13.25 17.85 13.2 17.75 13.0 17.35 M15.0 12.2 L15.0 11.0 Q15.0 8.6 15.8 7.35 17.6 8.65 18.7 11.85 L18.9 12.5 19.5 14.6 19.6 15.25 19.75 15.95 20.05 18.2 Q20.4 22.5 18.3 23.1 17.7 23.15 17.15 22.7 L16.85 22.35 16.5 21.95 15.7 20.45 15.5 19.75 15.35 18.7 15.3 18.5 Q15.25 17.3 15.65 16.95 L16.0 16.9 16.1 16.9 16.65 17.35 16.85 17.7 17.2 18.35 17.3 18.6 17.65 19.55 17.05 18.45 16.65 17.9 16.45 17.75 Q16.2 17.35 16.0 17.4 15.65 17.8 15.6 18.5 L15.7 18.9 15.75 19.3 15.95 20.05 16.1 20.5 Q16.55 21.6 17.2 22.2 L17.7 22.6 Q19.1 23.1 19.6 20.3 L19.65 18.1 19.4 16.15 19.3 15.7 18.65 13.05 18.25 12.0 18.25 11.8 18.2 12.0 18.15 14.15 17.95 15.4 18.05 14.4 18.0 12.1 17.7 10.6 Q16.65 8.65 15.85 8.0 15.2 10.45 15.4 13.05 L15.5 14.05 15.85 16.2 15.9 16.45 15.6 16.55 15.55 16.3 15.45 15.65 15.3 14.85 15.1 13.15 15.1 12.95 15.05 12.5 15.0 12.2 M13.65 20.65 L13.4 20.5 12.95 20.2 12.45 19.8 11.3 18.7 10.45 17.5 Q10.1 16.75 11.95 17.1 L12.75 17.25 12.9 17.7 12.85 17.7 12.65 17.6 10.85 17.4 Q11.35 18.35 12.65 19.45 L13.15 19.85 13.35 19.95 13.9 20.35 13.65 20.65" fill="#f2edda" fill-rule="evenodd" stroke="none"/>
      <path d="M14.9 11.9 L14.05 9.85 Q12.4 6.25 10.4 4.1 9.75 4.05 9.75 5.8 9.85 9.85 11.7 14.35 L11.95 15.1 12.8 16.95 12.95 17.25 13.0 17.35 13.2 17.75 13.25 17.85 13.7 18.6 14.1 19.4 14.15 19.45 14.75 20.35 14.5 20.45 14.3 20.6 14.0 20.85 13.7 21.3 13.6 21.5 M14.9 11.9 L14.95 11.95 15.0 12.2 15.0 11.0 Q15.0 8.6 15.8 7.35 17.6 8.65 18.7 11.85 L18.9 12.5 19.5 14.6 19.6 15.25 19.75 15.95 20.05 18.2 Q20.4 22.5 18.3 23.1 17.7 23.15 17.15 22.7 L16.85 22.35 16.35 22.4 14.4 22.2 13.9 21.8 13.6 21.5 M15.1 12.95 L15.1 13.15 15.3 14.85 15.45 15.65 15.55 16.3 15.6 16.55 M17.65 19.55 L17.3 18.6 17.2 18.35 16.85 17.7 16.65 17.35 16.1 16.9 16.0 16.9 15.65 16.95 Q15.25 17.3 15.3 18.5 L15.35 18.7 15.5 19.75 15.7 20.45 16.5 21.95 16.85 22.35 M15.0 12.2 L15.05 12.5 15.1 12.95 M15.65 16.95 L15.6 16.55 M13.65 20.65 L13.4 20.5 12.95 20.2 12.45 19.8 11.3 18.7 10.45 17.5 Q10.1 16.75 11.95 17.1 L12.75 17.25 12.9 17.3 13.0 17.35 M13.65 20.65 L14.0 20.85" fill="none" stroke="#000000" stroke-linecap="round" stroke-linejoin="round" stroke-opacity="0.3019608" stroke-width="0.30000000000000004"/>
      <path d="M31.35 30.3 L36.5 30.8 35.6 34.65 35.5 35.8 Q35.4 37.15 35.75 38.2 36.15 39.5 37.1 40.5 L39.75 43.7 Q42.15 44.6 44.65 46.8 L43.3 47.65 41.1 48.0 35.75 47.75 33.85 47.35 31.8 46.7 30.1 46.0 Q28.6 45.25 28.95 44.6 L29.35 44.15 29.45 43.5 29.4 43.45 29.05 43.25 28.9 43.15 28.6 42.95 28.55 42.85 Q27.6 42.3 27.5 41.85 28.4 39.85 29.95 38.2 L30.55 36.9 31.05 35.4 31.5 33.3 31.35 30.3" fill="url(#gradient0)" fill-rule="evenodd" stroke="none"/>
      <path d="M18.5 29.05 L24.55 29.65 23.85 32.25 Q22.85 36.4 24.8 39.1 25.45 39.95 25.5 40.85 L23.25 41.5 22.6 41.6 Q20.5 41.85 20.8 42.5 21.15 43.05 20.85 43.55 20.3 44.5 17.1 44.95 L16.55 45.05 13.4 45.2 9.0 44.7 Q6.65 44.15 5.15 43.0 6.85 41.35 9.25 40.8 L10.0 40.35 Q12.15 39.0 14.8 38.5 L14.85 38.5 16.85 38.25 17.75 38.15 Q20.75 37.6 20.05 34.35 L19.45 32.25 18.5 29.05" fill="url(#gradient1)" fill-rule="evenodd" stroke="none"/>
      <path d="M31.35 30.3 L31.2 29.25 30.6 27.0 29.9 25.5 Q29.8 24.3 30.0 22.8 L30.0 22.35 30.1 22.15 30.0 22.05 29.7 21.8 Q29.6 19.45 30.8 16.95 L31.0 16.95 31.9 16.9 Q31.55 14.75 32.0 12.2 33.4 7.8 35.3 7.4 36.3 7.2 36.35 9.85 L36.35 10.0 36.5 13.95 37.05 13.2 Q40.9 8.15 46.4 5.2 47.65 4.6 47.55 6.9 47.35 11.25 42.4 17.4 L43.55 17.2 45.4 17.3 Q46.3 17.5 45.65 18.25 44.1 20.4 41.05 21.6 L40.9 21.65 40.75 22.05 40.8 22.55 40.5 22.85 40.3 23.5 39.3 24.1 39.15 24.3 39.1 24.45 37.6 27.7 36.5 30.8 31.35 30.3 M18.5 29.05 L18.3 28.35 17.0 24.8 16.8 24.3 16.75 24.2 16.7 23.9 16.7 23.85 16.65 23.8 16.6 23.8 15.2 23.65 14.75 23.6 14.3 23.5 14.2 22.05 13.85 21.8 13.6 21.5 13.65 21.3 13.95 20.85 13.65 20.65 13.4 20.5 12.9 20.2 12.45 19.85 11.3 18.7 10.45 17.5 Q10.05 16.75 11.95 17.1 L12.75 17.25 12.9 17.3 13.0 17.35 12.95 17.25 12.8 16.95 11.95 15.1 11.65 14.4 Q9.85 9.85 9.7 5.8 9.75 4.1 10.4 4.1 12.4 6.25 14.0 9.85 L14.9 11.9 14.95 11.95 15.0 12.2 14.95 11.0 Q15.0 8.65 15.75 7.35 17.55 8.65 18.65 11.85 L18.9 12.5 19.45 14.6 19.6 15.25 19.7 15.9 21.8 16.45 23.65 16.8 Q24.55 18.7 24.7 20.85 L24.7 22.4 24.7 22.45 24.45 22.6 24.6 22.95 25.35 25.95 24.8 28.85 24.55 29.65 18.5 29.05" fill="url(#gradient2)" fill-rule="evenodd" stroke="none"/>
    </g>
    <linearGradient gradientTransform="matrix(0.0044, -0.0036, 0.0117, 0.0143, 21.15, 46.5)" gradientUnits="userSpaceOnUse" id="gradient0" spreadMethod="pad" x1="-819.2" x2="819.2">
      <stop offset="0.0" stop-color="#57f4f3" stop-opacity="0.15294118"/>
      <stop offset="1.0" stop-color="#aaf7ee" stop-opacity="0.0"/>
    </linearGradient>
    <linearGradient gradientTransform="matrix(0.0044, -0.0036, 0.0117, 0.0143, 21.15, 46.5)" gradientUnits="userSpaceOnUse" id="gradient1" spreadMethod="pad" x1="-819.2" x2="819.2">
      <stop offset="0.0" stop-color="#57f4f3" stop-opacity="0.03137255"/>
      <stop offset="1.0" stop-color="#aaf7ee" stop-opacity="0.0"/>
    </linearGradient>
    <linearGradient gradientTransform="matrix(-0.0025, 0.0081, -0.0266, -0.0081, 29.75, 17.5)" gradientUnits="userSpaceOnUse" id="gradient2" spreadMethod="pad" x1="-819.2" x2="819.2">
      <stop offset="0.00784313725490196" stop-color="#57f4f3" stop-opacity="0.07058824"/>
      <stop offset="1.0" stop-color="#aaf7ee" stop-opacity="0.0"/>
    </linearGradient>
    <g id="sprite0" transform="matrix(1.0, 0.0, 0.0, 1.0, 73.5, 65.0)">
      <use height="136.85" transform="matrix(1.0, 0.0, 0.0, 1.0, -73.5, -65.0)" width="148.25" xlink:href="#shape1"/>
    </g>
    <g id="shape1" transform="matrix(1.0, 0.0, 0.0, 1.0, 73.5, 65.0)">
      <path d="M36.65 -54.65 Q60.05 -42.0 69.75 -17.95 80.55 8.9 68.0 34.1 55.45 59.35 26.8 68.2 -1.8 77.05 -29.7 64.3 -57.6 51.6 -68.45 24.75 -79.3 -2.05 -66.75 -27.25 L-66.7 -27.3 Q-54.1 -52.5 -25.5 -61.4 3.1 -70.2 31.0 -57.5 L36.65 -54.65" fill="url(#gradient3)" fill-rule="evenodd" stroke="none"/>
    </g>
    <radialGradient cx="0" cy="0" gradientTransform="matrix(0.0914, 0.0, 0.0, 0.0914, 0.6, 3.4)" gradientUnits="userSpaceOnUse" id="gradient3" r="819.2" spreadMethod="pad">
      <stop offset="0.0" stop-color="#ffffff"/>
      <stop offset="1.0" stop-color="#ffffff" stop-opacity="0.0"/>
    </radialGradient>
    <g id="sprite1" transform="matrix(1.0, 0.0, 0.0, 1.0, 0.0, 0.0)">
      <use height="26.7" transform="matrix(0.0042, -1.3515, 1.3935, 0.02, 22.09, 56.0263)" width="26.7" xlink:href="#sprite2"/>
      <use height="26.7" transform="matrix(0.0095, -3.0486, 0.372, 0.0053, 36.507, 81.3775)" width="26.7" xlink:href="#sprite2"/>
      <use height="26.7" transform="matrix(3.0486, 0.0095, -0.0053, 0.372, 0.1225, 31.607)" width="26.7" xlink:href="#sprite2"/>
    </g>
    <g id="sprite2" transform="matrix(1.0, 0.0, 0.0, 1.0, 13.35, 13.35)">
      <use height="26.7" transform="matrix(1.0, 0.0, 0.0, 1.0, -13.35, -13.35)" width="26.7" xlink:href="#shape2"/>
    </g>
    <g id="shape2" transform="matrix(1.0, 0.0, 0.0, 1.0, 13.35, 13.35)">
      <path d="M9.3 -9.85 Q13.35 -5.8 13.35 0.0 13.35 5.8 9.3 9.3 5.8 13.35 0.0 13.35 -5.8 13.35 -9.85 9.3 -13.35 5.8 -13.35 0.0 -13.35 -5.8 -9.85 -9.85 -5.8 -13.35 0.0 -13.35 5.8 -13.35 9.3 -9.85" fill="url(#gradient4)" fill-rule="evenodd" stroke="none"/>
    </g>
    <radialGradient cx="0" cy="0" gradientTransform="matrix(0.0213, 0.0, 0.0, 0.0213, 0.0, 0.0)" gradientUnits="userSpaceOnUse" id="gradient4" r="819.2" spreadMethod="pad">
      <stop offset="0.19607843137254902" stop-color="#fee3bc" stop-opacity="0.3254902"/>
      <stop offset="0.5019607843137255" stop-color="#fee3bc" stop-opacity="0.050980393"/>
      <stop offset="0.7607843137254902" stop-color="#ffe3bd" stop-opacity="0.0"/>
    </radialGradient>
  </defs>
</svg>
