<?xml version="1.0" encoding="UTF-8" standalone="no"?>
<svg xmlns:xlink="http://www.w3.org/1999/xlink" height="520.0px" width="520.0px" xmlns="http://www.w3.org/2000/svg">
  <g transform="matrix(10.0, 0.0, 0.0, 10.0, 0.0, 0.0)">
    <use height="52.0" transform="matrix(1.0, 0.0, 0.0, 1.0, 0.0, 0.0)" width="52.0" xlink:href="#shape0"/>
    <use height="175.95" transform="matrix(0.2449, 0.0, 0.0, 0.2449, 2.9, 4.45)" width="188.65" xlink:href="#sprite0"/>
    <use height="42.75" transform="matrix(1.0, 0.0, 0.0, 1.0, 2.4, 5.3)" width="46.5" xlink:href="#shape4"/>
  </g>
  <defs>
    <g id="shape0" transform="matrix(1.0, 0.0, 0.0, 1.0, 0.0, 0.0)">
      <path d="M52.0 0.0 L52.0 52.0 0.0 52.0 0.0 0.0 52.0 0.0" fill="#52514f" fill-opacity="0.0" fill-rule="evenodd" stroke="none"/>
    </g>
    <g id="sprite0" transform="matrix(1.0, 0.0, 0.0, 1.0, 0.0, 0.0)">
      <use height="135.9" transform="matrix(0.7698, 0.0441, -0.0278, 0.8118, 52.3, 0.0)" width="177.15" xlink:href="#sprite1"/>
      <use height="135.9" transform="matrix(1.0, 0.0, 0.0, 1.0, 0.0, 40.05)" width="177.15" xlink:href="#sprite1"/>
      <use height="20.95" transform="matrix(0.3754, 1.99, -2.2481, 0.5793, 106.35, 93.75)" width="24.45" xlink:href="#sprite2"/>
      <use height="37.7" transform="matrix(0.1362, 1.6042, -1.4444, 0.1974, 109.1, 98.0)" width="37.7" xlink:href="#sprite3"/>
    </g>
    <g id="sprite1" transform="matrix(1.0, 0.0, 0.0, 1.0, 0.0, 0.0)">
      <use height="135.9" transform="matrix(1.0, 0.0, 0.0, 1.0, 0.0, 0.0)" width="177.15" xlink:href="#shape1"/>
    </g>
    <g id="shape1" transform="matrix(1.0, 0.0, 0.0, 1.0, 0.0, 0.0)">
      <path d="M90.4 51.95 Q123.45 72.1 155.8 84.85 L137.95 89.05 81.25 102.35 Q73.05 97.15 64.9 92.65 58.85 89.3 52.85 86.4 60.3 89.65 79.45 73.75 96.95 59.1 90.4 51.95" fill="#312920" fill-rule="evenodd" stroke="none"/>
      <path d="M137.95 89.05 Q146.9 93.1 155.8 96.6 L79.6 114.8 Q68.1 107.05 56.5 101.05 75.15 104.0 64.9 92.65 73.05 97.15 81.25 102.35 L137.95 89.05" fill="#305339" fill-rule="evenodd" stroke="none"/>
      <path d="M72.95 40.9 L81.15 46.15 90.4 51.95 Q96.95 59.1 79.45 73.75 60.3 89.65 52.85 86.4 L52.75 86.35 51.45 85.75 Q37.55 79.05 23.15 74.25 L33.4 76.95 Q37.8 78.5 43.4 78.3 48.85 77.95 56.4 73.3 L69.0 65.1 Q74.35 61.55 77.35 56.85 80.2 52.25 78.35 48.5 76.45 44.75 72.95 40.9" fill="#4a3f30" fill-rule="evenodd" stroke="none"/>
      <path d="M4.25 60.35 Q4.7 57.5 5.6 55.1 L6.35 53.25 Q15.3 29.45 46.7 32.15 L47.35 32.25 Q55.2 32.95 64.55 35.45 L72.95 40.9 Q76.45 44.75 78.35 48.5 80.2 52.25 77.35 56.85 74.35 61.55 69.0 65.1 L56.4 73.3 Q48.85 77.95 43.4 78.3 37.8 78.5 33.4 76.95 L23.15 74.25 23.1 74.25 23.0 74.2 22.95 74.2 22.45 74.0 22.0 73.9 Q14.25 71.25 6.3 69.2 L6.15 69.15 4.15 60.85 4.25 60.35" fill="#61513e" fill-rule="evenodd" stroke="none"/>
      <path d="M22.0 86.8 Q12.2 83.7 2.1 81.65 L6.3 69.2 Q14.25 71.25 22.0 73.9 L22.45 74.0 22.8 74.15 22.95 74.2 23.0 74.2 23.1 74.25 23.15 74.25 Q37.55 79.05 51.45 85.75 20.2 74.15 22.0 86.8" fill="#017068" fill-rule="evenodd" stroke="none"/>
      <path d="M22.95 74.2 L22.8 74.15 22.45 74.0 22.95 74.2" fill="#d8d8bd" fill-rule="evenodd" stroke="none"/>
      <path d="M56.5 101.05 Q45.7 95.45 34.75 91.25 L22.0 86.8 Q20.2 74.15 51.45 85.75 L52.75 86.35 52.85 86.4 Q58.85 89.3 64.9 92.65 75.15 104.0 56.5 101.05 M2.1 81.65 L1.95 81.6 0.0 73.0 Q0.5 69.7 1.5 66.85 L2.3 64.9 Q3.15 62.5 4.25 60.35 L4.15 60.85 6.15 69.15 6.3 69.2 2.1 81.65" fill="#003f38" fill-rule="evenodd" stroke="none"/>
      <path d="M137.95 89.05 Q146.9 93.1 155.8 96.6 L79.6 114.8 Q68.1 107.05 56.5 101.05 45.7 95.45 34.75 91.25 L22.0 86.8 Q12.2 83.7 2.1 81.65 L1.95 81.6 0.0 73.0 Q0.5 69.7 1.5 66.85 L2.3 64.9 Q3.15 62.5 4.25 60.35 4.7 57.5 5.6 55.1 L6.35 53.25 Q15.3 29.45 46.7 32.15 L47.35 32.25 Q55.2 32.95 64.55 35.45 L72.95 40.9 81.15 46.15 90.4 51.95 Q123.45 72.1 155.8 84.85 L137.95 89.05 81.25 102.35 Q73.05 97.15 64.9 92.65 58.85 89.3 52.85 86.4 M23.15 74.25 Q37.55 79.05 51.45 85.75 L52.75 86.35 M22.45 74.0 L22.0 73.9 Q14.25 71.25 6.3 69.2 L6.15 69.15 4.15 60.85 4.25 60.35 M22.45 74.0 L22.95 74.2 M23.15 74.25 L23.1 74.25" fill="none" stroke="#000000" stroke-linecap="round" stroke-linejoin="round" stroke-opacity="0.3019608" stroke-width="0.05"/>
      <path d="M52.75 86.35 L52.85 86.4 M23.1 74.25 L23.0 74.2 22.95 74.2 22.8 74.15 22.45 74.0" fill="none" stroke="#00d900" stroke-linecap="round" stroke-linejoin="round" stroke-opacity="0.3019608" stroke-width="0.05"/>
      <path d="M164.55 66.25 Q167.15 68.45 172.65 65.6 L167.75 73.2 Q163.65 76.9 157.85 74.85 L164.55 66.25" fill="#332716" fill-rule="evenodd" stroke="none"/>
      <path d="M172.65 65.6 Q167.15 68.45 164.55 66.25 L172.6 56.0 Q175.2 53.35 174.6 62.6 L174.55 62.65 172.65 65.6 M157.85 74.85 Q163.65 76.9 167.75 73.2 L164.05 78.9 Q160.15 81.7 164.45 86.0 L164.3 86.3 Q158.65 90.85 156.6 86.85 L154.95 82.1 Q155.3 77.3 157.5 75.2 L157.85 74.85" fill="#95815e" fill-rule="evenodd" stroke="none"/>
      <path d="M174.6 62.6 Q175.2 53.35 172.6 56.0 L164.55 66.25 Q160.8 62.65 161.7 58.15 L162.85 57.25 Q179.1 44.6 174.6 62.6 M154.15 64.15 Q151.85 70.55 157.85 74.85 L157.5 75.2 Q155.3 77.3 154.95 82.1 L156.6 86.85 Q158.65 90.85 164.3 86.3 160.9 93.7 145.65 86.85 133.35 81.45 141.4 70.0 145.3 70.65 149.25 68.2 L154.15 64.15" fill="#d8d8bd" fill-rule="evenodd" stroke="none"/>
      <path d="M164.55 66.25 L157.85 74.85 Q151.85 70.55 154.15 64.15 L161.7 58.15 Q160.8 62.65 164.55 66.25" fill="#564533" fill-rule="evenodd" stroke="none"/>
      <path d="M172.65 65.6 Q167.15 68.45 164.55 66.25 160.8 62.65 161.7 58.15 M157.85 74.85 Q163.65 76.9 167.75 73.2 M154.15 64.15 Q151.85 70.55 157.85 74.85 L157.5 75.2" fill="none" stroke="#000000" stroke-linecap="round" stroke-linejoin="round" stroke-opacity="0.15294118" stroke-width="0.05"/>
      <path d="M167.75 73.2 L172.65 65.6 174.55 62.65 174.6 62.6 M161.7 58.15 L154.15 64.15 M164.3 86.3 L164.45 86.0 Q160.15 81.7 164.05 78.9 L167.75 73.2 M161.7 58.15 L162.85 57.25 Q179.1 44.6 174.6 62.6 M141.4 70.0 Q145.3 70.65 149.25 68.2 L154.15 64.15" fill="none" stroke="#000000" stroke-linecap="round" stroke-linejoin="round" stroke-opacity="0.3019608" stroke-width="0.05"/>
      <path d="M148.35 55.25 Q140.95 50.45 134.75 47.0 128.5 43.5 117.9 44.0 107.25 44.5 94.45 46.6 L87.3 50.85 75.7 69.9 72.1 71.35 70.45 69.9 71.55 66.95 Q83.25 37.65 116.8 38.65 136.8 42.0 148.35 55.25" fill="#017068" fill-rule="evenodd" stroke="none"/>
      <path d="M70.45 69.9 L72.1 71.35 75.7 69.9 87.3 50.85 94.45 46.6 Q107.25 44.5 117.9 44.0 128.5 43.5 134.75 47.0 140.95 50.45 148.35 55.25 152.65 60.15 155.8 66.5 167.3 89.7 164.75 98.55 L158.9 74.75 Q140.9 45.2 117.65 46.5 89.05 45.65 78.9 70.55 69.75 92.9 78.65 117.5 L79.25 119.25 79.95 119.7 72.6 123.8 72.4 123.65 71.55 121.65 Q68.25 112.5 67.0 103.65 64.6 86.2 70.45 69.9" fill="#003f38" fill-rule="evenodd" stroke="none"/>
      <path d="M148.35 55.25 Q136.8 42.0 116.8 38.65 83.25 37.65 71.55 66.95 L70.45 69.9 Q64.6 86.2 67.0 103.65 68.25 112.5 71.55 121.65 L72.4 123.65 72.6 123.8 M164.75 98.55 Q167.3 89.7 155.8 66.5 152.65 60.15 148.35 55.25 Z" fill="none" stroke="#000000" stroke-linecap="round" stroke-linejoin="round" stroke-opacity="0.3019608" stroke-width="1.0"/>
      <path d="M74.2 120.25 L73.8 118.4 Q68.25 92.5 79.8 69.3 92.2 44.45 119.25 43.8 145.05 41.1 162.35 79.2 174.65 106.35 161.7 122.3 151.8 134.45 123.05 135.35 87.8 132.15 74.2 120.25" fill="url(#gradient0)" fill-rule="evenodd" stroke="none"/>
      <path d="M74.2 120.25 Q87.8 132.15 123.05 135.35 151.8 134.45 161.7 122.3 174.65 106.35 162.35 79.2 145.05 41.1 119.25 43.8 92.2 44.45 79.8 69.3 68.25 92.5 73.8 118.4 L74.2 120.25 Z" fill="none" stroke="#000000" stroke-linecap="round" stroke-linejoin="round" stroke-opacity="0.3019608" stroke-width="1.0"/>
      <path d="M130.35 122.95 Q144.45 121.75 155.3 116.25 L155.3 116.2 Q166.65 109.85 168.4 104.65 169.25 102.35 169.4 99.75 L169.35 97.95 169.2 96.25 168.05 91.8 Q168.55 86.2 172.05 88.0 176.35 93.35 177.0 99.5 L177.1 101.45 Q177.35 104.75 176.6 107.9 L176.55 108.15 Q175.3 101.45 173.8 106.4 172.25 111.35 166.55 116.05 160.8 120.7 160.0 120.9 149.2 127.65 130.25 129.0 115.35 128.6 106.0 125.7 90.05 120.75 106.0 121.8 L119.85 123.35 121.1 123.35 130.35 122.95" fill="#017068" fill-rule="evenodd" stroke="none"/>
      <path d="M130.35 122.95 Q143.65 121.5 154.05 116.25 L154.05 116.2 Q165.4 109.85 167.15 104.65 168.0 102.35 168.15 99.75 L168.1 97.95 167.95 96.25 Q166.55 90.2 164.2 83.75 L165.5 83.65 166.1 83.65 Q168.3 83.75 169.7 85.4 L172.05 88.0 Q168.55 86.2 168.05 91.8 L169.2 96.25 169.35 97.95 169.4 99.75 Q169.25 102.35 168.4 104.65 166.65 109.85 155.3 116.2 L155.3 116.25 Q144.45 121.75 130.35 122.95 M176.55 108.15 Q174.25 116.95 163.8 124.55 159.5 127.1 151.85 130.15 144.15 133.15 122.25 132.75 109.6 132.5 97.75 127.5 88.6 123.6 91.5 121.0 89.5 118.85 84.0 117.05 L79.15 115.9 Q80.1 114.9 81.55 114.45 L84.0 114.2 85.25 114.5 86.1 114.9 87.8 115.8 Q95.95 119.85 106.0 121.8 90.05 120.75 106.0 125.7 115.35 128.6 130.25 129.0 149.2 127.65 160.0 120.9 160.8 120.7 166.55 116.05 172.25 111.35 173.8 106.4 175.3 101.45 176.55 108.15" fill="#003f38" fill-rule="evenodd" stroke="none"/>
      <path d="M163.8 124.55 L159.8 127.2 Q148.1 133.6 132.9 135.35 L122.35 135.9 119.75 135.85 106.0 134.2 Q91.8 131.6 80.6 125.5 78.5 124.3 77.65 122.05 76.95 119.55 78.05 117.45 L78.2 117.15 Q78.6 116.45 79.15 115.9 L84.0 117.05 Q89.5 118.85 91.5 121.0 88.6 123.6 97.75 127.5 109.6 132.5 122.25 132.75 144.15 133.15 151.85 130.15 159.5 127.1 163.8 124.55" fill="#305339" fill-rule="evenodd" stroke="none"/>
      <path d="M172.05 88.0 L169.7 85.4 Q168.3 83.75 166.1 83.65 L165.5 83.65 164.2 83.75 Q166.55 90.2 167.95 96.25 L168.1 97.95 168.15 99.75 Q168.0 102.35 167.15 104.65 165.4 109.85 154.05 116.2 L154.05 116.25 Q143.65 121.5 130.35 122.95 M172.05 88.0 Q176.35 93.35 177.0 99.5 L177.1 101.45 Q177.35 104.75 176.6 107.9 L176.55 108.15 Q174.25 116.95 163.8 124.55 L159.8 127.2 Q148.1 133.6 132.9 135.35 L122.35 135.9 119.75 135.85 106.0 134.2 Q91.8 131.6 80.6 125.5 78.5 124.3 77.65 122.05 76.95 119.55 78.05 117.45 L78.2 117.15 Q78.6 116.45 79.15 115.9 80.1 114.9 81.55 114.45 L84.0 114.2 85.25 114.5 86.1 114.9 87.8 115.8 Q95.95 119.85 106.0 121.8 L119.85 123.35 121.1 123.35 130.35 122.95" fill="none" stroke="#000000" stroke-linecap="round" stroke-linejoin="round" stroke-opacity="0.3019608" stroke-width="0.05"/>
      <path d="M90.3 125.35 Q94.8 130.35 102.5 133.2 89.1 135.75 77.95 129.8 68.45 121.25 68.45 111.25 68.4 102.1 71.0 99.0 69.7 107.25 73.3 115.4 76.05 111.05 78.7 114.15 81.35 117.25 80.6 124.0 84.1 129.35 90.55 130.15 L90.65 130.2 Q93.05 128.85 90.3 125.35" fill="#305339" fill-rule="evenodd" stroke="none"/>
      <path d="M71.0 99.0 Q71.65 98.15 72.5 97.75 73.25 104.9 76.8 110.65 79.9 102.6 83.1 104.55 88.9 111.85 87.2 121.0 88.45 123.25 90.2 125.25 L90.3 125.35 Q93.05 128.85 90.65 130.2 L90.55 130.15 Q84.1 129.35 80.6 124.0 81.35 117.25 78.7 114.15 76.05 111.05 73.3 115.4 69.7 107.25 71.0 99.0" fill="#003f38" fill-rule="evenodd" stroke="none"/>
      <path d="M90.3 125.35 Q94.8 130.35 102.5 133.2 89.1 135.75 77.95 129.8 68.45 121.25 68.45 111.25 68.4 102.1 71.0 99.0 71.65 98.15 72.5 97.75 73.25 104.9 76.8 110.65 79.9 102.6 83.1 104.55 88.9 111.85 87.2 121.0 88.45 123.25 90.2 125.25" fill="none" stroke="#000000" stroke-linecap="round" stroke-linejoin="round" stroke-opacity="0.3019608" stroke-width="0.05"/>
      <path d="M90.2 125.25 L90.3 125.35 Q93.05 128.85 90.65 130.2" fill="none" stroke="#000000" stroke-linecap="round" stroke-linejoin="round" stroke-opacity="0.15294118" stroke-width="0.05"/>
      <path d="M136.6 63.9 Q130.6 66.8 122.1 66.8 113.6 66.8 107.6 63.9 101.6 61.1 101.6 57.05 101.6 53.05 107.6 50.15 113.6 47.3 122.1 47.3 130.6 47.3 136.6 50.15 142.6 53.05 142.6 57.05 142.6 61.1 136.6 63.9" fill="#866d48" fill-rule="evenodd" stroke="none"/>
      <path d="M127.75 29.7 L128.3 16.9 Q127.65 -4.75 121.4 15.6 127.25 -18.7 134.55 22.4 L134.65 24.65 Q134.25 30.15 127.75 29.7 M121.25 67.75 Q126.15 68.5 128.0 65.7 130.35 61.8 126.75 57.9 L127.0 49.95 Q133.6 49.7 135.9 44.2 L136.35 50.1 136.4 50.35 Q137.9 55.45 141.95 54.25 146.15 66.05 132.8 68.35 126.65 69.45 121.25 67.75" fill="#d8d8bd" fill-rule="evenodd" stroke="none"/>
      <path d="M127.75 29.7 Q134.25 30.15 134.65 24.65 L135.9 44.2 Q133.6 49.7 127.0 49.95 L127.75 29.7" fill="#564533" fill-rule="evenodd" stroke="none"/>
      <path d="M121.4 15.6 Q127.65 -4.75 128.3 16.9 L127.75 29.7 Q124.5 29.5 119.7 27.7 L120.65 20.25 121.4 15.6 M116.8 48.0 Q122.85 50.0 127.0 49.95 L126.75 57.9 Q130.35 61.8 128.0 65.7 126.15 68.5 121.25 67.75 L115.8 66.95 Q110.75 66.1 105.4 62.85 115.9 55.45 116.65 48.95 L116.8 48.0" fill="#95815e" fill-rule="evenodd" stroke="none"/>
      <path d="M119.7 27.7 Q124.5 29.5 127.75 29.7 L127.0 49.95 Q122.85 50.0 116.8 48.0 L119.6 27.75 119.7 27.7" fill="#332716" fill-rule="evenodd" stroke="none"/>
      <path d="M119.7 27.7 Q124.5 29.5 127.75 29.7 134.25 30.15 134.65 24.65 L135.0 24.5 M116.8 48.0 Q122.85 50.0 127.0 49.95 133.6 49.7 135.9 44.2 M119.7 27.7 L119.6 27.75" fill="none" stroke="#000000" stroke-linecap="round" stroke-linejoin="round" stroke-opacity="0.15294118" stroke-width="0.05"/>
      <path d="M121.4 15.6 L120.65 20.25 119.7 27.7 M134.65 24.65 L134.55 22.4 Q127.25 -18.7 121.4 15.6 M135.9 44.2 L134.65 24.65 M119.6 27.75 L116.8 48.0 116.65 48.95 Q115.9 55.45 105.4 62.85 M135.9 44.2 L136.35 50.1 136.4 50.35 Q137.9 55.45 141.95 54.25" fill="none" stroke="#000000" stroke-linecap="round" stroke-linejoin="round" stroke-opacity="0.3019608" stroke-width="0.05"/>
      <path d="M127.3 30.6 Q126.85 30.9 126.75 31.65 125.95 37.4 126.15 47.0 L126.55 47.25 127.15 47.75 Q127.85 47.45 128.15 47.0 L128.6 45.7 129.15 39.05 Q129.45 32.6 128.1 30.3 127.55 30.4 127.3 30.6" fill="#d9bf95" fill-rule="evenodd" stroke="none"/>
      <path d="M94.65 109.3 Q94.4 109.15 94.3 109.15 93.35 103.15 88.85 104.55 L82.15 103.9 Q87.4 102.9 89.3 97.05 L89.75 96.95 Q92.65 96.55 96.7 99.1 L99.5 103.35 Q101.5 107.45 94.65 109.3 M73.3 103.2 L69.9 102.9 69.85 102.95 Q62.15 97.7 65.7 97.3 L78.55 97.15 Q78.8 100.55 73.3 103.2" fill="#95815e" fill-rule="evenodd" stroke="none"/>
      <path d="M82.95 87.5 L89.05 86.0 Q93.25 84.4 94.95 80.85 108.7 81.5 105.9 94.75 102.5 111.15 94.65 109.3 101.5 107.45 99.5 103.35 L96.7 99.1 Q92.65 96.55 89.75 96.95 L89.3 97.05 Q89.3 89.55 82.95 87.5 M69.85 102.95 Q52.9 95.4 72.45 90.2 L73.85 89.8 Q77.8 91.9 78.55 97.15 L65.7 97.3 Q62.15 97.7 69.85 102.95" fill="#d8d8bd" fill-rule="evenodd" stroke="none"/>
      <path d="M73.85 89.8 L82.95 87.5 Q89.3 89.55 89.3 97.05 L78.55 97.15 Q77.8 91.9 73.85 89.8" fill="#564533" fill-rule="evenodd" stroke="none"/>
      <path d="M82.15 103.9 L73.3 103.2 Q78.8 100.55 78.55 97.15 L89.3 97.05 Q87.4 102.9 82.15 103.9" fill="#332716" fill-rule="evenodd" stroke="none"/>
      <path d="M82.95 87.5 Q89.3 89.55 89.3 97.05 L89.75 96.95 M73.85 89.8 Q77.8 91.9 78.55 97.15 M89.3 97.05 Q87.4 102.9 82.15 103.9 M73.3 103.2 Q78.8 100.55 78.55 97.15" fill="none" stroke="#000000" stroke-linecap="round" stroke-linejoin="round" stroke-opacity="0.15294118" stroke-width="0.05"/>
      <path d="M82.95 87.5 L89.05 86.0 Q93.25 84.4 94.95 80.85 M94.65 109.3 Q94.4 109.15 94.3 109.15 93.35 103.15 88.85 104.55 L82.15 103.9 73.3 103.2 69.9 102.9 69.85 102.95 Q52.9 95.4 72.45 90.2 L73.85 89.8 82.95 87.5 Z" fill="none" stroke="#000000" stroke-linecap="round" stroke-linejoin="round" stroke-opacity="0.3019608" stroke-width="0.05"/>
      <path d="M86.25 94.0 Q85.85 92.9 83.75 92.85 81.55 92.85 79.2 94.05 L79.1 94.45 79.3 95.45 Q79.6 96.35 81.3 96.6 L84.95 96.15 86.35 95.4 86.35 95.05 Q86.5 94.7 86.25 94.0" fill="#d9bf95" fill-rule="evenodd" stroke="none"/>
      <path d="M126.75 128.5 L121.35 129.0 115.95 128.5 Q113.7 128.05 113.7 127.35 113.7 126.65 115.95 126.15 L121.35 125.7 126.75 126.15 Q129.0 126.65 129.0 127.35 129.0 128.05 126.75 128.5" fill="#42d9d9" fill-rule="evenodd" stroke="none"/>
      <path d="M173.2 104.0 Q172.75 104.75 172.1 104.75 171.5 104.75 171.05 104.0 170.6 103.3 170.6 102.25 170.6 101.15 171.05 100.4 171.5 99.7 172.1 99.7 172.75 99.7 173.2 100.4 173.65 101.15 173.65 102.25 173.65 103.3 173.2 104.0" fill="#42d9d9" fill-rule="evenodd" stroke="none"/>
      <path d="M142.85 60.3 Q141.1 57.2 142.9 57.2 L146.7 57.75 Q148.7 58.25 153.1 65.0 157.45 71.7 159.5 75.8 161.5 79.85 165.75 92.35 170.0 104.8 163.85 88.75 157.7 72.65 151.15 68.0 144.6 63.35 142.85 60.3" fill="#d9bf95" fill-rule="evenodd" stroke="none"/>
      <path d="M18.75 78.3 Q16.45 77.65 14.95 76.7 13.45 75.75 13.65 75.0 13.85 74.25 15.6 74.15 17.4 74.05 19.7 74.7 22.05 75.3 23.5 76.25 25.0 77.25 24.8 78.0 24.6 78.75 22.85 78.8 L18.75 78.3" fill="#42d9d9" fill-rule="evenodd" stroke="none"/>
    </g>
    <radialGradient cx="0" cy="0" gradientTransform="matrix(0.095, 0.0, 0.0, 0.095, 136.55, 70.25)" gradientUnits="userSpaceOnUse" id="gradient0" r="819.2" spreadMethod="pad">
      <stop offset="0.3607843137254902" stop-color="#d8d8bd"/>
      <stop offset="0.6588235294117647" stop-color="#876e49"/>
      <stop offset="1.0" stop-color="#979b83"/>
    </radialGradient>
    <g id="sprite2" transform="matrix(1.0, 0.0, 0.0, 1.0, 0.0, 0.0)">
      <use height="20.95" transform="matrix(1.0, 0.0, 0.0, 1.0, 0.0, 0.0)" width="24.45" xlink:href="#shape2"/>
    </g>
    <g id="shape2" transform="matrix(1.0, 0.0, 0.0, 1.0, 0.0, 0.0)">
      <path d="M15.1 9.15 Q16.95 9.5 18.1 11.15 L18.2 11.35 20.15 11.25 18.75 12.55 Q19.05 13.8 18.8 15.05 18.5 16.35 17.65 17.3 L19.1 20.95 16.55 18.25 Q14.8 19.3 12.8 18.85 10.8 18.35 9.75 16.65 9.05 15.5 8.95 14.3 7.75 12.4 4.95 11.55 L9.7 11.4 Q10.3 10.4 11.35 9.75 13.1 8.75 15.1 9.15 M14.85 11.4 Q13.8 11.15 12.9 11.65 12.1 12.2 11.8 13.2 11.6 14.2 12.1 15.1 12.65 15.9 13.65 16.2 14.65 16.4 15.55 15.9 16.4 15.3 16.6 14.35 16.85 13.3 16.25 12.45 15.8 11.6 14.85 11.4" fill="#ffffff" fill-opacity="0.1764706" fill-rule="evenodd" stroke="none"/>
      <path d="M14.85 11.4 Q15.8 11.6 16.25 12.45 16.85 13.3 16.6 14.35 16.4 15.3 15.55 15.9 14.65 16.4 13.65 16.2 12.65 15.9 12.1 15.1 11.6 14.2 11.8 13.2 12.1 12.2 12.9 11.65 13.8 11.15 14.85 11.4" fill="#ffffff" fill-opacity="0.5882353" fill-rule="evenodd" stroke="none"/>
      <path d="M14.25 12.25 L24.45 5.95 15.4 13.55 18.1 17.55 13.35 14.65 7.05 18.5 12.75 13.55 0.0 0.0 14.25 12.25" fill="#ffffff" fill-opacity="0.5882353" fill-rule="evenodd" stroke="none"/>
    </g>
    <g id="sprite3" transform="matrix(1.0, 0.0, 0.0, 1.0, 0.0, 0.0)">
      <use height="37.7" transform="matrix(1.0, 0.0, 0.0, 1.0, 0.0, 0.0)" width="37.7" xlink:href="#shape3"/>
    </g>
    <g id="shape3" transform="matrix(1.0, 0.0, 0.0, 1.0, 0.0, 0.0)">
      <path d="M32.15 32.15 Q26.65 37.7 18.85 37.7 11.05 37.7 5.5 32.15 0.0 26.65 0.0 18.85 0.0 11.05 5.5 5.5 11.05 0.0 18.85 0.0 26.65 0.0 32.15 5.5 37.7 11.05 37.7 18.85 37.7 26.65 32.15 32.15" fill="url(#gradient1)" fill-rule="evenodd" stroke="none"/>
    </g>
    <radialGradient cx="0" cy="0" gradientTransform="matrix(0.0244, 0.0, 0.0, 0.0244, 18.85, 18.85)" gradientUnits="userSpaceOnUse" id="gradient1" r="819.2" spreadMethod="pad">
      <stop offset="0.0" stop-color="#ffffcc"/>
      <stop offset="1.0" stop-color="#ffffcc" stop-opacity="0.0"/>
    </radialGradient>
    <g id="shape4" transform="matrix(1.0, 0.0, 0.0, 1.0, -2.4, -5.3)">
      <path d="M4.45 27.3 Q6.65 21.45 14.3 22.1 L14.5 22.15 18.7 22.9 22.75 25.55 23.6 26.05 25.3 24.95 21.6 22.95 19.25 21.9 15.55 20.7 15.5 20.7 15.2 18.95 15.5 17.75 15.7 17.35 16.05 16.5 16.35 15.45 16.5 15.1 Q18.4 10.45 24.25 11.35 L24.4 11.35 27.6 12.2 30.65 14.5 31.3 14.95 Q33.65 13.05 37.45 13.4 L37.7 13.45 38.05 11.25 38.3 9.75 38.45 8.85 Q39.8 2.1 40.9 10.35 L41.0 14.9 43.3 17.0 44.4 18.8 46.0 17.6 Q49.15 15.25 48.2 18.75 L48.15 18.75 46.1 21.9 45.85 22.15 46.1 22.85 46.3 22.85 46.45 22.85 Q46.85 22.9 47.1 23.25 L47.55 23.8 Q48.3 24.9 48.4 26.15 L48.4 26.5 48.25 27.8 48.25 27.85 Q47.75 29.55 45.7 30.95 L44.95 31.45 44.2 31.8 43.05 33.55 42.75 33.85 43.1 34.75 43.4 34.75 43.55 34.75 Q44.1 34.75 44.45 35.15 L45.0 35.8 Q46.05 37.1 46.25 38.6 L46.25 39.1 46.15 40.65 46.1 40.75 Q45.55 42.9 43.0 44.75 L42.0 45.4 Q39.15 46.95 35.45 47.4 L32.85 47.55 32.2 47.5 28.85 47.1 27.8 46.9 Q24.65 47.45 21.95 46.05 L20.65 44.55 20.6 44.55 20.6 44.45 Q19.65 43.05 19.65 41.5 L19.45 40.5 16.7 39.0 Q14.05 37.6 11.4 36.6 L8.25 35.5 3.4 34.25 3.35 34.25 2.9 32.1 Q3.0 31.3 3.25 30.6 L3.45 30.15 3.9 29.0 4.25 27.75 4.45 27.3 Z" fill="none" stroke="#000000" stroke-linecap="round" stroke-linejoin="round" stroke-opacity="0.3019608" stroke-width="1.0"/>
    </g>
  </defs>
</svg>
