<?xml version="1.0" encoding="UTF-8" standalone="no"?>
<svg xmlns:xlink="http://www.w3.org/1999/xlink" height="440.0px" width="440.0px" xmlns="http://www.w3.org/2000/svg">
  <g transform="matrix(10.0, 0.0, 0.0, 10.0, 0.0, 0.0)">
    <use height="44.0" transform="matrix(1.0, 0.0, 0.0, 1.0, 0.0, 0.0)" width="44.0" xlink:href="#shape0"/>
    <use height="27.8" transform="matrix(0.9907, 0.0, 0.0, 1.0376, 3.0324, 12.828)" width="39.2" xlink:href="#sprite0"/>
    <use height="14.35" transform="matrix(1.0, 0.0, 0.0, 1.0, 27.05, 1.65)" width="13.45" xlink:href="#shape2"/>
  </g>
  <defs>
    <g id="shape0" transform="matrix(1.0, 0.0, 0.0, 1.0, 0.0, 0.0)">
      <path d="M44.0 44.0 L0.0 44.0 0.0 0.0 44.0 0.0 44.0 44.0" fill="#43adca" fill-opacity="0.0" fill-rule="evenodd" stroke="none"/>
      <path d="M40.6 18.05 Q40.5 19.4 38.0 19.4 L35.55 19.0 34.9 18.9 34.9 16.9 35.15 14.35 34.75 13.8 34.75 13.75 34.85 13.7 35.35 13.65 35.4 13.65 Q37.35 13.7 38.95 14.9 L39.95 15.9 40.5 17.15 40.6 18.05 M41.6 18.05 Q41.6 15.7 39.55 14.1 37.65 12.65 35.35 12.65 L35.3 12.65 35.15 12.7 34.75 12.25 Q33.85 11.75 33.05 11.55 L33.15 11.55 33.45 11.55 33.5 11.55 34.35 11.45 34.7 11.4 Q37.25 11.1 38.4 10.25 40.15 8.95 40.45 7.35 40.75 5.95 39.85 4.75 39.3 3.9 38.1 3.7 L38.05 3.7 Q36.8 3.45 35.55 4.25 35.55 2.9 34.5 2.2 L34.3 2.05 Q33.45 1.55 32.8 1.65 31.85 1.7 31.15 2.9 30.4 4.05 30.95 6.3 L31.3 7.35 31.75 8.5 Q28.2 8.0 27.35 11.05 L24.65 11.9 20.5 8.95 Q17.45 6.65 14.7 6.65 13.0 6.65 11.1 8.0 L11.05 8.0 Q8.8 9.5 8.85 11.3 8.8 11.95 9.75 13.05 L10.5 13.85 10.5 13.9 Q11.55 14.9 12.75 15.35 L14.9 15.75 Q16.6 15.75 22.1 13.85 23.4 13.35 24.5 13.0 L24.8 13.2 26.7 14.4 26.75 14.4 26.65 15.25 26.5 15.4 26.45 15.4 25.4 16.7 24.85 17.25 23.1 18.4 23.0 18.4 22.95 18.4 22.9 18.45 22.7 18.45 22.25 18.5 22.2 18.5 21.9 18.5 21.85 18.5 20.15 18.6 20.05 18.55 20.0 18.6 17.95 18.75 17.35 18.85 Q16.85 18.95 16.45 19.15 L16.2 19.2 16.0 19.25 15.5 19.45 Q13.95 20.0 13.2 21.05 L12.8 21.55 Q12.4 22.2 12.25 23.0 12.05 23.95 11.4 24.5 L9.95 25.15 6.8 25.3 6.75 25.3 6.35 25.3 6.3 25.3 5.9 25.25 5.6 25.2 5.45 25.15 5.05 25.05 4.4 24.75 3.35 23.75 Q2.65 23.15 2.15 23.15 L2.1 23.15 2.05 23.15 1.35 23.35 Q1.05 23.55 1.15 23.95 L1.15 24.05 1.2 24.1 1.2 24.15 1.2 24.2 1.25 24.3 1.7 25.0 1.75 25.1 1.75 25.25 1.75 25.4 1.65 25.4 Q1.3 25.55 1.45 25.7 L1.7 26.1 2.25 26.8 2.45 26.9 2.75 26.9 2.9 27.15 3.0 27.8 2.95 27.85 2.75 27.85 2.45 28.05 2.15 28.1 Q1.8 28.2 1.6 28.4 1.35 28.6 1.35 28.9 L1.45 29.3 1.55 29.45 1.8 29.45 2.05 29.3 2.4 29.45 2.5 29.55 2.55 29.65 2.7 30.15 2.7 30.45 2.65 30.55 2.6 30.6 2.55 30.7 3.0 31.35 3.35 31.7 3.4 31.85 3.4 31.9 3.45 32.05 3.45 32.15 3.35 32.6 3.4 32.65 3.35 32.65 3.35 32.7 3.3 32.75 3.05 33.15 3.05 33.5 3.15 33.6 3.25 33.6 3.6 34.0 3.7 34.0 3.75 34.05 4.0 34.05 4.05 34.05 4.15 34.05 4.45 34.1 4.5 34.1 4.7 34.35 5.3 35.3 5.75 35.75 6.55 36.1 6.75 36.15 6.85 36.2 6.85 36.0 7.2 36.0 7.35 36.4 7.85 36.55 7.9 36.6 8.3 36.7 8.3 36.75 8.4 36.75 8.55 36.8 9.2 36.9 9.4 36.95 9.45 36.95 Q10.0 37.0 10.3 37.35 L10.35 37.4 10.4 37.45 Q10.65 37.65 10.95 37.7 L11.65 37.9 11.7 37.9 11.7 38.0 Q11.35 38.5 9.9 38.75 L8.85 38.85 9.55 39.5 9.75 39.6 10.3 39.5 11.0 39.7 11.35 40.3 11.35 40.5 11.9 40.75 11.85 40.75 11.8 40.75 11.9 40.75 12.2 40.85 13.0 41.2 Q13.2 40.85 13.45 40.85 L13.65 40.95 13.7 41.0 14.0 41.45 14.0 41.5 14.05 41.5 14.05 41.6 14.8 41.7 14.9 41.7 15.15 41.7 15.2 41.7 Q16.3 41.7 17.2 41.0 L16.9 40.5 17.1 40.4 17.45 40.6 17.5 40.6 17.6 40.65 17.6 40.55 17.9 40.2 18.25 39.8 18.4 39.6 18.45 39.55 19.15 38.7 19.2 38.7 19.35 38.75 19.5 38.8 19.55 38.85 20.05 39.0 20.8 39.05 21.35 39.55 21.4 39.55 21.45 39.5 21.5 39.5 21.55 39.55 21.7 39.4 22.2 39.75 22.45 40.0 22.5 40.0 22.55 40.05 22.55 40.1 22.65 40.1 23.45 40.3 23.75 40.4 24.1 40.55 25.1 40.9 25.3 40.9 25.7 40.75 26.4 41.3 26.5 41.3 26.5 41.35 26.6 41.35 26.65 41.35 27.0 41.45 27.25 41.45 Q28.05 41.45 28.2 40.2 L28.35 38.95 29.15 39.1 29.35 39.15 29.75 39.55 29.65 39.35 29.7 39.35 29.9 39.55 29.6 39.05 29.75 38.45 30.0 38.4 30.25 38.4 31.05 38.5 31.9 38.65 32.25 38.7 32.5 38.65 32.55 38.65 32.6 38.65 32.85 38.75 32.9 38.8 33.55 38.8 34.55 38.8 34.85 38.8 Q35.2 38.7 35.35 38.05 35.5 36.75 36.45 36.4 L36.45 35.65 36.45 35.6 36.5 35.55 36.65 35.1 Q36.85 34.8 37.9 34.8 L38.15 34.8 38.65 33.85 38.7 33.55 38.7 33.35 38.65 33.2 38.65 33.15 Q38.6 32.8 38.7 32.6 L38.9 32.45 39.5 32.8 40.1 33.1 40.5 33.3 41.5 33.5 41.95 33.5 41.75 31.9 41.65 31.5 41.9 31.5 41.85 30.65 41.05 29.65 40.95 29.55 39.25 27.9 39.05 27.7 37.3 25.8 36.0 23.55 35.7 22.4 35.65 22.2 35.65 22.0 35.6 21.85 35.6 21.6 35.55 21.55 35.2 20.6 35.15 20.45 35.1 20.15 35.05 19.95 35.35 20.0 38.0 20.4 Q40.0 20.4 40.9 19.7 41.65 19.1 41.6 18.05 M35.95 5.6 Q34.95 6.45 34.4 8.0 L33.75 9.7 33.65 10.1 34.5 10.05 36.6 9.6 37.55 9.1 Q38.8 8.15 39.1 7.1 L39.1 7.05 Q39.25 6.25 38.75 5.55 L38.35 5.25 37.8 5.1 Q36.9 4.9 35.95 5.6 M33.35 2.85 L32.9 2.7 Q32.4 2.8 32.05 3.45 31.8 3.9 31.8 4.55 31.8 5.55 32.3 6.95 L32.8 8.25 33.05 7.55 Q33.5 6.35 34.15 5.5 L34.25 5.25 Q34.8 3.7 33.75 3.0 L33.35 2.85 M29.1 10.95 Q29.7 10.15 30.75 10.05 29.85 10.3 29.3 11.0 L29.1 10.95 M28.7 11.9 L28.65 11.9 28.6 12.25 28.7 11.9 M23.4 12.3 L21.75 12.9 Q16.5 14.75 14.9 14.75 12.9 14.75 11.2 13.15 9.9 11.9 9.85 11.3 L9.9 10.9 Q10.15 9.8 11.65 8.85 L11.65 8.8 Q13.3 7.65 14.7 7.65 17.15 7.65 19.9 9.75 L23.15 12.15 23.4 12.3 M27.1 13.45 L26.15 12.9 25.7 12.6 25.75 12.6 Q26.55 12.3 27.15 12.15 L27.05 13.1 27.15 13.45 27.1 13.45" fill="none" stroke="#000000" stroke-linecap="round" stroke-linejoin="round" stroke-opacity="0.3019608" stroke-width="1.0"/>
      <path d="M11.1 8.0 L11.05 8.0 11.1 8.0" fill="#77a849" fill-opacity="0.3019608" fill-rule="evenodd" stroke="none"/>
      <path d="M33.6 18.65 L32.65 19.4 Q31.5 18.95 30.8 17.55 30.15 16.2 28.65 15.45 L24.8 13.2 24.5 13.0 23.4 12.3 23.15 12.15 19.9 9.75 Q17.15 7.65 14.7 7.65 13.3 7.65 11.65 8.8 L11.65 8.85 Q10.15 9.8 9.9 10.9 9.55 11.35 9.55 11.85 L9.75 13.05 Q8.8 11.95 8.85 11.3 8.8 9.5 11.05 8.0 L11.1 8.0 Q13.0 6.65 14.7 6.65 17.45 6.65 20.5 8.95 L24.65 11.9 25.75 12.6 25.7 12.6 26.15 12.9 29.1 14.55 Q30.95 15.5 31.7 17.1 32.25 18.2 33.15 18.55 L33.6 18.65 M40.9 19.7 L41.1 19.0 Q41.1 18.3 40.5 17.15 L39.95 15.9 38.95 14.9 Q37.35 13.7 35.4 13.65 L35.35 13.65 34.4 13.75 34.05 13.65 33.85 13.3 Q33.85 13.1 34.0 12.95 34.1 12.75 34.3 12.75 L35.3 12.65 35.35 12.65 Q37.65 12.65 39.55 14.1 41.6 15.7 41.6 18.05 41.65 19.1 40.9 19.7" fill="#77a849" fill-rule="evenodd" stroke="none"/>
      <path d="M33.6 18.65 L35.55 19.0 38.0 19.4 Q40.5 19.4 40.6 18.05 L40.5 17.15 Q41.1 18.3 41.1 19.0 L40.9 19.7 Q40.0 20.4 38.0 20.4 L35.35 20.0 32.9 19.5 32.85 19.5 32.65 19.4 33.6 18.65 M9.75 13.05 L9.55 11.85 Q9.55 11.35 9.9 10.9 L9.85 11.3 Q9.9 11.9 11.2 13.15 12.9 14.75 14.9 14.75 16.5 14.75 21.75 12.9 L23.4 12.3 24.5 13.0 Q23.4 13.35 22.1 13.85 16.6 15.75 14.9 15.75 L12.75 15.35 Q11.55 14.9 10.5 13.9 L10.5 13.85 9.75 13.05 M24.65 11.9 L28.15 10.9 29.75 11.1 Q30.65 11.35 31.2 12.15 L31.25 12.55 31.0 12.85 30.65 12.9 30.35 12.65 Q30.05 12.15 29.5 12.05 L29.45 12.05 28.15 11.9 25.75 12.6 24.65 11.9" fill="#537533" fill-rule="evenodd" stroke="none"/>
      <path d="M40.5 17.15 L40.6 18.05 Q40.5 19.4 38.0 19.4 L35.55 19.0 33.6 18.65 M32.65 19.4 L32.85 19.5 32.9 19.5 35.35 20.0 38.0 20.4 Q40.0 20.4 40.9 19.7 M39.95 15.9 L38.95 14.9 Q37.35 13.7 35.4 13.65 L35.35 13.65 34.4 13.75 34.05 13.65 33.85 13.3 Q33.85 13.1 34.0 12.95 34.1 12.75 34.3 12.75 L35.3 12.65 35.35 12.65 Q37.65 12.65 39.55 14.1 41.6 15.7 41.6 18.05 41.65 19.1 40.9 19.7 M24.65 11.9 L20.5 8.95 Q17.45 6.65 14.7 6.65 13.0 6.65 11.1 8.0 L11.05 8.0 Q8.8 9.5 8.85 11.3 8.8 11.95 9.75 13.05 L10.5 13.85 10.5 13.9 Q11.55 14.9 12.75 15.35 L14.9 15.75 Q16.6 15.75 22.1 13.85 23.4 13.35 24.5 13.0 L24.8 13.2 28.65 15.45 Q30.15 16.2 30.8 17.55 31.5 18.95 32.65 19.4 M9.9 10.9 Q10.15 9.8 11.65 8.85 L11.65 8.8 Q13.3 7.65 14.7 7.65 17.15 7.65 19.9 9.75 L23.15 12.15 23.4 12.3 24.5 13.0 M25.75 12.6 L28.15 11.9 29.45 12.05 29.5 12.05 Q30.05 12.15 30.35 12.65 L30.65 12.9 31.0 12.85 31.25 12.55 31.2 12.15 Q30.65 11.35 29.75 11.1 L28.15 10.9 24.65 11.9 25.75 12.6 26.15 12.9 29.1 14.55 Q30.95 15.5 31.7 17.1 32.25 18.2 33.15 18.55 L33.6 18.65 M26.15 12.9 L25.7 12.6 25.75 12.6 M23.4 12.3 L21.75 12.9 Q16.5 14.75 14.9 14.75 12.9 14.75 11.2 13.15 9.9 11.9 9.85 11.3 L9.9 10.9" fill="none" stroke="#000000" stroke-linecap="round" stroke-linejoin="round" stroke-opacity="0.3019608" stroke-width="0.05"/>
      <path d="M26.7 15.25 Q26.65 16.9 25.2 17.95 L23.85 18.85 23.15 18.4 Q24.05 18.05 24.95 17.25 L26.6 15.4 26.7 15.25 M22.7 18.45 L23.5 19.1 23.15 19.45 22.75 19.75 21.3 20.7 20.15 18.6 21.9 18.5 22.25 18.5 22.7 18.45 M20.0 18.6 L20.25 19.2 20.95 20.85 20.1 21.05 19.65 21.1 Q19.0 21.05 18.5 20.3 L17.45 19.0 17.35 18.85 20.0 18.6 M16.15 19.25 L17.0 19.6 18.05 20.45 19.25 21.2 15.9 21.6 Q15.15 21.65 14.6 22.0 L13.3 21.05 Q14.15 19.8 16.15 19.25 M12.85 21.5 L14.1 22.25 13.4 23.15 Q12.5 25.4 11.8 25.95 L10.3 27.35 9.7 28.25 9.0 26.95 Q8.75 26.4 7.95 25.8 7.15 25.3 6.8 25.3 L8.5 25.3 Q11.8 25.3 12.35 22.95 12.45 22.2 12.85 21.5 M6.35 25.3 Q8.5 26.35 9.45 28.3 L8.65 28.6 Q8.4 28.65 7.05 29.6 L6.05 29.9 6.05 28.65 Q5.8 26.95 5.0 26.4 L4.15 25.95 4.05 25.95 4.6 26.4 5.1 27.05 6.0 29.9 5.05 29.9 3.2 29.45 1.55 29.25 Q1.15 28.4 2.15 28.1 L2.85 27.85 3.05 27.75 3.0 27.1 2.85 26.9 2.5 26.9 2.3 26.75 1.5 25.65 Q1.4 25.55 1.75 25.4 L1.8 25.4 1.7 25.0 1.3 24.25 Q0.85 23.15 2.15 23.15 2.65 23.15 3.35 23.75 L4.4 24.75 6.3 25.3 6.35 25.3 M2.6 29.55 L5.4 30.1 5.9 30.1 6.35 31.85 7.0 33.5 7.85 34.5 8.55 35.45 8.65 35.55 7.45 33.35 Q7.0 32.75 6.75 31.65 L6.3 30.05 Q7.65 29.7 9.6 28.55 L9.7 30.65 10.4 32.05 10.55 31.8 10.25 30.4 10.1 28.2 13.0 25.6 13.55 24.15 Q13.75 23.15 14.1 22.8 L14.35 22.65 15.25 22.05 Q16.25 21.6 16.65 21.6 L18.1 21.8 19.95 21.65 21.25 21.3 22.05 24.85 22.1 27.15 22.75 26.5 22.85 25.45 22.25 23.1 21.55 21.25 23.25 20.15 23.55 19.95 23.95 19.7 Q25.5 21.85 25.4 23.6 L25.5 23.5 25.8 23.1 25.3 21.45 24.4 19.35 Q25.95 18.05 26.7 18.05 L28.0 18.45 29.05 19.25 29.25 19.55 29.7 21.2 Q29.1 21.2 28.9 21.65 L29.3 21.65 Q29.4 21.4 29.75 21.3 L30.3 22.65 29.8 24.4 28.4 24.3 Q27.95 24.3 27.35 24.9 L26.7 25.6 Q28.3 24.75 29.65 24.75 L27.35 29.25 26.2 29.15 25.2 29.2 24.75 29.35 25.9 29.7 26.95 29.95 26.05 31.5 25.75 32.15 25.6 32.25 24.3 32.05 23.05 32.15 25.3 32.55 22.35 34.8 21.75 34.85 20.2 34.5 19.2 34.65 18.75 35.55 Q17.95 36.95 18.05 37.75 L18.6 36.5 Q18.6 36.15 19.1 35.6 19.75 34.9 20.4 34.9 L21.8 35.1 20.85 35.6 Q18.8 36.85 18.65 38.65 L18.15 38.85 Q17.5 39.2 17.6 40.55 L17.6 40.65 17.1 40.4 16.9 40.5 17.2 41.0 Q16.3 41.7 15.2 41.7 L14.05 41.6 14.05 41.5 13.45 40.85 Q13.2 40.85 13.0 41.2 L11.95 40.75 11.35 40.5 11.35 40.3 Q11.2 39.5 10.3 39.5 L9.75 39.6 9.55 39.5 8.85 38.85 Q11.2 38.65 11.7 38.0 L11.7 37.9 11.05 37.7 10.4 37.45 Q10.1 37.05 9.55 36.95 L8.45 36.75 8.4 36.75 8.3 36.7 7.4 36.4 7.3 36.0 6.85 36.0 6.85 36.2 5.9 35.8 5.4 35.35 4.9 34.45 Q4.65 34.05 4.15 34.05 L3.75 34.05 3.15 33.5 Q3.0 33.15 3.35 32.75 L3.4 32.6 3.5 32.15 3.5 32.0 3.1 31.3 2.65 30.7 2.7 30.55 2.8 30.1 2.6 29.55 M18.95 38.65 Q19.1 37.9 19.75 37.3 L21.3 35.95 22.25 35.05 22.85 36.2 23.9 37.2 Q25.35 38.05 25.45 38.85 25.55 39.25 25.25 39.7 24.95 40.15 25.0 40.5 L25.15 40.9 22.65 40.1 22.55 40.1 21.75 39.4 21.55 39.55 20.95 39.05 20.1 39.0 19.55 38.85 19.2 38.7 18.95 38.65 M25.3 40.9 Q25.3 40.2 25.6 39.75 26.0 39.2 25.9 38.45 25.85 37.9 25.15 37.45 L24.2 36.75 23.3 36.05 22.45 34.9 25.7 32.6 Q26.95 33.35 27.15 34.85 L27.15 36.6 Q27.25 37.2 27.9 37.7 28.6 38.2 29.25 38.2 L29.05 37.85 29.0 37.65 Q27.8 37.2 27.45 35.35 27.0 33.2 25.9 32.45 L26.5 31.5 27.55 29.95 28.25 31.45 28.35 31.5 29.2 32.8 29.35 32.6 28.7 31.5 27.65 29.75 28.7 27.85 30.15 25.0 30.95 26.4 31.2 27.15 31.65 27.5 31.75 27.25 31.85 27.25 31.45 26.8 Q31.15 26.55 31.15 25.8 30.95 24.7 30.35 24.5 L30.85 23.25 30.4 21.4 Q31.55 21.65 32.55 22.65 L33.1 23.5 33.0 22.9 Q31.35 21.1 30.3 21.05 L30.1 19.55 Q30.8 18.8 31.05 18.8 L31.3 18.85 32.45 19.7 33.25 21.1 32.8 21.6 32.95 22.05 33.6 21.75 Q34.8 24.25 35.0 25.6 L35.05 27.7 33.7 26.75 32.8 25.9 32.6 26.35 32.6 26.5 33.95 27.5 35.0 28.05 Q34.85 29.55 34.0 30.9 L33.65 31.5 33.6 31.8 33.3 31.5 Q31.4 30.1 30.2 30.3 L30.05 30.55 31.05 30.55 Q31.9 31.2 32.7 31.5 L33.55 31.85 Q32.7 33.75 32.9 35.25 L32.95 35.6 31.5 35.25 29.95 34.85 Q29.5 34.85 29.25 35.2 L28.7 35.65 28.65 36.05 29.45 35.45 30.05 35.1 Q30.75 35.1 31.65 35.55 L33.2 36.35 33.75 37.35 33.85 37.35 33.3 35.95 34.7 35.45 35.55 35.35 36.2 35.45 36.45 35.65 36.45 36.4 Q35.5 36.75 35.35 38.05 35.2 38.7 34.85 38.8 L34.55 38.8 33.55 38.8 32.9 38.8 Q32.75 38.65 32.6 38.65 L32.25 38.7 31.9 38.65 30.25 38.4 29.75 38.45 29.6 39.05 29.9 39.55 Q29.3 38.95 28.35 38.95 L28.2 40.2 Q28.05 41.45 27.25 41.45 L27.0 41.45 26.5 41.35 25.75 40.75 25.3 40.9 M36.5 35.55 L36.45 35.45 Q36.15 35.1 35.4 35.1 35.05 35.1 34.6 35.4 L33.25 35.65 Q33.1 34.5 34.0 32.05 35.75 32.0 36.6 32.8 L37.9 34.8 Q36.85 34.8 36.65 35.1 L36.5 35.55 M38.15 34.8 Q37.9 33.5 36.8 32.6 35.65 31.65 34.15 31.7 L34.15 31.5 34.5 30.75 35.4 28.1 35.5 27.85 36.15 27.85 Q36.7 27.75 37.2 28.45 37.85 29.25 37.75 30.35 37.65 30.75 38.0 31.5 L38.15 31.85 38.7 33.35 38.65 33.85 38.15 34.8 M38.7 32.6 L38.45 31.5 Q38.3 30.9 38.3 30.3 38.25 29.05 37.8 28.45 L36.65 27.35 35.55 27.35 35.65 26.15 Q35.35 24.05 34.55 22.2 L34.5 22.0 35.25 22.05 35.65 22.2 35.7 22.4 36.0 23.55 Q36.95 25.8 39.3 28.0 41.6 29.95 41.85 30.65 L41.9 31.5 41.65 31.5 41.75 31.9 41.95 33.5 41.5 33.5 40.8 32.6 Q40.3 32.15 39.9 32.15 39.5 32.15 39.45 32.35 L39.3 32.35 38.95 32.45 38.7 32.6 M35.6 21.6 L34.2 21.4 34.15 21.4 34.15 21.3 Q33.2 19.7 32.45 19.35 L32.4 18.95 32.85 18.95 33.85 19.45 35.15 20.45 35.2 20.6 35.6 21.6 M19.1 26.9 L18.65 29.05 18.9 29.0 20.15 26.15 Q20.9 23.95 19.95 21.65 L19.9 23.7 Q20.0 24.7 19.75 25.3 L19.1 26.9 M14.8 27.65 Q15.3 26.8 15.05 25.1 L14.4 23.1 14.65 25.8 Q14.25 28.45 13.75 29.45 13.55 29.45 13.45 29.55 L13.2 29.6 14.95 29.75 Q16.0 30.75 17.4 30.85 L19.95 31.1 22.35 30.65 22.35 30.55 23.3 30.0 Q21.1 30.9 19.15 30.9 L16.8 30.4 Q15.45 29.75 14.5 29.4 L13.9 29.45 14.8 27.65 M21.85 27.3 L21.45 27.7 23.45 27.9 Q24.45 27.9 25.15 27.05 25.55 26.6 25.9 26.4 25.0 26.25 24.6 26.75 24.15 27.5 23.5 27.5 L22.35 27.25 21.9 27.25 21.85 27.3 M17.55 33.5 L18.1 33.7 18.85 33.85 19.75 33.75 19.75 33.7 17.6 33.2 Q17.15 33.2 16.5 34.25 15.85 35.35 14.75 35.35 L13.0 34.85 10.7 34.05 10.65 34.3 13.0 35.1 15.25 35.8 Q15.95 35.8 16.5 34.65 17.05 33.5 17.55 33.5 M23.7 29.55 L23.45 29.9 Q23.9 29.6 24.05 29.55 L24.6 29.4 24.65 29.4 24.6 29.35 23.7 29.55 M23.05 32.15 L22.75 32.15 Q21.85 32.15 21.6 32.55 L21.45 32.75 Q22.1 32.25 23.05 32.15 M12.65 37.9 L12.55 38.0 Q14.6 39.25 15.0 39.25 15.6 39.25 16.35 38.6 17.0 37.9 18.05 37.9 17.65 37.65 17.15 37.65 L16.2 38.25 Q15.25 38.85 14.5 38.85 14.0 38.85 13.5 38.45 L12.65 37.9 M27.15 23.85 L26.45 24.05 25.15 23.85 24.7 24.3 26.25 24.7 27.2 24.25 Q27.75 23.75 28.3 23.6 L28.2 23.6 27.8 23.55 Q27.5 23.55 27.15 23.85" fill="#b9cf46" fill-rule="evenodd" stroke="none"/>
      <path d="M19.1 26.9 L19.75 25.3 Q20.0 24.7 19.9 23.7 L19.95 21.65 Q20.9 23.95 20.15 26.15 L18.9 29.0 18.65 29.05 19.1 26.9 M21.85 27.3 L21.9 27.25 22.35 27.25 23.5 27.5 Q24.15 27.5 24.6 26.75 25.0 26.25 25.9 26.4 25.55 26.6 25.15 27.05 24.45 27.9 23.45 27.9 L21.45 27.7 21.85 27.3 M14.8 27.65 L13.9 29.45 14.5 29.4 Q15.45 29.75 16.8 30.4 L19.15 30.9 Q21.1 30.9 23.3 30.0 L22.35 30.55 22.35 30.65 19.95 31.1 17.4 30.85 Q16.0 30.75 14.95 29.75 L13.2 29.6 13.45 29.55 Q13.55 29.45 13.75 29.45 14.25 28.45 14.65 25.8 L14.4 23.1 15.05 25.1 Q15.3 26.8 14.8 27.65 M17.55 33.5 Q17.05 33.5 16.5 34.65 15.95 35.8 15.25 35.8 L13.0 35.1 10.65 34.3 10.7 34.05 13.0 34.85 14.75 35.35 Q15.85 35.35 16.5 34.25 17.15 33.2 17.6 33.2 L19.75 33.7 19.75 33.75 18.85 33.85 18.1 33.7 17.55 33.5 M23.7 29.55 L24.6 29.35 24.65 29.4 24.6 29.4 24.05 29.55 Q23.9 29.6 23.45 29.9 L23.7 29.55 M23.05 32.15 Q22.1 32.25 21.45 32.75 L21.6 32.55 Q21.85 32.15 22.75 32.15 L23.05 32.15 M12.65 37.9 L13.5 38.45 Q14.0 38.85 14.5 38.85 15.25 38.85 16.2 38.25 L17.15 37.65 Q17.65 37.65 18.05 37.9 17.0 37.9 16.35 38.6 15.6 39.25 15.0 39.25 14.6 39.25 12.55 38.0 L12.65 37.9 M27.15 23.85 Q27.5 23.55 27.8 23.55 L28.2 23.6 28.3 23.6 Q27.75 23.75 27.2 24.25 L26.25 24.7 24.7 24.3 25.15 23.85 26.45 24.05 27.15 23.85" fill="#e2e8a8" fill-rule="evenodd" stroke="none"/>
      <path d="M18.65 38.65 L18.8 38.65 18.95 38.65 19.2 38.7 19.15 38.7 17.9 40.2 17.6 40.55 Q17.5 39.2 18.15 38.85 L18.65 38.65 M41.5 33.5 Q40.7 33.5 39.6 32.8 L38.95 32.45 39.3 32.35 39.45 32.35 Q39.5 32.15 39.9 32.15 40.3 32.15 40.8 32.6 L41.5 33.5" fill="#4d7c03" fill-rule="evenodd" stroke="none"/>
      <path d="M26.7 15.25 L26.85 14.3 Q26.8 13.55 27.5 13.2 27.7 12.95 28.75 12.75 L29.45 12.55 30.55 12.4 32.05 12.55 33.35 12.95 Q34.75 13.5 35.15 14.35 L34.9 16.9 Q34.8 18.95 35.1 20.15 L35.15 20.45 33.85 19.45 32.85 18.95 32.4 18.95 32.45 19.35 Q33.2 19.7 34.15 21.3 L34.15 21.4 34.2 21.4 35.6 21.6 35.6 21.85 35.65 22.0 35.65 22.2 35.25 22.05 34.5 22.0 34.55 22.2 Q35.35 24.05 35.65 26.15 L35.55 27.35 36.65 27.35 37.8 28.45 Q38.25 29.05 38.3 30.3 38.3 30.9 38.45 31.5 L38.7 32.6 Q38.6 32.8 38.65 33.2 L38.7 33.35 38.15 31.85 38.0 31.5 Q37.65 30.75 37.75 30.35 37.85 29.25 37.2 28.45 36.7 27.75 36.15 27.85 L35.5 27.85 35.4 28.1 34.5 30.75 34.15 31.5 34.15 31.7 Q35.65 31.65 36.8 32.6 37.9 33.5 38.15 34.8 L37.9 34.8 36.6 32.8 Q35.75 32.0 34.0 32.05 33.1 34.5 33.25 35.65 L34.6 35.4 Q35.05 35.1 35.4 35.1 36.15 35.1 36.45 35.45 L36.5 35.55 36.45 35.6 36.45 35.65 36.2 35.45 35.55 35.35 34.7 35.45 33.3 35.95 33.85 37.35 33.75 37.35 33.2 36.35 31.65 35.55 Q30.75 35.1 30.05 35.1 L29.45 35.45 28.65 36.05 28.7 35.65 29.25 35.2 Q29.5 34.85 29.95 34.85 L31.5 35.25 32.95 35.6 32.9 35.25 Q32.7 33.75 33.55 31.85 L32.7 31.5 Q31.9 31.2 31.05 30.55 L30.05 30.55 30.2 30.3 Q31.4 30.1 33.3 31.5 L33.6 31.8 33.65 31.5 34.0 30.9 Q34.85 29.55 35.0 28.05 L33.95 27.5 32.6 26.5 32.6 26.35 32.8 25.9 33.7 26.75 35.05 27.7 35.0 25.6 Q34.8 24.25 33.6 21.75 L32.95 22.05 32.8 21.6 33.25 21.1 32.45 19.7 31.3 18.85 31.05 18.8 Q30.8 18.8 30.1 19.55 L30.3 21.05 Q31.35 21.1 33.0 22.9 L33.1 23.5 32.55 22.65 Q31.55 21.65 30.4 21.4 L30.85 23.25 30.35 24.5 Q30.95 24.7 31.15 25.8 31.15 26.55 31.45 26.8 L31.85 27.25 31.75 27.25 31.65 27.5 31.2 27.15 30.95 26.4 30.15 25.0 28.7 27.85 27.65 29.75 28.7 31.5 29.35 32.6 29.2 32.8 28.35 31.5 28.25 31.45 27.55 29.95 26.5 31.5 25.9 32.45 Q27.0 33.2 27.45 35.35 27.8 37.2 29.0 37.65 L29.05 37.85 29.25 38.2 Q28.6 38.2 27.9 37.7 27.25 37.2 27.15 36.6 L27.15 34.85 Q26.95 33.35 25.7 32.6 L22.45 34.9 23.3 36.05 24.2 36.75 25.15 37.45 Q25.85 37.9 25.9 38.45 26.0 39.2 25.6 39.75 25.3 40.2 25.3 40.9 L25.15 40.9 25.0 40.5 Q24.95 40.15 25.25 39.7 25.55 39.25 25.45 38.85 25.35 38.05 23.9 37.2 L22.85 36.2 22.25 35.05 21.3 35.95 19.75 37.3 Q19.1 37.9 18.95 38.65 L18.8 38.65 18.65 38.65 Q18.8 36.85 20.85 35.6 L21.8 35.1 20.4 34.9 Q19.75 34.9 19.1 35.6 18.6 36.15 18.6 36.5 L18.05 37.75 Q17.95 36.95 18.75 35.55 L19.2 34.65 20.2 34.5 21.75 34.85 22.35 34.8 25.3 32.55 23.05 32.15 24.3 32.05 25.6 32.25 25.75 32.15 26.05 31.5 26.95 29.95 25.9 29.7 24.75 29.35 25.2 29.2 26.2 29.15 27.35 29.25 29.65 24.75 Q28.3 24.75 26.7 25.6 L27.35 24.9 Q27.95 24.3 28.4 24.3 L29.8 24.4 30.3 22.65 29.75 21.3 Q29.4 21.4 29.3 21.65 L28.9 21.65 Q29.1 21.2 29.7 21.2 L29.25 19.55 29.05 19.25 28.0 18.45 26.7 18.05 Q25.95 18.05 24.4 19.35 L25.3 21.45 25.8 23.1 25.5 23.5 25.4 23.6 Q25.5 21.85 23.95 19.7 L23.55 19.95 23.25 20.15 21.55 21.25 22.25 23.1 22.85 25.45 22.75 26.5 22.1 27.15 22.05 24.85 21.25 21.3 19.95 21.65 18.1 21.8 16.65 21.6 Q16.25 21.6 15.25 22.05 L14.35 22.65 14.1 22.8 Q13.75 23.15 13.55 24.15 L13.0 25.6 10.1 28.2 10.25 30.4 10.55 31.8 10.4 32.05 9.7 30.65 9.6 28.55 Q7.65 29.7 6.3 30.05 L6.75 31.65 Q7.0 32.75 7.45 33.35 L8.65 35.55 8.55 35.45 7.85 34.5 7.0 33.5 6.35 31.85 5.9 30.1 5.4 30.1 2.6 29.55 2.1 29.25 1.85 29.4 1.6 29.4 1.55 29.25 3.2 29.45 5.05 29.9 6.0 29.9 5.1 27.05 4.6 26.4 4.05 25.95 4.15 25.95 5.0 26.4 Q5.8 26.95 6.05 28.65 L6.05 29.9 7.05 29.6 Q8.4 28.65 8.65 28.6 L9.45 28.3 Q8.5 26.35 6.35 25.3 L6.8 25.3 Q7.15 25.3 7.95 25.8 8.75 26.4 9.0 26.95 L9.7 28.25 10.3 27.35 11.8 25.95 Q12.5 25.4 13.4 23.15 L14.1 22.25 12.85 21.5 13.3 21.05 14.6 22.0 Q15.15 21.65 15.9 21.6 L19.25 21.2 18.05 20.45 17.0 19.6 16.15 19.25 Q16.65 19.0 17.35 18.85 L17.45 19.0 18.5 20.3 Q19.0 21.05 19.65 21.1 L20.1 21.05 20.95 20.85 20.25 19.2 20.0 18.6 20.15 18.6 21.3 20.7 22.75 19.75 23.15 19.45 23.5 19.1 22.7 18.45 23.0 18.4 23.15 18.4 23.85 18.85 25.2 17.95 Q26.65 16.9 26.7 15.25" fill="#f7ffba" fill-rule="evenodd" stroke="none"/>
      <path d="M29.4 12.5 L28.7 12.7 Q27.65 12.95 27.45 13.2 26.75 13.55 26.75 14.3 L26.65 15.25 26.5 15.35 24.85 17.2 23.1 18.35 22.9 18.35 22.6 18.45 22.2 18.5 21.85 18.5 20.1 18.6 19.95 18.6 17.3 18.85 16.05 19.25 Q14.1 19.8 13.2 21.0 L12.75 21.5 Q12.35 22.15 12.2 22.95 11.7 25.3 8.45 25.3 L6.75 25.3 6.3 25.3 6.2 25.3 4.35 24.75 3.25 23.75 Q2.55 23.15 2.05 23.15 0.8 23.15 1.2 24.2 L1.65 24.95 1.7 25.4 1.6 25.4 1.4 25.65 2.25 26.75 2.45 26.85 2.8 26.85 2.95 27.75 2.7 27.8 Q2.5 28.05 2.1 28.1 1.05 28.35 1.45 29.25 L1.55 29.4 1.8 29.4 2.05 29.25 2.45 29.55 2.75 30.1 2.6 30.55 2.6 30.7 3.0 31.3 3.4 31.95 3.45 32.1 3.35 32.6 3.3 32.75 Q2.95 33.1 3.05 33.45 L3.6 34.0 4.05 34.0 Q4.55 34.0 4.75 34.4 L5.35 35.3 5.8 35.8 6.75 36.2 Q6.7 36.05 6.8 36.0 L7.2 36.0 7.35 36.4 8.25 36.65 8.3 36.75 8.4 36.75 9.45 36.95 Q10.05 37.0 10.35 37.4 10.65 37.7 11.0 37.7 L11.7 37.9 11.7 37.95 Q11.15 38.65 8.8 38.85 L9.45 39.45 9.7 39.6 10.25 39.45 Q11.15 39.45 11.25 40.25 L11.3 40.5 11.9 40.75 12.95 41.15 13.4 40.8 14.0 41.5 14.0 41.55 15.15 41.7 Q16.2 41.7 17.15 40.95 L16.85 40.5 17.05 40.4 17.45 40.6 17.55 40.55 17.85 40.2 19.05 38.7 19.5 38.85 20.05 39.0 20.85 39.05 21.4 39.55 21.65 39.4 Q22.0 39.4 22.45 40.05 L22.55 40.05 25.1 40.9 25.25 40.9 25.65 40.75 26.45 41.35 26.95 41.4 27.2 41.4 Q28.0 41.4 28.1 40.2 L28.3 38.9 Q29.2 38.9 29.75 39.55 L29.55 39.05 29.7 38.45 30.2 38.4 31.85 38.65 32.2 38.7 32.5 38.65 32.85 38.75 33.45 38.75 34.45 38.75 34.8 38.75 Q35.15 38.7 35.3 38.05 35.45 36.75 36.4 36.4 36.25 36.1 36.35 35.65 L36.35 35.6 36.45 35.5 36.55 35.1 Q36.75 34.75 37.85 34.75 L38.1 34.75 38.55 33.8 38.55 33.35 38.55 33.2 38.65 32.6 Q38.7 32.45 38.9 32.45 L39.5 32.8 Q40.6 33.45 41.45 33.45 L41.85 33.45 41.7 31.9 41.55 31.5 41.8 31.5 41.8 30.6 Q41.55 29.95 39.25 27.95 36.9 25.8 35.95 23.55 L35.65 22.4 35.6 22.15 35.55 21.95 35.55 21.85 35.5 21.55 35.15 20.6 35.1 20.4 35.05 20.15 Q34.7 18.9 34.85 16.85 L35.05 14.35 Q34.65 13.5 33.25 12.95 32.7 12.65 32.0 12.5 L30.45 12.4 29.4 12.5 Z" fill="none" stroke="#000000" stroke-linecap="round" stroke-linejoin="round" stroke-opacity="0.3019608" stroke-width="0.05"/>
      <path d="M6.2 25.35 L6.3 25.35 6.8 25.35 8.45 25.35 Q11.75 25.35 12.25 23.0 12.4 22.2 12.8 21.55 L13.2 21.05 Q14.1 19.85 16.0 19.25 L17.3 18.9 19.9 18.65 20.05 18.65 21.8 18.55 22.1 18.55 22.6 18.5 22.95 18.4 23.1 18.4 24.85 17.25 26.45 15.4 26.65 15.25 26.75 14.35 Q26.7 13.6 27.4 13.25 27.6 12.95 28.7 12.75 L28.85 12.75 Q26.85 19.15 21.55 24.35 14.05 31.7 3.15 33.6 L3.05 33.5 Q2.9 33.15 3.3 32.8 L3.35 32.65 3.45 32.15 3.45 32.0 3.0 31.35 2.55 30.7 2.65 30.55 2.7 30.15 2.5 29.55 2.05 29.3 1.8 29.45 1.55 29.45 1.45 29.3 Q1.05 28.45 2.15 28.15 L2.75 27.85 3.0 27.8 2.9 27.15 2.75 26.9 2.45 26.9 2.25 26.8 1.45 25.7 Q1.3 25.55 1.65 25.4 L1.75 25.4 1.7 25.0 1.25 24.3 Q0.75 23.2 2.1 23.2 2.6 23.2 3.2 23.8 L4.3 24.8 6.2 25.35" fill="url(#gradient0)" fill-rule="evenodd" stroke="none"/>
    </g>
    <radialGradient cx="0" cy="0" gradientTransform="matrix(0.0486, 0.0, 0.006, 0.0419, -9.45, 0.5)" gradientUnits="userSpaceOnUse" id="gradient0" r="819.2" spreadMethod="pad">
      <stop offset="0.0" stop-color="#ffee69" stop-opacity="0.8"/>
      <stop offset="1.0" stop-color="#fef18a" stop-opacity="0.0"/>
    </radialGradient>
    <g id="sprite0" transform="matrix(1.0, 0.0, 0.0, 1.0, 19.6, 13.9)">
      <use height="27.8" transform="matrix(1.0, 0.0, 0.0, 1.0, -19.6, -13.9)" width="39.2" xlink:href="#shape1"/>
    </g>
    <g id="shape1" transform="matrix(1.0, 0.0, 0.0, 1.0, 19.6, 13.9)">
      <path d="M10.9 -13.8 Q12.3 -13.25 12.7 -12.45 L12.5 -10.05 Q12.35 -8.05 12.7 -6.85 L12.75 -6.6 12.75 -6.5 12.8 -6.45 13.15 -5.5 13.2 -5.2 13.2 -5.15 13.25 -4.95 13.3 -4.7 13.6 -3.6 Q14.55 -1.4 16.95 0.65 L19.5 3.2 19.5 4.1 19.25 4.1 19.4 4.45 19.55 5.95 19.15 5.95 Q18.3 5.95 17.2 5.35 L16.6 5.0 16.35 5.15 16.25 5.7 16.25 5.85 16.25 6.3 15.75 7.2 15.5 7.2 Q14.4 7.2 14.2 7.55 L14.1 7.95 14.0 8.05 14.0 8.1 14.05 8.8 Q13.1 9.15 12.95 10.4 12.8 11.0 12.45 11.05 L12.1 11.05 11.7 11.05 Q11.1 10.25 10.9 9.0 10.55 6.85 11.85 3.9 12.95 1.0 12.7 -0.8 12.3 -3.4 10.7 -6.15 9.15 -8.5 9.1 -8.95 8.95 -9.95 10.7 -13.9 L10.9 -13.8 M9.6 -7.0 L10.3 -5.5 10.5 -5.05 10.65 -4.35 10.6 -4.25 10.7 -3.7 10.9 -2.8 10.15 -0.95 10.1 -0.8 9.4 -0.05 9.3 -0.05 9.15 0.2 Q8.65 0.6 8.55 1.05 L7.7 2.85 7.6 3.15 7.2 4.1 6.85 5.0 6.85 5.15 6.75 5.35 Q6.2 6.8 6.25 8.1 L6.2 8.45 6.55 9.95 6.55 10.2 7.35 11.85 Q6.8 11.2 5.9 11.2 L5.7 12.45 Q5.6 13.6 4.75 13.6 L4.5 13.6 4.0 13.55 3.2 13.0 2.8 13.15 2.65 13.15 0.1 12.3 0.0 12.3 -0.85 11.7 -1.1 11.85 -1.65 11.35 -2.45 11.3 -3.0 11.15 Q-3.25 11.0 -3.45 11.0 -3.45 10.25 -2.8 9.6 L-1.25 8.3 -0.3 7.5 -0.05 7.35 3.2 5.15 3.35 5.0 3.95 4.1 5.0 2.6 5.15 2.4 6.15 0.5 7.7 -2.25 7.9 -2.65 8.35 -3.9 7.95 -5.7 Q7.8 -5.9 7.8 -6.05 L7.55 -7.5 Q7.7 -10.7 8.85 -8.1 L9.45 -7.35 9.6 -7.0 M6.5 -7.05 L6.6 -6.15 Q6.35 -4.8 5.2 -3.15 L3.5 -0.5 1.45 2.25 -0.8 4.8 -3.0 7.3 Q-4.25 8.45 -4.1 10.5 L-4.1 11.9 -4.65 12.45 -4.95 12.8 -5.05 12.85 -5.45 12.65 -5.7 12.75 -5.35 13.2 Q-6.35 13.9 -7.4 13.9 L-8.55 13.75 -8.55 13.7 -9.15 13.05 -9.6 13.4 -10.65 13.0 -10.75 13.0 Q-9.7 12.65 -9.05 11.6 -8.5 10.85 -8.1 9.5 -7.9 8.8 -7.95 7.7 L-7.95 6.2 Q-7.7 5.4 -6.7 5.0 L-4.8 4.05 -2.7 3.75 Q-2.1 3.75 -1.65 3.05 L1.05 0.85 3.3 -2.1 5.25 -4.7 Q6.3 -6.05 6.4 -7.05 L6.5 -7.05 M5.25 -6.35 L3.25 -4.05 3.0 -3.7 2.9 -3.55 2.6 -3.35 2.15 -2.85 2.2 -2.8 1.45 -2.1 0.25 -0.8 -0.5 -0.1 -0.55 -0.05 -0.65 -0.05 -0.75 0.05 -1.1 0.4 -2.4 1.3 -3.65 1.6 -3.9 1.7 -7.15 1.95 -8.15 2.05 -8.7 2.1 -8.9 2.1 -9.2 2.2 -9.4 2.25 Q-10.2 2.45 -10.45 2.75 L-11.95 4.05 -12.15 4.3 -12.25 4.6 Q-12.55 5.0 -12.25 5.4 -12.0 5.85 -12.0 6.5 L-12.05 6.8 -12.1 6.85 -12.25 8.05 -10.9 9.6 Q-10.8 9.9 -10.85 10.1 L-10.9 10.25 -11.6 10.05 -12.25 9.75 Q-12.55 9.4 -13.15 9.35 L-14.2 9.15 -14.3 9.15 -14.35 9.05 -15.25 8.8 -15.4 8.4 -15.8 8.4 -15.85 8.6 -16.85 8.2 -17.3 7.75 -17.9 6.85 Q-18.1 6.5 -18.6 6.5 L-19.05 6.5 -19.6 5.95 Q-19.7 5.6 -19.35 5.3 L-19.3 5.15 -19.2 4.65 -19.25 4.5 -19.45 4.05 Q-18.9 3.35 -17.7 3.5 -17.45 3.5 -16.95 3.2 L-16.0 3.15 -15.0 3.05 -14.0 2.5 -12.7 1.75 Q-12.1 0.8 -10.1 -1.0 L-7.95 -4.5 Q-7.3 -4.5 -6.1 -4.95 L-4.2 -5.35 Q-2.2 -5.4 -0.15 -6.6 0.65 -7.15 1.7 -7.5 L2.35 -8.1 Q2.55 -8.45 2.8 -8.5 L4.7 -8.85 6.15 -9.9 6.4 -9.9 6.55 -9.05 5.45 -7.6 Q5.0 -7.05 5.25 -6.35" fill="#717329" fill-rule="evenodd" stroke="none"/>
    </g>
    <g id="shape2" transform="matrix(1.0, 0.0, 0.0, 1.0, -27.05, -1.65)">
      <path d="M30.95 6.3 L31.3 7.35 32.55 10.25 32.8 10.55 33.15 10.6 33.4 10.5 33.6 10.2 33.6 10.15 33.0 8.55 33.6 10.15 34.4 7.75 35.25 5.6 Q36.05 3.25 34.5 2.2 L33.85 2.45 33.35 2.85 33.75 3.0 Q34.8 3.7 34.25 5.25 L33.45 7.35 33.0 8.55 32.95 8.55 32.8 8.25 32.3 6.95 Q31.8 5.55 31.8 4.55 L31.55 4.95 30.95 6.3" fill="#537533" fill-rule="evenodd" stroke="none"/>
      <path d="M30.95 6.3 L31.55 4.95 31.8 4.55 Q31.8 3.9 32.05 3.45 32.4 2.8 32.9 2.7 L33.35 2.85 33.85 2.45 34.5 2.2 34.3 2.05 Q33.45 1.55 32.8 1.65 31.85 1.7 31.15 2.9 30.4 4.05 30.95 6.3" fill="#a9b850" fill-rule="evenodd" stroke="none"/>
      <path d="M33.6 10.15 L33.6 10.2 33.4 10.5 33.15 10.6 32.8 10.55 32.55 10.25 31.3 7.35 30.95 6.3 M31.8 4.55 Q31.8 5.55 32.3 6.95 L32.8 8.25 32.95 8.55 33.0 8.55 33.6 10.15 34.4 7.75 35.25 5.6 Q36.05 3.25 34.5 2.2 L34.3 2.05 Q33.45 1.55 32.8 1.65 31.85 1.7 31.15 2.9 30.4 4.05 30.95 6.3 M32.8 8.25 L33.0 8.55 33.45 7.35 34.25 5.25 Q34.8 3.7 33.75 3.0 L33.35 2.85 32.9 2.7 Q32.4 2.8 32.05 3.45 31.8 3.9 31.8 4.55" fill="none" stroke="#000000" stroke-linecap="round" stroke-linejoin="round" stroke-opacity="0.3019608" stroke-width="0.05"/>
      <path d="M32.3 10.1 L31.2 9.95 31.2 10.0 32.0 10.1 32.3 10.1" fill="#74a849" fill-rule="evenodd" stroke="none"/>
      <path d="M32.3 10.1 L32.5 10.0 32.7 9.5 32.55 8.9 32.0 8.55 Q27.2 7.7 27.05 13.1 L27.15 13.5 27.45 13.45 27.75 12.95 Q27.9 9.9 31.2 9.95 L32.3 10.1" fill="#77a849" fill-rule="evenodd" stroke="none"/>
      <path d="M31.2 9.95 Q27.9 9.9 27.75 12.95 L27.45 13.45 27.15 13.5 27.25 13.7 Q27.45 13.9 27.75 13.95 L28.25 13.85 28.45 13.35 Q28.55 10.0 31.2 10.0 L31.2 9.95" fill="#537533" fill-rule="evenodd" stroke="none"/>
      <path d="M27.15 13.5 L27.05 13.1 Q27.2 7.7 32.0 8.55 L32.55 8.9 32.7 9.5 32.5 10.0 32.3 10.1 M27.15 13.5 L27.25 13.7 Q27.45 13.9 27.75 13.95 L28.25 13.85 28.45 13.35 Q28.55 10.0 31.2 10.0 L32.0 10.1 32.3 10.1" fill="none" stroke="#000000" stroke-linecap="round" stroke-linejoin="round" stroke-opacity="0.2509804" stroke-width="0.05"/>
      <path d="M34.35 11.45 L35.45 10.6 36.6 9.6 34.5 10.05 33.55 10.1 33.7 9.75 34.4 8.0 Q34.95 6.45 35.95 5.6 36.9 4.9 37.8 5.1 L38.35 5.25 Q38.4 4.45 38.1 3.7 L38.05 3.7 Q36.6 3.4 35.15 4.5 33.75 5.55 33.05 7.55 L32.1 9.9 32.05 10.0 32.05 9.95 31.45 11.3 32.05 9.95 31.85 10.0 31.45 10.35 Q31.35 10.6 31.4 10.85 L31.5 11.1 31.45 11.3 31.4 11.5 31.45 11.5 31.75 12.0 32.3 12.05 32.7 11.8 32.9 11.55 34.35 11.45 M32.7 11.8 L33.7 9.75 32.7 11.8" fill="#537533" fill-rule="evenodd" stroke="none"/>
      <path d="M34.35 11.45 L34.7 11.4 Q37.25 11.1 38.4 10.25 40.15 8.95 40.45 7.35 40.75 5.95 39.85 4.75 39.3 3.9 38.1 3.7 38.4 4.45 38.35 5.25 L38.75 5.55 Q39.25 6.25 39.1 7.05 L39.1 7.1 Q38.8 8.15 37.55 9.1 L36.6 9.6 35.45 10.6 34.35 11.45" fill="#a9b850" fill-rule="evenodd" stroke="none"/>
      <path d="M38.1 3.7 Q39.3 3.9 39.85 4.75 40.75 5.95 40.45 7.35 40.15 8.95 38.4 10.25 37.25 11.1 34.7 11.4 L34.35 11.45 M36.6 9.6 L37.55 9.1 Q38.8 8.15 39.1 7.1 L39.1 7.05 Q39.25 6.25 38.75 5.55 L38.35 5.25 37.8 5.1 Q36.9 4.9 35.95 5.6 34.95 6.45 34.4 8.0 L33.7 9.75 32.7 11.8 32.9 11.55 34.35 11.45 M38.1 3.7 L38.05 3.7 Q36.6 3.4 35.15 4.5 33.75 5.55 33.05 7.55 L32.1 9.9 32.05 9.95 31.85 10.0 31.45 10.35 Q31.35 10.6 31.4 10.85 L31.5 11.1 31.45 11.3 31.4 11.5 31.45 11.5 31.75 12.0 32.3 12.05 32.7 11.8 M33.7 9.75 L33.55 10.1 34.5 10.05 36.6 9.6 M32.05 9.95 L32.05 10.0 32.1 9.9 M31.45 11.3 L32.05 9.95" fill="none" stroke="#000000" stroke-linecap="round" stroke-linejoin="round" stroke-opacity="0.3019608" stroke-width="0.05"/>
      <path d="M33.45 11.55 L32.35 11.4 32.35 11.45 33.15 11.55 33.45 11.55" fill="#74a849" fill-rule="evenodd" stroke="none"/>
      <path d="M33.45 11.55 L33.65 11.45 33.85 10.95 33.7 10.35 33.15 10.0 Q28.35 9.15 28.2 14.55 L28.3 14.95 28.6 14.9 28.9 14.4 Q29.05 11.35 32.35 11.4 L33.45 11.55" fill="#77a849" fill-rule="evenodd" stroke="none"/>
      <path d="M32.35 11.4 Q29.05 11.35 28.9 14.4 L28.6 14.9 28.3 14.95 28.4 15.15 28.9 15.4 29.4 15.3 29.6 14.8 Q29.7 11.45 32.35 11.45 L32.35 11.4" fill="#537533" fill-rule="evenodd" stroke="none"/>
      <path d="M28.3 14.95 L28.2 14.55 Q28.35 9.15 33.15 10.0 L33.7 10.35 33.85 10.95 33.65 11.45 33.45 11.55 M28.3 14.95 L28.4 15.15 28.9 15.4 29.4 15.3 29.6 14.8 Q29.7 11.45 32.35 11.45 L33.15 11.55 33.45 11.55" fill="none" stroke="#000000" stroke-linecap="round" stroke-linejoin="round" stroke-opacity="0.2509804" stroke-width="0.05"/>
      <path d="M34.5 13.8 L33.55 13.35 33.5 13.35 34.25 13.7 34.5 13.8" fill="#74a849" fill-rule="evenodd" stroke="none"/>
      <path d="M34.5 13.8 L34.75 13.75 35.1 13.35 35.15 12.75 34.75 12.25 Q30.5 9.8 28.55 14.8 28.45 15.05 28.5 15.25 L28.75 15.3 29.25 14.95 Q30.4 12.05 33.55 13.35 L34.5 13.8" fill="#77a849" fill-rule="evenodd" stroke="none"/>
      <path d="M33.55 13.35 Q30.4 12.05 29.25 14.95 L28.75 15.3 28.5 15.25 28.55 15.45 28.9 15.9 29.45 15.95 29.75 15.55 Q31.0 12.4 33.5 13.35 L33.55 13.35" fill="#537533" fill-rule="evenodd" stroke="none"/>
      <path d="M28.5 15.25 Q28.45 15.05 28.55 14.8 30.5 9.8 34.75 12.25 L35.15 12.75 35.1 13.35 34.75 13.75 34.5 13.8 M28.5 15.25 L28.55 15.45 28.9 15.9 29.45 15.95 29.75 15.55 Q31.0 12.4 33.5 13.35 L34.25 13.7 34.5 13.8" fill="none" stroke="#000000" stroke-linecap="round" stroke-linejoin="round" stroke-opacity="0.2509804" stroke-width="0.05"/>
    </g>
  </defs>
</svg>
