<?xml version="1.0" encoding="UTF-8" standalone="no"?>
<svg xmlns:xlink="http://www.w3.org/1999/xlink" height="440.0px" width="440.0px" xmlns="http://www.w3.org/2000/svg">
  <g transform="matrix(10.0, 0.0, 0.0, 10.0, 0.0, 0.0)">
    <use height="44.0" transform="matrix(1.0, 0.0, 0.0, 1.0, 0.0, 0.0)" width="44.0" xlink:href="#shape0"/>
    <use height="34.8" transform="matrix(-0.3161, 0.0, 0.0, 0.2487, 25.7, 18.7)" width="34.8" xlink:href="#sprite0"/>
    <use height="20.95" transform="matrix(-0.3134, 0.0446, -0.0746, -0.355, 24.85, 27.0)" width="24.45" xlink:href="#sprite1"/>
    <use height="31.5" transform="matrix(1.0, 0.0, 0.0, 1.0, 5.35, 6.7)" width="33.2" xlink:href="#shape3"/>
  </g>
  <defs>
    <g id="shape0" transform="matrix(1.0, 0.0, 0.0, 1.0, 0.0, 0.0)">
      <path d="M44.0 44.0 L0.0 44.0 0.0 0.0 44.0 0.0 44.0 44.0" fill="#43adca" fill-opacity="0.0" fill-rule="evenodd" stroke="none"/>
      <path d="M6.55 21.8 Q8.0 19.8 9.75 21.15 L11.3 22.9 Q11.0 22.9 10.5 23.75 10.0 24.55 8.4 24.3 6.85 24.1 6.55 21.8 M31.6 31.1 L33.55 30.95 Q34.75 31.1 35.45 32.2 36.2 33.35 35.85 34.6 34.9 35.25 33.6 35.0 32.6 34.85 31.8 34.25 L31.2 33.75 31.0 33.4 30.95 33.25 Q30.7 32.8 30.85 32.35 31.2 31.4 31.0 31.15 L31.6 31.1" fill="#785423" fill-rule="evenodd" stroke="none"/>
      <path d="M29.55 35.4 L29.75 35.55 29.75 35.6 29.55 35.4" fill="#4e2e21" fill-rule="evenodd" stroke="none"/>
      <path d="M22.25 31.85 L22.25 31.95 22.2 31.9 22.25 31.85" fill="#452f16" fill-rule="evenodd" stroke="none"/>
      <path d="M25.5 26.05 L25.5 27.6 20.7 25.8 25.5 26.05" fill="#7c6c38" fill-rule="evenodd" stroke="none"/>
      <path d="M25.5 27.6 L25.5 29.1 23.85 27.85 18.2 25.2 20.7 25.8 25.5 27.6" fill="#63522e" fill-rule="evenodd" stroke="none"/>
      <path d="M12.05 23.4 L12.45 22.85 12.65 22.65 Q13.0 24.55 18.3 26.4 L17.9 26.4 11.05 25.3 12.05 23.4 M23.8 30.8 L22.35 31.3 19.75 29.15 23.8 30.8" fill="#b57931" fill-rule="evenodd" stroke="none"/>
      <path d="M29.5 25.45 L30.35 26.15 30.45 26.2 30.8 26.7 Q31.95 28.45 31.6 31.1 L31.0 31.15 30.8 31.15 30.85 28.75 30.8 28.2 Q29.95 26.4 28.9 25.2 L29.5 25.45 M29.75 35.6 L29.55 35.8 Q28.0 37.7 26.1 37.9 28.0 36.3 28.95 35.0 L29.55 35.4 29.75 35.6" fill="#653d2c" fill-rule="evenodd" stroke="none"/>
      <path d="M12.65 22.65 Q14.2 20.85 16.05 20.7 L17.1 20.55 17.55 20.6 Q23.6 21.5 28.2 24.5 L28.6 24.75 29.5 25.45 28.9 25.2 27.85 25.1 Q26.6 25.2 25.5 26.05 L20.7 25.8 18.2 25.2 23.85 27.85 Q23.35 28.55 23.0 29.35 L19.75 29.15 22.35 31.3 22.25 31.85 22.2 31.9 21.95 32.1 Q21.2 32.6 19.8 32.45 13.35 30.8 10.55 27.35 L10.4 27.45 10.5 27.2 10.55 26.85 11.05 25.3 17.9 26.4 18.3 26.4 Q13.0 24.55 12.65 22.65" fill="url(#gradient0)" fill-rule="evenodd" stroke="none"/>
      <path d="M24.55 37.75 Q18.5 36.8 13.95 33.9 L11.3 32.25 11.15 31.9 Q10.05 30.15 10.4 27.45 L10.55 27.35 Q13.35 30.8 19.8 32.45 21.2 32.6 21.95 32.1 L22.2 31.9 22.25 31.95 Q21.9 34.6 23.0 36.35 23.6 37.4 24.55 37.75" fill="url(#gradient1)" fill-rule="evenodd" stroke="none"/>
      <path d="M6.55 21.8 Q6.85 24.1 8.4 24.3 10.0 24.55 10.5 23.75 11.0 22.9 11.3 22.9 L11.4 22.95 11.4 23.0 11.45 23.05 12.05 23.4 11.05 25.3 10.55 26.85 8.5 26.5 8.35 26.5 Q4.05 25.8 6.55 21.8" fill="url(#gradient2)" fill-rule="evenodd" stroke="none"/>
      <path d="M35.85 34.6 Q35.1 36.8 33.45 37.05 31.95 37.2 30.1 35.85 L29.95 35.75 29.9 35.65 29.75 35.55 29.55 35.4 Q29.3 35.15 29.2 34.75 29.05 34.1 29.35 33.1 29.05 34.1 29.2 34.75 29.3 35.15 29.55 35.4 L28.95 35.0 27.2 34.2 26.45 33.9 Q26.75 31.45 29.9 30.8 L30.8 31.15 31.0 31.15 Q31.2 31.4 30.85 32.35 30.7 32.8 30.95 33.25 L31.0 33.4 31.2 33.75 31.8 34.25 Q32.6 34.85 33.6 35.0 34.9 35.25 35.85 34.6" fill="url(#gradient3)" fill-rule="evenodd" stroke="none"/>
      <path d="M23.0 29.35 L23.8 30.8 19.75 29.15 23.0 29.35 M26.35 33.8 Q25.3 33.2 25.05 32.1 L25.2 31.35 Q26.3 29.3 27.85 29.95 L29.9 30.8 Q26.75 31.45 26.45 33.9 L26.35 33.8" fill="#472f13" fill-rule="evenodd" stroke="none"/>
      <path d="M26.1 37.9 L26.0 37.9 25.9 37.95 24.75 37.85 24.55 37.75 Q23.6 37.4 23.0 36.35 21.9 34.6 22.25 31.95 L22.25 31.85 22.35 31.3 23.8 30.8 23.0 29.35 Q23.35 28.55 23.85 27.85 L25.5 29.1 25.5 27.6 25.5 26.05 Q26.6 25.2 27.85 25.1 L28.9 25.2 Q29.95 26.4 30.8 28.2 L30.85 28.75 30.8 31.15 29.9 30.8 27.85 29.95 Q26.3 29.3 25.2 31.35 L25.05 32.1 Q25.3 33.2 26.35 33.8 L26.45 33.9 27.2 34.2 28.95 35.0 Q28.0 36.3 26.1 37.9" fill="url(#gradient4)" fill-rule="evenodd" stroke="none"/>
      <path d="M11.3 22.9 L9.75 21.15 Q8.0 19.8 6.55 21.8 M11.3 22.9 L11.4 22.95 11.4 23.0 11.45 23.05 12.05 23.4 12.45 22.85 12.65 22.65 Q14.2 20.85 16.05 20.7 L17.1 20.55 17.55 20.6 Q23.6 21.5 28.2 24.5 L28.6 24.75 29.5 25.45 30.35 26.15 30.45 26.2 30.8 26.7 Q31.95 28.45 31.6 31.1 L33.55 30.95 Q34.75 31.1 35.45 32.2 36.2 33.35 35.85 34.6 35.1 36.8 33.45 37.05 31.95 37.2 30.1 35.85 L29.95 35.75 29.9 35.65 29.75 35.6 29.55 35.8 Q28.0 37.7 26.1 37.9 M25.9 37.95 L24.75 37.85 24.55 37.75 Q18.5 36.8 13.95 33.9 L11.3 32.25 11.15 31.9 Q10.05 30.15 10.4 27.45 M10.55 26.85 L8.5 26.5 8.35 26.5 Q4.05 25.8 6.55 21.8 M10.55 26.85 L11.05 25.3 12.05 23.4 M29.9 30.8 L27.85 29.95 Q26.3 29.3 25.2 31.35 L25.05 32.1 Q25.3 33.2 26.35 33.8 M29.55 35.4 L29.75 35.6 29.75 35.55 29.9 35.65 M29.55 35.4 Q29.3 35.15 29.2 34.75 29.05 34.1 29.35 33.1 M28.95 35.0 L29.55 35.4 M26.45 33.9 L27.2 34.2 28.95 35.0" fill="none" stroke="#382510" stroke-linecap="round" stroke-linejoin="round" stroke-opacity="0.3019608" stroke-width="0.05"/>
      <path d="M30.8 31.15 L31.0 31.15 31.6 31.1 M29.9 30.8 L30.8 31.15 M29.75 35.55 L29.55 35.4" fill="none" stroke="#332720" stroke-linecap="round" stroke-linejoin="round" stroke-opacity="0.4509804" stroke-width="0.05"/>
      <path d="M22.25 31.95 Q21.9 34.6 23.0 36.35 23.6 37.4 24.55 37.75" fill="none" stroke="#452f16" stroke-linecap="round" stroke-linejoin="round" stroke-opacity="0.4509804" stroke-width="0.05"/>
      <path d="M14.85 29.35 Q15.7 30.15 17.45 31.05 M23.8 32.05 L21.95 32.05 Q20.1 31.6 18.7 30.95 L16.6 29.85 M25.4 34.1 L23.35 36.8" fill="none" stroke="#382510" stroke-linecap="round" stroke-linejoin="round" stroke-opacity="0.3019608" stroke-width="0.25"/>
      <path d="M20.45 24.75 L17.3 23.45 15.0 22.9 M13.3 22.15 L16.3 22.55" fill="none" stroke="#382510" stroke-linecap="round" stroke-linejoin="round" stroke-opacity="0.3019608" stroke-width="0.25"/>
      <path d="M34.55 34.1 L33.2 34.15 Q32.5 34.0 32.05 33.45 31.7 32.85 31.85 32.25 32.0 31.65 32.6 31.35 L34.0 31.2 Q34.7 31.4 35.1 32.0 35.5 32.6 35.35 33.2 35.2 33.8 34.55 34.1" fill="#b57931" fill-rule="evenodd" stroke="none"/>
      <path d="M8.05 23.2 L7.35 23.15 Q7.0 22.95 6.95 22.5 6.9 22.05 7.1 21.65 L7.75 21.1 8.5 21.15 8.85 21.8 8.7 22.6 8.05 23.2" fill="#b57931" fill-opacity="0.6" fill-rule="evenodd" stroke="none"/>
      <path d="M25.0 24.95 L22.8 25.4 20.55 24.95 Q19.65 24.5 19.65 23.85 19.65 23.25 20.55 22.75 21.5 22.3 22.8 22.3 24.1 22.3 25.0 22.75 25.95 23.25 25.95 23.85 25.95 24.5 25.0 24.95" fill="#382510" fill-opacity="0.44313726" fill-rule="evenodd" stroke="none"/>
      <path d="M22.3 18.35 L21.45 18.1 20.65 18.0 Q20.35 18.05 20.3 18.25 L20.55 18.55 21.35 18.85 22.2 18.9 22.55 18.7 Q22.6 18.5 22.3 18.35 M18.4 19.6 L18.4 18.5 Q18.45 17.75 19.25 17.5 L21.1 17.7 Q22.6 18.05 22.8 18.5 23.65 19.25 23.55 20.0 L23.5 20.3 23.4 20.65 23.05 20.65 22.55 19.75 22.45 19.65 Q22.1 19.35 20.8 19.0 L18.9 18.75 Q18.7 18.8 18.6 19.55 L18.4 19.6" fill="#ffe700" fill-rule="evenodd" stroke="none"/>
      <path d="M22.3 18.35 Q22.6 18.5 22.55 18.7 L22.2 18.9 21.35 18.85 20.55 18.55 20.3 18.25 Q20.35 18.05 20.65 18.0 L21.45 18.1 22.3 18.35 M21.75 22.95 L21.3 23.0 20.85 22.95 20.6 22.95 20.2 23.0 Q19.0 22.55 18.5 22.15 L18.35 22.05 18.3 22.05 18.3 22.1 18.4 22.3 17.85 21.5 Q19.3 22.25 22.85 22.7 L21.75 22.95" fill="#ffffff" fill-rule="evenodd" stroke="none"/>
      <path d="M23.5 20.3 L23.85 20.65 24.0 21.05 23.95 21.1 24.05 21.1 24.0 21.55 24.0 21.65 23.95 21.7 23.9 21.95 23.4 22.4 23.05 22.65 22.9 22.65 22.85 22.7 Q19.3 22.25 17.85 21.5 L18.4 22.3 Q18.85 23.95 18.4 24.3 L17.8 23.5 17.8 23.35 17.8 21.1 17.8 20.95 17.8 20.85 Q17.85 20.45 18.15 20.2 L18.35 19.95 Q18.6 19.75 18.9 19.7 19.9 19.2 21.2 19.4 L22.45 19.65 22.55 19.75 23.05 20.65 23.4 20.65 23.5 20.3" fill="#fff300" fill-rule="evenodd" stroke="none"/>
      <path d="M24.0 21.7 L23.95 23.4 23.95 23.65 24.0 23.7 23.85 23.9 23.4 24.6 Q23.55 23.15 23.2 22.8 L23.05 22.65 23.4 22.4 23.9 21.95 23.95 21.7 24.0 21.7 M20.1 25.1 L19.65 24.9 19.15 24.8 19.1 24.75 Q18.9 23.15 20.2 23.0 L20.6 22.95 20.85 22.95 21.3 23.0 21.75 22.95 Q19.3 23.8 20.1 25.1" fill="#b88400" fill-rule="evenodd" stroke="none"/>
      <path d="M24.0 21.65 L24.0 21.7 23.95 21.7 24.0 21.65 M23.95 23.65 L24.0 23.65 24.0 23.7 23.95 23.65" fill="#ae8a37" fill-rule="evenodd" stroke="none"/>
      <path d="M23.4 24.6 L22.8 24.8 21.7 25.15 Q21.05 24.7 20.9 24.95 L20.7 25.15 20.55 25.1 20.1 25.1 Q19.3 23.8 21.75 22.95 L22.85 22.7 22.9 22.65 23.05 22.65 23.2 22.8 Q23.55 23.15 23.4 24.6" fill="#e8a600" fill-rule="evenodd" stroke="none"/>
      <path d="M19.1 24.75 L18.5 24.35 18.4 24.3 Q18.85 23.95 18.4 22.3 L18.3 22.1 18.35 22.05 18.5 22.15 Q19.0 22.55 20.2 23.0 18.9 23.15 19.1 24.75" fill="#fff866" fill-rule="evenodd" stroke="none"/>
      <path d="M18.3 22.1 L18.3 22.05 18.35 22.05 18.3 22.1" fill="#d8ca7c" fill-rule="evenodd" stroke="none"/>
      <path d="M18.4 19.6 L18.4 18.5 Q18.45 17.75 19.25 17.5 L21.1 17.7 Q22.6 18.05 22.8 18.5 23.65 19.25 23.55 20.0 L23.5 20.3 23.4 20.65 M22.45 19.65 Q22.1 19.35 20.8 19.0 L18.9 18.75 Q18.7 18.8 18.6 19.55 M23.05 20.65 L22.55 19.75 22.45 19.65" fill="none" stroke="#382510" stroke-linecap="round" stroke-linejoin="round" stroke-opacity="0.3019608" stroke-width="0.05"/>
      <path d="M23.5 20.3 L23.85 20.65 24.0 21.05 M24.05 21.1 L24.0 21.55 24.0 21.65 24.0 21.7 23.95 23.4 23.95 23.65 24.0 23.65 24.0 23.7 23.85 23.9 23.4 24.6 22.8 24.8 21.7 25.15 Q21.05 24.7 20.9 24.95 L20.7 25.15 20.55 25.1 20.1 25.1 19.65 24.9 19.15 24.8 19.1 24.75 18.5 24.35 18.4 24.3 17.8 23.5 17.8 23.35 17.8 21.1 17.8 20.95 17.8 20.85 Q17.85 20.45 18.15 20.2 L18.35 19.95 Q18.6 19.75 18.9 19.7 19.9 19.2 21.2 19.4 L22.45 19.65" fill="none" stroke="#665122" stroke-linecap="round" stroke-linejoin="round" stroke-opacity="0.5529412" stroke-width="0.05"/>
      <path d="M30.65 12.35 L30.4 12.15 30.45 12.15 30.65 12.35" fill="#71684a" fill-rule="evenodd" stroke="none"/>
      <path d="M28.85 7.45 L30.6 7.6 Q29.6 7.7 28.8 8.1 L27.95 8.45 27.9 8.5 Q27.6 8.8 28.15 9.45 29.45 10.95 31.95 12.15 L32.1 12.25 Q33.25 13.25 33.35 14.35 L33.35 15.35 32.25 16.45 Q33.5 13.7 30.65 12.35 L30.45 12.15 27.25 9.45 Q26.8 8.75 27.2 8.35 L27.6 8.0 27.95 7.85 Q28.2 7.65 28.6 7.55 L28.85 7.45 M31.1 8.8 L35.05 9.95 37.4 10.0 36.75 10.75 36.6 10.7 35.15 10.6 Q32.15 9.75 31.1 8.8 M23.6 7.75 L20.15 7.75 Q19.35 7.85 18.7 8.2 L20.35 7.25 Q22.9 6.75 25.05 7.25 L25.7 7.45 23.6 7.75 M18.4 8.3 L16.9 11.4 16.9 9.9 Q17.5 8.85 18.4 8.3 M19.9 18.15 L20.1 18.3 22.35 20.1 22.3 20.15 21.4 19.8 Q18.5 18.8 17.4 16.15 L19.9 18.15 M24.2 20.45 Q27.25 20.7 30.05 18.9 L29.15 20.15 Q26.0 21.8 24.2 20.45" fill="#382510" fill-rule="evenodd" stroke="none"/>
      <path d="M34.55 7.9 L33.15 7.65 30.6 7.6 28.85 7.45 29.3 7.3 30.4 7.1 31.5 6.95 33.7 7.15 34.85 7.35 34.55 7.9 34.85 7.35 35.2 7.5 Q36.1 7.75 37.0 8.25 37.95 8.65 38.3 9.65 L38.15 10.35 36.75 10.75 37.4 10.0 Q37.95 9.9 37.75 9.55 37.65 8.6 34.55 7.9 M28.8 8.1 L31.1 8.8 Q32.15 9.75 35.15 10.6 L32.2 9.85 28.25 8.55 27.95 8.45 28.8 8.1 M27.2 8.35 L24.3 7.85 23.6 7.75 25.7 7.45 27.95 7.85 27.6 8.0 27.2 8.35 M16.9 11.4 Q16.8 13.5 17.3 14.4 18.6 16.7 19.9 18.15 L17.4 16.15 Q16.9 15.35 16.55 14.35 15.75 12.15 16.8 10.1 L16.9 9.9 16.9 11.4 M30.05 18.9 Q31.5 18.0 32.2 16.55 L32.25 16.45 33.35 15.35 Q33.15 17.15 31.65 18.35 L29.15 20.15 30.05 18.9" fill="#4f3317" fill-rule="evenodd" stroke="none"/>
      <path d="M30.4 12.15 Q28.4 11.3 27.3 9.6 L27.25 9.45 30.45 12.15 30.4 12.15" fill="#774b22" fill-rule="evenodd" stroke="none"/>
      <path d="M34.55 7.9 L34.85 7.35 M28.85 7.45 L30.6 7.6 M30.65 12.35 L30.45 12.15 27.25 9.45 M35.15 10.6 Q32.15 9.75 31.1 8.8 M36.75 10.75 L37.4 10.0 M25.7 7.45 L23.6 7.75 M29.15 20.15 L30.05 18.9 M33.35 15.35 L32.25 16.45 M16.9 11.4 L16.9 9.9 M17.4 16.15 L19.9 18.15" fill="none" stroke="#382510" stroke-linecap="round" stroke-linejoin="round" stroke-opacity="0.15294118" stroke-width="0.05"/>
      <path d="M30.6 7.6 L33.15 7.65 34.55 7.9 M34.85 7.35 L33.7 7.15 31.5 6.95 30.4 7.1 29.3 7.3 28.85 7.45 M30.6 7.6 Q29.6 7.7 28.8 8.1 L31.1 8.8 35.05 9.95 37.4 10.0 Q37.95 9.9 37.75 9.55 37.65 8.6 34.55 7.9 M36.75 10.75 L38.15 10.35 38.3 9.65 Q37.95 8.65 37.0 8.25 36.1 7.75 35.2 7.5 L34.85 7.35 M30.65 12.35 L30.4 12.15 Q28.4 11.3 27.3 9.6 L27.25 9.45 Q26.8 8.75 27.2 8.35 L24.3 7.85 23.6 7.75 20.15 7.75 Q19.35 7.85 18.7 8.2 L18.4 8.3 16.9 11.4 Q16.8 13.5 17.3 14.4 18.6 16.7 19.9 18.15 L20.1 18.3 22.35 20.1 22.4 20.1 24.2 20.45 Q27.25 20.7 30.05 18.9 31.5 18.0 32.2 16.55 L32.25 16.45 Q33.5 13.7 30.65 12.35 M33.35 15.35 L33.35 14.35 Q33.25 13.25 32.1 12.25 L31.95 12.15 Q29.45 10.95 28.15 9.45 27.6 8.8 27.9 8.5 L27.95 8.45 28.8 8.1 M27.95 8.45 L28.25 8.55 32.2 9.85 35.15 10.6 36.6 10.7 36.75 10.75 M18.7 8.2 L20.35 7.25 Q22.9 6.75 25.05 7.25 L25.7 7.45 27.95 7.85 Q28.2 7.65 28.6 7.55 L28.85 7.45 M27.95 7.85 L27.6 8.0 27.2 8.35 M22.4 20.1 L22.45 20.2 24.2 20.45 Q26.0 21.8 29.15 20.15 L31.65 18.35 Q33.15 17.15 33.35 15.35 M22.3 20.15 L22.45 20.2 M22.3 20.15 L21.4 19.8 Q18.5 18.8 17.4 16.15 16.9 15.35 16.55 14.35 15.75 12.15 16.8 10.1 L16.9 9.9 Q17.5 8.85 18.4 8.3" fill="none" stroke="#382510" stroke-linecap="round" stroke-linejoin="round" stroke-opacity="0.2" stroke-width="0.05"/>
    </g>
    <linearGradient gradientTransform="matrix(0.006, 0.0028, -0.003, 0.0063, 22.7, 27.95)" gradientUnits="userSpaceOnUse" id="gradient0" spreadMethod="pad" x1="-819.2" x2="819.2">
      <stop offset="0.0" stop-color="#785423"/>
      <stop offset="1.0" stop-color="#b37829"/>
    </linearGradient>
    <linearGradient gradientTransform="matrix(-5.0E-4, -0.0037, 0.0079, -0.001, 17.1, 30.9)" gradientUnits="userSpaceOnUse" id="gradient1" spreadMethod="pad" x1="-819.2" x2="819.2">
      <stop offset="0.0" stop-color="#64431c"/>
      <stop offset="1.0" stop-color="#422b12"/>
    </linearGradient>
    <linearGradient gradientTransform="matrix(6.0E-4, -0.0012, 0.0032, 0.0016, 8.45, 24.5)" gradientUnits="userSpaceOnUse" id="gradient2" spreadMethod="pad" x1="-819.2" x2="819.2">
      <stop offset="0.0" stop-color="#64431c"/>
      <stop offset="1.0" stop-color="#422b12"/>
    </linearGradient>
    <linearGradient gradientTransform="matrix(0.0011, -0.002, 0.0048, 0.0026, 31.55, 33.35)" gradientUnits="userSpaceOnUse" id="gradient3" spreadMethod="pad" x1="-819.2" x2="819.2">
      <stop offset="0.0" stop-color="#64431c"/>
      <stop offset="1.0" stop-color="#422b12"/>
    </linearGradient>
    <linearGradient gradientTransform="matrix(-0.0032, -0.0024, 0.0046, -0.0063, 23.95, 29.55)" gradientUnits="userSpaceOnUse" id="gradient4" spreadMethod="pad" x1="-819.2" x2="819.2">
      <stop offset="0.0" stop-color="#4e2e21"/>
      <stop offset="1.0" stop-color="#26160f"/>
    </linearGradient>
    <g id="sprite0" transform="matrix(1.0, 0.0, 0.0, 1.0, 0.0, 0.0)">
      <use height="34.8" transform="matrix(1.0, 0.0, 0.0, 1.0, 0.0, 0.0)" width="34.8" xlink:href="#shape1"/>
    </g>
    <g id="shape1" transform="matrix(1.0, 0.0, 0.0, 1.0, 0.0, 0.0)">
      <path d="M17.4 34.8 Q10.2 34.8 5.1 29.7 0.0 24.6 0.0 17.4 0.0 10.2 5.1 5.1 10.2 0.0 17.4 0.0 24.6 0.0 29.7 5.1 34.8 10.2 34.8 17.4 34.8 24.6 29.7 29.7 24.6 34.8 17.4 34.8" fill="url(#gradient5)" fill-rule="evenodd" stroke="none"/>
    </g>
    <radialGradient cx="0" cy="0" gradientTransform="matrix(0.0221, 0.0, 0.0, 0.0221, 17.4, 17.4)" gradientUnits="userSpaceOnUse" id="gradient5" r="819.2" spreadMethod="pad">
      <stop offset="0.0" stop-color="#ffffff"/>
      <stop offset="0.9882352941176471" stop-color="#ffffff" stop-opacity="0.0"/>
    </radialGradient>
    <g id="sprite1" transform="matrix(1.0, 0.0, 0.0, 1.0, 0.0, 0.0)">
      <use height="20.95" transform="matrix(1.0, 0.0, 0.0, 1.0, 0.0, 0.0)" width="24.45" xlink:href="#shape2"/>
    </g>
    <g id="shape2" transform="matrix(1.0, 0.0, 0.0, 1.0, 0.0, 0.0)">
      <path d="M14.85 11.4 Q15.8 11.6 16.25 12.45 16.85 13.3 16.6 14.35 16.4 15.3 15.55 15.9 14.65 16.4 13.65 16.2 12.65 15.9 12.1 15.1 11.6 14.2 11.8 13.2 12.1 12.2 12.9 11.65 13.8 11.15 14.85 11.4" fill="#ffffff" fill-opacity="0.5882353" fill-rule="evenodd" stroke="none"/>
      <path d="M18.2 11.35 L20.15 11.25 18.75 12.55 Q19.05 13.8 18.8 15.05 18.5 16.35 17.65 17.3 L19.1 20.95 16.55 18.25 Q14.8 19.3 12.8 18.85 10.8 18.35 9.75 16.65 9.05 15.5 8.95 14.3 7.75 12.35 4.85 11.5 8.3 12.45 9.7 11.4 10.3 10.4 11.35 9.75 13.1 8.75 15.1 9.15 16.95 9.5 18.1 11.15 L18.2 11.35 M14.85 11.4 Q13.8 11.15 12.9 11.65 12.1 12.2 11.8 13.2 11.6 14.2 12.1 15.1 12.65 15.9 13.65 16.2 14.65 16.4 15.55 15.9 16.4 15.3 16.6 14.35 16.85 13.3 16.25 12.45 15.8 11.6 14.85 11.4" fill="#ffffff" fill-opacity="0.1764706" fill-rule="evenodd" stroke="none"/>
      <path d="M15.4 13.55 L18.1 17.55 13.35 14.65 7.05 18.5 12.75 13.55 0.0 0.0 14.25 12.25 24.45 5.95 15.4 13.55" fill="#ffffff" fill-opacity="0.5882353" fill-rule="evenodd" stroke="none"/>
    </g>
    <g id="shape3" transform="matrix(1.0, 0.0, 0.0, 1.0, -5.35, -6.7)">
      <path d="M33.7 7.15 L31.5 6.95 30.4 7.1 29.3 7.3 28.85 7.45 28.6 7.55 Q28.2 7.65 27.95 7.85 L25.7 7.45 25.05 7.25 Q22.9 6.75 20.35 7.25 L18.7 8.2 Q19.35 7.85 20.15 7.75 L23.6 7.75 24.3 7.85 27.2 8.35 Q26.8 8.75 27.25 9.45 L27.3 9.6 Q28.4 11.3 30.4 12.15 L30.65 12.35 Q33.5 13.7 32.25 16.45 L32.2 16.55 Q31.5 18.0 30.05 18.9 27.25 20.7 24.2 20.45 26.0 21.8 29.15 20.15 L31.65 18.35 Q33.15 17.15 33.35 15.35 L33.35 14.35 Q33.25 13.25 32.1 12.25 L31.95 12.15 Q29.45 10.95 28.15 9.45 27.6 8.8 27.9 8.5 L27.95 8.45 28.25 8.55 32.2 9.85 35.15 10.6 36.6 10.7 36.75 10.75 38.15 10.35 38.3 9.65 Q37.95 8.65 37.0 8.25 36.1 7.75 35.2 7.5 L34.85 7.35 33.7 7.15 M34.55 7.9 Q37.65 8.6 37.75 9.55 37.95 9.9 37.4 10.0 L35.05 9.95 28.8 8.1 Q29.6 7.7 30.6 7.6 L33.15 7.65 34.55 7.9 M18.4 19.6 L18.4 18.5 Q18.4 18.2 18.55 18.0 17.85 17.2 17.4 16.15 16.9 15.35 16.55 14.35 15.75 12.15 16.8 10.1 L16.9 9.9 Q17.5 8.85 18.4 8.3 L16.9 11.4 Q16.8 13.5 17.3 14.4 L19.35 17.5 21.1 17.7 Q22.6 18.05 22.8 18.5 23.65 19.25 23.55 20.0 L23.5 20.3 23.55 20.35 23.85 20.65 24.0 21.05 23.95 21.1 24.05 21.1 24.0 22.35 24.75 22.65 25.0 22.75 Q26.7 23.5 28.2 24.5 L28.6 24.75 29.5 25.45 30.35 26.15 30.45 26.2 30.8 26.7 Q31.8 28.25 31.65 30.5 L31.6 31.1 33.55 30.95 Q34.75 31.1 35.45 32.2 36.2 33.35 35.85 34.6 35.1 36.8 33.45 37.05 31.95 37.2 30.1 35.85 L29.95 35.75 29.9 35.65 29.75 35.55 29.75 35.6 29.55 35.8 Q28.0 37.7 26.1 37.9 L26.0 37.9 25.9 37.95 24.75 37.85 24.55 37.75 Q18.5 36.8 13.95 33.9 L11.3 32.25 11.15 31.9 10.55 30.5 Q10.2 29.15 10.4 27.45 L10.5 27.2 10.55 26.85 8.5 26.5 8.35 26.5 Q6.95 26.25 6.25 25.7 5.0 24.6 6.25 22.35 L6.55 21.8 Q8.0 19.8 9.75 21.15 L11.3 22.9 11.4 22.95 11.4 23.0 11.45 23.05 12.05 23.4 12.45 22.85 12.65 22.65 13.25 22.05 Q14.55 20.8 16.05 20.7 L17.1 20.55 17.55 20.6 17.85 20.65" fill="none" stroke="#000000" stroke-linecap="round" stroke-linejoin="round" stroke-opacity="0.3019608" stroke-width="0.5"/>
    </g>
  </defs>
</svg>
