<?xml version="1.0" encoding="UTF-8" standalone="no"?>
<svg xmlns:xlink="http://www.w3.org/1999/xlink" height="440.0px" width="440.0px" xmlns="http://www.w3.org/2000/svg">
  <g transform="matrix(10.0, 0.0, 0.0, 10.0, 0.0, 0.0)">
    <use height="44.0" transform="matrix(0.9091, 0.0, 0.0, 0.9091, 2.0, 2.0)" width="44.0" xlink:href="#sprite0"/>
  </g>
  <defs>
    <g id="sprite0" transform="matrix(1.0, 0.0, 0.0, 1.0, 0.0, 0.0)">
      <use height="44.0" transform="matrix(1.0, 0.0, 0.0, 1.0, 0.0, 0.0)" width="44.0" xlink:href="#shape0"/>
      <use height="4.4" transform="matrix(0.9018, -1.2583, 0.9546, 0.6841, 10.766, 24.1133)" width="4.4" xlink:href="#sprite1"/>
      <use height="4.4" transform="matrix(0.9018, -1.2583, 0.9546, 0.6841, 7.116, 22.0633)" width="4.4" xlink:href="#sprite1"/>
      <use height="4.4" transform="matrix(1.0673, -3.4695, 1.8975, 0.5838, 1.7274, 35.4486)" width="4.4" xlink:href="#sprite1"/>
    </g>
    <g id="shape0" transform="matrix(1.0, 0.0, 0.0, 1.0, 0.0, 0.0)">
      <path d="M44.0 44.0 L0.0 44.0 0.0 0.0 44.0 0.0 44.0 44.0" fill="#43adca" fill-opacity="0.0" fill-rule="evenodd" stroke="none"/>
      <path d="M17.65 9.45 L17.65 9.35 Q17.65 8.4 18.2 7.45 18.85 6.5 19.85 6.15 L20.9 6.05 21.15 6.15 21.3 6.2 21.45 6.3 21.55 6.35 21.85 6.8 Q21.85 7.15 20.45 7.55 L20.1 7.7 Q19.1 8.05 19.1 8.85 L18.95 9.75 18.4 10.3 18.2 10.25 17.7 9.45 17.65 9.45 M18.2 9.8 L18.45 9.7 18.55 9.5 18.45 9.25 18.2 9.2 Q17.9 9.2 17.9 9.5 17.9 9.8 18.2 9.8 L18.2 9.85 18.2 9.8 M18.4 9.0 L18.65 8.35 Q18.75 7.7 19.5 7.2 20.25 6.65 21.0 6.6 21.0 5.7 19.55 6.5 18.05 7.25 18.1 8.65 L18.1 8.8 18.4 9.0" fill="#5e5e5e" fill-rule="evenodd" stroke="none"/>
      <path d="M21.55 6.35 L21.85 6.65 21.9 6.7 22.15 7.1 22.15 7.2 22.2 7.2 22.3 7.7 21.65 8.6 21.35 8.6 21.1 8.15 20.55 8.15 20.5 8.15 19.9 8.75 19.65 9.6 Q19.65 9.95 19.85 10.1 L19.9 10.15 20.0 10.2 19.55 10.9 18.7 11.25 18.3 11.0 17.75 10.15 17.7 9.8 17.65 9.5 17.65 9.45 17.7 9.45 18.2 10.25 18.4 10.3 18.95 9.75 19.1 8.85 Q19.1 8.05 20.1 7.7 L20.45 7.55 Q21.85 7.15 21.85 6.8 L21.55 6.35" fill="#4f4f4f" fill-rule="evenodd" stroke="none"/>
      <path d="M20.55 8.15 L21.1 8.15 21.35 8.6 21.35 8.75 21.1 9.6 20.5 10.15 20.0 10.2 19.9 10.15 19.85 10.1 Q19.65 9.95 19.65 9.6 L19.7 9.6 20.3 9.0 20.55 8.15" fill="#1c1c1c" fill-rule="evenodd" stroke="none"/>
      <path d="M22.3 7.7 L22.3 7.85 22.3 8.2 Q22.3 9.1 21.7 10.0 L20.45 11.25 19.3 11.5 18.7 11.25 19.55 10.9 20.0 10.2 20.5 10.15 21.1 9.6 21.35 8.75 21.35 8.6 21.65 8.6 22.3 7.7" fill="#363636" fill-rule="evenodd" stroke="none"/>
      <path d="M18.2 9.8 Q17.9 9.8 17.9 9.5 17.9 9.2 18.2 9.2 L18.45 9.25 18.55 9.5 18.45 9.7 18.2 9.8 M18.4 9.0 L18.1 8.8 18.1 8.65 Q18.05 7.25 19.55 6.5 21.0 5.7 21.0 6.6 20.25 6.65 19.5 7.2 18.75 7.7 18.65 8.35 L18.4 9.0" fill="#aeaeae" fill-rule="evenodd" stroke="none"/>
      <path d="M17.65 9.45 L17.65 9.35 Q17.65 8.4 18.2 7.45 18.85 6.5 19.85 6.15 L20.9 6.05 21.15 6.15 21.3 6.2 21.45 6.3 21.55 6.35 21.85 6.65 21.9 6.7 22.15 7.1 22.15 7.2 22.2 7.2 22.3 7.7 22.3 7.85 22.3 8.2 Q22.3 9.1 21.7 10.0 L20.45 11.25 19.3 11.5 18.7 11.25 18.3 11.0 17.75 10.15 17.7 9.8 17.65 9.5 17.65 9.45 M19.65 9.6 L19.9 8.75 20.5 8.15 20.55 8.15 21.1 8.15 21.35 8.6 21.35 8.75 21.1 9.6 20.5 10.15 20.0 10.2 19.9 10.15 19.85 10.1 Q19.65 9.95 19.65 9.6 L19.7 9.6 20.3 9.0 20.55 8.15" fill="none" stroke="#000000" stroke-linecap="round" stroke-linejoin="round" stroke-opacity="0.3019608" stroke-width="0.05"/>
      <path d="M10.35 15.5 Q10.0 14.9 10.1 14.4 L10.15 14.0 11.05 12.85 Q11.75 12.2 16.1 10.05 L16.25 10.0 16.45 9.9 17.3 9.5 17.75 9.25 18.15 9.05 19.25 8.55 19.75 8.4 19.8 8.35 22.35 7.55 23.1 7.35 23.35 7.3 30.2 6.35 31.65 6.45 33.05 6.65 Q36.35 7.1 38.45 8.65 L38.85 9.0 39.95 10.05 39.9 9.95 Q40.8 11.5 40.6 12.05 L40.5 12.9 40.4 13.55 40.05 14.35 40.0 14.55 39.9 14.75 39.4 15.6 39.35 15.55 39.4 15.65 39.0 16.25 38.15 17.4 Q37.3 18.5 35.65 19.0 L34.7 19.25 34.25 19.35 34.15 19.35 31.55 19.55 31.3 19.55 30.35 19.45 29.25 19.2 29.05 19.15 26.3 18.3 Q22.5 17.05 21.45 17.05 L21.1 17.05 19.45 17.35 Q18.3 17.65 17.35 18.35 L17.2 18.05 16.95 17.6 Q18.65 16.35 20.75 16.3 L21.1 16.25 Q22.15 16.25 25.95 17.55 L26.05 17.55 29.95 18.7 30.9 18.8 31.2 18.8 33.0 18.7 33.55 18.65 34.1 18.55 35.3 18.25 Q36.95 17.7 37.8 16.6 L38.65 15.45 39.7 13.6 39.9 13.1 40.15 11.5 40.1 11.2 39.9 10.7 39.65 10.35 38.9 9.55 38.55 9.25 Q36.35 7.45 32.6 6.9 L32.45 6.85 32.4 6.85 30.6 6.7 29.95 6.75 23.6 7.65 22.65 7.9 20.4 8.6 20.35 8.6 19.55 8.9 Q18.5 9.35 18.15 9.55 L18.05 9.6 17.95 9.65 17.55 9.85 16.75 10.2 16.7 10.25 16.45 10.4 16.4 10.4 12.35 12.55 Q11.6 12.95 11.35 13.2 10.55 13.95 10.5 14.4 L10.5 14.45 10.55 14.45 10.6 14.7 10.8 15.2 10.85 15.2 10.95 15.55 11.15 16.0 11.35 16.35 11.7 17.05 11.75 17.15 11.95 17.55 Q12.6 19.2 12.6 20.25 12.6 21.3 12.2 21.8 L12.05 21.95 11.4 22.05 11.4 21.95 11.75 21.6 Q12.1 21.1 12.1 20.15 12.1 19.15 11.5 17.55 L11.45 17.4 11.4 17.5 11.4 17.45 11.2 17.05 10.4 15.5 10.35 15.5 M13.95 23.4 L13.6 23.0 13.55 22.8 13.55 22.75 13.65 22.3 Q13.85 21.0 15.3 19.2 L16.45 18.05 17.05 18.6 15.65 20.0 Q14.6 21.3 14.2 22.4 L14.15 22.4 14.0 23.0 13.95 23.4 M11.95 17.55 L11.5 17.55 11.95 17.55 M19.8 8.35 L20.4 8.6 19.8 8.35 M34.1 18.55 L34.7 19.25 34.1 18.55 M33.05 6.65 L32.45 6.85 33.05 6.65" fill="#c47909" fill-rule="evenodd" stroke="none"/>
      <path d="M20.4 9.6 L19.8 9.8 19.4 10.0 18.2 10.55 18.15 10.55 17.5 10.8 17.2 11.0 17.0 11.05 14.75 12.2 Q12.95 13.15 12.35 13.15 L12.2 13.1 12.2 12.85 12.35 12.55 16.4 10.4 16.45 10.4 16.7 10.25 16.75 10.2 17.55 9.85 17.95 9.65 18.05 9.6 18.15 9.55 Q18.5 9.35 19.55 8.9 L20.35 8.6 20.4 8.6 20.4 9.6 20.4 8.6 22.65 7.9 23.6 7.65 23.05 7.95 21.05 9.2 20.85 9.4 20.85 9.45 20.4 9.6 M18.25 18.95 L17.35 18.35 Q18.3 17.65 19.45 17.35 L19.45 17.45 Q19.45 17.9 19.9 18.25 19.0 18.5 18.25 18.95 M17.05 18.6 Q17.6 18.85 18.15 19.05 17.8 19.2 17.55 19.45 16.1 20.5 15.75 21.2 L15.3 22.05 14.95 22.45 14.5 22.65 14.25 22.5 14.2 22.4 Q14.6 21.3 15.65 20.0 L17.05 18.6" fill="#523101" fill-rule="evenodd" stroke="none"/>
      <path d="M20.35 18.5 Q19.4 18.65 18.55 19.2 17.4 19.95 16.45 21.45 L15.95 22.5 15.65 23.05 14.15 23.05 14.15 23.45 13.95 23.4 14.0 23.0 14.15 22.4 14.2 22.4 14.25 22.5 14.5 22.65 14.95 22.45 15.3 22.05 15.75 21.2 Q16.1 20.5 17.55 19.45 17.8 19.2 18.15 19.05 L18.55 19.2 18.25 18.95 Q19.0 18.5 19.9 18.25 L20.15 18.4 20.35 18.5 M21.2 10.0 L20.4 10.25 20.25 10.3 18.3 10.9 17.85 11.1 17.7 11.15 17.4 11.3 17.3 11.35 12.9 13.65 11.75 14.5 10.8 15.2 10.6 14.7 10.55 14.45 10.5 14.4 Q10.55 13.95 11.35 13.2 11.6 12.95 12.35 12.55 L12.2 12.85 12.2 13.1 12.35 13.15 Q12.95 13.15 14.75 12.2 L17.0 11.05 17.2 11.0 17.5 10.8 18.15 10.55 18.2 10.55 19.4 10.0 19.8 9.8 20.4 9.6 20.4 10.25 20.4 9.6 20.85 9.45 20.85 9.95 21.2 10.0" fill="#402501" fill-rule="evenodd" stroke="none"/>
      <path d="M36.15 10.1 L35.2 9.6 34.6 9.35 32.35 8.75 31.45 8.7 29.15 8.75 Q25.25 9.0 21.55 9.95 L21.2 10.0 20.85 9.95 20.85 9.45 21.2 9.35 22.75 8.9 26.85 7.95 29.5 7.75 29.6 7.75 32.35 8.05 32.6 8.1 34.55 8.7 35.95 9.95 36.15 10.1 M32.35 8.75 L32.35 8.05 32.35 8.75" fill="#523003" fill-rule="evenodd" stroke="none"/>
      <path d="M39.7 13.6 Q39.45 12.8 38.8 12.1 L37.55 11.0 36.15 10.1 35.95 9.95 34.55 8.7 32.6 8.1 32.35 8.05 29.6 7.75 29.5 7.75 26.85 7.95 22.75 8.9 21.2 9.35 20.85 9.45 20.85 9.4 21.05 9.2 23.05 7.95 23.6 7.65 29.95 6.75 30.6 6.7 32.4 6.85 32.45 6.85 32.6 6.9 Q36.35 7.45 38.55 9.25 L38.9 9.55 39.65 10.35 39.9 10.7 40.1 11.2 40.15 11.5 39.9 13.1 39.7 13.6 M32.4 6.9 L32.4 6.85 32.4 6.9 32.45 6.85 32.4 6.9 32.35 8.05 32.4 6.9" fill="#5e3a04" fill-rule="evenodd" stroke="none"/>
      <path d="M40.6 12.05 L40.65 12.2 40.8 13.35 40.7 13.9 Q40.35 15.45 39.45 16.8 L39.45 16.1 39.4 15.65 39.35 15.55 39.4 15.6 39.9 14.75 40.0 14.55 40.05 14.35 40.4 13.55 40.5 12.9 40.6 12.05 M16.45 18.05 L16.45 18.0 17.2 18.05 17.35 18.35 18.25 18.95 18.55 19.2 18.15 19.05 Q17.6 18.85 17.05 18.6 L16.45 18.05 M11.0 19.05 L10.55 18.95 11.4 17.5 11.45 17.5 11.0 19.05 M19.9 18.25 Q19.45 17.9 19.45 17.45 L19.45 17.35 21.1 17.05 21.45 17.05 Q22.5 17.05 26.3 18.3 L29.05 19.15 Q28.9 19.3 28.9 19.5 28.9 19.85 29.25 20.3 L25.6 19.35 24.9 19.1 24.05 18.8 Q22.15 18.05 21.4 18.05 L19.9 18.25 M39.4 15.65 L39.4 15.6 39.4 15.65" fill="#663e04" fill-rule="evenodd" stroke="none"/>
      <path d="M40.8 13.35 L40.8 13.5 40.8 14.0 Q40.65 16.25 39.55 17.75 L37.75 19.45 38.9 18.1 39.45 16.8 Q40.35 15.45 40.7 13.9 L40.8 13.35 M30.55 20.95 L29.75 20.85 25.8 19.75 Q21.85 18.45 20.95 18.45 L20.35 18.5 20.15 18.4 19.9 18.25 21.4 18.05 Q22.15 18.05 24.05 18.8 L24.9 19.1 25.6 19.35 29.25 20.3 29.6 20.7 30.55 20.95" fill="#573303" fill-rule="evenodd" stroke="none"/>
      <path d="M11.4 21.95 L11.25 21.5 11.5 21.5 11.5 20.85 11.05 20.85 10.8 19.9 11.0 19.05 11.45 17.5 11.4 17.5 11.45 17.4 11.5 17.55 Q12.1 19.15 12.1 20.15 12.1 21.1 11.75 21.6 L11.4 21.95 M10.55 18.95 Q10.2 17.7 10.2 16.45 L10.35 15.5 10.4 15.5 11.2 17.05 11.4 17.45 11.4 17.5 11.4 17.45 11.4 17.5 10.55 18.95 M29.05 19.15 L29.25 19.2 30.35 19.45 31.3 19.55 31.55 19.55 34.15 19.35 34.25 19.35 34.7 19.25 35.65 19.0 Q37.3 18.5 38.15 17.4 L39.0 16.25 39.4 15.65 39.45 16.1 39.45 16.8 38.65 17.75 Q37.4 19.25 35.55 19.95 35.3 20.0 35.0 20.15 L34.7 20.2 32.05 20.55 29.25 20.3 Q28.9 19.85 28.9 19.5 28.9 19.3 29.05 19.15 M34.7 20.2 L34.7 19.25 34.7 20.2 M10.55 14.45 L10.5 14.45 10.55 14.45 M11.45 17.5 L11.5 17.55 11.45 17.5 11.45 17.4 11.45 17.5" fill="#8a5507" fill-rule="evenodd" stroke="none"/>
      <path d="M37.75 19.45 Q37.1 19.9 36.35 20.15 L35.4 20.5 34.7 20.65 33.05 20.95 32.8 20.95 31.45 21.0 30.95 21.0 30.55 20.95 29.6 20.7 29.25 20.3 32.05 20.55 34.7 20.2 35.0 20.15 Q35.3 20.0 35.55 19.95 37.4 19.25 38.65 17.75 L39.45 16.8 38.9 18.1 37.75 19.45 M34.7 20.65 L34.7 20.2 34.7 20.65" fill="#7a4b06" fill-rule="evenodd" stroke="none"/>
      <path d="M10.5 14.4 L10.55 14.45 10.5 14.45 10.5 14.4" fill="#925a07" fill-rule="evenodd" stroke="none"/>
      <path d="M10.35 15.5 Q10.0 14.9 10.1 14.4 L10.15 14.0 11.05 12.85 Q11.75 12.2 16.1 10.05 L16.25 10.0 16.45 9.9 17.3 9.5 17.75 9.25 18.15 9.05 19.25 8.55 19.75 8.4 19.8 8.35 22.35 7.55 23.1 7.35 23.35 7.3 30.2 6.35 31.65 6.45 33.05 6.65 Q36.35 7.1 38.45 8.65 L38.85 9.0 39.95 10.05 39.9 9.95 Q40.8 11.5 40.6 12.05 L40.65 12.2 M40.8 13.35 L40.8 13.5 40.8 14.0 Q40.65 16.25 39.55 17.75 L37.75 19.45 Q37.1 19.9 36.35 20.15 L35.4 20.5 34.7 20.65 33.05 20.95 32.8 20.95 31.45 21.0 30.95 21.0 30.55 20.95 29.75 20.85 25.8 19.75 Q21.85 18.45 20.95 18.45 L20.35 18.5 Q19.4 18.65 18.55 19.2 17.4 19.95 16.45 21.45 L15.95 22.5 15.65 23.05 M14.15 23.45 L13.95 23.4 13.6 23.0 13.55 22.8 13.55 22.75 13.65 22.3 Q13.85 21.0 15.3 19.2 L16.45 18.05 16.45 18.0 17.2 18.05 16.95 17.6 Q18.65 16.35 20.75 16.3 L21.1 16.25 Q22.15 16.25 25.95 17.55 L26.05 17.55 29.95 18.7 30.9 18.8 31.2 18.8 33.0 18.7 33.55 18.65 34.1 18.55 35.3 18.25 Q36.95 17.7 37.8 16.6 L38.65 15.45 39.7 13.6 Q39.45 12.8 38.8 12.1 L37.55 11.0 36.15 10.1 35.2 9.6 34.6 9.35 32.35 8.75 31.45 8.7 29.15 8.75 Q25.25 9.0 21.55 9.95 L21.2 10.0 20.4 10.25 20.25 10.3 18.3 10.9 17.85 11.1 17.7 11.15 17.4 11.3 17.3 11.35 12.9 13.65 11.75 14.5 10.8 15.2 M10.85 15.2 L11.15 16.0 11.35 16.35 11.7 17.05 11.75 17.15 11.95 17.55 Q12.6 19.2 12.6 20.25 12.6 21.3 12.2 21.8 L12.05 21.95 11.4 22.05 11.4 21.95 11.25 21.5 M11.05 20.85 L10.8 19.9 11.0 19.05 10.55 18.95 Q10.2 17.7 10.2 16.45 L10.35 15.5 M11.5 17.55 L11.95 17.55 M20.4 9.6 L20.4 8.6 19.8 8.35 M10.5 14.4 L10.55 14.45 M20.4 9.6 L20.4 10.25 M34.7 19.25 L34.1 18.55 M32.35 8.05 L32.35 8.75 M32.45 6.85 L32.4 6.9 32.35 8.05 M32.4 6.85 L32.4 6.9 M32.45 6.85 L33.05 6.65 M40.0 14.55 L39.9 14.75 M39.4 15.6 L39.4 15.65 M34.7 19.25 L34.7 20.2 34.7 20.65 M40.6 12.05 L40.5 12.9 M10.5 14.45 L10.5 14.4 M10.95 15.55 L10.85 15.2 M11.45 17.5 L11.45 17.4 M11.5 17.55 L11.45 17.5 M11.4 17.5 L11.4 17.45" fill="none" stroke="#000000" stroke-linecap="round" stroke-linejoin="round" stroke-opacity="0.3019608" stroke-width="0.05"/>
      <path d="M35.25 19.8 L35.25 19.7 Q35.25 18.7 35.75 17.75 36.45 16.8 37.45 16.45 L38.5 16.35 38.8 16.4 38.95 16.45 39.1 16.6 39.2 16.65 39.15 16.65 39.5 17.1 Q39.5 17.45 38.1 17.85 L37.7 18.0 Q36.7 18.35 36.7 19.2 L36.55 20.1 Q36.35 20.65 35.95 20.65 L35.75 20.6 35.25 19.8 M35.8 20.15 L36.05 20.0 36.1 19.85 36.05 19.6 35.8 19.55 Q35.5 19.55 35.5 19.85 35.5 20.15 35.8 20.15 L35.8 20.2 35.8 20.15 M35.95 19.3 L36.2 18.7 Q36.35 18.0 37.1 17.5 37.85 16.95 38.65 16.9 38.65 16.0 37.15 16.8 35.6 17.55 35.65 18.95 L35.7 19.15 35.95 19.3" fill="#5e5e5e" fill-rule="evenodd" stroke="none"/>
      <path d="M39.2 16.65 L39.5 16.95 39.55 17.0 39.8 17.4 39.8 17.5 39.85 17.5 39.95 18.0 39.3 18.95 39.0 18.95 38.7 18.45 38.2 18.45 38.1 18.45 37.5 19.05 37.3 19.9 37.3 19.95 Q37.3 20.25 37.45 20.45 L37.5 20.5 37.6 20.55 37.15 21.25 36.3 21.65 35.85 21.35 35.35 20.5 35.25 20.15 35.25 19.85 35.25 19.8 35.75 20.6 35.95 20.65 Q36.35 20.65 36.55 20.1 L36.7 19.2 Q36.7 18.35 37.7 18.0 L38.1 17.85 Q39.5 17.45 39.5 17.1 L39.15 16.65 39.2 16.65" fill="#4f4f4f" fill-rule="evenodd" stroke="none"/>
      <path d="M37.3 19.95 L37.3 19.9 37.9 19.3 38.2 18.45 38.7 18.45 39.0 18.95 39.0 19.05 38.7 19.9 38.1 20.5 37.6 20.55 37.5 20.5 37.45 20.45 Q37.3 20.25 37.3 19.95" fill="#1c1c1c" fill-rule="evenodd" stroke="none"/>
      <path d="M39.95 18.0 L39.95 18.15 39.95 18.5 Q39.95 19.4 39.35 20.35 L38.1 21.6 36.9 21.85 36.3 21.65 37.15 21.25 37.6 20.55 38.1 20.5 38.7 19.9 39.0 19.05 39.0 18.95 39.3 18.95 39.95 18.0" fill="#363636" fill-rule="evenodd" stroke="none"/>
      <path d="M35.95 19.3 L35.7 19.15 35.65 18.95 Q35.6 17.55 37.15 16.8 38.65 16.0 38.65 16.9 37.85 16.95 37.1 17.5 36.35 18.0 36.2 18.7 L35.95 19.3 M35.8 20.15 Q35.5 20.15 35.5 19.85 35.5 19.55 35.8 19.55 L36.05 19.6 36.1 19.85 36.05 20.0 35.8 20.15" fill="#aeaeae" fill-rule="evenodd" stroke="none"/>
      <path d="M35.25 19.8 L35.25 19.7 Q35.25 18.7 35.75 17.75 36.45 16.8 37.45 16.45 L38.5 16.35 38.8 16.4 38.95 16.45 39.1 16.6 39.2 16.65 39.5 16.95 39.55 17.0 39.8 17.4 39.8 17.5 39.85 17.5 39.95 18.0 39.95 18.15 39.95 18.5 Q39.95 19.4 39.35 20.35 L38.1 21.6 36.9 21.85 36.3 21.65 35.85 21.35 35.35 20.5 35.25 20.15 35.25 19.85 35.25 19.8 M38.2 18.45 L37.9 19.3 37.3 19.9 37.3 19.95 Q37.3 20.25 37.45 20.45 L37.5 20.5 37.6 20.55 38.1 20.5 38.7 19.9 39.0 19.05 39.0 18.95 38.7 18.45 38.2 18.45 38.1 18.45 37.5 19.05 37.3 19.9 37.3 19.95" fill="none" stroke="#000000" stroke-linecap="round" stroke-linejoin="round" stroke-opacity="0.3019608" stroke-width="0.05"/>
      <path d="M38.5 18.2 L38.65 18.25 38.8 18.55 Q39.05 19.3 38.45 19.85 L37.55 20.15 37.15 20.0 37.05 19.5 Q37.05 18.95 37.45 18.55 37.8 18.2 38.35 18.2 L38.5 18.2 M37.85 19.3 Q38.25 19.3 38.25 18.9 38.25 18.45 37.85 18.45 37.45 18.45 37.45 18.9 37.45 19.3 37.85 19.3" fill="#945b07" fill-rule="evenodd" stroke="none"/>
      <path d="M37.85 19.3 Q37.45 19.3 37.45 18.9 37.45 18.45 37.85 18.45 38.25 18.45 38.25 18.9 38.25 19.3 37.85 19.3" fill="#f7a833" fill-rule="evenodd" stroke="none"/>
      <path d="M38.65 18.25 L39.25 18.55 Q39.65 18.95 39.65 19.5 39.65 20.0 39.25 20.4 38.9 20.75 38.35 20.75 37.8 20.75 37.45 20.4 L37.15 20.0 37.55 20.15 38.45 19.85 Q39.05 19.3 38.8 18.55 L38.65 18.25" fill="#663e04" fill-rule="evenodd" stroke="none"/>
      <path d="M38.65 18.25 L39.25 18.55 Q39.65 18.95 39.65 19.5 39.65 20.0 39.25 20.4 38.9 20.75 38.35 20.75 37.8 20.75 37.45 20.4 L37.15 20.0 37.05 19.5 Q37.05 18.95 37.45 18.55 37.8 18.2 38.35 18.2 L38.5 18.2" fill="none" stroke="#000000" stroke-linecap="round" stroke-linejoin="round" stroke-opacity="0.3019608" stroke-width="0.05"/>
      <path d="M13.85 24.9 L13.5 24.5 Q12.75 23.7 12.2 23.55 L12.0 23.45 11.65 23.3 Q10.2 22.6 7.95 22.75 L7.95 22.7 8.95 22.1 Q11.55 22.0 13.05 22.9 L13.2 23.0 Q13.75 23.1 14.5 23.9 L15.8 25.6 15.75 25.65 15.5 25.8 14.6 25.35 13.95 25.0 13.85 24.9 M13.05 22.9 L12.0 23.45 13.05 22.9" fill="#946e3c" fill-rule="evenodd" stroke="none"/>
      <path d="M11.65 23.3 L9.6 23.05 Q8.3 23.1 7.35 23.55 L7.15 23.2 7.85 22.75 7.95 22.75 Q10.2 22.6 11.65 23.3 M4.75 26.35 L4.65 26.2 4.95 25.65 5.4 25.0 5.8 24.5 Q6.05 23.25 7.15 23.2 L7.35 23.55 6.85 23.8 6.8 23.85 6.35 24.15 5.95 24.55 5.8 24.5 5.95 24.55 Q5.2 25.25 4.75 26.35" fill="#b38349" fill-rule="evenodd" stroke="none"/>
      <path d="M11.65 23.3 L12.0 23.45 12.2 23.55 Q12.75 23.7 13.5 24.5 L13.85 24.9 13.95 25.0 14.85 26.3 Q14.2 26.55 13.65 27.45 14.2 26.55 14.85 26.3 L14.9 26.35 15.3 27.5 14.85 28.5 13.85 28.45 14.85 28.5 13.65 30.6 13.85 28.75 13.85 28.45 13.8 28.05 13.75 27.8 13.65 27.45 Q13.25 26.3 12.35 25.15 11.75 24.45 11.35 24.3 10.15 23.45 8.0 23.55 L7.55 23.85 7.35 23.55 7.55 23.85 7.15 24.15 6.85 23.8 7.15 24.15 6.9 24.45 6.5 24.9 6.05 25.6 Q5.3 26.7 5.1 27.5 L5.0 27.95 5.0 28.4 4.95 29.15 4.6 29.15 4.9 26.6 4.85 26.55 4.75 26.35 Q5.2 25.25 5.95 24.55 L6.35 24.15 6.8 23.85 6.85 23.8 7.35 23.55 Q8.3 23.1 9.6 23.05 L11.65 23.3 M3.8 31.75 L3.75 31.25 3.8 30.0 4.8 29.95 4.75 30.75 4.75 31.15 4.85 32.1 4.95 32.8 4.05 32.05 3.8 31.75 M4.05 29.1 L4.05 29.05 4.1 29.1 4.05 29.1 M14.7 27.9 L13.8 28.05 14.7 27.9 M14.45 27.35 L13.75 27.8 14.45 27.35 M6.9 24.45 L6.35 24.15 6.9 24.45 M6.5 24.9 L5.95 24.55 6.5 24.9" fill="#806134" fill-rule="evenodd" stroke="none"/>
      <path d="M14.85 26.3 L13.95 25.0 14.6 25.35 15.5 25.8 15.75 25.65 15.8 25.6 15.95 25.9 16.05 26.1 Q16.7 26.85 16.45 27.85 L16.45 27.95 16.25 29.85 16.05 30.1 15.25 30.6 15.45 28.55 15.45 28.5 15.3 27.5 14.9 26.35 14.85 26.3 M16.05 26.1 L14.9 26.35 16.05 26.1 M16.45 27.85 L15.45 28.5 16.45 27.85" fill="#73522f" fill-rule="evenodd" stroke="none"/>
      <path d="M14.7 32.55 L13.25 32.35 13.65 30.6 14.85 28.5 15.3 27.5 15.45 28.5 15.45 28.55 15.25 30.6 14.7 32.55 M12.8 33.7 L13.9 34.45 13.9 34.5 Q13.1 36.05 12.1 36.85 L11.85 37.05 Q11.4 37.85 10.45 37.7 L9.45 37.8 8.45 37.8 8.0 37.65 7.95 37.65 8.0 37.15 8.05 36.9 8.05 36.85 8.7 36.95 9.15 36.95 10.3 36.75 10.8 36.5 10.95 36.4 11.2 36.2 Q12.1 35.35 12.8 33.7 M6.6 36.05 L6.55 36.05 6.1 36.75 Q5.3 36.1 4.75 34.95 L4.35 34.5 Q4.05 34.2 4.05 33.25 L3.85 32.35 3.8 31.75 4.05 32.05 4.95 32.8 5.0 32.95 5.1 33.5 5.25 33.85 5.35 34.05 5.45 34.3 Q5.9 35.4 6.6 36.05 M3.8 30.0 L3.9 29.5 3.9 29.35 4.05 29.1 4.1 29.1 4.6 29.25 4.6 29.15 4.95 29.15 4.85 29.45 4.8 29.95 3.8 30.0 M15.45 28.5 L14.85 28.5 15.45 28.5 M5.45 34.3 L4.75 34.95 5.45 34.3 M4.75 34.1 L5.25 33.85 4.75 34.1 M4.75 33.65 L5.1 33.5 4.75 33.65 M4.05 33.25 L5.0 32.95 4.05 33.25 M11.2 36.2 L11.6 36.75 10.95 36.4 11.6 36.75 11.2 36.2 M11.85 37.05 L11.6 36.75 11.85 37.05 M10.9 36.95 L10.8 36.5 10.9 36.95 M10.3 36.75 L10.45 37.7 10.3 36.75" fill="#664c2a" fill-rule="evenodd" stroke="none"/>
      <path d="M16.25 29.85 L15.3 32.9 15.3 33.05 14.7 32.55 15.25 30.6 16.05 30.1 16.25 29.85 M13.9 34.5 L14.55 34.5 Q13.5 36.25 12.1 36.85 13.1 36.05 13.9 34.5" fill="#543c22" fill-rule="evenodd" stroke="none"/>
      <path d="M7.55 23.85 L8.0 23.55 Q10.15 23.45 11.35 24.3 11.75 24.45 12.35 25.15 13.25 26.3 13.65 27.45 L13.75 27.8 13.8 28.05 13.85 28.45 13.85 28.75 13.65 30.6 13.25 32.35 12.95 33.15 12.9 33.3 12.9 33.4 12.8 33.7 Q12.1 35.35 11.2 36.2 L10.95 36.4 10.8 36.5 10.3 36.75 9.15 36.95 8.7 36.95 8.05 36.85 8.5 36.7 7.1 35.95 6.6 36.05 Q5.9 35.4 5.45 34.3 L5.35 34.05 5.25 33.85 5.1 33.5 5.0 32.95 4.95 32.8 4.85 32.1 4.75 31.15 4.75 30.75 4.8 29.95 4.85 29.45 4.95 29.15 5.0 28.4 5.0 27.95 5.1 27.5 Q5.3 26.7 6.05 25.6 L6.5 24.9 6.9 24.45 7.15 24.15 7.55 23.85" fill="#332515" fill-rule="evenodd" stroke="none"/>
      <path d="M13.85 24.9 L13.5 24.5 Q12.75 23.7 12.2 23.55 L12.0 23.45 11.65 23.3 M7.55 23.85 L8.0 23.55 Q10.15 23.45 11.35 24.3 11.75 24.45 12.35 25.15 13.25 26.3 13.65 27.45 L13.75 27.8 13.8 28.05 13.85 28.45 M14.85 26.3 L13.95 25.0 M13.05 22.9 Q11.55 22.0 8.95 22.1 L7.95 22.7 7.95 22.75 Q10.2 22.6 11.65 23.3 M13.05 22.9 L13.2 23.0 Q13.75 23.1 14.5 23.9 L15.8 25.6 15.95 25.9 16.05 26.1 Q16.7 26.85 16.45 27.85 L16.45 27.95 16.25 29.85 15.3 32.9 15.3 33.05 M14.55 34.5 Q13.5 36.25 12.1 36.85 L11.85 37.05 Q11.4 37.85 10.45 37.7 L9.45 37.8 8.45 37.8 M6.1 36.75 Q5.3 36.1 4.75 34.95 L4.35 34.5 Q4.05 34.2 4.05 33.25 L3.85 32.35 3.8 31.75 3.75 31.25 3.8 30.0 3.9 29.5 3.9 29.35 4.05 29.1 4.05 29.05 M4.65 26.2 L4.95 25.65 5.4 25.0 5.8 24.5 Q6.05 23.25 7.15 23.2 L7.85 22.75 7.95 22.75 M14.85 26.3 L14.9 26.35 M15.3 27.5 L14.9 26.35 M15.45 28.5 L15.45 28.55 15.25 30.6 14.7 32.55 M13.25 32.35 L13.65 30.6 13.85 28.75 13.85 28.45 M15.45 28.5 L15.3 27.5 M13.9 34.5 Q13.1 36.05 12.1 36.85 M7.15 24.15 L7.55 23.85 M7.15 24.15 L6.9 24.45 6.5 24.9 6.05 25.6 Q5.3 26.7 5.1 27.5 L5.0 27.95 5.0 28.4 4.95 29.15 4.85 29.45 4.8 29.95 4.75 30.75 4.75 31.15 4.85 32.1 4.95 32.8 5.0 32.95 5.1 33.5 5.25 33.85 5.35 34.05 5.45 34.3 Q5.9 35.4 6.6 36.05 M8.05 36.85 L8.7 36.95 9.15 36.95 10.3 36.75 10.8 36.5 10.95 36.4 11.2 36.2 Q12.1 35.35 12.8 33.7" fill="none" stroke="#000000" stroke-linecap="round" stroke-linejoin="round" stroke-opacity="0.3019608" stroke-width="0.05"/>
      <path d="M4.05 29.1 L4.1 29.1" fill="none" stroke="#000000" stroke-linecap="round" stroke-linejoin="round" stroke-width="0.05"/>
      <path d="M7.35 23.55 L7.55 23.85 M13.65 27.45 Q14.2 26.55 14.85 26.3 M12.0 23.45 L13.05 22.9 M14.9 26.35 L16.05 26.1 M13.8 28.05 L14.7 27.9 M13.75 27.8 L14.45 27.35 M13.85 28.45 L14.85 28.5 15.45 28.5 16.45 27.85 M7.35 23.55 L7.15 23.2 M6.85 23.8 L7.15 24.15 M6.8 23.85 L6.85 23.8 M6.35 24.15 L6.9 24.45 M5.8 24.5 L5.95 24.55 6.5 24.9 M5.1 33.5 L4.75 33.65 M5.25 33.85 L4.75 34.1 M4.75 34.95 L5.45 34.3 M10.95 36.4 L11.6 36.75 11.2 36.2 M5.0 32.95 L4.05 33.25 M10.45 37.7 L10.3 36.75 M10.8 36.5 L10.9 36.95 M11.6 36.75 L11.85 37.05" fill="none" stroke="#000000" stroke-linecap="round" stroke-linejoin="round" stroke-opacity="0.15294118" stroke-width="0.05"/>
      <path d="M15.6 32.1 L15.65 31.85 16.0 32.1 16.35 32.95 16.55 33.3 15.5 33.05 14.35 32.75 Q14.5 32.55 14.7 32.45 14.5 32.55 14.35 32.75 L14.25 32.75 14.25 32.8 13.85 33.85 13.5 34.7 13.8 32.45 13.3 32.2 13.25 32.2 13.3 31.75 14.4 32.3 14.45 32.3 14.4 32.3 14.45 32.3 14.4 32.35 14.45 32.35 14.7 32.45 15.35 32.65 15.5 32.65 15.95 32.75 15.6 32.1 M13.8 32.45 L14.25 32.8 13.8 32.45" fill="#c47909" fill-rule="evenodd" stroke="none"/>
      <path d="M12.95 35.9 L12.25 34.55 Q12.9 33.5 13.2 32.3 L13.25 32.2 13.3 32.2 13.8 32.45 13.5 34.7 13.25 35.25 12.95 35.9" fill="#925a07" fill-rule="evenodd" stroke="none"/>
      <path d="M14.35 32.75 L15.5 33.05 Q15.3 34.35 14.35 35.05 L13.5 34.7 13.85 33.85 14.25 32.8 14.25 32.75 14.35 32.75 M14.45 32.3 L14.45 32.35 14.45 32.3 14.45 32.35 14.4 32.35 14.45 32.3" fill="#5e3a04" fill-rule="evenodd" stroke="none"/>
      <path d="M15.5 33.05 L16.55 33.3 16.6 33.3 Q15.5 34.8 15.3 35.4 L15.15 35.7 13.0 35.9 12.95 35.9 13.0 35.9 12.95 35.9 13.0 35.9 12.95 35.9 13.25 35.25 13.5 34.7 14.35 35.05 Q15.3 34.35 15.5 33.05" fill="#452a02" fill-rule="evenodd" stroke="none"/>
      <path d="M15.6 32.1 L15.95 32.75 15.5 32.65 15.35 32.65 15.6 32.1" fill="#2b1a01" fill-rule="evenodd" stroke="none"/>
      <path d="M16.55 33.3 L16.35 32.95 16.0 32.1 15.65 31.85 15.6 32.1 15.35 32.65 14.7 32.45 Q14.5 32.55 14.35 32.75 M15.95 32.75 L15.5 32.65 15.35 32.65 M16.55 33.3 L16.6 33.3 Q15.5 34.8 15.3 35.4 L15.15 35.7 13.0 35.9 12.95 35.9 12.25 34.55 Q12.9 33.5 13.2 32.3 L13.25 32.2 13.3 31.75 14.4 32.3 14.45 32.3 14.45 32.35 14.7 32.45 M14.4 32.3 L14.45 32.3 M13.8 32.45 L13.3 32.2 M14.25 32.8 L13.8 32.45 M12.95 35.9 L13.0 35.9" fill="none" stroke="#000000" stroke-linecap="round" stroke-linejoin="round" stroke-opacity="0.3019608" stroke-width="0.05"/>
      <path d="M8.55 36.85 L7.0 36.7 6.05 36.35 4.8 37.55 4.75 37.5 6.1 35.5 6.15 35.5 Q7.2 36.5 8.5 36.75 L8.55 36.75 8.55 36.85" fill="#c47909" fill-rule="evenodd" stroke="none"/>
      <path d="M4.8 37.55 L6.05 36.35 7.0 36.7 8.55 36.85 8.45 37.3 8.55 36.85 8.55 36.75 8.6 36.75 9.25 36.5 9.35 37.0 8.85 37.15 8.75 37.8 8.6 38.7 9.15 38.3 9.15 38.25 9.5 37.8 9.55 37.8 9.95 37.7 9.15 38.75 8.2 39.35 8.2 39.2 8.45 37.3 Q8.1 38.5 7.1 38.35 L6.6 38.3 5.05 37.8 4.8 37.55 M8.2 39.2 L8.6 38.7 8.2 39.2 M8.85 37.15 L8.6 36.75 8.85 37.15" fill="#925a07" fill-rule="evenodd" stroke="none"/>
      <path d="M8.55 36.75 L8.5 36.75 Q7.2 36.5 6.15 35.5 L6.95 35.3 9.25 36.5 8.6 36.75 8.55 36.75" fill="#452a02" fill-rule="evenodd" stroke="none"/>
      <path d="M8.75 37.8 L9.5 37.8 9.15 38.25 9.15 38.3 8.6 38.7 8.75 37.8" fill="#2b1a01" fill-rule="evenodd" stroke="none"/>
      <path d="M5.05 37.8 L6.6 38.3 7.1 38.35 Q8.1 38.5 8.45 37.3 L8.2 39.2 8.2 39.35 Q6.4 38.75 5.05 37.8" fill="#5e3a04" fill-rule="evenodd" stroke="none"/>
      <path d="M6.15 35.5 L6.1 35.5" fill="none" stroke="#000000" stroke-linecap="round" stroke-linejoin="round" stroke-width="0.05"/>
      <path d="M4.8 37.55 L5.05 37.8 M8.45 37.3 L8.55 36.85 8.55 36.75 8.5 36.75 Q7.2 36.5 6.15 35.5 M6.1 35.5 L4.75 37.5 4.8 37.55 M9.25 36.5 L6.95 35.3 6.15 35.5 M8.55 36.75 L8.6 36.75 9.25 36.5 9.35 37.0 8.85 37.15 8.75 37.8 9.5 37.8 9.55 37.8 9.95 37.7 9.15 38.75 8.2 39.35 Q6.4 38.75 5.05 37.8 M9.5 37.8 L9.15 38.25 9.15 38.3 8.6 38.7 8.2 39.2 8.2 39.35 M8.75 37.8 L8.6 38.7 M8.2 39.2 L8.45 37.3 M8.6 36.75 L8.85 37.15" fill="none" stroke="#000000" stroke-linecap="round" stroke-linejoin="round" stroke-opacity="0.3019608" stroke-width="0.05"/>
      <path d="M4.65 26.3 L5.7 26.95 5.75 27.0 5.0 26.95 3.35 26.05 4.25 25.55 5.15 25.4 5.0 25.6 4.1 26.05 4.65 26.3 M5.7 26.95 L4.1 26.05 5.7 26.95" fill="#c47909" fill-rule="evenodd" stroke="none"/>
      <path d="M5.0 25.6 L5.0 25.55 4.65 26.3 4.1 26.05 5.0 25.6" fill="#2b1a01" fill-rule="evenodd" stroke="none"/>
      <path d="M3.3 29.75 L3.35 29.6 3.85 29.25 Q4.4 28.7 4.4 27.7 L4.15 27.1 3.45 26.65 3.35 26.05 5.0 26.95 4.2 29.65 4.0 29.75 3.3 29.75" fill="#925a07" fill-rule="evenodd" stroke="none"/>
      <path d="M4.1 30.1 L4.05 30.1 3.25 29.9 3.3 29.75 4.0 29.75 4.2 29.65 4.1 30.1" fill="#5e3a04" fill-rule="evenodd" stroke="none"/>
      <path d="M3.35 29.6 L3.5 27.7 3.55 27.65 3.45 26.65 4.15 27.1 4.4 27.7 Q4.4 28.7 3.85 29.25 L3.35 29.6" fill="#b87209" fill-rule="evenodd" stroke="none"/>
      <path d="M5.2 28.75 L4.75 30.3 4.15 30.1 4.1 30.1 4.2 29.65 Q4.85 29.3 5.2 28.75" fill="#452a02" fill-rule="evenodd" stroke="none"/>
      <path d="M5.75 27.0 L5.2 28.75 Q4.85 29.3 4.2 29.65 L5.0 26.95 5.75 27.0" fill="#784a06" fill-rule="evenodd" stroke="none"/>
      <path d="M5.7 26.95 L5.75 27.0 5.2 28.75 4.75 30.3 4.15 30.1 M4.05 30.1 L3.25 29.9 3.3 29.75 3.35 29.6 3.5 27.7 3.55 27.65 3.45 26.65 3.35 26.05 4.25 25.55 5.15 25.4 5.0 25.6 5.0 25.55 4.65 26.3 M4.1 26.05 L5.7 26.95 M5.0 26.95 L5.75 27.0 M4.1 30.1 L4.2 29.65 5.0 26.95 3.35 26.05 M4.1 26.05 L5.0 25.6" fill="none" stroke="#000000" stroke-linecap="round" stroke-linejoin="round" stroke-opacity="0.3019608" stroke-width="0.05"/>
      <path d="M5.1 27.0 L5.1 26.95 5.1 27.0" fill="#fd952d" fill-opacity="0.8" fill-rule="evenodd" stroke="none"/>
      <path d="M10.6 24.95 L10.25 24.85 10.15 24.75 9.2 24.35 8.95 24.25 8.6 24.0 8.9 23.95 12.6 25.4 12.55 25.9 11.9 25.6 10.9 25.1 10.6 24.95 M11.45 34.4 L12.4 30.8 11.6 35.05 11.45 34.4 M11.7 29.1 L11.95 28.3 12.15 27.35 12.95 26.9 13.6 27.05 13.6 27.1 12.2 27.65 11.7 29.1 M7.0 26.55 L8.2 28.4 8.7 29.15 8.15 28.55 8.15 28.5 8.05 28.45 7.4 27.7 6.3 26.5 5.6 26.0 6.25 25.9 7.0 26.55 M6.85 33.6 L6.95 33.35 6.9 33.7 6.75 33.9 6.3 35.25 6.15 35.5 5.4 35.6 5.7 35.35 6.1 34.95 6.7 33.85 6.7 33.9 6.85 33.6" fill="#948052" fill-rule="evenodd" stroke="none"/>
      <path d="M11.9 25.6 L12.55 25.9 12.45 26.15 12.15 27.35 11.95 28.3 11.35 27.0 Q11.15 26.15 11.65 25.65 L12.1 25.8 12.3 25.95 12.15 25.8 11.9 25.6" fill="#a84713" fill-opacity="0.8" fill-rule="evenodd" stroke="none"/>
      <path d="M6.95 28.85 L7.1 29.25 7.25 29.4 7.3 29.55 6.8 29.9 6.65 30.0 5.7 30.3 5.65 30.3 5.6 30.3 5.3 30.15 5.15 30.1 4.85 29.95 4.75 29.8 5.15 27.85 5.25 27.5 Q6.2 27.95 6.95 28.85" fill="#f8a12a" fill-rule="evenodd" stroke="none"/>
      <path d="M10.35 25.1 L10.6 24.95 10.9 25.1 Q11.4 26.8 11.25 28.9 11.05 31.85 9.8 33.85 L8.8 34.95 8.65 35.1 8.5 35.2 7.95 35.5 7.75 34.95 7.55 33.75 9.2 32.2 Q9.9 31.1 10.2 29.7 L10.45 27.85 10.35 25.1" fill="#363636" fill-rule="evenodd" stroke="none"/>
      <path d="M7.2 35.7 L7.7 36.85 7.85 36.95 6.65 36.45 6.15 35.5 6.3 35.25 6.75 33.9 6.85 33.85 6.95 34.25 7.2 35.65 7.2 35.7 M4.95 33.05 L5.65 33.6 5.8 33.7 6.0 33.75 6.55 33.85 6.6 33.85 6.7 33.9 6.7 33.85 5.85 34.85 5.35 35.2 4.95 34.7 4.7 34.25 4.95 33.05" fill="url(#gradient0)" fill-rule="evenodd" stroke="none"/>
      <path d="M10.9 25.1 L11.9 25.6 12.15 25.8 12.3 25.95 12.1 25.8 11.65 25.65 Q11.15 26.15 11.35 27.0 L11.95 28.3 11.7 29.1 12.4 29.3 10.7 32.6 12.7 29.45 13.2 29.85 13.1 30.2 13.05 32.25 11.6 35.1 11.6 35.05 12.4 30.8 11.45 34.4 11.4 34.65 11.4 34.7 Q10.9 35.0 9.85 34.15 L10.8 35.1 11.0 35.3 11.0 35.35 10.5 36.5 Q9.75 36.7 9.15 37.05 L8.95 36.9 Q8.25 36.3 7.95 35.55 L7.95 35.5 8.5 35.2 8.65 35.1 8.8 34.95 9.8 33.85 Q11.05 31.85 11.25 28.9 11.4 26.8 10.9 25.1 M11.6 35.1 L11.6 35.05 11.6 35.1" fill="#1c1c1c" fill-rule="evenodd" stroke="none"/>
      <path d="M9.6 25.35 L9.8 25.3 10.25 25.15 10.35 25.1 10.45 27.85 10.2 29.7 Q9.9 31.1 9.2 32.2 L7.55 33.75 7.5 33.65 7.5 32.4 7.55 32.1 7.6 31.8 7.6 31.55 7.85 31.4 Q8.75 30.5 9.3 29.1 L9.4 28.7 9.65 27.8 9.8 26.85 9.8 26.65 9.75 26.4 9.75 26.35 9.75 26.05 9.65 25.55 9.6 25.35 M10.15 24.75 L9.95 25.05 9.65 25.25 9.2 24.35 10.15 24.75 M4.5 30.65 L4.6 30.7 4.7 30.7 4.7 30.75 5.4 31.15 5.6 31.35 6.25 31.85 6.35 32.0 6.4 32.05 6.45 32.2 6.85 33.6 6.7 33.9 6.6 33.85 6.55 33.85 6.0 33.75 5.8 33.7 5.65 33.6 4.95 33.05 4.5 31.1 4.5 30.65 M6.9 33.7 L6.85 33.85 6.75 33.9 6.9 33.7" fill="#4f4f4f" fill-rule="evenodd" stroke="none"/>
      <path d="M9.65 25.25 L9.5 25.3 9.25 25.35 9.6 25.35 9.65 25.55 9.75 26.05 9.75 26.35 9.75 26.4 9.8 26.65 9.8 26.85 9.65 27.8 9.4 28.7 9.3 29.1 Q8.75 30.5 7.85 31.4 L7.6 31.55 7.6 31.5 7.45 29.95 7.3 29.55 8.15 28.5 8.15 28.55 8.7 29.15 8.2 28.4 8.45 27.9 8.75 27.25 8.95 26.45 9.0 26.3 9.0 26.15 9.0 26.1 9.05 25.85 9.05 25.45 9.05 25.25 9.05 25.15 8.8 24.35 8.55 24.05 8.6 24.0 8.95 24.25 9.2 24.35 9.65 25.25" fill="#595959" fill-rule="evenodd" stroke="none"/>
      <path d="M8.0 24.1 L8.45 24.05 8.55 24.05 8.8 24.35 9.05 25.15 9.05 25.25 9.05 25.45 9.05 25.85 9.0 26.1 9.0 26.15 9.0 26.3 8.95 26.45 8.75 27.25 8.45 27.9 8.2 28.4 7.0 26.55 6.55 25.4 Q7.1 24.55 8.0 24.1 M8.05 28.45 L8.15 28.5 7.3 29.55 7.25 29.4 7.1 29.25 6.95 28.85 6.6 28.45 5.55 27.4 5.1 27.0 5.2 26.5 5.25 26.45 5.3 26.45 5.6 26.25 8.05 28.45" fill="#666666" fill-rule="evenodd" stroke="none"/>
      <path d="M7.3 29.55 L7.45 29.95 7.6 31.5 7.2 31.85 7.05 31.95 6.45 32.2 6.4 32.05 6.35 32.0 6.25 31.85 5.6 31.35 5.4 31.15 4.7 30.75 4.7 30.7 4.6 30.7 4.5 30.65 Q4.35 30.65 4.55 30.55 L4.65 30.1 4.75 29.8 4.85 29.95 5.15 30.1 5.3 30.15 5.6 30.3 5.65 30.3 5.7 30.3 6.65 30.0 6.8 29.9 7.3 29.55" fill="#de8f25" fill-rule="evenodd" stroke="none"/>
      <path d="M7.6 31.55 L7.6 31.8 7.55 32.1 7.5 32.4 7.5 33.65 7.05 33.8 6.85 33.85 6.9 33.7 6.95 33.35 6.85 33.6 6.45 32.2 7.05 31.95 7.2 31.85 7.6 31.5 7.6 31.55" fill="#c47e21" fill-rule="evenodd" stroke="none"/>
      <path d="M7.5 33.65 L7.55 33.75 7.75 34.95 7.95 35.5 7.95 35.55 7.6 35.65 7.45 35.7 7.4 35.7 7.2 35.7 7.2 35.65 6.95 34.25 6.85 33.85 7.05 33.8 7.5 33.65" fill="#ab6b1c" fill-rule="evenodd" stroke="none"/>
      <path d="M7.95 35.55 Q8.25 36.3 8.95 36.9 L9.15 37.05 8.7 37.45 8.65 37.3 8.05 37.15 7.95 37.05 7.85 36.95 7.7 36.85 7.2 35.7 7.4 35.7 7.45 35.7 7.6 35.65 7.95 35.55" fill="#915a17" fill-rule="evenodd" stroke="none"/>
      <path d="M13.2 29.85 L12.7 29.45 12.75 29.3 12.95 28.15 12.4 29.3 11.7 29.1 12.2 27.65 13.6 27.1 13.8 28.4 13.2 29.85" fill="#8f3a0f" fill-rule="evenodd" stroke="none"/>
      <path d="M5.1 27.0 L5.55 27.4 6.6 28.45 6.95 28.85 Q6.2 27.95 5.25 27.5 L5.15 27.85 4.75 29.8 4.65 30.1 5.1 27.05 5.1 27.0" fill="#ffcc00" fill-rule="evenodd" stroke="none"/>
      <path d="M10.8 35.1 L9.85 34.15 Q10.9 35.0 11.4 34.7 L10.8 35.1" fill="#615436" fill-rule="evenodd" stroke="none"/>
      <path d="M8.0 24.1 Q7.1 24.55 6.55 25.4 L7.0 26.55 6.25 25.3 Q7.15 24.35 8.0 24.1 M8.05 28.45 L5.6 26.25 5.3 26.45 5.6 26.0 6.3 26.5 7.4 27.7 8.05 28.45 M4.95 34.7 L5.35 35.2 5.85 34.85 6.7 33.85 6.1 34.95 5.7 35.35 5.4 35.6 4.95 34.7" fill="#c7ac6f" fill-rule="evenodd" stroke="none"/>
      <path d="M10.35 25.1 L10.25 25.15 9.8 25.3 9.6 25.35 9.25 25.35 9.5 25.3 9.65 25.25 9.95 25.05 10.15 24.75 10.25 24.85 10.6 24.95 10.35 25.1 M12.7 29.45 L10.7 32.6 12.4 29.3 12.95 28.15 12.75 29.3 12.7 29.45" fill="#c24f15" fill-rule="evenodd" stroke="none"/>
      <path d="M12.55 25.9 L12.6 25.4 8.9 23.95 8.6 24.0 M11.6 35.05 L11.6 35.1 M13.1 30.2 L13.2 29.85 M8.55 24.05 L8.45 24.05 8.0 24.1 M8.55 24.05 L8.6 24.0 M12.45 26.15 L12.15 27.35 12.95 26.9 13.6 27.05 13.6 27.1 13.8 28.4 13.2 29.85 M5.3 26.45 L5.25 26.45 5.2 26.5 5.1 27.0 M7.85 36.95 L7.95 37.05 8.05 37.15 8.65 37.3 8.7 37.45 9.15 37.05 M5.3 26.45 L5.6 26.0 6.25 25.9 7.0 26.55 6.25 25.3 Q7.15 24.35 8.0 24.1 M5.3 26.45 L5.2 26.5 M4.65 30.1 L4.55 30.55 Q4.35 30.65 4.5 30.65 M4.95 33.05 L4.5 31.1 4.5 30.65 M6.85 33.6 L6.95 33.35 6.9 33.7 6.75 33.9 6.3 35.25 6.15 35.5 6.65 36.45 7.85 36.95 M4.95 33.05 L4.7 34.25 4.95 34.7 M6.7 33.85 L6.7 33.9 6.85 33.6 M6.7 33.85 L6.1 34.95 5.7 35.35 5.4 35.6 6.15 35.5 M5.4 35.6 L4.95 34.7 M4.65 30.1 L5.1 27.05" fill="none" stroke="#000000" stroke-linecap="round" stroke-linejoin="round" stroke-opacity="0.3019608" stroke-width="0.05"/>
      <path d="M15.05 23.65 L15.0 23.75 14.8 24.2 13.55 24.05 13.55 23.65 15.05 23.65" fill="#402501" fill-rule="evenodd" stroke="none"/>
      <path d="M10.45 21.45 L10.9 21.45 10.9 22.1 10.65 22.1 10.6 21.9 10.45 21.45" fill="#8a5507" fill-rule="evenodd" stroke="none"/>
      <path d="M15.05 23.65 L15.0 23.75 14.8 24.2 13.55 24.05 M10.65 22.1 L10.6 21.9 10.45 21.45" fill="none" stroke="#000000" stroke-linecap="round" stroke-linejoin="round" stroke-opacity="0.3019608" stroke-width="0.05"/>
      <path d="M8.75 21.45 L8.75 21.4 Q8.75 20.45 9.3 19.45 9.95 18.55 10.9 18.25 L11.9 18.15 12.2 18.2 12.35 18.25 12.5 18.35 12.6 18.4 12.85 18.85 Q12.85 19.2 11.55 19.55 11.3 19.65 11.15 19.7 10.15 20.1 10.15 20.85 L10.0 21.75 9.45 22.3 9.3 22.25 8.8 21.45 8.75 21.45 M9.55 21.7 L9.6 21.5 9.55 21.3 9.3 21.2 Q9.0 21.2 9.0 21.5 9.0 21.8 9.3 21.8 L9.55 21.7 M9.45 21.0 L9.7 20.4 Q9.8 19.75 10.55 19.25 11.3 18.7 12.05 18.65 12.05 17.75 10.6 18.55 9.15 19.3 9.15 20.65 L9.2 20.85 9.45 21.0" fill="#5e5e5e" fill-rule="evenodd" stroke="none"/>
      <path d="M9.45 21.0 L9.2 20.85 9.15 20.65 Q9.15 19.3 10.6 18.55 12.05 17.75 12.05 18.65 11.3 18.7 10.55 19.25 9.8 19.75 9.7 20.4 L9.45 21.0 M9.55 21.7 L9.3 21.8 Q9.0 21.8 9.0 21.5 9.0 21.2 9.3 21.2 L9.55 21.3 9.6 21.5 9.55 21.7" fill="#aeaeae" fill-rule="evenodd" stroke="none"/>
      <path d="M13.3 19.75 L13.3 19.9 13.3 20.25 Q13.3 21.1 12.7 22.0 L11.55 23.2 10.35 23.45 9.75 23.25 Q10.25 23.3 10.6 22.85 L11.05 22.2 11.55 22.15 12.15 21.55 12.4 20.75 12.4 20.6 12.7 20.6 Q13.1 20.45 13.3 19.75" fill="#262626" fill-rule="evenodd" stroke="none"/>
      <path d="M8.75 21.45 L8.8 21.45 9.3 22.25 9.45 22.3 10.0 21.75 10.15 20.85 Q10.15 20.1 11.15 19.7 11.3 19.65 11.55 19.55 12.85 19.2 12.85 18.85 L12.6 18.4 12.85 18.7 12.95 18.75 13.2 19.15 13.2 19.25 13.3 19.75 Q13.1 20.45 12.7 20.6 L12.4 20.6 12.15 20.2 11.6 20.15 11.55 20.2 10.95 20.75 10.7 21.55 10.7 21.6 10.9 22.1 10.95 22.15 11.05 22.2 10.6 22.85 Q10.25 23.3 9.75 23.25 L9.4 23.0 8.85 22.15 8.8 21.8 8.75 21.5 8.75 21.45" fill="#404040" fill-rule="evenodd" stroke="none"/>
      <path d="M12.4 20.6 L12.4 20.75 12.15 21.55 11.55 22.15 11.05 22.2 10.95 22.15 10.9 22.1 10.7 21.6 10.75 21.55 11.35 21.0 11.6 20.2 11.6 20.15 12.15 20.2 12.4 20.6" fill="#0d0d0d" fill-rule="evenodd" stroke="none"/>
      <path d="M12.6 18.4 L12.5 18.35 12.35 18.25 12.2 18.2 11.9 18.15 10.9 18.25 Q9.95 18.55 9.3 19.45 8.75 20.45 8.75 21.4 L8.75 21.45 M12.6 18.4 L12.85 18.7 12.95 18.75 13.2 19.15 13.2 19.25 13.3 19.75 13.3 19.9 13.3 20.25 Q13.3 21.1 12.7 22.0 L11.55 23.2 10.35 23.45 9.75 23.25 9.4 23.0 8.85 22.15 8.8 21.8 8.75 21.5 8.75 21.45 M12.4 20.6 L12.4 20.75 12.15 21.55 11.55 22.15 11.05 22.2 M11.6 20.15 L12.15 20.2 12.4 20.6 M10.7 21.6 L10.7 21.55 10.95 20.75 11.55 20.2 11.6 20.15 11.6 20.2 11.35 21.0 10.75 21.55 10.7 21.6 10.9 22.1 10.95 22.15 11.05 22.2" fill="none" stroke="#000000" stroke-linecap="round" stroke-linejoin="round" stroke-opacity="0.3019608" stroke-width="0.05"/>
      <path d="M10.5 21.75 L10.4 21.25 Q10.4 20.7 10.75 20.3 11.15 19.95 11.7 19.95 L11.85 19.95 11.95 20.0 12.15 20.3 Q12.4 21.05 11.8 21.6 L10.9 21.9 10.5 21.75 M11.2 21.05 Q11.6 21.05 11.6 20.65 11.6 20.2 11.2 20.2 10.75 20.2 10.75 20.65 10.75 21.05 11.2 21.05" fill="#945b07" fill-rule="evenodd" stroke="none"/>
      <path d="M11.2 21.05 Q10.75 21.05 10.75 20.65 10.75 20.2 11.2 20.2 11.6 20.2 11.6 20.65 11.6 21.05 11.2 21.05" fill="#f7a833" fill-rule="evenodd" stroke="none"/>
      <path d="M11.95 20.0 Q12.35 20.05 12.6 20.3 13.0 20.7 13.0 21.25 13.0 21.8 12.6 22.15 12.25 22.5 11.7 22.5 11.15 22.5 10.75 22.15 L10.5 21.75 10.9 21.9 11.8 21.6 Q12.4 21.05 12.15 20.3 L11.95 20.0" fill="#663e04" fill-rule="evenodd" stroke="none"/>
      <path d="M10.5 21.75 L10.4 21.25 Q10.4 20.7 10.75 20.3 11.15 19.95 11.7 19.95 L11.85 19.95 M11.95 20.0 Q12.35 20.05 12.6 20.3 13.0 20.7 13.0 21.25 13.0 21.8 12.6 22.15 12.25 22.5 11.7 22.5 11.15 22.5 10.75 22.15 L10.5 21.75 Z" fill="none" stroke="#000000" stroke-linecap="round" stroke-linejoin="round" stroke-opacity="0.3019608" stroke-width="0.05"/>
      <path d="M12.25 23.6 L12.25 23.5 Q12.25 22.5 12.75 21.55 13.45 20.6 14.45 20.25 L15.5 20.15 15.8 20.2 15.95 20.25 16.1 20.4 16.2 20.45 16.15 20.45 16.5 20.9 Q16.5 21.25 15.1 21.65 L14.7 21.8 Q13.7 22.15 13.7 23.0 L13.55 23.9 Q13.35 24.45 12.95 24.45 L12.75 24.4 12.25 23.6 M12.8 23.95 L13.05 23.8 13.1 23.65 13.05 23.4 12.8 23.35 Q12.5 23.35 12.5 23.65 12.5 23.95 12.8 23.95 L12.8 24.0 12.8 23.95 M12.95 23.1 L13.2 22.5 Q13.35 21.8 14.1 21.3 14.85 20.75 15.65 20.7 15.65 19.8 14.15 20.6 12.6 21.35 12.65 22.75 L12.7 22.95 12.95 23.1" fill="#5e5e5e" fill-rule="evenodd" stroke="none"/>
      <path d="M16.2 20.45 L16.5 20.75 16.55 20.8 16.8 21.2 16.8 21.3 16.85 21.3 16.95 21.8 16.3 22.75 16.0 22.75 15.7 22.25 15.2 22.25 15.1 22.25 14.5 22.85 14.3 23.7 14.3 23.75 14.45 24.25 14.5 24.3 14.6 24.35 14.15 25.05 Q13.75 25.45 13.3 25.45 L12.85 25.15 Q12.5 24.9 12.35 24.3 L12.25 23.95 12.25 23.65 12.25 23.6 12.75 24.4 12.95 24.45 Q13.35 24.45 13.55 23.9 L13.7 23.0 Q13.7 22.15 14.7 21.8 L15.1 21.65 Q16.5 21.25 16.5 20.9 L16.15 20.45 16.2 20.45" fill="#4f4f4f" fill-rule="evenodd" stroke="none"/>
      <path d="M14.3 23.75 L14.3 23.7 14.9 23.1 15.2 22.25 15.7 22.25 16.0 22.75 16.0 22.85 15.7 23.7 15.1 24.3 14.6 24.35 14.5 24.3 14.45 24.25 14.3 23.75" fill="#1c1c1c" fill-rule="evenodd" stroke="none"/>
      <path d="M16.95 21.8 L16.95 21.95 16.95 22.3 Q16.95 23.2 16.35 24.15 L15.1 25.4 13.9 25.65 13.3 25.45 Q13.75 25.45 14.15 25.05 L14.6 24.35 15.1 24.3 15.7 23.7 16.0 22.85 16.0 22.75 16.3 22.75 16.95 21.8" fill="#363636" fill-rule="evenodd" stroke="none"/>
      <path d="M12.95 23.1 L12.7 22.95 12.65 22.75 Q12.6 21.35 14.15 20.6 15.65 19.8 15.65 20.7 14.85 20.75 14.1 21.3 13.35 21.8 13.2 22.5 L12.95 23.1 M12.8 23.95 Q12.5 23.95 12.5 23.65 12.5 23.35 12.8 23.35 L13.05 23.4 13.1 23.65 13.05 23.8 12.8 23.95" fill="#aeaeae" fill-rule="evenodd" stroke="none"/>
      <path d="M12.25 23.6 L12.25 23.5 Q12.25 22.5 12.75 21.55 13.45 20.6 14.45 20.25 L15.5 20.15 15.8 20.2 15.95 20.25 16.1 20.4 16.2 20.45 16.5 20.75 16.55 20.8 16.8 21.2 16.8 21.3 16.85 21.3 16.95 21.8 16.95 21.95 16.95 22.3 Q16.95 23.2 16.35 24.15 L15.1 25.4 13.9 25.65 13.3 25.45 12.85 25.15 Q12.5 24.9 12.35 24.3 L12.25 23.95 12.25 23.65 12.25 23.6 M15.2 22.25 L14.9 23.1 14.3 23.7 14.3 23.75 14.45 24.25 14.5 24.3 14.6 24.35 15.1 24.3 15.7 23.7 16.0 22.85 16.0 22.75 15.7 22.25 15.2 22.25 15.1 22.25 14.5 22.85 14.3 23.7 14.3 23.75" fill="none" stroke="#000000" stroke-linecap="round" stroke-linejoin="round" stroke-opacity="0.3019608" stroke-width="0.05"/>
      <path d="M15.55 22.0 L15.7 22.05 15.85 22.35 Q16.1 23.1 15.5 23.65 L14.6 23.95 14.2 23.8 14.1 23.3 Q14.1 22.75 14.5 22.35 14.85 22.0 15.4 22.0 L15.55 22.0 M14.9 23.1 Q15.3 23.1 15.3 22.7 15.3 22.25 14.9 22.25 14.5 22.25 14.5 22.7 14.5 23.1 14.9 23.1" fill="#945b07" fill-rule="evenodd" stroke="none"/>
      <path d="M14.9 23.1 Q14.5 23.1 14.5 22.7 14.5 22.25 14.9 22.25 15.3 22.25 15.3 22.7 15.3 23.1 14.9 23.1" fill="#f7a833" fill-rule="evenodd" stroke="none"/>
      <path d="M15.7 22.05 L16.3 22.35 Q16.7 22.75 16.7 23.3 16.7 23.8 16.3 24.2 L15.4 24.55 Q14.85 24.55 14.5 24.2 L14.2 23.8 14.6 23.95 15.5 23.65 Q16.1 23.1 15.85 22.35 L15.7 22.05" fill="#663e04" fill-rule="evenodd" stroke="none"/>
      <path d="M15.7 22.05 L16.3 22.35 Q16.7 22.75 16.7 23.3 16.7 23.8 16.3 24.2 L15.4 24.55 Q14.85 24.55 14.5 24.2 L14.2 23.8 14.1 23.3 Q14.1 22.75 14.5 22.35 14.85 22.0 15.4 22.0 L15.55 22.0" fill="none" stroke="#000000" stroke-linecap="round" stroke-linejoin="round" stroke-opacity="0.3019608" stroke-width="0.05"/>
    </g>
    <radialGradient cx="0" cy="0" gradientTransform="matrix(0.0109, -0.0026, 0.0024, 0.0116, 7.2, 29.4)" gradientUnits="userSpaceOnUse" id="gradient0" r="819.2" spreadMethod="pad">
      <stop offset="0.0" stop-color="#5f6056"/>
      <stop offset="0.1568627450980392" stop-color="#414141"/>
      <stop offset="1.0" stop-color="#1c1c1c"/>
    </radialGradient>
    <g id="sprite1" transform="matrix(1.0, 0.0, 0.0, 1.0, 2.2, 2.2)">
      <use height="4.4" transform="matrix(1.0, 0.0, 0.0, 1.0, -2.2, -2.2)" width="4.4" xlink:href="#shape1"/>
    </g>
    <g id="shape1" transform="matrix(1.0, 0.0, 0.0, 1.0, 2.2, 2.2)">
      <path d="M1.55 -1.55 Q2.2 -0.9 2.2 0.0 2.2 0.9 1.55 1.55 0.9 2.2 0.0 2.2 -0.9 2.2 -1.55 1.55 -2.2 0.9 -2.2 0.0 -2.2 -0.9 -1.55 -1.55 -0.9 -2.2 0.0 -2.2 0.9 -2.2 1.55 -1.55" fill="url(#gradient1)" fill-rule="evenodd" stroke="none"/>
    </g>
    <radialGradient cx="0" cy="0" gradientTransform="matrix(0.0021, 0.0, 0.0, 0.0021, 0.0, 0.0)" gradientUnits="userSpaceOnUse" id="gradient1" r="819.2" spreadMethod="pad">
      <stop offset="0.0" stop-color="#ffffff" stop-opacity="0.3529412"/>
      <stop offset="1.0" stop-color="#ffffff" stop-opacity="0.0"/>
    </radialGradient>
  </defs>
</svg>
