<?xml version="1.0" encoding="UTF-8" standalone="no"?>
<svg xmlns:xlink="http://www.w3.org/1999/xlink" height="440.0px" width="440.0px" xmlns="http://www.w3.org/2000/svg">
  <g transform="matrix(10.0, 0.0, 0.0, 10.0, 0.0, 0.0)">
    <use height="44.0" transform="matrix(1.0, 0.0, 0.0, 1.0, 0.0, 0.0)" width="44.0" xlink:href="#shape0"/>
    <use height="30.35" transform="matrix(-0.7576, 0.0, 0.082, 0.7576, 37.6596, 3.1049)" width="21.4" xlink:href="#sprite0"/>
    <use height="30.35" transform="matrix(0.7576, 0.0, -0.082, 0.7576, 6.5904, 3.5049)" width="21.4" xlink:href="#sprite0"/>
    <use height="19.7" transform="matrix(1.0, 0.0, 0.0, 1.0, 13.6, 21.15)" width="16.35" xlink:href="#shape2"/>
    <use height="34.8" transform="matrix(-0.4072, 0.3949, 0.3107, 0.3204, 20.55, 15.2)" width="34.8" xlink:href="#sprite1"/>
    <use height="20.95" transform="matrix(0.4991, -0.237, 0.3086, 0.5529, 8.9, 21.0)" width="24.45" xlink:href="#sprite2"/>
    <use height="37.6" transform="matrix(1.0, 0.0, 0.0, 1.0, 5.2, 3.25)" width="34.9" xlink:href="#shape5"/>
  </g>
  <defs>
    <g id="shape0" transform="matrix(1.0, 0.0, 0.0, 1.0, 0.0, 0.0)">
      <path d="M44.0 44.0 L0.0 44.0 0.0 0.0 44.0 0.0 44.0 44.0" fill="#43adca" fill-opacity="0.0" fill-rule="evenodd" stroke="none"/>
      <path d="M26.7 8.15 L29.1 8.25 26.7 8.8 29.95 9.45 Q31.5 10.3 35.7 11.05 L31.55 10.4 25.95 9.35 25.55 9.2 25.5 9.25 Q25.1 9.65 25.95 10.2 27.95 11.65 31.45 12.8 L31.65 12.85 Q33.4 13.8 33.7 14.95 L33.8 15.95 32.4 17.1 Q33.8 14.25 29.75 13.0 L24.85 10.35 24.8 10.35 24.7 10.3 Q24.05 9.6 24.5 9.15 L20.5 8.8 19.55 8.75 22.4 8.3 25.45 8.65 Q25.85 8.45 26.3 8.3 L26.7 8.15 M34.55 8.35 L34.85 7.85 35.3 7.9 37.9 8.55 Q39.25 8.95 39.85 9.95 L39.8 10.65 37.8 11.05 38.65 10.35 Q39.35 10.2 39.05 9.9 38.8 8.85 34.55 8.35 M10.75 12.8 Q10.95 14.9 11.75 15.8 13.85 18.05 15.8 19.4 L12.15 17.5 Q11.3 16.75 10.75 15.8 9.4 13.55 10.55 11.5 L10.7 11.2 Q10.6 12.05 10.75 12.8 M24.5 9.15 L25.0 8.8 25.45 8.65 25.0 8.8 24.5 9.15 M26.7 8.8 L25.55 9.2 26.7 8.8" fill="#65471b" fill-rule="evenodd" stroke="none"/>
      <path d="M26.7 8.15 L27.25 8.0 28.7 7.7 30.25 7.5 33.3 7.6 34.85 7.85 34.55 8.35 32.5 8.15 29.1 8.25 26.7 8.15 M37.8 11.05 L37.6 11.1 35.7 11.05 Q31.5 10.3 29.95 9.45 L35.4 10.35 Q37.75 10.55 38.65 10.35 L37.8 11.05 M33.8 15.95 Q33.8 17.8 31.85 19.1 L28.65 20.95 26.65 21.75 26.65 20.95 Q28.25 20.5 29.7 19.7 31.55 18.75 32.4 17.15 L32.4 17.1 33.8 15.95 M29.75 13.0 L29.35 12.85 Q26.55 12.1 24.85 10.35 L29.75 13.0 M19.55 8.75 L14.85 8.95 12.9 9.45 15.0 8.35 21.45 8.15 22.4 8.3 19.55 8.75 M12.55 9.6 L10.75 12.8 Q10.6 12.05 10.7 11.2 11.35 10.15 12.55 9.6 M15.8 19.4 L15.8 20.4 Q13.35 19.35 12.15 17.5 L15.8 19.4 M28.65 20.95 L29.7 19.7 28.65 20.95" fill="#916c1a" fill-rule="evenodd" stroke="none"/>
      <path d="M34.85 7.85 L33.3 7.6 30.25 7.5 28.7 7.7 27.25 8.0 26.7 8.15 26.3 8.3 Q25.85 8.45 25.45 8.65 L22.4 8.3 21.45 8.15 15.0 8.35 12.9 9.45 Q12.75 9.45 12.55 9.6 L10.75 12.8 M29.1 8.25 L32.5 8.15 34.55 8.35 M34.85 7.85 L35.3 7.9 37.9 8.55 Q39.25 8.95 39.85 9.95 L39.8 10.65 37.8 11.05 37.6 11.1 35.7 11.05 31.55 10.4 25.95 9.35 25.55 9.2 25.5 9.25 Q25.1 9.65 25.95 10.2 27.95 11.65 31.45 12.8 L31.65 12.85 Q33.4 13.8 33.7 14.95 L33.8 15.95 Q33.8 17.8 31.85 19.1 L28.65 20.95 26.65 21.75 M26.65 20.95 Q28.25 20.5 29.7 19.7 31.55 18.75 32.4 17.15 L32.4 17.1 Q33.8 14.25 29.75 13.0 L29.35 12.85 Q26.55 12.1 24.85 10.35 M24.8 10.35 L24.7 10.3 Q24.05 9.6 24.5 9.15 L20.5 8.8 19.55 8.75 14.85 8.95 12.9 9.45 M10.7 11.2 Q11.35 10.15 12.55 9.6 M38.65 10.35 Q39.35 10.2 39.05 9.9 38.8 8.85 34.55 8.35 M38.65 10.35 Q37.75 10.55 35.4 10.35 L29.95 9.45 M25.45 8.65 L25.0 8.8 24.5 9.15 M25.55 9.2 L26.7 8.8 29.1 8.25 M26.7 8.8 L29.95 9.45" fill="none" stroke="#251e16" stroke-linecap="round" stroke-linejoin="round" stroke-opacity="0.47058824" stroke-width="0.5"/>
      <path d="M26.7 8.15 L29.1 8.25 M34.55 8.35 L34.85 7.85 M37.8 11.05 L38.65 10.35 M29.95 9.45 Q31.5 10.3 35.7 11.05 M22.4 8.3 L19.55 8.75 M29.7 19.7 L28.65 20.95 M32.4 17.1 L33.8 15.95 M24.85 10.35 L29.75 13.0 M12.15 17.5 L15.8 19.4 M10.7 11.2 Q10.6 12.05 10.75 12.8" fill="none" stroke="#382510" stroke-linecap="round" stroke-linejoin="round" stroke-opacity="0.15294118" stroke-width="0.5"/>
      <path d="M24.85 10.35 L24.8 10.35 M10.75 12.8 Q10.95 14.9 11.75 15.8 13.85 18.05 15.8 19.4 M15.8 20.4 Q13.35 19.35 12.15 17.5 11.3 16.75 10.75 15.8 9.4 13.55 10.55 11.5 L10.7 11.2" fill="none" stroke="#382510" stroke-linecap="round" stroke-linejoin="round" stroke-opacity="0.2" stroke-width="0.5"/>
    </g>
    <g id="sprite0" transform="matrix(1.0, 0.0, 0.0, 1.0, -13.15, 22.3)">
      <use height="30.35" transform="matrix(1.0, 0.0, 0.0, 1.0, 13.15, -22.3)" width="21.4" xlink:href="#shape1"/>
    </g>
    <g id="shape1" transform="matrix(1.0, 0.0, 0.0, 1.0, -13.15, 22.3)">
      <path d="M15.35 -21.8 L15.35 -21.85 15.35 -21.8" fill="#91896f" fill-rule="evenodd" stroke="none"/>
      <path d="M15.35 -21.85 L15.4 -21.75 15.4 -21.7 15.35 -21.8 15.4 -21.7 15.4 -21.45 15.4 -21.7 Q17.1 -15.55 19.9 -10.65 22.5 -5.95 26.35 -1.5 28.25 0.75 30.5 2.9 L30.85 5.1 31.0 5.95 34.2 7.2 29.9 7.7 29.7 7.7 23.3 7.7 23.45 7.5 Q25.85 7.65 28.4 6.25 25.55 5.25 24.2 3.3 26.0 4.45 27.95 4.8 26.5 3.15 26.0 1.75 21.55 -2.8 19.0 -7.9 18.75 -5.7 19.75 -2.75 17.95 -6.6 17.85 -10.3 L17.3 -11.75 Q15.8 -15.85 15.4 -21.45 L15.35 -21.8 15.35 -21.85 M30.85 5.1 L29.75 5.1 28.7 4.95 27.95 4.8 28.7 4.95 29.75 5.1 30.85 5.1 M19.9 -10.65 Q19.15 -9.4 19.0 -7.9 19.15 -9.4 19.9 -10.65 M26.0 1.75 Q25.2 -0.2 26.35 -1.5 25.2 -0.2 26.0 1.75" fill="#6d6656" fill-rule="evenodd" stroke="none"/>
      <path d="M15.4 -21.75 L15.4 -21.7 15.6 -21.25 Q21.15 -9.35 32.45 1.45 31.75 2.35 31.95 4.8 L34.2 5.55 34.25 5.7 34.55 7.35 34.2 7.2 31.0 5.95 30.85 5.1 30.5 2.9 Q28.25 0.75 26.35 -1.5 22.5 -5.95 19.9 -10.65 17.1 -15.55 15.4 -21.7 L15.4 -21.75" fill="url(#gradient0)" fill-rule="evenodd" stroke="none"/>
      <path d="M23.45 7.5 Q24.4 5.3 22.7 4.65 20.25 4.5 20.7 7.5 15.7 3.8 13.8 -2.65 12.65 -11.65 15.35 -21.8 L15.4 -21.45 Q15.8 -15.85 17.3 -11.75 L17.85 -10.3 Q17.95 -6.6 19.75 -2.75 18.75 -5.7 19.0 -7.9 21.55 -2.8 26.0 1.75 26.5 3.15 27.95 4.8 26.0 4.45 24.2 3.3 25.55 5.25 28.4 6.25 25.85 7.65 23.45 7.5" fill="url(#gradient1)" fill-rule="evenodd" stroke="none"/>
      <path d="M15.35 -21.85 L15.4 -21.75 15.4 -21.7 15.4 -21.75 M34.55 7.35 L34.2 7.2 M15.35 -21.85 L15.35 -21.8 15.4 -21.45 15.4 -21.7 Q17.1 -15.55 19.9 -10.65 22.5 -5.95 26.35 -1.5 28.25 0.75 30.5 2.9 L30.85 5.1 31.0 5.95 34.2 7.2 M19.0 -7.9 Q18.75 -5.7 19.75 -2.75 M19.0 -7.9 Q19.15 -9.4 19.9 -10.65 M27.95 4.8 L28.7 4.95 29.75 5.1 30.85 5.1 M24.2 3.3 Q26.0 4.45 27.95 4.8 26.5 3.15 26.0 1.75 M26.35 -1.5 Q25.2 -0.2 26.0 1.75" fill="none" stroke="#000000" stroke-linecap="round" stroke-linejoin="round" stroke-opacity="0.4509804" stroke-width="0.05"/>
      <path d="M15.35 -21.8 L15.4 -21.7" fill="none" stroke="#6b5c40" stroke-linecap="round" stroke-linejoin="round" stroke-opacity="0.5019608" stroke-width="1.0"/>
      <path d="M15.4 -21.7 L15.6 -21.25" fill="none" stroke="#251e16" stroke-linecap="round" stroke-linejoin="round" stroke-opacity="0.47058824" stroke-width="0.6000000000000001"/>
      <path d="M15.6 -21.25 Q21.15 -9.35 32.45 1.45 31.75 2.35 31.95 4.8 L34.2 5.55 M34.2 7.2 L29.9 7.7 29.7 7.7 23.3 7.7 23.45 7.5 Q24.4 5.3 22.7 4.65 20.25 4.5 20.7 7.5 15.7 3.8 13.8 -2.65 12.65 -11.65 15.35 -21.8 L15.35 -21.85 Z" fill="none" stroke="#251e16" stroke-linecap="round" stroke-linejoin="round" stroke-opacity="0.47058824" stroke-width="0.6000000000000001"/>
    </g>
    <linearGradient gradientTransform="matrix(-0.0089, -0.0064, -0.006, 0.0054, 60.35, -19.75)" gradientUnits="userSpaceOnUse" id="gradient0" spreadMethod="pad" x1="-819.2" x2="819.2">
      <stop offset="0.0" stop-color="#ebebe0"/>
      <stop offset="1.0" stop-color="#0c030e"/>
    </linearGradient>
    <linearGradient gradientTransform="matrix(0.0078, 0.0068, -0.0074, 0.0085, 25.7, -0.45)" gradientUnits="userSpaceOnUse" id="gradient1" spreadMethod="pad" x1="-819.2" x2="819.2">
      <stop offset="0.0" stop-color="#91896f"/>
      <stop offset="1.0" stop-color="#d98b7b"/>
    </linearGradient>
    <g id="shape2" transform="matrix(1.0, 0.0, 0.0, 1.0, -13.6, -21.15)">
      <path d="M22.1 36.55 Q23.2 34.9 24.1 31.95 L24.8 32.7 Q25.2 34.3 24.4 36.25 L23.55 37.8 Q25.15 36.6 26.05 34.9 L26.75 33.1 27.3 33.1 27.85 33.1 Q27.3 35.05 26.0 36.65 23.8 39.3 20.65 39.3 17.95 39.3 15.9 37.25 L15.5 36.8 15.5 36.75 15.95 37.25 Q17.25 38.35 19.7 38.65 L21.15 37.75 22.1 36.55" fill="#ad9567" fill-rule="evenodd" stroke="none"/>
      <path d="M28.2 30.2 Q28.2 26.4 26.0 23.75 24.7 22.2 23.05 21.55 25.5 21.95 27.35 24.2 28.85 26.0 29.4 28.25 L29.7 31.0 Q29.7 34.95 27.35 37.75 25.05 40.6 21.8 40.6 18.5 40.6 16.2 37.75 L15.75 37.25 15.35 36.7 15.5 36.8 15.9 37.25 Q17.95 39.3 20.65 39.3 23.8 39.3 26.0 36.65 27.3 35.05 27.85 33.1 28.2 31.75 28.2 30.2" fill="#ccaa65" fill-rule="evenodd" stroke="none"/>
      <path d="M14.5 34.9 Q17.85 37.4 22.1 36.55 L21.15 37.75 Q18.05 38.0 15.95 37.25 L15.5 36.75 15.5 36.8 15.35 36.7 15.2 36.35 14.9 35.9 14.5 34.9 M24.4 36.25 L26.05 34.9 Q25.15 36.6 23.55 37.8 L24.4 36.25 M27.3 33.1 Q28.0 31.85 28.2 30.2 28.2 31.75 27.85 33.1 L27.3 33.1" fill="#8f7a50" fill-rule="evenodd" stroke="none"/>
      <path d="M15.95 37.25 Q18.05 38.0 21.15 37.75 L19.7 38.65 Q17.25 38.35 15.95 37.25" fill="#a38d61" fill-rule="evenodd" stroke="none"/>
      <path d="M20.85 21.45 Q14.9 24.35 14.0 32.7 L13.85 31.0 Q13.85 27.05 16.2 24.2 18.15 21.8 20.85 21.45" fill="#e6ca91" fill-rule="evenodd" stroke="none"/>
      <path d="M23.05 21.55 Q24.7 22.2 26.0 23.75 28.2 26.4 28.2 30.2 28.0 31.85 27.3 33.1 L26.75 33.1 26.05 34.9 24.4 36.25 Q25.2 34.3 24.8 32.7 L24.1 31.95 Q23.2 34.9 22.1 36.55 17.85 37.4 14.5 34.9 14.1 33.85 14.0 32.7 14.9 24.35 20.85 21.45 L21.8 21.4 23.05 21.55" fill="url(#gradient2)" fill-rule="evenodd" stroke="none"/>
      <path d="M23.05 21.55 L21.8 21.4 20.85 21.45 M14.0 32.7 Q14.1 33.85 14.5 34.9 M15.35 36.7 L15.75 37.25 16.2 37.75 Q18.5 40.6 21.8 40.6 25.05 40.6 27.35 37.75 29.7 34.95 29.7 31.0 L29.4 28.25 Q28.85 26.0 27.35 24.2 25.5 21.95 23.05 21.55 M15.35 36.7 L15.2 36.35 14.9 35.9 14.5 34.9 M14.0 32.7 L13.85 31.0 Q13.85 27.05 16.2 24.2 18.15 21.8 20.85 21.45" fill="none" stroke="#504330" stroke-linecap="round" stroke-linejoin="round" stroke-opacity="0.5019608" stroke-width="0.5"/>
      <path d="M22.65 27.0 Q22.65 28.6 21.8 29.7 20.9 30.9 19.65 30.9 L18.25 30.7 Q17.3 30.6 15.6 33.95 L17.2 29.35 Q16.6 28.3 16.6 27.0 16.6 25.35 17.5 24.25 L17.65 24.0 18.5 25.0 18.5 23.4 Q19.0 23.1 19.65 23.1 20.9 23.1 21.8 24.25 L22.35 25.2 20.8 26.65 22.6 26.2 22.65 27.0" fill="#ad9567" fill-rule="evenodd" stroke="none"/>
      <path d="M20.75 27.7 Q20.5 28.75 19.8 29.4 19.15 30.0 18.4 29.85 17.7 29.7 17.3 28.85 16.95 27.95 17.2 26.9 L17.35 26.5 Q16.9 26.4 16.7 25.95 16.45 25.5 16.6 25.0 16.7 24.45 17.1 24.15 L18.05 23.95 Q18.55 24.05 18.75 24.55 L18.9 24.8 19.5 24.8 Q20.25 24.95 20.6 25.85 21.0 26.65 20.75 27.7" fill="#f8f8e4" fill-rule="evenodd" stroke="none"/>
      <path d="M27.4 33.85 Q26.6 34.1 25.95 33.4 25.35 32.75 25.95 30.7 26.55 28.7 25.6 26.15 24.6 23.6 25.15 23.7 25.8 23.75 26.7 25.0 27.65 26.25 28.15 28.45 28.55 30.65 28.4 32.15 28.25 33.65 27.4 33.85" fill="#524731" fill-opacity="0.49019608" fill-rule="evenodd" stroke="none"/>
    </g>
    <linearGradient gradientTransform="matrix(0.002, 0.0033, -0.0082, 0.0051, 23.65, 34.6)" gradientUnits="userSpaceOnUse" id="gradient2" spreadMethod="pad" x1="-819.2" x2="819.2">
      <stop offset="0.0" stop-color="#705d37"/>
      <stop offset="1.0" stop-color="#453921"/>
    </linearGradient>
    <g id="sprite1" transform="matrix(1.0, 0.0, 0.0, 1.0, 0.0, 0.0)">
      <use height="34.8" transform="matrix(1.0, 0.0, 0.0, 1.0, 0.0, 0.0)" width="34.8" xlink:href="#shape3"/>
    </g>
    <g id="shape3" transform="matrix(1.0, 0.0, 0.0, 1.0, 0.0, 0.0)">
      <path d="M17.4 34.8 Q10.2 34.8 5.1 29.7 0.0 24.6 0.0 17.4 0.0 10.2 5.1 5.1 10.2 0.0 17.4 0.0 24.6 0.0 29.7 5.1 34.8 10.2 34.8 17.4 34.8 24.6 29.7 29.7 24.6 34.8 17.4 34.8" fill="url(#gradient3)" fill-rule="evenodd" stroke="none"/>
    </g>
    <radialGradient cx="0" cy="0" gradientTransform="matrix(0.0221, 0.0, 0.0, 0.0221, 17.4, 17.4)" gradientUnits="userSpaceOnUse" id="gradient3" r="819.2" spreadMethod="pad">
      <stop offset="0.0" stop-color="#ffffff"/>
      <stop offset="0.9882352941176471" stop-color="#ffffff" stop-opacity="0.0"/>
    </radialGradient>
    <g id="sprite2" transform="matrix(1.0, 0.0, 0.0, 1.0, 0.0, 0.0)">
      <use height="20.95" transform="matrix(1.0, 0.0, 0.0, 1.0, 0.0, 0.0)" width="24.45" xlink:href="#shape4"/>
    </g>
    <g id="shape4" transform="matrix(1.0, 0.0, 0.0, 1.0, 0.0, 0.0)">
      <path d="M14.85 11.4 Q15.8 11.6 16.25 12.45 16.85 13.3 16.6 14.35 16.4 15.3 15.55 15.9 14.65 16.4 13.65 16.2 12.65 15.9 12.1 15.1 11.6 14.2 11.8 13.2 12.1 12.2 12.9 11.65 13.8 11.15 14.85 11.4" fill="#ffffff" fill-opacity="0.5882353" fill-rule="evenodd" stroke="none"/>
      <path d="M14.85 11.4 Q13.8 11.15 12.9 11.65 12.1 12.2 11.8 13.2 11.6 14.2 12.1 15.1 12.65 15.9 13.65 16.2 14.65 16.4 15.55 15.9 16.4 15.3 16.6 14.35 16.85 13.3 16.25 12.45 15.8 11.6 14.85 11.4 M18.2 11.35 L20.15 11.25 18.75 12.55 Q19.05 13.8 18.8 15.05 18.5 16.35 17.65 17.3 L19.1 20.95 16.55 18.25 Q14.8 19.3 12.8 18.85 10.8 18.35 9.75 16.65 9.05 15.5 8.95 14.3 7.75 12.35 4.85 11.5 8.3 12.45 9.7 11.4 10.3 10.4 11.35 9.75 13.1 8.75 15.1 9.15 16.95 9.5 18.1 11.15 L18.2 11.35" fill="#ffffff" fill-opacity="0.1764706" fill-rule="evenodd" stroke="none"/>
      <path d="M15.4 13.55 L18.1 17.55 13.35 14.65 7.05 18.5 12.75 13.55 0.0 0.0 14.25 12.25 24.45 5.95 15.4 13.55" fill="#ffffff" fill-opacity="0.5882353" fill-rule="evenodd" stroke="none"/>
    </g>
    <g id="shape5" transform="matrix(1.0, 0.0, 0.0, 1.0, -5.2, -3.25)">
      <path d="M36.0 3.55 L36.0 3.5 37.6 8.45 37.9 8.55 Q39.25 8.95 39.85 9.95 L39.8 10.65 38.2 11.05 Q38.85 14.6 38.8 18.0 37.85 22.9 34.35 25.7 34.45 23.4 32.65 23.5 31.4 24.0 32.3 25.7 L32.45 25.85 28.5 25.9 Q29.1 27.0 29.4 28.25 L29.7 31.0 Q29.7 34.95 27.35 37.75 25.05 40.6 21.8 40.6 18.5 40.6 16.2 37.75 L15.75 37.25 15.35 36.7 15.2 36.35 14.9 35.9 14.5 34.9 Q14.1 33.85 14.0 32.7 L13.85 31.0 Q13.85 28.4 14.85 26.3 L11.8 26.25 11.95 26.1 Q12.85 24.4 11.6 23.9 9.8 23.8 9.9 26.1 6.4 23.3 5.45 18.4 5.35 11.55 8.25 3.9 L8.25 3.95 8.3 4.15 8.35 4.3 Q9.5 7.5 11.2 10.6 11.75 9.95 12.55 9.6 L11.6 11.35 Q14.6 16.55 19.3 21.5 L19.0 22.0 20.85 21.45 21.8 21.4 23.05 21.55 Q24.4 21.75 25.55 22.55 25.4 21.55 24.95 21.1 28.45 17.4 31.05 13.5 L29.75 13.0 29.35 12.85 Q26.55 12.1 24.85 10.35 L24.8 10.35 24.7 10.3 Q24.05 9.6 24.5 9.15 L20.5 8.8 19.55 8.75 14.85 8.95 12.9 9.45 15.0 8.35 21.45 8.15 25.45 8.65 Q25.85 8.45 26.3 8.3 L26.7 8.15 27.25 8.0 28.7 7.7 30.25 7.5 33.3 7.6 34.3 7.75 35.9 3.9 36.0 3.75 36.0 3.55 M33.15 10.0 L26.7 8.8 29.1 8.25 32.5 8.15 34.05 8.3 33.15 10.0 M32.8 10.7 L31.5 12.85 31.45 12.8 Q27.95 11.65 25.95 10.2 25.1 9.65 25.5 9.25 L25.55 9.2 25.95 9.35 31.55 10.4 32.8 10.7 M38.05 10.45 L37.7 8.95 Q38.9 9.35 39.05 9.9 39.35 10.2 38.65 10.35 L38.05 10.45" fill="none" stroke="#000000" stroke-linecap="round" stroke-linejoin="round" stroke-opacity="0.3019608" stroke-width="0.5"/>
    </g>
  </defs>
</svg>
