<?xml version="1.0" encoding="UTF-8" standalone="no"?>
<svg xmlns:xlink="http://www.w3.org/1999/xlink" height="440.0px" width="440.0px" xmlns="http://www.w3.org/2000/svg">
  <g transform="matrix(10.0, 0.0, 0.0, 10.0, 0.0, 0.0)">
    <use height="44.0" transform="matrix(1.0, 0.0, 0.0, 1.0, 0.0, 0.0)" width="44.0" xlink:href="#shape0"/>
    <use height="40.8" transform="matrix(0.6729, 0.0665, -0.0713, 0.6277, 6.6637, 13.8766)" width="29.15" xlink:href="#sprite0"/>
    <use height="7.8" transform="matrix(0.5284, -1.722, 0.5191, 0.4959, 4.8149, 34.2817)" width="7.8" xlink:href="#sprite1"/>
    <use height="6.85" transform="matrix(1.3649, -0.5751, 0.9462, 0.7564, 7.5857, 21.3615)" width="7.8" xlink:href="#sprite2"/>
    <use height="5.55" transform="matrix(0.315, -0.1327, 0.2184, 0.1746, 6.9151, 29.9672)" width="6.2" xlink:href="#sprite3"/>
    <use height="7.8" transform="matrix(0.4885, -0.2058, 0.6219, 0.5942, 15.3194, 33.0853)" width="7.8" xlink:href="#sprite1"/>
    <use height="17.1" transform="matrix(0.3097, 0.4479, -0.4801, 0.2889, 22.4819, 2.5185)" width="20.6" xlink:href="#sprite4"/>
    <use height="20.2" transform="matrix(1.0435, 0.262, -0.2809, 0.9736, 13.261, 7.042)" width="17.55" xlink:href="#sprite6"/>
    <use height="22.95" transform="matrix(0.8572, 0.0, 0.0, 0.7997, 19.8424, 3.7631)" width="28.1" xlink:href="#sprite7"/>
    <use height="45.1" transform="matrix(0.8572, 0.0, 0.0, 0.7997, 4.1564, 4.9464)" width="42.8" xlink:href="#sprite9"/>
    <use height="27.75" transform="matrix(0.9898, 0.0, 0.0, 0.9234, 4.404, 15.2103)" width="20.4" xlink:href="#sprite10"/>
  </g>
  <defs>
    <g id="shape0" transform="matrix(1.0, 0.0, 0.0, 1.0, 0.0, 0.0)">
      <path d="M44.0 44.0 L0.0 44.0 0.0 0.0 44.0 0.0 44.0 44.0" fill="#43adca" fill-opacity="0.0" fill-rule="evenodd" stroke="none"/>
    </g>
    <g id="sprite0" transform="matrix(1.0, 0.0, 0.0, 1.0, 14.55, 20.4)">
      <use height="40.8" transform="matrix(1.0, 0.0, 0.0, 1.0, -14.55, -20.4)" width="29.15" xlink:href="#shape1"/>
    </g>
    <g id="shape1" transform="matrix(1.0, 0.0, 0.0, 1.0, 14.55, 20.4)">
      <path d="M3.0 -16.05 L3.0 -16.0 3.0 -16.05" fill="#455d8c" fill-rule="evenodd" stroke="none"/>
      <path d="M5.05 -19.85 L5.25 -20.4 5.3 -20.3 5.05 -19.85 M9.4 -5.3 L9.55 -4.95 9.5 -4.9 9.4 -5.2 9.4 -5.3" fill="#314463" fill-rule="evenodd" stroke="none"/>
      <path d="M-8.8 -8.05 L-8.8 -8.1 -8.75 -8.1 -8.8 -8.05" fill="#2c3b59" fill-rule="evenodd" stroke="none"/>
      <path d="M-9.75 -3.05 L-9.6 -3.6 -9.5 -3.55 -9.7 -3.0 -9.75 -3.05 M-7.2 -2.5 L-7.2 -2.55 -7.15 -2.55 -7.2 -2.5" fill="#24304a" fill-rule="evenodd" stroke="none"/>
      <path d="M7.45 -16.25 L7.55 -16.5 7.55 -16.2 7.45 -16.25" fill="#693d1f" fill-rule="evenodd" stroke="none"/>
      <path d="M9.05 -4.45 L9.4 -5.2 9.5 -4.9 9.05 -4.45" fill="#1c263b" fill-rule="evenodd" stroke="none"/>
      <path d="M-12.5 10.15 L-12.35 10.8 -12.55 10.15 -12.5 10.15" fill="#1a2336" fill-rule="evenodd" stroke="none"/>
      <path d="M-12.6 9.8 L-12.6 9.75 -12.6 9.8" fill="#ff9900" fill-rule="evenodd" stroke="none"/>
      <path d="M-14.1 10.25 L-14.15 10.2 -14.1 10.2 -14.1 10.25 M-11.5 12.8 L-11.55 12.85 -11.8 12.3 -11.5 12.8" fill="#cc7a00" fill-rule="evenodd" stroke="none"/>
      <path d="M-7.45 1.35 L-7.45 1.3 -7.4 1.35 -7.45 1.35 M-4.5 2.35 L-4.45 2.3 -4.45 2.35 -4.5 2.35" fill="#252016" fill-rule="evenodd" stroke="none"/>
      <path d="M-5.85 6.0 L-5.85 5.9 -5.85 5.55 -5.8 5.9 -5.8 6.0 -5.85 6.0" fill="#000000" fill-opacity="0.3019608" fill-rule="evenodd" stroke="none"/>
      <path d="M-11.4 2.85 L-11.45 2.8 -11.4 2.8 -11.4 2.85" fill="#26334d" fill-rule="evenodd" stroke="none"/>
      <path d="M8.75 -6.55 L10.05 -10.85 9.15 -6.2 8.75 -4.85 8.75 -6.55 M9.55 -4.95 L10.8 -6.2 Q10.25 -4.35 9.05 -3.35 L9.05 -4.45 9.5 -4.9 9.55 -4.95 M11.85 1.15 L13.35 1.35 13.4 1.4 12.5 3.95 11.85 1.15 M-14.05 3.2 Q-12.8 0.4 -11.0 -0.75 -11.95 0.65 -11.95 2.25 -13.1 3.15 -14.05 3.2 M-8.75 -8.1 L-8.1 -9.35 Q-4.4 -6.8 1.05 -5.9 0.0 -6.6 0.15 -7.15 L2.75 -8.25 Q-0.8 -10.55 -4.85 -11.35 L-4.7 -11.45 -3.85 -12.05 -2.55 -13.1 Q-2.2 -12.55 -1.25 -12.85 1.15 -15.1 2.35 -17.6 L3.05 -19.45 3.25 -19.75 2.75 -17.6 1.3 -14.55 1.55 -14.45 -0.6 -12.75 Q-0.75 -12.35 -0.35 -12.05 0.15 -11.65 1.85 -11.5 L2.05 -11.85 2.1 -11.8 3.05 -11.65 4.7 -11.9 4.8 -11.95 6.05 -12.85 Q5.4 -11.55 3.05 -10.25 L2.3 -9.9 Q2.5 -9.55 3.05 -9.5 L5.15 -9.85 Q7.3 -12.55 7.55 -16.2 7.9 -12.65 6.9 -10.35 5.8 -7.9 3.05 -6.95 L1.8 -6.6 3.5 -5.45 3.05 -5.25 2.7 -5.15 Q1.1 -4.75 -1.8 -5.15 -5.65 -5.65 -8.75 -8.1 M-3.95 -1.4 L-3.45 -1.8 Q-2.6 -2.25 -1.9 -2.3 L-0.5 -2.25 Q0.6 -2.0 1.35 -1.35 L2.15 -0.6 2.2 -0.5 2.65 0.1 Q3.25 1.0 3.35 2.05 L3.35 2.1 3.25 3.85 Q2.8 5.95 1.1 6.95 L0.55 7.2 -0.5 7.55 -1.15 7.65 -2.8 7.6 -2.85 7.6 Q-4.0 7.4 -4.8 6.85 L-5.6 6.15 -5.8 6.0 -5.8 5.9 -5.85 5.55 -5.85 5.9 -5.85 6.0 -6.05 6.45 -7.35 6.25 -9.75 5.55 -9.85 5.5 Q-10.9 4.95 -10.5 4.25 L-9.65 3.85 -9.9 3.1 -10.0 2.95 -10.1 2.1 -10.15 1.4 -10.15 1.3 -10.2 0.85 -10.2 0.5 -10.1 -1.15 -10.0 -1.8 -9.7 -3.0 -9.5 -3.55 -9.2 -4.2 -8.65 -4.55 -8.15 -4.4 -7.5 -3.4 -7.2 -2.55 -7.2 -2.5 -7.1 -1.95 -6.9 -0.95 -6.85 0.0 -6.85 0.05 -6.85 1.65 -7.15 3.5 -6.35 4.25 -6.4 3.8 -6.4 3.4 -6.2 2.0 -6.2 1.95 -6.2 2.05 -6.25 3.3 -6.25 3.6 -6.15 4.0 -6.15 4.1 -5.6 5.4 -5.5 5.5 -5.1 5.9 Q-3.9 6.9 -2.45 6.95 L-0.1 6.7 Q1.7 6.05 1.9 4.1 L1.85 2.8 1.85 2.75 1.1 1.05 0.7 0.6 -0.05 -0.15 Q-1.2 -1.05 -2.85 -1.2 L-4.3 -0.85 -4.8 -0.55 -3.95 -1.4 M9.0 7.75 Q5.9 8.2 6.15 10.0 L7.25 11.45 10.2 13.9 12.1 15.1 9.45 14.4 Q7.55 13.6 5.9 12.15 L4.1 10.3 4.15 10.2 Q5.2 7.7 6.85 7.35 L7.55 7.3 7.45 7.3 7.7 7.3 7.6 7.3 Q8.35 7.45 9.0 7.75 M-7.8 3.5 L-7.45 3.45 -7.4 3.3 -7.35 3.1 -7.25 3.0 -7.1 1.95 -7.0 1.35 -7.0 -0.5 -7.05 -0.9 -7.35 -2.4 Q-7.7 -3.4 -8.2 -3.55 L-8.25 -3.55 Q-8.8 -3.5 -9.2 -2.3 -9.55 -1.2 -9.55 0.4 L-9.4 2.15 -9.2 3.2 -9.0 3.7 -8.15 3.55 -7.8 3.5 M-8.3 9.1 L-8.45 9.75 -8.8 11.35 -8.95 12.7 Q-12.6 10.0 -12.45 8.85 L-12.45 8.8 -12.0 7.85 -11.3 6.95 -10.25 5.9 -9.7 6.35 -9.55 7.75 -9.2 8.65 Q-8.9 9.3 -8.6 9.15 L-8.3 9.1" fill="#e0c04c" fill-rule="evenodd" stroke="none"/>
      <path d="M5.35 -20.05 L5.95 -17.6 6.05 -16.85 Q6.3 -14.9 6.05 -12.85 L4.8 -11.95 4.7 -11.9 3.05 -11.65 2.1 -11.8 2.05 -11.85 2.15 -12.05 Q3.7 -14.85 4.65 -17.6 L4.7 -17.75 5.35 -20.05 M13.4 1.4 L14.3 2.25 Q14.65 3.75 13.05 6.3 L12.9 5.8 12.6 4.75 12.5 3.95 13.4 1.4 M7.0 15.6 L7.2 15.75 8.0 16.5 Q8.7 17.1 9.2 18.2 7.7 18.2 6.2 17.25 L6.2 18.15 Q7.1 19.45 6.15 20.4 4.0 19.3 2.8 17.65 1.7 19.15 -0.35 20.05 -0.8 18.8 -0.35 17.75 L-0.15 17.2 Q4.4 17.45 6.6 15.75 L6.7 15.7 7.0 15.6 M-8.8 15.1 L-10.9 13.45 -11.5 12.8 -11.8 12.3 -11.55 12.85 Q-12.65 13.35 -14.3 13.35 -14.1 12.4 -13.4 12.15 L-13.15 11.6 -14.55 11.6 Q-13.95 11.0 -13.2 10.9 L-12.7 10.2 -14.05 10.2 -12.6 9.75 -12.6 9.8 -12.55 10.15 -12.35 10.8 -12.5 10.15 -12.5 9.45 -12.45 8.85 Q-12.6 10.0 -8.95 12.7 L-8.8 11.35 -8.45 9.75 -8.3 9.1 -7.95 9.0 Q-6.25 7.6 -5.9 6.55 L-5.8 6.0 -5.6 6.15 -4.8 6.85 Q-4.0 7.4 -2.85 7.6 L-2.8 7.6 Q-0.95 9.25 0.15 10.65 L0.9 11.6 0.95 11.55 2.1 13.5 2.1 13.55 2.05 13.55 1.7 13.6 Q-5.05 14.9 -8.95 12.7 L-8.85 14.85 -8.8 15.1 M-14.3 3.7 L-14.05 3.2 Q-13.1 3.15 -11.95 2.25 -11.95 0.65 -11.0 -0.75 L-10.4 -1.05 -11.4 2.8 -11.45 2.8 -11.4 2.85 -11.55 3.45 -14.3 3.7 M3.25 -19.75 L3.0 -16.05 3.0 -16.0 1.55 -14.45 1.3 -14.55 2.75 -17.6 3.25 -19.75 M7.45 7.3 L7.55 7.3 6.85 7.35 Q5.2 7.7 4.15 10.2 L4.1 10.3 5.9 12.15 Q7.55 13.6 9.45 14.4 L12.1 15.1 8.85 14.75 Q6.9 14.1 5.2 12.5 L3.5 10.6 2.7 9.5 Q3.4 7.8 5.05 7.15 L6.95 7.25 7.45 7.3 M-10.5 4.25 Q-10.9 4.95 -9.85 5.5 L-9.75 5.55 -7.35 6.25 -6.05 6.45 -6.1 6.65 Q-6.7 7.4 -7.75 7.3 L-7.85 7.3 -9.7 6.35 -10.25 5.9 -10.6 5.55 -10.85 4.95 Q-11.05 4.6 -10.5 4.25" fill="#c7a743" fill-rule="evenodd" stroke="none"/>
      <path d="M14.3 2.25 L14.5 2.75 14.6 3.8 14.6 4.0 Q14.4 5.7 13.25 8.1 L13.15 8.25 13.05 6.3 Q14.65 3.75 14.3 2.25 M9.2 18.2 L6.2 18.15 6.2 17.25 Q7.7 18.2 9.2 18.2 M6.15 20.4 Q3.7 19.8 2.65 18.6 1.35 20.0 -0.35 20.05 1.7 19.15 2.8 17.65 4.0 19.3 6.15 20.4 M-0.15 17.2 L-0.1 17.1 -4.35 16.9 -8.8 15.1 -8.85 14.85 -8.95 12.7 Q-5.05 14.9 1.7 13.6 L2.05 13.55 2.1 13.55 Q2.15 15.8 1.8 16.35 L1.65 16.55 0.9 16.85 1.45 16.8 Q4.2 16.6 6.7 15.7 L6.6 15.75 Q4.4 17.45 -0.15 17.2 M-10.9 13.45 L-14.3 13.35 Q-12.65 13.35 -11.55 12.85 L-11.5 12.8 -10.9 13.45 M-13.4 12.15 Q-13.95 12.15 -14.55 11.6 L-13.15 11.6 -13.4 12.15 M-13.2 10.9 L-14.1 10.25 -14.1 10.2 -13.95 10.3 -14.05 10.2 -12.7 10.2 -13.2 10.9 M-0.05 -0.15 L0.7 0.6 1.1 1.05 1.85 2.75 1.85 2.8 1.9 4.1 Q1.7 6.05 -0.1 6.7 L-2.45 6.95 Q-3.9 6.9 -5.1 5.9 L-5.5 5.5 Q-2.25 6.3 -0.15 5.0 L-0.05 4.95 Q1.3 3.6 0.8 1.75 L-0.05 -0.15 M-7.8 3.5 L-8.15 3.55 -8.45 3.1 -8.65 1.95 -8.45 0.85 Q-8.3 0.3 -8.05 0.35 -7.8 0.35 -7.6 0.8 L-7.65 0.8 -7.8 0.9 -7.85 1.15 -7.8 1.4 -7.65 1.5 -7.45 1.35 -7.4 1.35 -7.4 1.95 Q-7.35 2.6 -7.6 3.1 L-7.8 3.5 M-4.5 2.35 L-4.7 2.45 -4.8 2.65 -4.7 2.95 -4.5 3.05 -4.3 2.95 -4.25 2.9 -4.15 3.5 Q-4.15 4.15 -4.4 4.6 L-5.05 5.05 -5.7 4.6 -5.95 3.55 -5.7 2.4 Q-5.4 1.95 -5.05 2.0 -4.7 1.95 -4.45 2.3 L-4.5 2.35" fill="#947c32" fill-rule="evenodd" stroke="none"/>
      <path d="M10.35 -3.0 L10.5 -2.6 11.0 -1.3 11.85 1.15 12.5 3.95 12.6 4.75 12.85 6.8 10.65 8.95 10.45 8.7 10.3 8.55 9.45 7.95 9.0 7.75 Q8.35 7.45 7.6 7.3 L7.7 7.3 7.45 7.3 6.95 7.25 Q8.55 4.8 9.55 1.05 L9.6 0.9 10.35 -3.0 M-12.6 9.75 L-12.45 8.8 -12.4 8.25 -12.3 7.65 -12.0 7.85 -12.45 8.8 -12.45 8.85 -12.5 9.45 -12.5 10.15 -12.55 10.15 -12.6 9.8 -12.6 9.75 M0.95 11.55 L2.2 11.2 Q2.75 12.25 3.65 13.1 L2.1 13.5 0.95 11.55 M-6.2 1.95 L-6.2 2.0 -6.2 1.75 -5.9 1.15 -6.2 1.95 M-6.05 6.45 L-5.85 6.0 -5.8 6.0 -5.9 6.55 Q-6.25 7.6 -7.95 9.0 L-8.3 9.1 -8.6 9.15 Q-8.9 9.3 -9.2 8.65 L-9.55 7.75 -9.7 6.35 -7.85 7.3 -7.75 7.3 Q-6.7 7.4 -6.1 6.65 L-6.05 6.45" fill="#615121" fill-rule="evenodd" stroke="none"/>
      <path d="M5.3 -20.3 L5.35 -20.1 5.35 -20.05 4.7 -17.75 4.65 -17.6 Q3.7 -14.85 2.15 -12.05 L2.05 -11.85 1.85 -11.5 Q0.15 -11.65 -0.35 -12.05 -0.75 -12.35 -0.6 -12.75 L1.55 -14.45 3.0 -16.0 3.0 -15.9 3.15 -16.15 3.15 -16.2 5.05 -19.8 5.05 -19.85 5.3 -20.3 M6.05 -12.85 L6.05 -12.65 7.45 -16.25 7.55 -16.2 Q7.3 -12.55 5.15 -9.85 L3.05 -9.5 Q2.5 -9.55 2.3 -9.9 L3.05 -10.25 Q5.4 -11.55 6.05 -12.85 M12.1 12.25 L12.1 15.1 10.2 13.9 7.25 11.45 6.15 10.0 Q5.9 8.2 9.0 7.75 L9.45 7.95 10.3 8.55 10.45 8.7 10.65 8.95 Q11.8 10.15 12.1 12.25 M-8.1 -9.35 L-7.95 -9.55 -7.7 -9.65 -5.15 -11.15 -4.85 -11.35 Q-0.8 -10.55 2.75 -8.25 L0.15 -7.15 Q0.0 -6.6 1.05 -5.9 -4.4 -6.8 -8.1 -9.35 M-2.55 -13.1 Q-0.35 -15.05 1.7 -17.6 L3.05 -19.45 2.35 -17.6 Q1.15 -15.1 -1.25 -12.85 -2.2 -12.55 -2.55 -13.1" fill="#f2e0b7" fill-rule="evenodd" stroke="none"/>
      <path d="M-9.75 -3.0 L-9.75 -3.05 -9.7 -3.0 -9.75 -3.0" fill="#52431b" fill-rule="evenodd" stroke="none"/>
      <path d="M14.6 4.0 L14.5 6.55 Q14.35 8.45 12.8 10.65 12.65 11.5 12.1 12.25 11.8 10.15 10.65 8.95 L12.85 6.8 12.6 4.75 12.9 5.8 13.05 6.3 13.15 8.25 13.25 8.1 Q14.4 5.7 14.6 4.0 M7.7 15.3 L7.0 15.6 6.7 15.7 Q4.2 16.6 1.45 16.8 L0.9 16.85 1.65 16.55 1.8 16.35 Q2.15 15.8 2.1 13.55 L2.1 13.5 3.65 13.1 Q5.2 14.5 7.7 15.3" fill="#403415" fill-rule="evenodd" stroke="none"/>
      <path d="M-5.5 5.5 L-5.6 5.4 -6.15 4.1 -6.15 4.0 -6.25 3.6 -6.25 3.3 -6.2 2.05 -6.2 1.95 -5.9 1.15 -5.35 0.05 -4.8 -0.55 -4.3 -0.85 -2.85 -1.2 Q-1.2 -1.05 -0.05 -0.15 L0.8 1.75 Q1.3 3.6 -0.05 4.95 L-0.15 5.0 Q-2.25 6.3 -5.5 5.5 M-8.15 3.55 L-9.0 3.7 -9.2 3.2 -9.4 2.15 -9.55 0.4 Q-9.55 -1.2 -9.2 -2.3 -8.8 -3.5 -8.25 -3.55 L-8.2 -3.55 Q-7.7 -3.4 -7.35 -2.4 L-7.05 -0.9 -7.0 -0.5 -7.0 1.35 -7.1 1.95 -7.25 3.0 -7.35 3.1 -7.4 3.3 -7.45 3.45 -7.8 3.5 -7.6 3.1 Q-7.35 2.6 -7.4 1.95 L-7.4 1.35 -7.45 1.3 -7.45 1.35 -7.65 1.5 -7.8 1.4 -7.85 1.15 -7.8 0.9 -7.65 0.8 -7.6 0.8 Q-7.8 0.35 -8.05 0.35 -8.3 0.3 -8.45 0.85 L-8.65 1.95 -8.45 3.1 -8.15 3.55 M-4.45 2.3 Q-4.7 1.95 -5.05 2.0 -5.4 1.95 -5.7 2.4 L-5.95 3.55 -5.7 4.6 -5.05 5.05 -4.4 4.6 Q-4.15 4.15 -4.15 3.5 L-4.25 2.9 -4.3 2.95 -4.5 3.05 -4.7 2.95 -4.8 2.65 -4.7 2.45 -4.5 2.35 -4.45 2.35 -4.45 2.3" fill="#fae8be" fill-rule="evenodd" stroke="none"/>
      <path d="M7.55 -16.2 L8.3 -13.25 8.65 -11.15 Q8.9 -8.85 8.75 -6.6 L8.75 -6.55 8.75 -4.85 9.15 -6.2 10.05 -10.85 10.05 -8.45 9.7 -6.2 9.4 -5.3 9.4 -5.2 9.05 -4.45 9.05 -3.35 Q6.25 -0.8 2.15 -0.6 L1.35 -1.35 Q0.6 -2.0 -0.5 -2.25 L-1.9 -2.3 Q-2.6 -2.25 -3.45 -1.8 L-3.95 -1.4 Q-5.55 -1.85 -7.15 -2.55 L-7.2 -2.55 -7.5 -3.4 -8.15 -4.4 -8.65 -4.55 -9.2 -4.2 -9.5 -3.55 -9.6 -3.6 -9.25 -6.25 -9.2 -6.65 -9.2 -6.7 -8.8 -8.05 -8.75 -8.1 Q-5.65 -5.65 -1.8 -5.15 1.1 -4.75 2.7 -5.15 L3.05 -5.25 3.5 -5.45 1.8 -6.6 3.05 -6.95 Q5.8 -7.9 6.9 -10.35 7.9 -12.65 7.55 -16.2" fill="#bd9c40" fill-rule="evenodd" stroke="none"/>
      <path d="M10.8 -6.2 L10.45 -4.6 10.4 -4.3 10.3 -3.5 10.2 -3.3 10.25 -3.2 10.35 -3.0 9.6 0.9 9.55 1.05 Q8.55 4.8 6.95 7.25 L5.05 7.15 Q3.4 7.8 2.7 9.5 L3.5 10.6 5.2 12.5 Q6.9 14.1 8.85 14.75 L12.1 15.1 Q12.35 16.55 9.75 15.8 L7.7 15.3 Q5.2 14.5 3.65 13.1 2.75 12.25 2.2 11.2 L0.95 11.55 0.9 11.6 0.15 10.65 Q-0.95 9.25 -2.8 7.6 L-1.15 7.65 -0.5 7.55 0.55 7.2 1.1 6.95 Q2.8 5.95 3.25 3.85 L3.35 2.1 3.35 2.05 Q3.25 1.0 2.65 0.1 L2.2 -0.5 2.15 -0.6 Q6.25 -0.8 9.05 -3.35 10.25 -4.35 10.8 -6.2 M-12.3 7.65 L-11.9 5.2 -12.8 5.0 Q-15.25 4.75 -14.3 3.7 L-11.55 3.45 -11.4 2.85 -11.4 2.8 -10.4 -1.05 -9.75 -3.0 -9.7 -3.0 -10.0 -1.8 -10.1 -1.15 -10.2 0.5 -10.2 0.85 -10.15 1.3 -10.15 1.4 -10.1 2.1 -10.0 2.95 -9.9 3.1 -9.65 3.85 -10.5 4.25 Q-11.05 4.6 -10.85 4.95 L-10.6 5.55 -10.25 5.9 -11.3 6.95 -12.0 7.85 -12.3 7.65 M-6.2 2.0 L-6.4 3.4 -6.4 3.8 -6.35 4.25 -7.15 3.5 -6.85 1.65 -6.85 0.05 -6.85 0.0 -6.9 -0.95 -7.1 -1.95 -7.2 -2.5 -7.15 -2.55 Q-5.55 -1.85 -3.95 -1.4 L-4.8 -0.55 -5.35 0.05 -5.9 1.15 -6.2 1.75 -6.2 2.0" fill="#856e2d" fill-rule="evenodd" stroke="none"/>
      <path d="M3.25 -19.75 L3.0 -16.05 3.0 -15.9 3.15 -16.15 3.15 -16.2 5.05 -19.8 5.05 -19.85 5.25 -20.4 5.3 -20.3 5.35 -20.1 5.35 -20.05 5.95 -17.6 6.05 -16.85 Q6.3 -14.9 6.05 -12.85 L6.05 -12.65 7.55 -16.5 7.55 -16.2 8.3 -13.25 8.65 -11.15 Q8.9 -8.85 8.75 -6.6 L8.75 -6.55 10.05 -10.85 10.05 -8.45 9.7 -6.2 9.4 -5.3 9.55 -4.95 10.8 -6.2 10.45 -4.6 10.4 -4.3 10.3 -3.5 10.2 -3.3 10.25 -3.2 10.35 -3.0 10.5 -2.6 11.0 -1.3 11.85 1.15 13.35 1.35 13.4 1.4 14.3 2.25 14.5 2.75 14.6 3.8 14.6 4.0 14.5 6.55 Q14.35 8.45 12.8 10.65 12.65 11.5 12.1 12.25 L12.1 15.1 Q12.35 16.55 9.75 15.8 L7.7 15.3 7.0 15.6 7.2 15.75 8.0 16.5 Q8.7 17.1 9.2 18.2 L6.2 18.15 Q7.1 19.45 6.15 20.4 3.7 19.8 2.65 18.6 1.35 20.0 -0.35 20.05 -0.8 18.8 -0.35 17.75 L-0.15 17.2 -0.1 17.1 -4.35 16.9 -8.8 15.1 -10.9 13.45 -14.3 13.35 Q-14.1 12.4 -13.4 12.15 -13.95 12.15 -14.55 11.6 -13.95 11.0 -13.2 10.9 L-14.1 10.25 -14.15 10.2 -14.1 10.2 -13.95 10.3 -14.05 10.2 -12.6 9.75 -12.45 8.8 -12.4 8.25 -12.3 7.65 -11.9 5.2 -12.8 5.0 Q-15.25 4.75 -14.3 3.7 L-14.05 3.2 Q-12.8 0.4 -11.0 -0.75 L-10.4 -1.05 -9.75 -3.0 -9.75 -3.05 -9.6 -3.6 -9.25 -6.25 -9.2 -6.65 -9.2 -6.7 -8.8 -8.05 -8.8 -8.1 -8.75 -8.1 -8.1 -9.35 -7.95 -9.55 -7.7 -9.65 -5.15 -11.15 -4.85 -11.35 -4.7 -11.45 -3.85 -12.05 -2.55 -13.1 Q-0.35 -15.05 1.7 -17.6 L3.05 -19.45 3.25 -19.75 Z" fill="none" stroke="#000000" stroke-linecap="round" stroke-linejoin="round" stroke-opacity="0.3019608" stroke-width="0.05"/>
    </g>
    <g id="sprite1" transform="matrix(1.0, 0.0, 0.0, 1.0, 3.9, 3.9)">
      <use height="7.8" transform="matrix(1.0, 0.0, 0.0, 1.0, -3.9, -3.9)" width="7.8" xlink:href="#shape2"/>
    </g>
    <g id="shape2" transform="matrix(1.0, 0.0, 0.0, 1.0, 3.9, 3.9)">
      <path d="M2.75 -2.75 Q3.9 -1.6 3.9 0.0 3.9 1.6 2.75 2.75 1.6 3.9 0.0 3.9 -1.6 3.9 -2.75 2.75 -3.9 1.6 -3.9 0.0 -3.9 -1.6 -2.75 -2.75 -1.6 -3.9 0.0 -3.9 1.6 -3.9 2.75 -2.75" fill="url(#gradient0)" fill-rule="evenodd" stroke="none"/>
    </g>
    <radialGradient cx="0" cy="0" gradientTransform="matrix(0.0048, 0.0, 0.0, 0.0048, 0.0, 0.0)" gradientUnits="userSpaceOnUse" id="gradient0" r="819.2" spreadMethod="pad">
      <stop offset="0.0" stop-color="#ffff99" stop-opacity="0.4509804"/>
      <stop offset="1.0" stop-color="#ffff99" stop-opacity="0.0"/>
    </radialGradient>
    <g id="sprite2" transform="matrix(1.0, 0.0, 0.0, 1.0, 3.9, 2.95)">
      <use height="6.85" transform="matrix(1.0, 0.0, 0.0, 1.0, -3.9, -2.95)" width="7.8" xlink:href="#shape3"/>
    </g>
    <g id="shape3" transform="matrix(1.0, 0.0, 0.0, 1.0, 3.9, 2.95)">
      <path d="M2.75 -2.75 Q3.9 -1.6 3.9 0.0 3.9 1.6 2.75 2.75 1.6 3.9 0.0 3.9 -1.6 3.9 -2.75 2.75 -3.9 1.6 -3.9 0.0 -3.9 -1.1 -3.35 -1.95 0.25 -2.05 2.55 -2.95 L2.75 -2.75" fill="url(#gradient1)" fill-rule="evenodd" stroke="none"/>
    </g>
    <radialGradient cx="0" cy="0" gradientTransform="matrix(0.0048, 0.0, 0.0, 0.0048, 0.0, 0.0)" gradientUnits="userSpaceOnUse" id="gradient1" r="819.2" spreadMethod="pad">
      <stop offset="0.0" stop-color="#ffff99" stop-opacity="0.4509804"/>
      <stop offset="1.0" stop-color="#ffff99" stop-opacity="0.0"/>
    </radialGradient>
    <g id="sprite3" transform="matrix(1.0, 0.0, 0.0, 1.0, 2.3, 1.65)">
      <use height="5.55" transform="matrix(1.0, 0.0, 0.0, 1.0, -2.3, -1.65)" width="6.2" xlink:href="#shape4"/>
    </g>
    <g id="shape4" transform="matrix(1.0, 0.0, 0.0, 1.0, 2.3, 1.65)">
      <path d="M-0.65 -1.65 L3.8 -1.0 3.9 0.0 Q3.9 1.6 2.75 2.75 1.6 3.9 0.0 3.9 -1.3 3.9 -2.3 3.15 L-2.25 2.55 -2.25 2.4 -1.95 0.8 -1.35 -1.0 -0.8 -1.55 -0.65 -1.65" fill="url(#gradient2)" fill-rule="evenodd" stroke="none"/>
    </g>
    <radialGradient cx="0" cy="0" gradientTransform="matrix(0.0048, 0.0, 0.0, 0.0048, 0.0, 0.0)" gradientUnits="userSpaceOnUse" id="gradient2" r="819.2" spreadMethod="pad">
      <stop offset="0.0" stop-color="#ffff99" stop-opacity="0.4509804"/>
      <stop offset="1.0" stop-color="#ffff99" stop-opacity="0.0"/>
    </radialGradient>
    <g id="sprite4" transform="matrix(1.0, 0.0, 0.0, 1.0, 11.15, 7.05)">
      <use height="17.1" transform="matrix(1.0, 0.0, 0.0, 1.0, -7.65, -7.05)" width="17.1" xlink:href="#shape5"/>
      <use height="7.8" transform="matrix(0.5874, -0.9327, 0.2784, 0.421, -8.3763, 1.1958)" width="7.8" xlink:href="#sprite1"/>
      <use height="7.8" transform="matrix(-0.0014, -0.1318, 0.1209, -0.0053, -0.966, -3.8153)" width="7.8" xlink:href="#sprite1"/>
      <use height="7.8" transform="matrix(-0.0014, -0.1318, 0.1209, -0.0053, -5.066, 7.9847)" width="7.8" xlink:href="#sprite1"/>
      <use height="7.8" transform="matrix(0.0309, -0.0337, 0.0319, 0.0273, -0.2446, 5.375)" width="7.8" xlink:href="#sprite1"/>
      <use height="7.8" transform="matrix(-0.0014, -0.1318, 0.1209, -0.0053, 2.584, 5.4347)" width="7.8" xlink:href="#sprite1"/>
      <use height="7.8" transform="matrix(0.0309, -0.0337, 0.0319, 0.0273, 5.1554, -3.775)" width="7.8" xlink:href="#sprite1"/>
      <use height="7.8" transform="matrix(0.0309, -0.0337, 0.0319, 0.0273, 4.0554, -3.325)" width="7.8" xlink:href="#sprite1"/>
      <use height="8.8" transform="matrix(-0.5685, -0.1455, 0.2511, -0.9809, -6.1532, 5.9064)" width="8.8" xlink:href="#sprite5"/>
    </g>
    <g id="shape5" transform="matrix(1.0, 0.0, 0.0, 1.0, 7.65, 7.05)">
      <path d="M-3.75 8.55 L-3.2 8.05" fill="none" stroke="#000000" stroke-linecap="round" stroke-linejoin="round" stroke-width="0.05"/>
      <path d="M4.3 -4.4 L5.45 -4.75 Q6.5 -4.75 7.4 -3.9 L7.95 -3.25 Q9.1 -1.7 9.35 0.55 9.65 2.75 8.85 4.3 8.1 5.85 6.7 5.85 L6.1 5.75 Q5.2 5.5 4.4 4.55 L4.35 4.5 4.2 4.3 Q3.1 2.75 2.8 0.55 L2.75 0.05 Q2.65 -1.85 3.3 -3.25 L4.3 -4.4 M6.9 -2.65 L6.4 -2.65 6.25 -2.6 5.9 -2.3 5.4 -1.45 Q5.15 -0.3 5.45 1.0 L5.5 1.2 Q5.7 2.15 6.2 2.8 L6.45 3.1 7.2 3.7 7.25 3.7 7.9 3.75 Q8.5 3.6 8.8 2.9 L8.9 2.5 8.95 2.4 8.9 0.1 8.2 -1.6 7.9 -2.0 7.85 -2.05 7.1 -2.65 6.9 -2.65" fill="#746127" fill-rule="evenodd" stroke="none"/>
      <path d="M6.9 -2.65 L7.1 -2.65 7.85 -2.05 7.9 -2.0 8.2 -1.6 8.9 0.1 8.95 2.4 8.9 2.5 8.8 2.9 Q8.5 3.6 7.9 3.75 L7.25 3.7 7.2 3.7 6.45 3.1 6.2 2.8 Q5.7 2.15 5.5 1.2 L5.45 1.0 Q5.15 -0.3 5.4 -1.45 L5.9 -2.3 6.25 -2.6 6.4 -2.65 6.9 -2.65" fill="#3c3122" fill-rule="evenodd" stroke="none"/>
      <path d="M4.3 -4.4 L3.3 -3.25 Q2.65 -1.85 2.75 0.05 L2.8 0.55 Q3.1 2.75 4.2 4.3 L4.35 4.5 4.4 4.55 Q5.2 5.5 6.1 5.75 L6.7 5.85 Q8.1 5.85 8.85 4.3 9.65 2.75 9.35 0.55 9.1 -1.7 7.95 -3.25 L7.4 -3.9 Q6.5 -4.75 5.45 -4.75 L4.3 -4.4 M7.25 -4.25 L7.95 -3.4 8.95 -1.45 Q9.45 -0.1 9.45 1.5 L9.4 2.6 9.3 3.35 Q8.8 5.65 7.1 7.4 L6.95 7.55 Q4.45 10.05 0.9 10.05 -2.65 10.05 -5.15 7.55 -7.65 5.05 -7.65 1.5 L-7.65 1.3 Q-7.55 -2.15 -5.15 -4.55 -2.65 -7.05 0.9 -7.05 3.1 -7.05 4.9 -6.1 L6.95 -4.55 7.25 -4.25" fill="url(#gradient3)" fill-rule="evenodd" stroke="none"/>
      <path d="M2.3 3.75 Q1.55 6.4 -0.3 7.75 -2.1 9.05 -3.95 8.3 -5.95 7.55 -6.8 5.2 -7.6 2.8 -6.95 0.2 -6.25 -2.5 -4.45 -3.85 -2.6 -5.2 -0.7 -4.35 1.25 -3.65 2.1 -1.25 2.95 1.15 2.3 3.75" fill="#ffffff" fill-opacity="0.2" fill-rule="evenodd" stroke="none"/>
      <path d="M-2.25 -0.8 Q-1.95 0.2 -2.25 1.3 -2.5 2.4 -3.3 2.95 -4.1 3.5 -4.9 3.2 -5.7 2.95 -6.0 1.9 -6.4 0.9 -6.1 -0.25 -5.85 -1.35 -5.05 -1.9 -4.25 -2.4 -3.45 -2.15 -2.65 -1.85 -2.25 -0.8" fill="#ffffff" fill-opacity="0.87058824" fill-rule="evenodd" stroke="none"/>
      <path d="M-0.2 1.3 Q-0.3 1.85 -0.65 2.05 L-1.35 2.2 Q-1.7 2.05 -1.85 1.6 -2.05 1.2 -1.85 0.7 L-1.45 -0.1 -0.75 -0.15 -0.2 0.45 Q-0.05 0.85 -0.2 1.3" fill="#ffffff" fill-opacity="0.87058824" fill-rule="evenodd" stroke="none"/>
    </g>
    <radialGradient cx="0" cy="0" gradientTransform="matrix(0.0157, 0.0, 0.0, 0.0157, -3.5, -1.4)" gradientUnits="userSpaceOnUse" id="gradient3" r="819.2" spreadMethod="pad">
      <stop offset="0.0" stop-color="#fffe77"/>
      <stop offset="1.0" stop-color="#af933b"/>
    </radialGradient>
    <g id="sprite5" transform="matrix(1.0, 0.0, 0.0, 1.0, 4.4, 4.4)">
      <use height="8.8" transform="matrix(1.0, 0.0, 0.0, 1.0, -4.4, -4.4)" width="8.8" xlink:href="#shape6"/>
    </g>
    <g id="shape6" transform="matrix(1.0, 0.0, 0.0, 1.0, 4.4, 4.4)">
      <path d="M4.4 0.2 L0.3 0.55 -0.05 4.4 -0.1 4.4 -0.45 0.55 -4.4 0.2 -4.4 0.15 -0.45 -0.2 -0.1 -4.4 -0.05 -4.4 0.3 -0.2 4.4 0.15 4.4 0.2" fill="#ffffff" fill-rule="evenodd" stroke="none"/>
    </g>
    <g id="sprite6" transform="matrix(1.0, 0.0, 0.0, 1.0, 8.5, 8.3)">
      <clipPath id="clipPath0" transform="matrix(1.0, 0.0, 0.0, 1.0, 8.5, 8.3)">
        <use height="19.7" transform="matrix(1.0, 0.0, 0.0, 1.0, -8.5, -7.8)" width="17.55" xlink:href="#shape7"/>
      </clipPath>
      <g clip-path="url(#clipPath0)">
        <use height="18.0" transform="matrix(1.0, 0.0, 0.0, 1.0, -6.25, -8.3)" width="12.65" xlink:href="#shape8"/>
      </g>
    </g>
    <g id="shape7" transform="matrix(1.0, 0.0, 0.0, 1.0, 8.5, 7.8)">
      <path d="M3.25 -6.85 L5.6 -5.6 9.05 2.35 5.75 9.65 Q-3.9 13.6 -5.45 10.6 -7.05 7.6 -8.5 2.25 L-7.85 -1.05 Q-7.25 -4.4 -7.35 -4.4 -4.15 -8.95 -4.2 -7.45 -4.25 -5.95 -3.25 -4.45 L-0.75 -3.95 Q1.8 -3.6 1.9 -4.65 2.05 -6.3 3.25 -6.85" fill="#00cc00" fill-rule="evenodd" stroke="none"/>
      <path d="M3.25 -6.85 Q2.05 -6.3 1.9 -4.65 1.8 -3.6 -0.75 -3.95 L-3.25 -4.45 Q-4.25 -5.95 -4.2 -7.45 -4.15 -8.95 -7.35 -4.4 -7.25 -4.4 -7.85 -1.05 L-8.5 2.25 Q-7.05 7.6 -5.45 10.6 -3.9 13.6 5.75 9.65 L9.05 2.35 5.6 -5.6 3.25 -6.85 Z" fill="none" stroke="#ff0000" stroke-linecap="round" stroke-linejoin="round" stroke-width="0.05"/>
    </g>
    <g id="shape8" transform="matrix(1.0, 0.0, 0.0, 1.0, 6.25, 8.3)">
      <path d="M3.85 7.25 Q4.15 8.1 3.95 8.75 3.85 9.5 3.4 9.65 2.8 9.85 2.25 9.35 L1.55 8.3 Q2.7 8.1 3.75 7.3 L3.85 7.25 M1.3 6.25 Q1.4 5.65 1.95 5.45 L2.4 5.45 2.75 5.6 2.55 5.7 2.15 5.95 1.3 6.25" fill="#181810" fill-rule="evenodd" stroke="none"/>
      <path d="M-6.2 -2.4 Q-6.15 -0.2 -4.65 1.4 L-4.2 2.85 -4.25 2.9 -4.2 2.9 -5.2 4.05 Q-6.55 0.45 -6.2 -2.4 M4.3 -0.2 Q4.75 -1.3 4.75 -2.6 4.75 -4.8 3.3 -6.45 L3.6 -6.15 4.7 -4.3 Q6.15 -1.35 5.75 1.8 5.35 5.05 3.3 6.6 2.3 7.25 1.3 7.5 L1.3 6.35 1.3 6.25 2.15 5.95 2.55 5.7 2.75 5.6 Q4.05 4.4 4.3 2.2 L4.3 -0.2" fill="#e0c04c" fill-rule="evenodd" stroke="none"/>
      <path d="M-4.65 1.4 Q-5.1 -0.3 -4.9 -1.95 -4.6 -4.35 -3.2 -5.5 L-1.9 -6.05 -2.5 -5.7 Q-3.9 -4.55 -4.2 -2.15 -4.5 0.1 -3.8 2.25 L-4.2 2.85 -4.65 1.4 M3.6 -6.15 L5.25 -3.65 Q6.7 -0.7 6.3 2.45 5.9 5.7 3.85 7.25 L3.75 7.3 Q2.7 8.1 1.55 8.3 L1.4 7.95 1.3 7.5 Q2.3 7.25 3.3 6.6 5.35 5.05 5.75 1.8 6.15 -1.35 4.7 -4.3 L3.6 -6.15" fill="#615121" fill-rule="evenodd" stroke="none"/>
      <path d="M-6.2 -2.4 Q-5.8 -5.75 -3.7 -7.3 -1.45 -9.0 1.3 -7.8 L2.7 -7.0 3.3 -6.45 Q4.75 -4.8 4.75 -2.6 4.75 -1.3 4.3 -0.2 L3.45 -2.8 Q2.35 -5.15 0.5 -5.95 L-1.9 -6.05 -3.2 -5.5 Q-4.6 -4.35 -4.9 -1.95 -5.1 -0.3 -4.65 1.4 -6.15 -0.2 -6.2 -2.4" fill="#feeabc" fill-rule="evenodd" stroke="none"/>
      <path d="M-3.1 -6.0 L-3.7 -6.35 Q-3.9 -6.6 -3.75 -6.9 L-3.3 -7.55 -2.6 -7.8 Q-2.25 -7.8 -2.05 -7.55 -1.85 -7.25 -1.95 -6.9 L-2.35 -6.25 Q-2.7 -6.0 -3.1 -6.0" fill="#ffffff" fill-rule="evenodd" stroke="none"/>
      <path d="M-1.3 -6.95 Q-1.45 -6.95 -1.6 -7.1 L-1.7 -7.4 -1.5 -7.75 -1.1 -7.9 -0.8 -7.8 -0.7 -7.45 -0.9 -7.1 Q-1.05 -6.95 -1.3 -6.95" fill="#ffffff" fill-rule="evenodd" stroke="none"/>
    </g>
    <g id="sprite7" transform="matrix(1.0, 0.0, 0.0, 1.0, 12.9, 10.8)">
      <clipPath id="clipPath1" transform="matrix(1.0, 0.0, 0.0, 1.0, 12.9, 10.8)">
        <use height="22.95" transform="matrix(1.0, 0.0, 0.0, 1.0, -12.9, -10.8)" width="28.1" xlink:href="#shape9"/>
      </clipPath>
      <g clip-path="url(#clipPath1)">
        <use height="16.25" transform="matrix(1.0, 0.0, 0.0, 1.0, -6.35, -8.0)" width="13.35" xlink:href="#shape10"/>
        <use height="1.9" transform="matrix(1.0, 0.0, 0.0, 1.0, -8.35, -2.15)" width="1.9" xlink:href="#sprite8"/>
        <use height="1.9" transform="matrix(1.0, 0.0, 0.0, 1.0, -6.3, -2.5)" width="1.9" xlink:href="#sprite8"/>
        <use height="1.9" transform="matrix(1.0, 0.0, 0.0, 1.0, -4.65, -1.1)" width="1.9" xlink:href="#sprite8"/>
        <use height="1.9" transform="matrix(1.0, 0.0, 0.0, 1.0, -3.8, 0.75)" width="1.9" xlink:href="#sprite8"/>
        <use height="1.9" transform="matrix(1.0, 0.0, 0.0, 1.0, -2.75, 2.7)" width="1.9" xlink:href="#sprite8"/>
        <use height="1.9" transform="matrix(1.0, 0.0, 0.0, 1.0, -1.55, 4.5)" width="1.9" xlink:href="#sprite8"/>
        <use height="1.9" transform="matrix(1.0, 0.0, 0.0, 1.0, -0.05, 6.35)" width="1.9" xlink:href="#sprite8"/>
        <use height="1.9" transform="matrix(1.0, 0.0, 0.0, 1.0, 2.05, 7.25)" width="1.9" xlink:href="#sprite8"/>
        <use height="1.9" transform="matrix(1.0, 0.0, 0.0, 1.0, 4.4, 7.25)" width="1.9" xlink:href="#sprite8"/>
        <use height="1.9" transform="matrix(1.0, 0.0, 0.0, 1.0, 6.45, 6.8)" width="1.9" xlink:href="#sprite8"/>
        <use height="1.9" transform="matrix(1.0, 0.0, 0.0, 1.0, 8.3, 5.75)" width="1.9" xlink:href="#sprite8"/>
        <use height="1.9" transform="matrix(1.0, 0.0, 0.0, 1.0, 9.45, 3.75)" width="1.9" xlink:href="#sprite8"/>
        <use height="1.9" transform="matrix(1.0, 0.0, 0.0, 1.0, 9.15, 1.6)" width="1.9" xlink:href="#sprite8"/>
        <use height="1.9" transform="matrix(1.0, 0.0, 0.0, 1.0, 8.3, -0.6)" width="1.9" xlink:href="#sprite8"/>
        <use height="1.9" transform="matrix(1.0, 0.0, 0.0, 1.0, 6.75, -2.5)" width="1.9" xlink:href="#sprite8"/>
        <use height="1.9" transform="matrix(1.0, 0.0, 0.0, 1.0, 5.05, -3.9)" width="1.9" xlink:href="#sprite8"/>
        <use height="1.9" transform="matrix(1.0, 0.0, 0.0, 1.0, 3.3, -5.3)" width="1.9" xlink:href="#sprite8"/>
        <use height="1.9" transform="matrix(1.0, 0.0, 0.0, 1.0, 1.45, -6.35)" width="1.9" xlink:href="#sprite8"/>
        <use height="1.9" transform="matrix(1.0, 0.0, 0.0, 1.0, -0.45, -7.2)" width="1.9" xlink:href="#sprite8"/>
        <use height="1.9" transform="matrix(1.0, 0.0, 0.0, 1.0, -2.55, -7.95)" width="1.9" xlink:href="#sprite8"/>
        <use height="1.9" transform="matrix(1.0, 0.0, 0.0, 1.0, -4.75, -8.65)" width="1.9" xlink:href="#sprite8"/>
        <use height="1.9" transform="matrix(1.0, 0.0, 0.0, 1.0, -6.8, -8.95)" width="1.9" xlink:href="#sprite8"/>
        <use height="1.9" transform="matrix(1.0, 0.0, 0.0, 1.0, -9.1, -9.1)" width="1.9" xlink:href="#sprite8"/>
        <use height="1.9" transform="matrix(1.0, 0.0, 0.0, 1.0, -11.3, -8.85)" width="1.9" xlink:href="#sprite8"/>
      </g>
    </g>
    <g id="shape9" transform="matrix(1.0, 0.0, 0.0, 1.0, 12.9, 10.8)">
      <path d="M0.65 -10.8 L7.9 -3.65 15.2 3.65 11.1 11.35 1.8 12.15 -10.65 -0.7 -9.0 -5.2 -1.0 -1.9 -6.6 -6.85 -8.05 -7.85 Q-10.0 -8.75 -12.2 -7.9 L-12.9 -10.1 -6.1 -10.35 0.65 -10.8" fill="#009900" fill-rule="evenodd" stroke="none"/>
    </g>
    <g id="shape10" transform="matrix(1.0, 0.0, 0.0, 1.0, 6.35, 8.0)">
      <path d="M7.0 -2.3 L3.85 -4.55 0.2 -6.4 M0.45 6.85 L0.65 7.05 Q1.8 8.05 3.75 8.25 M-2.45 -7.3 L-6.35 -8.0 M-4.3 -0.75 L-4.1 -0.5" fill="none" stroke="#c4ac4a" stroke-linecap="round" stroke-linejoin="round" stroke-opacity="0.3019608" stroke-width="0.05"/>
    </g>
    <g id="sprite8" transform="matrix(1.0, 0.0, 0.0, 1.0, 0.95, 0.95)">
      <use height="1.9" transform="matrix(1.0, 0.0, 0.0, 1.0, -0.95, -0.95)" width="1.9" xlink:href="#shape11"/>
    </g>
    <g id="shape11" transform="matrix(1.0, 0.0, 0.0, 1.0, 0.95, 0.95)">
      <path d="M0.0 -0.95 L0.7 -0.7 0.95 0.0 0.7 0.65 0.0 0.95 Q-0.4 0.95 -0.65 0.65 L-0.95 0.0 -0.65 -0.7 -0.85 -0.15 -0.6 0.45 Q-0.4 0.7 -0.05 0.7 L0.55 0.45 0.75 -0.15 0.55 -0.75 0.0 -0.95" fill="#c2ad49" fill-rule="evenodd" stroke="none"/>
      <path d="M0.0 -0.95 L0.55 -0.75 0.75 -0.15 0.55 0.45 -0.05 0.7 Q-0.4 0.7 -0.6 0.45 L-0.85 -0.15 -0.65 -0.7 -0.6 -0.75 Q-0.4 -0.95 -0.05 -0.95 L0.0 -0.95" fill="url(#gradient4)" fill-rule="evenodd" stroke="none"/>
      <path d="M0.25 -0.4 L0.0 -0.25 -0.4 -0.3 -0.55 -0.45 -0.5 -0.7 -0.15 -0.8 0.15 -0.8 0.3 -0.65 0.25 -0.4" fill="#ffffff" fill-rule="evenodd" stroke="none"/>
      <path d="M0.2 0.1 L0.1 0.2 -0.1 0.2 -0.15 0.1 -0.15 0.0 0.05 -0.05 0.15 -0.05 0.25 0.0 0.2 0.1" fill="#ffffff" fill-rule="evenodd" stroke="none"/>
    </g>
    <radialGradient cx="0" cy="0" gradientTransform="matrix(0.0034, 0.0, 0.0, 0.0034, 0.9, 1.25)" gradientUnits="userSpaceOnUse" id="gradient4" r="819.2" spreadMethod="pad">
      <stop offset="0.0" stop-color="#c2ad49"/>
      <stop offset="1.0" stop-color="#ffff9a"/>
    </radialGradient>
    <g id="sprite9" transform="matrix(1.0, 0.0, 0.0, 1.0, 21.4, 22.45)">
      <use height="45.1" transform="matrix(1.0, 0.0, 0.0, 1.0, -21.4, -22.45)" width="42.8" xlink:href="#shape12"/>
    </g>
    <g id="shape12" transform="matrix(1.0, 0.0, 0.0, 1.0, 21.4, 22.45)">
      <path d="M10.4 -20.3 L11.0 -20.05 11.25 -19.35 11.0 -18.7 Q10.75 -18.4 10.3 -18.4 9.9 -18.4 9.65 -18.7 9.35 -18.95 9.35 -19.35 9.35 -19.8 9.65 -20.05 L9.7 -20.1 10.25 -20.3 10.4 -20.3 M11.6 -19.25 L12.15 -19.45 12.3 -19.45 12.9 -19.2 13.15 -18.5 12.9 -17.85 Q12.65 -17.55 12.2 -17.55 11.8 -17.55 11.55 -17.85 11.25 -18.1 11.25 -18.5 11.25 -18.95 11.55 -19.2 L11.6 -19.25 M14.15 -18.4 L14.0 -18.4 Q13.65 -18.4 13.45 -18.2 L13.4 -18.15 Q13.1 -17.9 13.1 -17.45 13.1 -17.05 13.4 -16.8 13.65 -16.5 14.05 -16.5 14.5 -16.5 14.75 -16.8 L15.0 -17.45 14.75 -18.15 14.15 -18.4 M14.85 -16.05 Q14.85 -15.65 15.15 -15.4 15.4 -15.1 15.8 -15.1 16.25 -15.1 16.5 -15.4 L16.75 -16.05 16.5 -16.75 15.9 -17.0 15.75 -17.0 Q15.4 -17.0 15.2 -16.8 L15.15 -16.75 Q14.85 -16.5 14.85 -16.05 M17.6 -15.6 L18.2 -15.35 18.45 -14.65 18.2 -14.0 Q17.95 -13.7 17.5 -13.7 17.1 -13.7 16.85 -14.0 16.55 -14.25 16.55 -14.65 16.55 -15.1 16.85 -15.35 L16.9 -15.4 17.45 -15.6 17.6 -15.6 M18.1 -12.75 Q18.1 -12.35 18.4 -12.1 18.65 -11.8 19.05 -11.8 19.5 -11.8 19.75 -12.1 L20.0 -12.75 19.75 -13.45 19.15 -13.7 19.0 -13.7 Q18.65 -13.7 18.45 -13.5 L18.4 -13.45 Q18.1 -13.2 18.1 -12.75 M6.1 -21.75 L6.7 -21.5 6.95 -20.8 6.7 -20.15 Q6.45 -19.85 6.0 -19.85 5.6 -19.85 5.35 -20.15 5.05 -20.4 5.05 -20.8 5.05 -21.25 5.35 -21.5 L5.4 -21.55 5.95 -21.75 6.1 -21.75 M7.25 -20.1 Q7.25 -20.55 7.55 -20.8 L7.6 -20.85 8.15 -21.05 8.3 -21.05 8.9 -20.8 9.15 -20.1 8.9 -19.45 Q8.65 -19.15 8.2 -19.15 7.8 -19.15 7.55 -19.45 7.25 -19.7 7.25 -20.1 M4.05 -22.05 L3.9 -22.05 3.35 -21.85 3.3 -21.8 Q3.0 -21.55 3.0 -21.1 3.0 -20.7 3.3 -20.45 3.55 -20.15 3.95 -20.15 4.4 -20.15 4.65 -20.45 L4.9 -21.1 4.65 -21.8 4.05 -22.05 M1.0 -21.95 Q0.7 -21.7 0.7 -21.3 L0.35 -21.35 0.15 -21.7 -0.45 -21.95 -0.6 -21.95 -1.15 -21.75 -1.2 -21.7 -1.45 -21.35 -2.85 -20.9 -3.85 -20.3 Q-5.05 -19.45 -5.65 -18.15 L-6.1 -16.7 Q-8.55 -15.3 -9.9 -11.95 -11.2 -8.65 -10.85 -3.9 L-12.65 -2.9 -15.1 -1.55 -15.85 1.4 -16.9 4.35 Q-19.05 5.5 -20.05 7.25 L-20.1 7.35 -20.2 7.45 -20.25 7.6 -20.5 8.1 Q-20.45 8.5 -19.2 8.75 L-18.9 8.85 -19.15 11.25 -19.2 11.35 -19.2 11.45 -19.25 11.75 -19.45 12.5 -20.6 12.75 -20.65 12.75 -20.7 12.7 -20.65 12.8 -20.55 12.95 -20.05 13.35 -20.5 13.5 Q-20.85 13.6 -21.15 13.8 L-21.0 13.9 -20.85 14.1 -20.45 14.3 -20.3 14.35 -20.55 14.5 Q-20.9 14.7 -21.05 15.2 L-20.9 15.25 -20.7 15.3 Q-19.8 15.5 -18.85 15.3 L-16.75 17.1 -14.3 18.55 -12.35 19.2 -10.25 19.3 -10.3 19.4 -10.4 19.65 -10.5 19.75 -10.6 20.05 -10.75 20.95 -10.75 21.4 -10.7 21.6 -10.65 21.6 -10.55 21.6 -10.25 21.6 -9.85 21.6 -8.2 20.75 -7.65 21.3 -7.2 21.65 Q-6.55 22.1 -5.6 22.4 L-5.55 22.4 Q-4.75 21.7 -5.3 20.75 L-5.3 20.7 -4.65 21.0 -4.4 21.05 -3.45 21.05 -3.05 20.95 -3.0 20.9 -3.15 20.55 Q-3.4 19.9 -3.8 19.5 L-4.15 19.05 -4.45 18.75 -4.3 18.7 -3.95 18.6 -3.9 18.55 -3.0 18.9 -2.4 19.1 Q-1.05 19.7 -0.65 19.3 L-0.45 18.7 -0.2 17.35 -0.05 16.3 0.25 15.85 Q1.95 13.25 2.15 12.25 L2.3 11.05 2.45 9.25 2.35 9.05 2.3 8.9 2.15 8.55 1.9 8.3 1.2 7.95 0.55 7.8 0.45 7.8 0.35 7.05 0.05 5.75 -0.25 4.75 -0.3 4.6 -0.35 4.4 -0.4 4.25 -0.4 4.15 -0.35 4.0 -0.35 3.9 -0.3 3.75 -0.3 3.6 -0.25 3.4 -0.2 3.3 -0.15 3.25 -0.1 3.1 0.05 2.75 0.1 2.7 Q2.45 1.3 3.7 -1.95 5.25 -5.65 4.45 -9.75 L3.85 -11.95 4.1 -12.25 Q4.55 -12.85 4.8 -13.55 L4.9 -13.8 5.15 -14.0 5.4 -14.65 5.25 -15.25 5.2 -16.2 Q5.1 -17.55 4.35 -18.8 3.55 -20.0 2.45 -20.65 L2.6 -21.25 2.35 -21.95 1.75 -22.2 1.6 -22.2 Q1.25 -22.2 1.05 -22.0 L1.0 -21.95 M5.5 -14.0 L5.45 -13.95 Q5.15 -13.7 5.15 -13.25 5.15 -12.85 5.45 -12.6 5.7 -12.3 6.1 -12.3 6.55 -12.3 6.8 -12.6 L7.05 -13.25 6.8 -13.95 6.2 -14.2 6.05 -14.2 5.5 -14.0 M8.1 -10.4 L7.95 -10.4 Q7.6 -10.4 7.4 -10.2 L7.35 -10.15 Q7.05 -9.9 7.05 -9.45 7.05 -9.05 7.35 -8.8 7.6 -8.5 8.0 -8.5 8.45 -8.5 8.7 -8.8 L8.95 -9.45 8.7 -10.15 8.1 -10.4 M7.9 -11.4 L7.65 -10.75 Q7.4 -10.45 6.95 -10.45 6.55 -10.45 6.3 -10.75 6.0 -11.0 6.0 -11.4 6.0 -11.85 6.3 -12.1 L6.35 -12.15 6.9 -12.35 7.05 -12.35 7.65 -12.1 7.9 -11.4 M9.3 -8.6 L9.15 -8.6 Q8.8 -8.6 8.6 -8.4 L8.55 -8.35 Q8.25 -8.1 8.25 -7.65 8.25 -7.25 8.55 -7.0 8.8 -6.7 9.2 -6.7 9.65 -6.7 9.9 -7.0 L10.15 -7.65 9.9 -8.35 9.3 -8.6 M10.1 -6.55 L10.65 -6.75 10.8 -6.75 11.4 -6.5 11.65 -5.8 11.4 -5.15 Q11.15 -4.85 10.7 -4.85 10.3 -4.85 10.05 -5.15 9.75 -5.4 9.75 -5.8 9.75 -6.25 10.05 -6.5 L10.1 -6.55 M1.7 -10.4 L1.5 -10.35 -1.55 -10.1 -1.7 -10.1 Q-4.0 -10.6 -5.25 -12.6 L-5.8 -13.7 Q-6.85 -12.7 -7.55 -11.0 -8.7 -8.35 -8.55 -5.5 L-7.2 -6.65 -7.15 -6.65 -5.95 -7.8 -5.8 -7.85 -4.75 -9.1 -4.6 -9.3 -4.55 -9.35 -4.55 -9.25 -5.0 -6.5 -4.95 -6.55 -3.15 -9.25 -3.15 -9.3 -2.95 -9.65 -2.9 -9.6 -2.85 -9.45 -2.85 -9.4 -2.75 -8.85 -2.6 -7.45 -2.6 -7.4 -2.6 -6.8 -2.6 -6.2 -2.6 -5.6 -2.6 -5.4 -2.15 -5.05 -1.55 -6.25 -1.45 -6.4 -1.45 -6.35 -1.4 -6.4 -1.45 -6.25 -1.1 0.4 -0.8 0.2 -0.75 0.15 0.05 -1.75 0.05 -1.7 0.1 -1.85 0.05 -0.6 1.4 -2.9 Q1.95 -4.4 2.15 -5.85 2.3 -7.55 1.95 -9.25 L1.7 -10.4 M19.25 -11.25 L19.3 -11.3 19.85 -11.5 20.0 -11.5 20.6 -11.25 20.85 -10.55 20.6 -9.9 Q20.35 -9.6 19.9 -9.6 19.5 -9.6 19.25 -9.9 18.95 -10.15 18.95 -10.55 18.95 -11.0 19.25 -11.25 M17.3 -6.3 L17.9 -6.05 18.15 -5.35 17.9 -4.7 Q17.65 -4.4 17.2 -4.4 16.8 -4.4 16.55 -4.7 16.25 -4.95 16.25 -5.35 16.25 -5.8 16.55 -6.05 L16.6 -6.1 Q16.8 -6.3 17.15 -6.3 L17.3 -6.3 M19.6 -9.15 Q19.8 -9.35 20.15 -9.35 L20.3 -9.35 20.9 -9.1 21.15 -8.4 20.9 -7.75 Q20.65 -7.45 20.2 -7.45 19.8 -7.45 19.55 -7.75 19.25 -8.0 19.25 -8.4 19.25 -8.85 19.55 -9.1 L19.6 -9.15 M18.1 -6.4 Q18.1 -6.0 18.4 -5.75 18.65 -5.45 19.05 -5.45 19.5 -5.45 19.75 -5.75 L20.0 -6.4 19.75 -7.1 19.15 -7.35 19.0 -7.35 Q18.65 -7.35 18.45 -7.15 L18.4 -7.1 Q18.1 -6.85 18.1 -6.4 M14.9 -6.05 L15.75 -5.7 16.1 -4.85 Q16.1 -4.4 15.75 -4.05 15.4 -3.7 14.9 -3.7 14.45 -3.7 14.1 -4.05 13.75 -4.4 13.75 -4.85 L13.5 -4.25 Q13.25 -3.95 12.8 -3.95 12.4 -3.95 12.15 -4.25 11.85 -4.5 11.85 -4.9 11.85 -5.35 12.15 -5.6 L12.2 -5.65 Q12.4 -5.85 12.75 -5.85 L12.9 -5.85 13.5 -5.6 13.75 -4.9 Q13.75 -5.35 14.1 -5.7 14.45 -6.05 14.9 -6.05 M13.75 -4.9 L13.75 -4.85" fill="none" stroke="#000000" stroke-linecap="round" stroke-linejoin="round" stroke-opacity="0.2" stroke-width="0.5"/>
    </g>
    <g id="sprite10" transform="matrix(1.0, 0.0, 0.0, 1.0, 10.2, 13.85)">
      <use height="27.75" transform="matrix(1.0, 0.0, 0.0, 1.0, -10.2, -13.85)" width="20.4" xlink:href="#shape13"/>
    </g>
    <g id="shape13" transform="matrix(1.0, 0.0, 0.0, 1.0, 10.2, 13.85)">
      <path d="M4.0 -13.4 L4.1 -13.45 4.15 -13.5 3.75 -11.1 3.75 -11.0 5.45 -13.5 5.45 -13.55 5.55 -13.85 5.6 -13.8 5.65 -13.7 5.65 -13.65 5.7 -13.15 5.85 -11.95 5.85 -11.9 5.85 -11.4 5.85 -10.35 5.6 -8.7 5.55 -8.55 6.75 -10.9 6.9 -11.05 6.85 -10.9 6.85 -10.85 6.9 -10.5 6.95 -10.2 7.15 -8.8 7.25 -7.4 7.05 -4.45 7.05 -4.35 8.2 -7.1 8.1 -5.8 8.0 -5.45 7.9 -4.9 7.9 -4.8 7.6 -3.9 7.35 -3.3 7.35 -3.25 7.4 -3.05 8.3 -3.75 8.35 -3.8 8.0 -2.8 7.95 -2.7 7.9 -2.55 7.85 -2.25 7.8 -2.1 7.8 -2.05 7.75 -1.9 7.75 -1.8 7.8 -1.7 7.85 -1.5 7.9 -1.4 8.15 -0.5 8.4 0.6 8.5 1.25 9.55 1.45 9.55 1.5 9.75 1.7 10.1 2.2 10.2 2.5 10.2 3.25 10.15 3.35 10.1 4.05 9.95 5.1 Q9.7 6.4 8.5 7.75 L8.1 8.55 7.9 8.8 7.7 10.7 Q7.75 11.75 6.05 11.05 L4.7 10.55 4.2 10.7 4.3 10.8 4.5 11.0 4.8 11.4 5.1 11.8 5.5 12.6 5.45 12.65 3.45 12.4 3.5 12.45 Q4.0 13.3 3.3 13.9 1.6 13.3 1.0 12.45 0.3 13.05 -0.45 13.2 L-1.05 13.2 -1.15 13.2 Q-1.35 12.35 -1.0 11.6 L-0.8 11.3 -0.75 11.2 Q-2.3 11.4 -3.6 10.8 L-6.55 9.2 -7.8 7.95 -7.85 7.95 -9.85 7.75 -10.1 7.65 Q-9.95 7.05 -9.4 6.9 L-9.5 6.9 -10.05 6.6 -10.2 6.45 Q-9.75 6.1 -9.2 6.05 L-9.8 5.55 -9.7 5.6 -9.75 5.55 -9.7 5.55 -8.7 5.35 -8.55 4.7 -8.5 4.45 -8.5 4.3 -8.45 4.2 -8.35 3.9 -7.9 2.3 -7.95 2.3 -8.5 2.1 -9.45 1.75 Q-9.85 1.45 -9.4 1.05 L-9.25 0.8 -8.2 -0.65 -6.9 -1.7 -6.8 -1.75 -6.4 -1.85 -6.2 -2.4 -5.9 -3.15 -5.75 -3.55 -5.3 -5.3 -5.3 -5.35 -5.2 -5.55 -5.2 -5.6 -4.85 -6.5 -4.85 -6.55 -4.8 -6.55 -4.3 -7.35 -4.15 -7.45 -4.0 -7.5 Q-3.05 -7.85 -2.15 -8.35 L-1.95 -8.45 -1.85 -8.55 -1.2 -8.9 -0.55 -9.3 -0.25 -9.5 1.4 -10.8 2.95 -12.25 3.1 -12.35 3.4 -12.7 4.0 -13.4" fill="url(#gradient5)" fill-rule="evenodd" stroke="none"/>
    </g>
    <linearGradient gradientTransform="matrix(0.0089, 0.0086, -0.0118, 0.0121, 7.75, 6.65)" gradientUnits="userSpaceOnUse" id="gradient5" spreadMethod="pad" x1="-819.2" x2="819.2">
      <stop offset="0.0" stop-color="#000000" stop-opacity="0.0"/>
      <stop offset="1.0" stop-color="#000000"/>
    </linearGradient>
  </defs>
</svg>
