<?xml version="1.0" encoding="UTF-8" standalone="no"?>
<svg xmlns:xlink="http://www.w3.org/1999/xlink" height="440.0px" width="440.0px" xmlns="http://www.w3.org/2000/svg">
  <g transform="matrix(10.0, 0.0, 0.0, 10.0, 0.0, 0.0)">
    <use height="44.0" transform="matrix(1.0, 0.0, 0.0, 1.0, 0.0, 0.0)" width="44.0" xlink:href="#shape0"/>
    <use height="7.7" transform="matrix(0.9544, -0.1594, 0.1674, 0.6409, 21.9033, 25.6252)" width="4.3" xlink:href="#shape1"/>
    <use height="7.7" transform="matrix(0.8627, 0.3009, -0.3764, 0.6897, 11.1944, 22.5478)" width="4.3" xlink:href="#shape1"/>
    <use height="7.7" transform="matrix(0.5802, -0.2343, 0.3692, 0.5844, 25.3309, 25.1537)" width="4.3" xlink:href="#shape2"/>
    <use height="7.7" transform="matrix(0.649, 0.029, -0.0458, 0.6537, 19.8308, 25.1708)" width="4.3" xlink:href="#shape2"/>
    <use height="7.7" transform="matrix(0.6175, 0.1623, -0.2558, 0.622, 14.1074, 24.1564)" width="4.3" xlink:href="#shape2"/>
    <use height="7.7" transform="matrix(0.4333, 0.3874, -0.6106, 0.4364, 10.8192, 20.987)" width="4.3" xlink:href="#shape2"/>
    <use height="38.75" transform="matrix(1.0, 0.0, 0.0, 1.0, 8.2, 4.15)" width="16.3" xlink:href="#shape3"/>
    <use height="38.45" transform="matrix(0.1377, 0.2385, -0.2385, 0.1377, 16.0535, 27.393)" width="34.5" xlink:href="#sprite0"/>
    <use height="40.35" transform="matrix(1.0, 0.0, 0.0, 1.0, 5.0, 2.5)" width="34.8" xlink:href="#shape5"/>
  </g>
  <defs>
    <g id="shape0" transform="matrix(1.0, 0.0, 0.0, 1.0, 0.0, 0.0)">
      <path d="M44.0 44.0 L0.0 44.0 0.0 0.0 44.0 0.0 44.0 44.0" fill="#43adca" fill-opacity="0.0" fill-rule="evenodd" stroke="none"/>
      <path d="M38.85 12.65 L39.0 13.0 38.9 13.0 38.85 12.65" fill="#2f2113" fill-rule="evenodd" stroke="none"/>
      <path d="M35.7 8.9 Q37.9 10.45 38.85 12.65 L38.9 13.0 Q39.35 18.25 34.2 22.65 L32.35 24.1 30.1 25.5 29.45 25.85 Q28.8 25.25 28.85 24.55 L30.1 23.95 32.3 22.55 33.1 21.95 Q37.55 18.4 37.3 14.15 37.25 12.8 36.7 11.75 36.55 10.15 35.7 8.9 M6.45 21.35 Q6.3 20.2 6.45 19.1 L6.7 19.1 Q7.25 19.1 7.6 17.9 L7.8 17.25 8.15 16.25 9.05 15.1 Q8.85 16.2 9.1 17.25 L9.55 18.65 Q9.7 20.35 10.9 21.95 L11.35 22.55 11.45 22.65 8.3 24.15 7.95 23.75 7.15 22.65 7.1 22.55 6.45 21.35" fill="#ffcc00" fill-rule="evenodd" stroke="none"/>
      <path d="M36.7 11.75 Q35.8 9.8 33.55 8.45 32.3 7.65 30.9 7.2 L31.0 6.65 Q33.0 7.2 34.8 8.25 L35.7 8.9 Q36.55 10.15 36.7 11.75" fill="#ff9900" fill-rule="evenodd" stroke="none"/>
      <path d="M7.1 23.55 L6.9 23.1 6.75 22.65 6.7 22.55 6.45 21.35 7.1 22.55 7.15 22.65 7.95 23.75 7.35 24.0 7.1 23.55 M6.45 19.1 L6.95 17.25 7.45 16.15 8.05 15.05 Q8.75 13.8 9.8 12.65 L9.3 13.95 9.25 14.2 9.05 15.1 8.15 16.25 7.8 17.25 7.6 17.9 Q7.25 19.1 6.7 19.1 L6.45 19.1" fill="#ffff99" fill-rule="evenodd" stroke="none"/>
      <path d="M7.35 24.0 L7.1 23.55 7.35 24.0" fill="#f0ac00" fill-rule="evenodd" stroke="none"/>
      <path d="M9.8 12.65 Q12.15 10.05 15.85 8.25 18.55 7.0 21.45 6.45 L21.25 7.0 Q19.15 7.45 17.2 8.45 12.65 10.6 10.65 14.15 9.75 15.75 9.6 17.25 9.5 17.95 9.55 18.65 L9.1 17.25 Q8.85 16.2 9.05 15.1 L9.25 14.2 9.3 13.95 9.8 12.65" fill="#e69900" fill-rule="evenodd" stroke="none"/>
      <path d="M39.0 13.0 L39.45 15.05 Q39.95 20.3 34.8 24.7 L32.35 26.55 30.1 27.85 Q25.6 30.05 19.95 30.05 14.45 30.05 11.05 27.95 9.0 26.7 7.7 24.7 L7.6 24.45 7.35 24.0 7.95 23.75 8.3 24.15 11.45 22.65 Q14.5 26.15 20.95 26.15 25.3 26.15 28.85 24.55 28.8 25.25 29.45 25.85 L30.1 25.5 32.35 24.1 34.2 22.65 Q39.35 18.25 38.9 13.0 L39.0 13.0" fill="url(#gradient0)" fill-rule="evenodd" stroke="none"/>
      <path d="M36.7 11.75 Q35.8 9.8 33.55 8.45 32.3 7.65 30.9 7.2 L31.0 6.65 Q33.0 7.2 34.8 8.25 L35.7 8.9 Q37.9 10.45 38.85 12.65 L39.0 13.0 39.45 15.05 Q39.95 20.3 34.8 24.7 L32.35 26.55 30.1 27.85 Q25.6 30.05 19.95 30.05 14.45 30.05 11.05 27.95 9.0 26.7 7.7 24.7 L7.6 24.45 7.35 24.0 7.1 23.55 6.9 23.1 6.75 22.65 6.7 22.55 6.45 21.35 Q6.3 20.2 6.45 19.1 L6.95 17.25 7.45 16.15 8.05 15.05 Q8.75 13.8 9.8 12.65 12.15 10.05 15.85 8.25 18.55 7.0 21.45 6.45 L21.25 7.0 Q19.15 7.45 17.2 8.45 12.65 10.6 10.65 14.15 9.75 15.75 9.6 17.25 9.5 17.95 9.55 18.65 9.7 20.35 10.9 21.95 L11.35 22.55 11.45 22.65 Q14.5 26.15 20.95 26.15 25.3 26.15 28.85 24.55 L30.1 23.95 32.3 22.55 33.1 21.95 Q37.55 18.4 37.3 14.15 37.25 12.8 36.7 11.75 Z" fill="none" stroke="#000000" stroke-linecap="round" stroke-linejoin="round" stroke-opacity="0.3019608" stroke-width="0.05"/>
      <path d="M33.4 5.6 L33.35 6.25 32.3 7.4 Q31.55 7.9 30.7 7.9 L30.6 7.9 30.85 7.4 30.6 6.95 31.25 6.25 Q31.25 5.5 30.45 5.7 31.1 5.2 32.0 5.2 L33.4 5.6" fill="#ffcc00" fill-rule="evenodd" stroke="none"/>
      <path d="M30.6 7.9 L29.55 7.55 29.5 7.2 Q29.5 6.4 30.25 5.8 L30.45 5.7 Q31.25 5.5 31.25 6.25 L30.6 6.95 30.85 7.4 30.6 7.9" fill="#ffff99" fill-rule="evenodd" stroke="none"/>
      <path d="M33.4 5.6 L33.75 5.8 Q34.5 6.4 34.5 7.2 L34.3 8.05 33.75 8.6 33.75 8.65 Q33.0 9.2 32.0 9.2 30.95 9.2 30.25 8.6 29.6 8.15 29.55 7.55 L30.6 7.9 30.7 7.9 Q31.55 7.9 32.3 7.4 L33.35 6.25 33.4 5.6" fill="#e69900" fill-rule="evenodd" stroke="none"/>
      <path d="M29.55 7.55 Q29.6 8.15 30.25 8.6 30.95 9.2 32.0 9.2 33.0 9.2 33.75 8.65 L33.75 8.6 34.3 8.05 34.5 7.2 Q34.5 6.4 33.75 5.8 L33.4 5.6 M29.55 7.55 L29.5 7.2 Q29.5 6.4 30.25 5.8 L30.45 5.7 Q31.1 5.2 32.0 5.2 L33.4 5.6" fill="none" stroke="#000000" stroke-linecap="round" stroke-linejoin="round" stroke-opacity="0.3019608" stroke-width="0.05"/>
      <path d="M31.2 6.3 L31.0 6.65 30.35 6.7 30.0 6.5 29.8 6.1 30.1 5.7 30.65 5.7 31.1 5.8 31.2 6.3" fill="#ffffff" fill-rule="evenodd" stroke="none"/>
    </g>
    <linearGradient gradientTransform="matrix(0.0165, -0.0106, 0.0056, 0.0087, 28.45, 17.9)" gradientUnits="userSpaceOnUse" id="gradient0" spreadMethod="pad" x1="-819.2" x2="819.2">
      <stop offset="0.0" stop-color="#c27c00"/>
      <stop offset="1.0" stop-color="#ffcc00"/>
    </linearGradient>
    <g id="shape1" transform="matrix(1.0, 0.0, 0.0, 1.0, 2.15, 3.85)">
      <path d="M-2.0 0.0 Q-1.0 1.3 1.05 0.65 L1.35 2.0 Q1.6 2.75 2.0 2.85 0.9 4.1 -0.15 3.5 -1.2 2.85 -1.6 2.0 -2.0 1.2 -2.0 0.0" fill="#82663a" fill-rule="evenodd" stroke="none"/>
      <path d="M-2.0 0.0 Q-2.0 -1.2 -1.6 -2.05 -1.2 -2.85 -0.45 -3.5 0.25 -4.15 1.95 -2.85 1.6 -2.75 1.35 -2.05 1.0 -1.2 1.0 0.0 L1.05 0.65 Q-1.0 1.3 -2.0 0.0" fill="url(#gradient1)" fill-rule="evenodd" stroke="none"/>
      <path d="M1.05 0.65 L1.0 0.0 Q1.0 -1.2 1.35 -2.05 1.6 -2.75 1.95 -2.85 0.25 -4.15 -0.45 -3.5 -1.2 -2.85 -1.6 -2.05 -2.0 -1.2 -2.0 0.0 M1.05 0.65 L1.35 2.0 Q1.6 2.75 2.0 2.85 0.9 4.1 -0.15 3.5 -1.2 2.85 -1.6 2.0 -2.0 1.2 -2.0 0.0" fill="none" stroke="#281a13" stroke-linecap="round" stroke-linejoin="round" stroke-opacity="0.5019608" stroke-width="0.30000000000000004"/>
    </g>
    <linearGradient gradientTransform="matrix(0.0015, -0.0035, 0.0026, 0.0011, 0.1, -3.15)" gradientUnits="userSpaceOnUse" id="gradient1" spreadMethod="pad" x1="-819.2" x2="819.2">
      <stop offset="0.0" stop-color="#bda671"/>
      <stop offset="1.0" stop-color="#e6ca8a"/>
    </linearGradient>
    <g id="shape2" transform="matrix(1.0, 0.0, 0.0, 1.0, 2.15, 3.85)">
      <path d="M-2.0 0.0 Q-1.0 1.3 1.05 0.65 L1.35 2.0 Q1.6 2.75 2.0 2.85 0.9 4.1 -0.15 3.5 -1.2 2.85 -1.6 2.0 -2.0 1.2 -2.0 0.0" fill="#82663a" fill-rule="evenodd" stroke="none"/>
      <path d="M-2.0 0.0 Q-2.0 -1.2 -1.6 -2.05 -1.2 -2.85 -0.45 -3.5 0.25 -4.15 1.95 -2.85 1.6 -2.75 1.35 -2.05 1.0 -1.2 1.0 0.0 L1.05 0.65 Q-1.0 1.3 -2.0 0.0" fill="url(#gradient2)" fill-rule="evenodd" stroke="none"/>
      <path d="M1.05 0.65 L1.0 0.0 Q1.0 -1.2 1.35 -2.05 1.6 -2.75 1.95 -2.85 0.25 -4.15 -0.45 -3.5 -1.2 -2.85 -1.6 -2.05 -2.0 -1.2 -2.0 0.0 M1.05 0.65 L1.35 2.0 Q1.6 2.75 2.0 2.85 0.9 4.1 -0.15 3.5 -1.2 2.85 -1.6 2.0 -2.0 1.2 -2.0 0.0" fill="none" stroke="#281a13" stroke-linecap="round" stroke-linejoin="round" stroke-opacity="0.5019608" stroke-width="0.30000000000000004"/>
    </g>
    <linearGradient gradientTransform="matrix(0.0, -0.0031, 0.0028, 0.0, 0.3, -2.95)" gradientUnits="userSpaceOnUse" id="gradient2" spreadMethod="pad" x1="-819.2" x2="819.2">
      <stop offset="0.0" stop-color="#bda671"/>
      <stop offset="1.0" stop-color="#e6ca8a"/>
    </linearGradient>
    <g id="shape3" transform="matrix(1.0, 0.0, 0.0, 1.0, -8.2, -4.15)">
      <path d="M19.5 6.15 L20.05 6.25 22.25 4.4 22.2 4.15 Q22.9 4.2 23.45 4.5 L23.35 5.2 Q23.15 5.85 22.35 6.35 21.55 6.85 20.7 6.85 19.95 6.8 19.55 6.45 L19.5 6.15" fill="#ffcc00" fill-rule="evenodd" stroke="none"/>
      <path d="M22.2 4.15 L22.25 4.4 20.05 6.25 19.5 6.15 Q19.5 5.35 20.25 4.75 21.0 4.15 22.0 4.15 L22.2 4.15" fill="#ffff99" fill-rule="evenodd" stroke="none"/>
      <path d="M19.55 6.45 Q19.95 6.8 20.7 6.85 21.55 6.85 22.35 6.35 23.15 5.85 23.35 5.2 L23.45 4.5 23.8 4.75 Q24.5 5.35 24.5 6.15 24.5 7.0 23.8 7.6 23.05 8.15 22.0 8.15 21.0 8.15 20.25 7.6 19.65 7.05 19.55 6.45" fill="#e69900" fill-rule="evenodd" stroke="none"/>
      <path d="M22.2 4.15 L22.0 4.15 Q21.0 4.15 20.25 4.75 19.5 5.35 19.5 6.15 L19.55 6.45 Q19.65 7.05 20.25 7.6 21.0 8.15 22.0 8.15 23.05 8.15 23.8 7.6 24.5 7.0 24.5 6.15 24.5 5.35 23.8 4.75 L23.45 4.5 Q22.9 4.2 22.2 4.15 Z" fill="none" stroke="#000000" stroke-linecap="round" stroke-linejoin="round" stroke-opacity="0.3019608" stroke-width="0.05"/>
      <path d="M21.55 5.3 L21.35 5.65 20.7 5.7 20.35 5.5 20.15 5.1 20.45 4.7 21.0 4.7 21.45 4.8 21.55 5.3" fill="#ffffff" fill-rule="evenodd" stroke="none"/>
      <path d="M13.75 29.1 L13.75 29.45 Q13.7 30.15 13.15 30.5 L12.0 30.75 11.0 30.15 10.7 29.45 11.4 29.8 12.95 29.7 13.75 29.1" fill="#ff9900" fill-rule="evenodd" stroke="none"/>
      <path d="M10.7 29.45 L10.65 29.05 Q10.8 28.4 11.25 28.0 11.75 27.65 12.4 27.75 13.05 27.8 13.45 28.35 L13.7 29.0 13.75 29.1 12.95 29.7 11.4 29.8 10.7 29.45" fill="#ffcc00" fill-rule="evenodd" stroke="none"/>
      <path d="M10.7 29.45 L10.65 29.05 Q10.8 28.4 11.25 28.0 11.75 27.65 12.4 27.75 13.05 27.8 13.45 28.35 L13.7 29.0 13.75 29.1 13.75 29.45 Q13.7 30.15 13.15 30.5 L12.0 30.75 11.0 30.15 10.7 29.45 Z" fill="none" stroke="#000000" stroke-linecap="round" stroke-linejoin="round" stroke-opacity="0.3019608" stroke-width="0.5"/>
      <path d="M12.05 28.55 L11.95 28.8 11.6 28.85 11.4 28.7 11.3 28.45 11.4 28.15 11.7 28.15 12.0 28.25 12.05 28.55" fill="#ffffff" fill-rule="evenodd" stroke="none"/>
      <path d="M13.95 29.05 L13.45 29.2 Q12.65 28.5 13.5 27.5 16.2 26.55 18.6 28.65 16.7 27.75 15.55 28.0 14.2 28.4 13.95 29.05" fill="#ffcc00" fill-rule="evenodd" stroke="none"/>
      <path d="M13.95 29.05 Q14.2 28.4 15.55 28.0 16.7 27.75 18.6 28.65 18.8 29.95 17.8 29.95 16.45 28.8 13.95 29.05" fill="#ff9900" fill-rule="evenodd" stroke="none"/>
      <path d="M18.6 28.65 Q16.2 26.55 13.5 27.5 12.65 28.5 13.45 29.2 L13.95 29.05 M18.6 28.65 Q18.8 29.95 17.8 29.95 16.45 28.8 13.95 29.05" fill="none" stroke="#000000" stroke-linecap="round" stroke-linejoin="round" stroke-opacity="0.3019608" stroke-width="0.5"/>
      <path d="M14.7 41.65 L14.25 40.45 Q15.7 40.65 17.15 39.25 17.4 39.8 16.6 40.75 16.0 41.65 14.7 41.65" fill="#ffcc00" fill-rule="evenodd" stroke="none"/>
      <path d="M14.7 41.65 Q16.0 41.65 16.6 40.75 17.4 39.8 17.15 39.25 L17.45 38.95 18.25 40.1 Q17.05 41.5 14.7 41.7 L14.7 41.65" fill="#ff9900" fill-rule="evenodd" stroke="none"/>
      <path d="M17.15 39.25 Q15.7 40.65 14.25 40.45 L14.7 41.65 M17.15 39.25 L17.45 38.95 18.25 40.1 Q17.05 41.5 14.7 41.7 L14.7 41.65" fill="none" stroke="#000000" stroke-linecap="round" stroke-linejoin="round" stroke-opacity="0.3019608" stroke-width="0.5"/>
      <path d="M9.1 38.2 L10.05 37.35 Q10.5 38.75 12.4 39.6 L10.75 39.7 Q9.65 39.35 9.1 38.2" fill="#ffcc00" fill-rule="evenodd" stroke="none"/>
      <path d="M9.1 38.2 Q9.65 39.35 10.75 39.7 L12.4 39.6 12.8 39.8 12.0 40.9 Q9.75 39.95 9.05 38.2 L9.1 38.2" fill="#ff9900" fill-rule="evenodd" stroke="none"/>
      <path d="M12.4 39.6 Q10.5 38.75 10.05 37.35 L9.1 38.2 M12.4 39.6 L12.8 39.8 12.0 40.9 Q9.75 39.95 9.05 38.2 L9.1 38.2" fill="none" stroke="#000000" stroke-linecap="round" stroke-linejoin="round" stroke-opacity="0.3019608" stroke-width="0.5"/>
      <path d="M17.95 29.9 L18.25 30.2 Q19.2 31.05 19.65 32.35 L19.95 33.5 19.95 33.7 19.95 35.35 19.75 35.85 19.8 36.05 19.7 36.1 19.7 36.2 19.65 36.15 19.65 36.1 19.05 36.35 18.15 36.75 17.5 37.05 15.85 37.7 11.85 38.15 Q10.4 37.85 9.7 36.8 L9.65 36.6 Q9.2 35.4 9.5 34.2 10.15 32.95 10.95 32.1 12.4 30.4 14.2 30.2 L17.95 29.9" fill="#006699" fill-rule="evenodd" stroke="none"/>
      <path d="M17.95 29.9 L14.2 30.2 Q12.4 30.4 10.95 32.1 10.15 32.95 9.5 34.2 L9.85 32.75 10.5 31.6 Q11.4 30.2 12.35 29.55 13.5 28.65 15.25 28.85 16.7 28.95 17.95 29.9" fill="#004166" fill-rule="evenodd" stroke="none"/>
      <path d="M9.7 36.8 Q10.4 37.85 11.85 38.15 L15.85 37.7 17.5 37.05 18.15 36.75 19.05 36.35 18.6 36.8 17.9 37.35 16.2 38.1 13.6 38.75 11.35 39.15 Q10.35 38.35 9.8 37.15 L9.7 36.8" fill="#0088d4" fill-rule="evenodd" stroke="none"/>
      <path d="M19.05 36.35 L19.65 36.1 19.65 36.15 19.7 36.2 18.75 37.95 18.55 38.2 17.1 39.45 Q15.6 40.4 13.8 40.2 12.35 39.95 11.35 39.15 L13.6 38.75 16.2 38.1 17.9 37.35 18.6 36.8 19.05 36.35" fill="#009ef7" fill-rule="evenodd" stroke="none"/>
      <path d="M19.7 36.2 L19.7 36.1 19.8 36.05 19.75 35.85 19.95 35.35 19.95 33.7 19.95 33.5 19.65 32.35 Q19.2 31.05 18.25 30.2 L17.95 29.9 Q16.7 28.95 15.25 28.85 13.5 28.65 12.35 29.55 11.4 30.2 10.5 31.6 L9.85 32.75 9.5 34.2 Q9.2 35.4 9.65 36.6 L9.7 36.8 M19.7 36.2 L18.75 37.95 18.55 38.2 17.1 39.45" fill="none" stroke="#002945" stroke-linecap="round" stroke-linejoin="round" stroke-opacity="0.3019608" stroke-width="0.30000000000000004"/>
      <path d="M16.85 38.7 Q16.1 38.5 15.75 37.8 15.5 37.15 16.55 36.05 17.6 34.9 17.6 32.85 17.5 30.85 18.05 31.05 18.45 31.35 18.9 32.55 19.25 33.75 19.0 35.3 18.6 37.0 18.05 37.95 17.65 38.9 16.85 38.7" fill="#004575" fill-opacity="0.6117647" fill-rule="evenodd" stroke="none"/>
      <path d="M12.0 31.3 L11.7 30.2 Q12.1 29.9 12.4 29.8 13.4 29.6 14.15 30.3 L14.75 30.95 13.9 32.15 15.15 31.65 15.25 32.25 Q15.5 33.35 15.05 34.2 14.7 35.15 13.75 35.35 L12.8 35.45 Q12.15 35.4 11.4 38.05 L11.8 34.6 Q11.2 33.9 10.95 33.05 10.7 31.9 11.15 30.95 L11.25 30.7 12.0 31.3" fill="#009ef7" fill-rule="evenodd" stroke="none"/>
      <path d="M14.4 32.75 Q14.4 33.45 14.05 33.9 13.7 34.4 13.2 34.4 L12.35 33.9 Q12.0 33.35 12.0 32.65 L12.0 32.35 11.5 32.1 11.25 31.45 Q11.25 31.1 11.5 30.85 11.75 30.6 12.05 30.65 12.4 30.65 12.6 30.9 L12.75 31.1 13.15 31.0 14.0 31.5 14.4 32.75" fill="#f8f8e4" fill-rule="evenodd" stroke="none"/>
      <path d="M11.65 30.5 L11.6 30.75 Q11.6 31.25 11.15 31.55 10.8 31.85 10.3 31.75 9.85 31.7 9.5 31.25 9.25 31.0 9.3 30.75 L9.85 31.05 11.0 30.9 11.65 30.5" fill="#ff9900" fill-rule="evenodd" stroke="none"/>
      <path d="M9.3 30.75 L9.3 30.45 Q9.3 29.9 9.75 29.6 L10.6 29.45 Q11.1 29.5 11.4 29.85 L11.6 30.4 11.65 30.5 11.0 30.9 9.85 31.05 9.3 30.75" fill="#ffcc00" fill-rule="evenodd" stroke="none"/>
      <path d="M11.65 30.5 L11.6 30.75 Q11.6 31.25 11.15 31.55 10.8 31.85 10.3 31.75 9.85 31.7 9.5 31.25 9.25 31.0 9.3 30.75 L9.3 30.45 Q9.3 29.9 9.75 29.6 L10.6 29.45 Q11.1 29.5 11.4 29.85 L11.6 30.4 11.65 30.5 Z" fill="none" stroke="#000000" stroke-linecap="round" stroke-linejoin="round" stroke-opacity="0.3019608" stroke-width="0.5"/>
      <path d="M10.15 30.2 L9.95 30.25 9.75 30.15 9.7 29.95 9.8 29.75 10.0 29.7 10.2 29.8 10.3 30.05 10.15 30.2" fill="#ffffff" fill-rule="evenodd" stroke="none"/>
      <path d="M11.35 41.1 L12.15 41.6 Q12.75 42.0 13.85 41.4 L14.75 40.75 14.8 41.2 14.15 42.3 Q13.6 42.75 12.85 42.65 L11.7 41.95 11.35 41.1" fill="#ff9900" fill-rule="evenodd" stroke="none"/>
      <path d="M11.35 41.1 L11.35 40.7 Q11.45 40.0 12.0 39.6 12.55 39.15 13.3 39.25 14.0 39.35 14.4 39.9 L14.75 40.7 14.75 40.75 13.85 41.4 Q12.75 42.0 12.15 41.6 L11.35 41.1" fill="#ffcc00" fill-rule="evenodd" stroke="none"/>
      <path d="M14.75 40.75 L14.75 40.7 14.4 39.9 Q14.0 39.35 13.3 39.25 12.55 39.15 12.0 39.6 11.45 40.0 11.35 40.7 L11.35 41.1 M14.75 40.75 L14.8 41.2 14.15 42.3 Q13.6 42.75 12.85 42.65 L11.7 41.95 11.35 41.1" fill="none" stroke="#000000" stroke-linecap="round" stroke-linejoin="round" stroke-opacity="0.3019608" stroke-width="0.5"/>
      <path d="M12.85 40.15 L12.65 40.45 12.4 40.5 12.05 40.35 12.0 40.05 12.15 39.75 12.5 39.7 12.75 39.85 12.85 40.15" fill="#ffffff" fill-rule="evenodd" stroke="none"/>
      <path d="M16.95 39.3 L17.0 39.05 17.35 38.45 Q17.65 38.2 17.95 38.25 L18.65 38.6 18.8 39.1 18.85 39.15 18.35 39.45 18.3 39.5 Q17.75 39.75 17.35 39.5 L16.95 39.3" fill="#ffcc00" fill-rule="evenodd" stroke="none"/>
      <path d="M18.85 39.15 L18.8 39.35 18.55 39.95 18.5 40.0 17.8 40.1 17.15 39.7 16.95 39.3 17.35 39.5 Q17.75 39.75 18.3 39.5 L18.35 39.45 18.85 39.15" fill="#ff9900" fill-rule="evenodd" stroke="none"/>
      <path d="M16.95 39.3 L17.0 39.05 17.35 38.45 Q17.65 38.2 17.95 38.25 L18.65 38.6 18.8 39.1 18.85 39.15 18.8 39.35 18.55 39.95 18.5 40.0 17.8 40.1 17.15 39.7 16.95 39.3 Z" fill="none" stroke="#000000" stroke-linecap="round" stroke-linejoin="round" stroke-opacity="0.3019608" stroke-width="0.5"/>
      <path d="M17.7 38.75 L17.6 38.9 17.45 38.9 17.3 38.85 17.3 38.65 17.35 38.55 17.5 38.5 17.65 38.6 17.7 38.75" fill="#ffffff" fill-rule="evenodd" stroke="none"/>
      <path d="M8.45 37.65 L8.5 37.4 Q8.5 37.0 8.75 36.75 L9.05 36.65 9.45 36.6 10.05 36.95 10.25 37.45 10.3 37.45 9.8 37.8 9.25 38.0 8.8 37.85 8.45 37.65" fill="#ffcc00" fill-rule="evenodd" stroke="none"/>
      <path d="M8.45 37.65 L8.8 37.85 9.25 38.0 9.8 37.8 10.3 37.45 10.25 37.7 9.95 38.25 9.35 38.45 9.25 38.45 Q8.9 38.4 8.6 38.05 L8.45 37.65" fill="#ff9900" fill-rule="evenodd" stroke="none"/>
      <path d="M10.3 37.45 L10.25 37.45 10.05 36.95 9.45 36.6 9.05 36.65 8.75 36.75 Q8.5 37.0 8.5 37.4 L8.45 37.65 M10.3 37.45 L10.25 37.7 9.95 38.25 9.35 38.45 9.25 38.45 Q8.9 38.4 8.6 38.05 L8.45 37.65" fill="none" stroke="#000000" stroke-linecap="round" stroke-linejoin="round" stroke-opacity="0.3019608" stroke-width="0.5"/>
      <path d="M9.25 37.1 L9.15 37.25 9.0 37.25 8.85 37.2 8.85 37.0 8.9 36.9 9.05 36.85 9.2 36.95 9.25 37.1" fill="#ffffff" fill-rule="evenodd" stroke="none"/>
      <path d="M20.7 30.0 L20.7 30.35 Q20.65 30.9 20.2 31.2 L19.2 31.45 Q18.65 31.4 18.25 30.95 L18.0 30.25 18.6 30.6 20.0 30.5 20.7 30.0" fill="#ff9900" fill-rule="evenodd" stroke="none"/>
      <path d="M18.0 30.25 L18.0 29.95 Q18.1 29.4 18.5 29.05 18.95 28.75 19.55 28.8 20.1 28.9 20.4 29.3 L20.65 29.95 20.7 30.0 20.0 30.5 18.6 30.6 18.0 30.25" fill="#ffcc00" fill-rule="evenodd" stroke="none"/>
      <path d="M18.0 30.25 L18.0 29.95 Q18.1 29.4 18.5 29.05 18.95 28.75 19.55 28.8 20.1 28.9 20.4 29.3 L20.65 29.95 20.7 30.0 20.7 30.35 Q20.65 30.9 20.2 31.2 L19.2 31.45 Q18.65 31.4 18.25 30.95 L18.0 30.25 Z" fill="none" stroke="#000000" stroke-linecap="round" stroke-linejoin="round" stroke-opacity="0.3019608" stroke-width="0.5"/>
      <path d="M19.15 29.55 L19.0 29.8 18.8 29.85 18.55 29.7 18.5 29.45 18.65 29.25 18.9 29.2 19.1 29.35 19.15 29.55" fill="#ffffff" fill-rule="evenodd" stroke="none"/>
      <path d="M18.75 32.6 L19.35 32.9 20.45 32.75 21.1 32.35 21.1 32.6 20.7 33.4 Q20.25 33.7 19.8 33.6 19.35 33.55 19.0 33.1 L18.75 32.6" fill="#ff9900" fill-rule="evenodd" stroke="none"/>
      <path d="M18.75 32.6 L18.75 32.3 19.15 31.45 20.05 31.3 Q20.55 31.35 20.85 31.7 L21.05 32.25 21.1 32.35 20.45 32.75 19.35 32.9 18.75 32.6" fill="#ffcc00" fill-rule="evenodd" stroke="none"/>
      <path d="M21.1 32.35 L21.05 32.25 20.85 31.7 Q20.55 31.35 20.05 31.3 L19.15 31.45 18.75 32.3 18.75 32.6 M21.1 32.35 L21.1 32.6 20.7 33.4 Q20.25 33.7 19.8 33.6 19.35 33.55 19.0 33.1 L18.75 32.6" fill="none" stroke="#000000" stroke-linecap="round" stroke-linejoin="round" stroke-opacity="0.3019608" stroke-width="0.5"/>
      <path d="M19.8 31.9 L19.65 32.05 19.45 32.1 19.25 32.0 19.2 31.8 19.3 31.6 19.5 31.55 19.7 31.65 19.8 31.9" fill="#ffffff" fill-rule="evenodd" stroke="none"/>
    </g>
    <g id="sprite0" transform="matrix(1.0, 0.0, 0.0, 1.0, 17.25, 19.2)">
      <use height="38.45" transform="matrix(1.0, 0.0, 0.0, 1.0, -17.25, -19.2)" width="34.5" xlink:href="#shape4"/>
    </g>
    <g id="shape4" transform="matrix(1.0, 0.0, 0.0, 1.0, 17.25, 19.2)">
      <path d="M12.2 -6.25 Q17.25 1.25 17.25 8.4 17.25 15.55 12.2 18.15 7.15 20.75 0.0 17.3 -7.15 13.8 -12.2 6.3 -17.25 -1.2 -17.25 -8.35 -17.25 -15.5 -12.2 -18.1 -7.15 -20.7 0.0 -17.2 7.15 -13.75 12.2 -6.25" fill="url(#gradient3)" fill-rule="evenodd" stroke="none"/>
    </g>
    <radialGradient cx="0" cy="0" gradientTransform="matrix(0.0219, 0.0106, 0.0, 0.0219, 0.0, 0.05)" gradientUnits="userSpaceOnUse" id="gradient3" r="819.2" spreadMethod="pad">
      <stop offset="0.0" stop-color="#ffffff"/>
      <stop offset="1.0" stop-color="#ffffff" stop-opacity="0.0"/>
    </radialGradient>
    <g id="shape5" transform="matrix(1.0, 0.0, 0.0, 1.0, -5.0, -2.5)">
      <path d="M32.05 5.15 Q31.15 5.15 30.5 5.65 L30.15 5.65 29.85 6.05 29.9 6.2 Q29.55 6.6 29.55 7.15 L29.6 7.5 Q29.65 8.1 30.3 8.55 31.0 9.15 32.05 9.15 33.05 9.15 33.8 8.6 L33.8 8.55 33.85 8.55 Q35.9 9.85 36.75 11.7 37.3 12.75 37.35 14.1 37.6 18.35 33.15 21.9 L32.35 22.5 30.15 23.9 28.9 24.5 28.1 24.85 28.15 24.75 Q26.65 24.35 26.5 24.9 L26.4 25.4 25.95 25.55 23.6 25.5 23.15 26.0 22.3 26.1 22.5 25.9 Q21.45 25.0 20.95 25.4 L20.3 26.1 16.2 25.5 Q16.35 25.4 16.45 25.4 15.7 24.3 15.1 24.6 L14.6 24.9 13.95 24.55 14.4 24.45 Q13.4 23.05 12.55 23.25 L12.25 23.35 11.8 22.95 12.05 22.95 Q12.1 21.75 11.4 21.75 L10.85 21.8 Q9.75 20.25 9.6 18.6 9.55 17.9 9.65 17.2 9.8 15.7 10.7 14.1 12.7 10.55 17.25 8.4 18.6 7.7 20.05 7.3 L20.3 7.55 Q21.05 8.1 22.05 8.1 23.1 8.1 23.85 7.55 24.55 6.95 24.55 6.1 24.55 5.3 23.85 4.7 L23.5 4.45 22.25 4.1 22.05 4.1 Q21.05 4.1 20.3 4.7 19.55 5.3 19.55 6.1 L19.6 6.4 19.75 6.8 Q17.75 7.35 15.9 8.2 12.2 10.0 9.85 12.6 8.8 13.75 8.1 15.0 L7.5 16.1 7.0 17.2 6.5 19.05 Q6.35 20.15 6.5 21.3 L6.75 22.5 6.8 22.6 6.95 23.05 7.15 23.5 7.4 24.0 Q7.2 24.45 7.25 24.95 7.35 25.55 8.35 25.5 L9.5 26.7 Q9.55 27.4 10.2 28.15 L10.45 28.35 10.45 28.65 10.75 29.35 10.8 29.45 10.65 29.4 9.8 29.55 Q9.35 29.85 9.35 30.4 L9.35 30.7 Q9.3 30.95 9.55 31.2 L10.35 31.7 10.45 31.75 9.9 32.7 Q9.6 33.4 9.55 34.15 9.25 35.35 9.7 36.55 L9.7 36.6 9.5 36.55 9.1 36.6 8.8 36.7 Q8.55 36.95 8.55 37.35 L8.5 37.6 8.65 38.0 9.2 38.4 Q9.85 39.8 11.6 40.65 L11.6 41.05 11.95 41.9 Q12.45 42.5 13.1 42.6 13.85 42.7 14.4 42.25 L14.9 41.65 Q17.15 41.4 18.3 40.05 L18.55 39.95 18.6 39.9 18.85 39.3 18.9 39.1 18.85 39.05 18.7 38.55 18.45 38.35 18.6 38.15 18.8 37.9 19.75 36.15 19.75 36.05 19.85 36.0 19.8 35.8 20.0 35.3 20.0 33.65 20.0 33.6 20.75 33.35 21.15 32.55 21.15 32.3 21.1 32.2 20.9 31.65 Q20.6 31.3 20.1 31.25 L20.25 31.15 Q20.7 30.85 20.75 30.3 L20.75 30.0 20.85 30.0 21.9 29.95 24.15 29.7 25.1 29.95 Q26.2 30.2 27.05 29.25 L26.7 29.15 28.25 28.65 29.25 28.95 Q30.05 29.05 30.25 28.05 L29.9 27.95 30.15 27.8 32.4 26.5 34.85 24.65 Q40.0 20.25 39.5 15.0 L39.05 12.95 38.9 12.6 Q37.95 10.4 35.75 8.85 L34.85 8.2 34.4 7.95 34.55 7.15 Q34.55 6.35 33.8 5.75 L33.45 5.55 Q32.85 5.15 32.05 5.15 Z" fill="none" stroke="#000000" stroke-linecap="round" stroke-linejoin="round" stroke-opacity="0.4509804" stroke-width="0.5"/>
      <path d="M21.3 4.65 L24.95 3.0 21.5 5.1 22.45 6.65 21.3 5.3 20.15 5.55 20.95 4.9 19.5 2.5 21.3 4.65" fill="#fcf3d8" fill-opacity="0.7921569" fill-rule="evenodd" stroke="none"/>
      <path d="M22.25 4.85 Q22.5 5.15 23.25 5.25 22.6 5.25 22.25 5.55 L21.95 6.0 Q21.65 6.3 21.15 6.25 L20.45 5.8 19.7 6.25 20.3 5.55 20.15 4.95 20.25 4.4 20.05 3.95 20.5 4.2 20.5 4.15 Q20.85 3.85 21.25 3.9 21.75 4.0 22.0 4.35 L22.25 4.85 M20.65 4.95 L20.8 5.4 21.15 5.6 21.5 5.5 21.7 5.1 21.55 4.65 21.2 4.4 20.8 4.55 20.65 4.95" fill="#fcf3d8" fill-opacity="0.3019608" fill-rule="evenodd" stroke="none"/>
      <path d="M20.65 4.95 L20.8 4.55 21.2 4.4 21.55 4.65 21.7 5.1 21.5 5.5 21.15 5.6 20.8 5.4 20.65 4.95" fill="#fcf3d8" fill-opacity="0.84313726" fill-rule="evenodd" stroke="none"/>
      <path d="M9.35 20.15 L7.7 16.5 9.8 19.95 11.35 19.0 10.0 20.15 10.25 21.3 9.6 20.5 7.2 21.95 9.35 20.15" fill="#fcf3d8" fill-opacity="0.7921569" fill-rule="evenodd" stroke="none"/>
      <path d="M9.55 19.2 Q9.85 18.95 9.95 18.2 9.95 18.85 10.25 19.2 L10.7 19.5 Q11.0 19.8 10.95 20.3 L10.5 21.0 10.95 21.75 10.25 21.15 9.65 21.3 9.1 21.2 8.65 21.4 8.9 20.95 8.85 20.95 Q8.55 20.6 8.6 20.2 8.7 19.7 9.05 19.45 L9.55 19.2 M9.65 20.8 L10.1 20.65 10.3 20.3 10.2 19.95 9.8 19.75 9.35 19.9 9.1 20.25 9.25 20.65 9.65 20.8" fill="#fcf3d8" fill-opacity="0.3019608" fill-rule="evenodd" stroke="none"/>
      <path d="M9.65 20.8 L9.25 20.65 9.1 20.25 9.35 19.9 9.8 19.75 10.2 19.95 10.3 20.3 10.1 20.65 9.65 20.8" fill="#fcf3d8" fill-opacity="0.84313726" fill-rule="evenodd" stroke="none"/>
      <path d="M11.95 30.9 L15.5 21.6 13.05 31.15 17.35 32.35 13.05 31.9 11.55 34.4 11.75 31.8 5.0 30.2 11.95 30.9" fill="#fcf3d8" fill-opacity="0.7921569" fill-rule="evenodd" stroke="none"/>
      <path d="M15.2 30.75 L15.5 32.1 Q15.4 33.15 14.6 33.75 13.65 34.5 12.5 34.4 L12.05 36.4 11.8 34.15 10.5 33.35 9.8 32.15 8.7 31.85 9.75 31.4 9.7 31.3 Q9.85 30.25 10.6 29.55 11.55 29.0 12.65 29.05 L13.95 29.4 Q14.95 29.65 16.4 28.45 15.2 29.6 15.2 30.75 M13.45 30.85 Q13.1 30.5 12.4 30.35 L11.35 30.6 Q11.0 31.0 10.9 31.55 L11.3 32.45 Q11.8 32.95 12.3 33.05 12.95 33.1 13.4 32.7 13.85 32.4 13.85 31.9 13.85 31.3 13.45 30.85" fill="#fcf3d8" fill-opacity="0.3019608" fill-rule="evenodd" stroke="none"/>
      <path d="M13.45 30.85 Q13.85 31.3 13.85 31.9 13.85 32.4 13.4 32.7 12.95 33.1 12.3 33.05 11.8 32.95 11.3 32.45 L10.9 31.55 Q11.0 31.0 11.35 30.6 L12.4 30.35 Q13.1 30.5 13.45 30.85" fill="#fcf3d8" fill-opacity="0.84313726" fill-rule="evenodd" stroke="none"/>
      <path d="M11.7 39.8 L13.15 36.0 12.15 39.9 13.9 40.35 12.15 40.2 11.5 41.2 11.6 40.15 8.9 39.45 11.7 39.8" fill="#fcf3d8" fill-opacity="0.7921569" fill-rule="evenodd" stroke="none"/>
      <path d="M12.5 39.2 Q12.9 39.3 13.5 38.8 13.0 39.25 13.0 39.7 L13.15 40.25 12.75 40.95 11.95 41.2 11.7 42.0 11.6 41.1 11.1 40.8 10.8 40.3 10.35 40.15 10.8 40.0 10.8 39.95 Q10.85 39.5 11.15 39.25 11.5 39.0 11.95 39.05 L12.5 39.2 M11.4 40.4 L11.85 40.6 12.25 40.5 12.4 40.2 12.25 39.75 11.85 39.6 11.45 39.65 Q11.3 39.8 11.3 40.05 L11.4 40.4" fill="#fcf3d8" fill-opacity="0.3019608" fill-rule="evenodd" stroke="none"/>
      <path d="M11.4 40.4 L11.3 40.05 Q11.3 39.8 11.45 39.65 L11.85 39.6 12.25 39.75 12.4 40.2 12.25 40.5 11.85 40.6 11.4 40.4" fill="#fcf3d8" fill-opacity="0.84313726" fill-rule="evenodd" stroke="none"/>
      <path d="M30.55 5.35 L34.2 3.7 30.75 5.8 31.7 7.35 30.55 6.0 29.4 6.25 30.2 5.6 28.75 3.2 30.55 5.35" fill="#fcf3d8" fill-opacity="0.7921569" fill-rule="evenodd" stroke="none"/>
      <path d="M31.5 5.55 Q31.75 5.85 32.5 5.95 31.85 5.95 31.5 6.25 L31.2 6.7 Q30.9 7.0 30.4 6.95 30.0 6.9 29.7 6.5 L28.95 6.95 29.55 6.25 29.4 5.65 29.5 5.1 29.3 4.65 29.75 4.9 29.75 4.85 Q30.1 4.55 30.5 4.6 31.0 4.7 31.25 5.05 L31.5 5.55 M29.9 5.65 L30.05 6.1 30.4 6.3 30.75 6.2 30.95 5.8 30.8 5.35 30.45 5.1 30.05 5.25 29.9 5.65" fill="#fcf3d8" fill-opacity="0.3019608" fill-rule="evenodd" stroke="none"/>
      <path d="M29.9 5.65 L30.05 5.25 30.45 5.1 30.8 5.35 30.95 5.8 30.75 6.2 30.4 6.3 30.05 6.1 29.9 5.65" fill="#fcf3d8" fill-opacity="0.84313726" fill-rule="evenodd" stroke="none"/>
    </g>
  </defs>
</svg>
