<?xml version="1.0" encoding="UTF-8" standalone="no"?>
<svg xmlns:xlink="http://www.w3.org/1999/xlink" height="440.0px" width="440.0px" xmlns="http://www.w3.org/2000/svg">
  <g transform="matrix(10.0, 0.0, 0.0, 10.0, 0.0, 0.0)">
    <use height="44.0" transform="matrix(1.0, 0.0, 0.0, 1.0, 0.0, 0.0)" width="44.0" xlink:href="#shape0"/>
    <use height="43.25" transform="matrix(0.8549, 0.0, 0.0, 0.8549, 1.1048, 4.0891)" width="49.0" xlink:href="#sprite0"/>
  </g>
  <defs>
    <g id="shape0" transform="matrix(1.0, 0.0, 0.0, 1.0, 0.0, 0.0)">
      <path d="M44.0 44.0 L0.0 44.0 0.0 0.0 44.0 0.0 44.0 44.0" fill="#43adca" fill-opacity="0.0" fill-rule="evenodd" stroke="none"/>
    </g>
    <g id="sprite0" transform="matrix(1.0, 0.0, 0.0, 1.0, 24.5, 43.0)">
      <use height="42.75" transform="matrix(1.0, 0.0, 0.0, 1.0, -24.25, -42.75)" width="48.5" xlink:href="#shape1"/>
      <use height="3.55" transform="matrix(1.0, 0.0, 0.0, 1.0, 2.05, -33.05)" width="3.4" xlink:href="#sprite1"/>
      <use height="3.35" transform="matrix(1.0, 0.0, 0.0, 1.0, -7.6, -38.7)" width="3.6" xlink:href="#sprite2"/>
      <use height="43.25" transform="matrix(1.0, 0.0, 0.0, 1.0, -24.5, -43.0)" width="49.0" xlink:href="#shape4"/>
    </g>
    <g id="shape1" transform="matrix(1.0, 0.0, 0.0, 1.0, 24.25, 42.75)">
      <path d="M-6.35 -38.7 Q-6.8 -39.5 -6.6 -40.25 -6.4 -41.05 -5.65 -41.35 L-4.0 -41.3 Q-3.1 -41.0 -2.65 -40.2 -2.15 -39.45 -2.35 -38.65 -2.55 -37.85 -3.3 -37.55 L-4.95 -37.6 Q-5.85 -37.95 -6.35 -38.7" fill="#ffca33" fill-rule="evenodd" stroke="none"/>
      <path d="M-7.0 -38.45 Q-7.6 -39.45 -7.4 -40.45 -7.15 -41.35 -6.2 -41.75 -5.25 -42.15 -4.1 -41.75 -2.95 -41.35 -2.35 -40.35 -1.75 -39.4 -2.0 -38.4 -2.25 -37.45 -3.2 -37.05 L-5.3 -37.1 Q-6.4 -37.5 -7.0 -38.45" fill="#af7b03" fill-rule="evenodd" stroke="none"/>
      <path d="M-7.0 -38.45 Q-7.6 -39.45 -7.4 -40.45 -7.15 -41.35 -6.2 -41.75 -5.25 -42.15 -4.1 -41.75 -2.95 -41.35 -2.35 -40.35 -1.75 -39.4 -2.0 -38.4 -2.25 -37.45 -3.2 -37.05 L-5.3 -37.1 Q-6.4 -37.5 -7.0 -38.45 Z" fill="none" stroke="#000000" stroke-linecap="round" stroke-linejoin="round" stroke-opacity="0.15294118" stroke-width="0.5"/>
      <path d="M-5.7 -41.7 L-3.65 -41.5 Q-2.75 -41.1 -2.2 -40.2 -1.65 -39.25 -1.9 -38.35 -2.1 -37.45 -3.0 -37.1 L-4.85 -37.2 Q-5.85 -37.6 -6.4 -38.45 -6.95 -39.35 -6.7 -40.2 -6.5 -41.1 -5.7 -41.7" fill="#c98d03" fill-rule="evenodd" stroke="none"/>
      <path d="M-5.7 -41.7 L-3.65 -41.5 Q-2.75 -41.1 -2.2 -40.2 -1.65 -39.25 -1.9 -38.35 -2.1 -37.45 -3.0 -37.1 L-4.85 -37.2 Q-5.85 -37.6 -6.4 -38.45 -6.95 -39.35 -6.7 -40.2 -6.5 -41.1 -5.7 -41.7 Z" fill="none" stroke="#000000" stroke-linecap="round" stroke-linejoin="round" stroke-opacity="0.15294118" stroke-width="0.5"/>
      <path d="M-6.1 -41.2 Q-5.4 -41.55 -4.45 -41.2 -3.45 -40.8 -2.75 -39.85 -2.1 -38.85 -2.5 -38.15 L-3.7 -38.05 Q-3.65 -37.3 -4.1 -37.15 L-5.35 -37.25 Q-6.2 -37.55 -6.7 -38.3 -7.15 -39.1 -7.05 -39.95 -6.9 -40.8 -6.1 -41.2" fill="#ffcc33" fill-rule="evenodd" stroke="none"/>
      <path d="M-3.15 -38.8 L-2.65 -39.0 -2.15 -38.8 -2.0 -38.25 Q-2.05 -37.95 -2.25 -37.7 L-2.8 -37.5 Q-3.1 -37.5 -3.25 -37.7 L-3.4 -38.25 -3.15 -38.8" fill="#a97601" fill-rule="evenodd" stroke="none"/>
      <path d="M-3.2 -38.75 L-2.8 -38.95 Q-2.55 -38.95 -2.4 -38.75 L-2.3 -38.35 -2.5 -37.9 Q-2.65 -37.7 -2.9 -37.7 L-3.3 -37.9 -3.4 -38.35 -3.2 -38.75" fill="#432f01" fill-rule="evenodd" stroke="none"/>
      <path d="M-6.85 -41.05 L-6.5 -41.25 -6.4 -41.05 Q-6.35 -40.8 -6.45 -40.5 L-6.7 -40.05 -7.0 -39.85 -7.15 -40.05 -7.1 -40.55 -6.85 -41.05" fill="#a97601" fill-rule="evenodd" stroke="none"/>
      <path d="M-6.85 -41.1 L-6.65 -41.25 -6.5 -41.05 -6.6 -40.65 -6.75 -40.25 -7.05 -40.15 -7.1 -40.3 -7.1 -40.7 -6.85 -41.1" fill="#432f01" fill-rule="evenodd" stroke="none"/>
      <path d="M-3.55 -38.1 Q-5.7 -38.15 -6.8 -40.15 L-6.6 -40.35 Q-5.65 -38.4 -3.5 -38.45 L-3.55 -38.1" fill="#432f01" fill-rule="evenodd" stroke="none"/>
      <path d="M-3.55 -38.1 L-3.55 -37.9 Q-5.75 -38.0 -6.8 -40.0 L-6.8 -40.15 Q-5.7 -38.15 -3.55 -38.1" fill="#a97601" fill-rule="evenodd" stroke="none"/>
      <path d="M-3.55 -38.1 Q-5.7 -38.15 -6.8 -40.15" fill="none" stroke="#332720" stroke-linecap="round" stroke-linejoin="round" stroke-opacity="0.3019608" stroke-width="0.05"/>
      <path d="M-5.05 -40.0 Q-5.2 -39.75 -5.5 -39.65 L-5.9 -39.65 -6.05 -40.05 -5.85 -40.55 -5.4 -41.0 -5.0 -41.0 Q-4.85 -40.9 -4.85 -40.6 L-5.05 -40.0" fill="#ffffff" fill-rule="evenodd" stroke="none"/>
      <path d="M3.2 -32.5 Q2.85 -33.5 3.25 -34.3 3.7 -35.15 4.6 -35.3 5.55 -35.45 6.5 -34.8 7.4 -34.25 7.75 -33.25 8.1 -32.25 7.7 -31.4 7.25 -30.6 6.3 -30.45 5.4 -30.3 4.45 -30.9 3.55 -31.5 3.2 -32.5" fill="#ffca33" fill-rule="evenodd" stroke="none"/>
      <path d="M2.5 -32.3 Q2.05 -33.55 2.6 -34.6 3.1 -35.65 4.3 -35.85 5.45 -36.0 6.6 -35.25 7.7 -34.5 8.15 -33.25 8.55 -32.0 8.1 -31.0 7.55 -29.95 6.4 -29.8 5.2 -29.6 4.1 -30.35 2.9 -31.05 2.5 -32.3" fill="#af7b03" fill-rule="evenodd" stroke="none"/>
      <path d="M2.5 -32.3 Q2.05 -33.55 2.6 -34.6 3.1 -35.65 4.3 -35.85 5.45 -36.0 6.6 -35.25 7.7 -34.5 8.15 -33.25 8.55 -32.0 8.1 -31.0 7.55 -29.95 6.4 -29.8 5.2 -29.6 4.1 -30.35 2.9 -31.05 2.5 -32.3 Z" fill="none" stroke="#000000" stroke-linecap="round" stroke-linejoin="round" stroke-opacity="0.15294118" stroke-width="0.5"/>
      <path d="M4.65 -35.7 Q5.9 -35.75 6.85 -35.0 7.8 -34.25 8.2 -33.1 8.55 -31.95 8.05 -31.0 7.6 -30.1 6.55 -29.95 5.5 -29.75 4.45 -30.45 3.45 -31.1 3.05 -32.2 2.65 -33.35 3.1 -34.3 3.6 -35.2 4.65 -35.7" fill="#c98d03" fill-rule="evenodd" stroke="none"/>
      <path d="M4.65 -35.7 Q5.9 -35.75 6.85 -35.0 7.8 -34.25 8.2 -33.1 8.55 -31.95 8.05 -31.0 7.6 -30.1 6.55 -29.95 5.5 -29.75 4.45 -30.45 3.45 -31.1 3.05 -32.2 2.65 -33.35 3.1 -34.3 3.6 -35.2 4.65 -35.7 Z" fill="none" stroke="#000000" stroke-linecap="round" stroke-linejoin="round" stroke-opacity="0.15294118" stroke-width="0.5"/>
      <path d="M4.0 -35.15 Q4.95 -35.35 5.95 -34.75 6.95 -34.05 7.5 -32.8 7.95 -31.55 7.35 -30.85 6.85 -30.3 5.95 -31.05 5.8 -30.2 5.3 -30.1 4.75 -30.0 3.9 -30.55 3.0 -31.05 2.65 -32.05 2.3 -33.05 2.7 -34.0 3.1 -34.9 4.0 -35.15" fill="#ffcc33" fill-rule="evenodd" stroke="none"/>
      <path d="M6.85 -31.7 L7.5 -31.8 7.95 -31.45 7.95 -30.8 7.55 -30.3 6.9 -30.15 Q6.55 -30.25 6.45 -30.55 6.3 -30.85 6.4 -31.15 L6.85 -31.7" fill="#a97601" fill-rule="evenodd" stroke="none"/>
      <path d="M6.8 -31.75 L7.25 -31.85 7.65 -31.55 7.7 -31.05 Q7.6 -30.75 7.3 -30.6 L6.8 -30.5 6.45 -30.8 6.45 -31.35 6.8 -31.75" fill="#432f01" fill-rule="evenodd" stroke="none"/>
      <path d="M3.3 -35.25 L3.65 -35.35 3.75 -35.1 3.55 -34.55 3.15 -34.05 2.75 -33.9 Q2.65 -33.95 2.7 -34.2 L2.85 -34.75 3.3 -35.25" fill="#a97601" fill-rule="evenodd" stroke="none"/>
      <path d="M3.25 -35.3 L3.5 -35.45 3.6 -35.2 3.45 -34.75 3.1 -34.4 Q2.95 -34.2 2.8 -34.25 2.7 -34.3 2.75 -34.5 L2.9 -34.95 3.25 -35.3" fill="#432f01" fill-rule="evenodd" stroke="none"/>
      <path d="M3.15 -34.15 L3.35 -34.4 Q3.9 -32.0 6.3 -31.45 L6.2 -31.1 Q3.85 -31.7 3.15 -34.15" fill="#432f01" fill-rule="evenodd" stroke="none"/>
      <path d="M3.15 -34.15 Q3.85 -31.7 6.2 -31.1 L6.15 -30.9 Q3.7 -31.5 3.05 -34.05 L3.15 -34.15" fill="#a97601" fill-rule="evenodd" stroke="none"/>
      <path d="M3.15 -34.15 Q3.85 -31.7 6.2 -31.1" fill="none" stroke="#332720" stroke-linecap="round" stroke-linejoin="round" stroke-opacity="0.3019608" stroke-width="0.05"/>
      <path d="M5.05 -33.6 Q4.75 -33.3 4.45 -33.3 L4.0 -33.35 3.9 -33.85 4.3 -34.4 4.9 -34.75 5.35 -34.6 5.45 -34.2 5.05 -33.6" fill="#ffffff" fill-rule="evenodd" stroke="none"/>
      <path d="M-13.25 -39.2 L-16.8 -41.9 -14.15 -42.65 Q-8.9 -43.3 -1.45 -39.25 6.05 -35.15 11.35 -28.8 16.25 -23.0 16.8 -18.35 L13.25 -19.0 13.2 -19.4 Q13.15 -23.4 8.8 -28.55 4.55 -33.6 -1.4 -36.9 -7.4 -40.1 -11.55 -39.6 L-13.25 -39.2" fill="#244d4a" fill-opacity="0.9607843" fill-rule="evenodd" stroke="none"/>
      <path d="M-13.25 -39.2 L-11.55 -39.6 Q-7.4 -40.1 -1.4 -36.9 4.55 -33.6 8.8 -28.55 13.15 -23.4 13.2 -19.4 L13.25 -19.0 10.95 -15.4 10.9 -15.4 11.15 -16.9 11.15 -17.3 Q11.1 -21.3 6.7 -26.45 2.5 -31.5 -3.45 -34.75 -9.45 -37.95 -13.65 -37.5 L-14.95 -37.2 -13.25 -39.2" fill="#112422" fill-rule="evenodd" stroke="none"/>
      <path d="M13.25 -19.0 L16.8 -18.35 Q16.25 -23.0 11.35 -28.8 6.05 -35.15 -1.45 -39.25 -8.9 -43.3 -14.15 -42.65 L-16.8 -41.9 -13.25 -39.2 M13.25 -19.0 L10.95 -15.4 10.9 -15.4 11.15 -16.9 11.15 -17.3 Q11.1 -21.3 6.7 -26.45 2.5 -31.5 -3.45 -34.75 -9.45 -37.95 -13.65 -37.5 L-14.95 -37.2 -13.25 -39.2" fill="none" stroke="#332720" stroke-linecap="round" stroke-linejoin="round" stroke-opacity="0.3019608" stroke-width="0.05"/>
      <path d="M-9.65 -39.6 L-10.6 -39.65 M-1.0 -36.65 L-1.4 -36.9 -2.2 -37.3 M1.4 -35.2 L0.6 -35.7 M3.8 -33.45 L3.1 -34.0 M5.95 -31.55 L5.25 -32.2 M8.0 -29.45 L7.35 -30.15 M11.7 -24.45 L11.2 -25.25 M12.85 -21.85 L12.55 -22.7 M13.25 -19.0 L13.2 -19.4 13.2 -19.9 M10.05 -27.0 L9.4 -27.8 M-12.8 -39.4 L-13.25 -39.2 M-6.7 -39.05 L-7.7 -39.3 M-3.95 -38.1 L-4.85 -38.45" fill="none" stroke="#f2cc87" stroke-linecap="round" stroke-linejoin="round" stroke-opacity="0.42352942" stroke-width="0.30000000000000004"/>
      <path d="M-18.7 -39.65 L-17.9 -40.75 -16.65 -41.9 -13.1 -39.15 Q-14.7 -38.6 -15.3 -37.0 L-15.35 -36.95 -15.6 -35.45 -15.5 -34.2 Q-15.0 -30.6 -11.3 -26.15 -7.0 -21.15 -1.05 -18.05 3.05 -15.9 6.35 -15.5 L7.25 -12.55 7.15 -12.6 4.4 -13.3 Q1.85 -14.2 -1.0 -15.7 -8.4 -19.5 -13.75 -25.75 -16.05 -28.5 -17.3 -30.8 -18.7 -33.5 -19.05 -35.75 L-19.15 -37.3 Q-19.2 -38.7 -18.7 -39.65" fill="#346e6a" fill-rule="evenodd" stroke="none"/>
      <path d="M7.25 -12.55 L6.35 -15.5 9.1 -15.55 10.9 -16.0 12.25 -17.05 Q13.15 -18.0 13.15 -19.7 L16.7 -19.1 16.8 -18.2 Q16.8 -15.75 15.55 -14.35 L14.8 -13.7 Q13.55 -12.8 11.7 -12.5 9.6 -12.2 7.25 -12.55" fill="#275451" fill-rule="evenodd" stroke="none"/>
      <path d="M7.15 -12.6 L7.25 -12.55 Q9.6 -12.2 11.7 -12.5 13.55 -12.8 14.8 -13.7 L15.55 -14.35 Q16.8 -15.75 16.8 -18.2 L16.7 -19.1 Q18.9 -13.0 17.65 -7.45 17.3 -4.25 13.25 -4.1 10.4 -3.95 6.5 -5.45 L7.15 -12.6" fill="#1e403d" fill-rule="evenodd" stroke="none"/>
      <path d="M-15.3 -37.0 Q-14.7 -38.6 -13.1 -39.15 L-14.9 -37.15 -15.25 -37.05 -15.3 -37.0 M13.15 -19.7 Q13.15 -18.0 12.25 -17.05 L10.9 -16.0 13.15 -19.7" fill="#112422" fill-opacity="0.9607843" fill-rule="evenodd" stroke="none"/>
      <path d="M-18.7 -39.65 Q-19.2 -38.7 -19.15 -37.3 L-19.05 -35.75 Q-18.7 -33.5 -17.3 -30.8 -16.05 -28.5 -13.75 -25.75 -8.4 -19.5 -1.0 -15.7 1.85 -14.2 4.4 -13.3 L7.15 -12.6 6.5 -5.45 Q3.6 -6.6 0.15 -8.65 -7.85 -13.35 -14.2 -20.25 -20.45 -27.25 -21.3 -32.35 -21.65 -34.05 -21.25 -35.2 L-18.7 -39.65" fill="#254d4b" fill-rule="evenodd" stroke="none"/>
      <path d="M-16.65 -41.9 L-17.9 -40.75 -18.7 -39.65 M16.7 -19.1 Q18.9 -13.0 17.65 -7.45 17.3 -4.25 13.25 -4.1 10.4 -3.95 6.5 -5.45 3.6 -6.6 0.15 -8.65 -7.85 -13.35 -14.2 -20.25 -20.45 -27.25 -21.3 -32.35 -21.65 -34.05 -21.25 -35.2 L-18.7 -39.65" fill="none" stroke="#000000" stroke-linecap="round" stroke-linejoin="round" stroke-opacity="0.15294118" stroke-width="0.05"/>
      <path d="M7.15 -12.6 L7.25 -12.55 M6.35 -15.5 Q3.05 -15.9 -1.05 -18.05 -7.0 -21.15 -11.3 -26.15 -15.0 -30.6 -15.5 -34.2 L-15.6 -35.45 -15.35 -36.95 -15.3 -37.0 Q-14.7 -38.6 -13.1 -39.15 M10.9 -16.0 L9.1 -15.55 6.35 -15.5 M13.15 -19.7 Q13.15 -18.0 12.25 -17.05 L10.9 -16.0 M-15.3 -37.0 L-15.25 -37.05 -14.9 -37.15" fill="none" stroke="#332720" stroke-linecap="round" stroke-linejoin="round" stroke-opacity="0.3019608" stroke-width="0.05"/>
      <path d="M16.5 -16.15 L16.1 -15.1 M16.7 -19.1 L16.8 -18.2 M-19.15 -37.75 L-19.05 -38.75 M-16.55 -29.5 L-17.1 -30.5 M-17.85 -32.0 L-18.3 -32.95 M-18.9 -34.9 L-19.05 -35.75 M-12.85 -24.8 L-13.75 -25.75 M-10.75 -22.6 L-11.4 -23.25 M-8.5 -20.6 L-9.3 -21.3 M-6.15 -18.8 L-6.9 -19.35 M-3.75 -17.2 L-4.55 -17.7 M-14.8 -27.05 L-15.4 -27.85 M8.55 -12.4 L7.55 -12.5 M11.6 -12.5 L10.6 -12.4 M14.5 -13.5 L13.65 -13.05 M7.15 -12.6 L6.15 -12.8 M4.2 -13.4 L3.25 -13.75 M1.3 -14.55 L0.4 -14.95 M-1.2 -15.8 L-2.05 -16.25" fill="none" stroke="#f2cc87" stroke-linecap="round" stroke-linejoin="round" stroke-opacity="0.42352942" stroke-width="0.30000000000000004"/>
      <path d="M-23.05 -38.1 L-24.05 -37.3 -23.55 -38.65 Q-21.15 -40.1 -18.8 -41.6 L-19.55 -40.25 -23.05 -38.1" fill="#478d86" fill-rule="evenodd" stroke="none"/>
      <path d="M-20.5 -26.3 L-15.7 -28.75 -14.4 -26.05 -19.65 -24.5 -20.5 -26.3 M-17.25 -32.75 L-21.0 -31.9 -21.95 -32.4 -23.05 -38.1 -19.55 -40.25 -18.85 -38.35 -17.25 -32.75" fill="#3b756e" fill-rule="evenodd" stroke="none"/>
      <path d="M-24.05 -37.3 L-23.05 -38.1 -21.95 -32.4 -21.0 -31.9 -17.25 -32.75 -15.7 -28.75 -20.5 -26.3 -23.2 -34.4 -24.05 -37.2 -24.05 -37.3 -24.05 -37.2 -24.1 -37.25 -24.05 -37.3" fill="#2b5c58" fill-rule="evenodd" stroke="none"/>
      <path d="M-19.55 -40.25 L-18.8 -41.6 -16.5 -42.75 -15.1 -42.5 -16.15 -41.95 -16.25 -41.85 -18.4 -40.5 -16.25 -34.25 Q-17.0 -32.55 -17.25 -32.75 L-18.85 -38.35 -19.55 -40.25 M-14.4 -28.85 L-13.25 -26.35 -14.4 -26.05 -15.7 -28.75 -14.4 -28.85" fill="#1c403a" fill-rule="evenodd" stroke="none"/>
      <path d="M-15.7 -28.75 L-17.25 -32.75 Q-17.0 -32.55 -16.25 -34.25 L-14.4 -28.85 -15.7 -28.75" fill="#132b27" fill-rule="evenodd" stroke="none"/>
      <path d="M-24.05 -37.3 L-24.05 -37.2 -23.2 -34.4 -20.5 -26.3 M-18.8 -41.6 Q-21.15 -40.1 -23.55 -38.65 L-24.05 -37.3 M-24.1 -37.25 L-24.05 -37.2 M-18.8 -41.6 L-16.5 -42.75 -15.1 -42.5 -16.15 -41.95 -16.25 -41.85 -18.4 -40.5 -16.25 -34.25 -14.4 -28.85 -13.25 -26.35 -14.4 -26.05 -19.65 -24.5 -20.5 -26.3" fill="none" stroke="#000000" stroke-linecap="round" stroke-linejoin="round" stroke-opacity="0.3019608" stroke-width="0.05"/>
      <path d="M-15.7 -28.75 L-17.25 -32.75 M-19.55 -40.25 L-18.8 -41.6 M-15.7 -28.75 L-14.4 -26.05 M-19.55 -40.25 L-18.85 -38.35 -17.25 -32.75" fill="none" stroke="#000000" stroke-linecap="round" stroke-linejoin="round" stroke-opacity="0.101960786" stroke-width="0.05"/>
      <path d="M-14.1 -25.4 L-13.05 -25.6 -13.05 -25.55 Q-13.95 -23.1 -15.25 -21.45 L-16.4 -21.3 Q-14.9 -22.95 -14.1 -25.3 L-14.1 -25.4" fill="#895f21" fill-rule="evenodd" stroke="none"/>
      <path d="M-15.4 -28.85 L-14.4 -29.1 Q-13.05 -26.0 -13.05 -25.6 L-14.1 -25.4 Q-14.55 -28.0 -15.4 -28.85" fill="#b6882f" fill-rule="evenodd" stroke="none"/>
      <path d="M-15.4 -28.85 Q-14.55 -28.0 -14.1 -25.4 L-14.1 -25.3 Q-14.9 -22.95 -16.4 -21.3 L-17.95 -22.0 Q-18.95 -22.3 -19.75 -22.85 L-21.2 -25.9 Q-19.65 -26.45 -18.0 -27.3 L-16.95 -27.9 -15.4 -28.85" fill="#ffcc33" fill-rule="evenodd" stroke="none"/>
      <path d="M-13.05 -25.6 Q-13.05 -26.0 -14.4 -29.1 L-15.4 -28.85 M-13.05 -25.6 L-13.05 -25.55 Q-13.95 -23.1 -15.25 -21.45 L-16.4 -21.3 -17.95 -22.0 Q-18.95 -22.3 -19.75 -22.85 L-21.2 -25.9 Q-19.65 -26.45 -18.0 -27.3 L-16.95 -27.9 -15.4 -28.85" fill="none" stroke="#000000" stroke-linecap="round" stroke-linejoin="round" stroke-opacity="0.3019608" stroke-width="0.05"/>
      <path d="M-16.15 -27.75 L-15.65 -27.8 -15.05 -27.2 -14.65 -25.35 Q-15.3 -23.35 -16.55 -22.2 L-15.2 -25.25 -15.55 -27.1 -16.15 -27.75" fill="#ffffff" fill-rule="evenodd" stroke="none"/>
      <path d="M-18.45 -29.55 L-17.9 -29.55 -16.85 -26.75 -17.3 -26.85 -17.25 -26.85 -17.65 -28.0 -18.45 -29.55" fill="#895f21" fill-rule="evenodd" stroke="none"/>
      <path d="M-19.05 -25.95 Q-19.8 -27.05 -20.0 -28.65 L-19.45 -29.1 -19.2 -29.2 -18.6 -29.15 -18.55 -29.1 -17.85 -28.25 -17.5 -26.7 -19.05 -25.95" fill="#eab740" fill-rule="evenodd" stroke="none"/>
      <path d="M-16.85 -26.75 L-18.4 -25.85 -19.05 -25.95 -17.5 -26.7 -17.3 -26.85 -16.85 -26.75" fill="#543a14" fill-rule="evenodd" stroke="none"/>
      <path d="M-19.2 -29.2 L-18.45 -29.55 -17.65 -28.0 -17.25 -26.85 -17.3 -26.85 -17.5 -26.7 -17.85 -28.25 -18.55 -29.1 -18.6 -29.15 -19.2 -29.2" fill="#ffffff" fill-rule="evenodd" stroke="none"/>
      <path d="M-18.45 -29.55 L-17.9 -29.55 -16.85 -26.75 -18.4 -25.85 -19.05 -25.95 Q-19.8 -27.05 -20.0 -28.65 L-19.45 -29.1 -19.2 -29.2 -18.45 -29.55" fill="none" stroke="#000000" stroke-linecap="round" stroke-linejoin="round" stroke-opacity="0.3019608" stroke-width="0.05"/>
      <path d="M-17.25 -26.85 L-17.3 -26.85" fill="none" stroke="#000000" stroke-linecap="round" stroke-linejoin="round" stroke-opacity="0.101960786" stroke-width="0.05"/>
      <path d="M-14.5 -33.4 Q-14.85 -32.4 -18.05 -30.55 -20.95 -28.7 -22.25 -28.55 L-23.2 -29.2 -23.9 -30.95 -24.2 -33.6 Q-24.4 -35.55 -23.95 -36.5 L-23.7 -36.4 -23.9 -35.9 -24.0 -33.85 Q-24.0 -32.45 -23.55 -31.8 L-23.3 -31.35 -23.25 -31.45 -22.45 -31.6 -21.95 -31.85 -22.15 -31.45 -22.45 -30.55 Q-22.3 -30.05 -21.55 -30.25 -21.2 -30.15 -19.0 -31.7 -16.7 -33.05 -16.1 -33.65 -15.55 -33.2 -15.1 -33.3 L-14.5 -33.4 M-17.35 -35.7 Q-17.35 -36.45 -18.0 -39.2 L-17.95 -39.15 -18.55 -40.35 -18.2 -40.65 -17.15 -40.95 -16.05 -38.25 Q-16.4 -39.0 -16.85 -38.55 -17.3 -38.2 -17.35 -35.7" fill="#895f21" fill-rule="evenodd" stroke="none"/>
      <path d="M-23.7 -36.4 L-23.7 -36.5 -23.65 -36.35 -23.7 -36.4" fill="#5f4216" fill-rule="evenodd" stroke="none"/>
      <path d="M-16.1 -33.65 Q-16.7 -33.05 -19.0 -31.7 -21.2 -30.15 -21.55 -30.25 -22.3 -30.05 -22.45 -30.55 L-22.15 -31.45 -21.95 -31.85 Q-21.25 -32.0 -19.4 -33.2 L-17.4 -34.55 Q-17.3 -35.05 -17.35 -35.7 -17.3 -38.2 -16.85 -38.55 -16.4 -39.0 -16.05 -38.25 L-15.75 -37.3 Q-16.2 -38.2 -16.45 -37.8 -14.95 -33.9 -16.1 -33.65" fill="#eab740" fill-rule="evenodd" stroke="none"/>
      <path d="M-14.5 -33.4 L-15.1 -33.3 Q-15.55 -33.2 -16.1 -33.65 -14.95 -33.9 -16.45 -37.8 -16.2 -38.2 -15.75 -37.3 L-14.5 -33.4" fill="#f2e671" fill-rule="evenodd" stroke="none"/>
      <path d="M-22.45 -31.6 L-23.25 -31.45 -23.3 -31.35 -23.55 -31.8 Q-24.0 -32.45 -24.0 -33.85 L-23.9 -35.9 -23.7 -36.4 -23.65 -36.35 -22.45 -31.6" fill="#473110" fill-rule="evenodd" stroke="none"/>
      <path d="M-23.7 -36.4 L-23.95 -36.5 Q-24.4 -35.55 -24.2 -33.6 L-23.9 -30.95 -23.2 -29.2 -22.25 -28.55 Q-20.95 -28.7 -18.05 -30.55 -14.85 -32.4 -14.5 -33.4 M-21.95 -31.85 L-22.45 -31.6 -23.25 -31.45 M-23.7 -36.4 L-23.65 -36.35 M-17.35 -35.7 Q-17.35 -36.45 -18.0 -39.2 L-17.95 -39.15 -18.55 -40.35 -18.2 -40.65 -17.15 -40.95 -16.05 -38.25 -15.75 -37.3 -14.5 -33.4 M-17.35 -35.7 Q-17.3 -35.05 -17.4 -34.55 L-19.4 -33.2 Q-21.25 -32.0 -21.95 -31.85" fill="none" stroke="#000000" stroke-linecap="round" stroke-linejoin="round" stroke-opacity="0.3019608" stroke-width="0.05"/>
      <path d="M-18.8 -32.15 Q-20.15 -31.25 -21.25 -31.5 L-21.2 -31.7 Q-19.7 -32.95 -17.95 -33.65 -17.7 -32.85 -18.8 -32.15" fill="#ffffff" fill-rule="evenodd" stroke="none"/>
      <path d="M15.75 -9.55 L14.95 -8.95 14.8 -8.75 14.15 -8.15 Q14.3 -9.6 13.7 -11.35 13.15 -13.15 11.55 -14.3 10.05 -15.45 8.15 -15.55 L8.75 -16.1 10.2 -15.85 10.4 -15.75 Q11.6 -15.45 12.65 -14.8 14.15 -13.85 14.95 -12.45 L15.2 -11.85 Q15.65 -10.7 15.75 -9.55" fill="#ad7300" fill-rule="evenodd" stroke="none"/>
      <path d="M11.8 -16.95 Q15.3 -16.2 16.7 -13.9 L14.95 -12.45 Q14.15 -13.85 12.65 -14.8 11.6 -15.45 10.4 -15.75 L11.8 -16.95" fill="#664400" fill-rule="evenodd" stroke="none"/>
      <path d="M8.75 -16.1 L8.85 -16.2 Q10.0 -17.0 11.55 -17.1 L11.8 -16.95 10.4 -15.75 10.2 -15.85 8.75 -16.1 M16.7 -13.9 Q17.45 -12.65 17.55 -11.0 L15.75 -9.55 Q15.65 -10.7 15.2 -11.85 L14.95 -12.45 16.7 -13.9" fill="#4f3400" fill-rule="evenodd" stroke="none"/>
      <path d="M8.75 -16.1 L8.85 -16.2 Q10.0 -17.0 11.55 -17.1 L11.8 -16.95 Q15.3 -16.2 16.7 -13.9 17.45 -12.65 17.55 -11.0 L15.75 -9.55 14.95 -8.95 M14.8 -8.75 L14.15 -8.15 Q14.3 -9.6 13.7 -11.35 13.15 -13.15 11.55 -14.3 10.05 -15.45 8.15 -15.55 L8.75 -16.1 Z" fill="none" stroke="#000000" stroke-linecap="round" stroke-linejoin="round" stroke-opacity="0.3019608" stroke-width="0.05"/>
      <path d="M-21.0 -37.0 L-21.4 -36.75 -21.7 -36.95 -21.9 -37.45 -21.85 -37.95 -21.55 -38.2 -21.15 -38.0 -20.95 -37.45 Q-20.9 -37.15 -21.0 -37.0" fill="#102421" fill-opacity="0.67058825" fill-rule="evenodd" stroke="none"/>
      <path d="M-20.15 -33.9 L-20.55 -33.65 -20.85 -33.85 -21.05 -34.35 -21.0 -34.85 -20.7 -35.1 Q-20.45 -35.1 -20.3 -34.9 L-20.1 -34.35 Q-20.05 -34.05 -20.15 -33.9" fill="#102421" fill-opacity="0.67058825" fill-rule="evenodd" stroke="none"/>
      <path d="M9.65 -4.4 L9.55 -4.35 9.45 -4.45 9.65 -4.4 10.0 -4.3 14.35 -4.5 9.65 -4.4 M13.85 -3.4 Q14.45 -3.75 14.65 -4.55 L14.65 -4.6 14.65 -4.55 14.7 -4.55 14.7 -4.6 16.25 -5.35 17.45 -6.05 Q17.35 -5.5 17.05 -5.05 L16.8 -4.85 16.2 -4.45 13.85 -3.4" fill="#4f3400" fill-rule="evenodd" stroke="none"/>
      <path d="M9.55 -4.35 L9.65 -4.4 14.35 -4.5 14.65 -4.6 14.65 -4.55 Q14.45 -3.75 13.85 -3.4 L13.65 -3.3 10.75 -3.6 9.55 -4.35 M14.7 -4.6 L14.6 -4.7 14.65 -4.7 15.7 -5.15 16.25 -5.35 14.7 -4.6" fill="#bd7e00" fill-rule="evenodd" stroke="none"/>
      <path d="M9.55 -4.35 L10.75 -3.6 13.65 -3.3 13.85 -3.4 M14.65 -4.6 L14.35 -4.5 9.65 -4.4 10.0 -4.3 14.35 -4.5 M15.7 -5.15 L16.25 -5.35 17.45 -6.05 Q17.35 -5.5 17.05 -5.05 L16.8 -4.85 16.2 -4.45 13.85 -3.4 M14.65 -4.6 L14.7 -4.6 16.25 -5.35" fill="none" stroke="#000000" stroke-linecap="round" stroke-linejoin="round" stroke-opacity="0.15294118" stroke-width="0.05"/>
      <path d="M18.95 -2.9 L18.9 -3.8 Q18.95 -4.95 19.6 -6.25 20.25 -7.45 21.15 -8.05 L21.85 -8.2 Q21.9 -3.95 18.95 -2.9" fill="#432f01" fill-rule="evenodd" stroke="none"/>
      <path d="M15.2 -8.05 Q16.6 -6.5 18.2 -5.55 L18.35 -6.05 Q16.4 -7.2 15.4 -8.6 L15.6 -9.25 Q16.15 -10.3 16.8 -10.75 19.1 -11.6 19.95 -11.35 20.9 -11.05 22.05 -10.2 L22.35 -9.95 23.3 -8.95 23.35 -8.9 21.15 -9.05 Q20.0 -8.5 18.95 -6.5 L18.45 -5.1 18.4 -4.7 Q17.7 -1.65 19.45 -0.75 18.8 -0.95 18.25 -1.4 17.5 -2.85 18.0 -4.9 16.55 -5.9 15.2 -8.05" fill="#ffcc33" fill-rule="evenodd" stroke="none"/>
      <path d="M19.95 -11.35 Q19.1 -11.6 16.8 -10.75 16.15 -10.3 15.6 -9.25 L15.4 -8.6 Q16.4 -7.2 18.35 -6.05 L18.2 -5.55 Q16.6 -6.5 15.2 -8.05 14.8 -5.2 17.8 -1.7 L17.6 -1.9 Q15.4 -3.45 14.6 -5.65 13.8 -8.1 14.8 -9.85 L14.8 -9.95 Q15.75 -11.85 17.85 -11.8 L19.95 -11.35" fill="#af7b03" fill-rule="evenodd" stroke="none"/>
      <path d="M19.15 -2.55 L18.95 -2.9 Q21.9 -3.95 21.85 -8.2 L22.05 -8.25 22.75 -7.95 23.2 -7.0 22.2 -7.45 22.2 -7.15 22.05 -5.7 21.5 -4.6 Q20.9 -3.45 19.95 -2.95 19.5 -2.6 19.15 -2.55" fill="#765301" fill-rule="evenodd" stroke="none"/>
      <path d="M19.95 -1.85 Q19.7 -1.85 19.55 -2.05 19.2 -2.25 19.15 -2.55 19.5 -2.6 19.95 -2.95 20.9 -3.45 21.5 -4.6 L22.05 -5.7 22.2 -7.15 22.2 -7.45 23.2 -7.0 23.25 -6.35 23.05 -4.9 22.6 -3.85 Q21.9 -2.7 20.95 -2.05 L19.95 -1.85" fill="#a97601" fill-rule="evenodd" stroke="none"/>
      <path d="M17.8 -1.7 Q14.8 -5.2 15.2 -8.05 16.55 -5.9 18.0 -4.9 17.5 -2.85 18.25 -1.4 L17.8 -1.7" fill="#c98d03" fill-rule="evenodd" stroke="none"/>
      <path d="M19.45 -0.75 Q17.7 -1.65 18.4 -4.7 L18.45 -5.1 18.95 -6.5 Q20.0 -8.5 21.15 -9.05 L23.35 -8.9 23.4 -8.8 23.45 -8.85 23.6 -8.55 24.2 -6.75 Q24.35 -5.25 23.7 -3.8 L23.65 -3.85 23.05 -4.9 23.25 -6.35 23.2 -7.0 22.75 -7.95 22.05 -8.25 21.85 -8.2 21.15 -8.05 Q20.25 -7.45 19.6 -6.25 18.95 -4.95 18.9 -3.8 L18.95 -2.9 19.15 -2.55 Q19.2 -2.25 19.55 -2.05 19.7 -1.85 19.95 -1.85 20.25 -1.25 20.85 -0.9 L21.15 -0.8 20.9 -0.7 19.45 -0.75" fill="#ab7602" fill-rule="evenodd" stroke="none"/>
      <path d="M19.95 -11.35 L17.85 -11.8 Q15.75 -11.85 14.8 -9.95 L14.8 -9.85 Q13.8 -8.1 14.6 -5.65 15.4 -3.45 17.6 -1.9 L17.8 -1.7 18.25 -1.4 Q18.8 -0.95 19.45 -0.75 L20.9 -0.7 21.15 -0.8 M23.35 -8.9 L23.3 -8.95 22.35 -9.95 22.05 -10.2 Q20.9 -11.05 19.95 -11.35 M19.95 -1.85 Q19.7 -1.85 19.55 -2.05 19.2 -2.25 19.15 -2.55 L18.95 -2.9 18.9 -3.8 Q18.95 -4.95 19.6 -6.25 20.25 -7.45 21.15 -8.05 L21.85 -8.2 22.05 -8.25 22.75 -7.95 23.2 -7.0 23.25 -6.35 23.05 -4.9 M23.7 -3.8 Q24.35 -5.25 24.2 -6.75 L23.6 -8.55 23.45 -8.85 23.4 -8.8 23.35 -8.9 M19.95 -1.85 L20.95 -2.05 Q21.9 -2.7 22.6 -3.85 L23.05 -4.9" fill="none" stroke="#000000" stroke-linecap="round" stroke-linejoin="round" stroke-opacity="0.2509804" stroke-width="0.05"/>
      <path d="M18.4 -11.7 L17.6 -11.8 Q16.95 -11.8 17.0 -11.55 L17.3 -11.2 17.85 -10.9 19.5 -10.2 Q20.05 -9.95 20.5 -9.85 L21.05 -9.85 21.5 -9.9 21.5 -10.15 20.65 -10.85 19.0 -11.55 18.4 -11.7" fill="#ffffcc" fill-rule="evenodd" stroke="none"/>
      <path d="M20.9 -5.0 L22.1 -5.2 Q23.0 -5.05 23.6 -4.2 24.3 -3.45 24.25 -2.3 L24.25 -2.25 24.15 -1.7 24.05 -1.25 22.8 -1.15 Q22.15 -1.3 21.5 -1.75 L21.25 -2.05 Q20.75 -2.85 20.7 -3.95 L20.9 -5.0" fill="#ffcc33" fill-rule="evenodd" stroke="none"/>
      <path d="M24.05 -1.25 Q23.85 -0.85 23.45 -0.6 22.7 0.15 21.8 0.0 21.05 -0.15 20.5 -0.7 L20.25 -0.95 Q19.6 -1.8 19.65 -2.9 19.7 -4.05 20.4 -4.65 L20.9 -5.0 20.7 -3.95 Q20.75 -2.85 21.25 -2.05 L21.5 -1.75 Q22.15 -1.3 22.8 -1.15 L24.05 -1.25" fill="#d29402" fill-rule="evenodd" stroke="none"/>
      <path d="M24.05 -1.25 Q23.85 -0.85 23.45 -0.6 22.7 0.15 21.8 0.0 21.05 -0.15 20.5 -0.7 L20.25 -0.95 Q19.6 -1.8 19.65 -2.9 19.7 -4.05 20.4 -4.65 L20.9 -5.0 22.1 -5.2 Q23.0 -5.05 23.6 -4.2 24.3 -3.45 24.25 -2.3 L24.25 -2.25 24.15 -1.7 24.05 -1.25 Z" fill="none" stroke="#000000" stroke-linecap="round" stroke-linejoin="round" stroke-opacity="0.2509804" stroke-width="0.05"/>
      <path d="M23.4 -3.55 Q23.3 -3.05 23.05 -2.9 L22.45 -2.75 Q22.2 -2.85 21.9 -3.05 21.75 -3.35 21.75 -3.75 21.75 -4.15 22.0 -4.35 L22.6 -4.45 Q23.0 -4.5 23.15 -4.2 L23.4 -3.55" fill="#ffffcc" fill-rule="evenodd" stroke="none"/>
      <path d="M-9.8 -16.2 Q-10.15 -17.2 -9.75 -18.05 -9.35 -18.9 -8.4 -19.05 L-6.45 -18.65 Q-5.5 -18.0 -5.15 -17.0 -4.75 -16.0 -5.2 -15.15 -5.65 -14.3 -6.6 -14.15 -7.55 -14.0 -8.5 -14.55 -9.4 -15.2 -9.8 -16.2" fill="#ffca33" fill-rule="evenodd" stroke="none"/>
      <path d="M-10.7 -16.05 Q-11.15 -17.35 -10.6 -18.4 -10.05 -19.45 -8.9 -19.65 -7.7 -19.9 -6.55 -19.15 -5.35 -18.4 -4.9 -17.1 -4.45 -15.85 -4.95 -14.8 -5.45 -13.75 -6.65 -13.5 -7.8 -13.3 -9.0 -14.05 -10.25 -14.8 -10.7 -16.05" fill="#af7b03" fill-rule="evenodd" stroke="none"/>
      <path d="M-10.7 -16.05 Q-11.15 -17.35 -10.6 -18.4 -10.05 -19.45 -8.9 -19.65 -7.7 -19.9 -6.55 -19.15 -5.35 -18.4 -4.9 -17.1 -4.45 -15.85 -4.95 -14.8 -5.45 -13.75 -6.65 -13.5 -7.8 -13.3 -9.0 -14.05 -10.25 -14.8 -10.7 -16.05 Z" fill="none" stroke="#000000" stroke-linecap="round" stroke-linejoin="round" stroke-opacity="0.15294118" stroke-width="0.5"/>
      <path d="M-8.3 -19.4 Q-7.05 -19.5 -6.05 -18.75 -5.05 -18.0 -4.65 -16.8 -4.3 -15.65 -4.75 -14.65 -5.2 -13.75 -6.3 -13.55 -7.35 -13.35 -8.45 -14.05 -9.5 -14.75 -9.9 -15.85 -10.3 -17.0 -9.85 -18.0 -9.35 -18.9 -8.3 -19.4" fill="#c98d03" fill-rule="evenodd" stroke="none"/>
      <path d="M-8.3 -19.4 Q-7.05 -19.5 -6.05 -18.75 -5.05 -18.0 -4.65 -16.8 -4.3 -15.65 -4.75 -14.65 -5.2 -13.75 -6.3 -13.55 -7.35 -13.35 -8.45 -14.05 -9.5 -14.75 -9.9 -15.85 -10.3 -17.0 -9.85 -18.0 -9.35 -18.9 -8.3 -19.4 Z" fill="none" stroke="#000000" stroke-linecap="round" stroke-linejoin="round" stroke-opacity="0.15294118" stroke-width="0.5"/>
      <path d="M-8.95 -19.0 Q-8.0 -19.3 -7.0 -18.6 -5.95 -17.95 -5.4 -16.65 -4.9 -15.35 -5.5 -14.65 -6.0 -14.05 -6.95 -14.85 -7.05 -14.0 -7.6 -13.9 -8.15 -13.8 -9.05 -14.3 -9.9 -14.85 -10.3 -15.85 -10.65 -16.85 -10.3 -17.8 -9.9 -18.8 -8.95 -19.0" fill="#ffcc33" fill-rule="evenodd" stroke="none"/>
      <path d="M-6.1 -15.55 L-5.45 -15.7 -4.95 -15.3 -4.9 -14.65 Q-5.0 -14.25 -5.35 -14.05 L-5.95 -13.95 -6.5 -14.3 -6.5 -15.0 -6.1 -15.55" fill="#a97601" fill-rule="evenodd" stroke="none"/>
      <path d="M-6.15 -15.55 L-5.65 -15.65 -5.25 -15.35 -5.2 -14.8 Q-5.3 -14.5 -5.55 -14.35 L-6.1 -14.25 -6.45 -14.55 -6.5 -15.05 -6.15 -15.55" fill="#432f01" fill-rule="evenodd" stroke="none"/>
      <path d="M-9.8 -19.05 L-9.4 -19.2 -9.3 -18.9 -9.5 -18.3 Q-9.65 -18.0 -9.9 -17.85 -10.15 -17.6 -10.3 -17.65 L-10.4 -18.0 -10.2 -18.5 -9.8 -19.05" fill="#a97601" fill-rule="evenodd" stroke="none"/>
      <path d="M-9.75 -19.1 L-9.45 -19.2 -9.35 -19.0 -9.55 -18.5 -9.85 -18.1 -10.15 -18.0 -10.25 -18.2 -10.1 -18.65 -9.75 -19.1" fill="#432f01" fill-rule="evenodd" stroke="none"/>
      <path d="M-9.9 -17.9 L-9.75 -18.15 Q-9.1 -15.7 -6.65 -15.15 L-6.75 -14.8 Q-9.15 -15.4 -9.9 -17.9" fill="#432f01" fill-rule="evenodd" stroke="none"/>
      <path d="M-9.9 -17.9 Q-9.15 -15.4 -6.75 -14.8 L-6.8 -14.6 Q-9.3 -15.15 -10.05 -17.8 L-9.9 -17.9" fill="#a97601" fill-rule="evenodd" stroke="none"/>
      <path d="M-9.9 -17.9 Q-9.15 -15.4 -6.75 -14.8" fill="none" stroke="#332720" stroke-linecap="round" stroke-linejoin="round" stroke-opacity="0.3019608" stroke-width="0.05"/>
      <path d="M-8.0 -17.4 L-8.55 -17.1 -9.1 -17.15 -9.1 -17.65 -8.8 -18.2 -8.15 -18.6 -7.7 -18.5 -7.6 -18.05 -8.0 -17.4" fill="#ffffff" fill-rule="evenodd" stroke="none"/>
      <path d="M2.1 -8.6 Q1.2 -9.35 1.0 -10.35 0.9 -11.4 1.6 -12.1 2.3 -12.8 3.45 -12.75 4.65 -12.75 5.55 -12.0 6.5 -11.3 6.65 -10.25 6.8 -9.25 6.1 -8.55 5.4 -7.85 4.2 -7.85 3.05 -7.9 2.1 -8.6" fill="#ffca33" fill-rule="evenodd" stroke="none"/>
      <path d="M1.45 -8.05 Q0.3 -8.95 0.15 -10.2 -0.1 -11.55 0.8 -12.45 1.65 -13.3 3.15 -13.25 4.55 -13.25 5.7 -12.35 6.85 -11.45 7.1 -10.15 7.25 -8.85 6.4 -8.0 5.5 -7.1 4.1 -7.1 2.6 -7.15 1.45 -8.05" fill="#af7b03" fill-rule="evenodd" stroke="none"/>
      <path d="M1.45 -8.05 Q0.3 -8.95 0.15 -10.2 -0.1 -11.55 0.8 -12.45 1.65 -13.3 3.15 -13.25 4.55 -13.25 5.7 -12.35 6.85 -11.45 7.1 -10.15 7.25 -8.85 6.4 -8.0 5.5 -7.1 4.1 -7.1 2.6 -7.15 1.45 -8.05 Z" fill="none" stroke="#000000" stroke-linecap="round" stroke-linejoin="round" stroke-opacity="0.15294118" stroke-width="0.5"/>
      <path d="M1.5 -12.6 Q2.55 -13.35 3.8 -13.25 5.1 -13.1 6.15 -12.2 7.15 -11.3 7.35 -10.2 7.55 -9.05 6.75 -8.25 5.95 -7.45 4.65 -7.5 3.3 -7.45 2.3 -8.3 1.25 -9.1 1.1 -10.3 0.9 -11.45 1.5 -12.6" fill="#c98d03" fill-rule="evenodd" stroke="none"/>
      <path d="M1.5 -12.6 Q2.55 -13.35 3.8 -13.25 5.1 -13.1 6.15 -12.2 7.15 -11.3 7.35 -10.2 7.55 -9.05 6.75 -8.25 5.95 -7.45 4.65 -7.5 3.3 -7.45 2.3 -8.3 1.25 -9.1 1.1 -10.3 0.9 -11.45 1.5 -12.6 Z" fill="none" stroke="#000000" stroke-linecap="round" stroke-linejoin="round" stroke-opacity="0.15294118" stroke-width="0.5"/>
      <path d="M1.25 -11.65 Q1.85 -12.45 3.15 -12.45 4.4 -12.4 5.65 -11.55 6.85 -10.65 6.8 -9.6 6.65 -8.75 5.5 -9.0 5.9 -8.05 5.5 -7.65 5.1 -7.25 4.0 -7.25 2.95 -7.25 2.0 -7.95 1.1 -8.7 0.8 -9.8 0.6 -10.9 1.25 -11.65" fill="#ffcc33" fill-rule="evenodd" stroke="none"/>
      <path d="M5.75 -10.1 L6.2 -10.55 6.85 -10.5 7.3 -9.9 7.25 -9.1 6.8 -8.65 6.15 -8.7 Q5.85 -8.9 5.75 -9.3 5.6 -9.7 5.75 -10.1" fill="#a97601" fill-rule="evenodd" stroke="none"/>
      <path d="M5.55 -10.05 L5.95 -10.4 6.45 -10.4 6.75 -9.9 6.8 -9.3 6.4 -8.85 5.9 -8.95 Q5.65 -9.05 5.55 -9.4 L5.55 -10.05" fill="#432f01" fill-rule="evenodd" stroke="none"/>
      <path d="M0.45 -11.35 L0.65 -11.7 0.95 -11.5 1.1 -10.85 1.05 -10.15 0.85 -9.8 0.55 -10.0 0.4 -10.65 0.45 -11.35" fill="#a97601" fill-rule="evenodd" stroke="none"/>
      <path d="M0.45 -11.2 L0.65 -11.5 0.85 -11.3 1.0 -10.8 0.95 -10.2 0.8 -9.95 0.55 -10.1 0.4 -10.6 0.45 -11.2" fill="#432f01" fill-rule="evenodd" stroke="none"/>
      <path d="M5.6 -9.05 Q3.2 -8.25 1.05 -10.15 L1.1 -10.5 Q3.1 -8.55 5.5 -9.5 L5.6 -9.05" fill="#432f01" fill-rule="evenodd" stroke="none"/>
      <path d="M5.6 -9.05 L5.7 -8.85 Q3.25 -7.95 1.05 -9.95 L1.05 -10.15 Q3.2 -8.25 5.6 -9.05" fill="#a97601" fill-rule="evenodd" stroke="none"/>
      <path d="M5.6 -9.05 Q3.2 -8.25 1.05 -10.15" fill="none" stroke="#332720" stroke-linecap="round" stroke-linejoin="round" stroke-opacity="0.3019608" stroke-width="0.05"/>
      <path d="M3.0 -10.6 L2.65 -9.95 Q2.4 -9.7 2.2 -9.8 L1.85 -10.2 1.85 -10.95 Q1.9 -11.35 2.1 -11.65 L2.55 -11.8 2.9 -11.4 3.0 -10.6" fill="#ffffff" fill-rule="evenodd" stroke="none"/>
    </g>
    <g id="sprite1" transform="matrix(1.0, 0.0, 0.0, 1.0, 1.7, 3.3)">
      <use height="3.55" transform="matrix(1.0, 0.0, 0.0, 1.0, -1.7, -3.3)" width="3.4" xlink:href="#shape2"/>
    </g>
    <g id="shape2" transform="matrix(1.0, 0.0, 0.0, 1.0, 1.7, 3.3)">
      <path d="M0.25 -2.65 L-0.65 -2.65 -1.15 -2.0 Q-1.2 -1.5 -0.9 -1.05 -0.65 -0.6 -0.2 -0.45 0.3 -0.25 0.7 -0.45 1.1 -0.6 1.2 -1.1 L1.0 -2.0 0.25 -2.65" fill="#b28d23" fill-rule="evenodd" stroke="none"/>
      <path d="M0.25 -2.95 L-0.85 -2.9 Q-1.35 -2.7 -1.45 -2.1 L-1.2 -1.0 -0.25 -0.2 Q0.35 0.0 0.85 -0.2 1.35 -0.45 1.45 -1.05 L1.2 -2.15 0.25 -2.95" fill="#7a5602" fill-rule="evenodd" stroke="none"/>
      <path d="M0.25 -2.95 L-0.85 -2.9 Q-1.35 -2.7 -1.45 -2.1 L-1.2 -1.0 -0.25 -0.2 Q0.35 0.0 0.85 -0.2 1.35 -0.45 1.45 -1.05 L1.2 -2.15 0.25 -2.95 Z" fill="none" stroke="#000000" stroke-linecap="round" stroke-linejoin="round" stroke-opacity="0.15294118" stroke-width="0.5"/>
      <path d="M1.2 -1.85 L0.35 -2.6 -0.8 -2.7 Q-1.25 -2.35 -1.3 -1.85 L-1.0 -0.85 -0.1 -0.1 0.9 -0.15 Q1.35 -0.35 1.4 -0.85 1.55 -1.35 1.2 -1.85" fill="#8c6202" fill-rule="evenodd" stroke="none"/>
      <path d="M1.2 -1.85 L0.35 -2.6 -0.8 -2.7 Q-1.25 -2.35 -1.3 -1.85 L-1.0 -0.85 -0.1 -0.1 0.9 -0.15 Q1.35 -0.35 1.4 -0.85 1.55 -1.35 1.2 -1.85 Z" fill="none" stroke="#000000" stroke-linecap="round" stroke-linejoin="round" stroke-opacity="0.15294118" stroke-width="0.5"/>
      <path d="M0.55 -2.6 L1.3 -1.9 Q1.6 -1.45 1.5 -1.05 L1.15 -0.55 0.6 -0.65 Q0.55 -0.15 0.1 -0.25 -0.4 -0.35 -0.7 -0.95 -1.0 -1.5 -0.9 -2.0 -0.85 -2.55 -0.45 -2.7 L0.55 -2.6" fill="#b28e23" fill-rule="evenodd" stroke="none"/>
      <path d="M-0.05 -1.65 L-0.4 -2.05 -0.45 -2.45 -0.1 -2.55 0.45 -2.4 0.8 -2.0 0.85 -1.65 Q0.75 -1.5 0.5 -1.5 0.2 -1.5 -0.05 -1.65" fill="#b2b2b2" fill-rule="evenodd" stroke="none"/>
    </g>
    <g id="sprite2" transform="matrix(1.0, 0.0, 0.0, 1.0, 1.8, 3.1)">
      <use height="3.35" transform="matrix(1.0, 0.0, 0.0, 1.0, -1.8, -3.1)" width="3.6" xlink:href="#shape3"/>
    </g>
    <g id="shape3" transform="matrix(1.0, 0.0, 0.0, 1.0, 1.8, 3.1)">
      <path d="M-0.15 -2.55 L-1.0 -2.35 -1.25 -1.6 -0.85 -0.7 Q-0.45 -0.35 0.1 -0.35 0.6 -0.3 0.9 -0.6 1.25 -0.85 1.2 -1.3 1.15 -1.8 0.75 -2.15 0.4 -2.55 -0.15 -2.55" fill="#99791e" fill-rule="evenodd" stroke="none"/>
      <path d="M-0.15 -2.85 Q-0.8 -2.9 -1.2 -2.55 L-1.55 -1.6 Q-1.5 -1.0 -1.0 -0.55 -0.5 -0.1 0.15 -0.05 0.8 0.0 1.2 -0.35 1.6 -0.7 1.55 -1.3 L1.0 -2.3 -0.15 -2.85" fill="#694901" fill-rule="evenodd" stroke="none"/>
      <path d="M-0.15 -2.85 Q-0.8 -2.9 -1.2 -2.55 L-1.55 -1.6 Q-1.5 -1.0 -1.0 -0.55 -0.5 -0.1 0.15 -0.05 0.8 0.0 1.2 -0.35 1.6 -0.7 1.55 -1.3 L1.0 -2.3 -0.15 -2.85 Z" fill="none" stroke="#000000" stroke-linecap="round" stroke-linejoin="round" stroke-opacity="0.15294118" stroke-width="0.5"/>
      <path d="M1.05 -2.1 L0.0 -2.55 -1.05 -2.35 Q-1.45 -1.95 -1.35 -1.4 -1.25 -0.9 -0.8 -0.55 -0.3 -0.1 0.25 0.0 0.8 0.0 1.2 -0.35 1.55 -0.65 1.5 -1.15 L1.05 -2.1" fill="#785401" fill-rule="evenodd" stroke="none"/>
      <path d="M1.05 -2.1 L0.0 -2.55 -1.05 -2.35 Q-1.45 -1.95 -1.35 -1.4 -1.25 -0.9 -0.8 -0.55 -0.3 -0.1 0.25 0.0 0.8 0.0 1.2 -0.35 1.55 -0.65 1.5 -1.15 L1.05 -2.1 Z" fill="none" stroke="#000000" stroke-linecap="round" stroke-linejoin="round" stroke-opacity="0.15294118" stroke-width="0.5"/>
      <path d="M1.15 -2.1 L1.55 -1.35 Q1.55 -0.9 1.35 -0.8 L0.75 -0.75 Q0.85 -0.25 0.45 -0.25 -0.05 -0.15 -0.55 -0.6 L-1.0 -1.6 Q-1.1 -2.15 -0.75 -2.4 L0.2 -2.6 1.15 -2.1" fill="#997a1e" fill-rule="evenodd" stroke="none"/>
      <path d="M-0.15 -1.55 L-0.6 -1.85 -0.75 -2.2 -0.4 -2.4 0.1 -2.4 0.6 -2.1 0.7 -1.8 0.4 -1.55 -0.15 -1.55" fill="#999999" fill-rule="evenodd" stroke="none"/>
    </g>
    <g id="shape4" transform="matrix(1.0, 0.0, 0.0, 1.0, 24.5, 43.0)">
      <path d="M8.35 -32.05 L11.35 -28.8 Q15.85 -23.45 16.7 -19.1 18.05 -15.35 18.1 -11.8 L19.95 -11.35 Q20.9 -11.05 22.05 -10.2 L22.35 -9.95 23.3 -8.95 23.35 -8.9 23.4 -8.8 23.45 -8.85 23.6 -8.55 24.2 -6.75 Q24.35 -5.35 23.8 -3.95 24.3 -3.3 24.25 -2.3 L24.25 -2.25 24.15 -1.7 24.05 -1.25 Q23.85 -0.85 23.45 -0.6 22.7 0.15 21.8 0.0 21.1 -0.15 20.55 -0.65 L19.45 -0.75 Q18.8 -0.95 18.25 -1.4 L17.8 -1.7 17.6 -1.9 Q16.2 -2.85 15.4 -4.1 L13.85 -3.4 13.65 -3.3 10.75 -3.6 9.55 -4.35 9.45 -4.45 10.0 -4.3 11.6 -4.15 Q9.35 -4.35 6.5 -5.45 3.6 -6.6 0.15 -8.65 -3.55 -10.85 -6.9 -13.45 -7.95 -13.4 -9.0 -14.05 -10.25 -14.8 -10.7 -16.05 L-10.9 -16.9 -14.2 -20.25 -15.25 -21.45 -16.4 -21.3 -17.95 -22.0 Q-18.95 -22.3 -19.75 -22.85 L-21.2 -25.9 -20.45 -26.15 -20.5 -26.3 -21.4 -28.75 -22.25 -28.55 -23.2 -29.2 -23.9 -30.95 -24.2 -33.6 Q-24.4 -35.55 -23.95 -36.5 L-23.8 -36.45 -24.05 -37.2 -24.1 -37.25 -24.05 -37.3 -23.55 -38.65 Q-21.15 -40.1 -18.8 -41.6 L-16.5 -42.75 -15.1 -42.5 -15.15 -42.45 -14.15 -42.65 Q-10.8 -43.05 -6.55 -41.55 L-6.2 -41.75 Q-5.25 -42.15 -4.1 -41.75 L-2.8 -40.95 -2.2 -40.2 -1.9 -39.5 -1.45 -39.25 Q1.45 -37.7 4.0 -35.75 L4.3 -35.85 Q5.45 -36.0 6.6 -35.25 7.7 -34.5 8.15 -33.25 L8.2 -33.1 8.35 -32.05 Z" fill="none" stroke="#000000" stroke-linecap="round" stroke-linejoin="round" stroke-opacity="0.15294118" stroke-width="0.5"/>
    </g>
  </defs>
</svg>
