<?xml version="1.0" encoding="UTF-8" standalone="no"?>
<svg xmlns:xlink="http://www.w3.org/1999/xlink" height="520.0px" width="520.0px" xmlns="http://www.w3.org/2000/svg">
  <g transform="matrix(10.0, 0.0, 0.0, 10.0, 0.0, 0.0)">
    <use height="52.0" transform="matrix(1.0, 0.0, 0.0, 1.0, 0.0, 0.0)" width="52.0" xlink:href="#shape0"/>
    <use height="33.9" transform="matrix(1.2197, 0.0, 0.0, 1.2197, 0.8, 6.6174)" width="40.3" xlink:href="#sprite0"/>
  </g>
  <defs>
    <g id="shape0" transform="matrix(1.0, 0.0, 0.0, 1.0, 0.0, 0.0)">
      <path d="M52.0 0.0 L52.0 52.0 0.0 52.0 0.0 0.0 52.0 0.0" fill="#33cc33" fill-opacity="0.0" fill-rule="evenodd" stroke="none"/>
    </g>
    <g id="sprite0" transform="matrix(1.0, 0.0, 0.0, 1.0, 0.0, 6.75)">
      <use height="19.35" transform="matrix(1.0, 0.0, 0.0, 1.0, 4.25, 0.0)" width="32.4" xlink:href="#sprite1"/>
      <use height="6.55" transform="matrix(1.0, 0.0, 0.0, 1.0, 26.65, 10.5)" width="5.0" xlink:href="#shape2"/>
      <use height="32.5" transform="matrix(0.7603, 0.2485, -0.1066, 0.3381, 3.45, 1.6)" width="32.5" xlink:href="#sprite2"/>
      <use height="11.5" transform="matrix(1.0, 0.0, 0.0, 1.0, 11.5, 7.65)" width="25.25" xlink:href="#sprite3"/>
      <use height="16.15" transform="matrix(1.0, 0.0, 0.0, 1.0, 19.1, 6.05)" width="16.7" xlink:href="#shape5"/>
      <use height="14.6" transform="matrix(1.0657, -1.1528, 0.6316, 0.7747, 17.3154, 8.1307)" width="12.9" xlink:href="#sprite4"/>
      <use height="1.3" transform="matrix(5.7736, -4.135, 2.8798, 3.5321, 24.2987, 6.8954)" width="1.3" xlink:href="#sprite5"/>
      <use height="14.6" transform="matrix(1.0657, -1.1528, 0.6316, 0.7747, 11.2654, 15.8307)" width="12.9" xlink:href="#sprite4"/>
      <use height="1.3" transform="matrix(5.7736, -4.135, 2.8798, 3.5321, 18.2487, 14.5954)" width="1.3" xlink:href="#sprite5"/>
    </g>
    <g id="sprite1" transform="matrix(1.0, 0.0, 0.0, 1.0, 0.0, 0.0)">
      <use height="19.35" transform="matrix(1.0, 0.0, 0.0, 1.0, 0.0, 0.0)" width="32.4" xlink:href="#shape1"/>
    </g>
    <g id="shape1" transform="matrix(1.0, 0.0, 0.0, 1.0, 0.0, 0.0)">
      <path d="M24.15 17.0 L24.05 17.05 24.05 16.9 24.15 17.0" fill="#493e0f" fill-rule="evenodd" stroke="none"/>
      <path d="M24.75 16.95 L24.55 16.95 24.7 16.85 24.75 16.95" fill="#240200" fill-rule="evenodd" stroke="none"/>
      <path d="M0.1 5.75 L0.7 6.45 Q2.05 7.75 4.0 8.5 L8.35 9.65 Q10.4 11.1 17.65 12.55 L13.2 12.15 Q17.35 14.9 23.05 14.95 23.25 15.8 24.05 16.9 L24.05 17.05 Q12.95 18.35 7.7 16.45 2.1 14.25 1.0 12.1 1.3 9.4 0.1 5.75" fill="#851300" fill-rule="evenodd" stroke="none"/>
      <path d="M1.8 14.85 Q0.9 13.85 0.9 12.85 L1.0 12.1 Q2.1 14.25 7.7 16.45 12.95 18.35 24.05 17.05 L24.15 17.0 24.65 17.7 Q23.95 18.5 23.05 18.3 15.95 19.1 12.25 18.45 6.2 17.6 3.15 15.4 L1.8 14.85 M23.05 14.95 Q17.35 14.9 13.2 12.15 L17.65 12.55 22.7 12.4 24.35 12.2 Q22.45 13.0 23.05 14.95" fill="#540000" fill-rule="evenodd" stroke="none"/>
      <path d="M1.8 14.85 L3.15 15.4 Q6.2 17.6 12.25 18.45 15.95 19.1 23.05 18.3 23.95 18.5 24.65 17.7 L24.8 18.15 24.7 18.7 Q13.2 20.15 7.85 18.25 3.45 16.5 1.8 14.85" fill="#400000" fill-rule="evenodd" stroke="none"/>
      <path d="M11.6 0.95 L14.9 1.05 Q25.1 2.65 29.3 6.0 31.3 8.3 27.0 9.15 L24.65 9.5 24.35 9.55 22.65 9.65 18.2 8.55 Q15.9 4.95 11.6 0.95 M26.0 10.35 L26.4 10.3 26.6 10.6 Q26.8 11.5 26.45 11.9 L24.7 12.55 Q23.35 13.05 23.7 14.9 L24.7 16.85 24.55 16.95 24.75 16.95 25.35 17.65 25.4 17.8 26.65 17.85 Q31.7 16.15 32.35 14.1 31.8 17.25 25.8 18.55 L25.2 18.65 24.7 18.7 24.8 18.15 24.65 17.7 24.15 17.0 24.05 16.9 Q23.25 15.8 23.05 14.95 22.45 13.0 24.35 12.2 L24.8 12.15 Q26.0 11.85 26.1 11.15 L26.0 10.35 M24.8 12.15 L26.45 11.9 24.8 12.15" fill="#330000" fill-rule="evenodd" stroke="none"/>
      <path d="M8.35 9.65 L8.3 9.6 8.5 9.65 Q19.8 12.1 26.0 10.35 L26.1 11.15 Q26.0 11.85 24.8 12.15 L24.35 12.2 22.7 12.4 17.65 12.55 Q10.4 11.1 8.35 9.65" fill="#6e0500" fill-rule="evenodd" stroke="none"/>
      <path d="M7.9 8.6 L7.05 8.4 Q2.3 7.2 1.5 5.5 0.85 3.85 4.4 2.45 6.3 1.65 8.35 1.3 7.65 4.3 8.75 7.9 L7.9 8.6 M18.2 8.55 L8.75 7.9 Q7.65 4.3 8.35 1.3 L11.6 0.95 Q15.9 4.95 18.2 8.55" fill="#260000" fill-rule="evenodd" stroke="none"/>
      <path d="M26.4 10.3 Q29.95 10.05 31.3 8.8 L31.45 8.6 31.9 7.5 32.35 7.95 32.35 8.65 32.25 11.25 32.25 11.9 Q32.1 15.4 25.65 16.75 L24.75 16.95 24.7 16.85 23.7 14.9 Q28.65 13.75 29.35 11.15 L26.45 11.9 Q26.8 11.5 26.6 10.6 L26.4 10.3 M30.35 10.6 L29.35 11.15 30.35 10.6" fill="#5e0000" fill-rule="evenodd" stroke="none"/>
      <path d="M32.25 11.9 L32.3 13.0 32.35 14.1 Q31.7 16.15 26.65 17.85 L25.4 17.8 25.35 17.65 24.75 16.95 25.65 16.75 Q32.1 15.4 32.25 11.9 M26.45 11.9 L29.35 11.15 Q28.65 13.75 23.7 14.9 23.35 13.05 24.7 12.55 L26.45 11.9" fill="#4f0000" fill-rule="evenodd" stroke="none"/>
      <path d="M29.3 6.0 Q25.1 2.65 14.9 1.05 L11.6 0.95 8.35 1.3 Q6.3 1.65 4.4 2.45 0.85 3.85 1.5 5.5 2.3 7.2 7.05 8.4 L7.9 8.6 15.95 9.6 19.25 9.7 22.65 9.65 24.35 9.55 24.65 9.5 27.0 9.15 Q31.3 8.3 29.3 6.0 M7.9 0.8 L8.35 1.3 7.9 0.8 8.2 0.35 15.05 0.15 19.75 0.95 Q26.05 2.2 28.95 4.3 L30.25 5.3 Q32.65 7.15 32.35 7.65 L32.35 7.95 31.9 7.5 31.45 8.6 31.3 8.8 Q29.95 10.05 26.4 10.3 L26.0 10.35 Q19.8 12.1 8.5 9.65 L8.3 9.6 8.35 9.65 4.0 8.5 Q2.05 7.75 0.7 6.45 L0.1 5.75 0.0 5.55 0.25 3.55 Q3.45 1.45 7.0 0.55 L7.9 0.8" fill="#ba4300" fill-rule="evenodd" stroke="none"/>
      <path d="M22.65 9.65 L19.25 9.7 15.95 9.6 7.9 8.6 M18.2 8.55 L8.75 7.9 7.9 8.6 M18.2 8.55 L22.65 9.65" fill="none" stroke="#000000" stroke-linecap="round" stroke-linejoin="round" stroke-opacity="0.3019608" stroke-width="1.0"/>
      <path d="M29.3 6.0 Q31.3 8.3 27.0 9.15 L24.65 9.5 24.35 9.55 22.65 9.65 M7.9 8.6 L7.05 8.4 Q2.3 7.2 1.5 5.5 0.85 3.85 4.4 2.45 6.3 1.65 8.35 1.3 7.65 4.3 8.75 7.9 M8.35 1.3 L11.6 0.95 M24.65 17.7 L24.15 17.0 M24.7 18.7 L24.8 18.15 24.65 17.7 M26.45 11.9 L29.35 11.15 30.35 10.6 M24.35 12.2 L24.8 12.15 M24.35 12.2 Q22.45 13.0 23.05 14.95 23.25 15.8 24.05 16.9 L24.15 17.0 M26.45 11.9 L24.8 12.15" fill="none" stroke="#000000" stroke-linecap="round" stroke-linejoin="round" stroke-opacity="0.3019608" stroke-width="0.7000000000000001"/>
      <path d="M8.35 1.3 L7.9 0.8 7.0 0.55 Q3.45 1.45 0.25 3.55 L0.0 5.55 0.1 5.75 M32.35 7.95 L32.35 7.65 Q32.65 7.15 30.25 5.3 L28.95 4.3 Q26.05 2.2 19.75 0.95 L15.05 0.15 8.2 0.35 7.9 0.8 M1.0 12.1 Q1.3 9.4 0.1 5.75 M1.0 12.1 L0.9 12.85 Q0.9 13.85 1.8 14.85 M24.7 18.7 Q13.2 20.15 7.85 18.25 3.45 16.5 1.8 14.85 M32.35 7.95 L32.35 8.65 32.25 11.25 M32.25 11.9 L32.3 13.0 32.35 14.1 Q31.8 17.25 25.8 18.55 L25.2 18.65 24.7 18.7" fill="none" stroke="#000000" stroke-linecap="round" stroke-linejoin="round" stroke-opacity="0.3019608" stroke-width="0.05"/>
      <path d="M8.35 9.65 L8.3 9.6 M17.65 12.55 Q10.4 11.1 8.35 9.65 M17.65 12.55 L22.7 12.4 24.35 12.2" fill="none" stroke="#000000" stroke-linecap="round" stroke-linejoin="round" stroke-opacity="0.2" stroke-width="0.05"/>
      <path d="M8.95 3.1 Q8.3 3.6 7.4 3.35 6.9 3.05 7.25 2.65 L8.75 2.4 Q9.4 2.55 8.95 3.1" fill="#c94f00" fill-rule="evenodd" stroke="none"/>
      <path d="M8.95 3.1 Q8.3 3.6 7.4 3.35 6.9 3.05 7.25 2.65 L8.75 2.4 Q9.4 2.55 8.95 3.1 Z" fill="none" stroke="#000000" stroke-linecap="round" stroke-linejoin="round" stroke-opacity="0.3019608" stroke-width="0.7000000000000001"/>
      <path d="M9.0 5.15 Q8.4 5.65 7.5 5.4 6.95 5.1 7.3 4.7 L8.8 4.45 Q9.45 4.6 9.0 5.15" fill="#862000" fill-rule="evenodd" stroke="none"/>
      <path d="M9.0 5.15 Q8.4 5.65 7.5 5.4 6.95 5.1 7.3 4.7 L8.8 4.45 Q9.45 4.6 9.0 5.15 Z" fill="none" stroke="#000000" stroke-linecap="round" stroke-linejoin="round" stroke-opacity="0.3019608" stroke-width="0.7000000000000001"/>
      <path d="M7.8 7.5 Q7.35 7.15 7.65 6.75 L9.1 6.5 Q9.75 6.65 9.35 7.2 8.7 7.7 7.8 7.5" fill="#862000" fill-rule="evenodd" stroke="none"/>
      <path d="M7.8 7.5 Q7.35 7.15 7.65 6.75 L9.1 6.5 Q9.75 6.65 9.35 7.2 8.7 7.7 7.8 7.5 Z" fill="none" stroke="#000000" stroke-linecap="round" stroke-linejoin="round" stroke-opacity="0.3019608" stroke-width="0.7000000000000001"/>
    </g>
    <g id="shape2" transform="matrix(1.0, 0.0, 0.0, 1.0, -26.65, -10.5)">
      <path d="M28.5 14.55 Q27.9 15.05 27.0 14.8 26.45 14.5 26.8 14.15 L28.25 13.85 Q28.95 14.0 28.5 14.55" fill="#ffcc33" fill-rule="evenodd" stroke="none"/>
      <path d="M28.5 14.55 Q27.9 15.05 27.0 14.8 26.45 14.5 26.8 14.15 L28.25 13.85 Q28.95 14.0 28.5 14.55 Z" fill="none" stroke="#000000" stroke-linecap="round" stroke-linejoin="round" stroke-opacity="0.3019608" stroke-width="0.05"/>
      <path d="M29.0 16.7 Q28.4 17.2 27.5 16.95 26.95 16.65 27.3 16.3 L28.75 16.0 Q29.45 16.15 29.0 16.7" fill="#ffcc33" fill-rule="evenodd" stroke="none"/>
      <path d="M29.0 16.7 Q28.4 17.2 27.5 16.95 26.95 16.65 27.3 16.3 L28.75 16.0 Q29.45 16.15 29.0 16.7 Z" fill="none" stroke="#000000" stroke-linecap="round" stroke-linejoin="round" stroke-opacity="0.3019608" stroke-width="0.05"/>
      <path d="M31.45 11.2 Q30.85 11.7 29.95 11.45 29.4 11.15 29.75 10.8 L31.2 10.5 Q31.9 10.65 31.45 11.2" fill="#ffcc33" fill-rule="evenodd" stroke="none"/>
      <path d="M31.45 11.2 Q30.85 11.7 29.95 11.45 29.4 11.15 29.75 10.8 L31.2 10.5 Q31.9 10.65 31.45 11.2 Z" fill="none" stroke="#000000" stroke-linecap="round" stroke-linejoin="round" stroke-opacity="0.3019608" stroke-width="0.05"/>
      <path d="M29.35 12.75 L27.8 12.95 Q27.3 12.8 27.6 12.55 L29.1 12.3 Q29.75 12.4 29.35 12.75" fill="#ffcc33" fill-rule="evenodd" stroke="none"/>
      <path d="M29.35 12.75 L27.8 12.95 Q27.3 12.8 27.6 12.55 L29.1 12.3 Q29.75 12.4 29.35 12.75 Z" fill="none" stroke="#000000" stroke-linecap="round" stroke-linejoin="round" stroke-opacity="0.3019608" stroke-width="0.05"/>
    </g>
    <g id="sprite2" transform="matrix(1.0, 0.0, 0.0, 1.0, 0.0, 0.0)">
      <use height="32.5" transform="matrix(1.0, 0.0, 0.0, 1.0, 0.0, 0.0)" width="32.5" xlink:href="#shape3"/>
    </g>
    <g id="shape3" transform="matrix(1.0, 0.0, 0.0, 1.0, 0.0, 0.0)">
      <path d="M4.75 27.75 Q0.0 23.0 0.0 16.25 0.0 9.5 4.75 4.75 9.5 0.0 16.25 0.0 23.0 0.0 27.75 4.75 32.5 9.5 32.5 16.25 32.5 23.0 27.75 27.75 23.0 32.5 16.25 32.5 9.5 32.5 4.75 27.75" fill="url(#gradient0)" fill-rule="evenodd" stroke="none"/>
    </g>
    <radialGradient cx="0" cy="0" gradientTransform="matrix(0.0203, 0.0, 0.0, 0.0203, 16.25, 16.25)" gradientUnits="userSpaceOnUse" id="gradient0" r="819.2" spreadMethod="pad">
      <stop offset="0.0" stop-color="#fbce6a"/>
      <stop offset="1.0" stop-color="#fbce6a" stop-opacity="0.0"/>
    </radialGradient>
    <g id="sprite3" transform="matrix(1.0, 0.0, 0.0, 1.0, 0.15, 2.75)">
      <use height="11.5" transform="matrix(1.0, 0.0, 0.0, 1.0, -0.15, -2.75)" width="25.25" xlink:href="#shape4"/>
    </g>
    <g id="shape4" transform="matrix(1.0, 0.0, 0.0, 1.0, 0.15, 2.75)">
      <path d="M0.2 0.0 Q2.55 1.3 11.25 2.45 L14.95 8.6 12.45 8.6 Q7.1 7.5 1.75 3.05 1.35 7.1 3.15 8.6 L0.55 7.9 Q-0.3 3.45 0.2 0.0 M21.65 7.0 L21.95 0.9 Q24.6 0.9 24.95 -2.6 L24.95 0.55 Q24.2 4.45 22.5 6.75 L21.65 7.0" fill="#e6b000" fill-rule="evenodd" stroke="none"/>
      <path d="M21.65 7.0 L22.5 6.75 Q24.2 4.45 24.95 0.55 L24.95 -2.6 Q24.6 0.9 21.95 0.9 L21.65 7.0 M0.2 0.0 Q-0.3 3.45 0.55 7.9 L3.15 8.6 Q1.35 7.1 1.75 3.05 7.1 7.5 12.45 8.6 L14.95 8.6 11.25 2.45 Q2.55 1.3 0.2 0.0" fill="none" stroke="#000000" stroke-linecap="round" stroke-linejoin="round" stroke-opacity="0.2" stroke-width="0.30000000000000004"/>
    </g>
    <g id="shape5" transform="matrix(1.0, 0.0, 0.0, 1.0, -19.1, -6.05)">
      <path d="M22.9 9.7 L25.75 9.7 27.2 18.65 24.45 19.25 19.1 15.3 22.9 9.7" fill="#000000" fill-opacity="0.3019608" fill-rule="evenodd" stroke="none"/>
      <path d="M29.0 6.2 L28.05 7.25 Q25.9 9.65 24.45 12.15 21.8 15.7 22.5 13.0 24.3 9.75 27.25 6.7 L29.0 6.2 M28.9 7.8 L29.15 7.5 Q33.4 10.1 34.55 13.15 32.75 17.1 30.55 20.0 L30.5 19.95 Q32.3 17.15 33.9 13.65 32.7 10.55 28.9 7.8" fill="#cc7d08" fill-rule="evenodd" stroke="none"/>
      <path d="M24.45 12.15 Q25.9 9.65 28.05 7.25 L29.0 6.2 Q34.2 9.4 35.65 13.15 33.4 18.05 30.7 21.6 L29.8 20.95 Q27.3 19.05 24.7 16.15 L24.5 15.9 23.25 14.45 24.45 12.15 M30.5 19.95 L30.55 20.0 Q32.75 17.1 34.55 13.15 33.4 10.1 29.15 7.5 L28.9 7.8 Q25.95 10.9 24.5 14.2 27.55 17.9 30.5 19.95" fill="#ffcc00" fill-rule="evenodd" stroke="none"/>
      <path d="M28.9 7.8 Q32.7 10.55 33.9 13.65 32.3 17.15 30.5 19.95 27.55 17.9 24.5 14.2 25.95 10.9 28.9 7.8" fill="#004459" fill-rule="evenodd" stroke="none"/>
      <path d="M24.45 12.15 L23.25 14.45 24.5 15.9 Q22.85 15.05 21.9 15.45 L21.5 14.95 22.5 13.0 Q21.8 15.7 24.45 12.15 M23.25 14.45 L21.5 14.95 23.25 14.45" fill="#ffd742" fill-rule="evenodd" stroke="none"/>
      <path d="M24.5 15.9 L24.7 16.15 Q27.3 19.05 29.8 20.95 L30.7 21.6 28.85 22.05 Q25.45 19.7 21.9 15.45 22.85 15.05 24.5 15.9" fill="url(#gradient1)" fill-rule="evenodd" stroke="none"/>
      <path d="M30.7 21.6 Q33.4 18.05 35.65 13.15 34.2 9.4 29.0 6.2 L27.25 6.7 Q24.3 9.75 22.5 13.0 M30.5 19.95 L30.55 20.0 Q32.75 17.1 34.55 13.15 33.4 10.1 29.15 7.5 L28.9 7.8 Q32.7 10.55 33.9 13.65 32.3 17.15 30.5 19.95 27.55 17.9 24.5 14.2 25.95 10.9 28.9 7.8 M21.9 15.45 L21.5 14.95 22.5 13.0 M30.7 21.6 L28.85 22.05 Q25.45 19.7 21.9 15.45" fill="none" stroke="#000000" stroke-linecap="round" stroke-linejoin="round" stroke-opacity="0.2" stroke-width="0.30000000000000004"/>
      <path d="M29.0 6.2 L28.05 7.25 Q25.9 9.65 24.45 12.15 L23.25 14.45 24.5 15.9 M24.7 16.15 Q27.3 19.05 29.8 20.95 L30.7 21.6 M21.5 14.95 L23.25 14.45" fill="none" stroke="#000000" stroke-linecap="round" stroke-linejoin="round" stroke-opacity="0.050980393" stroke-width="0.30000000000000004"/>
      <path d="M29.55 12.0 L27.45 14.05 29.95 15.1 30.05 16.75 25.5 13.9 29.05 9.1 29.55 12.0 M30.1 18.95 L27.3 16.3 30.05 17.05 30.1 18.95 M32.35 13.85 L31.1 12.4 Q31.5 13.95 31.35 15.65 L32.35 13.85 M30.65 18.45 Q30.95 13.9 30.0 9.75 31.65 10.9 33.25 13.65 31.95 16.7 30.65 18.45" fill="#ffcc00" fill-rule="evenodd" stroke="none"/>
    </g>
    <linearGradient gradientTransform="matrix(0.0029, 0.0023, -8.0E-4, 0.001, 27.05, 19.3)" gradientUnits="userSpaceOnUse" id="gradient1" spreadMethod="pad" x1="-819.2" x2="819.2">
      <stop offset="0.0" stop-color="#744704"/>
      <stop offset="1.0" stop-color="#3b2402"/>
    </linearGradient>
    <g id="sprite4" transform="matrix(1.0, 0.0, 0.0, 1.0, 6.45, 7.3)">
      <use height="1.3" transform="matrix(9.9174, 3.1483, 0.0, 0.7797, -6.4422, -2.3886)" width="1.3" xlink:href="#sprite5"/>
      <use height="1.3" transform="matrix(-1.6617, -10.2577, 0.5943, -0.973, 0.8675, 7.3101)" width="1.3" xlink:href="#sprite5"/>
    </g>
    <g id="sprite5" transform="matrix(1.0, 0.0, 0.0, 1.0, 0.7, 0.75)">
      <use height="2.3" transform="matrix(0.5652, 0.0, 0.0, 0.5652, -0.7, -0.75)" width="2.3" xlink:href="#sprite6"/>
    </g>
    <g id="sprite6" transform="matrix(1.0, 0.0, 0.0, 1.0, 1.15, 1.15)">
      <use height="2.3" transform="matrix(1.0, 0.0, 0.0, 1.0, -1.15, -1.15)" width="2.3" xlink:href="#shape6"/>
    </g>
    <g id="shape6" transform="matrix(1.0, 0.0, 0.0, 1.0, 1.15, 1.15)">
      <path d="M0.8 0.8 Q0.5 1.15 0.0 1.15 -0.5 1.15 -0.85 0.8 L-1.15 0.0 -0.85 -0.85 Q-0.5 -1.15 0.0 -1.15 L0.8 -0.85 1.15 0.0 Q1.15 0.5 0.8 0.8" fill="url(#gradient2)" fill-rule="evenodd" stroke="none"/>
    </g>
    <radialGradient cx="0" cy="0" gradientTransform="matrix(0.0018, 0.0, 0.0, 0.0018, 0.0, 0.0)" gradientUnits="userSpaceOnUse" id="gradient2" r="819.2" spreadMethod="pad">
      <stop offset="0.0" stop-color="#fee3bc"/>
      <stop offset="0.5372549019607843" stop-color="#ffe3bd" stop-opacity="0.0"/>
    </radialGradient>
  </defs>
</svg>
