<?xml version="1.0" encoding="UTF-8" standalone="no"?>
<svg xmlns:xlink="http://www.w3.org/1999/xlink" height="520.0px" width="520.0px" xmlns="http://www.w3.org/2000/svg">
  <g transform="matrix(10.0, 0.0, 0.0, 10.0, 0.0, 0.0)">
    <use height="52.0" transform="matrix(1.0, 0.0, 0.0, 1.0, 0.0, 0.0)" width="52.0" xlink:href="#shape0"/>
    <use height="14.1" transform="matrix(1.0, 0.0, 0.0, 1.0, 7.1, 34.5)" width="4.1" xlink:href="#sprite0"/>
    <use height="14.1" transform="matrix(1.0, 0.0, 0.0, 1.0, 8.35, 34.6)" width="9.3" xlink:href="#sprite1"/>
    <use height="11.7" transform="matrix(1.0, 0.0, 0.0, 1.0, 7.2, 25.15)" width="11.7" xlink:href="#sprite2"/>
    <use height="13.35" transform="matrix(1.0, 0.0, 0.0, 1.0, 11.2, 25.15)" width="11.3" xlink:href="#sprite4"/>
    <use height="22.35" transform="matrix(1.0, 0.0, 0.0, 1.0, 9.2, 18.5)" width="15.05" xlink:href="#shape5"/>
  </g>
  <defs>
    <g id="shape0" transform="matrix(1.0, 0.0, 0.0, 1.0, 0.0, 0.0)">
      <path d="M52.0 0.0 L52.0 52.0 0.0 52.0 0.0 0.0 52.0 0.0" fill="#33cc33" fill-opacity="0.0" fill-rule="evenodd" stroke="none"/>
      <path d="M31.55 4.55 Q29.0 6.05 29.0 8.5 28.9 10.3 33.15 13.45 L33.05 13.45 32.85 13.45 28.15 13.25 25.1 13.05 21.2 13.55 20.85 13.65 Q19.9 13.95 19.15 14.45 L18.45 13.85 18.4 13.85 17.4 13.65 16.85 13.8 15.05 15.65 15.0 15.75 15.1 17.55 15.25 17.85 15.2 18.25 Q15.2 19.2 15.8 20.5 L15.9 20.7 16.35 21.4 15.3 22.8 15.45 23.6 15.0 23.45 14.95 23.5 14.45 24.5 14.4 24.6 14.4 24.75 14.35 26.25 14.3 26.3 14.5 28.95 7.5 36.55 7.1 36.75 7.15 36.95 7.1 36.95 8.25 48.8 18.15 44.05 21.45 33.15 22.5 33.3 25.55 31.4 27.1 28.95 27.3 28.35 28.85 29.75 30.55 30.25 32.35 30.25 33.4 29.4 34.55 27.95 34.9 27.0 36.65 27.15 36.7 27.15 37.15 27.15 Q38.8 27.05 40.05 26.4 42.6 25.0 42.6 21.65 42.7 18.9 36.95 14.9 L36.1 14.3 36.05 14.3 36.05 14.25 40.65 13.45 Q48.0 11.65 47.9 7.95 47.95 6.0 45.05 4.4 42.35 2.95 38.95 2.95 34.15 2.95 31.55 4.55 M46.9 7.95 Q46.8 10.95 40.4 12.5 L34.75 13.4 34.7 13.4 Q30.1 10.1 30.0 8.5 30.0 6.55 32.05 5.4 34.45 3.95 38.95 3.95 42.05 3.95 44.6 5.3 46.85 6.5 46.9 7.95 M34.3 14.4 L34.45 14.4 35.55 15.15 36.25 15.65 Q41.5 19.3 41.6 21.65 41.6 24.4 39.55 25.5 L39.6 25.5 Q38.45 26.1 36.9 26.15 L36.75 26.15 35.1 26.05 35.15 25.4 33.9 23.3 33.4 22.7 32.25 22.25 31.85 22.5 31.8 22.15 31.1 22.05 31.05 22.0 30.95 22.0 30.05 22.25 30.05 22.2 27.85 23.05 27.05 24.2 27.05 24.25 27.0 24.15 25.25 21.75 Q23.6 20.4 21.5 19.75 L17.65 20.75 17.25 20.9 16.8 20.2 16.8 20.25 16.65 19.9 16.45 19.45 16.65 19.65 17.5 19.75 18.6 19.7 19.9 19.05 20.45 17.65 20.6 17.15 20.5 16.45 20.25 16.25 20.4 16.15 20.45 16.1 20.25 15.65 20.2 15.65 20.25 15.6 19.9 15.2 Q20.7 14.7 21.7 14.45 L25.1 14.05 28.05 14.25 32.85 14.45 34.3 14.4" fill="none" stroke="#3efdfd" stroke-linecap="round" stroke-linejoin="round" stroke-opacity="0.4509804" stroke-width="1.0"/>
      <path d="M31.95 26.75 L32.6 26.55 32.05 26.25 32.45 24.35 32.45 24.3 32.75 23.5 32.75 23.45 33.4 22.7 33.9 23.3 35.15 25.4 Q35.05 26.8 34.55 27.95 L33.4 29.4 31.5 28.2 31.95 26.75 M31.8 22.15 L31.85 22.5 30.95 22.8 31.8 22.15" fill="#232f33" fill-rule="evenodd" stroke="none"/>
      <path d="M32.75 23.45 L32.75 23.5 32.7 23.45 32.75 23.45" fill="#64564f" fill-rule="evenodd" stroke="none"/>
      <path d="M32.75 23.5 L32.45 24.3 32.45 24.35 32.1 23.6 32.7 23.45 32.75 23.5" fill="#6b808a" fill-rule="evenodd" stroke="none"/>
      <path d="M32.05 26.25 L31.55 26.55 31.95 26.75 31.5 28.2 30.95 29.0 30.9 29.05 30.85 29.05 Q29.05 28.85 27.2 28.1 L26.85 24.9 27.05 24.2 27.85 23.05 Q30.85 22.9 32.05 23.6 L32.1 23.6 32.45 24.35 32.05 26.25" fill="#364a4f" fill-rule="evenodd" stroke="none"/>
      <path d="M33.4 22.7 L32.75 23.45 32.7 23.45 32.1 23.6 32.05 23.6 Q30.85 22.9 27.85 23.05 L30.05 22.2 30.05 22.25 30.95 22.0 31.05 22.0 31.1 22.05 31.8 22.15 30.95 22.8 31.85 22.5 32.25 22.25 33.4 22.7" fill="#526e78" fill-rule="evenodd" stroke="none"/>
      <path d="M31.5 28.2 L33.4 29.4 32.35 30.25 31.55 29.6 30.95 29.0 31.5 28.2" fill="#1a2326" fill-rule="evenodd" stroke="none"/>
      <path d="M32.05 26.25 L32.6 26.55 31.95 26.75 31.55 26.55 32.05 26.25 M27.2 28.1 Q29.05 28.85 30.85 29.05 L30.9 29.05 30.95 29.0 31.55 29.6 32.35 30.25 30.55 30.25 28.85 29.75 27.25 28.3 27.2 28.1" fill="#0b1012" fill-rule="evenodd" stroke="none"/>
      <path d="M33.4 29.4 L34.55 27.95 Q35.05 26.8 35.15 25.4 L33.9 23.3 33.4 22.7 M32.35 30.25 L30.55 30.25 28.85 29.75 27.25 28.3 27.2 28.1 26.85 24.9 27.05 24.2 27.85 23.05 30.05 22.2 30.05 22.25 30.95 22.0 31.05 22.0 31.1 22.05 31.8 22.15 31.85 22.5 32.25 22.25 33.4 22.7 M31.55 29.6 L32.35 30.25 33.4 29.4 M31.85 22.5 L30.95 22.8" fill="none" stroke="#000000" stroke-linecap="round" stroke-linejoin="round" stroke-opacity="0.3019608" stroke-width="0.05"/>
      <path d="M29.35 26.05 L28.9 26.25 28.45 26.05 28.3 25.5 Q28.35 25.15 28.6 24.95 28.8 24.7 29.05 24.7 29.35 24.7 29.5 24.95 L29.6 25.5 29.35 26.05" fill="#1a2326" fill-rule="evenodd" stroke="none"/>
      <path d="M29.35 26.05 L28.9 26.25 28.45 26.05 28.3 25.5 Q28.35 25.15 28.6 24.95 28.8 24.7 29.05 24.7 29.35 24.7 29.5 24.95 L29.6 25.5 29.35 26.05 Z" fill="none" stroke="#000000" stroke-linecap="round" stroke-linejoin="round" stroke-opacity="0.3019608" stroke-width="0.05"/>
      <path d="M19.6 28.15 L19.6 28.2 22.6 29.9 21.7 31.15 18.15 31.0 17.4 30.7 16.65 30.0 19.6 28.2 19.5 28.0 19.6 28.15" fill="#232f33" fill-rule="evenodd" stroke="none"/>
      <path d="M19.5 28.0 L19.6 28.2 16.65 30.0 16.25 29.5 Q16.55 27.5 16.25 27.2 L16.65 26.65 17.05 26.0 17.2 25.75 17.35 25.55 17.7 25.05 19.5 28.0" fill="#0a0d0f" fill-rule="evenodd" stroke="none"/>
      <path d="M18.55 24.85 L19.6 28.15 19.5 28.0 17.7 25.05 17.7 25.0 18.55 24.85" fill="#1a2226" fill-rule="evenodd" stroke="none"/>
      <path d="M18.55 24.85 L19.8 25.35 20.55 25.7 20.9 25.85 21.0 25.9 21.95 26.45 22.25 26.65 23.05 27.35 23.05 27.4 23.25 28.1 23.35 28.4 23.45 28.6 22.6 29.9 19.6 28.2 19.6 28.15 18.55 24.85" fill="#1f2a2e" fill-rule="evenodd" stroke="none"/>
      <path d="M19.8 25.35 L18.55 24.85 17.7 25.0 17.7 25.05 17.35 25.55 M19.6 28.15 L19.6 28.2 M22.6 29.9 L23.45 28.6 23.35 28.4 M23.25 28.1 L23.05 27.4 23.05 27.35 22.25 26.65 21.95 26.45 M21.0 25.9 L20.9 25.85 20.55 25.7 M19.5 28.0 L19.6 28.2 M16.65 30.0 L17.4 30.7 18.15 31.0 21.7 31.15 22.6 29.9 M19.5 28.0 L19.6 28.15 M17.2 25.75 L17.05 26.0 M16.65 26.65 L16.25 27.2 Q16.55 27.5 16.25 29.5 L16.65 30.0" fill="none" stroke="#000000" stroke-linecap="round" stroke-linejoin="round" stroke-opacity="0.3019608" stroke-width="0.05"/>
      <path d="M23.35 28.4 L23.25 28.1 M21.95 26.45 L21.0 25.9 M20.55 25.7 L19.8 25.35 M17.35 25.55 L17.2 25.75 M17.05 26.0 L16.65 26.65" fill="none" stroke="#010101" stroke-linecap="round" stroke-linejoin="round" stroke-opacity="0.0" stroke-width="0.05"/>
      <path d="M26.35 24.55 L27.2 24.55 28.0 24.6 29.0 24.9 29.25 25.15 29.3 25.55 29.0 25.8 28.65 25.85 28.5 25.8 27.2 25.55 26.45 25.55 26.25 25.75 25.9 25.9 25.55 25.8 25.35 25.45 25.5 25.1 26.25 24.55 26.35 24.55" fill="#ade8e8" fill-rule="evenodd" stroke="none"/>
      <path d="M26.35 24.55 L26.25 24.55 25.5 25.1 25.35 25.45 25.55 25.8 25.9 25.9 26.25 25.75 26.45 25.55 27.2 25.55 28.5 25.8 28.65 25.85 29.0 25.8 29.3 25.55 29.25 25.15 29.0 24.9 28.0 24.6 27.2 24.55 26.35 24.55 Z" fill="none" stroke="#000000" stroke-linecap="round" stroke-linejoin="round" stroke-opacity="0.3019608" stroke-width="0.05"/>
      <path d="M34.2 25.65 Q34.4 25.6 34.55 25.8 L34.65 26.3 34.55 26.95 34.2 27.2 33.9 27.05 Q33.75 26.85 33.75 26.5 L33.9 25.9 34.2 25.65" fill="#0a0d0f" fill-rule="evenodd" stroke="none"/>
      <path d="M34.2 25.65 Q34.4 25.6 34.55 25.8 L34.65 26.3 34.55 26.95 34.2 27.2 33.9 27.05 Q33.75 26.85 33.75 26.5 L33.9 25.9 34.2 25.65 Z" fill="none" stroke="#000000" stroke-linecap="round" stroke-linejoin="round" stroke-opacity="0.3019608" stroke-width="0.05"/>
      <path d="M33.15 13.45 Q28.9 10.3 29.0 8.5 29.0 6.05 31.55 4.55 34.15 2.95 38.95 2.95 42.35 2.95 45.05 4.4 47.95 6.0 47.9 7.95 48.0 11.65 40.65 13.45 L36.05 14.25 36.05 14.3 34.3 14.4 32.85 14.45 28.05 14.25 25.1 14.05 21.7 14.45 21.7 13.85 Q21.7 13.45 21.2 13.55 L25.1 13.05 28.15 13.25 32.85 13.45 33.05 13.45 33.15 13.45 34.7 13.4 34.75 13.4 40.4 12.5 Q46.8 10.95 46.9 7.95 46.85 6.5 44.6 5.3 42.05 3.95 38.95 3.95 34.45 3.95 32.05 5.4 30.0 6.55 30.0 8.5 30.1 10.1 34.7 13.4 L33.15 13.45 M36.95 14.9 Q42.7 18.9 42.6 21.65 42.6 25.0 40.05 26.4 38.8 27.05 37.15 27.15 L36.9 26.2 36.9 26.15 Q38.45 26.1 39.6 25.5 L39.55 25.5 Q41.6 24.4 41.6 21.65 41.5 19.3 36.25 15.65 L36.65 15.1 Q36.8 14.95 36.95 14.9" fill="#e4ffff" fill-rule="evenodd" stroke="none"/>
      <path d="M21.2 13.55 Q21.7 13.45 21.7 13.85 L21.7 14.45 Q20.2 14.85 19.1 15.65 L18.75 15.75 18.4 15.55 18.3 15.2 18.5 14.85 Q19.5 14.1 20.85 13.65 L21.2 13.55 M34.3 14.4 L36.05 14.3 36.1 14.3 36.95 14.9 Q36.8 14.95 36.65 15.1 L36.25 15.65 35.55 15.15 34.45 14.4 34.3 14.4 M37.15 27.15 L36.7 27.15 36.65 27.15 34.35 26.95 Q34.15 26.95 34.05 26.8 L33.9 26.4 34.1 26.1 34.45 25.95 36.7 26.15 36.75 26.15 36.9 26.15 36.9 26.2 37.15 27.15" fill="#ade8e8" fill-rule="evenodd" stroke="none"/>
      <path d="M36.05 14.3 L36.05 14.25 40.65 13.45 Q48.0 11.65 47.9 7.95 47.95 6.0 45.05 4.4 42.35 2.95 38.95 2.95 34.15 2.95 31.55 4.55 29.0 6.05 29.0 8.5 28.9 10.3 33.15 13.45 L34.7 13.4 Q30.1 10.1 30.0 8.5 30.0 6.55 32.05 5.4 34.45 3.95 38.95 3.95 42.05 3.95 44.6 5.3 46.85 6.5 46.9 7.95 46.8 10.95 40.4 12.5 L34.75 13.4 34.7 13.4 M33.15 13.45 L33.05 13.45 32.85 13.45 28.15 13.25 25.1 13.05 21.2 13.55 20.85 13.65 Q19.5 14.1 18.5 14.85 L18.3 15.2 18.4 15.55 18.75 15.75 19.1 15.65 Q20.2 14.85 21.7 14.45 L25.1 14.05 28.05 14.25 32.85 14.45 34.3 14.4 36.05 14.3 36.1 14.3 36.95 14.9 Q42.7 18.9 42.6 21.65 42.6 25.0 40.05 26.4 38.8 27.05 37.15 27.15 L36.7 27.15 36.65 27.15 34.35 26.95 Q34.15 26.95 34.05 26.8 L33.9 26.4 34.1 26.1 34.45 25.95 36.7 26.15 36.75 26.15 36.9 26.15 Q38.45 26.1 39.6 25.5 L39.55 25.5 Q41.6 24.4 41.6 21.65 41.5 19.3 36.25 15.65 L35.55 15.15 34.45 14.4 34.3 14.4" fill="none" stroke="#000000" stroke-linecap="round" stroke-linejoin="round" stroke-opacity="0.3019608" stroke-width="0.05"/>
      <path d="M20.45 16.1 L20.4 16.15 20.25 16.25 19.85 15.85 20.45 16.1 M20.6 17.15 L20.45 17.65 19.9 19.05 18.6 19.7 17.5 19.75 17.3 18.3 18.2 18.05 18.55 18.25 18.55 17.85 19.6 17.35 19.65 17.35 20.1 17.15 20.6 17.15" fill="#232f33" fill-rule="evenodd" stroke="none"/>
      <path d="M19.6 17.35 L19.85 16.85 20.05 17.15 20.1 17.15 19.65 17.35 19.6 17.35" fill="#6b808a" fill-rule="evenodd" stroke="none"/>
      <path d="M15.05 15.65 L16.85 13.8 17.4 13.65 18.4 13.85 18.45 13.85 Q19.75 15.8 19.85 16.8 L19.85 16.85 19.6 17.35 18.55 17.85 18.2 17.75 18.2 18.05 17.3 18.3 16.6 18.45 16.55 18.4 Q15.65 17.2 15.05 15.65" fill="#364a4f" fill-rule="evenodd" stroke="none"/>
      <path d="M18.45 13.85 L19.8 15.1 20.25 15.6 20.2 15.65 20.25 15.65 20.45 16.1 19.85 15.85 20.25 16.25 20.5 16.45 20.6 17.15 20.1 17.15 20.05 17.15 19.85 16.85 19.85 16.8 Q19.75 15.8 18.45 13.85" fill="#526e78" fill-rule="evenodd" stroke="none"/>
      <path d="M17.5 19.75 L16.65 19.65 16.6 19.0 16.6 18.45 17.3 18.3 17.5 19.75" fill="#1a2326" fill-rule="evenodd" stroke="none"/>
      <path d="M16.65 19.65 L15.75 18.75 15.1 17.55 15.0 15.75 15.05 15.65 Q15.65 17.2 16.55 18.4 L16.6 18.45 16.6 19.0 16.65 19.65 M18.2 18.05 L18.2 17.75 18.55 17.85 18.55 18.25 18.2 18.05" fill="#0b1012" fill-rule="evenodd" stroke="none"/>
      <path d="M15.05 15.65 L16.85 13.8 17.4 13.65 18.4 13.85 18.45 13.85 19.8 15.1 20.25 15.6 20.2 15.65 20.25 15.65 20.45 16.1 20.4 16.15 20.25 16.25 20.5 16.45 20.6 17.15 20.45 17.65 19.9 19.05 18.6 19.7 17.5 19.75 16.65 19.65 15.75 18.75 15.1 17.55 15.0 15.75 15.05 15.65 M20.25 16.25 L19.85 15.85 M16.6 19.0 L16.65 19.65" fill="none" stroke="#000000" stroke-linecap="round" stroke-linejoin="round" stroke-opacity="0.3019608" stroke-width="0.05"/>
      <path d="M17.9 16.4 L17.35 16.55 Q17.05 16.55 16.9 16.3 L16.75 15.85 Q16.75 15.55 17.0 15.35 17.2 15.2 17.5 15.2 17.8 15.25 18.0 15.45 L18.15 15.95 17.9 16.4" fill="#1a2326" fill-rule="evenodd" stroke="none"/>
      <path d="M17.9 16.4 L17.35 16.55 Q17.05 16.55 16.9 16.3 L16.75 15.85 Q16.75 15.55 17.0 15.35 17.2 15.2 17.5 15.2 17.8 15.25 18.0 15.45 L18.15 15.95 17.9 16.4 Z" fill="none" stroke="#000000" stroke-linecap="round" stroke-linejoin="round" stroke-opacity="0.3019608" stroke-width="0.05"/>
      <path d="M15.8 20.5 L16.1 20.1 16.65 19.9 16.8 20.25 16.8 20.2 Q17.45 21.45 18.35 21.7 L18.65 21.9 18.7 22.3 18.45 22.6 18.1 22.65 Q16.85 22.35 15.9 20.7 L15.8 20.5" fill="#ade8e8" fill-rule="evenodd" stroke="none"/>
      <path d="M15.8 20.5 Q15.2 19.2 15.2 18.25 15.2 17.5 15.9 16.5 16.65 15.45 17.2 15.4 L17.55 15.45 17.8 15.75 17.75 16.1 17.45 16.35 Q17.15 16.45 16.7 17.1 16.2 17.8 16.2 18.25 16.2 19.0 16.65 19.9 L16.1 20.1 15.8 20.5" fill="#e4ffff" fill-rule="evenodd" stroke="none"/>
      <path d="M16.65 19.9 Q16.2 19.0 16.2 18.25 16.2 17.8 16.7 17.1 17.15 16.45 17.45 16.35 L17.75 16.1 17.8 15.75 17.55 15.45 17.2 15.4 Q16.65 15.45 15.9 16.5 15.2 17.5 15.2 18.25 15.2 19.2 15.8 20.5 M16.65 19.9 L16.8 20.25 16.8 20.2 Q17.45 21.45 18.35 21.7 L18.65 21.9 18.7 22.3 18.45 22.6 18.1 22.65 Q16.85 22.35 15.9 20.7 L15.8 20.5" fill="none" stroke="#000000" stroke-linecap="round" stroke-linejoin="round" stroke-opacity="0.3019608" stroke-width="0.05"/>
      <path d="M18.65 23.4 L18.6 23.4 17.5 22.6 17.45 22.6 16.45 21.25 17.65 20.75 21.5 19.75 Q23.6 20.4 25.25 21.75 L27.0 24.15 24.25 26.65 Q23.4 26.0 22.2 25.3 L22.2 24.15 21.45 24.9 18.65 23.4 M14.95 23.5 L15.0 23.45 15.45 23.6 15.6 25.1 14.95 23.5" fill="#232f33" fill-rule="evenodd" stroke="none"/>
      <path d="M17.5 22.6 L17.45 22.6 17.5 22.6" fill="#64564f" fill-rule="evenodd" stroke="none"/>
      <path d="M17.5 22.6 L18.6 23.4 18.65 23.4 17.35 23.65 17.45 22.6 17.5 22.6" fill="#6b808a" fill-rule="evenodd" stroke="none"/>
      <path d="M17.35 23.65 L18.65 23.4 21.45 24.9 21.7 25.8 22.2 25.3 Q23.4 26.0 24.25 26.65 L25.35 27.8 25.35 27.85 25.35 27.95 Q24.2 30.75 22.25 33.25 L17.1 32.45 16.05 31.85 14.65 30.05 Q15.75 25.3 17.3 23.7 L17.35 23.65" fill="#364a4f" fill-rule="evenodd" stroke="none"/>
      <path d="M17.45 22.6 L17.35 23.65 17.3 23.7 Q15.75 25.3 14.65 30.05 L14.3 26.3 14.35 26.25 14.4 24.75 14.4 24.6 14.45 24.5 14.95 23.5 15.6 25.1 15.45 23.6 15.3 22.8 16.45 21.25 17.45 22.6" fill="#526e78" fill-rule="evenodd" stroke="none"/>
      <path d="M24.25 26.65 L27.0 24.15 27.85 26.15 26.55 27.05 25.35 27.8 24.25 26.65" fill="#1a2326" fill-rule="evenodd" stroke="none"/>
      <path d="M21.45 24.9 L22.2 24.15 22.2 25.3 21.7 25.8 21.45 24.9 M22.25 33.25 Q24.2 30.75 25.35 27.95 L25.35 27.85 25.35 27.8 26.55 27.05 27.85 26.15 27.1 28.95 25.55 31.4 22.5 33.3 22.25 33.25" fill="#0b1012" fill-rule="evenodd" stroke="none"/>
      <path d="M27.0 24.15 L25.25 21.75 Q23.6 20.4 21.5 19.75 L17.65 20.75 16.45 21.25 M26.55 27.05 L27.85 26.15 27.0 24.15 M27.85 26.15 L27.1 28.95 25.55 31.4 22.5 33.3 22.25 33.25 17.1 32.45 16.05 31.85 14.65 30.05 14.3 26.3 14.35 26.25 14.4 24.75 14.4 24.6 14.45 24.5 14.95 23.5 15.0 23.45 15.45 23.6 15.3 22.8 16.45 21.25 M15.45 23.6 L15.6 25.1" fill="none" stroke="#000000" stroke-linecap="round" stroke-linejoin="round" stroke-opacity="0.3019608" stroke-width="0.05"/>
      <path d="M11.2 34.7 L17.55 38.6 8.25 48.8 11.2 34.7" fill="#c1e3df" fill-rule="evenodd" stroke="none"/>
      <path d="M18.8 25.25 L22.5 27.3 17.55 38.6 11.2 34.7 18.8 25.25" fill="#80c9c1" fill-rule="evenodd" stroke="none"/>
      <path d="M22.5 27.3 L22.75 28.8 18.15 44.05 17.55 38.6 22.5 27.3" fill="#64b0a7" fill-rule="evenodd" stroke="none"/>
      <path d="M7.1 36.95 L16.9 26.35 18.8 25.25 11.2 34.7 7.1 36.95 M18.15 44.05 L8.25 48.8 17.55 38.6 18.15 44.05" fill="#a8ded7" fill-rule="evenodd" stroke="none"/>
      <path d="M8.25 48.8 L7.1 36.95 11.2 34.7 8.25 48.8" fill="#e1f2f0" fill-rule="evenodd" stroke="none"/>
      <path d="M7.1 36.95 L16.9 26.35 18.8 25.25 22.5 27.3 22.75 28.8 18.15 44.05 8.25 48.8 7.1 36.95 11.2 34.7 18.8 25.25 M11.2 34.7 L17.55 38.6 22.5 27.3 M8.25 48.8 L11.2 34.7 M17.55 38.6 L8.25 48.8 M18.15 44.05 L17.55 38.6" fill="none" stroke="#ffffff" stroke-linecap="round" stroke-linejoin="round" stroke-opacity="0.4509804" stroke-width="0.05"/>
    </g>
    <g id="sprite0" transform="matrix(1.0, 0.0, 0.0, 1.0, 2.05, 7.05)">
      <use height="14.1" transform="matrix(1.0, 0.0, 0.0, 1.0, -2.05, -7.05)" width="4.1" xlink:href="#shape1"/>
    </g>
    <g id="shape1" transform="matrix(1.0, 0.0, 0.0, 1.0, 2.05, 7.05)">
      <path d="M2.05 -7.05 L-0.9 7.05 -2.05 -4.8 2.05 -7.05" fill="url(#gradient0)" fill-rule="evenodd" stroke="none"/>
    </g>
    <radialGradient cx="0" cy="0" gradientTransform="matrix(0.009, 0.0, 0.0, 0.009, 0.0, 0.0)" gradientUnits="userSpaceOnUse" id="gradient0" r="819.2" spreadMethod="pad">
      <stop offset="0.0" stop-color="#ffffff" stop-opacity="0.78039217"/>
      <stop offset="0.9882352941176471" stop-color="#ffffff" stop-opacity="0.0"/>
    </radialGradient>
    <g id="sprite1" transform="matrix(1.0, 0.0, 0.0, 1.0, 4.65, 7.05)">
      <use height="14.1" transform="matrix(1.0, 0.0, 0.0, 1.0, -4.65, -7.05)" width="9.3" xlink:href="#shape2"/>
    </g>
    <g id="shape2" transform="matrix(1.0, 0.0, 0.0, 1.0, 4.65, 7.05)">
      <path d="M4.65 -3.15 L-4.65 7.05 -1.7 -7.05 4.65 -3.15" fill="url(#gradient1)" fill-rule="evenodd" stroke="none"/>
    </g>
    <radialGradient cx="0" cy="0" gradientTransform="matrix(0.0057, 0.0, 0.0, 0.0057, -3.4, -1.3)" gradientUnits="userSpaceOnUse" id="gradient1" r="819.2" spreadMethod="pad">
      <stop offset="0.0" stop-color="#ffffff" stop-opacity="0.78039217"/>
      <stop offset="0.9882352941176471" stop-color="#ffffff" stop-opacity="0.0"/>
    </radialGradient>
    <g id="sprite2" transform="matrix(1.0, 0.0, 0.0, 1.0, 1.25, 2.35)">
      <use height="11.7" transform="matrix(1.0, 0.0, 0.0, 1.0, -1.25, -2.35)" width="11.7" xlink:href="#sprite3"/>
    </g>
    <g id="sprite3" transform="matrix(1.0, 0.0, 0.0, 1.0, 5.85, 5.85)">
      <use height="11.7" transform="matrix(1.0, 0.0, 0.0, 1.0, -5.85, -5.85)" width="11.7" xlink:href="#shape3"/>
    </g>
    <g id="shape3" transform="matrix(1.0, 0.0, 0.0, 1.0, 5.85, 5.85)">
      <path d="M5.85 -5.85 L-1.75 3.6 -5.85 5.85 3.95 -4.75 5.85 -5.85" fill="url(#gradient2)" fill-rule="evenodd" stroke="none"/>
    </g>
    <radialGradient cx="0" cy="0" gradientTransform="matrix(0.0101, 0.0, 0.0, 0.0101, 0.0, 0.0)" gradientUnits="userSpaceOnUse" id="gradient2" r="819.2" spreadMethod="pad">
      <stop offset="0.0" stop-color="#ffffff" stop-opacity="0.78039217"/>
      <stop offset="0.9882352941176471" stop-color="#ffffff" stop-opacity="0.0"/>
    </radialGradient>
    <g id="sprite4" transform="matrix(1.0, 0.0, 0.0, 1.0, 5.65, 6.65)">
      <use height="13.35" transform="matrix(1.0, 0.0, 0.0, 1.0, -5.65, -6.65)" width="11.3" xlink:href="#shape4"/>
    </g>
    <g id="shape4" transform="matrix(1.0, 0.0, 0.0, 1.0, 5.65, 6.65)">
      <path d="M1.95 -6.65 L5.65 -4.6 0.7 6.7 -5.65 2.8 1.95 -6.65" fill="url(#gradient3)" fill-rule="evenodd" stroke="none"/>
    </g>
    <radialGradient cx="0" cy="0" gradientTransform="matrix(0.0089, 0.0, 0.0, 0.0089, -1.1, -1.7)" gradientUnits="userSpaceOnUse" id="gradient3" r="819.2" spreadMethod="pad">
      <stop offset="0.0" stop-color="#ffffff" stop-opacity="0.78039217"/>
      <stop offset="0.9882352941176471" stop-color="#ffffff" stop-opacity="0.0"/>
    </radialGradient>
    <g id="shape5" transform="matrix(1.0, 0.0, 0.0, 1.0, -9.2, -18.5)">
      <path d="M18.35 22.15 L24.25 20.25 18.6 22.85 19.5 25.4 18.2 23.15 16.4 23.35 17.8 22.45 16.2 18.5 18.35 22.15" fill="#fcf3d8" fill-opacity="0.7921569" fill-rule="evenodd" stroke="none"/>
      <path d="M19.75 22.6 Q20.0 23.15 21.15 23.4 20.15 23.25 19.55 23.7 L19.0 24.35 Q18.45 24.75 17.8 24.55 17.1 24.4 16.8 23.8 L15.65 24.4 16.6 23.35 Q16.45 22.95 16.55 22.4 16.65 21.9 16.9 21.6 L16.7 20.9 17.3 21.25 17.35 21.2 Q17.85 20.85 18.5 21.0 L19.5 21.8 19.75 22.6 M17.25 22.5 L17.35 23.15 17.9 23.55 18.5 23.5 18.85 22.9 18.8 22.2 Q18.55 21.85 18.25 21.8 17.95 21.7 17.65 21.95 L17.25 22.5" fill="#fcf3d8" fill-opacity="0.3019608" fill-rule="evenodd" stroke="none"/>
      <path d="M17.25 22.5 L17.65 21.95 Q17.95 21.7 18.25 21.8 18.55 21.85 18.8 22.2 L18.85 22.9 18.5 23.5 17.9 23.55 17.35 23.15 17.25 22.5" fill="#fcf3d8" fill-opacity="0.84313726" fill-rule="evenodd" stroke="none"/>
      <path d="M12.55 35.1 L13.8 40.85 11.85 35.5 9.2 36.9 11.6 35.2 11.6 33.35 12.35 34.6 16.4 32.3 12.55 35.1" fill="#fcf3d8" fill-opacity="0.7921569" fill-rule="evenodd" stroke="none"/>
      <path d="M11.95 36.7 Q11.4 37.0 11.05 38.2 11.25 37.15 10.9 36.6 L10.3 36.2 Q10.0 35.65 10.2 34.95 10.45 34.25 11.05 33.8 L10.65 32.75 11.55 33.55 12.5 33.35 13.3 33.55 13.95 33.2 13.55 33.9 13.6 33.9 Q13.85 34.45 13.7 35.1 L12.75 36.25 11.95 36.7 M12.35 34.1 L11.65 34.35 11.15 34.9 11.25 35.5 11.75 35.8 12.5 35.55 12.95 34.95 12.85 34.35 Q12.7 34.1 12.35 34.1" fill="#fcf3d8" fill-opacity="0.3019608" fill-rule="evenodd" stroke="none"/>
      <path d="M12.35 34.1 Q12.7 34.1 12.85 34.35 L12.95 34.95 12.5 35.55 11.75 35.8 11.25 35.5 11.15 34.9 11.65 34.35 12.35 34.1" fill="#fcf3d8" fill-opacity="0.84313726" fill-rule="evenodd" stroke="none"/>
    </g>
  </defs>
</svg>
