<?xml version="1.0" encoding="UTF-8" standalone="no"?>
<svg xmlns:xlink="http://www.w3.org/1999/xlink" height="520.0px" width="520.0px" xmlns="http://www.w3.org/2000/svg">
  <g transform="matrix(10.0, 0.0, 0.0, 10.0, 0.0, 0.0)">
    <use height="52.0" transform="matrix(1.0, 0.0, 0.0, 1.0, 0.0, 0.0)" width="52.0" xlink:href="#sprite0"/>
  </g>
  <defs>
    <g id="sprite0" transform="matrix(1.0, 0.0, 0.0, 1.0, 0.0, 0.0)">
      <use height="52.0" transform="matrix(1.0, 0.0, 0.0, 1.0, 0.0, 0.0)" width="52.0" xlink:href="#sprite1"/>
      <use height="30.5" transform="matrix(1.0, 0.0, 0.0, 1.0, 1.8, 18.7)" width="33.1" xlink:href="#shape1"/>
      <use height="37.0" transform="matrix(0.4014, 0.0, 0.0, 0.4014, 3.9, 22.95)" width="37.0" xlink:href="#sprite2"/>
      <use height="48.5" transform="matrix(1.0, 0.0, 0.0, 1.0, 1.3, 1.2)" width="49.55" xlink:href="#shape3"/>
    </g>
    <g id="sprite1" transform="matrix(1.0, 0.0, 0.0, 1.0, 0.0, 0.0)">
      <use height="52.0" transform="matrix(1.0, 0.0, 0.0, 1.0, 0.0, 0.0)" width="52.0" xlink:href="#shape0"/>
    </g>
    <g id="shape0" transform="matrix(1.0, 0.0, 0.0, 1.0, 0.0, 0.0)">
      <path d="M0.0 0.0 L52.0 0.0 52.0 52.0 0.0 52.0 0.0 0.0" fill="#ffba2e" fill-opacity="0.0" fill-rule="evenodd" stroke="none"/>
    </g>
    <g id="shape1" transform="matrix(1.0, 0.0, 0.0, 1.0, -1.8, -18.7)">
      <path d="M10.25 21.85 Q14.45 18.75 20.4 18.7 27.25 18.75 31.75 22.95 35.4 26.4 34.8 31.75 L34.7 32.7 34.65 32.9 34.5 33.55 33.2 35.55 Q32.0 37.1 29.55 37.7 L28.15 37.5 Q26.95 37.25 26.2 35.75 L26.05 35.4 25.55 31.15 Q21.95 21.05 15.05 20.6 12.5 20.8 10.25 21.85 M18.8 19.1 Q17.25 19.2 16.0 19.95 17.55 19.8 22.65 22.35 27.7 25.1 28.1 32.85 30.15 36.3 33.3 32.15 32.95 27.35 30.15 23.9 26.75 19.3 21.35 19.05 L18.8 19.1 M25.55 38.0 L25.6 38.0 25.65 38.0 25.55 38.0 M31.6 34.7 L31.55 34.6 31.55 34.7 31.6 34.7" fill="#974d02" fill-rule="evenodd" stroke="none"/>
      <path d="M18.8 19.1 L21.35 19.05 Q26.75 19.3 30.15 23.9 32.95 27.35 33.3 32.15 30.15 36.3 28.1 32.85 27.7 25.1 22.65 22.35 17.55 19.8 16.0 19.95 17.25 19.2 18.8 19.1 M30.0 31.3 L31.1 30.25 Q28.75 18.3 18.4 20.0 25.25 19.75 30.0 31.3" fill="#f27b04" fill-rule="evenodd" stroke="none"/>
      <path d="M30.0 31.3 Q25.25 19.75 18.4 20.0 28.75 18.3 31.1 30.25 L30.0 31.3" fill="#fee9d6" fill-rule="evenodd" stroke="none"/>
      <path d="M4.95 38.15 Q4.4 35.7 4.55 32.95 4.8 28.65 7.0 25.45 L7.05 26.05 Q4.95 29.15 4.7 33.65 4.55 36.0 4.95 38.15" fill="#291501" fill-rule="evenodd" stroke="none"/>
      <path d="M31.6 34.7 L31.55 34.7 31.55 34.6 31.6 34.7" fill="#633201" fill-rule="evenodd" stroke="none"/>
      <path d="M7.0 25.45 L7.5 24.75 Q8.25 23.65 9.15 22.7 L10.25 21.85 Q12.5 20.8 15.05 20.6 21.95 21.05 25.55 31.15 L26.05 35.4 26.2 35.75 Q26.95 37.25 28.15 37.5 L29.55 37.7 Q32.0 37.1 33.2 35.55 L34.5 33.55 34.25 34.5 Q32.95 39.25 30.55 42.55 L27.55 44.6 Q25.65 45.65 23.05 45.65 21.25 45.65 19.9 45.05 L18.9 44.4 19.35 43.9 19.95 43.2 Q22.2 40.15 22.6 35.95 L22.65 35.35 22.65 35.3 22.7 35.0 Q22.8 30.1 20.4 26.35 L19.35 24.9 Q17.25 22.4 14.4 22.1 10.85 21.8 8.0 24.8 L7.7 25.1 7.05 26.05 7.0 25.45 M25.55 38.0 L25.65 38.0 25.6 38.0 25.55 38.0" fill="#733a02" fill-rule="evenodd" stroke="none"/>
      <path d="M30.55 42.55 Q29.3 44.25 27.7 45.55 L27.65 45.65 Q23.5 49.7 17.7 49.15 13.9 48.7 10.7 46.35 L12.95 46.9 Q16.25 47.2 18.9 44.4 L19.9 45.05 Q21.25 45.65 23.05 45.65 25.65 45.65 27.55 44.6 L30.55 42.55" fill="#4d2701" fill-rule="evenodd" stroke="none"/>
      <path d="M7.0 25.45 L7.5 24.75 Q8.25 23.65 9.15 22.7 L10.25 21.85 Q14.45 18.75 20.4 18.7 27.25 18.75 31.75 22.95 35.4 26.4 34.8 31.75 L34.7 32.7 34.65 32.9 34.5 33.55 34.25 34.5 Q32.95 39.25 30.55 42.55 29.3 44.25 27.7 45.55 L27.65 45.65 Q23.5 49.7 17.7 49.15 13.9 48.7 10.7 46.35 8.45 45.35 6.75 42.65 5.5 40.6 4.95 38.15 4.4 35.7 4.55 32.95 4.8 28.65 7.0 25.45 M7.05 26.05 L7.7 25.1 8.0 24.8 Q10.85 21.8 14.4 22.1 17.25 22.4 19.35 24.9 L20.4 26.35 Q22.8 30.1 22.7 35.0 L22.65 35.3 22.65 35.35 22.6 35.95 Q22.2 40.15 19.95 43.2 L19.35 43.9 18.9 44.4 M4.95 38.15 Q4.55 36.0 4.7 33.65 4.95 29.15 7.05 26.05 M10.7 46.35 L12.95 46.9 Q16.25 47.2 18.9 44.4" fill="none" stroke="#000000" stroke-linecap="round" stroke-linejoin="round" stroke-opacity="0.3019608" stroke-width="0.05"/>
      <path d="M12.85 46.55 Q12.5 46.15 11.9 46.05 L10.8 46.15 10.15 46.75 Q10.0 47.2 10.25 47.6 10.6 47.9 11.15 48.05 L12.3 48.0 13.05 47.35 Q13.2 46.95 12.85 46.55" fill="#8f4701" fill-rule="evenodd" stroke="none"/>
      <path d="M12.85 46.55 Q13.2 46.95 13.05 47.35 L12.3 48.0 11.15 48.05 Q10.6 47.9 10.25 47.6 10.0 47.2 10.15 46.75 L10.8 46.15 11.9 46.05 Q12.5 46.15 12.85 46.55 Z" fill="none" stroke="#000000" stroke-linecap="round" stroke-linejoin="round" stroke-opacity="0.3019608" stroke-width="0.05"/>
      <path d="M13.0 46.1 Q12.7 45.7 12.1 45.6 L10.95 45.7 Q10.45 45.85 10.3 46.25 10.15 46.7 10.45 47.1 10.8 47.4 11.35 47.55 L12.5 47.5 13.2 46.85 Q13.35 46.45 13.0 46.1" fill="#c16102" fill-rule="evenodd" stroke="none"/>
      <path d="M13.0 46.1 Q13.35 46.45 13.2 46.85 L12.5 47.5 11.35 47.55 Q10.8 47.4 10.45 47.1 10.15 46.7 10.3 46.25 10.45 45.85 10.95 45.7 L12.1 45.6 Q12.7 45.7 13.0 46.1 Z" fill="none" stroke="#000000" stroke-linecap="round" stroke-linejoin="round" stroke-opacity="0.3019608" stroke-width="0.05"/>
      <path d="M10.3 21.9 L10.55 21.5 Q10.95 21.1 11.6 21.1 L12.6 21.4 13.15 21.9 13.25 22.1 Q13.3 22.55 12.9 22.8 12.55 23.2 12.0 23.25 L10.8 22.95 10.25 22.25 10.3 21.9" fill="#c16102" fill-rule="evenodd" stroke="none"/>
      <path d="M10.3 21.9 L10.2 21.75 Q10.1 21.3 10.5 20.9 L11.45 20.65 12.55 20.8 Q13.05 21.1 13.15 21.6 L13.15 21.9 12.6 21.4 11.6 21.1 Q10.95 21.1 10.55 21.5 L10.3 21.9" fill="#fd8002" fill-rule="evenodd" stroke="none"/>
      <path d="M13.15 21.9 L13.15 21.6 Q13.05 21.1 12.55 20.8 L11.45 20.65 10.5 20.9 Q10.1 21.3 10.2 21.75 L10.3 21.9 10.55 21.5 Q10.95 21.1 11.6 21.1 L12.6 21.4 13.15 21.9 13.25 22.1 Q13.3 22.55 12.9 22.8 12.55 23.2 12.0 23.25 L10.8 22.95 10.25 22.25 10.3 21.9" fill="none" stroke="#000000" stroke-linecap="round" stroke-linejoin="round" stroke-opacity="0.3019608" stroke-width="0.05"/>
      <path d="M18.85 38.4 Q19.35 36.5 19.45 34.3 19.6 31.25 18.9 28.7 L18.35 26.85 22.55 26.85 23.1 28.7 Q23.75 31.25 23.6 34.3 23.5 36.5 23.05 38.4 L18.85 38.4" fill="#975b02" fill-rule="evenodd" stroke="none"/>
      <path d="M23.05 38.4 L22.0 41.45 20.8 43.55 Q18.25 47.4 14.9 47.4 L13.65 47.4 11.1 47.4 12.85 47.0 Q14.05 46.45 15.2 45.35 L16.65 43.55 17.8 41.45 18.85 38.4 23.05 38.4" fill="#7d4b02" fill-rule="evenodd" stroke="none"/>
      <path d="M5.55 44.2 L5.55 44.15 Q3.4 40.35 3.65 34.95 3.9 29.5 6.45 25.7 8.95 21.85 12.3 21.85 L12.6 21.85 12.6 21.9 13.5 22.0 14.4 22.25 Q15.6 22.8 16.6 23.9 L16.75 23.85 17.35 24.8 17.5 25.1 18.35 26.85 18.9 28.7 Q19.6 31.25 19.45 34.3 19.35 36.5 18.85 38.4 L17.8 41.45 16.65 43.55 15.2 45.35 Q14.05 46.45 12.85 47.0 L11.1 47.4 10.7 47.4 Q7.75 47.4 5.75 44.45 L5.55 44.2 M16.55 26.5 L16.5 26.5 Q18.35 29.7 18.15 34.3 17.9 38.9 15.75 42.1 14.4 44.1 12.85 44.9 L12.6 45.0 11.15 45.35 10.8 45.35 Q8.35 45.35 6.65 42.95 8.45 45.95 11.2 45.95 L11.55 45.95 12.95 45.6 13.25 45.5 Q14.8 44.7 16.2 42.7 18.35 39.5 18.55 34.95 18.75 30.3 16.9 27.1 L16.55 26.5" fill="#d27e02" fill-rule="evenodd" stroke="none"/>
      <path d="M12.4 21.3 L12.25 21.3 12.25 21.25 12.55 21.3 12.4 21.3" fill="#736951" fill-rule="evenodd" stroke="none"/>
      <path d="M12.4 21.3 L13.1 21.4 14.05 21.65 Q15.2 22.15 16.25 23.3 L16.75 23.85 16.6 23.9 Q15.6 22.8 14.4 22.25 L13.5 22.0 12.6 21.9 12.6 21.85 12.3 21.85 Q8.95 21.85 6.45 25.7 3.9 29.5 3.65 34.95 3.4 40.35 5.55 44.15 L5.55 44.2 5.2 43.55 Q2.95 39.75 3.25 34.3 3.5 28.9 6.05 25.1 8.6 21.25 11.95 21.25 L12.25 21.25 12.25 21.3 12.4 21.3 M16.55 26.5 L16.9 27.1 Q18.75 30.3 18.55 34.95 18.35 39.5 16.2 42.7 14.8 44.7 13.25 45.5 L12.95 45.6 11.55 45.95 11.2 45.95 Q8.45 45.95 6.65 42.95 8.35 45.35 10.8 45.35 L11.15 45.35 12.6 45.0 12.85 44.9 Q14.4 44.1 15.75 42.1 17.9 38.9 18.15 34.3 18.35 29.7 16.5 26.5 L16.55 26.5" fill="#fcad3a" fill-rule="evenodd" stroke="none"/>
      <path d="M16.75 23.85 L16.25 23.3 Q15.2 22.15 14.05 21.65 L13.1 21.4 12.6 21.3 16.15 21.25 Q19.5 21.25 21.65 25.1 L22.55 26.85 18.35 26.85 17.5 25.1 17.35 24.8 16.75 23.85" fill="#af6a03" fill-rule="evenodd" stroke="none"/>
      <path d="M12.25 21.25 L11.95 21.25 Q8.6 21.25 6.05 25.1 3.5 28.9 3.25 34.3 2.95 39.75 5.2 43.55 L5.55 44.2 M12.6 21.3 L12.55 21.3 M22.55 26.85 L21.65 25.1 Q19.5 21.25 16.15 21.25 L12.6 21.3 M22.55 26.85 L23.1 28.7 Q23.75 31.25 23.6 34.3 23.5 36.5 23.05 38.4 L22.0 41.45 20.8 43.55 Q18.25 47.4 14.9 47.4 L13.65 47.4 11.1 47.4 10.7 47.4 Q7.75 47.4 5.75 44.45 L5.55 44.2" fill="none" stroke="#000000" stroke-linecap="round" stroke-linejoin="round" stroke-opacity="0.3019608" stroke-width="0.05"/>
      <path d="M17.05 46.45 L16.65 46.6 16.2 46.55 15.95 46.3 16.15 46.05 16.6 45.9 17.0 45.95 17.2 46.2 17.05 46.45" fill="#fd8002" fill-rule="evenodd" stroke="none"/>
      <path d="M16.05 46.55 L15.75 46.25 15.95 45.85 16.7 45.7 17.35 45.8 17.7 46.1 17.45 46.5 16.8 46.7 16.05 46.55 M17.05 46.45 L17.2 46.2 17.0 45.95 16.6 45.9 16.15 46.05 15.95 46.3 16.2 46.55 16.65 46.6 17.05 46.45" fill="#d96d02" fill-rule="evenodd" stroke="none"/>
      <path d="M16.05 46.55 L16.8 46.7 17.45 46.5 17.7 46.1 17.35 45.8 16.7 45.7 15.95 45.85 15.75 46.25 16.05 46.55 M18.5 45.8 L18.5 46.0 18.05 46.6 17.0 46.9 15.95 46.75 Q15.45 46.6 15.4 46.25 L15.5 46.05 15.85 45.65 16.9 45.4 17.95 45.5 Q18.3 45.6 18.5 45.8" fill="#a35201" fill-rule="evenodd" stroke="none"/>
      <path d="M18.5 45.8 Q18.3 45.6 17.95 45.5 L16.9 45.4 15.85 45.65 15.5 46.05 15.35 45.9 Q15.35 45.55 15.8 45.3 L16.85 45.0 17.9 45.1 Q18.45 45.3 18.45 45.6 L18.5 45.8" fill="#824101" fill-rule="evenodd" stroke="none"/>
      <path d="M15.5 46.05 L15.4 46.25 Q15.45 46.6 15.95 46.75 L17.0 46.9 18.05 46.6 18.5 46.0 18.5 45.8 Q18.3 45.6 17.95 45.5 L16.9 45.4 15.85 45.65 15.5 46.05 15.35 45.9 Q15.35 45.55 15.8 45.3 L16.85 45.0 17.9 45.1 Q18.45 45.3 18.45 45.6 L18.5 45.8" fill="none" stroke="#000000" stroke-linecap="round" stroke-linejoin="round" stroke-opacity="0.3019608" stroke-width="0.05"/>
      <path d="M19.15 22.45 Q19.65 22.7 19.6 23.1 L19.05 23.65 18.0 23.8 Q17.4 23.7 16.95 23.4 L16.55 22.75 Q16.6 22.35 17.05 22.2 L18.15 22.1 19.15 22.45" fill="#ba5e01" fill-rule="evenodd" stroke="none"/>
      <path d="M19.15 22.45 Q19.65 22.7 19.6 23.1 L19.05 23.65 18.0 23.8 Q17.4 23.7 16.95 23.4 L16.55 22.75 Q16.6 22.35 17.05 22.2 L18.15 22.1 19.15 22.45 Z" fill="none" stroke="#000000" stroke-linecap="round" stroke-linejoin="round" stroke-opacity="0.3019608" stroke-width="0.05"/>
      <path d="M19.15 22.0 Q19.65 22.25 19.6 22.65 L19.05 23.2 18.0 23.35 Q17.4 23.25 16.95 22.95 L16.55 22.3 Q16.6 21.9 17.05 21.75 L18.15 21.65 19.15 22.0" fill="#fd8002" fill-rule="evenodd" stroke="none"/>
      <path d="M19.15 22.0 Q19.65 22.25 19.6 22.65 L19.05 23.2 18.0 23.35 Q17.4 23.25 16.95 22.95 L16.55 22.3 Q16.6 21.9 17.05 21.75 L18.15 21.65 19.15 22.0 Z" fill="none" stroke="#000000" stroke-linecap="round" stroke-linejoin="round" stroke-opacity="0.3019608" stroke-width="0.05"/>
      <path d="M18.65 22.2 L18.9 22.55 18.55 22.95 17.9 23.0 17.2 22.8 16.95 22.35 17.3 22.05 18.0 21.9 Q18.4 21.95 18.65 22.2" fill="#fea64e" fill-rule="evenodd" stroke="none"/>
      <path d="M18.3 22.05 L18.45 22.35 18.25 22.6 17.8 22.7 17.4 22.5 17.2 22.2 Q17.25 22.0 17.45 21.95 L17.85 21.9 18.3 22.05" fill="#fdcc9b" fill-rule="evenodd" stroke="none"/>
      <path d="M19.95 39.25 L19.75 38.85 20.0 38.5 20.45 38.4 Q20.75 38.4 20.9 38.55 L21.0 38.9 20.85 39.3 20.35 39.45 19.95 39.25" fill="#fea64e" fill-rule="evenodd" stroke="none"/>
      <path d="M19.85 38.35 Q20.25 38.05 20.65 38.1 21.05 38.1 21.3 38.45 21.6 38.6 21.55 38.9 L21.3 39.55 20.7 39.75 19.9 39.45 Q19.55 39.1 19.55 38.75 L19.85 38.35 M19.95 39.25 L20.35 39.45 20.85 39.3 21.0 38.9 20.9 38.55 Q20.75 38.4 20.45 38.4 L20.0 38.5 19.75 38.85 19.95 39.25" fill="#d16902" fill-rule="evenodd" stroke="none"/>
      <path d="M19.85 38.35 L19.55 38.75 Q19.55 39.1 19.9 39.45 L20.7 39.75 21.3 39.55 21.55 38.9 Q21.6 38.6 21.3 38.45 21.05 38.1 20.65 38.1 20.25 38.05 19.85 38.35 M21.95 38.2 Q22.45 38.6 22.4 39.1 22.35 39.6 21.8 39.9 L20.7 40.1 Q20.1 40.05 19.65 39.7 19.15 39.35 19.2 38.85 19.25 38.35 19.8 38.0 L20.9 37.8 Q21.55 37.85 21.95 38.2" fill="#a14d01" fill-rule="evenodd" stroke="none"/>
      <path d="M21.95 38.2 Q22.45 38.6 22.4 39.1 22.35 39.6 21.8 39.9 L20.7 40.1 Q20.1 40.05 19.65 39.7 19.15 39.35 19.2 38.85 19.25 38.35 19.8 38.0 L20.9 37.8 Q21.55 37.85 21.95 38.2 Z" fill="none" stroke="#000000" stroke-linecap="round" stroke-linejoin="round" stroke-opacity="0.3019608" stroke-width="0.05"/>
      <path d="M20.15 29.9 L20.35 30.25 20.75 30.5 21.25 30.3 21.4 29.95 21.3 29.6 20.85 29.4 Q20.6 29.35 20.4 29.55 L20.15 29.9 M20.25 29.35 L21.05 29.15 Q21.45 29.15 21.7 29.45 22.0 29.65 21.95 29.95 L21.7 30.6 21.1 30.8 20.3 30.5 Q19.95 30.1 19.95 29.8 L20.25 29.35" fill="#fd8002" fill-rule="evenodd" stroke="none"/>
      <path d="M20.15 29.9 L20.4 29.55 Q20.6 29.35 20.85 29.4 L21.3 29.6 21.4 29.95 21.25 30.3 20.75 30.5 20.35 30.25 20.15 29.9" fill="#fea64e" fill-rule="evenodd" stroke="none"/>
      <path d="M20.2 29.05 L21.3 28.85 Q21.95 28.9 22.35 29.25 22.85 29.6 22.8 30.15 22.75 30.65 22.2 30.95 L21.1 31.1 20.05 30.75 Q19.55 30.4 19.6 29.9 19.65 29.35 20.2 29.05 M20.25 29.35 L19.95 29.8 Q19.95 30.1 20.3 30.5 L21.1 30.8 21.7 30.6 21.95 29.95 Q22.0 29.65 21.7 29.45 21.45 29.15 21.05 29.15 L20.25 29.35" fill="#cf6802" fill-rule="evenodd" stroke="none"/>
      <path d="M20.2 29.05 L21.3 28.85 Q21.95 28.9 22.35 29.25 22.85 29.6 22.8 30.15 22.75 30.65 22.2 30.95 L21.1 31.1 20.05 30.75 Q19.55 30.4 19.6 29.9 19.65 29.35 20.2 29.05 Z" fill="none" stroke="#000000" stroke-linecap="round" stroke-linejoin="round" stroke-opacity="0.3019608" stroke-width="0.05"/>
      <path d="M17.3 29.7 L17.2 29.45 17.2 29.75 17.3 29.7" fill="#79829f" fill-rule="evenodd" stroke="none"/>
      <path d="M11.65 39.3 Q13.35 38.15 14.05 35.6 14.7 33.1 13.8 30.5 13.0 27.95 11.15 26.95 9.45 26.15 7.65 27.15 L6.8 27.85 Q5.6 28.9 5.05 30.8 4.3 33.25 5.15 35.8 6.0 38.4 7.9 39.35 9.7 40.5 11.5 39.35 L11.65 39.3 M8.2 31.35 Q8.2 30.65 8.35 30.05 8.65 28.5 9.45 27.95 10.4 27.3 11.55 28.15 12.7 29.0 13.15 30.75 13.75 32.6 13.45 34.2 13.2 35.8 12.35 36.5 11.45 37.0 10.4 36.25 L10.35 36.1 Q9.2 35.4 8.65 33.55 8.25 32.45 8.2 31.35" fill="#78929c" fill-rule="evenodd" stroke="none"/>
      <path d="M8.2 31.35 Q8.25 32.45 8.65 33.55 9.2 35.4 10.35 36.1 L10.4 36.25 Q11.45 37.0 12.35 36.5 13.2 35.8 13.45 34.2 13.75 32.6 13.15 30.75 12.7 29.0 11.55 28.15 10.4 27.3 9.45 27.95 8.65 28.5 8.35 30.05 8.2 30.65 8.2 31.35" fill="#9dc6b6" fill-rule="evenodd" stroke="none"/>
      <path d="M11.65 39.3 L11.5 39.35 Q9.7 40.5 7.9 39.35 6.0 38.4 5.15 35.8 4.3 33.25 5.05 30.8 5.6 28.9 6.8 27.85 L7.65 27.15 Q9.45 26.15 11.15 26.95 13.0 27.95 13.8 30.5 14.7 33.1 14.05 35.6 13.35 38.15 11.65 39.3 M12.25 40.3 Q14.25 38.9 15.2 36.45 16.3 33.25 15.55 30.15 14.55 27.2 12.35 25.8 10.05 24.7 7.65 26.0 6.95 26.3 6.25 26.85 4.75 28.2 3.85 30.5 2.65 33.45 3.45 36.55 4.3 39.6 6.65 40.85 9.1 42.15 11.6 40.75 L12.25 40.3" fill="#3c4a4f" fill-rule="evenodd" stroke="none"/>
      <path d="M3.5 41.2 Q4.8 43.3 6.9 44.5 L8.9 45.15 Q10.95 45.45 13.2 44.15 L13.3 44.0 13.5 43.9 Q18.05 36.8 17.2 29.75 L17.2 29.45 Q13.1 24.0 8.85 23.35 L8.5 23.4 6.65 24.3 6.55 24.3 6.05 24.7 Q4.75 25.65 3.85 27.05 1.5 35.25 3.5 41.2 M12.25 40.3 L11.6 40.75 Q9.1 42.15 6.65 40.85 4.3 39.6 3.45 36.55 2.65 33.45 3.85 30.5 4.75 28.2 6.25 26.85 6.95 26.3 7.65 26.0 10.05 24.7 12.35 25.8 14.55 27.2 15.55 30.15 16.3 33.25 15.2 36.45 14.25 38.9 12.25 40.3" fill="#963807" fill-rule="evenodd" stroke="none"/>
      <path d="M3.85 27.05 L2.4 30.5 Q1.2 34.6 2.4 38.85 2.9 40.25 3.5 41.2 1.5 35.25 3.85 27.05" fill="#6c2206" fill-rule="evenodd" stroke="none"/>
      <path d="M13.5 43.9 Q15.45 42.55 16.6 40.25 L17.5 37.95 Q18.55 33.8 17.3 29.7 L17.2 29.75 Q18.05 36.8 13.5 43.9 M17.2 29.45 Q16.1 27.1 14.75 25.5 L14.2 24.95 14.15 25.0 13.7 24.55 13.5 24.45 13.3 24.1 12.9 23.95 11.95 23.55 8.85 23.35 Q13.1 24.0 17.2 29.45" fill="#c16100" fill-rule="evenodd" stroke="none"/>
      <path d="M3.5 41.2 Q4.8 43.3 6.9 44.5 L8.9 45.15 Q10.95 45.45 13.2 44.15 L13.3 44.0 13.5 43.9 Q15.45 42.55 16.6 40.25 L17.5 37.95 Q18.55 33.8 17.3 29.7 L17.2 29.45 Q16.1 27.1 14.75 25.5 L14.2 24.95 13.7 24.55 13.5 24.45 13.3 24.1 12.9 23.95 11.95 23.55 8.85 23.35 8.5 23.4 6.65 24.3 6.55 24.3 6.05 24.7 Q4.75 25.65 3.85 27.05 L2.4 30.5 Q1.2 34.6 2.4 38.85 2.9 40.25 3.5 41.2 M12.25 40.3 Q14.25 38.9 15.2 36.45 16.3 33.25 15.55 30.15 14.55 27.2 12.35 25.8 10.05 24.7 7.65 26.0 6.95 26.3 6.25 26.85 4.75 28.2 3.85 30.5 2.65 33.45 3.45 36.55 4.3 39.6 6.65 40.85 9.1 42.15 11.6 40.75 L12.25 40.3" fill="none" stroke="#000000" stroke-linecap="round" stroke-linejoin="round" stroke-opacity="0.36862746" stroke-width="0.05"/>
    </g>
    <g id="sprite2" transform="matrix(1.0, 0.0, 0.0, 1.0, 0.0, 0.0)">
      <use height="37.0" transform="matrix(1.0, 0.0, 0.0, 1.0, 0.0, 0.0)" width="37.0" xlink:href="#shape2"/>
    </g>
    <g id="shape2" transform="matrix(1.0, 0.0, 0.0, 1.0, 0.0, 0.0)">
      <path d="M5.4 31.55 Q0.0 26.15 0.0 18.5 0.0 10.85 5.4 5.4 10.85 0.0 18.5 0.0 26.15 0.0 31.55 5.4 37.0 10.85 37.0 18.5 37.0 26.15 31.55 31.55 26.15 37.0 18.5 37.0 10.85 37.0 5.4 31.55" fill="url(#gradient0)" fill-rule="evenodd" stroke="none"/>
    </g>
    <radialGradient cx="0" cy="0" gradientTransform="matrix(0.0238, 0.0, 0.0, 0.0238, 18.5, 18.5)" gradientUnits="userSpaceOnUse" id="gradient0" r="819.2" spreadMethod="pad">
      <stop offset="0.0" stop-color="#ffffcc"/>
      <stop offset="1.0" stop-color="#ffffcc" stop-opacity="0.0"/>
    </radialGradient>
    <g id="shape3" transform="matrix(1.0, 0.0, 0.0, 1.0, -1.3, -1.2)">
      <path d="M29.1 35.4 Q30.45 36.2 31.75 35.6 33.05 34.95 33.55 33.25 34.05 31.55 33.4 29.8 32.75 28.0 31.4 27.2 L28.75 27.05 Q27.45 27.65 26.95 29.35 26.45 31.1 27.1 32.9 27.75 34.65 29.1 35.4" fill="#d86d05" fill-rule="evenodd" stroke="none"/>
      <path d="M29.1 35.4 Q30.45 36.2 31.75 35.6 33.05 34.95 33.55 33.25 34.05 31.55 33.4 29.8 32.75 28.0 31.4 27.2 L28.75 27.05 Q27.45 27.65 26.95 29.35 26.45 31.1 27.1 32.9 27.75 34.65 29.1 35.4 Z" fill="none" stroke="#000000" stroke-linecap="round" stroke-linejoin="round" stroke-opacity="0.3019608" stroke-width="0.05"/>
      <path d="M30.15 34.3 Q31.1 35.0 32.0 34.55 32.9 34.15 33.2 32.8 33.45 31.6 33.0 30.2 32.5 28.85 31.55 28.15 30.55 27.55 29.65 27.95 28.75 28.4 28.5 29.65 28.2 30.95 28.7 32.3 29.15 33.7 30.15 34.3" fill="#291501" fill-rule="evenodd" stroke="none"/>
      <path d="M30.15 34.3 Q31.1 35.0 32.0 34.55 32.9 34.15 33.2 32.8 33.45 31.6 33.0 30.2 32.5 28.85 31.55 28.15 30.55 27.55 29.65 27.95 28.75 28.4 28.5 29.65 28.2 30.95 28.7 32.3 29.15 33.7 30.15 34.3 Z" fill="none" stroke="#000000" stroke-linecap="round" stroke-linejoin="round" stroke-opacity="0.3019608" stroke-width="0.05"/>
      <path d="M50.25 7.0 L50.3 6.95 50.3 7.0 50.25 7.0 M21.7 15.05 L21.4 15.0 21.7 15.0 21.7 15.05 M46.45 7.7 L46.4 7.7 46.35 7.65 46.45 7.7 M22.85 9.25 L23.0 9.7 22.7 9.35 22.85 9.25 M11.1 18.4 L11.05 18.45 11.1 18.4" fill="#403a2c" fill-rule="evenodd" stroke="none"/>
      <path d="M11.15 18.5 L11.05 18.45 11.1 18.4 11.15 18.5" fill="#736951" fill-rule="evenodd" stroke="none"/>
      <path d="M24.5 11.25 L24.65 11.25 Q28.9 11.25 36.7 9.85 L44.25 8.25 45.5 7.9 46.2 7.7 46.35 7.65 46.4 7.7 46.45 7.7 46.8 7.1 Q46.8 3.2 36.95 3.2 35.1 3.2 28.75 4.5 26.5 4.9 24.75 5.7 22.25 6.85 22.25 8.3 22.25 8.7 22.7 9.35 L23.0 9.7 23.15 9.95 23.45 10.4 Q24.0 11.15 24.5 11.25 L19.6 11.15 24.5 11.25 M9.25 22.25 L9.2 22.25 7.7 20.3 7.6 18.5 Q7.6 15.5 9.25 14.15 11.85 11.95 19.6 11.15 19.25 10.45 19.25 9.2 19.25 6.25 24.1 4.15 28.55 2.2 34.8 1.8 41.15 1.4 45.5 2.8 49.75 4.2 50.3 6.9 L50.3 6.95 50.25 7.0 49.65 7.85 Q48.95 8.65 43.35 10.4 L38.7 11.35 29.95 12.5 18.15 13.5 Q11.65 13.8 11.0 15.65 10.3 17.4 11.05 18.45 L11.15 18.5 11.15 18.55 11.65 19.5 Q10.7 19.85 10.15 20.4 9.3 21.15 9.25 22.25" fill="#fcad3a" fill-rule="evenodd" stroke="none"/>
      <path d="M33.05 15.85 L33.55 16.15 Q36.1 17.8 37.45 19.3 39.0 20.95 39.35 22.75 38.5 25.0 35.2 27.5 L31.5 29.95 Q30.3 29.1 30.3 27.75 L30.3 27.7 Q30.65 27.45 31.1 27.25 L32.05 26.7 34.8 24.95 Q35.6 24.2 35.6 23.65 L35.6 23.55 35.8 23.0 Q35.8 20.55 32.85 18.1 31.35 16.8 29.45 15.85 30.2 15.5 31.45 15.5 32.4 15.5 33.05 15.85" fill="#d27e02" fill-rule="evenodd" stroke="none"/>
      <path d="M9.25 22.25 Q9.3 21.15 10.15 20.4 10.7 19.85 11.65 19.5 L12.1 20.1 12.45 20.5 Q11.35 21.0 10.3 21.75 L9.5 22.45 9.25 22.25 M11.05 18.45 Q10.3 17.4 11.0 15.65 11.65 13.8 18.15 13.5 L29.95 12.5 38.7 11.35 43.35 10.4 Q48.95 8.65 49.65 7.85 L50.25 7.0 50.3 7.0 50.35 7.7 Q50.35 11.1 43.7 12.55 L30.95 14.55 33.05 15.85 Q32.4 15.5 31.45 15.5 30.2 15.5 29.45 15.85 31.35 16.8 32.85 18.1 35.8 20.55 35.8 23.0 L35.6 23.55 Q35.3 22.4 30.6 19.0 29.25 18.0 28.0 17.3 24.4 15.2 21.7 15.05 L21.7 15.0 21.4 15.0 21.15 15.0 Q17.05 15.0 13.95 16.15 11.1 17.2 11.1 18.4 L11.05 18.45 M39.35 22.75 L39.45 23.75 Q39.45 25.25 37.25 28.05 35.8 29.95 34.05 30.9 32.35 31.75 30.45 31.75 29.4 31.75 28.9 31.15 L28.7 30.85 28.45 29.9 Q28.45 28.95 30.3 27.75 30.3 29.1 31.5 29.95 L35.2 27.5 Q38.5 25.0 39.35 22.75 M22.7 9.35 Q22.25 8.7 22.25 8.3 22.25 6.85 24.75 5.7 26.5 4.9 28.75 4.5 35.1 3.2 36.95 3.2 46.8 3.2 46.8 7.1 L46.45 7.7 46.35 7.65 Q43.4 5.85 42.95 5.75 L34.1 5.5 28.35 6.65 Q22.85 8.0 22.85 9.25 L22.7 9.35 M30.95 14.55 L21.7 15.0 30.95 14.55" fill="#7d4b02" fill-rule="evenodd" stroke="none"/>
      <path d="M24.5 11.25 L19.6 11.15 M21.7 15.0 L21.4 15.0 M21.7 15.0 L30.95 14.55" fill="none" stroke="#000000" stroke-linecap="round" stroke-linejoin="round" stroke-opacity="0.3019608" stroke-width="0.05"/>
      <path d="M44.25 8.25 L36.7 9.85 Q28.9 11.25 24.65 11.25 L24.5 11.25 Q24.0 11.15 23.45 10.4 L23.15 9.95 23.0 9.7 22.85 9.25 Q22.85 8.0 28.35 6.65 L34.1 5.5 42.95 5.75 Q43.4 5.85 46.35 7.65 L46.2 7.7 45.5 7.9 44.25 8.25 M50.3 6.9 Q49.75 4.2 45.5 2.8 41.15 1.4 34.8 1.8 28.55 2.2 24.1 4.15 19.25 6.25 19.25 9.2 19.25 10.45 19.6 11.15 11.85 11.95 9.25 14.15 7.6 15.5 7.6 18.5 L7.7 20.3 Q7.9 20.8 9.05 22.1 7.75 22.85 6.65 24.3 L6.55 24.3 6.05 24.7 Q4.75 25.65 3.85 27.05 L2.4 30.5 Q1.2 34.6 2.4 38.85 2.9 40.25 3.5 41.2 L4.85 42.95 5.2 43.55 5.55 44.2 5.75 44.45 Q7.55 47.1 10.15 47.4 L10.25 47.6 Q10.6 47.9 11.15 48.05 L12.3 48.0 12.85 47.7 Q15.15 48.85 17.7 49.15 23.5 49.7 27.65 45.65 L27.7 45.55 Q29.3 44.25 30.55 42.55 32.95 39.25 34.25 34.5 L34.5 33.55 34.65 32.9 34.7 32.7 34.8 31.75 34.9 30.4 37.25 28.05 Q39.45 25.25 39.45 23.75 L39.35 22.75 Q39.0 20.95 37.45 19.3 36.1 17.8 33.55 16.15 L33.05 15.85 30.95 14.55 43.7 12.55 Q50.35 11.1 50.35 7.7 L50.3 7.0 50.3 6.9 M28.0 17.3 Q24.4 15.2 21.7 15.05 L21.45 15.0 21.4 15.0 21.15 15.0 Q17.05 15.0 13.95 16.15 11.1 17.2 11.1 18.4 L11.15 18.5 11.15 18.55 11.65 19.5 12.1 20.1 12.45 20.5 Q15.95 18.75 20.4 18.7 27.25 18.75 31.75 22.95 33.05 24.2 33.85 25.7 L34.8 24.95 Q35.6 24.2 35.6 23.65 L35.6 23.55 Q35.3 22.4 30.6 19.0 29.25 18.0 28.0 17.3" fill="none" stroke="#000000" stroke-linecap="round" stroke-linejoin="round" stroke-opacity="0.3019608" stroke-width="1.0"/>
    </g>
  </defs>
</svg>
