<?xml version="1.0" encoding="UTF-8" standalone="no"?>
<svg xmlns:xlink="http://www.w3.org/1999/xlink" height="520.0px" width="520.0px" xmlns="http://www.w3.org/2000/svg">
  <g transform="matrix(10.0, 0.0, 0.0, 10.0, 0.0, 0.0)">
    <use height="52.0" transform="matrix(1.0, 0.0, 0.0, 1.0, 0.0, 0.0)" width="52.0" xlink:href="#shape0"/>
    <use height="127.45" transform="matrix(0.3399, 0.0, 0.0, 0.3399, 0.916, 5.2)" width="147.0" xlink:href="#sprite0"/>
  </g>
  <defs>
    <g id="shape0" transform="matrix(1.0, 0.0, 0.0, 1.0, 0.0, 0.0)">
      <path d="M52.0 0.0 L52.0 52.0 0.0 52.0 0.0 0.0 52.0 0.0" fill="#8e7549" fill-opacity="0.0" fill-rule="evenodd" stroke="none"/>
      <path d="M47.2 11.65 Q42.25 6.85 35.2 8.15 L32.15 8.5 Q27.25 8.65 21.1 6.85 L20.85 6.75 20.0 6.5 19.85 6.45 Q16.8 5.5 14.75 5.3 13.5 5.15 12.6 5.3 10.2 5.65 9.65 7.3 L9.45 8.55 9.45 8.8 9.45 8.85 10.4 12.45 11.1 13.75 11.9 14.9 13.1 16.45 13.15 16.5 14.2 17.7 15.4 18.9 17.85 20.95 19.25 21.85 18.65 22.35 17.9 23.35 15.0 24.4 15.0 24.25 15.0 23.95 14.95 23.3 14.7 22.3 14.65 22.25 14.55 22.1 14.3 21.8 13.3 21.9 Q13.9 20.25 13.25 19.45 L12.7 19.1 11.85 18.8 11.0 18.65 Q9.0 18.55 8.45 19.25 L8.35 19.4 Q7.95 20.2 8.75 21.55 9.55 22.9 9.15 23.7 L9.0 24.0 8.9 24.0 8.85 24.0 8.8 23.95 8.75 24.0 8.7 24.0 8.6 24.0 Q8.0 23.95 7.8 24.3 L7.8 24.35 7.8 24.4 6.55 26.45 Q6.25 26.5 6.05 26.75 5.75 27.1 5.8 27.55 L5.8 27.6 5.3 28.45 Q5.05 28.85 5.55 29.55 L5.7 29.75 5.25 30.35 5.1 30.55 Q4.5 31.05 3.2 30.95 1.65 30.85 1.2 31.5 L1.1 31.7 Q0.65 32.55 1.65 34.35 L2.15 35.05 2.8 35.75 2.85 35.75 2.9 35.8 3.35 36.05 Q4.4 36.3 5.5 35.0 5.55 35.7 5.85 35.95 L6.25 36.1 6.4 36.1 6.45 36.1 7.5 35.9 8.05 35.65 8.1 35.65 8.3 35.55 9.05 34.95 10.3 41.05 11.7 43.15 14.95 44.9 21.25 42.65 21.2 42.9 21.3 43.6 21.5 44.65 21.6 44.7 21.65 44.8 21.95 45.1 23.0 45.05 Q22.3 46.7 23.05 47.6 L23.35 47.85 23.5 47.95 23.55 48.0 24.45 48.35 25.35 48.5 Q27.4 48.6 28.0 47.85 L28.1 47.75 Q28.5 46.95 27.7 45.5 27.05 44.25 27.2 43.5 L27.3 43.25 27.65 42.55 27.9 42.6 Q28.75 42.75 29.1 42.3 L29.55 41.6 30.05 41.55 30.65 40.95 Q30.85 40.5 30.65 40.05 L30.6 39.9 31.7 38.1 31.7 38.05 31.65 37.15 31.55 37.05 31.55 37.0 31.5 36.95 31.5 36.9 31.45 36.85 31.35 36.7 31.45 36.5 Q32.0 35.8 33.65 35.9 35.25 36.05 35.75 35.4 L35.85 35.15 Q36.2 34.3 35.2 32.45 L34.7 31.7 34.0 30.95 33.5 30.65 Q32.4 30.35 31.25 31.75 31.2 31.0 30.8 30.7 L30.45 30.55 30.35 30.55 30.25 30.5 29.25 30.75 28.6 30.9 28.35 31.05 Q27.5 31.45 27.45 32.1 27.4 32.6 27.7 33.05 L28.35 34.8 28.25 34.75 27.55 34.8 26.7 30.8 27.65 29.45 Q28.95 27.25 29.25 25.2 L29.85 24.8 Q31.0 24.1 31.6 23.15 34.7 24.2 38.7 27.15 L38.85 27.25 39.0 27.35 39.15 27.45 39.3 27.55 39.4 27.65 39.55 27.75 Q42.05 29.45 44.05 29.85 L46.2 29.95 Q47.3 29.8 48.15 29.15 49.55 28.0 50.25 25.5 L50.3 25.25 50.4 24.8 50.45 24.6 50.5 24.4 50.55 24.2 50.6 24.0 Q51.4 19.2 50.0 15.7 49.5 14.55 48.8 13.5 L48.6 13.25 48.3 12.9 47.65 12.15 47.2 11.65 M47.05 14.85 L45.7 13.25 Q44.7 12.25 43.55 11.6 40.2 9.55 35.95 10.25 L35.8 10.3 35.6 10.3 Q28.9 11.55 19.35 8.55 L15.55 7.65 12.85 7.5 Q12.35 7.55 12.05 7.75 11.6 8.05 11.6 8.7 11.85 12.45 16.9 17.3 L19.9 19.65 21.55 20.5 Q22.15 20.2 22.9 20.0 L23.1 19.8 23.85 19.2 26.1 17.8 Q27.0 17.25 27.8 17.15 L28.9 17.3 30.8 19.0 30.95 19.1 31.05 19.35 31.6 20.85 32.75 21.25 Q36.0 22.5 40.0 25.4 43.65 28.05 45.8 27.8 47.1 27.5 47.8 25.95 L48.3 24.35 Q48.7 22.45 48.7 20.8 48.7 17.35 47.05 14.85" fill="none" stroke="#000000" stroke-linecap="round" stroke-linejoin="round" stroke-opacity="0.3019608" stroke-width="1.0"/>
    </g>
    <g id="sprite0" transform="matrix(1.0, 0.0, 0.0, 1.0, 0.1, 0.0)">
      <use height="58.1" transform="matrix(0.9057, 0.0549, -0.0032, 0.9059, 0.0646, 37.6559)" width="45.9" xlink:href="#sprite1"/>
      <use height="116.0" transform="matrix(1.0, 0.0, 0.0, 1.0, 20.7, 0.0)" width="126.15" xlink:href="#shape2"/>
      <use height="485.85" transform="matrix(-0.0036, 0.1597, -0.0923, 0.0, 72.286, 58.276)" width="271.6" xlink:href="#sprite2"/>
      <use height="28.05" transform="matrix(1.0, 0.0, 0.0, 1.0, 73.35, 47.2)" width="10.05" xlink:href="#shape4"/>
      <use height="112.9" transform="matrix(-0.1498, 0.2086, 0.1846, 0.1096, 43.0075, 69.3896)" width="68.2" xlink:href="#sprite3"/>
      <use height="136.1" transform="matrix(0.0179, 0.0609, -0.0657, 0.0176, 38.2126, 97.7023)" width="136.1" xlink:href="#sprite4"/>
      <use height="136.1" transform="matrix(0.0179, 0.0609, -0.0657, 0.0176, 64.3126, 52.1023)" width="136.1" xlink:href="#sprite4"/>
      <use height="136.1" transform="matrix(0.0179, 0.0609, -0.0657, 0.0176, 31.1126, 64.0023)" width="136.1" xlink:href="#sprite4"/>
      <use height="136.1" transform="matrix(0.0179, 0.0609, -0.0657, 0.0176, 72.2126, 85.2023)" width="136.1" xlink:href="#sprite4"/>
      <use height="112.9" transform="matrix(-0.1498, 0.2086, 0.1846, 0.1096, 43.2575, 69.3896)" width="68.2" xlink:href="#sprite3"/>
      <use height="88.5" transform="matrix(0.7463, 0.0, 0.0, 0.7463, 20.75, 50.65)" width="78.8" xlink:href="#sprite6"/>
      <use height="71.3" transform="matrix(0.7463, 0.0, 0.0, 0.7463, 59.4881, 74.2381)" width="58.45" xlink:href="#sprite7"/>
      <use height="45.65" transform="matrix(1.5952, 0.0, 0.0, 1.5952, 25.0, 0.0)" width="76.4" xlink:href="#sprite8"/>
    </g>
    <g id="sprite1" transform="matrix(1.0, 0.0, 0.0, 1.0, 0.15, 0.15)">
      <use height="58.1" transform="matrix(1.0, 0.0, 0.0, 1.0, -0.15, -0.15)" width="45.9" xlink:href="#shape1"/>
    </g>
    <g id="shape1" transform="matrix(1.0, 0.0, 0.0, 1.0, 0.15, 0.15)">
      <path d="M26.55 51.75 Q26.7 50.3 25.75 48.75 24.5 46.55 24.0 45.0 20.75 44.45 17.25 42.45 15.0 41.15 13.35 39.65 11.5 41.3 7.2 41.35 2.2 41.3 0.6 43.55 1.6 42.8 2.8 42.85 4.1 42.95 6.05 44.1 10.45 46.6 11.5 50.5 12.4 53.75 11.0 56.2 10.5 57.05 9.2 57.5 L7.85 57.7 Q11.2 58.5 14.75 53.9 14.95 56.2 16.05 56.95 15.4 56.1 16.6 54.3 17.7 52.55 20.9 51.6 L22.05 51.35 22.1 51.3 Q24.3 51.05 26.55 51.75 M15.85 51.0 L15.75 51.35 Q15.75 48.25 13.3 44.75 16.05 47.0 17.75 47.2 L19.8 47.4 Q16.2 48.3 15.85 51.0" fill="#b9a870" fill-rule="evenodd" stroke="none"/>
      <path d="M24.0 45.0 Q23.4 43.15 23.85 42.2 L24.0 41.95 25.1 39.9 25.0 39.65 24.7 39.1 23.6 37.8 22.5 36.95 21.5 36.3 Q20.15 35.5 18.8 35.2 L17.6 35.05 16.6 34.95 13.95 39.0 13.35 39.65 Q15.0 41.15 17.25 42.45 20.75 44.45 24.0 45.0 M15.85 51.0 Q16.2 48.3 19.8 47.4 L17.75 47.2 Q16.05 47.0 13.3 44.75 15.75 48.25 15.75 51.35 L15.85 51.0" fill="#94865a" fill-rule="evenodd" stroke="none"/>
      <path d="M0.6 43.55 L0.35 44.1 Q1.2 43.4 2.3 43.4 3.5 43.5 5.35 44.55 9.45 46.95 10.45 50.65 11.3 53.55 10.0 55.75 9.5 56.65 8.2 57.0 L7.0 57.25 6.05 56.9 Q7.0 57.5 7.85 57.7 L9.2 57.5 Q10.5 57.05 11.0 56.2 12.4 53.75 11.5 50.5 10.45 46.6 6.05 44.1 4.1 42.95 2.8 42.85 1.6 42.8 0.6 43.55 M16.05 56.95 L17.25 57.35 17.7 57.35 16.7 57.0 Q16.4 56.7 16.4 56.25 16.35 55.7 17.05 54.7 17.8 53.6 19.25 53.15 L21.4 52.75 22.7 52.85 22.95 52.9 23.2 53.25 23.1 53.4 23.3 53.5 Q24.4 53.55 24.3 54.05 L23.9 55.0 23.65 55.2 23.0 55.7 23.95 55.15 Q26.35 53.7 26.55 51.75 24.3 51.05 22.1 51.3 L22.05 51.35 20.9 51.6 Q17.7 52.55 16.6 54.3 15.4 56.1 16.05 56.95" fill="#c9b67a" fill-rule="evenodd" stroke="none"/>
      <path d="M0.35 44.1 Q-0.9 46.9 2.35 52.55 L3.95 54.85 6.05 56.9 7.0 57.25 8.2 57.0 Q9.5 56.65 10.0 55.75 11.3 53.55 10.45 50.65 9.45 46.95 5.35 44.55 3.5 43.5 2.3 43.4 1.2 43.4 0.35 44.1 M17.7 57.35 L18.0 57.45 Q19.25 57.35 21.15 56.45 22.2 56.15 23.0 55.7 L23.65 55.2 23.9 55.0 24.3 54.05 Q24.4 53.55 23.3 53.5 L23.1 53.4 23.2 53.25 22.95 52.9 22.7 52.85 21.4 52.75 19.25 53.15 Q17.8 53.6 17.05 54.7 16.35 55.7 16.4 56.25 16.4 56.7 16.7 57.0 L17.7 57.35" fill="#f5e7a0" fill-rule="evenodd" stroke="none"/>
      <path d="M26.55 51.75 Q26.7 50.3 25.75 48.75 24.5 46.55 24.0 45.0 23.4 43.15 23.85 42.2 L24.0 41.95 24.5 41.05 25.15 40.0 25.1 39.9 25.0 39.65 24.7 39.1 23.6 37.8 22.5 36.95 21.5 36.3 Q20.15 35.5 18.8 35.2 L17.6 35.05 16.6 34.95 13.95 39.0 13.35 39.65 Q11.5 41.3 7.2 41.35 2.2 41.3 0.6 43.55 M0.35 44.1 Q-0.9 46.9 2.35 52.55 L3.95 54.85 6.05 56.9 Q7.0 57.5 7.85 57.7 11.2 58.5 14.75 53.9 14.95 56.2 16.05 56.95 L17.25 57.35 17.7 57.35 18.0 57.45 Q19.25 57.35 21.15 56.45 22.2 56.15 23.0 55.7 L23.95 55.15 Q26.35 53.7 26.55 51.75 M25.1 39.9 L24.0 41.95" fill="none" stroke="#000000" stroke-linecap="round" stroke-linejoin="round" stroke-opacity="0.2" stroke-width="0.30000000000000004"/>
      <path d="M32.25 28.35 L32.15 28.35 32.2 28.4 32.25 28.35 M32.05 28.35 L31.95 28.35 31.9 28.4 32.05 28.35" fill="#fbf2d0" fill-rule="evenodd" stroke="none"/>
      <path d="M36.3 27.1 L36.35 27.0 Q37.15 25.5 35.8 23.4 L34.65 22.0 Q33.35 20.6 31.35 19.45 28.35 17.7 25.7 17.55 L25.55 17.6 25.5 17.55 25.4 17.55 25.35 17.5 25.3 17.6 25.25 17.55 25.1 17.55 24.7 17.55 Q22.85 17.65 22.15 18.85 L22.1 18.9 Q21.35 20.4 22.8 22.55 24.05 24.55 26.5 26.1 L26.6 26.15 31.95 28.35 32.05 28.35 32.15 28.35 32.25 28.35 32.9 28.4 Q35.45 28.5 36.3 27.1 M24.95 22.45 Q23.9 21.0 24.45 19.95 25.05 18.9 26.9 19.05 28.7 19.2 30.7 20.35 32.75 21.5 33.75 23.05 34.75 24.45 34.15 25.5 33.65 26.35 32.4 26.45 L31.8 26.45 Q29.95 26.3 27.9 25.15 26.55 24.35 25.65 23.4 L24.95 22.45" fill="#453e2e" fill-rule="evenodd" stroke="none"/>
      <path d="M22.1 18.9 L14.1 32.75 Q13.35 34.2 14.8 36.4 16.25 38.65 19.25 40.4 22.2 42.1 24.9 42.25 27.1 42.35 28.05 41.25 L28.3 40.95 28.95 39.85 34.8 29.7 36.3 27.1 Q35.45 28.5 32.9 28.4 L32.25 28.35 32.2 28.4 32.15 28.35 32.05 28.35 31.9 28.4 29.25 28.6 26.5 26.1 Q24.05 24.55 22.8 22.55 21.35 20.4 22.1 18.9" fill="#332f25" fill-rule="evenodd" stroke="none"/>
      <path d="M31.95 28.35 L26.6 26.15 26.5 26.1 29.25 28.6 31.9 28.4 31.95 28.35" fill="#71614a" fill-rule="evenodd" stroke="none"/>
      <path d="M24.95 22.45 L25.65 23.4 Q26.55 24.35 27.9 25.15 29.95 26.3 31.8 26.45 L32.4 26.45 Q33.65 26.35 34.15 25.5 34.75 24.45 33.75 23.05 32.75 21.5 30.7 20.35 28.7 19.2 26.9 19.05 25.05 18.9 24.45 19.95 23.9 21.0 24.95 22.45" fill="#13110f" fill-rule="evenodd" stroke="none"/>
      <path d="M36.3 27.1 L36.35 27.0 Q37.15 25.5 35.8 23.4 L34.65 22.0 Q33.35 20.6 31.35 19.45 28.35 17.7 25.7 17.55 L25.55 17.6 25.5 17.55 25.4 17.55 25.35 17.5 25.3 17.6 25.25 17.55 25.1 17.55 24.7 17.55 Q22.85 17.65 22.15 18.85 L22.1 18.9 14.1 32.75 Q13.35 34.2 14.8 36.4 16.25 38.65 19.25 40.4 22.2 42.1 24.9 42.25 27.1 42.35 28.05 41.25 L28.3 40.95 28.95 39.85 M34.8 29.7 L36.3 27.1 M24.95 22.45 L25.65 23.4 Q26.55 24.35 27.9 25.15 29.95 26.3 31.8 26.45 L32.4 26.45 Q33.65 26.35 34.15 25.5 34.75 24.45 33.75 23.05 32.75 21.5 30.7 20.35 28.7 19.2 26.9 19.05 25.05 18.9 24.45 19.95 23.9 21.0 24.95 22.45" fill="none" stroke="#000000" stroke-linecap="round" stroke-linejoin="round" stroke-opacity="0.2" stroke-width="0.30000000000000004"/>
      <path d="M18.2 26.65 L18.95 26.55 Q20.95 26.3 21.4 27.9 21.75 29.3 20.35 29.6 L20.05 28.7 Q19.2 26.95 18.15 26.7 L18.1 26.7 18.2 26.65 M17.05 28.85 Q17.4 29.85 18.5 30.45 L21.2 30.6 Q22.8 30.3 21.55 31.15 20.4 32.05 19.05 32.0 L17.0 31.45 Q16.3 31.0 16.15 29.1 16.1 28.25 16.3 27.95 L16.55 27.85 17.05 28.85 M15.65 29.55 Q15.75 31.05 16.9 31.95 18.05 32.9 19.55 32.7 21.05 32.55 22.0 31.4 22.95 30.25 22.85 28.75 22.75 27.35 21.55 26.4 20.45 25.5 18.95 25.65 17.45 25.8 16.45 26.95 15.55 28.1 15.65 29.55" fill="#5e5b47" fill-rule="evenodd" stroke="none"/>
      <path d="M18.15 26.7 Q19.2 26.95 20.05 28.7 L20.35 29.6 Q21.75 29.3 21.4 27.9 20.95 26.3 18.95 26.55 L18.2 26.65 18.15 26.7" fill="#a19f8c" fill-rule="evenodd" stroke="none"/>
      <path d="M17.05 28.85 L16.55 27.85 16.3 27.95 Q16.1 28.25 16.15 29.1 16.3 31.0 17.0 31.45 L19.05 32.0 Q20.4 32.05 21.55 31.15 22.8 30.3 21.2 30.6 L18.5 30.45 Q17.4 29.85 17.05 28.85" fill="#4f4c3c" fill-rule="evenodd" stroke="none"/>
      <path d="M18.2 26.65 L18.1 26.7 18.15 26.7 18.2 26.65" fill="#575342" fill-rule="evenodd" stroke="none"/>
      <path d="M15.65 29.55 Q15.75 31.05 16.9 31.95 18.05 32.9 19.55 32.7 21.05 32.55 22.0 31.4 22.95 30.25 22.85 28.75 22.75 27.35 21.55 26.4 20.45 25.5 18.95 25.65 17.45 25.8 16.45 26.95 15.55 28.1 15.65 29.55 Z" fill="none" stroke="#000000" stroke-linecap="round" stroke-linejoin="round" stroke-opacity="0.3019608" stroke-width="0.05"/>
      <path d="M39.7 2.15 Q42.05 4.7 39.85 10.05 41.95 9.05 43.25 9.65 42.15 9.5 41.15 11.45 40.15 13.3 40.95 16.45 L41.3 17.6 41.3 17.75 Q42.15 19.7 43.9 21.4 42.75 22.15 40.9 22.2 35.4 22.15 34.25 23.8 L34.15 24.0 32.9 26.05 32.65 26.0 32.05 26.0 30.35 25.75 29.05 25.25 28.0 24.7 25.7 22.9 24.95 21.9 24.4 21.15 26.55 16.85 Q27.75 14.2 25.2 9.8 22.7 5.5 23.9 3.0 23.65 4.2 24.3 5.2 25.05 6.3 27.0 7.45 31.4 9.95 35.35 8.9 38.6 8.05 40.0 5.65 40.5 4.75 40.25 3.4 L39.7 2.15 M38.15 12.2 Q35.5 13.7 31.25 13.35 34.55 14.6 35.55 16.0 L36.7 17.7 Q35.75 14.15 37.9 12.45 L38.15 12.2" fill="#b9a870" fill-rule="evenodd" stroke="none"/>
      <path d="M38.15 12.2 L37.9 12.45 Q35.75 14.15 36.7 17.7 L35.55 16.0 Q34.55 14.6 31.25 13.35 35.5 13.7 38.15 12.2" fill="#94865a" fill-rule="evenodd" stroke="none"/>
      <path d="M43.25 9.65 L44.1 10.5 44.35 10.85 Q43.85 10.15 43.5 10.25 L42.75 10.3 Q42.25 10.5 41.7 11.65 41.15 12.8 41.5 14.25 41.85 15.8 42.2 16.35 L42.9 17.45 43.1 17.65 Q43.4 17.85 43.6 17.65 L43.7 17.5 43.8 17.65 Q44.4 18.55 44.8 18.25 L45.35 17.4 45.45 17.1 45.55 16.3 45.6 17.35 Q45.5 20.25 43.9 21.4 42.15 19.7 41.3 17.75 L41.3 17.6 40.95 16.45 Q40.15 13.3 41.15 11.45 42.15 9.5 43.25 9.65 M23.9 3.0 L24.25 2.5 Q24.0 3.55 24.55 4.5 25.2 5.55 27.05 6.6 31.15 8.95 34.9 7.9 37.85 7.15 39.15 4.95 39.65 4.1 39.3 2.8 L38.85 1.7 38.15 1.0 39.7 2.15 40.25 3.4 Q40.5 4.75 40.0 5.65 38.6 8.05 35.35 8.9 31.4 9.95 27.0 7.45 25.05 6.3 24.3 5.2 23.65 4.2 23.9 3.0" fill="#c9b67a" fill-rule="evenodd" stroke="none"/>
      <path d="M44.35 10.85 L44.55 11.05 Q45.15 12.25 45.25 14.3 L45.55 16.3 45.45 17.1 45.35 17.4 44.8 18.25 Q44.4 18.55 43.8 17.65 L43.7 17.5 43.6 17.65 Q43.4 17.85 43.1 17.65 L42.9 17.45 42.2 16.35 Q41.85 15.8 41.5 14.25 41.15 12.8 41.7 11.65 42.25 10.5 42.75 10.3 L43.5 10.25 Q43.85 10.15 44.35 10.85 M24.25 2.5 Q26.0 0.05 32.5 0.0 L35.25 0.2 Q36.95 0.4 38.15 1.0 L38.85 1.7 39.3 2.8 Q39.65 4.1 39.15 4.95 37.85 7.15 34.9 7.9 31.15 8.95 27.05 6.6 25.2 5.55 24.55 4.5 24.0 3.55 24.25 2.5" fill="#f5e7a0" fill-rule="evenodd" stroke="none"/>
      <path d="M39.7 2.15 Q42.05 4.7 39.85 10.05 41.95 9.05 43.25 9.65 L44.1 10.5 44.35 10.85 44.55 11.05 Q45.15 12.25 45.25 14.3 L45.55 16.3 45.6 17.35 Q45.5 20.25 43.9 21.4 42.75 22.15 40.9 22.2 35.4 22.15 34.25 23.8 L34.15 24.0 33.6 24.9 33.0 26.0 32.9 26.05 32.65 26.0 32.05 26.0 30.35 25.75 29.05 25.25 28.0 24.7 25.7 22.9 24.95 21.9 24.4 21.15 26.55 16.85 Q27.75 14.2 25.2 9.8 22.7 5.5 23.9 3.0 M24.25 2.5 Q26.0 0.05 32.5 0.0 L35.25 0.2 Q36.95 0.4 38.15 1.0 L39.7 2.15 M32.9 26.05 L34.15 24.0" fill="none" stroke="#000000" stroke-linecap="round" stroke-linejoin="round" stroke-opacity="0.2" stroke-width="0.30000000000000004"/>
    </g>
    <g id="shape2" transform="matrix(1.0, 0.0, 0.0, 1.0, -20.7, 0.0)">
      <path d="M65.0 43.35 L61.9 51.55 54.8 53.75 Q47.8 55.8 48.45 55.25 L49.6 53.5 Q50.75 51.75 52.1 50.3 56.6 45.6 65.0 43.35" fill="#292626" fill-rule="evenodd" stroke="none"/>
      <path d="M65.0 43.35 L61.9 51.55 54.8 53.75 Q47.8 55.8 48.45 55.25 L49.6 53.5 Q50.75 51.75 52.1 50.3 56.6 45.6 65.0 43.35 L65.2 42.75" fill="none" stroke="#000000" stroke-linecap="round" stroke-linejoin="round" stroke-opacity="0.3019608" stroke-width="0.05"/>
      <path d="M61.3 49.35 Q61.25 48.05 62.25 46.35 63.3 44.45 65.1 42.9 63.35 46.45 68.95 47.2 77.4 40.85 85.1 38.05 L87.9 40.45 Q86.85 39.7 84.7 40.0 L84.15 40.1 Q82.0 40.55 79.65 42.05 L73.1 46.15 Q69.6 48.45 67.95 51.4 66.7 53.55 67.1 55.1 L69.55 62.25 70.1 63.05 68.75 61.9 66.0 53.05 Q64.45 47.05 61.3 49.35" fill="#454242" fill-rule="evenodd" stroke="none"/>
      <path d="M87.9 40.45 L88.25 40.85 88.6 41.45 91.05 48.65 Q91.65 50.1 90.4 52.35 88.65 55.35 85.05 57.6 L78.5 61.75 Q75.85 63.5 73.45 63.85 L71.0 63.65 70.1 63.05 69.55 62.25 67.1 55.1 Q66.7 53.55 67.95 51.4 69.6 48.45 73.1 46.15 L79.65 42.05 Q82.0 40.55 84.15 40.1 L84.7 40.0 Q86.85 39.7 87.9 40.45 M73.65 56.15 L74.15 57.45 Q74.55 58.5 76.25 58.2 77.6 57.95 79.05 57.0 L82.7 54.7 Q84.65 53.4 85.65 51.8 86.3 50.6 86.0 49.85 L84.65 46.25 Q84.25 45.25 82.5 45.6 L82.2 45.65 81.6 45.85 Q80.7 46.2 79.7 46.8 L76.1 49.1 Q74.15 50.35 73.25 51.9 72.55 53.05 72.75 53.85 L73.65 56.15" fill="#272424" fill-rule="evenodd" stroke="none"/>
      <path d="M65.1 42.9 Q66.1 41.95 67.4 41.15 L73.95 37.0 Q76.6 35.35 79.0 34.95 81.15 34.65 82.15 35.4 L82.35 35.6 85.1 38.05 Q77.4 40.85 68.95 47.2 63.35 46.45 65.1 42.9" fill="#5e5e5e" fill-rule="evenodd" stroke="none"/>
      <path d="M68.75 61.9 L64.85 58.45 64.35 58.0 63.85 57.2 61.4 50.05 61.3 49.35 Q64.45 47.05 66.0 53.05 L68.75 61.9" fill="#302e2e" fill-rule="evenodd" stroke="none"/>
      <path d="M73.65 56.15 L75.5 55.2 79.1 52.9 Q81.1 51.6 82.05 50.0 82.75 48.8 82.45 48.05 L81.6 45.85 82.2 45.65 82.5 45.6 Q84.25 45.25 84.65 46.25 L86.0 49.85 Q86.3 50.6 85.65 51.8 84.65 53.4 82.7 54.7 L79.05 57.0 Q77.6 57.95 76.25 58.2 74.55 58.5 74.15 57.45 L73.65 56.15" fill="#121010" fill-rule="evenodd" stroke="none"/>
      <path d="M68.75 61.9 L64.85 58.45 64.35 58.0 63.85 57.2 61.4 50.05 61.3 49.35 Q61.25 48.05 62.25 46.35 63.3 44.45 65.1 42.9 66.1 41.95 67.4 41.15 L73.95 37.0 Q76.6 35.35 79.0 34.95 81.15 34.65 82.15 35.4 L82.35 35.6 85.1 38.05 87.9 40.45 88.25 40.85 88.6 41.45 91.05 48.65 Q91.65 50.1 90.4 52.35 88.65 55.35 85.05 57.6 L78.5 61.75 Q75.85 63.5 73.45 63.85 L71.0 63.65 70.1 63.05 68.75 61.9 M70.1 63.05 L69.55 62.25 67.1 55.1 Q66.7 53.55 67.95 51.4 69.6 48.45 73.1 46.15 L79.65 42.05 Q82.0 40.55 84.15 40.1 L84.7 40.0 Q86.85 39.7 87.9 40.45" fill="none" stroke="#000000" stroke-linecap="round" stroke-linejoin="round" stroke-opacity="0.3019608" stroke-width="0.05"/>
      <path d="M137.45 20.25 L139.35 22.45 140.7 24.25 Q148.05 36.7 144.05 55.3 141.0 69.2 131.65 70.4 123.3 72.05 109.65 62.2 99.2 54.6 90.9 51.3 L89.5 50.75 Q89.4 48.9 90.85 47.95 91.85 47.3 93.65 47.1 103.1 50.75 114.8 59.25 125.65 67.1 132.0 66.35 135.7 65.4 137.75 60.85 139.5 58.35 140.5 53.95 144.95 33.15 132.85 21.3 120.55 9.4 103.2 12.65 83.5 16.3 55.35 7.5 42.55 3.55 36.25 4.3 32.95 4.75 32.6 7.4 31.35 8.35 31.35 10.2 32.05 21.25 46.9 35.5 51.4 39.8 55.7 42.4 55.45 46.35 52.3 46.5 50.35 45.4 48.35 43.95 44.8 41.4 41.1 37.9 35.85 32.85 32.2 28.2 L30.9 26.45 31.05 26.35 Q26.4 18.7 26.25 11.95 25.75 3.0 35.45 1.65 42.6 0.55 57.25 5.1 83.65 13.35 102.0 10.05 L102.0 10.1 Q122.7 6.25 137.3 20.35 L137.45 20.25" fill="#4d3b32" fill-rule="evenodd" stroke="none"/>
      <path d="M32.6 7.4 Q32.95 4.75 36.25 4.3 42.55 3.55 55.35 7.5 83.5 16.3 103.2 12.65 120.55 9.4 132.85 21.3 144.95 33.15 140.5 53.95 139.5 58.35 137.75 60.85 138.65 58.85 139.25 56.15 143.75 35.35 131.6 23.5 119.3 11.6 101.95 14.85 82.3 18.5 54.1 9.7 41.3 5.75 35.05 6.5 33.5 6.7 32.6 7.4" fill="#2e231f" fill-rule="evenodd" stroke="none"/>
      <path d="M137.45 20.25 L137.3 20.35 Q122.7 6.25 102.0 10.1 L102.0 10.05 Q83.65 13.35 57.25 5.1 42.6 0.55 35.45 1.65 25.75 3.0 26.25 11.95 26.4 18.7 31.05 26.35 L30.9 26.45 29.8 24.9 Q25.15 17.25 25.0 10.5 24.5 1.55 34.2 0.2 41.4 -0.9 56.0 3.65 82.4 11.9 100.8 8.6 L100.8 8.65 Q121.45 4.8 136.05 18.9 L137.45 20.25" fill="#614941" fill-rule="evenodd" stroke="none"/>
      <path d="M30.9 26.45 L32.2 28.2 Q35.85 32.85 41.1 37.9 44.8 41.4 48.35 43.95 50.35 45.4 52.3 46.5 55.45 46.35 55.7 42.4 59.3 44.55 62.75 45.55 L62.25 46.35 Q61.0 48.5 61.4 50.05 L62.15 52.2 Q56.1 50.7 49.8 46.15 46.2 43.6 42.55 40.1 38.8 36.5 35.85 33.1 32.2 28.85 29.8 24.9 L30.9 26.45 M93.65 47.1 Q91.85 47.3 90.85 47.95 89.4 48.9 89.5 50.75 L90.9 51.3 Q99.2 54.6 109.65 62.2 123.3 72.05 131.65 70.4 141.0 69.2 144.05 55.3 148.05 36.7 140.7 24.25 149.8 37.2 145.45 57.5 142.45 71.4 133.05 72.6 124.7 74.25 111.1 64.4 99.25 55.85 90.2 52.7 L89.9 52.6 85.85 51.45 Q80.05 50.25 75.55 51.6 L73.05 52.35 73.25 51.9 Q74.15 50.35 76.1 49.1 L79.7 46.8 Q81.0 46.0 81.7 45.8 81.9 45.7 82.25 45.55 L83.05 45.2 Q84.4 44.6 85.05 44.7 L90.1 45.9 93.65 47.1" fill="#1a1311" fill-rule="evenodd" stroke="none"/>
      <path d="M140.7 24.25 L139.35 22.45 137.45 20.25 136.05 18.9 Q121.45 4.8 100.8 8.65 L100.8 8.6 Q82.4 11.9 56.0 3.65 41.4 -0.9 34.2 0.2 24.5 1.55 25.0 10.5 25.15 17.25 29.8 24.9 32.2 28.85 35.85 33.1 38.8 36.5 42.55 40.1 46.2 43.6 49.8 46.15 56.1 50.7 62.15 52.2 M55.7 42.4 Q51.4 39.8 46.9 35.5 32.05 21.25 31.35 10.2 31.35 8.35 32.6 7.4 33.5 6.7 35.05 6.5 41.3 5.75 54.1 9.7 82.3 18.5 101.95 14.85 119.3 11.6 131.6 23.5 143.75 35.35 139.25 56.15 138.65 58.85 137.75 60.85 135.7 65.4 132.0 66.35 125.65 67.1 114.8 59.25 103.1 50.75 93.65 47.1 M140.7 24.25 Q149.8 37.2 145.45 57.5 142.45 71.4 133.05 72.6 124.7 74.25 111.1 64.4 99.25 55.85 90.2 52.7 L89.9 52.6 85.85 51.45 Q80.05 50.25 75.55 51.6 L73.05 52.35 M83.05 45.2 Q84.4 44.6 85.05 44.7 L90.1 45.9 93.65 47.1 M62.75 45.55 Q59.3 44.55 55.7 42.4" fill="none" stroke="#000000" stroke-linecap="round" stroke-linejoin="round" stroke-opacity="0.2" stroke-width="0.05"/>
      <path d="M54.75 60.25 L55.25 60.0 54.25 60.4 50.1 61.2 46.1 63.3 45.05 63.65 44.1 63.8 44.8 63.75 45.05 63.65 45.55 63.55 34.1 67.6 29.95 74.8 30.9 79.4 34.45 96.3 40.8 99.7 62.1 92.05 66.2 84.85 62.85 68.45 61.8 63.4 55.5 60.0 54.75 60.25 M27.45 104.7 L20.7 72.35 27.0 61.45 59.15 49.95 68.7 55.1 75.45 87.4 69.2 98.2 68.75 98.35 65.6 98.85 60.0 101.55 59.7 101.7 60.0 101.55 41.1 108.3 41.2 108.2 40.75 108.35 33.2 107.7 27.45 104.7" fill="#474444" fill-rule="evenodd" stroke="none"/>
      <path d="M54.75 60.25 L55.5 60.0 61.8 63.4 62.85 68.45 56.2 64.9 34.95 72.45 34.1 67.6 45.55 63.55 49.5 62.5 50.95 62.9 54.75 60.25 M79.5 93.65 L73.3 104.45 41.1 116.0 37.45 110.4 37.7 110.55 41.1 108.3 60.0 101.55 59.7 101.7 60.0 101.55 63.65 100.85 68.75 98.35 69.2 98.2 75.45 87.4 79.5 93.65" fill="#292626" fill-rule="evenodd" stroke="none"/>
      <path d="M45.55 63.55 L45.05 63.65 44.8 63.75 44.1 63.8 45.05 63.65 46.1 63.3 50.1 61.2 54.25 60.4 55.25 60.0 54.75 60.25 50.95 62.9 49.5 62.5 45.55 63.55 46.1 63.3 45.55 63.55 M30.9 79.4 L29.95 74.8 34.1 67.6 34.95 72.45 30.9 79.4 M54.25 60.4 L54.75 60.25 54.25 60.4 M68.7 55.1 L72.75 61.3 79.5 93.65 75.45 87.4 68.7 55.1" fill="#121010" fill-rule="evenodd" stroke="none"/>
      <path d="M41.1 116.0 L31.55 110.85 27.45 104.7 33.2 107.7 33.15 107.7 37.45 110.4 41.1 116.0" fill="#525050" fill-rule="evenodd" stroke="none"/>
      <path d="M68.75 98.35 L63.65 100.85 60.0 101.55 65.6 98.85 68.75 98.35 M41.1 108.3 L37.7 110.55 37.45 110.4 33.15 107.7 33.2 107.7 40.75 108.35 41.2 108.2 41.1 108.3" fill="#6c6868" fill-rule="evenodd" stroke="none"/>
      <path d="M54.75 60.25 L55.5 60.0 61.8 63.4 62.85 68.45 M30.9 79.4 L29.95 74.8 34.1 67.6 45.55 63.55 46.1 63.3 M54.75 60.25 L54.25 60.4 M68.7 55.1 L72.75 61.3 79.5 93.65 73.3 104.45 41.1 116.0 31.55 110.85 27.45 104.7 20.7 72.35 27.0 61.45 59.15 49.95 68.7 55.1 75.45 87.4 79.5 93.65 M75.45 87.4 L69.2 98.2 68.75 98.35 M60.0 101.55 L59.7 101.7 60.0 101.55 41.1 108.3 M37.45 110.4 L41.1 116.0 M34.95 72.45 L34.1 67.6 M33.2 107.7 L27.45 104.7" fill="none" stroke="#000000" stroke-linecap="round" stroke-linejoin="round" stroke-opacity="0.3529412" stroke-width="0.05"/>
      <path d="M40.45 86.75 L55.35 65.25 56.2 64.9 62.85 68.45 62.95 69.05 62.55 68.6 60.95 70.1 60.4 73.35 63.2 73.85 45.9 97.9 40.8 99.7 34.45 96.3 34.3 95.65 40.45 86.75" fill="#7d6133" fill-rule="evenodd" stroke="none"/>
      <path d="M40.45 86.75 L45.6 77.5 51.05 66.75 55.35 65.25 40.45 86.75" fill="#48362d" fill-rule="evenodd" stroke="none"/>
      <path d="M51.05 66.75 L45.6 77.5 40.45 86.75 34.3 95.65 30.9 79.4 34.95 72.45 35.5 72.25 35.75 72.6 37.55 72.9 36.1 75.95 39.05 74.65 40.3 70.55 51.05 66.75" fill="#73592f" fill-rule="evenodd" stroke="none"/>
      <path d="M63.85 73.35 L64.65 77.15 63.3 78.85 64.8 80.15 65.25 80.15 66.2 84.85 62.1 92.05 51.95 95.7 54.15 92.65 50.95 93.5 49.3 96.45 49.85 96.45 45.9 97.9 63.2 73.85 63.35 73.9 63.85 73.35 M60.0 86.4 L57.85 88.65 56.1 90.15 58.15 90.85 60.4 90.05 61.85 87.25 60.0 86.4 M60.4 90.05 L60.3 90.25 60.95 89.85 60.4 90.05" fill="#8f6f3a" fill-rule="evenodd" stroke="none"/>
      <path d="M40.3 70.55 L39.05 74.65 36.1 75.95 37.55 72.9 35.75 72.6 35.5 72.25 40.3 70.55 M62.95 69.05 L63.75 73.05 63.85 73.35 63.35 73.9 63.2 73.85 60.4 73.35 60.95 70.1 62.55 68.6 62.95 69.05 M64.65 77.15 L65.25 80.15 64.8 80.15 63.3 78.85 64.65 77.15 M51.95 95.7 L49.85 96.45 49.3 96.45 50.95 93.5 54.15 92.65 51.95 95.7 M63.75 73.05 L63.2 73.85 63.75 73.05 M60.0 86.4 L61.85 87.25 60.4 90.05 58.15 90.85 56.1 90.15 57.85 88.65 60.0 86.4 M60.4 90.05 L60.95 89.85 60.3 90.25 60.4 90.05" fill="#a8968c" fill-rule="evenodd" stroke="none"/>
      <path d="M51.05 66.75 L45.6 77.5 40.45 86.75 55.35 65.25 51.05 66.75 40.3 70.55 M35.5 72.25 L34.95 72.45 30.9 79.4 34.3 95.65 40.45 86.75 M55.35 65.25 L56.2 64.9 62.85 68.45 62.95 69.05 63.75 73.05 63.85 73.35 64.65 77.15 65.25 80.15 66.2 84.85 62.1 92.05 51.95 95.7 49.85 96.45 45.9 97.9 40.8 99.7 34.45 96.3 34.3 95.65 M63.2 73.85 L63.75 73.05 M63.2 73.85 L45.9 97.9 M35.5 72.25 L40.3 70.55" fill="none" stroke="#000000" stroke-linecap="round" stroke-linejoin="round" stroke-opacity="0.3529412" stroke-width="0.05"/>
      <path d="M62.85 68.45 L64.7 77.6 61.4 71.05 55.3 68.65 35.9 75.7 31.9 84.1 30.9 79.4 34.95 72.45 56.2 64.9 62.85 68.45" fill="#000000" fill-opacity="0.37254903" fill-rule="evenodd" stroke="none"/>
    </g>
    <g id="sprite2" transform="matrix(1.0, 0.0, 0.0, 1.0, 132.6, 237.85)">
      <use height="485.85" transform="matrix(1.0, 0.0, 0.0, 1.0, -132.6, -237.85)" width="271.6" xlink:href="#shape3"/>
    </g>
    <g id="shape3" transform="matrix(1.0, 0.0, 0.0, 1.0, 132.6, 237.85)">
      <path d="M12.4 -211.55 Q17.55 -223.25 23.25 -234.7 35.75 -226.0 44.4 -210.1 L38.5 -208.55 38.5 -147.6 60.75 -179.05 Q78.55 -153.0 104.4 -148.3 110.25 -147.35 116.05 -145.8 L116.95 -145.25 111.2 -63.25 131.15 -55.5 131.25 51.0 139.0 121.05 130.85 129.75 121.3 89.1 94.05 91.35 94.4 55.75 86.55 98.6 Q85.05 106.95 85.3 114.8 85.4 117.9 87.1 118.85 97.85 124.55 108.3 113.9 L109.35 152.45 101.3 160.95 85.6 229.9 70.8 222.0 69.4 219.35 55.9 186.65 31.15 217.0 36.5 226.05 Q22.0 233.3 8.65 245.45 1.35 252.0 -3.95 241.65 -22.25 206.2 -31.45 162.2 L-33.15 153.35 -34.0 148.65 -34.3 146.85 -44.2 156.0 -46.3 145.15 -70.7 138.7 -62.8 165.35 -99.25 170.75 -99.6 175.9 -99.75 175.95 Q-105.15 163.25 -112.25 152.8 -119.9 141.45 -124.2 127.55 -128.15 114.85 -129.25 100.0 -129.55 96.4 -104.75 92.55 -128.3 89.5 -126.5 86.35 L-125.75 85.1 -124.95 83.9 -127.2 65.45 -98.45 14.2 -79.55 9.1 -93.8 -14.45 -123.3 8.5 -132.6 -9.85 -108.45 -52.4 -75.7 -73.55 -70.75 -93.05 -50.4 -112.3 -76.35 -124.6 -62.1 -159.95 -82.7 -201.9 Q-60.65 -207.8 -38.7 -214.6 -33.9 -216.15 -30.65 -221.55 -24.85 -231.4 -17.8 -237.85 L-28.25 -216.4 -13.6 -216.5 Q-1.2 -208.55 11.6 -210.7 12.1 -210.85 12.4 -211.55 M44.75 -113.7 L34.85 -99.55 34.9 -89.85 29.0 -87.5 20.75 -69.25 46.3 -82.15 44.75 -113.7 M73.85 -68.85 Q65.65 -66.15 60.9 -57.85 L82.55 -38.2 Q70.75 -36.8 63.15 -23.4 62.25 -21.9 63.05 -19.65 70.1 0.65 81.0 15.0 92.15 -7.15 101.55 -31.45 102.65 -34.2 101.7 -37.15 99.25 -44.6 94.3 -48.7 90.25 -52.05 85.9 -54.5 83.3 -65.9 77.4 -68.75 L73.85 -68.85 M-47.2 21.95 L-54.8 16.2 -74.5 31.7 -84.45 87.45 -58.6 91.85 -54.7 60.6 -42.15 49.35 -47.2 21.95" fill="url(#gradient0)" fill-rule="evenodd" stroke="none"/>
      <path d="M-24.7 81.05 Q-22.65 85.7 -21.2 92.15 -22.2 102.5 -23.8 108.5 -31.3 111.5 -39.1 110.05 L-39.15 95.7 Q-36.75 87.8 -35.85 84.15 L-32.3 79.2 -30.05 76.7 -24.7 81.05" fill="#998577" fill-opacity="0.5019608" fill-rule="evenodd" stroke="none"/>
      <path d="M-32.0 -68.1 Q-36.1 -63.65 -37.3 -63.35 -39.85 -63.05 -36.3 -68.6 -33.6 -69.75 -32.0 -68.1 M-42.35 -91.05 L-32.7 -85.15 -37.95 -74.75 Q-51.0 -69.85 -53.1 -76.8 L-53.05 -77.55 Q-51.0 -89.3 -42.35 -91.05" fill="#998577" fill-opacity="0.5019608" fill-rule="evenodd" stroke="none"/>
      <path d="M1.4 43.25 Q-0.3 45.9 -3.45 47.45 -6.7 48.95 -14.45 50.0 -15.85 45.5 -16.35 39.3 -16.65 36.05 -15.25 32.95 -12.05 30.05 -7.8 27.35 L-1.3 30.75 1.4 43.25" fill="#998577" fill-rule="evenodd" stroke="none"/>
      <path d="M84.1 -49.8 Q87.55 -52.65 95.45 -54.95 95.55 -50.0 94.25 -44.4 L93.05 -39.9 Q83.1 -46.35 84.1 -49.8 M82.2 -55.05 Q76.6 -59.65 76.2 -61.95 79.8 -72.4 83.6 -78.45 94.55 -69.4 95.15 -59.05 L82.2 -55.05" fill="#998577" fill-opacity="0.5019608" fill-rule="evenodd" stroke="none"/>
      <path d="M68.3 102.9 Q67.6 127.7 63.3 143.1 53.2 143.1 42.55 140.65 40.65 140.05 38.9 138.55 39.85 120.0 48.75 104.6 54.3 101.8 68.3 102.9" fill="#998577" fill-opacity="0.5019608" fill-rule="evenodd" stroke="none"/>
      <path d="M-6.25 93.9 Q-4.1 98.7 -2.65 105.4 -3.65 116.05 -5.3 122.25 -13.05 125.35 -21.1 123.8 L-21.15 109.0 Q-18.7 100.85 -17.75 97.1 L-14.1 92.0 -11.75 89.4 -6.25 93.9" fill="#998577" fill-opacity="0.3019608" fill-rule="evenodd" stroke="none"/>
      <path d="M-46.35 59.55 L-41.25 62.65 -44.0 68.15 Q-50.9 70.75 -52.0 67.05 L-51.95 66.7 Q-50.9 60.5 -46.35 59.55 M-40.85 71.65 Q-43.05 74.0 -43.65 74.15 -45.0 74.3 -43.15 71.4 -41.7 70.8 -40.85 71.65" fill="#998577" fill-opacity="0.3019608" fill-rule="evenodd" stroke="none"/>
      <path d="M-23.25 130.4 Q-24.15 131.8 -25.8 132.6 -27.5 133.4 -31.6 133.95 -32.35 131.6 -32.6 128.3 -32.75 126.6 -32.0 124.95 -30.35 123.45 -28.1 122.0 L-24.7 123.8 -23.25 130.4" fill="#998577" fill-opacity="0.3019608" fill-rule="evenodd" stroke="none"/>
      <path d="M19.35 78.5 Q16.4 76.1 16.15 74.9 18.05 69.35 20.1 66.15 25.85 70.95 26.2 76.4 L19.35 78.5 M20.35 81.3 Q22.15 79.8 26.35 78.55 26.4 81.2 25.7 84.15 L25.05 86.5 Q19.8 83.1 20.35 81.3" fill="#998577" fill-opacity="0.3019608" fill-rule="evenodd" stroke="none"/>
      <path d="M12.0 161.85 Q11.65 174.95 9.4 183.05 4.05 183.05 -1.55 181.75 L-3.5 180.7 Q-3.0 170.9 1.7 162.75 4.6 161.3 12.0 161.85" fill="#998577" fill-opacity="0.3019608" fill-rule="evenodd" stroke="none"/>
      <path d="M-0.9 -29.1 Q-3.05 -33.9 -4.5 -40.6 -3.5 -51.25 -1.85 -57.45 5.9 -60.55 13.95 -59.0 L14.0 -44.2 Q11.55 -36.05 10.6 -32.3 L6.95 -27.2 4.6 -24.6 -0.9 -29.1" fill="#998577" fill-opacity="0.3019608" fill-rule="evenodd" stroke="none"/>
      <path d="M33.7 -6.85 Q35.9 -9.2 36.5 -9.35 37.85 -9.5 36.0 -6.6 34.55 -6.0 33.7 -6.85 M39.2 5.25 L34.1 2.15 36.85 -3.35 Q43.75 -5.95 44.85 -2.25 L44.8 -1.9 Q43.75 4.3 39.2 5.25" fill="#998577" fill-opacity="0.3019608" fill-rule="evenodd" stroke="none"/>
      <path d="M16.1 -65.6 Q17.0 -67.0 18.65 -67.8 20.35 -68.6 24.45 -69.15 25.2 -66.8 25.45 -63.5 25.6 -61.8 24.85 -60.15 23.2 -58.65 20.95 -57.2 L17.55 -59.0 16.1 -65.6" fill="#998577" fill-opacity="0.3019608" fill-rule="evenodd" stroke="none"/>
      <path d="M-27.5 -16.5 Q-29.3 -15.0 -33.5 -13.75 -33.55 -16.4 -32.85 -19.35 L-32.2 -21.7 Q-26.95 -18.3 -27.5 -16.5 M-26.5 -13.7 Q-23.55 -11.3 -23.3 -10.1 -25.2 -4.55 -27.25 -1.35 -33.0 -6.15 -33.35 -11.6 L-26.5 -13.7" fill="#998577" fill-opacity="0.3019608" fill-rule="evenodd" stroke="none"/>
      <path d="M-19.15 -97.05 Q-18.8 -110.15 -16.55 -118.25 -11.2 -118.25 -5.6 -116.95 -4.6 -116.65 -3.65 -115.9 -4.15 -106.1 -8.85 -97.95 -11.75 -96.5 -19.15 -97.05" fill="#998577" fill-opacity="0.3019608" fill-rule="evenodd" stroke="none"/>
      <path d="M90.35 36.2 Q88.2 41.0 86.75 47.7 87.75 58.35 89.4 64.55 97.15 67.65 105.2 66.1 L105.25 51.3 Q102.8 43.15 101.85 39.4 L98.2 34.3 95.85 31.7 90.35 36.2" fill="#998577" fill-opacity="0.3019608" fill-rule="evenodd" stroke="none"/>
      <path d="M130.45 1.85 L125.35 4.95 128.1 10.45 Q135.0 13.05 136.1 9.35 L136.05 9.0 Q135.0 2.8 130.45 1.85 M124.95 13.95 Q127.15 16.3 127.75 16.45 129.1 16.6 127.25 13.7 125.8 13.1 124.95 13.95" fill="#998577" fill-opacity="0.3019608" fill-rule="evenodd" stroke="none"/>
      <path d="M107.35 72.7 Q108.25 74.1 109.9 74.9 111.6 75.7 115.7 76.25 116.45 73.9 116.7 70.6 116.85 68.9 116.1 67.25 114.45 65.75 112.2 64.3 L108.8 66.1 107.35 72.7" fill="#998577" fill-opacity="0.3019608" fill-rule="evenodd" stroke="none"/>
      <path d="M64.75 20.8 Q67.7 18.4 67.95 17.2 66.05 11.65 64.0 8.45 58.25 13.25 57.9 18.7 L64.75 20.8 M63.75 23.6 Q61.95 22.1 57.75 20.85 57.7 23.5 58.4 26.45 L59.05 28.8 Q64.3 25.4 63.75 23.6" fill="#998577" fill-opacity="0.3019608" fill-rule="evenodd" stroke="none"/>
      <path d="M72.1 104.15 Q72.45 117.25 74.7 125.35 80.05 125.35 85.65 124.05 86.65 123.75 87.6 123.0 87.1 113.2 82.4 105.05 79.5 103.6 72.1 104.15" fill="#998577" fill-opacity="0.3019608" fill-rule="evenodd" stroke="none"/>
    </g>
    <radialGradient cx="0" cy="0" gradientTransform="matrix(0.2019, 0.0, 0.0, 0.3198, 3.45, -6.9)" gradientUnits="userSpaceOnUse" id="gradient0" r="819.2" spreadMethod="pad">
      <stop offset="0.0" stop-color="#bfada2" stop-opacity="0.5019608"/>
      <stop offset="1.0" stop-color="#bfada2" stop-opacity="0.0"/>
    </radialGradient>
    <g id="shape4" transform="matrix(1.0, 0.0, 0.0, 1.0, -73.35, -47.2)">
      <path d="M78.5 71.2 L77.05 63.95 81.7 48.65 82.0 48.8 Q83.5 51.5 83.4 56.15 83.35 63.5 78.5 71.2" fill="#292626" fill-rule="evenodd" stroke="none"/>
      <path d="M81.7 48.65 L77.05 63.95 78.5 71.2 75.7 75.25 73.35 63.3 Q76.4 59.25 73.35 52.4 L74.75 50.1 79.45 47.2 81.7 48.65" fill="#121010" fill-rule="evenodd" stroke="none"/>
      <path d="M81.7 48.65 L79.45 47.2 74.75 50.1 73.35 52.4 Q76.4 59.25 73.35 63.3 L75.7 75.25 78.5 71.2 Q83.35 63.5 83.4 56.15 83.5 51.5 82.0 48.8 L81.7 48.65 Z" fill="none" stroke="#000000" stroke-linecap="round" stroke-linejoin="round" stroke-opacity="0.3019608" stroke-width="0.05"/>
    </g>
    <g id="sprite3" transform="matrix(1.0, 0.0, 0.0, 1.0, 0.05, 0.0)">
      <use height="112.9" transform="matrix(1.0, 0.0, 0.0, 1.0, -0.05, 0.0)" width="68.2" xlink:href="#shape5"/>
    </g>
    <g id="shape5" transform="matrix(1.0, 0.0, 0.0, 1.0, 0.05, 0.0)">
      <path d="M40.2 2.35 Q47.9 -0.85 57.5 0.3 60.55 1.8 64.25 7.1 L60.45 9.8 64.8 8.3 Q66.65 13.3 67.5 18.1 L61.75 19.75 Q61.2 15.7 59.65 11.4 57.25 7.55 55.25 6.45 48.95 5.55 41.65 9.1 41.4 6.35 40.4 3.0 L40.2 2.35 M62.1 24.35 L62.1 23.65 68.05 22.65 Q68.35 27.65 67.5 32.35 63.5 37.95 57.05 41.85 49.9 43.25 46.8 42.4 L46.65 42.6 46.65 60.7 41.2 62.7 41.2 40.55 43.65 36.7 48.35 36.7 48.8 36.8 54.95 36.3 Q59.1 33.5 61.7 29.45 L61.8 28.85 61.95 27.7 62.05 26.45 62.1 24.35 M26.9 67.95 L21.45 69.95 21.45 42.6 21.3 42.4 11.05 41.85 Q4.6 37.95 0.6 32.35 -1.55 20.6 3.75 7.2 7.5 1.8 10.6 0.3 19.2 -0.75 26.3 1.75 26.6 4.65 27.2 6.8 27.75 8.7 28.55 10.15 26.15 8.8 23.85 7.95 18.05 5.75 12.85 6.45 12.15 6.85 11.45 7.55 10.0 8.9 8.45 11.4 5.0 21.05 6.4 29.45 9.0 33.5 13.15 36.3 L19.35 36.8 19.75 36.7 24.45 36.7 26.9 40.55 26.9 67.95 M41.2 63.7 L46.65 61.55 46.65 70.3 46.8 70.5 Q50.0 69.65 57.05 71.05 63.6 75.0 67.5 80.55 69.65 92.3 64.35 105.7 L63.55 106.8 Q63.25 100.85 60.6 98.55 62.9 90.5 61.7 83.45 59.05 79.35 54.95 76.6 50.9 75.7 48.8 76.1 L48.35 76.2 43.65 76.2 41.2 72.35 41.2 63.7 M44.25 111.9 Q38.8 110.5 34.2 107.2 L33.9 107.2 Q30.75 109.45 27.25 110.85 L26.75 109.25 Q25.95 107.4 24.05 107.4 L22.95 108.0 Q22.7 108.3 21.5 107.25 L20.3 106.1 Q25.8 104.8 31.9 100.8 L32.05 100.65 36.05 100.65 36.7 101.1 Q40.0 103.25 43.15 104.55 L42.9 107.75 43.2 111.0 44.25 111.9 M13.15 112.85 L10.6 112.6 Q8.05 111.35 5.1 107.55 L10.55 104.45 10.7 104.65 11.75 105.7 12.75 106.4 12.8 106.45 12.85 106.45 14.2 106.6 Q13.1 109.1 13.1 111.15 L13.15 112.85 M8.9 102.25 L3.1 104.0 2.4 101.9 7.75 99.3 8.4 101.3 8.45 101.5 8.75 101.95 8.9 102.25 M7.3 97.7 L1.8 100.0 Q-1.1 89.75 0.6 80.55 L1.5 79.35 26.9 69.35 26.9 72.35 24.45 76.2 19.75 76.2 19.35 76.1 13.15 76.6 Q9.05 79.35 6.4 83.45 5.3 90.15 7.3 97.7 M20.85 70.4 L3.25 77.3 Q6.55 73.8 11.05 71.05 17.65 69.75 20.85 70.4" fill="#ffffff" fill-rule="evenodd" stroke="none"/>
      <path d="M61.75 19.75 Q62.1 22.1 62.1 24.35 L62.05 26.45 61.95 27.7 61.8 28.85 61.7 29.45 Q59.1 33.5 54.95 36.3 L48.8 36.8 48.35 36.7 43.65 36.7 41.2 40.55 41.2 62.7 26.9 67.95 26.9 40.55 24.45 36.7 19.75 36.7 19.35 36.8 13.15 36.3 Q9.0 33.5 6.4 29.45 5.0 21.05 8.45 11.4 10.0 8.9 11.45 7.55 12.15 6.85 12.85 6.45 18.05 5.75 23.85 7.95 26.15 8.8 28.55 10.15 L31.45 11.85 32.05 12.25 36.05 12.25 36.25 12.15 Q39.0 10.3 41.65 9.1 48.95 5.55 55.25 6.45 57.25 7.55 59.65 11.4 61.2 15.7 61.75 19.75 M26.9 69.35 L26.9 69.3 41.2 63.65 41.2 63.7 41.2 72.35 43.65 76.2 48.35 76.2 48.8 76.1 Q50.9 75.7 54.95 76.6 59.05 79.35 61.7 83.45 62.9 90.5 60.6 98.55 L59.65 101.5 Q57.25 105.35 55.25 106.45 49.55 107.2 43.15 104.55 40.0 103.25 36.7 101.1 L36.05 100.65 32.05 100.65 31.9 100.8 Q25.8 104.8 20.3 106.1 L19.55 105.45 Q17.7 103.95 16.4 103.95 15.4 103.95 14.25 106.5 L14.25 106.6 14.2 106.6 12.85 106.45 12.8 106.45 12.75 106.4 11.75 105.7 10.7 104.65 10.55 104.45 21.85 98.05 9.65 103.3 8.9 102.25 8.75 101.95 8.45 101.5 8.4 101.3 7.75 99.3 7.7 99.15 17.0 95.35 7.5 98.5 7.3 97.7 Q5.3 90.15 6.4 83.45 9.05 79.35 13.15 76.6 L19.35 76.1 19.75 76.2 24.45 76.2 26.9 72.35 26.9 69.35" fill="#cc6600" fill-rule="evenodd" stroke="none"/>
      <path d="M14.25 106.6 L14.25 106.5 Q15.4 103.95 16.4 103.95 17.7 103.95 19.55 105.45 L20.3 106.1 14.25 106.6" fill="#cc6600" fill-opacity="0.7529412" fill-rule="evenodd" stroke="none"/>
      <path d="M26.3 1.75 Q30.35 3.15 33.9 5.7 L34.2 5.7 Q37.05 3.65 40.2 2.35 L40.4 3.0 Q41.4 6.35 41.65 9.1 39.0 10.3 36.25 12.15 L36.05 12.25 32.05 12.25 31.45 11.85 28.55 10.15 Q27.75 8.7 27.2 6.8 26.6 4.65 26.3 1.75 M63.55 106.8 Q60.25 111.25 57.5 112.6 50.35 113.45 44.25 111.9 L43.2 111.0 42.9 107.75 43.15 104.55 Q49.55 107.2 55.25 106.45 57.25 105.35 59.65 101.5 L60.6 98.55 Q63.25 100.85 63.55 106.8 M27.25 110.85 Q20.85 113.3 13.15 112.85 L13.1 111.15 Q13.1 109.1 14.2 106.6 L14.25 106.6 20.3 106.1 21.5 107.25 Q22.7 108.3 22.95 108.0 L24.05 107.4 Q25.95 107.4 26.75 109.25 L27.25 110.85" fill="#ffffff" fill-opacity="0.7529412" fill-rule="evenodd" stroke="none"/>
    </g>
    <g id="sprite4" transform="matrix(1.0, 0.0, 0.0, 1.0, -21.7, -21.7)">
      <use height="179.5" transform="matrix(0.7582, 0.0, 0.0, 0.7582, 21.7, 21.7)" width="179.5" xlink:href="#sprite5"/>
      <use height="93.25" transform="matrix(1.0, 0.0, 0.0, 1.0, 42.95, 42.95)" width="93.25" xlink:href="#shape7"/>
    </g>
    <g id="sprite5" transform="matrix(1.0, 0.0, 0.0, 1.0, 0.0, 0.0)">
      <use height="179.5" transform="matrix(1.0, 0.0, 0.0, 1.0, 0.0, 0.0)" width="179.5" xlink:href="#shape6"/>
    </g>
    <g id="shape6" transform="matrix(1.0, 0.0, 0.0, 1.0, 0.0, 0.0)">
      <path d="M179.5 89.75 Q179.5 126.95 153.2 153.2 126.95 179.5 89.75 179.5 52.55 179.5 26.25 153.2 0.0 126.95 0.0 89.75 0.0 52.55 26.25 26.25 52.55 0.0 89.75 0.0 126.95 0.0 153.2 26.25 179.5 52.55 179.5 89.75" fill="url(#gradient1)" fill-rule="evenodd" stroke="none"/>
    </g>
    <radialGradient cx="0" cy="0" gradientTransform="matrix(0.1114, 0.0, 0.0, 0.1114, 89.75, 89.75)" gradientUnits="userSpaceOnUse" id="gradient1" r="819.2" spreadMethod="pad">
      <stop offset="0.0" stop-color="#000000"/>
      <stop offset="1.0" stop-color="#000000" stop-opacity="0.0"/>
    </radialGradient>
    <g id="shape7" transform="matrix(1.0, 0.0, 0.0, 1.0, -42.95, -42.95)">
      <path d="M48.0 110.0 Q43.45 100.75 43.45 89.8 43.45 70.55 56.95 57.0 70.5 43.45 89.75 43.45 109.0 43.45 122.55 57.0 132.75 67.2 135.35 80.55 L134.9 80.55 Q116.3 76.35 94.0 96.05 71.7 115.7 61.0 113.45 50.3 111.15 48.0 110.05 L48.0 110.0 M48.4 85.75 Q48.3 89.55 51.55 90.9 74.5 99.75 83.65 78.0 85.75 70.45 80.2 64.9 75.9 60.55 69.95 61.15 49.15 62.55 48.4 85.75" fill="#43413e" fill-rule="evenodd" stroke="none"/>
      <path d="M48.4 85.75 Q49.15 62.55 69.95 61.15 75.9 60.55 80.2 64.9 85.75 70.45 83.65 78.0 74.5 99.75 51.55 90.9 48.3 89.55 48.4 85.75" fill="#565450" fill-rule="evenodd" stroke="none"/>
      <path d="M49.0 111.95 L47.95 110.0 48.0 110.0 48.0 110.05 49.0 111.95" fill="#363432" fill-rule="evenodd" stroke="none"/>
      <path d="M135.35 80.55 Q136.1 84.8 136.1 89.8 L135.35 98.35 134.9 100.95 134.9 101.2 Q82.5 109.2 83.35 121.75 84.2 134.3 96.15 135.9 L89.75 136.1 Q70.5 136.1 56.95 122.6 L56.25 121.85 56.0 121.65 50.1 113.8 49.0 111.95 48.0 110.05 Q50.3 111.15 61.0 113.45 71.7 115.7 94.0 96.05 116.3 76.35 134.9 80.55 L135.35 80.55" fill="#272624" fill-rule="evenodd" stroke="none"/>
      <path d="M134.9 101.2 Q131.8 113.3 122.55 122.6 111.4 133.75 96.15 135.9 84.2 134.3 83.35 121.75 82.5 109.2 134.9 101.2" fill="#312f2d" fill-rule="evenodd" stroke="none"/>
      <path d="M48.0 110.0 Q43.45 100.75 43.45 89.8 43.45 70.55 56.95 57.0 70.5 43.45 89.75 43.45 109.0 43.45 122.55 57.0 132.75 67.2 135.35 80.55 L134.9 80.55 M48.0 110.0 L48.0 110.05" fill="none" stroke="#000000" stroke-linecap="round" stroke-linejoin="round" stroke-opacity="0.3019608" stroke-width="1.0"/>
      <path d="M135.35 80.55 Q136.1 84.8 136.1 89.8 L135.35 98.35 134.9 101.2 Q131.8 113.3 122.55 122.6 111.4 133.75 96.15 135.9 L89.75 136.1 Q70.5 136.1 56.95 122.6 L56.25 121.85 56.0 121.65 50.1 113.8 49.0 111.95 M48.0 110.05 L49.0 111.95" fill="none" stroke="#000000" stroke-linecap="round" stroke-linejoin="round" stroke-opacity="0.3019608" stroke-width="0.25"/>
    </g>
    <g id="sprite6" transform="matrix(1.0, 0.0, 0.0, 1.0, 0.0, 0.0)">
      <use height="88.5" transform="matrix(1.0, 0.0, 0.0, 1.0, 0.0, 0.0)" width="78.8" xlink:href="#shape8"/>
    </g>
    <g id="shape8" transform="matrix(1.0, 0.0, 0.0, 1.0, 0.0, 0.0)">
      <path d="M64.3 6.9 L69.75 15.2 78.8 58.55 70.45 73.05 27.3 88.5 14.5 81.65 9.05 73.35 0.0 30.0 8.45 15.4 51.5 0.0 64.3 6.9" fill="url(#gradient2)" fill-rule="evenodd" stroke="none"/>
    </g>
    <radialGradient cx="0" cy="0" fx="-1619.2" fy="0" gradientTransform="matrix(0.056, 0.0, 0.0, 0.056, 63.5, 37.5)" gradientUnits="userSpaceOnUse" id="gradient2" r="819.2" spreadMethod="pad">
      <stop offset="0.0" stop-color="#ffffff"/>
      <stop offset="1.0" stop-color="#ffffff" stop-opacity="0.0"/>
    </radialGradient>
    <g id="sprite7" transform="matrix(1.0, 0.0, 0.0, 1.0, 0.15, 0.15)">
      <use height="71.3" transform="matrix(1.0, 0.0, 0.0, 1.0, -0.15, -0.15)" width="58.45" xlink:href="#shape9"/>
    </g>
    <g id="shape9" transform="matrix(1.0, 0.0, 0.0, 1.0, 0.15, 0.15)">
      <path d="M2.2 42.85 Q3.65 41.85 6.0 42.1 9.15 42.3 11.2 42.05 13.8 45.5 18.2 48.4 20.95 50.2 23.65 51.35 22.9 54.35 25.6 59.25 28.7 64.85 27.25 67.95 27.5 66.4 26.7 65.1 25.8 63.7 23.35 62.1 17.8 58.45 12.8 59.35 8.7 60.05 6.9 62.95 6.25 64.05 6.6 65.8 6.75 66.7 7.25 67.45 4.3 64.0 7.1 57.4 4.5 58.5 2.9 57.65 4.25 57.95 5.55 55.6 6.8 53.4 5.9 49.25 L5.4 47.75 5.4 47.65 Q4.35 45.05 2.2 42.85 M11.15 48.1 Q12.4 52.75 9.65 54.65 L9.3 54.9 Q12.75 53.3 18.05 54.15 13.9 52.2 12.55 50.4 L11.15 48.1" fill="#b9a870" fill-rule="evenodd" stroke="none"/>
      <path d="M11.2 42.05 Q13.55 41.75 14.35 40.75 L14.55 40.45 16.1 38.0 16.45 38.05 17.2 38.1 19.3 38.6 20.95 39.4 22.2 40.15 Q23.9 41.3 25.1 42.7 L26.05 43.95 26.8 45.0 24.0 50.25 Q23.75 50.7 23.65 51.35 20.95 50.2 18.2 48.4 13.8 45.5 11.2 42.05 M11.15 48.1 L12.55 50.4 Q13.9 52.2 18.05 54.15 12.75 53.3 9.3 54.9 L9.65 54.65 Q12.4 52.75 11.15 48.1" fill="#94865a" fill-rule="evenodd" stroke="none"/>
      <path d="M27.25 67.95 L26.75 68.55 Q27.0 67.2 26.35 65.95 25.5 64.6 23.2 63.1 18.05 59.7 13.4 60.6 9.65 61.25 8.0 63.95 7.35 65.0 7.75 66.65 7.85 67.45 8.25 68.15 L9.2 69.05 Q8.0 68.3 7.25 67.45 6.75 66.7 6.6 65.8 6.25 64.05 6.9 62.95 8.7 60.05 12.8 59.35 17.8 58.45 23.35 62.1 25.8 63.7 26.7 65.1 27.5 66.4 27.25 67.95 M2.9 57.65 L1.85 56.5 1.5 56.0 Q2.15 56.9 2.5 56.9 L3.55 56.85 Q4.15 56.65 4.9 55.3 5.5 53.85 5.15 51.95 L4.25 49.25 3.4 47.85 3.1 47.6 2.6 47.45 2.45 47.7 2.25 47.45 Q1.5 46.25 1.0 46.65 L0.25 47.65 0.15 48.05 0.05 49.0 0.0 47.75 Q0.15 44.1 2.2 42.85 4.35 45.05 5.4 47.65 L5.4 47.75 5.9 49.25 Q6.8 53.4 5.55 55.6 4.25 57.95 2.9 57.65" fill="#c9b67a" fill-rule="evenodd" stroke="none"/>
      <path d="M26.75 68.55 Q24.55 71.5 16.3 70.9 L12.8 70.25 Q10.7 69.85 9.2 69.05 L8.25 68.15 Q7.85 67.45 7.75 66.65 7.35 65.0 8.0 63.95 9.65 61.25 13.4 60.6 18.05 59.7 23.2 63.1 25.5 64.6 26.35 65.95 27.0 67.2 26.75 68.55 M1.5 56.0 L1.25 55.7 Q0.5 54.2 0.35 51.55 0.05 50.2 0.05 49.0 L0.15 48.05 0.25 47.65 1.0 46.65 Q1.5 46.25 2.25 47.45 L2.45 47.7 2.6 47.45 3.1 47.6 3.4 47.85 4.25 49.25 5.15 51.95 Q5.5 53.85 4.9 55.3 4.15 56.65 3.55 56.85 L2.5 56.9 Q2.15 56.9 1.5 56.0" fill="#f5e7a0" fill-rule="evenodd" stroke="none"/>
      <path d="M2.2 42.85 Q3.65 41.85 6.0 42.1 9.15 42.3 11.2 42.05 13.55 41.75 14.35 40.75 L14.55 40.45 15.2 39.35 16.0 38.05 16.1 38.0 16.45 38.05 17.2 38.1 19.3 38.6 20.95 39.4 22.2 40.15 Q23.9 41.3 25.1 42.7 L26.05 43.95 26.8 45.0 24.0 50.25 Q23.75 50.7 23.65 51.35 22.9 54.35 25.6 59.25 28.7 64.85 27.25 67.95 M26.75 68.55 Q24.55 71.5 16.3 70.9 L12.8 70.25 Q10.7 69.85 9.2 69.05 8.0 68.3 7.25 67.45 4.3 64.0 7.1 57.4 4.5 58.5 2.9 57.65 L1.85 56.5 1.5 56.0 1.25 55.7 Q0.5 54.2 0.35 51.55 0.05 50.2 0.05 49.0 L0.0 47.75 Q0.15 44.1 2.2 42.85 M16.1 38.0 L14.55 40.45" fill="none" stroke="#000000" stroke-linecap="round" stroke-linejoin="round" stroke-opacity="0.2" stroke-width="0.30000000000000004"/>
      <path d="M24.55 23.45 L24.65 23.6 24.55 23.55 24.55 23.45 M24.65 23.75 L24.75 23.8 24.7 23.85 24.65 23.75" fill="#fbf2d0" fill-rule="evenodd" stroke="none"/>
      <path d="M23.35 18.15 L23.45 18.05 Q24.6 16.35 27.8 16.75 28.85 16.85 29.95 17.3 32.4 17.95 34.9 19.65 38.65 22.1 40.45 25.1 L40.45 25.2 40.55 25.25 40.55 25.4 40.65 25.45 40.7 25.55 40.8 25.6 40.8 25.75 41.05 26.2 Q42.1 28.4 41.2 29.85 L41.15 29.9 Q40.05 31.6 36.75 31.1 33.75 30.75 30.55 28.85 L30.5 28.8 24.75 23.8 24.65 23.75 24.65 23.6 24.55 23.45 24.1 22.75 Q22.4 19.95 23.35 18.15 M35.55 28.65 Q37.75 28.95 38.6 27.8 39.4 26.5 38.05 24.55 36.8 22.5 34.3 20.85 31.75 19.15 29.4 18.85 27.25 18.5 26.45 19.8 25.85 20.8 26.5 22.25 L26.9 22.95 Q28.2 24.95 30.75 26.65 32.45 27.75 34.05 28.35 L35.55 28.65" fill="#453e2e" fill-rule="evenodd" stroke="none"/>
      <path d="M41.15 29.9 L30.95 46.55 Q29.85 48.25 26.55 47.75 23.15 47.35 19.4 44.9 15.7 42.45 13.9 39.4 12.35 36.95 12.95 35.3 L13.15 34.8 13.9 33.55 21.45 21.3 23.35 18.15 Q22.4 19.95 24.1 22.75 L24.55 23.45 24.55 23.55 24.65 23.6 24.65 23.75 24.7 23.85 26.1 27.05 30.55 28.85 Q33.75 30.75 36.75 31.1 40.05 31.6 41.15 29.9" fill="#332f25" fill-rule="evenodd" stroke="none"/>
      <path d="M24.75 23.8 L30.5 28.8 30.55 28.85 26.1 27.05 24.7 23.85 24.75 23.8" fill="#71614a" fill-rule="evenodd" stroke="none"/>
      <path d="M35.55 28.65 L34.05 28.35 Q32.45 27.75 30.75 26.65 28.2 24.95 26.9 22.95 L26.5 22.25 Q25.85 20.8 26.45 19.8 27.25 18.5 29.4 18.85 31.75 19.15 34.3 20.85 36.8 22.5 38.05 24.55 39.4 26.5 38.6 27.8 37.75 28.95 35.55 28.65" fill="#13110f" fill-rule="evenodd" stroke="none"/>
      <path d="M23.35 18.15 L23.45 18.05 Q24.6 16.35 27.8 16.75 28.85 16.85 29.95 17.3 32.4 17.95 34.9 19.65 38.65 22.1 40.45 25.1 L40.45 25.2 40.55 25.25 40.55 25.4 40.65 25.45 40.7 25.55 40.8 25.6 40.8 25.75 41.05 26.2 Q42.1 28.4 41.2 29.85 L41.15 29.9 30.95 46.55 Q29.85 48.25 26.55 47.75 23.15 47.35 19.4 44.9 15.7 42.45 13.9 39.4 12.35 36.95 12.95 35.3 L13.15 34.8 13.9 33.55 M21.45 21.3 L23.35 18.15 M35.55 28.65 L34.05 28.35 Q32.45 27.75 30.75 26.65 28.2 24.95 26.9 22.95 L26.5 22.25 Q25.85 20.8 26.45 19.8 27.25 18.5 29.4 18.85 31.75 19.15 34.3 20.85 36.8 22.5 38.05 24.55 39.4 26.5 38.6 27.8 37.75 28.95 35.55 28.65" fill="none" stroke="#000000" stroke-linecap="round" stroke-linejoin="round" stroke-opacity="0.2" stroke-width="0.30000000000000004"/>
      <path d="M38.05 0.75 Q38.9 1.9 37.35 4.1 35.95 6.2 31.95 7.05 L30.45 7.3 30.35 7.35 Q27.65 7.45 24.75 6.35 24.6 8.15 25.75 10.2 29.15 16.45 28.1 18.7 L27.9 18.95 26.45 21.45 26.6 21.75 27.05 22.4 28.35 24.15 29.7 25.4 30.95 26.3 Q32.65 27.4 34.35 27.9 L35.9 28.2 37.05 28.5 40.5 23.65 Q42.65 20.85 49.05 21.35 55.35 21.85 57.4 19.2 56.2 20.15 54.65 19.9 53.0 19.6 50.55 18.0 45.05 14.35 43.75 9.3 42.65 5.2 44.45 2.25 45.1 1.2 46.75 0.75 L48.5 0.65 Q44.2 -0.6 39.65 4.8 39.45 1.9 38.05 0.75 M38.35 7.85 Q38.35 11.8 41.4 16.4 37.95 13.35 35.8 12.9 L33.2 12.55 Q37.75 11.7 38.3 8.35 L38.35 7.85" fill="#b9a870" fill-rule="evenodd" stroke="none"/>
      <path d="M38.35 7.85 L38.3 8.35 Q37.75 11.7 33.2 12.55 L35.8 12.9 Q37.95 13.35 41.4 16.4 38.35 11.8 38.35 7.85" fill="#94865a" fill-rule="evenodd" stroke="none"/>
      <path d="M36.05 0.15 Q37.05 0.3 37.25 0.7 37.65 1.05 37.6 1.65 37.7 2.35 36.85 3.55 35.9 4.8 34.05 5.2 L31.3 5.55 29.65 5.35 29.3 5.25 29.0 4.7 29.15 4.5 28.9 4.4 Q27.55 4.25 27.6 3.6 27.75 3.0 28.2 2.5 L28.4 2.25 29.3 1.75 28.15 2.25 Q25.0 3.9 24.75 6.35 27.65 7.45 30.35 7.35 L30.45 7.3 31.95 7.05 Q35.95 6.2 37.35 4.1 38.9 1.9 38.05 0.75 37.4 0.3 36.6 0.2 L36.05 0.15 M48.5 0.65 L46.75 0.75 Q45.1 1.2 44.45 2.25 42.65 5.2 43.75 9.3 45.05 14.35 50.55 18.0 53.0 19.6 54.65 19.9 56.2 20.15 57.4 19.2 L57.7 18.5 Q56.7 19.35 55.3 19.2 53.75 19.0 51.45 17.5 46.3 14.1 45.15 9.35 44.1 5.5 45.7 2.85 46.4 1.8 48.0 1.45 L49.5 1.35 Q50.05 1.45 50.65 1.85 49.5 1.0 48.5 0.65" fill="#c9b67a" fill-rule="evenodd" stroke="none"/>
      <path d="M29.3 1.75 L28.4 2.25 28.2 2.5 Q27.75 3.0 27.6 3.6 27.55 4.25 28.9 4.4 L29.15 4.5 29.0 4.7 29.3 5.25 29.65 5.35 31.3 5.55 34.05 5.2 Q35.9 4.8 36.85 3.55 37.7 2.35 37.6 1.65 37.65 1.05 37.25 0.7 37.05 0.3 36.05 0.15 L35.7 0.0 Q34.0 0.0 31.65 0.95 30.35 1.15 29.3 1.75 M50.65 1.85 Q50.05 1.45 49.5 1.35 L48.0 1.45 Q46.4 1.8 45.7 2.85 44.1 5.5 45.15 9.35 46.3 14.1 51.45 17.5 53.75 19.0 55.3 19.2 56.7 19.35 57.7 18.5 59.3 15.2 55.35 7.7 L53.35 4.7 Q52.05 2.8 50.65 1.85" fill="#f5e7a0" fill-rule="evenodd" stroke="none"/>
      <path d="M29.3 1.75 Q30.35 1.15 31.65 0.95 34.0 0.0 35.7 0.0 L36.05 0.15 36.6 0.2 Q37.4 0.3 38.05 0.75 M24.75 6.35 Q25.0 3.9 28.15 2.25 L29.3 1.75 M48.5 0.65 Q44.2 -0.6 39.65 4.8 39.45 1.9 38.05 0.75 M48.5 0.65 Q49.5 1.0 50.65 1.85 M57.4 19.2 Q55.35 21.85 49.05 21.35 42.65 20.85 40.5 23.65 L37.05 28.5 35.9 28.2 34.35 27.9 Q32.65 27.4 30.95 26.3 L29.7 25.4 28.35 24.15 27.05 22.4 26.6 21.75 26.45 21.45 27.9 18.95 28.1 18.7 Q29.15 16.45 25.75 10.2 24.6 8.15 24.75 6.35 M57.7 18.5 Q59.3 15.2 55.35 7.7 L53.35 4.7 Q52.05 2.8 50.65 1.85 M27.9 18.95 L27.25 20.05 26.45 21.3 26.45 21.45" fill="none" stroke="#000000" stroke-linecap="round" stroke-linejoin="round" stroke-opacity="0.2" stroke-width="0.30000000000000004"/>
      <path d="M36.6 39.0 L36.3 38.0 Q35.25 35.6 33.25 35.95 31.45 36.3 32.0 38.1 L33.15 37.95 Q35.6 38.0 36.6 39.0 L36.6 39.05 36.6 39.0 M34.95 43.5 L31.55 43.4 Q29.8 42.55 29.05 40.75 28.25 38.9 28.95 37.2 29.65 35.4 31.3 34.75 L34.75 34.9 Q36.5 35.7 37.3 37.55 38.05 39.35 37.35 41.15 36.65 42.85 34.95 43.5 M34.9 41.45 Q33.55 41.6 32.2 40.7 30.95 39.7 30.35 37.65 29.7 35.7 29.5 37.55 29.25 39.4 30.15 40.9 31.0 42.25 32.05 43.0 32.95 43.55 35.15 42.65 L36.35 41.85 36.3 41.5 34.9 41.45" fill="#5e5b47" fill-rule="evenodd" stroke="none"/>
      <path d="M36.6 39.0 Q35.6 38.0 33.15 37.95 L32.0 38.1 Q31.45 36.3 33.25 35.95 35.25 35.6 36.3 38.0 L36.6 39.0" fill="#a19f8c" fill-rule="evenodd" stroke="none"/>
      <path d="M34.9 41.45 L36.3 41.5 36.35 41.85 35.15 42.65 Q32.95 43.55 32.05 43.0 31.0 42.25 30.15 40.9 29.25 39.4 29.5 37.55 29.7 35.7 30.35 37.65 30.95 39.7 32.2 40.7 33.55 41.6 34.9 41.45" fill="#4f4c3c" fill-rule="evenodd" stroke="none"/>
      <path d="M36.6 39.0 L36.6 39.05 36.6 39.0" fill="#575342" fill-rule="evenodd" stroke="none"/>
      <path d="M34.95 43.5 L31.55 43.4 Q29.8 42.55 29.05 40.75 28.25 38.9 28.95 37.2 29.65 35.4 31.3 34.75 L34.75 34.9 Q36.5 35.7 37.3 37.55 38.05 39.35 37.35 41.15 36.65 42.85 34.95 43.5 Z" fill="none" stroke="#000000" stroke-linecap="round" stroke-linejoin="round" stroke-opacity="0.3019608" stroke-width="0.05"/>
    </g>
    <g id="sprite8" transform="matrix(1.0, 0.0, 0.0, 1.0, 0.0, 0.0)">
      <use height="45.65" transform="matrix(1.0, 0.0, 0.0, 1.0, 0.0, 0.0)" width="76.4" xlink:href="#shape10"/>
    </g>
    <g id="shape10" transform="matrix(1.0, 0.0, 0.0, 1.0, 0.0, 0.0)">
      <path d="M47.5 5.4 L47.5 5.45 Q60.5 3.0 69.65 11.85 L70.5 12.75 71.7 14.1 72.55 15.2 Q78.25 23.35 75.5 36.05 73.65 44.75 67.75 45.5 62.5 46.6 54.0 40.4 46.55 35.0 40.9 33.05 L40.7 33.0 38.15 32.3 Q34.5 31.5 31.7 32.35 L30.1 32.8 30.25 32.55 Q30.8 31.6 32.05 30.8 L34.3 29.35 35.55 28.75 35.9 28.6 36.4 28.35 Q37.25 28.0 37.65 28.05 L40.85 28.8 43.05 29.55 Q48.95 31.85 56.3 37.15 63.1 42.1 67.1 41.6 69.4 41.05 70.7 38.2 L71.65 35.25 Q74.45 22.2 66.85 14.75 59.1 7.3 48.25 9.35 35.9 11.65 18.25 6.1 10.25 3.65 6.3 4.1 5.35 4.2 4.8 4.65 4.0 5.25 4.0 6.4 4.45 13.35 13.75 22.25 16.55 24.95 19.25 26.6 21.5 27.95 23.7 28.55 L23.35 29.1 Q22.55 30.45 22.8 31.4 L23.3 32.75 Q19.5 31.8 15.55 28.95 13.3 27.35 11.0 25.15 L6.8 20.75 Q4.55 18.1 3.05 15.65 0.1 10.85 0.0 6.6 -0.3 1.0 5.8 0.15 10.3 -0.55 19.45 2.3 36.0 7.5 47.5 5.4" fill="url(#gradient3)" fill-rule="evenodd" stroke="none"/>
    </g>
    <linearGradient gradientTransform="matrix(-0.0117, 0.0153, -0.0221, -0.0169, 44.55, 17.5)" gradientUnits="userSpaceOnUse" id="gradient3" spreadMethod="pad" x1="-819.2" x2="819.2">
      <stop offset="0.0" stop-color="#ffffff"/>
      <stop offset="1.0" stop-color="#ffffff" stop-opacity="0.0"/>
    </linearGradient>
  </defs>
</svg>
