<?xml version="1.0" encoding="UTF-8" standalone="no"?>
<svg xmlns:xlink="http://www.w3.org/1999/xlink" height="520.0px" width="520.0px" xmlns="http://www.w3.org/2000/svg">
  <g transform="matrix(10.0, 0.0, 0.0, 10.0, 0.0, 0.0)">
    <use height="64.9" transform="matrix(1.0, 0.0, 0.0, 1.0, 0.0, -12.9)" width="57.65" xlink:href="#sprite0"/>
  </g>
  <defs>
    <g id="sprite0" transform="matrix(1.0, 0.0, 0.0, 1.0, 0.0, 12.9)">
      <use height="52.0" transform="matrix(1.0, 0.0, 0.0, 1.0, 0.0, 0.0)" width="52.0" xlink:href="#sprite1"/>
      <use height="48.75" transform="matrix(1.0, 0.0, 0.0, 1.0, 2.75, 1.5)" width="47.05" xlink:href="#shape1"/>
      <clipPath id="clipPath0" transform="matrix(1.0, 0.0, 0.0, 1.0, 0.0, 12.9)">
        <use height="47.75" transform="matrix(1.0, 0.0, 0.0, 1.0, 3.25, 2.0)" width="46.05" xlink:href="#shape2"/>
      </clipPath>
      <g clip-path="url(#clipPath0)">
        <use height="37.7" transform="matrix(1.1956, 0.2481, -0.0076, 0.9594, 12.55, -12.9)" width="37.7" xlink:href="#sprite2"/>
      </g>
    </g>
    <g id="sprite1" transform="matrix(1.0, 0.0, 0.0, 1.0, 0.0, 0.0)">
      <use height="52.0" transform="matrix(1.0, 0.0, 0.0, 1.0, 0.0, 0.0)" width="52.0" xlink:href="#shape0"/>
    </g>
    <g id="shape0" transform="matrix(1.0, 0.0, 0.0, 1.0, 0.0, 0.0)">
      <path d="M0.0 0.0 L52.0 0.0 52.0 52.0 0.0 52.0 0.0 0.0" fill="#ffba2e" fill-opacity="0.0" fill-rule="evenodd" stroke="none"/>
    </g>
    <g id="shape1" transform="matrix(1.0, 0.0, 0.0, 1.0, -2.75, -1.5)">
      <path d="M6.3 16.8 L5.45 19.0 4.8 21.2 4.2 23.35 4.2 23.4 3.8 25.55 3.45 27.7 3.45 27.75 3.3 29.7 Q3.2 30.55 3.25 31.6 L3.4 34.3 3.9 37.8 3.9 37.85 4.8 41.35 Q5.25 43.1 6.15 44.5 7.05 45.9 8.0 46.75 8.9 47.55 10.6 48.45 12.35 49.4 14.4 49.6 L14.45 49.6 17.8 49.75 17.85 49.75 21.5 49.5 25.2 48.65 Q26.95 48.15 27.55 46.65 L27.9 45.0 Q27.95 43.75 27.25 42.55 L27.2 42.5 24.9 39.6 22.6 37.1 22.45 36.95 22.1 36.55 19.9 34.35 19.85 34.35 18.2 32.35 18.25 32.35 17.1 30.6 17.05 30.55 16.8 30.1 15.5 27.7 15.5 27.65 14.55 24.95 14.45 24.65 Q14.1 23.45 14.05 22.3 13.95 20.9 14.15 19.5 14.3 18.0 14.8 16.6 L15.95 13.55 Q16.5 12.2 17.2 10.95 18.05 9.35 19.3 8.1 L19.3 8.05 20.8 6.55 24.4 7.2 Q25.35 7.5 26.05 7.95 L24.4 8.6 Q21.85 9.8 20.05 12.4 L19.25 13.8 20.85 14.8 18.4 15.8 Q17.5 18.9 18.1 22.55 L18.35 23.7 Q19.55 28.8 23.45 32.3 L25.15 33.6 26.95 33.1 26.7 34.55 28.1 35.15 29.7 34.45 30.35 35.7 31.35 35.85 Q30.25 36.85 29.8 37.95 29.15 39.45 29.65 40.85 L29.7 40.85 31.35 40.9 33.2 40.65 Q34.15 43.55 37.85 46.5 L37.9 46.4 38.5 45.35 38.5 45.25 38.6 45.35 Q40.35 47.3 42.4 48.8 L43.7 46.85 43.8 46.9 Q46.5 43.1 46.55 39.0 L46.55 38.9 46.55 38.05 45.6 36.9 45.3 36.65 47.0 36.85 47.15 36.85 48.0 36.75 48.35 36.7 48.7 36.5 49.1 36.45 49.3 36.4 49.05 36.4 48.95 36.15 48.6 35.5 48.3 35.05 47.95 34.6 47.05 33.55 46.5 32.9 44.9 31.8 43.55 31.55 45.5 29.3 46.4 27.85 45.9 27.45 46.85 26.85 Q48.05 23.85 47.65 20.2 L49.3 19.15 49.1 19.05 49.0 19.05 47.4 18.5 Q46.6 14.75 44.4 11.85 L43.45 10.75 42.35 10.95 42.7 9.95 42.1 9.35 Q41.05 8.4 39.9 7.75 L38.5 9.6 37.95 6.75 37.65 6.65 Q35.55 5.85 33.25 5.9 L32.65 4.75 32.1 3.8 32.0 4.4 31.7 6.0 31.4 6.05 31.0 4.95 30.65 4.45 30.35 4.1 30.35 4.05 Q28.7 2.25 26.45 2.05 L26.4 2.05 25.75 2.0 24.5 2.15 Q23.45 2.35 22.55 2.9 L20.15 4.35 18.15 4.45 16.5 4.7 15.35 5.1 Q14.15 5.6 12.95 6.5 L12.9 6.55 Q11.6 7.5 10.65 8.75 L10.6 8.8 8.9 11.4 7.3 14.6 6.3 16.8 M26.2 4.25 Q27.6 4.4 28.65 5.5 L28.7 5.5 29.15 6.7 28.85 6.8 28.75 6.85 28.3 7.05 27.9 6.55 27.5 6.3 27.45 6.25 26.8 5.85 Q26.05 5.4 25.15 5.1 L23.8 4.75 Q24.9 4.1 26.2 4.25 M17.45 6.75 L17.35 6.85 Q16.1 8.2 15.2 9.95 L13.9 12.65 Q13.15 14.25 12.65 15.95 L12.65 15.9 Q12.1 17.55 11.9 19.2 11.65 20.8 11.8 22.45 11.9 24.0 12.4 25.55 L12.5 25.9 13.4 28.55 13.45 28.6 14.85 31.15 15.25 31.85 15.85 32.85 16.4 33.6 18.25 35.8 18.25 35.85 20.95 38.6 23.2 41.05 25.3 43.7 Q25.65 44.25 25.65 44.9 L25.65 44.95 25.4 45.95 24.55 46.55 21.1 47.35 17.9 47.6 14.6 47.4 Q13.05 47.25 11.7 46.55 L9.55 45.15 9.5 45.1 8.05 43.35 Q7.35 42.2 6.95 40.75 L6.1 37.4 5.65 34.1 5.5 32.75 5.5 32.15 5.5 31.6 5.55 29.85 5.7 28.0 6.0 25.95 6.4 23.8 6.4 23.85 6.95 21.75 7.6 19.65 7.55 19.7 8.4 17.65 9.35 15.55 Q10.05 13.9 10.9 12.4 L12.4 10.1 14.3 8.25 Q15.3 7.5 16.25 7.1 L17.0 6.85 17.45 6.75" fill="none" stroke="#000000" stroke-linecap="round" stroke-linejoin="round" stroke-opacity="0.3019608" stroke-width="1.0"/>
      <path d="M27.55 46.65 Q26.95 48.15 25.2 48.65 L21.5 49.5 17.85 49.75 17.8 49.75 14.45 49.6 14.4 49.6 Q12.35 49.4 10.6 48.45 8.9 47.55 8.0 46.75 7.05 45.9 6.15 44.5 5.25 43.1 4.8 41.35 L3.9 37.85 3.9 37.8 3.4 34.3 3.25 31.6 Q3.2 30.55 3.3 29.7 L3.45 27.75 3.45 27.7 3.8 25.55 4.2 23.4 4.2 23.35 4.8 21.2 5.45 19.0 6.3 16.8 7.3 14.6 8.9 11.4 10.6 8.8 10.65 8.75 Q11.6 7.5 12.9 6.55 L12.95 6.5 Q14.15 5.6 15.35 5.1 L15.15 5.55 Q15.15 6.15 16.7 6.15 L20.4 5.8 24.4 6.4 26.55 7.05 Q27.45 7.05 27.45 6.3 L27.5 6.3 27.9 6.55 28.35 7.3 28.1 8.1 27.35 8.5 26.5 8.25 Q25.65 7.6 24.4 7.2 L20.8 6.55 17.45 6.75 17.0 6.85 16.25 7.1 Q15.3 7.5 14.3 8.25 L12.4 10.1 10.9 12.4 Q10.05 13.9 9.35 15.55 L8.4 17.65 7.55 19.7 7.6 19.65 6.95 21.75 6.4 23.85 6.4 23.8 6.0 25.95 5.7 28.0 5.55 29.85 5.5 31.6 5.5 32.15 Q4.95 31.45 4.65 32.0 4.3 32.55 4.45 34.9 4.55 36.55 5.65 40.8 8.3 47.5 13.5 48.6 L23.95 48.2 Q26.45 47.5 27.55 46.65 M15.25 31.85 L15.2 31.4 Q15.2 30.85 15.5 30.45 15.8 29.95 16.3 29.95 L17.05 30.55 17.1 30.6 18.25 32.35 18.2 32.35 19.85 34.35 19.9 34.35 22.1 36.55 21.25 36.6 Q21.1 36.7 21.1 36.9 21.0 37.2 21.4 37.7 L21.6 37.9 24.35 40.85 Q26.1 42.8 26.3 44.35 26.45 45.95 24.55 46.55 L25.4 45.95 25.65 44.95 25.65 44.9 Q25.65 44.25 25.3 43.7 L23.2 41.05 20.95 38.6 18.25 35.85 18.25 35.8 16.4 33.6 15.85 32.85 15.25 31.85" fill="#ce7600" fill-rule="evenodd" stroke="none"/>
      <path d="M20.15 4.35 L22.55 2.9 Q23.45 2.35 24.5 2.15 24.35 2.3 24.45 2.7 24.5 3.15 25.85 3.25 26.3 3.05 27.65 3.55 L29.0 4.6 30.15 5.3 30.8 5.15 31.0 4.95 Q31.85 6.5 31.0 8.3 L30.35 8.85 29.5 8.85 28.9 8.2 Q28.75 7.8 28.95 7.4 29.4 6.35 28.7 5.5 L28.65 5.5 Q27.6 4.4 26.2 4.25 24.9 4.1 23.8 4.75 L20.15 4.35 M12.5 25.9 Q12.55 25.45 12.75 25.15 13.1 24.4 13.75 24.4 L14.45 24.65 14.55 24.95 15.5 27.65 15.5 27.7 16.8 30.1 17.05 30.55 16.3 29.95 Q15.8 29.95 15.5 30.45 15.2 30.85 15.2 31.4 L15.25 31.85 14.85 31.15 13.45 28.6 13.4 28.55 12.5 25.9" fill="#c56700" fill-rule="evenodd" stroke="none"/>
      <path d="M27.55 46.65 Q26.45 47.5 23.95 48.2 L13.5 48.6 Q8.3 47.5 5.65 40.8 4.55 36.55 4.45 34.9 4.3 32.55 4.65 32.0 4.95 31.45 5.5 32.15 L5.5 32.75 5.65 34.1 6.1 37.4 6.95 40.75 Q7.35 42.2 8.05 43.35 L9.5 45.1 9.55 45.15 11.7 46.55 Q13.05 47.25 14.6 47.4 L17.9 47.6 21.1 47.35 24.55 46.55 Q26.45 45.95 26.3 44.35 26.1 42.8 24.35 40.85 L21.6 37.9 21.4 37.7 Q21.0 37.2 21.1 36.9 21.1 36.7 21.25 36.6 L22.1 36.55 22.45 36.95 22.6 37.1 24.9 39.6 27.2 42.5 27.25 42.55 Q27.95 43.75 27.9 45.0 L27.55 46.65 M27.45 6.3 Q27.45 7.05 26.55 7.05 L24.4 6.4 20.4 5.8 16.7 6.15 Q15.15 6.15 15.15 5.55 L15.35 5.1 16.5 4.7 18.15 4.45 20.15 4.35 23.8 4.75 25.15 5.1 Q26.05 5.4 26.8 5.85 L27.45 6.25 27.45 6.3 M24.5 2.15 L25.75 2.0 26.4 2.05 26.45 2.05 Q28.7 2.25 30.35 4.05 L30.35 4.1 30.65 4.45 31.0 4.95 30.8 5.15 30.15 5.3 29.0 4.6 27.65 3.55 Q26.3 3.05 25.85 3.25 24.5 3.15 24.45 2.7 24.35 2.3 24.5 2.15" fill="#f0a626" fill-rule="evenodd" stroke="none"/>
      <path d="M27.5 6.3 L27.45 6.3 27.45 6.25 27.5 6.3 M17.45 6.75 L17.35 6.85 17.45 6.75 M17.05 30.55 L17.1 30.6 17.05 30.55" fill="#a46628" fill-rule="evenodd" stroke="none"/>
      <path d="M17.45 6.75 L20.8 6.55 19.3 8.05 19.3 8.1 Q18.05 9.35 17.2 10.95 16.5 12.2 15.95 13.55 L14.8 16.6 Q14.3 18.0 14.15 19.5 13.95 20.9 14.05 22.3 14.1 23.45 14.45 24.65 L13.75 24.4 Q13.1 24.4 12.75 25.15 12.55 25.45 12.5 25.9 L12.4 25.5 12.4 25.55 Q11.9 24.0 11.8 22.45 11.65 20.8 11.9 19.2 12.1 17.55 12.65 15.9 L12.65 15.95 Q13.15 14.25 13.9 12.65 L15.2 9.95 Q16.1 8.2 17.35 6.85 L17.45 6.75" fill="#984d00" fill-rule="evenodd" stroke="none"/>
      <path d="M15.35 5.1 Q14.15 5.6 12.95 6.5 L12.9 6.55 Q11.6 7.5 10.65 8.75 L10.6 8.8 8.9 11.4 7.3 14.6 6.3 16.8 5.45 19.0 4.8 21.2 4.2 23.35 4.2 23.4 3.8 25.55 3.45 27.7 3.45 27.75 3.3 29.7 Q3.2 30.55 3.25 31.6 L3.4 34.3 3.9 37.8 3.9 37.85 4.8 41.35 Q5.25 43.1 6.15 44.5 7.05 45.9 8.0 46.75 8.9 47.55 10.6 48.45 12.35 49.4 14.4 49.6 L14.45 49.6 17.8 49.75 17.85 49.75 21.5 49.5 25.2 48.65 Q26.95 48.15 27.55 46.65 M5.5 32.15 L5.5 31.6 5.55 29.85 5.7 28.0 6.0 25.95 6.4 23.8 6.4 23.85 6.95 21.75 7.6 19.65 7.55 19.7 8.4 17.65 9.35 15.55 Q10.05 13.9 10.9 12.4 L12.4 10.1 14.3 8.25 Q15.3 7.5 16.25 7.1 L17.0 6.85 17.45 6.75 20.8 6.55 24.4 7.2 Q25.65 7.6 26.5 8.25 L27.35 8.5 28.1 8.1 28.35 7.3 27.9 6.55 27.5 6.3 M15.35 5.1 L16.5 4.7 18.15 4.45 20.15 4.35 22.55 2.9 Q23.45 2.35 24.5 2.15 L25.75 2.0 26.4 2.05 26.45 2.05 Q28.7 2.25 30.35 4.05 L30.35 4.1 30.65 4.45 31.0 4.95 Q31.85 6.5 31.0 8.3 L30.35 8.85 29.5 8.85 28.9 8.2 Q28.75 7.8 28.95 7.4 29.4 6.35 28.7 5.5 L28.65 5.5 Q27.6 4.4 26.2 4.25 24.9 4.1 23.8 4.75 L25.15 5.1 Q26.05 5.4 26.8 5.85 L27.45 6.25 M20.15 4.35 L23.8 4.75 M17.35 6.85 Q16.1 8.2 15.2 9.95 L13.9 12.65 Q13.15 14.25 12.65 15.95 L12.65 15.9 Q12.1 17.55 11.9 19.2 11.65 20.8 11.8 22.45 11.9 24.0 12.4 25.55 L12.4 25.5 12.5 25.9 13.4 28.55 13.45 28.6 14.85 31.15 15.25 31.85 15.85 32.85 16.4 33.6 18.25 35.8 18.25 35.85 20.95 38.6 23.2 41.05 25.3 43.7 Q25.65 44.25 25.65 44.9 L25.65 44.95 25.4 45.95 24.55 46.55 21.1 47.35 17.9 47.6 14.6 47.4 Q13.05 47.25 11.7 46.55 L9.55 45.15 9.5 45.1 8.05 43.35 Q7.35 42.2 6.95 40.75 L6.1 37.4 5.65 34.1 5.5 32.75 5.5 32.15 M14.45 24.65 Q14.1 23.45 14.05 22.3 13.95 20.9 14.15 19.5 14.3 18.0 14.8 16.6 L15.95 13.55 Q16.5 12.2 17.2 10.95 18.05 9.35 19.3 8.1 L19.3 8.05 20.8 6.55 M17.05 30.55 L16.8 30.1 15.5 27.7 15.5 27.65 14.55 24.95 14.45 24.65 M17.1 30.6 L18.25 32.35 18.2 32.35 19.85 34.35 19.9 34.35 22.1 36.55 22.45 36.95 22.6 37.1 24.9 39.6 27.2 42.5 27.25 42.55 Q27.95 43.75 27.9 45.0 L27.55 46.65" fill="none" stroke="#000000" stroke-linecap="round" stroke-linejoin="round" stroke-opacity="0.3019608" stroke-width="0.05"/>
      <path d="M24.75 12.45 Q26.25 8.95 28.4 7.0 L28.2 7.1 Q28.45 6.9 28.75 6.85 L28.85 6.8 Q30.55 6.05 32.55 5.9 35.2 5.75 37.65 6.65 L37.95 6.75 38.5 9.6 39.9 7.75 Q41.05 8.4 42.1 9.35 L42.7 9.95 42.35 10.95 43.45 10.75 44.4 11.85 Q46.8 15.0 47.5 19.1 48.25 23.4 46.85 26.85 L44.55 26.45 45.9 27.45 46.4 27.85 45.5 29.3 Q43.65 32.1 40.8 33.25 L40.2 33.5 38.9 33.85 34.1 32.85 33.45 30.8 32.8 32.55 30.85 31.75 Q29.65 31.25 28.6 30.55 L26.0 28.6 24.8 26.9 Q23.85 25.45 23.25 23.8 L23.3 23.75 22.8 20.0 Q22.8 17.25 24.15 13.85 L26.25 14.05 24.75 12.45 M24.35 10.65 L23.85 11.5 23.65 11.85 22.85 13.75 Q23.2 12.6 23.8 11.55 L24.35 10.65" fill="#7a604f" fill-rule="evenodd" stroke="none"/>
      <path d="M32.8 32.55 L33.45 30.8 34.1 32.85 34.35 33.85 30.35 35.7 29.7 34.45 32.4 33.3 32.8 32.55 M28.75 6.85 Q28.45 6.9 28.2 7.1 25.95 7.9 24.35 10.65 L23.8 11.55 19.25 13.8 20.05 12.4 Q21.85 9.8 24.4 8.6 L28.75 6.85 M22.75 14.1 Q22.05 15.95 22.05 17.6 22.05 19.8 22.6 22.0 L19.65 23.4 18.35 23.7 18.1 22.55 Q17.5 18.9 18.4 15.8 L20.85 14.8 22.75 14.1 M26.95 33.1 L28.0 32.75 26.7 34.55 26.95 33.1" fill="#a6826c" fill-rule="evenodd" stroke="none"/>
      <path d="M28.2 7.1 L28.4 7.0 Q26.25 8.95 24.75 12.45 L23.85 11.5 24.35 10.65 Q25.95 7.9 28.2 7.1 M24.15 13.85 Q22.8 17.25 22.8 20.0 L23.3 23.75 23.25 23.8 23.15 23.85 22.6 22.0 Q22.05 19.8 22.05 17.6 22.05 15.95 22.75 14.1 L23.5 13.8 24.15 13.85 M26.0 28.6 L28.6 30.55 Q29.65 31.25 30.85 31.75 L32.8 32.55 32.4 33.3 Q30.0 32.4 27.8 30.45 L26.0 28.6 M34.1 32.85 L38.9 33.85 37.4 34.0 34.55 33.85 34.35 33.85 34.1 32.85" fill="#c79c81" fill-rule="evenodd" stroke="none"/>
      <path d="M24.75 12.45 L26.25 14.05 24.15 13.85 23.5 13.8 22.75 14.1 20.85 14.8 19.25 13.8 23.8 11.55 Q23.2 12.6 22.85 13.75 L23.65 11.85 23.85 11.5 24.75 12.45 M23.25 23.8 Q23.85 25.45 24.8 26.9 L26.0 28.6 27.8 30.45 Q30.0 32.4 32.4 33.3 L29.7 34.45 28.1 35.15 26.7 34.55 28.0 32.75 26.95 33.1 25.15 33.6 23.45 32.3 Q19.55 28.8 18.35 23.7 L19.65 23.4 22.6 22.0 23.15 23.85 23.25 23.8 M38.9 33.85 L40.2 33.5 35.3 35.5 33.95 35.75 33.05 35.85 30.35 35.7 34.35 33.85 34.55 33.85 37.4 34.0 38.9 33.85 M45.9 27.45 L44.55 26.45 46.85 26.85 45.9 27.45" fill="#594539" fill-rule="evenodd" stroke="none"/>
      <path d="M40.2 33.5 L40.8 33.25 Q43.65 32.1 45.5 29.3 L46.4 27.85 45.9 27.45 M46.85 26.85 Q48.25 23.4 47.5 19.1 46.8 15.0 44.4 11.85 L43.45 10.75 42.35 10.95 42.7 9.95 42.1 9.35 Q41.05 8.4 39.9 7.75 L38.5 9.6 37.95 6.75 37.65 6.65 Q35.2 5.75 32.55 5.9 30.55 6.05 28.85 6.8 L28.75 6.85 M19.25 13.8 L20.05 12.4 Q21.85 9.8 24.4 8.6 L28.75 6.85 M46.85 26.85 L45.9 27.45 M30.35 35.7 L33.05 35.85 33.95 35.75 35.3 35.5 40.2 33.5 M18.35 23.7 L18.1 22.55 Q17.5 18.9 18.4 15.8 L20.85 14.8 19.25 13.8 M26.7 34.55 L28.1 35.15 29.7 34.45 M30.35 35.7 L29.7 34.45 M26.7 34.55 L26.95 33.1 25.15 33.6 23.45 32.3 Q19.55 28.8 18.35 23.7" fill="none" stroke="#000000" stroke-linecap="round" stroke-linejoin="round" stroke-opacity="0.3019608" stroke-width="0.05"/>
      <path d="M42.4 48.8 Q40.85 46.5 40.8 45.4 L40.35 45.8 Q39.45 43.75 40.05 41.05 40.65 38.25 42.45 36.75 42.85 37.35 42.9 38.5 43.6 37.65 44.8 36.55 L45.1 36.65 45.3 36.65 45.6 36.9 46.55 38.05 46.55 38.9 46.55 39.0 Q46.5 43.1 43.8 46.9 L43.7 46.85 42.4 48.8 M48.0 36.75 L47.6 36.7 46.75 36.55 45.0 36.1 44.85 36.0 Q43.45 35.4 42.25 33.95 L42.85 33.95 43.8 33.95 43.05 33.6 42.05 32.75 41.85 32.5 44.75 32.35 Q45.8 32.55 46.5 32.9 L47.05 33.55 47.95 34.6 48.3 35.05 48.6 35.5 48.95 36.15 49.05 36.4 49.3 36.4 49.1 36.45 48.7 36.5 48.35 36.7 48.0 36.75 M44.55 44.3 L43.7 46.85 44.55 44.3 M49.1 36.45 L49.05 36.4 49.1 36.45" fill="#fffceb" fill-rule="evenodd" stroke="none"/>
      <path d="M35.85 40.9 Q36.0 39.6 36.55 38.65 L37.65 36.85 Q37.5 37.65 37.5 39.3 37.45 40.7 37.55 41.6 37.95 38.95 39.25 36.9 L40.45 35.55 40.85 35.45 42.0 35.45 Q41.1 34.95 40.4 34.35 L40.2 34.05 39.75 33.35 39.3 32.35 Q40.05 31.95 41.1 31.7 L41.75 31.5 43.45 31.55 44.9 31.8 46.5 32.9 Q45.8 32.55 44.75 32.35 L41.85 32.5 42.05 32.75 43.05 33.6 43.8 33.95 42.85 33.95 42.25 33.95 Q43.45 35.4 44.85 36.0 L45.0 36.1 46.75 36.55 47.6 36.7 48.0 36.75 47.15 36.85 47.05 36.85 47.0 36.85 45.3 36.65 45.1 36.65 44.8 36.55 Q43.6 37.65 42.9 38.5 42.85 37.35 42.45 36.75 40.65 38.25 40.05 41.05 39.45 43.75 40.35 45.8 L40.8 45.4 Q40.85 46.5 42.4 48.8 40.35 47.3 38.6 45.35 L38.5 45.25 Q36.5 42.75 35.85 40.9 M29.65 40.85 L30.7 39.45 32.3 38.25 33.15 37.85 Q31.9 39.25 31.5 40.3 L31.35 40.9 29.7 40.85 29.65 40.85 M38.5 45.35 L37.9 46.4 35.5 42.9 36.7 44.1 38.5 45.35" fill="#e8dba4" fill-rule="evenodd" stroke="none"/>
      <path d="M41.75 31.5 L41.1 31.7 Q40.05 31.95 39.3 32.35 L39.75 33.35 40.2 34.05 40.4 34.35 Q41.1 34.95 42.0 35.45 L40.85 35.45 40.45 35.55 39.25 36.9 Q37.95 38.95 37.55 41.6 37.45 40.7 37.5 39.3 37.5 37.65 37.65 36.85 L36.55 38.65 Q36.0 39.6 35.85 40.9 36.5 42.75 38.5 45.25 L38.5 45.35 36.7 44.1 35.5 42.9 37.9 46.4 37.85 46.5 Q34.15 43.55 33.2 40.65 L31.35 40.9 31.5 40.3 Q31.9 39.25 33.15 37.85 L32.3 38.25 30.7 39.45 29.65 40.85 Q29.15 39.45 29.8 37.95 30.3 36.75 31.5 35.7 L32.95 35.15 34.05 34.95 Q34.25 35.6 34.05 36.4 L33.8 37.4 34.75 35.9 37.35 33.65 37.45 33.6 37.5 33.6 38.05 33.7 39.15 34.15 Q38.5 33.6 38.2 32.45 L38.35 32.45 38.85 32.3 41.75 31.5 M33.6 37.9 Q32.85 39.0 33.2 40.65 32.85 39.0 33.6 37.9 M35.55 39.9 L35.85 40.9 35.55 39.9" fill="#bfb485" fill-rule="evenodd" stroke="none"/>
      <path d="M38.2 32.45 Q38.5 33.6 39.15 34.15 L38.05 33.7 Q37.95 32.75 38.2 32.45 M37.35 33.65 L34.75 35.9 33.8 37.4 34.05 36.4 Q34.25 35.6 34.05 34.95 L32.95 35.15 31.5 35.7 Q33.25 34.45 34.9 34.45 L34.95 34.9 Q35.8 34.2 36.5 33.9 L37.35 33.65" fill="#9c936c" fill-rule="evenodd" stroke="none"/>
      <path d="M35.85 40.9 Q36.5 42.75 38.5 45.25 L38.6 45.35 Q40.35 47.3 42.4 48.8 M44.8 36.55 L45.1 36.65 45.3 36.65 47.0 36.85 47.05 36.85 47.15 36.85 48.0 36.75 M46.5 32.9 L44.9 31.8 43.45 31.55 41.75 31.5 38.85 32.3 38.35 32.45 38.2 32.45 M38.05 33.7 L37.5 33.6 37.45 33.6 37.35 33.65 M31.5 35.7 Q30.3 36.75 29.8 37.95 29.15 39.45 29.65 40.85 M31.35 40.9 L33.2 40.65 Q32.85 39.0 33.6 37.9 M31.5 35.7 Q33.25 34.45 34.9 34.45 L34.95 34.9 Q35.8 34.2 36.5 33.9 L37.35 33.65 M38.05 33.7 Q37.95 32.75 38.2 32.45 M45.3 36.65 L45.6 36.9 46.55 38.05 46.55 38.9 46.55 39.0 Q46.5 43.1 43.8 46.9 L43.7 46.85 42.4 48.8 M46.5 32.9 L47.05 33.55 47.95 34.6 48.3 35.05 48.6 35.5 48.95 36.15 49.05 36.4 49.1 36.45 48.7 36.5 48.35 36.7 48.0 36.75 M43.7 46.85 L44.55 44.3 M35.85 40.9 L35.55 39.9 M37.9 46.4 L37.85 46.5 Q34.15 43.55 33.2 40.65 M38.5 45.35 L37.9 46.4 M38.5 45.35 L38.5 45.25 M31.35 40.9 L29.7 40.85" fill="none" stroke="#000000" stroke-linecap="round" stroke-linejoin="round" stroke-opacity="0.3019608" stroke-width="0.05"/>
      <path d="M40.15 17.9 L40.45 17.6 40.5 17.55 39.45 16.0 Q38.15 14.4 36.3 13.35 L36.15 13.25 35.9 13.1 35.85 13.15 35.4 13.9 35.3 14.05 35.25 14.2 35.1 14.45 Q34.65 15.35 34.35 16.6 L34.25 16.9 33.95 18.35 Q31.95 14.75 30.2 13.5 L30.1 13.65 Q27.85 15.5 27.2 18.4 L27.4 18.5 27.75 18.65 Q29.05 19.5 31.05 20.2 L32.05 20.5 32.6 20.65 Q30.4 21.65 29.1 22.75 L28.85 22.9 28.5 23.15 28.3 23.4 28.2 23.45 28.1 23.5 Q29.5 25.9 31.85 27.4 L32.75 27.95 33.4 26.95 Q34.15 25.45 34.65 22.8 L34.7 22.8 34.7 22.7 34.75 22.8 35.2 23.55 Q36.9 26.45 38.45 27.55 L39.35 26.65 39.4 26.6 Q40.9 24.9 41.4 22.6 L40.9 22.35 40.55 22.1 Q38.8 21.15 36.0 20.4 L37.5 19.7 37.6 19.7 40.15 17.9 M31.0 6.35 L32.45 6.15 32.6 6.35 34.1 9.1 34.25 9.35 34.7 10.2 34.85 10.25 Q37.25 10.7 39.45 12.7 41.75 14.75 42.85 17.5 L43.85 17.9 47.5 19.2 47.65 20.2 44.55 21.95 44.5 22.0 44.2 22.1 43.6 22.45 Q43.45 25.15 42.0 27.3 L41.3 28.2 Q40.25 29.4 38.95 30.0 L38.3 30.25 38.25 30.25 38.1 30.45 38.15 30.3 38.1 30.3 37.4 34.35 37.35 34.65 36.8 34.8 36.15 35.1 34.1 31.25 33.7 30.6 Q31.2 30.1 28.95 28.1 26.75 26.25 25.75 23.65 L25.0 23.4 21.0 21.9 Q20.0 21.5 19.85 21.45 L19.95 21.4 20.05 21.3 Q20.3 21.1 21.05 20.75 L24.9 18.65 24.85 18.6 24.9 18.3 Q25.0 15.65 26.45 13.5 27.15 12.4 28.05 11.7 29.0 10.95 30.15 10.55 L30.25 10.5 30.3 9.95 30.35 9.7 30.4 9.6 30.45 9.25 30.95 6.5 31.0 6.35" fill="#000000" fill-opacity="0.3019608" fill-rule="evenodd" stroke="none"/>
      <path d="M32.1 3.8 L32.65 4.75 33.3 5.95 34.8 8.7 35.0 8.95 35.45 9.8 35.55 9.85 Q38.0 10.3 40.2 12.3 42.45 14.35 43.55 17.1 L44.6 17.5 49.0 19.05 49.05 19.05 49.1 19.05 49.3 19.15 48.4 19.25 48.35 19.25 36.75 20.05 38.2 19.35 38.3 19.3 Q39.9 18.4 40.85 17.5 L41.15 17.2 41.2 17.15 41.75 16.7 Q40.1 13.55 36.9 11.9 L36.0 13.65 35.95 13.8 35.85 14.05 Q35.4 14.95 35.05 16.2 L35.0 16.55 34.65 17.95 32.1 3.8 M38.9 29.9 L38.85 29.9 38.1 33.95 38.05 34.3 37.65 36.1 37.65 35.9 35.45 22.3 35.45 22.4 35.4 22.25 35.45 22.3 35.45 22.45 35.9 23.15 Q37.6 26.05 39.15 27.15 L40.05 26.3 40.15 26.2 Q41.6 24.55 42.1 22.2 L43.5 22.6 Q42.8 24.55 42.1 25.75 41.45 26.95 39.25 28.65 L38.9 29.9 M20.65 21.0 L20.75 20.9 Q21.0 20.75 21.8 20.35 L25.6 18.25 25.55 18.2 25.6 17.9 Q25.75 15.25 27.15 13.1 27.9 12.05 28.8 11.35 29.75 10.55 30.85 10.15 L31.0 10.1 30.75 12.05 29.0 13.95 Q27.8 15.75 27.65 17.9 L27.95 18.0 28.1 18.1 28.45 18.3 Q29.75 19.1 31.8 19.8 L32.8 20.1 33.3 20.25 23.35 20.85 23.3 20.85 20.65 21.0 M34.0 7.4 Q32.45 4.85 32.65 6.0 L33.25 9.25 33.25 9.1 Q33.7 8.2 34.55 9.85 35.35 11.45 35.35 12.75 L35.15 15.15 35.5 13.65 35.6 11.3 35.55 10.95 37.05 11.35 Q38.65 12.1 40.65 13.75 L41.95 15.25 42.75 17.5 Q46.1 18.8 41.2 19.5 L46.85 19.2 47.55 19.15 48.1 19.05 Q48.5 19.0 46.45 18.3 L43.25 17.25 Q42.55 15.25 41.5 13.95 L39.15 11.7 Q37.4 10.35 35.3 9.95 L34.0 7.4 M33.45 27.55 L33.0 28.4 Q30.8 27.05 29.8 26.1 28.8 25.15 28.25 23.5 L28.85 23.1 Q30.2 25.5 32.55 27.0 L33.45 27.55 M31.8 26.65 L30.7 25.65 29.8 24.6 Q28.9 23.75 28.75 23.75 L28.85 24.05 Q28.85 24.9 30.45 26.4 32.1 28.05 32.95 27.7 L31.8 26.65 M39.05 27.35 L38.7 27.6 38.05 26.5 Q37.0 25.3 35.85 23.5 L36.8 28.1 Q36.55 26.4 37.45 27.6 38.25 28.75 38.2 30.6 L38.05 33.25 38.75 28.85 38.8 28.5 Q39.45 28.35 40.3 27.3 L41.55 25.45 40.1 26.65 Q39.9 26.7 39.05 27.35 M29.4 19.0 Q27.9 18.3 27.5 18.25 30.85 20.0 22.75 20.6 L22.75 20.65 23.1 20.7 27.6 20.4 30.2 20.3 Q31.3 20.3 31.1 19.95 30.95 19.6 29.4 19.0 M28.1 13.85 L29.7 12.0 Q30.2 11.5 30.6 11.15 30.6 10.8 30.2 10.8 29.05 10.8 27.85 13.05 26.7 15.05 26.7 16.3 L26.7 16.7 26.7 17.05 26.75 17.05 Q27.45 14.95 28.1 13.85" fill="#eeab11" fill-rule="evenodd" stroke="none"/>
      <path d="M31.0 10.1 L31.05 9.6 31.05 9.3 31.1 9.2 31.15 8.9 31.65 6.1 32.0 4.4 32.1 3.8 34.65 17.95 Q32.7 14.35 30.95 13.1 L30.8 13.25 Q28.55 15.1 27.95 18.0 L27.65 17.9 Q27.8 15.75 29.0 13.95 L30.75 12.05 31.0 10.1 M49.3 19.15 L45.25 21.55 45.2 21.6 44.95 21.75 44.3 22.1 Q44.2 24.75 42.7 26.9 L42.0 27.8 Q41.0 29.0 39.65 29.6 L39.0 29.85 38.95 29.85 38.85 30.05 38.9 29.9 39.25 28.65 Q41.45 26.95 42.1 25.75 42.8 24.55 43.5 22.6 L42.1 22.2 41.6 21.95 41.25 21.75 Q39.5 20.75 36.75 20.05 L48.35 19.25 48.4 19.25 49.3 19.15 M37.65 36.1 L34.8 30.85 34.45 30.2 Q31.95 29.7 29.7 27.7 27.5 25.85 26.45 23.25 L25.75 23.0 21.7 21.5 20.55 21.05 20.65 21.0 23.3 20.85 23.35 20.85 33.3 20.25 Q31.1 21.25 29.8 22.35 L29.55 22.5 29.25 22.75 29.0 23.0 28.9 23.05 28.85 23.1 28.25 23.5 Q28.8 25.15 29.8 26.1 30.8 27.05 33.0 28.4 L33.45 27.55 34.1 26.55 Q34.9 25.05 35.4 22.45 L35.45 22.4 35.45 22.3 37.65 35.9 37.65 36.1 M41.2 17.15 L40.2 15.6 Q38.9 14.0 37.0 12.95 L36.85 12.85 36.65 12.75 36.6 12.75 36.0 13.65 36.9 11.9 Q40.1 13.55 41.75 16.7 L41.2 17.15" fill="#d67500" fill-rule="evenodd" stroke="none"/>
      <path d="M34.0 7.4 L35.3 9.95 Q37.4 10.35 39.15 11.7 L41.5 13.95 Q42.55 15.25 43.25 17.25 L46.45 18.3 Q48.5 19.0 48.1 19.05 L47.55 19.15 46.85 19.2 41.2 19.5 Q46.1 18.8 42.75 17.5 L41.95 15.25 40.65 13.75 Q38.65 12.1 37.05 11.35 L35.55 10.95 35.6 11.3 35.5 13.65 35.15 15.15 35.35 12.75 Q35.35 11.45 34.55 9.85 33.7 8.2 33.25 9.1 L33.25 9.25 32.65 6.0 Q32.45 4.85 34.0 7.4 M31.8 26.65 L32.95 27.7 Q32.1 28.05 30.45 26.4 28.85 24.9 28.85 24.05 L28.75 23.75 Q28.9 23.75 29.8 24.6 L30.7 25.65 31.8 26.65 M39.05 27.35 Q39.9 26.7 40.1 26.65 L41.55 25.45 40.3 27.3 Q39.45 28.35 38.8 28.5 L38.75 28.85 38.05 33.25 38.2 30.6 Q38.25 28.75 37.45 27.6 36.55 26.4 36.8 28.1 L35.85 23.5 Q37.0 25.3 38.05 26.5 L38.7 27.6 39.05 27.35 M28.1 13.85 Q27.45 14.95 26.75 17.05 L26.7 17.05 26.7 16.7 26.7 16.3 Q26.7 15.05 27.85 13.05 29.05 10.8 30.2 10.8 30.6 10.8 30.6 11.15 30.2 11.5 29.7 12.0 L28.1 13.85 M29.4 19.0 Q30.95 19.6 31.1 19.95 31.3 20.3 30.2 20.3 L27.6 20.4 23.1 20.7 22.75 20.65 22.75 20.6 Q30.85 20.0 27.5 18.25 27.9 18.3 29.4 19.0" fill="#ffd812" fill-rule="evenodd" stroke="none"/>
      <path d="M31.0 10.1 L31.05 9.6 31.05 9.3 31.1 9.2 31.15 8.9 31.65 6.1 32.0 4.4 32.1 3.8 32.65 4.75 33.3 5.95 34.8 8.7 35.0 8.95 35.45 9.8 35.55 9.85 Q38.0 10.3 40.2 12.3 42.45 14.35 43.55 17.1 L44.6 17.5 49.0 19.05 49.05 19.05 49.1 19.05 49.3 19.15 45.25 21.55 45.2 21.6 44.95 21.75 44.3 22.1 Q44.2 24.75 42.7 26.9 L42.0 27.8 Q41.0 29.0 39.65 29.6 L39.0 29.85 38.95 29.85 38.85 30.05 38.9 29.9 38.85 29.9 38.1 33.95 38.05 34.3 37.65 36.1 34.8 30.85 34.45 30.2 Q31.95 29.7 29.7 27.7 27.5 25.85 26.45 23.25 L25.75 23.0 21.7 21.5 20.55 21.05 20.65 21.0 20.75 20.9 Q21.0 20.75 21.8 20.35 L25.6 18.25 25.55 18.2 25.6 17.9 Q25.75 15.25 27.15 13.1 27.9 12.05 28.8 11.35 29.75 10.55 30.85 10.15 L31.0 10.1 M27.95 18.0 Q28.55 15.1 30.8 13.25 L30.95 13.1 Q32.7 14.35 34.65 17.95 M41.2 17.15 L41.15 17.2 40.85 17.5 Q39.9 18.4 38.3 19.3 L38.2 19.35 36.75 20.05 M36.0 13.65 L36.6 12.75 36.65 12.75 36.85 12.85 37.0 12.95 Q38.9 14.0 40.2 15.6 L41.2 17.15 M36.0 13.65 L35.95 13.8 35.85 14.05 Q35.4 14.95 35.05 16.2 L35.0 16.55 34.65 17.95 M35.45 22.4 L35.4 22.45 Q34.9 25.05 34.1 26.55 L33.45 27.55 M28.85 23.1 L28.9 23.05 29.0 23.0 29.25 22.75 29.55 22.5 29.8 22.35 Q31.1 21.25 33.3 20.25 M35.45 22.3 L35.45 22.45 35.9 23.15 Q37.6 26.05 39.15 27.15 L40.05 26.3 40.15 26.2 Q41.6 24.55 42.1 22.2 L41.6 21.95 41.25 21.75 Q39.5 20.75 36.75 20.05 M27.95 18.0 L28.1 18.1 28.45 18.3 Q29.75 19.1 31.8 19.8 L32.8 20.1 33.3 20.25 M28.85 23.1 Q30.2 25.5 32.55 27.0 L33.45 27.55" fill="none" stroke="#000000" stroke-linecap="round" stroke-linejoin="round" stroke-opacity="0.3019608" stroke-width="0.05"/>
      <path d="M38.2 11.4 L38.8 11.5 Q39.15 11.65 39.4 11.95 L39.65 12.45 39.35 12.75 38.75 12.65 38.15 12.25 37.9 11.7 Q37.9 11.45 38.2 11.4" fill="#ffff99" fill-rule="evenodd" stroke="none"/>
      <path d="M30.95 26.65 L31.55 26.75 32.15 27.2 32.4 27.7 32.1 28.0 31.5 27.9 30.9 27.5 30.65 26.95 Q30.65 26.7 30.95 26.65" fill="#ffff99" fill-rule="evenodd" stroke="none"/>
    </g>
    <g id="shape2" transform="matrix(1.0, 0.0, 0.0, 1.0, -3.25, -2.0)">
      <path d="M42.35 10.95 L43.45 10.75 44.4 11.85 Q46.6 14.75 47.4 18.5 L49.0 19.05 49.1 19.05 49.3 19.15 47.65 20.2 Q48.05 23.85 46.85 26.85 L45.9 27.45 46.4 27.85 45.5 29.3 43.55 31.55 44.9 31.8 46.5 32.9 47.05 33.55 47.95 34.6 48.3 35.05 48.6 35.5 48.95 36.15 49.05 36.4 49.3 36.4 49.1 36.45 48.7 36.5 48.35 36.7 48.0 36.75 47.15 36.85 47.0 36.85 45.3 36.65 45.6 36.9 46.55 38.05 46.55 38.9 46.55 39.0 Q46.5 43.1 43.8 46.9 L43.7 46.85 42.4 48.8 Q40.35 47.3 38.6 45.35 L38.5 45.25 38.5 45.35 37.9 46.4 37.85 46.5 Q34.15 43.55 33.2 40.65 L31.35 40.9 29.7 40.85 29.65 40.85 Q29.15 39.45 29.8 37.95 30.25 36.85 31.35 35.85 L30.35 35.7 29.7 34.45 28.1 35.15 26.7 34.55 26.95 33.1 25.15 33.6 23.45 32.3 Q19.55 28.8 18.35 23.7 L18.1 22.55 Q17.5 18.9 18.4 15.8 L20.85 14.8 19.25 13.8 20.05 12.4 Q21.85 9.8 24.4 8.6 L26.05 7.95 Q25.35 7.5 24.4 7.2 L20.8 6.55 19.3 8.05 19.3 8.1 Q18.05 9.35 17.2 10.95 16.5 12.2 15.95 13.55 L14.8 16.6 Q14.3 18.0 14.15 19.5 13.95 20.9 14.05 22.3 14.1 23.45 14.45 24.65 L14.55 24.95 15.5 27.65 15.5 27.7 16.8 30.1 17.05 30.55 17.1 30.6 18.25 32.35 18.2 32.35 19.85 34.35 19.9 34.35 22.1 36.55 22.45 36.95 22.6 37.1 24.9 39.6 27.2 42.5 27.25 42.55 Q27.95 43.75 27.9 45.0 L27.55 46.65 Q26.95 48.15 25.2 48.65 L21.5 49.5 17.85 49.75 17.8 49.75 14.45 49.6 14.4 49.6 Q12.35 49.4 10.6 48.45 8.9 47.55 8.0 46.75 7.05 45.9 6.15 44.5 5.25 43.1 4.8 41.35 L3.9 37.85 3.9 37.8 3.4 34.3 3.25 31.6 Q3.2 30.55 3.3 29.7 L3.45 27.75 3.45 27.7 3.8 25.55 4.2 23.4 4.2 23.35 4.8 21.2 5.45 19.0 6.3 16.8 7.3 14.6 8.9 11.4 10.6 8.8 10.65 8.75 Q11.6 7.5 12.9 6.55 L12.95 6.5 Q14.15 5.6 15.35 5.1 L16.5 4.7 18.15 4.45 20.15 4.35 22.55 2.9 Q23.45 2.35 24.5 2.15 L25.75 2.0 26.4 2.05 26.45 2.05 Q28.7 2.25 30.35 4.05 L30.35 4.1 30.65 4.45 31.0 4.95 31.4 6.05 31.7 6.0 32.0 4.4 32.1 3.8 32.65 4.75 33.25 5.9 Q35.55 5.85 37.65 6.65 L37.95 6.75 38.5 9.6 39.9 7.75 Q41.05 8.4 42.1 9.35 L42.7 9.95 42.35 10.95 M14.3 8.25 L12.4 10.1 10.9 12.4 Q10.05 13.9 9.35 15.55 L8.4 17.65 7.55 19.7 7.6 19.65 6.95 21.75 6.4 23.85 6.4 23.8 6.0 25.95 5.7 28.0 5.55 29.85 5.5 31.6 5.5 32.15 5.5 32.75 5.65 34.1 6.1 37.4 6.95 40.75 Q7.35 42.2 8.05 43.35 L9.5 45.1 9.55 45.15 11.7 46.55 Q13.05 47.25 14.6 47.4 L17.9 47.6 21.1 47.35 24.55 46.55 25.4 45.95 25.65 44.95 25.65 44.9 Q25.65 44.25 25.3 43.7 L23.2 41.05 20.95 38.6 18.25 35.85 18.25 35.8 16.4 33.6 15.85 32.85 15.25 31.85 14.85 31.15 13.45 28.6 13.4 28.55 12.5 25.9 12.4 25.55 Q11.9 24.0 11.8 22.45 11.65 20.8 11.9 19.2 12.1 17.55 12.65 15.9 L12.65 15.95 Q13.15 14.25 13.9 12.65 L15.2 9.95 Q16.1 8.2 17.35 6.85 L17.45 6.75 17.0 6.85 16.25 7.1 Q15.3 7.5 14.3 8.25 M28.7 5.5 L28.65 5.5 Q27.6 4.4 26.2 4.25 24.9 4.1 23.8 4.75 L25.15 5.1 Q26.05 5.4 26.8 5.85 L27.45 6.25 27.5 6.3 27.9 6.55 28.3 7.05 28.75 6.85 28.85 6.8 29.15 6.7 28.7 5.5" fill="#ff0000" fill-rule="evenodd" stroke="none"/>
    </g>
    <g id="sprite2" transform="matrix(1.0, 0.0, 0.0, 1.0, 0.0, 0.0)">
      <use height="37.7" transform="matrix(1.0, 0.0, 0.0, 1.0, 0.0, 0.0)" width="37.7" xlink:href="#shape3"/>
    </g>
    <g id="shape3" transform="matrix(1.0, 0.0, 0.0, 1.0, 0.0, 0.0)">
      <path d="M32.15 32.15 Q26.65 37.7 18.85 37.7 11.05 37.7 5.5 32.15 0.0 26.65 0.0 18.85 0.0 11.05 5.5 5.5 11.05 0.0 18.85 0.0 26.65 0.0 32.15 5.5 37.7 11.05 37.7 18.85 37.7 26.65 32.15 32.15" fill="url(#gradient0)" fill-rule="evenodd" stroke="none"/>
    </g>
    <radialGradient cx="0" cy="0" gradientTransform="matrix(0.0244, 0.0, 0.0, 0.0244, 18.85, 18.85)" gradientUnits="userSpaceOnUse" id="gradient0" r="819.2" spreadMethod="pad">
      <stop offset="0.0" stop-color="#ffffcc"/>
      <stop offset="1.0" stop-color="#ffffcc" stop-opacity="0.0"/>
    </radialGradient>
  </defs>
</svg>
