<?xml version="1.0" encoding="UTF-8" standalone="no"?>
<svg xmlns:xlink="http://www.w3.org/1999/xlink" height="440.0px" width="440.0px" xmlns="http://www.w3.org/2000/svg">
  <g transform="matrix(10.0, 0.0, 0.0, 10.0, 0.0, 0.0)">
    <use height="44.0" transform="matrix(1.0, 0.0, 0.0, 1.0, 0.0, 0.0)" width="44.0" xlink:href="#shape0"/>
    <use height="37.25" transform="matrix(0.8724, 0.0, 0.0, 0.8724, 5.6777, 4.5245)" width="36.05" xlink:href="#sprite0"/>
  </g>
  <defs>
    <g id="shape0" transform="matrix(1.0, 0.0, 0.0, 1.0, 0.0, 0.0)">
      <path d="M44.0 44.0 L0.0 44.0 0.0 0.0 44.0 0.0 44.0 44.0" fill="#43adca" fill-opacity="0.0" fill-rule="evenodd" stroke="none"/>
      <path d="M19.9 41.75 L19.95 41.7 19.9 41.75" fill="#d8d8af" fill-rule="evenodd" stroke="none"/>
      <path d="M33.7 4.8 L39.8 15.4 38.3 17.1 32.2 6.15 33.7 4.8" fill="#560000" fill-rule="evenodd" stroke="none"/>
      <path d="M25.7 13.4 L24.35 6.45 32.2 6.15 24.35 6.45 25.05 5.25 33.7 4.8 32.2 6.15 38.3 17.1 20.25 41.5 21.9 35.8 26.45 17.45 30.75 17.3 27.25 16.05 25.7 13.4 M38.3 17.1 L30.75 17.3 38.3 17.1" fill="#963807" fill-rule="evenodd" stroke="none"/>
      <path d="M16.55 6.0 L16.65 5.4 24.35 6.45 16.65 5.4 17.95 4.45 24.25 5.25 25.05 5.25 24.35 6.45 25.7 13.4 26.45 17.45 25.7 13.4 27.25 16.05 30.75 17.3 26.45 17.45 21.35 16.6 13.5 15.15 21.35 16.6 25.4 18.55 21.9 35.8 20.25 41.5 20.05 41.75 19.95 41.7 17.9 33.15 13.5 15.15 16.55 6.0" fill="#c16100" fill-rule="evenodd" stroke="none"/>
      <path d="M16.65 5.4 L16.55 6.0 12.9 13.9 10.8 13.9 8.7 12.9 4.2 10.8 8.7 12.9 12.8 16.55 17.9 33.15 19.95 41.7 19.9 41.75 4.2 10.8 11.3 3.05 16.65 5.4" fill="#ffa004" fill-rule="evenodd" stroke="none"/>
      <path d="M8.7 12.9 L10.8 13.9 12.9 13.9 16.55 6.0 13.5 15.15 10.8 13.9 13.5 15.15 17.9 33.15 12.8 16.55 8.7 12.9 M21.35 16.6 L26.45 17.45 21.9 35.8 25.4 18.55 21.35 16.6" fill="#fec570" fill-rule="evenodd" stroke="none"/>
      <path d="M16.65 5.4 L11.3 3.05 13.7 2.7 17.95 4.45 16.65 5.4" fill="#d97917" fill-rule="evenodd" stroke="none"/>
      <path d="M11.3 3.05 L4.2 10.8 8.7 12.9 M13.5 15.15 L21.35 16.6 M26.45 17.45 L25.7 13.4 24.35 6.45 25.05 5.25 24.25 5.25 17.95 4.45 13.7 2.7 11.3 3.05 M16.65 5.4 L17.95 4.45 M32.2 6.15 L24.35 6.45 M33.7 4.8 L39.8 15.4 38.3 17.1 20.25 41.5 M20.05 41.75 L20.0 41.8 19.95 41.8 19.9 41.75 4.2 10.8 M32.2 6.15 L33.7 4.8 25.05 5.25 M30.75 17.3 L26.45 17.45 21.9 35.8 20.25 41.5 M30.75 17.3 L38.3 17.1 32.2 6.15 M20.0 41.8 L19.95 41.7 19.95 41.8" fill="none" stroke="#000000" stroke-linecap="round" stroke-linejoin="round" stroke-opacity="0.2901961" stroke-width="0.5"/>
      <path d="M16.55 6.0 L16.65 5.4 11.3 3.05 M8.7 12.9 L10.8 13.9 13.5 15.15 17.9 33.15 M16.55 6.0 L13.5 15.15 M21.35 16.6 L26.45 17.45 M24.35 6.45 L16.65 5.4 M20.25 41.5 L20.05 41.75 M21.9 35.8 L25.4 18.55 21.35 16.6 M19.95 41.7 L20.05 41.75 M19.95 41.7 L17.9 33.15" fill="none" stroke="#e4e4b0" stroke-linecap="round" stroke-linejoin="round" stroke-opacity="0.2901961" stroke-width="0.5"/>
      <path d="M13.95 13.7 L25.7 21.3 13.25 15.1 10.6 20.65 12.25 14.95 9.25 12.05 12.7 13.1 16.6 4.4 13.95 13.7" fill="#fcf3d8" fill-opacity="0.7921569" fill-rule="evenodd" stroke="none"/>
      <path d="M15.35 16.85 Q14.85 18.15 16.15 20.5 14.9 18.55 13.35 18.1 12.4 18.35 11.45 18.1 10.05 17.75 9.35 16.3 8.6 14.9 9.05 13.4 L6.45 12.15 9.55 12.4 Q10.0 11.55 10.95 10.9 11.85 10.35 12.7 10.25 L13.5 8.95 13.85 10.5 14.0 10.45 Q15.3 10.95 16.05 12.2 16.65 13.65 16.2 15.2 L15.35 16.85 M11.85 12.3 Q11.1 12.8 10.95 13.5 10.7 14.4 11.1 15.05 11.45 15.75 12.1 15.9 12.95 16.15 13.55 15.7 14.2 15.35 14.5 14.5 14.8 13.65 14.45 12.95 14.05 12.3 13.3 12.15 L11.85 12.3" fill="#fcf3d8" fill-opacity="0.3019608" fill-rule="evenodd" stroke="none"/>
      <path d="M11.85 12.3 L13.3 12.15 Q14.05 12.3 14.45 12.95 14.8 13.65 14.5 14.5 14.2 15.35 13.55 15.7 12.95 16.15 12.1 15.9 11.45 15.75 11.1 15.05 10.7 14.4 10.95 13.5 11.1 12.8 11.85 12.3" fill="#fcf3d8" fill-opacity="0.84313726" fill-rule="evenodd" stroke="none"/>
      <path d="M17.45 36.05 L12.3 26.0 18.55 35.35 22.6 32.55 19.1 35.85 20.05 39.05 18.1 36.95 11.8 41.45 17.45 36.05" fill="#fcf3d8" fill-opacity="0.7921569" fill-rule="evenodd" stroke="none"/>
      <path d="M17.7 33.25 Q18.6 32.55 18.65 30.4 18.7 32.3 19.65 33.2 20.4 33.45 21.0 33.95 21.85 34.8 21.75 36.05 21.7 37.35 20.75 38.25 L22.1 40.15 20.0 38.75 Q19.35 39.15 18.4 39.2 L16.95 38.9 15.8 39.55 16.25 38.3 16.1 38.3 Q15.4 37.4 15.35 36.2 15.55 34.95 16.45 34.05 L17.7 33.25 M18.35 37.85 Q19.05 37.85 19.45 37.35 19.95 36.85 19.95 36.25 20.05 35.6 19.6 35.25 19.15 34.75 18.55 34.8 17.9 34.8 17.35 35.3 16.85 35.75 16.75 36.35 16.8 36.95 17.25 37.4 17.75 37.85 18.35 37.85" fill="#fcf3d8" fill-opacity="0.3019608" fill-rule="evenodd" stroke="none"/>
      <path d="M18.35 37.85 Q17.75 37.85 17.25 37.4 16.8 36.95 16.75 36.35 16.85 35.75 17.35 35.3 17.9 34.8 18.55 34.8 19.15 34.75 19.6 35.25 20.05 35.6 19.95 36.25 19.95 36.85 19.45 37.35 19.05 37.85 18.35 37.85" fill="#fcf3d8" fill-opacity="0.84313726" fill-rule="evenodd" stroke="none"/>
    </g>
    <g id="sprite0" transform="matrix(1.0, 0.0, 0.0, 1.0, -1.35, -0.2)">
      <use height="37.25" transform="matrix(1.0, 0.0, 0.0, 1.0, 1.35, 0.2)" width="36.05" xlink:href="#shape1"/>
    </g>
    <g id="shape1" transform="matrix(1.0, 0.0, 0.0, 1.0, -1.35, -0.2)">
      <path d="M22.4 5.9 Q22.75 8.3 22.7 10.75 22.65 13.15 19.75 12.95 L15.4 12.3 Q13.15 11.45 13.25 11.2 13.35 10.9 18.25 11.85 L19.25 9.35 Q19.65 7.6 16.7 7.1 13.75 6.65 14.2 5.45 L15.15 2.35 15.75 2.55 Q18.0 3.4 20.95 3.35 L21.65 3.3 21.8 3.4 Q22.05 3.45 22.4 5.9 M27.2 17.0 L32.3 16.35 Q32.3 14.35 34.0 15.5 35.7 16.65 35.7 17.15 35.7 17.85 31.4 18.0 26.75 18.15 25.55 21.1 25.2 22.05 24.8 23.85 L24.1 26.55 22.2 32.05 20.3 37.3 Q20.1 37.65 20.1 37.05 20.1 36.15 21.4 32.8 L22.65 29.4 25.55 18.2 Q25.55 17.4 27.2 17.0 M10.25 2.9 Q9.95 3.4 9.25 3.4 L8.5 3.15 7.8 2.9 Q7.35 2.9 5.0 5.8 4.1 6.9 9.2 10.55 3.5 7.95 1.65 7.25 1.75 4.55 6.1 1.6 10.55 -1.5 10.55 2.15 L10.25 2.9 M9.8 18.05 Q9.95 20.1 11.3 26.65 10.75 25.55 13.65 34.95 7.85 19.45 1.35 9.0 L7.85 13.1 Q9.45 14.4 9.8 18.05" fill="#ffffff" fill-rule="evenodd" stroke="none"/>
      <path d="M36.8 11.8 L37.4 12.95 Q37.4 13.5 36.7 13.5 36.2 13.5 34.5 11.2 L32.1 7.8 30.4 4.85 Q29.8 3.95 28.05 4.0 L25.7 4.25 24.3 3.8 Q23.45 3.45 23.45 3.1 L24.0 2.8 24.55 2.6 26.2 2.8 30.05 2.3 Q31.55 2.2 31.85 3.5 L33.95 6.3 35.45 8.95 36.8 11.8" fill="#bab984" fill-rule="evenodd" stroke="none"/>
    </g>
  </defs>
</svg>
