<?xml version="1.0" encoding="UTF-8" standalone="no"?>
<svg xmlns:xlink="http://www.w3.org/1999/xlink" height="520.0px" width="520.0px" xmlns="http://www.w3.org/2000/svg">
  <g transform="matrix(10.0, 0.0, 0.0, 10.0, 0.0, 0.0)">
    <use height="52.0" transform="matrix(1.0, 0.0, 0.0, 1.0, 0.0, 0.0)" width="52.0" xlink:href="#shape0"/>
    <use height="20.95" transform="matrix(0.046, 0.3922, 0.4381, -0.0577, 4.15, 18.5)" width="24.45" xlink:href="#sprite0"/>
    <use height="20.95" transform="matrix(0.046, 0.3922, 0.4381, -0.0577, 32.55, 24.35)" width="24.45" xlink:href="#sprite0"/>
  </g>
  <defs>
    <g id="shape0" transform="matrix(1.0, 0.0, 0.0, 1.0, 0.0, 0.0)">
      <path d="M0.0 52.0 L0.0 0.0 52.0 0.0 52.0 52.0 0.0 52.0" fill="#33cc33" fill-opacity="0.0" fill-rule="evenodd" stroke="none"/>
      <path d="M30.05 34.7 L29.85 34.55 30.1 34.65 30.05 34.7" fill="#d89500" fill-rule="evenodd" stroke="none"/>
      <path d="M39.55 32.05 L37.2 33.2 37.3 33.0 Q37.5 32.4 35.75 31.4 L37.65 32.0 37.9 32.05 39.15 32.1 39.45 32.05 39.55 32.0 39.55 32.05 M30.6 34.8 L30.65 34.8 30.65 34.85 30.6 34.8" fill="#744c12" fill-rule="evenodd" stroke="none"/>
      <path d="M25.2 34.5 L25.2 34.45 25.25 34.45 25.2 34.5 M29.85 34.55 L29.8 34.55 29.8 34.5 29.85 34.55" fill="#ffcc00" fill-rule="evenodd" stroke="none"/>
      <path d="M39.9 22.45 Q43.25 23.55 35.65 24.2 L33.5 24.3 29.3 24.75 29.1 24.75 Q24.95 25.4 20.85 26.6 L19.2 27.1 20.8 26.0 21.3 25.8 29.85 23.95 29.95 23.85 32.65 23.1 32.75 23.05 32.9 23.05 39.9 22.45 M12.9 37.1 Q11.0 35.25 9.65 32.4 L9.6 32.2 9.25 31.45 11.7 31.85 Q14.25 31.85 15.1 30.15 15.6 29.1 15.6 26.25 15.6 24.3 15.05 22.5 L15.65 23.1 Q17.1 25.85 17.1 29.75 17.1 32.4 16.0 34.55 L15.4 35.4 Q14.4 36.55 12.9 37.1 M7.15 19.35 L9.95 18.05 10.75 17.7 10.75 17.65 10.95 17.6 Q12.9 17.0 14.95 17.9 15.45 19.3 13.8 19.65 L11.05 19.6 Q9.75 19.05 8.5 19.15 L7.15 19.35 M27.15 10.2 L28.65 8.3 28.4 14.4 27.15 10.2 M44.0 40.55 L44.0 40.6 41.8 42.2 36.75 38.75 44.0 40.55" fill="#fdb03e" fill-rule="evenodd" stroke="none"/>
      <path d="M46.55 24.95 L46.95 24.75 49.9 24.05 49.95 24.05 46.85 25.45 Q47.1 25.2 46.55 24.95 M44.3 28.25 Q44.95 29.2 44.2 29.85 L43.95 30.0 43.65 30.1 Q42.35 30.8 41.0 31.45 40.65 31.85 39.55 32.05 L39.55 32.0 39.85 31.9 Q40.1 31.75 40.3 31.65 41.0 31.15 40.65 30.4 L40.45 30.0 Q43.35 29.6 44.3 28.25 M35.55 34.35 L35.8 34.6 39.1 36.35 Q34.05 34.8 35.2 38.05 L32.0 36.35 31.75 36.05 30.65 34.85 30.65 34.8 33.35 35.25 34.05 35.0 35.55 34.35 M46.75 39.3 L43.3 42.7 39.65 44.35 41.8 42.2 44.0 40.6 44.0 40.55 46.75 39.3 M17.55 38.9 L16.2 39.4 16.0 34.55 17.55 38.9 M32.2 13.85 L31.85 18.9 28.05 20.65 28.4 16.95 28.4 15.45 Q30.4 18.4 32.2 13.85 M34.4 20.2 Q34.6 20.85 33.95 21.85 32.85 21.95 30.35 23.25 30.75 22.45 30.6 21.9 32.85 21.8 34.4 20.2" fill="#560000" fill-rule="evenodd" stroke="none"/>
      <path d="M42.55 26.85 L42.6 26.9 44.3 28.25 Q43.35 29.6 40.45 30.0 L38.8 28.65 42.55 26.85 M37.05 33.35 L36.65 33.85 35.55 34.35 34.05 35.0 34.1 34.85 33.85 33.85 35.75 33.8 36.85 33.45 37.05 33.35 M28.65 8.3 L31.4 6.95 Q32.2 10.4 32.2 13.85 30.4 18.4 28.4 15.45 L28.4 14.4 28.65 8.3 M33.95 21.85 L33.0 22.95 32.75 23.05 32.65 23.1 29.95 23.85 30.2 23.5 30.35 23.25 Q32.85 21.95 33.95 21.85" fill="#6c2206" fill-rule="evenodd" stroke="none"/>
      <path d="M39.9 22.45 L49.55 23.0 Q51.2 23.35 50.55 23.75 L50.1 23.95 49.9 24.05 46.95 24.75 46.55 24.95 45.7 24.75 40.3 24.25 39.8 24.2 35.65 24.2 Q43.25 23.55 39.9 22.45 M39.65 44.35 L39.5 44.45 Q34.4 40.6 29.15 39.95 35.55 40.45 35.9 38.35 L36.75 38.75 41.8 42.2 39.65 44.35 M22.1 40.35 L20.1 40.35 16.0 34.55 16.2 39.4 Q14.35 38.6 12.9 37.1 14.4 36.55 15.4 35.4 L16.0 34.55 Q17.1 32.4 17.1 29.75 17.1 25.85 15.65 23.1 L17.25 24.95 19.2 27.1 20.85 26.6 20.5 27.4 Q19.55 29.75 19.55 33.2 19.55 37.1 22.1 40.35 M14.95 17.9 Q15.95 18.3 16.95 19.05 L18.1 20.0 Q15.4 19.05 14.7 21.4 L14.65 21.5 14.55 21.95 13.05 20.75 Q12.05 20.0 11.05 19.6 L13.8 19.65 Q15.45 19.3 14.95 17.9 M31.85 18.9 Q34.1 19.2 34.4 20.2 32.85 21.8 30.6 21.9 30.25 20.95 28.05 20.65 L31.85 18.9 M22.25 34.05 Q23.7 35.15 24.95 35.15 L25.25 34.9 25.2 34.55 25.2 34.5 25.25 34.45 25.35 34.55 25.7 34.9 26.3 35.3 Q27.5 35.9 28.6 35.9 L29.75 35.75 30.25 35.3 30.05 34.7 30.1 34.65 30.6 34.8 30.65 34.85 31.75 36.05 31.2 35.85 31.35 36.0 31.6 36.6 31.05 37.0 29.65 37.0 Q28.45 36.85 27.15 36.05 L25.85 35.1 25.9 35.55 25.6 35.75 Q24.15 35.55 22.45 34.3 L22.25 34.1 22.25 34.05" fill="#963807" fill-rule="evenodd" stroke="none"/>
      <path d="M40.3 24.25 L45.7 24.75 46.55 24.95 Q47.1 25.2 46.85 25.45 L46.1 25.75 43.15 26.5 42.55 26.85 38.8 28.65 40.45 30.0 40.65 30.4 Q41.0 31.15 40.3 31.65 40.1 31.75 39.85 31.9 L39.55 32.0 39.45 32.05 39.15 32.1 37.9 32.05 37.65 32.0 35.75 31.4 Q37.5 32.4 37.3 33.0 L37.2 33.2 37.2 33.25 37.05 33.35 36.85 33.45 35.75 33.8 33.85 33.85 34.1 34.85 34.05 35.0 33.35 35.25 30.65 34.8 30.6 34.8 30.1 34.65 29.85 34.55 30.05 34.7 30.25 35.3 29.75 35.75 28.6 35.9 Q27.5 35.9 26.3 35.3 L25.7 34.9 25.35 34.55 27.1 34.75 28.15 34.75 Q29.2 34.65 29.2 34.2 L29.05 33.55 31.85 33.25 Q34.0 32.85 34.0 32.15 L33.6 31.4 33.1 30.85 Q36.9 30.25 36.9 29.6 36.9 29.3 36.5 28.95 L35.95 28.55 35.95 28.5 38.95 26.65 Q40.45 25.55 40.45 24.95 L40.3 24.25 M39.1 36.35 Q42.75 38.1 46.75 39.3 L44.0 40.55 36.75 38.75 35.9 38.35 35.2 38.05 Q34.05 34.8 39.1 36.35 M20.1 40.35 L17.55 38.9 16.0 34.55 20.1 40.35 M9.25 31.45 Q7.45 27.35 5.35 25.2 L5.05 24.95 3.9 24.0 Q3.0 23.4 1.95 23.1 2.65 21.5 3.35 21.5 L4.25 21.25 Q5.55 19.95 6.95 19.4 L7.15 19.35 8.5 19.15 Q9.75 19.05 11.05 19.6 12.05 20.0 13.05 20.75 L14.55 21.95 15.05 22.5 Q15.6 24.3 15.6 26.25 15.6 29.1 15.1 30.15 14.25 31.85 11.7 31.85 L9.25 31.45 M29.85 34.55 L29.8 34.5 29.8 34.55 29.85 34.55" fill="#ffa004" fill-rule="evenodd" stroke="none"/>
      <path d="M29.15 39.95 L23.3 40.2 22.1 40.35 Q19.55 37.1 19.55 33.2 19.55 29.75 20.5 27.4 L20.85 26.6 Q24.95 25.4 29.1 24.75 L29.3 24.75 33.5 24.3 Q33.95 24.75 33.95 25.25 33.95 26.5 33.05 28.0 31.8 30.2 29.6 30.95 L26.5 31.45 25.3 31.3 25.55 31.95 25.2 32.75 Q24.8 33.35 24.0 33.45 L21.8 33.75 22.25 34.05 22.25 34.1 22.45 34.3 Q24.15 35.55 25.6 35.75 L25.9 35.55 25.85 35.1 27.15 36.05 Q28.45 36.85 29.65 37.0 L31.05 37.0 31.6 36.6 31.35 36.0 31.2 35.85 31.75 36.05 32.0 36.35 35.2 38.05 35.9 38.35 Q35.55 40.45 29.15 39.95 M20.55 22.6 L21.85 21.65 24.05 19.5 Q22.05 24.85 30.35 23.25 L30.2 23.5 29.95 23.85 29.85 23.95 21.3 25.8 20.8 26.0 18.95 23.75 20.55 22.6 M27.3 28.1 Q27.3 27.2 25.6 26.8 L23.85 26.6 22.75 26.9 22.45 27.0 22.0 27.4 21.55 27.95 Q20.9 28.85 20.9 29.65 L21.1 30.45 21.6 30.6 23.55 30.0 25.7 29.2 27.1 28.65 Q27.3 28.55 27.3 28.1" fill="#c16100" fill-rule="evenodd" stroke="none"/>
      <path d="M35.65 24.2 L39.8 24.2 40.3 24.25 40.45 24.95 Q40.45 25.55 38.95 26.65 L35.95 28.5 35.95 28.55 36.5 28.95 Q36.9 29.3 36.9 29.6 36.9 30.25 33.1 30.85 L33.6 31.4 34.0 32.15 Q34.0 32.85 31.85 33.25 L29.05 33.55 29.2 34.2 Q29.2 34.65 28.15 34.75 L27.1 34.75 25.35 34.55 25.25 34.45 25.2 34.45 25.2 34.5 25.2 34.55 25.25 34.9 24.95 35.15 Q23.7 35.15 22.25 34.05 L21.8 33.75 24.0 33.45 Q24.8 33.35 25.2 32.75 L25.55 31.95 25.3 31.3 26.5 31.45 29.6 30.95 Q31.8 30.2 33.05 28.0 33.95 26.5 33.95 25.25 33.95 24.75 33.5 24.3 L35.65 24.2 M18.1 20.0 L20.55 22.6 18.95 23.75 20.8 26.0 19.2 27.1 17.25 24.95 15.65 23.1 15.05 22.5 14.55 21.95 14.65 21.5 14.7 21.4 Q15.4 19.05 18.1 20.0 M24.05 19.5 Q26.85 15.85 27.15 10.2 L28.4 14.4 28.4 15.45 28.4 16.95 28.05 20.65 Q30.25 20.95 30.6 21.9 30.75 22.45 30.35 23.25 22.05 24.85 24.05 19.5 M27.3 28.1 Q27.3 28.55 27.1 28.65 L25.7 29.2 23.55 30.0 21.6 30.6 21.1 30.45 20.9 29.65 Q20.9 28.85 21.55 27.95 L22.0 27.4 22.45 27.0 22.75 26.9 23.85 26.6 25.6 26.8 Q27.3 27.2 27.3 28.1" fill="#e37302" fill-rule="evenodd" stroke="none"/>
      <path d="M49.9 24.05 L50.1 23.95 50.55 23.75 Q51.2 23.35 49.55 23.0 L39.9 22.45 M49.9 24.05 L49.95 24.05 46.85 25.45 46.1 25.75 43.15 26.5 42.55 26.85 42.6 26.9 44.3 28.25 Q44.95 29.2 44.2 29.85 L43.95 30.0 43.65 30.1 Q42.35 30.8 41.0 31.45 40.65 31.85 39.55 32.05 L37.2 33.2 M37.05 33.35 L36.65 33.85 35.55 34.35 35.8 34.6 39.1 36.35 Q42.75 38.1 46.75 39.3 L43.3 42.7 39.65 44.35 39.5 44.45 Q34.4 40.6 29.15 39.95 L23.3 40.2 22.1 40.35 20.1 40.35 17.55 38.9 16.2 39.4 Q14.35 38.6 12.9 37.1 11.0 35.25 9.65 32.4 L9.6 32.2 9.25 31.45 Q7.45 27.35 5.35 25.2 L5.05 24.95 3.9 24.0 Q3.0 23.4 1.95 23.1 2.65 21.5 3.35 21.5 L4.25 21.25 Q5.55 19.95 6.95 19.4 L7.15 19.35 9.95 18.05 10.75 17.7 10.75 17.65 10.95 17.6 Q12.9 17.0 14.95 17.9 15.95 18.3 16.95 19.05 L18.1 20.0 20.55 22.6 21.85 21.65 24.05 19.5 Q26.85 15.85 27.15 10.2 L28.65 8.3 31.4 6.95 Q32.2 10.4 32.2 13.85 L31.85 18.9 Q34.1 19.2 34.4 20.2 34.6 20.85 33.95 21.85 L33.0 22.95 32.75 23.05 32.9 23.05 39.9 22.45" fill="none" stroke="#000000" stroke-linecap="round" stroke-linejoin="round" stroke-opacity="0.3019608" stroke-width="0.5"/>
      <path d="M20.8 26.0 L21.3 25.8 29.85 23.95 29.95 23.85 M21.8 33.75 L22.25 34.05 Q23.7 35.15 24.95 35.15 L25.25 34.9 25.2 34.55 25.2 34.5 25.2 34.45 25.25 34.45 25.35 34.55 25.7 34.9 26.3 35.3 Q27.5 35.9 28.6 35.9 L29.75 35.75 30.25 35.3 30.05 34.7 29.85 34.55 29.8 34.55 29.8 34.5 29.85 34.55 30.1 34.65 30.6 34.8 M20.8 26.0 L18.95 23.75 20.55 22.6" fill="none" stroke="#000000" stroke-linecap="round" stroke-linejoin="round" stroke-opacity="0.15294118" stroke-width="0.25"/>
      <path d="M12.8 24.65 L12.95 24.75 13.35 25.25 13.45 25.25 13.45 25.0 12.95 24.05 13.15 23.4 13.5 23.75 Q14.45 24.9 14.45 26.2 14.45 27.5 13.5 28.2 L12.75 28.6 Q10.8 28.25 10.35 27.1 12.0 26.6 12.8 24.65 M13.9 25.9 L13.7 25.85 13.45 26.55 13.25 26.85 12.6 27.0 12.35 26.95 12.15 27.5 Q12.15 27.85 12.5 27.85 13.25 27.85 13.65 26.95 L13.9 26.05 13.9 25.9" fill="#5b0202" fill-rule="evenodd" stroke="none"/>
      <path d="M10.2 28.15 L9.8 27.85 Q8.9 25.4 10.75 24.15 L11.2 24.1 12.15 24.3 12.8 24.65 Q12.0 26.6 10.35 27.1 10.8 28.25 12.75 28.6 12.1 28.8 11.3 28.6 L10.2 28.15 M12.0 23.2 L12.9 23.1 13.15 23.4 12.95 24.05 12.45 23.55 12.0 23.2" fill="#9e0303" fill-rule="evenodd" stroke="none"/>
      <path d="M9.8 27.85 L9.45 27.55 9.25 27.3 9.1 27.1 Q8.15 26.0 8.15 24.65 8.15 23.4 9.1 22.7 9.8 22.15 10.65 22.2 L11.15 22.3 11.3 22.3 Q12.15 22.55 12.9 23.1 L12.0 23.2 11.05 22.7 Q11.05 22.55 10.75 22.5 L10.45 22.45 9.8 22.55 9.2 22.85 Q8.95 23.1 9.0 23.3 L9.15 23.6 9.2 23.65 Q9.1 23.8 9.15 24.05 L9.15 24.5 9.25 24.5 10.05 24.3 10.75 24.15 Q8.9 25.4 9.8 27.85" fill="#e80606" fill-rule="evenodd" stroke="none"/>
      <path d="M10.75 24.15 L10.05 24.3 9.25 24.5 9.15 24.5 9.15 24.05 Q9.1 23.8 9.2 23.65 L9.65 23.7 Q10.25 23.7 10.75 23.3 L11.05 22.7 12.0 23.2 12.45 23.55 12.95 24.05 13.45 25.0 13.45 25.25 13.35 25.25 12.95 24.75 12.8 24.65 12.15 24.3 11.2 24.1 10.75 24.15" fill="#ff0808" fill-rule="evenodd" stroke="none"/>
      <path d="M9.2 23.65 L9.15 23.6 9.0 23.3 Q8.95 23.1 9.2 22.85 L9.8 22.55 10.45 22.45 10.75 22.5 Q11.05 22.55 11.05 22.7 L10.75 23.3 Q10.25 23.7 9.65 23.7 L9.2 23.65" fill="#ff7f57" fill-rule="evenodd" stroke="none"/>
      <path d="M13.9 25.9 L13.9 26.05 13.65 26.95 Q13.25 27.85 12.5 27.85 12.15 27.85 12.15 27.5 L12.35 26.95 12.6 27.0 13.25 26.85 13.45 26.55 13.7 25.85 13.9 25.9" fill="#5c2222" fill-rule="evenodd" stroke="none"/>
      <path d="M7.4 27.0 Q6.7 25.75 6.7 24.5 6.7 23.1 7.45 22.2 L7.9 21.75 Q8.0 21.5 8.25 21.4 L8.45 21.2 8.6 21.1 8.7 21.05 8.85 21.0 9.0 20.95 9.6 20.75 11.45 20.85 12.85 21.35 Q13.5 21.7 14.05 22.2 L14.9 23.65 Q13.85 22.1 12.4 21.7 L8.9 21.9 Q8.4 22.1 8.0 22.5 6.65 24.3 7.4 27.0 M11.3 22.3 Q12.7 22.55 13.5 23.1 L13.85 23.35 Q14.85 24.4 14.95 25.9 15.0 26.95 14.5 27.9 13.95 28.5 12.7 28.85 11.05 29.1 10.2 28.15 L11.3 28.6 Q12.1 28.8 12.75 28.6 L13.5 28.2 Q14.45 27.5 14.45 26.2 14.45 24.9 13.5 23.75 L13.15 23.4 12.9 23.1 Q12.15 22.55 11.3 22.3" fill="#fdb03e" fill-rule="evenodd" stroke="none"/>
      <path d="M8.85 28.85 L8.15 28.15 8.05 28.0 8.0 27.95 7.45 27.15 7.4 27.0 Q6.65 24.3 8.0 22.5 8.4 22.1 8.9 21.9 L12.4 21.7 Q13.85 22.1 14.9 23.65 15.9 25.75 15.35 27.65 14.75 29.3 12.0 29.7 L10.35 29.4 8.85 28.85 M11.3 22.3 L11.15 22.3 10.65 22.2 Q9.8 22.15 9.1 22.7 8.15 23.4 8.15 24.65 8.15 26.0 9.1 27.1 L9.25 27.3 9.45 27.55 9.8 27.85 10.2 28.15 Q11.05 29.1 12.7 28.85 13.95 28.5 14.5 27.9 15.0 26.95 14.95 25.9 14.85 24.4 13.85 23.35 L13.5 23.1 Q12.7 22.55 11.3 22.3" fill="#ffa004" fill-rule="evenodd" stroke="none"/>
      <path d="M14.05 22.2 L14.7 22.95 Q16.05 24.6 16.05 26.5 16.05 27.95 15.2 28.95 L14.95 29.15 14.7 29.4 14.5 29.55 13.95 29.95 12.3 30.3 11.3 30.2 9.95 29.65 8.85 28.85 10.35 29.4 12.0 29.7 Q14.75 29.3 15.35 27.65 15.9 25.75 14.9 23.65 L14.05 22.2" fill="#c16100" fill-rule="evenodd" stroke="none"/>
      <path d="M7.4 27.0 Q6.7 25.75 6.7 24.5 6.7 23.1 7.45 22.2 L7.9 21.75 Q8.0 21.5 8.25 21.4 L8.45 21.2 8.6 21.1 8.7 21.05 8.85 21.0 9.0 20.95 9.6 20.75 11.45 20.85 12.85 21.35 Q13.5 21.7 14.05 22.2 L14.7 22.95 Q16.05 24.6 16.05 26.5 16.05 27.95 15.2 28.95 L14.95 29.15 14.7 29.4 14.5 29.55 13.95 29.95 12.3 30.3 11.3 30.2 9.95 29.65 8.85 28.85 8.15 28.15 8.05 28.0 8.0 27.95 7.45 27.15 7.4 27.0 M9.8 27.85 L9.45 27.55 9.25 27.3 9.1 27.1 Q8.15 26.0 8.15 24.65 8.15 23.4 9.1 22.7 9.8 22.15 10.65 22.2 L11.15 22.3 11.3 22.3 M10.2 28.15 L9.8 27.85 M12.9 23.1 Q12.15 22.55 11.3 22.3 M13.15 23.4 L12.9 23.1 M12.75 28.6 L13.5 28.2 Q14.45 27.5 14.45 26.2 14.45 24.9 13.5 23.75 L13.15 23.4 M12.75 28.6 Q12.1 28.8 11.3 28.6 L10.2 28.15" fill="none" stroke="#000000" stroke-linecap="round" stroke-linejoin="round" stroke-opacity="0.15294118" stroke-width="0.25"/>
    </g>
    <g id="sprite0" transform="matrix(1.0, 0.0, 0.0, 1.0, 0.0, 0.0)">
      <use height="20.95" transform="matrix(1.0, 0.0, 0.0, 1.0, 0.0, 0.0)" width="24.45" xlink:href="#shape1"/>
    </g>
    <g id="shape1" transform="matrix(1.0, 0.0, 0.0, 1.0, 0.0, 0.0)">
      <path d="M14.85 11.4 Q15.8 11.6 16.25 12.45 16.85 13.3 16.6 14.35 16.4 15.3 15.55 15.9 14.65 16.4 13.65 16.2 12.65 15.9 12.1 15.1 11.6 14.2 11.8 13.2 12.1 12.2 12.9 11.65 13.8 11.15 14.85 11.4" fill="#ffffff" fill-opacity="0.5882353" fill-rule="evenodd" stroke="none"/>
      <path d="M14.85 11.4 Q13.8 11.15 12.9 11.65 12.1 12.2 11.8 13.2 11.6 14.2 12.1 15.1 12.65 15.9 13.65 16.2 14.65 16.4 15.55 15.9 16.4 15.3 16.6 14.35 16.85 13.3 16.25 12.45 15.8 11.6 14.85 11.4 M18.2 11.35 L20.15 11.25 18.75 12.55 Q19.05 13.8 18.8 15.05 18.5 16.35 17.65 17.3 L19.1 20.95 16.55 18.25 Q14.8 19.3 12.8 18.85 10.8 18.35 9.75 16.65 9.05 15.5 8.95 14.3 7.75 12.35 4.85 11.5 8.3 12.45 9.7 11.4 10.3 10.4 11.35 9.75 13.1 8.75 15.1 9.15 16.95 9.5 18.1 11.15 L18.2 11.35" fill="#ffffff" fill-opacity="0.1764706" fill-rule="evenodd" stroke="none"/>
      <path d="M15.4 13.55 L18.1 17.55 13.35 14.65 7.05 18.5 12.75 13.55 0.0 0.0 14.25 12.25 24.45 5.95 15.4 13.55" fill="#ffffff" fill-opacity="0.5882353" fill-rule="evenodd" stroke="none"/>
    </g>
  </defs>
</svg>
