<?xml version="1.0" encoding="UTF-8" standalone="no"?>
<svg xmlns:xlink="http://www.w3.org/1999/xlink" height="440.0px" width="440.0px" xmlns="http://www.w3.org/2000/svg">
  <g transform="matrix(10.0, 0.0, 0.0, 10.0, 0.0, 0.0)">
    <use height="44.0" transform="matrix(1.0, 0.0, 0.0, 1.0, 0.0, 0.0)" width="44.0" xlink:href="#shape0"/>
    <use height="20.95" transform="matrix(0.4277, 0.0629, 0.0969, -0.4662, 10.85, 24.4)" width="24.45" xlink:href="#sprite0"/>
    <use height="20.95" transform="matrix(0.5766, 0.0849, 0.1307, -0.6287, 14.65, 13.55)" width="24.45" xlink:href="#sprite0"/>
  </g>
  <defs>
    <g id="shape0" transform="matrix(1.0, 0.0, 0.0, 1.0, 0.0, 0.0)">
      <path d="M44.0 44.0 L0.0 44.0 0.0 0.0 44.0 0.0 44.0 44.0" fill="#43adca" fill-opacity="0.0" fill-rule="evenodd" stroke="none"/>
      <path d="M4.7 12.5 L6.75 10.15 7.2 10.1 4.7 12.5" fill="#d8d8af" fill-rule="evenodd" stroke="none"/>
      <path d="M25.4 24.05 L25.75 24.1 25.8 24.4 Q25.8 25.2 25.25 26.3 24.45 27.95 22.95 27.95 22.2 27.95 22.2 27.25 22.2 26.65 22.65 26.15 L23.15 26.35 24.45 26.0 24.85 25.5 Q25.4 24.8 25.4 24.05" fill="#363427" fill-rule="evenodd" stroke="none"/>
      <path d="M28.65 17.4 Q28.5 16.9 28.65 17.25 L28.8 17.55 28.65 17.4 M30.15 34.85 L30.9 36.55 28.75 35.85 Q29.25 35.4 29.6 35.4 L30.15 34.85" fill="#a49c5b" fill-rule="evenodd" stroke="none"/>
      <path d="M20.15 17.75 Q21.05 18.0 21.95 18.7 L22.85 19.4 23.9 20.45 Q24.85 21.5 24.75 22.35 L24.75 22.85 24.65 22.85 23.85 21.8 23.55 21.6 22.3 20.95 20.35 20.55 19.45 20.65 18.1 20.95 16.55 21.3 16.3 21.3 16.25 20.4 16.35 19.55 17.25 19.75 Q18.55 19.75 19.4 18.95 20.15 18.3 20.15 17.8 L20.15 17.75" fill="#856825" fill-rule="evenodd" stroke="none"/>
      <path d="M21.95 18.7 Q21.05 18.0 20.15 17.75 20.1 17.45 19.4 17.25 L18.8 17.25 17.5 17.4 Q16.9 17.55 16.4 18.05 15.85 18.5 15.95 18.9 L16.25 19.55 16.35 19.55 16.25 20.4 16.3 21.3 16.55 21.3 18.1 20.95 19.45 20.65 Q15.8 23.05 17.55 28.05 L16.85 27.4 16.45 26.9 16.15 26.6 Q14.3 24.3 14.3 21.7 14.3 19.15 16.15 17.75 17.5 16.7 19.3 16.75 L20.3 16.95 20.35 16.95 20.5 17.0 20.55 17.0 Q22.3 17.4 23.7 18.55 L21.95 18.7" fill="#5e481a" fill-rule="evenodd" stroke="none"/>
      <path d="M20.15 17.75 L20.15 17.8 Q20.15 18.3 19.4 18.95 18.55 19.75 17.25 19.75 L16.35 19.55 16.25 19.55 15.95 18.9 Q15.85 18.5 16.4 18.05 16.9 17.55 17.5 17.4 L18.8 17.25 19.4 17.25 Q20.1 17.45 20.15 17.75" fill="#ab8632" fill-rule="evenodd" stroke="none"/>
      <path d="M31.0 20.65 L31.05 20.65 31.9 21.9 31.0 20.65" fill="#afaf7a" fill-rule="evenodd" stroke="none"/>
      <path d="M29.8 18.85 L29.85 18.8 31.05 20.65 31.0 20.65 29.85 19.0 29.8 18.85" fill="#ebebd8" fill-rule="evenodd" stroke="none"/>
      <path d="M29.3 18.15 L29.85 18.8 29.8 18.85 29.3 18.15" fill="#e0dfc0" fill-rule="evenodd" stroke="none"/>
      <path d="M28.65 17.25 L29.3 18.15 28.8 17.55 28.65 17.25" fill="#d5d0b3" fill-rule="evenodd" stroke="none"/>
      <path d="M23.55 21.6 L23.85 21.8 24.65 22.85 24.75 22.85 24.75 22.35 Q24.85 21.5 23.9 20.45 L24.25 19.1 24.95 19.85 Q26.8 22.15 26.8 24.75 26.8 27.3 24.95 28.7 L23.45 29.5 Q19.55 28.85 18.6 26.6 21.95 25.5 23.55 21.6 M25.4 24.05 Q25.4 24.8 24.85 25.5 L24.45 26.0 23.15 26.35 22.65 26.15 Q22.2 26.65 22.2 27.25 22.2 27.95 22.95 27.95 24.45 27.95 25.25 26.3 25.8 25.2 25.8 24.4 L25.75 24.1 25.4 24.05" fill="#140f05" fill-rule="evenodd" stroke="none"/>
      <path d="M19.45 20.65 L20.35 20.55 22.3 20.95 23.55 21.6 Q21.95 25.5 18.6 26.6 19.55 28.85 23.45 29.5 22.2 29.95 20.55 29.5 19.4 29.25 18.4 28.6 L17.55 28.05 Q15.8 23.05 19.45 20.65 M23.9 20.45 L22.85 19.4 21.95 18.7 23.7 18.55 24.25 19.1 23.9 20.45" fill="#433412" fill-rule="evenodd" stroke="none"/>
      <path d="M10.3 6.7 L10.35 6.65 11.85 6.4 12.6 7.05 10.3 6.7" fill="#756f57" fill-rule="evenodd" stroke="none"/>
      <path d="M24.0 9.4 L24.55 9.65 25.5 10.2 25.1 10.95 24.55 12.0 22.8 11.55 24.0 9.4 M32.1 17.75 L33.0 19.6 31.05 20.65 29.85 18.8 30.65 18.4 32.1 17.75 M10.7 12.5 L9.6 13.45 7.75 15.15 6.2 22.25 6.85 23.85 4.35 25.25 Q3.9 19.05 4.7 12.5 L7.2 10.1 8.15 10.0 Q9.55 10.4 10.5 11.75 L10.7 12.5 M12.8 26.4 Q11.3 20.95 14.0 17.25 14.75 16.55 15.7 16.15 18.5 14.85 22.8 15.75 25.65 16.5 27.75 19.6 29.75 23.8 28.7 27.6 27.45 30.9 22.0 31.7 L18.7 31.1 15.7 30.05 14.3 28.6 14.05 28.35 13.95 28.2 12.9 26.65 12.8 26.4 M20.55 17.0 L20.5 17.0 20.35 16.95 20.3 16.95 19.3 16.75 Q17.5 16.7 16.15 17.75 14.3 19.15 14.3 21.7 14.3 24.3 16.15 26.6 L16.45 26.9 16.85 27.4 17.55 28.05 18.4 28.6 Q20.0 30.5 23.4 30.05 25.9 29.4 26.95 28.15 28.0 26.25 27.9 24.1 27.65 21.15 25.65 19.05 L24.95 18.5 Q23.35 17.45 20.55 17.0 M17.9 31.65 L21.75 36.4 16.45 34.95 16.35 34.85 14.7 32.45 14.65 32.45 11.15 32.45 12.05 29.35 13.95 28.2 14.05 28.35 14.3 28.6 15.7 30.05 17.9 31.65" fill="#ffcc00" fill-rule="evenodd" stroke="none"/>
      <path d="M28.15 5.65 L27.2 6.6 26.2 7.1 25.15 7.05 21.45 6.6 18.1 5.85 Q16.85 5.45 16.15 5.05 L17.5 3.7 20.45 2.9 27.05 4.7 28.15 5.65 M25.5 10.2 L25.95 10.45 27.9 12.0 Q30.35 14.85 32.1 17.75 L30.65 18.4 29.85 18.8 29.3 18.15 28.65 17.25 Q28.5 16.9 28.65 17.4 L28.5 17.05 27.85 16.05 27.8 16.05 26.45 14.1 25.1 12.15 24.55 12.0 25.1 10.95 25.5 10.2 M23.65 15.0 Q24.95 15.75 26.1 16.8 L27.75 19.6 Q25.65 16.5 22.8 15.75 18.5 14.85 15.7 16.15 14.75 16.55 14.0 17.25 11.3 20.95 12.8 26.4 11.4 23.9 11.4 21.25 11.4 18.5 12.85 16.75 11.95 14.95 9.6 13.45 L10.7 12.5 11.15 12.15 10.7 12.5 10.5 11.75 Q9.55 10.4 8.15 10.0 L7.2 10.1 6.75 10.15 9.75 7.2 9.3 9.1 Q9.9 10.5 11.3 11.05 L12.3 11.05 11.15 12.15 11.4 12.75 Q12.1 14.7 13.7 15.8 L14.4 15.1 14.85 14.75 15.25 14.6 15.4 14.45 15.65 14.35 15.95 14.25 17.2 13.85 20.9 14.0 Q22.35 14.35 23.65 15.0 M17.9 31.65 Q19.1 32.3 20.55 32.65 L22.55 32.9 22.45 33.5 Q25.6 33.7 27.65 32.5 L28.15 33.2 Q23.0 34.1 23.4 36.0 L24.45 37.1 21.75 36.4 17.9 31.65 M29.4 41.05 L29.3 41.15 27.05 43.05 15.1 39.8 16.8 38.0 19.0 39.4 24.35 39.55 26.1 37.95 28.85 38.8 29.0 39.95 29.4 41.05 M13.1 38.85 L11.35 36.3 11.35 36.25 12.85 34.35 14.45 36.55 13.1 38.85 M5.9 29.55 L4.95 27.95 7.5 26.6 7.8 26.95 8.45 28.05 5.9 29.55 M6.85 23.85 L6.2 22.25 7.75 15.15 8.75 22.25 7.5 25.5 6.85 23.85" fill="#fee481" fill-rule="evenodd" stroke="none"/>
      <path d="M35.25 35.8 L35.25 32.5 Q36.8 32.5 38.35 30.5 L37.55 33.55 35.25 35.8 M35.55 28.7 L35.95 21.8 Q36.75 20.15 37.75 19.6 L38.35 22.1 38.35 23.85 Q37.05 24.15 35.55 28.7 M37.4 18.3 Q36.6 19.2 35.8 19.2 L34.15 18.25 33.05 16.4 Q35.55 16.45 36.45 15.0 L36.65 15.25 37.4 18.3 M32.9 10.45 L33.45 12.85 32.15 14.45 32.9 10.45 M26.1 16.8 L27.3 18.15 Q30.1 21.55 30.1 25.3 30.1 28.25 28.35 30.15 L27.95 30.6 27.3 31.1 26.95 31.4 27.0 31.45 25.85 32.2 Q24.35 32.95 22.55 32.9 L20.55 32.65 Q19.1 32.3 17.9 31.65 L15.7 30.05 18.7 31.1 22.0 31.7 Q27.45 30.9 28.7 27.6 29.75 23.8 27.75 19.6 L26.1 16.8 M15.25 14.6 L14.85 14.75 14.4 15.1 13.7 15.8 Q12.1 14.7 11.4 12.75 L11.15 12.15 12.3 11.05 11.3 11.05 Q9.9 10.5 9.3 9.1 L9.75 7.2 10.3 6.7 12.6 7.05 13.7 8.1 13.7 9.8 13.45 10.05 12.7 10.75 Q14.15 11.45 15.25 14.6 M23.7 18.55 Q22.3 17.4 20.55 17.0 23.35 17.45 24.95 18.5 L25.65 19.05 Q27.65 21.15 27.9 24.1 28.0 26.25 26.95 28.15 25.9 29.4 23.4 30.05 20.0 30.5 18.4 28.6 19.4 29.25 20.55 29.5 22.2 29.95 23.45 29.5 L24.95 28.7 Q26.8 27.3 26.8 24.75 26.8 22.15 24.95 19.85 L24.25 19.1 23.7 18.55 M38.15 27.25 L37.8 28.75 37.75 28.85 36.3 29.95 38.15 27.25 M12.3 11.05 L12.7 10.75 12.3 11.05" fill="#744c12" fill-rule="evenodd" stroke="none"/>
      <path d="M33.45 12.85 L33.45 12.9 34.9 13.4 32.15 14.45 33.45 12.85 M37.75 28.85 L37.65 29.15 37.8 29.3 37.95 29.7 36.3 29.95 37.75 28.85 M11.35 36.3 L10.25 34.75 12.85 34.35 11.35 36.25 11.35 36.3 M7.9 31.1 L5.9 29.55 8.45 28.05 8.6 28.45 7.9 31.1 M24.35 39.55 L19.0 39.4 16.8 38.0 16.1 37.35 20.15 37.35 24.35 39.55" fill="#fef0bc" fill-rule="evenodd" stroke="none"/>
      <path d="M14.6 6.6 L16.8 6.95 Q18.85 7.35 20.75 8.0 L19.25 10.6 22.45 11.45 25.1 12.15 26.45 14.1 23.65 15.0 Q22.35 14.35 20.9 14.0 L17.2 13.85 17.2 10.05 15.4 9.6 14.55 6.6 14.6 6.6 M27.85 16.05 L28.5 17.05 28.65 17.4 28.8 17.55 Q30.75 22.45 30.85 24.9 31.0 29.2 29.35 30.95 L28.35 30.15 Q30.1 28.25 30.1 25.3 30.1 21.55 27.3 18.15 L26.1 16.8 27.85 16.05 M9.6 13.45 Q11.95 14.95 12.85 16.75 11.4 18.5 11.4 21.25 11.4 23.9 12.8 26.4 L12.9 26.65 10.6 26.65 9.6 25.3 9.6 15.35 9.6 13.45 M27.65 32.5 Q25.6 33.7 22.45 33.5 L22.55 32.9 Q24.35 32.95 25.85 32.2 L27.0 31.45 27.65 32.5 M19.25 10.6 L17.2 10.05 19.25 10.6" fill="#d89500" fill-rule="evenodd" stroke="none"/>
      <path d="M26.45 14.1 L27.8 16.05 27.85 16.05 26.1 16.8 Q24.95 15.75 23.65 15.0 L26.45 14.1 M28.8 17.55 L29.3 18.15 29.8 18.85 29.85 19.0 31.0 20.65 31.9 21.9 31.8 26.05 31.8 27.55 30.4 31.75 31.3 32.55 31.9 33.05 29.35 30.95 Q31.0 29.2 30.85 24.9 30.75 22.45 28.8 17.55 M15.1 39.8 L13.45 39.35 13.1 38.85 14.45 36.55 16.1 37.35 16.8 38.0 15.1 39.8" fill="#fdb914" fill-rule="evenodd" stroke="none"/>
      <path d="M20.75 8.0 L24.0 9.4 22.8 11.55 22.45 11.45 19.25 10.6 20.75 8.0 M33.0 19.6 L34.15 22.35 34.15 22.45 34.4 24.9 Q33.1 25.3 31.8 26.05 L31.9 21.9 31.05 20.65 33.0 19.6 M33.05 16.4 L30.65 12.55 Q30.7 9.55 32.1 9.05 L32.7 9.55 32.9 10.45 32.15 14.45 34.9 13.4 35.5 13.6 36.45 15.0 Q35.55 16.45 33.05 16.4 M24.45 37.1 L23.4 36.0 Q23.0 34.1 28.15 33.2 L29.6 35.4 Q29.25 35.4 28.75 35.85 27.9 35.8 27.3 36.2 26.75 36.55 26.25 37.65 L24.45 37.1 M31.3 32.55 L30.4 31.75 31.8 27.55 31.9 33.0 31.85 32.95 31.8 32.9 31.3 32.55 M4.95 27.95 L4.35 25.25 6.85 23.85 7.5 25.5 7.5 26.6 4.95 27.95" fill="#ba8201" fill-rule="evenodd" stroke="none"/>
      <path d="M35.25 32.5 L35.55 28.7 Q37.05 24.15 38.35 23.85 L38.35 26.6 38.15 27.25 36.3 29.95 37.95 29.7 38.35 30.4 38.35 30.5 Q36.8 32.5 35.25 32.5 M28.35 30.15 L29.35 30.95 31.9 33.05 31.35 33.6 31.85 33.15 31.35 33.65 30.15 34.85 29.6 35.4 28.15 33.2 27.65 32.5 27.0 31.45 26.95 31.4 27.3 31.1 27.95 30.6 28.35 30.15 M15.95 14.25 L15.65 14.35 15.4 14.45 15.25 14.6 Q14.15 11.45 12.7 10.75 L13.45 10.05 15.95 14.25 M30.9 36.55 L31.9 38.8 29.4 41.05 29.0 39.95 28.85 38.8 30.9 36.55 M7.5 25.5 L8.75 22.25 7.75 15.15 9.6 13.45 9.6 15.35 9.6 25.3 7.8 26.95 7.5 26.6 7.5 25.5 M14.65 32.45 L14.7 32.45 16.35 34.85 14.45 36.55 12.85 34.35 14.65 32.45" fill="#744c12" fill-opacity="0.49019608" fill-rule="evenodd" stroke="none"/>
      <path d="M34.4 24.9 L35.15 34.2 35.15 35.95 34.5 36.55 31.35 33.65 31.85 33.15 31.35 33.6 31.9 33.05 31.9 33.0 31.8 27.55 31.8 26.05 Q33.1 25.3 34.4 24.9 M21.75 36.4 L24.45 37.1 26.25 37.65 Q26.75 36.55 27.3 36.2 27.9 35.8 28.75 35.85 L30.9 36.55 28.85 38.8 26.1 37.95 24.35 39.55 20.15 37.35 16.1 37.35 14.45 36.55 16.35 34.85 16.45 34.95 21.75 36.4 M10.25 34.75 L9.7 33.95 11.15 32.45 14.65 32.45 12.85 34.35 10.25 34.75 M10.6 26.65 L8.65 30.1 8.6 30.15 7.9 31.1 8.6 28.45 10.6 26.65 M26.1 37.95 L26.25 37.65 26.1 37.95" fill="#986a01" fill-rule="evenodd" stroke="none"/>
      <path d="M30.65 12.55 L29.0 9.95 28.65 8.8 Q28.5 7.3 29.6 6.85 L32.1 9.05 Q30.7 9.55 30.65 12.55 M9.6 25.3 L10.6 26.65 8.6 28.45 8.45 28.05 7.8 26.95 9.6 25.3" fill="#a97601" fill-rule="evenodd" stroke="none"/>
      <path d="M16.15 5.05 Q16.85 5.45 18.1 5.85 L21.45 6.6 25.15 7.05 26.2 7.1 27.2 6.6 28.15 5.65 29.6 6.85 Q28.5 7.3 28.65 8.8 L29.0 9.95 30.65 12.55 33.05 16.4 34.15 18.25 35.8 19.2 Q36.6 19.2 37.4 18.3 L37.75 19.6 Q36.75 20.15 35.95 21.8 L35.55 28.7 35.25 32.5 35.25 35.8 35.15 35.95 35.15 34.2 34.4 24.9 34.15 22.45 34.15 22.35 33.0 19.6 32.1 17.75 Q30.35 14.85 27.9 12.0 L25.95 10.45 25.5 10.2 24.55 9.65 24.0 9.4 20.75 8.0 Q18.85 7.35 16.8 6.95 L14.6 6.6 16.15 5.05" fill="#fdd124" fill-rule="evenodd" stroke="none"/>
      <path d="M28.15 5.65 L27.05 4.7 20.45 2.9 17.5 3.7 16.15 5.05 14.6 6.6 M35.15 35.95 L35.25 35.8 M37.75 19.6 L37.4 18.3 M29.6 6.85 L28.15 5.65 M32.1 9.05 L32.7 9.55 32.9 10.45 33.45 12.85 33.45 12.9 34.9 13.4 35.5 13.6 36.45 15.0 36.65 15.25 37.4 18.3 M32.1 9.05 L29.6 6.85 M28.35 30.15 L29.35 30.95 M17.2 13.85 L15.95 14.25 M28.15 33.2 L27.65 32.5 27.0 31.45 26.95 31.4 27.3 31.1 27.95 30.6 28.35 30.15 M31.8 32.9 L31.85 32.95 31.9 33.0 M31.9 33.05 L31.85 32.95 M31.35 33.65 L31.85 33.15 M31.9 33.05 L29.35 30.95 M37.75 19.6 L38.35 22.1 38.35 23.85 38.35 26.6 38.15 27.25 37.8 28.75 37.75 28.85 37.65 29.15 37.8 29.3 37.95 29.7 38.35 30.4 38.35 30.5 37.55 33.55 35.25 35.8 M35.15 35.95 L34.5 36.55 31.35 33.65 30.15 34.85 30.9 36.55 31.9 38.8 29.4 41.05 29.3 41.15 27.05 43.05 15.1 39.8 13.45 39.35 13.1 38.85 11.35 36.3 10.25 34.75 9.7 33.95 11.15 32.45 12.05 29.35 13.95 28.2 12.9 26.65 10.6 26.65 8.65 30.1 M8.6 30.15 L7.9 31.1 5.9 29.55 4.95 27.95 4.35 25.25 Q3.9 19.05 4.7 12.5 L6.75 10.15 9.75 7.2 10.3 6.7 10.35 6.65 11.85 6.4 12.6 7.05 13.7 8.1 13.7 9.8 M13.45 10.05 L15.95 14.25 M29.6 35.4 L28.15 33.2 M29.6 35.4 L30.15 34.85 M17.2 13.85 L17.2 10.05 15.4 9.6 14.55 6.6 14.6 6.6" fill="none" stroke="#000000" stroke-linecap="round" stroke-linejoin="round" stroke-opacity="0.3019608" stroke-width="0.5"/>
      <path d="M22.45 11.45 L25.1 12.15 M26.45 14.1 L27.8 16.05 27.85 16.05 28.5 17.05 28.65 17.4 M29.3 18.15 L29.85 18.8 31.05 20.65 M28.8 17.55 L28.65 17.4 M28.8 17.55 L29.3 18.15 M31.9 21.9 L31.05 20.65 M26.1 16.8 L27.3 18.15 Q30.1 21.55 30.1 25.3 30.1 28.25 28.35 30.15 M26.45 14.1 L25.1 12.15 M26.1 16.8 Q24.95 15.75 23.65 15.0 22.35 14.35 20.9 14.0 L17.2 13.85 M15.95 14.25 L15.65 14.35 15.4 14.45 15.25 14.6 14.85 14.75 14.4 15.1 13.7 15.8 M11.15 12.15 L10.7 12.5 9.6 13.45 M12.85 16.75 Q11.4 18.5 11.4 21.25 11.4 23.9 12.8 26.4 L12.9 26.65 M23.7 18.55 Q22.3 17.4 20.55 17.0 M20.35 16.95 L20.3 16.95 19.3 16.75 Q17.5 16.7 16.15 17.75 14.3 19.15 14.3 21.7 14.3 24.3 16.15 26.6 L16.45 26.9 16.85 27.4 17.55 28.05 M23.45 29.5 L24.95 28.7 Q26.8 27.3 26.8 24.75 26.8 22.15 24.95 19.85 L24.25 19.1 23.7 18.55 M18.4 28.6 L17.55 28.05 M22.55 32.9 L20.55 32.65 Q19.1 32.3 17.9 31.65 L15.7 30.05 14.3 28.6 14.05 28.35 13.95 28.2 M21.75 36.4 L24.45 37.1 26.25 37.65 26.1 37.95 M22.55 32.9 Q24.35 32.95 25.85 32.2 L27.0 31.45 M23.45 29.5 Q22.2 29.95 20.55 29.5 19.4 29.25 18.4 28.6 M28.85 38.8 L30.9 36.55 28.75 35.85 Q27.9 35.8 27.3 36.2 26.75 36.55 26.25 37.65 M28.75 35.85 Q29.25 35.4 29.6 35.4 M13.45 10.05 L12.7 10.75 12.3 11.05 11.15 12.15 M9.6 15.35 L9.6 25.3 10.6 26.65 M14.7 32.45 L16.35 34.85 16.45 34.95 21.75 36.4 M11.15 32.45 L14.65 32.45 M17.2 10.05 L19.25 10.6" fill="none" stroke="#000000" stroke-linecap="round" stroke-linejoin="round" stroke-opacity="0.3019608" stroke-width="0.05"/>
    </g>
    <g id="sprite0" transform="matrix(1.0, 0.0, 0.0, 1.0, 0.0, 0.0)">
      <use height="20.95" transform="matrix(1.0, 0.0, 0.0, 1.0, 0.0, 0.0)" width="24.45" xlink:href="#shape1"/>
    </g>
    <g id="shape1" transform="matrix(1.0, 0.0, 0.0, 1.0, 0.0, 0.0)">
      <path d="M14.85 11.4 Q15.8 11.6 16.25 12.45 16.85 13.3 16.6 14.35 16.4 15.3 15.55 15.9 14.65 16.4 13.65 16.2 12.65 15.9 12.1 15.1 11.6 14.2 11.8 13.2 12.1 12.2 12.9 11.65 13.8 11.15 14.85 11.4" fill="#ffffff" fill-opacity="0.5882353" fill-rule="evenodd" stroke="none"/>
      <path d="M18.2 11.35 L20.15 11.25 18.75 12.55 Q19.05 13.8 18.8 15.05 18.5 16.35 17.65 17.3 L19.1 20.95 16.55 18.25 Q14.8 19.3 12.8 18.85 10.8 18.35 9.75 16.65 9.05 15.5 8.95 14.3 7.75 12.35 4.85 11.5 8.3 12.45 9.7 11.4 10.3 10.4 11.35 9.75 13.1 8.75 15.1 9.15 16.95 9.5 18.1 11.15 L18.2 11.35 M14.85 11.4 Q13.8 11.15 12.9 11.65 12.1 12.2 11.8 13.2 11.6 14.2 12.1 15.1 12.65 15.9 13.65 16.2 14.65 16.4 15.55 15.9 16.4 15.3 16.6 14.35 16.85 13.3 16.25 12.45 15.8 11.6 14.85 11.4" fill="#ffffff" fill-opacity="0.1764706" fill-rule="evenodd" stroke="none"/>
      <path d="M15.4 13.55 L18.1 17.55 13.35 14.65 7.05 18.5 12.75 13.55 0.0 0.0 14.25 12.25 24.45 5.95 15.4 13.55" fill="#ffffff" fill-opacity="0.5882353" fill-rule="evenodd" stroke="none"/>
    </g>
  </defs>
</svg>
