<?xml version="1.0" encoding="UTF-8" standalone="no"?>
<svg xmlns:xlink="http://www.w3.org/1999/xlink" height="440.0px" width="440.0px" xmlns="http://www.w3.org/2000/svg">
  <g transform="matrix(10.0, 0.0, 0.0, 10.0, 0.0, 0.0)">
    <use height="44.0" transform="matrix(1.0, 0.0, 0.0, 1.0, 0.0, 0.0)" width="44.0" xlink:href="#shape0"/>
    <use height="20.95" transform="matrix(0.0785, 0.6698, 0.7482, -0.0986, 5.2, 3.05)" width="24.45" xlink:href="#sprite0"/>
    <use height="20.95" transform="matrix(0.0538, 0.4593, 0.5131, -0.0676, 16.85, 21.6)" width="24.45" xlink:href="#sprite0"/>
  </g>
  <defs>
    <g id="shape0" transform="matrix(1.0, 0.0, 0.0, 1.0, 0.0, 0.0)">
      <path d="M44.0 44.0 L0.0 44.0 0.0 0.0 44.0 0.0 44.0 44.0" fill="#43adca" fill-opacity="0.0" fill-rule="evenodd" stroke="none"/>
      <path d="M37.6 13.5 L38.0 14.0 38.95 15.5 39.7 17.15 Q39.2 17.75 38.8 18.7 L37.25 14.8 Q37.25 13.95 37.6 13.5 M16.1 7.0 L16.95 7.45 18.85 8.8 Q18.1 9.5 18.25 10.6 L15.55 8.95 Q15.45 7.75 16.1 7.0" fill="#88885e" fill-rule="evenodd" stroke="none"/>
      <path d="M40.4 20.15 L40.45 21.75 40.3 23.8 Q39.7 27.4 38.2 29.7 L35.35 32.5 36.75 30.9 37.55 29.65 Q39.2 26.7 38.85 23.3 39.7 20.95 40.4 20.15 M18.85 8.8 L19.0 8.95 19.35 9.35 21.4 12.15 21.95 13.35 21.05 13.8 19.8 13.85 Q19.45 12.3 18.25 10.6 18.1 9.5 18.85 8.8 M18.1 29.0 L18.7 29.15 18.7 31.9 18.7 32.35 18.2 32.35 17.2 29.85 18.1 29.0 M8.35 15.4 Q8.65 17.0 9.45 18.75 L8.1 20.35 Q6.75 18.9 6.95 17.5 7.3 14.8 8.35 15.4" fill="#696949" fill-rule="evenodd" stroke="none"/>
      <path d="M33.2 10.7 L33.65 10.8 Q35.9 11.6 37.6 13.5 37.25 13.95 37.25 14.8 34.65 13.95 32.5 12.7 32.6 11.5 33.2 10.7 M3.85 12.25 L5.85 11.2 6.6 12.85 3.85 12.25 M12.0 6.05 L12.2 6.05 Q14.2 6.1 16.1 7.0 15.45 7.75 15.55 8.95 14.55 8.35 13.7 8.1 L11.45 7.85 Q11.55 6.8 12.0 6.05" fill="#a2a077" fill-rule="evenodd" stroke="none"/>
      <path d="M5.8 9.15 L7.9 7.1 Q9.15 6.5 10.35 6.25 L11.05 6.15 Q10.2 7.15 8.65 8.0 6.9 8.25 5.8 9.15 M25.5 12.9 L25.45 12.85 Q27.7 10.65 29.45 10.4 L30.4 10.35 31.5 10.4 32.15 10.5 30.45 11.45 28.3 12.25 28.25 12.25 28.2 12.25 26.35 12.55 Q25.95 12.65 25.5 12.9 M35.65 21.35 L36.15 21.9 36.15 21.95 36.3 23.3 Q36.6 24.8 37.25 26.35 L35.65 27.95 36.3 25.55 36.1 23.35 36.1 23.25 35.95 22.9 35.95 22.85 35.8 22.55 35.1 20.8 35.65 21.35 M11.45 7.85 L13.7 8.1 Q14.55 8.35 15.55 8.95 L18.25 10.6 Q19.45 12.3 19.8 13.85 L20.4 14.75 20.4 15.4 20.45 17.2 19.3 16.3 18.55 15.7 17.8 13.15 17.6 12.65 Q16.2 10.65 14.0 10.15 12.6 8.75 10.6 8.0 L11.45 7.85" fill="#e2e1c7" fill-rule="evenodd" stroke="none"/>
      <path d="M19.2 39.15 L17.7 37.4 Q18.0 36.6 18.45 36.1 L18.7 35.8 Q19.2 35.35 19.8 35.2 L20.45 36.2 Q18.75 37.05 19.2 39.15 M10.9 30.25 L8.2 27.65 Q9.65 27.65 11.1 26.55 L11.4 27.3 13.2 28.25 Q12.85 30.05 10.9 30.25 M33.15 18.35 Q33.85 16.95 35.25 16.8 L35.9 18.35 37.2 20.15 Q36.05 20.0 35.65 21.35 L35.1 20.8 34.5 20.2 33.85 19.1 33.15 18.35 M17.8 13.15 L18.55 15.7 19.3 16.3 18.05 17.35 17.95 17.4 17.45 16.4 17.3 16.05 16.25 14.55 15.85 14.1 Q17.4 14.1 17.8 13.15 M18.05 17.35 L17.45 16.4 18.05 17.35" fill="#bbba77" fill-rule="evenodd" stroke="none"/>
      <path d="M35.35 32.5 L35.15 32.75 34.75 33.1 33.6 33.95 31.1 35.1 30.75 35.15 Q28.5 35.75 26.4 37.0 24.3 38.25 22.8 39.7 21.35 41.15 20.9 42.05 L19.2 39.15 Q18.75 37.05 20.45 36.2 L20.9 37.15 22.0 36.0 22.4 35.75 24.8 34.0 Q24.9 33.9 25.05 33.85 L26.4 33.2 27.85 32.6 27.95 32.55 27.95 32.6 30.45 33.0 32.05 31.45 33.2 30.65 34.05 29.95 34.2 29.7 34.3 29.6 34.8 28.9 35.1 28.45 35.65 27.95 37.25 26.35 Q36.6 24.8 36.3 23.3 L36.15 21.95 36.15 21.9 35.65 21.35 Q36.05 20.0 37.2 20.15 L38.75 22.2 38.85 23.3 Q39.2 26.7 37.55 29.65 L36.75 30.9 35.35 32.5 M8.2 27.65 L7.35 26.7 Q4.8 23.05 3.85 19.95 2.45 15.7 3.85 12.25 L6.6 12.85 5.85 11.2 5.2 9.75 5.8 9.15 Q6.9 8.25 8.65 8.0 L10.6 8.0 Q12.6 8.75 14.0 10.15 16.2 10.65 17.6 12.65 L17.8 13.15 Q17.4 14.1 15.85 14.1 L15.5 13.75 15.5 13.7 14.85 13.15 14.75 13.05 Q12.85 11.8 11.3 11.6 L9.15 11.8 Q7.45 12.45 6.65 14.6 6.1 16.0 6.95 17.5 6.75 18.9 8.1 20.35 8.15 21.75 9.35 22.9 9.5 23.5 9.75 23.7 10.8 25.35 11.1 26.55 9.65 27.65 8.2 27.65" fill="#cccc99" fill-rule="evenodd" stroke="none"/>
      <path d="M18.7 18.45 L18.7 21.7 16.7 21.05 15.55 22.25 14.8 23.9 14.5 23.75 14.05 23.2 14.0 23.15 13.4 22.5 13.25 22.35 12.6 21.5 11.95 19.55 Q10.45 14.35 14.85 13.15 L15.5 13.7 15.5 13.75 15.85 14.1 16.25 14.55 17.3 16.05 17.45 16.4 17.95 17.4 18.05 17.35 18.7 18.45 M28.0 31.7 L29.35 30.05 29.35 27.35 30.8 26.9 33.85 26.55 34.85 26.9 Q35.4 27.25 35.65 27.95 L35.1 28.45 34.8 28.9 34.3 29.6 34.2 29.7 34.05 29.95 32.4 30.5 31.25 30.7 29.35 31.15 28.9 31.35 Q28.4 31.5 28.0 31.7 M25.05 33.85 Q24.9 33.9 24.8 34.0 L24.8 32.1 26.3 32.75 25.05 33.85" fill="#c4c288" fill-rule="evenodd" stroke="none"/>
      <path d="M22.7 15.75 Q23.3 14.7 24.15 13.9 L25.05 13.15 25.15 13.1 25.5 12.9 Q25.95 12.65 26.35 12.55 L28.2 12.25 28.25 12.25 31.9 13.85 Q34.2 15.05 35.25 16.8 33.85 16.95 33.15 18.35 L32.4 17.6 32.25 17.45 Q31.05 16.6 29.65 16.45 L26.9 16.75 25.65 17.35 25.05 17.7 24.75 17.9 Q23.7 18.65 22.95 19.75 L21.1 19.2 21.25 18.75 Q21.85 17.05 22.7 15.75 M21.05 19.15 L18.7 18.45 18.05 17.35 19.3 16.3 20.45 17.2 21.05 19.15" fill="#dadab6" fill-rule="evenodd" stroke="none"/>
      <path d="M39.7 17.15 L39.85 17.65 40.4 20.15 Q39.7 20.95 38.85 23.3 L38.75 22.2 38.8 18.7 Q39.2 17.75 39.7 17.15 M21.95 13.35 L22.7 15.75 Q21.85 17.05 21.25 18.75 L21.1 19.2 21.05 19.25 21.05 19.15 20.45 17.2 20.4 15.4 20.4 14.75 19.8 13.85 21.05 13.8 21.95 13.35 M22.95 19.75 Q23.7 18.65 24.75 17.9 L25.05 17.7 25.65 17.35 Q24.8 18.2 24.3 19.25 L23.65 19.95 22.95 19.75 M14.5 25.2 L14.5 27.8 12.95 26.15 14.25 24.9 14.5 25.2 M14.55 27.85 L15.1 28.0 18.1 29.0 17.2 29.85 14.55 27.85 M18.7 31.9 L19.4 33.65 21.4 34.3 22.4 35.75 22.0 36.0 20.9 37.15 20.45 36.2 19.8 35.2 19.2 34.1 19.2 34.05 18.2 32.35 18.7 32.35 18.7 31.9 M9.15 11.8 L8.35 13.15 Q8.2 14.2 8.35 15.4 7.3 14.8 6.95 17.5 6.1 16.0 6.65 14.6 7.45 12.45 9.15 11.8" fill="#54543d" fill-rule="evenodd" stroke="none"/>
      <path d="M32.15 10.5 L33.2 10.7 Q32.6 11.5 32.5 12.7 L30.45 11.45 32.15 10.5 M11.05 6.15 L12.0 6.05 Q11.55 6.8 11.45 7.85 L10.6 8.0 8.65 8.0 Q10.2 7.15 11.05 6.15" fill="#f7f7f7" fill-rule="evenodd" stroke="none"/>
      <path d="M30.45 11.45 L32.5 12.7 Q34.65 13.95 37.25 14.8 L38.8 18.7 38.75 22.2 37.2 20.15 35.9 18.35 35.25 16.8 Q34.2 15.05 31.9 13.85 L28.25 12.25 28.3 12.25 30.45 11.45 M14.5 27.8 L14.55 27.85 17.2 29.85 18.2 32.35 19.2 34.05 19.2 34.1 16.0 31.2 14.5 29.65 13.2 28.25 11.4 27.3 11.1 26.55 Q10.8 25.35 9.75 23.7 10.9 25.05 12.3 25.35 L12.95 26.15 14.5 27.8 M32.05 31.45 L30.45 33.0 27.95 32.6 27.95 32.55 29.45 31.6 32.05 31.45" fill="#ffffff" fill-rule="evenodd" stroke="none"/>
      <path d="M25.65 17.35 L26.9 16.75 29.65 16.45 28.4 16.75 27.15 17.3 Q25.95 18.6 25.25 20.45 L24.65 22.2 24.3 22.6 24.3 19.25 Q24.8 18.2 25.65 17.35 M14.8 23.9 L14.5 24.4 14.5 25.2 14.25 24.9 12.65 23.45 11.8 22.45 11.75 22.35 9.95 19.45 9.5 18.8 9.45 18.75 Q8.65 17.0 8.35 15.4 8.2 14.2 8.35 13.15 L9.15 11.8 11.3 11.6 10.65 11.8 9.85 13.1 Q9.45 15.4 10.9 18.45 L11.0 18.7 11.35 19.35 12.6 21.5 13.25 22.35 13.4 22.5 14.0 23.15 14.05 23.2 14.5 23.75 14.8 23.9" fill="#b6ad6b" fill-rule="evenodd" stroke="none"/>
      <path d="M17.7 37.4 Q16.65 35.75 13.75 32.9 L10.9 30.25 Q12.85 30.05 13.2 28.25 L14.5 29.65 16.0 31.2 19.2 34.1 19.8 35.2 Q19.2 35.35 18.7 35.8 L18.45 36.1 Q18.0 36.6 17.7 37.4 M26.15 24.05 Q25.75 22.1 27.75 20.4 L34.5 20.2 35.1 20.8 35.8 22.55 35.95 22.85 35.95 22.9 36.1 23.25 36.1 23.35 34.75 23.45 Q33.1 23.1 30.0 24.75 L28.3 25.55 28.0 24.65 26.15 24.05 M11.3 11.6 Q12.85 11.8 14.75 13.05 L14.85 13.15 Q10.45 14.35 11.95 19.55 L12.6 21.5 11.35 19.35 11.0 18.7 10.9 18.45 Q9.45 15.4 9.85 13.1 L10.65 11.8 11.3 11.6" fill="#d1cca5" fill-rule="evenodd" stroke="none"/>
      <path d="M21.4 34.3 L23.35 33.5 24.3 32.5 24.3 30.95 25.2 31.25 26.65 31.15 28.9 28.95 28.9 27.35 28.7 26.9 31.05 25.65 31.1 25.6 Q34.7 24.0 36.3 25.55 L35.65 27.95 Q35.4 27.25 34.85 26.9 L33.85 26.55 30.8 26.9 29.35 27.35 29.35 30.05 28.0 31.7 27.85 31.75 27.5 32.0 Q26.85 32.35 26.3 32.75 L24.8 32.1 24.8 34.0 22.4 35.75 21.4 34.3" fill="#948d57" fill-rule="evenodd" stroke="none"/>
      <path d="M28.7 26.9 L28.3 25.6 28.3 25.55 30.0 24.75 Q33.1 23.1 34.75 23.45 L36.1 23.35 36.3 25.55 Q34.7 24.0 31.1 25.6 L31.05 25.65 28.7 26.9" fill="#beb77c" fill-rule="evenodd" stroke="none"/>
      <path d="M28.0 31.7 Q28.4 31.5 28.9 31.35 L29.35 31.15 31.25 30.7 32.4 30.5 34.05 29.95 33.2 30.65 32.05 31.45 29.45 31.6 27.95 32.55 27.85 32.6 26.4 33.2 25.05 33.85 26.3 32.75 Q26.85 32.35 27.5 32.0 L27.85 31.75 28.0 31.7 M9.45 18.75 L9.5 18.8 9.95 19.45 11.75 22.35 11.8 22.45 12.65 23.45 14.25 24.9 12.95 26.15 12.3 25.35 Q10.9 25.05 9.75 23.7 9.5 23.5 9.35 22.9 8.15 21.75 8.1 20.35 L9.45 18.75" fill="#979668" fill-rule="evenodd" stroke="none"/>
      <path d="M28.3 25.6 L28.25 25.6 28.3 25.55 28.3 25.6" fill="#17462f" fill-rule="evenodd" stroke="none"/>
      <path d="M27.1 26.35 L26.9 26.45 26.6 27.2 Q26.25 27.95 26.15 29.0 25.95 27.8 25.05 27.1 L24.55 26.85 23.1 26.45 22.35 25.4 23.2 25.4 Q23.85 26.05 25.35 26.55 L27.1 26.35" fill="#9fdfbf" fill-rule="evenodd" stroke="none"/>
      <path d="M29.65 16.45 Q31.05 16.6 32.25 17.45 L32.4 17.6 33.15 18.35 33.85 19.1 34.5 20.2 27.75 20.4 Q25.75 22.1 26.15 24.05 L24.3 23.5 24.3 22.6 24.65 22.2 25.25 20.45 Q25.95 18.6 27.15 17.3 L28.4 16.75 29.65 16.45" fill="#dfd9c1" fill-rule="evenodd" stroke="none"/>
      <path d="M32.15 10.5 L33.2 10.7 33.65 10.8 Q35.9 11.6 37.6 13.5 L38.0 14.0 38.95 15.5 39.7 17.15 39.85 17.65 40.4 20.15 40.45 21.75 40.3 23.8 Q39.7 27.4 38.2 29.7 L35.35 32.5 35.15 32.75 34.75 33.1 33.6 33.95 31.1 35.1 30.75 35.15 Q28.5 35.75 26.4 37.0 24.3 38.25 22.8 39.7 21.35 41.15 20.9 42.05 L19.2 39.15 17.7 37.4 Q16.65 35.75 13.75 32.9 L10.9 30.25 8.2 27.65 7.35 26.7 Q4.8 23.05 3.85 19.95 2.45 15.7 3.85 12.25 L5.85 11.2 5.2 9.75 5.8 9.15 7.9 7.1 Q9.15 6.5 10.35 6.25 L11.05 6.15 12.0 6.05 12.2 6.05 Q14.2 6.1 16.1 7.0 L16.95 7.45 18.85 8.8 19.0 8.95 19.35 9.35 21.4 12.15 21.95 13.35 22.7 15.75 Q23.3 14.7 24.15 13.9 L25.05 13.15 25.15 13.1 25.5 12.9 M25.45 12.85 Q27.7 10.65 29.45 10.4 L30.4 10.35 31.5 10.4 32.15 10.5" fill="none" stroke="#000000" stroke-linecap="round" stroke-linejoin="round" stroke-opacity="0.3019608" stroke-width="0.5"/>
      <path d="M25.65 17.35 L26.9 16.75 29.65 16.45 Q31.05 16.6 32.25 17.45 L32.4 17.6 33.15 18.35 M34.5 20.2 L33.85 19.1 33.15 18.35 M25.05 17.7 L24.75 17.9 Q23.7 18.65 22.95 19.75 M24.3 19.25 Q24.8 18.2 25.65 17.35 M14.5 25.2 L14.5 27.8 M14.55 27.85 L15.1 28.0 M18.7 31.9 L19.4 33.65 M35.1 20.8 L34.5 20.2 M35.1 20.8 L35.8 22.55 35.95 22.85 35.95 22.9 36.1 23.25 36.1 23.35 36.3 25.55 35.65 27.95 M28.0 31.7 Q28.4 31.5 28.9 31.35 L29.35 31.15 31.25 30.7 32.4 30.5 34.05 29.95 34.2 29.7 34.3 29.6 34.8 28.9 35.1 28.45 35.65 27.95 M28.3 25.55 L28.3 25.6 M9.15 11.8 L8.35 13.15 Q8.2 14.2 8.35 15.4 8.65 17.0 9.45 18.75 L9.5 18.8 9.95 19.45 11.75 22.35 11.8 22.45 12.65 23.45 14.25 24.9 M9.15 11.8 L11.3 11.6 Q12.85 11.8 14.75 13.05 L14.85 13.15 15.5 13.7 15.5 13.75 15.85 14.1 M17.45 16.4 L17.3 16.05 16.25 14.55 15.85 14.1 M17.45 16.4 L18.05 17.35 M18.7 18.45 L18.05 17.35 M25.05 33.85 Q24.9 33.9 24.8 34.0 L22.4 35.75 M26.3 32.75 Q26.85 32.35 27.5 32.0 L27.85 31.75 28.0 31.7 M26.3 32.75 L25.05 33.85 M21.4 34.3 L22.4 35.75" fill="none" stroke="#000000" stroke-linecap="round" stroke-linejoin="round" stroke-opacity="0.3019608" stroke-width="0.05"/>
      <path d="M25.25 31.35 L25.2 31.35 25.25 31.35" fill="#339966" fill-rule="evenodd" stroke="none"/>
      <path d="M28.85 27.5 L28.85 29.05 26.65 31.3 26.3 30.4 26.1 29.15 Q26.25 28.05 26.65 27.3 L26.9 26.55 27.1 26.45 27.75 26.0 28.85 27.5 M24.25 31.1 L24.25 32.6 23.35 33.6 22.3 32.15 22.3 30.45 24.25 31.1 M22.95 19.85 L23.65 20.05 24.25 19.4 24.25 23.55 22.3 25.5 22.9 23.05 22.3 20.45 22.95 19.85" fill="#304312" fill-rule="evenodd" stroke="none"/>
      <path d="M21.4 34.4 L19.4 33.7 19.35 32.35 Q19.5 30.85 20.15 29.75 L21.05 28.55 Q22.35 27.35 24.55 26.95 L25.05 27.15 Q25.9 27.9 26.1 29.15 25.9 30.9 25.25 31.35 L25.2 31.35 24.45 30.4 22.3 30.45 22.3 32.15 21.4 34.4 M15.1 28.15 L14.55 27.95 14.5 27.95 14.5 24.55 16.7 24.15 18.5 24.7 16.8 25.95 15.1 28.15 M18.7 21.8 L18.7 21.2 19.15 20.1 18.7 18.55 21.05 19.25 21.05 19.4 21.1 19.3 22.95 19.85 22.3 20.45 21.55 23.4 21.05 23.55 Q19.9 23.8 18.7 24.55 L18.7 21.8 M28.85 24.95 L28.85 27.5 27.75 26.0 28.85 24.95 M28.3 25.7 L28.45 25.45 28.25 25.7 28.3 25.7" fill="#648c26" fill-rule="evenodd" stroke="none"/>
      <path d="M25.2 31.35 L24.25 31.1 22.3 30.45 24.45 30.4 25.2 31.35 M18.7 32.0 L18.7 29.3 15.1 28.15 16.8 25.95 18.5 24.7 18.7 24.75 18.7 24.55 Q19.9 23.8 21.05 23.55 L21.55 23.4 22.3 25.5 23.1 26.55 Q21.95 26.7 21.05 27.3 20.05 28.05 19.4 29.5 L19.4 29.55 Q18.9 30.55 18.7 32.0 M24.25 23.55 L28.85 24.95 27.75 26.0 27.1 26.45 26.9 26.5 25.35 26.65 Q23.85 26.15 23.25 25.5 L22.3 25.5 24.25 23.55" fill="#7bad30" fill-rule="evenodd" stroke="none"/>
      <path d="M26.65 31.3 L25.25 31.35 Q25.9 30.9 26.1 29.15 25.9 27.9 25.05 27.15 L24.55 26.95 Q22.35 27.35 21.05 28.55 L20.15 29.75 Q19.5 30.85 19.35 32.35 L19.4 33.7 18.7 32.0 Q18.9 30.55 19.4 29.55 L19.4 29.5 Q20.05 28.05 21.05 27.3 21.95 26.7 23.1 26.55 L22.3 25.5 21.55 23.4 22.3 20.45 22.9 23.05 22.3 25.5 23.25 25.5 Q23.85 26.15 25.35 26.65 L26.9 26.5 26.9 26.55 26.65 27.3 Q26.25 28.05 26.1 29.15 L26.3 30.4 26.65 31.3 M23.35 33.6 L22.1 34.1 21.4 34.4 22.3 32.15 23.35 33.6 M15.5 22.4 L16.7 21.2 18.7 21.8 18.7 24.55 18.7 24.75 18.5 24.7 16.7 24.15 15.5 22.4 M18.7 21.2 L18.7 18.55 19.15 20.1 18.7 21.2" fill="#8ec837" fill-rule="evenodd" stroke="none"/>
      <path d="M14.5 24.55 L15.5 22.4 16.7 24.15 14.5 24.55" fill="#b0d973" fill-rule="evenodd" stroke="none"/>
      <path d="M28.85 27.5 L28.85 29.05 26.65 31.3 25.25 31.35 25.2 31.35 24.25 31.1 24.25 32.6 23.35 33.6 22.1 34.1 M18.7 32.0 L18.7 29.3 15.1 28.15 M14.5 24.55 L15.5 22.4 16.7 21.2 18.7 21.8 M18.7 21.2 L18.7 18.55 M24.25 19.4 L24.25 23.55 28.85 24.95 28.85 27.5 M22.3 20.45 L22.95 19.85" fill="none" stroke="#000000" stroke-linecap="round" stroke-linejoin="round" stroke-opacity="0.3019608" stroke-width="0.05"/>
    </g>
    <g id="sprite0" transform="matrix(1.0, 0.0, 0.0, 1.0, 0.0, 0.0)">
      <use height="20.95" transform="matrix(1.0, 0.0, 0.0, 1.0, 0.0, 0.0)" width="24.45" xlink:href="#shape1"/>
    </g>
    <g id="shape1" transform="matrix(1.0, 0.0, 0.0, 1.0, 0.0, 0.0)">
      <path d="M14.85 11.4 Q15.8 11.6 16.25 12.45 16.85 13.3 16.6 14.35 16.4 15.3 15.55 15.9 14.65 16.4 13.65 16.2 12.65 15.9 12.1 15.1 11.6 14.2 11.8 13.2 12.1 12.2 12.9 11.65 13.8 11.15 14.85 11.4" fill="#ffffff" fill-opacity="0.5882353" fill-rule="evenodd" stroke="none"/>
      <path d="M14.85 11.4 Q13.8 11.15 12.9 11.65 12.1 12.2 11.8 13.2 11.6 14.2 12.1 15.1 12.65 15.9 13.65 16.2 14.65 16.4 15.55 15.9 16.4 15.3 16.6 14.35 16.85 13.3 16.25 12.45 15.8 11.6 14.85 11.4 M18.2 11.35 L20.15 11.25 18.75 12.55 Q19.05 13.8 18.8 15.05 18.5 16.35 17.65 17.3 L19.1 20.95 16.55 18.25 Q14.8 19.3 12.8 18.85 10.8 18.35 9.75 16.65 9.05 15.5 8.95 14.3 7.75 12.35 4.85 11.5 8.3 12.45 9.7 11.4 10.3 10.4 11.35 9.75 13.1 8.75 15.1 9.15 16.95 9.5 18.1 11.15 L18.2 11.35" fill="#ffffff" fill-opacity="0.1764706" fill-rule="evenodd" stroke="none"/>
      <path d="M15.4 13.55 L18.1 17.55 13.35 14.65 7.05 18.5 12.75 13.55 0.0 0.0 14.25 12.25 24.45 5.95 15.4 13.55" fill="#ffffff" fill-opacity="0.5882353" fill-rule="evenodd" stroke="none"/>
    </g>
  </defs>
</svg>
