<?xml version="1.0" encoding="UTF-8" standalone="no"?>
<svg xmlns:xlink="http://www.w3.org/1999/xlink" height="440.0px" width="440.0px" xmlns="http://www.w3.org/2000/svg">
  <g transform="matrix(10.0, 0.0, 0.0, 10.0, 0.0, 0.0)">
    <use height="44.0" transform="matrix(1.0, 0.0, 0.0, 1.0, 0.0, 0.0)" width="44.0" xlink:href="#shape0"/>
    <use height="46.5" transform="matrix(0.8315, 0.0, 0.0, 0.8315, 2.85, 2.3141)" width="37.4" xlink:href="#sprite0"/>
    <use height="20.95" transform="matrix(0.0965, 0.8229, 0.9192, -0.1211, 15.6, 3.75)" width="24.45" xlink:href="#sprite1"/>
  </g>
  <defs>
    <g id="shape0" transform="matrix(1.0, 0.0, 0.0, 1.0, 0.0, 0.0)">
      <path d="M44.0 44.0 L0.0 44.0 0.0 0.0 44.0 0.0 44.0 44.0" fill="#43adca" fill-opacity="0.0" fill-rule="evenodd" stroke="none"/>
      <path d="M18.65 9.65 L18.7 9.65 18.6 9.9 18.65 9.65 M26.05 12.4 L26.5 12.5 26.45 12.6 26.05 12.4" fill="#fcfbfa" fill-rule="evenodd" stroke="none"/>
      <path d="M9.05 22.2 L9.45 20.5 14.15 20.5 13.1 22.4 10.1 23.2 9.05 22.2 M24.0 12.5 L20.45 14.8 19.35 14.65 Q21.55 14.0 24.0 12.5 M15.4 19.65 Q17.55 20.95 19.85 19.7 L20.55 19.3 18.35 22.0 16.7 21.9 Q15.95 21.0 15.55 19.95 L15.4 19.65 M34.45 26.8 L35.55 27.3 35.4 28.65 36.4 30.45 36.25 31.9 Q35.15 31.75 33.75 32.45 L32.65 33.0 32.35 33.2 Q35.4 30.5 34.45 26.8 M27.45 13.2 L28.2 18.15 27.25 19.0 25.95 18.8 Q27.5 17.25 27.45 13.2 M26.05 12.4 L24.25 17.4 22.8 17.7 21.5 16.9 Q24.45 16.0 26.05 12.4 M27.65 26.35 Q30.35 24.95 30.75 21.35 L31.4 24.9 30.65 26.35 27.65 26.35 M20.1 24.45 Q22.2 24.5 23.5 23.55 24.7 22.65 25.25 21.0 L24.7 24.75 24.7 24.8 23.4 25.65 Q21.55 25.15 20.1 24.45 M28.5 29.3 L29.2 32.9 28.05 34.85 24.15 35.7 Q26.55 34.55 27.65 32.8 28.5 31.25 28.5 29.3 M19.6 27.9 L17.9 32.7 15.75 33.65 13.95 32.7 12.4 31.45 Q16.9 32.4 19.6 27.9 M30.1 14.65 L31.75 17.8 31.4 18.95 30.45 19.05 Q31.1 17.7 30.1 14.65 M33.9 19.45 L33.9 19.4 34.1 19.7 34.3 20.1 34.85 21.6 35.4 24.6 34.05 25.5 Q34.65 23.35 34.35 21.15 L33.9 19.45" fill="#4b7225" fill-rule="evenodd" stroke="none"/>
      <path d="M33.9 19.4 L33.9 19.45 33.8 19.2 33.9 19.4" fill="#7c763f" fill-rule="evenodd" stroke="none"/>
      <path d="M16.4 17.55 Q16.5 17.3 17.25 17.05 L17.6 16.95 18.1 16.95 18.35 17.3 18.1 17.95 17.85 18.2 Q17.15 18.75 16.55 18.75 15.9 18.7 16.1 18.3 L16.4 17.55 M26.85 21.15 L27.4 20.85 27.65 20.7 28.0 20.65 Q28.5 20.7 28.5 21.15 28.25 22.3 27.2 22.3 26.5 22.3 26.5 21.85 26.5 21.55 26.85 21.15 M23.6 28.35 L23.85 28.35 Q25.1 28.45 25.1 29.25 L24.6 30.1 Q23.85 31.0 22.65 31.0 21.75 31.0 21.75 30.1 21.75 28.8 22.85 28.35 L23.6 28.35 M22.35 19.85 L22.7 19.9 22.8 19.9 23.0 20.2 22.6 20.9 Q22.15 21.3 21.6 21.3 L21.35 21.3 21.05 21.0 Q21.05 20.5 21.65 20.1 L21.95 19.9 22.35 19.85 M14.4 24.55 L14.65 24.6 15.25 24.55 Q16.35 24.6 16.35 25.45 L15.85 26.45 Q15.15 27.25 14.2 27.25 12.5 27.25 12.5 26.25 12.5 25.55 13.15 25.05 13.7 24.55 14.4 24.55 M31.05 28.7 Q31.4 28.45 31.7 28.3 31.8 28.2 32.05 28.15 L32.35 28.1 Q33.0 28.1 33.0 28.6 L32.65 29.45 Q32.1 30.1 31.2 30.1 30.55 30.1 30.55 29.75 30.55 29.15 31.05 28.7 M32.7 20.4 L33.1 20.2 33.15 20.2 Q33.55 20.3 33.55 20.8 L33.3 21.5 32.65 22.05 Q32.25 22.0 32.15 21.45 32.0 20.9 32.3 20.7 L32.65 20.4 32.7 20.4" fill="#80bf40" fill-rule="evenodd" stroke="none"/>
      <path d="M9.45 20.5 L9.95 19.2 Q10.7 17.95 11.8 17.2 L12.65 16.95 12.7 16.95 13.45 16.65 13.9 16.45 13.8 18.1 Q13.8 19.4 14.15 20.5 L9.45 20.5 M18.6 13.35 L19.8 12.85 Q22.15 12.0 24.5 12.2 L24.0 12.5 Q21.55 14.0 19.35 14.65 L18.6 13.35 M25.0 12.25 L26.05 12.4 Q24.45 16.0 21.5 16.9 L21.5 15.5 25.0 12.25 M16.4 17.55 L16.1 18.3 Q15.9 18.7 16.55 18.75 17.15 18.75 17.85 18.2 L18.1 17.95 18.35 17.3 18.1 16.95 17.6 16.95 17.25 17.05 Q16.5 17.3 16.4 17.55 M15.2 19.05 L16.05 17.25 17.35 16.45 19.35 16.6 20.15 17.5 20.55 19.3 19.85 19.7 Q17.55 20.95 15.4 19.65 L15.2 19.05 M9.7 27.65 L10.45 25.3 14.25 23.8 16.35 23.9 18.4 25.5 18.45 25.55 19.6 27.9 Q16.9 32.4 12.4 31.45 10.8 29.95 9.9 28.1 L9.7 27.65 M21.85 35.45 L20.3 33.25 21.3 28.4 23.15 27.3 26.95 28.0 27.05 28.05 28.5 29.3 Q28.5 31.25 27.65 32.8 26.55 34.55 24.15 35.7 L21.85 35.45 M32.3 33.25 L30.85 32.55 30.05 29.7 30.4 28.0 33.35 27.3 34.45 26.8 Q35.4 30.5 32.35 33.2 L32.3 33.25 M34.05 25.5 L32.9 25.3 31.55 21.35 31.9 20.05 32.25 19.95 33.2 19.55 33.4 19.45 33.8 19.2 33.9 19.45 34.35 21.15 Q34.65 23.35 34.05 25.5 M30.45 19.05 L28.95 18.15 27.85 13.4 30.1 14.65 Q31.1 17.7 30.45 19.05 M25.95 18.8 L24.8 17.65 26.45 12.6 27.45 13.2 Q27.5 17.25 25.95 18.8 M26.85 21.15 Q26.5 21.55 26.5 21.85 26.5 22.3 27.2 22.3 28.25 22.3 28.5 21.15 28.5 20.7 28.0 20.65 L27.65 20.7 27.4 20.85 26.85 21.15 M27.65 26.35 L27.6 26.35 26.2 25.05 26.3 21.15 27.35 20.25 29.5 20.35 30.75 21.35 Q30.35 24.95 27.65 26.35 M25.25 21.0 Q24.7 22.65 23.5 23.55 22.2 24.5 20.1 24.45 L19.45 22.85 21.3 19.75 22.9 19.2 23.9 19.55 24.5 19.7 25.25 21.0 M22.35 19.85 L21.95 19.9 21.65 20.1 Q21.05 20.5 21.05 21.0 L21.35 21.3 21.6 21.3 Q22.15 21.3 22.6 20.9 L23.0 20.2 22.8 19.9 22.7 19.9 22.35 19.85 M23.6 28.35 L22.85 28.35 Q21.75 28.8 21.75 30.1 21.75 31.0 22.65 31.0 23.85 31.0 24.6 30.1 L25.1 29.25 Q25.1 28.45 23.85 28.35 L23.6 28.35 M14.4 24.55 Q13.7 24.55 13.15 25.05 12.5 25.55 12.5 26.25 12.5 27.25 14.2 27.25 15.15 27.25 15.85 26.45 L16.35 25.45 Q16.35 24.6 15.25 24.55 L14.65 24.6 14.4 24.55 M32.7 20.4 L32.65 20.4 32.3 20.7 Q32.0 20.9 32.15 21.45 32.25 22.0 32.65 22.05 L33.3 21.5 33.55 20.8 Q33.55 20.3 33.15 20.2 L33.1 20.2 32.7 20.4 M31.05 28.7 Q30.55 29.15 30.55 29.75 30.55 30.1 31.2 30.1 32.1 30.1 32.65 29.45 L33.0 28.6 Q33.0 28.1 32.35 28.1 L32.05 28.15 Q31.8 28.2 31.7 28.3 31.4 28.45 31.05 28.7" fill="#669933" fill-rule="evenodd" stroke="none"/>
      <path d="M24.1 12.6 L24.0 12.5 24.5 12.2 24.1 12.6" fill="#aea873" fill-rule="evenodd" stroke="none"/>
      <path d="M18.7 9.65 L18.8 9.75 18.6 9.9 18.7 9.65 M37.4 32.2 L37.55 32.25 37.45 32.25 37.4 32.2" fill="#70693a" fill-rule="evenodd" stroke="none"/>
      <path d="M37.4 32.25 L37.4 32.2 37.45 32.25 37.4 32.25" fill="#bbba77" fill-rule="evenodd" stroke="none"/>
      <path d="M40.0 31.7 L39.5 32.9 38.25 34.2 38.45 33.65 39.3 32.45 40.0 31.7" fill="#aaaa55" fill-rule="evenodd" stroke="none"/>
      <path d="M16.0 1.4 L19.15 3.15 18.1 3.65 17.55 3.6 15.55 2.45 16.0 1.4 M18.1 13.85 L18.6 13.35 19.35 14.65 20.45 14.8 24.0 12.5 24.1 12.6 21.35 15.1 19.25 15.7 18.1 13.85 17.45 15.45 15.65 16.3 14.9 15.95 15.55 15.65 15.8 15.5 16.1 15.3 16.65 14.9 16.7 14.85 17.3 14.5 18.1 13.85 M38.85 30.85 L40.0 31.7 39.3 32.45 37.55 32.25 38.85 30.85 M27.25 42.3 Q23.6 41.4 24.35 37.55 L24.5 36.9 28.7 36.05 Q28.05 37.7 29.25 38.95 30.65 41.8 27.25 42.3 M4.05 32.85 Q2.7 31.7 2.55 30.0 2.6 28.45 6.0 29.3 6.75 28.8 6.65 27.75 6.5 25.75 7.0 25.35 L7.35 27.55 8.0 28.8 9.15 30.55 Q7.95 33.25 4.05 32.85 M6.0 6.8 L6.15 6.15 7.5 6.35 8.3 6.55 Q9.5 6.25 10.4 5.75 L11.7 4.6 12.05 4.6 Q12.65 4.75 12.85 5.45 12.4 4.9 11.75 5.1 L10.5 6.35 8.5 7.3 7.25 6.9 6.0 6.8 M17.9 5.05 Q18.8 7.15 18.65 9.65 L18.6 9.9 16.95 12.35 16.65 14.85 15.2 14.9 13.65 15.15 12.6 15.45 12.4 15.5 11.7 15.8 11.25 15.95 11.65 15.7 14.0 13.5 14.85 11.7 Q14.95 9.35 13.65 9.6 10.7 8.1 12.25 6.85 L15.45 7.0 15.6 7.05 17.7 7.15 Q18.3 6.4 17.9 5.05 M20.55 19.3 L18.6 22.75 15.9 22.75 14.85 20.6 15.2 19.05 15.4 19.65 15.55 19.95 Q15.95 21.0 16.7 21.9 L18.35 22.0 20.55 19.3 M14.15 20.5 L13.45 23.2 9.95 24.4 8.95 23.95 8.95 23.55 9.05 22.2 10.1 23.2 13.1 22.4 14.15 20.5 M18.45 25.55 L20.3 27.8 19.1 33.5 17.75 34.45 17.35 34.3 16.15 33.8 15.75 33.65 17.9 32.7 19.6 27.9 18.45 25.55 M27.05 28.05 L29.2 29.15 30.25 32.95 29.75 34.25 29.5 34.35 29.1 34.5 28.05 34.85 29.2 32.9 28.5 29.3 27.05 28.05 M35.55 25.6 L34.05 25.5 35.4 24.6 35.5 25.05 35.55 25.6 M30.1 14.65 L32.85 18.95 31.4 19.5 30.45 19.05 31.4 18.95 31.75 17.8 30.1 14.65 M27.45 13.2 L28.65 18.7 27.2 19.65 25.95 18.8 27.25 19.0 28.2 18.15 27.45 13.2 M26.05 12.4 L24.35 18.0 23.15 18.75 21.95 17.95 21.5 16.9 22.8 17.7 24.25 17.4 26.05 12.4 M30.75 21.35 L31.7 23.25 32.15 25.25 31.15 27.15 30.65 27.1 29.2 27.1 27.65 26.35 30.65 26.35 31.4 24.9 30.75 21.35 M20.1 24.45 Q21.55 25.15 23.4 25.65 L24.7 24.8 24.7 24.75 25.25 21.0 25.25 25.05 23.1 26.75 20.7 25.75 20.1 24.45 M36.4 30.45 L37.4 32.2 37.4 32.25 36.25 31.9 36.4 30.45" fill="#cc9312" fill-rule="evenodd" stroke="none"/>
      <path d="M6.65 27.75 L6.45 26.95 Q5.0 22.6 6.85 18.0 8.2 15.6 10.05 13.8 L11.75 12.3 Q7.75 10.5 8.5 7.3 L10.5 6.35 11.75 5.1 Q12.4 4.9 12.85 5.45 12.65 4.75 12.05 4.6 L11.7 4.6 10.4 5.75 Q9.5 6.25 8.3 6.55 8.45 5.85 8.75 5.3 9.9 3.0 12.65 2.4 L13.9 2.5 14.9 2.75 17.2 4.25 17.9 5.05 Q18.3 6.4 17.7 7.15 L15.6 7.05 15.45 7.0 12.25 6.85 Q10.7 8.1 13.65 9.6 14.95 9.35 14.85 11.7 L14.0 13.5 11.65 15.7 11.25 15.95 11.0 16.1 Q9.8 16.75 9.0 17.85 7.65 19.75 7.2 22.0 6.85 23.6 7.0 25.35 6.5 25.75 6.65 27.75 M13.55 3.75 Q12.85 1.15 11.7 4.6 12.85 1.15 13.55 3.75" fill="#f5b016" fill-rule="evenodd" stroke="none"/>
      <path d="M7.8 2.7 L8.95 1.6 16.0 1.4 14.25 2.15 14.15 2.15 Q9.15 2.0 7.8 2.75 L7.8 2.7 M18.6 13.35 L20.0 12.0 Q23.45 10.35 26.95 10.95 28.7 11.2 30.4 12.0 L28.7 12.95 26.5 12.5 26.05 12.4 25.0 12.25 24.5 12.2 Q22.15 12.0 19.8 12.85 L18.6 13.35 M11.7 15.8 L12.4 15.5 12.6 15.45 13.65 15.15 15.2 14.9 16.65 14.85 16.65 14.9 16.1 15.3 15.8 15.5 15.55 15.65 14.9 15.95 14.4 16.2 13.9 16.45 13.45 16.65 12.7 16.95 12.65 16.95 11.8 17.2 Q10.7 17.95 9.95 19.2 L9.45 20.5 9.05 22.2 Q8.8 20.85 7.2 22.0 8.8 20.85 9.05 22.2 L8.95 23.55 8.95 23.95 8.95 25.45 9.05 25.85 9.1 25.85 9.45 27.05 9.7 27.65 9.9 28.1 Q10.8 29.95 12.4 31.45 L13.95 32.7 15.75 33.65 16.15 33.8 17.35 34.3 17.75 34.45 19.95 35.05 21.85 35.45 24.15 35.7 28.05 34.85 29.1 34.5 29.5 34.35 29.75 34.25 31.15 33.75 32.2 33.25 32.3 33.25 32.35 33.2 32.65 33.0 33.75 32.45 Q34.2 32.5 34.3 32.8 34.2 32.5 33.75 32.45 35.15 31.75 36.25 31.9 L37.4 32.25 37.45 32.25 37.55 32.25 39.3 32.45 38.45 33.65 37.75 32.7 34.3 32.8 28.5 35.45 Q26.45 36.4 23.75 36.4 L22.25 36.3 Q17.9 35.45 13.85 33.6 10.0 31.4 8.65 28.15 L8.0 27.0 9.45 27.05 8.0 27.0 Q7.2 24.6 7.2 22.0 7.65 19.75 9.0 17.85 9.8 16.75 11.0 16.1 L11.25 15.95 11.7 15.8 M8.65 28.15 L9.9 28.1 8.65 28.15" fill="#f7d655" fill-rule="evenodd" stroke="none"/>
      <path d="M12.65 2.4 L7.8 2.75 Q9.15 2.0 14.15 2.15 L14.25 2.15 16.0 1.4 15.55 2.45 17.55 3.6 18.1 3.65 19.15 3.15 18.6 4.8 Q19.85 6.95 18.7 9.65 L18.65 9.65 Q18.8 7.15 17.9 5.05 L17.2 4.25 14.9 2.75 13.9 2.5 12.65 2.4 M26.5 12.5 L28.7 12.95 30.4 12.0 30.0 13.75 30.45 14.15 Q31.85 15.0 32.9 16.3 34.55 18.2 35.45 21.05 L36.1 22.05 37.1 21.85 36.25 23.7 36.1 24.9 36.3 26.9 36.85 28.45 37.4 32.2 36.4 30.45 35.4 28.65 35.55 27.3 35.6 27.05 35.6 26.1 35.55 25.6 35.5 25.05 35.4 24.6 34.85 21.6 34.3 20.1 34.1 19.7 33.9 19.4 33.8 19.2 33.5 18.7 Q32.4 16.8 30.7 15.25 L30.1 14.65 27.85 13.4 27.45 13.2 26.45 12.6 26.5 12.5" fill="#feeeb4" fill-rule="evenodd" stroke="none"/>
      <path d="M11.75 12.3 Q9.95 12.5 8.7 11.9 7.4 11.3 6.6 10.0 5.75 8.4 6.0 6.8 L7.25 6.9 8.5 7.3 Q7.75 10.5 11.75 12.3 M6.15 6.15 L5.2 6.25 Q5.95 4.35 7.75 2.85 L7.8 2.75 12.65 2.4 Q9.9 3.0 8.75 5.3 8.45 5.85 8.3 6.55 L7.5 6.35 6.15 6.15 M9.05 3.85 L7.95 3.9 9.05 3.85" fill="#f8c44b" fill-rule="evenodd" stroke="none"/>
      <path d="M32.65 41.15 L32.15 41.65 Q30.5 42.5 27.25 42.3 30.65 41.8 29.25 38.95 28.05 37.7 28.7 36.05 L29.95 35.6 31.15 35.05 Q30.65 35.75 30.5 36.35 L30.45 36.45 Q30.1 37.7 31.15 38.4 32.9 40.25 32.65 41.15 M10.75 33.4 Q9.75 34.8 7.35 34.35 5.25 33.8 4.05 32.85 7.95 33.25 9.15 30.55 L11.0 32.45 10.75 33.4" fill="#794f10" fill-rule="evenodd" stroke="none"/>
      <path d="M38.25 34.2 L37.25 35.15 36.9 35.4 33.7 35.25 33.15 35.4 31.65 35.95 30.55 36.45 30.45 36.45 30.5 36.35 Q30.65 35.75 31.15 35.05 L29.95 35.6 28.7 36.05 24.5 36.9 24.05 36.95 Q21.0 36.95 17.85 35.95 16.0 35.4 14.15 34.45 12.4 33.6 11.0 32.45 L9.15 30.55 8.0 28.8 7.35 27.55 8.0 27.0 7.35 27.55 7.0 25.35 Q6.85 23.6 7.2 22.0 7.2 24.6 8.0 27.0 L8.65 28.15 Q10.0 31.4 13.85 33.6 17.9 35.45 22.25 36.3 L23.75 36.4 Q26.45 36.4 28.5 35.45 L34.3 32.8 34.25 33.3 36.65 33.15 Q36.8 34.4 35.35 34.2 36.8 34.4 36.65 33.15 L34.25 33.3 34.3 32.8 37.75 32.7 38.45 33.65 38.25 34.2 M8.0 28.8 Q8.25 28.35 8.65 28.15 8.25 28.35 8.0 28.8 M34.25 33.3 L32.85 34.1 34.25 33.3" fill="#ab7806" fill-rule="evenodd" stroke="none"/>
      <path d="M13.9 16.45 L14.4 16.2 14.9 15.95 15.65 16.3 17.45 15.45 18.1 13.85 19.25 15.7 21.35 15.1 24.1 12.6 24.5 12.2 25.0 12.25 21.5 15.5 21.5 16.9 21.95 17.95 23.15 18.75 24.35 18.0 26.05 12.4 26.45 12.6 24.8 17.65 25.95 18.8 27.2 19.65 28.65 18.7 27.45 13.2 27.85 13.4 28.95 18.15 30.45 19.05 31.4 19.5 32.85 18.95 30.1 14.65 30.7 15.25 Q32.4 16.8 33.5 18.7 L33.8 19.2 33.4 19.45 33.2 19.55 32.25 19.95 31.9 20.05 31.55 21.35 32.9 25.3 34.05 25.5 35.55 25.6 35.6 26.1 35.6 27.05 35.55 27.3 34.45 26.8 33.35 27.3 30.4 28.0 30.05 29.7 30.85 32.55 32.3 33.25 32.2 33.25 31.15 33.75 29.75 34.25 30.25 32.95 29.2 29.15 27.05 28.05 26.95 28.0 23.15 27.3 21.3 28.4 20.3 33.25 21.85 35.45 19.95 35.05 17.75 34.45 19.1 33.5 20.3 27.8 18.45 25.55 18.4 25.5 16.35 23.9 14.25 23.8 10.45 25.3 9.7 27.65 9.45 27.05 9.1 25.85 9.05 25.85 8.95 25.45 8.95 23.95 9.95 24.4 13.45 23.2 14.15 20.5 Q13.8 19.4 13.8 18.1 L13.9 16.45 M20.55 19.3 L20.15 17.5 19.35 16.6 17.35 16.45 16.05 17.25 15.2 19.05 14.85 20.6 15.9 22.75 18.6 22.75 20.55 19.3 M30.75 21.35 L29.5 20.35 27.35 20.25 26.3 21.15 26.2 25.05 27.6 26.35 27.65 26.35 29.2 27.1 30.65 27.1 31.15 27.15 32.15 25.25 31.7 23.25 30.75 21.35 M25.25 21.0 L24.5 19.7 23.9 19.55 22.9 19.2 21.3 19.75 19.45 22.85 20.1 24.45 20.7 25.75 23.1 26.75 25.25 25.05 25.25 21.0" fill="#ffcc00" fill-rule="evenodd" stroke="none"/>
      <path d="M19.75 8.75 L18.35 11.0 18.1 13.85 17.3 14.5 16.7 14.85 16.65 14.85 16.95 12.35 18.6 9.9 18.8 9.75 19.75 8.75 M30.4 12.0 L32.95 13.95 Q32.15 14.6 32.9 16.3 31.85 15.0 30.45 14.15 L30.0 13.75 30.4 12.0 M37.1 21.85 Q37.05 23.75 37.25 25.4 36.7 25.35 36.3 26.9 L36.1 24.9 36.25 23.7 37.1 21.85 M31.65 35.95 Q31.7 36.65 32.4 37.15 34.2 38.95 33.9 39.9 L32.65 41.15 Q32.9 40.25 31.15 38.4 30.1 37.7 30.45 36.45 L30.55 36.45 31.65 35.95 M14.9 36.55 Q13.1 35.5 11.05 33.75 L10.75 33.4 11.0 32.45 Q12.4 33.6 14.15 34.45 16.0 35.4 17.85 35.95 15.6 35.7 14.9 36.55 M18.35 11.0 L16.95 12.35 18.35 11.0" fill="#a04c00" fill-rule="evenodd" stroke="none"/>
      <path d="M19.15 3.15 Q20.5 5.65 19.75 8.75 L18.8 9.75 18.7 9.65 Q19.85 6.95 18.6 4.8 L19.15 3.15 M32.95 13.95 Q36.15 17.0 37.1 21.85 L36.1 22.05 35.45 21.05 Q34.55 18.2 32.9 16.3 32.15 14.6 32.95 13.95 M37.25 25.4 Q37.65 28.55 38.85 30.85 L37.55 32.25 37.4 32.2 36.85 28.45 36.3 26.9 Q36.7 25.35 37.25 25.4 M24.35 37.55 L19.15 37.9 Q17.2 37.8 14.9 36.55 15.6 35.7 17.85 35.95 21.0 36.95 24.05 36.95 L24.5 36.9 24.35 37.55" fill="#cb7800" fill-rule="evenodd" stroke="none"/>
      <path d="M7.8 2.7 L8.95 1.6 16.0 1.4 19.15 3.15 Q20.5 5.65 19.75 8.75 L18.35 11.0 18.1 13.85 18.6 13.35 20.0 12.0 Q23.45 10.35 26.95 10.95 28.7 11.2 30.4 12.0 L32.95 13.95 Q36.15 17.0 37.1 21.85 37.05 23.75 37.25 25.4 37.65 28.55 38.85 30.85 L40.0 31.7 39.5 32.9 38.25 34.2 37.25 35.15 36.9 35.4 33.7 35.25 33.15 35.4 31.65 35.95 Q31.7 36.65 32.4 37.15 34.2 38.95 33.9 39.9 L32.65 41.15 32.15 41.65 Q30.5 42.5 27.25 42.3 23.6 41.4 24.35 37.55 L19.15 37.9 Q17.2 37.8 14.9 36.55 13.1 35.5 11.05 33.75 L10.75 33.4 Q9.75 34.8 7.35 34.35 5.25 33.8 4.05 32.85 2.7 31.7 2.55 30.0 2.6 28.45 6.0 29.3 6.75 28.8 6.65 27.75 L6.45 26.95 Q5.0 22.6 6.85 18.0 8.2 15.6 10.05 13.8 M8.7 11.9 Q7.4 11.3 6.6 10.0 5.75 8.4 6.0 6.8 L6.15 6.15 5.2 6.25 Q5.95 4.35 7.75 2.85 M11.7 4.6 Q12.85 1.15 13.55 3.75" fill="none" stroke="#000000" stroke-linecap="round" stroke-linejoin="round" stroke-opacity="0.4" stroke-width="0.5"/>
      <path d="M7.75 2.85 L7.8 2.7 M7.75 2.85 L7.8 2.75 M7.95 3.9 L9.05 3.85 M12.85 5.45 Q12.65 4.75 12.05 4.6 L11.7 4.6 10.4 5.75 M7.5 6.35 L6.15 6.15 M11.7 15.8 L11.25 15.95 11.0 16.1 Q9.8 16.75 9.0 17.85 7.65 19.75 7.2 22.0 8.8 20.85 9.05 22.2 L9.45 20.5 9.95 19.2 Q10.7 17.95 11.8 17.2 L12.65 16.95 12.7 16.95 M15.8 15.5 L16.1 15.3 16.65 14.9 16.65 14.85 15.2 14.9 M18.6 9.9 L18.8 9.75 19.75 8.75 M18.6 9.9 L16.95 12.35 18.35 11.0 M16.65 14.9 L16.7 14.85 16.65 14.85 16.95 12.35 M16.7 14.85 L17.3 14.5 18.1 13.85 M8.95 23.95 L8.95 25.45 9.05 25.85 M9.1 25.85 L9.45 27.05 9.7 27.65 9.9 28.1 8.65 28.15 Q8.25 28.35 8.0 28.8 L9.15 30.55 11.0 32.45 10.75 33.4 M17.75 34.45 L19.95 35.05 21.85 35.45 M32.2 33.25 L32.3 33.25 M28.05 34.85 L29.1 34.5 M15.75 33.65 L16.15 33.8 17.35 34.3 17.75 34.45 M15.75 33.65 L13.95 32.7 12.4 31.45 Q10.8 29.95 9.9 28.1 M34.3 32.8 Q34.2 32.5 33.75 32.45 L32.65 33.0 32.35 33.2 32.3 33.25 M17.85 35.95 Q16.0 35.4 14.15 34.45 12.4 33.6 11.0 32.45 M24.35 37.55 L24.5 36.9 24.05 36.95 Q21.0 36.95 17.85 35.95 M28.7 36.05 L29.95 35.6 M30.5 36.35 L30.45 36.45 30.55 36.45 M24.15 35.7 L28.05 34.85 M24.5 36.9 L28.7 36.05 M24.15 35.7 L21.85 35.45 M9.05 22.2 L8.95 23.55 8.95 23.95 M7.35 27.55 L8.0 28.8 M8.0 27.0 L7.35 27.55 7.0 25.35 Q6.5 25.75 6.65 27.75 M8.0 27.0 L9.45 27.05 M7.2 22.0 Q6.85 23.6 7.0 25.35 M36.25 31.9 L37.4 32.25 M37.55 32.25 L38.85 30.85 M34.3 32.8 L34.25 33.3 36.65 33.15 Q36.8 34.4 35.35 34.2 M37.55 32.25 L37.45 32.25 37.4 32.25 M38.25 34.2 L38.45 33.65 M32.85 34.1 L34.25 33.3 M36.25 31.9 Q35.15 31.75 33.75 32.45 M39.3 32.45 L40.0 31.7" fill="none" stroke="#000000" stroke-linecap="round" stroke-linejoin="round" stroke-opacity="0.3019608" stroke-width="0.05"/>
      <path d="M25.05 31.85 L24.55 32.55 23.1 32.85 22.55 32.6 22.35 32.2 23.2 31.6 Q24.0 31.15 24.25 31.15 25.05 31.15 25.05 31.85" fill="#80bf40" fill-rule="evenodd" stroke="none"/>
      <path d="M22.9 22.2 L22.55 22.0 22.55 21.85 Q22.55 21.4 23.15 21.25 23.7 21.0 23.7 21.6 23.7 22.2 22.9 22.2" fill="#80bf40" fill-rule="evenodd" stroke="none"/>
      <path d="M21.95 13.1 L21.9 13.35 19.85 13.65 19.55 13.45 Q19.55 13.25 20.75 12.9 21.95 12.6 21.95 13.1" fill="#80bf40" fill-rule="evenodd" stroke="none"/>
      <path d="M24.8 13.65 L23.75 14.85 22.3 15.9 22.1 15.8 22.05 15.65 23.45 14.1 Q24.8 12.7 24.8 13.65" fill="#80bf40" fill-rule="evenodd" stroke="none"/>
      <path d="M27.0 14.0 L25.6 17.3 Q25.35 17.3 25.25 16.95 L25.25 16.55 Q25.25 15.85 26.15 14.25 27.0 12.6 27.0 14.0" fill="#80bf40" fill-rule="evenodd" stroke="none"/>
      <path d="M29.5 17.8 Q28.95 17.8 28.6 15.1 28.6 13.85 29.25 15.1 29.9 16.35 29.9 17.45 L29.8 17.65 29.5 17.8" fill="#80bf40" fill-rule="evenodd" stroke="none"/>
      <path d="M6.25 30.35 L6.05 30.85 5.55 31.1 4.05 30.75 Q3.05 30.35 3.05 30.05 3.05 29.25 4.65 29.45 6.25 29.65 6.25 30.35" fill="#f5b016" fill-rule="evenodd" stroke="none"/>
      <path d="M25.4 37.35 Q26.1 36.7 26.1 38.25 L26.5 39.55 26.8 40.95 Q26.8 41.6 26.3 41.6 L25.55 41.05 24.95 40.25 24.65 39.45 24.65 38.75 Q24.65 38.0 25.4 37.35" fill="#f5b016" fill-rule="evenodd" stroke="none"/>
    </g>
    <g id="sprite0" transform="matrix(1.0, 0.0, 0.0, 1.0, 0.0, -1.4)">
      <use height="46.5" transform="matrix(1.0, 0.0, 0.0, 1.0, 0.0, 1.4)" width="37.4" xlink:href="#shape1"/>
    </g>
    <g id="shape1" transform="matrix(1.0, 0.0, 0.0, 1.0, 0.0, -1.4)">
      <path d="M2.1 34.35 Q4.15 34.7 4.15 35.7 L3.95 36.25 Q3.7 36.6 3.25 36.6 1.6 36.6 0.7 36.05 0.0 35.6 0.0 35.15 0.0 34.0 2.1 34.35" fill="#f3f1e9" fill-rule="evenodd" stroke="none"/>
      <path d="M28.1 43.35 L29.5 45.55 30.5 47.05 Q30.5 47.9 29.5 47.9 28.05 47.9 27.05 45.5 L26.3 43.0 26.35 42.05 Q26.55 41.55 27.35 41.55 28.05 41.8 28.1 42.45 L28.1 43.35" fill="#f3f1e9" fill-rule="evenodd" stroke="none"/>
      <path d="M6.45 5.2 L5.3 6.2 4.85 6.7 Q4.75 6.5 4.2 6.4 3.25 6.2 3.85 4.95 4.4 3.6 4.7 3.35 6.1 1.85 8.6 1.5 11.0 1.15 11.0 2.25 11.0 2.85 9.9 4.1 8.55 5.55 7.1 5.55 L6.65 5.4 6.45 5.2" fill="#f3f1e9" fill-rule="evenodd" stroke="none"/>
      <path d="M18.4 31.35 L17.1 30.2 Q15.9 29.05 14.7 29.05 11.0 29.05 9.9 30.75 L8.8 32.45 Q8.3 32.45 8.15 31.95 L8.1 31.4 Q8.1 30.6 9.0 29.55 10.1 28.35 11.85 27.85 14.75 26.95 17.2 28.45 19.15 29.7 19.15 30.55 19.15 31.35 18.4 31.35" fill="#f3f1e9" fill-rule="evenodd" stroke="none"/>
      <path d="M14.8 21.15 Q14.8 19.7 17.45 19.2 20.1 18.65 20.1 20.1 20.1 20.85 19.35 20.85 L18.8 20.7 18.1 20.55 Q16.9 20.55 16.45 21.3 16.0 22.05 15.55 22.05 L14.85 21.6 14.8 21.15" fill="#f3f1e9" fill-rule="evenodd" stroke="none"/>
      <path d="M26.0 23.15 Q26.0 23.9 25.3 23.9 L24.55 23.5 23.75 23.1 Q23.0 23.1 22.35 24.35 21.8 25.35 21.8 25.7 L21.6 26.15 21.05 26.4 Q20.35 26.4 20.35 25.5 20.35 22.85 23.2 22.0 26.0 21.15 26.0 23.15" fill="#f3f1e9" fill-rule="evenodd" stroke="none"/>
      <path d="M31.05 24.65 L30.25 24.4 Q29.15 24.4 29.3 25.5 29.5 26.55 28.75 26.55 28.1 26.55 27.95 25.85 L27.95 25.15 Q27.95 23.1 29.9 23.0 31.85 22.95 31.85 23.95 L31.65 24.4 31.05 24.65" fill="#f3f1e9" fill-rule="evenodd" stroke="none"/>
      <path d="M36.7 22.3 Q37.25 22.3 37.4 23.0 L36.7 23.8 Q35.95 24.25 35.95 24.65 35.95 25.05 36.3 25.7 L36.65 26.55 Q36.65 27.35 35.9 27.35 35.1 27.35 34.75 25.9 L34.55 24.45 Q34.55 23.95 35.05 23.25 35.7 22.3 36.7 22.3" fill="#f3f1e9" fill-rule="evenodd" stroke="none"/>
      <path d="M23.7 32.35 Q25.05 31.6 27.7 32.4 30.3 33.2 30.3 34.3 L30.1 34.75 29.55 35.05 27.3 34.1 26.35 33.6 25.1 33.3 Q24.0 33.3 23.45 35.05 23.15 35.95 23.1 36.8 L22.9 37.3 22.3 37.55 Q21.65 37.55 21.55 37.0 L21.55 36.45 Q21.55 35.8 22.4 34.2 23.2 32.6 23.7 32.35" fill="#f3f1e9" fill-rule="evenodd" stroke="none"/>
      <path d="M13.25 17.9 Q13.25 18.1 11.65 19.0 9.6 20.1 8.2 21.95 L7.1 24.2 Q6.3 25.95 6.0 25.95 5.55 25.95 5.35 25.6 L5.25 25.2 Q5.25 24.6 6.35 22.6 L7.55 20.55 Q8.7 18.7 10.95 17.6 13.25 16.55 13.25 17.9" fill="#f3f1e9" fill-rule="evenodd" stroke="none"/>
    </g>
    <g id="sprite1" transform="matrix(1.0, 0.0, 0.0, 1.0, 0.0, 0.0)">
      <use height="20.95" transform="matrix(1.0, 0.0, 0.0, 1.0, 0.0, 0.0)" width="24.45" xlink:href="#shape2"/>
    </g>
    <g id="shape2" transform="matrix(1.0, 0.0, 0.0, 1.0, 0.0, 0.0)">
      <path d="M14.85 11.4 Q15.8 11.6 16.25 12.45 16.85 13.3 16.6 14.35 16.4 15.3 15.55 15.9 14.65 16.4 13.65 16.2 12.65 15.9 12.1 15.1 11.6 14.2 11.8 13.2 12.1 12.2 12.9 11.65 13.8 11.15 14.85 11.4" fill="#ffffff" fill-opacity="0.5882353" fill-rule="evenodd" stroke="none"/>
      <path d="M14.85 11.4 Q13.8 11.15 12.9 11.65 12.1 12.2 11.8 13.2 11.6 14.2 12.1 15.1 12.65 15.9 13.65 16.2 14.65 16.4 15.55 15.9 16.4 15.3 16.6 14.35 16.85 13.3 16.25 12.45 15.8 11.6 14.85 11.4 M18.2 11.35 L20.15 11.25 18.75 12.55 Q19.05 13.8 18.8 15.05 18.5 16.35 17.65 17.3 L19.1 20.95 16.55 18.25 Q14.8 19.3 12.8 18.85 10.8 18.35 9.75 16.65 9.05 15.5 8.95 14.3 7.75 12.35 4.85 11.5 8.3 12.45 9.7 11.4 10.3 10.4 11.35 9.75 13.1 8.75 15.1 9.15 16.95 9.5 18.1 11.15 L18.2 11.35" fill="#ffffff" fill-opacity="0.1764706" fill-rule="evenodd" stroke="none"/>
      <path d="M15.4 13.55 L18.1 17.55 13.35 14.65 7.05 18.5 12.75 13.55 0.0 0.0 14.25 12.25 24.45 5.95 15.4 13.55" fill="#ffffff" fill-opacity="0.5882353" fill-rule="evenodd" stroke="none"/>
    </g>
  </defs>
</svg>
