<?xml version="1.0" encoding="UTF-8" standalone="no"?>
<svg xmlns:xlink="http://www.w3.org/1999/xlink" height="520.0px" width="520.0px" xmlns="http://www.w3.org/2000/svg">
  <g transform="matrix(10.0, 0.0, 0.0, 10.0, 0.0, 0.0)">
    <use height="52.0" transform="matrix(1.0, 0.0, 0.0, 1.0, 0.0, 0.0)" width="52.0" xlink:href="#shape0"/>
    <use height="113.2" transform="matrix(0.3453, 0.0, 0.0, 0.3453, 13.0118, 9.8076)" width="71.6" xlink:href="#sprite0"/>
    <use height="33.25" transform="matrix(1.0, 0.0, 0.0, 1.0, 12.2, 8.4)" width="28.2" xlink:href="#shape2"/>
  </g>
  <defs>
    <g id="shape0" transform="matrix(1.0, 0.0, 0.0, 1.0, 0.0, 0.0)">
      <path d="M52.0 0.0 L52.0 52.0 0.0 52.0 0.0 0.0 52.0 0.0" fill="#33cc33" fill-opacity="0.0" fill-rule="evenodd" stroke="none"/>
      <path d="M31.4 5.75 L35.7 11.1 35.15 12.0 39.2 16.45 42.1 22.5 39.4 24.3 33.4 33.55 33.4 39.9 35.65 40.8 35.95 45.75 34.95 47.7 30.95 50.35 27.8 50.35 20.8 47.65 20.25 46.55 18.5 46.7 18.45 46.7 13.3 44.7 12.35 43.45 12.35 38.3 13.05 36.35 13.8 35.9 13.6 35.4 16.8 28.55 10.7 13.05 13.95 7.9 17.85 3.2 19.45 2.15 22.05 4.85 22.9 4.1 24.25 3.2 24.45 3.1 26.15 1.95 30.2 6.55 31.4 5.75 Z" fill="none" stroke="#000000" stroke-linecap="round" stroke-linejoin="round" stroke-opacity="0.3019608" stroke-width="1.0"/>
      <path d="M30.1 10.45 L30.6 10.85 30.95 11.35 32.5 13.2 31.9 14.05 31.9 14.1 30.0 16.9 31.95 15.25 35.2 17.7 34.4 16.85 35.9 17.75 37.8 17.35 35.95 18.5 34.45 20.85 34.35 20.95 34.05 21.35 34.4 21.05 35.75 19.6 35.8 19.65 37.05 20.75 37.6 21.9 37.65 22.0 37.8 22.25 37.8 22.3 37.65 24.0 37.65 24.05 34.15 26.7 33.0 23.8 32.8 23.4 32.75 23.3 34.05 21.45 32.75 23.3 32.75 23.35 32.25 24.05 32.2 24.1 28.1 20.65 27.8 20.35 29.55 17.7 30.0 16.9 29.55 17.7 28.55 12.2 28.75 11.8 22.05 4.8 22.9 4.05 25.25 6.75 27.05 8.75 26.75 9.05 27.9 8.6 30.1 10.45 M15.3 31.75 L16.8 28.5 11.9 16.0 11.5 13.4 12.65 9.95 13.95 7.9 17.0 6.2 20.6 8.8 23.0 11.3 23.15 11.5 24.65 13.85 24.65 15.65 24.5 16.0 23.5 18.0 23.2 18.45 20.9 16.4 18.6 14.25 19.7 16.3 19.65 16.35 23.65 25.75 23.2 30.5 23.15 30.6 23.0 31.05 23.15 30.85 23.25 30.7 23.3 31.1 23.4 30.5 27.25 24.9 27.25 23.3 30.45 25.15 32.85 28.8 35.35 27.6 33.85 29.9 29.75 33.9 29.6 41.65 29.5 42.95 15.75 37.35 15.3 35.55 15.3 31.75 M34.05 21.45 L34.05 21.35 34.05 21.4 34.05 21.45 M21.5 19.55 L21.55 19.55 21.55 19.6 21.5 19.55 M16.15 16.35 L18.6 14.25 16.15 16.35 M15.7 11.9 L18.6 14.25 15.7 11.9" fill="#c16100" fill-rule="evenodd" stroke="none"/>
      <path d="M17.0 4.2 L17.85 3.15 17.1 4.25 17.0 4.2 M31.95 14.1 L31.9 14.1 31.9 14.05 31.95 14.1 M34.35 20.95 L34.4 21.05 34.35 20.95 M23.45 30.1 L23.4 30.5 23.3 31.1 23.25 30.7 23.25 30.6 23.45 30.1" fill="#ffd97a" fill-rule="evenodd" stroke="none"/>
      <path d="M30.2 10.35 L30.1 10.45 27.9 8.6 26.75 9.05 27.05 8.75 28.15 7.85 29.35 7.05 28.9 8.05 30.2 10.35 M24.25 3.2 L23.95 4.55 25.25 6.75 22.9 4.05 24.25 3.2 M40.45 23.6 L39.35 24.3 Q37.95 25.0 36.55 25.75 L34.25 26.9 34.15 26.7 37.65 24.05 37.65 24.0 37.8 22.3 37.95 22.6 38.9 23.65 40.45 23.6 M13.8 35.9 L13.6 35.4 15.3 31.75 15.3 35.55 15.75 37.35 14.25 36.7 13.85 35.85 13.8 35.9 M11.9 16.0 L10.7 13.05 12.65 9.95 11.5 13.4 11.9 16.0 M13.95 7.9 L17.0 4.2 17.1 4.25 19.8 7.95 19.9 8.1 20.6 8.8 17.0 6.2 13.95 7.9 M31.9 14.1 L31.95 14.1 34.4 16.85 35.2 17.7 31.95 15.25 30.0 16.9 31.9 14.1 M34.35 20.95 L34.45 20.85 35.95 18.5 36.75 20.15 36.8 20.15 37.05 20.75 35.8 19.65 35.75 19.6 34.4 21.05 34.35 20.95 M23.15 11.45 L25.2 12.8 27.1 12.85 25.5 13.9 24.65 15.65 24.65 13.85 23.15 11.5 23.15 11.45 M21.65 19.85 L24.65 25.25 23.7 28.75 23.55 29.2 23.2 30.5 23.65 25.75 19.65 16.35 21.65 19.85 M30.2 43.2 L29.5 42.95 29.6 41.65 29.75 33.9 33.85 29.9 30.2 35.65 30.2 43.2" fill="#febb56" fill-rule="evenodd" stroke="none"/>
      <path d="M30.3 10.55 L30.2 10.35 28.9 8.05 29.35 7.05 30.2 6.5 29.35 7.05 28.15 7.85 27.05 8.75 25.25 6.75 23.95 4.55 24.25 3.2 24.45 3.1 26.15 1.95 30.2 6.5 30.2 6.55 31.4 5.7 35.75 11.1 32.5 13.2 30.95 11.35 30.6 10.85 30.3 10.55 M37.8 14.9 L39.2 16.4 42.1 22.5 Q41.5 22.95 40.85 23.35 L40.45 23.6 38.9 23.65 37.95 22.6 37.8 22.3 37.8 22.25 37.65 22.0 37.6 21.9 37.05 20.75 36.8 20.15 36.75 20.15 35.95 18.5 37.8 17.35 35.9 17.75 34.4 16.85 31.95 14.1 37.8 14.9 M33.4 33.55 L33.4 39.9 33.4 41.15 33.25 41.35 30.4 43.15 30.25 43.25 30.2 43.2 30.2 35.65 33.4 33.55 M17.85 3.15 L19.45 2.15 22.05 4.8 28.75 11.8 27.1 12.85 25.2 12.8 23.15 11.45 23.0 11.3 20.6 8.8 19.9 8.1 19.8 7.95 17.1 4.25 17.85 3.15 M39.2 16.4 L37.8 17.35 39.2 16.4 M22.95 19.25 L26.2 23.85 24.65 25.25 21.65 19.85 21.55 19.6 21.55 19.55 22.95 19.25" fill="#8f0101" fill-rule="evenodd" stroke="none"/>
      <path d="M30.2 10.35 L30.3 10.55 30.6 10.85 30.1 10.45 30.2 10.35 M34.4 21.05 L34.05 21.35 34.35 20.95 34.4 21.05 M23.0 11.3 L23.15 11.45 23.15 11.5 23.0 11.3" fill="#ffffff" fill-rule="evenodd" stroke="none"/>
      <path d="M35.15 11.95 L37.8 14.9 31.95 14.1 31.9 14.05 35.15 11.95" fill="#760101" fill-rule="evenodd" stroke="none"/>
      <path d="M31.9 14.05 L31.95 14.1 31.9 14.05" fill="#a85400" fill-rule="evenodd" stroke="none"/>
      <path d="M32.8 23.4 L33.0 23.8 32.25 24.05 32.75 23.35 32.8 23.4 M28.1 20.65 L27.3 21.1 27.8 20.35 28.1 20.65 M23.7 18.1 L23.2 18.45 23.5 18.0 24.5 16.0 24.65 15.65 25.5 13.9 27.1 12.85 28.75 11.8 28.55 12.2 26.75 15.85 23.7 18.1 M23.15 30.6 L23.25 30.6 23.15 30.85 23.0 31.05 23.15 30.6" fill="#963807" fill-rule="evenodd" stroke="none"/>
      <path d="M35.75 11.1 L35.15 11.95 31.9 14.05 32.5 13.2 35.75 11.1 M39.35 24.3 L33.4 33.55 30.2 35.65 33.85 29.9 35.35 27.6 35.45 27.45 36.55 25.75 Q37.95 25.0 39.35 24.3 M20.9 16.4 L22.95 19.25 21.55 19.55 21.5 19.55 19.7 16.3 18.6 14.25 20.9 16.4 M26.2 23.85 L23.45 30.1 23.25 30.6 23.15 30.6 23.2 30.5 23.55 29.2 23.7 28.75 24.65 25.25 26.2 23.85" fill="#541e00" fill-rule="evenodd" stroke="none"/>
      <path d="M33.0 23.8 L34.15 26.7 34.25 26.9 36.55 25.75 35.45 27.45 35.35 27.6 32.85 28.8 30.45 25.15 27.25 23.3 27.25 24.9 23.4 30.5 23.45 30.1 26.2 23.85 22.95 19.25 20.9 16.4 23.2 18.45 23.7 18.1 27.25 21.1 23.7 18.1 26.75 15.85 28.55 12.2 29.55 17.7 27.8 20.35 27.3 21.1 28.1 20.65 32.2 24.1 32.25 24.05 33.0 23.8 M27.25 21.1 L27.3 21.1 27.25 21.1" fill="#a95401" fill-rule="evenodd" stroke="none"/>
      <path d="M34.05 21.35 L34.05 21.45 34.05 21.4 34.05 21.35 M32.75 23.3 L32.8 23.4 32.75 23.35 32.75 23.3 M19.7 16.3 L21.5 19.55 21.55 19.6 21.65 19.85 19.65 16.35 19.7 16.3" fill="#ffa004" fill-rule="evenodd" stroke="none"/>
      <path d="M23.25 30.7 L23.15 30.85 23.25 30.6 23.25 30.7" fill="#eb8204" fill-rule="evenodd" stroke="none"/>
      <path d="M33.4 39.9 L35.65 40.75 32.95 42.6 30.4 43.15 33.25 41.35 33.4 41.25 33.4 41.15 33.4 39.9 M30.95 50.35 L27.85 50.35 20.8 47.6 28.7 49.8 30.05 47.75 30.95 50.35 M17.15 46.2 L13.3 44.7 12.35 43.4 12.35 40.1 13.0 43.1 17.15 46.2" fill="#648c26" fill-rule="evenodd" stroke="none"/>
      <path d="M35.65 40.75 L35.95 45.75 34.95 47.7 30.95 50.35 30.05 47.75 30.25 44.4 30.8 44.05 32.95 42.6 35.65 40.75 M20.3 46.55 L18.5 46.7 18.45 46.7 19.8 45.5 20.3 46.55" fill="#3e5717" fill-rule="evenodd" stroke="none"/>
      <path d="M20.8 47.6 L20.3 46.55 19.8 45.5 18.45 46.7 18.5 46.7 18.45 46.7 17.15 46.2 13.0 43.1 12.35 40.1 12.35 38.45 14.2 38.45 21.75 40.8 22.05 40.9 28.55 43.7 30.25 44.4 30.05 47.75 28.7 49.8 20.8 47.6 M13.85 35.85 L13.8 35.9 13.85 35.85" fill="#7bad30" fill-rule="evenodd" stroke="none"/>
      <path d="M13.0 36.5 L13.05 36.35 13.8 35.9 13.85 35.85 14.25 36.7 15.75 37.35 29.5 42.95 30.2 43.2 30.25 43.25 30.4 43.15 32.95 42.6 30.8 44.05 28.55 43.7 22.05 40.9 21.75 40.75 22.05 40.9 21.75 40.8 21.75 40.75 13.0 36.5" fill="#8ec837" fill-rule="evenodd" stroke="none"/>
      <path d="M12.35 38.45 L12.35 38.25 13.0 36.5 21.75 40.75 21.75 40.8 14.2 38.45 12.35 38.45 M28.55 43.7 L30.8 44.05 30.25 44.4 28.55 43.7" fill="#adfa45" fill-rule="evenodd" stroke="none"/>
      <path d="M30.6 10.85 L30.3 10.55 M29.35 7.05 L30.2 6.5 26.15 1.95 24.45 3.1 M25.25 6.75 L27.05 8.75 28.15 7.85 29.35 7.05 M31.4 5.7 L30.2 6.5 30.2 6.55 31.4 5.7 35.75 11.1 35.15 11.95 37.8 14.9 39.2 16.4 42.1 22.5 Q41.5 22.95 40.85 23.35 M40.45 23.6 L39.35 24.3 33.4 33.55 33.4 39.9 35.65 40.75 35.95 45.75 34.95 47.7 30.95 50.35 27.85 50.35 20.8 47.6 20.3 46.55 18.5 46.7 18.45 46.7 17.15 46.2 13.3 44.7 12.35 43.4 12.35 40.1 12.35 38.45 12.35 38.25 13.0 36.5 13.05 36.35 13.8 35.9 13.6 35.4 15.3 31.75 16.8 28.5 11.9 16.0 10.7 13.05 12.65 9.95 13.95 7.9 17.0 4.2 17.85 3.15 19.45 2.15 22.05 4.8 22.9 4.05 24.25 3.2 M37.8 17.35 L39.2 16.4 M31.9 14.1 L30.0 16.9 M35.2 17.7 L34.4 16.85 31.95 14.1 31.9 14.05 31.9 14.1 M31.9 14.05 L35.15 11.95 M29.55 17.7 L30.0 16.9 M31.9 14.05 L32.5 13.2 30.95 11.35 M35.95 18.5 L34.45 20.85 34.35 20.95 34.05 21.35 34.05 21.45 32.75 23.3 32.75 23.35 32.25 24.05 M37.05 20.75 L36.8 20.15 36.75 20.15 35.95 18.5 37.8 17.35 M32.8 23.4 L33.0 23.8 M37.8 22.25 L37.65 22.0 37.6 21.9 37.05 20.75 M34.05 21.4 L34.05 21.35 M27.3 21.1 L27.25 21.1 M20.9 16.4 L22.95 19.25 26.2 23.85 23.45 30.1 M35.45 27.45 L36.55 25.75 34.25 26.9 34.15 26.7 M36.55 25.75 Q37.95 25.0 39.35 24.3 M19.9 8.1 L20.6 8.8 23.0 11.3 23.15 11.45 M27.1 12.85 L28.75 11.8 22.05 4.8 M27.05 8.75 L26.75 9.05 M28.75 11.8 L28.55 12.2 M29.55 17.7 L27.8 20.35 28.1 20.65 M24.65 15.65 L25.5 13.9 27.1 12.85 M24.5 16.0 L23.5 18.0 23.2 18.45 M20.9 16.4 L18.6 14.25 19.7 16.3 21.5 19.55 21.55 19.6 21.65 19.85 24.65 25.25 26.2 23.85 M18.6 14.25 L16.15 16.35 M27.8 20.35 L27.3 21.1 M23.55 29.2 L23.2 30.5 23.15 30.6 M23.25 30.6 L23.45 30.1 M23.15 30.85 L23.0 31.05 23.15 30.6 M23.25 30.6 L23.15 30.85 M22.05 40.9 L21.75 40.75 M30.4 43.15 L30.25 43.25 30.2 43.2 29.5 42.95 15.75 37.35 14.25 36.7 13.85 35.85 M13.8 35.9 L13.85 35.85 M19.8 45.5 L20.3 46.55 M35.35 27.6 L33.85 29.9 30.2 35.65 M33.4 41.25 L33.25 41.35 30.4 43.15 M33.4 41.15 L33.25 41.35 M30.2 43.2 L30.2 35.65 M24.65 25.25 L23.7 28.75" fill="none" stroke="#000000" stroke-linecap="round" stroke-linejoin="round" stroke-opacity="0.3019608" stroke-width="0.05"/>
      <path d="M33.0 23.8 L34.15 26.7 M32.25 24.05 L32.2 24.1 28.1 20.65 M27.25 21.1 L23.7 18.1 23.2 18.45 20.9 16.4 M28.55 12.2 L26.75 15.85 23.7 18.1 M18.6 14.25 L15.7 11.9" fill="none" stroke="#000000" stroke-linecap="round" stroke-linejoin="round" stroke-opacity="0.5019608" stroke-width="0.05"/>
      <path d="M22.05 40.9 L28.55 43.7 M30.8 44.05 L32.95 42.6 35.65 40.75 M30.05 47.75 L30.25 44.4 28.55 43.7 M30.8 44.05 L30.25 44.4" fill="none" stroke="#000000" stroke-linecap="round" stroke-linejoin="round" stroke-opacity="0.15294118" stroke-width="0.05"/>
    </g>
    <g id="sprite0" transform="matrix(1.0, 0.0, 0.0, 1.0, 36.6, 45.3)">
      <use height="113.2" transform="matrix(1.0, 0.0, 0.0, 1.0, -36.6, -45.3)" width="71.6" xlink:href="#shape1"/>
    </g>
    <g id="shape1" transform="matrix(1.0, 0.0, 0.0, 1.0, 36.6, 45.3)">
      <path d="M14.35 -42.3 L19.8 -35.55 18.1 -33.0 25.35 -25.0 28.7 -23.05 14.3 -6.2 14.25 -6.15 -22.4 36.8 -25.85 37.25 -25.95 37.2 -18.9 61.3 -21.4 61.6 -28.1 58.65 -36.15 32.2 -36.6 31.95 -33.55 31.95 -34.95 28.7 -25.65 8.85 -28.75 1.0 -12.55 -18.0 -2.9 -0.65 -7.6 16.2 -7.3 15.6 -7.0 15.15 -6.85 16.35 -6.45 14.5 -6.35 13.45 1.65 -4.7 -9.95 -21.0 -2.9 -29.3 -2.9 -28.5 -6.25 -21.7 -7.1 -20.3 3.15 -27.85 8.95 -39.6 7.3 -41.3 10.7 -45.3 14.35 -42.3 M18.55 -4.25 L18.95 -3.95 19.05 -4.05 21.2 -4.8 20.65 -6.0 20.55 -6.1 20.55 -6.2 22.0 -8.3 30.65 -18.45 32.1 -15.35 32.2 -15.35 34.65 -10.35 34.75 -10.05 35.0 -9.5 26.05 0.95 26.0 1.0 -9.35 42.5 -12.45 43.65 -4.8 67.9 -12.15 65.0 -19.65 40.55 18.55 -4.25" fill="#ffd97a" fill-rule="evenodd" stroke="none"/>
    </g>
    <g id="shape2" transform="matrix(1.0, 0.0, 0.0, 1.0, -12.2, -8.4)">
      <path d="M25.45 14.3 L14.3 16.55 25.05 13.1 23.4 8.4 25.7 12.65 29.05 12.6 26.5 13.95 29.1 21.25 25.45 14.3" fill="#fcf3d8" fill-opacity="0.7921569" fill-rule="evenodd" stroke="none"/>
      <path d="M22.8 13.3 Q22.35 12.3 20.3 11.6 L23.25 11.4 Q23.65 10.7 24.35 10.35 L26.55 10.2 Q27.8 10.6 28.4 11.75 L30.6 10.95 28.7 12.6 Q28.95 13.35 28.75 14.25 L28.05 15.6 28.35 16.85 27.3 16.1 27.25 16.2 25.05 16.35 Q23.85 15.9 23.25 14.75 22.85 14.0 22.8 13.3 M27.35 14.0 Q27.55 13.25 27.25 12.75 26.9 12.1 26.3 11.95 L25.2 12.0 Q24.6 12.35 24.45 12.95 24.35 13.55 24.65 14.2 24.95 14.85 25.55 15.05 L26.65 14.85 Q27.25 14.5 27.35 14.0" fill="#fcf3d8" fill-opacity="0.3019608" fill-rule="evenodd" stroke="none"/>
      <path d="M27.35 14.0 Q27.25 14.5 26.65 14.85 L25.55 15.05 Q24.95 14.85 24.65 14.2 24.35 13.55 24.45 12.95 24.6 12.35 25.2 12.0 L26.3 11.95 Q26.9 12.1 27.25 12.75 27.55 13.25 27.35 14.0" fill="#fcf3d8" fill-opacity="0.84313726" fill-rule="evenodd" stroke="none"/>
      <path d="M15.6 37.75 L22.95 36.3 15.85 38.55 16.95 41.65 15.45 38.85 13.25 38.85 14.9 38.0 13.2 33.2 15.6 37.75" fill="#fcf3d8" fill-opacity="0.7921569" fill-rule="evenodd" stroke="none"/>
      <path d="M17.35 38.45 Q17.65 39.1 19.0 39.5 L17.05 39.65 16.35 40.35 14.85 40.5 Q14.0 40.2 13.65 39.45 L12.2 39.95 13.45 38.9 13.4 37.8 13.9 36.9 13.7 36.1 14.4 36.55 14.45 36.5 15.85 36.45 Q16.65 36.7 17.05 37.5 L17.35 38.45 M14.3 38.0 Q14.25 38.5 14.45 38.8 L15.0 39.3 Q15.4 39.5 15.8 39.3 L16.25 38.7 16.15 37.8 Q15.95 37.4 15.55 37.3 L14.8 37.4 Q14.4 37.6 14.3 38.0" fill="#fcf3d8" fill-opacity="0.3019608" fill-rule="evenodd" stroke="none"/>
      <path d="M14.3 38.0 Q14.4 37.6 14.8 37.4 L15.55 37.3 Q15.95 37.4 16.15 37.8 L16.25 38.7 15.8 39.3 Q15.4 39.5 15.0 39.3 L14.45 38.8 Q14.25 38.5 14.3 38.0" fill="#fcf3d8" fill-opacity="0.84313726" fill-rule="evenodd" stroke="none"/>
      <path d="M38.0 24.55 L40.4 20.95 38.45 24.75 40.15 25.6 38.4 25.0 37.5 25.95 37.85 24.9 35.2 23.65 38.0 24.55" fill="#fcf3d8" fill-opacity="0.7921569" fill-rule="evenodd" stroke="none"/>
      <path d="M39.0 24.1 L40.15 23.9 Q39.5 24.25 39.4 24.7 L39.35 25.3 38.8 25.95 37.9 26.0 37.5 26.8 37.6 25.85 37.15 25.45 37.0 24.9 36.55 24.65 37.05 24.55 37.05 24.5 37.55 23.9 38.5 23.85 Q38.8 23.9 39.0 24.1 M37.6 25.15 L37.95 25.45 38.45 25.4 38.7 25.1 38.6 24.65 38.3 24.35 37.8 24.4 37.5 24.7 37.6 25.15" fill="#fcf3d8" fill-opacity="0.3019608" fill-rule="evenodd" stroke="none"/>
      <path d="M37.6 25.15 L37.5 24.7 37.8 24.4 38.3 24.35 38.6 24.65 38.7 25.1 38.45 25.4 37.95 25.45 37.6 25.15" fill="#fcf3d8" fill-opacity="0.84313726" fill-rule="evenodd" stroke="none"/>
    </g>
  </defs>
</svg>
