<?xml version="1.0" encoding="UTF-8" standalone="no"?>
<svg xmlns:xlink="http://www.w3.org/1999/xlink" height="520.0px" width="520.0px" xmlns="http://www.w3.org/2000/svg">
  <g transform="matrix(10.0, 0.0, 0.0, 10.0, 0.0, 0.0)">
    <use height="52.0" transform="matrix(1.0, 0.0, 0.0, 1.0, 0.0, 0.0)" width="52.0" xlink:href="#shape0"/>
    <use height="136.85" transform="matrix(-0.019, 0.0583, -0.113, -0.0842, 45.9403, 19.2344)" width="148.25" xlink:href="#sprite0"/>
    <use height="20.95" transform="matrix(-0.3554, 9.0E-4, -0.0224, 0.5424, 40.55, 13.7)" width="24.45" xlink:href="#sprite1"/>
    <use height="136.85" transform="matrix(-0.0118, 0.0364, -0.0705, -0.0525, 23.1034, 37.4382)" width="148.25" xlink:href="#sprite0"/>
    <use height="136.85" transform="matrix(5.0E-4, 0.1248, -0.1194, -1.0E-4, 35.0227, 15.7297)" width="148.25" xlink:href="#sprite0"/>
    <use height="136.85" transform="matrix(0.0096, 0.0452, -0.0459, 0.0134, 20.3299, 10.9115)" width="148.25" xlink:href="#sprite0"/>
    <use height="20.95" transform="matrix(-0.6818, 0.0016, -0.0429, 1.0404, 25.35, 15.65)" width="24.45" xlink:href="#sprite1"/>
    <use height="20.95" transform="matrix(-0.2446, 6.0E-4, -0.0154, 0.3733, 35.1, 31.7)" width="24.45" xlink:href="#sprite1"/>
  </g>
  <defs>
    <g id="shape0" transform="matrix(1.0, 0.0, 0.0, 1.0, 0.0, 0.0)">
      <path d="M52.0 0.0 L52.0 52.0 0.0 52.0 0.0 0.0 52.0 0.0" fill="#795fa9" fill-opacity="0.0" fill-rule="evenodd" stroke="none"/>
      <path d="M45.35 25.3 L45.3 26.65 42.05 23.3 42.05 23.2 45.35 25.3 M36.1 40.95 L36.05 40.95 34.35 41.5 31.8 43.25 32.95 41.65 33.95 41.0 33.25 39.6 36.1 40.95 M18.55 11.4 Q19.45 10.85 20.3 10.45 L20.85 10.25 23.65 11.25 23.9 11.2 23.8 10.55 24.05 10.1 26.25 8.95 26.85 8.9 28.65 9.0 28.5 9.55 27.95 11.6 28.1 12.35 28.5 12.4 28.6 12.4 29.15 12.4 Q29.7 12.85 29.75 13.95 L29.75 15.0 27.6 14.55 27.5 14.55 Q24.05 14.25 20.95 16.1 L19.6 17.05 19.25 17.35 18.8 15.5 18.95 15.45 19.05 15.3 20.15 14.55 19.9 13.8 19.55 13.15 19.5 13.1 19.2 12.55 18.55 11.4 M16.5 29.55 Q16.85 31.4 18.05 33.1 L18.1 33.1 19.05 34.3 20.4 35.45 19.9 35.2 18.95 34.55 17.8 33.4 17.1 32.6 Q16.0 31.05 15.6 29.25 L15.45 28.7 16.5 29.55 M33.35 17.25 L32.95 16.9 32.45 16.45 31.65 15.1 32.3 14.15 32.65 13.75 32.95 13.5 Q35.0 11.8 37.25 14.5 38.25 15.65 39.35 17.75 L37.9 18.15 37.6 18.7 37.6 18.75 38.25 20.6 38.6 22.95 38.6 23.15 38.7 23.15 40.5 22.9 40.55 22.9 40.7 28.2 40.05 30.15 38.05 28.25 39.2 32.05 37.1 35.1 34.85 33.2 34.25 33.4 33.7 33.9 33.7 31.35 34.95 30.2 35.35 28.6 35.8 25.55 35.95 23.4 Q35.85 21.55 35.15 19.9 L34.2 18.3 33.35 17.25 M29.25 34.9 L29.75 34.6 30.15 34.4 31.2 33.55 31.7 33.15 31.9 35.55 31.8 35.65 31.05 36.4 31.65 37.45 32.5 39.05 Q30.1 40.65 27.45 41.3 26.45 40.0 26.05 38.1 L25.95 37.6 25.85 36.05 26.25 35.95 27.8 38.15 27.95 36.1 28.0 35.45 29.25 34.9" fill="#eca602" fill-rule="evenodd" stroke="none"/>
      <path d="M40.95 17.45 L41.0 17.5 40.95 17.5 40.95 17.45" fill="#780502" fill-rule="evenodd" stroke="none"/>
      <path d="M13.85 15.75 L14.15 15.25 14.35 14.9 17.05 17.2 13.85 15.75 M22.0 37.9 L22.5 41.7 22.15 41.65 21.1 41.55 22.0 37.9" fill="#57390f" fill-rule="evenodd" stroke="none"/>
      <path d="M24.95 43.6 L24.9 43.65 24.95 43.6" fill="#430101" fill-rule="evenodd" stroke="none"/>
      <path d="M13.5 16.3 L13.85 15.75 17.05 17.2 17.15 17.15 17.4 16.85 18.8 15.5 19.25 17.35 18.2 18.3 Q15.85 20.8 15.1 24.25 L14.5 19.9 14.35 19.1 Q14.0 17.35 13.5 16.3 M19.1 19.75 L18.2 21.0 Q17.05 22.9 16.55 25.2 L16.5 25.6 16.35 26.9 16.4 28.9 16.5 29.55 15.45 28.7 Q15.25 27.25 15.45 25.7 L15.6 24.75 Q16.25 21.35 18.5 18.9 L18.95 18.85 19.1 19.15 19.1 19.75 M20.4 35.45 L21.75 35.9 22.3 36.0 22.45 36.0 23.3 36.1 23.4 36.15 25.85 36.05 25.95 37.6 26.05 38.1 Q26.45 40.0 27.45 41.3 L22.5 41.7 22.0 37.9 21.65 37.85 20.05 37.3 19.35 37.0 18.15 36.3 17.95 36.15 17.25 36.45 17.0 37.05 16.8 37.45 17.05 35.0 17.0 34.55 17.0 34.15 16.8 32.95 16.7 32.45 17.7 33.6 18.85 34.55 19.9 35.2 20.4 35.45" fill="#b17c01" fill-rule="evenodd" stroke="none"/>
      <path d="M15.75 39.6 L14.15 38.3 12.05 35.95 Q11.0 34.4 10.35 32.75 L10.05 31.9 11.0 31.5 11.4 33.1 Q12.7 37.6 16.25 35.5 L17.05 35.0 16.8 37.45 16.05 39.0 15.75 39.6 M9.5 26.15 Q9.5 25.2 9.8 23.95 10.05 22.65 10.45 21.45 L12.8 17.55 Q10.15 22.5 10.3 26.05 L9.5 26.15 M34.75 10.95 L34.8 10.95 34.85 10.95 35.05 11.1 36.0 11.75 38.65 14.6 38.75 14.7 40.0 16.7 40.3 17.4 40.05 17.5 39.35 17.75 Q38.25 15.65 37.25 14.5 35.0 11.8 32.95 13.5 L32.65 13.75 32.3 14.15 31.65 15.1 31.35 14.05 Q31.3 13.5 31.4 13.0 L32.25 13.25 34.75 10.95" fill="#fff265" fill-rule="evenodd" stroke="none"/>
      <path d="M31.95 16.05 L31.15 15.75 30.7 15.65 29.0 15.3 27.8 15.25 27.45 15.25 Q24.35 15.45 21.65 17.45 L21.05 17.85 20.5 18.3 Q19.9 18.55 19.9 18.15 19.85 17.9 20.1 17.4 L20.1 17.35 21.2 16.6 Q24.15 14.65 27.5 14.8 L28.05 14.85 Q29.55 14.95 30.85 15.45 L31.25 15.65 31.6 15.85 31.95 16.05 M40.05 30.15 L40.3 31.25 41.0 34.5 38.05 28.25 40.05 30.15" fill="#744c12" fill-rule="evenodd" stroke="none"/>
      <path d="M20.1 17.4 Q19.85 17.9 19.9 18.15 19.9 18.55 20.5 18.3 19.9 18.8 19.45 19.4 L19.1 19.75 19.1 19.15 18.95 18.85 18.5 18.9 18.65 18.7 19.1 18.25 20.1 17.4" fill="#fed678" fill-rule="evenodd" stroke="none"/>
      <path d="M42.9 17.05 L44.35 19.7 44.15 19.6 43.2 18.95 41.0 17.5 40.95 17.45 40.95 17.4 39.35 15.05 39.05 14.65 38.95 14.45 39.55 14.65 Q40.15 14.9 40.95 15.45 L41.25 15.65 42.9 17.05 M45.3 26.65 L45.25 27.3 44.95 28.75 44.15 31.8 43.45 29.05 Q42.7 27.3 41.6 27.2 L41.65 27.0 41.95 24.95 42.05 23.3 45.3 26.65 M43.15 34.05 Q42.2 35.8 40.85 37.35 L40.75 37.25 37.65 35.45 39.45 32.9 39.6 32.6 41.0 34.5 40.3 31.25 40.8 29.95 40.95 31.4 41.45 32.65 Q42.0 33.75 43.15 34.05 M31.8 43.25 L31.75 43.25 30.9 43.45 29.1 42.9 Q27.8 42.35 27.45 41.75 L27.65 41.75 Q29.95 41.2 32.05 40.0 L32.95 39.5 33.25 39.6 33.95 41.0 32.95 41.65 31.8 43.25 M20.85 10.25 L23.8 10.55 23.9 11.2 23.65 11.25 20.85 10.25 M30.85 15.45 Q29.55 14.95 28.05 14.85 L27.5 14.8 Q24.15 14.65 21.2 16.6 L20.1 17.35 20.1 17.4 19.1 18.25 18.65 18.7 18.5 18.9 Q16.25 21.35 15.6 24.75 L15.45 25.7 Q15.25 27.25 15.45 28.7 L15.6 29.25 Q16.0 31.05 17.1 32.6 L17.8 33.4 18.95 34.55 19.9 35.2 18.85 34.55 17.7 33.6 16.7 32.45 16.6 32.35 Q15.8 31.2 15.35 29.95 L15.2 29.45 Q14.7 27.7 14.9 25.75 L15.1 24.4 15.1 24.25 Q15.85 20.8 18.2 18.3 L19.25 17.35 19.6 17.05 20.95 16.1 Q24.05 14.25 27.5 14.55 L27.6 14.55 29.75 15.0 Q30.35 15.15 30.85 15.45 M26.25 35.95 L27.85 36.1 27.95 36.1 27.8 38.15 26.25 35.95 M16.8 32.95 L17.0 34.15 17.0 34.55 17.05 35.0 16.25 35.5 Q12.7 37.6 11.4 33.1 12.5 35.95 15.25 35.0 16.6 34.4 16.8 32.95" fill="#feeba3" fill-rule="evenodd" stroke="none"/>
      <path d="M12.8 17.55 L13.5 16.3 Q14.0 17.35 14.35 19.1 L14.5 19.9 15.1 24.25 15.1 24.4 14.9 25.75 Q14.7 27.7 15.2 29.45 L15.35 29.95 Q15.8 31.2 16.6 32.35 L16.7 32.45 16.8 32.95 Q16.6 34.4 15.25 35.0 12.5 35.95 11.4 33.1 L11.0 31.5 13.8 30.15 13.75 30.0 13.75 29.95 Q13.2 28.0 13.4 25.9 L12.8 25.7 10.3 26.05 Q10.15 22.5 12.8 17.55 M29.15 12.4 Q30.35 12.55 31.4 13.0 31.3 13.5 31.35 14.05 L31.65 15.1 32.45 16.45 31.95 16.05 31.6 15.85 31.25 15.65 30.85 15.45 Q30.35 15.15 29.75 15.0 L29.75 13.95 Q29.7 12.85 29.15 12.4 M31.7 33.15 L32.45 32.45 32.6 32.3 33.0 31.95 33.7 31.35 33.7 33.9 33.6 34.0 33.0 34.55 31.9 35.55 31.7 33.15 M40.55 22.9 L41.45 22.8 41.25 25.55 41.25 25.7 41.05 26.65 40.85 27.55 40.7 28.2 40.55 22.9" fill="#ffcc00" fill-rule="evenodd" stroke="none"/>
      <path d="M40.85 37.35 L40.8 37.4 40.75 37.25 40.85 37.35 M25.05 43.65 L24.9 43.65 24.95 43.6 25.05 43.65 M40.95 17.4 L40.95 17.45 40.95 17.5 40.95 17.4 M44.15 19.6 L44.35 19.7 44.35 19.75 44.15 19.6 M13.75 29.95 L13.75 30.0 13.7 30.0 13.75 29.95" fill="#7d4b02" fill-rule="evenodd" stroke="none"/>
      <path d="M32.25 13.25 L33.95 10.45 34.5 10.75 34.75 10.95 32.25 13.25" fill="#a07001" fill-rule="evenodd" stroke="none"/>
      <path d="M34.85 10.95 L35.05 11.1 34.85 10.95 M31.25 15.65 L30.85 15.45 31.25 15.65 M33.0 31.95 L35.35 28.6 34.95 30.2 33.7 31.35 33.0 31.95" fill="#da8303" fill-rule="evenodd" stroke="none"/>
      <path d="M35.45 11.3 L37.45 12.4 38.25 12.75 40.95 14.7 41.3 15.1 42.7 16.8 42.9 17.05 41.25 15.65 40.95 15.45 Q40.15 14.9 39.55 14.65 L38.95 14.45 36.6 12.05 35.45 11.3 M30.9 43.45 L28.1 43.85 26.1 43.75 25.05 43.65 24.95 43.6 21.1 41.75 22.8 41.95 27.45 41.75 Q27.8 42.35 29.1 42.9 L30.9 43.45" fill="#fedb4e" fill-rule="evenodd" stroke="none"/>
      <path d="M35.05 11.1 L35.45 11.3 36.6 12.05 38.95 14.45 39.05 14.65 39.35 15.05 40.95 17.4 40.3 17.4 40.0 16.7 38.75 14.7 38.65 14.6 36.0 11.75 35.05 11.1 M41.45 22.8 L42.05 23.2 42.05 23.3 41.95 24.95 41.65 27.0 41.6 27.2 41.3 28.4 41.3 28.45 40.8 29.95 40.3 31.25 40.05 30.15 40.7 28.2 40.85 27.55 41.05 26.65 41.25 25.7 41.25 25.55 41.45 22.8 M39.6 32.6 L39.45 32.9 37.65 35.45 37.1 35.1 39.2 32.05 39.6 32.6 M32.5 39.05 L32.85 39.4 32.95 39.5 32.05 40.0 Q29.95 41.2 27.65 41.75 L27.45 41.75 22.8 41.95 21.1 41.75 21.1 41.55 22.15 41.65 22.5 41.7 27.45 41.3 Q30.1 40.65 32.5 39.05" fill="#fef3cd" fill-rule="evenodd" stroke="none"/>
      <path d="M44.15 31.8 L43.15 34.05 Q42.0 33.75 41.45 32.65 L40.95 31.4 40.8 29.95 41.3 28.45 41.3 28.4 41.6 27.2 Q42.7 27.3 43.45 29.05 L44.15 31.8" fill="#fff2c4" fill-rule="evenodd" stroke="none"/>
      <path d="M39.6 32.6 L39.2 32.05 38.05 28.25 41.0 34.5 39.6 32.6" fill="#fef5d6" fill-rule="evenodd" stroke="none"/>
      <path d="M15.6 40.0 L15.75 39.6 16.05 39.0 Q16.4 39.85 18.15 41.15 16.8 40.7 15.6 40.0 M9.15 31.6 L8.95 30.55 9.85 30.85 12.45 29.5 12.85 26.55 12.9 28.9 13.75 29.95 13.7 30.0 12.75 30.0 9.15 31.6 M32.95 10.8 L32.05 12.7 Q30.0 11.7 27.95 11.6 L28.5 9.55 28.5 11.1 Q28.95 11.6 30.7 11.8 31.5 12.0 32.95 10.8 M14.8 14.6 L16.7 15.55 18.15 15.1 16.75 16.8 16.75 16.3 14.8 14.6 M40.3 17.4 L40.95 17.4 40.95 17.5 41.05 17.7 41.85 20.95 43.8 23.0 41.6 22.15 39.7 22.15 41.25 21.15 41.25 19.6 40.05 17.5 40.3 17.4 M31.65 37.45 L34.2 37.4 34.25 37.4 35.65 35.6 35.15 34.25 37.1 36.0 40.15 37.65 36.95 36.8 Q35.85 36.95 34.8 38.0 L32.85 39.4 32.5 39.05 31.65 37.45 M17.0 37.05 L17.25 36.45 Q18.75 37.65 21.35 38.25 20.5 38.85 20.6 41.95 L19.55 41.55 18.75 41.35 19.8 40.8 20.15 39.65 20.15 38.65 Q18.9 37.55 17.0 37.05" fill="#1affe8" fill-rule="evenodd" stroke="none"/>
      <path d="M44.35 19.7 L44.8 19.95 45.6 22.1 45.75 24.25 44.4 23.4 Q45.75 22.0 43.2 18.95 L44.15 19.6 44.35 19.75 44.35 19.7 M8.95 30.55 Q8.65 28.65 8.9 26.35 L9.5 26.15 10.3 26.05 12.8 25.7 12.85 26.55 12.45 29.5 9.85 30.85 8.95 30.55 M14.15 14.0 L15.05 13.35 15.15 13.5 16.05 13.8 16.95 13.75 18.15 13.2 19.2 12.55 19.5 13.1 19.55 13.15 19.9 13.8 Q18.95 14.3 18.15 15.1 L16.7 15.55 14.8 14.6 14.15 14.0 M28.65 9.0 Q31.15 8.9 33.45 10.1 L33.35 10.15 32.95 10.8 Q31.5 12.0 30.7 11.8 28.95 11.6 28.5 11.1 L28.5 9.55 28.65 9.0 M20.15 33.75 L19.95 33.4 Q18.15 30.05 19.3 26.25 19.9 24.35 21.6 22.15 23.25 19.95 26.5 18.45 29.8 16.9 33.35 17.25 L34.2 18.3 35.15 19.9 Q35.85 21.55 35.95 23.4 L35.8 25.55 35.35 28.6 33.0 31.95 32.6 32.3 32.45 32.45 31.7 33.15 31.2 33.55 30.15 34.4 29.75 34.6 29.25 34.9 Q31.5 32.65 32.45 29.65 33.65 25.85 32.05 22.25 31.0 19.75 28.3 19.75 L26.85 19.9 Q22.75 20.9 20.4 25.9 19.15 28.55 20.15 33.75 M37.9 18.15 L39.35 17.75 40.05 17.5 41.25 19.6 41.25 21.15 39.7 22.15 39.05 22.2 Q38.85 19.75 37.9 18.15 M31.65 37.45 L31.05 36.4 31.8 35.65 31.9 35.55 33.0 34.55 33.6 34.0 33.7 33.9 34.25 33.4 35.15 34.25 35.65 35.6 34.25 37.4 34.2 37.4 31.65 37.45 M16.8 37.45 L17.0 37.05 Q18.9 37.55 20.15 38.65 L20.15 39.65 19.8 40.8 18.75 41.35 18.15 41.15 Q16.4 39.85 16.05 39.0 L16.8 37.45" fill="#00ddc7" fill-rule="evenodd" stroke="none"/>
      <path d="M28.65 9.0 L28.9 8.35 34.2 9.7 35.45 11.3 35.05 11.1 34.85 10.95 34.8 10.95 34.75 10.95 34.5 10.75 33.95 10.45 32.25 13.25 32.05 12.7 32.95 10.8 33.35 10.15 33.45 10.1 Q31.15 8.9 28.65 9.0 M24.65 44.05 L21.1 43.2 19.7 42.5 Q17.3 41.3 15.6 40.0 16.8 40.7 18.15 41.15 L18.75 41.35 19.55 41.55 20.6 41.95 24.65 44.05 M15.05 13.35 L18.0 11.1 18.55 11.4 19.2 12.55 18.15 13.2 16.95 13.75 16.05 13.8 15.15 13.5 15.05 13.35 M22.3 36.0 Q21.0 35.15 20.15 33.75 19.15 28.55 20.4 25.9 22.75 20.9 26.85 19.9 L28.3 19.75 Q31.0 19.75 32.05 22.25 33.65 25.85 32.45 29.65 31.5 32.65 29.25 34.9 L28.0 35.45 27.95 36.1 27.85 36.1 26.25 35.95 25.85 36.05 23.4 36.15 23.3 36.1 22.45 36.0 22.3 36.0 M18.15 15.1 Q18.95 14.3 19.9 13.8 L20.15 14.55 19.05 15.3 18.95 15.45 18.8 15.5 17.4 16.85 17.15 17.15 16.75 16.8 18.15 15.1 M41.0 17.5 L43.2 18.95 Q45.75 22.0 44.4 23.4 L43.8 23.0 41.85 20.95 41.05 17.7 40.95 17.5 41.0 17.5 M37.9 18.15 Q38.85 19.75 39.05 22.2 L38.7 23.15 38.6 23.15 38.6 22.95 38.25 20.6 37.6 18.75 37.6 18.7 37.9 18.15 M17.25 36.45 L17.95 36.15 18.15 36.3 19.35 37.0 20.05 37.3 21.65 37.85 22.0 37.9 21.35 38.25 Q18.75 37.65 17.25 36.45 M12.85 26.55 L12.8 25.7 13.4 25.9 Q13.2 28.0 13.75 29.95 L12.9 28.9 12.85 26.55" fill="#009989" fill-rule="evenodd" stroke="none"/>
      <path d="M41.05 38.15 L38.1 40.95 36.1 40.95 33.25 39.6 32.95 39.5 32.85 39.4 34.8 38.0 Q35.85 36.95 36.95 36.8 L40.15 37.65 41.05 38.15" fill="#008073" fill-rule="evenodd" stroke="none"/>
      <path d="M45.75 24.25 L45.35 25.3 42.05 23.2 41.45 22.8 40.55 22.9 40.5 22.9 38.7 23.15 39.05 22.2 39.7 22.15 41.6 22.15 43.8 23.0 44.4 23.4 45.75 24.25 M40.8 37.4 L41.05 38.15 40.15 37.65 37.1 36.0 35.15 34.25 34.25 33.4 34.85 33.2 37.1 35.1 37.65 35.45 40.75 37.25 40.8 37.4 M24.9 43.65 L24.65 44.05 20.6 41.95 Q20.5 38.85 21.35 38.25 L22.0 37.9 21.1 41.55 21.1 41.75 24.95 43.6 24.9 43.65 M10.35 32.75 L9.15 31.6 12.75 30.0 13.7 30.0 13.75 30.0 13.8 30.15 11.0 31.5 10.05 31.9 10.35 32.75 M14.15 15.25 L13.8 14.45 14.15 14.0 14.8 14.6 16.75 16.3 16.75 16.8 17.15 17.15 17.05 17.2 14.35 14.9 14.15 15.25 M32.05 12.7 L32.25 13.25 31.4 13.0 Q30.35 12.55 29.15 12.4 L28.6 12.4 28.5 12.4 28.1 12.35 27.95 11.6 Q30.0 11.7 32.05 12.7 M20.5 18.3 L21.05 17.85 21.65 17.45 Q24.35 15.45 27.45 15.25 L27.8 15.25 29.0 15.3 30.7 15.65 31.15 15.75 31.95 16.05 32.45 16.45 32.95 16.9 33.35 17.25 Q29.8 16.9 26.5 18.45 23.25 19.95 21.6 22.15 19.9 24.35 19.3 26.25 18.15 30.05 19.95 33.4 L20.15 33.75 Q21.0 35.15 22.3 36.0 L21.75 35.9 20.4 35.45 19.05 34.3 18.1 33.1 18.05 33.1 Q16.85 31.4 16.5 29.55 L16.4 28.9 16.35 26.9 16.5 25.6 16.55 25.2 Q17.05 22.9 18.2 21.0 L19.1 19.75 19.45 19.4 Q19.9 18.8 20.5 18.3" fill="#004d44" fill-rule="evenodd" stroke="none"/>
      <path d="M28.65 9.0 L28.9 8.35 34.2 9.7 35.45 11.3 37.45 12.4 38.25 12.75 40.95 14.7 41.3 15.1 42.7 16.8 42.9 17.05 44.35 19.7 44.8 19.95 45.6 22.1 45.75 24.25 45.35 25.3 45.3 26.65 45.25 27.3 44.95 28.75 44.15 31.8 43.15 34.05 Q42.2 35.8 40.85 37.35 L40.8 37.4 41.05 38.15 38.1 40.95 36.1 40.95 36.05 40.95 34.35 41.5 31.8 43.25 31.75 43.25 30.9 43.45 28.1 43.85 26.1 43.75 25.05 43.65 24.9 43.65 24.65 44.05 21.1 43.2 19.7 42.5 Q17.3 41.3 15.6 40.0 L15.75 39.6 14.15 38.3 12.05 35.95 Q11.0 34.4 10.35 32.75 L9.15 31.6 8.95 30.55 Q8.65 28.65 8.9 26.35 L9.5 26.15 Q9.5 25.2 9.8 23.95 10.05 22.65 10.45 21.45 L12.8 17.55 13.5 16.3 13.85 15.75 14.15 15.25 13.8 14.45 14.15 14.0 15.05 13.35 18.0 11.1 18.55 11.4 Q19.45 10.85 20.3 10.45 L20.85 10.25 23.8 10.55 24.05 10.1 26.25 8.95 26.85 8.9 28.65 9.0 28.5 9.55 27.95 11.6 28.1 12.35 28.5 12.4 28.6 12.4 29.15 12.4 Q30.35 12.55 31.4 13.0 L32.25 13.25 33.95 10.45 34.5 10.75 34.75 10.95 34.8 10.95 34.85 10.95 35.05 11.1 35.45 11.3 M20.5 18.3 L21.05 17.85 21.65 17.45 Q24.35 15.45 27.45 15.25 L27.8 15.25 29.0 15.3 30.7 15.65 31.15 15.75 31.95 16.05 31.6 15.85 M20.5 18.3 Q19.9 18.8 19.45 19.4 L19.1 19.75 18.2 21.0 Q17.05 22.9 16.55 25.2 L16.5 25.6 16.35 26.9 16.4 28.9 16.5 29.55 Q16.85 31.4 18.05 33.1 L18.1 33.1 19.05 34.3 20.4 35.45 21.75 35.9 22.3 36.0 M33.35 17.25 L32.95 16.9 32.45 16.45 31.95 16.05 M19.2 12.55 L18.55 11.4 M19.9 13.8 L19.55 13.15 19.5 13.1 19.2 12.55 M19.9 13.8 L20.15 14.55 19.05 15.3 18.95 15.45 M17.15 17.15 L17.4 16.85 18.8 15.5 M17.05 17.2 L17.15 17.15 M14.15 15.25 L14.35 14.9 17.05 17.2 M29.25 34.9 L29.75 34.6 30.15 34.4 31.2 33.55 31.7 33.15 32.45 32.45 32.6 32.3 33.0 31.95 35.35 28.6 35.8 25.55 35.95 23.4 Q35.85 21.55 35.15 19.9 L34.2 18.3 33.35 17.25 M40.3 17.4 L40.95 17.4 40.95 17.45 41.0 17.5 43.2 18.95 44.15 19.6 44.35 19.7 44.35 19.75 44.15 19.6 M39.35 17.75 L37.9 18.15 37.6 18.7 37.6 18.75 38.25 20.6 38.6 22.95 38.6 23.15 38.7 23.15 40.5 22.9 40.55 22.9 41.45 22.8 42.05 23.2 45.35 25.3 M40.05 17.5 L39.35 17.75 M40.95 17.5 L40.95 17.4 M40.3 17.4 L40.05 17.5 M35.05 11.1 L34.85 10.95 M37.65 35.45 L40.75 37.25 40.85 37.35 M37.1 35.1 L37.65 35.45 M40.8 37.4 L40.75 37.25 M34.95 30.2 L35.35 28.6 M31.9 35.55 L31.8 35.65 31.05 36.4 31.65 37.45 M34.25 33.4 L33.7 33.9 M33.6 34.0 L33.0 34.55 31.9 35.55 M34.25 33.4 L34.85 33.2 37.1 35.1 M32.95 39.5 L33.25 39.6 36.1 40.95 M32.5 39.05 L32.85 39.4 32.95 39.5 M32.5 39.05 L31.65 37.45 M25.85 36.05 L23.4 36.15 23.3 36.1 22.45 36.0 22.3 36.0 M27.95 36.1 L28.0 35.45 29.25 34.9 M26.25 35.95 L27.85 36.1 27.95 36.1 27.8 38.15 M26.25 35.95 L25.85 36.05 M16.8 37.45 L17.0 37.05 17.25 36.45 17.95 36.15 18.15 36.3 19.35 37.0 20.05 37.3 21.65 37.85 22.0 37.9 M20.4 35.45 L19.9 35.2 M21.1 41.55 L21.1 41.75 M16.05 39.0 L15.75 39.6 M21.1 41.55 L22.0 37.9 M24.95 43.6 L25.05 43.65 M24.9 43.65 L24.95 43.6 21.1 41.75 M16.8 37.45 L16.05 39.0 M12.8 25.7 L10.3 26.05 9.5 26.15 M12.8 25.7 L13.4 25.9 Q13.2 28.0 13.75 29.95 L13.75 30.0 13.8 30.15 11.0 31.5 M10.35 32.75 L10.05 31.9 11.0 31.5" fill="none" stroke="#000000" stroke-linecap="round" stroke-linejoin="round" stroke-opacity="0.3019608" stroke-width="0.5"/>
    </g>
    <g id="sprite0" transform="matrix(1.0, 0.0, 0.0, 1.0, 73.5, 65.0)">
      <use height="136.85" transform="matrix(1.0, 0.0, 0.0, 1.0, -73.5, -65.0)" width="148.25" xlink:href="#shape1"/>
    </g>
    <g id="shape1" transform="matrix(1.0, 0.0, 0.0, 1.0, 73.5, 65.0)">
      <path d="M36.65 -54.65 Q60.05 -42.0 69.75 -17.95 80.55 8.9 68.0 34.1 55.45 59.35 26.8 68.2 -1.8 77.05 -29.7 64.3 -57.6 51.6 -68.45 24.75 -79.3 -2.05 -66.75 -27.25 L-66.7 -27.3 Q-54.1 -52.5 -25.5 -61.4 3.1 -70.2 31.0 -57.5 L36.65 -54.65" fill="url(#gradient0)" fill-rule="evenodd" stroke="none"/>
    </g>
    <radialGradient cx="0" cy="0" gradientTransform="matrix(0.0914, 0.0, 0.0, 0.0914, 0.6, 3.4)" gradientUnits="userSpaceOnUse" id="gradient0" r="819.2" spreadMethod="pad">
      <stop offset="0.0" stop-color="#ffffff"/>
      <stop offset="1.0" stop-color="#ffffff" stop-opacity="0.0"/>
    </radialGradient>
    <g id="sprite1" transform="matrix(1.0, 0.0, 0.0, 1.0, 0.0, 0.0)">
      <use height="20.95" transform="matrix(1.0, 0.0, 0.0, 1.0, 0.0, 0.0)" width="24.45" xlink:href="#shape2"/>
    </g>
    <g id="shape2" transform="matrix(1.0, 0.0, 0.0, 1.0, 0.0, 0.0)">
      <path d="M14.85 11.4 Q15.8 11.6 16.25 12.45 16.85 13.3 16.6 14.35 16.4 15.3 15.55 15.9 14.65 16.4 13.65 16.2 12.65 15.9 12.1 15.1 11.6 14.2 11.8 13.2 12.1 12.2 12.9 11.65 13.8 11.15 14.85 11.4" fill="#ffffff" fill-opacity="0.7882353" fill-rule="evenodd" stroke="none"/>
      <path d="M14.85 11.4 Q13.8 11.15 12.9 11.65 12.1 12.2 11.8 13.2 11.6 14.2 12.1 15.1 12.65 15.9 13.65 16.2 14.65 16.4 15.55 15.9 16.4 15.3 16.6 14.35 16.85 13.3 16.25 12.45 15.8 11.6 14.85 11.4 M18.2 11.35 L20.15 11.25 18.75 12.55 Q19.05 13.8 18.8 15.05 18.5 16.35 17.65 17.3 L19.1 20.95 16.55 18.25 Q14.8 19.3 12.8 18.85 10.8 18.35 9.75 16.65 9.05 15.5 8.95 14.3 7.75 12.4 4.95 11.55 L9.7 11.4 Q10.3 10.4 11.35 9.75 13.1 8.75 15.1 9.15 16.95 9.5 18.1 11.15 L18.2 11.35" fill="#ffffff" fill-opacity="0.23529412" fill-rule="evenodd" stroke="none"/>
      <path d="M15.4 13.55 L18.1 17.55 13.35 14.65 7.05 18.5 12.75 13.55 0.0 0.0 14.25 12.25 24.45 5.95 15.4 13.55" fill="#ffffff" fill-opacity="0.7882353" fill-rule="evenodd" stroke="none"/>
    </g>
  </defs>
</svg>
