<?xml version="1.0" encoding="UTF-8" standalone="no"?>
<svg xmlns:xlink="http://www.w3.org/1999/xlink" height="520.0px" width="520.0px" xmlns="http://www.w3.org/2000/svg">
  <g transform="matrix(10.0, 0.0, 0.0, 10.0, 0.0, 0.0)">
    <use height="52.0" transform="matrix(1.0, 0.0, 0.0, 1.0, 0.0, 0.0)" width="52.0" xlink:href="#shape0"/>
    <use height="15.75" transform="matrix(0.5734, 0.0, 0.0, 0.5734, 16.3112, 19.7011)" width="25.2" xlink:href="#sprite0"/>
  </g>
  <defs>
    <g id="shape0" transform="matrix(1.0, 0.0, 0.0, 1.0, 0.0, 0.0)">
      <path d="M0.0 52.0 L0.0 0.0 52.0 0.0 52.0 52.0 0.0 52.0" fill="#33cc33" fill-opacity="0.0" fill-rule="evenodd" stroke="none"/>
      <path d="M8.5 10.1 L13.65 7.45 Q15.7 10.35 18.65 12.75 L18.9 12.95 20.05 13.85 20.95 14.5 23.35 15.95 26.55 17.6 26.65 17.65 28.1 18.25 34.15 20.3 39.6 21.55 39.8 21.6 40.3 21.75 49.1 22.9 49.45 22.95 49.15 28.8 Q47.8 34.35 45.55 38.5 L44.85 39.65 Q42.1 44.2 38.8 46.25 L38.7 46.3 Q38.6 46.3 38.55 46.4 L38.55 46.3 32.1 48.9 32.3 43.85 32.55 38.35 30.05 40.0 Q29.0 37.9 28.35 35.75 L24.25 38.1 Q23.2 36.15 22.5 34.3 L19.3 35.9 18.85 35.0 18.7 36.3 12.2 39.3 Q6.75 29.75 6.55 20.45 L6.55 19.25 6.85 15.7 7.05 12.3 8.5 10.1 Z" fill="none" stroke="#000000" stroke-linecap="round" stroke-linejoin="round" stroke-opacity="0.3019608" stroke-width="1.0"/>
      <path d="M18.65 12.75 L18.9 12.95 20.05 13.85 20.95 14.5 23.35 15.95 26.55 17.55 26.65 17.65 28.1 18.25 34.15 20.3 39.6 21.55 39.8 21.6 40.3 21.7 Q44.2 23.85 33.9 24.2 L33.35 24.1 33.15 24.05 32.8 23.95 27.9 22.8 27.7 22.8 27.75 22.75 24.5 21.05 20.25 20.05 20.25 20.15 20.1 20.05 19.8 19.9 16.9 18.4 14.5 17.0 13.65 16.35 12.55 15.5 Q12.65 11.65 18.65 12.75 M21.2 33.15 L21.35 33.15 21.2 33.4 21.15 33.35 21.2 33.15 M16.7 31.1 L16.8 29.1 16.95 29.05 17.25 30.35 17.15 30.5 16.8 31.1 16.7 31.1" fill="#8f0101" fill-rule="evenodd" stroke="none"/>
      <path d="M49.45 23.0 L49.15 23.1 49.1 22.9 49.45 22.95 49.45 23.0 M33.15 24.05 L33.15 24.1 Q34.75 24.8 35.55 25.4 37.15 26.4 37.15 27.7 37.15 28.95 36.3 29.5 L33.9 29.95 33.9 30.05 33.4 29.95 33.05 29.85 27.35 28.55 21.35 26.55 19.9 25.9 19.8 25.85 16.6 24.2 16.55 24.2 14.2 22.8 13.35 22.15 13.3 22.15 12.1 21.25 9.35 18.7 9.3 18.65 9.35 18.6 Q8.85 17.45 8.85 16.25 L9.05 14.85 Q9.35 14.4 10.0 14.4 L11.55 14.65 12.45 15.45 12.55 15.5 13.65 16.35 14.5 17.0 16.9 18.4 19.8 19.9 20.1 20.05 20.25 20.15 23.05 22.15 27.7 22.8 27.9 22.8 32.8 23.95 33.15 24.05 M38.7 46.3 Q38.6 46.3 38.55 46.4 L38.55 46.3 38.7 46.3 M17.25 30.35 L17.3 30.6 17.15 30.5 17.25 30.35" fill="#c16100" fill-rule="evenodd" stroke="none"/>
      <path d="M42.95 26.1 L42.9 27.95 42.8 27.95 42.9 28.0 41.7 29.7 36.65 30.5 33.9 30.05 33.9 29.95 36.3 29.5 Q37.15 28.95 37.15 27.7 37.15 26.4 35.55 25.4 34.75 24.8 33.15 24.1 L33.15 24.05 33.35 24.1 33.9 24.2 38.5 24.9 42.95 26.1 M27.7 22.8 L23.05 22.15 20.25 20.15 20.25 20.05 24.5 21.05 27.75 22.75 27.7 22.8 M11.55 14.65 L10.0 14.4 Q9.35 14.4 9.05 14.85 L8.85 16.25 Q8.85 17.45 9.35 18.6 L9.3 18.65 6.85 15.7 7.05 12.3 10.4 13.65 11.55 14.65 M33.05 29.85 L33.4 29.95 33.4 32.55 32.8 33.55 32.85 32.9 33.05 29.85" fill="#ee8500" fill-rule="evenodd" stroke="none"/>
      <path d="M33.9 30.05 L36.65 30.5 42.3 31.15 42.7 31.2 Q41.35 36.65 39.2 40.85 L38.75 41.65 38.4 42.15 35.8 45.75 38.55 40.0 Q38.95 38.9 38.95 37.45 38.95 35.15 38.1 33.75 37.0 32.05 34.8 32.05 L33.6 32.3 33.4 32.55 33.4 29.95 33.9 30.05 M9.3 18.65 L9.35 18.7 12.1 21.25 13.3 22.15 13.35 22.15 14.2 22.8 16.55 24.2 16.6 24.2 19.8 25.85 19.9 25.9 21.35 26.55 27.35 28.55 33.05 29.85 32.85 32.9 32.8 33.55 32.8 33.75 32.65 35.8 32.35 36.5 Q32.3 34.9 31.35 33.0 29.95 30.05 27.9 30.05 L27.3 30.25 27.3 28.75 27.35 28.55 27.3 28.75 27.3 30.25 27.4 31.3 27.5 32.0 27.65 32.95 26.5 35.2 26.25 35.6 Q26.2 33.05 25.55 31.2 24.5 27.9 22.0 27.9 L21.25 28.1 21.25 28.25 21.4 30.0 21.55 30.8 21.85 32.2 21.35 33.15 21.2 33.15 21.35 31.95 Q21.35 29.5 19.8 28.15 L17.7 26.75 16.6 26.75 16.5 24.35 16.55 24.2 16.5 24.35 16.6 26.75 16.7 27.6 16.95 29.05 16.8 29.1 Q16.8 27.0 14.7 25.05 13.05 23.6 12.05 23.4 L12.1 24.0 Q11.6 22.65 10.5 21.35 8.75 19.25 6.95 19.25 L6.55 19.25 6.85 15.7 9.3 18.65 M21.35 26.55 L21.25 26.75 21.25 28.1 21.25 26.75 21.35 26.55 M12.1 21.25 L12.0 21.65 12.05 23.4 12.0 21.65 12.1 21.25" fill="#e4d0c6" fill-rule="evenodd" stroke="none"/>
      <path d="M33.4 32.55 L33.6 32.3 34.8 32.05 Q37.0 32.05 38.1 33.75 38.95 35.15 38.95 37.45 38.95 38.9 38.55 40.0 L35.8 45.75 Q34.05 47.75 32.1 48.85 L33.4 39.05 33.4 32.55 M27.3 30.25 L27.9 30.05 Q29.95 30.05 31.35 33.0 32.3 34.9 32.35 36.5 L32.1 36.95 Q31.05 38.85 30.05 40.0 29.0 37.85 28.35 35.75 L28.1 34.9 27.65 32.95 27.5 32.0 27.4 31.3 27.3 30.25 M26.25 35.6 L24.25 38.1 Q23.2 36.15 22.5 34.25 L22.05 32.95 21.85 32.2 21.55 30.8 21.4 30.0 21.25 28.25 21.25 28.1 22.0 27.9 Q24.5 27.9 25.55 31.2 26.2 33.05 26.25 35.6 M16.6 26.75 L17.7 26.75 19.8 28.15 Q21.35 29.5 21.35 31.95 L21.2 33.15 21.15 33.35 21.15 33.5 19.3 35.9 18.85 34.95 17.8 32.35 17.3 30.6 17.25 30.35 16.95 29.05 16.7 27.6 16.6 26.75 M6.55 19.25 L6.95 19.25 Q8.75 19.25 10.5 21.35 11.6 22.65 12.1 24.0 L12.05 23.4 Q13.05 23.6 14.7 25.05 16.8 27.0 16.8 29.1 L16.7 31.1 16.7 31.3 16.25 32.0 14.75 33.6 13.5 30.35 13.05 29.05 12.2 31.4 12.2 39.3 Q6.75 29.75 6.55 20.4 L6.55 19.25 M13.05 29.05 L12.75 28.0 12.3 25.7 12.15 24.9 12.1 24.0 12.15 24.9 12.3 25.7 12.75 28.0 13.05 29.05" fill="#ffffff" fill-rule="evenodd" stroke="none"/>
      <path d="M49.15 23.1 L49.45 23.0 49.15 28.75 42.7 31.2 42.9 28.0 42.9 27.95 42.95 26.1 44.5 24.85 49.15 23.1 M39.2 40.85 Q40.2 44.2 45.55 38.45 L44.85 39.65 Q42.1 44.2 38.8 46.2 L38.7 46.3 38.55 46.3 32.1 48.85 Q34.05 47.75 35.8 45.75 L38.4 42.15 38.75 41.65 39.2 40.85" fill="#421700" fill-rule="evenodd" stroke="none"/>
      <path d="M44.5 24.85 L42.95 26.1 38.5 24.9 44.5 24.85 M42.9 28.0 L42.7 31.2 42.3 31.15 36.65 30.5 41.7 29.7 42.9 28.0 M32.65 35.8 L32.8 33.75 32.8 33.55 33.4 32.55 33.4 39.05 32.1 48.85 32.3 43.8 32.55 38.35 32.6 37.7 32.65 35.8 M7.05 12.3 L7.95 10.9 8.5 10.05 10.4 13.65 7.05 12.3 M13.05 29.05 L13.5 30.35 12.95 33.65 12.2 39.3 12.2 31.4 13.05 29.05" fill="#febb56" fill-rule="evenodd" stroke="none"/>
      <path d="M49.15 23.1 L44.5 24.85 38.5 24.9 33.9 24.2 Q44.2 23.85 40.3 21.7 L49.1 22.9 49.15 23.1 M12.55 15.5 L12.45 15.45 11.55 14.65 10.4 13.65 8.5 10.05 13.65 7.4 Q15.7 10.35 18.65 12.75 12.65 11.65 12.55 15.5 M13.5 30.35 L14.75 33.6 17.8 32.35 18.85 34.95 18.7 36.25 12.2 39.3 12.95 33.65 13.5 30.35" fill="#760101" fill-rule="evenodd" stroke="none"/>
      <path d="M42.7 31.2 L49.15 28.75 Q47.8 34.3 45.55 38.45 40.2 44.2 39.2 40.85 41.35 36.65 42.7 31.2 M32.35 36.5 L32.65 35.8 32.6 37.7 32.55 38.35 30.05 40.0 Q31.05 38.85 32.1 36.95 L32.35 36.5 M27.65 32.95 L28.1 34.9 28.35 35.75 24.25 38.1 26.25 35.6 26.5 35.2 27.65 32.95 M21.35 33.15 L21.85 32.2 22.05 32.95 22.5 34.25 19.3 35.9 21.15 33.5 21.2 33.4 21.35 33.15 M14.75 33.6 L16.25 32.0 16.7 31.3 16.8 31.1 17.15 30.5 17.3 30.6 17.8 32.35 14.75 33.6" fill="#541e00" fill-rule="evenodd" stroke="none"/>
      <path d="M16.7 31.3 L16.7 31.1 16.8 31.1 16.7 31.3 M21.15 33.5 L21.15 33.35 21.2 33.4 21.15 33.5" fill="#f38719" fill-rule="evenodd" stroke="none"/>
      <path d="M49.45 23.0 L49.15 23.1 44.5 24.85 M42.95 26.1 L42.9 27.95 42.9 28.0 42.7 31.2 49.15 28.75 49.45 23.0 49.45 22.95 49.1 22.9 M18.65 12.75 L18.9 12.95 20.05 13.85 20.95 14.5 23.35 15.95 26.55 17.55 26.65 17.65 28.1 18.25 34.15 20.3 39.6 21.55 39.8 21.6 40.3 21.7 49.1 22.9 M38.5 24.9 L33.9 24.2 33.35 24.1 33.15 24.05 32.8 23.95 27.9 22.8 27.7 22.8 M33.9 30.05 L36.65 30.5 42.3 31.15 42.7 31.2 Q41.35 36.65 39.2 40.85 M45.55 38.45 Q47.8 34.3 49.15 28.75 M20.25 20.15 L20.1 20.05 19.8 19.9 16.9 18.4 14.5 17.0 13.65 16.35 12.55 15.5 12.45 15.45 11.55 14.65 10.4 13.65 M9.3 18.65 L9.35 18.7 12.1 21.25 13.3 22.15 13.35 22.15 14.2 22.8 16.55 24.2 16.6 24.2 19.8 25.85 19.9 25.9 21.35 26.55 27.35 28.55 33.05 29.85 33.4 29.95 33.9 30.05 M35.8 45.75 L38.4 42.15 38.75 41.65 39.2 40.85 M32.35 36.5 L32.65 35.8 32.8 33.75 M32.8 33.55 L32.85 32.9 33.05 29.85 M28.35 35.75 L28.1 34.9 27.65 32.95 26.5 35.2 26.25 35.6 24.25 38.1 28.35 35.75 Q29.0 37.85 30.05 40.0 31.05 38.85 32.1 36.95 L32.35 36.5 M32.55 38.35 L32.6 37.7 32.65 35.8 M32.55 38.35 L30.05 40.0 M45.55 38.45 L44.85 39.65 Q42.1 44.2 38.8 46.2 L38.7 46.3 Q38.6 46.3 38.55 46.4 L38.55 46.3 32.1 48.85 32.3 43.8 32.55 38.35 M35.8 45.75 Q34.05 47.75 32.1 48.85 M38.55 46.3 L38.7 46.3 M6.85 15.7 L7.05 12.3 7.95 10.9 M8.5 10.05 L13.65 7.4 Q15.7 10.35 18.65 12.75 M21.85 32.2 L21.55 30.8 21.4 30.0 21.25 28.25 M21.25 28.1 L21.25 26.75 21.35 26.55 M21.35 33.15 L21.85 32.2 22.05 32.95 22.5 34.25 Q23.2 36.15 24.25 38.1 M27.3 30.25 L27.3 28.75 27.35 28.55 M12.1 24.0 L12.05 23.4 12.0 21.65 12.1 21.25 M12.1 24.0 L12.15 24.9 12.3 25.7 12.75 28.0 13.05 29.05 13.5 30.35 14.75 33.6 16.25 32.0 16.7 31.3 M16.95 29.05 L17.25 30.35 17.3 30.6 17.8 32.35 18.85 34.95 19.3 35.9 21.15 33.5 M16.6 26.75 L16.5 24.35 16.55 24.2 M16.95 29.05 L16.7 27.6 16.6 26.75 M16.8 31.1 L16.7 31.3 M16.8 31.1 L17.15 30.5 17.25 30.35 M13.5 30.35 L12.95 33.65 12.2 39.3 18.7 36.25 18.85 34.95 M27.65 32.95 L27.5 32.0 27.4 31.3 27.3 30.25 M21.2 33.4 L21.15 33.5 M21.2 33.4 L21.35 33.15 M22.5 34.25 L19.3 35.9 M14.75 33.6 L17.8 32.35 M12.2 39.3 Q6.75 29.75 6.55 20.4 L6.55 19.25 6.85 15.7 9.3 18.65" fill="none" stroke="#000000" stroke-linecap="round" stroke-linejoin="round" stroke-opacity="0.3019608" stroke-width="0.05"/>
      <path d="M9.55 12.55 L24.25 13.35 9.65 14.25 10.15 20.65 8.7 14.6 4.45 13.55 8.15 12.75 7.15 2.75 9.55 12.55" fill="#fcf3d8" fill-opacity="0.7921569" fill-rule="evenodd" stroke="none"/>
      <path d="M12.5 14.7 Q12.75 16.15 15.15 17.65 13.0 16.5 11.4 16.9 10.65 17.65 9.65 17.95 8.1 18.3 6.8 17.4 5.3 16.5 4.95 14.85 L1.95 15.15 4.9 13.7 Q4.9 12.7 5.4 11.6 5.9 10.6 6.7 10.1 L6.65 8.45 7.85 9.75 7.95 9.65 Q9.4 9.4 10.75 10.15 12.05 11.15 12.45 12.75 L12.5 14.7 M7.0 12.4 Q6.55 13.25 6.8 14.0 7.0 14.9 7.7 15.3 8.35 15.75 9.1 15.6 9.95 15.35 10.3 14.6 10.7 13.9 10.5 13.0 10.3 12.1 9.65 11.65 L8.2 11.5 Q7.35 11.75 7.0 12.4" fill="#fcf3d8" fill-opacity="0.3019608" fill-rule="evenodd" stroke="none"/>
      <path d="M7.0 12.4 Q7.35 11.75 8.2 11.5 L9.65 11.65 Q10.3 12.1 10.5 13.0 10.7 13.9 10.3 14.6 9.95 15.35 9.1 15.6 8.35 15.75 7.7 15.3 7.0 14.9 6.8 14.0 6.55 13.25 7.0 12.4" fill="#fcf3d8" fill-opacity="0.84313726" fill-rule="evenodd" stroke="none"/>
      <path d="M40.4 30.95 L40.0 38.75 39.5 31.05 36.15 31.3 39.35 30.5 39.9 28.25 40.3 30.25 45.6 29.65 40.4 30.95" fill="#fcf3d8" fill-opacity="0.7921569" fill-rule="evenodd" stroke="none"/>
      <path d="M39.3 32.55 Q38.5 32.65 37.7 33.95 38.35 32.8 38.1 31.95 L37.55 31.0 Q37.35 30.2 37.85 29.5 38.3 28.75 39.2 28.55 L39.0 26.95 39.8 28.45 Q40.3 28.45 40.9 28.75 L41.7 29.45 42.6 29.45 41.9 30.05 41.95 30.1 Q42.05 30.9 41.65 31.6 41.15 32.3 40.3 32.55 L39.3 32.55 M40.45 29.6 L39.65 29.5 Q39.15 29.6 38.95 30.0 38.7 30.35 38.8 30.75 L39.3 31.35 40.15 31.5 40.85 31.0 Q41.1 30.65 40.95 30.2 L40.45 29.6" fill="#fcf3d8" fill-opacity="0.3019608" fill-rule="evenodd" stroke="none"/>
      <path d="M40.45 29.6 L40.95 30.2 Q41.1 30.65 40.85 31.0 L40.15 31.5 39.3 31.35 38.8 30.75 Q38.7 30.35 38.95 30.0 39.15 29.6 39.65 29.5 L40.45 29.6" fill="#fcf3d8" fill-opacity="0.84313726" fill-rule="evenodd" stroke="none"/>
    </g>
    <g id="sprite0" transform="matrix(1.0, 0.0, 0.0, 1.0, 12.45, 13.95)">
      <use height="15.75" transform="matrix(1.0, 0.0, 0.0, 1.0, -12.45, -13.95)" width="25.2" xlink:href="#shape1"/>
    </g>
    <g id="shape1" transform="matrix(1.0, 0.0, 0.0, 1.0, 12.45, 13.95)">
      <path d="M6.6 -9.05 L0.3 -0.25 -1.2 -0.85 Q-8.0 -3.35 -12.45 -5.8 L-6.65 -13.95 Q-1.3 -11.6 6.6 -9.05 M9.95 -8.05 L12.75 -7.2 6.35 1.8 3.55 0.9 9.95 -8.05" fill="#ffc903" fill-rule="evenodd" stroke="none"/>
    </g>
  </defs>
</svg>
