<?xml version="1.0" encoding="UTF-8" standalone="no"?>
<svg xmlns:xlink="http://www.w3.org/1999/xlink" height="520.0px" width="520.0px" xmlns="http://www.w3.org/2000/svg">
  <g transform="matrix(10.0, 0.0, 0.0, 10.0, 0.0, 0.0)">
    <use height="52.0" transform="matrix(1.0, 0.0, 0.0, 1.0, 0.0, 0.0)" width="52.0" xlink:href="#shape0"/>
    <use height="136.85" transform="matrix(-0.0757, 0.1027, -0.0356, -0.0265, 37.2821, 21.0259)" width="148.25" xlink:href="#sprite0"/>
    <use height="136.85" transform="matrix(-0.0757, 0.1027, -0.0356, -0.0265, 24.6321, 14.9259)" width="148.25" xlink:href="#sprite0"/>
    <use height="136.85" transform="matrix(-0.0605, 0.082, -0.0251, -0.0187, 42.1253, 30.2837)" width="148.25" xlink:href="#sprite0"/>
    <use height="136.85" transform="matrix(0.0095, 0.0627, -0.0309, 0.0045, 41.4651, 34.0015)" width="148.25" xlink:href="#sprite0"/>
    <use height="136.85" transform="matrix(0.0095, 0.0627, -0.0309, 0.0045, 41.4651, 19.4015)" width="148.25" xlink:href="#sprite0"/>
    <use height="136.85" transform="matrix(0.0095, 0.0627, -0.0309, 0.0045, 36.3151, 7.5015)" width="148.25" xlink:href="#sprite0"/>
    <use height="20.95" transform="matrix(-0.7396, 0.0063, 0.0871, 0.944, 45.85, 14.35)" width="24.45" xlink:href="#sprite1"/>
    <use height="20.95" transform="matrix(-0.3438, 0.0953, 0.1584, 0.4289, 26.45, 22.75)" width="24.45" xlink:href="#sprite1"/>
    <use height="20.95" transform="matrix(-0.3438, 0.0953, 0.1584, 0.4289, 43.75, 33.5)" width="24.45" xlink:href="#sprite1"/>
    <use height="20.95" transform="matrix(-0.232, 0.002, 0.0273, 0.2961, 38.05, 12.85)" width="24.45" xlink:href="#sprite1"/>
  </g>
  <defs>
    <g id="shape0" transform="matrix(1.0, 0.0, 0.0, 1.0, 0.0, 0.0)">
      <path d="M52.0 0.0 L52.0 52.0 0.0 52.0 0.0 0.0 52.0 0.0" fill="#795fa9" fill-opacity="0.0" fill-rule="evenodd" stroke="none"/>
      <path d="M12.75 21.5 L10.5 24.8 Q10.2 26.45 8.85 27.65 L7.6 30.4 Q7.95 31.45 10.2 32.25 L11.2 32.6 10.15 32.4 Q8.05 31.95 6.55 30.45 L8.0 27.65 9.8 25.6 9.8 24.6 Q11.85 21.35 14.35 18.45 16.8 15.55 19.65 12.95 L19.75 12.9 24.55 8.6 26.7 7.1 Q28.9 5.9 31.0 5.95 28.65 6.65 27.8 7.4 27.15 7.95 27.45 8.6 30.35 8.35 33.2 10.4 L33.8 10.9 34.1 11.15 34.9 12.4 Q36.15 14.9 35.25 18.55 34.7 20.65 33.55 23.1 L34.95 23.25 Q36.05 23.4 36.95 23.85 38.9 24.75 39.8 26.85 L39.9 27.2 40.1 27.75 40.35 29.5 40.4 30.35 40.4 31.3 40.3 32.35 39.65 34.6 39.05 35.85 41.75 33.3 Q42.4 33.6 42.85 34.1 L43.2 34.55 42.85 34.5 Q41.75 34.55 40.9 35.75 L40.25 36.85 Q40.8 37.5 41.05 38.45 L40.45 39.2 Q40.25 37.85 39.5 36.95 L38.85 36.2 37.95 37.4 38.6 35.9 Q40.25 31.65 39.6 28.35 L39.55 28.1 39.45 27.7 Q38.85 28.25 38.3 29.95 37.8 31.25 37.35 33.25 37.6 31.8 38.0 30.3 L39.05 26.9 39.1 26.85 Q38.2 25.05 36.05 24.3 L34.45 23.9 33.25 23.8 31.85 26.55 31.25 27.5 31.15 27.65 30.8 28.25 29.95 29.55 31.0 27.5 31.05 27.5 31.7 26.2 Q35.0 19.25 34.75 14.3 34.35 12.25 32.85 10.95 L32.65 10.8 Q31.2 9.95 29.75 9.6 L26.25 9.45 24.55 9.9 Q21.65 11.7 19.3 13.85 17.8 15.15 16.5 16.6 L16.2 16.95 14.7 18.9 12.75 21.5 M39.8 45.3 L40.1 44.15 40.55 41.2 40.55 40.7 41.2 40.0 41.1 41.1 41.0 41.75 40.6 43.25 40.2 44.3 39.8 45.3" fill="#fff9c4" fill-rule="evenodd" stroke="none"/>
      <path d="M11.2 32.6 L10.2 32.25 Q7.95 31.45 7.6 30.4 L8.85 27.65 Q10.2 26.45 10.5 24.8 L12.75 21.5 Q14.25 21.05 14.05 24.4 L13.9 26.15 Q11.2 30.65 11.35 32.25 L11.2 32.6 M16.5 16.6 Q17.8 15.15 19.3 13.85 21.65 11.7 24.55 9.9 L26.25 9.45 Q27.9 11.65 27.15 13.4 26.0 13.5 24.85 14.25 L23.1 15.5 22.85 15.7 Q19.65 18.15 17.1 21.3 16.45 20.95 16.25 19.95 16.05 19.1 16.2 17.8 L16.5 16.6 M34.45 23.9 L36.05 24.3 Q36.4 25.45 36.2 27.1 36.0 28.55 35.4 30.4 34.5 28.8 33.1 28.35 L33.2 27.35 Q33.45 25.4 34.45 23.9 M39.5 36.95 Q40.25 37.85 40.45 39.2 L39.05 41.05 40.55 40.7 40.55 41.2 40.1 44.15 39.8 45.3 39.6 45.75 Q39.2 43.5 38.35 41.85 L38.25 40.15 Q38.2 38.9 38.45 38.15 38.75 37.1 39.5 36.95 M27.7 32.25 L27.4 32.6 26.55 33.5 26.05 34.0 26.0 34.05 26.1 31.15 24.75 35.15 24.15 35.55 Q23.1 36.0 21.65 34.45 20.35 33.15 21.25 32.45 L24.15 30.6 24.7 30.1 26.8 27.85 27.35 27.8 Q27.75 28.2 27.95 30.25 L27.7 32.25 M31.25 40.85 Q30.7 41.0 30.3 40.6 L29.8 39.6 29.6 38.85 30.7 38.7 31.3 38.45 32.75 37.5 32.15 39.7 32.2 39.7 32.15 39.8 31.9 40.15 31.25 40.85" fill="#dd9a05" fill-rule="evenodd" stroke="none"/>
      <path d="M29.95 29.55 L30.8 28.25 31.5 28.15 31.75 28.15 31.6 28.3 30.05 30.1 28.8 31.4 27.4 32.6 27.7 32.25 29.85 29.65 29.95 29.55 M11.2 32.6 L11.35 32.25 12.4 30.0 Q14.9 26.55 15.5 26.75 L13.9 29.95 11.2 32.6" fill="#6d3701" fill-rule="evenodd" stroke="none"/>
      <path d="M15.5 26.75 Q14.9 26.55 12.4 30.0 L12.7 29.45 Q14.75 25.55 17.4 22.25 19.3 19.85 21.55 17.7 L22.9 16.5 Q20.1 19.45 17.85 22.8 16.55 24.7 15.5 26.75" fill="#542b01" fill-rule="evenodd" stroke="none"/>
      <path d="M41.75 33.3 L39.05 35.85 39.65 34.6 40.3 32.35 40.45 32.05 Q42.45 28.7 42.9 30.15 L42.75 30.85 41.75 33.3 M36.95 23.85 Q36.05 23.4 34.95 23.25 L33.55 23.1 36.25 20.5 Q37.9 20.55 39.2 21.05 L39.8 21.3 39.2 21.35 Q36.85 21.65 36.85 23.05 L36.95 23.85 M35.25 18.55 Q36.15 14.9 34.9 12.4 35.8 9.45 37.85 10.2 L37.9 10.35 Q38.55 11.95 38.35 13.95 L37.75 16.75 Q35.55 20.75 35.25 18.55 M11.35 32.25 Q11.2 30.65 13.9 26.15 L16.45 22.15 Q16.0 21.55 15.95 20.65 L15.9 20.35 Q15.85 19.3 16.2 17.8 16.05 19.1 16.25 19.95 16.45 20.95 17.1 21.3 19.65 18.15 22.85 15.7 L23.1 15.5 24.85 14.25 Q26.0 13.5 27.15 13.4 28.35 13.3 29.55 14.05 27.15 13.1 23.4 16.05 L23.2 16.25 22.9 16.5 21.55 17.7 Q19.3 19.85 17.4 22.25 14.75 25.55 12.7 29.45 L12.4 30.0 11.35 32.25 M29.05 23.4 L29.65 21.9 Q30.65 19.1 30.95 16.1 L31.05 15.2 Q31.6 17.15 30.7 21.25 L30.15 22.95 29.8 23.65 29.2 24.8 28.25 26.25 28.1 26.45 27.55 27.0 27.9 27.75 Q28.1 28.6 27.95 30.25 27.75 28.2 27.35 27.8 L26.8 27.85 24.7 30.1 24.15 30.6 21.25 32.45 20.3 32.8 Q20.8 31.2 21.9 29.95 L22.8 28.9 23.6 28.1 24.9 27.0 26.45 25.9 27.15 25.45 28.8 24.0 29.05 23.4 M27.2 26.35 L27.85 25.55 28.35 24.85 28.7 24.15 28.8 24.0 28.7 24.15 28.35 24.85 27.85 25.55 27.2 26.35 24.95 27.45 22.8 29.45 Q21.45 30.8 21.1 31.9 L21.85 31.4 23.05 30.5 23.7 30.0 24.35 29.45 25.9 27.9 26.15 27.65 26.65 27.05 27.2 26.35 M35.6 31.9 L35.5 33.35 35.4 33.75 35.35 34.0 Q34.9 35.5 33.7 36.7 L33.45 37.35 32.2 39.7 32.15 39.7 32.75 37.5 31.3 38.45 30.7 38.7 29.6 38.85 29.8 39.6 30.3 40.6 Q30.7 41.0 31.25 40.85 L30.7 41.35 30.55 41.45 Q29.0 40.5 29.1 38.75 L29.2 38.5 29.7 37.4 Q30.35 36.1 31.35 35.35 31.75 35.0 32.25 34.75 L32.5 34.65 Q32.9 34.45 33.3 34.35 L34.85 33.0 34.85 32.95 Q35.35 32.4 35.2 32.05 L35.6 31.9 35.15 33.45 35.15 33.5 34.85 34.05 34.8 34.2 34.6 34.55 34.8 34.2 34.85 34.05 35.15 33.5 35.15 33.45 35.6 31.9 M34.25 35.0 L34.4 34.85 34.6 34.55 34.5 34.5 Q33.9 34.4 32.8 35.0 L32.45 35.2 30.85 36.5 Q29.7 37.75 30.35 38.1 30.75 38.4 32.35 37.05 L32.6 36.85 33.05 36.45 34.25 35.0 M39.6 45.75 L39.8 45.3 40.2 44.3 40.6 43.25 41.65 42.2 42.2 41.8 Q42.7 41.45 43.05 41.45 L42.3 43.15 39.6 45.75" fill="#ffe317" fill-rule="evenodd" stroke="none"/>
      <path d="M41.05 38.45 Q40.8 37.5 40.25 36.85 L40.9 35.75 Q41.75 34.55 42.85 34.5 L43.2 34.55 Q44.15 35.9 43.9 38.1 42.95 40.4 42.25 41.1 41.85 41.45 41.55 41.4 L41.1 41.1 41.2 40.0 41.6 39.5 41.75 36.95 41.05 38.45 M40.35 29.5 L40.1 27.75 39.9 27.2 39.8 26.85 Q38.9 24.75 36.95 23.85 L36.85 23.05 Q37.8 21.8 39.25 21.75 40.9 22.25 42.6 24.7 L42.7 24.85 43.05 26.6 43.05 26.7 Q41.8 29.85 40.35 29.5 M33.8 10.9 L33.2 10.4 Q30.35 8.35 27.45 8.6 27.15 7.95 27.8 7.4 28.65 6.65 31.0 5.95 L32.5 6.15 32.55 8.35 34.8 7.1 34.85 7.1 35.15 7.3 36.85 8.6 36.0 9.65 Q35.2 10.35 33.8 10.9 M20.3 32.8 L21.25 32.45 Q20.35 33.15 21.65 34.45 23.1 36.0 24.15 35.55 L22.75 36.2 Q20.75 34.75 20.3 32.8 M30.55 41.45 L30.7 41.35 31.25 40.85 31.9 40.15 32.15 39.8 32.2 39.7 32.1 39.95 31.95 40.25 Q31.3 42.0 32.45 42.0 L32.2 42.1 30.85 41.6 30.55 41.45" fill="#fef081" fill-rule="evenodd" stroke="none"/>
      <path d="M40.3 32.35 L40.4 31.3 40.4 30.35 40.35 29.5 Q41.8 29.85 43.05 26.7 L43.15 27.75 42.9 30.15 Q42.45 28.7 40.45 32.05 L40.3 32.35 M34.9 12.4 L34.1 11.15 33.8 10.9 Q35.2 10.35 36.0 9.65 L36.85 8.6 37.85 10.15 37.85 10.2 Q35.8 9.45 34.9 12.4 M32.55 8.35 L32.5 6.15 33.35 7.1 32.55 8.35" fill="#c18702" fill-rule="evenodd" stroke="none"/>
      <path d="M34.8 7.1 L32.55 8.35 33.35 7.1 34.8 7.1 M39.8 21.3 L40.9 22.0 Q42.1 23.0 42.65 24.65 L42.7 24.85 42.6 24.7 Q40.9 22.25 39.25 21.75 37.8 21.8 36.85 23.05 36.85 21.65 39.2 21.35 L39.8 21.3 M24.9 27.0 L27.4 24.55 28.45 23.8 29.05 23.4 28.8 24.0 27.15 25.45 26.45 25.9 24.9 27.0 M26.1 31.15 L26.0 34.05 25.55 34.05 26.1 31.15 M35.2 32.05 Q35.35 32.4 34.85 32.95 L34.85 33.0 33.3 34.35 Q32.9 34.45 32.5 34.65 L32.25 34.75 Q31.75 35.0 31.35 35.35 L33.5 33.25 34.5 32.45 34.6 32.4 Q34.85 32.2 35.2 32.05 M40.55 40.7 L39.05 41.05 41.2 39.15 41.2 39.1 41.75 36.95 41.6 39.5 41.2 40.0 40.55 40.7" fill="#fffbdd" fill-rule="evenodd" stroke="none"/>
      <path d="M29.75 9.6 Q31.2 9.95 32.65 10.8 L32.85 10.95 Q34.35 12.25 34.75 14.3 35.0 19.25 31.7 26.2 L31.05 27.5 31.0 27.5 29.95 29.55 Q29.5 28.85 29.4 27.65 L29.5 25.3 29.8 23.65 30.15 22.95 30.7 21.25 Q31.6 17.15 31.05 15.2 L30.5 14.65 Q30.1 14.3 29.7 14.1 27.8 10.8 29.75 9.6 M37.35 33.25 Q37.8 31.25 38.3 29.95 38.85 28.25 39.45 27.7 L39.55 28.1 39.6 28.35 Q40.25 31.65 38.6 35.9 L37.95 37.4 37.9 37.45 37.7 37.7 37.45 38.05 37.3 38.2 37.15 38.35 37.15 37.85 37.15 37.6 37.1 36.25 37.35 33.25" fill="#d86d05" fill-rule="evenodd" stroke="none"/>
      <path d="M26.25 9.45 L29.75 9.6 Q27.8 10.8 29.7 14.1 L29.55 14.05 Q28.35 13.3 27.15 13.4 27.9 11.65 26.25 9.45 M30.8 28.25 L31.15 27.65 31.25 27.5 31.85 26.55 33.25 23.8 34.45 23.9 Q33.45 25.4 33.2 27.35 L33.1 28.35 32.65 28.25 31.75 28.15 31.5 28.15 30.8 28.25 M37.95 37.4 L38.85 36.2 39.5 36.95 Q38.75 37.1 38.45 38.15 38.2 38.9 38.25 40.15 L38.35 41.85 Q37.55 40.3 36.35 39.25 L37.15 38.35 37.3 38.2 37.45 38.05 37.7 37.7 37.9 37.45 37.95 37.4 M40.45 39.2 L41.05 38.45 41.75 36.95 41.2 39.1 41.2 39.15 39.05 41.05 40.45 39.2 M24.75 35.15 L26.1 31.15 25.55 34.05 24.75 35.15" fill="#7d4b02" fill-rule="evenodd" stroke="none"/>
      <path d="M26.65 27.05 L26.15 27.65 25.9 27.9 24.35 29.45 23.7 30.0 23.05 30.5 21.85 31.4 Q21.7 31.3 22.55 30.25 L23.25 29.45 24.0 28.75 24.1 28.65 25.2 27.95 Q25.8 27.55 26.65 27.05 M34.25 35.0 L33.05 36.45 32.6 36.85 32.35 37.05 Q30.75 38.4 30.35 38.1 31.5 36.4 32.65 35.65 33.35 35.15 34.1 35.05 L34.25 35.0" fill="#874301" fill-rule="evenodd" stroke="none"/>
      <path d="M12.75 21.5 L14.7 18.9 16.2 16.95 16.5 16.6 16.2 17.8 Q15.85 19.3 15.9 20.35 L15.95 20.65 Q16.0 21.55 16.45 22.15 L13.9 26.15 14.05 24.4 Q14.25 21.05 12.75 21.5 M36.05 24.3 Q38.2 25.05 39.1 26.85 L39.05 26.9 38.0 30.3 Q37.6 31.8 37.35 33.25 L37.1 36.25 37.15 37.6 37.15 37.85 37.15 38.35 36.35 39.25 34.95 40.45 34.5 40.8 33.1 41.65 32.45 42.0 Q31.3 42.0 31.95 40.25 L32.1 39.95 32.2 39.7 33.45 37.35 33.7 36.7 Q34.9 35.5 35.35 34.0 L35.4 33.75 35.5 33.35 35.6 31.9 35.7 30.9 35.4 30.4 Q36.0 28.55 36.2 27.1 36.4 25.45 36.05 24.3 M29.8 23.65 L29.5 25.3 29.4 27.65 Q29.5 28.85 29.95 29.55 L29.85 29.65 27.7 32.25 27.95 30.25 Q28.1 28.6 27.9 27.75 L27.55 27.0 28.1 26.45 28.25 26.25 29.2 24.8 29.8 23.65" fill="#a67504" fill-rule="evenodd" stroke="none"/>
      <path d="M27.2 26.35 L26.65 27.05 Q25.8 27.55 25.2 27.95 L24.1 28.65 24.0 28.75 23.25 29.45 22.55 30.25 Q21.7 31.3 21.85 31.4 L21.1 31.9 Q21.45 30.8 22.8 29.45 L24.95 27.45 27.2 26.35 M34.6 34.55 L34.4 34.85 34.25 35.0 34.1 35.05 Q33.35 35.15 32.65 35.65 31.5 36.4 30.35 38.1 29.7 37.75 30.85 36.5 L32.45 35.2 32.8 35.0 Q33.9 34.4 34.5 34.5 L34.6 34.55" fill="#fdb713" fill-rule="evenodd" stroke="none"/>
      <path d="M33.55 23.1 Q34.7 20.65 35.25 18.55 35.55 20.75 37.75 16.75 L36.25 20.5 33.55 23.1 M43.9 38.1 Q43.75 39.6 43.05 41.45 42.7 41.45 42.2 41.8 L41.65 42.2 40.6 43.25 41.0 41.75 41.1 41.1 41.55 41.4 Q41.85 41.45 42.25 41.1 42.95 40.4 43.9 38.1" fill="#eca602" fill-rule="evenodd" stroke="none"/>
      <path d="M30.8 28.25 L31.15 27.65 31.25 27.5 31.85 26.55 33.25 23.8 M37.95 37.4 L38.85 36.2 M43.2 34.55 L42.85 34.1 Q42.4 33.6 41.75 33.3 M31.0 5.95 Q28.9 5.9 26.7 7.1 L24.55 8.6 19.75 12.9 19.65 12.95 Q16.8 15.55 14.35 18.45 11.85 21.35 9.8 24.6 L9.8 25.6 8.0 27.65 6.55 30.45 Q8.05 31.95 10.15 32.4 L11.2 32.6 11.35 32.25 M11.2 32.6 L13.9 29.95 15.5 26.75 Q16.55 24.7 17.85 22.8 20.1 19.45 22.9 16.5 L23.2 16.25 23.4 16.05 Q27.15 13.1 29.55 14.05 M36.85 8.6 L35.15 7.3 34.85 7.1 34.8 7.1 M32.5 6.15 L31.0 5.95 M36.85 8.6 L37.85 10.15 37.85 10.2 37.9 10.35 Q38.55 11.95 38.35 13.95 L37.75 16.75 36.25 20.5 Q37.9 20.55 39.2 21.05 L39.8 21.3 40.9 22.0 Q42.1 23.0 42.65 24.65 L42.7 24.85 43.05 26.6 43.05 26.7 43.15 27.75 42.9 30.15 42.75 30.85 41.75 33.3 M32.5 6.15 L33.35 7.1 34.8 7.1 M29.7 14.1 L29.55 14.05 M31.05 15.2 L30.5 14.65 Q30.1 14.3 29.7 14.1 M29.05 23.4 L29.65 21.9 Q30.65 19.1 30.95 16.1 L31.05 15.2 M27.7 32.25 L27.4 32.6 28.8 31.4 30.05 30.1 31.6 28.3 31.75 28.15 31.5 28.15 30.8 28.25 M24.9 27.0 L27.4 24.55 28.45 23.8 29.05 23.4 28.8 24.0 28.7 24.15 28.35 24.85 27.85 25.55 27.2 26.35 26.65 27.05 26.15 27.65 25.9 27.9 24.35 29.45 23.7 30.0 23.05 30.5 21.85 31.4 M24.9 27.0 L23.6 28.1 22.8 28.9 21.9 29.95 Q20.8 31.2 20.3 32.8 M33.1 28.35 L32.65 28.25 31.75 28.15 M24.15 35.55 L24.75 35.15 M26.0 34.05 L26.05 34.0 26.55 33.5 27.4 32.6 M24.15 35.55 L22.75 36.2 Q20.75 34.75 20.3 32.8 M26.0 34.05 L25.55 34.05 24.75 35.15 M35.6 31.9 L35.15 33.45 35.15 33.5 34.85 34.05 34.8 34.2 34.6 34.55 34.4 34.85 34.25 35.0 33.05 36.45 32.6 36.85 32.35 37.05 Q30.75 38.4 30.35 38.1 M31.35 35.35 Q30.35 36.1 29.7 37.4 L29.2 38.5 29.1 38.75 Q29.0 40.5 30.55 41.45 M32.45 42.0 L33.1 41.65 34.5 40.8 34.95 40.45 36.35 39.25 37.15 38.35 M35.2 32.05 Q34.85 32.2 34.6 32.4 L34.5 32.45 33.5 33.25 31.35 35.35 M33.1 28.35 Q34.5 28.8 35.4 30.4 M35.6 31.9 L35.7 30.9 35.4 30.4 M35.6 31.9 L35.2 32.05 M37.95 37.4 L37.9 37.45 37.7 37.7 37.45 38.05 37.3 38.2 37.15 38.35 M38.35 41.85 Q39.2 43.5 39.6 45.75 M43.2 34.55 Q44.15 35.9 43.9 38.1 43.75 39.6 43.05 41.45 L42.3 43.15 39.6 45.75 M32.45 42.0 L32.2 42.1 30.85 41.6 30.55 41.45 M38.35 41.85 Q37.55 40.3 36.35 39.25" fill="none" stroke="#000000" stroke-linecap="round" stroke-linejoin="round" stroke-opacity="0.3019608" stroke-width="0.5"/>
    </g>
    <g id="sprite0" transform="matrix(1.0, 0.0, 0.0, 1.0, 73.5, 65.0)">
      <use height="136.85" transform="matrix(1.0, 0.0, 0.0, 1.0, -73.5, -65.0)" width="148.25" xlink:href="#shape1"/>
    </g>
    <g id="shape1" transform="matrix(1.0, 0.0, 0.0, 1.0, 73.5, 65.0)">
      <path d="M36.65 -54.65 Q60.05 -42.0 69.75 -17.95 80.55 8.9 68.0 34.1 55.45 59.35 26.8 68.2 -1.8 77.05 -29.7 64.3 -57.6 51.6 -68.45 24.75 -79.3 -2.05 -66.75 -27.25 L-66.7 -27.3 Q-54.1 -52.5 -25.5 -61.4 3.1 -70.2 31.0 -57.5 L36.65 -54.65" fill="url(#gradient0)" fill-rule="evenodd" stroke="none"/>
    </g>
    <radialGradient cx="0" cy="0" gradientTransform="matrix(0.0914, 0.0, 0.0, 0.0914, 0.6, 3.4)" gradientUnits="userSpaceOnUse" id="gradient0" r="819.2" spreadMethod="pad">
      <stop offset="0.0" stop-color="#ffffff"/>
      <stop offset="1.0" stop-color="#ffffff" stop-opacity="0.0"/>
    </radialGradient>
    <g id="sprite1" transform="matrix(1.0, 0.0, 0.0, 1.0, 0.0, 0.0)">
      <use height="20.95" transform="matrix(1.0, 0.0, 0.0, 1.0, 0.0, 0.0)" width="24.45" xlink:href="#shape2"/>
    </g>
    <g id="shape2" transform="matrix(1.0, 0.0, 0.0, 1.0, 0.0, 0.0)">
      <path d="M14.85 11.4 Q15.8 11.6 16.25 12.45 16.85 13.3 16.6 14.35 16.4 15.3 15.55 15.9 14.65 16.4 13.65 16.2 12.65 15.9 12.1 15.1 11.6 14.2 11.8 13.2 12.1 12.2 12.9 11.65 13.8 11.15 14.85 11.4" fill="#ffffff" fill-opacity="0.7882353" fill-rule="evenodd" stroke="none"/>
      <path d="M14.85 11.4 Q13.8 11.15 12.9 11.65 12.1 12.2 11.8 13.2 11.6 14.2 12.1 15.1 12.65 15.9 13.65 16.2 14.65 16.4 15.55 15.9 16.4 15.3 16.6 14.35 16.85 13.3 16.25 12.45 15.8 11.6 14.85 11.4 M18.2 11.35 L20.15 11.25 18.75 12.55 Q19.05 13.8 18.8 15.05 18.5 16.35 17.65 17.3 L19.1 20.95 16.55 18.25 Q14.8 19.3 12.8 18.85 10.8 18.35 9.75 16.65 9.05 15.5 8.95 14.3 7.75 12.4 4.95 11.55 L9.7 11.4 Q10.3 10.4 11.35 9.75 13.1 8.75 15.1 9.15 16.95 9.5 18.1 11.15 L18.2 11.35" fill="#ffffff" fill-opacity="0.23529412" fill-rule="evenodd" stroke="none"/>
      <path d="M15.4 13.55 L18.1 17.55 13.35 14.65 7.05 18.5 12.75 13.55 0.0 0.0 14.25 12.25 24.45 5.95 15.4 13.55" fill="#ffffff" fill-opacity="0.7882353" fill-rule="evenodd" stroke="none"/>
    </g>
  </defs>
</svg>
