<?xml version="1.0" encoding="UTF-8" standalone="no"?>
<svg xmlns:xlink="http://www.w3.org/1999/xlink" height="520.0px" width="520.0px" xmlns="http://www.w3.org/2000/svg">
  <g transform="matrix(10.0, 0.0, 0.0, 10.0, 0.0, 0.0)">
    <use height="52.0" transform="matrix(1.0, 0.0, 0.0, 1.0, 0.0, 0.0)" width="52.0" xlink:href="#shape0"/>
    <use height="20.95" transform="matrix(0.0528, 0.4502, 0.5029, -0.0662, 27.05, 24.6)" width="24.45" xlink:href="#sprite0"/>
    <use height="20.95" transform="matrix(0.0881, 0.752, 0.84, -0.1107, 12.4, 4.45)" width="24.45" xlink:href="#sprite0"/>
  </g>
  <defs>
    <g id="shape0" transform="matrix(1.0, 0.0, 0.0, 1.0, 0.0, 0.0)">
      <path d="M0.0 52.0 L0.0 0.0 52.0 0.0 52.0 52.0 0.0 52.0" fill="#33cc33" fill-opacity="0.0" fill-rule="evenodd" stroke="none"/>
      <path d="M9.85 24.85 L10.1 17.15 Q15.45 12.65 16.55 4.9 L23.4 7.55 30.3 11.2 Q29.45 15.95 26.45 19.45 21.6 25.0 12.65 25.0 L9.85 24.85 M21.7 9.2 L18.5 8.4 17.8 8.4 17.2 9.75 Q16.8 11.25 16.8 13.3 16.8 15.05 17.5 15.5 L18.3 15.7 20.65 15.35 23.2 14.9 Q24.25 14.8 24.6 14.3 L24.85 13.0 Q24.85 10.5 21.7 9.2 M39.65 34.25 Q39.65 35.85 38.7 38.15 37.45 41.0 35.65 41.0 34.0 41.0 31.8 39.55 L27.75 36.85 27.75 36.75 Q27.75 34.15 31.1 33.75 33.2 33.5 34.4 31.9 L35.2 30.45 Q35.65 29.7 36.25 29.7 37.0 29.7 38.1 30.65 39.65 32.05 39.65 34.25" fill="#ffcc00" fill-rule="evenodd" stroke="none"/>
      <path d="M16.55 4.9 L16.5 4.85 20.75 2.95 43.75 11.85 40.6 13.35 23.4 7.55 16.55 4.9 M14.15 33.1 L9.7 30.55 9.85 24.85 12.65 25.0 Q21.6 25.0 26.45 19.45 29.45 15.95 30.3 11.2 L39.35 16.05 Q39.15 19.25 39.6 22.15 L38.9 22.5 Q35.5 23.9 27.5 24.8 21.2 25.45 16.55 30.2 15.05 31.75 14.15 33.1 M42.25 30.1 L42.25 30.05 44.5 30.95 41.5 37.05 39.05 42.05 42.25 30.1" fill="#fee481" fill-rule="evenodd" stroke="none"/>
      <path d="M44.6 23.85 L45.75 26.75 47.3 29.6 44.5 30.95 42.25 30.05 42.25 30.1 42.25 30.05 Q41.1 27.95 40.4 25.7 L40.8 24.95 Q42.7 21.4 44.6 23.85 M19.05 35.95 L14.15 33.1 Q15.05 31.75 16.55 30.2 21.2 25.45 27.5 24.8 35.5 23.9 38.9 22.5 L39.6 22.15 39.65 22.5 40.2 24.9 39.95 24.9 Q32.7 24.9 26.45 27.85 19.75 31.05 19.05 35.95 M39.6 13.9 L39.5 13.9 39.6 13.85 39.6 13.9" fill="#d89500" fill-rule="evenodd" stroke="none"/>
      <path d="M43.75 11.85 Q43.25 15.5 43.6 18.85 L43.85 20.6 43.1 19.55 Q41.0 17.15 39.75 22.1 L39.65 22.5 39.6 22.15 Q39.15 19.25 39.35 16.05 L40.6 13.35 43.75 11.85 M47.3 29.6 L44.6 35.65 Q43.8 34.55 41.5 37.05 L44.5 30.95 47.3 29.6" fill="#744c12" fill-rule="evenodd" stroke="none"/>
      <path d="M43.85 20.6 L44.6 23.85 Q42.7 21.4 40.8 24.95 L40.4 25.7 40.2 24.9 39.65 22.5 39.75 22.1 Q41.0 17.15 43.1 19.55 L43.85 20.6 M44.6 35.65 L41.05 43.85 37.45 46.0 39.05 42.05 41.5 37.05 Q43.8 34.55 44.6 35.65" fill="#ba8201" fill-rule="evenodd" stroke="none"/>
      <path d="M23.4 7.55 L40.6 13.35 39.35 16.05 30.3 11.2 23.4 7.55 M39.6 13.9 L39.6 13.85 39.5 13.9 39.6 13.9" fill="#ffffff" fill-rule="evenodd" stroke="none"/>
      <path d="M37.45 46.0 L37.1 46.25 Q28.1 41.05 19.05 35.95 19.75 31.05 26.45 27.85 32.7 24.9 39.95 24.9 L40.2 24.9 40.4 25.7 Q41.1 27.95 42.25 30.05 L42.25 30.1 39.05 42.05 37.45 46.0 M39.65 34.25 Q39.65 32.05 38.1 30.65 37.0 29.7 36.25 29.7 35.65 29.7 35.2 30.45 L34.4 31.9 Q33.2 33.5 31.1 33.75 27.75 34.15 27.75 36.75 L27.75 36.85 31.8 39.55 Q34.0 41.0 35.65 41.0 37.45 41.0 38.7 38.15 39.65 35.85 39.65 34.25" fill="#fdb914" fill-rule="evenodd" stroke="none"/>
      <path d="M21.7 9.2 Q24.85 10.5 24.85 13.0 L24.6 14.3 Q24.25 14.8 23.2 14.9 L20.65 15.35 18.3 15.7 17.5 15.5 Q16.8 15.05 16.8 13.3 16.8 11.25 17.2 9.75 L17.8 8.4 18.5 8.4 21.7 9.2" fill="#ffd32e" fill-rule="evenodd" stroke="none"/>
      <path d="M16.55 4.9 L16.5 4.85 20.75 2.95 43.75 11.85 Q43.25 15.5 43.6 18.85 L43.85 20.6 44.6 23.85 45.75 26.75 47.3 29.6 44.6 35.65 41.05 43.85 37.45 46.0 37.1 46.25 Q28.1 41.05 19.05 35.95 L14.15 33.1 9.7 30.55 9.85 24.85 10.1 17.15 Q15.45 12.65 16.55 4.9 Z" fill="none" stroke="#000000" stroke-linecap="round" stroke-linejoin="round" stroke-opacity="0.3019608" stroke-width="0.5"/>
      <path d="M18.6 16.5 Q19.4 16.9 20.25 18.3 L20.3 18.4 20.3 18.55 20.25 18.5 19.85 18.1 19.15 18.0 18.95 18.25 Q18.7 19.85 20.25 19.7 L20.3 23.35 Q19.4 22.9 18.6 21.35 L18.6 16.5 M20.25 18.5 L20.25 18.3 20.25 18.5" fill="#744c12" fill-rule="evenodd" stroke="none"/>
      <path d="M20.3 23.35 L20.3 23.8 Q18.75 24.65 17.25 21.8 L18.6 21.35 Q19.4 22.9 20.3 23.35" fill="#452c0b" fill-rule="evenodd" stroke="none"/>
      <path d="M17.25 21.8 L17.25 16.45 18.6 16.5 18.6 21.35 17.25 21.8" fill="#3b2409" fill-rule="evenodd" stroke="none"/>
      <path d="M17.25 21.8 L17.25 16.45 18.6 16.5 Q19.4 16.9 20.25 18.3 L20.25 18.5 19.85 18.1 19.15 18.0 18.95 18.25 Q18.7 19.85 20.25 19.7 L20.3 23.35 20.3 23.8 Q18.75 24.65 17.25 21.8 Z" fill="none" stroke="#000000" stroke-linecap="round" stroke-linejoin="round" stroke-opacity="0.15294118" stroke-width="0.25"/>
      <path d="M27.25 20.0 Q28.05 20.4 28.9 21.8 L28.95 21.9 28.95 22.05 28.9 22.0 28.5 21.6 27.8 21.5 27.6 21.75 Q27.35 23.35 28.9 23.2 L28.95 26.85 Q28.05 26.4 27.25 24.85 L27.25 20.0 M28.9 22.0 L28.9 21.8 28.9 22.0" fill="#744c12" fill-rule="evenodd" stroke="none"/>
      <path d="M28.95 26.85 L28.95 27.3 Q27.4 28.15 25.9 25.3 L27.25 24.85 Q28.05 26.4 28.95 26.85" fill="#452c0b" fill-rule="evenodd" stroke="none"/>
      <path d="M25.9 25.3 L25.9 19.95 27.25 20.0 27.25 24.85 25.9 25.3" fill="#3b2409" fill-rule="evenodd" stroke="none"/>
      <path d="M25.9 25.3 L25.9 19.95 27.25 20.0 Q28.05 20.4 28.9 21.8 L28.9 22.0 28.5 21.6 27.8 21.5 27.6 21.75 Q27.35 23.35 28.9 23.2 L28.95 26.85 28.95 27.3 Q27.4 28.15 25.9 25.3 Z" fill="none" stroke="#000000" stroke-linecap="round" stroke-linejoin="round" stroke-opacity="0.15294118" stroke-width="0.25"/>
      <path d="M13.4 27.85 L11.95 26.8 11.9 26.8 11.35 27.7 3.6 23.55 9.65 22.75 13.55 25.2 13.55 25.6 15.2 28.25 14.1 28.3 13.4 27.85 M36.2 34.3 L37.35 34.75 38.2 35.05 38.2 35.35 37.85 35.55 37.35 34.75 36.35 36.2 35.2 36.7 32.65 36.8 16.35 29.9 18.1 29.6 19.7 30.15 25.15 30.35 27.55 31.25 27.55 33.45 29.45 34.15 33.4 35.65 33.65 35.55 36.15 34.35 36.2 34.3 M12.45 44.35 L5.1 40.15 4.05 37.45 4.05 37.05 Q7.95 35.65 10.8 34.35 L13.65 35.8 13.7 34.45 21.7 37.9 13.7 33.95 13.7 33.9 13.65 33.9 12.35 34.4 11.55 33.95 12.85 33.3 13.8 32.8 13.7 33.9 14.15 32.6 16.3 31.4 32.65 36.8 33.05 40.3 33.05 41.3 28.9 41.0 Q21.65 41.0 15.25 43.65 L14.1 36.4 12.45 44.35" fill="#fee481" fill-rule="evenodd" stroke="none"/>
      <path d="M9.0 32.7 L11.45 30.95 Q12.95 29.4 13.4 27.85 L14.1 28.3 13.8 32.8 14.15 32.6 14.75 30.85 16.3 31.4 14.15 32.6 13.7 33.9 13.8 32.8 12.85 33.3 11.55 33.95 9.0 32.7 M37.7 41.15 L37.45 42.4 37.45 42.55 36.75 47.0 33.15 49.5 33.1 47.3 33.45 45.65 Q36.05 39.85 37.7 41.15 M18.0 46.55 L16.45 45.8 15.35 43.85 14.35 44.0 15.25 43.65 Q21.65 41.0 28.9 41.0 L33.05 41.3 33.05 41.7 31.85 41.65 Q25.45 41.65 21.45 43.4 18.0 44.9 18.0 46.55 M4.05 37.05 L4.05 33.55 4.5 33.55 8.15 33.0 10.8 34.35 Q7.95 35.65 4.05 37.05" fill="#d89500" fill-rule="evenodd" stroke="none"/>
      <path d="M11.35 27.7 L11.9 26.8 11.95 26.8 13.4 27.85 Q12.95 29.4 11.45 30.95 L9.0 32.7 3.35 29.75 2.7 29.45 2.65 25.2 11.35 27.7 M4.05 33.55 L4.05 30.9 8.15 33.0 4.5 33.55 4.05 33.55" fill="#ffcc00" fill-rule="evenodd" stroke="none"/>
      <path d="M13.7 33.95 L13.65 33.9 13.7 33.9 13.7 33.95" fill="#37392d" fill-rule="evenodd" stroke="none"/>
      <path d="M36.85 32.5 L36.2 34.3 36.15 34.35 33.65 35.55 33.9 34.7 Q36.65 30.3 36.85 32.5 M34.8 30.45 L34.8 30.4 34.8 30.45" fill="#4b0117" fill-rule="evenodd" stroke="none"/>
      <path d="M34.05 32.35 L34.05 33.8 Q32.85 35.3 29.45 34.15 L27.55 33.45 27.55 31.25 27.55 30.3 Q31.55 28.2 34.05 32.35 M30.25 30.7 L29.35 30.45 29.1 30.4 Q28.25 30.4 28.1 31.05 L28.05 32.0 28.15 32.65 28.7 32.8 30.55 32.2 Q31.15 32.05 31.15 31.65 31.15 31.1 30.25 30.7" fill="#db0244" fill-rule="evenodd" stroke="none"/>
      <path d="M34.35 27.35 L37.45 28.35 Q37.2 28.9 35.1 29.25 L31.75 28.45 Q30.4 26.6 34.35 27.35" fill="#fd608f" fill-rule="evenodd" stroke="none"/>
      <path d="M27.55 27.9 L28.4 26.75 Q29.65 27.7 31.5 28.35 L31.75 28.45 35.1 29.25 Q37.2 28.9 37.45 28.35 L37.5 28.85 37.8 29.8 35.6 30.15 Q34.6 31.6 34.15 33.5 L34.05 33.8 34.05 32.35 34.05 30.05 33.95 30.0 Q31.1 28.55 27.55 27.9 M34.8 30.45 L34.8 30.4 34.8 30.45" fill="#ffa1a1" fill-rule="evenodd" stroke="none"/>
      <path d="M27.55 27.9 Q31.1 28.55 33.95 30.0 L34.05 30.05 34.05 32.35 Q31.55 28.2 27.55 30.3 L27.55 27.9" fill="#b30230" fill-rule="evenodd" stroke="none"/>
      <path d="M28.4 26.75 L30.65 26.1 34.35 27.35 Q30.4 26.6 31.75 28.45 L31.5 28.35 Q29.65 27.7 28.4 26.75" fill="#fd3e77" fill-rule="evenodd" stroke="none"/>
      <path d="M33.65 35.55 L33.4 35.65 29.45 34.15 Q32.85 35.3 34.05 33.8 L33.9 34.7 33.65 35.55" fill="#cf0238" fill-rule="evenodd" stroke="none"/>
      <path d="M37.8 29.8 L36.85 32.5 Q36.65 30.3 33.9 34.7 L34.05 33.8 34.15 33.5 Q34.6 31.6 35.6 30.15 L37.8 29.8" fill="#3d0110" fill-rule="evenodd" stroke="none"/>
      <path d="M30.25 30.7 Q31.15 31.1 31.15 31.65 31.15 32.05 30.55 32.2 L28.7 32.8 28.15 32.65 28.05 32.0 28.1 31.05 Q28.25 30.4 29.1 30.4 L29.35 30.45 30.25 30.7" fill="#f20241" fill-rule="evenodd" stroke="none"/>
      <path d="M3.35 29.75 L9.0 32.7 11.55 33.95 12.35 34.4 13.65 33.9 13.7 33.95 21.7 37.9 13.7 34.45 13.65 35.8 10.8 34.35 8.15 33.0 4.05 30.9 4.05 30.8 4.0 30.8 3.35 29.75 M14.1 28.3 L15.2 28.25 15.45 28.7 18.1 29.6 16.35 29.9 14.75 30.85 14.15 32.6 13.8 32.8 14.1 28.3 M38.45 36.5 L37.7 41.15 Q36.05 39.85 33.45 45.65 L35.2 36.7 36.35 36.2 38.45 36.5 M14.35 44.0 L12.45 44.35 14.1 36.4 15.25 43.65 14.35 44.0" fill="#744c12" fill-rule="evenodd" stroke="none"/>
      <path d="M37.85 35.55 L38.45 36.5 36.35 36.2 37.35 34.75 37.85 35.55 M32.65 36.8 L35.2 36.7 33.45 45.65 33.1 47.3 33.05 41.7 33.05 41.3 33.05 40.3 32.65 36.8" fill="#d88305" fill-rule="evenodd" stroke="none"/>
      <path d="M11.35 27.7 L2.65 25.2 3.6 23.55 11.35 27.7 M16.35 29.9 L32.65 36.8 16.3 31.4 14.75 30.85 16.35 29.9" fill="#ffffff" fill-rule="evenodd" stroke="none"/>
      <path d="M33.15 49.5 L33.15 49.55 25.3 49.85 18.0 46.55 Q18.0 44.9 21.45 43.4 25.45 41.65 31.85 41.65 L33.05 41.7 33.1 47.3 33.15 49.5" fill="#fdb914" fill-rule="evenodd" stroke="none"/>
      <path d="M2.65 25.2 L2.7 29.45 3.35 29.75 M9.65 22.75 L3.6 23.55 M36.75 47.0 L33.15 49.5 33.15 49.55 25.3 49.85 18.0 46.55 16.45 45.8 15.35 43.85 14.35 44.0 12.45 44.35 5.1 40.15 4.05 37.45 4.05 37.05 4.05 33.55 4.05 30.9 4.05 30.8 4.0 30.8 3.35 29.75 M2.65 25.2 L3.6 23.55" fill="none" stroke="#000000" stroke-linecap="round" stroke-linejoin="round" stroke-opacity="0.3019608" stroke-width="0.5"/>
      <path d="M13.55 25.2 L9.65 22.75 M27.55 27.9 L28.4 26.75 30.65 26.1 34.35 27.35 37.45 28.35 37.5 28.85 37.8 29.8 36.85 32.5 36.2 34.3 37.35 34.75 37.85 35.55 38.45 36.5 37.7 41.15 37.45 42.4 M37.45 42.55 L36.75 47.0 M33.65 35.55 L36.15 34.35 36.2 34.3 M29.45 34.15 L33.4 35.65 33.65 35.55 M29.45 34.15 L27.55 33.45 27.55 31.25 25.15 30.35 M27.55 31.25 L27.55 30.3 27.55 27.9" fill="none" stroke="#000000" stroke-linecap="round" stroke-linejoin="round" stroke-opacity="0.15294118" stroke-width="0.25"/>
      <path d="M15.45 28.7 L13.55 25.6 13.55 23.15 15.2 25.35 15.45 28.7" fill="#ffcc00" fill-rule="evenodd" stroke="none"/>
      <path d="M16.15 22.7 L22.1 22.1 24.05 22.85 24.9 26.4 24.9 26.7 23.35 26.65 Q14.45 24.9 16.15 22.7" fill="#fee481" fill-rule="evenodd" stroke="none"/>
      <path d="M15.45 28.7 L15.2 25.35 15.3 25.35 19.75 26.55 Q20.7 28.35 19.75 30.15 L19.7 30.15 15.45 28.7" fill="#d89500" fill-rule="evenodd" stroke="none"/>
      <path d="M24.05 22.85 L25.4 25.3 25.9 30.35 25.8 30.35 24.9 26.7 24.9 26.4 24.05 22.85" fill="#744c12" fill-rule="evenodd" stroke="none"/>
      <path d="M25.8 30.35 L21.85 30.25 Q20.5 28.45 22.0 26.65 L23.35 26.65 24.9 26.7 25.8 30.35" fill="#ba8201" fill-rule="evenodd" stroke="none"/>
      <path d="M15.2 25.35 L13.55 23.15 13.55 22.95 16.15 22.7 Q14.45 24.9 23.35 26.65 L22.0 26.65 19.75 26.55 15.3 25.35 15.2 25.35" fill="#ffffff" fill-rule="evenodd" stroke="none"/>
      <path d="M21.85 30.25 L19.75 30.15 Q20.7 28.35 19.75 26.55 L22.0 26.65 Q20.5 28.45 21.85 30.25" fill="#a87401" fill-rule="evenodd" stroke="none"/>
      <path d="M13.55 23.15 L13.55 25.6 15.45 28.7 M13.55 23.15 L13.55 22.95 16.15 22.7 22.1 22.1 24.05 22.85 25.4 25.3 25.9 30.35 25.8 30.35 21.85 30.25 19.75 30.15 19.7 30.15 15.45 28.7" fill="none" stroke="#000000" stroke-linecap="round" stroke-linejoin="round" stroke-opacity="0.15294118" stroke-width="0.25"/>
      <path d="M24.05 12.2 L24.5 13.65 23.75 15.65 22.4 19.25 Q21.25 16.05 23.2 13.0 L24.05 12.2" fill="#d89500" fill-rule="evenodd" stroke="none"/>
      <path d="M23.75 15.65 L23.25 21.85 12.35 14.85 13.5 13.0 15.2 14.45 20.9 18.3 21.7 18.75 22.4 19.25 23.75 15.65" fill="#000000" fill-opacity="0.3019608" fill-rule="evenodd" stroke="none"/>
      <path d="M13.5 13.0 L13.4 12.9 14.0 8.85 Q17.3 10.55 20.15 14.5 21.25 16.75 20.9 18.3 L15.2 14.45 13.5 13.0" fill="#ffcc00" fill-rule="evenodd" stroke="none"/>
      <path d="M16.25 5.45 L18.4 4.55 23.75 11.25 22.9 12.55 Q21.4 14.25 19.45 12.6 15.95 8.45 16.25 5.45" fill="#fee481" fill-rule="evenodd" stroke="none"/>
      <path d="M23.75 11.25 L24.05 12.2 23.2 13.0 Q21.25 16.05 22.4 19.25 L21.7 18.75 20.9 18.3 Q21.25 16.75 20.15 14.5 17.3 10.55 14.0 8.85 L14.3 6.3 18.75 11.9 19.45 12.6 Q21.4 14.25 22.9 12.55 L23.75 11.25" fill="#ba8201" fill-rule="evenodd" stroke="none"/>
      <path d="M14.3 6.3 L16.25 5.45 Q15.95 8.45 19.45 12.6 L18.75 11.9 14.3 6.3" fill="#ffffff" fill-rule="evenodd" stroke="none"/>
      <path d="M14.3 6.3 L16.25 5.45 18.4 4.55 23.75 11.25 24.05 12.2 24.5 13.65 23.75 15.65 M13.5 13.0 L13.4 12.9 14.0 8.85 14.3 6.3 M13.5 13.0 L15.2 14.45 20.9 18.3 21.7 18.75 22.4 19.25 23.75 15.65" fill="none" stroke="#000000" stroke-linecap="round" stroke-linejoin="round" stroke-opacity="0.15294118" stroke-width="0.25"/>
      <path d="M42.1 16.9 L42.45 16.9 42.15 17.55 42.1 16.9 M42.2 18.0 L42.2 19.7 37.65 23.4 23.25 21.8 23.5 19.3 23.6 20.1 36.7 21.6 36.85 21.6 42.2 18.0" fill="#000000" fill-opacity="0.3019608" fill-rule="evenodd" stroke="none"/>
      <path d="M23.5 19.3 L23.35 18.55 Q28.45 15.7 36.5 20.7 L36.7 21.6 23.6 20.1 23.5 19.3" fill="#ffcc00" fill-rule="evenodd" stroke="none"/>
      <path d="M31.9 10.75 L33.55 10.3 35.6 16.35 33.2 16.5 33.1 16.45 33.05 16.45 33.1 16.5 32.15 18.1 28.7 17.15 33.05 16.45 31.3 15.75 28.6 16.8 23.15 17.3 23.35 16.5 Q26.3 12.45 31.9 10.75" fill="#fee481" fill-rule="evenodd" stroke="none"/>
      <path d="M33.55 10.3 Q36.45 9.55 39.75 10.2 L41.65 14.1 35.6 16.35 33.55 10.3 M23.35 18.55 L23.15 17.3 28.6 16.8 31.3 15.75 33.05 16.45 28.7 17.15 32.15 18.1 33.1 16.5 33.1 16.45 33.2 16.5 35.6 16.35 36.5 20.7 Q28.45 15.7 23.35 18.55" fill="#d89500" fill-rule="evenodd" stroke="none"/>
      <path d="M33.1 16.5 L33.05 16.45 33.1 16.45 33.1 16.5" fill="#a6a07e" fill-rule="evenodd" stroke="none"/>
      <path d="M41.65 14.1 L42.1 16.9 42.15 17.55 42.2 18.0 36.85 21.6 36.7 21.6 36.5 20.7 35.6 16.35 41.65 14.1" fill="#a16b00" fill-rule="evenodd" stroke="none"/>
      <path d="M23.35 16.5 L24.2 12.9 31.9 10.75 Q26.3 12.45 23.35 16.5" fill="#ffffff" fill-rule="evenodd" stroke="none"/>
      <path d="M23.35 16.5 L24.2 12.9 31.9 10.75 33.55 10.3 Q36.45 9.55 39.75 10.2 L41.65 14.1 42.1 16.9 M42.15 17.55 L42.2 18.0 M23.5 19.3 L23.35 18.55 23.15 17.3 23.35 16.5 M23.5 19.3 L23.6 20.1 36.7 21.6 36.85 21.6 42.2 18.0 M42.15 17.55 L42.1 16.9" fill="none" stroke="#000000" stroke-linecap="round" stroke-linejoin="round" stroke-opacity="0.15294118" stroke-width="0.25"/>
    </g>
    <g id="sprite0" transform="matrix(1.0, 0.0, 0.0, 1.0, 0.0, 0.0)">
      <use height="20.95" transform="matrix(1.0, 0.0, 0.0, 1.0, 0.0, 0.0)" width="24.45" xlink:href="#shape1"/>
    </g>
    <g id="shape1" transform="matrix(1.0, 0.0, 0.0, 1.0, 0.0, 0.0)">
      <path d="M14.85 11.4 Q15.8 11.6 16.25 12.45 16.85 13.3 16.6 14.35 16.4 15.3 15.55 15.9 14.65 16.4 13.65 16.2 12.65 15.9 12.1 15.1 11.6 14.2 11.8 13.2 12.1 12.2 12.9 11.65 13.8 11.15 14.85 11.4" fill="#ffffff" fill-opacity="0.5882353" fill-rule="evenodd" stroke="none"/>
      <path d="M14.85 11.4 Q13.8 11.15 12.9 11.65 12.1 12.2 11.8 13.2 11.6 14.2 12.1 15.1 12.65 15.9 13.65 16.2 14.65 16.4 15.55 15.9 16.4 15.3 16.6 14.35 16.85 13.3 16.25 12.45 15.8 11.6 14.85 11.4 M18.2 11.35 L20.15 11.25 18.75 12.55 Q19.05 13.8 18.8 15.05 18.5 16.35 17.65 17.3 L19.1 20.95 16.55 18.25 Q14.8 19.3 12.8 18.85 10.8 18.35 9.75 16.65 9.05 15.5 8.95 14.3 7.75 12.35 4.85 11.5 8.3 12.45 9.7 11.4 10.3 10.4 11.35 9.75 13.1 8.75 15.1 9.15 16.95 9.5 18.1 11.15 L18.2 11.35" fill="#ffffff" fill-opacity="0.1764706" fill-rule="evenodd" stroke="none"/>
      <path d="M15.4 13.55 L18.1 17.55 13.35 14.65 7.05 18.5 12.75 13.55 0.0 0.0 14.25 12.25 24.45 5.95 15.4 13.55" fill="#ffffff" fill-opacity="0.5882353" fill-rule="evenodd" stroke="none"/>
    </g>
  </defs>
</svg>
