<?xml version="1.0" encoding="UTF-8" standalone="no"?>
<svg xmlns:xlink="http://www.w3.org/1999/xlink" height="520.0px" width="520.0px" xmlns="http://www.w3.org/2000/svg">
  <g transform="matrix(10.0, 0.0, 0.0, 10.0, 0.0, 0.0)">
    <use height="52.0" transform="matrix(1.0, 0.0, 0.0, 1.0, 0.0, 0.0)" width="52.0" xlink:href="#shape0"/>
  </g>
  <defs>
    <g id="shape0" transform="matrix(1.0, 0.0, 0.0, 1.0, 0.0, 0.0)">
      <path d="M0.0 52.0 L0.0 0.0 52.0 0.0 52.0 52.0 0.0 52.0" fill="#33cc33" fill-opacity="0.0" fill-rule="evenodd" stroke="none"/>
      <path d="M23.75 8.4 L29.5 5.3 29.55 5.4 29.6 5.4 Q29.95 5.1 30.35 4.9 L30.4 4.85 30.5 4.85 30.9 4.6 Q32.5 3.85 34.25 4.05 L35.85 4.25 Q38.25 4.6 39.5 6.6 L39.6 6.75 39.75 7.05 Q40.7 9.0 40.05 11.4 L38.1 19.05 Q37.35 21.65 35.2 23.3 L35.05 23.45 34.1 26.8 34.1 26.85 33.8 27.75 33.35 29.4 33.45 29.65 33.5 29.8 Q34.1 31.55 33.55 33.6 L31.6 41.2 Q30.9 43.85 28.75 45.5 L27.4 46.3 26.65 46.7 22.05 49.05 21.85 49.15 Q20.55 50.1 19.15 50.45 L19.05 50.45 19.0 50.45 17.9 50.55 17.25 50.45 15.6 50.25 14.2 49.95 Q12.9 49.4 12.05 48.1 L11.9 47.9 11.9 47.85 Q10.65 45.75 11.35 43.2 L13.35 35.55 13.5 34.85 13.75 34.25 13.85 33.95 Q14.65 32.45 16.2 31.3 L16.95 30.75 Q17.8 30.25 18.75 30.05 L19.6 27.1 18.4 25.7 18.35 25.65 18.1 25.1 17.85 24.5 Q17.3 22.85 17.85 21.0 L19.8 13.35 19.95 12.65 20.2 12.05 20.35 11.75 20.45 11.6 Q21.2 10.15 22.65 9.1 L23.75 8.4 Z" fill="none" stroke="#000000" stroke-linecap="round" stroke-linejoin="round" stroke-opacity="0.3019608" stroke-width="1.0"/>
      <path d="M30.35 4.9 L30.4 4.85 30.5 4.85 30.9 4.6 Q32.5 3.85 34.25 4.05 L35.85 4.25 Q38.25 4.6 39.5 6.6 L39.6 6.75 39.75 7.05 Q37.8 10.65 32.85 10.75 L32.7 10.45 32.6 10.25 32.25 9.75 Q31.0 8.2 29.0 7.95 L27.35 7.75 26.4 7.7 Q25.0 7.65 23.65 8.3 L29.5 5.3 29.55 5.4 29.6 5.4 Q29.95 5.1 30.35 4.9 M33.5 29.8 Q34.1 31.55 33.55 33.6 L31.6 41.2 24.75 44.7 26.75 37.25 Q27.25 35.1 26.55 33.3 L26.55 33.25 Q30.05 31.55 33.5 29.8 M27.4 17.2 L26.2 22.05 25.75 22.6 25.6 22.7 25.5 22.6 Q25.05 22.0 24.25 21.9 L23.75 21.9 23.2 21.9 22.85 22.0 22.85 21.65 23.45 19.4 Q26.2 16.65 27.4 17.2 M16.4 43.85 L17.05 41.45 Q19.75 38.9 21.0 39.2 L21.0 39.25 19.7 44.25 19.25 44.75 Q18.9 45.05 18.65 44.95 L17.0 44.75 Q16.65 44.75 16.55 44.5 L16.4 44.3 16.4 43.85" fill="#801e00" fill-rule="evenodd" stroke="none"/>
      <path d="M14.2 49.95 Q12.9 49.4 12.05 48.1 L11.9 47.9 11.9 47.85 Q10.65 45.75 11.35 43.2 L12.05 40.45 11.9 45.7 14.2 49.95 M12.9 37.15 L13.35 35.55 13.5 34.85 13.75 34.25 13.85 33.95 Q14.65 32.45 16.2 31.3 L16.95 30.75 Q17.8 30.25 18.75 30.05 L18.55 30.75 15.25 32.9 12.9 37.15 M17.85 24.5 Q17.3 22.85 17.85 21.0 L19.45 14.85 17.85 24.5 M26.4 7.7 L27.35 7.75 29.0 7.95 Q31.0 8.2 32.25 9.75 L26.4 7.7 M21.2 22.9 L22.35 20.6 23.45 14.45 25.3 12.85 27.55 13.45 25.9 13.3 25.3 13.45 24.85 14.0 23.45 19.4 22.85 21.65 22.85 22.0 Q22.25 22.15 21.6 22.6 L21.2 22.9 M17.6 35.9 L17.8 36.25 18.3 36.65 18.3 36.7 17.05 41.45 16.4 43.85 16.45 40.0 17.6 35.9" fill="#ffdb57" fill-rule="evenodd" stroke="none"/>
      <path d="M22.05 49.05 L21.85 49.15 Q20.55 50.1 19.15 50.45 19.65 49.5 20.1 49.2 20.6 48.85 21.2 46.35 L22.05 43.15 23.55 36.1 23.55 36.05 23.7 34.75 23.45 33.9 23.25 33.6 23.6 32.45 23.8 31.75 23.6 32.45 23.25 33.6 23.0 34.55 Q22.95 34.95 21.95 35.95 L21.95 36.0 21.7 36.2 Q20.85 36.8 19.85 36.95 L19.9 36.85 Q20.1 37.3 21.6 32.4 L23.65 25.1 23.75 24.65 24.15 22.0 24.25 21.9 Q25.05 22.0 25.5 22.6 L25.6 22.7 Q26.1 23.35 25.85 24.35 L25.0 27.4 26.6 27.0 Q27.05 26.65 27.7 24.2 L28.55 20.95 30.05 13.9 30.05 13.85 Q30.35 12.55 29.9 11.7 L29.8 11.6 Q28.95 10.15 26.1 10.05 22.35 9.75 20.7 11.6 L19.95 12.65 20.2 12.05 20.35 11.75 20.45 11.6 Q21.2 10.15 22.65 9.1 24.45 7.75 26.4 7.7 L32.25 9.75 32.6 10.25 32.7 10.45 32.85 10.75 Q33.8 12.7 33.2 15.05 L31.2 22.7 Q30.55 25.2 28.55 26.85 L28.35 26.95 Q27.05 27.9 25.65 28.25 L25.55 28.25 25.45 28.25 24.75 28.35 24.1 30.6 24.2 30.65 Q25.4 31.2 26.15 32.45 L26.25 32.6 26.55 33.25 26.55 33.3 Q27.25 35.1 26.75 37.25 L24.75 44.7 24.7 44.9 Q24.05 47.45 22.05 49.05 M24.75 28.35 L25.0 27.4 24.75 28.35 M23.85 31.6 L24.1 30.6 23.85 31.6 23.8 31.75 23.9 31.65 23.85 31.6" fill="#c16100" fill-rule="evenodd" stroke="none"/>
      <path d="M39.75 7.05 Q40.7 9.0 40.05 11.4 L38.1 19.05 Q37.35 21.65 35.2 23.3 L35.05 23.45 34.8 23.55 33.4 24.3 28.55 26.85 Q30.55 25.2 31.2 22.7 L33.2 15.05 Q33.8 12.7 32.85 10.75 37.8 10.65 39.75 7.05 M34.4 25.75 L34.1 26.8 34.1 26.85 33.8 27.75 33.35 29.4 33.45 29.65 33.5 29.8 Q30.05 31.55 26.55 33.25 L26.25 32.6 26.15 32.45 Q25.4 31.2 24.2 30.65 L34.4 25.75 M31.6 41.2 Q30.9 43.85 28.75 45.5 L27.4 46.3 26.65 46.7 22.05 49.05 Q24.05 47.45 24.7 44.9 L24.75 44.7 31.6 41.2 M27.55 13.45 Q27.9 13.55 28.05 13.8 L28.15 14.45 27.4 17.2 Q26.2 16.65 23.45 19.4 L24.85 14.0 25.3 13.45 25.9 13.3 27.55 13.45 M25.6 22.7 L25.5 22.6 25.6 22.7 M17.05 41.45 L18.3 36.7 19.5 36.95 19.85 36.95 Q20.85 36.8 21.7 36.2 L21.65 36.6 21.0 39.2 Q19.75 38.9 17.05 41.45" fill="#541e00" fill-rule="evenodd" stroke="none"/>
      <path d="M35.05 23.45 L34.4 25.75 24.2 30.65 24.1 30.6 24.75 28.35 25.45 28.25 25.55 28.25 25.65 28.25 Q27.05 27.9 28.35 26.95 L28.55 26.85 33.4 24.3 34.8 23.55 35.05 23.45" fill="#3b1500" fill-rule="evenodd" stroke="none"/>
      <path d="M19.15 50.45 L19.05 50.45 19.0 50.45 18.5 50.55 17.9 50.55 17.6 50.55 17.25 50.45 15.6 50.25 14.2 49.95 11.9 45.7 12.05 40.45 12.9 37.15 15.25 32.9 18.55 30.75 17.5 34.55 Q17.3 35.3 17.6 35.9 17.3 35.3 17.5 34.55 L18.55 30.75 18.75 30.05 19.6 27.1 18.4 25.7 18.35 25.65 18.1 25.1 17.85 24.5 19.45 14.85 19.8 13.35 19.95 12.65 20.7 11.6 Q22.35 9.75 26.1 10.05 28.95 10.15 29.8 11.6 L29.9 11.7 Q30.35 12.55 30.05 13.85 L30.05 13.9 28.55 20.95 27.7 24.2 Q27.05 26.65 26.6 27.0 L25.0 27.4 25.85 24.35 Q26.1 23.35 25.6 22.7 L25.75 22.6 26.2 22.05 27.4 17.2 28.15 14.45 28.05 13.8 Q27.9 13.55 27.55 13.45 L25.3 12.85 23.45 14.45 22.35 20.6 21.2 22.9 Q20.6 23.5 20.35 24.35 L19.6 27.1 20.35 24.35 Q20.6 23.5 21.2 22.9 L21.6 22.6 Q22.25 22.15 22.85 22.0 L23.2 21.9 23.75 21.9 24.25 21.9 24.15 22.0 23.75 24.65 23.65 25.1 21.6 32.4 Q20.1 37.3 19.9 36.85 L19.85 36.95 19.5 36.95 18.3 36.7 18.3 36.65 17.8 36.25 17.6 35.9 16.45 40.0 16.4 43.85 16.4 44.3 16.55 44.5 Q16.65 44.75 17.0 44.75 L18.65 44.95 Q18.9 45.05 19.25 44.75 L19.7 44.25 21.0 39.25 21.0 39.2 21.65 36.6 21.7 36.2 21.95 36.0 21.95 35.95 Q22.95 34.95 23.0 34.55 L23.25 33.6 23.45 33.9 23.7 34.75 23.55 36.05 23.55 36.1 22.05 43.15 21.2 46.35 Q20.6 48.85 20.1 49.2 19.65 49.5 19.15 50.45" fill="#ffa203" fill-rule="evenodd" stroke="none"/>
      <path d="M23.85 31.6 L23.9 31.65 23.8 31.75 23.85 31.6" fill="#ffffff" fill-rule="evenodd" stroke="none"/>
      <path d="M30.35 4.9 L30.4 4.85 30.5 4.85 30.9 4.6 Q32.5 3.85 34.25 4.05 L35.85 4.25 Q38.25 4.6 39.5 6.6 L39.6 6.75 39.75 7.05 Q40.7 9.0 40.05 11.4 L38.1 19.05 Q37.35 21.65 35.2 23.3 L35.05 23.45 34.4 25.75 34.1 26.8 34.1 26.85 33.8 27.75 33.35 29.4 33.45 29.65 33.5 29.8 Q34.1 31.55 33.55 33.6 L31.6 41.2 Q30.9 43.85 28.75 45.5 L27.4 46.3 26.65 46.7 22.05 49.05 21.85 49.15 Q20.55 50.1 19.15 50.45 L19.05 50.45 19.0 50.45 18.5 50.55 17.9 50.55 17.6 50.55 17.25 50.45 15.6 50.25 14.2 49.95 Q12.9 49.4 12.05 48.1 L11.9 47.9 11.9 47.85 Q10.65 45.75 11.35 43.2 L12.05 40.45 12.9 37.15 13.35 35.55 13.5 34.85 13.75 34.25 13.85 33.95 Q14.65 32.45 16.2 31.3 L16.95 30.75 Q17.8 30.25 18.75 30.05 L19.6 27.1 18.4 25.7 18.35 25.65 18.1 25.1 17.85 24.5 Q17.3 22.85 17.85 21.0 L19.45 14.85 19.8 13.35 19.95 12.65 20.2 12.05 20.35 11.75 20.45 11.6 Q21.2 10.15 22.65 9.1 24.45 7.75 26.4 7.7 25.0 7.65 23.65 8.3 L29.5 5.3 M26.4 7.7 L27.35 7.75 29.0 7.95 Q31.0 8.2 32.25 9.75 L32.6 10.25 32.7 10.45 32.85 10.75 M35.05 23.45 L34.8 23.55 33.4 24.3 28.55 26.85 28.35 26.95 Q27.05 27.9 25.65 28.25 L25.55 28.25 25.45 28.25 24.75 28.35 24.1 30.6 24.2 30.65 Q25.4 31.2 26.15 32.45 L26.25 32.6 26.55 33.25 M28.55 26.85 Q30.55 25.2 31.2 22.7 L33.2 15.05 Q33.8 12.7 32.85 10.75 M25.0 27.4 L24.75 28.35 M27.55 13.45 Q27.9 13.55 28.05 13.8 L28.15 14.45 27.4 17.2 26.2 22.05 25.75 22.6 25.6 22.7 Q26.1 23.35 25.85 24.35 L25.0 27.4 M27.55 13.45 L25.9 13.3 25.3 13.45 24.85 14.0 23.45 19.4 M19.6 27.1 L20.35 24.35 Q20.6 23.5 21.2 22.9 L21.6 22.6 Q22.25 22.15 22.85 22.0 L22.85 21.65 23.45 19.4 M25.5 22.6 L25.6 22.7 M24.25 21.9 Q25.05 22.0 25.5 22.6 M24.25 21.9 L23.75 21.9 23.2 21.9 22.85 22.0 M24.1 30.6 L23.85 31.6 23.8 31.75 23.6 32.45 23.25 33.6 M18.55 30.75 L18.75 30.05 M17.6 35.9 Q17.3 35.3 17.5 34.55 L18.55 30.75 M18.3 36.7 L18.3 36.65 17.8 36.25 17.6 35.9 M16.4 43.85 L17.05 41.45 18.3 36.7 19.5 36.95 19.85 36.95 Q20.85 36.8 21.7 36.2 L21.95 36.0 21.95 35.95 Q22.95 34.95 23.0 34.55 L23.25 33.6 M21.7 36.2 L21.65 36.6 21.0 39.2 M21.0 39.25 L19.7 44.25 19.25 44.75 Q18.9 45.05 18.65 44.95 L17.0 44.75 Q16.65 44.75 16.55 44.5 L16.4 44.3 16.4 43.85 M24.75 44.7 L26.75 37.25 Q27.25 35.1 26.55 33.3 L26.55 33.25 M24.75 44.7 L24.7 44.9 Q24.05 47.45 22.05 49.05" fill="none" stroke="#000000" stroke-linecap="round" stroke-linejoin="round" stroke-opacity="0.3019608" stroke-width="0.05"/>
      <path d="M29.7 8.3 L38.8 14.6 28.7 9.45 24.95 14.0 27.85 9.3 25.75 6.95 28.65 7.85 34.35 0.65 29.7 8.3" fill="#fcf3d8" fill-opacity="0.7921569" fill-rule="evenodd" stroke="none"/>
      <path d="M30.3 10.9 Q29.5 12.0 30.15 13.9 29.45 12.3 28.1 11.95 27.15 12.15 26.35 11.95 25.1 11.6 24.8 10.5 24.45 9.3 25.2 8.1 L23.1 7.05 25.9 7.2 Q26.55 6.55 27.6 6.0 L29.4 5.5 30.4 4.35 30.35 5.7 30.5 5.65 Q31.6 6.05 31.95 7.1 32.25 8.25 31.45 9.55 L30.3 10.9 M28.1 7.2 Q27.3 7.55 26.95 8.15 26.55 8.9 26.75 9.4 26.9 10.0 27.5 10.15 L28.9 9.95 30.05 8.95 Q30.5 8.25 30.3 7.7 30.1 7.2 29.45 7.05 L28.1 7.2" fill="#fcf3d8" fill-opacity="0.3019608" fill-rule="evenodd" stroke="none"/>
      <path d="M28.1 7.2 L29.45 7.05 Q30.1 7.2 30.3 7.7 30.5 8.25 30.05 8.95 L28.9 9.95 27.5 10.15 Q26.9 10.0 26.75 9.4 26.55 8.9 26.95 8.15 27.3 7.55 28.1 7.2" fill="#fcf3d8" fill-opacity="0.84313726" fill-rule="evenodd" stroke="none"/>
      <path d="M16.65 42.8 L10.3 45.9 16.8 43.4 17.4 45.65 17.3 43.35 19.05 42.1 17.3 42.6 16.5 39.0 16.65 42.8" fill="#fcf3d8" fill-opacity="0.7921569" fill-rule="evenodd" stroke="none"/>
      <path d="M15.65 44.1 Q15.7 44.65 14.85 45.65 15.65 44.8 16.45 44.6 L17.3 44.65 Q18.0 44.5 18.45 43.9 19.0 43.3 18.95 42.65 L20.3 42.2 18.85 42.25 18.35 41.65 17.65 41.4 17.4 40.85 17.05 41.5 17.0 41.5 Q16.3 41.7 15.85 42.2 15.4 42.8 15.4 43.4 L15.65 44.1 M17.8 42.25 L18.05 42.7 17.8 43.35 17.25 43.7 16.55 43.65 Q16.3 43.5 16.3 43.15 16.25 42.8 16.55 42.5 16.75 42.2 17.15 42.15 L17.8 42.25" fill="#fcf3d8" fill-opacity="0.3019608" fill-rule="evenodd" stroke="none"/>
      <path d="M17.8 42.25 L17.15 42.15 Q16.75 42.2 16.55 42.5 16.25 42.8 16.3 43.15 16.3 43.5 16.55 43.65 L17.25 43.7 17.8 43.35 18.05 42.7 17.8 42.25" fill="#fcf3d8" fill-opacity="0.84313726" fill-rule="evenodd" stroke="none"/>
    </g>
  </defs>
</svg>
