<?xml version="1.0" encoding="UTF-8" standalone="no"?>
<svg xmlns:xlink="http://www.w3.org/1999/xlink" height="520.0px" width="520.0px" xmlns="http://www.w3.org/2000/svg">
  <g transform="matrix(10.0, 0.0, 0.0, 10.0, 0.0, 0.0)">
    <use height="52.0" transform="matrix(1.0, 0.0, 0.0, 1.0, 0.0, 0.0)" width="52.0" xlink:href="#shape0"/>
    <use height="136.85" transform="matrix(-0.0426, 0.0667, -0.0981, -0.1004, 28.3087, 38.1707)" width="148.25" xlink:href="#sprite0"/>
    <use height="136.85" transform="matrix(-0.0569, -0.009, 0.0153, -0.0742, 28.5372, 21.0819)" width="148.25" xlink:href="#sprite0"/>
    <use height="136.85" transform="matrix(-0.0569, -0.009, 0.0153, -0.0742, 40.3372, 41.2819)" width="148.25" xlink:href="#sprite0"/>
    <use height="20.95" transform="matrix(-0.5395, 0.0927, 0.2458, 0.7485, 37.5, 14.9)" width="24.45" xlink:href="#sprite1"/>
    <use height="20.95" transform="matrix(-0.3582, 0.1652, 0.3107, 0.4752, 13.8, 27.95)" width="24.45" xlink:href="#sprite1"/>
    <use height="20.95" transform="matrix(-0.3888, 0.0668, 0.1772, 0.5394, 28.2, 6.1)" width="24.45" xlink:href="#sprite1"/>
  </g>
  <defs>
    <g id="shape0" transform="matrix(1.0, 0.0, 0.0, 1.0, 0.0, 0.0)">
      <path d="M52.0 0.0 L52.0 52.0 0.0 52.0 0.0 0.0 52.0 0.0" fill="#795fa9" fill-opacity="0.0" fill-rule="evenodd" stroke="none"/>
      <path d="M7.0 29.05 L7.05 29.1 6.7 29.4 7.0 29.05 M15.4 38.3 L15.2 38.45 15.35 38.25 15.4 38.3" fill="#fd9b0b" fill-rule="evenodd" stroke="none"/>
      <path d="M5.8 30.55 L5.95 32.3 Q5.5 34.0 6.1 34.05 L7.7 33.3 Q6.15 32.65 8.25 30.3 L10.45 29.5 Q11.5 29.85 10.15 31.8 L12.05 30.1 9.75 32.8 9.65 32.85 7.55 33.85 5.05 35.1 5.8 30.55 M13.95 29.4 L11.65 28.8 10.5 28.1 11.05 27.6 Q12.45 27.6 13.65 28.15 L15.35 29.4 13.95 29.4 M15.7 29.75 Q17.15 31.5 17.15 33.85 17.15 36.1 15.75 37.85 L15.7 37.9 15.55 38.1 15.35 38.25 15.2 38.45 14.75 38.85 13.45 38.3 12.05 37.0 Q11.0 35.95 10.8 33.5 11.2 31.5 12.9 30.4 L15.7 29.75 M7.05 29.1 L8.35 28.2 Q9.35 27.7 10.55 27.6 L8.9 29.15 6.5 29.6 6.7 29.4 7.05 29.1" fill="#2e7b8d" fill-rule="evenodd" stroke="none"/>
      <path d="M15.75 37.85 Q17.5 36.0 17.5 33.5 17.5 30.9 15.7 29.05 14.1 27.45 11.95 27.3 L13.65 26.65 Q15.45 26.95 16.85 28.35 18.65 30.2 18.65 32.8 18.65 35.35 16.85 37.2 L15.4 38.3 15.35 38.25 15.55 38.1 15.7 37.9 15.75 37.85" fill="#4aadc6" fill-rule="evenodd" stroke="none"/>
      <path d="M12.6 29.4 L9.95 28.65 8.9 29.15 5.8 30.55 6.5 29.6 8.9 29.15 10.55 27.6 Q9.35 27.7 8.35 28.2 L7.05 29.1 Q7.8 28.3 8.7 27.85 9.9 27.25 11.4 27.25 L11.95 27.3 Q14.1 27.45 15.7 29.05 17.5 30.9 17.5 33.5 17.5 36.0 15.75 37.85 17.15 36.1 17.15 33.85 17.15 31.5 15.7 29.75 L15.35 29.4 13.65 28.15 Q12.45 27.6 11.05 27.6 L10.5 28.1 11.65 28.8 13.95 29.4 12.6 29.4 M5.95 32.3 L7.45 30.6 8.25 30.3 Q6.15 32.65 7.7 33.3 L6.1 34.05 Q5.5 34.0 5.95 32.3" fill="#72bed1" fill-rule="evenodd" stroke="none"/>
      <path d="M7.55 33.85 L9.2 33.85 9.45 34.35 Q9.75 37.15 6.9 37.5 L5.55 36.15 5.05 35.1 7.55 33.85" fill="#286979" fill-rule="evenodd" stroke="none"/>
      <path d="M12.05 30.1 L12.6 29.4 13.95 29.4 15.35 29.4 15.7 29.75 12.9 30.4 Q11.2 31.5 10.8 33.5 11.0 35.95 12.05 37.0 L13.45 38.3 14.75 38.85 Q13.3 39.95 11.45 40.1 L8.5 39.55 Q6.55 38.05 5.55 36.15 L6.9 37.5 8.3 38.8 10.1 38.05 10.95 37.3 10.65 36.25 9.65 32.85 9.75 32.8 12.05 30.1" fill="#183e56" fill-rule="evenodd" stroke="none"/>
      <path d="M9.45 34.35 L10.65 36.25 10.95 37.3 10.1 38.05 8.3 38.8 6.9 37.5 Q9.75 37.15 9.45 34.35" fill="#24708e" fill-rule="evenodd" stroke="none"/>
      <path d="M5.8 30.55 L8.9 29.15 9.95 28.65 12.6 29.4 12.05 30.1 10.15 31.8 Q11.5 29.85 10.45 29.5 L8.25 30.3 7.45 30.6 5.95 32.3 5.8 30.55 M9.45 34.35 L9.2 33.85 7.55 33.85 9.65 32.85 10.65 36.25 9.45 34.35" fill="#26b0bf" fill-rule="evenodd" stroke="none"/>
      <path d="M11.95 27.3 L11.4 27.25 Q9.9 27.25 8.7 27.85 7.8 28.3 7.05 29.1 L7.0 29.05 Q8.35 27.4 10.25 27.0 11.3 26.55 12.5 26.55 L13.65 26.65 11.95 27.3" fill="#47ccda" fill-rule="evenodd" stroke="none"/>
      <path d="M13.65 26.65 L12.5 26.55 Q11.3 26.55 10.25 27.0 8.35 27.4 7.0 29.05 M6.7 29.4 L6.5 29.6 M6.7 29.4 L7.0 29.05 M5.8 30.55 L6.5 29.6 M5.05 35.1 L5.55 36.15 Q6.55 38.05 8.5 39.55 L11.45 40.1 Q13.3 39.95 14.75 38.85 M5.05 35.1 L5.8 30.55 M13.65 26.65 Q15.45 26.95 16.85 28.35 18.65 30.2 18.65 32.8 18.65 35.35 16.85 37.2 L15.4 38.3 15.2 38.45 14.75 38.85" fill="none" stroke="#000000" stroke-linecap="round" stroke-linejoin="round" stroke-opacity="0.3019608" stroke-width="0.5"/>
      <path d="M11.3 26.7 L11.35 26.65 11.4 26.65 11.3 26.7" fill="#febe5f" fill-rule="evenodd" stroke="none"/>
      <path d="M14.05 24.9 L14.0 24.9 14.05 24.9" fill="#eca602" fill-rule="evenodd" stroke="none"/>
      <path d="M16.35 21.75 L17.65 21.1 Q18.75 20.65 19.9 20.35 16.6 22.15 16.0 23.1 15.8 23.4 15.9 23.6 L17.85 23.0 22.9 22.75 26.3 23.4 27.45 23.8 Q23.3 22.85 21.05 23.25 17.9 23.2 15.05 24.4 L14.05 24.9 Q12.25 25.95 10.5 28.95 8.8 31.95 9.8 36.55 8.65 33.6 9.4 30.6 9.85 28.75 10.85 27.35 L11.2 26.9 11.2 26.85 11.3 26.7 11.4 26.65 12.45 25.6 14.05 24.5 16.35 21.75 M14.05 24.9 L14.0 24.9 14.05 24.9 M34.9 30.35 L34.55 29.1 35.4 29.6 35.45 29.7 35.5 29.65 37.1 31.3 35.9 32.45 35.8 32.3 34.9 30.35" fill="#fcbd61" fill-rule="evenodd" stroke="none"/>
      <path d="M19.9 20.35 Q23.85 19.4 28.45 20.75 30.4 21.3 32.1 22.2 33.6 23.05 34.85 24.05 34.8 25.15 32.8 25.65 L31.55 25.9 Q29.7 24.6 27.45 23.8 L26.3 23.4 22.9 22.75 17.85 23.0 15.9 23.6 Q15.8 23.4 16.0 23.1 16.6 22.15 19.9 20.35 M40.1 33.35 Q40.2 34.8 39.85 36.25 L39.25 37.95 37.85 40.2 36.45 41.9 36.4 41.85 36.8 41.2 37.65 38.9 Q38.0 37.65 37.95 36.35 L38.55 36.1 Q39.45 35.4 40.1 33.35" fill="#feb445" fill-rule="evenodd" stroke="none"/>
      <path d="M36.3 25.45 L37.6 27.0 37.75 27.15 38.4 29.4 39.8 31.5 40.1 33.35 Q39.45 35.4 38.55 36.1 L37.95 36.35 Q37.9 34.85 37.45 33.35 L37.35 33.15 37.1 31.3 35.5 29.65 35.45 29.7 35.4 29.6 35.3 29.45 33.7 27.65 34.0 26.5 34.4 25.9 Q35.1 25.2 36.3 25.45" fill="#f49302" fill-rule="evenodd" stroke="none"/>
      <path d="M36.45 41.9 L35.95 42.5 35.8 42.7 35.5 43.0 Q34.0 44.65 31.6 45.7 L29.1 46.5 Q25.95 42.0 24.05 36.9 L23.7 35.6 Q20.85 23.8 25.45 23.95 L25.8 24.05 Q31.4 25.7 34.7 29.9 L34.9 30.35 35.8 32.3 35.9 32.45 36.9 33.8 Q37.9 36.6 37.2 39.55 L36.35 41.8 36.4 41.85 36.45 41.9 M12.05 39.85 L11.2 38.1 9.8 36.55 Q8.8 31.95 10.5 28.95 12.25 25.95 14.05 24.9 16.65 27.6 18.3 31.95 19.2 36.05 19.5 38.85 20.15 44.5 18.35 44.6 L16.75 42.35 16.75 43.6 Q15.75 43.35 14.7 42.6 13.4 41.65 12.05 39.85 M11.35 26.65 L13.35 24.25 13.5 24.0 14.35 23.2 Q15.2 22.4 16.35 21.75 L14.05 24.5 12.45 25.6 11.4 26.65 11.35 26.65" fill="#e37302" fill-rule="evenodd" stroke="none"/>
      <path d="M27.45 23.8 Q29.7 24.6 31.55 25.9 L33.7 27.65 35.3 29.45 35.4 29.6 34.55 29.1 34.9 30.35 34.7 29.9 Q31.4 25.7 25.8 24.05 L25.45 23.95 Q20.85 23.8 23.7 35.6 L24.05 36.9 23.6 35.7 Q21.6 29.85 21.05 23.25 23.3 22.85 27.45 23.8 M37.1 31.3 L37.35 33.15 37.45 33.35 Q37.9 34.85 37.95 36.35 38.0 37.65 37.65 38.9 L36.8 41.2 36.4 41.85 36.35 41.8 37.2 39.55 Q37.9 36.6 36.9 33.8 L35.9 32.45 37.1 31.3" fill="#963807" fill-rule="evenodd" stroke="none"/>
      <path d="M29.1 46.5 L21.0 46.15 Q20.7 41.95 20.05 38.4 19.4 34.8 18.3 31.95 16.65 27.6 14.05 24.9 L15.05 24.4 Q17.9 23.2 21.05 23.25 21.6 29.85 23.6 35.7 L24.05 36.9 Q25.95 42.0 29.1 46.5 M17.35 44.15 L16.75 44.35 16.75 43.6 16.75 42.35 17.35 44.15" fill="#6c2206" fill-rule="evenodd" stroke="none"/>
      <path d="M34.85 24.05 L36.3 25.45 Q35.1 25.2 34.4 25.9 L34.0 26.5 33.7 27.65 31.55 25.9 32.8 25.65 Q34.8 25.15 34.85 24.05 M21.0 46.15 L20.75 46.05 19.0 45.45 17.35 44.15 16.75 42.35 18.35 44.6 Q20.15 44.5 19.5 38.85 19.2 36.05 18.3 31.95 19.4 34.8 20.05 38.4 20.7 41.95 21.0 46.15 M16.75 44.35 L14.45 42.8 12.65 41.05 12.05 39.85 Q13.4 41.65 14.7 42.6 15.75 43.35 16.75 43.6 L16.75 44.35" fill="#560000" fill-rule="evenodd" stroke="none"/>
      <path d="M16.35 21.75 L17.65 21.1 Q18.75 20.65 19.9 20.35 23.85 19.4 28.45 20.75 30.4 21.3 32.1 22.2 33.6 23.05 34.85 24.05 L36.3 25.45 37.6 27.0 37.75 27.15 38.4 29.4 39.8 31.5 40.1 33.35 Q40.2 34.8 39.85 36.25 L39.25 37.95 37.85 40.2 36.45 41.9 35.95 42.5 35.8 42.7 35.5 43.0 Q34.0 44.65 31.6 45.7 L29.1 46.5 21.0 46.15 20.75 46.05 19.0 45.45 17.35 44.15 16.75 44.35 14.45 42.8 12.65 41.05 12.05 39.85 11.2 38.1 9.8 36.55 Q8.65 33.6 9.4 30.6 9.85 28.75 10.85 27.35 L11.2 26.9 11.2 26.85 M11.35 26.65 L13.35 24.25 13.5 24.0 14.35 23.2 Q15.2 22.4 16.35 21.75 Z" fill="none" stroke="#000000" stroke-linecap="round" stroke-linejoin="round" stroke-opacity="0.3019608" stroke-width="0.5"/>
      <path d="M38.5 35.2 L39.6 35.95 Q39.3 36.7 39.6 37.45 39.0 37.1 38.5 35.2 M40.1 34.4 Q39.3 34.25 39.45 35.35 L38.25 34.3 39.7 33.1 41.2 34.85 40.1 34.4" fill="#202324" fill-rule="evenodd" stroke="none"/>
      <path d="M38.0 34.8 L38.5 35.15 38.5 35.2 Q39.0 37.1 39.6 37.45 L39.7 37.7 Q40.25 38.85 42.15 40.05 L37.75 40.05 Q38.75 38.1 38.0 34.8" fill="#101212" fill-rule="evenodd" stroke="none"/>
      <path d="M39.6 35.95 L43.45 38.7 45.05 40.05 42.15 40.05 Q40.25 38.85 39.7 37.7 L39.6 37.45 Q39.3 36.7 39.6 35.95" fill="#2d3131" fill-rule="evenodd" stroke="none"/>
      <path d="M43.45 38.7 L40.65 36.35 Q39.25 34.8 40.1 34.4 L41.2 34.85 45.05 40.05 43.45 38.7" fill="#485051" fill-rule="evenodd" stroke="none"/>
      <path d="M38.0 34.8 L38.25 34.3 39.45 35.35 Q39.3 34.25 40.1 34.4 39.25 34.8 40.65 36.35 L43.45 38.7 39.6 35.95 38.5 35.2 38.5 35.15 38.0 34.8" fill="#596162" fill-rule="evenodd" stroke="none"/>
      <path d="M38.25 34.3 L38.0 34.8 M38.25 34.3 L39.7 33.1 41.2 34.85 45.05 40.05 42.15 40.05 37.75 40.05 Q38.75 38.1 38.0 34.8" fill="none" stroke="#000000" stroke-linecap="round" stroke-linejoin="round" stroke-opacity="0.3019608" stroke-width="0.5"/>
      <path d="M22.75 11.1 L22.95 10.95 22.9 11.0 22.8 11.2 22.75 11.1 M27.65 21.15 L27.6 21.05 27.65 21.0 27.65 21.15" fill="#a96501" fill-rule="evenodd" stroke="none"/>
      <path d="M20.95 10.5 L21.0 10.55 20.95 10.5" fill="#fd9b0b" fill-rule="evenodd" stroke="none"/>
      <path d="M20.9 19.85 L20.85 19.65 21.55 19.0 21.85 17.5 21.5 16.2 21.15 16.1 21.05 16.1 21.25 15.35 21.55 14.2 22.0 15.75 22.6 18.1 23.85 20.25 22.9 20.45 22.8 20.45 21.6 20.3 20.9 19.9 20.9 19.85 M24.7 11.05 L26.5 10.35 30.15 10.75 30.5 12.1 28.8 12.85 25.4 11.8 24.7 11.05 M27.35 17.3 L27.0 15.95 27.3 15.1 30.35 14.05 31.0 14.5 30.7 16.0 28.85 18.45 28.0 18.15 27.35 17.3 M25.4 13.9 L25.9 15.7 25.75 18.05 25.1 19.5 24.25 18.95 22.8 16.65 22.55 14.15 22.6 13.4 24.85 13.5 25.4 13.9" fill="#2e7b8d" fill-rule="evenodd" stroke="none"/>
      <path d="M25.05 9.9 L28.75 9.5 29.2 9.5 30.45 10.55 Q31.45 11.75 31.9 13.65 L30.35 13.75 30.25 13.75 28.55 13.8 29.65 13.4 30.5 12.1 30.15 10.75 26.5 10.35 24.7 11.05 23.95 10.3 25.05 9.9 M21.05 20.8 L20.95 20.35 20.9 20.1 20.9 19.85 20.9 19.9 21.6 20.3 22.8 20.45 22.9 20.45 23.85 20.25 22.6 18.1 22.0 15.75 23.0 17.8 23.6 18.6 24.8 20.2 26.05 19.95 26.35 17.5 26.4 17.55 28.0 18.15 28.85 18.45 27.4 20.4 26.8 21.25 25.75 21.0 25.15 20.9 24.2 20.8 23.1 20.7 22.9 20.7 22.15 20.75 21.65 20.75 21.55 20.8 21.05 20.8" fill="#225966" fill-rule="evenodd" stroke="none"/>
      <path d="M23.35 10.65 L23.95 10.3 24.7 11.05 25.4 11.8 28.8 12.85 30.5 12.1 29.65 13.4 28.55 13.8 30.25 13.75 26.6 14.7 26.75 16.4 27.35 17.3 28.0 18.15 26.4 17.55 26.35 17.5 25.9 15.7 25.4 13.9 27.35 13.85 25.45 13.3 22.95 10.95 23.35 10.65 M20.85 19.65 L20.85 17.55 20.85 17.5 21.0 16.6 21.0 16.5 21.05 16.1 21.15 16.1 21.5 16.2 21.85 17.5 21.55 19.0 20.85 19.65 M21.55 14.2 L21.9 13.25 22.05 12.9 22.45 11.9 24.85 13.5 22.6 13.4 22.55 14.15 22.4 15.8 22.8 16.65 23.6 18.6 23.0 17.8 22.0 15.75 21.55 14.2" fill="#3ea0b9" fill-rule="evenodd" stroke="none"/>
      <path d="M22.45 11.9 L22.8 11.2 22.9 11.0 22.95 10.95 25.45 13.3 27.35 13.85 25.4 13.9 24.85 13.5 22.45 11.9 M30.25 13.75 L30.35 13.75 31.9 13.65 31.6 14.8 31.0 15.6 30.7 16.0 31.0 14.5 30.35 14.05 27.3 15.1 27.0 15.95 27.35 17.3 26.75 16.4 26.6 14.7 30.25 13.75 M25.9 15.7 L26.35 17.5 26.05 19.95 24.8 20.2 23.6 18.6 22.8 16.65 22.4 15.8 22.55 14.15 22.8 16.65 24.25 18.95 25.1 19.5 25.75 18.05 25.9 15.7" fill="#59b3c8" fill-rule="evenodd" stroke="none"/>
      <path d="M20.4 12.0 L20.45 12.05 20.0 13.0 20.4 12.0" fill="#fff1bb" fill-rule="evenodd" stroke="none"/>
      <path d="M34.2 13.45 L34.1 13.55 34.15 13.4 34.2 13.45" fill="#febe5f" fill-rule="evenodd" stroke="none"/>
      <path d="M21.05 10.0 Q20.55 10.85 21.75 9.85 L22.6 9.3 23.2 8.9 24.55 8.3 26.25 7.85 27.1 7.7 27.65 7.6 28.1 7.6 29.45 7.6 Q30.9 7.95 31.95 8.65 L32.7 8.55 Q33.25 8.35 33.05 7.35 L33.95 8.3 34.25 8.8 Q33.2 8.6 33.35 10.05 L33.4 10.3 Q34.0 11.5 34.1 13.15 L34.1 13.35 34.15 13.4 34.1 13.55 34.05 14.6 33.95 14.85 33.7 15.2 33.8 13.9 33.75 13.7 33.75 13.65 33.75 13.55 33.75 13.05 Q33.5 10.75 32.15 9.45 31.05 8.35 29.1 7.95 L28.45 7.95 27.85 7.95 26.15 8.15 24.6 8.5 Q23.85 8.75 23.2 9.1 L22.65 9.35 21.95 9.9 21.4 10.45 20.85 11.3 20.45 12.05 20.4 12.0 20.9 10.8 Q20.95 10.35 20.2 11.5 L20.3 11.1 20.35 11.1 21.05 10.0 M20.95 10.5 L21.0 10.55 20.95 10.5" fill="#fcbd61" fill-rule="evenodd" stroke="none"/>
      <path d="M21.05 10.0 L21.5 9.3 Q21.85 8.95 22.25 8.7 L23.35 7.9 24.25 7.4 26.75 6.45 26.95 6.4 29.3 6.15 Q27.9 6.5 27.35 6.85 L27.25 6.9 Q26.7 7.3 27.1 7.7 L26.25 7.85 24.55 8.3 23.2 8.9 22.6 9.3 21.75 9.85 Q20.55 10.85 21.05 10.0 M34.25 8.8 Q35.0 10.1 35.0 12.0 L35.0 12.05 35.0 12.2 34.2 13.45 34.15 13.4 34.1 13.35 34.1 13.15 Q34.0 11.5 33.4 10.3 L33.35 10.05 Q33.2 8.6 34.25 8.8 M23.7 22.8 L21.25 22.75 19.1 23.0 18.95 19.5 19.0 19.3 19.1 17.75 Q19.1 16.95 19.25 16.2 L19.4 15.45 19.7 14.05 20.7 15.85 20.5 16.9 20.5 16.95 20.45 17.15 20.25 19.9 20.25 20.0 20.3 21.65 21.45 21.45 21.7 21.4 22.8 21.35 23.15 21.35 23.25 21.6 23.7 22.8" fill="#feb445" fill-rule="evenodd" stroke="none"/>
      <path d="M27.1 7.7 Q26.7 7.3 27.25 6.9 L27.35 6.85 Q27.9 6.5 29.3 6.15 L30.3 6.15 31.75 6.65 33.05 7.35 Q33.25 8.35 32.7 8.55 L31.95 8.65 Q30.9 7.95 29.45 7.6 L28.1 7.6 27.65 7.6 27.1 7.7" fill="#f49302" fill-rule="evenodd" stroke="none"/>
      <path d="M35.0 12.2 L34.9 13.05 34.85 13.25 34.55 13.85 34.05 14.6 34.1 13.55 34.2 13.45 35.0 12.2 M31.9 17.8 L30.85 19.25 30.5 18.9 29.95 18.3 29.75 18.1 30.9 16.5 32.05 14.9 31.9 13.65 Q31.45 11.75 30.45 10.55 L29.2 9.5 28.75 9.5 25.05 9.9 24.6 8.5 26.15 8.15 27.85 7.95 28.45 7.95 29.1 7.95 Q31.05 8.35 32.15 9.45 33.5 10.75 33.75 13.05 L33.75 13.55 33.75 13.65 33.75 13.7 33.7 13.95 32.7 16.35 31.9 17.8 M19.1 23.0 Q18.7 21.15 18.7 19.4 L18.65 19.1 18.65 18.05 18.85 15.9 19.05 14.9 19.4 13.5 20.0 11.8 20.2 11.5 Q20.95 10.35 20.9 10.8 L20.4 12.0 20.0 13.0 19.7 14.05 19.4 15.45 19.25 16.2 Q19.1 16.95 19.1 17.75 L19.0 19.3 18.95 19.5 19.1 23.0" fill="#e37302" fill-rule="evenodd" stroke="none"/>
      <path d="M33.7 15.2 L32.8 16.6 32.4 17.2 31.9 17.8 32.7 16.35 33.7 13.95 33.75 13.7 33.8 13.9 33.7 15.2 M30.85 19.25 L30.3 19.95 30.05 19.6 29.5 18.8 29.35 18.6 29.75 18.1 29.95 18.3 30.5 18.9 30.85 19.25 M28.15 22.7 L27.65 23.35 27.65 23.3 26.1 23.05 25.85 23.0 24.6 22.85 23.7 22.8 23.25 21.6 23.15 21.35 23.55 21.35 25.35 21.55 26.05 21.65 26.2 21.7 26.95 21.95 27.6 21.05 27.65 21.15 28.05 22.25 28.1 22.6 28.15 22.7 M20.45 12.05 L20.85 11.3 21.4 10.45 21.95 9.9 22.65 9.35 23.0 10.1 23.35 10.65 22.95 10.95 22.75 11.1 22.4 11.3 21.7 12.75 21.35 13.6 21.2 14.05 21.9 13.25 21.55 14.2 21.25 15.35 21.05 16.1 21.0 16.5 21.0 16.6 20.85 17.5 20.85 17.55 20.85 19.65 20.9 19.85 20.9 20.1 20.95 20.35 21.05 20.8 20.3 21.65 20.25 20.0 20.25 19.9 20.45 17.15 20.5 16.95 20.5 16.9 20.7 15.85 19.7 14.05 20.0 13.0 20.45 12.05" fill="#963807" fill-rule="evenodd" stroke="none"/>
      <path d="M30.9 16.5 L29.75 18.1 29.35 18.6 27.65 21.0 27.4 20.4 28.85 18.45 30.7 16.0 31.0 15.6 30.9 16.5 M21.7 21.4 L22.15 20.75 22.9 20.7 23.1 20.7 24.2 20.8 25.15 20.9 25.75 21.0 25.35 21.55 23.55 21.35 23.15 21.35 22.8 21.35 21.7 21.4" fill="#6c2206" fill-rule="evenodd" stroke="none"/>
      <path d="M30.3 19.95 L28.15 22.7 28.1 22.6 28.05 22.25 27.65 21.15 27.65 21.0 27.6 21.05 26.95 21.95 26.2 21.7 26.05 21.65 25.35 21.55 25.75 21.0 26.8 21.25 27.4 20.4 27.65 21.0 29.35 18.6 29.5 18.8 30.05 19.6 30.3 19.95 M22.65 9.35 L23.2 9.1 Q23.85 8.75 24.6 8.5 L25.05 9.9 23.95 10.3 23.35 10.65 23.0 10.1 22.65 9.35 M31.9 13.65 L32.05 14.9 30.9 16.5 31.0 15.6 31.6 14.8 31.9 13.65 M20.3 21.65 L21.05 20.8 21.55 20.8 21.65 20.75 22.15 20.75 21.7 21.4 21.45 21.45 20.3 21.65 M21.9 13.25 L21.2 14.05 21.35 13.6 21.7 12.75 22.4 11.3 22.75 11.1 22.8 11.2 22.45 11.9 22.05 12.9 21.9 13.25" fill="#560000" fill-rule="evenodd" stroke="none"/>
      <path d="M29.3 6.15 L26.95 6.4 26.75 6.45 24.25 7.4 23.35 7.9 22.25 8.7 Q21.85 8.95 21.5 9.3 L21.05 10.0 M29.3 6.15 L30.3 6.15 31.75 6.65 33.05 7.35 33.95 8.3 34.25 8.8 Q35.0 10.1 35.0 12.0 L35.0 12.05 35.0 12.2 34.9 13.05 34.85 13.25 34.55 13.85 34.05 14.6 33.95 14.85 33.7 15.2 32.8 16.6 32.4 17.2 31.9 17.8 30.85 19.25 30.3 19.95 28.15 22.7 27.65 23.35 27.65 23.3 26.1 23.05 25.85 23.0 24.6 22.85 23.7 22.8 21.25 22.75 19.1 23.0 Q18.7 21.15 18.7 19.4 L18.65 19.1 18.65 18.05 18.85 15.9 19.05 14.9 19.4 13.5 20.0 11.8 20.2 11.5 20.3 11.1 20.35 11.1 21.05 10.0 M25.05 9.9 L28.75 9.5 29.2 9.5 30.45 10.55 Q31.45 11.75 31.9 13.65 L32.05 14.9 M23.35 10.65 L23.95 10.3 25.05 9.9 M21.05 20.8 L20.95 20.35 20.9 20.1 20.9 19.85 20.85 19.65 20.85 17.55 20.85 17.5 21.0 16.6 21.0 16.5 21.05 16.1 21.25 15.35 21.55 14.2 21.9 13.25 22.05 12.9 22.45 11.9 22.8 11.2 22.9 11.0 22.95 10.95 23.35 10.65 M22.4 11.3 L22.75 11.1 22.95 10.95 M22.15 20.75 L21.65 20.75 21.55 20.8 21.05 20.8 M25.75 21.0 L25.15 20.9 24.2 20.8 23.1 20.7 22.9 20.7 22.15 20.75 M31.9 13.65 L31.6 14.8 31.0 15.6 M30.7 16.0 L31.0 15.6 M25.75 21.0 L26.8 21.25 27.4 20.4 28.85 18.45 30.7 16.0" fill="none" stroke="#000000" stroke-linecap="round" stroke-linejoin="round" stroke-opacity="0.3019608" stroke-width="0.5"/>
      <path d="M13.65 28.1 Q14.65 26.9 15.55 26.75 16.0 27.15 16.1 27.95 L14.8 31.25 15.0 35.1 14.65 36.05 14.4 34.85 13.95 31.4 13.1 29.45 13.65 28.1 M17.05 28.75 L16.35 32.75 Q16.05 35.45 16.0 38.75 15.2 39.7 14.35 39.45 13.3 39.25 12.55 37.85 L12.45 37.15 13.55 38.8 14.8 39.05 15.65 36.45 15.65 32.0 17.05 28.75 M24.85 28.4 Q24.3 30.6 24.0 33.15 23.45 37.4 23.4 42.7 22.3 44.1 21.2 43.75 19.75 43.45 18.8 41.45 L18.65 40.4 20.15 42.8 21.85 43.15 22.9 39.45 22.9 33.05 24.85 28.4 M19.6 29.25 L20.3 27.4 Q21.6 25.7 22.75 25.55 23.4 26.05 23.55 27.2 L21.75 31.95 22.05 37.5 21.6 38.85 21.05 36.05 20.75 32.35 19.6 29.25 M28.0 30.1 Q29.25 28.65 30.35 28.45 30.95 28.95 31.1 29.95 L29.4 34.1 29.65 39.05 29.25 40.2 28.7 37.7 28.4 34.55 27.4 31.5 28.0 30.1 M26.45 41.6 L27.85 43.7 29.45 44.0 30.5 40.7 30.5 35.05 32.3 31.0 Q31.0 36.15 30.95 43.6 29.9 44.8 28.85 44.5 27.5 44.25 26.55 42.5 L26.45 41.6" fill="#202324" fill-rule="evenodd" stroke="none"/>
      <path d="M12.6 36.4 L13.45 37.7 Q14.0 37.45 14.5 37.15 L15.2 35.5 15.2 31.45 16.45 28.5 Q16.85 27.15 16.0 26.45 L16.6 26.5 Q17.3 27.1 17.15 28.5 L17.05 28.75 15.65 32.0 15.65 36.45 14.8 39.05 13.55 38.8 12.45 37.15 12.35 36.05 12.6 36.4 M23.4 25.05 L24.2 25.15 Q25.1 26.0 24.9 28.0 L24.85 28.4 22.9 33.05 22.9 39.45 21.85 43.15 20.15 42.8 18.65 40.4 18.55 38.85 18.85 39.4 20.0 41.2 21.4 40.45 22.35 38.1 22.35 32.2 24.0 28.0 Q24.5 26.05 23.4 25.05 M26.6 40.65 L27.7 42.25 29.05 41.65 29.95 39.5 29.95 34.35 31.55 30.65 Q32.0 28.95 30.95 28.05 L31.7 28.1 Q32.6 28.85 32.4 30.65 L32.3 31.0 30.5 35.05 30.5 40.7 29.45 44.0 27.85 43.7 26.45 41.6 26.3 40.2 26.6 40.65" fill="#000000" fill-rule="evenodd" stroke="none"/>
      <path d="M14.65 36.05 L14.4 36.75 13.8 37.15 12.6 36.4 12.35 36.05 12.3 35.85 Q12.2 34.15 12.4 32.55 L12.9 30.25 13.8 32.15 14.4 34.85 14.65 36.05 M18.55 38.85 L18.5 38.6 Q18.35 35.6 18.75 32.9 L19.25 30.5 20.5 33.25 21.05 36.05 21.6 38.85 21.3 39.85 20.45 40.45 18.85 39.4 18.55 38.85 M29.25 40.2 L28.95 41.05 28.15 41.6 26.6 40.65 26.3 40.2 26.3 40.0 Q26.05 36.4 26.85 33.3 L27.0 32.85 28.2 35.3 28.7 37.7 29.25 40.2" fill="#2d3131" fill-rule="evenodd" stroke="none"/>
      <path d="M15.95 26.45 L16.0 26.45 Q16.85 27.15 16.45 28.5 L15.2 31.45 15.2 35.5 14.5 37.15 Q14.0 37.45 13.45 37.7 L12.6 36.4 13.8 37.15 14.4 36.75 14.65 36.05 15.0 35.1 14.8 31.25 16.1 27.95 Q16.0 27.15 15.55 26.75 14.65 26.9 13.65 28.1 L14.0 27.4 Q15.1 26.5 15.95 26.45 M12.9 30.25 L13.1 29.45 13.95 31.4 14.4 34.85 13.8 32.15 12.9 30.25 M20.3 27.4 L20.75 26.45 Q22.2 25.15 23.35 25.05 L23.4 25.05 Q24.5 26.05 24.0 28.0 L22.35 32.2 22.35 38.1 21.4 40.45 20.0 41.2 18.85 39.4 20.45 40.45 21.3 39.85 21.6 38.85 22.05 37.5 21.75 31.95 23.55 27.2 Q23.4 26.05 22.75 25.55 21.6 25.7 20.3 27.4 M19.25 30.5 L19.6 29.25 20.75 32.35 21.05 36.05 20.5 33.25 19.25 30.5 M30.95 28.05 Q32.0 28.95 31.55 30.65 L29.95 34.35 29.95 39.5 29.05 41.65 27.7 42.25 26.6 40.65 28.15 41.6 28.95 41.05 29.25 40.2 29.65 39.05 29.4 34.1 31.1 29.95 Q30.95 28.95 30.35 28.45 29.25 28.65 28.0 30.1 L28.4 29.3 Q29.8 28.15 30.9 28.05 L30.95 28.05 M27.4 31.5 L28.4 34.55 28.7 37.7 28.2 35.3 27.0 32.85 27.4 31.5" fill="#3d4243" fill-rule="evenodd" stroke="none"/>
      <path d="M15.95 26.45 Q15.1 26.5 14.0 27.4 L13.65 28.1 M16.0 26.45 L16.6 26.5 Q17.3 27.1 17.15 28.5 L17.05 28.75 16.35 32.75 Q16.05 35.45 16.0 38.75 15.2 39.7 14.35 39.45 13.3 39.25 12.55 37.85 L12.45 37.15 12.35 36.05 M12.3 35.85 Q12.2 34.15 12.4 32.55 L12.9 30.25 13.1 29.45 13.65 28.1 M20.3 27.4 L20.75 26.45 Q22.2 25.15 23.35 25.05 M23.4 25.05 L24.2 25.15 Q25.1 26.0 24.9 28.0 L24.85 28.4 Q24.3 30.6 24.0 33.15 23.45 37.4 23.4 42.7 22.3 44.1 21.2 43.75 19.75 43.45 18.8 41.45 L18.65 40.4 18.55 38.85 M18.5 38.6 Q18.35 35.6 18.75 32.9 L19.25 30.5 19.6 29.25 20.3 27.4 M30.9 28.05 Q29.8 28.15 28.4 29.3 L28.0 30.1 M26.3 40.2 L26.45 41.6 M32.3 31.0 L32.4 30.65 Q32.6 28.85 31.7 28.1 L30.95 28.05 M27.0 32.85 L27.4 31.5 28.0 30.1 M26.3 40.0 Q26.05 36.4 26.85 33.3 L27.0 32.85 M32.3 31.0 Q31.0 36.15 30.95 43.6 29.9 44.8 28.85 44.5 27.5 44.25 26.55 42.5 L26.45 41.6" fill="none" stroke="#000000" stroke-linecap="round" stroke-linejoin="round" stroke-opacity="0.3019608" stroke-width="0.5"/>
      <path d="M24.55 26.15 Q25.5 27.0 25.3 29.05 L25.2 29.4 24.4 34.15 Q23.85 38.45 23.8 43.75 22.7 45.1 21.6 44.8 20.15 44.45 19.2 42.45 L19.05 41.45 18.9 39.85 18.9 39.65 Q18.7 36.6 19.15 33.9 L19.65 31.55 20.0 30.3 20.65 28.45 21.1 27.45 Q22.55 26.2 23.75 26.1 L24.55 26.15 M16.35 27.45 L16.4 27.45 17.0 27.5 Q17.7 28.1 17.55 29.5 L17.45 29.8 16.75 33.8 Q16.4 36.5 16.4 39.75 15.6 40.7 14.75 40.5 13.65 40.25 12.95 38.85 L12.8 38.15 12.7 37.05 12.7 36.9 Q12.6 35.15 12.8 33.6 12.95 32.4 13.25 31.25 L13.5 30.5 14.05 29.1 14.4 28.45 Q15.45 27.55 16.35 27.45 M31.3 29.05 L32.05 29.15 Q32.95 29.85 32.75 31.65 L32.7 32.0 Q31.4 37.15 31.35 44.6 30.3 45.85 29.25 45.55 27.9 45.25 26.95 43.5 L26.85 42.6 26.7 41.2 26.65 41.0 Q26.45 37.4 27.25 34.3 L27.35 33.85 27.8 32.5 28.35 31.15 28.8 30.3 Q30.2 29.15 31.3 29.05" fill="#000000" fill-opacity="0.5019608" fill-rule="evenodd" stroke="none"/>
      <path d="M24.85 28.4 Q24.3 30.6 24.0 33.15 23.45 37.4 23.4 42.7 22.3 44.1 21.2 43.75 19.75 43.45 18.8 41.45 L18.65 40.4 20.15 42.8 21.85 43.15 22.9 39.45 22.9 33.05 24.85 28.4 M19.6 29.25 L20.3 27.4 Q21.6 25.7 22.75 25.55 23.4 26.05 23.55 27.2 L21.75 31.95 22.05 37.5 21.6 38.85 21.05 36.05 20.75 32.35 19.6 29.25 M13.65 28.1 Q14.65 26.9 15.55 26.75 16.0 27.15 16.1 27.95 L14.8 31.25 15.0 35.1 14.65 36.05 14.4 34.85 13.95 31.4 13.1 29.45 13.65 28.1 M17.05 28.75 L16.35 32.75 Q16.05 35.45 16.0 38.75 15.2 39.7 14.35 39.45 13.3 39.25 12.55 37.85 L12.45 37.15 13.55 38.8 14.8 39.05 15.65 36.45 15.65 32.0 17.05 28.75 M32.3 31.0 Q31.0 36.15 30.95 43.6 29.9 44.8 28.85 44.5 27.5 44.25 26.55 42.5 L26.45 41.6 27.85 43.7 29.45 44.0 30.5 40.7 30.5 35.05 32.3 31.0 M27.4 31.5 L28.0 30.1 Q29.25 28.65 30.35 28.45 30.95 28.95 31.1 29.95 L29.4 34.1 29.65 39.05 29.25 40.2 28.7 37.7 28.4 34.55 27.4 31.5" fill="#202324" fill-rule="evenodd" stroke="none"/>
      <path d="M23.4 25.05 L24.2 25.15 Q25.1 26.0 24.9 28.0 L24.85 28.4 22.9 33.05 22.9 39.45 21.85 43.15 20.15 42.8 18.65 40.4 18.55 38.85 18.85 39.4 20.0 41.2 21.4 40.45 22.35 38.1 22.35 32.2 24.0 28.0 Q24.5 26.05 23.4 25.05 M12.6 36.4 L13.45 37.7 Q14.0 37.45 14.5 37.15 L15.2 35.5 15.2 31.45 16.45 28.5 Q16.85 27.15 16.0 26.45 L16.6 26.5 Q17.3 27.1 17.15 28.5 L17.05 28.75 15.65 32.0 15.65 36.45 14.8 39.05 13.55 38.8 12.45 37.15 12.35 36.05 12.6 36.4 M30.95 28.05 L31.7 28.1 Q32.6 28.85 32.4 30.65 L32.3 31.0 30.5 35.05 30.5 40.7 29.45 44.0 27.85 43.7 26.45 41.6 26.3 40.2 26.6 40.65 27.7 42.25 29.05 41.65 29.95 39.5 29.95 34.35 31.55 30.65 Q32.0 28.95 30.95 28.05" fill="#000000" fill-rule="evenodd" stroke="none"/>
      <path d="M18.55 38.85 L18.5 38.6 Q18.35 35.6 18.75 32.9 L19.25 30.5 20.5 33.25 21.05 36.05 21.6 38.85 21.3 39.85 20.45 40.45 18.85 39.4 18.55 38.85 M14.65 36.05 L14.4 36.75 13.8 37.15 12.6 36.4 12.35 36.05 12.3 35.85 Q12.2 34.15 12.4 32.55 L12.9 30.25 13.8 32.15 14.4 34.85 14.65 36.05 M26.3 40.2 L26.3 40.0 Q26.05 36.4 26.85 33.3 L27.0 32.85 28.2 35.3 28.7 37.7 29.25 40.2 28.95 41.05 28.15 41.6 26.6 40.65 26.3 40.2" fill="#2d3131" fill-rule="evenodd" stroke="none"/>
      <path d="M19.25 30.5 L19.6 29.25 20.75 32.35 21.05 36.05 20.5 33.25 19.25 30.5 M20.3 27.4 L20.75 26.45 Q22.2 25.15 23.35 25.05 L23.4 25.05 Q24.5 26.05 24.0 28.0 L22.35 32.2 22.35 38.1 21.4 40.45 20.0 41.2 18.85 39.4 20.45 40.45 21.3 39.85 21.6 38.85 22.05 37.5 21.75 31.95 23.55 27.2 Q23.4 26.05 22.75 25.55 21.6 25.7 20.3 27.4 M15.95 26.45 L16.0 26.45 Q16.85 27.15 16.45 28.5 L15.2 31.45 15.2 35.5 14.5 37.15 Q14.0 37.45 13.45 37.7 L12.6 36.4 13.8 37.15 14.4 36.75 14.65 36.05 15.0 35.1 14.8 31.25 16.1 27.95 Q16.0 27.15 15.55 26.75 14.65 26.9 13.65 28.1 L14.0 27.4 Q15.1 26.5 15.95 26.45 M12.9 30.25 L13.1 29.45 13.95 31.4 14.4 34.85 13.8 32.15 12.9 30.25 M27.0 32.85 L27.4 31.5 28.4 34.55 28.7 37.7 28.2 35.3 27.0 32.85 M28.0 30.1 L28.4 29.3 Q29.8 28.15 30.9 28.05 L30.95 28.05 Q32.0 28.95 31.55 30.65 L29.95 34.35 29.95 39.5 29.05 41.65 27.7 42.25 26.6 40.65 28.15 41.6 28.95 41.05 29.25 40.2 29.65 39.05 29.4 34.1 31.1 29.95 Q30.95 28.95 30.35 28.45 29.25 28.65 28.0 30.1" fill="#3d4243" fill-rule="evenodd" stroke="none"/>
      <path d="M23.4 25.05 L24.2 25.15 Q25.1 26.0 24.9 28.0 L24.85 28.4 Q24.3 30.6 24.0 33.15 23.45 37.4 23.4 42.7 22.3 44.1 21.2 43.75 19.75 43.45 18.8 41.45 L18.65 40.4 18.55 38.85 M18.5 38.6 Q18.35 35.6 18.75 32.9 L19.25 30.5 19.6 29.25 20.3 27.4 20.75 26.45 Q22.2 25.15 23.35 25.05 M15.95 26.45 Q15.1 26.5 14.0 27.4 L13.65 28.1 M16.0 26.45 L16.6 26.5 Q17.3 27.1 17.15 28.5 L17.05 28.75 16.35 32.75 Q16.05 35.45 16.0 38.75 15.2 39.7 14.35 39.45 13.3 39.25 12.55 37.85 L12.45 37.15 12.35 36.05 M12.3 35.85 Q12.2 34.15 12.4 32.55 L12.9 30.25 13.1 29.45 13.65 28.1 M30.95 28.05 L31.7 28.1 Q32.6 28.85 32.4 30.65 L32.3 31.0 Q31.0 36.15 30.95 43.6 29.9 44.8 28.85 44.5 27.5 44.25 26.55 42.5 L26.45 41.6 26.3 40.2 M26.3 40.0 Q26.05 36.4 26.85 33.3 L27.0 32.85 27.4 31.5 28.0 30.1 28.4 29.3 Q29.8 28.15 30.9 28.05" fill="none" stroke="#000000" stroke-linecap="round" stroke-linejoin="round" stroke-opacity="0.3019608" stroke-width="0.5"/>
      <path d="M38.0 17.2 L38.0 17.05 38.2 17.05 38.0 17.2 M36.5 26.9 L36.55 26.9 36.55 26.95 36.5 26.9" fill="#a96501" fill-rule="evenodd" stroke="none"/>
      <path d="M37.0 15.75 L37.0 15.7 37.0 15.75" fill="#fd9b0b" fill-rule="evenodd" stroke="none"/>
      <path d="M43.2 21.85 L41.55 21.5 39.6 19.0 39.45 18.05 41.1 18.5 43.6 20.7 43.2 21.85 M38.55 20.5 L38.0 22.1 36.7 23.75 35.5 24.45 35.15 23.65 35.2 21.2 36.3 19.2 36.75 18.65 38.35 19.95 38.55 20.5 M38.3 24.95 L38.3 24.0 38.7 22.85 39.35 22.4 42.1 23.2 42.35 23.85 41.4 24.8 38.8 25.65 38.3 24.95 M34.25 19.9 L34.75 19.4 35.55 18.75 35.1 20.05 34.35 22.1 34.2 24.4 33.4 24.0 33.3 24.0 32.5 23.25 32.2 22.6 32.2 22.5 32.3 22.35 33.15 22.25 34.1 21.3 34.5 20.2 34.35 19.9 34.25 19.9" fill="#2e7b8d" fill-rule="evenodd" stroke="none"/>
      <path d="M40.35 17.4 Q41.8 17.85 43.25 19.0 L43.55 19.3 43.95 20.65 Q44.1 22.1 43.4 23.7 L42.2 22.9 40.9 22.05 41.9 22.4 43.2 21.85 43.6 20.7 41.1 18.5 39.45 18.05 39.25 17.15 40.35 17.4 M37.45 23.65 L37.45 23.7 38.3 24.95 38.8 25.65 36.75 26.35 35.85 26.65 35.2 25.9 34.8 25.5 34.15 24.9 33.4 24.3 33.25 24.2 32.7 23.8 32.35 23.6 32.25 23.55 31.85 23.3 32.0 22.9 32.1 22.75 32.1 22.7 32.2 22.5 32.2 22.6 32.5 23.25 33.3 24.0 33.4 24.0 34.2 24.4 34.35 22.1 35.1 20.05 34.8 22.15 34.8 23.05 34.9 24.85 35.95 25.3 37.45 23.65" fill="#225966" fill-rule="evenodd" stroke="none"/>
      <path d="M43.2 21.85 L41.9 22.4 40.9 22.05 42.2 22.9 39.05 21.75 38.25 23.05 38.3 24.0 38.3 24.95 37.45 23.7 37.45 23.65 38.0 22.1 38.55 20.5 40.0 21.5 38.9 20.1 38.2 17.05 38.65 17.05 39.25 17.15 39.45 18.05 39.6 19.0 41.55 21.5 43.2 21.85 M36.3 18.2 L36.55 18.05 37.4 17.5 38.35 19.95 36.75 18.65 36.3 19.2 35.4 20.35 34.8 23.05 34.8 22.15 35.1 20.05 35.55 18.75 36.3 18.2 M32.3 22.35 Q32.75 21.55 33.35 20.8 L33.4 20.8 33.95 20.15 34.0 20.1 34.25 19.9 34.35 19.9 34.5 20.2 34.1 21.3 33.15 22.25 32.3 22.35" fill="#3ea0b9" fill-rule="evenodd" stroke="none"/>
      <path d="M42.2 22.9 L43.4 23.7 42.65 24.4 41.8 24.65 41.4 24.8 42.35 23.85 42.1 23.2 39.35 22.4 38.7 22.85 38.3 24.0 38.25 23.05 39.05 21.75 42.2 22.9 M38.2 17.05 L38.9 20.1 40.0 21.5 38.55 20.5 38.35 19.95 37.4 17.5 38.0 17.2 38.2 17.05 M38.0 22.1 L37.45 23.65 35.95 25.3 34.9 24.85 34.8 23.05 35.4 20.35 36.3 19.2 35.2 21.2 35.15 23.65 35.5 24.45 36.7 23.75 38.0 22.1" fill="#59b3c8" fill-rule="evenodd" stroke="none"/>
      <path d="M35.85 16.55 L35.05 17.05 35.85 16.55" fill="#fff1bb" fill-rule="evenodd" stroke="none"/>
      <path d="M45.2 24.7 L45.25 24.8 45.15 24.8 45.2 24.7" fill="#febe5f" fill-rule="evenodd" stroke="none"/>
      <path d="M44.85 24.7 L44.7 24.85 44.7 24.8 44.85 24.7" fill="#ffb711" fill-rule="evenodd" stroke="none"/>
      <path d="M42.95 16.85 L43.35 17.1 43.75 17.3 44.7 18.0 Q45.65 19.0 46.05 20.1 L46.6 20.4 Q47.15 20.55 47.5 19.7 L47.65 20.9 47.65 21.4 Q47.0 20.7 46.35 21.85 L46.25 22.05 Q46.1 23.25 45.3 24.5 L45.25 24.65 45.2 24.7 45.15 24.8 44.55 25.55 44.35 25.65 44.0 25.8 44.7 24.85 44.85 24.7 44.85 24.6 45.1 24.25 Q46.1 22.45 45.75 20.8 45.5 19.4 44.3 18.1 L43.8 17.75 43.35 17.4 42.0 16.65 40.65 16.15 39.35 15.85 38.8 15.75 38.05 15.8 37.3 15.9 36.5 16.2 35.85 16.55 Q36.15 16.35 36.8 15.9 L35.95 16.0 36.2 15.8 36.3 15.8 37.3 15.4 Q36.5 15.75 37.9 15.65 L38.8 15.65 39.45 15.7 40.75 15.95 42.25 16.5 42.95 16.85 M37.0 15.75 L37.0 15.7 37.0 15.75" fill="#fcbd61" fill-rule="evenodd" stroke="none"/>
      <path d="M45.35 16.9 L43.55 16.35 43.4 16.35 Q42.9 16.35 42.95 16.85 L42.25 16.5 40.75 15.95 39.45 15.7 38.8 15.65 37.9 15.65 Q36.5 15.75 37.3 15.4 L38.05 15.1 38.85 15.0 40.05 15.0 41.0 15.15 43.35 15.8 43.45 15.85 Q44.45 16.25 45.35 16.9 M47.65 21.4 Q47.55 22.75 46.55 24.1 L46.55 24.15 46.5 24.25 45.25 24.8 45.2 24.7 45.25 24.65 45.3 24.5 Q46.1 23.25 46.25 22.05 L46.35 21.85 Q47.0 20.7 47.65 21.4" fill="#feb445" fill-rule="evenodd" stroke="none"/>
      <path d="M45.35 16.9 L46.05 17.4 46.9 18.5 47.5 19.7 Q47.15 20.55 46.6 20.4 L46.05 20.1 Q45.65 19.0 44.7 18.0 L43.75 17.3 43.35 17.1 42.95 16.85 Q42.9 16.35 43.4 16.35 L43.55 16.35 45.35 16.9" fill="#f49302" fill-rule="evenodd" stroke="none"/>
      <path d="M41.35 26.8 L39.85 27.25 39.75 26.85 39.6 26.1 39.6 25.85 41.25 25.3 42.95 24.7 43.4 23.7 Q44.1 22.1 43.95 20.65 L43.55 19.3 43.25 19.0 Q41.8 17.85 40.35 17.4 L40.65 16.15 42.0 16.65 43.35 17.4 43.8 17.75 44.3 18.1 Q45.5 19.4 45.75 20.8 46.1 22.45 45.1 24.25 L44.85 24.6 44.85 24.7 44.7 24.8 44.6 24.9 42.65 26.15 41.35 26.8 M32.8 26.15 L31.0 24.85 29.25 23.9 Q30.05 22.45 30.95 21.25 L31.1 21.15 31.95 20.05 32.85 19.0 33.35 18.5 34.25 17.65 34.1 19.5 33.45 20.15 33.35 20.2 33.25 20.35 31.7 22.25 31.65 22.3 30.9 23.55 31.8 24.0 32.0 24.1 32.85 24.65 33.1 24.8 33.1 25.05 32.8 26.15" fill="#e37302" fill-rule="evenodd" stroke="none"/>
      <path d="M46.5 24.25 L45.95 24.85 45.85 24.95 45.3 25.2 44.55 25.55 45.15 24.8 45.25 24.8 46.5 24.25 M44.0 25.8 L42.6 26.35 42.0 26.6 41.35 26.8 42.65 26.15 44.6 24.9 44.7 24.8 44.7 24.85 44.0 25.8 M39.85 27.25 L39.05 27.5 39.05 27.1 39.05 26.25 39.1 26.0 39.6 25.85 39.6 26.1 39.75 26.85 39.85 27.25 M36.1 28.4 L35.4 28.6 34.4 27.55 34.25 27.4 33.4 26.65 32.8 26.15 33.1 25.05 33.1 24.8 33.4 25.0 34.65 26.1 35.05 26.55 35.15 26.7 35.55 27.2 36.5 26.9 36.55 26.95 36.25 28.0 36.1 28.3 36.1 28.4 M29.25 23.9 Q29.95 22.35 30.8 21.05 L30.95 20.8 31.5 20.05 32.7 18.55 33.35 17.9 34.3 17.1 35.65 16.2 35.95 16.0 36.8 15.9 Q36.15 16.35 35.85 16.55 L35.05 17.05 34.3 17.65 34.25 17.65 33.35 18.5 32.85 19.0 31.95 20.05 31.1 21.15 30.95 21.25 Q30.05 22.45 29.25 23.9 M38.65 17.05 L38.2 17.05 38.0 17.05 Q37.95 16.6 37.3 15.9 L38.05 15.8 38.8 15.75 38.7 16.5 38.65 17.05 M34.1 19.5 L35.35 18.45 36.3 18.2 35.55 18.75 34.75 19.4 34.25 19.9 34.0 20.1 33.95 20.15 33.4 20.8 33.35 20.8 Q32.75 21.55 32.3 22.35 L32.2 22.5 32.1 22.7 32.1 22.75 32.0 22.9 31.85 23.3 30.9 23.55 31.65 22.3 31.7 22.25 33.25 20.35 33.35 20.2 33.45 20.15 34.1 19.5" fill="#963807" fill-rule="evenodd" stroke="none"/>
      <path d="M41.25 25.3 L39.6 25.85 39.1 26.0 36.55 26.9 36.75 26.35 38.8 25.65 41.4 24.8 41.8 24.65 41.25 25.3 M35.85 16.55 L36.5 16.2 37.3 15.9 Q37.95 16.6 38.0 17.05 L37.65 17.1 Q37.05 17.35 36.4 17.75 L35.75 18.2 35.35 18.45 34.1 19.5 34.25 17.65 34.3 17.65 35.05 17.05 35.85 16.55 M32.0 24.1 L32.7 23.8 33.25 24.2 33.4 24.3 34.15 24.9 34.8 25.5 35.2 25.9 34.65 26.1 33.4 25.0 33.1 24.8 32.85 24.65 32.0 24.1" fill="#6c2206" fill-rule="evenodd" stroke="none"/>
      <path d="M39.05 27.5 L36.1 28.4 36.1 28.3 36.25 28.0 36.55 26.95 36.55 26.9 36.5 26.9 35.55 27.2 35.15 26.7 35.05 26.55 34.65 26.1 35.2 25.9 35.85 26.65 36.75 26.35 36.55 26.9 39.1 26.0 39.05 26.25 39.05 27.1 39.05 27.5 M43.4 23.7 L42.95 24.7 41.25 25.3 41.8 24.65 42.65 24.4 43.4 23.7 M39.25 17.15 L38.65 17.05 38.7 16.5 38.8 15.75 39.35 15.85 40.65 16.15 40.35 17.4 39.25 17.15 M35.35 18.45 L35.75 18.2 36.4 17.75 Q37.05 17.35 37.65 17.1 L38.0 17.05 38.0 17.2 37.4 17.5 36.55 18.05 36.3 18.2 35.35 18.45 M30.9 23.55 L31.85 23.3 32.25 23.55 32.35 23.6 32.7 23.8 32.0 24.1 31.8 24.0 30.9 23.55" fill="#560000" fill-rule="evenodd" stroke="none"/>
      <path d="M47.5 19.7 L46.9 18.5 46.05 17.4 45.35 16.9 M47.5 19.7 L47.65 20.9 47.65 21.4 Q47.55 22.75 46.55 24.1 L46.55 24.15 46.5 24.25 45.95 24.85 45.85 24.95 45.3 25.2 44.55 25.55 44.35 25.65 44.0 25.8 42.6 26.35 42.0 26.6 41.35 26.8 39.85 27.25 39.05 27.5 36.1 28.4 35.4 28.6 34.4 27.55 34.25 27.4 33.4 26.65 32.8 26.15 31.0 24.85 29.25 23.9 Q29.95 22.35 30.8 21.05 L30.95 20.8 31.5 20.05 32.7 18.55 33.35 17.9 34.3 17.1 35.65 16.2 35.95 16.0 36.2 15.8 36.3 15.8 37.3 15.4 38.05 15.1 38.85 15.0 40.05 15.0 41.0 15.15 43.35 15.8 43.45 15.85 Q44.45 16.25 45.35 16.9 M40.35 17.4 Q41.8 17.85 43.25 19.0 L43.55 19.3 43.95 20.65 Q44.1 22.1 43.4 23.7 L42.95 24.7 M43.4 23.7 L42.65 24.4 41.8 24.65 M39.25 17.15 L38.65 17.05 38.2 17.05 38.0 17.2 M41.4 24.8 L41.8 24.65 M40.35 17.4 L39.25 17.15 M37.65 17.1 L38.0 17.05 38.2 17.05 M36.3 18.2 L36.55 18.05 37.4 17.5 38.0 17.2 M32.3 22.35 Q32.75 21.55 33.35 20.8 L33.4 20.8 33.95 20.15 34.0 20.1 34.25 19.9 34.75 19.4 35.55 18.75 36.3 18.2 M31.85 23.3 L32.0 22.9 32.1 22.75 32.1 22.7 32.2 22.5 32.3 22.35 M36.75 26.35 L38.8 25.65 41.4 24.8 M32.7 23.8 L32.35 23.6 32.25 23.55 31.85 23.3 M32.7 23.8 L33.25 24.2 33.4 24.3 34.15 24.9 34.8 25.5 35.2 25.9 35.85 26.65 36.75 26.35" fill="none" stroke="#000000" stroke-linecap="round" stroke-linejoin="round" stroke-opacity="0.3019608" stroke-width="0.5"/>
    </g>
    <g id="sprite0" transform="matrix(1.0, 0.0, 0.0, 1.0, 73.5, 65.0)">
      <use height="136.85" transform="matrix(1.0, 0.0, 0.0, 1.0, -73.5, -65.0)" width="148.25" xlink:href="#shape1"/>
    </g>
    <g id="shape1" transform="matrix(1.0, 0.0, 0.0, 1.0, 73.5, 65.0)">
      <path d="M36.65 -54.65 Q60.05 -42.0 69.75 -17.95 80.55 8.9 68.0 34.1 55.45 59.35 26.8 68.2 -1.8 77.05 -29.7 64.3 -57.6 51.6 -68.45 24.75 -79.3 -2.05 -66.75 -27.25 L-66.7 -27.3 Q-54.1 -52.5 -25.5 -61.4 3.1 -70.2 31.0 -57.5 L36.65 -54.65" fill="url(#gradient0)" fill-rule="evenodd" stroke="none"/>
    </g>
    <radialGradient cx="0" cy="0" gradientTransform="matrix(0.0914, 0.0, 0.0, 0.0914, 0.6, 3.4)" gradientUnits="userSpaceOnUse" id="gradient0" r="819.2" spreadMethod="pad">
      <stop offset="0.0" stop-color="#ffffff"/>
      <stop offset="1.0" stop-color="#ffffff" stop-opacity="0.0"/>
    </radialGradient>
    <g id="sprite1" transform="matrix(1.0, 0.0, 0.0, 1.0, 0.0, 0.0)">
      <use height="20.95" transform="matrix(1.0, 0.0, 0.0, 1.0, 0.0, 0.0)" width="24.45" xlink:href="#shape2"/>
    </g>
    <g id="shape2" transform="matrix(1.0, 0.0, 0.0, 1.0, 0.0, 0.0)">
      <path d="M14.85 11.4 Q15.8 11.6 16.25 12.45 16.85 13.3 16.6 14.35 16.4 15.3 15.55 15.9 14.65 16.4 13.65 16.2 12.65 15.9 12.1 15.1 11.6 14.2 11.8 13.2 12.1 12.2 12.9 11.65 13.8 11.15 14.85 11.4" fill="#ffffff" fill-opacity="0.7882353" fill-rule="evenodd" stroke="none"/>
      <path d="M14.85 11.4 Q13.8 11.15 12.9 11.65 12.1 12.2 11.8 13.2 11.6 14.2 12.1 15.1 12.65 15.9 13.65 16.2 14.65 16.4 15.55 15.9 16.4 15.3 16.6 14.35 16.85 13.3 16.25 12.45 15.8 11.6 14.85 11.4 M18.2 11.35 L20.15 11.25 18.75 12.55 Q19.05 13.8 18.8 15.05 18.5 16.35 17.65 17.3 L19.1 20.95 16.55 18.25 Q14.8 19.3 12.8 18.85 10.8 18.35 9.75 16.65 9.05 15.5 8.95 14.3 7.75 12.4 4.95 11.55 L9.7 11.4 Q10.3 10.4 11.35 9.75 13.1 8.75 15.1 9.15 16.95 9.5 18.1 11.15 L18.2 11.35" fill="#ffffff" fill-opacity="0.23529412" fill-rule="evenodd" stroke="none"/>
      <path d="M15.4 13.55 L18.1 17.55 13.35 14.65 7.05 18.5 12.75 13.55 0.0 0.0 14.25 12.25 24.45 5.95 15.4 13.55" fill="#ffffff" fill-opacity="0.7882353" fill-rule="evenodd" stroke="none"/>
    </g>
  </defs>
</svg>
