<?xml version="1.0" encoding="UTF-8" standalone="no"?>
<svg xmlns:xlink="http://www.w3.org/1999/xlink" height="520.0px" width="520.0px" xmlns="http://www.w3.org/2000/svg">
  <g transform="matrix(10.0, 0.0, 0.0, 10.0, 0.0, 0.0)">
    <use height="52.0" transform="matrix(1.0, 0.0, 0.0, 1.0, 0.0, 0.0)" width="52.0" xlink:href="#shape0"/>
    <use height="136.85" transform="matrix(-0.0827, -0.0037, 0.0522, -0.1862, 33.9856, 37.0245)" width="148.25" xlink:href="#sprite0"/>
    <use height="20.95" transform="matrix(-0.424, 0.1955, 0.3287, 0.5805, 25.1, 7.55)" width="24.45" xlink:href="#sprite1"/>
    <use height="20.95" transform="matrix(-0.3311, 0.1527, 0.2477, 0.4373, 33.55, 18.7)" width="24.45" xlink:href="#sprite1"/>
    <use height="41.75" transform="matrix(0.6523, 0.0, 0.0, 0.6523, 6.2, 14.15)" width="22.8" xlink:href="#sprite2"/>
  </g>
  <defs>
    <g id="shape0" transform="matrix(1.0, 0.0, 0.0, 1.0, 0.0, 0.0)">
      <path d="M52.0 0.0 L52.0 52.0 0.0 52.0 0.0 0.0 52.0 0.0" fill="#795fa9" fill-opacity="0.0" fill-rule="evenodd" stroke="none"/>
      <path d="M19.15 32.1 L19.15 32.15 19.15 32.1 19.15 32.15 19.15 32.1" fill="#596162" fill-rule="evenodd" stroke="none"/>
      <path d="M44.4 18.4 Q42.1 22.85 39.2 27.0 35.6 26.5 36.65 21.35 L39.8 15.35 42.0 11.55 Q45.3 12.7 44.4 18.4 M22.2 39.0 L20.8 39.2 19.35 34.4 20.05 34.35 20.55 34.15 22.15 33.7 Q20.9 36.25 22.2 39.0" fill="#ffffff" fill-rule="evenodd" stroke="none"/>
      <path d="M42.8 6.85 L44.2 7.65 Q46.1 9.4 46.55 11.7 46.2 14.7 44.4 18.4 45.3 12.7 42.0 11.55 L39.8 15.35 42.8 6.85 M33.95 33.55 L29.55 37.75 22.2 39.0 Q20.9 36.25 22.15 33.7 L23.35 33.3 27.6 32.05 32.15 26.7 Q35.3 27.3 33.95 33.55 M16.05 31.2 L15.15 30.45 17.2 23.95 18.1 24.4 17.55 26.35 17.35 26.95 16.95 28.35 16.05 31.2 M33.2 11.8 L29.6 13.65 26.3 15.3 25.7 14.65 32.65 11.0 33.2 11.8 M25.5 29.75 L24.45 30.2 24.2 29.15 24.0 26.0 25.15 25.7 25.5 29.75" fill="#e6e6cc" fill-rule="evenodd" stroke="none"/>
      <path d="M39.2 27.0 L33.95 33.55 Q35.3 27.3 32.15 26.7 L27.6 32.05 23.35 33.3 26.55 31.65 32.15 26.7 36.65 21.35 Q35.6 26.5 39.2 27.0 M16.0 35.85 Q13.35 33.45 12.65 30.8 L14.05 32.2 Q14.25 33.45 16.0 35.8 L16.0 35.85 M23.8 18.3 L21.5 18.3 24.95 15.05 25.7 14.65 26.3 15.3 23.8 18.3 M25.65 21.4 L26.3 21.95 25.15 25.7 24.0 26.0 25.65 21.4 M19.5 20.85 L20.05 22.35 18.1 24.4 17.2 23.95 19.5 20.85" fill="#ddddbb" fill-rule="evenodd" stroke="none"/>
      <path d="M35.45 8.05 L39.0 7.55 36.3 10.0 38.15 9.85 32.65 11.0 25.7 14.65 24.95 15.05 21.5 18.3 20.85 18.3 24.6 14.6 26.65 13.5 32.45 10.5 33.55 10.35 35.45 8.05 M12.65 30.8 L19.1 15.5 25.45 11.8 20.1 15.45 13.45 30.25 16.25 33.6 14.05 32.2 12.65 30.8 M15.15 30.45 L14.75 30.1 16.7 23.7 19.25 20.3 21.65 20.25 19.5 20.85 17.2 23.95 15.15 30.45 M24.2 29.15 L23.55 26.35 23.5 26.1 25.0 20.8 26.35 21.0 27.9 18.3 29.25 18.35 27.15 21.15 28.4 21.3 25.65 21.4 24.0 26.0 24.2 29.15" fill="#c0c083" fill-rule="evenodd" stroke="none"/>
      <path d="M25.45 11.8 L27.35 10.65 26.65 13.5 24.6 14.6 20.85 18.3 21.5 18.3 23.8 18.3 25.2 18.3 22.65 24.65 21.6 27.05 21.4 26.05 22.05 23.25 22.45 21.65 22.8 20.2 21.65 20.25 19.25 20.3 16.7 23.7 14.75 30.1 15.15 30.45 16.05 31.2 17.4 32.3 19.15 32.15 18.1 34.25 16.8 33.8 16.25 33.6 13.45 30.25 20.1 15.45 25.45 11.8 M39.0 7.55 L42.8 6.85 39.8 15.35 36.65 21.35 32.15 26.7 26.55 31.65 23.35 33.3 22.15 33.7 20.55 34.15 21.35 31.85 22.75 31.6 22.2 29.5 23.55 26.35 24.2 29.15 24.45 30.2 25.5 29.75 27.2 29.05 28.1 28.7 30.95 23.9 31.45 23.1 31.75 22.65 29.7 21.5 29.65 21.5 28.4 21.3 27.15 21.15 29.25 18.35 31.6 18.3 32.65 19.55 33.65 20.8 36.55 17.5 37.0 16.7 38.85 13.05 39.45 11.6 40.5 9.55 38.15 9.85 36.3 10.0 39.0 7.55" fill="#99996a" fill-rule="evenodd" stroke="none"/>
      <path d="M27.35 10.65 L30.4 8.9 35.45 8.05 33.55 10.35 32.45 10.5 26.65 13.5 27.35 10.65 M18.1 34.25 L19.15 32.15 19.15 32.1 21.35 31.85 20.55 34.15 20.05 34.35 19.35 34.4 18.1 34.25 M21.6 27.05 L22.65 24.65 25.2 18.3 25.75 18.35 27.7 18.3 27.9 18.3 26.35 21.0 25.0 20.8 23.5 26.1 23.55 26.35 22.2 29.5 22.2 29.4 21.6 27.05" fill="#777755" fill-rule="evenodd" stroke="none"/>
      <path d="M20.8 39.2 L19.4 38.4 16.85 36.55 16.2 36.05 16.0 35.85 16.0 35.8 Q14.25 33.45 14.05 32.2 L16.25 33.6 16.8 33.8 18.1 34.25 19.35 34.4 20.8 39.2 M21.65 20.25 L22.8 20.2 22.45 21.65 21.25 22.05 20.05 22.35 19.5 20.85 21.65 20.25 M36.5 11.15 L33.2 11.8 32.65 11.0 38.15 9.85 40.5 9.55 39.45 11.6 36.5 11.15 M31.45 23.1 L29.85 22.2 28.1 22.1 26.3 21.95 25.65 21.4 28.4 21.3 29.65 21.5 29.7 21.5 31.75 22.65 31.45 23.1" fill="#504f38" fill-rule="evenodd" stroke="none"/>
      <path d="M29.6 13.65 L29.85 13.95 31.5 14.4 34.5 13.8 37.3 13.25 33.8 14.4 35.95 16.15 35.05 15.55 33.5 14.65 31.7 14.8 30.25 15.7 31.15 16.15 32.55 16.3 29.6 16.5 28.1 17.65 29.1 15.85 26.6 16.85 26.5 16.05 28.65 15.5 29.85 14.7 29.6 13.65 M27.7 22.5 L27.65 23.65 28.5 23.8 27.05 23.95 26.7 24.65 27.25 25.75 26.0 24.85 26.75 23.5 27.7 22.5 M27.65 26.05 L28.35 24.75 27.25 28.5 27.65 26.05 M21.55 23.3 L20.4 24.0 19.3 25.2 20.05 27.5 20.65 28.35 19.55 31.05 19.85 27.95 18.55 26.35 17.35 26.95 17.55 26.35 18.55 25.55 20.4 23.3 21.55 23.3" fill="#58797c" fill-rule="evenodd" stroke="none"/>
      <path d="M29.6 13.65 L33.2 11.8 36.5 11.15 34.5 13.8 31.5 14.4 29.85 13.95 29.6 13.65 M26.6 16.85 L29.1 15.85 28.1 17.65 27.7 18.3 25.75 18.35 26.6 16.85 M28.5 23.8 L28.8 23.95 28.35 24.75 27.65 26.05 27.25 25.75 26.7 24.65 27.05 23.95 28.5 23.8 M18.1 24.4 L20.05 22.35 21.25 22.05 20.4 23.3 18.55 25.55 17.55 26.35 18.1 24.4" fill="#1f4650" fill-rule="evenodd" stroke="none"/>
      <path d="M17.4 32.3 L16.05 31.2 16.95 28.35 17.4 32.3 M22.05 23.25 L21.4 26.05 21.6 27.05 22.2 29.4 20.85 28.65 20.65 28.35 20.05 27.5 19.3 25.2 20.4 24.0 21.55 23.3 22.05 23.25 M25.2 18.3 L23.8 18.3 26.3 15.3 26.5 16.05 26.6 16.85 25.75 18.35 25.2 18.3 M34.5 13.8 L36.5 11.15 39.45 11.6 38.85 13.05 37.3 13.25 34.5 13.8 M32.55 16.3 L31.15 16.15 30.25 15.7 31.7 14.8 33.5 14.65 35.05 15.55 32.55 16.3 M28.1 22.1 L27.7 22.5 26.75 23.5 26.0 24.85 25.15 25.7 26.3 21.95 28.1 22.1 M28.8 23.95 L30.95 23.9 28.1 28.7 27.2 29.05 27.25 28.5 28.35 24.75 28.8 23.95" fill="#153137" fill-rule="evenodd" stroke="none"/>
      <path d="M22.45 21.65 L22.05 23.25 21.55 23.3 20.4 23.3 21.25 22.05 22.45 21.65 M28.1 17.65 L29.6 16.5 32.55 16.3 32.65 19.55 31.6 18.3 29.25 18.35 27.9 18.3 27.7 18.3 28.1 17.65 M35.95 16.15 L33.8 14.4 37.3 13.25 38.85 13.05 37.0 16.7 35.95 16.15 M31.45 23.1 L30.95 23.9 28.8 23.95 28.5 23.8 27.65 23.65 27.7 22.5 28.1 22.1 29.85 22.2 31.45 23.1 M22.2 29.5 L22.75 31.6 21.35 31.85 19.15 32.1 19.55 31.05 20.65 28.35 20.85 28.65 22.2 29.4 22.2 29.5" fill="#0c1c1f" fill-rule="evenodd" stroke="none"/>
      <path d="M19.15 32.15 L17.4 32.3 16.95 28.35 17.35 26.95 18.55 26.35 19.85 27.95 19.55 31.05 19.15 32.1 19.15 32.15 M26.3 15.3 L29.6 13.65 29.85 14.7 28.65 15.5 26.5 16.05 26.3 15.3 M35.05 15.55 L35.95 16.15 37.0 16.7 36.55 17.5 33.65 20.8 32.65 19.55 32.55 16.3 35.05 15.55 M27.2 29.05 L25.5 29.75 25.15 25.7 26.0 24.85 27.25 25.75 27.65 26.05 27.25 28.5 27.2 29.05" fill="#000000" fill-rule="evenodd" stroke="none"/>
      <path d="M25.45 11.8 L27.35 10.65 30.4 8.9 35.45 8.05 39.0 7.55 42.8 6.85 44.2 7.65 Q46.1 9.4 46.55 11.7 46.2 14.7 44.4 18.4 42.1 22.85 39.2 27.0 L33.95 33.55 29.55 37.75 22.2 39.0 20.8 39.2 19.4 38.4 16.85 36.55 16.2 36.05 16.0 35.85 Q13.35 33.45 12.65 30.8 L19.1 15.5 25.45 11.8 M19.15 32.15 L17.4 32.3 16.05 31.2 15.15 30.45 14.75 30.1 M22.8 20.2 L22.45 21.65 22.05 23.25 21.4 26.05 21.6 27.05 M25.2 18.3 L23.8 18.3 21.5 18.3 20.85 18.3 M33.2 11.8 L29.6 13.65 M36.5 11.15 L33.2 11.8 M26.3 15.3 L29.6 13.65 M38.85 13.05 L39.45 11.6 36.5 11.15 M39.45 11.6 L40.5 9.55 M32.65 19.55 L33.65 20.8 36.55 17.5 37.0 16.7 38.85 13.05 M29.25 18.35 L31.6 18.3 32.65 19.55 M30.95 23.9 L31.45 23.1 29.85 22.2 28.1 22.1 M30.95 23.9 L28.1 28.7 27.2 29.05 25.5 29.75 24.45 30.2 M22.2 29.5 L22.75 31.6 21.35 31.85 M31.45 23.1 L31.75 22.65 M26.3 21.95 L28.1 22.1 M27.7 18.3 L27.9 18.3 29.25 18.35 M25.75 18.35 L27.7 18.3 M25.75 18.35 L25.2 18.3 M18.1 24.4 L20.05 22.35 21.25 22.05 22.45 21.65 M25.15 25.7 L25.5 29.75 M26.3 15.3 L23.8 18.3 M22.2 29.4 L21.6 27.05 M22.2 29.5 L22.2 29.4 M19.15 32.1 L21.35 31.85 M17.55 26.35 L17.35 26.95 16.95 28.35 16.05 31.2 M18.1 24.4 L17.55 26.35 M19.15 32.15 L19.15 32.1 19.15 32.15 M26.3 21.95 L25.15 25.7" fill="none" stroke="#000000" stroke-linecap="round" stroke-linejoin="round" stroke-opacity="0.3019608" stroke-width="0.5"/>
      <path d="M31.1 10.9 Q32.0 13.85 31.7 17.95 31.35 23.05 30.2 27.9 29.25 31.95 27.8 36.0 L27.05 37.95 19.9 38.9 18.45 38.1 15.95 36.2 15.35 35.65 15.15 35.45 Q12.6 33.0 11.85 30.3 L18.75 15.15 28.25 9.95 31.1 10.9" fill="#502727" fill-opacity="0.3019608" fill-rule="evenodd" stroke="none"/>
      <path d="M13.95 40.05 L14.0 40.05 13.95 40.1 14.0 40.05 14.0 40.1 13.95 40.1 13.95 40.05" fill="#596162" fill-rule="evenodd" stroke="none"/>
      <path d="M29.15 15.6 Q29.4 20.65 28.9 25.7 25.55 27.0 23.9 22.0 L23.75 15.25 23.75 10.85 Q27.15 10.2 29.15 15.6 M20.05 44.55 L18.95 45.4 15.25 41.9 15.85 41.5 16.25 41.15 17.35 39.9 Q17.55 42.8 20.05 44.55" fill="#ffffff" fill-rule="evenodd" stroke="none"/>
      <path d="M22.1 6.35 L23.75 6.35 Q26.25 6.95 27.75 8.7 28.95 11.55 29.15 15.6 27.15 10.2 23.75 10.85 L23.75 15.25 22.1 6.35 M27.55 34.0 L25.85 39.8 20.05 44.55 Q17.55 42.8 17.35 39.9 L18.25 39.05 21.3 35.8 22.6 28.9 Q25.7 27.85 27.55 34.0 M15.3 15.0 L16.15 15.4 14.0 18.8 11.9 21.85 11.1 21.55 15.3 15.0 M18.35 34.85 L17.65 35.8 16.9 34.95 15.2 32.3 16.1 31.5 18.35 34.85 M9.65 40.55 L8.25 33.9 9.25 33.85 9.75 35.8 9.85 36.4 10.2 37.85 10.85 40.8 9.65 40.55" fill="#e6e6cc" fill-rule="evenodd" stroke="none"/>
      <path d="M28.9 25.7 L27.55 34.0 Q25.7 27.85 22.6 28.9 L21.3 35.8 18.25 39.05 20.2 36.0 22.6 28.9 23.9 22.0 Q25.55 27.0 28.9 25.7 M13.05 44.85 Q9.6 44.1 7.65 42.1 L9.55 42.65 Q10.35 43.6 13.05 44.8 L13.05 44.85 M11.1 21.55 L11.9 21.85 11.25 25.75 9.2 26.85 10.6 22.3 11.1 21.55 M8.25 33.9 L8.75 30.1 9.95 31.1 9.25 33.85 8.25 33.9 M14.3 27.5 L15.2 27.7 16.1 31.5 15.2 32.3 14.3 27.5" fill="#ddddbb" fill-rule="evenodd" stroke="none"/>
      <path d="M16.3 11.05 L19.15 8.8 Q18.55 10.4 18.05 12.3 L19.5 11.25 15.3 15.0 11.1 21.55 10.6 22.3 9.2 26.85 8.65 27.15 10.05 22.05 11.35 20.15 14.9 14.65 15.8 13.95 16.3 11.05 M7.65 42.1 L5.7 25.55 9.45 19.25 6.55 25.05 8.1 41.25 12.2 42.8 9.55 42.65 7.65 42.1 M15.95 23.05 L15.55 26.5 16.7 26.05 14.3 27.5 15.2 32.3 16.9 34.95 15.0 32.85 14.8 32.65 13.45 27.3 14.75 26.8 14.8 23.65 15.95 23.05 M10.35 28.5 L8.75 30.1 8.25 33.9 9.65 40.55 9.15 40.45 7.7 33.95 8.25 29.65 10.35 28.5" fill="#c0c083" fill-rule="evenodd" stroke="none"/>
      <path d="M19.15 8.8 L22.1 6.35 23.75 15.25 23.9 22.0 22.6 28.9 20.2 36.0 18.25 39.05 17.35 39.9 16.25 41.15 15.8 38.75 16.85 37.85 15.4 36.25 15.0 32.85 16.9 34.95 17.65 35.8 18.35 34.85 19.5 33.45 20.1 32.65 20.2 27.0 20.25 26.15 20.25 25.55 17.9 25.55 17.9 25.6 16.7 26.05 15.55 26.5 15.95 23.05 18.05 21.85 19.5 22.4 21.05 23.0 21.95 18.7 21.9 17.8 21.7 13.7 21.55 12.1 21.45 9.8 19.5 11.25 18.05 12.3 Q18.55 10.4 19.15 8.8 M9.45 19.25 L10.55 17.3 11.35 20.15 10.05 22.05 8.65 27.15 9.2 26.85 11.25 25.75 12.4 25.05 13.4 31.8 13.6 34.45 12.95 33.65 12.15 30.9 11.65 29.35 11.25 27.9 10.35 28.5 8.25 29.65 7.7 33.95 9.15 40.45 9.65 40.55 10.85 40.8 12.55 41.1 13.95 40.1 14.0 40.1 14.1 42.45 12.8 42.7 12.2 42.8 8.1 41.25 6.55 25.05 9.45 19.25" fill="#99996a" fill-rule="evenodd" stroke="none"/>
      <path d="M10.55 17.3 L12.3 14.25 16.3 11.05 15.8 13.95 14.9 14.65 11.35 20.15 10.55 17.3 M15.0 32.85 L15.4 36.25 15.3 36.15 13.6 34.45 13.4 31.8 12.4 25.05 12.9 24.75 14.6 23.8 14.8 23.65 14.75 26.8 13.45 27.3 14.8 32.65 15.0 32.85 M15.8 38.75 L16.25 41.15 15.85 41.5 15.25 41.9 14.1 42.45 14.0 40.1 14.0 40.05 15.8 38.75" fill="#777755" fill-rule="evenodd" stroke="none"/>
      <path d="M18.95 45.4 L17.35 45.4 14.15 45.05 13.4 44.95 13.05 44.85 13.05 44.8 Q10.35 43.6 9.55 42.65 L12.2 42.8 12.8 42.7 14.1 42.45 15.25 41.9 18.95 45.4 M16.15 15.4 L15.3 15.0 19.5 11.25 21.45 9.8 21.55 12.1 18.75 13.2 16.15 15.4 M16.7 26.05 L17.9 25.6 17.9 25.55 20.25 25.55 20.25 26.15 18.45 26.15 16.8 26.9 15.2 27.7 14.3 27.5 16.7 26.05 M8.75 30.1 L10.35 28.5 11.25 27.9 11.65 29.35 10.8 30.25 9.95 31.1 8.75 30.1" fill="#504f38" fill-rule="evenodd" stroke="none"/>
      <path d="M12.4 22.4 L14.05 20.85 14.7 19.6 14.0 18.8 14.3 18.9 16.0 18.5 18.3 16.45 20.5 14.65 18.05 17.35 20.75 17.8 19.6 17.75 17.85 17.75 16.35 18.75 15.55 20.25 16.55 20.25 17.85 19.65 15.4 21.25 14.6 23.05 14.6 21.0 12.9 23.05 12.4 22.4 M18.4 30.55 L18.4 29.05 19.3 32.9 18.4 30.55 M16.65 27.4 L17.2 28.5 18.05 28.2 16.85 29.05 16.85 29.85 17.9 30.5 16.35 30.3 16.35 28.75 16.65 27.4 M11.7 31.15 L11.05 32.4 10.7 33.95 12.5 35.6 13.45 36.0 13.8 38.95 12.55 36.1 10.6 35.3 9.85 36.4 9.75 35.8 10.2 34.6 10.7 31.7 11.7 31.15" fill="#58797c" fill-rule="evenodd" stroke="none"/>
      <path d="M16.15 15.4 L18.75 13.2 18.3 16.45 16.0 18.5 14.3 18.9 14.0 18.8 16.15 15.4 M12.9 23.05 L14.6 21.0 14.6 23.05 14.6 23.8 12.9 24.75 12.9 23.05 M18.05 28.2 L18.4 28.15 18.4 29.05 18.4 30.55 17.9 30.5 16.85 29.85 16.85 29.05 18.05 28.2 M9.95 31.1 L10.8 30.25 10.7 31.7 10.2 34.6 9.75 35.8 9.25 33.85 9.95 31.1" fill="#1f4650" fill-rule="evenodd" stroke="none"/>
      <path d="M18.75 13.2 L21.55 12.1 21.7 13.7 20.5 14.65 18.3 16.45 18.75 13.2 M12.4 22.4 L12.9 23.05 12.9 24.75 12.4 25.05 11.25 25.75 11.9 21.85 12.4 22.4 M17.85 19.65 L16.55 20.25 15.55 20.25 16.35 18.75 17.85 17.75 19.6 17.75 17.85 19.65 M20.2 27.0 L20.1 32.65 19.5 33.45 19.3 32.9 18.4 29.05 18.4 28.15 20.2 27.0 M16.8 26.9 L16.65 27.4 16.35 28.75 16.35 30.3 16.1 31.5 15.2 27.7 16.8 26.9 M13.6 34.45 L15.3 36.15 13.75 36.15 13.45 36.0 12.5 35.6 10.7 33.95 11.05 32.4 11.7 31.15 12.15 30.9 12.95 33.65 13.6 34.45 M10.85 40.8 L10.2 37.85 12.55 41.1 10.85 40.8" fill="#153137" fill-rule="evenodd" stroke="none"/>
      <path d="M14.6 23.05 L15.4 21.25 17.85 19.65 19.5 22.4 18.05 21.85 15.95 23.05 14.8 23.65 14.6 23.8 14.6 23.05 M20.75 17.8 L18.05 17.35 20.5 14.65 21.7 13.7 21.9 17.8 20.75 17.8 M20.25 26.15 L20.2 27.0 18.4 28.15 18.05 28.2 17.2 28.5 16.65 27.4 16.8 26.9 18.45 26.15 20.25 26.15 M15.4 36.25 L16.85 37.85 15.8 38.75 14.0 40.05 13.95 40.05 13.8 38.95 13.45 36.0 13.75 36.15 15.3 36.15 15.4 36.25 M10.8 30.25 L11.65 29.35 12.15 30.9 11.7 31.15 10.7 31.7 10.8 30.25" fill="#0c1c1f" fill-rule="evenodd" stroke="none"/>
      <path d="M11.9 21.85 L14.0 18.8 14.7 19.6 14.05 20.85 12.4 22.4 11.9 21.85 M19.6 17.75 L20.75 17.8 21.9 17.8 21.95 18.7 21.05 23.0 19.5 22.4 17.85 19.65 19.6 17.75 M19.5 33.45 L18.35 34.85 16.1 31.5 16.35 30.3 17.9 30.5 18.4 30.55 19.3 32.9 19.5 33.45 M13.8 38.95 L13.95 40.05 13.95 40.1 12.55 41.1 10.2 37.85 9.85 36.4 10.6 35.3 12.55 36.1 13.8 38.95" fill="#000000" fill-rule="evenodd" stroke="none"/>
      <path d="M10.55 17.3 L12.3 14.25 16.3 11.05 19.15 8.8 22.1 6.35 23.75 6.35 Q26.25 6.95 27.75 8.7 28.95 11.55 29.15 15.6 29.4 20.65 28.9 25.7 L27.55 34.0 25.85 39.8 20.05 44.55 18.95 45.4 17.35 45.4 14.15 45.05 13.4 44.95 13.05 44.85 Q9.6 44.1 7.65 42.1 L5.7 25.55 9.45 19.25 10.55 17.3 M16.15 15.4 L18.75 13.2 21.55 12.1 21.45 9.8 M11.9 21.85 L14.0 18.8 16.15 15.4 M21.7 13.7 L21.55 12.1 M19.5 22.4 L21.05 23.0 21.95 18.7 21.9 17.8 21.7 13.7 M19.5 22.4 L18.05 21.85 15.95 23.05 M20.25 25.55 L20.25 26.15 20.2 27.0 20.1 32.65 19.5 33.45 18.35 34.85 17.65 35.8 M15.4 36.25 L16.85 37.85 15.8 38.75 M20.25 26.15 L18.45 26.15 16.8 26.9 M16.1 31.5 L18.35 34.85 M14.6 23.8 L14.8 23.65 15.95 23.05 M12.9 24.75 L14.6 23.8 M12.9 24.75 L12.4 25.05 M13.6 34.45 L15.3 36.15 15.4 36.25 M8.65 27.15 L9.2 26.85 11.25 25.75 11.9 21.85 M9.15 40.45 L9.65 40.55 M9.95 31.1 L10.8 30.25 11.65 29.35 11.25 27.9 M12.15 30.9 L11.65 29.35 M15.2 27.7 L16.8 26.9 M16.1 31.5 L15.2 27.7 M11.25 25.75 L12.4 25.05 M13.6 34.45 L12.95 33.65 12.15 30.9 M14.0 40.05 L15.8 38.75 M9.25 33.85 L9.95 31.1 M9.75 35.8 L9.85 36.4 M9.25 33.85 L9.75 35.8 M10.2 37.85 L10.85 40.8 12.55 41.1 M10.2 37.85 L9.85 36.4 M13.95 40.1 L12.55 41.1 M10.85 40.8 L9.65 40.55 M13.95 40.05 L13.95 40.1 14.0 40.05" fill="none" stroke="#000000" stroke-linecap="round" stroke-linejoin="round" stroke-opacity="0.3019608" stroke-width="0.5"/>
    </g>
    <g id="sprite0" transform="matrix(1.0, 0.0, 0.0, 1.0, 73.5, 65.0)">
      <use height="136.85" transform="matrix(1.0, 0.0, 0.0, 1.0, -73.5, -65.0)" width="148.25" xlink:href="#shape1"/>
    </g>
    <g id="shape1" transform="matrix(1.0, 0.0, 0.0, 1.0, 73.5, 65.0)">
      <path d="M36.65 -54.65 Q60.05 -42.0 69.75 -17.95 80.55 8.9 68.0 34.1 55.45 59.35 26.8 68.2 -1.8 77.05 -29.7 64.3 -57.6 51.6 -68.45 24.75 -79.3 -2.05 -66.75 -27.25 L-66.7 -27.3 Q-54.1 -52.5 -25.5 -61.4 3.1 -70.2 31.0 -57.5 L36.65 -54.65" fill="url(#gradient0)" fill-rule="evenodd" stroke="none"/>
    </g>
    <radialGradient cx="0" cy="0" gradientTransform="matrix(0.0914, 0.0, 0.0, 0.0914, 0.6, 3.4)" gradientUnits="userSpaceOnUse" id="gradient0" r="819.2" spreadMethod="pad">
      <stop offset="0.0" stop-color="#ffffff"/>
      <stop offset="1.0" stop-color="#ffffff" stop-opacity="0.0"/>
    </radialGradient>
    <g id="sprite1" transform="matrix(1.0, 0.0, 0.0, 1.0, 0.0, 0.0)">
      <use height="20.95" transform="matrix(1.0, 0.0, 0.0, 1.0, 0.0, 0.0)" width="24.45" xlink:href="#shape2"/>
    </g>
    <g id="shape2" transform="matrix(1.0, 0.0, 0.0, 1.0, 0.0, 0.0)">
      <path d="M14.85 11.4 Q15.8 11.6 16.25 12.45 16.85 13.3 16.6 14.35 16.4 15.3 15.55 15.9 14.65 16.4 13.65 16.2 12.65 15.9 12.1 15.1 11.6 14.2 11.8 13.2 12.1 12.2 12.9 11.65 13.8 11.15 14.85 11.4" fill="#ffffff" fill-opacity="0.7882353" fill-rule="evenodd" stroke="none"/>
      <path d="M14.85 11.4 Q13.8 11.15 12.9 11.65 12.1 12.2 11.8 13.2 11.6 14.2 12.1 15.1 12.65 15.9 13.65 16.2 14.65 16.4 15.55 15.9 16.4 15.3 16.6 14.35 16.85 13.3 16.25 12.45 15.8 11.6 14.85 11.4 M18.2 11.35 L20.15 11.25 18.75 12.55 Q19.05 13.8 18.8 15.05 18.5 16.35 17.65 17.3 L19.1 20.95 16.55 18.25 Q14.8 19.3 12.8 18.85 10.8 18.35 9.75 16.65 9.05 15.5 8.95 14.3 7.75 12.4 4.95 11.55 L9.7 11.4 Q10.3 10.4 11.35 9.75 13.1 8.75 15.1 9.15 16.95 9.5 18.1 11.15 L18.2 11.35" fill="#ffffff" fill-opacity="0.23529412" fill-rule="evenodd" stroke="none"/>
      <path d="M15.4 13.55 L18.1 17.55 13.35 14.65 7.05 18.5 12.75 13.55 0.0 0.0 14.25 12.25 24.45 5.95 15.4 13.55" fill="#ffffff" fill-opacity="0.7882353" fill-rule="evenodd" stroke="none"/>
    </g>
    <g id="sprite2" transform="matrix(1.0, 0.0, 0.0, 1.0, 0.0, 0.0)">
      <use height="41.75" transform="matrix(1.0, 0.0, 0.0, 1.0, 0.0, 0.0)" width="22.8" xlink:href="#shape3"/>
    </g>
    <g id="shape3" transform="matrix(1.0, 0.0, 0.0, 1.0, 0.0, 0.0)">
      <path d="M11.45 26.3 Q11.95 27.35 11.55 28.75 11.3 30.3 10.25 31.45 9.35 32.45 8.25 32.55 7.15 32.4 6.65 31.35 6.15 30.2 6.45 28.75 6.8 27.2 7.75 26.1 8.85 25.1 9.85 25.05 10.9 25.1 11.45 26.3" fill="#ffffff" fill-opacity="0.7882353" fill-rule="evenodd" stroke="none"/>
      <path d="M11.45 26.3 Q10.9 25.1 9.85 25.05 8.85 25.1 7.75 26.1 6.8 27.2 6.45 28.75 6.15 30.2 6.65 31.35 7.15 32.4 8.25 32.55 9.35 32.45 10.25 31.45 11.3 30.3 11.55 28.75 11.95 27.35 11.45 26.3 M13.85 28.9 L15.35 30.4 13.3 30.9 Q12.45 32.7 11.3 34.1 9.95 35.45 8.6 35.95 L6.65 41.75 7.0 36.3 Q4.9 36.2 3.85 34.0 2.8 31.75 3.45 28.8 3.9 26.8 4.8 25.2 5.5 21.85 4.2 18.5 5.85 22.35 7.75 22.15 9.0 21.4 10.3 21.4 12.35 21.55 13.5 23.65 14.5 25.6 14.0 28.6 L13.85 28.9" fill="#ffffff" fill-opacity="0.23529412" fill-rule="evenodd" stroke="none"/>
      <path d="M10.05 29.45 L8.75 36.65 7.65 29.15 0.0 28.95 8.15 27.3 10.15 0.0 10.3 26.9 22.8 27.2 10.05 29.45" fill="#ffffff" fill-opacity="0.7882353" fill-rule="evenodd" stroke="none"/>
    </g>
  </defs>
</svg>
