<?xml version="1.0" encoding="UTF-8" standalone="no"?>
<svg xmlns:xlink="http://www.w3.org/1999/xlink" height="520.0px" width="520.0px" xmlns="http://www.w3.org/2000/svg">
  <g transform="matrix(10.0, 0.0, 0.0, 10.0, 0.0, 0.0)">
    <use height="52.0" transform="matrix(1.0, 0.0, 0.0, 1.0, 0.0, 0.0)" width="52.0" xlink:href="#shape0"/>
    <use height="136.85" transform="matrix(-0.0339, 0.0827, -0.1283, -0.0339, 33.0832, 33.97)" width="148.25" xlink:href="#sprite0"/>
    <use height="136.85" transform="matrix(0.0338, 0.1213, -0.0862, 0.0234, 32.8666, 10.8616)" width="148.25" xlink:href="#sprite0"/>
    <use height="136.85" transform="matrix(0.0127, 0.0455, -0.0862, 0.0234, 36.82, 33.0833)" width="148.25" xlink:href="#sprite0"/>
    <use height="136.85" transform="matrix(0.0218, 0.0783, -0.074, 0.0201, 16.1567, 28.6361)" width="148.25" xlink:href="#sprite0"/>
    <use height="20.95" transform="matrix(-0.483, -0.0349, 0.0214, 0.7424, 32.65, 22.6)" width="24.45" xlink:href="#sprite1"/>
    <use height="20.95" transform="matrix(-0.3041, -0.022, 0.0135, 0.4674, 16.5, 14.9)" width="24.45" xlink:href="#sprite1"/>
    <use height="20.95" transform="matrix(-0.2166, -0.0157, 0.0096, 0.3329, 16.6, 37.6)" width="24.45" xlink:href="#sprite1"/>
  </g>
  <defs>
    <g id="shape0" transform="matrix(1.0, 0.0, 0.0, 1.0, 0.0, 0.0)">
      <path d="M52.0 0.0 L52.0 52.0 0.0 52.0 0.0 0.0 52.0 0.0" fill="#795fa9" fill-opacity="0.0" fill-rule="evenodd" stroke="none"/>
      <path d="M33.35 18.05 L33.05 16.6 31.75 14.7 31.5 12.8 30.8 7.75 29.85 8.5 29.65 10.5 27.4 9.6 29.35 9.6 29.35 9.4 29.35 7.65 31.15 6.85 32.2 14.1 33.55 15.9 34.75 21.7 33.2 22.4 33.95 21.05 33.35 18.05 M38.9 24.65 L41.35 25.0 44.55 23.85 39.4 22.6 37.1 22.05 46.5 23.45 40.95 26.1 38.9 24.65 M36.65 34.8 L40.4 35.35 35.45 35.35 36.65 34.8 M42.5 38.0 L41.05 38.9 38.25 38.3 42.5 38.0 M3.25 32.6 L3.25 31.65 6.7 31.9 8.15 31.65 11.35 30.95 11.55 31.65 8.05 32.05 3.25 32.6" fill="#fff2c4" fill-rule="evenodd" stroke="none"/>
      <path d="M31.5 12.8 L31.75 14.7 33.05 16.6 33.35 18.05 32.65 18.75 32.1 19.2 31.5 19.5 30.95 19.7 29.0 19.6 27.75 14.5 Q28.8 13.3 29.95 12.95 L31.5 12.8 M38.9 24.65 L38.75 24.55 35.4 24.3 Q34.85 22.9 39.4 22.6 L44.55 23.85 41.35 25.0 38.9 24.65 M36.15 42.8 L37.45 43.4 32.75 45.6 28.45 43.65 31.7 44.1 34.4 43.9 35.1 43.7 35.9 43.1 36.15 42.8 M14.3 17.3 L14.85 17.7 12.6 18.75 16.05 17.7 18.05 18.7 Q17.1 19.65 15.6 20.2 L14.9 20.4 14.3 20.55 14.2 20.55 11.6 19.8 10.5 19.5 9.55 19.05 Q10.0 18.3 10.9 17.9 11.6 17.6 12.6 17.45 L14.3 17.3" fill="#fef0bc" fill-rule="evenodd" stroke="none"/>
      <path d="M31.5 12.8 L29.95 12.95 Q28.8 13.3 27.75 14.5 L27.5 13.5 27.2 9.6 27.4 9.6 29.65 10.5 29.85 8.5 30.8 7.75 31.5 12.8 M29.0 19.6 L30.95 19.7 31.5 19.5 32.1 19.2 32.65 18.75 33.35 18.05 33.95 21.05 33.2 22.4 30.0 23.9 29.0 19.6 M13.8 21.45 L12.35 21.15 10.5 19.5 11.6 19.8 13.8 21.45" fill="#feeba3" fill-rule="evenodd" stroke="none"/>
      <path d="M33.2 22.4 L34.75 21.7 37.1 22.05 39.4 22.6 Q34.85 22.9 35.4 24.3 L30.0 23.9 33.2 22.4 M33.8 37.4 L31.9 37.0 35.45 35.35 40.4 35.35 41.7 35.65 38.8 36.05 38.2 36.15 36.7 36.5 34.6 37.1 33.8 37.4 M42.55 28.0 Q43.5 26.2 42.0 26.65 L41.2 26.95 39.5 27.85 40.95 26.1 46.5 23.45 42.55 28.0 M33.7 41.65 L36.15 42.8 35.9 43.1 35.1 43.7 34.4 43.9 31.7 44.1 28.45 43.65 30.6 42.8 33.7 41.65 M3.25 31.65 L6.6 30.1 10.0 29.85 10.05 30.0 Q10.15 30.35 9.7 30.75 L8.45 31.5 8.15 31.65 6.7 31.9 3.25 31.65 M8.15 18.3 L12.9 16.1 14.3 17.3 12.6 17.45 Q11.6 17.6 10.9 17.9 10.0 18.3 9.55 19.05 L8.15 18.3 M18.05 18.7 L18.65 19.0 17.75 20.25 16.15 22.3 14.95 21.75 14.2 20.55 14.3 20.55 14.9 20.4 15.6 20.2 Q17.1 19.65 18.05 18.7" fill="#fedb4e" fill-rule="evenodd" stroke="none"/>
      <path d="M27.75 14.5 L29.0 19.6 30.0 23.9 35.4 24.3 38.75 24.55 38.9 24.65 40.95 26.1 39.5 27.85 41.2 26.95 42.0 26.65 Q43.5 26.2 42.55 28.0 L39.05 32.0 Q37.15 33.35 35.9 33.9 L35.75 33.95 34.2 34.25 31.9 37.0 35.0 32.0 33.05 31.75 36.9 30.9 36.95 30.9 39.25 30.0 39.2 30.0 38.35 29.2 33.7 31.45 38.15 28.7 39.75 26.45 37.95 25.25 29.45 24.75 28.1 20.25 27.9 19.2 26.1 10.55 25.1 11.55 20.8 16.15 26.35 8.75 28.75 8.75 29.35 9.4 29.35 9.6 27.4 9.6 27.2 9.6 27.5 13.5 27.75 14.5 M33.05 41.65 Q35.6 40.4 38.1 39.2 L37.35 38.75 37.3 38.75 33.8 37.4 38.25 38.3 41.05 38.9 33.7 41.65 30.6 42.8 33.05 41.65 M14.95 21.75 L16.15 22.3 17.75 20.25 16.3 22.95 11.3 21.0 8.15 18.3 9.55 19.05 10.5 19.5 12.35 21.15 13.8 21.45 14.95 21.75" fill="#fef5d6" fill-rule="evenodd" stroke="none"/>
      <path d="M33.7 31.45 L33.05 31.75 35.0 32.0 31.9 37.0 33.8 37.4 37.3 38.75 37.35 38.75 38.1 39.2 Q35.6 40.4 33.05 41.65 L32.95 41.55 Q30.9 38.35 29.55 33.25 L29.5 33.0 29.45 32.95 29.45 32.9 29.3 32.2 28.95 30.55 Q27.9 25.2 27.9 19.2 L28.1 20.25 29.45 24.75 37.95 25.25 39.75 26.45 38.15 28.7 33.7 31.45 M27.95 45.95 L24.45 46.15 21.6 44.55 19.2 45.5 17.2 44.4 Q18.25 43.0 18.5 41.2 L19.5 36.5 Q20.1 33.15 20.3 30.05 L20.65 25.45 20.65 24.8 Q20.75 20.55 20.15 17.0 L20.8 16.15 25.1 11.55 25.05 14.55 25.05 16.5 Q25.1 23.2 25.6 29.3 L26.0 33.2 26.75 40.3 26.8 40.6 26.9 41.95 Q27.15 44.25 27.95 45.95 M24.05 39.85 L24.0 39.85 23.9 39.9 24.05 39.85" fill="#ffcc00" fill-rule="evenodd" stroke="none"/>
      <path d="M33.05 31.75 L33.7 31.45 38.35 29.2 39.2 30.0 39.25 30.0 36.95 30.9 36.9 30.9 33.05 31.75 M18.65 19.0 L20.15 17.0 Q20.75 20.55 20.65 24.8 L20.65 25.45 20.3 30.05 Q20.1 33.15 19.5 36.5 L18.5 41.2 Q18.25 43.0 17.2 44.4 L13.65 42.15 Q14.35 40.05 14.65 37.8 L14.75 35.7 14.65 32.75 Q14.2 28.95 12.7 24.8 L11.3 21.0 16.3 22.95 17.75 20.25 18.65 19.0 M14.65 37.8 L14.65 37.85 14.65 37.8" fill="#57390f" fill-rule="evenodd" stroke="none"/>
      <path d="M29.35 7.65 L29.35 9.4 28.75 8.75 29.35 7.65 M39.05 32.0 L36.65 34.8 35.45 35.35 31.9 37.0 34.2 34.25 35.75 33.95 35.9 33.9 Q37.15 33.35 39.05 32.0 M9.05 38.65 L10.55 37.75 11.65 38.45 9.05 38.65 M10.0 29.85 L11.05 29.8 11.35 30.95 8.15 31.65 8.45 31.5 9.7 30.75 Q10.15 30.35 10.05 30.0 L10.0 29.85 M14.85 17.7 L16.05 17.7 12.6 18.75 14.85 17.7" fill="#f3bc3f" fill-rule="evenodd" stroke="none"/>
      <path d="M27.9 19.2 Q27.9 25.2 28.95 30.55 L29.3 32.2 29.45 32.9 29.45 32.95 29.5 33.0 29.55 33.25 Q30.9 38.35 32.95 41.55 L33.05 41.65 30.6 42.8 28.45 43.65 32.75 45.6 27.95 45.95 Q27.15 44.25 26.9 41.95 L26.8 40.6 26.75 40.3 26.0 33.2 25.6 29.3 Q25.1 23.2 25.05 16.5 L25.05 14.55 25.1 11.55 26.1 10.55 27.9 19.2 M10.55 37.75 L8.8 36.5 5.4 32.95 8.05 32.05 11.55 31.65 11.35 30.95 11.05 29.8 8.15 18.3 11.3 21.0 12.7 24.8 Q14.2 28.95 14.65 32.75 L14.75 35.7 14.65 37.8 Q14.35 40.05 13.65 42.15 L10.1 39.85 12.2 38.8 11.65 38.45 10.55 37.75" fill="#eca602" fill-rule="evenodd" stroke="none"/>
      <path d="M14.2 20.55 L14.95 21.75 13.8 21.45 11.6 19.8 14.2 20.55" fill="#744c12" fill-rule="evenodd" stroke="none"/>
      <path d="M24.05 39.85 L23.9 39.9 24.0 39.85 24.05 39.85" fill="#004d44" fill-rule="evenodd" stroke="none"/>
      <path d="M41.7 35.65 L45.05 36.5 42.5 38.0 38.25 38.3 33.8 37.4 34.6 37.1 36.7 36.5 38.2 36.15 38.8 36.05 41.7 35.65 M21.75 45.6 L19.1 46.35 19.2 45.5 21.6 44.55 21.75 45.6 M7.55 39.55 L9.05 38.65 11.65 38.45 12.2 38.8 7.55 39.55 M8.8 36.5 L3.25 32.6 8.05 32.05 5.4 32.95 8.8 36.5" fill="#fff265" fill-rule="evenodd" stroke="none"/>
      <path d="M24.45 46.15 L21.75 45.6 21.6 44.55 24.45 46.15 M19.1 46.35 L7.55 39.55 12.2 38.8 10.1 39.85 13.65 42.15 17.2 44.4 19.2 45.5 19.1 46.35" fill="#b17c01" fill-rule="evenodd" stroke="none"/>
      <path d="M34.75 21.7 L33.55 15.9 32.2 14.1 31.15 6.85 29.35 7.65 M37.1 22.05 L34.75 21.7 M42.55 28.0 L46.5 23.45 M42.55 28.0 L39.05 32.0 36.65 34.8 40.4 35.35 41.7 35.65 45.05 36.5 42.5 38.0 41.05 38.9 33.7 41.65 36.15 42.8 37.45 43.4 32.75 45.6 27.95 45.95 24.45 46.15 21.75 45.6 19.1 46.35 7.55 39.55 9.05 38.65 10.55 37.75 8.8 36.5 3.25 32.6 3.25 31.65 6.6 30.1 10.0 29.85 11.05 29.8 8.15 18.3 12.9 16.1 14.3 17.3 14.85 17.7 16.05 17.7 18.05 18.7 18.65 19.0 20.15 17.0 20.8 16.15 26.35 8.75 28.75 8.75 29.35 7.65 M37.1 22.05 L46.5 23.45 M17.75 20.25 L18.65 19.0 M11.55 31.65 L11.35 30.95 11.05 29.8 M30.6 42.8 L28.45 43.65 M11.65 38.45 L10.55 37.75 M12.2 38.8 L11.65 38.45 M33.7 41.65 L30.6 42.8" fill="none" stroke="#000000" stroke-linecap="round" stroke-linejoin="round" stroke-opacity="0.3019608" stroke-width="0.5"/>
      <path d="M19.0 30.8 L20.0 30.0 23.5 24.0 25.55 28.55 25.55 31.2 23.9 26.95 21.9 30.75 20.8 32.9 18.35 31.75 20.0 34.3 18.35 36.8 15.7 35.45 17.15 35.45 18.2 34.65 17.15 31.4 16.3 28.65 19.0 30.8 M31.85 31.6 L31.3 32.5 27.5 33.9 27.45 33.9 26.55 32.2 32.5 30.4 31.85 31.6" fill="#004d44" fill-rule="evenodd" stroke="none"/>
      <path d="M23.5 24.0 L20.0 30.0 19.0 30.8 19.5 29.9 23.35 23.3 23.5 24.0 M17.15 31.4 L18.2 34.65 17.15 35.45 16.0 32.1 Q16.25 31.3 16.6 31.25 L17.15 31.4 M23.0 40.45 L25.05 40.15 22.2 41.2 19.35 41.65 20.4 40.85 23.0 40.45" fill="#fedb4e" fill-rule="evenodd" stroke="none"/>
      <path d="M19.0 30.8 L16.3 28.65 14.4 27.45 19.5 29.9 19.0 30.8 M17.15 35.45 L15.7 35.45 14.2 35.45 12.25 35.45 15.95 34.3 16.0 34.3 15.6 30.9 16.0 32.1 17.15 35.45 M29.85 39.4 L27.6 38.65 31.3 32.5 31.85 31.6 31.95 32.0 28.85 38.35 29.85 39.4 M31.1 39.85 L27.6 40.85 24.5 42.6 22.35 42.0 19.5 42.75 13.6 37.55 12.25 35.45 16.35 39.0 19.35 41.65 22.2 41.2 24.8 41.75 25.35 41.5 25.45 41.45 27.75 40.35 31.1 39.85" fill="#fff265" fill-rule="evenodd" stroke="none"/>
      <path d="M16.3 28.65 L17.15 31.4 16.6 31.25 Q16.25 31.3 16.0 32.1 L15.6 30.9 14.4 27.45 16.3 28.65 M25.05 40.15 L25.2 40.1 27.75 40.35 25.45 41.45 25.35 41.5 24.8 41.75 25.05 40.15 M16.35 39.0 L12.25 35.45 14.2 35.45 17.15 38.05 16.85 38.0 16.35 38.15 Q16.15 38.4 16.35 39.0" fill="#b17c01" fill-rule="evenodd" stroke="none"/>
      <path d="M21.9 30.75 L23.9 26.95 25.55 31.2 25.55 32.45 26.55 32.2 27.45 33.9 27.5 33.9 31.3 32.5 27.6 38.65 29.85 39.4 25.2 40.1 25.1 40.1 25.05 40.15 23.0 40.45 23.75 37.9 23.95 36.2 Q24.15 32.8 21.9 30.75" fill="#00ddc7" fill-rule="evenodd" stroke="none"/>
      <path d="M15.7 35.45 L18.35 36.8 20.0 34.3 18.35 31.75 20.8 32.9 21.9 30.75 Q24.15 32.8 23.95 36.2 L23.75 37.9 23.0 40.45 20.4 40.85 17.15 38.05 14.2 35.45 15.7 35.45" fill="#009989" fill-rule="evenodd" stroke="none"/>
      <path d="M25.05 40.15 L24.8 41.75 22.2 41.2 25.05 40.15" fill="#feeba3" fill-rule="evenodd" stroke="none"/>
      <path d="M25.2 40.1 L29.85 39.4 31.1 39.85 27.75 40.35 25.2 40.1" fill="#57390f" fill-rule="evenodd" stroke="none"/>
      <path d="M19.35 41.65 L16.35 39.0 Q16.15 38.4 16.35 38.15 L16.85 38.0 17.15 38.05 20.4 40.85 19.35 41.65" fill="#fee892" fill-rule="evenodd" stroke="none"/>
      <path d="M23.5 24.0 L20.0 30.0 19.0 30.8 16.3 28.65 17.15 31.4 18.2 34.65 17.15 35.45 15.7 35.45 M25.55 31.2 L25.55 28.55 23.5 24.0 M14.4 27.45 L16.3 28.65 M31.3 32.5 L27.6 38.65 29.85 39.4 31.1 39.85 M31.85 31.6 L31.3 32.5 M26.55 32.2 L25.55 32.45 25.55 31.2 M23.0 40.45 L25.05 40.15 25.1 40.1 25.2 40.1 29.85 39.4 M25.2 40.1 L25.05 40.15 M12.25 35.45 L14.2 35.45 15.7 35.45 M17.15 38.05 L14.2 35.45 M20.4 40.85 L17.15 38.05 M23.0 40.45 L20.4 40.85 M26.55 32.2 L32.5 30.4 31.85 31.6" fill="none" stroke="#000000" stroke-linecap="round" stroke-linejoin="round" stroke-opacity="0.3019608" stroke-width="0.5"/>
    </g>
    <g id="sprite0" transform="matrix(1.0, 0.0, 0.0, 1.0, 73.5, 65.0)">
      <use height="136.85" transform="matrix(1.0, 0.0, 0.0, 1.0, -73.5, -65.0)" width="148.25" xlink:href="#shape1"/>
    </g>
    <g id="shape1" transform="matrix(1.0, 0.0, 0.0, 1.0, 73.5, 65.0)">
      <path d="M36.65 -54.65 Q60.05 -42.0 69.75 -17.95 80.55 8.9 68.0 34.1 55.45 59.35 26.8 68.2 -1.8 77.05 -29.7 64.3 -57.6 51.6 -68.45 24.75 -79.3 -2.05 -66.75 -27.25 L-66.7 -27.3 Q-54.1 -52.5 -25.5 -61.4 3.1 -70.2 31.0 -57.5 L36.65 -54.65" fill="url(#gradient0)" fill-rule="evenodd" stroke="none"/>
    </g>
    <radialGradient cx="0" cy="0" gradientTransform="matrix(0.0914, 0.0, 0.0, 0.0914, 0.6, 3.4)" gradientUnits="userSpaceOnUse" id="gradient0" r="819.2" spreadMethod="pad">
      <stop offset="0.0" stop-color="#ffffff"/>
      <stop offset="1.0" stop-color="#ffffff" stop-opacity="0.0"/>
    </radialGradient>
    <g id="sprite1" transform="matrix(1.0, 0.0, 0.0, 1.0, 0.0, 0.0)">
      <use height="20.95" transform="matrix(1.0, 0.0, 0.0, 1.0, 0.0, 0.0)" width="24.45" xlink:href="#shape2"/>
    </g>
    <g id="shape2" transform="matrix(1.0, 0.0, 0.0, 1.0, 0.0, 0.0)">
      <path d="M14.85 11.4 Q15.8 11.6 16.25 12.45 16.85 13.3 16.6 14.35 16.4 15.3 15.55 15.9 14.65 16.4 13.65 16.2 12.65 15.9 12.1 15.1 11.6 14.2 11.8 13.2 12.1 12.2 12.9 11.65 13.8 11.15 14.85 11.4" fill="#ffffff" fill-opacity="0.7882353" fill-rule="evenodd" stroke="none"/>
      <path d="M14.85 11.4 Q13.8 11.15 12.9 11.65 12.1 12.2 11.8 13.2 11.6 14.2 12.1 15.1 12.65 15.9 13.65 16.2 14.65 16.4 15.55 15.9 16.4 15.3 16.6 14.35 16.85 13.3 16.25 12.45 15.8 11.6 14.85 11.4 M18.2 11.35 L20.15 11.25 18.75 12.55 Q19.05 13.8 18.8 15.05 18.5 16.35 17.65 17.3 L19.1 20.95 16.55 18.25 Q14.8 19.3 12.8 18.85 10.8 18.35 9.75 16.65 9.05 15.5 8.95 14.3 7.75 12.4 4.95 11.55 L9.7 11.4 Q10.3 10.4 11.35 9.75 13.1 8.75 15.1 9.15 16.95 9.5 18.1 11.15 L18.2 11.35" fill="#ffffff" fill-opacity="0.23529412" fill-rule="evenodd" stroke="none"/>
      <path d="M15.4 13.55 L18.1 17.55 13.35 14.65 7.05 18.5 12.75 13.55 0.0 0.0 14.25 12.25 24.45 5.95 15.4 13.55" fill="#ffffff" fill-opacity="0.7882353" fill-rule="evenodd" stroke="none"/>
    </g>
  </defs>
</svg>
