<?xml version="1.0" encoding="UTF-8" standalone="no"?>
<svg xmlns:xlink="http://www.w3.org/1999/xlink" height="520.0px" width="520.0px" xmlns="http://www.w3.org/2000/svg">
  <g transform="matrix(10.0, 0.0, 0.0, 10.0, 0.0, 0.0)">
    <use height="52.0" transform="matrix(1.0, 0.0, 0.0, 1.0, 0.0, 0.0)" width="52.0" xlink:href="#shape0"/>
    <use height="136.85" transform="matrix(-0.0827, -0.0037, 0.0522, -0.1862, 34.2856, 37.3745)" width="148.25" xlink:href="#sprite0"/>
    <use height="20.95" transform="matrix(-0.424, 0.1955, 0.3287, 0.5805, 25.45, 7.9)" width="24.45" xlink:href="#sprite1"/>
    <use height="20.95" transform="matrix(-0.3311, 0.1527, 0.2477, 0.4373, 33.9, 19.0)" width="24.45" xlink:href="#sprite1"/>
    <use height="41.75" transform="matrix(0.6523, 0.0, 0.0, 0.6523, 6.55, 14.5)" width="22.8" xlink:href="#sprite2"/>
  </g>
  <defs>
    <g id="shape0" transform="matrix(1.0, 0.0, 0.0, 1.0, 0.0, 0.0)">
      <path d="M52.0 0.0 L52.0 52.0 0.0 52.0 0.0 0.0 52.0 0.0" fill="#795fa9" fill-opacity="0.0" fill-rule="evenodd" stroke="none"/>
      <path d="M19.8 31.9 L19.75 31.9 19.8 31.85 19.75 31.9 19.75 31.85 19.8 31.85 19.8 31.9" fill="#596162" fill-rule="evenodd" stroke="none"/>
      <path d="M37.85 13.0 L34.4 14.1 36.55 15.8 35.55 15.25 34.05 14.4 32.25 14.45 30.85 15.4 31.7 15.9 33.1 16.05 30.2 16.15 28.6 17.35 29.6 15.6 27.15 16.5 27.0 15.8 29.2 15.15 30.4 14.45 30.2 13.4 30.4 13.6 32.1 14.1 35.1 13.45 37.85 13.0 M28.3 22.2 L28.2 23.35 29.1 23.5 27.6 23.7 27.25 24.4 27.85 25.45 26.6 24.55 27.4 23.2 28.3 22.2 M28.25 25.75 L28.95 24.45 27.9 28.25 28.25 25.75 M21.0 23.05 L22.15 23.05 20.95 23.75 19.9 24.95 20.6 27.25 21.25 28.05 20.15 30.85 20.5 27.75 19.15 26.1 18.0 26.65 18.2 26.1 19.15 25.3 21.0 23.05" fill="#eefffd" fill-rule="evenodd" stroke="none"/>
      <path d="M44.95 18.0 Q42.7 22.55 39.8 26.65 36.2 26.2 37.2 21.05 L40.35 15.05 42.55 11.2 Q45.85 12.35 44.95 18.0 M22.85 38.75 L21.45 38.95 20.0 34.1 20.7 34.05 21.2 33.95 22.75 33.4 Q21.55 36.0 22.85 38.75 M33.15 10.7 L33.7 11.5 30.2 13.4 26.85 14.95 26.3 14.35 33.15 10.7 M24.8 28.85 L24.65 25.75 25.8 25.4 26.15 29.5 25.05 29.95 24.8 28.85 M16.7 30.95 L15.75 30.2 17.75 23.75 18.7 24.15 18.2 26.1 18.0 26.65 17.6 28.1 16.7 30.95" fill="#fcbd61" fill-rule="evenodd" stroke="none"/>
      <path d="M34.55 33.2 L30.2 37.45 22.85 38.75 Q21.55 36.0 22.75 33.4 L24.0 33.05 28.2 31.75 32.75 26.35 Q35.9 26.95 34.55 33.2 M16.65 35.6 Q14.0 33.25 13.25 30.55 L14.65 31.95 Q14.9 33.2 16.7 35.55 L16.65 35.6 M22.05 18.05 L25.5 14.8 26.3 14.35 26.85 14.95 24.4 18.05 22.05 18.05 M24.65 25.75 L26.2 21.1 26.85 21.7 25.8 25.4 24.65 25.75 M20.1 20.6 L20.65 22.1 18.7 24.15 17.75 23.75 20.1 20.6" fill="#feb445" fill-rule="evenodd" stroke="none"/>
      <path d="M43.3 6.5 L44.7 7.3 Q46.65 9.05 47.1 11.3 46.75 14.35 44.95 18.0 45.85 12.35 42.55 11.2 L40.35 15.05 43.3 6.5 M39.8 26.65 L34.55 33.2 Q35.9 26.95 32.75 26.35 L28.2 31.75 24.0 33.05 27.15 31.4 32.75 26.35 37.2 21.05 Q36.2 26.2 39.8 26.65 M36.0 7.8 L39.5 7.2 36.85 9.7 38.7 9.5 33.15 10.7 26.3 14.35 25.5 14.8 22.05 18.05 21.45 18.05 25.15 14.3 27.25 13.25 33.0 10.2 34.1 10.05 36.0 7.8 M28.45 18.0 L29.8 18.0 27.75 20.85 29.0 21.05 26.2 21.1 24.65 25.75 24.8 28.85 24.15 26.1 24.05 25.85 25.6 20.55 26.95 20.7 28.45 18.0 M15.75 30.2 L15.35 29.9 17.3 23.5 19.9 20.05 22.25 20.0 20.1 20.6 17.75 23.75 15.75 30.2" fill="#f49302" fill-rule="evenodd" stroke="none"/>
      <path d="M13.25 30.55 L19.7 15.2 25.95 11.5 20.6 15.2 14.05 30.1 16.85 33.35 14.65 31.95 13.25 30.55" fill="#e37302" fill-rule="evenodd" stroke="none"/>
      <path d="M25.95 11.5 L27.85 10.4 27.25 13.25 25.15 14.3 21.45 18.05 22.05 18.05 24.4 18.05 25.75 18.05 23.3 24.4 22.2 26.8 22.0 25.85 22.65 23.0 23.0 21.4 23.35 19.95 22.25 20.0 19.9 20.05 17.3 23.5 15.35 29.9 15.75 30.2 16.7 30.95 18.05 32.1 19.75 31.9 19.8 31.9 18.7 34.0 17.45 33.6 16.85 33.35 14.05 30.1 20.6 15.2 25.95 11.5 M39.5 7.2 L43.3 6.5 40.35 15.05 37.2 21.05 32.75 26.35 27.15 31.4 24.0 33.05 22.75 33.4 21.2 33.95 22.0 31.55 23.35 31.35 22.85 29.2 24.15 26.1 24.8 28.85 25.05 29.95 26.15 29.5 27.8 28.8 28.7 28.45 31.55 23.6 32.05 22.8 32.35 22.3 30.3 21.15 30.2 21.2 29.0 21.05 27.75 20.85 29.8 18.0 32.2 17.95 33.2 19.25 34.25 20.5 37.15 17.2 37.55 16.35 39.35 12.7 40.0 11.3 41.05 9.2 38.7 9.5 36.85 9.7 39.5 7.2" fill="#963807" fill-rule="evenodd" stroke="none"/>
      <path d="M21.45 38.95 L20.1 38.2 17.45 36.3 16.85 35.8 16.65 35.6 16.7 35.55 Q14.9 33.2 14.65 31.95 L16.85 33.35 17.45 33.6 18.7 34.0 19.8 31.9 19.8 31.85 22.0 31.55 21.2 33.95 20.7 34.05 20.0 34.1 21.45 38.95 M27.85 10.4 L30.95 8.6 36.0 7.8 34.1 10.05 33.0 10.2 27.25 13.25 27.85 10.4 M38.7 9.5 L41.05 9.2 40.0 11.3 37.05 10.8 33.7 11.5 33.15 10.7 38.7 9.5 M22.25 20.0 L23.35 19.95 23.0 21.4 21.8 21.8 20.65 22.1 20.1 20.6 22.25 20.0 M22.2 26.8 L23.3 24.4 25.75 18.05 26.3 18.05 28.25 18.0 28.45 18.0 26.95 20.7 25.6 20.55 24.05 25.85 24.15 26.1 22.85 29.2 22.8 29.15 22.2 26.8 M26.2 21.1 L29.0 21.05 30.2 21.2 30.3 21.15 32.35 22.3 32.05 22.8 30.45 21.9 28.65 21.8 26.85 21.7 26.2 21.1" fill="#6c2206" fill-rule="evenodd" stroke="none"/>
      <path d="M30.2 13.4 L30.4 14.45 29.2 15.15 27.0 15.8 26.85 14.95 30.2 13.4 M35.55 15.25 L36.55 15.8 37.55 16.35 37.15 17.2 34.25 20.5 33.2 19.25 33.1 16.05 35.55 15.25 M26.6 24.55 L27.85 25.45 28.25 25.75 27.9 28.25 27.8 28.8 26.15 29.5 25.8 25.4 26.6 24.55 M19.75 31.9 L18.05 32.1 17.6 28.1 18.0 26.65 19.15 26.1 20.5 27.75 20.15 30.85 19.75 31.85 19.75 31.9" fill="#c8b940" fill-rule="evenodd" stroke="none"/>
      <path d="M33.7 11.5 L37.05 10.8 35.1 13.45 32.1 14.1 30.4 13.6 30.2 13.4 33.7 11.5 M27.15 16.5 L29.6 15.6 28.6 17.35 28.25 18.0 26.3 18.05 27.15 16.5 M27.85 25.45 L27.25 24.4 27.6 23.7 29.1 23.5 29.45 23.65 28.95 24.45 28.25 25.75 27.85 25.45 M20.65 22.1 L21.8 21.8 21.0 23.05 19.15 25.3 18.2 26.1 18.7 24.15 20.65 22.1" fill="#f0efcc" fill-rule="evenodd" stroke="none"/>
      <path d="M36.55 15.8 L34.4 14.1 37.85 13.0 39.35 12.7 37.55 16.35 36.55 15.8 M28.6 17.35 L30.2 16.15 33.1 16.05 33.2 19.25 32.2 17.95 29.8 18.0 28.45 18.0 28.25 18.0 28.6 17.35 M23.0 21.4 L22.65 23.0 22.15 23.05 21.0 23.05 21.8 21.8 23.0 21.4 M29.1 23.5 L28.2 23.35 28.3 22.2 28.65 21.8 30.45 21.9 32.05 22.8 31.55 23.6 29.45 23.65 29.1 23.5 M21.25 28.05 L21.45 28.35 22.8 29.15 22.85 29.2 23.35 31.35 22.0 31.55 19.8 31.85 19.75 31.85 20.15 30.85 21.25 28.05" fill="#d3c867" fill-rule="evenodd" stroke="none"/>
      <path d="M37.05 10.8 L40.0 11.3 39.35 12.7 37.85 13.0 35.1 13.45 37.05 10.8 M27.0 15.8 L27.15 16.5 26.3 18.05 25.75 18.05 24.4 18.05 26.85 14.95 27.0 15.8 M33.1 16.05 L31.7 15.9 30.85 15.4 32.25 14.45 34.05 14.4 35.55 15.25 33.1 16.05 M22.65 23.0 L22.0 25.85 22.2 26.8 22.8 29.15 21.45 28.35 21.25 28.05 20.6 27.25 19.9 24.95 20.95 23.75 22.15 23.05 22.65 23.0 M28.3 22.2 L27.4 23.2 26.6 24.55 25.8 25.4 26.85 21.7 28.65 21.8 28.3 22.2 M29.45 23.65 L31.55 23.6 28.7 28.45 27.8 28.8 27.9 28.25 28.95 24.45 29.45 23.65 M18.05 32.1 L16.7 30.95 17.6 28.1 18.05 32.1" fill="#e4dda3" fill-rule="evenodd" stroke="none"/>
      <path d="M43.3 6.5 L44.7 7.3 Q46.65 9.05 47.1 11.3 46.75 14.35 44.95 18.0 42.7 22.55 39.8 26.65 L34.55 33.2 30.2 37.45 22.85 38.75 21.45 38.95 20.1 38.2 17.45 36.3 16.85 35.8 16.65 35.6 Q14.0 33.25 13.25 30.55 L19.7 15.2 25.95 11.5 27.85 10.4 30.95 8.6 36.0 7.8 39.5 7.2 43.3 6.5 M33.7 11.5 L37.05 10.8 40.0 11.3 41.05 9.2 M37.55 16.35 L39.35 12.7 40.0 11.3 M21.45 18.05 L22.05 18.05 M26.85 14.95 L30.2 13.4 33.7 11.5 M24.4 18.05 L22.05 18.05 M25.75 18.05 L24.4 18.05 26.85 14.95 M23.35 19.95 L23.0 21.4 22.65 23.0 22.0 25.85 22.2 26.8 M25.75 18.05 L26.3 18.05 28.25 18.0 28.45 18.0 29.8 18.0 32.2 17.95 33.2 19.25 34.25 20.5 37.15 17.2 37.55 16.35 M31.55 23.6 L32.05 22.8 30.45 21.9 28.65 21.8 26.85 21.7 25.8 25.4 M32.05 22.8 L32.35 22.3 M19.75 31.9 L18.05 32.1 16.7 30.95 15.75 30.2 15.35 29.9 M20.65 22.1 L21.8 21.8 23.0 21.4 M27.8 28.8 L28.7 28.45 31.55 23.6 M26.15 29.5 L27.8 28.8 M25.05 29.95 L26.15 29.5 25.8 25.4 M22.8 29.15 L22.2 26.8 M18.7 24.15 L20.65 22.1 M18.0 26.65 L17.6 28.1 16.7 30.95 M18.2 26.1 L18.0 26.65 M22.85 29.2 L22.8 29.15 M19.75 31.9 L19.8 31.85 22.0 31.55 23.35 31.35 22.85 29.2 M19.75 31.85 L19.75 31.9 M18.7 24.15 L18.2 26.1" fill="none" stroke="#000000" stroke-linecap="round" stroke-linejoin="round" stroke-opacity="0.3019608" stroke-width="0.5"/>
      <path d="M31.45 11.25 Q32.35 14.2 32.05 18.3 31.7 23.4 30.55 28.25 29.6 32.3 28.15 36.35 L27.4 38.3 20.25 39.25 18.8 38.45 Q17.4 37.5 16.3 36.55 L15.7 36.0 15.5 35.8 Q12.95 33.35 12.2 30.65 L19.1 15.5 28.6 10.3 31.45 11.25" fill="#502727" fill-opacity="0.3019608" fill-rule="evenodd" stroke="none"/>
      <path d="M14.35 40.35 L14.35 40.4 14.35 40.35 14.35 40.4 14.35 40.35" fill="#596162" fill-rule="evenodd" stroke="none"/>
      <path d="M20.85 15.0 L18.4 17.7 21.1 18.1 19.95 18.1 18.2 18.1 16.7 19.05 15.9 20.55 16.9 20.55 18.2 20.0 15.75 21.55 14.95 23.35 14.95 21.35 13.25 23.35 12.8 22.75 14.4 21.15 15.1 19.9 14.35 19.15 14.7 19.2 16.35 18.8 18.65 16.8 20.85 15.0 M16.7 30.65 L16.7 29.05 17.05 27.75 17.55 28.8 18.4 28.5 17.2 29.4 17.2 30.15 18.25 30.8 16.7 30.65 M18.75 30.85 L18.75 29.4 19.65 33.25 18.75 30.85 M11.1 32.05 Q11.6 31.75 12.05 31.5 L11.4 32.7 11.05 34.3 12.85 35.95 13.8 36.35 14.15 39.3 12.9 36.4 10.95 35.65 10.2 36.7 10.1 36.15 10.55 34.95 11.1 32.05" fill="#eefffd" fill-rule="evenodd" stroke="none"/>
      <path d="M29.55 15.95 Q29.75 21.0 29.25 26.0 25.9 27.35 24.25 22.35 L24.1 15.55 24.1 11.15 Q27.5 10.55 29.55 15.95 M20.4 44.9 L19.3 45.7 15.6 42.25 16.2 41.85 16.6 41.45 17.75 40.25 Q17.9 43.1 20.4 44.9 M15.65 15.3 L16.5 15.75 14.35 19.15 12.25 22.15 11.45 21.85 15.65 15.3 M17.25 35.3 L15.55 32.65 16.45 31.8 18.7 35.15 18.0 36.1 17.25 35.3 M11.2 41.1 L10.05 40.9 8.6 34.25 9.65 34.15 10.1 36.15 10.2 36.7 10.55 38.2 11.2 41.1" fill="#fcbd61" fill-rule="evenodd" stroke="none"/>
      <path d="M27.9 34.3 L26.2 40.15 20.4 44.9 Q17.9 43.1 17.75 40.25 L18.6 39.35 21.65 36.15 22.95 29.25 Q26.05 28.15 27.9 34.3 M13.45 45.2 Q10.0 44.4 8.0 42.45 L9.9 42.95 Q10.75 43.95 13.45 45.15 L13.45 45.2 M9.55 27.15 L10.95 22.65 11.45 21.85 12.25 22.15 11.6 26.05 9.55 27.15 M15.55 32.65 L14.7 27.8 15.55 28.0 16.45 31.8 15.55 32.65 M9.1 30.4 L10.3 31.4 9.65 34.15 8.6 34.25 9.1 30.4" fill="#feb445" fill-rule="evenodd" stroke="none"/>
      <path d="M22.45 6.7 L24.1 6.7 Q26.6 7.25 28.1 9.0 29.3 11.85 29.55 15.95 27.5 10.55 24.1 11.15 L24.1 15.55 22.45 6.7 M29.25 26.0 Q28.85 30.15 27.9 34.3 26.05 28.15 22.95 29.25 L21.65 36.15 18.6 39.35 20.55 36.35 22.95 29.25 24.25 22.35 Q25.9 27.35 29.25 26.0 M16.7 11.35 L19.5 9.15 Q18.9 10.75 18.4 12.65 L19.85 11.55 15.65 15.3 11.45 21.85 10.95 22.65 9.55 27.15 9.0 27.45 10.45 22.4 11.7 20.45 15.25 14.95 16.15 14.3 16.7 11.35 M15.15 24.0 L16.3 23.35 15.9 26.85 17.1 26.35 14.7 27.8 15.55 32.65 17.25 35.3 15.35 33.15 15.15 33.0 13.85 27.65 15.1 27.1 15.15 24.0 M10.05 40.9 L9.5 40.8 8.1 34.3 8.6 30.0 10.7 28.8 9.1 30.4 8.6 34.25 10.05 40.9" fill="#f49302" fill-rule="evenodd" stroke="none"/>
      <path d="M8.0 42.45 L6.1 25.9 9.8 19.55 6.9 25.4 8.45 41.6 12.55 43.1 9.9 42.95 8.0 42.45" fill="#e37302" fill-rule="evenodd" stroke="none"/>
      <path d="M9.8 19.55 L10.9 17.65 11.7 20.45 10.45 22.4 9.0 27.45 9.55 27.15 11.6 26.05 12.8 25.35 13.75 32.1 13.95 34.75 13.3 34.0 12.5 31.2 12.0 29.65 11.6 28.25 10.7 28.8 8.6 30.0 8.1 34.3 9.5 40.8 10.05 40.9 11.2 41.1 12.9 41.4 14.35 40.4 14.45 42.75 13.15 43.0 12.55 43.1 8.45 41.6 6.9 25.4 9.8 19.55 M19.5 9.15 L22.45 6.7 24.1 15.55 24.25 22.35 22.95 29.25 20.55 36.35 18.6 39.35 17.75 40.25 16.6 41.45 16.15 39.05 17.2 38.2 15.75 36.6 15.35 33.15 17.25 35.3 18.0 36.1 18.7 35.15 19.85 33.75 20.45 33.0 20.6 27.35 20.6 26.45 20.6 25.9 18.25 25.9 18.25 25.95 17.1 26.35 15.9 26.85 16.3 23.35 18.4 22.15 19.85 22.75 21.4 23.35 22.3 19.05 22.25 18.1 22.05 14.0 21.9 12.45 21.8 10.15 19.85 11.55 18.4 12.65 Q18.9 10.75 19.5 9.15" fill="#963807" fill-rule="evenodd" stroke="none"/>
      <path d="M19.3 45.7 L17.7 45.7 14.5 45.35 13.75 45.25 13.45 45.2 13.45 45.15 Q10.75 43.95 9.9 42.95 L12.55 43.1 13.15 43.0 14.45 42.75 14.35 40.4 14.35 40.35 16.15 39.05 16.6 41.45 16.2 41.85 15.6 42.25 19.3 45.7 M10.9 17.65 L12.7 14.55 16.7 11.35 16.15 14.3 15.25 14.95 11.7 20.45 10.9 17.65 M19.85 11.55 L21.8 10.15 21.9 12.45 19.1 13.5 16.5 15.75 15.65 15.3 19.85 11.55 M10.7 28.8 L11.6 28.25 12.0 29.65 11.15 30.55 10.3 31.4 9.1 30.4 10.7 28.8 M13.95 34.75 L13.75 32.1 12.8 25.35 13.25 25.1 14.95 24.1 15.15 24.0 15.1 27.1 13.85 27.65 15.15 33.0 15.35 33.15 15.75 36.6 15.65 36.5 13.95 34.75 M14.7 27.8 L17.1 26.35 18.25 25.95 18.25 25.9 20.6 25.9 20.6 26.45 18.8 26.45 17.15 27.25 15.55 28.0 14.7 27.8" fill="#6c2206" fill-rule="evenodd" stroke="none"/>
      <path d="M14.35 19.15 L15.1 19.9 14.4 21.15 12.8 22.75 12.25 22.15 14.35 19.15 M19.95 18.1 L21.1 18.1 22.25 18.1 22.3 19.05 21.4 23.35 19.85 22.75 18.2 20.0 19.95 18.1 M16.45 31.8 L16.7 30.65 18.25 30.8 18.75 30.85 19.65 33.25 19.85 33.75 18.7 35.15 16.45 31.8 M14.35 40.4 L12.9 41.4 10.55 38.2 10.2 36.7 10.95 35.65 12.9 36.4 14.15 39.3 14.35 40.35 14.35 40.4" fill="#c8b940" fill-rule="evenodd" stroke="none"/>
      <path d="M16.5 15.75 L19.1 13.5 18.65 16.8 16.35 18.8 14.7 19.2 14.35 19.15 16.5 15.75 M13.25 23.35 L14.95 21.35 14.95 23.35 14.95 24.1 13.25 25.1 13.25 23.35 M18.4 28.5 L18.75 28.45 18.75 29.4 18.75 30.85 18.25 30.8 17.2 30.15 17.2 29.4 18.4 28.5 M10.3 31.4 L11.15 30.55 11.1 32.05 10.55 34.95 10.1 36.15 9.65 34.15 10.3 31.4" fill="#f0efcc" fill-rule="evenodd" stroke="none"/>
      <path d="M21.1 18.1 L18.4 17.7 20.85 15.0 22.05 14.0 22.25 18.1 21.1 18.1 M14.95 23.35 L15.75 21.55 18.2 20.0 19.85 22.75 18.4 22.15 16.3 23.35 15.15 24.0 14.95 24.1 14.95 23.35 M12.0 29.65 L12.5 31.2 12.05 31.5 Q11.6 31.75 11.1 32.05 L11.15 30.55 12.0 29.65 M17.05 27.75 L17.15 27.25 18.8 26.45 20.6 26.45 20.6 27.35 18.75 28.45 18.4 28.5 17.55 28.8 17.05 27.75 M13.8 36.35 L14.1 36.5 15.65 36.5 15.75 36.6 17.2 38.2 16.15 39.05 14.35 40.35 14.15 39.3 13.8 36.35" fill="#d3c867" fill-rule="evenodd" stroke="none"/>
      <path d="M19.1 13.5 L21.9 12.45 22.05 14.0 20.85 15.0 18.65 16.8 19.1 13.5 M12.8 22.75 L13.25 23.35 13.25 25.1 12.8 25.35 11.6 26.05 12.25 22.15 12.8 22.75 M18.2 20.0 L16.9 20.55 15.9 20.55 16.7 19.05 18.2 18.1 19.95 18.1 18.2 20.0 M12.5 31.2 L13.3 34.0 13.95 34.75 15.65 36.5 14.1 36.5 13.8 36.35 12.85 35.95 11.05 34.3 11.4 32.7 12.05 31.5 12.5 31.2 M15.55 28.0 L17.15 27.25 17.05 27.75 16.7 29.05 16.7 30.65 16.45 31.8 15.55 28.0 M18.75 29.4 L18.75 28.45 20.6 27.35 20.45 33.0 19.85 33.75 19.65 33.25 18.75 29.4 M12.9 41.4 L11.2 41.1 10.55 38.2 12.9 41.4" fill="#e4dda3" fill-rule="evenodd" stroke="none"/>
      <path d="M22.45 6.7 L24.1 6.7 Q26.6 7.25 28.1 9.0 29.3 11.85 29.55 15.95 29.75 21.0 29.25 26.0 28.85 30.15 27.9 34.3 L26.2 40.15 20.4 44.9 19.3 45.7 17.7 45.7 14.5 45.35 13.75 45.25 13.45 45.2 Q10.0 44.4 8.0 42.45 L6.1 25.9 9.8 19.55 10.9 17.65 12.7 14.55 16.7 11.35 19.5 9.15 22.45 6.7 M16.5 15.75 L19.1 13.5 21.9 12.45 21.8 10.15 M22.25 18.1 L22.05 14.0 21.9 12.45 M9.0 27.45 L9.55 27.15 M12.25 22.15 L14.35 19.15 16.5 15.75 M11.6 28.25 L12.0 29.65 12.5 31.2 13.3 34.0 13.95 34.75 M12.8 25.35 L11.6 26.05 9.55 27.15 M13.25 25.1 L14.95 24.1 15.15 24.0 16.3 23.35 18.4 22.15 19.85 22.75 21.4 23.35 22.3 19.05 22.25 18.1 M17.15 27.25 L15.55 28.0 16.45 31.8 M17.15 27.25 L18.8 26.45 20.6 26.45 20.6 25.9 M12.8 25.35 L13.25 25.1 M12.25 22.15 L11.6 26.05 M20.6 27.35 L20.6 26.45 M20.6 27.35 L20.45 33.0 19.85 33.75 18.7 35.15 18.0 36.1 M14.35 40.4 L12.9 41.4 11.2 41.1 10.05 40.9 9.5 40.8 M10.3 31.4 L11.15 30.55 12.0 29.65 M15.65 36.5 L13.95 34.75 M9.65 34.15 L10.3 31.4 M10.1 36.15 L10.2 36.7 10.55 38.2 11.2 41.1 M15.75 36.6 L15.65 36.5 M14.35 40.35 L16.15 39.05 17.2 38.2 15.75 36.6 M14.35 40.35 L14.35 40.4 14.35 40.35 M9.65 34.15 L10.1 36.15 M18.7 35.15 L16.45 31.8" fill="none" stroke="#000000" stroke-linecap="round" stroke-linejoin="round" stroke-opacity="0.3019608" stroke-width="0.5"/>
    </g>
    <g id="sprite0" transform="matrix(1.0, 0.0, 0.0, 1.0, 73.5, 65.0)">
      <use height="136.85" transform="matrix(1.0, 0.0, 0.0, 1.0, -73.5, -65.0)" width="148.25" xlink:href="#shape1"/>
    </g>
    <g id="shape1" transform="matrix(1.0, 0.0, 0.0, 1.0, 73.5, 65.0)">
      <path d="M36.65 -54.65 Q60.05 -42.0 69.75 -17.95 80.55 8.9 68.0 34.1 55.45 59.35 26.8 68.2 -1.8 77.05 -29.7 64.3 -57.6 51.6 -68.45 24.75 -79.3 -2.05 -66.75 -27.25 L-66.7 -27.3 Q-54.1 -52.5 -25.5 -61.4 3.1 -70.2 31.0 -57.5 L36.65 -54.65" fill="url(#gradient0)" fill-rule="evenodd" stroke="none"/>
    </g>
    <radialGradient cx="0" cy="0" gradientTransform="matrix(0.0914, 0.0, 0.0, 0.0914, 0.6, 3.4)" gradientUnits="userSpaceOnUse" id="gradient0" r="819.2" spreadMethod="pad">
      <stop offset="0.0" stop-color="#ffffff"/>
      <stop offset="1.0" stop-color="#ffffff" stop-opacity="0.0"/>
    </radialGradient>
    <g id="sprite1" transform="matrix(1.0, 0.0, 0.0, 1.0, 0.0, 0.0)">
      <use height="20.95" transform="matrix(1.0, 0.0, 0.0, 1.0, 0.0, 0.0)" width="24.45" xlink:href="#shape2"/>
    </g>
    <g id="shape2" transform="matrix(1.0, 0.0, 0.0, 1.0, 0.0, 0.0)">
      <path d="M14.85 11.4 Q15.8 11.6 16.25 12.45 16.85 13.3 16.6 14.35 16.4 15.3 15.55 15.9 14.65 16.4 13.65 16.2 12.65 15.9 12.1 15.1 11.6 14.2 11.8 13.2 12.1 12.2 12.9 11.65 13.8 11.15 14.85 11.4" fill="#ffffff" fill-opacity="0.7882353" fill-rule="evenodd" stroke="none"/>
      <path d="M14.85 11.4 Q13.8 11.15 12.9 11.65 12.1 12.2 11.8 13.2 11.6 14.2 12.1 15.1 12.65 15.9 13.65 16.2 14.65 16.4 15.55 15.9 16.4 15.3 16.6 14.35 16.85 13.3 16.25 12.45 15.8 11.6 14.85 11.4 M18.2 11.35 L20.15 11.25 18.75 12.55 Q19.05 13.8 18.8 15.05 18.5 16.35 17.65 17.3 L19.1 20.95 16.55 18.25 Q14.8 19.3 12.8 18.85 10.8 18.35 9.75 16.65 9.05 15.5 8.95 14.3 7.75 12.4 4.95 11.55 L9.7 11.4 Q10.3 10.4 11.35 9.75 13.1 8.75 15.1 9.15 16.95 9.5 18.1 11.15 L18.2 11.35" fill="#ffffff" fill-opacity="0.23529412" fill-rule="evenodd" stroke="none"/>
      <path d="M15.4 13.55 L18.1 17.55 13.35 14.65 7.05 18.5 12.75 13.55 0.0 0.0 14.25 12.25 24.45 5.95 15.4 13.55" fill="#ffffff" fill-opacity="0.7882353" fill-rule="evenodd" stroke="none"/>
    </g>
    <g id="sprite2" transform="matrix(1.0, 0.0, 0.0, 1.0, 0.0, 0.0)">
      <use height="41.75" transform="matrix(1.0, 0.0, 0.0, 1.0, 0.0, 0.0)" width="22.8" xlink:href="#shape3"/>
    </g>
    <g id="shape3" transform="matrix(1.0, 0.0, 0.0, 1.0, 0.0, 0.0)">
      <path d="M11.45 26.3 Q11.95 27.35 11.55 28.75 11.3 30.3 10.25 31.45 9.35 32.45 8.25 32.55 7.15 32.4 6.65 31.35 6.15 30.2 6.45 28.75 6.8 27.2 7.75 26.1 8.85 25.1 9.85 25.05 10.9 25.1 11.45 26.3" fill="#ffffff" fill-opacity="0.7882353" fill-rule="evenodd" stroke="none"/>
      <path d="M11.45 26.3 Q10.9 25.1 9.85 25.05 8.85 25.1 7.75 26.1 6.8 27.2 6.45 28.75 6.15 30.2 6.65 31.35 7.15 32.4 8.25 32.55 9.35 32.45 10.25 31.45 11.3 30.3 11.55 28.75 11.95 27.35 11.45 26.3 M13.85 28.9 L15.35 30.4 13.3 30.9 Q12.45 32.7 11.3 34.1 9.95 35.45 8.6 35.95 L6.65 41.75 7.0 36.3 Q4.9 36.2 3.85 34.0 2.8 31.75 3.45 28.8 3.9 26.8 4.8 25.2 5.5 21.85 4.2 18.5 5.85 22.35 7.75 22.15 9.0 21.4 10.3 21.4 12.35 21.55 13.5 23.65 14.5 25.6 14.0 28.6 L13.85 28.9" fill="#ffffff" fill-opacity="0.23529412" fill-rule="evenodd" stroke="none"/>
      <path d="M10.05 29.45 L8.75 36.65 7.65 29.15 0.0 28.95 8.15 27.3 10.15 0.0 10.3 26.9 22.8 27.2 10.05 29.45" fill="#ffffff" fill-opacity="0.7882353" fill-rule="evenodd" stroke="none"/>
    </g>
  </defs>
</svg>
