<?xml version="1.0" encoding="UTF-8" standalone="no"?>
<svg xmlns:xlink="http://www.w3.org/1999/xlink" height="520.0px" width="520.0px" xmlns="http://www.w3.org/2000/svg">
  <g transform="matrix(10.0, 0.0, 0.0, 10.0, 0.0, 0.0)">
    <use height="52.0" transform="matrix(1.0, 0.0, 0.0, 1.0, 0.0, 0.0)" width="52.0" xlink:href="#shape0"/>
    <use height="136.85" transform="matrix(-0.0827, -0.0037, 0.0522, -0.1862, 34.9356, 38.2745)" width="148.25" xlink:href="#sprite0"/>
    <use height="20.95" transform="matrix(-0.424, 0.1955, 0.3287, 0.5805, 25.85, 8.75)" width="24.45" xlink:href="#sprite1"/>
    <use height="20.95" transform="matrix(-0.3311, 0.1527, 0.2477, 0.4373, 34.3, 19.9)" width="24.45" xlink:href="#sprite1"/>
    <use height="41.75" transform="matrix(0.6523, 0.0, 0.0, 0.6523, 6.95, 15.4)" width="22.8" xlink:href="#sprite2"/>
  </g>
  <defs>
    <g id="shape0" transform="matrix(1.0, 0.0, 0.0, 1.0, 0.0, 0.0)">
      <path d="M52.0 0.0 L52.0 52.0 0.0 52.0 0.0 0.0 52.0 0.0" fill="#795fa9" fill-opacity="0.0" fill-rule="evenodd" stroke="none"/>
      <path d="M19.8 33.15 L19.75 33.15 19.85 33.15 19.8 33.15 19.85 33.15 19.75 33.15 19.8 33.15" fill="#596162" fill-rule="evenodd" stroke="none"/>
      <path d="M39.75 8.65 L43.55 8.05 40.55 16.5 37.35 22.45 32.8 27.8 27.2 32.75 24.0 34.35 22.8 34.75 21.2 35.2 22.0 32.9 23.35 32.7 22.85 30.55 24.25 27.4 24.85 30.2 25.1 31.25 26.15 30.8 27.8 30.15 28.75 29.8 31.65 24.95 32.15 24.2 32.4 23.7 30.35 22.55 30.35 22.6 29.1 22.35 27.85 22.2 29.9 19.4 32.35 19.35 33.35 20.6 34.35 21.85 37.3 18.6 37.65 17.8 39.5 14.1 40.2 12.7 41.25 10.65 38.9 10.95 37.05 11.15 Q38.45 9.7 39.75 8.65 M26.15 12.85 L28.05 11.75 27.4 14.6 25.3 15.6 21.6 19.3 22.2 19.35 24.55 19.4 25.9 19.35 23.4 25.7 22.3 28.05 22.05 27.1 22.7 24.3 23.1 22.7 23.45 21.3 22.4 21.3 20.0 21.3 17.4 24.75 15.4 31.1 15.8 31.4 16.7 32.25 18.05 33.35 19.75 33.15 19.8 33.15 18.7 35.25 17.45 34.85 16.9 34.6 14.1 31.3 20.75 16.45 26.15 12.85" fill="#ffb711" fill-rule="evenodd" stroke="none"/>
      <path d="M43.55 8.05 L44.95 8.85 42.75 12.7 40.55 16.5 43.55 8.05 M24.0 34.35 L27.2 32.75 32.8 27.8 28.25 33.15 24.0 34.35" fill="#fff1bb" fill-rule="evenodd" stroke="none"/>
      <path d="M13.25 31.8 L19.8 16.5 26.15 12.85 20.75 16.45 14.1 31.3 16.9 34.6 14.65 33.15 13.25 31.8 M36.25 9.15 L39.75 8.65 Q38.45 9.7 37.05 11.15 L38.9 10.95 33.35 12.1 26.45 15.65 25.65 16.15 22.2 19.35 21.6 19.3 25.3 15.6 27.4 14.6 33.2 11.55 34.35 11.45 36.25 9.15 M29.9 19.4 L27.85 22.2 29.1 22.35 26.3 22.4 24.75 27.05 24.85 30.2 24.25 27.4 24.15 27.15 25.65 21.85 27.0 22.05 28.6 19.35 29.9 19.4 M20.2 21.9 L17.85 24.95 15.8 31.4 15.4 31.1 17.4 24.75 20.0 21.3 22.4 21.3 20.2 21.9" fill="#ffe600" fill-rule="evenodd" stroke="none"/>
      <path d="M28.05 11.75 L31.15 10.0 36.25 9.15 34.35 11.45 33.2 11.55 27.4 14.6 28.05 11.75 M24.25 27.4 L22.85 30.55 22.85 30.45 22.3 28.05 23.4 25.7 25.9 19.35 26.45 19.4 28.4 19.35 28.6 19.35 27.0 22.05 25.65 21.85 24.15 27.15 24.25 27.4 M22.0 32.9 L21.2 35.2 20.65 35.35 19.95 35.4 18.7 35.25 19.8 33.15 19.85 33.15 22.0 32.9" fill="#cc6b22" fill-rule="evenodd" stroke="none"/>
      <path d="M44.95 8.85 Q46.85 10.55 47.25 12.85 46.9 15.9 45.05 19.5 46.0 13.85 42.75 12.7 L44.95 8.85 M34.55 34.65 L30.2 38.85 22.8 40.05 Q21.55 37.3 22.8 34.75 L24.0 34.35 28.25 33.15 32.8 27.8 Q36.0 28.35 34.55 34.65 M26.15 30.8 L25.1 31.25 24.85 30.2 24.75 27.05 25.85 26.75 26.15 30.8 M26.45 15.65 L33.35 12.1 33.9 12.9 30.35 14.75 27.05 16.3 26.45 15.65 M17.85 24.95 L18.8 25.4 18.25 27.4 18.05 27.95 17.6 29.4 16.7 32.25 15.8 31.4 17.85 24.95" fill="#ffffbb" fill-rule="evenodd" stroke="none"/>
      <path d="M21.45 40.2 L20.05 39.4 17.45 37.55 16.85 37.05 16.6 36.85 16.6 36.8 Q14.9 34.4 14.65 33.15 L16.9 34.6 17.45 34.85 18.7 35.25 19.95 35.4 21.45 40.2 M38.9 10.95 L41.25 10.65 40.2 12.7 37.25 12.2 33.9 12.9 33.35 12.1 38.9 10.95 M29.1 22.35 L30.35 22.6 30.35 22.55 32.4 23.7 32.15 24.2 30.55 23.3 28.75 23.15 26.95 23.05 26.3 22.4 29.1 22.35 M20.75 23.4 L20.2 21.9 22.4 21.3 23.45 21.3 23.1 22.7 21.9 23.1 20.75 23.4" fill="#9a5410" fill-rule="evenodd" stroke="none"/>
      <path d="M45.05 19.5 Q42.75 24.0 39.85 28.1 36.25 27.6 37.35 22.45 L40.55 16.5 42.75 12.7 Q46.0 13.85 45.05 19.5 M22.8 40.05 L21.45 40.2 19.95 35.4 20.65 35.35 21.2 35.2 22.8 34.75 Q21.55 37.3 22.8 40.05" fill="#ffffe6" fill-rule="evenodd" stroke="none"/>
      <path d="M39.85 28.1 L34.55 34.65 Q36.0 28.35 32.8 27.8 L37.35 22.45 Q36.25 27.6 39.85 28.1 M16.6 36.85 Q14.05 34.45 13.25 31.8 L14.65 33.15 Q14.9 34.4 16.6 36.8 L16.6 36.85 M22.2 19.35 L25.65 16.15 26.45 15.65 27.05 16.3 24.55 19.4 22.2 19.35 M18.8 25.4 L17.85 24.95 20.2 21.9 20.75 23.4 18.8 25.4 M26.95 23.05 L25.85 26.75 24.75 27.05 26.3 22.4 26.95 23.05" fill="#f7db6f" fill-rule="evenodd" stroke="none"/>
      <path d="M40.2 12.7 L39.5 14.1 38.05 14.4 35.25 14.85 37.25 12.2 40.2 12.7 M31.65 24.95 L28.75 29.8 27.8 30.15 27.9 29.6 29.05 25.8 29.5 25.0 31.65 24.95 M27.2 17.05 L27.3 17.9 26.45 19.4 25.9 19.35 24.55 19.4 27.05 16.3 27.2 17.05 M33.25 17.4 L31.85 17.25 31.0 16.75 32.4 15.9 34.2 15.75 35.7 16.65 33.25 17.4 M16.7 32.25 L17.6 29.4 18.05 33.35 16.7 32.25 M22.7 24.3 L22.05 27.1 22.3 28.05 22.85 30.45 21.5 29.7 21.3 29.4 20.7 28.55 19.95 26.2 21.05 25.05 22.25 24.3 22.7 24.3 M28.75 23.15 L28.4 23.55 27.45 24.55 26.65 25.9 25.85 26.75 26.95 23.05 28.75 23.15" fill="#21fee8" fill-rule="evenodd" stroke="none"/>
      <path d="M39.5 14.1 L37.65 17.8 36.65 17.2 34.55 15.5 38.05 14.4 39.5 14.1 M33.35 20.6 L32.35 19.35 29.9 19.4 28.6 19.35 28.4 19.35 28.75 18.7 Q29.55 18.15 30.3 17.55 L33.25 17.4 33.35 20.6 M32.15 24.2 L31.65 24.95 29.5 25.0 29.15 24.85 28.3 24.7 28.4 23.55 28.75 23.15 30.55 23.3 32.15 24.2 M22.85 30.55 L23.35 32.7 22.0 32.9 19.85 33.15 19.8 33.15 20.2 32.1 21.3 29.4 21.5 29.7 22.85 30.45 22.85 30.55 M23.1 22.7 L22.7 24.3 22.25 24.3 21.1 24.3 21.9 23.1 23.1 22.7" fill="#02dbc5" fill-rule="evenodd" stroke="none"/>
      <path d="M37.65 17.8 L37.3 18.6 34.35 21.85 33.35 20.6 33.25 17.4 35.7 16.65 36.65 17.2 37.65 17.8 M27.8 30.15 L26.15 30.8 25.85 26.75 26.65 25.9 27.9 26.8 28.3 27.1 27.9 29.6 27.8 30.15 M30.35 14.75 L30.6 15.75 29.35 16.55 27.2 17.05 27.05 16.3 30.35 14.75 M17.6 29.4 L18.05 27.95 19.25 27.4 20.55 29.0 20.2 32.1 19.8 33.15 19.75 33.15 18.05 33.35 17.6 29.4" fill="#01a08f" fill-rule="evenodd" stroke="none"/>
      <path d="M33.9 12.9 L37.25 12.2 35.25 14.85 32.2 15.5 30.6 14.95 30.35 14.75 33.9 12.9 M27.3 17.9 L29.8 16.95 28.75 18.7 28.4 19.35 26.45 19.4 27.3 17.9 M18.8 25.4 L20.75 23.4 21.9 23.1 21.1 24.3 19.25 26.6 Q18.7 26.95 18.25 27.4 L18.8 25.4 M29.5 25.0 L29.05 25.8 28.3 27.1 27.9 26.8 27.35 25.75 27.75 25.05 29.15 24.85 29.5 25.0" fill="#c4fff9" fill-rule="evenodd" stroke="none"/>
      <path d="M30.35 14.75 L30.6 14.95 32.2 15.5 35.25 14.85 38.05 14.4 34.55 15.5 36.65 17.2 35.7 16.65 34.2 15.75 32.4 15.9 31.0 16.75 31.85 17.25 33.25 17.4 30.3 17.55 Q29.55 18.15 28.75 18.7 L29.8 16.95 27.3 17.9 27.2 17.05 29.35 16.55 30.6 15.75 30.35 14.75 M18.05 27.95 L18.25 27.4 Q18.7 26.95 19.25 26.6 L21.1 24.3 22.25 24.3 21.05 25.05 19.95 26.2 20.7 28.55 21.3 29.4 20.2 32.1 20.55 29.0 19.25 27.4 18.05 27.95 M29.05 25.8 L27.9 29.6 28.3 27.1 29.05 25.8 M28.4 23.55 L28.3 24.7 29.15 24.85 27.75 25.05 27.35 25.75 27.9 26.8 26.65 25.9 27.45 24.55 28.4 23.55" fill="#eefffd" fill-rule="evenodd" stroke="none"/>
      <path d="M39.75 8.65 L43.55 8.05 44.95 8.85 Q46.85 10.55 47.25 12.85 46.9 15.9 45.05 19.5 42.75 24.0 39.85 28.1 L34.55 34.65 30.2 38.85 22.8 40.05 21.45 40.2 20.05 39.4 17.45 37.55 16.85 37.05 16.6 36.85 Q14.05 34.45 13.25 31.8 L19.8 16.5 26.15 12.85 28.05 11.75 31.15 10.0 36.25 9.15 39.75 8.65 M41.25 10.65 L40.2 12.7 39.5 14.1 37.65 17.8 37.3 18.6 34.35 21.85 33.35 20.6 32.35 19.35 29.9 19.4 M30.35 22.55 L32.4 23.7 32.15 24.2 31.65 24.95 28.75 29.8 27.8 30.15 26.15 30.8 25.1 31.25 M22.85 30.55 L23.35 32.7 22.0 32.9 M21.6 19.3 L22.2 19.35 M33.9 12.9 L37.25 12.2 40.2 12.7 M33.9 12.9 L30.35 14.75 M18.8 25.4 L20.75 23.4 M15.8 31.4 L16.7 32.25 17.6 29.4 18.05 27.95 18.25 27.4 18.8 25.4 M23.45 21.3 L23.1 22.7 22.7 24.3 22.05 27.1 22.3 28.05 M25.9 19.35 L24.55 19.4 22.2 19.35 M19.75 33.15 L18.05 33.35 16.7 32.25 M28.75 23.15 L30.55 23.3 32.15 24.2 M28.6 19.35 L29.9 19.4 M28.4 19.35 L28.6 19.35 M27.05 16.3 L30.35 14.75 M25.9 19.35 L26.45 19.4 28.4 19.35 M28.75 23.15 L26.95 23.05 25.85 26.75 26.15 30.8 M27.05 16.3 L24.55 19.4 M21.9 23.1 L20.75 23.4 M22.85 30.45 L22.3 28.05 M22.85 30.55 L22.85 30.45 M23.1 22.7 L21.9 23.1 M19.85 33.15 L22.0 32.9 M19.75 33.15 L19.85 33.15 M19.8 33.15 L19.75 33.15 M15.8 31.4 L15.4 31.1" fill="none" stroke="#000000" stroke-linecap="round" stroke-linejoin="round" stroke-opacity="0.3019608" stroke-width="0.5"/>
      <path d="M31.9 12.15 Q32.8 15.1 32.5 19.2 32.15 24.3 31.0 29.15 30.05 33.2 28.6 37.25 L27.85 39.2 20.7 40.15 19.25 39.35 16.75 37.45 16.15 36.9 15.95 36.7 Q13.4 34.25 12.65 31.55 L19.55 16.4 29.05 11.2 31.9 12.15" fill="#502727" fill-opacity="0.3019608" fill-rule="evenodd" stroke="none"/>
      <path d="M14.75 41.25 L14.75 41.3 14.75 41.25 14.75 41.3 14.75 41.25" fill="#596162" fill-rule="evenodd" stroke="none"/>
      <path d="M10.2 20.45 L11.3 18.55 12.1 21.35 10.8 23.3 9.4 28.35 9.95 28.05 12.0 26.95 13.15 26.25 14.15 33.0 14.4 35.65 13.7 34.9 12.9 32.1 12.45 30.55 12.05 29.15 Q11.55 29.4 11.1 29.7 L9.05 30.85 8.5 35.15 9.95 41.7 10.45 41.75 11.6 42.0 13.35 42.3 14.75 41.3 14.85 43.65 13.55 43.9 12.95 44.0 8.85 42.5 7.3 26.3 10.2 20.45 M19.9 10.0 L22.85 7.6 24.5 16.45 24.65 23.25 23.4 30.1 20.95 37.25 19.0 40.25 18.15 41.15 17.0 42.35 16.55 39.95 17.65 39.05 16.15 37.45 15.75 34.05 17.65 36.2 18.4 37.0 19.1 36.05 20.25 34.65 20.85 33.85 21.0 28.25 21.05 27.35 21.05 26.8 18.7 26.8 18.65 26.85 17.45 27.25 16.3 27.75 16.75 24.25 18.8 23.05 20.3 23.65 21.8 24.2 22.7 19.9 22.65 19.0 22.45 14.9 22.3 13.35 22.2 11.05 20.3 12.45 18.8 13.55 19.9 10.0" fill="#ffb711" fill-rule="evenodd" stroke="none"/>
      <path d="M22.85 7.6 L24.5 7.6 24.5 12.05 24.5 16.45 22.85 7.6 M19.0 40.25 L20.95 37.25 23.4 30.1 22.05 37.05 19.0 40.25" fill="#fff1bb" fill-rule="evenodd" stroke="none"/>
      <path d="M8.4 43.35 L6.5 26.8 10.2 20.45 7.3 26.3 8.85 42.5 12.95 44.0 10.3 43.85 8.4 43.35 M17.1 12.25 L19.9 10.0 18.8 13.55 20.3 12.45 16.05 16.2 11.85 22.75 11.35 23.55 9.95 28.05 9.4 28.35 10.8 23.3 12.1 21.35 15.65 15.85 16.55 15.2 17.1 12.25 M10.45 41.75 L9.95 41.7 8.5 35.15 9.05 30.85 11.1 29.7 9.5 31.3 9.0 35.1 10.45 41.75 M17.45 27.25 L15.1 28.7 16.0 33.5 17.65 36.2 15.75 34.05 15.55 33.85 14.25 28.5 15.5 28.0 15.55 24.9 16.75 24.25 16.3 27.75 17.45 27.25" fill="#ffe600" fill-rule="evenodd" stroke="none"/>
      <path d="M11.3 18.55 L13.1 15.45 17.1 12.25 16.55 15.2 15.65 15.85 12.1 21.35 11.3 18.55 M14.85 43.65 L14.75 41.3 14.75 41.25 16.55 39.95 17.0 42.35 16.6 42.75 16.05 43.15 14.85 43.65 M14.4 35.65 L14.15 33.0 13.15 26.25 Q13.45 26.15 13.7 26.0 L15.35 25.0 15.55 24.9 15.5 28.0 14.25 28.5 15.55 33.85 15.75 34.05 16.15 37.45 16.05 37.4 14.4 35.65" fill="#cc6b22" fill-rule="evenodd" stroke="none"/>
      <path d="M24.5 7.6 Q27.0 8.15 28.5 9.9 29.7 12.75 29.95 16.85 27.9 11.45 24.5 12.05 L24.5 7.6 M28.3 35.2 L26.6 41.05 20.8 45.75 Q18.35 44.0 18.15 41.15 L19.0 40.25 22.05 37.05 23.4 30.1 Q26.45 29.05 28.3 35.2 M11.85 22.75 L16.05 16.2 16.9 16.65 14.75 20.05 12.65 23.05 11.85 22.75 M11.6 42.0 L10.45 41.75 9.0 35.1 10.05 35.05 10.5 37.05 10.65 37.65 11.0 39.05 11.6 42.0 M19.1 36.05 L18.4 37.0 17.65 36.2 16.0 33.5 16.85 32.7 19.1 36.05" fill="#ffffbb" fill-rule="evenodd" stroke="none"/>
      <path d="M19.7 46.6 L18.1 46.6 14.95 46.25 14.15 46.15 13.85 46.05 Q11.15 44.8 10.3 43.85 L12.95 44.0 13.55 43.9 14.85 43.65 16.05 43.15 19.7 46.6 M16.05 16.2 L20.3 12.45 22.2 11.05 22.3 13.35 19.5 14.4 16.9 16.65 16.05 16.2 M11.1 29.7 Q11.55 29.4 12.05 29.15 L12.45 30.55 11.55 31.45 10.7 32.3 9.5 31.3 11.1 29.7 M17.45 27.25 L18.65 26.85 18.7 26.8 21.05 26.8 21.05 27.35 19.2 27.35 17.55 28.15 Q16.75 28.5 15.95 28.9 L15.1 28.7 17.45 27.25" fill="#9a5410" fill-rule="evenodd" stroke="none"/>
      <path d="M29.95 16.85 Q30.2 21.85 29.65 26.9 26.3 28.25 24.65 23.25 L24.5 16.45 24.5 12.05 Q27.9 11.45 29.95 16.85 M20.8 45.75 L19.7 46.6 16.05 43.15 16.6 42.75 17.0 42.35 18.15 41.15 Q18.35 44.0 20.8 45.75" fill="#ffffe6" fill-rule="evenodd" stroke="none"/>
      <path d="M29.65 26.9 Q29.25 31.05 28.3 35.2 26.45 29.05 23.4 30.1 L24.65 23.25 Q26.3 28.25 29.65 26.9 M13.85 46.05 Q10.4 45.3 8.4 43.35 L10.3 43.85 Q11.15 44.8 13.85 46.05 M9.95 28.05 L11.35 23.55 11.85 22.75 12.65 23.05 12.0 26.95 9.95 28.05 M9.0 35.1 L9.5 31.3 10.7 32.3 10.05 35.05 9.0 35.1 M15.1 28.7 L15.95 28.9 16.85 32.7 16.0 33.5 15.1 28.7" fill="#f7db6f" fill-rule="evenodd" stroke="none"/>
      <path d="M19.1 17.7 L19.5 14.4 22.3 13.35 22.45 14.9 21.25 15.9 19.1 17.7 M13.15 23.65 L13.7 24.25 13.7 26.0 Q13.45 26.15 13.15 26.25 L12.0 26.95 12.65 23.05 13.15 23.65 M18.6 20.9 L17.3 21.45 16.35 21.45 17.1 19.95 18.6 19.0 20.35 19.0 18.6 20.9 M13.35 42.3 L11.6 42.0 11.0 39.05 13.35 42.3 M12.9 32.1 L13.7 34.9 14.4 35.65 16.05 37.4 14.5 37.4 14.2 37.25 13.25 36.85 11.45 35.15 11.8 33.6 12.45 32.4 12.9 32.1 M15.95 28.9 Q16.75 28.5 17.55 28.15 L17.45 28.65 17.1 29.95 17.1 31.55 16.85 32.7 15.95 28.9 M19.15 29.35 L21.0 28.25 20.85 33.85 20.25 34.65 20.05 34.15 19.15 30.3 19.15 29.35" fill="#21fee8" fill-rule="evenodd" stroke="none"/>
      <path d="M15.35 24.25 L16.15 22.45 18.6 20.9 20.3 23.65 18.8 23.05 16.75 24.25 15.55 24.9 15.35 25.0 15.35 24.25 M21.5 19.0 L18.8 18.6 21.25 15.9 22.45 14.9 22.65 19.0 21.5 19.0 M12.45 30.55 L12.9 32.1 12.45 32.4 11.5 32.95 11.55 31.45 12.45 30.55 M17.55 28.15 L19.2 27.35 21.05 27.35 21.0 28.25 19.15 29.35 18.8 29.4 17.95 29.7 17.45 28.65 17.55 28.15 M16.15 37.45 L17.65 39.05 16.55 39.95 14.75 41.25 14.6 40.15 14.2 37.25 14.5 37.4 16.05 37.4 16.15 37.45" fill="#02dbc5" fill-rule="evenodd" stroke="none"/>
      <path d="M14.75 20.05 L15.5 20.8 14.8 22.05 13.15 23.65 12.65 23.05 14.75 20.05 M20.35 19.0 L21.5 19.0 22.65 19.0 22.7 19.9 21.8 24.2 20.3 23.65 18.6 20.9 20.35 19.0 M14.75 41.3 L13.35 42.3 11.0 39.05 10.65 37.65 11.35 36.55 13.35 37.3 14.6 40.15 14.75 41.25 14.75 41.3 M20.25 34.65 L19.1 36.05 16.85 32.7 17.1 31.55 18.7 31.7 19.15 31.75 20.05 34.15 20.25 34.65" fill="#01a08f" fill-rule="evenodd" stroke="none"/>
      <path d="M19.1 17.7 L16.75 19.7 15.1 20.1 14.75 20.05 16.9 16.65 19.5 14.4 19.1 17.7 M13.7 24.25 L15.35 22.2 15.35 24.25 15.35 25.0 13.7 26.0 13.7 24.25 M10.05 35.05 L10.7 32.3 11.55 31.45 11.5 32.95 11.0 35.85 10.5 37.05 10.05 35.05 M18.8 29.4 L19.15 29.35 19.15 30.3 19.15 31.75 18.7 31.7 17.65 31.05 17.65 30.3 18.8 29.4" fill="#c4fff9" fill-rule="evenodd" stroke="none"/>
      <path d="M14.75 20.05 L15.1 20.1 16.75 19.7 19.1 17.7 21.25 15.9 18.8 18.6 21.5 19.0 20.35 19.0 18.6 19.0 17.1 19.95 16.35 21.45 17.3 21.45 18.6 20.9 16.15 22.45 15.35 24.25 15.35 22.2 13.7 24.25 13.15 23.65 14.8 22.05 15.5 20.8 14.75 20.05 M19.15 30.3 L20.05 34.15 19.15 31.75 19.15 30.3 M17.1 31.55 L17.1 29.95 17.45 28.65 17.95 29.7 18.8 29.4 17.65 30.3 17.65 31.05 18.7 31.7 17.1 31.55 M11.5 32.95 L12.45 32.4 11.8 33.6 11.45 35.15 13.25 36.85 14.2 37.25 14.6 40.15 13.35 37.3 11.35 36.55 10.65 37.65 10.5 37.05 11.0 35.85 11.5 32.95" fill="#eefffd" fill-rule="evenodd" stroke="none"/>
      <path d="M22.85 7.6 L24.5 7.6 Q27.0 8.15 28.5 9.9 29.7 12.75 29.95 16.85 30.2 21.85 29.65 26.9 29.25 31.05 28.3 35.2 L26.6 41.05 20.8 45.75 19.7 46.6 18.1 46.6 14.95 46.25 14.15 46.15 13.85 46.05 Q10.4 45.3 8.4 43.35 L6.5 26.8 10.2 20.45 11.3 18.55 13.1 15.45 17.1 12.25 19.9 10.0 22.85 7.6 M9.4 28.35 L9.95 28.05 M19.5 14.4 L16.9 16.65 14.75 20.05 M22.45 14.9 L22.3 13.35 19.5 14.4 M20.3 23.65 L21.8 24.2 22.7 19.9 22.65 19.0 22.45 14.9 M22.3 13.35 L22.2 11.05 M14.75 41.3 L13.35 42.3 11.6 42.0 10.45 41.75 9.95 41.7 M12.05 29.15 L12.45 30.55 12.9 32.1 13.7 34.9 14.4 35.65 M13.15 26.25 L12.0 26.95 9.95 28.05 M10.05 35.05 L10.7 32.3 M16.75 24.25 L18.8 23.05 20.3 23.65 M15.95 28.9 Q16.75 28.5 17.55 28.15 L19.2 27.35 21.05 27.35 21.05 26.8 18.7 26.8 M21.0 28.25 L21.05 27.35 M21.0 28.25 L20.85 33.85 20.25 34.65 19.1 36.05 18.4 37.0 M16.15 37.45 L17.65 39.05 16.55 39.95 M15.35 25.0 L15.55 24.9 16.75 24.25 M12.65 23.05 L14.75 20.05 M13.15 26.25 Q13.45 26.15 13.7 26.0 L15.35 25.0 M12.65 23.05 L12.0 26.95 M16.85 32.7 L15.95 28.9 M16.05 37.4 L14.4 35.65 M11.55 31.45 L10.7 32.3 M11.55 31.45 L12.45 30.55 M10.5 37.05 L10.65 37.65 11.0 39.05 11.6 42.0 M16.15 37.45 L16.05 37.4 M19.1 36.05 L16.85 32.7 M14.75 41.25 L16.55 39.95 M14.75 41.3 L14.75 41.25 14.75 41.3 M10.05 35.05 L10.5 37.05" fill="none" stroke="#000000" stroke-linecap="round" stroke-linejoin="round" stroke-opacity="0.3019608" stroke-width="0.5"/>
    </g>
    <g id="sprite0" transform="matrix(1.0, 0.0, 0.0, 1.0, 73.5, 65.0)">
      <use height="136.85" transform="matrix(1.0, 0.0, 0.0, 1.0, -73.5, -65.0)" width="148.25" xlink:href="#shape1"/>
    </g>
    <g id="shape1" transform="matrix(1.0, 0.0, 0.0, 1.0, 73.5, 65.0)">
      <path d="M36.65 -54.65 Q60.05 -42.0 69.75 -17.95 80.55 8.9 68.0 34.1 55.45 59.35 26.8 68.2 -1.8 77.05 -29.7 64.3 -57.6 51.6 -68.45 24.75 -79.3 -2.05 -66.75 -27.25 L-66.7 -27.3 Q-54.1 -52.5 -25.5 -61.4 3.1 -70.2 31.0 -57.5 L36.65 -54.65" fill="url(#gradient0)" fill-rule="evenodd" stroke="none"/>
    </g>
    <radialGradient cx="0" cy="0" gradientTransform="matrix(0.0914, 0.0, 0.0, 0.0914, 0.6, 3.4)" gradientUnits="userSpaceOnUse" id="gradient0" r="819.2" spreadMethod="pad">
      <stop offset="0.0" stop-color="#ffffff"/>
      <stop offset="1.0" stop-color="#ffffff" stop-opacity="0.0"/>
    </radialGradient>
    <g id="sprite1" transform="matrix(1.0, 0.0, 0.0, 1.0, 0.0, 0.0)">
      <use height="20.95" transform="matrix(1.0, 0.0, 0.0, 1.0, 0.0, 0.0)" width="24.45" xlink:href="#shape2"/>
    </g>
    <g id="shape2" transform="matrix(1.0, 0.0, 0.0, 1.0, 0.0, 0.0)">
      <path d="M14.85 11.4 Q15.8 11.6 16.25 12.45 16.85 13.3 16.6 14.35 16.4 15.3 15.55 15.9 14.65 16.4 13.65 16.2 12.65 15.9 12.1 15.1 11.6 14.2 11.8 13.2 12.1 12.2 12.9 11.65 13.8 11.15 14.85 11.4" fill="#ffffff" fill-opacity="0.7882353" fill-rule="evenodd" stroke="none"/>
      <path d="M14.85 11.4 Q13.8 11.15 12.9 11.65 12.1 12.2 11.8 13.2 11.6 14.2 12.1 15.1 12.65 15.9 13.65 16.2 14.65 16.4 15.55 15.9 16.4 15.3 16.6 14.35 16.85 13.3 16.25 12.45 15.8 11.6 14.85 11.4 M18.2 11.35 L20.15 11.25 18.75 12.55 Q19.05 13.8 18.8 15.05 18.5 16.35 17.65 17.3 L19.1 20.95 16.55 18.25 Q14.8 19.3 12.8 18.85 10.8 18.35 9.75 16.65 9.05 15.5 8.95 14.3 7.75 12.4 4.95 11.55 L9.7 11.4 Q10.3 10.4 11.35 9.75 13.1 8.75 15.1 9.15 16.95 9.5 18.1 11.15 L18.2 11.35" fill="#ffffff" fill-opacity="0.23529412" fill-rule="evenodd" stroke="none"/>
      <path d="M15.4 13.55 L18.1 17.55 13.35 14.65 7.05 18.5 12.75 13.55 0.0 0.0 14.25 12.25 24.45 5.95 15.4 13.55" fill="#ffffff" fill-opacity="0.7882353" fill-rule="evenodd" stroke="none"/>
    </g>
    <g id="sprite2" transform="matrix(1.0, 0.0, 0.0, 1.0, 0.0, 0.0)">
      <use height="41.75" transform="matrix(1.0, 0.0, 0.0, 1.0, 0.0, 0.0)" width="22.8" xlink:href="#shape3"/>
    </g>
    <g id="shape3" transform="matrix(1.0, 0.0, 0.0, 1.0, 0.0, 0.0)">
      <path d="M11.45 26.3 Q11.95 27.35 11.55 28.75 11.3 30.3 10.25 31.45 9.35 32.45 8.25 32.55 7.15 32.4 6.65 31.35 6.15 30.2 6.45 28.75 6.8 27.2 7.75 26.1 8.85 25.1 9.85 25.05 10.9 25.1 11.45 26.3" fill="#ffffff" fill-opacity="0.7882353" fill-rule="evenodd" stroke="none"/>
      <path d="M11.45 26.3 Q10.9 25.1 9.85 25.05 8.85 25.1 7.75 26.1 6.8 27.2 6.45 28.75 6.15 30.2 6.65 31.35 7.15 32.4 8.25 32.55 9.35 32.45 10.25 31.45 11.3 30.3 11.55 28.75 11.95 27.35 11.45 26.3 M13.85 28.9 L15.35 30.4 13.3 30.9 Q12.45 32.7 11.3 34.1 9.95 35.45 8.6 35.95 L6.65 41.75 7.0 36.3 Q4.9 36.2 3.85 34.0 2.8 31.75 3.45 28.8 3.9 26.8 4.8 25.2 5.5 21.85 4.2 18.5 5.85 22.35 7.75 22.15 9.0 21.4 10.3 21.4 12.35 21.55 13.5 23.65 14.5 25.6 14.0 28.6 L13.85 28.9" fill="#ffffff" fill-opacity="0.23529412" fill-rule="evenodd" stroke="none"/>
      <path d="M10.05 29.45 L8.75 36.65 7.65 29.15 0.0 28.95 8.15 27.3 10.15 0.0 10.3 26.9 22.8 27.2 10.05 29.45" fill="#ffffff" fill-opacity="0.7882353" fill-rule="evenodd" stroke="none"/>
    </g>
  </defs>
</svg>
