<?xml version="1.0" encoding="UTF-8" standalone="no"?>
<svg xmlns:xlink="http://www.w3.org/1999/xlink" height="440.0px" width="440.0px" xmlns="http://www.w3.org/2000/svg">
  <g transform="matrix(10.0, 0.0, 0.0, 10.0, 0.0, 0.0)">
    <use height="44.0" transform="matrix(1.0, 0.0, 0.0, 1.0, 0.0, 0.0)" width="44.0" xlink:href="#shape0"/>
    <use height="16.95" transform="matrix(1.3401, 0.3591, -0.316, 1.1795, 7.45, 7.3)" width="27.75" xlink:href="#sprite0"/>
  </g>
  <defs>
    <g id="shape0" transform="matrix(1.0, 0.0, 0.0, 1.0, 0.0, 0.0)">
      <path d="M44.0 44.0 L0.0 44.0 0.0 0.0 44.0 0.0 44.0 44.0" fill="#43adca" fill-opacity="0.0" fill-rule="evenodd" stroke="none"/>
    </g>
    <g id="sprite0" transform="matrix(1.0, 0.0, 0.0, 1.0, 0.0, 0.0)">
      <use height="16.95" transform="matrix(1.0, 0.0, 0.0, 1.0, 0.0, 0.0)" width="27.75" xlink:href="#sprite1"/>
    </g>
    <g id="sprite1" transform="matrix(1.0, 0.0, 0.0, 1.0, 15.1, 21.45)">
      <use height="16.95" transform="matrix(-1.0, 0.0, 0.0, 1.0, 12.65, -21.45)" width="27.75" xlink:href="#sprite2"/>
    </g>
    <g id="sprite2" transform="matrix(1.0, 0.0, 0.0, 1.0, 12.7, 21.5)">
      <use height="15.35" transform="matrix(-0.9976, 0.061, 0.061, 0.9976, 14.1344, -21.5164)" width="26.9" xlink:href="#sprite3"/>
    </g>
    <g id="sprite3" transform="matrix(1.0, 0.0, 0.0, 1.0, 14.15, 19.35)">
      <use height="15.35" transform="matrix(1.0, 0.0, 0.0, 1.0, -14.15, -19.35)" width="26.9" xlink:href="#shape1"/>
    </g>
    <g id="shape1" transform="matrix(1.0, 0.0, 0.0, 1.0, 14.15, 19.35)">
      <path d="M8.7 -16.9 Q11.25 -15.25 12.2 -13.75 L12.2 -13.45 Q12.2 -12.45 11.4 -11.7 L10.15 -12.95 10.25 -13.2 10.35 -13.6 10.75 -13.5 10.35 -13.9 10.3 -14.25 Q10.05 -15.95 8.7 -16.9 M-6.0 -12.35 L-5.65 -12.95 -5.25 -12.0 -5.8 -12.25 -6.0 -12.35 M8.1 -10.8 L8.7 -11.3 9.4 -11.9 9.85 -11.75 9.55 -12.05 9.7 -12.25 10.8 -11.7 9.95 -12.65 10.0 -12.7 10.0 -12.65 11.35 -11.7 Q10.55 -10.95 8.95 -10.45 L8.55 -10.35 8.1 -10.8 M5.85 -17.8 L6.65 -17.8 7.35 -17.2 6.65 -17.2 5.85 -17.8 M6.5 -15.95 L7.0 -15.05 5.85 -15.45 5.65 -16.2 6.5 -15.95 M3.35 -14.45 L3.65 -14.35 3.75 -14.3 3.95 -13.1 3.95 -13.0 2.95 -13.65 2.8 -14.85 3.2 -14.6 3.2 -14.55 3.35 -14.45 M3.95 -14.15 L3.95 -13.4 3.9 -13.65 3.8 -14.25 3.95 -14.15 M-1.3 -13.4 L-0.7 -12.85 -0.3 -12.5 -0.5 -11.6 -0.55 -11.6 -0.55 -11.75 -0.6 -11.65 -0.75 -11.55 -1.55 -12.25 -1.3 -13.4 M-1.3 -13.45 L-1.25 -13.5 -0.4 -12.75 -0.6 -12.9 -1.3 -13.45 M-0.6 -11.4 L-0.7 -11.55 -0.6 -11.55 -0.55 -11.55 -0.6 -11.4" fill="#698543" fill-rule="evenodd" stroke="none"/>
      <path d="M-8.55 -16.5 L-5.35 -18.35 -4.55 -18.6 -1.8 -19.25 3.95 -18.95 Q6.15 -18.5 8.05 -17.3 L8.7 -16.9 Q10.05 -15.95 10.3 -14.25 L10.35 -13.9 10.75 -13.5 10.35 -13.6 10.25 -13.2 10.15 -12.95 11.4 -11.7 11.35 -11.7 10.0 -12.65 10.0 -12.7 9.95 -12.65 10.8 -11.7 9.7 -12.25 9.55 -12.05 9.85 -11.75 9.4 -11.9 8.7 -11.3 8.1 -10.8 7.75 -10.45 7.55 -10.25 7.4 -10.15 Q4.6 -9.65 0.95 -10.2 -2.35 -10.7 -4.95 -11.9 L-5.2 -12.0 -5.25 -12.0 -5.65 -12.95 -6.0 -12.35 -7.05 -12.95 -7.15 -12.95 -8.05 -13.55 -9.4 -14.7 -8.75 -16.2 -8.55 -16.5 M6.55 -12.6 L8.1 -10.8 6.55 -12.6 M3.95 -14.15 L3.8 -14.25 3.9 -13.65 3.95 -13.4 3.95 -14.15 M3.35 -14.45 L3.2 -14.55 3.2 -14.6 2.8 -14.85 2.95 -13.65 3.95 -13.0 3.95 -13.1 3.75 -14.3 3.65 -14.35 3.35 -14.45 M6.5 -15.95 L5.65 -16.2 5.85 -15.45 7.0 -15.05 6.5 -15.95 M5.85 -17.8 L6.65 -17.2 7.35 -17.2 6.65 -17.8 5.85 -17.8 M6.35 -7.3 L6.45 -7.4 6.45 -7.35 6.35 -7.3 M-1.3 -13.45 L-0.6 -12.9 -0.4 -12.75 -1.25 -13.5 -1.3 -13.45 M-1.3 -13.4 L-1.55 -12.25 -0.75 -11.55 -0.6 -11.65 -0.55 -11.75 -0.55 -11.6 -0.5 -11.6 -0.3 -12.5 -0.7 -12.85 -1.3 -13.4 M-0.6 -11.4 L-0.55 -11.55 -0.6 -11.55 -0.7 -11.55 -0.6 -11.4" fill="#e7d885" fill-rule="evenodd" stroke="none"/>
      <path d="M12.2 -13.75 L12.7 -12.55 Q13.05 -10.6 10.25 -8.55 L8.55 -10.35 8.95 -10.45 Q10.55 -10.95 11.35 -11.7 L11.4 -11.7 Q12.2 -12.45 12.2 -13.45 L12.2 -13.75 M7.4 -10.15 L7.55 -10.25 9.35 -8.05 6.45 -7.35 6.45 -7.4 5.6 -8.5 5.65 -8.5 5.7 -8.6 7.4 -10.15 M-1.25 -7.05 Q1.6 -7.15 3.6 -7.95 L4.1 -7.45 3.9 -8.05 4.0 -8.1 4.45 -8.05 4.6 -8.4 5.0 -8.6 5.85 -8.05 6.25 -7.25 -1.25 -7.05" fill="#455629" fill-rule="evenodd" stroke="none"/>
      <path d="M10.25 -8.55 L9.8 -8.25 7.75 -10.45 8.1 -10.8 8.55 -10.35 10.25 -8.55 M5.6 -8.5 L5.4 -8.85 5.65 -8.55 5.65 -8.5 5.6 -8.5 M-5.25 -11.95 L-5.8 -10.9 -6.3 -11.85 -6.0 -12.35 -5.8 -12.25 -5.25 -12.0 -5.25 -11.95 M-8.75 -13.15 L-8.8 -13.05 -9.5 -12.55 -10.1 -12.0 -9.5 -12.55 -8.8 -13.05 -8.8 -12.6 -10.1 -11.9 -10.1 -12.0 -10.0 -12.55 Q-9.85 -12.55 -9.85 -12.85 L-9.85 -12.9 -9.6 -12.7 -9.5 -12.7 -9.5 -12.95 -9.5 -13.0 -9.5 -13.15 -9.35 -13.2 -9.4 -13.3 -8.75 -13.6 -8.75 -13.15" fill="#3f5232" fill-rule="evenodd" stroke="none"/>
      <path d="M9.8 -8.25 L9.6 -8.1 9.4 -8.0 9.4 -8.05 9.35 -8.05 7.55 -10.25 7.75 -10.45 9.8 -8.25 M-5.25 -12.0 L-5.2 -12.0 -5.25 -11.95 -5.25 -12.0 M5.65 -8.5 L5.65 -8.55 5.7 -8.6 5.65 -8.5 M-8.75 -13.15 L-8.7 -13.1 -8.8 -13.05 -8.75 -13.15 M-2.3 -6.8 L-2.15 -5.85 -2.5 -6.75 -2.3 -6.8" fill="#dfc262" fill-rule="evenodd" stroke="none"/>
      <path d="M6.9 -6.7 L6.7 -6.55 6.25 -7.25 6.35 -7.3 6.45 -7.35 6.9 -6.7" fill="#dbb357" fill-rule="evenodd" stroke="none"/>
      <path d="M9.4 -8.0 Q8.25 -7.25 6.9 -6.7 L6.45 -7.35 9.35 -8.05 9.4 -8.05 9.4 -8.0 M6.7 -6.55 Q3.9 -5.35 0.3 -4.7 L-5.3 -4.1 -8.45 -4.25 -7.65 -6.75 -4.9 -6.4 -4.95 -6.3 -2.5 -6.75 -2.15 -5.85 -2.3 -6.8 -1.25 -7.05 6.25 -7.25 6.7 -6.55 M-8.95 -4.3 L-9.55 -4.45 Q-12.8 -5.05 -13.8 -6.6 -13.35 -8.2 -12.45 -9.45 L-12.15 -8.5 Q-10.75 -7.6 -9.0 -7.1 L-9.05 -6.1 -8.65 -7.05 -8.25 -6.9 -8.2 -6.2 -8.3 -5.7 Q-8.2 -5.05 -8.95 -4.3 M-5.3 -4.1 L-4.95 -6.3 -5.3 -4.1" fill="#3c4a24" fill-rule="evenodd" stroke="none"/>
      <path d="M-13.8 -6.6 L-14.1 -7.45 Q-14.45 -9.1 -12.5 -12.05 -13.45 -10.45 -12.45 -9.45 -13.35 -8.2 -13.8 -6.6 M-9.6 -15.0 L-10.2 -14.0 -10.95 -13.75 -10.3 -14.65 -9.6 -15.0" fill="#2b381d" fill-rule="evenodd" stroke="none"/>
      <path d="M-2.3 -6.8 L-2.5 -6.75 -4.95 -6.3 -4.9 -6.4 -4.8 -7.95 -4.25 -7.75 -2.4 -7.2 -1.25 -7.05 -2.3 -6.8" fill="#dbc860" fill-rule="evenodd" stroke="none"/>
      <path d="M-8.45 -4.25 L-8.95 -4.3 Q-8.2 -5.05 -8.3 -5.7 L-8.2 -6.2 -8.25 -6.9 -8.65 -7.05 -9.05 -6.1 -9.0 -7.1 Q-10.75 -7.6 -12.15 -8.5 L-12.45 -9.45 Q-13.45 -10.45 -12.5 -12.05 L-11.55 -13.4 -10.9 -14.15 -9.9 -15.35 -8.55 -16.5 -8.75 -16.2 -9.4 -14.7 -8.05 -13.55 -7.15 -12.95 -7.05 -12.95 -6.0 -12.35 -6.3 -11.85 -5.8 -10.9 -5.25 -11.95 -5.2 -12.0 -4.95 -11.9 Q-2.35 -10.7 0.95 -10.2 4.6 -9.65 7.4 -10.15 L5.7 -8.6 5.65 -8.55 5.4 -8.85 5.6 -8.5 6.45 -7.4 6.35 -7.3 6.25 -7.25 5.85 -8.05 5.0 -8.6 4.6 -8.4 4.45 -8.05 4.0 -8.1 3.9 -8.05 4.1 -7.45 3.6 -7.95 Q1.6 -7.15 -1.25 -7.05 L-2.4 -7.2 -4.25 -7.75 -4.8 -7.95 -4.9 -6.4 -7.65 -6.75 -8.45 -4.25 M-9.6 -15.0 L-10.3 -14.65 -10.95 -13.75 -10.2 -14.0 -9.6 -15.0 M-8.7 -13.1 L-8.75 -13.15 -8.75 -13.6 -9.4 -13.3 -9.35 -13.2 -9.5 -13.15 -9.5 -13.0 -9.5 -12.95 -9.5 -12.7 -9.6 -12.7 -9.85 -12.9 -9.85 -12.85 Q-9.85 -12.55 -10.0 -12.55 L-10.1 -12.0 -10.1 -11.9 -8.8 -12.6 -8.8 -13.05 -8.7 -13.1 -8.05 -13.55 -8.7 -13.1 M-12.45 -9.45 L-10.1 -12.0 -12.45 -9.45 M-4.65 -8.7 L-4.8 -7.95 -4.65 -8.7" fill="#e2c462" fill-rule="evenodd" stroke="none"/>
      <path d="M8.1 -10.8 L6.55 -12.6 M8.1 -10.8 L8.55 -10.35 M5.65 -8.55 L5.4 -8.85 5.6 -8.5 M5.65 -8.5 L5.65 -8.55 M5.7 -8.6 L5.65 -8.5 M6.45 -7.4 L5.6 -8.5 M6.9 -6.7 L6.45 -7.35 M6.45 -7.4 L6.45 -7.35 M10.25 -8.55 L8.55 -10.35 M-8.7 -13.1 L-8.05 -13.55 M-10.1 -12.0 L-9.5 -12.55 -8.8 -13.05 -8.7 -13.1 M-10.1 -12.0 L-12.45 -9.45 M-13.8 -6.6 Q-13.35 -8.2 -12.45 -9.45 M-4.95 -6.3 L-5.3 -4.1 M-4.8 -7.95 L-4.9 -6.4 -4.95 -6.3 M-4.8 -7.95 L-4.65 -8.7" fill="none" stroke="#af9d3d" stroke-linecap="round" stroke-linejoin="round" stroke-width="0.25"/>
      <path d="M-8.55 -16.5 L-5.35 -18.35 -4.55 -18.6 -1.8 -19.25 3.95 -18.95 Q6.15 -18.5 8.05 -17.3 L8.7 -16.9 Q11.25 -15.25 12.2 -13.75 L12.7 -12.55 Q13.05 -10.6 10.25 -8.55 L9.8 -8.25 9.6 -8.1 9.4 -8.0 Q8.25 -7.25 6.9 -6.7 L6.7 -6.55 Q3.9 -5.35 0.3 -4.7 L-5.3 -4.1 -8.45 -4.25 -8.95 -4.3 -9.55 -4.45 Q-12.8 -5.05 -13.8 -6.6 L-14.1 -7.45 Q-14.45 -9.1 -12.5 -12.05 L-11.55 -13.4 -10.9 -14.15 -9.9 -15.35 -8.55 -16.5" fill="none" stroke="#333333" stroke-linecap="round" stroke-linejoin="round" stroke-opacity="0.5294118" stroke-width="0.05"/>
    </g>
  </defs>
</svg>
