<?xml version="1.0" encoding="UTF-8" standalone="no"?>
<svg xmlns:xlink="http://www.w3.org/1999/xlink" height="440.0px" width="440.0px" xmlns="http://www.w3.org/2000/svg">
  <g transform="matrix(10.0, 0.0, 0.0, 10.0, 0.0, 0.0)">
    <use height="44.0" transform="matrix(0.9091, 0.0, 0.0, 0.9091, 2.0, 2.0)" width="44.0" xlink:href="#sprite0"/>
  </g>
  <defs>
    <g id="sprite0" transform="matrix(1.0, 0.0, 0.0, 1.0, 0.0, 0.0)">
      <use height="44.0" transform="matrix(1.0, 0.0, 0.0, 1.0, 0.0, 0.0)" width="44.0" xlink:href="#shape0"/>
      <use height="20.25" transform="matrix(1.6486, 0.0, 0.0, 1.3939, 2.95, 7.9)" width="23.05" xlink:href="#sprite1"/>
    </g>
    <g id="shape0" transform="matrix(1.0, 0.0, 0.0, 1.0, 0.0, 0.0)">
      <path d="M44.0 44.0 L0.0 44.0 0.0 0.0 44.0 0.0 44.0 44.0" fill="#43adca" fill-opacity="0.0" fill-rule="evenodd" stroke="none"/>
    </g>
    <g id="sprite1" transform="matrix(1.0, 0.0, 0.0, 1.0, 0.0, 0.0)">
      <use height="20.25" transform="matrix(1.0, 0.0, 0.0, 1.0, 0.0, 0.0)" width="23.05" xlink:href="#sprite2"/>
    </g>
    <g id="sprite2" transform="matrix(1.0, 0.0, 0.0, 1.0, 13.1, 23.9)">
      <use height="20.25" transform="matrix(-1.0, 0.0, 0.0, 1.0, 9.95, -23.9)" width="23.05" xlink:href="#sprite3"/>
    </g>
    <g id="sprite3" transform="matrix(1.0, 0.0, 0.0, 1.0, 9.9, 23.95)">
      <use height="20.25" transform="matrix(1.0, 0.0, 0.0, 1.0, -9.9, -23.95)" width="23.05" xlink:href="#shape1"/>
    </g>
    <g id="shape1" transform="matrix(1.0, 0.0, 0.0, 1.0, 9.9, 23.95)">
      <path d="M-4.95 -7.15 L-5.2 -8.4 -3.1 -7.8 -2.95 -7.8 -3.55 -3.7 -3.95 -3.95 -3.85 -6.15 -4.95 -7.15" fill="#d0c18c" fill-rule="evenodd" stroke="none"/>
      <path d="M-4.95 -7.15 L-3.85 -6.15 -3.95 -3.95 -4.35 -4.15 -4.95 -7.15" fill="#ffffcc" fill-rule="evenodd" stroke="none"/>
      <path d="M-5.2 -8.4 L-4.95 -7.15 -4.35 -4.15 -3.95 -3.95 -3.55 -3.7 -2.95 -7.8" fill="none" stroke="#837958" stroke-linecap="round" stroke-linejoin="round" stroke-width="0.05"/>
      <path d="M-9.2 -9.25 L-9.45 -10.5 -7.35 -9.9 -7.2 -9.9 -7.8 -5.8 -8.2 -6.05 -8.1 -8.25 -9.2 -9.25" fill="#d0c18c" fill-rule="evenodd" stroke="none"/>
      <path d="M-9.2 -9.25 L-8.1 -8.25 -8.2 -6.05 -8.6 -6.25 -9.2 -9.25" fill="#ffffcc" fill-rule="evenodd" stroke="none"/>
      <path d="M-9.45 -10.5 L-9.2 -9.25 -8.6 -6.25 -8.2 -6.05 -7.8 -5.8 -7.2 -9.9" fill="none" stroke="#837958" stroke-linecap="round" stroke-linejoin="round" stroke-width="0.05"/>
      <path d="M-9.85 -11.25 L-7.4 -11.75 -6.5 -11.7 -7.15 -12.3 -7.7 -13.2 -7.5 -13.6 -6.45 -14.35 -6.55 -13.6 -5.95 -13.55 -4.9 -13.05 -4.05 -12.8 -3.25 -12.3 -2.85 -12.3 -2.75 -12.45 -2.0 -11.95 -1.25 -11.9 -1.0 -12.1 -0.85 -12.2 1.55 -12.95 1.95 -13.95 1.65 -14.25 1.35 -14.25 3.3 -14.85 4.2 -16.25 4.2 -16.35 2.7 -15.8 -0.55 -15.8 -3.5 -16.5 -3.8 -17.35 Q-3.3 -17.7 -2.85 -18.15 L-2.3 -18.2 -5.4 -23.95 -2.65 -20.75 -1.15 -18.3 -0.4 -18.15 4.1 -17.95 5.25 -16.9 5.75 -15.25 5.05 -15.15 4.3 -13.9 3.7 -13.9 2.95 -13.55 1.5 -12.25 1.45 -10.95 0.0 -9.85 -2.6 -10.15 -3.3 -9.2 -4.8 -9.2 -8.95 -10.5 -9.85 -11.25 M-4.85 -15.85 L-4.65 -16.2 Q-4.15 -15.95 -3.65 -15.8 L-3.65 -14.7 -4.25 -14.55 -4.55 -15.4 -4.85 -15.85 -4.85 -15.75 -4.85 -15.85 M-3.85 -14.1 L-3.85 -14.3 -2.05 -15.45 0.2 -15.35 1.2 -14.9 0.95 -14.3 0.65 -14.35 -1.15 -14.6 -3.65 -13.85 -3.9 -14.1 -3.85 -14.1 M-5.25 -12.1 L-5.2 -12.25 -5.5 -12.3 -6.0 -12.1 -6.15 -11.9 -6.0 -11.7 -5.8 -11.65 -5.6 -11.55 -5.4 -11.7 -5.25 -12.1 M-4.5 -11.85 L-4.6 -12.0 -4.85 -12.15 -5.2 -11.7 -5.15 -11.45 -4.7 -11.15 -4.6 -11.05 -4.25 -11.05 -4.35 -11.55 -4.5 -11.85 M-3.55 -11.7 L-3.55 -11.2 Q-3.65 -11.15 -3.85 -11.05 L-3.1 -11.0 -2.3 -11.4 -2.05 -11.7 -3.55 -11.7" fill="#ffffcc" fill-rule="evenodd" stroke="none"/>
      <path d="M-4.65 -16.2 L-4.15 -16.95 -3.95 -17.15 -3.95 -17.2 -3.8 -17.35 -3.5 -16.5 -0.55 -15.8 2.7 -15.8 4.2 -16.35 4.2 -16.25 3.3 -14.85 1.35 -14.25 1.65 -14.25 1.95 -13.95 1.55 -12.95 -0.85 -12.2 -0.4 -12.55 0.3 -14.15 0.65 -14.35 0.3 -14.15 -1.35 -14.3 -2.2 -13.95 -3.35 -13.5 -3.55 -13.4 -4.15 -13.65 -4.1 -13.8 -3.9 -14.1 -4.1 -13.8 -4.35 -13.8 -4.55 -14.75 -4.55 -15.4 -4.25 -14.55 -3.65 -14.7 -3.65 -15.8 Q-4.15 -15.95 -4.65 -16.2 M0.65 -14.35 L0.95 -14.3 1.2 -14.9 0.2 -15.35 -2.05 -15.45 -3.85 -14.3 -3.85 -14.1 -3.9 -14.1 -3.65 -13.85 -1.15 -14.6 0.65 -14.35" fill="#e6dd99" fill-rule="evenodd" stroke="none"/>
      <path d="M6.95 -15.4 L7.85 -12.85 7.85 -12.9 7.85 -12.85 7.95 -9.4 6.9 -8.35 6.25 -8.25 4.55 -9.15 4.0 -9.9 -0.75 -9.35 -1.85 -9.6 -2.9 -7.95 -3.1 -7.8 -5.2 -8.4 -7.15 -9.35 -9.9 -10.15 -9.85 -11.25 -8.95 -10.5 -4.8 -9.2 -3.3 -9.2 -2.6 -10.15 0.0 -9.85 1.45 -10.95 1.5 -12.25 2.95 -13.55 3.7 -13.9 4.3 -13.9 5.05 -15.15 5.75 -15.25 5.25 -16.9 6.9 -15.5 7.0 -15.4 6.95 -15.4 6.9 -15.5 6.95 -15.4 M-7.4 -11.75 L-7.85 -12.9 -7.7 -13.2 -7.15 -12.3 -6.5 -11.7 -7.4 -11.75 M-2.75 -12.45 L-2.85 -12.3 -3.25 -12.3 -4.05 -12.8 -4.9 -13.05 -4.45 -13.05 -4.3 -13.3 -4.2 -13.65 -4.15 -13.65 -3.55 -13.4 -3.35 -13.5 -3.5 -12.85 -2.75 -12.45" fill="#d0c18c" fill-rule="evenodd" stroke="none"/>
      <path d="M-6.45 -14.35 L-5.4 -15.1 -4.85 -15.85 -4.85 -15.75 Q-5.0 -15.1 -5.6 -14.55 L-6.1 -14.0 -5.95 -13.55 -6.55 -13.6 -6.45 -14.35 M-3.95 -17.2 L-5.4 -23.95 -2.3 -18.2 -2.85 -18.15 Q-3.3 -17.7 -3.8 -17.35 L-3.95 -17.2 M-2.65 -20.75 L-0.4 -18.15 -1.15 -18.3 -2.65 -20.75 M-4.1 -13.8 L-4.15 -13.65 -4.2 -13.65 -4.1 -13.8 M-3.55 -11.7 L-2.05 -11.7 -2.3 -11.4 -3.1 -11.0 -3.85 -11.05 Q-3.65 -11.15 -3.55 -11.2 L-3.55 -11.7" fill="#e0d7a3" fill-rule="evenodd" stroke="none"/>
      <path d="M-0.85 -12.2 L-1.0 -12.1 -1.75 -12.15 -2.5 -12.65 -2.75 -13.25 -2.2 -13.95 -1.35 -14.3 0.3 -14.15 -0.4 -12.55 -0.85 -12.2 M-5.8 -11.65 L-5.6 -11.9 -5.25 -12.1 -5.4 -11.7 -5.6 -11.55 -5.8 -11.65 M-4.1 -13.8 L-4.2 -13.65 -4.3 -13.3 -4.8 -13.35 -5.1 -13.6 -5.4 -14.0 -4.55 -14.75 -4.35 -13.8 -4.1 -13.8 M-4.7 -11.15 L-4.65 -11.55 -4.5 -11.85 -4.35 -11.55 -4.25 -11.05 -4.6 -11.05 -4.7 -11.15" fill="#665822" fill-rule="evenodd" stroke="none"/>
      <path d="M-1.0 -12.1 L-1.25 -11.9 -2.0 -11.95 -2.75 -12.45 -3.5 -12.85 -3.35 -13.5 -2.2 -13.95 -2.75 -13.25 -2.5 -12.65 -1.75 -12.15 -1.0 -12.1 M-4.9 -13.05 L-5.95 -13.55 -6.1 -14.0 -5.6 -14.55 Q-5.0 -15.1 -4.85 -15.75 L-4.85 -15.85 -4.55 -15.4 -4.55 -14.75 -5.4 -14.0 -5.1 -13.6 -4.8 -13.35 -4.45 -13.05 -4.9 -13.05" fill="#beab63" fill-rule="evenodd" stroke="none"/>
      <path d="M-5.8 -11.65 L-6.0 -11.7 -6.15 -11.9 -6.0 -12.1 -5.5 -12.3 -5.2 -12.25 -5.25 -12.1 -5.6 -11.9 -5.8 -11.65 M-4.7 -11.15 L-5.15 -11.45 -5.2 -11.7 -4.85 -12.15 -4.6 -12.0 -4.5 -11.85 -4.65 -11.55 -4.7 -11.15" fill="#b8a661" fill-rule="evenodd" stroke="none"/>
      <path d="M-4.3 -13.3 L-4.45 -13.05 -4.8 -13.35 -4.3 -13.3" fill="#d7c686" fill-rule="evenodd" stroke="none"/>
      <path d="M6.95 -15.4 L7.85 -12.85 7.95 -9.4 6.9 -8.35 6.25 -8.25 4.55 -9.15 4.0 -9.9 -0.75 -9.35 -1.85 -9.6 -2.9 -7.95 -3.1 -7.8 -5.2 -8.4 -7.15 -9.35 -9.9 -10.15 -9.85 -11.25 -7.4 -11.75 -7.85 -12.9 -7.7 -13.2 -7.5 -13.6 -6.45 -14.35 -5.4 -15.1 -4.85 -15.85 -4.65 -16.2 -4.15 -16.95 -3.95 -17.15 -3.95 -17.2 -5.4 -23.95 -2.65 -20.75 -0.4 -18.15 4.1 -17.95 5.25 -16.9 6.9 -15.5 7.0 -15.4 M7.85 -12.9 L7.85 -12.85 M6.95 -15.4 L6.9 -15.5 M-0.85 -12.2 L-1.0 -12.1 -1.25 -11.9 -2.0 -11.95 -2.75 -12.45 M-4.9 -13.05 L-5.95 -13.55 M0.65 -14.35 L0.3 -14.15 -0.4 -12.55 -0.85 -12.2 M1.45 -10.95 L1.5 -12.25 2.95 -13.55 3.7 -13.9 M-3.9 -14.1 L-4.1 -13.8 -4.15 -13.65 -3.55 -13.4 -3.35 -13.5 -2.2 -13.95 -1.35 -14.3 0.3 -14.15 M-2.3 -18.2 L-2.85 -18.15 Q-3.3 -17.7 -3.8 -17.35 L-3.95 -17.2 M-4.55 -15.4 L-4.85 -15.85 -4.85 -15.75 M-4.55 -14.75 L-4.55 -15.4 M-5.25 -12.1 L-5.2 -12.25 -5.5 -12.3 -6.0 -12.1 -6.15 -11.9 -6.0 -11.7 -5.8 -11.65 -5.6 -11.9 -5.25 -12.1 -5.4 -11.7 -5.6 -11.55 -5.8 -11.65 M-2.2 -13.95 L-2.75 -13.25 -2.5 -12.65 -1.75 -12.15 -1.0 -12.1 M-3.9 -14.1 L-3.85 -14.1 M-4.1 -13.8 L-4.2 -13.65 -4.3 -13.3 -4.45 -13.05 -4.9 -13.05 M-4.55 -14.75 L-5.4 -14.0 -5.1 -13.6 -4.8 -13.35 -4.3 -13.3 M-4.5 -11.85 L-4.6 -12.0 -4.85 -12.15 -5.2 -11.7 -5.15 -11.45 -4.7 -11.15 -4.65 -11.55 -4.5 -11.85 -4.35 -11.55 -4.25 -11.05 -4.6 -11.05 -4.7 -11.15 M-3.5 -12.85 L-2.75 -12.45 M-4.55 -14.75 L-4.35 -13.8 -4.1 -13.8 M-4.45 -13.05 L-4.8 -13.35" fill="none" stroke="#837958" stroke-linecap="round" stroke-linejoin="round" stroke-width="0.05"/>
      <path d="M4.3 -13.85 L5.05 -15.1 5.75 -15.2 13.15 -16.35 4.35 -12.8 4.15 -12.85 4.3 -13.2 7.95 -14.75 4.3 -13.85" fill="#ffffcc" fill-rule="evenodd" stroke="none"/>
      <path d="M13.15 -16.35 L6.4 -11.75 Q4.85 -12.05 4.35 -12.8 L13.15 -16.35" fill="#d0c18c" fill-rule="evenodd" stroke="none"/>
      <path d="M4.3 -13.2 L4.3 -13.85 7.95 -14.75 4.3 -13.2" fill="#e0d7a3" fill-rule="evenodd" stroke="none"/>
      <path d="M4.3 -13.85 L5.05 -15.1 M5.75 -15.2 L13.15 -16.35 6.4 -11.75 Q4.85 -12.05 4.35 -12.8 L4.15 -12.85 4.3 -13.2 4.3 -13.85 Z" fill="none" stroke="#837958" stroke-linecap="round" stroke-linejoin="round" stroke-width="0.05"/>
    </g>
  </defs>
</svg>
