<?xml version="1.0" encoding="UTF-8" standalone="no"?>
<svg xmlns:xlink="http://www.w3.org/1999/xlink" height="440.0px" width="440.0px" xmlns="http://www.w3.org/2000/svg">
  <g transform="matrix(10.0, 0.0, 0.0, 10.0, 0.0, 0.0)">
    <use height="44.0" transform="matrix(0.9091, 0.0, 0.0, 0.9091, 2.0, 2.0)" width="44.0" xlink:href="#sprite0"/>
  </g>
  <defs>
    <g id="sprite0" transform="matrix(1.0, 0.0, 0.0, 1.0, 0.0, 0.0)">
      <use height="44.0" transform="matrix(1.0, 0.0, 0.0, 1.0, 0.0, 0.0)" width="44.0" xlink:href="#shape0"/>
      <use height="18.35" transform="matrix(2.0376, 0.0, 0.0, 2.0376, 3.05, 3.3)" width="18.65" xlink:href="#sprite1"/>
    </g>
    <g id="shape0" transform="matrix(1.0, 0.0, 0.0, 1.0, 0.0, 0.0)">
      <path d="M44.0 44.0 L0.0 44.0 0.0 0.0 44.0 0.0 44.0 44.0" fill="#43adca" fill-opacity="0.0" fill-rule="evenodd" stroke="none"/>
    </g>
    <g id="sprite1" transform="matrix(1.0, 0.0, 0.0, 1.0, 0.0, 0.0)">
      <use height="18.35" transform="matrix(1.0, 0.0, 0.0, 1.0, 0.0, 0.0)" width="18.65" xlink:href="#sprite2"/>
    </g>
    <g id="sprite2" transform="matrix(1.0, 0.0, 0.0, 1.0, 9.35, 21.65)">
      <use height="18.35" transform="matrix(1.0, 0.0, 0.0, 1.0, -9.35, -21.65)" width="18.65" xlink:href="#shape1"/>
    </g>
    <g id="shape1" transform="matrix(1.0, 0.0, 0.0, 1.0, 9.35, 21.65)">
      <path d="M-2.15 -15.55 L-2.8 -15.65 -2.95 -15.7 Q-4.55 -15.35 -4.8 -14.55 -6.4 -13.1 -2.0 -12.8 L-2.45 -12.55 Q-3.85 -10.7 -1.6 -10.35 1.25 -10.0 2.1 -11.55 1.45 -6.9 3.6 -4.95 L3.9 -5.25 3.95 -5.25 4.15 -5.15 6.2 -5.0 6.8 -5.95 7.2 -6.4 8.0 -5.15 8.6 -7.25 8.7 -7.45 8.7 -8.95 Q9.25 -9.95 9.3 -11.15 9.35 -13.0 8.1 -14.5 L6.85 -15.45 Q4.1 -15.2 2.75 -14.3 2.8 -13.75 4.15 -13.4 2.55 -13.8 1.95 -12.45 L1.4 -12.85 Q-0.1 -13.65 -1.55 -13.1 0.0 -14.1 -0.5 -14.95 L-2.15 -15.55 M-6.1 -14.3 L-6.55 -13.75 Q-7.2 -12.7 -7.25 -11.35 L-7.2 -10.1 -6.5 -7.85 -5.9 -6.95 -5.45 -6.85 -5.7 -7.35 Q-7.2 -10.95 -6.1 -14.3 M6.25 -12.5 L7.6 -11.5 Q8.5 -10.3 8.7 -8.95 8.5 -10.3 7.6 -11.5 L6.25 -12.5 M1.7 -3.3 Q2.1 -4.15 1.8 -4.35 1.35 -5.05 1.0 -7.4 L1.0 -4.35 0.7 -4.25 1.7 -3.3" fill="#ff9900" fill-rule="evenodd" stroke="none"/>
      <path d="M-0.75 -16.8 L-1.65 -16.15 -2.15 -15.55 -0.5 -14.95 Q0.0 -14.1 -1.55 -13.1 -0.1 -13.65 1.4 -12.85 L1.95 -12.45 Q2.55 -13.8 4.15 -13.4 2.8 -13.75 2.75 -14.3 4.1 -15.2 6.85 -15.45 L5.1 -16.0 4.3 -15.95 4.2 -16.0 3.1 -16.8 Q3.45 -15.85 2.0 -15.85 -1.4 -15.65 -0.75 -16.8 M-2.95 -15.7 Q-4.6 -15.7 -5.9 -14.5 L-6.1 -14.3 Q-7.2 -10.95 -5.7 -7.35 L-4.45 -9.85 -4.65 -7.8 -4.55 -6.65 -4.15 -6.6 -4.1 -6.65 -3.95 -6.25 -1.75 -3.65 -1.6 -4.15 -1.2 -5.2 -0.7 -4.9 0.7 -4.25 1.0 -4.35 1.0 -7.4 Q1.35 -5.05 1.8 -4.35 2.1 -4.15 1.7 -3.3 L2.4 -3.3 2.5 -3.4 3.6 -4.95 Q1.45 -6.9 2.1 -11.55 1.25 -10.0 -1.6 -10.35 -3.85 -10.7 -2.45 -12.55 L-2.0 -12.8 Q-6.4 -13.1 -4.8 -14.55 -4.55 -15.35 -2.95 -15.7 M-2.45 -12.55 L-3.25 -11.9 -4.0 -10.95 -4.05 -10.85 -4.1 -10.75 -4.45 -9.85 -4.1 -10.75 -4.05 -10.85 -4.0 -10.95 -3.25 -11.9 -2.45 -12.55 M4.2 -16.0 Q2.5 -15.85 1.2 -13.8 2.5 -15.85 4.2 -16.0" fill="#de6320" fill-rule="evenodd" stroke="none"/>
      <path d="M3.1 -16.8 L1.45 -17.35 Q0.25 -17.4 -0.75 -16.8 -1.4 -15.65 2.0 -15.85 3.45 -15.85 3.1 -16.8" fill="#fb9303" fill-rule="evenodd" stroke="none"/>
      <path d="M-5.9 -6.95 L-5.25 -6.45 -5.1 -6.4 -4.6 -6.15 -4.4 -6.15 -4.45 -6.3 -4.15 -6.6 -4.55 -6.65 -4.65 -7.8 -4.45 -9.85 -5.7 -7.35 -5.45 -6.85 -5.9 -6.95 M-3.1 -4.2 L-2.85 -3.65 -1.75 -3.65 -3.95 -6.25 -3.1 -4.2 M0.85 -3.45 L1.0 -3.3 1.7 -3.3 0.7 -4.25 -0.7 -4.9 0.85 -3.45 M5.2 -4.3 L5.35 -4.2 5.6 -4.0 6.2 -5.0 4.15 -5.15 5.2 -4.3 M6.8 -5.95 L8.0 -5.15 7.2 -6.4 6.8 -5.95" fill="#963807" fill-rule="evenodd" stroke="none"/>
      <path d="M-5.25 -6.45 L-3.1 -4.2 -3.95 -6.25 -4.1 -6.65 -4.15 -6.6 -4.45 -6.3 -4.4 -6.15 -4.6 -6.15 -5.1 -6.4 -5.25 -6.45 M-1.6 -4.15 L0.85 -3.45 -0.7 -4.9 -1.2 -5.2 -1.6 -4.15 M2.5 -3.4 L5.2 -4.3 4.15 -5.15 3.95 -5.25 3.9 -5.25 3.6 -4.95 2.5 -3.4" fill="#382510" fill-opacity="0.3019608" fill-rule="evenodd" stroke="none"/>
      <path d="M-0.75 -16.8 L-1.65 -16.15 -2.15 -15.55 -2.8 -15.65 -2.95 -15.7 Q-4.6 -15.7 -5.9 -14.5 L-6.1 -14.3 -6.55 -13.75 Q-7.2 -12.7 -7.25 -11.35 L-7.2 -10.1 -6.5 -7.85 -5.9 -6.95 -5.25 -6.45 M-3.1 -4.2 L-2.85 -3.65 -1.75 -3.65 -1.6 -4.15 M0.85 -3.45 L1.0 -3.3 1.7 -3.3 2.4 -3.3 2.5 -3.4 M5.35 -4.2 L5.6 -4.0 6.2 -5.0 M6.8 -5.95 L8.0 -5.15 M8.6 -7.25 L8.7 -7.45 8.7 -8.95 Q9.25 -9.95 9.3 -11.15 9.35 -13.0 8.1 -14.5 L6.85 -15.45 5.1 -16.0 4.3 -15.95 4.2 -16.0 3.1 -16.8 1.45 -17.35 Q0.25 -17.4 -0.75 -16.8 M-4.55 -6.65 L-4.65 -7.8 -4.45 -9.85 -4.1 -10.75 -4.05 -10.85 -4.0 -10.95 -3.25 -11.9 -2.45 -12.55 -2.0 -12.8 M3.6 -4.95 L2.5 -3.4 M-3.1 -4.2 L-3.95 -6.25 M-0.7 -4.9 L-1.2 -5.2 -1.6 -4.15 M-0.7 -4.9 L0.85 -3.45 M-5.1 -6.4 L-4.6 -6.15 -4.4 -6.15 -4.45 -6.3 M1.2 -13.8 Q2.5 -15.85 4.2 -16.0 M8.7 -8.95 Q8.5 -10.3 7.6 -11.5 L6.25 -12.5 M5.2 -4.3 L4.15 -5.15" fill="none" stroke="#000000" stroke-linecap="round" stroke-linejoin="round" stroke-opacity="0.3019608" stroke-width="0.05"/>
      <path d="M1.1 -14.65 L-0.75 -13.8 1.3 -13.05 3.0 -13.95 1.1 -14.65" fill="#963807" fill-rule="evenodd" stroke="none"/>
      <path d="M-0.1 -15.5 Q-1.5 -17.25 -3.6 -18.4 L-2.9 -16.9 Q-2.0 -16.7 -0.85 -15.05 L-0.1 -15.5" fill="#92b013" fill-rule="evenodd" stroke="none"/>
      <path d="M-0.1 -15.5 L-0.85 -15.05 -0.1 -13.85 1.2 -13.55 -0.1 -15.5" fill="#695c1b" fill-rule="evenodd" stroke="none"/>
      <path d="M-0.85 -15.05 Q-2.0 -16.7 -2.9 -16.9 L-3.6 -18.4 Q-1.5 -17.25 -0.1 -15.5 L1.2 -13.55 -0.1 -13.85 -0.9 -14.0 M-0.85 -15.05 L-0.1 -13.85" fill="none" stroke="#000000" stroke-linecap="round" stroke-linejoin="round" stroke-opacity="0.3019608" stroke-width="0.05"/>
      <path d="M5.0 -13.1 Q5.85 -11.85 5.0 -11.35 6.9 -10.3 8.0 -8.3 7.95 -11.65 5.0 -13.1" fill="#ffcc00" fill-rule="evenodd" stroke="none"/>
      <path d="M5.75 -7.2 L5.7 -7.1 Q6.75 -6.4 8.2 -7.55 L8.25 -7.6 7.9 -8.15 7.85 -8.0 Q6.7 -7.05 5.75 -7.2" fill="#fed343" fill-rule="evenodd" stroke="none"/>
      <path d="M8.25 -7.6 Q8.75 -8.9 7.75 -10.35 8.2 -8.85 7.9 -8.15 L8.25 -7.6" fill="#e4b001" fill-rule="evenodd" stroke="none"/>
      <path d="M7.75 -10.35 Q6.7 -9.45 5.75 -7.2 6.7 -7.05 7.85 -8.0 L7.9 -8.15 Q8.2 -8.85 7.75 -10.35" fill="#6c2206" fill-rule="evenodd" stroke="none"/>
      <path d="M2.95 -6.4 Q1.5 -5.9 -0.3 -6.35 1.55 -5.3 3.0 -5.95 L2.95 -6.4" fill="#fed343" fill-rule="evenodd" stroke="none"/>
      <path d="M2.95 -6.4 Q2.25 -8.3 0.2 -9.3 -1.3 -8.1 -0.35 -6.4 L-0.3 -6.35 Q1.5 -5.9 2.95 -6.4" fill="#6c2206" fill-rule="evenodd" stroke="none"/>
      <path d="M-4.4 -19.0 L-4.75 -19.15 -7.4 -20.15 -9.3 -21.65 -9.35 -21.65 -6.25 -16.05 -3.75 -16.55 -4.4 -19.0" fill="#8dc113" fill-rule="evenodd" stroke="none"/>
      <path d="M-4.4 -19.0 L-3.15 -18.2 -1.6 -19.0 -2.8 -21.3 -9.3 -21.65 -7.4 -20.15 -4.75 -19.15 -4.4 -19.0" fill="#bbe418" fill-rule="evenodd" stroke="none"/>
      <path d="M-9.3 -21.65 L-2.8 -21.3 -1.6 -19.0 -3.15 -18.2 -4.4 -19.0 -4.75 -19.15 -7.4 -20.15 -9.3 -21.65 -9.35 -21.65 -6.25 -16.05 -3.75 -16.55 -4.4 -19.0" fill="none" stroke="#000000" stroke-linecap="round" stroke-linejoin="round" stroke-opacity="0.3019608" stroke-width="0.05"/>
    </g>
  </defs>
</svg>
