<?xml version="1.0" encoding="UTF-8" standalone="no"?>
<svg xmlns:xlink="http://www.w3.org/1999/xlink" height="520.0px" width="520.0px" xmlns="http://www.w3.org/2000/svg">
  <g transform="matrix(10.0, 0.0, 0.0, 10.0, 0.0, 0.0)">
    <use height="52.0" transform="matrix(1.0, 0.0, 0.0, 1.0, 0.0, 0.0)" width="52.0" xlink:href="#shape0"/>
    <use height="43.6" transform="matrix(0.5678, 0.0, 0.0, 0.5678, 11.5181, 5.5517)" width="47.25" xlink:href="#sprite0"/>
    <use height="43.6" transform="matrix(0.2695, 0.0, 0.0, 0.2872, 5.1639, 26.7161)" width="47.25" xlink:href="#sprite0"/>
    <use height="43.6" transform="matrix(0.1361, 0.0, -0.0546, 0.2291, 31.6825, 24.0341)" width="47.25" xlink:href="#sprite0"/>
    <use height="43.6" transform="matrix(0.1361, 0.0, -0.0546, 0.2291, 41.4825, 20.9841)" width="47.25" xlink:href="#sprite0"/>
  </g>
  <defs>
    <g id="shape0" transform="matrix(1.0, 0.0, 0.0, 1.0, 0.0, 0.0)">
      <path d="M52.0 52.0 L0.0 52.0 0.0 0.0 52.0 0.0 52.0 52.0" fill="#43adca" fill-opacity="0.0" fill-rule="evenodd" stroke="none"/>
      <path d="M35.5 8.1 Q31.25 4.7 25.55 4.55 L25.3 4.55 23.85 4.45 23.65 4.7 Q20.05 4.95 17.3 6.6 15.4 7.7 13.8 9.6 9.35 14.55 9.15 18.85 L9.15 20.35 9.0 21.1 9.0 19.25 Q8.05 19.65 7.05 20.85 6.35 23.5 7.15 25.35 L7.75 25.65 7.95 25.75 6.2 29.85 5.35 33.9 5.15 34.4 5.7 38.85 11.8 41.2 16.65 39.8 17.0 38.25 18.0 39.2 Q19.85 40.65 21.85 41.55 L22.15 41.6 28.7 44.1 Q31.2 42.8 32.2 41.15 L32.4 41.05 32.5 41.0 Q35.0 39.05 38.5 32.3 L39.7 32.1 41.45 32.95 Q44.05 33.15 45.9 31.1 47.4 29.35 48.0 27.1 48.65 24.85 48.0 22.3 47.6 20.95 46.25 19.95 L44.6 18.9 43.25 18.75 43.15 18.7 42.25 18.0 41.75 17.8 Q40.65 13.15 37.15 9.6 L35.5 8.1 M29.45 35.35 L28.75 35.5 27.0 35.65 26.15 35.2 Q24.8 34.75 24.1 33.45 21.55 33.65 20.15 33.05 L18.5 32.3 17.95 33.15 17.85 33.65 17.85 33.7 18.65 35.45 19.75 37.2 20.05 37.7 22.15 39.75 25.6 42.05 Q28.55 42.75 30.65 40.5 L30.75 40.55 Q32.3 38.6 33.75 35.8 32.55 36.35 31.2 36.25 L30.25 35.9 29.45 35.35" fill="none" stroke="#000000" stroke-linecap="round" stroke-linejoin="round" stroke-opacity="0.3019608" stroke-width="1.5"/>
      <path d="M39.1 26.75 Q40.25 25.85 39.65 27.2 39.05 28.65 39.45 28.1 39.8 27.65 40.0 28.1 40.15 28.6 40.6 28.3 35.65 38.5 32.55 40.95 L29.45 41.95 Q33.65 38.0 36.5 28.95 37.8 24.85 37.85 26.3 37.95 27.6 39.1 26.75" fill="#3e2617" fill-rule="evenodd" stroke="none"/>
      <path d="M39.1 26.75 Q40.25 25.85 39.65 27.2 39.05 28.65 39.45 28.1 39.8 27.65 40.0 28.1 40.15 28.6 40.6 28.3 35.65 38.5 32.55 40.95 L29.45 41.95 Q33.65 38.0 36.5 28.95 37.8 24.85 37.85 26.3 37.95 27.6 39.1 26.75 Z" fill="none" stroke="#000000" stroke-linecap="round" stroke-linejoin="round" stroke-opacity="0.3019608" stroke-width="0.5"/>
      <path d="M12.0 31.3 L11.9 31.0 11.4 29.9 11.4 29.85 Q10.65 28.5 10.2 26.95 15.05 28.75 17.0 29.05 L17.2 30.7 17.2 30.75 17.25 31.1 17.9 33.6 12.0 31.3" fill="#301e14" fill-rule="evenodd" stroke="none"/>
      <path d="M13.95 34.65 L12.8 32.6 12.0 31.3 17.9 33.6 18.75 35.4 19.8 37.15 20.1 37.7 13.95 34.65" fill="#50321f" fill-rule="evenodd" stroke="none"/>
      <path d="M25.65 42.05 Q28.6 42.7 30.7 40.55 L32.6 40.85 32.3 41.15 Q31.25 42.8 28.8 44.1 L25.65 42.05 22.2 41.6 21.9 41.5 Q19.95 40.65 18.1 39.15 16.75 38.05 15.5 36.55 L15.2 36.2 14.4 35.25 13.95 34.65 20.1 37.7 22.2 39.75 25.65 42.05" fill="#684227" fill-rule="evenodd" stroke="none"/>
      <path d="M25.65 42.05 L28.8 44.1 22.2 41.6 25.65 42.05" fill="#3e2617" fill-rule="evenodd" stroke="none"/>
      <path d="M28.8 44.1 Q31.25 42.8 32.3 41.15 L32.6 40.85 30.7 40.55 Q28.6 42.7 25.65 42.05 L28.8 44.1 22.2 41.6 21.9 41.5 Q19.95 40.65 18.1 39.15 16.75 38.05 15.5 36.55 L15.2 36.2 14.4 35.25 13.95 34.65 12.8 32.6 12.0 31.3 M11.9 31.0 L11.4 29.9 11.4 29.85 Q10.65 28.5 10.2 26.95 M17.0 29.05 L17.2 30.7 17.2 30.75 17.25 31.1 17.9 33.6 18.75 35.4 19.8 37.15 20.1 37.7 22.2 39.75 25.65 42.05 22.2 41.6" fill="none" stroke="#000000" stroke-linecap="round" stroke-linejoin="round" stroke-opacity="0.3019608" stroke-width="0.5"/>
      <path d="M16.5 30.9 L16.5 28.5 17.1 28.5 20.25 28.35 Q23.0 28.95 24.45 27.15 25.9 25.2 26.65 25.2 L27.5 25.1 Q29.65 23.8 33.15 23.4 L33.8 23.4 39.1 23.9 41.25 25.1 41.75 26.05 41.75 26.3 41.75 26.95 Q41.5 28.0 39.6 29.2 37.25 30.4 33.9 30.9 L32.55 31.0 31.55 31.6 Q29.2 32.95 25.55 33.35 L20.1 33.05 Q18.3 32.35 17.0 31.4 L16.5 30.9" fill="#886f55" fill-rule="evenodd" stroke="none"/>
      <path d="M33.8 23.4 L39.1 23.9 41.25 25.1 41.75 26.05 41.75 26.3 41.75 26.95 Q41.5 28.0 39.6 29.2 37.25 30.4 33.9 30.9 L32.55 31.0 31.55 31.6 Q29.2 32.95 25.55 33.35 L20.1 33.05 Q18.3 32.35 17.0 31.4 L16.5 30.9" fill="none" stroke="#000000" stroke-linecap="round" stroke-linejoin="round" stroke-opacity="0.3019608" stroke-width="0.5"/>
      <path d="M25.55 4.6 Q28.6 5.0 31.05 6.5 37.5 9.9 34.75 17.5 L28.95 19.0 26.9 18.85 Q18.8 15.05 17.05 10.0 19.7 7.35 23.65 4.7 L23.85 4.5 25.55 4.6 M5.35 33.95 L5.45 33.45 6.2 29.85 6.85 28.25 Q10.85 28.5 16.95 31.0 L17.05 31.15 15.3 35.95 15.4 38.7 12.9 40.1 10.0 39.1 10.0 34.7 8.45 38.3 Q5.8 36.7 5.35 33.95" fill="#cfac5f" fill-rule="evenodd" stroke="none"/>
      <path d="M23.65 4.7 Q19.7 7.35 17.05 10.0 18.8 15.05 26.9 18.85 L28.95 19.0 34.75 17.5 Q37.5 9.9 31.05 6.5 28.6 5.0 25.55 4.6 31.25 4.7 35.5 8.15 40.55 19.8 35.05 30.25 L29.45 31.65 29.45 29.35 Q32.75 26.45 33.25 25.45 27.45 27.5 23.25 25.45 L21.2 24.15 20.45 22.65 Q14.9 26.6 8.95 23.7 L8.6 23.55 9.1 20.4 9.1 18.85 Q9.35 14.6 13.8 9.65 15.4 7.75 17.3 6.6 20.05 5.0 23.65 4.7 M18.7 31.9 L17.95 33.15 17.2 37.2 17.05 37.85 16.65 39.85 11.8 41.25 5.7 38.85 5.15 34.4 5.35 33.95 Q5.8 36.7 8.45 38.3 L10.0 34.7 10.0 39.1 12.9 40.1 15.4 38.7 15.3 35.95 17.05 31.15 18.7 31.9" fill="#b08235" fill-rule="evenodd" stroke="none"/>
      <path d="M8.6 23.55 L8.95 23.7 Q14.9 26.6 20.45 22.65 L21.2 24.15 23.25 25.45 Q27.45 27.5 33.25 25.45 32.75 26.45 29.45 29.35 L29.45 31.65 25.65 32.5 18.95 31.4 18.7 31.9 17.05 31.15 16.95 31.0 Q10.85 28.5 6.85 28.25 L8.35 24.7 8.45 24.45 8.6 23.55 M35.05 30.25 Q40.55 19.8 35.5 8.15 L37.15 9.65 Q41.2 13.7 41.95 19.25 L42.1 21.7 41.95 24.15 41.8 24.7 38.15 29.5 35.05 30.25 M21.2 27.1 L18.95 31.4 21.2 27.1" fill="#8f622c" fill-rule="evenodd" stroke="none"/>
      <path d="M41.95 19.25 L43.1 22.05 43.7 26.25 43.5 31.0 41.95 24.15 42.1 21.7 41.95 19.25" fill="#956d2d" fill-rule="evenodd" stroke="none"/>
      <path d="M23.65 4.7 Q20.05 5.0 17.3 6.6 15.4 7.75 13.8 9.65 9.35 14.6 9.1 18.85 L9.1 20.4 8.6 23.55 M29.45 31.65 L35.05 30.25 M35.5 8.15 Q31.25 4.7 25.55 4.6 L23.85 4.5 23.65 4.7 M35.5 8.15 L37.15 9.65 Q41.2 13.7 41.95 19.25 L43.1 22.05 43.7 26.25 43.5 31.0 41.95 24.15 41.8 24.7 38.15 29.5 35.05 30.25 M41.95 19.25 L42.1 21.7 41.95 24.15 M29.45 31.65 L25.65 32.5 18.95 31.4 18.7 31.9 17.95 33.15 17.2 37.2 M17.05 37.85 L16.65 39.85 11.8 41.25 5.7 38.85 5.15 34.4 5.35 33.95 M5.45 33.45 L6.2 29.85 6.85 28.25 8.35 24.7 8.45 24.45 8.6 23.55 M18.95 31.4 L21.2 27.1" fill="none" stroke="#000000" stroke-linecap="round" stroke-linejoin="round" stroke-opacity="0.3019608" stroke-width="0.5"/>
      <path d="M10.55 32.65 L10.55 29.85 12.3 25.3 12.55 24.8 14.3 13.4 20.25 6.45" fill="none" stroke="#000000" stroke-linecap="round" stroke-linejoin="round" stroke-opacity="0.2" stroke-width="0.05"/>
      <path d="M31.25 21.85 L36.65 15.8 27.0 12.3 31.05 8.8 Q27.3 6.7 22.35 5.9 L25.25 4.55" fill="none" stroke="#000000" stroke-linecap="round" stroke-linejoin="round" stroke-opacity="0.2" stroke-width="0.05"/>
      <path d="M40.85 23.55 L44.2 23.65 44.2 21.0 39.05 21.1 40.85 23.55" fill="#61401f" fill-rule="evenodd" stroke="none"/>
      <path d="M40.85 23.55 L44.2 23.65 44.2 21.0 39.05 21.1 40.85 23.55 Z" fill="none" stroke="#2d2100" stroke-linecap="round" stroke-linejoin="round" stroke-width="0.05"/>
      <path d="M42.25 18.05 L43.25 18.8 43.0 18.9 Q41.35 17.65 39.9 18.2 L39.25 18.85 Q39.1 18.8 38.9 19.1 L38.6 19.2 37.5 20.3 36.85 21.1 36.5 21.6 35.9 22.75 Q35.55 23.75 35.35 24.8 L35.15 26.35 35.1 27.5 35.15 28.3 Q35.3 29.55 36.1 30.55 L37.0 31.65 37.1 31.7 Q37.95 32.3 38.95 32.3 L37.3 32.45 Q36.05 31.6 35.45 30.4 35.05 29.6 34.9 28.5 34.65 27.55 34.75 26.25 L34.85 24.7 35.1 24.0 36.1 21.5 36.4 20.9 37.0 20.45 37.15 20.1 38.3 18.9 38.6 18.7 39.6 18.0 40.4 17.85 42.25 18.05 M44.55 18.9 L46.25 20.0 Q47.6 20.95 48.0 22.35 48.65 24.9 48.0 27.15 47.4 29.35 45.85 31.1 44.05 33.15 41.45 33.0 L40.65 32.5 40.1 32.0 40.0 31.6 39.4 30.6 39.05 28.7 39.05 27.8 39.0 26.9 39.2 26.75 39.25 25.15 39.8 23.5 39.8 23.4 40.2 22.5 41.0 21.5 Q41.05 21.25 41.2 21.3 41.85 20.2 42.9 19.85 L43.25 19.5 43.6 19.5 44.55 18.9 M41.55 32.15 Q42.85 32.7 44.2 31.9 L45.55 30.85 45.7 30.6 46.35 29.75 46.7 28.95 46.95 28.55 47.5 27.6 47.75 25.05 47.75 24.0 47.55 22.5 Q47.25 21.2 46.2 20.55 L46.05 20.4 45.9 20.2 45.45 20.1 44.1 20.25 43.5 20.5 43.5 20.6 43.25 20.7 Q42.4 21.1 41.85 21.75 L41.75 21.75 Q41.05 22.7 40.5 23.9 40.25 24.15 40.35 24.5 L40.1 24.55 40.1 25.2 39.7 26.3 39.65 27.05 39.6 28.6 39.65 29.55 40.0 30.0 40.25 30.75 40.45 31.2 40.9 31.65 41.2 31.9 41.55 32.15" fill="#dbdbdb" fill-rule="evenodd" stroke="none"/>
      <path d="M34.75 20.8 L37.0 18.35 37.1 18.35 38.6 18.7 38.3 18.9 37.15 20.1 37.0 20.45 36.4 20.9 34.75 20.8 M45.9 20.2 L46.05 20.4 46.2 20.55 Q47.25 21.2 47.55 22.5 L47.75 24.0 47.75 25.05 47.5 27.6 46.95 28.55 46.7 28.95 46.35 29.75 45.7 30.6 45.55 30.85 44.2 31.9 Q42.85 32.7 41.55 32.15 L43.8 31.8 45.0 30.95 45.15 30.75 45.5 30.3 45.85 29.65 46.05 29.55 46.6 28.5 46.9 27.7 46.9 27.4 Q47.35 26.05 47.25 25.0 L47.45 24.8 47.4 23.65 47.05 22.5 46.95 22.15 Q46.65 20.9 45.8 20.45 L45.9 20.2 M42.1 19.35 L43.25 19.5 42.9 19.85 Q41.85 20.2 41.2 21.3 41.05 21.25 41.0 21.5 L39.7 21.15 40.0 20.75 40.05 20.65 40.4 20.45 41.55 19.45 42.1 19.35" fill="#aea780" fill-rule="evenodd" stroke="none"/>
      <path d="M41.45 33.0 L39.7 32.15 Q39.55 31.8 39.2 31.6 38.45 30.9 38.3 30.2 L39.4 30.6 40.0 31.6 40.1 32.0 40.65 32.5 41.45 33.0 M37.3 32.45 L36.4 32.05 Q35.1 31.4 34.25 30.1 L35.45 30.4 Q36.05 31.6 37.3 32.45" fill="#cccccc" fill-rule="evenodd" stroke="none"/>
      <path d="M33.35 26.0 L33.45 25.15 Q34.0 22.85 34.75 20.8 L36.4 20.9 36.1 21.5 35.1 24.0 34.85 24.7 34.75 26.25 33.35 26.0 M41.0 21.5 L40.2 22.5 39.8 23.4 39.8 23.5 39.25 25.15 39.2 26.75 39.0 26.9 37.75 26.4 37.85 25.35 38.1 25.05 Q38.15 24.0 38.6 23.1 L38.95 22.45 39.65 21.25 39.7 21.15 41.0 21.5" fill="#c7c1a5" fill-rule="evenodd" stroke="none"/>
      <path d="M43.25 18.8 L44.55 18.9 43.6 19.5 43.25 19.5 42.1 19.35 42.3 19.15 43.0 18.9 43.25 18.8 M37.1 18.35 Q37.5 18.1 37.95 17.9 L42.25 18.05 40.4 17.85 39.6 18.0 38.6 18.7 37.1 18.35" fill="#857c54" fill-rule="evenodd" stroke="none"/>
      <path d="M39.7 32.15 L38.95 32.3 Q37.95 32.3 37.1 31.7 L37.0 31.65 36.1 30.55 Q35.3 29.55 35.15 28.3 L37.75 28.7 37.85 28.8 37.9 29.6 38.3 30.2 Q38.45 30.9 39.2 31.6 39.55 31.8 39.7 32.15" fill="#53381a" fill-rule="evenodd" stroke="none"/>
      <path d="M34.25 30.1 L33.9 28.9 33.35 26.0 34.75 26.25 Q34.65 27.55 34.9 28.5 35.05 29.6 35.45 30.4 L34.25 30.1 M39.0 26.9 L39.05 27.8 39.05 28.7 39.4 30.6 38.3 30.2 37.9 29.6 37.85 28.8 37.75 28.7 37.75 28.35 37.75 26.4 39.0 26.9" fill="#d6d6d6" fill-rule="evenodd" stroke="none"/>
      <path d="M35.35 24.8 L37.85 25.35 37.75 26.4 37.75 28.35 37.75 28.7 35.15 28.3 35.1 27.5 35.15 26.35 35.35 24.8" fill="#825928" fill-rule="evenodd" stroke="none"/>
      <path d="M35.35 24.8 Q35.55 23.75 35.9 22.75 L36.5 21.6 38.95 22.45 38.6 23.1 Q38.15 24.0 38.1 25.05 L37.85 25.35 35.35 24.8" fill="#8f692c" fill-rule="evenodd" stroke="none"/>
      <path d="M38.6 19.2 L40.4 20.45 40.05 20.65 40.0 20.75 39.7 21.15 39.65 21.25 38.95 22.45 36.5 21.6 36.85 21.1 37.5 20.3 38.6 19.2" fill="#745523" fill-rule="evenodd" stroke="none"/>
      <path d="M38.6 19.2 L38.9 19.1 Q39.1 18.8 39.25 18.85 L39.9 18.2 41.55 19.45 40.4 20.45 38.6 19.2" fill="#705401" fill-rule="evenodd" stroke="none"/>
      <path d="M43.0 18.9 L42.3 19.15 42.1 19.35 41.55 19.45 39.9 18.2 Q41.35 17.65 43.0 18.9" fill="#5a4301" fill-rule="evenodd" stroke="none"/>
      <path d="M45.9 20.2 L45.8 20.45 Q46.65 20.9 46.95 22.15 L47.05 22.5 47.4 23.65 47.45 24.8 47.25 25.0 Q47.35 26.05 46.9 27.4 L46.9 27.7 46.6 28.5 46.05 29.55 45.85 29.65 45.5 30.3 45.15 30.75 45.0 30.95 43.8 31.8 41.55 32.15 41.2 31.9 40.9 31.65 40.45 31.2 40.25 30.75 40.0 30.0 41.15 29.65 Q42.75 28.25 43.5 25.3 44.15 22.5 43.5 20.6 L43.5 20.5 44.1 20.25 45.45 20.1 45.9 20.2" fill="#677058" fill-rule="evenodd" stroke="none"/>
      <path d="M40.0 30.0 L39.65 29.55 39.6 28.6 39.65 27.05 39.7 26.3 40.1 25.2 40.1 24.55 40.35 24.5 Q40.25 24.15 40.5 23.9 41.05 22.7 41.75 21.75 L41.85 21.75 Q42.4 21.1 43.25 20.7 L43.5 20.6 Q44.15 22.5 43.5 25.3 42.75 28.25 41.15 29.65 L40.0 30.0" fill="#475a48" fill-rule="evenodd" stroke="none"/>
      <path d="M42.25 18.05 L43.25 18.8 44.55 18.9 46.25 20.0 Q47.6 20.95 48.0 22.35 48.65 24.9 48.0 27.15 47.4 29.35 45.85 31.1 44.05 33.15 41.45 33.0 L39.7 32.15 38.95 32.3 37.3 32.45 36.4 32.05 Q35.1 31.4 34.25 30.1 L33.9 28.9 33.35 26.0 33.45 25.15 Q34.0 22.85 34.75 20.8 L37.0 18.35 M37.1 18.35 Q37.5 18.1 37.95 17.9 L42.25 18.05 M43.0 18.9 L43.25 18.8" fill="none" stroke="#000000" stroke-linecap="round" stroke-linejoin="round" stroke-opacity="0.3019608" stroke-width="0.5"/>
      <path d="M47.35 25.4 Q47.6 23.4 47.05 22.1 L39.8 28.65 Q40.05 30.55 41.75 32.05 L47.35 25.4" fill="#9dc6b6" fill-rule="evenodd" stroke="none"/>
      <path d="M32.05 21.3 L33.0 22.05 32.75 22.15 Q31.7 21.6 30.4 21.5 L29.65 21.45 28.35 22.4 26.25 24.8 25.1 28.05 24.8 30.6 24.85 31.55 Q25.5 34.6 28.15 35.35 L28.75 35.55 27.0 35.65 25.85 34.45 25.2 33.6 24.55 30.7 24.45 29.5 Q24.8 27.05 25.7 25.05 L26.15 24.15 28.35 21.85 30.15 21.05 32.05 21.3 M34.25 22.15 Q36.85 23.1 37.65 25.65 38.35 27.95 37.7 30.3 37.1 32.7 35.65 34.35 33.85 36.4 31.2 36.25 L30.4 35.65 29.2 33.85 29.0 32.9 28.8 30.1 28.95 28.3 29.4 27.6 30.75 24.75 31.3 24.2 Q31.95 23.35 32.95 22.75 L34.25 22.15 M36.0 24.0 L35.75 23.65 35.65 23.45 33.85 23.45 33.2 23.85 Q30.8 25.2 29.95 27.85 29.25 30.1 29.5 32.45 L29.75 33.2 Q30.1 34.65 31.35 35.3 L31.7 35.5 32.55 35.55 Q34.8 35.4 36.1 33.0 L37.15 31.1 Q37.6 30.15 37.65 29.2 37.85 26.85 36.55 24.9 L36.0 24.0" fill="#dbdbdb" fill-rule="evenodd" stroke="none"/>
      <path d="M24.5 23.95 L26.75 21.55 26.85 21.6 28.35 21.85 26.15 24.15 24.5 23.95 M31.9 22.55 L32.95 22.75 Q31.95 23.35 31.3 24.2 L30.75 24.75 29.4 24.4 30.1 23.65 31.3 22.65 31.9 22.55 M32.55 35.55 L33.9 34.85 Q35.55 33.2 36.35 31.15 37.1 29.05 36.95 26.9 36.8 25.35 36.0 24.0 L36.55 24.9 Q37.85 26.85 37.65 29.2 37.6 30.15 37.15 31.1 L36.1 33.0 Q34.8 35.4 32.55 35.55" fill="#aea780" fill-rule="evenodd" stroke="none"/>
      <path d="M31.2 36.25 L30.25 35.95 29.45 35.4 28.05 33.45 29.2 33.85 30.4 35.65 31.2 36.25 M27.0 35.65 L26.15 35.25 Q24.7 34.75 23.95 33.3 L25.2 33.6 25.85 34.45 27.0 35.65" fill="#cccccc" fill-rule="evenodd" stroke="none"/>
      <path d="M23.1 29.2 L23.2 28.45 Q23.7 26.2 24.5 23.95 L26.15 24.15 25.7 25.05 Q24.8 27.05 24.45 29.5 L23.1 29.2 M30.75 24.75 L29.4 27.6 28.95 28.3 28.8 30.1 27.45 29.65 27.6 28.6 28.65 25.6 29.4 24.4 30.75 24.75" fill="#c7c1a5" fill-rule="evenodd" stroke="none"/>
      <path d="M33.0 22.05 L34.25 22.15 32.95 22.75 31.9 22.55 32.05 22.35 32.75 22.15 33.0 22.05 M26.85 21.6 L27.8 20.95 28.55 20.85 Q30.5 20.3 32.05 21.3 L30.15 21.05 28.35 21.85 26.85 21.6" fill="#857c54" fill-rule="evenodd" stroke="none"/>
      <path d="M29.45 35.4 L28.75 35.55 28.15 35.35 Q25.5 34.6 24.85 31.55 L27.5 32.0 28.05 33.45 29.45 35.4" fill="#53381a" fill-rule="evenodd" stroke="none"/>
      <path d="M23.95 33.3 L23.6 32.1 Q23.2 30.7 23.1 29.2 L24.45 29.5 24.55 30.7 25.2 33.6 23.95 33.3 M28.8 30.1 L29.0 32.9 29.2 33.85 28.05 33.45 27.5 32.0 27.45 29.65 28.8 30.1" fill="#d6d6d6" fill-rule="evenodd" stroke="none"/>
      <path d="M27.45 29.65 L27.5 32.0 24.85 31.55 24.8 30.6 25.1 28.05 27.6 28.6 27.45 29.65" fill="#825928" fill-rule="evenodd" stroke="none"/>
      <path d="M26.25 24.8 L28.65 25.6 27.6 28.6 25.1 28.05 26.25 24.8" fill="#8f692c" fill-rule="evenodd" stroke="none"/>
      <path d="M30.1 23.65 L29.4 24.4 28.65 25.6 26.25 24.8 28.35 22.4 30.1 23.65" fill="#745523" fill-rule="evenodd" stroke="none"/>
      <path d="M29.65 21.45 L31.3 22.65 30.1 23.65 28.35 22.4 29.65 21.45" fill="#705401" fill-rule="evenodd" stroke="none"/>
      <path d="M32.75 22.15 L32.05 22.35 31.9 22.55 31.3 22.65 29.65 21.45 30.4 21.5 Q31.7 21.6 32.75 22.15" fill="#5a4301" fill-rule="evenodd" stroke="none"/>
      <path d="M33.2 23.85 L33.85 23.45 35.65 23.45 35.75 23.65 36.0 24.0 Q36.8 25.35 36.95 26.9 37.1 29.05 36.35 31.15 35.55 33.2 33.9 34.85 L32.55 35.55 31.7 35.5 31.35 35.3 Q30.1 34.65 29.75 33.2 L30.75 32.7 Q32.7 31.0 33.25 28.35 33.8 25.95 33.2 23.85" fill="#677058" fill-rule="evenodd" stroke="none"/>
      <path d="M33.2 23.85 Q33.8 25.95 33.25 28.35 32.7 31.0 30.75 32.7 L29.75 33.2 29.5 32.45 Q29.25 30.1 29.95 27.85 30.8 25.2 33.2 23.85" fill="#475a48" fill-rule="evenodd" stroke="none"/>
      <path d="M32.05 21.3 L33.0 22.05 34.25 22.15 Q36.85 23.1 37.65 25.65 38.35 27.95 37.7 30.3 37.1 32.7 35.65 34.35 33.85 36.4 31.2 36.25 L30.25 35.95 29.45 35.4 28.75 35.55 27.0 35.65 26.15 35.25 Q24.7 34.75 23.95 33.3 L23.6 32.1 Q23.2 30.7 23.1 29.2 L23.2 28.45 Q23.7 26.2 24.5 23.95 L26.75 21.55 M26.85 21.6 L27.8 20.95 28.55 20.85 Q30.5 20.3 32.05 21.3 M33.0 22.05 L32.75 22.15" fill="none" stroke="#000000" stroke-linecap="round" stroke-linejoin="round" stroke-opacity="0.3019608" stroke-width="0.5"/>
      <path d="M29.55 32.1 Q29.85 33.9 31.35 35.2 L37.15 28.6 Q37.35 27.0 37.0 25.85 L29.55 32.1" fill="#9dc6b6" fill-rule="evenodd" stroke="none"/>
      <path d="M17.0 29.9 Q14.45 29.2 11.8 28.0 L10.1 27.05 7.75 25.7 7.15 25.35 Q6.35 23.5 7.05 20.85 8.05 19.65 9.0 19.3 L9.0 22.15 Q9.7 22.8 10.7 23.3 L12.35 24.0 Q15.6 25.7 19.35 26.45 L20.45 26.55 Q16.6 28.25 17.0 29.9" fill="#986330" fill-rule="evenodd" stroke="none"/>
      <path d="M17.0 29.9 Q16.6 28.25 20.45 26.55 L23.25 26.75 24.45 26.75 23.8 30.85 20.85 30.7 17.0 29.9" fill="#64431c" fill-rule="evenodd" stroke="none"/>
      <path d="M20.45 26.55 L19.35 26.45 Q15.6 25.7 12.35 24.0 L10.7 23.3 Q9.7 22.8 9.0 22.15 L9.0 19.3 Q8.05 19.65 7.05 20.85 6.35 23.5 7.15 25.35 L7.75 25.7 10.1 27.05 11.8 28.0 Q14.45 29.2 17.0 29.9 M20.45 26.55 L23.25 26.75 24.45 26.75 23.8 30.85 20.85 30.7 17.0 29.9" fill="none" stroke="#000000" stroke-linecap="round" stroke-linejoin="round" stroke-opacity="0.3019608" stroke-width="0.5"/>
      <path d="M11.95 32.95 Q11.25 26.4 9.7 29.1 10.35 26.4 11.4 26.2 12.05 28.15 11.95 32.95" fill="#000000" fill-opacity="0.3019608" fill-rule="evenodd" stroke="none"/>
      <path d="M9.7 29.1 L9.3 33.4 M9.7 29.1 Q10.35 26.4 11.4 26.2 12.05 28.15 11.95 32.95" fill="none" stroke="#000000" stroke-linecap="round" stroke-linejoin="round" stroke-opacity="0.3019608" stroke-width="0.5"/>
      <path d="M16.55 18.45 Q14.65 22.6 12.95 23.55 11.55 22.15 11.85 19.25 12.8 23.15 16.55 18.45" fill="#000000" fill-opacity="0.3019608" fill-rule="evenodd" stroke="none"/>
      <path d="M11.85 19.25 Q11.55 22.15 12.95 23.55 14.65 22.6 16.55 18.45 M11.85 19.25 L12.9 15.05" fill="none" stroke="#000000" stroke-linecap="round" stroke-linejoin="round" stroke-opacity="0.3019608" stroke-width="0.5"/>
      <path d="M13.4 21.75 Q11.3 24.75 11.6 29.2 L9.65 28.45 Q8.95 22.85 11.45 20.95 L13.4 21.75" fill="#64431c" fill-rule="evenodd" stroke="none"/>
      <path d="M13.4 21.75 L11.45 20.95 Q8.95 22.85 9.65 28.45 L11.6 29.2 Q11.3 24.75 13.4 21.75 Z" fill="none" stroke="#000000" stroke-linecap="round" stroke-linejoin="round" stroke-opacity="0.3019608" stroke-width="0.5"/>
    </g>
    <g id="sprite0" transform="matrix(1.0, 0.0, 0.0, 1.0, 22.95, 18.4)">
      <use height="43.6" transform="matrix(1.0, 0.0, 0.0, 1.0, -22.95, -18.4)" width="47.25" xlink:href="#shape1"/>
    </g>
    <g id="shape1" transform="matrix(1.0, 0.0, 0.0, 1.0, 22.95, 18.4)">
      <path d="M12.15 -15.1 Q19.6 -11.05 22.65 -3.4 26.15 5.15 22.15 13.15 18.15 21.25 9.0 24.05 -0.1 26.85 -9.05 22.8 -17.9 18.75 -21.4 10.2 -24.8 1.65 -20.8 -6.35 L-20.8 -6.4 Q-16.8 -14.45 -7.7 -17.25 1.45 -20.05 10.3 -16.0 L12.15 -15.1" fill="url(#gradient0)" fill-rule="evenodd" stroke="none"/>
    </g>
    <radialGradient cx="0" cy="0" gradientTransform="matrix(0.0291, 0.0, 0.0, 0.0291, 0.6, 3.4)" gradientUnits="userSpaceOnUse" id="gradient0" r="819.2" spreadMethod="pad">
      <stop offset="0.0" stop-color="#ffffff"/>
      <stop offset="1.0" stop-color="#ffffff" stop-opacity="0.0"/>
    </radialGradient>
  </defs>
</svg>
