<?xml version="1.0" encoding="UTF-8" standalone="no"?>
<svg xmlns:xlink="http://www.w3.org/1999/xlink" height="440.0px" width="440.0px" xmlns="http://www.w3.org/2000/svg">
  <g transform="matrix(10.0, 0.0, 0.0, 10.0, 0.0, 0.0)">
    <use height="44.0" transform="matrix(0.9091, 0.0, 0.0, 0.9091, 2.0, 2.0)" width="44.0" xlink:href="#sprite0"/>
  </g>
  <defs>
    <g id="sprite0" transform="matrix(1.0, 0.0, 0.0, 1.0, 0.0, 0.0)">
      <use height="44.0" transform="matrix(1.0, 0.0, 0.0, 1.0, 0.0, 0.0)" width="44.0" xlink:href="#shape0"/>
      <use height="26.4" transform="matrix(1.273, 0.0, 0.0, 1.273, 2.95, 5.1863)" width="29.85" xlink:href="#sprite1"/>
    </g>
    <g id="shape0" transform="matrix(1.0, 0.0, 0.0, 1.0, 0.0, 0.0)">
      <path d="M44.0 44.0 L0.0 44.0 0.0 0.0 44.0 0.0 44.0 44.0" fill="#43adca" fill-opacity="0.0" fill-rule="evenodd" stroke="none"/>
    </g>
    <g id="sprite1" transform="matrix(1.0, 0.0, 0.0, 1.0, 0.0, 0.05)">
      <use height="26.4" transform="matrix(1.0, 0.0, 0.0, 1.0, 0.0, -0.05)" width="29.85" xlink:href="#sprite2"/>
    </g>
    <g id="sprite2" transform="matrix(1.0, 0.0, 0.0, 1.0, 19.65, 28.55)">
      <use height="9.9" transform="matrix(-0.3304, 0.4618, 0.3096, 0.6711, -2.6828, -24.0222)" width="2.1" xlink:href="#shape1"/>
      <use height="9.9" transform="matrix(-0.1657, 0.4355, 0.2699, 0.3674, -2.6361, -20.6686)" width="2.1" xlink:href="#shape1"/>
      <use height="9.9" transform="matrix(-0.3665, 0.1888, 0.1616, 0.6954, -1.0997, -23.9421)" width="2.1" xlink:href="#shape1"/>
      <use height="9.9" transform="matrix(-0.4293, -0.3755, -0.1461, 0.7242, 3.6233, -23.785)" width="2.1" xlink:href="#shape1"/>
      <use height="9.9" transform="matrix(-0.3166, -0.1195, -0.0193, 0.5579, 1.9953, -22.6116)" width="2.1" xlink:href="#shape1"/>
      <use height="9.9" transform="matrix(-0.3154, -0.5256, -0.2477, 0.4943, 4.5262, -21.2469)" width="2.1" xlink:href="#shape1"/>
      <use height="9.9" transform="matrix(-0.6453, 0.245, 0.2354, 1.2112, -0.8153, -28.4454)" width="2.1" xlink:href="#shape1"/>
      <use height="9.9" transform="matrix(-0.3918, 0.389, 0.278, 0.7718, -1.8762, -24.1702)" width="2.1" xlink:href="#shape1"/>
      <use height="9.9" transform="matrix(-0.6074, -0.1505, 0.0074, 1.0825, 1.5134, -26.7082)" width="2.1" xlink:href="#shape1"/>
      <use height="9.9" transform="matrix(-0.3204, 0.6953, 0.4394, 0.6882, -3.5748, -20.7564)" width="2.1" xlink:href="#shape1"/>
      <use height="9.9" transform="matrix(-0.1349, 0.5961, 0.3556, 0.3358, -3.16, -16.712)" width="2.1" xlink:href="#shape1"/>
      <use height="9.9" transform="matrix(-0.3961, 0.3785, 0.2728, 0.778, -1.8502, -21.3009)" width="2.1" xlink:href="#shape1"/>
      <use height="9.9" transform="matrix(-0.5392, -0.2806, -0.0761, 0.9385, 3.6768, -22.8457)" width="2.1" xlink:href="#shape1"/>
      <use height="9.9" transform="matrix(-0.3778, -0.0159, 0.0482, 0.685, 1.9112, -20.8405)" width="2.1" xlink:href="#shape1"/>
      <use height="9.9" transform="matrix(-0.4276, -0.5091, -0.2215, 0.701, 4.9964, -20.2198)" width="2.1" xlink:href="#shape1"/>
      <use height="9.9" transform="matrix(-0.7084, 0.5605, 0.4223, 1.3738, -1.9906, -26.7004)" width="2.1" xlink:href="#shape1"/>
      <use height="9.9" transform="matrix(-0.3998, 0.6319, 0.4158, 0.8232, -2.7081, -21.5747)" width="2.1" xlink:href="#shape1"/>
      <use height="9.9" transform="matrix(-0.7149, 0.0652, 0.1449, 1.3106, 0.8328, -25.5877)" width="2.1" xlink:href="#shape1"/>
      <use height="9.9" transform="matrix(0.9265, -0.6194, 0.6194, 0.9265, -11.9658, -26.4359)" width="2.1" xlink:href="#shape1"/>
      <use height="9.9" transform="matrix(0.7394, -0.2466, 0.2466, 0.7394, -7.4709, -25.3599)" width="2.1" xlink:href="#shape1"/>
      <use height="9.9" transform="matrix(0.5916, -0.7883, 0.7883, 0.5916, -13.3521, -22.8286)" width="2.1" xlink:href="#shape1"/>
      <use height="9.9" transform="matrix(-0.1109, -1.1104, 1.1104, -0.1109, -17.3965, -11.751)" width="2.1" xlink:href="#shape1"/>
      <use height="9.9" transform="matrix(0.1303, -0.7695, 0.7695, 0.1303, -14.3092, -15.2452)" width="2.1" xlink:href="#shape1"/>
      <use height="9.9" transform="matrix(-0.4179, -0.8941, 0.8941, -0.4179, -14.876, -8.8815)" width="2.1" xlink:href="#shape1"/>
      <use height="9.9" transform="matrix(0.9241, -1.4154, 1.4154, 0.9241, -19.6563, -23.5241)" width="2.1" xlink:href="#shape1"/>
      <use height="9.9" transform="matrix(0.8848, -0.7841, 0.7841, 0.8848, -12.7811, -24.73)" width="2.1" xlink:href="#shape1"/>
      <use height="9.9" transform="matrix(0.3564, -1.4519, 1.4519, 0.3564, -19.3868, -17.7141)" width="2.1" xlink:href="#shape1"/>
      <use height="9.9" transform="matrix(1.2318, -0.5229, 0.5229, 1.2318, -6.5883, -27.3472)" width="2.1" xlink:href="#shape1"/>
      <use height="9.9" transform="matrix(0.9275, -0.1252, 0.1252, 0.9275, -1.6195, -25.0412)" width="2.1" xlink:href="#shape1"/>
      <use height="9.9" transform="matrix(0.8747, -0.7972, 0.7972, 0.8747, -9.0963, -23.3796)" width="2.1" xlink:href="#shape1"/>
      <use height="9.9" transform="matrix(0.1181, -1.3348, 1.3348, 0.1181, -16.2572, -11.2346)" width="2.1" xlink:href="#shape1"/>
      <use height="9.9" transform="matrix(0.3263, -0.8786, 0.8786, 0.3263, -11.9488, -14.565)" width="2.1" xlink:href="#shape1"/>
      <use height="9.9" transform="matrix(-0.2925, -1.1484, 1.1484, -0.2925, -13.8847, -7.2521)" width="2.1" xlink:href="#shape1"/>
      <use height="9.9" transform="matrix(1.4074, -1.4625, 1.4625, 1.4074, -16.2395, -25.4665)" width="2.1" xlink:href="#shape1"/>
      <use height="9.9" transform="matrix(1.2196, -0.7265, 0.7265, 1.2196, -7.9464, -25.3868)" width="2.1" xlink:href="#shape1"/>
      <use height="9.9" transform="matrix(0.7459, -1.6328, 1.6328, 0.7459, -17.2323, -18.5422)" width="2.1" xlink:href="#shape1"/>
      <use height="16.05" transform="matrix(1.0, 0.0, 0.0, 1.0, -5.45, -18.2)" width="15.65" xlink:href="#shape2"/>
    </g>
    <g id="shape1" transform="matrix(1.0, 0.0, 0.0, 1.0, 0.0, 4.95)">
      <path d="M1.8 -3.5 L2.1 0.0 1.8 3.5 Q1.5 4.95 1.05 4.95 0.6 4.95 0.3 3.5 0.0 2.05 0.0 0.0 0.0 -2.05 0.3 -3.5 0.6 -4.95 1.05 -4.95 1.5 -4.95 1.8 -3.5" fill="#1f1301" fill-rule="evenodd" stroke="none"/>
      <path d="M1.6 -0.75 L1.8 1.5 1.6 3.75 Q1.4 4.65 1.1 4.65 0.8 4.65 0.6 3.75 0.45 2.8 0.45 1.5 0.45 0.15 0.6 -0.75 0.8 -1.7 1.1 -1.7 1.4 -1.7 1.6 -0.75" fill="#180c01" fill-rule="evenodd" stroke="none"/>
    </g>
    <g id="shape2" transform="matrix(1.0, 0.0, 0.0, 1.0, 5.45, 18.2)">
      <path d="M6.7 -14.2 L6.9 -14.0 7.3 -13.15 6.5 -12.85 6.2 -13.35 6.1 -13.5 6.05 -13.6 6.7 -14.2" fill="#d4c7a7" fill-rule="evenodd" stroke="none"/>
      <path d="M6.7 -14.2 L6.05 -13.6 5.4 -14.3 5.0 -14.55 4.35 -14.8 4.1 -14.85 3.95 -14.85 3.7 -14.85 3.25 -14.75 3.25 -14.8 Q3.95 -15.4 4.75 -15.3 L5.15 -15.3 Q6.1 -15.1 6.7 -14.2 M6.5 -12.85 L7.3 -13.15 7.55 -11.8 7.55 -11.65 Q7.5 -10.35 6.7 -9.65 6.35 -9.35 6.0 -9.2 L6.35 -9.65 Q6.75 -10.25 6.75 -11.15 L6.75 -11.9 6.5 -12.85" fill="#83795c" fill-rule="evenodd" stroke="none"/>
      <path d="M6.05 -13.6 L6.1 -13.5 6.2 -13.35 6.5 -12.85 6.75 -11.9 6.75 -11.15 Q6.75 -10.25 6.35 -9.65 L6.0 -9.2 5.9 -9.15 Q5.1 -8.45 4.05 -8.7 3.0 -8.95 2.25 -9.95 1.55 -11.05 1.6 -12.35 1.7 -13.6 2.45 -14.3 L3.25 -14.75 3.7 -14.85 3.95 -14.85 4.1 -14.85 4.35 -14.8 5.0 -14.55 5.4 -14.3 6.05 -13.6 M5.55 -10.1 L5.7 -10.4 6.0 -11.35 Q6.05 -12.2 5.5 -13.0 L5.4 -13.1 Q4.95 -13.75 4.3 -13.9 L3.55 -13.85 3.25 -13.75 3.0 -13.55 Q2.5 -13.1 2.4 -12.3 L2.4 -12.2 Q2.3 -11.25 2.85 -10.55 3.2 -10.0 3.75 -9.75 L4.1 -9.6 Q4.8 -9.45 5.35 -9.95 L5.55 -10.1" fill="#716044" fill-rule="evenodd" stroke="none"/>
      <path d="M3.55 -13.85 L4.3 -13.9 Q4.95 -13.75 5.4 -13.1 L5.5 -13.0 Q6.05 -12.2 6.0 -11.35 L5.7 -10.4 5.55 -10.1 4.8 -10.1 Q4.1 -10.3 3.55 -11.05 3.05 -11.8 3.15 -12.7 L3.4 -13.65 3.55 -13.85" fill="#382510" fill-rule="evenodd" stroke="none"/>
      <path d="M3.55 -13.85 L3.4 -13.65 3.15 -12.7 Q3.05 -11.8 3.55 -11.05 4.1 -10.3 4.8 -10.1 L5.55 -10.1 5.35 -9.95 Q4.8 -9.45 4.1 -9.6 L3.75 -9.75 Q3.2 -10.0 2.85 -10.55 2.3 -11.25 2.4 -12.2 L2.4 -12.3 Q2.5 -13.1 3.0 -13.55 L3.25 -13.75 3.55 -13.85" fill="#4a3923" fill-rule="evenodd" stroke="none"/>
      <path d="M7.3 -13.15 L6.9 -14.0 6.7 -14.2 M7.3 -13.15 L7.55 -11.8 7.55 -11.65 Q7.5 -10.35 6.7 -9.65 6.35 -9.35 6.0 -9.2 L5.9 -9.15 Q5.1 -8.45 4.05 -8.7 3.0 -8.95 2.25 -9.95 1.55 -11.05 1.6 -12.35 1.7 -13.6 2.45 -14.3 L3.25 -14.75 3.25 -14.8 Q3.95 -15.4 4.75 -15.3 L5.15 -15.3 Q6.1 -15.1 6.7 -14.2 M6.35 -9.65 L6.0 -9.2 M3.25 -14.75 L3.7 -14.85" fill="none" stroke="#382510" stroke-linecap="round" stroke-linejoin="round" stroke-opacity="0.3019608" stroke-width="0.05"/>
      <path d="M-2.55 -15.85 L-1.35 -16.95 1.65 -18.2 2.55 -17.65 2.65 -17.65 2.75 -17.55 0.15 -16.3 -0.5 -15.25 0.75 -12.5 0.7 -12.5 0.0 -12.2 Q-1.35 -13.45 -2.55 -15.85 M9.7 -2.15 L5.2 -4.15 3.35 -7.2 2.9 -8.1 3.1 -8.6 3.25 -8.45 3.5 -8.2 3.6 -8.05 Q7.15 -3.65 9.7 -2.15" fill="#eadbc4" fill-rule="evenodd" stroke="none"/>
      <path d="M3.4 -4.95 L1.55 -5.8 Q-1.8 -7.75 -4.4 -10.25 L-4.15 -11.25 -4.0 -11.85 -3.35 -15.0 -0.7 -11.65 -1.2 -10.55 Q-1.35 -9.55 -0.7 -8.7 0.0 -7.8 0.85 -7.6 L2.25 -7.75 2.4 -7.55 3.4 -4.95" fill="#83795c" fill-rule="evenodd" stroke="none"/>
      <path d="M1.55 -5.8 L-3.3 -8.05 -4.0 -8.6 Q-4.45 -9.15 -4.4 -10.25 -1.8 -7.75 1.55 -5.8" fill="#5d4e36" fill-rule="evenodd" stroke="none"/>
      <path d="M-2.55 -15.85 Q-1.35 -13.45 0.0 -12.2 L-0.25 -12.1 -0.7 -11.65 -3.35 -15.0 -2.55 -15.85 M5.2 -4.15 L5.05 -4.2 3.4 -4.95 2.4 -7.55 2.25 -7.75 2.4 -7.8 2.9 -8.1 3.35 -7.2 5.2 -4.15" fill="#b4a698" fill-rule="evenodd" stroke="none"/>
      <path d="M0.75 -12.5 L-0.5 -15.25 0.15 -16.3 2.75 -17.55 7.15 -11.55 8.65 -8.2 10.2 -2.8 9.7 -2.15 Q7.15 -3.65 3.6 -8.05 L3.5 -8.2 3.25 -8.45 3.1 -8.6 3.15 -8.65 0.75 -12.5" fill="url(#gradient0)" fill-rule="evenodd" stroke="none"/>
      <path d="M2.75 -17.55 L2.65 -17.65 2.55 -17.65 1.65 -18.2 -1.35 -16.95 -2.55 -15.85 M2.75 -17.55 L7.15 -11.55 8.65 -8.2 10.2 -2.8 9.7 -2.15 5.2 -4.15 5.05 -4.2 3.4 -4.95 1.55 -5.8 -3.3 -8.05 -4.0 -8.6 Q-4.45 -9.15 -4.4 -10.25 L-4.15 -11.25 -4.0 -11.85 -3.35 -15.0 -2.55 -15.85" fill="none" stroke="#382510" stroke-linecap="round" stroke-linejoin="round" stroke-opacity="0.2" stroke-width="0.05"/>
      <path d="M-4.25 -9.8 L-4.4 -9.95 -4.5 -10.0 -4.7 -10.05 -4.75 -10.1 -4.85 -10.1 -5.1 -10.0 -5.05 -10.1 -4.65 -10.25 -4.55 -10.25 Q-4.25 -10.2 -4.1 -9.95 L-4.25 -9.8 M-4.2 -8.6 L-4.15 -8.7 -4.05 -9.1 -4.05 -9.3 -4.15 -9.55 -3.95 -9.65 -3.85 -9.3 -3.85 -9.25 -4.1 -8.7 -4.2 -8.6" fill="#83795c" fill-rule="evenodd" stroke="none"/>
      <path d="M-4.15 -9.55 L-4.2 -9.7 -4.25 -9.8 -4.1 -9.95 -4.05 -9.9 -3.95 -9.65 -4.15 -9.55" fill="#c2a561" fill-rule="evenodd" stroke="none"/>
      <path d="M-4.85 -10.1 L-4.75 -10.1 -4.7 -10.05 -4.5 -10.0 -4.4 -9.95 -4.25 -9.8 -4.2 -9.7 -4.15 -9.55 -4.05 -9.3 -4.05 -9.1 -4.15 -8.7 -4.2 -8.6 -4.3 -8.55 Q-4.5 -8.35 -4.75 -8.4 -5.05 -8.5 -5.25 -8.75 L-5.45 -9.4 -5.2 -9.95 -5.1 -10.0 -4.85 -10.1 M-4.9 -9.8 L-5.0 -9.8 -5.05 -9.75 -5.2 -9.35 -5.2 -9.1 -5.1 -8.9 -4.75 -8.65 -4.4 -8.75 -4.35 -8.8 -4.35 -8.9 -4.25 -9.15 -4.4 -9.6 -4.7 -9.85 -4.9 -9.8" fill="#716044" fill-rule="evenodd" stroke="none"/>
      <path d="M-4.35 -8.8 L-4.4 -8.75 -4.75 -8.65 -5.1 -8.9 -5.2 -9.1 -5.2 -9.35 -5.05 -9.75 -5.0 -9.8 -4.9 -9.8 -4.95 -9.75 -5.0 -9.5 -4.9 -9.05 -4.55 -8.8 -4.35 -8.8" fill="#4a3923" fill-rule="evenodd" stroke="none"/>
      <path d="M-4.35 -8.8 L-4.55 -8.8 -4.9 -9.05 -5.0 -9.5 -4.95 -9.75 -4.9 -9.8 -4.7 -9.85 -4.4 -9.6 -4.25 -9.15 -4.35 -8.9 -4.35 -8.8" fill="#382510" fill-rule="evenodd" stroke="none"/>
      <path d="M-4.65 -10.25 L-5.05 -10.1 -5.1 -10.0 M-3.85 -9.3 L-3.85 -9.25 -4.1 -8.7 -4.2 -8.6" fill="none" stroke="#382510" stroke-linecap="round" stroke-linejoin="round" stroke-opacity="0.3019608" stroke-width="0.05"/>
      <path d="M-4.85 -10.1 L-5.1 -10.0 -5.2 -9.95 -5.45 -9.4 -5.25 -8.75 Q-5.05 -8.5 -4.75 -8.4 -4.5 -8.35 -4.3 -8.55 L-4.2 -8.6 -4.15 -8.7" fill="none" stroke="#382510" stroke-linecap="round" stroke-linejoin="round" stroke-opacity="0.2" stroke-width="0.05"/>
      <path d="M7.5 -10.25 L5.85 -13.0 Q6.15 -9.4 2.65 -9.05 L5.15 -6.1 Q6.45 -10.4 8.2 -8.45 L7.5 -10.25" fill="#eadbc4" fill-rule="evenodd" stroke="none"/>
      <path d="M0.6 -13.05 L1.0 -13.05 Q1.95 -12.85 2.55 -11.95 L1.9 -11.35 1.25 -12.05 0.85 -12.3 0.2 -12.55 -0.05 -12.6 -0.2 -12.6 -0.45 -12.6 -0.9 -12.5 -0.9 -12.55 Q-0.25 -13.15 0.6 -13.05 M3.15 -10.9 L3.4 -9.55 3.4 -9.4 Q3.35 -8.1 2.55 -7.4 L1.85 -6.95 2.2 -7.4 Q2.6 -8.0 2.6 -8.9 L2.6 -9.65 2.35 -10.6 3.15 -10.9" fill="#83795c" fill-rule="evenodd" stroke="none"/>
      <path d="M1.9 -11.35 L2.55 -11.95 2.75 -11.75 3.15 -10.9 2.35 -10.6 2.05 -11.1 1.95 -11.25 1.9 -11.35" fill="#d4c7a7" fill-rule="evenodd" stroke="none"/>
      <path d="M-0.9 -12.5 L-0.45 -12.6 -0.2 -12.6 -0.05 -12.6 0.2 -12.55 0.85 -12.3 1.25 -12.05 1.9 -11.35 1.95 -11.25 2.05 -11.1 2.35 -10.6 2.6 -9.65 2.6 -8.9 Q2.6 -8.0 2.2 -7.4 L1.85 -6.95 1.75 -6.9 Q0.95 -6.2 -0.1 -6.45 -1.15 -6.7 -1.9 -7.7 -2.6 -8.8 -2.55 -10.1 -2.45 -11.35 -1.7 -12.05 L-0.9 -12.5 M-0.6 -11.6 L-0.9 -11.5 -1.15 -11.3 Q-1.65 -10.85 -1.75 -10.05 L-1.75 -9.95 Q-1.85 -9.0 -1.3 -8.3 L-0.5 -7.5 -0.05 -7.35 Q0.65 -7.2 1.2 -7.7 L1.4 -7.85 1.55 -8.15 1.85 -9.1 Q1.9 -9.95 1.35 -10.75 L1.25 -10.85 Q0.8 -11.5 0.15 -11.65 L-0.6 -11.6" fill="#716044" fill-rule="evenodd" stroke="none"/>
      <path d="M1.4 -7.85 L1.2 -7.7 Q0.65 -7.2 -0.05 -7.35 L-0.5 -7.5 -1.3 -8.3 Q-1.85 -9.0 -1.75 -9.95 L-1.75 -10.05 Q-1.65 -10.85 -1.15 -11.3 L-0.9 -11.5 -0.6 -11.6 -0.75 -11.4 -1.0 -10.45 Q-1.1 -9.55 -0.6 -8.8 -0.05 -8.05 0.65 -7.85 L1.4 -7.85" fill="#4a3923" fill-rule="evenodd" stroke="none"/>
      <path d="M1.4 -7.85 L0.65 -7.85 Q-0.05 -8.05 -0.6 -8.8 -1.1 -9.55 -1.0 -10.45 L-0.75 -11.4 -0.6 -11.6 0.15 -11.65 Q0.8 -11.5 1.25 -10.85 L1.35 -10.75 Q1.9 -9.95 1.85 -9.1 L1.55 -8.15 1.4 -7.85" fill="#382510" fill-rule="evenodd" stroke="none"/>
      <path d="M0.6 -13.05 Q-0.25 -13.15 -0.9 -12.55 L-0.9 -12.5 M3.4 -9.55 L3.4 -9.4 Q3.35 -8.1 2.55 -7.4 L1.85 -6.95" fill="none" stroke="#382510" stroke-linecap="round" stroke-linejoin="round" stroke-opacity="0.3019608" stroke-width="0.05"/>
      <path d="M-0.9 -12.5 L-0.45 -12.6 M1.85 -6.95 L1.75 -6.9 Q0.95 -6.2 -0.1 -6.45 -1.15 -6.7 -1.9 -7.7 -2.6 -8.8 -2.55 -10.1 -2.45 -11.35 -1.7 -12.05 L-0.9 -12.5 M2.2 -7.4 L1.85 -6.95" fill="none" stroke="#382510" stroke-linecap="round" stroke-linejoin="round" stroke-opacity="0.2" stroke-width="0.05"/>
    </g>
    <linearGradient gradientTransform="matrix(0.0062, 0.0084, 0.0025, -0.0019, 5.5, -9.7)" gradientUnits="userSpaceOnUse" id="gradient0" spreadMethod="pad" x1="-819.2" x2="819.2">
      <stop offset="0.0" stop-color="#cdc098"/>
      <stop offset="1.0" stop-color="#d8cbaf"/>
    </linearGradient>
  </defs>
</svg>
