<?xml version="1.0" encoding="UTF-8" standalone="no"?>
<svg xmlns:xlink="http://www.w3.org/1999/xlink" height="440.0px" width="440.0px" xmlns="http://www.w3.org/2000/svg">
  <g transform="matrix(10.0, 0.0, 0.0, 10.0, 0.0, 0.0)">
    <use height="44.0" transform="matrix(0.9091, 0.0, 0.0, 0.9091, 2.0, 2.0)" width="44.0" xlink:href="#sprite0"/>
  </g>
  <defs>
    <g id="sprite0" transform="matrix(1.0, 0.0, 0.0, 1.0, 0.0, 0.0)">
      <use height="44.0" transform="matrix(1.0, 0.0, 0.0, 1.0, 0.0, 0.0)" width="44.0" xlink:href="#shape0"/>
      <use height="21.7" transform="matrix(1.2969, 0.0, 0.0, 1.2969, 3.0, 7.95)" width="29.3" xlink:href="#sprite1"/>
    </g>
    <g id="shape0" transform="matrix(1.0, 0.0, 0.0, 1.0, 0.0, 0.0)">
      <path d="M44.0 44.0 L0.0 44.0 0.0 0.0 44.0 0.0 44.0 44.0" fill="#43adca" fill-opacity="0.0" fill-rule="evenodd" stroke="none"/>
    </g>
    <g id="sprite1" transform="matrix(1.0, 0.0, 0.0, 1.0, 0.0, 0.0)">
      <use height="21.7" transform="matrix(1.0, 0.0, 0.0, 1.0, 0.0, 0.0)" width="29.3" xlink:href="#sprite2"/>
    </g>
    <g id="sprite2" transform="matrix(1.0, 0.0, 0.0, 1.0, 17.15, 22.35)">
      <use height="21.7" transform="matrix(1.0, 0.0, 0.0, 1.0, -17.15, -22.35)" width="29.3" xlink:href="#shape1"/>
    </g>
    <g id="shape1" transform="matrix(1.0, 0.0, 0.0, 1.0, 17.15, 22.35)">
      <path d="M5.4 -21.0 L5.7 -21.65 5.95 -21.45 5.4 -21.0" fill="#d6be85" fill-rule="evenodd" stroke="none"/>
      <path d="M5.5 -14.75 L5.1 -16.4 Q5.6 -16.85 7.05 -16.95 L5.4 -21.0 5.95 -21.45 Q8.1 -19.8 9.65 -16.35 7.55 -16.45 5.5 -14.75" fill="#bfa876" fill-rule="evenodd" stroke="none"/>
      <path d="M5.7 -21.65 L5.95 -22.35 6.1 -22.3 6.4 -22.1 Q10.2 -20.3 12.1 -17.5 12.45 -15.4 10.85 -12.25 8.3 -11.4 6.4 -11.5 L5.5 -14.75 Q7.55 -16.45 9.65 -16.35 8.1 -19.8 5.95 -21.45 L5.7 -21.65" fill="#dbd7a6" fill-rule="evenodd" stroke="none"/>
      <path d="M5.7 -21.65 L5.95 -22.35 6.1 -22.3 6.4 -22.1 Q10.2 -20.3 12.1 -17.5 12.45 -15.4 10.85 -12.25 8.3 -11.4 6.4 -11.5 L5.5 -14.75 5.1 -16.4 Q5.6 -16.85 7.05 -16.95 L5.4 -21.0 5.7 -21.65 Z" fill="none" stroke="#000000" stroke-linecap="round" stroke-linejoin="round" stroke-opacity="0.3019608" stroke-width="0.05"/>
      <path d="M4.7 -11.75 Q4.0 -13.4 3.85 -15.05 L4.4 -16.0 5.5 -16.2 Q7.0 -15.25 7.45 -13.8 L6.1 -13.65 6.05 -13.5 5.7 -12.45 5.6 -12.4 4.7 -11.75" fill="#ae6c0e" fill-rule="evenodd" stroke="none"/>
      <path d="M4.7 -11.75 L5.6 -12.4 5.7 -12.45 6.05 -13.5 6.1 -13.65 7.45 -13.8 Q7.75 -12.5 7.15 -10.65 6.45 -10.15 5.45 -10.4 L4.7 -11.75" fill="#613c07" fill-rule="evenodd" stroke="none"/>
      <path d="M7.45 -13.8 Q7.0 -15.25 5.5 -16.2 L4.4 -16.0 3.85 -15.05 Q4.0 -13.4 4.7 -11.75 M7.45 -13.8 Q7.75 -12.5 7.15 -10.65 6.45 -10.15 5.45 -10.4 L4.7 -11.75" fill="none" stroke="#000000" stroke-linecap="round" stroke-linejoin="round" stroke-opacity="0.3019608" stroke-width="0.05"/>
      <path d="M0.0 -18.45 Q-0.45 -18.35 0.05 -18.05 0.45 -17.65 -0.6 -17.1 -3.55 -16.1 -2.55 -13.95 -1.45 -11.3 1.35 -10.2 L7.6 -11.65 7.5 -11.75 Q7.45 -14.7 5.05 -16.6 3.05 -18.25 0.45 -18.35 L0.0 -18.45" fill="#7f4e26" fill-rule="evenodd" stroke="none"/>
      <path d="M0.0 -18.45 L-0.7 -18.5 -1.35 -18.5 -1.55 -18.45 -2.35 -18.25 Q-4.5 -17.8 -6.25 -16.1 -8.45 -13.95 -8.3 -11.05 L-8.3 -10.5 Q-5.7 -9.75 -4.9 -10.1 -4.05 -10.45 1.35 -10.2 -1.45 -11.3 -2.55 -13.95 -3.55 -16.1 -0.6 -17.1 0.45 -17.65 0.05 -18.05 -0.45 -18.35 0.0 -18.45" fill="#4a270c" fill-rule="evenodd" stroke="none"/>
      <path d="M1.35 -10.2 Q-4.05 -10.45 -4.9 -10.1 -5.7 -9.75 -8.3 -10.5 L-8.3 -11.05 Q-8.45 -13.95 -6.25 -16.1 -4.5 -17.8 -2.35 -18.25 L-1.55 -18.45 -1.35 -18.5 -0.7 -18.5 0.0 -18.45 M1.35 -10.2 L7.6 -11.65 7.5 -11.75 Q7.45 -14.7 5.05 -16.6 3.05 -18.25 0.45 -18.35" fill="none" stroke="#000000" stroke-linecap="round" stroke-linejoin="round" stroke-opacity="0.3019608" stroke-width="0.05"/>
      <path d="M-0.9 -18.05 L1.2 -15.2" fill="none" stroke="#000000" stroke-linecap="round" stroke-linejoin="round" stroke-opacity="0.2" stroke-width="0.05"/>
      <path d="M-0.3 -18.15 L1.1 -16.15" fill="none" stroke="#000000" stroke-linecap="round" stroke-linejoin="round" stroke-opacity="0.2" stroke-width="0.05"/>
      <path d="M-0.55 -16.8 Q0.1 -17.15 0.25 -17.9" fill="none" stroke="#000000" stroke-linecap="round" stroke-linejoin="round" stroke-opacity="0.2" stroke-width="0.05"/>
      <path d="M0.6 -16.1 Q1.05 -16.4 1.05 -17.2" fill="none" stroke="#000000" stroke-linecap="round" stroke-linejoin="round" stroke-opacity="0.2" stroke-width="0.05"/>
      <path d="M0.9 -17.2 Q2.4 -16.5 2.9 -15.55" fill="none" stroke="#000000" stroke-linecap="round" stroke-linejoin="round" stroke-opacity="0.2" stroke-width="0.05"/>
      <path d="M4.85 -10.15 L5.45 -10.45 6.25 -10.9 Q7.3 -11.55 7.8 -12.5 L7.9 -12.7 7.3 -13.25 Q6.1 -11.95 2.85 -11.05 L-2.15 -10.75 -4.2 -11.0 -5.65 -11.3 -5.75 -10.8 -3.75 -10.15 -1.45 -9.7 Q1.35 -9.25 3.4 -9.7 L4.85 -10.15" fill="#8f8458" fill-rule="evenodd" stroke="none"/>
      <path d="M5.05 -7.1 Q5.35 -8.3 5.25 -9.55 L5.15 -9.65 4.85 -10.15 3.4 -9.7 Q1.35 -9.25 -1.45 -9.7 L-1.1 -8.95 -0.15 -6.45 4.15 -6.75 5.05 -7.1 M5.45 -10.45 L5.4 -9.25 5.35 -9.15 5.95 -7.8 6.0 -7.65 6.4 -7.95 6.45 -9.35 6.25 -10.9 5.45 -10.45 M7.9 -12.55 L7.9 -12.7 7.8 -12.5 7.9 -12.55" fill="#d6be85" fill-rule="evenodd" stroke="none"/>
      <path d="M5.05 -7.1 L6.0 -7.65 5.95 -7.8 5.35 -9.15 5.4 -9.25 5.45 -10.45 4.85 -10.15 5.15 -9.65 5.25 -9.55 Q5.35 -8.3 5.05 -7.1 M6.4 -7.95 Q7.45 -8.65 8.0 -9.6 8.35 -10.65 7.9 -12.55 L7.8 -12.5 Q7.3 -11.55 6.25 -10.9 L6.45 -9.35 6.4 -7.95" fill="#f7eedd" fill-rule="evenodd" stroke="none"/>
      <path d="M-5.75 -10.8 L-5.7 -10.7 -5.7 -10.65 -5.65 -10.25 -5.0 -7.95 Q-4.6 -7.45 -4.2 -7.35 L-1.8 -6.65 -0.15 -6.45 -1.1 -8.95 -1.45 -9.7 -3.75 -10.15 -5.75 -10.8" fill="#a2895f" fill-rule="evenodd" stroke="none"/>
      <path d="M6.0 -7.65 L5.05 -7.1 M6.0 -7.65 L6.4 -7.95 Q7.45 -8.65 8.0 -9.6 8.35 -10.65 7.9 -12.55 L7.9 -12.7 7.3 -13.25 Q6.1 -11.95 2.85 -11.05 L-2.15 -10.75 -4.2 -11.0 -5.65 -11.3 -5.75 -10.8 -5.7 -10.7 -5.7 -10.65 -5.65 -10.25 -5.0 -7.95 Q-4.6 -7.45 -4.2 -7.35 L-1.8 -6.65 -0.15 -6.45 4.15 -6.75 5.05 -7.1" fill="none" stroke="#000000" stroke-linecap="round" stroke-linejoin="round" stroke-opacity="0.3019608" stroke-width="0.05"/>
      <path d="M-4.8 -10.35 L-4.1 -7.25 -3.3 -7.25 -4.15 -10.2 -4.8 -10.35" fill="#6e4818" fill-rule="evenodd" stroke="none"/>
      <path d="M-4.8 -10.35 L-6.75 -10.65 -7.05 -8.75 Q-7.25 -5.55 -6.4 -2.8 L-5.3 -3.75 Q-5.1 -5.75 -4.1 -7.2 L-4.1 -7.25 -4.8 -10.35" fill="#543514" fill-rule="evenodd" stroke="none"/>
      <path d="M-4.1 -7.25 L-4.1 -7.2 Q-3.3 -4.55 -2.15 -2.25 L-1.3 -2.15 Q-2.4 -4.25 -3.2 -6.95 L-3.3 -7.25 -4.1 -7.25" fill="#936021" fill-rule="evenodd" stroke="none"/>
      <path d="M-5.85 -0.85 L-5.0 -0.65 -1.3 -2.15 -2.15 -2.25 -5.85 -0.85" fill="#422a0f" fill-rule="evenodd" stroke="none"/>
      <path d="M-4.1 -7.2 Q-5.1 -5.75 -5.3 -3.75 L-6.4 -2.8 -5.85 -0.85 -2.15 -2.25 Q-3.3 -4.55 -4.1 -7.2" fill="#70471b" fill-rule="evenodd" stroke="none"/>
      <path d="M-6.4 -2.8 Q-7.25 -5.55 -7.05 -8.75 L-6.75 -10.65 M-3.3 -7.25 L-4.15 -10.2 M-1.3 -2.15 Q-2.4 -4.25 -3.2 -6.95 L-3.3 -7.25 M-1.3 -2.15 L-5.0 -0.65 -5.85 -0.85 M-6.4 -2.8 L-5.85 -0.85" fill="none" stroke="#000000" stroke-linecap="round" stroke-linejoin="round" stroke-opacity="0.3019608" stroke-width="0.05"/>
      <path d="M-8.1 -12.2 L-7.0 -12.6 Q-5.65 -11.55 -5.35 -10.0 L-6.4 -9.85 Q-7.15 -12.0 -8.1 -12.2" fill="#ae6c0e" fill-rule="evenodd" stroke="none"/>
      <path d="M-5.35 -10.0 Q-5.2 -8.65 -5.95 -6.9 L-7.7 -6.85 -8.25 -8.3 Q-8.85 -10.0 -8.85 -11.65 L-8.1 -12.2 -8.15 -12.25 -8.1 -12.2 Q-7.15 -12.0 -6.4 -9.85 L-5.35 -10.0" fill="#613c07" fill-rule="evenodd" stroke="none"/>
      <path d="M-8.1 -12.2 L-7.0 -12.6 Q-5.65 -11.55 -5.35 -10.0 -5.2 -8.65 -5.95 -6.9 L-7.7 -6.85 -8.25 -8.3 Q-8.85 -10.0 -8.85 -11.65 L-8.1 -12.2 Z" fill="none" stroke="#000000" stroke-linecap="round" stroke-linejoin="round" stroke-opacity="0.3019608" stroke-width="0.05"/>
      <path d="M-16.6 -17.65 L-17.15 -14.1 Q-16.3 -8.55 -15.5 -8.0 L-11.75 -5.65 -10.6 -5.35 Q-7.7 -6.15 -6.85 -6.95 L-6.8 -8.65 -6.8 -8.8 -9.55 -8.55 Q-9.45 -8.25 -9.65 -7.95 L-10.2 -8.55 -12.5 -8.75 Q-15.75 -12.05 -16.6 -17.65" fill="#d6be85" fill-rule="evenodd" stroke="none"/>
      <path d="M-17.15 -14.1 L-17.15 -12.75 Q-17.1 -10.4 -16.45 -8.35 -14.9 -6.6 -11.75 -5.65 L-15.5 -8.0 Q-16.3 -8.55 -17.15 -14.1 M-6.8 -8.8 Q-7.4 -11.35 -9.15 -12.4 L-12.0 -12.2 -15.05 -16.9 -16.55 -17.7 -16.6 -17.65 Q-15.75 -12.05 -12.5 -8.75 L-10.2 -8.55 -9.65 -7.95 Q-9.45 -8.25 -9.55 -8.55 L-6.8 -8.8" fill="#fffcc3" fill-rule="evenodd" stroke="none"/>
      <path d="M-16.6 -17.65 L-17.15 -14.1 -17.15 -12.75 Q-17.1 -10.4 -16.45 -8.35 -14.9 -6.6 -11.75 -5.65 L-10.6 -5.35 Q-7.7 -6.15 -6.85 -6.95 L-6.8 -8.65 M-6.8 -8.8 Q-7.4 -11.35 -9.15 -12.4 L-12.0 -12.2 -15.05 -16.9 -16.55 -17.7 -16.6 -17.65 Z" fill="none" stroke="#000000" stroke-linecap="round" stroke-linejoin="round" stroke-opacity="0.3019608" stroke-width="0.05"/>
      <path d="M-0.2 -17.45 L-0.6 -17.3 -1.65 -17.4 -2.1 -18.0 -1.75 -18.75 -1.5 -18.9 Q-1.7 -18.5 -1.4 -18.0 -1.1 -17.5 -0.2 -17.45" fill="#8f8458" fill-rule="evenodd" stroke="none"/>
      <path d="M-1.5 -18.9 L-0.8 -19.15 0.25 -19.05 0.65 -18.5 Q0.75 -18.1 0.35 -17.75 L0.25 -17.65 -0.2 -17.45 Q-1.1 -17.5 -1.4 -18.0 -1.7 -18.5 -1.5 -18.9" fill="#d6be85" fill-rule="evenodd" stroke="none"/>
      <path d="M-0.2 -17.45 L-0.6 -17.3 -1.65 -17.4 -2.1 -18.0 -1.75 -18.75 -1.5 -18.9 -0.8 -19.15 0.25 -19.05 0.65 -18.5 Q0.75 -18.1 0.35 -17.75 L0.25 -17.65" fill="none" stroke="#000000" stroke-linecap="round" stroke-linejoin="round" stroke-opacity="0.3019608" stroke-width="0.05"/>
    </g>
  </defs>
</svg>
