<?xml version="1.0" encoding="UTF-8" standalone="no"?>
<svg xmlns:xlink="http://www.w3.org/1999/xlink" height="440.0px" width="440.0px" xmlns="http://www.w3.org/2000/svg">
  <g transform="matrix(10.0, 0.0, 0.0, 10.0, 0.0, 0.0)">
    <use height="44.0" transform="matrix(0.9091, 0.0, 0.0, 0.9091, 2.0, 2.0)" width="44.0" xlink:href="#sprite0"/>
  </g>
  <defs>
    <g id="sprite0" transform="matrix(1.0, 0.0, 0.0, 1.0, 0.0, 0.0)">
      <use height="44.0" transform="matrix(1.0, 0.0, 0.0, 1.0, 0.0, 0.0)" width="44.0" xlink:href="#shape0"/>
      <use height="11.95" transform="matrix(2.8897, 0.0, 0.0, 2.8897, 3.0, 4.75)" width="13.15" xlink:href="#sprite1"/>
    </g>
    <g id="shape0" transform="matrix(1.0, 0.0, 0.0, 1.0, 0.0, 0.0)">
      <path d="M44.0 44.0 L0.0 44.0 0.0 0.0 44.0 0.0 44.0 44.0" fill="#43adca" fill-opacity="0.0" fill-rule="evenodd" stroke="none"/>
    </g>
    <g id="sprite1" transform="matrix(1.0, 0.0, 0.0, 1.0, 0.0, 0.0)">
      <use height="11.95" transform="matrix(1.0, 0.0, 0.0, 1.0, 0.0, 0.0)" width="13.15" xlink:href="#sprite2"/>
    </g>
    <g id="sprite2" transform="matrix(1.0, 0.0, 0.0, 1.0, 8.4, 16.75)">
      <use height="11.95" transform="matrix(1.0, 0.0, 0.0, 1.0, -8.4, -16.75)" width="13.15" xlink:href="#shape1"/>
    </g>
    <g id="shape1" transform="matrix(1.0, 0.0, 0.0, 1.0, 8.4, 16.75)">
      <path d="M-1.85 -5.8 Q-2.65 -4.8 -3.8 -4.8 -4.95 -4.8 -5.8 -5.8 -6.6 -6.75 -6.6 -8.1 -6.6 -9.45 -5.8 -10.5 -4.95 -11.45 -3.8 -11.45 -2.65 -11.45 -1.85 -10.5 -1.0 -9.45 -1.0 -8.1 -1.0 -6.75 -1.85 -5.8" fill="#382510" fill-opacity="0.3019608" fill-rule="evenodd" stroke="none"/>
      <path d="M-4.65 -14.65 L-4.4 -14.95 Q-2.5 -15.25 -1.05 -14.6 L-1.15 -14.55 -1.45 -14.1 -4.65 -14.65 M-2.35 -16.35 Q-1.15 -16.85 0.25 -16.75 L2.8 -16.45 0.7 -15.95 Q-3.65 -15.35 -2.35 -16.35" fill="#8a774a" fill-rule="evenodd" stroke="none"/>
      <path d="M-5.05 -13.95 L-4.65 -14.65 -1.45 -14.1 -1.95 -13.35 -5.05 -13.95" fill="#e6d01a" fill-rule="evenodd" stroke="none"/>
      <path d="M-1.1 -14.0 L-1.5 -13.25 -1.95 -13.35 -1.45 -14.1 -1.1 -14.0" fill="#928410" fill-rule="evenodd" stroke="none"/>
      <path d="M2.8 -16.45 L2.85 -16.45 4.75 -15.55 4.45 -15.4 3.3 -16.0 1.4 -15.85 0.7 -15.5 0.4 -15.4 -0.6 -14.55 -0.75 -14.4 -1.1 -14.0 -1.45 -14.1 -1.15 -14.55 -1.05 -14.6 0.2 -15.7 0.7 -15.95 2.8 -16.45 M-1.5 -13.25 L-1.75 -12.6 Q-2.25 -11.4 -2.15 -9.85 L-2.9 -9.75 -2.9 -10.05 -2.85 -10.55 -2.25 -12.7 -5.3 -13.35 -5.05 -13.95 -1.95 -13.35 -1.5 -13.25" fill="#4d3f2b" fill-rule="evenodd" stroke="none"/>
      <path d="M-2.9 -9.75 L-5.7 -10.3 -5.65 -11.85 -5.5 -12.55 -5.3 -13.35 -2.25 -12.7 -2.85 -10.55 -2.9 -10.05 -2.9 -9.75" fill="#7c6c38" fill-rule="evenodd" stroke="none"/>
      <path d="M-4.4 -14.95 L-4.3 -15.1 Q-3.4 -15.95 -2.35 -16.35 -3.65 -15.35 0.7 -15.95 L0.2 -15.7 -1.05 -14.6 Q-2.5 -15.25 -4.4 -14.95" fill="#b19b52" fill-rule="evenodd" stroke="none"/>
      <path d="M-7.05 -5.65 L-7.9 -6.7 Q-8.55 -7.95 -8.35 -8.75 L-8.05 -9.85 -7.5 -10.8 Q-6.6 -11.65 -5.35 -11.65 L-3.7 -11.2 -2.85 -10.0 -3.45 -9.9 Q-2.7 -8.15 -3.5 -7.3 L-3.55 -7.3 -7.05 -5.65" fill="#e8d531" fill-rule="evenodd" stroke="none"/>
      <path d="M-3.7 -11.2 L-3.2 -10.8 -2.55 -10.0 Q-2.25 -9.4 -2.25 -8.75 -2.25 -7.5 -3.1 -6.75 -3.3 -6.55 -3.85 -6.4 L-4.9 -6.4 -5.75 -5.85 -5.95 -5.8 -6.85 -5.65 -7.05 -5.65 -3.55 -7.3 -3.5 -7.3 Q-2.7 -8.15 -3.45 -9.9 L-2.85 -10.0 -3.7 -11.2 M-4.9 -6.4 L-3.55 -7.3 -4.9 -6.4" fill="#ad911f" fill-rule="evenodd" stroke="none"/>
      <path d="M-3.7 -11.2 L-3.2 -10.8 -2.55 -10.0 Q-2.25 -9.4 -2.25 -8.75 -2.25 -7.5 -3.1 -6.75 -3.3 -6.55 -3.85 -6.4 L-4.9 -6.4 -5.75 -5.85 -5.95 -5.8 -6.85 -5.65 -7.05 -5.65 -7.9 -6.7 Q-8.55 -7.95 -8.35 -8.75 L-8.05 -9.85 -7.5 -10.8 Q-6.6 -11.65 -5.35 -11.65 L-3.7 -11.2 M-3.55 -7.3 L-4.9 -6.4" fill="none" stroke="#000000" stroke-linecap="round" stroke-linejoin="round" stroke-opacity="0.3019608" stroke-width="0.05"/>
      <path d="M-4.15 -7.3 Q-4.45 -7.0 -4.85 -7.0 L-5.55 -7.3 -5.85 -8.0 -5.55 -8.7 -4.85 -9.0 Q-4.45 -9.0 -4.15 -8.7 -3.85 -8.4 -3.85 -8.0 -3.85 -7.6 -4.15 -7.3" fill="#fbf1bf" fill-rule="evenodd" stroke="none"/>
      <path d="M-4.15 -7.3 Q-4.45 -7.0 -4.85 -7.0 L-5.55 -7.3 -5.85 -8.0 -5.55 -8.7 -4.85 -9.0 Q-4.45 -9.0 -4.15 -8.7 -3.85 -8.4 -3.85 -8.0 -3.85 -7.6 -4.15 -7.3 Z" fill="none" stroke="#000000" stroke-linecap="round" stroke-linejoin="round" stroke-opacity="0.3019608" stroke-width="0.05"/>
      <path d="M-7.2 -7.95 Q-7.35 -7.75 -7.6 -7.75 L-8.0 -7.95 -8.15 -8.5 -8.0 -9.05 -7.6 -9.3 -7.2 -9.05 -7.0 -8.5 -7.2 -7.95" fill="#fbf1bf" fill-rule="evenodd" stroke="none"/>
      <path d="M-7.2 -7.95 Q-7.35 -7.75 -7.6 -7.75 L-8.0 -7.95 -8.15 -8.5 -8.0 -9.05 -7.6 -9.3 -7.2 -9.05 -7.0 -8.5 -7.2 -7.95 Z" fill="none" stroke="#000000" stroke-linecap="round" stroke-linejoin="round" stroke-opacity="0.3019608" stroke-width="0.05"/>
      <path d="M-5.15 -7.8 Q-5.25 -7.65 -5.45 -7.65 -5.6 -7.65 -5.75 -7.8 L-5.85 -8.1 -5.75 -8.4 -5.45 -8.5 -5.15 -8.4 -5.0 -8.1 Q-5.0 -7.9 -5.15 -7.8" fill="#382510" fill-rule="evenodd" stroke="none"/>
      <path d="M-7.0 -8.15 Q-7.1 -8.0 -7.3 -8.0 -7.45 -8.0 -7.6 -8.15 L-7.7 -8.45 -7.6 -8.75 -7.3 -8.85 -7.0 -8.75 -6.85 -8.45 Q-6.85 -8.25 -7.0 -8.15" fill="#382510" fill-rule="evenodd" stroke="none"/>
      <path d="M-5.6 -11.2 L-6.3 -10.8 -6.5 -11.2 -7.25 -11.95 -7.25 -12.0 -7.25 -12.05 -6.85 -12.3 -5.6 -11.2" fill="#e8d531" fill-rule="evenodd" stroke="none"/>
      <path d="M-6.3 -10.8 L-6.5 -11.2 -7.25 -11.95 -7.25 -12.0 -7.25 -12.05 -6.85 -12.3 -5.6 -11.2" fill="none" stroke="#000000" stroke-linecap="round" stroke-linejoin="round" stroke-opacity="0.3019608" stroke-width="0.05"/>
      <path d="M-5.25 -12.4 L-5.9 -11.6 Q-6.1 -12.6 -6.4 -13.1 L-6.4 -13.2 -5.85 -13.65 -5.25 -12.4" fill="#e8d531" fill-rule="evenodd" stroke="none"/>
      <path d="M-5.9 -11.6 L-5.25 -12.4 -4.9 -11.65 -5.85 -10.85 -5.9 -11.6" fill="#ad911f" fill-rule="evenodd" stroke="none"/>
      <path d="M-5.25 -12.4 L-5.85 -13.65 -6.4 -13.2 -6.4 -13.1 Q-6.1 -12.6 -5.9 -11.6 L-5.85 -10.85 M-4.9 -11.65 L-5.25 -12.4 Z" fill="none" stroke="#000000" stroke-linecap="round" stroke-linejoin="round" stroke-opacity="0.3019608" stroke-width="0.05"/>
      <path d="M-4.85 -10.8 L-4.65 -11.2 -3.9 -11.95 -3.9 -12.0 -3.9 -12.05 -4.3 -12.3 -5.55 -11.2 -4.85 -10.8" fill="#e8d531" fill-rule="evenodd" stroke="none"/>
      <path d="M-4.85 -10.8 L-4.65 -11.2 -3.9 -11.95 -3.9 -12.0 -3.9 -12.05 -4.3 -12.3 -5.55 -11.2" fill="none" stroke="#000000" stroke-linecap="round" stroke-linejoin="round" stroke-opacity="0.3019608" stroke-width="0.05"/>
      <path d="M-2.3 -8.65 Q-3.15 -8.85 -2.35 -7.2 L-1.75 -6.75 -2.15 -6.3 Q-2.4 -6.25 -2.7 -6.6 -3.05 -6.85 -3.2 -7.4 L-3.15 -8.25 -2.8 -8.8 -2.3 -8.65" fill="#ad911f" fill-rule="evenodd" stroke="none"/>
      <path d="M-1.75 -6.75 L-2.35 -7.2 Q-3.15 -8.85 -2.3 -8.65 L-2.2 -8.6 -1.7 -7.85 Q-1.4 -7.35 -1.7 -6.9 L-1.75 -6.75" fill="#e8d531" fill-rule="evenodd" stroke="none"/>
      <path d="M-1.75 -6.75 L-1.7 -6.9 Q-1.4 -7.35 -1.7 -7.85 L-2.2 -8.6 -2.3 -8.65 -2.8 -8.8 -3.15 -8.25 -3.2 -7.4 Q-3.05 -6.85 -2.7 -6.6 -2.4 -6.25 -2.15 -6.3 L-1.75 -6.75 Z" fill="none" stroke="#000000" stroke-linecap="round" stroke-linejoin="round" stroke-opacity="0.3019608" stroke-width="0.05"/>
    </g>
  </defs>
</svg>
