<?xml version="1.0" encoding="UTF-8" standalone="no"?>
<svg xmlns:xlink="http://www.w3.org/1999/xlink" height="440.0px" width="440.0px" xmlns="http://www.w3.org/2000/svg">
  <g transform="matrix(10.0, 0.0, 0.0, 10.0, 0.0, 0.0)">
    <use height="44.0" transform="matrix(0.9091, 0.0, 0.0, 0.9091, 2.0, 2.0)" width="44.0" xlink:href="#sprite0"/>
  </g>
  <defs>
    <g id="sprite0" transform="matrix(1.0, 0.0, 0.0, 1.0, 0.0, 0.0)">
      <use height="44.0" transform="matrix(1.0, 0.0, 0.0, 1.0, 0.0, 0.0)" width="44.0" xlink:href="#shape0"/>
      <use height="9.1" transform="matrix(3.4861, 0.0, 0.0, 3.4861, 3.15, 6.15)" width="10.9" xlink:href="#sprite1"/>
    </g>
    <g id="shape0" transform="matrix(1.0, 0.0, 0.0, 1.0, 0.0, 0.0)">
      <path d="M44.0 44.0 L0.0 44.0 0.0 0.0 44.0 0.0 44.0 44.0" fill="#43adca" fill-opacity="0.0" fill-rule="evenodd" stroke="none"/>
    </g>
    <g id="sprite1" transform="matrix(1.0, 0.0, 0.0, 1.0, 0.0, 0.0)">
      <use height="9.1" transform="matrix(1.0, 0.0, 0.0, 1.0, 0.0, 0.0)" width="10.9" xlink:href="#sprite2"/>
    </g>
    <g id="sprite2" transform="matrix(1.0, 0.0, 0.0, 1.0, 5.3, 18.75)">
      <use height="9.1" transform="matrix(1.0, 0.0, 0.0, 1.0, -5.3, -18.75)" width="10.9" xlink:href="#shape1"/>
    </g>
    <g id="shape1" transform="matrix(1.0, 0.0, 0.0, 1.0, 5.3, 18.75)">
      <path d="M-1.1 -12.85 Q1.05 -11.55 -0.45 -11.1 2.2 -10.95 5.5 -12.6 L5.6 -14.25 Q2.0 -12.4 -1.1 -12.85" fill="#660033" fill-rule="evenodd" stroke="none"/>
      <path d="M-2.25 -13.1 Q-3.1 -12.25 -2.45 -11.45 L-0.65 -11.1 -0.45 -11.1 Q1.05 -11.55 -1.1 -12.85 L-2.25 -13.1 M-3.45 -11.85 Q-3.65 -13.2 -3.1 -13.35 L-3.8 -13.7 Q-4.35 -13.6 -4.1 -12.25 L-3.45 -11.85 M-4.3 -13.95 L-5.0 -14.4 Q-5.6 -13.7 -5.0 -12.95 L-4.6 -12.65 Q-4.85 -13.5 -4.3 -13.95" fill="#9d004f" fill-rule="evenodd" stroke="none"/>
      <path d="M-2.25 -13.1 L-3.1 -13.35 Q-3.65 -13.2 -3.45 -11.85 L-2.45 -11.45 Q-3.1 -12.25 -2.25 -13.1 M-3.8 -13.7 L-4.3 -13.95 Q-4.85 -13.5 -4.6 -12.65 L-4.1 -12.25 Q-4.35 -13.6 -3.8 -13.7" fill="#ffb9dc" fill-rule="evenodd" stroke="none"/>
      <path d="M4.25 -12.1 L3.85 -12.9 3.6 -13.2 3.3 -13.4 2.8 -13.65 2.45 -13.7 2.25 -13.7 1.5 -13.65 0.45 -13.2 0.7 -13.1 1.15 -13.3 0.9 -13.15 1.7 -12.95 2.15 -13.05 2.0 -12.9 3.15 -12.2 Q1.75 -13.0 0.75 -13.05 L1.05 -13.05 0.65 -13.05 0.05 -12.95 Q-0.6 -12.7 -0.9 -12.45 L-1.1 -12.25 Q-1.25 -11.8 -0.05 -11.7 L2.15 -11.6 Q3.25 -11.6 3.55 -11.95 4.65 -11.6 3.7 -12.4 L4.25 -12.1 M3.7 -12.4 L3.45 -12.55 3.7 -12.4 M1.9 -13.55 L1.3 -13.35 1.9 -13.55 M-0.55 -12.35 L-0.5 -12.4 -0.55 -12.35 M0.15 -12.15 L0.35 -12.45 0.15 -12.15 M3.45 -12.0 L3.3 -12.2 3.45 -12.0 M3.25 -13.2 L2.45 -13.15 3.25 -13.2 M1.5 -11.8 L1.65 -12.45 1.5 -11.8" fill="#73981b" fill-rule="evenodd" stroke="none"/>
      <path d="M4.25 -12.1 L3.7 -12.4 Q4.65 -11.6 3.55 -11.95 3.25 -11.6 2.15 -11.6 L-0.05 -11.7 Q-1.25 -11.8 -1.1 -12.25 L-1.1 -12.2 -1.2 -12.15 Q-1.25 -11.8 -0.9 -11.7 L2.4 -11.3 4.4 -10.95 4.4 -11.0 4.25 -12.1 M0.05 -12.95 L0.65 -13.05 1.05 -13.05 0.75 -13.05 Q1.75 -13.0 3.15 -12.2 L2.0 -12.9 2.15 -13.05 1.7 -12.95 0.9 -13.15 1.15 -13.3 0.7 -13.1 0.45 -13.2 0.05 -12.95" fill="#4b760a" fill-rule="evenodd" stroke="none"/>
      <path d="M3.7 -12.4 L3.45 -12.55 3.7 -12.4" fill="#416609" fill-rule="evenodd" stroke="none"/>
      <path d="M1.3 -13.35 L1.9 -13.55 M0.35 -12.45 L0.15 -12.15 M1.65 -12.45 L1.5 -11.8 M2.45 -13.15 L3.25 -13.2 M3.3 -12.2 L3.45 -12.0" fill="none" stroke="#000000" stroke-linecap="round" stroke-linejoin="round" stroke-opacity="0.12156863" stroke-width="0.05"/>
      <path d="M0.45 -13.2 L1.5 -13.65 2.25 -13.7 2.45 -13.7 2.8 -13.65 3.3 -13.4 3.6 -13.2 3.85 -12.9 4.25 -12.1 4.4 -11.0 4.4 -10.95 2.4 -11.3 -0.9 -11.7 Q-1.25 -11.8 -1.2 -12.15 L-1.1 -12.2 -1.1 -12.25 -0.9 -12.45 Q-0.6 -12.7 0.05 -12.95 M0.45 -13.2 L0.05 -12.95 M-0.5 -12.4 L-0.55 -12.35" fill="none" stroke="#000000" stroke-linecap="round" stroke-linejoin="round" stroke-opacity="0.3019608" stroke-width="0.05"/>
      <path d="M-0.5 -17.5 L-1.15 -16.4 -1.35 -15.9 -1.45 -15.4 -1.4 -14.8 -1.35 -14.45 -1.3 -14.3 -0.85 -13.7 0.05 -13.1 0.0 -13.45 -0.35 -13.65 -0.1 -13.6 -0.3 -14.45 -0.55 -14.85 -0.3 -14.8 -0.05 -16.45 Q-0.3 -14.5 0.1 -13.6 L-0.05 -13.75 0.2 -13.5 0.5 -13.1 Q1.05 -12.75 1.45 -12.7 L1.75 -12.7 Q2.25 -12.95 1.85 -14.15 L1.0 -16.2 Q0.5 -17.1 -0.05 -17.05 -0.15 -18.35 -0.55 -16.75 L-0.5 -17.5 M-0.55 -16.75 L-0.6 -16.4 -0.55 -16.75 M-0.9 -14.1 L-0.45 -13.75 -0.9 -14.1 M1.4 -13.1 L1.35 -13.05 1.4 -13.1 M1.3 -13.8 L0.85 -13.8 1.3 -13.8 M0.0 -16.9 L-0.15 -16.55 0.0 -16.9 M-1.2 -15.6 L-0.8 -15.0 -1.2 -15.6 M1.05 -15.4 L0.3 -14.9 1.05 -15.4" fill="#73981b" fill-rule="evenodd" stroke="none"/>
      <path d="M-0.5 -17.5 L-0.55 -16.75 Q-0.15 -18.35 -0.05 -17.05 0.5 -17.1 1.0 -16.2 L1.85 -14.15 Q2.25 -12.95 1.75 -12.7 L1.8 -12.7 1.9 -12.75 Q2.3 -13.0 2.25 -13.45 L1.2 -16.7 0.7 -18.75 0.6 -18.65 -0.5 -17.5 M0.5 -13.1 L0.2 -13.5 -0.05 -13.75 0.1 -13.6 Q-0.3 -14.5 -0.05 -16.45 L-0.3 -14.8 -0.55 -14.85 -0.3 -14.45 -0.1 -13.6 -0.35 -13.65 0.0 -13.45 0.05 -13.1 0.5 -13.1" fill="#4b760a" fill-rule="evenodd" stroke="none"/>
      <path d="M-0.55 -16.75 L-0.6 -16.4 -0.55 -16.75" fill="#416609" fill-rule="evenodd" stroke="none"/>
      <path d="M-0.45 -13.75 L-0.9 -14.1 M0.85 -13.8 L1.3 -13.8 M0.3 -14.9 L1.05 -15.4 M-0.8 -15.0 L-1.2 -15.6 M-0.15 -16.55 L0.0 -16.9" fill="none" stroke="#000000" stroke-linecap="round" stroke-linejoin="round" stroke-opacity="0.12156863" stroke-width="0.05"/>
      <path d="M0.05 -13.1 L-0.85 -13.7 -1.3 -14.3 -1.35 -14.45 -1.4 -14.8 -1.45 -15.4 -1.35 -15.9 -1.15 -16.4 -0.5 -17.5 0.6 -18.65 0.7 -18.75 1.2 -16.7 2.25 -13.45 Q2.3 -13.0 1.9 -12.75 L1.8 -12.7 1.75 -12.7 1.45 -12.7 Q1.05 -12.75 0.5 -13.1 M0.05 -13.1 L0.5 -13.1 M1.35 -13.05 L1.4 -13.1" fill="none" stroke="#000000" stroke-linecap="round" stroke-linejoin="round" stroke-opacity="0.3019608" stroke-width="0.05"/>
      <path d="M-3.15 -15.95 L-1.65 -15.95 -1.15 -15.85 -0.6 -15.65 -0.05 -15.3 0.25 -15.05 0.35 -14.9 0.6 -14.15 0.55 -13.05 0.3 -13.25 0.25 -13.75 0.25 -13.45 -0.45 -14.1 -0.65 -14.55 -0.8 -14.35 Q-1.45 -14.8 -2.45 -15.05 -0.5 -14.15 0.1 -13.25 L0.0 -13.5 0.1 -13.2 0.25 -12.65 0.0 -11.6 -0.2 -11.35 Q-0.8 -11.05 -1.55 -12.0 L-2.9 -13.9 Q-3.45 -14.85 -2.95 -15.25 -4.1 -16.15 -2.4 -15.6 L-3.15 -15.95 M-2.4 -15.6 L-2.0 -15.4 -2.35 -15.65 -2.4 -15.6 M0.25 -14.45 L0.35 -13.9 0.25 -14.45 M-0.3 -11.85 L-0.25 -11.9 -0.3 -11.85 M-0.9 -12.35 L-0.65 -12.7 -0.9 -12.35 M-2.9 -15.2 L-2.5 -15.15 -2.9 -15.2 M-0.9 -15.55 L-0.6 -14.85 -0.9 -15.55 M-2.2 -13.4 L-1.3 -13.85 -2.2 -13.4" fill="#73981b" fill-rule="evenodd" stroke="none"/>
      <path d="M-3.15 -15.95 L-2.4 -15.6 Q-4.1 -16.15 -2.95 -15.25 -3.45 -14.85 -2.9 -13.9 L-1.55 -12.0 Q-0.8 -11.05 -0.2 -11.35 L-0.2 -11.3 -0.35 -11.2 -1.2 -11.25 Q-2.5 -12.45 -3.45 -14.0 L-4.95 -15.6 -4.85 -15.65 -3.15 -15.95 M0.25 -12.65 L0.1 -13.2 0.0 -13.5 0.1 -13.25 Q-0.5 -14.15 -2.45 -15.05 -1.45 -14.8 -0.8 -14.35 L-0.65 -14.55 -0.45 -14.1 0.25 -13.45 0.25 -13.75 0.3 -13.25 0.55 -13.05 0.25 -12.65" fill="#4b760a" fill-rule="evenodd" stroke="none"/>
      <path d="M-2.4 -15.6 L-2.35 -15.65 -2.0 -15.4 -2.4 -15.6" fill="#416609" fill-rule="evenodd" stroke="none"/>
      <path d="M0.35 -13.9 L0.25 -14.45 M-0.65 -12.7 L-0.9 -12.35 M-1.3 -13.85 L-2.2 -13.4 M-0.6 -14.85 L-0.9 -15.55 M-2.5 -15.15 L-2.9 -15.2" fill="none" stroke="#000000" stroke-linecap="round" stroke-linejoin="round" stroke-opacity="0.12156863" stroke-width="0.05"/>
      <path d="M0.55 -13.05 L0.6 -14.15 0.35 -14.9 0.25 -15.05 -0.05 -15.3 -0.6 -15.65 -1.15 -15.85 -1.65 -15.95 -3.15 -15.95 -4.85 -15.65 -4.95 -15.6 -3.45 -14.0 Q-2.5 -12.45 -1.2 -11.25 L-0.35 -11.2 -0.2 -11.3 -0.2 -11.35 0.0 -11.6 0.25 -12.65 M0.55 -13.05 L0.25 -12.65 M-0.25 -11.9 L-0.3 -11.85" fill="none" stroke="#000000" stroke-linecap="round" stroke-linejoin="round" stroke-opacity="0.3019608" stroke-width="0.05"/>
      <path d="M-2.3 -10.8 L-2.25 -11.65 -2.2 -12.0 -2.05 -12.25 -1.75 -12.6 -1.55 -12.8 -1.45 -12.85 -0.85 -13.05 0.0 -13.0 -0.15 -12.9 -0.55 -12.85 -0.35 -12.85 -0.85 -12.4 -1.15 -12.3 -1.0 -12.2 -1.55 -11.2 -0.2 -12.75 -0.35 -12.7 -0.1 -12.75 0.3 -12.85 1.1 -12.7 1.3 -12.6 Q1.55 -12.25 0.75 -11.75 L-0.75 -10.95 -1.8 -10.85 Q-2.45 -10.2 -2.05 -11.2 L-2.3 -10.8 M-2.05 -11.2 L-1.9 -11.4 -2.05 -11.2 M-1.1 -12.85 L-0.65 -12.85 -1.1 -12.85 M0.9 -12.5 L0.9 -12.55 0.9 -12.5 M0.5 -12.15 L0.25 -12.3 0.5 -12.15 M-1.75 -10.9 L-1.65 -11.15 -1.75 -10.9 M-1.95 -12.1 L-1.4 -12.3 -1.95 -12.1 M-0.35 -11.4 L-0.65 -11.9 -0.35 -11.4" fill="#73981b" fill-rule="evenodd" stroke="none"/>
      <path d="M-2.3 -10.8 L-2.05 -11.2 Q-2.45 -10.2 -1.8 -10.85 L-0.75 -10.95 0.75 -11.75 Q1.55 -12.25 1.3 -12.6 L1.35 -12.6 1.4 -12.5 1.35 -12.0 -0.8 -10.6 -2.05 -9.65 -2.05 -9.7 -2.3 -10.8 M0.3 -12.85 L-0.1 -12.75 -0.35 -12.7 -0.2 -12.75 -1.55 -11.2 -1.0 -12.2 -1.15 -12.3 -0.85 -12.4 -0.35 -12.85 -0.55 -12.85 -0.15 -12.9 0.0 -13.0 0.3 -12.85" fill="#4b760a" fill-rule="evenodd" stroke="none"/>
      <path d="M-2.05 -11.2 L-1.9 -11.4 -2.05 -11.2" fill="#416609" fill-rule="evenodd" stroke="none"/>
      <path d="M-0.65 -12.85 L-1.1 -12.85 M0.25 -12.3 L0.5 -12.15 M-0.65 -11.9 L-0.35 -11.4 M-1.4 -12.3 L-1.95 -12.1 M-1.65 -11.15 L-1.75 -10.9" fill="none" stroke="#000000" stroke-linecap="round" stroke-linejoin="round" stroke-opacity="0.12156863" stroke-width="0.05"/>
      <path d="M0.0 -13.0 L-0.85 -13.05 -1.45 -12.85 -1.55 -12.8 -1.75 -12.6 -2.05 -12.25 -2.2 -12.0 -2.25 -11.65 -2.3 -10.8 -2.05 -9.7 -2.05 -9.65 -0.8 -10.6 1.35 -12.0 1.4 -12.5 1.35 -12.6 1.3 -12.6 1.1 -12.7 0.3 -12.85 M0.0 -13.0 L0.3 -12.85 M0.9 -12.55 L0.9 -12.5" fill="none" stroke="#000000" stroke-linecap="round" stroke-linejoin="round" stroke-opacity="0.3019608" stroke-width="0.05"/>
      <path d="M3.8 -15.65 L2.8 -16.1 2.4 -16.2 1.95 -16.2 1.55 -16.05 1.3 -15.95 1.2 -15.9 0.85 -15.35 0.7 -14.5 0.95 -14.55 1.05 -14.9 1.0 -14.7 1.6 -14.95 1.85 -15.3 1.85 -15.05 3.15 -15.1 Q1.65 -15.0 1.1 -14.5 L1.15 -14.7 1.05 -14.4 0.8 -14.05 Q0.75 -13.5 0.85 -13.1 L0.9 -12.9 2.0 -12.95 3.25 -14.15 Q3.8 -14.75 3.55 -15.2 4.5 -15.5 3.2 -15.6 L3.8 -15.65 M3.2 -15.6 L2.95 -15.55 3.2 -15.6 M1.2 -15.45 L1.05 -15.05 1.2 -15.45 M1.1 -13.25 L1.1 -13.3 1.1 -13.25 M1.65 -13.45 L1.45 -13.85 1.65 -13.45 M3.5 -15.15 L3.25 -15.2 3.5 -15.15 M2.2 -16.0 L1.85 -15.55 2.2 -16.0 M2.7 -13.9 L2.15 -14.55 2.7 -13.9" fill="#73981b" fill-rule="evenodd" stroke="none"/>
      <path d="M3.8 -15.65 L3.2 -15.6 Q4.5 -15.5 3.55 -15.2 3.8 -14.75 3.25 -14.15 L2.0 -12.95 0.9 -12.9 0.95 -12.8 1.0 -12.75 Q1.25 -12.45 1.6 -12.55 2.75 -13.05 3.7 -14.05 4.4 -14.6 5.0 -14.8 L4.95 -14.9 3.8 -15.65 M0.8 -14.05 L1.05 -14.4 1.15 -14.7 1.1 -14.5 Q1.65 -15.0 3.15 -15.1 L1.85 -15.05 1.85 -15.3 1.6 -14.95 1.0 -14.7 1.05 -14.9 0.95 -14.55 0.7 -14.5 0.8 -14.05" fill="#4b760a" fill-rule="evenodd" stroke="none"/>
      <path d="M3.2 -15.6 L2.95 -15.55 3.2 -15.6" fill="#416609" fill-rule="evenodd" stroke="none"/>
      <path d="M1.05 -15.05 L1.2 -15.45 M1.45 -13.85 L1.65 -13.45 M2.15 -14.55 L2.7 -13.9 M1.85 -15.55 L2.2 -16.0 M3.25 -15.2 L3.5 -15.15" fill="none" stroke="#000000" stroke-linecap="round" stroke-linejoin="round" stroke-opacity="0.12156863" stroke-width="0.05"/>
      <path d="M0.7 -14.5 L0.85 -15.35 1.2 -15.9 1.3 -15.95 1.55 -16.05 1.95 -16.2 2.4 -16.2 2.8 -16.1 3.8 -15.65 4.95 -14.9 5.0 -14.8 Q4.4 -14.6 3.7 -14.05 2.75 -13.05 1.6 -12.55 1.25 -12.45 1.0 -12.75 L0.95 -12.8 0.9 -12.9 0.85 -13.1 Q0.75 -13.5 0.8 -14.05 M0.7 -14.5 L0.8 -14.05 M1.1 -13.3 L1.1 -13.25" fill="none" stroke="#000000" stroke-linecap="round" stroke-linejoin="round" stroke-opacity="0.3019608" stroke-width="0.05"/>
      <path d="M4.2 -15.75 L4.25 -15.7 4.5 -15.6 4.4 -15.65 4.25 -15.65 4.15 -15.65 3.95 -15.6 3.95 -15.65 3.95 -15.6 3.5 -15.4 Q2.8 -15.05 2.35 -14.35 L2.2 -14.2 2.05 -14.1 2.05 -14.05 1.7 -13.45 1.5 -13.45 1.45 -13.5 1.1 -13.85 0.95 -13.9 0.55 -13.8 0.95 -13.9 Q0.5 -13.7 0.7 -13.5 L1.0 -13.2 1.15 -12.85 1.25 -12.15 Q0.95 -13.3 0.15 -13.5 L0.55 -13.8 0.5 -14.1 0.85 -14.7 0.5 -14.1 0.4 -14.25 0.25 -14.35 0.2 -14.5 0.1 -14.5 0.0 -14.6 0.1 -16.0 Q0.35 -16.85 0.9 -17.6 0.15 -16.1 0.3 -15.55 L0.8 -15.45 Q0.75 -16.05 1.0 -16.95 L1.7 -18.0 Q1.15 -16.7 1.4 -15.7 L1.0 -15.6 Q0.75 -14.95 1.0 -14.8 L0.85 -14.7 Q0.7 -14.2 1.6 -13.65 2.45 -15.15 3.4 -15.65 L4.2 -15.75 M2.05 -12.6 L2.05 -12.05 1.8 -11.15 1.65 -10.75 1.5 -10.5 1.25 -10.95 1.3 -10.4 1.25 -10.5 1.15 -10.5 0.7 -10.8 Q0.45 -11.85 -0.5 -12.75 L-2.35 -11.6 -2.95 -11.25 -2.95 -11.3 -1.1 -12.75 Q-0.9 -12.9 -1.0 -13.5 L-1.95 -12.95 -1.15 -13.6 Q-1.05 -13.8 -1.25 -14.05 L-1.55 -13.85 -2.1 -14.1 -2.5 -14.15 -2.7 -14.2 -3.65 -14.3 -4.25 -14.15 -4.3 -14.3 -2.45 -14.55 -1.9 -14.35 Q-1.7 -14.2 -1.4 -14.2 L-0.95 -14.5 Q-1.2 -14.9 -2.1 -15.15 L-1.65 -15.2 -1.0 -14.8 -0.75 -14.4 -1.0 -14.8 -0.45 -14.75 -0.75 -15.4 -0.8 -15.95 Q-0.2 -15.7 0.0 -16.15 0.2 -16.55 0.05 -15.85 L-0.05 -14.55 -0.1 -14.6 -0.4 -14.55 -0.75 -14.4 -0.85 -14.25 -1.0 -14.0 -1.0 -13.95 -0.75 -13.5 -0.5 -13.55 -0.5 -13.5 -0.15 -13.6 Q-0.55 -13.35 -0.4 -13.0 L-0.15 -12.5 -0.15 -12.6 Q0.8 -11.55 1.05 -11.65 1.25 -11.55 1.3 -12.0 1.65 -11.65 2.05 -12.6 M1.0 -15.6 Q0.45 -15.25 0.2 -14.5 0.45 -15.25 1.0 -15.6 M-0.4 -14.55 L-0.45 -14.75 -0.4 -14.55 M-1.0 -14.0 L-1.25 -14.05 -1.0 -14.0 M-0.5 -12.75 L-0.85 -13.05 -0.55 -13.5 -0.5 -13.5 -0.55 -13.5 -0.85 -13.05 -0.5 -12.75 M-0.75 -13.5 L-1.0 -13.5 -0.75 -13.5" fill="#cb3452" fill-rule="evenodd" stroke="none"/>
      <path d="M0.0 -14.6 L0.1 -14.5 0.2 -14.45 0.2 -14.4 0.35 -14.2 0.45 -13.85 0.2 -13.95 0.2 -13.9 0.2 -13.7 0.05 -13.85 -0.35 -13.75 Q-0.55 -13.75 -0.75 -14.05 L-0.95 -13.95 -0.8 -14.15 -0.85 -14.25 -0.75 -14.4 -0.4 -14.55 -0.1 -14.6 -0.05 -14.55 0.0 -14.6" fill="#fde3be" fill-rule="evenodd" stroke="none"/>
      <path d="M0.5 -14.1 L0.55 -13.8 0.15 -13.5 0.0 -13.55 -0.15 -13.6 -0.5 -13.5 -0.5 -13.55 -0.75 -13.5 -1.0 -13.95 -1.0 -14.0 -0.85 -14.25 -0.8 -14.15 -0.95 -13.95 -0.75 -14.05 Q-0.55 -13.75 -0.35 -13.75 L0.05 -13.85 0.2 -13.7 0.2 -13.9 0.2 -13.95 0.45 -13.85 0.35 -14.2 0.4 -14.25 0.5 -14.1" fill="#f39101" fill-rule="evenodd" stroke="none"/>
      <path d="M4.2 -15.75 L3.4 -15.65 Q2.45 -15.15 1.6 -13.65 0.7 -14.2 0.85 -14.7 L1.0 -14.8 Q0.75 -14.95 1.0 -15.6 L1.4 -15.7 3.7 -15.95 3.75 -15.95 4.2 -15.75 M1.45 -13.5 L1.5 -13.45 1.7 -13.2 1.75 -13.1 2.05 -12.6 Q1.65 -11.65 1.3 -12.0 1.25 -11.55 1.05 -11.65 0.8 -11.55 -0.15 -12.6 L-0.15 -12.5 -0.4 -13.0 Q-0.55 -13.35 -0.15 -13.6 L0.0 -13.55 0.15 -13.5 Q0.95 -13.3 1.25 -12.15 L1.15 -12.85 1.0 -13.2 1.45 -13.5 M-2.95 -11.3 L-2.75 -11.75 -3.2 -11.1 Q-3.15 -12.2 -2.7 -12.9 L-2.2 -13.4 -1.55 -13.85 -1.25 -14.05 Q-1.05 -13.8 -1.15 -13.6 L-1.95 -12.95 -1.0 -13.5 Q-0.9 -12.9 -1.1 -12.75 L-2.95 -11.3 M-4.3 -14.3 L-4.3 -14.55 -4.15 -14.9 -4.05 -15.15 -3.95 -15.35 -3.7 -15.7 -3.45 -15.95 Q-3.15 -16.4 -2.45 -16.5 L-2.35 -16.5 Q-1.35 -16.3 -0.75 -15.4 L-0.45 -14.75 -1.0 -14.8 -1.65 -15.2 -2.1 -15.15 Q-1.2 -14.9 -0.95 -14.5 L-1.4 -14.2 Q-1.7 -14.2 -1.9 -14.35 L-2.45 -14.55 -4.3 -14.3 M-0.8 -15.95 L-0.6 -16.75 1.3 -18.3 1.9 -18.15 1.7 -18.0 1.0 -16.95 Q0.75 -16.05 0.8 -15.45 L0.3 -15.55 Q0.15 -16.1 0.9 -17.6 0.35 -16.85 0.1 -16.0 L0.0 -14.6 -0.05 -14.55 0.05 -15.85 Q0.2 -16.55 0.0 -16.15 -0.2 -15.7 -0.8 -15.95" fill="#fc758f" fill-rule="evenodd" stroke="none"/>
      <path d="M0.95 -13.9 L1.1 -13.85 1.45 -13.5 1.0 -13.2 0.7 -13.5 Q0.5 -13.7 0.95 -13.9" fill="url(#gradient0)" fill-rule="evenodd" stroke="none"/>
      <path d="M1.5 -13.45 L1.7 -13.45 2.05 -14.05 2.05 -14.1 2.2 -14.2 2.35 -14.35 Q2.8 -15.05 3.5 -15.4 L3.95 -15.6 3.95 -15.65 3.95 -15.6 4.15 -15.65 4.25 -15.65 4.4 -15.65 4.5 -15.6 4.25 -15.7 4.2 -15.75 M0.85 -14.7 L0.5 -14.1 0.55 -13.8 0.95 -13.9 1.1 -13.85 1.45 -13.5 1.5 -13.45 1.7 -13.2 1.75 -13.1 2.05 -12.6 2.05 -12.05 1.8 -11.15 1.65 -10.75 1.5 -10.5 1.25 -10.95 1.3 -10.4 1.25 -10.5 1.15 -10.5 0.7 -10.8 Q0.45 -11.85 -0.5 -12.75 L-2.35 -11.6 -2.95 -11.25 -2.95 -11.3 -2.75 -11.75 -3.2 -11.1 Q-3.15 -12.2 -2.7 -12.9 L-2.2 -13.4 -1.55 -13.85 -2.1 -14.1 -2.5 -14.15 -2.7 -14.2 -3.65 -14.3 -4.25 -14.15 -4.3 -14.3 -4.3 -14.55 -4.15 -14.9 -4.05 -15.15 -3.95 -15.35 -3.7 -15.7 -3.45 -15.95 Q-3.15 -16.4 -2.45 -16.5 L-2.35 -16.5 Q-1.35 -16.3 -0.75 -15.4 L-0.8 -15.95 -0.6 -16.75 1.3 -18.3 1.9 -18.15 1.7 -18.0 Q1.15 -16.7 1.4 -15.7 M3.75 -15.95 L4.2 -15.75 M-1.0 -14.8 L-1.65 -15.2 -2.1 -15.15 M0.0 -14.6 L0.1 -14.5 0.2 -14.5 Q0.45 -15.25 1.0 -15.6 L1.4 -15.7 M0.0 -14.6 L-0.05 -14.55 -0.1 -14.6 -0.4 -14.55 -0.75 -14.4 -0.85 -14.25 -1.0 -14.0 -1.0 -13.95 -0.75 -13.5 -0.5 -13.55 -0.5 -13.5 -0.15 -13.6 0.0 -13.55 0.15 -13.5 0.55 -13.8 M0.4 -14.25 L0.25 -14.35 0.2 -14.5 M0.4 -14.25 L0.5 -14.1 M1.0 -14.8 L0.85 -14.7 M-0.45 -14.75 L-0.75 -15.4 M-0.45 -14.75 L-0.4 -14.55 M-1.55 -13.85 L-1.25 -14.05 -1.0 -14.0 M-0.75 -14.4 L-1.0 -14.8 M-0.5 -13.5 L-0.55 -13.5 -0.85 -13.05 -0.5 -12.75 M-1.0 -13.5 L-0.75 -13.5 M-0.05 -14.55 L0.05 -15.85 Q0.2 -16.55 0.0 -16.15 M1.25 -12.15 Q0.95 -13.3 0.15 -13.5 M-1.0 -13.5 L-1.95 -12.95" fill="none" stroke="#581003" stroke-linecap="round" stroke-linejoin="round" stroke-opacity="0.72156864" stroke-width="0.05"/>
    </g>
    <linearGradient gradientTransform="matrix(4.0E-4, -0.001, -0.0015, -5.0E-4, 1.0, -13.3)" gradientUnits="userSpaceOnUse" id="gradient0" spreadMethod="pad" x1="-819.2" x2="819.2">
      <stop offset="0.0" stop-color="#fb5e8c"/>
      <stop offset="1.0" stop-color="#ff9194"/>
    </linearGradient>
  </defs>
</svg>
