<?xml version="1.0" encoding="UTF-8" standalone="no"?>
<svg xmlns:xlink="http://www.w3.org/1999/xlink" height="440.0px" width="440.0px" xmlns="http://www.w3.org/2000/svg">
  <g transform="matrix(10.0, 0.0, 0.0, 10.0, 0.0, 0.0)">
    <use height="44.0" transform="matrix(1.0, 0.0, 0.0, 1.0, 0.0, 0.0)" width="44.0" xlink:href="#shape0"/>
    <use height="19.0" transform="matrix(1.5993, 0.0923, -0.1078, 1.8672, 5.1, 4.9)" width="22.8" xlink:href="#sprite0"/>
  </g>
  <defs>
    <g id="shape0" transform="matrix(1.0, 0.0, 0.0, 1.0, 0.0, 0.0)">
      <path d="M44.0 44.0 L0.0 44.0 0.0 0.0 44.0 0.0 44.0 44.0" fill="#33cc33" fill-opacity="0.0" fill-rule="evenodd" stroke="none"/>
    </g>
    <g id="sprite0" transform="matrix(1.0, 0.0, 0.0, 1.0, 0.0, 0.0)">
      <use height="19.0" transform="matrix(1.0, 0.0, 0.0, 1.0, 0.0, 0.0)" width="22.8" xlink:href="#sprite1"/>
    </g>
    <g id="sprite1" transform="matrix(1.0, 0.0, 0.0, 1.0, 13.5, 24.85)">
      <use height="19.0" transform="matrix(-1.0, 0.0, 0.0, 1.0, 9.3, -24.85)" width="22.8" xlink:href="#sprite2"/>
    </g>
    <g id="sprite2" transform="matrix(1.0, 0.0, 0.0, 1.0, 9.35, 24.9)">
      <use height="19.0" transform="matrix(1.0, 0.0, 0.0, 1.0, -9.35, -24.9)" width="22.8" xlink:href="#shape1"/>
    </g>
    <g id="shape1" transform="matrix(1.0, 0.0, 0.0, 1.0, 9.35, 24.9)">
      <path d="M-5.7 -11.6 L-5.05 -11.05 -4.25 -11.9 -4.05 -12.6 -4.65 -12.95 -4.85 -12.3 -5.7 -11.6" fill="#928e31" fill-rule="evenodd" stroke="none"/>
      <path d="M-9.3 -17.2 L-9.35 -17.2 -9.3 -17.2" fill="#f3f1d8" fill-rule="evenodd" stroke="none"/>
      <path d="M-9.35 -17.2 L-9.35 -17.15 -9.3 -17.2 -9.35 -17.2" fill="#d8ca96" fill-rule="evenodd" stroke="none"/>
      <path d="M-4.65 -12.95 L-6.95 -14.0 Q-8.3 -15.45 -8.95 -17.25 L-9.3 -17.2 -7.45 -13.65 -4.85 -12.3 -4.65 -12.95" fill="#b80c0c" fill-rule="evenodd" stroke="none"/>
      <path d="M-9.35 -17.15 L-7.8 -13.2 -7.45 -13.65 -9.3 -17.2 -9.35 -17.15" fill="#700707" fill-rule="evenodd" stroke="none"/>
      <path d="M-7.8 -13.2 L-5.7 -11.6 -4.85 -12.3 -7.45 -13.65 -7.8 -13.2" fill="#470505" fill-rule="evenodd" stroke="none"/>
      <path d="M-4.65 -12.95 L-6.95 -14.0 Q-8.3 -15.45 -8.95 -17.25 L-9.3 -17.2 -9.35 -17.2 -9.35 -17.15 -7.8 -13.2 -5.7 -11.6 -5.05 -11.05 M-4.05 -12.6 L-4.65 -12.95 M-9.35 -17.2 L-9.3 -17.2" fill="none" stroke="#000000" stroke-linecap="round" stroke-linejoin="round" stroke-opacity="0.3019608" stroke-width="0.05"/>
      <path d="M5.0 -9.45 L4.8 -8.8 5.25 -7.7 4.4 -7.55 4.1 -8.7 4.3 -9.4 5.0 -9.45" fill="#928e31" fill-rule="evenodd" stroke="none"/>
      <path d="M11.2 -10.8 L11.15 -10.8 11.2 -10.8" fill="#f3f1d8" fill-rule="evenodd" stroke="none"/>
      <path d="M11.2 -10.75 L11.15 -10.8 11.2 -10.8 11.2 -10.75" fill="#d8ca96" fill-rule="evenodd" stroke="none"/>
      <path d="M5.0 -9.45 L7.5 -9.2 Q9.45 -9.75 10.9 -10.95 L11.15 -10.8 7.8 -8.65 4.8 -8.8 5.0 -9.45" fill="#b80c0c" fill-rule="evenodd" stroke="none"/>
      <path d="M11.15 -10.8 L11.2 -10.75 7.85 -8.1 7.8 -8.65 11.15 -10.8" fill="#700707" fill-rule="evenodd" stroke="none"/>
      <path d="M4.8 -8.8 L7.8 -8.65 7.85 -8.1 5.25 -7.7 4.8 -8.8" fill="#470505" fill-rule="evenodd" stroke="none"/>
      <path d="M11.2 -10.75 L11.2 -10.8 11.15 -10.8 10.9 -10.95 Q9.45 -9.75 7.5 -9.2 L5.0 -9.45 M11.15 -10.8 L11.2 -10.8 M5.25 -7.7 L7.85 -8.1 11.2 -10.75 M4.3 -9.4 L5.0 -9.45 M5.25 -7.7 L4.4 -7.55" fill="none" stroke="#000000" stroke-linecap="round" stroke-linejoin="round" stroke-opacity="0.3019608" stroke-width="0.05"/>
      <path d="M6.65 -8.6 L7.2 -8.0 6.1 -7.15 4.4 -7.15 0.75 -8.35 -6.35 -13.45 Q-5.35 -17.35 1.9 -16.25 L2.15 -16.35 Q5.15 -15.8 6.75 -11.45 L7.15 -10.4 6.4 -9.55 2.75 -8.55 6.65 -8.6" fill="#3e3e22" fill-rule="evenodd" stroke="none"/>
      <path d="M6.65 -8.6 L2.75 -8.55 6.4 -9.55 6.45 -9.55 6.4 -8.85 6.65 -8.6" fill="#5c5c34" fill-rule="evenodd" stroke="none"/>
      <path d="M6.4 -9.55 L7.15 -10.4 6.75 -11.45 Q5.15 -15.8 2.15 -16.35 L1.9 -16.25 Q-5.35 -17.35 -6.35 -13.45 L0.75 -8.35 4.4 -7.15 6.1 -7.15 7.2 -8.0 6.65 -8.6" fill="none" stroke="#000000" stroke-linecap="round" stroke-linejoin="round" stroke-opacity="0.3019608" stroke-width="0.05"/>
      <path d="M-4.8 -12.25 L-4.75 -12.2 -4.5 -12.75 -4.8 -12.25" fill="#2b362d" fill-rule="evenodd" stroke="none"/>
      <path d="M-4.55 -17.3 Q-4.55 -17.3 -4.65 -17.25 -5.0 -16.55 -5.1 -17.55 L-5.1 -17.95 -5.3 -17.75 Q-5.4 -13.3 -7.45 -12.55 -6.85 -12.35 -7.1 -10.8 -5.65 -10.5 -4.75 -12.2 L-4.8 -12.25 Q-5.0 -11.95 -5.25 -12.4 -5.5 -13.8 -4.95 -14.65 -4.5 -15.6 -4.15 -14.9 L-4.1 -14.9 Q-4.05 -14.75 -3.9 -15.25 -4.55 -15.45 -4.15 -16.65 L-4.55 -17.3" fill="#3e3e22" fill-rule="evenodd" stroke="none"/>
      <path d="M-4.55 -17.3 L-4.15 -16.65 Q-3.8 -17.95 -2.25 -20.3 -3.7 -18.7 -3.95 -19.25 -3.9 -17.9 -4.55 -17.3" fill="#54542d" fill-rule="evenodd" stroke="none"/>
      <path d="M-7.45 -12.55 Q-5.4 -13.3 -5.3 -17.75 L-5.1 -17.95 -5.1 -17.55 Q-5.0 -16.55 -4.65 -17.25 -4.55 -17.3 -4.55 -17.3 -3.9 -17.9 -3.95 -19.25 -3.7 -18.7 -2.25 -20.3 -3.8 -17.95 -4.15 -16.65 -4.55 -15.45 -3.9 -15.25 M-4.75 -12.2 Q-5.65 -10.5 -7.1 -10.8 M-4.75 -12.2 L-4.5 -12.75" fill="none" stroke="#000000" stroke-linecap="round" stroke-linejoin="round" stroke-opacity="0.47058824" stroke-width="0.05"/>
      <path d="M-3.9 -15.25 Q-4.05 -14.75 -4.1 -14.9 L-4.15 -14.9 Q-4.5 -15.6 -4.95 -14.65 -5.5 -13.8 -5.25 -12.4" fill="none" stroke="#000000" stroke-linecap="round" stroke-linejoin="round" stroke-opacity="0.4509804" stroke-width="0.05"/>
      <path d="M-3.35 -12.25 Q-4.75 -12.2 -6.35 -13.1 -1.45 -17.4 3.25 -20.3 L6.45 -21.45 6.0 -21.1 5.65 -20.85 5.3 -20.55 4.95 -20.25 3.95 -19.7 3.8 -19.65 3.45 -19.4 3.3 -19.25 3.3 -19.15 Q0.05 -16.85 -3.35 -12.25" fill="#5e5433" fill-rule="evenodd" stroke="none"/>
      <path d="M6.55 -21.5 L11.5 -23.35 13.1 -24.9 13.45 -24.8 Q11.9 -23.9 11.85 -22.0 L10.45 -21.85 10.05 -21.45 Q7.4 -21.5 6.5 -20.15 L7.65 -20.0 7.55 -19.65 5.35 -18.15 4.65 -18.2 3.8 -18.15 3.6 -18.05 3.45 -18.05 3.3 -18.1 Q3.15 -18.3 3.15 -18.55 L3.25 -18.75 3.15 -18.85 3.3 -19.15 3.3 -19.25 3.45 -19.4 3.8 -19.65 3.95 -19.7 4.95 -20.25 5.3 -20.55 5.65 -20.85 6.0 -21.1 6.45 -21.45 6.55 -21.5 M4.45 -19.0 Q5.35 -19.1 5.45 -19.7 5.5 -20.0 4.95 -19.7 L4.85 -19.7 4.25 -19.15 4.45 -19.0" fill="#42150b" fill-rule="evenodd" stroke="none"/>
      <path d="M5.35 -18.15 Q2.8 -16.05 3.15 -13.9 3.95 -10.25 -3.35 -12.25 0.05 -16.85 3.3 -19.15 L3.15 -18.85 3.25 -18.75 3.15 -18.55 Q3.15 -18.3 3.3 -18.1 L3.45 -18.05 3.6 -18.05 3.8 -18.15 4.65 -18.2 5.35 -18.15" fill="#8f824e" fill-rule="evenodd" stroke="none"/>
      <path d="M6.45 -21.45 L6.5 -21.5 6.55 -21.5 6.45 -21.45" fill="#858161" fill-rule="evenodd" stroke="none"/>
      <path d="M6.55 -21.5 L11.5 -23.35 13.1 -24.9 13.45 -24.8 Q11.9 -23.9 11.85 -22.0 L10.45 -21.85 10.05 -21.45 Q7.4 -21.5 6.5 -20.15 L7.65 -20.0 7.55 -19.65 5.35 -18.15 Q2.8 -16.05 3.15 -13.9 M-6.35 -13.1 Q-1.45 -17.4 3.25 -20.3 L6.45 -21.45 M6.55 -21.5 L6.45 -21.45 M4.45 -19.0 Q5.35 -19.1 5.45 -19.7 5.5 -20.0 4.95 -19.7 L4.85 -19.7 4.25 -19.15 4.45 -19.0" fill="none" stroke="#000000" stroke-linecap="round" stroke-linejoin="round" stroke-opacity="0.3019608" stroke-width="0.05"/>
      <path d="M6.7 -12.3 L6.65 -12.2 6.6 -12.35 6.7 -12.3" fill="#2f2f19" fill-rule="evenodd" stroke="none"/>
      <path d="M9.75 -14.45 L9.95 -14.6 10.45 -14.7 9.75 -14.45" fill="#2b362d" fill-rule="evenodd" stroke="none"/>
      <path d="M-1.9 -10.35 L1.15 -9.95 0.75 -9.7 -0.8 -9.95 -1.9 -10.35" fill="#3e3e22" fill-rule="evenodd" stroke="none"/>
      <path d="M8.3 -17.45 L1.8 -12.9 2.05 -13.15 3.85 -14.6 Q8.5 -18.25 8.3 -17.45 M0.65 -12.1 L-1.9 -10.35 Q-2.95 -10.95 -2.2 -11.95 L-0.15 -11.75 0.65 -12.1" fill="#75753d" fill-rule="evenodd" stroke="none"/>
      <path d="M6.6 -12.35 L6.65 -12.5 6.7 -12.3 6.6 -12.35" fill="url(#gradient0)" fill-rule="evenodd" stroke="none"/>
      <path d="M9.95 -14.6 L9.75 -14.45 Q8.3 -13.45 6.95 -11.6 L6.65 -12.2 6.7 -12.3 6.65 -12.5 6.6 -12.35 6.55 -12.2 6.2 -12.0 Q6.15 -13.8 4.7 -12.45 3.45 -9.5 4.7 -8.2 2.75 -9.85 1.15 -9.95 L-1.9 -10.35 0.65 -12.1 1.65 -12.7 1.8 -12.9 8.3 -17.45 Q4.6 -14.15 9.95 -14.6" fill="#8f824e" fill-rule="evenodd" stroke="none"/>
      <path d="M9.95 -14.6 Q4.6 -14.15 8.3 -17.45 M1.8 -12.9 L1.65 -12.7 0.65 -12.1 M1.15 -9.95 Q2.75 -9.85 4.7 -8.2 3.45 -9.5 4.7 -12.45 6.15 -13.8 6.2 -12.0 L6.55 -12.2 6.6 -12.35 6.65 -12.5 6.7 -12.3 6.65 -12.2 6.95 -11.6 Q8.3 -13.45 9.75 -14.45 L10.45 -14.7 9.95 -14.6 M1.8 -12.9 L2.05 -13.15 3.85 -14.6 Q8.5 -18.25 8.3 -17.45 M6.65 -12.2 L6.55 -12.2 M6.65 -12.2 L6.6 -12.35 M1.15 -9.95 L0.75 -9.7 M-2.2 -11.95 L-0.15 -11.75 0.65 -12.1" fill="none" stroke="#000000" stroke-linecap="round" stroke-linejoin="round" stroke-opacity="0.3019608" stroke-width="0.05"/>
      <path d="M-1.9 -15.1 L-1.9 -15.05 -1.8 -15.1 -1.9 -15.1" fill="#777257" fill-rule="evenodd" stroke="none"/>
      <path d="M-4.6 -13.55 L-4.65 -13.45 -4.5 -13.5 -4.55 -13.55 -4.6 -13.55 M-4.2 -14.7 L-4.45 -14.65 -4.5 -14.65 -4.4 -14.6 -4.2 -14.7" fill="#666637" fill-rule="evenodd" stroke="none"/>
      <path d="M-6.05 -12.45 L-6.1 -12.4 -5.35 -12.25 -4.75 -12.6 -3.95 -12.9 -3.75 -12.85 -3.0 -13.25 -2.85 -12.75 Q-2.75 -12.75 -1.7 -13.3 -0.8 -13.7 -0.85 -13.9 L-0.45 -14.45 -0.3 -14.7 -1.6 -14.4 -2.7 -14.45 -2.85 -14.9 -2.15 -15.0 -1.9 -15.05 -1.9 -15.1 -2.3 -15.25 -2.4 -15.65 -2.7 -15.75 -2.95 -15.65 -3.0 -15.65 -3.4 -15.6 -3.8 -15.6 -3.8 -15.65 -3.9 -15.65 Q-4.1 -15.25 -4.85 -14.6 L-5.6 -13.7 -5.65 -13.7 Q-5.5 -13.35 -5.75 -12.75 L-6.05 -12.45 M-4.6 -13.55 L-4.5 -13.6 -4.55 -13.65 -4.5 -13.8 -4.1 -14.25 -3.9 -14.4 -3.65 -14.45 -3.4 -14.45 -3.05 -14.25 -2.95 -14.25 -2.85 -14.15 -2.9 -14.05 Q-2.7 -13.95 -2.9 -13.85 L-2.95 -13.65 Q-3.55 -13.3 -4.15 -13.05 L-4.4 -13.0 -4.4 -13.1 -4.65 -13.45 -4.6 -13.55 M-4.2 -14.7 L-3.95 -14.8 -3.95 -14.85 -3.55 -14.9 -3.6 -14.85 -3.7 -14.8 -3.6 -14.65 -3.7 -14.6 Q-3.95 -14.45 -4.1 -14.45 L-4.15 -14.45 -4.5 -14.5 -4.4 -14.6 -4.5 -14.65 -4.45 -14.65 -4.2 -14.7" fill="#5e0605" fill-rule="evenodd" stroke="none"/>
      <path d="M-4.65 -13.45 L-4.4 -13.1 -4.4 -13.0 -4.15 -13.05 Q-3.55 -13.3 -2.95 -13.65 L-2.9 -13.85 Q-2.7 -13.95 -2.9 -14.05 L-2.85 -14.15 -2.95 -14.25 -3.05 -14.25 -3.4 -14.45 -3.65 -14.45 -3.9 -14.4 -4.1 -14.25 -4.5 -13.8 -4.55 -13.65 -4.5 -13.6 -4.6 -13.55 -4.55 -13.55 -4.5 -13.5 -4.65 -13.45 M-4.4 -14.6 L-4.5 -14.5 -4.15 -14.45 -4.1 -14.45 Q-3.95 -14.45 -3.7 -14.6 L-3.6 -14.65 -3.7 -14.8 -3.6 -14.85 -3.55 -14.9 -3.95 -14.85 -3.95 -14.8 -4.2 -14.7 -4.4 -14.6" fill="#240c06" fill-rule="evenodd" stroke="none"/>
      <path d="M-6.05 -12.45 L-5.75 -12.75 Q-5.5 -13.35 -5.65 -13.7 L-5.6 -13.7 -4.85 -14.6 Q-4.1 -15.25 -3.9 -15.65 M-4.65 -13.45 L-4.4 -13.1 -4.4 -13.0 -4.15 -13.05 Q-3.55 -13.3 -2.95 -13.65 L-2.9 -13.85 Q-2.7 -13.95 -2.9 -14.05 L-2.85 -14.15 -2.95 -14.25 -3.05 -14.25 -3.4 -14.45 -3.65 -14.45 -3.9 -14.4 -4.1 -14.25 -4.5 -13.8 -4.55 -13.65 -4.5 -13.6 -4.6 -13.55 -4.65 -13.45 -4.5 -13.5 -4.55 -13.55 -4.6 -13.55 M-4.4 -14.6 L-4.5 -14.5 -4.15 -14.45 -4.1 -14.45 Q-3.95 -14.45 -3.7 -14.6 L-3.6 -14.65 -3.7 -14.8 -3.6 -14.85 -3.55 -14.9 -3.95 -14.85 -3.95 -14.8 -4.2 -14.7 -4.45 -14.65 -4.5 -14.65 -4.4 -14.6 -4.2 -14.7" fill="none" stroke="#000000" stroke-linecap="round" stroke-linejoin="round" stroke-opacity="0.3019608" stroke-width="0.05"/>
      <path d="M0.45 -14.95 Q1.6 -14.8 1.55 -15.95 1.6 -14.95 2.6 -14.6 1.45 -14.65 1.1 -13.5 1.05 -14.55 0.45 -14.95 M0.65 -13.1 L0.65 -11.6 0.1 -12.1 0.65 -13.1" fill="#5e0605" fill-rule="evenodd" stroke="none"/>
      <path d="M-7.2 -9.4 L-7.1 -9.25 -6.3 -8.7 -5.65 -9.0 -0.45 -7.9 3.85 -5.9 4.5 -6.35 4.25 -7.15 4.85 -7.6 4.7 -8.35 1.45 -11.3 Q0.1 -12.0 -1.25 -12.75 L-6.65 -13.65 -7.15 -13.25 -7.05 -12.3 -6.5 -11.8 -1.25 -10.75 -6.55 -12.45 -6.4 -12.8 -6.35 -12.9 -1.5 -12.35 3.25 -9.55 3.95 -8.15 2.65 -7.05 -0.3 -8.5 -6.4 -9.55 -7.2 -9.4" fill="#6d653a" fill-rule="evenodd" stroke="none"/>
      <path d="M-7.2 -9.4 L-6.4 -9.55 -0.3 -8.5 2.65 -7.05 3.95 -8.15 3.25 -9.55 -1.5 -12.35 -6.35 -12.9 -6.4 -12.8 -6.55 -12.45 -1.25 -10.75 -6.5 -11.8 -6.55 -11.8 -7.05 -11.6 -7.65 -10.35 -7.2 -9.4" fill="#9e9354" fill-rule="evenodd" stroke="none"/>
      <path d="M-6.5 -11.8 L-7.05 -12.3 -7.15 -13.25 -6.65 -13.65 -1.25 -12.75 Q0.1 -12.0 1.45 -11.3 L4.7 -8.35 4.85 -7.6 4.25 -7.15 4.5 -6.35 3.85 -5.9 -0.45 -7.9 -5.65 -9.0 -6.3 -8.7 -7.1 -9.25 -7.2 -9.4 M-6.5 -11.8 L-6.55 -11.8 -7.05 -11.6 -7.65 -10.35 -7.2 -9.4" fill="none" stroke="#000000" stroke-linecap="round" stroke-linejoin="round" stroke-opacity="0.3019608" stroke-width="0.05"/>
      <path d="M4.15 -6.7 L1.0 -8.7 0.9 -8.75 -1.75 -9.8 -6.6 -10.6 -7.15 -10.6 -7.5 -10.05" fill="none" stroke="#bb3301" stroke-linecap="round" stroke-linejoin="round" stroke-opacity="0.5019608" stroke-width="0.05"/>
      <path d="M1.05 -8.45 L1.0 -8.45 0.95 -8.45 0.8 -8.1 0.9 -7.8 1.1 -7.75 1.4 -8.1 1.7 -8.8 1.75 -8.95 Q1.15 -8.1 1.05 -8.45 M2.8 -8.45 Q2.25 -7.6 2.05 -8.0 L2.05 -7.95 2.0 -7.9 1.8 -7.6 1.9 -7.25 2.15 -7.25 2.45 -7.6 2.75 -8.3 2.8 -8.45" fill="#660000" fill-rule="evenodd" stroke="none"/>
      <path d="M1.05 -8.45 Q1.15 -8.1 1.75 -8.95 L1.75 -9.1 1.7 -9.6 1.55 -9.9 1.4 -9.85 1.4 -9.6 1.15 -8.85 1.05 -8.45 M2.75 -9.05 L2.6 -9.4 2.45 -9.35 2.4 -9.15 2.25 -8.3 2.05 -8.0 Q2.25 -7.6 2.8 -8.45 L2.75 -8.6 2.75 -9.05" fill="#ca0202" fill-rule="evenodd" stroke="none"/>
      <path d="M1.75 -8.95 L1.7 -8.8 1.4 -8.1 1.1 -7.75 0.9 -7.8 0.8 -8.1 0.95 -8.45 1.0 -8.45 1.05 -8.45 M1.7 -9.6 L1.55 -9.9 1.4 -9.85 1.4 -9.6 1.15 -8.85 1.05 -8.45 M2.05 -8.0 L2.25 -8.3 2.4 -9.15 2.45 -9.35 2.6 -9.4 2.75 -9.05 M2.05 -8.0 L2.05 -7.95 2.0 -7.9 1.8 -7.6 1.9 -7.25 2.15 -7.25 2.45 -7.6 2.75 -8.3 2.8 -8.45" fill="none" stroke="#382510" stroke-linecap="round" stroke-linejoin="round" stroke-opacity="0.3019608" stroke-width="0.05"/>
      <path d="M-6.15 -14.3 L-5.65 -13.45 -4.3 -13.5 -3.7 -14.5 -4.15 -15.1 -4.8 -14.45 -6.15 -14.3" fill="#5e0605" fill-rule="evenodd" stroke="none"/>
      <path d="M-7.9 -20.5 L-6.95 -17.2 -4.8 -14.45 -4.15 -15.1 -6.2 -17.25 -7.5 -19.7 -7.9 -20.5" fill="#f00f0f" fill-rule="evenodd" stroke="none"/>
      <path d="M-8.35 -20.7 L-8.15 -19.85 -7.6 -16.9 -6.95 -17.2 -7.9 -20.5 -8.35 -20.7" fill="#b80c0c" fill-rule="evenodd" stroke="none"/>
      <path d="M-6.95 -17.2 L-7.6 -16.9 -6.15 -14.3 -4.8 -14.45 -6.95 -17.2" fill="#980a0a" fill-rule="evenodd" stroke="none"/>
      <path d="M-7.6 -16.9 L-8.15 -19.85 -8.35 -20.7 M-7.6 -16.9 L-6.15 -14.3 -5.65 -13.45 M-3.7 -14.5 L-4.15 -15.1 -6.2 -17.25 -7.5 -19.7 -7.9 -20.5" fill="none" stroke="#000000" stroke-linecap="round" stroke-linejoin="round" stroke-opacity="0.3019608" stroke-width="0.05"/>
      <path d="M9.6 -15.05 L9.55 -15.1 9.6 -15.1 9.6 -15.05" fill="#f3f1d8" fill-rule="evenodd" stroke="none"/>
      <path d="M3.65 -12.25 L3.9 -11.4 4.95 -10.6 4.1 -10.1 2.95 -10.85 2.95 -11.95 3.65 -12.25" fill="#5e0605" fill-rule="evenodd" stroke="none"/>
      <path d="M9.55 -15.1 L9.6 -15.05 7.1 -12.7 3.9 -11.4 3.65 -12.25 6.45 -13.1 8.85 -14.6 9.55 -15.1" fill="#f00f0f" fill-rule="evenodd" stroke="none"/>
      <path d="M9.6 -15.05 L9.6 -15.1 10.05 -15.0 9.5 -14.4 7.5 -12.15 7.1 -12.7 9.6 -15.05" fill="#b80c0c" fill-rule="evenodd" stroke="none"/>
      <path d="M3.9 -11.4 L7.1 -12.7 7.5 -12.15 4.95 -10.6 3.9 -11.4" fill="#980a0a" fill-rule="evenodd" stroke="none"/>
      <path d="M9.55 -15.1 L8.85 -14.6 6.45 -13.1 3.65 -12.25 M7.5 -12.15 L9.5 -14.4 10.05 -15.0 M2.95 -11.95 L3.65 -12.25 M7.5 -12.15 L4.95 -10.6 4.1 -10.1" fill="none" stroke="#000000" stroke-linecap="round" stroke-linejoin="round" stroke-opacity="0.3019608" stroke-width="0.05"/>
      <path d="M-1.75 -23.8 L-1.85 -23.75 -1.8 -23.8 -1.75 -23.8" fill="#f3f1d8" fill-rule="evenodd" stroke="none"/>
      <path d="M0.0 -15.9 L0.25 -15.05 -0.75 -14.05 -2.15 -14.45 -2.4 -15.65 -0.85 -15.35 0.0 -15.9" fill="#5e0605" fill-rule="evenodd" stroke="none"/>
      <path d="M0.0 -15.9 L-0.85 -15.35 -2.05 -19.45 -1.85 -23.75 -1.75 -23.8 -1.65 -22.65 -1.25 -19.2 0.0 -15.9" fill="#f00f0f" fill-rule="evenodd" stroke="none"/>
      <path d="M-1.85 -23.75 L-2.05 -19.45 -2.85 -19.3 -2.35 -21.45 -1.85 -23.75" fill="#b80c0c" fill-rule="evenodd" stroke="none"/>
      <path d="M-0.85 -15.35 L-2.4 -15.65 -2.85 -19.3 -2.05 -19.45 -0.85 -15.35" fill="#980a0a" fill-rule="evenodd" stroke="none"/>
      <path d="M0.25 -15.05 L0.0 -15.9 -1.25 -19.2 -1.65 -22.65 -1.75 -23.8 M-2.4 -15.65 L-2.15 -14.45 M-1.85 -23.75 L-2.35 -21.45 -2.85 -19.3 -2.4 -15.65" fill="none" stroke="#000000" stroke-linecap="round" stroke-linejoin="round" stroke-opacity="0.3019608" stroke-width="0.05"/>
    </g>
    <linearGradient gradientTransform="matrix(-7.0E-4, 7.0E-4, 8.0E-4, -0.007, -0.05, -11.15)" gradientUnits="userSpaceOnUse" id="gradient0" spreadMethod="pad" x1="-819.2" x2="819.2">
      <stop offset="0.0" stop-color="#4a614f"/>
      <stop offset="1.0" stop-color="#49614f" stop-opacity="0.0"/>
    </linearGradient>
  </defs>
</svg>
