<?xml version="1.0" encoding="UTF-8" standalone="no"?>
<svg xmlns:xlink="http://www.w3.org/1999/xlink" height="440.0px" width="440.0px" xmlns="http://www.w3.org/2000/svg">
  <g transform="matrix(10.0, 0.0, 0.0, 10.0, 0.0, 0.0)">
    <use height="44.0" transform="matrix(1.0, 0.0, 0.0, 1.0, 0.0, 0.0)" width="44.0" xlink:href="#shape0"/>
    <use height="54.75" transform="matrix(0.6796, -0.0866, 0.1011, 0.6642, 1.157, 5.9003)" width="53.1" xlink:href="#sprite0"/>
    <use height="15.05" transform="matrix(0.6796, -0.0866, 0.1011, 0.6642, 19.4785, 29.1245)" width="21.7" xlink:href="#sprite7"/>
    <use height="35.4" transform="matrix(1.0, 0.0, 0.0, 1.0, 3.05, 4.15)" width="36.95" xlink:href="#shape9"/>
  </g>
  <defs>
    <g id="shape0" transform="matrix(1.0, 0.0, 0.0, 1.0, 0.0, 0.0)">
      <path d="M44.0 44.0 L0.0 44.0 0.0 0.0 44.0 0.0 44.0 44.0" fill="#43adca" fill-opacity="0.0" fill-rule="evenodd" stroke="none"/>
    </g>
    <g id="sprite0" transform="matrix(1.0, 0.0, 0.0, 1.0, 26.55, 27.7)">
      <use height="45.25" transform="matrix(1.0, 0.0, 0.0, 1.0, -20.55, -18.2)" width="39.75" xlink:href="#shape1"/>
      <use height="13.3" transform="matrix(0.5583, -0.6974, -0.247, -0.6137, 17.4377, 16.6193)" width="14.0" xlink:href="#sprite1"/>
      <use height="13.3" transform="matrix(-0.7612, -0.0095, -0.3166, 0.6718, -8.7158, -17.1164)" width="14.0" xlink:href="#sprite2"/>
      <use height="11.4" transform="matrix(-1.0077, -0.4377, -0.5432, 1.2299, 4.6728, -21.5885)" width="14.0" xlink:href="#sprite3"/>
      <use height="13.3" transform="matrix(0.1708, -0.8424, -0.8114, -0.0761, 12.8594, -9.5538)" width="14.0" xlink:href="#sprite1"/>
      <use height="13.3" transform="matrix(0.4209, -0.7592, -0.6851, -0.4152, 20.6657, 2.0292)" width="14.0" xlink:href="#sprite1"/>
      <use height="13.3" transform="matrix(0.2293, -1.0788, -0.8396, -0.5089, 8.658, 7.1746)" width="14.0" xlink:href="#sprite4"/>
      <use height="13.3" transform="matrix(-0.3703, -0.6992, -0.6265, 0.2075, 9.0187, -15.2896)" width="14.0" xlink:href="#sprite1"/>
      <use height="13.3" transform="matrix(-1.0125, 0.3017, 0.0527, 1.1454, -12.3974, -9.9927)" width="14.0" xlink:href="#sprite5"/>
      <use height="13.3" transform="matrix(-0.5583, 0.6974, 0.247, 0.6137, -14.9377, -0.7193)" width="14.0" xlink:href="#sprite6"/>
    </g>
    <g id="shape1" transform="matrix(1.0, 0.0, 0.0, 1.0, 20.55, 18.2)">
      <path d="M8.1 -0.4 L8.15 -0.25 8.05 -0.25 8.1 -0.4 M1.55 -15.55 L1.7 -15.3 1.5 -15.55 1.55 -15.55" fill="url(#gradient0)" fill-rule="evenodd" stroke="none"/>
      <path d="M1.55 -15.55 L-0.15 -18.2 Q4.65 -17.2 9.55 -14.15 14.3 -11.2 16.85 -7.35 20.1 -2.2 18.85 7.45 L17.95 12.55 17.85 12.8 17.6 13.5 17.55 13.6 Q15.65 16.55 10.0 17.5 L9.65 17.55 9.55 13.45 9.55 12.55 9.3 8.25 9.1 5.15 8.15 -0.25 8.1 -0.4 8.05 -0.4 Q6.6 -6.2 2.1 -14.5 L1.5 -15.55 1.7 -15.3 1.55 -15.55" fill="#cca033" fill-rule="evenodd" stroke="none"/>
      <path d="M1.55 -15.55 L1.5 -15.55 2.1 -14.5 Q6.6 -6.2 8.05 -0.4 L8.1 -0.4 8.05 -0.25 8.15 -0.25 9.1 5.15 9.3 8.25 9.55 12.55 9.55 13.45 9.65 17.55 8.8 17.7 7.5 17.8 Q1.85 18.25 -4.65 16.4 -8.15 15.4 -11.0 14.05 L-11.1 14.0 -11.25 13.9 Q-14.75 12.15 -17.2 9.85 -19.5 7.6 -20.25 5.5 L-20.5 4.75 Q-20.65 3.9 -20.2 -0.5 -19.75 -5.1 -19.3 -5.95 L-17.0 -9.75 -14.95 -12.65 Q-12.3 -14.95 -8.7 -16.65 L-4.15 -17.5 -1.3 -17.95 -0.2 -18.15 -0.15 -18.2 1.55 -15.55" fill="#fcc840" fill-rule="evenodd" stroke="none"/>
      <path d="M-1.3 -17.95 L-4.15 -17.5 -8.7 -16.65 Q-12.3 -14.95 -14.95 -12.65 L-17.0 -9.75 -19.3 -5.95 Q-19.75 -5.1 -20.2 -0.5 -20.65 3.9 -20.5 4.75 L-20.25 5.5 Q-19.5 7.6 -17.2 9.85 -14.75 12.15 -11.25 13.9 L-11.1 14.0 M17.85 12.8 L17.95 12.55 18.85 7.45 Q20.1 -2.2 16.85 -7.35 14.3 -11.2 9.55 -14.15 4.65 -17.2 -0.15 -18.2" fill="none" stroke="#000000" stroke-linecap="round" stroke-linejoin="round" stroke-opacity="0.3019608" stroke-width="0.05"/>
      <path d="M-0.15 -18.2 L-0.2 -18.15 -1.3 -17.95 Z" fill="none" stroke="#c2ad49" stroke-linecap="round" stroke-linejoin="round" stroke-width="0.05"/>
      <path d="M9.65 27.05 L9.65 17.45 9.65 17.25 10.0 17.2 Q15.75 16.2 18.0 12.5 L16.3 18.25 Q15.6 20.6 15.6 21.15 L9.65 27.05" fill="#cca033" fill-rule="evenodd" stroke="none"/>
      <path d="M-11.1 13.7 Q-8.25 15.1 -4.65 16.1 2.5 18.1 8.6 17.4 L9.65 17.45 9.65 27.05 Q2.2 27.4 -8.85 22.3 L-10.9 14.4 -11.1 13.7" fill="#fcc840" fill-rule="evenodd" stroke="none"/>
      <path d="M-11.1 13.7 L-10.9 14.4 -8.85 22.3 Q2.2 27.4 9.65 27.05 M18.0 12.5 L16.3 18.25 Q15.6 20.6 15.6 21.15 L9.65 27.05" fill="none" stroke="#000000" stroke-linecap="round" stroke-linejoin="round" stroke-opacity="0.3019608" stroke-width="0.05"/>
      <path d="M-12.9 -12.4 Q-8.7 -14.55 -3.65 -12.25 1.3 -9.9 4.3 -4.2 7.3 1.4 6.45 6.9 5.6 12.35 1.4 14.6 -2.7 16.8 -7.7 14.4 -12.8 12.05 -15.75 6.4 -18.65 0.8 -17.8 -4.7 -17.05 -10.15 -12.9 -12.4" fill="#ffffff" fill-opacity="0.3019608" fill-rule="evenodd" stroke="none"/>
      <path d="M-12.45 -10.75 Q-10.3 -11.9 -7.65 -10.7 -5.05 -9.45 -3.5 -6.5 -1.95 -3.6 -2.4 -0.7 -2.85 2.1 -5.0 3.3 L-9.75 3.2 Q-12.4 1.95 -13.95 -0.95 -15.45 -3.9 -15.0 -6.75 -14.6 -9.6 -12.45 -10.75" fill="#ffffff" fill-opacity="0.6" fill-rule="evenodd" stroke="none"/>
    </g>
    <radialGradient cx="0" cy="0" gradientTransform="matrix(-0.0305, 0.0265, 0.0199, 0.033, -20.0, 8.3)" gradientUnits="userSpaceOnUse" id="gradient0" r="819.2" spreadMethod="pad">
      <stop offset="0.0" stop-color="#f2e4c1"/>
      <stop offset="0.5882352941176471" stop-color="#fcc840"/>
      <stop offset="1.0" stop-color="#fcc840"/>
    </radialGradient>
    <g id="sprite1" transform="matrix(1.0, 0.0, 0.0, 1.0, 0.0, -0.05)">
      <use height="13.3" transform="matrix(1.0, 0.0, 0.0, 1.0, 0.0, 0.05)" width="14.0" xlink:href="#shape2"/>
    </g>
    <g id="shape2" transform="matrix(1.0, 0.0, 0.0, 1.0, 0.0, -0.05)">
      <path d="M12.2 0.45 Q15.65 -1.0 12.4 2.5 9.75 4.8 6.9 8.35 6.5 9.1 6.4 9.95 6.2 11.45 7.0 13.2 L7.05 13.35 5.25 11.5 Q2.95 8.1 7.95 3.6 9.85 1.85 12.2 0.45" fill="url(#gradient1)" fill-rule="evenodd" stroke="none"/>
      <path d="M5.25 11.5 L0.0 6.0 Q1.8 5.8 9.25 1.85 11.05 0.9 12.2 0.45 9.85 1.85 7.95 3.6 2.95 8.1 5.25 11.5" fill="#cc9c33" fill-rule="evenodd" stroke="none"/>
      <path d="M12.2 0.45 Q15.65 -1.0 12.4 2.5 9.75 4.8 6.9 8.35 6.5 9.1 6.4 9.95 M0.0 6.0 Q1.8 5.8 9.25 1.85 11.05 0.9 12.2 0.45 Z" fill="none" stroke="#000000" stroke-linecap="round" stroke-linejoin="round" stroke-opacity="0.2509804" stroke-width="0.05"/>
    </g>
    <linearGradient gradientTransform="matrix(-0.0028, 0.0028, -0.0047, -0.0047, 6.95, 8.65)" gradientUnits="userSpaceOnUse" id="gradient1" spreadMethod="pad" x1="-819.2" x2="819.2">
      <stop offset="0.0" stop-color="#fce2a1"/>
      <stop offset="0.30196078431372547" stop-color="#fcc840"/>
      <stop offset="1.0" stop-color="#fcc63f"/>
    </linearGradient>
    <g id="sprite2" transform="matrix(1.0, 0.0, 0.0, 1.0, 0.0, -0.05)">
      <use height="13.3" transform="matrix(1.0, 0.0, 0.0, 1.0, 0.0, 0.05)" width="14.0" xlink:href="#shape3"/>
    </g>
    <g id="shape3" transform="matrix(1.0, 0.0, 0.0, 1.0, 0.0, -0.05)">
      <path d="M12.2 0.45 Q15.65 -1.0 12.4 2.5 9.75 4.8 6.9 8.35 6.5 9.1 6.4 9.95 6.2 11.45 7.0 13.2 L7.05 13.35 5.25 11.5 Q2.95 8.1 7.95 3.6 9.85 1.85 12.2 0.45" fill="url(#gradient2)" fill-rule="evenodd" stroke="none"/>
      <path d="M5.25 11.5 L0.0 6.0 Q1.8 5.8 9.25 1.85 11.05 0.9 12.2 0.45 9.85 1.85 7.95 3.6 2.95 8.1 5.25 11.5" fill="url(#gradient3)" fill-rule="evenodd" stroke="none"/>
      <path d="M12.2 0.45 Q15.65 -1.0 12.4 2.5 9.75 4.8 6.9 8.35 6.5 9.1 6.4 9.95 M0.0 6.0 Q1.8 5.8 9.25 1.85 11.05 0.9 12.2 0.45 Z" fill="none" stroke="#000000" stroke-linecap="round" stroke-linejoin="round" stroke-opacity="0.2509804" stroke-width="0.05"/>
    </g>
    <linearGradient gradientTransform="matrix(-0.0028, 0.0028, -0.0047, -0.0047, 6.95, 8.65)" gradientUnits="userSpaceOnUse" id="gradient2" spreadMethod="pad" x1="-819.2" x2="819.2">
      <stop offset="0.0" stop-color="#fce2a1"/>
      <stop offset="0.30196078431372547" stop-color="#fcc840"/>
      <stop offset="1.0" stop-color="#fcc63f"/>
    </linearGradient>
    <linearGradient gradientTransform="matrix(-0.0065, 0.0037, -0.0034, -0.0058, 0.65, 7.75)" gradientUnits="userSpaceOnUse" id="gradient3" spreadMethod="pad" x1="-819.2" x2="819.2">
      <stop offset="0.0" stop-color="#fcc840"/>
      <stop offset="1.0" stop-color="#fcc63f" stop-opacity="0.0"/>
    </linearGradient>
    <g id="sprite3" transform="matrix(1.0, 0.0, 0.0, 1.0, 0.0, -0.05)">
      <use height="11.4" transform="matrix(1.0, 0.0, 0.0, 1.0, 0.0, 0.05)" width="14.0" xlink:href="#shape4"/>
    </g>
    <g id="shape4" transform="matrix(1.0, 0.0, 0.0, 1.0, 0.0, -0.05)">
      <path d="M12.2 0.45 Q15.65 -1.0 12.4 2.5 9.75 4.8 6.9 8.35 5.4 10.5 5.25 11.45 3.0 8.05 7.95 3.6 9.85 1.85 12.2 0.45" fill="url(#gradient4)" fill-rule="evenodd" stroke="none"/>
      <path d="M5.25 11.45 L0.0 6.0 Q1.8 5.8 9.25 1.85 11.05 0.9 12.2 0.45 9.85 1.85 7.95 3.6 3.0 8.05 5.25 11.45" fill="url(#gradient5)" fill-rule="evenodd" stroke="none"/>
      <path d="M12.2 0.45 Q15.65 -1.0 12.4 2.5 9.75 4.8 6.9 8.35 5.4 10.5 5.25 11.45 M0.0 6.0 Q1.8 5.8 9.25 1.85 11.05 0.9 12.2 0.45 Z" fill="none" stroke="#000000" stroke-linecap="round" stroke-linejoin="round" stroke-opacity="0.2509804" stroke-width="0.05"/>
    </g>
    <linearGradient gradientTransform="matrix(-0.0028, 0.0028, -0.0047, -0.0047, 6.95, 8.65)" gradientUnits="userSpaceOnUse" id="gradient4" spreadMethod="pad" x1="-819.2" x2="819.2">
      <stop offset="0.0" stop-color="#fce2a1"/>
      <stop offset="0.30196078431372547" stop-color="#fcc840"/>
      <stop offset="1.0" stop-color="#fcc63f"/>
    </linearGradient>
    <linearGradient gradientTransform="matrix(-0.0018, 0.0018, -0.0047, -0.0048, 2.2, 6.8)" gradientUnits="userSpaceOnUse" id="gradient5" spreadMethod="pad" x1="-819.2" x2="819.2">
      <stop offset="0.0" stop-color="#fcc840"/>
      <stop offset="1.0" stop-color="#fcc63f" stop-opacity="0.0"/>
    </linearGradient>
    <g id="sprite4" transform="matrix(1.0, 0.0, 0.0, 1.0, 0.0, -0.05)">
      <use height="13.3" transform="matrix(1.0, 0.0, 0.0, 1.0, 0.0, 0.05)" width="14.0" xlink:href="#shape5"/>
    </g>
    <g id="shape5" transform="matrix(1.0, 0.0, 0.0, 1.0, 0.0, -0.05)">
      <path d="M12.2 0.45 Q15.65 -1.0 12.4 2.5 9.75 4.8 6.9 8.35 6.5 9.1 6.4 9.95 6.2 11.45 7.0 13.2 L7.05 13.35 5.25 11.5 Q2.95 8.1 7.95 3.6 9.85 1.85 12.2 0.45" fill="url(#gradient6)" fill-rule="evenodd" stroke="none"/>
      <path d="M5.25 11.5 L0.0 6.0 Q1.8 5.8 9.25 1.85 11.05 0.9 12.2 0.45 9.85 1.85 7.95 3.6 2.95 8.1 5.25 11.5" fill="#fdd879" fill-rule="evenodd" stroke="none"/>
      <path d="M12.2 0.45 Q15.65 -1.0 12.4 2.5 9.75 4.8 6.9 8.35 6.5 9.1 6.4 9.95 M0.0 6.0 Q1.8 5.8 9.25 1.85 11.05 0.9 12.2 0.45 Z" fill="none" stroke="#000000" stroke-linecap="round" stroke-linejoin="round" stroke-opacity="0.2509804" stroke-width="0.05"/>
    </g>
    <linearGradient gradientTransform="matrix(-0.0028, 0.0028, -0.0047, -0.0047, 6.95, 8.65)" gradientUnits="userSpaceOnUse" id="gradient6" spreadMethod="pad" x1="-819.2" x2="819.2">
      <stop offset="0.0" stop-color="#fce2a1"/>
      <stop offset="0.30196078431372547" stop-color="#fcc840"/>
      <stop offset="1.0" stop-color="#fcc63f"/>
    </linearGradient>
    <g id="sprite5" transform="matrix(1.0, 0.0, 0.0, 1.0, 0.0, -0.05)">
      <use height="13.3" transform="matrix(1.0, 0.0, 0.0, 1.0, 0.0, 0.05)" width="14.0" xlink:href="#shape6"/>
    </g>
    <g id="shape6" transform="matrix(1.0, 0.0, 0.0, 1.0, 0.0, -0.05)">
      <path d="M12.2 0.45 Q15.65 -1.0 12.4 2.5 9.75 4.8 6.9 8.35 6.5 9.1 6.4 9.95 6.2 11.45 7.0 13.2 L7.05 13.35 5.25 11.5 Q2.95 8.1 7.95 3.6 9.85 1.85 12.2 0.45" fill="url(#gradient7)" fill-rule="evenodd" stroke="none"/>
      <path d="M5.25 11.5 L0.0 6.0 Q1.8 5.8 9.25 1.85 11.05 0.9 12.2 0.45 9.85 1.85 7.95 3.6 2.95 8.1 5.25 11.5" fill="url(#gradient8)" fill-rule="evenodd" stroke="none"/>
      <path d="M12.2 0.45 Q15.65 -1.0 12.4 2.5 9.75 4.8 6.9 8.35 6.5 9.1 6.4 9.95 M0.0 6.0 Q1.8 5.8 9.25 1.85 11.05 0.9 12.2 0.45 Z" fill="none" stroke="#000000" stroke-linecap="round" stroke-linejoin="round" stroke-opacity="0.2509804" stroke-width="0.05"/>
    </g>
    <linearGradient gradientTransform="matrix(-0.0028, 0.0028, -0.0047, -0.0047, 6.95, 8.65)" gradientUnits="userSpaceOnUse" id="gradient7" spreadMethod="pad" x1="-819.2" x2="819.2">
      <stop offset="0.0" stop-color="#fce2a1"/>
      <stop offset="0.30196078431372547" stop-color="#fcc840"/>
      <stop offset="1.0" stop-color="#fcc63f"/>
    </linearGradient>
    <linearGradient gradientTransform="matrix(-0.0068, 0.0018, -0.0017, -0.0065, 3.7, 7.35)" gradientUnits="userSpaceOnUse" id="gradient8" spreadMethod="pad" x1="-819.2" x2="819.2">
      <stop offset="0.0" stop-color="#fcc840"/>
      <stop offset="1.0" stop-color="#fcc63f" stop-opacity="0.0"/>
    </linearGradient>
    <g id="sprite6" transform="matrix(1.0, 0.0, 0.0, 1.0, 0.0, -0.05)">
      <use height="13.3" transform="matrix(1.0, 0.0, 0.0, 1.0, 0.0, 0.05)" width="14.0" xlink:href="#shape7"/>
    </g>
    <g id="shape7" transform="matrix(1.0, 0.0, 0.0, 1.0, 0.0, -0.05)">
      <path d="M12.2 0.45 Q15.65 -1.0 12.4 2.5 9.75 4.8 6.9 8.35 6.5 9.1 6.4 9.95 6.2 11.45 7.0 13.2 L7.05 13.35 5.25 11.5 Q2.95 8.1 7.95 3.6 9.85 1.85 12.2 0.45" fill="url(#gradient9)" fill-rule="evenodd" stroke="none"/>
      <path d="M5.25 11.5 L0.0 6.0 Q1.8 5.8 9.25 1.85 11.05 0.9 12.2 0.45 9.85 1.85 7.95 3.6 2.95 8.1 5.25 11.5" fill="url(#gradient10)" fill-rule="evenodd" stroke="none"/>
      <path d="M12.2 0.45 Q15.65 -1.0 12.4 2.5 9.75 4.8 6.9 8.35 6.5 9.1 6.4 9.95 M0.0 6.0 Q1.8 5.8 9.25 1.85 11.05 0.9 12.2 0.45 Z" fill="none" stroke="#000000" stroke-linecap="round" stroke-linejoin="round" stroke-opacity="0.2509804" stroke-width="0.05"/>
    </g>
    <linearGradient gradientTransform="matrix(-0.0028, 0.0028, -0.0047, -0.0047, 6.95, 8.65)" gradientUnits="userSpaceOnUse" id="gradient9" spreadMethod="pad" x1="-819.2" x2="819.2">
      <stop offset="0.0" stop-color="#fce2a1"/>
      <stop offset="0.30196078431372547" stop-color="#fcc840"/>
      <stop offset="1.0" stop-color="#fcc63f"/>
    </linearGradient>
    <linearGradient gradientTransform="matrix(-0.0065, 0.0037, -0.0034, -0.0058, 6.15, 5.95)" gradientUnits="userSpaceOnUse" id="gradient10" spreadMethod="pad" x1="-819.2" x2="819.2">
      <stop offset="0.0" stop-color="#fcc840"/>
      <stop offset="1.0" stop-color="#fcc63f" stop-opacity="0.0"/>
    </linearGradient>
    <g id="sprite7" transform="matrix(1.0, 0.0, 0.0, 1.0, 10.85, 7.4)">
      <use height="15.05" transform="matrix(1.0, 0.0, 0.0, 1.0, -10.85, -7.4)" width="21.7" xlink:href="#shape8"/>
    </g>
    <g id="shape8" transform="matrix(1.0, 0.0, 0.0, 1.0, 10.85, 7.4)">
      <path d="M1.5 0.4 Q1.6 1.6 1.05 2.8 0.0 5.2 -2.4 5.95 -4.75 6.65 -7.05 5.3 -9.45 3.9 -10.25 1.2 L-10.85 -0.6 -8.7 -0.65 -8.45 0.85 Q-7.65 3.1 -5.7 4.25 -3.8 5.4 -1.8 4.85 0.2 4.2 1.05 2.2 L1.5 0.4" fill="#1f1d1f" fill-rule="evenodd" stroke="none"/>
      <path d="M-8.7 -0.65 L1.55 0.1 1.5 0.4 1.05 2.2 Q0.2 4.2 -1.8 4.85 -3.8 5.4 -5.7 4.25 -7.65 3.1 -8.45 0.85 L-8.7 -0.65" fill="url(#gradient11)" fill-rule="evenodd" stroke="none"/>
      <path d="M1.5 0.4 Q1.6 1.6 1.05 2.8 0.0 5.2 -2.4 5.95 -4.75 6.65 -7.05 5.3 -9.45 3.9 -10.25 1.2 L-10.85 -0.6 -8.7 -0.65 1.55 0.1 1.5 0.4 1.05 2.2 Q0.2 4.2 -1.8 4.85 -3.8 5.4 -5.7 4.25 -7.65 3.1 -8.45 0.85 L-8.7 -0.65" fill="none" stroke="#000000" stroke-linecap="round" stroke-linejoin="round" stroke-opacity="0.3019608" stroke-width="0.05"/>
      <path d="M1.6 0.35 Q2.4 -2.25 0.5 -5.8" fill="none" stroke="#000000" stroke-linecap="round" stroke-linejoin="round" stroke-opacity="0.3019608" stroke-width="0.05"/>
      <path d="M0.7 3.75 Q0.0 6.45 -3.55 7.4" fill="none" stroke="#000000" stroke-linecap="round" stroke-linejoin="round" stroke-opacity="0.3019608" stroke-width="0.5"/>
      <path d="M5.5 -0.45 Q5.45 0.8 5.75 1.85 6.15 4.0 7.2 4.0 8.25 3.9 9.25 1.7 10.25 -0.55 10.6 -3.6 L10.85 -5.65 9.95 -4.95 9.85 -3.35 Q9.5 -0.8 8.65 1.05 7.8 2.9 6.9 3.0 6.05 3.05 5.7 1.25 L5.5 -0.45" fill="#1f1d1f" fill-rule="evenodd" stroke="none"/>
      <path d="M5.5 -0.45 L5.7 1.25 Q6.05 3.05 6.9 3.0 7.8 2.9 8.65 1.05 9.5 -0.8 9.85 -3.35 L9.95 -4.95 5.45 -0.75 5.5 -0.45" fill="url(#gradient12)" fill-rule="evenodd" stroke="none"/>
      <path d="M9.95 -4.95 L10.85 -5.65 10.6 -3.6 Q10.25 -0.55 9.25 1.7 8.25 3.9 7.2 4.0 6.15 4.0 5.75 1.85 5.45 0.8 5.5 -0.45 L5.7 1.25 Q6.05 3.05 6.9 3.0 7.8 2.9 8.65 1.05 9.5 -0.8 9.85 -3.35 L9.95 -4.95 5.45 -0.75 5.5 -0.45" fill="none" stroke="#000000" stroke-linecap="round" stroke-linejoin="round" stroke-opacity="0.3019608" stroke-width="0.05"/>
      <path d="M5.55 -0.7 Q5.25 -3.15 6.05 -7.4" fill="none" stroke="#000000" stroke-linecap="round" stroke-linejoin="round" stroke-opacity="0.3019608" stroke-width="0.05"/>
      <path d="M5.95 2.5 Q6.25 5.05 7.8 4.8" fill="none" stroke="#000000" stroke-linecap="round" stroke-linejoin="round" stroke-opacity="0.3019608" stroke-width="0.5"/>
    </g>
    <radialGradient cx="0" cy="0" gradientTransform="matrix(-0.0074, -0.0017, -0.0014, 0.0064, -3.0, 0.3)" gradientUnits="userSpaceOnUse" id="gradient11" r="819.2" spreadMethod="pad">
      <stop offset="0.6941176470588235" stop-color="#fff4dd"/>
      <stop offset="0.7450980392156863" stop-color="#d1b579"/>
    </radialGradient>
    <radialGradient cx="0" cy="0" gradientTransform="matrix(0.0032, -0.0042, 6.0E-4, 0.0062, 7.5, -2.05)" gradientUnits="userSpaceOnUse" id="gradient12" r="819.2" spreadMethod="pad">
      <stop offset="0.6941176470588235" stop-color="#fff4dd"/>
      <stop offset="0.7450980392156863" stop-color="#d1b579"/>
    </radialGradient>
    <g id="shape9" transform="matrix(1.0, 0.0, 0.0, 1.0, -3.05, -4.15)">
      <path d="M21.55 6.1 Q21.5 7.75 20.9 9.65 L20.75 10.0 20.05 9.85 20.0 9.95 19.25 10.15 18.95 10.25 15.75 6.9 13.95 5.05 Q11.8 3.1 13.25 6.8 14.35 8.75 15.3 11.35 L14.35 11.65 11.65 13.75 9.25 12.75 7.95 12.2 Q6.35 11.75 7.55 13.2 L9.45 15.65 9.5 16.35 Q9.4 17.05 8.75 17.95 L9.1 17.7 8.2 19.65 8.1 20.65 6.65 20.45 4.5 20.25 Q2.0 20.15 4.65 21.85 6.35 22.65 8.2 23.95 8.35 26.4 8.55 26.9 L8.8 27.35 9.35 28.2 9.3 28.2 8.1 29.15 Q6.7 30.4 8.5 30.1 L10.75 29.6 11.3 30.05 12.5 30.75 12.6 31.45 12.65 31.5 12.7 30.9 15.7 32.15 15.8 32.2 15.9 32.2 16.05 32.5 18.2 37.55 Q26.25 39.95 31.3 39.1 L34.75 34.65 Q34.65 34.3 34.9 32.7 L35.45 28.7 35.45 28.8 35.4 28.75 35.45 27.9 37.95 26.0 39.15 25.1 Q40.55 23.85 38.8 24.15 L35.7 24.7 35.5 24.6 Q35.35 21.2 34.45 18.75 L37.25 16.1 38.6 14.8 Q40.05 13.3 37.6 14.3 L33.5 15.95 33.05 16.0 32.7 15.6 Q30.7 13.4 27.55 11.95 L28.95 9.25 29.85 7.5 Q30.75 5.5 28.7 7.45 L25.25 10.7 24.85 10.9 23.55 10.5 22.85 7.35 22.45 5.85 Q21.9 4.05 21.55 6.1 Z" fill="none" stroke="#000000" stroke-linecap="round" stroke-linejoin="round" stroke-opacity="0.3019608" stroke-width="0.5"/>
    </g>
  </defs>
</svg>
