<?xml version="1.0" encoding="UTF-8" standalone="no"?>
<svg xmlns:xlink="http://www.w3.org/1999/xlink" height="440.0px" width="440.0px" xmlns="http://www.w3.org/2000/svg">
  <g transform="matrix(10.0, 0.0, 0.0, 10.0, 0.0, 0.0)">
    <use height="44.0" transform="matrix(1.0, 0.0, 0.0, 1.0, 0.0, 0.0)" width="44.0" xlink:href="#shape0"/>
    <use height="18.8" transform="matrix(1.8023, 0.0, 0.0, 1.8023, 3.285, 4.7935)" width="20.7" xlink:href="#sprite0"/>
    <use height="34.4" transform="matrix(1.0, 0.0, 0.0, 1.0, 3.05, 4.55)" width="37.8" xlink:href="#shape2"/>
  </g>
  <defs>
    <g id="shape0" transform="matrix(1.0, 0.0, 0.0, 1.0, 0.0, 0.0)">
      <path d="M44.0 44.0 L0.0 44.0 0.0 0.0 44.0 0.0 44.0 44.0" fill="#43adca" fill-opacity="0.0" fill-rule="evenodd" stroke="none"/>
    </g>
    <g id="sprite0" transform="matrix(1.0, 0.0, 0.0, 1.0, 11.05, 25.0)">
      <use height="18.8" transform="matrix(1.0, 0.0, 0.0, 1.0, -11.05, -25.0)" width="20.7" xlink:href="#shape1"/>
    </g>
    <g id="shape1" transform="matrix(1.0, 0.0, 0.0, 1.0, 11.05, 25.0)">
      <path d="M7.2 -10.0 Q7.1 -9.5 6.45 -9.25 L4.9 -9.45 1.45 -8.75 -1.9 -7.45 -4.85 -6.25 -6.0 -6.2 -7.05 -6.55 -7.0 -6.75 Q-4.5 -6.45 -2.8 -7.45 L-0.75 -8.6 Q4.85 -10.3 7.2 -10.0" fill="#ff9900" fill-rule="evenodd" stroke="none"/>
      <path d="M7.25 -10.4 L7.2 -10.0 Q4.85 -10.3 -0.75 -8.6 L-2.8 -7.45 Q-4.5 -6.45 -7.0 -6.75 L-7.15 -7.15 -4.75 -7.45 Q-2.3 -7.85 -1.15 -8.65 3.6 -10.55 4.9 -10.5 L7.25 -10.4" fill="#d27e02" fill-rule="evenodd" stroke="none"/>
      <path d="M-4.6 -15.6 L-4.7 -16.05 -4.85 -16.6 -5.95 -19.0 Q-6.6 -20.3 -3.9 -21.5 L-2.95 -20.9 Q-3.2 -21.8 -2.6 -22.05 L2.4 -23.85 2.55 -23.6 Q2.8 -23.3 3.2 -23.25 3.6 -23.2 3.9 -23.5 L4.15 -24.0 4.2 -24.55 4.75 -24.75 Q7.9 -26.0 8.95 -20.95 10.05 -15.9 7.9 -11.5 -2.55 -10.4 -4.5 -15.0 L-4.6 -15.6 -4.5 -15.0 -4.5 -13.4 -5.1 -11.6 Q-6.15 -10.15 -7.95 -10.35 L-7.8 -11.2 Q-7.25 -13.1 -5.45 -14.85 L-4.65 -15.55 -4.6 -15.6" fill="#bab579" fill-rule="evenodd" stroke="none"/>
      <path d="M-10.4 -10.4 L-7.8 -11.2 -7.95 -10.35 -8.0 -9.5 Q-9.05 -9.7 -10.4 -10.4" fill="#989664" fill-rule="evenodd" stroke="none"/>
      <path d="M7.6 -11.1 L7.3 -10.55 7.25 -10.4 4.9 -10.5 Q3.6 -10.55 -1.15 -8.65 -2.3 -7.85 -4.75 -7.45 L-7.15 -7.15 Q-11.5 -7.45 -11.0 -9.35 -10.35 -7.95 -7.2 -7.7 -4.05 -7.4 -2.5 -8.35 L-0.85 -9.45 Q3.65 -11.2 4.95 -11.15 L7.6 -11.1" fill="#1f1b0b" fill-rule="evenodd" stroke="none"/>
      <path d="M-7.95 -10.35 Q-6.15 -10.15 -5.1 -11.6 L-4.5 -13.4 -4.5 -15.0 Q-4.35 -14.05 -4.45 -12.95 L-5.0 -10.7 Q-6.1 -9.15 -8.0 -9.5 L-7.95 -10.35" fill="#858058" fill-rule="evenodd" stroke="none"/>
      <path d="M-4.5 -15.0 Q-2.55 -10.4 7.9 -11.5 L7.6 -11.1 4.95 -11.15 Q3.65 -11.2 -0.85 -9.45 L-2.5 -8.35 Q-4.05 -7.4 -7.2 -7.7 -10.35 -7.95 -11.0 -9.35 L-10.4 -10.4 Q-9.05 -9.7 -8.0 -9.5 -6.1 -9.15 -5.0 -10.7 L-4.45 -12.95 Q-4.35 -14.05 -4.5 -15.0" fill="#3f3616" fill-rule="evenodd" stroke="none"/>
      <path d="M7.9 -11.5 Q10.05 -15.9 8.95 -20.95 7.9 -26.0 4.75 -24.75 L4.2 -24.55 4.15 -24.0 3.9 -23.5 Q3.6 -23.2 3.2 -23.25 2.8 -23.3 2.55 -23.6 L2.4 -23.85 -2.6 -22.05 Q-3.2 -21.8 -2.95 -20.9 L-3.9 -21.5 Q-6.6 -20.3 -5.95 -19.0 L-4.85 -16.6 -4.7 -16.05 -4.6 -15.6 -4.5 -15.0 Q-2.55 -10.4 7.9 -11.5 L7.6 -11.1 7.3 -10.55 7.25 -10.4 7.2 -10.0 Q7.1 -9.5 6.45 -9.25 L4.9 -9.45 1.45 -8.75 -1.9 -7.45 -4.85 -6.25 -6.0 -6.2 -7.05 -6.55 -7.0 -6.75 -7.15 -7.15 Q-11.5 -7.45 -11.0 -9.35 L-10.4 -10.4 -7.8 -11.2 Q-7.25 -13.1 -5.45 -14.85 L-4.65 -15.55 -4.6 -15.6 M7.25 -10.4 L4.9 -10.5 Q3.6 -10.55 -1.15 -8.65 -2.3 -7.85 -4.75 -7.45 L-7.15 -7.15 M-7.95 -10.35 L-8.0 -9.5 Q-6.1 -9.15 -5.0 -10.7 L-4.45 -12.95 Q-4.35 -14.05 -4.5 -15.0 M-7.95 -10.35 L-7.8 -11.2 M-10.4 -10.4 Q-9.05 -9.7 -8.0 -9.5" fill="none" stroke="#000000" stroke-linecap="round" stroke-linejoin="round" stroke-opacity="0.3019608" stroke-width="0.05"/>
      <path d="M3.55 -23.15 Q5.95 -23.85 7.6 -22.55 8.05 -22.25 5.15 -16.3 2.25 -10.45 2.0 -10.45 L0.95 -10.4 1.0 -10.6 0.05 -10.5 -0.3 -10.65 -1.1 -11.15 -1.75 -11.85 -2.3 -12.8 -2.3 -12.9 -1.55 -13.6 -2.45 -13.8 -2.55 -14.3 -2.6 -15.1 Q-2.5 -17.7 -0.75 -20.05 1.1 -22.4 3.55 -23.15" fill="#000000" fill-opacity="0.3019608" fill-rule="evenodd" stroke="none"/>
      <path d="M3.0 -22.6 L3.05 -22.05 Q1.8 -21.25 0.85 -19.85 -0.8 -17.6 -0.9 -15.05 L-0.9 -14.2 -0.8 -13.45 -1.05 -13.45 -2.0 -13.7 -2.1 -14.2 -2.15 -14.95 Q-2.05 -17.55 -0.3 -19.9 1.15 -21.75 3.0 -22.6 M3.5 -10.4 L1.45 -10.15 2.25 -10.35 2.45 -10.3 3.5 -10.4 M1.45 -10.45 L0.5 -10.35 0.15 -10.5 Q-0.25 -10.7 -0.65 -11.0 L-1.3 -11.7 -1.85 -12.65 -0.6 -12.65 -0.1 -11.75 0.4 -11.2 Q1.0 -10.65 1.7 -10.5 L1.45 -10.45" fill="#453e29" fill-rule="evenodd" stroke="none"/>
      <path d="M7.4 -13.7 L7.9 -13.45 6.25 -11.7 6.0 -11.5 5.8 -12.4 7.4 -13.7 M5.5 -11.4 L5.5 -11.2 4.25 -10.6 3.65 -10.45 3.5 -10.4 2.45 -10.3 2.25 -10.35 2.65 -11.65 4.1 -11.7 4.5 -11.8 5.35 -12.15 5.5 -11.4 M3.05 -22.05 L3.15 -20.75 Q2.2 -20.15 0.75 -18.2 L0.5 -17.75 Q0.05 -16.7 0.0 -15.55 L0.0 -15.4 0.05 -14.55 0.15 -13.95 -0.8 -13.45 -0.9 -14.2 -0.9 -15.05 Q-0.8 -17.6 0.85 -19.85 1.8 -21.25 3.05 -22.05 M0.35 -13.4 L1.35 -12.15 2.05 -11.8 1.7 -10.5 Q1.0 -10.65 0.4 -11.2 L-0.1 -11.75 -0.6 -12.65 0.35 -13.4" fill="#605739" fill-rule="evenodd" stroke="none"/>
      <path d="M5.5 -12.95 L5.8 -12.4 5.35 -12.15 4.5 -11.8 4.1 -11.7 2.65 -11.65 2.5 -11.65 2.05 -11.8 1.35 -12.15 0.35 -13.4 0.15 -13.95 0.05 -14.55 0.0 -15.4 0.1 -14.5 0.3 -13.7 1.1 -12.7 2.25 -12.2 3.7 -12.2 5.25 -12.8 5.5 -12.95" fill="#8a7d52" fill-rule="evenodd" stroke="none"/>
      <path d="M3.0 -22.6 L4.0 -23.0 Q6.4 -23.75 8.05 -22.45 9.05 -21.65 9.4 -20.4 9.05 -21.45 8.3 -22.15 6.85 -23.4 4.65 -22.75 3.8 -22.5 3.05 -22.05 L3.0 -22.6 M8.2 -13.95 L7.4 -13.7 7.7 -14.15 8.2 -13.95 M6.0 -11.5 L5.5 -11.4 5.35 -12.15 5.8 -12.4 6.0 -11.5 M1.45 -10.15 L1.45 -10.45 1.7 -10.5 2.05 -11.8 2.5 -11.65 2.65 -11.65 2.25 -10.35 1.45 -10.15 M-1.85 -12.65 L-1.05 -13.45 -0.8 -13.45 0.15 -13.95 0.35 -13.4 -0.6 -12.65 -1.85 -12.65" fill="#30291d" fill-rule="evenodd" stroke="none"/>
      <path d="M5.5 -12.95 L6.65 -14.05 7.1 -14.55 Q8.4 -16.2 8.5 -18.1 8.55 -20.0 7.35 -20.9 6.2 -21.9 4.45 -21.35 3.75 -21.15 3.15 -20.75 3.95 -21.55 4.9 -21.85 6.85 -22.45 8.15 -21.4 9.5 -20.35 9.4 -18.2 9.35 -16.85 7.7 -14.15 L7.4 -13.7 5.8 -12.4 5.5 -12.95" fill="#5a4f36" fill-rule="evenodd" stroke="none"/>
      <path d="M3.15 -20.75 Q3.75 -21.15 4.45 -21.35 6.2 -21.9 7.35 -20.9 8.55 -20.0 8.5 -18.1 8.4 -16.2 7.1 -14.55 L6.65 -14.05 5.5 -12.95 5.25 -12.8 3.7 -12.2 2.25 -12.2 1.1 -12.7 0.3 -13.7 0.1 -14.5 0.0 -15.4 0.0 -15.55 Q0.05 -16.7 0.5 -17.75 L0.75 -18.2 Q2.2 -20.15 3.15 -20.75" fill="#1c150f" fill-rule="evenodd" stroke="none"/>
      <path d="M3.05 -22.05 Q3.8 -22.5 4.65 -22.75 6.85 -23.4 8.3 -22.15 9.05 -21.45 9.4 -20.4 9.7 -19.45 9.65 -18.2 9.55 -16.05 8.35 -14.1 L8.2 -13.95 7.7 -14.15 Q9.35 -16.85 9.4 -18.2 9.5 -20.35 8.15 -21.4 6.85 -22.45 4.9 -21.85 3.95 -21.55 3.15 -20.75 L3.05 -22.05" fill="#857550" fill-rule="evenodd" stroke="none"/>
      <path d="M9.4 -20.4 Q9.05 -21.65 8.05 -22.45 6.4 -23.75 4.0 -23.0 L3.0 -22.6 M3.05 -22.05 Q3.8 -22.5 4.65 -22.75 6.85 -23.4 8.3 -22.15 9.05 -21.45 9.4 -20.4 9.7 -19.45 9.65 -18.2 9.55 -16.05 8.35 -14.1 L8.2 -13.95 7.4 -13.7 7.9 -13.45 6.25 -11.7 6.0 -11.5 5.5 -11.4 5.5 -11.2 4.25 -10.6 3.65 -10.45 3.5 -10.4 1.45 -10.15 1.45 -10.45 0.5 -10.35 0.15 -10.5 Q-0.25 -10.7 -0.65 -11.0 L-1.3 -11.7 -1.85 -12.65 -1.05 -13.45 -2.0 -13.7 -2.1 -14.2 -2.15 -14.95 Q-2.05 -17.55 -0.3 -19.9 1.15 -21.75 3.0 -22.6 M7.4 -13.7 L7.7 -14.15 M3.05 -22.05 Q1.8 -21.25 0.85 -19.85 -0.8 -17.6 -0.9 -15.05 L-0.9 -14.2 -0.8 -13.45 0.15 -13.95 0.05 -14.55 0.0 -15.4 M0.0 -15.55 Q0.05 -16.7 0.5 -17.75 L0.75 -18.2 M0.15 -13.95 L0.35 -13.4 M5.35 -12.15 L5.8 -12.4 6.0 -11.5 M8.2 -13.95 L7.7 -14.15 M5.5 -11.4 L5.35 -12.15 M3.5 -10.4 L2.45 -10.3 2.25 -10.35 1.45 -10.15 M1.45 -10.45 L1.7 -10.5 Q1.0 -10.65 0.4 -11.2 L-0.1 -11.75 -0.6 -12.65 -1.85 -12.65 M2.05 -11.8 L1.7 -10.5 M2.25 -10.35 L2.65 -11.65 M-1.05 -13.45 L-0.8 -13.45 M-0.6 -12.65 L0.35 -13.4" fill="none" stroke="#1f1d18" stroke-linecap="round" stroke-linejoin="round" stroke-opacity="0.2509804" stroke-width="0.05"/>
      <path d="M5.8 -19.55 L5.7 -19.9 5.95 -20.5 6.5 -20.95 6.8 -20.95 6.9 -20.55 6.75 -19.95 7.15 -20.4 7.5 -20.4 7.65 -20.05 7.35 -19.45 6.9 -19.0 6.55 -18.95 6.45 -19.15 3.1 -14.55 3.3 -14.5 3.45 -14.1 3.1 -13.6 2.7 -13.2 2.3 -13.15 Q2.1 -13.3 2.15 -13.55 L2.4 -14.1 2.35 -14.1 1.95 -13.7 1.55 -13.65 Q1.4 -13.7 1.4 -14.0 L1.7 -14.6 2.15 -15.0 2.55 -15.05 2.65 -14.95 5.95 -19.5 Q5.85 -19.45 5.8 -19.55" fill="#b3ab89" fill-rule="evenodd" stroke="none"/>
      <path d="M7.35 -15.9 L7.1 -15.45 6.65 -15.1 6.15 -15.25 6.15 -15.2 6.3 -14.75 6.1 -14.3 Q5.9 -14.05 5.6 -14.0 L5.15 -14.15 4.95 -14.55 5.25 -15.1 5.45 -15.3 Q4.05 -16.6 2.6 -17.85 L2.35 -17.55 1.9 -17.3 1.45 -17.35 1.25 -17.8 1.5 -18.35 1.95 -18.65 2.45 -18.5 2.5 -18.5 Q2.25 -18.7 2.25 -19.0 L2.55 -19.5 3.0 -19.75 3.45 -19.6 3.65 -19.2 3.4 -18.65 3.25 -18.5 6.1 -15.95 6.2 -16.2 6.7 -16.45 7.2 -16.4 7.35 -15.9" fill="#d4caa2" fill-rule="evenodd" stroke="none"/>
    </g>
    <g id="shape2" transform="matrix(1.0, 0.0, 0.0, 1.0, -3.05, -4.55)">
      <path d="M30.75 5.6 L30.7 6.6 30.25 7.5 Q29.7 8.05 28.95 7.95 28.25 7.85 27.8 7.3 27.6 7.15 27.55 6.85 L18.5 10.1 Q17.45 10.55 17.9 12.2 L16.15 11.1 Q11.3 13.25 12.5 15.6 14.0 18.4 14.45 19.95 L14.75 20.9 14.9 21.75 14.8 21.8 13.4 23.1 Q10.15 26.25 9.15 29.65 7.0 30.5 4.45 31.1 3.65 32.1 3.4 33.0 2.45 36.4 10.3 36.95 L10.6 37.7 10.5 38.05 12.4 38.7 14.45 38.6 19.8 36.4 25.8 34.1 Q29.85 32.8 32.05 32.8 34.8 32.65 34.8 33.2 36.0 32.75 36.2 31.85 L36.25 31.1 36.35 30.85 36.9 29.85 37.45 29.1 Q39.35 25.25 39.85 21.1 40.5 19.1 40.6 17.05 40.7 14.8 40.15 13.1 39.8 11.85 39.05 10.8 37.05 3.15 31.75 5.25 L30.75 5.6 Z" fill="none" stroke="#000000" stroke-linecap="round" stroke-linejoin="round" stroke-opacity="0.3019608" stroke-width="0.5"/>
    </g>
  </defs>
</svg>
