<?xml version="1.0" encoding="UTF-8" standalone="no"?>
<svg xmlns:xlink="http://www.w3.org/1999/xlink" height="440.0px" width="440.0px" xmlns="http://www.w3.org/2000/svg">
  <g transform="matrix(10.0, 0.0, 0.0, 10.0, 0.0, 0.0)">
    <use height="44.0" transform="matrix(1.0, 0.0, 0.0, 1.0, 0.0, 0.0)" width="44.0" xlink:href="#shape0"/>
    <use height="48.45" transform="matrix(0.8018, -0.0915, 0.0915, 0.8018, 2.5239, 4.6626)" width="41.35" xlink:href="#sprite0"/>
  </g>
  <defs>
    <g id="shape0" transform="matrix(1.0, 0.0, 0.0, 1.0, 0.0, 0.0)">
      <path d="M44.0 44.0 L0.0 44.0 0.0 0.0 44.0 0.0 44.0 44.0" fill="#43adca" fill-opacity="0.0" fill-rule="evenodd" stroke="none"/>
    </g>
    <g id="sprite0" transform="matrix(1.0, 0.0, 0.0, 1.0, 18.65, 23.75)">
      <use height="48.45" transform="matrix(1.0, 0.0, 0.0, 1.0, -18.65, -23.75)" width="41.35" xlink:href="#shape1"/>
    </g>
    <g id="shape1" transform="matrix(1.0, 0.0, 0.0, 1.0, 18.65, 23.75)">
      <path d="M0.9 20.7 Q0.9 19.15 3.75 18.15 6.6 17.2 10.65 17.3 14.75 17.45 17.6 18.6 20.45 19.75 20.45 21.3 20.45 22.85 17.6 23.85 14.75 24.85 10.65 24.7 6.6 24.6 3.75 23.4 0.9 22.25 0.9 20.7" fill="#000000" fill-opacity="0.3019608" fill-rule="evenodd" stroke="none"/>
      <path d="M17.45 18.45 Q19.4 15.7 19.3 14.95 22.65 15.15 22.7 17.05 22.8 19.3 21.6 20.55 20.3 21.75 17.5 22.8 14.65 23.85 13.0 23.95 13.95 23.5 15.4 22.45 L17.0 21.05 Q17.8 19.9 17.45 18.45" fill="#996b0f" fill-rule="evenodd" stroke="none"/>
      <path d="M13.0 23.95 L11.7 24.0 Q8.55 24.05 2.55 22.6 4.15 22.95 6.7 21.75 9.45 20.45 11.9 19.9 L16.7 18.9 17.45 18.45 Q17.8 19.9 17.0 21.05 L15.4 22.45 Q13.95 23.5 13.0 23.95" fill="#ad7910" fill-rule="evenodd" stroke="none"/>
      <path d="M2.55 22.6 L2.35 22.55 Q-0.95 21.25 -1.65 19.4 -1.4 18.25 -0.25 17.9 0.9 17.65 3.55 18.45 L3.65 18.55 3.8 18.55 Q8.6 20.45 11.9 19.9 9.45 20.45 6.7 21.75 4.15 22.95 2.55 22.6" fill="#cc951a" fill-rule="evenodd" stroke="none"/>
      <path d="M-1.65 19.4 L-1.85 18.65 -2.0 16.85 Q-2.05 15.55 0.1 14.6 2.3 13.6 2.75 15.4 L3.55 18.45 Q0.9 17.65 -0.25 17.9 -1.4 18.25 -1.65 19.4" fill="#bd8812" fill-rule="evenodd" stroke="none"/>
      <path d="M17.45 18.45 Q19.4 15.7 19.3 14.95 22.65 15.15 22.7 17.05 22.8 19.3 21.6 20.55 20.3 21.75 17.5 22.8 14.65 23.85 13.0 23.95 L11.7 24.0 Q8.55 24.05 2.55 22.6 L2.35 22.55 Q-0.95 21.25 -1.65 19.4 L-1.85 18.65 -2.0 16.85 Q-2.05 15.55 0.1 14.6 2.3 13.6 2.75 15.4 L3.55 18.45 3.8 18.55 Q8.6 20.45 11.9 19.9 L16.7 18.9 17.45 18.45 Q17.8 19.9 17.0 21.05 L15.4 22.45 Q13.95 23.5 13.0 23.95 M2.55 22.6 Q4.15 22.95 6.7 21.75 9.45 20.45 11.9 19.9 M3.8 18.55 L3.65 18.55 3.55 18.45 Q0.9 17.65 -0.25 17.9 -1.4 18.25 -1.65 19.4" fill="none" stroke="#000000" stroke-linecap="round" stroke-linejoin="round" stroke-opacity="0.3019608" stroke-width="0.05"/>
      <path d="M16.65 3.05 L16.8 3.2 Q19.15 6.9 19.15 9.2 L19.15 9.5 Q14.5 13.95 9.1 13.45 7.65 12.65 6.2 9.95 L5.1 7.4 7.6 8.15 Q10.6 8.8 13.25 8.15 L14.85 7.15 Q16.85 5.35 16.7 3.65 L16.65 3.05" fill="#7b8426" fill-rule="evenodd" stroke="none"/>
      <path d="M1.75 10.8 L1.6 9.2 Q1.6 6.65 2.85 4.65 L3.35 4.85 3.25 5.25 Q3.1 5.9 5.1 7.4 L6.2 9.95 Q7.65 12.65 9.1 13.45 5.55 13.1 1.75 10.8" fill="#636a1e" fill-rule="evenodd" stroke="none"/>
      <path d="M17.15 14.85 L16.55 15.4 Q14.05 18.0 10.4 18.0 6.7 18.0 4.1 15.4 2.15 13.45 1.75 10.8 5.55 13.1 9.1 13.45 11.95 14.95 17.15 14.85" fill="#3e4213" fill-rule="evenodd" stroke="none"/>
      <path d="M19.15 9.5 Q19.05 12.25 17.15 14.85 11.95 14.95 9.1 13.45 14.5 13.95 19.15 9.5" fill="#707722" fill-rule="evenodd" stroke="none"/>
      <path d="M7.3 -16.1 L9.55 -16.9 Q12.65 -17.75 18.3 -15.85 L18.55 -12.6 18.6 -8.9 14.25 -9.85 13.85 -9.0 Q13.6 -8.0 13.7 -7.15 13.8 -6.7 14.25 -6.05 L14.85 -4.75 14.2 -3.95 13.2 -3.3 11.95 -3.45 Q11.0 -3.4 10.8 -2.85 10.0 -7.25 9.8 -10.2 9.2 -15.15 7.3 -16.1 M-2.45 2.4 L-4.9 1.4 -10.0 -0.9 -11.1 -1.45 Q-16.95 -4.15 -18.65 -3.65 L-18.0 -5.85 -17.35 -7.45 -15.95 -8.6 -14.05 -9.75 -12.65 -10.25 -6.0 -6.6 -4.55 -5.8 -8.05 -3.75 Q-8.15 -3.65 -2.1 -1.05 L-1.35 -0.15 Q-1.25 0.15 -1.95 0.75 -2.6 1.3 -3.15 1.4 -3.45 1.5 -2.45 2.4 M-12.3 -19.25 L-8.0 -22.4 Q-3.95 -24.95 0.7 -22.65 L5.5 -14.75 6.15 -13.5 0.25 -13.5 0.45 -12.3 Q0.85 -11.0 1.65 -9.95 L3.6 -7.8 Q5.0 -6.25 4.9 -5.95 L2.95 -5.0 Q1.2 -4.35 1.35 -3.75 L0.85 -4.4 -5.4 -12.7 Q-9.75 -18.6 -12.3 -19.25" fill="#bbca35" fill-rule="evenodd" stroke="none"/>
      <path d="M7.3 -16.1 Q9.2 -15.15 9.8 -10.2 L7.95 -8.0 Q7.2 -11.1 6.15 -13.5 L5.5 -14.75 7.3 -16.1 M-4.9 1.4 Q-3.5 7.25 -0.2 13.9 -6.5 5.3 -10.0 -0.9 L-4.9 1.4 M-11.1 -1.45 L-10.6 1.55 Q-9.15 8.3 -4.35 13.85 -14.4 6.05 -16.9 1.55 L-18.65 -3.65 Q-16.95 -4.15 -11.1 -1.45 M-14.05 -9.75 Q-15.0 -13.0 -14.25 -14.7 L-12.35 -19.25 -12.3 -19.25 Q-9.75 -18.6 -5.4 -12.7 -6.05 -9.8 -6.0 -6.6 L-12.65 -10.25 -14.05 -9.75 M1.35 -3.75 L3.2 -1.4 2.3 0.3 0.9 -1.15 0.85 -4.4 1.35 -3.75" fill="#4a5016" fill-rule="evenodd" stroke="none"/>
      <path d="M10.8 -2.85 Q11.0 -3.4 11.95 -3.45 L13.2 -3.3 14.2 -3.95 14.85 -4.75 14.25 -6.05 Q13.8 -6.7 13.7 -7.15 13.6 -8.0 13.85 -9.0 L14.25 -9.85 18.6 -8.9 Q17.95 -5.0 15.0 0.9 L14.5 1.8 12.7 5.1 11.65 1.5 11.45 0.4 10.8 -2.85 M2.85 4.65 L-2.45 2.4 Q-3.45 1.5 -3.15 1.4 -2.6 1.3 -1.95 0.75 -1.25 0.15 -1.35 -0.15 L-2.1 -1.05 Q-8.15 -3.65 -8.05 -3.75 L-4.55 -5.8 Q-2.0 -4.0 0.9 -1.15 L2.3 0.3 4.15 2.35 4.75 3.05 6.9 5.65 7.55 6.5 3.35 4.85 2.85 4.65 M1.35 -3.75 Q1.2 -4.35 2.95 -5.0 L4.9 -5.95 Q5.0 -6.25 3.6 -7.8 L1.65 -9.95 Q0.85 -11.0 0.45 -12.3 L0.25 -13.5 6.15 -13.5 Q7.2 -11.1 7.95 -8.0 8.8 -4.25 9.25 0.55 L9.3 1.65 9.5 5.75 6.3 2.35 5.6 1.5 3.2 -1.4 1.35 -3.75" fill="#b3a744" fill-rule="evenodd" stroke="none"/>
      <path d="M-12.35 -19.25 L-12.3 -19.25 -12.35 -19.25" fill="url(#gradient0)" fill-rule="evenodd" stroke="none"/>
      <path d="M16.5 2.3 L16.65 3.05 16.7 3.65 Q16.85 5.35 14.85 7.15 L13.25 8.15 Q7.85 8.3 8.65 5.75 L9.5 5.75 12.7 5.1 14.55 4.3 Q15.95 3.65 16.3 2.95 L16.5 2.3" fill="#949e2e" fill-rule="evenodd" stroke="none"/>
      <path d="M15.0 0.9 Q16.35 1.5 16.5 2.3 L16.3 2.95 Q15.95 2.25 14.55 1.8 L14.5 1.8 15.0 0.9 M5.6 1.5 L6.3 2.35 4.75 3.05 4.15 2.35 5.6 1.5 M9.3 1.65 L9.25 0.55 11.45 0.4 11.65 1.5 9.3 1.65 M13.25 8.15 Q10.6 8.8 7.6 8.15 L5.1 7.4 Q3.1 5.9 3.25 5.25 L3.35 4.85 7.55 6.5 6.9 5.65 8.65 5.75 Q7.85 8.3 13.25 8.15" fill="#62691f" fill-rule="evenodd" stroke="none"/>
      <path d="M6.3 2.35 L9.5 5.75 9.3 1.65 11.65 1.5 12.7 5.1 9.5 5.75 8.65 5.75 6.9 5.65 4.75 3.05 6.3 2.35 M16.3 2.95 Q15.95 3.65 14.55 4.3 L12.7 5.1 14.5 1.8 14.55 1.8 Q15.95 2.25 16.3 2.95" fill="#1a1b07" fill-rule="evenodd" stroke="none"/>
      <path d="M15.0 0.9 Q16.35 1.5 16.5 2.3 L16.65 3.05 16.8 3.2 Q19.15 6.9 19.15 9.2 L19.15 9.5 M17.15 14.85 L16.55 15.4 Q14.05 18.0 10.4 18.0 6.7 18.0 4.1 15.4 2.15 13.45 1.75 10.8 L1.6 9.2 Q1.6 6.65 2.85 4.65 M-8.0 -22.4 Q-3.95 -24.95 0.7 -22.65 M16.65 3.05 L16.7 3.65 Q16.85 5.35 14.85 7.15 L13.25 8.15 Q10.6 8.8 7.6 8.15 L5.1 7.4 M16.5 2.3 L16.3 2.95 Q15.95 3.65 14.55 4.3 L12.7 5.1 9.5 5.75 8.65 5.75 M16.3 2.95 Q15.95 2.25 14.55 1.8 L14.5 1.8 M11.45 0.4 L9.25 0.55 M11.65 1.5 L9.3 1.65 M6.9 5.65 L8.65 5.75 M3.35 4.85 L3.25 5.25 Q3.1 5.9 5.1 7.4 M4.15 2.35 L5.6 1.5 M6.3 2.35 L4.75 3.05 M-14.05 -9.75 L-12.65 -10.25" fill="none" stroke="#000000" stroke-linecap="round" stroke-linejoin="round" stroke-opacity="0.3019608" stroke-width="0.05"/>
      <path d="M18.6 -8.9 L18.55 -12.6 18.3 -15.85 Q12.65 -17.75 9.55 -16.9 L7.3 -16.1 Q9.2 -15.15 9.8 -10.2 10.0 -7.25 10.8 -2.85 L11.45 0.4 M18.6 -8.9 Q17.95 -5.0 15.0 0.9 M2.85 4.65 L-2.45 2.4 -4.9 1.4 Q-3.5 7.25 -0.2 13.9 -6.5 5.3 -10.0 -0.9 L-11.1 -1.45 -10.6 1.55 Q-9.15 8.3 -4.35 13.85 -14.4 6.05 -16.9 1.55 L-18.65 -3.65 -18.0 -5.85 -17.35 -7.45 -15.95 -8.6 -14.05 -9.75 Q-15.0 -13.0 -14.25 -14.7 L-12.35 -19.25 -12.3 -19.25 -8.0 -22.4 M0.7 -22.65 L5.5 -14.75 7.3 -16.1 M6.15 -13.5 L5.5 -14.75 M7.95 -8.0 L9.8 -10.2 M3.2 -1.4 L1.35 -3.75 0.85 -4.4 0.9 -1.15 2.3 0.3 3.2 -1.4 5.6 1.5 6.3 2.35 9.5 5.75 9.3 1.65 9.25 0.55 Q8.8 -4.25 7.95 -8.0 7.2 -11.1 6.15 -13.5 M14.5 1.8 L12.7 5.1 11.65 1.5 11.45 0.4 M14.5 1.8 L15.0 0.9 M3.35 4.85 L2.85 4.65 M4.15 2.35 L2.3 0.3 M4.75 3.05 L4.15 2.35 M6.9 5.65 L7.55 6.5 3.35 4.85 M4.75 3.05 L6.9 5.65 M-12.3 -19.25 L-12.35 -19.25 M-18.65 -3.65 Q-16.95 -4.15 -11.1 -1.45 M-12.65 -10.25 L-6.0 -6.6 Q-6.05 -9.8 -5.4 -12.7 -9.75 -18.6 -12.3 -19.25 M-4.55 -5.8 L-6.0 -6.6 M-4.55 -5.8 Q-2.0 -4.0 0.9 -1.15 M-10.0 -0.9 L-4.9 1.4 M-5.4 -12.7 L0.85 -4.4" fill="none" stroke="#22240f" stroke-linecap="round" stroke-linejoin="miter" stroke-miterlimit="3.0" stroke-opacity="0.33333334" stroke-width="0.05"/>
      <path d="M17.3 14.35 Q19.3 11.6 19.2 10.85 22.65 11.05 22.7 12.95 22.8 15.2 21.55 16.45 20.25 17.65 17.35 18.7 14.4 19.75 12.7 19.85 L15.15 18.35 16.8 16.95 Q17.65 15.8 17.3 14.35" fill="#996b0f" fill-rule="evenodd" stroke="none"/>
      <path d="M12.7 19.85 L11.35 19.9 Q8.1 19.95 1.9 18.5 3.55 18.85 6.2 17.65 9.05 16.35 11.55 15.8 L16.5 14.8 17.3 14.35 Q17.65 15.8 16.8 16.95 L15.15 18.35 12.7 19.85" fill="#ad7910" fill-rule="evenodd" stroke="none"/>
      <path d="M1.9 18.5 L1.7 18.45 Q-1.7 17.15 -2.4 15.3 -2.15 14.15 -1.0 13.8 0.2 13.55 2.95 14.35 L3.05 14.45 3.2 14.45 Q8.15 16.35 11.55 15.8 9.05 16.35 6.2 17.65 3.55 18.85 1.9 18.5" fill="#cc951a" fill-rule="evenodd" stroke="none"/>
      <path d="M-2.4 15.3 L-2.65 14.55 -2.8 12.75 Q-2.85 11.45 -0.6 10.5 1.65 9.5 2.1 11.3 L2.95 14.35 Q0.2 13.55 -1.0 13.8 -2.15 14.15 -2.4 15.3" fill="#bd8812" fill-rule="evenodd" stroke="none"/>
      <path d="M17.3 14.35 Q19.3 11.6 19.2 10.85 22.65 11.05 22.7 12.95 22.8 15.2 21.55 16.45 20.25 17.65 17.35 18.7 14.4 19.75 12.7 19.85 L11.35 19.9 Q8.1 19.95 1.9 18.5 L1.7 18.45 Q-1.7 17.15 -2.4 15.3 L-2.65 14.55 -2.8 12.75 Q-2.85 11.45 -0.6 10.5 1.65 9.5 2.1 11.3 L2.95 14.35 3.2 14.45 Q8.15 16.35 11.55 15.8 L16.5 14.8 17.3 14.35 Q17.65 15.8 16.8 16.95 L15.15 18.35 12.7 19.85 M3.2 14.45 L3.05 14.45 2.95 14.35 Q0.2 13.55 -1.0 13.8 -2.15 14.15 -2.4 15.3 M1.9 18.5 Q3.55 18.85 6.2 17.65 9.05 16.35 11.55 15.8" fill="none" stroke="#000000" stroke-linecap="round" stroke-linejoin="round" stroke-opacity="0.3019608" stroke-width="0.05"/>
    </g>
    <linearGradient gradientTransform="matrix(-0.0012, -0.0058, 0.0277, 0.0046, 1.15, -14.7)" gradientUnits="userSpaceOnUse" id="gradient0" spreadMethod="pad" x1="-819.2" x2="819.2">
      <stop offset="0.4549019607843137" stop-color="#bbca35"/>
      <stop offset="1.0" stop-color="#89992a"/>
    </linearGradient>
  </defs>
</svg>
