<?xml version="1.0" encoding="UTF-8" standalone="no"?>
<svg xmlns:xlink="http://www.w3.org/1999/xlink" height="440.0px" width="440.0px" xmlns="http://www.w3.org/2000/svg">
  <g transform="matrix(10.0, 0.0, 0.0, 10.0, 0.0, 0.0)">
    <use height="44.0" transform="matrix(1.0, 0.0, 0.0, 1.0, 0.0, 0.0)" width="44.0" xlink:href="#shape0"/>
  </g>
  <defs>
    <g id="shape0" transform="matrix(1.0, 0.0, 0.0, 1.0, 0.0, 0.0)">
      <path d="M44.0 44.0 L0.0 44.0 0.0 0.0 44.0 0.0 44.0 44.0" fill="#43adca" fill-opacity="0.0" fill-rule="evenodd" stroke="none"/>
      <path d="M41.3 34.35 L41.45 34.2 40.95 33.55 39.5 32.5 38.65 30.8 38.35 30.55 38.4 30.0 37.95 29.15 37.9 29.15 Q39.35 27.15 39.3 24.9 L38.95 22.6 38.1 21.3 38.25 21.1 Q38.95 20.45 39.25 19.45 39.85 16.7 38.25 16.2 37.75 16.15 37.55 16.4 L37.4 16.45 36.9 14.95 36.6 16.85 36.45 16.95 Q36.2 15.05 33.6 13.05 31.3 8.95 25.7 5.0 L25.4 4.7 25.4 7.4 Q22.95 4.45 13.85 3.25 L16.25 5.0 Q18.75 6.75 21.0 10.45 10.15 6.6 5.05 19.55 L5.6 19.35 9.8 17.1 Q1.25 26.65 10.0 35.6 L10.0 35.25 Q9.95 31.7 13.35 27.55 L13.35 27.65 Q13.05 28.4 13.65 29.15 L13.95 29.5 Q14.35 37.2 18.6 40.3 L19.55 35.95 Q20.3 38.4 23.6 40.3 L22.95 39.0 Q23.75 38.8 24.4 37.65 L24.4 37.6 Q25.05 39.2 26.0 39.9 L26.2 39.6 26.5 38.55 26.5 37.9 26.55 37.95 Q26.85 38.65 27.8 38.65 L26.85 37.3 26.95 37.3 27.7 37.55 28.25 37.5 Q29.3 39.0 31.1 39.0 L32.0 39.1 Q33.45 38.95 34.6 37.25 35.15 36.4 35.35 35.35 L35.5 35.75 35.65 35.95 35.65 36.05 Q36.55 35.9 37.35 34.6 L37.35 34.55 Q37.95 36.15 38.95 36.85 L39.1 36.55 39.45 35.55 39.4 34.85 39.5 34.95 Q39.8 35.6 40.7 35.6 L39.8 34.3 39.85 34.3 40.65 34.5 41.25 34.45 41.3 34.35 M37.8 17.75 Q38.15 18.25 37.9 19.2 L37.35 20.35 37.6 17.9 37.8 17.75 M13.9 27.0 L13.9 26.95 13.85 27.0 13.7 27.1 13.9 27.1 13.9 27.0 M35.2 31.55 L35.5 32.8 35.6 32.7 Q35.35 32.05 35.45 31.45 35.35 31.45 35.2 31.55 M24.55 32.3 L24.55 32.35 25.05 32.2 25.45 33.05 25.4 33.6 25.7 33.85 Q26.35 34.65 26.55 35.55 L27.65 36.25 Q27.1 34.75 27.7 32.95 26.15 32.6 24.8 31.75 L24.55 32.3 M22.65 35.75 L22.25 36.7 Q21.75 34.65 22.0 32.35 22.15 33.35 22.6 34.3 22.4 34.95 22.65 35.75" fill="none" stroke="#000000" stroke-linecap="round" stroke-linejoin="round" stroke-opacity="0.4509804" stroke-width="0.8"/>
      <path d="M25.2 8.25 L25.9 8.75 25.9 8.55 Q25.35 7.75 23.95 7.1 L22.25 6.35 23.3 7.05 21.7 6.75 22.6 7.1 Q23.9 7.75 24.3 8.1 L26.05 10.0 25.05 8.25 25.2 8.25 M13.85 3.2 Q22.95 4.4 25.4 7.4 L25.4 4.7 25.7 5.0 Q32.35 9.9 30.55 15.05 L26.7 10.35 Q27.85 13.15 26.35 15.7 L26.2 15.9 24.6 16.15 Q26.2 14.35 25.75 11.85 21.45 6.75 13.85 3.2 M10.0 35.2 L10.0 35.6 Q1.25 26.6 9.8 17.1 13.2 15.25 17.3 15.25 L11.8 13.9 Q8.05 14.75 5.6 19.3 L5.1 19.55 Q10.15 6.6 21.0 10.4 L23.15 16.4 Q17.8 17.5 14.25 20.4 15.0 18.5 18.05 16.95 12.25 16.95 9.15 23.35 7.5 29.5 10.0 35.2 M14.85 12.0 L11.25 12.75 Q15.8 12.9 18.2 13.8 L15.85 12.4 Q16.65 11.95 19.75 13.3 L16.5 11.35 18.85 11.7 18.25 11.3 Q15.85 10.35 12.85 11.3 L14.4 11.45 Q15.55 12.25 14.85 12.0 M9.7 20.75 L8.5 21.9 8.85 20.35 Q8.2 20.6 7.35 22.45 6.55 23.8 6.25 24.75 L7.25 23.85 7.25 23.95 6.9 25.9 8.05 24.9 8.15 27.1 8.7 23.85 Q9.15 21.55 9.7 20.75" fill="#dc2931" fill-rule="evenodd" stroke="none"/>
      <path d="M13.85 3.2 Q21.45 6.75 25.75 11.85 26.2 14.35 24.6 16.15 L26.2 15.9 26.35 15.7 Q27.85 13.15 26.7 10.35 L30.55 15.05 Q32.35 9.9 25.7 5.0 35.6 11.95 35.15 19.6 L26.5 29.6 Q22.95 32.5 25.2 37.55 22.45 35.3 22.0 32.35 21.6 36.65 23.6 40.3 20.25 38.4 19.55 35.95 L18.6 40.3 Q13.7 36.65 13.9 27.0 16.6 24.3 19.85 23.65 16.6 24.3 13.9 27.0 L13.9 26.9 13.85 27.0 Q9.95 31.45 10.0 35.2 7.5 29.5 9.15 23.35 12.25 16.95 18.05 16.95 15.0 18.5 14.25 20.4 17.8 17.5 23.15 16.4 L21.0 10.4 Q18.75 6.75 16.25 5.0 L13.85 3.2 M9.8 17.1 Q7.7 18.15 5.6 19.3 8.05 14.75 11.8 13.9 L17.3 15.25 Q13.2 15.25 9.8 17.1 M22.15 30.9 Q22.0 31.6 22.0 32.35 22.0 31.6 22.15 30.9" fill="#851725" fill-rule="evenodd" stroke="none"/>
      <path d="M25.2 8.25 L25.05 8.25 26.05 10.0 24.3 8.1 Q23.9 7.75 22.6 7.1 L21.7 6.75 23.3 7.05 22.25 6.35 23.95 7.1 Q25.35 7.75 25.9 8.55 L25.9 8.75 25.2 8.25 M14.85 12.0 Q15.55 12.25 14.4 11.45 L12.85 11.3 Q15.85 10.35 18.25 11.3 L18.85 11.7 16.5 11.35 19.75 13.3 Q16.65 11.95 15.85 12.4 L18.2 13.8 Q15.8 12.9 11.25 12.75 L14.85 12.0 M9.7 20.75 Q9.15 21.55 8.7 23.85 L8.15 27.1 8.05 24.9 6.9 25.9 7.25 23.95 7.25 23.85 6.25 24.75 Q6.55 23.8 7.35 22.45 8.2 20.6 8.85 20.35 L8.5 21.9 9.7 20.75" fill="#fc5432" fill-rule="evenodd" stroke="none"/>
      <path d="M25.7 5.0 L25.4 4.7 25.4 7.4 Q22.95 4.4 13.85 3.2 M25.7 5.0 Q35.6 11.95 35.15 19.6 L26.5 29.6 Q22.95 32.5 25.2 37.55 22.45 35.3 22.0 32.35 21.6 36.65 23.6 40.3 20.25 38.4 19.55 35.95 L18.6 40.3 Q13.7 36.65 13.9 27.0 L13.85 27.0 Q9.95 31.45 10.0 35.2 L10.0 35.6 Q1.25 26.6 9.8 17.1 7.7 18.15 5.6 19.3 L5.1 19.55 Q10.15 6.6 21.0 10.4 18.75 6.75 16.25 5.0 L13.85 3.2 M22.0 32.35 Q22.0 31.6 22.15 30.9 M13.9 27.0 Q16.6 24.3 19.85 23.65 M13.85 27.0 L13.9 26.9 13.9 27.0" fill="none" stroke="#000000" stroke-linecap="round" stroke-linejoin="round" stroke-opacity="0.3019608" stroke-width="0.05"/>
      <path d="M35.6 35.95 L35.5 35.75 Q34.7 33.9 35.55 32.7 35.2 31.6 35.7 30.55 36.45 29.7 37.45 29.95 L38.1 32.8 Q39.1 32.95 39.45 32.5 40.45 33.05 40.9 33.5 L41.4 34.2 41.3 34.3 41.2 34.35 Q40.2 34.25 39.0 33.45 L39.85 34.25 39.8 34.25 40.7 35.55 Q39.8 35.55 39.45 34.95 L39.35 34.85 39.35 34.8 38.45 33.5 Q39.25 35.25 38.9 36.85 37.9 36.15 37.35 34.55 L37.3 34.6 37.3 33.55 Q36.9 35.05 35.6 35.95" fill="#e6d9aa" fill-rule="evenodd" stroke="none"/>
      <path d="M37.45 29.95 Q38.15 30.25 38.65 30.8 39.25 31.6 39.45 32.5 39.1 32.95 38.1 32.8 L37.45 29.95 M41.3 34.3 L41.2 34.4 40.6 34.5 39.85 34.25 39.0 33.45 Q40.2 34.25 41.2 34.35 L41.3 34.3 M39.35 34.85 L39.4 35.55 39.1 36.55 38.9 36.85 Q39.25 35.25 38.45 33.5 L39.35 34.8 39.35 34.85 M37.3 34.6 Q36.5 35.9 35.65 36.0 L35.6 35.95 Q36.9 35.05 37.3 33.55 L37.3 34.6" fill="#d3be70" fill-rule="evenodd" stroke="none"/>
      <path d="M35.6 35.95 L35.5 35.75 Q34.7 33.9 35.55 32.7 35.2 31.6 35.7 30.55 36.45 29.7 37.45 29.95 38.15 30.25 38.65 30.8 39.25 31.6 39.45 32.5 40.45 33.05 40.9 33.5 L41.4 34.2 M41.3 34.3 L41.2 34.4 40.6 34.5 39.85 34.25 39.8 34.25 40.7 35.55 Q39.8 35.55 39.45 34.95 M39.35 34.85 L39.4 35.55 39.1 36.55 38.9 36.85 Q37.9 36.15 37.35 34.55 L37.3 34.6 Q36.5 35.9 35.65 36.0 L35.6 35.95 Z" fill="none" stroke="#000000" stroke-linecap="round" stroke-linejoin="round" stroke-opacity="0.3019608" stroke-width="0.05"/>
      <path d="M38.35 30.0 Q36.5 30.15 36.1 30.75 35.35 30.0 35.75 29.35 L37.9 29.15 38.35 30.0" fill="#a31a1a" fill-rule="evenodd" stroke="none"/>
      <path d="M36.1 30.75 Q36.5 30.15 38.35 30.0 L38.3 30.6 Q37.45 31.6 36.2 30.85 L36.1 30.75" fill="#d11212" fill-rule="evenodd" stroke="none"/>
      <path d="M36.1 30.75 L36.2 30.85 Q37.45 31.6 38.3 30.6 L38.35 30.0 37.9 29.15 35.75 29.35 Q35.35 30.0 36.1 30.75 Z" fill="none" stroke="#000000" stroke-linecap="round" stroke-linejoin="round" stroke-opacity="0.3019608" stroke-width="0.05"/>
      <path d="M29.4 10.5 L29.25 10.4 29.4 10.5 Q35.65 14.25 35.3 18.9 L34.0 18.0 34.0 20.25 Q32.95 18.65 30.1 16.55 30.25 19.4 27.65 21.2 28.35 19.4 27.7 18.95 L25.25 17.85 Q23.3 17.15 18.6 13.55 L16.25 11.85 Q27.95 10.85 31.55 16.15 30.9 15.1 30.55 13.45 30.4 11.85 29.25 10.4 L29.25 10.35 29.4 10.5 M22.25 17.35 L22.25 17.45 25.85 20.75 25.6 24.25 Q21.7 20.85 20.35 20.25 18.2 19.3 16.25 18.9 15.0 18.25 13.2 18.45 15.7 16.85 19.05 17.35 L18.75 16.7 Q18.6 15.9 18.9 15.35 19.25 16.35 22.15 17.35 L22.25 17.35 M20.7 22.0 L20.95 22.0 23.4 24.0 18.85 22.85 Q16.25 24.1 14.4 27.05 14.55 23.75 17.95 21.7 L20.7 22.0" fill="#f2ead7" fill-rule="evenodd" stroke="none"/>
      <path d="M18.6 13.55 Q23.3 17.15 25.25 17.85 L27.7 18.95 Q28.35 19.4 27.65 21.2 30.25 19.4 30.1 16.55 32.95 18.65 34.0 20.25 L34.0 18.0 35.3 18.9 Q35.65 14.25 29.4 10.5 36.75 14.25 36.45 17.6 L36.9 14.9 Q38.05 17.75 37.35 20.45 L37.0 21.4 25.1 30.75 Q21.15 31.45 18.25 34.15 17.6 30.1 19.2 26.35 L16.65 26.85 17.25 25.6 Q15.65 26.25 14.4 27.65 L14.4 27.05 Q16.25 24.1 18.85 22.85 L23.4 24.0 20.95 22.0 20.7 22.0 19.4 20.9 20.7 22.0 17.95 21.7 Q18.6 21.25 19.4 20.9 L16.25 18.9 Q18.2 19.3 20.35 20.25 21.7 20.85 25.6 24.25 L25.85 20.75 22.25 17.45 22.25 17.35 Q20.8 15.25 18.6 13.55 M19.25 24.95 Q18.2 25.15 17.25 25.6 18.2 25.15 19.25 24.95 M36.4 17.95 L36.45 17.6 36.4 17.95" fill="#bdaf91" fill-rule="evenodd" stroke="none"/>
      <path d="M29.25 10.4 L29.4 10.5 Q36.75 14.25 36.45 17.6 L36.9 14.9 Q38.05 17.75 37.35 20.45 L37.0 21.4 25.1 30.75 Q21.15 31.45 18.25 34.15 17.6 30.1 19.2 26.35 L16.65 26.85 17.25 25.6 Q18.2 25.15 19.25 24.95 M29.25 10.35 L29.25 10.4 29.25 10.35 M18.6 13.55 Q20.8 15.25 22.25 17.35 M16.25 18.9 L19.4 20.9 20.7 22.0 M14.4 27.05 L14.4 27.65 Q15.65 26.25 17.25 25.6 M18.6 13.55 L16.25 11.85 Q27.95 10.85 31.55 16.15 30.9 15.1 30.55 13.45 30.4 11.85 29.25 10.4 M36.45 17.6 L36.4 17.95 M17.95 21.7 Q18.6 21.25 19.4 20.9 M16.25 18.9 Q15.0 18.25 13.2 18.45 15.7 16.85 19.05 17.35 L18.75 16.7 Q18.6 15.9 18.9 15.35 19.25 16.35 22.15 17.35 L22.25 17.35 M14.4 27.05 Q14.55 23.75 17.95 21.7" fill="none" stroke="#000000" stroke-linecap="round" stroke-linejoin="round" stroke-opacity="0.3019608" stroke-width="0.05"/>
      <path d="M21.25 19.15 L22.3 19.9 Q22.25 20.45 23.1 21.6 24.0 22.7 24.95 23.05 25.15 23.35 24.65 23.95 L24.0 24.15 Q22.85 24.2 21.8 22.95 21.25 22.1 21.05 21.3 20.65 20.05 21.25 19.15" fill="#640202" fill-rule="evenodd" stroke="none"/>
      <path d="M21.25 19.15 Q20.65 20.05 21.05 21.3 21.25 22.1 21.8 22.95 22.85 24.2 24.0 24.15 L24.65 23.95 M24.95 23.05 Q24.0 22.7 23.1 21.6 22.25 20.45 22.3 19.9" fill="none" stroke="#000000" stroke-linecap="round" stroke-linejoin="round" stroke-opacity="0.3019608" stroke-width="0.05"/>
      <path d="M37.95 17.65 Q37.4 17.9 36.85 19.25 36.35 20.55 36.6 21.55 L35.65 21.75 35.15 21.25 Q34.5 20.3 35.1 18.8 35.5 17.85 36.15 17.3 37.0 16.3 38.05 16.4 L37.95 17.65" fill="#640202" fill-rule="evenodd" stroke="none"/>
      <path d="M36.6 21.55 Q36.35 20.55 36.85 19.25 37.4 17.9 37.95 17.65 M38.05 16.4 Q37.0 16.3 36.15 17.3 35.5 17.85 35.1 18.8 34.5 20.3 35.15 21.25 L35.65 21.75" fill="none" stroke="#000000" stroke-linecap="round" stroke-linejoin="round" stroke-opacity="0.3019608" stroke-width="0.05"/>
      <path d="M31.5 18.3 L34.1 18.65 Q35.45 18.95 36.6 19.95 38.35 21.2 38.95 22.55 38.65 23.65 36.75 24.95 34.3 26.6 30.7 27.25 L23.6 27.55 23.6 25.3 Q24.1 23.3 26.25 20.9 28.35 18.6 31.5 18.3" fill="#dfdbc9" fill-rule="evenodd" stroke="none"/>
      <path d="M38.95 22.55 L39.3 24.9 Q39.35 27.9 36.85 30.4 L35.25 31.55 Q33.15 33.25 29.25 33.15 L27.7 32.9 Q25.9 32.4 24.9 31.05 24.05 29.8 23.6 27.55 L30.7 27.25 Q34.3 26.6 36.75 24.95 38.65 23.65 38.95 22.55 M22.0 24.75 Q22.5 22.55 24.2 21.05 25.25 19.95 26.65 19.15 28.35 18.6 30.3 18.4 L31.5 18.3 Q28.35 18.6 26.25 20.9 24.1 23.3 23.6 25.3 L22.0 24.75" fill="#cfc9af" fill-rule="evenodd" stroke="none"/>
      <path d="M35.25 31.55 L35.55 33.4 Q35.6 35.75 34.6 37.25 33.45 38.9 32.0 39.05 L31.1 39.0 Q30.05 38.7 29.4 37.85 29.0 37.4 28.95 35.5 28.9 33.65 29.25 33.15 33.15 33.25 35.25 31.55" fill="#aca075" fill-rule="evenodd" stroke="none"/>
      <path d="M31.1 39.0 Q29.1 39.0 28.0 37.1 26.95 35.2 27.7 32.9 25.9 32.55 24.4 31.45 21.8 29.65 21.7 26.55 21.7 25.3 22.0 24.75 L23.6 25.3 23.6 27.55 Q24.05 29.8 24.9 31.05 25.9 32.4 27.7 32.9 L29.25 33.15 Q28.9 33.65 28.95 35.5 29.0 37.4 29.4 37.85 30.05 38.7 31.1 39.0" fill="#806e38" fill-rule="evenodd" stroke="none"/>
      <path d="M31.5 18.3 L34.1 18.65 Q35.45 18.95 36.6 19.95 38.35 21.2 38.95 22.55 L39.3 24.9 Q39.35 27.9 36.85 30.4 L35.25 31.55 35.55 33.4 Q35.6 35.75 34.6 37.25 33.45 38.9 32.0 39.05 L31.1 39.0 Q29.1 39.0 28.0 37.1 26.95 35.2 27.7 32.9 25.9 32.55 24.4 31.45 21.8 29.65 21.7 26.55 21.7 25.3 22.0 24.75 22.5 22.55 24.2 21.05 25.25 19.95 26.65 19.15 28.35 18.6 30.3 18.4 L31.5 18.3 M27.7 32.9 L29.25 33.15" fill="none" stroke="#000000" stroke-linecap="round" stroke-linejoin="round" stroke-opacity="0.3019608" stroke-width="0.05"/>
      <path d="M23.45 26.75 L24.15 26.85 Q24.85 27.15 24.85 27.9 24.85 28.65 24.15 28.85 L23.45 28.95 Q24.05 28.7 24.25 27.95 24.2 27.1 23.45 26.75" fill="#6a6240" fill-rule="evenodd" stroke="none"/>
      <path d="M23.45 26.75 Q24.2 27.1 24.25 27.95 24.05 28.7 23.45 28.95 22.55 28.8 22.45 27.85 22.25 27.0 23.45 26.75" fill="#000000" fill-rule="evenodd" stroke="none"/>
      <path d="M23.45 28.95 L24.15 28.85 Q24.85 28.65 24.85 27.9 24.85 27.15 24.15 26.85 L23.45 26.75 M23.45 28.95 Q22.55 28.8 22.45 27.85 22.25 27.0 23.45 26.75" fill="none" stroke="#000000" stroke-linecap="round" stroke-linejoin="round" stroke-opacity="0.3019608" stroke-width="0.05"/>
      <path d="M28.75 31.45 Q29.65 30.75 29.95 28.35 29.9 25.8 28.75 24.75 29.3 24.75 29.8 25.1 30.9 25.95 30.9 28.2 30.9 30.45 29.8 31.15 L28.75 31.45" fill="#6a6240" fill-rule="evenodd" stroke="none"/>
      <path d="M28.75 24.75 Q29.9 25.8 29.95 28.35 29.65 30.75 28.75 31.45 27.3 31.05 27.15 28.15 26.8 25.55 28.75 24.75" fill="#000000" fill-rule="evenodd" stroke="none"/>
      <path d="M28.75 31.45 L29.8 31.15 Q30.9 30.45 30.9 28.2 30.9 25.95 29.8 25.1 29.3 24.75 28.75 24.75 26.8 25.55 27.15 28.15 27.3 31.05 28.75 31.45 Z" fill="none" stroke="#000000" stroke-linecap="round" stroke-linejoin="round" stroke-opacity="0.3019608" stroke-width="0.05"/>
      <path d="M21.3 28.0 Q21.6 27.55 22.65 27.2 L23.55 27.1 Q24.1 27.7 23.65 28.45 L23.25 28.95 22.9 29.1 Q23.3 28.7 22.65 28.35 22.0 28.0 21.3 28.0" fill="#bd8812" fill-rule="evenodd" stroke="none"/>
      <path d="M17.45 28.55 L21.3 28.0 Q22.0 28.0 22.65 28.35 23.3 28.7 22.9 29.1 22.25 29.5 20.0 30.1 18.4 29.75 17.45 28.55" fill="#cc951a" fill-rule="evenodd" stroke="none"/>
      <path d="M15.15 28.05 L16.6 28.3 17.45 28.55 Q18.4 29.75 20.0 30.1 L19.7 30.1 15.35 30.0 Q14.9 29.65 15.0 28.85 15.0 28.05 15.15 28.05" fill="#ad7910" fill-rule="evenodd" stroke="none"/>
      <path d="M15.35 30.0 Q14.15 29.85 13.6 29.15 13.05 28.35 13.35 27.65 13.55 26.9 14.05 27.1 L15.15 28.05 Q15.0 28.05 15.0 28.85 14.9 29.65 15.35 30.0" fill="#996b0f" fill-rule="evenodd" stroke="none"/>
      <path d="M15.35 30.0 Q14.15 29.85 13.6 29.15 13.05 28.35 13.35 27.65 13.55 26.9 14.05 27.1 L15.15 28.05 16.6 28.3 17.45 28.55 21.3 28.0 Q21.6 27.55 22.65 27.2 L23.55 27.1 Q24.1 27.7 23.65 28.45 L23.25 28.95 22.9 29.1 Q22.25 29.5 20.0 30.1 L19.7 30.1 15.35 30.0 Q14.9 29.65 15.0 28.85 15.0 28.05 15.15 28.05 M21.3 28.0 Q22.0 28.0 22.65 28.35 23.3 28.7 22.9 29.1 M20.0 30.1 Q18.4 29.75 17.45 28.55" fill="none" stroke="#000000" stroke-linecap="round" stroke-linejoin="round" stroke-opacity="0.3019608" stroke-width="0.05"/>
      <path d="M22.15 20.4 Q21.95 20.0 22.35 19.6 L22.4 19.55 23.4 19.6 Q24.95 20.55 25.2 22.1 L25.4 21.65 Q25.6 22.3 25.3 23.15 L24.6 24.0 Q23.8 24.2 24.1 22.9 24.75 22.15 23.6 21.0 22.8 20.3 22.15 20.4" fill="#fc1b1b" fill-rule="evenodd" stroke="none"/>
      <path d="M25.4 21.65 L25.2 22.1 Q24.95 20.55 23.4 19.6 L22.4 19.55 22.35 19.6 Q21.95 20.0 22.15 20.4 20.45 20.4 21.15 19.2 22.4 18.05 24.4 19.95 25.2 20.75 25.4 21.65" fill="#fc5050" fill-rule="evenodd" stroke="none"/>
      <path d="M25.4 21.65 Q25.2 20.75 24.4 19.95 22.4 18.05 21.15 19.2 M22.15 20.4 Q22.8 20.3 23.6 21.0 24.75 22.15 24.1 22.9 M24.6 24.0 L25.3 23.15 Q25.6 22.3 25.4 21.65 Z" fill="none" stroke="#000000" stroke-linecap="round" stroke-linejoin="round" stroke-opacity="0.3019608" stroke-width="0.05"/>
      <path d="M37.7 17.6 Q37.95 17.25 38.45 17.45 L38.55 17.4 39.05 18.3 Q39.0 20.15 37.75 21.1 37.8 21.3 38.2 21.1 37.8 21.6 36.95 21.8 L35.8 21.55 Q35.25 21.0 36.55 20.6 37.5 20.8 37.9 19.2 38.15 18.2 37.7 17.6" fill="#fc1b1b" fill-rule="evenodd" stroke="none"/>
      <path d="M38.2 21.1 Q37.8 21.3 37.75 21.1 39.0 20.15 39.05 18.3 L38.55 17.4 38.45 17.45 Q37.95 17.25 37.7 17.6 36.85 16.15 38.25 16.2 39.85 16.65 39.25 19.4 38.9 20.45 38.2 21.1" fill="#fc5050" fill-rule="evenodd" stroke="none"/>
      <path d="M38.2 21.1 Q38.9 20.45 39.25 19.4 39.85 16.65 38.25 16.2 M37.7 17.6 Q38.15 18.2 37.9 19.2 37.5 20.8 36.55 20.6 M35.8 21.55 L36.95 21.8 Q37.8 21.6 38.2 21.1 Z" fill="none" stroke="#000000" stroke-linecap="round" stroke-linejoin="round" stroke-opacity="0.3019608" stroke-width="0.05"/>
      <path d="M35.75 22.95 Q36.3 22.95 36.8 23.3 37.9 24.15 37.9 26.4 37.9 28.65 36.8 29.35 L35.75 29.65 Q36.65 28.95 36.95 26.55 36.9 24.0 35.75 22.95" fill="#6a6240" fill-rule="evenodd" stroke="none"/>
      <path d="M35.75 22.95 Q36.9 24.0 36.95 26.55 36.65 28.95 35.75 29.65 34.3 29.25 34.15 26.35 33.8 23.75 35.75 22.95" fill="#000000" fill-rule="evenodd" stroke="none"/>
      <path d="M35.75 29.65 L36.8 29.35 Q37.9 28.65 37.9 26.4 37.9 24.15 36.8 23.3 36.3 22.95 35.75 22.95 M35.75 29.65 Q34.3 29.25 34.15 26.35 33.8 23.75 35.75 22.95" fill="none" stroke="#000000" stroke-linecap="round" stroke-linejoin="round" stroke-opacity="0.3019608" stroke-width="0.05"/>
      <path d="M32.85 38.45 Q33.5 37.8 33.7 35.5 33.65 33.1 32.85 32.05 33.25 32.05 33.6 32.4 34.3 33.2 34.3 35.35 34.3 37.5 33.6 38.2 L32.85 38.45" fill="#6a6240" fill-rule="evenodd" stroke="none"/>
      <path d="M32.85 32.05 Q33.65 33.1 33.7 35.5 33.5 37.8 32.85 38.45 31.9 38.05 31.8 35.3 31.55 32.8 32.85 32.05" fill="#000000" fill-rule="evenodd" stroke="none"/>
      <path d="M32.85 38.45 L33.6 38.2 Q34.3 37.5 34.3 35.35 34.3 33.2 33.6 32.4 33.25 32.05 32.85 32.05 31.55 32.8 31.8 35.3 31.9 38.05 32.85 38.45 Z" fill="none" stroke="#000000" stroke-linecap="round" stroke-linejoin="round" stroke-opacity="0.3019608" stroke-width="0.05"/>
      <path d="M23.1 29.65 Q23.2 30.15 23.8 30.75 L24.4 31.6 24.45 31.7 Q24.65 32.8 25.0 33.65 23.5 33.25 23.35 32.2 L23.3 32.1 23.1 29.65 M24.2 35.05 L24.3 35.05 24.7 34.7 24.75 34.4 25.25 34.6 25.4 35.75 25.35 35.75 24.9 35.6 24.25 36.6 24.2 35.05" fill="#ad7910" fill-rule="evenodd" stroke="none"/>
      <path d="M23.1 29.65 L23.1 27.7 Q23.2 28.05 23.6 28.2 L23.85 28.7 23.8 28.8 24.4 31.6 23.8 30.75 Q23.2 30.15 23.1 29.65 M24.75 34.4 L25.0 33.65 25.05 33.7 25.25 34.6 24.75 34.4" fill="#996b0f" fill-rule="evenodd" stroke="none"/>
      <path d="M23.85 28.7 L23.6 28.2 Q23.2 28.05 23.1 27.7 L23.05 27.45 Q23.15 27.05 23.7 27.25 L23.85 28.7 M23.7 34.6 L23.75 34.65 23.7 34.7 23.7 34.6 M25.05 33.7 L25.0 33.65 25.05 33.7" fill="#f9c347" fill-rule="evenodd" stroke="none"/>
      <path d="M23.35 32.2 Q23.5 33.25 25.0 33.65 L24.75 34.4 24.7 34.7 24.3 35.05 24.2 35.05 23.75 34.65 23.7 34.6 23.35 32.2" fill="#bd8812" fill-rule="evenodd" stroke="none"/>
      <path d="M23.1 27.7 L23.1 29.65 Q23.2 30.15 23.8 30.75 L24.4 31.6 23.8 28.8 23.85 28.7 23.6 28.2 Q23.2 28.05 23.1 27.7 L23.05 27.45 Q23.15 27.05 23.7 27.25 L23.85 28.7 M23.1 29.65 L23.3 32.1 23.35 32.2 Q23.5 33.25 25.0 33.65 24.65 32.8 24.45 31.7 L24.4 31.6 M23.7 34.6 L23.75 34.65 24.2 35.05 24.3 35.05 24.7 34.7 24.75 34.4 25.0 33.65 25.05 33.7 25.0 33.65 M23.7 34.7 L23.7 34.6 23.35 32.2 M25.25 34.6 L25.05 33.7" fill="none" stroke="#000000" stroke-linecap="round" stroke-linejoin="round" stroke-opacity="0.3019608" stroke-width="0.05"/>
      <path d="M26.55 35.55 Q27.55 36.1 28.0 36.55 L28.5 37.25 28.4 37.35 28.3 37.4 Q27.3 37.3 26.1 36.5 L26.95 37.3 26.9 37.3 27.8 38.6 Q26.9 38.6 26.55 38.0 L26.45 37.9 26.45 37.85 25.55 36.55 Q26.35 38.3 26.0 39.9 25.0 39.2 24.45 37.6 L24.4 37.65 24.4 36.6 Q24.0 38.1 22.7 39.0 L22.6 38.8 Q21.8 36.95 22.65 35.75 22.3 34.65 22.8 33.6 23.55 32.75 24.55 33.0 L25.2 35.85 Q26.2 36.0 26.55 35.55" fill="#e6d9aa" fill-rule="evenodd" stroke="none"/>
      <path d="M24.55 33.0 Q25.25 33.3 25.75 33.85 26.35 34.65 26.55 35.55 26.2 36.0 25.2 35.85 L24.55 33.0 M28.4 37.35 L28.3 37.45 27.7 37.55 26.95 37.3 26.1 36.5 Q27.3 37.3 28.3 37.4 L28.4 37.35 M26.45 37.9 L26.5 38.6 26.2 39.6 26.0 39.9 Q26.35 38.3 25.55 36.55 L26.45 37.85 26.45 37.9 M24.4 37.65 Q23.6 38.95 22.75 39.05 L22.7 39.0 Q24.0 38.1 24.4 36.6 L24.4 37.65" fill="#d3be70" fill-rule="evenodd" stroke="none"/>
      <path d="M24.55 33.0 Q25.25 33.3 25.75 33.85 26.35 34.65 26.55 35.55 27.55 36.1 28.0 36.55 L28.5 37.25 M28.4 37.35 L28.3 37.45 27.7 37.55 26.95 37.3 26.9 37.3 27.8 38.6 Q26.9 38.6 26.55 38.0 M26.45 37.9 L26.5 38.6 26.2 39.6 26.0 39.9 Q25.0 39.2 24.45 37.6 L24.4 37.65 Q23.6 38.95 22.75 39.05 L22.7 39.0 22.6 38.8 Q21.8 36.95 22.65 35.75 22.3 34.65 22.8 33.6 23.55 32.75 24.55 33.0 Z" fill="none" stroke="#000000" stroke-linecap="round" stroke-linejoin="round" stroke-opacity="0.3019608" stroke-width="0.05"/>
      <path d="M23.2 33.8 Q22.45 33.05 22.85 32.4 L25.0 32.2 Q25.4 32.6 25.45 33.05 23.6 33.2 23.2 33.8" fill="#a31a1a" fill-rule="evenodd" stroke="none"/>
      <path d="M25.45 33.05 L25.4 33.65 Q24.55 34.65 23.3 33.9 L23.2 33.8 Q23.6 33.2 25.45 33.05" fill="#d11212" fill-rule="evenodd" stroke="none"/>
      <path d="M23.2 33.8 Q22.45 33.05 22.85 32.4 L25.0 32.2 Q25.4 32.6 25.45 33.05 L25.4 33.65 Q24.55 34.65 23.3 33.9 L23.2 33.8 Z" fill="none" stroke="#000000" stroke-linecap="round" stroke-linejoin="round" stroke-opacity="0.3019608" stroke-width="0.05"/>
      <path d="M23.65 27.2 L23.2 27.25 22.95 27.65 22.55 27.1 22.55 26.85 23.35 27.0 23.65 27.2" fill="#bd8812" fill-rule="evenodd" stroke="none"/>
      <path d="M22.95 27.65 L23.2 27.25 23.65 27.2 24.0 28.35 Q23.75 28.7 23.0 28.85 L22.95 27.65" fill="#cc951a" fill-rule="evenodd" stroke="none"/>
      <path d="M23.0 28.85 Q23.75 28.7 24.0 28.35 L24.0 28.45 Q24.15 29.15 23.6 29.65 L22.95 29.5 22.5 29.35 22.7 29.0 23.0 28.85" fill="#ad7910" fill-rule="evenodd" stroke="none"/>
      <path d="M23.6 29.65 Q23.45 29.95 22.95 30.0 L22.05 29.85 Q21.65 29.65 21.85 29.5 L22.5 29.35 22.95 29.5 23.6 29.65" fill="#996b0f" fill-rule="evenodd" stroke="none"/>
      <path d="M22.95 27.65 L23.2 27.25 23.65 27.2 23.35 27.0 22.55 26.85 22.55 27.1 22.95 27.65 23.0 28.85 Q23.75 28.7 24.0 28.35 L23.65 27.2 M24.0 28.35 L24.0 28.45 Q24.15 29.15 23.6 29.65 23.45 29.95 22.95 30.0 L22.05 29.85 Q21.65 29.65 21.85 29.5 L22.5 29.35 22.7 29.0 23.0 28.85 M22.5 29.35 L22.95 29.5 23.6 29.65" fill="none" stroke="#000000" stroke-linecap="round" stroke-linejoin="round" stroke-opacity="0.3019608" stroke-width="0.05"/>
    </g>
  </defs>
</svg>
