<?xml version="1.0" encoding="UTF-8" standalone="no"?>
<svg xmlns:xlink="http://www.w3.org/1999/xlink" height="440.0px" width="440.0px" xmlns="http://www.w3.org/2000/svg">
  <g transform="matrix(10.0, 0.0, 0.0, 10.0, 0.0, 0.0)">
    <use height="44.0" transform="matrix(1.0, 0.0, 0.0, 1.0, 0.0, 0.0)" width="44.0" xlink:href="#shape0"/>
  </g>
  <defs>
    <g id="shape0" transform="matrix(1.0, 0.0, 0.0, 1.0, 0.0, 0.0)">
      <path d="M44.0 44.0 L0.0 44.0 0.0 0.0 44.0 0.0 44.0 44.0" fill="#43adca" fill-opacity="0.0" fill-rule="evenodd" stroke="none"/>
      <path d="M40.65 13.2 Q41.05 13.5 41.1 14.1 L41.1 14.2 41.15 14.5 41.15 14.55 41.25 15.85 40.8 16.65 39.85 17.85 37.1 19.2 37.2 19.2 37.25 19.2 37.7 19.3 37.9 20.65 38.75 20.1 38.8 20.15 38.85 20.2 38.95 20.4 Q39.75 22.2 39.15 23.35 L37.95 24.75 37.9 24.75 37.8 24.8 37.55 24.85 37.3 25.0 37.25 25.05 37.05 25.1 37.0 25.1 36.75 25.15 36.5 25.4 36.4 25.4 36.15 25.55 35.3 25.8 35.05 25.9 35.05 26.15 35.2 26.8 35.05 29.45 35.0 29.65 34.85 29.7 34.55 30.75 34.25 31.15 Q33.2 32.9 31.35 33.85 L30.35 34.25 28.65 34.3 28.65 34.7 25.1 34.85 24.65 34.8 24.45 34.85 22.95 34.75 Q21.75 34.55 20.6 33.8 L19.7 33.05 19.55 33.0 19.1 33.3 18.75 33.4 18.6 33.4 18.1 33.1 17.95 33.65 16.7 33.85 16.3 33.9 16.05 33.85 12.75 33.5 12.55 33.45 12.2 33.15 Q12.05 32.85 12.05 32.35 L12.05 32.25 12.35 30.9 13.2 29.85 14.2 29.15 Q12.35 29.3 10.05 27.65 L9.85 27.55 8.75 26.8 6.0 24.95 5.8 24.8 5.3 24.45 2.4 22.1 1.6 21.0 1.55 20.75 1.45 20.3 1.5 20.2 1.65 19.9 2.2 19.4 2.75 19.4 5.75 20.75 5.8 20.8 6.55 21.15 9.6 21.95 12.05 21.65 Q12.7 21.3 12.65 21.45 12.9 21.25 13.25 21.1 L13.35 20.8 15.25 19.7 15.3 19.65 15.75 18.35 Q15.55 17.45 15.8 16.4 L16.0 15.75 16.3 15.25 Q17.2 13.9 18.25 12.9 L20.1 11.5 20.75 11.2 22.45 10.95 22.55 10.9 Q23.8 9.75 27.0 9.8 L27.3 9.75 Q27.55 9.5 28.35 9.5 L30.3 9.95 30.5 9.95 Q31.35 10.15 32.05 10.55 L31.45 9.6 31.25 9.4 31.2 9.05 31.5 8.6 Q31.7 8.4 32.05 8.3 L32.55 8.15 35.35 9.2 35.75 9.5 38.4 11.2 38.65 11.25 38.7 11.25 38.8 11.35 39.0 11.55 40.65 13.2 M34.6 13.2 L35.05 12.95 34.4 12.55 33.7 12.0 34.6 13.2 M35.3 21.1 L35.25 21.0 35.2 21.0 35.3 21.1 M35.75 20.0 L35.9 20.2 35.9 20.35 36.05 20.55 36.3 20.2 36.4 19.75 35.75 20.0 M16.3 28.2 L15.85 28.4 15.55 28.6 15.1 28.8 16.25 28.7 16.3 28.7 16.6 28.6 16.65 28.6 16.4 28.15 16.3 28.2 M14.0 41.7 L14.05 41.7 14.05 41.75 14.0 41.7" fill="#000000" fill-rule="evenodd" stroke="none"/>
      <path d="M40.65 13.2 L39.0 11.55 38.8 11.35 38.7 11.25 38.65 11.25 38.4 11.2 35.75 9.5 35.35 9.2 32.55 8.15 32.05 8.3 Q31.7 8.4 31.5 8.6 L31.2 9.05 31.25 9.4 31.45 9.6 32.05 10.55 Q31.35 10.15 30.5 9.95 L30.3 9.95 28.35 9.5 Q27.55 9.5 27.3 9.75 L27.0 9.8 Q23.8 9.75 22.55 10.9 L22.45 10.95 20.75 11.2 20.1 11.5 18.25 12.9 Q17.2 13.9 16.3 15.25 L16.0 15.75 15.8 16.4 Q15.55 17.45 15.75 18.35 L15.3 19.65 15.25 19.7 13.35 20.8 13.25 21.1 Q12.9 21.25 12.65 21.45 12.7 21.3 12.05 21.65 L9.6 21.95 6.55 21.15 5.8 20.8 5.75 20.75 2.75 19.4 2.2 19.4 1.65 19.9 1.5 20.2 1.45 20.3 1.55 20.75 1.6 21.0 2.4 22.1 5.3 24.45 5.8 24.8 6.0 24.95 8.75 26.8 9.85 27.55 10.05 27.65 Q12.35 29.3 14.2 29.15 L13.2 29.85 12.35 30.9 12.05 32.25 12.05 32.35 Q12.05 32.85 12.2 33.15 L12.55 33.45 12.75 33.5 16.05 33.85 16.3 33.9 16.7 33.85 17.95 33.65 18.1 33.1 18.6 33.4 18.75 33.4 19.1 33.3 19.55 33.0 19.7 33.05 20.6 33.8 Q21.75 34.55 22.95 34.75 L24.45 34.85 24.65 34.8 25.1 34.85 28.65 34.7 28.65 34.3 30.35 34.25 31.35 33.85 Q33.2 32.9 34.25 31.15 L34.55 30.75 34.85 29.7 35.0 29.65 35.05 29.45 35.2 26.8 35.05 26.15 35.05 25.9 35.3 25.8 36.15 25.55 36.4 25.4 36.5 25.4 36.75 25.15 37.0 25.1 37.05 25.1 37.25 25.05 37.3 25.0 37.55 24.85 37.8 24.8 37.9 24.75 37.95 24.75 39.15 23.35 Q39.75 22.2 38.95 20.4 L38.85 20.2 38.8 20.15 38.75 20.1 37.9 20.65 37.7 19.3 37.25 19.2 37.2 19.2 37.1 19.2 39.85 17.85 40.8 16.65 41.25 15.85 41.15 14.55 41.15 14.5 41.1 14.2 41.1 14.1 Q41.05 13.5 40.65 13.2" fill="none" stroke="#000000" stroke-linecap="round" stroke-linejoin="round" stroke-opacity="0.3019608" stroke-width="1.0"/>
      <path d="M34.6 13.2 L33.7 12.0 34.4 12.55 35.05 12.95 34.6 13.2 M35.3 21.1 L35.25 21.0 35.2 21.0 35.3 21.1 M35.75 20.0 L35.9 20.2 35.9 20.35 36.05 20.55 36.3 20.2 36.4 19.75 35.75 20.0 M16.3 28.2 L15.85 28.4 15.55 28.6 15.1 28.8 16.25 28.7 16.3 28.7 16.6 28.6 16.65 28.6 16.4 28.15 16.3 28.2" fill="none" stroke="#000000" stroke-linecap="round" stroke-linejoin="round" stroke-opacity="0.5019608" stroke-width="1.0"/>
      <path d="M37.0 19.15 L37.1 19.15 Q37.6 20.15 36.9 21.35 L36.35 21.55 36.1 21.8 35.8 21.9 35.55 22.1 35.55 22.0 35.45 22.0 34.75 22.35 34.65 22.5 34.25 22.6 34.1 22.7 33.9 22.55 33.9 22.5 33.4 22.3 34.4 21.6 34.5 21.55 34.6 21.5 34.7 21.55 34.7 21.5 35.0 21.3 35.15 21.3 35.25 21.25 35.25 21.3 35.3 21.25 35.3 21.2 Q36.45 20.3 36.3 19.65 L36.3 19.6 36.35 19.6 36.3 19.55 36.45 19.5 36.5 19.45 Q36.7 19.2 37.0 19.15 M37.9 20.6 L38.7 20.1 38.35 20.8 37.9 21.45 37.9 20.95 37.9 20.6 M38.75 20.1 L38.95 20.35 Q39.75 22.15 39.15 23.35 L37.9 24.7 37.85 24.7 37.75 24.75 37.5 24.75 37.3 24.95 37.25 25.0 37.0 25.05 36.95 25.05 36.6 25.15 36.45 25.35 36.35 25.35 36.1 25.5 35.3 25.8 35.1 25.85 35.15 25.05 35.1 24.85 35.4 24.75 35.3 24.8 35.35 24.75 35.75 24.6 35.7 24.55 36.0 24.4 36.1 24.4 36.1 24.35 36.15 24.35 36.25 24.25 36.4 24.25 36.5 24.2 36.55 24.2 36.6 24.15 36.65 24.05 36.8 24.0 36.9 24.0 37.0 23.9 37.05 23.9 37.35 23.75 37.9 23.45 Q39.35 22.25 38.75 20.1 M35.3 21.25 L35.5 21.2 35.6 21.1 35.55 21.1 35.5 21.2 35.4 21.2 35.3 21.25 35.4 21.2 35.5 21.2 35.55 21.1 35.6 21.1 35.5 21.2 35.3 21.25 M35.15 21.3 L35.25 21.3 35.15 21.3 M36.3 19.65 L36.35 19.6 36.3 19.65 M36.4 24.25 L36.15 24.35 36.1 24.4 36.5 24.25 36.4 24.25 M35.3 25.8 Q35.45 25.6 35.75 25.6 L36.05 25.5 36.35 25.35 36.05 25.5 35.75 25.6 Q35.45 25.6 35.3 25.8 M37.0 25.05 L37.1 25.0 37.3 24.95 37.1 25.0 37.0 25.05" fill="#716742" fill-rule="evenodd" stroke="none"/>
      <path d="M37.1 19.15 L37.15 19.15 37.7 19.25 37.9 20.6 37.9 20.95 37.9 21.45 37.95 21.7 37.9 21.45 38.35 20.8 37.95 21.7 37.95 21.75 37.8 21.85 37.65 22.1 37.5 22.35 37.65 22.1 37.6 22.25 37.5 22.35 37.45 22.4 37.3 22.5 37.3 22.55 37.25 22.55 37.15 22.65 37.1 22.65 36.9 22.75 36.8 22.8 36.7 22.8 36.75 22.85 36.55 23.0 36.15 23.15 35.95 23.2 35.85 23.25 35.85 23.35 35.6 23.5 35.55 23.45 35.2 23.6 35.05 23.65 34.9 23.75 34.9 23.55 34.85 23.45 34.1 22.7 34.25 22.6 34.65 22.5 34.75 22.35 35.45 22.0 35.55 22.0 35.55 22.1 35.8 21.9 36.1 21.8 36.35 21.55 36.9 21.35 Q37.6 20.15 37.1 19.15 M37.15 19.15 L37.9 20.95 37.15 19.15" fill="#d9c67d" fill-rule="evenodd" stroke="none"/>
      <path d="M38.7 20.1 L38.7 20.05 38.75 20.1 Q39.35 22.25 37.9 23.45 L37.35 23.75 37.05 23.9 37.0 23.9 36.9 24.0 36.8 24.0 36.65 24.05 36.6 24.15 36.55 24.2 36.5 24.2 36.4 24.25 36.25 24.25 36.15 24.35 36.1 24.35 36.1 24.4 36.0 24.4 35.7 24.55 35.75 24.6 35.35 24.75 35.3 24.8 35.4 24.75 35.1 24.85 34.9 23.75 35.05 23.65 35.2 23.6 35.55 23.45 35.6 23.5 35.85 23.35 35.85 23.25 35.95 23.2 36.15 23.15 36.55 23.0 36.75 22.85 36.7 22.8 36.8 22.8 36.9 22.75 37.1 22.65 37.15 22.65 37.25 22.55 37.3 22.55 37.3 22.5 37.45 22.4 37.5 22.35 37.6 22.25 37.65 22.1 37.8 21.85 37.95 21.75 37.95 21.7 38.35 20.8 38.7 20.1 M36.75 22.85 L36.9 22.75 36.75 22.85 M36.4 24.25 L36.5 24.25 36.1 24.4 36.15 24.35 36.4 24.25" fill="#b8a86a" fill-rule="evenodd" stroke="none"/>
      <path d="M38.95 11.45 Q41.3 13.45 38.45 15.2 38.2 15.3 38.1 15.5 L34.9 17.0 34.85 16.55 34.9 16.4 33.85 15.3 36.1 14.25 Q38.05 13.1 37.05 11.9 L36.35 11.3 35.45 10.85 35.4 10.8 31.4 8.55 32.0 8.2 32.55 8.1 35.3 9.15 35.75 9.5 Q37.8 10.55 38.35 11.05 L38.35 11.3 38.6 11.2 38.65 11.2 38.75 11.35 38.95 11.45" fill="#dbcb90" fill-rule="evenodd" stroke="none"/>
      <path d="M38.35 11.05 L38.6 11.2 38.35 11.3 38.35 11.05" fill="#e3d8ac" fill-rule="evenodd" stroke="none"/>
      <path d="M41.05 14.05 L41.1 14.5 41.05 14.05 41.05 14.15 41.1 14.45 41.1 14.5 Q40.55 15.75 38.8 16.5 L38.8 16.55 35.15 18.4 34.9 17.0 38.1 15.5 Q38.2 15.3 38.45 15.2 41.3 13.45 38.95 11.45 L40.6 13.1 Q41.0 13.45 41.05 14.05 M31.35 9.5 L31.25 9.35 31.15 9.0 31.4 8.55 35.4 10.8 35.45 10.85 Q36.45 11.55 35.8 12.35 L31.35 9.5" fill="#a1935d" fill-rule="evenodd" stroke="none"/>
      <path d="M35.8 12.35 Q36.45 11.55 35.45 10.85 L36.35 11.3 37.05 11.9 Q38.05 13.1 36.1 14.25 L33.85 15.3 33.5 14.95 33.4 14.8 32.25 14.2 35.0 12.95 35.65 12.65 35.75 12.45 35.8 12.35 M32.45 15.6 L32.5 15.55 32.5 15.6 32.45 15.6" fill="#ece3c6" fill-rule="evenodd" stroke="none"/>
      <path d="M41.1 14.5 L41.2 15.8 40.8 16.65 39.75 17.75 37.0 19.15 Q36.7 19.2 36.5 19.45 L36.45 19.5 36.3 19.55 36.35 19.6 36.3 19.6 36.3 19.65 34.95 20.2 35.2 18.75 35.15 18.4 38.8 16.55 38.8 16.5 Q40.55 15.75 41.1 14.5 M31.35 9.5 L35.8 12.35 35.75 12.45 35.65 12.65 35.0 12.95 34.35 12.5 31.95 10.5 31.35 9.5" fill="#80744a" fill-rule="evenodd" stroke="none"/>
      <path d="M33.85 15.3 L34.9 16.4 34.85 16.55 33.8 17.05 33.85 17.1 34.15 19.3 33.55 19.75 33.45 19.7 33.15 17.45 33.8 17.05 32.5 15.6 32.5 15.55 33.5 14.95 33.85 15.3 M30.15 14.9 L31.35 14.25 31.4 14.2 32.0 14.15 32.1 14.2 30.85 14.95 30.15 14.9 M33.25 22.9 L33.9 22.55 34.1 22.7 34.85 23.45 34.9 23.55 34.3 23.95 33.3 22.95 33.25 22.9 M33.8 24.25 L34.3 23.95 34.55 25.5 34.05 25.85 34.0 25.8 33.8 24.25" fill="#6d704b" fill-rule="evenodd" stroke="none"/>
      <path d="M33.3 23.8 L33.2 23.0 33.25 22.95 33.3 22.95 34.3 23.95 33.8 24.25 33.3 23.8 M29.45 15.35 L30.15 14.9 30.85 14.95 30.45 15.25 29.45 15.35 M31.75 15.95 L32.45 15.6 32.5 15.6 33.8 17.05 33.15 17.45 31.75 15.95" fill="#7f8258" fill-rule="evenodd" stroke="none"/>
      <path d="M33.2 22.95 L33.05 22.05 33.4 22.3 33.9 22.5 33.9 22.55 33.25 22.9 33.25 22.95 33.2 22.95 M32.1 14.2 L32.25 14.2 33.4 14.8 33.5 14.95 32.5 15.55 32.45 15.6 31.1 14.95 30.85 14.95 32.1 14.2" fill="#8e9463" fill-rule="evenodd" stroke="none"/>
      <path d="M33.2 23.0 L33.2 22.95 33.25 22.95 33.2 23.0 M30.85 14.95 L31.1 14.95 32.45 15.6 31.75 15.95 31.7 15.9 30.45 15.25 30.85 14.95" fill="#999e6b" fill-rule="evenodd" stroke="none"/>
      <path d="M35.1 25.85 L35.0 26.3 34.4 26.75 34.55 25.5 35.15 25.05 35.1 25.85 M33.85 26.9 L33.3 23.8 33.8 24.25 34.0 25.8 34.0 25.85 33.85 26.9 M34.95 20.2 L34.85 20.55 34.85 20.6 33.9 21.2 34.15 19.3 35.2 18.75 34.95 20.2 M33.1 21.6 L32.3 21.9 30.85 21.7 29.6 20.2 28.9 17.8 29.0 16.15 29.45 15.35 30.45 15.25 31.7 15.9 31.75 15.95 33.15 17.45 33.45 19.7 33.45 19.75 33.1 21.6" fill="#41422d" fill-rule="evenodd" stroke="none"/>
      <path d="M34.4 26.75 L33.9 27.05 33.85 26.9 34.0 25.85 34.05 25.85 34.55 25.5 34.4 26.75 M33.55 19.75 L34.15 19.3 33.9 21.2 33.1 21.6 33.45 19.75 33.55 19.75" fill="#656545" fill-rule="evenodd" stroke="none"/>
      <path d="M34.9 17.0 L35.15 18.4 35.2 18.75 34.15 19.3 33.85 17.1 33.8 17.05 34.85 16.55 34.9 17.0 M34.3 23.95 L34.9 23.55 34.9 23.75 35.1 24.85 35.15 25.05 34.55 25.5 34.3 23.95" fill="#505438" fill-rule="evenodd" stroke="none"/>
      <path d="M41.1 14.5 L41.2 15.8 40.8 16.65 39.75 17.75 37.0 19.15 37.1 19.15 37.15 19.15 37.7 19.25 37.9 20.6 38.7 20.1 38.7 20.05 38.75 20.1 38.95 20.35 Q39.75 22.15 39.15 23.35 L37.9 24.7 37.75 24.75 37.5 24.75 37.3 24.95 37.25 25.0 37.0 25.05 36.95 25.05 36.6 25.15 36.45 25.35 36.35 25.35 36.1 25.5 35.3 25.8 35.1 25.85 35.0 26.3 34.4 26.75 33.9 27.05 M33.05 22.05 L33.4 22.3 34.4 21.6 34.5 21.55 34.6 21.5 34.7 21.55 M34.7 21.5 L35.0 21.3 35.15 21.3 35.25 21.25 35.3 21.2 Q36.45 20.3 36.3 19.65 L34.95 20.2 34.85 20.55 35.15 20.9 M41.05 14.15 L41.1 14.5 41.05 14.05 Q41.0 13.45 40.6 13.1 L38.95 11.45 M34.9 17.0 L35.15 18.4 M38.8 16.55 L38.8 16.5 M41.1 14.5 L41.1 14.45 41.05 14.15 41.05 14.05 M31.4 8.55 L31.15 9.0 31.25 9.35 31.35 9.5 31.95 10.5 34.35 12.5 35.0 12.95 35.65 12.65 35.75 12.45 35.8 12.35 Q36.45 11.55 35.45 10.85 L35.4 10.8 M31.4 8.55 L32.0 8.2 32.55 8.1 35.3 9.15 35.75 9.5 Q37.8 10.55 38.35 11.05 L38.6 11.2 38.65 11.2 38.75 11.35 38.95 11.45 M33.85 15.3 L34.9 16.4 34.85 16.55 34.9 17.0 M33.1 21.6 L32.3 21.9 30.85 21.7 29.6 20.2 28.9 17.8 29.0 16.15 29.45 15.35 30.15 14.9 31.35 14.25 31.4 14.2 32.0 14.15 32.1 14.2 32.25 14.2 35.0 12.95 M33.5 14.95 L33.85 15.3 M33.5 14.95 L33.4 14.8 32.25 14.2 M30.45 15.25 L31.7 15.9 31.75 15.95 33.15 17.45 33.45 19.7 33.45 19.75 33.55 19.75 M35.2 18.75 L35.15 18.4 M33.9 21.2 L34.85 20.6 34.85 20.55 M33.1 21.6 L33.9 21.2 M35.25 21.3 L35.15 21.3 M35.3 21.25 L35.4 21.2 35.5 21.2 35.55 21.1 35.6 21.1 35.5 21.2 35.3 21.25 35.25 21.3 35.25 21.25 M35.3 21.25 L35.3 21.2 M35.2 18.75 L34.95 20.2 M33.45 19.75 L33.1 21.6 M33.9 22.55 L33.9 22.5 33.4 22.3 M34.9 23.55 L34.85 23.45 34.1 22.7 33.9 22.55 M33.3 23.8 L33.8 24.25 34.0 25.8 34.0 25.85 33.85 26.9 M35.15 25.05 L35.1 24.85 34.9 23.75 34.9 23.55 M36.55 23.0 L36.75 22.85 M37.1 22.65 L37.15 22.65 37.25 22.55 M37.3 22.55 L37.3 22.5 37.45 22.4 37.5 22.35 37.65 22.1 37.8 21.85 M37.95 21.75 L37.95 21.7 37.9 21.45 37.9 20.95 37.15 19.15 M38.35 20.8 L38.7 20.1 M36.3 19.65 L36.3 19.6 36.35 19.6 36.3 19.55 36.45 19.5 36.5 19.45 Q36.7 19.2 37.0 19.15 M36.35 19.6 L36.3 19.65 M37.9 20.6 L37.9 20.95 M36.9 22.75 L36.75 22.85 M38.35 20.8 L37.9 21.45 M29.45 15.35 L30.45 15.25 M37.3 24.95 L37.1 25.0 37.0 25.05 M36.35 25.35 L36.05 25.5 35.75 25.6 Q35.45 25.6 35.3 25.8 M35.15 25.05 L35.1 25.85 M34.0 25.85 L34.05 25.85 M37.85 24.7 L37.75 24.75" fill="none" stroke="#000000" stroke-linecap="round" stroke-linejoin="round" stroke-opacity="0.36862746" stroke-width="0.05"/>
      <path d="M27.25 9.8 Q27.5 9.45 28.3 9.5 L30.25 9.9 30.45 9.95 Q31.55 10.25 32.45 10.9 34.55 12.35 35.4 15.4 L36.25 16.25 36.3 16.4 36.35 16.55 36.35 16.8 36.15 17.2 Q36.1 16.45 35.55 16.7 L33.25 16.85 31.65 16.45 31.3 16.15 Q29.55 14.8 29.05 13.6 L29.7 14.4 30.2 14.85 31.0 15.55 31.05 15.6 31.2 15.75 31.5 15.85 32.6 16.05 32.75 16.2 34.05 16.5 34.3 16.45 34.6 16.35 34.65 16.35 34.95 16.2 35.05 16.15 35.05 15.95 35.15 15.4 Q34.45 12.0 30.35 10.15 L30.3 10.15 28.4 9.9 28.1 10.1 Q27.85 10.65 28.05 11.35 L28.25 12.1 28.4 12.45 Q27.85 12.15 27.4 12.2 L27.25 12.15 Q26.3 12.25 25.55 12.85 L25.2 13.1 Q23.55 11.9 21.5 11.95 L20.7 12.0 Q20.15 12.15 19.65 12.55 L19.6 12.55 19.6 12.6 18.4 13.55 Q16.1 15.7 17.1 18.3 L17.55 18.75 17.95 19.1 18.95 19.65 19.55 19.9 21.55 20.2 22.1 20.2 22.2 20.2 22.7 20.1 22.9 20.05 23.1 20.05 23.3 20.0 Q25.65 19.4 26.1 18.35 L26.1 19.1 23.25 20.95 23.2 21.0 22.65 21.15 22.3 21.3 19.75 21.05 Q18.65 20.55 17.3 19.65 15.95 18.0 15.8 16.35 L15.95 15.8 Q16.95 14.05 18.2 12.9 L20.05 11.5 20.7 11.2 22.45 10.9 22.55 10.9 Q23.4 11.0 24.2 11.55 23.4 11.0 22.55 10.9 L22.55 10.85 Q23.75 9.75 26.95 9.8 L27.25 9.8 27.05 10.05 Q26.8 10.4 26.95 11.0 26.8 10.4 27.05 10.05 L27.25 9.8 M35.85 20.25 L35.85 20.35 35.4 20.4 34.45 19.45 35.85 20.25 M32.25 18.75 L31.95 18.85 30.8 18.15 30.65 19.25 29.8 19.35 28.65 15.45 28.7 15.45 29.5 16.45 30.05 19.0 30.2 18.9 Q30.5 18.75 30.65 17.85 L30.75 18.0 31.4 18.35 31.65 18.5 31.7 18.5 31.85 18.45 32.25 18.75 M27.25 22.15 L26.9 22.15 26.85 21.75 27.25 22.15 M28.85 21.5 L28.45 20.4 29.25 21.45 28.85 21.5 M31.35 20.4 L30.85 20.35 30.9 19.55 31.35 20.4 M32.7 20.0 L32.65 19.55 33.2 19.95 32.7 20.0" fill="#dbcb90" fill-rule="evenodd" stroke="none"/>
      <path d="M35.05 15.95 Q33.9 13.8 32.55 12.75 L31.9 12.2 31.75 12.2 30.55 11.7 30.1 11.6 28.5 11.3 Q28.3 11.6 28.25 12.1 L28.05 11.35 Q27.85 10.65 28.1 10.1 L28.4 9.9 30.3 10.15 30.35 10.15 Q34.45 12.0 35.15 15.4 L35.05 15.95 M36.3 20.8 L36.65 21.25 36.8 21.5 Q36.0 20.75 35.3 21.15 L35.25 21.1 35.25 21.0 35.15 21.0 35.1 21.0 Q34.4 20.45 34.1 20.75 L33.95 20.95 33.85 21.05 33.8 21.05 33.35 20.55 32.5 20.65 32.2 21.05 32.2 21.1 32.0 21.35 Q30.7 20.75 30.4 21.05 L30.25 21.4 29.9 22.05 29.6 20.9 30.35 21.1 30.4 21.0 32.05 21.1 Q32.05 20.45 31.65 19.75 L32.25 20.5 Q33.55 20.0 33.95 20.95 L33.9 20.5 33.85 20.5 33.85 20.2 33.1 19.4 32.6 18.65 34.3 20.3 34.55 20.35 35.05 20.65 35.25 20.85 36.3 20.8 M20.55 33.85 Q18.35 32.35 16.65 28.75 L15.95 27.2 15.85 27.0 Q18.6 30.35 19.15 28.25 17.8 27.2 17.0 24.85 22.05 27.45 22.6 24.9 L21.9 26.75 Q21.45 27.15 20.75 27.1 L20.55 27.05 18.95 26.5 18.25 26.15 18.95 26.5 20.55 27.05 22.05 27.9 22.1 28.6 Q22.2 31.55 23.55 33.2 22.6 34.4 20.55 33.85 M17.95 19.1 L17.55 18.75 17.1 18.3 Q16.1 15.7 18.4 13.55 L19.6 12.6 19.65 12.55 20.8 12.5 20.9 12.5 Q22.2 12.45 23.45 13.1 L24.45 13.6 Q25.5 14.35 25.9 15.4 L25.95 15.65 26.2 16.55 26.2 16.7 25.35 15.7 Q25.1 15.35 24.65 15.15 L23.95 14.8 Q22.55 14.15 21.15 14.2 L21.05 14.2 20.9 14.2 20.1 14.25 18.8 15.65 18.25 16.45 Q17.55 17.65 17.95 19.1 M26.5 22.8 L26.55 23.2 Q27.2 22.65 27.9 23.0 L27.7 22.45 27.6 21.3 Q28.0 22.15 28.7 22.1 L28.75 22.1 28.8 22.1 29.1 22.1 29.75 22.15 29.9 22.15 30.05 22.65 28.85 22.55 28.15 23.55 28.1 23.6 28.05 23.5 28.0 23.35 27.6 23.15 27.0 23.25 26.6 23.6 Q26.4 23.75 26.35 24.05 L26.5 22.8 M30.4 23.6 L30.0 24.3 30.3 23.2 30.4 23.6 M29.95 24.3 L29.75 24.45 28.5 24.6 28.35 24.3 28.4 24.3 29.95 24.3 M27.6 23.15 L28.0 23.35 28.05 23.5 27.6 23.15 M28.7 22.1 L28.6 22.15 28.5 22.3 28.0 23.2 27.9 23.0 28.0 23.2 28.5 22.3 28.6 22.15 28.7 22.1 M28.0 23.2 L28.15 23.55 28.05 23.5 28.15 23.55 28.0 23.2 28.0 23.35 28.0 23.2 M35.25 20.85 L35.25 21.0 35.25 20.85 M32.05 21.1 L32.0 21.35 32.05 21.1" fill="#605439" fill-rule="evenodd" stroke="none"/>
      <path d="M34.65 16.35 L35.05 15.95 35.05 16.15 34.95 16.2 34.65 16.35" fill="#1a1511" fill-rule="evenodd" stroke="none"/>
      <path d="M30.1 11.6 L30.55 11.7 31.75 12.2 31.9 12.2 32.55 12.75 Q33.9 13.8 35.05 15.95 L34.65 16.35 34.6 16.35 34.3 16.45 34.05 16.5 32.75 16.2 32.6 16.05 31.5 15.85 31.2 15.75 31.05 15.6 31.0 15.55 30.2 14.85 Q30.9 14.45 30.75 13.45 30.7 12.7 30.1 11.65 L30.1 11.6 M23.3 20.0 L23.1 20.05 22.9 20.05 22.7 20.1 22.2 20.2 22.1 20.2 21.55 20.2 21.95 19.2 22.0 19.05 Q22.55 17.0 21.3 14.8 L21.2 14.7 20.9 14.2 21.05 14.2 21.15 14.2 Q22.55 14.15 23.95 14.8 L24.65 15.15 Q25.1 15.35 25.35 15.7 L26.2 16.7 Q26.2 17.55 25.65 18.35 L25.35 18.8 Q24.55 19.65 23.3 20.0 M31.85 18.45 L31.7 18.5 31.65 18.5 31.4 18.35 30.75 18.0 30.65 17.85 Q30.5 18.75 30.2 18.9 L30.05 19.0 29.5 16.45 31.85 18.45 M22.6 24.9 L22.55 24.65 22.9 24.1 23.5 23.55 23.6 23.5 Q24.75 23.0 26.35 24.7 L27.1 27.25 27.15 27.3 28.25 27.55 29.15 26.55 28.5 24.6 29.75 24.45 29.95 24.3 30.0 24.3 30.4 23.6 30.8 24.75 30.85 25.05 32.55 24.9 32.75 24.85 32.8 24.85 33.2 24.4 33.9 26.5 34.0 27.1 32.65 26.45 31.85 27.3 30.7 26.6 30.75 29.7 Q30.4 31.8 28.7 33.3 L27.45 33.25 25.65 32.85 26.6 33.45 28.15 33.8 27.9 34.05 25.0 34.15 24.95 33.85 24.9 33.8 24.5 33.2 23.45 31.5 Q22.4 29.85 22.15 28.7 L22.1 28.6 22.05 27.9 21.9 26.75 22.6 24.9" fill="#201b13" fill-rule="evenodd" stroke="none"/>
      <path d="M25.2 13.1 L25.55 12.85 Q26.3 12.25 27.25 12.15 L27.4 12.2 Q27.85 12.15 28.4 12.45 L29.05 13.6 Q29.55 14.8 31.3 16.15 L31.65 16.45 33.25 16.85 35.55 16.7 Q36.1 16.45 36.15 17.2 L35.85 17.45 35.65 17.65 33.7 17.8 33.65 17.8 32.5 17.55 Q34.05 18.75 35.4 18.95 35.45 19.55 35.85 20.25 L34.45 19.45 35.4 20.4 35.85 20.35 36.3 20.8 35.25 20.85 35.05 20.65 34.55 20.35 34.3 20.3 32.6 18.65 33.1 19.4 33.85 20.2 33.85 20.5 33.9 20.5 33.95 20.95 Q33.55 20.0 32.25 20.5 L31.65 19.75 Q32.05 20.45 32.05 21.1 L30.4 21.0 30.35 21.1 29.6 20.9 29.9 22.05 29.9 22.15 29.75 22.15 29.1 22.1 28.8 22.1 28.75 22.1 28.7 22.1 Q28.0 22.15 27.6 21.3 L27.7 22.45 27.9 23.0 Q27.2 22.65 26.55 23.2 L26.5 22.8 26.35 22.55 Q25.9 20.7 24.8 20.9 L23.45 21.65 23.3 21.8 22.5 22.1 22.45 22.15 Q21.15 22.6 19.9 22.15 19.05 21.9 18.2 21.3 L18.05 21.1 16.55 19.85 Q16.0 19.25 15.75 18.35 15.55 17.45 15.8 16.35 15.95 18.0 17.3 19.65 18.65 20.55 19.75 21.05 L22.3 21.3 22.65 21.15 23.2 21.0 23.25 20.95 26.1 19.1 25.65 20.55 Q26.6 19.4 26.8 17.8 L26.85 17.5 Q26.95 14.65 25.65 13.45 L25.3 13.1 25.2 13.1 M28.7 15.45 L28.65 15.45 29.8 19.35 30.65 19.25 30.8 18.15 31.95 18.85 32.25 18.75 32.1 18.15 28.7 15.45 M28.85 21.5 L29.25 21.45 28.45 20.4 28.85 21.5 M27.25 22.15 L26.85 21.75 26.9 22.15 27.25 22.15 M32.7 20.0 L33.2 19.95 32.65 19.55 32.7 20.0 M31.35 20.4 L30.9 19.55 30.85 20.35 31.35 20.4" fill="#b8a86a" fill-rule="evenodd" stroke="none"/>
      <path d="M19.65 12.55 Q20.15 12.15 20.7 12.0 L21.5 11.95 Q23.55 11.9 25.2 13.1 L25.3 13.1 25.65 13.45 Q26.95 14.65 26.85 17.5 L26.8 17.8 Q26.6 19.4 25.65 20.55 L26.1 19.1 26.1 18.35 Q25.65 19.4 23.3 20.0 24.55 19.65 25.35 18.8 L25.65 18.35 Q26.2 17.55 26.2 16.7 L26.2 16.55 25.95 15.65 25.9 15.4 Q25.5 14.35 24.45 13.6 L23.45 13.1 Q22.2 12.45 20.9 12.5 L20.8 12.5 19.65 12.55 M35.65 17.65 L35.5 17.9 Q35.25 18.4 35.4 18.95 34.05 18.75 32.5 17.55 L33.65 17.8 33.7 17.8 35.65 17.65 M15.85 27.0 Q13.85 22.55 15.75 18.35 16.0 19.25 16.55 19.85 L18.05 21.1 18.2 21.3 Q19.05 21.9 19.9 22.15 21.15 22.6 22.45 22.15 L22.5 22.1 23.3 21.8 23.45 21.65 24.8 20.9 Q25.9 20.7 26.35 22.55 L26.5 22.8 26.35 24.05 26.35 24.7 Q24.75 23.0 23.6 23.5 L23.5 23.55 22.9 24.1 22.55 24.65 22.6 24.9 Q22.05 27.45 17.0 24.85 17.8 27.2 19.15 28.25 18.6 30.35 15.85 27.0 M32.25 18.75 L31.85 18.45 29.5 16.45 28.7 15.45 32.1 18.15 32.25 18.75" fill="#80744a" fill-rule="evenodd" stroke="none"/>
      <path d="M32.0 21.35 L32.2 21.1 32.2 21.05 32.5 20.65 33.35 20.55 33.8 21.05 33.85 21.05 35.0 23.4 35.05 23.6 34.1 23.15 33.1 23.85 33.05 23.7 32.0 21.4 32.0 21.35" fill="#dedacb" fill-rule="evenodd" stroke="none"/>
      <path d="M28.25 12.1 Q28.3 11.6 28.5 11.3 L30.1 11.6 30.1 11.65 Q30.7 12.7 30.75 13.45 30.9 14.45 30.2 14.85 L29.7 14.4 29.05 13.6 28.4 12.45 28.25 12.1 M21.55 20.2 L19.55 19.9 18.95 19.65 17.95 19.1 Q17.55 17.65 18.25 16.45 L18.8 15.65 20.1 14.25 20.9 14.2 21.2 14.7 21.3 14.8 Q22.55 17.0 22.0 19.05 L21.95 19.2 21.55 20.2 M27.9 34.05 L28.15 33.8 28.65 33.9 27.9 34.05 M28.7 33.3 Q30.4 31.8 30.75 29.7 L30.7 26.6 31.85 27.3 32.65 26.45 34.0 27.1 33.85 29.1 Q33.9 30.3 33.3 31.4 L31.2 33.1 30.45 33.45 28.7 33.3" fill="#2b231a" fill-rule="evenodd" stroke="none"/>
      <path d="M22.45 10.9 L22.55 10.85 22.55 10.9 22.45 10.9" fill="#c4b9aa" fill-rule="evenodd" stroke="none"/>
      <path d="M35.0 23.9 L34.95 24.3 34.55 24.5 34.15 24.65 34.0 24.55 33.2 24.4 33.2 24.05 33.1 23.85 34.1 23.15 35.05 23.6 35.0 23.9" fill="#cbc5ab" fill-rule="evenodd" stroke="none"/>
      <path d="M35.1 26.8 Q35.25 28.05 35.0 29.45 L34.95 29.6 34.8 29.75 34.55 29.75 33.95 29.25 33.85 29.1 34.0 27.1 33.9 26.5 35.1 26.8 M24.6 34.8 L24.4 34.85 22.95 34.75 Q21.7 34.55 20.55 33.85 22.6 34.4 23.55 33.2 22.2 31.55 22.1 28.6 L22.15 28.7 Q22.4 29.85 23.45 31.5 L24.5 33.2 24.9 33.8 24.95 33.85 25.0 34.15 24.95 34.35 24.9 34.5 24.6 34.8 M21.9 26.75 L22.05 27.9 20.55 27.05 20.75 27.1 Q21.45 27.15 21.9 26.75 M30.0 24.3 L29.95 24.3 28.4 24.3 28.35 24.3 28.1 23.6 28.15 23.55 28.85 22.55 30.05 22.65 30.3 23.2 30.0 24.3 M28.15 23.55 L28.4 24.3 28.15 23.55" fill="#4a412d" fill-rule="evenodd" stroke="none"/>
      <path d="M19.6 12.6 L19.6 12.55 19.65 12.55 19.6 12.6" fill="#a19478" fill-rule="evenodd" stroke="none"/>
      <path d="M34.8 29.75 L34.45 30.7 34.25 31.15 Q33.15 32.95 31.3 33.85 30.85 34.0 30.35 34.25 L30.45 33.45 31.2 33.1 33.3 31.4 Q33.9 30.3 33.85 29.1 L33.95 29.25 34.55 29.75 34.8 29.75 M28.6 34.3 L28.6 34.7 25.0 34.8 24.6 34.8 24.9 34.5 24.95 34.35 25.0 34.15 27.9 34.05 28.65 33.9 28.6 34.3" fill="#352f20" fill-rule="evenodd" stroke="none"/>
      <path d="M34.55 24.5 Q35.0 25.5 35.1 26.8 L33.9 26.5 33.2 24.4 34.0 24.55 34.15 24.65 34.55 24.5" fill="#352d20" fill-rule="evenodd" stroke="none"/>
      <path d="M30.35 34.25 L30.25 34.25 28.6 34.3 28.65 33.9 28.15 33.8 26.6 33.45 25.65 32.85 27.45 33.25 28.7 33.3 30.45 33.45 30.35 34.25" fill="#2b251a" fill-rule="evenodd" stroke="none"/>
      <path d="M36.8 21.5 L38.05 22.8 37.3 22.65 36.85 23.8 35.8 22.6 35.25 21.1 35.3 21.15 Q36.0 20.75 36.8 21.5 M28.5 24.6 L29.15 26.55 27.85 26.25 27.15 27.3 27.1 27.25 26.35 24.7 26.35 24.05 Q26.4 23.75 26.6 23.6 L27.0 23.25 27.6 23.15 28.05 23.5 28.1 23.6 28.35 24.3 28.5 24.6" fill="#c4b9a2" fill-rule="evenodd" stroke="none"/>
      <path d="M35.8 22.6 L35.9 22.75 36.25 23.7 35.45 23.2 35.05 23.6 35.0 23.4 33.85 21.05 33.95 20.95 34.1 20.75 Q34.4 20.45 35.1 21.0 L35.15 21.0 35.25 21.1 35.8 22.6 M29.9 22.15 L29.9 22.05 30.25 21.4 30.4 21.05 Q30.7 20.75 32.0 21.35 L32.0 21.4 33.05 23.7 31.7 23.45 30.8 24.75 30.4 23.6 30.3 23.2 30.05 22.65 29.9 22.15" fill="#d0c8b7" fill-rule="evenodd" stroke="none"/>
      <path d="M36.25 23.7 L36.2 24.5 Q35.35 24.45 35.0 23.9 L35.05 23.6 35.45 23.2 36.25 23.7 M33.2 24.4 L32.8 24.85 32.75 24.85 32.55 24.9 30.85 25.05 30.8 24.75 31.7 23.45 33.05 23.7 33.1 23.85 33.2 24.05 33.2 24.4" fill="#bbb391" fill-rule="evenodd" stroke="none"/>
      <path d="M38.05 22.8 L38.15 24.25 36.85 23.8 37.3 22.65 38.05 22.8 M29.15 26.55 L28.25 27.55 27.15 27.3 27.85 26.25 29.15 26.55" fill="#b4aa87" fill-rule="evenodd" stroke="none"/>
      <path d="M36.15 17.2 L36.35 16.8 36.35 16.55 36.3 16.4 36.25 16.25 35.4 15.4 Q34.55 12.35 32.45 10.9 31.55 10.25 30.45 9.95 L30.25 9.9 28.3 9.5 Q27.5 9.45 27.25 9.8 L27.05 10.05 Q26.8 10.4 26.95 11.0 M30.1 11.6 L30.55 11.7 31.75 12.2 31.9 12.2 32.55 12.75 Q33.9 13.8 35.05 15.95 L35.15 15.4 Q34.45 12.0 30.35 10.15 L30.3 10.15 28.4 9.9 28.1 10.1 Q27.85 10.65 28.05 11.35 L28.25 12.1 Q28.3 11.6 28.5 11.3 L30.1 11.6 M30.2 14.85 L31.0 15.55 31.05 15.6 31.2 15.75 31.5 15.85 32.6 16.05 32.75 16.2 34.05 16.5 34.3 16.45 34.6 16.35 34.65 16.35 35.05 15.95 35.05 16.15 34.95 16.2 34.65 16.35 M28.4 12.45 L28.25 12.1 M22.55 10.9 Q23.4 11.0 24.2 11.55 M15.8 16.35 L15.95 15.8 Q16.95 14.05 18.2 12.9 L20.05 11.5 20.7 11.2 22.45 10.9 22.55 10.85 Q23.75 9.75 26.95 9.8 L27.25 9.8 M22.45 10.9 L22.55 10.9 M29.05 13.6 L28.4 12.45 M30.2 14.85 L29.7 14.4 29.05 13.6 M36.15 17.2 L35.85 17.45 35.65 17.65 35.5 17.9 Q35.25 18.4 35.4 18.95 35.45 19.55 35.85 20.25 L35.85 20.35 36.3 20.8 36.65 21.25 36.8 21.5 38.05 22.8 38.15 24.25 36.85 23.8 35.8 22.6 35.9 22.75 36.25 23.7 36.2 24.5 Q35.35 24.45 35.0 23.9 L34.95 24.3 34.55 24.5 34.15 24.65 34.0 24.55 33.2 24.4 33.2 24.05 33.1 23.85 34.1 23.15 35.05 23.6 35.0 23.4 33.85 21.05 33.95 20.95 34.1 20.75 Q34.4 20.45 35.1 21.0 L35.15 21.0 35.25 21.1 35.8 22.6 M24.4 34.85 L22.95 34.75 Q21.7 34.55 20.55 33.85 18.35 32.35 16.65 28.75 L15.95 27.2 15.85 27.0 Q13.85 22.55 15.75 18.35 15.55 17.45 15.8 16.35 M23.3 20.0 L23.1 20.05 22.9 20.05 M22.7 20.1 L22.2 20.2 22.1 20.2 21.55 20.2 19.55 19.9 18.95 19.65 17.95 19.1 17.55 18.75 17.1 18.3 Q16.1 15.7 18.4 13.55 L19.6 12.6 19.6 12.55 19.65 12.55 20.8 12.5 20.9 12.5 Q22.2 12.45 23.45 13.1 L24.45 13.6 Q25.5 14.35 25.9 15.4 L25.95 15.65 26.2 16.55 26.2 16.7 Q26.2 17.55 25.65 18.35 L25.35 18.8 Q24.55 19.65 23.3 20.0 M31.85 18.45 L31.7 18.5 31.65 18.5 31.4 18.35 30.75 18.0 30.65 17.85 Q30.5 18.75 30.2 18.9 L30.05 19.0 29.5 16.45 M20.9 14.2 L21.05 14.2 21.15 14.2 Q22.55 14.15 23.95 14.8 L24.65 15.15 Q25.1 15.35 25.35 15.7 L26.2 16.7 M18.05 21.1 L18.2 21.3 Q19.05 21.9 19.9 22.15 21.15 22.6 22.45 22.15 L22.5 22.1 23.3 21.8 23.45 21.65 24.8 20.9 M27.9 23.0 L27.7 22.45 27.6 21.3 M28.7 22.1 L28.75 22.1 28.8 22.1 29.1 22.1 29.75 22.15 29.9 22.15 29.9 22.05 29.6 20.9 M32.05 21.1 Q32.05 20.45 31.65 19.75 M33.95 20.95 L33.9 20.5 33.85 20.5 33.85 20.2 33.1 19.4 M34.55 20.35 L35.05 20.65 35.25 20.85 M26.35 24.7 Q24.75 23.0 23.6 23.5 L23.5 23.55 22.9 24.1 22.55 24.65 22.6 24.9 21.9 26.75 22.05 27.9 22.1 28.6 22.15 28.7 Q22.4 29.85 23.45 31.5 L24.5 33.2 M33.2 24.4 L32.8 24.85 32.75 24.85 32.55 24.9 30.85 25.05 30.8 24.75 30.4 23.6 30.0 24.3 29.95 24.3 29.75 24.45 28.5 24.6 29.15 26.55 28.25 27.55 27.15 27.3 27.1 27.25 26.35 24.7 26.35 24.05 26.5 22.8 M27.6 23.15 L27.0 23.25 26.6 23.6 Q26.4 23.75 26.35 24.05 M30.05 22.65 L30.3 23.2 30.4 23.6 M30.05 22.65 L29.9 22.15 M27.9 23.0 L28.0 23.2 28.5 22.3 28.6 22.15 28.7 22.1 M28.05 23.5 L28.0 23.35 27.6 23.15 M28.0 23.2 L28.0 23.35 M28.05 23.5 L28.1 23.6 28.35 24.3 28.5 24.6 M32.0 21.35 Q30.7 20.75 30.4 21.05 L30.25 21.4 29.9 22.05 M33.7 17.8 L35.65 17.65 M35.25 21.0 L35.25 20.85 M33.85 21.05 L33.8 21.05 33.35 20.55 32.5 20.65 32.2 21.05 32.2 21.1 32.0 21.35 32.0 21.4 33.05 23.7 33.1 23.85 M35.25 21.1 L35.3 21.15 Q36.0 20.75 36.8 21.5 M35.25 21.1 L35.25 21.0 M32.0 21.35 L32.05 21.1 M35.0 23.9 L35.05 23.6 35.45 23.2 36.25 23.7 M30.8 24.75 L31.7 23.45 33.05 23.7 M36.85 23.8 L37.3 22.65 38.05 22.8 M31.85 18.45 L29.5 16.45 M19.65 12.55 L19.6 12.6 M17.95 19.1 Q17.55 17.65 18.25 16.45 L18.8 15.65 20.1 14.25 20.9 14.2 M15.75 18.35 Q16.0 19.25 16.55 19.85 M20.55 27.05 L18.95 26.5 18.25 26.15 M27.15 27.3 L27.85 26.25 29.15 26.55 M21.9 26.75 Q21.45 27.15 20.75 27.1 L20.55 27.05" fill="none" stroke="#000000" stroke-linecap="round" stroke-linejoin="round" stroke-opacity="0.3019608" stroke-width="0.05"/>
      <path d="M34.55 24.5 Q35.0 25.5 35.1 26.8 35.25 28.05 35.0 29.45 L34.95 29.6 34.8 29.75 34.45 30.7 34.25 31.15 Q33.15 32.95 31.3 33.85 30.85 34.0 30.35 34.25 L30.25 34.25 28.6 34.3 28.6 34.7 25.0 34.8 24.6 34.8 24.4 34.85 M24.5 33.2 L24.9 33.8 24.95 33.85 25.0 34.15 M28.15 33.8 L26.6 33.45 25.65 32.85 27.45 33.25 28.7 33.3 30.45 33.45 30.35 34.25 M34.0 27.1 L33.9 26.5 33.2 24.4 M27.6 23.15 L28.05 23.5 28.15 23.55 28.0 23.2 M28.4 24.3 L28.15 23.55 M33.85 29.1 L33.95 29.25 34.55 29.75 34.8 29.75 M34.0 27.1 L33.85 29.1 M24.6 34.8 L24.9 34.5 24.95 34.35 25.0 34.15 M28.65 33.9 L28.15 33.8 M28.65 33.9 L28.6 34.3" fill="none" stroke="#000000" stroke-linecap="round" stroke-linejoin="round" stroke-opacity="0.36862746" stroke-width="0.05"/>
      <path d="M17.9 22.8 L18.9 22.25 19.45 24.55 19.45 24.7 18.55 25.35 17.95 22.9 17.9 22.8" fill="#505438" fill-rule="evenodd" stroke="none"/>
      <path d="M16.35 21.2 L16.35 21.15 17.25 20.45 18.9 22.1 18.9 22.25 17.9 22.8 16.35 21.2 M13.9 20.35 L15.1 19.65 15.75 19.6 15.8 19.7 14.65 20.4 13.9 20.35 M17.3 23.25 L17.9 22.8 17.95 22.9 18.55 25.35 17.9 25.7 17.85 25.65 17.3 23.25" fill="#6d704b" fill-rule="evenodd" stroke="none"/>
      <path d="M16.3 21.2 L16.35 21.2 17.9 22.8 17.3 23.25 15.65 21.6 Q16.0 21.35 16.3 21.2 M13.25 20.8 L13.9 20.35 14.65 20.4 14.2 20.75 13.25 20.8" fill="#7f8258" fill-rule="evenodd" stroke="none"/>
      <path d="M16.35 21.15 L16.3 21.2 14.9 20.4 14.65 20.4 15.8 19.7 17.2 20.4 17.25 20.45 16.35 21.15" fill="#8e9463" fill-rule="evenodd" stroke="none"/>
      <path d="M14.65 20.4 L14.9 20.4 16.3 21.2 Q16.0 21.35 15.65 21.6 L15.6 21.5 14.2 20.75 14.65 20.4" fill="#999e6b" fill-rule="evenodd" stroke="none"/>
      <path d="M18.55 25.35 L18.5 27.25 17.75 27.75 17.85 25.7 17.9 25.7 18.55 25.35" fill="#656545" fill-rule="evenodd" stroke="none"/>
      <path d="M15.65 21.6 L17.3 23.25 17.85 25.65 17.85 25.7 17.75 27.75 16.95 28.05 15.45 27.75 14.05 26.1 13.0 23.45 12.9 21.7 13.25 20.8 14.2 20.75 15.6 21.5 15.65 21.6 M18.55 25.35 L19.45 24.7 19.4 26.7 18.5 27.25 18.55 25.35" fill="#41422d" fill-rule="evenodd" stroke="none"/>
      <path d="M18.9 22.25 L18.9 22.1 17.25 20.45 M15.8 19.7 L17.2 20.4 17.25 20.45 M13.9 20.35 L15.1 19.65 15.75 19.6 15.8 19.7 M15.65 21.6 L17.3 23.25 M19.45 24.7 L19.45 24.55 18.9 22.25 M17.75 27.75 L16.95 28.05 15.45 27.75 14.05 26.1 13.0 23.45 12.9 21.7 13.25 20.8 13.9 20.35 M14.2 20.75 L15.6 21.5 15.65 21.6 M13.25 20.8 L14.2 20.75 M18.5 27.25 L19.4 26.7 19.45 24.7 M17.85 25.65 L17.85 25.7 17.9 25.7 M17.85 25.65 L17.3 23.25 M18.5 27.25 L17.75 27.75 17.85 25.7" fill="none" stroke="#000000" stroke-linecap="round" stroke-linejoin="round" stroke-opacity="0.36862746" stroke-width="0.05"/>
      <path d="M17.6 25.7 L17.6 25.8 17.65 27.4 15.9 28.2 15.75 26.95 15.7 26.5 16.15 26.3 17.6 25.7 M10.1 27.55 L9.85 27.4 8.75 26.7 6.05 24.9 5.25 24.25 2.45 21.95 1.65 20.8 9.4 26.0 9.7 26.75 10.0 27.4 10.1 27.55" fill="#80744a" fill-rule="evenodd" stroke="none"/>
      <path d="M1.65 19.8 L2.25 19.3 2.8 19.25 5.8 20.55 6.55 21.0 9.6 21.85 9.35 22.55 9.4 22.6 9.2 24.15 Q10.75 25.05 12.15 25.2 13.65 25.3 14.95 24.55 L15.1 24.45 14.85 24.0 13.95 22.65 13.8 22.5 14.55 22.1 15.05 21.9 16.8 23.6 15.1 24.45 15.55 25.55 15.7 26.5 15.3 26.65 14.7 26.9 12.45 27.15 10.95 26.8 9.4 26.0 Q9.15 25.05 9.25 24.25 L1.65 19.8" fill="#dbcb90" fill-rule="evenodd" stroke="none"/>
      <path d="M16.8 23.6 L16.85 23.7 17.05 23.95 17.6 25.65 17.6 25.7 16.15 26.3 15.7 26.5 15.75 26.95 15.9 28.2 15.6 28.45 Q13.45 29.9 10.1 27.55 L10.0 27.4 9.7 26.75 9.4 26.0 1.65 20.8 1.55 20.6 1.45 20.2 1.65 19.8 9.25 24.25 Q9.15 25.05 9.4 26.0 L10.95 26.8 12.45 27.15 14.7 26.9 15.3 26.65 15.7 26.5 15.55 25.55 15.1 24.45 16.8 23.6" fill="#a1935d" fill-rule="evenodd" stroke="none"/>
      <path d="M12.65 21.3 L13.3 20.95 14.15 20.95 15.05 21.9 14.55 22.1 13.8 22.5 13.95 22.65 14.85 24.0 15.1 24.45 14.95 24.55 Q13.65 25.3 12.15 25.2 10.75 25.05 9.2 24.15 L9.4 22.6 11.75 23.0 13.8 22.5 13.4 22.0 12.65 21.3" fill="#e3d8ac" fill-rule="evenodd" stroke="none"/>
      <path d="M9.6 21.85 L12.0 21.55 Q12.7 21.15 12.65 21.3 L13.4 22.0 13.8 22.5 11.75 23.0 9.4 22.6 9.35 22.55 9.6 21.85" fill="#ece3c6" fill-rule="evenodd" stroke="none"/>
      <path d="M1.65 19.8 L2.25 19.3 2.8 19.25 5.8 20.55 6.55 21.0 9.6 21.85 12.0 21.55 Q12.7 21.15 12.65 21.3 L13.3 20.95 14.15 20.95 15.05 21.9 16.8 23.6 16.85 23.7 17.05 23.95 17.6 25.65 17.6 25.7 17.6 25.8 17.65 27.4 15.9 28.2 15.6 28.45 Q13.45 29.9 10.1 27.55 L9.85 27.4 8.75 26.7 6.05 24.9 5.25 24.25 2.45 21.95 1.65 20.8 1.55 20.6 1.45 20.2 1.65 19.8 Z" fill="none" stroke="#000000" stroke-linecap="round" stroke-linejoin="round" stroke-opacity="0.36862746" stroke-width="0.05"/>
      <path d="M21.45 28.65 L21.9 30.4 21.95 30.5 21.2 31.0 20.8 29.15 20.7 29.1 21.45 28.65" fill="#505438" fill-rule="evenodd" stroke="none"/>
      <path d="M17.7 27.4 L18.55 26.85 19.0 26.8 19.1 26.8 18.25 27.4 17.7 27.4 M20.2 27.35 L21.4 28.55 21.45 28.65 20.7 29.1 20.8 29.15 21.2 31.0 20.75 31.3 20.7 31.25 20.25 29.45 20.7 29.1 19.5 27.9 19.5 27.85 20.2 27.35" fill="#6d704b" fill-rule="evenodd" stroke="none"/>
      <path d="M17.15 27.7 L17.7 27.4 18.25 27.4 17.9 27.65 17.15 27.7 M19.45 27.9 L19.5 27.9 20.7 29.1 20.25 29.45 19.0 28.3 19.45 27.9" fill="#7f8258" fill-rule="evenodd" stroke="none"/>
      <path d="M19.1 26.8 L20.15 27.3 20.2 27.35 19.5 27.85 19.45 27.9 18.45 27.4 18.25 27.4 19.1 26.8" fill="#8e9463" fill-rule="evenodd" stroke="none"/>
      <path d="M18.25 27.4 L18.45 27.4 19.45 27.9 19.0 28.3 18.95 28.25 17.9 27.65 18.25 27.4" fill="#999e6b" fill-rule="evenodd" stroke="none"/>
      <path d="M21.2 32.5 L20.65 32.85 20.75 31.3 21.2 31.0 21.2 32.5" fill="#656545" fill-rule="evenodd" stroke="none"/>
      <path d="M21.95 30.5 L21.85 32.0 21.2 32.5 21.2 31.0 21.95 30.5 M20.65 32.85 L20.05 33.15 18.95 32.95 17.85 31.75 17.05 29.75 17.0 28.4 17.15 27.7 17.9 27.65 18.95 28.25 19.0 28.3 20.25 29.45 20.7 31.25 20.75 31.3 20.65 32.85" fill="#41422d" fill-rule="evenodd" stroke="none"/>
      <path d="M17.7 27.4 L18.55 26.85 19.0 26.8 19.1 26.8 20.15 27.3 20.2 27.35 21.4 28.55 21.45 28.65 21.9 30.4 21.95 30.5 21.85 32.0 21.2 32.5 20.65 32.85 20.05 33.15 18.95 32.95 17.85 31.75 17.05 29.75 17.0 28.4 17.15 27.7 17.7 27.4 M17.9 27.65 L18.95 28.25 19.0 28.3 M17.15 27.7 L17.9 27.65 M20.7 31.25 L20.75 31.3 20.65 32.85 M20.7 31.25 L20.25 29.45 19.0 28.3" fill="none" stroke="#000000" stroke-linecap="round" stroke-linejoin="round" stroke-opacity="0.36862746" stroke-width="0.05"/>
      <path d="M12.4 30.9 L13.7 31.15 16.35 31.5 16.4 31.45 16.85 31.35 16.9 31.25 17.7 31.0 Q18.0 30.8 18.3 30.75 L18.95 30.35 19.0 30.3 19.2 30.25 19.6 29.9 19.8 29.65 20.35 31.15 19.45 31.7 19.2 31.8 19.0 31.95 Q18.65 32.0 18.35 32.2 L18.25 31.9 18.2 32.25 17.95 32.3 16.7 32.75 16.3 32.9 14.6 32.8 13.0 32.5 12.05 32.2 12.4 30.9" fill="#b8a86a" fill-rule="evenodd" stroke="none"/>
      <path d="M13.2 29.85 L13.95 30.0 Q16.15 30.3 18.9 28.55 L18.95 28.55 18.9 28.6 19.15 28.8 19.8 29.65 19.6 29.9 19.2 30.25 19.0 30.3 18.95 30.35 18.3 30.75 Q18.0 30.8 17.7 31.0 L16.9 31.25 16.85 31.35 16.4 31.45 16.35 31.5 13.7 31.15 12.4 30.9 13.2 29.85" fill="#d9c67d" fill-rule="evenodd" stroke="none"/>
      <path d="M18.9 28.55 Q16.15 30.3 13.95 30.0 L13.2 29.85 14.5 28.8 16.25 28.75 16.6 28.6 17.8 28.0 17.95 27.85 18.4 28.05 18.8 28.4 18.9 28.55 M18.0 33.1 L17.95 33.65 16.65 33.85 16.05 33.85 12.8 33.55 12.55 33.45 12.2 33.15 Q11.95 32.8 12.05 32.3 L12.05 32.2 13.0 32.5 14.6 32.8 16.3 32.9 16.7 32.75 17.95 32.3 18.2 32.25 18.0 33.1 M18.35 32.2 Q18.65 32.0 19.0 31.95 L19.2 31.8 19.45 31.7 20.35 31.15 20.35 31.3 20.45 32.35 20.45 32.6 20.1 32.75 19.65 32.95 19.05 33.2 Q18.85 33.25 18.75 33.4 L18.35 32.2" fill="#716742" fill-rule="evenodd" stroke="none"/>
      <path d="M18.2 32.25 L18.25 31.9 18.35 32.2 18.75 33.4 18.7 33.4 Q18.35 33.2 18.0 33.1 L18.2 32.25" fill="#554e33" fill-rule="evenodd" stroke="none"/>
      <path d="M18.9 28.55 L18.8 28.4 18.4 28.05 17.95 27.85 17.8 28.0 16.6 28.6 16.25 28.75 14.5 28.8 13.2 29.85 12.4 30.9 M19.8 29.65 L19.15 28.8 18.9 28.6 18.95 28.55 18.9 28.55 M18.0 33.1 L17.95 33.65 16.65 33.85 16.05 33.85 12.8 33.55 12.55 33.45 12.2 33.15 Q11.95 32.8 12.05 32.3 L12.05 32.2 12.4 30.9 M18.2 32.25 L18.25 31.9 18.35 32.2 18.75 33.4 18.7 33.4 Q18.35 33.2 18.0 33.1 L18.2 32.25 M20.35 31.15 L19.8 29.65 M20.35 31.15 L20.35 31.3 20.45 32.35 20.45 32.6 20.1 32.75 19.65 32.95 19.05 33.2 Q18.85 33.25 18.75 33.4" fill="none" stroke="#000000" stroke-linecap="round" stroke-linejoin="round" stroke-opacity="0.36862746" stroke-width="0.05"/>
    </g>
  </defs>
</svg>
