<?xml version="1.0" encoding="UTF-8" standalone="no"?>
<svg xmlns:xlink="http://www.w3.org/1999/xlink" height="520.0px" width="520.0px" xmlns="http://www.w3.org/2000/svg">
  <g transform="matrix(10.0, 0.0, 0.0, 10.0, 0.0, 0.0)">
    <use height="52.0" transform="matrix(1.0, 0.0, 0.0, 1.0, 0.0, 0.0)" width="52.0" xlink:href="#shape0"/>
  </g>
  <defs>
    <g id="shape0" transform="matrix(1.0, 0.0, 0.0, 1.0, 0.0, 0.0)">
      <path d="M52.0 0.0 L52.0 52.0 0.0 52.0 0.0 0.0 52.0 0.0" fill="#33cc33" fill-opacity="0.0" fill-rule="evenodd" stroke="none"/>
      <path d="M43.05 24.85 L39.45 29.3 29.35 20.95 37.1 21.45 43.05 24.85" fill="#b5a179" fill-rule="evenodd" stroke="none"/>
      <path d="M42.85 22.25 L43.05 24.85 37.1 21.45 37.7 12.0 42.1 13.15 42.25 14.75 40.6 13.6 Q38.25 14.45 38.2 16.9 38.2 17.85 38.55 19.15 L40.95 22.2 42.85 22.25" fill="#9a865e" fill-rule="evenodd" stroke="none"/>
      <path d="M29.35 20.95 L33.25 12.95 37.7 12.0 37.1 21.45 29.35 20.95 M42.25 14.75 Q44.75 16.6 46.75 18.6 42.1 18.45 38.2 16.9 38.25 14.45 40.6 13.6 L42.25 14.75" fill="#f2e4c1" fill-rule="evenodd" stroke="none"/>
      <path d="M50.1 22.75 L42.85 22.25 40.95 22.2 38.55 19.15 Q40.5 18.45 42.55 18.7 46.15 19.2 50.1 22.75" fill="#ffffe5" fill-rule="evenodd" stroke="none"/>
      <path d="M46.75 18.6 Q48.7 20.6 50.1 22.75 46.15 19.2 42.55 18.7 40.5 18.45 38.55 19.15 38.2 17.85 38.2 16.9 42.1 18.45 46.75 18.6" fill="#decca0" fill-rule="evenodd" stroke="none"/>
      <path d="M46.75 18.6 Q48.7 20.6 50.1 22.75 L42.85 22.25 43.05 24.85 39.45 29.3 29.35 20.95 33.25 12.95 37.7 12.0 42.1 13.15 42.25 14.75 Q44.75 16.6 46.75 18.6 M38.2 16.9 Q38.2 17.85 38.55 19.15 L40.95 22.2 42.85 22.25 M38.2 16.9 Q38.25 14.45 40.6 13.6 L42.25 14.75" fill="none" stroke="#000000" stroke-linecap="round" stroke-linejoin="round" stroke-opacity="0.3019608" stroke-width="0.5"/>
      <path d="M30.65 9.05 L31.75 9.45 36.3 14.85 36.95 17.0 35.45 19.2 32.3 21.3 Q27.05 24.7 25.3 20.35 L19.65 14.6 17.75 13.75 Q22.4 7.05 30.65 9.05" fill="#ffc515" fill-rule="evenodd" stroke="none"/>
      <path d="M21.85 7.5 L25.85 7.25 30.65 9.05 Q22.4 7.05 17.75 13.75 L19.65 14.6 25.3 20.35 Q27.05 24.7 32.3 21.3 L35.45 19.2 36.95 17.0 38.9 22.35 38.75 23.7 36.7 21.7 34.5 21.6 31.85 22.95 Q28.95 24.6 27.65 26.1 L25.85 29.05 Q25.3 35.55 28.3 36.45 L20.4 37.35 23.5 30.75 22.55 21.45 17.6 18.0 12.95 17.3 Q10.85 12.7 21.6 7.5 L21.85 7.5" fill="#9f5711" fill-rule="evenodd" stroke="none"/>
      <path d="M20.4 37.35 L15.25 35.9 Q9.7 33.95 7.5 31.75 4.9 27.45 5.85 25.0 L7.35 18.55 12.95 17.3 17.6 18.0 22.55 21.45 23.5 30.75 20.4 37.35" fill="#c9780c" fill-rule="evenodd" stroke="none"/>
      <path d="M38.75 23.7 L38.9 28.1 36.55 25.8 31.5 28.95 28.75 36.25 28.3 36.45 Q25.3 35.55 25.85 29.05 L27.65 26.1 Q28.95 24.6 31.85 22.95 L34.5 21.6 36.7 21.7 38.75 23.7" fill="#e09714" fill-rule="evenodd" stroke="none"/>
      <path d="M38.9 28.1 L38.6 29.85 Q34.75 33.95 28.75 36.25 L31.5 28.95 36.55 25.8 38.9 28.1" fill="#333300" fill-rule="evenodd" stroke="none"/>
      <path d="M7.35 18.55 L9.4 15.9 14.05 10.85 21.05 7.55 21.6 7.5 Q10.85 12.7 12.95 17.3 L7.35 18.55" fill="#914d0f" fill-rule="evenodd" stroke="none"/>
      <path d="M21.85 7.5 L25.85 7.25 30.65 9.05 31.75 9.45 36.3 14.85 36.95 17.0 38.9 22.35 38.75 23.7 38.9 28.1 38.6 29.85 Q34.75 33.95 28.75 36.25 L28.3 36.45 20.4 37.35 15.25 35.9 Q9.7 33.95 7.5 31.75 4.9 27.45 5.85 25.0 L7.35 18.55 9.4 15.9 14.05 10.85 21.05 7.55 21.6 7.5" fill="none" stroke="#000000" stroke-linecap="round" stroke-linejoin="round" stroke-opacity="0.3019608" stroke-width="0.5"/>
      <path d="M26.55 23.15 L27.75 23.65 Q30.4 24.55 32.9 24.55 34.65 24.55 36.25 23.85 38.0 23.1 38.5 21.85 L39.15 20.5 39.4 19.9 38.15 16.8 32.9 12.9 33.7 12.5 38.45 15.0 42.8 25.2 43.3 33.8 41.9 34.75 41.5 28.35 41.2 24.5 30.65 27.85 26.55 23.15" fill="#ffffff" fill-rule="evenodd" stroke="none"/>
      <path d="M41.5 28.35 L41.9 34.75 Q40.3 36.05 34.3 37.35 L32.65 32.85 Q32.85 31.1 34.9 29.3 37.2 27.3 39.3 27.3 40.45 27.3 41.5 28.35" fill="#f2e4c1" fill-rule="evenodd" stroke="none"/>
      <path d="M43.3 33.8 L42.8 25.2 38.45 15.0 44.65 26.35 45.45 35.45 43.3 33.8 M16.45 24.75 L16.7 24.75 Q24.95 24.75 30.15 31.7 32.6 35.0 33.65 38.5 L32.9 39.75 22.65 40.85 17.2 39.3 16.6 32.35 14.55 31.2 16.45 24.75 M28.15 35.8 L28.15 35.15 Q23.55 28.45 21.25 29.2 20.05 29.6 19.65 30.75 L19.8 33.25 20.05 36.65 20.05 36.7 28.35 37.3 28.15 35.8" fill="#b5a179" fill-rule="evenodd" stroke="none"/>
      <path d="M26.35 35.6 L28.15 35.8 28.35 37.3 20.05 36.7 20.05 36.65 21.55 35.1 26.35 35.6" fill="#645028" fill-rule="evenodd" stroke="none"/>
      <path d="M32.9 12.9 L38.15 16.8 39.4 19.9 39.15 20.5 38.5 21.85 Q38.0 23.1 36.25 23.85 34.65 24.55 32.9 24.55 30.4 24.55 27.75 23.65 L26.55 23.15 22.65 18.85 27.1 14.75 32.9 12.9" fill="#fff6d3" fill-rule="evenodd" stroke="none"/>
      <path d="M21.45 32.55 Q24.95 31.55 26.35 35.6 L21.55 35.1 21.45 32.55" fill="#1a0c00" fill-rule="evenodd" stroke="none"/>
      <path d="M22.65 18.85 L26.55 23.15 30.65 27.85 32.35 32.05 32.65 32.85 34.3 37.35 33.65 38.5 Q32.6 35.0 30.15 31.7 24.95 24.75 16.7 24.75 L16.45 24.75 17.2 22.25 22.65 18.85" fill="#a3916d" fill-rule="evenodd" stroke="none"/>
      <path d="M30.65 27.85 L41.2 24.5 41.5 28.35 Q40.45 27.3 39.3 27.3 37.2 27.3 34.9 29.3 32.85 31.1 32.65 32.85 L32.35 32.05 30.65 27.85" fill="#e3d4b1" fill-rule="evenodd" stroke="none"/>
      <path d="M21.35 31.65 L21.45 32.55 21.55 35.1 20.05 36.65 19.8 33.25 Q20.5 31.1 21.35 31.65" fill="#45371b" fill-rule="evenodd" stroke="none"/>
      <path d="M21.25 29.2 L21.35 31.65 Q20.5 31.1 19.8 33.25 L19.65 30.75 Q20.05 29.6 21.25 29.2" fill="#3b2f17" fill-rule="evenodd" stroke="none"/>
      <path d="M21.35 31.65 L21.25 29.2 Q23.55 28.45 28.15 35.15 L28.15 35.8 26.35 35.6 Q24.95 31.55 21.45 32.55 L21.35 31.65" fill="#050200" fill-rule="evenodd" stroke="none"/>
      <path d="M32.9 12.9 L27.1 14.75 22.65 18.85 M41.9 34.75 L43.3 33.8 45.45 35.45 44.65 26.35 38.45 15.0 33.7 12.5 32.9 12.9 M34.3 37.35 Q40.3 36.05 41.9 34.75 M16.45 24.75 L17.2 22.25 22.65 18.85 M33.65 38.5 L34.3 37.35 M28.15 35.8 L28.15 35.15 Q23.55 28.45 21.25 29.2 20.05 29.6 19.65 30.75 M33.65 38.5 L32.9 39.75 22.65 40.85 17.2 39.3 16.6 32.35 14.55 31.2 16.45 24.75 M28.15 35.8 L28.35 37.3" fill="none" stroke="#000000" stroke-linecap="round" stroke-linejoin="round" stroke-opacity="0.3019608" stroke-width="0.5"/>
      <path d="M36.75 17.45 L38.85 20.7 39.25 24.85 37.2 23.5 35.35 20.2 34.8 17.1 36.75 17.45 M39.0 31.4 L38.9 29.05 39.15 27.3 40.4 28.75 39.0 31.4" fill="#ffffff" fill-rule="evenodd" stroke="none"/>
      <path d="M9.3 30.75 L9.2 30.6 Q8.75 29.6 8.75 28.05 8.75 26.2 10.6 24.4 L16.35 23.55 16.05 24.25 13.05 30.5 11.65 31.4 9.3 30.75 M4.0 35.35 L3.8 33.1 Q4.9 31.95 5.95 31.65 7.55 35.65 5.15 42.25 4.3 39.15 4.0 35.35" fill="#f2e4c1" fill-rule="evenodd" stroke="none"/>
      <path d="M13.75 39.3 L13.15 38.1 12.95 34.55 14.15 32.7 Q15.8 30.55 17.3 30.3 L18.25 37.5 13.75 39.3" fill="#b5a179" fill-rule="evenodd" stroke="none"/>
      <path d="M4.0 29.4 L4.7 29.6 11.5 32.5 12.2 33.7 12.2 36.55 12.0 38.05 11.45 39.25 10.25 38.65 11.25 36.65 9.8 32.9 Q7.8 31.05 5.95 31.65 4.9 31.95 3.8 33.1 L4.0 35.35 2.6 34.65 4.0 29.4" fill="#9a865e" fill-rule="evenodd" stroke="none"/>
      <path d="M9.3 30.75 L11.65 31.4 13.05 30.5 16.05 24.25 13.2 31.45 13.05 32.3 12.95 34.55 13.15 38.1 13.75 39.3 11.45 39.25 12.0 38.05 12.2 36.55 12.2 33.7 11.5 32.5 4.7 29.6 9.3 30.75 M9.8 32.9 L11.25 36.65 10.25 38.65 6.8 46.7 Q5.8 41.15 7.3 37.1 8.15 34.75 9.8 32.9" fill="#ffffe5" fill-rule="evenodd" stroke="none"/>
      <path d="M5.95 31.65 Q7.8 31.05 9.8 32.9 8.15 34.75 7.3 37.1 5.8 41.15 6.8 46.7 5.8 44.7 5.15 42.25 7.55 35.65 5.95 31.65" fill="#decca0" fill-rule="evenodd" stroke="none"/>
      <path d="M10.6 24.4 Q8.75 26.2 8.75 28.05 8.75 29.6 9.2 30.6 L9.3 30.75 4.7 29.6 4.0 29.4 7.15 24.9 10.6 24.4" fill="#e0d0a7" fill-rule="evenodd" stroke="none"/>
      <path d="M16.05 24.25 L16.35 23.55 17.3 30.3 Q15.8 30.55 14.15 32.7 L12.95 34.55 13.05 32.3 13.2 31.45 16.05 24.25" fill="#ad9a74" fill-rule="evenodd" stroke="none"/>
      <path d="M16.35 23.55 L10.6 24.4 7.15 24.9 4.0 29.4 2.6 34.65 4.0 35.35 Q4.3 39.15 5.15 42.25 5.8 44.7 6.8 46.7 L10.25 38.65 11.45 39.25 13.75 39.3 M4.0 35.35 L3.8 33.1 Q4.9 31.95 5.95 31.65 7.8 31.05 9.8 32.9 L11.25 36.65 10.25 38.65 M17.3 30.3 L16.35 23.55 M17.3 30.3 L18.25 37.5 13.75 39.3" fill="none" stroke="#000000" stroke-linecap="round" stroke-linejoin="round" stroke-opacity="0.3019608" stroke-width="0.5"/>
      <path d="M28.2 11.5 L28.85 12.2 Q29.55 13.05 29.4 14.1 L28.7 15.4 27.35 17.15 25.7 17.85 24.3 18.2 Q22.9 18.2 22.05 17.15 21.35 16.15 22.4 15.45 L23.15 14.65 24.1 13.4 24.95 14.6 Q25.8 15.6 27.15 14.45 L28.2 12.4 28.2 11.5" fill="#000000" fill-rule="evenodd" stroke="none"/>
      <path d="M24.1 13.4 Q24.1 13.15 25.0 12.25 26.0 11.25 26.65 11.2 L28.2 11.5 28.2 12.4 27.15 14.45 Q25.8 15.6 24.95 14.6 L24.1 13.4" fill="#3d3d00" fill-rule="evenodd" stroke="none"/>
      <path d="M33.45 9.7 L34.3 10.9 Q35.15 11.9 36.55 10.7 L37.55 8.65 37.55 7.85 Q37.9 8.0 38.25 8.5 38.9 9.35 38.75 10.35 L38.05 11.7 36.7 13.45 34.5 14.45 33.6 14.45 Q32.3 14.45 31.4 13.45 30.75 12.4 31.75 11.75 L32.55 10.95 33.45 9.7" fill="#000000" fill-rule="evenodd" stroke="none"/>
      <path d="M33.45 9.7 Q33.45 9.45 34.35 8.55 35.3 7.55 36.0 7.5 L36.75 7.6 Q37.35 7.65 37.55 7.85 L37.55 8.65 36.55 10.7 Q35.15 11.9 34.3 10.9 L33.45 9.7" fill="#3d3d00" fill-rule="evenodd" stroke="none"/>
    </g>
  </defs>
</svg>
