<?xml version="1.0" encoding="UTF-8" standalone="no"?>
<svg xmlns:xlink="http://www.w3.org/1999/xlink" height="440.0px" width="440.0px" xmlns="http://www.w3.org/2000/svg">
  <g transform="matrix(10.0, 0.0, 0.0, 10.0, 0.0, 0.0)">
    <use height="44.0" transform="matrix(1.0, 0.0, 0.0, 1.0, 0.0, 0.05)" width="44.0" xlink:href="#shape0"/>
    <use height="60.8" transform="matrix(0.2406, 0.0234, 0.0844, 0.2511, 21.6, 7.15)" width="60.8" xlink:href="#sprite0"/>
    <use height="60.8" transform="matrix(0.1376, -0.0467, 0.1083, 0.1167, 16.8, 3.25)" width="60.8" xlink:href="#sprite0"/>
    <use height="13.1" transform="matrix(0.2333, 0.0, 0.0, 0.2333, 30.5, 12.1)" width="13.3" xlink:href="#sprite1"/>
    <use height="13.1" transform="matrix(0.2333, 0.0, 0.0, 0.2333, 22.7, 3.85)" width="13.3" xlink:href="#sprite1"/>
    <use height="16.6" transform="matrix(1.0, 0.0, 0.0, 1.0, 6.65, 14.55)" width="6.7" xlink:href="#shape3"/>
  </g>
  <defs>
    <g id="shape0" transform="matrix(1.0, 0.0, 0.0, 1.0, 0.0, -0.05)">
      <path d="M44.0 44.05 L0.0 44.05 0.0 0.05 44.0 0.05 44.0 44.05" fill="#43adca" fill-opacity="0.0" fill-rule="evenodd" stroke="none"/>
      <path d="M7.45 36.5 L10.05 35.8" fill="none" stroke="#000000" stroke-linecap="round" stroke-linejoin="round" stroke-opacity="0.3019608" stroke-width="0.05"/>
      <path d="M36.15 26.55 Q35.65 27.15 35.65 27.95 35.65 28.75 36.15 29.3 36.55 29.95 37.2 29.95 L37.55 29.9 37.95 29.95 Q38.6 29.95 39.05 29.3 39.5 28.75 39.5 27.95 39.5 27.15 39.05 26.55 38.6 26.0 37.95 26.0 L37.55 26.05 37.2 26.0 Q36.55 26.0 36.15 26.55" fill="#666251" fill-rule="evenodd" stroke="none"/>
      <path d="M36.15 26.55 Q35.65 27.15 35.65 27.95 35.65 28.75 36.15 29.3 36.55 29.95 37.2 29.95 L37.55 29.9 37.95 29.95 Q38.6 29.95 39.05 29.3 39.5 28.75 39.5 27.95 39.5 27.15 39.05 26.55 38.6 26.0 37.95 26.0 L37.55 26.05 37.2 26.0 Q36.55 26.0 36.15 26.55 Z" fill="none" stroke="#000000" stroke-linecap="round" stroke-linejoin="round" stroke-opacity="0.3019608" stroke-width="0.5"/>
      <path d="M6.7 25.6 Q7.2 26.2 7.2 27.0 7.2 27.8 6.7 28.35 L5.65 29.0 5.3 28.95 4.9 29.0 Q4.25 29.0 3.8 28.35 3.35 27.8 3.35 27.0 3.35 26.2 3.8 25.6 4.25 25.05 4.9 25.05 L5.3 25.1 5.65 25.05 Q6.3 25.05 6.7 25.6" fill="#666251" fill-rule="evenodd" stroke="none"/>
      <path d="M6.7 25.6 Q7.2 26.2 7.2 27.0 7.2 27.8 6.7 28.35 L5.65 29.0 5.3 28.95 4.9 29.0 Q4.25 29.0 3.8 28.35 3.35 27.8 3.35 27.0 3.35 26.2 3.8 25.6 4.25 25.05 4.9 25.05 L5.3 25.1 5.65 25.05 Q6.3 25.05 6.7 25.6 Z" fill="none" stroke="#000000" stroke-linecap="round" stroke-linejoin="round" stroke-opacity="0.3019608" stroke-width="0.5"/>
      <path d="M22.0 41.7 L20.95 41.65 15.5 40.9 Q11.1 37.25 13.45 35.35 17.25 36.6 21.05 36.75 L23.25 36.85 Q25.05 40.1 22.0 41.7 M8.05 32.9 Q11.85 32.8 13.55 32.1 L18.8 33.25 Q24.7 34.4 29.3 34.55 L34.05 34.4 32.4 35.15 Q30.35 36.05 27.5 36.4 L27.4 36.4 Q20.05 35.05 15.05 33.35 11.1 33.5 10.85 34.4 L9.05 33.5 8.05 32.9" fill="#9f997f" fill-rule="evenodd" stroke="none"/>
      <path d="M36.45 37.8 Q35.1 38.8 33.4 39.6 L31.15 40.5 28.1 41.3 Q26.6 39.1 27.5 36.4 30.35 36.05 32.4 35.15 L34.05 34.4 34.95 33.9 36.35 32.9 36.45 37.8" fill="#cbc3a2" fill-rule="evenodd" stroke="none"/>
      <path d="M38.75 29.05 L38.75 33.7 Q38.6 36.05 36.45 37.8 L36.35 32.9 38.4 30.4 38.75 29.05 M23.25 36.85 L21.05 36.75 Q17.25 36.6 13.45 35.35 L10.85 34.4 Q11.1 33.5 15.05 33.35 20.05 35.05 27.4 36.4 L23.25 36.85" fill="#fff7d6" fill-rule="evenodd" stroke="none"/>
      <path d="M4.4 27.9 L4.4 26.9 4.75 25.55 Q5.75 22.85 9.85 21.0 L9.75 22.5 17.45 22.6 16.75 23.3 15.45 24.7 Q14.95 25.25 15.05 25.9 L14.75 26.2 10.95 26.6 7.5 27.25 4.45 28.0 4.4 27.9 M28.1 41.3 L22.0 41.7 Q25.05 40.1 23.25 36.85 L27.4 36.4 27.5 36.4 Q26.6 39.1 28.1 41.3 M15.5 40.9 L13.6 40.4 Q10.2 39.35 8.95 38.55 L7.85 37.8 Q5.6 34.3 7.55 32.55 L8.05 32.9 9.05 33.5 10.85 34.4 13.45 35.35 Q11.1 37.25 15.5 40.9 M18.8 33.25 L20.7 32.35 22.65 31.6 23.95 31.15 26.25 30.25 28.6 29.45 28.85 29.5 29.35 29.9 30.1 30.55 30.85 31.15 32.3 32.25 31.8 32.75 31.15 33.3 29.3 34.55 Q24.7 34.4 18.8 33.25" fill="#7a7561" fill-rule="evenodd" stroke="none"/>
      <path d="M7.85 37.8 L5.75 35.75 Q4.2 33.9 4.3 32.25 L4.4 28.5 4.4 27.9 4.45 28.0 7.5 27.25 10.95 26.6 14.75 26.2 15.05 25.9 Q14.95 25.25 15.45 24.7 L16.75 23.3 17.45 22.6 33.15 22.85 33.15 21.45 35.2 22.85 Q36.9 24.1 37.8 25.55 38.95 27.0 38.75 28.85 L38.75 29.05 38.4 30.4 36.35 32.9 34.95 33.9 34.05 34.4 29.3 34.55 31.15 33.3 31.8 32.75 32.3 32.25 30.85 31.15 30.1 30.55 29.35 29.9 28.85 29.5 28.6 29.45 26.25 30.25 23.95 31.15 22.65 31.6 20.7 32.35 18.8 33.25 13.55 32.1 Q11.85 32.8 8.05 32.9 L7.55 32.55 Q5.6 34.3 7.85 37.8" fill="#666251" fill-rule="evenodd" stroke="none"/>
      <path d="M7.85 37.8 L5.75 35.75 Q4.2 33.9 4.3 32.25 L4.4 28.5 4.4 27.9 4.4 26.9 4.75 25.55 Q5.75 22.85 9.85 21.0 L9.75 22.5 17.45 22.6 33.15 22.85 33.15 21.45 35.2 22.85 Q36.9 24.1 37.8 25.55 38.95 27.0 38.75 28.85 L38.75 29.05 38.75 33.7 Q38.6 36.05 36.45 37.8 35.1 38.8 33.4 39.6 L31.15 40.5 28.1 41.3 22.0 41.7 20.95 41.65 15.5 40.9 13.6 40.4 Q10.2 39.35 8.95 38.55 L7.85 37.8" fill="none" stroke="#000000" stroke-linecap="round" stroke-linejoin="round" stroke-opacity="0.3019608" stroke-width="0.5"/>
      <path d="M27.4 36.4 L27.5 36.4" fill="none" stroke="#000000" stroke-linecap="round" stroke-linejoin="round" stroke-opacity="0.3019608" stroke-width="0.5"/>
      <path d="M19.8 38.8 Q20.15 38.45 20.6 38.45 21.1 38.45 21.55 38.9 L22.0 39.85 Q22.0 40.3 21.55 40.6 L20.6 40.85 Q20.15 40.85 19.8 40.5 19.45 40.15 19.45 39.65 19.45 39.15 19.8 38.8" fill="#9f997f" fill-rule="evenodd" stroke="none"/>
      <path d="M19.8 38.8 Q19.45 39.15 19.45 39.65 19.45 40.15 19.8 40.5 20.15 40.85 20.6 40.85 L21.55 40.6 Q22.0 40.3 22.0 39.85 L21.55 38.9 Q21.1 38.45 20.6 38.45 20.15 38.45 19.8 38.8 M18.85 39.6 Q18.95 39.0 19.4 38.5 19.9 38.0 20.65 38.0 21.4 38.0 21.95 38.5 L22.45 39.6 22.45 39.85 Q22.45 40.6 21.95 41.15 21.4 41.7 20.65 41.7 19.9 41.7 19.4 41.15 18.85 40.6 18.85 39.85 L18.85 39.6" fill="#7a7561" fill-rule="evenodd" stroke="none"/>
      <path d="M22.45 39.6 L21.95 38.5 Q21.4 38.0 20.65 38.0 19.9 38.0 19.4 38.5 18.95 39.0 18.85 39.6 L18.85 39.3 Q18.85 38.55 19.4 38.0 19.9 37.45 20.65 37.45 21.4 37.45 21.95 38.0 22.45 38.55 22.45 39.3 L22.45 39.6" fill="#fff7d6" fill-rule="evenodd" stroke="none"/>
      <path d="M18.85 39.6 L18.85 39.85 Q18.85 40.6 19.4 41.15 19.9 41.7 20.65 41.7 21.4 41.7 21.95 41.15 22.45 40.6 22.45 39.85 L22.45 39.6 22.45 39.3 Q22.45 38.55 21.95 38.0 21.4 37.45 20.65 37.45 19.9 37.45 19.4 38.0 18.85 38.55 18.85 39.3 L18.85 39.6 Z" fill="none" stroke="#000000" stroke-linecap="round" stroke-linejoin="round" stroke-opacity="0.3019608" stroke-width="0.5"/>
      <path d="M6.4 33.6 L6.35 33.6 6.4 33.6" fill="#ba5e01" fill-rule="evenodd" stroke="none"/>
      <path d="M6.8 37.7 L7.5 37.15 7.85 35.85 8.7 35.6 8.7 35.75 Q8.7 36.55 8.35 37.15 7.75 37.7 7.15 37.7 L6.8 37.7" fill="#9f997f" fill-rule="evenodd" stroke="none"/>
      <path d="M7.05 34.5 L7.3 35.45 7.05 36.35 6.3 36.75 5.6 36.35 Q5.3 35.95 5.3 35.45 5.3 34.9 5.6 34.5 5.9 34.15 6.3 34.15 6.7 34.15 7.05 34.5" fill="#7a7561" fill-rule="evenodd" stroke="none"/>
      <path d="M6.4 33.6 L7.2 33.6 7.15 33.6 7.25 33.6 7.8 33.8 8.35 34.2 8.7 35.5 8.7 35.6 7.85 35.85 7.5 37.15 6.8 37.7 6.35 37.7 Q5.65 37.7 5.15 37.15 4.7 36.55 4.7 35.75 4.7 34.9 5.15 34.2 5.55 33.7 6.1 33.65 L6.15 33.65 6.35 33.6 6.4 33.6 M7.85 35.75 L7.85 35.85 7.85 35.75 M7.05 34.5 Q6.7 34.15 6.3 34.15 5.9 34.15 5.6 34.5 5.3 34.9 5.3 35.45 5.3 35.95 5.6 36.35 L6.3 36.75 7.05 36.35 7.3 35.45 7.05 34.5" fill="#666251" fill-rule="evenodd" stroke="none"/>
      <path d="M7.85 35.85 L7.85 35.75" fill="none" stroke="#000000" stroke-linecap="round" stroke-linejoin="round" stroke-opacity="0.3019608" stroke-width="0.05"/>
      <path d="M8.7 35.6 L8.7 35.5 8.35 34.2 7.8 33.8 7.25 33.6 7.15 33.6 7.2 33.6 6.4 33.6 6.35 33.6 6.15 33.65 6.1 33.65 Q5.55 33.7 5.15 34.2 4.7 34.9 4.7 35.75 4.7 36.55 5.15 37.15 5.65 37.7 6.35 37.7 L6.8 37.7 7.15 37.7 Q7.75 37.7 8.35 37.15 8.7 36.55 8.7 35.75 L8.7 35.6" fill="none" stroke="#000000" stroke-linecap="round" stroke-linejoin="round" stroke-opacity="0.3019608" stroke-width="0.5"/>
      <path d="M35.85 35.35 L35.25 35.05 34.45 35.05 33.95 35.2 33.6 35.5 Q33.25 35.9 33.25 36.6 L33.25 37.35 32.45 37.0 Q32.4 36.0 32.8 35.5 L33.2 35.15 Q33.4 35.0 33.5 35.0 34.95 34.35 35.85 35.35" fill="#9f997f" fill-rule="evenodd" stroke="none"/>
      <path d="M33.25 37.35 L33.25 36.6 Q33.25 35.9 33.6 35.5 L33.95 35.2 34.45 35.05 35.25 35.05 35.85 35.35 35.9 35.4 35.95 35.5 36.4 37.0 Q36.4 37.85 35.95 38.4 35.5 39.0 34.8 39.0 L34.45 39.0 33.6 38.4 33.25 37.35 M35.5 35.75 Q35.25 35.35 34.8 35.35 34.45 35.35 34.1 35.75 33.85 36.05 33.85 36.65 33.85 37.15 34.1 37.45 L34.4 37.8 34.8 37.95 35.65 37.45 35.85 36.65 Q35.85 36.05 35.5 35.75" fill="#cbc3a2" fill-rule="evenodd" stroke="none"/>
      <path d="M33.25 37.35 L33.6 38.4 34.45 39.0 33.95 39.0 Q33.4 39.0 32.8 38.4 32.45 37.85 32.45 37.0 L33.25 37.35" fill="#7a7561" fill-rule="evenodd" stroke="none"/>
      <path d="M35.5 35.75 Q35.85 36.05 35.85 36.65 L35.65 37.45 34.8 37.95 34.4 37.8 34.1 37.45 Q33.85 37.15 33.85 36.65 33.85 36.05 34.1 35.75 34.45 35.35 34.8 35.35 35.25 35.35 35.5 35.75" fill="#fff7d6" fill-rule="evenodd" stroke="none"/>
      <path d="M34.45 39.0 L34.8 39.0 Q35.5 39.0 35.95 38.4 36.4 37.85 36.4 37.0 L35.95 35.5 35.9 35.4 35.85 35.35 Q34.95 34.35 33.5 35.0 33.4 35.0 33.2 35.15 L32.8 35.5 Q32.4 36.0 32.45 37.0 M34.45 39.0 L33.95 39.0 Q33.4 39.0 32.8 38.4 32.45 37.85 32.45 37.0" fill="none" stroke="#000000" stroke-linecap="round" stroke-linejoin="round" stroke-opacity="0.3019608" stroke-width="0.5"/>
      <path d="M32.55 7.9 L32.6 7.75 32.65 7.8 32.55 7.9 M11.4 7.9 L11.3 7.8 11.35 7.75 11.4 7.9" fill="#733701" fill-rule="evenodd" stroke="none"/>
      <path d="M31.9 8.1 L32.0 8.05 32.0 8.1 31.9 8.1 M12.05 8.1 L11.95 8.1 11.95 8.05 12.05 8.1" fill="#a85101" fill-rule="evenodd" stroke="none"/>
      <path d="M21.5 15.7 L16.4 20.25 20.95 15.3 21.5 15.7" fill="#474734" fill-rule="evenodd" stroke="none"/>
      <path d="M29.2 11.45 Q29.35 11.15 29.65 11.05 L30.4 11.4 30.65 12.1 30.5 12.55 30.2 12.7 30.3 12.2 30.05 11.65 29.9 11.55 29.55 11.3 Q29.35 11.25 29.2 11.45 M22.15 13.8 L22.15 13.75 22.35 13.15 Q22.6 12.95 22.8 12.9 L23.25 13.1 23.3 13.15 23.25 13.15 23.2 13.15 Q22.9 13.2 22.8 13.35 L22.75 13.6 22.45 13.85 22.15 13.8 M20.65 13.15 L20.7 13.1 Q20.8 12.9 21.15 12.9 L21.6 13.15 21.8 13.75 21.8 13.8 21.5 13.85 21.2 13.6 21.15 13.35 20.75 13.15 20.7 13.15 20.65 13.15 M14.05 11.55 L13.9 11.65 Q13.65 11.9 13.65 12.2 L13.75 12.7 13.45 12.55 13.3 12.1 13.55 11.4 14.3 11.05 14.75 11.45 Q14.6 11.25 14.4 11.3 L14.05 11.55" fill="#f1df94" fill-rule="evenodd" stroke="none"/>
      <path d="M23.3 13.25 Q23.3 13.75 22.75 14.1 L22.35 14.35 22.3 14.3 22.2 14.1 22.15 13.8 22.45 13.85 22.75 13.6 22.8 13.35 Q22.9 13.2 23.2 13.15 L23.25 13.15 23.3 13.25 M21.75 14.1 L21.65 14.3 21.6 14.35 21.2 14.1 Q20.65 13.75 20.65 13.25 L20.7 13.15 20.75 13.15 21.15 13.35 21.2 13.6 21.5 13.85 21.8 13.8 21.75 14.1 M29.9 11.55 L30.05 11.65 30.3 12.2 30.2 12.7 30.15 12.75 30.05 12.8 29.7 12.75 29.25 12.4 29.2 12.35 29.25 12.35 29.55 12.1 29.45 11.75 29.7 11.65 29.9 11.55 M29.85 16.1 L30.0 16.7 29.85 17.25 29.4 17.5 Q29.25 17.5 29.05 17.2 28.85 16.9 28.9 16.6 L29.1 16.05 29.5 15.85 Q29.75 15.85 29.85 16.1 M24.4 15.5 L24.4 15.55 24.35 15.5 24.4 15.5 M30.0 23.7 L29.85 23.15 Q29.85 22.8 30.0 22.55 30.25 22.4 30.45 22.4 L30.8 22.6 31.0 23.2 30.8 23.7 30.4 24.0 30.0 23.7 M13.75 12.7 L13.65 12.2 Q13.65 11.9 13.9 11.65 L14.05 11.55 14.25 11.65 14.5 11.75 14.4 12.1 14.7 12.35 14.75 12.35 14.7 12.4 14.25 12.75 13.9 12.8 13.8 12.75 13.75 12.7 M14.1 16.1 L14.45 15.85 14.85 16.05 15.05 16.6 14.9 17.2 14.55 17.5 Q14.3 17.5 14.1 17.25 L13.95 16.7 14.1 16.1 M13.95 22.55 L14.1 23.15 13.95 23.7 13.55 24.0 13.15 23.7 12.95 23.2 13.15 22.6 Q13.25 22.4 13.5 22.4 L13.95 22.55 M12.65 30.35 L13.1 30.5 13.25 31.05 13.15 31.65 12.8 31.95 12.3 31.65 12.15 31.15 12.3 30.55 Q12.4 30.35 12.65 30.35 M30.85 30.5 L31.25 30.35 31.65 30.55 31.8 31.15 31.65 31.65 31.15 31.95 30.8 31.65 30.7 31.05 30.85 30.5" fill="#9e7e4a" fill-rule="evenodd" stroke="none"/>
      <path d="M30.6 13.35 Q31.6 15.75 32.1 18.6 L32.15 18.95 32.15 19.1 Q32.9 23.35 33.05 27.4 L33.05 27.7 32.7 32.75 32.35 32.7 32.35 31.7 Q32.5 28.05 32.1 24.35 31.8 20.95 31.1 17.55 L30.6 15.15 30.3 13.95 29.45 13.4 30.05 13.15 30.6 13.35" fill="#665538" fill-rule="evenodd" stroke="none"/>
      <path d="M23.35 13.25 L23.3 13.25 23.25 13.15 23.3 13.15 23.35 13.25 M20.65 13.25 L20.6 13.25 20.65 13.15 20.7 13.15 20.65 13.25 M21.75 35.6 L21.85 35.55 21.9 35.55 21.9 35.5 21.95 35.5 22.05 35.55 22.1 35.55 22.2 35.6 22.1 35.6 22.05 35.6 21.9 35.6 21.85 35.6 21.75 35.6" fill="#4c3c22" fill-rule="evenodd" stroke="none"/>
      <path d="M31.7 8.0 L31.6 7.9 31.15 7.45 31.25 7.0 31.5 6.8 31.65 6.8 32.05 6.9 32.2 6.95 32.55 7.35 32.6 7.75 32.55 7.9 32.1 8.1 32.0 8.1 32.0 8.05 31.9 8.1 31.7 8.0 M29.5 5.1 L29.6 5.6 29.6 6.05 29.6 6.15 29.5 6.6 Q29.15 7.55 27.95 8.55 L24.45 9.5 23.6 9.6 23.35 9.6 23.1 9.6 22.75 9.6 22.1 9.65 21.85 9.65 21.2 9.6 20.8 9.6 20.6 9.6 20.35 9.6 19.5 9.5 16.0 8.55 Q14.8 7.55 14.45 6.6 L14.35 6.15 14.35 6.05 14.35 5.6 14.45 5.1 Q14.7 4.5 15.3 3.95 L16.7 3.05 17.25 2.85 20.45 2.2 Q17.8 2.75 21.5 4.75 L21.85 4.9 21.9 4.9 21.9 4.95 21.95 4.95 22.05 4.9 22.1 4.9 22.45 4.75 Q26.15 2.75 23.5 2.2 25.15 2.35 26.7 2.85 L27.25 3.05 Q28.15 3.5 28.65 3.95 L29.5 5.1 M25.75 10.65 Q25.75 11.55 25.25 12.2 24.8 12.95 23.75 13.45 23.95 13.95 23.4 14.55 L22.7 14.65 22.7 14.55 23.2 14.2 23.45 13.7 23.45 13.6 23.35 13.25 23.3 13.15 23.25 13.1 22.8 12.9 Q22.6 12.95 22.35 13.15 L22.15 13.75 22.15 13.8 22.2 14.1 22.1 14.15 22.05 14.2 21.9 14.2 21.9 14.15 21.85 14.15 21.75 14.1 21.8 13.8 21.8 13.75 21.6 13.15 21.15 12.9 Q20.8 12.9 20.7 13.1 L20.65 13.15 20.6 13.25 20.5 13.6 20.5 13.7 20.75 14.2 21.25 14.55 21.25 14.65 20.55 14.55 Q20.0 13.95 20.2 13.45 19.15 12.95 18.7 12.2 18.2 11.55 18.2 10.65 L18.95 10.8 19.4 10.9 20.6 11.0 21.2 11.0 21.85 11.0 21.9 11.0 22.05 11.0 22.1 11.0 22.75 11.0 23.35 11.0 24.55 10.9 25.0 10.8 25.75 10.65 M11.9 6.9 L12.3 6.8 12.45 6.8 12.65 7.0 12.8 7.45 12.35 7.9 12.25 8.0 12.05 8.1 11.95 8.05 11.95 8.1 11.85 8.1 Q11.5 8.1 11.4 7.9 L11.35 7.75 11.4 7.35 11.75 6.95 11.9 6.9 M29.2 11.45 Q29.35 11.25 29.55 11.3 L29.9 11.55 29.7 11.65 29.45 11.75 29.55 12.1 29.25 12.35 29.2 12.35 29.0 11.9 Q29.0 11.65 29.15 11.5 L29.2 11.45 M30.6 13.35 L31.6 13.25 33.3 11.7 33.7 10.85 Q33.9 9.6 33.25 8.0 35.15 9.9 36.4 15.15 37.4 19.35 38.0 25.8 L38.0 26.75 37.8 27.55 Q36.85 30.3 33.75 32.45 L32.7 32.75 33.05 27.7 33.05 27.4 Q32.9 23.35 32.15 19.1 L32.15 18.95 32.1 18.6 Q31.6 15.75 30.6 13.35 M21.9 5.8 L21.85 5.8 Q20.15 4.75 16.9 4.2 13.25 7.6 21.4 8.65 L21.85 8.7 21.9 8.7 22.05 8.7 22.1 8.7 22.55 8.65 Q30.7 7.6 27.05 4.2 23.8 4.75 22.1 5.8 L22.05 5.8 21.95 5.85 21.9 5.9 21.9 5.8 M29.85 16.1 Q29.75 15.85 29.5 15.85 L29.1 16.05 28.9 16.6 Q28.85 16.9 29.05 17.2 29.25 17.5 29.4 17.5 L29.85 17.25 30.0 16.7 29.85 16.1 M24.4 15.5 L26.5 15.1 30.3 13.95 30.6 15.15 31.1 17.55 Q30.35 22.05 23.5 25.9 L23.55 25.6 Q23.05 26.9 20.45 25.9 13.6 22.05 12.85 17.55 L13.35 15.15 14.2 15.1 Q16.6 15.1 19.0 16.5 L16.4 20.25 21.5 15.7 21.85 15.7 21.9 15.7 22.0 15.7 22.05 15.7 22.1 15.7 22.45 15.7 23.4 15.7 23.45 15.7 23.6 15.7 23.45 15.75 23.75 15.65 24.4 15.55 24.4 15.5 M12.35 13.25 L13.35 13.35 Q12.35 15.75 11.85 18.6 L12.35 13.25 M10.9 27.7 L11.25 32.75 10.2 32.45 10.9 27.7 M14.05 11.55 L14.4 11.3 Q14.6 11.25 14.75 11.45 L14.8 11.5 14.95 11.9 14.75 12.35 14.7 12.35 14.4 12.1 14.5 11.75 14.25 11.65 14.05 11.55 M14.1 16.1 L13.95 16.7 14.1 17.25 Q14.3 17.5 14.55 17.5 L14.9 17.2 15.05 16.6 14.85 16.05 14.45 15.85 14.1 16.1" fill="#9f997f" fill-rule="evenodd" stroke="none"/>
      <path d="M32.05 6.9 L31.65 6.8 31.5 6.8 31.25 7.0 31.15 7.45 31.6 7.9 31.7 8.0 31.9 8.1 32.0 8.1 32.1 8.1 32.55 7.9 32.65 7.8 Q33.1 8.95 32.95 10.2 L32.6 11.0 Q32.6 8.45 30.7 9.2 L30.25 9.8 Q28.8 11.5 26.45 11.6 25.1 14.0 26.15 14.4 L22.8 15.05 22.1 15.05 22.05 15.05 21.9 15.05 21.85 15.05 21.15 15.05 17.8 14.4 Q18.85 14.0 17.5 11.6 15.15 11.5 13.7 9.8 L13.25 9.2 Q11.35 8.45 11.35 11.0 L11.0 10.2 Q10.85 8.95 11.3 7.8 L11.4 7.9 Q11.5 8.1 11.85 8.1 L11.95 8.1 12.05 8.1 12.25 8.0 12.35 7.9 12.8 7.45 12.65 7.0 12.45 6.8 12.3 6.8 11.9 6.9 Q12.35 6.25 13.75 5.45 L14.25 5.2 14.45 5.1 14.35 5.6 14.35 6.05 14.35 6.15 14.35 7.0 14.35 7.35 Q14.45 8.2 15.05 9.15 L16.0 9.95 16.65 10.25 18.2 10.65 Q18.2 11.55 18.7 12.2 19.15 12.95 20.2 13.45 20.0 13.95 20.55 14.55 L21.25 14.65 21.5 14.45 21.25 14.55 20.75 14.2 20.5 13.7 20.5 13.6 20.6 13.25 20.65 13.25 Q20.65 13.75 21.2 14.1 L21.6 14.35 21.65 14.3 21.75 14.1 21.85 14.15 21.9 14.15 21.9 14.2 22.05 14.2 22.1 14.15 22.2 14.1 22.3 14.3 22.35 14.35 22.75 14.1 Q23.3 13.75 23.3 13.25 L23.35 13.25 23.45 13.6 23.45 13.7 23.2 14.2 22.7 14.55 22.5 14.45 22.7 14.65 23.4 14.55 Q23.95 13.95 23.75 13.45 24.8 12.95 25.25 12.2 25.75 11.55 25.75 10.65 L27.3 10.25 27.95 9.95 28.9 9.15 Q29.5 8.2 29.6 7.35 L29.6 7.0 29.6 6.15 29.6 6.05 29.6 5.6 29.5 5.1 29.7 5.2 30.2 5.45 Q31.6 6.25 32.05 6.9 M23.35 9.6 L23.6 9.6 24.45 9.5 Q23.95 10.25 25.0 10.8 L24.55 10.9 23.35 11.0 23.35 9.6 M19.5 9.5 L20.35 9.6 20.6 9.6 20.6 11.0 19.4 10.9 18.95 10.8 Q20.0 10.25 19.5 9.5 M32.1 24.35 Q32.5 28.05 32.35 31.7 30.3 34.05 24.6 34.4 23.25 34.4 22.5 33.9 21.25 31.7 25.1 26.85 30.35 23.35 32.1 24.35 M10.7 8.0 Q10.05 9.6 10.25 10.85 L10.65 11.7 Q11.15 12.45 12.35 13.25 L11.85 18.6 11.8 18.95 11.8 19.1 Q11.05 23.35 10.9 27.4 L10.9 27.7 10.2 32.45 Q7.1 30.3 6.15 27.55 9.9 29.7 10.8 18.9 10.05 10.7 7.55 15.15 8.8 9.9 10.7 8.0 M11.6 31.7 Q11.45 28.05 11.85 24.35 13.6 23.35 18.85 26.85 22.7 31.7 21.45 33.9 20.7 34.4 19.35 34.4 13.65 34.05 11.6 31.7 M12.65 30.35 Q12.4 30.35 12.3 30.55 L12.15 31.15 12.3 31.65 12.8 31.95 13.15 31.65 13.25 31.05 13.1 30.5 12.65 30.35 M30.85 30.5 L30.7 31.05 30.8 31.65 31.15 31.95 31.65 31.65 31.8 31.15 31.65 30.55 31.25 30.35 30.85 30.5" fill="#666251" fill-rule="evenodd" stroke="none"/>
      <path d="M29.6 6.15 L29.6 7.0 29.6 7.35 Q29.5 8.2 28.9 9.15 L27.95 9.95 27.3 10.25 25.75 10.65 25.0 10.8 Q23.95 10.25 24.45 9.5 L27.95 8.55 Q29.15 7.55 29.5 6.6 L29.6 6.15 M18.2 10.65 L16.65 10.25 16.0 9.95 15.05 9.15 Q14.45 8.2 14.35 7.35 L14.35 7.0 14.35 6.15 14.45 6.6 Q14.8 7.55 16.0 8.55 L19.5 9.5 Q20.0 10.25 18.95 10.8 L18.2 10.65 M11.35 11.0 Q11.35 8.45 13.25 9.2 L13.7 9.8 Q15.15 11.5 17.5 11.6 18.85 14.0 17.8 14.4 L14.5 13.4 13.9 13.15 13.1 12.7 Q11.9 11.85 11.35 11.0 M26.15 14.4 Q25.1 14.0 26.45 11.6 28.8 11.5 30.25 9.8 L30.7 9.2 Q32.6 8.45 32.6 11.0 L30.85 12.7 30.05 13.15 29.45 13.4 26.15 14.4 M30.2 12.7 L30.5 12.55 30.65 12.1 30.4 11.4 29.65 11.05 Q29.35 11.15 29.2 11.45 L29.15 11.5 Q29.0 11.65 29.0 11.9 L29.2 12.35 29.25 12.4 29.7 12.75 30.05 12.8 30.15 12.75 30.2 12.7 M31.1 17.55 Q31.8 20.95 32.1 24.35 30.35 23.35 25.1 26.85 21.25 31.7 22.5 33.9 23.25 34.4 24.6 34.4 30.3 34.05 32.35 31.7 L32.35 32.7 32.3 33.25 Q28.0 35.55 22.2 35.6 L22.1 35.55 22.05 35.55 21.95 35.5 21.9 35.5 21.9 35.55 21.85 35.55 21.75 35.6 Q15.95 35.55 11.65 33.25 L11.6 32.7 11.6 31.7 Q13.65 34.05 19.35 34.4 20.7 34.4 21.45 33.9 22.7 31.7 18.85 26.85 13.6 23.35 11.85 24.35 12.15 20.95 12.85 17.55 13.6 22.05 20.45 25.9 23.05 26.9 23.55 25.6 L23.5 25.9 Q30.35 22.05 31.1 17.55 M30.0 23.7 L30.4 24.0 30.8 23.7 31.0 23.2 30.8 22.6 30.45 22.4 Q30.25 22.4 30.0 22.55 29.85 22.8 29.85 23.15 L30.0 23.7 M14.75 11.45 L14.3 11.05 13.55 11.4 13.3 12.1 13.45 12.55 13.75 12.7 13.8 12.75 13.9 12.8 14.25 12.75 14.7 12.4 14.75 12.35 14.95 11.9 14.8 11.5 14.75 11.45 M13.95 22.55 L13.5 22.4 Q13.25 22.4 13.15 22.6 L12.95 23.2 13.15 23.7 13.55 24.0 13.95 23.7 14.1 23.15 13.95 22.55 M7.55 15.15 Q10.05 10.7 10.8 18.9 9.9 29.7 6.15 27.55 L5.95 26.75 5.95 25.8 Q6.55 19.35 7.55 15.15 M21.9 29.25 L21.5 31.05 21.95 29.45 22.05 29.3 22.1 29.1 21.9 29.25" fill="#7a7561" fill-rule="evenodd" stroke="none"/>
      <path d="M22.7 14.65 L22.5 14.45 22.7 14.55 22.7 14.65" fill="url(#gradient0)" fill-rule="evenodd" stroke="none"/>
      <path d="M21.25 14.55 L21.5 14.45 21.25 14.65 21.25 14.55" fill="url(#gradient1)" fill-rule="evenodd" stroke="none"/>
      <path d="M32.6 7.75 L32.55 7.35 33.25 8.0 Q33.9 9.6 33.7 10.85 L33.3 11.7 31.6 13.25 30.6 13.35 30.05 13.15 30.85 12.7 32.6 11.0 32.95 10.2 Q33.1 8.95 32.65 7.8 L32.6 7.75 M11.3 7.8 Q10.85 8.95 11.0 10.2 L11.35 11.0 Q11.9 11.85 13.1 12.7 L13.9 13.15 14.5 13.4 13.65 13.95 13.35 15.15 12.85 17.55 Q12.15 20.95 11.85 24.35 11.45 28.05 11.6 31.7 L11.6 32.7 11.25 32.75 10.9 27.7 10.9 27.4 Q11.05 23.35 11.8 19.1 L11.8 18.95 11.85 18.6 Q12.35 15.75 13.35 13.35 L12.35 13.25 Q11.15 12.45 10.65 11.7 L10.25 10.85 Q10.05 9.6 10.7 8.0 L11.4 7.35 11.35 7.75 11.3 7.8 M17.8 14.4 L21.15 15.05 21.85 15.05 21.9 15.05 22.05 15.05 22.1 15.05 22.8 15.05 26.15 14.4 29.45 13.4 30.3 13.95 26.5 15.1 24.4 15.5 24.35 15.5 24.4 15.55 23.75 15.65 23.6 15.7 23.4 15.7 22.45 15.7 22.1 15.7 22.05 15.7 22.0 15.7 21.9 15.7 21.85 15.7 21.5 15.7 20.95 15.3 16.4 20.25 19.0 16.5 Q16.6 15.1 14.2 15.1 L13.35 15.15 13.65 13.95 14.5 13.4 17.8 14.4 M23.5 2.2 Q26.15 2.75 22.45 4.75 L22.1 4.9 22.05 4.9 21.95 4.95 21.9 4.95 21.9 4.9 21.85 4.9 21.5 4.75 Q17.8 2.75 20.45 2.2 L21.85 2.15 21.9 2.15 22.05 2.15 22.1 2.15 23.5 2.2 M21.9 5.8 L21.9 5.9 21.95 5.85 22.05 5.8 22.1 5.8 Q23.8 4.75 27.05 4.2 30.7 7.6 22.55 8.65 L22.1 8.7 22.05 8.7 21.9 8.7 21.85 8.7 21.4 8.65 Q13.25 7.6 16.9 4.2 20.15 4.75 21.85 5.8 L21.9 5.8 M20.6 9.6 L20.8 9.6 21.2 9.6 21.85 9.65 22.1 9.65 22.75 9.6 23.1 9.6 23.35 9.6 23.35 11.0 22.75 11.0 22.1 11.0 22.05 11.0 21.9 11.0 21.85 11.0 21.2 11.0 20.6 11.0 20.6 9.6" fill="#cbc3a2" fill-rule="evenodd" stroke="none"/>
      <path d="M32.05 6.9 L31.65 6.8 31.5 6.8 31.25 7.0 31.15 7.45 31.6 7.9 31.7 8.0 M32.0 8.1 L32.1 8.1 32.55 7.9 32.6 7.75 32.55 7.35 32.2 6.95 32.05 6.9 Q31.6 6.25 30.2 5.45 L29.7 5.2 29.5 5.1 29.6 5.6 29.6 6.05 29.6 6.15 29.6 7.0 29.6 7.35 Q29.5 8.2 28.9 9.15 L27.95 9.95 27.3 10.25 25.75 10.65 M22.5 14.45 L22.7 14.55 23.2 14.2 23.45 13.7 23.45 13.6 23.35 13.25 M22.35 14.35 L22.3 14.3 22.2 14.1 M21.75 14.1 L21.65 14.3 21.6 14.35 M20.6 13.25 L20.5 13.6 20.5 13.7 20.75 14.2 21.25 14.55 21.5 14.45 M18.2 10.65 L16.65 10.25 16.0 9.95 15.05 9.15 Q14.45 8.2 14.35 7.35 L14.35 7.0 14.35 6.15 14.35 6.05 14.35 5.6 14.45 5.1 14.25 5.2 13.75 5.45 Q12.35 6.25 11.9 6.9 L12.3 6.8 12.45 6.8 12.65 7.0 12.8 7.45 12.35 7.9 12.25 8.0 M12.05 8.1 L11.95 8.1 11.85 8.1 Q11.5 8.1 11.4 7.9 L11.35 7.75 11.4 7.35 10.7 8.0 M11.3 7.8 Q10.85 8.95 11.0 10.2 L11.35 11.0 M17.8 14.4 L21.15 15.05 21.85 15.05 21.9 15.05 M22.05 15.05 L22.1 15.05 22.8 15.05 26.15 14.4 M32.6 11.0 L32.95 10.2 Q33.1 8.95 32.65 7.8 M32.6 7.75 L32.65 7.8 M31.9 8.1 L32.0 8.1 M29.2 11.45 Q29.35 11.25 29.55 11.3 L29.9 11.55 30.05 11.65 30.3 12.2 30.2 12.7 30.15 12.75 M30.05 12.8 L29.7 12.75 29.25 12.4 29.2 12.35 29.0 11.9 Q29.0 11.65 29.15 11.5 L29.2 11.45 M32.7 32.75 L33.75 32.45 Q36.85 30.3 37.8 27.55 L38.0 26.75 38.0 25.8 Q37.4 19.35 36.4 15.15 35.15 9.9 33.25 8.0 L32.55 7.35 M29.5 5.1 L28.65 3.95 Q28.15 3.5 27.25 3.05 L26.7 2.85 Q25.15 2.35 23.5 2.2 M20.45 2.2 L17.25 2.85 16.7 3.05 15.3 3.95 Q14.7 4.5 14.45 5.1 M20.45 2.2 L21.85 2.15 21.9 2.15 M22.05 2.15 L22.1 2.15 23.5 2.2 M18.95 10.8 L19.4 10.9 20.6 11.0 M21.9 11.0 L21.85 11.0 21.2 11.0 20.6 11.0 M23.35 11.0 L22.75 11.0 22.1 11.0 22.05 11.0 M25.0 10.8 L24.55 10.9 23.35 11.0 M25.0 10.8 L25.75 10.65 M30.3 13.95 L29.45 13.4 26.15 14.4 M29.45 13.4 L30.05 13.15 30.85 12.7 32.6 11.0 M29.85 16.1 Q29.75 15.85 29.5 15.85 L29.1 16.05 28.9 16.6 Q28.85 16.9 29.05 17.2 29.25 17.5 29.4 17.5 L29.85 17.25 30.0 16.7 29.85 16.1 M30.3 13.95 L30.6 15.15 31.1 17.55 Q31.8 20.95 32.1 24.35 32.5 28.05 32.35 31.7 L32.35 32.7 32.7 32.75 M23.3 13.15 L23.25 13.1 22.8 12.9 Q22.6 12.95 22.35 13.15 L22.15 13.75 22.15 13.8 22.2 14.1 M23.3 13.15 L23.35 13.25 M20.65 13.15 L20.7 13.1 Q20.8 12.9 21.15 12.9 L21.6 13.15 21.8 13.75 21.8 13.8 21.75 14.1 M20.6 13.25 L20.65 13.15 M13.35 15.15 L12.85 17.55 M30.0 23.7 L30.4 24.0 30.8 23.7 31.0 23.2 30.8 22.6 30.45 22.4 Q30.25 22.4 30.0 22.55 29.85 22.8 29.85 23.15 L30.0 23.7 M11.4 7.35 L11.75 6.95 11.9 6.9 M11.35 7.75 L11.3 7.8 M11.25 32.75 L11.6 32.7 11.6 31.7 Q11.45 28.05 11.85 24.35 12.15 20.95 12.85 17.55 M13.75 12.7 L13.65 12.2 Q13.65 11.9 13.9 11.65 L14.05 11.55 14.4 11.3 Q14.6 11.25 14.75 11.45 L14.8 11.5 14.95 11.9 14.75 12.35 M13.75 12.7 L13.8 12.75 M13.9 12.8 L14.25 12.75 14.7 12.4 14.75 12.35 M18.95 10.8 L18.2 10.65 M14.5 13.4 L13.9 13.15 13.1 12.7 Q11.9 11.85 11.35 11.0 M14.5 13.4 L13.65 13.95 13.35 15.15 M14.1 16.1 L14.45 15.85 14.85 16.05 15.05 16.6 14.9 17.2 14.55 17.5 Q14.3 17.5 14.1 17.25 L13.95 16.7 14.1 16.1 M13.95 22.55 L14.1 23.15 13.95 23.7 13.55 24.0 13.15 23.7 12.95 23.2 13.15 22.6 Q13.25 22.4 13.5 22.4 L13.95 22.55 M17.8 14.4 L14.5 13.4 M6.15 27.55 Q7.1 30.3 10.2 32.45 M7.55 15.15 Q8.8 9.9 10.7 8.0 M12.65 30.35 L13.1 30.5 13.25 31.05 13.15 31.65 12.8 31.95 12.3 31.65 12.15 31.15 12.3 30.55 Q12.4 30.35 12.65 30.35 M11.6 32.7 L11.65 33.25 Q15.95 35.55 21.75 35.6 L21.85 35.6 21.9 35.6 22.05 35.6 22.1 35.6 22.2 35.6 Q28.0 35.55 32.3 33.25 L32.35 32.7 M11.25 32.75 L10.2 32.45 M6.15 27.55 L5.95 26.75 5.95 25.8 Q6.55 19.35 7.55 15.15 M30.85 30.5 L30.7 31.05 30.8 31.65 31.15 31.95 31.65 31.65 31.8 31.15 31.65 30.55 31.25 30.35 30.85 30.5" fill="none" stroke="#000000" stroke-linecap="round" stroke-linejoin="round" stroke-opacity="0.3019608" stroke-width="0.5"/>
      <path d="M38.0 25.85 Q37.95 27.95 37.75 28.0 37.5 28.0 34.9 28.95 33.55 31.15 32.0 32.5 L26.1 32.2 22.1 35.15 Q18.4 23.15 29.25 14.2 34.8 16.9 37.2 19.6 38.1 22.85 38.0 25.85" fill="#cbc3a2" fill-rule="evenodd" stroke="none"/>
      <path d="M37.2 19.6 Q34.8 16.9 29.25 14.2 18.4 23.15 22.1 35.15 L26.1 32.2 32.0 32.5 Q33.55 31.15 34.9 28.95 37.5 28.0 37.75 28.0 37.95 27.95 38.0 25.85" fill="none" stroke="#000000" stroke-linecap="round" stroke-linejoin="round" stroke-opacity="0.3019608" stroke-width="0.05"/>
      <path d="M32.3 21.25 Q32.15 20.55 32.7 19.9 33.15 19.25 34.1 19.1 L34.6 19.0 34.85 19.0 35.4 19.25 Q35.95 19.6 36.15 20.5 L35.75 21.8 Q35.1 22.4 34.4 22.6 L33.05 22.55 32.95 22.45 34.1 22.55 35.1 21.75 Q35.5 21.25 35.35 20.7 35.3 20.1 34.9 19.75 34.35 19.45 33.85 19.75 33.1 19.85 32.65 20.35 32.25 20.7 32.35 21.25 L32.3 21.25 M29.15 23.15 L28.7 23.9 Q28.05 24.65 27.15 25.0 L25.45 24.85 Q24.5 24.45 24.45 23.65 L24.35 23.35 Q24.25 22.6 24.95 22.0 25.6 21.25 26.65 21.05 L28.2 21.2 29.1 22.05 28.25 22.3 27.75 21.8 26.4 21.75 Q25.5 21.9 24.95 22.45 24.45 23.05 24.7 23.8 24.7 24.4 25.45 24.8 L26.85 24.85 28.1 24.0 28.4 23.4 29.15 23.15 M33.25 26.95 L33.6 27.25 34.7 27.25 35.75 26.5 Q36.1 25.95 35.95 25.35 35.9 24.75 35.45 24.55 L34.45 24.6 Q33.75 24.65 33.3 25.25 33.05 25.5 33.1 25.95 L32.9 26.05 Q32.9 25.5 33.25 24.95 33.8 24.2 34.6 24.0 35.25 23.6 35.85 24.0 36.45 24.4 36.65 25.15 L36.2 26.45 35.05 27.45 33.7 27.35 33.15 27.0 33.25 26.95 M29.05 27.2 L28.6 26.85 27.35 26.9 Q26.5 27.05 26.0 27.65 25.45 28.3 25.65 29.05 25.7 29.6 26.4 29.85 L27.75 29.8 28.95 29.0 29.35 28.25 30.05 28.0 29.55 28.95 Q28.9 29.8 28.1 30.05 L27.05 30.3 26.45 30.1 Q25.6 29.85 25.5 29.05 25.3 28.25 25.85 27.4 26.5 26.6 27.6 26.3 L29.2 26.35 29.8 26.95 29.05 27.2" fill="#8c8670" fill-rule="evenodd" stroke="none"/>
      <path d="M32.3 21.25 L32.35 21.25 Q32.25 20.7 32.65 20.35 33.1 19.85 33.85 19.75 34.35 19.45 34.9 19.75 35.3 20.1 35.35 20.7 35.5 21.25 35.1 21.75 L34.1 22.55 32.95 22.45 32.7 22.3 29.15 23.15 28.4 23.4 28.1 24.0 26.85 24.85 25.45 24.8 Q24.7 24.4 24.7 23.8 24.45 23.05 24.95 22.45 25.5 21.9 26.4 21.75 L27.75 21.8 28.25 22.3 27.55 22.4 27.95 23.45 28.4 23.4 27.95 23.45 27.55 22.4 28.25 22.3 29.1 22.05 32.3 21.25 M33.1 25.95 Q33.05 25.5 33.3 25.25 33.75 24.65 34.45 24.6 L35.45 24.55 Q35.9 24.75 35.95 25.35 36.1 25.95 35.75 26.5 L34.7 27.25 33.6 27.25 33.25 26.95 34.15 26.65 33.75 25.65 33.1 25.95 33.75 25.65 34.15 26.65 33.25 26.95 33.15 27.0 30.05 28.0 29.35 28.25 28.95 29.0 27.75 29.8 26.4 29.85 Q25.7 29.6 25.65 29.05 25.45 28.3 26.0 27.65 26.5 27.05 27.35 26.9 L28.6 26.85 29.05 27.2 28.55 27.35 28.95 28.35 29.35 28.25 28.95 28.35 28.55 27.35 29.05 27.2 29.8 26.95 32.9 26.05 33.1 25.95 M32.7 22.3 L33.25 22.1 33.0 21.1 32.35 21.25 33.0 21.1 33.25 22.1 32.7 22.3" fill="#000000" fill-rule="evenodd" stroke="none"/>
      <path d="M32.95 22.45 L33.05 22.55 34.4 22.6 Q35.1 22.4 35.75 21.8 L36.15 20.5 Q35.95 19.6 35.4 19.25 L34.85 19.0 34.6 19.0 34.1 19.1 Q33.15 19.25 32.7 19.9 32.15 20.55 32.3 21.25 L32.35 21.25 Q32.25 20.7 32.65 20.35 33.1 19.85 33.85 19.75 34.35 19.45 34.9 19.75 35.3 20.1 35.35 20.7 35.5 21.25 35.1 21.75 L34.1 22.55 32.95 22.45 32.7 22.3 29.15 23.15 28.7 23.9 Q28.05 24.65 27.15 25.0 L25.45 24.85 Q24.5 24.45 24.45 23.65 L24.35 23.35 Q24.25 22.6 24.95 22.0 25.6 21.25 26.65 21.05 L28.2 21.2 29.1 22.05 32.3 21.25 M33.25 26.95 L33.6 27.25 34.7 27.25 35.75 26.5 Q36.1 25.95 35.95 25.35 35.9 24.75 35.45 24.55 L34.45 24.6 Q33.75 24.65 33.3 25.25 33.05 25.5 33.1 25.95 L33.75 25.65 34.15 26.65 33.25 26.95 33.15 27.0 33.7 27.35 35.05 27.45 36.2 26.45 36.65 25.15 Q36.45 24.4 35.85 24.0 35.25 23.6 34.6 24.0 33.8 24.2 33.25 24.95 32.9 25.5 32.9 26.05 L33.1 25.95 M28.25 22.3 L27.75 21.8 26.4 21.75 Q25.5 21.9 24.95 22.45 24.45 23.05 24.7 23.8 24.7 24.4 25.45 24.8 L26.85 24.85 28.1 24.0 28.4 23.4 27.95 23.45 27.55 22.4 28.25 22.3 29.1 22.05 M32.35 21.25 L33.0 21.1 33.25 22.1 32.7 22.3 M29.05 27.2 L28.6 26.85 27.35 26.9 Q26.5 27.05 26.0 27.65 25.45 28.3 25.65 29.05 25.7 29.6 26.4 29.85 L27.75 29.8 28.95 29.0 29.35 28.25 28.95 28.35 28.55 27.35 29.05 27.2 29.8 26.95 29.2 26.35 27.6 26.3 Q26.5 26.6 25.85 27.4 25.3 28.25 25.5 29.05 25.6 29.85 26.45 30.1 L27.05 30.3 28.1 30.05 Q28.9 29.8 29.55 28.95 L30.05 28.0 29.35 28.25 M33.15 27.0 L30.05 28.0 M29.8 26.95 L32.9 26.05 M29.15 23.15 L28.4 23.4" fill="none" stroke="#000000" stroke-linecap="round" stroke-linejoin="round" stroke-opacity="0.3019608" stroke-width="0.05"/>
    </g>
    <linearGradient gradientTransform="matrix(0.0132, 9.0E-4, 4.0E-4, -0.0061, 23.25, 10.0)" gradientUnits="userSpaceOnUse" id="gradient0" spreadMethod="pad" x1="-819.2" x2="819.2">
      <stop offset="0.0" stop-color="#ec7702"/>
      <stop offset="1.0" stop-color="#ffa230"/>
    </linearGradient>
    <linearGradient gradientTransform="matrix(-0.0132, 9.0E-4, -4.0E-4, -0.0061, 20.7, 10.0)" gradientUnits="userSpaceOnUse" id="gradient1" spreadMethod="pad" x1="-819.2" x2="819.2">
      <stop offset="0.0" stop-color="#ec7702"/>
      <stop offset="1.0" stop-color="#ffa230"/>
    </linearGradient>
    <g id="sprite0" transform="matrix(1.0, 0.0, 0.0, 1.0, 0.0, 0.0)">
      <use height="60.8" transform="matrix(1.0, 0.0, 0.0, 1.0, 0.0, 0.0)" width="60.8" xlink:href="#shape1"/>
    </g>
    <g id="shape1" transform="matrix(1.0, 0.0, 0.0, 1.0, 0.0, 0.0)">
      <path d="M60.8 30.4 Q60.8 43.0 51.9 51.9 43.0 60.8 30.4 60.8 17.8 60.8 8.9 51.9 0.0 43.0 0.0 30.4 0.0 17.8 8.9 8.9 17.8 0.0 30.4 0.0 43.0 0.0 51.9 8.9 60.8 17.8 60.8 30.4" fill="url(#gradient2)" fill-rule="evenodd" stroke="none"/>
    </g>
    <radialGradient cx="0" cy="0" gradientTransform="matrix(0.0374, 0.0, 0.0, 0.0374, 30.4, 30.4)" gradientUnits="userSpaceOnUse" id="gradient2" r="819.2" spreadMethod="pad">
      <stop offset="0.0" stop-color="#ffffff"/>
      <stop offset="1.0" stop-color="#ffffff" stop-opacity="0.0"/>
    </radialGradient>
    <g id="sprite1" transform="matrix(1.0, 0.0, 0.0, 1.0, 0.0, 0.0)">
      <use height="5.65" transform="matrix(1.9197, 0.3823, -0.3823, 1.9197, 2.1533, 0.0161)" width="5.8" xlink:href="#shape2"/>
    </g>
    <g id="shape2" transform="matrix(1.0, 0.0, 0.0, 1.0, 2.9, 2.8)">
      <path d="M0.55 0.9 Q0.25 1.25 -0.2 1.25 -0.65 1.25 -1.0 0.9 L-1.3 0.15 -1.0 -0.65 -0.2 -0.95 Q0.25 -0.95 0.55 -0.65 L0.9 0.15 0.55 0.9" fill="#fffffd" fill-rule="evenodd" stroke="none"/>
      <path d="M2.9 -0.2 L1.05 2.65 -1.6 2.85 -2.9 0.15 -1.7 -2.45 1.25 -2.8 2.9 -0.2 M0.55 0.9 L0.9 0.15 0.55 -0.65 Q0.25 -0.95 -0.2 -0.95 L-1.0 -0.65 -1.3 0.15 -1.0 0.9 Q-0.65 1.25 -0.2 1.25 0.25 1.25 0.55 0.9" fill="#ffffea" fill-opacity="0.43137255" fill-rule="evenodd" stroke="none"/>
    </g>
    <g id="shape3" transform="matrix(1.0, 0.0, 0.0, 1.0, -6.65, -14.55)">
      <path d="M8.85 29.2 L6.65 26.4 6.65 22.5 Q7.1 26.05 8.85 29.2" fill="#937745" fill-rule="evenodd" stroke="none"/>
      <path d="M6.65 22.5 Q7.05 24.15 8.05 25.55 L8.85 29.2 Q7.1 26.05 6.65 22.5" fill="#2e2e21" fill-rule="evenodd" stroke="none"/>
      <path d="M10.95 20.15 Q10.45 19.9 10.3 18.8 10.2 17.85 10.55 16.65 10.9 15.55 11.5 14.95 12.15 14.4 12.7 14.65 13.25 15.0 13.3 15.95 13.5 17.15 13.15 18.2 12.75 19.35 12.15 19.85 11.5 20.5 10.95 20.15" fill="#5a5647" fill-rule="evenodd" stroke="none"/>
      <path d="M10.95 20.15 Q10.45 19.9 10.3 18.8 10.2 17.85 10.55 16.65 10.9 15.55 11.5 14.95 12.15 14.4 12.7 14.65 13.25 15.0 13.3 15.95 13.5 17.15 13.15 18.2 12.75 19.35 12.15 19.85 11.5 20.5 10.95 20.15 Z" fill="none" stroke="#000000" stroke-linecap="round" stroke-linejoin="round" stroke-opacity="0.3019608" stroke-width="0.05"/>
      <path d="M11.3 19.8 Q10.9 19.55 10.9 18.7 10.75 17.85 11.0 16.95 11.25 16.05 11.8 15.65 12.3 15.2 12.65 15.4 13.15 15.65 13.2 16.5 L13.15 18.2 12.3 19.55 Q11.8 20.0 11.3 19.8" fill="#000000" fill-rule="evenodd" stroke="none"/>
      <path d="M11.3 19.8 Q10.9 19.55 10.9 18.7 10.75 17.85 11.0 16.95 11.25 16.05 11.8 15.65 12.3 15.2 12.65 15.4 13.15 15.65 13.2 16.5 L13.15 18.2 12.3 19.55 Q11.8 20.0 11.3 19.8 Z" fill="none" stroke="#000000" stroke-linecap="round" stroke-linejoin="round" stroke-opacity="0.3019608" stroke-width="0.05"/>
      <path d="M10.5 31.15 Q9.6 31.0 9.1 29.55 8.6 28.15 8.7 26.15 8.9 24.3 9.45 23.05 10.3 21.8 11.15 22.0 12.05 22.1 12.45 23.5 13.05 25.05 12.95 26.95 12.8 28.9 12.05 30.0 11.4 31.25 10.5 31.15" fill="#5a5647" fill-rule="evenodd" stroke="none"/>
      <path d="M10.5 31.15 Q9.6 31.0 9.1 29.55 8.6 28.15 8.7 26.15 8.9 24.3 9.45 23.05 10.3 21.8 11.15 22.0 12.05 22.1 12.45 23.5 13.05 25.05 12.95 26.95 12.8 28.9 12.05 30.0 11.4 31.25 10.5 31.15 Z" fill="none" stroke="#000000" stroke-linecap="round" stroke-linejoin="round" stroke-opacity="0.3019608" stroke-width="0.05"/>
      <path d="M10.85 30.4 Q10.2 30.25 9.85 29.05 9.35 27.85 9.5 26.3 9.5 24.85 10.2 23.9 10.75 22.95 11.4 23.1 12.15 23.1 12.5 24.3 12.95 25.5 12.95 26.95 12.8 28.5 12.2 29.45 11.6 30.45 10.85 30.4" fill="#000000" fill-rule="evenodd" stroke="none"/>
      <path d="M10.85 30.4 Q10.2 30.25 9.85 29.05 9.35 27.85 9.5 26.3 9.5 24.85 10.2 23.9 10.75 22.95 11.4 23.1 12.15 23.1 12.5 24.3 12.95 25.5 12.95 26.95 12.8 28.5 12.2 29.45 11.6 30.45 10.85 30.4 Z" fill="none" stroke="#000000" stroke-linecap="round" stroke-linejoin="round" stroke-opacity="0.3019608" stroke-width="0.05"/>
    </g>
  </defs>
</svg>
