<?xml version="1.0" encoding="UTF-8" standalone="no"?>
<svg xmlns:xlink="http://www.w3.org/1999/xlink" height="520.0px" width="520.0px" xmlns="http://www.w3.org/2000/svg">
  <g transform="matrix(10.0, 0.0, 0.0, 10.0, 0.0, 0.0)">
    <use height="52.0" transform="matrix(1.0, 0.0, 0.0, 1.0, 0.0, 0.0)" width="52.0" xlink:href="#shape0"/>
  </g>
  <defs>
    <g id="shape0" transform="matrix(1.0, 0.0, 0.0, 1.0, 0.0, 0.0)">
      <path d="M52.0 0.0 L52.0 52.0 0.0 52.0 0.0 0.0 52.0 0.0" fill="#33cc33" fill-opacity="0.0" fill-rule="evenodd" stroke="none"/>
      <path d="M34.0 5.35 Q36.0 4.7 41.0 0.95 L43.05 0.8 Q43.9 1.15 44.35 2.4 44.8 9.4 43.9 11.65 L42.05 16.35 Q37.85 24.6 36.25 25.8 36.45 27.5 35.75 28.7 35.25 29.5 34.3 29.9 L34.25 29.9 34.25 31.7 Q34.1 33.05 32.45 33.3 L32.15 33.95 31.9 34.35 24.75 45.85 Q18.9 54.6 18.85 49.15 L18.85 48.3 19.3 46.55 Q20.0 44.15 21.35 35.9 L21.4 35.5 22.1 30.95 22.1 30.9 17.5 28.5 12.8 35.85 Q7.0 44.75 6.9 39.25 L6.95 38.35 7.4 36.65 Q8.15 33.95 9.75 23.95 L8.85 23.1 Q7.95 21.75 8.0 20.75 L8.05 20.45 Q8.2 19.8 8.45 19.55 L9.65 18.95 9.7 18.95 Q10.5 16.5 12.05 14.6 17.05 9.25 29.75 7.15 32.0 5.85 34.0 5.35 Z" fill="none" stroke="#000000" stroke-linecap="round" stroke-linejoin="round" stroke-opacity="0.3019608" stroke-width="1.0"/>
      <path d="M7.05 38.5 L7.4 36.75 Q8.35 33.7 10.25 21.1 L10.45 21.25 10.35 21.15 19.95 24.75 12.9 36.0 Q7.05 44.85 7.0 39.35 L7.05 38.5" fill="#281f13" fill-rule="evenodd" stroke="none"/>
      <path d="M7.4 36.75 Q8.35 33.7 10.25 21.1 M19.95 24.75 L12.9 36.0 Q7.05 44.85 7.0 39.35 L7.05 38.5" fill="none" stroke="#000000" stroke-linecap="round" stroke-linejoin="round" stroke-opacity="0.3019608" stroke-width="0.05"/>
      <path d="M15.85 16.65 Q18.4 13.65 22.5 11.55 26.25 9.5 30.2 8.4 L35.65 6.75 Q37.15 6.15 37.35 6.1 L43.05 0.8 Q43.9 1.15 44.35 2.4 44.8 9.4 43.9 11.65 42.55 14.95 40.85 17.4 24.75 23.2 15.45 17.2 15.5 16.95 15.85 16.65" fill="#6f5633" fill-rule="evenodd" stroke="none"/>
      <path d="M43.05 0.8 L37.35 6.1 Q37.15 6.15 35.65 6.75 L30.2 8.4 Q26.25 9.5 22.5 11.55 18.4 13.65 15.85 16.65 15.35 16.85 14.8 17.3 L12.05 14.6 Q17.05 9.25 29.75 7.15 32.0 5.85 34.0 5.35 36.0 4.7 41.0 0.95 L43.05 0.8" fill="#80623a" fill-rule="evenodd" stroke="none"/>
      <path d="M15.45 17.2 Q24.75 23.2 40.85 17.4 34.4 26.25 22.95 24.45 32.35 27.45 36.25 25.8 36.45 27.5 35.75 28.7 30.55 29.6 14.05 22.85 26.15 30.2 34.25 29.9 L34.25 31.7 Q33.6 32.6 30.8 32.2 L30.3 32.15 29.55 33.7 Q19.95 51.55 18.85 49.15 L18.85 48.3 19.3 46.55 Q20.2 43.5 22.1 30.95 L22.2 30.95 24.9 31.0 24.75 30.95 Q9.95 23.8 8.05 20.45 8.2 19.8 8.45 19.55 L9.65 18.95 Q9.15 20.35 10.3 20.55 L11.9 21.6 12.6 21.95 Q13.4 19.4 15.45 17.2 M12.6 21.95 L13.55 22.65 13.55 22.7 13.7 22.75 14.05 22.85 13.7 22.75 13.55 22.7 13.55 22.65 12.6 21.95" fill="#453520" fill-rule="evenodd" stroke="none"/>
      <path d="M15.85 16.65 Q15.5 16.95 15.45 17.2 13.4 19.4 12.6 21.95 L11.9 21.6 Q13.0 20.85 14.8 17.3 15.35 16.85 15.85 16.65 M40.85 17.4 Q42.55 14.95 43.9 11.65 L42.05 16.35 Q37.85 24.6 36.25 25.8 32.35 27.45 22.95 24.45 34.4 26.25 40.85 17.4 M8.05 20.45 Q9.95 23.8 24.75 30.95 L24.9 31.0 22.2 30.95 22.1 30.9 Q9.6 24.4 8.85 23.1 7.95 21.75 8.0 20.75 L8.05 20.45 M18.85 49.15 Q19.95 51.55 29.55 33.7 L30.3 32.15 30.8 32.2 Q33.6 32.6 34.25 31.7 34.1 33.05 32.45 33.3 L31.8 34.55 24.75 45.85 Q18.9 54.6 18.85 49.15 M34.25 29.9 Q26.15 30.2 14.05 22.85 30.55 29.6 35.75 28.7 35.25 29.5 34.3 29.9 L34.25 29.9" fill="#281f13" fill-rule="evenodd" stroke="none"/>
      <path d="M12.05 14.6 L14.8 17.3 Q13.0 20.85 11.9 21.6 L10.3 20.55 Q9.15 20.35 9.65 18.95 L9.7 18.95 Q10.5 16.5 12.05 14.6" fill="#4f3c25" fill-rule="evenodd" stroke="none"/>
      <path d="M22.2 30.95 L22.1 30.95 22.1 30.9 22.2 30.95" fill="#534226" fill-rule="evenodd" stroke="none"/>
      <path d="M15.85 16.65 Q15.5 16.95 15.45 17.2 M43.9 11.65 Q44.8 9.4 44.35 2.4 43.9 1.15 43.05 0.8 L41.0 0.95 Q36.0 4.7 34.0 5.35 32.0 5.85 29.75 7.15 17.05 9.25 12.05 14.6 M36.25 25.8 Q32.35 27.45 22.95 24.45 M9.65 18.95 L8.45 19.55 Q8.2 19.8 8.05 20.45 L8.0 20.75 Q7.95 21.75 8.85 23.1 9.6 24.4 22.1 30.9 L22.2 30.95 M22.1 30.95 Q20.2 43.5 19.3 46.55 M18.85 48.3 L18.85 49.15 Q18.9 54.6 24.75 45.85 L31.8 34.55 32.45 33.3 Q34.1 33.05 34.25 31.7 L34.25 29.9 Q26.15 30.2 14.05 22.85 L13.7 22.75 13.55 22.7 13.55 22.65 12.6 21.95 11.9 21.6 10.3 20.55 Q9.15 20.35 9.65 18.95 L9.7 18.95 Q10.5 16.5 12.05 14.6 M12.6 21.95 Q13.4 19.4 15.45 17.2 M34.25 29.9 L34.3 29.9 Q35.25 29.5 35.75 28.7 36.45 27.5 36.25 25.8 37.85 24.6 42.05 16.35 L43.9 11.65 M22.1 30.9 L22.1 30.95" fill="none" stroke="#000000" stroke-linecap="round" stroke-linejoin="round" stroke-opacity="0.3019608" stroke-width="0.05"/>
      <path d="M11.9 21.6 L13.25 20.0 M14.35 18.25 L14.8 17.3" fill="none" stroke="#000000" stroke-linecap="round" stroke-linejoin="round" stroke-opacity="0.15294118" stroke-width="0.1"/>
      <path d="M37.6 5.9 L39.2 4.4 M22.5 11.55 Q23.35 11.1 24.15 10.7 M26.05 9.85 L28.1 9.05 M30.2 8.4 L31.85 7.95 M33.95 7.35 L35.65 6.75 M15.85 16.65 L17.25 15.15 M18.85 13.85 L20.65 12.65 M40.75 2.95 L42.15 1.65" fill="none" stroke="#000000" stroke-linecap="round" stroke-linejoin="round" stroke-opacity="0.3019608" stroke-width="0.1"/>
      <path d="M22.9 17.45 L23.9 17.8 25.0 17.35 25.65 16.4 Q25.75 15.85 25.45 15.5 25.1 15.15 24.5 15.2 L23.35 15.6 Q22.85 16.05 22.75 16.6 22.6 17.15 22.9 17.45" fill="#5b4a24" fill-rule="evenodd" stroke="none"/>
      <path d="M22.9 17.45 L23.9 17.8 25.0 17.35 25.65 16.4 Q25.75 15.85 25.45 15.5 25.1 15.15 24.5 15.2 L23.35 15.6 Q22.85 16.05 22.75 16.6 22.6 17.15 22.9 17.45 Z" fill="none" stroke="#000000" stroke-linecap="round" stroke-linejoin="round" stroke-opacity="0.3019608" stroke-width="0.05"/>
      <path d="M23.15 17.45 Q23.4 17.8 23.9 17.75 L24.8 17.35 25.3 16.65 Q25.4 16.2 25.1 15.9 24.85 15.55 24.4 15.6 23.9 15.65 23.45 16.0 23.1 16.3 23.0 16.75 22.9 17.15 23.15 17.45" fill="#000000" fill-rule="evenodd" stroke="none"/>
      <path d="M23.15 17.45 Q23.4 17.8 23.9 17.75 L24.8 17.35 25.3 16.65 Q25.4 16.2 25.1 15.9 24.85 15.55 24.4 15.6 23.9 15.65 23.45 16.0 23.1 16.3 23.0 16.75 22.9 17.15 23.15 17.45 Z" fill="none" stroke="#000000" stroke-linecap="round" stroke-linejoin="round" stroke-opacity="0.3019608" stroke-width="0.05"/>
      <path d="M16.8 12.9 L17.8 13.05 18.8 12.6 19.2 11.75 Q19.25 11.3 18.85 11.1 L17.85 10.95 Q17.25 11.05 16.85 11.4 16.4 11.75 16.35 12.2 16.35 12.65 16.8 12.9" fill="#5b4a24" fill-rule="evenodd" stroke="none"/>
      <path d="M16.8 12.9 L17.8 13.05 18.8 12.6 19.2 11.75 Q19.25 11.3 18.85 11.1 L17.85 10.95 Q17.25 11.05 16.85 11.4 16.4 11.75 16.35 12.2 16.35 12.65 16.8 12.9 Z" fill="none" stroke="#000000" stroke-linecap="round" stroke-linejoin="round" stroke-opacity="0.3019608" stroke-width="0.05"/>
      <path d="M16.9 12.9 L17.7 13.0 18.5 12.65 18.85 12.0 Q18.9 11.65 18.55 11.45 L17.75 11.3 16.95 11.7 Q16.65 12.0 16.6 12.35 16.6 12.7 16.9 12.9" fill="#000000" fill-rule="evenodd" stroke="none"/>
      <path d="M16.9 12.9 L17.7 13.0 18.5 12.65 18.85 12.0 Q18.9 11.65 18.55 11.45 L17.75 11.3 16.95 11.7 Q16.65 12.0 16.6 12.35 16.6 12.7 16.9 12.9 Z" fill="none" stroke="#000000" stroke-linecap="round" stroke-linejoin="round" stroke-opacity="0.3019608" stroke-width="0.05"/>
      <path d="M18.85 12.0 L18.75 11.95 Q18.2 11.45 17.45 11.55 L17.3 11.6 17.15 11.65 Q15.9 11.75 16.55 13.4 L17.25 13.55 Q17.75 14.3 18.65 14.1 19.6 15.25 20.55 15.05 L21.05 15.95 Q21.45 16.65 22.5 16.5 22.9 17.95 23.75 17.9 L23.95 18.15 24.2 18.05 Q24.7 17.9 24.85 17.55 25.15 17.1 24.65 16.2 L24.3 15.7 24.3 15.95 24.0 15.05 23.35 14.4 23.0 14.2 22.95 14.1 Q22.25 12.9 21.15 12.75 L20.85 12.8 20.7 12.55 Q20.0 11.75 19.15 11.9 L18.85 12.0" fill="#2b2211" fill-opacity="0.3019608" fill-rule="evenodd" stroke="none"/>
      <path d="M18.35 10.95 Q19.05 10.75 19.55 11.35 L19.25 11.9 18.4 11.95 19.2 12.25 19.1 12.6 Q18.6 13.3 18.25 12.2 L18.35 11.5 19.1 11.45 18.35 10.95 M19.95 11.25 Q20.7 11.0 21.35 11.8 L21.05 12.8 19.8 12.45 20.95 13.25 20.85 13.65 Q20.05 14.0 19.7 12.95 19.6 12.5 19.65 11.9 L20.6 12.0 19.8 11.6 19.95 11.25 M21.75 12.05 Q22.8 12.1 23.35 13.3 L23.25 13.4 Q22.95 12.75 22.25 12.55 23.2 13.35 23.25 13.8 L23.1 14.05 22.75 15.35 Q21.85 15.25 21.4 14.15 L21.55 13.25 23.1 14.05 21.6 12.9 21.75 12.05 M23.75 13.55 L24.25 14.1 24.55 15.1 23.95 14.55 24.4 15.45 Q24.3 16.25 23.9 16.6 23.45 16.4 23.25 15.6 23.45 15.25 24.15 15.95 L23.6 15.0 23.75 13.55" fill="#b19741" fill-rule="evenodd" stroke="none"/>
      <path d="M24.55 15.1 L24.55 14.8 24.8 15.3 Q25.2 16.15 25.0 16.65 L24.35 17.2 24.15 17.3 23.9 17.05 Q23.1 17.15 22.75 15.8 21.9 15.9 21.45 15.15 L21.05 14.35 Q20.15 14.6 19.4 13.5 18.5 13.75 18.1 13.0 L17.45 12.8 Q16.95 11.2 18.05 11.0 L18.2 11.0 18.35 10.95 19.1 11.45 18.35 11.5 18.25 12.2 Q18.6 13.3 19.1 12.6 L19.2 12.25 18.4 11.95 19.25 11.9 19.55 11.35 19.65 11.35 19.95 11.25 19.8 11.6 20.6 12.0 19.65 11.9 Q19.6 12.5 19.7 12.95 20.05 14.0 20.85 13.65 L20.95 13.25 19.8 12.45 21.05 12.8 21.35 11.8 21.45 12.0 21.75 12.05 21.6 12.9 23.1 14.05 21.55 13.25 21.4 14.15 Q21.85 15.25 22.75 15.35 L23.1 14.05 23.25 13.8 Q23.2 13.35 22.25 12.55 22.95 12.75 23.25 13.4 L23.35 13.3 23.4 13.3 23.75 13.55 23.6 15.0 24.15 15.95 Q23.45 15.25 23.25 15.6 23.45 16.4 23.9 16.6 24.3 16.25 24.4 15.45 L23.95 14.55 24.55 15.1 M22.75 15.8 Q23.4 14.75 23.4 13.3 23.4 14.75 22.75 15.8 M23.9 17.05 Q24.65 16.25 24.55 14.8 24.65 16.25 23.9 17.05 M18.1 13.0 Q17.9 11.8 18.2 11.0 17.9 11.8 18.1 13.0 M19.4 13.5 Q19.25 12.2 19.65 11.35 19.25 12.2 19.4 13.5 M21.05 14.35 Q21.05 13.15 21.45 12.0 21.05 13.15 21.05 14.35" fill="#7c642e" fill-rule="evenodd" stroke="none"/>
      <path d="M24.55 15.1 L24.55 14.8 24.8 15.3 Q25.2 16.15 25.0 16.65 L24.35 17.2 24.15 17.3 23.9 17.05 Q23.1 17.15 22.75 15.8 21.9 15.9 21.45 15.15 L21.05 14.35 Q20.15 14.6 19.4 13.5 18.5 13.75 18.1 13.0 L17.45 12.8 Q16.95 11.2 18.05 11.0 L18.2 11.0 18.35 10.95 Q19.05 10.75 19.55 11.35 L19.65 11.35 19.95 11.25 Q20.7 11.0 21.35 11.8 L21.45 12.0 21.75 12.05 Q22.8 12.1 23.35 13.3 L23.4 13.3 23.75 13.55 24.25 14.1 24.55 15.1 M23.4 13.3 Q23.4 14.75 22.75 15.8 M21.45 12.0 Q21.05 13.15 21.05 14.35 M19.65 11.35 Q19.25 12.2 19.4 13.5 M18.2 11.0 Q17.9 11.8 18.1 13.0 M24.55 14.8 Q24.65 16.25 23.9 17.05" fill="none" stroke="#000000" stroke-linecap="round" stroke-linejoin="round" stroke-opacity="0.3019608" stroke-width="0.05"/>
      <path d="M30.05 14.3 Q30.25 14.7 30.85 14.8 L32.15 14.75 33.15 14.0 Q33.55 13.55 33.4 13.2 33.2 12.75 32.6 12.6 L31.3 12.75 30.25 13.4 Q29.9 13.85 30.05 14.3" fill="#5b4a24" fill-rule="evenodd" stroke="none"/>
      <path d="M30.05 14.3 Q30.25 14.7 30.85 14.8 L32.15 14.75 33.15 14.0 Q33.55 13.55 33.4 13.2 33.2 12.75 32.6 12.6 L31.3 12.75 30.25 13.4 Q29.9 13.85 30.05 14.3 Z" fill="none" stroke="#000000" stroke-linecap="round" stroke-linejoin="round" stroke-opacity="0.3019608" stroke-width="0.05"/>
      <path d="M30.3 14.25 Q30.4 14.6 30.9 14.7 L31.95 14.6 32.8 14.1 32.95 13.35 Q32.8 13.05 32.3 12.95 L31.3 13.0 30.45 13.6 Q30.15 13.95 30.3 14.25" fill="#000000" fill-rule="evenodd" stroke="none"/>
      <path d="M30.3 14.25 Q30.4 14.6 30.9 14.7 L31.95 14.6 32.8 14.1 32.95 13.35 Q32.8 13.05 32.3 12.95 L31.3 13.0 30.45 13.6 Q30.15 13.95 30.3 14.25 Z" fill="none" stroke="#000000" stroke-linecap="round" stroke-linejoin="round" stroke-opacity="0.3019608" stroke-width="0.05"/>
      <path d="M24.4 10.05 L25.4 10.2 26.4 9.85 26.85 9.2 Q26.85 8.8 26.4 8.65 L25.4 8.5 Q24.85 8.55 24.4 8.85 24.0 9.1 24.0 9.5 24.0 9.85 24.4 10.05" fill="#5b4a24" fill-rule="evenodd" stroke="none"/>
      <path d="M24.4 10.05 L25.4 10.2 26.4 9.85 26.85 9.2 Q26.85 8.8 26.4 8.65 L25.4 8.5 Q24.85 8.55 24.4 8.85 24.0 9.1 24.0 9.5 24.0 9.85 24.4 10.05 Z" fill="none" stroke="#000000" stroke-linecap="round" stroke-linejoin="round" stroke-opacity="0.3019608" stroke-width="0.05"/>
      <path d="M24.55 9.95 L25.35 10.05 26.15 9.75 26.45 9.3 26.15 8.8 25.35 8.7 24.55 9.0 Q24.2 9.25 24.2 9.55 L24.55 9.95" fill="#000000" fill-rule="evenodd" stroke="none"/>
      <path d="M24.55 9.95 L25.35 10.05 26.15 9.75 26.45 9.3 26.15 8.8 25.35 8.7 24.55 9.0 Q24.2 9.25 24.2 9.55 L24.55 9.95 Z" fill="none" stroke="#000000" stroke-linecap="round" stroke-linejoin="round" stroke-opacity="0.3019608" stroke-width="0.05"/>
      <path d="M32.65 14.25 L32.05 14.55 30.5 14.75 Q30.15 14.35 29.95 13.7 29.0 13.8 28.55 13.1 L28.1 12.25 Q27.1 12.45 26.15 11.3 25.3 11.5 24.75 10.7 L24.05 10.6 Q23.4 8.9 24.65 8.75 L24.85 8.75 25.0 8.75 Q25.7 8.5 26.2 9.2 L26.35 9.2 26.7 9.05 Q27.55 8.95 28.15 9.7 L28.35 9.95 28.6 9.95 Q29.75 10.15 30.45 11.3 L30.5 11.4 Q30.75 11.4 30.9 11.55 L31.5 12.15 31.8 13.1 31.8 12.9 32.1 13.45 32.65 14.25" fill="#2b2211" fill-opacity="0.3019608" fill-rule="evenodd" stroke="none"/>
      <path d="M25.75 8.05 Q26.45 7.85 26.95 8.45 L26.65 9.0 25.8 9.05 26.6 9.35 26.5 9.7 Q26.0 10.4 25.65 9.3 L25.75 8.6 26.5 8.55 25.75 8.05 M27.35 8.35 Q28.1 8.1 28.75 8.9 L28.45 9.9 27.2 9.55 28.35 10.35 28.25 10.75 Q27.45 11.1 27.1 10.05 27.0 9.6 27.05 9.0 L28.0 9.1 27.2 8.7 27.35 8.35 M29.15 9.15 Q30.2 9.2 30.75 10.4 L30.65 10.5 Q30.35 9.85 29.65 9.65 30.6 10.45 30.65 10.9 L30.5 11.15 29.0 10.0 29.15 9.15 M31.15 10.65 L31.65 11.2 31.95 12.2 31.35 11.65 31.8 12.55 31.3 13.7 Q30.85 13.5 30.65 12.7 30.85 12.35 31.55 13.05 L31.0 12.1 31.15 10.65 M30.5 11.15 L30.15 12.45 Q29.25 12.35 28.8 11.25 L28.95 10.35 30.5 11.15" fill="#b19741" fill-rule="evenodd" stroke="none"/>
      <path d="M31.95 12.2 L31.95 11.9 32.2 12.4 Q32.6 13.25 32.4 13.75 L31.75 14.3 31.55 14.4 31.3 14.15 Q30.5 14.25 30.15 12.9 29.3 13.0 28.85 12.25 L28.45 11.45 Q27.55 11.7 26.8 10.6 25.9 10.85 25.5 10.1 L24.85 9.9 Q24.35 8.3 25.45 8.1 L25.6 8.1 25.75 8.05 26.5 8.55 25.75 8.6 25.65 9.3 Q26.0 10.4 26.5 9.7 L26.6 9.35 25.8 9.05 26.65 9.0 26.95 8.45 27.05 8.45 27.35 8.35 27.2 8.7 28.0 9.1 27.05 9.0 Q27.0 9.6 27.1 10.05 27.45 11.1 28.25 10.75 L28.35 10.35 27.2 9.55 28.45 9.9 28.75 8.9 28.85 9.1 29.15 9.15 29.0 10.0 30.5 11.15 30.65 10.9 Q30.6 10.45 29.65 9.65 30.35 9.85 30.65 10.5 L30.75 10.4 30.8 10.4 31.15 10.65 31.0 12.1 31.55 13.05 Q30.85 12.35 30.65 12.7 30.85 13.5 31.3 13.7 L31.8 12.55 31.35 11.65 31.95 12.2 M30.15 12.9 Q30.8 11.85 30.8 10.4 30.8 11.85 30.15 12.9 M30.5 11.15 L28.95 10.35 28.8 11.25 Q29.25 12.35 30.15 12.45 L30.5 11.15 M31.3 14.15 Q32.05 13.35 31.95 11.9 32.05 13.35 31.3 14.15 M26.8 10.6 Q26.65 9.3 27.05 8.45 26.65 9.3 26.8 10.6 M25.5 10.1 Q25.3 8.9 25.6 8.1 25.3 8.9 25.5 10.1 M28.45 11.45 Q28.45 10.25 28.85 9.1 28.45 10.25 28.45 11.45" fill="#7c642e" fill-rule="evenodd" stroke="none"/>
      <path d="M31.95 12.2 L31.95 11.9 32.2 12.4 Q32.6 13.25 32.4 13.75 L31.75 14.3 31.55 14.4 31.3 14.15 Q30.5 14.25 30.15 12.9 29.3 13.0 28.85 12.25 L28.45 11.45 Q27.55 11.7 26.8 10.6 25.9 10.85 25.5 10.1 L24.85 9.9 Q24.35 8.3 25.45 8.1 L25.6 8.1 25.75 8.05 Q26.45 7.85 26.95 8.45 L27.05 8.45 27.35 8.35 Q28.1 8.1 28.75 8.9 L28.85 9.1 29.15 9.15 Q30.2 9.2 30.75 10.4 L30.8 10.4 31.15 10.65 31.65 11.2 31.95 12.2 M30.8 10.4 Q30.8 11.85 30.15 12.9 M28.85 9.1 Q28.45 10.25 28.45 11.45 M25.6 8.1 Q25.3 8.9 25.5 10.1 M27.05 8.45 Q26.65 9.3 26.8 10.6 M31.95 11.9 Q32.05 13.35 31.3 14.15" fill="none" stroke="#000000" stroke-linecap="round" stroke-linejoin="round" stroke-opacity="0.3019608" stroke-width="0.05"/>
      <path d="M23.6 33.15 Q22.85 34.25 23.15 35.7 25.55 37.45 28.75 37.1 29.75 35.95 29.25 34.55 26.45 34.7 23.6 33.15" fill="#b19741" fill-rule="evenodd" stroke="none"/>
      <path d="M23.6 33.15 Q22.85 34.25 23.15 35.7 25.55 37.45 28.75 37.1 29.75 35.95 29.25 34.55 26.45 34.7 23.6 33.15 Z" fill="none" stroke="#000000" stroke-linecap="round" stroke-linejoin="round" stroke-opacity="0.3019608" stroke-width="0.05"/>
      <path d="M24.7 33.7 L21.2 31.7 20.45 35.25 24.2 36.15 24.7 33.7" fill="url(#gradient0)" fill-rule="evenodd" stroke="none"/>
      <path d="M32.15 34.4 L31.4 37.95 27.65 37.05 28.15 34.6 32.15 34.4" fill="url(#gradient1)" fill-rule="evenodd" stroke="none"/>
      <path d="M27.6 36.65 L27.9 34.9 Q26.55 35.0 25.15 34.2 L26.4 35.1 24.5 34.95 26.75 35.9 24.35 35.8 Q26.55 37.0 27.6 36.65" fill="#c7a863" fill-rule="evenodd" stroke="none"/>
    </g>
    <linearGradient gradientTransform="matrix(-0.0024, -7.0E-4, -5.0E-4, 0.0022, 24.0, 34.25)" gradientUnits="userSpaceOnUse" id="gradient0" spreadMethod="pad" x1="-819.2" x2="819.2">
      <stop offset="0.0" stop-color="#000000"/>
      <stop offset="1.0" stop-color="#000000" stop-opacity="0.0"/>
    </linearGradient>
    <linearGradient gradientTransform="matrix(0.0024, 5.0E-4, -4.0E-4, 0.0022, 28.55, 35.45)" gradientUnits="userSpaceOnUse" id="gradient1" spreadMethod="pad" x1="-819.2" x2="819.2">
      <stop offset="0.0" stop-color="#000000"/>
      <stop offset="1.0" stop-color="#000000" stop-opacity="0.0"/>
    </linearGradient>
  </defs>
</svg>
