<?xml version="1.0" encoding="UTF-8" standalone="no"?>
<svg xmlns:xlink="http://www.w3.org/1999/xlink" height="520.0px" width="520.0px" xmlns="http://www.w3.org/2000/svg">
  <g transform="matrix(10.0, 0.0, 0.0, 10.0, 0.0, 0.0)">
    <use height="52.0" transform="matrix(1.0, 0.0, 0.0, 1.0, 0.0, 0.0)" width="52.0" xlink:href="#sprite0"/>
  </g>
  <defs>
    <g id="sprite0" transform="matrix(1.0, 0.0, 0.0, 1.0, 0.0, 0.0)">
      <use height="52.0" transform="matrix(1.0, 0.0, 0.0, 1.0, 0.0, 0.0)" width="52.0" xlink:href="#sprite1"/>
      <use height="130.65" transform="matrix(0.3575, 0.0, 0.0, 0.3575, 3.0143, 2.8606)" width="129.9" xlink:href="#sprite2"/>
    </g>
    <g id="sprite1" transform="matrix(1.0, 0.0, 0.0, 1.0, 0.0, 0.0)">
      <use height="52.0" transform="matrix(1.0, 0.0, 0.0, 1.0, 0.0, 0.0)" width="52.0" xlink:href="#shape0"/>
    </g>
    <g id="shape0" transform="matrix(1.0, 0.0, 0.0, 1.0, 0.0, 0.0)">
      <path d="M0.0 0.0 L52.0 0.0 52.0 52.0 0.0 52.0 0.0 0.0" fill="#ffba2e" fill-opacity="0.0" fill-rule="evenodd" stroke="none"/>
    </g>
    <g id="sprite2" transform="matrix(1.0, 0.0, 0.0, 1.0, 0.1, 0.25)">
      <use height="130.65" transform="matrix(1.0, 0.0, 0.0, 1.0, -0.1, -0.25)" width="129.9" xlink:href="#shape1"/>
      <use height="2.95" transform="matrix(5.1188, -1.168, 0.8981, 5.4857, 11.8, 55.6)" width="3.45" xlink:href="#sprite3"/>
      <use height="16.85" transform="matrix(1.0, 0.0, 0.0, 1.0, 57.2, 40.45)" width="45.0" xlink:href="#shape3"/>
    </g>
    <g id="shape1" transform="matrix(1.0, 0.0, 0.0, 1.0, 0.1, 0.25)">
      <path d="M19.55 63.4 Q19.55 66.95 20.15 71.2 21.4 79.6 21.4 83.85 21.4 96.25 16.8 101.75 14.3 104.85 9.7 106.15 2.6 105.55 1.1 102.7 0.15 101.45 0.15 99.85 0.15 96.9 1.7 96.8 2.95 96.75 4.45 98.6 7.55 101.65 12.15 98.1 15.55 94.0 15.55 83.55 L14.65 64.65 19.55 63.4" fill="url(#gradient0)" fill-rule="evenodd" stroke="none"/>
      <path d="M19.55 63.4 Q19.55 66.95 20.15 71.2 21.4 79.6 21.4 83.85 21.4 96.25 16.8 101.75 14.3 104.85 9.7 106.15 2.6 105.55 1.1 102.7 0.15 101.45 0.15 99.85 0.15 96.9 1.7 96.8 2.95 96.75 4.45 98.6 7.55 101.65 12.15 98.1 15.55 94.0 15.55 83.55 L14.65 64.65 19.55 63.4 Z" fill="none" stroke="#000000" stroke-linecap="round" stroke-linejoin="round" stroke-opacity="0.3019608" stroke-width="0.5"/>
      <path d="M21.25 83.7 Q21.25 96.2 16.8 101.8 14.15 104.85 9.7 106.25 2.65 105.4 1.05 102.6 0.0 101.5 0.0 99.85 0.0 96.75 1.6 96.5 2.9 96.5 4.45 98.7 7.6 101.5 12.05 98.15 15.5 93.7 15.5 83.45 L14.7 64.5 19.4 63.15 Q19.4 66.75 20.2 70.9 21.25 79.55 21.25 83.7" fill="#000000" fill-opacity="0.3019608" fill-rule="evenodd" stroke="none"/>
      <path d="M34.65 68.6 Q36.6 79.3 37.45 90.6 38.3 102.2 33.95 110.3 29.65 118.6 22.05 118.95 17.1 119.15 16.85 115.95 16.75 114.8 20.35 112.05 L20.75 111.75 Q27.9 105.6 29.45 95.65 29.6 93.0 29.4 90.35 L27.5 69.8 34.65 68.6" fill="url(#gradient1)" fill-rule="evenodd" stroke="none"/>
      <path d="M34.65 68.6 Q36.6 79.3 37.45 90.6 38.3 102.2 33.95 110.3 29.65 118.6 22.05 118.95 17.1 119.15 16.85 115.95 16.75 114.8 20.35 112.05 L20.75 111.75 Q27.9 105.6 29.45 95.65 29.6 93.0 29.4 90.35 L27.5 69.8 34.65 68.6 Z" fill="none" stroke="#000000" stroke-linecap="round" stroke-linejoin="round" stroke-opacity="0.3019608" stroke-width="0.5"/>
      <path d="M31.55 68.8 Q32.5 77.95 32.65 88.0 33.05 100.5 28.65 109.1 24.95 116.65 19.45 118.55 16.95 117.75 16.7 115.5 16.75 114.4 20.5 111.9 20.9 111.9 20.9 111.6 28.1 105.5 29.4 95.2 29.55 92.45 29.3 90.2 L27.5 69.35 27.9 69.35 31.55 68.8" fill="#000000" fill-opacity="0.3019608" fill-rule="evenodd" stroke="none"/>
      <path d="M45.85 63.15 L52.6 63.95 52.95 63.9 52.6 92.2 Q52.6 95.75 52.95 99.3 55.2 112.65 62.7 120.15 L63.1 120.5 Q66.85 123.9 66.85 125.5 66.85 129.85 61.95 130.15 54.45 130.6 49.6 119.8 44.7 109.35 44.7 93.45 44.7 77.95 45.85 63.15" fill="url(#gradient2)" fill-rule="evenodd" stroke="none"/>
      <path d="M45.85 63.15 Q44.7 77.95 44.7 93.45 44.7 109.35 49.6 119.8 54.45 130.6 61.95 130.15 66.85 129.85 66.85 125.5 66.85 123.9 63.1 120.5 L62.7 120.15 Q55.2 112.65 52.95 99.3 52.6 95.75 52.6 92.2 L52.95 63.9 52.6 63.95 45.85 63.15 Z" fill="none" stroke="#000000" stroke-linecap="round" stroke-linejoin="round" stroke-opacity="0.3019608" stroke-width="0.5"/>
      <path d="M45.85 63.1 L49.25 63.65 49.0 93.7 49.25 101.45 Q51.6 116.2 58.95 125.1 62.35 128.15 63.15 130.1 L62.1 130.1 Q54.5 130.65 49.5 119.8 44.8 109.55 44.8 93.7 44.8 78.1 45.85 63.1" fill="#000000" fill-opacity="0.3019608" fill-rule="evenodd" stroke="none"/>
      <path d="M63.0 126.65 L60.25 124.6 Q58.85 123.2 58.2 121.85 57.55 120.55 58.05 120.0 L59.8 120.05 Q61.15 120.65 62.55 122.05 64.0 123.45 64.6 124.85 65.3 126.2 64.8 126.75 L63.0 126.65" fill="#ffffff" fill-opacity="0.3019608" fill-rule="evenodd" stroke="none"/>
      <path d="M108.5 41.3 L113.1 61.35 Q113.7 63.9 114.65 66.35 118.6 75.6 125.4 80.15 L125.75 80.35 Q129.1 82.35 129.4 83.5 130.15 86.6 126.6 87.3 121.2 88.4 115.7 81.2 110.35 74.35 107.6 63.05 104.9 52.05 103.15 41.45 L108.2 41.35 108.5 41.3" fill="url(#gradient3)" fill-rule="evenodd" stroke="none"/>
      <path d="M108.5 41.3 L108.2 41.35 103.15 41.45 Q104.9 52.05 107.6 63.05 110.35 74.35 115.7 81.2 121.2 88.4 126.6 87.3 130.15 86.6 129.4 83.5 129.1 82.35 125.75 80.35 L125.4 80.15 Q118.6 75.6 114.65 66.35 113.7 63.9 113.1 61.35 L108.5 41.3 Z" fill="none" stroke="#000000" stroke-linecap="round" stroke-linejoin="round" stroke-opacity="0.3019608" stroke-width="0.5"/>
      <path d="M105.55 41.45 Q107.55 50.45 110.35 60.1 113.65 72.15 119.3 79.55 124.05 86.1 128.5 86.85 129.95 85.65 129.5 83.4 129.1 82.35 125.75 80.7 L125.4 80.5 Q118.6 76.0 114.7 66.4 L113.3 61.55 108.5 41.3 108.25 41.35 105.55 41.45" fill="#000000" fill-opacity="0.3019608" fill-rule="evenodd" stroke="none"/>
      <path d="M103.8 75.15 Q104.75 78.6 106.0 81.95 111.65 94.3 120.8 99.6 L121.25 99.85 Q125.8 102.1 126.2 103.65 127.35 107.85 122.7 109.4 115.6 111.8 108.05 102.6 100.65 93.8 96.5 78.4 92.5 63.45 89.8 48.9 L96.5 47.9 96.85 47.8 103.8 75.15" fill="url(#gradient4)" fill-rule="evenodd" stroke="none"/>
      <path d="M103.8 75.15 L96.85 47.8 96.5 47.9 89.8 48.9 Q92.5 63.45 96.5 78.4 100.65 93.8 108.05 102.6 115.6 111.8 122.7 109.4 127.35 107.85 126.2 103.65 125.8 102.1 121.25 99.85 L120.8 99.6 Q111.65 94.3 106.0 81.95 104.75 78.6 103.8 75.15 Z" fill="none" stroke="#000000" stroke-linecap="round" stroke-linejoin="round" stroke-opacity="0.3019608" stroke-width="0.5"/>
      <path d="M89.7 48.85 L93.15 48.5 100.65 77.6 102.95 85.0 Q109.05 98.65 118.4 105.35 122.5 107.45 123.75 109.15 L122.75 109.4 Q115.55 111.85 107.95 102.7 100.7 93.95 96.6 78.65 92.6 63.6 89.7 48.85" fill="#000000" fill-opacity="0.3019608" fill-rule="evenodd" stroke="none"/>
      <path d="M122.75 105.8 Q121.3 105.5 119.55 104.5 117.85 103.5 116.9 102.45 115.9 101.3 116.25 100.65 116.55 100.0 118.0 100.25 119.4 100.45 121.1 101.45 122.85 102.45 123.85 103.6 124.8 104.75 124.5 105.4 124.15 106.05 122.75 105.8" fill="#ffffff" fill-opacity="0.3019608" fill-rule="evenodd" stroke="none"/>
      <path d="M96.5 47.9 L96.85 47.8 103.65 74.45 Q100.7 76.65 96.35 77.85 L95.9 76.0 90.8 54.15 89.7 48.85 96.5 47.9 M108.2 41.35 L108.5 41.3 113.3 61.55 113.75 63.3 112.85 64.55 Q110.9 67.7 108.75 67.15 L107.6 63.05 Q104.9 52.05 103.15 41.45 L108.2 41.35 M27.9 69.35 L31.55 68.8 31.6 69.15 34.65 68.6 Q36.3 77.6 37.15 87.0 35.2 88.0 34.4 88.1 L29.15 88.5 27.5 69.8 27.55 69.8 27.5 69.35 27.9 69.35 M19.9 69.1 L20.2 70.9 20.6 74.45 Q21.4 80.45 21.4 83.85 L21.35 86.6 Q18.1 84.85 16.85 81.7 L15.5 82.65 14.65 64.65 14.7 64.65 14.7 64.5 19.4 63.15 19.4 63.45 19.55 63.4 Q19.55 66.05 19.9 69.1 M52.6 63.95 L52.95 63.9 52.7 87.0 Q47.85 87.2 44.85 86.1 L44.85 85.75 45.85 63.1 52.6 63.95" fill="#000000" fill-opacity="0.3019608" fill-rule="evenodd" stroke="none"/>
      <path d="M99.65 15.6 Q104.7 22.15 106.25 24.95 109.5 30.4 111.0 34.6 L114.3 47.05 Q114.9 50.6 112.05 54.15 109.75 57.9 107.1 56.4 106.95 60.35 103.5 63.45 99.55 66.9 92.55 68.05 L88.2 67.65 84.35 66.6 Q82.4 70.85 74.25 73.0 68.7 73.1 62.75 70.7 57.85 74.85 52.5 76.55 44.15 77.1 40.9 73.7 L37.55 75.95 Q34.65 77.55 33.6 77.7 26.6 78.85 21.8 76.8 17.5 75.0 16.05 71.3 14.1 73.55 10.7 70.75 6.85 68.3 6.25 64.75 L5.75 61.7 Q5.3 57.3 5.5 51.85 5.65 46.5 5.9 44.5 L6.95 41.2 Q7.25 38.4 10.2 30.25 13.45 21.0 22.55 13.35 34.45 3.25 52.9 0.8 84.55 -3.6 99.65 15.6" fill="url(#gradient5)" fill-rule="evenodd" stroke="none"/>
      <path d="M99.65 15.6 Q84.55 -3.6 52.9 0.8 34.45 3.25 22.55 13.35 13.45 21.0 10.2 30.25 7.25 38.4 6.95 41.2 L5.9 44.5 Q5.65 46.5 5.5 51.85 5.3 57.3 5.75 61.7 L6.25 64.75 Q6.85 68.3 10.7 70.75 14.1 73.55 16.05 71.3 17.5 75.0 21.8 76.8 26.6 78.85 33.6 77.7 34.65 77.55 37.55 75.95 L40.9 73.7 Q44.15 77.1 52.5 76.55 57.85 74.85 62.75 70.7 68.7 73.1 74.25 73.0 82.4 70.85 84.35 66.6 L88.2 67.65 92.55 68.05 Q99.55 66.9 103.5 63.45 106.95 60.35 107.1 56.4 109.75 57.9 112.05 54.15 114.9 50.6 114.3 47.05 L111.0 34.6 Q109.5 30.4 106.25 24.95 104.7 22.15 99.65 15.6 Z" fill="none" stroke="#000000" stroke-linecap="round" stroke-linejoin="round" stroke-opacity="0.3019608" stroke-width="0.5"/>
      <path d="M39.3 4.25 Q44.8 2.05 51.75 1.15 62.95 -0.4 72.0 3.0 81.1 6.6 81.75 12.65 82.35 19.15 73.5 25.0 65.35 30.7 54.25 32.25 41.75 34.05 33.15 30.3 24.85 26.55 24.4 20.25 23.85 13.95 32.0 8.25 35.1 6.2 39.3 4.25" fill="url(#gradient6)" fill-rule="evenodd" stroke="none"/>
      <path d="M79.5 28.4 Q75.15 29.9 70.1 28.1 65.2 26.35 62.7 22.45 60.15 18.5 61.45 14.6 62.8 10.65 67.1 9.25 L76.3 9.5 Q81.35 11.3 83.9 15.2 86.5 19.05 85.15 23.0 83.85 26.9 79.5 28.4" fill="#ffffff" fill-opacity="0.3019608" fill-rule="evenodd" stroke="none"/>
      <path d="M40.55 3.35 Q43.85 2.25 49.25 1.35 42.75 5.2 38.1 9.65 34.45 13.35 32.25 17.35 31.8 18.0 31.65 18.6 25.9 30.8 29.8 44.8 31.55 50.45 34.75 55.55 39.15 61.3 46.0 65.8 52.95 69.45 62.55 71.3 57.85 74.85 52.8 76.5 44.4 77.1 41.15 73.65 L38.3 75.8 Q35.95 77.35 33.85 77.65 26.9 78.8 22.05 76.8 17.75 74.95 16.35 71.25 14.35 73.5 10.95 70.7 7.1 68.25 6.5 64.7 L5.95 62.8 5.55 58.65 Q5.5 55.25 5.75 51.85 5.95 46.45 7.2 41.15 7.25 40.05 7.65 39.15 8.6 35.35 10.1 31.4 L10.45 30.2 Q16.6 16.0 32.15 6.95 34.8 5.4 37.8 4.4 L38.05 4.35 Q39.0 3.6 40.55 3.35" fill="#000000" fill-opacity="0.07058824" fill-rule="evenodd" stroke="none"/>
    </g>
    <linearGradient gradientTransform="matrix(-0.002, 0.0231, -0.0098, -4.0E-4, 38.95, 94.15)" gradientUnits="userSpaceOnUse" id="gradient0" spreadMethod="pad" x1="-819.2" x2="819.2">
      <stop offset="0.0" stop-color="#dce8e7"/>
      <stop offset="1.0" stop-color="#72c1c0"/>
    </linearGradient>
    <linearGradient gradientTransform="matrix(-9.0E-4, 0.0206, -0.0121, -3.0E-4, 27.7, 93.1)" gradientUnits="userSpaceOnUse" id="gradient1" spreadMethod="pad" x1="-819.2" x2="819.2">
      <stop offset="0.0" stop-color="#dce8e7"/>
      <stop offset="1.0" stop-color="#72c1c0"/>
    </linearGradient>
    <linearGradient gradientTransform="matrix(0.0024, 0.0279, 0.0119, -0.002, 54.45, 95.6)" gradientUnits="userSpaceOnUse" id="gradient2" spreadMethod="pad" x1="-819.2" x2="819.2">
      <stop offset="0.0" stop-color="#dce8e7"/>
      <stop offset="1.0" stop-color="#72c1c0"/>
    </linearGradient>
    <linearGradient gradientTransform="matrix(0.0066, 0.0195, 0.0084, -0.0026, 115.1, 63.6)" gradientUnits="userSpaceOnUse" id="gradient3" spreadMethod="pad" x1="-819.2" x2="819.2">
      <stop offset="0.0" stop-color="#dce8e7"/>
      <stop offset="1.0" stop-color="#72c1c0"/>
    </linearGradient>
    <linearGradient gradientTransform="matrix(0.0095, 0.0263, 0.011, -0.005, 106.55, 78.0)" gradientUnits="userSpaceOnUse" id="gradient4" spreadMethod="pad" x1="-819.2" x2="819.2">
      <stop offset="0.0" stop-color="#dce8e7"/>
      <stop offset="1.0" stop-color="#72c1c0"/>
    </linearGradient>
    <radialGradient cx="0" cy="0" gradientTransform="matrix(-0.1057, 0.0032, -0.0035, 0.0556, 63.8, 31.9)" gradientUnits="userSpaceOnUse" id="gradient5" r="819.2" spreadMethod="pad">
      <stop offset="0.5019607843137255" stop-color="#dce8e7"/>
      <stop offset="1.0" stop-color="#26b7b7"/>
    </radialGradient>
    <radialGradient cx="0" cy="0" gradientTransform="matrix(0.0393, -0.0052, 0.0016, 0.0213, 53.2, 16.3)" gradientUnits="userSpaceOnUse" id="gradient6" r="819.2" spreadMethod="pad">
      <stop offset="0.0" stop-color="#fcba16"/>
      <stop offset="0.8352941176470589" stop-color="#dce8e7"/>
    </radialGradient>
    <g id="sprite3" transform="matrix(1.0, 0.0, 0.0, 1.0, 0.0, 0.0)">
      <use height="2.95" transform="matrix(1.0, 0.0, 0.0, 1.0, 0.0, 0.0)" width="3.45" xlink:href="#shape2"/>
    </g>
    <g id="shape2" transform="matrix(1.0, 0.0, 0.0, 1.0, 0.0, 0.0)">
      <path d="M2.4 2.95 Q1.75 3.05 1.05 2.65 L0.15 1.65 Q-0.1 1.05 0.15 0.6 0.45 0.1 1.1 0.0 1.75 0.0 2.4 0.35 L3.35 1.3 Q3.6 1.95 3.3 2.45 3.05 2.9 2.4 2.95" fill="#ffffff" fill-opacity="0.11764706" fill-rule="evenodd" stroke="none"/>
    </g>
    <g id="shape3" transform="matrix(1.0, 0.0, 0.0, 1.0, -57.2, -40.45)">
      <path d="M62.85 48.8 Q64.15 48.65 64.9 49.5 65.75 50.45 65.35 52.3 65.05 53.95 63.6 55.45 62.15 56.9 60.45 57.25 58.85 57.55 57.9 56.55 57.0 55.5 57.3 53.85 57.5 53.05 57.85 52.35 57.95 53.05 59.0 53.05 61.1 53.05 62.25 51.45 63.0 50.4 63.05 49.55 L62.85 48.8" fill="#000000" fill-rule="evenodd" stroke="none"/>
      <path d="M57.85 52.35 L58.85 50.9 59.1 50.6 Q60.6 49.1 62.2 48.85 L62.85 48.8 63.05 49.55 Q63.0 50.4 62.25 51.45 61.1 53.05 59.0 53.05 57.95 53.05 57.85 52.35" fill="#ffffff" fill-rule="evenodd" stroke="none"/>
      <path d="M93.5 43.65 Q94.3 44.5 95.65 44.5 97.35 44.5 97.45 42.55 97.5 41.2 96.25 40.45 97.85 40.35 99.55 41.35 101.15 42.4 101.85 43.95 102.55 45.6 101.8 46.8 101.1 48.05 99.45 48.15 97.7 48.35 96.1 47.35 94.35 46.3 93.75 44.65 L93.5 43.65" fill="#000000" fill-rule="evenodd" stroke="none"/>
      <path d="M93.5 43.65 L93.4 43.15 Q93.45 42.4 93.8 41.85 94.5 40.65 96.15 40.45 L96.25 40.45 Q97.5 41.2 97.45 42.55 97.35 44.5 95.65 44.5 94.3 44.5 93.5 43.65" fill="#ffffff" fill-rule="evenodd" stroke="none"/>
    </g>
  </defs>
</svg>
