<?xml version="1.0" encoding="UTF-8" standalone="no"?>
<svg xmlns:xlink="http://www.w3.org/1999/xlink" height="520.0px" width="520.0px" xmlns="http://www.w3.org/2000/svg">
  <g transform="matrix(10.0, 0.0, 0.0, 10.0, 0.0, 0.0)">
    <use height="38.6" transform="matrix(1.3028, 0.0, 0.0, 1.3027, 5.2394, 1.0051)" width="32.75" xlink:href="#sprite0"/>
    <use height="52.0" transform="matrix(1.0, 0.0, 0.0, 1.0, 0.1, 0.1)" width="52.0" xlink:href="#shape13"/>
  </g>
  <defs>
    <g id="sprite0" transform="matrix(1.0, 0.0, 0.0, 1.0, 18.2, 29.55)">
      <use height="41.1" transform="matrix(0.8283, 0.0, 0.0, 0.8959, -18.2085, -29.5612)" width="39.55" xlink:href="#sprite1"/>
      <use height="14.65" transform="matrix(1.0, 0.0, 0.0, 1.0, -16.7, -5.6)" width="29.3" xlink:href="#shape1"/>
      <use height="8.0" transform="matrix(1.0, 0.0, 0.0, 1.0, -16.05, -11.4)" width="8.2" xlink:href="#sprite2"/>
      <use height="5.0" transform="matrix(1.0, 0.0, 0.0, 1.0, 0.3, -3.65)" width="8.6" xlink:href="#sprite3"/>
      <use height="5.05" transform="matrix(1.0, 0.0, 0.0, 1.0, -9.3, 0.9)" width="8.55" xlink:href="#sprite4"/>
      <use height="20.45" transform="matrix(1.0, 0.0, 0.0, 1.0, -12.15, -18.2)" width="21.75" xlink:href="#sprite5"/>
      <use height="15.6" transform="matrix(1.0, 0.0, 0.0, 1.0, -7.6, -14.2)" width="17.4" xlink:href="#sprite6"/>
      <use height="15.75" transform="matrix(1.0, 0.0, 0.0, 1.0, -11.6, -24.0)" width="7.7" xlink:href="#sprite8"/>
      <use height="14.7" transform="matrix(1.0, 0.0, 0.0, 1.0, -2.6, -28.75)" width="8.35" xlink:href="#sprite9"/>
    </g>
    <g id="sprite1" transform="matrix(1.0, 0.0, 0.0, 1.0, 19.75, 20.55)">
      <use height="41.1" transform="matrix(1.0, 0.0, 0.0, 1.0, -19.75, -20.55)" width="39.55" xlink:href="#shape0"/>
    </g>
    <g id="shape0" transform="matrix(1.0, 0.0, 0.0, 1.0, 19.75, 20.55)">
      <path d="M19.8 -0.1 Q19.85 8.4 14.1 14.4 8.35 20.5 0.15 20.55 -8.05 20.55 -13.9 14.55 -19.7 8.6 -19.75 0.1 -19.8 -8.4 -14.0 -14.5 -8.25 -20.55 -0.05 -20.55 8.15 -20.6 14.0 -14.65 19.75 -8.6 19.8 -0.1" fill="url(#gradient0)" fill-rule="evenodd" stroke="none"/>
    </g>
    <radialGradient cx="0" cy="0" gradientTransform="matrix(0.0184, -1.0E-4, 1.0E-4, 0.0216, 0.05, 0.0)" gradientUnits="userSpaceOnUse" id="gradient0" r="819.2" spreadMethod="pad">
      <stop offset="0.0" stop-color="#e3faee"/>
      <stop offset="0.2235294117647059" stop-color="#aff0d0" stop-opacity="0.77254903"/>
      <stop offset="1.0" stop-color="#ffffff" stop-opacity="0.0"/>
    </radialGradient>
    <g id="shape1" transform="matrix(1.0, 0.0, 0.0, 1.0, 16.7, 5.6)">
      <path d="M-2.05 -5.6 Q4.0 -5.6 8.3 -3.45 12.6 -1.3 12.6 1.75 12.6 4.75 8.3 6.9 4.0 9.05 -2.05 9.05 -8.1 9.05 -12.4 6.9 -16.7 4.75 -16.7 1.75 -16.7 -1.3 -12.4 -3.45 -8.1 -5.6 -2.05 -5.6" fill="url(#gradient1)" fill-rule="evenodd" stroke="none"/>
    </g>
    <radialGradient cx="0" cy="0" gradientTransform="matrix(0.018, 0.0, 0.0, 0.009, -2.05, 1.75)" gradientUnits="userSpaceOnUse" id="gradient1" r="819.2" spreadMethod="pad">
      <stop offset="0.7058823529411765" stop-color="#000000" stop-opacity="0.3019608"/>
      <stop offset="1.0" stop-color="#000000" stop-opacity="0.0"/>
    </radialGradient>
    <g id="sprite2" transform="matrix(1.0, 0.0, 0.0, 1.0, 4.1, 4.0)">
      <use height="8.0" transform="matrix(1.0, 0.0, 0.0, 1.0, -4.1, -4.0)" width="8.2" xlink:href="#shape2"/>
    </g>
    <g id="shape2" transform="matrix(1.0, 0.0, 0.0, 1.0, 4.1, 4.0)">
      <path d="M2.85 -3.9 Q3.25 -2.75 3.3 -1.6 4.1 -0.65 4.1 0.6 4.1 1.45 3.7 2.2 3.65 1.65 3.25 1.35 L1.65 2.2 Q2.05 3.0 3.25 3.7 L2.55 3.45 Q1.7 4.0 0.7 4.0 L-0.55 3.75 -2.65 3.85 -2.55 3.2 -2.5 3.05 -1.5 2.6 -2.15 2.3 -2.35 2.2 Q-3.25 1.5 -4.1 -0.45 L-4.05 -0.5 Q-2.9 0.35 -1.95 0.1 -1.85 -0.55 -2.35 -1.5 L-2.1 -1.6 -1.75 -0.95 -1.1 -0.75 Q-1.95 -1.95 -1.75 -3.35 L-1.7 -3.45 -0.2 -2.7 -0.05 -2.6 -0.65 -1.5 0.7 -0.8 Q2.55 -1.65 2.85 -3.9 M3.3 -1.6 L3.25 -0.3 3.3 -1.6 M-0.2 3.45 L-0.55 3.75 -0.2 3.45 M2.55 3.45 Q1.8 3.15 1.15 2.65 1.8 3.15 2.55 3.45" fill="#abd1bd" fill-rule="evenodd" stroke="none"/>
      <path d="M-0.2 -2.7 L0.15 -2.8 Q1.05 -3.6 2.8 -4.0 L2.85 -3.9 Q2.55 -1.65 0.7 -0.8 L-0.65 -1.5 -0.05 -2.6 -0.2 -2.7 M3.7 2.2 Q3.85 2.8 3.45 3.75 L3.25 3.7 Q2.05 3.0 1.65 2.2 L3.25 1.35 Q3.65 1.65 3.7 2.2 M-2.2 2.35 L-2.35 2.2 -2.15 2.3 -2.2 2.35 M-4.05 -0.5 Q-3.2 -1.2 -2.35 -1.5 -1.85 -0.55 -1.95 0.1 -2.9 0.35 -4.05 -0.5 M0.15 -2.8 L-0.05 -2.6 0.15 -2.8" fill="#e7f5eb" fill-rule="evenodd" stroke="none"/>
      <path d="M-2.5 3.05 L-2.2 2.35 -2.15 2.3 -1.5 2.6 -2.5 3.05 M-2.1 -1.6 Q-2.2 -2.35 -1.75 -3.35 -1.95 -1.95 -1.1 -0.75 L-1.75 -0.95 -2.1 -1.6" fill="#97c6a9" fill-rule="evenodd" stroke="none"/>
      <path d="M-0.2 -2.7 L0.15 -2.8 Q1.05 -3.6 2.8 -4.0 L2.85 -3.9 Q3.25 -2.75 3.3 -1.6 4.1 -0.65 4.1 0.6 4.1 1.45 3.7 2.2 3.85 2.8 3.45 3.75 M3.25 3.7 L2.55 3.45 Q1.7 4.0 0.7 4.0 L-0.55 3.75 -2.65 3.85 -2.55 3.2 M-2.5 3.05 L-2.2 2.35 -2.35 2.2 Q-3.25 1.5 -4.1 -0.45 L-4.05 -0.5 Q-3.2 -1.2 -2.35 -1.5 L-2.1 -1.6 Q-2.2 -2.35 -1.75 -3.35 L-1.7 -3.45 -0.2 -2.7 -0.05 -2.6 0.15 -2.8 M-0.65 -1.5 L-0.05 -2.6 M-2.15 2.3 L-2.2 2.35 M-2.15 2.3 L-1.5 2.6 M-2.35 2.2 L-2.15 2.3 M-1.75 -0.95 L-2.1 -1.6 M3.25 -0.3 L3.3 -1.6 M3.7 2.2 Q3.65 1.65 3.25 1.35 M1.15 2.65 Q1.8 3.15 2.55 3.45 M-0.55 3.75 L-0.2 3.45" fill="none" stroke="#ffffff" stroke-linecap="round" stroke-linejoin="round" stroke-opacity="0.3019608" stroke-width="0.05"/>
    </g>
    <g id="sprite3" transform="matrix(1.0, 0.0, 0.0, 1.0, 4.3, 2.5)">
      <use height="5.0" transform="matrix(1.0, 0.0, 0.0, 1.0, -4.3, -2.5)" width="8.6" xlink:href="#shape3"/>
    </g>
    <g id="shape3" transform="matrix(1.0, 0.0, 0.0, 1.0, 4.3, 2.5)">
      <path d="M3.5 -1.3 L3.5 -1.15 1.65 0.8 Q-0.15 2.4 -2.0 1.5 -3.9 0.65 -4.3 -0.1 L-4.3 -0.15 Q-4.25 -0.7 -3.5 -1.25 -2.45 -2.05 -0.75 -2.35 L2.15 -2.3 Q3.25 -1.95 3.5 -1.3" fill="#5ae09c" fill-rule="evenodd" stroke="none"/>
      <path d="M3.5 -1.3 L3.65 -1.1 3.6 -0.75 1.75 1.25 Q-0.05 2.85 -1.95 1.95 -3.8 1.05 -4.2 0.35 L-4.3 -0.15 -4.3 -0.1 Q-3.9 0.65 -2.0 1.5 -0.15 2.4 1.65 0.8 L3.5 -1.15 3.5 -1.3" fill="#34a66c" fill-rule="evenodd" stroke="none"/>
      <path d="M-4.3 -0.15 L-4.2 0.35 Q-3.8 1.05 -1.95 1.95 -0.05 2.85 1.75 1.25 L3.6 -0.75 3.65 -1.1 3.5 -1.3 M-4.3 -0.15 Q-4.25 -0.7 -3.5 -1.25 -2.45 -2.05 -0.75 -2.35 L2.15 -2.3 Q3.25 -1.95 3.5 -1.3" fill="none" stroke="#ffffff" stroke-linecap="round" stroke-linejoin="round" stroke-opacity="0.3019608" stroke-width="0.05"/>
      <path d="M-1.3 1.35 Q-1.25 0.65 -0.6 0.05 L-0.35 -0.2 1.4 -1.3 2.0 -1.55 3.3 -1.7 Q3.8 -1.55 4.1 -1.2 L3.5 -0.4 Q3.0 -1.3 2.0 -1.55 3.0 -1.3 3.5 -0.4 2.6 0.7 1.35 1.2 L-1.3 1.35 M-0.35 -0.2 Q0.9 0.05 1.35 1.2 0.9 0.05 -0.35 -0.2" fill="#abd1bd" fill-rule="evenodd" stroke="none"/>
      <path d="M4.1 -1.2 L4.2 -0.9 Q4.45 -0.25 4.15 0.75 L4.0 1.1 3.9 1.25 Q3.25 1.9 1.65 2.3 L1.35 2.35 Q-1.15 2.85 -1.35 1.85 L-1.3 1.35 1.35 1.2 1.65 2.3 1.35 1.2 Q2.6 0.7 3.5 -0.4 3.9 0.2 4.0 1.1 3.9 0.2 3.5 -0.4 L4.1 -1.2" fill="#589e74" fill-rule="evenodd" stroke="none"/>
      <path d="M-1.3 1.35 Q-1.25 0.65 -0.6 0.05 L-0.35 -0.2 1.4 -1.3 2.0 -1.55 3.3 -1.7 Q3.8 -1.55 4.1 -1.2 L4.2 -0.9 Q4.45 -0.25 4.15 0.75 L4.0 1.1 3.9 1.25 Q3.25 1.9 1.65 2.3 L1.35 2.35 Q-1.15 2.85 -1.35 1.85 L-1.3 1.35 M1.35 1.2 Q0.9 0.05 -0.35 -0.2 M1.35 1.2 L1.65 2.3 M3.5 -0.4 Q3.9 0.2 4.0 1.1 M3.5 -0.4 Q3.0 -1.3 2.0 -1.55" fill="none" stroke="#ffffff" stroke-linecap="round" stroke-linejoin="round" stroke-opacity="0.3019608" stroke-width="0.05"/>
    </g>
    <g id="sprite4" transform="matrix(1.0, 0.0, 0.0, 1.0, 4.25, 2.5)">
      <use height="5.05" transform="matrix(1.0, 0.0, 0.0, 1.0, -4.25, -2.5)" width="8.55" xlink:href="#shape4"/>
    </g>
    <g id="shape4" transform="matrix(1.0, 0.0, 0.0, 1.0, 4.25, 2.5)">
      <path d="M3.7 -0.6 L3.65 -0.5 1.5 1.05 Q-0.55 2.35 -2.3 1.1 -3.95 -0.1 -4.2 -0.9 L-4.2 -0.95 -3.25 -1.9 Q-2.05 -2.5 -0.3 -2.5 1.4 -2.5 2.5 -1.85 3.5 -1.35 3.7 -0.6" fill="#5ae09c" fill-rule="evenodd" stroke="none"/>
      <path d="M-4.2 -0.95 L-4.2 -0.9 Q-3.95 -0.1 -2.3 1.1 -0.55 2.35 1.5 1.05 L3.65 -0.5 3.7 -0.6 3.7 -0.35 3.65 -0.05 1.5 1.5 Q-0.55 2.8 -2.3 1.55 -3.95 0.35 -4.2 -0.45 L-4.2 -0.95" fill="#34a66c" fill-rule="evenodd" stroke="none"/>
      <path d="M-4.2 -0.95 L-4.2 -0.45 Q-3.95 0.35 -2.3 1.55 -0.55 2.8 1.5 1.5 L3.65 -0.05 3.7 -0.35 3.7 -0.6 Q3.5 -1.35 2.5 -1.85 1.4 -2.5 -0.3 -2.5 -2.05 -2.5 -3.25 -1.9 L-4.2 -0.95 Z" fill="none" stroke="#ffffff" stroke-linecap="round" stroke-linejoin="round" stroke-opacity="0.3019608" stroke-width="0.05"/>
      <path d="M-1.55 1.1 Q-1.35 0.4 -0.6 -0.05 L-0.35 -0.25 1.6 -1.0 2.25 -1.15 3.55 -1.05 4.2 -0.45 3.55 0.25 Q2.4 1.15 1.1 1.45 L-1.55 1.1 M2.25 -1.15 Q3.2 -0.7 3.55 0.25 3.2 -0.7 2.25 -1.15 M-0.35 -0.25 Q0.85 0.2 1.1 1.45 0.85 0.2 -0.35 -0.25" fill="#abd1bd" fill-rule="evenodd" stroke="none"/>
      <path d="M4.2 -0.45 L4.3 -0.1 Q4.4 0.55 3.9 1.5 L3.7 1.8 3.6 1.95 Q2.85 2.45 1.2 2.55 L0.9 2.55 Q-1.65 2.6 -1.65 1.55 L-1.55 1.1 1.1 1.45 1.2 2.55 1.1 1.45 Q2.4 1.15 3.55 0.25 L4.2 -0.45 M3.7 1.8 L3.55 0.25 3.7 1.8" fill="#589e74" fill-rule="evenodd" stroke="none"/>
      <path d="M4.2 -0.45 L4.3 -0.1 Q4.4 0.55 3.9 1.5 L3.7 1.8 3.6 1.95 Q2.85 2.45 1.2 2.55 L0.9 2.55 Q-1.65 2.6 -1.65 1.55 L-1.55 1.1 Q-1.35 0.4 -0.6 -0.05 L-0.35 -0.25 1.6 -1.0 2.25 -1.15 3.55 -1.05 4.2 -0.45 M3.55 0.25 L3.7 1.8 M1.1 1.45 L1.2 2.55 M3.55 0.25 Q3.2 -0.7 2.25 -1.15 M1.1 1.45 Q0.85 0.2 -0.35 -0.25" fill="none" stroke="#ffffff" stroke-linecap="round" stroke-linejoin="round" stroke-opacity="0.3019608" stroke-width="0.05"/>
    </g>
    <g id="sprite5" transform="matrix(1.0, 0.0, 0.0, 1.0, 10.8, 10.3)">
      <use height="20.45" transform="matrix(1.0, 0.0, 0.0, 1.0, -10.8, -10.3)" width="21.75" xlink:href="#shape5"/>
    </g>
    <g id="shape5" transform="matrix(1.0, 0.0, 0.0, 1.0, 10.8, 10.3)">
      <path d="M-7.45 -8.25 L-5.2 -9.35 Q-2.0 -10.55 1.45 -10.25 4.05 -9.95 6.05 -8.25 7.35 -6.95 8.25 -5.0 10.5 -0.25 10.9 1.3 9.4 2.25 3.25 3.8 -2.85 5.3 -5.0 4.0 -7.15 2.65 -7.45 -8.25" fill="#9dedc5" fill-rule="evenodd" stroke="none"/>
      <path d="M10.9 1.3 Q11.3 4.95 8.8 7.1 6.25 9.1 1.05 9.9 -4.25 10.75 -7.6 8.6 -10.95 6.55 -10.8 3.05 -10.75 -0.45 -10.15 -3.85 -9.6 -7.1 -7.45 -8.25 -7.15 2.65 -5.0 4.0 -2.85 5.3 3.25 3.8 9.4 2.25 10.9 1.3" fill="#97c6a9" fill-rule="evenodd" stroke="none"/>
      <path d="M10.9 1.3 Q11.3 4.95 8.8 7.1 6.25 9.1 1.05 9.9 -4.25 10.75 -7.6 8.6 -10.95 6.55 -10.8 3.05 -10.75 -0.45 -10.15 -3.85 -9.6 -7.1 -7.45 -8.25 L-5.2 -9.35 Q-2.0 -10.55 1.45 -10.25 4.05 -9.95 6.05 -8.25 7.35 -6.95 8.25 -5.0 10.5 -0.25 10.9 1.3 Z" fill="none" stroke="#589e74" stroke-linecap="round" stroke-linejoin="round" stroke-opacity="0.52156866" stroke-width="0.05"/>
      <path d="M-4.15 -7.5 Q-5.45 -9.0 -4.75 -9.25 L-2.0 -10.1 Q0.1 -10.6 1.3 -9.0 L2.25 -7.5 Q-2.95 -6.05 -4.15 -7.5" fill="#e7f5eb" fill-rule="evenodd" stroke="none"/>
    </g>
    <g id="sprite6" transform="matrix(1.0, 0.0, 0.0, 1.0, 9.35, 7.9)">
      <use height="9.5" transform="matrix(1.0, 0.0, 0.0, 1.0, -6.1, -5.9)" width="12.4" xlink:href="#shape6"/>
      <use height="4.3" transform="matrix(-1.4365, 0.4238, 0.4289, 2.2497, 6.1836, -7.9173)" width="3.9" xlink:href="#sprite7"/>
      <use height="11.9" transform="matrix(1.0, 0.0, 0.0, 1.0, -6.55, -7.7)" width="12.15" xlink:href="#shape8"/>
      <use height="4.3" transform="matrix(-2.4756, 1.1532, 0.8087, 2.2077, 0.2888, -6.6118)" width="3.9" xlink:href="#sprite7"/>
      <use height="10.0" transform="matrix(0.5324, 0.1261, 0.0655, -0.5148, -4.1003, 2.8797)" width="8.05" xlink:href="#shape9"/>
      <use height="10.0" transform="matrix(0.402, 0.0952, 0.0655, -0.5148, 1.9343, 0.7063)" width="8.05" xlink:href="#shape9"/>
      <use height="6.6" transform="matrix(1.0, 0.0, 0.0, 1.0, -1.55, 1.1)" width="8.5" xlink:href="#shape10"/>
    </g>
    <g id="shape6" transform="matrix(1.0, 0.0, 0.0, 1.0, 6.1, 5.9)">
      <path d="M3.85 1.65 Q1.85 3.15 -0.7 3.5 -3.2 3.85 -4.85 2.85 -6.4 1.85 -6.05 0.0 -5.7 -1.8 -3.65 -3.35 -1.55 -4.85 0.95 -5.2 3.5 -5.55 5.05 -4.55 6.6 -3.5 6.25 -1.7 5.9 0.15 3.85 1.65" fill="#f7b1d4" fill-opacity="0.2" fill-rule="evenodd" stroke="none"/>
      <path d="M3.3 0.6 Q1.9 1.7 0.1 1.95 -1.65 2.15 -2.7 1.45 -3.8 0.75 -3.55 -0.55 -3.3 -1.8 -1.9 -2.85 -0.5 -3.9 1.25 -4.1 3.05 -4.35 4.1 -3.7 5.25 -2.95 5.0 -1.7 4.75 -0.4 3.3 0.6" fill="#f7b1d4" fill-opacity="0.2" fill-rule="evenodd" stroke="none"/>
      <path d="M5.9 -0.1 Q5.45 1.05 4.6 1.2 3.8 1.3 3.1 0.35 2.35 -0.55 2.2 -2.05 2.0 -3.5 2.5 -4.65 2.95 -5.8 3.75 -5.9 4.6 -6.05 5.3 -5.1 6.0 -4.15 6.2 -2.7 6.35 -1.2 5.9 -0.1" fill="#7cb693" fill-rule="evenodd" stroke="none"/>
    </g>
    <g id="sprite7" transform="matrix(1.0, 0.0, 0.0, 1.0, 2.55, 2.75)">
      <use height="4.3" transform="matrix(1.0, 0.0, 0.0, 1.0, -2.55, -2.75)" width="3.9" xlink:href="#shape7"/>
    </g>
    <g id="shape7" transform="matrix(1.0, 0.0, 0.0, 1.0, 2.55, 2.75)">
      <path d="M0.45 -1.15 L0.55 -0.05 -0.1 0.75 -0.95 0.7 -1.7 0.0 Q-1.9 -0.55 -1.75 -1.05 L-1.15 -1.85 -0.25 -1.9 0.45 -1.15" fill="url(#gradient2)" fill-rule="evenodd" stroke="none"/>
      <path d="M0.45 -1.15 L-0.25 -1.9 -1.15 -1.85 -1.75 -1.05 Q-1.9 -0.55 -1.7 0.0 L-0.95 0.7 -0.1 0.75 0.55 -0.05 0.45 -1.15 Z" fill="none" stroke="#000000" stroke-linecap="round" stroke-linejoin="round" stroke-opacity="0.3019608" stroke-width="1.5"/>
    </g>
    <radialGradient cx="0" cy="0" gradientTransform="matrix(-0.0011, -0.0011, -9.0E-4, 0.0013, -0.6, -0.55)" gradientUnits="userSpaceOnUse" id="gradient2" r="819.2" spreadMethod="pad">
      <stop offset="0.2823529411764706" stop-color="#ffffff"/>
      <stop offset="0.6588235294117647" stop-color="#fbf1bf"/>
      <stop offset="1.0" stop-color="#d8ca7c"/>
    </radialGradient>
    <g id="shape8" transform="matrix(1.0, 0.0, 0.0, 1.0, 6.55, 7.7)">
      <path d="M-1.45 3.2 L-0.6 2.85 M-2.9 4.15 Q1.9 2.25 5.6 1.5 M-0.05 2.65 L2.55 1.85 M3.6 1.6 L4.25 1.45" fill="none" stroke="#ffffff" stroke-linecap="round" stroke-linejoin="round" stroke-opacity="0.3019608" stroke-width="0.05"/>
      <path d="M1.5 -5.65 Q1.7 -8.15 3.05 -7.6" fill="none" stroke="#ffffff" stroke-linecap="round" stroke-linejoin="round" stroke-opacity="0.3019608" stroke-width="0.05"/>
      <path d="M0.0 2.0 Q-0.75 3.4 -2.15 3.95 L-4.9 3.85 Q-6.1 3.15 -6.45 1.65 -6.8 0.2 -6.05 -1.2 -5.25 -2.65 -3.8 -3.2 L-1.15 -3.05 Q0.05 -2.4 0.4 -0.95 0.75 0.55 0.0 2.0" fill="#7cb693" fill-rule="evenodd" stroke="none"/>
    </g>
    <g id="shape9" transform="matrix(1.0, 0.0, 0.0, 1.0, 4.1, 4.85)">
      <path d="M2.3 -2.85 Q3.2 -1.6 3.2 0.15 3.2 1.9 2.3 3.15 1.45 4.4 0.2 4.4 -1.05 4.4 -1.95 3.15 -2.8 1.9 -2.8 0.15 -2.8 -1.6 -1.95 -2.85 -1.05 -4.1 0.2 -4.1 1.45 -4.1 2.3 -2.85" fill="#a6ffb2" fill-rule="evenodd" stroke="none"/>
      <path d="M2.3 -2.85 Q3.2 -1.6 3.2 0.15 3.2 1.9 2.3 3.15 1.45 4.4 0.2 4.4 -1.05 4.4 -1.95 3.15 -2.8 1.9 -2.8 0.15 -2.8 -1.6 -1.95 -2.85 -1.05 -4.1 0.2 -4.1 1.45 -4.1 2.3 -2.85 Z" fill="none" stroke="#589e74" stroke-linecap="round" stroke-linejoin="round" stroke-width="1.5"/>
      <path d="M-1.0 3.1 Q-1.5 3.65 -2.3 3.65 -3.05 3.65 -3.55 3.1 -4.1 2.6 -4.1 1.85 -4.1 1.15 -3.55 0.65 -3.05 0.1 -2.3 0.1 -1.5 0.1 -1.0 0.65 -0.5 1.15 -0.5 1.85 -0.5 2.6 -1.0 3.1" fill="#ffffff" fill-rule="evenodd" stroke="none"/>
    </g>
    <g id="shape10" transform="matrix(1.0, 0.0, 0.0, 1.0, 1.55, -1.1)">
      <path d="M6.05 3.65 L3.75 4.6 4.35 5.75 3.25 4.3 5.75 3.25 6.05 3.65" fill="#ac9c46" fill-rule="evenodd" stroke="none"/>
      <path d="M4.35 5.75 L3.75 4.6 6.05 3.65 6.95 5.25 6.25 6.0 5.65 5.25 6.0 6.15 4.95 6.5 4.35 5.75" fill="#ffffff" fill-rule="evenodd" stroke="none"/>
      <path d="M4.35 5.75 L4.95 6.5 6.0 6.15 5.65 5.25 6.25 6.0 6.95 5.25 6.05 3.65 5.75 3.25 3.25 4.3 4.35 5.75 Z" fill="none" stroke="#ffffff" stroke-linecap="round" stroke-linejoin="round" stroke-opacity="0.3019608" stroke-width="0.05"/>
      <path d="M2.2 6.05 L2.15 5.25 -0.35 5.5 Q-0.75 6.05 -0.6 6.55 -0.8 5.9 -0.6 5.05 L-0.4 4.95 -0.15 5.0 -0.05 5.0 2.35 4.85 2.2 6.05" fill="#97853e" fill-rule="evenodd" stroke="none"/>
      <path d="M-0.6 6.55 Q-0.75 6.05 -0.35 5.5 L2.15 5.25 2.2 6.05 1.95 6.9 Q1.0 7.8 -0.05 7.7 L-0.35 7.3 -0.6 6.55" fill="#fbf1bf" fill-rule="evenodd" stroke="none"/>
      <path d="M-0.6 6.55 L-0.35 7.3 -0.05 7.7 Q1.0 7.8 1.95 6.9 L2.2 6.05 2.35 4.85 M-0.4 4.95 L-0.6 5.05 Q-0.8 5.9 -0.6 6.55 Z" fill="none" stroke="#ffffff" stroke-linecap="round" stroke-linejoin="round" stroke-opacity="0.3019608" stroke-width="0.05"/>
      <path d="M-1.55 4.7 Q-1.0 4.95 0.3 3.05 1.6 1.1 3.35 1.1 L6.15 1.6 Q7.25 2.05 6.4 2.85 L5.75 3.25 2.85 4.55 2.8 4.6 -0.6 5.05 -0.8 5.0 -1.55 4.7" fill="#9dedc5" fill-rule="evenodd" stroke="none"/>
      <path d="M-1.55 4.7 L-0.8 5.0 -0.6 5.05 2.8 4.6 2.85 4.55 5.75 3.25 6.4 2.85 Q7.25 2.05 6.15 1.6 L3.35 1.1" fill="none" stroke="#589e74" stroke-linecap="round" stroke-linejoin="round" stroke-opacity="0.52156866" stroke-width="0.05"/>
      <path d="M2.25 1.55 Q2.55 1.2 3.3 1.35 L5.4 1.7 Q6.7 1.95 6.0 2.4 L4.35 3.25 2.4 3.9 Q1.35 4.2 1.75 3.55 2.15 2.85 2.05 2.4 1.95 1.85 2.25 1.55" fill="#dbf0e2" fill-rule="evenodd" stroke="none"/>
    </g>
    <g id="sprite8" transform="matrix(1.0, 0.0, 0.0, 1.0, 3.85, 7.85)">
      <use height="15.75" transform="matrix(1.0, 0.0, 0.0, 1.0, -3.85, -7.85)" width="7.7" xlink:href="#shape11"/>
    </g>
    <g id="shape11" transform="matrix(1.0, 0.0, 0.0, 1.0, 3.85, 7.85)">
      <path d="M-1.4 -5.4 Q-1.0 -6.2 -0.3 -5.7 L0.45 -4.55 Q2.55 -1.65 3.4 3.3 4.7 6.2 2.05 6.85 0.3 7.2 -0.45 7.7 L-0.55 7.75 -0.6 7.7 -1.25 6.3 Q-1.7 4.05 -1.85 0.65 L-1.4 -5.4" fill="#9dedc5" fill-rule="evenodd" stroke="none"/>
      <path d="M-0.6 7.7 Q-3.55 8.25 -3.65 7.35 -3.4 3.5 -2.75 -0.2 L-2.05 -3.7 Q-1.85 -4.85 -1.4 -5.4 L-1.85 0.65 Q-1.7 4.05 -1.25 6.3 L-0.6 7.7" fill="#97c6a9" fill-rule="evenodd" stroke="none"/>
      <path d="M-1.4 -5.4 Q-1.0 -6.2 -0.3 -5.7 L0.45 -4.55 Q2.55 -1.65 3.4 3.3 M-3.65 7.35 Q-3.4 3.5 -2.75 -0.2 L-2.05 -3.7 Q-1.85 -4.85 -1.4 -5.4 Z" fill="none" stroke="#ffffff" stroke-linecap="round" stroke-linejoin="round" stroke-opacity="0.3019608" stroke-width="0.05"/>
      <path d="M0.5 -4.35 L-0.6 -4.05 Q-0.9 -3.0 -1.75 -1.15 L-2.7 -0.6 Q-2.85 -1.85 -2.3 -3.2 -2.85 -4.45 -3.75 -4.65 -3.05 -5.65 -2.7 -5.6 L-2.35 -5.15 -2.7 -5.6 -3.85 -7.05 -1.95 -5.95 -1.65 -7.85 Q-0.25 -6.7 0.4 -4.6 L0.5 -4.35 M-1.45 -5.7 L-1.95 -5.95 -1.45 -5.7" fill="#9dedc5" fill-rule="evenodd" stroke="none"/>
      <path d="M0.5 -4.35 L0.4 -4.6 Q-0.25 -6.7 -1.65 -7.85 L-1.95 -5.95 -1.45 -5.7 M-2.7 -5.6 Q-3.05 -5.65 -3.75 -4.65 -2.85 -4.45 -2.3 -3.2 -2.85 -1.85 -2.7 -0.6 M-2.7 -5.6 L-2.35 -5.15 M-1.95 -5.95 L-3.85 -7.05 -2.7 -5.6" fill="none" stroke="#ffffff" stroke-linecap="round" stroke-linejoin="round" stroke-opacity="0.3019608" stroke-width="0.05"/>
      <path d="M0.35 -4.05 L-1.4 -5.15 -3.6 -6.9 -1.25 -5.45 Q-1.15 -6.4 -1.55 -7.65 L-0.7 -6.75 -0.05 -5.25 0.35 -4.05" fill="#e7f5eb" fill-rule="evenodd" stroke="none"/>
      <path d="M2.65 1.0 L3.35 3.85 Q3.1 4.45 1.95 4.8 0.05 -4.0 -0.45 -5.3 1.8 -2.2 2.65 1.0" fill="#e7f5eb" fill-rule="evenodd" stroke="none"/>
      <path d="M2.65 1.0 L3.35 3.85 Q3.1 4.45 1.95 4.8 0.05 -4.0 -0.45 -5.3 1.8 -2.2 2.65 1.0 Z" fill="none" stroke="#ffffff" stroke-linecap="round" stroke-linejoin="round" stroke-opacity="0.3019608" stroke-width="0.05"/>
      <path d="M-0.6 5.05 L-0.95 1.5 -1.05 -2.0 Q-0.9 -3.35 -0.35 -3.35 0.2 -3.35 0.8 -2.0 L1.75 1.25 2.35 4.5 Q1.15 5.7 -0.6 5.05" fill="#97c6a9" fill-rule="evenodd" stroke="none"/>
      <path d="M-0.6 5.05 L-0.95 1.5 -1.05 -2.0 Q-0.9 -3.35 -0.35 -3.35 0.2 -3.35 0.8 -2.0 L1.75 1.25 2.35 4.5" fill="none" stroke="#ffffff" stroke-linecap="round" stroke-linejoin="round" stroke-opacity="0.3019608" stroke-width="0.05"/>
      <path d="M-0.55 5.1 L-0.85 2.2 -0.9 -0.65 Q-0.8 -1.7 -0.35 -1.7 0.1 -1.7 0.6 -0.65 1.1 0.45 1.4 2.0 L1.9 4.8 Q0.9 5.65 -0.55 5.1" fill="#0d1515" fill-rule="evenodd" stroke="none"/>
      <path d="M-0.55 5.1 L-0.85 2.2 -0.9 -0.65 Q-0.8 -1.7 -0.35 -1.7 0.1 -1.7 0.6 -0.65 1.1 0.45 1.4 2.0 L1.9 4.8 Q0.9 5.65 -0.55 5.1 Z" fill="none" stroke="#ffffff" stroke-linecap="round" stroke-linejoin="round" stroke-opacity="0.3019608" stroke-width="0.05"/>
      <path d="M-0.55 5.05 L-0.75 3.3 -0.8 1.55 -0.5 0.8 -0.05 1.3 0.5 2.95 1.25 5.05 Q0.3 5.5 -0.55 5.05" fill="#000000" fill-rule="evenodd" stroke="none"/>
      <path d="M-0.55 5.05 L-0.75 3.3 -0.8 1.55 -0.5 0.8 -0.05 1.3 0.5 2.95 1.25 5.05" fill="none" stroke="#ffffff" stroke-linecap="round" stroke-linejoin="round" stroke-opacity="0.3019608" stroke-width="0.05"/>
    </g>
    <g id="sprite9" transform="matrix(1.0, 0.0, 0.0, 1.0, 4.15, 7.35)">
      <use height="14.7" transform="matrix(1.0, 0.0, 0.0, 1.0, -4.15, -7.35)" width="8.35" xlink:href="#shape12"/>
    </g>
    <g id="shape12" transform="matrix(1.0, 0.0, 0.0, 1.0, 4.15, 7.35)">
      <path d="M-2.35 -4.8 L-1.9 -5.35 Q-1.65 -5.5 -0.95 -5.1 L-0.15 -4.3 0.15 -3.85 Q2.95 0.4 4.2 6.9 3.9 8.0 -0.95 6.45 -1.95 1.0 -2.05 -2.2 L-2.35 -4.8" fill="#9dedc5" fill-rule="evenodd" stroke="none"/>
      <path d="M-3.4 4.0 L-2.75 -1.35 -2.55 -3.85 -2.35 -4.8 -2.05 -2.2 Q-1.95 1.0 -0.95 6.45 -1.75 4.5 -3.4 4.0" fill="#97c6a9" fill-rule="evenodd" stroke="none"/>
      <path d="M-3.4 4.0 L-2.75 -1.35 -2.55 -3.85 -2.35 -4.8 -1.9 -5.35 Q-1.65 -5.5 -0.95 -5.1 L-0.15 -4.3 0.15 -3.85 Q2.95 0.4 4.2 6.9" fill="none" stroke="#ffffff" stroke-linecap="round" stroke-linejoin="round" stroke-opacity="0.3019608" stroke-width="0.05"/>
      <path d="M-2.25 -5.45 L-1.95 -7.35 Q-0.55 -6.2 0.1 -4.1 L0.2 -3.9 -0.5 -3.65 -0.95 -3.5 -2.05 -0.65 -3.0 -0.1 Q-3.15 -1.35 -2.6 -2.7 -3.15 -3.95 -4.05 -4.15 -3.35 -5.15 -3.0 -5.15 L-2.65 -4.7 -3.0 -5.15 -4.15 -6.55 -2.25 -5.45 -1.75 -5.2 -2.25 -5.45 M0.2 -3.85 L0.2 -3.9 0.2 -3.85" fill="#9dedc5" fill-rule="evenodd" stroke="none"/>
      <path d="M0.2 -3.9 L0.1 -4.1 Q-0.55 -6.2 -1.95 -7.35 L-2.25 -5.45 -1.75 -5.2 M0.2 -3.85 L0.2 -3.9 M-3.0 -5.15 Q-3.35 -5.15 -4.05 -4.15 -3.15 -3.95 -2.6 -2.7 -3.15 -1.35 -3.0 -0.1 M-3.0 -5.15 L-2.65 -4.7 M-2.25 -5.45 L-4.15 -6.55 -3.0 -5.15" fill="none" stroke="#ffffff" stroke-linecap="round" stroke-linejoin="round" stroke-opacity="0.3019608" stroke-width="0.05"/>
      <path d="M-1.6 -5.1 Q-1.5 -6.0 -1.95 -7.3 L-1.05 -6.35 -0.4 -4.9 0.0 -3.65 -1.8 -4.75 -4.0 -6.5 -1.6 -5.1" fill="#e7f5eb" fill-rule="evenodd" stroke="none"/>
      <path d="M3.45 5.35 L2.65 5.75 Q2.2 2.45 -0.9 -4.6 L-0.05 -3.75 Q1.9 -0.35 2.75 2.55 L3.45 5.35" fill="#e7f5eb" fill-rule="evenodd" stroke="none"/>
      <path d="M3.45 5.35 L2.75 2.55 Q1.9 -0.35 -0.05 -3.75 L-0.9 -4.6 Q2.2 2.45 2.65 5.75 L3.45 5.35 Z" fill="none" stroke="#ffffff" stroke-linecap="round" stroke-linejoin="round" stroke-opacity="0.3019608" stroke-width="0.05"/>
      <path d="M-0.25 6.25 L-0.6 2.7 -0.7 -0.8 Q-0.55 -2.15 0.0 -2.15 0.55 -2.15 1.15 -0.8 L2.1 2.45 2.7 5.7 Q1.5 6.9 -0.25 6.25" fill="#97c6a9" fill-rule="evenodd" stroke="none"/>
      <path d="M-0.25 6.25 L-0.6 2.7 -0.7 -0.8 Q-0.55 -2.15 0.0 -2.15 0.55 -2.15 1.15 -0.8 L2.1 2.45 2.7 5.7" fill="none" stroke="#ffffff" stroke-linecap="round" stroke-linejoin="round" stroke-opacity="0.3019608" stroke-width="0.05"/>
      <path d="M-0.2 6.3 L-0.5 3.4 -0.55 0.55 Q-0.45 -0.5 0.0 -0.5 0.45 -0.5 0.95 0.55 1.45 1.65 1.75 3.2 L2.25 6.0 Q1.25 6.85 -0.2 6.3" fill="#0d1515" fill-rule="evenodd" stroke="none"/>
      <path d="M-0.2 6.3 L-0.5 3.4 -0.55 0.55 Q-0.45 -0.5 0.0 -0.5 0.45 -0.5 0.95 0.55 1.45 1.65 1.75 3.2 L2.25 6.0 Q1.25 6.85 -0.2 6.3 Z" fill="none" stroke="#ffffff" stroke-linecap="round" stroke-linejoin="round" stroke-opacity="0.3019608" stroke-width="0.05"/>
      <path d="M-0.2 6.25 L-0.4 4.5 -0.45 2.75 -0.15 2.0 0.3 2.5 0.85 4.15 1.6 6.25 Q0.65 6.7 -0.2 6.25" fill="#000000" fill-rule="evenodd" stroke="none"/>
      <path d="M-0.2 6.25 L-0.4 4.5 -0.45 2.75 -0.15 2.0 0.3 2.5 0.85 4.15 1.6 6.25" fill="none" stroke="#ffffff" stroke-linecap="round" stroke-linejoin="round" stroke-opacity="0.3019608" stroke-width="0.05"/>
    </g>
    <g id="shape13" transform="matrix(1.0, 0.0, 0.0, 1.0, -0.1, -0.1)">
      <path d="M0.1 52.1 L0.1 0.1 52.1 0.1 52.1 52.1 0.1 52.1" fill="#33cc33" fill-opacity="0.0" fill-rule="evenodd" stroke="none"/>
    </g>
  </defs>
</svg>
