<?xml version="1.0" encoding="UTF-8" standalone="no"?>
<svg xmlns:xlink="http://www.w3.org/1999/xlink" height="520.0px" width="520.0px" xmlns="http://www.w3.org/2000/svg">
  <g transform="matrix(10.0, 0.0, 0.0, 10.0, 0.0, 0.0)">
    <use height="52.0" transform="matrix(1.0, 0.0, 0.0, 1.0, 0.0, 0.0)" width="52.0" xlink:href="#shape0"/>
    <use height="52.6" transform="matrix(0.95, 0.0, -0.0346, 0.95, 3.619, 0.93)" width="50.0" xlink:href="#sprite0"/>
  </g>
  <defs>
    <g id="shape0" transform="matrix(1.0, 0.0, 0.0, 1.0, 0.0, 0.0)">
      <path d="M52.0 0.0 L52.0 52.0 0.0 52.0 0.0 0.0 52.0 0.0" fill="#33cc33" fill-opacity="0.0" fill-rule="evenodd" stroke="none"/>
    </g>
    <g id="sprite0" transform="matrix(1.0, 0.0, 0.0, 1.0, -7.5, -7.4)">
      <clipPath id="clipPath0" transform="matrix(1.0, 0.0, 0.0, 1.0, -7.5, -7.4)">
        <use height="52.6" transform="matrix(1.0, 0.0, 0.0, 1.0, 7.5, 7.4)" width="50.0" xlink:href="#shape1"/>
      </clipPath>
      <g clip-path="url(#clipPath0)">
        <use height="51.6" transform="matrix(1.0, 0.0, 0.0, 1.0, 8.8, 8.05)" width="46.65" xlink:href="#shape2"/>
        <use height="141.85" transform="matrix(0.0648, -0.002, 0.0052, 0.0993, 9.0, 29.95)" width="148.25" xlink:href="#sprite1"/>
        <use height="50.6" transform="matrix(1.0, 0.0, 0.0, 1.0, 9.3, 8.55)" width="45.65" xlink:href="#shape4"/>
        <use height="141.85" transform="matrix(0.0856, 0.0329, -0.0129, 0.0635, 32.4, 40.85)" width="148.25" xlink:href="#sprite1"/>
        <use height="141.85" transform="matrix(0.0648, -0.002, 0.0052, 0.0993, 17.1, 37.35)" width="148.25" xlink:href="#sprite1"/>
        <use height="141.85" transform="matrix(0.0477, -0.0015, -0.0068, 0.0666, 21.15, 29.45)" width="148.25" xlink:href="#sprite1"/>
        <use height="141.85" transform="matrix(0.0496, -0.0016, 0.0033, 0.0617, 9.65, 41.75)" width="148.25" xlink:href="#sprite1"/>
        <use height="141.85" transform="matrix(0.0579, 0.0368, -0.0167, 0.0455, 32.2, 36.05)" width="148.25" xlink:href="#sprite1"/>
        <use height="141.85" transform="matrix(0.055, 0.0349, -0.0246, 0.067, 43.8, 39.65)" width="148.25" xlink:href="#sprite1"/>
      </g>
    </g>
    <g id="shape1" transform="matrix(1.0, 0.0, 0.0, 1.0, -7.5, -7.4)">
      <path d="M57.5 8.7 L57.5 58.7 25.25 60.0 7.5 58.7 7.5 8.7 44.45 7.4 57.5 8.7" fill="#000000" fill-opacity="0.3019608" fill-rule="evenodd" stroke="none"/>
    </g>
    <g id="shape2" transform="matrix(1.0, 0.0, 0.0, 1.0, -8.8, -8.05)">
      <path d="M43.8 9.1 Q47.25 13.5 49.9 19.55 52.8 18.9 54.95 16.1 54.85 31.0 47.05 34.65 45.8 35.15 44.85 36.0 43.15 37.25 42.15 39.25 41.55 40.45 41.25 41.95 L41.25 42.0 41.55 42.65 41.9 43.25 42.3 43.8 42.3 43.85 43.65 45.1 43.75 45.15 Q46.7 44.75 47.9 42.25 L47.95 41.95 48.0 42.0 48.0 41.95 48.35 42.65 Q50.15 46.6 48.25 49.65 46.25 51.8 44.1 51.5 L43.75 51.45 42.5 50.95 41.75 50.4 41.85 51.55 41.8 52.15 Q41.6 53.35 40.1 52.35 38.25 49.85 36.8 49.65 L32.6 48.9 29.8 48.6 27.2 48.4 26.4 48.4 25.2 48.4 25.15 48.7 24.85 50.55 Q24.3 53.9 23.9 59.15 21.85 57.3 20.4 55.2 L20.3 55.0 18.25 50.9 17.8 49.4 16.4 49.8 16.05 49.95 16.0 49.95 15.9 50.0 Q15.5 50.35 15.6 51.15 L15.85 52.0 Q16.0 52.75 15.75 53.2 15.4 53.65 14.45 53.7 L14.25 53.7 13.6 53.45 13.05 53.0 Q12.45 52.4 12.1 51.2 L12.1 51.15 12.05 50.9 12.05 50.25 11.55 49.75 10.4 48.15 Q9.35 45.9 9.3 44.4 9.25 43.65 9.45 43.1 L9.5 43.15 9.5 43.1 10.15 44.15 10.7 44.75 10.65 44.6 10.5 43.35 10.6 42.4 Q10.75 41.65 11.15 41.0 L11.1 40.85 10.9 40.45 10.5 39.25 10.2 37.05 10.45 34.75 10.6 33.85 11.45 31.5 14.7 25.6 15.55 24.2 Q17.45 20.05 14.0 14.65 L13.85 14.35 14.05 14.65 Q18.0 15.8 21.5 18.45 24.15 16.45 25.85 13.4 L25.9 13.5 25.9 13.4 26.2 15.05 26.35 16.55 26.35 18.6 26.25 20.3 25.95 21.9 Q24.85 26.65 21.05 30.4 18.0 33.1 17.05 36.15 L16.65 38.0 17.15 37.85 18.1 37.6 18.65 36.15 18.7 36.1 18.75 36.0 18.75 35.95 19.75 33.8 Q23.15 27.4 29.4 23.9 L29.4 23.95 29.45 23.9 Q28.05 27.55 27.4 31.35 L27.4 31.5 27.1 33.65 27.0 34.65 27.0 34.75 26.9 35.9 26.9 36.7 26.9 37.25 29.4 37.6 30.5 36.15 32.45 34.35 33.1 33.85 33.4 33.65 33.65 33.45 34.0 33.2 34.1 33.1 34.8 32.7 35.5 32.3 35.35 32.85 34.9 34.4 34.7 35.8 Q34.6 36.8 34.65 37.85 L34.75 39.3 35.55 39.9 35.45 38.15 Q35.4 35.65 36.05 33.15 L36.65 31.55 Q39.1 26.35 42.15 23.8 43.15 22.9 43.75 21.6 45.6 17.5 43.8 9.1 L43.7 8.55 M35.55 39.9 L37.35 41.6 37.45 39.55 Q37.55 37.9 37.8 36.5 38.5 33.15 40.1 31.05 42.3 28.25 43.65 27.1 44.7 26.55 45.4 25.3 L45.45 25.3 Q46.5 23.35 46.8 19.85 L48.65 25.45 51.7 24.1 Q50.3 29.4 46.5 32.35 45.15 33.35 43.45 34.15 42.1 34.95 41.3 36.65 40.6 37.95 40.25 39.8 L40.8 39.2 Q40.8 40.75 41.25 42.0 M47.9 42.25 L48.0 42.0 M25.9 13.5 Q24.1 16.45 21.5 18.5 18.0 15.8 14.05 14.7 17.4 20.0 15.6 24.2 L14.7 25.6 M11.1 40.85 L11.2 41.0 12.25 39.85 12.45 39.7 12.6 39.65 12.5 38.8 12.45 38.65 Q12.2 36.1 12.95 33.9 L13.1 33.35 13.8 31.7 14.7 30.1 16.7 27.05 17.0 26.65 17.2 26.4 17.25 26.4 Q18.85 24.1 18.6 20.75 L18.55 20.4 21.2 23.15 23.9 20.65 Q23.55 23.9 21.65 26.95 20.1 29.5 17.5 32.0 16.25 33.45 15.7 35.3 15.5 35.7 15.45 36.2 L15.9 37.1 16.15 37.5 16.55 38.05 16.65 38.0 17.2 37.85 18.1 37.65 18.1 37.6 M14.05 14.7 L14.05 14.65 14.0 14.65 M29.4 23.95 Q23.15 27.45 19.75 33.85 L18.75 36.0 M15.45 36.2 L14.95 34.55 14.9 34.5 Q13.8 35.65 13.35 37.45 L13.25 37.7 13.3 37.75 Q13.1 38.5 13.05 39.4 L13.35 39.25 15.25 38.45 16.2 38.15 16.55 38.05 M13.05 39.4 L12.6 39.65 M11.15 41.0 L11.2 41.0 Q10.75 41.65 10.6 42.4 M16.15 46.25 Q16.5 45.55 16.0 44.95 L15.8 45.0 15.65 44.95 Q14.35 44.7 13.2 43.95 L12.0 43.15 11.75 42.9 Q11.25 44.65 12.75 46.6 L13.2 47.15 14.0 47.7 M18.7 36.1 L18.15 37.65 18.0 37.95 17.9 38.15 26.6 39.7 26.95 39.8 26.9 37.6 26.9 37.25 26.9 36.7 M18.15 37.65 L18.1 37.65 M17.25 43.1 L17.05 43.55 17.05 44.55 17.05 44.6 17.05 44.85 17.1 45.4 17.25 46.9 17.4 47.9 17.45 47.95 17.75 49.35 17.8 49.4 M25.2 48.4 L25.4 47.2 25.55 46.8 25.55 46.7 25.7 46.2 Q26.25 44.65 25.95 43.6 L25.1 42.4 23.9 41.75 Q21.9 41.0 20.45 41.1 L19.5 41.25 Q18.15 41.65 17.45 42.95 M10.45 34.75 L10.6 33.9 11.45 31.5 M10.7 44.75 L10.75 45.05 10.9 45.25 11.05 45.55 11.25 46.0 12.4 47.55 Q12.5 47.0 12.75 46.6 M17.75 49.35 L16.4 49.8 M12.4 47.55 L12.3 47.95 Q12.2 48.0 12.25 48.15 L12.05 49.5 12.05 49.55 12.05 50.25 M14.1 51.0 Q14.5 50.7 15.15 50.35 L15.6 50.15 15.9 50.0 M15.6 51.15 L15.8 52.0 Q16.0 52.75 15.75 53.2 M14.25 53.7 L13.55 53.4 13.1 53.0 Q12.45 52.35 12.1 51.15 M17.05 44.6 L15.8 45.0 M9.5 43.15 Q9.25 43.7 9.3 44.4 M34.0 33.2 L34.15 33.1 34.8 32.7 M30.5 36.15 L29.45 37.6 29.9 37.65 32.3 38.15 33.2 38.35 33.35 38.5 34.2 39.0 34.75 39.3 M25.95 43.6 L26.0 43.6 28.85 43.95 30.2 44.15 30.9 43.4 31.6 41.35 Q31.95 41.15 32.45 41.75 L33.35 43.2 33.65 44.2 33.7 44.35 35.15 44.65 36.6 45.25 38.45 46.3 39.25 46.8 39.55 47.05 Q39.05 45.6 39.05 44.1 L39.1 43.85 37.35 41.6 M29.45 37.6 L29.4 37.6 M30.4 45.55 L30.15 45.3 Q29.9 44.85 30.2 44.15 M41.75 50.4 L40.95 49.8 40.35 48.85 40.1 48.4 39.55 47.05 M33.7 44.35 L33.6 45.1 33.45 45.4 32.8 45.9 M39.1 43.85 Q39.35 41.1 40.25 39.8" fill="none" stroke="#000000" stroke-linecap="round" stroke-linejoin="round" stroke-opacity="0.3019608" stroke-width="1.0"/>
      <path d="M40.85 40.1 Q40.95 41.45 41.55 42.65 42.25 44.1 43.6 45.05 L43.75 45.1 Q46.9 44.75 47.95 41.95 50.25 46.35 48.2 49.65 45.5 52.65 42.5 50.85 L41.75 50.45 41.8 51.6 41.75 52.2 Q41.6 53.35 40.15 52.35 38.25 49.85 36.8 49.65 L27.2 48.4 25.2 48.4 25.15 48.7 Q24.4 52.35 23.9 59.15 19.25 55.0 17.8 49.4 L16.4 49.8 15.95 49.95 15.9 50.0 Q15.3 50.5 15.85 52.0 16.2 53.65 14.45 53.7 L13.6 53.45 13.05 53.0 Q12.45 52.4 12.1 51.2 L12.1 50.85 12.1 50.25 11.55 49.75 10.4 48.15 Q8.85 44.85 9.45 43.1 L10.7 44.8 10.65 44.65 Q10.15 42.6 11.15 41.0 L10.9 40.4 Q9.65 37.75 10.6 33.85 12.15 28.95 14.7 25.6 L15.55 24.2 Q17.45 20.05 14.0 14.65 18.0 15.8 21.5 18.45 24.15 16.45 25.85 13.4 26.85 18.0 25.9 21.9 24.85 26.65 21.0 30.35 18.0 33.1 17.0 36.15 L16.6 38.0 16.55 38.05 15.9 37.1 15.45 36.2 Q15.5 35.7 15.7 35.3 16.2 33.45 17.5 31.95 20.05 29.5 21.6 26.95 23.5 23.85 23.9 20.6 L21.15 23.2 18.55 20.35 Q18.95 24.15 17.05 26.6 L16.65 27.0 Q15.45 28.55 13.85 31.7 12.1 34.85 12.45 38.65 L12.65 39.6 12.5 39.7 12.2 39.85 Q11.55 40.35 11.15 41.0 11.55 40.35 12.2 39.85 L12.5 39.7 12.65 39.6 12.45 38.65 Q12.1 34.85 13.85 31.7 15.45 28.55 16.65 27.0 L17.05 26.6 Q18.95 24.15 18.55 20.35 L21.15 23.2 23.9 20.6 Q23.5 23.85 21.6 26.95 20.05 29.5 17.5 31.95 16.2 33.45 15.7 35.3 15.5 35.7 15.45 36.2 L15.9 37.1 16.55 38.05 16.6 38.0 17.15 37.85 18.1 37.6 18.65 36.15 18.75 35.95 19.75 33.8 Q23.15 27.4 29.4 23.9 28.0 27.55 27.3 31.35 L27.05 33.65 27.0 34.6 27.0 34.75 26.9 35.85 26.9 37.25 29.35 37.6 Q30.95 35.25 33.65 33.45 L34.1 33.1 35.5 32.3 35.3 32.85 34.9 34.4 Q34.4 36.8 34.7 39.25 L35.45 39.85 37.4 41.6 39.05 43.85 Q39.4 40.35 40.8 39.2 L40.85 40.1 M16.55 38.05 L16.2 38.15 15.3 38.45 Q14.25 38.8 13.3 39.3 L13.05 39.4 13.25 37.7 13.3 37.45 Q13.75 35.55 14.95 34.45 L14.95 34.5 15.45 36.2 14.95 34.5 14.95 34.45 Q13.75 35.55 13.3 37.45 L13.25 37.7 13.05 39.4 13.3 39.3 Q14.25 38.8 15.3 38.45 L16.2 38.15 16.55 38.05 M15.9 50.0 L15.1 50.4 14.05 51.05 15.1 50.4 15.9 50.0 M39.55 47.0 L40.05 48.35 40.35 48.85 40.95 49.8 41.75 50.45 40.95 49.8 40.35 48.85 40.05 48.35 39.55 47.0 39.25 46.8 38.45 46.25 36.6 45.25 35.2 44.7 35.2 44.75 33.7 44.3 33.65 44.2 33.3 43.2 32.45 41.75 Q32.0 41.15 31.6 41.35 L30.9 43.35 30.2 44.15 28.8 43.9 26.0 43.6 25.9 43.65 Q25.7 42.9 25.1 42.4 L23.9 41.75 Q21.9 41.05 20.55 41.1 L19.5 41.25 Q18.15 41.65 17.45 42.95 18.15 41.65 19.5 41.25 L20.55 41.1 Q21.9 41.05 23.9 41.75 L25.1 42.4 Q25.7 42.9 25.9 43.65 L26.0 43.6 28.8 43.9 30.2 44.15 30.9 43.35 31.6 41.35 Q32.0 41.15 32.45 41.75 L33.3 43.2 33.65 44.2 33.7 44.3 35.2 44.75 35.2 44.7 36.6 45.25 38.45 46.25 39.25 46.8 39.55 47.0 Q39.0 45.6 39.05 44.1 L39.05 43.85 39.05 44.1 Q39.0 45.6 39.55 47.0 M32.8 45.95 L33.4 45.4 33.6 45.05 33.7 44.3 33.6 45.05 33.4 45.4 32.8 45.95 M30.2 44.15 Q29.95 44.9 30.15 45.3 L30.4 45.6 30.15 45.3 Q29.95 44.9 30.2 44.15 M25.9 43.65 Q26.25 44.7 25.7 46.2 L25.55 46.7 25.5 46.8 25.4 47.2 25.2 48.4 25.4 47.2 25.5 46.8 25.55 46.7 25.7 46.2 Q26.25 44.7 25.9 43.65 M29.35 37.6 L29.85 37.65 32.25 38.15 33.25 38.4 33.35 38.5 34.2 38.95 34.7 39.25 34.2 38.95 33.35 38.5 33.25 38.4 32.25 38.15 29.85 37.65 29.35 37.6 M15.8 45.0 L16.0 45.05 Q16.55 45.6 16.15 46.25 16.55 45.6 16.0 45.05 L15.8 45.0 15.7 45.0 Q14.4 44.75 13.15 44.05 L12.1 43.25 11.75 42.9 Q11.25 44.65 12.75 46.65 L12.35 47.55 11.3 46.1 11.0 45.5 10.9 45.25 10.8 45.05 10.7 44.8 10.8 45.05 10.9 45.25 11.0 45.5 11.3 46.1 12.35 47.55 12.75 46.65 Q11.25 44.65 11.75 42.9 L12.1 43.25 13.15 44.05 Q14.4 44.75 15.7 45.0 L15.8 45.0 17.1 44.6 17.05 44.55 17.05 43.55 17.25 43.1 17.05 43.55 17.05 44.55 17.1 44.6 15.8 45.0 M17.8 49.4 L17.5 47.95 17.45 47.9 17.25 46.9 17.1 45.3 17.05 44.85 17.1 44.6 17.05 44.85 17.1 45.3 17.25 46.9 17.45 47.9 17.5 47.95 17.8 49.4 M14.0 47.75 L13.2 47.15 12.75 46.65 13.2 47.15 14.0 47.75 M12.35 47.55 L12.25 47.95 12.2 48.15 12.1 49.55 12.1 49.6 12.1 50.25 12.1 49.6 12.1 49.55 12.2 48.15 12.25 47.95 12.35 47.55 M12.65 39.6 L13.05 39.4 12.65 39.6 M26.9 37.25 L26.9 37.55 26.95 39.75 17.9 38.1 17.95 37.95 18.1 37.6 17.95 37.95 17.9 38.1 26.95 39.75 26.9 37.55 26.9 37.25" fill="#3300cc" fill-rule="evenodd" stroke="none"/>
      <path d="M41.55 42.65 Q42.25 44.1 43.6 45.05 L43.75 45.1 Q46.9 44.75 47.95 41.95 50.25 46.35 48.2 49.65 45.5 52.65 42.5 50.85 L41.75 50.45 41.8 51.6 41.75 52.2 Q41.6 53.35 40.15 52.35 38.25 49.85 36.8 49.65 L27.2 48.4 25.2 48.4 25.15 48.7 Q24.4 52.35 23.9 59.15 19.25 55.0 17.8 49.4 L16.4 49.8 15.95 49.95 15.9 50.0 Q15.3 50.5 15.85 52.0 16.2 53.65 14.45 53.7 L13.6 53.45 13.05 53.0 Q12.45 52.4 12.1 51.2 L12.1 50.85 12.1 50.25 11.55 49.75 10.4 48.15 Q8.85 44.85 9.45 43.1 L10.7 44.8 10.65 44.65 Q10.15 42.6 11.15 41.0 L10.9 40.4 Q9.65 37.75 10.6 33.85 12.15 28.95 14.7 25.6 L15.55 24.2 Q17.45 20.05 14.0 14.65 L13.85 14.35 M37.4 41.6 L39.05 43.85 Q39.4 40.35 40.8 39.2 L40.85 40.1 M11.15 41.0 Q11.55 40.35 12.2 39.85 L12.5 39.7 12.65 39.6 12.45 38.65 Q12.1 34.85 13.85 31.7 15.45 28.55 16.65 27.0 L17.05 26.6 Q18.95 24.15 18.55 20.35 L21.15 23.2 23.9 20.6 Q23.5 23.85 21.6 26.95 20.05 29.5 17.5 31.95 16.2 33.45 15.7 35.3 15.5 35.7 15.45 36.2 L15.9 37.1 16.55 38.05 16.6 38.0 17.0 36.15 Q18.0 33.1 21.0 30.35 24.85 26.65 25.9 21.9 26.85 18.0 25.85 13.4 24.15 16.45 21.5 18.45 18.0 15.8 14.0 14.65 M15.45 36.2 L14.95 34.5 14.95 34.45 Q13.75 35.55 13.3 37.45 L13.25 37.7 13.05 39.4 13.3 39.3 Q14.25 38.8 15.3 38.45 L16.2 38.15 16.55 38.05 M16.6 38.0 L17.15 37.85 18.1 37.6 18.65 36.15 18.75 35.95 19.75 33.8 Q23.15 27.4 29.4 23.9 28.0 27.55 27.3 31.35 L27.05 33.65 27.0 34.6 27.0 34.75 26.9 35.85 26.9 37.25 29.35 37.6 Q30.95 35.25 33.65 33.45 L34.1 33.1 35.5 32.3 35.3 32.85 34.9 34.4 Q34.4 36.8 34.7 39.25 L35.45 39.85 M18.1 37.6 L17.95 37.95 17.9 38.1 26.95 39.75 26.9 37.55 26.9 37.25 M17.45 42.95 Q18.15 41.65 19.5 41.25 L20.55 41.1 Q21.9 41.05 23.9 41.75 L25.1 42.4 Q25.7 42.9 25.9 43.65 L26.0 43.6 28.8 43.9 30.2 44.15 30.9 43.35 31.6 41.35 Q32.0 41.15 32.45 41.75 L33.3 43.2 33.65 44.2 33.7 44.3 35.2 44.75 35.2 44.7 36.6 45.25 38.45 46.25 39.25 46.8 39.55 47.0 Q39.0 45.6 39.05 44.1 L39.05 43.85 M10.7 44.8 L10.8 45.05 10.9 45.25 11.0 45.5 11.3 46.1 12.35 47.55 12.75 46.65 Q11.25 44.65 11.75 42.9 L12.1 43.25 13.15 44.05 Q14.4 44.75 15.7 45.0 L15.8 45.0 17.1 44.6 17.05 44.55 17.05 43.55 17.25 43.1 M13.05 39.4 L12.65 39.6 M12.1 50.25 L12.1 49.6 12.1 49.55 12.2 48.15 12.25 47.95 12.35 47.55 M12.75 46.65 L13.2 47.15 14.0 47.75 M17.1 44.6 L17.05 44.85 17.1 45.3 17.25 46.9 17.45 47.9 17.5 47.95 17.8 49.4 M16.15 46.25 Q16.55 45.6 16.0 45.05 L15.8 45.0 M34.7 39.25 L34.2 38.95 33.35 38.5 33.25 38.4 32.25 38.15 29.85 37.65 29.35 37.6 M25.2 48.4 L25.4 47.2 25.5 46.8 25.55 46.7 25.7 46.2 Q26.25 44.7 25.9 43.65 M30.4 45.6 L30.15 45.3 Q29.95 44.9 30.2 44.15 M33.7 44.3 L33.6 45.05 33.4 45.4 32.8 45.95 M41.75 50.45 L40.95 49.8 40.35 48.85 40.05 48.35 39.55 47.0 M14.05 51.05 L15.1 50.4 15.9 50.0" fill="none" stroke="#000000" stroke-linecap="round" stroke-linejoin="round" stroke-opacity="0.3019608" stroke-width="0.05"/>
      <path d="M12.45 38.65 L12.95 38.1 15.55 33.4 15.7 35.3 Q15.0 37.45 15.45 40.15 L16.7 42.5 15.2 44.5 13.75 43.65 Q12.7 41.05 12.45 38.65" fill="#f9e79e" fill-rule="evenodd" stroke="none"/>
      <path d="M17.0 26.65 Q19.0 24.25 18.55 20.4 L21.2 23.15 23.9 20.65 Q23.55 23.9 21.65 26.95 19.2 28.9 18.25 28.1 L17.55 27.45 17.0 26.65" fill="#fbf0c8" fill-rule="evenodd" stroke="none"/>
      <path d="M17.0 26.65 L17.55 27.45 18.25 28.1 Q19.2 28.9 21.65 26.95 20.1 29.5 17.5 32.0 16.25 33.45 15.7 35.3 L15.55 33.4 12.95 38.1 12.45 38.65 Q12.15 34.85 13.8 31.7 15.5 28.55 16.7 27.05 L17.0 26.65" fill="#fefcf8" fill-rule="evenodd" stroke="none"/>
      <path d="M21.65 26.95 Q23.55 23.9 23.9 20.65 L21.2 23.15 18.55 20.4 Q19.0 24.25 17.0 26.65 L15.6 24.2 Q17.4 20.0 14.05 14.7 18.0 15.8 21.5 18.5 24.15 16.45 25.9 13.4 26.8 18.0 25.95 21.9 24.05 25.15 21.65 26.95" fill="#151e1e" fill-rule="evenodd" stroke="none"/>
      <path d="M21.65 26.95 Q24.05 25.15 25.95 21.9 24.85 26.65 21.05 30.4 18.0 33.1 17.05 36.15 L15.7 35.3 Q16.25 33.45 17.5 32.0 20.1 29.5 21.65 26.95 M15.6 24.2 L17.0 26.65 16.7 27.05 Q15.5 28.55 13.8 31.7 12.15 34.85 12.45 38.65 L10.9 40.45 Q9.65 37.75 10.6 33.9 12.2 28.95 14.7 25.6 L15.6 24.2" fill="#202d2d" fill-rule="evenodd" stroke="none"/>
      <path d="M15.7 35.3 L17.05 36.15 Q16.1 39.05 16.9 42.15 L16.7 42.5 15.45 40.15 Q15.0 37.45 15.7 35.3 M12.45 38.65 Q12.7 41.05 13.75 43.65 11.75 42.35 10.9 40.45 L12.45 38.65" fill="#000000" fill-rule="evenodd" stroke="none"/>
      <path d="M17.0 26.65 Q19.0 24.25 18.55 20.4 L21.2 23.15 23.9 20.65 Q23.55 23.9 21.65 26.95 20.1 29.5 17.5 32.0 16.25 33.45 15.7 35.3 15.0 37.45 15.45 40.15 L16.7 42.5 16.9 42.15 Q16.1 39.05 17.05 36.15 18.0 33.1 21.05 30.4 24.85 26.65 25.95 21.9 26.8 18.0 25.9 13.4 24.15 16.45 21.5 18.5 18.0 15.8 14.05 14.7 17.4 20.0 15.6 24.2 M10.9 40.45 Q9.65 37.75 10.6 33.9 12.2 28.95 14.7 25.6 L15.6 24.2 M14.05 14.7 L13.85 14.35 M17.0 26.65 L16.7 27.05 Q15.5 28.55 13.8 31.7 12.15 34.85 12.45 38.65 12.7 41.05 13.75 43.65 L15.2 44.5 16.7 42.5 M10.9 40.45 Q11.75 42.35 13.75 43.65" fill="none" stroke="#000000" stroke-linecap="round" stroke-linejoin="round" stroke-opacity="0.3019608" stroke-width="0.05"/>
    </g>
    <g id="sprite1" transform="matrix(1.0, 0.0, 0.0, 1.0, 0.0, 0.0)">
      <use height="141.85" transform="matrix(1.0, 0.0, 0.0, 1.0, 0.0, 0.0)" width="148.25" xlink:href="#shape3"/>
    </g>
    <g id="shape3" transform="matrix(1.0, 0.0, 0.0, 1.0, 0.0, 0.0)">
      <path d="M110.15 10.7 Q133.55 23.85 143.25 48.75 154.05 76.6 141.5 102.75 128.95 128.9 100.3 138.05 71.7 147.25 43.8 134.05 15.9 120.85 5.05 93.05 -5.8 65.25 6.75 39.15 L6.8 39.05 Q19.4 12.95 48.0 3.75 76.6 -5.4 104.5 7.8 L110.15 10.7" fill="url(#gradient0)" fill-rule="evenodd" stroke="none"/>
    </g>
    <radialGradient cx="0" cy="0" gradientTransform="matrix(0.0914, 0.0, 0.0, 0.0948, 74.1, 70.9)" gradientUnits="userSpaceOnUse" id="gradient0" r="819.2" spreadMethod="pad">
      <stop offset="0.0" stop-color="#000000"/>
      <stop offset="0.8862745098039215" stop-color="#000000" stop-opacity="0.0"/>
    </radialGradient>
    <g id="shape4" transform="matrix(1.0, 0.0, 0.0, 1.0, -9.3, -8.55)">
      <path d="M43.75 21.6 Q45.6 17.5 43.8 9.1 47.25 13.5 49.9 19.55 52.8 18.9 54.95 16.1 54.85 31.0 47.05 34.65 45.8 35.15 44.85 36.0 46.0 34.35 46.55 32.4 L46.5 32.35 Q50.3 29.4 51.7 24.1 L48.65 25.45 46.8 19.85 Q46.5 23.35 45.45 25.3 L45.4 25.3 43.75 21.6" fill="#151e1e" fill-rule="evenodd" stroke="none"/>
      <path d="M45.4 25.3 L45.45 25.3 Q46.5 23.35 46.8 19.85 L48.65 25.45 51.7 24.1 Q50.3 29.4 46.5 32.35 L46.75 29.75 Q46.65 28.2 45.7 25.95 L45.4 25.3" fill="#fbf0c8" fill-rule="evenodd" stroke="none"/>
      <path d="M45.4 25.3 L45.7 25.95 Q46.65 28.2 46.75 29.75 L46.5 32.35 Q45.15 33.35 43.45 34.15 42.1 34.95 41.3 36.65 L41.45 34.3 Q40.0 35.2 39.25 38.15 L37.8 36.5 Q38.5 33.15 40.1 31.05 42.3 28.25 43.65 27.1 44.7 26.55 45.4 25.3" fill="#fefcf8" fill-rule="evenodd" stroke="none"/>
      <path d="M43.75 21.6 L45.4 25.3 Q44.7 26.55 43.65 27.1 42.3 28.25 40.1 31.05 38.5 33.15 37.8 36.5 36.9 35.65 36.05 33.15 L36.65 31.55 Q39.1 26.35 42.15 23.8 43.15 22.9 43.75 21.6 M46.5 32.35 L46.55 32.4 Q46.0 34.35 44.85 36.0 43.15 37.25 42.15 39.25 41.65 38.7 41.3 36.65 42.1 34.95 43.45 34.15 45.15 33.35 46.5 32.35" fill="#202d2d" fill-rule="evenodd" stroke="none"/>
      <path d="M42.15 39.25 Q40.7 42.3 40.8 47.0 L40.55 47.3 39.85 43.25 Q40.0 39.05 41.3 36.65 41.65 38.7 42.15 39.25 M37.6 46.6 Q34.25 39.8 36.05 33.15 36.9 35.65 37.8 36.5 37.0 40.55 37.6 46.6" fill="#000000" fill-rule="evenodd" stroke="none"/>
      <path d="M40.55 47.3 L38.7 48.8 37.6 46.6 Q37.0 40.55 37.8 36.5 L39.25 38.15 Q40.0 35.2 41.45 34.3 L41.3 36.65 Q40.0 39.05 39.85 43.25 L40.55 47.3" fill="#f9e79e" fill-rule="evenodd" stroke="none"/>
      <path d="M43.8 9.1 L43.7 8.55 M44.85 36.0 Q45.8 35.15 47.05 34.65 54.85 31.0 54.95 16.1 52.8 18.9 49.9 19.55 47.25 13.5 43.8 9.1 45.6 17.5 43.75 21.6 M45.4 25.3 L45.45 25.3 Q46.5 23.35 46.8 19.85 L48.65 25.45 51.7 24.1 Q50.3 29.4 46.5 32.35 45.15 33.35 43.45 34.15 42.1 34.95 41.3 36.65 40.0 39.05 39.85 43.25 L40.55 47.3 38.7 48.8 37.6 46.6 Q34.25 39.8 36.05 33.15 L36.65 31.55 Q39.1 26.35 42.15 23.8 43.15 22.9 43.75 21.6 M44.85 36.0 Q43.15 37.25 42.15 39.25 40.7 42.3 40.8 47.0 L40.55 47.3 M37.8 36.5 Q38.5 33.15 40.1 31.05 42.3 28.25 43.65 27.1 44.7 26.55 45.4 25.3 M37.6 46.6 Q37.0 40.55 37.8 36.5" fill="none" stroke="#000000" stroke-linecap="round" stroke-linejoin="round" stroke-opacity="0.3019608" stroke-width="0.05"/>
      <path d="M31.45 35.8 L31.35 35.8 31.55 35.65 31.45 35.8" fill="#fbf0c8" fill-rule="evenodd" stroke="none"/>
      <path d="M13.7 37.05 Q13.85 36.95 13.95 36.95 L14.25 37.2 14.3 37.45 14.25 37.65 14.25 37.7 14.05 38.05 13.7 38.15 13.5 38.0 13.45 37.75 13.7 37.05 M30.8 36.45 L30.85 36.15 Q31.05 35.85 31.45 35.8 L31.6 35.85 31.75 36.05 31.75 36.15 31.7 36.6 31.4 36.9 31.05 36.9 30.8 36.6 30.8 36.45" fill="#ffffcc" fill-rule="evenodd" stroke="none"/>
      <path d="M14.7 35.0 Q14.35 36.2 14.8 37.15 L14.9 37.3 15.05 37.6 Q15.45 38.4 15.1 38.9 14.35 39.9 13.3 39.4 L13.45 38.15 13.5 38.0 13.7 38.15 14.05 38.05 14.25 37.7 14.25 37.65 14.3 37.45 14.25 37.2 13.95 36.95 Q13.85 36.95 13.7 37.05 14.05 35.95 14.7 35.0 M29.6 38.05 L30.8 36.45 30.8 36.6 31.05 36.9 31.4 36.9 31.7 36.6 31.75 36.15 31.75 36.05 31.6 35.85 31.45 35.8 31.55 35.65 Q32.6 34.5 33.85 33.65 L35.0 33.0 34.15 33.85 Q33.55 34.75 33.1 35.95 32.8 36.6 32.65 37.3 31.9 39.85 29.6 38.05" fill="#ffcf2b" fill-rule="evenodd" stroke="none"/>
      <path d="M13.3 39.4 Q14.35 39.9 15.1 38.9 15.45 38.4 15.05 37.6 L14.9 37.3 14.8 37.15 Q14.35 36.2 14.7 35.0 14.85 36.15 15.5 37.2 L15.7 37.55 16.85 38.7 13.3 40.15 13.3 39.4 M34.5 40.5 L29.25 38.65 29.6 38.05 Q31.9 39.85 32.65 37.3 32.8 36.6 33.1 35.95 33.55 34.75 34.15 33.85 L35.0 33.0 34.6 34.15 34.3 35.85 Q33.9 38.45 34.5 40.5" fill="#b18100" fill-rule="evenodd" stroke="none"/>
      <path d="M14.7 35.0 Q14.05 35.95 13.7 37.05 L13.45 37.75 13.5 38.0 13.45 38.15 13.3 39.4 13.3 40.15 13.0 40.25 Q13.0 38.9 13.3 37.75 L13.25 37.7 Q13.7 35.75 14.9 34.5 15.3 36.1 15.9 37.1 L16.15 37.5 17.1 38.6 16.85 38.7 15.7 37.55 15.5 37.2 Q14.85 36.15 14.7 35.0 M29.25 38.65 L28.85 38.5 Q29.55 37.25 30.5 36.15 31.85 34.65 33.65 33.45 L34.15 33.1 35.5 32.3 35.35 32.85 34.9 34.4 34.7 35.8 Q34.45 38.2 34.95 40.65 L34.5 40.5 Q33.9 38.45 34.3 35.85 L34.6 34.15 35.0 33.0 33.85 33.65 Q32.6 34.5 31.55 35.65 L31.35 35.8 31.45 35.8 Q31.05 35.85 30.85 36.15 L30.8 36.45 29.6 38.05 29.25 38.65" fill="#fee481" fill-rule="evenodd" stroke="none"/>
      <path d="M13.3 40.15 L16.85 38.7 17.1 38.6 16.15 37.5 15.9 37.1 Q15.3 36.1 14.9 34.5 13.7 35.75 13.25 37.7 L13.3 37.75 Q13.0 38.9 13.0 40.25 L13.3 40.15 M29.25 38.65 L28.85 38.5 Q29.55 37.25 30.5 36.15 31.85 34.65 33.65 33.45 L34.15 33.1 35.5 32.3 35.35 32.85 34.9 34.4 34.7 35.8 Q34.45 38.2 34.95 40.65 L34.5 40.5 29.25 38.65" fill="none" stroke="#000000" stroke-linecap="round" stroke-linejoin="round" stroke-opacity="0.3019608" stroke-width="0.05"/>
      <path d="M20.95 32.6 L20.9 32.65 20.9 32.6 20.95 32.6" fill="#ffff99" fill-rule="evenodd" stroke="none"/>
      <path d="M21.7 31.3 L22.05 31.45 22.3 31.9 22.15 32.6 21.7 33.1 21.25 33.1 20.95 32.6 20.9 32.6 Q21.0 31.55 21.7 31.3 M20.5 34.05 Q20.85 33.8 21.2 33.9 L21.75 34.4 21.85 35.1 21.75 35.35 21.65 35.65 21.25 36.15 20.55 36.3 20.05 35.95 20.0 35.8 19.95 35.65 Q19.9 35.25 20.0 34.85 20.1 34.35 20.5 34.05" fill="#ffffcc" fill-rule="evenodd" stroke="none"/>
      <path d="M28.75 24.55 Q25.6 28.35 25.1 32.0 L25.05 32.35 25.05 32.8 25.0 34.2 24.9 34.75 24.8 35.1 Q24.3 37.0 22.65 37.6 19.3 38.65 19.05 36.6 L19.25 36.05 19.35 35.75 20.3 33.65 20.9 32.65 20.95 32.6 21.25 33.1 21.7 33.1 22.15 32.6 22.3 31.9 22.05 31.45 21.7 31.3 Q24.5 27.15 28.75 24.55 M20.5 34.05 Q20.1 34.35 20.0 34.85 19.9 35.25 19.95 35.65 L20.0 35.8 20.05 35.95 20.55 36.3 21.25 36.15 21.65 35.65 21.75 35.35 21.85 35.1 21.75 34.4 21.2 33.9 Q20.85 33.8 20.5 34.05" fill="#ffcf2b" fill-rule="evenodd" stroke="none"/>
      <path d="M19.05 36.6 Q19.3 38.65 22.65 37.6 24.3 37.0 24.8 35.1 L24.9 34.75 25.0 34.2 25.05 32.8 25.05 32.35 25.1 32.0 Q25.6 28.35 28.75 24.55 L28.95 24.45 Q27.5 27.45 26.9 31.45 L26.65 33.5 26.7 33.75 26.6 34.85 26.55 36.0 26.6 39.7 18.5 38.25 19.05 36.6" fill="#b18100" fill-rule="evenodd" stroke="none"/>
      <path d="M28.75 24.55 Q24.5 27.15 21.7 31.3 21.0 31.55 20.9 32.6 L20.9 32.65 20.3 33.65 19.35 35.75 19.25 36.05 19.05 36.6 18.5 38.25 17.9 38.15 18.7 36.1 18.75 36.0 19.75 33.85 Q23.15 27.4 29.45 23.9 28.05 27.55 27.4 31.35 L27.1 33.65 27.0 34.65 27.0 34.75 26.9 35.9 26.95 39.8 26.6 39.7 26.55 36.0 26.6 34.85 26.7 33.75 26.65 33.5 26.9 31.45 Q27.5 27.45 28.95 24.45 L28.75 24.55" fill="#fee481" fill-rule="evenodd" stroke="none"/>
      <path d="M18.5 38.25 L26.6 39.7 26.95 39.8 26.9 35.9 27.0 34.75 27.0 34.65 27.1 33.65 27.4 31.35 Q28.05 27.55 29.45 23.9 23.15 27.4 19.75 33.85 L18.75 36.0 18.7 36.1 17.9 38.15 18.5 38.25 Z" fill="none" stroke="#000000" stroke-linecap="round" stroke-linejoin="round" stroke-opacity="0.3019608" stroke-width="0.05"/>
      <path d="M9.65 43.95 Q10.2 44.9 11.1 45.6 L11.55 46.95 Q11.35 46.95 11.3 47.2 10.1 46.0 9.65 43.95" fill="#f9e79e" fill-rule="evenodd" stroke="none"/>
      <path d="M9.65 43.95 L9.5 43.65 Q9.75 46.95 11.55 49.05 L12.15 49.65 12.6 50.05 Q14.1 51.5 15.25 51.55 L15.35 52.25 14.9 52.15 Q12.9 51.25 11.55 49.75 L10.4 48.15 Q8.8 44.8 9.5 43.1 10.4 44.75 11.8 45.65 13.0 46.5 14.65 46.75 L14.75 47.1 Q13.0 46.8 11.75 46.05 L11.1 45.6 Q10.2 44.9 9.65 43.95" fill="#fefcf8" fill-rule="evenodd" stroke="none"/>
      <path d="M12.15 49.65 L11.55 49.05 Q9.75 46.95 9.5 43.65 L9.65 43.95 Q10.1 46.0 11.3 47.2 11.35 46.95 11.55 46.95 12.0 47.35 11.45 47.9 11.35 48.4 12.15 49.65" fill="#fbf0c8" fill-rule="evenodd" stroke="none"/>
      <path d="M11.1 45.6 L11.75 46.05 Q13.0 46.8 14.75 47.1 L15.25 51.55 Q14.1 51.5 12.6 50.05 L12.15 49.65 Q11.35 48.4 11.45 47.9 12.0 47.35 11.55 46.95 L11.1 45.6" fill="#e6d795" fill-rule="evenodd" stroke="none"/>
      <path d="M14.65 46.75 Q13.0 46.5 11.8 45.65 10.4 44.75 9.5 43.1 8.8 44.8 10.4 48.15 L11.55 49.75 Q12.9 51.25 14.9 52.15 L15.35 52.25" fill="none" stroke="#000000" stroke-linecap="round" stroke-linejoin="round" stroke-opacity="0.3019608" stroke-width="0.05"/>
      <path d="M10.9 45.25 Q10.75 43.55 11.85 42.65 19.2 38.05 33.35 41.55 36.75 42.7 40.4 49.55 L39.8 49.45 36.95 48.7 36.85 48.65 Q36.05 46.05 35.0 44.4 33.65 42.15 31.9 41.45 L33.2 48.0 31.55 47.75 Q30.75 46.05 29.55 44.65 27.9 42.85 25.45 41.7 21.45 40.25 18.9 41.65 L19.4 47.15 Q18.45 46.25 18.5 45.35 18.4 45.0 18.55 44.6 13.9 44.5 11.8 43.0 L15.3 48.15 13.95 48.4 Q11.9 47.8 10.9 45.25" fill="#f9e79e" fill-rule="evenodd" stroke="none"/>
      <path d="M10.65 44.6 Q10.7 43.05 11.55 42.4 10.9 42.1 12.45 39.7 14.65 38.45 17.2 37.85 L22.8 37.05 Q27.55 37.0 33.2 38.35 L33.35 38.5 33.7 38.85 Q24.7 36.4 16.9 38.15 17.95 39.35 14.95 40.85 22.45 38.4 33.4 41.15 38.0 43.35 40.55 49.5 L40.4 49.55 Q36.75 42.7 33.35 41.55 19.2 38.05 11.85 42.65 10.75 43.55 10.9 45.25 L10.75 45.05 10.65 44.6" fill="#fefcf8" fill-rule="evenodd" stroke="none"/>
      <path d="M12.45 39.7 Q10.9 42.1 11.55 42.4 10.7 43.05 10.65 44.6 9.95 41.8 12.25 39.85 L12.45 39.7 M33.4 41.15 Q22.45 38.4 14.95 40.85 17.95 39.35 16.9 38.15 24.7 36.4 33.7 38.85 35.0 40.35 33.4 41.15" fill="#fbf0c8" fill-rule="evenodd" stroke="none"/>
      <path d="M40.55 49.5 Q38.0 43.35 33.4 41.15 35.0 40.35 33.7 38.85 L33.35 38.5 Q38.1 40.9 40.9 47.25 L41.05 47.8 Q41.25 49.3 40.55 49.5 M15.3 48.15 L11.8 43.0 Q13.9 44.5 18.55 44.6 18.4 45.0 18.5 45.35 18.45 46.25 19.4 47.15 L18.9 41.65 Q21.45 40.25 25.45 41.7 27.9 42.85 29.55 44.65 30.75 46.05 31.55 47.75 25.6 47.0 19.45 47.6 L15.3 48.15 M33.2 48.0 L31.9 41.45 Q33.65 42.15 35.0 44.4 36.05 46.05 36.85 48.65 L33.2 48.0" fill="#e6d795" fill-rule="evenodd" stroke="none"/>
      <path d="M10.65 44.6 L10.75 45.05 10.9 45.25 Q11.9 47.8 13.95 48.4 L15.3 48.15 M40.4 49.55 L40.55 49.5 M33.35 38.5 L33.2 38.35 Q27.55 37.0 22.8 37.05 L17.2 37.85 Q14.65 38.45 12.45 39.7 L12.25 39.85 Q9.95 41.8 10.65 44.6 M31.55 47.75 L33.2 48.0 M36.95 48.7 L39.8 49.45 40.4 49.55 M31.55 47.75 Q25.6 47.0 19.45 47.6 L15.3 48.15 M33.35 38.5 Q38.1 40.9 40.9 47.25 L41.05 47.8 Q41.25 49.3 40.55 49.5 M36.85 48.65 L33.2 48.0" fill="none" stroke="#000000" stroke-linecap="round" stroke-linejoin="round" stroke-opacity="0.3019608" stroke-width="0.05"/>
      <path d="M12.75 46.6 L13.2 47.15 13.6 47.45 Q11.7 44.45 11.95 43.45 12.45 44.35 13.55 44.8 L15.7 45.25 Q16.35 45.35 16.15 46.25 L17.05 45.5 15.75 48.15 15.75 48.1 15.75 48.15 15.7 48.2 15.2 48.3 Q14.15 48.6 12.95 49.6 12.25 50.2 12.3 47.95 12.4 47.2 12.75 46.6 M26.0 43.6 L30.2 44.15 Q29.9 44.85 30.15 45.3 L30.4 45.55 30.35 45.25 Q30.3 44.6 30.6 44.3 L31.2 43.6 31.8 42.3 Q32.1 41.25 33.2 43.9 L33.3 44.35 33.5 45.0 33.45 45.4 32.7 45.95 Q34.25 46.05 35.15 44.65 L36.6 45.25 Q37.5 46.85 35.35 47.35 33.9 46.85 32.7 46.7 L26.6 46.55 26.6 46.35 Q26.8 44.9 26.0 43.6 M40.35 47.7 Q41.4 48.8 41.7 50.25 L41.85 51.55 40.3 49.7 Q40.2 49.05 40.4 48.65 L40.35 47.7 M15.8 52.0 Q16.2 53.7 14.45 53.7 L13.55 53.4 Q15.0 53.75 14.7 52.75 14.35 52.4 13.9 51.25 L14.1 51.0 Q14.6 52.45 15.1 52.75 15.7 52.9 15.8 52.0 M12.75 44.8 Q12.25 45.0 13.65 46.9 L14.65 47.0 15.05 46.7 Q15.7 45.55 15.15 45.65 L13.9 45.5 12.75 44.8 M14.0 47.7 L13.6 47.45 14.0 47.7 M32.2 43.1 Q31.95 43.0 31.85 43.5 L31.65 43.9 31.15 44.5 Q30.85 44.85 30.85 45.1 L31.1 45.3 31.75 45.55 32.4 45.4 Q32.85 45.3 32.85 44.85 L32.85 44.6 32.8 44.45 32.65 43.8 32.2 43.1 M32.5 46.0 L32.7 45.95 32.5 46.0" fill="#f9e79e" fill-rule="evenodd" stroke="none"/>
      <path d="M12.75 46.6 Q11.25 44.65 11.75 42.9 L13.2 43.95 Q14.35 44.7 15.65 44.95 L15.8 45.0 16.0 44.95 Q16.5 45.55 16.15 46.25 16.35 45.35 15.7 45.25 L13.55 44.8 Q12.45 44.35 11.95 43.45 11.7 44.45 13.6 47.45 L13.2 47.15 12.75 46.6 M30.2 44.15 L30.9 43.4 31.6 41.35 Q32.25 40.95 33.35 43.2 L33.65 44.2 33.7 44.35 33.6 45.1 33.45 45.4 33.5 45.0 33.3 44.35 33.2 43.9 Q32.1 41.25 31.8 42.3 L31.2 43.6 30.6 44.3 Q30.3 44.6 30.35 45.25 L30.4 45.55 30.15 45.3 Q29.9 44.85 30.2 44.15 M39.55 47.05 L40.25 47.65 40.35 47.7 40.4 48.65 Q40.2 49.05 40.3 49.7 L41.85 51.55 41.8 52.15 Q40.9 50.35 38.15 48.9 35.25 47.3 31.55 47.05 L26.55 46.75 25.35 46.8 24.2 46.85 26.6 46.55 32.7 46.7 Q33.9 46.85 35.35 47.35 36.85 47.9 38.6 48.85 L40.0 49.1 Q40.45 48.85 39.55 47.05 M12.25 48.15 Q12.2 48.0 12.3 47.95 12.25 50.2 12.95 49.6 14.15 48.6 15.2 48.3 L15.7 48.2 15.75 48.15 18.15 47.75 16.1 48.35 15.7 48.45 15.35 48.6 Q14.05 49.0 13.2 49.85 L12.4 49.9 Q12.15 49.5 12.25 48.15" fill="#fefcf8" fill-rule="evenodd" stroke="none"/>
      <path d="M41.8 52.15 Q41.6 53.35 40.1 52.35 38.25 49.85 36.8 49.65 31.5 48.55 27.2 48.4 26.15 47.85 26.55 46.75 L31.55 47.05 Q35.25 47.3 38.15 48.9 40.9 50.35 41.8 52.15 M16.4 49.8 L16.0 49.95 15.9 50.0 14.1 51.0 13.9 51.25 Q14.35 52.4 14.7 52.75 15.0 53.75 13.55 53.4 L13.1 53.0 Q12.45 51.8 12.35 50.8 12.25 50.35 12.4 49.9 L13.2 49.85 Q14.05 49.0 15.35 48.6 L15.7 48.45 16.4 49.8 M12.75 44.8 L13.9 45.5 15.15 45.65 Q15.7 45.55 15.05 46.7 L14.65 47.0 13.65 46.9 Q12.25 45.0 12.75 44.8 M32.2 43.1 L32.65 43.8 32.8 44.45 32.85 44.6 32.85 44.85 Q32.85 45.3 32.4 45.4 L31.75 45.55 31.1 45.3 30.85 45.1 Q30.85 44.85 31.15 44.5 L31.65 43.9 31.85 43.5 Q31.95 43.0 32.2 43.1" fill="#fbf0c8" fill-rule="evenodd" stroke="none"/>
      <path d="M15.9 50.0 Q15.35 50.5 15.8 52.0 15.7 52.9 15.1 52.75 14.6 52.45 14.1 51.0 L15.9 50.0" fill="#cfc286" fill-rule="evenodd" stroke="none"/>
      <path d="M16.15 46.25 Q16.5 45.55 16.0 44.95 L15.8 45.0 17.35 44.5 17.05 45.5 16.15 46.25 M33.7 44.35 L35.15 44.65 Q34.25 46.05 32.7 45.95 L33.45 45.4 33.6 45.1 33.7 44.35 M36.6 45.25 Q38.15 45.95 39.55 47.05 40.45 48.85 40.0 49.1 L38.6 48.85 Q36.85 47.9 35.35 47.35 37.5 46.85 36.6 45.25 M27.2 48.4 Q20.75 48.15 16.4 49.8 L15.7 48.45 16.1 48.35 18.15 47.75 23.85 46.9 24.2 46.85 25.35 46.8 26.55 46.75 Q26.15 47.85 27.2 48.4" fill="#e6d795" fill-rule="evenodd" stroke="none"/>
      <path d="M17.35 44.5 Q21.85 43.45 26.0 43.6 26.8 44.9 26.6 46.35 L26.6 46.55 24.2 46.85 23.85 46.9 18.15 47.75 15.75 48.15 15.75 48.1 15.75 48.15 17.05 45.5 17.35 44.5" fill="#dfd090" fill-rule="evenodd" stroke="none"/>
      <path d="M13.1 53.0 Q12.45 52.35 12.1 51.15 L12.05 50.9 Q11.95 49.3 12.25 48.15 12.15 49.5 12.4 49.9 12.25 50.35 12.35 50.8 12.45 51.8 13.1 53.0" fill="#ffffff" fill-rule="evenodd" stroke="none"/>
      <path d="M15.8 45.0 L15.65 44.95 Q14.35 44.7 13.2 43.95 L11.75 42.9 Q11.25 44.65 12.75 46.6 L13.2 47.15 13.6 47.45 14.0 47.7 M16.15 46.25 Q16.5 45.55 16.0 44.95 L15.8 45.0 17.35 44.5 Q21.85 43.45 26.0 43.6 L30.2 44.15 30.9 43.4 31.6 41.35 Q32.25 40.95 33.35 43.2 L33.65 44.2 33.7 44.35 35.15 44.65 36.6 45.25 Q38.15 45.95 39.55 47.05 L40.25 47.65 40.35 47.7 Q41.4 48.8 41.7 50.25 L41.85 51.55 41.8 52.15 Q41.6 53.35 40.1 52.35 38.25 49.85 36.8 49.65 31.5 48.55 27.2 48.4 20.75 48.15 16.4 49.8 L16.0 49.95 15.9 50.0 Q15.35 50.5 15.8 52.0 16.2 53.7 14.45 53.7 L13.55 53.4 13.1 53.0 Q12.45 52.35 12.1 51.15 L12.05 50.9 Q11.95 49.3 12.25 48.15 12.2 48.0 12.3 47.95 12.4 47.2 12.75 46.6 M15.75 48.15 L15.75 48.1 M14.1 51.0 L13.9 51.25 M14.1 51.0 L15.9 50.0 M30.4 45.55 L30.15 45.3 Q29.9 44.85 30.2 44.15 M33.7 44.35 L33.6 45.1 33.45 45.4 32.7 45.95 32.5 46.0" fill="none" stroke="#000000" stroke-linecap="round" stroke-linejoin="round" stroke-opacity="0.3019608" stroke-width="0.05"/>
      <path d="M18.5 49.9 Q18.5 49.65 18.65 49.5 18.8 48.95 19.25 48.9 19.7 48.9 20.05 49.25 L20.5 50.35 20.35 51.4 19.7 51.9 19.25 51.85 Q18.45 51.3 18.5 49.9 M17.75 44.15 Q17.9 43.9 18.1 43.9 18.4 43.85 18.55 44.1 L18.8 44.65 18.75 45.25 18.35 45.55 17.9 45.3 17.75 45.0 17.7 44.8 Q17.65 44.4 17.75 44.15 M19.35 46.3 L19.7 47.1 19.7 47.4 19.6 47.9 19.1 48.3 Q18.75 48.45 18.45 48.05 L18.1 47.25 18.05 47.05 18.25 46.4 Q18.45 46.05 18.75 46.0 19.1 46.0 19.35 46.3" fill="#ffffcc" fill-rule="evenodd" stroke="none"/>
      <path d="M19.45 41.25 L19.5 41.25 Q21.35 41.4 22.25 42.15 23.8 43.45 23.15 46.6 L22.95 47.5 22.8 48.15 Q22.05 54.4 23.8 58.85 L23.9 59.15 Q20.65 55.65 19.25 51.85 L19.7 51.9 20.35 51.4 20.5 50.35 20.05 49.25 Q19.7 48.9 19.25 48.9 18.8 48.95 18.65 49.5 18.5 49.65 18.5 49.9 L17.75 46.95 17.4 44.95 17.25 43.1 17.45 42.95 Q18.15 41.65 19.45 41.25 M19.35 46.3 Q19.1 46.0 18.75 46.0 18.45 46.05 18.25 46.4 L18.05 47.05 18.1 47.25 18.45 48.05 Q18.75 48.45 19.1 48.3 L19.6 47.9 19.7 47.4 19.7 47.1 19.35 46.3 M17.75 44.15 Q17.65 44.4 17.7 44.8 L17.75 45.0 17.9 45.3 18.35 45.55 18.75 45.25 18.8 44.65 18.55 44.1 Q18.4 43.85 18.1 43.9 17.9 43.9 17.75 44.15" fill="#ffcf2b" fill-rule="evenodd" stroke="none"/>
      <path d="M23.8 58.85 Q22.05 54.4 22.8 48.15 L22.95 47.5 23.15 46.6 Q23.8 43.45 22.25 42.15 21.35 41.4 19.5 41.25 21.2 40.75 23.9 41.75 L25.1 42.4 Q25.65 43.8 25.3 45.35 L24.85 47.0 24.5 48.55 24.35 49.75 Q23.5 55.0 23.8 58.85" fill="#b18100" fill-rule="evenodd" stroke="none"/>
      <path d="M17.25 43.1 L17.4 44.95 17.75 46.95 18.5 49.9 Q18.45 51.3 19.25 51.85 20.65 55.65 23.9 59.15 L23.8 58.85 Q23.5 55.0 24.35 49.75 L24.5 48.55 24.85 47.0 25.3 45.35 Q25.65 43.8 25.1 42.4 26.6 43.6 25.7 46.2 L25.4 47.2 25.15 48.7 Q24.4 52.35 23.9 59.15 18.25 54.1 17.25 46.9 L17.05 44.85 17.05 43.55 17.25 43.1" fill="#fee481" fill-rule="evenodd" stroke="none"/>
      <path d="M19.45 41.25 Q18.15 41.65 17.45 42.95 M19.5 41.25 Q21.2 40.75 23.9 41.75 L25.1 42.4 Q26.6 43.6 25.7 46.2 L25.4 47.2 25.15 48.7 Q24.4 52.35 23.9 59.15 18.25 54.1 17.25 46.9 L17.05 44.85 17.05 43.55 17.25 43.1" fill="none" stroke="#000000" stroke-linecap="round" stroke-linejoin="round" stroke-opacity="0.3019608" stroke-width="0.05"/>
      <path d="M43.8 45.65 L45.55 46.35 Q47.35 46.6 48.25 42.95 48.95 44.7 48.95 46.75 48.1 50.0 45.45 51.1 43.75 51.25 42.55 50.65 41.65 50.1 41.05 49.25 41.85 49.85 42.65 50.15 44.35 50.8 45.45 49.6 46.35 48.2 43.8 45.65" fill="#f9e79e" fill-rule="evenodd" stroke="none"/>
      <path d="M43.8 45.65 Q46.35 48.2 45.45 49.6 44.35 50.8 42.65 50.15 41.85 49.85 41.05 49.25 L40.55 48.4 Q38.5 43.55 40.4 40.0 40.3 41.1 41.1 42.6 41.95 44.55 43.55 45.5 L43.8 45.65 M42.1 46.35 Q42.0 46.8 42.2 47.35 42.35 47.85 42.75 48.15 L43.0 48.25 43.5 48.25 44.0 47.7 44.0 46.7 43.5 45.95 43.35 45.9 42.65 45.7 Q42.25 45.85 42.1 46.35" fill="#fbf0c8" fill-rule="evenodd" stroke="none"/>
      <path d="M41.05 49.25 Q41.65 50.1 42.55 50.65 43.75 51.25 45.45 51.1 48.1 50.0 48.95 46.75 48.95 44.7 48.25 42.95 47.35 46.6 45.55 46.35 L43.8 45.65 43.55 45.5 Q41.95 44.55 41.1 42.6 40.3 41.1 40.4 40.0 38.5 43.55 40.55 48.4 L41.05 49.25 M48.0 41.95 Q50.3 46.35 48.25 49.65 45.55 52.6 42.5 50.95 L40.95 49.8 Q39.05 47.15 39.05 44.1 39.35 40.35 40.8 39.2 40.75 43.0 43.65 45.1 L43.75 45.15 44.3 45.5 Q47.3 47.15 48.0 41.95 M42.1 46.35 Q42.25 45.85 42.65 45.7 L43.35 45.9 43.5 45.95 44.0 46.7 44.0 47.7 43.5 48.25 43.0 48.25 42.75 48.15 Q42.35 47.85 42.2 47.35 42.0 46.8 42.1 46.35" fill="#fefcf8" fill-rule="evenodd" stroke="none"/>
      <path d="M43.75 45.15 Q46.9 44.75 48.0 41.95 47.3 47.15 44.3 45.5 L43.75 45.15" fill="#e6d795" fill-rule="evenodd" stroke="none"/>
      <path d="M48.0 41.95 Q50.3 46.35 48.25 49.65 45.55 52.6 42.5 50.95 L40.95 49.8 Q39.05 47.15 39.05 44.1 39.35 40.35 40.8 39.2 40.75 43.0 43.65 45.1 L43.75 45.15 Q46.9 44.75 48.0 41.95 Z" fill="none" stroke="#000000" stroke-linecap="round" stroke-linejoin="round" stroke-opacity="0.3019608" stroke-width="0.05"/>
    </g>
  </defs>
</svg>
