<?xml version="1.0" encoding="UTF-8" standalone="no"?>
<svg xmlns:xlink="http://www.w3.org/1999/xlink" height="520.0px" width="520.0px" xmlns="http://www.w3.org/2000/svg">
  <g transform="matrix(10.0, 0.0, 0.0, 10.0, 0.0, 0.0)">
    <use height="52.0" transform="matrix(1.0, 0.0, 0.0, 1.0, 0.0, 0.0)" width="52.0" xlink:href="#sprite0"/>
  </g>
  <defs>
    <g id="sprite0" transform="matrix(1.0, 0.0, 0.0, 1.0, 0.0, 0.0)">
      <use height="52.0" transform="matrix(1.0, 0.0, 0.0, 1.0, 0.0, 0.0)" width="52.0" xlink:href="#sprite1"/>
      <use height="47.15" transform="matrix(1.0, 0.0, 0.0, 1.0, 6.75, 2.05)" width="40.3" xlink:href="#shape1"/>
    </g>
    <g id="sprite1" transform="matrix(1.0, 0.0, 0.0, 1.0, 0.0, 0.0)">
      <use height="52.0" transform="matrix(1.0, 0.0, 0.0, 1.0, 0.0, 0.0)" width="52.0" xlink:href="#shape0"/>
    </g>
    <g id="shape0" transform="matrix(1.0, 0.0, 0.0, 1.0, 0.0, 0.0)">
      <path d="M52.0 0.0 L52.0 52.0 0.0 52.0 0.0 0.0 52.0 0.0" fill="#ffba2e" fill-opacity="0.0" fill-rule="evenodd" stroke="none"/>
    </g>
    <g id="shape1" transform="matrix(1.0, 0.0, 0.0, 1.0, -6.75, -2.05)">
      <path d="M18.35 43.3 Q18.0 44.5 22.3 46.1 L26.4 47.05 Q29.0 47.35 31.8 47.0 L26.4 45.65 24.45 45.1 Q22.25 44.4 21.3 43.75 L19.55 42.6 Q18.65 42.1 18.35 43.3 M33.65 45.6 L35.55 47.45 34.7 47.65 32.5 48.05 Q29.15 48.4 26.4 48.05 21.8 47.4 18.75 44.8 L18.35 44.4 18.1 43.85 18.05 43.65 Q18.0 43.1 18.4 42.55 18.85 42.0 18.8 41.35 L18.3 39.5 23.75 40.15 26.4 40.8 Q29.2 41.7 31.05 43.3 L32.9 44.95 24.55 44.05 21.35 43.2 23.45 44.45 Q29.6 46.3 31.0 46.15 L33.65 45.6" fill="#8c8251" fill-rule="evenodd" stroke="none"/>
      <path d="M18.35 43.3 Q18.65 42.1 19.55 42.6 L21.3 43.75 Q22.25 44.4 24.45 45.1 L26.4 45.65 31.8 47.0 Q29.0 47.35 26.4 47.05 L22.3 46.1 Q18.0 44.5 18.35 43.3" fill="#b3a767" fill-rule="evenodd" stroke="none"/>
      <path d="M32.9 44.95 L35.35 45.2 33.65 45.6 31.0 46.15 Q29.6 46.3 23.45 44.45 L21.35 43.2 24.55 44.05 32.9 44.95" fill="#575032" fill-rule="evenodd" stroke="none"/>
      <path d="M10.7 14.0 Q10.35 11.6 13.0 4.5 L14.2 3.0 Q12.3 8.4 12.8 13.35 16.6 10.0 20.45 9.45 15.55 11.3 14.05 14.0 L13.8 18.0 Q17.65 22.95 29.95 24.05 21.75 24.75 12.4 20.15 11.2 17.6 10.7 14.0" fill="#1e151d" fill-rule="evenodd" stroke="none"/>
      <path d="M45.1 27.2 Q46.2 33.8 45.1 41.85 L43.75 44.7 43.5 45.15 41.6 46.75 Q40.25 47.7 37.55 47.25 L35.9 46.8 Q35.0 46.5 32.8 44.95 30.6 43.35 27.7 38.4 30.15 41.2 32.8 43.3 L33.95 44.4 34.25 44.6 Q36.4 46.2 38.85 45.75 41.3 45.35 42.45 44.35 43.6 43.2 44.15 41.45 45.3 37.8 43.95 28.8 L45.1 27.2 M14.2 3.0 Q14.55 2.75 14.95 2.65 19.45 8.4 19.1 8.6 18.75 8.55 19.15 9.0 L20.45 9.45 Q22.55 9.75 25.15 10.75 30.3 12.5 33.65 14.85 37.4 17.0 39.3 20.45 L39.4 20.55 39.55 20.65 39.65 20.7 39.7 21.0 Q35.25 23.25 30.55 23.95 L29.95 24.05 Q17.65 22.95 13.8 18.0 L14.05 14.0 Q15.55 11.3 20.45 9.45 16.6 10.0 12.8 13.35 12.3 8.4 14.2 3.0" fill="#3e2f42" fill-rule="evenodd" stroke="none"/>
      <path d="M43.5 45.15 L41.65 47.65 Q39.1 49.85 34.1 47.4 L28.55 44.7 28.45 44.55 28.4 44.35 27.15 41.9 Q21.65 30.9 25.35 30.3 16.5 29.9 12.4 20.15 21.75 24.75 29.95 24.05 L30.55 23.95 Q35.25 23.25 39.7 21.0 L40.8 23.55 41.2 24.9 43.15 24.3 Q42.85 25.45 35.0 27.3 L40.6 27.45 41.7 26.55 Q47.0 23.3 42.95 30.15 L41.9 31.3 33.05 30.6 Q29.8 30.15 28.05 32.5 26.45 34.75 28.2 37.55 30.0 40.4 34.25 44.55 L34.25 44.6 33.95 44.4 32.8 43.3 Q30.15 41.2 27.7 38.4 30.6 43.35 32.8 44.95 35.0 46.5 35.9 46.8 L37.55 47.25 Q40.25 47.7 41.6 46.75 L43.5 45.15" fill="#1c161d" fill-rule="evenodd" stroke="none"/>
      <path d="M28.55 44.7 Q18.75 36.8 16.9 34.65 13.35 28.05 11.35 19.1 10.75 16.1 10.7 14.0 11.2 17.6 12.4 20.15 16.5 29.9 25.35 30.3 21.65 30.9 27.15 41.9 L28.4 44.35 28.45 44.55 28.55 44.7" fill="#120f13" fill-rule="evenodd" stroke="none"/>
      <path d="M43.95 28.8 Q45.3 37.8 44.15 41.45 43.6 43.2 42.45 44.35 41.3 45.35 38.85 45.75 36.4 46.2 34.25 44.6 L34.25 44.55 Q30.0 40.4 28.2 37.55 26.45 34.75 28.05 32.5 29.8 30.15 33.05 30.6 L41.9 31.3 42.95 30.15 43.95 28.8" fill="#0a070a" fill-rule="evenodd" stroke="none"/>
      <path d="M14.95 2.65 Q15.9 2.3 17.05 2.9 21.4 6.9 23.2 7.7 25.2 8.2 27.2 9.7 40.15 12.4 43.85 18.35 L44.05 18.7 Q43.9 19.5 39.7 21.0 L39.65 20.7 39.55 20.65 39.4 20.55 39.3 20.45 Q37.4 17.0 33.65 14.85 30.3 12.5 25.15 10.75 22.55 9.75 20.45 9.45 L19.15 9.0 Q18.75 8.55 19.1 8.6 19.45 8.4 14.95 2.65" fill="url(#gradient0)" fill-rule="evenodd" stroke="none"/>
      <path d="M44.05 18.7 L44.3 19.35 Q45.0 21.05 45.1 22.85 L45.15 23.0 Q46.5 24.5 46.55 25.05 46.65 25.45 45.55 26.55 L45.1 27.2 43.95 28.8 42.95 30.15 Q47.0 23.3 41.7 26.55 L40.6 27.45 35.0 27.3 Q42.85 25.45 43.15 24.3 L41.2 24.9 40.8 23.55 39.7 21.0 Q43.9 19.5 44.05 18.7" fill="url(#gradient1)" fill-rule="evenodd" stroke="none"/>
      <path d="M44.15 41.45 Q43.6 43.2 42.45 44.35 41.3 45.35 38.85 45.75 36.4 46.2 34.25 44.6 M42.95 30.15 L41.9 31.3 33.05 30.6 Q29.8 30.15 28.05 32.5 26.45 34.75 28.2 37.55 30.0 40.4 34.25 44.55 L34.25 44.6" fill="none" stroke="#000000" stroke-linecap="round" stroke-linejoin="round" stroke-opacity="0.3019608" stroke-width="0.05"/>
      <path d="M18.4 13.85 Q18.1 14.9 18.7 16.15 28.5 14.45 34.75 19.25 26.95 15.1 17.95 17.8 16.55 17.35 16.2 16.4 15.9 14.5 17.2 13.05 20.2 11.65 22.35 12.55 22.7 13.75 21.05 14.4 21.6 13.65 20.55 13.2 19.45 13.05 18.4 13.85" fill="#fbf1bf" fill-rule="evenodd" stroke="none"/>
      <path d="M33.05 11.5 L34.75 11.85 Q35.7 14.6 38.1 17.15 35.45 14.95 33.05 11.5" fill="#fbf1bf" fill-rule="evenodd" stroke="none"/>
      <path d="M23.15 36.2 Q25.6 38.7 26.5 41.2 19.75 41.55 13.15 38.5 17.35 34.8 23.15 36.2" fill="#120f13" fill-rule="evenodd" stroke="none"/>
      <path d="M26.5 41.2 Q19.75 41.55 13.15 38.5 17.35 34.8 23.15 36.2" fill="none" stroke="#000000" stroke-linecap="round" stroke-linejoin="round" stroke-opacity="0.3019608" stroke-width="0.05"/>
      <path d="M22.6 37.1 Q13.65 35.7 7.25 30.95 L9.25 30.4 Q16.0 28.95 21.65 31.35 L21.9 31.35 Q23.35 34.5 22.6 37.1" fill="#120f13" fill-rule="evenodd" stroke="none"/>
      <path d="M22.6 37.1 Q13.65 35.7 7.25 30.95 L9.25 30.4 Q16.0 28.95 21.65 31.35 L21.9 31.35" fill="none" stroke="#000000" stroke-linecap="round" stroke-linejoin="round" stroke-opacity="0.3019608" stroke-width="0.05"/>
      <path d="M21.6 34.45 L17.2 31.25 11.9 31.1 10.6 31.3 15.45 33.6 21.6 34.45" fill="#d6c791" fill-rule="evenodd" stroke="none"/>
      <path d="M34.2 11.7 Q31.15 10.55 27.2 9.75 25.2 8.2 23.2 7.7 21.4 6.95 17.05 2.95 15.9 2.35 14.95 2.7 14.55 2.8 14.2 3.05 L13.05 4.5 Q10.35 11.6 10.7 14.05 10.75 16.1 11.35 19.15 12.65 25.0 14.65 29.9 L9.3 30.45 7.25 30.9 Q11.9 34.4 17.9 36.1 15.35 36.55 13.15 38.5 15.85 39.7 18.5 40.4 L18.8 41.35 Q18.85 42.0 18.4 42.55 18.0 43.1 18.05 43.65 L18.1 43.85 18.35 44.45 18.75 44.8 Q23.65 49.0 32.5 48.1 L34.65 47.7 Q39.3 49.7 41.65 47.65 42.45 47.0 43.5 45.15 L43.75 44.75 45.1 41.85 Q46.2 33.8 45.1 27.2 L45.55 26.55 Q46.65 25.5 46.55 25.05 46.5 24.5 45.15 23.0 L45.1 22.85 Q45.0 21.05 44.3 19.35 L44.05 18.75 43.85 18.35 Q41.4 14.4 34.8 11.95 L34.8 11.85 34.2 11.7 Z" fill="none" stroke="#000000" stroke-linecap="round" stroke-linejoin="round" stroke-opacity="0.3019608" stroke-width="1.0"/>
    </g>
    <radialGradient cx="0" cy="0" gradientTransform="matrix(-0.0094, 0.0115, 0.0193, 0.0157, 31.55, 17.15)" gradientUnits="userSpaceOnUse" id="gradient0" r="819.2" spreadMethod="pad">
      <stop offset="0.11372549019607843" stop-color="#3e2f42"/>
      <stop offset="1.0" stop-color="#1e151d"/>
    </radialGradient>
    <radialGradient cx="0" cy="0" gradientTransform="matrix(-0.0077, 8.0E-4, 0.0013, 0.0128, 39.7, 21.4)" gradientUnits="userSpaceOnUse" id="gradient1" r="819.2" spreadMethod="pad">
      <stop offset="0.11372549019607843" stop-color="#1c161d"/>
      <stop offset="1.0" stop-color="#0f0b0f"/>
    </radialGradient>
  </defs>
</svg>
