<?xml version="1.0" encoding="UTF-8" standalone="no"?>
<svg xmlns:xlink="http://www.w3.org/1999/xlink" height="440.0px" width="440.0px" xmlns="http://www.w3.org/2000/svg">
  <g transform="matrix(10.0, 0.0, 0.0, 10.0, 0.0, 0.0)">
    <use height="44.0" transform="matrix(0.9091, 0.0, 0.0, 0.9091, 2.0, 2.0)" width="44.0" xlink:href="#sprite0"/>
  </g>
  <defs>
    <g id="sprite0" transform="matrix(1.0, 0.0, 0.0, 1.0, 0.0, 0.0)">
      <use height="44.0" transform="matrix(1.0, 0.0, 0.0, 1.0, 0.0, 0.0)" width="44.0" xlink:href="#shape0"/>
      <use height="47.7" transform="matrix(0.7966, 0.0, 0.0, 0.7966, 10.9, 3.0)" width="27.9" xlink:href="#sprite1"/>
    </g>
    <g id="shape0" transform="matrix(1.0, 0.0, 0.0, 1.0, 0.0, 0.0)">
      <path d="M44.0 44.0 L0.0 44.0 0.0 0.0 44.0 0.0 44.0 44.0" fill="#43adca" fill-opacity="0.0" fill-rule="evenodd" stroke="none"/>
    </g>
    <g id="sprite1" transform="matrix(1.0, 0.0, 0.0, 1.0, 0.0, 0.0)">
      <use height="27.8" transform="matrix(1.0, 0.0, 0.0, 1.0, 0.7, 19.9)" width="27.2" xlink:href="#sprite2"/>
      <use height="27.5" transform="matrix(1.0, 0.0, 0.0, 1.0, 0.0, 0.0)" width="21.15" xlink:href="#sprite3"/>
    </g>
    <g id="sprite2" transform="matrix(1.0, 0.0, 0.0, 1.0, 9.5, 0.75)">
      <use height="27.8" transform="matrix(1.0, 0.0, 0.0, 1.0, -9.5, -0.75)" width="27.2" xlink:href="#shape1"/>
    </g>
    <g id="shape1" transform="matrix(1.0, 0.0, 0.0, 1.0, 9.5, 0.75)">
      <path d="M-6.9 13.6 Q-6.95 13.75 -7.1 13.75 -7.4 13.75 -7.95 12.5 -7.95 11.8 -7.4 12.45 -6.85 13.15 -6.85 13.45 L-6.9 13.6" fill="#f5eed3" fill-rule="evenodd" stroke="none"/>
      <path d="M-1.55 22.95 L-1.45 23.2 -2.7 26.2 -2.7 26.0 -2.75 25.25 -1.65 22.75 -1.55 22.95 M-8.7 25.6 L-8.3 24.75 -6.9 25.2 -8.7 25.6" fill="#243339" fill-rule="evenodd" stroke="none"/>
      <path d="M-8.8 24.05 L-7.25 21.25 -7.0 21.0 -7.0 20.95 -6.85 20.95 -4.7 20.65 -5.95 23.0 Q-6.8 22.85 -7.5 23.0 -8.05 23.2 -8.8 24.05 M-2.05 22.1 L-2.0 22.15 -1.65 22.75 -2.75 25.25 -3.15 24.35 -2.05 22.1" fill="#425a68" fill-rule="evenodd" stroke="none"/>
      <path d="M-2.7 26.0 L-3.35 26.75 -4.0 26.9 -6.4 26.85 Q-7.65 26.5 -8.55 25.8 L-8.7 25.6 -6.9 25.2 -8.3 24.75 -8.9 24.55 -8.85 24.1 Q-8.7 23.75 -8.8 24.05 -8.05 23.2 -7.5 23.0 -6.8 22.85 -5.95 23.0 L-5.15 23.2 Q-3.9 23.55 -3.15 24.35 L-2.75 25.25 -2.7 26.0" fill="#2f4654" fill-rule="evenodd" stroke="none"/>
      <path d="M-4.7 20.65 L-4.5 20.65 Q-2.95 20.8 -2.05 22.1 L-3.15 24.35 Q-3.9 23.55 -5.15 23.2 L-5.95 23.0 -4.7 20.65" fill="#78909e" fill-rule="evenodd" stroke="none"/>
      <path d="M-6.25 19.55 L-1.95 20.15 -0.45 20.1 -1.55 22.95 -1.65 22.75 -2.0 22.15 -2.05 22.1 Q-2.95 20.8 -4.5 20.65 L-4.7 20.65 -6.85 20.95 -6.25 19.55" fill="#614b2d" fill-rule="evenodd" stroke="none"/>
      <path d="M-6.25 19.55 Q-5.2 17.1 -4.95 15.5 -1.25 13.2 0.55 15.8 L-0.45 20.1 -1.95 20.15 -6.25 19.55" fill="#463620" fill-rule="evenodd" stroke="none"/>
      <path d="M-1.55 22.95 L-1.45 23.2 -2.7 26.2 -2.7 26.0 -3.35 26.75 -4.0 26.9 -6.4 26.85 Q-7.65 26.5 -8.55 25.8 L-8.7 25.6 -8.3 24.75 -8.9 24.55 -8.85 24.1 Q-8.7 23.75 -8.8 24.05 L-7.25 21.25 -7.15 21.0 -7.0 21.0 -7.0 20.95 -6.85 20.95 -4.7 20.65 -4.5 20.65 Q-2.95 20.8 -2.05 22.1 L-2.0 22.15 -1.65 22.75 -1.55 22.95 M-7.25 21.25 L-7.0 21.0 M-5.95 23.0 L-5.15 23.2 Q-3.9 23.55 -3.15 24.35 L-2.75 25.25 -2.7 26.0 M-5.95 23.0 Q-6.8 22.85 -7.5 23.0 -8.05 23.2 -8.8 24.05 M-8.7 25.6 L-6.9 25.2 -8.3 24.75" fill="none" stroke="#293841" stroke-linecap="round" stroke-linejoin="round" stroke-width="0.05"/>
      <path d="M-0.45 20.1 L0.55 15.8 Q-1.25 13.2 -4.95 15.5 -5.2 17.1 -6.25 19.55 M-0.45 20.1 L-1.55 22.95 M-6.85 20.95 L-6.25 19.55" fill="none" stroke="#513f26" stroke-linecap="round" stroke-linejoin="round" stroke-width="0.05"/>
      <path d="M16.9 14.0 L17.7 14.2 16.4 15.2 16.9 14.0 M14.35 18.45 L14.5 18.55 11.75 17.6 11.7 17.35 11.6 17.25 13.95 18.0 14.35 18.45" fill="#243339" fill-rule="evenodd" stroke="none"/>
      <path d="M13.5 12.7 L13.55 12.55 13.6 12.6 13.9 12.6 16.7 13.25 15.25 13.5 14.3 14.5 11.95 13.95 Q12.55 13.2 13.5 12.7 M13.55 17.2 L13.95 18.0 11.6 17.25 11.45 16.6 11.45 16.55 13.55 17.2" fill="#425a68" fill-rule="evenodd" stroke="none"/>
      <path d="M16.7 13.25 L16.8 13.25 17.1 13.45 16.9 14.0 16.4 15.2 17.7 14.2 17.7 14.4 Q17.65 15.4 17.1 16.5 16.6 17.6 15.75 18.1 L15.3 18.45 Q14.85 18.65 14.35 18.45 L13.95 18.0 13.55 17.2 Q13.5 16.15 13.95 15.2 L14.3 14.5 15.25 13.5 16.7 13.25" fill="#2f4654" fill-rule="evenodd" stroke="none"/>
      <path d="M14.3 14.5 L13.95 15.2 Q13.5 16.15 13.55 17.2 L11.45 16.55 Q11.1 15.2 11.9 14.1 L11.95 13.95 14.3 14.5" fill="#78909e" fill-rule="evenodd" stroke="none"/>
      <path d="M12.25 12.25 L13.5 12.7 Q12.55 13.2 11.95 13.95 L11.9 14.1 Q11.1 15.2 11.45 16.55 L11.45 16.6 11.6 17.25 11.7 17.35 9.15 16.4 10.1 15.5 Q11.25 14.15 12.25 12.25" fill="#614b2d" fill-rule="evenodd" stroke="none"/>
      <path d="M9.15 16.4 Q7.35 15.6 5.7 14.6 4.95 11.85 8.75 10.75 9.95 11.5 12.25 12.25 11.25 14.15 10.1 15.5 L9.15 16.4" fill="#463620" fill-rule="evenodd" stroke="none"/>
      <path d="M13.5 12.7 L13.55 12.55 13.6 12.6 13.7 12.5 13.9 12.6 16.7 13.25 16.8 13.25 17.1 13.45 16.9 14.0 17.7 14.2 17.7 14.4 Q17.65 15.4 17.1 16.5 16.6 17.6 15.75 18.1 L15.3 18.45 Q14.85 18.65 14.35 18.45 L14.5 18.55 11.75 17.6 11.7 17.35 M16.7 13.25 L15.25 13.5 14.3 14.5 13.95 15.2 Q13.5 16.15 13.55 17.2 L13.95 18.0 14.35 18.45 M13.9 12.6 L13.6 12.6 M11.95 13.95 L11.9 14.1 Q11.1 15.2 11.45 16.55 L11.45 16.6 11.6 17.25 11.7 17.35 M13.5 12.7 Q12.55 13.2 11.95 13.95 M16.9 14.0 L16.4 15.2 17.7 14.2" fill="none" stroke="#293841" stroke-linecap="round" stroke-linejoin="round" stroke-width="0.05"/>
      <path d="M9.15 16.4 Q7.35 15.6 5.7 14.6 4.95 11.85 8.75 10.75 9.95 11.5 12.25 12.25 L13.5 12.7 M11.7 17.35 L9.15 16.4" fill="none" stroke="#513f26" stroke-linecap="round" stroke-linejoin="round" stroke-width="0.05"/>
      <path d="M-5.7 1.8 Q-5.1 2.05 -4.45 2.45 L-2.8 3.4 -2.55 3.35 -1.85 3.45 -1.25 3.45 -1.25 3.4 -0.45 3.35 0.15 3.3 2.8 2.85 4.05 2.75 4.9 2.6 5.3 2.45 5.3 2.4 Q6.15 0.6 8.0 -0.35 L9.35 -0.75 9.1 0.1 9.15 0.1 9.2 0.15 Q9.7 2.35 6.25 2.9 L6.25 2.95 8.0 3.2 Q8.6 3.4 9.3 4.0 L10.4 5.05 10.35 5.1 10.4 5.15 10.45 5.2 10.65 7.05 Q10.65 8.75 9.8 9.5 L9.05 9.65 8.5 9.05 Q8.1 8.75 7.8 8.75 7.3 8.75 6.8 9.15 6.3 9.5 6.25 9.85 L5.7 9.45 Q5.2 9.45 4.9 9.85 L4.7 10.2 4.7 10.5 4.45 11.75 4.4 11.8 4.15 12.75 Q3.45 12.95 3.45 14.15 L3.45 14.2 3.2 14.75 Q3.2 15.45 3.6 15.95 4.05 16.45 4.55 16.25 4.5 17.1 5.3 17.8 L6.2 18.35 Q5.5 18.95 4.55 18.95 L3.5 18.8 Q3.15 18.65 3.05 18.15 L3.0 18.15 Q3.1 18.75 2.55 19.35 2.0 19.95 1.15 19.95 L0.05 19.7 -0.65 19.3 -1.05 19.9 -1.95 20.05 -2.95 19.85 -3.9 19.25 -4.05 19.1 -4.2 19.0 -4.65 18.1 -4.7 18.1 -5.3 18.35 Q-5.8 18.35 -6.2 17.95 -6.7 17.45 -6.7 16.65 -6.7 15.55 -6.15 14.5 L-5.25 12.75 Q-6.05 12.8 -6.65 11.8 L-7.0 11.05 -7.3 9.1 Q-7.3 7.95 -6.85 6.9 -6.45 5.85 -6.0 5.7 L-6.05 5.65 -6.5 5.0 -6.85 3.85 Q-6.85 3.15 -5.9 2.0 L-5.7 1.8 M11.65 9.2 L12.1 10.2 11.9 10.45 11.3 9.95 Q11.15 9.6 11.15 9.25 11.15 8.6 11.65 9.2 M3.85 8.65 L4.0 8.3 Q4.15 8.1 4.6 8.05 L5.15 7.8 5.4 7.4 Q4.0 6.35 3.25 6.7 2.75 6.85 2.05 7.8 L1.7 7.55 0.85 7.4 0.1 7.6 -0.35 7.8 Q-1.1 7.35 -1.55 7.35 -1.8 7.35 -2.15 7.7 L-2.45 8.25 -2.1 9.0 Q-1.6 9.6 -0.75 9.6 L0.4 9.4 1.6 9.7 2.9 9.25 3.85 8.65 M0.1 15.2 L0.55 14.7 Q0.4 14.5 0.25 14.5 L-1.15 14.45 -1.4 14.3 -1.75 14.3 Q-2.2 13.9 -2.5 14.0 L-2.75 14.3 Q-1.85 15.5 -1.0 15.5 L0.1 15.2 M-3.05 16.65 L-2.8 16.7 -3.05 16.6 -2.35 16.5 Q-1.85 16.5 -1.45 16.8 -1.05 17.1 -0.9 18.05 L-0.75 16.8 -0.7 16.9 -0.4 16.45 0.15 16.2 1.35 15.45 1.3 15.4 -0.05 15.9 -2.05 15.75 -3.65 14.15 Q-3.1 15.0 -3.1 16.05 L-3.05 16.6 -3.05 16.65 -3.3 17.8 -3.05 16.65 M2.15 16.45 Q2.15 15.9 1.5 15.9 0.55 15.9 0.05 16.75 L-0.3 17.9 Q-0.45 18.55 0.2 18.55 1.0 18.55 1.65 17.6 L2.15 16.45 M-8.75 5.3 Q-8.65 5.15 -8.35 5.8 L-8.05 6.35 -7.8 6.7 -8.2 6.95 Q-8.7 6.95 -8.8 5.8 L-8.75 5.3 M-8.0 11.7 L-8.25 11.4 Q-8.25 11.15 -8.0 11.2 -7.8 11.2 -7.8 11.45 L-8.0 11.7 M-1.9 12.35 L-1.85 12.35 -2.05 12.9 Q-1.3 11.4 1.5 10.2 L-0.15 10.65 Q-1.4 10.95 -2.9 9.4 L-1.7 10.8 Q-1.55 10.95 -1.55 11.35 -1.55 11.75 -1.7 12.05 L-1.9 12.35 M-7.0 13.8 Q-7.5 13.8 -8.0 12.5 L-7.3 12.55 -6.65 13.5 Q-6.65 13.8 -7.0 13.8 M-8.1 16.9 L-7.9 16.45 Q-7.7 16.4 -7.7 16.9 L-7.45 17.55 -7.2 18.0 -7.4 18.25 Q-7.7 18.25 -7.95 17.65 L-8.1 16.9" fill="#f5eed3" fill-rule="evenodd" stroke="none"/>
      <path d="M9.2 0.15 L9.3 0.2 Q10.05 0.45 10.5 1.15 11.2 2.1 11.1 3.3 11.05 4.35 10.4 5.05 L9.3 4.0 Q8.6 3.4 8.0 3.2 L6.25 2.95 6.25 2.9 Q9.7 2.35 9.2 0.15 M10.45 5.2 L10.55 5.45 11.15 7.4 11.2 8.3 11.7 8.8 Q12.5 9.8 12.45 11.0 L12.45 11.25 Q12.15 11.0 11.65 11.05 L11.25 10.45 11.15 10.35 Q10.45 9.5 9.9 9.5 L9.8 9.5 Q10.65 8.75 10.65 7.05 L10.45 5.2 M12.95 12.0 L13.0 12.1 Q13.5 13.0 12.9 14.45 L12.8 14.75 12.55 14.15 12.25 13.45 12.95 12.0 M9.6 17.35 Q9.3 18.6 8.0 19.45 6.6 20.35 5.05 20.3 L3.95 20.0 3.15 20.85 Q2.2 21.45 1.0 21.25 0.3 21.15 -0.2 20.7 -0.55 21.15 -1.2 21.35 L-3.6 21.45 -5.25 20.5 -5.65 20.1 -5.65 20.05 -5.9 19.65 -7.35 19.3 Q-8.25 18.65 -8.35 17.5 -8.55 16.35 -7.9 15.4 L-7.25 14.6 -7.7 14.15 -8.25 13.25 -8.65 12.2 -8.8 11.4 Q-9.05 9.65 -8.55 8.3 L-8.15 7.4 -8.65 7.15 Q-9.4 6.45 -9.5 5.3 L-9.4 4.05 -8.95 3.05 -8.85 2.95 Q-8.3 2.15 -7.5 1.85 L-7.7 1.55 -5.7 1.8 -5.9 2.0 Q-6.85 3.15 -6.85 3.85 L-6.5 5.0 -6.05 5.65 -6.0 5.7 Q-6.45 5.85 -6.85 6.9 -7.3 7.95 -7.3 9.1 L-7.0 11.05 -6.65 11.8 Q-6.05 12.8 -5.25 12.75 L-6.15 14.5 Q-6.7 15.55 -6.7 16.65 -6.7 17.45 -6.2 17.95 -5.8 18.35 -5.3 18.35 L-4.7 18.1 -4.65 18.1 -4.2 19.0 -4.05 19.1 -3.9 19.25 -2.95 19.85 -1.95 20.05 -1.05 19.9 -0.65 19.3 0.05 19.7 1.15 19.95 Q2.0 19.95 2.55 19.35 3.1 18.75 3.0 18.15 L3.05 18.15 Q3.15 18.65 3.5 18.8 L4.55 18.95 Q5.5 18.95 6.2 18.35 L5.3 17.8 Q4.5 17.1 4.55 16.25 4.05 16.45 3.6 15.95 3.2 15.45 3.2 14.75 L3.45 14.2 Q3.45 14.7 3.95 14.95 L4.65 15.1 4.65 15.15 Q4.4 15.5 4.9 16.2 L5.1 16.45 Q5.75 17.8 7.2 17.8 L8.4 17.45 8.7 17.05 9.1 17.2 9.6 17.35 M11.65 9.2 Q11.15 8.6 11.15 9.25 11.15 9.6 11.3 9.95 L11.9 10.45 12.1 10.2 11.65 9.2 M-3.1 16.05 Q-3.1 15.0 -3.65 14.15 L-2.05 15.75 -0.05 15.9 1.3 15.4 1.35 15.45 0.15 16.2 -0.4 16.45 -0.7 16.9 -0.75 16.8 -0.9 18.05 Q-1.05 17.1 -1.45 16.8 -1.85 16.5 -2.35 16.5 L-3.05 16.6 -2.8 16.7 -3.05 16.65 -3.05 16.6 -3.1 16.05 M-8.0 11.7 L-7.8 11.45 Q-7.8 11.2 -8.0 11.2 -8.25 11.15 -8.25 11.4 L-8.0 11.7 M-8.75 5.3 L-8.8 5.8 Q-8.7 6.95 -8.2 6.95 L-7.8 6.7 -8.05 6.35 -8.35 5.8 Q-8.65 5.15 -8.75 5.3 M-1.9 12.35 L-1.7 12.05 Q-1.55 11.75 -1.55 11.35 -1.55 10.95 -1.7 10.8 L-2.9 9.4 Q-1.4 10.95 -0.15 10.65 L1.5 10.2 Q-1.3 11.4 -2.05 12.9 L-1.85 12.35 -1.9 12.35 M-7.0 13.8 Q-6.65 13.8 -6.65 13.5 L-7.3 12.55 -8.0 12.5 Q-7.5 13.8 -7.0 13.8 M-6.65 14.15 L-7.25 14.6 -6.65 14.15 M-8.1 16.9 L-7.95 17.65 Q-7.7 18.25 -7.4 18.25 L-7.2 18.0 -7.45 17.55 -7.7 16.9 Q-7.7 16.4 -7.9 16.45 L-8.1 16.9 M-5.9 19.65 L-5.65 19.6 -5.3 19.6 -4.2 19.0 -5.3 19.6 -5.65 19.6 -5.9 19.65" fill="#d5c798" fill-rule="evenodd" stroke="none"/>
      <path d="M12.45 11.25 L12.95 12.0 12.25 13.45 12.55 14.15 12.8 14.75 12.35 15.5 11.05 16.75 9.6 17.35 9.1 17.2 8.7 17.05 8.4 17.45 7.2 17.8 Q5.75 17.8 5.1 16.45 5.6 17.0 6.5 17.0 L7.1 16.95 7.9 16.55 8.35 15.8 8.45 15.85 8.65 15.95 9.2 16.1 9.6 15.95 10.35 15.3 Q11.1 14.45 11.1 13.85 L10.8 13.3 10.4 13.0 11.25 12.95 Q11.95 12.8 11.95 12.05 L11.75 11.25 11.65 11.05 Q12.15 11.0 12.45 11.25" fill="#c7b985" fill-rule="evenodd" stroke="none"/>
      <path d="M9.15 0.1 L9.2 0.15 9.15 0.1" fill="#647e3b" fill-rule="evenodd" stroke="none"/>
      <path d="M3.85 8.65 L2.9 9.25 1.6 9.7 0.4 9.4 -0.75 9.6 Q-1.6 9.6 -2.1 9.0 L-2.45 8.25 -2.15 7.7 Q-1.8 7.35 -1.55 7.35 -1.1 7.35 -0.35 7.8 L0.1 7.6 0.85 7.4 1.7 7.55 2.05 7.8 Q2.75 6.85 3.25 6.7 4.0 6.35 5.4 7.4 L5.15 7.8 4.6 8.05 Q4.15 8.1 4.0 8.3 L3.85 8.65 M0.1 15.2 L-1.0 15.5 Q-1.85 15.5 -2.75 14.3 L-2.5 14.0 Q-2.2 13.9 -1.75 14.3 L-1.4 14.3 -1.15 14.45 0.25 14.5 Q0.4 14.5 0.55 14.7 L0.1 15.2 M2.15 16.45 L1.65 17.6 Q1.0 18.55 0.2 18.55 -0.45 18.55 -0.3 17.9 L0.05 16.75 Q0.55 15.9 1.5 15.9 2.15 15.9 2.15 16.45" fill="#f2ede1" fill-rule="evenodd" stroke="none"/>
      <path d="M8.65 15.95 L8.45 15.85 8.35 15.8 8.35 15.7 8.65 15.95 M8.35 15.65 L8.35 15.7 8.3 15.65 8.35 15.65" fill="#e4dbbf" fill-rule="evenodd" stroke="none"/>
      <path d="M9.35 -0.75 L9.1 0.1 9.15 0.1 9.2 0.15 9.3 0.2 Q10.05 0.45 10.5 1.15 11.2 2.1 11.1 3.3 11.05 4.35 10.4 5.05 L10.35 5.1 10.4 5.15 10.45 5.2 10.55 5.45 11.15 7.4 11.2 8.3 11.7 8.8 Q12.5 9.8 12.45 11.0 L12.45 11.25 12.95 12.0 13.0 12.1 Q13.5 13.0 12.9 14.45 L12.8 14.75 12.35 15.5 11.05 16.75 9.6 17.35 Q9.3 18.6 8.0 19.45 6.6 20.35 5.05 20.3 L3.95 20.0 3.15 20.85 Q2.2 21.45 1.0 21.25 0.3 21.15 -0.2 20.7 -0.55 21.15 -1.2 21.35 L-3.6 21.45 -5.25 20.5 -5.65 20.1 -5.65 20.05 -5.9 19.65 -7.35 19.3 Q-8.25 18.65 -8.35 17.5 -8.55 16.35 -7.9 15.4 L-7.25 14.6 -7.7 14.15 -8.25 13.25 -8.65 12.2 -8.8 11.4 Q-9.05 9.65 -8.55 8.3 L-8.15 7.4 -8.65 7.15 Q-9.4 6.45 -9.5 5.3 L-9.4 4.05 -8.95 3.05 -8.85 2.95 Q-8.3 2.15 -7.5 1.85 L-7.7 1.55 M11.65 11.05 Q12.15 11.0 12.45 11.25 M-3.05 16.65 L-3.3 17.8 M-3.05 16.6 L-3.1 16.05 M-3.05 16.6 L-3.05 16.65 M-7.25 14.6 L-6.65 14.15 M-4.2 19.0 L-5.3 19.6 -5.65 19.6 -5.9 19.65" fill="none" stroke="#867d5f" stroke-linecap="round" stroke-linejoin="round" stroke-width="0.05"/>
      <path d="M10.75 6.75 L11.35 6.55 Q11.85 6.4 12.25 6.95 L11.7 8.4 11.55 8.45 9.95 8.85 9.7 8.8 10.15 8.35 10.7 7.0 10.75 6.75 M12.2 5.95 Q11.65 6.45 11.3 6.2 L10.7 5.95 10.4 5.2 9.9 4.45 9.75 4.3 9.75 4.25 11.35 4.6 Q12.0 5.2 12.2 5.95 M3.85 7.55 L4.3 8.2 5.35 10.05 5.6 10.75 4.1 10.65 2.25 7.75 2.15 7.7 3.25 7.45 3.85 7.55 M3.0 11.85 L0.7 11.2 -1.0 9.65 -0.55 9.1 0.65 8.7 0.75 8.8 2.0 10.0 3.5 10.5 3.5 10.6 Q3.5 11.3 3.0 11.85 M-1.45 8.7 Q-1.8 7.55 -1.25 6.35 L0.5 5.2 Q0.2 5.9 0.15 6.55 0.05 7.35 0.3 8.05 L0.05 8.0 Q-0.15 8.9 -1.45 8.7 M12.6 15.6 Q12.5 14.7 11.75 14.2 L11.35 13.95 9.85 13.2 Q8.8 12.75 9.6 12.9 L10.0 12.75 11.35 13.1 11.65 13.25 Q12.25 13.75 13.25 14.25 13.85 14.7 14.15 15.6 L13.45 15.75 12.6 15.6 M14.3 16.6 L14.3 16.95 Q14.3 17.95 13.45 19.65 L12.45 19.45 11.55 19.15 Q12.35 17.8 12.55 16.65 L12.6 16.4 13.35 16.1 Q13.9 15.95 14.3 16.6 M0.65 18.3 Q0.85 16.9 1.9 15.5 3.2 14.05 4.1 13.5 L2.95 14.9 2.25 16.25 Q2.1 16.7 2.1 17.8 L2.1 17.95 1.85 17.9 Q1.25 18.4 0.65 18.3 M2.2 19.0 Q2.6 20.95 4.4 21.8 L4.35 21.85 2.6 22.7 Q2.05 22.7 1.3 21.45 L0.7 20.0 0.6 19.7 Q0.8 19.1 1.25 18.85 1.7 18.6 2.2 19.0" fill="#ce3639" fill-rule="evenodd" stroke="none"/>
      <path d="M10.4 5.2 Q9.55 5.65 9.15 7.3 L9.05 7.75 8.85 9.45 9.55 8.95 9.7 8.8 9.95 8.85 11.55 8.45 11.7 8.4 11.45 8.75 11.35 8.9 Q10.05 10.3 8.75 10.35 L7.75 10.1 7.8 10.05 7.8 9.4 8.1 7.2 8.15 6.95 Q8.55 5.1 9.5 4.45 L9.75 4.3 9.9 4.45 10.4 5.2 M8.85 9.45 L7.8 10.05 8.85 9.45 M0.5 5.2 Q2.15 5.2 3.85 7.55 L3.25 7.45 2.15 7.7 Q1.15 6.65 0.15 6.55 0.2 5.9 0.5 5.2 M5.6 10.75 L5.7 10.75 4.6 11.6 3.0 11.85 Q3.5 11.3 3.5 10.6 L3.5 10.5 4.1 10.65 5.6 10.75" fill="#9a282a" fill-rule="evenodd" stroke="none"/>
      <path d="M10.7 6.0 L10.7 5.95 11.3 6.2 Q11.65 6.45 12.2 5.95 L12.25 6.95 Q11.85 6.4 11.35 6.55 L10.75 6.75 10.7 6.0 M-1.0 9.65 L-1.45 8.7 Q-0.15 8.9 0.05 8.0 L0.3 8.05 0.4 8.25 0.65 8.7 -0.55 9.1 -1.0 9.65 M14.15 15.6 L14.3 16.6 Q13.9 15.95 13.35 16.1 L12.6 16.4 12.6 15.85 12.6 15.7 12.6 15.6 13.45 15.75 14.15 15.6 M0.65 18.3 Q1.25 18.4 1.85 17.9 L2.1 17.95 2.15 18.45 2.2 19.0 Q1.7 18.6 1.25 18.85 0.8 19.1 0.6 19.7 L0.55 19.15 0.55 19.0 0.6 18.45 0.65 18.3" fill="#ff4347" fill-rule="evenodd" stroke="none"/>
      <path d="M10.7 6.0 L10.75 6.75 M12.25 6.95 L12.2 5.95 M10.7 5.95 L10.4 5.2 Q9.55 5.65 9.15 7.3 M9.05 7.75 L8.85 9.45 9.55 8.95 M9.7 8.8 L10.15 8.35 10.7 7.0 10.75 6.75 M9.75 4.25 L11.35 4.6 Q12.0 5.2 12.2 5.95 M7.8 10.05 L7.75 10.1 8.75 10.35 Q10.05 10.3 11.35 8.9 L11.45 8.75 11.7 8.4 12.25 6.95 M10.4 5.2 L9.9 4.45 9.75 4.3 9.5 4.45 Q8.55 5.1 8.15 6.95 M8.1 7.2 L7.8 9.4 7.8 10.05 8.85 9.45 M9.75 4.25 L9.7 4.25 9.75 4.3 9.65 4.25 9.7 4.25 M0.5 5.2 L0.5 5.15 0.55 5.1 0.5 5.2 Q2.15 5.2 3.85 7.55 L4.3 8.2 5.35 10.05 5.6 10.75 5.7 10.75 4.6 11.6 3.0 11.85 0.7 11.2 -1.0 9.65 -1.45 8.7 Q-1.8 7.55 -1.25 6.35 L0.5 5.2 0.5 5.15 M2.15 7.7 Q1.15 6.65 0.15 6.55 0.05 7.35 0.3 8.05 L0.4 8.25 0.65 8.7 M0.75 8.8 L2.0 10.0 3.5 10.5 4.1 10.65 2.25 7.75 M0.5 5.2 Q0.2 5.9 0.15 6.55 M5.6 10.75 L4.1 10.65 M12.6 15.6 Q12.5 14.7 11.75 14.2 L11.35 13.95 9.85 13.2 Q8.8 12.75 9.6 12.9 L10.0 12.75 11.35 13.1 11.65 13.25 Q12.25 13.75 13.25 14.25 13.85 14.7 14.15 15.6 L14.3 16.6 14.3 16.95 Q14.3 17.95 13.45 19.65 L12.45 19.45 11.55 19.15 Q12.35 17.8 12.55 16.65 L12.6 16.4 12.6 15.85 12.6 15.7 M2.1 17.95 L2.1 17.8 Q2.1 16.7 2.25 16.25 L2.95 14.9 4.1 13.5 Q3.2 14.05 1.9 15.5 0.85 16.9 0.65 18.3 M2.1 17.95 L2.15 18.45 2.2 19.0 Q2.6 20.95 4.4 21.8 L4.35 21.85 2.6 22.7 Q2.05 22.7 1.3 21.45 L0.7 20.0 0.6 19.7 0.55 19.15 0.55 19.0 0.6 18.45 0.65 18.3" fill="none" stroke="#800000" stroke-linecap="round" stroke-linejoin="round" stroke-width="0.05"/>
      <path d="M9.05 9.65 L9.8 9.5 9.9 9.5 Q10.45 9.5 11.15 10.35 L11.25 10.45 11.65 11.05 11.75 11.25 11.95 12.05 Q11.95 12.8 11.25 12.95 L10.4 13.0 10.8 13.3 11.1 13.85 Q11.1 14.45 10.35 15.3 L9.6 15.95 9.2 16.1 8.65 15.95 8.35 15.7 8.35 15.8 7.9 16.55 7.1 16.95 6.5 17.0 Q5.6 17.0 5.1 16.45 L4.9 16.2 Q4.4 15.5 4.65 15.15 L4.65 15.1 3.95 14.95 Q3.45 14.7 3.45 14.2 L3.45 14.15 Q3.45 12.95 4.15 12.75 L4.2 12.75 4.0 13.1 Q4.0 13.45 4.5 13.8 4.95 14.1 5.2 14.0 5.2 14.9 6.35 14.9 6.85 14.9 7.35 14.5 L7.8 13.75 7.7 13.55 7.75 13.5 8.55 13.75 Q9.05 13.75 9.45 13.4 9.85 13.0 9.85 12.45 9.85 10.95 8.35 10.5 L8.85 10.2 9.05 9.65 M11.0 12.1 L11.2 12.3 11.45 11.8 Q11.45 11.3 11.2 11.35 10.95 11.4 10.95 11.9 L11.0 12.1 M9.8 15.35 L9.75 15.2 9.35 15.25 9.15 15.4 9.4 15.65 9.65 15.55 9.8 15.35 M8.3 15.65 L8.35 15.7 8.35 15.65 8.3 15.65" fill="#d5c798" fill-rule="evenodd" stroke="none"/>
      <path d="M4.15 12.75 L4.4 11.8 Q4.4 12.3 5.15 12.55 L5.3 13.0 Q5.45 13.4 5.8 13.4 L6.75 12.6 7.25 12.75 7.9 12.5 8.15 12.05 Q8.15 11.7 7.35 11.25 L7.85 10.65 Q7.85 10.25 7.4 10.25 7.1 10.25 6.75 10.5 L6.2 10.75 Q5.95 10.5 5.7 10.5 L4.9 11.1 Q4.5 11.55 4.45 11.75 L4.7 10.5 4.7 10.2 4.9 9.85 Q5.2 9.45 5.7 9.45 L6.25 9.85 Q6.3 9.5 6.8 9.15 7.3 8.75 7.8 8.75 8.1 8.75 8.5 9.05 L9.05 9.65 8.85 10.2 8.35 10.5 Q9.85 10.95 9.85 12.45 9.85 13.0 9.45 13.4 9.05 13.75 8.55 13.75 L7.75 13.5 7.7 13.55 7.8 13.75 7.35 14.5 Q6.85 14.9 6.35 14.9 5.2 14.9 5.2 14.0 4.95 14.1 4.5 13.8 4.0 13.45 4.0 13.1 L4.2 12.75 4.15 12.75 M11.0 12.1 L10.95 11.9 Q10.95 11.4 11.2 11.35 11.45 11.3 11.45 11.8 L11.2 12.3 11.0 12.1 M9.8 15.35 L9.65 15.55 9.4 15.65 9.15 15.4 9.35 15.25 9.75 15.2 9.8 15.35" fill="#f5eed3" fill-rule="evenodd" stroke="none"/>
      <path d="M4.4 11.8 L4.45 11.75 Q4.5 11.55 4.9 11.1 L5.7 10.5 Q5.95 10.5 6.2 10.75 L6.75 10.5 Q7.1 10.25 7.4 10.25 7.85 10.25 7.85 10.65 L7.35 11.25 Q8.15 11.7 8.15 12.05 L7.9 12.5 7.25 12.75 6.75 12.6 5.8 13.4 Q5.45 13.4 5.3 13.0 L5.15 12.55 Q4.4 12.3 4.4 11.8" fill="#f2ede1" fill-rule="evenodd" stroke="none"/>
      <path d="M9.05 9.65 L9.8 9.5 9.9 9.5 Q10.45 9.5 11.15 10.35 L11.25 10.45 11.65 11.05 11.75 11.25 11.95 12.05 Q11.95 12.8 11.25 12.95 L10.4 13.0 10.8 13.3 11.1 13.85 Q11.1 14.45 10.35 15.3 L9.6 15.95 9.2 16.1 8.65 15.95 8.35 15.7 8.35 15.8 7.9 16.55 7.1 16.95 6.5 17.0 Q5.6 17.0 5.1 16.45 L4.9 16.2 Q4.4 15.5 4.65 15.15 L4.65 15.1 3.95 14.95 Q3.45 14.7 3.45 14.2 L3.45 14.15 Q3.45 12.95 4.15 12.75 M4.7 10.5 L4.7 10.2 4.9 9.85 Q5.2 9.45 5.7 9.45 L6.25 9.85 Q6.3 9.5 6.8 9.15 7.3 8.75 7.8 8.75 8.1 8.75 8.5 9.05 L9.05 9.65 M4.2 12.75 L4.15 12.75 M8.3 15.65 L8.35 15.7 8.35 15.65 8.3 15.65" fill="none" stroke="#867d5f" stroke-linecap="round" stroke-linejoin="round" stroke-width="0.05"/>
    </g>
    <g id="sprite3" transform="matrix(1.0, 0.0, 0.0, 1.0, 3.9, 2.05)">
      <use height="27.5" transform="matrix(1.0, 0.0, 0.0, 1.0, -3.9, -2.05)" width="21.15" xlink:href="#shape2"/>
    </g>
    <g id="shape2" transform="matrix(1.0, 0.0, 0.0, 1.0, 3.9, 2.05)">
      <path d="M2.5 -1.5 L2.45 -1.6 2.5 -1.6 3.0 -0.75 2.5 -1.5" fill="#c84524" fill-rule="evenodd" stroke="none"/>
      <path d="M3.85 2.65 L3.9 2.55 3.9 2.75 3.85 2.65" fill="#a64014" fill-rule="evenodd" stroke="none"/>
      <path d="M2.5 -1.6 L2.45 -1.6 2.2 -2.05 5.1 -0.05 5.25 0.1 5.65 0.35 5.8 0.45 8.75 3.05 9.6 6.45 10.5 11.85 10.55 12.1 11.1 15.65 11.35 17.25 10.95 17.15 7.45 16.4 3.95 16.3 0.8 17.05 0.8 15.8 0.7 13.65 Q0.5 10.35 -0.35 6.45 L-1.05 3.55 -2.95 0.45 Q-3.35 -0.45 -2.4 0.3 L-0.15 2.35 2.4 3.15 2.8 3.25 3.3 2.8 3.85 2.65 3.9 2.75 4.1 2.55 4.65 1.65 Q4.7 1.1 4.35 0.45 L4.0 -0.05 3.85 -0.25 2.5 -1.6 M-1.2 8.1 Q-0.95 7.7 -0.9 8.25 L-0.75 9.45 -0.95 9.7 -1.3 9.25 -1.4 8.7 -1.2 8.1" fill="#f5eed3" fill-rule="evenodd" stroke="none"/>
      <path d="M3.0 -0.75 L2.5 -1.6 3.85 -0.25 4.0 -0.05 4.35 0.45 Q4.7 1.1 4.65 1.65 L4.1 2.55 3.9 2.75 3.9 2.55 Q4.05 1.6 3.6 0.45 L3.2 -0.35 3.05 -0.65 3.0 -0.75" fill="#9d8f6e" fill-rule="evenodd" stroke="none"/>
      <path d="M9.6 6.45 L10.5 11.85 10.55 12.1 11.1 15.65 11.35 17.25 M0.8 17.05 L0.8 15.8 0.7 13.65 Q0.5 10.35 -0.35 6.45" fill="none" stroke="#384425" stroke-linecap="round" stroke-linejoin="round" stroke-width="0.05"/>
      <path d="M2.45 -1.6 L2.5 -1.5 M3.0 -0.75 L2.5 -1.6 M2.45 -1.6 L2.2 -2.05 5.1 -0.05 5.25 0.1 5.65 0.35 5.8 0.45 8.75 3.05 9.6 6.45 M-0.35 6.45 L-1.05 3.55 -2.95 0.45 Q-3.35 -0.45 -2.4 0.3 L-0.15 2.35 2.4 3.15 2.8 3.25 3.3 2.8 3.85 2.65 3.9 2.55 Q4.05 1.6 3.6 0.45 L3.2 -0.35 3.05 -0.65 3.0 -0.75 M3.9 2.75 L3.9 2.55" fill="none" stroke="#84785c" stroke-linecap="round" stroke-linejoin="round" stroke-width="0.05"/>
      <path d="M-2.3 4.55 L-2.25 4.6 -1.85 4.4 -1.85 4.45 -2.05 4.55 -2.05 4.6 -2.1 4.6 -2.15 4.65 -2.2 4.65 -2.3 4.65 -2.3 4.55 M-2.2 4.65 L-2.1 4.6 -2.2 4.65 M-2.3 4.65 L-2.25 4.6 -2.3 4.65" fill="#f3ecc7" fill-rule="evenodd" stroke="none"/>
      <path d="M14.1 7.55 L13.2 7.85 Q12.35 7.85 10.8 7.1 11.65 6.85 12.15 5.45 L12.2 4.0 12.2 3.85 12.3 4.0 13.65 6.45 14.1 7.55 M9.85 1.95 L9.65 2.2 Q9.05 2.7 8.45 2.85 L8.15 2.8 8.55 1.85 8.75 0.8 8.25 0.1 8.75 0.5 9.7 1.8 9.75 1.9 9.85 1.95 M3.85 1.2 Q4.55 1.35 5.0 2.4 L4.55 2.05 4.1 1.85 3.8 1.45 3.85 1.25 3.85 1.2 M2.75 2.95 L3.2 2.85 Q3.95 2.85 4.55 3.5 5.2 4.15 5.2 5.05 5.6 4.75 6.25 5.3 6.95 5.85 6.95 6.7 L6.8 7.85 Q6.85 7.2 6.25 6.55 5.6 5.85 4.9 5.85 L4.6 5.9 3.4 4.1 2.85 3.4 2.75 2.95 M14.75 8.45 L14.8 8.45 15.25 9.0 15.3 8.95 15.4 9.2 Q15.85 10.2 15.45 11.55 L14.9 12.9 14.6 13.2 15.05 13.7 15.75 15.0 Q16.3 16.5 16.1 18.1 L16.05 18.55 16.0 18.7 15.75 19.55 15.8 19.55 15.85 19.6 15.95 19.65 Q16.7 19.9 17.15 20.6 L17.25 20.75 Q16.05 22.0 14.65 22.65 L12.85 22.4 12.85 22.35 12.15 22.5 13.55 20.75 Q14.75 19.2 14.75 17.7 14.75 16.0 13.4 14.95 L13.3 15.0 12.4 15.3 11.3 15.5 11.8 15.0 12.4 14.65 13.65 13.9 14.4 12.55 Q15.05 10.9 15.05 9.85 L15.05 9.8 15.05 9.55 Q15.05 8.95 14.65 8.7 L14.55 8.45 14.6 8.45 14.75 8.45 M0.25 24.65 L-2.4 22.7 -2.3 22.5 -2.2 22.4 Q-1.65 21.6 -0.85 21.3 L-1.05 21.0 -1.45 20.1 -1.7 18.7 -1.7 17.9 Q-1.75 16.7 -1.35 15.55 L-0.75 14.45 -1.05 13.9 -1.2 12.7 Q-1.25 11.55 -0.9 11.1 L-1.55 9.85 -1.65 9.35 -2.15 9.05 -2.45 8.75 Q-3.2 8.0 -3.2 6.95 L-3.05 5.85 -3.0 5.7 -2.9 5.55 -3.4 5.25 Q-3.85 4.75 -3.9 4.05 L-3.8 3.6 -3.55 3.1 -3.45 2.95 -3.0 2.5 -2.45 2.45 Q-3.1 2.7 -3.15 3.35 L-3.15 3.5 Q-3.15 3.95 -2.8 4.2 L-2.3 4.5 -2.3 4.55 -2.3 4.65 -2.2 4.65 -2.3 4.9 -2.55 5.1 -2.55 5.15 -2.3 5.75 -2.1 6.0 -1.35 6.4 -1.4 6.55 -0.85 7.3 -0.3 8.05 Q0.65 8.85 1.35 8.75 L0.85 9.4 Q0.45 10.1 0.45 10.6 0.45 11.1 0.6 11.3 L1.15 11.85 0.35 12.75 Q0.05 13.2 0.05 14.0 0.05 14.6 0.75 14.95 L0.8 15.0 0.05 16.1 -0.2 16.7 -0.45 17.85 Q-0.45 18.9 0.35 19.65 0.95 20.2 1.75 20.35 L1.7 20.45 0.95 21.25 0.75 21.45 Q-0.2 22.6 -0.2 23.3 L0.15 24.45 0.25 24.65 M12.9 6.2 L12.8 6.95 Q12.9 7.3 13.15 7.3 L13.4 6.85 13.3 6.35 Q12.9 5.35 12.9 6.2 M12.95 12.1 Q11.55 12.9 10.45 12.9 L10.4 12.85 Q9.6 12.5 9.2 11.55 L9.1 11.35 Q8.75 10.25 8.95 9.25 L9.05 9.25 Q9.05 10.25 10.5 11.35 11.95 12.5 12.95 12.05 L12.95 12.1 M7.2 18.2 L5.85 18.9 Q4.0 18.9 4.0 16.85 L4.4 15.25 4.35 16.05 Q4.35 17.1 5.05 17.75 5.65 18.35 6.55 18.35 L7.2 18.2 M15.6 20.9 L16.15 21.2 16.65 20.75 Q16.65 20.2 16.0 20.05 15.35 19.9 15.35 20.5 L15.6 20.9 M15.4 16.3 Q15.6 16.3 15.6 15.9 L15.1 14.65 Q14.55 13.8 14.55 14.5 L15.4 16.3 M15.55 17.4 L15.8 17.1 Q15.8 16.8 15.6 16.85 L15.35 17.15 15.55 17.4 M8.3 22.65 Q9.3 22.4 10.1 20.9 10.85 19.55 10.85 18.45 L10.6 16.9 Q11.9 18.95 11.9 19.95 11.9 21.25 10.95 22.0 10.0 22.75 8.65 22.7 L8.3 22.7 8.3 22.65 M-1.65 9.35 L-1.7 9.05 -1.7 7.7 -1.6 7.2 -1.4 6.55 -1.6 7.2 -1.7 7.7 -1.7 9.05 -1.65 9.35 M-3.1 5.15 L-2.9 4.95 Q-3.7 3.75 -3.7 4.55 L-3.1 5.15 M-2.55 5.15 L-2.9 5.55 -2.55 5.15 M-0.65 10.15 L-0.65 10.0 -1.0 9.05 Q-1.35 8.3 -1.35 9.1 L-1.25 9.75 -0.9 10.25 -0.65 10.15 -0.9 11.1 -0.65 10.15 M-2.2 8.65 L-2.0 8.45 -2.45 7.4 Q-2.45 7.0 -2.65 7.0 -2.85 7.0 -2.85 7.35 -2.65 8.65 -2.2 8.65 M-1.25 22.65 L-0.15 21.8 Q-0.15 21.35 -0.8 21.7 -1.5 22.0 -1.5 22.35 L-1.25 22.65 M-0.65 16.0 L-0.8 15.8 Q-0.95 15.75 -1.1 16.0 L-1.25 16.45 -1.3 17.4 Q-1.35 18.1 -1.1 18.1 -0.8 18.1 -0.8 17.7 L-0.85 17.1 -0.65 16.0 M-0.25 14.9 Q-0.75 14.75 -0.75 15.15 L-0.5 15.4 Q-0.2 15.4 -0.2 15.05 L-0.25 14.9" fill="#d5c798" fill-rule="evenodd" stroke="none"/>
      <path d="M12.2 3.85 L12.2 4.0 12.15 5.45 Q11.65 6.85 10.8 7.1 12.35 7.85 13.2 7.85 L14.1 7.55 14.15 7.65 14.05 7.9 14.15 8.2 14.55 8.45 14.65 8.7 14.35 8.6 Q13.65 8.45 13.65 9.1 L14.7 10.3 15.05 9.8 15.05 9.85 Q15.05 10.9 14.4 12.55 L13.65 13.9 12.4 14.65 11.8 15.0 11.3 15.5 12.4 15.3 13.3 15.0 13.4 14.95 Q14.75 16.0 14.75 17.7 14.75 19.2 13.55 20.75 L12.15 22.5 12.85 22.35 12.85 22.4 14.65 22.65 14.6 22.65 12.25 23.8 12.25 23.7 10.4 24.25 6.65 24.8 4.85 25.05 2.1 25.45 Q1.55 25.45 1.25 25.15 L0.45 24.75 0.25 24.65 0.15 24.45 -0.2 23.3 Q-0.2 22.6 0.75 21.45 L0.95 21.25 1.7 20.45 1.75 20.35 Q0.95 20.2 0.35 19.65 -0.45 18.9 -0.45 17.85 L-0.2 16.7 0.05 16.1 0.8 15.0 0.75 14.95 Q0.05 14.6 0.05 14.0 0.05 13.2 0.35 12.75 L1.15 11.85 0.6 11.3 Q0.45 11.1 0.45 10.6 0.45 10.1 0.85 9.4 L1.35 8.75 Q0.65 8.85 -0.3 8.05 L-0.85 7.3 -1.4 6.55 -1.35 6.4 -2.1 6.0 -2.3 5.75 -2.55 5.15 -2.55 5.1 -2.3 4.9 -2.2 4.65 -2.15 4.65 -2.1 4.6 -2.05 4.6 -2.05 4.55 -1.85 4.45 -1.85 4.4 -2.25 4.6 -2.3 4.55 -2.3 4.5 -2.8 4.2 Q-3.15 3.95 -3.15 3.5 L-3.15 3.35 Q-3.1 2.7 -2.45 2.45 L-2.4 2.4 -2.55 2.15 -2.25 1.55 -2.1 1.4 -1.95 1.2 -1.55 1.05 Q-0.8 1.1 -0.3 1.8 L-0.3 1.85 0.05 1.85 Q0.7 1.85 1.9 2.65 L2.85 3.4 3.4 4.1 4.6 5.9 4.9 5.85 Q5.6 5.85 6.25 6.55 6.85 7.2 6.8 7.85 L6.95 6.7 Q6.95 5.85 6.25 5.3 5.6 4.75 5.2 5.05 5.2 4.15 4.55 3.5 3.95 2.85 3.2 2.85 L2.75 2.95 2.75 2.85 Q2.75 2.15 3.4 2.0 L3.45 2.05 3.35 2.35 Q3.35 2.85 3.85 2.85 L4.35 2.75 6.25 4.1 4.25 2.65 4.3 2.5 5.8 3.5 4.35 2.45 4.35 2.35 4.25 2.1 Q4.05 1.85 3.8 1.9 L3.6 1.9 3.55 1.9 4.05 1.85 4.1 1.85 4.55 2.05 5.0 2.4 Q4.55 1.35 3.85 1.2 L4.05 0.95 Q4.1 0.75 4.4 0.8 L4.9 0.8 4.8 0.5 Q4.7 0.05 5.1 0.1 L5.65 0.2 5.95 0.15 6.1 0.2 6.1 0.25 6.6 0.15 7.2 0.05 8.25 0.1 8.75 0.8 8.55 1.85 8.15 2.8 8.45 2.85 Q9.05 2.7 9.65 2.2 L9.85 1.95 11.35 2.9 11.6 3.15 11.65 3.2 12.2 3.85 M-0.75 2.85 L-0.05 2.9 -0.3 1.85 -0.05 2.9 -0.75 2.85 M12.9 6.2 Q12.9 5.35 13.3 6.35 L13.4 6.85 13.15 7.3 Q12.9 7.3 12.8 6.95 L12.9 6.2 M12.4 8.8 Q12.9 8.35 12.6 8.35 L12.25 8.35 Q12.65 8.4 12.4 8.8 M12.95 12.1 L12.95 12.05 Q11.95 12.5 10.5 11.35 9.05 10.25 9.05 9.25 L8.95 9.25 Q8.75 10.25 9.1 11.35 L9.2 11.55 Q9.6 12.5 10.4 12.85 L10.45 12.9 Q11.55 12.9 12.95 12.1 M10.05 6.8 L9.9 6.6 9.55 6.7 9.7 6.85 10.05 6.8 M7.2 18.2 L6.55 18.35 Q5.65 18.35 5.05 17.75 4.35 17.1 4.35 16.05 L4.4 15.25 4.0 16.85 Q4.0 18.9 5.85 18.9 L7.2 18.2 M8.3 22.65 L8.3 22.7 8.65 22.7 Q10.0 22.75 10.95 22.0 11.9 21.25 11.9 19.95 11.9 18.95 10.6 16.9 L10.85 18.45 Q10.85 19.55 10.1 20.9 9.3 22.4 8.3 22.65 M15.55 17.4 L15.35 17.15 15.6 16.85 Q15.8 16.8 15.8 17.1 L15.55 17.4 M15.4 16.3 L14.55 14.5 Q14.55 13.8 15.1 14.65 L15.6 15.9 Q15.6 16.3 15.4 16.3 M15.6 20.9 L15.35 20.5 Q15.35 19.9 16.0 20.05 16.65 20.2 16.65 20.75 L16.15 21.2 15.6 20.9 M-3.1 5.15 L-3.7 4.55 Q-3.7 3.75 -2.9 4.95 L-3.1 5.15 M-2.2 8.65 Q-2.65 8.65 -2.85 7.35 -2.85 7.0 -2.65 7.0 -2.45 7.0 -2.45 7.4 L-2.0 8.45 -2.2 8.65 M-0.65 10.15 L-0.9 10.25 -1.25 9.75 -1.35 9.1 Q-1.35 8.3 -1.0 9.05 L-0.65 10.0 -0.65 10.15 M-0.25 14.9 L-0.2 15.05 Q-0.2 15.4 -0.5 15.4 L-0.75 15.15 Q-0.75 14.75 -0.25 14.9 M-0.65 16.0 L-0.85 17.1 -0.8 17.7 Q-0.8 18.1 -1.1 18.1 -1.35 18.1 -1.3 17.4 L-1.25 16.45 -1.1 16.0 Q-0.95 15.75 -0.8 15.8 L-0.65 16.0 M-1.25 22.65 L-1.5 22.35 Q-1.5 22.0 -0.8 21.7 -0.15 21.35 -0.15 21.8 L-1.25 22.65" fill="#f5eed3" fill-rule="evenodd" stroke="none"/>
      <path d="M3.55 1.9 L3.6 1.9 3.8 1.9 Q4.05 1.85 4.25 2.1 L4.35 2.35 4.35 2.45 4.3 2.5 4.25 2.65 4.25 2.7 4.35 2.75 3.85 2.85 Q3.35 2.85 3.35 2.35 L3.45 2.05 3.4 2.0 3.45 2.0 3.45 1.95 3.55 1.9 M14.15 7.65 L14.75 8.45 14.6 8.45 14.55 8.45 14.15 8.2 14.05 7.9 14.15 7.65 M14.65 8.7 Q15.05 8.95 15.05 9.55 L15.05 9.8 14.7 10.3 13.65 9.1 Q13.65 8.45 14.35 8.6 L14.65 8.7 M12.4 8.8 Q12.65 8.4 12.25 8.35 L12.6 8.35 Q12.9 8.35 12.4 8.8 M10.05 6.8 L9.7 6.85 9.55 6.7 9.9 6.6 10.05 6.8" fill="#f2ede1" fill-rule="evenodd" stroke="none"/>
      <path d="M12.2 3.85 L11.65 3.2 11.6 3.15 11.35 2.9 9.85 1.95 M8.25 0.1 L7.2 0.05 6.6 0.15 6.1 0.25 6.1 0.2 5.95 0.15 5.65 0.2 5.1 0.1 Q4.7 0.05 4.8 0.5 L4.9 0.8 4.4 0.8 Q4.1 0.75 4.05 0.95 L3.85 1.2 M4.05 1.85 L3.55 1.9 M3.4 2.0 Q2.75 2.15 2.75 2.85 L2.75 2.95 M3.4 4.1 L2.85 3.4 1.9 2.65 Q0.7 1.85 0.05 1.85 L-0.3 1.85 -0.05 2.9 -0.75 2.85 M12.2 3.85 L12.3 4.0 13.65 6.45 14.1 7.55 14.15 7.65 14.75 8.45 M14.8 8.45 L15.25 9.0 M15.3 8.95 L15.4 9.2 Q15.85 10.2 15.45 11.55 L14.9 12.9 14.6 13.2 15.05 13.7 15.75 15.0 Q16.3 16.5 16.1 18.1 L16.05 18.55 M16.0 18.7 L15.75 19.55 15.8 19.55 15.85 19.6 15.95 19.65 Q16.7 19.9 17.15 20.6 L17.25 20.75 M12.25 23.8 L12.25 23.7 M-2.3 22.5 L-2.2 22.4 Q-1.65 21.6 -0.85 21.3 L-1.05 21.0 -1.45 20.1 -1.7 18.7 -1.7 17.9 Q-1.75 16.7 -1.35 15.55 L-0.75 14.45 -1.05 13.9 -1.2 12.7 Q-1.25 11.55 -0.9 11.1 L-1.55 9.85 -1.65 9.35 -2.15 9.05 -2.45 8.75 Q-3.2 8.0 -3.2 6.95 L-3.05 5.85 -3.0 5.7 -2.9 5.55 -3.4 5.25 Q-3.85 4.75 -3.9 4.05 L-3.8 3.6 -3.55 3.1 -3.45 2.95 -3.0 2.5 -2.45 2.45 -2.4 2.4 -2.55 2.15 -2.25 1.55 -2.1 1.4 -1.95 1.2 -1.55 1.05 Q-0.8 1.1 -0.3 1.8 L-0.3 1.85 M8.25 0.1 L8.75 0.5 9.7 1.8 9.75 1.9 9.85 1.95 M4.1 1.85 L3.8 1.45 3.85 1.25 M3.45 2.0 L3.4 2.0 3.45 2.0 M2.85 3.4 L2.75 2.95 M-2.3 4.55 L-2.25 4.6 -1.85 4.4 -1.85 4.45 M-2.05 4.55 L-2.05 4.6 -2.1 4.6 -2.15 4.65 M-2.2 4.65 L-2.3 4.9 -2.55 5.1 -2.55 5.15 M-1.35 6.4 L-1.4 6.55 -1.6 7.2 -1.7 7.7 -1.7 9.05 -1.65 9.35 M-2.9 5.55 L-2.55 5.15 M-2.25 4.6 L-2.3 4.65 M-2.1 4.6 L-2.2 4.65 M-0.65 10.15 L-0.9 11.1" fill="none" stroke="#867d5f" stroke-linecap="round" stroke-linejoin="round" stroke-width="0.05"/>
    </g>
  </defs>
</svg>
