<?xml version="1.0" encoding="UTF-8" standalone="no"?>
<svg xmlns:xlink="http://www.w3.org/1999/xlink" height="440.0px" width="440.0px" xmlns="http://www.w3.org/2000/svg">
  <g transform="matrix(10.0, 0.0, 0.0, 10.0, 0.0, 0.0)">
    <use height="44.0" transform="matrix(0.9091, 0.0, 0.0, 0.9091, 2.0, 2.0)" width="44.0" xlink:href="#sprite0"/>
  </g>
  <defs>
    <g id="sprite0" transform="matrix(1.0, 0.0, 0.0, 1.0, 0.0, 0.0)">
      <use height="44.0" transform="matrix(1.0, 0.0, 0.0, 1.0, 0.0, 0.0)" width="44.0" xlink:href="#shape0"/>
      <use height="40.3" transform="matrix(0.9429, 0.0, 0.0, 0.9429, 12.2, 3.0)" width="20.8" xlink:href="#sprite1"/>
    </g>
    <g id="shape0" transform="matrix(1.0, 0.0, 0.0, 1.0, 0.0, 0.0)">
      <path d="M44.0 44.0 L0.0 44.0 0.0 0.0 44.0 0.0 44.0 44.0" fill="#43adca" fill-opacity="0.0" fill-rule="evenodd" stroke="none"/>
    </g>
    <g id="sprite1" transform="matrix(1.0, 0.0, 0.0, 1.0, 0.0, 0.0)">
      <use height="22.75" transform="matrix(1.0, 0.0, 0.0, 1.0, 3.5, 17.55)" width="17.3" xlink:href="#sprite2"/>
      <use height="30.7" transform="matrix(1.0, 0.0, 0.0, 1.0, 0.0, 0.0)" width="15.3" xlink:href="#sprite4"/>
    </g>
    <g id="sprite2" transform="matrix(1.0, 0.0, 0.0, 1.0, 5.85, 3.1)">
      <use height="22.75" transform="matrix(-1.0, 0.0, 0.0, 1.0, 11.45, -3.1)" width="17.3" xlink:href="#sprite3"/>
    </g>
    <g id="sprite3" transform="matrix(1.0, 0.0, 0.0, 1.0, 11.45, 3.1)">
      <use height="22.75" transform="matrix(1.0, 0.0, 0.0, 1.0, -11.45, -3.1)" width="17.3" xlink:href="#shape1"/>
    </g>
    <g id="shape1" transform="matrix(1.0, 0.0, 0.0, 1.0, 11.45, 3.1)">
      <path d="M-2.6 16.6 L-2.65 16.55 -2.6 16.55 -2.6 16.6" fill="#596a61" fill-rule="evenodd" stroke="none"/>
      <path d="M-6.15 14.95 L-6.25 14.95 -7.2 14.75 -6.15 14.95" fill="#856e35" fill-rule="evenodd" stroke="none"/>
      <path d="M1.15 18.3 L1.15 18.35 1.15 18.3" fill="#46534a" fill-rule="evenodd" stroke="none"/>
      <path d="M-8.8 14.4 L-8.95 14.4 -8.95 14.35 -8.8 14.4 M-11.35 14.35 L-11.45 14.35 -11.35 14.3 -11.35 14.35" fill="#555ba0" fill-rule="evenodd" stroke="none"/>
      <path d="M0.95 0.9 L0.95 0.7 1.0 0.9 0.95 0.9" fill="#2b301a" fill-rule="evenodd" stroke="none"/>
      <path d="M0.95 0.9 L1.0 0.9 1.05 1.1 0.9 1.1 0.95 0.9 M-2.55 16.5 L-2.6 16.6 -2.6 16.55 -2.55 16.5" fill="#363c21" fill-rule="evenodd" stroke="none"/>
      <path d="M1.3 19.6 L1.25 19.55 1.3 19.5 1.3 19.6" fill="#ccff00" fill-rule="evenodd" stroke="none"/>
      <path d="M-9.55 14.35 L-9.65 14.35 -9.75 14.35 -9.6 14.3 -9.55 14.35 M-4.1 6.55 L-4.15 6.55 -4.15 6.5 -4.1 6.3 -4.1 6.5 -4.1 6.55" fill="#718b05" fill-rule="evenodd" stroke="none"/>
      <path d="M5.8 12.05 Q5.7 15.3 5.2 18.7 3.75 19.85 1.3 19.6 L1.3 19.5 2.05 18.85 3.3 17.5 3.4 17.35 3.5 17.25 4.15 16.25 Q5.35 14.3 5.8 12.05" fill="#fee6af" fill-rule="evenodd" stroke="none"/>
      <path d="M-5.7 3.3 L-5.6 2.8 -5.55 2.55 -5.5 2.3 -4.7 0.65 -4.05 -0.1 -3.25 -0.7 -3.65 1.25 -3.65 1.4 -3.85 2.55 -3.9 2.8 -3.2 2.8 -3.25 2.7 -3.3 2.55 -3.6 1.65 -3.0 -0.85 -2.7 -1.05 -2.45 -1.2 -1.3 -1.6 -1.15 -1.6 -1.1 -1.55 -1.1 -1.6 -0.85 -1.7 -0.8 -1.7 -0.7 -1.7 0.1 -1.75 0.75 -1.7 1.1 -1.65 1.75 -1.55 1.8 -1.5 2.45 -1.25 3.65 -0.55 4.05 -0.2 4.2 -0.1 4.4 0.1 4.8 0.55 5.3 1.25 5.55 1.75 5.8 2.55 5.8 2.65 5.8 2.8 5.85 3.65 5.85 3.85 5.85 4.0 5.85 5.0 5.8 10.75 5.8 12.05 Q5.35 14.3 4.15 16.25 L3.5 17.25 3.4 17.35 3.3 17.5 2.05 18.85 1.4 18.5 1.15 18.35 1.15 18.3 1.45 16.8 1.45 16.75 Q2.05 13.15 1.95 9.2 L1.95 8.35 1.9 7.75 1.55 4.15 1.5 3.65 1.4 2.9 1.35 2.8 1.35 2.55 1.05 1.1 1.0 0.9 0.95 0.7 0.95 0.9 0.9 1.1 0.75 2.55 0.75 2.8 0.65 3.65 0.6 3.95 0.45 5.1 -0.05 8.05 -0.15 8.75 -0.3 9.45 Q-1.25 13.75 -2.55 16.5 L-2.6 16.55 -2.65 16.55 -2.6 16.6 -3.25 17.75 -3.35 17.75 -4.4 17.65 -4.9 17.5 Q-5.8 17.15 -5.9 16.1 L-5.9 15.85 -5.9 15.4 -6.1 15.0 -6.15 14.95 -5.95 14.65 -5.45 13.65 -5.45 13.6 Q-4.3 11.1 -4.1 8.1 L-4.1 7.75 -4.1 7.4 -4.1 7.1 -4.1 6.55 -4.1 6.5 -4.1 6.3 -4.15 6.5 -4.15 6.55 -4.35 7.2 -4.4 7.4 Q-5.5 10.7 -8.25 13.25 L-8.3 13.3 -8.35 13.35 -9.6 14.3 -9.75 14.35 -9.8 14.35 -11.35 14.35 -11.35 14.3 -10.05 13.35 -9.8 13.05 Q-7.25 9.85 -6.0 4.5 L-5.8 3.65 -5.7 3.35 -5.7 3.3 M-1.1 -1.55 L-1.1 -1.5 -1.6 2.55 -1.6 2.8 -1.55 2.8 -1.5 2.55 -1.05 -1.5 -1.1 -1.55" fill="#c5a94b" fill-rule="evenodd" stroke="none"/>
      <path d="M-0.1 17.9 L-1.65 17.8 -3.25 17.75 -2.6 16.6 -2.55 16.5 Q-1.25 13.75 -0.3 9.45 L-0.15 8.75 -0.05 8.05 0.45 5.1 0.6 3.95 0.65 3.65 0.75 2.8 0.75 2.55 0.9 1.1 1.05 1.1 Q1.65 8.8 -0.1 17.9 M-7.85 14.6 L-8.8 14.4 -8.95 14.35 -8.95 14.4 -9.55 14.35 -9.6 14.3 -8.35 13.35 -8.3 13.3 -8.25 13.25 Q-5.5 10.7 -4.4 7.4 L-4.35 7.2 -4.15 6.55 -4.1 6.55 -4.1 7.1 -4.1 7.4 -4.1 7.75 -4.1 8.1 Q-5.55 12.5 -7.85 14.6" fill="#a08734" fill-rule="evenodd" stroke="none"/>
      <path d="M1.15 18.35 L-0.1 17.9 Q1.65 8.8 1.05 1.1 L1.35 2.55 1.35 2.8 1.4 2.9 1.5 3.65 1.55 4.15 1.9 7.75 1.95 8.35 1.95 9.2 Q2.05 13.15 1.45 16.75 L1.45 16.8 1.15 18.3 1.15 18.35 M-7.2 14.75 L-7.55 14.65 -7.85 14.6 Q-5.55 12.5 -4.1 8.1 -4.3 11.1 -5.45 13.6 L-5.45 13.65 -5.95 14.65 -6.15 14.95 -7.2 14.75" fill="#776426" fill-rule="evenodd" stroke="none"/>
      <path d="M5.85 5.0 L5.8 10.75 5.8 12.05 Q5.7 15.3 5.2 18.7 3.75 19.85 1.3 19.6 M2.05 18.85 L1.4 18.5 1.15 18.35 -0.1 17.9 -1.65 17.8 -3.25 17.75 -3.35 17.75 -4.4 17.65 -4.9 17.5 Q-5.8 17.15 -5.9 16.1 L-5.9 15.85 -5.9 15.4 -6.1 15.0 M-7.55 14.65 L-7.85 14.6 -8.8 14.4 M-9.8 14.35 L-11.35 14.35 M-11.35 14.3 L-10.05 13.35 -9.8 13.05 Q-7.25 9.85 -6.0 4.5 L-5.8 3.65 -5.7 3.35 -5.7 3.3" fill="none" stroke="#000000" stroke-linecap="round" stroke-linejoin="round" stroke-opacity="0.3019608" stroke-width="0.05"/>
      <path d="M1.3 19.6 L1.25 19.55 1.3 19.5" fill="none" stroke="#7b6b53" stroke-linecap="round" stroke-linejoin="round" stroke-width="0.05"/>
      <path d="M2.1 10.1 L1.95 8.95 2.6 4.25 5.25 6.0 5.55 8.0 5.65 8.6 5.8 12.9 4.65 15.45 2.75 14.2 2.1 10.1" fill="#a08734" fill-opacity="0.6" fill-rule="evenodd" stroke="none"/>
      <path d="M-4.6 -1.1 L-1.95 0.95 -2.3 5.9 -3.25 7.8 -3.8 8.95 -4.0 9.35 -4.6 8.85 -6.6 7.25 -6.55 6.85 -4.85 -0.55 -4.6 -1.1 M-1.4 6.0 L-1.7 1.05 -0.45 -3.1 2.2 -1.2 2.45 4.05 1.25 7.9 -1.4 6.0" fill="#9c8a32" fill-opacity="0.6" fill-rule="evenodd" stroke="none"/>
      <path d="M-3.1 10.2 L-2.8 9.15 -2.65 9.0 -1.75 6.15 1.55 8.5 1.7 10.0 2.05 13.95 0.65 17.65 -2.65 15.3 -3.1 10.2" fill="#bb953e" fill-opacity="0.5019608" fill-rule="evenodd" stroke="none"/>
    </g>
    <g id="sprite4" transform="matrix(1.0, 0.0, 0.0, 1.0, 3.05, 2.05)">
      <use height="30.7" transform="matrix(-1.0, 0.0, 0.0, 1.0, 12.25, -2.05)" width="15.3" xlink:href="#sprite5"/>
    </g>
    <g id="sprite5" transform="matrix(1.0, 0.0, 0.0, 1.0, 12.25, 2.05)">
      <use height="30.7" transform="matrix(1.0, 0.0, 0.0, 1.0, -12.25, -2.05)" width="15.3" xlink:href="#shape2"/>
    </g>
    <g id="shape2" transform="matrix(1.0, 0.0, 0.0, 1.0, 12.25, 2.05)">
      <path d="M-2.9 -0.75 L-3.35 0.0 -3.05 -0.55 -2.9 -0.75" fill="#81968b" fill-rule="evenodd" stroke="none"/>
      <path d="M-3.4 0.15 L-3.6 0.55 -3.65 0.5 -3.4 0.15" fill="#c9ac6b" fill-rule="evenodd" stroke="none"/>
      <path d="M-5.1 16.95 L-5.05 17.0 -5.1 16.95" fill="#ffffff" fill-rule="evenodd" stroke="none"/>
      <path d="M-5.0 -0.05 L-2.1 -2.05 -2.4 -1.5 -2.9 -0.75 -3.05 -0.55 -3.35 0.0 -3.4 0.15 -3.65 0.5 -3.6 0.55 Q-4.5 2.8 -3.2 2.8 -2.95 3.4 -2.1 3.25 L0.8 2.5 Q5.15 -2.2 1.15 3.55 -0.35 9.15 -0.6 13.65 L-0.65 21.45 -0.65 21.75 -0.65 21.85 -0.6 22.85 -0.6 24.2 Q-0.85 25.3 -1.55 26.25 L-1.95 26.75 -2.25 27.0 -4.1 28.25 -4.5 28.4 -4.5 27.55 -4.55 26.95 -4.9 23.35 -4.95 22.85 -5.05 22.1 -5.1 21.75 -5.3 20.8 -5.5 19.9 -5.7 21.75 -5.8 22.85 -5.85 22.85 -5.85 23.15 -6.0 24.3 -6.5 27.25 -6.6 27.95 -6.75 28.65 -8.75 27.8 Q-8.4 28.35 -9.4 27.6 L-10.85 26.6 -10.9 26.55 -11.35 25.95 -12.05 24.4 -12.2 23.05 -12.2 22.85 -12.25 22.85 -12.15 22.5 -12.0 21.75 -11.95 21.5 -11.8 20.6 -11.8 20.45 -11.55 19.15 -11.5 18.85 -10.45 12.1 -10.4 11.85 Q-9.7 6.8 -8.65 3.05 L-5.55 0.35 -5.15 0.1 -5.0 -0.05 M-5.1 16.95 L-5.05 17.0 -5.1 16.95" fill="#c5a94b" fill-rule="evenodd" stroke="none"/>
      <path d="M-5.5 28.6 L-6.2 28.65 -6.35 28.65 -6.75 28.65 -6.6 27.95 -6.5 27.25 -6.0 24.3 -5.95 24.25 -5.85 23.15 -5.8 22.85 -5.7 21.75 -5.5 19.9 -5.3 20.8 -5.5 28.6" fill="#a08734" fill-rule="evenodd" stroke="none"/>
      <path d="M-4.5 28.4 L-5.5 28.6 -5.3 20.8 -5.1 21.75 -5.05 22.1 -4.95 22.85 -4.9 23.35 -4.55 26.95 -4.5 27.55 -4.5 28.4" fill="#776426" fill-rule="evenodd" stroke="none"/>
      <path d="M-5.0 -0.05 L-2.1 -2.05 -2.4 -1.5 M-2.9 -0.75 L-3.35 0.0 -3.4 0.15 M-3.6 0.55 Q-4.5 2.8 -3.2 2.8 -2.95 3.4 -2.1 3.25 L0.8 2.5 Q5.15 -2.2 1.15 3.55 -0.35 9.15 -0.6 13.65 L-0.65 21.45 -0.65 21.75 -0.65 21.85 -0.6 22.85 M-12.25 22.85 L-12.15 22.5 M-11.95 21.5 L-11.8 20.6 -11.8 20.45 -11.55 19.15 -11.5 18.85 -10.45 12.1 -10.4 11.85 Q-9.7 6.8 -8.65 3.05 L-5.55 0.35" fill="none" stroke="#000000" stroke-linecap="round" stroke-linejoin="round" stroke-opacity="0.3019608" stroke-width="0.05"/>
      <path d="M-5.55 0.35 L-5.15 0.1 -5.0 -0.05 Z" fill="none" stroke="url(#gradient0)" stroke-linecap="round" stroke-linejoin="round" stroke-width="0.5"/>
      <path d="M-3.8 2.75 L-4.0 2.55 Q-5.65 1.15 -2.4 -1.6 -4.15 1.0 -3.8 2.75" fill="#776426" fill-rule="evenodd" stroke="none"/>
      <path d="M-3.8 2.75 Q-4.15 1.0 -2.4 -1.6" fill="none" stroke="#2d2100" stroke-linecap="round" stroke-linejoin="round" stroke-opacity="0.5019608" stroke-width="0.05"/>
      <path d="M-6.15 8.1 L-7.5 11.3 -10.1 9.7 -8.65 3.05 -7.2 1.65 -5.7 2.6 -5.95 7.6 -5.95 7.65 -6.0 7.6 -6.15 8.1 M-0.7 16.75 L-0.6 20.9 -0.6 21.5 -0.65 21.65 -1.9 25.45 -4.45 23.85 -4.6 19.0 -4.55 18.85 -3.25 14.75 -0.7 16.35 -0.7 16.75" fill="#a08734" fill-rule="evenodd" stroke="none"/>
      <path d="M-5.95 7.65 L-3.45 9.2 -3.4 9.85 -3.35 12.35 -3.3 14.35 -4.6 18.3 -7.15 16.7 -7.3 12.55 -7.3 11.85 -6.15 8.1 -5.95 7.65 M-3.1 12.35 L-3.35 9.85 -3.35 9.25 -3.45 9.15 -2.4 4.65 0.0 6.15 0.0 8.8 -0.6 13.65 -0.65 15.6 -2.95 14.15 -3.1 12.35" fill="#9f8035" fill-rule="evenodd" stroke="none"/>
      <path d="M-7.5 11.7 L-7.5 12.55 -7.4 16.9 -7.5 17.25 -8.7 20.8 -11.3 19.2 -11.3 17.75 -11.05 16.3 -11.0 16.0 -11.0 15.9 -11.0 15.7 -10.9 14.9 -10.35 10.9 -10.2 10.55 -10.1 10.1 -7.5 11.7" fill="#cdb667" fill-rule="evenodd" stroke="none"/>
      <path d="M-4.7 24.35 L-5.95 28.25 -8.55 26.65 -8.7 21.85 -7.4 17.55 -4.8 19.15 -4.7 24.35" fill="#9c8a32" fill-rule="evenodd" stroke="none"/>
      <path d="M-7.1 6.6 L-6.75 3.65 -6.6 2.95 Q-6.5 2.5 -5.2 1.1 -5.6 1.6 -5.6 3.3 L-4.45 4.95 Q-3.75 4.7 -1.15 5.0 L-6.3 10.0 -6.5 10.1 Q-7.3 9.95 -7.1 6.6" fill="#382510" fill-opacity="0.3019608" fill-rule="evenodd" stroke="none"/>
      <path d="M-2.8 7.45 L-5.55 11.85 -7.5 15.3 -7.6 15.5 Q-7.95 16.25 -8.05 14.85 L-8.15 11.85 -7.15 5.0 -7.55 10.3 -7.4 10.9 Q-7.1 11.8 -6.55 11.25 L-2.25 6.55 -2.8 7.45" fill="#382510" fill-opacity="0.5019608" fill-rule="evenodd" stroke="none"/>
      <path d="M0.3 4.65 Q-0.75 5.0 -1.35 5.9 -3.4 8.75 -4.25 15.05" fill="none" stroke="url(#gradient1)" stroke-linecap="round" stroke-linejoin="round" stroke-width="0.5"/>
      <path d="M-1.15 5.0 L-2.8 7.45" fill="none" stroke="url(#gradient2)" stroke-linecap="round" stroke-linejoin="round" stroke-width="0.5"/>
      <path d="M-7.4 10.9 L-7.1 6.6" fill="none" stroke="url(#gradient3)" stroke-linecap="round" stroke-linejoin="round" stroke-width="0.5"/>
    </g>
    <linearGradient gradientTransform="matrix(2.0E-4, -0.0066, -0.0068, -9.0E-4, -5.9, 5.6)" gradientUnits="userSpaceOnUse" id="gradient0" spreadMethod="pad" x1="-819.2" x2="819.2">
      <stop offset="0.0" stop-color="#000000" stop-opacity="0.0"/>
      <stop offset="0.23921568627450981" stop-color="#000000" stop-opacity="0.39215687"/>
      <stop offset="0.788235294117647" stop-color="#000000" stop-opacity="0.37254903"/>
      <stop offset="0.9019607843137255" stop-color="#000000" stop-opacity="0.0"/>
    </linearGradient>
    <linearGradient gradientTransform="matrix(-0.0047, 0.0046, 0.009, 0.0058, -2.15, 10.0)" gradientUnits="userSpaceOnUse" id="gradient1" spreadMethod="pad" x1="-819.2" x2="819.2">
      <stop offset="0.0" stop-color="#000000" stop-opacity="0.0"/>
      <stop offset="0.23921568627450981" stop-color="#000000" stop-opacity="0.39215687"/>
      <stop offset="0.788235294117647" stop-color="#000000" stop-opacity="0.37254903"/>
      <stop offset="0.9019607843137255" stop-color="#000000" stop-opacity="0.0"/>
    </linearGradient>
    <linearGradient gradientTransform="matrix(-0.0023, -7.0E-4, -9.0E-4, 0.0047, -3.5, 8.25)" gradientUnits="userSpaceOnUse" id="gradient2" spreadMethod="pad" x1="-819.2" x2="819.2">
      <stop offset="0.0" stop-color="#000000" stop-opacity="0.0"/>
      <stop offset="0.23921568627450981" stop-color="#000000" stop-opacity="0.39215687"/>
      <stop offset="0.788235294117647" stop-color="#000000" stop-opacity="0.37254903"/>
      <stop offset="0.9019607843137255" stop-color="#000000" stop-opacity="0.0"/>
    </linearGradient>
    <linearGradient gradientTransform="matrix(2.0E-4, -0.0066, -0.0068, -9.0E-4, -6.75, 6.7)" gradientUnits="userSpaceOnUse" id="gradient3" spreadMethod="pad" x1="-819.2" x2="819.2">
      <stop offset="0.0" stop-color="#000000" stop-opacity="0.0"/>
      <stop offset="0.23921568627450981" stop-color="#000000" stop-opacity="0.39215687"/>
      <stop offset="0.788235294117647" stop-color="#000000" stop-opacity="0.37254903"/>
      <stop offset="0.9019607843137255" stop-color="#000000" stop-opacity="0.0"/>
    </linearGradient>
  </defs>
</svg>
