<?xml version="1.0" encoding="UTF-8" standalone="no"?>
<svg xmlns:xlink="http://www.w3.org/1999/xlink" height="520.0px" width="520.0px" xmlns="http://www.w3.org/2000/svg">
  <g transform="matrix(10.0, 0.0, 0.0, 10.0, 0.0, 0.0)">
    <use height="52.0" transform="matrix(1.0, 0.0, 0.0, 1.0, 0.0, 0.0)" width="52.0" xlink:href="#shape0"/>
    <use height="136.85" transform="matrix(0.1059, -0.0122, 0.0069, 0.1609, 12.5631, 8.5354)" width="148.25" xlink:href="#sprite0"/>
  </g>
  <defs>
    <g id="shape0" transform="matrix(1.0, 0.0, 0.0, 1.0, 0.0, 0.0)">
      <path d="M52.0 0.0 L52.0 52.0 0.0 52.0 0.0 0.0 52.0 0.0" fill="#795fa9" fill-opacity="0.0" fill-rule="evenodd" stroke="none"/>
      <path d="M18.55 4.55 L18.95 5.1 19.1 5.4 19.1 5.45 19.25 5.75 19.7 7.45 19.4 7.6 19.2 7.75 19.7 7.75 19.5 7.95 19.4 7.95 19.25 8.35 18.8 8.35 Q18.45 8.85 17.55 8.7 L17.35 8.65 17.25 8.65 17.05 8.65 14.15 8.05 Q9.85 3.95 13.65 9.0 L13.95 10.95 13.7 11.15 13.55 11.9 Q13.1 11.9 12.8 12.25 L12.8 12.35 Q13.05 12.25 13.4 12.7 L13.35 12.85 13.1 15.7 13.05 17.9 13.7 20.65 13.65 20.65 13.55 20.8 13.7 20.8 13.65 20.8 13.55 20.95 Q13.65 20.85 13.7 20.85 L13.95 21.6 13.85 21.95 13.7 24.25 Q15.5 31.95 16.0 32.85 L16.15 32.7 16.25 32.85 16.75 31.95 16.95 32.05 17.05 32.05 17.5 32.4 17.5 32.5 17.55 32.55 17.95 35.4 18.4 37.6 18.4 37.7 19.55 40.1 20.6 42.05 Q22.6 46.1 23.35 46.95 L23.4 47.0 Q24.25 45.0 25.35 43.75 L25.4 43.9 25.5 43.95 25.95 44.8 26.4 45.45 27.7 45.9 32.25 48.1 28.15 41.0 28.25 40.85 28.15 40.35 Q29.65 40.5 31.35 41.1 L32.15 41.3 32.25 41.3 31.95 40.65 30.25 37.25 30.4 35.75 32.45 36.25 32.4 36.1 32.55 36.1 31.85 34.8 31.95 34.8 32.65 34.65 35.1 36.25 36.6 37.1 36.65 37.1 Q36.65 35.8 36.9 34.8 L36.95 34.8 36.9 34.7 37.25 33.4 37.5 33.6 39.1 34.4 45.85 34.05 45.7 33.9 45.8 33.9 Q44.9 33.15 39.05 29.75 L38.8 29.4 41.65 28.65 42.95 28.4 43.2 28.35 Q42.65 27.6 36.3 23.8 L34.15 23.3 32.1 22.85 30.3 20.65 28.75 19.75 28.65 19.75 30.9 20.05 Q30.95 19.0 29.05 13.1 L28.0 11.8 27.95 11.75 27.4 10.1 26.4 8.85 25.05 7.4 24.6 7.0 Q24.15 6.65 24.1 6.65 L23.55 6.65 23.2 6.4 22.55 6.2 22.45 6.2 22.1 6.2 22.0 6.25 21.95 6.2 21.5 5.95 21.35 5.8 18.25 4.1 18.55 4.55 Z" fill="none" stroke="#000000" stroke-linecap="round" stroke-linejoin="round" stroke-opacity="0.3019608" stroke-width="1.0"/>
      <path d="M26.15 26.45 L26.65 26.55 26.85 26.5 Q26.15 25.9 26.1 25.15 L26.05 25.2 25.45 25.2 Q25.25 25.75 26.15 26.45 M29.4 25.65 Q29.6 26.75 31.55 27.9 L32.8 28.4 Q31.9 27.05 32.9 26.8 L29.4 25.65 M45.75 33.95 Q44.95 33.05 35.75 27.8 L38.75 30.95 Q42.5 33.2 45.75 33.95" fill="#7b4815" fill-rule="evenodd" stroke="none"/>
      <path d="M25.8 27.6 Q25.5 27.05 26.65 26.55 L26.15 26.45 Q24.3 26.45 24.05 27.25 L24.05 27.4 Q24.25 27.15 25.1 27.4 L25.8 27.6 M32.8 28.4 L31.55 27.9 Q29.4 27.95 29.0 28.9 L29.7 29.25 33.6 31.25 34.0 31.5 Q32.45 29.75 32.8 28.4 M39.0 34.35 L45.75 33.95 Q42.5 33.2 38.75 30.95 L39.0 34.35" fill="#613911" fill-rule="evenodd" stroke="none"/>
      <path d="M26.65 26.55 L26.9 26.6 28.65 27.05 28.75 27.05 Q26.7 27.05 27.1 28.1 L29.0 28.9 Q29.4 27.95 31.55 27.9 L28.65 27.05 Q26.8 25.75 28.3 25.35 L27.15 25.1 26.1 25.15 Q26.15 25.9 26.85 26.5 L26.65 26.55 M34.0 31.5 L35.4 32.3 Q35.2 31.75 35.65 30.85 L37.05 33.1 37.45 33.45 39.0 34.35 38.75 30.95 Q35.5 29.45 32.8 28.4 32.45 29.75 34.0 31.5" fill="#889515" fill-rule="evenodd" stroke="none"/>
      <path d="M28.65 27.05 L26.9 26.6 26.65 26.55 Q25.5 27.05 25.8 27.6 L26.85 27.95 27.1 28.1 Q26.7 27.05 28.75 27.05 L28.65 27.05" fill="#7b8613" fill-rule="evenodd" stroke="none"/>
      <path d="M28.3 25.35 Q26.8 25.75 28.65 27.05 L31.55 27.9 Q29.6 26.75 29.4 25.65 L28.3 25.35 M35.75 27.8 L32.9 26.8 Q31.9 27.05 32.8 28.4 35.5 29.45 38.75 30.95 L35.75 27.8" fill="#9cae18" fill-rule="evenodd" stroke="none"/>
      <path d="M26.65 26.55 L26.9 26.6 28.65 27.05 M27.1 28.1 L26.85 27.95 25.8 27.6 M26.65 26.55 L26.15 26.45 Q25.25 25.75 25.45 25.2 L26.05 25.2 26.1 25.15 M28.3 25.35 L29.4 25.65 M31.55 27.9 L28.65 27.05 M28.3 25.35 L27.15 25.1 26.1 25.15 M32.8 28.4 L31.55 27.9 M29.0 28.9 L27.1 28.1 M29.0 28.9 L29.7 29.25 33.6 31.25 34.0 31.5 35.4 32.3 Q35.2 31.75 35.65 30.85 L37.05 33.1 37.45 33.45 39.0 34.35 45.75 33.95 Q44.95 33.05 35.75 27.8 L32.9 26.8 29.4 25.65 M26.15 26.45 Q24.3 26.45 24.05 27.25 L24.05 27.4 Q24.25 27.15 25.1 27.4 L25.8 27.6 M38.75 30.95 Q35.5 29.45 32.8 28.4" fill="none" stroke="#000000" stroke-linecap="round" stroke-linejoin="round" stroke-opacity="0.3019608" stroke-width="0.30000000000000004"/>
      <path d="M37.4 30.05 Q36.75 28.95 35.4 27.95 L33.4 27.35 Q32.8 27.4 33.1 28.3 L37.4 30.05" fill="#d3e33e" fill-rule="evenodd" stroke="none"/>
      <path d="M28.4 24.0 L28.75 24.05 28.9 24.0 Q28.5 23.5 28.65 22.75 L28.6 22.8 28.05 22.9 Q27.85 23.5 28.4 24.0 M31.25 22.75 Q31.15 23.8 32.5 24.7 L33.45 24.95 Q33.0 23.7 33.95 23.35 L31.25 22.75 M42.95 28.4 Q42.4 27.65 36.05 23.85 L37.8 26.55 Q40.35 28.25 42.95 28.4" fill="#7b4815" fill-rule="evenodd" stroke="none"/>
      <path d="M27.8 25.25 Q27.7 24.8 28.75 24.05 L28.4 24.0 Q26.85 24.35 26.45 25.2 L26.35 25.35 27.3 25.15 27.8 25.25 M33.45 24.95 L32.5 24.7 Q30.7 25.1 30.15 26.05 L30.65 26.3 Q31.9 26.8 33.4 27.7 L33.7 27.9 Q32.8 26.35 33.45 24.95 M37.15 29.95 Q39.45 28.95 42.95 28.4 40.35 28.25 37.8 26.55 L37.15 29.95" fill="#613911" fill-rule="evenodd" stroke="none"/>
      <path d="M28.75 24.05 L28.95 24.1 30.35 24.25 30.4 24.25 Q28.7 24.55 28.75 25.55 L30.15 26.05 Q30.7 25.1 32.5 24.7 L30.35 24.25 Q29.1 23.25 30.45 22.6 L29.55 22.5 28.65 22.75 Q28.5 23.5 28.9 24.0 L28.75 24.05 M33.7 27.9 L34.65 28.45 Q34.6 27.95 35.2 27.0 35.55 28.75 35.85 29.05 L36.1 29.3 37.15 29.95 37.8 26.55 33.45 24.95 Q32.8 26.35 33.7 27.9" fill="#889515" fill-rule="evenodd" stroke="none"/>
      <path d="M30.35 24.25 L28.95 24.1 28.75 24.05 Q27.7 24.8 27.8 25.25 L28.55 25.45 28.75 25.55 Q28.7 24.55 30.4 24.25 L30.35 24.25" fill="#7b8613" fill-rule="evenodd" stroke="none"/>
      <path d="M30.45 22.6 Q29.1 23.25 30.35 24.25 L32.5 24.7 Q31.15 23.8 31.25 22.75 L30.45 22.6 M36.05 23.85 L33.95 23.35 Q33.0 23.7 33.45 24.95 L37.8 26.55 36.05 23.85" fill="#9cae18" fill-rule="evenodd" stroke="none"/>
      <path d="M28.75 24.05 L28.95 24.1 30.35 24.25 M28.75 25.55 L28.55 25.45 27.8 25.25 M28.75 24.05 L28.4 24.0 Q27.85 23.5 28.05 22.9 L28.6 22.8 28.65 22.75 M30.45 22.6 L31.25 22.75 M32.5 24.7 L30.35 24.25 M30.45 22.6 L29.55 22.5 28.65 22.75 M33.45 24.95 L32.5 24.7 M30.15 26.05 L28.75 25.55 M30.15 26.05 L30.65 26.3 Q31.9 26.8 33.4 27.7 L33.7 27.9 34.65 28.45 Q34.6 27.95 35.2 27.0 35.55 28.75 35.85 29.05 L36.1 29.3 37.15 29.95 Q39.45 28.95 42.95 28.4 42.4 27.65 36.05 23.85 L33.95 23.35 31.25 22.75 M28.4 24.0 Q26.85 24.35 26.45 25.2 L26.35 25.35 27.3 25.15 27.8 25.25 M37.8 26.55 L33.45 24.95" fill="none" stroke="#000000" stroke-linecap="round" stroke-linejoin="round" stroke-opacity="0.3019608" stroke-width="0.30000000000000004"/>
      <path d="M36.95 25.65 Q36.75 24.6 35.85 23.85 L34.3 23.6 Q33.8 23.75 33.8 24.6 L36.95 25.65" fill="#d3e33e" fill-rule="evenodd" stroke="none"/>
      <path d="M26.65 25.1 L26.8 25.45 26.7 25.55 24.7 25.35 24.8 25.3 24.9 24.9 26.65 25.1 M25.3 27.55 Q26.9 27.4 28.6 28.45 L29.25 29.3 Q27.2 28.95 26.8 29.65 L25.3 27.55 M36.7 37.05 Q35.4 36.65 28.1 31.45 L32.7 32.8 Q35.85 34.9 36.7 37.05" fill="#7b4815" fill-rule="evenodd" stroke="none"/>
      <path d="M28.4 24.65 Q27.65 24.5 26.8 25.45 L26.65 25.1 Q26.8 23.85 28.05 23.5 L28.25 23.45 Q27.9 23.65 28.1 24.2 L28.4 24.65 M29.25 29.3 L28.6 28.45 Q28.8 27.05 30.2 26.5 L30.65 26.95 33.45 29.2 33.8 29.45 29.25 29.3 M37.8 32.25 Q36.7 34.15 36.7 37.05 35.85 34.9 32.7 32.8 L37.8 32.25" fill="#613911" fill-rule="evenodd" stroke="none"/>
      <path d="M26.8 25.45 L26.85 25.6 27.4 26.75 27.45 26.8 Q27.5 25.35 29.05 25.45 L30.2 26.5 Q28.8 27.05 28.6 28.45 L27.4 26.75 24.85 26.85 Q24.5 26.25 24.6 26.05 L24.7 25.35 26.7 25.55 26.8 25.45 M33.8 29.45 L34.85 30.25 Q34.1 30.2 32.75 30.7 L36.1 31.15 36.5 31.4 37.8 32.25 32.7 32.8 29.25 29.3 33.8 29.45" fill="#889515" fill-rule="evenodd" stroke="none"/>
      <path d="M27.4 26.75 L26.85 25.6 26.8 25.45 Q27.65 24.5 28.4 24.65 L28.95 25.25 29.05 25.45 Q27.5 25.35 27.45 26.8 L27.4 26.75" fill="#7b8613" fill-rule="evenodd" stroke="none"/>
      <path d="M24.85 26.85 L27.4 26.75 28.6 28.45 Q26.9 27.4 25.3 27.55 L24.85 26.85 M28.1 31.45 L26.8 29.65 Q27.2 28.95 29.25 29.3 L32.7 32.8 28.1 31.45" fill="#9cae18" fill-rule="evenodd" stroke="none"/>
      <path d="M26.8 25.45 L26.85 25.6 27.4 26.75 M29.05 25.45 L28.95 25.25 28.4 24.65 M26.8 25.45 L26.65 25.1 24.9 24.9 24.8 25.3 24.7 25.35 M24.85 26.85 L25.3 27.55 M28.6 28.45 L27.4 26.75 M24.85 26.85 Q24.5 26.25 24.6 26.05 L24.7 25.35 M29.25 29.3 L28.6 28.45 M30.2 26.5 L29.05 25.45 M30.2 26.5 L30.65 26.95 33.45 29.2 33.8 29.45 34.85 30.25 Q34.1 30.2 32.75 30.7 L36.1 31.15 36.5 31.4 37.8 32.25 Q36.7 34.15 36.7 37.05 35.4 36.65 28.1 31.45 L26.8 29.65 25.3 27.55 M26.65 25.1 Q26.8 23.85 28.05 23.5 L28.25 23.45 Q27.9 23.65 28.1 24.2 L28.4 24.65 M32.7 32.8 L29.25 29.3" fill="none" stroke="#000000" stroke-linecap="round" stroke-linejoin="round" stroke-opacity="0.3019608" stroke-width="0.30000000000000004"/>
      <path d="M31.15 32.2 Q29.5 32.05 28.05 31.35 L27.3 30.05 Q27.45 29.65 28.8 29.65 L31.15 32.2" fill="#d3e33e" fill-rule="evenodd" stroke="none"/>
      <path d="M26.8 24.1 L27.2 24.2 27.4 24.1 Q27.15 23.6 27.6 22.85 L27.55 22.9 26.95 23.0 Q26.5 23.5 26.8 24.1 M30.15 23.1 Q29.6 24.2 30.55 25.2 L31.35 25.55 Q31.4 24.3 32.45 23.95 L30.15 23.1 M39.1 30.0 Q38.9 29.15 34.3 24.7 L34.9 27.6 Q36.65 29.55 39.1 30.0" fill="#7b4815" fill-rule="evenodd" stroke="none"/>
      <path d="M25.8 25.3 Q25.9 24.8 27.2 24.2 L26.8 24.1 Q25.25 24.3 24.5 25.1 L24.35 25.3 25.3 25.15 25.8 25.3 M31.35 25.55 L30.55 25.2 Q28.65 25.4 27.75 26.4 L28.1 26.6 30.25 28.35 30.45 28.5 Q30.15 26.9 31.35 25.55 M32.95 30.95 Q35.6 30.2 39.1 30.0 36.65 29.55 34.9 27.6 L32.95 30.95" fill="#613911" fill-rule="evenodd" stroke="none"/>
      <path d="M27.2 24.2 L27.4 24.2 28.65 24.55 28.7 24.55 Q26.95 24.7 26.65 25.65 L27.75 26.4 Q28.65 25.4 30.55 25.2 29.6 24.75 28.65 24.55 27.85 23.4 29.4 22.85 L28.55 22.75 27.6 22.85 Q27.15 23.6 27.4 24.1 L27.2 24.2 M30.45 28.5 L31.15 29.2 Q31.3 28.7 32.3 27.75 31.9 29.6 32.0 29.9 L32.15 30.2 32.95 30.95 34.9 27.6 Q33.0 26.4 31.35 25.55 30.15 26.9 30.45 28.5" fill="#889515" fill-rule="evenodd" stroke="none"/>
      <path d="M28.65 24.55 L27.4 24.2 27.2 24.2 Q25.9 24.8 25.8 25.3 L26.45 25.6 26.65 25.65 Q26.95 24.7 28.7 24.55 L28.65 24.55" fill="#7b8613" fill-rule="evenodd" stroke="none"/>
      <path d="M29.4 22.85 Q27.85 23.4 28.65 24.55 29.6 24.75 30.55 25.2 29.6 24.2 30.15 23.1 L29.4 22.85 M34.3 24.7 L32.45 23.95 Q31.4 24.3 31.35 25.55 33.0 26.4 34.9 27.6 L34.3 24.7" fill="#9cae18" fill-rule="evenodd" stroke="none"/>
      <path d="M27.2 24.2 L27.4 24.2 28.65 24.55 M26.65 25.65 L26.45 25.6 25.8 25.3 M27.2 24.2 L26.8 24.1 Q26.5 23.5 26.95 23.0 L27.55 22.9 27.6 22.85 M29.4 22.85 L30.15 23.1 M30.55 25.2 Q29.6 24.75 28.65 24.55 M29.4 22.85 L28.55 22.75 27.6 22.85 M31.35 25.55 L30.55 25.2 M27.75 26.4 L26.65 25.65 M27.75 26.4 L28.1 26.6 30.25 28.35 30.45 28.5 31.15 29.2 Q31.3 28.7 32.3 27.75 31.9 29.6 32.0 29.9 L32.15 30.2 32.95 30.95 Q35.6 30.2 39.1 30.0 38.9 29.15 34.3 24.7 L32.45 23.95 30.15 23.1 M26.8 24.1 Q25.25 24.3 24.5 25.1 L24.35 25.3 25.3 25.15 25.8 25.3 M34.9 27.6 Q33.0 26.4 31.35 25.55" fill="none" stroke="#000000" stroke-linecap="round" stroke-linejoin="round" stroke-opacity="0.3019608" stroke-width="0.30000000000000004"/>
      <path d="M34.3 26.75 Q34.45 25.65 33.9 24.8 L32.55 24.35 Q31.95 24.45 31.65 25.3 L34.3 26.75" fill="#d3e33e" fill-rule="evenodd" stroke="none"/>
      <path d="M18.7 32.0 L19.15 32.3 19.25 32.4 Q18.95 31.5 19.2 30.7 L19.1 30.7 18.6 30.5 Q18.25 30.95 18.7 32.0 M21.75 32.7 Q21.45 33.85 22.65 35.9 L23.55 36.95 Q23.3 35.15 24.25 35.4 L21.75 32.7 M32.15 48.15 Q31.8 46.9 26.2 37.65 L27.45 42.05 Q29.7 45.9 32.15 48.15" fill="#7b4815" fill-rule="evenodd" stroke="none"/>
      <path d="M17.95 32.9 Q17.95 32.3 19.15 32.3 L18.7 32.0 16.65 31.9 16.55 32.0 Q16.8 31.8 17.45 32.45 L17.95 32.9 M23.55 36.95 L22.65 35.9 Q20.85 35.0 20.1 35.7 L20.6 36.3 23.05 40.05 23.35 40.5 Q22.7 38.05 23.55 36.95 M26.35 45.5 Q28.75 46.05 32.15 48.15 29.7 45.9 27.45 42.05 L26.35 45.5" fill="#613911" fill-rule="evenodd" stroke="none"/>
      <path d="M19.15 32.3 L19.3 32.5 20.65 33.7 20.65 33.8 Q18.95 32.8 18.85 34.0 L20.1 35.7 Q20.85 35.0 22.65 35.9 L20.65 33.7 Q19.6 31.6 20.95 31.9 L20.1 31.15 19.2 30.7 Q18.95 31.5 19.25 32.4 L19.15 32.3 M23.35 40.5 L24.15 41.85 Q24.2 41.25 24.9 40.6 25.0 42.9 25.2 43.45 L25.4 43.9 26.35 45.5 27.45 42.05 23.55 36.95 Q22.7 38.05 23.35 40.5" fill="#889515" fill-rule="evenodd" stroke="none"/>
      <path d="M20.65 33.7 L19.3 32.5 19.15 32.3 Q17.95 32.3 17.95 32.9 L18.7 33.8 18.85 34.0 Q18.95 32.8 20.65 33.8 L20.65 33.7" fill="#7b8613" fill-rule="evenodd" stroke="none"/>
      <path d="M20.95 31.9 Q19.6 31.6 20.65 33.7 L22.65 35.9 Q21.45 33.85 21.75 32.7 L20.95 31.9 M26.2 37.65 L24.25 35.4 Q23.3 35.15 23.55 36.95 L27.45 42.05 26.2 37.65" fill="#9cae18" fill-rule="evenodd" stroke="none"/>
      <path d="M19.15 32.3 L19.3 32.5 20.65 33.7 M18.85 34.0 L18.7 33.8 17.95 32.9 M19.15 32.3 L18.7 32.0 Q18.25 30.95 18.6 30.5 L19.1 30.7 19.2 30.7 M20.95 31.9 L21.75 32.7 M22.65 35.9 L20.65 33.7 M20.95 31.9 L20.1 31.15 19.2 30.7 M23.55 36.95 L22.65 35.9 M20.1 35.7 L18.85 34.0 M20.1 35.7 L20.6 36.3 23.05 40.05 23.35 40.5 24.15 41.85 Q24.2 41.25 24.9 40.6 25.0 42.9 25.2 43.45 L25.4 43.9 26.35 45.5 Q28.75 46.05 32.15 48.15 31.8 46.9 26.2 37.65 L24.25 35.4 21.75 32.7 M18.7 32.0 L16.65 31.9 16.55 32.0 Q16.8 31.8 17.45 32.45 L17.95 32.9 M27.45 42.05 L23.55 36.95" fill="none" stroke="#000000" stroke-linecap="round" stroke-linejoin="round" stroke-opacity="0.3019608" stroke-width="0.30000000000000004"/>
      <path d="M26.75 40.55 Q26.7 39.2 25.95 37.6 L24.5 36.1 Q23.95 35.95 23.85 36.9 L26.75 40.55" fill="#d3e33e" fill-rule="evenodd" stroke="none"/>
      <path d="M21.7 30.45 L22.05 30.65 22.2 30.65 Q22.05 30.0 22.45 29.3 L22.4 29.35 21.9 29.25 Q21.5 29.7 21.7 30.45 M24.7 30.5 Q24.15 31.5 24.9 32.95 L25.6 33.6 Q25.75 32.25 26.65 32.25 L24.7 30.5 M32.2 41.3 Q32.1 40.3 28.25 33.75 L28.6 37.15 Q30.1 39.95 32.2 41.3" fill="#7b4815" fill-rule="evenodd" stroke="none"/>
      <path d="M20.7 31.35 Q20.8 30.85 22.05 30.65 L21.7 30.45 Q20.3 30.05 19.6 30.75 L19.5 30.85 Q19.85 30.65 20.35 31.05 L20.7 31.35 M25.6 33.6 L24.9 32.95 Q23.25 32.55 22.35 33.25 L22.7 33.7 24.45 36.3 24.65 36.6 Q24.5 34.75 25.6 33.6 M26.7 40.15 Q29.05 40.25 32.2 41.3 30.1 39.95 28.6 37.15 L26.7 40.15" fill="#613911" fill-rule="evenodd" stroke="none"/>
      <path d="M22.05 30.65 L22.25 30.8 23.3 31.55 23.35 31.6 Q21.75 31.1 21.45 32.1 L22.35 33.25 Q23.25 32.55 24.9 32.95 L23.3 31.55 Q22.65 30.0 24.05 30.0 23.5 29.5 23.3 29.55 L22.45 29.3 Q22.05 30.0 22.2 30.65 L22.05 30.65 M24.65 36.6 L25.2 37.6 Q25.4 37.1 26.3 36.45 L25.95 38.7 26.1 39.05 26.7 40.15 28.6 37.15 25.6 33.6 Q24.5 34.75 24.65 36.6" fill="#889515" fill-rule="evenodd" stroke="none"/>
      <path d="M23.3 31.55 L22.25 30.8 22.05 30.65 Q20.8 30.85 20.7 31.35 L21.3 31.95 21.45 32.1 Q21.75 31.1 23.35 31.6 L23.3 31.55" fill="#7b8613" fill-rule="evenodd" stroke="none"/>
      <path d="M24.05 30.0 Q22.65 30.0 23.3 31.55 L24.9 32.95 Q24.15 31.5 24.7 30.5 L24.05 30.0 M28.25 33.75 L26.65 32.25 Q25.75 32.25 25.6 33.6 L28.6 37.15 28.25 33.75" fill="#9cae18" fill-rule="evenodd" stroke="none"/>
      <path d="M22.05 30.65 L22.25 30.8 23.3 31.55 M21.45 32.1 L21.3 31.95 20.7 31.35 M22.05 30.65 L21.7 30.45 Q21.5 29.7 21.9 29.25 L22.4 29.35 22.45 29.3 M24.05 30.0 L24.7 30.5 M24.9 32.95 L23.3 31.55 M24.05 30.0 Q23.5 29.5 23.3 29.55 L22.45 29.3 M25.6 33.6 L24.9 32.95 M22.35 33.25 L21.45 32.1 M22.35 33.25 L22.7 33.7 24.45 36.3 24.65 36.6 25.2 37.6 Q25.4 37.1 26.3 36.45 L25.95 38.7 26.1 39.05 26.7 40.15 Q29.05 40.25 32.2 41.3 32.1 40.3 28.25 33.75 L26.65 32.25 24.7 30.5 M21.7 30.45 Q20.3 30.05 19.6 30.75 L19.5 30.85 Q19.85 30.65 20.35 31.05 L20.7 31.35 M28.6 37.15 L25.6 33.6" fill="none" stroke="#000000" stroke-linecap="round" stroke-linejoin="round" stroke-opacity="0.3019608" stroke-width="0.30000000000000004"/>
      <path d="M28.15 36.1 Q28.4 35.0 27.95 33.8 L26.8 32.9 Q26.3 32.8 25.95 33.65 L28.15 36.1" fill="#d3e33e" fill-rule="evenodd" stroke="none"/>
      <path d="M19.75 30.85 L19.75 31.25 19.6 31.35 18.05 30.2 18.1 30.2 18.4 29.85 Q19.15 30.0 19.75 30.85 M17.65 32.6 Q19.05 33.25 20.05 35.05 L20.25 36.1 Q18.7 34.85 18.05 35.4 L17.65 32.6 M23.4 47.0 Q22.5 46.0 18.45 37.7 L21.75 41.1 Q23.55 44.55 23.4 47.0" fill="#7b4815" fill-rule="evenodd" stroke="none"/>
      <path d="M21.45 31.15 L19.75 31.25 19.75 30.85 Q20.4 29.7 21.6 29.9 L21.8 29.95 Q21.35 30.0 21.4 30.65 L21.45 31.15 M20.25 36.1 L20.05 35.05 Q20.8 33.75 22.2 33.85 L22.4 34.5 23.85 37.95 24.0 38.3 Q22.15 36.45 20.25 36.1 M26.25 42.85 Q24.6 44.25 23.4 47.0 23.55 44.55 21.75 41.1 L26.25 42.85" fill="#613911" fill-rule="evenodd" stroke="none"/>
      <path d="M19.75 31.25 L19.7 31.45 19.75 32.75 19.75 32.85 Q20.4 31.5 21.7 32.3 L22.2 33.85 Q20.8 33.75 20.05 35.05 19.75 33.8 19.75 32.75 18.65 31.0 17.55 31.75 L17.65 30.9 18.05 30.2 19.6 31.35 19.75 31.25 M24.0 38.3 L24.6 39.6 Q24.0 39.2 22.6 39.05 24.85 40.55 25.25 41.0 L25.5 41.4 26.25 42.85 21.75 41.1 Q20.75 38.3 20.25 36.1 22.15 36.45 24.0 38.3" fill="#889515" fill-rule="evenodd" stroke="none"/>
      <path d="M19.75 32.75 L19.7 31.45 19.75 31.25 21.45 31.15 21.65 32.05 21.7 32.3 Q20.4 31.5 19.75 32.85 L19.75 32.75" fill="#7b8613" fill-rule="evenodd" stroke="none"/>
      <path d="M17.55 31.75 Q18.65 31.0 19.75 32.75 19.75 33.8 20.05 35.05 19.05 33.25 17.65 32.6 L17.55 31.75 M18.45 37.7 L18.05 35.4 Q18.7 34.85 20.25 36.1 20.75 38.3 21.75 41.1 L18.45 37.7" fill="#9cae18" fill-rule="evenodd" stroke="none"/>
      <path d="M19.75 31.25 L19.7 31.45 19.75 32.75 M21.7 32.3 L21.65 32.05 21.45 31.15 M19.75 31.25 L19.75 30.85 Q19.15 30.0 18.4 29.85 L18.1 30.2 18.05 30.2 M17.55 31.75 L17.65 32.6 M20.05 35.05 Q19.75 33.8 19.75 32.75 M17.55 31.75 L17.65 30.9 18.05 30.2 M20.25 36.1 L20.05 35.05 M22.2 33.85 L21.7 32.3 M22.2 33.85 L22.4 34.5 23.85 37.95 24.0 38.3 24.6 39.6 Q24.0 39.2 22.6 39.05 24.85 40.55 25.25 41.0 L25.5 41.4 26.25 42.85 Q24.6 44.25 23.4 47.0 22.5 46.0 18.45 37.7 L18.05 35.4 17.65 32.6 M19.75 30.85 Q20.4 29.7 21.6 29.9 L21.8 29.95 Q21.35 30.0 21.4 30.65 L21.45 31.15 M21.75 41.1 Q20.75 38.3 20.25 36.1" fill="none" stroke="#000000" stroke-linecap="round" stroke-linejoin="round" stroke-opacity="0.3019608" stroke-width="0.30000000000000004"/>
      <path d="M20.75 39.7 Q19.4 38.85 18.5 37.45 L18.4 35.95 Q18.65 35.55 19.8 36.15 L20.75 39.7" fill="#d3e33e" fill-rule="evenodd" stroke="none"/>
      <path d="M20.25 29.75 L20.55 29.95 20.75 30.0 Q20.8 29.4 21.4 28.85 L21.35 28.85 20.85 28.65 Q20.25 29.0 20.25 29.75 M23.5 30.25 Q22.6 31.05 22.95 32.45 L23.5 33.15 Q24.1 31.95 25.05 32.1 L23.5 30.25 M28.25 41.0 Q28.4 40.1 26.3 33.65 L25.6 36.75 Q26.35 39.45 28.25 41.0" fill="#7b4815" fill-rule="evenodd" stroke="none"/>
      <path d="M18.9 30.4 Q19.2 29.95 20.55 29.95 L20.25 29.75 17.95 29.65 17.75 29.75 Q18.15 29.6 18.6 30.05 L18.9 30.4 M23.5 33.15 L22.95 32.45 20.15 32.35 20.35 32.75 21.45 35.4 21.55 35.65 Q21.95 34.0 23.5 33.15 M22.65 39.15 Q25.15 39.55 28.25 41.0 26.35 39.45 25.6 36.75 L22.65 39.15" fill="#613911" fill-rule="evenodd" stroke="none"/>
      <path d="M20.55 29.95 L20.7 30.1 21.65 30.95 21.65 31.0 Q20.1 30.3 19.45 31.15 L20.15 32.35 22.95 32.45 21.65 30.95 Q21.4 29.5 22.9 29.7 L22.25 29.15 21.4 28.85 Q20.8 29.4 20.75 30.0 L20.55 29.95 M21.55 35.65 L21.85 36.6 Q22.15 36.2 23.35 35.7 22.35 37.3 22.3 37.7 L22.35 38.05 22.65 39.15 25.6 36.75 23.5 33.15 Q21.95 34.0 21.55 35.65" fill="#889515" fill-rule="evenodd" stroke="none"/>
      <path d="M21.65 30.95 L20.7 30.1 20.55 29.95 Q19.2 29.95 18.9 30.4 L19.35 31.0 19.45 31.15 Q20.1 30.3 21.65 31.0 L21.65 30.95" fill="#7b8613" fill-rule="evenodd" stroke="none"/>
      <path d="M22.9 29.7 Q21.4 29.5 21.65 30.95 L22.95 32.45 Q22.6 31.05 23.5 30.25 L22.9 29.7 M26.3 33.65 L25.05 32.1 Q24.1 31.95 23.5 33.15 L25.6 36.75 26.3 33.65" fill="#9cae18" fill-rule="evenodd" stroke="none"/>
      <path d="M20.55 29.95 L20.7 30.1 21.65 30.95 M19.45 31.15 L19.35 31.0 18.9 30.4 M20.55 29.95 L20.25 29.75 Q20.25 29.0 20.85 28.65 L21.35 28.85 21.4 28.85 M22.9 29.7 L23.5 30.25 M22.95 32.45 L21.65 30.95 M22.9 29.7 L22.25 29.15 21.4 28.85 M23.5 33.15 L22.95 32.45 M20.15 32.35 L19.45 31.15 M20.15 32.35 L20.35 32.75 21.45 35.4 21.55 35.65 21.85 36.6 Q22.15 36.2 23.35 35.7 22.35 37.3 22.3 37.7 L22.35 38.05 22.65 39.15 Q25.15 39.55 28.25 41.0 28.4 40.1 26.3 33.65 L25.05 32.1 23.5 30.25 M20.25 29.75 L17.95 29.65 17.75 29.75 Q18.15 29.6 18.6 30.05 L18.9 30.4 M25.6 36.75 L23.5 33.15" fill="none" stroke="#000000" stroke-linecap="round" stroke-linejoin="round" stroke-opacity="0.3019608" stroke-width="0.30000000000000004"/>
      <path d="M25.35 35.7 Q26.0 34.7 25.85 33.6 L24.85 32.6 Q24.35 32.45 23.7 33.15 L25.35 35.7" fill="#d3e33e" fill-rule="evenodd" stroke="none"/>
      <path d="M17.9 29.9 L18.25 29.95 18.05 30.1 17.95 30.15 17.6 30.85 Q17.4 30.9 17.5 31.6 17.0 31.45 16.75 31.8 L16.6 31.95 Q16.9 31.85 17.5 32.45 L17.5 32.5 17.55 32.6 18.0 35.35 18.4 37.6 Q22.45 45.95 23.35 46.9 24.2 44.9 25.3 43.65 L25.45 43.9 26.4 45.45 Q28.85 46.05 32.25 48.1 L28.3 40.95 28.2 40.4 32.2 41.3 Q32.1 40.35 28.2 33.8 L26.65 32.35 24.75 30.55 24.05 30.05 23.35 29.55 22.55 29.4 22.3 29.25 21.5 29.0 21.35 29.0 20.85 28.85 Q20.25 29.15 20.35 29.85 L17.9 29.75 17.8 29.85 17.9 29.9 M27.55 22.85 L27.5 22.85 26.95 22.95 Q26.5 23.5 26.8 24.1 25.25 24.25 24.5 25.05 L24.35 25.2 24.85 25.1 24.75 25.3 24.7 25.4 24.6 26.05 Q24.45 26.3 24.7 26.8 24.25 27.0 24.15 27.35 L24.1 27.45 25.15 27.5 25.25 27.55 26.8 29.7 28.05 31.5 Q35.35 36.65 36.7 37.05 36.75 34.95 37.25 33.4 L37.5 33.6 39.1 34.45 45.85 34.0 Q45.1 33.35 39.05 29.8 L38.75 29.35 43.15 28.35 Q42.7 27.6 36.25 23.85 L34.1 23.25 31.5 22.7 30.7 22.55 29.8 22.5 28.85 22.7 28.5 22.65 27.55 22.85 M35.85 31.2 L35.65 31.15 35.7 30.95 35.85 31.2" fill="#000000" fill-opacity="0.4" fill-rule="evenodd" stroke="none"/>
      <path d="M22.65 23.3 L23.05 23.45 23.15 23.4 Q22.7 22.55 22.65 21.55 L22.6 21.6 22.15 21.6 Q22.05 22.3 22.65 23.3 M25.15 22.5 Q25.25 24.0 26.65 25.75 L27.55 26.45 Q26.9 24.55 27.7 24.3 L25.15 22.5 M37.0 34.8 Q36.4 33.55 29.8 25.85 L31.85 30.25 Q34.55 33.55 37.0 34.8" fill="#7b4815" fill-rule="evenodd" stroke="none"/>
      <path d="M22.4 24.8 Q22.2 24.1 23.05 23.45 L22.65 23.3 Q21.35 23.2 21.15 24.25 L21.1 24.45 Q21.25 24.1 21.85 24.45 L22.4 24.8 M27.55 26.45 L26.65 25.75 Q25.05 25.6 24.7 26.85 L25.25 27.3 28.05 30.3 28.35 30.65 Q27.25 28.2 27.55 26.45 M31.9 34.85 Q33.85 34.2 37.0 34.8 34.55 33.55 31.85 30.25 L31.9 34.85" fill="#613911" fill-rule="evenodd" stroke="none"/>
      <path d="M23.05 23.45 L23.25 23.55 24.55 24.3 24.6 24.35 Q23.1 24.15 23.35 25.55 L24.7 26.85 Q25.05 25.6 26.65 25.75 L24.55 24.3 Q23.25 22.4 24.3 22.0 23.65 21.55 23.45 21.55 L22.65 21.55 Q22.7 22.55 23.15 23.4 L23.05 23.45 M28.35 30.65 L29.35 31.85 Q29.2 31.1 29.6 29.95 30.25 32.5 30.55 33.05 L30.85 33.5 31.9 34.85 31.85 30.25 27.55 26.45 Q27.25 28.2 28.35 30.65" fill="#889515" fill-rule="evenodd" stroke="none"/>
      <path d="M24.55 24.3 L23.25 23.55 23.05 23.45 Q22.2 24.1 22.4 24.8 L23.15 25.4 23.35 25.55 Q23.1 24.15 24.6 24.35 L24.55 24.3" fill="#7b8613" fill-rule="evenodd" stroke="none"/>
      <path d="M24.3 22.0 Q23.25 22.4 24.55 24.3 L26.65 25.75 Q25.25 24.0 25.15 22.5 L24.3 22.0 M29.8 25.85 L27.7 24.3 Q26.9 24.55 27.55 26.45 L31.85 30.25 29.8 25.85" fill="#9cae18" fill-rule="evenodd" stroke="none"/>
      <path d="M23.05 23.45 L23.25 23.55 24.55 24.3 M23.35 25.55 L23.15 25.4 22.4 24.8 M23.05 23.45 L22.65 23.3 Q22.05 22.3 22.15 21.6 L22.6 21.6 22.65 21.55 M24.3 22.0 L25.15 22.5 M26.65 25.75 L24.55 24.3 M24.3 22.0 Q23.65 21.55 23.45 21.55 L22.65 21.55 M27.55 26.45 L26.65 25.75 M24.7 26.85 L23.35 25.55 M24.7 26.85 L25.25 27.3 28.05 30.3 28.35 30.65 29.35 31.85 Q29.2 31.1 29.6 29.95 30.25 32.5 30.55 33.05 L30.85 33.5 31.9 34.85 Q33.85 34.2 37.0 34.8 36.4 33.55 29.8 25.85 L27.7 24.3 25.15 22.5 M22.65 23.3 Q21.35 23.2 21.15 24.25 L21.1 24.45 Q21.25 24.1 21.85 24.45 L22.4 24.8 M31.85 30.25 L27.55 26.45" fill="none" stroke="#000000" stroke-linecap="round" stroke-linejoin="round" stroke-opacity="0.3019608" stroke-width="0.30000000000000004"/>
      <path d="M30.85 28.85 Q30.45 27.3 29.45 25.85 L28.0 24.9 Q27.5 24.95 27.7 26.15 L30.85 28.85" fill="#d3e33e" fill-rule="evenodd" stroke="none"/>
      <path d="M24.55 20.3 L24.85 20.35 25.0 20.25 Q24.7 19.55 24.8 18.6 L24.75 18.65 24.35 18.85 Q24.15 19.5 24.55 20.3 M26.8 18.75 Q26.65 20.25 27.65 21.5 L28.35 21.9 Q28.1 20.25 28.7 19.75 L26.8 18.75 M35.25 27.25 Q34.9 26.2 30.35 20.65 L31.45 24.35 Q33.3 26.85 35.25 27.25" fill="#7b4815" fill-rule="evenodd" stroke="none"/>
      <path d="M24.1 21.9 Q24.0 21.25 24.85 20.35 L24.55 20.3 Q23.4 20.6 23.05 21.75 L23.0 21.9 Q23.25 21.55 23.7 21.7 L24.1 21.9 M28.35 21.9 L27.65 21.5 Q26.3 21.9 25.8 23.15 L26.15 23.5 28.2 25.55 28.4 25.85 Q27.8 23.8 28.35 21.9 M30.85 28.9 Q32.65 27.7 35.25 27.25 33.3 26.85 31.45 24.35 L30.85 28.9" fill="#613911" fill-rule="evenodd" stroke="none"/>
      <path d="M24.85 20.35 L25.0 20.4 26.0 20.75 26.05 20.75 Q24.8 21.0 24.85 22.35 L25.8 23.15 Q26.3 21.9 27.65 21.5 26.8 21.0 26.0 20.75 25.15 19.3 26.15 18.55 L25.5 18.35 24.8 18.6 Q24.7 19.55 25.0 20.25 L24.85 20.35 M28.4 25.85 L29.1 26.7 Q29.05 26.0 29.55 24.75 29.75 27.15 29.9 27.55 L30.1 27.9 30.85 28.9 31.45 24.35 28.35 21.9 Q27.8 23.8 28.4 25.85" fill="#889515" fill-rule="evenodd" stroke="none"/>
      <path d="M26.0 20.75 L25.0 20.4 24.85 20.35 Q24.0 21.25 24.1 21.9 L24.65 22.25 24.85 22.35 Q24.8 21.0 26.05 20.75 L26.0 20.75" fill="#7b8613" fill-rule="evenodd" stroke="none"/>
      <path d="M26.15 18.55 Q25.15 19.3 26.0 20.75 26.8 21.0 27.65 21.5 26.65 20.25 26.8 18.75 L26.15 18.55 M30.35 20.65 L28.7 19.75 Q28.1 20.25 28.35 21.9 L31.45 24.35 30.35 20.65" fill="#9cae18" fill-rule="evenodd" stroke="none"/>
      <path d="M24.85 20.35 L25.0 20.4 26.0 20.75 M24.85 22.35 L24.65 22.25 24.1 21.9 M24.85 20.35 L24.55 20.3 Q24.15 19.5 24.35 18.85 L24.75 18.65 24.8 18.6 M26.15 18.55 L26.8 18.75 M27.65 21.5 Q26.8 21.0 26.0 20.75 M26.15 18.55 L25.5 18.35 24.8 18.6 M28.35 21.9 L27.65 21.5 M25.8 23.15 L24.85 22.35 M25.8 23.15 L26.15 23.5 28.2 25.55 28.4 25.85 29.1 26.7 Q29.05 26.0 29.55 24.75 29.75 27.15 29.9 27.55 L30.1 27.9 30.85 28.9 Q32.65 27.7 35.25 27.25 34.9 26.2 30.35 20.65 L28.7 19.75 26.8 18.75 M24.55 20.3 Q23.4 20.6 23.05 21.75 L23.0 21.9 Q23.25 21.55 23.7 21.7 L24.1 21.9 M31.45 24.35 L28.35 21.9" fill="none" stroke="#000000" stroke-linecap="round" stroke-linejoin="round" stroke-opacity="0.3019608" stroke-width="0.30000000000000004"/>
      <path d="M30.7 23.25 Q30.6 21.8 29.95 20.7 L28.85 20.2 Q28.45 20.4 28.4 21.55 L30.7 23.25" fill="#d3e33e" fill-rule="evenodd" stroke="none"/>
      <path d="M23.15 21.55 L23.2 22.05 23.15 22.2 Q22.55 21.7 21.7 21.75 L21.75 21.7 21.85 21.1 Q22.45 20.9 23.15 21.55 M22.0 24.65 Q23.25 24.7 24.45 26.25 L24.9 27.35 Q23.4 26.8 23.1 27.7 L22.0 24.65 M30.15 38.3 Q29.2 37.65 24.0 30.15 L27.3 32.35 Q29.6 35.35 30.15 38.3" fill="#7b4815" fill-rule="evenodd" stroke="none"/>
      <path d="M24.45 21.05 Q23.9 20.9 23.2 22.05 L23.15 21.55 Q23.3 19.9 24.25 19.55 L24.45 19.45 Q24.1 19.75 24.3 20.45 L24.45 21.05 M24.9 27.35 L24.45 26.25 Q24.65 24.3 25.75 23.75 L26.05 24.35 28.05 27.55 28.3 27.9 Q26.45 26.75 24.9 27.35 M31.15 31.95 Q30.25 34.45 30.15 38.3 29.6 35.35 27.3 32.35 L31.15 31.95" fill="#613911" fill-rule="evenodd" stroke="none"/>
      <path d="M23.2 22.05 L23.25 22.25 23.65 23.8 23.65 23.9 Q23.8 21.95 24.95 22.2 L25.75 23.75 Q24.65 24.3 24.45 26.25 L23.65 23.8 21.75 23.75 21.55 22.75 21.7 21.75 Q22.55 21.7 23.15 22.2 L23.2 22.05 M28.3 27.9 L29.1 29.05 Q28.5 28.95 27.45 29.55 29.55 30.05 29.9 30.4 L30.25 30.7 31.15 31.95 27.3 32.35 24.9 27.35 Q26.45 26.75 28.3 27.9" fill="#889515" fill-rule="evenodd" stroke="none"/>
      <path d="M23.65 23.8 L23.25 22.25 23.2 22.05 Q23.9 20.9 24.45 21.05 L24.8 21.9 24.95 22.2 Q23.8 21.95 23.65 23.9 L23.65 23.8" fill="#7b8613" fill-rule="evenodd" stroke="none"/>
      <path d="M21.75 23.75 L23.65 23.8 24.45 26.25 Q23.25 24.7 22.0 24.65 L21.75 23.75 M24.0 30.15 L23.1 27.7 Q23.4 26.8 24.9 27.35 L27.3 32.35 24.0 30.15" fill="#9cae18" fill-rule="evenodd" stroke="none"/>
      <path d="M23.2 22.05 L23.25 22.25 23.65 23.8 M24.95 22.2 L24.8 21.9 24.45 21.05 M23.2 22.05 L23.15 21.55 Q22.45 20.9 21.85 21.1 L21.75 21.7 21.7 21.75 M21.75 23.75 L22.0 24.65 M24.45 26.25 L23.65 23.8 M21.75 23.75 L21.55 22.75 21.7 21.75 M24.9 27.35 L24.45 26.25 M25.75 23.75 L24.95 22.2 M25.75 23.75 L26.05 24.35 28.05 27.55 28.3 27.9 29.1 29.05 Q28.5 28.95 27.45 29.55 29.55 30.05 29.9 30.4 L30.25 30.7 31.15 31.95 Q30.25 34.45 30.15 38.3 29.2 37.65 24.0 30.15 L23.1 27.7 22.0 24.65 M23.15 21.55 Q23.3 19.9 24.25 19.55 L24.45 19.45 Q24.1 19.75 24.3 20.45 L24.45 21.05 M27.3 32.35 L24.9 27.35" fill="none" stroke="#000000" stroke-linecap="round" stroke-linejoin="round" stroke-opacity="0.3019608" stroke-width="0.30000000000000004"/>
      <path d="M26.4 31.05 Q25.1 30.7 24.15 29.65 L23.6 27.9 Q23.7 27.35 24.7 27.4 L26.4 31.05" fill="#d3e33e" fill-rule="evenodd" stroke="none"/>
      <path d="M23.3 20.2 L23.55 20.35 23.65 20.3 Q23.55 19.5 23.85 18.55 L23.8 18.6 23.4 18.7 Q23.0 19.35 23.3 20.2 M25.75 19.05 Q25.35 20.45 26.0 21.95 L26.55 22.5 Q26.7 20.75 27.4 20.4 L25.75 19.05 M32.15 28.95 Q32.05 27.85 28.8 21.55 L29.15 25.45 Q30.4 28.2 32.15 28.95" fill="#7b4815" fill-rule="evenodd" stroke="none"/>
      <path d="M22.45 21.7 Q22.55 21.0 23.55 20.35 L23.3 20.2 Q22.1 20.3 21.5 21.35 L21.35 21.55 22.1 21.45 22.45 21.7 M26.55 22.5 L26.0 21.95 Q24.6 22.1 23.85 23.25 L24.15 23.7 25.65 26.05 25.75 26.4 Q25.6 24.2 26.55 22.5 M27.55 29.8 Q29.55 28.95 32.15 28.95 30.4 28.2 29.15 25.45 L27.55 29.8" fill="#613911" fill-rule="evenodd" stroke="none"/>
      <path d="M23.55 20.35 L23.65 20.35 24.6 20.9 24.6 20.95 Q23.35 20.95 23.05 22.3 L23.85 23.25 Q24.6 22.1 26.0 21.95 L24.6 20.9 Q24.05 19.3 25.2 18.7 24.75 18.35 24.6 18.45 L23.85 18.55 Q23.55 19.5 23.65 20.3 L23.55 20.35 M25.75 26.4 L26.25 27.3 27.15 25.5 Q26.8 27.9 26.9 28.35 L27.0 28.75 27.55 29.8 29.15 25.45 26.55 22.5 Q25.6 24.2 25.75 26.4" fill="#889515" fill-rule="evenodd" stroke="none"/>
      <path d="M24.6 20.9 L23.65 20.35 23.55 20.35 Q22.55 21.0 22.45 21.7 L22.9 22.15 23.05 22.3 Q23.35 20.95 24.6 20.95 L24.6 20.9" fill="#7b8613" fill-rule="evenodd" stroke="none"/>
      <path d="M25.2 18.7 Q24.05 19.3 24.6 20.9 L26.0 21.95 Q25.35 20.45 25.75 19.05 L25.2 18.7 M28.8 21.55 L27.4 20.4 Q26.7 20.75 26.55 22.5 L29.15 25.45 28.8 21.55" fill="#9cae18" fill-rule="evenodd" stroke="none"/>
      <path d="M23.55 20.35 L23.65 20.35 24.6 20.9 M23.05 22.3 L22.9 22.15 22.45 21.7 M23.55 20.35 L23.3 20.2 Q23.0 19.35 23.4 18.7 L23.8 18.6 23.85 18.55 M25.2 18.7 L25.75 19.05 M26.0 21.95 L24.6 20.9 M25.2 18.7 Q24.75 18.35 24.6 18.45 L23.85 18.55 M26.55 22.5 L26.0 21.95 M23.85 23.25 L23.05 22.3 M23.85 23.25 L24.15 23.7 25.65 26.05 25.75 26.4 26.25 27.3 27.15 25.5 Q26.8 27.9 26.9 28.35 L27.0 28.75 27.55 29.8 Q29.55 28.95 32.15 28.95 32.05 27.85 28.8 21.55 L27.4 20.4 25.75 19.05 M23.3 20.2 Q22.1 20.3 21.5 21.35 L21.35 21.55 22.1 21.45 22.45 21.7 M29.15 25.45 L26.55 22.5" fill="none" stroke="#000000" stroke-linecap="round" stroke-linejoin="round" stroke-opacity="0.3019608" stroke-width="0.30000000000000004"/>
      <path d="M28.7 24.15 Q28.9 22.7 28.5 21.5 L27.5 20.85 Q27.05 20.95 26.8 22.1 L28.7 24.15" fill="#d3e33e" fill-rule="evenodd" stroke="none"/>
      <path d="M15.35 19.9 L15.7 20.1 15.8 20.05 Q15.5 19.2 15.6 18.15 L15.55 18.2 15.15 18.15 Q14.9 18.8 15.35 19.9 M17.8 19.4 Q17.7 20.9 18.8 22.8 L19.6 23.65 Q19.3 21.65 20.05 21.5 L17.8 19.4 M27.55 33.1 Q27.1 31.8 21.85 23.3 L23.25 28.0 Q25.35 31.65 27.55 33.1" fill="#7b4815" fill-rule="evenodd" stroke="none"/>
      <path d="M14.8 21.35 Q14.75 20.65 15.7 20.1 L15.35 19.9 Q14.05 19.65 13.65 20.7 L13.6 20.85 Q13.8 20.55 14.35 21.0 L14.8 21.35 M19.6 23.65 L18.8 22.8 Q17.3 22.5 16.8 23.65 L17.2 24.25 19.5 27.55 19.75 28.0 Q19.05 25.4 19.6 23.65 M22.6 32.6 Q24.6 32.25 27.55 33.1 25.35 31.65 23.25 28.0 L22.6 32.6" fill="#613911" fill-rule="evenodd" stroke="none"/>
      <path d="M15.7 20.1 L15.85 20.2 17.05 21.1 17.05 21.15 Q15.55 20.75 15.6 22.25 L16.8 23.65 Q17.3 22.5 18.8 22.8 L17.05 21.1 Q15.95 19.05 17.1 18.75 L16.4 18.25 15.6 18.15 Q15.5 19.2 15.8 20.05 L15.7 20.1 M19.75 28.0 L20.55 29.25 Q20.55 28.5 21.05 27.4 21.3 30.1 21.55 30.7 L21.7 31.15 22.6 32.6 23.25 28.0 Q21.3 25.45 19.6 23.65 19.05 25.4 19.75 28.0" fill="#889515" fill-rule="evenodd" stroke="none"/>
      <path d="M17.05 21.1 L15.85 20.2 15.7 20.1 Q14.75 20.65 14.8 21.35 L15.45 22.05 15.6 22.25 Q15.55 20.75 17.05 21.15 L17.05 21.1" fill="#7b8613" fill-rule="evenodd" stroke="none"/>
      <path d="M17.1 18.75 Q15.95 19.05 17.05 21.1 L18.8 22.8 Q17.7 20.9 17.8 19.4 L17.1 18.75 M21.85 23.3 L20.05 21.5 Q19.3 21.65 19.6 23.65 21.3 25.45 23.25 28.0 L21.85 23.3" fill="#9cae18" fill-rule="evenodd" stroke="none"/>
      <path d="M15.7 20.1 L15.85 20.2 17.05 21.1 M15.6 22.25 L15.45 22.05 14.8 21.35 M15.7 20.1 L15.35 19.9 Q14.9 18.8 15.15 18.15 L15.55 18.2 15.6 18.15 M17.1 18.75 L17.8 19.4 M18.8 22.8 L17.05 21.1 M17.1 18.75 L16.4 18.25 15.6 18.15 M19.6 23.65 L18.8 22.8 M16.8 23.65 L15.6 22.25 M16.8 23.65 L17.2 24.25 19.5 27.55 19.75 28.0 20.55 29.25 Q20.55 28.5 21.05 27.4 21.3 30.1 21.55 30.7 L21.7 31.15 22.6 32.6 Q24.6 32.25 27.55 33.1 27.1 31.8 21.85 23.3 L20.05 21.5 17.8 19.4 M15.35 19.9 Q14.05 19.65 13.65 20.7 L13.6 20.85 Q13.8 20.55 14.35 21.0 L14.8 21.35 M23.25 28.0 Q21.3 25.45 19.6 23.65" fill="none" stroke="#000000" stroke-linecap="round" stroke-linejoin="round" stroke-opacity="0.3019608" stroke-width="0.30000000000000004"/>
      <path d="M22.3 26.6 Q22.15 24.95 21.45 23.4 L20.1 22.3 Q19.7 22.3 19.65 23.55 L22.3 26.6" fill="#d3e33e" fill-rule="evenodd" stroke="none"/>
      <path d="M17.6 17.1 L17.85 17.2 18.0 17.15 Q17.85 16.4 18.05 15.4 L18.0 15.45 17.6 15.6 Q17.3 16.25 17.6 17.1 M20.0 15.8 Q19.6 17.25 20.35 18.65 L21.0 19.15 Q21.0 17.4 21.7 17.05 L20.0 15.8 M26.9 25.35 Q26.7 24.25 23.1 18.1 L23.65 22.05 Q25.1 24.65 26.9 25.35" fill="#7b4815" fill-rule="evenodd" stroke="none"/>
      <path d="M16.9 18.65 Q16.9 18.0 17.85 17.2 L17.6 17.1 Q16.4 17.3 15.9 18.35 L15.8 18.55 Q16.1 18.2 16.55 18.4 L16.9 18.65 M21.0 19.15 L20.35 18.65 Q19.0 18.9 18.35 20.15 L18.65 20.5 20.3 22.85 20.45 23.1 Q20.2 20.95 21.0 19.15 M22.4 26.5 Q24.35 25.45 26.9 25.35 25.1 24.65 23.65 22.05 L22.4 26.5" fill="#613911" fill-rule="evenodd" stroke="none"/>
      <path d="M17.85 17.2 L18.0 17.25 18.95 17.65 19.0 17.7 Q17.65 17.8 17.5 19.2 L18.35 20.15 Q19.0 18.9 20.35 18.65 L18.95 17.65 Q18.3 16.1 19.4 15.45 L18.75 15.3 18.05 15.4 Q17.85 16.4 18.0 17.15 L17.85 17.2 M20.45 23.1 L21.0 24.05 Q21.1 23.35 21.75 22.15 L21.65 25.05 21.8 25.4 22.4 26.5 23.65 22.05 21.0 19.15 Q20.2 20.95 20.45 23.1" fill="#889515" fill-rule="evenodd" stroke="none"/>
      <path d="M18.95 17.65 L18.0 17.25 17.85 17.2 Q16.9 18.0 16.9 18.65 L17.4 19.05 17.5 19.2 Q17.65 17.8 19.0 17.7 L18.95 17.65" fill="#7b8613" fill-rule="evenodd" stroke="none"/>
      <path d="M19.4 15.45 Q18.3 16.1 18.95 17.65 L20.35 18.65 Q19.6 17.25 20.0 15.8 L19.4 15.45 M23.1 18.1 L21.7 17.05 Q21.0 17.4 21.0 19.15 L23.65 22.05 23.1 18.1" fill="#9cae18" fill-rule="evenodd" stroke="none"/>
      <path d="M17.85 17.2 L18.0 17.25 18.95 17.65 M17.5 19.2 L17.4 19.05 16.9 18.65 M17.85 17.2 L17.6 17.1 Q17.3 16.25 17.6 15.6 L18.0 15.45 18.05 15.4 M19.4 15.45 L20.0 15.8 M20.35 18.65 L18.95 17.65 M19.4 15.45 L18.75 15.3 18.05 15.4 M21.0 19.15 L20.35 18.65 M18.35 20.15 L17.5 19.2 M18.35 20.15 L18.65 20.5 20.3 22.85 20.45 23.1 21.0 24.05 Q21.1 23.35 21.75 22.15 L21.65 25.05 21.8 25.4 22.4 26.5 Q24.35 25.45 26.9 25.35 26.7 24.25 23.1 18.1 L21.7 17.05 20.0 15.8 M17.6 17.1 Q16.4 17.3 15.9 18.35 L15.8 18.55 Q16.1 18.2 16.55 18.4 L16.9 18.65 M23.65 22.05 L21.0 19.15" fill="none" stroke="#000000" stroke-linecap="round" stroke-linejoin="round" stroke-opacity="0.3019608" stroke-width="0.30000000000000004"/>
      <path d="M23.2 20.95 Q23.25 19.55 22.8 18.35 L21.75 17.75 Q21.35 17.85 21.15 19.0 L23.2 20.95" fill="#d3e33e" fill-rule="evenodd" stroke="none"/>
      <path d="M15.9 18.4 L15.95 18.85 15.85 19.05 Q15.3 18.4 14.45 18.4 L14.55 18.35 14.7 17.8 Q15.3 17.6 15.9 18.4 M14.35 21.4 Q15.55 21.55 16.45 23.25 L16.75 24.45 Q15.35 23.65 14.95 24.55 L14.35 21.4 M20.2 36.05 Q19.4 35.3 15.45 27.15 L18.35 29.75 Q20.1 33.05 20.2 36.05" fill="#7b4815" fill-rule="evenodd" stroke="none"/>
      <path d="M17.3 18.0 Q16.75 17.8 15.95 18.85 L15.9 18.4 Q16.35 16.75 17.3 16.45 L17.45 16.4 Q17.15 16.6 17.2 17.4 L17.3 18.0 M16.75 24.45 L16.45 23.25 Q17.0 21.3 18.15 20.9 L18.35 21.55 19.8 25.05 19.95 25.4 Q18.35 24.0 16.75 24.45 M22.15 29.8 Q20.9 32.2 20.2 36.05 20.1 33.05 18.35 29.75 L22.15 29.8" fill="#613911" fill-rule="evenodd" stroke="none"/>
      <path d="M15.95 18.85 L15.9 19.1 16.1 20.7 16.1 20.75 Q16.45 18.9 17.6 19.2 L18.15 20.9 Q17.0 21.3 16.45 23.25 L16.1 20.7 Q14.95 19.05 14.2 20.45 L14.2 19.4 14.45 18.4 Q15.3 18.4 15.85 19.05 L15.95 18.85 M19.95 25.4 L20.55 26.65 18.9 26.95 21.2 28.05 21.45 28.45 22.15 29.8 18.35 29.75 16.75 24.45 Q18.35 24.0 19.95 25.4" fill="#889515" fill-rule="evenodd" stroke="none"/>
      <path d="M16.1 20.7 L15.9 19.1 15.95 18.85 Q16.75 17.8 17.3 18.0 L17.5 18.95 17.6 19.2 Q16.45 18.9 16.1 20.75 L16.1 20.7" fill="#7b8613" fill-rule="evenodd" stroke="none"/>
      <path d="M14.2 20.45 Q14.95 19.05 16.1 20.7 L16.45 23.25 Q15.55 21.55 14.35 21.4 L14.2 20.45 M15.45 27.15 L14.95 24.55 Q15.35 23.65 16.75 24.45 L18.35 29.75 15.45 27.15" fill="#9cae18" fill-rule="evenodd" stroke="none"/>
      <path d="M15.95 18.85 L15.9 19.1 16.1 20.7 M17.6 19.2 L17.5 18.95 17.3 18.0 M15.95 18.85 L15.9 18.4 Q15.3 17.6 14.7 17.8 L14.55 18.35 14.45 18.4 M14.2 20.45 L14.35 21.4 M16.45 23.25 L16.1 20.7 M14.2 20.45 L14.2 19.4 14.45 18.4 M16.75 24.45 L16.45 23.25 M18.15 20.9 L17.6 19.2 M18.15 20.9 L18.35 21.55 19.8 25.05 19.95 25.4 20.55 26.65 18.9 26.95 21.2 28.05 21.45 28.45 22.15 29.8 Q20.9 32.2 20.2 36.05 19.4 35.3 15.45 27.15 L14.95 24.55 14.35 21.4 M15.9 18.4 Q16.35 16.75 17.3 16.45 L17.45 16.4 Q17.15 16.6 17.2 17.4 L17.3 18.0 M18.35 29.75 L16.75 24.45" fill="none" stroke="#000000" stroke-linecap="round" stroke-linejoin="round" stroke-opacity="0.3019608" stroke-width="0.30000000000000004"/>
      <path d="M17.5 28.3 Q16.35 27.8 15.55 26.6 L15.3 24.85 Q15.5 24.25 16.45 24.5 L17.5 28.3" fill="#d3e33e" fill-rule="evenodd" stroke="none"/>
      <path d="M16.2 16.85 L16.45 16.95 16.6 16.9 Q16.6 16.15 17.05 15.2 L16.95 15.25 16.55 15.35 Q16.1 15.95 16.2 16.85 M18.8 16.0 Q18.15 17.35 18.6 18.85 L19.1 19.45 Q19.45 17.75 20.25 17.5 L18.8 16.0 M23.6 26.7 Q23.65 25.55 21.35 18.8 L21.1 22.8 Q21.9 25.7 23.6 26.7" fill="#7b4815" fill-rule="evenodd" stroke="none"/>
      <path d="M15.15 18.25 Q15.35 17.55 16.45 16.95 L16.2 16.85 Q15.0 16.8 14.3 17.8 L14.15 17.95 Q14.5 17.7 14.85 17.95 L15.15 18.25 M19.1 19.45 L18.6 18.85 Q17.25 18.85 16.3 20.0 L16.55 20.4 17.65 23.05 17.7 23.3 Q17.9 21.15 19.1 19.45 M18.9 27.05 L23.6 26.7 Q21.9 25.7 21.1 22.8 L18.9 27.05" fill="#613911" fill-rule="evenodd" stroke="none"/>
      <path d="M16.45 16.95 L16.6 17.05 17.4 17.65 17.4 17.7 Q16.15 17.6 15.65 18.85 L16.3 20.0 Q17.25 18.85 18.6 18.85 L17.4 17.65 Q17.1 16.0 18.35 15.55 17.95 15.15 17.75 15.2 L17.05 15.2 Q16.6 16.15 16.6 16.9 L16.45 16.95 M17.7 23.3 L18.05 24.35 19.2 22.6 Q18.5 25.0 18.5 25.45 L18.55 25.85 18.9 27.05 21.1 22.8 19.1 19.45 Q17.9 21.15 17.7 23.3" fill="#889515" fill-rule="evenodd" stroke="none"/>
      <path d="M17.4 17.65 L16.6 17.05 16.45 16.95 Q15.35 17.55 15.15 18.25 L15.6 18.75 15.65 18.85 Q16.15 17.6 17.4 17.7 L17.4 17.65" fill="#7b8613" fill-rule="evenodd" stroke="none"/>
      <path d="M18.35 15.55 Q17.1 16.0 17.4 17.65 L18.6 18.85 Q18.15 17.35 18.8 16.0 L18.35 15.55 M21.35 18.8 L20.25 17.5 Q19.45 17.75 19.1 19.45 L21.1 22.8 21.35 18.8" fill="#9cae18" fill-rule="evenodd" stroke="none"/>
      <path d="M16.45 16.95 L16.6 17.05 17.4 17.65 M15.65 18.85 L15.6 18.75 15.15 18.25 M16.45 16.95 L16.2 16.85 Q16.1 15.95 16.55 15.35 L16.95 15.25 17.05 15.2 M18.35 15.55 L18.8 16.0 M18.6 18.85 L17.4 17.65 M18.35 15.55 Q17.95 15.15 17.75 15.2 L17.05 15.2 M19.1 19.45 L18.6 18.85 M16.3 20.0 L15.65 18.85 M16.3 20.0 L16.55 20.4 17.65 23.05 17.7 23.3 18.05 24.35 19.2 22.6 Q18.5 25.0 18.5 25.45 L18.55 25.85 18.9 27.05 23.6 26.7 Q23.65 25.55 21.35 18.8 L20.25 17.5 18.8 16.0 M16.2 16.85 Q15.0 16.8 14.3 17.8 L14.15 17.95 Q14.5 17.7 14.85 17.95 L15.15 18.25 M21.1 22.8 L19.1 19.45" fill="none" stroke="#000000" stroke-linecap="round" stroke-linejoin="round" stroke-opacity="0.3019608" stroke-width="0.30000000000000004"/>
      <path d="M21.1 21.6 Q21.45 20.15 21.25 18.9 L20.4 18.1 Q20.0 18.15 19.55 19.3 L21.1 21.6" fill="#d3e33e" fill-rule="evenodd" stroke="none"/>
      <path d="M20.3 22.9 L20.65 23.1 20.75 23.05 Q20.45 22.2 20.55 21.15 L20.5 21.2 20.1 21.15 Q19.85 21.8 20.3 22.9 M22.75 22.4 Q22.65 23.9 23.75 25.8 L24.55 26.65 Q24.25 24.65 25.0 24.5 L22.75 22.4 M32.5 36.1 Q32.05 34.8 26.8 26.3 L28.2 31.0 Q30.3 34.65 32.5 36.1" fill="#7b4815" fill-rule="evenodd" stroke="none"/>
      <path d="M19.75 24.35 Q19.7 23.65 20.65 23.1 L20.3 22.9 Q19.0 22.65 18.6 23.7 L18.55 23.85 Q18.75 23.55 19.3 24.0 L19.75 24.35 M24.55 26.65 L23.75 25.8 Q22.25 25.5 21.75 26.65 L22.15 27.25 24.45 30.55 24.7 31.0 Q24.0 28.4 24.55 26.65 M27.55 35.6 Q29.55 35.25 32.5 36.1 30.3 34.65 28.2 31.0 L27.55 35.6" fill="#613911" fill-rule="evenodd" stroke="none"/>
      <path d="M20.65 23.1 L20.8 23.2 22.0 24.1 22.0 24.15 Q20.5 23.75 20.55 25.25 L21.75 26.65 Q22.25 25.5 23.75 25.8 L22.0 24.1 Q20.9 22.05 22.05 21.75 21.5 21.25 21.35 21.25 L20.55 21.15 Q20.45 22.2 20.75 23.05 L20.65 23.1 M24.7 31.0 L25.5 32.25 Q25.5 31.5 26.0 30.4 26.25 33.1 26.5 33.7 L26.65 34.15 27.55 35.6 28.2 31.0 Q26.25 28.45 24.55 26.65 24.0 28.4 24.7 31.0" fill="#889515" fill-rule="evenodd" stroke="none"/>
      <path d="M22.0 24.1 L20.8 23.2 20.65 23.1 Q19.7 23.65 19.75 24.35 L20.4 25.05 20.55 25.25 Q20.5 23.75 22.0 24.15 L22.0 24.1" fill="#7b8613" fill-rule="evenodd" stroke="none"/>
      <path d="M22.05 21.75 Q20.9 22.05 22.0 24.1 L23.75 25.8 Q22.65 23.9 22.75 22.4 L22.05 21.75 M26.8 26.3 L25.0 24.5 Q24.25 24.65 24.55 26.65 26.25 28.45 28.2 31.0 L26.8 26.3" fill="#9cae18" fill-rule="evenodd" stroke="none"/>
      <path d="M20.65 23.1 L20.8 23.2 22.0 24.1 M20.55 25.25 L20.4 25.05 19.75 24.35 M20.65 23.1 L20.3 22.9 Q19.85 21.8 20.1 21.15 L20.5 21.2 20.55 21.15 M22.05 21.75 L22.75 22.4 M23.75 25.8 L22.0 24.1 M22.05 21.75 Q21.5 21.25 21.35 21.25 L20.55 21.15 M24.55 26.65 L23.75 25.8 M21.75 26.65 L20.55 25.25 M21.75 26.65 L22.15 27.25 24.45 30.55 24.7 31.0 25.5 32.25 Q25.5 31.5 26.0 30.4 26.25 33.1 26.5 33.7 L26.65 34.15 27.55 35.6 Q29.55 35.25 32.5 36.1 32.05 34.8 26.8 26.3 L25.0 24.5 22.75 22.4 M20.3 22.9 Q19.0 22.65 18.6 23.7 L18.55 23.85 Q18.75 23.55 19.3 24.0 L19.75 24.35 M28.2 31.0 Q26.25 28.45 24.55 26.65" fill="none" stroke="#000000" stroke-linecap="round" stroke-linejoin="round" stroke-opacity="0.3019608" stroke-width="0.30000000000000004"/>
      <path d="M27.35 29.5 Q27.2 27.85 26.5 26.3 L25.15 25.2 Q24.75 25.2 24.7 26.45 L27.35 29.5" fill="#d3e33e" fill-rule="evenodd" stroke="none"/>
      <path d="M22.45 20.2 L22.7 20.3 22.85 20.25 Q22.7 19.5 22.9 18.5 L22.85 18.55 22.45 18.7 Q22.15 19.35 22.45 20.2 M24.85 18.9 Q24.45 20.35 25.2 21.75 L25.85 22.25 Q25.85 20.5 26.55 20.15 L24.85 18.9 M31.75 28.45 Q31.55 27.35 27.95 21.2 L28.5 25.15 Q29.95 27.75 31.75 28.45" fill="#7b4815" fill-rule="evenodd" stroke="none"/>
      <path d="M21.75 21.75 Q21.75 21.1 22.7 20.3 L22.45 20.2 Q21.25 20.4 20.75 21.45 L20.65 21.65 Q20.95 21.3 21.4 21.5 L21.75 21.75 M25.85 22.25 L25.2 21.75 Q23.85 22.0 23.2 23.25 L23.5 23.6 25.15 25.95 25.3 26.2 Q25.05 24.05 25.85 22.25 M27.25 29.6 Q29.2 28.55 31.75 28.45 29.95 27.75 28.5 25.15 L27.25 29.6" fill="#613911" fill-rule="evenodd" stroke="none"/>
      <path d="M22.7 20.3 L22.85 20.35 23.8 20.75 23.85 20.8 Q22.5 20.9 22.35 22.3 L23.2 23.25 Q23.85 22.0 25.2 21.75 L23.8 20.75 Q23.15 19.2 24.25 18.55 L23.6 18.4 22.9 18.5 Q22.7 19.5 22.85 20.25 L22.7 20.3 M25.3 26.2 L25.85 27.15 Q25.95 26.45 26.6 25.25 L26.5 28.15 26.65 28.5 27.25 29.6 28.5 25.15 25.85 22.25 Q25.05 24.05 25.3 26.2" fill="#889515" fill-rule="evenodd" stroke="none"/>
      <path d="M23.8 20.75 L22.85 20.35 22.7 20.3 Q21.75 21.1 21.75 21.75 L22.25 22.15 22.35 22.3 Q22.5 20.9 23.85 20.8 L23.8 20.75" fill="#7b8613" fill-rule="evenodd" stroke="none"/>
      <path d="M24.25 18.55 Q23.15 19.2 23.8 20.75 L25.2 21.75 Q24.45 20.35 24.85 18.9 L24.25 18.55 M27.95 21.2 L26.55 20.15 Q25.85 20.5 25.85 22.25 L28.5 25.15 27.95 21.2" fill="#9cae18" fill-rule="evenodd" stroke="none"/>
      <path d="M22.7 20.3 L22.85 20.35 23.8 20.75 M22.35 22.3 L22.25 22.15 21.75 21.75 M22.7 20.3 L22.45 20.2 Q22.15 19.35 22.45 18.7 L22.85 18.55 22.9 18.5 M24.25 18.55 L24.85 18.9 M25.2 21.75 L23.8 20.75 M24.25 18.55 L23.6 18.4 22.9 18.5 M25.85 22.25 L25.2 21.75 M23.2 23.25 L22.35 22.3 M23.2 23.25 L23.5 23.6 25.15 25.95 25.3 26.2 25.85 27.15 Q25.95 26.45 26.6 25.25 L26.5 28.15 26.65 28.5 27.25 29.6 Q29.2 28.55 31.75 28.45 31.55 27.35 27.95 21.2 L26.55 20.15 24.85 18.9 M22.45 20.2 Q21.25 20.4 20.75 21.45 L20.65 21.65 Q20.95 21.3 21.4 21.5 L21.75 21.75 M28.5 25.15 L25.85 22.25" fill="none" stroke="#000000" stroke-linecap="round" stroke-linejoin="round" stroke-opacity="0.3019608" stroke-width="0.30000000000000004"/>
      <path d="M28.15 23.85 Q28.2 22.45 27.75 21.25 L26.7 20.65 Q26.3 20.75 26.1 21.9 L28.15 23.85" fill="#d3e33e" fill-rule="evenodd" stroke="none"/>
      <path d="M20.8 21.3 L20.85 21.75 20.75 21.95 Q20.2 21.3 19.35 21.3 L19.45 21.25 19.6 20.7 Q20.2 20.5 20.8 21.3 M19.25 24.3 Q20.45 24.45 21.35 26.15 L21.65 27.35 Q20.25 26.55 19.85 27.45 L19.25 24.3 M25.1 38.95 Q24.3 38.2 20.35 30.05 L23.25 32.65 Q25.0 35.95 25.1 38.95" fill="#7b4815" fill-rule="evenodd" stroke="none"/>
      <path d="M22.2 20.9 Q21.65 20.7 20.85 21.75 L20.8 21.3 Q21.25 19.65 22.2 19.35 L22.35 19.3 Q22.05 19.5 22.1 20.3 L22.2 20.9 M21.65 27.35 L21.35 26.15 Q21.9 24.2 23.05 23.8 L23.25 24.45 24.7 27.95 24.85 28.3 Q23.25 26.9 21.65 27.35 M27.05 32.7 Q25.8 35.1 25.1 38.95 25.0 35.95 23.25 32.65 L27.05 32.7" fill="#613911" fill-rule="evenodd" stroke="none"/>
      <path d="M20.85 21.75 L20.8 22.0 21.0 23.6 21.0 23.65 Q21.35 21.8 22.5 22.1 L23.05 23.8 Q21.9 24.2 21.35 26.15 L21.0 23.6 Q19.85 21.95 19.1 23.35 L19.1 22.3 19.35 21.3 Q20.2 21.3 20.75 21.95 L20.85 21.75 M24.85 28.3 L25.45 29.55 23.8 29.85 26.1 30.95 26.35 31.35 27.05 32.7 23.25 32.65 21.65 27.35 Q23.25 26.9 24.85 28.3" fill="#889515" fill-rule="evenodd" stroke="none"/>
      <path d="M21.0 23.6 L20.8 22.0 20.85 21.75 Q21.65 20.7 22.2 20.9 L22.4 21.85 22.5 22.1 Q21.35 21.8 21.0 23.65 L21.0 23.6" fill="#7b8613" fill-rule="evenodd" stroke="none"/>
      <path d="M19.1 23.35 Q19.85 21.95 21.0 23.6 L21.35 26.15 Q20.45 24.45 19.25 24.3 L19.1 23.35 M20.35 30.05 L19.85 27.45 Q20.25 26.55 21.65 27.35 L23.25 32.65 20.35 30.05" fill="#9cae18" fill-rule="evenodd" stroke="none"/>
      <path d="M20.85 21.75 L20.8 22.0 21.0 23.6 M22.5 22.1 L22.4 21.85 22.2 20.9 M20.85 21.75 L20.8 21.3 Q20.2 20.5 19.6 20.7 L19.45 21.25 19.35 21.3 M19.1 23.35 L19.25 24.3 M21.35 26.15 L21.0 23.6 M19.1 23.35 L19.1 22.3 19.35 21.3 M21.65 27.35 L21.35 26.15 M23.05 23.8 L22.5 22.1 M23.05 23.8 L23.25 24.45 24.7 27.95 24.85 28.3 25.45 29.55 23.8 29.85 26.1 30.95 26.35 31.35 27.05 32.7 Q25.8 35.1 25.1 38.95 24.3 38.2 20.35 30.05 L19.85 27.45 19.25 24.3 M20.8 21.3 Q21.25 19.65 22.2 19.35 L22.35 19.3 Q22.05 19.5 22.1 20.3 L22.2 20.9 M23.25 32.65 L21.65 27.35" fill="none" stroke="#000000" stroke-linecap="round" stroke-linejoin="round" stroke-opacity="0.3019608" stroke-width="0.30000000000000004"/>
      <path d="M22.45 31.25 Q21.3 30.75 20.5 29.55 L20.25 27.8 Q20.45 27.2 21.4 27.45 L22.45 31.25" fill="#d3e33e" fill-rule="evenodd" stroke="none"/>
      <path d="M21.15 19.85 L21.4 19.95 21.55 19.9 Q21.55 19.15 22.0 18.2 L21.9 18.25 21.5 18.35 Q21.05 18.95 21.15 19.85 M23.75 19.0 Q23.1 20.35 23.55 21.85 L24.05 22.45 Q24.4 20.75 25.2 20.5 L23.75 19.0 M28.55 29.7 Q28.6 28.55 26.3 21.8 L26.05 25.8 Q26.85 28.7 28.55 29.7" fill="#7b4815" fill-rule="evenodd" stroke="none"/>
      <path d="M20.1 21.25 Q20.3 20.55 21.4 19.95 L21.15 19.85 Q19.95 19.8 19.25 20.8 L19.1 20.95 Q19.45 20.7 19.8 20.95 L20.1 21.25 M24.05 22.45 L23.55 21.85 Q22.2 21.85 21.25 23.0 L21.5 23.4 22.6 26.05 22.65 26.3 Q22.85 24.15 24.05 22.45 M23.85 30.05 L28.55 29.7 Q26.85 28.7 26.05 25.8 L23.85 30.05" fill="#613911" fill-rule="evenodd" stroke="none"/>
      <path d="M21.4 19.95 L21.55 20.05 22.35 20.65 22.35 20.7 Q21.1 20.6 20.6 21.85 L21.25 23.0 Q22.2 21.85 23.55 21.85 L22.35 20.65 Q22.05 19.0 23.3 18.55 22.9 18.15 22.7 18.2 L22.0 18.2 Q21.55 19.15 21.55 19.9 L21.4 19.95 M22.65 26.3 L23.0 27.35 Q23.25 26.7 24.15 25.6 L23.45 28.45 23.5 28.85 23.85 30.05 26.05 25.8 24.05 22.45 Q22.85 24.15 22.65 26.3" fill="#889515" fill-rule="evenodd" stroke="none"/>
      <path d="M22.35 20.65 L21.55 20.05 21.4 19.95 Q20.3 20.55 20.1 21.25 L20.55 21.75 20.6 21.85 Q21.1 20.6 22.35 20.7 L22.35 20.65" fill="#7b8613" fill-rule="evenodd" stroke="none"/>
      <path d="M23.3 18.55 Q22.05 19.0 22.35 20.65 L23.55 21.85 Q23.1 20.35 23.75 19.0 L23.3 18.55 M26.3 21.8 L25.2 20.5 Q24.4 20.75 24.05 22.45 L26.05 25.8 26.3 21.8" fill="#9cae18" fill-rule="evenodd" stroke="none"/>
      <path d="M21.4 19.95 L21.55 20.05 22.35 20.65 M20.6 21.85 L20.55 21.75 20.1 21.25 M21.4 19.95 L21.15 19.85 Q21.05 18.95 21.5 18.35 L21.9 18.25 22.0 18.2 M23.3 18.55 L23.75 19.0 M23.55 21.85 L22.35 20.65 M23.3 18.55 Q22.9 18.15 22.7 18.2 L22.0 18.2 M24.05 22.45 L23.55 21.85 M21.25 23.0 L20.6 21.85 M21.25 23.0 L21.5 23.4 22.6 26.05 22.65 26.3 23.0 27.35 Q23.25 26.7 24.15 25.6 L23.45 28.45 23.5 28.85 23.85 30.05 28.55 29.7 Q28.6 28.55 26.3 21.8 L25.2 20.5 23.75 19.0 M21.15 19.85 Q19.95 19.8 19.25 20.8 L19.1 20.95 Q19.45 20.7 19.8 20.95 L20.1 21.25 M26.05 25.8 L24.05 22.45" fill="none" stroke="#000000" stroke-linecap="round" stroke-linejoin="round" stroke-opacity="0.3019608" stroke-width="0.30000000000000004"/>
      <path d="M25.95 24.5 Q26.3 23.05 26.1 21.8 L25.25 21.0 Q24.85 21.05 24.4 22.2 L25.95 24.5" fill="#d3e33e" fill-rule="evenodd" stroke="none"/>
      <path d="M14.65 17.9 L14.5 18.25 14.45 18.35 14.2 19.25 14.2 20.15 Q13.8 20.35 13.6 20.8 L13.6 21.0 14.3 21.1 14.35 21.2 14.4 21.3 14.9 24.45 15.45 27.0 Q19.4 35.15 20.2 36.0 20.6 33.6 21.25 31.7 24.5 38.25 25.15 38.95 25.65 36.0 26.5 34.0 L26.7 34.25 27.5 35.7 Q29.55 35.3 32.45 36.25 32.15 35.2 28.5 29.25 L28.45 28.9 Q30.0 28.35 31.85 28.25 31.65 27.1 28.0 21.0 L26.7 19.9 24.85 18.7 24.3 18.3 23.7 18.15 23.15 18.3 23.05 18.05 21.65 16.95 19.85 15.75 19.3 15.35 18.75 15.15 18.05 15.3 17.85 15.25 17.15 15.25 17.05 15.25 16.6 15.35 Q16.15 16.0 16.2 16.9 15.1 16.85 14.3 17.85 L14.2 18.0 14.65 17.9 M17.65 19.3 L18.0 19.8 17.8 19.55 17.7 19.5 17.65 19.3" fill="#000000" fill-opacity="0.4" fill-rule="evenodd" stroke="none"/>
      <path d="M19.4 5.9 L19.15 5.4 19.0 5.25 19.4 5.9" fill="#81968b" fill-rule="evenodd" stroke="none"/>
      <path d="M19.6 6.4 L19.7 6.35 19.5 6.05 19.6 6.4" fill="#c9ac6b" fill-rule="evenodd" stroke="none"/>
      <path d="M19.0 5.25 L19.15 5.4 19.4 5.9 19.5 6.05 19.7 6.35 19.6 6.4 Q20.3 8.35 18.8 8.35 18.45 8.85 17.45 8.75 L14.15 8.1 Q9.8 4.0 13.6 9.0 14.5 13.9 14.1 17.8 L14.05 18.6 25.95 18.6 25.9 16.45 25.9 16.25 Q25.8 11.85 25.2 8.55 L21.95 6.2 21.55 6.0 21.35 5.85 18.25 4.1 18.55 4.6 19.0 5.25" fill="#919124" fill-rule="evenodd" stroke="none"/>
      <path d="M19.4 5.9 L19.0 5.25 M18.55 4.6 L18.25 4.1 21.35 5.85 M21.95 6.2 L25.2 8.55 Q25.8 11.85 25.9 16.25 L25.9 16.45 25.95 18.6 M14.05 18.6 L14.1 17.8 Q14.5 13.9 13.6 9.0 9.8 4.0 14.15 8.1 L17.45 8.75 Q18.45 8.85 18.8 8.35 20.3 8.35 19.6 6.4 M19.5 6.05 L19.4 5.9" fill="none" stroke="#000000" stroke-linecap="round" stroke-linejoin="round" stroke-opacity="0.3019608" stroke-width="0.05"/>
      <path d="M21.35 5.85 L21.55 6.0 21.95 6.2" fill="none" stroke="url(#gradient0)" stroke-linecap="round" stroke-linejoin="round" stroke-width="0.5"/>
      <path d="M19.55 8.3 Q19.65 8.2 19.8 8.15 21.9 6.9 18.55 4.5 20.2 6.75 19.55 8.3" fill="#595916" fill-rule="evenodd" stroke="none"/>
      <path d="M19.55 8.3 Q20.2 6.75 18.55 4.5" fill="none" stroke="#2d2100" stroke-linecap="round" stroke-linejoin="round" stroke-opacity="0.5019608" stroke-width="0.05"/>
      <path d="M15.45 18.45 L15.75 18.75 15.9 18.75 Q15.8 17.9 16.1 17.1 L16.05 17.15 15.7 17.0 Q15.3 17.5 15.45 18.45 M17.95 18.7 Q17.45 19.9 18.0 21.75 L18.55 22.65 Q18.75 20.95 19.5 21.0 L17.95 18.7 M23.75 32.55 Q23.65 31.35 20.8 22.95 L20.9 27.2 Q22.05 30.7 23.75 32.55" fill="#7b4815" fill-rule="evenodd" stroke="none"/>
      <path d="M14.6 19.55 Q14.7 18.95 15.75 18.75 L15.45 18.45 Q14.3 17.95 13.7 18.7 L13.6 18.8 Q13.85 18.6 14.3 19.1 L14.6 19.55 M18.55 22.65 L18.0 21.75 Q16.7 21.15 15.9 21.95 L16.2 22.55 17.5 25.85 17.65 26.25 Q17.6 23.9 18.55 22.65 M19.2 30.8 Q21.2 31.0 23.75 32.55 22.05 30.7 20.9 27.2 L19.2 30.8" fill="#613911" fill-rule="evenodd" stroke="none"/>
      <path d="M15.75 18.75 L15.9 18.9 16.75 19.9 16.75 19.95 Q15.5 19.3 15.2 20.5 L15.9 21.95 Q16.7 21.15 18.0 21.75 L16.75 19.9 Q16.3 17.95 17.45 18.05 L16.8 17.4 16.1 17.1 Q15.8 17.9 15.9 18.75 L15.75 18.75 M17.65 26.25 L18.15 27.55 Q18.25 26.9 19.05 26.15 18.6 28.4 18.65 28.95 L18.75 29.4 19.2 30.8 20.9 27.2 18.55 22.65 Q17.6 23.9 17.65 26.25" fill="#889515" fill-rule="evenodd" stroke="none"/>
      <path d="M16.75 19.9 L15.9 18.9 15.75 18.75 Q14.7 18.95 14.6 19.55 L15.05 20.3 15.2 20.5 Q15.5 19.3 16.75 19.95 L16.75 19.9" fill="#7b8613" fill-rule="evenodd" stroke="none"/>
      <path d="M17.45 18.05 Q16.3 17.95 16.75 19.9 L18.0 21.75 Q17.45 19.9 17.95 18.7 L17.45 18.05 M20.8 22.95 L19.5 21.0 Q18.75 20.95 18.55 22.65 L20.9 27.2 20.8 22.95" fill="#9cae18" fill-rule="evenodd" stroke="none"/>
      <path d="M15.75 18.75 L15.9 18.9 16.75 19.9 M15.2 20.5 L15.05 20.3 14.6 19.55 M15.75 18.75 L15.45 18.45 Q15.3 17.5 15.7 17.0 L16.05 17.15 16.1 17.1 M17.45 18.05 L17.95 18.7 M18.0 21.75 L16.75 19.9 M17.45 18.05 L16.8 17.4 16.1 17.1 M18.55 22.65 L18.0 21.75 M15.9 21.95 L15.2 20.5 M15.9 21.95 L16.2 22.55 17.5 25.85 17.65 26.25 18.15 27.55 Q18.25 26.9 19.05 26.15 18.6 28.4 18.65 28.95 L18.75 29.4 19.2 30.8 Q21.2 31.0 23.75 32.55 23.65 31.35 20.8 22.95 L19.5 21.0 17.95 18.7 M15.45 18.45 Q14.3 17.95 13.7 18.7 L13.6 18.8 Q13.85 18.6 14.3 19.1 L14.6 19.55 M20.9 27.2 L18.55 22.65" fill="none" stroke="#000000" stroke-linecap="round" stroke-linejoin="round" stroke-opacity="0.3019608" stroke-width="0.30000000000000004"/>
      <path d="M20.5 25.75 Q20.75 24.35 20.4 22.9 L19.5 21.6 Q19.1 21.5 18.8 22.55 L20.5 25.75" fill="#d3e33e" fill-rule="evenodd" stroke="none"/>
      <path d="M18.3 16.65 L18.5 16.8 18.65 16.8 Q18.65 16.15 19.15 15.4 L19.1 15.45 18.7 15.4 Q18.2 15.9 18.3 16.65 M20.8 16.2 Q20.15 17.3 20.5 18.65 L20.95 19.2 Q21.4 17.8 22.15 17.7 L20.8 16.2 M25.05 25.85 Q25.15 24.9 23.2 18.9 L22.8 22.25 Q23.5 24.8 25.05 25.85" fill="#7b4815" fill-rule="evenodd" stroke="none"/>
      <path d="M17.25 17.75 Q17.45 17.2 18.5 16.8 L18.3 16.65 Q17.15 16.5 16.4 17.3 L16.25 17.4 16.95 17.45 17.25 17.75 M20.95 19.2 L20.5 18.65 Q19.15 18.5 18.25 19.4 L18.45 19.75 19.45 22.1 19.5 22.35 Q19.75 20.5 20.95 19.2 M20.55 25.65 L25.05 25.85 Q23.5 24.8 22.8 22.25 L20.55 25.65" fill="#613911" fill-rule="evenodd" stroke="none"/>
      <path d="M18.5 16.8 L18.65 16.9 19.4 17.5 19.45 17.5 Q18.2 17.3 17.7 18.35 L18.25 19.4 Q19.15 18.5 20.5 18.65 L19.4 17.5 Q19.15 16.05 20.4 15.8 L19.8 15.45 19.15 15.4 Q18.65 16.15 18.65 16.8 L18.5 16.8 M19.5 22.35 L19.85 23.25 Q20.05 22.7 20.95 21.9 20.2 23.85 20.2 24.25 L20.2 24.65 20.55 25.65 22.8 22.25 20.95 19.2 Q19.75 20.5 19.5 22.35" fill="#889515" fill-rule="evenodd" stroke="none"/>
      <path d="M19.4 17.5 L18.65 16.9 18.5 16.8 Q17.45 17.2 17.25 17.75 L17.55 18.2 17.7 18.35 Q18.2 17.3 19.45 17.5 L19.4 17.5" fill="#7b8613" fill-rule="evenodd" stroke="none"/>
      <path d="M20.4 15.8 Q19.15 16.05 19.4 17.5 L20.5 18.65 Q20.15 17.3 20.8 16.2 L20.4 15.8 M23.2 18.9 L22.15 17.7 Q21.4 17.8 20.95 19.2 L22.8 22.25 23.2 18.9" fill="#9cae18" fill-rule="evenodd" stroke="none"/>
      <path d="M18.5 16.8 L18.65 16.9 19.4 17.5 M17.7 18.35 L17.55 18.2 17.25 17.75 M18.5 16.8 L18.3 16.65 Q18.2 15.9 18.7 15.4 L19.1 15.45 19.15 15.4 M20.4 15.8 L20.8 16.2 M20.5 18.65 L19.4 17.5 M20.4 15.8 L19.8 15.45 19.15 15.4 M20.95 19.2 L20.5 18.65 M18.25 19.4 L17.7 18.35 M18.25 19.4 L18.45 19.75 19.45 22.1 19.5 22.35 19.85 23.25 Q20.05 22.7 20.95 21.9 20.2 23.85 20.2 24.25 L20.2 24.65 20.55 25.65 25.05 25.85 Q25.15 24.9 23.2 18.9 L22.15 17.7 20.8 16.2 M18.3 16.65 Q17.15 16.5 16.4 17.3 L16.25 17.4 16.95 17.45 17.25 17.75 M22.8 22.25 L20.95 19.2" fill="none" stroke="#000000" stroke-linecap="round" stroke-linejoin="round" stroke-opacity="0.3019608" stroke-width="0.30000000000000004"/>
      <path d="M22.55 21.2 Q22.95 20.05 22.85 18.95 L22.05 18.15 Q21.6 18.2 21.15 19.05 L22.55 21.2" fill="#d3e33e" fill-rule="evenodd" stroke="none"/>
      <path d="M16.45 17.25 L16.35 17.6 16.3 17.75 Q15.95 17.15 15.1 16.9 L15.2 16.85 15.5 16.45 Q16.1 16.45 16.45 17.25 M14.3 19.3 Q15.35 19.75 15.8 21.4 L15.8 22.4 Q14.7 21.45 14.1 22.1 L14.3 19.3 M16.25 32.9 Q15.65 32.1 13.95 24.35 L16.05 27.2 Q16.9 30.4 16.25 32.9" fill="#7b4815" fill-rule="evenodd" stroke="none"/>
      <path d="M17.85 17.25 Q17.45 16.95 16.35 17.6 L16.45 17.25 Q17.3 16.0 18.25 15.95 L18.4 16.0 Q18.05 16.1 17.9 16.75 L17.85 17.25 M15.8 22.4 L15.8 21.4 Q16.75 19.95 17.95 19.85 L18.0 20.45 Q18.1 21.85 18.5 23.7 L18.6 24.05 Q17.4 22.45 15.8 22.4 M19.55 28.2 Q17.85 29.9 16.25 32.9 16.9 30.4 16.05 27.2 L19.55 28.2" fill="#613911" fill-rule="evenodd" stroke="none"/>
      <path d="M16.35 17.6 L16.35 17.85 16.05 19.2 16.1 19.25 Q16.85 17.8 17.85 18.3 L17.95 19.85 Q16.75 19.95 15.8 21.4 L16.05 19.2 Q15.45 17.55 14.4 18.5 L14.65 17.6 15.1 16.9 Q15.95 17.15 16.3 17.75 L16.35 17.6 M18.6 24.05 L18.85 25.2 17.25 25.05 19.1 26.55 19.25 26.9 19.55 28.2 16.05 27.2 15.8 22.4 Q17.4 22.45 18.6 24.05" fill="#889515" fill-rule="evenodd" stroke="none"/>
      <path d="M16.05 19.2 L16.35 17.85 16.35 17.6 Q17.45 16.95 17.85 17.25 L17.85 18.1 17.85 18.3 Q16.85 17.8 16.1 19.25 L16.05 19.2" fill="#7b8613" fill-rule="evenodd" stroke="none"/>
      <path d="M14.4 18.5 Q15.45 17.55 16.05 19.2 L15.8 21.4 Q15.35 19.75 14.3 19.3 L14.4 18.5 M13.95 24.35 L14.1 22.1 Q14.7 21.45 15.8 22.4 L16.05 27.2 13.95 24.35" fill="#9cae18" fill-rule="evenodd" stroke="none"/>
      <path d="M16.35 17.6 L16.35 17.85 16.05 19.2 M17.85 18.3 L17.85 18.1 17.85 17.25 M16.35 17.6 L16.45 17.25 Q16.1 16.45 15.5 16.45 L15.2 16.85 15.1 16.9 M14.4 18.5 L14.3 19.3 M15.8 21.4 L16.05 19.2 M14.4 18.5 L14.65 17.6 15.1 16.9 M15.8 22.4 L15.8 21.4 M17.95 19.85 L17.85 18.3 M17.95 19.85 L18.0 20.45 Q18.1 21.85 18.5 23.7 L18.6 24.05 18.85 25.2 17.25 25.05 19.1 26.55 19.25 26.9 19.55 28.2 Q17.85 29.9 16.25 32.9 15.65 32.1 13.95 24.35 L14.1 22.1 14.3 19.3 M16.45 17.25 Q17.3 16.0 18.25 15.95 L18.4 16.0 Q18.05 16.1 17.9 16.75 L17.85 17.25 M16.05 27.2 L15.8 22.4" fill="none" stroke="#000000" stroke-linecap="round" stroke-linejoin="round" stroke-opacity="0.3019608" stroke-width="0.30000000000000004"/>
      <path d="M15.6 26.0 Q14.6 25.25 14.1 24.05 L14.35 22.5 15.45 22.55 15.6 26.0" fill="#d3e33e" fill-rule="evenodd" stroke="none"/>
      <path d="M17.15 16.1 L17.35 16.3 17.5 16.3 Q17.7 15.7 18.35 15.0 L18.3 15.05 17.85 14.95 Q17.3 15.4 17.15 16.1 M19.85 16.1 Q18.9 17.05 18.95 18.4 L19.2 19.05 Q20.0 17.75 20.8 17.75 L19.85 16.1 M21.7 26.15 Q22.0 25.25 21.6 19.1 L20.35 22.3 Q20.4 24.9 21.7 26.15" fill="#7b4815" fill-rule="evenodd" stroke="none"/>
      <path d="M15.9 17.05 Q16.2 16.55 17.35 16.3 L17.15 16.1 Q16.1 15.8 15.2 16.4 L15.0 16.55 Q15.4 16.4 15.65 16.7 L15.9 17.05 M19.2 19.05 L18.95 18.4 Q17.65 18.05 16.5 18.75 L16.6 19.15 17.05 21.6 17.05 21.9 Q17.75 20.1 19.2 19.05 M17.3 25.25 Q19.4 25.2 21.7 26.15 20.4 24.9 20.35 22.3 L17.3 25.25" fill="#613911" fill-rule="evenodd" stroke="none"/>
      <path d="M17.35 16.3 L17.5 16.4 18.1 17.15 18.1 17.2 Q16.95 16.75 16.15 17.65 L16.5 18.75 Q17.65 18.05 18.95 18.4 L18.1 17.15 Q18.2 15.7 19.5 15.65 L19.05 15.2 18.35 15.0 Q17.7 15.7 17.5 16.3 L17.35 16.3 M17.05 21.9 L17.1 22.85 Q17.5 22.3 18.6 21.65 L17.25 23.85 17.2 24.2 17.3 25.25 20.35 22.3 Q19.85 20.4 19.2 19.05 17.75 20.1 17.05 21.9" fill="#889515" fill-rule="evenodd" stroke="none"/>
      <path d="M18.1 17.15 L17.5 16.4 17.35 16.3 Q16.2 16.55 15.9 17.05 L16.15 17.55 16.15 17.65 Q16.95 16.75 18.1 17.2 L18.1 17.15" fill="#7b8613" fill-rule="evenodd" stroke="none"/>
      <path d="M19.5 15.65 Q18.2 15.7 18.1 17.15 L18.95 18.4 Q18.9 17.05 19.85 16.1 L19.5 15.65 M21.6 19.1 L20.8 17.75 Q20.0 17.75 19.2 19.05 19.85 20.4 20.35 22.3 L21.6 19.1" fill="#9cae18" fill-rule="evenodd" stroke="none"/>
      <path d="M17.35 16.3 L17.5 16.4 18.1 17.15 M16.15 17.65 L16.15 17.55 15.9 17.05 M17.35 16.3 L17.15 16.1 Q17.3 15.4 17.85 14.95 L18.3 15.05 18.35 15.0 M19.5 15.65 L19.85 16.1 M18.95 18.4 L18.1 17.15 M19.5 15.65 L19.05 15.2 18.35 15.0 M19.2 19.05 L18.95 18.4 M16.5 18.75 L16.15 17.65 M16.5 18.75 L16.6 19.15 17.05 21.6 17.05 21.9 17.1 22.85 Q17.5 22.3 18.6 21.65 L17.25 23.85 17.2 24.2 17.3 25.25 Q19.4 25.2 21.7 26.15 22.0 25.25 21.6 19.1 L20.8 17.75 19.85 16.1 M17.15 16.1 Q16.1 15.8 15.2 16.4 L15.0 16.55 Q15.4 16.4 15.65 16.7 L15.9 17.05 M20.35 22.3 Q19.85 20.4 19.2 19.05" fill="none" stroke="#000000" stroke-linecap="round" stroke-linejoin="round" stroke-opacity="0.3019608" stroke-width="0.30000000000000004"/>
      <path d="M20.4 21.3 Q21.1 20.25 21.2 19.15 L20.6 18.25 Q20.2 18.25 19.5 19.0 L20.4 21.3" fill="#d3e33e" fill-rule="evenodd" stroke="none"/>
      <path d="M21.15 12.6 L21.45 12.9 21.6 12.9 Q21.5 12.05 21.8 11.25 L21.75 11.3 Q21.45 11.1 21.4 11.15 21.0 11.65 21.15 12.6 M23.65 12.85 Q23.15 14.05 23.7 15.9 L24.25 16.8 Q24.45 15.1 25.2 15.15 L23.65 12.85 M29.45 26.7 Q29.35 25.5 26.5 17.1 L26.6 21.35 Q27.75 24.85 29.45 26.7" fill="#7b4815" fill-rule="evenodd" stroke="none"/>
      <path d="M20.3 13.7 Q20.4 13.1 21.45 12.9 L21.15 12.6 Q20.0 12.1 19.4 12.85 L19.3 12.95 Q19.55 12.75 20.0 13.25 L20.3 13.7 M24.25 16.8 L23.7 15.9 Q22.4 15.3 21.6 16.1 L21.9 16.7 23.2 20.0 23.35 20.4 Q23.3 18.05 24.25 16.8 M24.9 24.95 Q26.9 25.15 29.45 26.7 27.75 24.85 26.6 21.35 L24.9 24.95" fill="#613911" fill-rule="evenodd" stroke="none"/>
      <path d="M21.45 12.9 L21.6 13.05 22.45 14.05 22.45 14.1 Q21.2 13.45 20.9 14.65 L21.6 16.1 Q22.4 15.3 23.7 15.9 L22.45 14.05 Q22.0 12.1 23.15 12.2 L22.5 11.55 21.8 11.25 Q21.5 12.05 21.6 12.9 L21.45 12.9 M23.35 20.4 L23.85 21.7 Q23.95 21.05 24.75 20.3 24.3 22.55 24.35 23.1 L24.45 23.55 24.9 24.95 26.6 21.35 24.25 16.8 Q23.3 18.05 23.35 20.4" fill="#889515" fill-rule="evenodd" stroke="none"/>
      <path d="M22.45 14.05 L21.6 13.05 21.45 12.9 Q20.4 13.1 20.3 13.7 L20.75 14.45 20.9 14.65 Q21.2 13.45 22.45 14.1 L22.45 14.05" fill="#7b8613" fill-rule="evenodd" stroke="none"/>
      <path d="M23.15 12.2 Q22.0 12.1 22.45 14.05 L23.7 15.9 Q23.15 14.05 23.65 12.85 L23.15 12.2 M26.5 17.1 L25.2 15.15 Q24.45 15.1 24.25 16.8 L26.6 21.35 26.5 17.1" fill="#9cae18" fill-rule="evenodd" stroke="none"/>
      <path d="M21.45 12.9 L21.6 13.05 22.45 14.05 M20.9 14.65 L20.75 14.45 20.3 13.7 M21.45 12.9 L21.15 12.6 Q21.0 11.65 21.4 11.15 21.45 11.1 21.75 11.3 L21.8 11.25 M23.15 12.2 L23.65 12.85 M23.7 15.9 L22.45 14.05 M23.15 12.2 L22.5 11.55 21.8 11.25 M24.25 16.8 L23.7 15.9 M21.6 16.1 L20.9 14.65 M21.6 16.1 L21.9 16.7 23.2 20.0 23.35 20.4 23.85 21.7 Q23.95 21.05 24.75 20.3 24.3 22.55 24.35 23.1 L24.45 23.55 24.9 24.95 Q26.9 25.15 29.45 26.7 29.35 25.5 26.5 17.1 L25.2 15.15 23.65 12.85 M21.15 12.6 Q20.0 12.1 19.4 12.85 L19.3 12.95 Q19.55 12.75 20.0 13.25 L20.3 13.7 M26.6 21.35 L24.25 16.8" fill="none" stroke="#000000" stroke-linecap="round" stroke-linejoin="round" stroke-opacity="0.3019608" stroke-width="0.30000000000000004"/>
      <path d="M26.25 19.9 Q26.5 18.5 26.15 17.05 L25.25 15.75 Q24.85 15.65 24.55 16.7 L26.25 19.9" fill="#d3e33e" fill-rule="evenodd" stroke="none"/>
      <path d="M24.15 10.8 L24.35 10.95 24.5 10.95 Q24.5 10.3 25.0 9.55 L24.95 9.6 24.55 9.55 Q24.05 10.05 24.15 10.8 M26.65 10.35 Q26.0 11.45 26.35 12.8 L26.8 13.35 Q27.25 11.95 28.0 11.85 L26.65 10.35 M30.9 20.0 Q31.0 19.05 29.05 13.05 L28.65 16.4 Q29.35 18.95 30.9 20.0" fill="#7b4815" fill-rule="evenodd" stroke="none"/>
      <path d="M23.1 11.9 Q23.3 11.35 24.35 10.95 L24.15 10.8 Q23.0 10.65 22.25 11.45 L22.1 11.55 22.8 11.6 23.1 11.9 M26.8 13.35 L26.35 12.8 Q25.0 12.65 24.1 13.55 L24.3 13.9 25.3 16.25 25.35 16.5 Q25.6 14.65 26.8 13.35 M26.4 19.8 L30.9 20.0 Q29.35 18.95 28.65 16.4 L26.4 19.8" fill="#613911" fill-rule="evenodd" stroke="none"/>
      <path d="M24.35 10.95 L24.5 11.05 25.25 11.65 25.3 11.65 Q24.05 11.45 23.55 12.5 L24.1 13.55 Q25.0 12.65 26.35 12.8 L25.25 11.65 Q25.0 10.2 26.25 9.95 25.85 9.6 25.65 9.6 L25.0 9.55 Q24.5 10.3 24.5 10.95 L24.35 10.95 M25.35 16.5 L25.7 17.4 Q25.9 16.85 26.8 16.05 26.05 18.0 26.05 18.4 L26.05 18.8 26.4 19.8 28.65 16.4 26.8 13.35 Q25.6 14.65 25.35 16.5" fill="#889515" fill-rule="evenodd" stroke="none"/>
      <path d="M25.25 11.65 L24.5 11.05 24.35 10.95 Q23.3 11.35 23.1 11.9 L23.4 12.35 23.55 12.5 Q24.05 11.45 25.3 11.65 L25.25 11.65" fill="#7b8613" fill-rule="evenodd" stroke="none"/>
      <path d="M26.25 9.95 Q25.0 10.2 25.25 11.65 L26.35 12.8 Q26.0 11.45 26.65 10.35 L26.25 9.95 M29.05 13.05 L28.0 11.85 Q27.25 11.95 26.8 13.35 L28.65 16.4 29.05 13.05" fill="#9cae18" fill-rule="evenodd" stroke="none"/>
      <path d="M24.35 10.95 L24.5 11.05 25.25 11.65 M23.55 12.5 L23.4 12.35 23.1 11.9 M24.35 10.95 L24.15 10.8 Q24.05 10.05 24.55 9.55 L24.95 9.6 25.0 9.55 M26.25 9.95 L26.65 10.35 M26.35 12.8 L25.25 11.65 M26.25 9.95 Q25.85 9.6 25.65 9.6 L25.0 9.55 M26.8 13.35 L26.35 12.8 M24.1 13.55 L23.55 12.5 M24.1 13.55 L24.3 13.9 25.3 16.25 25.35 16.5 25.7 17.4 Q25.9 16.85 26.8 16.05 26.05 18.0 26.05 18.4 L26.05 18.8 26.4 19.8 30.9 20.0 Q31.0 19.05 29.05 13.05 L28.0 11.85 26.65 10.35 M24.15 10.8 Q23.0 10.65 22.25 11.45 L22.1 11.55 22.8 11.6 23.1 11.9 M28.65 16.4 L26.8 13.35" fill="none" stroke="#000000" stroke-linecap="round" stroke-linejoin="round" stroke-opacity="0.3019608" stroke-width="0.30000000000000004"/>
      <path d="M28.35 15.45 Q28.75 14.3 28.65 13.2 L27.85 12.4 Q27.4 12.45 26.95 13.3 L28.35 15.45" fill="#d3e33e" fill-rule="evenodd" stroke="none"/>
      <path d="M22.2 11.45 L22.1 11.8 22.05 11.95 Q21.7 11.35 20.85 11.1 L20.95 11.05 21.25 10.65 Q21.85 10.65 22.2 11.45 M20.05 13.5 Q21.1 13.95 21.55 15.6 L21.55 16.6 Q20.45 15.65 19.85 16.3 L20.05 13.5 M22.0 27.1 Q21.4 26.3 19.7 18.55 L21.8 21.4 Q22.65 24.6 22.0 27.1" fill="#7b4815" fill-rule="evenodd" stroke="none"/>
      <path d="M23.6 11.45 Q23.2 11.15 22.1 11.8 L22.2 11.45 Q23.05 10.2 24.0 10.15 L24.15 10.2 Q23.8 10.3 23.65 10.95 L23.6 11.45 M21.55 16.6 L21.55 15.6 Q22.5 14.15 23.7 14.05 L23.75 14.65 Q23.85 16.05 24.25 17.9 L24.35 18.25 Q23.15 16.65 21.55 16.6 M25.3 22.4 Q23.6 24.1 22.0 27.1 22.65 24.6 21.8 21.4 L25.3 22.4" fill="#613911" fill-rule="evenodd" stroke="none"/>
      <path d="M22.1 11.8 L22.1 12.05 21.8 13.4 21.85 13.45 Q22.6 12.0 23.6 12.5 L23.7 14.05 Q22.5 14.15 21.55 15.6 L21.8 13.4 Q21.2 11.75 20.15 12.7 L20.4 11.8 20.85 11.1 Q21.7 11.35 22.05 11.95 L22.1 11.8 M24.35 18.25 L24.6 19.4 23.0 19.25 24.85 20.75 25.0 21.1 25.3 22.4 21.8 21.4 21.55 16.6 Q23.15 16.65 24.35 18.25" fill="#889515" fill-rule="evenodd" stroke="none"/>
      <path d="M21.8 13.4 L22.1 12.05 22.1 11.8 Q23.2 11.15 23.6 11.45 L23.6 12.3 23.6 12.5 Q22.6 12.0 21.85 13.45 L21.8 13.4" fill="#7b8613" fill-rule="evenodd" stroke="none"/>
      <path d="M20.15 12.7 Q21.2 11.75 21.8 13.4 L21.55 15.6 Q21.1 13.95 20.05 13.5 L20.15 12.7 M19.7 18.55 L19.85 16.3 Q20.45 15.65 21.55 16.6 L21.8 21.4 19.7 18.55" fill="#9cae18" fill-rule="evenodd" stroke="none"/>
      <path d="M22.1 11.8 L22.1 12.05 21.8 13.4 M23.6 12.5 L23.6 12.3 23.6 11.45 M22.1 11.8 L22.2 11.45 Q21.85 10.65 21.25 10.65 L20.95 11.05 20.85 11.1 M20.15 12.7 L20.05 13.5 M21.55 15.6 L21.8 13.4 M20.15 12.7 L20.4 11.8 20.85 11.1 M21.55 16.6 L21.55 15.6 M23.7 14.05 L23.6 12.5 M23.7 14.05 L23.75 14.65 Q23.85 16.05 24.25 17.9 L24.35 18.25 24.6 19.4 23.0 19.25 24.85 20.75 25.0 21.1 25.3 22.4 Q23.6 24.1 22.0 27.1 21.4 26.3 19.7 18.55 L19.85 16.3 20.05 13.5 M22.2 11.45 Q23.05 10.2 24.0 10.15 L24.15 10.2 Q23.8 10.3 23.65 10.95 L23.6 11.45 M21.8 21.4 L21.55 16.6" fill="none" stroke="#000000" stroke-linecap="round" stroke-linejoin="round" stroke-opacity="0.3019608" stroke-width="0.30000000000000004"/>
      <path d="M21.35 20.15 Q20.35 19.4 19.85 18.2 L20.1 16.65 21.2 16.7 21.35 20.15" fill="#d3e33e" fill-rule="evenodd" stroke="none"/>
      <path d="M22.9 10.35 L23.1 10.55 23.25 10.55 Q23.45 9.95 24.1 9.25 L24.05 9.3 23.6 9.2 Q23.05 9.65 22.9 10.35 M25.6 10.35 Q24.65 11.3 24.7 12.65 L24.95 13.3 Q25.75 12.0 26.55 12.0 L25.6 10.35 M27.45 20.4 Q27.75 19.5 27.35 13.35 L26.1 16.55 Q26.15 19.15 27.45 20.4" fill="#7b4815" fill-rule="evenodd" stroke="none"/>
      <path d="M21.65 11.3 Q21.95 10.8 23.1 10.55 L22.9 10.35 Q21.85 10.05 20.95 10.65 L20.75 10.8 21.4 10.95 21.65 11.3 M24.95 13.3 L24.7 12.65 Q23.4 12.3 22.25 13.0 L22.35 13.4 22.8 15.85 22.8 16.15 Q23.5 14.35 24.95 13.3 M23.05 19.5 Q25.15 19.45 27.45 20.4 26.15 19.15 26.1 16.55 L23.05 19.5" fill="#613911" fill-rule="evenodd" stroke="none"/>
      <path d="M23.1 10.55 L23.25 10.65 23.85 11.4 23.85 11.45 Q22.7 11.0 21.9 11.9 L22.25 13.0 Q23.4 12.3 24.7 12.65 L23.85 11.4 Q23.95 9.95 25.25 9.9 L24.8 9.45 24.1 9.25 Q23.45 9.95 23.25 10.55 L23.1 10.55 M22.8 16.15 L22.85 17.1 Q23.25 16.55 24.35 15.9 L23.0 18.1 22.95 18.45 23.05 19.5 26.1 16.55 Q25.6 14.65 24.95 13.3 23.5 14.35 22.8 16.15" fill="#889515" fill-rule="evenodd" stroke="none"/>
      <path d="M23.85 11.4 L23.25 10.65 23.1 10.55 Q21.95 10.8 21.65 11.3 L21.9 11.8 21.9 11.9 Q22.7 11.0 23.85 11.45 L23.85 11.4" fill="#7b8613" fill-rule="evenodd" stroke="none"/>
      <path d="M25.25 9.9 Q23.95 9.95 23.85 11.4 L24.7 12.65 Q24.65 11.3 25.6 10.35 L25.25 9.9 M27.35 13.35 L26.55 12.0 Q25.75 12.0 24.95 13.3 25.6 14.65 26.1 16.55 L27.35 13.35" fill="#9cae18" fill-rule="evenodd" stroke="none"/>
      <path d="M23.1 10.55 L23.25 10.65 23.85 11.4 M21.9 11.9 L21.9 11.8 21.65 11.3 M23.1 10.55 L22.9 10.35 Q23.05 9.65 23.6 9.2 L24.05 9.3 24.1 9.25 M25.25 9.9 L25.6 10.35 M24.7 12.65 L23.85 11.4 M25.25 9.9 L24.8 9.45 24.1 9.25 M24.95 13.3 L24.7 12.65 M22.25 13.0 L21.9 11.9 M22.25 13.0 L22.35 13.4 22.8 15.85 22.8 16.15 22.85 17.1 Q23.25 16.55 24.35 15.9 L23.0 18.1 22.95 18.45 23.05 19.5 Q25.15 19.45 27.45 20.4 27.75 19.5 27.35 13.35 L26.55 12.0 25.6 10.35 M22.9 10.35 Q21.85 10.05 20.95 10.65 L20.75 10.8 21.4 10.95 21.65 11.3 M26.1 16.55 Q25.6 14.65 24.95 13.3" fill="none" stroke="#000000" stroke-linecap="round" stroke-linejoin="round" stroke-opacity="0.3019608" stroke-width="0.30000000000000004"/>
      <path d="M26.25 15.45 Q26.95 14.4 27.05 13.3 L26.45 12.4 Q26.05 12.4 25.35 13.15 L26.25 15.45" fill="#d3e33e" fill-rule="evenodd" stroke="none"/>
      <path d="M14.1 19.3 L13.9 22.0 13.75 24.3 Q15.55 32.0 16.1 32.9 17.25 30.6 18.5 29.1 L18.6 29.4 19.1 30.85 Q21.05 31.0 23.6 32.55 23.55 31.65 21.95 26.95 L22.85 25.45 24.95 25.75 24.9 25.0 Q26.9 25.2 29.4 26.7 29.35 25.75 27.35 19.9 L27.4 19.65 30.75 19.95 Q30.8 19.0 28.85 13.0 L27.85 11.8 26.45 10.3 26.0 9.85 25.55 9.55 24.85 9.5 24.7 9.4 24.05 9.2 23.9 9.2 23.5 9.15 Q22.9 9.55 22.75 10.3 21.7 10.0 20.75 10.6 20.7 10.6 20.6 10.7 L21.05 10.75 20.8 11.0 20.75 11.05 20.3 11.75 20.05 12.5 Q19.65 12.55 19.35 12.9 L19.3 13.0 Q19.5 12.8 19.85 13.3 L19.95 13.4 19.95 13.5 19.75 15.35 19.05 15.3 18.85 15.2 18.2 15.0 18.1 15.0 17.7 15.0 Q17.1 15.35 16.95 16.1 15.9 15.8 14.95 16.4 L14.75 16.5 15.25 16.55 15.0 16.8 14.95 16.85 14.45 17.55 14.25 18.3 Q13.85 18.35 13.55 18.7 L13.5 18.8 Q13.7 18.6 14.05 19.15 L14.1 19.2 14.1 19.3 M17.7 18.65 L17.7 18.45 17.85 18.95 17.75 18.7 17.7 18.65 M23.55 12.9 L23.5 12.85 23.5 12.65 23.7 13.15 23.55 12.9 M24.7 20.3 L24.65 20.55 24.55 20.5 24.7 20.3 M18.85 26.35 L18.75 26.3 18.9 26.1 18.85 26.35" fill="#000000" fill-opacity="0.2" fill-rule="evenodd" stroke="none"/>
      <path d="M19.6 9.6 L19.9 9.9 20.05 9.9 Q19.95 9.05 20.25 8.25 L20.2 8.3 19.85 8.15 Q19.45 8.65 19.6 9.6 M22.1 9.85 Q21.6 11.05 22.15 12.9 L22.7 13.8 Q22.9 12.1 23.65 12.15 L22.1 9.85 M27.9 23.7 Q27.8 22.5 24.95 14.1 L25.05 18.35 Q26.2 21.85 27.9 23.7" fill="#7b4815" fill-rule="evenodd" stroke="none"/>
      <path d="M18.75 10.7 Q18.85 10.1 19.9 9.9 L19.6 9.6 Q18.45 9.1 17.85 9.85 L17.75 9.95 Q18.0 9.75 18.45 10.25 L18.75 10.7 M22.7 13.8 L22.15 12.9 Q20.85 12.3 20.05 13.1 L20.35 13.7 21.65 17.0 21.8 17.4 Q21.75 15.05 22.7 13.8 M23.35 21.95 Q25.35 22.15 27.9 23.7 26.2 21.85 25.05 18.35 L23.35 21.95" fill="#613911" fill-rule="evenodd" stroke="none"/>
      <path d="M19.9 9.9 L20.05 10.05 20.9 11.05 20.9 11.1 Q19.65 10.45 19.35 11.65 L20.05 13.1 Q20.85 12.3 22.15 12.9 L20.9 11.05 Q20.45 9.1 21.6 9.2 L20.95 8.55 20.25 8.25 Q19.95 9.05 20.05 9.9 L19.9 9.9 M21.8 17.4 L22.3 18.7 Q22.4 18.05 23.2 17.3 22.75 19.55 22.8 20.1 L22.9 20.55 23.35 21.95 25.05 18.35 22.7 13.8 Q21.75 15.05 21.8 17.4" fill="#889515" fill-rule="evenodd" stroke="none"/>
      <path d="M20.9 11.05 L20.05 10.05 19.9 9.9 Q18.85 10.1 18.75 10.7 L19.2 11.45 19.35 11.65 Q19.65 10.45 20.9 11.1 L20.9 11.05" fill="#7b8613" fill-rule="evenodd" stroke="none"/>
      <path d="M21.6 9.2 Q20.45 9.1 20.9 11.05 L22.15 12.9 Q21.6 11.05 22.1 9.85 L21.6 9.2 M24.95 14.1 L23.65 12.15 Q22.9 12.1 22.7 13.8 L25.05 18.35 24.95 14.1" fill="#9cae18" fill-rule="evenodd" stroke="none"/>
      <path d="M19.9 9.9 L20.05 10.05 20.9 11.05 M19.35 11.65 L19.2 11.45 18.75 10.7 M19.9 9.9 L19.6 9.6 Q19.45 8.65 19.85 8.15 L20.2 8.3 20.25 8.25 M21.6 9.2 L22.1 9.85 M22.15 12.9 L20.9 11.05 M21.6 9.2 L20.95 8.55 20.25 8.25 M22.7 13.8 L22.15 12.9 M20.05 13.1 L19.35 11.65 M20.05 13.1 L20.35 13.7 21.65 17.0 21.8 17.4 22.3 18.7 Q22.4 18.05 23.2 17.3 22.75 19.55 22.8 20.1 L22.9 20.55 23.35 21.95 Q25.35 22.15 27.9 23.7 27.8 22.5 24.95 14.1 L23.65 12.15 22.1 9.85 M19.6 9.6 Q18.45 9.1 17.85 9.85 L17.75 9.95 Q18.0 9.75 18.45 10.25 L18.75 10.7 M25.05 18.35 L22.7 13.8" fill="none" stroke="#000000" stroke-linecap="round" stroke-linejoin="round" stroke-opacity="0.3019608" stroke-width="0.30000000000000004"/>
      <path d="M24.7 16.95 Q24.95 15.55 24.6 14.1 L23.7 12.8 Q23.3 12.7 23.0 13.75 L24.7 16.95" fill="#d3e33e" fill-rule="evenodd" stroke="none"/>
      <path d="M22.5 7.85 L22.7 8.0 22.85 8.0 Q22.85 7.35 23.35 6.6 L23.3 6.65 22.9 6.6 Q22.4 7.1 22.5 7.85 M25.0 7.4 Q24.35 8.5 24.7 9.85 L25.15 10.4 Q25.6 9.0 26.35 8.9 L25.0 7.4 M29.25 17.05 Q29.35 16.1 27.4 10.1 L27.0 13.45 Q27.7 16.0 29.25 17.05" fill="#7b4815" fill-rule="evenodd" stroke="none"/>
      <path d="M21.45 8.95 Q21.65 8.4 22.7 8.0 L22.5 7.85 Q21.35 7.7 20.6 8.5 L20.45 8.6 21.15 8.65 21.45 8.95 M25.15 10.4 L24.7 9.85 Q23.35 9.7 22.45 10.6 L22.65 10.95 23.65 13.3 23.7 13.55 Q23.95 11.7 25.15 10.4 M24.75 16.85 L29.25 17.05 Q27.7 16.0 27.0 13.45 L24.75 16.85" fill="#613911" fill-rule="evenodd" stroke="none"/>
      <path d="M22.7 8.0 L22.85 8.1 23.6 8.7 23.65 8.7 Q22.4 8.5 21.9 9.55 L22.45 10.6 Q23.35 9.7 24.7 9.85 L23.6 8.7 Q23.35 7.25 24.6 7.0 L24.0 6.65 23.35 6.6 Q22.85 7.35 22.85 8.0 L22.7 8.0 M23.7 13.55 L24.05 14.45 Q24.25 13.9 25.15 13.1 24.4 15.05 24.4 15.45 L24.4 15.85 24.75 16.85 27.0 13.45 25.15 10.4 Q23.95 11.7 23.7 13.55" fill="#889515" fill-rule="evenodd" stroke="none"/>
      <path d="M23.6 8.7 L22.85 8.1 22.7 8.0 Q21.65 8.4 21.45 8.95 L21.75 9.4 21.9 9.55 Q22.4 8.5 23.65 8.7 L23.6 8.7" fill="#7b8613" fill-rule="evenodd" stroke="none"/>
      <path d="M24.6 7.0 Q23.35 7.25 23.6 8.7 L24.7 9.85 Q24.35 8.5 25.0 7.4 L24.6 7.0 M27.4 10.1 L26.35 8.9 Q25.6 9.0 25.15 10.4 L27.0 13.45 27.4 10.1" fill="#9cae18" fill-rule="evenodd" stroke="none"/>
      <path d="M22.7 8.0 L22.85 8.1 23.6 8.7 M21.9 9.55 L21.75 9.4 21.45 8.95 M22.7 8.0 L22.5 7.85 Q22.4 7.1 22.9 6.6 L23.3 6.65 23.35 6.6 M24.6 7.0 L25.0 7.4 M24.7 9.85 L23.6 8.7 M24.6 7.0 L24.0 6.65 23.35 6.6 M25.15 10.4 L24.7 9.85 M22.45 10.6 L21.9 9.55 M22.45 10.6 L22.65 10.95 23.65 13.3 23.7 13.55 24.05 14.45 Q24.25 13.9 25.15 13.1 24.4 15.05 24.4 15.45 L24.4 15.85 24.75 16.85 29.25 17.05 Q29.35 16.1 27.4 10.1 L26.35 8.9 25.0 7.4 M22.5 7.85 Q21.35 7.7 20.6 8.5 L20.45 8.6 21.15 8.65 21.45 8.95 M27.0 13.45 L25.15 10.4" fill="none" stroke="#000000" stroke-linecap="round" stroke-linejoin="round" stroke-opacity="0.3019608" stroke-width="0.30000000000000004"/>
      <path d="M26.85 12.4 Q27.25 11.25 27.15 10.15 L26.35 9.35 Q25.9 9.4 25.45 10.25 L26.85 12.4" fill="#d3e33e" fill-rule="evenodd" stroke="none"/>
      <path d="M20.75 8.45 L20.65 8.8 20.6 8.95 Q20.25 8.35 19.4 8.1 L19.5 8.05 19.8 7.65 Q20.4 7.65 20.75 8.45 M18.6 10.5 Q19.65 10.95 20.1 12.6 L20.1 13.6 Q19.0 12.65 18.4 13.3 L18.6 10.5 M20.55 24.1 Q19.95 23.3 18.25 15.55 L20.35 18.4 Q21.2 21.6 20.55 24.1" fill="#7b4815" fill-rule="evenodd" stroke="none"/>
      <path d="M22.15 8.45 Q21.75 8.15 20.65 8.8 L20.75 8.45 Q21.6 7.2 22.55 7.15 L22.7 7.2 Q22.35 7.3 22.2 7.95 L22.15 8.45 M20.1 13.6 L20.1 12.6 Q21.05 11.15 22.25 11.05 L22.3 11.65 Q22.4 13.05 22.8 14.9 L22.9 15.25 Q21.7 13.65 20.1 13.6 M23.85 19.4 Q22.15 21.1 20.55 24.1 21.2 21.6 20.35 18.4 L23.85 19.4" fill="#613911" fill-rule="evenodd" stroke="none"/>
      <path d="M20.65 8.8 L20.65 9.05 20.35 10.4 20.4 10.45 Q21.15 9.0 22.15 9.5 L22.25 11.05 Q21.05 11.15 20.1 12.6 L20.35 10.4 Q19.75 8.75 18.7 9.7 L18.95 8.8 19.4 8.1 Q20.25 8.35 20.6 8.95 L20.65 8.8 M22.9 15.25 L23.15 16.4 21.55 16.25 Q23.2 17.35 23.4 17.75 L23.55 18.1 23.85 19.4 20.35 18.4 20.1 13.6 Q21.7 13.65 22.9 15.25" fill="#889515" fill-rule="evenodd" stroke="none"/>
      <path d="M20.35 10.4 L20.65 9.05 20.65 8.8 Q21.75 8.15 22.15 8.45 L22.15 9.3 22.15 9.5 Q21.15 9.0 20.4 10.45 L20.35 10.4" fill="#7b8613" fill-rule="evenodd" stroke="none"/>
      <path d="M18.7 9.7 Q19.75 8.75 20.35 10.4 L20.1 12.6 Q19.65 10.95 18.6 10.5 L18.7 9.7 M18.25 15.55 L18.4 13.3 Q19.0 12.65 20.1 13.6 L20.35 18.4 18.25 15.55" fill="#9cae18" fill-rule="evenodd" stroke="none"/>
      <path d="M20.65 8.8 L20.65 9.05 20.35 10.4 M22.15 9.5 L22.15 9.3 22.15 8.45 M20.65 8.8 L20.75 8.45 Q20.4 7.65 19.8 7.65 L19.5 8.05 19.4 8.1 M18.7 9.7 L18.6 10.5 M20.1 12.6 L20.35 10.4 M18.7 9.7 L18.95 8.8 19.4 8.1 M20.1 13.6 L20.1 12.6 M22.25 11.05 L22.15 9.5 M22.25 11.05 L22.3 11.65 Q22.4 13.05 22.8 14.9 L22.9 15.25 23.15 16.4 21.55 16.25 Q23.2 17.35 23.4 17.75 L23.55 18.1 23.85 19.4 Q22.15 21.1 20.55 24.1 19.95 23.3 18.25 15.55 L18.4 13.3 18.6 10.5 M20.75 8.45 Q21.6 7.2 22.55 7.15 L22.7 7.2 Q22.35 7.3 22.2 7.95 L22.15 8.45 M20.35 18.4 L20.1 13.6" fill="none" stroke="#000000" stroke-linecap="round" stroke-linejoin="round" stroke-opacity="0.3019608" stroke-width="0.30000000000000004"/>
      <path d="M19.9 17.2 Q18.9 16.45 18.4 15.25 L18.65 13.7 19.75 13.75 19.9 17.2" fill="#d3e33e" fill-rule="evenodd" stroke="none"/>
      <path d="M21.35 7.3 L21.55 7.5 21.7 7.5 Q21.9 6.9 22.55 6.2 L22.5 6.25 22.05 6.15 Q21.5 6.6 21.35 7.3 M24.05 7.3 Q23.1 8.25 23.15 9.6 L23.4 10.25 Q24.2 8.95 25.0 8.95 L24.05 7.3 M25.9 17.35 Q26.2 16.45 25.8 10.3 L24.55 13.5 Q24.6 16.1 25.9 17.35" fill="#7b4815" fill-rule="evenodd" stroke="none"/>
      <path d="M20.1 8.25 Q20.4 7.75 21.55 7.5 L21.35 7.3 Q20.3 7.0 19.4 7.6 L19.2 7.75 Q19.6 7.6 19.85 7.9 L20.1 8.25 M23.4 10.25 L23.15 9.6 Q21.85 9.25 20.7 9.95 L20.8 10.35 21.25 12.8 21.25 13.1 Q21.95 11.3 23.4 10.25 M21.5 16.45 Q23.6 16.4 25.9 17.35 24.6 16.1 24.55 13.5 L21.5 16.45" fill="#613911" fill-rule="evenodd" stroke="none"/>
      <path d="M21.55 7.5 L21.7 7.6 22.3 8.35 22.3 8.4 Q21.15 7.95 20.35 8.85 L20.7 9.95 Q21.85 9.25 23.15 9.6 L22.3 8.35 Q22.4 6.9 23.7 6.85 L23.25 6.4 22.55 6.2 Q21.9 6.9 21.7 7.5 L21.55 7.5 M21.25 13.1 L21.3 14.05 Q21.7 13.5 22.8 12.85 L21.45 15.05 21.4 15.4 21.5 16.45 24.55 13.5 23.4 10.25 Q21.95 11.3 21.25 13.1" fill="#889515" fill-rule="evenodd" stroke="none"/>
      <path d="M22.3 8.35 L21.7 7.6 21.55 7.5 Q20.4 7.75 20.1 8.25 L20.35 8.75 20.35 8.85 Q21.15 7.95 22.3 8.4 L22.3 8.35" fill="#7b8613" fill-rule="evenodd" stroke="none"/>
      <path d="M23.7 6.85 Q22.4 6.9 22.3 8.35 L23.15 9.6 Q23.1 8.25 24.05 7.3 L23.7 6.85 M25.8 10.3 L25.0 8.95 Q24.2 8.95 23.4 10.25 L24.55 13.5 25.8 10.3" fill="#9cae18" fill-rule="evenodd" stroke="none"/>
      <path d="M21.55 7.5 L21.7 7.6 22.3 8.35 M20.35 8.85 L20.35 8.75 20.1 8.25 M21.55 7.5 L21.35 7.3 Q21.5 6.6 22.05 6.15 L22.5 6.25 22.55 6.2 M23.7 6.85 L24.05 7.3 M23.15 9.6 L22.3 8.35 M23.7 6.85 L23.25 6.4 22.55 6.2 M23.4 10.25 L23.15 9.6 M20.7 9.95 L20.35 8.85 M20.7 9.95 L20.8 10.35 21.25 12.8 21.25 13.1 21.3 14.05 Q21.7 13.5 22.8 12.85 L21.45 15.05 21.4 15.4 21.5 16.45 Q23.6 16.4 25.9 17.35 26.2 16.45 25.8 10.3 L25.0 8.95 24.05 7.3 M21.35 7.3 Q20.3 7.0 19.4 7.6 L19.2 7.75 Q19.6 7.6 19.85 7.9 L20.1 8.25 M24.55 13.5 L23.4 10.25" fill="none" stroke="#000000" stroke-linecap="round" stroke-linejoin="round" stroke-opacity="0.3019608" stroke-width="0.30000000000000004"/>
      <path d="M24.8 12.4 Q25.5 11.35 25.6 10.25 L25.0 9.35 Q24.6 9.35 23.9 10.1 L24.8 12.4" fill="#d3e33e" fill-rule="evenodd" stroke="none"/>
      <path d="M14.55 12.05 L14.85 12.35 15.0 12.35 Q14.9 11.5 15.2 10.7 L15.15 10.75 14.8 10.6 Q14.4 11.1 14.55 12.05 M17.05 12.3 Q16.55 13.5 17.1 15.35 L17.65 16.25 Q17.85 14.55 18.6 14.6 L17.05 12.3 M22.85 26.15 Q22.75 24.95 19.9 16.55 L20.0 20.8 Q21.15 24.3 22.85 26.15" fill="#7b4815" fill-rule="evenodd" stroke="none"/>
      <path d="M13.7 13.15 Q13.8 12.55 14.85 12.35 L14.55 12.05 Q13.4 11.55 12.8 12.3 L12.7 12.4 Q12.95 12.2 13.4 12.7 L13.7 13.15 M17.65 16.25 L17.1 15.35 Q15.8 14.75 15.0 15.55 L15.3 16.15 16.6 19.45 16.75 19.85 Q16.7 17.5 17.65 16.25 M18.3 24.4 Q20.3 24.6 22.85 26.15 21.15 24.3 20.0 20.8 L18.3 24.4" fill="#613911" fill-rule="evenodd" stroke="none"/>
      <path d="M14.85 12.35 L15.0 12.5 15.85 13.5 15.85 13.55 Q14.6 12.9 14.3 14.1 L15.0 15.55 Q15.8 14.75 17.1 15.35 L15.85 13.5 Q15.4 11.55 16.55 11.65 L15.9 11.0 15.2 10.7 Q14.9 11.5 15.0 12.35 L14.85 12.35 M16.75 19.85 L17.25 21.15 Q17.35 20.5 18.15 19.75 17.7 22.0 17.75 22.55 L17.85 23.0 18.3 24.4 20.0 20.8 17.65 16.25 Q16.7 17.5 16.75 19.85" fill="#889515" fill-rule="evenodd" stroke="none"/>
      <path d="M15.85 13.5 L15.0 12.5 14.85 12.35 Q13.8 12.55 13.7 13.15 L14.15 13.9 14.3 14.1 Q14.6 12.9 15.85 13.55 L15.85 13.5" fill="#7b8613" fill-rule="evenodd" stroke="none"/>
      <path d="M16.55 11.65 Q15.4 11.55 15.85 13.5 L17.1 15.35 Q16.55 13.5 17.05 12.3 L16.55 11.65 M19.9 16.55 L18.6 14.6 Q17.85 14.55 17.65 16.25 L20.0 20.8 19.9 16.55" fill="#9cae18" fill-rule="evenodd" stroke="none"/>
      <path d="M14.85 12.35 L15.0 12.5 15.85 13.5 M14.3 14.1 L14.15 13.9 13.7 13.15 M14.85 12.35 L14.55 12.05 Q14.4 11.1 14.8 10.6 L15.15 10.75 15.2 10.7 M16.55 11.65 L17.05 12.3 M17.1 15.35 L15.85 13.5 M16.55 11.65 L15.9 11.0 15.2 10.7 M17.65 16.25 L17.1 15.35 M15.0 15.55 L14.3 14.1 M15.0 15.55 L15.3 16.15 16.6 19.45 16.75 19.85 17.25 21.15 Q17.35 20.5 18.15 19.75 17.7 22.0 17.75 22.55 L17.85 23.0 18.3 24.4 Q20.3 24.6 22.85 26.15 22.75 24.95 19.9 16.55 L18.6 14.6 17.05 12.3 M14.55 12.05 Q13.4 11.55 12.8 12.3 L12.7 12.4 Q12.95 12.2 13.4 12.7 L13.7 13.15 M20.0 20.8 L17.65 16.25" fill="none" stroke="#000000" stroke-linecap="round" stroke-linejoin="round" stroke-opacity="0.3019608" stroke-width="0.30000000000000004"/>
      <path d="M19.6 19.3 Q19.85 17.9 19.5 16.45 L18.6 15.15 Q18.2 15.05 17.9 16.1 L19.6 19.3" fill="#d3e33e" fill-rule="evenodd" stroke="none"/>
      <path d="M17.35 10.2 L17.55 10.35 17.7 10.35 Q17.7 9.7 18.2 8.95 L18.15 9.0 17.75 8.95 Q17.25 9.45 17.35 10.2 M19.85 9.75 Q19.2 10.85 19.55 12.2 L20.0 12.75 Q20.45 11.35 21.2 11.25 L19.85 9.75 M24.1 19.4 Q24.2 18.45 22.25 12.45 L21.85 15.8 Q22.55 18.35 24.1 19.4" fill="#7b4815" fill-rule="evenodd" stroke="none"/>
      <path d="M16.3 11.3 Q16.5 10.75 17.55 10.35 L17.35 10.2 Q16.2 10.05 15.45 10.85 L15.3 10.95 16.0 11.0 16.3 11.3 M20.0 12.75 L19.55 12.2 Q18.2 12.05 17.3 12.95 L17.5 13.3 18.5 15.65 18.55 15.9 Q18.8 14.05 20.0 12.75 M19.6 19.2 L24.1 19.4 Q22.55 18.35 21.85 15.8 L19.6 19.2" fill="#613911" fill-rule="evenodd" stroke="none"/>
      <path d="M17.55 10.35 L17.7 10.45 18.45 11.05 18.5 11.05 Q17.25 10.85 16.75 11.9 L17.3 12.95 Q18.2 12.05 19.55 12.2 L18.45 11.05 Q18.2 9.6 19.45 9.35 19.05 9.0 18.85 9.0 L18.2 8.95 Q17.7 9.7 17.7 10.35 L17.55 10.35 M18.55 15.9 L18.9 16.8 Q19.1 16.25 20.0 15.45 19.25 17.4 19.25 17.8 L19.25 18.2 19.6 19.2 21.85 15.8 20.0 12.75 Q18.8 14.05 18.55 15.9" fill="#889515" fill-rule="evenodd" stroke="none"/>
      <path d="M18.45 11.05 L17.7 10.45 17.55 10.35 Q16.5 10.75 16.3 11.3 L16.6 11.75 16.75 11.9 Q17.25 10.85 18.5 11.05 L18.45 11.05" fill="#7b8613" fill-rule="evenodd" stroke="none"/>
      <path d="M19.45 9.35 Q18.2 9.6 18.45 11.05 L19.55 12.2 Q19.2 10.85 19.85 9.75 L19.45 9.35 M22.25 12.45 L21.2 11.25 Q20.45 11.35 20.0 12.75 L21.85 15.8 22.25 12.45" fill="#9cae18" fill-rule="evenodd" stroke="none"/>
      <path d="M17.55 10.35 L17.7 10.45 18.45 11.05 M16.75 11.9 L16.6 11.75 16.3 11.3 M17.55 10.35 L17.35 10.2 Q17.25 9.45 17.75 8.95 L18.15 9.0 18.2 8.95 M19.45 9.35 L19.85 9.75 M19.55 12.2 L18.45 11.05 M19.45 9.35 Q19.05 9.0 18.85 9.0 L18.2 8.95 M20.0 12.75 L19.55 12.2 M17.3 12.95 L16.75 11.9 M17.3 12.95 L17.5 13.3 18.5 15.65 18.55 15.9 18.9 16.8 Q19.1 16.25 20.0 15.45 19.25 17.4 19.25 17.8 L19.25 18.2 19.6 19.2 24.1 19.4 Q24.2 18.45 22.25 12.45 L21.2 11.25 19.85 9.75 M17.35 10.2 Q16.2 10.05 15.45 10.85 L15.3 10.95 16.0 11.0 16.3 11.3 M21.85 15.8 L20.0 12.75" fill="none" stroke="#000000" stroke-linecap="round" stroke-linejoin="round" stroke-opacity="0.3019608" stroke-width="0.30000000000000004"/>
      <path d="M21.75 14.85 Q22.15 13.7 22.05 12.6 L21.25 11.8 Q20.8 11.85 20.35 12.7 L21.75 14.85" fill="#d3e33e" fill-rule="evenodd" stroke="none"/>
      <path d="M15.55 10.8 L15.45 11.15 15.4 11.3 Q15.05 10.7 14.2 10.45 L14.3 10.4 14.6 10.0 Q15.2 10.0 15.55 10.8 M13.4 12.85 Q14.45 13.3 14.9 14.95 L14.9 15.95 Q13.8 15.0 13.2 15.65 L13.4 12.85 M15.35 26.45 Q14.75 25.65 13.05 17.9 L15.15 20.75 Q16.0 23.95 15.35 26.45" fill="#7b4815" fill-rule="evenodd" stroke="none"/>
      <path d="M16.95 10.8 Q16.55 10.5 15.45 11.15 L15.55 10.8 Q16.4 9.55 17.35 9.5 L17.5 9.55 Q17.15 9.65 17.0 10.3 L16.95 10.8 M14.9 15.95 L14.9 14.95 Q15.85 13.5 17.05 13.4 L17.1 14.0 Q17.2 15.4 17.6 17.25 L17.7 17.6 Q16.5 16.0 14.9 15.95 M18.65 21.75 Q16.95 23.45 15.35 26.45 16.0 23.95 15.15 20.75 L18.65 21.75" fill="#613911" fill-rule="evenodd" stroke="none"/>
      <path d="M15.45 11.15 L15.45 11.4 15.15 12.75 15.2 12.8 Q15.95 11.35 16.95 11.85 L17.05 13.4 Q15.85 13.5 14.9 14.95 L15.15 12.75 Q14.55 11.1 13.5 12.05 L13.75 11.15 14.2 10.45 Q15.05 10.7 15.4 11.3 L15.45 11.15 M17.7 17.6 L17.95 18.75 16.35 18.6 18.2 20.1 18.35 20.45 18.65 21.75 15.15 20.75 14.9 15.95 Q16.5 16.0 17.7 17.6" fill="#889515" fill-rule="evenodd" stroke="none"/>
      <path d="M15.15 12.75 L15.45 11.4 15.45 11.15 Q16.55 10.5 16.95 10.8 L16.95 11.65 16.95 11.85 Q15.95 11.35 15.2 12.8 L15.15 12.75" fill="#7b8613" fill-rule="evenodd" stroke="none"/>
      <path d="M13.5 12.05 Q14.55 11.1 15.15 12.75 L14.9 14.95 Q14.45 13.3 13.4 12.85 L13.5 12.05 M13.05 17.9 L13.2 15.65 Q13.8 15.0 14.9 15.95 L15.15 20.75 13.05 17.9" fill="#9cae18" fill-rule="evenodd" stroke="none"/>
      <path d="M15.45 11.15 L15.45 11.4 15.15 12.75 M16.95 11.85 L16.95 11.65 16.95 10.8 M15.45 11.15 L15.55 10.8 Q15.2 10.0 14.6 10.0 L14.3 10.4 14.2 10.45 M13.5 12.05 L13.4 12.85 M14.9 14.95 L15.15 12.75 M13.5 12.05 L13.75 11.15 14.2 10.45 M14.9 15.95 L14.9 14.95 M17.05 13.4 L16.95 11.85 M17.05 13.4 L17.1 14.0 Q17.2 15.4 17.6 17.25 L17.7 17.6 17.95 18.75 16.35 18.6 18.2 20.1 18.35 20.45 18.65 21.75 Q16.95 23.45 15.35 26.45 14.75 25.65 13.05 17.9 L13.2 15.65 13.4 12.85 M15.55 10.8 Q16.4 9.55 17.35 9.5 L17.5 9.55 Q17.15 9.65 17.0 10.3 L16.95 10.8 M15.15 20.75 L14.9 15.95" fill="none" stroke="#000000" stroke-linecap="round" stroke-linejoin="round" stroke-opacity="0.3019608" stroke-width="0.30000000000000004"/>
      <path d="M14.75 19.55 Q13.75 18.8 13.25 17.6 L13.5 16.05 14.6 16.1 14.75 19.55" fill="#d3e33e" fill-rule="evenodd" stroke="none"/>
      <path d="M16.15 9.75 L16.35 9.95 16.5 9.95 Q16.7 9.35 17.35 8.65 L17.3 8.7 16.85 8.6 Q16.3 9.05 16.15 9.75 M18.85 9.75 Q17.9 10.7 17.95 12.05 L18.2 12.7 Q19.0 11.4 19.8 11.4 L18.85 9.75 M20.7 19.8 Q21.0 18.9 20.6 12.75 L19.35 15.95 Q19.4 18.55 20.7 19.8" fill="#7b4815" fill-rule="evenodd" stroke="none"/>
      <path d="M14.9 10.7 Q15.2 10.2 16.35 9.95 L16.15 9.75 Q15.1 9.45 14.2 10.05 L14.0 10.2 14.65 10.35 14.9 10.7 M18.2 12.7 L17.95 12.05 Q16.65 11.7 15.5 12.4 L15.6 12.8 16.05 15.25 16.05 15.55 Q16.75 13.75 18.2 12.7 M16.3 18.9 Q18.4 18.85 20.7 19.8 19.4 18.55 19.35 15.95 L16.3 18.9" fill="#613911" fill-rule="evenodd" stroke="none"/>
      <path d="M16.35 9.95 L16.5 10.05 17.1 10.8 17.1 10.85 Q15.95 10.4 15.15 11.3 L15.5 12.4 Q16.65 11.7 17.95 12.05 L17.1 10.8 Q17.2 9.35 18.5 9.3 L18.05 8.85 17.35 8.65 Q16.7 9.35 16.5 9.95 L16.35 9.95 M16.05 15.55 L16.1 16.5 Q16.5 15.95 17.6 15.3 L16.25 17.5 16.2 17.85 16.3 18.9 19.35 15.95 18.2 12.7 Q16.75 13.75 16.05 15.55" fill="#889515" fill-rule="evenodd" stroke="none"/>
      <path d="M17.1 10.8 L16.5 10.05 16.35 9.95 Q15.2 10.2 14.9 10.7 L15.15 11.2 15.15 11.3 Q15.95 10.4 17.1 10.85 L17.1 10.8" fill="#7b8613" fill-rule="evenodd" stroke="none"/>
      <path d="M18.5 9.3 Q17.2 9.35 17.1 10.8 L17.95 12.05 Q17.9 10.7 18.85 9.75 L18.5 9.3 M20.6 12.75 L19.8 11.4 Q19.0 11.4 18.2 12.7 L19.35 15.95 20.6 12.75" fill="#9cae18" fill-rule="evenodd" stroke="none"/>
      <path d="M16.35 9.95 L16.5 10.05 17.1 10.8 M15.15 11.3 L15.15 11.2 14.9 10.7 M16.35 9.95 L16.15 9.75 Q16.3 9.05 16.85 8.6 L17.3 8.7 17.35 8.65 M18.5 9.3 L18.85 9.75 M17.95 12.05 L17.1 10.8 M18.5 9.3 L18.05 8.85 17.35 8.65 M18.2 12.7 L17.95 12.05 M15.5 12.4 L15.15 11.3 M15.5 12.4 L15.6 12.8 16.05 15.25 16.05 15.55 16.1 16.5 Q16.5 15.95 17.6 15.3 L16.25 17.5 16.2 17.85 16.3 18.9 Q18.4 18.85 20.7 19.8 21.0 18.9 20.6 12.75 L19.8 11.4 18.85 9.75 M16.15 9.75 Q15.1 9.45 14.2 10.05 L14.0 10.2 14.65 10.35 14.9 10.7 M19.35 15.95 L18.2 12.7" fill="none" stroke="#000000" stroke-linecap="round" stroke-linejoin="round" stroke-opacity="0.3019608" stroke-width="0.30000000000000004"/>
      <path d="M19.45 14.85 Q20.15 13.8 20.25 12.7 L19.65 11.8 Q19.25 11.8 18.55 12.55 L19.45 14.85" fill="#d3e33e" fill-rule="evenodd" stroke="none"/>
    </g>
    <linearGradient gradientTransform="matrix(8.0E-4, -0.0058, 0.0081, -8.0E-4, 21.55, 10.8)" gradientUnits="userSpaceOnUse" id="gradient0" spreadMethod="pad" x1="-819.2" x2="819.2">
      <stop offset="0.0" stop-color="#000000" stop-opacity="0.0"/>
      <stop offset="0.23921568627450981" stop-color="#000000" stop-opacity="0.39215687"/>
      <stop offset="0.788235294117647" stop-color="#000000" stop-opacity="0.37254903"/>
      <stop offset="0.9019607843137255" stop-color="#000000" stop-opacity="0.0"/>
    </linearGradient>
    <g id="sprite0" transform="matrix(1.0, 0.0, 0.0, 1.0, 73.5, 65.0)">
      <use height="136.85" transform="matrix(1.0, 0.0, 0.0, 1.0, -73.5, -65.0)" width="148.25" xlink:href="#shape1"/>
    </g>
    <g id="shape1" transform="matrix(1.0, 0.0, 0.0, 1.0, 73.5, 65.0)">
      <path d="M36.65 -54.65 Q60.05 -42.0 69.75 -17.95 80.55 8.9 68.0 34.1 55.45 59.35 26.8 68.2 -1.8 77.05 -29.7 64.3 -57.6 51.6 -68.45 24.75 -79.3 -2.05 -66.75 -27.25 L-66.7 -27.3 Q-54.1 -52.5 -25.5 -61.4 3.1 -70.2 31.0 -57.5 L36.65 -54.65" fill="url(#gradient1)" fill-rule="evenodd" stroke="none"/>
    </g>
    <radialGradient cx="0" cy="0" gradientTransform="matrix(0.0914, 0.0, 0.0, 0.0914, 0.6, 3.4)" gradientUnits="userSpaceOnUse" id="gradient1" r="819.2" spreadMethod="pad">
      <stop offset="0.0" stop-color="#ffffff"/>
      <stop offset="1.0" stop-color="#ffffff" stop-opacity="0.0"/>
    </radialGradient>
  </defs>
</svg>
