<?xml version="1.0" encoding="UTF-8" standalone="no"?>
<svg xmlns:xlink="http://www.w3.org/1999/xlink" height="440.0px" width="440.0px" xmlns="http://www.w3.org/2000/svg">
  <g transform="matrix(10.0, 0.0, 0.0, 10.0, 0.0, 0.0)">
    <use height="44.0" transform="matrix(0.9091, 0.0, 0.0, 0.9091, 2.0, 2.0)" width="44.0" xlink:href="#sprite0"/>
  </g>
  <defs>
    <g id="sprite0" transform="matrix(1.0, 0.0, 0.0, 1.0, 0.0, 0.0)">
      <use height="44.0" transform="matrix(1.0, 0.0, 0.0, 1.0, 0.0, 0.0)" width="44.0" xlink:href="#shape0"/>
      <use height="35.1" transform="matrix(0.9781, 0.0, 0.0, 0.9781, 3.0, 4.85)" width="38.85" xlink:href="#sprite1"/>
    </g>
    <g id="shape0" transform="matrix(1.0, 0.0, 0.0, 1.0, 0.0, 0.0)">
      <path d="M44.0 44.0 L0.0 44.0 0.0 0.0 44.0 0.0 44.0 44.0" fill="#43adca" fill-opacity="0.0" fill-rule="evenodd" stroke="none"/>
    </g>
    <g id="sprite1" transform="matrix(1.0, 0.0, 0.0, 1.0, 0.0, 0.0)">
      <use height="23.0" transform="matrix(1.0, 0.0, 0.0, 1.0, 16.4, 7.75)" width="15.7" xlink:href="#sprite2"/>
      <use height="35.1" transform="matrix(1.0, 0.0, 0.0, 1.0, 0.0, 0.0)" width="38.85" xlink:href="#sprite4"/>
    </g>
    <g id="sprite2" transform="matrix(1.0, 0.0, 0.0, 1.0, 3.25, 10.95)">
      <use height="23.0" transform="matrix(-1.0, 0.0, 0.0, 1.0, 12.45, -10.95)" width="15.7" xlink:href="#sprite3"/>
    </g>
    <g id="sprite3" transform="matrix(1.0, 0.0, 0.0, 1.0, 12.45, 10.95)">
      <use height="23.0" transform="matrix(1.0, 0.0, 0.0, 1.0, -12.45, -10.95)" width="15.7" xlink:href="#shape1"/>
    </g>
    <g id="shape1" transform="matrix(1.0, 0.0, 0.0, 1.0, 12.45, 10.95)">
      <path d="M-3.65 -8.7 L-6.8 -5.4 -6.85 -5.25 -9.2 -2.2 -10.7 0.35 -11.7 2.2 Q-12.65 3.9 -12.4 5.25 L-12.4 5.6 -12.15 6.2 -11.2 8.1 -11.0 8.3 Q-10.5 9.35 -9.5 9.85 L-9.4 9.75 -8.0 6.75 -5.6 1.25 -4.25 -1.8 -3.65 -3.1 -0.1 -10.95 Q-2.0 -9.5 -3.65 -8.7 M-11.1 4.7 L-10.8 4.55 -7.95 0.8 -8.0 6.75 -7.95 0.8 -7.7 0.55 -6.3 -1.35 -1.9 -9.25 -6.3 -1.35 -7.7 0.55 -7.95 0.8 -10.8 4.55 -11.1 4.7" fill="#ffff2f" fill-opacity="0.7019608" fill-rule="evenodd" stroke="none"/>
      <path d="M-3.65 -8.7 L-6.8 -5.4 -6.85 -5.25 -9.2 -2.2 -10.7 0.35 -11.7 2.2 Q-12.65 3.9 -12.4 5.25 L-12.4 5.6 -12.15 6.2 -11.2 8.1 -11.0 8.3 Q-10.5 9.35 -9.5 9.85 L-9.4 9.75 -8.0 6.75 -5.6 1.25 -4.25 -1.8 -3.65 -3.1 -0.1 -10.95 Q-2.0 -9.5 -3.65 -8.7" fill="none" stroke="#ffffff" stroke-linecap="round" stroke-linejoin="round" stroke-opacity="0.5019608" stroke-width="0.05"/>
      <path d="M-8.0 6.75 L-7.95 0.8 -7.7 0.55 -6.3 -1.35 -1.9 -9.25 M-7.95 0.8 L-10.8 4.55 -11.1 4.7" fill="none" stroke="#2d4806" stroke-linecap="round" stroke-linejoin="round" stroke-opacity="0.2" stroke-width="0.05"/>
      <path d="M3.2 -5.5 L3.2 -1.05 3.15 -0.8 2.75 3.0 2.0 5.9 1.5 7.9 Q1.05 9.75 -0.1 10.55 L-0.3 10.85 -0.9 11.05 -2.9 11.8 -3.15 11.8 -5.35 11.9 -5.35 11.8 -4.3 8.65 -2.2 3.05 -1.15 -0.15 -0.65 -1.45 2.2 -9.55 3.2 -5.5 M-0.65 9.25 L-0.75 8.95 -0.2 4.35 -4.3 8.65 -0.2 4.35 -0.25 4.0 0.1 1.6 2.3 -7.1 0.1 1.6 -0.25 4.0 -0.2 4.35 -0.75 8.95 -0.65 9.25" fill="#ffff2f" fill-opacity="0.7019608" fill-rule="evenodd" stroke="none"/>
      <path d="M3.2 -5.5 L3.2 -1.05 3.15 -0.8 2.75 3.0 2.0 5.9 1.5 7.9 Q1.05 9.75 -0.1 10.55 L-0.3 10.85 -0.9 11.05 -2.9 11.8 -3.15 11.8 -5.35 11.9 -5.35 11.8 -4.3 8.65 -2.2 3.05 -1.15 -0.15 -0.65 -1.45 2.2 -9.55 3.2 -5.5" fill="none" stroke="#ffffff" stroke-linecap="round" stroke-linejoin="round" stroke-opacity="0.5019608" stroke-width="0.05"/>
      <path d="M-4.3 8.65 L-0.2 4.35 -0.25 4.0 0.1 1.6 2.3 -7.1 M-0.2 4.35 L-0.75 8.95 -0.65 9.25" fill="none" stroke="#2d4806" stroke-linecap="round" stroke-linejoin="round" stroke-opacity="0.2" stroke-width="0.05"/>
    </g>
    <g id="sprite4" transform="matrix(1.0, 0.0, 0.0, 1.0, 13.35, 0.1)">
      <use height="35.1" transform="matrix(-1.0, 0.0, 0.0, 1.0, 25.5, -0.1)" width="38.85" xlink:href="#sprite5"/>
    </g>
    <g id="sprite5" transform="matrix(1.0, 0.0, 0.0, 1.0, 25.5, 0.1)">
      <use height="14.3" transform="matrix(1.0, 0.0, 0.0, 1.0, -11.35, -0.1)" width="12.15" xlink:href="#shape2"/>
      <use height="24.8" transform="matrix(-0.7539, 0.1368, 0.16, 0.7201, -5.75, 3.5)" width="26.2" xlink:href="#sprite6"/>
      <use height="24.8" transform="matrix(0.5677, 0.7595, -0.7936, 0.3757, -1.55, 5.8)" width="26.2" xlink:href="#sprite6"/>
      <use height="24.4" transform="matrix(1.0, 0.0, 0.0, 1.0, -21.6, 6.55)" width="24.5" xlink:href="#shape4"/>
    </g>
    <g id="shape2" transform="matrix(1.0, 0.0, 0.0, 1.0, 11.35, 0.1)">
      <path d="M-10.8 9.45 Q-10.95 10.1 -10.35 11.5 -8.1 14.45 -2.7 14.2 -1.85 14.1 -1.05 12.95 L-2.1 13.05 Q-3.1 13.15 -6.7 11.95 -10.15 10.8 -10.8 9.45" fill="#382510" fill-opacity="0.2509804" fill-rule="evenodd" stroke="none"/>
      <path d="M-4.1 1.15 L-5.55 -0.1 -8.0 2.5 Q-9.95 4.85 -10.95 7.85 L-9.45 7.4 -4.1 1.15" fill="#f6eaa7" fill-rule="evenodd" stroke="none"/>
      <path d="M-1.95 2.2 L-3.0 1.75 Q-3.35 1.5 -3.75 1.35 L-4.1 1.15 -9.45 7.4 -10.95 7.85 -8.45 9.65 -8.0 9.9 -7.9 10.0 -5.9 10.4 -4.8 10.5 -2.25 6.6 -1.95 2.2" fill="#e1ca04" fill-rule="evenodd" stroke="none"/>
      <path d="M-10.95 7.85 L-11.2 8.6 -10.8 9.35 -10.8 9.45 Q-10.15 10.8 -6.7 11.95 -3.1 13.15 -2.1 13.05 -1.15 10.4 -0.55 7.75 0.0 5.55 0.4 3.05 L-1.95 2.2 -2.25 6.6 -4.8 10.5 -5.9 10.4 -7.9 10.0 -8.0 9.9 -8.45 9.65 -10.95 7.85" fill="#956d00" fill-rule="evenodd" stroke="none"/>
      <path d="M-1.05 12.95 L-0.95 12.95 -0.6 12.85 Q0.9 12.1 0.8 9.2 L0.4 3.05 Q0.0 5.55 -0.55 7.75 -1.15 10.4 -2.1 13.05 L-1.05 12.95" fill="#432f01" fill-rule="evenodd" stroke="none"/>
      <path d="M-4.1 1.15 L-5.55 -0.1 -8.0 2.5 Q-9.95 4.85 -10.95 7.85 L-11.2 8.6 -10.8 9.35 -10.8 9.45 M-1.05 12.95 L-0.95 12.95 -0.6 12.85 Q0.9 12.1 0.8 9.2 L0.4 3.05 -1.95 2.2 -3.0 1.75 Q-3.35 1.5 -3.75 1.35 L-4.1 1.15 M-1.05 12.95 L-2.1 13.05 Q-3.1 13.15 -6.7 11.95 -10.15 10.8 -10.8 9.45" fill="none" stroke="#382510" stroke-linecap="round" stroke-linejoin="round" stroke-opacity="0.3019608" stroke-width="0.05"/>
      <path d="M-7.2 1.55 Q-7.8 1.65 -8.1 2.2 -8.55 2.8 -8.4 3.4 -8.3 3.95 -7.7 4.25 -7.2 4.65 -6.6 4.55 -6.0 4.4 -5.65 3.85 -5.3 3.35 -5.4 2.8 -5.55 2.2 -6.05 1.8 -6.6 1.4 -7.2 1.55 M-10.1 7.4 Q-10.65 7.5 -11.05 8.0 -11.45 8.6 -11.3 9.2 L-10.65 10.05 Q-10.1 10.5 -9.55 10.4 -8.95 10.3 -8.6 9.65 -8.2 9.2 -8.3 8.6 -8.45 8.0 -9.0 7.6 L-10.1 7.4 M-3.7 5.45 Q-3.6 6.05 -3.0 6.35 -2.45 6.8 -1.9 6.65 -1.3 6.55 -0.95 5.95 -0.6 5.5 -0.7 4.9 -0.8 4.35 -1.35 3.85 L-2.5 3.65 Q-3.05 3.8 -3.4 4.25 -3.8 4.9 -3.7 5.45 M-6.1 9.75 Q-6.5 10.35 -6.35 10.95 -6.25 11.55 -5.65 11.85 -5.2 12.25 -4.6 12.15 L-3.6 11.4 Q-3.25 10.95 -3.35 10.35 -3.5 9.75 -4.05 9.3 L-5.15 9.15 Q-5.75 9.25 -6.1 9.75" fill="#432f01" fill-rule="evenodd" stroke="none"/>
      <path d="M-7.85 1.7 Q-7.55 2.6 -6.45 3.55 L-4.7 4.55 -3.5 5.1 -3.15 5.2 -0.8 5.6 -0.6 4.45 -2.55 3.9 -3.5 3.5 -4.05 3.25 -6.6 1.65 Q-7.4 1.05 -7.55 1.25 L-7.85 1.7" fill="#64431c" fill-rule="evenodd" stroke="none"/>
      <path d="M-7.85 1.7 Q-7.55 2.6 -6.45 3.55 L-4.7 4.55 -3.5 5.1 -3.15 5.2 -0.8 5.6 -0.6 4.45 -2.55 3.9 -3.5 3.5 -4.05 3.25 -6.6 1.65 Q-7.4 1.05 -7.55 1.25 L-7.85 1.7 Z" fill="none" stroke="#382510" stroke-linecap="round" stroke-linejoin="round" stroke-opacity="0.3019608" stroke-width="0.05"/>
      <path d="M-10.8 7.35 Q-10.5 8.15 -9.4 9.1 L-7.75 10.1 -6.6 10.6 -6.3 10.7 -4.05 11.1 -3.8 9.95 -5.7 9.4 -6.65 9.05 -7.15 8.8 -9.55 7.3 Q-10.3 6.75 -10.45 6.9 L-10.8 7.35" fill="#64431c" fill-rule="evenodd" stroke="none"/>
      <path d="M-10.8 7.35 Q-10.5 8.15 -9.4 9.1 L-7.75 10.1 -6.6 10.6 -6.3 10.7 -4.05 11.1 -3.8 9.95 -5.7 9.4 -6.65 9.05 -7.15 8.8 -9.55 7.3 Q-10.3 6.75 -10.45 6.9 L-10.8 7.35 Z" fill="none" stroke="#382510" stroke-linecap="round" stroke-linejoin="round" stroke-opacity="0.3019608" stroke-width="0.05"/>
      <path d="M-6.0 0.55 L-6.6 0.55 Q-7.2 0.45 -7.7 0.9 -8.2 1.3 -8.3 1.95 L-8.05 2.85 -7.85 3.1 -6.8 3.7 Q-6.1 3.65 -5.65 3.25 -5.15 2.8 -5.1 2.15 -5.1 1.5 -5.5 1.05 L-6.0 0.55 M-11.1 8.15 L-10.85 9.1 -10.7 9.35 Q-10.25 9.8 -9.65 9.85 -8.95 9.9 -8.45 9.45 -8.0 9.0 -7.95 8.4 -7.9 7.7 -8.35 7.2 L-8.85 6.8 -9.4 6.7 Q-10.05 6.65 -10.55 7.05 -11.05 7.45 -11.1 8.15 M-3.9 8.55 L-4.45 8.5 Q-5.15 8.45 -5.65 8.85 -6.1 9.2 -6.2 9.9 L-5.9 10.85 -5.75 11.05 -4.65 11.65 Q-4.0 11.65 -3.55 11.2 -3.05 10.75 -3.05 10.1 -2.95 9.45 -3.4 9.0 L-3.9 8.55 M-1.5 3.05 Q-2.25 2.95 -2.75 3.4 -3.2 3.8 -3.25 4.45 L-3.05 5.4 -2.9 5.6 -1.8 6.25 Q-1.1 6.2 -0.6 5.8 -0.2 5.4 -0.1 4.7 -0.05 4.05 -0.5 3.55 L-1.0 3.1 -1.5 3.05" fill="#ddb65e" fill-rule="evenodd" stroke="none"/>
      <path d="M-6.0 0.55 L-6.6 0.55 Q-7.2 0.45 -7.7 0.9 -8.2 1.3 -8.3 1.95 L-8.05 2.85 -7.85 3.1 -6.8 3.7 Q-6.1 3.65 -5.65 3.25 -5.15 2.8 -5.1 2.15 -5.1 1.5 -5.5 1.05 L-6.0 0.55 M-11.1 8.15 L-10.85 9.1 -10.7 9.35 Q-10.25 9.8 -9.65 9.85 -8.95 9.9 -8.45 9.45 -8.0 9.0 -7.95 8.4 -7.9 7.7 -8.35 7.2 L-8.85 6.8 -9.4 6.7 Q-10.05 6.65 -10.55 7.05 -11.05 7.45 -11.1 8.15 M-3.9 8.55 L-4.45 8.5 Q-5.15 8.45 -5.65 8.85 -6.1 9.2 -6.2 9.9 L-5.9 10.85 -5.75 11.05 -4.65 11.65 Q-4.0 11.65 -3.55 11.2 -3.05 10.75 -3.05 10.1 -2.95 9.45 -3.4 9.0 L-3.9 8.55 M-1.5 3.05 Q-2.25 2.95 -2.75 3.4 -3.2 3.8 -3.25 4.45 L-3.05 5.4 -2.9 5.6 -1.8 6.25 Q-1.1 6.2 -0.6 5.8 -0.2 5.4 -0.1 4.7 -0.05 4.05 -0.5 3.55 L-1.0 3.1 -1.5 3.05" fill="none" stroke="#382510" stroke-linecap="round" stroke-linejoin="round" stroke-opacity="0.3019608" stroke-width="0.05"/>
      <path d="M-5.3 1.55 L-5.6 1.05 -6.15 0.95 Q-6.45 1.0 -6.6 1.25 L-6.7 1.8 -6.4 2.25 -5.85 2.35 -5.4 2.05 -5.3 1.55 M-9.5 7.95 L-9.2 8.35 -8.65 8.5 -8.2 8.15 -8.1 7.7 -8.4 7.2 -8.95 7.1 Q-9.25 7.15 -9.4 7.4 L-9.5 7.95 M-4.55 9.2 L-4.7 9.75 -4.4 10.15 Q-4.15 10.4 -3.9 10.35 L-3.45 10.0 -3.3 9.5 -3.6 9.05 -4.15 8.95 -4.55 9.2 M-1.65 3.6 L-1.8 4.15 -1.5 4.6 -1.0 4.75 -0.55 4.45 -0.4 3.9 -0.7 3.45 -1.25 3.35 -1.65 3.6" fill="#f2e4c1" fill-rule="evenodd" stroke="none"/>
    </g>
    <g id="sprite6" transform="matrix(1.0, 0.0, 0.0, 1.0, 0.0, 0.0)">
      <use height="24.8" transform="matrix(1.0, 0.0, 0.0, 1.0, 0.0, 0.0)" width="26.2" xlink:href="#shape3"/>
    </g>
    <g id="shape3" transform="matrix(1.0, 0.0, 0.0, 1.0, 0.0, 0.0)">
      <path d="M25.05 24.8 L25.0 24.8 25.05 24.8" fill="#ffd52b" fill-opacity="0.5019608" fill-rule="evenodd" stroke="none"/>
      <path d="M25.1 24.8 L25.05 24.8 25.1 24.8" fill="#ffd52b" fill-opacity="0.7019608" fill-rule="evenodd" stroke="none"/>
      <path d="M17.1 6.65 L11.7 8.2 9.55 6.45 7.25 4.5 11.8 3.35 12.25 3.6 Q14.65 4.9 17.1 6.65 M17.1 12.0 L23.05 11.35 Q25.3 13.45 25.9 15.55 L23.85 15.75 23.45 15.75 21.0 14.3 17.4 12.15 17.1 12.0" fill="#ffff2f" fill-opacity="0.3019608" fill-rule="evenodd" stroke="none"/>
      <path d="M17.1 6.65 L20.55 9.35 23.05 11.35 17.1 12.0 13.85 10.0 11.7 8.2 17.1 6.65 M25.0 24.8 L21.35 21.2 17.4 12.15 21.0 14.3 25.05 24.8 25.0 24.8 M9.55 9.5 L0.0 0.0 5.9 0.8 Q8.9 1.8 11.8 3.35 L7.25 4.5 9.55 6.45 9.55 9.5 M3.4 1.3 L7.25 4.5 3.4 1.3" fill="#ffff2f" fill-opacity="0.7019608" fill-rule="evenodd" stroke="none"/>
      <path d="M11.7 8.2 L13.85 10.0 17.1 12.0 17.4 12.15 21.35 21.2 14.75 14.6 11.05 10.95 9.55 9.5 9.55 6.45 11.7 8.2 M25.9 15.55 L26.05 16.1 26.15 17.2 26.2 20.85 26.15 21.3 Q26.1 23.4 25.1 24.8 L25.05 24.8 21.0 14.3 23.45 15.75 23.85 15.75 25.9 15.55" fill="#ffff2f" fill-opacity="0.5019608" fill-rule="evenodd" stroke="none"/>
      <path d="M23.05 11.35 L20.55 9.35 17.1 6.65 M23.05 11.35 Q25.3 13.45 25.9 15.55 L26.05 16.1 26.15 17.2 26.2 20.85 26.15 21.3 Q26.1 23.4 25.1 24.8 L25.05 24.8 25.0 24.8 21.35 21.2 14.75 14.6 11.05 10.95 9.55 9.5 0.0 0.0 5.9 0.8 Q8.9 1.8 11.8 3.35 L12.25 3.6 Q14.65 4.9 17.1 6.65" fill="none" stroke="#ffffff" stroke-linecap="round" stroke-linejoin="round" stroke-opacity="0.5019608" stroke-width="0.05"/>
      <path d="M11.7 8.2 L13.85 10.0 17.1 12.0 M21.0 14.3 L23.45 15.75 23.85 15.75 M17.4 12.15 L17.1 12.0 M9.55 6.45 L7.25 4.5 3.4 1.3 M11.7 8.2 L9.55 6.45 M21.0 14.3 L17.4 12.15 21.35 21.2" fill="none" stroke="#2d4806" stroke-linecap="round" stroke-linejoin="round" stroke-opacity="0.2" stroke-width="0.05"/>
    </g>
    <g id="shape4" transform="matrix(1.0, 0.0, 0.0, 1.0, 21.6, -6.55)">
      <path d="M-15.25 10.85 Q-15.3 10.4 -15.65 10.2 L-16.5 10.1 Q-16.9 10.15 -17.2 10.45 L-17.4 11.2 -17.0 11.8 -16.2 11.95 -15.45 11.55 Q-15.2 11.2 -15.25 10.85" fill="#e2e4d6" fill-opacity="0.5019608" fill-rule="evenodd" stroke="none"/>
      <path d="M-21.25 15.4 Q-21.7 15.95 -21.55 16.7 -21.45 17.4 -20.85 17.8 L-19.65 18.0 Q-18.9 17.9 -18.5 17.3 -18.1 16.7 -18.2 16.0 -18.35 15.25 -18.95 14.9 -19.45 14.55 -20.2 14.65 -20.9 14.8 -21.25 15.4" fill="#e2e4d6" fill-opacity="0.3019608" fill-rule="evenodd" stroke="none"/>
      <path d="M-11.45 7.0 L-11.75 6.6 -12.4 6.55 -12.95 6.8 -13.15 7.3 -12.8 7.75 -12.15 7.8 -11.6 7.55 -11.45 7.0" fill="#e2e4d6" fill-rule="evenodd" stroke="none"/>
      <path d="M-1.1 28.3 Q-1.55 28.85 -1.4 29.6 -1.3 30.3 -0.7 30.7 L0.5 30.9 Q1.25 30.8 1.65 30.2 2.05 29.6 1.95 28.9 1.8 28.15 1.2 27.8 L-0.05 27.55 Q-0.75 27.7 -1.1 28.3" fill="#e2e4d6" fill-opacity="0.3019608" fill-rule="evenodd" stroke="none"/>
      <path d="M2.9 21.55 L2.5 20.9 1.65 20.8 Q1.25 20.85 0.95 21.15 0.7 21.45 0.75 21.9 L1.15 22.5 1.95 22.65 2.7 22.25 2.9 21.55" fill="#e2e4d6" fill-opacity="0.5019608" fill-rule="evenodd" stroke="none"/>
      <path d="M2.2 14.0 L1.9 13.6 1.25 13.55 Q0.9 13.6 0.7 13.8 0.45 14.05 0.5 14.3 L0.85 14.75 1.5 14.8 2.05 14.55 2.2 14.0" fill="#e2e4d6" fill-rule="evenodd" stroke="none"/>
    </g>
  </defs>
</svg>
