<?xml version="1.0" encoding="UTF-8" standalone="no"?>
<svg xmlns:xlink="http://www.w3.org/1999/xlink" height="600.0px" width="600.0px" xmlns="http://www.w3.org/2000/svg">
  <g transform="matrix(10.0, 0.0, 0.0, 10.0, 0.0, 0.0)">
    <use height="60.0" transform="matrix(1.0, 0.0, 0.0, 1.0, 0.0, 0.0)" width="60.0" xlink:href="#sprite0"/>
  </g>
  <defs>
    <g id="sprite0" transform="matrix(1.0, 0.0, 0.0, 1.0, 0.0, 0.0)">
      <use height="60.0" transform="matrix(1.0, 0.0, 0.0, 1.0, 0.0, 0.0)" width="60.0" xlink:href="#sprite1"/>
      <use height="54.1" transform="matrix(1.0, 0.0, 0.0, 1.0, 3.05, 3.8)" width="53.75" xlink:href="#shape1"/>
      <clipPath id="clipPath0" transform="matrix(1.0, 0.0, 0.0, 1.0, 0.0, 0.0)">
        <use height="53.1" transform="matrix(1.0, 0.0, 0.0, 1.0, 3.55, 4.3)" width="52.75" xlink:href="#shape2"/>
      </clipPath>
      <g clip-path="url(#clipPath0)">
        <use height="37.7" transform="matrix(1.0, 0.0, 0.4521, 1.4131, 3.6, 2.05)" width="37.7" xlink:href="#sprite2"/>
      </g>
    </g>
    <g id="sprite1" transform="matrix(1.0, 0.0, 0.0, 1.0, 0.0, 0.0)">
      <use height="60.0" transform="matrix(1.0, 0.0, 0.0, 1.0, 0.0, 0.0)" width="60.0" xlink:href="#shape0"/>
    </g>
    <g id="shape0" transform="matrix(1.0, 0.0, 0.0, 1.0, 0.0, 0.0)">
      <path d="M60.0 0.0 L60.0 60.0 0.0 60.0 0.0 0.0 60.0 0.0" fill="#ffba2e" fill-opacity="0.0" fill-rule="evenodd" stroke="none"/>
    </g>
    <g id="shape1" transform="matrix(1.0, 0.0, 0.0, 1.0, -3.05, -3.8)">
      <path d="M40.4 29.05 L41.3 30.0 41.65 30.45 42.4 31.15 Q47.4 36.05 52.95 37.95 L53.5 38.1 56.3 38.2 56.15 38.35 54.1 39.45 53.75 39.65 50.9 39.45 50.85 39.45 47.95 38.85 Q44.25 37.75 41.45 35.55 L41.75 34.4 41.9 32.85 41.85 31.9 41.75 31.4 41.05 30.0 40.95 29.75 40.4 29.05 M48.5 43.4 L48.45 44.1 48.8 44.65 49.0 45.05 Q49.5 46.45 48.3 47.6 L47.8 48.2 46.1 49.2 45.95 49.25 44.15 48.3 42.6 47.25 Q39.65 45.0 36.4 41.55 L40.6 36.85 41.0 36.25 41.0 36.3 40.95 36.35 41.15 36.5 Q43.4 40.05 46.45 42.05 L46.6 42.15 46.6 42.25 46.9 42.4 48.1 43.1 48.55 43.3 48.5 43.4 M39.65 53.7 L39.35 54.05 38.55 54.95 35.7 54.2 35.5 54.2 35.3 54.1 Q34.35 53.8 33.55 53.35 30.4 51.85 28.2 49.3 L27.35 47.6 Q26.35 45.95 24.0 40.95 25.15 42.1 26.9 42.8 L27.85 43.05 28.3 43.1 28.4 43.1 32.15 43.3 31.9 41.05 Q34.35 46.6 36.95 50.25 L38.1 51.8 38.1 51.85 39.6 53.5 39.65 53.7" fill="#fffa45" fill-rule="evenodd" stroke="none"/>
      <path d="M40.4 29.05 L40.95 29.75 41.05 30.0 41.75 31.4 41.85 31.9 41.9 32.85 41.75 34.4 41.45 35.55 39.05 33.5 41.0 36.25 40.6 36.85 36.4 41.55 35.8 40.85 35.15 40.05 32.35 36.55 31.5 35.5 31.4 35.2 31.1 34.9 30.95 34.75 30.2 33.65 28.55 31.35 28.8 31.85 28.9 32.7 30.0 35.75 Q31.3 39.7 31.9 41.05 L32.15 43.3 28.4 43.1 28.3 43.1 27.85 43.05 26.9 42.8 Q25.15 42.1 24.0 40.95 L22.75 38.4 22.4 37.85 21.2 35.25 Q18.7 30.2 16.85 27.35 13.8 22.35 8.55 17.05 L8.7 17.15 8.4 16.9 Q4.95 13.8 5.2 11.95 L7.05 11.95 Q8.2 13.2 12.1 12.75 18.6 12.0 19.65 9.3 20.2 7.9 18.4 7.5 L18.4 6.4 Q20.4 6.3 21.7 7.05 L22.15 7.15 Q26.25 11.15 30.75 17.05 L30.9 17.3 37.15 25.2 37.45 25.6 38.9 27.15 39.0 27.25 39.25 27.7 39.4 27.8 39.3 27.65 40.4 29.05" fill="url(#gradient0)" fill-rule="evenodd" stroke="none"/>
      <path d="M41.45 35.55 Q44.25 37.75 47.95 38.85 L50.85 39.45 50.9 39.45 53.75 39.65 54.1 39.45 53.85 39.65 53.8 39.65 50.95 41.45 Q48.8 41.1 46.6 40.05 43.9 38.8 41.15 36.5 L40.95 36.35 41.0 36.3 41.0 36.25 39.05 33.5 41.45 35.55 M45.95 49.25 L43.55 50.7 41.25 52.0 38.85 49.1 Q36.25 45.9 34.2 42.75 L28.9 32.7 28.8 31.85 28.55 31.35 30.2 33.65 30.95 34.75 31.1 34.9 31.4 35.2 31.5 35.5 32.35 36.55 35.15 40.05 35.8 40.85 36.4 41.55 Q39.65 45.0 42.6 47.25 L44.15 48.3 45.95 49.25" fill="#edd031" fill-rule="evenodd" stroke="none"/>
      <path d="M50.95 41.45 L48.6 43.35 48.55 43.3 48.1 43.1 46.9 42.4 46.6 42.25 46.6 42.15 46.65 42.15 46.4 42.0 46.45 42.05 Q43.4 40.05 41.15 36.5 43.9 38.8 46.6 40.05 48.8 41.1 50.95 41.45 M41.25 52.0 Q40.2 52.85 39.65 53.7 L39.6 53.5 38.1 51.85 38.1 51.8 36.95 50.25 Q34.35 46.6 31.9 41.05 31.3 39.7 30.0 35.75 L28.9 32.7 34.2 42.75 Q36.25 45.9 38.85 49.1 L41.25 52.0 M38.55 54.95 L40.3 55.25 40.25 55.35 Q36.6 57.7 33.6 57.35 30.55 53.45 28.2 49.3 30.4 51.85 33.55 53.35 34.35 53.8 35.3 54.1 L35.5 54.2 35.7 54.2 38.55 54.95" fill="#ddac0c" fill-rule="evenodd" stroke="none"/>
      <path d="M46.6 42.15 L46.45 42.05 46.4 42.0 46.65 42.15 46.6 42.15" fill="#12100a" fill-rule="evenodd" stroke="none"/>
      <path d="M48.6 43.35 L48.5 43.4 48.55 43.3 48.6 43.35" fill="#4d0909" fill-rule="evenodd" stroke="none"/>
      <path d="M41.45 41.15 L41.2 41.45 Q41.0 41.4 40.55 40.95 L40.05 40.15 Q39.95 39.85 40.1 39.55 L40.25 39.3 40.9 39.85 41.4 40.55 41.45 41.15 M41.35 33.65 Q41.25 34.05 40.9 33.9 40.55 33.9 39.95 33.15 L39.15 31.95 39.1 31.0 Q39.15 30.5 39.5 30.5 L40.45 31.4 41.25 32.5 Q41.55 33.15 41.35 33.65 M23.0 18.95 Q22.1 18.85 21.2 17.85 20.25 16.75 19.75 15.45 19.25 14.05 19.6 13.55 19.7 12.9 20.1 12.65 L20.75 12.85 Q21.7 13.1 22.6 15.25 23.55 17.55 23.0 18.95 M19.45 24.65 L19.2 24.95 18.55 24.45 18.05 23.65 18.1 23.05 18.25 22.8 18.9 23.35 19.4 24.05 19.45 24.65 M28.6 20.15 Q28.35 19.7 28.5 19.25 28.45 18.85 28.7 18.95 L29.45 19.85 30.1 20.85 30.2 21.75 Q30.2 22.2 30.0 22.1 L29.25 21.2 28.6 20.15 M35.0 38.1 L34.1 37.55 Q33.4 36.85 33.2 36.2 32.9 35.55 33.05 35.15 L33.05 34.9 32.55 33.95 Q32.05 32.8 32.2 32.2 L32.55 31.75 33.05 31.7 Q33.95 32.0 34.85 33.85 35.75 35.7 35.4 36.8 L35.35 36.7 35.3 36.8 35.25 37.35 35.0 38.1 M29.8 45.15 Q29.55 44.7 29.7 44.25 29.65 43.85 30.2 44.1 L31.35 45.0 32.35 46.65 Q32.8 47.65 32.1 47.45 L31.2 47.1 30.45 46.2 29.8 45.15 M25.25 35.35 Q25.15 35.75 24.8 35.6 24.45 35.6 23.85 34.85 L23.05 33.65 23.0 32.7 Q23.05 32.2 23.4 32.2 L24.35 33.1 25.15 34.2 Q25.45 34.85 25.25 35.35 M29.45 30.8 Q29.25 30.3 29.35 29.95 29.4 29.65 29.65 29.7 L30.35 30.25 31.05 31.25 31.1 32.05 30.75 32.25 30.15 31.8 29.45 30.8" fill="#bdad36" fill-rule="evenodd" stroke="none"/>
      <path d="M20.75 12.85 L21.9 13.45 22.4 13.9 Q23.3 14.9 23.75 16.1 24.25 17.55 24.0 18.3 23.7 19.1 23.0 18.95 23.55 17.55 22.6 15.25 21.7 13.1 20.75 12.85 M33.05 31.7 Q33.75 31.85 34.55 32.65 35.4 33.55 35.85 34.65 36.35 35.75 36.2 36.35 36.05 37.1 35.45 36.95 L35.55 37.8 Q35.45 38.2 35.0 38.1 L35.25 37.35 35.3 36.8 35.35 36.7 35.4 36.8 Q35.75 35.7 34.85 33.85 33.95 32.0 33.05 31.7" fill="#775100" fill-rule="evenodd" stroke="none"/>
      <path d="M3.75 11.65 Q4.15 10.75 5.85 10.4 L7.35 11.3 7.9 12.2 Q6.85 14.05 4.7 13.0 4.0 12.75 3.75 11.65 M6.9 12.25 Q6.35 11.55 5.25 11.7 4.15 11.9 4.95 12.5 6.6 12.85 6.9 12.25" fill="#b80101" fill-rule="evenodd" stroke="none"/>
      <path d="M4.95 12.5 Q4.15 11.9 5.25 11.7 6.35 11.55 6.9 12.25 6.6 12.85 4.95 12.5" fill="#642100" fill-rule="evenodd" stroke="none"/>
      <path d="M7.9 12.2 L8.05 12.6 Q8.1 13.4 7.3 14.25 5.05 15.05 3.55 12.95 L3.65 11.85 3.75 11.65 Q4.0 12.75 4.7 13.0 6.85 14.05 7.9 12.2" fill="#780101" fill-rule="evenodd" stroke="none"/>
      <path d="M7.9 12.2 L8.05 12.6 Q8.1 13.4 7.3 14.25 5.05 15.05 3.55 12.95 L3.65 11.85 3.75 11.65 Q4.15 10.75 5.85 10.4 L7.35 11.3 7.9 12.2 M4.95 12.5 Q4.15 11.9 5.25 11.7 6.35 11.55 6.9 12.25" fill="none" stroke="#382510" stroke-linecap="round" stroke-linejoin="round" stroke-opacity="0.3019608" stroke-width="0.05"/>
      <path d="M7.75 16.05 L8.1 16.25 8.45 16.15 8.45 15.9 8.4 15.45 8.05 15.05 7.75 15.1 7.65 15.05 7.35 15.35 7.4 15.8 7.55 16.05 7.75 16.05 M9.35 14.65 Q7.7 13.6 7.7 12.85 L7.7 12.8 8.9 12.45 13.05 16.35 13.35 17.35 Q9.7 16.35 8.15 16.9 L6.6 15.2 6.6 15.15 5.95 13.4 5.95 13.3 6.0 13.15 6.8 13.35 Q7.8 13.7 9.35 14.65 L10.55 15.1 10.6 15.25 11.0 15.65 11.7 15.8 11.9 15.65 11.85 15.3 11.3 14.9 10.75 14.75 10.5 14.85 10.55 15.1 9.35 14.65 M10.6 16.25 L10.55 16.45 10.7 16.65 11.0 16.7 11.15 16.5 11.05 16.3 10.9 16.15 10.7 16.05 10.6 16.25" fill="#b80101" fill-rule="evenodd" stroke="none"/>
      <path d="M7.7 12.85 Q7.7 13.6 9.35 14.65 7.8 13.7 6.8 13.35 L7.7 12.85" fill="#910b04" fill-rule="evenodd" stroke="none"/>
      <path d="M7.75 16.05 L7.55 16.05 7.4 15.8 7.35 15.35 7.65 15.05 7.75 15.1 8.05 15.05 8.4 15.45 8.45 15.9 8.45 16.15 8.1 16.25 7.75 16.05 M6.6 15.2 L8.15 16.9 Q9.7 16.35 13.35 17.35 L13.05 16.35 14.45 18.05 13.3 17.85 8.4 17.45 7.95 17.45 7.0 16.05 6.6 15.2" fill="#780101" fill-rule="evenodd" stroke="none"/>
      <path d="M13.3 17.85 L14.6 19.1 10.1 18.5 8.4 17.45 13.3 17.85" fill="#000000" fill-opacity="0.3019608" fill-rule="evenodd" stroke="none"/>
      <path d="M10.55 15.1 L10.5 14.85 10.75 14.75 11.3 14.9 11.85 15.3 11.9 15.65 11.7 15.8 11.0 15.65 10.6 15.25 10.55 15.1 M10.6 16.25 L10.7 16.05 10.9 16.15 11.05 16.3 11.15 16.5 11.0 16.7 10.7 16.65 10.55 16.45 10.6 16.25" fill="#fc1b1b" fill-rule="evenodd" stroke="none"/>
      <path d="M9.35 14.65 L10.55 15.1 M13.05 16.35 L8.9 12.45 7.7 12.8 7.7 12.85 6.8 13.35 Q7.8 13.7 9.35 14.65 M6.8 13.35 L6.0 13.15 5.95 13.3 5.95 13.4 6.6 15.15 6.6 15.2 M13.05 16.35 L14.45 18.05 13.3 17.85 M8.4 17.45 L7.95 17.45 7.0 16.05 6.6 15.2 M8.4 17.45 L13.3 17.85" fill="none" stroke="#382510" stroke-linecap="round" stroke-linejoin="round" stroke-opacity="0.3019608" stroke-width="0.05"/>
      <path d="M17.05 5.8 Q16.5 5.3 15.45 5.45 14.4 5.7 15.15 6.15 16.7 6.45 17.05 5.8 M14.05 5.5 Q14.5 4.7 16.2 4.3 L17.55 5.0 17.95 5.75 Q16.9 7.4 14.8 6.6 14.25 6.45 14.05 5.5" fill="#b80101" fill-rule="evenodd" stroke="none"/>
      <path d="M15.15 6.15 Q14.4 5.7 15.45 5.45 16.5 5.3 17.05 5.8 16.7 6.45 15.15 6.15" fill="#642100" fill-rule="evenodd" stroke="none"/>
      <path d="M17.95 5.75 L18.15 6.1 Q18.1 6.75 17.3 7.55 15.05 8.4 13.7 6.7 L13.95 5.7 14.05 5.5 Q14.25 6.45 14.8 6.6 16.9 7.4 17.95 5.75" fill="#780101" fill-rule="evenodd" stroke="none"/>
      <path d="M15.15 6.15 Q14.4 5.7 15.45 5.45 16.5 5.3 17.05 5.8 M17.95 5.75 L18.15 6.1 Q18.1 6.75 17.3 7.55 15.05 8.4 13.7 6.7 L13.95 5.7 14.05 5.5 Q14.5 4.7 16.2 4.3 L17.55 5.0 17.95 5.75" fill="none" stroke="#382510" stroke-linecap="round" stroke-linejoin="round" stroke-opacity="0.3019608" stroke-width="0.05"/>
      <path d="M21.8 7.55 L21.75 7.35 22.05 7.3 22.55 7.5 23.05 7.9 23.1 8.2 22.85 8.3 22.2 8.05 21.85 7.7 21.8 7.55 M21.7 8.5 L21.85 8.4 22.05 8.45 22.15 8.65 22.25 8.8 22.05 8.95 21.75 8.9 21.65 8.65 21.7 8.5" fill="#fc1b1b" fill-rule="evenodd" stroke="none"/>
      <path d="M21.8 7.55 L21.85 7.7 22.2 8.05 22.85 8.3 23.1 8.2 23.05 7.9 22.55 7.5 22.05 7.3 21.75 7.35 21.8 7.55 Q21.0 7.3 20.65 7.05 L20.55 7.0 20.65 7.05 Q21.0 7.3 21.8 7.55 M18.3 5.6 L20.55 7.0 Q19.1 5.95 19.2 5.35 L19.2 5.3 20.45 5.15 24.15 8.95 24.3 9.8 Q20.8 8.5 19.2 8.75 L17.9 7.15 17.9 7.1 17.45 5.55 17.45 5.45 17.5 5.35 18.3 5.6 M21.7 8.5 L21.65 8.65 21.75 8.9 22.05 8.95 22.25 8.8 22.15 8.65 22.05 8.45 21.85 8.4 21.7 8.5 M18.9 8.0 L19.2 8.2 19.6 8.15 19.6 7.95 19.6 7.55 19.3 7.15 19.0 7.2 18.9 7.1 18.6 7.35 18.6 7.75 18.75 7.95 18.9 8.0" fill="#b80101" fill-rule="evenodd" stroke="none"/>
      <path d="M17.9 7.15 L19.2 8.75 Q20.8 8.5 24.3 9.8 L24.15 8.95 25.3 10.55 24.2 10.25 Q21.65 9.3 19.4 9.2 L18.95 9.15 18.2 7.9 17.9 7.15 M18.9 8.0 L18.75 7.95 18.6 7.75 18.6 7.35 18.9 7.1 19.0 7.2 19.3 7.15 19.6 7.55 19.6 7.95 19.6 8.15 19.2 8.2 18.9 8.0" fill="#780101" fill-rule="evenodd" stroke="none"/>
      <path d="M24.2 10.25 L25.35 11.4 Q21.5 10.05 19.8 10.35 L19.4 9.2 Q21.65 9.3 24.2 10.25" fill="#000000" fill-opacity="0.3019608" fill-rule="evenodd" stroke="none"/>
      <path d="M20.55 7.0 L18.3 5.6 19.2 5.35 Q19.1 5.95 20.55 7.0" fill="#910b04" fill-rule="evenodd" stroke="none"/>
      <path d="M21.8 7.55 Q21.0 7.3 20.65 7.05 L20.55 7.0 18.3 5.6 17.5 5.35 17.45 5.45 17.45 5.55 17.9 7.1 17.9 7.15 M24.15 8.95 L20.45 5.15 19.2 5.3 19.2 5.35 18.3 5.6 M24.2 10.25 L25.3 10.55 24.15 8.95 M19.4 9.2 L18.95 9.15 18.2 7.9 17.9 7.15 M19.4 9.2 Q21.65 9.3 24.2 10.25" fill="none" stroke="#382510" stroke-linecap="round" stroke-linejoin="round" stroke-opacity="0.3019608" stroke-width="0.05"/>
      <path d="M54.1 39.45 L56.15 38.35 56.3 38.2 53.5 38.1 52.95 37.95 Q47.4 36.05 42.4 31.15 L41.65 30.45 41.3 30.0 40.4 29.05 39.3 27.65 39.4 27.8 39.25 27.7 39.0 27.25 38.9 27.15 37.45 25.6 37.15 25.2 30.9 17.3 30.75 17.05 24.9 10.0 24.15 8.95 20.45 5.15 19.2 5.3 19.2 5.35 18.3 5.6 17.75 5.4 17.55 5.0 16.2 4.3 Q14.5 4.7 14.05 5.5 L13.95 5.7 13.7 6.7 Q15.05 8.4 17.3 7.55 L17.85 6.95 17.9 7.1 17.9 7.15 18.2 7.9 18.95 9.15 19.4 9.2 19.55 9.6 Q18.25 12.0 12.1 12.75 L9.35 12.85 8.9 12.45 8.25 12.65 8.05 12.6 7.9 12.2 7.35 11.3 5.85 10.4 Q4.15 10.75 3.75 11.65 L3.65 11.85 3.55 12.95 Q4.65 14.45 6.15 14.5 L6.55 15.0 6.6 15.15 6.6 15.2 7.0 16.05 7.95 17.45 8.4 17.45 9.8 18.35 Q14.2 22.95 16.85 27.35 18.7 30.2 21.2 35.25 L22.4 37.85 22.75 38.4 24.0 40.95 Q26.35 45.95 27.35 47.6 L28.2 49.3 Q30.55 53.45 33.6 57.35 36.6 57.7 40.25 55.35 L40.3 55.25 38.55 54.95 39.35 54.05 39.65 53.7 Q40.2 52.85 41.25 52.0 L43.55 50.7 45.95 49.25 46.1 49.2 47.8 48.2 48.3 47.6 Q49.5 46.45 49.0 45.05 L48.8 44.65 48.45 44.1 48.5 43.4 48.6 43.35 53.8 39.65 53.85 39.65 54.1 39.45 Z" fill="none" stroke="#000000" stroke-linecap="round" stroke-linejoin="round" stroke-opacity="0.29803923" stroke-width="1.0"/>
    </g>
    <linearGradient gradientTransform="matrix(-0.0111, -0.0102, -0.0108, 0.0096, 24.5, 26.9)" gradientUnits="userSpaceOnUse" id="gradient0" spreadMethod="pad" x1="-819.2" x2="819.2">
      <stop offset="0.0" stop-color="#fffa45"/>
      <stop offset="0.9176470588235294" stop-color="#fefd89"/>
    </linearGradient>
    <g id="shape2" transform="matrix(1.0, 0.0, 0.0, 1.0, -3.55, -4.3)">
      <path d="M54.1 39.45 L53.85 39.65 53.8 39.65 48.6 43.35 48.5 43.4 48.45 44.1 48.8 44.65 49.0 45.05 Q49.5 46.45 48.3 47.6 L47.8 48.2 46.1 49.2 45.95 49.25 43.55 50.7 41.25 52.0 Q40.2 52.85 39.65 53.7 L39.35 54.05 38.55 54.95 40.3 55.25 40.25 55.35 Q36.6 57.7 33.6 57.35 30.55 53.45 28.2 49.3 L27.35 47.6 Q26.35 45.95 24.0 40.95 L22.75 38.4 22.4 37.85 21.2 35.25 Q18.7 30.2 16.85 27.35 14.2 22.95 9.8 18.35 L8.4 17.45 7.95 17.45 7.0 16.05 6.6 15.2 6.6 15.15 6.55 15.0 6.15 14.5 Q4.65 14.45 3.55 12.95 L3.65 11.85 3.75 11.65 Q4.15 10.75 5.85 10.4 L7.35 11.3 7.9 12.2 8.05 12.6 8.25 12.65 8.9 12.45 9.35 12.85 12.1 12.75 Q18.25 12.0 19.55 9.6 L19.4 9.2 18.95 9.15 18.2 7.9 17.9 7.15 17.9 7.1 17.85 6.95 17.3 7.55 Q15.05 8.4 13.7 6.7 L13.95 5.7 14.05 5.5 Q14.5 4.7 16.2 4.3 L17.55 5.0 17.75 5.4 18.3 5.6 19.2 5.35 19.2 5.3 20.45 5.15 24.15 8.95 24.9 10.0 30.75 17.05 30.9 17.3 37.15 25.2 37.45 25.6 38.9 27.15 39.0 27.25 39.25 27.7 39.4 27.8 39.3 27.65 40.4 29.05 41.3 30.0 41.65 30.45 42.4 31.15 Q47.4 36.05 52.95 37.95 L53.5 38.1 56.3 38.2 56.15 38.35 54.1 39.45" fill="#ff0000" fill-rule="evenodd" stroke="none"/>
    </g>
    <g id="sprite2" transform="matrix(1.0, 0.0, 0.0, 1.0, 0.0, 0.0)">
      <use height="37.7" transform="matrix(1.0, 0.0, 0.0, 1.0, 0.0, 0.0)" width="37.7" xlink:href="#shape3"/>
    </g>
    <g id="shape3" transform="matrix(1.0, 0.0, 0.0, 1.0, 0.0, 0.0)">
      <path d="M37.7 18.85 Q37.7 26.65 32.15 32.15 26.65 37.7 18.85 37.7 11.05 37.7 5.5 32.15 0.0 26.65 0.0 18.85 0.0 11.05 5.5 5.5 11.05 0.0 18.85 0.0 26.65 0.0 32.15 5.5 37.7 11.05 37.7 18.85" fill="url(#gradient1)" fill-rule="evenodd" stroke="none"/>
    </g>
    <radialGradient cx="0" cy="0" gradientTransform="matrix(0.0244, 0.0, 0.0, 0.0244, 18.85, 18.85)" gradientUnits="userSpaceOnUse" id="gradient1" r="819.2" spreadMethod="pad">
      <stop offset="0.0" stop-color="#ffffcc"/>
      <stop offset="1.0" stop-color="#ffffcc" stop-opacity="0.0"/>
    </radialGradient>
  </defs>
</svg>
