<?xml version="1.0" encoding="UTF-8" standalone="no"?>
<svg xmlns:xlink="http://www.w3.org/1999/xlink" height="440.0px" width="440.0px" xmlns="http://www.w3.org/2000/svg">
  <g transform="matrix(10.0, 0.0, 0.0, 10.0, 0.0, 0.0)">
    <use height="44.0" transform="matrix(0.9091, 0.0, 0.0, 0.9091, 2.0, 2.0)" width="44.0" xlink:href="#sprite0"/>
  </g>
  <defs>
    <g id="sprite0" transform="matrix(1.0, 0.0, 0.0, 1.0, 0.0, 0.0)">
      <use height="44.0" transform="matrix(1.0, 0.0, 0.0, 1.0, 0.0, 0.0)" width="44.0" xlink:href="#shape0"/>
      <use height="40.3" transform="matrix(0.9429, 0.0, 0.0, 0.9429, 12.2, 3.0)" width="20.8" xlink:href="#sprite1"/>
    </g>
    <g id="shape0" transform="matrix(1.0, 0.0, 0.0, 1.0, 0.0, 0.0)">
      <path d="M44.0 44.0 L0.0 44.0 0.0 0.0 44.0 0.0 44.0 44.0" fill="#43adca" fill-opacity="0.0" fill-rule="evenodd" stroke="none"/>
    </g>
    <g id="sprite1" transform="matrix(1.0, 0.0, 0.0, 1.0, 0.0, 0.0)">
      <use height="21.4" transform="matrix(1.0, 0.0, 0.0, 1.0, 3.5, 18.9)" width="17.3" xlink:href="#sprite2"/>
      <use height="31.0" transform="matrix(1.0, 0.0, 0.0, 1.0, 0.0, 0.0)" width="15.4" xlink:href="#sprite3"/>
    </g>
    <g id="sprite2" transform="matrix(1.0, 0.0, 0.0, 1.0, 5.85, 1.75)">
      <use height="21.4" transform="matrix(1.0, 0.0, 0.0, 1.0, -5.85, -1.75)" width="17.3" xlink:href="#shape1"/>
    </g>
    <g id="shape1" transform="matrix(1.0, 0.0, 0.0, 1.0, 5.85, 1.75)">
      <path d="M4.1 6.5 L4.1 6.55 4.1 6.5" fill="#3f71d0" fill-rule="evenodd" stroke="none"/>
      <path d="M9.7 14.35 L9.65 14.35 9.65 14.3 9.7 14.35 M4.1 6.5 L4.1 6.3 4.15 6.45 4.15 6.5 4.15 6.55 4.1 6.55 4.1 6.5" fill="#4a5f18" fill-rule="evenodd" stroke="none"/>
      <path d="M11.35 14.3 L11.45 14.35 11.35 14.35 11.35 14.3 M8.95 14.4 L8.8 14.4 8.95 14.35 8.95 14.4" fill="#555ba0" fill-rule="evenodd" stroke="none"/>
      <path d="M7.2 14.75 L6.25 14.95 6.15 14.95 7.2 14.75" fill="#856e35" fill-rule="evenodd" stroke="none"/>
      <path d="M2.6 16.6 L2.6 16.55 2.65 16.55 2.6 16.6" fill="#596a61" fill-rule="evenodd" stroke="none"/>
      <path d="M-1.1 18.35 L-1.15 18.35 -1.15 18.3 -1.1 18.35" fill="#384913" fill-rule="evenodd" stroke="none"/>
      <path d="M-5.75 2.5 L-5.55 1.75 -5.3 1.25 -5.1 0.95 -4.8 0.55 -4.4 0.1 -4.2 -0.1 -4.15 -0.1 -4.15 -0.15 -4.05 -0.2 -3.65 -0.55 -2.45 -1.25 -1.8 -1.5 -1.75 -1.55 -1.65 -1.55 -1.1 -1.65 -0.75 -1.7 -0.1 -1.75 0.05 -1.75 0.45 -1.7 Q0.85 3.0 1.5 7.2 L1.75 8.7 1.8 8.7 Q2.5 11.75 3.55 13.0 L4.5 13.5 5.45 13.65 5.95 14.65 6.15 14.95 6.1 15.0 5.9 15.4 5.9 15.85 5.9 16.1 5.85 16.45 5.75 16.75 4.9 17.5 4.4 17.65 4.2 17.7 4.05 17.7 3.35 17.75 3.25 17.75 2.6 16.6 2.65 16.55 2.6 16.55 2.55 16.5 Q1.25 13.75 0.3 9.45 L0.15 8.75 0.05 8.05 -0.45 5.1 -0.6 3.95 -0.65 3.65 -0.75 2.8 -0.75 2.55 -0.95 0.95 -0.95 0.9 -0.95 0.7 -1.0 0.9 -1.0 0.95 -1.05 1.1 -1.35 2.55 -1.35 2.8 -1.4 2.9 -1.5 3.65 -1.55 4.15 -1.9 7.75 -1.95 8.35 -1.95 9.2 Q-2.05 13.15 -1.45 16.75 L-1.45 16.8 -1.15 18.3 -1.15 18.35 -1.4 18.5 -1.65 18.7 -2.05 18.85 -2.45 18.45 -3.3 17.5 -3.4 17.35 -3.5 17.25 -4.15 16.25 Q-5.35 14.3 -5.8 12.05 L-5.8 10.75 -5.85 5.0 -5.85 4.0 -5.85 3.85 -5.85 3.65 -5.8 2.8 -5.8 2.65 -5.8 2.55 -5.75 2.5 M8.8 11.65 L9.8 13.05 10.05 13.35 11.35 14.3 11.35 14.35 9.7 14.35 9.65 14.3 8.35 13.35 8.3 13.3 8.25 13.25 7.9 12.95 7.7 12.7 7.85 12.55 8.8 11.65 M4.15 6.55 L4.15 6.5 4.15 6.45 Q4.5 6.0 4.9 5.9 5.7 5.75 6.2 6.5 6.85 7.35 7.0 8.6 7.15 9.9 6.7 10.85 L6.5 11.35 5.75 10.3 4.7 8.15 4.4 7.4 4.35 7.2 4.15 6.55 M4.1 6.55 L4.1 7.1 4.1 7.4 4.1 7.75 4.1 8.1 Q4.25 10.15 4.8 11.95 L4.25 11.45 Q3.65 10.7 3.5 9.4 3.35 8.15 3.75 7.1 L4.1 6.55" fill="#232432" fill-rule="evenodd" stroke="none"/>
      <path d="M0.45 -1.7 L0.7 -1.7 0.8 -1.7 0.85 -1.7 1.1 -1.6 1.1 -1.55 1.15 -1.6 1.3 -1.6 1.8 -1.45 1.95 -1.4 2.45 -1.2 2.7 -1.05 3.0 -0.85 3.05 -0.55 3.4 0.85 3.2 0.95 3.4 0.95 3.6 1.65 3.4 2.3 3.3 2.55 3.25 2.7 3.2 2.8 3.9 2.8 3.85 2.55 3.65 1.4 3.65 1.25 3.6 0.95 3.55 0.75 3.25 -0.55 3.25 -0.7 3.45 -0.55 3.95 -0.15 3.95 -0.05 4.05 -0.1 4.3 0.15 4.7 0.65 4.9 0.95 5.5 2.3 5.55 2.55 5.6 2.8 5.7 3.3 5.7 3.35 5.8 3.65 6.0 4.5 Q7.0 8.75 8.8 11.65 L7.85 12.55 7.7 12.7 7.3 12.3 6.5 11.35 6.7 10.85 Q7.15 9.9 7.0 8.6 6.85 7.35 6.2 6.5 5.7 5.75 4.9 5.9 4.5 6.0 4.15 6.45 L4.1 6.3 4.1 6.5 4.1 6.55 3.75 7.1 Q3.35 8.15 3.5 9.4 3.65 10.7 4.25 11.45 L4.8 11.95 5.45 13.6 5.45 13.65 4.5 13.5 3.55 13.0 Q2.5 11.75 1.8 8.7 L1.75 8.7 1.5 7.2 Q0.85 3.0 0.45 -1.7 M1.6 2.7 L1.55 2.8 1.6 2.8 1.6 2.7 M1.1 -1.55 L1.05 -1.5 1.05 -1.4 1.1 -1.5 1.1 -1.55" fill="#f1eadd" fill-rule="evenodd" stroke="none"/>
      <path d="M6.5 11.35 L7.3 12.3 7.7 12.7 6.75 13.35 6.3 12.8 6.2 12.6 5.85 12.0 6.45 11.4 6.5 11.35" fill="#e7d8c2" fill-rule="evenodd" stroke="none"/>
      <path d="M5.45 13.65 L5.45 13.6 4.8 11.95 5.3 12.1 5.6 12.05 5.85 12.0 6.2 12.6 6.3 12.8 6.75 13.35 6.5 13.45 6.2 13.55 5.45 13.65" fill="#dac5a5" fill-rule="evenodd" stroke="none"/>
      <path d="M9.65 14.35 L8.95 14.4 8.95 14.35 8.8 14.4 7.85 14.6 6.75 13.35 7.7 12.7 7.9 12.95 8.25 13.25 8.3 13.3 8.35 13.35 9.65 14.3 9.65 14.35 M3.25 17.75 L1.65 17.8 0.1 17.9 Q-1.65 8.8 -1.05 1.1 L-1.0 0.95 -0.95 0.95 -0.75 2.55 -0.75 2.8 -0.65 3.65 -0.6 3.95 -0.45 5.1 0.05 8.05 0.15 8.75 0.3 9.45 Q1.25 13.75 2.55 16.5 L2.6 16.55 2.6 16.6 3.25 17.75 M4.1 6.55 L4.15 6.55 4.35 7.2 4.4 7.4 4.7 8.15 5.75 10.3 6.5 11.35 6.45 11.4 5.85 12.0 Q4.85 10.35 4.1 8.1 L4.1 7.75 4.1 7.4 4.1 7.1 4.1 6.55" fill="#1d1e27" fill-rule="evenodd" stroke="none"/>
      <path d="M7.85 14.6 L7.2 14.75 6.15 14.95 5.95 14.65 5.45 13.65 6.2 13.55 6.5 13.45 6.75 13.35 7.85 14.6 M0.1 17.9 Q-0.65 18.05 -1.1 18.35 L-1.15 18.3 -1.45 16.8 -1.45 16.75 Q-2.05 13.15 -1.95 9.2 L-1.95 8.35 -1.9 7.75 -1.55 4.15 -1.5 3.65 -1.4 2.9 -1.35 2.8 -1.35 2.55 -1.05 1.1 Q-1.65 8.8 0.1 17.9 M4.1 8.1 Q4.85 10.35 5.85 12.0 L5.6 12.05 5.3 12.1 4.8 11.95 Q4.25 10.15 4.1 8.1" fill="#15161e" fill-rule="evenodd" stroke="none"/>
      <path d="M-2.05 18.85 L-1.3 19.5 -1.25 19.55 -1.3 19.6 Q-3.75 19.85 -5.2 18.7 -5.7 15.3 -5.8 12.05 -5.35 14.3 -4.15 16.25 L-3.5 17.25 -3.4 17.35 -3.3 17.5 -2.45 18.45 -2.05 18.85" fill="#938352" fill-rule="evenodd" stroke="none"/>
      <path d="M5.7 3.3 L5.7 3.35 5.8 3.65 6.0 4.5 Q7.0 8.75 8.8 11.65 L9.8 13.05 10.05 13.35 11.35 14.3 M11.35 14.35 L9.7 14.35 9.65 14.35 8.95 14.4 8.8 14.4 7.85 14.6 7.2 14.75 6.25 14.95 6.15 14.95 M6.1 15.0 L5.9 15.4 5.9 15.85 5.9 16.1 5.85 16.45 5.75 16.75 4.9 17.5 4.4 17.65 4.2 17.7 M4.05 17.7 L3.35 17.75 3.25 17.75 1.65 17.8 0.1 17.9 Q-0.65 18.05 -1.1 18.35 L-1.15 18.35 -1.4 18.5 -1.65 18.7 -2.05 18.85 -1.3 19.5 -1.25 19.55 -1.3 19.6 Q-3.75 19.85 -5.2 18.7 -5.7 15.3 -5.8 12.05 L-5.8 10.75 -5.85 5.0 -5.85 4.0 -5.85 3.85 -5.85 3.65 -5.8 2.8 -5.8 2.65 -5.8 2.55 -5.75 2.5" fill="none" stroke="#000000" stroke-linecap="round" stroke-linejoin="round" stroke-opacity="0.3019608" stroke-width="0.05"/>
    </g>
    <g id="sprite3" transform="matrix(1.0, 0.0, 0.0, 1.0, 3.05, 2.05)">
      <use height="31.0" transform="matrix(1.0, 0.0, 0.0, 1.0, -3.05, -2.05)" width="15.4" xlink:href="#shape2"/>
    </g>
    <g id="shape2" transform="matrix(1.0, 0.0, 0.0, 1.0, 3.05, 2.05)">
      <path d="M2.45 -1.6 L2.5 -1.6 3.0 -0.75 2.5 -1.5 2.45 -1.6" fill="#c84524" fill-rule="evenodd" stroke="none"/>
      <path d="M3.9 2.75 L3.85 2.65 3.9 2.55 3.9 2.75" fill="#a64014" fill-rule="evenodd" stroke="none"/>
      <path d="M12.3 22.85 L12.35 22.85 12.3 22.85" fill="#d9d2c4" fill-rule="evenodd" stroke="none"/>
      <path d="M4.7 26.15 L4.8 25.2 4.75 26.1 4.7 26.15" fill="#ac9d7d" fill-rule="evenodd" stroke="none"/>
      <path d="M2.45 -1.6 L2.2 -2.05 5.1 -0.05 5.25 0.1 5.65 0.35 8.75 3.05 Q9.8 6.8 10.5 11.85 L10.55 12.1 11.6 18.85 11.65 19.15 11.9 20.45 11.9 20.6 12.05 21.5 12.1 21.75 12.25 22.5 12.35 22.85 12.3 22.85 12.3 23.05 12.15 24.4 11.9 25.05 11.85 25.1 11.6 25.4 11.1 25.65 Q10.75 25.65 10.6 25.95 L10.4 26.45 9.8 27.05 9.1 27.5 8.3 27.95 8.15 27.2 Q7.25 21.2 6.8 14.1 L6.4 11.15 Q6.1 9.25 4.75 6.55 L4.15 5.65 Q2.55 3.95 -0.8 4.55 L-1.05 3.55 Q-4.2 -1.1 -2.4 0.3 L-0.15 2.35 2.4 3.15 2.8 3.25 3.3 2.8 3.85 2.65 3.9 2.75 4.1 2.55 4.65 1.65 Q4.7 0.9 4.0 -0.05 L3.85 -0.25 2.5 -1.6 2.45 -1.6 M2.4 7.2 Q3.1 7.0 3.7 7.75 4.35 8.6 4.5 9.85 4.65 11.15 4.15 12.15 3.75 13.15 3.05 13.35 2.3 13.5 1.7 12.7 1.15 11.95 1.0 10.65 0.85 9.4 1.25 8.3 1.65 7.35 2.4 7.2" fill="#f1eadd" fill-rule="evenodd" stroke="none"/>
      <path d="M2.5 -1.6 L3.85 -0.25 4.0 -0.05 Q4.7 0.9 4.65 1.65 L4.1 2.55 3.9 2.75 3.9 2.55 Q4.1 1.3 3.2 -0.35 L3.05 -0.65 3.0 -0.75 2.5 -1.6 M-0.8 4.55 Q2.55 3.95 4.15 5.65 L4.75 6.55 Q6.1 9.25 6.4 11.15 L6.8 14.1 Q7.25 21.2 8.15 27.2 L8.3 27.95 8.05 28.15 7.6 28.35 6.85 28.65 6.7 27.95 6.6 27.25 6.1 24.3 6.05 24.25 5.95 23.15 5.9 22.85 5.8 21.75 5.6 19.9 5.4 20.8 5.2 21.75 5.15 22.1 5.05 22.85 5.0 23.35 4.8 25.2 4.7 26.15 4.65 26.95 4.6 27.55 4.6 28.4 4.2 28.25 2.75 27.35 2.35 27.0 2.3 26.95 2.05 26.75 1.65 26.25 Q0.95 25.3 0.7 24.2 L0.7 22.85 0.75 21.85 0.75 21.75 0.75 21.45 0.7 13.65 Q0.45 9.55 -0.8 4.55 M2.4 7.2 Q1.65 7.35 1.25 8.3 0.85 9.4 1.0 10.65 1.15 11.95 1.7 12.7 2.3 13.5 3.05 13.35 3.75 13.15 4.15 12.15 4.65 11.15 4.5 9.85 4.35 8.6 3.7 7.75 3.1 7.0 2.4 7.2" fill="#232432" fill-rule="evenodd" stroke="none"/>
      <path d="M5.4 20.8 L5.6 19.9 5.8 21.75 5.9 22.85 5.95 23.15 6.05 24.25 6.1 24.3 6.6 27.25 6.7 27.95 6.85 28.65 6.45 28.65 6.3 28.65 5.6 28.6 5.4 20.8" fill="#1d1e27" fill-rule="evenodd" stroke="none"/>
      <path d="M4.6 28.4 L4.6 27.55 4.65 26.95 4.7 26.15 4.75 26.1 4.8 25.2 5.0 23.35 5.05 22.85 5.15 22.1 5.2 21.75 5.4 20.8 5.6 28.6 4.6 28.4" fill="#15161e" fill-rule="evenodd" stroke="none"/>
      <path d="M12.35 22.85 L12.25 22.5 12.1 21.75 12.05 21.5 11.9 20.6 11.9 20.45 11.65 19.15 11.6 18.85 10.55 12.1 10.5 11.85 Q9.8 6.8 8.75 3.05 L5.65 0.35 5.25 0.1 5.1 -0.05 2.2 -2.05 2.45 -1.6 2.5 -1.5 M3.85 2.65 L3.3 2.8 2.8 3.25 2.4 3.15 -0.15 2.35 -2.4 0.3 Q-4.2 -1.1 -1.05 3.55 L-0.8 4.55 Q0.45 9.55 0.7 13.65 L0.75 21.45 0.75 21.75 0.75 21.85 0.7 22.85 M3.0 -0.75 L2.5 -1.6 M3.9 2.55 Q4.1 1.3 3.2 -0.35 L3.05 -0.65 3.0 -0.75 M3.9 2.75 L3.9 2.55 3.85 2.65" fill="none" stroke="#000000" stroke-linecap="round" stroke-linejoin="round" stroke-opacity="0.3019608" stroke-width="0.05"/>
      <path d="M-0.15 4.3 Q3.55 11.0 3.2 27.7 L3.2 28.15 3.15 28.4" fill="none" stroke="url(#gradient0)" stroke-linecap="round" stroke-linejoin="round" stroke-width="0.25"/>
      <path d="M3.15 28.4 L3.15 28.85" fill="none" stroke="url(#gradient1)" stroke-linecap="round" stroke-linejoin="round" stroke-width="0.25"/>
      <path d="M8.65 6.75 Q9.15 8.55 9.0 10.25" fill="none" stroke="url(#gradient2)" stroke-linecap="round" stroke-linejoin="round" stroke-width="0.25"/>
      <path d="M1.3 5.5 L6.45 15.3 6.9 15.95" fill="none" stroke="url(#gradient3)" stroke-linecap="round" stroke-linejoin="round" stroke-width="0.25"/>
      <path d="M8.85 9.0 L8.95 8.55 9.0 18.35 Q7.9 26.05 7.35 23.75 6.85 21.5 5.25 17.2 L1.65 7.45 6.8 16.75 Q7.65 18.05 8.15 16.25 8.75 13.1 8.85 9.0 M0.8 4.3 Q6.15 7.65 6.45 4.55 L6.45 2.6 Q8.15 4.25 8.3 10.55 L8.3 10.7 Q7.8 15.3 6.65 15.05 L6.55 15.05 6.5 14.95 6.35 14.75 6.05 14.3 0.9 4.5 0.8 4.3" fill="#162b3f" fill-opacity="0.3137255" fill-rule="evenodd" stroke="none"/>
    </g>
    <linearGradient gradientTransform="matrix(0.0055, 0.0124, -0.0143, 0.0063, 1.55, 17.05)" gradientUnits="userSpaceOnUse" id="gradient0" spreadMethod="pad" x1="-819.2" x2="819.2">
      <stop offset="0.0" stop-color="#000000" stop-opacity="0.0"/>
      <stop offset="0.23921568627450981" stop-color="#000000" stop-opacity="0.39215687"/>
      <stop offset="0.788235294117647" stop-color="#000000" stop-opacity="0.37254903"/>
      <stop offset="0.9019607843137255" stop-color="#000000" stop-opacity="0.0"/>
    </linearGradient>
    <linearGradient gradientTransform="matrix(0.0055, 0.0124, -0.0143, 0.0063, 1.5, 16.1)" gradientUnits="userSpaceOnUse" id="gradient1" spreadMethod="pad" x1="-819.2" x2="819.2">
      <stop offset="0.0" stop-color="#000000" stop-opacity="0.0"/>
      <stop offset="0.23921568627450981" stop-color="#000000" stop-opacity="0.39215687"/>
      <stop offset="0.788235294117647" stop-color="#000000" stop-opacity="0.37254903"/>
      <stop offset="0.9019607843137255" stop-color="#000000" stop-opacity="0.0"/>
    </linearGradient>
    <linearGradient gradientTransform="matrix(0.0014, -0.0087, 0.0098, 0.0016, 8.5, 10.3)" gradientUnits="userSpaceOnUse" id="gradient2" spreadMethod="pad" x1="-819.2" x2="819.2">
      <stop offset="0.0" stop-color="#000000" stop-opacity="0.0"/>
      <stop offset="0.23921568627450981" stop-color="#000000" stop-opacity="0.39215687"/>
      <stop offset="0.788235294117647" stop-color="#000000" stop-opacity="0.37254903"/>
      <stop offset="0.9019607843137255" stop-color="#000000" stop-opacity="0.0"/>
    </linearGradient>
    <linearGradient gradientTransform="matrix(0.0034, 0.0, 0.0, 0.0065, 3.95, 10.65)" gradientUnits="userSpaceOnUse" id="gradient3" spreadMethod="pad" x1="-819.2" x2="819.2">
      <stop offset="0.0" stop-color="#000000" stop-opacity="0.0"/>
      <stop offset="0.23921568627450981" stop-color="#000000" stop-opacity="0.39215687"/>
      <stop offset="0.788235294117647" stop-color="#000000" stop-opacity="0.37254903"/>
      <stop offset="0.9019607843137255" stop-color="#000000" stop-opacity="0.0"/>
    </linearGradient>
  </defs>
</svg>
