<?xml version="1.0" encoding="UTF-8" standalone="no"?>
<svg xmlns:xlink="http://www.w3.org/1999/xlink" height="440.0px" width="440.0px" xmlns="http://www.w3.org/2000/svg">
  <g transform="matrix(10.0, 0.0, 0.0, 10.0, 0.0, 0.0)">
    <use height="44.0" transform="matrix(1.0, 0.0, 0.0, 1.0, 0.0, 0.0)" width="44.0" xlink:href="#shape0"/>
  </g>
  <defs>
    <g id="shape0" transform="matrix(1.0, 0.0, 0.0, 1.0, 0.0, 0.0)">
      <path d="M44.0 44.0 L0.0 44.0 0.0 0.0 44.0 0.0 44.0 44.0" fill="#43adca" fill-opacity="0.0" fill-rule="evenodd" stroke="none"/>
      <path d="M19.6 23.8 Q21.0 21.35 23.8 20.7 L25.4 20.55 Q27.6 20.45 29.05 22.25 L30.55 24.2 Q33.75 28.3 37.2 30.05 L39.05 30.5 37.5 31.3 Q32.85 29.55 31.75 28.8 L29.4 26.0 30.1 27.75 31.45 29.95 33.25 31.95 34.75 33.2 35.05 34.85 Q35.1 35.5 34.65 35.95 L33.3 36.8 31.65 35.55 Q29.6 33.7 27.35 30.65 L22.55 23.15 22.8 23.75 25.25 31.35 26.75 34.65 29.65 39.1 29.05 39.9 27.45 39.2 26.1 38.45 Q24.25 37.2 22.95 35.35 L21.9 33.15 19.15 26.95 Q19.1 26.75 19.6 23.8" fill="#f5f0d7" fill-rule="evenodd" stroke="none"/>
      <path d="M37.5 31.3 L36.1 32.2 33.55 31.15 Q32.4 30.55 30.1 27.75 L29.4 26.0 31.75 28.8 Q32.85 29.55 37.5 31.3 M30.55 38.2 L29.65 39.1 26.75 34.65 25.25 31.35 22.8 23.75 26.2 30.6 Q29.15 36.2 30.55 38.2" fill="#cfcab5" fill-rule="evenodd" stroke="none"/>
      <path d="M36.1 32.2 L34.75 33.2 33.25 31.95 31.45 29.95 30.1 27.75 Q32.4 30.55 33.55 31.15 L36.1 32.2 M33.3 36.8 L30.55 38.2 Q29.15 36.2 26.2 30.6 L22.8 23.75 22.55 23.15 27.35 30.65 Q29.6 33.7 31.65 35.55 L33.3 36.8" fill="#a39d80" fill-rule="evenodd" stroke="none"/>
      <path d="M29.05 39.9 L30.3 40.2 Q27.35 41.35 26.2 41.05 24.35 38.25 22.95 35.35 24.25 37.2 26.1 38.45 L27.45 39.2 29.05 39.9" fill="#fffef5" fill-rule="evenodd" stroke="none"/>
      <path d="M29.05 22.25 L30.55 24.2 Q33.75 28.3 37.2 30.05 L39.05 30.5 37.5 31.3 36.1 32.2 34.75 33.2 35.05 34.85 Q35.1 35.5 34.65 35.95 L33.3 36.8 30.55 38.2 29.65 39.1 29.05 39.9 30.3 40.2 Q27.35 41.35 26.2 41.05 24.35 38.25 22.95 35.35 L21.9 33.15 19.15 26.95 Q19.1 26.75 19.6 23.8 M22.95 35.35 Q24.25 37.2 26.1 38.45 L27.45 39.2 29.05 39.9" fill="none" stroke="#000000" stroke-linecap="round" stroke-linejoin="round" stroke-opacity="0.3019608" stroke-width="0.05"/>
      <path d="M18.1 27.2 Q17.75 23.7 21.6 20.35 25.35 17.0 26.85 17.65 28.0 19.75 30.75 23.05 33.75 26.75 35.15 27.4 38.1 28.9 39.65 30.2 40.1 31.2 38.3 32.7 36.15 34.9 35.7 35.95 32.8 38.05 31.7 39.4 31.5 40.7 29.1 41.95 26.6 43.05 25.6 42.15 24.75 41.35 18.1 27.2" fill="url(#gradient0)" fill-rule="evenodd" stroke="none"/>
      <path d="M18.1 27.2 Q24.75 41.35 25.6 42.15 26.6 43.05 29.1 41.95 31.5 40.7 31.7 39.4 32.8 38.05 35.7 35.95 36.15 34.9 38.3 32.7 40.1 31.2 39.65 30.2 38.1 28.9 35.15 27.4 33.75 26.75 30.75 23.05 28.0 19.75 26.85 17.65" fill="none" stroke="#ffffff" stroke-linecap="round" stroke-linejoin="round" stroke-opacity="0.8" stroke-width="0.05"/>
      <path d="M18.1 25.15 L14.9 18.25 12.55 14.65 9.3 10.0 Q3.45 6.5 9.2 8.9 L12.05 8.45 Q12.85 8.2 12.85 7.6 14.0 7.1 12.3 5.45 L9.95 3.75 13.95 4.5 Q16.55 5.05 17.75 5.65 L19.5 7.8 22.85 12.75 27.85 20.25 28.35 21.15 Q29.55 22.95 29.1 25.05 28.85 26.05 26.35 29.05 L25.95 28.5 20.9 21.2 20.45 20.4 24.25 29.75 23.85 29.75 23.75 29.75 22.5 29.6 Q19.55 28.85 18.45 26.0 L18.1 25.15" fill="#f5f0d7" fill-rule="evenodd" stroke="none"/>
      <path d="M25.4 29.45 L25.3 29.5 24.25 29.75 20.45 20.4 20.9 21.2 25.4 29.45" fill="#cfcab5" fill-rule="evenodd" stroke="none"/>
      <path d="M26.35 29.05 L25.4 29.45 20.9 21.2 25.95 28.5 26.35 29.05" fill="#a39d80" fill-rule="evenodd" stroke="none"/>
      <path d="M18.1 25.15 L14.9 18.25 12.55 14.65 9.3 10.0 Q3.45 6.5 9.2 8.9 L12.05 8.45 Q12.85 8.2 12.85 7.6 14.0 7.1 12.3 5.45 L9.95 3.75 13.95 4.5 Q16.55 5.05 17.75 5.65 L19.5 7.8 22.85 12.75" fill="none" stroke="#000000" stroke-linecap="round" stroke-linejoin="round" stroke-opacity="0.3019608" stroke-width="0.05"/>
      <path d="M17.55 8.6 L16.6 10.5 Q19.75 13.85 22.05 15.2 L22.0 16.05 Q19.1 14.35 16.65 11.65 19.0 15.85 20.8 20.35 L19.7 20.85 Q19.0 16.45 15.95 11.75 L14.95 13.6 14.2 12.6 15.25 10.55 13.5 7.8 14.05 7.7 15.7 9.65 16.75 7.6 17.55 8.6 M20.95 12.75 Q20.2 13.05 18.95 12.1 L18.6 11.25 20.55 11.15 20.95 12.75" fill="#2e2e2e" fill-rule="evenodd" stroke="none"/>
      <path d="M17.85 9.4 L16.35 6.95 15.95 6.35 13.95 5.25 Q14.5 5.55 15.15 7.05 L14.85 9.0 Q14.1 9.05 11.9 10.4 L18.5 12.75 18.7 12.75 Q19.35 12.3 17.85 9.4" fill="#302719" fill-opacity="0.3019608" fill-rule="evenodd" stroke="none"/>
      <path d="M14.4 11.9 L18.55 14.7 Q20.65 16.05 21.65 16.95 L21.85 17.1 Q22.45 17.6 22.0 16.35 L20.85 13.65 17.25 8.0 19.7 12.5 19.8 13.1 Q19.9 14.0 19.2 13.75 L13.5 11.3 14.4 11.9" fill="#301f12" fill-opacity="0.5019608" fill-rule="evenodd" stroke="none"/>
      <path d="M10.5 10.6 Q11.55 10.55 12.45 11.1 15.4 12.8 18.65 18.05" fill="none" stroke="url(#gradient1)" stroke-linecap="round" stroke-linejoin="round" stroke-width="0.5"/>
      <path d="M11.9 10.4 L14.4 11.9" fill="none" stroke="url(#gradient2)" stroke-linecap="round" stroke-linejoin="round" stroke-width="0.5"/>
      <path d="M19.8 13.1 L17.85 9.4" fill="none" stroke="url(#gradient3)" stroke-linecap="round" stroke-linejoin="round" stroke-width="0.5"/>
      <path d="M10.4 4.05 Q14.35 5.15 13.45 7.05 L13.35 7.35 Q13.0 5.65 10.4 4.05" fill="#d1ccb7" fill-rule="evenodd" stroke="none"/>
      <path d="M13.35 7.35 Q13.0 5.65 10.4 4.05" fill="none" stroke="#2d2100" stroke-linecap="round" stroke-linejoin="round" stroke-opacity="0.5019608" stroke-width="0.05"/>
      <path d="M18.25 27.2 L17.5 24.9 13.95 18.25 Q10.75 12.8 9.0 10.75 L6.65 9.1 Q5.6 8.25 5.9 7.5 L11.4 7.65 Q12.45 6.55 12.25 6.2 L10.0 4.3 Q9.6 3.25 10.75 3.35 L13.75 3.55 Q13.35 2.5 14.1 1.1 14.65 2.95 15.9 3.95 L17.9 5.05 21.35 9.2 Q22.55 10.9 21.55 5.0 25.65 12.4 24.65 13.85 25.3 13.15 25.6 12.15 26.2 17.3 29.6 22.05 L29.65 22.9 Q29.7 23.4 28.6 25.9 27.45 28.45 25.4 29.45 L21.35 29.3 18.25 27.2 M24.4 14.1 L24.65 13.85 24.4 14.1" fill="url(#gradient4)" fill-rule="evenodd" stroke="none"/>
      <path d="M24.65 13.85 Q25.65 12.4 21.55 5.0 22.55 10.9 21.35 9.2 L17.9 5.05 15.9 3.95 Q14.65 2.95 14.1 1.1 13.35 2.5 13.75 3.55 L10.75 3.35 Q9.6 3.25 10.0 4.3 L12.25 6.2 Q12.45 6.55 11.4 7.65 L5.9 7.5 Q5.6 8.25 6.65 9.1 L9.0 10.75 Q10.75 12.8 13.95 18.25 L17.5 24.9 18.25 27.2 M29.65 22.9 L29.6 22.05 Q26.2 17.3 25.6 12.15 25.3 13.15 24.65 13.85 L24.4 14.1" fill="none" stroke="#ffffff" stroke-linecap="round" stroke-linejoin="round" stroke-opacity="0.8" stroke-width="0.05"/>
    </g>
    <radialGradient cx="0" cy="0" gradientTransform="matrix(0.0141, 0.0204, 0.0157, -0.0072, 22.65, 26.7)" gradientUnits="userSpaceOnUse" id="gradient0" r="819.2" spreadMethod="pad">
      <stop offset="0.39215686274509803" stop-color="#b1e4fa" stop-opacity="0.19215687"/>
      <stop offset="1.0" stop-color="#e2f4fc" stop-opacity="0.87058824"/>
    </radialGradient>
    <linearGradient gradientTransform="matrix(0.006, 0.0022, -0.0057, 0.0087, 14.8, 14.4)" gradientUnits="userSpaceOnUse" id="gradient1" spreadMethod="pad" x1="-819.2" x2="819.2">
      <stop offset="0.0" stop-color="#000000" stop-opacity="0.0"/>
      <stop offset="0.23921568627450981" stop-color="#000000" stop-opacity="0.39215687"/>
      <stop offset="0.788235294117647" stop-color="#000000" stop-opacity="0.37254903"/>
      <stop offset="0.9019607843137255" stop-color="#000000" stop-opacity="0.0"/>
    </linearGradient>
    <linearGradient gradientTransform="matrix(0.0018, -0.0015, 0.0027, 0.0038, 15.3, 12.3)" gradientUnits="userSpaceOnUse" id="gradient2" spreadMethod="pad" x1="-819.2" x2="819.2">
      <stop offset="0.0" stop-color="#000000" stop-opacity="0.0"/>
      <stop offset="0.23921568627450981" stop-color="#000000" stop-opacity="0.39215687"/>
      <stop offset="0.788235294117647" stop-color="#000000" stop-opacity="0.37254903"/>
      <stop offset="0.9019607843137255" stop-color="#000000" stop-opacity="0.0"/>
    </linearGradient>
    <linearGradient gradientTransform="matrix(-0.0028, -0.0058, 0.0056, -0.0035, 17.6, 9.65)" gradientUnits="userSpaceOnUse" id="gradient3" spreadMethod="pad" x1="-819.2" x2="819.2">
      <stop offset="0.0" stop-color="#000000" stop-opacity="0.0"/>
      <stop offset="0.23921568627450981" stop-color="#000000" stop-opacity="0.39215687"/>
      <stop offset="0.788235294117647" stop-color="#000000" stop-opacity="0.37254903"/>
      <stop offset="0.9019607843137255" stop-color="#000000" stop-opacity="0.0"/>
    </linearGradient>
    <radialGradient cx="0" cy="0" gradientTransform="matrix(0.0144, 0.0208, 0.0157, -0.0072, 20.9, 22.05)" gradientUnits="userSpaceOnUse" id="gradient4" r="819.2" spreadMethod="pad">
      <stop offset="0.39215686274509803" stop-color="#b1e4fa" stop-opacity="0.19215687"/>
      <stop offset="1.0" stop-color="#e2f4fc" stop-opacity="0.87058824"/>
    </radialGradient>
  </defs>
</svg>
