<?xml version="1.0" encoding="UTF-8" standalone="no"?>
<svg xmlns:xlink="http://www.w3.org/1999/xlink" height="520.0px" width="520.0px" xmlns="http://www.w3.org/2000/svg">
  <g transform="matrix(10.0, 0.0, 0.0, 10.0, 0.0, 0.0)">
    <use height="52.0" transform="matrix(1.0, 0.0, 0.0, 1.0, 0.0, 0.0)" width="52.0" xlink:href="#shape0"/>
    <use height="34.8" transform="matrix(0.1107, 0.6009, 0.3159, -0.0346, 15.7, 14.45)" width="34.8" xlink:href="#sprite0"/>
  </g>
  <defs>
    <g id="shape0" transform="matrix(1.0, 0.0, 0.0, 1.0, 0.0, 0.0)">
      <path d="M52.0 0.0 L52.0 52.0 0.0 52.0 0.0 0.0 52.0 0.0" fill="#33cc33" fill-opacity="0.0" fill-rule="evenodd" stroke="none"/>
      <path d="M46.9 42.3 Q47.05 43.1 46.5 44.05 L46.0 44.85 Q45.5 45.25 44.65 45.25 L44.1 45.25 Q45.2 44.8 44.85 43.4 L44.75 43.3 44.75 43.25 44.55 42.95 43.85 42.85 42.05 43.45 39.75 44.4 38.45 45.0 Q36.05 46.0 34.85 46.0 33.75 46.0 32.95 45.6 L32.3 44.95 32.25 44.9 Q32.1 44.6 32.1 44.3 33.0 42.65 33.05 41.2 33.15 39.7 32.35 38.4 L33.8 38.3 Q34.65 38.3 35.25 38.8 35.9 39.3 35.65 40.05 35.6 41.7 35.05 42.7 L35.0 42.85 Q35.1 44.6 37.55 44.4 L42.5 42.55 Q45.9 41.45 46.9 42.3 M18.6 49.95 L17.55 50.05 Q12.85 50.05 11.1 46.9 9.75 44.6 10.0 41.2 10.3 37.75 11.15 36.1 12.0 34.4 12.05 31.85 L12.05 28.1 Q12.45 17.5 7.8 8.6 6.05 4.25 9.75 3.75 L11.5 3.9 Q7.6 4.35 9.1 7.65 L9.2 7.95 Q12.15 14.05 13.1 20.5 15.15 32.2 12.75 38.95 L11.4 38.4 Q10.3 39.9 15.25 41.35 16.4 43.2 15.25 46.7 15.0 49.7 18.6 49.95 M22.6 6.3 Q22.6 5.15 21.5 4.55 20.45 3.9 20.45 3.05 20.45 1.95 22.2 1.75 24.35 2.45 24.8 4.35 L25.25 4.9 25.4 5.35 Q25.4 6.0 25.05 6.3 24.8 6.65 24.05 6.65 L22.6 6.3" fill="#d4bf70" fill-rule="evenodd" stroke="none"/>
      <path d="M45.0 40.25 L45.1 40.3 46.0 40.85 Q46.8 41.45 46.9 42.3 45.9 41.45 42.5 42.55 L37.55 44.4 Q35.1 44.6 35.0 42.85 L35.05 42.7 Q35.6 41.7 35.65 40.05 35.9 39.3 35.25 38.8 34.65 38.3 33.8 38.3 L32.35 38.4 30.35 38.95 29.45 39.35 29.15 39.5 28.25 40.15 27.65 40.7 Q26.35 41.95 24.85 44.2 L21.85 48.2 20.5 49.3 23.6 44.8 25.3 41.55 26.0 40.4 26.55 39.6 28.6 37.9 28.95 37.65 29.4 37.4 30.25 37.0 35.15 36.8 36.1 37.25 Q37.95 38.55 37.95 39.8 L37.65 41.05 37.25 41.55 Q37.9 42.45 39.05 42.3 40.2 42.2 41.85 40.9 42.45 40.55 43.0 40.35 L43.25 40.3 45.0 40.25 M11.5 3.9 Q14.25 4.25 17.85 5.15 L20.35 5.8 22.6 6.3 24.05 6.65 Q24.8 6.65 25.05 6.3 25.4 6.0 25.4 5.35 L25.25 4.9 24.8 4.35 Q24.35 2.45 22.2 1.75 L23.05 1.75 Q26.35 1.75 27.45 3.7 L27.65 4.0 27.7 4.15 28.05 5.45 Q28.2 7.4 25.5 7.85 L25.05 7.85 19.7 7.3 16.6 6.5 15.15 6.1 Q12.25 5.55 11.55 7.0 11.15 7.75 11.4 9.1 L11.95 11.0 12.25 11.7 12.9 13.3 13.1 13.9 15.3 20.7 15.45 21.05 15.45 21.15 Q16.1 22.55 16.5 25.15 L16.65 26.35 16.8 28.15 16.85 28.4 16.85 28.6 16.95 29.75 16.9 30.95 16.9 31.0 16.85 31.45 16.8 31.7 Q16.3 35.25 15.6 37.7 L15.45 38.2 15.35 38.2 15.4 38.4 15.1 39.15 14.95 39.5 12.75 38.95 Q15.15 32.2 13.1 20.5 12.15 14.05 9.2 7.95 L9.1 7.65 Q7.6 4.35 11.5 3.9 M15.3 20.7 L15.2 20.7 15.45 21.05 15.2 20.7 15.3 20.7 M23.85 44.8 L23.6 44.8 23.85 44.8 M37.25 41.55 L36.15 42.3 37.25 41.55" fill="#eedb91" fill-rule="evenodd" stroke="none"/>
      <path d="M28.05 10.7 L27.95 10.9 27.85 10.85 28.05 10.7 M15.45 21.15 L15.45 21.05 15.55 21.15 15.45 21.15" fill="#72ab00" fill-rule="evenodd" stroke="none"/>
      <path d="M34.7 33.75 L34.85 34.05 34.55 34.1 34.7 33.75" fill="#76a617" fill-rule="evenodd" stroke="none"/>
      <path d="M44.1 45.25 Q42.35 45.05 41.85 43.6 L42.05 43.45 43.85 42.85 44.55 42.95 44.75 43.25 44.75 43.3 44.85 43.4 Q45.2 44.8 44.1 45.25 M32.1 44.3 Q30.95 41.2 29.15 39.5 L29.45 39.35 30.35 38.95 32.35 38.4 Q33.15 39.7 33.05 41.2 33.0 42.65 32.1 44.3" fill="#bdaa64" fill-rule="evenodd" stroke="none"/>
      <path d="M27.95 10.9 Q28.3 13.35 28.1 15.5 L27.6 17.9 Q24.75 19.8 23.15 15.25 L25.3 13.35 27.65 11.05 25.3 13.35 Q20.7 16.2 18.75 12.1 18.9 9.7 19.4 8.05 L19.95 7.5 Q22.7 10.15 27.65 11.05 L27.85 10.85 27.95 10.9 M26.8 19.95 L26.75 20.0 26.4 22.8 26.4 23.0 Q27.5 23.75 28.45 25.5 L29.25 27.25 Q27.65 28.3 26.15 27.7 24.45 27.1 22.85 24.4 L24.3 23.3 Q20.1 25.2 19.05 20.2 L19.0 20.1 18.9 19.1 Q18.65 17.15 18.65 15.0 L18.65 14.9 19.65 15.45 21.7 16.4 Q20.75 17.95 18.9 19.1 20.75 17.95 21.7 16.4 23.65 18.85 26.65 19.85 L26.8 19.95 M29.45 27.75 L29.6 28.1 31.75 29.7 32.4 30.4 32.45 30.4 34.1 32.7 34.7 33.75 34.55 34.1 34.85 34.05 Q36.55 34.45 40.4 36.9 L40.7 37.15 45.0 40.25 43.25 40.3 40.2 38.8 Q37.15 37.1 34.2 34.8 L33.95 34.6 31.15 32.35 Q30.05 29.9 28.45 28.85 L28.5 28.8 29.45 27.75 M28.05 5.45 Q28.45 6.2 28.5 8.15 L28.5 8.65 28.5 9.25 Q25.5 10.0 25.05 7.85 L25.5 7.85 Q28.2 7.4 28.05 5.45 M26.65 19.85 Q26.05 21.7 24.3 23.3 26.05 21.7 26.65 19.85 M21.2 25.4 Q23.6 28.5 27.25 30.1 L27.2 30.1 27.25 30.1 28.65 31.15 28.35 31.2 28.1 31.5 29.85 33.15 30.35 33.6 30.6 33.8 31.25 34.35 31.75 34.7 33.65 35.95 35.15 36.8 30.25 37.0 29.4 37.4 31.25 34.35 Q29.3 36.5 27.6 36.35 L24.7 33.15 24.65 33.05 Q26.45 31.75 27.2 30.1 25.8 31.85 22.95 30.8 21.55 28.75 20.6 26.35 L21.2 25.4 20.6 26.35 20.1 24.9 21.2 25.4 M27.85 31.3 L28.1 31.5 27.85 31.3 M40.2 38.8 L40.7 37.15 40.2 38.8 M34.55 34.1 L34.2 34.8 34.55 34.1 M26.4 23.0 Q25.8 25.95 26.15 27.7 25.8 25.95 26.4 23.0" fill="#c42e76" fill-rule="evenodd" stroke="none"/>
      <path d="M28.5 9.25 L28.05 10.7 27.85 10.85 27.65 11.05 Q22.7 10.15 19.95 7.5 L19.4 8.05 17.2 10.05 19.4 8.05 Q18.9 9.7 18.75 12.1 20.7 16.2 25.3 13.35 L23.15 15.25 Q24.75 19.8 27.6 17.9 L26.8 19.95 26.65 19.85 Q23.65 18.85 21.7 16.4 L22.75 15.55 Q20.1 15.65 17.4 12.95 16.95 11.7 17.2 10.05 L17.05 10.25 Q13.55 11.4 11.55 7.0 12.25 5.55 15.15 6.1 L16.6 6.5 19.7 7.3 25.05 7.85 Q25.5 10.0 28.5 9.25 M29.25 27.25 L29.4 27.7 29.45 27.75 28.5 28.8 28.45 28.85 27.25 30.1 28.45 28.85 Q30.05 29.9 31.15 32.35 L33.95 34.6 34.2 34.8 33.65 35.95 34.2 34.8 Q37.15 37.1 40.2 38.8 L43.25 40.3 43.0 40.35 Q42.45 40.55 41.85 40.9 40.2 42.2 39.05 42.3 37.9 42.45 37.25 41.55 L37.65 41.05 37.95 39.8 Q37.95 38.55 36.1 37.25 L35.15 36.8 33.65 35.95 31.75 34.7 31.25 34.35 30.6 33.8 Q30.25 32.45 28.65 31.15 30.25 32.45 30.6 33.8 L30.35 33.6 29.85 33.15 28.1 31.5 28.35 31.2 28.65 31.15 27.25 30.1 Q23.6 28.5 21.2 25.4 L22.85 24.4 Q24.45 27.1 26.15 27.7 L26.25 28.25 26.4 28.7 26.25 28.25 26.15 27.7 Q27.65 28.3 29.25 27.25 M20.5 49.3 Q19.6 49.8 18.6 49.95 15.0 49.7 15.25 46.7 16.4 43.2 15.25 41.35 10.3 39.9 11.4 38.4 L12.75 38.95 14.95 39.5 16.85 39.8 17.3 39.85 17.45 39.9 18.15 40.15 Q18.5 40.55 18.55 41.45 L18.55 41.7 18.2 42.65 17.7 43.65 Q16.8 45.15 16.8 46.2 16.8 47.4 18.25 47.45 L18.35 47.45 19.25 47.35 19.8 47.25 20.55 46.8 22.95 44.8 23.6 44.8 20.5 49.3 M16.8 31.7 L16.85 31.45 16.9 31.0 16.9 30.95 16.95 29.75 Q18.85 32.95 22.1 34.55 23.75 37.65 26.65 39.25 L25.15 41.0 Q20.2 43.75 18.65 37.65 L20.85 36.2 Q15.95 38.8 16.8 31.7 M16.5 25.15 Q16.1 22.55 15.45 21.15 L15.55 21.15 Q17.45 23.55 20.1 24.9 L20.6 26.35 Q21.55 28.75 22.95 30.8 25.8 31.85 27.2 30.1 26.45 31.75 24.65 33.05 L24.7 33.15 27.6 36.35 Q29.3 36.5 31.25 34.35 L29.4 37.4 28.95 37.65 28.6 37.9 Q25.5 39.05 22.8 34.2 L24.6 33.1 Q20.85 34.65 17.05 28.55 18.9 27.9 19.9 27.05 L20.6 26.35 19.9 27.05 Q17.45 27.5 16.5 25.15 M13.1 13.9 L12.9 13.3 12.25 11.7 11.95 11.0 11.4 9.1 15.3 11.85 13.5 13.5 15.3 11.85 Q16.75 13.65 18.65 14.9 L18.65 15.0 Q18.65 17.15 18.9 19.1 L19.0 20.1 19.05 20.2 Q20.1 25.2 24.3 23.3 L22.85 24.4 21.1 24.65 Q17.8 24.15 16.8 20.15 L18.45 19.4 Q15.3 19.65 13.5 13.5 L13.1 13.9 M23.15 15.25 L22.75 15.55 23.15 15.25 M18.45 19.4 L18.9 19.1 18.45 19.4 M24.65 33.05 L24.6 33.1 24.65 33.05 M20.85 36.2 L22.1 34.55 20.85 36.2 M40.2 38.8 L39.35 41.8 39.05 42.3 39.35 41.8 40.2 38.8" fill="#9e255c" fill-rule="evenodd" stroke="none"/>
      <path d="M11.55 7.0 Q13.55 11.4 17.05 10.25 L17.2 10.05 Q16.95 11.7 17.4 12.95 20.1 15.65 22.75 15.55 L21.7 16.4 19.65 15.45 18.65 14.9 Q16.75 13.65 15.3 11.85 L11.4 9.1 Q11.15 7.75 11.55 7.0 M14.95 39.5 L15.1 39.15 15.4 38.4 15.45 38.2 15.6 37.7 Q16.3 35.25 16.8 31.7 15.95 38.8 20.85 36.2 L18.65 37.65 16.4 38.45 15.6 37.7 16.4 38.45 18.65 37.65 Q20.2 43.75 25.15 41.0 L26.65 39.25 Q23.75 37.65 22.1 34.55 L22.8 34.2 22.1 34.55 Q18.85 32.95 16.95 29.75 L16.85 28.6 16.85 28.4 16.8 28.15 16.65 26.35 16.5 25.15 Q17.45 27.5 19.9 27.05 18.9 27.9 17.05 28.55 20.85 34.65 24.6 33.1 L22.8 34.2 Q25.5 39.05 28.6 37.9 L26.55 39.6 26.0 40.4 25.3 41.55 23.6 44.8 22.95 44.8 22.25 44.35 25.15 41.0 22.25 44.35 22.95 44.8 20.55 46.8 19.8 47.25 19.25 47.35 18.35 47.45 18.25 47.45 Q16.8 47.4 16.8 46.2 16.8 45.15 17.7 43.65 L18.2 42.65 18.55 41.7 18.55 41.45 Q18.5 40.55 18.15 40.15 L17.45 39.9 17.3 39.85 16.85 39.8 14.95 39.5 M15.3 20.7 L13.1 13.9 13.5 13.5 Q15.3 19.65 18.45 19.4 L16.8 20.15 15.3 20.7 16.8 20.15 Q17.8 24.15 21.1 24.65 L22.85 24.4 21.2 25.4 20.1 24.9 Q17.45 23.55 15.55 21.15 L15.45 21.05 15.3 20.7 M17.05 10.25 L15.3 11.85 17.05 10.25 M16.85 28.6 L17.05 28.55 16.85 28.6 M15.1 39.15 L16.4 38.45 17.3 39.85 16.4 38.45 15.1 39.15 M19.8 47.25 L22.25 44.35 Q20.15 43.1 18.55 41.45 20.15 43.1 22.25 44.35 L19.8 47.25" fill="#801e48" fill-rule="evenodd" stroke="none"/>
      <path d="M44.75 43.3 L44.85 43.4" fill="none" stroke="#000000" stroke-linecap="round" stroke-linejoin="round" stroke-opacity="0.3019608" stroke-width="1.0"/>
      <path d="M29.4 27.7 L29.45 27.75 M17.05 10.25 L17.2 10.05 19.4 8.05 19.95 7.5 Q22.7 10.15 27.65 11.05 L27.85 10.85 28.05 10.7 M15.45 21.05 L15.2 20.7 15.3 20.7 16.8 20.15 18.45 19.4 M13.1 13.9 L13.5 13.5 15.3 11.85 11.4 9.1 M27.65 11.05 L25.3 13.35 23.15 15.25 M22.75 15.55 L23.15 15.25 M15.3 11.85 L17.05 10.25 M18.9 19.1 Q20.75 17.95 21.7 16.4 L19.65 15.45 18.65 14.9 Q16.75 13.65 15.3 11.85 M15.55 21.15 L15.45 21.05 M24.3 23.3 Q26.05 21.7 26.65 19.85 23.65 18.85 21.7 16.4 L22.75 15.55 M18.9 19.1 L18.45 19.4 M22.85 24.4 L21.2 25.4 Q23.6 28.5 27.25 30.1 L28.45 28.85 M28.5 28.8 L29.45 27.75 M27.2 30.1 L27.25 30.1 28.65 31.15 Q30.25 32.45 30.6 33.8 M33.65 35.95 L34.2 34.8 34.55 34.1 34.7 33.75 M27.2 30.1 Q26.45 31.75 24.65 33.05 M20.1 24.9 L21.2 25.4 20.6 26.35 19.9 27.05 Q18.9 27.9 17.05 28.55 L16.85 28.6 M20.1 24.9 Q17.45 23.55 15.55 21.15 M24.6 33.1 L24.65 33.05 M17.3 39.85 L16.4 38.45 15.1 39.15 M15.6 37.7 L16.4 38.45 18.65 37.65 20.85 36.2 M24.6 33.1 L22.8 34.2 22.1 34.55 Q23.75 37.65 26.65 39.25 L25.15 41.0 22.25 44.35 22.95 44.8 23.6 44.8 23.85 44.8 M29.4 37.4 L31.25 34.35 M22.1 34.55 L20.85 36.2 M16.95 29.75 Q18.85 32.95 22.1 34.55 M22.85 24.4 L24.3 23.3 M18.55 41.45 Q20.15 43.1 22.25 44.35 L19.8 47.25 M39.05 42.3 L39.35 41.8 40.2 38.8 M40.7 37.15 L40.2 38.8" fill="none" stroke="#000000" stroke-linecap="round" stroke-linejoin="round" stroke-opacity="0.15294118" stroke-width="0.25"/>
      <path d="M44.75 43.25 L44.75 43.3" fill="none" stroke="#00ff00" stroke-linecap="round" stroke-linejoin="round" stroke-width="0.05"/>
      <path d="M28.5 9.25 L28.05 10.7 27.95 10.9 Q28.3 13.35 28.1 15.5 L27.6 17.9 26.8 19.95 26.75 20.0 26.4 22.8 26.4 23.0 Q27.5 23.75 28.45 25.5 L29.25 27.25 29.4 27.7 M29.45 27.75 L29.6 28.1 31.75 29.7 32.4 30.4 32.45 30.4 34.1 32.7 34.7 33.75 34.85 34.05 Q36.55 34.45 40.4 36.9 L40.7 37.15 45.0 40.25 45.1 40.3 46.0 40.85 Q46.8 41.45 46.9 42.3 47.05 43.1 46.5 44.05 L46.1 44.8 46.0 44.85 Q45.5 45.25 44.65 45.25 L44.1 45.25 Q42.35 45.05 41.85 43.6 L42.05 43.45 39.75 44.4 38.45 45.0 Q36.05 46.0 34.85 46.0 33.75 46.0 32.95 45.6 L32.3 44.95 32.25 44.9 Q32.1 44.6 32.1 44.3 30.95 41.2 29.15 39.5 L28.25 40.15 27.65 40.7 Q26.35 41.95 24.85 44.2 L21.85 48.2 20.5 49.3 Q19.6 49.8 18.6 49.95 L17.55 50.05 Q12.85 50.05 11.1 46.9 9.75 44.6 10.0 41.2 10.3 37.75 11.15 36.1 12.0 34.4 12.05 31.85 L12.05 28.1 Q12.45 17.5 7.8 8.6 6.05 4.25 9.75 3.75 L11.5 3.9 Q14.25 4.25 17.85 5.15 L20.35 5.8 22.6 6.3 Q22.6 5.15 21.5 4.55 20.45 3.9 20.45 3.05 20.45 1.95 22.2 1.75 L23.05 1.75 Q26.35 1.75 27.45 3.7 L27.65 4.0 27.7 4.15 28.05 5.45 Q28.45 6.2 28.5 8.15 L28.5 8.65 28.5 9.25 M25.05 7.85 L19.7 7.3 16.6 6.5 15.15 6.1 Q12.25 5.55 11.55 7.0 M24.8 4.35 L25.25 4.9 25.4 5.35 Q25.4 6.0 25.05 6.3 24.8 6.65 24.05 6.65 L22.6 6.3 M12.75 38.95 L14.95 39.5 15.1 39.15 15.4 38.4 M15.45 38.2 L15.6 37.7 Q16.3 35.25 16.8 31.7 L16.85 31.45 16.9 31.0 16.9 30.95 16.95 29.75 16.85 28.6 16.85 28.4 16.8 28.15 16.65 26.35 16.5 25.15 Q16.1 22.55 15.45 21.15 L15.45 21.05 15.3 20.7 13.1 13.9 12.9 13.3 12.25 11.7 11.95 11.0 11.4 9.1 Q11.15 7.75 11.55 7.0 M25.05 7.85 L25.5 7.85 Q28.2 7.4 28.05 5.45 M26.4 28.7 L26.25 28.25 26.15 27.7 Q25.8 25.95 26.4 23.0 M30.6 33.8 L31.25 34.35 31.75 34.7 33.65 35.95 M28.6 37.9 L28.95 37.65 29.4 37.4 30.25 37.0 35.15 36.8 33.65 35.95 M23.6 44.8 L25.3 41.55 26.0 40.4 26.55 39.6 28.6 37.9 M18.6 49.95 Q15.0 49.7 15.25 46.7 16.4 43.2 15.25 41.35 10.3 39.9 11.4 38.4 L12.75 38.95 M20.55 46.8 L19.8 47.25 19.25 47.35 18.35 47.45 18.25 47.45 Q16.8 47.4 16.8 46.2 16.8 45.15 17.7 43.65 L18.2 42.65 18.55 41.7 18.55 41.45 Q18.5 40.55 18.15 40.15 L17.45 39.9 17.3 39.85 16.85 39.8 14.95 39.5 M23.6 44.8 L20.5 49.3 M30.6 33.8 L30.35 33.6 29.85 33.15 28.1 31.5 27.85 31.3 M29.15 39.5 L29.45 39.35 30.35 38.95 32.35 38.4 33.8 38.3 Q34.65 38.3 35.25 38.8 35.9 39.3 35.65 40.05 M35.15 36.8 L36.1 37.25 Q37.95 38.55 37.95 39.8 L37.65 41.05 37.25 41.55 Q37.9 42.45 39.05 42.3 40.2 42.2 41.85 40.9 42.45 40.55 43.0 40.35 L43.25 40.3 45.0 40.25 M36.15 42.3 L37.25 41.55 M42.05 43.45 L43.85 42.85 44.55 42.95 44.75 43.25 M46.5 44.05 L46.0 44.85" fill="none" stroke="#000000" stroke-linecap="round" stroke-linejoin="round" stroke-opacity="0.3019608" stroke-width="0.5"/>
      <path d="M17.2 8.45 L15.45 11.25 14.5 8.3 17.2 8.45" fill="url(#gradient0)" fill-rule="evenodd" stroke="none"/>
      <path d="M13.05 14.85 L15.3 12.05 16.2 15.05 13.05 14.85" fill="url(#gradient1)" fill-rule="evenodd" stroke="none"/>
      <path d="M14.8 11.7 L11.9 12.55 12.15 9.95 14.8 11.7" fill="url(#gradient2)" fill-rule="evenodd" stroke="none"/>
      <path d="M18.65 10.15 L18.8 13.15 16.25 11.75 18.65 10.15" fill="url(#gradient3)" fill-rule="evenodd" stroke="none"/>
      <path d="M27.75 10.8 L26.85 7.7 28.6 8.05 27.75 10.8" fill="url(#gradient4)" fill-rule="evenodd" stroke="none"/>
      <path d="M25.05 9.0 L27.0 11.15 25.05 12.1 25.05 9.0" fill="url(#gradient5)" fill-rule="evenodd" stroke="none"/>
      <path d="M28.95 14.9 L26.9 14.55 27.75 11.7 28.95 14.9" fill="url(#gradient6)" fill-rule="evenodd" stroke="none"/>
      <path d="M22.0 16.9 L24.25 19.7 21.15 19.95 22.0 16.9" fill="url(#gradient7)" fill-rule="evenodd" stroke="none"/>
      <path d="M25.45 17.45 L22.5 16.6 25.2 14.85 25.45 17.45" fill="url(#gradient8)" fill-rule="evenodd" stroke="none"/>
      <path d="M18.05 18.0 L17.55 15.05 20.85 16.6 18.05 18.0" fill="url(#gradient9)" fill-rule="evenodd" stroke="none"/>
      <path d="M20.15 13.35 L22.85 13.2 21.85 16.15 20.15 13.35" fill="url(#gradient10)" fill-rule="evenodd" stroke="none"/>
      <path d="M21.6 24.95 L19.85 21.95 22.55 21.75 21.6 24.95" fill="url(#gradient11)" fill-rule="evenodd" stroke="none"/>
      <path d="M17.3 23.85 L20.55 25.25 17.75 26.5 17.3 23.85" fill="url(#gradient12)" fill-rule="evenodd" stroke="none"/>
      <path d="M20.8 28.85 L21.75 25.75 23.95 28.6 20.8 28.85" fill="url(#gradient13)" fill-rule="evenodd" stroke="none"/>
      <path d="M24.75 23.65 L25.0 26.25 22.25 25.4 24.75 23.65" fill="url(#gradient14)" fill-rule="evenodd" stroke="none"/>
      <path d="M18.35 35.2 L16.4 38.0 16.05 35.05 18.35 35.2" fill="url(#gradient15)" fill-rule="evenodd" stroke="none"/>
      <path d="M19.35 39.85 L17.2 38.45 20.25 36.9 19.35 39.85" fill="url(#gradient16)" fill-rule="evenodd" stroke="none"/>
      <path d="M22.75 34.6 L25.0 37.4 21.9 37.65 22.75 34.6" fill="url(#gradient17)" fill-rule="evenodd" stroke="none"/>
      <path d="M25.95 32.55 L26.2 35.15 23.25 34.3 25.95 32.55" fill="url(#gradient18)" fill-rule="evenodd" stroke="none"/>
      <path d="M18.8 35.7 L18.3 32.75 21.6 34.3 18.8 35.7" fill="url(#gradient19)" fill-rule="evenodd" stroke="none"/>
      <path d="M20.9 31.05 L23.6 30.9 22.6 33.85 20.9 31.05" fill="url(#gradient20)" fill-rule="evenodd" stroke="none"/>
      <path d="M27.65 33.45 L27.9 30.4 30.3 33.2 27.65 33.45" fill="url(#gradient21)" fill-rule="evenodd" stroke="none"/>
      <path d="M30.2 28.35 L30.9 30.95 28.25 30.1 30.2 28.35" fill="url(#gradient22)" fill-rule="evenodd" stroke="none"/>
      <path d="M24.7 31.5 L23.85 28.55 26.85 30.1 24.7 31.5" fill="url(#gradient23)" fill-rule="evenodd" stroke="none"/>
      <path d="M25.7 26.85 L27.95 26.7 27.6 29.65 25.7 26.85" fill="url(#gradient24)" fill-rule="evenodd" stroke="none"/>
      <path d="M31.9 31.95 L33.4 30.95 34.75 33.55 31.9 31.95" fill="url(#gradient25)" fill-rule="evenodd" stroke="none"/>
      <path d="M33.7 36.35 L31.5 34.15 34.45 34.3 33.7 36.35" fill="url(#gradient26)" fill-rule="evenodd" stroke="none"/>
      <path d="M38.45 35.55 L36.8 36.8 35.35 34.15 38.45 35.55" fill="url(#gradient27)" fill-rule="evenodd" stroke="none"/>
      <path d="M18.8 41.85 L21.1 40.4 21.7 43.4 18.8 41.85" fill="url(#gradient28)" fill-rule="evenodd" stroke="none"/>
      <path d="M19.35 46.95 L17.4 44.6 21.05 44.35 19.35 46.95" fill="url(#gradient29)" fill-rule="evenodd" stroke="none"/>
      <path d="M23.9 40.65 L25.5 42.75 22.5 43.5 23.9 40.65" fill="url(#gradient30)" fill-rule="evenodd" stroke="none"/>
      <path d="M22.85 43.2 L23.2 43.8 23.2 44.45 22.6 44.8 21.75 44.7 21.7 44.7 21.3 44.35 21.4 44.25 Q21.7 43.7 22.35 43.4 L22.85 43.2" fill="#d13f89" fill-rule="evenodd" stroke="none"/>
      <path d="M23.2 44.45 L23.05 44.65 22.35 45.25 21.5 45.15 21.7 44.8 21.75 44.7 22.6 44.8 23.2 44.45" fill="#7d1d47" fill-rule="evenodd" stroke="none"/>
      <path d="M21.2 43.3 L21.75 42.95 22.65 43.1 22.85 43.2 22.35 43.4 Q21.7 43.7 21.4 44.25 L21.3 44.35 21.15 43.95 21.2 43.3" fill="#f04798" fill-rule="evenodd" stroke="none"/>
      <path d="M21.5 45.15 L21.45 45.15 Q21.0 44.9 20.9 44.4 20.75 43.95 21.0 43.5 L21.2 43.3 21.15 43.95 21.3 44.35 21.7 44.7 21.75 44.7 21.7 44.8 21.5 45.15" fill="#9e255c" fill-rule="evenodd" stroke="none"/>
      <path d="M22.85 43.2 L23.2 43.8 23.2 44.45 23.05 44.65 22.35 45.25 21.5 45.15 21.45 45.15 Q21.0 44.9 20.9 44.4 20.75 43.95 21.0 43.5 L21.2 43.3 21.75 42.95 22.65 43.1 22.85 43.2 Z" fill="none" stroke="#000000" stroke-linecap="round" stroke-linejoin="round" stroke-opacity="0.3019608" stroke-width="0.25"/>
      <path d="M15.7 38.7 L15.95 39.3 16.4 39.6 16.9 39.3 17.15 38.55 17.15 38.45 17.05 38.0 16.95 37.95 Q16.45 37.95 16.0 38.35 L15.7 38.7" fill="#d13f89" fill-rule="evenodd" stroke="none"/>
      <path d="M16.4 39.6 L16.6 39.65 17.25 39.3 17.55 38.55 17.25 38.55 17.15 38.55 16.9 39.3 16.4 39.6" fill="#7d1d47" fill-rule="evenodd" stroke="none"/>
      <path d="M16.4 37.3 Q16.15 37.4 15.95 37.65 15.7 38.0 15.7 38.45 L15.7 38.7 16.0 38.35 Q16.45 37.95 16.95 37.95 L17.05 38.0 16.9 37.65 16.4 37.3" fill="#f04798" fill-rule="evenodd" stroke="none"/>
      <path d="M17.55 38.55 L17.55 38.45 17.25 37.65 Q17.0 37.3 16.6 37.3 L16.4 37.3 16.9 37.65 17.05 38.0 17.15 38.45 17.15 38.55 17.25 38.55 17.55 38.55" fill="#9e255c" fill-rule="evenodd" stroke="none"/>
      <path d="M15.7 38.7 L15.95 39.3 16.4 39.6 16.6 39.65 17.25 39.3 17.55 38.55 17.55 38.45 17.25 37.65 Q17.0 37.3 16.6 37.3 L16.4 37.3 Q16.15 37.4 15.95 37.65 15.7 38.0 15.7 38.45 L15.7 38.7 Z" fill="none" stroke="#000000" stroke-linecap="round" stroke-linejoin="round" stroke-opacity="0.3019608" stroke-width="0.25"/>
      <path d="M13.95 12.05 Q13.95 11.6 14.3 11.25 14.65 10.9 15.15 10.9 L15.4 10.9 15.95 11.25 Q16.3 11.6 16.3 12.05 L16.25 12.3 15.95 12.9 15.4 13.2 15.15 13.25 Q14.65 13.25 14.3 12.9 L13.95 12.15 13.95 12.05 M22.7 16.65 L22.7 16.9 22.4 17.45 21.8 17.75 21.55 17.8 20.7 17.45 20.35 16.7 20.35 16.65 Q20.35 16.15 20.7 15.8 21.05 15.45 21.55 15.45 L21.8 15.5 22.4 15.8 22.7 16.65 M27.45 10.1 L27.6 10.15 27.95 10.45 28.15 11.3 28.15 11.55 27.95 12.15 27.6 12.45 27.45 12.45 26.9 12.15 26.7 11.4 26.7 11.3 26.9 10.45 Q27.15 10.1 27.45 10.1 M35.0 33.9 L35.15 34.1 35.4 34.7 35.4 35.2 35.3 35.25 34.7 35.4 34.0 35.05 33.95 34.95 Q33.6 34.65 33.5 34.2 33.4 33.85 33.65 33.6 L33.75 33.55 34.25 33.5 35.0 33.9 M25.9 30.35 Q25.9 29.85 26.25 29.5 26.6 29.15 27.1 29.15 L27.35 29.2 27.95 29.5 28.25 30.35 28.25 30.6 27.95 31.15 Q27.7 31.4 27.35 31.45 L27.1 31.5 Q26.6 31.5 26.25 31.15 25.95 30.85 25.9 30.4 L25.9 30.35 M21.1 24.45 L21.35 24.5 21.95 24.8 Q22.3 25.15 22.3 25.65 L22.25 25.9 21.95 26.5 21.35 26.8 21.1 26.8 20.3 26.5 19.95 25.75 19.95 25.65 Q19.95 25.15 20.3 24.8 20.65 24.45 21.1 24.45 M22.4 33.6 L23.0 33.9 Q23.35 34.25 23.35 34.75 L23.3 35.0 23.0 35.55 22.4 35.85 22.15 35.9 Q21.7 35.9 21.35 35.55 21.0 35.25 21.0 34.85 L21.0 34.75 Q21.0 34.25 21.35 33.9 21.7 33.55 22.15 33.55 L22.4 33.6" fill="#000000" fill-opacity="0.3019608" fill-rule="evenodd" stroke="none"/>
      <path d="M16.65 11.9 L16.3 12.5 15.75 12.8 Q15.4 12.75 15.15 12.5 14.8 12.15 14.8 11.75 L14.8 11.65 14.9 11.2 15.05 11.15 Q15.65 11.15 16.25 11.55 L16.65 11.9" fill="#d13f89" fill-rule="evenodd" stroke="none"/>
      <path d="M15.75 12.8 L15.5 12.85 Q15.0 12.85 14.65 12.5 L14.3 11.75 14.7 11.75 14.8 11.75 Q14.8 12.15 15.15 12.5 15.4 12.75 15.75 12.8" fill="#7d1d47" fill-rule="evenodd" stroke="none"/>
      <path d="M15.75 10.5 Q16.05 10.6 16.3 10.85 16.65 11.2 16.65 11.65 L16.65 11.9 16.25 11.55 Q15.65 11.15 15.05 11.15 L14.9 11.2 15.15 10.85 Q15.4 10.6 15.75 10.5" fill="#f04798" fill-rule="evenodd" stroke="none"/>
      <path d="M14.3 11.75 L14.3 11.65 Q14.3 11.2 14.65 10.85 15.0 10.5 15.5 10.5 L15.75 10.5 Q15.4 10.6 15.15 10.85 L14.9 11.2 14.8 11.65 14.8 11.75 14.7 11.75 14.3 11.75" fill="#9e255c" fill-rule="evenodd" stroke="none"/>
      <path d="M14.3 11.75 L14.3 11.65 Q14.3 11.2 14.65 10.85 15.0 10.5 15.5 10.5 L15.75 10.5 Q16.05 10.6 16.3 10.85 16.65 11.2 16.65 11.65 L16.65 11.9 16.3 12.5 15.75 12.8 15.5 12.85 Q15.0 12.85 14.65 12.5 L14.3 11.75 Z" fill="none" stroke="#000000" stroke-linecap="round" stroke-linejoin="round" stroke-opacity="0.3019608" stroke-width="0.25"/>
      <path d="M21.3 15.85 L21.45 15.8 Q22.05 15.8 22.65 16.2 L23.05 16.55 22.7 17.15 22.15 17.45 Q21.8 17.4 21.55 17.15 21.2 16.8 21.2 16.4 L21.2 16.3 21.3 15.85" fill="#d13f89" fill-rule="evenodd" stroke="none"/>
      <path d="M21.2 16.4 Q21.2 16.8 21.55 17.15 21.8 17.4 22.15 17.45 L21.9 17.5 21.05 17.15 20.7 16.4 21.1 16.4 21.2 16.4" fill="#7d1d47" fill-rule="evenodd" stroke="none"/>
      <path d="M23.05 16.55 L22.65 16.2 Q22.05 15.8 21.45 15.8 L21.3 15.85 21.55 15.5 Q21.8 15.25 22.15 15.15 L22.7 15.5 23.05 16.3 23.05 16.55" fill="#f04798" fill-rule="evenodd" stroke="none"/>
      <path d="M22.15 15.15 Q21.8 15.25 21.55 15.5 L21.3 15.85 21.2 16.3 21.2 16.4 21.1 16.4 20.7 16.4 20.7 16.3 Q20.7 15.85 21.05 15.5 21.4 15.15 21.9 15.15 L22.15 15.15" fill="#9e255c" fill-rule="evenodd" stroke="none"/>
      <path d="M23.05 16.55 L23.05 16.3 22.7 15.5 22.15 15.15 M22.15 17.45 L22.7 17.15 23.05 16.55 M22.15 17.45 L21.9 17.5 21.05 17.15 20.7 16.4 20.7 16.3 Q20.7 15.85 21.05 15.5 21.4 15.15 21.9 15.15 L22.15 15.15" fill="none" stroke="#000000" stroke-linecap="round" stroke-linejoin="round" stroke-opacity="0.3019608" stroke-width="0.25"/>
      <path d="M22.65 25.55 L22.3 26.15 21.75 26.45 Q21.4 26.4 21.15 26.15 20.8 25.8 20.8 25.4 L20.8 25.3 20.9 24.85 21.05 24.8 Q21.65 24.8 22.25 25.2 L22.65 25.55" fill="#d13f89" fill-rule="evenodd" stroke="none"/>
      <path d="M21.75 26.45 L21.5 26.5 Q21.0 26.5 20.65 26.15 L20.3 25.4 20.7 25.4 20.8 25.4 Q20.8 25.8 21.15 26.15 21.4 26.4 21.75 26.45" fill="#7d1d47" fill-rule="evenodd" stroke="none"/>
      <path d="M21.75 24.15 L22.3 24.5 Q22.65 24.85 22.65 25.3 L22.65 25.55 22.25 25.2 Q21.65 24.8 21.05 24.8 L20.9 24.85 21.15 24.5 21.75 24.15" fill="#f04798" fill-rule="evenodd" stroke="none"/>
      <path d="M20.3 25.4 L20.3 25.3 Q20.3 24.85 20.65 24.5 21.0 24.15 21.5 24.15 L21.75 24.15 21.15 24.5 20.9 24.85 20.8 25.3 20.8 25.4 20.7 25.4 20.3 25.4" fill="#9e255c" fill-rule="evenodd" stroke="none"/>
      <path d="M22.65 25.55 L22.3 26.15 21.75 26.45 21.5 26.5 Q21.0 26.5 20.65 26.15 L20.3 25.4 20.3 25.3 Q20.3 24.85 20.65 24.5 21.0 24.15 21.5 24.15 L21.75 24.15 22.3 24.5 Q22.65 24.85 22.65 25.3 L22.65 25.55 Z" fill="none" stroke="#000000" stroke-linecap="round" stroke-linejoin="round" stroke-opacity="0.3019608" stroke-width="0.25"/>
      <path d="M21.9 33.85 L22.05 33.8 Q22.65 33.8 23.25 34.2 L23.65 34.55 23.3 35.15 Q23.05 35.4 22.75 35.45 22.4 35.4 22.15 35.15 21.8 34.8 21.8 34.4 L21.8 34.3 21.9 33.85" fill="#d13f89" fill-rule="evenodd" stroke="none"/>
      <path d="M21.8 34.4 Q21.8 34.8 22.15 35.15 22.4 35.4 22.75 35.45 L22.5 35.5 Q22.0 35.5 21.65 35.15 21.35 34.85 21.3 34.4 L21.7 34.4 21.8 34.4" fill="#7d1d47" fill-rule="evenodd" stroke="none"/>
      <path d="M23.65 34.55 L23.25 34.2 Q22.65 33.8 22.05 33.8 L21.9 33.85 22.15 33.5 Q22.4 33.25 22.75 33.15 L23.3 33.5 Q23.65 33.85 23.65 34.3 L23.65 34.55" fill="#f04798" fill-rule="evenodd" stroke="none"/>
      <path d="M22.75 33.15 Q22.4 33.25 22.15 33.5 L21.9 33.85 21.8 34.3 21.8 34.4 21.7 34.4 21.3 34.4 21.3 34.3 Q21.3 33.85 21.65 33.5 22.0 33.15 22.5 33.15 L22.75 33.15" fill="#9e255c" fill-rule="evenodd" stroke="none"/>
      <path d="M23.65 34.55 L23.65 34.3 Q23.65 33.85 23.3 33.5 L22.75 33.15 M22.75 35.45 Q23.05 35.4 23.3 35.15 L23.65 34.55 M21.3 34.4 L21.3 34.3 Q21.3 33.85 21.65 33.5 22.0 33.15 22.5 33.15 L22.75 33.15 M22.75 35.45 L22.5 35.5 Q22.0 35.5 21.65 35.15 21.35 34.85 21.3 34.4" fill="none" stroke="#000000" stroke-linecap="round" stroke-linejoin="round" stroke-opacity="0.3019608" stroke-width="0.25"/>
      <path d="M26.8 29.55 L26.95 29.5 28.15 29.9 28.55 30.25 28.2 30.85 27.65 31.15 Q27.3 31.1 27.05 30.85 26.7 30.5 26.7 30.1 L26.7 30.0 26.8 29.55" fill="#d13f89" fill-rule="evenodd" stroke="none"/>
      <path d="M26.7 30.1 Q26.7 30.5 27.05 30.85 27.3 31.1 27.65 31.15 L27.4 31.2 Q26.9 31.2 26.55 30.85 L26.2 30.1 26.6 30.1 26.7 30.1" fill="#7d1d47" fill-rule="evenodd" stroke="none"/>
      <path d="M28.55 30.25 L28.15 29.9 26.95 29.5 26.8 29.55 27.05 29.2 Q27.3 28.95 27.65 28.85 L28.2 29.2 Q28.55 29.55 28.55 30.0 L28.55 30.25" fill="#f04798" fill-rule="evenodd" stroke="none"/>
      <path d="M27.65 28.85 Q27.3 28.95 27.05 29.2 L26.8 29.55 26.7 30.0 26.7 30.1 26.6 30.1 26.2 30.1 26.2 30.0 Q26.2 29.55 26.55 29.2 26.9 28.85 27.4 28.85 L27.65 28.85" fill="#9e255c" fill-rule="evenodd" stroke="none"/>
      <path d="M28.55 30.25 L28.55 30.0 Q28.55 29.55 28.2 29.2 L27.65 28.85 M27.65 31.15 L28.2 30.85 28.55 30.25 M26.2 30.1 L26.2 30.0 Q26.2 29.55 26.55 29.2 26.9 28.85 27.4 28.85 L27.65 28.85 M27.65 31.15 L27.4 31.2 Q26.9 31.2 26.55 30.85 L26.2 30.1" fill="none" stroke="#000000" stroke-linecap="round" stroke-linejoin="round" stroke-opacity="0.3019608" stroke-width="0.25"/>
      <path d="M28.45 11.15 L28.25 11.75 27.85 12.05 27.5 11.75 27.3 11.0 27.3 10.9 27.35 10.45 27.4 10.4 Q27.8 10.4 28.2 10.8 L28.45 11.15" fill="#d13f89" fill-rule="evenodd" stroke="none"/>
      <path d="M27.85 12.05 L27.7 12.1 27.2 11.75 Q27.0 11.45 26.95 11.0 L27.2 11.0 27.3 11.0 27.5 11.75 27.85 12.05" fill="#7d1d47" fill-rule="evenodd" stroke="none"/>
      <path d="M27.85 9.75 L28.25 10.1 28.45 10.9 28.45 11.15 28.2 10.8 Q27.8 10.4 27.4 10.4 L27.35 10.45 27.5 10.1 27.85 9.75" fill="#f04798" fill-rule="evenodd" stroke="none"/>
      <path d="M26.95 11.0 L26.95 10.9 Q26.95 10.45 27.2 10.1 27.4 9.75 27.7 9.75 L27.85 9.75 27.5 10.1 27.35 10.45 27.3 10.9 27.3 11.0 27.2 11.0 26.95 11.0" fill="#9e255c" fill-rule="evenodd" stroke="none"/>
      <path d="M28.45 11.15 L28.25 11.75 27.85 12.05 27.7 12.1 27.2 11.75 Q27.0 11.45 26.95 11.0 L26.95 10.9 Q26.95 10.45 27.2 10.1 27.4 9.75 27.7 9.75 L27.85 9.75 28.25 10.1 28.45 10.9 28.45 11.15 Z" fill="none" stroke="#000000" stroke-linecap="round" stroke-linejoin="round" stroke-opacity="0.3019608" stroke-width="0.25"/>
      <path d="M34.2 33.95 L34.25 33.9 35.1 33.65 35.5 33.75 35.75 34.3 35.7 34.75 35.25 34.8 34.55 34.4 34.5 34.35 34.2 33.95" fill="#d13f89" fill-rule="evenodd" stroke="none"/>
      <path d="M34.55 34.4 L35.25 34.8 35.7 34.75 35.65 34.9 35.0 35.05 34.3 34.65 34.5 34.45 34.55 34.4" fill="#7d1d47" fill-rule="evenodd" stroke="none"/>
      <path d="M35.5 33.75 L35.1 33.65 34.25 33.9 34.2 33.95 34.05 33.6 Q34.0 33.35 34.1 33.15 L34.55 33.1 35.3 33.55 35.5 33.75" fill="#f04798" fill-rule="evenodd" stroke="none"/>
      <path d="M34.1 33.15 Q34.0 33.35 34.05 33.6 L34.2 33.95 34.5 34.35 34.55 34.4 34.5 34.45 34.3 34.65 34.25 34.6 33.8 33.85 Q33.7 33.45 33.95 33.2 L34.1 33.15" fill="#9e255c" fill-rule="evenodd" stroke="none"/>
      <path d="M35.5 33.75 L35.3 33.55 34.55 33.1 34.1 33.15 M35.7 34.75 L35.75 34.3 35.5 33.75 M34.3 34.65 L34.25 34.6 33.8 33.85 Q33.7 33.45 33.95 33.2 L34.1 33.15 M35.7 34.75 L35.65 34.9 35.0 35.05 34.3 34.65" fill="none" stroke="#000000" stroke-linecap="round" stroke-linejoin="round" stroke-opacity="0.3019608" stroke-width="0.25"/>
    </g>
    <linearGradient gradientTransform="matrix(2.0E-4, -8.0E-4, -0.0016, -4.0E-4, 15.55, 9.35)" gradientUnits="userSpaceOnUse" id="gradient0" spreadMethod="pad" x1="-819.2" x2="819.2">
      <stop offset="0.0" stop-color="#000000" stop-opacity="0.3019608"/>
      <stop offset="1.0" stop-color="#000000" stop-opacity="0.0"/>
    </linearGradient>
    <linearGradient gradientTransform="matrix(0.0, 8.0E-4, 0.0019, 0.0, 14.65, 13.9)" gradientUnits="userSpaceOnUse" id="gradient1" spreadMethod="pad" x1="-819.2" x2="819.2">
      <stop offset="0.0" stop-color="#000000" stop-opacity="0.3019608"/>
      <stop offset="1.0" stop-color="#000000" stop-opacity="0.0"/>
    </linearGradient>
    <linearGradient gradientTransform="matrix(-9.0E-4, -3.0E-4, -3.0E-4, 0.0015, 13.2, 11.7)" gradientUnits="userSpaceOnUse" id="gradient2" spreadMethod="pad" x1="-819.2" x2="819.2">
      <stop offset="0.0" stop-color="#000000" stop-opacity="0.3019608"/>
      <stop offset="1.0" stop-color="#000000" stop-opacity="0.0"/>
    </linearGradient>
    <linearGradient gradientTransform="matrix(7.0E-4, 2.0E-4, 0.0, -0.0018, 17.75, 11.3)" gradientUnits="userSpaceOnUse" id="gradient3" spreadMethod="pad" x1="-819.2" x2="819.2">
      <stop offset="0.0" stop-color="#000000" stop-opacity="0.3019608"/>
      <stop offset="1.0" stop-color="#000000" stop-opacity="0.0"/>
    </linearGradient>
    <linearGradient gradientTransform="matrix(-1.0E-4, -8.0E-4, 0.0011, -1.0E-4, 27.9, 8.95)" gradientUnits="userSpaceOnUse" id="gradient4" spreadMethod="pad" x1="-819.2" x2="819.2">
      <stop offset="0.0" stop-color="#000000" stop-opacity="0.3019608"/>
      <stop offset="1.0" stop-color="#000000" stop-opacity="0.0"/>
    </linearGradient>
    <linearGradient gradientTransform="matrix(-5.0E-4, 1.0E-4, -1.0E-4, -0.0019, 25.75, 10.4)" gradientUnits="userSpaceOnUse" id="gradient5" spreadMethod="pad" x1="-819.2" x2="819.2">
      <stop offset="0.0" stop-color="#000000" stop-opacity="0.3019608"/>
      <stop offset="1.0" stop-color="#000000" stop-opacity="0.0"/>
    </linearGradient>
    <linearGradient gradientTransform="matrix(-1.0E-4, 8.0E-4, -0.0013, -3.0E-4, 28.0, 13.65)" gradientUnits="userSpaceOnUse" id="gradient6" spreadMethod="pad" x1="-819.2" x2="819.2">
      <stop offset="0.0" stop-color="#000000" stop-opacity="0.3019608"/>
      <stop offset="1.0" stop-color="#000000" stop-opacity="0.0"/>
    </linearGradient>
    <linearGradient gradientTransform="matrix(0.0, 8.0E-4, -0.0019, 0.0, 22.7, 18.8)" gradientUnits="userSpaceOnUse" id="gradient7" spreadMethod="pad" x1="-819.2" x2="819.2">
      <stop offset="0.0" stop-color="#000000" stop-opacity="0.3019608"/>
      <stop offset="1.0" stop-color="#000000" stop-opacity="0.0"/>
    </linearGradient>
    <linearGradient gradientTransform="matrix(9.0E-4, -3.0E-4, 3.0E-4, 0.0015, 24.15, 16.55)" gradientUnits="userSpaceOnUse" id="gradient8" spreadMethod="pad" x1="-819.2" x2="819.2">
      <stop offset="0.0" stop-color="#000000" stop-opacity="0.3019608"/>
      <stop offset="1.0" stop-color="#000000" stop-opacity="0.0"/>
    </linearGradient>
    <linearGradient gradientTransform="matrix(-8.0E-4, 2.0E-4, -4.0E-4, -0.0018, 18.9, 16.2)" gradientUnits="userSpaceOnUse" id="gradient9" spreadMethod="pad" x1="-819.2" x2="819.2">
      <stop offset="0.0" stop-color="#000000" stop-opacity="0.3019608"/>
      <stop offset="1.0" stop-color="#000000" stop-opacity="0.0"/>
    </linearGradient>
    <linearGradient gradientTransform="matrix(-2.0E-4, -8.0E-4, 0.0016, -4.0E-4, 21.8, 14.25)" gradientUnits="userSpaceOnUse" id="gradient10" spreadMethod="pad" x1="-819.2" x2="819.2">
      <stop offset="0.0" stop-color="#000000" stop-opacity="0.3019608"/>
      <stop offset="1.0" stop-color="#000000" stop-opacity="0.0"/>
    </linearGradient>
    <linearGradient gradientTransform="matrix(-2.0E-4, -9.0E-4, 0.0016, -4.0E-4, 21.5, 22.95)" gradientUnits="userSpaceOnUse" id="gradient11" spreadMethod="pad" x1="-819.2" x2="819.2">
      <stop offset="0.0" stop-color="#000000" stop-opacity="0.3019608"/>
      <stop offset="1.0" stop-color="#000000" stop-opacity="0.0"/>
    </linearGradient>
    <linearGradient gradientTransform="matrix(-8.0E-4, 2.0E-4, -4.0E-4, -0.0016, 18.6, 24.9)" gradientUnits="userSpaceOnUse" id="gradient12" spreadMethod="pad" x1="-819.2" x2="819.2">
      <stop offset="0.0" stop-color="#000000" stop-opacity="0.3019608"/>
      <stop offset="1.0" stop-color="#000000" stop-opacity="0.0"/>
    </linearGradient>
    <linearGradient gradientTransform="matrix(0.0, 8.0E-4, -0.0019, 0.0, 22.45, 27.65)" gradientUnits="userSpaceOnUse" id="gradient13" spreadMethod="pad" x1="-819.2" x2="819.2">
      <stop offset="0.0" stop-color="#000000" stop-opacity="0.3019608"/>
      <stop offset="1.0" stop-color="#000000" stop-opacity="0.0"/>
    </linearGradient>
    <linearGradient gradientTransform="matrix(9.0E-4, -3.0E-4, 3.0E-4, 0.0015, 23.75, 25.4)" gradientUnits="userSpaceOnUse" id="gradient14" spreadMethod="pad" x1="-819.2" x2="819.2">
      <stop offset="0.0" stop-color="#000000" stop-opacity="0.3019608"/>
      <stop offset="1.0" stop-color="#000000" stop-opacity="0.0"/>
    </linearGradient>
    <linearGradient gradientTransform="matrix(3.0E-4, -8.0E-4, -0.0013, -4.0E-4, 16.8, 36.1)" gradientUnits="userSpaceOnUse" id="gradient15" spreadMethod="pad" x1="-819.2" x2="819.2">
      <stop offset="0.0" stop-color="#000000" stop-opacity="0.3019608"/>
      <stop offset="1.0" stop-color="#000000" stop-opacity="0.0"/>
    </linearGradient>
    <linearGradient gradientTransform="matrix(6.0E-4, 2.0E-4, 7.0E-4, -0.0018, 18.9, 38.05)" gradientUnits="userSpaceOnUse" id="gradient16" spreadMethod="pad" x1="-819.2" x2="819.2">
      <stop offset="0.0" stop-color="#000000" stop-opacity="0.3019608"/>
      <stop offset="1.0" stop-color="#000000" stop-opacity="0.0"/>
    </linearGradient>
    <linearGradient gradientTransform="matrix(0.0, 8.0E-4, -0.0019, 0.0, 23.45, 36.5)" gradientUnits="userSpaceOnUse" id="gradient17" spreadMethod="pad" x1="-819.2" x2="819.2">
      <stop offset="0.0" stop-color="#000000" stop-opacity="0.3019608"/>
      <stop offset="1.0" stop-color="#000000" stop-opacity="0.0"/>
    </linearGradient>
    <linearGradient gradientTransform="matrix(9.0E-4, -3.0E-4, 3.0E-4, 0.0015, 24.9, 34.25)" gradientUnits="userSpaceOnUse" id="gradient18" spreadMethod="pad" x1="-819.2" x2="819.2">
      <stop offset="0.0" stop-color="#000000" stop-opacity="0.3019608"/>
      <stop offset="1.0" stop-color="#000000" stop-opacity="0.0"/>
    </linearGradient>
    <linearGradient gradientTransform="matrix(-8.0E-4, 2.0E-4, -4.0E-4, -0.0018, 19.65, 33.9)" gradientUnits="userSpaceOnUse" id="gradient19" spreadMethod="pad" x1="-819.2" x2="819.2">
      <stop offset="0.0" stop-color="#000000" stop-opacity="0.3019608"/>
      <stop offset="1.0" stop-color="#000000" stop-opacity="0.0"/>
    </linearGradient>
    <linearGradient gradientTransform="matrix(-2.0E-4, -8.0E-4, 0.0016, -4.0E-4, 22.55, 31.95)" gradientUnits="userSpaceOnUse" id="gradient20" spreadMethod="pad" x1="-819.2" x2="819.2">
      <stop offset="0.0" stop-color="#000000" stop-opacity="0.3019608"/>
      <stop offset="1.0" stop-color="#000000" stop-opacity="0.0"/>
    </linearGradient>
    <linearGradient gradientTransform="matrix(1.0E-4, 8.0E-4, -0.0016, 0.0, 28.75, 32.3)" gradientUnits="userSpaceOnUse" id="gradient21" spreadMethod="pad" x1="-819.2" x2="819.2">
      <stop offset="0.0" stop-color="#000000" stop-opacity="0.3019608"/>
      <stop offset="1.0" stop-color="#000000" stop-opacity="0.0"/>
    </linearGradient>
    <linearGradient gradientTransform="matrix(7.0E-4, -3.0E-4, 5.0E-4, 0.0015, 29.6, 30.05)" gradientUnits="userSpaceOnUse" id="gradient22" spreadMethod="pad" x1="-819.2" x2="819.2">
      <stop offset="0.0" stop-color="#000000" stop-opacity="0.3019608"/>
      <stop offset="1.0" stop-color="#000000" stop-opacity="0.0"/>
    </linearGradient>
    <linearGradient gradientTransform="matrix(-6.0E-4, 2.0E-4, -7.0E-4, -0.0018, 25.15, 29.7)" gradientUnits="userSpaceOnUse" id="gradient23" spreadMethod="pad" x1="-819.2" x2="819.2">
      <stop offset="0.0" stop-color="#000000" stop-opacity="0.3019608"/>
      <stop offset="1.0" stop-color="#000000" stop-opacity="0.0"/>
    </linearGradient>
    <linearGradient gradientTransform="matrix(-3.0E-4, -8.0E-4, 0.0013, -4.0E-4, 27.25, 27.75)" gradientUnits="userSpaceOnUse" id="gradient24" spreadMethod="pad" x1="-819.2" x2="819.2">
      <stop offset="0.0" stop-color="#000000" stop-opacity="0.3019608"/>
      <stop offset="1.0" stop-color="#000000" stop-opacity="0.0"/>
    </linearGradient>
    <linearGradient gradientTransform="matrix(-7.0E-4, -5.0E-4, 7.0E-4, -8.0E-4, 33.5, 32.15)" gradientUnits="userSpaceOnUse" id="gradient25" spreadMethod="pad" x1="-819.2" x2="819.2">
      <stop offset="0.0" stop-color="#000000" stop-opacity="0.3019608"/>
      <stop offset="1.0" stop-color="#000000" stop-opacity="0.0"/>
    </linearGradient>
    <linearGradient gradientTransform="matrix(-3.0E-4, 4.0E-4, -0.0014, -0.0012, 33.05, 34.65)" gradientUnits="userSpaceOnUse" id="gradient26" spreadMethod="pad" x1="-819.2" x2="819.2">
      <stop offset="0.0" stop-color="#000000" stop-opacity="0.3019608"/>
      <stop offset="1.0" stop-color="#000000" stop-opacity="0.0"/>
    </linearGradient>
    <linearGradient gradientTransform="matrix(5.0E-4, 6.0E-4, -0.0011, 6.0E-4, 36.95, 35.35)" gradientUnits="userSpaceOnUse" id="gradient27" spreadMethod="pad" x1="-819.2" x2="819.2">
      <stop offset="0.0" stop-color="#000000" stop-opacity="0.3019608"/>
      <stop offset="1.0" stop-color="#000000" stop-opacity="0.0"/>
    </linearGradient>
    <linearGradient gradientTransform="matrix(-6.0E-4, -6.0E-4, 0.0012, -0.0011, 20.75, 41.85)" gradientUnits="userSpaceOnUse" id="gradient28" spreadMethod="pad" x1="-819.2" x2="819.2">
      <stop offset="0.0" stop-color="#000000" stop-opacity="0.3019608"/>
      <stop offset="1.0" stop-color="#000000" stop-opacity="0.0"/>
    </linearGradient>
    <linearGradient gradientTransform="matrix(-5.0E-4, 6.0E-4, -0.0013, -0.0013, 19.15, 44.95)" gradientUnits="userSpaceOnUse" id="gradient29" spreadMethod="pad" x1="-819.2" x2="819.2">
      <stop offset="0.0" stop-color="#000000" stop-opacity="0.3019608"/>
      <stop offset="1.0" stop-color="#000000" stop-opacity="0.0"/>
    </linearGradient>
    <linearGradient gradientTransform="matrix(6.0E-4, -7.0E-4, 0.001, 0.0012, 23.9, 42.65)" gradientUnits="userSpaceOnUse" id="gradient30" spreadMethod="pad" x1="-819.2" x2="819.2">
      <stop offset="0.0" stop-color="#000000" stop-opacity="0.3019608"/>
      <stop offset="1.0" stop-color="#000000" stop-opacity="0.0"/>
    </linearGradient>
    <g id="sprite0" transform="matrix(1.0, 0.0, 0.0, 1.0, 0.0, 0.0)">
      <use height="34.8" transform="matrix(1.0, 0.0, 0.0, 1.0, 0.0, 0.0)" width="34.8" xlink:href="#shape1"/>
    </g>
    <g id="shape1" transform="matrix(1.0, 0.0, 0.0, 1.0, 0.0, 0.0)">
      <path d="M17.4 34.8 Q10.2 34.8 5.1 29.7 0.0 24.6 0.0 17.4 0.0 10.2 5.1 5.1 10.2 0.0 17.4 0.0 24.6 0.0 29.7 5.1 34.8 10.2 34.8 17.4 34.8 24.6 29.7 29.7 24.6 34.8 17.4 34.8" fill="url(#gradient31)" fill-rule="evenodd" stroke="none"/>
    </g>
    <radialGradient cx="0" cy="0" gradientTransform="matrix(0.0221, 0.0, 0.0, 0.0221, 17.4, 17.4)" gradientUnits="userSpaceOnUse" id="gradient31" r="819.2" spreadMethod="pad">
      <stop offset="0.0" stop-color="#ffffff"/>
      <stop offset="0.9882352941176471" stop-color="#ffffff" stop-opacity="0.0"/>
    </radialGradient>
  </defs>
</svg>
