<?xml version="1.0" encoding="UTF-8" standalone="no"?>
<svg xmlns:xlink="http://www.w3.org/1999/xlink" height="520.0px" width="520.0px" xmlns="http://www.w3.org/2000/svg">
  <g transform="matrix(10.0, 0.0, 0.0, 10.0, 0.0, 0.0)">
    <use height="52.0" transform="matrix(1.0, 0.0, 0.0, 1.0, 0.0, 0.0)" width="52.0" xlink:href="#shape0"/>
  </g>
  <defs>
    <g id="shape0" transform="matrix(1.0, 0.0, 0.0, 1.0, 0.0, 0.0)">
      <path d="M52.0 0.0 L52.0 52.0 0.0 52.0 0.0 0.0 52.0 0.0" fill="#33cc33" fill-opacity="0.0" fill-rule="evenodd" stroke="none"/>
      <path d="M13.25 4.6 L13.35 4.6 13.25 5.15 14.1 6.65 12.15 6.85 10.5 6.15 10.45 6.1 10.4 6.1 4.45 3.65 3.55 10.3 Q4.4 11.5 5.65 12.3 L6.25 12.7 6.75 12.95 9.6 27.2 10.6 32.6 Q12.95 41.45 17.2 46.9 L17.3 47.0 17.45 47.25 18.5 48.35 18.8 48.7 19.75 49.65 20.25 50.1 21.75 51.25 22.1 47.8 22.1 48.1 22.15 47.8 22.35 45.9 22.35 45.8 22.55 44.45 Q22.9 41.75 23.3 40.65 24.8 35.45 28.4 34.4 33.0 39.2 35.95 39.65 L36.2 39.7 37.3 39.7 37.7 39.65 Q39.35 39.3 40.8 37.75 43.0 35.4 43.8 32.7 L44.0 32.2 44.2 31.55 44.5 29.65 47.05 29.65 46.6 27.85 Q46.2 27.2 45.45 27.1 L45.3 27.1 44.9 27.15 43.05 27.15 42.85 27.15 41.9 27.1 40.8 27.0 40.6 26.95 Q35.35 26.15 31.0 22.85 L29.2 21.4 27.9 20.15 26.75 18.85 Q25.1 17.0 23.8 14.85 L24.85 15.0 24.55 14.7 23.45 13.15 22.6 11.45 24.55 11.85 25.15 12.95 25.65 11.3 27.0 11.55 26.05 9.95 26.9 8.7 26.45 8.8 24.7 9.15 24.85 8.55 24.8 8.05 24.65 7.9 Q23.4 6.4 22.6 4.4 L22.3 3.55 Q22.3 2.95 21.2 2.7 L13.75 0.8 13.35 4.55 13.25 4.6 M17.1 18.5 L17.15 18.5 17.15 18.45 17.1 18.5" fill="none" stroke="#000000" stroke-linecap="round" stroke-linejoin="round" stroke-opacity="0.3019608" stroke-width="1.0"/>
      <path d="M31.0 22.9 Q35.35 26.2 40.6 26.95 L40.8 27.0 41.9 27.1 42.85 27.15 43.05 27.15 44.9 27.15 Q44.6 27.35 44.5 28.0 L44.45 28.55 42.6 28.45 40.65 28.2 Q35.85 27.25 32.05 24.1 L31.0 22.9 M28.4 34.4 Q24.8 35.5 23.3 40.7 22.9 41.75 22.55 44.45 L22.35 45.85 21.3 45.1 20.7 44.8 19.75 44.1 19.4 43.8 18.4 42.9 18.25 42.6 18.05 42.55 Q13.6 38.05 11.2 29.4 L10.25 25.35 10.15 24.75 10.5 23.6 10.75 23.0 Q13.15 17.7 18.9 22.6 L21.2 24.75 21.8 25.55 Q23.95 28.1 26.45 30.25 L28.5 31.85 31.55 34.25 31.6 34.3 31.65 34.3 31.65 34.35 31.7 34.4 31.1 34.25 30.55 34.15 30.3 34.15 28.4 34.4 M22.15 47.8 L22.1 48.15 22.1 47.8 22.15 47.8 M31.6 34.3 L31.65 34.35 31.7 34.4 31.65 34.35 31.6 34.3" fill="#f0f0c0" fill-rule="evenodd" stroke="none"/>
      <path d="M44.45 28.55 L44.5 28.0 Q44.6 27.35 44.9 27.15 L45.35 27.1 45.45 27.1 Q46.2 27.2 46.6 27.9 46.9 28.4 47.05 29.65 L44.5 29.65 44.5 29.6 44.45 28.95 44.45 28.55 M35.95 39.65 Q33.0 39.2 28.4 34.4 L30.3 34.15 30.55 34.15 31.1 34.25 31.7 34.4 32.2 35.25 33.6 37.5 Q34.6 39.2 35.95 39.65" fill="#706d01" fill-rule="evenodd" stroke="none"/>
      <path d="M31.0 22.9 L32.05 24.1 Q35.85 27.25 40.65 28.2 L42.6 28.45 44.45 28.55 44.45 28.95 44.5 29.6 44.5 29.65 44.2 31.55 44.0 32.2 43.8 32.75 Q43.0 35.45 40.8 37.8 39.35 39.3 37.7 39.65 L37.3 39.7 36.2 39.7 35.95 39.65 Q34.6 39.2 33.6 37.5 L32.2 35.25 31.7 34.4 31.65 34.35 31.65 34.3 31.6 34.3 31.55 34.25 28.5 31.85 26.45 30.25 Q23.95 28.1 21.8 25.55 19.8 16.7 29.2 21.4 L31.0 22.9 M7.35 8.05 L7.6 7.75 8.2 7.15 8.3 7.0 Q8.9 6.5 9.75 6.3 L10.4 6.1 10.45 6.1 10.5 6.15 10.2 6.45 9.95 6.85 9.85 7.0 9.85 7.15 9.75 7.35 Q9.5 8.0 9.5 8.6 9.5 9.5 10.3 10.15 10.75 10.6 11.95 10.8 L12.8 10.9 12.95 10.9 13.0 10.9 13.3 10.85 15.45 10.3 15.7 10.2 17.4 9.15 19.45 7.4 Q18.85 6.35 18.2 5.95 L15.8 5.05 13.6 4.7 13.25 4.65 13.4 4.5 14.55 3.95 17.1 3.85 18.15 4.0 18.25 4.05 19.5 4.7 20.7 5.55 20.75 5.7 Q20.7 8.2 18.8 9.75 L16.45 11.25 14.7 12.05 11.25 12.25 Q12.5 13.2 14.75 13.45 L14.75 13.55 15.25 14.9 16.4 17.1 16.45 17.25 17.0 18.3 17.1 18.55 17.15 18.55 17.8 19.6 19.7 22.7 20.45 23.7 20.5 23.7 21.2 24.75 18.9 22.6 Q13.15 17.7 10.75 23.0 L10.5 23.6 10.15 24.75 10.0 24.4 Q8.95 19.35 7.35 8.05 M8.2 8.95 L8.5 9.3 10.2 10.6 11.9 10.95 12.4 10.95 12.8 10.9 12.95 10.9 12.8 10.9 12.4 10.95 11.9 10.95 10.2 10.6 8.5 9.3 8.2 8.95 M19.75 6.8 L19.45 7.4 19.75 6.8 M31.55 34.25 L31.6 34.3 31.55 34.25 31.6 34.3 31.55 34.25" fill="#d9d9ad" fill-rule="evenodd" stroke="none"/>
      <path d="M9.6 27.2 L6.65 12.6 6.75 12.55 6.6 12.0 6.7 12.3 6.5 11.55 6.4 11.15 6.4 11.1 6.45 10.4 6.65 9.35 7.35 8.05 Q8.95 19.35 10.0 24.4 L10.15 24.75 9.85 25.75 9.6 27.2" fill="#570000" fill-rule="evenodd" stroke="none"/>
      <path d="M6.65 12.6 L6.45 11.55 6.4 11.15 6.5 11.55 6.7 12.3 6.6 12.0 6.75 12.55 6.65 12.6" fill="#3f3318" fill-rule="evenodd" stroke="none"/>
      <path d="M20.75 5.7 L20.8 6.05 Q20.9 7.75 21.4 9.45 L22.05 11.5 22.25 12.0 22.45 12.5 Q24.25 16.0 26.75 18.85 L27.9 20.2 29.2 21.4 Q19.8 16.7 21.8 25.55 L21.2 24.75 20.5 23.7 20.45 23.7 19.7 22.7 17.8 19.6 17.15 18.55 17.15 18.5 17.1 18.55 17.0 18.3 16.45 17.25 16.4 17.1 15.25 14.9 14.75 13.55 14.75 13.45 Q12.5 13.2 11.25 12.25 L14.7 12.05 16.45 11.25 18.8 9.75 Q20.7 8.2 20.75 5.7" fill="#c9c998" fill-rule="evenodd" stroke="none"/>
      <path d="M22.35 45.85 L22.35 45.95 22.15 47.8 22.1 47.8 21.75 51.3 20.25 50.1 19.75 49.65 18.8 48.75 18.5 48.4 17.45 47.25 17.3 47.0 17.2 46.9 Q12.95 41.5 10.6 32.65 L9.6 27.2 9.85 25.75 10.15 24.75 10.25 25.35 11.2 29.4 Q13.6 38.05 18.05 42.55 L18.25 42.6 18.4 42.9 19.4 43.8 19.75 44.1 20.7 44.8 21.3 45.1 22.35 45.85" fill="#700000" fill-rule="evenodd" stroke="none"/>
      <path d="M44.9 27.15 L43.05 27.15 42.85 27.15 41.9 27.1 40.8 27.0 40.6 26.95 Q35.35 26.2 31.0 22.9 M44.45 28.55 L44.5 28.0 Q44.6 27.35 44.9 27.15 L44.95 27.1 45.35 27.1 45.45 27.1 Q46.2 27.2 46.6 27.9 46.9 28.4 47.05 29.65 L44.5 29.65 44.2 31.55 44.0 32.2 43.8 32.75 Q43.0 35.45 40.8 37.8 39.35 39.3 37.7 39.65 L37.3 39.7 36.2 39.7 35.95 39.65 Q33.0 39.2 28.4 34.4 24.8 35.5 23.3 40.7 22.9 41.75 22.55 44.45 L22.35 45.85 M22.35 45.95 L22.15 47.8 22.1 48.15 M22.1 47.8 L21.75 51.3 20.25 50.1 19.75 49.65 18.8 48.75 18.5 48.4 17.45 47.25 17.3 47.0 17.2 46.9 Q12.95 41.5 10.6 32.65 L9.6 27.2 6.65 12.6 6.45 11.55 6.4 11.15 6.4 11.1 6.45 10.4 6.65 9.35 7.35 8.05 7.6 7.75 8.2 7.15 8.3 7.0 Q8.9 6.5 9.75 6.3 L10.4 6.1 10.45 6.1 10.5 6.15 10.2 6.45 9.95 6.85 9.85 7.0 9.85 7.15 9.75 7.35 Q9.5 8.0 9.5 8.6 9.5 9.5 10.3 10.15 10.75 10.6 11.95 10.8 L12.8 10.9 12.95 10.9 13.0 10.9 13.3 10.85 15.45 10.3 15.7 10.2 17.4 9.15 19.45 7.4 Q18.85 6.35 18.2 5.95 L15.8 5.05 13.6 4.7 13.25 4.65 13.4 4.5 14.55 3.95 17.1 3.85 18.15 4.0 18.25 4.05 19.5 4.7 20.7 5.55 20.75 5.7 20.8 6.05 Q20.9 7.75 21.4 9.45 L22.25 12.0 22.45 12.5 Q24.25 16.0 26.75 18.85 L27.9 20.2 29.2 21.4 31.0 22.9 M45.35 27.1 L44.9 27.15 M21.2 24.75 L20.5 23.7 20.45 23.7 19.7 22.7 17.8 19.6 17.15 18.55 17.1 18.55 17.0 18.3 16.45 17.25 M12.95 10.9 L12.8 10.9 12.4 10.95 11.9 10.95 10.2 10.6 8.5 9.3 8.2 8.95 M19.45 7.4 L19.75 6.8 M17.15 18.55 L17.15 18.5 M21.8 25.55 L21.2 24.75 M28.4 34.4 L30.3 34.15 30.55 34.15 31.1 34.25 31.7 34.4 31.65 34.35 31.6 34.3 31.55 34.25 28.5 31.85 26.45 30.25 Q23.95 28.1 21.8 25.55 M31.6 34.3 L31.55 34.25 M31.7 34.4 L32.2 35.25 33.6 37.5 Q34.6 39.2 35.95 39.65 M31.6 34.3 L31.55 34.25 M31.6 34.3 L31.65 34.3 31.65 34.35 M44.5 29.65 L44.5 29.6 44.45 28.95 44.45 28.55" fill="none" stroke="#000000" stroke-linecap="round" stroke-linejoin="round" stroke-opacity="0.3019608" stroke-width="0.05"/>
      <path d="M10.85 23.4 L10.95 23.75 11.05 24.3 11.25 25.15 M10.05 19.35 L10.45 21.4 M9.4 15.3 L9.7 17.35 M8.8 11.2 L9.1 13.25 M8.2 7.15 L8.5 9.1 M19.05 41.6 L19.2 41.85 20.2 42.75 20.6 43.1 20.8 43.3 M11.7 27.15 L12.0 28.4 12.2 29.1 M12.85 31.0 L13.55 32.9 M14.35 34.75 L15.3 36.6 M16.3 38.35 L17.45 39.95" fill="none" stroke="#b19741" stroke-linecap="round" stroke-linejoin="round" stroke-opacity="0.5019608" stroke-width="0.5"/>
      <path d="M5.65 12.35 Q8.9 13.45 11.65 11.8 L11.95 8.3 Q19.6 7.45 21.9 5.3 L22.6 4.4 Q23.4 6.4 24.65 7.95 L24.8 8.1 24.85 8.55 Q24.75 10.7 16.65 13.5 10.05 14.95 6.25 12.75 L5.65 12.35" fill="#d6d6ab" fill-rule="evenodd" stroke="none"/>
      <path d="M14.1 6.65 L16.85 6.25 20.4 5.3 21.3 4.85 21.8 4.4 22.05 4.1 22.3 3.55 22.6 4.4 21.9 5.3 Q19.6 7.45 11.95 8.3 L11.65 11.8 Q8.9 13.45 5.65 12.35 4.4 11.5 3.55 10.35 L4.45 3.65 12.15 6.85 14.1 6.65" fill="#ffffcc" fill-rule="evenodd" stroke="none"/>
      <path d="M20.2 2.5 Q19.35 3.65 17.65 4.6 15.45 5.75 13.65 5.9 L13.55 5.7 13.25 5.2 13.75 0.8 20.2 2.5" fill="#706d01" fill-rule="evenodd" stroke="none"/>
      <path d="M20.2 2.5 L21.2 2.75 Q22.3 3.0 22.3 3.55 L22.05 4.1 21.8 4.4 21.3 4.85 20.4 5.3 16.85 6.25 14.1 6.65 13.65 5.9 Q15.45 5.75 17.65 4.6 19.35 3.65 20.2 2.5" fill="#595401" fill-rule="evenodd" stroke="none"/>
      <path d="M14.1 6.65 L16.85 6.25 20.4 5.3 21.3 4.85 21.8 4.4 22.05 4.1 22.3 3.55 Q22.3 3.0 21.2 2.75 M14.1 6.65 L12.15 6.85 M22.6 4.4 L22.3 3.55 M22.6 4.4 Q23.4 6.4 24.65 7.95 L24.8 8.1 24.85 8.55 Q24.75 10.7 16.65 13.5" fill="none" stroke="#000000" stroke-linecap="round" stroke-linejoin="round" stroke-opacity="0.3019608" stroke-width="0.05"/>
      <path d="M21.2 2.75 L20.2 2.5 13.75 0.8 13.25 5.2 13.55 5.7 M13.65 5.9 L14.1 6.65 M12.15 6.85 L4.45 3.65 3.55 10.35 Q4.4 11.5 5.65 12.35 M16.65 13.5 Q10.05 14.95 6.25 12.75 L5.65 12.35" fill="none" stroke="#3a2b21" stroke-linecap="round" stroke-linejoin="round" stroke-opacity="0.4509804" stroke-width="0.05"/>
      <path d="M15.3 9.5 Q14.85 9.55 14.55 10.05 14.2 10.55 14.15 11.1 14.1 11.75 14.35 12.15 14.6 12.5 15.0 12.45 L15.8 11.9 16.15 10.85 15.9 9.85 Q15.65 9.45 15.3 9.5" fill="#5b4a24" fill-rule="evenodd" stroke="none"/>
      <path d="M15.3 9.5 Q14.85 9.55 14.55 10.05 14.2 10.55 14.15 11.1 14.1 11.75 14.35 12.15 14.6 12.5 15.0 12.45 L15.8 11.9 16.15 10.85 15.9 9.85 Q15.65 9.45 15.3 9.5 Z" fill="none" stroke="#000000" stroke-linecap="round" stroke-linejoin="round" stroke-opacity="0.3019608" stroke-width="0.05"/>
      <path d="M15.2 9.65 L14.7 10.1 Q14.4 10.5 14.35 11.0 14.3 11.5 14.5 11.8 14.7 12.1 15.05 12.05 L15.65 11.6 15.9 10.7 15.75 9.95 Q15.55 9.65 15.2 9.65" fill="#000000" fill-rule="evenodd" stroke="none"/>
      <path d="M15.2 9.65 L14.7 10.1 Q14.4 10.5 14.35 11.0 14.3 11.5 14.5 11.8 14.7 12.1 15.05 12.05 L15.65 11.6 15.9 10.7 15.75 9.95 Q15.55 9.65 15.2 9.65 Z" fill="none" stroke="#000000" stroke-linecap="round" stroke-linejoin="round" stroke-opacity="0.3019608" stroke-width="0.05"/>
      <path d="M21.65 7.25 Q21.25 7.45 20.95 7.95 20.65 8.45 20.65 8.95 20.65 9.5 20.9 9.75 L21.55 9.8 22.2 9.1 22.55 8.1 22.3 7.35 21.65 7.25" fill="#5b4a24" fill-rule="evenodd" stroke="none"/>
      <path d="M21.65 7.25 Q21.25 7.45 20.95 7.95 20.65 8.45 20.65 8.95 20.65 9.5 20.9 9.75 L21.55 9.8 22.2 9.1 22.55 8.1 22.3 7.35 21.65 7.25 Z" fill="none" stroke="#000000" stroke-linecap="round" stroke-linejoin="round" stroke-opacity="0.3019608" stroke-width="0.05"/>
      <path d="M21.55 7.4 L21.0 7.95 20.75 8.8 Q20.7 9.2 20.95 9.4 L21.45 9.45 22.0 8.9 22.25 8.05 22.05 7.5 21.55 7.4" fill="#000000" fill-rule="evenodd" stroke="none"/>
      <path d="M21.55 7.4 L21.0 7.95 20.75 8.8 Q20.7 9.2 20.95 9.4 L21.45 9.45 22.0 8.9 22.25 8.05 22.05 7.5 21.55 7.4 Z" fill="none" stroke="#000000" stroke-linecap="round" stroke-linejoin="round" stroke-opacity="0.3019608" stroke-width="0.05"/>
      <path d="M21.05 9.3 L21.1 9.3 22.1 8.5 22.1 8.4 22.2 8.25 Q22.85 7.25 21.5 6.9 L21.05 7.3 Q20.3 7.25 19.85 8.05 18.6 8.2 18.15 9.0 L17.4 8.95 Q16.7 8.9 16.2 9.65 15.1 9.25 14.6 9.9 L14.4 9.95 14.3 10.2 Q14.1 10.7 14.2 10.95 14.35 11.45 15.1 11.5 L15.6 11.55 15.45 11.4 16.25 11.7 17.0 11.55 17.3 11.35 17.4 11.35 Q18.5 11.45 19.2 10.7 L19.35 10.45 19.65 10.5 Q20.45 10.35 20.9 9.65 L21.05 9.3" fill="#2b2211" fill-opacity="0.3019608" fill-rule="evenodd" stroke="none"/>
      <path d="M21.95 9.55 Q21.65 10.15 21.05 10.25 L20.9 9.7 21.3 9.05 20.7 9.5 20.55 9.2 Q20.45 8.5 21.25 8.8 L21.6 9.25 21.25 9.8 Q21.85 9.4 21.95 9.55 M20.9 10.6 Q20.55 11.3 19.75 11.35 L19.3 10.6 20.2 9.85 19.05 10.35 18.9 10.0 Q19.15 9.15 20.0 9.45 L20.6 10.0 20.05 10.65 20.7 10.3 20.9 10.6 M19.35 11.55 Q18.7 12.35 17.65 12.15 L17.65 12.0 Q18.2 12.1 18.75 11.6 L17.4 11.75 17.35 11.55 Q16.9 11.05 16.8 10.55 17.4 9.9 18.3 10.15 L18.75 10.75 17.35 11.55 18.85 11.0 19.35 11.55 M17.3 12.3 L16.65 12.4 15.9 12.05 16.55 11.9 15.8 11.8 Q15.35 11.25 15.35 10.75 L16.3 10.85 15.65 11.25 16.5 11.4 17.3 12.3" fill="#b19741" fill-rule="evenodd" stroke="none"/>
      <path d="M15.9 12.05 L16.05 12.25 15.6 12.15 Q14.85 12.05 14.7 11.55 14.6 11.25 14.8 10.75 L14.8 10.55 15.1 10.5 Q15.5 9.9 16.5 10.35 17.0 9.55 17.65 9.65 L18.35 9.8 Q18.75 8.95 19.85 8.95 20.2 8.15 20.9 8.25 L21.4 7.85 Q22.6 8.3 22.1 9.3 L22.0 9.4 21.95 9.55 Q21.85 9.4 21.25 9.8 L21.6 9.25 21.25 8.8 Q20.45 8.5 20.55 9.2 L20.7 9.5 21.3 9.05 20.9 9.7 21.05 10.25 21.0 10.25 20.9 10.6 20.7 10.3 20.05 10.65 20.6 10.0 20.0 9.45 Q19.15 9.15 18.9 10.0 L19.05 10.35 20.2 9.85 19.3 10.6 19.75 11.35 19.55 11.35 19.35 11.55 18.85 11.0 17.35 11.55 18.75 10.75 18.3 10.15 Q17.4 9.9 16.8 10.55 16.9 11.05 17.35 11.55 L17.4 11.75 18.75 11.6 Q18.2 12.1 17.65 12.0 L17.65 12.15 17.6 12.15 17.3 12.3 16.5 11.4 15.65 11.25 16.3 10.85 15.35 10.75 Q15.35 11.25 15.8 11.8 L16.55 11.9 15.9 12.05 M16.5 10.35 Q16.75 11.4 17.6 12.15 16.75 11.4 16.5 10.35 M15.1 10.5 Q15.1 11.55 16.05 12.25 15.1 11.55 15.1 10.5 M20.9 8.25 Q21.7 8.7 22.0 9.4 21.7 8.7 20.9 8.25 M19.85 8.95 L21.0 10.25 19.85 8.95 M18.35 9.8 L19.55 11.35 18.35 9.8" fill="#7c642e" fill-rule="evenodd" stroke="none"/>
      <path d="M15.9 12.05 L16.05 12.25 15.6 12.15 Q14.85 12.05 14.7 11.55 14.6 11.25 14.8 10.75 L14.8 10.55 15.1 10.5 Q15.5 9.9 16.5 10.35 17.0 9.55 17.65 9.65 L18.35 9.8 Q18.75 8.95 19.85 8.95 20.2 8.15 20.9 8.25 L21.4 7.85 Q22.6 8.3 22.1 9.3 L22.0 9.4 21.95 9.55 Q21.65 10.15 21.05 10.25 L21.0 10.25 20.9 10.6 Q20.55 11.3 19.75 11.35 L19.55 11.35 19.35 11.55 Q18.7 12.35 17.65 12.15 L17.6 12.15 17.3 12.3 16.65 12.4 15.9 12.05 M17.6 12.15 Q16.75 11.4 16.5 10.35 M19.55 11.35 L18.35 9.8 M21.0 10.25 L19.85 8.95 M22.0 9.4 Q21.7 8.7 20.9 8.25 M16.05 12.25 Q15.1 11.55 15.1 10.5" fill="none" stroke="#000000" stroke-linecap="round" stroke-linejoin="round" stroke-opacity="0.3019608" stroke-width="0.05"/>
      <path d="M22.55 9.65 L24.35 9.55 23.9 10.35 24.7 10.0 Q25.3 9.1 26.4 8.8 L24.45 9.15 Q23.2 9.25 22.55 9.65 23.2 9.25 24.45 9.15 L21.2 9.35 Q20.7 10.1 20.9 10.2 L22.55 9.65" fill="#b19741" fill-rule="evenodd" stroke="none"/>
      <path d="M26.4 8.8 Q25.3 9.1 24.7 10.0 L23.9 10.35 24.35 9.55 22.55 9.65 Q21.5 10.35 21.45 11.25 21.5 10.35 22.55 9.65 L20.9 10.2 Q20.7 10.1 21.2 9.35 L20.7 9.5 Q19.4 10.2 19.75 11.15 L21.45 11.25 24.55 11.85 25.15 13.0 25.65 11.35 27.0 11.55 26.0 9.95 26.85 8.75 26.4 8.8" fill="#765f2c" fill-rule="evenodd" stroke="none"/>
      <path d="M22.55 9.65 Q23.2 9.25 24.45 9.15 L26.4 8.8 26.85 8.75 26.0 9.95 27.0 11.55 25.65 11.35 25.15 13.0 24.55 11.85 21.45 11.25 Q21.5 10.35 22.55 9.65 M21.2 9.35 L24.45 9.15 M21.2 9.35 L20.7 9.5 Q19.4 10.2 19.75 11.15 L21.45 11.25" fill="none" stroke="#000000" stroke-linecap="round" stroke-linejoin="round" stroke-opacity="0.3019608" stroke-width="0.05"/>
      <path d="M19.7 8.8 L19.5 9.15 19.4 9.2 19.0 9.6 18.75 10.2 18.0 11.9 Q18.05 11.8 18.15 11.85 L19.0 11.2 19.15 10.85 19.25 10.95 19.3 11.0 19.55 11.2 19.55 11.25 19.7 11.1 20.05 10.9 20.7 10.2 Q20.9 8.95 19.7 8.8 M20.05 10.9 Q20.25 10.15 19.4 9.2 20.25 10.15 20.05 10.9 M19.15 10.85 L18.75 10.2 19.15 10.85" fill="#765f2c" fill-rule="evenodd" stroke="none"/>
      <path d="M20.7 10.2 L21.0 9.8 Q21.35 9.1 21.05 8.75 20.65 8.3 19.8 8.45 L19.55 8.55 19.75 8.6 19.7 8.8 Q20.9 8.95 20.7 10.2 M18.0 11.9 L18.0 11.95 18.15 12.0 18.3 12.1 18.85 12.35 19.3 12.3 Q19.8 12.15 19.9 11.5 L19.9 11.35 19.9 11.1 19.85 11.1 19.8 11.25 19.55 11.25 19.55 11.2 19.3 11.0 19.25 10.95 19.15 10.85 19.0 11.2 18.15 11.85 Q18.05 11.8 18.0 11.9 M18.85 12.35 Q19.6 12.0 19.55 11.25 19.6 12.0 18.85 12.35" fill="#b19741" fill-rule="evenodd" stroke="none"/>
      <path d="M20.7 10.2 L21.0 9.8 Q21.35 9.1 21.05 8.75 20.65 8.3 19.8 8.45 L19.55 8.55 19.75 8.6 19.7 8.8 19.5 9.15 19.4 9.2 19.0 9.6 M18.0 11.95 L18.15 12.0 18.3 12.1 18.85 12.35 19.3 12.3 Q19.8 12.15 19.9 11.5 L19.9 11.35 19.9 11.1 M19.85 11.1 L19.8 11.25 19.55 11.25 19.7 11.1 20.05 10.9 20.7 10.2 Q20.9 8.95 19.7 8.8 M18.0 11.9 Q18.05 11.8 18.15 11.85 L19.0 11.2 19.15 10.85 19.25 10.95 19.3 11.0 19.55 11.2 19.55 11.25 Q19.6 12.0 18.85 12.35 M18.75 10.2 L19.15 10.85 M19.4 9.2 Q20.25 10.15 20.05 10.9" fill="none" stroke="#000000" stroke-linecap="round" stroke-linejoin="round" stroke-opacity="0.3019608" stroke-width="0.05"/>
      <path d="M24.55 14.7 L23.4 13.2 Q22.9 11.8 22.05 10.55 L21.05 10.6 Q21.05 10.8 22.2 11.85 L23.05 13.25 22.05 13.1 22.65 13.8 Q23.8 13.85 24.55 14.7 M23.4 13.2 Q22.95 12.2 22.2 11.85 22.95 12.2 23.4 13.2" fill="#b19741" fill-rule="evenodd" stroke="none"/>
      <path d="M22.05 10.55 L21.7 10.2 19.6 10.05 Q20.1 10.4 20.2 11.45 L20.6 14.2 19.65 15.15 21.6 14.95 21.85 16.1 23.2 14.75 24.85 15.05 24.55 14.7 Q23.8 13.85 22.65 13.8 L22.05 13.1 23.05 13.25 22.2 11.85 Q21.05 10.8 21.05 10.6 L22.05 10.55 M20.2 11.45 Q21.1 11.2 22.2 11.85 21.1 11.2 20.2 11.45" fill="#765f2c" fill-rule="evenodd" stroke="none"/>
      <path d="M24.55 14.7 L23.4 13.2 Q22.9 11.8 22.05 10.55 L21.7 10.2 19.6 10.05 Q20.1 10.4 20.2 11.45 L20.6 14.2 19.65 15.15 21.6 14.95 21.85 16.1 23.2 14.75 24.85 15.05 24.55 14.7 M22.2 11.85 Q22.95 12.2 23.4 13.2 M22.2 11.85 Q21.1 11.2 20.2 11.45" fill="none" stroke="#000000" stroke-linecap="round" stroke-linejoin="round" stroke-opacity="0.3019608" stroke-width="0.05"/>
    </g>
  </defs>
</svg>
