<?xml version="1.0" encoding="UTF-8" standalone="no"?>
<svg xmlns:xlink="http://www.w3.org/1999/xlink" height="440.0px" width="440.0px" xmlns="http://www.w3.org/2000/svg">
  <g transform="matrix(10.0, 0.0, 0.0, 10.0, 0.0, 0.0)">
    <use height="44.0" transform="matrix(1.0, 0.0, 0.0, 1.0, 0.0, 0.0)" width="44.0" xlink:href="#shape0"/>
  </g>
  <defs>
    <g id="shape0" transform="matrix(1.0, 0.0, 0.0, 1.0, 0.0, 0.0)">
      <path d="M44.0 44.0 L0.0 44.0 0.0 0.0 44.0 0.0 44.0 44.0" fill="#43adca" fill-opacity="0.0" fill-rule="evenodd" stroke="none"/>
      <path d="M33.0 28.85 L32.95 28.9 32.95 28.85 32.9 28.85 32.9 28.8 32.95 28.85 33.0 28.85 M21.45 24.05 L21.5 24.05 21.5 24.1 21.45 24.05" fill="#3f3534" fill-rule="evenodd" stroke="none"/>
      <path d="M28.5 27.25 L28.25 27.2 28.5 27.25" fill="#d89f07" fill-rule="evenodd" stroke="none"/>
      <path d="M20.9 1.65 Q21.9 2.7 21.45 3.95 L21.4 4.1 21.3 4.2 20.1 4.25 19.55 4.15 Q19.5 2.5 18.2 1.2 L18.2 1.15 Q19.8 1.25 20.9 1.65 M25.65 28.65 L25.7 28.7 25.65 28.7 25.65 28.65" fill="#8f5705" fill-rule="evenodd" stroke="none"/>
      <path d="M25.6 28.7 L25.65 28.65 25.65 28.7 25.6 28.7" fill="#23181c" fill-rule="evenodd" stroke="none"/>
      <path d="M18.2 1.15 L18.2 1.2 18.1 1.15 18.15 1.15 18.2 1.15 M18.2 1.2 L18.15 1.15 18.2 1.2" fill="#b83414" fill-rule="evenodd" stroke="none"/>
      <path d="M24.9 25.3 L24.9 25.2 25.0 25.3 24.9 25.3 M30.0 26.35 L30.05 26.35 30.05 26.4 30.0 26.35 M32.9 28.8 L32.9 28.85 32.9 28.8" fill="#5c5546" fill-rule="evenodd" stroke="none"/>
      <path d="M6.3 2.3 L6.2 2.35 6.2 2.3 6.3 2.3 M12.75 34.75 L12.7 34.75 12.7 34.65 12.75 34.75" fill="#211e19" fill-rule="evenodd" stroke="none"/>
      <path d="M32.9 28.85 L31.8 28.6 31.2 28.6 30.7 28.7 30.7 28.5 Q30.65 28.15 30.3 27.95 L30.1 27.9 29.1 27.5 28.5 27.25 28.25 27.2 27.95 27.05 27.1 26.6 25.4 25.6 25.0 25.3 24.9 25.2 23.4 24.0 23.05 23.6 22.75 23.3 22.15 22.7 Q22.0 20.05 23.25 19.0 26.15 22.8 30.0 26.35 L30.05 26.4 30.15 26.45 30.4 26.65 30.55 26.8 30.8 27.05 31.8 27.9 32.05 28.15 32.9 28.8 32.9 28.85" fill="#c76b19" fill-rule="evenodd" stroke="none"/>
      <path d="M9.75 9.75 L10.3 9.85 11.7 10.7 11.95 11.0 14.1 16.0 14.2 16.45 Q14.3 17.25 15.6 19.5 L16.95 21.6 18.35 22.7 19.75 23.65 20.8 24.35 21.25 24.65 22.7 25.9 22.35 26.05 Q21.75 26.25 21.55 26.4 L21.4 26.5 20.75 26.9 18.45 28.75 17.85 29.4 17.3 30.05 16.9 30.6 15.7 29.65 15.3 29.35 15.0 29.0 Q11.8 26.05 10.9 23.05 L10.35 21.15 Q10.7 14.4 9.75 9.75" fill="#a54f16" fill-rule="evenodd" stroke="none"/>
      <path d="M6.3 2.3 Q8.8 2.4 11.9 4.4 L12.85 5.0 Q15.9 7.0 18.9 6.95 L19.7 6.9 21.25 6.6 Q22.2 5.8 22.3 4.25 23.1 6.05 22.3 8.5 L21.0 11.0 20.7 11.5 20.45 11.85 19.55 13.0 18.95 13.6 18.25 13.3 17.1 12.7 16.5 12.3 15.6 11.45 14.25 9.5 14.15 9.2 17.15 10.7 17.55 10.7 19.2 10.3 19.6 10.05 19.9 9.8 20.9 8.8 19.8 8.4 19.05 8.2 Q14.25 6.7 13.1 7.85 L13.7 10.2 14.05 11.8 Q14.25 14.25 15.2 16.55 16.4 19.45 18.5 21.7 L20.4 23.25 21.45 24.05 21.5 24.1 21.95 24.4 23.9 25.5 22.7 25.9 21.25 24.65 20.8 24.35 19.75 23.65 18.35 22.7 16.95 21.6 15.6 19.5 Q14.3 17.25 14.2 16.45 L14.1 16.0 11.95 11.0 11.7 10.7 10.3 9.85 9.75 9.75 9.65 9.15 6.2 2.35 6.3 2.3 M22.05 17.35 L22.25 17.65 23.25 19.0 Q22.0 20.05 22.15 22.7 21.95 19.8 22.05 17.35 M10.35 21.15 L10.9 23.05 Q11.8 26.05 15.0 29.0 L15.3 29.35 15.7 29.65 16.9 30.6 Q14.6 33.9 12.75 34.75 L12.7 34.65 Q12.85 33.35 14.35 32.95 L13.2 32.4 12.8 32.05 12.45 31.75 Q10.85 30.25 10.0 27.2 L10.1 24.2 10.35 21.15" fill="#994613" fill-rule="evenodd" stroke="none"/>
      <path d="M36.3 31.5 L35.25 31.25 33.95 31.35 32.3 31.75 30.1 30.0 30.7 28.7 31.2 28.6 31.8 28.6 32.9 28.85 32.95 28.85 32.95 28.9 33.0 28.85 36.3 31.5 M23.9 25.5 L24.6 25.35 24.9 25.3 25.0 25.3 25.4 25.6 27.1 26.6 27.95 27.05 28.25 27.2 27.8 27.1 27.0 26.8 25.1 26.1 23.9 25.5" fill="#8bc92e" fill-rule="evenodd" stroke="none"/>
      <path d="M30.1 30.0 L32.3 31.75 Q31.05 32.2 29.65 32.95 28.2 33.75 27.9 33.6 L27.8 33.35 Q27.85 32.9 28.95 31.5 L30.1 30.0 M16.9 30.6 L17.3 30.05 17.85 29.4 18.45 28.75 20.75 26.9 21.4 26.5 21.55 26.4 Q21.75 26.25 22.35 26.05 L22.7 25.9 23.7 26.65 24.25 27.1 25.3 28.1 25.4 28.35 25.65 28.65 25.6 28.7 24.5 29.3 24.15 29.55 21.9 31.4 21.6 31.75 20.75 32.7 20.5 33.05 18.9 32.05 16.9 30.6" fill="#689c24" fill-rule="evenodd" stroke="none"/>
      <path d="M22.7 25.9 L23.9 25.5 25.1 26.1 27.0 26.8 27.8 27.1 28.25 27.2 28.5 27.25 29.1 27.5 30.1 27.9 28.95 27.85 28.05 28.0 25.8 28.6 25.7 28.7 25.65 28.65 25.4 28.35 25.3 28.1 24.25 27.1 23.7 26.65 22.7 25.9 M12.7 34.75 L12.75 34.75 Q14.6 33.9 16.9 30.6 L18.9 32.05 20.5 33.05 Q16.25 39.15 13.5 37.15 L13.05 36.7 Q12.6 35.55 12.7 34.75" fill="#578a1f" fill-rule="evenodd" stroke="none"/>
      <path d="M33.95 31.35 L35.25 31.25 36.3 31.5 36.35 31.5 36.4 31.5 Q36.9 31.9 35.9 33.05 L33.95 31.35 M30.7 28.7 L30.1 30.0 28.95 31.5 Q27.85 32.9 27.8 33.35 27.6 31.5 26.95 30.2 L26.85 30.0 26.1 28.95 25.8 28.6 28.05 28.0 28.95 27.85 30.1 27.9 30.3 27.95 Q30.65 28.15 30.7 28.5 L30.7 28.7 M12.7 34.65 L12.7 34.75 Q12.6 35.55 13.05 36.7 L11.7 35.05 11.0 33.55 10.85 33.1 Q10.05 30.7 10.0 27.2 10.85 30.25 12.45 31.75 L12.8 32.05 13.2 32.4 14.35 32.95 Q12.85 33.35 12.7 34.65" fill="#5e2b19" fill-rule="evenodd" stroke="none"/>
      <path d="M19.55 4.15 L20.1 4.25 21.3 4.2 21.4 4.1 21.45 3.95 Q21.9 2.7 20.9 1.65 22.65 2.2 23.1 3.35 23.75 5.1 22.6 12.95 L22.25 15.35 22.05 17.35 Q21.95 19.8 22.15 22.7 L22.75 23.3 23.05 23.6 23.4 24.0 24.9 25.2 24.9 25.3 24.6 25.35 23.9 25.5 21.95 24.4 21.5 24.1 21.5 24.05 21.45 24.05 20.4 23.25 18.5 21.7 Q16.4 19.45 15.2 16.55 14.25 14.25 14.05 11.8 L13.7 10.2 13.1 7.85 Q14.25 6.7 19.05 8.2 L19.8 8.4 20.9 8.8 19.9 9.8 19.6 10.05 19.2 10.3 17.55 10.7 17.15 10.7 14.15 9.2 14.25 9.5 15.6 11.45 16.5 12.3 17.1 12.7 18.25 13.3 18.95 13.6 19.55 13.0 20.45 11.85 20.7 11.5 21.0 11.0 22.3 8.5 Q23.1 6.05 22.3 4.25 22.2 5.8 21.25 6.6 L19.7 6.9 18.9 6.95 Q15.9 7.0 12.85 5.0 L11.9 4.4 Q8.8 2.4 6.3 2.3 11.45 1.9 15.9 3.1 L16.1 3.15 17.0 3.45 18.0 3.8 18.55 3.95 19.55 4.15 M19.65 18.8 L20.45 20.25 22.15 22.7 20.45 20.25 19.65 18.8" fill="url(#gradient0)" fill-rule="evenodd" stroke="none"/>
      <path d="M33.95 31.35 L35.25 31.25 36.3 31.5 M30.7 28.7 L30.1 30.0 28.95 31.5 Q27.85 32.9 27.8 33.35 M24.9 25.2 L23.4 24.0 23.05 23.6 22.75 23.3 22.15 22.7 20.45 20.25 19.65 18.8 M28.25 27.2 L27.95 27.05 27.1 26.6 25.4 25.6 25.0 25.3 24.9 25.2 M25.8 28.6 L28.05 28.0 28.95 27.85 30.1 27.9 29.1 27.5 28.5 27.25 M30.1 27.9 L30.3 27.95 Q30.65 28.15 30.7 28.5 L30.7 28.7 M28.25 27.2 L28.5 27.25 M22.05 17.35 Q21.95 19.8 22.15 22.7" fill="none" stroke="#000000" stroke-linecap="round" stroke-linejoin="round" stroke-opacity="0.15294118" stroke-width="0.25"/>
      <path d="M36.3 31.5 L33.0 28.85 M32.3 31.75 L33.95 31.35 35.9 33.05 Q36.9 31.9 36.4 31.5 L36.35 31.5 36.3 31.5 M20.9 1.65 Q19.8 1.25 18.2 1.15 M18.2 1.2 Q19.5 2.5 19.55 4.15 L18.55 3.95 18.0 3.8 17.0 3.45 16.1 3.15 15.9 3.1 Q11.45 1.9 6.3 2.3 M20.9 1.65 Q22.65 2.2 23.1 3.35 23.75 5.1 22.6 12.95 L22.25 15.35 22.05 17.35 22.25 17.65 23.25 19.0 Q26.15 22.8 30.0 26.35 L30.05 26.35 30.15 26.45 30.4 26.65 30.55 26.8 30.8 27.05 31.8 27.9 32.05 28.15 32.9 28.8 32.95 28.85 33.0 28.85 M18.2 1.2 L18.1 1.15 18.15 1.15 18.2 1.15 M18.15 1.15 L18.2 1.2 M6.2 2.35 L9.65 9.15 9.75 9.75 M6.2 2.35 L6.2 2.3 6.3 2.3 M25.7 28.7 L25.8 28.6 M10.0 27.2 L10.1 24.2 10.35 21.15 Q10.7 14.4 9.75 9.75 M12.7 34.65 L12.7 34.75 Q12.6 35.55 13.05 36.7 L13.5 37.15 Q16.25 39.15 20.5 33.05 M12.7 34.65 Q12.85 33.35 14.35 32.95 L13.2 32.4 12.8 32.05 12.45 31.75 Q10.85 30.25 10.0 27.2 10.05 30.7 10.85 33.1 L11.0 33.55 11.7 35.05 13.05 36.7 M25.65 28.7 L25.7 28.7 M25.65 28.7 L25.6 28.7 24.5 29.3 24.15 29.55 21.9 31.4 21.6 31.75 20.75 32.7 20.5 33.05 M27.8 33.35 Q27.6 31.5 26.95 30.2 L26.85 30.0 26.1 28.95 25.8 28.6 M27.8 33.35 L27.9 33.6 Q28.2 33.75 29.65 32.95 31.05 32.2 32.3 31.75" fill="none" stroke="#000000" stroke-linecap="round" stroke-linejoin="round" stroke-opacity="0.3019608" stroke-width="0.5"/>
      <path d="M23.5 17.8 L24.3 18.35 Q24.4 19.7 24.85 20.9 L24.0 20.25 24.3 21.0 25.6 24.6 Q26.6 26.8 25.45 25.8 23.4 23.75 22.25 21.85 21.95 24.2 21.1 25.95 L20.95 26.15 Q18.5 20.85 18.85 17.7 L18.95 17.6 Q17.45 16.05 16.55 13.45 L16.1 11.9 Q15.75 10.1 15.9 8.6 16.15 6.4 17.45 5.95 L17.65 5.9 18.15 5.65 Q19.4 5.15 21.0 6.7 22.55 8.25 23.5 10.9 24.45 13.55 24.2 15.7 24.05 17.1 23.5 17.8" fill="#000000" fill-opacity="0.3019608" fill-rule="evenodd" stroke="none"/>
      <path d="M23.85 18.55 L20.05 14.3 22.8 16.0 26.25 18.25 Q30.75 22.25 30.1 22.1 26.35 20.95 23.85 18.55" fill="#247d62" fill-rule="evenodd" stroke="none"/>
      <path d="M23.85 18.55 Q26.35 20.95 30.1 22.1 30.75 22.25 26.25 18.25 L22.8 16.0 20.05 14.3 23.85 18.55 Z" fill="none" stroke="#000000" stroke-linecap="round" stroke-linejoin="round" stroke-opacity="0.3019608" stroke-width="0.05"/>
      <path d="M22.05 18.35 L21.4 13.4 23.2 16.3 25.4 20.3 26.7 23.9 Q27.7 26.1 26.55 25.15 22.95 21.5 22.05 18.35" fill="#8bc92e" fill-rule="evenodd" stroke="none"/>
      <path d="M22.05 18.35 Q22.95 21.5 26.55 25.15 27.7 26.1 26.7 23.9 L25.4 20.3 23.2 16.3 21.4 13.4 22.05 18.35 Z" fill="none" stroke="#000000" stroke-linecap="round" stroke-linejoin="round" stroke-opacity="0.3019608" stroke-width="0.05"/>
      <path d="M19.95 17.05 Q20.25 16.65 21.8 16.1 L23.35 15.75 Q23.95 21.7 22.2 25.3 23.25 18.95 22.9 16.9 L22.35 17.85 22.35 16.75 Q21.5 16.25 19.95 17.05" fill="#666633" fill-rule="evenodd" stroke="none"/>
      <path d="M22.2 25.3 L22.05 25.45 Q19.55 20.1 19.95 17.05 21.5 16.25 22.35 16.75 L22.35 17.85 22.9 16.9 Q23.25 18.95 22.2 25.3 M20.4 19.05 Q20.8 21.5 21.75 24.3 L22.0 17.0 Q20.8 17.0 20.4 19.05" fill="#8bc92e" fill-rule="evenodd" stroke="none"/>
      <path d="M20.4 19.05 Q20.8 17.0 22.0 17.0 L21.75 24.3 Q20.8 21.5 20.4 19.05" fill="#cfeaa6" fill-rule="evenodd" stroke="none"/>
      <path d="M23.35 15.75 Q23.95 21.7 22.2 25.3 L22.05 25.45 Q19.55 20.1 19.95 17.05" fill="none" stroke="#000000" stroke-linecap="round" stroke-linejoin="round" stroke-opacity="0.3019608" stroke-width="0.05"/>
      <path d="M17.15 11.2 L23.25 9.3 23.8 10.6 Q24.65 13.2 24.45 15.4 24.2 17.35 23.65 17.8 L22.85 18.1 Q21.6 18.5 20.05 17.0 18.55 15.45 17.6 12.75 L17.15 11.2" fill="#76351b" fill-rule="evenodd" stroke="none"/>
      <path d="M23.25 9.3 L17.15 11.2 Q16.8 9.45 16.95 7.95 17.2 5.7 18.45 5.25 19.8 4.85 21.35 6.35 22.5 7.55 23.25 9.3" fill="#c76b19" fill-rule="evenodd" stroke="none"/>
      <path d="M17.15 11.2 L17.6 12.75 Q18.55 15.45 20.05 17.0 21.6 18.5 22.85 18.1 L23.65 17.8 Q24.2 17.35 24.45 15.4 24.65 13.2 23.8 10.6 L23.25 9.3 Q22.5 7.55 21.35 6.35 19.8 4.85 18.45 5.25 17.2 5.7 16.95 7.95 16.8 9.45 17.15 11.2 Z" fill="none" stroke="#000000" stroke-linecap="round" stroke-linejoin="round" stroke-opacity="0.3019608" stroke-width="0.05"/>
      <path d="M19.2 4.95 Q20.45 4.5 22.05 6.0 23.65 7.6 24.6 10.2 25.55 12.85 25.3 15.0 25.0 17.25 23.75 17.7 22.45 18.15 20.9 16.6 19.35 15.05 18.4 12.4 17.45 9.8 17.65 7.6 17.9 5.4 19.2 4.95" fill="#ffffff" fill-rule="evenodd" stroke="none"/>
      <path d="M19.2 4.95 Q20.45 4.5 22.05 6.0 23.65 7.6 24.6 10.2 25.55 12.85 25.3 15.0 25.0 17.25 23.75 17.7 22.45 18.15 20.9 16.6 19.35 15.05 18.4 12.4 17.45 9.8 17.65 7.6 17.9 5.4 19.2 4.95 Z" fill="none" stroke="#000000" stroke-linecap="round" stroke-linejoin="round" stroke-opacity="0.3019608" stroke-width="0.05"/>
      <path d="M21.75 6.55 Q23.25 8.0 24.1 10.4 24.95 12.8 24.7 14.8 24.55 16.8 23.35 17.2 22.2 17.65 20.7 16.25 19.3 14.85 18.45 12.45 17.6 10.05 17.75 8.0 18.0 6.0 19.15 5.55 20.35 5.15 21.75 6.55" fill="#d8a863" fill-rule="evenodd" stroke="none"/>
      <path d="M21.75 6.55 Q23.25 8.0 24.1 10.4 24.95 12.8 24.7 14.8 24.55 16.8 23.35 17.2 22.2 17.65 20.7 16.25 19.3 14.85 18.45 12.45 17.6 10.05 17.75 8.0 18.0 6.0 19.15 5.55 20.35 5.15 21.75 6.55 Z" fill="none" stroke="#9f2462" stroke-linecap="round" stroke-linejoin="round" stroke-opacity="0.3019608" stroke-width="0.05"/>
      <path d="M21.85 6.95 Q23.15 8.25 23.95 10.5 24.75 12.7 24.55 14.55 24.4 16.45 23.3 16.8 22.2 17.2 20.85 15.9 19.55 14.55 18.75 12.35 17.95 10.1 18.15 8.3 18.3 6.4 19.4 6.0 20.5 5.65 21.85 6.95" fill="#fbf1bf" fill-rule="evenodd" stroke="none"/>
      <path d="M21.85 6.95 Q23.15 8.25 23.95 10.5 24.75 12.7 24.55 14.55 24.4 16.45 23.3 16.8 22.2 17.2 20.85 15.9 19.55 14.55 18.75 12.35 17.95 10.1 18.15 8.3 18.3 6.4 19.4 6.0 20.5 5.65 21.85 6.95 Z" fill="none" stroke="#9f2462" stroke-linecap="round" stroke-linejoin="round" stroke-opacity="0.3019608" stroke-width="0.05"/>
      <path d="M21.45 8.6 Q22.3 9.4 22.85 10.85 23.35 12.25 23.2 13.45 23.1 14.65 22.4 14.9 21.7 15.15 20.85 14.3 20.0 13.45 19.5 12.05 18.95 10.6 19.1 9.45 19.25 8.25 19.95 8.0 20.65 7.75 21.45 8.6" fill="#ddb477" fill-rule="evenodd" stroke="none"/>
      <path d="M21.45 8.6 Q22.3 9.4 22.85 10.85 23.35 12.25 23.2 13.45 23.1 14.65 22.4 14.9 21.7 15.15 20.85 14.3 20.0 13.45 19.5 12.05 18.95 10.6 19.1 9.45 19.25 8.25 19.95 8.0 20.65 7.75 21.45 8.6 Z" fill="none" stroke="#9f2462" stroke-linecap="round" stroke-linejoin="round" stroke-opacity="0.3019608" stroke-width="0.05"/>
      <path d="M21.2 9.25 L22.25 11.05 22.6 13.15 Q22.5 14.15 21.95 14.35 21.35 14.55 20.7 13.8 20.0 13.15 19.6 12.0 19.2 10.9 19.3 9.9 19.35 9.0 19.95 8.8 20.5 8.6 21.2 9.25" fill="#d8ca7c" fill-rule="evenodd" stroke="none"/>
      <path d="M21.2 9.25 L22.25 11.05 22.6 13.15 Q22.5 14.15 21.95 14.35 21.35 14.55 20.7 13.8 20.0 13.15 19.6 12.0 19.2 10.9 19.3 9.9 19.35 9.0 19.95 8.8 20.5 8.6 21.2 9.25 Z" fill="none" stroke="#9f2462" stroke-linecap="round" stroke-linejoin="round" stroke-opacity="0.3019608" stroke-width="0.05"/>
      <path d="M21.05 10.8 L21.4 11.4 21.5 12.05 21.3 12.45 20.9 12.3 20.55 11.7 20.45 11.05 20.65 10.7 Q20.85 10.6 21.05 10.8" fill="#dfb87d" fill-rule="evenodd" stroke="none"/>
      <path d="M21.05 10.8 L21.4 11.4 21.5 12.05 21.3 12.45 20.9 12.3 20.55 11.7 20.45 11.05 20.65 10.7 Q20.85 10.6 21.05 10.8 Z" fill="none" stroke="#9f2462" stroke-linecap="round" stroke-linejoin="round" stroke-opacity="0.3019608" stroke-width="0.05"/>
      <path d="M36.75 31.15 L39.05 33.5 37.5 32.8 35.45 31.8 33.65 30.4 Q32.55 29.75 33.15 29.7 35.2 29.8 36.75 31.15" fill="#8bc92e" fill-rule="evenodd" stroke="none"/>
      <path d="M36.75 31.15 Q35.2 29.8 33.15 29.7 32.55 29.75 33.65 30.4 L35.45 31.8 37.5 32.8 39.05 33.5 36.75 31.15 Z" fill="none" stroke="#000000" stroke-linecap="round" stroke-linejoin="round" stroke-opacity="0.3019608" stroke-width="0.05"/>
      <path d="M39.3 35.75 L39.35 36.0 Q35.05 34.45 32.85 32.1 32.6 30.35 33.1 30.0 L33.9 30.75 33.3 29.7 Q34.9 30.75 39.3 35.75 M33.25 30.45 Q33.0 31.4 34.4 33.05 36.3 34.4 38.5 35.45 L33.25 30.45" fill="#8bc92e" fill-rule="evenodd" stroke="none"/>
      <path d="M32.85 32.1 Q32.6 31.6 32.55 30.05 L32.6 28.6 Q37.05 32.05 39.3 35.75 34.9 30.75 33.3 29.7 L33.9 30.75 33.1 30.0 Q32.6 30.35 32.85 32.1" fill="#689c24" fill-rule="evenodd" stroke="none"/>
      <path d="M33.25 30.45 L38.5 35.45 Q36.3 34.4 34.4 33.05 33.0 31.4 33.25 30.45" fill="#cfeaa6" fill-rule="evenodd" stroke="none"/>
      <path d="M32.6 28.6 Q37.05 32.05 39.3 35.75 L39.35 36.0 Q35.05 34.45 32.85 32.1" fill="none" stroke="#000000" stroke-linecap="round" stroke-linejoin="round" stroke-opacity="0.3019608" stroke-width="0.05"/>
      <path d="M34.55 31.4 L34.75 31.6 29.6 30.7 30.65 32.15 32.1 34.2 29.65 33.6 27.15 31.2 Q26.5 31.05 25.6 28.15 L26.15 29.15 Q25.9 28.55 25.8 27.65 L25.8 26.7 26.95 27.3 25.95 26.35 Q28.1 27.05 34.55 31.4 M29.6 30.7 Q27.65 30.1 26.15 29.15 27.65 30.1 29.6 30.7 M23.05 39.55 Q20.05 32.05 19.75 29.6 L20.5 30.8 20.1 29.45 Q20.3 29.3 20.65 29.3 21.25 29.4 22.25 30.05 L20.7 29.0 21.1 29.0 Q24.1 30.4 25.25 32.85 L25.9 34.2 26.1 36.9 24.45 35.15 23.1 33.6 Q23.45 36.3 23.25 39.75 L23.05 39.55 M15.2 32.8 L15.5 32.4 Q16.05 32.65 16.8 33.5 17.15 37.4 15.25 43.1 L15.1 42.85 14.55 37.3 14.4 33.7 14.4 33.65 14.8 33.25 15.2 32.85 15.45 41.8 Q16.2 38.75 16.45 35.8 16.1 33.25 15.2 32.8 M26.1 27.2 L26.1 27.4 Q26.3 28.45 28.2 29.8 L29.2 30.15 33.6 31.25 26.1 27.2 M20.5 29.8 L23.1 38.45 22.6 33.05 22.5 32.4 Q21.8 30.65 21.1 30.1 L20.5 29.8 M22.25 30.05 L23.1 33.6 22.25 30.05" fill="#8bc92e" fill-rule="evenodd" stroke="none"/>
      <path d="M14.25 38.55 L14.1 39.3 13.55 41.45 13.2 37.4 Q13.25 35.65 13.95 34.0 L13.95 33.95 14.3 33.75 14.0 34.0 14.25 38.55" fill="#528a1f" fill-rule="evenodd" stroke="none"/>
      <path d="M15.2 32.85 L15.2 32.8 Q16.1 33.25 16.45 35.8 16.2 38.75 15.45 41.8 L15.2 32.85 M26.1 27.2 L33.6 31.25 29.2 30.15 28.2 29.8 Q26.3 28.45 26.1 27.4 L26.1 27.2 M20.5 29.8 L21.1 30.1 Q21.8 30.65 22.5 32.4 L22.6 33.05 23.1 38.45 20.5 29.8" fill="#cfeaa6" fill-rule="evenodd" stroke="none"/>
      <path d="M25.6 28.15 L25.2 26.95 24.8 25.3 Q30.9 27.85 34.55 31.4 28.1 27.05 25.95 26.35 L26.95 27.3 25.8 26.7 25.8 27.65 Q25.9 28.55 26.15 29.15 L25.6 28.15 M19.0 28.4 L19.7 28.6 20.7 29.0 22.25 30.05 Q21.25 29.4 20.65 29.3 20.3 29.3 20.1 29.45 L20.5 30.8 19.75 29.6 Q20.05 32.05 23.05 39.55 20.45 35.25 19.0 28.4 M15.5 32.4 L15.7 32.15 16.8 33.5 Q16.05 32.65 15.5 32.4 M15.1 42.85 Q14.55 40.9 14.25 38.55 L14.0 34.0 14.3 33.75 14.4 33.65 14.4 33.7 14.55 37.3 15.1 42.85" fill="#689c24" fill-rule="evenodd" stroke="none"/>
      <path d="M29.6 30.7 L30.65 32.15 32.1 34.2 29.65 33.6 27.15 31.2 M20.7 29.0 L21.1 29.0 Q24.1 30.4 25.25 32.85 L25.9 34.2 26.1 36.9 24.45 35.15 23.1 33.6 M14.25 38.55 L14.1 39.3 13.55 41.45 13.2 37.4 Q13.25 35.65 13.95 34.0 L13.95 33.95" fill="none" stroke="#000000" stroke-linecap="round" stroke-linejoin="round" stroke-opacity="0.3019608" stroke-width="0.05"/>
      <path d="M34.55 31.4 L34.75 31.6 29.6 30.7 M24.8 25.3 Q30.9 27.85 34.55 31.4 M26.15 29.15 Q27.65 30.1 29.6 30.7 M19.0 28.4 Q20.45 35.25 23.05 39.55 M23.1 33.6 Q23.45 36.3 23.25 39.75 L23.05 39.55 M16.8 33.5 Q17.15 37.4 15.25 43.1 L15.1 42.85 Q14.55 40.9 14.25 38.55 M23.1 33.6 L22.25 30.05 M14.0 34.0 L14.25 38.55" fill="none" stroke="#000000" stroke-linecap="round" stroke-linejoin="round" stroke-opacity="0.3019608" stroke-width="0.05"/>
    </g>
    <linearGradient gradientTransform="matrix(-9.0E-4, -0.0113, 0.0102, -9.0E-4, 15.3, 9.35)" gradientUnits="userSpaceOnUse" id="gradient0" spreadMethod="pad" x1="-819.2" x2="819.2">
      <stop offset="0.0" stop-color="#c76b19"/>
      <stop offset="1.0" stop-color="#ff8621"/>
    </linearGradient>
  </defs>
</svg>
