<?xml version="1.0" encoding="UTF-8" standalone="no"?>
<svg xmlns:xlink="http://www.w3.org/1999/xlink" height="520.0px" width="520.0px" xmlns="http://www.w3.org/2000/svg">
  <g transform="matrix(10.0, 0.0, 0.0, 10.0, 0.0, 0.0)">
    <use height="52.0" transform="matrix(1.0, 0.0, 0.0, 1.0, 0.0, 0.0)" width="52.0" xlink:href="#sprite0"/>
  </g>
  <defs>
    <g id="sprite0" transform="matrix(1.0, 0.0, 0.0, 1.0, 0.0, 0.0)">
      <use height="52.0" transform="matrix(1.0, 0.0, 0.0, 1.0, 0.0, 0.0)" width="52.0" xlink:href="#sprite1"/>
      <use height="46.3" transform="matrix(1.0, 0.0, 0.0, 1.0, 3.1, 3.0)" width="46.1" xlink:href="#shape1"/>
      <use height="46.8" transform="matrix(0.1332, -0.2455, 0.297, 0.1252, 10.65, 14.9)" width="46.8" xlink:href="#sprite2"/>
      <use height="47.05" transform="matrix(1.0, 0.0, 0.0, 1.0, 2.6, 2.75)" width="47.1" xlink:href="#shape3"/>
    </g>
    <g id="sprite1" transform="matrix(1.0, 0.0, 0.0, 1.0, 0.0, 0.0)">
      <use height="52.0" transform="matrix(1.0, 0.0, 0.0, 1.0, 0.0, 0.0)" width="52.0" xlink:href="#shape0"/>
    </g>
    <g id="shape0" transform="matrix(1.0, 0.0, 0.0, 1.0, 0.0, 0.0)">
      <path d="M52.0 0.0 L52.0 52.0 0.0 52.0 0.0 0.0 52.0 0.0" fill="#ffba2e" fill-opacity="0.0" fill-rule="evenodd" stroke="none"/>
    </g>
    <g id="shape1" transform="matrix(1.0, 0.0, 0.0, 1.0, -3.1, -3.0)">
      <path d="M45.8 36.85 L40.95 26.5 25.25 13.55 22.25 14.25 46.8 46.35 45.8 36.85" fill="#2e393d" fill-rule="evenodd" stroke="none"/>
      <path d="M46.7 28.7 L41.1 21.3 26.45 14.8 24.25 16.25 49.2 36.45 46.7 28.7" fill="#252f30" fill-rule="evenodd" stroke="none"/>
      <path d="M44.05 19.65 L39.0 14.7 27.45 13.9 26.0 16.1 46.9 26.1 44.05 19.65" fill="#1e2526" fill-rule="evenodd" stroke="none"/>
      <path d="M26.35 11.7 L26.4 13.55 42.2 16.15 37.95 12.05 33.2 10.85 26.35 11.7" fill="#0f1313" fill-rule="evenodd" stroke="none"/>
      <path d="M30.25 23.55 L28.3 18.35 21.65 12.75 20.3 13.4 30.55 28.55 30.25 23.55" fill="#252f30" fill-rule="evenodd" stroke="none"/>
      <path d="M31.5 18.75 L28.95 15.0 22.15 12.3 21.1 13.2 32.55 22.85 31.5 18.75" fill="#161c1d" fill-rule="evenodd" stroke="none"/>
      <path d="M32.2 15.2 L29.5 12.35 22.85 11.5 21.95 12.65 33.55 18.7 32.2 15.2" fill="#131717" fill-rule="evenodd" stroke="none"/>
      <path d="M22.8 10.7 L22.15 11.5 31.3 13.4 30.05 11.4 27.5 10.6 22.8 10.7" fill="#040404" fill-rule="evenodd" stroke="none"/>
      <path d="M26.1 10.8 L17.75 9.8 16.95 12.95 22.05 17.6 25.4 17.0 25.2 13.25 26.1 10.8" fill="#1a2122" fill-rule="evenodd" stroke="none"/>
      <path d="M22.9 13.05 L20.25 11.65 19.65 13.25 20.4 14.7 18.8 13.2 19.8 10.65 24.7 12.8 21.45 9.15 17.35 9.55 16.9 12.95 20.05 16.2 22.85 15.35 22.9 13.05" fill="#2e393d" fill-rule="evenodd" stroke="none"/>
      <path d="M35.1 27.4 Q35.25 27.7 35.05 27.9 L34.55 28.0 33.8 27.7 33.3 27.1 32.65 25.9 Q32.2 24.95 33.15 25.7 L34.6 26.75 35.1 27.4" fill="#8eb9cb" fill-rule="evenodd" stroke="none"/>
      <path d="M36.8 22.6 L36.9 23.15 Q36.85 23.35 36.45 23.4 L35.7 23.25 35.1 22.75 34.2 21.55 Q33.45 20.7 34.55 21.25 L36.15 22.05 36.8 22.6" fill="#8eb9cb" fill-rule="evenodd" stroke="none"/>
      <path d="M36.9 17.05 L37.3 17.55 37.15 18.05 36.55 18.25 35.8 18.0 34.5 17.25 Q33.45 16.65 34.55 16.75 L36.1 16.85 36.9 17.05" fill="#8eb9cb" fill-rule="evenodd" stroke="none"/>
      <path d="M33.9 12.0 Q34.3 12.0 34.6 12.25 L34.85 12.8 34.55 13.2 33.9 13.35 32.35 13.25 Q31.2 13.2 32.05 12.7 L33.2 12.1 33.9 12.0" fill="#8eb9cb" fill-rule="evenodd" stroke="none"/>
      <path d="M32.45 7.15 Q33.35 8.35 33.75 10.1 32.85 11.75 30.9 12.5 29.25 2.75 32.45 7.15" fill="#2e393d" fill-rule="evenodd" stroke="none"/>
      <path d="M32.45 7.15 Q33.35 8.35 33.75 10.1 32.85 11.75 30.9 12.5 29.25 2.75 32.45 7.15 Z" fill="none" stroke="#000000" stroke-linecap="round" stroke-linejoin="round" stroke-opacity="0.3019608" stroke-width="0.05"/>
      <path d="M23.1 9.9 L22.05 9.35 Q22.25 3.85 24.35 3.4 26.65 2.9 29.1 4.15 L30.7 5.3 Q28.8 5.55 23.1 9.9 M30.95 5.45 Q31.95 6.4 32.55 7.7 L32.65 7.95 Q28.1 12.15 23.4 10.05 29.05 5.7 30.95 5.45" fill="#21292c" fill-rule="evenodd" stroke="none"/>
      <path d="M22.0 10.8 L22.0 10.6 22.05 9.35 23.1 9.9 22.0 10.8 M32.65 7.95 Q33.3 9.2 33.4 10.45 30.75 13.7 22.85 13.9 L22.45 13.65 22.0 11.05 23.4 10.05 Q28.1 12.15 32.65 7.95" fill="#0f1313" fill-rule="evenodd" stroke="none"/>
      <path d="M22.0 10.8 L23.1 9.9 Q28.8 5.55 30.7 5.3 L30.75 5.35 30.95 5.45 Q29.05 5.7 23.4 10.05 L22.0 11.05 22.05 10.85 22.0 10.8 M33.4 10.45 L33.65 10.7 33.7 10.8 32.45 11.9 Q30.45 13.35 27.2 13.85 L24.65 14.15 22.95 14.2 22.85 13.9 Q30.75 13.7 33.4 10.45" fill="#3fabb0" fill-rule="evenodd" stroke="none"/>
      <path d="M22.05 9.35 Q22.25 3.85 24.35 3.4 26.65 2.9 29.1 4.15 L30.7 5.3 M30.75 5.35 L30.95 5.45 Q31.95 6.4 32.55 7.7 L32.65 7.95 Q33.3 9.2 33.4 10.45 L33.65 10.7" fill="none" stroke="#000000" stroke-linecap="round" stroke-linejoin="round" stroke-opacity="0.3019608" stroke-width="0.5"/>
      <path d="M22.85 13.9 Q30.75 13.7 33.4 10.45" fill="none" stroke="#000000" stroke-linecap="round" stroke-linejoin="round" stroke-opacity="0.3019608" stroke-width="0.05"/>
      <path d="M26.8 13.6 L22.8 13.95 Q22.15 7.8 26.8 13.6" fill="#2e393d" fill-rule="evenodd" stroke="none"/>
      <path d="M26.8 13.6 L22.8 13.95 Q22.15 7.8 26.8 13.6 Z" fill="none" stroke="#000000" stroke-linecap="round" stroke-linejoin="round" stroke-opacity="0.3019608" stroke-width="0.05"/>
      <path d="M26.75 13.7 Q24.05 3.45 30.75 12.55 28.75 13.45 26.75 13.7" fill="#2e393d" fill-rule="evenodd" stroke="none"/>
      <path d="M26.75 13.7 Q24.05 3.45 30.75 12.55 28.75 13.45 26.75 13.7 Z" fill="none" stroke="#000000" stroke-linecap="round" stroke-linejoin="round" stroke-opacity="0.3019608" stroke-width="0.05"/>
      <path d="M31.8 7.75 Q32.8 8.8 33.45 10.5 32.65 11.75 30.75 12.55 28.05 3.95 31.8 7.75" fill="#2e393d" fill-rule="evenodd" stroke="none"/>
      <path d="M31.8 7.75 Q32.8 8.8 33.45 10.5 32.65 11.75 30.75 12.55 28.05 3.95 31.8 7.75 Z" fill="none" stroke="#000000" stroke-linecap="round" stroke-linejoin="round" stroke-opacity="0.3019608" stroke-width="0.05"/>
      <path d="M27.3 8.9 L26.95 8.7 26.6 8.9 26.55 9.4 26.8 9.9 27.4 10.75 Q27.9 11.45 27.75 10.65 L27.55 9.5 27.3 8.9" fill="#8eb9cb" fill-rule="evenodd" stroke="none"/>
      <path d="M30.9 7.35 L30.55 7.15 30.25 7.35 30.25 7.75 30.4 8.2 31.0 8.9 Q31.4 9.5 31.3 8.8 L31.1 7.85 30.9 7.35" fill="#8eb9cb" fill-rule="evenodd" stroke="none"/>
      <path d="M24.0 11.65 L23.7 11.45 23.45 11.55 23.35 11.95 23.5 12.35 23.95 13.1 Q24.25 13.65 24.2 13.0 L24.15 12.1 24.0 11.65" fill="#8eb9cb" fill-rule="evenodd" stroke="none"/>
      <path d="M26.8 44.05 L18.25 35.4 16.2 17.1 Q17.95 16.05 19.85 15.05 L37.65 49.3 26.8 44.05" fill="#2e393d" fill-rule="evenodd" stroke="none"/>
      <path d="M15.85 40.8 L11.7 32.95 Q14.15 25.75 16.75 18.5 L20.55 17.45 23.2 46.4 15.85 40.8" fill="#252f30" fill-rule="evenodd" stroke="none"/>
      <path d="M6.55 34.8 L4.95 28.5 14.3 19.05 18.4 18.95 12.0 40.0 6.55 34.8" fill="#1e2526" fill-rule="evenodd" stroke="none"/>
      <path d="M12.95 17.1 L15.3 18.0 4.25 31.55 3.1 26.4 5.8 22.1 12.95 17.1" fill="#0f1313" fill-rule="evenodd" stroke="none"/>
      <path d="M24.3 25.8 L19.6 21.9 18.6 14.05 20.6 13.3 30.25 28.45 24.3 25.8" fill="#252f30" fill-rule="evenodd" stroke="none"/>
      <path d="M17.0 24.4 L14.55 20.7 17.3 14.05 19.4 13.6 21.15 27.1 17.0 24.4" fill="#161c1d" fill-rule="evenodd" stroke="none"/>
      <path d="M11.95 23.35 L10.85 19.9 15.65 14.3 17.9 14.1 15.1 26.0 11.95 23.35" fill="#131717" fill-rule="evenodd" stroke="none"/>
      <path d="M15.05 13.85 L16.7 13.65 10.75 21.75 9.4 19.8 10.8 17.45 15.05 13.85" fill="#040404" fill-rule="evenodd" stroke="none"/>
      <path d="M11.7 16.45 L17.95 9.5 22.6 10.3 23.8 16.5 20.05 18.85 15.5 16.95 11.7 16.45" fill="#1a2122" fill-rule="evenodd" stroke="none"/>
      <path d="M17.65 15.35 L18.25 12.6 20.85 12.9 21.95 14.15 21.5 12.2 17.5 11.85 15.75 16.65 14.05 12.4 18.3 9.35 22.95 10.6 24.1 14.6 Q22.3 15.5 20.55 16.35 L17.65 15.35" fill="#2e393d" fill-rule="evenodd" stroke="none"/>
      <path d="M24.5 31.3 Q24.75 31.6 25.15 31.55 L25.8 31.15 26.05 30.45 25.8 29.75 24.8 28.65 Q24.05 27.85 24.1 29.0 L24.2 30.6 Q24.2 31.05 24.5 31.3" fill="#8eb9cb" fill-rule="evenodd" stroke="none"/>
      <path d="M17.05 30.65 Q17.25 30.95 17.6 31.0 L18.35 30.8 18.8 30.15 Q18.95 29.75 18.75 29.4 L18.1 28.15 Q17.7 27.15 17.4 28.25 L16.95 29.9 17.05 30.65" fill="#8eb9cb" fill-rule="evenodd" stroke="none"/>
      <path d="M10.25 27.85 Q10.2 28.25 10.5 28.4 L11.25 28.5 12.0 28.1 12.4 27.4 12.6 26.0 Q12.8 24.95 11.95 25.85 L10.65 27.15 Q10.3 27.45 10.25 27.85" fill="#8eb9cb" fill-rule="evenodd" stroke="none"/>
      <path d="M6.65 23.3 Q6.35 23.6 6.4 23.95 6.45 24.25 6.8 24.4 L7.6 24.35 Q8.1 24.2 8.4 23.9 L9.6 22.65 Q10.6 21.75 9.3 22.15 L7.45 22.75 6.65 23.3" fill="#8eb9cb" fill-rule="evenodd" stroke="none"/>
      <path d="M5.2 18.15 Q5.2 19.75 5.85 21.55 L9.9 21.45 Q5.4 12.1 5.2 18.15" fill="#2e393d" fill-rule="evenodd" stroke="none"/>
      <path d="M5.2 18.15 Q5.2 19.75 5.85 21.55 L9.9 21.45 Q5.4 12.1 5.2 18.15 Z" fill="none" stroke="#000000" stroke-linecap="round" stroke-linejoin="round" stroke-opacity="0.3019608" stroke-width="0.05"/>
      <path d="M5.7 15.3 Q5.95 14.25 6.45 13.25 7.85 10.35 10.2 9.15 12.35 8.0 15.8 12.45 L15.25 13.75 Q7.55 14.1 5.7 15.3 M5.55 18.95 L5.5 18.7 Q5.3 17.15 5.65 15.65 7.45 14.5 15.05 14.0 12.2 19.25 5.55 18.95" fill="#21292c" fill-rule="evenodd" stroke="none"/>
      <path d="M15.8 12.45 L16.65 13.5 16.75 13.65 15.25 13.75 15.8 12.45 M16.9 13.9 L18.1 16.4 17.85 16.85 Q10.75 22.45 6.4 21.65 5.75 20.5 5.55 18.95 12.2 19.25 15.05 14.0 L16.9 13.9" fill="#0f1313" fill-rule="evenodd" stroke="none"/>
      <path d="M16.75 13.65 L16.75 13.75 16.9 13.9 15.05 14.0 Q7.45 14.5 5.65 15.65 L5.65 15.4 5.7 15.3 Q7.55 14.1 15.25 13.75 L16.75 13.65 M17.85 16.85 L17.95 17.2 16.45 18.35 14.0 20.0 Q10.75 21.9 8.15 22.15 L6.4 22.1 6.4 22.0 6.4 21.65 Q10.75 22.45 17.85 16.85" fill="#3fabb0" fill-rule="evenodd" stroke="none"/>
      <path d="M5.7 15.3 Q5.95 14.25 6.45 13.25 7.85 10.35 10.2 9.15 12.35 8.0 15.8 12.45 M6.4 22.0 L6.4 21.65 Q5.75 20.5 5.55 18.95 L5.5 18.7 Q5.3 17.15 5.65 15.65 L5.65 15.4" fill="none" stroke="#000000" stroke-linecap="round" stroke-linejoin="round" stroke-opacity="0.3019608" stroke-width="0.5"/>
      <path d="M6.4 21.65 Q10.75 22.45 17.85 16.85" fill="none" stroke="#000000" stroke-linecap="round" stroke-linejoin="round" stroke-opacity="0.3019608" stroke-width="0.05"/>
      <path d="M17.85 16.85 Q14.75 11.2 14.05 19.5 16.35 18.3 17.85 16.85" fill="#2e393d" fill-rule="evenodd" stroke="none"/>
      <path d="M17.85 16.85 Q14.75 11.2 14.05 19.5 16.35 18.3 17.85 16.85 Z" fill="none" stroke="#000000" stroke-linecap="round" stroke-linejoin="round" stroke-opacity="0.3019608" stroke-width="0.05"/>
      <path d="M9.95 21.45 Q12.25 20.7 14.2 19.5 10.4 8.95 9.95 21.45" fill="#2e393d" fill-rule="evenodd" stroke="none"/>
      <path d="M9.95 21.45 Q12.25 20.7 14.2 19.5 10.4 8.95 9.95 21.45 Z" fill="none" stroke="#000000" stroke-linecap="round" stroke-linejoin="round" stroke-opacity="0.3019608" stroke-width="0.05"/>
      <path d="M6.1 18.2 Q5.85 19.75 6.3 21.7 L9.95 21.45 Q7.15 12.3 6.1 18.2" fill="#2e393d" fill-rule="evenodd" stroke="none"/>
      <path d="M6.1 18.2 Q5.85 19.75 6.3 21.7 L9.95 21.45 Q7.15 12.3 6.1 18.2 Z" fill="none" stroke="#000000" stroke-linecap="round" stroke-linejoin="round" stroke-opacity="0.3019608" stroke-width="0.05"/>
      <path d="M11.2 15.55 L11.55 15.5 11.95 15.8 12.05 16.45 11.95 17.65 Q11.9 18.5 11.6 17.75 L11.05 16.65 10.95 16.0 11.2 15.55" fill="#8eb9cb" fill-rule="evenodd" stroke="none"/>
      <path d="M7.15 16.7 L7.45 16.65 7.75 16.95 7.85 17.45 7.8 18.5 Q7.75 19.3 7.5 18.65 L7.05 17.65 6.95 17.1 7.15 16.7" fill="#8eb9cb" fill-rule="evenodd" stroke="none"/>
      <path d="M15.75 15.4 L16.1 15.3 16.35 15.5 16.55 15.95 16.55 16.9 Q16.6 17.6 16.3 17.05 L15.8 16.25 15.65 15.75 15.75 15.4" fill="#8eb9cb" fill-rule="evenodd" stroke="none"/>
      <path d="M12.9 14.0 Q12.65 12.1 13.45 10.15 14.6 7.2 17.5 5.95 20.45 4.65 23.4 5.85 24.65 6.35 25.5 7.1 L26.15 8.3 Q27.35 11.1 26.25 13.9 25.15 16.65 22.35 17.8 19.65 19.0 16.9 17.9 14.1 16.8 12.9 14.0" fill="#161c1d" fill-rule="evenodd" stroke="none"/>
      <path d="M25.5 7.1 Q26.85 8.2 27.6 9.95 28.85 12.9 27.7 15.85 26.5 18.8 23.55 20.05 20.65 21.35 17.65 20.15 14.7 18.95 13.45 16.05 L12.9 14.0 Q14.1 16.8 16.9 17.9 19.65 19.0 22.35 17.8 25.15 16.65 26.25 13.9 27.35 11.1 26.15 8.3 L25.5 7.1" fill="#0c0e0e" fill-rule="evenodd" stroke="none"/>
      <path d="M26.35 14.35 Q26.45 15.95 25.5 17.3 24.55 18.6 23.1 18.9 21.55 19.15 20.4 18.25 19.25 17.35 19.1 15.75 18.9 14.15 19.85 12.85 20.8 11.5 22.35 11.2 23.85 11.0 25.0 11.9 26.15 12.8 26.35 14.35" fill="#f77eb9" fill-rule="evenodd" stroke="none"/>
      <path d="M21.2 14.05 Q21.85 13.2 22.85 13.0 23.8 12.8 24.6 13.4 25.4 14.0 25.5 15.1 25.6 16.15 24.95 17.05 24.3 17.9 23.35 18.1 22.35 18.3 21.55 17.7 20.8 17.05 20.65 16.0 20.55 14.95 21.2 14.05" fill="#000000" fill-rule="evenodd" stroke="none"/>
      <path d="M22.7 12.4 L23.15 14.0 Q23.15 14.65 22.85 14.6 L22.1 13.8 Q21.6 13.1 21.25 12.05 L20.85 10.5 Q20.8 9.8 21.1 9.9 L21.9 10.7 22.7 12.4" fill="#ffffff" fill-rule="evenodd" stroke="none"/>
    </g>
    <g id="sprite2" transform="matrix(1.0, 0.0, 0.0, 1.0, 0.0, 0.0)">
      <use height="46.8" transform="matrix(1.0, 0.0, 0.0, 1.0, 0.0, 0.0)" width="46.8" xlink:href="#shape2"/>
    </g>
    <g id="shape2" transform="matrix(1.0, 0.0, 0.0, 1.0, 0.0, 0.0)">
      <path d="M39.95 6.85 Q46.8 13.7 46.8 23.4 46.8 33.1 39.95 39.95 33.1 46.8 23.4 46.8 13.7 46.8 6.85 39.95 0.0 33.1 0.0 23.4 0.0 13.7 6.85 6.85 13.7 0.0 23.4 0.0 33.1 0.0 39.95 6.85" fill="url(#gradient0)" fill-rule="evenodd" stroke="none"/>
    </g>
    <radialGradient cx="0" cy="0" fx="534.4" fy="0" gradientTransform="matrix(0.0294, 0.0, 0.0, 0.0294, 23.4, 23.4)" gradientUnits="userSpaceOnUse" id="gradient0" r="819.2" spreadMethod="pad">
      <stop offset="0.0" stop-color="#ffa8d2"/>
      <stop offset="1.0" stop-color="#ffa8d2" stop-opacity="0.0"/>
    </radialGradient>
    <g id="shape3" transform="matrix(1.0, 0.0, 0.0, 1.0, -2.6, -2.75)">
      <path d="M30.95 5.45 L30.75 5.35 30.7 5.3 29.1 4.15 Q26.65 2.9 24.35 3.4 23.15 3.65 22.6 5.55 20.05 4.85 17.5 5.95 16.7 6.3 16.05 6.75 14.55 7.65 13.75 9.15 L13.4 9.95 Q11.55 8.45 10.2 9.15 7.85 10.35 6.45 13.25 5.95 14.25 5.7 15.3 L5.65 15.4 5.65 15.65 5.55 16.1 Q5.25 16.65 5.2 18.15 5.2 19.75 5.85 21.55 L6.3 21.7 6.35 21.75 5.8 22.1 3.1 26.4 4.25 31.55 5.4 30.2 6.55 34.8 12.0 40.0 13.25 35.9 15.85 40.8 23.2 46.4 22.6 39.8 26.8 44.05 37.65 49.3 25.8 26.5 30.25 28.45 26.55 22.6 30.55 28.55 30.35 24.85 46.8 46.35 45.8 36.85 43.45 31.8 49.2 36.45 46.7 28.7 43.5 24.5 46.9 26.1 44.05 19.65 40.15 15.8 42.2 16.15 37.95 12.05 33.6 10.95 33.7 10.8 33.65 10.7 33.5 10.55 33.75 10.1 Q33.35 8.35 32.45 7.15 L31.6 6.15 30.95 5.45 Z" fill="none" stroke="#000000" stroke-linecap="round" stroke-linejoin="round" stroke-opacity="0.3019608" stroke-width="1.0"/>
    </g>
  </defs>
</svg>
