<?xml version="1.0" encoding="UTF-8" standalone="no"?>
<svg xmlns:xlink="http://www.w3.org/1999/xlink" height="520.0px" width="520.0px" xmlns="http://www.w3.org/2000/svg">
  <g transform="matrix(10.0, 0.0, 0.0, 10.0, 0.0, 0.0)">
    <use height="52.0" transform="matrix(1.0, 0.0, 0.0, 1.0, 0.0, 0.0)" width="52.0" xlink:href="#shape0"/>
    <use height="136.85" transform="matrix(0.1009, -0.0142, 0.097, 0.1739, 8.2286, 9.0936)" width="148.25" xlink:href="#sprite0"/>
  </g>
  <defs>
    <g id="shape0" transform="matrix(1.0, 0.0, 0.0, 1.0, 0.0, 0.0)">
      <path d="M52.0 0.0 L52.0 52.0 0.0 52.0 0.0 0.0 52.0 0.0" fill="#795fa9" fill-opacity="0.0" fill-rule="evenodd" stroke="none"/>
      <path d="M33.05 22.65 L31.75 20.35 30.4 18.0 27.55 13.8 Q22.85 7.6 17.9 5.8 17.55 6.8 15.65 7.25 L12.05 7.5 6.1 7.2 4.6 7.0 Q8.75 10.55 11.75 16.95 L13.7 21.8 14.55 24.5 14.95 25.8 15.45 27.8 15.85 29.35 16.65 32.55 Q15.85 36.65 16.9 40.9 L17.6 43.35 Q18.5 45.4 19.85 46.3 21.95 44.9 22.5 41.6 23.35 44.15 25.9 45.45 29.25 44.05 30.1 39.8 L33.7 42.55 Q35.15 40.2 34.95 37.45 37.95 38.5 42.35 37.45 41.85 35.7 41.05 34.3 43.05 34.55 44.85 36.05 45.15 34.25 44.05 32.65 44.95 31.1 48.6 29.25 L48.3 29.1 Q47.15 28.5 45.6 28.6 L44.75 28.65 Q42.5 29.05 37.95 27.35 L37.9 27.35 35.3 25.2 35.1 24.95 33.45 23.15 33.05 22.65 Z" fill="none" stroke="#000000" stroke-linecap="round" stroke-linejoin="round" stroke-opacity="0.3019608" stroke-width="1.0"/>
      <path d="M6.1 7.2 L12.05 7.5 13.5 8.85 8.75 8.35 10.55 9.85 8.7 10.25 6.1 7.2 M15.65 7.25 Q17.55 6.8 17.9 5.8 22.85 7.6 27.55 13.8 L30.4 18.0 31.75 20.35 33.05 22.65 33.45 23.15 Q33.75 24.25 33.45 25.3 32.45 25.95 32.05 24.85 L30.6 26.6 28.6 26.65 27.5 24.15 Q29.6 23.15 29.55 21.5 L26.7 22.55 23.9 17.6 Q26.7 16.45 26.75 14.6 L22.75 15.8 19.7 11.75 Q20.9 11.25 21.0 10.3 20.45 11.15 19.4 11.4 L19.0 10.9 Q21.7 10.15 22.2 8.65 20.3 8.4 17.5 8.7 18.1 8.1 18.3 7.3 L16.55 8.15 15.65 7.25 M21.05 28.9 L17.85 24.65 16.2 21.8 15.7 20.85 13.7 17.45 13.55 17.2 Q11.25 13.45 8.9 10.45 11.75 11.4 14.45 11.45 L16.4 11.9 20.15 16.35 14.35 17.0 Q17.1 18.8 21.45 18.25 L24.6 23.0 21.0 23.55 Q22.55 25.05 25.65 24.65 L27.1 27.3 Q26.3 27.85 25.6 28.9 L25.5 29.1 Q24.65 28.0 23.4 28.0 L23.05 28.1 22.0 27.0 21.85 27.0 21.05 28.9" fill="#feb74e" fill-rule="evenodd" stroke="none"/>
      <path d="M12.05 7.5 L15.65 7.25 16.55 8.15 13.5 8.85 12.05 7.5 M33.45 23.15 L35.1 24.95 35.3 25.2 37.65 27.2 37.9 27.35 37.95 27.35 Q39.9 28.1 41.45 28.45 L44.75 28.65 45.6 28.6 41.95 29.85 42.65 32.8 41.9 32.3 40.1 30.75 39.85 30.5 39.0 29.5 Q38.6 28.95 38.05 28.7 L38.85 31.4 Q39.25 32.9 39.95 34.0 L41.35 36.4 Q40.15 36.05 38.85 34.8 L38.1 33.95 36.85 32.25 36.8 32.2 35.85 30.7 35.65 30.4 34.65 29.5 35.2 30.75 35.3 30.95 35.55 31.5 36.25 34.0 35.0 33.4 34.15 33.15 33.15 32.95 33.25 33.7 33.3 34.35 33.2 36.6 32.75 37.95 32.5 38.7 32.15 38.25 31.75 37.65 30.15 36.2 Q28.1 34.45 26.1 33.4 L25.95 33.3 25.35 32.9 24.35 32.15 21.9 29.85 21.15 29.05 21.05 28.9 21.85 27.0 22.0 27.0 23.05 28.1 23.4 28.0 Q24.65 28.0 25.5 29.1 L25.6 28.9 Q26.3 27.85 27.1 27.3 L25.65 24.65 Q22.55 25.05 21.0 23.55 L24.6 23.0 21.45 18.25 Q17.1 18.8 14.35 17.0 L20.15 16.35 16.4 11.9 18.45 12.1 19.7 11.75 22.75 15.8 26.75 14.6 Q26.7 16.45 23.9 17.6 L26.7 22.55 29.55 21.5 Q29.6 23.15 27.5 24.15 L28.6 26.65 30.6 26.6 32.05 24.85 Q32.45 25.95 33.45 25.3 33.75 24.25 33.45 23.15 M19.4 11.4 L17.3 11.25 17.25 11.25 15.15 10.5 13.8 9.8 14.5 9.8 Q16.25 9.7 17.25 8.95 L17.5 8.7 Q20.3 8.4 22.2 8.65 21.7 10.15 19.0 10.9 L19.4 11.4 M10.55 9.85 Q12.2 10.9 14.45 11.45 11.75 11.4 8.9 10.45 L8.7 10.25 10.55 9.85 M28.45 37.2 L29.1 37.75 26.35 36.55 26.4 36.75 Q26.6 38.3 26.3 40.05 L25.65 42.65 24.4 40.5 23.6 38.0 Q23.25 36.3 23.2 34.4 25.2 34.8 27.35 36.35 L28.45 37.2 M21.45 38.9 Q21.4 39.95 20.6 40.8 L19.75 39.65 Q18.45 37.65 17.6 34.0 19.8 35.2 21.3 37.6 L21.45 38.9" fill="#7a6038" fill-rule="evenodd" stroke="none"/>
      <path d="M45.6 28.6 Q47.15 28.5 48.3 29.1 45.55 29.05 42.9 31.15 L42.85 31.2 43.6 34.05 41.5 32.7 39.6 30.95 39.45 30.75 38.6 29.65 38.45 29.4 38.7 30.0 39.2 31.15 39.6 32.0 39.95 32.55 40.5 33.45 41.05 34.3 Q41.85 35.7 42.35 37.45 L39.8 36.4 38.15 35.25 37.8 34.9 Q36.9 34.0 36.2 32.65 L36.1 32.5 35.55 31.5 35.3 30.95 35.2 30.75 34.65 29.5 35.65 30.4 35.85 30.7 36.8 32.2 36.85 32.25 38.1 33.95 38.85 34.8 Q40.15 36.05 41.35 36.4 L39.95 34.0 Q39.25 32.9 38.85 31.4 L38.05 28.7 Q38.6 28.95 39.0 29.5 L39.85 30.5 40.1 30.75 41.9 32.3 42.65 32.8 41.95 29.85 45.6 28.6 M16.65 32.55 L15.85 29.35 15.45 27.8 17.1 29.25 Q18.35 30.5 20.85 29.9 L21.05 28.9 21.15 29.05 21.9 29.85 24.35 32.15 25.35 32.9 25.95 33.3 26.1 33.4 Q28.1 34.45 30.15 36.2 L31.75 37.65 32.15 38.25 32.5 38.7 32.75 37.95 33.2 36.6 33.3 34.35 33.25 33.7 33.15 32.95 34.15 33.15 35.0 33.4 36.25 34.0 36.75 34.65 37.35 35.5 37.45 35.7 37.6 36.9 36.85 36.05 34.2 33.8 34.05 33.7 34.05 33.9 34.0 36.75 33.85 37.55 Q33.45 39.15 32.55 40.0 L31.35 38.5 31.0 37.95 29.4 36.6 29.35 36.55 29.4 36.65 29.9 37.85 30.65 39.6 29.95 39.0 Q28.65 37.9 27.2 37.65 L27.3 39.8 Q27.25 43.0 25.75 43.65 24.55 42.3 23.75 40.7 L22.75 38.35 22.35 36.7 22.3 37.55 22.3 38.55 22.3 38.85 21.45 41.15 20.65 42.0 20.15 41.4 19.25 39.9 Q18.35 38.35 17.7 36.45 L17.0 33.95 16.65 32.3 16.65 32.55 M8.9 10.45 L8.35 10.3 8.7 10.25 8.9 10.45 M19.4 11.4 L19.7 11.75 18.45 12.1 16.4 11.9 16.0 11.45 14.45 11.45 Q12.2 10.9 10.55 9.85 L13.9 9.2 13.5 8.85 16.55 8.15 17.15 8.75 17.5 8.7 17.25 8.95 Q16.25 9.7 14.5 9.8 L13.8 9.8 15.15 10.5 17.25 11.25 17.3 11.25 19.4 11.4 M28.45 37.2 L27.35 36.35 Q25.2 34.8 23.2 34.4 23.25 36.3 23.6 38.0 L24.4 40.5 25.65 42.65 26.3 40.05 Q26.6 38.3 26.4 36.75 L26.35 36.55 29.1 37.75 28.45 37.2 M21.45 38.9 L21.3 37.6 Q19.8 35.2 17.6 34.0 18.45 37.65 19.75 39.65 L20.6 40.8 Q21.4 39.95 21.45 38.9" fill="#40321e" fill-rule="evenodd" stroke="none"/>
      <path d="M48.3 29.1 L48.6 29.25 Q44.95 31.1 44.05 32.65 45.15 34.25 44.85 36.05 43.05 34.55 41.05 34.3 L40.5 33.45 39.95 32.55 39.6 32.0 39.2 31.15 38.7 30.0 38.45 29.4 38.6 29.65 39.45 30.75 39.6 30.95 41.5 32.7 43.6 34.05 42.85 31.2 42.9 31.15 Q45.55 29.05 48.3 29.1 M42.35 37.45 Q37.95 38.5 34.95 37.45 35.15 40.2 33.7 42.55 L30.1 39.8 Q29.25 44.05 25.9 45.45 23.35 44.15 22.5 41.6 21.95 44.9 19.85 46.3 18.5 45.4 17.6 43.35 L16.9 40.9 Q15.85 36.65 16.65 32.55 L16.65 32.3 17.0 33.95 17.7 36.45 Q18.35 38.35 19.25 39.9 L20.15 41.4 20.65 42.0 21.45 41.15 22.3 38.85 22.3 38.55 22.3 37.55 22.35 36.7 22.75 38.35 23.75 40.7 Q24.55 42.3 25.75 43.65 27.25 43.0 27.3 39.8 L27.2 37.65 Q28.65 37.9 29.95 39.0 L30.65 39.6 29.9 37.85 29.4 36.65 29.35 36.55 29.4 36.6 31.0 37.95 31.35 38.5 32.55 40.0 Q33.45 39.15 33.85 37.55 L34.0 36.75 34.05 33.9 34.05 33.7 34.2 33.8 36.85 36.05 37.6 36.9 37.45 35.7 37.35 35.5 36.75 34.65 36.25 34.0 35.55 31.5 36.1 32.5 36.2 32.65 Q36.9 34.0 37.8 34.9 L38.15 35.25 39.8 36.4 42.35 37.45 M34.75 35.25 L34.95 37.45 34.75 35.25" fill="#221b11" fill-rule="evenodd" stroke="none"/>
      <path d="M15.45 27.8 L14.95 25.8 14.55 24.5 13.7 21.8 11.75 16.95 Q8.75 10.55 4.6 7.0 L6.1 7.2 8.7 10.25 8.35 10.3 8.9 10.45 Q11.25 13.45 13.55 17.2 L13.7 17.45 15.7 20.85 16.2 21.8 17.85 24.65 21.05 28.9 20.85 29.9 Q18.35 30.5 17.1 29.25 L15.45 27.8 M19.7 11.75 L19.4 11.4 Q20.45 11.15 21.0 10.3 20.9 11.25 19.7 11.75 M17.5 8.7 L17.15 8.75 16.55 8.15 18.3 7.3 Q18.1 8.1 17.5 8.7 M13.5 8.85 L13.9 9.2 10.55 9.85 8.75 8.35 13.5 8.85 M14.45 11.45 L16.0 11.45 16.4 11.9 14.45 11.45" fill="#ffa004" fill-rule="evenodd" stroke="none"/>
      <path d="M15.45 27.8 L14.95 25.8 14.55 24.5 13.7 21.8 11.75 16.95 Q8.75 10.55 4.6 7.0 L6.1 7.2 12.05 7.5 15.65 7.25 Q17.55 6.8 17.9 5.8 22.85 7.6 27.55 13.8 L30.4 18.0 31.75 20.35 33.05 22.65 33.45 23.15 35.1 24.95 35.3 25.2 37.65 27.2 37.9 27.35 37.95 27.35 Q39.9 28.1 41.45 28.45 L44.75 28.65 45.6 28.6 Q47.15 28.5 48.3 29.1 L48.6 29.25 Q44.95 31.1 44.05 32.65 45.15 34.25 44.85 36.05 43.05 34.55 41.05 34.3 41.85 35.7 42.35 37.45 37.95 38.5 34.95 37.45 35.15 40.2 33.7 42.55 L30.1 39.8 Q29.25 44.05 25.9 45.45 23.35 44.15 22.5 41.6 21.95 44.9 19.85 46.3 18.5 45.4 17.6 43.35 L16.9 40.9 Q15.85 36.65 16.65 32.55 L15.85 29.35 15.45 27.8 M34.95 37.45 L34.75 35.25 M16.65 32.3 L16.65 32.55" fill="none" stroke="#000000" stroke-linecap="round" stroke-linejoin="round" stroke-opacity="0.3019608" stroke-width="0.30000000000000004"/>
    </g>
    <g id="sprite0" transform="matrix(1.0, 0.0, 0.0, 1.0, 73.5, 65.0)">
      <use height="136.85" transform="matrix(1.0, 0.0, 0.0, 1.0, -73.5, -65.0)" width="148.25" xlink:href="#shape1"/>
    </g>
    <g id="shape1" transform="matrix(1.0, 0.0, 0.0, 1.0, 73.5, 65.0)">
      <path d="M36.65 -54.65 Q60.05 -42.0 69.75 -17.95 80.55 8.9 68.0 34.1 55.45 59.35 26.8 68.2 -1.8 77.05 -29.7 64.3 -57.6 51.6 -68.45 24.75 -79.3 -2.05 -66.75 -27.25 L-66.7 -27.3 Q-54.1 -52.5 -25.5 -61.4 3.1 -70.2 31.0 -57.5 L36.65 -54.65" fill="url(#gradient0)" fill-rule="evenodd" stroke="none"/>
    </g>
    <radialGradient cx="0" cy="0" gradientTransform="matrix(0.0914, 0.0, 0.0, 0.0914, 0.6, 3.4)" gradientUnits="userSpaceOnUse" id="gradient0" r="819.2" spreadMethod="pad">
      <stop offset="0.0" stop-color="#ffffff"/>
      <stop offset="1.0" stop-color="#ffffff" stop-opacity="0.0"/>
    </radialGradient>
  </defs>
</svg>
