<?xml version="1.0" encoding="UTF-8" standalone="no"?>
<svg xmlns:xlink="http://www.w3.org/1999/xlink" height="520.0px" width="520.0px" xmlns="http://www.w3.org/2000/svg">
  <g transform="matrix(10.0, 0.0, 0.0, 10.0, 0.0, 0.0)">
    <use height="52.0" transform="matrix(1.0, 0.0, 0.0, 1.0, 0.0, 0.0)" width="52.0" xlink:href="#shape0"/>
    <use height="136.85" transform="matrix(-0.1301, 0.0222, 0.0696, 0.1303, 31.9843, 22.2503)" width="148.25" xlink:href="#sprite0"/>
    <use height="136.85" transform="matrix(-0.1082, 0.0046, 0.0368, 0.0689, 22.7093, 8.2886)" width="148.25" xlink:href="#sprite0"/>
  </g>
  <defs>
    <g id="shape0" transform="matrix(1.0, 0.0, 0.0, 1.0, 0.0, 0.0)">
      <path d="M52.0 0.0 L52.0 52.0 0.0 52.0 0.0 0.0 52.0 0.0" fill="#795fa9" fill-opacity="0.0" fill-rule="evenodd" stroke="none"/>
      <path d="M4.5 9.1 Q9.05 15.75 10.9 31.75 12.4 39.55 16.45 44.75 L18.45 47.05 Q23.5 48.15 32.0 42.95 L32.9 42.35 33.45 42.0 Q38.0 39.9 40.95 39.4 L41.55 39.3 Q43.4 40.95 44.3 43.3 L44.35 43.3 44.35 43.35 44.7 43.9 Q46.2 44.8 48.0 43.35 49.55 38.6 46.35 36.9 L45.75 36.6 45.05 36.35 42.9 35.0 43.85 33.3 44.15 32.5 43.6 32.2 39.95 32.85 35.85 29.35 35.8 26.85 35.55 25.7 Q35.3 25.4 34.9 25.45 34.05 25.75 33.1 26.4 L31.35 24.0 27.5 15.3 28.0 14.0 28.25 13.1 27.85 12.65 26.15 12.55 25.0 10.5 23.25 7.85 Q20.5 5.65 19.85 7.1 L18.8 7.5 12.95 7.7 Q10.4 6.45 7.5 7.0 6.4 7.2 5.2 7.7 L4.5 9.1 Z" fill="none" stroke="#000000" stroke-linecap="round" stroke-linejoin="round" stroke-opacity="0.3019608" stroke-width="1.0"/>
      <path d="M38.45 32.75 L38.0 33.35 37.5 33.2 37.55 34.55 39.25 36.05 40.9 36.7 41.15 36.45 42.2 36.45 41.45 35.85 42.6 36.1 41.45 34.55 39.55 32.65 38.85 33.25 38.45 32.75" fill="#000000" fill-opacity="0.3019608" fill-rule="evenodd" stroke="none"/>
      <path d="M38.45 35.1 Q41.25 35.25 43.75 32.9 L41.95 33.85 43.0 32.45 38.05 33.8 Q37.85 34.4 38.45 35.1" fill="#beb87a" fill-rule="evenodd" stroke="none"/>
      <path d="M39.55 36.05 L40.85 36.3 Q42.95 35.7 43.8 33.35 L44.1 32.5 43.75 32.9 Q41.25 35.25 38.45 35.1 L39.55 36.05" fill="#a59c52" fill-rule="evenodd" stroke="none"/>
      <path d="M43.75 32.9 L44.1 32.5 Q44.0 32.3 43.55 32.2 41.35 32.3 38.3 33.4 L38.05 33.8 43.0 32.45 41.95 33.85 43.75 32.9" fill="#d5d0aa" fill-rule="evenodd" stroke="none"/>
      <path d="M44.1 32.5 L43.8 33.35 Q42.95 35.7 40.85 36.3 L39.55 36.05 M44.1 32.5 Q44.0 32.3 43.55 32.2 41.35 32.3 38.3 33.4" fill="none" stroke="#000000" stroke-linecap="round" stroke-linejoin="round" stroke-opacity="0.3019608" stroke-width="0.30000000000000004"/>
      <path d="M8.75 11.8 Q10.5 15.3 11.3 19.25 L13.05 28.5 Q14.5 34.65 17.5 40.3 16.9 36.15 17.55 32.2 18.7 23.75 23.45 23.05 28.65 22.8 34.75 28.2 32.85 26.2 31.35 24.0 27.65 15.05 25.0 10.5 25.65 13.0 25.05 14.75 24.4 16.9 22.0 18.0 15.55 20.15 8.75 11.8 M20.9 9.1 Q21.75 8.3 21.4 7.7 L20.15 8.2 20.9 9.1 20.15 8.2 Q17.35 9.1 14.0 8.3 15.2 8.95 17.2 9.35 L20.15 9.75 20.2 9.7 20.9 9.1 M13.95 24.8 Q13.0 22.25 13.05 20.65 13.0 22.25 13.95 24.8 M15.7 27.1 Q14.05 22.65 13.1 17.75 14.05 22.65 15.7 27.1 M27.1 19.45 Q26.35 16.9 25.05 14.75 26.35 16.9 27.1 19.45" fill="#abc24d" fill-rule="evenodd" stroke="none"/>
      <path d="M7.5 7.0 Q6.85 7.45 6.55 7.95 7.8 9.8 8.75 11.8 15.55 20.15 22.0 18.0 24.4 16.9 25.05 14.75 25.65 13.0 25.0 10.5 L23.25 7.85 Q20.5 5.65 19.85 7.1 L18.8 7.5 Q19.5 7.55 20.15 8.2 19.5 7.55 18.8 7.5 L12.95 7.7 Q10.4 6.45 7.5 7.0 M17.5 40.3 L19.25 43.4 Q20.15 44.1 21.2 44.45 24.0 44.65 28.15 42.35 30.6 40.75 32.85 39.6 37.35 37.2 40.85 36.4 39.05 34.3 35.05 32.2 39.05 34.3 40.85 36.4 L43.3 36.0 45.05 36.35 Q39.6 33.05 35.7 29.15 L34.75 28.2 Q28.65 22.8 23.45 23.05 18.7 23.75 17.55 32.2 16.9 36.15 17.5 40.3 M20.65 44.85 L20.35 44.8 19.9 44.7 18.45 47.05 20.65 44.85 M23.3 12.25 L25.05 14.75 23.3 12.25 M20.15 8.2 L21.4 7.7 Q21.75 8.3 20.9 9.1 L21.05 9.35 20.9 9.1 20.2 9.7 20.15 9.75 17.2 9.35 Q15.2 8.95 14.0 8.3 L13.65 8.1 12.95 7.7 13.65 8.1 14.0 8.3 Q17.35 9.1 20.15 8.2 M19.45 12.7 Q18.75 10.6 17.2 9.35 18.75 10.6 19.45 12.7 M44.7 43.9 L45.2 43.3 Q46.3 41.85 45.45 40.6 L45.3 40.4 Q45.6 41.55 44.8 42.7 L44.35 43.3 44.35 43.35 44.7 43.9 M26.9 33.05 Q29.25 37.3 32.85 39.6 29.25 37.3 26.9 33.05 M26.45 29.7 Q28.2 33.6 32.2 37.65 28.2 33.6 26.45 29.7" fill="#bfd661" fill-rule="evenodd" stroke="none"/>
      <path d="M33.05 39.8 Q29.85 41.4 27.45 42.95 25.05 44.5 24.2 44.65 L23.2 44.8 22.95 44.85 21.85 44.9 20.65 44.85 18.45 47.05 Q23.5 48.15 32.0 42.95 L32.9 42.35 Q33.45 40.4 33.05 39.8 M44.35 43.3 L44.8 42.7 Q45.6 41.55 45.3 40.4 L45.25 40.3 45.0 40.0 44.5 39.6 44.15 39.45 44.05 39.4 43.85 39.35 42.5 39.2 41.55 39.3 Q43.4 40.95 44.3 43.3 L44.35 43.3" fill="#6f7e2c" fill-rule="evenodd" stroke="none"/>
      <path d="M19.9 44.7 L17.95 42.0 17.9 41.95 Q14.6 36.75 12.7 28.6 11.4 18.0 7.65 10.3 6.5 7.95 5.4 7.95 L5.2 7.7 4.5 9.1 Q9.05 15.75 10.9 31.75 12.4 39.55 16.45 44.75 L18.45 47.05 19.9 44.7 M41.05 37.9 L41.0 36.7 41.05 37.9 M45.3 40.4 L45.45 40.6 Q46.3 41.85 45.2 43.3 L44.7 43.9 Q46.2 44.8 48.0 43.35 49.55 38.6 46.35 36.9 L45.75 36.6 41.0 36.7 Q38.25 37.35 34.6 39.05 L33.05 39.8 Q33.45 40.4 32.9 42.35 L33.45 42.0 Q38.0 39.9 40.95 39.4 L41.55 39.3 42.5 39.2 43.85 39.35 44.05 39.4 44.15 39.45 44.5 39.6 45.0 40.0 45.25 40.3 45.3 40.4" fill="#899d37" fill-rule="evenodd" stroke="none"/>
      <path d="M5.2 7.7 L5.4 7.95 Q6.5 7.95 7.65 10.3 11.4 18.0 12.7 28.6 14.6 36.75 17.9 41.95 L17.95 42.0 19.9 44.7 20.35 44.8 20.65 44.85 21.85 44.9 22.95 44.85 23.2 44.8 24.2 44.65 Q25.05 44.5 27.45 42.95 29.85 41.4 33.05 39.8 L32.85 39.6 33.05 39.8 34.6 39.05 Q38.25 37.35 41.0 36.7 L45.75 36.6 45.05 36.35 43.3 36.0 40.85 36.4 41.0 36.7 40.85 36.4 Q37.35 37.2 32.85 39.6 30.6 40.75 28.15 42.35 24.0 44.65 21.2 44.45 20.15 44.1 19.25 43.4 L17.5 40.3 Q14.5 34.65 13.05 28.5 L11.3 19.25 Q10.5 15.3 8.75 11.8 7.8 9.8 6.55 7.95 6.85 7.45 7.5 7.0 6.4 7.2 5.2 7.7" fill="#d1eb94" fill-rule="evenodd" stroke="none"/>
      <path d="M5.2 7.7 Q6.4 7.2 7.5 7.0 M32.85 39.6 L33.05 39.8 M18.45 47.05 L16.45 44.75 Q12.4 39.55 10.9 31.75 9.05 15.75 4.5 9.1 L5.2 7.7 M25.05 14.75 L23.3 12.25 M18.8 7.5 L19.85 7.1 Q20.5 5.65 23.25 7.85 L25.0 10.5 Q27.65 15.05 31.35 24.0 32.85 26.2 34.75 28.2 M20.15 8.2 Q19.5 7.55 18.8 7.5 L12.95 7.7 Q10.4 6.45 7.5 7.0 M20.9 9.1 L21.05 9.35 M12.95 7.7 L13.65 8.1 14.0 8.3 Q15.2 8.95 17.2 9.35 18.75 10.6 19.45 12.7 M20.9 9.1 L20.15 8.2 M13.1 17.75 Q14.05 22.65 15.7 27.1 M13.05 20.65 Q13.0 22.25 13.95 24.8 M41.0 36.7 L41.05 37.9 M45.75 36.6 L45.05 36.35 Q39.6 33.05 35.7 29.15 L34.75 28.2 M45.25 40.3 L45.0 40.0 44.5 39.6 44.15 39.45 44.05 39.4 43.85 39.35 42.5 39.2 41.55 39.3 40.95 39.4 Q38.0 39.9 33.45 42.0 L32.9 42.35 Q33.45 40.4 33.05 39.8 M46.35 36.9 Q49.55 38.6 48.0 43.35 46.2 44.8 44.7 43.9 M43.3 36.0 L45.05 36.35 M40.85 36.4 Q39.05 34.3 35.05 32.2 M32.85 39.6 Q29.25 37.3 26.9 33.05 M41.0 36.7 L40.85 36.4 M18.45 47.05 Q23.5 48.15 32.0 42.95 L32.9 42.35 M44.3 43.3 Q43.4 40.95 41.55 39.3 M44.3 43.3 L44.35 43.35 M32.2 37.65 Q28.2 33.6 26.45 29.7 M25.05 14.75 Q26.35 16.9 27.1 19.45" fill="none" stroke="#000000" stroke-linecap="round" stroke-linejoin="round" stroke-opacity="0.3019608" stroke-width="0.30000000000000004"/>
      <path d="M13.9 14.75 Q12.8 10.45 11.6 9.45 L13.9 14.75 M17.7 29.25 Q19.2 33.7 21.55 36.0 L17.7 29.25" fill="#899d37" fill-rule="evenodd" stroke="none"/>
      <path d="M13.9 14.75 L14.2 15.95 M11.6 9.45 Q12.8 10.45 13.9 14.75 M19.6 22.85 L21.95 27.25 M20.75 23.2 L21.5 24.7 M17.2 27.7 L17.65 29.15 17.7 29.25 Q19.2 33.7 21.55 36.0 L22.0 36.7" fill="none" stroke="#000000" stroke-linecap="round" stroke-linejoin="round" stroke-opacity="0.3019608" stroke-width="0.30000000000000004"/>
      <path d="M16.95 16.05 L16.5 16.85 16.05 16.6 16.05 18.5 17.6 20.6 19.15 21.45 19.4 21.15 20.35 21.15 19.65 20.25 20.75 20.65 19.75 18.5 17.95 15.85 17.35 16.75 16.95 16.05" fill="#000000" fill-opacity="0.3019608" fill-rule="evenodd" stroke="none"/>
      <path d="M16.9 19.3 Q19.55 19.5 21.95 16.15 L20.25 17.55 21.25 15.6 16.6 17.45 Q16.35 18.3 16.9 19.3" fill="#beb87a" fill-rule="evenodd" stroke="none"/>
      <path d="M17.9 20.6 L19.1 20.9 Q21.05 20.1 22.0 16.8 L22.3 15.65 21.95 16.15 Q19.55 19.5 16.9 19.3 L17.9 20.6" fill="#a59c52" fill-rule="evenodd" stroke="none"/>
      <path d="M21.95 16.15 L22.3 15.65 21.8 15.2 Q19.75 15.4 16.85 16.9 L16.6 17.45 21.25 15.6 20.25 17.55 21.95 16.15" fill="#d5d0aa" fill-rule="evenodd" stroke="none"/>
      <path d="M22.3 15.65 L22.0 16.8 Q21.05 20.1 19.1 20.9 L17.9 20.6 M22.3 15.65 L21.8 15.2 Q19.75 15.4 16.85 16.9" fill="none" stroke="#000000" stroke-linecap="round" stroke-linejoin="round" stroke-opacity="0.3019608" stroke-width="0.30000000000000004"/>
      <path d="M31.25 28.0 L30.55 27.45 30.5 28.3 29.95 28.15 30.8 29.9 33.25 31.4 35.1 31.85 35.25 31.5 36.15 31.25 35.1 30.65 36.25 30.7 34.35 28.95 31.45 27.0 31.25 28.0" fill="#000000" fill-opacity="0.3019608" fill-rule="evenodd" stroke="none"/>
      <path d="M35.4 26.25 L34.45 28.0 34.5 25.9 30.85 28.85 Q30.95 29.65 31.95 30.45 34.65 29.9 35.4 26.25" fill="#beb87a" fill-rule="evenodd" stroke="none"/>
      <path d="M35.4 26.25 Q34.65 29.9 31.95 30.45 L33.55 31.35 34.8 31.35 Q36.35 30.1 35.8 26.85 35.8 26.05 35.5 25.7 L35.4 26.25" fill="#a59c52" fill-rule="evenodd" stroke="none"/>
      <path d="M30.85 28.85 L34.5 25.9 34.45 28.0 35.4 26.25 35.5 25.7 Q35.3 25.4 34.9 25.45 32.95 26.1 30.85 28.25 L30.85 28.85" fill="#d5d0aa" fill-rule="evenodd" stroke="none"/>
      <path d="M30.85 28.25 Q32.95 26.1 34.9 25.45 35.3 25.4 35.5 25.7 35.8 26.05 35.8 26.85 36.35 30.1 34.8 31.35 L33.55 31.35" fill="none" stroke="#000000" stroke-linecap="round" stroke-linejoin="round" stroke-opacity="0.3019608" stroke-width="0.30000000000000004"/>
      <path d="M19.8 36.15 L19.3 37.1 18.8 36.8 19.0 38.95 21.05 41.35 23.1 42.4 23.35 42.05 24.5 42.05 23.55 41.05 24.9 41.5 23.4 39.0 21.0 35.9 20.35 36.95 19.8 36.15" fill="#000000" fill-opacity="0.3019608" fill-rule="evenodd" stroke="none"/>
      <path d="M20.05 39.85 Q23.3 40.15 25.85 36.35 L23.95 37.95 24.95 35.7 19.5 37.75 Q19.3 38.7 20.05 39.85" fill="#beb87a" fill-rule="evenodd" stroke="none"/>
      <path d="M21.45 41.35 L22.95 41.75 Q25.25 40.85 26.0 37.05 26.4 36.2 26.2 35.7 L25.85 36.35 Q23.3 40.15 20.05 39.85 L21.45 41.35" fill="#a59c52" fill-rule="evenodd" stroke="none"/>
      <path d="M25.85 36.35 L26.2 35.7 25.6 35.25 Q23.1 35.45 19.75 37.15 L19.5 37.75 24.95 35.7 23.95 37.95 25.85 36.35" fill="#d5d0aa" fill-rule="evenodd" stroke="none"/>
      <path d="M26.2 35.7 Q26.4 36.2 26.0 37.05 25.25 40.85 22.95 41.75 L21.45 41.35 M26.2 35.7 L25.6 35.25 Q23.1 35.45 19.75 37.15" fill="none" stroke="#000000" stroke-linecap="round" stroke-linejoin="round" stroke-opacity="0.3019608" stroke-width="0.30000000000000004"/>
      <path d="M24.5 12.9 L24.25 12.25 23.75 12.8 23.45 12.5 23.15 14.1 24.2 16.25 25.4 17.4 25.7 17.15 26.5 17.4 26.0 16.45 26.9 17.1 26.3 15.0 25.2 12.3 24.5 12.9" fill="#000000" fill-opacity="0.3019608" fill-rule="evenodd" stroke="none"/>
      <path d="M27.95 13.45 L26.55 14.25 27.35 12.85 23.55 13.3 Q23.35 13.95 23.8 14.9 26.0 15.65 27.95 13.45" fill="#beb87a" fill-rule="evenodd" stroke="none"/>
      <path d="M27.95 13.45 Q26.0 15.65 23.8 14.9 L24.65 16.25 25.6 16.75 Q27.2 16.55 28.0 14.0 28.3 13.45 28.2 13.1 L27.95 13.45" fill="#a59c52" fill-rule="evenodd" stroke="none"/>
      <path d="M23.55 13.3 L27.35 12.85 26.55 14.25 27.95 13.45 28.2 13.1 27.85 12.65 23.75 12.95 23.55 13.3" fill="#d5d0aa" fill-rule="evenodd" stroke="none"/>
      <path d="M23.75 12.95 L27.85 12.65 28.2 13.1 Q28.3 13.45 28.0 14.0 27.2 16.55 25.6 16.75 L24.65 16.25" fill="none" stroke="#000000" stroke-linecap="round" stroke-linejoin="round" stroke-opacity="0.3019608" stroke-width="0.30000000000000004"/>
      <path d="M12.2 12.7 L12.05 12.95 11.9 12.8 11.85 13.5 12.35 14.35 12.85 14.85 12.95 14.7 13.25 14.8 13.0 14.45 13.4 14.7 13.1 13.85 12.6 12.75 12.35 13.0 12.2 12.7" fill="#000000" fill-opacity="0.3019608" fill-rule="evenodd" stroke="none"/>
      <path d="M12.15 13.85 Q13.05 14.2 13.9 13.2 L13.3 13.55 13.7 12.95 12.1 13.15 Q11.95 13.45 12.15 13.85" fill="#beb87a" fill-rule="evenodd" stroke="none"/>
      <path d="M12.45 14.4 L12.85 14.65 Q13.5 14.5 13.9 13.45 L14.05 13.1 13.9 13.2 Q13.05 14.2 12.15 13.85 L12.45 14.4" fill="#a59c52" fill-rule="evenodd" stroke="none"/>
      <path d="M13.9 13.2 L14.05 13.1 13.9 12.9 12.15 13.05 12.1 13.15 13.7 12.95 13.3 13.55 13.9 13.2" fill="#d5d0aa" fill-rule="evenodd" stroke="none"/>
      <path d="M14.05 13.1 L13.9 13.45 Q13.5 14.5 12.85 14.65 L12.45 14.4 M14.05 13.1 L13.9 12.9 12.15 13.05" fill="none" stroke="#000000" stroke-linecap="round" stroke-linejoin="round" stroke-opacity="0.3019608" stroke-width="0.30000000000000004"/>
      <path d="M24.15 25.9 L24.0 25.4 23.75 25.85 23.5 25.65 23.45 26.7 24.15 28.05 25.0 28.8 25.1 28.7 25.65 28.8 25.25 28.2 25.85 28.55 25.4 27.2 24.55 25.45 24.15 25.9" fill="#000000" fill-opacity="0.3019608" fill-rule="evenodd" stroke="none"/>
      <path d="M26.65 26.25 L25.7 26.75 26.3 25.8 23.75 26.15 Q23.6 26.65 23.8 27.25 25.25 27.75 26.65 26.25" fill="#beb87a" fill-rule="evenodd" stroke="none"/>
      <path d="M26.65 26.25 Q25.25 27.75 23.8 27.25 L24.3 28.1 24.95 28.5 Q26.05 28.3 26.65 26.6 L26.85 26.0 26.65 26.25" fill="#a59c52" fill-rule="evenodd" stroke="none"/>
      <path d="M23.75 26.15 L26.3 25.8 25.7 26.75 26.65 26.25 26.85 26.0 26.6 25.65 23.9 25.9 23.75 26.15" fill="#d5d0aa" fill-rule="evenodd" stroke="none"/>
      <path d="M23.9 25.9 L26.6 25.65 26.85 26.0 26.65 26.6 Q26.05 28.3 24.95 28.5 L24.3 28.1" fill="none" stroke="#000000" stroke-linecap="round" stroke-linejoin="round" stroke-opacity="0.3019608" stroke-width="0.30000000000000004"/>
    </g>
    <g id="sprite0" transform="matrix(1.0, 0.0, 0.0, 1.0, 73.5, 65.0)">
      <use height="136.85" transform="matrix(1.0, 0.0, 0.0, 1.0, -73.5, -65.0)" width="148.25" xlink:href="#shape1"/>
    </g>
    <g id="shape1" transform="matrix(1.0, 0.0, 0.0, 1.0, 73.5, 65.0)">
      <path d="M36.65 -54.65 Q60.05 -42.0 69.75 -17.95 80.55 8.9 68.0 34.1 55.45 59.35 26.8 68.2 -1.8 77.05 -29.7 64.3 -57.6 51.6 -68.45 24.75 -79.3 -2.05 -66.75 -27.25 L-66.7 -27.3 Q-54.1 -52.5 -25.5 -61.4 3.1 -70.2 31.0 -57.5 L36.65 -54.65" fill="url(#gradient0)" fill-rule="evenodd" stroke="none"/>
    </g>
    <radialGradient cx="0" cy="0" gradientTransform="matrix(0.0914, 0.0, 0.0, 0.0914, 0.6, 3.4)" gradientUnits="userSpaceOnUse" id="gradient0" r="819.2" spreadMethod="pad">
      <stop offset="0.0" stop-color="#ffffff"/>
      <stop offset="1.0" stop-color="#ffffff" stop-opacity="0.0"/>
    </radialGradient>
  </defs>
</svg>
