<?xml version="1.0" encoding="UTF-8" standalone="no"?>
<svg xmlns:xlink="http://www.w3.org/1999/xlink" height="600.0px" width="600.0px" xmlns="http://www.w3.org/2000/svg">
  <g transform="matrix(10.0, 0.0, 0.0, 10.0, 0.0, 0.0)">
    <use height="60.0" transform="matrix(1.0, 0.0, 0.0, 1.0, 0.0, 0.0)" width="60.0" xlink:href="#shape0"/>
    <use height="52.65" transform="matrix(1.0, 0.0, 0.0, 1.0, 6.4, 4.05)" width="48.25" xlink:href="#sprite0"/>
    <use height="53.65" transform="matrix(1.0, 0.0, 0.0, 1.0, 5.9, 3.55)" width="49.25" xlink:href="#sprite1"/>
    <use height="136.85" transform="matrix(0.0337, 0.1574, 0.1322, -0.0087, 9.9276, 5.8498)" width="148.25" xlink:href="#sprite3"/>
    <use height="136.85" transform="matrix(0.09, 0.2012, 0.1913, -0.0126, 7.649, 20.7872)" width="148.25" xlink:href="#sprite3"/>
  </g>
  <defs>
    <g id="shape0" transform="matrix(1.0, 0.0, 0.0, 1.0, 0.0, 0.0)">
      <path d="M60.0 0.0 L60.0 60.0 0.0 60.0 0.0 0.0 60.0 0.0" fill="#6c7712" fill-opacity="0.0" fill-rule="evenodd" stroke="none"/>
      <path d="M24.0 50.1 Q27.05 48.75 33.6 49.6 40.15 50.4 43.7 45.85 47.25 41.25 54.65 42.45 51.35 36.6 41.6 28.65 34.1 22.5 29.4 17.2 L29.4 17.15 30.55 15.15 29.7 15.6 Q30.5 14.75 30.95 13.0 L31.2 11.1 31.1 10.85 29.15 12.35 Q30.2 9.75 29.2 7.7 L29.0 7.35 Q28.55 6.6 28.2 7.25 27.65 9.45 26.7 11.5 L26.85 10.05 Q24.8 7.6 22.55 6.15 20.05 4.55 17.4 4.05 L14.4 7.5 Q12.55 10.0 10.85 13.2 L8.15 11.85 Q7.1 11.5 7.25 13.6 8.25 16.7 10.9 18.4 L6.4 19.2 Q6.4 20.0 7.0 20.65 9.15 22.45 12.65 22.4 L12.65 22.8 12.05 23.1 12.65 23.7 Q13.2 41.2 18.7 52.05 19.65 54.8 29.55 56.7 26.55 54.05 24.0 50.1 Z" fill="none" stroke="#000000" stroke-linecap="round" stroke-linejoin="round" stroke-opacity="0.15294118" stroke-width="1.5"/>
    </g>
    <g id="sprite0" transform="matrix(1.0, 0.0, 0.0, 1.0, 0.0, 0.0)">
      <use height="52.65" transform="matrix(1.0, 0.0, 0.0, 1.0, 0.0, 0.0)" width="48.25" xlink:href="#shape1"/>
    </g>
    <g id="shape1" transform="matrix(1.0, 0.0, 0.0, 1.0, 0.0, 0.0)">
      <path d="M47.3 38.3 Q40.7 29.65 30.65 21.9 L24.25 15.45 24.7 15.05 Q29.0 19.5 35.2 24.6 42.85 30.85 46.55 35.8 L48.25 38.4 47.3 38.3 M10.1 27.95 L12.2 34.8 Q7.75 26.9 7.6 33.2 L7.25 31.05 Q6.5 26.1 6.3 20.5 7.45 20.15 8.65 22.05 9.3 25.15 10.1 27.95" fill="#ececda" fill-rule="evenodd" stroke="none"/>
      <path d="M47.3 38.3 Q43.3 37.8 40.55 39.15 38.65 40.05 37.3 41.8 33.75 46.35 27.2 45.55 L23.8 45.25 20.75 45.3 Q18.85 45.5 17.6 46.05 14.6 41.45 12.2 34.8 L10.1 27.95 12.35 25.5 15.7 34.25 14.1 36.5 15.1 37.75 15.75 41.1 17.25 40.35 21.25 44.25 21.4 42.65 Q21.5 38.75 20.0 34.85 L15.8 25.55 15.5 24.0 18.7 25.25 Q19.7 22.35 19.85 18.5 L26.55 28.0 28.0 30.95 27.1 34.0 29.85 34.5 30.85 37.25 31.75 36.0 34.5 37.75 Q35.35 35.25 34.05 32.4 L22.35 17.1 24.25 15.45 30.65 21.9 Q40.7 29.65 47.3 38.3" fill="#dedecb" fill-rule="evenodd" stroke="none"/>
      <path d="M24.25 15.45 L22.35 17.1 34.05 32.4 Q35.35 35.25 34.5 37.75 L31.75 36.0 30.85 37.25 29.85 34.5 27.1 34.0 28.0 30.95 26.55 28.0 19.85 18.5 Q19.7 22.35 18.7 25.25 L15.5 24.0 15.8 25.55 20.0 34.85 Q21.5 38.75 21.4 42.65 L21.25 44.25 17.25 40.35 15.75 41.1 15.1 37.75 14.1 36.5 15.7 34.25 12.35 25.5 10.1 27.95 Q9.3 25.15 8.65 22.05 7.8 18.2 7.1 13.9 L19.8 10.3 24.0 15.2 24.25 15.45" fill="#c4c4b0" fill-rule="evenodd" stroke="none"/>
      <path d="M6.3 20.5 L6.2 13.9 7.1 13.9 Q7.8 18.2 8.65 22.05 7.45 20.15 6.3 20.5 M19.8 10.3 L20.45 10.1 24.7 15.05 24.25 15.45 24.0 15.2 19.8 10.3" fill="#d0d0b9" fill-rule="evenodd" stroke="none"/>
      <path d="M12.2 34.8 Q14.6 41.45 17.6 46.05 20.15 50.0 23.15 52.65 13.25 50.75 12.3 48.0 9.1 41.7 7.6 33.2 7.75 26.9 12.2 34.8" fill="#ffffe9" fill-rule="evenodd" stroke="none"/>
      <path d="M17.6 46.05 Q18.85 45.5 20.75 45.3 L23.8 45.25 27.2 45.55 Q33.75 46.35 37.3 41.8 38.65 40.05 40.55 39.15 43.3 37.8 47.3 38.3 M10.1 27.95 L12.2 34.8 Q14.6 41.45 17.6 46.05 20.15 50.0 23.15 52.65 13.25 50.75 12.3 48.0 9.1 41.7 7.6 33.2 L7.25 31.05 Q6.5 26.1 6.3 20.5 L6.2 13.9 7.1 13.9 19.8 10.3 20.45 10.1 24.7 15.05 Q29.0 19.5 35.2 24.6 42.85 30.85 46.55 35.8 L48.25 38.4 47.3 38.3 M8.65 22.05 Q7.8 18.2 7.1 13.9 M10.1 27.95 Q9.3 25.15 8.65 22.05" fill="none" stroke="#000000" stroke-linecap="round" stroke-linejoin="round" stroke-opacity="0.15294118" stroke-width="0.05"/>
      <path d="M22.75 43.1 Q20.8 41.9 17.95 38.6 17.6 39.25 16.65 39.4 15.8 37.0 16.65 34.7 L17.7 34.6 Q18.55 38.95 22.75 43.1" fill="#a4a387" fill-rule="evenodd" stroke="none"/>
      <path d="M22.75 43.1 Q18.55 38.95 17.7 34.6 L20.65 34.25 Q23.15 35.95 24.75 37.9 24.2 37.95 23.45 37.35 24.0 41.15 22.75 43.1" fill="#d2d1b5" fill-rule="evenodd" stroke="none"/>
      <path d="M17.7 34.6 L16.65 34.7 Q15.8 37.0 16.65 39.4 17.6 39.25 17.95 38.6 20.8 41.9 22.75 43.1 M17.7 34.6 L20.65 34.25 Q23.15 35.95 24.75 37.9 24.2 37.95 23.45 37.35 24.0 41.15 22.75 43.1" fill="none" stroke="#000000" stroke-linecap="round" stroke-linejoin="round" stroke-opacity="0.15294118" stroke-width="0.05"/>
      <path d="M10.75 15.5 L9.85 11.4 12.55 11.05 13.4 14.7 14.2 17.6 14.4 18.25 Q13.65 17.05 12.8 18.25 L13.35 20.25 15.35 25.8 Q14.45 25.45 13.5 24.65 14.45 25.45 15.35 25.8 L16.65 29.2 17.05 30.25 16.7 30.05 17.05 30.25 18.3 33.3 17.65 34.45 18.7 36.0 17.95 35.75 17.45 35.55 Q16.0 35.0 14.95 34.15 15.6 32.9 16.45 32.3 L14.85 28.3 Q15.85 28.95 16.65 29.2 15.85 28.95 14.85 28.3 L13.5 24.65 Q11.9 20.0 10.75 15.5 11.05 16.0 12.25 16.45 L12.65 16.6 12.25 16.45 Q11.05 16.0 10.75 15.5 M16.95 33.55 L16.45 32.3 16.95 33.55" fill="#a4a387" fill-rule="evenodd" stroke="none"/>
      <path d="M13.35 20.25 L12.8 18.25 Q13.65 17.05 14.4 18.25 L15.4 20.9 Q14.55 21.05 13.35 20.25 14.55 21.05 15.4 20.9 L17.4 26.1 18.7 29.3 19.25 30.5 17.05 30.25 19.25 30.5 19.95 32.15 Q21.6 32.65 22.7 33.8 L21.85 35.0 21.25 35.45 21.05 35.65 19.95 36.2 19.7 36.3 18.7 36.0 17.65 34.45 18.3 33.3 17.05 30.25 16.65 29.2 15.35 25.8 17.4 26.1 15.35 25.8 13.35 20.25 M16.65 29.2 L18.7 29.3 16.65 29.2 M20.3 33.0 L19.95 32.15 20.3 33.0" fill="#d2d1b5" fill-rule="evenodd" stroke="none"/>
      <path d="M14.4 18.25 L14.2 17.6 13.4 14.7 12.55 11.05 9.85 11.4 10.75 15.5 Q11.05 16.0 12.25 16.45 L12.65 16.6 M13.35 20.25 Q14.55 21.05 15.4 20.9 L14.4 18.25 M10.75 15.5 Q11.9 20.0 13.5 24.65 14.45 25.45 15.35 25.8 M17.05 30.25 L19.25 30.5 18.7 29.3 16.65 29.2 Q15.85 28.95 14.85 28.3 L16.45 32.3 16.95 33.55 M17.05 30.25 L16.7 30.05 M18.7 29.3 L17.4 26.1 15.35 25.8 M21.05 35.65 L21.25 35.45 21.85 35.0 22.7 33.8 Q21.6 32.65 19.95 32.15 L20.3 33.0 M16.45 32.3 Q15.6 32.9 14.95 34.15 16.0 35.0 17.45 35.55 M19.95 32.15 L19.25 30.5 M13.5 24.65 L14.85 28.3 M17.4 26.1 L15.4 20.9" fill="none" stroke="#000000" stroke-linecap="round" stroke-linejoin="round" stroke-opacity="0.15294118" stroke-width="0.05"/>
      <path d="M30.2 29.8 L33.1 27.95 Q35.75 28.6 37.25 30.45 36.35 31.0 35.45 30.85 36.1 34.5 35.55 36.4 31.15 34.3 30.2 29.8" fill="#d2d1b5" fill-rule="evenodd" stroke="none"/>
      <path d="M35.55 36.4 Q32.9 36.15 30.0 33.8 29.95 34.6 29.4 34.9 28.95 32.85 29.45 30.3 L30.2 29.8 Q31.15 34.3 35.55 36.4" fill="#a4a387" fill-rule="evenodd" stroke="none"/>
      <path d="M30.2 29.8 L33.1 27.95 Q35.75 28.6 37.25 30.45 36.35 31.0 35.45 30.85 36.1 34.5 35.55 36.4 32.9 36.15 30.0 33.8 29.95 34.6 29.4 34.9 28.95 32.85 29.45 30.3 L30.2 29.8 Z" fill="none" stroke="#000000" stroke-linecap="round" stroke-linejoin="round" stroke-opacity="0.15294118" stroke-width="0.05"/>
      <path d="M20.5 15.65 L20.75 15.25 Q21.3 14.3 21.05 13.8 21.3 14.3 20.75 15.25 L20.5 15.65 M22.25 15.15 Q21.2 14.8 21.9 16.5 L23.15 18.1 26.4 22.35 25.0 23.85 22.15 19.7 20.15 17.2 18.3 15.1 15.75 12.6 18.3 11.05 20.05 12.85 21.05 13.8 22.25 15.15 M23.15 18.1 Q22.9 19.25 22.15 19.7 22.9 19.25 23.15 18.1 M30.45 31.3 L30.05 31.35 29.25 31.5 27.5 31.4 Q27.35 30.1 28.3 28.75 L27.4 27.4 26.7 26.4 25.0 23.85 26.4 22.35 28.3 25.0 28.85 25.8 30.6 28.25 Q30.2 28.95 30.45 30.4 L31.35 31.05 30.45 31.3 M26.7 26.4 Q27.7 26.0 28.3 25.0 27.7 26.0 26.7 26.4 M28.3 28.75 L28.7 29.4 28.3 28.75 M27.4 27.4 Q28.3 26.95 28.85 25.8 28.3 26.95 27.4 27.4" fill="#a4a387" fill-rule="evenodd" stroke="none"/>
      <path d="M26.4 22.35 L23.15 18.1 21.9 16.5 Q21.2 14.8 22.25 15.15 L26.9 20.55 29.0 23.35 31.2 26.55 Q32.4 26.3 34.0 26.55 33.9 27.65 33.25 28.9 L33.05 29.35 32.65 30.0 32.05 30.8 31.75 30.9 31.35 31.05 30.45 30.4 Q30.2 28.95 30.6 28.25 L28.85 25.8 29.05 25.5 28.85 25.8 28.3 25.0 26.4 22.35 26.9 20.55 26.4 22.35 M31.85 27.55 L31.2 26.55 31.85 27.55 M28.3 25.0 L29.0 23.35 28.3 25.0" fill="#d2d1b5" fill-rule="evenodd" stroke="none"/>
      <path d="M21.05 13.8 Q21.3 14.3 20.75 15.25 L20.5 15.65 M26.4 22.35 L26.9 20.55 22.25 15.15 21.05 13.8 20.05 12.85 18.3 11.05 15.75 12.6 18.3 15.1 20.15 17.2 22.15 19.7 Q22.9 19.25 23.15 18.1 M30.45 31.3 L30.05 31.35 29.25 31.5 27.5 31.4 Q27.35 30.1 28.3 28.75 L27.4 27.4 26.7 26.4 25.0 23.85 22.15 19.7 M26.9 20.55 L29.0 23.35 31.2 26.55 Q32.4 26.3 34.0 26.55 33.9 27.65 33.25 28.9 M26.4 22.35 L25.0 23.85 M31.2 26.55 L31.85 27.55 M28.3 25.0 Q27.7 26.0 26.7 26.4 M29.05 25.5 L28.85 25.8 Q28.3 26.95 27.4 27.4 M28.7 29.4 L28.3 28.75 M29.0 23.35 L28.3 25.0" fill="none" stroke="#000000" stroke-linecap="round" stroke-linejoin="round" stroke-opacity="0.15294118" stroke-width="0.05"/>
      <path d="M20.45 6.0 L20.25 7.5 Q18.0 6.8 16.6 12.8 L16.6 12.55 16.9 7.6 Q19.5 6.85 20.45 6.0 M3.95 10.1 L3.95 10.05 Q5.6 6.9 7.35 4.35 L7.5 4.2 Q10.95 -0.25 13.3 3.2 15.6 6.65 14.15 8.2 L7.75 9.75 7.65 9.75 3.95 10.1" fill="#afae9a" fill-rule="evenodd" stroke="none"/>
      <path d="M11.0 0.0 Q13.65 0.5 16.15 2.1 19.05 4.3 19.9 6.0 18.3 7.2 16.65 7.2 L15.1 4.4 12.2 1.1 11.1 0.1 11.0 0.0" fill="#e7e6c3" fill-rule="evenodd" stroke="none"/>
      <path d="M16.15 2.1 Q18.4 3.55 20.45 6.0 19.5 6.85 16.9 7.6 L16.6 12.55 16.6 12.8 15.85 18.3 16.35 13.1 16.45 10.3 16.35 7.75 Q12.2 9.25 7.55 9.8 L7.65 9.75 7.75 9.75 14.15 8.2 15.65 7.6 16.3 7.25 Q14.6 3.55 12.2 1.1 L15.1 4.4 16.65 7.2 Q18.3 7.2 19.9 6.0 19.05 4.3 16.15 2.1" fill="#fffecb" fill-rule="evenodd" stroke="none"/>
      <path d="M7.5 4.2 L8.0 3.45 11.0 0.0 11.1 0.1 12.2 1.1 Q14.6 3.55 16.3 7.25 L15.65 7.6 14.15 8.2 Q15.6 6.65 13.3 3.2 10.95 -0.25 7.5 4.2" fill="#878673" fill-rule="evenodd" stroke="none"/>
      <path d="M15.55 20.1 Q11.4 19.1 8.25 16.1 L7.65 15.5 5.75 13.1 3.95 10.1 7.65 9.75 7.55 9.8 Q12.2 9.25 16.35 7.75 L16.45 10.3 16.35 13.1 15.85 18.3 15.85 18.35 15.55 20.1" fill="#797863" fill-rule="evenodd" stroke="none"/>
      <path d="M20.25 7.5 Q19.75 11.05 18.75 13.9 17.5 17.55 15.55 20.1 L15.85 18.35 15.85 18.3 16.6 12.8 Q18.0 6.8 20.25 7.5" fill="#bfbeac" fill-rule="evenodd" stroke="none"/>
      <path d="M20.45 6.0 L20.25 7.5 Q19.75 11.05 18.75 13.9 17.5 17.55 15.55 20.1 11.4 19.1 8.25 16.1 L7.65 15.5 5.75 13.1 3.95 10.1 3.95 10.05 Q5.6 6.9 7.35 4.35 L7.5 4.2 8.0 3.45 11.0 0.0 Q13.65 0.5 16.15 2.1 18.4 3.55 20.45 6.0 Z" fill="none" stroke="#000000" stroke-linecap="round" stroke-linejoin="round" stroke-opacity="0.15294118" stroke-width="0.05"/>
      <path d="M15.9 2.8 Q15.45 2.4 15.5 2.1 L16.45 2.6 Q17.85 3.8 17.8 4.45 17.6 5.1 16.95 4.65 L16.9 4.6 Q17.15 4.55 17.0 4.2 L17.15 4.1 16.6 3.25 15.9 2.8 M13.15 1.15 Q12.8 1.4 13.75 1.8 L12.55 1.5 11.9 0.85 11.95 0.8 13.15 1.15 M10.1 2.7 L10.2 3.2 10.55 3.4 9.85 4.6 9.75 3.75 9.5 3.5 10.1 2.7 M10.7 5.75 L10.35 5.35 Q10.35 4.65 11.15 4.75 11.7 5.2 11.7 5.8 L10.7 5.75" fill="#fffeb1" fill-rule="evenodd" stroke="none"/>
      <path d="M15.5 2.1 Q15.45 2.4 15.9 2.8 L14.85 2.25 14.55 1.65 15.5 2.1" fill="#cdb95c" fill-rule="evenodd" stroke="none"/>
      <path d="M14.55 1.65 L14.85 2.25 13.75 1.8 Q12.8 1.4 13.15 1.15 L14.55 1.65 M17.0 4.2 Q17.15 4.55 16.9 4.6 16.3 4.2 16.05 3.55 16.0 3.15 16.6 3.65 L16.85 4.1 17.0 4.2" fill="#ffffff" fill-rule="evenodd" stroke="none"/>
      <path d="M11.9 0.85 L12.55 1.5 10.55 3.4 10.2 3.2 10.1 2.7 Q10.95 1.6 11.9 0.85 M10.7 5.75 L11.7 5.8 11.65 6.05 Q11.15 7.2 9.75 7.1 8.25 6.6 8.6 4.9 L9.5 3.5 9.75 3.75 9.85 4.6 9.55 5.2 Q9.65 6.1 10.25 6.2 L10.7 5.75" fill="#ffe77b" fill-rule="evenodd" stroke="none"/>
      <path d="M0.85 9.55 Q0.7 7.45 1.75 7.8 6.25 10.3 12.45 11.8 14.6 12.7 14.95 16.0 L14.95 16.65 Q13.3 18.55 12.3 17.15 L12.7 16.75 Q13.0 15.9 12.45 15.2 11.85 14.65 10.65 14.8 9.4 15.3 9.25 17.1 9.4 15.3 10.65 14.8 11.85 14.65 12.45 15.2 12.85 17.1 9.65 17.5 11.7 20.25 14.45 18.0 L13.7 18.8 11.35 19.15 10.5 18.85 Q9.3 18.25 9.25 17.1 L7.3 17.2 6.45 16.6 5.15 15.1 4.95 14.65 5.15 15.1 6.45 16.6 Q3.1 17.25 0.0 15.15 L4.5 14.35 4.95 14.65 Q4.9 14.15 5.45 13.9 L7.3 14.1 Q3.4 12.7 0.85 9.55 M6.6 19.85 L5.65 19.05 6.95 18.3 8.7 18.1 Q7.8 19.45 6.6 19.85 M7.8 14.2 L7.3 14.1 7.8 14.2" fill="#d6e8e9" fill-rule="evenodd" stroke="none"/>
      <path d="M14.95 16.65 L14.45 18.0 Q11.7 20.25 9.65 17.5 12.85 17.1 12.45 15.2 13.0 15.9 12.7 16.75 L12.3 17.15 Q13.3 18.55 14.95 16.65 M10.5 18.85 Q9.25 19.7 7.85 20.1 L6.6 19.85 Q7.8 19.45 8.7 18.1 L6.95 18.3 Q3.0 18.6 0.6 16.6 0.0 15.95 0.0 15.15 3.1 17.25 6.45 16.6 L7.3 17.2 9.25 17.1 Q9.3 18.25 10.5 18.85 M4.5 14.35 Q1.85 12.65 0.85 9.55 3.4 12.7 7.3 14.1 L5.45 13.9 Q4.9 14.15 4.95 14.65 L4.5 14.35 M12.3 17.15 L11.6 17.3 12.3 17.15" fill="#9fafb1" fill-rule="evenodd" stroke="none"/>
      <path d="M0.85 9.55 Q0.7 7.45 1.75 7.8 6.25 10.3 12.45 11.8 14.6 12.7 14.95 16.0 L14.95 16.65 14.45 18.0 13.7 18.8 11.35 19.15 10.5 18.85 Q9.25 19.7 7.85 20.1 L6.6 19.85 5.65 19.05 6.95 18.3 Q3.0 18.6 0.6 16.6 0.0 15.95 0.0 15.15 L4.5 14.35 Q1.85 12.65 0.85 9.55 M7.3 14.1 L7.8 14.2 M7.3 14.1 L5.45 13.9 Q4.9 14.15 4.95 14.65 L5.15 15.1 6.45 16.6 7.3 17.2 M9.25 17.1 Q9.4 15.3 10.65 14.8 11.85 14.65 12.45 15.2 13.0 15.9 12.7 16.75 L12.3 17.15 M4.5 14.35 L4.95 14.65 M11.6 17.3 L12.3 17.15 M9.25 17.1 Q9.3 18.25 10.5 18.85" fill="none" stroke="#000000" stroke-linecap="round" stroke-linejoin="round" stroke-opacity="0.15294118" stroke-width="0.05"/>
      <path d="M17.55 16.35 Q17.25 15.7 17.2 14.6 17.15 12.9 18.55 10.4 20.85 7.05 21.8 3.2 22.15 2.55 22.6 3.3 22.95 6.05 21.45 9.55 L22.15 8.6 Q22.5 8.4 22.65 8.75 L22.7 9.1 22.65 8.75 22.75 8.3 24.7 6.8 24.8 7.05 22.7 9.1 Q22.8 10.2 22.5 11.3 L22.35 11.4 21.9 12.15 21.85 12.15 Q21.35 11.55 20.3 12.0 19.55 12.3 19.25 13.0 L19.15 13.35 19.25 13.0 Q19.55 12.3 20.3 12.0 21.35 11.55 21.85 12.15 L21.9 12.15 22.3 12.9 22.4 13.7 Q22.05 12.85 21.35 12.55 19.7 14.75 19.15 13.35 18.95 13.95 19.35 14.35 L19.5 14.5 20.25 14.4 Q19.05 17.05 17.55 16.35 M21.2 9.9 L21.45 9.55 21.2 9.9 M23.3 11.55 L24.15 11.1 22.3 12.85 23.3 11.55" fill="#d6e8e9" fill-rule="evenodd" stroke="none"/>
      <path d="M17.55 16.35 Q19.05 17.05 20.25 14.4 L19.5 14.5 19.35 14.35 Q18.95 13.95 19.15 13.35 19.7 14.75 21.35 12.55 22.05 12.85 22.4 13.7 L22.3 12.9 21.9 12.15 22.35 11.4 22.5 11.3 Q22.8 10.2 22.7 9.1 L24.8 7.05 24.55 8.95 Q24.1 10.7 23.3 11.55 L22.3 12.85 24.15 11.1 23.0 13.1 22.4 13.85 21.75 14.85 20.8 15.85 20.2 16.45 Q18.4 17.55 17.85 16.95 L17.55 16.35 M22.65 8.75 Q22.5 8.4 22.15 8.6 L21.45 9.55 Q22.95 6.05 22.6 3.3 L22.8 3.65 Q23.8 5.7 22.75 8.3 L22.65 8.75 M20.25 14.4 L20.55 14.15 20.9 13.8 20.55 14.15 20.25 14.4 M22.4 13.85 L22.4 13.7 22.4 13.85" fill="#9fafb1" fill-rule="evenodd" stroke="none"/>
      <path d="M22.6 3.3 Q22.15 2.55 21.8 3.2 20.85 7.05 18.55 10.4 17.15 12.9 17.2 14.6 17.25 15.7 17.55 16.35 M20.25 14.4 L19.5 14.5 19.35 14.35 Q18.95 13.95 19.15 13.35 L19.25 13.0 Q19.55 12.3 20.3 12.0 21.35 11.55 21.85 12.15 L21.9 12.15 M22.35 11.4 L22.5 11.3 Q22.8 10.2 22.7 9.1 L22.65 8.75 Q22.5 8.4 22.15 8.6 L21.45 9.55 21.2 9.9 M22.75 8.3 Q23.8 5.7 22.8 3.65 L22.6 3.3 M24.8 7.05 L24.55 8.95 Q24.1 10.7 23.3 11.55 L24.15 11.1 23.0 13.1 22.4 13.85 21.75 14.85 20.8 15.85 20.2 16.45 Q18.4 17.55 17.85 16.95 L17.55 16.35 M22.75 8.3 L24.7 6.8 24.8 7.05 M22.75 8.3 L22.65 8.75 M22.4 13.7 L22.3 12.9 21.9 12.15 M22.4 13.7 L22.4 13.85 M20.9 13.8 L20.55 14.15 20.25 14.4" fill="none" stroke="#000000" stroke-linecap="round" stroke-linejoin="round" stroke-opacity="0.15294118" stroke-width="0.05"/>
    </g>
    <g id="sprite1" transform="matrix(1.0, 0.0, 0.0, 1.0, 0.5, 0.5)">
      <clipPath id="clipPath0" transform="matrix(1.0, 0.0, 0.0, 1.0, 0.5, 0.5)">
        <use height="53.15" transform="matrix(1.0, 0.0, 0.0, 1.0, -0.25, -0.25)" width="48.75" xlink:href="#shape2"/>
      </clipPath>
      <g clip-path="url(#clipPath0)">
        <use height="53.65" transform="matrix(1.0, 0.0, 0.0, 1.0, -0.5, -0.5)" width="49.25" xlink:href="#sprite2"/>
      </g>
    </g>
    <g id="shape2" transform="matrix(1.0, 0.0, 0.0, 1.0, 0.25, 0.25)">
      <path d="M23.85 45.0 L23.8 45.0 20.75 45.05 Q18.8 45.25 17.5 45.85 L17.4 45.95 17.35 46.05 17.4 46.2 Q19.7 49.7 22.35 52.25 13.45 50.4 12.55 47.95 L12.55 47.9 Q9.35 41.6 7.85 33.15 L7.5 31.05 Q6.75 26.1 6.55 20.5 L6.55 19.65 6.55 19.55 6.45 19.45 6.05 19.15 6.35 18.95 6.5 18.85 6.5 18.7 6.5 18.35 6.45 18.2 6.25 18.1 Q2.9 18.15 0.8 16.45 L0.75 16.4 Q0.35 15.95 0.25 15.4 L4.55 14.6 4.7 14.55 4.75 14.4 4.75 14.25 4.65 14.15 Q2.05 12.5 1.1 9.5 1.05 8.55 1.25 8.2 1.35 7.95 1.7 8.05 L1.65 8.05 4.35 9.4 4.55 9.4 4.7 9.3 Q6.05 6.65 7.55 4.5 L7.45 4.6 7.6 4.45 7.7 4.35 8.2 3.6 11.1 0.3 Q13.6 0.75 16.05 2.3 18.2 3.7 20.2 6.1 L20.0 7.5 20.05 7.65 20.2 7.75 20.35 7.75 20.5 7.6 22.05 3.35 22.15 3.15 22.4 3.45 22.6 3.8 Q23.5 5.75 22.55 8.2 L22.5 8.4 22.6 8.5 22.75 8.55 22.9 8.5 24.6 7.25 24.3 8.9 Q23.9 10.55 23.15 11.4 L23.05 11.55 23.1 11.7 23.25 11.8 23.4 11.8 23.7 11.65 22.8 12.95 22.75 13.1 22.75 13.15 22.8 13.3 24.55 15.25 Q28.85 19.7 35.05 24.8 42.65 31.0 46.35 35.95 L47.8 38.1 47.35 38.05 47.3 38.05 Q43.25 37.55 40.45 38.95 38.5 39.85 37.1 41.65 33.65 46.1 27.25 45.3 L23.85 45.0" fill="#c97f7f" fill-rule="evenodd" stroke="none"/>
      <path d="M20.8 45.55 Q19.1 45.7 17.95 46.2 20.45 49.95 23.35 52.5 L23.4 52.6 23.4 52.75 23.25 52.9 23.1 52.9 Q13.0 50.95 12.1 48.1 L12.1 48.15 Q8.85 41.8 7.35 33.25 L7.0 31.1 Q6.25 26.15 6.05 20.5 L6.05 19.8 5.45 19.2 5.4 19.05 5.45 18.95 5.55 18.85 5.95 18.6 Q2.6 18.55 0.45 16.8 -0.25 16.05 -0.25 15.15 L-0.2 15.0 -0.05 14.9 3.9 14.2 Q1.55 12.5 0.6 9.65 L0.6 9.6 Q0.5 8.45 0.8 7.95 1.1 7.3 1.85 7.6 L1.9 7.6 4.35 8.85 Q5.7 6.3 7.15 4.2 L7.25 4.15 7.3 4.1 7.8 3.3 10.85 -0.15 10.95 -0.25 11.05 -0.25 Q13.75 0.25 16.3 1.9 18.55 3.35 20.65 5.85 L20.7 5.9 21.55 3.15 21.6 3.1 Q21.85 2.55 22.2 2.65 L22.85 3.2 22.85 3.25 23.0 3.5 23.05 3.55 Q23.9 5.35 23.25 7.6 L24.55 6.6 24.75 6.55 24.9 6.65 25.05 7.0 24.8 9.0 24.1 10.85 24.25 10.9 24.4 11.0 24.4 11.2 Q24.15 12.1 23.35 13.15 L24.9 14.9 Q29.15 19.3 35.35 24.4 43.05 30.7 46.75 35.65 L48.5 38.3 48.5 38.45 48.4 38.6 48.2 38.65 47.3 38.55 Q43.35 38.05 40.65 39.4 38.8 40.25 37.5 41.95 33.85 46.6 27.2 45.8 L23.8 45.5 20.8 45.55 M23.85 45.0 L27.25 45.3 Q33.65 46.1 37.1 41.65 38.5 39.85 40.45 38.95 43.25 37.55 47.3 38.05 L47.35 38.05 47.8 38.1 46.35 35.95 Q42.65 31.0 35.05 24.8 28.85 19.7 24.55 15.25 L22.8 13.3 22.75 13.15 22.75 13.1 22.8 12.95 23.7 11.65 23.4 11.8 23.25 11.8 23.1 11.7 23.05 11.55 23.15 11.4 Q23.9 10.55 24.3 8.9 L24.6 7.25 22.9 8.5 22.75 8.55 22.6 8.5 22.5 8.4 22.55 8.2 Q23.5 5.75 22.6 3.8 L22.4 3.45 22.15 3.15 22.05 3.35 20.5 7.6 20.35 7.75 20.2 7.75 20.05 7.65 20.0 7.5 20.2 6.1 Q18.2 3.7 16.05 2.3 13.6 0.75 11.1 0.3 L8.2 3.6 7.7 4.35 7.6 4.45 7.45 4.6 7.55 4.5 Q6.05 6.65 4.7 9.3 L4.55 9.4 4.35 9.4 1.65 8.05 1.7 8.05 Q1.35 7.95 1.25 8.2 1.05 8.55 1.1 9.5 2.05 12.5 4.65 14.15 L4.75 14.25 4.75 14.4 4.7 14.55 4.55 14.6 0.25 15.4 Q0.35 15.95 0.75 16.4 L0.8 16.45 Q2.9 18.15 6.25 18.1 L6.45 18.2 6.5 18.35 6.5 18.7 6.5 18.85 6.35 18.95 6.05 19.15 6.45 19.45 6.55 19.55 6.55 19.65 6.55 20.5 Q6.75 26.1 7.5 31.05 L7.85 33.15 Q9.35 41.6 12.55 47.9 L12.55 47.95 Q13.45 50.4 22.35 52.25 19.7 49.7 17.4 46.2 L17.35 46.05 17.4 45.95 17.5 45.85 Q18.8 45.25 20.75 45.05 L23.8 45.0 23.85 45.0" fill="#ffee74" fill-rule="evenodd" stroke="none"/>
    </g>
    <g id="sprite2" transform="matrix(1.0, 0.0, 0.0, 1.0, 0.5, 0.5)">
      <use height="53.65" transform="matrix(1.0, 0.0, 0.0, 1.0, -0.5, -0.5)" width="49.25" xlink:href="#shape3"/>
    </g>
    <g id="shape3" transform="matrix(1.0, 0.0, 0.0, 1.0, 0.5, 0.5)">
      <path d="M20.75 45.3 L23.8 45.25 27.2 45.55 Q33.75 46.35 37.3 41.8 38.65 40.05 40.55 39.15 43.3 37.8 47.3 38.3 L48.25 38.4 46.55 35.8 Q42.85 30.85 35.2 24.6 29.0 19.5 24.7 15.05 L23.0 13.15 23.0 13.1 24.15 11.1 23.3 11.55 Q24.1 10.7 24.55 8.95 L24.8 7.05 24.7 6.8 22.75 8.3 Q23.8 5.7 22.8 3.65 L22.6 3.3 Q22.15 2.55 21.8 3.2 L20.25 7.5 20.45 6.0 Q18.4 3.55 16.15 2.1 13.65 0.5 11.0 0.0 L8.0 3.45 7.5 4.2 7.35 4.35 Q5.85 6.5 4.45 9.15 L1.75 7.8 Q0.7 7.45 0.85 9.55 1.85 12.65 4.5 14.35 L0.0 15.15 Q0.0 15.95 0.6 16.6 2.8 18.4 6.25 18.35 L6.25 18.7 5.65 19.05 6.3 19.65 6.3 20.5 Q6.5 26.1 7.25 31.05 L7.6 33.2 Q9.1 41.7 12.3 48.0 13.25 50.75 23.15 52.65 20.15 50.0 17.6 46.05 18.85 45.5 20.75 45.3 Z" fill="none" stroke="#ffee74" stroke-linecap="round" stroke-linejoin="round" stroke-width="1.0"/>
    </g>
    <g id="sprite3" transform="matrix(1.0, 0.0, 0.0, 1.0, 73.5, 65.0)">
      <use height="136.85" transform="matrix(1.0, 0.0, 0.0, 1.0, -73.5, -65.0)" width="148.25" xlink:href="#sprite4"/>
    </g>
    <g id="sprite4" transform="matrix(1.0, 0.0, 0.0, 1.0, 0.0, 0.0)">
      <use height="136.85" transform="matrix(1.0, 0.0, 0.0, 1.0, 0.0, 0.0)" width="148.25" xlink:href="#shape4"/>
    </g>
    <g id="shape4" transform="matrix(1.0, 0.0, 0.0, 1.0, 0.0, 0.0)">
      <path d="M6.8 37.7 Q19.4 12.5 48.0 3.6 76.6 -5.2 104.5 7.5 107.4 8.85 110.15 10.35 133.55 23.0 143.25 47.05 154.05 73.9 141.5 99.1 128.95 124.35 100.3 133.2 71.7 142.05 43.8 129.3 15.9 116.6 5.05 89.75 -5.8 62.95 6.75 37.75 L6.8 37.7" fill="url(#gradient0)" fill-rule="evenodd" stroke="none"/>
    </g>
    <radialGradient cx="0" cy="0" gradientTransform="matrix(0.0914, 0.0, 0.0, 0.0914, 74.1, 68.4)" gradientUnits="userSpaceOnUse" id="gradient0" r="819.2" spreadMethod="pad">
      <stop offset="0.0" stop-color="#ffffff"/>
      <stop offset="1.0" stop-color="#ffffff" stop-opacity="0.0"/>
    </radialGradient>
  </defs>
</svg>
