<?xml version="1.0" encoding="UTF-8" standalone="no"?>
<svg xmlns:xlink="http://www.w3.org/1999/xlink" height="440.0px" width="440.0px" xmlns="http://www.w3.org/2000/svg">
  <g transform="matrix(10.0, 0.0, 0.0, 10.0, 0.0, 0.0)">
    <use height="44.0" transform="matrix(1.0, 0.0, 0.0, 1.0, 0.0, 0.0)" width="44.0" xlink:href="#shape0"/>
    <use height="44.15" transform="matrix(0.8864, 0.0, 0.0, 0.8864, 4.59, 2.2572)" width="35.95" xlink:href="#sprite0"/>
  </g>
  <defs>
    <g id="shape0" transform="matrix(1.0, 0.0, 0.0, 1.0, 0.0, 0.0)">
      <path d="M44.0 44.0 L0.0 44.0 0.0 0.0 44.0 0.0 44.0 44.0" fill="#43adca" fill-opacity="0.0" fill-rule="evenodd" stroke="none"/>
    </g>
    <g id="sprite0" transform="matrix(1.0, 0.0, 0.0, 1.0, 22.35, 37.9)">
      <use height="29.5" transform="matrix(-0.9125, 0.0, 0.0, 0.4563, 11.6599, -7.23)" width="29.5" xlink:href="#sprite1"/>
      <use height="0.0" transform="matrix(1.0, 0.0, 0.0, 1.0, 0.25, -5.1)" width="0.0" xlink:href="#sprite2"/>
      <use height="6.55" transform="matrix(1.0, 0.0, 0.0, 1.0, 2.7, -10.85)" width="4.7" xlink:href="#sprite3"/>
      <use height="2.8" transform="matrix(1.0, 0.0, 0.0, 1.0, 0.95, -13.2)" width="3.3" xlink:href="#sprite4"/>
      <use height="3.25" transform="matrix(1.0, 0.0, 0.0, 1.0, 0.7, -2.9)" width="4.3" xlink:href="#sprite5"/>
      <use height="3.45" transform="matrix(1.0, 0.0, 0.0, 1.0, -6.35, -0.15)" width="5.5" xlink:href="#sprite6"/>
      <use height="5.95" transform="matrix(1.0, 0.0, 0.0, 1.0, 0.4, -7.75)" width="4.0" xlink:href="#sprite7"/>
      <use height="5.7" transform="matrix(1.0, 0.0, 0.0, 1.0, -5.6, -4.9)" width="5.2" xlink:href="#sprite8"/>
      <use height="13.7" transform="matrix(1.0, 0.0, 0.0, 1.0, -5.9, -15.2)" width="11.55" xlink:href="#sprite9"/>
      <use height="3.1" transform="matrix(1.0, 0.0, 0.0, 1.0, -6.35, -11.15)" width="3.1" xlink:href="#sprite10"/>
      <use height="21.4" transform="matrix(1.0, 0.0, 0.0, 1.0, -11.8, -28.7)" width="22.8" xlink:href="#sprite11"/>
      <use height="0.0" transform="matrix(1.0, 0.0, 0.0, 1.0, -10.9, -17.95)" width="0.0" xlink:href="#sprite12"/>
      <use height="0.0" transform="matrix(1.0, 0.0, 0.0, 1.0, 4.55, -26.75)" width="0.0" xlink:href="#sprite13"/>
      <use height="11.25" transform="matrix(1.0, 0.0, 0.0, 1.0, -7.4, -24.55)" width="14.55" xlink:href="#sprite14"/>
      <use height="14.55" transform="matrix(1.0, 0.0, 0.0, 1.0, -14.45, -8.7)" width="16.3" xlink:href="#sprite15"/>
      <use height="31.35" transform="matrix(1.0, 0.0, 0.0, 1.0, -22.35, -37.9)" width="35.95" xlink:href="#sprite16"/>
    </g>
    <g id="sprite1" transform="matrix(1.0, 0.0, 0.0, 1.0, 14.75, 14.75)">
      <use height="29.5" transform="matrix(1.0, 0.0, 0.0, 1.0, -14.75, -14.75)" width="29.5" xlink:href="#shape1"/>
    </g>
    <g id="shape1" transform="matrix(1.0, 0.0, 0.0, 1.0, 14.75, 14.75)">
      <path d="M10.4 -10.45 Q14.75 -6.1 14.75 0.0 14.75 6.1 10.4 10.4 6.1 14.75 0.0 14.75 -6.1 14.75 -10.45 10.4 -14.75 6.1 -14.75 0.0 -14.75 -6.1 -10.45 -10.45 -6.1 -14.75 0.0 -14.75 6.1 -14.75 10.4 -10.45" fill="url(#gradient0)" fill-rule="evenodd" stroke="none"/>
    </g>
    <radialGradient cx="0" cy="0" gradientTransform="matrix(0.0172, 0.0, 0.0, 0.0172, 0.0, 0.0)" gradientUnits="userSpaceOnUse" id="gradient0" r="819.2" spreadMethod="pad">
      <stop offset="0.3333333333333333" stop-color="#0e171d" stop-opacity="0.49803922"/>
      <stop offset="1.0" stop-color="#101a24" stop-opacity="0.0"/>
    </radialGradient>
    <g id="sprite3" transform="matrix(1.0, 0.0, 0.0, 1.0, 0.35, 0.6)">
      <use height="6.55" transform="matrix(1.0, 0.0, 0.0, 1.0, -0.35, -0.6)" width="4.7" xlink:href="#shape2"/>
    </g>
    <g id="shape2" transform="matrix(1.0, 0.0, 0.0, 1.0, 0.35, 0.6)">
      <path d="M2.35 3.35 L1.9 4.65 3.5 3.6 Q3.4 2.85 2.75 2.2 L2.35 3.35 M0.65 -0.6 L3.6 0.7 2.95 0.8 Q4.2 2.9 4.2 4.3 2.2 6.3 1.45 5.9 0.7 5.5 0.05 3.05 -0.6 0.55 -0.25 -0.1 L0.65 -0.6" fill="#5f492e" fill-rule="evenodd" stroke="none"/>
      <path d="M2.35 3.35 L2.75 2.2 Q3.4 2.85 3.5 3.6 L1.9 4.65 2.35 3.35" fill="#b1844e" fill-rule="evenodd" stroke="none"/>
      <path d="M-0.25 -0.1 Q-0.6 0.55 0.05 3.05 0.7 5.5 1.45 5.9 2.2 6.3 4.2 4.3 4.2 2.9 2.95 0.8 L3.6 0.7 0.65 -0.6" fill="none" stroke="#000000" stroke-linecap="round" stroke-linejoin="round" stroke-opacity="0.3019608" stroke-width="0.05"/>
      <path d="M3.8 4.3 L3.15 4.75 2.6 3.95 3.2 3.6 2.6 3.95 2.0 3.35 2.7 3.0 3.2 3.6 3.8 4.3 M2.15 5.0 L1.55 5.05 0.95 4.3 0.05 3.7 0.0 3.65 0.05 3.65 0.95 3.65 1.5 4.25 0.95 4.3 1.5 4.25 2.15 5.0 M1.4 5.05 L0.6 4.85 Q0.25 4.6 0.25 4.25 L0.05 3.7 0.05 3.65 0.05 3.7 0.8 4.35 0.25 4.25 0.8 4.35 1.4 5.05" fill="#ffffd7" fill-rule="evenodd" stroke="none"/>
      <path d="M3.35 2.6 L3.9 1.9 4.3 2.75 4.35 3.75 4.25 3.95 3.85 3.25 3.35 2.6 M4.3 2.75 L3.85 3.25 4.3 2.75" fill="#7b4b00" fill-rule="evenodd" stroke="none"/>
      <path d="M3.15 4.75 L2.15 5.0 1.5 4.25 0.95 3.65 2.0 3.35 2.6 3.95 1.5 4.25 2.6 3.95 3.15 4.75 M1.55 5.05 L1.4 5.05 0.8 4.35 0.95 4.3 0.8 4.35 0.05 3.7 0.95 4.3 1.55 5.05" fill="#ffcf2b" fill-rule="evenodd" stroke="none"/>
      <path d="M4.25 3.95 L3.8 4.3 3.2 3.6 2.7 3.0 3.35 2.6 3.85 3.25 4.25 3.95 M3.85 3.25 L3.2 3.6 3.85 3.25" fill="#b98900" fill-rule="evenodd" stroke="none"/>
      <path d="M3.35 2.6 L3.9 1.9 4.3 2.75 4.35 3.75 4.25 3.95 3.8 4.3 3.15 4.75 2.15 5.0 1.55 5.05 1.4 5.05 0.6 4.85 Q0.25 4.6 0.25 4.25 L0.05 3.7 0.05 3.65 0.95 3.65 2.0 3.35 2.7 3.0 3.35 2.6 M0.0 3.65 L0.05 3.65 M3.85 3.25 L4.3 2.75 M0.95 4.3 L0.8 4.35 M0.95 4.3 L1.5 4.25 2.6 3.95 M0.25 4.25 L0.8 4.35 M3.2 3.6 L2.6 3.95 M3.2 3.6 L3.85 3.25" fill="none" stroke="#000000" stroke-linecap="round" stroke-linejoin="round" stroke-opacity="0.4" stroke-width="0.05"/>
    </g>
    <g id="sprite4" transform="matrix(1.0, 0.0, 0.0, 1.0, -0.1, 1.25)">
      <use height="2.8" transform="matrix(1.0, 0.0, 0.0, 1.0, 0.1, -1.25)" width="3.3" xlink:href="#shape3"/>
    </g>
    <g id="shape3" transform="matrix(1.0, 0.0, 0.0, 1.0, -0.1, 1.25)">
      <path d="M0.2 -0.4 L0.15 -0.95 0.1 -1.25 Q2.15 -0.3 3.4 0.95 L1.95 1.55 1.9 1.5 Q1.3 0.4 0.2 -0.4" fill="#5f492e" fill-rule="evenodd" stroke="none"/>
      <path d="M0.1 -1.25 Q2.15 -0.3 3.4 0.95 M1.95 1.55 L1.9 1.5 Q1.3 0.4 0.2 -0.4" fill="none" stroke="#000000" stroke-linecap="round" stroke-linejoin="round" stroke-opacity="0.3019608" stroke-width="0.05"/>
    </g>
    <g id="sprite5" transform="matrix(1.0, 0.0, 0.0, 1.0, 2.0, 0.15)">
      <use height="3.25" transform="matrix(1.0, 0.0, 0.0, 1.0, -2.0, -0.15)" width="4.3" xlink:href="#shape4"/>
    </g>
    <g id="shape4" transform="matrix(1.0, 0.0, 0.0, 1.0, 2.0, 0.15)">
      <path d="M-2.0 1.9 L-2.0 -0.15 1.45 -0.15 2.3 2.25 1.8 2.55 0.75 2.25 0.25 3.1 -1.3 2.65 Q-1.95 2.35 -2.0 1.9" fill="#33322e" fill-rule="evenodd" stroke="none"/>
      <path d="M-2.0 1.9 L-2.0 -0.15 1.45 -0.15 2.3 2.25 1.8 2.55 0.75 2.25 0.25 3.1 -1.3 2.65 Q-1.95 2.35 -2.0 1.9 Z" fill="none" stroke="#000000" stroke-linecap="round" stroke-linejoin="round" stroke-opacity="0.3019608" stroke-width="0.05"/>
    </g>
    <g id="sprite6" transform="matrix(1.0, 0.0, 0.0, 1.0, 3.45, 0.05)">
      <use height="3.45" transform="matrix(1.0, 0.0, 0.0, 1.0, -3.45, -0.05)" width="5.5" xlink:href="#shape5"/>
    </g>
    <g id="shape5" transform="matrix(1.0, 0.0, 0.0, 1.0, 3.45, 0.05)">
      <path d="M1.25 1.0 L2.05 2.65 1.65 2.95 0.05 3.4 -0.5 2.2 -0.95 2.6 -1.4 3.15 Q-3.35 2.95 -3.45 1.85 L-2.1 -0.05 0.7 -0.05 1.25 1.0" fill="#33322e" fill-rule="evenodd" stroke="none"/>
      <path d="M1.25 1.0 L0.7 -0.05 -2.1 -0.05 M-3.45 1.85 Q-3.35 2.95 -1.4 3.15" fill="none" stroke="#000000" stroke-linecap="round" stroke-linejoin="round" stroke-opacity="0.3019608" stroke-width="0.05"/>
      <path d="M1.65 2.95 L2.05 2.65 1.25 1.0 M-2.1 -0.05 L-3.45 1.85 M-1.4 3.15 L-0.95 2.6 -0.5 2.2 0.05 3.4" fill="none" stroke="#000000" stroke-linecap="round" stroke-linejoin="round" stroke-opacity="0.1882353" stroke-width="0.05"/>
    </g>
    <g id="sprite7" transform="matrix(1.0, 0.0, 0.0, 1.0, 1.5, 2.65)">
      <use height="5.95" transform="matrix(1.0, 0.0, 0.0, 1.0, -1.5, -2.65)" width="4.0" xlink:href="#shape6"/>
    </g>
    <g id="shape6" transform="matrix(1.0, 0.0, 0.0, 1.0, 1.5, 2.65)">
      <path d="M2.45 -0.45 L2.45 1.7 2.05 2.8 -1.05 3.3 Q-1.75 0.55 -1.3 -0.4 0.55 -2.2 1.6 -2.65 2.3 -1.9 2.45 -0.45" fill="#79582c" fill-rule="evenodd" stroke="none"/>
      <path d="M2.45 -0.45 L2.45 1.7 2.05 2.8 -1.05 3.3 Q-1.75 0.55 -1.3 -0.4 0.55 -2.2 1.6 -2.65 2.3 -1.9 2.45 -0.45 Z" fill="none" stroke="#000000" stroke-linecap="round" stroke-linejoin="round" stroke-opacity="0.1882353" stroke-width="0.05"/>
    </g>
    <g id="sprite8" transform="matrix(1.0, 0.0, 0.0, 1.0, 3.55, 0.55)">
      <use height="5.7" transform="matrix(1.0, 0.0, 0.0, 1.0, -3.55, -0.55)" width="5.2" xlink:href="#shape7"/>
    </g>
    <g id="shape7" transform="matrix(1.0, 0.0, 0.0, 1.0, 3.55, 0.55)">
      <path d="M1.65 0.8 Q1.45 4.1 0.45 5.05 -0.6 5.45 -3.45 4.55 -3.8 3.95 -2.9 -0.2 L-1.3 -0.55 -1.5 2.5 Q-0.7 3.2 0.05 2.3 L1.35 0.5 1.65 0.8" fill="#79582c" fill-rule="evenodd" stroke="none"/>
      <path d="M-1.3 -0.55 Q0.3 -0.5 1.35 0.5 L0.05 2.3 Q-0.7 3.2 -1.5 2.5 L-1.3 -0.55" fill="#b1844e" fill-rule="evenodd" stroke="none"/>
      <path d="M1.65 0.8 Q1.45 4.1 0.45 5.05 -0.6 5.45 -3.45 4.55 -3.8 3.95 -2.9 -0.2 L-1.3 -0.55" fill="none" stroke="#000000" stroke-linecap="round" stroke-linejoin="round" stroke-opacity="0.1882353" stroke-width="0.05"/>
    </g>
    <g id="sprite9" transform="matrix(1.0, 0.0, 0.0, 1.0, 5.35, 2.75)">
      <use height="13.7" transform="matrix(1.0, 0.0, 0.0, 1.0, -5.35, -2.75)" width="11.55" xlink:href="#shape8"/>
    </g>
    <g id="shape8" transform="matrix(1.0, 0.0, 0.0, 1.0, 5.35, 2.75)">
      <path d="M2.0 -2.75 Q2.45 -0.7 3.65 0.8 L5.05 2.75 5.8 4.55 Q6.35 5.85 6.15 8.0 5.9 10.1 0.85 10.85 -4.2 11.55 -5.35 8.05 -5.45 3.8 -4.35 -0.55 -0.4 -2.6 2.0 -2.75" fill="#79582c" fill-rule="evenodd" stroke="none"/>
      <path d="M2.0 -2.75 Q2.45 -0.7 3.65 0.8 L5.05 2.75 5.8 4.55 Q6.35 5.85 6.15 8.0 5.9 10.1 0.85 10.85 -4.2 11.55 -5.35 8.05 -5.45 3.8 -4.35 -0.55 -0.4 -2.6 2.0 -2.75 Z" fill="none" stroke="#000000" stroke-linecap="round" stroke-linejoin="round" stroke-opacity="0.3019608" stroke-width="0.05"/>
      <path d="M4.35 2.5 L1.6 3.15 0.45 3.85 -1.35 5.0 -2.15 5.95 Q-1.8 4.0 -1.25 3.55 L-2.45 4.6 -2.45 4.45 Q-2.15 3.65 -0.15 1.35 L0.15 0.9 Q0.85 1.75 2.55 1.95 3.55 2.05 4.35 2.5" fill="#967549" fill-rule="evenodd" stroke="none"/>
      <path d="M-2.25 6.4 Q2.05 9.0 5.7 6.05 5.65 8.8 4.3 9.45 2.9 10.1 1.35 10.2 -0.25 10.25 -1.55 9.5 -2.55 9.0 -2.65 8.65 L-2.25 6.4" fill="#bb9962" fill-rule="evenodd" stroke="none"/>
      <path d="M-2.15 5.95 L-1.35 5.0 0.45 3.85 1.6 3.15 4.35 2.5 5.15 3.3 Q5.7 4.0 5.7 6.05 2.05 9.0 -2.25 6.4 L-2.15 5.95" fill="#eed7a2" fill-rule="evenodd" stroke="none"/>
      <path d="M2.9 8.8 L2.75 8.65 2.6 8.6 2.6 8.35 2.8 8.0 3.2 7.8 3.6 7.9 3.65 8.25 3.5 8.6 3.05 8.75 2.9 8.8 Z" fill="none" stroke="#000000" stroke-linecap="round" stroke-linejoin="round" stroke-opacity="0.3019608" stroke-width="0.05"/>
    </g>
    <g id="sprite10" transform="matrix(1.0, 0.0, 0.0, 1.0, 4.65, -0.25)">
      <use height="3.1" transform="matrix(1.0, 0.0, 0.0, 1.0, -4.65, 0.25)" width="3.1" xlink:href="#shape9"/>
    </g>
    <g id="shape9" transform="matrix(1.0, 0.0, 0.0, 1.0, 4.65, -0.25)">
      <path d="M-4.65 3.15 Q-3.45 1.3 -2.05 0.25 L-1.55 0.8 -3.05 3.35 -4.65 3.15" fill="#5f492e" fill-rule="evenodd" stroke="none"/>
      <path d="M-2.05 0.25 Q-3.45 1.3 -4.65 3.15 M-3.05 3.35 L-1.55 0.8" fill="none" stroke="#000000" stroke-linecap="round" stroke-linejoin="round" stroke-opacity="0.3019608" stroke-width="0.05"/>
    </g>
    <g id="sprite11" transform="matrix(1.0, 0.0, 0.0, 1.0, 12.5, 14.25)">
      <use height="21.4" transform="matrix(1.0, 0.0, 0.0, 1.0, -12.5, -14.25)" width="22.8" xlink:href="#shape10"/>
    </g>
    <g id="shape10" transform="matrix(1.0, 0.0, 0.0, 1.0, 12.5, 14.25)">
      <path d="M10.3 0.3 L7.95 0.45 Q6.15 -0.05 5.15 -1.2 5.55 -1.35 6.05 -1.9 6.7 -2.65 6.75 -4.45 L10.3 0.3" fill="#5f492e" fill-rule="evenodd" stroke="none"/>
      <path d="M10.3 0.3 L7.95 0.45 Q6.15 -0.05 5.15 -1.2 5.55 -1.35 6.05 -1.9 6.7 -2.65 6.75 -4.45" fill="none" stroke="#000000" stroke-linecap="round" stroke-linejoin="round" stroke-opacity="0.3019608" stroke-width="0.05"/>
      <path d="M6.75 -10.0 Q6.35 -7.8 4.9 -6.5 2.65 -4.4 0.4 -3.55 -1.8 -2.75 -5.4 -2.8 -8.95 -2.9 -11.15 -6.1 -11.6 -6.8 -11.5 -7.65 L-11.3 -8.0 Q-9.4 -11.75 -5.4 -13.35 -1.5 -15.0 2.25 -13.7 5.35 -12.6 6.75 -10.0 M-10.75 1.45 Q1.55 6.8 7.55 -3.9 7.6 -2.65 6.35 -0.2 5.1 2.2 0.95 3.85 L-7.0 4.1 Q-9.4 3.15 -10.75 1.45" fill="#5f492e" fill-rule="evenodd" stroke="none"/>
      <path d="M-11.5 -7.65 Q-11.6 -6.8 -11.15 -6.1 -8.95 -2.9 -5.4 -2.8 -1.8 -2.75 0.4 -3.55 2.65 -4.4 4.9 -6.5 6.35 -7.8 6.75 -10.0 L7.3 -8.8 Q8.1 -6.4 7.55 -3.9 1.55 6.8 -10.75 1.45 -11.55 0.5 -11.95 -0.8 -13.2 -4.25 -11.5 -7.65" fill="#b1844e" fill-rule="evenodd" stroke="none"/>
      <path d="M-11.5 -7.65 Q-13.2 -4.25 -11.95 -0.8 -11.55 0.5 -10.75 1.45 M7.55 -3.9 Q8.1 -6.4 7.3 -8.8 L6.75 -10.0 Q5.35 -12.6 2.25 -13.7 -1.5 -15.0 -5.4 -13.35 -9.4 -11.75 -11.3 -8.0 L-11.5 -7.65 M7.55 -3.9 Q7.6 -2.65 6.35 -0.2 5.1 2.2 0.95 3.85 L-7.0 4.1 Q-9.4 3.15 -10.75 1.45" fill="none" stroke="#000000" stroke-linecap="round" stroke-linejoin="round" stroke-opacity="0.3019608" stroke-width="0.05"/>
      <path d="M-9.8 5.05 L-11.25 3.8 -3.9 3.55 Q-4.05 4.3 -3.65 5.45 L-4.1 5.25 -6.35 4.75 -6.3 4.85 -5.85 5.5 -5.3 6.3 -9.85 4.95 -9.8 5.05" fill="#5f492e" fill-rule="evenodd" stroke="none"/>
      <path d="M-3.65 5.45 L-2.9 7.05 Q-5.35 7.4 -7.4 6.6 L-9.8 5.05 -9.85 4.95 -5.3 6.3 -5.85 5.5 -6.3 4.85 -6.35 4.75 -4.1 5.25 -3.65 5.45" fill="#967549" fill-rule="evenodd" stroke="none"/>
      <path d="M-3.65 5.45 L-2.9 7.05 Q-5.35 7.4 -7.4 6.6 L-9.8 5.05 -11.25 3.8 M-3.9 3.55 Q-4.05 4.3 -3.65 5.45 Z" fill="none" stroke="#000000" stroke-linecap="round" stroke-linejoin="round" stroke-opacity="0.3019608" stroke-width="0.05"/>
      <path d="M4.2 2.65 L5.0 3.25 5.9 2.95 5.15 3.75 2.95 3.45 2.4 2.4 0.75 3.25 -2.1 3.1 -2.45 0.9 Q-1.35 0.8 -0.65 0.35 L1.7 -0.75 4.3 -1.8 Q4.9 -2.0 5.95 -1.25 L6.3 -0.45 4.75 0.65 3.05 1.5 4.05 1.85 4.2 2.65" fill="#eed7a2" fill-rule="evenodd" stroke="none"/>
      <path d="M6.3 -0.45 L6.4 -0.1 4.2 2.65 4.05 1.85 3.05 1.5 4.75 0.65 6.3 -0.45 M5.15 3.75 L2.5 4.0 1.2 3.85 -1.9 4.0 -2.1 3.1 0.75 3.25 2.4 2.4 2.95 3.45 5.15 3.75" fill="#bb9962" fill-rule="evenodd" stroke="none"/>
      <path d="M6.4 -0.1 L4.2 2.65 5.0 3.25 5.9 2.95 5.15 3.75 2.5 4.0 1.2 3.85 -1.9 4.0 M4.05 1.85 L4.2 2.65" fill="none" stroke="#000000" stroke-linecap="round" stroke-linejoin="round" stroke-opacity="0.3019608" stroke-width="0.05"/>
      <path d="M4.35 -0.2 L5.1 0.25 Q3.9 0.45 2.9 1.05 L1.25 2.25 2.25 1.05 Q3.0 0.4 4.25 0.05 3.55 -0.65 3.7 -0.75 L4.35 -0.2" fill="#000000" fill-rule="evenodd" stroke="none"/>
    </g>
    <g id="sprite14" transform="matrix(1.0, 0.0, 0.0, 1.0, 6.75, 4.75)">
      <use height="11.25" transform="matrix(1.0, 0.0, 0.0, 1.0, -6.75, -4.75)" width="14.55" xlink:href="#shape11"/>
    </g>
    <g id="shape11" transform="matrix(1.0, 0.0, 0.0, 1.0, 6.75, 4.75)">
      <path d="M3.5 0.2 Q3.65 -1.6 4.05 -2.35 L5.0 -3.6 5.85 -4.5 Q7.35 -4.05 7.55 -2.15 L7.55 -1.75 5.15 0.1 3.5 1.55 3.5 0.2" fill="#cecab0" fill-rule="evenodd" stroke="none"/>
      <path d="M7.55 -1.75 L7.55 -0.6 Q6.55 3.25 4.05 3.8 L3.65 2.45 3.5 1.55 5.15 0.1 7.55 -1.75 M4.25 4.1 L4.1 3.9 4.4 4.1 4.25 4.1" fill="#ffffff" fill-rule="evenodd" stroke="none"/>
      <path d="M3.5 0.2 Q3.65 -1.6 4.05 -2.35 L5.0 -3.6 5.85 -4.5 Q7.35 -4.05 7.55 -2.15" fill="none" stroke="#000000" stroke-linecap="round" stroke-linejoin="round" stroke-opacity="0.6" stroke-width="0.5"/>
      <path d="M7.55 -0.6 Q6.55 3.25 4.05 3.8" fill="none" stroke="#000000" stroke-linecap="round" stroke-linejoin="round" stroke-opacity="0.3019608" stroke-width="0.05"/>
      <path d="M5.15 -1.4 L5.15 -1.5 5.3 -1.25 5.75 -0.2 5.65 1.15 5.0 1.65 4.2 1.45 3.8 0.25 3.8 0.05 Q4.15 0.0 5.15 -1.4 L5.3 -1.25 5.15 -1.4" fill="#9e0303" fill-rule="evenodd" stroke="none"/>
      <path d="M3.8 0.05 L3.9 -0.95 4.15 -1.4 Q4.35 -1.6 4.6 -1.6 L5.15 -1.4 Q4.15 0.0 3.8 0.05" fill="#4b0101" fill-rule="evenodd" stroke="none"/>
      <path d="M3.8 0.05 L3.9 -0.95 4.15 -1.4 Q4.35 -1.6 4.6 -1.6 L5.15 -1.4 5.3 -1.25 5.75 -0.2 5.65 1.15 5.0 1.65 4.2 1.45 3.8 0.25 3.8 0.05 M5.15 -1.5 L5.3 -1.25" fill="none" stroke="#000000" stroke-linecap="round" stroke-linejoin="round" stroke-opacity="0.3019608" stroke-width="0.05"/>
      <path d="M5.5 -0.95 L5.1 -0.8 Q4.9 -0.8 4.75 -1.05 L4.65 -1.55 4.8 -2.05 5.2 -2.2 5.55 -1.95 5.7 -1.4 5.5 -0.95" fill="#ffffff" fill-rule="evenodd" stroke="none"/>
      <path d="M4.65 2.8 L3.95 4.05 Q3.65 4.45 3.0 4.55 L1.3 4.55 Q2.8 3.2 4.65 2.8" fill="#eed7a2" fill-rule="evenodd" stroke="none"/>
      <path d="M4.65 2.8 Q4.65 3.7 4.15 4.55 3.8 5.05 3.25 5.05 L1.3 4.55 3.0 4.55 Q3.65 4.45 3.95 4.05 L4.65 2.8" fill="#c99825" fill-rule="evenodd" stroke="none"/>
      <path d="M1.3 4.55 L3.25 5.05 Q3.8 5.05 4.15 4.55 4.65 3.7 4.65 2.8 L3.95 4.05 Q3.65 4.45 3.0 4.55 L1.3 4.55 Z" fill="none" stroke="#000000" stroke-linecap="round" stroke-linejoin="round" stroke-opacity="0.3019608" stroke-width="0.05"/>
      <path d="M-6.5 3.4 L-6.05 1.9 Q-5.35 0.3 -4.05 -0.25 L-2.0 -0.3 Q0.1 0.05 0.6 1.75 L0.95 3.1 -4.25 2.9 -6.45 3.9 -6.5 3.4" fill="#cecab0" fill-rule="evenodd" stroke="none"/>
      <path d="M0.95 3.1 Q1.2 4.35 0.9 5.0 0.3 6.2 -2.3 6.45 -4.9 6.65 -6.15 5.7 -6.5 4.7 -6.45 3.9 L-4.25 2.9 0.95 3.1" fill="#ffffff" fill-rule="evenodd" stroke="none"/>
      <path d="M-6.5 3.4 L-6.05 1.9 Q-5.35 0.3 -4.05 -0.25 L-2.0 -0.3 Q0.1 0.05 0.6 1.75 L0.95 3.1" fill="none" stroke="#000000" stroke-linecap="round" stroke-linejoin="round" stroke-opacity="0.6" stroke-width="0.5"/>
      <path d="M0.9 5.0 Q0.3 6.2 -2.3 6.45 -4.9 6.65 -6.15 5.7" fill="none" stroke="#000000" stroke-linecap="round" stroke-linejoin="round" stroke-opacity="0.3019608" stroke-width="0.05"/>
      <path d="M-2.55 3.15 L-2.2 3.45 Q-1.6 4.55 -2.75 5.45 L-3.0 5.4 Q-3.8 5.3 -4.15 4.75 -4.15 2.95 -2.55 3.15" fill="#ffffff" fill-rule="evenodd" stroke="none"/>
      <path d="M-1.1 1.2 L-0.9 1.25 0.25 1.65 0.45 2.7 Q0.4 3.35 0.0 3.85 -0.35 4.3 -0.85 4.3 -1.35 4.3 -1.7 3.85 -2.0 3.35 -1.95 2.7 -1.9 2.0 -1.5 1.55 L-1.1 1.2" fill="#9e0303" fill-rule="evenodd" stroke="none"/>
      <path d="M0.25 1.65 L-0.9 1.25 -1.1 1.2 -0.65 1.05 Q-0.15 1.05 0.2 1.55 L0.25 1.65" fill="#4b0101" fill-rule="evenodd" stroke="none"/>
      <path d="M-1.1 1.2 L-0.9 1.25 0.25 1.65 0.2 1.55 Q-0.15 1.05 -0.65 1.05 L-1.1 1.2 -1.5 1.55 Q-1.9 2.0 -1.95 2.7 -2.0 3.35 -1.7 3.85 -1.35 4.3 -0.85 4.3 -0.35 4.3 0.0 3.85 0.4 3.35 0.45 2.7 L0.25 1.65" fill="none" stroke="#000000" stroke-linecap="round" stroke-linejoin="round" stroke-opacity="0.3019608" stroke-width="0.05"/>
      <path d="M-1.6 2.2 L-1.95 2.0 -2.05 1.55 -1.85 1.05 -1.5 0.85 -1.15 1.05 -1.05 1.55 -1.25 2.0 -1.6 2.2" fill="#ffffff" fill-rule="evenodd" stroke="none"/>
    </g>
    <g id="sprite15" transform="matrix(1.0, 0.0, 0.0, 1.0, 11.1, 0.1)">
      <use height="14.55" transform="matrix(1.0, 0.0, 0.0, 1.0, -11.1, -0.1)" width="16.3" xlink:href="#shape12"/>
    </g>
    <g id="shape12" transform="matrix(1.0, 0.0, 0.0, 1.0, 11.1, 0.1)">
      <path d="M-10.85 0.95 L-10.55 0.65 -0.5 9.15 -0.7 9.3 -10.85 0.95 M0.35 10.0 L0.55 10.05 2.3 9.45 3.35 9.7 3.6 10.0 3.95 10.35 4.2 10.95 4.05 10.9 3.55 10.95 3.5 10.85 3.3 10.85 3.2 10.95 3.1 11.0 Q2.45 11.1 1.7 11.9 L1.8 11.8 2.5 10.7 2.55 10.65 2.6 10.6 2.65 10.5 2.65 10.6 2.9 10.3 2.9 10.0 2.75 10.05 2.5 9.85 0.65 10.25 -0.25 10.25 0.35 10.0 M4.8 12.35 L5.0 12.45 5.2 12.45 4.15 12.75 4.8 12.35 M4.65 13.45 L4.7 14.45 Q4.65 13.45 4.0 13.3 L4.65 13.45 M3.1 13.45 L2.9 13.5 2.8 13.55 Q2.25 13.65 1.9 13.3 L1.7 13.05 1.65 12.8 2.1 13.3 2.2 13.3 2.8 13.4 3.1 13.45 M-0.05 10.75 L-0.6 10.8 -1.35 10.1 -1.3 9.75 -0.95 10.25 -0.45 10.55 0.05 10.7 -0.05 10.75 M2.8 13.55 L2.8 13.4 2.8 13.55" fill="#ffffd7" fill-rule="evenodd" stroke="none"/>
      <path d="M-0.05 9.45 L-0.25 9.95 -0.45 9.9 -0.5 9.7 -0.05 9.45 M4.2 10.95 L4.25 11.15 4.35 11.15 Q4.95 10.9 4.9 10.65 5.0 10.95 4.5 11.55 L4.45 11.6 4.3 11.8 4.35 11.85 4.5 11.9 4.55 11.95 4.1 12.2 Q4.55 12.6 3.6 12.6 L3.95 12.8 4.1 12.7 4.1 12.8 3.95 12.8 2.8 12.9 Q2.65 13.4 2.2 13.3 L2.1 13.3 1.65 12.8 1.65 12.75 1.6 12.65 1.5 12.25 1.5 12.2 1.55 12.15 1.7 11.9 Q2.45 11.1 3.1 11.0 L3.2 10.95 3.05 11.2 2.85 11.55 2.85 11.85 2.95 11.9 3.0 11.85 3.3 11.55 3.55 11.1 3.55 10.95 4.05 10.9 4.2 10.95 M-1.3 9.75 L-1.2 9.55 -11.1 1.25 -10.85 0.95 -0.7 9.3 -1.15 9.5 -1.2 9.55 -1.15 9.5 -0.9 9.95 -0.3 10.2 -0.25 10.25 0.65 10.25 0.05 10.7 -0.45 10.55 -0.95 10.25 -1.3 9.75 M2.85 12.3 Q3.4 12.05 3.3 11.55 3.4 12.05 2.85 12.3" fill="#ffcf2b" fill-rule="evenodd" stroke="none"/>
      <path d="M3.55 10.95 L3.55 11.1 3.3 11.55 3.0 11.85 2.95 11.9 2.85 11.85 2.85 11.55 3.05 11.2 3.2 10.95 3.3 10.85 3.5 10.85 3.55 10.95" fill="#f40bae" fill-opacity="0.32156864" fill-rule="evenodd" stroke="none"/>
      <path d="M4.55 11.95 L4.65 12.0 5.1 11.75 4.4 12.3 4.8 12.35 4.15 12.75 4.1 12.7 3.95 12.8 3.6 12.6 Q4.55 12.6 4.1 12.2 L4.55 11.95 M4.1 12.8 L4.65 13.45 4.0 13.3 3.95 13.3 3.8 13.25 3.7 13.2 3.4 13.25 3.3 13.3 3.3 13.35 3.1 13.45 2.8 13.4 2.8 12.9 2.8 13.4 2.2 13.3 Q2.65 13.4 2.8 12.9 L3.95 12.8 4.1 12.8 M4.1 12.2 L4.4 12.3 4.1 12.2" fill="#ffe541" fill-rule="evenodd" stroke="none"/>
      <path d="M1.05 11.05 L0.6 10.75 -0.05 10.75 0.05 10.7 0.65 10.25 2.5 9.85 2.75 10.05 2.9 10.0 2.9 10.3 2.65 10.6 2.65 10.5 2.6 10.6 2.55 10.65 2.0 10.75 1.95 10.75 1.05 11.05" fill="#b18100" fill-rule="evenodd" stroke="none"/>
      <path d="M1.5 12.2 L1.05 11.05 1.95 10.75 2.0 10.75 2.55 10.65 2.5 10.7 1.8 11.8 1.7 11.9 1.55 12.15 1.5 12.2" fill="#714100" fill-rule="evenodd" stroke="none"/>
      <path d="M-0.5 9.15 L-0.4 9.15 -0.05 9.45 -0.5 9.7 -0.45 9.9 -0.25 9.95 0.35 10.0 -0.25 10.25 -0.3 10.2 -0.9 9.95 -1.15 9.5 -0.7 9.3 -0.5 9.15" fill="#d1a100" fill-rule="evenodd" stroke="none"/>
      <path d="M-10.85 0.95 L-10.55 0.65 -0.5 9.15 M3.6 10.0 L3.95 10.35 4.2 10.95 4.25 11.15 M3.3 13.35 L3.1 13.45 2.9 13.5 2.8 13.55 Q2.25 13.65 1.9 13.3 L1.7 13.05 M-1.2 9.55 L-11.1 1.25 -10.85 0.95" fill="none" stroke="#000000" stroke-linecap="round" stroke-linejoin="round" stroke-opacity="0.4" stroke-width="0.05"/>
      <path d="M-0.5 9.15 L-0.4 9.15 -0.05 9.45 -0.25 9.95 0.35 10.0 0.55 10.05 2.3 9.45 3.35 9.7 3.6 10.0 M1.7 13.05 L1.65 12.8 1.65 12.75 1.6 12.65 1.5 12.25 1.5 12.2 1.05 11.05 0.6 10.75 -0.05 10.75 -0.6 10.8 -1.35 10.1 -1.3 9.75 -1.2 9.55 M-0.7 9.3 L-0.5 9.15 M3.3 11.55 Q3.4 12.05 2.85 12.3 M1.7 11.9 L1.55 12.15 1.5 12.2 M2.8 12.9 L2.8 13.4 2.8 13.55 M1.7 11.9 L1.8 11.8 2.5 10.7 2.55 10.65 2.6 10.6 2.65 10.5 M-1.15 9.5 L-1.2 9.55 M-1.15 9.5 L-0.7 9.3 M-0.45 9.9 L-0.25 9.95" fill="none" stroke="#926030" stroke-linecap="round" stroke-linejoin="round" stroke-width="0.05"/>
      <path d="M4.25 11.15 L4.35 11.15 Q4.95 10.9 4.9 10.65 5.0 10.95 4.5 11.55 L4.45 11.6 4.3 11.8 4.35 11.85 4.5 11.9 4.55 11.95 4.65 12.0 5.1 11.75 4.4 12.3 4.8 12.35 M5.0 12.45 L5.2 12.45 4.15 12.75 4.1 12.7 4.1 12.8 4.65 13.45 4.7 14.45 Q4.65 13.45 4.0 13.3 L3.95 13.3 M3.8 13.25 L3.7 13.2 3.4 13.25 3.3 13.3 3.3 13.35 M4.4 12.3 L4.1 12.2 M3.6 12.6 L3.95 12.8 4.1 12.7 M4.1 12.8 L3.95 12.8" fill="none" stroke="#4d2e1a" stroke-linecap="round" stroke-linejoin="round" stroke-opacity="0.4" stroke-width="0.05"/>
      <path d="M-6.1 6.05 L-4.4 6.65 Q-3.6 6.8 -2.7 4.8 L-3.05 2.2 -5.65 3.15 -5.25 2.05 -6.1 2.05 -2.5 -0.1 -1.55 0.5 -2.0 7.15 -2.4 8.25 Q-4.25 8.95 -6.1 7.65 L-6.1 6.05" fill="#5f492e" fill-rule="evenodd" stroke="none"/>
      <path d="M-5.65 3.15 L-3.05 2.2 -2.7 4.8 Q-3.6 6.8 -4.4 6.65 L-6.1 6.05 -5.65 3.15" fill="#b1844e" fill-rule="evenodd" stroke="none"/>
      <path d="M-6.1 6.05 L-6.1 7.65 Q-4.25 8.95 -2.4 8.25 L-2.0 7.15 -1.55 0.5 M-2.5 -0.1 L-6.1 2.05 -5.25 2.05 -5.65 3.15 -6.1 6.05 Z" fill="none" stroke="#000000" stroke-linecap="round" stroke-linejoin="round" stroke-opacity="0.3019608" stroke-width="0.05"/>
      <path d="M-5.6 7.1 L-6.05 6.6 -6.05 5.85 -6.2 4.8 -5.85 5.25 -5.75 6.15 -5.6 7.1 M-5.6 5.4 L-5.3 5.45 -5.15 5.6 -5.05 6.45 -4.9 7.4 -5.45 7.2 -5.45 6.2 -5.6 5.4 M-4.05 5.85 L-3.3 5.85 -3.2 5.85 -3.2 6.65 -3.05 7.55 -3.85 7.65 -3.95 6.65 -3.3 6.65 -3.2 6.65 -3.3 6.65 -3.95 6.65 -4.05 5.85 M-6.05 5.85 L-5.75 6.15 -6.05 5.85 M-5.05 6.45 L-5.35 6.3 -5.45 6.2 -5.35 6.3 -5.05 6.45" fill="#ffffd7" fill-rule="evenodd" stroke="none"/>
      <path d="M-3.2 5.85 L-2.55 5.75 -2.45 6.6 -3.2 6.65 -2.45 6.6 -2.55 7.5 -2.6 7.5 -3.05 7.55 -3.2 6.65 -3.2 5.85" fill="#b98900" fill-rule="evenodd" stroke="none"/>
      <path d="M-2.55 5.75 L-1.7 5.4 -1.8 6.35 -1.95 7.2 Q-1.95 7.35 -2.55 7.5 L-2.45 6.6 -2.55 5.75 M-2.45 6.6 L-1.8 6.35 -2.45 6.6" fill="#7b4b00" fill-rule="evenodd" stroke="none"/>
      <path d="M-5.85 5.25 L-5.7 5.3 -5.6 5.4 -5.45 6.2 -5.45 7.2 Q-5.5 7.1 -5.6 7.1 L-5.75 6.15 -5.45 6.2 -5.75 6.15 -5.85 5.25 M-5.15 5.6 L-4.05 5.85 -3.95 6.65 -3.85 7.65 -4.9 7.4 -5.05 6.45 -5.15 5.6 M-3.95 6.65 L-5.05 6.45 -3.95 6.65" fill="#ffcf2b" fill-rule="evenodd" stroke="none"/>
      <path d="M-5.6 7.1 L-6.05 6.6 -6.05 5.85 -6.2 4.8 -5.85 5.25 -5.7 5.3 M-5.6 5.4 L-5.3 5.45 -5.15 5.6 -4.05 5.85 -3.3 5.85 -3.2 5.85 -2.55 5.75 -1.7 5.4 -1.8 6.35 -1.95 7.2 Q-1.95 7.35 -2.55 7.5 L-2.6 7.5 -3.05 7.55 -3.85 7.65 -4.9 7.4 -5.45 7.2 Q-5.5 7.1 -5.6 7.1 M-5.75 6.15 L-6.05 5.85 M-3.2 6.65 L-3.3 6.65 -3.95 6.65 M-1.8 6.35 L-2.45 6.6 M-3.2 6.65 L-2.45 6.6 M-5.45 6.2 L-5.35 6.3 -5.05 6.45 -3.95 6.65 M-5.45 6.2 L-5.75 6.15" fill="none" stroke="#000000" stroke-linecap="round" stroke-linejoin="round" stroke-opacity="0.4" stroke-width="0.05"/>
    </g>
    <g id="sprite16" transform="matrix(1.0, 0.0, 0.0, 1.0, 19.35, 12.4)">
      <use height="31.35" transform="matrix(1.0, 0.0, 0.0, 1.0, -19.35, -12.4)" width="35.95" xlink:href="#shape13"/>
    </g>
    <g id="shape13" transform="matrix(1.0, 0.0, 0.0, 1.0, 19.35, 12.4)">
      <path d="M14.65 -10.55 Q16.0 -6.6 13.45 -2.85 L10.35 -0.6 8.85 -2.8 9.25 -2.95 Q12.1 -4.0 13.1 -5.1 14.6 -7.65 14.65 -10.55" fill="#4b4957" fill-rule="evenodd" stroke="none"/>
      <path d="M10.35 -0.6 L13.45 -2.85 Q16.0 -6.6 14.65 -10.55 15.6 -9.45 16.15 -7.4 16.8 -5.0 16.55 -2.3 15.5 -0.75 13.0 0.75 11.0 2.0 10.35 2.05 L10.35 -0.6" fill="#35333d" fill-rule="evenodd" stroke="none"/>
      <path d="M14.65 -10.55 Q14.6 -7.65 13.1 -5.1 12.1 -4.0 9.25 -2.95 L8.85 -2.8 M10.35 2.05 Q11.0 2.0 13.0 0.75 15.5 -0.75 16.55 -2.3 16.8 -5.0 16.15 -7.4 15.6 -9.45 14.65 -10.55 Z" fill="none" stroke="#000000" stroke-linecap="round" stroke-linejoin="round" stroke-opacity="0.3019608" stroke-width="0.05"/>
      <path d="M6.3 -7.55 L6.75 -7.2 8.8 -5.45 9.55 -0.9 Q8.05 1.35 5.45 3.35 L5.4 3.65 4.6 4.0 3.35 4.8 3.25 4.8 Q-1.9 6.45 -5.5 6.05 L-8.75 3.75 -8.25 -0.95 Q-6.8 -4.55 -2.25 -7.0 0.2 -7.9 2.4 -8.0 L2.35 -8.05 Q2.2 -8.45 1.55 -8.65 2.45 -8.75 3.1 -8.05 L2.8 -8.7 2.75 -9.1 2.6 -9.45 4.1 -8.0 4.3 -7.95 Q4.1 -8.9 4.6 -9.5 L6.15 -10.55 Q4.7 -9.5 5.1 -8.2 L5.2 -7.95 5.25 -7.8 6.3 -7.55" fill="#000000" fill-opacity="0.5019608" fill-rule="evenodd" stroke="none"/>
      <path d="M-9.4 3.85 L-9.3 3.8 Q-7.25 1.5 -6.7 -0.3 L-5.45 -1.6 Q-4.65 0.15 -4.45 1.4 L-4.45 1.6 Q-4.2 2.85 -4.1 4.25 L-3.95 5.5 -3.95 10.05 -3.2 12.95 -3.2 13.05 -9.7 13.95 Q-11.55 12.7 -11.45 9.1 -9.75 6.45 -9.4 3.85" fill="#c3b3a3" fill-rule="evenodd" stroke="none"/>
      <path d="M-9.4 3.85 Q-9.75 6.45 -11.45 9.1 -11.55 12.7 -9.7 13.95 L-3.2 13.05 -3.2 12.95 -2.55 14.5 -1.8 15.95 0.4 18.95 Q-0.25 18.6 -1.8 18.15 L-2.55 17.95 -5.55 17.3 -6.15 17.15 -7.9 16.75 Q-10.85 15.85 -12.8 14.6 -14.15 13.75 -13.3 10.85 -12.6 7.75 -9.4 3.85" fill="#ffffff" fill-rule="evenodd" stroke="none"/>
      <path d="M-4.45 1.4 Q-4.65 0.15 -5.45 -1.6 L-6.7 -0.3 Q-7.25 1.5 -9.3 3.8 L-9.4 3.85 Q-12.6 7.75 -13.3 10.85 -14.15 13.75 -12.8 14.6 -10.85 15.85 -7.9 16.75 L-6.15 17.15 -5.55 17.3 -2.55 17.95 -1.8 18.15 Q-0.25 18.6 0.4 18.95 L-1.8 15.95 -2.55 14.5 -3.2 12.95 -3.95 10.05 -3.95 5.5 M-4.1 4.25 Q-4.2 2.85 -4.45 1.6" fill="none" stroke="#000000" stroke-linecap="round" stroke-linejoin="round" stroke-opacity="0.4" stroke-width="0.05"/>
      <path d="M-6.65 7.25 L-9.05 8.05 Q-11.0 8.9 -11.85 8.95 L-15.2 8.8 Q-18.4 8.2 -17.5 4.5 L-15.45 0.75 Q-16.35 3.35 -15.55 5.85 L-8.05 3.5 -6.9 5.1 Q-6.4 6.05 -6.65 7.25" fill="#4b4957" fill-rule="evenodd" stroke="none"/>
      <path d="M-6.65 7.25 Q-6.85 8.2 -7.35 8.6 L-10.5 9.65 -14.55 10.45 -17.25 10.4 Q-18.55 10.15 -19.35 8.5 -19.4 5.75 -18.25 4.05 -16.85 1.85 -15.45 0.75 L-17.5 4.5 Q-18.4 8.2 -15.2 8.8 L-11.85 8.95 Q-11.0 8.9 -9.05 8.05 L-6.65 7.25" fill="#35333d" fill-rule="evenodd" stroke="none"/>
      <path d="M-15.45 0.75 Q-16.85 1.85 -18.25 4.05 -19.4 5.75 -19.35 8.5 -18.55 10.15 -17.25 10.4 L-14.55 10.45 -10.5 9.65 -7.35 8.6 Q-6.85 8.2 -6.65 7.25 M-15.45 0.75 Q-16.35 3.35 -15.55 5.85 L-8.05 3.5 -6.9 5.1 Q-6.4 6.05 -6.65 7.25" fill="none" stroke="#000000" stroke-linecap="round" stroke-linejoin="round" stroke-opacity="0.3019608" stroke-width="0.05"/>
      <path d="M9.75 -2.75 L11.25 -1.65 Q13.45 0.1 13.75 2.35 14.05 4.55 12.9 7.8 L12.1 10.5 11.75 12.45 11.4 12.55 11.1 11.15 Q12.35 9.0 12.95 3.05 12.2 0.15 9.75 -2.75" fill="#c3b3a3" fill-rule="evenodd" stroke="none"/>
      <path d="M11.1 11.15 L9.8 3.4 Q8.05 -1.6 5.3 -4.6 L6.5 -4.9 8.45 -3.65 Q8.55 -3.55 8.65 -3.55 L9.75 -2.75 Q12.2 0.15 12.95 3.05 12.35 9.0 11.1 11.15" fill="#9e7e69" fill-rule="evenodd" stroke="none"/>
      <path d="M11.75 12.45 L11.6 13.9 11.4 12.55 11.75 12.45" fill="#ffffff" fill-rule="evenodd" stroke="none"/>
      <path d="M9.75 -2.75 L11.25 -1.65 Q13.45 0.1 13.75 2.35 14.05 4.55 12.9 7.8 L12.1 10.5 M11.75 12.45 L11.6 13.9 11.4 12.55 11.1 11.15 9.8 3.4 Q8.05 -1.6 5.3 -4.6 L6.5 -4.9 8.45 -3.65 M8.65 -3.55 L9.75 -2.75 Z" fill="none" stroke="#000000" stroke-linecap="round" stroke-linejoin="round" stroke-opacity="0.4" stroke-width="0.05"/>
      <path d="M3.3 4.2 L4.15 -0.5 7.35 -4.45 7.0 -8.65 9.2 -6.6 10.1 -1.6 Q7.85 1.55 3.3 4.2" fill="#ffffff" fill-rule="evenodd" stroke="none"/>
      <path d="M3.3 4.2 L-5.85 3.75 Q-8.2 3.05 -9.65 2.2 L-9.05 -2.9 Q-7.6 -6.65 -2.65 -9.05 2.5 -10.6 6.55 -9.05 L7.0 -8.65 7.35 -4.45 4.15 -0.5 3.3 4.2" fill="#c3b3a3" fill-rule="evenodd" stroke="none"/>
      <path d="M7.0 -8.65 L6.55 -9.05 Q2.5 -10.6 -2.65 -9.05 -7.6 -6.65 -9.05 -2.9 L-9.65 2.2 Q-8.2 3.05 -5.85 3.75 L3.3 4.2 M7.0 -8.65 L9.2 -6.6 10.1 -1.6 Q7.85 1.55 3.3 4.2" fill="none" stroke="#000000" stroke-linecap="round" stroke-linejoin="round" stroke-opacity="0.4" stroke-width="0.05"/>
      <path d="M4.55 0.85 L3.75 -0.8 5.1 -0.05 5.35 0.9 4.95 3.25 4.5 3.35 4.3 3.25 4.85 2.4 4.65 0.95 4.55 0.85 M3.15 1.4 L3.1 1.3 4.15 1.1 4.25 1.6 4.05 1.85 3.15 1.4" fill="#ffcf2b" fill-rule="evenodd" stroke="none"/>
      <path d="M3.7 0.0 L4.55 0.85 4.65 0.95 4.85 2.4 4.3 3.25 3.05 2.25 3.15 1.4 4.05 1.85 4.25 1.6 4.15 1.1 3.7 0.0" fill="#d1a100" fill-rule="evenodd" stroke="none"/>
      <path d="M5.1 -0.05 L5.3 0.0 5.9 1.1 5.55 3.0 4.95 3.25 5.35 0.9 5.1 -0.05" fill="#ffffd7" fill-rule="evenodd" stroke="none"/>
      <path d="M3.75 -0.8 L1.25 -3.9 Q1.0 -4.75 1.6 -5.65 L4.55 -2.25 Q4.45 -1.75 4.6 -1.2 L5.3 0.0 5.1 -0.05 3.75 -0.8" fill="#b18100" fill-rule="evenodd" stroke="none"/>
      <path d="M1.6 -5.65 Q1.0 -4.75 1.25 -3.9 L3.75 -0.8 4.55 0.85 3.7 0.0 3.5 -0.45 0.6 -3.25 Q0.05 -3.95 -0.05 -5.45 0.35 -7.1 1.6 -8.2 L5.95 -6.75 Q3.6 -7.1 1.6 -5.65" fill="#dfaf0b" fill-rule="evenodd" stroke="none"/>
      <path d="M1.6 -5.65 Q3.6 -7.1 5.95 -6.75 6.3 -5.9 6.05 -4.4 4.8 -3.35 4.55 -2.25 L1.6 -5.65" fill="#714100" fill-rule="evenodd" stroke="none"/>
      <path d="M5.95 -6.75 L1.6 -8.2 Q0.35 -7.1 -0.05 -5.45 0.05 -3.95 0.6 -3.25 L3.5 -0.45 3.7 0.0 M5.3 0.0 L4.6 -1.2 Q4.45 -1.75 4.55 -2.25 4.8 -3.35 6.05 -4.4 6.3 -5.9 5.95 -6.75 M5.3 0.0 L5.9 1.1 5.55 3.0 4.95 3.25 4.5 3.35 4.3 3.25 3.05 2.25 3.15 1.4 3.1 1.3 4.15 1.1 3.7 0.0 M4.15 1.1 L4.25 1.6" fill="none" stroke="#926030" stroke-linecap="round" stroke-linejoin="round" stroke-width="0.05"/>
      <path d="M5.85 -7.4 L6.75 -7.15 Q7.25 -6.45 6.95 -5.1 L6.1 -4.35 5.1 -4.4 3.5 -5.25 Q2.7 -5.6 2.2 -6.3 L3.95 -6.55 Q3.65 -7.0 2.95 -7.0 L1.85 -6.9 1.15 -8.2 1.45 -8.45 0.25 -9.3 2.2 -9.2 Q2.15 -10.0 1.5 -10.65 L3.1 -9.85 3.3 -9.1 3.55 -9.45 4.5 -8.5 4.45 -9.45 5.55 -8.0 5.85 -7.4 M4.8 -6.85 Q4.15 -7.45 3.4 -7.2 L2.95 -7.0 3.4 -7.2 Q4.15 -7.45 4.8 -6.85" fill="#ffcf2b" fill-rule="evenodd" stroke="none"/>
      <path d="M1.15 -8.2 L1.85 -6.9 1.9 -6.6 2.2 -6.3 Q2.7 -5.6 3.5 -5.25 L5.1 -4.4 2.3 -4.8 1.0 -4.8 0.0 -5.75 Q0.35 -7.1 1.15 -8.2" fill="#dfaf0b" fill-rule="evenodd" stroke="none"/>
      <path d="M1.0 -4.8 L2.3 -4.8 3.2 -3.8 Q2.4 -3.85 1.7 -4.35 L1.0 -4.8" fill="#b18100" fill-rule="evenodd" stroke="none"/>
      <path d="M6.95 -5.1 Q7.25 -6.45 6.75 -7.15 L5.85 -7.4 Q6.5 -8.1 6.95 -7.95 6.5 -8.1 5.85 -7.4 L5.55 -8.0 4.45 -9.45 4.5 -8.5 3.55 -9.45 3.3 -9.1 3.1 -9.85 3.0 -10.85 4.15 -9.7 4.2 -9.65 4.45 -9.45 4.55 -10.5 4.75 -11.35 6.4 -12.4 5.6 -11.15 5.4 -9.4 Q5.5 -8.7 6.1 -8.65 L6.95 -7.95 7.4 -7.05 Q7.7 -6.2 7.2 -5.5 L6.95 -5.1" fill="#ffe541" fill-rule="evenodd" stroke="none"/>
      <path d="M5.1 -4.4 L6.1 -4.35 4.95 -3.85 3.2 -3.8 2.3 -4.8 5.1 -4.4" fill="#714100" fill-rule="evenodd" stroke="none"/>
      <path d="M1.85 -6.9 L2.95 -7.0 Q3.65 -7.0 3.95 -6.55 L2.2 -6.3 1.9 -6.6 1.85 -6.9" fill="#f09491" fill-rule="evenodd" stroke="none"/>
      <path d="M7.2 -5.5 Q7.7 -6.2 7.4 -7.05 L6.95 -7.95 6.1 -8.65 M1.45 -8.45 L1.15 -8.2 Q0.35 -7.1 0.0 -5.75" fill="none" stroke="#000000" stroke-linecap="round" stroke-linejoin="round" stroke-opacity="0.4" stroke-width="0.05"/>
      <path d="M4.45 -9.45 L4.5 -8.5 M3.3 -9.1 L3.1 -9.85 1.5 -10.65 Q2.15 -10.0 2.2 -9.2 L0.25 -9.3 1.45 -8.45 M6.1 -8.65 Q5.5 -8.7 5.4 -9.4 L5.6 -11.15 6.4 -12.4 4.75 -11.35 4.55 -10.5 4.45 -9.45 4.2 -9.65 4.15 -9.7 3.0 -10.85 3.1 -9.85" fill="none" stroke="#4d2e1a" stroke-linecap="round" stroke-linejoin="round" stroke-opacity="0.4" stroke-width="0.05"/>
      <path d="M6.95 -5.1 L7.2 -5.5 M6.95 -7.95 Q6.5 -8.1 5.85 -7.4 M2.95 -7.0 L3.4 -7.2 Q4.15 -7.45 4.8 -6.85 M5.1 -4.4 L6.1 -4.35 6.95 -5.1 M2.3 -4.8 L5.1 -4.4" fill="none" stroke="#926030" stroke-linecap="round" stroke-linejoin="round" stroke-width="0.05"/>
      <path d="M-1.05 3.1 Q-8.2 3.9 -9.65 2.65 L-9.65 0.35 Q-7.1 1.4 -3.5 1.1 L-1.05 3.1" fill="#7b4b00" fill-rule="evenodd" stroke="none"/>
      <path d="M7.9 0.2 L7.4 -1.65 8.95 -2.6 9.2 -0.7 Q8.45 -0.1 7.9 0.2 M6.7 -1.25 L6.45 0.95 2.2 2.45 -0.6 0.7 6.7 -1.25 M0.95 2.85 L-1.05 3.1 -3.5 1.1 -1.85 0.9 0.95 2.85" fill="#ffcf2b" fill-rule="evenodd" stroke="none"/>
      <path d="M7.4 -1.65 L7.9 0.2 6.45 0.95 6.7 -1.25 7.4 -1.65 M9.2 -0.7 L8.95 -2.6 9.75 -3.85 10.25 -1.65 9.2 -0.7" fill="#ffffd7" fill-rule="evenodd" stroke="none"/>
      <path d="M2.2 2.45 L0.95 2.85 -1.85 0.9 -0.6 0.7 2.2 2.45" fill="#a77700" fill-rule="evenodd" stroke="none"/>
      <path d="M7.9 0.2 Q8.45 -0.1 9.2 -0.7 M8.95 -2.6 L7.4 -1.65 6.7 -1.25 M6.45 0.95 L7.9 0.2 M8.95 -2.6 L9.75 -3.85 10.25 -1.65 9.2 -0.7 M2.2 2.45 L0.95 2.85 -1.05 3.1 Q-8.2 3.9 -9.65 2.65 L-9.65 0.35 Q-7.1 1.4 -3.5 1.1 L-1.85 0.9 -0.6 0.7 6.7 -1.25 M6.45 0.95 L2.2 2.45" fill="none" stroke="#000000" stroke-linecap="round" stroke-linejoin="round" stroke-opacity="0.4" stroke-width="0.05"/>
      <path d="M-8.2 3.45 L-6.7 4.2 -7.4 6.35 -9.35 6.35 -7.85 4.3 -10.7 3.45 -8.2 3.45" fill="#ffffff" fill-rule="evenodd" stroke="none"/>
      <path d="M-7.4 6.35 L-6.7 4.2 -6.1 7.5 -8.0 9.3 -7.3 7.85 -8.7 7.85 -7.65 7.45 -7.3 6.35 -7.4 6.35" fill="#c3b3a3" fill-rule="evenodd" stroke="none"/>
      <path d="M-8.2 3.45 L-10.7 3.45 -7.85 4.3 -9.35 6.35 -7.4 6.35 M-6.1 7.5 L-8.0 9.3 -7.3 7.85 -8.7 7.85 -7.65 7.45 -7.3 6.35 -7.4 6.35" fill="none" stroke="#000000" stroke-linecap="round" stroke-linejoin="round" stroke-opacity="0.3019608" stroke-width="0.05"/>
    </g>
  </defs>
</svg>
