<?xml version="1.0" encoding="UTF-8" standalone="no"?>
<svg xmlns:xlink="http://www.w3.org/1999/xlink" height="440.0px" width="440.0px" xmlns="http://www.w3.org/2000/svg">
  <g transform="matrix(10.0, 0.0, 0.0, 10.0, 0.0, 0.0)">
    <use height="44.0" transform="matrix(0.9091, 0.0, 0.0, 0.9091, 2.0, 2.0)" width="44.0" xlink:href="#sprite0"/>
  </g>
  <defs>
    <g id="sprite0" transform="matrix(1.0, 0.0, 0.0, 1.0, 0.0, 0.0)">
      <use height="44.0" transform="matrix(1.0, 0.0, 0.0, 1.0, 0.0, 0.0)" width="44.0" xlink:href="#shape0"/>
      <use height="17.05" transform="matrix(1.0, 0.0, 0.0, 1.0, 6.5, 24.75)" width="34.1" xlink:href="#sprite1"/>
      <use height="4.9" transform="matrix(1.0, 0.0, 0.0, 1.0, 23.55, 29.1)" width="8.5" xlink:href="#sprite2"/>
      <use height="6.0" transform="matrix(1.0, 0.0, 0.0, 1.0, 17.3, 30.8)" width="6.7" xlink:href="#sprite3"/>
      <use height="8.15" transform="matrix(0.9659, 0.2588, -0.2588, 0.9659, 28.6665, 15.1096)" width="6.35" xlink:href="#sprite4"/>
      <use height="18.1" transform="matrix(1.0, 0.0, 0.0, 1.0, 5.85, 5.75)" width="14.35" xlink:href="#shape5"/>
      <use height="18.15" transform="matrix(1.0, 0.0, 0.0, 1.0, 14.8, 14.8)" width="18.15" xlink:href="#sprite5"/>
      <use height="6.1" transform="matrix(0.9932, -0.1122, 0.1122, 0.9932, 11.8302, 25.781)" width="8.3" xlink:href="#sprite6"/>
      <use height="3.95" transform="matrix(1.0, 0.0, 0.0, 1.0, 24.6, 27.85)" width="7.65" xlink:href="#sprite7"/>
      <use height="14.8" transform="matrix(1.0, 0.0, 0.0, 1.0, 15.55, 16.9)" width="17.6" xlink:href="#sprite8"/>
      <use height="12.3" transform="matrix(1.0, 0.0, 0.0, 1.0, 20.15, 8.25)" width="8.95" xlink:href="#shape10"/>
    </g>
    <g id="shape0" transform="matrix(1.0, 0.0, 0.0, 1.0, 0.0, 0.0)">
      <path d="M44.0 44.0 L0.0 44.0 0.0 0.0 44.0 0.0 44.0 44.0" fill="#43adca" fill-opacity="0.0" fill-rule="evenodd" stroke="none"/>
    </g>
    <g id="sprite1" transform="matrix(1.0, 0.0, 0.0, 1.0, 17.05, 8.5)">
      <use height="17.05" transform="matrix(1.0, 0.0, 0.0, 1.0, -17.05, -8.5)" width="34.1" xlink:href="#shape1"/>
    </g>
    <g id="shape1" transform="matrix(1.0, 0.0, 0.0, 1.0, 17.05, 8.5)">
      <path d="M0.0 -8.5 Q7.05 -8.55 12.1 -6.05 17.05 -3.55 17.05 0.0 17.05 3.55 12.1 6.05 7.05 8.55 0.0 8.55 -7.05 8.55 -12.0 6.05 -17.05 3.55 -17.05 0.0 -17.05 -3.55 -12.0 -6.05 -7.05 -8.55 0.0 -8.5" fill="url(#gradient0)" fill-rule="evenodd" stroke="none"/>
    </g>
    <radialGradient cx="0" cy="0" gradientTransform="matrix(-0.0199, 0.0, 0.0, 0.0099, 0.0, 0.0)" gradientUnits="userSpaceOnUse" id="gradient0" r="819.2" spreadMethod="pad">
      <stop offset="0.3333333333333333" stop-color="#0e171d" stop-opacity="0.24705882"/>
      <stop offset="1.0" stop-color="#101a24" stop-opacity="0.0"/>
    </radialGradient>
    <g id="sprite2" transform="matrix(1.0, 0.0, 0.0, 1.0, 4.2, 2.45)">
      <use height="4.9" transform="matrix(1.0, 0.0, 0.0, 1.0, -4.2, -2.45)" width="8.5" xlink:href="#shape2"/>
    </g>
    <g id="shape2" transform="matrix(1.0, 0.0, 0.0, 1.0, 4.2, 2.45)">
      <path d="M1.55 -2.15 L3.35 -1.25 3.65 -1.0 Q4.4 -0.25 4.3 0.55 L4.3 0.65 4.25 1.0 3.95 1.4 Q1.05 2.05 -1.45 0.85 L-1.35 0.35 -0.4 -1.75 -0.15 -1.8 1.55 -2.15 M1.35 -1.1 Q3.6 -0.5 4.25 1.0 3.6 -0.5 1.35 -1.1" fill="#996633" fill-rule="evenodd" stroke="none"/>
      <path d="M1.55 -2.15 L-0.15 -1.8 -0.4 -1.75 -1.35 0.35 -1.45 0.85 Q1.05 2.05 3.95 1.4 L3.45 1.85 2.85 2.1 2.2 2.35 0.0 2.4 -1.05 2.15 Q-2.1 1.8 -2.95 1.15 -4.25 0.2 -4.2 -0.8 -4.15 -1.9 -2.55 -2.25 L0.7 -2.35 1.55 -2.15" fill="#6b4723" fill-rule="evenodd" stroke="none"/>
      <path d="M4.25 1.0 L4.3 0.65 4.3 0.55 Q4.4 -0.25 3.65 -1.0 L3.35 -1.25 1.55 -2.15 0.7 -2.35 -2.55 -2.25 Q-4.15 -1.9 -4.2 -0.8 -4.25 0.2 -2.95 1.15 -2.1 1.8 -1.05 2.15 L0.0 2.4 2.2 2.35 2.85 2.1 3.45 1.85 3.95 1.4 4.25 1.0" fill="none" stroke="#59120d" stroke-linecap="round" stroke-linejoin="round" stroke-opacity="0.4117647" stroke-width="0.05"/>
      <path d="M4.25 1.0 Q3.6 -0.5 1.35 -1.1" fill="none" stroke="#59110d" stroke-linecap="round" stroke-linejoin="round" stroke-opacity="0.2" stroke-width="0.05"/>
    </g>
    <g id="sprite3" transform="matrix(1.0, 0.0, 0.0, 1.0, 3.35, 3.0)">
      <use height="6.0" transform="matrix(1.0, 0.0, 0.0, 1.0, -3.35, -3.0)" width="6.7" xlink:href="#shape3"/>
    </g>
    <g id="shape3" transform="matrix(1.0, 0.0, 0.0, 1.0, 3.35, 3.0)">
      <path d="M1.45 -0.85 L0.25 -0.6 0.15 -0.15 -0.05 0.45 1.45 0.75 2.55 -0.1 1.7 -0.75 2.3 -0.45 2.55 -0.15 3.3 0.85 2.45 2.15 2.15 2.4 Q0.35 2.75 -0.15 1.95 L-0.2 1.75 -1.15 2.2 -2.8 1.75 Q-3.35 1.05 -3.35 0.2 L-3.25 -0.5 0.0 -1.55 1.45 -0.85 M-2.6 -0.25 L-2.8 0.35 -1.3 0.65 -0.2 -0.2 -1.05 -0.85 -1.25 -0.95 -2.5 -0.7 -2.6 -0.25 M-0.2 1.15 L-0.2 1.75 -0.2 1.15" fill="#996633" fill-rule="evenodd" stroke="none"/>
      <path d="M1.7 -0.75 L1.45 -0.85 0.0 -1.55 -3.25 -0.5 -2.3 -1.9 Q-1.25 -2.9 0.2 -3.0 1.65 -3.05 2.55 -2.0 3.35 -0.95 3.35 0.2 L3.3 0.85 2.55 -0.15 2.3 -0.45 1.7 -0.75 M2.15 2.4 Q1.25 3.0 0.1 3.0 L0.0 3.0 -1.85 2.55 -2.35 2.15 -2.8 1.75 -1.15 2.2 -0.2 1.75 -0.15 1.95 Q0.35 2.75 2.15 2.4 M0.1 3.0 L-0.15 1.95 0.1 3.0" fill="#6b4723" fill-rule="evenodd" stroke="none"/>
      <path d="M1.45 -0.85 L1.7 -0.75 2.55 -0.1 1.45 0.75 -0.05 0.45 0.15 -0.15 0.25 -0.6 1.45 -0.85 M-2.6 -0.25 L-2.5 -0.7 -1.25 -0.95 -1.05 -0.85 -0.2 -0.2 -1.3 0.65 -2.8 0.35 -2.6 -0.25" fill="#c2813f" fill-rule="evenodd" stroke="none"/>
      <path d="M3.3 0.85 L3.35 0.2 Q3.35 -0.95 2.55 -2.0 1.65 -3.05 0.2 -3.0 -1.25 -2.9 -2.3 -1.9 L-3.25 -0.5 M2.15 2.4 Q1.25 3.0 0.1 3.0 L0.0 3.0 -1.85 2.55 -2.35 2.15 -2.8 1.75 Q-3.35 1.05 -3.35 0.2 L-3.25 -0.5 M3.3 0.85 L2.45 2.15 2.15 2.4 M-0.15 1.95 L-0.2 1.75" fill="none" stroke="#59120d" stroke-linecap="round" stroke-linejoin="round" stroke-opacity="0.4117647" stroke-width="0.05"/>
      <path d="M-0.15 1.95 L0.1 3.0 M-0.2 1.75 L-0.2 1.15" fill="none" stroke="#59110d" stroke-linecap="round" stroke-linejoin="round" stroke-opacity="0.2" stroke-width="0.05"/>
    </g>
    <g id="sprite4" transform="matrix(1.0, 0.0, 0.0, 1.0, 3.8, 4.2)">
      <use height="8.15" transform="matrix(1.0, 0.0, 0.0, 1.0, -3.8, -4.2)" width="6.35" xlink:href="#shape4"/>
    </g>
    <g id="shape4" transform="matrix(1.0, 0.0, 0.0, 1.0, 3.8, 4.2)">
      <path d="M1.9 -3.65 Q1.65 -0.55 -2.05 1.5 L-2.2 1.3 -2.65 0.4 -2.75 0.0 Q-2.9 -1.2 -2.2 -2.35 L-1.8 -2.95 Q-1.25 -3.65 -0.45 -4.0 L-0.15 -4.1 1.5 -3.95 1.9 -3.65" fill="#ffcc7f" fill-rule="evenodd" stroke="none"/>
      <path d="M1.9 -3.65 Q2.4 -3.15 2.55 -2.25 2.65 -1.1 2.0 0.1 L0.8 1.4 0.2 1.75 -0.15 1.85 -0.5 1.95 -1.75 1.7 -2.05 1.5 Q1.65 -0.55 1.9 -3.65" fill="#c29b60" fill-rule="evenodd" stroke="none"/>
      <path d="M-0.15 1.85 L0.2 1.75 0.8 1.4 0.9 1.4 1.75 2.1 1.8 2.95 -0.75 3.95 Q-2.25 3.25 -3.8 2.6 L-3.7 0.7 -3.35 0.55 -3.35 0.6 -3.3 2.0 -3.2 2.05 -0.85 3.2 0.25 2.8 -0.15 1.85" fill="#99721b" fill-opacity="0.2" fill-rule="evenodd" stroke="none"/>
      <path d="M-2.05 1.5 L-1.75 1.7 -0.5 1.95 -0.15 1.85 0.25 2.8 -0.85 3.2 -3.2 2.05 -3.3 2.0 -3.35 0.6 -2.65 0.4 -2.2 1.3 -2.05 1.5" fill="#99721b" fill-opacity="0.57254905" fill-rule="evenodd" stroke="none"/>
      <path d="M0.8 1.4 L2.0 0.1 Q2.65 -1.1 2.55 -2.25 2.4 -3.15 1.9 -3.65 M-2.05 1.5 L-1.75 1.7 -0.5 1.95 -0.15 1.85 0.2 1.75 0.8 1.4 M-2.65 0.4 L-2.75 0.0 Q-2.9 -1.2 -2.2 -2.35 L-1.8 -2.95 Q-1.25 -3.65 -0.45 -4.0 L-0.15 -4.1 1.5 -3.95 1.9 -3.65 M-2.65 0.4 L-2.2 1.3 -2.05 1.5" fill="none" stroke="#886c00" stroke-linecap="round" stroke-linejoin="round" stroke-opacity="0.6901961" stroke-width="0.05"/>
      <path d="M0.7 -3.15 L0.15 -1.7 Q-0.35 -0.95 -0.95 -0.6 -1.55 -0.15 -2.1 -0.35 -2.65 -0.55 -2.55 -1.15 L-2.05 -2.55 -0.9 -3.7 0.25 -3.9 Q0.75 -3.75 0.7 -3.15" fill="#fff07f" fill-rule="evenodd" stroke="none"/>
    </g>
    <g id="shape5" transform="matrix(1.0, 0.0, 0.0, 1.0, -5.85, -5.75)">
      <path d="M8.0 6.3 L8.1 5.75 Q9.4 8.85 13.05 11.1 16.05 12.6 17.15 15.0 L19.85 19.6 Q19.05 14.5 15.3 9.15 18.9 12.0 20.2 17.1 L19.85 19.6 Q19.2 23.4 17.55 23.7 12.5 20.4 10.95 17.25 L14.25 17.75 Q8.95 13.45 8.0 6.3" fill="#fff07f" fill-rule="evenodd" stroke="none"/>
      <path d="M17.15 15.0 Q16.95 13.4 15.3 9.15 19.05 14.5 19.85 19.6 L17.15 15.0 M17.55 23.7 L15.2 23.85 Q8.55 20.25 5.85 15.7 L9.35 18.1 Q6.75 12.75 8.0 6.3 8.95 13.45 14.25 17.75 L10.95 17.25 Q12.5 20.4 17.55 23.7" fill="#ffcf7f" fill-rule="evenodd" stroke="none"/>
      <path d="M8.0 6.3 L8.1 5.75 Q9.4 8.85 13.05 11.1 16.05 12.6 17.15 15.0 16.95 13.4 15.3 9.15 18.9 12.0 20.2 17.1 M15.2 23.85 Q8.55 20.25 5.85 15.7 L9.35 18.1 Q6.75 12.75 8.0 6.3 M17.15 15.0 L19.85 19.6" fill="none" stroke="#886c00" stroke-linecap="round" stroke-linejoin="round" stroke-opacity="0.6901961" stroke-width="0.05"/>
    </g>
    <g id="sprite5" transform="matrix(1.0, 0.0, 0.0, 1.0, 9.05, 9.1)">
      <use height="18.15" transform="matrix(1.0, 0.0, 0.0, 1.0, -9.05, -9.1)" width="18.15" xlink:href="#shape6"/>
    </g>
    <g id="shape6" transform="matrix(1.0, 0.0, 0.0, 1.0, 9.05, 9.1)">
      <path d="M-7.1 -5.7 L-6.4 -6.45 Q-4.55 -8.35 -2.05 -8.9 L0.0 -9.1 Q3.75 -9.15 6.45 -6.45 8.25 -4.65 8.85 -2.3 L9.1 0.0 Q9.1 2.45 8.0 4.45 L5.15 5.85 Q3.05 6.7 -0.45 5.3 -3.95 3.9 -5.85 0.35 -7.8 -3.25 -7.1 -5.7" fill="#ffcc7f" fill-rule="evenodd" stroke="none"/>
      <path d="M-7.1 -5.7 Q-7.8 -3.25 -5.85 0.35 -3.95 3.9 -0.45 5.3 3.05 6.7 5.15 5.85 L8.0 4.45 6.45 6.4 Q3.75 9.05 0.0 9.05 -3.75 9.05 -6.4 6.4 -9.1 3.75 -9.05 0.0 -9.1 -3.3 -7.1 -5.7" fill="#c29b60" fill-rule="evenodd" stroke="none"/>
      <path d="M8.0 4.45 Q9.1 2.45 9.1 0.0 L8.85 -2.3 Q8.25 -4.65 6.45 -6.45 3.75 -9.15 0.0 -9.1 L-2.05 -8.9 Q-4.55 -8.35 -6.4 -6.45 L-7.1 -5.7 M8.0 4.45 L6.45 6.4 Q3.75 9.05 0.0 9.05 -3.75 9.05 -6.4 6.4 -9.1 3.75 -9.05 0.0 -9.1 -3.3 -7.1 -5.7" fill="none" stroke="#886c00" stroke-linecap="round" stroke-linejoin="round" stroke-opacity="0.6901961" stroke-width="0.05"/>
      <path d="M5.6 -1.15 Q3.7 -0.05 0.9 -0.3 -1.85 -0.55 -3.8 -2.05 -5.75 -3.45 -5.75 -5.2 -5.75 -6.95 -3.8 -8.1 -1.85 -9.15 0.9 -8.9 3.7 -8.65 5.6 -7.2 7.55 -5.7 7.55 -3.95 7.55 -2.2 5.6 -1.15" fill="#fff07f" fill-rule="evenodd" stroke="none"/>
    </g>
    <g id="sprite6" transform="matrix(1.0, 0.0, 0.0, 1.0, 4.1, 3.1)">
      <use height="6.1" transform="matrix(1.0, 0.0, 0.0, 1.0, -4.1, -3.1)" width="8.3" xlink:href="#shape7"/>
    </g>
    <g id="shape7" transform="matrix(1.0, 0.0, 0.0, 1.0, 4.1, 3.1)">
      <path d="M2.25 -2.65 L3.45 -1.9 3.45 -1.75 3.25 0.85 2.35 1.55 1.75 0.8 2.0 0.5 Q2.4 -0.05 2.4 -0.65 L2.4 -0.7 2.3 -1.3 1.75 -2.15 2.25 -2.65" fill="#99721b" fill-opacity="0.57254905" fill-rule="evenodd" stroke="none"/>
      <path d="M2.25 -2.65 L2.2 -2.65 2.55 -2.85 4.2 -2.05 3.85 1.3 1.8 2.95 1.7 3.0 1.05 2.5 0.85 1.45 0.9 1.35 1.45 1.0 1.75 0.8 2.35 1.55 3.25 0.85 3.45 -1.75 3.45 -1.9 2.25 -2.65" fill="#99721b" fill-opacity="0.2" fill-rule="evenodd" stroke="none"/>
      <path d="M1.75 0.8 L1.45 1.0 0.9 1.35 -0.85 1.75 Q-2.25 1.7 -3.15 1.0 -4.15 0.3 -4.1 -0.7 -4.15 -1.25 -3.8 -1.75 -2.35 1.25 2.4 -0.65 2.4 -0.05 2.0 0.5 L1.75 0.8" fill="#c29b60" fill-rule="evenodd" stroke="none"/>
      <path d="M-3.8 -1.75 L-3.4 -2.2 -3.15 -2.4 Q-2.5 -2.9 -1.6 -3.05 L-0.85 -3.1 Q0.5 -3.1 1.45 -2.4 L1.75 -2.15 2.3 -1.3 2.4 -0.7 2.4 -0.65 Q-2.35 1.25 -3.8 -1.75" fill="#ffcc7f" fill-rule="evenodd" stroke="none"/>
      <path d="M1.75 0.8 L1.45 1.0 0.9 1.35 -0.85 1.75 Q-2.25 1.7 -3.15 1.0 -4.15 0.3 -4.1 -0.7 -4.15 -1.25 -3.8 -1.75 L-3.4 -2.2 -3.15 -2.4 Q-2.5 -2.9 -1.6 -3.05 L-0.85 -3.1 Q0.5 -3.1 1.45 -2.4 L1.75 -2.15 M2.4 -0.65 L2.4 -0.7 2.3 -1.3 1.75 -2.15 M2.4 -0.65 Q2.4 -0.05 2.0 0.5 L1.75 0.8 Z" fill="none" stroke="#886c00" stroke-linecap="round" stroke-linejoin="round" stroke-opacity="0.6901961" stroke-width="0.05"/>
      <path d="M1.0 -1.55 L-0.6 -1.4 -2.2 -1.75 Q-2.8 -2.05 -2.8 -2.4 -2.75 -2.75 -2.1 -2.9 L-0.45 -3.05 1.1 -2.7 1.7 -2.1 Q1.7 -1.75 1.0 -1.55" fill="#fff07f" fill-rule="evenodd" stroke="none"/>
    </g>
    <g id="sprite7" transform="matrix(1.0, 0.0, 0.0, 1.0, 3.8, 2.0)">
      <use height="3.95" transform="matrix(1.0, 0.0, 0.0, 1.0, -3.8, -2.0)" width="7.65" xlink:href="#shape8"/>
    </g>
    <g id="shape8" transform="matrix(1.0, 0.0, 0.0, 1.0, 3.8, 2.0)">
      <path d="M3.85 -2.0 L3.8 1.3 -3.8 1.95 3.85 -2.0" fill="#fff07f" fill-rule="evenodd" stroke="none"/>
      <path d="M3.85 -2.0 L3.8 1.3 -3.8 1.95" fill="none" stroke="#876a00" stroke-linecap="round" stroke-linejoin="round" stroke-opacity="0.4" stroke-width="0.05"/>
    </g>
    <g id="sprite8" transform="matrix(1.0, 0.0, 0.0, 1.0, 11.25, 8.35)">
      <use height="14.8" transform="matrix(1.0, 0.0, 0.0, 1.0, -11.25, -8.35)" width="17.6" xlink:href="#shape9"/>
    </g>
    <g id="shape9" transform="matrix(1.0, 0.0, 0.0, 1.0, 11.25, 8.35)">
      <path d="M4.25 -7.0 L4.35 -7.0 Q3.8 -6.95 3.45 -6.2 3.8 -6.95 4.25 -7.0 M1.25 -3.0 L1.4 -2.85 2.4 -0.7 1.25 -3.0 2.4 -0.7 2.45 -0.4 2.5 -0.35 2.5 -0.3 2.6 1.5 2.6 1.9 2.5 2.25 2.45 2.45 2.45 2.55 1.7 4.3 1.55 4.4 Q-2.75 5.7 -5.6 3.95 L-5.7 3.9 Q-7.55 2.15 -6.85 -0.45 -6.55 -1.65 -5.7 -2.95 -4.2 -4.15 -2.0 -4.45 L-0.05 -4.05 1.25 -3.0 M0.2 0.2 L0.25 0.2 0.5 0.4 0.6 0.7 0.5 1.05 0.25 1.2 Q0.05 1.2 -0.05 1.05 L-0.1 0.95 -0.25 1.8 Q-0.25 2.6 0.1 3.2 0.5 3.9 0.95 3.9 L1.85 3.2 2.15 1.8 1.85 0.3 Q1.45 -0.3 0.95 -0.25 L0.2 0.2" fill="#ffffff" fill-rule="evenodd" stroke="none"/>
      <path d="M1.15 -3.2 L1.25 -3.0 -0.05 -4.05 -2.0 -4.45 Q-4.2 -4.15 -5.7 -2.95 L-6.7 -2.0 -7.25 -1.3 -7.3 -1.2 -8.15 0.35 -8.3 0.9 -8.3 0.95 -8.35 2.8 Q-8.25 3.8 -7.75 4.55 -8.45 3.7 -8.6 2.45 L-8.55 0.6 Q-8.3 -0.6 -7.5 -1.65 L-6.95 -2.35 -5.95 -3.3 Q-4.45 -4.5 -2.25 -4.8 L-0.3 -4.4 Q0.4 -4.15 1.15 -3.2 M0.2 0.2 L0.95 -0.25 Q1.45 -0.3 1.85 0.3 L2.15 1.8 1.85 3.2 0.95 3.9 Q0.5 3.9 0.1 3.2 -0.25 2.6 -0.25 1.8 L-0.1 0.95 -0.05 1.05 Q0.05 1.2 0.25 1.2 L0.5 1.05 0.6 0.7 0.5 0.4 0.25 0.2 0.2 0.2" fill="#252016" fill-rule="evenodd" stroke="none"/>
      <path d="M-7.75 4.55 Q-8.25 3.8 -8.35 2.8 L-8.3 0.95 -8.3 0.9 -8.15 0.35 -7.3 -1.2 -7.25 -1.3 -6.7 -2.0 -5.7 -2.95 Q-6.55 -1.65 -6.85 -0.45 -7.55 2.15 -5.7 3.9 L-5.6 3.95 Q-2.75 5.7 1.55 4.4 L1.0 4.95 Q-0.55 6.4 -2.5 6.45 L-5.65 6.15 -6.0 6.05 Q-7.15 5.5 -7.75 4.55 M-8.3 0.95 L-8.15 0.35 -8.3 0.95" fill="#e7e2d3" fill-rule="evenodd" stroke="none"/>
      <path d="M1.25 -3.0 L2.4 -0.7 1.4 -2.85 M2.5 -0.3 L2.5 -0.35 2.45 -0.4 2.4 -0.7 M2.65 -2.35 L2.65 -2.0 2.7 -0.95 M1.25 -3.0 L1.15 -3.2 M-7.5 -1.65 Q-8.3 -0.6 -8.55 0.6 L-8.6 2.45 Q-8.45 3.7 -7.75 4.55 -8.25 3.8 -8.35 2.8 L-8.3 0.95 M-8.15 0.35 L-7.3 -1.2 -7.25 -1.3 M-8.15 0.35 L-8.3 0.95 M-7.75 4.55 Q-7.15 5.5 -6.0 6.05 L-5.65 6.15" fill="none" stroke="#876a00" stroke-linecap="round" stroke-linejoin="round" stroke-opacity="0.4" stroke-width="0.05"/>
      <path d="M1.4 -2.85 L1.25 -3.0 M1.15 -3.2 Q0.4 -4.15 -0.3 -4.4 L-2.25 -4.8 Q-4.45 -4.5 -5.95 -3.3 L-6.95 -2.35 -7.5 -1.65 M-7.25 -1.3 L-6.7 -2.0 -5.7 -2.95 Q-4.2 -4.15 -2.0 -4.45 L-0.05 -4.05 1.25 -3.0 Z" fill="none" stroke="#876700" stroke-linecap="round" stroke-linejoin="round" stroke-opacity="0.5411765" stroke-width="0.05"/>
      <path d="M-8.5 1.45 Q-9.9 0.8 -11.25 -0.4 L-8.15 -0.7 -8.5 1.45" fill="#000000" fill-rule="evenodd" stroke="none"/>
      <path d="M-9.9 2.2 L-8.45 1.75 -8.4 2.8 -9.9 2.2" fill="#000000" fill-rule="evenodd" stroke="none"/>
      <path d="M5.35 -5.3 L6.3 -8.35 Q5.6 -7.45 4.55 -7.3 L5.35 -5.3" fill="#000000" fill-rule="evenodd" stroke="none"/>
      <path d="M6.35 -5.15 L5.4 -4.95 5.7 -3.85 6.35 -5.15" fill="#000000" fill-rule="evenodd" stroke="none"/>
      <path d="M4.1 -7.3 Q4.65 -7.45 5.05 -6.75 L5.3 -6.15 4.9 -6.75 4.35 -7.0 4.25 -7.0 Q3.8 -6.95 3.45 -6.2 L3.25 -5.65 3.2 -5.6 Q2.9 -4.75 2.75 -3.6 L2.65 -2.35 Q2.45 -3.4 2.6 -4.25 2.7 -5.15 3.1 -6.15 3.5 -7.15 4.1 -7.3 M3.5 -1.55 Q3.75 -2.1 4.05 -2.05 L4.65 -1.5 4.85 0.0 4.65 1.45 4.05 2.1 Q3.65 2.1 3.5 1.45 3.2 0.85 3.25 0.0 L3.3 -0.8 3.3 -0.7 Q3.35 -0.6 3.55 -0.6 L3.75 -0.7 3.8 -1.1 3.75 -1.4 3.55 -1.55 3.5 -1.55" fill="#252016" fill-rule="evenodd" stroke="none"/>
      <path d="M2.65 -2.35 L2.75 -3.6 Q2.9 -4.75 3.2 -5.6 L3.25 -5.65 3.45 -6.2 Q3.8 -6.95 4.35 -7.0 L4.9 -6.75 5.3 -6.15 5.55 -5.6 Q6.0 -4.1 6.0 -2.0 L5.9 -0.2 5.85 0.2 5.55 1.55 Q5.05 3.0 4.35 3.0 3.65 3.0 3.25 1.75 L3.2 1.55 3.05 1.4 2.85 0.0 2.7 -0.95 2.7 -2.25 2.65 -2.35 M3.5 -1.55 L3.55 -1.55 3.75 -1.4 3.8 -1.1 3.75 -0.7 3.55 -0.6 Q3.35 -0.6 3.3 -0.7 L3.3 -0.8 3.25 0.0 Q3.2 0.85 3.5 1.45 3.65 2.1 4.05 2.1 L4.65 1.45 4.85 0.0 4.65 -1.5 4.05 -2.05 Q3.75 -2.1 3.5 -1.55" fill="#ffffff" fill-rule="evenodd" stroke="none"/>
      <path d="M5.3 -6.15 L5.05 -6.75 Q4.65 -7.45 4.1 -7.3 M2.6 -4.25 Q2.45 -3.4 2.65 -2.35 L2.75 -3.6 M4.25 -7.0 L4.35 -7.0 4.9 -6.75 5.3 -6.15 5.55 -5.6 Q6.0 -4.1 6.0 -2.0 L5.9 -0.2 5.85 0.2 M2.85 0.0 L2.7 -0.95" fill="none" stroke="#876a00" stroke-linecap="round" stroke-linejoin="round" stroke-opacity="0.4" stroke-width="0.05"/>
      <path d="M4.1 -7.3 Q3.5 -7.15 3.1 -6.15 2.7 -5.15 2.6 -4.25 M2.75 -3.6 Q2.9 -4.75 3.2 -5.6 L3.25 -5.65 3.45 -6.2 M4.35 -7.0 Q3.8 -6.95 3.45 -6.2" fill="none" stroke="#876700" stroke-linecap="round" stroke-linejoin="round" stroke-opacity="0.57254905" stroke-width="0.05"/>
    </g>
    <g id="shape10" transform="matrix(1.0, 0.0, 0.0, 1.0, -20.15, -8.25)">
      <path d="M27.35 14.95 Q27.4 13.9 26.7 11.1 28.65 14.8 28.65 18.1 L27.35 14.95 M26.85 20.55 L25.35 20.35 Q21.4 17.45 20.15 14.35 L22.15 16.2 Q20.95 12.55 22.35 8.6 22.3 13.2 25.25 16.45 L23.25 15.85 Q23.9 17.95 26.85 20.55" fill="#ffcf7f" fill-rule="evenodd" stroke="none"/>
      <path d="M22.35 8.6 L22.5 8.25 Q23.0 10.35 25.1 12.05 26.9 13.35 27.35 14.95 L28.65 18.1 Q28.65 14.8 26.7 11.1 28.75 13.2 29.1 16.6 L28.65 18.1 Q27.95 20.4 26.85 20.55 23.9 17.95 23.25 15.85 L25.25 16.45 Q22.3 13.2 22.35 8.6" fill="#fff07f" fill-rule="evenodd" stroke="none"/>
      <path d="M22.35 8.6 L22.5 8.25 Q23.0 10.35 25.1 12.05 26.9 13.35 27.35 14.95 27.4 13.9 26.7 11.1 28.75 13.2 29.1 16.6 M25.35 20.35 Q21.4 17.45 20.15 14.35 L22.15 16.2 Q20.95 12.55 22.35 8.6 M27.35 14.95 L28.65 18.1" fill="none" stroke="#886c00" stroke-linecap="round" stroke-linejoin="round" stroke-opacity="0.6901961" stroke-width="0.05"/>
    </g>
  </defs>
</svg>
