<?xml version="1.0" encoding="UTF-8" standalone="no"?>
<svg xmlns:xlink="http://www.w3.org/1999/xlink" height="440.0px" width="440.0px" xmlns="http://www.w3.org/2000/svg">
  <g transform="matrix(10.0, 0.0, 0.0, 10.0, 0.0, 0.0)">
    <use height="44.0" transform="matrix(1.0, 0.0, 0.0, 1.0, 0.0, 0.0)" width="44.0" xlink:href="#shape0"/>
    <use height="4.9" transform="matrix(1.4045, 0.0, 0.0, 1.4045, 22.301, 30.8387)" width="8.5" xlink:href="#sprite0"/>
    <use height="6.0" transform="matrix(1.4045, 0.0, 0.0, 1.4045, 13.5448, 33.4269)" width="6.7" xlink:href="#sprite1"/>
    <use height="7.4" transform="matrix(1.3567, 0.3635, -0.3635, 1.3567, 30.1687, 11.1625)" width="6.25" xlink:href="#sprite2"/>
    <use height="18.65" transform="matrix(1.4045, 0.0, 0.0, 1.4045, 9.6879, 10.4677)" width="18.65" xlink:href="#sprite3"/>
    <use height="5.55" transform="matrix(1.395, -0.1575, 0.1575, 1.395, 5.4883, 25.7727)" width="7.95" xlink:href="#sprite4"/>
    <use height="10.15" transform="matrix(1.4045, 0.0, 0.0, 1.4045, 14.1, 1.4)" width="9.4" xlink:href="#sprite5"/>
    <use height="16.0" transform="matrix(1.4045, 0.0, 0.0, 1.4045, 15.05, 13.75)" width="15.95" xlink:href="#sprite6"/>
  </g>
  <defs>
    <g id="shape0" transform="matrix(1.0, 0.0, 0.0, 1.0, 0.0, 0.0)">
      <path d="M44.0 44.0 L0.0 44.0 0.0 0.0 44.0 0.0 44.0 44.0" fill="#43adca" fill-opacity="0.0" fill-rule="evenodd" stroke="none"/>
    </g>
    <g id="sprite0" transform="matrix(1.0, 0.0, 0.0, 1.0, 4.2, 2.5)">
      <use height="4.9" transform="matrix(1.0, 0.0, 0.0, 1.0, -4.2, -2.5)" width="8.5" xlink:href="#shape1"/>
    </g>
    <g id="shape1" transform="matrix(1.0, 0.0, 0.0, 1.0, 4.2, 2.5)">
      <path d="M3.95 1.35 L3.45 1.8 2.85 2.05 2.2 2.3 0.0 2.35 -1.05 2.1 Q-2.1 1.75 -2.95 1.1 -4.25 0.15 -4.2 -0.85 -4.15 -1.95 -2.55 -2.3 L0.7 -2.4 1.55 -2.2 -0.4 -1.8 -1.35 0.3 -1.45 0.8 Q1.05 2.0 3.95 1.35" fill="#6c2206" fill-rule="evenodd" stroke="none"/>
      <path d="M3.95 1.35 Q1.05 2.0 -1.45 0.8 L-1.35 0.3 -0.4 -1.8 1.55 -2.2 3.35 -1.3 3.65 -1.05 Q4.4 -0.3 4.3 0.5 L4.3 0.6 4.25 0.95 3.95 1.35 M1.35 -1.15 Q3.6 -0.55 4.25 0.95 3.6 -0.55 1.35 -1.15" fill="#733d07" fill-rule="evenodd" stroke="none"/>
      <path d="M1.55 -2.2 L0.7 -2.4 -2.55 -2.3 Q-4.15 -1.95 -4.2 -0.85 -4.25 0.15 -2.95 1.1 -2.1 1.75 -1.05 2.1 L0.0 2.35 2.2 2.3 2.85 2.05 3.45 1.8 3.95 1.35 M1.55 -2.2 L3.35 -1.3 3.65 -1.05 Q4.4 -0.3 4.3 0.5 L4.3 0.6 4.25 0.95 3.95 1.35 M4.25 0.95 Q3.6 -0.55 1.35 -1.15" fill="none" stroke="#3a382c" stroke-linecap="round" stroke-linejoin="round" stroke-opacity="0.4117647" stroke-width="0.05"/>
    </g>
    <g id="sprite1" transform="matrix(1.0, 0.0, 0.0, 1.0, 3.35, 2.9)">
      <use height="6.0" transform="matrix(1.0, 0.0, 0.0, 1.0, -3.35, -2.9)" width="6.7" xlink:href="#shape2"/>
    </g>
    <g id="shape2" transform="matrix(1.0, 0.0, 0.0, 1.0, 3.35, 2.9)">
      <path d="M1.7 -0.65 L1.45 -0.75 0.0 -1.45 -3.25 -0.4 -2.3 -1.8 Q-1.25 -2.8 0.2 -2.9 1.65 -2.95 2.55 -1.9 3.35 -0.85 3.35 0.3 L3.3 0.95 2.6 0.0 2.55 -0.05 1.7 -0.65 M-2.8 1.85 L-1.15 2.3 -0.2 1.85 -0.15 2.05 Q0.35 2.85 2.15 2.5 1.25 3.1 0.1 3.1 L0.0 3.1 -1.85 2.65 -2.8 1.85 M-0.15 2.05 L0.1 3.1 -0.15 2.05" fill="#6c2206" fill-rule="evenodd" stroke="none"/>
      <path d="M2.55 0.0 L1.45 0.85 -0.05 0.55 0.15 -0.05 0.25 -0.5 1.45 -0.75 1.7 -0.65 2.55 0.0 M-2.5 -0.6 L-1.25 -0.85 -1.05 -0.75 -0.2 -0.1 -1.3 0.75 -2.8 0.45 -2.6 -0.15 -2.5 -0.6" fill="#bb6906" fill-rule="evenodd" stroke="none"/>
      <path d="M1.45 -0.75 L0.25 -0.5 0.15 -0.05 -0.05 0.55 1.45 0.85 2.55 0.0 2.6 0.0 3.3 0.95 2.45 2.25 2.15 2.5 Q0.35 2.85 -0.15 2.05 L-0.2 1.85 -1.15 2.3 -2.8 1.85 Q-3.35 1.15 -3.35 0.3 L-3.25 -0.4 0.0 -1.45 1.45 -0.75 M-0.2 1.25 L-0.2 1.85 -0.2 1.25 M-2.5 -0.6 L-2.6 -0.15 -2.8 0.45 -1.3 0.75 -0.2 -0.1 -1.05 -0.75 -1.25 -0.85 -2.5 -0.6" fill="#8d4803" fill-rule="evenodd" stroke="none"/>
      <path d="M2.6 0.0 L2.55 0.0 2.55 -0.05 2.6 0.0" fill="#938a6c" fill-rule="evenodd" stroke="none"/>
      <path d="M2.55 0.0 L1.7 -0.65 2.55 -0.05 2.55 0.0" fill="#d08515" fill-rule="evenodd" stroke="none"/>
      <path d="M-3.25 -0.4 L-3.35 0.3 Q-3.35 1.15 -2.8 1.85 M-0.2 1.85 L-0.2 1.25 M-3.25 -0.4 L-2.3 -1.8 Q-1.25 -2.8 0.2 -2.9 1.65 -2.95 2.55 -1.9 3.35 -0.85 3.35 0.3 L3.3 0.95 2.45 2.25 2.15 2.5 Q1.25 3.1 0.1 3.1 L0.0 3.1 -1.85 2.65 -2.8 1.85 M-0.15 2.05 L-0.2 1.85 M0.1 3.1 L-0.15 2.05" fill="none" stroke="#3a382c" stroke-linecap="round" stroke-linejoin="round" stroke-opacity="0.4117647" stroke-width="0.05"/>
    </g>
    <g id="sprite2" transform="matrix(1.0, 0.0, 0.0, 1.0, 3.4, 4.35)">
      <use height="7.4" transform="matrix(1.0, 0.0, 0.0, 1.0, -3.4, -4.35)" width="6.25" xlink:href="#shape3"/>
    </g>
    <g id="shape3" transform="matrix(1.0, 0.0, 0.0, 1.0, 3.4, 4.35)">
      <path d="M0.05 -4.15 L1.7 -3.95 Q2.55 -3.4 2.6 -2.2 2.7 -1.05 2.0 0.1 L0.7 1.4 0.1 1.65 -0.2 1.8 -0.6 1.85 -0.25 1.65 0.05 1.35 0.25 1.2 Q0.85 0.7 1.25 -0.55 1.6 -1.85 1.15 -2.9 0.7 -4.0 0.05 -4.15" fill="#1b2729" fill-rule="evenodd" stroke="none"/>
      <path d="M-2.7 0.2 L-2.75 -0.15 Q-2.85 -1.35 -2.1 -2.5 L-1.65 -3.1 -0.25 -4.05 0.05 -4.15 Q0.7 -4.0 1.15 -2.9 1.6 -1.85 1.25 -0.55 0.85 0.7 0.25 1.2 L0.05 1.35 -0.25 1.65 -0.6 1.85 Q-1.3 1.9 -1.8 1.55 L-2.25 1.15 -2.7 0.2" fill="#3e5c64" fill-rule="evenodd" stroke="none"/>
      <path d="M-0.2 1.8 L0.1 2.7 -1.0 3.05 -3.4 1.75 -3.35 0.35 -2.7 0.2 -2.25 1.15 -1.8 1.55 Q-1.3 1.9 -0.6 1.85 L-0.2 1.8" fill="#06091c" fill-rule="evenodd" stroke="none"/>
      <path d="M-1.85 -3.3 L-1.65 -3.35 -1.5 -3.3 -1.4 -3.1 -1.5 -2.95 -1.65 -2.85 Q-1.75 -2.85 -1.85 -2.95 L-1.9 -3.1 -1.85 -3.3 M-0.1 -4.25 L0.0 -4.05 -0.1 -3.9 -0.25 -3.8 Q-0.35 -3.8 -0.45 -3.9 L-0.5 -4.05 -0.45 -4.25 -0.25 -4.3 -0.1 -4.25 M-2.35 -1.95 L-2.25 -1.75 -2.35 -1.6 -2.5 -1.5 -2.7 -1.6 -2.75 -1.75 -2.7 -1.95 -2.5 -2.0 -2.35 -1.95 M-2.95 -0.45 L-2.75 -0.5 -2.6 -0.45 -2.5 -0.25 -2.6 -0.1 -2.75 0.0 Q-2.85 0.0 -2.95 -0.1 L-3.0 -0.25 -2.95 -0.45 M1.2 -4.3 L1.4 -4.35 1.55 -4.3 1.65 -4.1 1.55 -3.95 1.4 -3.85 1.2 -3.95 1.15 -4.1 1.2 -4.3 M2.65 -3.05 L2.75 -2.85 2.65 -2.7 2.5 -2.6 2.3 -2.7 2.25 -2.85 2.3 -3.05 2.5 -3.1 2.65 -3.05 M2.6 -1.65 L2.75 -1.6 2.85 -1.4 2.75 -1.25 2.6 -1.15 2.4 -1.25 2.35 -1.4 2.4 -1.6 2.6 -1.65 M2.25 -0.2 L2.35 0.0 2.25 0.15 2.1 0.25 1.9 0.15 1.85 0.0 1.9 -0.2 2.1 -0.25 2.25 -0.2 M1.05 1.1 L1.15 1.3 1.05 1.45 0.9 1.55 0.7 1.45 0.65 1.3 0.7 1.1 0.9 1.05 1.05 1.1" fill="#000000" fill-opacity="0.4" fill-rule="evenodd" stroke="none"/>
      <path d="M-0.4 1.6 L-0.2 1.55 -0.05 1.6 0.05 1.8 -0.05 1.95 -0.2 2.05 -0.4 1.95 -0.45 1.8 -0.4 1.6" fill="#886c00" fill-opacity="0.6901961" fill-rule="evenodd" stroke="none"/>
    </g>
    <g id="sprite3" transform="matrix(1.0, 0.0, 0.0, 1.0, 9.3, 9.35)">
      <use height="18.65" transform="matrix(1.0, 0.0, 0.0, 1.0, -9.3, -9.35)" width="18.65" xlink:href="#shape4"/>
    </g>
    <g id="shape4" transform="matrix(1.0, 0.0, 0.0, 1.0, 9.3, 9.35)">
      <path d="M-7.1 -5.7 L-6.4 -6.45 Q-4.55 -8.35 -2.05 -8.9 L0.0 -9.1 Q3.75 -9.15 6.45 -6.45 8.25 -4.65 8.85 -2.3 L9.1 0.0 Q9.1 2.45 8.0 4.45 L5.15 5.85 Q3.05 6.7 -0.45 5.3 -3.95 3.9 -5.85 0.35 -7.8 -3.25 -7.1 -5.7" fill="#3e5c64" fill-rule="evenodd" stroke="none"/>
      <path d="M-7.1 -5.7 Q-7.8 -3.25 -5.85 0.35 -3.95 3.9 -0.45 5.3 3.05 6.7 5.15 5.85 L8.0 4.45 6.45 6.4 Q3.75 9.05 0.0 9.05 -3.75 9.05 -6.4 6.4 -9.1 3.75 -9.05 0.0 -9.1 -3.3 -7.1 -5.7" fill="#283c3e" fill-rule="evenodd" stroke="none"/>
      <path d="M5.45 -7.4 L5.65 -7.45 5.8 -7.4 5.9 -7.2 5.8 -7.05 5.65 -6.95 Q5.55 -6.95 5.45 -7.05 L5.4 -7.2 5.45 -7.4 M1.7 -9.0 L1.6 -8.85 1.45 -8.75 Q1.35 -8.75 1.25 -8.85 L1.2 -9.0 1.25 -9.2 1.45 -9.25 1.6 -9.2 1.7 -9.0 M0.05 -8.95 L-0.1 -8.85 -0.3 -8.95 -0.35 -9.1 -0.3 -9.3 -0.1 -9.35 0.05 -9.3 0.15 -9.1 0.05 -8.95 M4.25 -8.2 L4.45 -8.25 4.6 -8.2 4.7 -8.0 4.6 -7.85 4.45 -7.75 Q4.35 -7.75 4.25 -7.85 L4.2 -8.0 4.25 -8.2 M3.1 -8.85 L3.2 -8.65 3.1 -8.5 2.95 -8.4 Q2.85 -8.4 2.75 -8.5 L2.7 -8.65 2.75 -8.85 2.95 -8.9 3.1 -8.85 M8.0 -4.85 L8.1 -4.65 8.0 -4.5 7.85 -4.4 Q7.75 -4.4 7.65 -4.5 L7.6 -4.65 7.65 -4.85 7.85 -4.9 8.0 -4.85 M8.35 -3.45 L8.55 -3.5 8.7 -3.45 8.8 -3.25 8.7 -3.1 8.55 -3.0 Q8.45 -3.0 8.35 -3.1 L8.3 -3.25 8.35 -3.45 M6.75 -6.1 L6.95 -6.15 7.1 -6.1 7.2 -5.9 7.1 -5.75 6.95 -5.65 Q6.85 -5.65 6.75 -5.75 L6.7 -5.9 6.75 -6.1 M9.1 -1.9 L9.2 -1.7 9.1 -1.55 8.95 -1.45 Q8.85 -1.45 8.75 -1.55 L8.7 -1.7 8.75 -1.9 8.95 -1.95 9.1 -1.9 M9.35 -0.1 L9.35 0.0 9.25 0.15 9.1 0.25 8.9 0.15 8.85 0.0 8.85 -0.1 8.9 -0.3 9.1 -0.35 9.25 -0.3 9.35 -0.1 M9.25 1.5 L9.15 1.65 9.0 1.75 8.8 1.65 8.75 1.5 8.8 1.3 9.0 1.25 9.15 1.3 9.25 1.5 M8.45 2.85 L8.65 2.8 8.8 2.85 8.9 3.05 8.8 3.2 8.65 3.3 8.45 3.2 8.4 3.05 8.45 2.85 M7.0 5.35 L7.2 5.3 7.35 5.35 7.45 5.55 7.35 5.7 7.2 5.8 7.0 5.7 6.95 5.55 7.0 5.35 M7.8 4.25 L8.0 4.2 8.15 4.25 8.25 4.45 8.15 4.6 8.0 4.7 7.8 4.6 7.75 4.45 7.8 4.25 M4.65 7.5 L4.85 7.45 5.0 7.5 5.1 7.7 5.0 7.85 4.85 7.95 4.65 7.85 4.6 7.7 4.65 7.5 M3.4 8.15 L3.6 8.1 3.75 8.15 3.85 8.35 3.75 8.5 3.6 8.6 3.4 8.5 3.35 8.35 3.4 8.15 M0.4 8.85 L0.6 8.8 0.75 8.85 0.85 9.05 0.75 9.2 0.6 9.3 0.4 9.2 0.35 9.05 0.4 8.85 M2.3 8.6 L2.4 8.8 2.3 8.95 2.15 9.05 1.95 8.95 1.9 8.8 1.95 8.6 2.15 8.55 2.3 8.6 M5.8 6.6 L6.0 6.55 6.15 6.6 6.25 6.8 6.15 6.95 6.0 7.05 5.8 6.95 5.75 6.8 5.8 6.6 M-3.4 -8.75 L-3.2 -8.8 -3.05 -8.75 -2.95 -8.55 -3.05 -8.4 -3.2 -8.3 -3.4 -8.4 -3.45 -8.55 -3.4 -8.75 M-4.65 -8.15 L-4.45 -8.2 -4.3 -8.15 -4.2 -7.95 -4.3 -7.8 -4.45 -7.7 Q-4.55 -7.7 -4.65 -7.8 L-4.7 -7.95 -4.65 -8.15 M-1.5 -9.2 L-1.4 -9.0 -1.5 -8.85 -1.65 -8.75 Q-1.75 -8.75 -1.85 -8.85 L-1.9 -9.0 -1.85 -9.2 -1.65 -9.25 -1.5 -9.2 M-6.75 -6.3 L-6.6 -6.25 -6.5 -6.05 -6.6 -5.9 -6.75 -5.8 Q-6.85 -5.8 -6.95 -5.9 L-7.0 -6.05 -6.95 -6.25 -6.75 -6.3 M-5.9 -7.3 L-5.7 -7.35 -5.55 -7.3 -5.45 -7.1 -5.55 -6.95 -5.7 -6.85 -5.9 -6.95 -5.95 -7.1 -5.9 -7.3 M-8.05 -4.85 L-7.85 -4.9 -7.7 -4.85 -7.6 -4.65 -7.7 -4.5 -7.85 -4.4 Q-7.95 -4.4 -8.05 -4.5 L-8.1 -4.65 -8.05 -4.85 M-8.35 -3.5 L-8.25 -3.3 -8.35 -3.15 -8.5 -3.05 -8.7 -3.15 -8.75 -3.3 -8.7 -3.5 -8.5 -3.55 -8.35 -3.5 M-8.65 -1.85 L-8.75 -1.7 -8.9 -1.6 -9.1 -1.7 -9.15 -1.85 -9.1 -2.05 -8.9 -2.1 -8.75 -2.05 -8.65 -1.85 M-8.9 -0.6 L-8.8 -0.4 -8.9 -0.25 -9.05 -0.15 Q-9.15 -0.15 -9.25 -0.25 L-9.3 -0.4 -9.25 -0.6 -9.05 -0.65 -8.9 -0.6 M-8.75 1.15 L-8.85 1.3 -9.0 1.4 -9.2 1.3 -9.25 1.15 -9.2 0.95 -9.0 0.9 -8.85 0.95 -8.75 1.15 M-8.95 2.7 L-8.9 2.5 -8.7 2.45 -8.55 2.5 -8.45 2.7 -8.55 2.85 -8.7 2.95 -8.9 2.85 -8.95 2.7 M-8.3 3.95 L-8.1 3.9 -7.95 3.95 -7.85 4.15 -7.95 4.3 -8.1 4.4 -8.3 4.3 -8.35 4.15 -8.3 3.95 M-7.2 5.15 L-7.1 5.35 -7.2 5.5 -7.35 5.6 -7.55 5.5 -7.6 5.35 -7.55 5.15 -7.35 5.1 -7.2 5.15 M-6.15 6.4 L-6.25 6.55 -6.4 6.65 -6.6 6.55 -6.65 6.4 -6.6 6.2 -6.4 6.15 -6.25 6.2 -6.15 6.4 M-5.35 7.3 L-5.15 7.25 -5.0 7.3 -4.9 7.5 -5.0 7.65 -5.15 7.75 -5.35 7.65 -5.4 7.5 -5.35 7.3 M-2.1 8.75 L-2.2 8.9 -2.35 9.0 -2.55 8.9 -2.6 8.75 -2.55 8.55 -2.35 8.5 -2.2 8.55 -2.1 8.75 M-0.75 8.8 L-0.65 9.0 -0.75 9.15 -0.9 9.25 -1.1 9.15 -1.15 9.0 -1.1 8.8 -0.9 8.75 -0.75 8.8 M-4.0 8.05 L-3.8 8.0 -3.65 8.05 -3.55 8.25 -3.65 8.4 -3.8 8.5 -4.0 8.4 -4.05 8.25 -4.0 8.05" fill="#000000" fill-opacity="0.4" fill-rule="evenodd" stroke="none"/>
    </g>
    <g id="sprite4" transform="matrix(1.0, 0.0, 0.0, 1.0, 4.35, 3.45)">
      <use height="5.55" transform="matrix(1.0, 0.0, 0.0, 1.0, -4.35, -3.45)" width="7.95" xlink:href="#shape5"/>
    </g>
    <g id="shape5" transform="matrix(1.0, 0.0, 0.0, 1.0, 4.35, 3.45)">
      <path d="M1.8 -2.25 L2.35 -1.4 2.5 -0.85 Q2.5 -0.2 2.1 0.4 L1.75 0.55 1.4 0.7 1.15 0.75 Q0.4 1.05 -0.9 0.75 -2.2 0.35 -2.85 -0.55 -3.6 -1.5 -3.35 -2.15 L-3.15 -2.35 Q-2.5 -2.85 -1.6 -3.05 L-0.85 -3.1 Q0.5 -3.15 1.45 -2.5 L1.8 -2.25" fill="#4a6d78" fill-rule="evenodd" stroke="none"/>
      <path d="M1.8 -2.25 L2.25 -2.75 3.5 -2.05 3.5 -1.9 3.4 0.7 2.5 1.45 1.9 0.7 1.6 0.9 1.05 1.25 -0.7 1.75 Q-2.1 1.7 -3.0 1.05 -4.05 0.4 -4.0 -0.6 -4.1 -1.45 -3.35 -2.15 -3.6 -1.5 -2.85 -0.55 -2.2 0.35 -0.9 0.75 0.4 1.05 1.15 0.75 L1.4 0.7 1.75 0.55 2.1 0.4 Q2.5 -0.2 2.5 -0.85 L2.35 -1.4 1.8 -2.25" fill="#06091c" fill-rule="evenodd" stroke="none"/>
      <path d="M-1.05 -3.3 L-0.85 -3.35 -0.7 -3.35 -0.6 -3.15 -0.7 -3.0 -0.85 -2.85 Q-0.95 -2.85 -1.05 -2.95 L-1.1 -3.1 -1.05 -3.3 M-3.65 -2.25 L-3.45 -2.3 -3.3 -2.25 -3.2 -2.05 -3.3 -1.9 -3.45 -1.8 Q-3.55 -1.8 -3.65 -1.9 L-3.7 -2.05 -3.65 -2.25 M-3.9 -1.0 L-3.8 -0.8 Q-3.75 -0.7 -3.85 -0.65 L-4.0 -0.5 -4.2 -0.6 -4.3 -0.75 -4.25 -0.95 -4.05 -1.0 -3.9 -1.0 M-2.05 -2.85 L-2.15 -2.7 -2.3 -2.6 -2.5 -2.65 -2.55 -2.8 -2.5 -3.0 -2.3 -3.1 -2.15 -3.05 -2.05 -2.85 M0.5 -3.05 L0.7 -3.1 0.85 -3.1 0.95 -2.9 0.85 -2.75 0.7 -2.6 0.5 -2.7 0.45 -2.85 0.5 -3.05 M2.0 0.5 L2.15 0.7 2.05 0.85 1.9 0.95 1.7 0.85 1.65 0.7 1.65 0.5 1.85 0.45 2.0 0.5 M0.55 1.2 L0.75 1.15 0.9 1.2 1.0 1.35 0.9 1.55 0.75 1.65 0.55 1.55 0.5 1.4 0.55 1.2 M-1.95 1.45 L-2.05 1.6 -2.2 1.7 -2.4 1.65 -2.45 1.5 -2.4 1.3 -2.2 1.2 -2.05 1.25 -1.95 1.45 M-0.8 2.0 L-1.0 1.9 -1.05 1.75 -1.0 1.55 -0.8 1.5 -0.65 1.55 -0.55 1.7 -0.65 1.9 -0.8 2.0 M-3.3 0.5 L-3.2 0.7 -3.25 0.85 -3.4 0.95 -3.6 0.85 -3.7 0.7 -3.65 0.5 -3.45 0.45 -3.3 0.5" fill="#000000" fill-opacity="0.4" fill-rule="evenodd" stroke="none"/>
    </g>
    <g id="sprite5" transform="matrix(1.0, 0.0, 0.0, 1.0, 0.0, 0.0)">
      <use height="10.15" transform="matrix(1.0, 0.0, 0.0, 1.0, 0.0, 0.0)" width="9.4" xlink:href="#shape6"/>
    </g>
    <g id="shape6" transform="matrix(1.0, 0.0, 0.0, 1.0, 0.0, 0.0)">
      <path d="M6.2 9.95 L4.15 9.75 0.4 4.8 Q-0.15 3.8 0.1 3.6 L6.2 9.95" fill="#1b2729" fill-rule="evenodd" stroke="none"/>
      <path d="M0.1 3.6 Q0.3 3.45 1.25 4.0 L7.3 8.75 Q6.95 9.6 6.2 9.95 L0.1 3.6" fill="#3e5c64" fill-rule="evenodd" stroke="none"/>
      <path d="M6.4 9.35 Q5.1 9.4 4.4 8.7 L2.15 1.65 Q1.9 0.2 2.25 0.0 L6.4 9.35" fill="#1b2729" fill-rule="evenodd" stroke="none"/>
      <path d="M2.25 0.0 Q2.5 -0.15 3.3 0.75 L7.9 8.1 Q7.3 9.15 6.4 9.35 L2.25 0.0" fill="#3e5c64" fill-rule="evenodd" stroke="none"/>
      <path d="M7.5 10.15 Q6.15 10.15 5.65 9.55 L5.65 3.45 Q5.9 2.2 6.3 2.05 L7.5 10.15" fill="#1b2729" fill-rule="evenodd" stroke="none"/>
      <path d="M6.3 2.05 Q6.6 1.9 7.15 2.65 L9.4 9.1 Q8.45 9.95 7.5 10.15 L6.3 2.05" fill="#3e5c64" fill-rule="evenodd" stroke="none"/>
    </g>
    <g id="sprite6" transform="matrix(1.0, 0.0, 0.0, 1.0, 0.0, 0.0)">
      <use height="16.0" transform="matrix(1.0, 0.0, 0.0, 1.0, 0.0, 0.0)" width="15.95" xlink:href="#shape7"/>
    </g>
    <g id="shape7" transform="matrix(1.0, 0.0, 0.0, 1.0, 0.0, 0.0)">
      <path d="M12.5 4.7 Q13.1 5.5 13.7 7.25 L13.75 7.3 13.9 7.85 Q13.8 7.75 13.85 8.1 13.55 7.45 13.75 8.25 13.95 9.1 13.1 10.3 L12.35 11.25 12.25 11.6 11.6 10.4 Q11.35 10.0 11.5 7.5 11.6 5.1 11.95 4.85 12.35 4.5 12.5 4.7 M9.3 12.65 Q7.95 14.05 6.1 13.95 4.3 13.8 3.1 12.3 2.05 10.75 2.25 8.65 2.45 6.6 3.75 5.2 5.2 3.85 7.0 4.0 L7.7 4.05 7.8 4.1 Q9.1 4.4 9.95 5.55 11.15 7.15 10.95 9.2 10.75 11.3 9.3 12.65" fill="#32210a" fill-rule="evenodd" stroke="none"/>
      <path d="M13.75 7.3 L13.7 7.25 Q13.1 5.5 12.5 4.7 L11.95 4.15 12.85 3.25 13.15 3.3 13.9 4.05 Q14.4 4.6 14.4 6.5 14.45 8.4 14.1 8.0 L13.75 7.3" fill="#06091c" fill-rule="evenodd" stroke="none"/>
      <path d="M12.15 7.8 Q12.3 7.4 12.5 7.5 12.75 7.4 13.0 7.85 L13.15 8.95 12.9 10.05 12.45 10.55 12.05 10.05 Q11.85 9.65 11.9 9.0 11.85 8.7 11.95 8.45 L12.15 8.5 12.25 8.5 12.3 8.2 12.25 8.0 12.2 7.8 12.15 7.8 M11.1 10.3 L10.85 11.35 10.15 11.9 Q9.8 11.95 9.6 11.45 9.3 11.0 9.35 10.35 L9.45 9.75 9.45 9.8 9.65 9.9 9.85 9.85 9.9 9.55 9.85 9.35 9.7 9.15 9.65 9.15 Q9.9 8.8 10.25 8.8 10.6 8.75 10.9 9.2 L11.1 10.3" fill="#252016" fill-rule="evenodd" stroke="none"/>
      <path d="M12.75 3.75 L12.8 3.75 Q13.35 3.7 13.65 4.8 L13.95 7.45 13.8 9.1 13.6 10.1 Q13.2 11.2 12.65 11.2 12.15 11.25 11.9 10.3 L11.85 10.15 11.7 10.05 11.65 9.05 Q11.45 8.4 11.55 7.6 L11.65 6.4 11.95 4.85 Q12.25 3.8 12.75 3.75 M5.35 7.0 Q6.4 6.05 8.1 5.8 L9.5 6.0 10.55 6.85 11.4 8.7 11.35 10.05 11.4 10.4 11.3 10.8 11.3 10.85 10.7 12.2 10.6 12.3 5.35 12.1 5.25 12.05 Q3.9 10.8 4.5 8.9 4.65 8.0 5.35 7.0 M11.1 10.3 L10.9 9.2 Q10.6 8.75 10.25 8.8 9.9 8.8 9.65 9.15 L9.7 9.15 9.85 9.35 9.9 9.55 9.85 9.85 9.65 9.9 9.45 9.8 9.45 9.75 9.35 10.35 Q9.3 11.0 9.6 11.45 9.8 11.95 10.15 11.9 L10.85 11.35 11.1 10.3 M12.15 7.8 L12.2 7.8 12.25 8.0 12.3 8.2 12.25 8.5 12.15 8.5 11.95 8.45 Q11.85 8.7 11.9 9.0 11.85 9.65 12.05 10.05 L12.45 10.55 12.9 10.05 13.15 8.95 13.0 7.85 Q12.75 7.4 12.5 7.5 12.3 7.4 12.15 7.8" fill="#bdd60a" fill-rule="evenodd" stroke="none"/>
      <path d="M5.35 7.0 Q4.65 8.0 4.5 8.9 3.9 10.8 5.25 12.05 L5.35 12.1 10.6 12.3 10.2 12.7 Q9.05 13.8 7.55 13.9 L5.25 13.75 Q3.5 13.2 3.3 11.35 L3.4 9.95 Q3.55 9.1 4.2 8.35 L4.6 7.75 5.35 7.0" fill="#586105" fill-rule="evenodd" stroke="none"/>
      <path d="M13.8 9.1 L13.95 7.45 13.65 4.8 Q13.35 3.7 12.8 3.75 L12.75 3.75 M11.65 6.4 L11.55 7.6 Q11.45 8.4 11.65 9.05 M11.4 8.7 L10.55 6.85 M4.2 8.35 Q3.55 9.1 3.4 9.95 L3.3 11.35 Q3.5 13.2 5.25 13.75" fill="none" stroke="#876a00" stroke-linecap="round" stroke-linejoin="round" stroke-opacity="0.4" stroke-width="0.05"/>
      <path d="M12.75 3.75 Q12.25 3.8 11.95 4.85 L11.65 6.4" fill="none" stroke="#876700" stroke-linecap="round" stroke-linejoin="round" stroke-opacity="0.57254905" stroke-width="0.05"/>
      <path d="M10.55 6.85 L9.5 6.0 8.1 5.8 Q6.4 6.05 5.35 7.0 L4.6 7.75 4.2 8.35" fill="none" stroke="#876700" stroke-linecap="round" stroke-linejoin="round" stroke-opacity="0.5411765" stroke-width="0.05"/>
      <path d="M6.5 7.25 Q6.8 6.95 7.15 6.85 L7.75 6.95 8.05 7.55 7.75 8.2 7.15 8.65 6.5 8.5 6.25 7.95 6.5 7.25" fill="#e8f75e" fill-rule="evenodd" stroke="none"/>
      <path d="M12.1 5.65 L12.45 5.55 12.6 5.8 12.55 6.3 12.3 6.7 12.0 6.8 11.8 6.55 Q11.75 6.35 11.85 6.1 L12.1 5.65" fill="#e8f75e" fill-rule="evenodd" stroke="none"/>
      <path d="M12.7 1.0 Q12.05 1.4 11.15 2.85 10.5 1.85 9.7 1.4 10.5 0.1 11.3 0.0 L12.7 1.0 M10.8 3.25 L11.6 5.85 Q11.45 6.35 11.45 6.9 L11.75 8.95 12.25 10.95 10.2 14.05 12.25 10.95 14.5 15.85 11.95 12.75 10.2 14.05 11.15 10.4 11.2 8.3 10.5 6.35 Q10.0 5.7 9.45 5.6 L7.75 5.45 6.05 6.2 4.65 7.6 3.6 9.15 3.3 10.35 3.2 11.55 Q3.3 12.65 4.0 13.25 L3.4 13.95 1.8 11.75 Q1.65 10.35 1.9 9.2 2.15 7.35 3.0 5.9 L3.6 4.95 3.8 4.8 6.35 3.2 Q8.95 1.75 9.4 2.15 L10.8 3.25" fill="#d2c086" fill-rule="evenodd" stroke="none"/>
      <path d="M15.25 2.3 L12.7 1.0 11.3 0.0 Q13.0 0.4 13.7 0.85 L15.25 2.3 M9.35 1.8 L9.95 2.35 10.8 3.25 9.4 2.15 Q8.95 1.75 6.35 3.2 L3.8 4.8 Q3.4 4.15 2.75 4.1 6.9 -0.15 9.05 1.5 L9.35 1.8" fill="#e3d5b5" fill-rule="evenodd" stroke="none"/>
      <path d="M15.25 2.3 L15.35 2.55 15.45 2.65 Q16.05 4.1 15.95 7.15 L14.9 12.2 12.75 11.15 14.9 12.2 14.5 15.85 9.2 15.5 3.1 16.0 Q1.8 14.9 1.5 14.2 L1.1 12.05 Q1.0 7.65 3.6 4.95 L3.0 5.9 Q2.15 7.35 1.9 9.2 1.65 10.35 1.8 11.75 L3.4 13.95 4.0 13.25 5.15 13.7 Q6.0 13.95 7.4 13.7 8.9 13.5 10.05 12.2 L11.15 10.4 10.2 14.05 11.95 12.75 14.5 15.85 12.25 10.95 12.75 11.15 13.3 10.5 Q13.15 10.8 13.55 10.55 L14.2 9.95 14.65 8.95 14.95 7.3 15.05 5.75 14.7 3.5 Q14.15 2.85 13.75 3.0 L12.85 4.0 11.6 5.85 10.8 3.25 9.95 2.35 9.35 1.8 9.7 1.4 Q10.5 1.85 11.15 2.85 12.05 1.4 12.7 1.0 L15.25 2.3 M9.2 15.5 L10.2 14.05 9.2 15.5" fill="#a7965f" fill-rule="evenodd" stroke="none"/>
      <path d="M14.0 8.05 L14.75 7.4 Q14.25 9.6 13.3 10.5 13.9 9.3 14.0 8.05" fill="#6b582c" fill-rule="evenodd" stroke="none"/>
      <path d="M11.6 5.85 L12.85 4.0 13.75 3.0 Q14.15 2.85 14.7 3.5 L15.05 5.75 14.95 7.3 14.65 8.95 14.2 9.95 13.55 10.55 Q13.15 10.8 13.3 10.5 14.25 9.6 14.75 7.4 L14.65 4.7 14.35 3.65 13.85 3.55 13.4 3.6 11.6 5.85" fill="#857c36" fill-rule="evenodd" stroke="none"/>
      <path d="M14.0 8.05 L14.05 7.55 Q14.2 6.0 13.95 4.85 L13.4 3.6 13.85 3.55 14.35 3.65 14.65 4.7 14.75 7.4 14.0 8.05" fill="#382510" fill-rule="evenodd" stroke="none"/>
      <path d="M3.1 16.0 L1.95 15.5 Q0.55 14.25 0.25 12.35 L0.0 10.95 Q0.3 11.65 1.1 12.05 L1.5 14.2 Q1.8 14.9 3.1 16.0" fill="#7a5b30" fill-rule="evenodd" stroke="none"/>
      <path d="M0.0 10.95 Q0.0 9.4 0.35 8.05 0.85 6.55 1.5 5.55 L2.75 4.1 Q3.4 4.15 3.8 4.8 L3.6 4.95 Q1.0 7.65 1.1 12.05 0.3 11.65 0.0 10.95" fill="#936f39" fill-rule="evenodd" stroke="none"/>
      <path d="M14.9 12.2 L15.95 7.15 Q16.05 4.1 15.45 2.65 L15.35 2.55 15.25 2.3 M10.8 3.25 L11.6 5.85 Q11.45 6.35 11.45 6.9 L11.75 8.95 12.25 10.95 12.75 11.15 14.9 12.2 14.5 15.85 9.2 15.5 3.1 16.0 1.95 15.5 Q0.55 14.25 0.25 12.35 L0.0 10.95 Q0.0 9.4 0.35 8.05 0.85 6.55 1.5 5.55 L2.75 4.1 Q6.9 -0.15 9.05 1.5 M13.3 10.5 L12.75 11.15 M13.4 3.6 L13.95 4.85 Q14.2 6.0 14.05 7.55 L14.0 8.05 M13.4 3.6 L11.6 5.85 M11.3 0.0 Q10.5 0.1 9.7 1.4 M11.3 0.0 Q13.0 0.4 13.7 0.85 L15.25 2.3 M11.15 10.4 L11.2 8.3 10.5 6.35 Q10.0 5.7 9.45 5.6 L7.75 5.45 6.05 6.2 4.65 7.6 3.6 9.15 M3.2 11.55 Q3.3 12.65 4.0 13.25 L5.15 13.7 Q6.0 13.95 7.4 13.7 8.9 13.5 10.05 12.2 L11.15 10.4 M10.2 14.05 L12.25 10.95 M10.2 14.05 L9.2 15.5 M13.3 10.5 Q13.9 9.3 14.0 8.05" fill="none" stroke="#000000" stroke-linecap="round" stroke-linejoin="round" stroke-opacity="0.4" stroke-width="0.05"/>
    </g>
  </defs>
</svg>
