<?xml version="1.0" encoding="UTF-8" standalone="no"?>
<svg xmlns:xlink="http://www.w3.org/1999/xlink" height="440.0px" width="440.0px" xmlns="http://www.w3.org/2000/svg">
  <g transform="matrix(10.0, 0.0, 0.0, 10.0, 0.0, 0.0)">
    <use height="44.0" transform="matrix(1.0, 0.0, 0.0, 1.0, 0.0, 0.0)" width="44.0" xlink:href="#shape0"/>
    <use height="38.4" transform="matrix(1.0, 0.0, 0.0, 1.0, 5.75, 2.7)" width="34.75" xlink:href="#sprite0"/>
  </g>
  <defs>
    <g id="shape0" transform="matrix(1.0, 0.0, 0.0, 1.0, 0.0, 0.0)">
      <path d="M44.0 44.0 L0.0 44.0 0.0 0.0 44.0 0.0 44.0 44.0" fill="#43adca" fill-opacity="0.0" fill-rule="evenodd" stroke="none"/>
    </g>
    <g id="sprite0" transform="matrix(1.0, 0.0, 0.0, 1.0, 17.75, 29.9)">
      <use height="17.05" transform="matrix(1.0, 0.0, 0.0, 1.0, -17.1, -8.55)" width="34.1" xlink:href="#sprite1"/>
      <use height="0.0" transform="matrix(1.0, 0.0, 0.0, 1.0, -17.75, -27.55)" width="0.0" xlink:href="#sprite2"/>
      <use height="4.9" transform="matrix(1.0, 0.0, 0.0, 1.0, -0.05, -4.2)" width="8.5" xlink:href="#sprite3"/>
      <use height="6.0" transform="matrix(1.0, 0.0, 0.0, 1.0, -6.3, -2.5)" width="6.7" xlink:href="#sprite4"/>
      <use height="8.15" transform="matrix(0.9659, 0.2588, -0.2588, 0.9659, 5.0665, -18.1904)" width="6.35" xlink:href="#sprite5"/>
      <use height="30.7" transform="matrix(1.0, 0.0, 0.0, 1.0, -14.35, -29.9)" width="27.15" xlink:href="#sprite6"/>
      <use height="6.1" transform="matrix(0.9932, -0.1122, 0.1122, 0.9932, -11.7698, -7.519)" width="8.3" xlink:href="#sprite9"/>
      <use height="0.0" transform="matrix(1.0, 0.0, 0.0, 1.0, 4.8, -3.45)" width="0.0" xlink:href="#sprite10"/>
      <use height="14.8" transform="matrix(1.0, 0.0, 0.0, 1.0, -8.05, -16.4)" width="17.6" xlink:href="#sprite11"/>
    </g>
    <g id="sprite1" transform="matrix(1.0, 0.0, 0.0, 1.0, 17.05, 8.5)">
      <use height="17.05" transform="matrix(1.0, 0.0, 0.0, 1.0, -17.05, -8.5)" width="34.1" xlink:href="#shape1"/>
    </g>
    <g id="shape1" transform="matrix(1.0, 0.0, 0.0, 1.0, 17.05, 8.5)">
      <path d="M0.0 -8.5 Q7.05 -8.55 12.1 -6.05 17.05 -3.55 17.05 0.0 17.05 3.55 12.1 6.05 7.05 8.55 0.0 8.55 -7.05 8.55 -12.0 6.05 -17.05 3.55 -17.05 0.0 -17.05 -3.55 -12.0 -6.05 -7.05 -8.55 0.0 -8.5" fill="url(#gradient0)" fill-rule="evenodd" stroke="none"/>
    </g>
    <radialGradient cx="0" cy="0" gradientTransform="matrix(-0.0199, 0.0, 0.0, 0.0099, 0.0, 0.0)" gradientUnits="userSpaceOnUse" id="gradient0" r="819.2" spreadMethod="pad">
      <stop offset="0.3333333333333333" stop-color="#0e171d" stop-opacity="0.24705882"/>
      <stop offset="1.0" stop-color="#101a24" stop-opacity="0.0"/>
    </radialGradient>
    <g id="sprite3" transform="matrix(1.0, 0.0, 0.0, 1.0, 4.2, 2.45)">
      <use height="4.9" transform="matrix(1.0, 0.0, 0.0, 1.0, -4.2, -2.45)" width="8.5" xlink:href="#shape2"/>
    </g>
    <g id="shape2" transform="matrix(1.0, 0.0, 0.0, 1.0, 4.2, 2.45)">
      <path d="M1.55 -2.15 L-0.15 -1.8 -0.4 -1.75 -1.35 0.35 -1.45 0.85 Q1.05 2.05 3.95 1.4 L3.45 1.85 2.85 2.1 2.2 2.35 0.0 2.4 -1.05 2.15 Q-2.1 1.8 -2.95 1.15 -4.25 0.2 -4.2 -0.8 -4.15 -1.9 -2.55 -2.25 L0.7 -2.35 1.55 -2.15" fill="#96a6aa" fill-rule="evenodd" stroke="none"/>
      <path d="M1.55 -2.15 L3.35 -1.25 3.65 -1.0 Q4.4 -0.25 4.3 0.55 L4.3 0.65 4.25 1.0 3.95 1.4 Q1.05 2.05 -1.45 0.85 L-1.35 0.35 -0.4 -1.75 -0.15 -1.8 1.55 -2.15 M1.35 -1.1 Q3.6 -0.5 4.25 1.0 3.6 -0.5 1.35 -1.1" fill="#b4bdbd" fill-rule="evenodd" stroke="none"/>
      <path d="M4.25 1.0 L4.3 0.65 4.3 0.55 Q4.4 -0.25 3.65 -1.0 L3.35 -1.25 1.55 -2.15 0.7 -2.35 -2.55 -2.25 Q-4.15 -1.9 -4.2 -0.8 -4.25 0.2 -2.95 1.15 -2.1 1.8 -1.05 2.15 L0.0 2.4 2.2 2.35 2.85 2.1 3.45 1.85 3.95 1.4 4.25 1.0" fill="none" stroke="#59120d" stroke-linecap="round" stroke-linejoin="round" stroke-opacity="0.4117647" stroke-width="0.05"/>
      <path d="M4.25 1.0 Q3.6 -0.5 1.35 -1.1" fill="none" stroke="#59110d" stroke-linecap="round" stroke-linejoin="round" stroke-opacity="0.2" stroke-width="0.05"/>
    </g>
    <g id="sprite4" transform="matrix(1.0, 0.0, 0.0, 1.0, 3.35, 3.0)">
      <use height="6.0" transform="matrix(1.0, 0.0, 0.0, 1.0, -3.35, -3.0)" width="6.7" xlink:href="#shape3"/>
    </g>
    <g id="shape3" transform="matrix(1.0, 0.0, 0.0, 1.0, 3.35, 3.0)">
      <path d="M1.45 -0.85 L0.0 -1.55 -3.25 -0.5 -2.3 -1.9 Q-1.25 -2.9 0.2 -3.0 1.65 -3.05 2.55 -2.0 3.35 -0.95 3.35 0.2 L3.3 0.85 2.55 -0.15 2.3 -0.45 1.7 -0.75 1.45 -0.85 M-2.8 1.75 L-1.15 2.2 -0.2 1.75 -0.15 1.95 Q0.35 2.75 2.15 2.4 1.25 3.0 0.1 3.0 L0.0 3.0 -1.85 2.55 -2.35 2.15 -2.8 1.75 M0.1 3.0 L-0.15 1.95 0.1 3.0" fill="#96a6aa" fill-rule="evenodd" stroke="none"/>
      <path d="M1.7 -0.75 L2.55 -0.1 1.45 0.75 -0.05 0.45 0.15 -0.15 0.25 -0.6 1.45 -0.85 1.7 -0.75 M-1.05 -0.85 L-0.2 -0.2 -1.3 0.65 -2.8 0.35 -2.6 -0.25 -2.5 -0.7 -1.25 -0.95 -1.05 -0.85" fill="#dae3e3" fill-rule="evenodd" stroke="none"/>
      <path d="M1.45 -0.85 L0.25 -0.6 0.15 -0.15 -0.05 0.45 1.45 0.75 2.55 -0.1 1.7 -0.75 2.3 -0.45 2.55 -0.15 3.3 0.85 2.45 2.15 2.15 2.4 Q0.35 2.75 -0.15 1.95 L-0.2 1.75 -1.15 2.2 -2.8 1.75 Q-3.35 1.05 -3.35 0.2 L-3.25 -0.5 0.0 -1.55 1.45 -0.85 M-0.2 1.15 L-0.2 1.75 -0.2 1.15 M-1.05 -0.85 L-1.25 -0.95 -2.5 -0.7 -2.6 -0.25 -2.8 0.35 -1.3 0.65 -0.2 -0.2 -1.05 -0.85" fill="#b4bdbd" fill-rule="evenodd" stroke="none"/>
      <path d="M-3.25 -0.5 L-3.35 0.2 Q-3.35 1.05 -2.8 1.75 M3.3 0.85 L3.35 0.2 Q3.35 -0.95 2.55 -2.0 1.65 -3.05 0.2 -3.0 -1.25 -2.9 -2.3 -1.9 L-3.25 -0.5 M-0.2 1.75 L-0.15 1.95 M2.15 2.4 L2.45 2.15 3.3 0.85 M2.15 2.4 Q1.25 3.0 0.1 3.0 L0.0 3.0 -1.85 2.55 -2.35 2.15 -2.8 1.75" fill="none" stroke="#59120d" stroke-linecap="round" stroke-linejoin="round" stroke-opacity="0.4117647" stroke-width="0.05"/>
      <path d="M-0.2 1.75 L-0.2 1.15 M-0.15 1.95 L0.1 3.0" fill="none" stroke="#59110d" stroke-linecap="round" stroke-linejoin="round" stroke-opacity="0.2" stroke-width="0.05"/>
    </g>
    <g id="sprite5" transform="matrix(1.0, 0.0, 0.0, 1.0, 3.8, 4.2)">
      <use height="8.15" transform="matrix(1.0, 0.0, 0.0, 1.0, -3.8, -4.2)" width="6.35" xlink:href="#shape4"/>
    </g>
    <g id="shape4" transform="matrix(1.0, 0.0, 0.0, 1.0, 3.8, 4.2)">
      <path d="M1.9 -3.65 Q2.4 -3.15 2.55 -2.25 2.65 -1.1 2.0 0.1 L0.8 1.4 0.2 1.75 -0.15 1.85 -0.5 1.95 -1.75 1.7 -2.05 1.5 Q1.65 -0.55 1.9 -3.65" fill="#a3adad" fill-rule="evenodd" stroke="none"/>
      <path d="M-2.65 0.4 L-2.75 0.0 Q-2.9 -1.2 -2.2 -2.35 L-1.8 -2.95 Q-1.25 -3.65 -0.45 -4.0 L-0.15 -4.1 1.5 -3.95 1.9 -3.65 Q1.65 -0.55 -2.05 1.5 L-2.2 1.3 -2.65 0.4" fill="#d8e1e1" fill-rule="evenodd" stroke="none"/>
      <path d="M0.8 1.4 L0.9 1.4 1.75 2.1 1.8 2.95 -0.75 3.95 Q-2.25 3.25 -3.8 2.6 L-3.7 0.7 -3.35 0.55 -3.35 0.6 -3.3 2.0 -3.2 2.05 -0.85 3.2 0.25 2.8 -0.15 1.85 0.2 1.75 0.8 1.4" fill="#169c9c" fill-opacity="0.2" fill-rule="evenodd" stroke="none"/>
      <path d="M-3.35 0.6 L-2.65 0.4 -2.2 1.3 -2.05 1.5 -1.75 1.7 -0.5 1.95 -0.15 1.85 0.25 2.8 -0.85 3.2 -3.2 2.05 -3.3 2.0 -3.35 0.6" fill="#1b8c98" fill-opacity="0.57254905" fill-rule="evenodd" stroke="none"/>
      <path d="M-2.65 0.4 L-2.75 0.0 Q-2.9 -1.2 -2.2 -2.35 L-1.8 -2.95 Q-1.25 -3.65 -0.45 -4.0 L-0.15 -4.1 1.5 -3.95 1.9 -3.65 Q2.4 -3.15 2.55 -2.25 2.65 -1.1 2.0 0.1 L0.8 1.4 0.2 1.75 -0.15 1.85 -0.5 1.95 -1.75 1.7 -2.05 1.5 M-2.65 0.4 L-2.2 1.3 -2.05 1.5" fill="none" stroke="#886c00" stroke-linecap="round" stroke-linejoin="round" stroke-opacity="0.6901961" stroke-width="0.05"/>
      <path d="M0.7 -3.15 L0.15 -1.7 Q-0.35 -0.95 -0.95 -0.6 -1.55 -0.15 -2.1 -0.35 -2.65 -0.55 -2.55 -1.15 L-2.05 -2.55 -0.9 -3.7 0.25 -3.9 Q0.75 -3.75 0.7 -3.15" fill="#f8fafa" fill-rule="evenodd" stroke="none"/>
    </g>
    <g id="sprite6" transform="matrix(1.0, 0.0, 0.0, 1.0, 14.6, 20.5)">
      <use height="24.85" transform="matrix(1.0, 0.0, 0.0, 1.0, -13.9, -16.0)" width="24.8" xlink:href="#shape5"/>
      <use height="34.65" transform="matrix(0.7443, 0.1167, -0.0642, 0.6848, -12.3578, -17.4443)" width="33.45" xlink:href="#sprite7"/>
      <use height="33.45" transform="matrix(0.7443, 0.1167, -0.0642, 0.6848, -12.329, -16.956)" width="16.2" xlink:href="#sprite8"/>
      <use height="21.25" transform="matrix(1.0, 0.0, 0.0, 1.0, -5.45, -20.5)" width="12.7" xlink:href="#shape8"/>
    </g>
    <g id="shape5" transform="matrix(1.0, 0.0, 0.0, 1.0, 13.9, 16.0)">
      <path d="M0.3 -15.15 Q3.4 -14.15 5.4 -12.1 L6.0 -11.4 Q7.6 -9.6 8.6 -7.3 11.95 -0.6 9.65 3.35 L9.2 4.0 Q8.45 4.95 7.35 5.75 L5.7 6.8 3.95 7.55 1.8 8.05 -2.3 7.85 -2.65 7.75 -3.6 6.7 -3.75 6.4 -3.75 5.3 -3.6 4.7 -4.1 3.9 -3.8 4.1 -3.45 4.8 -2.95 5.45 -2.15 6.05 Q-1.6 6.4 -0.9 6.55 L-0.15 6.65 3.4 6.45 3.45 6.4 4.15 5.4 4.7 4.8 Q1.8 5.95 -0.1 4.3 L-2.0 4.25 -3.35 3.65 -4.2 2.95 -5.25 1.55 -6.1 1.2 -6.4 -2.6 -6.15 -2.55 -5.5 -2.3 Q-7.0 -3.8 -6.05 -4.75 L-6.35 -5.7 Q-6.35 -6.3 -5.7 -6.8 L-4.75 -7.3 -4.75 -7.4 -2.75 -9.6 -2.65 -10.4 -1.9 -10.2 -0.45 -10.65 Q1.6 -11.1 3.25 -9.4 5.45 -9.6 7.1 -6.95 L6.95 -7.8 6.9 -9.0 6.9 -9.05 Q6.45 -10.55 4.35 -11.3 L0.35 -11.4 Q-1.35 -11.8 -2.5 -10.7 L-2.6 -10.5 -2.4 -12.85 -2.35 -12.85 -2.05 -12.9 -2.0 -12.9 -0.95 -12.8 0.3 -13.5 Q-0.4 -14.0 -0.9 -14.15 L0.3 -15.15 M4.3 -2.65 L4.8 -2.55 5.65 -3.25 Q6.9 -3.9 8.0 -2.25 9.3 -2.65 10.5 0.05 L10.35 -0.8 10.2 -2.15 10.2 -2.2 Q9.85 -3.8 8.5 -4.45 7.0 -5.8 6.1 -4.05 5.0 -4.4 4.45 -3.0 L4.3 -2.65" fill="#ffffff" fill-rule="evenodd" stroke="none"/>
      <path d="M-2.65 7.75 L-3.7 7.5 Q-5.8 6.85 -8.2 5.65 L-8.3 5.65 Q-10.25 4.7 -11.5 3.35 -14.35 0.35 -13.4 -4.75 -11.35 -9.65 -8.85 -11.45 L-3.8 -14.85 -2.8 -15.4 Q-0.9 -16.2 0.3 -15.15 L-0.9 -14.15 -1.7 -14.2 -2.3 -13.9 -2.4 -13.8 -3.0 -13.75 -3.45 -13.6 -4.05 -13.2 -5.05 -12.5 Q-6.35 -11.55 -6.2 -9.55 L-6.1 -9.0 -5.75 -9.9 Q-4.95 -11.75 -3.9 -12.3 L-2.4 -12.85 -2.6 -10.5 -2.5 -10.7 Q-1.35 -11.8 0.35 -11.4 L4.35 -11.3 Q6.45 -10.55 6.9 -9.05 L6.9 -9.0 6.95 -7.8 7.1 -6.95 Q5.45 -9.6 3.25 -9.4 1.6 -11.1 -0.45 -10.65 L-1.9 -10.2 -2.65 -10.4 -2.75 -9.6 -4.75 -7.4 -4.75 -7.3 -5.7 -6.8 Q-6.35 -6.3 -6.35 -5.7 L-6.05 -4.75 Q-7.0 -3.8 -5.5 -2.3 L-6.15 -2.55 -6.4 -2.6 -6.1 1.2 -5.25 1.55 -4.2 2.95 -3.35 3.65 -2.0 4.25 -0.1 4.3 Q1.8 5.95 4.7 4.8 L4.15 5.4 3.45 6.4 3.4 6.45 -0.15 6.65 -0.9 6.55 Q-1.6 6.4 -2.15 6.05 L-2.95 5.45 -3.45 4.8 -3.8 4.1 -4.1 3.9 -3.6 4.7 -3.75 5.3 -3.75 6.4 -3.6 6.7 -2.65 7.75 M4.3 -2.65 L4.45 -3.0 Q5.0 -4.4 6.1 -4.05 7.0 -5.8 8.5 -4.45 9.85 -3.8 10.2 -2.2 L10.2 -2.15 10.35 -0.8 10.5 0.05 Q9.3 -2.65 8.0 -2.25 6.9 -3.9 5.65 -3.25 L4.8 -2.55 4.3 -2.65" fill="#f5fbfb" fill-rule="evenodd" stroke="none"/>
      <path d="M-0.9 -14.15 Q-0.4 -14.0 0.3 -13.5 L-0.95 -12.8 -2.0 -12.9 -2.05 -12.9 -2.35 -12.85 -2.4 -12.85 -3.9 -12.3 Q-4.95 -11.75 -5.75 -9.9 L-6.1 -9.0 -6.2 -9.55 Q-6.35 -11.55 -5.05 -12.5 L-4.05 -13.2 -3.45 -13.6 -3.0 -13.75 -2.4 -13.8 -2.3 -13.9 -1.7 -14.2 -0.9 -14.15" fill="#e9efef" fill-rule="evenodd" stroke="none"/>
      <path d="M8.05 -8.4 Q7.25 -9.25 6.9 -10.2 6.55 -11.1 5.6 -11.8 L3.6 -13.2 Q2.55 -13.9 2.35 -14.35 2.2 -14.75 0.3 -15.15 L-1.8 -15.5 Q-2.95 -15.55 -3.6 -15.0 -4.2 -14.45 -5.15 -13.95 -6.05 -13.45 -7.05 -13.1 -8.0 -12.75 -8.45 -12.0 -8.9 -11.2 -9.55 -10.75 L-11.1 -9.25 Q-12.05 -8.25 -12.15 -7.4 M5.7 6.8 Q6.95 6.45 7.6 5.6 L8.8 4.1 10.0 2.3 Q10.65 1.15 10.3 0.5 10.0 -0.15 10.05 -1.25 L9.95 -3.35 9.35 -5.35 8.6 -7.3 M-12.65 -6.35 L-13.3 -4.5 Q-13.5 -3.7 -13.35 -2.45 -13.15 -1.2 -13.35 -0.3 -13.55 0.6 -13.05 1.55 -12.5 2.55 -11.7 3.15 M-10.7 4.1 L-9.05 4.85 Q-8.1 5.25 -7.45 5.7 L-5.65 6.7 -3.5 7.3 -1.35 7.75 0.65 8.3 Q1.5 8.45 2.55 7.8 3.6 7.2 4.55 7.35" fill="none" stroke="#7cabbe" stroke-linecap="round" stroke-linejoin="round" stroke-opacity="0.3529412" stroke-width="1.0"/>
    </g>
    <g id="sprite7" transform="matrix(1.0, 0.0, 0.0, 1.0, 17.1, 17.45)">
      <use height="34.65" transform="matrix(1.0, 0.0, 0.0, 1.0, -17.1, -17.45)" width="33.45" xlink:href="#shape6"/>
    </g>
    <g id="shape6" transform="matrix(1.0, 0.0, 0.0, 1.0, 17.1, 17.45)">
      <path d="M0.9 16.7 L1.2 16.75 1.2 16.65 0.9 16.65 0.9 16.7 M0.1 -17.25 L2.7 -16.25 Q3.0 -16.0 3.8 -15.75 L5.65 -15.1 7.55 -13.9 9.1 -12.3 10.15 -11.15 10.35 -10.8 10.25 -10.45 10.2 -10.35 10.3 -10.2 10.65 -10.3 11.0 -10.15 12.15 -8.45 13.1 -6.15 Q13.35 -5.2 13.85 -4.7 14.6 -3.95 14.9 -2.8 L15.45 -1.1 15.4 -1.15 16.15 0.85 Q16.6 2.25 16.15 3.4 L15.85 3.65 15.7 3.7 15.7 3.95 16.0 4.15 16.1 4.55 15.6 6.8 15.6 6.75 14.7 8.55 13.85 10.0 13.85 9.95 12.85 11.65 12.9 11.65 11.1 13.4 11.1 13.35 9.3 14.5 7.75 15.5 7.75 15.45 Q6.85 16.1 5.8 16.45 L5.85 16.45 3.85 16.9 1.75 17.15 1.4 17.05 1.2 16.8 0.9 16.8 0.7 17.1 0.3 17.2 -2.05 16.9 -4.0 16.7 -5.7 16.25 -7.9 15.65 -10.2 15.0 Q-11.4 14.65 -11.7 13.75 L-11.7 13.7 Q-12.0 13.05 -12.9 13.0 L-13.25 12.85 -13.4 12.5 -13.25 12.15 -13.45 12.0 -13.6 12.1 -14.0 12.05 -14.25 11.8 Q-14.75 10.6 -15.3 9.9 -16.0 9.05 -16.1 8.1 -16.2 7.4 -16.6 6.55 L-16.6 6.5 Q-17.05 5.45 -17.1 4.15 L-16.95 1.85 -16.4 0.1 Q-16.45 -1.1 -15.9 -2.65 -15.4 -4.2 -14.8 -4.9 L-13.75 -6.65 Q-13.3 -7.75 -11.2 -10.05 L-11.2 -10.1 -10.0 -11.25 -8.8 -12.85 -7.45 -14.35 -5.85 -15.75 Q-5.0 -16.45 -3.8 -16.75 L-2.4 -17.15 -1.85 -17.3 -1.75 -17.3 -1.75 -17.35 0.1 -17.25" fill="url(#gradient1)" fill-rule="evenodd" stroke="none"/>
    </g>
    <radialGradient cx="0" cy="0" gradientTransform="matrix(0.0376, 0.0, 0.0, 0.0376, 11.75, -3.6)" gradientUnits="userSpaceOnUse" id="gradient1" r="819.2" spreadMethod="pad">
      <stop offset="0.2980392156862745" stop-color="#c0d1d1" stop-opacity="0.0"/>
      <stop offset="1.0" stop-color="#6a7b7b" stop-opacity="0.5019608"/>
    </radialGradient>
    <g id="sprite8" transform="matrix(1.0, 0.0, 0.0, 1.0, 9.15, 16.85)">
      <use height="33.45" transform="matrix(1.0, 0.0, 0.0, 1.0, -9.15, -16.85)" width="16.2" xlink:href="#shape7"/>
    </g>
    <g id="shape7" transform="matrix(1.0, 0.0, 0.0, 1.0, 9.15, 16.85)">
      <path d="M-1.25 13.55 Q-3.2 12.1 -4.6 9.05 -4.25 12.8 -1.25 13.55 M6.0 -16.85 Q1.05 -13.35 3.25 -8.15 0.9 -6.95 0.25 -5.25 -0.45 -3.55 0.0 -2.55 0.45 -1.55 0.2 -1.45 L-0.95 0.35 Q-1.9 1.85 -1.35 5.65 -0.85 9.3 2.2 10.9 1.45 15.6 7.05 16.55 L6.85 16.6 Q2.9 16.25 -0.95 14.95 -6.4 13.05 -8.1 8.65 -10.3 2.95 -7.9 -2.55 -6.1 -6.9 -2.5 -11.2 0.35 -14.7 6.0 -16.85 M-3.45 -3.35 Q-5.95 -1.6 -5.2 1.0 -5.1 -1.25 -3.45 -3.35" fill="#000000" fill-opacity="0.11764706" fill-rule="evenodd" stroke="none"/>
    </g>
    <g id="shape8" transform="matrix(1.0, 0.0, 0.0, 1.0, 5.45, 20.5)">
      <path d="M7.25 -2.2 L7.25 -2.05 Q7.2 -1.4 6.2 -1.0 5.9 -0.05 4.6 0.4 L2.35 0.7 2.35 0.65 1.85 0.35 1.5 0.2 Q3.25 0.35 3.9 -0.6 5.55 -0.6 6.35 -1.4 L6.85 -2.0 7.25 -2.2" fill="#e7eded" fill-rule="evenodd" stroke="none"/>
      <path d="M-0.85 -15.9 L-0.75 -15.5 -1.05 -15.95 -0.85 -15.9 M-2.15 -16.05 L-2.1 -16.05 -2.1 -16.0 -2.15 -16.05" fill="#fede81" fill-rule="evenodd" stroke="none"/>
      <path d="M-0.75 -15.5 L-0.85 -15.9 Q-1.45 -18.8 0.85 -20.25 -0.8 -18.3 0.25 -15.55 L0.8 -14.2 0.85 -14.1 1.45 -12.9 1.45 -12.85 1.4 -12.75 -2.1 -12.7 -3.0 -14.15 -4.25 -15.2 -3.35 -14.95 -3.25 -14.9 -2.75 -14.9 -2.75 -15.15 -1.7 -13.95 -1.85 -15.2 -1.85 -15.3 -2.1 -16.0 -2.1 -16.05 -2.7 -18.45 -1.05 -15.95 -0.75 -15.5 -0.6 -14.7 -0.75 -15.5 M-3.0 -14.15 L-2.75 -14.9 -3.0 -14.15" fill="#eaf3f3" fill-rule="evenodd" stroke="none"/>
      <path d="M-2.15 -16.05 L-2.1 -16.0 -1.85 -15.3 -1.85 -15.2 -1.7 -13.95 -2.75 -15.15 -2.85 -16.05 Q-3.1 -16.75 -3.75 -17.1 -2.85 -17.25 -2.15 -16.05 M-3.0 -14.15 L-2.1 -12.7 -2.95 -12.7 -3.55 -13.65 -3.75 -14.0 Q-4.9 -15.3 -5.2 -14.6 -4.9 -15.25 -4.25 -15.2 L-3.0 -14.15" fill="#c5cbcb" fill-rule="evenodd" stroke="none"/>
      <path d="M-0.75 -15.5 L-0.85 -15.9 -1.05 -15.95 M-2.75 -15.15 L-2.75 -14.9" fill="none" stroke="#9fb1ac" stroke-linecap="round" stroke-linejoin="round" stroke-width="0.5"/>
      <path d="M-1.05 -15.95 L-0.75 -15.5 -0.6 -14.7 M-2.1 -16.05 L-2.7 -18.45 -1.05 -15.95 M-2.75 -14.9 L-3.0 -14.15 M0.85 -14.1 L0.8 -14.2 0.25 -15.55 Q-0.8 -18.3 0.85 -20.25 -1.45 -18.8 -0.85 -15.9 M-4.25 -15.2 Q-4.9 -15.25 -5.2 -14.6 -4.9 -15.3 -3.75 -14.0 L-3.55 -13.65 M-1.85 -15.2 L-1.85 -15.3 -2.1 -16.0 M-2.15 -16.05 Q-2.85 -17.25 -3.75 -17.1 -3.1 -16.75 -2.85 -16.05 L-2.75 -15.15 M-2.75 -14.9 L-3.25 -14.9 -3.35 -14.95 -4.25 -15.2" fill="none" stroke="#9fb1ac" stroke-linecap="round" stroke-linejoin="round" stroke-width="0.5"/>
    </g>
    <g id="sprite9" transform="matrix(1.0, 0.0, 0.0, 1.0, 4.1, 3.1)">
      <use height="6.1" transform="matrix(1.0, 0.0, 0.0, 1.0, -4.1, -3.1)" width="8.3" xlink:href="#shape9"/>
    </g>
    <g id="shape9" transform="matrix(1.0, 0.0, 0.0, 1.0, 4.1, 3.1)">
      <path d="M1.75 -2.15 L2.3 -1.3 2.4 -0.7 2.4 -0.65 Q-2.35 1.25 -3.8 -1.75 L-3.4 -2.2 -3.15 -2.4 Q-2.5 -2.9 -1.6 -3.05 L-0.85 -3.1 Q0.5 -3.1 1.45 -2.4 L1.75 -2.15" fill="#d8e0e0" fill-rule="evenodd" stroke="none"/>
      <path d="M1.75 0.8 L2.35 1.55 3.25 0.85 3.45 -1.75 3.45 -1.9 2.25 -2.65 2.2 -2.65 2.55 -2.85 4.2 -2.05 3.85 1.3 1.8 2.95 1.7 3.0 1.05 2.5 0.85 1.45 0.9 1.35 1.45 1.0 1.75 0.8" fill="#179b8d" fill-opacity="0.2" fill-rule="evenodd" stroke="none"/>
      <path d="M2.4 -0.65 L2.4 -0.7 2.3 -1.3 1.75 -2.15 2.25 -2.65 3.45 -1.9 3.45 -1.75 3.25 0.85 2.35 1.55 1.75 0.8 2.0 0.5 Q2.4 -0.05 2.4 -0.65" fill="#17829b" fill-opacity="0.57254905" fill-rule="evenodd" stroke="none"/>
      <path d="M2.4 -0.65 Q2.4 -0.05 2.0 0.5 L1.75 0.8 1.45 1.0 0.9 1.35 -0.85 1.75 Q-2.25 1.7 -3.15 1.0 -4.15 0.3 -4.1 -0.7 -4.15 -1.25 -3.8 -1.75 -2.35 1.25 2.4 -0.65" fill="#a3adad" fill-rule="evenodd" stroke="none"/>
      <path d="M1.75 -2.15 L2.3 -1.3 2.4 -0.7 2.4 -0.65 Q2.4 -0.05 2.0 0.5 L1.75 0.8 M1.75 -2.15 L1.45 -2.4 Q0.5 -3.1 -0.85 -3.1 L-1.6 -3.05 Q-2.5 -2.9 -3.15 -2.4 L-3.4 -2.2 -3.8 -1.75 M0.9 1.35 L-0.85 1.75 Q-2.25 1.7 -3.15 1.0 -4.15 0.3 -4.1 -0.7 -4.15 -1.25 -3.8 -1.75 M0.9 1.35 L1.45 1.0 1.75 0.8" fill="none" stroke="#886c00" stroke-linecap="round" stroke-linejoin="round" stroke-opacity="0.6901961" stroke-width="0.05"/>
      <path d="M1.0 -1.55 L-0.6 -1.4 -2.2 -1.75 Q-2.8 -2.05 -2.8 -2.4 -2.75 -2.75 -2.1 -2.9 L-0.45 -3.05 1.1 -2.7 1.7 -2.1 Q1.7 -1.75 1.0 -1.55" fill="#f7f9f9" fill-rule="evenodd" stroke="none"/>
    </g>
    <g id="sprite11" transform="matrix(1.0, 0.0, 0.0, 1.0, 11.25, 8.35)">
      <use height="14.8" transform="matrix(1.0, 0.0, 0.0, 1.0, -11.25, -8.35)" width="17.6" xlink:href="#shape10"/>
    </g>
    <g id="shape10" transform="matrix(1.0, 0.0, 0.0, 1.0, 11.25, 8.35)">
      <path d="M4.25 -7.0 L4.35 -7.0 Q3.8 -6.95 3.45 -6.2 3.8 -6.95 4.25 -7.0 M1.4 -2.85 L2.4 -0.7 2.45 -0.4 2.5 -0.35 2.5 -0.3 2.6 1.5 2.6 1.9 2.5 2.25 2.45 2.45 2.45 2.55 1.7 4.3 1.55 4.4 Q-2.75 5.7 -5.6 3.95 L-5.7 3.9 Q-7.55 2.15 -6.85 -0.45 -6.55 -1.65 -5.7 -2.95 -4.2 -4.15 -2.0 -4.45 L-0.05 -4.05 1.25 -3.0 1.4 -2.85 M1.25 -3.0 L2.4 -0.7 1.25 -3.0 M0.2 0.2 L0.25 0.2 0.5 0.4 0.6 0.7 0.5 1.05 0.25 1.2 Q0.05 1.2 -0.05 1.05 L-0.1 0.95 -0.25 1.8 Q-0.25 2.6 0.1 3.2 0.5 3.9 0.95 3.9 L1.85 3.2 2.15 1.8 1.85 0.3 Q1.45 -0.3 0.95 -0.25 L0.2 0.2" fill="#ffffff" fill-rule="evenodd" stroke="none"/>
      <path d="M-7.75 4.55 Q-8.45 3.7 -8.6 2.45 L-8.55 0.6 Q-8.3 -0.6 -7.5 -1.65 L-6.95 -2.35 -5.95 -3.3 Q-4.45 -4.5 -2.25 -4.8 L-0.3 -4.4 Q0.4 -4.15 1.15 -3.2 L1.25 -3.0 -0.05 -4.05 -2.0 -4.45 Q-4.2 -4.15 -5.7 -2.95 L-6.7 -2.0 -7.25 -1.3 -7.3 -1.2 -8.15 0.35 -8.3 0.9 -8.3 0.95 -8.35 2.8 Q-8.25 3.8 -7.75 4.55 M0.2 0.2 L0.95 -0.25 Q1.45 -0.3 1.85 0.3 L2.15 1.8 1.85 3.2 0.95 3.9 Q0.5 3.9 0.1 3.2 -0.25 2.6 -0.25 1.8 L-0.1 0.95 -0.05 1.05 Q0.05 1.2 0.25 1.2 L0.5 1.05 0.6 0.7 0.5 0.4 0.25 0.2 0.2 0.2" fill="#252016" fill-rule="evenodd" stroke="none"/>
      <path d="M1.55 4.4 L1.0 4.95 Q-0.55 6.4 -2.5 6.45 L-5.65 6.15 -6.0 6.05 Q-7.15 5.5 -7.75 4.55 -8.25 3.8 -8.35 2.8 L-8.3 0.95 -8.3 0.9 -8.15 0.35 -7.3 -1.2 -7.25 -1.3 -6.7 -2.0 -5.7 -2.95 Q-6.55 -1.65 -6.85 -0.45 -7.55 2.15 -5.7 3.9 L-5.6 3.95 Q-2.75 5.7 1.55 4.4 M-8.3 0.95 L-8.15 0.35 -8.3 0.95" fill="#e7e2d3" fill-rule="evenodd" stroke="none"/>
      <path d="M1.4 -2.85 L2.4 -0.7 2.45 -0.4 2.5 -0.35 2.5 -0.3 M-5.65 6.15 L-6.0 6.05 Q-7.15 5.5 -7.75 4.55 -8.45 3.7 -8.6 2.45 L-8.55 0.6 Q-8.3 -0.6 -7.5 -1.65 M1.15 -3.2 L1.25 -3.0 M2.4 -0.7 L1.25 -3.0 M2.65 -2.35 L2.65 -2.0 2.7 -0.95 M-8.15 0.35 L-7.3 -1.2 -7.25 -1.3 M-8.15 0.35 L-8.3 0.95 -8.35 2.8 Q-8.25 3.8 -7.75 4.55" fill="none" stroke="#876a00" stroke-linecap="round" stroke-linejoin="round" stroke-opacity="0.4" stroke-width="0.05"/>
      <path d="M-7.5 -1.65 L-6.95 -2.35 -5.95 -3.3 Q-4.45 -4.5 -2.25 -4.8 L-0.3 -4.4 Q0.4 -4.15 1.15 -3.2 M1.25 -3.0 L1.4 -2.85 M1.25 -3.0 L-0.05 -4.05 -2.0 -4.45 Q-4.2 -4.15 -5.7 -2.95 M-7.25 -1.3 L-6.7 -2.0 -5.7 -2.95" fill="none" stroke="#876700" stroke-linecap="round" stroke-linejoin="round" stroke-opacity="0.5411765" stroke-width="0.05"/>
      <path d="M-8.5 1.45 Q-9.9 0.8 -11.25 -0.4 L-8.15 -0.7 -8.5 1.45" fill="#000000" fill-rule="evenodd" stroke="none"/>
      <path d="M-9.9 2.2 L-8.45 1.75 -8.4 2.8 -9.9 2.2" fill="#000000" fill-rule="evenodd" stroke="none"/>
      <path d="M5.35 -5.3 L6.3 -8.35 Q5.6 -7.45 4.55 -7.3 L5.35 -5.3" fill="#000000" fill-rule="evenodd" stroke="none"/>
      <path d="M6.35 -5.15 L5.4 -4.95 5.7 -3.85 6.35 -5.15" fill="#000000" fill-rule="evenodd" stroke="none"/>
      <path d="M3.45 -6.2 L3.25 -5.65 3.2 -5.6 Q2.9 -4.75 2.75 -3.6 L2.65 -2.35 Q2.45 -3.4 2.6 -4.25 2.7 -5.15 3.1 -6.15 3.5 -7.15 4.1 -7.3 4.65 -7.45 5.05 -6.75 L5.3 -6.15 4.9 -6.75 4.35 -7.0 4.25 -7.0 Q3.8 -6.95 3.45 -6.2 M3.5 -1.55 Q3.75 -2.1 4.05 -2.05 L4.65 -1.5 4.85 0.0 4.65 1.45 4.05 2.1 Q3.65 2.1 3.5 1.45 3.2 0.85 3.25 0.0 L3.3 -0.8 3.3 -0.7 Q3.35 -0.6 3.55 -0.6 L3.75 -0.7 3.8 -1.1 3.75 -1.4 3.55 -1.55 3.5 -1.55" fill="#252016" fill-rule="evenodd" stroke="none"/>
      <path d="M3.45 -6.2 Q3.8 -6.95 4.35 -7.0 L4.9 -6.75 5.3 -6.15 5.55 -5.6 Q6.0 -4.1 6.0 -2.0 L5.9 -0.2 5.85 0.2 5.55 1.55 Q5.05 3.0 4.35 3.0 3.65 3.0 3.25 1.75 L3.2 1.55 3.05 1.4 2.85 0.0 2.7 -0.95 2.7 -2.25 2.65 -2.35 2.75 -3.6 Q2.9 -4.75 3.2 -5.6 L3.25 -5.65 3.45 -6.2 M3.5 -1.55 L3.55 -1.55 3.75 -1.4 3.8 -1.1 3.75 -0.7 3.55 -0.6 Q3.35 -0.6 3.3 -0.7 L3.3 -0.8 3.25 0.0 Q3.2 0.85 3.5 1.45 3.65 2.1 4.05 2.1 L4.65 1.45 4.85 0.0 4.65 -1.5 4.05 -2.05 Q3.75 -2.1 3.5 -1.55" fill="#ffffff" fill-rule="evenodd" stroke="none"/>
      <path d="M2.75 -3.6 L2.65 -2.35 M2.7 -0.95 L2.85 0.0 M5.85 0.2 L5.9 -0.2 6.0 -2.0 Q6.0 -4.1 5.55 -5.6 L5.3 -6.15 4.9 -6.75 4.35 -7.0 4.25 -7.0 M5.3 -6.15 L5.05 -6.75 Q4.65 -7.45 4.1 -7.3 M2.6 -4.25 Q2.45 -3.4 2.65 -2.35" fill="none" stroke="#876a00" stroke-linecap="round" stroke-linejoin="round" stroke-opacity="0.4" stroke-width="0.05"/>
      <path d="M4.35 -7.0 Q3.8 -6.95 3.45 -6.2 L3.25 -5.65 3.2 -5.6 Q2.9 -4.75 2.75 -3.6 M4.1 -7.3 Q3.5 -7.15 3.1 -6.15 2.7 -5.15 2.6 -4.25" fill="none" stroke="#876700" stroke-linecap="round" stroke-linejoin="round" stroke-opacity="0.57254905" stroke-width="0.05"/>
    </g>
  </defs>
</svg>
