<?xml version="1.0" encoding="UTF-8" standalone="no"?>
<svg xmlns:xlink="http://www.w3.org/1999/xlink" height="440.0px" width="440.0px" xmlns="http://www.w3.org/2000/svg">
  <g transform="matrix(10.0, 0.0, 0.0, 10.0, 0.0, 0.0)">
    <use height="44.0" transform="matrix(1.0, 0.0, 0.0, 1.0, 0.0, 0.0)" width="44.0" xlink:href="#shape0"/>
    <use height="56.0" transform="matrix(0.7372, 0.0, 0.0, 0.7372, 3.7405, 1.4613)" width="47.5" xlink:href="#sprite0"/>
  </g>
  <defs>
    <g id="shape0" transform="matrix(1.0, 0.0, 0.0, 1.0, 0.0, 0.0)">
      <path d="M44.0 44.0 L0.0 44.0 0.0 0.0 44.0 0.0 44.0 44.0" fill="#43adca" fill-opacity="0.0" fill-rule="evenodd" stroke="none"/>
    </g>
    <g id="sprite0" transform="matrix(1.0, 0.0, 0.0, 1.0, 23.75, 44.0)">
      <use height="29.5" transform="matrix(1.6109, 0.0, 0.0, 0.8054, -23.761, -11.7802)" width="29.5" xlink:href="#sprite1"/>
      <use height="6.0" transform="matrix(2.2, 0.0, 0.0, 2.2, -7.25, -15.65)" width="6.1" xlink:href="#sprite2"/>
      <use height="5.65" transform="matrix(2.2, 0.0, 0.0, 2.2, -18.6, -8.4)" width="6.4" xlink:href="#sprite3"/>
      <use height="4.95" transform="matrix(2.2, 0.0, 0.0, 2.2, 3.75, -9.8)" width="6.15" xlink:href="#sprite4"/>
      <use height="19.7" transform="matrix(2.2, 0.0, 0.0, 2.2, -15.06, -44.02)" width="16.85" xlink:href="#sprite5"/>
      <use height="4.95" transform="matrix(2.2, 0.0, 0.0, 2.2, -7.7, -2.9)" width="6.1" xlink:href="#sprite6"/>
    </g>
    <g id="sprite1" transform="matrix(1.0, 0.0, 0.0, 1.0, 14.75, 14.75)">
      <use height="29.5" transform="matrix(1.0, 0.0, 0.0, 1.0, -14.75, -14.75)" width="29.5" xlink:href="#shape1"/>
    </g>
    <g id="shape1" transform="matrix(1.0, 0.0, 0.0, 1.0, 14.75, 14.75)">
      <path d="M10.4 -10.45 Q14.75 -6.1 14.75 0.0 14.75 6.1 10.4 10.4 6.1 14.75 0.0 14.75 -6.1 14.75 -10.45 10.4 -14.75 6.1 -14.75 0.0 -14.75 -6.1 -10.45 -10.45 -6.1 -14.75 0.0 -14.75 6.1 -14.75 10.4 -10.45" fill="url(#gradient0)" fill-rule="evenodd" stroke="none"/>
    </g>
    <radialGradient cx="0" cy="0" gradientTransform="matrix(0.0172, 0.0, 0.0, 0.0172, 0.0, 0.0)" gradientUnits="userSpaceOnUse" id="gradient0" r="819.2" spreadMethod="pad">
      <stop offset="0.5882352941176471" stop-color="#0e171d" stop-opacity="0.49803922"/>
      <stop offset="1.0" stop-color="#101a24" stop-opacity="0.0"/>
    </radialGradient>
    <g id="sprite2" transform="matrix(1.0, 0.0, 0.0, 1.0, 0.0, 0.0)">
      <use height="6.0" transform="matrix(1.0, 0.0, 0.0, 1.0, 0.0, 0.0)" width="6.1" xlink:href="#shape2"/>
    </g>
    <g id="shape2" transform="matrix(1.0, 0.0, 0.0, 1.0, 0.0, 0.0)">
      <path d="M5.7 1.55 L6.0 2.3 6.05 3.45 Q5.9 4.7 4.85 5.4 3.85 6.15 2.6 5.95 1.35 5.75 0.55 4.75 0.1 3.95 0.0 3.1 L0.0 2.8 0.0 2.65 0.05 2.6 0.05 2.45 0.05 2.4 0.1 2.3 Q0.35 1.25 1.2 0.6 2.0 0.0 3.0 0.0 L3.05 0.0 3.85 0.15 3.85 0.1 Q4.85 0.35 5.45 1.25 L5.7 1.55" fill="#742e1d" fill-rule="evenodd" stroke="none"/>
    </g>
    <g id="sprite3" transform="matrix(1.0, 0.0, 0.0, 1.0, 0.0, 0.0)">
      <use height="5.65" transform="matrix(1.0, 0.0, 0.0, 1.0, 0.0, 0.0)" width="6.4" xlink:href="#shape3"/>
    </g>
    <g id="shape3" transform="matrix(1.0, 0.0, 0.0, 1.0, 0.0, 0.0)">
      <path d="M2.45 5.15 L2.75 5.05 2.7 5.15 2.45 5.15" fill="#b67b10" fill-rule="evenodd" stroke="none"/>
      <path d="M1.5 0.35 L3.4 1.3 3.75 2.4 3.75 3.15 3.15 3.7 2.05 3.3 2.2 3.0 2.15 2.95 0.95 2.1 0.55 1.25 0.55 1.2 1.5 0.35" fill="#c87432" fill-rule="evenodd" stroke="none"/>
      <path d="M5.3 1.2 L5.05 2.3 3.15 4.65 5.75 4.35 4.45 5.0 2.75 5.05 2.45 5.15 1.8 5.15 0.0 3.9 0.0 2.1 0.8 3.5 1.55 3.65 1.85 3.2 2.05 3.3 3.15 3.7 3.75 3.15 3.75 2.4 3.4 1.3 1.5 0.35 2.1 0.0 4.3 0.1 5.3 1.2" fill="#9d4426" fill-rule="evenodd" stroke="none"/>
      <path d="M5.3 1.2 L6.0 1.9 6.4 3.9 5.75 4.4 5.75 4.35 3.15 4.65 5.05 2.3 5.3 1.2 M2.05 3.3 L1.85 3.2 1.55 3.65 0.8 3.5 0.0 2.1 0.2 1.75 0.55 1.25 0.95 2.1 2.15 2.95 2.2 3.0 2.05 3.3" fill="#a54e2c" fill-rule="evenodd" stroke="none"/>
      <path d="M5.75 4.4 L6.4 3.9 6.0 1.9 5.3 1.2 M0.0 2.1 L0.0 3.9 1.8 5.15 2.45 5.15 2.75 5.05 4.45 5.0 5.75 4.35 M0.55 1.2 L1.5 0.35 2.1 0.0 4.3 0.1 5.3 1.2 M0.55 1.25 L0.2 1.75 0.0 2.1 M2.45 5.15 L2.7 5.15" fill="none" stroke="#000000" stroke-linecap="round" stroke-linejoin="round" stroke-opacity="0.4" stroke-width="0.05"/>
      <path d="M3.05 1.65 L2.9 1.95 2.5 2.1 2.1 1.95 2.0 1.65 2.1 1.35 Q2.25 1.2 2.5 1.2 L2.9 1.35 3.05 1.65" fill="#ffffcc" fill-rule="evenodd" stroke="none"/>
      <path d="M2.25 5.4 L3.1 3.85 3.65 3.55 4.25 5.25 3.05 5.65 2.25 5.4" fill="#545400" fill-rule="evenodd" stroke="none"/>
      <path d="M4.25 5.25 L3.65 3.55 3.1 3.85 2.25 5.4 0.9 5.05 1.85 2.7 3.05 2.3 4.1 3.3 4.9 5.1 4.25 5.25" fill="#333300" fill-rule="evenodd" stroke="none"/>
      <path d="M2.25 5.4 L3.05 5.65 4.25 5.25 4.9 5.1 4.1 3.3 3.05 2.3 1.85 2.7 0.9 5.05 2.25 5.4 Z" fill="none" stroke="#000000" stroke-linecap="round" stroke-linejoin="round" stroke-opacity="0.4" stroke-width="0.05"/>
    </g>
    <g id="sprite4" transform="matrix(1.0, 0.0, 0.0, 1.0, 0.0, 0.0)">
      <use height="4.95" transform="matrix(1.0, 0.0, 0.0, 1.0, 0.0, 0.0)" width="6.15" xlink:href="#shape4"/>
    </g>
    <g id="shape4" transform="matrix(1.0, 0.0, 0.0, 1.0, 0.0, 0.0)">
      <path d="M5.75 3.95 L5.7 3.9 6.05 3.65 6.1 3.75 5.75 3.95" fill="#b67b10" fill-rule="evenodd" stroke="none"/>
      <path d="M6.05 3.65 L5.7 3.9 4.9 4.6 3.95 4.75 3.85 4.6 2.25 3.5 3.05 0.9 4.35 0.4 5.7 1.85 6.05 3.65" fill="#be6830" fill-rule="evenodd" stroke="none"/>
      <path d="M3.95 4.75 L1.7 4.95 0.0 3.75 0.0 2.1 0.15 1.65 Q0.6 1.0 1.4 0.4 L2.0 0.0 4.1 0.15 4.35 0.4 3.05 0.9 2.25 3.5 3.85 4.6 3.95 4.75" fill="#742e1d" fill-rule="evenodd" stroke="none"/>
      <path d="M5.75 3.95 L6.1 3.75 6.05 3.65 5.7 3.9 4.9 4.6 3.95 4.75 1.7 4.95 0.0 3.75 0.0 2.1 0.15 1.65 Q0.6 1.0 1.4 0.4 L2.0 0.0 4.1 0.15 4.35 0.4 5.7 1.85 6.05 3.65" fill="none" stroke="#000000" stroke-linecap="round" stroke-linejoin="round" stroke-opacity="0.4" stroke-width="0.05"/>
      <path d="M3.9 4.75 L3.7 4.75 4.3 2.3 5.0 1.6 5.6 2.3 6.15 3.75 5.45 4.4 4.9 2.7 4.9 2.65 4.4 3.0 3.9 4.75" fill="#333300" fill-rule="evenodd" stroke="none"/>
      <path d="M3.9 4.75 L4.4 3.0 4.9 2.65 4.9 2.7 5.45 4.4 5.0 4.75 3.9 4.75" fill="#545400" fill-rule="evenodd" stroke="none"/>
      <path d="M5.45 4.4 L6.15 3.75 5.6 2.3 5.0 1.6 4.3 2.3 3.7 4.75 3.9 4.75 M5.45 4.4 L5.0 4.75 3.9 4.75" fill="none" stroke="#000000" stroke-linecap="round" stroke-linejoin="round" stroke-opacity="0.4" stroke-width="0.05"/>
    </g>
    <g id="sprite5" transform="matrix(1.0, 0.0, 0.0, 1.0, 1.55, 9.6)">
      <use height="19.7" transform="matrix(1.0, 0.0, 0.0, 1.0, -1.55, -9.6)" width="16.85" xlink:href="#shape5"/>
    </g>
    <g id="shape5" transform="matrix(1.0, 0.0, 0.0, 1.0, 1.55, 9.6)">
      <path d="M10.25 0.4 L10.35 0.4 Q11.55 0.7 12.4 1.65 13.4 2.75 13.5 4.2 L13.5 4.35 13.5 4.4 13.5 4.6 13.5 4.85 13.4 5.2 9.35 5.1 Q7.6 3.9 7.75 3.2 L8.0 1.75 Q8.1 -0.1 10.25 0.4" fill="#f9f4ec" fill-rule="evenodd" stroke="none"/>
      <path d="M13.4 5.2 Q13.15 6.2 12.4 7.0 11.3 8.0 9.7 7.85 8.15 7.7 7.05 6.45 5.95 5.25 5.95 3.65 5.95 2.9 6.2 2.3 L6.7 1.45 7.05 1.1 Q8.15 0.15 9.7 0.3 L10.25 0.4 Q8.1 -0.1 8.0 1.75 L7.75 3.2 Q7.6 3.9 9.35 5.1 L13.4 5.2" fill="#c4c980" fill-rule="evenodd" stroke="none"/>
      <path d="M13.4 5.2 Q13.15 6.2 12.4 7.0 11.3 8.0 9.7 7.85 8.15 7.7 7.05 6.45 5.95 5.25 5.95 3.65 5.95 2.9 6.2 2.3 L6.7 1.45 7.05 1.1 Q8.15 0.15 9.7 0.3 L10.25 0.4 10.35 0.4 Q11.55 0.7 12.4 1.65 13.4 2.75 13.5 4.2 L13.5 4.35 13.5 4.4 13.5 4.6 13.5 4.85 13.4 5.2 Z" fill="none" stroke="#000000" stroke-linecap="round" stroke-linejoin="round" stroke-opacity="0.5019608" stroke-width="0.05"/>
      <path d="M11.05 3.0 L11.55 3.45 11.75 4.4 11.75 4.55 11.75 4.7 11.55 5.6 11.05 6.05 Q10.7 6.05 10.5 5.6 L10.4 5.4 10.35 4.95 10.35 4.55 Q10.35 3.9 10.5 3.45 10.7 3.0 11.05 3.0" fill="#221100" fill-rule="evenodd" stroke="none"/>
      <path d="M11.05 3.0 L11.55 3.45 11.75 4.4 11.75 4.55 11.75 4.7 11.55 5.6 11.05 6.05 Q10.7 6.05 10.5 5.6 L10.4 5.4 10.35 4.95 10.35 4.55 Q10.35 3.9 10.5 3.45 10.7 3.0 11.05 3.0 Z" fill="none" stroke="#000000" stroke-linecap="round" stroke-linejoin="round" stroke-width="0.05"/>
      <path d="M10.45 4.75 L10.15 4.6 10.05 4.2 10.15 3.85 10.45 3.7 Q10.6 3.7 10.7 3.85 L10.8 4.2 10.7 4.6 10.45 4.75" fill="#ffffff" fill-rule="evenodd" stroke="none"/>
      <path d="M11.15 5.8 L10.85 5.75 10.7 5.4 10.85 5.0 11.15 4.75 11.45 4.8 11.6 5.1 11.45 5.55 11.15 5.8" fill="#cbf468" fill-rule="evenodd" stroke="none"/>
      <path d="M3.6 1.3 Q1.8 1.95 1.4 2.85 L1.15 3.4 Q0.0 3.4 -0.95 2.5 -0.75 1.45 0.45 0.65 0.5 0.55 0.65 0.5 2.4 0.15 3.6 1.3 M0.85 4.1 L0.3 5.35 0.1 5.15 Q-0.8 4.35 -0.95 3.35 -0.05 4.0 0.85 4.1 M1.55 0.05 L3.7 -0.15 Q5.6 0.05 6.55 0.5 L4.75 0.95 Q3.6 -0.05 1.55 0.05" fill="#7cbe4a" fill-rule="evenodd" stroke="none"/>
      <path d="M8.9 3.75 Q8.9 5.5 7.4 6.8 5.85 8.1 3.7 8.1 1.5 8.1 0.0 6.8 -1.55 5.5 -1.55 3.75 L-1.45 2.95 -1.2 2.25 Q-0.85 1.35 0.0 0.65 L0.95 0.05 Q2.15 -0.6 3.7 -0.6 5.85 -0.6 7.4 0.65 8.9 1.95 8.9 3.75 M3.6 1.3 L4.75 0.95 6.55 0.5 Q5.6 0.05 3.7 -0.15 L1.55 0.05 Q1.05 0.2 0.65 0.5 0.5 0.55 0.45 0.65 -0.75 1.45 -0.95 2.5 L-1.0 2.9 -0.95 3.35 Q-0.8 4.35 0.1 5.15 L0.3 5.35 0.85 4.1 1.15 3.4 1.4 2.85 Q1.8 1.95 3.6 1.3" fill="#40684c" fill-rule="evenodd" stroke="none"/>
      <path d="M4.75 0.95 L3.6 1.3 Q2.4 0.15 0.65 0.5 1.05 0.2 1.55 0.05 3.6 -0.05 4.75 0.95 M1.15 3.4 L0.85 4.1 Q-0.05 4.0 -0.95 3.35 L-1.0 2.9 -0.95 2.5 Q0.0 3.4 1.15 3.4" fill="#51825f" fill-rule="evenodd" stroke="none"/>
      <path d="M8.9 3.75 Q8.9 5.5 7.4 6.8 5.85 8.1 3.7 8.1 1.5 8.1 0.0 6.8 -1.55 5.5 -1.55 3.75 L-1.45 2.95 -1.2 2.25 Q-0.85 1.35 0.0 0.65 L0.95 0.05 Q2.15 -0.6 3.7 -0.6 5.85 -0.6 7.4 0.65 8.9 1.95 8.9 3.75 Z" fill="none" stroke="#000000" stroke-linecap="round" stroke-linejoin="round" stroke-opacity="0.3019608" stroke-width="0.05"/>
      <path d="M7.2 6.0 L7.15 6.0 6.55 5.7 6.55 5.65 7.2 6.0" fill="#e09714" fill-rule="evenodd" stroke="none"/>
      <path d="M1.5 2.75 L2.85 1.55 5.15 0.7 6.75 0.75 8.75 1.65 10.25 3.45 10.45 4.15 9.95 4.8 8.9 5.35 Q7.2 6.25 6.6 4.85 L4.95 3.25 4.7 2.85 3.15 2.1 1.5 2.75 M6.85 2.6 L6.1 2.35 5.45 3.1 5.9 3.7 7.05 3.15 6.85 2.6" fill="#78d146" fill-rule="evenodd" stroke="none"/>
      <path d="M11.05 6.3 L10.45 5.7 10.4 5.6 9.65 5.5 8.95 5.75 Q8.4 5.7 7.35 6.7 L6.75 7.6 Q6.6 9.6 7.6 9.95 L7.35 10.0 7.6 10.05 4.95 10.0 6.0 8.05 5.65 5.1 4.0 3.85 2.45 3.5 0.6 3.75 1.3 2.95 1.5 2.75 3.15 2.1 4.7 2.85 4.95 3.25 6.6 4.85 Q7.2 6.25 8.9 5.35 L9.95 4.8 10.45 4.15 11.1 5.9 11.05 6.3 M7.2 6.0 L6.55 5.65 6.55 5.7 7.15 6.0 7.2 6.0" fill="#51825f" fill-rule="evenodd" stroke="none"/>
      <path d="M0.6 3.75 L2.45 3.5 4.0 3.85 5.65 5.1 6.0 8.05 4.95 10.0 4.2 9.85 Q2.4 9.65 0.65 7.85 -0.25 6.45 0.1 5.7 L0.6 3.75" fill="#40684c" fill-rule="evenodd" stroke="none"/>
      <path d="M11.1 7.65 L10.35 6.9 9.55 7.15 8.65 7.7 7.75 9.9 7.6 9.95 Q6.6 9.6 6.75 7.6 L7.35 6.7 Q8.4 5.7 8.95 5.75 L9.65 5.5 10.4 5.6 10.45 5.7 11.05 6.3 11.1 7.65" fill="#0f5d70" fill-rule="evenodd" stroke="none"/>
      <path d="M7.75 9.9 L8.65 7.7 9.55 7.15 10.35 6.9 11.1 7.65 11.0 8.2 Q9.75 9.35 7.75 9.9" fill="#003232" fill-rule="evenodd" stroke="none"/>
      <path d="M6.85 2.6 L7.05 3.15 5.9 3.7 5.45 3.1 6.1 2.35 6.85 2.6" fill="#fef188" fill-rule="evenodd" stroke="none"/>
      <path d="M11.1 7.65 L11.05 6.3 M7.6 9.95 L7.75 9.9 Q9.75 9.35 11.0 8.2 L11.1 7.65 M10.45 4.15 L11.1 5.9 11.05 6.3 M1.5 2.75 L2.85 1.55 5.15 0.7 6.75 0.75 8.75 1.65 10.25 3.45 10.45 4.15 M1.5 2.75 L1.3 2.95 0.6 3.75 M4.95 10.0 L7.6 10.05 7.35 10.0 7.6 9.95 M1.3 2.95 L1.4 2.8 1.5 2.75 M4.95 10.0 L4.2 9.85 Q2.4 9.65 0.65 7.85 -0.25 6.45 0.1 5.7 L0.6 3.75" fill="none" stroke="#000000" stroke-linecap="round" stroke-linejoin="round" stroke-opacity="0.4" stroke-width="0.05"/>
      <path d="M5.15 2.65 L5.25 2.65 Q6.45 2.9 7.3 3.8 8.3 4.85 8.4 6.3 L8.4 6.45 8.4 6.5 8.4 6.7 8.4 6.95 8.3 7.3 4.25 7.4 Q2.5 6.3 2.65 5.55 L2.9 4.1 Q3.0 2.25 5.15 2.65" fill="#f9f4ec" fill-rule="evenodd" stroke="none"/>
      <path d="M8.3 7.3 Q8.05 8.35 7.3 9.15 6.2 10.2 4.6 10.1 3.05 10.0 1.95 8.85 0.85 7.7 0.85 6.1 0.85 5.35 1.1 4.7 L1.6 3.85 1.95 3.5 Q3.05 2.45 4.6 2.55 L5.15 2.65 Q3.0 2.25 2.9 4.1 L2.65 5.55 Q2.5 6.3 4.25 7.4 L8.3 7.3" fill="#c4c980" fill-rule="evenodd" stroke="none"/>
      <path d="M8.3 7.3 Q8.05 8.35 7.3 9.15 6.2 10.2 4.6 10.1 3.05 10.0 1.95 8.85 0.85 7.7 0.85 6.1 0.85 5.35 1.1 4.7 L1.6 3.85 1.95 3.5 Q3.05 2.45 4.6 2.55 L5.15 2.65 5.25 2.65 Q6.45 2.9 7.3 3.8 8.3 4.85 8.4 6.3 L8.4 6.45 8.4 6.5 8.4 6.7 8.4 6.95 8.3 7.3 Z" fill="none" stroke="#000000" stroke-linecap="round" stroke-linejoin="round" stroke-opacity="0.5019608" stroke-width="0.05"/>
      <path d="M6.25 5.15 Q6.65 5.15 6.95 5.7 L7.1 6.8 7.1 7.0 7.05 7.2 6.65 8.3 Q6.25 8.8 5.85 8.8 5.45 8.8 5.15 8.3 L5.1 8.0 5.0 7.5 5.05 7.0 5.45 5.7 Q5.85 5.15 6.25 5.15" fill="#221100" fill-rule="evenodd" stroke="none"/>
      <path d="M6.25 5.15 Q6.65 5.15 6.95 5.7 L7.1 6.8 7.1 7.0 7.05 7.2 6.65 8.3 Q6.25 8.8 5.85 8.8 5.45 8.8 5.15 8.3 L5.1 8.0 5.0 7.5 5.05 7.0 5.45 5.7 Q5.85 5.15 6.25 5.15 Z" fill="none" stroke="#000000" stroke-linecap="round" stroke-linejoin="round" stroke-width="0.05"/>
      <path d="M5.25 7.3 L4.9 7.1 4.8 6.7 5.0 6.25 Q5.15 6.1 5.35 6.1 5.6 6.1 5.7 6.25 L5.8 6.7 5.6 7.1 5.25 7.3" fill="#ffffff" fill-rule="evenodd" stroke="none"/>
      <path d="M6.15 8.55 L5.7 8.45 Q5.5 8.35 5.55 8.05 L5.8 7.55 Q6.05 7.35 6.3 7.3 L6.7 7.3 6.85 7.7 6.6 8.2 6.15 8.55" fill="#cbf468" fill-rule="evenodd" stroke="none"/>
      <path d="M10.85 1.2 L10.05 5.9 9.0 6.3 9.35 1.6 Q9.9 1.75 10.85 1.2" fill="#e09714" fill-rule="evenodd" stroke="none"/>
      <path d="M8.85 1.25 L9.0 -0.35 11.25 -1.4 10.85 1.2 Q9.9 1.75 9.35 1.6 L8.85 1.25" fill="#9f5711" fill-rule="evenodd" stroke="none"/>
      <path d="M9.0 6.3 L8.4 5.95 8.85 1.25 9.35 1.6 9.0 6.3" fill="#bb7611" fill-rule="evenodd" stroke="none"/>
      <path d="M8.85 1.25 L9.0 -0.35 11.25 -1.4 10.85 1.2 10.05 5.9 9.0 6.3 8.4 5.95 8.85 1.25 Z" fill="none" stroke="#000000" stroke-linecap="round" stroke-linejoin="round" stroke-opacity="0.3019608" stroke-width="0.05"/>
      <path d="M14.8 -9.1 Q14.65 -6.15 13.75 -3.65 L13.55 -3.5 Q11.0 -0.75 6.35 0.4 6.8 -0.05 7.05 -1.3 10.25 -2.25 12.85 -4.25 L14.5 -9.05 14.55 -9.2 14.8 -9.1" fill="#ff9800" fill-rule="evenodd" stroke="none"/>
      <path d="M5.8 -5.2 L6.45 -5.15 Q6.8 -1.85 6.35 0.4 11.0 -0.75 13.55 -3.5 L13.75 -3.65 Q14.65 -6.15 14.8 -9.1 15.35 -9.05 15.3 -9.45 L15.3 -9.35 14.35 -3.35 Q11.6 0.35 5.6 1.2 5.25 1.35 6.1 -4.35 6.25 -4.9 5.7 -4.85 L5.75 -5.2 5.8 -5.2" fill="#ffcc00" fill-rule="evenodd" stroke="none"/>
      <path d="M6.45 -5.15 L5.8 -5.2 Q6.15 -6.1 6.7 -5.65 6.75 -5.2 6.45 -5.15 M15.3 -9.45 Q15.35 -9.05 14.8 -9.1 L14.55 -9.2 Q14.85 -9.85 15.3 -9.45" fill="#ffff65" fill-rule="evenodd" stroke="none"/>
      <path d="M5.7 -4.85 Q6.25 -4.9 6.1 -4.35 5.25 1.35 5.6 1.2 11.6 0.35 14.35 -3.35 L15.3 -9.35 Q15.4 -6.5 14.5 -3.25 11.8 1.0 5.0 1.8 3.85 1.2 4.25 0.05 L5.7 -4.85" fill="#9f5711" fill-rule="evenodd" stroke="none"/>
      <path d="M6.35 0.4 Q6.8 -1.85 6.45 -5.15 6.75 -5.2 6.7 -5.65 L6.75 -5.65 7.05 -1.4 7.05 -1.3 Q6.8 -0.05 6.35 0.4" fill="#e09714" fill-rule="evenodd" stroke="none"/>
      <path d="M5.8 -5.2 L5.75 -5.2 5.7 -4.85 M6.7 -5.65 Q6.15 -6.1 5.8 -5.2 M6.7 -5.65 L6.75 -5.65 7.05 -1.4 7.05 -1.3 Q10.25 -2.25 12.85 -4.25 L14.5 -9.05 14.55 -9.2 Q14.85 -9.85 15.3 -9.45 M15.3 -9.35 Q15.4 -6.5 14.5 -3.25 11.8 1.0 5.0 1.8 3.85 1.2 4.25 0.05 L5.7 -4.85" fill="none" stroke="#000000" stroke-linecap="round" stroke-linejoin="round" stroke-opacity="0.3019608" stroke-width="0.05"/>
      <path d="M9.2 -1.0 L8.45 -0.65 7.7 -0.45 7.35 -0.5 7.6 -0.8 8.3 -1.1 9.1 -1.35 9.5 -1.25 Q9.5 -1.15 9.2 -1.0" fill="#ffff2f" fill-rule="evenodd" stroke="none"/>
    </g>
    <g id="sprite6" transform="matrix(1.0, 0.0, 0.0, 1.0, 0.0, 0.0)">
      <use height="4.95" transform="matrix(1.0, 0.0, 0.0, 1.0, 0.0, 0.0)" width="6.1" xlink:href="#shape6"/>
    </g>
    <g id="shape6" transform="matrix(1.0, 0.0, 0.0, 1.0, 0.0, 0.0)">
      <path d="M4.8 2.2 L5.1 2.5 5.75 3.95 4.85 4.6 4.55 3.65 4.1 2.9 4.1 2.85 3.5 3.15 2.8 4.95 2.6 4.95 3.0 3.6 3.35 2.5 3.6 2.3 4.3 1.8 4.8 2.2" fill="#333300" fill-rule="evenodd" stroke="none"/>
      <path d="M4.85 4.6 L4.3 4.95 2.8 4.95 3.5 3.15 4.1 2.85 4.1 2.9 4.55 3.65 4.85 4.6" fill="#545400" fill-rule="evenodd" stroke="none"/>
      <path d="M5.05 1.15 L4.8 2.2 4.3 1.8 3.6 2.3 3.25 1.25 1.4 0.4 2.0 0.0 4.1 0.15 5.05 1.15 M2.6 4.95 L1.65 4.95 0.0 3.75 0.0 3.1 1.6 3.7 2.7 3.45 3.0 3.6 2.6 4.95" fill="#9d4426" fill-rule="evenodd" stroke="none"/>
      <path d="M0.15 1.65 Q0.55 1.0 1.4 0.4 L3.25 1.25 3.6 2.3 3.35 2.5 3.0 3.6 2.7 3.45 0.75 2.7 0.15 1.65" fill="#c87432" fill-rule="evenodd" stroke="none"/>
      <path d="M5.05 1.15 L5.7 1.85 6.1 3.75 5.75 3.95 5.1 2.5 4.8 2.2 5.05 1.15 M0.0 3.1 L0.0 2.1 0.15 1.65 0.75 2.7 2.7 3.45 1.6 3.7 0.0 3.1" fill="#a54e2c" fill-rule="evenodd" stroke="none"/>
      <path d="M5.75 3.95 L6.1 3.75 5.7 1.85 5.05 1.15 M4.8 2.2 L5.1 2.5 5.75 3.95 4.85 4.6 4.3 4.95 2.8 4.95 2.6 4.95 1.65 4.95 0.0 3.75 0.0 3.1 0.0 2.1 0.15 1.65 Q0.55 1.0 1.4 0.4 L2.0 0.0 4.1 0.15 5.05 1.15 M3.6 2.3 L4.3 1.8 4.8 2.2 M3.6 2.3 L3.35 2.5 3.0 3.6 2.6 4.95" fill="none" stroke="#000000" stroke-linecap="round" stroke-linejoin="round" stroke-opacity="0.4" stroke-width="0.05"/>
      <path d="M2.85 2.7 L2.5 2.85 2.15 2.7 2.0 2.4 2.15 2.05 2.5 1.95 2.85 2.05 3.0 2.4 2.85 2.7" fill="#ffffcc" fill-rule="evenodd" stroke="none"/>
    </g>
  </defs>
</svg>
