<?xml version="1.0" encoding="UTF-8" standalone="no"?>
<svg xmlns:xlink="http://www.w3.org/1999/xlink" height="440.0px" width="440.0px" xmlns="http://www.w3.org/2000/svg">
  <g transform="matrix(10.0, 0.0, 0.0, 10.0, 0.0, 0.0)">
    <use height="44.0" transform="matrix(1.0, 0.0, 0.0, 1.0, 0.0, 0.0)" width="44.0" xlink:href="#shape0"/>
    <use height="25.6" transform="matrix(1.155, -4.0E-4, 2.0E-4, 0.5775, 7.6627, 26.8633)" width="25.6" xlink:href="#sprite0"/>
    <use height="30.3" transform="matrix(1.0, 0.0, 0.0, 1.0, 6.45, 8.45)" width="30.3" xlink:href="#shape2"/>
    <use height="16.85" transform="matrix(1.2, 0.0, 0.0, 1.2, 16.16, 16.3801)" width="16.45" xlink:href="#sprite1"/>
    <use height="17.15" transform="matrix(1.0, 0.0, 0.0, 1.0, 18.25, 20.6)" width="17.25" xlink:href="#shape4"/>
    <use height="10.05" transform="matrix(1.44, 0.0, 0.0, 1.44, 29.198, 3.7281)" width="4.15" xlink:href="#sprite2"/>
    <use height="9.9" transform="matrix(1.44, 0.0, 0.0, 1.44, 16.73, 9.0441)" width="3.5" xlink:href="#sprite3"/>
    <use height="10.35" transform="matrix(1.0, 0.0, 0.0, 1.0, 18.95, 19.05)" width="15.7" xlink:href="#shape7"/>
  </g>
  <defs>
    <g id="shape0" transform="matrix(1.0, 0.0, 0.0, 1.0, 0.0, 0.0)">
      <path d="M44.0 44.0 L0.0 44.0 0.0 0.0 44.0 0.0 44.0 44.0" fill="#43adca" fill-opacity="0.0" fill-rule="evenodd" stroke="none"/>
    </g>
    <g id="sprite0" transform="matrix(1.0, 0.0, 0.0, 1.0, 12.8, 12.8)">
      <use height="25.6" transform="matrix(1.0, 0.0, 0.0, 1.0, -12.8, -12.8)" width="25.6" xlink:href="#shape1"/>
    </g>
    <g id="shape1" transform="matrix(1.0, 0.0, 0.0, 1.0, 12.8, 12.8)">
      <path d="M9.05 -9.05 Q12.8 -5.3 12.8 0.0 12.8 5.3 9.05 9.05 5.3 12.8 0.0 12.8 -5.3 12.8 -9.05 9.05 -12.8 5.3 -12.8 0.0 -12.8 -5.3 -9.05 -9.05 -5.3 -12.8 0.0 -12.8 5.3 -12.8 9.05 -9.05" fill="url(#gradient0)" fill-rule="evenodd" stroke="none"/>
    </g>
    <radialGradient cx="0" cy="0" gradientTransform="matrix(0.015, 0.0, 0.0, 0.015, 0.0, 0.0)" gradientUnits="userSpaceOnUse" id="gradient0" r="819.2" spreadMethod="pad">
      <stop offset="0.3333333333333333" stop-color="#0d141c" stop-opacity="0.33333334"/>
      <stop offset="1.0" stop-color="#101a24" stop-opacity="0.0"/>
    </radialGradient>
    <g id="shape2" transform="matrix(1.0, 0.0, 0.0, 1.0, -6.45, -8.45)">
      <path d="M9.7 14.15 L9.65 14.2 Q11.75 14.5 13.6 15.55 20.2 19.3 22.85 32.5 19.75 33.6 16.8 34.15 15.2 34.3 14.8 29.7 14.9 31.55 14.35 33.6 L13.7 34.3 11.95 34.5 10.5 33.95 10.05 33.45 Q6.45 29.3 6.45 23.6 L6.5 22.65 Q6.75 17.85 9.7 14.15 M10.85 27.25 Q13.0 32.25 10.5 31.5 9.45 30.85 8.9 29.25 7.5 25.35 8.35 23.8 9.2 22.2 11.0 22.65 14.55 25.6 14.8 29.7 14.55 25.6 11.0 22.65 9.2 22.2 8.35 23.8 7.5 25.35 8.9 29.25 9.45 30.85 10.5 31.5 13.0 32.25 10.85 27.25 M23.0 8.5 Q28.4 8.95 32.3 12.85 35.95 16.5 36.6 21.45 35.05 24.1 33.1 26.2 30.45 11.8 23.0 8.5" fill="#978f3e" fill-rule="evenodd" stroke="none"/>
      <path d="M10.5 33.95 L11.95 34.5 13.7 34.3 14.35 33.6 Q14.9 31.55 14.8 29.7 15.2 34.3 16.8 34.15 19.75 33.6 22.85 32.5 L22.9 32.9 23.75 38.65 21.6 38.75 Q15.45 38.75 11.05 34.5 L10.85 34.3 10.5 33.95 M36.6 21.45 L36.75 23.6 Q36.75 28.55 34.0 32.35 L33.25 27.05 33.1 26.2 Q35.05 24.1 36.6 21.45" fill="#615620" fill-rule="evenodd" stroke="none"/>
      <path d="M11.2 12.55 L11.65 12.1 Q13.75 10.3 16.2 9.4 L17.7 8.95 Q19.1 9.15 20.4 9.7 28.2 13.05 30.8 28.3 L30.85 28.45 29.95 29.1 29.9 29.0 26.75 30.9 26.75 30.95 25.8 31.45 25.75 31.35 Q23.15 17.8 16.45 14.0 14.05 12.65 11.2 12.55" fill="#e49432" fill-rule="evenodd" stroke="none"/>
      <path d="M31.65 34.95 L30.7 35.75 Q29.3 36.8 27.75 37.5 L26.7 37.95 25.8 31.45 26.75 30.95 26.75 30.9 29.9 29.0 29.95 29.1 30.85 28.45 31.65 34.95" fill="#cb731b" fill-rule="evenodd" stroke="none"/>
      <path d="M22.85 32.5 Q20.2 19.3 13.6 15.55 11.75 14.5 9.65 14.2 L9.7 14.15 9.8 14.0 10.05 13.7 10.85 12.85 11.2 12.55 Q14.05 12.65 16.45 14.0 23.15 17.8 25.75 31.35 L23.85 32.15 23.9 32.45 22.9 32.9 22.85 32.5 M17.7 8.95 L20.4 8.5 20.45 8.5 21.6 8.45 21.8 8.45 21.95 8.45 23.0 8.5 Q30.45 11.8 33.1 26.2 L33.25 27.05 32.35 27.75 32.25 27.05 30.8 28.3 Q28.2 13.05 20.4 9.7 19.1 9.15 17.7 8.95" fill="#ffffff" fill-rule="evenodd" stroke="none"/>
      <path d="M34.0 32.35 L34.0 32.4 33.1 33.5 33.1 33.45 32.3 34.3 31.65 34.95 30.85 28.45 30.8 28.3 32.25 27.05 32.35 27.75 33.25 27.05 34.0 32.35 M26.7 37.95 L24.85 38.45 24.7 38.5 24.5 38.55 23.75 38.65 22.9 32.9 23.9 32.45 23.85 32.15 25.75 31.35 25.8 31.45 26.7 37.95" fill="#d8ca7c" fill-rule="evenodd" stroke="none"/>
      <path d="M9.7 14.15 Q6.75 17.85 6.5 22.65 L6.45 23.6 Q6.45 29.3 10.05 33.45 L10.5 33.95 11.95 34.5 13.7 34.3 14.35 33.6 Q14.9 31.55 14.8 29.7 14.55 25.6 11.0 22.65 9.2 22.2 8.35 23.8 7.5 25.35 8.9 29.25 9.45 30.85 10.5 31.5 13.0 32.25 10.85 27.25 M11.2 12.55 L11.65 12.1 Q13.75 10.3 16.2 9.4 L17.7 8.95 20.4 8.5 20.45 8.5 21.6 8.45 21.8 8.45 21.95 8.45 23.0 8.5 Q28.4 8.95 32.3 12.85 35.95 16.5 36.6 21.45 L36.75 23.6 Q36.75 28.55 34.0 32.35 M33.1 33.45 L32.3 34.3 31.65 34.95 30.7 35.75 Q29.3 36.8 27.75 37.5 L26.7 37.95 24.85 38.45 M23.75 38.65 L21.6 38.75 Q15.45 38.75 11.05 34.5 L10.85 34.3 10.5 33.95 M9.7 14.15 L9.8 14.0 10.05 13.7 10.85 12.85" fill="none" stroke="#000000" stroke-linecap="round" stroke-linejoin="round" stroke-opacity="0.3019608" stroke-width="0.05"/>
      <path d="M14.05 10.95 Q16.55 9.9 18.55 10.0 20.5 10.05 20.85 11.25 21.3 12.45 19.85 14.1 18.35 15.75 15.9 16.85 13.5 17.9 11.55 17.85 9.55 17.75 9.1 16.55 8.75 15.3 10.25 13.65 11.7 12.0 14.05 10.95" fill="#fbf1bf" fill-opacity="0.3019608" fill-rule="evenodd" stroke="none"/>
    </g>
    <g id="sprite1" transform="matrix(1.0, 0.0, 0.0, 1.0, 8.2, 16.85)">
      <use height="16.85" transform="matrix(1.0, 0.0, 0.0, 1.0, -8.2, -16.85)" width="16.45" xlink:href="#shape3"/>
    </g>
    <g id="shape3" transform="matrix(1.0, 0.0, 0.0, 1.0, 8.2, 16.85)">
      <path d="M8.1 -9.85 L8.25 -7.35 Q8.2 -5.5 6.5 -4.2 4.75 -2.9 2.2 -1.3 -0.35 0.2 -1.5 0.0 L-2.85 -0.45 -3.3 -0.55 Q-5.4 -1.05 -5.6 -3.35 -5.9 -5.65 -4.1 -8.5 L-2.55 -10.5 Q-1.3 -11.9 0.45 -12.8 2.75 -14.0 4.8 -13.35 5.25 -13.2 5.65 -13.0 L7.2 -11.9 7.6 -11.35 8.0 -10.5 7.9 -10.4 8.1 -9.95 8.0 -9.95 8.0 -9.85 8.1 -9.85 M-5.25 -12.4 L-4.55 -12.5 Q-4.4 -12.2 -4.85 -11.55 L-5.1 -11.1 -6.1 -10.05 Q-6.8 -9.3 -7.45 -8.9 L-8.2 -8.8 Q-8.3 -9.05 -7.8 -9.8 L-6.6 -11.3 -6.4 -11.4 -5.25 -12.4" fill="#000000" fill-rule="evenodd" stroke="none"/>
      <path d="M8.1 -9.95 L7.9 -10.4 8.0 -10.5 8.1 -9.95" fill="#51482f" fill-rule="evenodd" stroke="none"/>
      <path d="M8.1 -9.85 L8.0 -9.85 8.0 -9.95 8.1 -9.95 8.1 -9.85" fill="#54412c" fill-rule="evenodd" stroke="none"/>
      <path d="M8.0 -10.5 L7.6 -11.35 7.2 -11.9 5.65 -13.0 Q5.25 -13.2 4.8 -13.35 2.75 -14.0 0.45 -12.8 -1.3 -11.9 -2.55 -10.5 L-4.1 -8.5 Q-5.9 -5.65 -5.6 -3.35 -5.4 -1.05 -3.3 -0.55 L-2.85 -0.45 -1.5 0.0 Q-0.35 0.2 2.2 -1.3 4.75 -2.9 6.5 -4.2 8.2 -5.5 8.25 -7.35 L8.1 -9.85 M8.1 -9.95 L7.9 -10.4 M8.0 -10.5 L8.1 -9.95 8.1 -9.85 M-5.25 -12.4 L-6.4 -11.4 -6.6 -11.3 -7.8 -9.8 Q-8.3 -9.05 -8.2 -8.8 L-7.45 -8.9 Q-6.8 -9.3 -6.1 -10.05 L-5.1 -11.1 -4.85 -11.55 Q-4.4 -12.2 -4.55 -12.5 L-5.25 -12.4" fill="none" stroke="#322216" stroke-linecap="round" stroke-linejoin="round" stroke-width="0.05"/>
      <path d="M3.3 -15.25 Q2.85 -15.3 2.5 -15.5 2.0 -15.7 2.05 -16.05 L2.05 -16.1 2.55 -16.6 2.6 -16.6 3.8 -16.85 5.0 -16.6 5.45 -16.0 Q5.4 -15.7 4.9 -15.5 L3.7 -15.25 3.55 -15.2 3.3 -15.25 M2.05 -16.1 L2.6 -16.6 2.05 -16.1" fill="#000000" fill-rule="evenodd" stroke="none"/>
      <path d="M3.3 -15.25 Q2.85 -15.3 2.5 -15.5 2.0 -15.7 2.05 -16.05 L2.05 -16.1 2.55 -16.6 2.6 -16.6 3.8 -16.85 5.0 -16.6 5.45 -16.0 Q5.4 -15.7 4.9 -15.5 L3.7 -15.25 3.55 -15.2" fill="none" stroke="#322216" stroke-linecap="round" stroke-linejoin="round" stroke-width="0.05"/>
      <path d="M2.6 -16.6 L2.05 -16.1" fill="none" stroke="#ffffff" stroke-linecap="round" stroke-linejoin="round" stroke-width="0.05"/>
    </g>
    <g id="shape4" transform="matrix(1.0, 0.0, 0.0, 1.0, -18.25, -20.6)">
      <path d="M33.2 22.2 L33.25 22.3 34.3 23.55 34.4 23.8 34.65 24.4 34.5 24.4 34.5 24.5 34.5 27.3 Q34.4 28.4 33.35 30.0 32.2 31.6 29.65 33.0 27.15 34.55 24.25 35.1 23.8 35.35 22.5 34.5 21.25 33.65 20.95 31.85 L20.75 29.85 Q25.9 23.0 33.2 22.2" fill="#684822" fill-rule="evenodd" stroke="none"/>
      <path d="M34.5 24.5 L34.65 24.5 Q34.95 25.25 34.8 27.65 34.75 30.0 32.6 31.65 L27.2 35.35 Q24.0 37.2 22.5 36.95 L20.85 36.4 Q19.15 35.45 18.9 33.1 L18.9 31.45 18.9 30.8 Q19.15 29.5 19.85 28.05 L20.5 26.65 Q22.05 24.15 24.1 22.55 24.95 21.85 25.9 21.5 L31.95 21.35 33.2 22.2 Q25.9 23.0 20.75 29.85 L20.95 31.85 Q21.25 33.65 22.5 34.5 23.8 35.35 24.25 35.1 27.15 34.55 29.65 33.0 32.2 31.6 33.35 30.0 34.4 28.4 34.5 27.3 L34.5 24.5" fill="#402d15" fill-rule="evenodd" stroke="none"/>
      <path d="M28.65 26.15 Q28.7 28.45 29.75 30.05 30.8 31.7 32.25 31.8 33.65 31.95 34.65 30.4 35.55 28.95 35.5 26.7 35.45 24.4 34.4 22.75 33.35 21.15 31.95 21.05 30.55 20.95 29.6 22.4 28.65 23.9 28.65 26.15" fill="url(#gradient1)" fill-rule="evenodd" stroke="none"/>
      <path d="M33.45 22.9 Q34.3 24.2 34.35 26.2 34.4 28.2 33.65 29.75 32.95 31.45 31.85 31.9 30.8 32.15 29.95 30.9 29.15 29.7 29.1 27.8 29.05 25.75 29.75 24.15 30.45 22.45 31.55 22.25 32.6 21.75 33.45 22.9 M31.65 23.3 Q30.8 23.55 30.15 24.85 29.5 26.15 29.65 27.85 29.65 29.5 30.35 30.55 31.0 31.5 31.9 31.25 32.7 31.05 33.3 29.65 33.9 28.3 33.9 26.65 33.75 25.0 33.15 23.95 32.45 23.05 31.65 23.3" fill="#474747" fill-rule="evenodd" stroke="none"/>
      <path d="M31.65 23.3 Q32.45 23.05 33.15 23.95 33.75 25.0 33.9 26.65 33.9 28.3 33.3 29.65 32.7 31.05 31.9 31.25 31.0 31.5 30.35 30.55 29.65 29.5 29.65 27.85 29.5 26.15 30.15 24.85 30.8 23.55 31.65 23.3" fill="#d8ca7c" fill-rule="evenodd" stroke="none"/>
      <path d="M31.65 23.3 Q32.45 23.05 33.15 23.95 33.75 25.0 33.9 26.65 33.9 28.3 33.3 29.65 32.7 31.05 31.9 31.25 31.0 31.5 30.35 30.55 29.65 29.5 29.65 27.85 29.5 26.15 30.15 24.85 30.8 23.55 31.65 23.3 Z" fill="none" stroke="#332300" stroke-linecap="round" stroke-linejoin="round" stroke-opacity="0.5411765" stroke-width="0.25"/>
      <path d="M31.6 24.5 Q32.25 24.95 32.7 26.2 L32.75 26.45 33.05 28.9 Q32.95 30.2 32.45 30.95 31.8 31.7 31.15 31.25 30.55 30.9 30.2 30.15 L30.0 29.65 29.95 29.45 Q29.6 28.35 29.75 27.15 29.8 25.5 30.4 24.8 30.9 24.25 31.6 24.5" fill="#fbf1bf" fill-rule="evenodd" stroke="none"/>
      <path d="M31.35 27.75 L31.35 27.8 31.35 27.75" fill="#1d5bb8" fill-rule="evenodd" stroke="none"/>
      <path d="M31.9 27.15 L31.85 27.05 Q31.55 26.15 31.2 25.95 30.65 25.7 30.3 26.2 29.85 26.6 29.85 27.65 L30.1 29.3 30.1 29.35 30.15 29.45 Q30.4 30.15 30.75 30.45 31.3 30.75 31.7 30.2 L32.15 28.9 31.9 27.15 M31.35 27.75 L31.35 27.8 31.35 27.75" fill="#000000" fill-rule="evenodd" stroke="none"/>
      <path d="M29.95 27.7 L30.2 27.75 30.4 27.5 30.5 27.25 30.35 27.05 30.15 27.05 29.9 27.25 29.85 27.55 29.95 27.7" fill="#ffffff" fill-rule="evenodd" stroke="none"/>
      <path d="M27.45 27.2 Q28.25 29.3 27.5 31.85 26.75 34.5 24.9 36.2 23.0 37.95 21.2 37.7 19.35 37.6 18.65 35.55 17.85 33.5 18.6 30.85 19.35 28.25 21.2 26.5 22.95 24.85 24.75 25.05 26.6 25.3 27.45 27.2" fill="url(#gradient2)" fill-rule="evenodd" stroke="none"/>
      <path d="M22.25 35.1 L24.65 34.95 Q25.95 34.2 26.6 32.5 27.2 30.8 26.8 29.3 26.4 27.65 25.15 27.2 23.95 26.7 22.75 27.5 21.45 28.3 20.85 29.85 20.25 31.45 20.6 33.15 21.1 34.7 22.25 35.1 M21.75 35.7 Q20.35 35.1 19.85 33.25 19.4 31.35 20.15 29.2 20.95 27.25 22.5 26.4 24.0 25.4 25.55 26.05 26.95 26.75 27.45 28.65 28.0 30.4 27.25 32.45 26.45 34.5 24.85 35.55 L21.75 35.7" fill="#474747" fill-rule="evenodd" stroke="none"/>
      <path d="M22.25 35.1 Q21.1 34.7 20.6 33.15 20.25 31.45 20.85 29.85 21.45 28.3 22.75 27.5 23.95 26.7 25.15 27.2 26.4 27.65 26.8 29.3 27.2 30.8 26.6 32.5 25.95 34.2 24.65 34.95 L22.25 35.1" fill="#d8ca7c" fill-rule="evenodd" stroke="none"/>
      <path d="M22.25 35.1 L24.65 34.95 Q25.95 34.2 26.6 32.5 27.2 30.8 26.8 29.3 26.4 27.65 25.15 27.2 23.95 26.7 22.75 27.5 21.45 28.3 20.85 29.85 20.25 31.45 20.6 33.15 21.1 34.7 22.25 35.1 Z" fill="none" stroke="#332300" stroke-linecap="round" stroke-linejoin="round" stroke-opacity="0.5411765" stroke-width="0.25"/>
      <path d="M24.95 27.35 Q26.0 27.3 26.55 28.65 26.95 29.65 26.8 31.05 L26.75 31.25 26.7 31.95 25.8 34.05 Q24.95 35.2 23.85 35.25 22.95 35.15 22.45 34.2 22.05 32.95 22.1 31.55 L22.2 31.3 Q22.45 29.6 23.1 28.5 24.1 27.35 24.95 27.35" fill="#fbf1bf" fill-rule="evenodd" stroke="none"/>
      <path d="M24.45 31.3 L24.5 31.2 24.45 31.35 24.45 31.3" fill="#1d5bb8" fill-rule="evenodd" stroke="none"/>
      <path d="M23.55 31.35 L23.55 31.25 Q23.8 30.05 24.2 29.35 24.9 28.55 25.45 28.6 26.15 28.5 26.5 29.45 26.75 30.15 26.65 31.2 L26.6 31.25 26.6 31.35 26.05 33.0 Q25.45 33.85 24.75 33.85 24.15 33.75 23.75 33.15 23.5 32.35 23.55 31.35 M24.45 31.3 L24.45 31.35 24.5 31.2 24.45 31.3" fill="#000000" fill-rule="evenodd" stroke="none"/>
      <path d="M24.45 30.25 L24.1 30.55 23.75 30.6 Q23.55 30.6 23.5 30.45 L23.6 30.15 23.95 29.9 24.3 29.8 24.5 29.95 24.45 30.25" fill="#ffffff" fill-rule="evenodd" stroke="none"/>
    </g>
    <radialGradient cx="0" cy="0" gradientTransform="matrix(-0.0031, -0.0049, -0.0029, 0.0045, 32.05, 26.35)" gradientUnits="userSpaceOnUse" id="gradient1" r="819.2" spreadMethod="pad">
      <stop offset="0.43137254901960786" stop-color="#610e51"/>
      <stop offset="1.0" stop-color="#402f3b" stop-opacity="0.0"/>
    </radialGradient>
    <radialGradient cx="0" cy="0" gradientTransform="matrix(0.0022, -0.0078, 0.0055, 6.0E-4, 23.0, 31.3)" gradientUnits="userSpaceOnUse" id="gradient2" r="819.2" spreadMethod="pad">
      <stop offset="0.43137254901960786" stop-color="#610e51"/>
      <stop offset="1.0" stop-color="#402f3b" stop-opacity="0.0"/>
    </radialGradient>
    <g id="sprite2" transform="matrix(1.0, 0.0, 0.0, 1.0, 2.05, 10.05)">
      <use height="10.05" transform="matrix(1.0, 0.0, 0.0, 1.0, -2.05, -10.05)" width="4.15" xlink:href="#shape5"/>
    </g>
    <g id="shape5" transform="matrix(1.0, 0.0, 0.0, 1.0, 2.05, 10.05)">
      <path d="M-1.25 -0.7 L-2.0 0.0 Q-2.25 -4.1 -1.05 -7.85 L0.3 -7.6 Q1.35 -7.65 1.85 -9.35 L1.9 -9.25 2.05 -8.2 1.55 -7.45 1.45 -7.45 1.4 -7.4 1.1 -7.35 1.05 -7.35 0.3 -7.6 0.2 -7.5 -0.05 -7.45 Q-1.9 -7.3 -1.25 -0.7" fill="#402d15" fill-rule="evenodd" stroke="none"/>
      <path d="M-1.05 -7.85 L-0.65 -8.95 -0.65 -9.2 0.0 -9.95 1.1 -10.0 1.85 -9.35 Q1.35 -7.65 0.3 -7.6 L-1.05 -7.85" fill="#684822" fill-rule="evenodd" stroke="none"/>
      <path d="M1.05 -7.35 L1.0 -7.3 0.9 -7.3 0.65 -7.35 0.4 -7.4 0.3 -7.4 0.2 -7.5 0.3 -7.6 1.05 -7.35" fill="#bb8b3e" fill-rule="evenodd" stroke="none"/>
      <path d="M-2.0 0.0 Q-2.25 -4.1 -1.05 -7.85 L-0.65 -8.95 -0.65 -9.2 0.0 -9.95 1.1 -10.0 1.85 -9.35 1.9 -9.25 2.05 -8.2 1.55 -7.45 1.45 -7.45 1.4 -7.4 1.1 -7.35 1.05 -7.35 1.0 -7.3 0.9 -7.3 0.65 -7.35 0.4 -7.4 0.3 -7.4 0.2 -7.5 M-0.05 -7.45 Q-1.9 -7.3 -1.25 -0.7" fill="none" stroke="#322216" stroke-linecap="round" stroke-linejoin="round" stroke-width="0.05"/>
      <path d="M0.1 -9.05 L0.3 -9.1 0.45 -9.35 0.35 -9.65 0.05 -9.75 -0.25 -9.7 -0.3 -9.45 -0.2 -9.15 0.1 -9.05" fill="#ffcd59" fill-rule="evenodd" stroke="none"/>
    </g>
    <g id="sprite3" transform="matrix(1.0, 0.0, 0.0, 1.0, 1.75, 9.9)">
      <use height="9.9" transform="matrix(1.0, 0.0, 0.0, 1.0, -1.75, -9.9)" width="3.5" xlink:href="#shape6"/>
    </g>
    <g id="shape6" transform="matrix(1.0, 0.0, 0.0, 1.0, 1.75, 9.9)">
      <path d="M-1.55 -8.55 L-1.5 -8.7 -1.05 -9.55 Q-0.55 -9.95 0.1 -9.9 L1.25 -9.55 1.6 -9.1 Q1.2 -7.45 -1.55 -8.55" fill="#684822" fill-rule="evenodd" stroke="none"/>
      <path d="M1.6 -9.1 L1.75 -8.6 Q1.65 -8.1 1.2 -7.7 L0.7 -7.45 0.6 -7.45 0.3 -7.3 0.0 -7.35 -0.05 -7.35 Q-2.95 -7.1 0.25 0.0 L-0.75 0.0 Q-2.2 -4.05 -1.55 -8.45 L-1.55 -8.55 Q1.2 -7.45 1.6 -9.1" fill="#402d15" fill-rule="evenodd" stroke="none"/>
      <path d="M-1.55 -8.55 L-1.5 -8.7 -1.05 -9.55 Q-0.55 -9.95 0.1 -9.9 L1.25 -9.55 1.6 -9.1 1.75 -8.6 Q1.65 -8.1 1.2 -7.7 L0.7 -7.45 0.6 -7.45 0.3 -7.3 0.0 -7.35 -0.05 -7.35 Q-2.95 -7.1 0.25 0.0 M-0.75 0.0 Q-2.2 -4.05 -1.55 -8.45 L-1.55 -8.55 Z" fill="none" stroke="#322216" stroke-linecap="round" stroke-linejoin="round" stroke-width="0.05"/>
      <path d="M-1.0 -8.8 L-0.8 -8.7 -0.5 -8.8 -0.4 -9.1 -0.45 -9.4 -0.75 -9.5 -0.95 -9.4 -1.15 -9.1 -1.0 -8.8" fill="#ffcd59" fill-rule="evenodd" stroke="none"/>
    </g>
    <g id="shape7" transform="matrix(1.0, 0.0, 0.0, 1.0, -18.95, -19.05)">
      <path d="M33.5 19.05 L33.65 19.15 34.65 20.5 34.0 21.85 33.2 21.25 32.4 21.55 32.65 19.85 32.4 19.6 33.5 19.05 M22.9 26.85 L22.35 28.6 20.15 29.4 19.05 28.65 18.95 26.2 21.6 24.95 22.9 26.85" fill="#48482b" fill-rule="evenodd" stroke="none"/>
      <path d="M18.95 26.2 L19.25 25.1 Q20.35 24.35 21.4 23.55 L21.5 23.45 21.45 24.7 21.6 24.95 18.95 26.2 M31.55 19.1 L33.5 19.05 32.4 19.6 31.5 19.15 31.55 19.1" fill="#bdbd53" fill-rule="evenodd" stroke="none"/>
      <path d="M22.65 22.75 L26.55 20.25 30.05 19.5 30.8 19.95 30.85 20.45 23.9 23.9 22.65 22.75" fill="#f2cd4f" fill-rule="evenodd" stroke="none"/>
      <path d="M21.7 23.2 L22.3 22.35 22.65 22.75 23.9 23.9 21.6 24.95 21.45 24.7 21.5 23.45 21.7 23.2 M30.05 19.5 L29.85 19.25 31.3 19.2 31.45 19.1 31.5 19.15 32.4 19.6 30.85 20.45 30.8 19.95 30.05 19.5" fill="#ffffff" fill-rule="evenodd" stroke="none"/>
      <path d="M21.4 23.55 L21.7 23.2 21.5 23.45 21.4 23.55" fill="#ddceac" fill-rule="evenodd" stroke="none"/>
      <path d="M32.4 21.55 L30.85 22.5 30.85 20.45 32.4 19.6 32.65 19.85 32.4 21.55 M24.5 25.95 L22.9 26.85 21.6 24.95 23.9 23.9 24.5 25.95" fill="#c9a247" fill-rule="evenodd" stroke="none"/>
      <path d="M30.85 22.5 L24.5 25.95 23.9 23.9 30.85 20.45 30.85 22.5" fill="#883d15" fill-rule="evenodd" stroke="none"/>
      <path d="M31.45 19.1 L31.55 19.1 31.5 19.15 31.45 19.1" fill="#f5eccb" fill-rule="evenodd" stroke="none"/>
      <path d="M31.3 19.2 L31.3 19.15 31.45 19.1 31.3 19.2" fill="#2d7171" fill-rule="evenodd" stroke="none"/>
      <path d="M33.5 19.05 L33.65 19.15 34.65 20.5 34.0 21.85 33.2 21.25 32.4 21.55 M22.9 26.85 L22.35 28.6 20.15 29.4 19.05 28.65 18.95 26.2 19.25 25.1 Q20.35 24.35 21.4 23.55 M31.3 19.15 L31.45 19.1 31.55 19.1 33.5 19.05 M31.3 19.2 L31.45 19.1 M23.9 23.9 L24.5 25.95 M21.5 23.45 L21.4 23.55 M23.9 23.9 L30.85 20.45" fill="none" stroke="#332216" stroke-linecap="round" stroke-linejoin="round" stroke-opacity="0.3019608" stroke-width="0.05"/>
    </g>
  </defs>
</svg>
