<?xml version="1.0" encoding="UTF-8" standalone="no"?>
<svg xmlns:xlink="http://www.w3.org/1999/xlink" height="440.0px" width="440.0px" xmlns="http://www.w3.org/2000/svg">
  <g transform="matrix(10.0, 0.0, 0.0, 10.0, 0.0, 0.0)">
    <use height="44.0" transform="matrix(1.0, 0.0, 0.0, 1.0, 0.0, 0.0)" width="44.0" xlink:href="#shape0"/>
    <use height="65.9" transform="matrix(0.6085, 0.0351, -0.0351, 0.6085, 5.5881, 1.432)" width="57.55" xlink:href="#sprite0"/>
  </g>
  <defs>
    <g id="shape0" transform="matrix(1.0, 0.0, 0.0, 1.0, 0.0, 0.0)">
      <path d="M44.0 44.0 L0.0 44.0 0.0 0.0 44.0 0.0 44.0 44.0" fill="#43adca" fill-opacity="0.0" fill-rule="evenodd" stroke="none"/>
    </g>
    <g id="sprite0" transform="matrix(1.0, 0.0, 0.0, 1.0, 0.7, 0.4)">
      <use height="65.9" transform="matrix(1.0, 0.0, 0.0, 1.0, -0.7, -0.4)" width="57.55" xlink:href="#shape1"/>
    </g>
    <g id="shape1" transform="matrix(1.0, 0.0, 0.0, 1.0, 0.7, 0.4)">
      <path d="M31.25 1.55 L35.9 5.3 34.75 7.6 36.95 7.85 37.35 8.6 Q36.95 8.65 36.9 9.15 36.75 9.2 37.1 9.6 L37.25 9.65 37.9 9.75 38.05 10.2 36.2 11.9 36.05 11.25 34.05 9.75 30.85 12.1 29.15 11.55 27.5 15.55 28.85 17.5 26.75 19.95 25.15 20.4 24.15 23.0 14.3 24.2 14.4 23.65 Q15.0 21.5 15.75 19.9 L16.85 17.5 21.3 16.5 18.1 15.25 18.5 14.45 Q19.05 13.2 19.65 12.3 23.5 6.1 28.35 3.05 29.65 2.0 31.25 1.55 M47.85 4.25 L50.2 7.3 43.55 18.05 43.5 18.1 43.45 18.2 34.75 31.15 33.5 32.5 33.35 32.6 33.45 32.5 34.1 30.45 34.05 30.6 33.25 30.65 Q42.1 22.15 45.85 9.9 L46.2 9.65 46.15 9.4 47.45 7.85 49.05 8.3 48.05 7.1 48.7 5.7 48.4 5.2 47.85 4.25 M48.4 15.45 L55.05 20.95 Q54.7 21.45 54.55 22.5 L52.7 27.0 52.65 27.05 51.35 29.4 Q49.2 32.5 46.2 35.7 45.65 35.95 45.3 36.65 L43.3 33.8 43.3 38.35 Q41.2 39.85 39.0 41.7 L38.6 41.9 Q38.1 42.15 37.75 42.55 L36.2 29.6 39.3 29.85 40.15 29.1 40.0 27.05 42.95 27.1 43.0 23.7 45.3 21.95 46.85 22.85 47.35 20.4 47.35 20.25 47.4 19.95 48.4 15.45 M33.5 32.5 L33.45 32.5 33.5 32.5 M29.4 32.1 L26.25 36.3 25.15 35.6 29.4 32.1 M46.45 20.1 L46.65 19.95 46.7 19.95 46.95 20.0 47.1 20.25 Q46.7 20.25 46.55 20.45 L46.3 20.1 46.45 20.1 M41.8 31.4 L42.15 30.7 41.35 29.6 40.05 31.05 41.8 31.4 M38.05 8.75 L38.05 9.0 37.65 9.4 Q37.55 9.15 37.5 9.4 L37.45 9.1 37.4 8.9 37.5 9.0 Q37.55 8.7 37.75 8.65 L37.8 8.65 Q37.95 8.55 38.05 8.75 M27.2 21.5 Q26.95 21.3 27.05 21.2 L27.15 21.2 Q27.15 20.9 27.4 20.9 L27.45 20.8 27.5 20.9 27.65 21.05 27.7 21.2 27.2 21.5 M38.7 28.25 L38.8 28.25 38.85 28.4 38.85 28.6 38.4 28.95 38.25 28.65 38.3 28.6 38.7 28.25" fill="#adbac6" fill-rule="evenodd" stroke="none"/>
      <path d="M35.9 5.3 L39.85 8.45 38.05 10.2 37.9 9.75 Q37.9 9.45 38.25 9.4 38.15 9.2 38.45 9.35 L38.5 8.65 Q38.4 8.2 37.75 8.35 37.5 8.2 37.35 8.6 L36.95 7.85 34.75 7.6 35.9 5.3 M36.2 11.9 Q31.2 16.95 27.7 22.25 27.45 22.3 27.5 22.6 L24.35 23.0 24.15 23.0 25.15 20.4 26.75 19.95 28.85 17.5 27.5 15.55 29.15 11.55 30.85 12.1 34.05 9.75 36.05 11.25 36.2 11.9 M27.3 23.75 Q31.1 18.5 34.25 15.0 37.4 11.4 38.3 10.65 L40.1 8.9 43.9 5.2 44.75 6.45 Q27.05 26.2 26.75 25.7 L27.3 23.75 M44.0 5.1 L45.5 3.6 46.8 3.75 45.35 5.6 44.0 5.1 M36.2 29.45 L36.35 29.3 36.45 29.15 36.5 29.15 Q41.8 22.8 46.65 14.0 L48.4 15.45 47.4 19.95 47.2 19.65 Q46.95 19.35 46.7 19.5 46.1 19.4 46.05 20.1 45.85 20.3 46.15 20.55 L46.35 20.75 47.15 20.55 Q47.1 20.2 47.35 20.4 L46.85 22.85 45.3 21.95 43.0 23.7 42.95 27.1 40.0 27.05 40.15 29.1 39.3 29.85 36.2 29.6 36.2 29.45 M44.0 8.35 L44.0 8.05 42.2 10.05 44.5 7.4 44.15 7.95 44.1 7.95 44.0 8.35 M42.7 11.5 L42.7 11.55 42.65 11.55 42.65 11.5 42.7 11.5 M41.8 31.4 L40.05 31.05 41.35 29.6 42.15 30.7 41.8 31.4 M27.95 21.6 Q27.75 21.3 28.1 21.45 L28.1 20.9 Q27.95 20.45 27.25 20.45 26.65 20.4 26.5 21.25 L26.7 21.7 27.05 21.85 27.95 21.6 M37.8 28.6 Q37.65 28.8 37.9 29.1 L38.2 29.1 39.0 29.05 39.25 28.8 39.35 28.3 Q39.2 27.9 38.6 27.85 37.95 27.8 37.8 28.6" fill="#72899c" fill-rule="evenodd" stroke="none"/>
      <path d="M39.0 41.7 Q41.2 39.85 43.3 38.35 L43.3 33.8 45.3 36.65 Q45.65 35.95 46.2 35.7 L45.65 39.1 42.5 40.05 42.6 42.3 42.6 42.45 42.1 42.75 42.6 42.3 42.1 42.75 41.1 43.3 39.0 41.7 M52.7 27.0 L54.55 22.5 55.6 23.95 54.2 27.0 52.7 27.0 M52.45 29.35 L52.45 30.7 51.15 31.15 51.85 29.3 52.45 29.35 M20.15 7.05 L22.3 5.2 23.75 5.55 23.5 3.85 27.3 2.05 28.35 3.05 Q23.5 6.1 19.65 12.3 L18.25 11.8 18.85 9.9 19.55 7.55 20.35 7.8 20.4 7.8 20.4 7.75 20.15 7.05 M14.0 17.95 L13.65 16.0 16.05 14.3 17.0 13.55 18.5 14.45 18.1 15.25 21.3 16.5 16.85 17.5 15.75 19.9 14.2 19.4 14.0 17.95" fill="#e7e7de" fill-rule="evenodd" stroke="none"/>
      <path d="M31.5 -0.3 L31.25 1.55 Q29.65 2.0 28.35 3.05 L27.3 2.05 23.5 3.85 23.75 5.55 22.3 5.2 20.15 7.05 20.05 6.65 Q24.4 1.9 29.4 0.0 L31.5 -0.4 31.5 -0.3 29.4 0.0 31.5 -0.3 M55.05 20.95 L56.85 19.95 56.6 22.15 56.65 22.2 56.6 22.6 55.55 26.25 Q54.4 29.3 52.45 32.7 L51.4 32.5 45.65 39.1 43.65 41.4 42.6 42.3 42.5 40.05 45.65 39.1 46.2 35.7 Q49.2 32.5 51.35 29.4 L52.65 27.05 52.7 27.0 54.2 27.0 55.6 23.95 54.55 22.5 Q54.7 21.45 55.05 20.95 M38.6 41.9 L39.0 41.7 41.1 43.3 42.1 42.75 39.35 45.1 38.6 41.9 M56.6 22.6 L56.6 22.15 56.6 22.6 M52.45 29.35 L51.85 29.3 51.15 31.15 52.45 30.7 52.45 29.35 M18.85 9.9 L18.25 11.8 19.65 12.3 Q19.05 13.2 18.5 14.45 L17.0 13.55 16.05 14.3 18.85 9.9 M11.55 24.5 L14.0 17.95 14.2 19.4 15.75 19.9 Q15.0 21.5 14.4 23.65 L14.3 24.2 11.55 24.5" fill="#ffffff" fill-rule="evenodd" stroke="none"/>
      <path d="M25.55 26.35 L27.3 23.75 26.75 25.7 Q27.05 26.2 44.75 6.45 L43.9 5.2 43.8 5.0 44.0 5.1 45.35 5.6 46.8 3.75 47.45 4.0 47.35 4.4 45.9 6.5 45.15 6.1 45.6 6.8 44.7 7.95 44.15 7.95 44.5 7.4 42.2 10.05 44.0 8.05 44.0 8.35 43.7 9.1 Q31.3 22.5 27.05 27.55 L25.55 26.35 M48.4 5.2 L48.7 5.7 48.05 7.1 49.05 8.3 47.45 7.85 46.15 9.4 45.95 8.55 47.0 7.3 47.7 7.45 47.2 6.95 48.4 5.2 M45.85 9.9 Q42.1 22.15 33.25 30.65 L34.05 30.6 34.1 30.45 33.45 32.5 30.8 30.45 32.05 31.35 44.4 10.9 45.6 10.0 45.85 9.9 M33.5 32.5 L34.75 31.15 33.55 32.55 33.5 32.5 M47.35 20.4 Q47.1 20.2 47.15 20.55 L46.35 20.75 46.15 20.55 Q45.85 20.3 46.05 20.1 46.1 19.4 46.7 19.5 46.95 19.35 47.2 19.65 L47.4 19.95 47.35 20.25 47.35 20.4 M46.45 20.1 L46.3 20.1 46.55 20.45 Q46.7 20.25 47.1 20.25 L46.95 20.0 46.7 19.95 46.65 19.95 46.45 20.1 M38.05 8.75 Q37.95 8.55 37.8 8.65 L37.75 8.65 Q37.55 8.7 37.5 9.0 L37.4 8.9 37.45 9.1 37.5 9.4 Q37.55 9.15 37.65 9.4 L38.05 9.0 38.05 8.75 M37.35 8.6 Q37.5 8.2 37.75 8.35 38.4 8.2 38.5 8.65 L38.45 9.35 Q38.15 9.2 38.25 9.4 37.9 9.45 37.9 9.75 L37.25 9.65 37.1 9.6 Q36.75 9.2 36.9 9.15 36.95 8.65 37.35 8.6 M27.95 21.6 L27.05 21.85 26.7 21.7 26.5 21.25 Q26.65 20.4 27.25 20.45 27.95 20.45 28.1 20.9 L28.1 21.45 Q27.75 21.3 27.95 21.6 M27.2 21.5 L27.7 21.2 27.65 21.05 27.5 20.9 27.45 20.8 27.4 20.9 Q27.15 20.9 27.15 21.2 L27.05 21.2 Q26.95 21.3 27.2 21.5 M37.8 28.6 Q37.95 27.8 38.6 27.85 39.2 27.9 39.35 28.3 L39.25 28.8 39.0 29.05 38.2 29.1 37.9 29.1 Q37.65 28.8 37.8 28.6 M38.7 28.25 L38.3 28.6 38.25 28.65 38.4 28.95 38.85 28.6 38.85 28.4 38.8 28.25 38.7 28.25" fill="#575d60" fill-rule="evenodd" stroke="none"/>
      <path d="M45.95 8.55 L46.15 9.4 46.2 9.65 45.85 9.9 45.6 10.0 44.4 10.9 42.4 12.4 45.8 7.85 45.95 8.55" fill="#ffa669" fill-rule="evenodd" stroke="none"/>
      <path d="M44.15 7.95 L44.7 7.95 45.8 7.85 42.4 12.4 42.2 12.55 42.25 12.4 42.65 11.55 42.7 11.55 42.7 11.5 42.7 11.45 42.7 11.5 43.7 9.1 44.0 8.35 44.1 7.95 44.15 7.95" fill="#8a644a" fill-rule="evenodd" stroke="none"/>
      <path d="M31.5 -0.3 L31.55 -0.3 40.15 8.15 44.85 3.55 45.55 2.8 Q49.8 3.05 50.65 7.15 L47.0 13.45 56.85 19.9 56.85 19.95 55.05 20.95 48.4 15.45 46.65 14.0 Q41.8 22.8 36.5 29.15 L36.45 29.15 36.35 29.3 36.2 29.45 34.75 31.15 43.45 18.2 43.5 18.1 43.55 18.05 50.2 7.3 47.85 4.25 47.1 5.05 47.35 4.4 47.45 4.0 46.8 3.75 45.5 3.6 44.0 5.1 43.8 5.0 43.9 5.2 40.1 8.9 38.3 10.65 Q37.4 11.4 34.25 15.0 31.1 18.5 27.3 23.75 L25.55 26.35 25.2 26.05 27.5 22.6 Q27.45 22.3 27.7 22.25 31.2 16.95 36.2 11.9 L38.05 10.2 39.85 8.45 35.9 5.3 31.25 1.55 31.5 -0.3" fill="#b4ebeb" fill-rule="evenodd" stroke="none"/>
      <path d="M47.35 4.4 L47.1 5.05 47.85 4.25 48.4 5.2 47.2 6.95 47.7 7.45 47.0 7.3 45.95 8.55 45.8 7.85 44.7 7.95 45.6 6.8 45.15 6.1 45.9 6.5 47.35 4.4 M27.95 28.25 L27.6 28.0 27.55 27.95 27.35 27.75 27.0 27.6 27.05 27.55 27.35 27.75 27.05 27.55 Q31.3 22.5 43.7 9.1 L42.7 11.5 42.65 11.5 42.65 11.55 42.25 12.4 42.2 12.55 42.4 12.4 44.4 10.9 32.05 31.35 30.8 30.45 27.95 28.25 M42.7 11.5 L42.7 11.45 42.7 11.5" fill="#27292b" fill-rule="evenodd" stroke="none"/>
      <path d="M30.8 30.45 L29.8 31.8 29.4 32.1 25.15 35.6 23.35 34.15 27.95 28.25 30.8 30.45" fill="url(#gradient0)" fill-rule="evenodd" stroke="none"/>
      <path d="M37.75 42.55 Q38.1 42.15 38.6 41.9 L39.35 45.1 42.1 42.75 42.6 42.45 42.6 42.3 43.65 41.4 45.65 39.1 51.4 32.5 51.95 33.65 Q50.2 36.45 47.85 39.35 L47.15 40.35 38.7 48.6 37.75 42.55 M19.55 7.55 L18.85 9.9 16.05 14.3 13.65 16.0 14.0 17.95 11.55 24.5 7.85 24.9 Q8.65 22.9 9.6 21.3 11.95 16.55 14.4 12.95 L19.0 7.35 19.55 7.55" fill="#d4d4d4" fill-rule="evenodd" stroke="none"/>
      <path d="M40.15 8.15 L31.55 -0.3 31.5 -0.3 M39.85 8.45 L38.05 10.2 M27.5 22.6 L25.2 26.05 25.55 26.35 M34.75 31.15 L36.2 29.45 36.35 29.3 36.45 29.15 36.5 29.15 M56.85 19.95 L56.85 19.9 47.0 13.45 50.65 7.15 Q49.8 3.05 45.55 2.8 L44.85 3.55 M29.4 0.0 L31.5 -0.3 M48.4 5.2 L47.2 6.95 47.7 7.45 47.0 7.3 45.95 8.55 46.15 9.4 46.2 9.65 45.85 9.9 M33.45 32.5 L33.5 32.5 M34.75 31.15 L33.55 32.55 33.5 32.5 M33.45 32.5 L30.8 30.45 29.8 31.8 M29.4 32.1 L26.25 36.3 25.15 35.6 23.35 34.15 27.95 28.25 27.6 28.0 27.55 27.95 27.35 27.75 27.0 27.6 27.05 27.55 25.55 26.35 M44.15 7.95 L44.7 7.95 45.6 6.8 45.15 6.1 45.9 6.5 47.35 4.4 M44.15 7.95 L44.1 7.95 44.0 8.35 43.7 9.1 42.7 11.5 42.7 11.55 42.65 11.55 42.25 12.4 42.2 12.55 42.4 12.4 44.4 10.9 32.05 31.35 30.8 30.45 27.95 28.25 M45.8 7.85 L44.7 7.95 M45.95 8.55 L45.8 7.85 M44.4 10.9 L45.6 10.0 45.85 9.9 M36.2 29.6 L37.75 42.55 M56.85 19.95 L56.6 22.15 56.65 22.2 56.6 22.6 55.55 26.25 Q54.4 29.3 52.45 32.7 L51.4 32.5 51.95 33.65 Q50.2 36.45 47.85 39.35 L47.15 40.35 38.7 48.6 37.75 42.55 M56.6 22.15 L56.6 22.6 M42.1 42.75 L42.6 42.3 M20.15 7.05 L20.4 7.75 20.4 7.8 20.35 7.8 19.55 7.55 19.0 7.35 14.4 12.95 Q11.95 16.55 9.6 21.3 8.65 22.9 7.85 24.9 L11.55 24.5 14.3 24.2 M20.35 7.8 L20.4 7.75 M24.35 23.0 L27.5 22.6 M20.15 7.05 L20.05 6.65 Q24.4 1.9 29.4 0.0 M36.2 29.45 L36.2 29.6 M27.35 27.75 L27.05 27.55 Q31.3 22.5 43.7 9.1" fill="none" stroke="#000000" stroke-linecap="round" stroke-linejoin="round" stroke-opacity="0.3019608" stroke-width="0.05"/>
      <path d="M30.75 1.55 L39.35 8.45 37.55 10.2 35.7 11.9 Q30.7 16.95 27.2 22.25 26.95 22.3 27.0 22.6 L13.8 24.2 13.9 23.65 Q14.5 21.5 15.25 19.9 L16.35 17.5 20.8 16.5 17.6 15.25 18.0 14.45 19.15 12.3 Q23.0 6.1 27.85 3.05 29.15 2.0 30.75 1.55" fill="url(#gradient1)" fill-rule="evenodd" stroke="none"/>
      <path d="M52.7 26.75 L52.65 26.8 51.35 29.15 Q49.2 32.25 46.2 35.45 45.65 35.7 45.3 36.4 L43.3 33.55 43.3 38.1 Q41.2 39.6 39.0 41.45 38.25 41.75 37.75 42.3 L36.2 29.35 36.2 29.2 36.35 29.05 36.45 28.9 36.5 28.9 Q41.8 22.55 46.65 13.75 L55.05 20.7 Q54.7 21.2 54.55 22.25 L52.7 26.75" fill="url(#gradient2)" fill-rule="evenodd" stroke="none"/>
      <path d="M27.15 33.65 L26.8 33.95 Q27.0 32.85 24.95 32.5 L24.85 33.0 Q14.6 44.5 22.9 32.95 L24.4 31.05 24.8 31.5 24.95 31.6 25.1 31.7 25.1 31.65 25.1 31.75 27.8 34.05 28.35 34.55 27.15 36.05 Q18.15 46.65 27.15 33.65" fill="#d8d1c7" fill-rule="evenodd" stroke="none"/>
      <path d="M18.35 40.1 L18.35 40.05 17.7 39.65 19.75 36.9 Q17.2 40.65 20.75 38.7 L19.35 40.55 18.35 40.1 M16.05 44.25 L17.45 42.4 17.45 42.8 16.3 44.25 16.05 44.25 M12.6 48.7 L14.1 46.75 17.55 47.1 17.65 47.0 17.15 48.25 17.55 47.1 17.15 48.25 15.3 50.15 Q14.35 50.15 13.65 49.65 L12.6 48.7 M17.65 46.95 L17.55 47.05 17.55 47.0 17.7 46.75 17.65 46.95 M21.3 42.35 L20.9 41.7 22.0 39.9 Q21.55 42.85 23.9 40.2 L21.85 42.85 21.3 42.35 M13.6 52.2 L14.75 50.7 14.8 50.7 13.6 52.2 M13.4 52.45 L13.5 52.4 12.15 54.0 Q11.35 55.0 11.1 55.85 9.4 56.15 7.9 54.95 L7.85 54.9 10.4 51.6 13.4 52.45 M8.9 58.2 L8.0 59.3 7.6 59.8 7.35 58.95 7.25 58.7 8.85 58.25 8.9 58.2 M0.2 63.5 L-0.7 61.25 0.95 60.85 2.6 58.1 2.7 58.35 2.8 58.4 3.5 59.55 2.0 61.4 0.2 63.5 M5.2 56.65 L5.3 56.75 5.25 56.8 5.2 56.65" fill="#857354" fill-rule="evenodd" stroke="none"/>
      <path d="M20.75 38.7 Q17.2 40.65 19.75 36.9 L22.9 32.95 Q14.6 44.5 24.85 33.0 L20.75 38.7 M15.2 44.1 L16.05 44.25 16.3 44.25 17.45 44.8 17.55 47.0 17.55 47.05 17.55 47.1 17.55 47.05 17.55 47.1 14.1 46.75 13.8 45.65 15.2 44.1 M12.05 48.1 L12.15 48.15 12.1 48.1 Q12.65 48.35 12.4 48.3 L12.15 48.15 12.6 48.7 13.65 49.65 Q14.35 50.15 15.3 50.15 L14.8 50.7 14.8 50.65 14.75 50.7 13.6 52.2 13.4 52.45 10.4 51.6 9.7 51.4 9.75 51.3 9.7 51.35 10.9 49.55 12.05 48.15 12.05 48.1 M12.1 48.1 L12.15 48.15 12.05 48.15 12.15 48.15 12.1 48.1 M27.15 33.65 Q18.15 46.65 27.15 36.05 L23.9 40.2 Q21.55 42.85 22.0 39.9 L26.6 34.35 26.7 34.2 27.15 33.65 M11.1 55.85 L8.9 58.2 8.85 58.25 Q7.25 58.55 5.9 57.4 L5.3 56.75 7.15 54.35 7.85 54.9 7.9 54.95 Q9.4 56.15 11.1 55.85 M5.25 56.85 L5.2 56.65 5.25 56.8 5.25 56.85" fill="#beb4a3" fill-rule="evenodd" stroke="none"/>
      <path d="M7.4 60.1 L7.45 60.2 7.35 60.25 6.45 60.3 5.1 60.05 4.95 59.85 4.3 59.0 4.05 58.35 4.15 58.25 7.4 60.1 7.35 60.25 7.4 60.1 M7.7 61.0 L6.0 64.1 6.4 65.5 3.8 65.35 4.8 63.4 6.35 60.9 7.7 61.0" fill="#30291f" fill-rule="evenodd" stroke="none"/>
      <path d="M17.65 47.0 L17.55 47.1 17.55 47.05 17.65 46.95 17.65 47.0" fill="#776955" fill-rule="evenodd" stroke="none"/>
      <path d="M21.3 42.35 L18.35 40.1 19.35 40.55 20.75 38.7 Q20.9 39.75 22.0 39.9 L20.9 41.7 21.3 42.35 M7.45 60.2 L7.5 60.15 7.55 60.2 7.45 60.2 M3.8 65.35 Q1.65 65.65 0.2 63.5 L2.0 61.4 Q1.95 63.85 4.8 63.4 L3.8 65.35" fill="#5a4e39" fill-rule="evenodd" stroke="none"/>
      <path d="M7.45 60.2 L7.45 60.3 7.7 61.0 6.35 60.9 6.45 60.3 7.35 60.25 7.45 60.2 M2.75 58.35 L4.0 58.2 4.05 58.35 4.3 59.0 2.8 58.4 2.7 58.35 2.75 58.35 2.8 58.4 2.75 58.35" fill="#7c6d58" fill-rule="evenodd" stroke="none"/>
      <path d="M24.85 33.0 L24.95 32.5 Q27.0 32.85 26.8 33.95 L27.15 33.65 26.7 34.2 26.6 34.35 22.0 39.9 Q20.9 39.75 20.75 38.7 L24.85 33.0" fill="#756956" fill-rule="evenodd" stroke="none"/>
      <path d="M16.3 44.25 L17.45 42.8 17.45 44.8 16.3 44.25 M7.6 59.8 L7.4 60.1 4.15 58.25 4.55 57.65 5.4 58.0 5.25 56.85 5.25 56.8 5.3 56.75 5.9 57.4 Q7.25 58.55 8.85 58.25 L7.25 58.7 7.35 58.95 7.6 59.8" fill="#806e51" fill-rule="evenodd" stroke="none"/>
      <path d="M17.45 44.8 L18.8 45.55 18.0 46.55 17.65 46.95 17.7 46.75 17.55 47.0 17.45 44.8" fill="#524535" fill-rule="evenodd" stroke="none"/>
      <path d="M17.1 41.7 L17.4 41.9 17.45 42.4 16.05 44.25 15.2 44.1 Q15.25 42.9 17.1 41.7 M12.6 48.7 L12.15 48.15 12.4 48.3 Q12.65 48.35 12.1 48.1 L12.15 48.15 12.05 48.1 Q11.95 46.75 13.8 45.65 L14.1 46.75 12.6 48.7 M4.55 57.65 L4.7 57.45 5.25 56.85 5.4 58.0 4.55 57.65 M7.15 54.35 L6.85 54.6 Q8.0 51.95 9.7 51.35 L9.75 51.3 9.7 51.4 10.4 51.6 7.85 54.9 7.15 54.35" fill="#ff9e00" fill-rule="evenodd" stroke="none"/>
      <path d="M18.35 40.05 L18.35 40.1 21.3 42.35 20.9 42.85 17.6 41.05 20.9 42.85 18.8 45.55 17.45 44.8 17.45 42.8 17.45 42.4 17.4 41.9 17.1 41.7 17.6 41.05 18.35 40.05 M17.7 42.05 L17.45 42.4 17.7 42.05" fill="#4d4132" fill-rule="evenodd" stroke="none"/>
      <path d="M3.5 59.55 L4.35 60.95 4.95 59.85 5.1 60.05 6.45 60.3 6.35 60.9 4.8 63.4 Q1.95 63.85 2.0 61.4 L3.5 59.55" fill="#cc9900" fill-rule="evenodd" stroke="none"/>
      <path d="M4.3 59.0 L4.95 59.85 4.35 60.95 3.5 59.55 2.8 58.4 4.3 59.0" fill="#ffff99" fill-rule="evenodd" stroke="none"/>
      <path d="M18.35 40.1 L18.35 40.05 17.6 41.05 20.9 42.85 21.3 42.35 18.35 40.1 M19.75 36.9 L17.7 39.65 18.35 40.05 M17.4 41.9 L17.1 41.7 Q15.25 42.9 15.2 44.1 L16.05 44.25 16.3 44.25 M17.45 42.4 L17.7 42.05 M17.1 41.7 L17.6 41.05 M12.05 48.1 L12.15 48.15 12.1 48.1 Q12.65 48.35 12.4 48.3 L12.15 48.15 12.6 48.7 M13.8 45.65 Q11.95 46.75 12.05 48.1 L12.05 48.15 12.15 48.15 12.1 48.1 M17.45 44.8 L18.8 45.55 20.9 42.85 M17.45 44.8 L16.3 44.25 M17.55 47.1 L17.65 47.0 17.65 46.95 17.55 47.05 17.55 47.1 17.15 48.25 17.65 47.0 18.0 46.55 17.65 46.95 17.7 46.75 17.55 47.0 M18.0 46.55 L18.8 45.55 M13.8 45.65 L15.2 44.1 M27.15 36.05 L28.35 34.55 27.8 34.05 M24.95 31.6 L24.8 31.5 24.4 31.05 22.9 32.95 M23.9 40.2 L27.15 36.05 M23.9 40.2 L21.85 42.85 21.3 42.35 M19.75 36.9 L22.9 32.95 M14.75 50.7 L14.8 50.65 14.8 50.7 15.3 50.15 Q14.35 50.15 13.65 49.65 L12.6 48.7 M13.6 52.2 L14.75 50.7 14.8 50.7 M13.5 52.4 L12.15 54.0 Q11.35 55.0 11.1 55.85 L8.9 58.2 8.0 59.3 M7.55 60.2 L7.45 60.2 7.45 60.3 M6.0 64.1 L6.4 65.5 3.8 65.35 Q1.65 65.65 0.2 63.5 L-0.7 61.25 M2.6 58.1 L2.75 58.35 M4.7 57.45 L5.25 56.85 M5.3 56.75 L7.15 54.35 6.85 54.6 Q8.0 51.95 9.7 51.35 L9.75 51.3 M10.9 49.55 L12.05 48.15 M7.85 54.9 L7.9 54.95 Q9.4 56.15 11.1 55.85 M7.85 54.9 L7.15 54.35 M2.7 58.35 L2.8 58.4 2.75 58.35 M2.7 58.35 L2.6 58.1 M4.95 59.85 L4.3 59.0 2.8 58.4 3.5 59.55 M4.95 59.85 L5.1 60.05 6.45 60.3 7.35 60.25 7.4 60.1 4.15 58.25 M4.05 58.35 L4.3 59.0 M2.0 61.4 L3.5 59.55 M7.25 58.7 L7.35 58.95 M5.25 56.8 L5.3 56.75 M5.25 56.8 L5.25 56.85 M7.35 60.25 L7.45 60.2 M6.35 60.9 L6.45 60.3 M3.8 65.35 L4.8 63.4 6.35 60.9 M2.0 61.4 L0.2 63.5 M17.15 48.25 L15.3 50.15" fill="none" stroke="#000000" stroke-linecap="round" stroke-linejoin="round" stroke-opacity="0.3019608" stroke-width="0.05"/>
    </g>
    <linearGradient gradientTransform="matrix(-0.0023, 0.0028, -0.0035, -0.0028, 27.05, 31.9)" gradientUnits="userSpaceOnUse" id="gradient0" spreadMethod="pad" x1="-819.2" x2="819.2">
      <stop offset="0.0" stop-color="#222426"/>
      <stop offset="1.0" stop-color="#e8f7ff"/>
    </linearGradient>
    <linearGradient gradientTransform="matrix(-0.0124, -0.0125, 0.0098, -0.0097, 32.65, 16.7)" gradientUnits="userSpaceOnUse" id="gradient1" spreadMethod="pad" x1="-819.2" x2="819.2">
      <stop offset="0.0" stop-color="#222426"/>
      <stop offset="1.0" stop-color="#000000" stop-opacity="0.0"/>
    </linearGradient>
    <linearGradient gradientTransform="matrix(0.0103, 0.0052, -0.0079, 0.0155, 42.7, 26.75)" gradientUnits="userSpaceOnUse" id="gradient2" spreadMethod="pad" x1="-819.2" x2="819.2">
      <stop offset="0.0" stop-color="#222426"/>
      <stop offset="1.0" stop-color="#000000" stop-opacity="0.0"/>
    </linearGradient>
  </defs>
</svg>
