<?xml version="1.0" encoding="UTF-8" standalone="no"?>
<svg xmlns:xlink="http://www.w3.org/1999/xlink" height="440.0px" width="440.0px" xmlns="http://www.w3.org/2000/svg">
  <g transform="matrix(10.0, 0.0, 0.0, 10.0, 0.0, 0.0)">
    <use height="44.0" transform="matrix(1.0, 0.0, 0.0, 1.0, 0.0, 0.0)" width="44.0" xlink:href="#shape0"/>
  </g>
  <defs>
    <g id="shape0" transform="matrix(1.0, 0.0, 0.0, 1.0, 0.0, 0.0)">
      <path d="M44.0 44.0 L0.0 44.0 0.0 0.0 44.0 0.0 44.0 44.0" fill="#43adca" fill-opacity="0.0" fill-rule="evenodd" stroke="none"/>
      <path d="M36.05 19.95 L37.15 18.5 37.7 19.0 36.95 20.45 36.45 20.65 36.05 19.95 M38.15 15.05 L37.05 14.15 38.35 12.75 40.15 14.9 40.05 15.0 38.15 15.05 M16.75 17.85 L15.75 17.0 16.5 15.35 17.65 16.25 16.75 17.85" fill="#94a5b4" fill-rule="evenodd" stroke="none"/>
      <path d="M32.9 22.35 L33.1 22.55 32.75 23.35 32.0 22.7 32.9 22.35" fill="#e7e7de" fill-rule="evenodd" stroke="none"/>
      <path d="M18.2 16.65 L17.9 16.4 M16.75 17.85 L15.75 17.0 M16.0 14.95 L15.8 14.75" fill="none" stroke="#000000" stroke-linecap="round" stroke-linejoin="round" stroke-opacity="0.3019608" stroke-width="0.05"/>
      <path d="M18.5 13.1 Q18.1 13.5 17.95 14.05 17.95 12.45 13.15 21.05 13.3 21.65 13.05 22.15 L12.65 23.8 Q12.75 22.45 12.4 22.3 L8.45 29.55 8.2 29.3 14.15 17.9 14.35 17.55 14.4 17.55 15.25 16.2 15.4 15.9 16.05 14.85 16.25 14.65 16.2 14.6 17.15 13.1 Q17.1 12.85 17.9 13.5 18.2 13.25 18.5 13.1" fill="#b59055" fill-rule="evenodd" stroke="none"/>
      <path d="M18.5 13.1 L19.05 13.05 Q19.55 13.85 19.0 14.4 L11.55 26.65 11.35 26.45 11.55 24.6 10.8 27.1 10.6 27.75 10.7 28.0 9.3 30.35 9.3 30.4 8.45 29.55 12.4 22.3 Q12.75 22.45 12.65 23.8 L13.05 22.15 Q13.3 21.65 13.15 21.05 17.95 12.45 17.95 14.05 18.1 13.5 18.5 13.1" fill="#5a4e39" fill-rule="evenodd" stroke="none"/>
      <path d="M9.3 30.4 L9.3 30.35 10.7 28.0 10.6 27.75 10.8 27.1 11.55 24.6 11.35 26.45 11.55 26.65 19.0 14.4 Q19.55 13.85 19.05 13.05 L19.85 13.4 Q19.55 13.9 19.55 14.2 L9.5 30.55 9.35 30.45 9.3 30.4" fill="#3d3426" fill-rule="evenodd" stroke="none"/>
      <path d="M19.05 13.05 L18.5 13.1 M8.45 29.55 L9.3 30.4 M19.05 13.05 L19.85 13.4 Q19.55 13.9 19.55 14.2 L9.5 30.55 M9.35 30.45 L9.3 30.4 M17.15 13.1 Q17.1 12.85 17.9 13.5 18.2 13.25 18.5 13.1 M14.35 17.55 L14.4 17.55 15.25 16.2 15.4 15.9 16.05 14.85 16.25 14.65 16.2 14.6 M8.45 29.55 L8.2 29.3 14.15 17.9" fill="none" stroke="#000000" stroke-linecap="round" stroke-linejoin="round" stroke-opacity="0.2509804" stroke-width="0.05"/>
      <path d="M5.55 33.1 L6.45 31.5 8.05 33.05 7.55 33.85 5.55 33.1 6.9 34.9 6.25 36.0 5.0 34.1 5.55 33.1 M7.0 30.5 L7.6 29.45 9.1 31.3 8.55 32.2 7.0 30.5 M3.1 38.55 L3.0 38.25 3.45 36.85 4.6 38.75 3.9 39.75 3.75 39.45 3.1 38.55 M3.95 36.0 L4.2 35.5 5.75 36.8 5.15 37.8 3.95 36.0" fill="#998461" fill-rule="evenodd" stroke="none"/>
      <path d="M5.55 33.1 L7.55 33.85 8.15 34.1 7.4 35.55 6.9 34.9 5.55 33.1 M8.05 33.05 L6.45 31.5 7.0 30.5 8.55 32.2 9.0 32.65 8.55 33.5 8.05 33.05 M7.6 29.45 L8.1 29.1 8.25 29.35 8.25 29.4 9.4 30.5 9.75 30.65 9.45 31.85 9.1 31.3 7.6 29.45 M6.7 36.7 L6.35 37.3 5.75 36.8 4.2 35.5 4.75 34.65 5.0 34.1 6.25 36.0 6.7 36.7 M5.7 38.55 L5.1 39.55 4.6 38.75 3.45 36.85 3.95 36.0 5.15 37.8 5.7 38.55 M4.1 40.15 L3.55 41.1 2.15 40.0 2.65 39.35 4.1 40.15 M4.75 34.65 L6.35 37.3 4.75 34.65" fill="#5a4e39" fill-rule="evenodd" stroke="none"/>
      <path d="M7.55 33.85 L8.05 33.05 8.55 33.5 8.15 34.1 7.55 33.85 M9.45 31.85 L9.0 32.65 8.55 32.2 9.1 31.3 9.45 31.85 M7.4 35.55 L6.7 36.7 6.25 36.0 6.9 34.9 7.4 35.55 M6.35 37.3 L5.7 38.55 5.15 37.8 5.75 36.8 6.35 37.3 M5.1 39.55 L4.2 40.15 4.2 40.05 4.05 39.9 3.9 39.75 4.6 38.75 5.1 39.55" fill="#695a42" fill-rule="evenodd" stroke="none"/>
      <path d="M4.2 40.05 L4.1 40.15 2.65 39.35 3.1 38.55 3.75 39.45 3.9 39.75 4.05 39.9 4.2 40.05" fill="#3f3627" fill-rule="evenodd" stroke="none"/>
      <path d="M6.45 31.5 L5.55 33.1 7.55 33.85 M8.05 33.05 L6.45 31.5 7.0 30.5 7.6 29.45 8.1 29.1 8.25 29.35 M9.4 30.5 L9.75 30.65 9.45 31.85 9.0 32.65 8.55 33.5 8.15 34.1 7.4 35.55 6.7 36.7 6.35 37.3 5.7 38.55 5.1 39.55 4.2 40.15 4.2 40.05 4.1 40.15 3.55 41.1 2.15 40.0 2.65 39.35 3.1 38.55 3.0 38.25 3.45 36.85 3.95 36.0 4.2 35.5 4.75 34.65 5.0 34.1 5.55 33.1 M8.55 33.5 L8.05 33.05 M9.45 31.85 L9.1 31.3 7.6 29.45 M8.55 32.2 L9.0 32.65 M7.0 30.5 L8.55 32.2 M6.9 34.9 L7.4 35.55 M6.7 36.7 L6.25 36.0 5.0 34.1 M5.75 36.8 L6.35 37.3 4.75 34.65 M4.2 40.05 L4.05 39.9 3.9 39.75 3.75 39.45 3.1 38.55 M4.6 38.75 L5.1 39.55 M5.15 37.8 L5.7 38.55 M3.95 36.0 L5.15 37.8 M5.75 36.8 L4.2 35.5 M4.6 38.75 L3.45 36.85 M6.9 34.9 L5.55 33.1 M8.15 34.1 L7.55 33.85" fill="none" stroke="#000000" stroke-linecap="round" stroke-linejoin="round" stroke-opacity="0.2509804" stroke-width="0.05"/>
      <path d="M9.3 30.5 L8.15 29.95 3.8 37.85 4.3 40.05 4.2 39.9 3.2 38.45 3.05 38.2 3.55 36.8 5.6 33.1 7.6 29.55 8.1 29.2 8.2 29.45 8.2 29.5 9.3 30.5" fill="url(#gradient0)" fill-rule="evenodd" stroke="none"/>
      <path d="M34.6 22.95 L34.55 22.95 34.25 22.25 35.2 20.95 35.7 21.5 35.35 22.2 35.0 22.8 34.6 22.95 M37.8 17.7 L36.1 17.55 35.05 16.55 36.2 15.3 36.35 15.0 37.7 15.9 37.8 17.45 37.85 17.5 37.8 17.7 M28.15 15.25 L27.55 14.3 28.1 13.85 28.75 14.9 28.15 15.25 M32.8 18.15 L34.3 19.8 32.6 21.2 32.0 21.05 31.35 18.5 32.8 18.15 M29.95 23.95 L30.65 23.3 31.45 24.4 30.65 24.7 29.95 23.95" fill="#94a5b4" fill-rule="evenodd" stroke="none"/>
      <path d="M30.95 25.05 L31.55 24.8 31.3 25.4 30.95 25.05 M35.35 22.2 L35.85 21.65 36.35 22.15 36.45 23.6 35.1 23.9 34.6 22.95 35.0 22.8 35.35 22.2 M37.8 19.95 L37.55 19.45 37.9 18.95 38.8 19.55 38.65 20.3 37.8 19.95 M37.8 17.7 L37.85 17.5 37.8 17.45 37.7 15.9 38.8 16.6 39.2 17.7 37.8 17.7" fill="#e7e7de" fill-rule="evenodd" stroke="none"/>
      <path d="M27.25 25.85 L27.8 24.8 Q28.5 23.25 28.6 21.7 28.75 20.35 28.35 18.95 27.3 14.7 25.05 12.65 22.5 10.45 19.95 13.45 L21.0 11.4 Q23.2 10.25 25.35 11.95 L25.85 12.4 26.85 13.55 Q28.5 15.65 29.35 18.9 30.0 21.05 29.45 23.15 L28.6 25.45 28.5 25.65 27.25 25.85" fill="#808a94" fill-rule="evenodd" stroke="none"/>
      <path d="M22.75 8.1 L23.15 7.3 Q25.4 9.45 28.15 11.0 L28.2 11.75 28.2 11.7 Q25.25 10.2 22.75 8.1 M30.15 12.0 L32.2 12.8 32.55 12.8 34.45 12.65 34.6 12.6 35.2 13.15 35.1 13.2 32.85 13.5 32.45 13.5 30.1 12.6 30.15 12.0" fill="#beccdb" fill-rule="evenodd" stroke="none"/>
      <path d="M27.9 26.65 L27.55 27.15 26.3 27.1 26.7 26.65 27.25 25.85 28.5 25.65 27.95 26.6 27.9 26.65 26.7 26.65 27.9 26.65 M34.6 12.6 Q35.2 12.2 34.7 11.1 L34.5 10.75 34.85 11.2 35.4 12.55 35.2 13.15 34.6 12.6 M34.7 11.1 L34.85 11.2 34.7 11.1" fill="#b8b8b8" fill-rule="evenodd" stroke="none"/>
      <path d="M40.0 15.35 L40.85 15.7 Q41.8 17.55 41.25 19.4 L40.6 21.05 40.45 21.45 Q38.9 24.0 36.15 25.55 33.05 27.2 27.55 27.15 L27.9 26.65 Q32.5 26.45 35.2 25.1 38.0 23.65 39.5 21.2 L39.7 20.8 40.35 19.25 Q40.85 17.65 40.1 16.0 L40.0 15.85 38.7 14.0 38.6 13.9 38.4 13.65 38.15 13.45 38.85 13.15 39.3 13.5 39.6 13.85 40.25 14.65 39.7 15.2 39.9 15.3 40.0 15.35" fill="#f0f0f0" fill-rule="evenodd" stroke="none"/>
      <path d="M34.5 10.75 L34.05 10.15 35.1 10.6 36.75 11.5 38.05 12.45 37.9 13.25 35.85 11.8 35.15 11.4 34.85 11.2 34.5 10.75" fill="#d1d1d1" fill-rule="evenodd" stroke="none"/>
      <path d="M28.15 11.0 L30.15 12.0 30.1 12.6 30.0 12.55 28.2 11.75 28.15 11.0" fill="#aebac9" fill-rule="evenodd" stroke="none"/>
      <path d="M28.2 11.7 L28.2 11.75 30.0 12.55 26.85 13.55 25.85 12.4 28.2 11.7" fill="#c8d6e6" fill-rule="evenodd" stroke="none"/>
      <path d="M30.0 12.55 L30.1 12.6 32.45 13.5 32.85 13.5 35.1 13.2 35.2 13.15 Q37.55 15.3 37.7 15.9 L36.35 15.0 36.2 15.3 35.05 16.55 36.1 17.55 37.8 17.7 37.7 17.85 37.6 18.25 36.9 19.9 36.75 20.3 35.85 21.65 35.35 22.2 35.7 21.5 35.2 20.95 34.25 22.25 34.55 22.95 34.6 22.95 34.5 23.05 32.45 24.4 31.55 24.8 30.95 25.05 28.5 25.65 28.6 25.45 29.45 23.15 Q30.0 21.05 29.35 18.9 28.5 15.65 26.85 13.55 L30.0 12.55 M28.15 15.25 L28.75 14.9 28.1 13.85 27.55 14.3 28.15 15.25 M32.8 18.15 L31.35 18.5 32.0 21.05 32.6 21.2 34.3 19.8 32.8 18.15 M29.95 23.95 L30.65 24.7 31.45 24.4 30.65 23.3 29.95 23.95" fill="url(#gradient1)" fill-rule="evenodd" stroke="none"/>
      <path d="M21.0 11.4 L22.75 8.1 Q25.25 10.2 28.2 11.7 L25.85 12.4 25.35 11.95 Q23.2 10.25 21.0 11.4" fill="url(#gradient2)" fill-rule="evenodd" stroke="none"/>
      <path d="M38.15 13.45 L38.4 13.65 38.6 13.9 38.7 14.0 40.0 15.85 40.1 16.0 Q40.85 17.65 40.35 19.25 L39.7 20.8 39.5 21.2 Q38.0 23.65 35.2 25.1 32.5 26.45 27.9 26.65 L27.95 26.6 28.5 25.65 30.95 25.05 31.3 25.4 31.55 24.8 32.45 24.4 34.5 23.05 34.6 22.95 35.1 23.9 36.45 23.6 36.35 22.15 35.85 21.65 36.75 20.3 36.9 19.9 37.6 18.25 37.7 17.85 37.8 17.7 39.2 17.7 38.8 16.6 37.7 15.9 Q37.55 15.3 35.2 13.15 L35.4 12.55 34.85 11.2 35.15 11.4 35.85 11.8 37.9 13.25 37.8 13.7 38.15 13.45 M37.8 19.95 L38.65 20.3 38.8 19.55 37.9 18.95 37.55 19.45 37.8 19.95" fill="#bababa" fill-rule="evenodd" stroke="none"/>
      <path d="M27.55 27.15 Q33.05 27.2 36.15 25.55 38.9 24.0 40.45 21.45 L40.6 21.05 41.25 19.4 Q41.8 17.55 40.85 15.7 L40.0 15.35 M39.9 15.3 L39.7 15.2 40.25 14.65 39.6 13.85 39.3 13.5 38.85 13.15 38.15 13.45 M27.55 27.15 L26.3 27.1 26.7 26.65 27.25 25.85 27.8 24.8 Q28.5 23.25 28.6 21.7 28.75 20.35 28.35 18.95 27.3 14.7 25.05 12.65 22.5 10.45 19.95 13.45 L21.0 11.4 22.75 8.1 23.15 7.3 Q25.4 9.45 28.15 11.0 L30.15 12.0 32.2 12.8 32.55 12.8 34.45 12.65 34.6 12.6 Q35.2 12.2 34.7 11.1 L34.5 10.75 34.05 10.15 35.1 10.6 36.75 11.5 38.05 12.45 37.9 13.25 37.8 13.7 38.15 13.45 M34.85 11.2 L34.7 11.1 M16.2 14.45 L16.4 15.2 M26.7 26.65 L27.9 26.65 M20.95 6.1 L20.6 6.2" fill="none" stroke="#000000" stroke-linecap="round" stroke-linejoin="round" stroke-opacity="0.3019608" stroke-width="0.05"/>
      <path d="M30.0 12.55 L30.1 12.6" fill="none" stroke="#999999" stroke-linecap="round" stroke-linejoin="round" stroke-width="0.05"/>
      <path d="M19.45 5.55 L19.55 6.2 Q18.55 6.6 18.05 7.25 L17.35 6.75 Q17.95 6.0 19.45 5.55" fill="#d9ecff" fill-rule="evenodd" stroke="none"/>
      <path d="M19.55 6.2 L19.45 5.55 20.2 5.35 20.75 5.65 20.65 5.85 19.55 6.2 M17.35 6.75 L18.05 7.25 Q17.8 7.6 17.7 8.05 17.3 9.45 17.75 11.25 L17.55 11.6 17.2 11.25 Q16.55 9.2 16.95 7.6 L17.35 6.75" fill="#adbccc" fill-rule="evenodd" stroke="none"/>
      <path d="M18.05 7.25 Q18.55 6.6 19.55 6.2 L20.65 5.85 17.75 11.25 Q17.3 9.45 17.7 8.05 17.8 7.6 18.05 7.25" fill="#889099" fill-rule="evenodd" stroke="none"/>
      <path d="M19.45 5.55 Q17.95 6.0 17.35 6.75 M20.65 5.85 L20.75 5.65 20.2 5.35 19.45 5.55 M17.75 11.25 L20.65 5.85 M17.75 11.25 L17.55 11.6 17.2 11.25 Q16.55 9.2 16.95 7.6 L17.35 6.75" fill="none" stroke="#000000" stroke-linecap="round" stroke-linejoin="round" stroke-opacity="0.3019608" stroke-width="0.05"/>
      <path d="M35.2 13.15 L35.35 12.6 Q35.35 12.1 34.75 11.25 L35.15 11.4 35.85 11.8 37.9 13.25 37.8 13.75 38.15 13.55 38.35 13.65 38.6 13.95 38.65 14.05 40.0 15.9 40.1 16.1 Q40.85 17.65 40.3 19.3 L39.65 20.8 39.45 21.25 Q38.0 23.65 35.15 25.15 32.5 26.55 27.9 26.7 L27.9 26.65 28.5 25.7 28.55 25.5 29.45 23.2 Q29.95 21.05 29.35 18.9 28.45 15.65 26.85 13.55 L25.85 12.4 25.3 11.95 Q23.2 10.35 21.0 11.45 L22.7 8.15 Q25.2 10.2 28.15 11.7 L28.2 11.75 Q29.1 12.2 30.0 12.6 L30.1 12.65 32.45 13.5 32.85 13.5 35.05 13.2 35.2 13.15" fill="url(#gradient3)" fill-rule="evenodd" stroke="none"/>
      <path d="M23.4 6.3 L23.45 6.25 23.4 6.3" fill="#94a5b4" fill-rule="evenodd" stroke="none"/>
      <path d="M16.0 15.0 L15.65 14.65 16.75 12.65 20.95 4.8 21.35 5.05 16.0 15.0 M21.8 4.55 L21.35 4.35 22.3 2.55 23.0 2.9 22.1 4.75 22.05 4.65 21.8 4.55" fill="#bacee3" fill-rule="evenodd" stroke="none"/>
      <path d="M20.95 4.8 L21.6 4.8 21.8 4.55 22.05 4.65 21.8 5.1 21.35 5.05 20.95 4.8" fill="#adcae8" fill-rule="evenodd" stroke="none"/>
      <path d="M24.45 3.65 L25.2 4.05 24.25 5.9 23.8 5.65 23.5 5.5 23.55 5.4 24.45 3.65 M23.95 6.6 L19.05 15.8 19.0 15.9 19.0 15.95 18.3 16.9 17.95 16.55 23.4 6.3 23.45 6.25 23.95 6.6 M19.05 15.8 L19.0 15.95 19.05 15.8" fill="#bcd1e6" fill-rule="evenodd" stroke="none"/>
      <path d="M23.5 5.5 L23.8 5.65 23.65 5.95 23.95 6.6 23.45 6.25 23.35 5.75 23.5 5.5" fill="#91a9c2" fill-rule="evenodd" stroke="none"/>
      <path d="M22.05 4.65 L22.1 4.75 23.5 5.5 23.35 5.75 23.45 6.25 21.35 5.05 21.8 5.1 22.05 4.65" fill="#637485" fill-rule="evenodd" stroke="none"/>
      <path d="M24.45 3.65 L23.55 5.4 23.5 5.5 22.1 4.75 23.0 2.9 24.3 3.55 24.45 3.65" fill="#7d8b99" fill-rule="evenodd" stroke="none"/>
      <path d="M17.95 16.55 L17.65 16.25 16.0 15.0 21.35 5.05 23.45 6.25 23.4 6.3 17.95 16.55" fill="#515963" fill-rule="evenodd" stroke="none"/>
      <path d="M23.8 5.65 L24.25 5.9 25.2 4.05 24.45 3.65 M23.5 5.5 L23.8 5.65 23.65 5.95 M19.0 15.9 L19.0 15.95 18.3 16.9 17.95 16.55 17.65 16.25 16.0 15.0 15.65 14.65 16.75 12.65 M21.6 4.8 L21.8 4.55 21.35 4.35 22.3 2.55 23.0 2.9 24.3 3.55 24.45 3.65 M22.05 4.65 L22.1 4.75 M23.5 5.5 L22.1 4.75 M21.8 4.55 L22.05 4.65" fill="none" stroke="#000000" stroke-linecap="round" stroke-linejoin="round" stroke-opacity="0.3019608" stroke-width="0.05"/>
      <path d="M23.55 5.4 L23.5 5.5 M23.95 6.6 L19.05 15.8 M16.75 12.65 L20.95 4.8 M22.05 4.65 L21.8 5.1 21.35 5.05 M23.45 6.25 L23.35 5.75 23.5 5.5 M23.45 6.25 L23.4 6.3 23.45 6.25 M19.0 15.95 L19.05 15.8 M23.4 6.3 L17.95 16.55 M16.0 15.0 L21.35 5.05" fill="none" stroke="#999999" stroke-linecap="round" stroke-linejoin="round" stroke-width="0.05"/>
    </g>
    <linearGradient gradientTransform="matrix(0.0015, 0.001, -0.0028, 0.0054, 6.4, 34.6)" gradientUnits="userSpaceOnUse" id="gradient0" spreadMethod="pad" x1="-819.2" x2="819.2">
      <stop offset="0.0" stop-color="#f5eed2" stop-opacity="0.6117647"/>
      <stop offset="1.0" stop-color="#000000" stop-opacity="0.0"/>
    </linearGradient>
    <linearGradient gradientTransform="matrix(-0.0065, 5.0E-4, -2.0E-4, -0.0079, 32.55, 18.8)" gradientUnits="userSpaceOnUse" id="gradient1" spreadMethod="pad" x1="-819.2" x2="819.2">
      <stop offset="0.0" stop-color="#637a8f" stop-opacity="0.2"/>
      <stop offset="1.0" stop-color="#94a5b4"/>
    </linearGradient>
    <linearGradient gradientTransform="matrix(-0.0101, -0.0015, 4.0E-4, -0.0028, 28.95, 10.65)" gradientUnits="userSpaceOnUse" id="gradient2" spreadMethod="pad" x1="-819.2" x2="819.2">
      <stop offset="0.0" stop-color="#637a8f" stop-opacity="0.2"/>
      <stop offset="1.0" stop-color="#94a5b4"/>
    </linearGradient>
    <linearGradient gradientTransform="matrix(-0.0014, 0.0137, -0.0099, -0.0011, 30.85, 16.85)" gradientUnits="userSpaceOnUse" id="gradient3" spreadMethod="pad" x1="-819.2" x2="819.2">
      <stop offset="0.0" stop-color="#000000" stop-opacity="0.84313726"/>
      <stop offset="1.0" stop-color="#000000" stop-opacity="0.0"/>
    </linearGradient>
  </defs>
</svg>
