<?xml version="1.0" encoding="UTF-8" standalone="no"?>
<svg xmlns:xlink="http://www.w3.org/1999/xlink" height="440.0px" width="440.0px" xmlns="http://www.w3.org/2000/svg">
  <g transform="matrix(10.0, 0.0, 0.0, 10.0, 0.0, 0.0)">
    <use height="44.0" transform="matrix(1.0, 0.0, 0.0, 1.0, 0.0, 0.0)" width="44.0" xlink:href="#shape0"/>
  </g>
  <defs>
    <g id="shape0" transform="matrix(1.0, 0.0, 0.0, 1.0, 0.0, 0.0)">
      <path d="M44.0 44.0 L0.0 44.0 0.0 0.0 44.0 0.0 44.0 44.0" fill="#43adca" fill-opacity="0.0" fill-rule="evenodd" stroke="none"/>
      <path d="M13.2 19.45 Q13.8 19.65 14.3 20.0 L12.95 20.75 12.25 20.5 13.2 19.45 M15.8 21.8 Q16.65 23.8 16.2 27.2 L15.45 28.15 Q16.1 24.15 14.8 22.2 L15.8 21.8" fill="#666666" fill-rule="evenodd" stroke="none"/>
      <path d="M19.9 15.15 L19.9 15.2 Q19.7 16.05 20.1 17.15 L14.3 20.0 Q13.8 19.65 13.2 19.45 L13.45 19.1 13.75 19.05 13.55 18.9 13.6 18.9 14.45 17.6 16.55 16.65 16.45 16.55 Q16.1 16.25 16.25 15.9 L16.55 15.55 Q17.15 14.95 18.5 14.9 19.05 14.85 19.15 15.1 L19.1 15.5 19.9 15.15 M15.8 21.8 L16.8 21.4 16.85 20.85 17.1 20.55 Q17.65 19.95 19.0 20.0 L19.7 20.1 21.2 19.45 21.3 19.65 23.8 22.2 Q25.45 23.35 27.0 23.8 L27.85 23.95 Q28.9 24.1 29.6 23.65 L30.0 23.85 Q23.05 25.95 22.7 28.3 20.45 26.65 16.2 27.2 16.65 23.8 15.8 21.8 L14.8 22.2 Q14.15 21.2 12.95 20.75 L14.3 20.0 Q15.25 20.7 15.8 21.8 M33.25 25.15 L35.35 25.95 33.95 26.45 34.35 27.1 31.7 28.25 30.65 27.6 Q28.35 28.45 27.55 28.85 L25.15 30.25 25.2 30.25 25.15 30.25 Q25.05 30.35 25.05 30.1 L24.95 30.45 24.45 30.8 23.85 29.55 Q33.05 26.15 33.25 25.15" fill="#b8b8b8" fill-rule="evenodd" stroke="none"/>
      <path d="M14.3 20.0 L20.1 17.15 20.15 17.4 Q20.5 18.45 21.2 19.45 L19.7 20.1 19.0 20.0 Q17.65 19.95 17.1 20.55 L16.85 20.85 16.8 21.4 15.8 21.8 Q15.25 20.7 14.3 20.0" fill="#f7f7f7" fill-rule="evenodd" stroke="none"/>
      <path d="M14.45 17.6 L15.05 16.55 16.25 13.45 15.65 12.4 16.8 9.75 17.4 10.15 17.95 8.8 20.15 14.5 19.9 15.15 19.1 15.5 19.15 15.1 Q19.05 14.85 18.5 14.9 17.15 14.95 16.55 15.55 L16.25 15.9 Q16.1 16.25 16.45 16.55 L16.55 16.65 14.45 17.6" fill="#9e9e9e" fill-rule="evenodd" stroke="none"/>
      <path d="M16.2 27.2 Q20.45 26.65 22.7 28.3 L23.85 29.55 24.45 30.8 24.35 30.9 23.5 31.7 Q22.2 27.05 15.45 28.15 L16.2 27.2" fill="url(#gradient0)" fill-rule="evenodd" stroke="none"/>
      <path d="M22.7 28.3 Q23.05 25.95 30.0 23.85 L32.1 24.7 Q33.3 24.75 33.25 25.15 33.05 26.15 23.85 29.55 L22.7 28.3" fill="#a6a6a6" fill-rule="evenodd" stroke="none"/>
      <path d="M20.1 17.15 L20.55 16.95 M13.2 19.45 Q13.8 19.65 14.3 20.0 M21.2 19.45 L21.65 19.25 M15.8 21.8 Q16.65 23.8 16.2 27.2 20.45 26.65 22.7 28.3 M12.7 19.3 L13.2 19.45 M12.25 20.5 L12.95 20.75 14.3 20.0 M15.8 21.8 L14.8 22.2 Q16.1 24.15 15.45 28.15 L16.2 27.2 M12.95 20.75 Q14.15 21.2 14.8 22.2 M24.45 30.8 L24.6 31.1 M24.45 30.8 L23.85 29.55 22.7 28.3 M15.45 28.15 Q22.2 27.05 23.5 31.7" fill="none" stroke="#000000" stroke-linecap="round" stroke-linejoin="round" stroke-opacity="0.2" stroke-width="0.05"/>
      <path d="M30.0 23.85 L30.3 23.65 M32.1 24.7 L32.6 24.4 M32.1 24.7 Q33.3 24.75 33.25 25.15" fill="none" stroke="#000000" stroke-linecap="round" stroke-linejoin="round" stroke-opacity="0.2627451" stroke-width="0.05"/>
      <path d="M25.8 14.75 L25.85 14.7 26.35 14.5 26.9 14.7 27.1 15.2 26.9 15.7 26.35 15.95 Q26.05 15.95 25.85 15.7 L25.65 15.2 25.65 15.1 25.75 15.25 25.95 15.35 26.2 15.25 26.3 15.05 26.2 14.8 25.95 14.7 25.8 14.75" fill="#cc0000" fill-rule="evenodd" stroke="none"/>
      <path d="M25.65 15.1 L25.65 15.05 25.75 14.8 25.8 14.75 25.95 14.7 26.2 14.8 26.3 15.05 26.2 15.25 25.95 15.35 25.75 15.25 25.65 15.1" fill="#ff9900" fill-rule="evenodd" stroke="none"/>
      <path d="M25.8 14.75 L25.85 14.7 26.35 14.5 26.9 14.7 27.1 15.2 26.9 15.7 26.35 15.95 Q26.05 15.95 25.85 15.7 L25.65 15.2 25.65 15.1 25.65 15.05 25.75 14.8 25.8 14.75 25.95 14.7 26.2 14.8 26.3 15.05 26.2 15.25 25.95 15.35 25.75 15.25 25.65 15.1" fill="none" stroke="#000000" stroke-linecap="round" stroke-linejoin="round" stroke-opacity="0.2627451" stroke-width="0.05"/>
      <path d="M28.0 16.85 L28.05 16.8 28.55 16.6 29.1 16.8 29.3 17.3 29.1 17.8 28.55 18.05 Q28.25 18.05 28.05 17.8 L27.85 17.3 27.85 17.2 27.95 17.35 28.15 17.45 28.4 17.35 28.5 17.15 28.4 16.9 28.15 16.8 28.0 16.85" fill="#cc0000" fill-rule="evenodd" stroke="none"/>
      <path d="M27.85 17.2 L27.85 17.15 27.95 16.9 28.0 16.85 28.15 16.8 28.4 16.9 28.5 17.15 28.4 17.35 28.15 17.45 27.95 17.35 27.85 17.2" fill="#ff9900" fill-rule="evenodd" stroke="none"/>
      <path d="M28.0 16.85 L28.05 16.8 28.55 16.6 29.1 16.8 29.3 17.3 29.1 17.8 28.55 18.05 Q28.25 18.05 28.05 17.8 L27.85 17.3 27.85 17.2 27.85 17.15 27.95 16.9 28.0 16.85 28.15 16.8 28.4 16.9 28.5 17.15 28.4 17.35 28.15 17.45 27.95 17.35 27.85 17.2" fill="none" stroke="#000000" stroke-linecap="round" stroke-linejoin="round" stroke-opacity="0.2627451" stroke-width="0.05"/>
      <path d="M35.5 27.4 Q31.2 28.55 26.15 31.85 23.1 33.8 21.85 38.0 L21.8 38.2 21.65 38.8 Q20.6 36.6 22.75 32.7 L23.5 31.7 24.35 30.9 24.45 30.8 24.95 30.45 25.05 30.1 Q25.05 30.35 25.15 30.25 L25.2 30.25 25.15 30.25 27.55 28.85 Q28.35 28.45 30.65 27.6 L31.7 28.25 34.35 27.1 33.95 26.45 35.35 25.95 29.6 23.65 29.45 23.75 27.85 23.95 27.0 23.8 Q25.45 23.35 23.8 22.2 L21.3 19.65 21.2 19.45 Q20.5 18.45 20.15 17.4 L20.1 17.15 Q19.7 16.05 19.9 15.2 L19.9 15.15 20.15 14.5 17.95 8.8 17.4 10.15 16.8 9.75 15.65 12.4 16.25 13.45 15.05 16.55 14.45 17.6 13.6 18.9 13.55 18.9 13.75 19.05 13.45 19.1 13.2 19.45 12.25 20.5 11.15 21.35 Q7.25 23.5 5.05 22.5 L5.65 22.35 5.9 22.3 Q10.05 21.0 12.05 18.0 18.15 8.7 16.9 2.1 L18.3 5.95 21.15 15.2 21.5 17.75 Q22.7 20.55 25.75 22.35 L29.2 22.55 37.9 25.7 35.5 27.4" fill="#000000" fill-rule="evenodd" stroke="none"/>
      <path d="M16.9 2.1 L18.6 5.4 19.25 4.7 Q19.45 7.35 20.25 9.9 L20.0 10.2 21.05 13.85 Q21.75 15.8 22.9 17.3 L22.75 17.55 22.8 18.0 23.25 18.25 23.6 18.2 25.5 20.05 Q24.9 19.6 25.3 20.0 L25.55 20.4 25.9 20.25 Q27.25 21.2 29.0 21.85 30.4 21.65 30.2 19.85 L30.35 20.2 30.6 21.2 30.65 22.1 30.8 22.25 31.5 22.55 Q35.35 24.35 39.45 24.65 L38.4 25.35 41.3 26.95 35.5 27.4 37.9 25.7 29.2 22.55 25.75 22.35 Q22.7 20.55 21.5 17.75 L21.15 15.2 18.3 5.95 16.9 2.1" fill="#404040" fill-rule="evenodd" stroke="none"/>
      <path d="M16.9 2.1 L16.8 1.65 19.25 4.7 18.6 5.4 16.9 2.1 M20.25 9.9 Q20.75 11.55 21.6 13.15 L21.65 13.3 21.75 13.45 22.05 13.45 22.45 13.45 23.5 13.8 Q24.65 14.1 25.75 14.8 L27.2 15.85 27.6 16.25 28.35 17.0 29.4 18.35 30.2 19.85 Q30.4 21.65 29.0 21.85 27.25 21.2 25.9 20.25 L26.15 19.85 26.1 19.45 Q25.95 19.25 25.7 19.2 L25.15 19.3 Q25.0 19.35 25.5 20.05 L23.6 18.2 23.75 18.15 24.05 17.75 24.0 17.35 23.6 17.1 23.55 17.1 23.0 17.15 22.9 17.3 Q21.75 15.8 21.05 13.85 L20.0 10.2 20.25 9.9 M39.45 24.65 L42.5 27.15 41.3 26.95 38.4 25.35 39.45 24.65 M22.6 13.65 L22.9 13.7 22.55 13.55 22.6 13.65 M24.8 15.25 L24.35 15.0 23.85 15.05 23.55 15.45 23.6 15.9 24.0 16.1 24.55 16.05 24.85 15.65 24.8 15.25 M27.95 18.8 L27.7 19.2 27.75 19.65 28.15 19.9 28.7 19.8 29.0 19.4 28.95 18.95 28.55 18.7 28.5 18.7 27.95 18.8" fill="#7d7d7d" fill-rule="evenodd" stroke="none"/>
      <path d="M20.0 10.2 L20.25 9.9" fill="none" stroke="#000000" stroke-linecap="round" stroke-linejoin="round" stroke-opacity="0.2627451" stroke-width="0.05"/>
      <path d="M23.65 15.05 L23.7 15.0 24.25 14.8 24.7 15.0 24.95 15.5 24.7 16.05 24.25 16.25 23.7 16.05 23.5 15.5 23.55 15.45 23.6 15.6 23.8 15.65 24.05 15.6 24.15 15.35 24.05 15.1 23.8 15.0 23.65 15.05" fill="#cc0000" fill-rule="evenodd" stroke="none"/>
      <path d="M23.55 15.45 L23.5 15.35 23.6 15.1 23.65 15.05 23.8 15.0 24.05 15.1 24.15 15.35 24.05 15.6 23.8 15.65 23.6 15.6 23.55 15.45" fill="#ff9900" fill-rule="evenodd" stroke="none"/>
      <path d="M27.6 19.2 L27.65 19.3 27.9 19.4 28.1 19.3 28.25 19.1 28.1 18.85 27.9 18.75 27.75 18.8 27.8 18.75 28.3 18.55 28.8 18.75 29.0 19.25 28.8 19.75 28.3 20.0 27.8 19.75 27.6 19.25 27.6 19.2" fill="#cc0000" fill-rule="evenodd" stroke="none"/>
      <path d="M27.75 18.8 L27.9 18.75 28.1 18.85 28.25 19.1 28.1 19.3 27.9 19.4 27.65 19.3 27.6 19.2 27.6 19.1 27.65 18.85 27.75 18.8" fill="#ff9900" fill-rule="evenodd" stroke="none"/>
      <path d="M25.1 19.4 L25.15 19.35 25.7 19.15 26.15 19.35 26.4 19.85 26.15 20.35 25.7 20.6 25.15 20.35 24.95 19.85 24.95 19.75 25.05 19.9 25.25 20.0 25.5 19.9 25.6 19.7 25.5 19.45 25.25 19.35 25.1 19.4" fill="#cc0000" fill-rule="evenodd" stroke="none"/>
      <path d="M24.95 19.75 L24.95 19.7 25.05 19.45 25.1 19.4 25.25 19.35 25.5 19.45 25.6 19.7 25.5 19.9 25.25 20.0 25.05 19.9 24.95 19.75" fill="#ff9900" fill-rule="evenodd" stroke="none"/>
      <path d="M22.7 17.6 L22.75 17.75 22.95 17.8 23.2 17.75 23.3 17.5 23.2 17.25 22.95 17.15 22.8 17.2 22.85 17.15 23.4 16.95 23.85 17.15 24.1 17.7 23.85 18.2 23.4 18.4 22.85 18.2 22.65 17.7 22.7 17.6" fill="#cc0000" fill-rule="evenodd" stroke="none"/>
      <path d="M22.8 17.2 L22.95 17.15 23.2 17.25 23.3 17.5 23.2 17.75 22.95 17.8 22.75 17.75 22.7 17.6 22.65 17.5 22.75 17.25 22.8 17.2" fill="#ff9900" fill-rule="evenodd" stroke="none"/>
      <path d="M23.85 22.0 L24.1 22.25 22.65 23.7 22.4 23.45 23.85 22.0 M20.75 21.8 L20.15 21.2 21.6 19.75 21.7 19.85 22.05 20.2 20.6 21.65 20.75 21.8" fill="#adbac6" fill-rule="evenodd" stroke="none"/>
      <path d="M22.35 20.5 L23.55 21.7 22.1 23.15 20.75 21.8 20.9 21.95 22.35 20.5" fill="#5d636b" fill-rule="evenodd" stroke="none"/>
      <path d="M22.05 20.2 L22.35 20.5 20.9 21.95 20.75 21.8 20.6 21.65 22.05 20.2 M23.55 21.7 L23.85 22.0 22.4 23.45 22.1 23.15 23.55 21.7" fill="#deeeff" fill-rule="evenodd" stroke="none"/>
      <path d="M24.1 22.25 L22.65 23.7 22.4 23.45 22.1 23.15 20.75 21.8 20.15 21.2 21.6 19.75 21.7 19.85" fill="none" stroke="#000000" stroke-linecap="round" stroke-linejoin="round" stroke-opacity="0.2627451" stroke-width="0.05"/>
      <path d="M22.05 23.2 L22.45 23.6 14.3 32.85 13.45 32.6 19.9 25.35 19.7 24.75 20.6 24.65 22.05 23.2 M20.35 21.5 L20.9 22.05 14.0 28.05 14.05 29.9 13.5 28.85 12.55 29.2 12.6 28.65 20.35 21.5" fill="#96825f" fill-rule="evenodd" stroke="none"/>
      <path d="M22.05 23.2 L20.6 24.65 19.7 24.75 19.9 25.35 13.45 32.6 12.55 32.4 12.55 29.2 13.5 28.85 14.05 29.9 14.0 28.05 20.9 22.05 22.05 23.2" fill="#5a4e39" fill-rule="evenodd" stroke="none"/>
      <path d="M13.45 32.6 L14.3 32.85 22.45 23.6 M20.35 21.5 L12.6 28.65 12.55 29.2 M13.45 32.6 L12.55 32.4 12.55 29.2" fill="none" stroke="#000000" stroke-linecap="round" stroke-linejoin="round" stroke-opacity="0.2" stroke-width="0.05"/>
      <path d="M12.6 28.65 L12.55 32.4 12.0 32.25 11.95 29.3 Q11.6 29.65 11.65 30.8 9.95 31.5 10.45 31.9 L9.35 31.6 Q10.6 29.45 12.6 28.65 M13.45 32.6 L14.3 32.85 Q13.9 34.55 11.25 36.3 10.8 38.25 9.0 38.85 L7.3 41.95 5.1 41.85 3.8 41.35 3.4 41.05 Q3.2 40.85 3.4 40.65 4.75 41.8 7.1 41.35 L7.6 40.45 5.7 39.55 7.85 40.1 8.35 39.2 8.05 38.6 Q10.4 37.35 10.4 36.05 L12.85 34.0 Q11.7 34.45 10.25 34.0 L13.0 33.65 Q13.5 33.05 13.45 32.6 M2.55 39.7 Q2.25 38.6 2.35 37.0 L6.15 34.6 Q7.45 31.9 9.35 31.6 L10.45 31.9 8.85 32.2 Q8.4 32.95 9.4 33.15 L8.0 32.95 Q6.6 34.45 8.3 35.25 L7.35 35.0 Q6.95 35.1 8.2 35.55 L5.1 36.25 Q4.3 36.85 4.65 37.6 L2.8 37.55 Q3.55 38.3 3.5 38.75 2.35 38.2 2.55 39.7 M10.4 36.05 L11.25 36.3 10.4 36.05 M9.0 38.85 L8.05 38.6 9.0 38.85 M6.15 34.6 L7.35 35.0 6.15 34.6 M2.35 37.0 L4.65 37.6 2.35 37.0" fill="#fffdee" fill-rule="evenodd" stroke="none"/>
      <path d="M12.55 32.4 L13.45 32.6 Q13.5 33.05 13.0 33.65 L10.25 34.0 Q11.7 34.45 12.85 34.0 L10.4 36.05 Q10.4 37.35 8.05 38.6 L4.65 37.6 8.05 38.6 8.35 39.2 7.85 40.1 5.7 39.55 7.6 40.45 7.1 41.35 Q4.75 41.8 3.4 40.65 3.2 40.85 3.4 41.05 2.85 40.5 2.55 39.7 2.35 38.2 3.5 38.75 3.55 38.3 2.8 37.55 L4.65 37.6 Q4.3 36.85 5.1 36.25 L8.2 35.55 Q6.95 35.1 7.35 35.0 L8.3 35.25 Q6.6 34.45 8.0 32.95 L9.4 33.15 Q8.4 32.95 8.85 32.2 L10.45 31.9 Q9.95 31.5 11.65 30.8 11.6 29.65 11.95 29.3 L12.0 32.25 10.45 31.9 12.0 32.25 12.55 32.4 M10.4 36.05 L8.3 35.25 10.4 36.05" fill="#b5a084" fill-rule="evenodd" stroke="none"/>
      <path d="M14.3 32.85 Q13.9 34.55 11.25 36.3 10.8 38.25 9.0 38.85 L7.3 41.95 5.1 41.85 3.8 41.35 3.4 41.05 Q2.85 40.5 2.55 39.7 2.25 38.6 2.35 37.0 L6.15 34.6 Q7.45 31.9 9.35 31.6 10.6 29.45 12.6 28.65 M10.45 31.9 L12.0 32.25 12.55 32.4 M11.25 36.3 L10.4 36.05 M8.05 38.6 L9.0 38.85 M9.35 31.6 L10.45 31.9 M8.3 35.25 L10.4 36.05 M4.65 37.6 L8.05 38.6 M8.3 35.25 L7.35 35.0 6.15 34.6 M4.65 37.6 L2.35 37.0" fill="none" stroke="#000000" stroke-linecap="round" stroke-linejoin="round" stroke-opacity="0.2" stroke-width="0.05"/>
    </g>
    <linearGradient gradientTransform="matrix(0.0036, 0.0036, -0.0022, 0.0022, 20.15, 29.2)" gradientUnits="userSpaceOnUse" id="gradient0" spreadMethod="pad" x1="-819.2" x2="819.2">
      <stop offset="0.0" stop-color="#666666"/>
      <stop offset="0.596078431372549" stop-color="#b8b8b8"/>
    </linearGradient>
  </defs>
</svg>
