<?xml version="1.0" encoding="UTF-8" standalone="no"?>
<svg xmlns:xlink="http://www.w3.org/1999/xlink" height="440.0px" width="440.0px" xmlns="http://www.w3.org/2000/svg">
  <g transform="matrix(10.0, 0.0, 0.0, 10.0, 0.0, 0.0)">
    <use height="44.0" transform="matrix(1.0, 0.0, 0.0, 1.0, 0.0, 0.0)" width="44.0" xlink:href="#shape0"/>
  </g>
  <defs>
    <g id="shape0" transform="matrix(1.0, 0.0, 0.0, 1.0, 0.0, 0.0)">
      <path d="M44.0 44.0 L0.0 44.0 0.0 0.0 44.0 0.0 44.0 44.0" fill="#43adca" fill-opacity="0.0" fill-rule="evenodd" stroke="none"/>
      <path d="M30.05 2.4 L30.25 1.95 30.55 2.3 29.2 4.85 28.85 5.35 28.75 5.3 29.2 4.85 28.75 5.3 28.65 5.1 28.7 4.7 28.65 5.1 28.55 5.05 28.7 4.7 29.35 3.3 29.6 3.35 30.05 2.4 M31.2 3.75 L31.35 4.3 22.85 18.7 22.55 19.15 22.7 18.8 23.0 18.45 28.8 7.65 29.95 5.7 28.8 7.65 28.95 7.4 28.85 7.2 29.95 5.7 29.95 5.6 31.2 3.75 M18.05 26.3 L18.45 26.55 15.25 33.35 14.75 32.95 13.55 34.6 10.5 37.4 10.7 37.7 8.3 39.75 8.6 40.15 6.0 42.05 Q3.95 41.05 2.35 39.6 L3.35 35.0 3.95 35.4 3.3 38.15 4.1 38.85 3.9 39.15 6.2 41.3 7.6 39.7 7.65 39.7 8.75 39.05 8.6 38.05 9.2 38.65 14.85 32.7 17.35 27.4 17.05 27.1 17.65 25.95 18.05 26.3 M6.7 32.2 L8.75 31.75 8.95 32.25 11.4 29.45 11.7 29.9 9.3 33.1 8.95 32.25 7.05 32.75 6.3 34.4 5.75 34.05 5.15 34.85 5.0 35.0 4.9 35.1 4.85 35.15 4.7 35.3 4.3 34.85 4.65 34.4 6.25 32.35 6.7 32.2 M14.55 25.6 L15.5 23.3 16.65 21.45 16.85 22.0 15.95 23.35 15.05 25.8 14.55 25.6 15.05 25.8 15.35 26.1 14.35 28.05 14.75 28.45 12.9 31.5 12.35 30.9 13.75 28.1 13.3 27.75 14.55 25.6 M19.85 16.7 L28.1 2.25 28.8 2.15 27.0 5.5 Q26.75 5.5 20.15 16.15 L19.85 16.7 M22.85 18.7 L22.7 18.8 22.85 18.7 M29.6 3.35 L29.15 4.25 29.6 3.35 M16.95 23.55 L18.25 21.4 18.25 21.45 17.0 23.55 16.7 24.4 16.45 24.8 16.95 23.55 M16.35 25.45 L16.3 25.25 16.45 25.3 16.35 25.45 M8.45 36.5 L8.6 36.45 8.4 36.6 8.45 36.5 M13.35 29.95 L14.35 28.05 13.35 29.95" fill="#adac83" fill-rule="evenodd" stroke="none"/>
      <path d="M22.7 18.8 L19.1 23.9 18.9 24.45 18.5 23.8 18.45 23.7 21.6 19.35 21.95 18.8 22.0 18.7 28.8 7.65 23.0 18.45 22.7 18.8 M19.4 17.4 L19.7 16.9 20.15 16.2 20.15 16.15 Q26.75 5.5 27.0 5.5 22.15 13.65 20.0 17.65 L19.4 17.4" fill="#ad9f6b" fill-rule="evenodd" stroke="none"/>
      <path d="M28.75 6.95 L28.85 7.2 28.95 7.4 28.8 7.65 22.0 18.7 21.95 18.8 21.6 19.35 18.45 23.7 18.4 23.8 16.9 26.9 17.05 27.1 17.35 27.4 14.85 32.7 9.2 38.65 8.6 38.05 8.75 39.05 7.65 39.7 6.55 39.25 6.95 38.8 7.3 39.1 8.4 36.6 8.6 36.45 11.15 34.0 11.75 32.0 12.05 33.0 14.95 28.65 16.35 25.45 16.45 25.3 16.3 25.25 16.45 24.8 16.7 24.4 17.0 23.55 18.25 21.45 20.25 17.85 20.55 18.1 26.6 7.7 19.55 20.5 20.7 19.15 Q28.5 6.25 28.75 6.95 M21.95 18.8 L22.0 18.7 21.95 18.8 M17.05 27.1 L15.2 30.65 17.05 27.1" fill="#786e4a" fill-rule="evenodd" stroke="none"/>
      <path d="M5.0 35.0 L4.6 37.65 4.5 36.95 4.85 35.2 5.0 35.0 M4.1 38.85 L4.25 39.05 4.6 38.25 4.45 38.9 5.65 36.95 5.1 38.4 6.2 39.65 6.55 39.25 6.2 39.65 5.1 38.4 5.65 36.95 6.25 35.5 6.4 35.05 6.05 38.4 7.45 35.95 7.5 37.7 8.7 33.75 9.2 34.75 8.45 36.5 8.4 36.6 7.3 39.1 6.95 38.8 6.55 39.25 7.65 39.7 7.6 39.7 6.2 41.3 3.9 39.15 4.1 38.85 M6.95 38.8 L6.65 38.45 7.45 35.95 6.65 38.45 6.95 38.8" fill="#998d5e" fill-rule="evenodd" stroke="none"/>
      <path d="M28.8 2.15 L30.05 2.4 29.6 3.35 29.35 3.3 28.7 4.7 28.75 4.3 28.6 4.2 28.55 4.05 27.3 5.3 20.25 17.85 20.0 17.65 Q22.15 13.65 27.0 5.5 L28.8 2.15 M30.55 2.3 L31.1 3.1 31.0 3.25 30.55 4.0 29.55 4.4 29.2 4.85 30.55 2.3 M28.6 4.2 L28.65 3.95 28.55 4.05 28.65 3.95 28.6 4.2 M28.65 5.1 L28.75 5.3 28.6 5.5 28.65 5.1" fill="url(#gradient0)" fill-rule="evenodd" stroke="none"/>
      <path d="M31.0 3.25 L31.2 3.75 29.95 5.6 30.05 4.8 29.95 5.6 29.95 5.7 28.85 7.2 28.75 6.95 30.05 4.8 30.55 4.0 31.0 3.25" fill="url(#gradient1)" fill-rule="evenodd" stroke="none"/>
      <path d="M20.25 17.85 L27.3 5.3 28.55 4.05 28.6 4.2 28.75 4.3 28.7 4.7 28.55 5.05 28.65 5.1 28.6 5.5 28.75 5.3 28.85 5.35 29.2 4.85 29.55 4.4 30.55 4.0 30.05 4.8 28.75 6.95 Q28.5 6.25 20.7 19.15 L19.55 20.5 26.6 7.7 20.55 18.1 20.25 17.85" fill="url(#gradient2)" fill-rule="evenodd" stroke="none"/>
      <path d="M16.65 21.45 L19.4 17.4 20.0 17.65 20.25 17.85 18.25 21.45 18.25 21.4 16.95 23.55 15.95 23.35 16.85 22.0 16.65 21.45 M18.45 23.7 L18.5 23.8 18.4 23.8 18.45 23.7" fill="url(#gradient3)" fill-rule="evenodd" stroke="none"/>
      <path d="M18.9 24.45 L18.05 26.3 17.65 25.95 17.05 27.1 16.9 26.9 18.4 23.8 18.5 23.8 18.9 24.45 M11.4 29.45 L14.2 25.5 14.55 25.6 13.3 27.75 13.75 28.1 12.35 30.9 12.9 31.5 14.75 28.45 14.35 28.05 15.35 26.1 15.05 25.8 15.95 23.35 16.95 23.55 16.45 24.8 16.2 25.25 16.3 25.25 16.2 25.25 16.45 24.8 16.3 25.25 16.35 25.45 14.95 28.65 12.05 33.0 11.75 32.0 11.15 34.0 8.6 36.45 8.45 36.5 9.2 34.75 9.65 33.9 9.3 33.1 11.7 29.9 11.4 29.45" fill="url(#gradient4)" fill-rule="evenodd" stroke="none"/>
      <path d="M3.35 35.0 L3.6 34.1 6.3 31.7 6.7 32.2 6.25 32.35 4.65 34.4 4.3 34.85 4.7 35.3 4.85 35.15 4.9 35.1 5.0 35.0 5.15 34.85 5.75 34.05 6.3 34.4 7.05 32.75 8.95 32.25 9.3 33.1 9.65 33.9 9.2 34.75 8.7 33.75 7.5 37.7 7.45 35.95 6.05 38.4 6.4 35.05 6.25 35.5 5.65 36.95 4.45 38.9 4.6 38.25 4.25 39.05 4.1 38.85 3.3 38.15 3.95 35.4 3.35 35.0 M4.85 35.2 L4.5 36.95 4.6 37.65 5.0 35.0 4.85 35.2 4.55 35.55 4.85 35.2 4.85 35.15 4.85 35.2" fill="url(#gradient5)" fill-rule="evenodd" stroke="none"/>
      <path d="M15.25 33.35 L14.85 34.15 Q11.95 37.4 8.6 40.15 L8.3 39.75 10.7 37.7 10.5 37.4 13.55 34.6 14.75 32.95 15.25 33.35" fill="url(#gradient6)" fill-rule="evenodd" stroke="none"/>
      <path d="M28.8 2.15 L30.05 2.4 30.25 1.95 30.55 2.3 31.1 3.1 31.0 3.25 31.2 3.75 31.35 4.3 22.85 18.7 22.55 19.15 M22.7 18.8 L19.1 23.9 18.9 24.45 18.05 26.3 18.45 26.55 15.25 33.35 14.85 34.15 Q11.95 37.4 8.6 40.15 L6.0 42.05 Q3.95 41.05 2.35 39.6 L3.35 35.0 3.6 34.1 6.3 31.7 6.7 32.2 8.75 31.75 8.95 32.25 11.4 29.45 14.2 25.5 14.55 25.6 15.5 23.3 16.65 21.45 19.4 17.4 19.7 16.9 19.85 16.7 28.1 2.25 28.8 2.15 M28.55 4.05 L28.65 3.95 28.6 4.2 28.75 4.3 28.7 4.7 28.65 5.1 28.6 5.5 28.75 5.3 M29.6 3.35 L30.05 2.4 M30.05 4.8 L29.95 5.6 29.95 5.7 28.8 7.65 22.0 18.7 21.95 18.8 M22.7 18.8 L22.85 18.7 M30.55 4.0 L30.05 4.8 28.75 6.95 M29.15 4.25 L29.6 3.35 M28.6 4.2 L28.55 4.05 M29.2 4.85 L28.75 5.3 M29.2 4.85 L29.55 4.4 M30.55 4.0 L31.0 3.25 M22.0 18.7 L21.95 18.8 M16.45 24.8 L16.7 24.4 M14.55 25.6 L15.05 25.8 15.35 26.1 14.35 28.05 13.35 29.95 M9.3 33.1 L8.95 32.25 M5.15 34.85 L5.0 35.0 M4.85 35.2 L4.55 35.55 M14.95 28.65 L16.35 25.45 M16.3 25.25 L16.2 25.25 16.45 24.8 M16.3 25.25 L16.45 25.3 16.35 25.45 M4.9 35.1 L4.85 35.15 4.85 35.2 5.0 35.0 M4.65 34.4 L6.25 32.35 6.7 32.2 M7.6 39.7 L7.65 39.7 M6.55 39.25 L6.2 39.65 5.1 38.4 5.65 36.95 6.25 35.5 M8.7 33.75 L9.2 34.75 9.65 33.9 9.3 33.1 M8.45 36.5 L8.4 36.6 8.6 36.45 M11.15 34.0 L11.75 32.0 M8.45 36.5 L9.2 34.75 M9.2 38.65 L8.6 38.05 8.75 39.05 M8.4 36.6 L7.3 39.1 6.95 38.8 6.55 39.25 M7.45 35.95 L6.65 38.45 6.95 38.8 M17.05 27.1 L17.65 25.95 18.05 26.3 M17.05 27.1 L17.35 27.4 M15.2 30.65 L17.05 27.1" fill="none" stroke="#000000" stroke-linecap="round" stroke-linejoin="round" stroke-opacity="0.3019608" stroke-width="0.05"/>
      <path d="M38.45 9.5 L38.7 9.55 39.55 9.7 40.65 9.7 41.8 9.65 42.45 9.55 Q41.3 15.15 40.6 20.95 L40.25 20.75 39.45 25.75 33.1 32.75 32.8 30.6 28.8 34.7 28.6 33.75 29.1 33.2 Q30.15 31.9 32.45 27.85 L31.6 20.9 35.65 16.75 36.1 17.7 38.2 10.45 38.45 9.5 M32.8 30.6 L32.45 27.85 32.8 30.6" fill="url(#gradient7)" fill-rule="evenodd" stroke="none"/>
      <path d="M20.75 15.3 L20.75 15.35 20.65 15.2 20.75 15.3 M25.75 6.1 L26.6 4.55 26.15 3.4 26.05 3.25 26.15 3.25 26.05 3.25 26.15 3.25 26.5 3.35 27.05 3.7 27.15 3.75 Q27.75 4.1 27.85 4.05 27.95 4.2 28.15 4.2 L27.2 4.05 27.15 3.75 27.2 4.05 27.1 4.05 26.45 5.85 25.95 6.1 25.75 6.1 M31.3 6.05 L31.1 6.5 30.9 5.85 31.3 6.05 M30.35 6.65 L29.85 7.5 Q27.4 11.5 25.2 15.65 L25.15 15.8 24.6 14.8 27.65 9.8 29.6 5.85 29.95 6.35 29.35 7.7 30.35 6.65 M26.6 3.7 L26.9 3.95 26.15 3.25 26.15 3.4 26.35 3.55 26.6 3.7 M27.2 4.15 L27.2 4.2 27.2 4.15 M26.2 6.4 L25.0 9.65 Q25.65 9.9 25.95 10.65 L25.75 11.0 25.4 10.75 25.15 10.6 24.85 10.45 23.95 10.05 26.2 6.4" fill="url(#gradient8)" fill-rule="evenodd" stroke="none"/>
      <path d="M28.15 4.2 L31.3 6.05 30.9 5.85 31.1 6.5 30.95 6.8 30.9 6.85 30.35 6.65 29.35 7.7 29.95 6.35 29.6 5.85 27.65 9.8 24.6 14.8 23.55 13.65 25.4 10.75 25.75 11.0 25.95 10.65 Q25.65 9.9 25.0 9.65 L26.2 6.4 26.6 5.8 26.45 5.85 27.1 4.05 27.2 4.05 28.15 4.2 M27.2 4.15 L27.2 4.2 27.2 4.15 M26.45 7.9 Q26.95 7.0 27.7 6.45 28.1 6.55 28.3 7.0 L25.95 10.65 28.3 7.0 Q28.1 6.55 27.7 6.45 26.95 7.0 26.45 7.9" fill="url(#gradient9)" fill-rule="evenodd" stroke="none"/>
      <path d="M29.85 7.5 L31.7 7.65 Q33.7 7.6 35.95 8.5 L38.45 9.5 38.2 10.45 36.1 17.7 35.65 16.75 31.6 20.9 32.45 27.85 Q30.15 31.9 29.1 33.2 29.05 28.85 28.3 24.4 L28.75 22.9 27.9 23.4 Q27.75 21.35 26.65 19.6 L27.05 18.55 26.2 19.1 25.2 17.0 25.2 16.9 25.15 15.8 25.2 15.65 Q27.4 11.5 29.85 7.5" fill="url(#gradient10)" fill-rule="evenodd" stroke="none"/>
      <path d="M21.95 15.6 L22.0 15.65 Q21.2 15.6 20.95 15.35 L20.75 15.25 20.75 15.3 20.65 15.2 19.8 14.7 20.6 13.55 20.65 13.5 20.65 13.45 20.7 13.4 22.25 11.25 21.55 10.35 20.25 10.1 20.5 10.85 19.8 11.4 19.3 11.85 18.05 13.35 Q16.75 12.65 16.15 11.6 L19.2 7.9 20.0 7.6 Q22.6 6.55 25.45 6.05 L25.75 6.1 25.5 6.25 25.95 6.1 25.5 6.25 25.75 6.1 25.95 6.1 26.3 6.1 26.35 6.05 26.6 5.8 26.2 6.4 23.95 10.05 24.85 10.45 22.85 13.55 21.95 15.6" fill="url(#gradient11)" fill-rule="evenodd" stroke="none"/>
      <path d="M25.2 17.0 L24.6 17.8 23.8 17.1 Q22.8 16.0 21.95 15.6 L22.85 13.55 24.85 10.45 25.15 10.6 25.4 10.75 23.55 13.65 24.6 14.8 25.15 15.8 25.2 16.9 25.2 17.0" fill="url(#gradient12)" fill-rule="evenodd" stroke="none"/>
      <path d="M20.6 13.55 L20.65 13.5 20.65 13.45" fill="none" stroke="#000000" stroke-linecap="round" stroke-linejoin="round" stroke-opacity="0.49803922" stroke-width="0.05"/>
      <path d="M35.95 8.5 L38.45 9.5 38.7 9.55 39.55 9.7 40.65 9.7 41.8 9.65 42.45 9.55 Q41.3 15.15 40.6 20.95 L40.25 20.75 39.45 25.75 33.1 32.75 32.8 30.6 28.8 34.7 28.6 33.75 29.1 33.2 Q29.05 28.85 28.3 24.4 L28.75 22.9 27.9 23.4 Q27.75 21.35 26.65 19.6 L27.05 18.55 26.2 19.1 25.2 17.0 24.6 17.8 23.8 17.1 Q22.8 16.0 21.95 15.6 L22.0 15.65 Q21.2 15.6 20.95 15.35 L20.75 15.25 20.75 15.3 20.75 15.35 20.65 15.2 19.8 14.7 20.6 13.55 M20.65 13.45 L20.7 13.4 22.25 11.25 21.55 10.35 20.25 10.1 20.5 10.85 19.8 11.4 19.3 11.85 18.05 13.35 Q16.75 12.65 16.15 11.6 L19.2 7.9 20.0 7.6 Q22.6 6.55 25.45 6.05 L25.75 6.1 26.6 4.55 26.15 3.4 26.05 3.25 26.15 3.25 26.05 3.25 26.15 3.25 26.5 3.35 27.05 3.7 27.1 3.55 27.15 3.75 Q27.75 4.1 27.85 4.05 27.95 4.2 28.15 4.2 L31.3 6.05 31.1 6.5 30.95 6.8 30.9 6.85 30.35 6.65 29.85 7.5 Q27.4 11.5 25.2 15.65 L25.15 15.8 25.2 16.9 25.2 17.0 M38.2 10.45 L36.1 17.7 35.65 16.75 31.6 20.9 32.45 27.85 32.8 30.6 M27.15 3.75 L27.1 3.55 M27.05 3.7 L27.15 3.75 M26.9 3.95 L26.15 3.25 26.15 3.4 26.35 3.55 26.6 3.7 M27.2 4.15 L27.2 4.2 27.2 4.15 M25.95 6.1 L25.5 6.25 25.75 6.1 25.95 6.1 M25.95 10.65 L28.3 7.0 Q28.1 6.55 27.7 6.45 26.95 7.0 26.45 7.9 M26.6 5.8 L26.35 6.05 26.3 6.1 25.95 6.1 M24.85 10.45 L23.95 10.05 M24.85 10.45 L25.15 10.6 25.4 10.75 25.75 11.0 25.95 10.65 M25.15 15.8 L24.6 14.8 M20.65 15.2 L20.75 15.3 M21.95 15.6 L22.85 13.55 24.85 10.45" fill="none" stroke="#000000" stroke-linecap="round" stroke-linejoin="round" stroke-opacity="0.3019608" stroke-width="0.05"/>
      <path d="M38.85 9.85 L39.55 10.15 42.0 10.05 Q41.45 10.4 41.15 12.9 L40.0 19.75 40.15 20.5 38.7 19.75 39.8 20.9 38.8 24.95 33.3 30.95 32.15 20.75 35.6 17.55 36.05 17.95 38.4 22.2 36.7 17.8 38.85 9.85" fill="url(#gradient13)" fill-rule="evenodd" stroke="none"/>
      <path d="M31.75 7.6 L35.5 7.95 35.5 8.85 37.85 9.6 36.15 16.7 35.9 16.55 35.6 13.55 35.4 16.3 31.5 20.05 29.3 19.2 31.25 20.5 28.1 22.7 27.1 19.65 28.25 16.9 Q27.1 18.25 26.35 18.2 L25.2 16.85 24.4 17.2 Q24.6 16.45 22.2 15.05 L21.95 15.55 22.0 15.55 21.0 15.25 20.8 15.2 20.35 15.2 21.05 14.25 21.0 14.1 21.45 13.4 22.2 12.1 22.3 11.6 22.6 11.35 21.9 10.0 19.75 9.25 20.15 10.0 20.1 10.2 19.25 11.2 18.6 12.2 18.15 12.4 17.15 11.65 16.8 11.3 18.0 10.15 19.55 8.6 20.3 7.55 24.6 6.5 26.35 6.2 24.0 10.0 Q24.45 10.1 24.8 10.35 29.2 2.8 29.25 5.9 27.25 8.75 24.65 14.75 L27.7 9.7 29.65 5.75 29.95 6.3 29.35 7.6 30.4 6.6 29.85 7.4 31.75 7.6 M23.95 11.8 L22.85 13.5 22.3 14.75 23.95 11.8" fill="url(#gradient14)" fill-rule="evenodd" stroke="none"/>
      <path d="M28.85 24.15 L31.25 20.5 31.95 28.6 Q31.8 28.9 31.95 29.8 L29.7 32.35 28.85 24.15" fill="url(#gradient15)" fill-rule="evenodd" stroke="none"/>
    </g>
    <linearGradient gradientTransform="matrix(0.0023, 4.0E-4, -4.0E-4, 0.0029, 29.0, 4.5)" gradientUnits="userSpaceOnUse" id="gradient0" spreadMethod="pad" x1="-819.2" x2="819.2">
      <stop offset="0.0" stop-color="#aead84"/>
      <stop offset="1.0" stop-color="#ad9f6b"/>
    </linearGradient>
    <linearGradient gradientTransform="matrix(0.0012, 2.0E-4, -4.0E-4, 0.0026, 30.0, 5.25)" gradientUnits="userSpaceOnUse" id="gradient1" spreadMethod="pad" x1="-819.2" x2="819.2">
      <stop offset="0.0" stop-color="#aead84"/>
      <stop offset="1.0" stop-color="#ad9f6b"/>
    </linearGradient>
    <linearGradient gradientTransform="matrix(0.0023, 4.0E-4, -4.0E-4, 0.0029, 29.0, 4.5)" gradientUnits="userSpaceOnUse" id="gradient2" spreadMethod="pad" x1="-819.2" x2="819.2">
      <stop offset="0.0" stop-color="#9c9b76"/>
      <stop offset="1.0" stop-color="#ad9f6b"/>
    </linearGradient>
    <linearGradient gradientTransform="matrix(-0.0036, 0.0067, -0.0034, -0.0022, 14.75, 24.85)" gradientUnits="userSpaceOnUse" id="gradient3" spreadMethod="pad" x1="-819.2" x2="819.2">
      <stop offset="0.0" stop-color="#aead84"/>
      <stop offset="1.0" stop-color="#ad9f6b"/>
    </linearGradient>
    <linearGradient gradientTransform="matrix(-0.0019, 0.007, -0.0038, -0.0023, 15.15, 24.95)" gradientUnits="userSpaceOnUse" id="gradient4" spreadMethod="pad" x1="-819.2" x2="819.2">
      <stop offset="0.0" stop-color="#aead84"/>
      <stop offset="1.0" stop-color="#ad9f6b"/>
    </linearGradient>
    <linearGradient gradientTransform="matrix(0.0042, 7.0E-4, 4.0E-4, 0.0047, 6.45, 35.5)" gradientUnits="userSpaceOnUse" id="gradient5" spreadMethod="pad" x1="-819.2" x2="819.2">
      <stop offset="0.0" stop-color="#aead84"/>
      <stop offset="1.0" stop-color="#ad9f6b"/>
    </linearGradient>
    <linearGradient gradientTransform="matrix(0.0047, 8.0E-4, 5.0E-4, 0.0051, 11.85, 36.6)" gradientUnits="userSpaceOnUse" id="gradient6" spreadMethod="pad" x1="-819.2" x2="819.2">
      <stop offset="0.0" stop-color="#aead84"/>
      <stop offset="1.0" stop-color="#ad9f6b"/>
    </linearGradient>
    <linearGradient gradientTransform="matrix(0.0101, 0.0072, 0.0084, -0.0153, 28.8, 17.35)" gradientUnits="userSpaceOnUse" id="gradient7" spreadMethod="pad" x1="-819.2" x2="819.2">
      <stop offset="0.0" stop-color="#d3dad7"/>
      <stop offset="1.0" stop-color="#b0b3b0"/>
    </linearGradient>
    <linearGradient gradientTransform="matrix(0.0101, 0.0072, 0.0084, -0.0153, 28.8, 17.35)" gradientUnits="userSpaceOnUse" id="gradient8" spreadMethod="pad" x1="-819.2" x2="819.2">
      <stop offset="0.0" stop-color="#d3dad7"/>
      <stop offset="1.0" stop-color="#edefed"/>
    </linearGradient>
    <linearGradient gradientTransform="matrix(-0.0124, -0.0068, -0.0066, 0.016, 28.1, 17.8)" gradientUnits="userSpaceOnUse" id="gradient9" spreadMethod="pad" x1="-819.2" x2="819.2">
      <stop offset="0.0" stop-color="#d3dad7"/>
      <stop offset="1.0" stop-color="#edefed"/>
    </linearGradient>
    <linearGradient gradientTransform="matrix(0.0176, 0.0046, 0.0033, -0.0178, 31.8, 20.2)" gradientUnits="userSpaceOnUse" id="gradient10" spreadMethod="pad" x1="-819.2" x2="819.2">
      <stop offset="0.0" stop-color="#d3dad7"/>
      <stop offset="1.0" stop-color="#edefed"/>
    </linearGradient>
    <linearGradient gradientTransform="matrix(0.0101, 0.0072, 0.0084, -0.0153, 28.8, 17.35)" gradientUnits="userSpaceOnUse" id="gradient11" spreadMethod="pad" x1="-819.2" x2="819.2">
      <stop offset="0.0" stop-color="#d3dad7"/>
      <stop offset="1.0" stop-color="#858785"/>
    </linearGradient>
    <linearGradient gradientTransform="matrix(0.0101, 0.0072, 0.0084, -0.0153, 28.8, 17.35)" gradientUnits="userSpaceOnUse" id="gradient12" spreadMethod="pad" x1="-819.2" x2="819.2">
      <stop offset="0.0" stop-color="#d3dad7"/>
      <stop offset="1.0" stop-color="#b7bab7"/>
    </linearGradient>
    <linearGradient gradientTransform="matrix(-0.0189, 0.0057, 0.0029, 0.0108, 36.85, 19.9)" gradientUnits="userSpaceOnUse" id="gradient13" spreadMethod="pad" x1="-819.2" x2="819.2">
      <stop offset="0.0" stop-color="#000000" stop-opacity="0.0"/>
      <stop offset="1.0" stop-color="#000000" stop-opacity="0.7019608"/>
    </linearGradient>
    <linearGradient gradientTransform="matrix(-0.0049, 0.0227, 0.0113, 0.0034, 23.45, 17.85)" gradientUnits="userSpaceOnUse" id="gradient14" spreadMethod="pad" x1="-819.2" x2="819.2">
      <stop offset="0.0" stop-color="#000000" stop-opacity="0.0"/>
      <stop offset="1.0" stop-color="#000000" stop-opacity="0.7019608"/>
    </linearGradient>
    <linearGradient gradientTransform="matrix(-0.0113, -0.021, -0.0036, 0.0023, 30.45, 26.45)" gradientUnits="userSpaceOnUse" id="gradient15" spreadMethod="pad" x1="-819.2" x2="819.2">
      <stop offset="0.0" stop-color="#000000" stop-opacity="0.0"/>
      <stop offset="1.0" stop-color="#000000" stop-opacity="0.7019608"/>
    </linearGradient>
  </defs>
</svg>
