<?xml version="1.0" encoding="UTF-8" standalone="no"?>
<svg xmlns:xlink="http://www.w3.org/1999/xlink" height="440.0px" width="440.0px" xmlns="http://www.w3.org/2000/svg">
  <g transform="matrix(10.0, 0.0, 0.0, 10.0, 0.0, 0.0)">
    <use height="44.0" transform="matrix(1.0, 0.0, 0.0, 1.0, 0.0, 0.0)" width="44.0" xlink:href="#shape0"/>
  </g>
  <defs>
    <g id="shape0" transform="matrix(1.0, 0.0, 0.0, 1.0, 0.0, 0.0)">
      <path d="M44.0 44.0 L0.0 44.0 0.0 0.0 44.0 0.0 44.0 44.0" fill="#43adca" fill-opacity="0.0" fill-rule="evenodd" stroke="none"/>
      <path d="M31.35 8.65 L32.9 11.95 Q32.55 13.4 31.6 15.1 L36.5 19.25 35.25 19.0 32.05 15.65 31.6 15.1 Q30.35 17.35 27.9 20.0 L28.75 22.8 27.4 25.4 27.1 23.25 24.65 24.05 24.65 23.95 25.0 19.15 23.85 24.15 20.25 23.95 22.25 18.85 21.2 17.05 28.2 7.8 31.35 8.65 M41.75 10.2 L34.85 11.15 39.55 9.8 42.0 9.0 Q41.15 9.55 41.75 10.2" fill="#546554" fill-rule="evenodd" stroke="none"/>
      <path d="M40.65 5.85 L40.35 3.85 42.3 1.8 42.35 5.35 40.65 5.85" fill="#dfe3df" fill-rule="evenodd" stroke="none"/>
      <path d="M36.5 19.25 L31.6 15.1 Q32.55 13.4 32.9 11.95 L31.35 8.65 Q36.4 7.6 40.35 3.85 L40.65 5.85 40.2 9.55 39.55 9.8 34.85 11.15 41.75 10.2 41.55 11.2 Q40.25 15.55 36.7 19.1 L36.5 19.25 M23.85 24.15 L25.0 19.15 24.65 23.95 Q24.65 23.1 23.85 24.15 M27.4 25.4 L28.75 22.8 27.9 20.0 Q30.35 17.35 31.6 15.1 L32.05 15.65 35.35 20.2 Q31.75 23.1 27.4 25.4" fill="#7e8f7e" fill-rule="evenodd" stroke="none"/>
      <path d="M39.55 9.8 L40.2 9.55 40.65 5.85 42.35 5.35 42.0 9.0 39.55 9.8 M32.05 15.65 L35.25 19.0 35.35 20.2 32.05 15.65" fill="#a8b9a8" fill-rule="evenodd" stroke="none"/>
      <path d="M36.5 19.25 L36.7 19.1 Q40.25 15.55 41.55 11.2 L41.75 10.2 M40.35 3.85 Q36.4 7.6 31.35 8.65 L28.2 7.8 21.2 17.05 22.25 18.85 20.25 23.95 23.85 24.15 M24.65 24.05 L27.1 23.25 27.4 25.4 M35.25 19.0 L36.5 19.25 M42.0 9.0 L42.35 5.35 42.3 1.8 40.35 3.85 M42.0 9.0 Q41.15 9.55 41.75 10.2 M35.25 19.0 L35.35 20.2 Q31.75 23.1 27.4 25.4 M24.65 23.95 Q24.65 23.1 23.85 24.15 M24.65 23.95 L24.6 24.05 24.65 24.05" fill="none" stroke="#000000" stroke-linecap="round" stroke-linejoin="round" stroke-opacity="0.3882353" stroke-width="0.05"/>
      <path d="M31.5 10.3 Q35.5 9.55 38.85 6.6 L40.5 4.95 40.35 7.75 40.05 9.7 39.95 9.75 37.6 10.65 39.65 10.5 39.9 10.65 39.85 10.7 Q39.15 13.1 39.65 11.6 L38.85 14.0 Q38.15 15.9 36.75 17.4 L35.6 18.45 33.9 17.65 34.6 19.25 Q30.9 22.0 28.8 22.9 L28.3 21.5 25.2 22.7 24.6 22.7 24.5 22.8 22.25 22.75 21.5 22.8 21.9 22.7 21.7 22.65 23.6 18.55 22.8 17.1 28.95 9.7 31.5 10.3" fill="url(#gradient0)" fill-rule="evenodd" stroke="none"/>
      <path d="M22.7 10.75 L27.95 6.1 Q29.45 6.85 29.6 8.0 28.55 8.45 27.65 9.35 26.75 10.3 25.95 11.7 L25.6 10.85 25.35 11.7 25.55 12.1 24.45 14.9 24.25 15.25 23.4 16.95 23.0 17.6 22.55 18.45 22.2 18.95 21.65 19.9 21.3 20.45 20.05 22.25 19.8 20.55 20.65 19.6 21.05 19.05 21.55 18.45 22.05 17.85 22.7 17.05 23.25 16.4 23.8 13.25 24.05 12.65 23.95 12.65 24.5 10.3 22.7 10.75 M25.25 10.05 L24.8 10.2 25.25 11.35 25.5 10.65 25.25 10.05 M3.5 40.6 L2.5 39.7 2.5 38.6 2.9 38.35 3.65 37.85 3.8 37.75 3.55 39.9 2.9 38.35 3.55 39.9 3.5 40.6" fill="#afa272" fill-rule="evenodd" stroke="none"/>
      <path d="M22.7 10.75 L22.6 11.0 22.1 11.65 20.9 13.1 20.45 13.7 20.6 13.3 21.0 11.3 Q22.1 9.25 23.6 7.75 24.8 6.35 26.25 5.35 L27.95 6.1 27.95 6.05 27.95 6.1 22.7 10.75" fill="#faf5e4" fill-rule="evenodd" stroke="none"/>
      <path d="M20.45 13.7 L20.9 13.1 22.2 12.45 22.1 11.65 22.6 11.0 23.85 11.05 23.95 11.35 22.8 11.55 22.6 12.4 23.95 12.65 24.05 12.65 23.8 13.25 23.65 13.65 22.2 13.1 20.35 14.05 20.45 13.7 M19.65 15.8 L21.6 16.65 20.5 18.45 21.05 19.05 20.65 19.6 20.0 18.9 17.8 18.65 18.4 17.95 19.95 18.1 20.8 16.95 19.3 16.45 19.65 15.8 M21.55 18.45 L21.35 18.25 21.75 17.5 22.05 17.85 21.55 18.45 M22.7 17.05 L21.75 15.4 20.8 14.85 21.7 14.25 22.9 15.2 23.25 16.4 22.7 17.05 M25.25 10.05 L25.5 10.65 25.25 11.35 24.8 10.2 25.25 10.05 M25.95 11.7 L25.6 12.35 25.5 12.55 24.45 14.9 25.55 12.1 25.35 11.7 25.6 10.85 25.95 11.7 M2.5 38.6 L2.55 37.65 2.9 38.35 2.5 38.6 M2.6 37.05 L2.8 36.15 4.3 36.9 3.8 37.75 3.65 37.85 2.6 37.05 M3.0 35.2 L3.3 34.3 4.65 35.0 4.85 35.75 4.5 36.45 4.2 35.8 3.0 35.2 M3.6 33.55 L4.0 32.65 5.6 34.35 5.3 34.9 4.75 34.15 3.6 33.55 M13.55 21.65 L14.2 21.25 15.25 22.6 15.35 22.85 14.95 23.05 14.75 22.7 13.85 22.2 13.55 21.65 M16.25 19.9 L16.95 19.35 17.85 20.55 17.95 21.5 17.45 21.8 17.15 20.9 16.25 19.9 M16.5 22.2 Q16.2 22.4 15.85 22.55 L15.25 21.75 15.9 21.4 16.5 22.2 M19.5 20.7 L18.8 21.05 18.35 19.9 19.3 19.75 19.5 20.7" fill="#f2e7bf" fill-rule="evenodd" stroke="none"/>
      <path d="M4.7 30.8 Q6.5 30.0 6.45 28.15 7.0 29.1 8.4 29.15 7.05 30.2 7.1 31.45 5.75 30.7 4.7 30.8 M8.65 25.8 Q9.75 25.4 9.95 24.5 10.4 26.05 11.6 26.4 10.4 26.75 10.0 27.7 9.9 26.15 8.65 25.8 M12.6 22.4 Q13.4 23.0 13.55 21.65 L13.85 22.2 14.45 23.3 14.7 23.8 Q13.65 23.85 13.55 24.4 13.5 23.15 12.6 22.4" fill="#993300" fill-rule="evenodd" stroke="none"/>
      <path d="M20.05 22.25 L19.85 22.35 19.45 22.65 17.15 24.2 16.65 24.6 15.5 25.35 14.7 23.8 14.45 23.3 14.95 23.05 15.35 22.85 15.85 22.55 Q16.2 22.4 16.5 22.2 L17.45 21.8 17.95 21.5 18.8 21.05 19.5 20.7 19.8 20.55 20.05 22.25 M7.25 36.05 L7.05 36.95 6.95 37.6 6.85 38.35 6.85 38.75 7.1 40.5 7.2 41.15 6.6 41.45 6.5 40.7 6.05 37.4 6.95 37.6 6.05 37.4 6.0 37.0 5.85 40.8 5.8 41.6 Q5.0 41.6 4.0 40.9 L3.5 40.6 3.55 39.9 3.8 37.75 4.3 36.9 4.5 36.45 4.85 35.75 5.3 34.9 5.6 34.35 7.25 36.05 M4.0 40.9 L3.55 39.9 4.0 40.9 M7.1 40.5 L6.5 40.7 7.1 40.5" fill="#e7d083" fill-rule="evenodd" stroke="none"/>
      <path d="M15.5 25.35 Q14.55 25.15 13.45 26.65 13.95 25.5 13.55 24.4 13.65 23.85 14.7 23.8 L15.5 25.35 M12.65 27.7 Q11.3 27.7 10.55 29.9 8.25 31.45 8.4 32.45 7.1 33.05 7.1 31.45 7.05 30.2 8.4 29.15 L10.55 29.9 10.0 27.7 Q10.4 26.75 11.6 26.4 L12.65 27.7" fill="#5f1f00" fill-rule="evenodd" stroke="none"/>
      <path d="M6.6 41.45 L5.85 40.8 6.0 37.0 6.05 37.4 6.5 40.7 6.6 41.45" fill="#9f8f5a" fill-rule="evenodd" stroke="none"/>
      <path d="M4.0 32.65 L4.35 32.35 6.45 32.25 Q5.35 33.65 5.6 34.35 L4.0 32.65 M6.45 28.15 L6.85 27.4 7.6 27.25 Q7.1 28.1 9.3 28.0 8.15 28.55 8.4 29.15 7.0 29.1 6.45 28.15 M9.95 24.5 L10.9 24.25 13.15 24.6 Q12.1 25.15 11.6 26.4 10.4 26.05 9.95 24.5" fill="#cc5114" fill-rule="evenodd" stroke="none"/>
      <path d="M4.35 32.35 L4.7 30.8 Q5.75 30.7 7.1 31.45 L6.5 32.15 6.45 32.25 4.35 32.35 M7.6 27.25 Q8.6 26.9 8.65 25.8 9.9 26.15 10.0 27.7 L9.3 28.0 Q7.1 28.1 7.6 27.25 M10.9 24.25 Q12.15 23.7 12.55 22.35 L12.6 22.4 Q13.5 23.15 13.55 24.4 L13.15 24.6 10.9 24.25" fill="#f7783d" fill-rule="evenodd" stroke="none"/>
      <path d="M13.45 26.65 L12.65 27.7 11.6 26.4 Q12.1 25.15 13.15 24.6 L13.55 24.4 Q13.95 25.5 13.45 26.65 M8.4 32.45 Q6.5 34.45 7.25 36.05 L5.6 34.35 Q5.35 33.65 6.45 32.25 L6.5 32.15 7.1 31.45 Q7.1 33.05 8.4 32.45 M9.3 28.0 L10.0 27.7 10.55 29.9 8.4 29.15 Q8.15 28.55 9.3 28.0" fill="#702f15" fill-rule="evenodd" stroke="none"/>
      <path d="M22.6 11.0 L22.7 10.75 24.5 10.3 23.95 12.65 22.6 12.4 22.8 11.55 23.95 11.35 23.85 11.05 22.6 11.0 M20.9 13.1 L22.1 11.65 22.2 12.45 20.9 13.1 M20.35 14.05 L22.2 13.1 23.65 13.65 23.8 13.25 23.25 16.4 22.9 15.2 21.7 14.25 20.8 14.85 21.75 15.4 22.7 17.05 22.05 17.85 21.75 17.5 21.35 18.25 21.55 18.45 21.05 19.05 20.5 18.45 21.6 16.65 19.65 15.8 20.35 14.05 M18.4 17.95 L18.75 17.5 19.3 16.45 20.8 16.95 19.95 18.1 18.4 17.95 M17.8 18.65 L20.0 18.9 20.65 19.6 19.8 20.55 19.5 20.7 19.3 19.75 18.35 19.9 18.8 21.05 17.95 21.5 17.85 20.55 16.95 19.35 17.8 18.65 M2.55 37.65 L2.6 37.05 3.65 37.85 2.9 38.35 2.55 37.65 M2.8 36.15 L3.0 35.2 4.2 35.8 4.5 36.45 4.3 36.9 2.8 36.15 M3.3 34.3 L3.45 34.0 3.6 33.55 4.75 34.15 5.3 34.9 4.85 35.75 4.65 35.0 3.3 34.3 M14.2 21.25 L14.45 21.1 16.25 19.9 17.15 20.9 17.45 21.8 16.5 22.2 15.9 21.4 15.25 21.75 15.85 22.55 15.35 22.85 15.25 22.6 14.2 21.25 M14.95 23.05 L14.45 23.3 13.85 22.2 14.75 22.7 14.95 23.05" fill="#c7bd9c" fill-rule="evenodd" stroke="none"/>
      <path d="M19.3 16.45 L20.8 16.95 19.95 18.1 18.4 17.95 M3.55 39.9 L4.0 40.9 M6.95 37.6 L6.05 37.4 M6.5 40.7 L7.1 40.5 M2.9 38.35 L3.55 39.9 M2.9 38.35 L2.55 37.65" fill="none" stroke="#624200" stroke-linecap="round" stroke-linejoin="round" stroke-opacity="0.2" stroke-width="0.05"/>
      <path d="M27.95 6.1 L26.25 5.35 Q24.8 6.35 23.6 7.75 22.1 9.25 21.0 11.3 L20.6 13.3 20.45 13.7 M20.35 14.05 L20.45 13.7 M20.35 14.05 L19.65 15.8 M19.3 16.45 L19.65 15.8 M18.4 17.95 L18.75 17.5 19.3 16.45 M18.4 17.95 L17.8 18.65 M27.95 6.1 Q29.45 6.85 29.6 8.0 28.55 8.45 27.65 9.35 26.75 10.3 25.95 11.7 L25.6 12.35 25.5 12.55 24.45 14.9 24.25 15.25 23.4 16.95 23.0 17.6 22.55 18.45 22.2 18.95 21.65 19.9 21.3 20.45 20.05 22.25 19.85 22.35 19.45 22.65 17.15 24.2 16.65 24.6 15.5 25.35 Q14.55 25.15 13.45 26.65 L12.65 27.7 Q11.3 27.7 10.55 29.9 8.25 31.45 8.4 32.45 6.5 34.45 7.25 36.05 L7.05 36.95 6.95 37.6 6.85 38.35 6.85 38.75 7.1 40.5 7.2 41.15 6.6 41.45 5.85 40.8 5.8 41.6 Q5.0 41.6 4.0 40.9 L3.5 40.6 2.5 39.7 2.5 38.6 2.55 37.65 2.6 37.05 2.8 36.15 3.0 35.2 3.3 34.3 3.45 34.0 3.6 33.55 4.0 32.65 4.35 32.35 4.7 30.8 Q6.5 30.0 6.45 28.15 L6.85 27.4 7.6 27.25 Q8.6 26.9 8.65 25.8 9.75 25.4 9.95 24.5 L10.9 24.25 Q12.15 23.7 12.55 22.35 L12.6 22.4 Q13.4 23.0 13.55 21.65 L14.2 21.25 14.45 21.1 16.25 19.9 16.95 19.35 17.8 18.65 M14.45 23.3 L14.7 23.8 15.5 25.35 M13.55 24.4 Q13.5 23.15 12.6 22.4 M11.6 26.4 L12.65 27.7 M13.55 21.65 L13.85 22.2 14.45 23.3 M13.45 26.65 Q13.95 25.5 13.55 24.4 M10.0 27.7 Q9.9 26.15 8.65 25.8 M8.4 29.15 L10.55 29.9 10.0 27.7 M11.6 26.4 Q10.4 26.05 9.95 24.5 M7.1 31.45 Q5.75 30.7 4.7 30.8 M6.45 32.25 L6.5 32.15 M7.1 31.45 Q7.1 33.05 8.4 32.45 M8.4 29.15 Q7.0 29.1 6.45 28.15 M5.6 34.35 L7.25 36.05 M4.0 32.65 L5.6 34.35" fill="none" stroke="#000000" stroke-linecap="round" stroke-linejoin="round" stroke-opacity="0.3019608" stroke-width="0.05"/>
      <path d="M22.55 12.4 L24.05 12.65 23.7 13.65 22.2 13.1 20.4 14.05 20.5 13.7 20.9 13.1 22.2 12.45 22.0 11.0 23.9 11.05 23.95 11.35 22.8 11.5 22.55 12.4 M19.35 16.45 L19.65 15.8 21.6 16.65 20.5 18.45 21.65 19.9 21.3 20.45 20.0 18.9 17.85 18.6 18.45 17.9 19.95 18.1 20.85 16.95 19.35 16.45 M20.85 14.85 L21.75 14.25 22.85 15.2 23.4 16.9 23.0 17.65 21.8 15.4 20.85 14.85 M24.9 9.2 L25.95 11.7 25.6 12.35 24.5 9.25 24.9 9.2 M18.4 19.9 L19.3 19.75 19.9 22.35 19.45 22.65 18.4 19.9 M22.2 18.95 L21.35 18.25 21.8 17.5 22.55 18.45 22.2 18.95 M17.65 22.35 L17.15 20.9 16.3 19.9 17.0 19.4 17.85 20.55 18.05 22.35 17.65 22.35 M17.15 24.2 L16.65 24.55 16.5 23.5 15.25 21.7 15.9 21.4 17.1 22.85 17.15 24.2 M15.55 24.3 L14.75 22.65 13.85 22.2 13.6 21.65 14.2 21.25 15.25 22.6 15.95 24.25 15.55 24.3 M4.0 32.6 L7.2 36.05 7.1 36.9 6.1 36.1 4.8 34.15 3.6 33.5 4.0 32.6 M6.9 38.35 L6.2 38.2 6.1 37.45 6.95 37.55 6.9 38.35 M4.65 35.05 L5.2 37.05 5.1 37.75 4.2 35.8 3.05 35.2 3.3 34.3 4.65 35.05 M5.95 38.85 L5.95 39.6 4.85 39.3 3.75 37.95 3.8 37.75 3.65 37.85 2.65 37.05 2.8 36.15 4.3 36.9 5.3 38.85 5.95 38.85 M6.55 40.7 L6.45 39.95 7.0 39.9 7.1 40.5 6.55 40.7 M5.9 40.15 L5.85 41.15 4.55 40.6 4.45 40.0 5.9 40.15 M3.55 40.6 L2.55 39.7 2.5 38.6 2.55 37.6 4.05 40.9 3.55 40.6" fill="#ffffff" fill-opacity="0.27058825" fill-rule="evenodd" stroke="none"/>
      <path d="M25.85 9.4 Q24.4 8.15 22.3 8.35 L22.25 7.95 Q24.5 8.5 24.45 7.35 25.65 7.9 26.45 8.75 24.95 7.7 25.85 9.4" fill="#8c8c8c" fill-rule="evenodd" stroke="none"/>
      <path d="M22.3 7.4 Q23.5 8.2 24.55 6.9 25.65 7.2 26.75 8.35 28.15 9.85 26.45 8.75 25.65 7.9 24.45 7.35 24.5 8.5 22.25 7.95 L22.25 7.9 22.3 7.5 22.3 7.4" fill="#a8a8a8" fill-rule="evenodd" stroke="none"/>
      <path d="M22.3 7.4 Q22.45 6.9 23.1 6.7 L24.55 6.9 Q23.5 8.2 22.3 7.4" fill="#e6e6e6" fill-rule="evenodd" stroke="none"/>
      <path d="M27.7 10.65 L26.85 10.8 Q26.55 10.05 25.85 9.4 24.95 7.7 26.45 8.75 27.25 9.55 27.7 10.65" fill="#6b6b6b" fill-rule="evenodd" stroke="none"/>
      <path d="M26.75 8.35 L27.8 9.6 Q27.95 10.25 27.7 10.65 27.25 9.55 26.45 8.75 28.15 9.85 26.75 8.35" fill="#878787" fill-rule="evenodd" stroke="none"/>
      <path d="M24.55 6.9 L23.1 6.7 Q22.45 6.9 22.3 7.4 M24.55 6.9 Q25.65 7.2 26.75 8.35 L27.8 9.6 Q27.95 10.25 27.7 10.65 L26.85 10.8 Q26.55 10.05 25.85 9.4 24.4 8.15 22.3 8.35 L22.25 7.95 22.25 7.9 22.3 7.5 22.3 7.4" fill="none" stroke="#000000" stroke-linecap="round" stroke-linejoin="round" stroke-opacity="0.3019608" stroke-width="0.05"/>
      <path d="M23.85 13.85 Q22.4 12.6 20.3 12.8 L20.25 12.4 Q22.5 12.95 22.45 11.8 23.65 12.35 24.45 13.2 22.95 12.15 23.85 13.85" fill="#8c8c8c" fill-rule="evenodd" stroke="none"/>
      <path d="M20.25 12.4 L20.25 12.35 20.3 11.95 20.3 11.85 Q21.5 12.65 22.55 11.35 23.65 11.65 24.75 12.8 26.15 14.3 24.45 13.2 23.65 12.35 22.45 11.8 22.5 12.95 20.25 12.4" fill="#a8a8a8" fill-rule="evenodd" stroke="none"/>
      <path d="M20.3 11.85 Q20.45 11.35 21.1 11.15 L22.55 11.35 Q21.5 12.65 20.3 11.85" fill="#e6e6e6" fill-rule="evenodd" stroke="none"/>
      <path d="M25.7 15.1 L24.85 15.25 Q24.55 14.5 23.85 13.85 22.95 12.15 24.45 13.2 25.25 14.0 25.7 15.1" fill="#6b6b6b" fill-rule="evenodd" stroke="none"/>
      <path d="M24.75 12.8 L25.8 14.05 Q25.95 14.7 25.7 15.1 25.25 14.0 24.45 13.2 26.15 14.3 24.75 12.8" fill="#878787" fill-rule="evenodd" stroke="none"/>
      <path d="M20.25 12.4 L20.25 12.35 20.3 11.95 20.3 11.85 Q20.45 11.35 21.1 11.15 L22.55 11.35 Q23.65 11.65 24.75 12.8 L25.8 14.05 Q25.95 14.7 25.7 15.1 L24.85 15.25 Q24.55 14.5 23.85 13.85 22.4 12.6 20.3 12.8 L20.25 12.4 Z" fill="none" stroke="#000000" stroke-linecap="round" stroke-linejoin="round" stroke-opacity="0.3019608" stroke-width="0.05"/>
    </g>
    <linearGradient gradientTransform="matrix(-0.0205, 0.0055, -0.0022, -0.0113, 32.1, 15.35)" gradientUnits="userSpaceOnUse" id="gradient0" spreadMethod="pad" x1="-819.2" x2="819.2">
      <stop offset="0.0" stop-color="#000000" stop-opacity="0.7137255"/>
      <stop offset="1.0" stop-color="#000000" stop-opacity="0.0"/>
    </linearGradient>
  </defs>
</svg>
