<?xml version="1.0" encoding="UTF-8" standalone="no"?>
<svg xmlns:xlink="http://www.w3.org/1999/xlink" height="440.0px" width="440.0px" xmlns="http://www.w3.org/2000/svg">
  <g transform="matrix(10.0, 0.0, 0.0, 10.0, 0.0, 0.0)">
    <use height="44.0" transform="matrix(1.0, 0.0, 0.0, 1.0, 0.0, 0.0)" width="44.0" xlink:href="#shape0"/>
  </g>
  <defs>
    <g id="shape0" transform="matrix(1.0, 0.0, 0.0, 1.0, 0.0, 0.0)">
      <path d="M44.0 44.0 L0.0 44.0 0.0 0.0 44.0 0.0 44.0 44.0" fill="#43adca" fill-opacity="0.0" fill-rule="evenodd" stroke="none"/>
      <path d="M24.95 30.55 Q27.35 28.05 27.95 24.45 29.3 27.85 27.8 32.25 L29.8 29.65 27.3 33.0 26.7 33.7 26.1 34.35 26.3 34.1 25.6 32.4 25.4 32.6 25.9 31.55 24.95 30.55 M26.1 34.35 L26.7 33.7 26.1 34.35" fill="#999999" fill-rule="evenodd" stroke="none"/>
      <path d="M19.85 5.75 L24.3 3.95 25.45 4.85 Q21.55 5.35 21.3 6.35 L21.25 6.35 19.85 5.75" fill="#cccccc" fill-rule="evenodd" stroke="none"/>
      <path d="M18.25 40.85 L18.1 41.1 18.1 40.55 Q22.3 34.95 24.95 30.55 L25.9 31.55 25.4 32.6 18.25 40.85 M27.95 24.45 Q30.9 16.85 26.95 13.9 L22.6 10.85 21.05 10.35 21.25 6.8 22.55 7.7 Q22.3 7.75 22.25 7.95 L22.15 8.3 Q22.15 8.7 24.95 10.8 L29.7 14.35 32.45 17.45 33.0 19.25 Q33.35 20.35 34.0 20.55 L34.0 21.85 Q32.4 25.9 29.8 29.65 L27.8 32.25 Q29.3 27.85 27.95 24.45 M21.75 7.95 L22.25 7.95 21.75 7.95" fill="#8a8a8a" fill-rule="evenodd" stroke="none"/>
      <path d="M41.8 14.35 L41.65 15.85 Q39.75 16.45 39.75 18.0 L39.55 19.55 Q39.4 19.6 39.4 19.95 L39.55 20.2 39.35 20.5 Q39.2 20.3 38.85 20.65 L38.05 21.6 37.65 22.45 37.35 23.3 37.4 23.55 37.65 23.75 37.45 24.45 37.45 24.5 Q37.4 24.35 37.15 24.35 36.8 24.35 36.8 24.7 L37.0 25.05 36.9 25.2 Q36.8 25.0 36.5 25.0 L35.6 25.9 34.95 26.8 35.05 27.05 34.7 27.3 Q35.0 28.9 33.2 28.85 L32.65 28.95 Q32.1 29.4 32.1 29.75 L32.15 29.9 32.15 29.95 31.5 30.65 31.4 30.65 Q31.05 30.65 31.05 31.0 L31.1 31.1 30.3 31.9 30.2 31.85 Q29.8 31.85 29.8 32.2 L29.85 32.3 29.8 32.35 Q29.65 32.2 29.2 32.55 28.4 33.15 28.4 33.55 L28.4 33.65 28.15 33.9 27.9 33.8 Q27.6 33.8 27.05 34.35 26.5 34.8 26.5 35.0 L26.6 35.25 19.4 41.35 18.1 41.65 21.5 38.85 26.1 34.35 26.7 33.7 27.3 33.0 29.8 29.65 Q32.4 25.9 34.0 21.85 37.15 15.55 39.65 14.35 L40.15 14.15 Q41.05 13.9 41.8 14.35" fill="url(#gradient0)" fill-rule="evenodd" stroke="none"/>
      <path d="M21.5 38.85 L18.25 41.45 18.25 40.85 25.4 32.6 25.6 32.4 26.3 34.1 26.1 34.35 21.5 38.85" fill="url(#gradient1)" fill-rule="evenodd" stroke="none"/>
      <path d="M19.85 5.75 L21.25 6.35 21.25 6.8 21.05 10.35 19.85 9.95 19.85 5.75" fill="#e6e6e6" fill-rule="evenodd" stroke="none"/>
      <path d="M41.65 15.85 Q40.25 23.65 33.8 30.55 L31.85 31.0 31.85 32.45 27.25 36.3 26.2 36.3 26.0 37.2 19.75 41.25 19.4 41.35 26.6 35.25 26.5 35.0 Q26.5 34.8 27.05 34.35 27.6 33.8 27.9 33.8 L28.15 33.9 28.4 33.65 28.4 33.55 Q28.4 33.15 29.2 32.55 29.65 32.2 29.8 32.35 L29.85 32.3 29.8 32.2 Q29.8 31.85 30.2 31.85 L30.3 31.9 31.1 31.1 31.05 31.0 Q31.05 30.65 31.4 30.65 L31.5 30.65 32.15 29.95 32.15 29.9 32.1 29.75 Q32.1 29.4 32.65 28.95 L33.2 28.85 Q35.0 28.9 34.7 27.3 L35.05 27.05 34.95 26.8 35.6 25.9 36.5 25.0 Q36.8 25.0 36.9 25.2 L37.0 25.05 36.8 24.7 Q36.8 24.35 37.15 24.35 37.4 24.35 37.45 24.5 L37.45 24.45 37.65 23.75 37.4 23.55 37.35 23.3 37.65 22.45 38.05 21.6 38.85 20.65 Q39.2 20.3 39.35 20.5 L39.55 20.2 39.4 19.95 Q39.4 19.6 39.55 19.55 L39.75 18.0 Q39.75 16.45 41.65 15.85" fill="url(#gradient2)" fill-rule="evenodd" stroke="none"/>
      <path d="M34.0 20.55 Q33.35 20.35 33.0 19.25 L32.45 17.45 29.7 14.35 24.95 10.8 Q22.15 8.7 22.15 8.3 L22.25 7.95 25.9 7.75 25.85 7.95 26.15 8.2 26.35 8.4 Q26.85 8.1 28.6 9.3 31.05 11.05 31.05 11.5 L31.0 11.7 31.8 12.2 Q32.4 12.05 34.25 12.8 37.0 14.0 37.0 14.3 L37.0 14.45 39.65 14.35 Q37.15 15.55 34.0 21.85 L34.0 20.55" fill="#bdbdbd" fill-rule="evenodd" stroke="none"/>
      <path d="M25.45 4.85 L27.55 6.45 Q33.1 10.55 37.3 11.1 L37.9 12.4 38.55 11.1 41.35 10.6 Q42.0 12.75 41.8 14.35 41.05 13.9 40.15 14.15 L39.65 14.35 37.0 14.45 37.0 14.3 Q37.0 14.0 34.25 12.8 32.4 12.05 31.8 12.2 L31.0 11.7 31.05 11.5 Q31.05 11.05 28.6 9.3 26.85 8.1 26.35 8.4 L26.15 8.2 25.85 7.95 25.9 7.75 25.9 7.6 Q25.9 7.1 25.25 7.05 L25.05 7.05 Q24.4 5.95 25.45 4.85" fill="url(#gradient3)" fill-rule="evenodd" stroke="none"/>
      <path d="M21.25 6.35 L21.3 6.35 Q21.55 5.35 25.45 4.85 24.4 5.95 25.05 7.05 L25.25 7.05 Q25.9 7.1 25.9 7.6 L25.9 7.75 22.25 7.95 Q22.3 7.75 22.55 7.7 L21.25 6.8 21.25 6.35" fill="#fafafa" fill-rule="evenodd" stroke="none"/>
      <path d="M25.45 4.85 L24.3 3.95 19.85 5.75 21.25 6.35 21.3 6.35 M25.45 4.85 L27.55 6.45 Q33.1 10.55 37.3 11.1 M38.55 11.1 L41.35 10.6 Q42.0 12.75 41.8 14.35 L41.65 15.85 Q40.25 23.65 33.8 30.55 M31.85 32.45 L27.25 36.3 M26.0 37.2 L19.75 41.25 M18.1 41.65 L21.5 38.85 M18.1 40.55 Q22.3 34.95 24.95 30.55 27.35 28.05 27.95 24.45 30.9 16.85 26.95 13.9 L22.6 10.85 21.05 10.35 19.85 9.95 19.85 5.75 M22.25 7.95 L21.75 7.95 M22.55 7.7 L21.25 6.8 21.05 10.35 M21.25 6.8 L21.25 6.35 M39.65 14.35 L40.15 14.15 Q41.05 13.9 41.8 14.35 M34.0 21.85 L34.0 20.55 M39.65 14.35 Q37.15 15.55 34.0 21.85 32.4 25.9 29.8 29.65 L27.3 33.0 26.7 33.7 26.1 34.35 21.5 38.85" fill="none" stroke="#000000" stroke-linecap="round" stroke-linejoin="round" stroke-opacity="0.17254902" stroke-width="0.05"/>
      <path d="M21.05 10.35 L21.3 6.75 28.6 12.05 Q34.35 15.6 34.0 21.85 32.45 25.9 29.85 29.65 L27.3 33.0 26.7 33.7 26.15 34.3 21.5 38.85 18.3 41.45 18.3 40.85 18.1 41.05 18.1 40.5 Q22.35 34.95 25.0 30.5 27.35 28.05 28.0 24.45 30.95 16.85 27.0 13.9 L22.65 10.85 21.05 10.35" fill="url(#gradient4)" fill-rule="evenodd" stroke="none"/>
      <path d="M29.15 8.55 L30.1 7.35 30.2 7.5 29.15 8.55 M15.05 25.9 L15.2 25.7 15.15 25.8 15.05 25.9 M22.2 17.45 L21.7 17.65 22.15 17.25 22.2 17.45 M24.5 17.7 L24.35 17.9 24.45 17.7 24.5 17.7" fill="#bfbb71" fill-rule="evenodd" stroke="none"/>
      <path d="M30.1 7.35 L30.55 7.0 30.2 7.5 30.1 7.35" fill="#e8cd98" fill-rule="evenodd" stroke="none"/>
      <path d="M22.5 15.25 L30.15 6.3 31.05 3.15 33.45 2.4 33.6 3.85 33.95 4.5 22.55 16.95 24.35 14.75 22.15 17.25 21.7 17.65 22.2 17.45 22.45 17.35 Q16.05 23.75 16.5 23.85 L22.3 18.4 22.35 18.8 16.25 25.3 7.4 37.05 15.2 25.9 15.2 25.7 15.05 25.9 13.65 27.7 4.75 38.6 6.15 35.75 3.3 39.1 Q2.7 38.55 2.4 36.4 L17.4 20.9 17.45 20.85 17.75 20.55 17.65 20.15 18.0 20.2 18.2 19.95 18.2 19.5 18.65 19.5 18.95 19.2 19.0 19.2 19.15 18.95 21.95 15.9 27.9 10.3 30.2 7.5 30.55 7.0 30.1 7.35 29.15 8.55 22.55 15.3 22.5 15.25 M3.3 36.75 Q4.1 36.75 6.05 35.1 5.65 34.95 4.3 36.0 9.8 30.65 9.45 29.7 4.3 36.25 3.3 36.75" fill="#b86743" fill-rule="evenodd" stroke="none"/>
      <path d="M22.5 15.25 L22.55 15.3 29.15 8.55 30.2 7.5 27.9 10.3 21.95 15.9 22.5 15.25 M3.3 39.1 L6.15 35.75 4.75 38.6 13.65 27.7 15.05 25.9 15.15 25.8 15.2 25.9 7.4 37.05 16.25 25.3 22.35 18.8 22.3 18.4 16.5 23.85 Q16.05 23.75 22.45 17.35 L22.2 17.45 22.15 17.25 24.35 14.75 22.55 16.95 33.95 4.5 35.7 4.0 36.35 6.15 35.65 8.4 33.65 7.85 33.6 7.95 32.6 8.75 32.8 8.55 24.5 17.7 24.45 17.7 24.35 17.9 24.3 17.9 21.7 20.7 21.5 21.0 21.25 21.25 21.25 21.9 20.65 21.9 20.5 22.05 20.6 22.35 20.15 22.4 20.1 22.5 20.05 22.5 6.3 39.6 Q3.85 39.55 3.3 39.1 M32.8 8.55 L33.6 7.95 32.8 8.55 M33.1 6.9 L35.7 4.0 33.1 6.9 M3.3 36.75 Q4.3 36.25 9.45 29.7 9.8 30.65 4.3 36.0 5.65 34.95 6.05 35.1 4.1 36.75 3.3 36.75" fill="#783318" fill-rule="evenodd" stroke="none"/>
      <path d="M19.15 18.95 L19.0 19.2 M17.45 20.85 L17.4 20.9 M21.7 20.7 L21.5 21.0" fill="none" stroke="#000000" stroke-linecap="round" stroke-linejoin="round" stroke-opacity="0.2509804" stroke-width="0.05"/>
      <path d="M35.7 4.0 L33.1 6.9" fill="none" stroke="#6e6735" stroke-linecap="round" stroke-linejoin="round" stroke-opacity="0.7019608" stroke-width="0.05"/>
      <path d="M33.95 4.5 L33.6 3.85 33.45 2.4 31.05 3.15 30.15 6.3 22.5 15.25 21.95 15.9 19.15 18.95 M17.4 20.9 L2.4 36.4 Q2.7 38.55 3.3 39.1 M33.95 4.5 L35.7 4.0 36.35 6.15 35.65 8.4 33.65 7.85 33.6 7.95 32.6 8.75 32.8 8.55 24.5 17.7 24.35 17.9 24.3 17.9 21.7 20.7 M20.05 22.5 L6.3 39.6 Q3.85 39.55 3.3 39.1 M33.6 7.95 L32.8 8.55 M24.35 17.9 L24.45 17.7" fill="none" stroke="#000000" stroke-linecap="round" stroke-linejoin="round" stroke-opacity="0.3019608" stroke-width="0.05"/>
      <path d="M25.9 9.25 L26.15 9.1 Q27.15 8.65 26.65 9.75 L22.75 14.05 Q20.65 15.25 22.05 13.55 L25.9 9.25" fill="#ffffff" fill-rule="evenodd" stroke="none"/>
      <path d="M32.8 8.55 L33.2 8.9 23.55 19.65 22.05 21.35 21.55 20.7 25.15 17.55 28.9 13.55 30.4 11.75 31.9 9.8 32.8 8.55" fill="#90afd1" fill-rule="evenodd" stroke="none"/>
      <path d="M26.65 9.75 Q27.15 8.65 26.15 9.1 L25.9 9.25 29.45 6.3 29.45 5.05 30.5 5.05 33.4 8.25 33.6 8.35 33.2 8.9 32.8 8.55 32.2 8.15 30.65 6.95 30.7 6.8 Q30.7 6.4 30.2 6.4 L30.05 6.4 29.95 6.2 28.55 8.4 24.55 13.0 Q27.1 9.65 26.65 9.75 M22.05 13.55 Q20.65 15.25 22.75 14.05 20.4 16.3 24.3 13.6 L19.65 17.35 20.0 18.7 19.95 18.7 18.7 17.35 19.7 16.15 22.05 13.55" fill="#ebf5ff" fill-rule="evenodd" stroke="none"/>
      <path d="M22.75 14.05 L26.65 9.75 Q27.1 9.65 24.55 13.0 L28.55 8.4 29.95 6.2 30.05 6.4 30.2 6.4 Q30.7 6.4 30.7 6.8 L30.65 6.95 32.2 8.15 31.1 9.25 30.5 9.3 29.8 10.0 29.25 10.6 28.65 10.8 Q28.3 10.85 28.3 11.25 28.3 11.65 28.7 11.65 L28.3 12.1 28.3 12.05 27.95 11.65 Q27.45 11.65 27.45 12.05 27.45 12.45 27.8 12.45 L27.95 12.45 25.8 14.6 25.55 14.45 Q25.05 14.45 25.05 14.85 25.05 15.1 25.2 15.2 L24.6 15.8 Q24.45 15.65 24.35 15.65 24.0 15.65 23.15 16.2 L22.35 16.85 Q22.35 17.3 22.75 17.3 L23.4 17.05 20.7 19.7 19.95 18.7 20.0 18.7 19.65 17.35 24.3 13.6 Q20.4 16.3 22.75 14.05" fill="#5e6878" fill-rule="evenodd" stroke="none"/>
      <path d="M32.2 8.15 L32.8 8.55 31.9 9.8 30.4 11.75 28.9 13.55 25.15 17.55 21.55 20.7 20.7 19.7 23.4 17.05 22.75 17.3 Q22.35 17.3 22.35 16.85 L23.15 16.2 Q24.0 15.65 24.35 15.65 24.45 15.65 24.6 15.8 L25.2 15.2 Q25.05 15.1 25.05 14.85 25.05 14.45 25.55 14.45 L25.8 14.6 27.95 12.45 27.8 12.45 Q27.45 12.45 27.45 12.05 27.45 11.65 27.95 11.65 L28.3 12.05 28.3 12.1 28.7 11.65 Q28.3 11.65 28.3 11.25 28.3 10.85 28.65 10.8 L29.25 10.6 29.8 10.0 30.5 9.3 31.1 9.25 32.2 8.15" fill="#7c889e" fill-rule="evenodd" stroke="none"/>
      <path d="M25.9 9.25 L22.05 13.55 19.7 16.15 M33.2 8.9 L33.6 8.35 33.4 8.25 30.5 5.05 M29.45 6.3 L25.9 9.25 M23.55 19.65 L33.2 8.9" fill="none" stroke="#000000" stroke-linecap="round" stroke-linejoin="round" stroke-opacity="0.2" stroke-width="0.05"/>
      <path d="M30.5 5.05 L29.45 5.05 29.45 6.3 M19.7 16.15 L18.7 17.35 19.95 18.7 20.7 19.7 21.55 20.7 22.05 21.35 23.55 19.65" fill="none" stroke="#000000" stroke-linecap="round" stroke-linejoin="round" stroke-opacity="0.3019608" stroke-width="0.05"/>
      <path d="M15.8 23.5 L16.8 22.25 17.45 21.6 15.8 23.5" fill="#000000" fill-opacity="0.72156864" fill-rule="evenodd" stroke="none"/>
      <path d="M11.9 30.25 L12.1 30.05 12.15 30.05 12.0 30.15 11.9 30.25" fill="#000000" fill-opacity="0.52156866" fill-rule="evenodd" stroke="none"/>
      <path d="M3.35 36.3 L11.9 30.25 12.0 30.15 12.15 30.05 12.65 29.5 13.1 28.95 16.5 25.3 17.05 24.8 26.8 14.35 10.9 32.7 Q9.1 34.05 8.15 35.9 7.35 36.35 6.65 38.55 5.25 37.9 4.15 39.15 L3.7 38.75 Q2.6 37.75 3.35 36.3" fill="#000000" fill-opacity="0.4627451" fill-rule="evenodd" stroke="none"/>
      <path d="M34.25 6.35 L33.8 6.85 33.7 6.8 Q32.8 6.8 32.8 7.6 L32.9 7.9 26.8 14.35 17.05 24.8 16.5 25.3 13.1 28.95 12.65 29.5 12.15 30.05 12.1 30.05 11.9 30.25 3.35 36.3 Q13.45 26.85 18.55 20.3 L19.45 19.3 Q19.65 19.6 20.1 19.6 20.5 19.6 20.7 19.3 L20.9 18.8 Q20.9 18.3 20.5 18.15 L30.4 7.2 29.85 7.75 29.5 8.05 30.45 7.1 30.85 6.75 31.65 5.85 32.3 5.1 32.35 5.95 34.25 6.15 34.25 6.25 34.25 6.35" fill="#000000" fill-opacity="0.24313726" fill-rule="evenodd" stroke="none"/>
      <path d="M34.25 6.35 L34.25 6.25" fill="none" stroke="#6e6735" stroke-linecap="round" stroke-linejoin="round" stroke-opacity="0.7019608" stroke-width="0.05"/>
    </g>
    <linearGradient gradientTransform="matrix(-0.0112, 0.0181, -0.0049, -0.0026, 31.65, 26.7)" gradientUnits="userSpaceOnUse" id="gradient0" spreadMethod="pad" x1="-819.2" x2="819.2">
      <stop offset="0.0" stop-color="#333333"/>
      <stop offset="1.0" stop-color="#c1d7de"/>
    </linearGradient>
    <linearGradient gradientTransform="matrix(-0.0194, 0.002, -0.0012, -0.0095, 26.4, 18.3)" gradientUnits="userSpaceOnUse" id="gradient1" spreadMethod="pad" x1="-819.2" x2="819.2">
      <stop offset="0.0" stop-color="#333333"/>
      <stop offset="1.0" stop-color="#c1c9cc"/>
    </linearGradient>
    <linearGradient gradientTransform="matrix(-0.0112, 0.0181, -0.0049, -0.0026, 31.65, 26.7)" gradientUnits="userSpaceOnUse" id="gradient2" spreadMethod="pad" x1="-819.2" x2="819.2">
      <stop offset="0.0" stop-color="#a6a6a6"/>
      <stop offset="1.0" stop-color="#def5ff"/>
    </linearGradient>
    <linearGradient gradientTransform="matrix(0.0165, -0.0041, 0.0021, 0.0075, 31.85, 10.25)" gradientUnits="userSpaceOnUse" id="gradient3" spreadMethod="pad" x1="-819.2" x2="819.2">
      <stop offset="0.0" stop-color="#666666"/>
      <stop offset="1.0" stop-color="#c1d7de"/>
    </linearGradient>
    <linearGradient gradientTransform="matrix(-0.0158, 0.0085, -0.0114, -0.0183, 26.05, 24.1)" gradientUnits="userSpaceOnUse" id="gradient4" spreadMethod="pad" x1="-819.2" x2="819.2">
      <stop offset="0.0" stop-color="#333333"/>
      <stop offset="1.0" stop-color="#c1c8cc" stop-opacity="0.0"/>
    </linearGradient>
  </defs>
</svg>
