<?xml version="1.0" encoding="UTF-8" standalone="no"?>
<svg xmlns:xlink="http://www.w3.org/1999/xlink" height="520.0px" width="520.0px" xmlns="http://www.w3.org/2000/svg">
  <g transform="matrix(10.0, 0.0, 0.0, 10.0, 0.0, 0.0)">
    <use height="52.0" transform="matrix(1.0, 0.0, 0.0, 1.0, 0.0, 0.0)" width="52.0" xlink:href="#shape0"/>
    <use height="64.9" transform="matrix(0.0654, 0.2565, -0.2987, 0.2819, 29.7973, 19.9457)" width="35.8" xlink:href="#sprite0"/>
    <use height="23.3" transform="matrix(1.0, 0.0, 0.0, 1.0, 6.95, 5.75)" width="30.4" xlink:href="#shape3"/>
    <use height="39.35" transform="matrix(0.4452, 0.5354, -0.3176, 0.3804, 18.9812, 5.4065)" width="12.45" xlink:href="#sprite4"/>
    <use height="49.3" transform="matrix(0.4452, 0.5354, -0.3176, 0.3804, 20.3729, 1.2476)" width="32.65" xlink:href="#sprite5"/>
    <use height="15.4" transform="matrix(1.0, 0.0, 0.0, 1.0, 34.85, 5.05)" width="12.7" xlink:href="#shape6"/>
    <use height="14.1" transform="matrix(-0.7579, -0.4507, 0.0503, -0.7791, 47.3494, 17.4163)" width="4.1" xlink:href="#sprite6"/>
    <use height="14.1" transform="matrix(-0.7579, -0.4507, 0.0503, -0.7791, 46.42, 16.738)" width="9.3" xlink:href="#sprite7"/>
    <use height="46.1" transform="matrix(1.0, 0.0, 0.0, 1.0, 6.4, 3.65)" width="41.7" xlink:href="#shape9"/>
  </g>
  <defs>
    <g id="shape0" transform="matrix(1.0, 0.0, 0.0, 1.0, 0.0, 0.0)">
      <path d="M52.0 0.0 L52.0 52.0 0.0 52.0 0.0 0.0 52.0 0.0" fill="#33cc33" fill-opacity="0.0" fill-rule="evenodd" stroke="none"/>
      <path d="M35.05 18.0 L35.6 19.15 34.55 18.5 35.05 18.0" fill="#c7d4d3" fill-rule="evenodd" stroke="none"/>
      <path d="M36.7 16.3 L37.95 16.8 38.2 16.85 41.4 17.8 43.4 22.1 42.35 21.85 40.25 21.15 40.2 21.1 39.8 21.05 39.25 20.7 37.2 19.95 35.6 19.2 35.6 19.15 35.05 18.0 36.7 16.3 M45.0 22.4 L45.15 22.45 45.1 22.5 45.0 22.4" fill="#7cada6" fill-rule="evenodd" stroke="none"/>
      <path d="M43.4 22.1 L41.4 17.8 43.15 18.15 45.0 22.4 43.4 22.1" fill="#9cc7c1" fill-rule="evenodd" stroke="none"/>
      <path d="M35.6 19.15 L35.6 19.2 37.2 19.95 39.8 21.05 40.2 21.1 40.25 21.15 42.35 21.85 43.4 22.1 45.0 22.4 45.1 22.5 42.2 25.55 41.25 25.05 39.8 24.45 38.45 23.95 Q35.4 22.9 32.35 22.55 L30.85 22.35 34.55 18.5 35.6 19.15" fill="#5ba198" fill-rule="evenodd" stroke="none"/>
      <path d="M41.4 17.8 L38.2 16.85 37.95 16.8 36.7 16.3 M35.6 19.15 L35.6 19.2 37.2 19.95 M39.8 21.05 L40.2 21.1 40.25 21.15 42.35 21.85 43.4 22.1 45.0 22.4 45.15 22.45 45.1 22.5 42.2 25.55 41.25 25.05 39.8 24.45 38.45 23.95 Q35.4 22.9 32.35 22.55 L30.85 22.35 M41.4 17.8 L43.15 18.15 45.0 22.4 45.1 22.5 M34.55 18.5 L35.6 19.15 M39.8 21.05 L37.2 19.95" fill="none" stroke="#ffffff" stroke-linecap="round" stroke-linejoin="round" stroke-opacity="0.4509804" stroke-width="0.05"/>
      <path d="M36.1 10.45 L40.05 9.55 39.45 12.55 36.1 10.45 M35.0 20.05 L32.55 24.1 29.35 26.35 31.4 22.55 35.0 20.05 M20.75 39.55 L21.05 36.55 23.45 38.8 20.75 39.55" fill="#526e78" fill-rule="evenodd" stroke="none"/>
      <path d="M13.8 49.3 L7.35 39.55 7.7 37.7 22.0 27.05 24.45 29.5 25.85 32.1 22.8 36.4 23.45 38.8 21.05 36.55 20.75 39.55 13.8 49.3" fill="#364a4f" fill-rule="evenodd" stroke="none"/>
      <path d="M40.05 9.55 L41.8 10.95 42.55 18.2 40.1 15.25 39.45 12.55 40.05 9.55 M30.45 30.3 L21.4 46.3 17.85 48.4 13.8 49.3 20.75 39.55 23.45 38.8 22.8 36.4 25.85 32.1 30.45 30.3" fill="#0b1012" fill-rule="evenodd" stroke="none"/>
      <path d="M23.15 27.05 L23.05 26.8 36.1 10.45 39.45 12.55 40.1 15.25 35.0 20.05 31.4 22.55 25.85 32.1 24.45 29.5 23.85 28.25 23.5 27.65 23.15 27.05" fill="#3c5057" fill-rule="evenodd" stroke="none"/>
      <path d="M22.0 27.05 L23.15 27.05 23.5 27.65 23.85 28.25 24.45 29.5 22.0 27.05" fill="#232f33" fill-rule="evenodd" stroke="none"/>
      <path d="M42.55 18.2 L30.5 30.15 30.45 30.3 25.85 32.1 29.35 26.35 32.55 24.1 35.0 20.05 40.1 15.25 42.55 18.2" fill="#212e36" fill-rule="evenodd" stroke="none"/>
      <path d="M36.1 10.45 L39.45 12.55 M35.0 20.05 L32.55 24.1 29.35 26.35 31.4 22.55 35.0 20.05" fill="none" stroke="#000000" stroke-linecap="round" stroke-linejoin="round" stroke-opacity="0.15294118" stroke-width="0.05"/>
      <path d="M40.05 9.55 L41.8 10.95 42.55 18.2 30.5 30.15 30.45 30.3 21.4 46.3 17.85 48.4 13.8 49.3 M7.7 37.7 L22.0 27.05 23.15 27.05 23.05 26.8 36.1 10.45 40.05 9.55 39.45 12.55 40.1 15.25 42.55 18.2 M40.1 15.25 L35.0 20.05 M29.35 26.35 L25.85 32.1 30.45 30.3 M20.75 39.55 L23.45 38.8 22.8 36.4 25.85 32.1 24.45 29.5 22.0 27.05 M20.75 39.55 L13.8 49.3 M24.45 29.5 L23.85 28.25 23.5 27.65 23.15 27.05" fill="none" stroke="#000000" stroke-linecap="round" stroke-linejoin="round" stroke-opacity="0.3019608" stroke-width="0.05"/>
      <path d="M7.35 39.55 L7.7 37.7" fill="none" stroke="#ffffff" stroke-linecap="round" stroke-linejoin="round" stroke-opacity="0.4509804" stroke-width="0.05"/>
    </g>
    <g id="sprite0" transform="matrix(1.0, 0.0, 0.0, 1.0, -8.8, 36.4)">
      <use height="69.05" transform="matrix(0.9327, 0.0, 0.0, 0.9396, 8.7877, -36.3954)" width="38.4" xlink:href="#sprite1"/>
    </g>
    <g id="sprite1" transform="matrix(1.0, 0.0, 0.0, 1.0, 11.7, 37.35)">
      <use height="6.0" transform="matrix(1.4786, -0.4872, 0.3284, 1.7613, -4.8893, 16.2436)" width="12.2" xlink:href="#sprite2"/>
      <use height="6.0" transform="matrix(0.8242, -0.0759, 0.0891, 0.9666, 11.9879, 25.888)" width="12.2" xlink:href="#sprite2"/>
      <use height="6.0" transform="matrix(1.23, -0.2277, 0.347, 1.2523, -7.665, -28.8861)" width="12.2" xlink:href="#sprite2"/>
      <use height="6.0" transform="matrix(0.5715, -0.1883, 0.1269, 0.6807, 18.9643, 20.2442)" width="12.2" xlink:href="#sprite2"/>
      <use height="6.0" transform="matrix(0.8118, -0.1503, 0.229, 0.8265, -10.9059, -35.5249)" width="12.2" xlink:href="#sprite2"/>
      <use height="6.0" transform="matrix(0.5715, -0.1883, 0.1269, 0.6807, -11.6857, 6.6942)" width="12.2" xlink:href="#sprite2"/>
    </g>
    <g id="sprite2" transform="matrix(1.0, 0.0, 0.0, 1.0, 0.5, 0.0)">
      <use height="5.15" transform="matrix(1.0, 0.0, 0.0, 1.0, 0.25, 0.0)" width="11.2" xlink:href="#shape1"/>
      <use height="3.95" transform="matrix(1.0, 0.0, 0.0, 0.8615, -0.5, 2.6192)" width="12.2" xlink:href="#sprite3"/>
    </g>
    <g id="shape1" transform="matrix(1.0, 0.0, 0.0, 1.0, -0.25, 0.0)">
      <path d="M10.35 3.5 L9.25 4.35 Q7.8 5.15 5.7 5.15 3.65 5.15 2.2 4.35 1.05 3.8 1.0 2.95 L0.7 2.35 0.25 2.15 Q0.6 1.4 1.65 0.85 3.35 0.0 5.7 0.0 8.1 0.0 9.75 0.85 11.4 1.7 11.45 2.95 L10.9 3.0 10.35 3.5" fill="url(#gradient0)" fill-rule="evenodd" stroke="none"/>
    </g>
    <linearGradient gradientTransform="matrix(0.0011, -0.0033, 0.0063, 0.0015, 3.7, 0.0)" gradientUnits="userSpaceOnUse" id="gradient0" spreadMethod="pad" x1="-819.2" x2="819.2">
      <stop offset="0.0" stop-color="#1c0e08" stop-opacity="0.6392157"/>
      <stop offset="1.0" stop-color="#734d3e" stop-opacity="0.0"/>
    </linearGradient>
    <g id="sprite3" transform="matrix(1.0, 0.0, 0.0, 1.0, 0.5, 0.5)">
      <use height="3.95" transform="matrix(1.0, 0.0, 0.0, 1.0, -0.5, -0.5)" width="12.2" xlink:href="#shape2"/>
    </g>
    <g id="shape2" transform="matrix(1.0, 0.0, 0.0, 1.0, 0.5, 0.5)">
      <path d="M0.0 0.0 Q4.35 5.2 11.2 1.2" fill="none" stroke="#262626" stroke-linecap="round" stroke-linejoin="round" stroke-opacity="0.6392157" stroke-width="1.0"/>
    </g>
    <g id="shape3" transform="matrix(1.0, 0.0, 0.0, 1.0, -6.95, -5.75)">
      <path d="M24.0 5.9 L23.65 5.85 23.7 5.75 24.4 5.75 24.4 5.85 24.4 5.9 24.3 5.9 24.2 5.85 24.3 5.9 24.4 5.9 24.3 6.0 24.25 5.9 24.2 5.85 24.0 5.9 M24.25 5.9 L24.4 5.9 24.25 5.9 M35.8 17.8 L35.8 17.75 35.85 17.7 35.85 17.75 35.8 17.8 M35.85 17.7 L35.8 17.75 35.85 17.7" fill="#a3bed1" fill-rule="evenodd" stroke="none"/>
      <path d="M24.3 6.0 L23.6 6.95 Q22.75 8.3 22.85 9.65 L22.95 10.35 Q23.05 11.95 24.35 13.6 L24.45 13.75 Q25.8 15.5 28.2 16.7 L28.2 16.75 29.4 17.25 Q30.3 17.7 31.45 17.95 L31.75 18.05 31.85 18.1 34.3 18.65 34.55 18.7 35.0 18.75 33.55 20.55 33.5 20.5 33.15 20.35 32.8 20.15 30.55 19.55 25.7 18.85 21.85 19.15 20.55 19.35 19.05 19.75 Q15.4 21.0 14.0 23.4 12.3 26.2 14.55 29.05 L13.7 28.8 13.4 28.7 13.15 28.6 Q10.65 27.4 9.3 25.35 L9.0 24.9 8.85 24.5 8.45 23.65 Q7.1 19.95 8.95 16.0 L9.75 14.55 Q11.8 11.0 15.45 8.75 L15.5 8.7 Q16.75 7.95 18.2 7.3 20.75 6.25 24.25 5.9 L24.3 6.0" fill="#5ba198" fill-rule="evenodd" stroke="none"/>
      <path d="M24.0 5.9 L24.2 5.85 24.25 5.9 Q20.75 6.25 18.2 7.3 16.75 7.95 15.5 8.7 L15.0 7.05 Q16.45 6.4 18.0 6.2 L24.0 5.9 M26.55 12.35 L30.05 13.65 30.25 13.7 31.7 14.05 32.8 14.15 34.5 17.6 31.95 17.1 31.9 17.05 31.55 17.0 31.15 16.8 29.45 16.35 28.25 15.8 28.25 15.75 26.55 12.35 M35.8 17.75 L35.7 17.75 35.7 17.5 35.8 17.75" fill="#faffff" fill-rule="evenodd" stroke="none"/>
      <path d="M22.85 9.65 Q23.85 10.85 25.4 11.75 L26.55 12.35 28.25 15.75 Q25.8 14.65 24.4 12.95 L24.25 12.8 Q23.25 11.6 22.95 10.35 L22.85 9.65 M8.95 16.0 Q7.1 19.95 8.45 23.65 L8.3 23.7 7.35 21.45 Q6.2 17.25 8.25 13.45 L8.95 16.0" fill="#a8ded7" fill-rule="evenodd" stroke="none"/>
      <path d="M32.8 14.15 L34.15 14.3 34.25 14.35 34.95 15.8 35.7 17.5 35.7 17.75 35.75 17.85 35.0 18.75 34.55 18.7 34.3 18.65 31.85 18.1 31.75 18.05 31.45 17.95 Q30.3 17.7 29.4 17.25 L28.2 16.75 28.2 16.7 Q25.8 15.5 24.45 13.75 L24.35 13.6 Q23.05 11.95 22.95 10.35 23.25 11.6 24.25 12.8 L24.4 12.95 Q25.8 14.65 28.25 15.75 L28.25 15.8 29.45 16.35 31.55 17.0 31.9 17.05 31.95 17.1 34.5 17.6 32.8 14.15 M15.5 8.7 L15.45 8.75 Q11.8 11.0 9.75 14.55 L8.95 16.0 8.25 13.45 8.3 13.35 9.3 11.7 11.05 9.65 Q12.9 7.95 15.0 7.05 L15.5 8.7" fill="#c1e3df" fill-rule="evenodd" stroke="none"/>
      <path d="M35.7 17.75 L35.8 17.75 35.8 17.8 35.75 17.85 35.7 17.75" fill="#62818f" fill-rule="evenodd" stroke="none"/>
      <path d="M24.4 5.9 L24.4 5.85 24.4 5.75 23.7 5.75 23.65 5.85 24.0 5.9 24.2 5.85 24.3 5.9 24.4 5.9 24.3 6.0 23.6 6.95 Q22.75 8.3 22.85 9.65 23.85 10.85 25.4 11.75 L26.55 12.35 30.05 13.65 30.25 13.7 31.7 14.05 32.8 14.15 34.15 14.3 34.25 14.35 M34.95 15.8 L35.3 15.35 M24.4 5.9 L24.25 5.9 Q20.75 6.25 18.2 7.3 16.75 7.95 15.5 8.7 L15.45 8.75 Q11.8 11.0 9.75 14.55 L8.95 16.0 Q7.1 19.95 8.45 23.65 L8.85 24.5 9.0 24.9 9.3 25.35 Q10.65 27.4 13.15 28.6 L13.4 28.7 13.7 28.8 14.55 29.05 Q12.3 26.2 14.0 23.4 15.4 21.0 19.05 19.75 L20.55 19.35 21.85 19.15 25.7 18.85 30.55 19.55 32.8 20.15 33.15 20.35 33.5 20.5 M35.8 17.75 L35.7 17.5 35.7 17.75 35.75 17.85 35.8 17.8 35.8 17.75 35.85 17.7 35.85 17.75 35.8 17.8 M35.8 17.75 L35.85 17.7 M24.0 5.9 L18.0 6.2 Q16.45 6.4 15.0 7.05 12.9 7.95 11.05 9.65 L9.3 11.7 8.3 13.35 8.25 13.45 Q6.2 17.25 7.35 21.45 L8.3 23.7 8.75 24.5 9.0 24.9" fill="none" stroke="#ffffff" stroke-linecap="round" stroke-linejoin="round" stroke-opacity="0.4509804" stroke-width="0.05"/>
      <path d="M36.2 17.15 L35.8 17.7 M35.65 17.55 L35.2 16.35 34.6 15.1 33.8 13.75 M36.25 18.9 L35.45 18.3 Q35.05 18.2 34.85 18.6 L34.3 19.45 33.65 20.35 33.15 20.95 32.9 21.1" fill="none" stroke="#2e1e0f" stroke-linecap="round" stroke-linejoin="round" stroke-opacity="0.5019608" stroke-width="0.5"/>
    </g>
    <g id="sprite4" transform="matrix(1.0, 0.0, 0.0, 1.0, 6.2, 19.65)">
      <use height="39.35" transform="matrix(1.0, 0.0, 0.0, 1.0, -6.2, -19.65)" width="12.45" xlink:href="#shape4"/>
    </g>
    <g id="shape4" transform="matrix(1.0, 0.0, 0.0, 1.0, 6.2, 19.65)">
      <path d="M-4.65 -8.1 L-2.9 -13.15 Q-1.6 -16.3 0.6 -19.65 L-1.45 -15.5 Q-2.55 -12.95 -3.25 -10.4 L-3.25 -10.25 Q-4.9 -4.55 -4.75 0.9 -4.8 3.3 -4.45 5.7 L-4.0 8.45 Q-2.35 15.85 2.8 18.6 L4.1 19.1 4.75 19.25 5.45 19.45 6.25 19.6 4.9 19.7 3.5 19.45 2.85 19.3 2.25 19.1 1.0 18.6 Q-3.9 16.0 -5.45 9.05 L-5.95 6.3 Q-6.25 4.1 -6.15 1.75 -6.15 -3.0 -4.65 -7.95 L-4.65 -8.1" fill="#a8ded7" fill-opacity="0.42745098" fill-rule="evenodd" stroke="none"/>
    </g>
    <g id="sprite5" transform="matrix(1.0, 0.0, 0.0, 1.0, 16.3, 24.65)">
      <use height="49.3" transform="matrix(1.0, 0.0, 0.0, 1.0, -16.3, -24.65)" width="32.65" xlink:href="#shape5"/>
    </g>
    <g id="shape5" transform="matrix(1.0, 0.0, 0.0, 1.0, 16.3, 24.65)">
      <path d="M16.35 -20.0 L16.3 -19.95 15.2 -19.25 12.1 -16.6 Q8.75 -13.55 6.0 -9.8 3.8 -6.85 1.95 -3.45 L0.7 -1.05 -0.6 1.85 Q-3.5 9.2 -2.9 14.6 -2.1 20.95 3.1 21.1 L1.85 22.15 1.4 22.5 1.05 22.7 Q-2.85 25.15 -6.35 24.55 L-7.0 24.4 -7.6 24.2 -8.85 23.7 Q-13.8 20.95 -15.45 12.85 L-15.95 9.75 Q-16.95 1.8 -14.9 -6.9 L-14.9 -7.05 -13.2 -13.1 Q-11.35 -18.5 -7.7 -24.5 L-7.6 -24.45 -7.5 -22.05 Q-7.2 -19.05 -5.8 -17.4 L-5.0 -16.65 Q-3.4 -14.75 -0.45 -14.6 L-0.2 -14.6 Q3.0 -14.45 6.75 -16.55 L6.8 -16.55 8.65 -17.75 11.65 -20.05 12.05 -20.45 12.15 -20.5 15.45 -23.7 16.35 -24.65 16.35 -20.0" fill="url(#gradient1)" fill-rule="evenodd" stroke="none"/>
    </g>
    <radialGradient cx="0" cy="0" gradientTransform="matrix(0.0215, 6.0E-4, -0.0018, 0.0691, -13.2, 3.8)" gradientUnits="userSpaceOnUse" id="gradient1" r="819.2" spreadMethod="pad">
      <stop offset="0.0" stop-color="#ffffff" stop-opacity="0.6509804"/>
      <stop offset="1.0" stop-color="#ffffff" stop-opacity="0.0"/>
    </radialGradient>
    <g id="shape6" transform="matrix(1.0, 0.0, 0.0, 1.0, -34.85, -5.05)">
      <path d="M44.8 19.1 L44.4 18.75 44.2 17.4 44.8 19.1" fill="#232f33" fill-rule="evenodd" stroke="none"/>
      <path d="M42.95 18.85 L42.95 18.8 42.95 18.85" fill="#64564f" fill-rule="evenodd" stroke="none"/>
      <path d="M42.95 18.8 L42.05 17.7 42.05 17.6 42.95 17.9 42.95 18.85 42.95 18.8" fill="#6b808a" fill-rule="evenodd" stroke="none"/>
      <path d="M38.7 7.7 L42.75 10.55 43.5 11.45 44.7 13.55 Q44.05 17.15 43.05 17.9 L42.95 17.9 42.05 17.6 39.8 15.25 39.5 14.3 39.2 14.55 37.6 12.55 36.7 11.0 36.65 11.05 36.7 10.95 Q37.4 9.0 38.7 7.7" fill="#364a4f" fill-rule="evenodd" stroke="none"/>
      <path d="M44.7 13.55 L45.15 16.95 45.1 16.95 45.15 18.2 45.15 18.35 45.1 18.4 44.8 19.1 44.2 17.4 44.4 18.75 44.55 19.55 43.75 20.45 42.95 18.85 42.95 17.9 43.05 17.9 Q44.05 17.15 44.7 13.55" fill="#526e78" fill-rule="evenodd" stroke="none"/>
      <path d="M35.6 13.5 L34.85 11.45 36.7 11.0 37.6 12.55 35.6 13.5" fill="#1a2326" fill-rule="evenodd" stroke="none"/>
      <path d="M34.85 11.45 L35.3 9.4 36.35 7.95 38.55 7.55 38.7 7.7 Q37.4 9.0 36.7 10.95 L36.65 11.05 36.7 11.0 34.85 11.45 M39.8 15.25 L39.25 15.5 39.2 14.55 39.5 14.3 39.8 15.25" fill="#0b1012" fill-rule="evenodd" stroke="none"/>
      <path d="M43.75 20.45 L42.9 20.35 40.05 19.65 Q38.4 18.1 37.1 16.35 L35.6 13.5 37.6 12.55 39.2 14.55 39.25 15.5 39.8 15.25 42.05 17.6 42.05 17.7 42.95 18.8 42.95 18.85 43.75 20.45" fill="#2c3a40" fill-rule="evenodd" stroke="none"/>
      <path d="M43.75 20.45 L42.9 20.35 40.05 19.65 Q38.4 18.1 37.1 16.35 L35.6 13.5 34.85 11.45 35.3 9.4 36.35 7.95 38.55 7.55 38.7 7.7 42.75 10.55 43.5 11.45 44.7 13.55 45.15 16.95 45.1 16.95 45.15 18.2 45.15 18.35 45.1 18.4 44.8 19.1 44.4 18.75 44.55 19.55 43.75 20.45 42.95 18.85 42.95 18.8 42.05 17.7 42.05 17.6 39.8 15.25 39.25 15.5 39.2 14.55 37.6 12.55 35.6 13.5 M42.95 17.9 L43.05 17.9 Q44.05 17.15 44.7 13.55 M42.95 17.9 L42.05 17.6 M44.4 18.75 L44.2 17.4 M36.7 11.0 L37.6 12.55 M38.7 7.7 Q37.4 9.0 36.7 10.95 L36.65 11.05 36.7 11.0 34.85 11.45 M39.2 14.55 L39.5 14.3 39.8 15.25" fill="none" stroke="#000000" stroke-linecap="round" stroke-linejoin="round" stroke-opacity="0.3019608" stroke-width="0.05"/>
      <path d="M42.4 16.7 L44.35 15.45 47.55 15.55 44.7 16.9 42.4 16.7 M47.3 5.8 L39.7 9.55 39.55 5.05 47.3 5.8" fill="#a8ded7" fill-rule="evenodd" stroke="none"/>
      <path d="M44.35 15.45 L42.4 16.7 42.2 16.7 38.35 11.7 39.7 9.55 44.35 15.45" fill="#80c9c1" fill-rule="evenodd" stroke="none"/>
      <path d="M47.55 15.55 L44.35 15.45 47.3 5.8 47.55 15.55" fill="#e1f2f0" fill-rule="evenodd" stroke="none"/>
      <path d="M39.7 9.55 L38.35 11.7 38.05 8.45 39.55 5.05 39.7 9.55" fill="#64b0a7" fill-rule="evenodd" stroke="none"/>
      <path d="M44.35 15.45 L39.7 9.55 47.3 5.8 44.35 15.45" fill="#c1e3df" fill-rule="evenodd" stroke="none"/>
      <path d="M42.4 16.7 L44.35 15.45 39.7 9.55 38.35 11.7 42.2 16.7 42.4 16.7 44.7 16.9 47.55 15.55 44.35 15.45 47.3 5.8 39.7 9.55 39.55 5.05 38.05 8.45 38.35 11.7 M39.55 5.05 L47.3 5.8 47.55 15.55" fill="none" stroke="#ffffff" stroke-linecap="round" stroke-linejoin="round" stroke-opacity="0.4509804" stroke-width="0.05"/>
    </g>
    <g id="sprite6" transform="matrix(1.0, 0.0, 0.0, 1.0, 2.05, 7.05)">
      <use height="14.1" transform="matrix(1.0, 0.0, 0.0, 1.0, -2.05, -7.05)" width="4.1" xlink:href="#shape7"/>
    </g>
    <g id="shape7" transform="matrix(1.0, 0.0, 0.0, 1.0, 2.05, 7.05)">
      <path d="M2.05 -7.05 L-0.9 7.05 -2.05 -4.8 2.05 -7.05" fill="url(#gradient2)" fill-rule="evenodd" stroke="none"/>
    </g>
    <radialGradient cx="0" cy="0" gradientTransform="matrix(0.009, 0.0, 0.0, 0.009, 0.0, 0.0)" gradientUnits="userSpaceOnUse" id="gradient2" r="819.2" spreadMethod="pad">
      <stop offset="0.0" stop-color="#ffffff" stop-opacity="0.78039217"/>
      <stop offset="0.9882352941176471" stop-color="#ffffff" stop-opacity="0.0"/>
    </radialGradient>
    <g id="sprite7" transform="matrix(1.0, 0.0, 0.0, 1.0, 4.65, 7.05)">
      <use height="14.1" transform="matrix(1.0, 0.0, 0.0, 1.0, -4.65, -7.05)" width="9.3" xlink:href="#shape8"/>
    </g>
    <g id="shape8" transform="matrix(1.0, 0.0, 0.0, 1.0, 4.65, 7.05)">
      <path d="M4.65 -3.15 L-4.65 7.05 -1.7 -7.05 4.65 -3.15" fill="url(#gradient3)" fill-rule="evenodd" stroke="none"/>
    </g>
    <radialGradient cx="0" cy="0" gradientTransform="matrix(0.0057, 0.0, 0.0, 0.0057, -3.4, -1.3)" gradientUnits="userSpaceOnUse" id="gradient3" r="819.2" spreadMethod="pad">
      <stop offset="0.0" stop-color="#ffffff" stop-opacity="0.78039217"/>
      <stop offset="0.9882352941176471" stop-color="#ffffff" stop-opacity="0.0"/>
    </radialGradient>
    <g id="shape9" transform="matrix(1.0, 0.0, 0.0, 1.0, -6.4, -3.65)">
      <path d="M23.45 27.55 L23.15 27.0 22.95 26.95 22.9 27.0 22.9 26.95 22.95 26.95 23.05 26.8 29.25 19.2 27.8 18.9 26.45 18.75 25.65 18.75 25.1 18.75 23.35 18.8 21.9 19.0 20.5 19.25 19.05 19.7 Q15.4 20.9 14.0 23.35 12.25 26.05 14.55 29.0 L13.7 28.7 13.4 28.6 13.3 28.55 13.1 28.45 Q10.6 27.25 9.25 25.2 L9.2 25.15 9.0 24.8 8.75 24.35 8.4 23.5 8.2 23.65 7.3 21.3 Q6.15 17.15 8.15 13.35 L8.2 13.3 9.25 11.6 Q10.05 10.4 11.05 9.55 12.75 7.75 14.95 6.95 16.4 6.3 17.95 6.0 L23.95 5.8 23.6 5.7 23.65 5.7 24.3 5.7 24.35 5.8 24.3 5.8 24.25 5.9 23.55 6.9 Q22.75 8.2 22.8 9.6 23.85 10.75 25.35 11.65 L26.5 12.2 30.05 13.5 30.2 13.55 31.65 13.85 32.75 14.05 34.95 11.65 34.85 11.3 35.25 9.2 36.35 7.8 38.45 7.45 39.5 4.95 47.1 5.8 47.2 5.7 47.2 5.75 47.3 5.75 47.6 15.55 47.5 15.55 47.5 15.6 47.4 15.6 45.15 16.7 45.15 16.8 45.05 16.75 45.15 18.05 45.15 18.2 45.05 18.3 44.8 18.95 44.45 18.55 44.55 19.4 44.1 19.95 45.1 22.2 45.2 22.2 42.25 25.3 41.3 24.8 39.8 24.2 38.5 23.7 37.25 23.35 30.45 30.05 30.4 30.2 21.35 46.2 17.8 48.3 13.75 49.25 7.3 39.5 7.95 37.4 22.0 27.2 M23.15 27.0 L23.05 26.8" fill="none" stroke="#66ffff" stroke-linecap="round" stroke-linejoin="round" stroke-opacity="0.4" stroke-width="1.0"/>
      <path d="M16.75 11.0 L27.3 25.9 16.15 12.0 13.65 15.75 15.25 11.15 12.55 6.45 15.7 9.7 19.35 3.65 16.75 11.0" fill="#fcf3d8" fill-opacity="0.7921569" fill-rule="evenodd" stroke="none"/>
      <path d="M18.0 15.0 Q17.55 16.0 18.7 19.15 17.6 16.4 16.15 15.0 15.25 14.65 14.4 13.85 13.15 12.5 12.55 10.75 11.9 8.85 12.35 7.65 L10.05 4.85 12.8 7.0 Q13.25 6.45 14.1 6.4 14.95 6.4 15.75 6.9 L16.5 6.1 16.75 7.85 16.9 7.9 Q18.1 9.25 18.75 10.9 19.25 12.75 18.9 13.95 L18.0 15.0 M14.9 8.4 Q14.2 8.4 14.05 9.0 13.85 9.7 14.2 10.55 14.45 11.45 15.1 12.1 15.85 12.8 16.45 12.8 17.05 12.8 17.3 12.2 17.55 11.5 17.25 10.6 L16.25 9.1 Q15.5 8.45 14.9 8.4" fill="#fcf3d8" fill-opacity="0.3019608" fill-rule="evenodd" stroke="none"/>
      <path d="M14.9 8.4 Q15.5 8.45 16.25 9.1 L17.25 10.6 Q17.55 11.5 17.3 12.2 17.05 12.8 16.45 12.8 15.85 12.8 15.1 12.1 14.45 11.45 14.2 10.55 13.85 9.7 14.05 9.0 14.2 8.4 14.9 8.4" fill="#fcf3d8" fill-opacity="0.84313726" fill-rule="evenodd" stroke="none"/>
    </g>
  </defs>
</svg>
