<?xml version="1.0" encoding="UTF-8" standalone="no"?>
<svg xmlns:xlink="http://www.w3.org/1999/xlink" height="440.0px" width="440.0px" xmlns="http://www.w3.org/2000/svg">
  <g transform="matrix(10.0, 0.0, 0.0, 10.0, 0.0, 0.0)">
    <use height="44.0" transform="matrix(1.0, 0.0, 0.0, 1.0, 0.0, 0.0)" width="44.0" xlink:href="#shape0"/>
  </g>
  <defs>
    <g id="shape0" transform="matrix(1.0, 0.0, 0.0, 1.0, 0.0, 0.0)">
      <path d="M44.0 44.0 L0.0 44.0 0.0 0.0 44.0 0.0 44.0 44.0" fill="#43adca" fill-opacity="0.0" fill-rule="evenodd" stroke="none"/>
      <path d="M27.95 40.85 L26.9 41.25 22.4 42.05 26.55 40.6 26.7 40.55 27.45 40.2 26.7 40.55 26.55 40.05 26.65 40.05 26.7 40.0 27.0 39.8 27.45 40.2 27.95 40.85 M6.9 9.4 L6.65 9.6 5.85 9.3 5.55 9.1 6.75 7.8 7.0 8.4 7.35 9.2 6.9 9.4 M27.2 6.3 Q30.45 7.7 32.75 10.35 30.55 8.7 28.9 8.85 L29.3 9.2 28.7 8.75 Q27.0 7.7 25.05 7.05 L24.65 6.85 24.3 6.75 24.25 6.75 Q16.1 3.7 26.7 6.1 L27.2 6.3 M36.75 16.75 Q37.85 19.8 37.85 23.1 L37.75 24.9 37.65 25.35 37.4 26.9 37.3 27.4 37.15 28.1 36.75 29.45 36.6 29.75 Q33.3 35.25 34.25 32.35 L35.25 30.15 35.5 29.3 35.8 28.5 Q36.85 24.7 36.45 21.15 L36.75 16.75 M28.9 8.85 L28.7 8.75 28.9 8.85 M7.0 8.4 L5.85 9.3 7.0 8.4 M26.7 40.55 L26.9 41.25 26.7 40.55" fill="#482920" fill-rule="evenodd" stroke="none"/>
      <path d="M38.8 15.75 Q41.1 21.4 39.5 27.55 38.75 30.75 37.2 33.35 37.95 29.9 37.3 27.4 L37.4 26.9 37.65 25.35 37.75 24.9 37.85 23.1 38.8 15.75 M33.4 37.65 L30.7 39.5 29.65 40.05 29.05 40.35 27.95 40.85 27.45 40.2 28.15 39.75 29.1 39.1 Q33.45 36.3 35.7 31.85 35.3 35.25 33.4 37.65 M6.65 9.6 Q4.65 10.9 3.2 12.65 L4.2 10.8 5.85 9.3 6.65 9.6 M7.0 8.4 L7.4 8.15 Q8.05 7.55 8.9 7.1 9.45 6.75 9.95 6.5 14.75 4.05 20.0 4.4 L23.5 5.0 25.95 5.75 Q26.35 5.85 26.7 6.1 16.1 3.7 24.25 6.75 L22.65 6.3 Q16.05 4.7 9.8 7.65 L8.15 8.6 Q7.7 8.85 7.35 9.2 L7.0 8.4" fill="#b3552a" fill-rule="evenodd" stroke="none"/>
      <path d="M37.2 33.35 Q35.6 35.75 33.4 37.65 35.3 35.25 35.7 31.85 L36.6 29.75 35.7 31.85 Q33.45 36.3 29.1 39.1 L28.15 39.75 27.45 40.2 27.0 39.8 28.25 38.95 Q31.85 36.55 33.95 32.9 L34.25 32.35 Q33.3 35.25 36.6 29.75 L36.75 29.45 37.15 28.1 37.3 27.4 Q37.95 29.9 37.2 33.35 M4.2 10.8 Q4.75 9.9 5.5 9.15 L5.55 9.1 5.85 9.3 4.2 10.8 M6.75 7.8 L8.85 6.05 9.45 5.65 10.45 5.05 Q13.6 3.25 16.9 2.65 20.85 2.0 25.2 3.2 30.5 4.7 34.1 8.35 34.1 9.0 27.2 6.3 L26.7 6.1 Q26.35 5.85 25.95 5.75 L23.5 5.0 20.0 4.4 Q14.75 4.05 9.95 6.5 9.45 6.75 8.9 7.1 8.05 7.55 7.4 8.15 L7.0 8.4 6.75 7.8" fill="#cf7952" fill-rule="evenodd" stroke="none"/>
      <path d="M34.1 8.35 L34.25 8.5 Q35.95 10.25 37.25 12.6 L38.8 15.65 38.8 15.75 37.85 23.1 Q37.85 19.8 36.75 16.75 L35.25 13.7 Q34.15 11.85 32.75 10.35 30.45 7.7 27.2 6.3 34.1 9.0 34.1 8.35" fill="#7a4837" fill-rule="evenodd" stroke="none"/>
      <path d="M22.4 42.05 L21.75 42.15 Q24.25 41.4 26.55 40.05 L26.7 40.55 26.55 40.6 22.4 42.05" fill="#ccb880" fill-rule="evenodd" stroke="none"/>
      <path d="M34.1 8.35 L34.25 8.5 Q35.95 10.25 37.25 12.6 L38.8 15.65 38.8 15.75 Q41.1 21.4 39.5 27.55 38.75 30.75 37.2 33.35 35.6 35.75 33.4 37.65 L30.7 39.5 29.65 40.05 29.05 40.35 27.95 40.85 26.9 41.25 22.4 42.05 21.75 42.15 M26.65 40.05 L6.9 9.4 M3.2 12.65 L4.2 10.8 Q4.75 9.9 5.5 9.15 L5.55 9.1 6.75 7.8 8.85 6.05 9.45 5.65 10.45 5.05 Q13.6 3.25 16.9 2.65 20.85 2.0 25.2 3.2 30.5 4.7 34.1 8.35 M27.2 6.3 Q30.45 7.7 32.75 10.35 34.15 11.85 35.25 13.7 L36.75 16.75 Q37.85 19.8 37.85 23.1 L37.75 24.9 37.65 25.35 37.4 26.9 37.3 27.4 37.15 28.1 36.75 29.45 36.6 29.75 35.7 31.85 M7.0 8.4 L7.4 8.15 Q8.05 7.55 8.9 7.1 9.45 6.75 9.95 6.5 14.75 4.05 20.0 4.4 L23.5 5.0 25.95 5.75 Q26.35 5.85 26.7 6.1 L27.2 6.3 M28.7 8.75 L28.9 8.85 Q30.55 8.7 32.75 10.35 M36.45 21.15 L36.75 16.75 M6.75 7.8 L7.0 8.4 7.35 9.2 M5.85 9.3 L6.65 9.6 M5.85 9.3 L5.55 9.1 M5.85 9.3 L7.0 8.4 M4.2 10.8 L5.85 9.3 M27.0 39.8 L27.45 40.2 28.15 39.75 29.1 39.1 Q33.45 36.3 35.7 31.85 M26.9 41.25 L26.7 40.55 26.55 40.6 22.4 42.05 M27.45 40.2 L26.7 40.55 26.55 40.05 M27.95 40.85 L27.45 40.2" fill="none" stroke="#000000" stroke-linecap="round" stroke-linejoin="round" stroke-opacity="0.3137255" stroke-width="0.05"/>
      <path d="M34.3 9.45 L34.35 9.45 34.85 10.0 34.3 9.45 M36.95 16.1 L36.95 16.25 36.85 16.1 36.95 16.1" fill="#7a4837" fill-rule="evenodd" stroke="none"/>
      <path d="M34.55 9.75 L34.85 10.0 34.35 9.45 33.95 8.95 34.7 8.25 36.0 9.7 Q37.5 11.7 38.4 13.6 L39.0 15.05 38.1 15.5 37.45 15.55 38.0 15.15 37.55 14.25 37.5 14.2 Q36.4 12.0 34.55 9.75" fill="#cccccc" fill-rule="evenodd" stroke="none"/>
      <path d="M34.55 9.75 Q36.4 12.0 37.5 14.2 L37.55 14.25 38.0 15.15 37.45 15.55 38.1 15.5 36.95 16.05 36.95 16.1 36.45 14.9 36.35 14.75 36.25 14.55 Q35.4 12.85 34.1 11.25 L34.05 11.1 34.0 11.05 33.0 9.85 33.95 8.95 34.35 9.45 34.3 9.45 34.55 9.75" fill="#999999" fill-rule="evenodd" stroke="none"/>
      <path d="M33.0 9.85 L34.0 11.05 34.05 11.1 34.1 11.25 Q35.4 12.85 36.25 14.55 L36.35 14.75 36.45 14.9 36.95 16.1 36.85 16.1 36.35 16.2 35.6 14.85 33.45 11.75 32.3 10.45 33.0 9.85" fill="#666666" fill-rule="evenodd" stroke="none"/>
      <path d="M39.0 15.05 L38.4 13.6 Q37.5 11.7 36.0 9.7 L34.7 8.25 M34.05 11.1 L34.1 11.25 M36.85 16.1 L36.35 16.2 35.6 14.85 33.45 11.75 32.3 10.45" fill="none" stroke="#000000" stroke-linecap="round" stroke-linejoin="round" stroke-opacity="0.2" stroke-width="0.05"/>
      <path d="M32.65 10.2 L31.8 10.85 31.05 10.45 31.85 9.5 32.65 10.2" fill="#3d231b" fill-rule="evenodd" stroke="none"/>
      <path d="M33.2 8.05 L33.95 8.95 33.0 9.85 32.65 10.2 31.85 9.5 33.2 8.05 M32.85 9.7 L33.0 9.85 32.85 9.7" fill="#7a4837" fill-rule="evenodd" stroke="none"/>
      <path d="M33.2 8.05 L34.3 6.7 Q35.45 6.75 35.2 7.85 L33.95 8.95 33.2 8.05" fill="#cccccc" fill-rule="evenodd" stroke="none"/>
      <path d="M33.95 8.95 L35.2 7.85 Q35.45 6.75 34.3 6.7 L33.2 8.05 M33.95 8.95 L33.0 9.85 32.65 10.2 31.8 10.85 31.05 10.45 31.85 9.5 33.2 8.05 M33.0 9.85 L32.85 9.7" fill="none" stroke="#000000" stroke-linecap="round" stroke-linejoin="round" stroke-opacity="0.43137255" stroke-width="0.05"/>
      <path d="M36.9 16.25 L36.9 16.1 36.95 16.05 38.25 15.4 38.75 16.5 37.25 17.05 36.9 16.25" fill="#7a4837" fill-rule="evenodd" stroke="none"/>
      <path d="M37.25 17.05 L36.25 17.55 35.85 16.6 36.35 16.25 36.8 16.1 36.9 16.25 37.25 17.05" fill="#3d231b" fill-rule="evenodd" stroke="none"/>
      <path d="M38.25 15.4 L39.8 14.65 Q40.45 15.4 39.95 16.15 L38.75 16.5 38.25 15.4" fill="#cccccc" fill-rule="evenodd" stroke="none"/>
      <path d="M36.9 16.25 L36.9 16.1 36.95 16.05 38.25 15.4 39.8 14.65 Q40.45 15.4 39.95 16.15 L38.75 16.5 37.25 17.05 36.25 17.55 35.85 16.6 36.35 16.25 36.8 16.1 36.9 16.25 Z" fill="none" stroke="#000000" stroke-linecap="round" stroke-linejoin="round" stroke-opacity="0.43137255" stroke-width="0.05"/>
      <path d="M14.2 20.5 L15.55 21.45 Q16.9 24.9 19.4 27.7 L19.65 29.2 18.4 28.6 Q16.85 24.75 14.5 22.2 L14.2 20.5" fill="#333333" fill-rule="evenodd" stroke="none"/>
      <path d="M14.2 20.5 L15.55 21.45 Q16.9 24.9 19.4 27.7 L19.65 29.2 18.4 28.6 Q16.85 24.75 14.5 22.2 L14.2 20.5 Z" fill="none" stroke="#000000" stroke-linecap="round" stroke-linejoin="round" stroke-opacity="0.2" stroke-width="0.05"/>
      <path d="M37.7 29.9 L38.05 29.25 38.2 28.65 39.2 28.95 38.5 30.8 36.25 34.75 35.25 35.85 34.4 35.25 34.15 34.8 34.7 35.05 35.25 34.35 35.3 34.2 37.7 29.9" fill="#cccccc" fill-rule="evenodd" stroke="none"/>
      <path d="M38.05 29.25 L37.85 29.55 37.7 29.9 35.3 34.2 35.25 34.35 34.7 35.05 34.15 34.8 34.4 35.25 33.4 34.55 33.35 34.5 34.15 33.65 34.25 33.45 34.4 33.2 36.35 29.8 36.35 29.7 36.4 29.65 37.0 28.25 38.2 28.65 38.05 29.25" fill="#999999" fill-rule="evenodd" stroke="none"/>
      <path d="M37.0 28.25 L36.4 29.65 36.35 29.7 36.35 29.8 34.4 33.2 34.25 33.45 34.15 33.65 33.35 34.5 33.3 34.5 32.95 34.1 33.8 32.8 35.55 29.5 36.2 27.85 37.0 28.25" fill="#666666" fill-rule="evenodd" stroke="none"/>
      <path d="M36.35 29.7 L36.35 29.8 M36.2 27.85 L35.55 29.5 33.8 32.8 32.95 34.1 33.3 34.5 M35.25 35.85 L36.25 34.75 38.5 30.8 39.2 28.95" fill="none" stroke="#000000" stroke-linecap="round" stroke-linejoin="round" stroke-opacity="0.2" stroke-width="0.05"/>
      <path d="M23.3 4.1 Q23.15 4.0 22.9 4.7 L22.95 3.95 21.9 3.75 21.85 3.75 16.65 3.55 17.0 3.45 16.35 3.5 15.8 3.55 15.65 2.5 17.4 2.3 21.9 2.55 23.5 2.95 23.3 4.1" fill="#cccccc" fill-rule="evenodd" stroke="none"/>
      <path d="M22.95 5.5 L21.75 5.2 21.55 5.1 21.3 5.05 17.5 4.8 17.4 4.8 17.35 4.8 16.0 4.9 15.8 3.55 16.35 3.5 16.35 3.55 16.65 3.55 21.85 3.75 21.9 3.75 22.95 3.95 22.9 4.7 Q23.15 4.0 23.3 4.1 L23.0 5.45 22.95 5.5" fill="#999999" fill-rule="evenodd" stroke="none"/>
      <path d="M17.5 4.8 L21.3 5.05 21.55 5.1 21.75 5.2 22.95 5.5 22.95 5.65 22.75 6.15 21.15 5.8 17.55 5.65 16.05 5.7 16.0 4.9 17.35 4.8 17.4 4.8 17.5 4.8" fill="#666666" fill-rule="evenodd" stroke="none"/>
      <path d="M17.4 4.8 L17.5 4.8 M16.05 5.7 L17.55 5.65 21.15 5.8 22.75 6.15 22.95 5.65 M15.65 2.5 L17.4 2.3 21.9 2.55 23.5 2.95" fill="none" stroke="#000000" stroke-linecap="round" stroke-linejoin="round" stroke-opacity="0.2" stroke-width="0.05"/>
    </g>
  </defs>
</svg>
