<?xml version="1.0" encoding="UTF-8" standalone="no"?>
<svg xmlns:xlink="http://www.w3.org/1999/xlink" height="440.0px" width="440.0px" xmlns="http://www.w3.org/2000/svg">
  <g transform="matrix(10.0, 0.0, 0.0, 10.0, 0.0, 0.0)">
    <use height="44.0" transform="matrix(1.0, 0.0, 0.0, 1.0, 0.0, 0.0)" width="44.0" xlink:href="#shape0"/>
  </g>
  <defs>
    <g id="shape0" transform="matrix(1.0, 0.0, 0.0, 1.0, 0.0, 0.0)">
      <path d="M44.0 44.0 L0.0 44.0 0.0 0.0 44.0 0.0 44.0 44.0" fill="#43adca" fill-opacity="0.0" fill-rule="evenodd" stroke="none"/>
      <path d="M33.7 12.0 L33.3 11.25 32.2 12.5 32.0 12.7 31.05 12.95 29.1 16.2 29.05 16.25 28.9 16.45 28.25 17.2 27.95 16.95 28.95 15.55 29.35 15.0 29.35 14.95 31.4 12.3 31.5 12.1 31.4 12.3 29.75 11.7 29.05 11.25 28.25 10.6 27.55 9.4 27.85 8.95 28.75 10.4 29.1 10.8 29.75 11.3 31.5 12.1 31.85 11.65 32.8 9.9 33.7 10.1 34.15 11.6 33.7 12.0 M32.25 13.4 L32.6 13.0 34.15 14.45 34.9 15.4 Q34.8 15.35 34.85 16.0 L34.85 16.45 35.55 17.8 35.45 18.55 35.45 18.6 35.3 18.5 35.1 17.3 34.35 16.15 33.75 14.65 32.35 13.35 32.25 13.4 M36.5 39.95 L37.05 38.25 36.8 38.65 37.05 38.0 Q37.85 35.9 38.15 33.6 L38.15 33.5 38.2 33.25 38.2 33.15 38.4 30.6 38.05 30.35 38.55 30.25 38.25 29.9 38.45 29.7 38.45 28.75 38.7 28.15 38.55 25.85 37.7 23.55 36.9 23.0 35.05 19.1 35.4 18.8 35.4 18.9 Q36.45 20.75 37.15 22.75 L37.2 22.75 37.9 22.95 37.95 22.95 39.05 26.15 39.25 28.8 38.65 29.1 Q38.85 31.35 38.5 33.65 38.15 36.75 36.85 39.75 L36.5 39.95 M33.0 38.35 L32.9 38.2 35.95 39.5 36.1 39.75 35.75 39.95 34.9 39.85 34.4 39.9 33.0 38.35 M7.45 8.7 L7.4 8.7 5.7 6.0 6.8 5.25 7.45 8.7 M7.35 3.65 L7.8 3.4 Q7.55 3.8 7.6 4.15 L7.2 4.35 7.35 3.65 M9.45 2.85 L10.15 2.65 Q12.0 2.4 14.05 2.65 L16.2 3.1 16.5 2.75 19.65 3.7 19.8 4.35 19.55 4.3 19.15 3.7 16.3 3.05 16.2 3.3 13.55 3.0 13.45 2.9 12.85 2.8 12.85 2.9 11.7 2.8 11.6 2.75 10.7 2.9 9.45 2.85 M20.75 4.85 L22.2 4.45 26.55 7.65 27.35 6.7 27.65 5.9 28.3 6.05 29.1 7.5 28.7 8.0 28.25 7.3 27.15 8.7 28.0 7.0 27.65 6.85 25.8 9.45 24.4 12.5 23.95 12.05 24.05 11.85 24.5 11.2 25.1 10.4 25.1 10.25 25.65 9.15 25.6 9.25 25.7 9.15 26.2 8.2 26.35 8.15 26.3 8.1 23.05 5.8 23.0 5.7 22.95 5.7 21.85 4.95 20.9 5.15 20.75 4.85 M26.3 8.1 L26.55 7.65 26.3 8.1" fill="#66ffff" fill-rule="evenodd" stroke="none"/>
      <path d="M32.2 12.5 L33.3 11.25 33.7 12.0 32.6 13.0 32.25 13.4 29.05 17.35 28.95 17.45 28.8 17.65 28.55 17.45 28.65 17.4 28.8 16.85 29.3 16.65 32.1 13.1 32.2 12.5 M32.95 18.75 L32.75 18.4 33.0 18.7 32.95 18.75 M36.1 39.75 L36.5 39.95 36.85 39.75 36.8 39.9 36.5 39.95 36.4 40.15 36.4 40.05 35.95 40.3 36.1 39.75 M37.15 22.75 L37.2 22.75 37.15 22.75 M34.8 42.1 L34.75 42.1 34.75 42.05 34.8 42.1 M32.65 37.9 L32.6 37.95 32.2 37.6 32.25 37.4 32.7 37.8 32.65 37.9 M7.95 9.3 L7.9 9.35 7.55 9.0 7.6 8.95 7.65 8.8 8.0 9.25 7.95 9.3 M6.2 4.45 L6.6 4.15 Q6.4 4.55 6.5 4.85 L6.55 4.9 6.45 4.9 6.1 5.2 6.2 4.45 M28.7 8.0 L27.85 8.95 27.55 9.4 26.15 11.2 25.35 12.3 24.85 13.0 24.65 12.8 27.1 9.25 26.95 8.8 27.4 8.75 27.15 8.7 28.25 7.3 28.7 8.0 M26.3 8.1 L26.35 8.15 26.2 8.2 26.3 8.1" fill="#5f7587" fill-rule="evenodd" stroke="none"/>
      <path d="M31.4 12.3 L29.35 14.95 29.6 13.7 29.5 13.75 29.1 13.35 28.65 12.95 26.9 11.35 26.15 11.2 27.55 9.4 28.25 10.6 29.05 11.25 29.75 11.7 31.4 12.3 M28.9 16.45 L29.05 16.25 29.1 16.2 31.05 12.95 32.0 12.7 32.2 12.5 32.1 13.1 29.3 16.65 28.8 16.85 28.65 17.4 28.55 17.45 28.9 16.45 M29.05 17.35 L32.25 13.4 32.35 13.35 33.75 14.65 34.35 16.15 35.1 17.3 35.3 18.5 35.45 18.6 35.4 18.75 35.4 18.8 35.05 19.1 36.9 23.0 37.7 23.55 38.55 25.85 38.7 28.15 38.45 28.75 38.45 29.7 38.25 29.9 38.55 30.25 38.05 30.35 38.4 30.6 38.2 33.15 38.2 33.25 38.15 33.5 38.15 33.6 Q37.85 35.9 37.05 38.0 L36.8 38.65 37.05 38.25 36.5 39.95 36.1 39.75 37.35 35.65 37.6 29.85 37.3 29.15 36.65 28.2 36.7 27.65 36.65 27.5 36.35 26.05 36.35 26.1 36.05 25.05 36.3 24.6 36.25 24.0 36.0 23.3 35.2 22.75 32.95 18.75 33.0 18.7 33.15 18.65 33.25 18.6 33.35 18.8 33.5 18.8 33.55 18.85 32.85 17.85 32.15 18.1 29.75 16.5 29.05 17.35 M35.0 20.25 L35.0 19.85 34.75 19.4 34.7 20.15 35.0 20.25 M21.25 24.7 L22.3 27.6 19.85 24.2 19.85 23.0 19.15 22.85 17.0 21.2 18.9 22.0 18.3 19.5 20.1 22.0 19.95 22.85 20.85 22.9 23.65 25.4 21.3 24.7 21.25 24.7 M7.4 8.7 L4.65 6.85 4.7 6.85 5.05 6.55 5.7 6.0 7.4 8.7 M6.6 4.15 L7.35 3.65 7.2 4.35 7.6 4.15 Q7.55 3.8 7.8 3.4 8.6 3.05 9.45 2.85 L10.7 2.9 11.6 2.75 11.7 2.8 12.85 2.9 12.85 2.8 13.45 2.9 13.55 3.0 16.2 3.3 16.3 3.05 19.15 3.7 19.55 4.3 19.8 4.35 19.8 4.4 20.35 4.65 20.75 4.85 20.9 5.15 21.85 4.95 22.95 5.7 23.0 5.7 23.05 5.8 26.3 8.1 26.2 8.2 25.7 9.15 25.65 9.15 25.1 10.25 25.1 10.4 24.5 11.2 24.05 9.75 24.15 9.8 24.1 9.7 23.25 8.4 23.1 8.3 23.2 8.25 22.75 8.0 22.7 8.05 22.45 7.85 22.05 7.75 22.35 7.65 21.95 6.75 21.25 6.95 21.25 7.4 21.0 7.2 21.0 7.15 20.9 6.25 20.85 6.3 17.7 5.5 17.75 5.3 16.95 4.25 16.95 4.15 16.9 4.15 16.9 4.6 16.25 4.45 15.6 4.2 15.25 4.2 11.45 3.65 11.15 3.7 9.7 3.8 8.85 3.95 8.65 4.2 7.9 4.25 6.9 4.7 6.6 4.85 6.55 4.9 6.5 4.85 Q6.4 4.55 6.6 4.15 M24.4 12.5 L25.8 9.45 27.65 6.85 28.0 7.0 27.15 8.7 27.4 8.75 26.95 8.8 27.1 9.25 24.65 12.8 25.2 11.65 24.4 12.5 M25.2 9.05 L23.65 7.3 25.2 9.05 M36.65 23.4 L36.6 23.25 36.55 23.3 36.65 23.4 M33.15 17.0 L31.6 15.25 33.15 17.0" fill="#222930" fill-rule="evenodd" stroke="none"/>
      <path d="M29.35 14.95 L29.35 15.0 28.95 15.55 28.85 13.8 26.85 12.05 25.35 12.3 26.15 11.2 26.9 11.35 28.65 12.95 28.95 13.4 29.1 13.35 29.5 13.75 29.6 13.7 29.35 14.95 M27.95 16.95 L28.25 17.2 28.9 16.45 28.55 17.45 28.8 17.65 28.5 17.95 27.7 17.25 27.95 16.95 M33.35 18.8 L33.25 18.6 33.15 18.65 33.0 18.7 32.75 18.4 32.95 18.75 35.2 22.75 36.0 23.3 36.25 24.0 36.3 24.6 36.05 25.05 36.35 26.1 36.35 26.05 36.65 27.5 36.7 27.65 36.65 28.2 37.3 29.15 37.6 29.85 37.35 35.65 36.1 39.75 35.95 40.3 36.0 40.5 36.1 41.3 35.85 41.9 34.8 42.1 34.75 42.05 33.0 38.35 34.4 39.9 34.9 39.85 35.75 39.95 36.1 39.75 35.95 39.5 36.35 38.4 Q37.75 33.8 37.15 29.15 L37.2 29.1 37.05 29.0 36.45 28.35 35.75 25.1 35.95 24.15 35.8 23.75 35.0 23.2 32.55 18.95 32.2 19.1 31.45 18.4 31.35 18.35 30.65 17.9 29.6 17.55 29.05 17.35 29.75 16.5 32.15 18.1 32.85 17.85 33.55 18.85 33.5 18.8 33.35 18.8 M32.95 18.75 L32.55 18.95 32.95 18.75 M24.65 12.8 L24.85 13.0 24.6 13.3 23.75 12.4 23.95 12.05 24.4 12.5 25.2 11.65 24.65 12.8 M24.5 11.2 L24.05 11.85 Q23.9 10.35 23.0 9.3 22.3 8.4 21.05 7.9 L20.45 7.7 20.45 7.6 20.3 6.65 17.6 6.2 17.55 6.1 16.8 5.15 16.9 4.6 16.8 5.15 15.5 4.75 Q13.3 4.15 11.4 4.15 L9.6 4.3 8.75 4.5 6.8 5.25 6.55 4.95 6.6 4.85 6.9 4.7 7.9 4.25 8.65 4.2 8.85 3.95 9.7 3.8 11.15 3.7 11.45 3.65 15.25 4.2 15.6 4.2 16.25 4.45 16.9 4.6 16.9 4.15 16.95 4.15 16.95 4.25 17.75 5.3 17.7 5.5 20.85 6.3 20.9 6.25 21.0 7.15 21.0 7.2 21.25 7.4 21.3 7.45 21.35 7.45 21.8 7.8 22.05 7.75 22.45 7.85 22.7 8.05 22.6 8.1 22.95 8.45 23.1 8.3 23.25 8.4 24.1 9.7 24.05 9.75 24.5 11.2 M37.3 29.15 L37.2 29.1 37.3 29.15" fill="#ff6600" fill-rule="evenodd" stroke="none"/>
      <path d="M35.0 20.25 L34.7 20.15 34.75 19.4 35.0 19.85 35.0 20.25" fill="#89afb6" fill-rule="evenodd" stroke="none"/>
      <path d="M28.95 17.45 L29.05 17.35 29.6 17.55 28.95 17.45 M36.8 39.9 L36.45 40.65 36.1 41.3 36.0 40.5 35.95 40.3 36.4 40.05 36.4 40.15 36.5 39.95 36.8 39.9 M26.55 7.65 L26.55 7.6 26.55 7.65 M36.65 23.4 L36.55 23.3 36.6 23.25 36.65 23.4" fill="#4a4f64" fill-rule="evenodd" stroke="none"/>
      <path d="M25.7 9.15 L25.6 9.25 25.65 9.15 25.7 9.15 M22.7 8.05 L22.75 8.0 23.2 8.25 23.1 8.3 22.95 8.45 22.6 8.1 22.7 8.05 M22.05 7.75 L21.8 7.8 21.35 7.45 21.3 7.45 21.25 7.4 21.25 6.95 21.95 6.75 22.35 7.65 22.05 7.75" fill="#73abb7" fill-rule="evenodd" stroke="none"/>
      <path d="M5.0 5.5 L6.2 4.45 6.1 5.2 6.45 4.9 6.55 4.9 6.55 4.95 6.8 5.25 5.7 6.0 5.05 6.55 5.0 6.55 4.75 6.7 4.7 6.85 5.0 5.5 M24.1 9.7 L24.15 9.8 24.05 9.75 24.1 9.7" fill="#a4c9d0" fill-rule="evenodd" stroke="none"/>
      <path d="M28.65 12.95 L29.1 13.35 28.95 13.4 28.65 12.95" fill="#599caa" fill-rule="evenodd" stroke="none"/>
      <path d="M4.65 6.85 L4.6 6.9 4.8 5.7 5.0 5.5 4.7 6.85 4.65 6.85 M6.55 4.95 L6.55 4.9 6.6 4.85 6.55 4.95 M5.05 6.55 L4.7 6.85 5.0 6.55 5.05 6.55" fill="#41505c" fill-rule="evenodd" stroke="none"/>
      <path d="M33.7 12.0 L34.15 11.6 33.7 10.1 32.8 9.9 31.85 11.65 31.5 12.1 31.4 12.3 29.35 14.95 M29.35 15.0 L28.95 15.55 27.95 16.95 M28.25 17.2 L28.9 16.45 28.55 17.45 M29.05 16.25 L29.1 16.2 M28.8 17.65 L28.95 17.45 29.05 17.35 32.25 13.4 32.6 13.0 33.7 12.0 M35.45 18.55 L35.55 17.8 34.85 16.45 34.85 16.0 Q34.8 15.35 34.9 15.4 L34.15 14.45 32.6 13.0 M33.0 18.7 L33.15 18.65 33.25 18.6 33.35 18.8 M29.6 17.55 L30.65 17.9 31.35 18.35 M31.45 18.4 L32.2 19.1 32.55 18.95 32.95 18.75 M33.0 18.7 L32.95 18.75 M36.1 39.75 L36.5 39.95 M35.4 18.8 L35.4 18.9 Q36.45 20.75 37.15 22.75 L37.2 22.75 37.9 22.95 37.95 22.95 39.05 26.15 39.25 28.8 38.65 29.1 Q38.85 31.35 38.5 33.65 38.15 36.75 36.85 39.75 L36.8 39.9 36.45 40.65 36.1 41.3 35.85 41.9 34.8 42.1 34.75 42.1 34.75 42.05 33.0 38.35 32.9 38.2 32.65 37.9 32.6 37.95 32.2 37.6 32.25 37.4 21.3 24.7 21.25 24.7 M18.9 22.0 L7.95 9.3 7.9 9.35 7.55 9.0 7.6 8.95 7.45 8.75 7.45 8.7 7.4 8.7 4.65 6.85 4.6 6.9 4.8 5.7 5.0 5.5 6.2 4.45 6.6 4.15 7.35 3.65 7.8 3.4 Q8.6 3.05 9.45 2.85 L10.15 2.65 Q12.0 2.4 14.05 2.65 L16.2 3.1 16.5 2.75 19.65 3.7 19.8 4.35 19.8 4.4 20.35 4.65 20.75 4.85 22.2 4.45 26.55 7.65 26.55 7.6 26.55 7.65 27.35 6.7 27.65 5.9 28.3 6.05 29.1 7.5 28.7 8.0 27.85 8.95 28.75 10.4 29.1 10.8 29.75 11.3 31.5 12.1 M24.85 13.0 L25.35 12.3 26.15 11.2 27.55 9.4 27.85 8.95 M27.55 9.4 L28.25 10.6 29.05 11.25 M26.55 7.65 L26.3 8.1 M26.2 8.2 L25.7 9.15 25.6 9.25 25.65 9.15 25.1 10.25 25.1 10.4 24.5 11.2 24.05 11.85 23.95 12.05 M24.4 12.5 L25.2 11.65 24.65 12.8 M16.95 4.25 L16.95 4.15 16.9 4.15 16.9 4.6 16.8 5.15 17.55 6.1 17.6 6.2 20.3 6.65 20.45 7.6 20.45 7.7 21.05 7.9 Q22.3 8.4 23.0 9.3 23.9 10.35 24.05 11.85 M26.2 8.2 L26.3 8.1 M26.15 11.2 L26.9 11.35 28.65 12.95 29.1 13.35 29.5 13.75 M28.95 15.55 L28.85 13.8 26.85 12.05 25.35 12.3 M24.85 13.0 L24.6 13.3 23.75 12.4 23.95 12.05 M28.95 17.45 L29.6 17.55 M28.8 17.65 L28.5 17.95 27.7 17.25 27.95 16.95 M32.55 18.95 L35.0 23.2 35.8 23.75 35.95 24.15 35.75 25.1 36.45 28.35 37.05 29.0 37.2 29.1 37.3 29.15 M37.05 29.0 L37.15 29.15 Q37.75 33.8 36.35 38.4 L35.95 39.5 32.9 38.2 M16.8 5.15 L15.5 4.75 Q13.3 4.15 11.4 4.15 L9.6 4.3 8.75 4.5 6.8 5.25 7.45 8.7 M6.55 4.9 L6.5 4.85 Q6.4 4.55 6.6 4.15 M6.55 4.95 L6.8 5.25 5.7 6.0 7.4 8.7 M6.55 4.9 L6.55 4.95 M5.7 6.0 L5.05 6.55 4.7 6.85 4.65 6.85 M5.0 6.55 L4.7 6.85 5.0 5.5 M7.6 8.95 L7.65 8.8 8.0 9.25 7.95 9.3 M4.7 6.85 L4.65 6.85 M5.0 6.55 L4.75 6.7 4.7 6.85 M21.3 24.7 L21.25 24.7 M35.95 40.3 L36.0 40.5 M36.8 39.9 L36.5 39.95 M35.95 40.3 L36.1 39.75 35.95 39.5 M32.25 37.4 L32.7 37.8 32.65 37.9" fill="none" stroke="#000000" stroke-linecap="round" stroke-linejoin="round" stroke-opacity="0.3019608" stroke-width="0.05"/>
      <path d="M35.4 18.75 L35.45 18.6" fill="none" stroke="#000000" stroke-linecap="round" stroke-linejoin="round" stroke-opacity="0.6" stroke-width="0.05"/>
      <path d="M23.65 7.3 L25.2 9.05 M31.6 15.25 L33.15 17.0" fill="none" stroke="#ff6600" stroke-linecap="round" stroke-linejoin="round" stroke-width="0.05"/>
      <path d="M36.1 39.75 L35.75 39.95 34.9 39.85 34.4 39.9 33.0 38.35" fill="none" stroke="#47b3b3" stroke-linecap="round" stroke-linejoin="round" stroke-width="0.05"/>
      <path d="M4.3 4.75 L3.6 4.25 3.6 4.2 4.35 4.25 5.95 4.3 5.65 5.75 5.65 5.7 4.6 4.95 4.3 4.75" fill="#999eb7" fill-rule="evenodd" stroke="none"/>
      <path d="M3.6 4.25 L4.3 4.75 4.6 4.95 5.65 5.7 5.65 5.75 5.6 5.75 5.5 5.9 4.85 6.6 4.75 6.7 4.55 6.85 3.6 4.25" fill="#dcdee7" fill-rule="evenodd" stroke="none"/>
      <path d="M4.3 4.75 L4.6 4.95 M5.65 5.7 L5.65 5.75 5.95 4.3 4.35 4.25 M4.85 6.6 L5.5 5.9 5.6 5.75 5.65 5.75" fill="none" stroke="#49221b" stroke-linecap="round" stroke-linejoin="round" stroke-width="0.05"/>
      <path d="M35.8 40.7 L36.15 41.05 37.65 42.55 37.65 42.6 35.3 42.0 35.55 41.35 35.8 40.7" fill="#d6d8e2" fill-rule="evenodd" stroke="none"/>
      <path d="M35.8 40.7 L36.85 40.0 37.05 39.8 37.55 42.1 37.65 42.55 36.15 41.05 35.8 40.7" fill="#999eb7" fill-rule="evenodd" stroke="none"/>
      <path d="M37.55 42.1 L37.05 39.8 36.85 40.0 35.8 40.7 36.15 41.05 M35.8 40.7 L35.55 41.35" fill="none" stroke="#49221b" stroke-linecap="round" stroke-linejoin="round" stroke-width="0.05"/>
    </g>
  </defs>
</svg>
