<?xml version="1.0" encoding="UTF-8" standalone="no"?>
<svg xmlns:xlink="http://www.w3.org/1999/xlink" height="440.0px" width="440.0px" xmlns="http://www.w3.org/2000/svg">
  <g transform="matrix(10.0, 0.0, 0.0, 10.0, 0.0, 0.0)">
    <use height="44.0" transform="matrix(1.0, 0.0, 0.0, 1.0, 0.0, 0.0)" width="44.0" xlink:href="#shape0"/>
    <use height="30.65" transform="matrix(0.0014, 0.1488, -0.1474, -0.0106, 38.391, 38.9384)" width="29.3" xlink:href="#sprite0"/>
    <use height="30.65" transform="matrix(-0.147, -0.023, -0.0109, 0.1474, 6.034, 1.4698)" width="29.3" xlink:href="#sprite0"/>
    <use height="39.8" transform="matrix(1.0, 0.0, 0.0, 1.0, 3.65, 1.4)" width="35.8" xlink:href="#shape2"/>
    <use height="17.45" transform="matrix(-0.1325, 0.1144, -0.1291, -0.1395, 40.4856, 37.2637)" width="19.9" xlink:href="#sprite1"/>
    <use height="17.45" transform="matrix(-0.1078, 0.0931, -0.101, -0.1169, 39.719, 39.121)" width="19.9" xlink:href="#sprite1"/>
    <use height="0.2" transform="matrix(0.0, -0.0294, -0.0294, 0.0, 27.2821, 8.709)" width="0.85" xlink:href="#shape4"/>
    <use height="35.6" transform="matrix(0.0092, -0.1391, -0.1514, -0.0119, 28.1803, 12.4875)" width="35.6" xlink:href="#sprite2"/>
    <use height="118.65" transform="matrix(0.0, -0.0294, -0.0294, 0.0, 27.4685, 11.5523)" width="118.65" xlink:href="#shape6"/>
    <use height="0.2" transform="matrix(-0.0294, 0.0, 0.0, 0.0294, 32.209, 16.6679)" width="0.85" xlink:href="#shape4"/>
    <use height="35.6" transform="matrix(-0.1391, -0.0092, -0.0119, 0.1514, 35.9875, 15.7697)" width="35.6" xlink:href="#sprite2"/>
    <use height="118.65" transform="matrix(-0.0294, 0.0, 0.0, 0.0294, 35.0523, 16.4815)" width="118.65" xlink:href="#shape6"/>
  </g>
  <defs>
    <g id="shape0" transform="matrix(1.0, 0.0, 0.0, 1.0, 0.0, 0.0)">
      <path d="M44.0 44.0 L0.0 44.0 0.0 0.0 44.0 0.0 44.0 44.0" fill="#43adca" fill-opacity="0.0" fill-rule="evenodd" stroke="none"/>
      <path d="M33.0 5.85 L32.1 6.15 29.5 6.4 29.95 5.6 30.0 5.55 33.0 5.8 33.0 5.85 M25.05 4.75 L25.45 3.55 26.85 5.45 27.4 6.8 27.6 7.4 27.55 7.45 26.95 7.8 26.95 7.7 26.3 7.05 26.3 7.1 25.8 6.2 25.05 4.75 M25.8 6.2 L26.85 5.45 25.8 6.2 M38.0 11.55 L37.85 14.55 37.8 14.6 36.9 15.0 36.9 14.95 36.9 14.9 37.55 12.45 38.0 11.55 M37.5 17.8 L39.15 19.35 40.0 20.2 38.35 20.35 37.8 19.65 37.9 19.65 36.5 18.6 37.5 17.8 M33.2 17.1 L33.2 16.6 35.55 16.65 35.15 17.3 34.2 17.3 34.25 17.35 33.2 17.1 M39.15 19.35 L37.9 19.65 39.15 19.35" fill="#ffea99" fill-rule="evenodd" stroke="none"/>
      <path d="M33.0 5.85 L33.0 5.8 33.1 5.8 33.0 5.85" fill="#c9b878" fill-rule="evenodd" stroke="none"/>
      <path d="M32.1 6.15 L33.0 5.85 30.95 7.9 30.75 7.7 30.95 7.9 28.9 9.95 28.55 10.4 27.85 11.1 27.55 10.85 27.4 10.9 27.3 10.95 27.2 10.75 30.65 7.7 30.75 7.7 32.1 6.15 M32.1 16.55 L32.25 16.35 32.0 15.9 32.25 15.75 32.75 15.45 33.25 15.0 35.6 13.3 38.0 11.5 38.0 11.55 37.55 12.45 37.5 12.4 35.85 13.55 35.7 13.6 32.25 16.6 32.1 16.55 M35.6 13.3 L35.85 13.55 35.6 13.3" fill="#a19360" fill-rule="evenodd" stroke="none"/>
      <path d="M25.05 4.8 L24.3 4.15 25.05 4.8 23.8 9.8 23.45 8.85 23.5 8.45 23.6 7.6 23.6 7.55 23.6 7.5 23.7 7.55 23.95 6.2 23.85 6.15 23.95 5.75 24.3 4.15 24.8 2.55 25.45 3.55 25.05 4.75 25.05 4.8 M38.35 20.35 L36.7 20.5 36.3 20.55 36.3 20.5 34.9 20.6 34.95 20.65 34.55 20.65 34.0 20.65 33.6 20.65 32.65 20.15 33.95 20.1 34.45 20.15 35.1 19.9 37.8 19.65 38.35 20.35" fill="#b8a86e" fill-rule="evenodd" stroke="none"/>
      <path d="M25.05 4.8 L25.05 4.75 25.8 6.2 26.3 7.1 26.1 8.05 26.8 8.7 26.85 9.75 25.75 12.15 24.85 12.15 24.1 10.4 24.05 10.3 23.8 9.8 25.05 4.8 M32.65 20.15 L32.25 19.9 32.2 19.85 30.55 18.7 30.6 18.15 30.65 17.85 33.2 17.1 34.25 17.35 34.8 18.1 35.7 18.0 36.5 18.6 37.9 19.65 37.8 19.65 35.1 19.9 34.45 20.15 33.95 20.1 32.65 20.15 M33.9 17.95 Q33.6 17.6 33.2 17.55 32.85 17.55 32.5 17.8 L32.45 17.85 32.2 18.5 32.45 19.25 Q32.75 19.55 33.2 19.6 L33.7 19.5 33.85 19.35 Q34.2 19.15 34.2 18.7 L33.9 17.95" fill="#544c31" fill-rule="evenodd" stroke="none"/>
      <path d="M23.95 5.75 L23.85 6.15 23.7 7.2 23.6 7.5 23.15 7.1 23.7 5.9 23.75 5.6 23.75 5.55 23.95 5.75 M27.55 7.45 L27.6 7.4 27.4 6.8 27.55 6.75 27.55 6.8 27.8 7.3 27.55 9.9 26.95 10.85 27.45 9.8 27.4 9.8 27.55 7.45 M28.55 10.45 L28.9 10.05 29.9 9.95 30.25 9.9 29.3 10.4 29.3 10.45 28.4 11.5 27.85 11.1 28.55 10.45 M24.85 12.15 L25.1 12.3 25.95 12.3 24.2 12.9 Q24.55 11.9 23.85 11.6 L23.85 11.55 23.7 10.9 24.1 10.4 24.85 12.15 M32.0 15.9 L31.75 15.3 32.9 14.6 33.55 13.75 33.2 14.95 32.75 15.45 32.65 15.45 32.25 15.75 32.0 15.9 M36.7 20.5 L36.9 20.8 35.3 21.1 34.95 20.65 36.3 20.55 36.7 20.5 M30.6 17.6 L30.65 17.85 30.6 18.15 30.55 18.7 30.4 18.45 30.55 17.55 30.4 18.45 30.55 18.7 32.2 19.85 31.6 20.1 31.0 19.85 Q30.75 18.95 29.75 19.3 L29.65 19.25 30.5 17.75 30.55 17.5 30.55 17.55 30.6 17.6 M33.2 16.6 L33.2 16.55 31.35 17.15 32.15 16.8 Q32.65 16.6 33.2 16.35 L35.7 16.5 35.7 16.55 36.25 16.8 36.15 17.0 35.6 16.75 35.55 16.65 33.2 16.6" fill="#211f0c" fill-rule="evenodd" stroke="none"/>
      <path d="M22.5 7.15 L22.55 7.2 22.35 7.05 22.2 6.75 22.35 6.75 22.5 6.85 22.7 7.05 22.8 7.3 22.5 7.15 M35.5 21.85 L35.5 22.05 35.45 22.15 35.25 22.05 35.15 21.8 35.1 21.65 35.15 21.7 35.15 21.8 35.15 21.7 35.0 21.5 35.3 21.6 35.5 21.85 M38.7 31.85 L38.8 31.75 39.15 32.35 38.7 33.35 38.5 33.4 38.25 32.95 38.55 32.35 38.55 32.3 38.7 31.85" fill="#787134" fill-rule="evenodd" stroke="none"/>
      <path d="M23.6 7.55 L23.6 7.6 23.5 8.45 23.2 8.05 23.3 8.05 23.15 7.55 23.05 7.4 22.7 7.05 22.5 6.85 22.4 6.7 23.1 7.2 23.05 7.4 23.1 7.2 23.6 7.55 23.5 7.85 23.05 7.4 23.5 7.85 23.6 7.55 M35.2 21.15 L35.6 21.95 35.5 21.85 35.3 21.6 34.95 21.25 34.85 21.1 Q34.55 20.7 34.35 20.8 L34.35 20.95 34.0 20.65 34.55 20.65 34.85 21.1 34.55 20.65 34.95 20.65 35.2 21.15 34.95 21.25 35.2 21.15" fill="#5e5226" fill-rule="evenodd" stroke="none"/>
      <path d="M23.85 6.15 L23.95 6.2 23.7 7.55 23.6 7.5 23.7 7.2 23.85 6.15 M36.3 20.55 L34.95 20.65 34.9 20.6 36.3 20.5 36.3 20.55" fill="#a89452" fill-rule="evenodd" stroke="none"/>
      <path d="M23.6 7.5 L23.6 7.55 23.1 7.2 23.15 7.1 23.6 7.5 M28.55 10.4 L28.55 10.45 27.85 11.1 28.55 10.4 M26.2 12.25 L26.3 12.3 26.2 12.3 26.2 12.25 M26.45 12.4 L26.6 12.5 25.85 13.0 26.45 12.4 M26.1 12.3 L25.8 12.45 25.95 12.3 26.05 12.3 26.1 12.3 M30.6 17.3 L30.65 17.35 30.55 17.35 30.6 17.3 M35.3 21.1 L35.2 21.15 34.95 20.65 35.3 21.1 M29.8 17.55 L30.5 16.95 30.5 17.15 29.8 17.55 M30.5 17.75 L30.3 17.85 30.55 17.45 30.55 17.5 30.5 17.75 M32.25 15.75 L32.65 15.45 32.75 15.45 32.25 15.75" fill="#54511e" fill-rule="evenodd" stroke="none"/>
      <path d="M22.55 7.2 L22.5 7.15 22.8 7.3 22.7 7.05 23.05 7.4 23.15 7.55 23.3 8.05 23.2 8.05 23.05 7.85 22.55 7.2 M35.15 21.8 L35.15 21.85 34.55 21.25 34.35 20.95 34.35 20.8 Q34.55 20.7 34.85 21.1 L34.95 21.25 35.3 21.6 35.0 21.5 35.15 21.7 35.1 21.65 35.15 21.8" fill="#787134" fill-opacity="0.8" fill-rule="evenodd" stroke="none"/>
      <path d="M29.95 5.6 L29.5 6.4 28.55 7.15 28.2 6.45 29.95 5.6 M37.8 14.6 L36.65 16.2 36.0 15.8 36.9 15.0 37.8 14.6" fill="#b3a46b" fill-rule="evenodd" stroke="none"/>
      <path d="M32.1 6.15 L30.75 7.7 30.65 7.7 27.2 10.75 26.95 10.85 27.55 9.9 27.8 7.3 28.55 7.15 29.5 6.4 32.1 6.15 M24.2 12.9 L21.05 15.2 23.85 11.55 23.85 11.6 Q24.55 11.9 24.2 12.9 M32.15 16.8 L32.25 16.6 35.7 13.6 35.85 13.55 37.5 12.4 37.55 12.45 36.9 14.9 36.9 14.95 36.9 15.0 36.0 15.8 35.95 15.8 35.7 16.55 35.7 16.5 33.2 16.35 Q32.65 16.6 32.15 16.8 M29.75 19.3 Q30.75 18.95 31.0 19.85 L26.95 22.05 29.75 19.3" fill="#5c5436" fill-rule="evenodd" stroke="none"/>
      <path d="M27.8 7.3 L27.55 6.8 28.2 6.45 28.55 7.15 27.8 7.3 M21.05 15.2 L23.55 11.1 24.05 10.3 24.1 10.4 23.7 10.9 23.85 11.55 21.05 15.2 M36.65 16.2 L36.15 17.0 36.25 16.8 35.7 16.55 35.95 15.8 36.0 15.8 36.65 16.2 M32.25 19.9 L31.45 20.2 26.95 22.05 31.0 19.85 31.6 20.1 32.2 19.85 32.25 19.9" fill="#c7b677" fill-rule="evenodd" stroke="none"/>
      <path d="M26.3 7.1 L26.3 7.05 26.95 7.7 26.5 7.7 26.1 8.05 26.3 7.1 M35.25 17.3 L35.8 18.0 35.7 18.0 34.8 18.1 35.25 17.8 35.25 17.3" fill="#736950" fill-rule="evenodd" stroke="none"/>
      <path d="M26.95 7.7 L26.95 7.8 26.8 8.7 26.1 8.05 26.5 7.7 26.95 7.7 M35.15 17.3 L35.25 17.3 35.25 17.8 34.8 18.1 34.25 17.35 34.2 17.3 35.15 17.3" fill="#998d6a" fill-rule="evenodd" stroke="none"/>
      <path d="M26.95 7.8 L27.55 7.45 27.4 9.8 26.85 9.75 26.8 8.7 26.95 7.8" fill="#998c5b" fill-rule="evenodd" stroke="none"/>
      <path d="M27.4 9.8 L27.45 9.8 26.95 10.85 26.6 11.6 26.05 12.1 26.2 12.25 26.2 12.3 26.15 12.4 26.15 12.3 26.1 12.3 25.95 12.25 25.75 12.15 26.85 9.75 27.4 9.8 M30.65 17.35 L30.8 17.6 31.35 17.15 33.2 16.55 33.2 16.6 33.2 17.1 30.65 17.85 30.6 17.6 30.6 17.55 30.55 17.45 30.6 17.55 30.6 17.6 30.55 17.5 30.55 17.45 30.5 17.45 30.5 17.35 30.55 17.35 30.65 17.35" fill="#8f8355" fill-rule="evenodd" stroke="none"/>
      <path d="M29.9 9.95 L28.9 10.05 28.55 10.45 28.55 10.4 28.9 9.95 29.9 9.95" fill="#a68863" fill-rule="evenodd" stroke="none"/>
      <path d="M27.3 10.95 L26.6 11.6 26.95 10.85 27.2 10.75 27.3 10.95 M24.7 13.1 L21.05 15.2 24.2 12.9 25.95 12.3 25.8 12.45 24.7 13.1 M31.35 17.15 L32.1 16.55 32.25 16.6 32.15 16.8 31.35 17.15 M26.95 22.05 L29.6 18.8 30.3 17.85 30.5 17.75 29.65 19.25 29.75 19.3 26.95 22.05" fill="#8c8054" fill-rule="evenodd" stroke="none"/>
      <path d="M26.05 12.3 L25.95 12.25 26.1 12.3 26.05 12.3 M30.55 17.55 L30.55 17.5 30.6 17.6 30.55 17.55" fill="#313d15" fill-opacity="0.4" fill-rule="evenodd" stroke="none"/>
      <path d="M26.05 12.3 L25.95 12.3 25.1 12.3 24.85 12.15 25.75 12.15 25.95 12.25 26.05 12.3" fill="#4b6121" fill-rule="evenodd" stroke="none"/>
      <path d="M36.15 17.0 L37.5 17.8 36.5 18.6 35.7 18.0 35.8 18.0 35.25 17.3 35.15 17.3 35.55 16.65 35.6 16.75 36.15 17.0" fill="#a39561" fill-rule="evenodd" stroke="none"/>
      <path d="M14.9 3.75 L14.75 3.75 14.35 3.5 14.9 3.75 M37.45 29.85 L37.5 30.35 37.35 29.85 37.45 29.85" fill="#44521d" fill-rule="evenodd" stroke="none"/>
      <path d="M3.65 1.65 L3.05 1.5 4.25 1.45 3.65 1.65 M4.25 2.25 L7.35 2.35 7.35 2.45 3.75 2.7 4.25 2.25 M37.6 37.55 L37.65 37.45 37.3 40.6 37.05 40.75 36.85 41.0 37.0 40.45 37.6 37.55 M38.05 40.7 L37.9 41.9 37.85 41.25 38.05 40.7" fill="#505d21" fill-rule="evenodd" stroke="none"/>
      <path d="M3.15 3.9 L3.1 3.85 3.25 3.8 3.6 3.8 4.0 4.25 4.1 4.7 4.1 4.8 4.1 4.9 4.15 5.15 Q3.85 5.55 3.6 4.7 L3.45 4.35 3.15 3.9 M37.0 40.45 L36.85 41.0 37.05 40.75 37.05 40.95 36.95 41.1 36.9 41.1 Q36.5 41.15 36.45 40.75 L36.45 40.6 36.35 40.45 36.3 40.15 36.3 40.1 36.3 40.15 36.35 40.45 Q36.3 40.95 35.65 40.15 L35.45 39.95 35.0 39.6 34.95 39.6 35.1 39.55 Q35.55 39.1 36.2 39.95 L36.3 40.1 36.65 40.1 37.0 40.45" fill="#998d60" fill-rule="evenodd" stroke="none"/>
      <path d="M3.6 4.7 Q3.85 5.55 4.15 5.15 L4.1 5.35 3.65 5.8 3.6 5.8 Q3.05 5.7 3.3 5.35 L3.6 4.7 M36.35 40.45 L36.45 40.6 36.45 40.75 Q36.5 41.15 36.9 41.1 L36.95 41.1 36.5 41.4 36.15 41.3 35.7 41.0 Q35.9 40.55 35.65 40.15 36.3 40.95 36.35 40.45 M36.45 40.75 Q36.5 41.05 36.15 41.3 36.5 41.05 36.45 40.75" fill="#7d734e" fill-rule="evenodd" stroke="none"/>
      <path d="M26.3 12.3 L26.45 12.4 25.85 13.0 24.85 13.45 24.7 13.1 25.8 12.45 26.1 12.3 26.15 12.3 26.15 12.4 26.2 12.3 26.3 12.3 M15.4 4.0 L16.35 4.35 17.0 4.75 15.4 4.0" fill="url(#gradient0)" fill-rule="evenodd" stroke="none"/>
      <path d="M30.5 17.15 L30.6 17.3 30.55 17.35 30.5 17.35 30.5 17.45 30.55 17.45 30.3 17.85 29.6 18.8 29.25 18.55 29.8 17.55 30.5 17.15 M37.35 29.85 L37.3 29.85 36.85 28.0 36.95 28.3 37.45 29.85 37.35 29.85" fill="url(#gradient1)" fill-rule="evenodd" stroke="none"/>
      <path d="M33.0 5.85 L32.1 6.15 30.75 7.7 30.95 7.9 33.0 5.85 33.0 5.8 30.0 5.55 29.95 5.6 29.5 6.4 32.1 6.15 M33.1 5.8 L33.0 5.85 M33.0 5.8 L33.1 5.8 33.1 5.75 33.0 5.8 M24.3 4.15 L25.05 4.8 25.05 4.75 25.45 3.55 24.8 2.55 24.3 4.15 23.95 5.75 23.85 6.15 23.95 6.2 23.7 7.55 M23.6 7.5 L23.6 7.55 23.6 7.6 23.5 8.45 M23.8 9.8 L25.05 4.8 M23.75 5.55 L23.95 5.75 M22.5 7.15 L22.8 7.3 22.7 7.05 22.5 6.85 M23.2 8.05 L23.3 8.05 23.15 7.55 23.05 7.4 22.7 7.05 M23.6 7.5 L23.7 7.2 23.85 6.15 M23.05 7.4 L23.1 7.2 M23.6 7.55 L23.5 7.85 23.05 7.4 M27.55 7.45 L27.6 7.4 27.4 6.8 26.85 5.45 25.8 6.2 26.3 7.1 M26.95 7.8 L27.55 7.45 27.4 9.8 27.45 9.8 26.95 10.85 27.2 10.75 27.3 10.95 M27.55 6.8 L28.2 6.45 29.95 5.6 M27.8 7.3 L28.55 7.15 28.2 6.45 M26.8 8.7 L26.85 9.75 27.4 9.8 M27.2 10.75 L30.65 7.7 30.75 7.7 M28.55 7.15 L29.5 6.4 M25.05 4.75 L25.8 6.2 M25.45 3.55 L26.85 5.45 M29.9 9.95 L28.9 9.95 28.55 10.4 28.55 10.45 M28.55 10.4 L27.85 11.1 M26.6 12.5 L25.85 13.0 24.85 13.45 24.7 13.1 21.05 15.2 23.55 11.1 M26.2 12.3 L26.15 12.4 26.15 12.3 26.1 12.3 25.95 12.25 25.75 12.15 24.85 12.15 25.1 12.3 25.95 12.3 25.8 12.45 24.7 13.1 M26.2 12.3 L26.2 12.25 M26.05 12.3 L25.95 12.3 M25.95 12.25 L26.05 12.3 26.1 12.3 M24.2 12.9 L21.05 15.2 23.85 11.55 23.85 11.6 M24.1 10.4 L24.05 10.3 M26.6 11.6 L26.95 10.85 M24.85 12.15 L24.1 10.4 M33.25 15.0 L35.6 13.3 38.0 11.5 38.0 11.55 37.85 14.55 37.8 14.6 36.65 16.2 36.15 17.0 37.5 17.8 39.15 19.35 40.0 20.2 38.35 20.35 36.7 20.5 36.9 20.8 M31.45 20.2 L26.95 22.05 29.6 18.8 29.25 18.55 29.8 17.55 30.5 16.95 M30.55 17.35 L30.65 17.35 M30.55 17.35 L30.5 17.35 30.5 17.45 30.55 17.45 30.6 17.55 30.6 17.6 30.65 17.85 33.2 17.1 33.2 16.6 33.2 16.55 31.35 17.15 M32.15 16.8 L32.25 16.6 32.1 16.55 M30.3 17.85 L30.5 17.75 M30.55 17.5 L30.55 17.45 M30.3 17.85 L29.6 18.8 M30.55 17.55 L30.55 17.5 30.6 17.6 M30.55 17.55 L30.4 18.45 30.55 18.7 30.6 18.15 30.65 17.85 M32.2 19.85 L30.55 18.7 M26.95 22.05 L31.0 19.85 M26.95 22.05 L29.75 19.3 M26.85 9.75 L25.75 12.15 M37.55 12.45 L37.5 12.4 35.85 13.55 35.7 13.6 32.25 16.6 M32.75 15.45 L32.25 15.75 M35.85 13.55 L35.6 13.3 M35.7 16.55 L35.95 15.8 36.0 15.8 36.9 15.0 36.9 14.95 M36.9 14.9 L37.55 12.45 38.0 11.55 M36.15 17.0 L35.6 16.75 35.55 16.65 35.15 17.3 M35.7 18.0 L36.5 18.6 37.5 17.8 M36.0 15.8 L36.65 16.2 M34.25 17.35 L33.2 17.1 M32.2 19.85 L32.25 19.9 M35.1 19.9 L37.8 19.65 37.9 19.65 36.5 18.6 M32.65 20.15 L33.95 20.1 M34.35 20.95 L34.35 20.8 Q34.55 20.7 34.85 21.1 L34.55 20.65 34.0 20.65 M36.7 20.5 L36.3 20.55 34.95 20.65 34.55 20.65 M36.3 20.55 L36.3 20.5 34.9 20.6 M35.2 21.15 L34.95 21.25 35.3 21.6 35.5 21.85 M35.15 21.7 L35.0 21.5 35.3 21.6 M35.1 21.65 L35.15 21.8 35.15 21.7 M34.95 21.25 L34.85 21.1 M35.55 16.65 L33.2 16.6 M37.9 19.65 L39.15 19.35 M37.8 19.65 L38.35 20.35 M37.8 14.6 L36.9 15.0 M30.95 7.9 L28.9 9.95 M14.9 3.75 L14.75 3.75 M17.0 4.75 L15.4 4.0 M3.65 1.65 L3.05 1.5 4.25 1.45 3.65 1.65 M7.35 2.45 L3.75 2.7 4.25 2.25 M3.6 3.8 L4.0 4.25 17.75 20.15 M24.55 28.25 L35.6 41.35 M3.6 4.7 L3.3 5.35 Q3.05 5.7 3.6 5.8 L3.65 5.8 M37.3 29.85 L36.85 28.0 M37.45 29.85 L37.35 29.85 M37.6 37.55 L37.0 40.45 36.85 41.0 37.05 40.75 37.3 40.6 M38.05 40.7 L37.85 41.25 37.9 41.9 38.05 40.7 M37.0 40.45 L36.65 40.1 36.3 40.1 36.3 40.15 36.35 40.45 36.45 40.6 36.45 40.75 M36.95 41.1 L37.05 40.95 37.05 40.75 M36.3 40.1 L36.2 39.95 Q35.55 39.1 35.1 39.55 L34.95 39.6 35.0 39.6 35.45 39.95 35.65 40.15 Q35.9 40.55 35.7 41.0 L36.15 41.3 Q36.5 41.05 36.45 40.75 M36.15 41.3 L36.5 41.4 36.95 41.1" fill="none" stroke="#000000" stroke-linecap="round" stroke-linejoin="round" stroke-opacity="0.3019608" stroke-width="0.05"/>
      <path d="M3.25 3.8 L3.6 3.8 M4.1 4.8 L4.1 4.7 4.0 4.25 M3.6 4.7 L3.45 4.35 3.15 3.9" fill="none" stroke="#000000" stroke-linecap="round" stroke-linejoin="round" stroke-opacity="0.101960786" stroke-width="1.0"/>
      <path d="M17.75 20.15 L24.55 28.25" fill="none" stroke="url(#gradient2)" stroke-linecap="round" stroke-linejoin="round" stroke-width="1.0"/>
    </g>
    <linearGradient gradientTransform="matrix(-0.0034, -0.0031, -0.0052, 0.006, 20.6, 8.2)" gradientUnits="userSpaceOnUse" id="gradient0" spreadMethod="pad" x1="-819.2" x2="819.2">
      <stop offset="0.0" stop-color="#2e3814"/>
      <stop offset="1.0" stop-color="#505d21"/>
    </linearGradient>
    <linearGradient gradientTransform="matrix(0.0025, 0.0038, -0.0067, 0.0043, 33.85, 23.5)" gradientUnits="userSpaceOnUse" id="gradient1" spreadMethod="pad" x1="-819.2" x2="819.2">
      <stop offset="0.0" stop-color="#2e3814"/>
      <stop offset="1.0" stop-color="#505d21"/>
    </linearGradient>
    <linearGradient gradientTransform="matrix(-3.0E-4, 3.0E-4, -0.0181, -0.021, 19.6, 22.45)" gradientUnits="userSpaceOnUse" id="gradient2" spreadMethod="pad" x1="-819.2" x2="819.2">
      <stop offset="0.0" stop-color="#6b5a3e"/>
      <stop offset="0.47843137254901963" stop-color="#6b5a3e" stop-opacity="0.2"/>
      <stop offset="0.9921568627450981" stop-color="#6b5a3e"/>
    </linearGradient>
    <g id="sprite0" transform="matrix(1.0, 0.0, 0.0, 1.0, 0.5, -8.2)">
      <use height="30.65" transform="matrix(1.0, 0.0, 0.0, 1.0, -0.5, 8.2)" width="29.3" xlink:href="#shape1"/>
    </g>
    <g id="shape1" transform="matrix(1.0, 0.0, 0.0, 1.0, 0.5, -8.2)">
      <path d="M0.0 11.8 L2.45 8.7 14.2 12.8 14.7 11.85 28.3 16.85 21.7 31.25 20.7 33.45 20.55 33.25 18.9 36.85 18.45 36.4 18.4 36.5 18.3 36.65 18.25 36.65 6.7 31.85 6.75 31.8 9.6 21.4 Q9.45 22.8 9.85 21.7 L10.3 20.25 10.4 19.9 10.5 19.25 10.5 19.2 10.75 19.45 11.65 17.6 12.5 16.05 0.0 11.8 M14.2 12.8 L12.5 16.05 14.2 12.8 M18.4 36.5 L18.25 36.65 18.4 36.5 M15.05 23.9 L14.8 24.65 14.35 25.9 14.2 26.35 14.15 26.4 17.5 27.6 18.45 24.65 19.3 22.05 16.0 21.2 15.05 23.9 M14.15 26.4 L14.1 26.4 14.15 26.3 14.55 25.25 14.35 25.9 14.55 25.25 14.15 26.3 14.1 26.4 14.15 26.4 M17.55 27.6 L17.7 27.65 17.7 27.15 17.55 27.6 17.5 27.6 17.55 27.6 17.7 27.15 17.7 27.65 17.55 27.6 M14.55 25.25 L14.8 24.65 14.55 25.25 M18.45 36.4 L21.1 30.7 18.45 36.4 M20.55 33.25 L21.7 31.25 20.55 33.25" fill="#6b622e" fill-rule="evenodd" stroke="none"/>
      <path d="M18.25 36.65 L16.2 38.35 4.9 33.15 6.7 31.85 18.25 36.65 M8.55 21.05 L8.5 21.05 9.6 18.75 9.85 18.5 10.5 19.2 10.5 19.25 10.4 19.9 10.3 20.25 9.85 21.7 Q9.45 22.8 9.6 21.4 L9.6 21.3 8.55 21.05 M11.65 17.6 L3.65 15.65 0.0 11.8 12.5 16.05 11.65 17.6 M18.45 24.65 L15.05 23.9 16.0 21.2 19.3 22.05 18.45 24.65" fill="#403a1b" fill-rule="evenodd" stroke="none"/>
      <path d="M4.8 33.15 L8.55 21.05 9.6 21.3 9.6 21.4 6.75 31.8 6.7 31.85 4.9 33.15 4.8 33.15" fill="#3d381a" fill-rule="evenodd" stroke="none"/>
      <path d="M0.0 11.8 L2.45 8.7 14.2 12.8 14.7 11.85 28.3 16.85 21.7 31.25 20.7 33.45 M20.55 33.25 L18.9 36.85 M18.45 36.4 L18.4 36.5 18.3 36.65 18.25 36.65 16.2 38.35 4.9 33.15 4.75 33.25 4.8 33.15 8.55 21.05 8.5 21.05 M10.75 19.45 L11.65 17.6 3.65 15.65 0.0 11.8 12.5 16.05 14.2 12.8 M10.5 19.25 L10.4 19.9 10.3 20.25 9.85 21.7 Q9.45 22.8 9.6 21.4 L6.75 31.8 6.7 31.85 18.25 36.65 18.4 36.5 M9.6 21.4 L9.6 21.3 8.55 21.05 M11.65 17.6 L12.5 16.05 M15.05 23.9 L14.8 24.65 14.35 25.9 14.2 26.35 14.15 26.4 17.5 27.6 18.45 24.65 15.05 23.9 16.0 21.2 19.3 22.05 18.45 24.65 M17.5 27.6 L17.55 27.6 17.7 27.15 17.7 27.65 17.55 27.6 M14.35 25.9 L14.55 25.25 14.15 26.3 14.1 26.4 14.15 26.4 M4.9 33.15 L6.7 31.85 M21.7 31.25 L20.55 33.25 M21.1 30.7 L18.45 36.4 M14.8 24.65 L14.55 25.25" fill="none" stroke="#804733" stroke-linecap="round" stroke-linejoin="round" stroke-opacity="0.101960786" stroke-width="1.0"/>
    </g>
    <g id="shape2" transform="matrix(1.0, 0.0, 0.0, 1.0, -3.65, -1.4)">
      <path d="M27.55 10.85 L27.85 11.1 28.4 11.5 28.55 11.6 29.0 12.0 28.3 12.75 27.2 11.75 27.1 11.65 26.75 11.45 27.3 11.0 27.4 10.9 27.55 10.85" fill="#52828a" fill-rule="evenodd" stroke="none"/>
      <path d="M26.75 11.45 L27.1 11.65 27.2 11.75 28.3 12.75 29.45 13.95 30.5 15.4 31.2 16.5 31.3 16.65 31.45 17.05 31.35 17.1 30.8 17.6 30.65 17.35 30.6 17.3 30.5 17.1 30.45 17.0 29.75 15.85 28.8 14.65 27.7 13.45 26.6 12.5 26.45 12.4 26.3 12.3 26.25 12.25 26.0 12.05 26.75 11.45 M27.7 13.45 L28.3 12.75 27.7 13.45 M28.8 14.65 L29.45 13.95 28.8 14.65 M29.75 15.85 L30.5 15.4 29.75 15.85" fill="#273d42" fill-rule="evenodd" stroke="none"/>
      <path d="M31.45 14.85 L31.65 15.2 31.75 15.3 32.05 15.9 32.25 16.35 31.45 17.05 31.3 16.65 31.2 16.5 30.5 15.4 31.45 14.85" fill="#6198a3" fill-rule="evenodd" stroke="none"/>
      <path d="M28.3 12.75 L29.0 12.0 29.2 12.2 30.2 13.2 29.45 13.95 28.3 12.75" fill="#75b6c4" fill-rule="evenodd" stroke="none"/>
      <path d="M30.2 13.2 L31.2 14.45 31.45 14.85 30.5 15.4 29.45 13.95 30.2 13.2" fill="#8ed9ed" fill-rule="evenodd" stroke="none"/>
      <path d="M29.0 12.0 L28.55 11.6 28.4 11.5 27.85 11.1 27.55 10.85 M27.4 10.9 L27.3 11.0 26.75 11.45 27.1 11.65 27.2 11.75 28.3 12.75 M29.0 12.0 L29.2 12.2 30.2 13.2 31.2 14.45 31.45 14.85 31.65 15.2 31.75 15.3 32.05 15.9 32.25 16.35 31.45 17.05 31.35 17.1 30.8 17.6 30.65 17.35 30.6 17.3 30.5 17.1 30.45 17.0 29.75 15.85 28.8 14.65 27.7 13.45 26.6 12.5 26.45 12.4 26.3 12.3 26.25 12.25 26.0 12.05 26.75 11.45 M29.45 13.95 L28.3 12.75 M30.5 15.4 L31.2 16.5 31.3 16.65 31.45 17.05 M30.5 15.4 L29.45 13.95" fill="none" stroke="#000000" stroke-linecap="round" stroke-linejoin="round" stroke-opacity="0.101960786" stroke-width="0.05"/>
      <path d="M28.3 12.75 L29.0 12.0 M28.3 12.75 L27.7 13.45 M31.45 14.85 L30.5 15.4 29.75 15.85 M29.45 13.95 L28.8 14.65 M30.2 13.2 L29.45 13.95" fill="none" stroke="#000000" stroke-linecap="round" stroke-linejoin="round" stroke-opacity="0.3019608" stroke-width="0.05"/>
      <path d="M32.85 14.65 L33.05 13.7 33.1 12.2 Q33.0 11.65 32.45 11.05 L32.45 11.1 31.7 10.55 30.2 10.4 29.3 10.45 29.35 10.4 30.2 9.95 30.6 9.9 33.65 10.2 33.7 10.25 33.65 13.4 33.25 15.0 32.75 15.4 32.7 15.4 33.2 14.95 33.55 13.75 32.9 14.6 32.85 14.65" fill="#a68863" fill-rule="evenodd" stroke="none"/>
      <path d="M32.1 19.9 L32.25 19.9 33.6 20.65 34.05 20.65 34.4 20.95 34.55 21.25 35.1 21.8 35.1 21.75 35.25 22.05 35.45 22.15 35.5 22.05 35.5 21.8 35.6 21.95 35.2 21.15 35.3 21.1 36.0 22.0 37.05 24.95 36.65 22.9 Q36.9 23.9 37.7 25.45 38.5 26.85 39.05 29.65 L38.3 27.55 38.25 31.5 36.95 28.3 36.15 25.2 33.45 21.35 32.1 19.9 M23.15 7.05 L23.1 7.2 22.4 6.65 22.55 6.85 22.35 6.75 22.2 6.75 22.3 7.0 22.55 7.2 23.0 7.85 23.2 8.0 23.45 8.45 23.45 8.85 24.0 10.3 23.95 10.45 22.65 8.85 19.3 5.65 16.35 4.35 13.35 2.7 17.25 3.15 Q17.55 3.25 15.25 2.1 17.95 3.1 19.3 4.1 20.7 5.05 21.6 5.45 L19.7 4.75 Q21.35 5.55 22.55 6.35 L23.15 7.05" fill="#54511e" fill-rule="evenodd" stroke="none"/>
      <path d="M28.55 11.6 Q29.2 11.1 30.25 11.0 30.95 11.1 31.55 11.8 L31.65 12.0 31.7 12.0 31.85 12.2 Q32.4 12.8 32.45 13.55 L31.65 15.2 31.2 14.45 31.55 13.35 31.3 12.35 Q30.9 12.0 30.35 11.95 29.8 11.85 29.2 12.2 L28.55 11.6" fill="#4a471d" fill-rule="evenodd" stroke="none"/>
      <path d="M38.3 27.55 L39.05 29.65 Q38.5 26.85 37.7 25.45 36.9 23.9 36.65 22.9 L37.05 24.95 36.0 22.0 37.0 23.05 37.45 24.1 Q38.0 25.0 38.3 25.0 L38.25 24.4 38.0 23.6 Q37.55 22.3 36.5 20.8 L36.9 20.8 Q40.4 26.35 39.05 34.85 L37.95 40.7 37.6 40.6 Q38.55 37.0 38.75 33.3 39.05 33.1 39.15 32.35 L39.05 30.9 Q39.05 30.05 38.75 29.8 L38.7 29.85 38.3 27.55 M4.25 1.65 L10.1 1.4 Q18.75 1.3 23.75 5.6 L23.65 5.9 Q21.95 4.3 20.4 3.7 L19.75 3.6 20.55 4.5 20.8 4.6 21.55 5.1 22.55 6.35 Q21.35 5.55 19.7 4.75 L21.6 5.45 Q20.7 5.05 19.3 4.1 17.95 3.1 15.25 2.1 17.55 3.25 17.25 3.15 L15.0 2.45 15.05 2.4 Q14.9 2.1 14.1 1.95 L12.65 1.7 11.6 1.85 11.55 1.95 Q7.95 1.6 4.25 2.0 L4.25 1.65" fill="#998545" fill-rule="evenodd" stroke="none"/>
      <path d="M36.0 22.0 L35.3 21.1 36.5 20.8 Q37.55 22.3 38.0 23.6 L38.25 24.4 38.3 25.0 Q38.0 25.0 37.45 24.1 L37.0 23.05 36.0 22.0 M37.0 23.05 Q36.75 22.1 38.0 23.6 36.75 22.1 37.0 23.05 M23.65 5.9 L23.15 7.05 22.55 6.35 21.55 5.1 20.8 4.6 20.55 4.5 19.75 3.6 20.4 3.7 Q21.95 4.3 23.65 5.9 M20.8 4.6 Q22.45 5.55 21.55 5.1 22.45 5.55 20.8 4.6" fill="#a89452" fill-rule="evenodd" stroke="none"/>
      <path d="M37.5 30.35 L38.25 33.3 37.7 37.5 37.6 37.5 Q38.2 33.35 37.35 29.8 L37.5 30.35 M7.3 2.45 L7.3 2.3 11.45 2.4 14.35 3.5 14.75 3.7 Q11.45 2.45 7.3 2.45" fill="#44521d" fill-rule="evenodd" stroke="none"/>
      <path d="M38.55 32.35 L38.4 32.4 38.35 30.6 Q38.4 30.1 38.7 29.85 L38.75 29.8 Q39.05 30.05 39.05 30.9 L39.15 32.35 38.75 31.75 38.75 31.85 38.55 32.3 38.55 32.35 M15.0 2.45 L14.2 2.7 12.45 2.3 12.6 2.3 12.6 2.25 11.9 2.4 11.45 2.15 11.55 1.95 11.6 1.85 12.65 1.7 14.1 1.95 Q14.9 2.1 15.05 2.4 L15.0 2.45 M12.65 1.7 L13.2 2.1 12.6 2.3 13.2 2.1 12.65 1.7" fill="#787134" fill-rule="evenodd" stroke="none"/>
      <path d="M28.55 11.6 L28.4 11.5 29.3 10.45 30.2 10.4 31.7 10.55 32.45 11.1 32.45 11.05 Q33.0 11.65 33.1 12.2 L33.05 13.7 32.85 14.65 31.75 15.3 31.65 15.2 32.45 13.55 Q32.4 12.8 31.85 12.2 L31.7 12.0 31.65 12.0 31.55 11.8 Q30.95 11.1 30.25 11.0 29.2 11.1 28.55 11.6 M32.1 19.9 L33.45 21.35 36.15 25.2 36.95 28.3 38.25 31.5 38.3 27.55 38.7 29.85 Q38.4 30.1 38.35 30.6 L38.4 32.4 38.55 32.35 38.3 32.95 38.45 33.4 38.75 33.3 Q38.55 37.0 37.6 40.6 L37.95 40.7 37.85 41.2 37.55 40.65 37.3 40.6 37.7 37.5 38.25 33.3 37.5 30.35 37.4 29.8 36.95 28.3 36.7 27.65 Q35.15 23.45 31.4 20.2 L32.1 19.9 M23.95 10.45 L23.55 11.1 Q20.85 6.9 17.0 4.75 L16.35 4.35 19.3 5.65 22.65 8.85 23.95 10.45" fill="url(#gradient3)" fill-rule="evenodd" stroke="none"/>
      <path d="M14.35 3.5 L11.45 2.4 7.3 2.3 4.2 2.3 4.2 1.95 3.65 1.65 4.25 1.65 4.25 2.0 Q7.95 1.6 11.55 1.95 L11.45 2.15 11.9 2.4 12.6 2.25 12.6 2.3 12.45 2.3 14.2 2.7 15.0 2.45 17.25 3.15 13.35 2.7 16.35 4.35 15.4 4.0 14.35 3.5" fill="#708730" fill-rule="evenodd" stroke="none"/>
      <path d="M32.85 14.65 L33.05 13.7 33.1 12.2 M31.7 10.55 L30.2 10.4 29.3 10.45 M30.2 9.95 L30.6 9.9 33.65 10.2 M33.7 10.25 L33.65 13.4 33.25 15.0 32.75 15.4 32.7 15.4 M29.2 12.2 Q29.8 11.85 30.35 11.95 30.9 12.0 31.3 12.35 L31.55 13.35 31.2 14.45 M34.05 20.65 L33.6 20.65 32.25 19.9 32.1 19.9 31.4 20.2 Q35.15 23.45 36.7 27.65 L36.95 28.3 M36.65 22.9 L37.05 24.95 M35.3 21.1 L35.2 21.15 M35.5 21.8 L35.5 22.05 35.45 22.15 35.25 22.05 35.1 21.75 35.1 21.8 M34.55 21.25 L34.4 20.95 M37.4 29.8 L37.5 30.35 38.25 33.3 M37.7 37.5 L37.3 40.6 37.55 40.65 37.85 41.2 37.95 40.7 39.05 34.85 Q40.4 26.35 36.9 20.8 M38.75 33.3 L38.45 33.4 38.3 32.95 38.55 32.35 38.4 32.4 M38.35 30.6 Q38.4 30.1 38.7 29.85 L38.75 29.8 Q39.05 30.05 39.05 30.9 L39.15 32.35 Q39.05 33.1 38.75 33.3 M36.5 20.8 Q37.55 22.3 38.0 23.6 L38.25 24.4 38.3 25.0 Q38.0 25.0 37.45 24.1 L37.0 23.05 M37.5 30.35 L37.35 29.8 Q38.2 33.35 37.6 37.5 M38.55 32.35 L38.55 32.3 38.75 31.85 38.75 31.75 39.15 32.35 M38.0 23.6 Q36.75 22.1 37.0 23.05 M7.3 2.45 Q11.45 2.45 14.75 3.7 L14.35 3.5 11.45 2.4 M7.3 2.3 L4.2 2.3 4.2 1.95 3.65 1.65 4.25 1.65 10.1 1.4 Q18.75 1.3 23.75 5.6 M23.15 7.05 L23.1 7.2 M22.55 6.85 L22.35 6.75 22.2 6.75 22.3 7.0 22.55 7.2 M23.0 7.85 L23.2 8.0 M23.45 8.45 L23.45 8.85 24.0 10.3 23.95 10.45 23.55 11.1 Q20.85 6.9 17.0 4.75 L16.35 4.35 M15.4 4.0 L14.35 3.5 M15.0 2.45 L14.2 2.7 M12.45 2.3 L12.6 2.3 13.2 2.1 12.65 1.7 14.1 1.95 Q14.9 2.1 15.05 2.4 L15.0 2.45 M12.6 2.25 L11.9 2.4 11.45 2.15 11.55 1.95 11.6 1.85 12.65 1.7 M21.6 5.45 L19.7 4.75 M21.55 5.1 L20.8 4.6 20.55 4.5 19.75 3.6 20.4 3.7 Q21.95 4.3 23.65 5.9 M21.55 5.1 Q22.45 5.55 20.8 4.6" fill="none" stroke="#000000" stroke-linecap="round" stroke-linejoin="round" stroke-opacity="0.3019608" stroke-width="0.05"/>
    </g>
    <linearGradient gradientTransform="matrix(-0.0034, -0.0031, -0.0052, 0.006, 20.65, 8.2)" gradientUnits="userSpaceOnUse" id="gradient3" spreadMethod="pad" x1="-819.2" x2="819.2">
      <stop offset="0.0" stop-color="#2e3814"/>
      <stop offset="1.0" stop-color="#739907"/>
    </linearGradient>
    <g id="sprite1" transform="matrix(1.0, 0.0, 0.0, 1.0, 0.5, 0.15)">
      <use height="17.45" transform="matrix(1.0, 0.0, 0.0, 1.0, -0.5, -0.15)" width="19.9" xlink:href="#shape3"/>
    </g>
    <g id="shape3" transform="matrix(1.0, 0.0, 0.0, 1.0, 0.5, 0.15)">
      <path d="M7.1 2.5 Q9.85 -0.7 14.05 0.85 L13.35 1.9 10.7 3.7 Q11.1 6.25 15.4 8.25 L17.4 6.85 18.7 6.4 Q19.7 9.3 15.4 12.1 L15.3 12.0 Q12.1 10.85 10.0 9.05 8.0 7.25 7.0 4.9 L7.0 2.55 7.1 2.5 M10.2 8.85 L10.0 9.05 10.2 8.85" fill="#ccb97c" fill-rule="evenodd" stroke="none"/>
      <path d="M3.05 14.95 Q0.65 13.1 0.0 9.3 L7.0 2.5 7.0 2.55 7.0 4.9 Q8.0 7.25 10.0 9.05 L3.05 14.95" fill="#b59d51" fill-rule="evenodd" stroke="none"/>
      <path d="M15.3 12.0 L9.4 16.8 Q5.35 16.8 3.05 14.95 L10.0 9.05 Q12.1 10.85 15.3 12.0" fill="#968043" fill-rule="evenodd" stroke="none"/>
      <path d="M7.1 2.5 Q9.85 -0.7 14.05 0.85 L13.35 1.9 10.7 3.7 Q11.1 6.25 15.4 8.25 L17.4 6.85 18.7 6.4 Q19.7 9.3 15.4 12.1 L15.3 12.0 9.4 16.8 Q5.35 16.8 3.05 14.95 L2.8 15.15 M7.0 2.55 L7.0 2.5 0.0 9.3 Q0.65 13.1 3.05 14.95 M10.0 9.05 Q8.0 7.25 7.0 4.9 L7.0 2.55 7.1 2.5 7.0 2.5 M10.0 9.05 Q12.1 10.85 15.3 12.0 M10.0 9.05 L10.2 8.85" fill="none" stroke="#000000" stroke-linecap="round" stroke-linejoin="round" stroke-opacity="0.15294118" stroke-width="1.0"/>
    </g>
    <g id="shape4" transform="matrix(1.0, 0.0, 0.0, 1.0, -84.85, 4.5)">
      <path d="M85.7 -4.5 L85.65 -4.3 84.85 -4.5 85.7 -4.5" fill="#41354d" fill-rule="evenodd" stroke="none"/>
    </g>
    <g id="sprite2" transform="matrix(1.0, 0.0, 0.0, 1.0, 17.8, 17.8)">
      <use height="35.6" transform="matrix(1.0, 0.0, 0.0, 1.0, -17.8, -17.8)" width="35.6" xlink:href="#shape5"/>
    </g>
    <g id="shape5" transform="matrix(1.0, 0.0, 0.0, 1.0, 17.8, 17.8)">
      <path d="M12.55 -12.6 Q17.8 -7.35 17.8 0.0 17.8 7.35 12.55 12.55 7.35 17.8 0.0 17.8 -7.35 17.8 -12.6 12.55 -17.8 7.35 -17.8 0.0 -17.8 -7.35 -12.6 -12.6 -7.35 -17.8 0.0 -17.8 7.35 -17.8 12.55 -12.6" fill="url(#gradient4)" fill-rule="evenodd" stroke="none"/>
    </g>
    <radialGradient cx="0" cy="0" gradientTransform="matrix(0.0227, 0.0, 0.0, 0.0227, 0.0, 0.0)" gradientUnits="userSpaceOnUse" id="gradient4" r="819.2" spreadMethod="pad">
      <stop offset="0.0784313725490196" stop-color="#ffffcc"/>
      <stop offset="1.0" stop-color="#ffffcc" stop-opacity="0.0"/>
    </radialGradient>
    <g id="shape6" transform="matrix(1.0, 0.0, 0.0, 1.0, 12.0, 10.85)">
      <path d="M-3.95 78.1 Q-16.2 56.85 -9.85 33.15 -3.5 9.5 17.7 -2.75 38.95 -15.05 62.6 -8.7 86.3 -2.35 98.55 18.9 102.1 25.0 104.1 31.3 91.65 9.5 68.05 1.0 44.3 -7.5 22.6 6.2 0.8 19.95 -3.85 41.45 -8.35 62.45 -3.7 78.05 L-3.95 78.1" fill="#9c5c16" fill-rule="evenodd" stroke="none"/>
      <path d="M104.1 31.3 Q109.0 46.95 104.5 63.8 98.15 87.5 76.9 99.75 55.65 112.0 31.95 105.65 8.8 99.45 -3.4 79.05 L-3.7 78.05 Q-8.35 62.45 -3.85 41.45 0.8 19.95 22.6 6.2 44.3 -7.5 68.05 1.0 91.65 9.5 104.1 31.3" fill="#4d3212" fill-rule="evenodd" stroke="none"/>
      <path d="M-3.4 79.05 L-3.95 78.1 -3.7 78.05 -3.4 79.05" fill="#f7dc91" fill-rule="evenodd" stroke="none"/>
      <path d="M-3.95 78.1 L-3.7 78.05 -3.95 78.1" fill="#554564" fill-rule="evenodd" stroke="none"/>
      <path d="M-3.95 78.1 Q-16.2 56.85 -9.85 33.15 -3.5 9.5 17.7 -2.75 38.95 -15.05 62.6 -8.7 86.3 -2.35 98.55 18.9 102.1 25.0 104.1 31.3 109.0 46.95 104.5 63.8 98.15 87.5 76.9 99.75 55.65 112.0 31.95 105.65 8.8 99.45 -3.4 79.05 L-3.95 78.1 Z" fill="none" stroke="#000000" stroke-linecap="round" stroke-linejoin="round" stroke-opacity="0.15294118" stroke-width="0.05"/>
      <path d="M90.45 62.1 Q85.6 80.3 69.3 89.8 57.4 96.6 44.6 95.9 L44.35 95.9 Q39.6 95.65 34.7 94.35 16.45 89.45 7.05 73.15 3.05 66.25 1.6 59.1 -0.35 49.15 2.45 38.55 3.55 34.45 5.3 30.85 11.0 18.2 23.7 10.9 30.35 7.0 37.3 5.55 47.4 3.4 58.25 6.3 76.45 11.15 85.95 27.55 93.25 40.25 92.0 54.05 91.55 58.0 90.45 62.1" fill="#ad8d5e" fill-rule="evenodd" stroke="none"/>
      <path d="M90.45 62.1 Q85.6 80.3 69.3 89.8 57.4 96.6 44.6 95.9 L44.35 95.9 Q39.6 95.65 34.7 94.35 16.45 89.45 7.05 73.15 3.05 66.25 1.6 59.1 -0.35 49.15 2.45 38.55 3.55 34.45 5.3 30.85 11.0 18.2 23.7 10.9 30.35 7.0 37.3 5.55 47.4 3.4 58.25 6.3 76.45 11.15 85.95 27.55 93.25 40.25 92.0 54.05 91.55 58.0 90.45 62.1 Z" fill="none" stroke="#000000" stroke-linecap="round" stroke-linejoin="round" stroke-opacity="0.15294118" stroke-width="0.05"/>
      <path d="M7.25 64.65 Q3.95 51.9 17.1 52.4 30.25 52.9 43.45 52.9 L71.75 54.2 Q86.8 55.45 82.0 66.55 77.2 77.65 66.95 83.75 56.65 89.85 43.45 89.85 30.25 89.85 20.4 83.65 10.55 77.4 7.25 64.65" fill="#faf7f3" fill-rule="evenodd" stroke="none"/>
      <path d="M7.25 64.65 Q3.95 51.9 17.1 52.4 30.25 52.9 43.45 52.9 L71.75 54.2 Q86.8 55.45 82.0 66.55 77.2 77.65 66.95 83.75 56.65 89.85 43.45 89.85 30.25 89.85 20.4 83.65 10.55 77.4 7.25 64.65 Z" fill="none" stroke="#000000" stroke-linecap="round" stroke-linejoin="round" stroke-opacity="0.15294118" stroke-width="0.05"/>
      <path d="M55.85 54.35 Q57.55 57.3 56.7 60.65 55.8 63.95 52.8 65.7 49.85 67.4 46.55 66.5 43.25 65.65 41.5 62.65 39.8 59.65 40.7 56.35 41.55 53.0 44.55 51.3 47.5 49.6 50.8 50.45 54.1 51.35 55.85 54.35" fill="#000000" fill-rule="evenodd" stroke="none"/>
      <path d="M55.85 54.35 Q57.55 57.3 56.7 60.65 55.8 63.95 52.8 65.7 49.85 67.4 46.55 66.5 43.25 65.65 41.5 62.65 39.8 59.65 40.7 56.35 41.55 53.0 44.55 51.3 47.5 49.6 50.8 50.45 54.1 51.35 55.85 54.35 Z" fill="none" stroke="#000000" stroke-linecap="round" stroke-linejoin="round" stroke-opacity="0.15294118" stroke-width="0.05"/>
      <path d="M84.15 30.6 Q93.0 45.9 88.4 63.0 83.85 80.05 68.5 88.95 53.15 97.8 36.1 93.2 19.0 88.65 10.15 73.3 7.55 68.9 6.1 64.35 14.95 79.1 31.7 83.6 48.75 88.15 64.1 79.35 79.5 70.5 84.05 53.4 87.35 41.2 83.75 29.9 L84.15 30.6" fill="#000000" fill-opacity="0.19215687" fill-rule="evenodd" stroke="none"/>
      <path d="M28.45 45.4 Q35.15 45.4 39.85 48.5 44.55 51.7 44.55 56.15 44.6 60.6 39.85 63.75 35.15 66.95 28.45 66.9 21.8 66.95 17.0 63.75 12.25 60.65 12.3 56.15 12.25 51.7 17.0 48.5 21.75 45.45 28.45 45.4" fill="#ffffff" fill-rule="evenodd" stroke="none"/>
      <path d="M91.6 58.45 L92.6 58.9 Q94.6 60.0 95.95 61.8 94.6 60.0 92.6 58.9 L91.6 58.45 M3.4 31.2 Q10.1 17.7 23.85 10.2 37.35 2.8 53.3 3.7 68.8 4.9 80.65 14.0 93.6 23.85 96.85 39.0 99.3 50.5 95.95 61.8 97.25 63.9 97.1 67.9 96.9 71.9 93.35 73.3 89.75 74.65 79.25 69.45 68.8 64.2 55.7 59.4 42.4 54.65 28.65 51.0 14.3 47.35 -0.15 44.35 -1.15 44.1 -1.65 43.4 -7.25 35.35 3.4 31.2 L5.45 31.15 8.75 31.9 5.45 31.15 3.4 31.2 M15.9 34.2 Q37.9 27.45 53.55 25.0 69.2 22.55 75.8 21.85 82.4 21.1 77.8 16.75 71.35 10.65 61.95 7.65 45.75 2.45 30.15 9.2 14.7 16.15 9.05 31.0 L8.75 31.9 15.9 34.2" fill="#4d3212" fill-rule="evenodd" stroke="none"/>
      <path d="M8.75 31.9 L9.05 31.0 Q14.7 16.15 30.15 9.2 45.75 2.45 61.95 7.65 71.35 10.65 77.8 16.75 82.4 21.1 75.8 21.85 69.2 22.55 53.55 25.0 37.9 27.45 15.9 34.2 L8.75 31.9" fill="#9c5c16" fill-rule="evenodd" stroke="none"/>
      <path d="M95.95 61.8 Q94.6 60.0 92.6 58.9 L91.6 58.45 M3.4 31.2 Q-7.25 35.35 -1.65 43.4 -1.15 44.1 -0.15 44.35 14.3 47.35 28.65 51.0 42.4 54.65 55.7 59.4 68.8 64.2 79.25 69.45 89.75 74.65 93.35 73.3 96.9 71.9 97.1 67.9 97.25 63.9 95.95 61.8 99.3 50.5 96.85 39.0 93.6 23.85 80.65 14.0 68.8 4.9 53.3 3.7 37.35 2.8 23.85 10.2 10.1 17.7 3.4 31.2 L5.45 31.15 8.75 31.9 M15.9 34.2 L8.75 31.9" fill="none" stroke="#000000" stroke-linecap="round" stroke-linejoin="round" stroke-opacity="0.15294118" stroke-width="0.05"/>
      <path d="M3.3 33.55 Q3.95 31.75 27.6 39.9 51.3 48.15 50.85 49.4 L50.15 50.75 49.65 50.8 30.3 44.8 Q11.15 38.65 4.55 35.25 L2.95 34.45 3.3 33.55" fill="#9c5c16" fill-rule="evenodd" stroke="none"/>
      <path d="M3.3 33.55 Q3.95 31.75 27.6 39.9 51.3 48.15 50.85 49.4 L50.15 50.75 49.65 50.8 30.3 44.8 Q11.15 38.65 4.55 35.25 L2.95 34.45 3.3 33.55 Z" fill="none" stroke="#000000" stroke-linecap="round" stroke-linejoin="round" stroke-opacity="0.15294118" stroke-width="0.05"/>
      <path d="M42.25 17.7 Q40.75 19.6 36.55 19.6 33.0 19.6 31.95 17.6 L31.55 15.4 Q31.55 13.5 33.35 12.05 35.0 10.75 37.3 10.45 43.05 9.75 43.05 14.75 43.05 16.65 42.25 17.7" fill="#f0cc3b" fill-rule="evenodd" stroke="none"/>
      <path d="M42.25 17.7 Q40.75 19.6 36.55 19.6 33.0 19.6 31.95 17.6 L31.55 15.4 Q31.55 13.5 33.35 12.05 35.0 10.75 37.3 10.45 43.05 9.75 43.05 14.75 43.05 16.65 42.25 17.7 Z" fill="none" stroke="#000000" stroke-linecap="round" stroke-linejoin="round" stroke-opacity="0.15294118" stroke-width="0.05"/>
    </g>
  </defs>
</svg>
