<?xml version="1.0" encoding="UTF-8" standalone="no"?>
<svg xmlns:xlink="http://www.w3.org/1999/xlink" height="440.0px" width="440.0px" xmlns="http://www.w3.org/2000/svg">
  <g transform="matrix(10.0, 0.0, 0.0, 10.0, 0.0, 0.0)">
    <use height="44.0" transform="matrix(0.9091, 0.0, 0.0, 0.9091, 2.0, 2.0)" width="44.0" xlink:href="#sprite0"/>
  </g>
  <defs>
    <g id="sprite0" transform="matrix(1.0, 0.0, 0.0, 1.0, 0.0, 0.0)">
      <use height="44.0" transform="matrix(1.0, 0.0, 0.0, 1.0, 0.0, 0.0)" width="44.0" xlink:href="#shape0"/>
      <use height="470.75" transform="matrix(0.0735, 0.0, 0.0, 0.0735, 2.934, 5.4085)" width="504.95" xlink:href="#sprite1"/>
    </g>
    <g id="shape0" transform="matrix(1.0, 0.0, 0.0, 1.0, 0.0, 0.0)">
      <path d="M44.0 44.0 L0.0 44.0 0.0 0.0 44.0 0.0 44.0 44.0" fill="#43adca" fill-opacity="0.0" fill-rule="evenodd" stroke="none"/>
      <path d="M21.1 14.5 L21.0 14.7 21.0 14.65 21.1 14.5 M21.65 14.15 L21.6 14.2 21.6 14.1 21.65 14.15 M7.9 40.35 L7.9 40.3 7.95 40.3 7.9 40.35" fill="#bb9b86" fill-rule="evenodd" stroke="none"/>
      <path d="M21.65 14.15 L21.75 13.95 21.85 13.9 21.8 13.95 21.7 14.2 21.65 14.15" fill="#ccbcb1" fill-rule="evenodd" stroke="none"/>
      <path d="M21.6 14.1 L21.55 14.1 21.65 14.0 21.6 14.1 M7.9 40.3 L8.05 40.05 8.1 40.0 8.15 39.95 7.95 40.3 7.9 40.3" fill="#917868" fill-rule="evenodd" stroke="none"/>
      <path d="M7.95 40.3 L7.9 40.35 M7.9 40.3 L7.95 40.3 Z" fill="none" stroke="#030100" stroke-linecap="round" stroke-linejoin="round" stroke-opacity="0.3019608" stroke-width="0.05"/>
    </g>
    <g id="sprite1" transform="matrix(1.0, 0.0, 0.0, 1.0, 252.75, 235.4)">
      <use height="470.75" transform="matrix(1.0, 0.0, 0.0, 1.0, -252.75, -235.4)" width="504.95" xlink:href="#shape1"/>
    </g>
    <g id="shape1" transform="matrix(1.0, 0.0, 0.0, 1.0, 252.75, 235.4)">
      <path d="M-28.6 -61.65 L-22.35 -61.85 -20.05 -61.95 Q41.15 -112.25 113.9 -194.2 L134.55 -217.8 122.8 -203.65 150.4 -228.85 133.45 -206.65 54.55 -129.5 -109.6 36.3 -115.2 34.4 -115.55 34.3 -109.75 28.6 -68.45 -12.15 -71.85 -11.7 -78.7 -10.9 -28.6 -61.65 M161.4 -215.35 L161.95 -209.6 81.6 -148.25 161.4 -215.35 M-219.7 231.5 L-226.25 228.05 Q-205.2 167.2 -167.65 110.5 L-166.85 109.25 Q-199.7 170.85 -219.7 231.5 M-232.8 224.55 L-242.45 219.35 Q-238.3 207.25 -231.7 194.4 -216.7 164.95 -188.95 131.35 -215.3 175.65 -232.8 224.55 M-134.0 54.4 L-128.3 55.05 -152.85 79.9 Q-152.5 77.0 -154.45 76.15 -155.65 75.6 -157.7 75.8 L-135.75 54.15 -134.0 54.4" fill="#714f28" fill-rule="evenodd" stroke="none"/>
      <path d="M134.55 -217.8 L146.4 -231.85 146.45 -231.9 150.4 -228.85 122.8 -203.65 134.55 -217.8 M155.0 -224.65 Q152.1 -215.35 161.1 -218.55 L139.25 -204.0 149.55 -217.5 155.0 -224.65" fill="#51371e" fill-rule="evenodd" stroke="none"/>
      <path d="M-28.6 -61.65 L142.55 -234.9 146.45 -231.9 146.4 -231.85 134.55 -217.8 113.9 -194.2 -22.35 -61.85 -28.6 -61.65" fill="#cfa371" fill-rule="evenodd" stroke="none"/>
      <path d="M-22.35 -61.85 L113.9 -194.2 Q41.15 -112.25 -20.05 -61.95 L-22.35 -61.85 M-71.85 -11.7 L-68.45 -12.15 -109.75 28.6 -71.85 -11.7" fill="#806446" fill-rule="evenodd" stroke="none"/>
      <path d="M161.1 -218.55 L161.4 -215.35 81.6 -148.25 161.95 -209.6 162.6 -203.9 117.75 -169.45 Q8.55 -70.5 -97.9 40.3 L-113.75 56.85 -146.65 91.85 Q-191.8 159.5 -213.4 234.85 L-219.7 231.5 Q-199.7 170.85 -166.85 109.25 L-167.65 110.5 -159.2 93.95 149.55 -217.5 139.25 -204.0 161.1 -218.55" fill="#cf8b40" fill-rule="evenodd" stroke="none"/>
      <path d="M-242.45 219.35 L-252.25 214.2 Q-224.4 149.9 -177.7 89.25 L-78.7 -10.9 -71.85 -11.7 -109.75 28.6 -115.55 34.3 -115.2 34.4 -134.0 54.4 -135.75 54.15 -157.7 75.8 Q-155.65 75.6 -154.45 76.15 L-183.0 106.5 -177.5 106.5 -197.0 134.5 -199.5 126.5 -231.7 194.4 Q-238.3 207.25 -242.45 219.35" fill="#fca94e" fill-rule="evenodd" stroke="none"/>
      <path d="M150.4 -228.85 L153.6 -226.35 155.0 -224.65 149.55 -217.5 -159.2 93.95 -167.65 110.5 Q-205.2 167.2 -226.25 228.05 L-232.8 224.55 Q-215.3 175.65 -188.95 131.35 -216.7 164.95 -231.7 194.4 L-199.5 126.5 -197.0 134.5 -177.5 106.5 -183.0 106.5 -154.45 76.15 Q-152.5 77.0 -152.85 79.9 L-128.3 55.05 -134.0 54.4 -115.2 34.4 -109.6 36.3 54.55 -129.5 133.45 -206.65 150.4 -228.85" fill="#c4803c" fill-rule="evenodd" stroke="none"/>
      <path d="M146.45 -231.9 L142.55 -234.9 -28.6 -61.65 M146.45 -231.9 L150.4 -228.85 153.6 -226.35 155.35 -225.05 155.0 -224.65 Q152.1 -215.35 161.1 -218.55 L161.4 -215.35 161.95 -209.6 162.6 -203.9 117.75 -169.45 Q8.55 -70.5 -97.9 40.3 L-113.75 56.85 -146.65 91.85 Q-191.8 159.5 -213.4 234.85 L-219.7 231.5 -226.25 228.05 -232.8 224.55 -242.45 219.35 -252.25 214.2 Q-224.4 149.9 -177.7 89.25 L-78.7 -10.9 -28.6 -61.65 M155.0 -224.65 L153.6 -226.35 M161.1 -218.55 L139.25 -204.0 149.55 -217.5 155.0 -224.65" fill="none" stroke="#000000" stroke-linecap="round" stroke-linejoin="round" stroke-opacity="0.2509804" stroke-width="1.0"/>
      <path d="M229.1 -27.35 Q235.0 -17.55 240.05 -7.75 L218.6 27.5 215.25 21.6 215.2 21.5 Q220.8 9.55 219.0 -6.9 L217.95 -13.7 225.0 -19.0 229.1 -27.35 M248.9 10.6 L249.95 13.0 243.8 49.7 234.2 58.05 Q228.85 46.8 223.2 36.0 L248.9 10.6 M87.9 -131.1 L85.55 -119.95 71.65 -115.8 87.9 -131.1" fill="#771a0d" fill-rule="evenodd" stroke="none"/>
      <path d="M195.0 -75.9 Q203.15 -65.8 210.4 -55.75 L197.65 -38.95 Q190.9 -49.1 183.9 -58.5 L195.0 -75.9" fill="#5b120b" fill-rule="evenodd" stroke="none"/>
      <path d="M97.45 -140.1 Q116.3 -128.9 134.15 -113.3 L123.8 -89.7 Q109.85 -101.4 94.85 -111.65 L106.3 -113.45 107.05 -123.65 105.0 -121.45 Q96.95 -113.2 91.1 -119.35 L95.65 -138.4 97.45 -140.1" fill="#ba7001" fill-rule="evenodd" stroke="none"/>
      <path d="M87.3 -101.05 L93.25 -102.55 92.9 -112.9 104.4 -114.8 105.0 -121.45 107.05 -123.65 106.3 -113.45 94.85 -111.65 95.25 -101.2 85.9 -98.95 87.3 -101.05" fill="#000000" fill-rule="evenodd" stroke="none"/>
      <path d="M149.0 -66.5 L159.65 -88.05 Q172.05 -74.45 183.9 -58.5 L181.8 -55.25 168.9 -44.8 Q159.3 -56.1 149.0 -66.5" fill="#ff9900" fill-rule="evenodd" stroke="none"/>
      <path d="M149.0 -66.5 Q159.3 -56.1 168.9 -44.8 L152.65 -31.6 Q146.05 -39.2 139.05 -46.4 L149.0 -66.5 M157.3 -26.1 L168.9 -35.1 160.6 -22.05 157.3 -26.1 M215.2 21.5 L215.25 21.6 Q209.45 24.15 203.35 24.7 L207.9 15.5 195.85 24.65 Q188.9 23.95 181.5 20.65 185.25 18.0 183.6 11.8 L201.25 -1.3 209.65 12.0 215.2 21.5" fill="#ffff33" fill-rule="evenodd" stroke="none"/>
      <path d="M123.8 -89.7 L134.15 -113.3 Q147.15 -101.85 159.65 -88.05 L149.0 -66.5 Q136.85 -78.75 123.8 -89.7" fill="#db8402" fill-rule="evenodd" stroke="none"/>
      <path d="M85.45 -114.3 Q93.05 -110.05 87.3 -101.05 L85.9 -98.95 95.25 -101.2 94.85 -111.65 Q109.85 -101.4 123.8 -89.7 L114.65 -68.95 Q98.15 -82.7 79.7 -94.3 L85.45 -114.3" fill="#e2cd0c" fill-rule="evenodd" stroke="none"/>
      <path d="M104.2 -45.0 Q88.9 -59.4 73.05 -70.8 L74.2 -75.0 105.8 -48.75 104.2 -45.0 M56.0 -82.15 L49.6 -85.9 49.5 -85.95 Q45.65 -88.0 38.0 -84.05 L45.7 -91.35 56.25 -86.6 56.3 -86.55 56.0 -82.15" fill="#face6b" fill-rule="evenodd" stroke="none"/>
      <path d="M45.7 -91.35 L57.25 -102.2 56.3 -86.55 56.25 -86.6 45.7 -91.35 M74.2 -75.0 L79.7 -94.3 Q98.15 -82.7 114.65 -68.95 L105.8 -48.75 74.2 -75.0" fill="#871c01" fill-rule="evenodd" stroke="none"/>
      <path d="M57.25 -102.2 L60.6 -105.4 Q70.45 -100.1 79.7 -94.3 L74.2 -75.0 56.3 -86.55 57.25 -102.2" fill="#541101" fill-rule="evenodd" stroke="none"/>
      <path d="M60.6 -105.4 L64.3 -108.95 85.45 -114.3 79.7 -94.3 Q70.45 -100.1 60.6 -105.4" fill="#cab60b" fill-rule="evenodd" stroke="none"/>
      <path d="M168.9 -44.8 L181.8 -55.25 183.9 -58.5 Q190.9 -49.1 197.65 -38.95 L185.9 -23.4 Q179.35 -32.25 172.45 -40.6 L168.9 -44.8 M217.95 -13.7 L219.0 -6.9 Q220.8 9.55 215.2 21.5 L209.65 12.0 201.25 -1.3 217.95 -13.7" fill="#e38902" fill-rule="evenodd" stroke="none"/>
      <path d="M210.4 -55.75 Q220.65 -41.55 229.1 -27.35 L225.0 -19.0 217.95 -13.7 Q217.05 -18.55 215.5 -23.8 210.6 -20.95 206.45 -25.45 L197.65 -38.95 210.4 -55.75 M240.05 -7.75 Q244.8 1.4 248.9 10.6 L223.2 36.0 218.6 27.5 240.05 -7.75 M243.8 49.7 L240.55 72.1 234.2 58.05 243.8 49.7" fill="#921d10" fill-rule="evenodd" stroke="none"/>
      <path d="M201.25 -1.3 Q193.8 -12.65 185.9 -23.4 L197.65 -38.95 206.45 -25.45 Q210.6 -20.95 215.5 -23.8 217.05 -18.55 217.95 -13.7 L201.25 -1.3" fill="#fda92d" fill-rule="evenodd" stroke="none"/>
      <path d="M249.95 13.0 L252.2 18.3 243.8 49.7 249.95 13.0 M73.05 -70.8 Q64.6 -76.9 56.0 -82.15 L56.3 -86.55 74.2 -75.0 73.05 -70.8" fill="#f9c44a" fill-rule="evenodd" stroke="none"/>
      <path d="M252.2 18.3 L248.25 93.95 Q242.1 75.55 240.55 72.1 L243.8 49.7 252.2 18.3" fill="#facc63" fill-rule="evenodd" stroke="none"/>
      <path d="M129.3 -26.65 L139.05 -46.4 Q146.05 -39.2 152.65 -31.6 L136.55 -18.5 129.3 -26.65 M140.95 -13.5 L157.3 -26.1 160.6 -22.05 149.1 -4.1 140.95 -13.5 M215.25 21.6 L218.6 27.5 198.95 59.9 223.2 36.0 Q228.85 46.8 234.2 58.05 L205.0 83.75 188.45 54.7 203.35 24.7 Q209.45 24.15 215.25 21.6 M178.0 38.2 L168.7 22.95 183.6 11.8 Q185.25 18.0 181.5 20.65 188.9 23.95 195.85 24.65 L178.0 38.2" fill="#ff3300" fill-rule="evenodd" stroke="none"/>
      <path d="M248.25 93.95 L233.6 148.6 230.5 141.95 Q216.6 112.45 202.05 86.35 L205.0 83.75 231.4 135.6 240.55 72.1 Q242.1 75.55 248.25 93.95 M186.2 59.15 L174.6 40.8 178.0 38.2 188.45 54.7 186.2 59.15 M164.55 26.05 L156.75 15.15 160.1 10.65 168.7 22.95 164.55 26.05" fill="#fffcf7" fill-rule="evenodd" stroke="none"/>
      <path d="M195.85 24.65 Q199.65 25.1 203.35 24.7 L188.45 54.7 178.0 38.2 195.85 24.65 M218.6 27.5 L223.2 36.0 198.95 59.9 218.6 27.5 M172.7 -5.9 L182.55 8.7 183.6 11.8 168.7 22.95 160.1 10.65 172.7 -5.9 M205.0 83.75 L234.2 58.05 240.55 72.1 231.4 135.6 205.0 83.75" fill="#f96706" fill-rule="evenodd" stroke="none"/>
      <path d="M172.7 -5.9 L185.9 -23.4 Q193.8 -12.65 201.25 -1.3 L183.6 11.8 182.55 8.7 172.7 -5.9 M195.85 24.65 L207.9 15.5 203.35 24.7 Q199.65 25.1 195.85 24.65" fill="#fefd89" fill-rule="evenodd" stroke="none"/>
      <path d="M202.05 86.35 L191.25 67.55 186.2 59.15 188.45 54.7 205.0 83.75 202.05 86.35 M174.6 40.8 Q169.65 33.25 164.55 26.05 L168.7 22.95 178.0 38.2 174.6 40.8 M145.95 0.9 L136.8 -10.3 140.95 -13.5 149.1 -4.1 145.95 0.9 M132.6 -15.3 L126.85 -21.8 129.3 -26.65 136.55 -18.5 132.6 -15.3" fill="#fce1a5" fill-rule="evenodd" stroke="none"/>
      <path d="M156.75 15.15 L145.95 0.9 149.1 -4.1 160.1 10.65 156.75 15.15 M136.8 -10.3 L132.6 -15.3 136.55 -18.5 140.95 -13.5 136.8 -10.3 M126.85 -21.8 Q115.65 -34.25 104.2 -45.0 L105.8 -48.75 129.3 -26.65 126.85 -21.8" fill="#fbd98c" fill-rule="evenodd" stroke="none"/>
      <path d="M123.8 -89.7 Q136.85 -78.75 149.0 -66.5 L139.05 -46.4 Q127.4 -58.3 114.65 -68.95 L123.8 -89.7 M157.3 -26.1 L152.65 -31.6 168.9 -44.8 172.45 -40.6 Q179.35 -32.25 185.9 -23.4 L172.7 -5.9 Q166.85 -14.2 160.6 -22.05 L168.9 -35.1 157.3 -26.1" fill="#ecec02" fill-rule="evenodd" stroke="none"/>
      <path d="M105.8 -48.75 L114.65 -68.95 Q127.4 -58.3 139.05 -46.4 L129.3 -26.65 105.8 -48.75 M152.65 -31.6 L157.3 -26.1 140.95 -13.5 136.55 -18.5 152.65 -31.6 M160.6 -22.05 Q166.85 -14.2 172.7 -5.9 L160.1 10.65 149.1 -4.1 160.6 -22.05" fill="#ca2902" fill-rule="evenodd" stroke="none"/>
      <path d="M121.0 -162.0 Q117.05 -157.45 121.15 -151.9 132.25 -142.15 142.55 -132.45 L134.15 -113.3 Q116.3 -128.9 97.45 -140.1 L121.0 -162.0" fill="#ad2112" fill-rule="evenodd" stroke="none"/>
      <path d="M134.15 -113.3 L142.55 -132.45 Q156.3 -119.3 168.6 -106.2 L159.65 -88.05 Q147.15 -101.85 134.15 -113.3" fill="#cc2518" fill-rule="evenodd" stroke="none"/>
      <path d="M168.6 -106.2 Q182.75 -91.05 195.0 -75.9 L183.9 -58.5 Q172.05 -74.45 159.65 -88.05 L168.6 -106.2" fill="#e63219" fill-rule="evenodd" stroke="none"/>
      <path d="M142.55 -132.45 Q132.25 -142.15 121.15 -151.9 117.05 -157.45 121.0 -162.0 M142.55 -132.45 Q156.3 -119.3 168.6 -106.2 182.75 -91.05 195.0 -75.9 203.15 -65.8 210.4 -55.75 220.65 -41.55 229.1 -27.35 235.0 -17.55 240.05 -7.75 244.8 1.4 248.9 10.6 L249.95 13.0 252.2 18.3 248.25 93.95 233.6 148.6 230.5 141.95 Q216.6 112.45 202.05 86.35 L191.25 67.55 186.2 59.15 174.6 40.8 Q169.65 33.25 164.55 26.05 L156.75 15.15 145.95 0.9 136.8 -10.3 132.6 -15.3 126.85 -21.8 Q115.65 -34.25 104.2 -45.0 88.9 -59.4 73.05 -70.8 64.6 -76.9 56.0 -82.15 L49.6 -85.9 49.5 -85.95 Q45.65 -88.0 38.0 -84.05 M94.85 -111.65 L95.25 -101.2 85.9 -98.95 87.3 -101.05 M105.0 -121.45 L107.05 -123.65 106.3 -113.45 94.85 -111.65 M79.7 -94.3 Q70.45 -100.1 60.6 -105.4" fill="none" stroke="#000000" stroke-linecap="round" stroke-linejoin="round" stroke-opacity="0.2" stroke-width="0.05"/>
      <path d="M86.65 -208.45 L85.6 -214.45 103.3 -209.05 Q107.25 -200.55 107.15 -179.6 L107.1 -179.8 106.9 -181.5 106.6 -181.95 Q105.3 -186.7 104.05 -185.4 L101.95 -187.9 57.25 -148.5 57.3 -148.4 39.15 -131.1 37.35 -130.95 3.0 -100.7 27.05 -126.1 27.95 -127.05 55.85 -156.5 55.85 -156.55 56.5 -157.2 78.0 -179.95 Q85.2 -187.5 86.65 -197.9 L86.65 -198.45 86.95 -204.25 86.65 -208.45 M55.85 -156.5 L56.5 -157.2 55.85 -156.5" fill="#cccccc" fill-rule="evenodd" stroke="none"/>
      <path d="M106.9 -181.5 L107.1 -179.8 108.05 -172.0 117.8 -169.45 119.1 -169.1 119.05 -169.05 126.55 -167.1 95.65 -138.4 91.4 -120.5 91.4 -120.45 91.4 -120.5 91.4 -120.45 91.1 -119.35 89.85 -118.85 85.45 -114.3 64.3 -108.95 32.6 -78.85 Q27.65 -91.25 8.75 -100.05 26.05 -102.95 27.75 -104.55 L36.45 -112.7 48.7 -127.35 48.7 -127.3 57.35 -135.65 59.0 -135.7 59.35 -135.95 59.4 -135.95 59.8 -136.25 Q63.45 -138.7 63.25 -138.95 77.75 -147.7 78.5 -155.2 L78.95 -153.1 Q80.9 -155.95 82.6 -157.7 L82.5 -157.55 106.9 -181.5 106.85 -181.0 106.5 -178.35 106.85 -181.0 106.9 -181.5 M117.8 -169.45 L119.05 -169.05 117.8 -169.45 M34.2 -110.05 L34.15 -110.3 30.25 -106.65 34.2 -110.0 34.2 -110.05 M58.45 -136.7 L58.75 -136.45 59.25 -136.05 57.35 -135.65 57.25 -135.65 57.4 -135.7 58.45 -136.7 M34.2 -110.3 L34.25 -110.05 35.25 -111.25 34.2 -110.3 M29.35 -81.2 L21.3 -87.15 14.7 -92.05 14.9 -92.25 15.4 -92.75 15.45 -92.8 Q16.85 -94.15 32.6 -78.85 L31.0 -80.0 30.95 -80.0 29.75 -80.9 29.35 -81.2 M31.0 -80.0 L29.75 -80.9 31.0 -80.0 M14.15 -92.45 L14.5 -92.2 Q13.25 -91.45 14.15 -92.45 M71.65 -115.8 L87.9 -131.1 71.65 -115.8" fill="#000000" fill-rule="evenodd" stroke="none"/>
      <path d="M3.0 -100.7 L37.35 -130.95 39.15 -131.1 57.3 -148.4 57.25 -148.5 101.95 -187.9 104.05 -185.4 106.6 -181.95 106.9 -181.5 82.5 -157.55 82.6 -157.7 Q80.9 -155.95 78.95 -153.1 L78.5 -155.2 Q77.75 -147.7 63.25 -138.95 63.45 -138.7 59.8 -136.25 L59.4 -135.95 59.35 -135.95 59.0 -135.7 57.35 -135.65 48.7 -127.3 48.7 -127.35 36.45 -112.7 27.75 -104.55 Q26.05 -102.95 8.75 -100.05 27.65 -91.25 32.6 -78.85 16.85 -94.15 15.45 -92.8 L14.7 -93.05 12.2 -93.9 3.0 -100.7 M34.2 -110.05 L34.2 -110.0 30.25 -106.65 34.15 -110.3 34.2 -110.05 M34.2 -110.3 L35.25 -111.25 34.25 -110.05 34.2 -110.3 M58.45 -136.7 L57.4 -135.7 57.25 -135.65 57.35 -135.65 59.25 -136.05 58.75 -136.45 58.45 -136.7" fill="#999999" fill-rule="evenodd" stroke="none"/>
      <path d="M107.15 -179.6 Q107.25 -200.55 103.3 -209.05 L85.6 -214.45 86.65 -208.45 M86.65 -198.45 L86.65 -197.9 Q85.2 -187.5 78.0 -179.95 L56.5 -157.2 55.85 -156.5 27.95 -127.05 M27.05 -126.1 L3.0 -100.7 M106.9 -181.5 L107.1 -179.8 M106.5 -178.35 L106.85 -181.0 106.9 -181.5 M32.6 -78.85 L64.3 -108.95 85.45 -114.3 M91.1 -119.35 L91.4 -120.45 91.4 -120.5 95.65 -138.4 126.55 -167.1 119.05 -169.05 117.8 -169.45 M108.05 -172.0 L107.1 -179.8 M29.35 -81.2 L29.75 -80.9 31.0 -80.0 32.6 -78.85 M14.7 -92.05 L21.3 -87.15 M14.5 -92.2 L14.7 -92.05 M14.15 -92.45 L14.5 -92.2 M14.15 -92.45 L12.2 -93.9 3.0 -100.7 M87.9 -131.1 L71.65 -115.8" fill="none" stroke="#000000" stroke-linecap="round" stroke-linejoin="round" stroke-opacity="0.2" stroke-width="0.05"/>
      <path d="M15.05 -113.85 L14.9 -113.7 14.05 -112.85 14.9 -113.8 15.05 -114.0 15.05 -113.85 14.9 -113.7 14.9 -113.8 14.9 -113.7 15.05 -113.85 M38.95 -146.15 L39.35 -146.15 39.25 -146.1 38.95 -146.15" fill="#ffff33" fill-rule="evenodd" stroke="none"/>
      <path d="M73.75 -202.75 Q71.5 -201.7 71.5 -198.55 71.5 -195.0 77.15 -195.3 77.4 -195.3 79.65 -193.9 81.9 -192.5 83.35 -192.5 85.75 -192.5 85.75 -194.75 85.75 -197.4 83.5 -199.7 81.5 -201.85 78.65 -202.75 75.7 -203.7 73.75 -202.75 M86.65 -209.7 L86.65 -208.45 86.95 -204.25 Q78.85 -198.85 107.25 -188.9 109.65 -186.5 110.05 -183.0 L106.5 -178.35 106.9 -181.45 104.5 -183.55 Q101.45 -186.3 77.95 -192.7 59.1 -200.9 86.65 -209.7 M53.8 -189.7 Q61.2 -188.3 64.15 -186.55 69.8 -183.3 77.15 -178.2 65.45 -171.9 60.6 -160.0 58.55 -155.0 60.3 -149.75 62.35 -143.8 68.55 -142.85 73.5 -142.15 77.55 -145.4 83.0 -149.85 84.85 -157.45 L85.7 -161.35 85.8 -162.5 85.0 -163.35 83.15 -163.4 Q76.25 -161.4 70.05 -158.15 77.4 -168.7 89.1 -171.5 90.1 -171.85 91.05 -171.2 96.9 -166.9 96.3 -159.2 L95.15 -149.55 Q105.2 -156.85 110.1 -168.2 L111.3 -171.15 108.05 -172.0 Q111.95 -177.25 117.6 -172.8 L118.3 -171.9 Q123.3 -160.35 116.85 -150.5 114.5 -146.9 110.05 -145.6 102.0 -143.1 93.7 -144.35 99.55 -138.8 97.75 -131.4 95.8 -123.15 88.65 -118.4 L91.1 -119.35 Q92.05 -118.25 93.4 -117.55 98.2 -115.3 102.35 -119.0 L105.0 -121.45 104.4 -114.8 92.9 -112.9 93.25 -102.55 87.3 -101.05 Q88.45 -103.4 89.15 -106.0 90.35 -110.55 86.65 -113.4 L85.45 -114.3 86.95 -116.65 Q81.35 -108.95 72.95 -105.15 64.45 -101.3 55.6 -104.0 55.35 -93.35 48.3 -85.7 43.55 -80.55 36.4 -80.4 L24.95 -81.3 Q20.4 -81.85 21.1 -86.4 L21.3 -87.15 25.4 -84.15 Q34.9 -89.2 41.7 -97.35 L38.75 -91.75 Q38.5 -91.3 35.6 -88.9 33.0 -86.75 33.0 -85.95 32.8 -85.4 33.3 -84.9 34.25 -84.0 37.75 -84.0 44.65 -84.0 48.65 -93.0 50.65 -97.5 51.25 -102.4 51.25 -108.95 46.65 -104.2 L44.55 -101.35 Q34.55 -98.7 31.0 -107.55 29.25 -111.95 31.05 -115.85 L31.1 -115.35 Q33.0 -117.6 35.75 -119.0 39.2 -120.65 42.5 -118.8 L43.5 -118.2 Q35.55 -116.75 39.0 -107.65 40.5 -103.65 44.8 -105.65 48.55 -107.35 50.95 -110.5 54.1 -114.65 53.7 -119.95 52.75 -132.85 40.4 -135.15 L38.1 -135.45 Q25.05 -137.85 17.65 -127.85 15.8 -125.3 15.5 -122.05 L15.05 -114.0 14.9 -113.8 Q12.45 -121.5 9.6 -133.4 20.6 -145.95 32.5 -141.5 L24.75 -153.2 Q34.15 -146.45 38.95 -146.15 L39.25 -146.1 Q46.85 -144.8 53.6 -141.15 L55.1 -140.55 Q53.75 -142.2 51.35 -150.15 48.9 -158.15 48.35 -167.7 48.2 -170.7 47.0 -174.15 L53.75 -163.75 Q49.0 -176.7 53.8 -189.7 M98.75 -150.0 Q98.6 -149.4 98.95 -148.85 99.6 -147.75 102.1 -147.75 107.55 -147.75 111.05 -154.15 113.5 -158.75 113.5 -161.65 113.5 -164.9 110.6 -162.95 107.9 -161.2 106.25 -158.0 105.15 -155.85 101.6 -153.75 98.75 -152.05 98.75 -150.0 M89.25 -152.65 Q89.25 -155.05 87.65 -155.25 85.85 -155.5 84.4 -150.9 83.95 -149.4 80.75 -146.65 77.75 -144.0 77.75 -143.45 77.75 -142.9 78.05 -142.45 78.55 -141.5 79.85 -141.5 82.7 -141.5 86.2 -146.6 89.25 -151.05 89.25 -152.65 M90.0 -141.5 Q79.95 -134.0 67.75 -133.75 64.1 -133.65 60.55 -135.25 64.75 -128.2 61.3 -120.55 59.35 -116.3 56.4 -112.65 64.45 -108.55 72.5 -112.4 85.3 -118.5 90.5 -131.65 92.5 -136.65 90.0 -141.5 M45.4 -142.05 Q43.0 -142.05 43.0 -139.8 43.0 -138.5 46.0 -136.4 49.55 -133.9 50.35 -132.75 L51.75 -130.9 Q52.5 -129.85 52.5 -129.15 52.5 -127.4 52.65 -127.1 53.15 -126.0 55.35 -126.0 57.5 -126.0 58.05 -127.25 58.25 -127.7 58.25 -129.5 58.25 -135.55 50.65 -140.2 47.6 -142.05 45.4 -142.05" fill="#ffcc00" fill-rule="evenodd" stroke="none"/>
      <path d="M73.75 -202.75 Q75.7 -203.7 78.65 -202.75 81.5 -201.85 83.5 -199.7 85.75 -197.4 85.75 -194.75 85.75 -192.5 83.35 -192.5 81.9 -192.5 79.65 -193.9 77.4 -195.3 77.15 -195.3 71.5 -195.0 71.5 -198.55 71.5 -201.7 73.75 -202.75 M41.7 -97.35 L41.85 -97.75 44.55 -101.35 46.65 -104.2 Q51.25 -108.95 51.25 -102.4 50.65 -97.5 48.65 -93.0 44.65 -84.0 37.75 -84.0 34.25 -84.0 33.3 -84.9 32.8 -85.4 33.0 -85.95 33.0 -86.75 35.6 -88.9 38.5 -91.3 38.75 -91.75 L41.7 -97.35 M9.6 -133.4 L9.4 -134.3 Q6.4 -146.85 7.0 -158.6 L7.35 -167.55 Q17.45 -158.45 24.75 -153.2 L32.5 -141.5 Q20.6 -145.95 9.6 -133.4 M47.0 -174.15 Q44.4 -181.85 36.8 -191.95 L53.8 -189.7 Q49.0 -176.7 53.75 -163.75 L47.0 -174.15 M89.25 -152.65 Q89.25 -151.05 86.2 -146.6 82.7 -141.5 79.85 -141.5 78.55 -141.5 78.05 -142.45 77.75 -142.9 77.75 -143.45 77.75 -144.0 80.75 -146.65 83.95 -149.4 84.4 -150.9 85.85 -155.5 87.65 -155.25 89.25 -155.05 89.25 -152.65 M98.75 -150.0 Q98.75 -152.05 101.6 -153.75 105.15 -155.85 106.25 -158.0 107.9 -161.2 110.6 -162.95 113.5 -164.9 113.5 -161.65 113.5 -158.75 111.05 -154.15 107.55 -147.75 102.1 -147.75 99.6 -147.75 98.95 -148.85 98.6 -149.4 98.75 -150.0 M45.4 -142.05 Q47.6 -142.05 50.65 -140.2 58.25 -135.55 58.25 -129.5 58.25 -127.7 58.05 -127.25 57.5 -126.0 55.35 -126.0 53.15 -126.0 52.65 -127.1 52.5 -127.4 52.5 -129.15 52.5 -129.85 51.75 -130.9 L50.35 -132.75 Q49.55 -133.9 46.0 -136.4 43.0 -138.5 43.0 -139.8 43.0 -142.05 45.4 -142.05" fill="#ffe68a" fill-rule="evenodd" stroke="none"/>
      <path d="M86.65 -209.7 Q59.1 -200.9 77.95 -192.7 101.45 -186.3 104.5 -183.55 L106.9 -181.45 106.5 -178.35 110.05 -183.0 Q109.65 -186.5 107.25 -188.9 78.85 -198.85 86.95 -204.25 L86.65 -208.45 86.65 -209.7 M53.8 -189.7 Q61.2 -188.3 64.15 -186.55 69.8 -183.3 77.15 -178.2 65.45 -171.9 60.6 -160.0 58.55 -155.0 60.3 -149.75 62.35 -143.8 68.55 -142.85 73.5 -142.15 77.55 -145.4 83.0 -149.85 84.85 -157.45 L85.7 -161.35 85.8 -162.5 85.0 -163.35 83.15 -163.4 Q76.25 -161.4 70.05 -158.15 77.4 -168.7 89.1 -171.5 90.1 -171.85 91.05 -171.2 96.9 -166.9 96.3 -159.2 L95.15 -149.55 Q105.2 -156.85 110.1 -168.2 L111.3 -171.15 108.05 -172.0 Q111.95 -177.25 117.6 -172.8 L118.3 -171.9 Q123.3 -160.35 116.85 -150.5 114.5 -146.9 110.05 -145.6 102.0 -143.1 93.7 -144.35 99.55 -138.8 97.75 -131.4 95.8 -123.15 88.65 -118.4 L91.1 -119.35 Q92.05 -118.25 93.4 -117.55 98.2 -115.3 102.35 -119.0 L105.0 -121.45 104.4 -114.8 92.9 -112.9 93.25 -102.55 87.3 -101.05 Q88.45 -103.4 89.15 -106.0 90.35 -110.55 86.65 -113.4 L85.45 -114.3 86.95 -116.65 Q81.35 -108.95 72.95 -105.15 64.45 -101.3 55.6 -104.0 55.35 -93.35 48.3 -85.7 43.55 -80.55 36.4 -80.4 L24.95 -81.3 Q20.4 -81.85 21.1 -86.4 L21.3 -87.15 25.4 -84.15 Q34.9 -89.2 41.7 -97.35 M44.55 -101.35 Q34.55 -98.7 31.0 -107.55 29.25 -111.95 31.05 -115.85 L31.1 -115.35 Q33.0 -117.6 35.75 -119.0 39.2 -120.65 42.5 -118.8 L43.5 -118.2 Q35.55 -116.75 39.0 -107.65 40.5 -103.65 44.8 -105.65 48.55 -107.35 50.95 -110.5 54.1 -114.65 53.7 -119.95 52.75 -132.85 40.4 -135.15 L38.1 -135.45 38.65 -135.4 Q32.75 -134.85 38.1 -135.45 25.05 -137.85 17.65 -127.85 15.8 -125.3 15.5 -122.05 L15.05 -114.0 Q25.45 -126.35 15.05 -113.85 L14.9 -113.7 14.05 -112.85 14.9 -113.8 Q12.45 -121.5 9.6 -133.4 L9.4 -134.3 Q6.4 -146.85 7.0 -158.6 L7.35 -167.55 7.2 -167.7 Q7.35 -168.8 7.35 -167.55 17.45 -158.45 24.75 -153.2 34.15 -146.45 38.95 -146.15 L39.35 -146.15 M39.25 -146.1 Q46.85 -144.8 53.6 -141.15 L55.1 -140.55 Q53.75 -142.2 51.35 -150.15 48.9 -158.15 48.35 -167.7 48.2 -170.7 47.0 -174.15 44.4 -181.85 36.8 -191.95 L53.8 -189.7 M90.0 -141.5 Q79.95 -134.0 67.75 -133.75 64.1 -133.65 60.55 -135.25 64.75 -128.2 61.3 -120.55 59.35 -116.3 56.4 -112.65 64.45 -108.55 72.5 -112.4 85.3 -118.5 90.5 -131.65 92.5 -136.65 90.0 -141.5 M66.4 -167.6 L65.95 -167.3 M39.25 -146.1 L38.95 -146.15 M15.05 -114.0 L14.9 -113.8 14.9 -113.7 15.05 -113.85 15.05 -114.0" fill="none" stroke="#000000" stroke-linecap="round" stroke-linejoin="round" stroke-opacity="0.2" stroke-width="0.05"/>
      <path d="M-114.35 56.15 L-118.35 51.65 Q-115.3 53.8 -112.0 53.25 L-111.4 53.15 -114.35 56.15 M-94.25 35.55 L-97.45 38.85 -95.0 34.4 -94.25 35.55 M-92.55 33.8 L-92.6 33.85 -93.3 30.9 -92.55 33.8" fill="#771a0d" fill-rule="evenodd" stroke="none"/>
      <path d="M-11.05 -105.5 Q-5.6 -107.3 -0.95 -105.45 4.75 -100.8 7.95 -97.65 9.8 -95.0 11.45 -91.5 L-0.85 -99.75 6.75 -92.55 0.95 -96.75 0.75 -96.85 0.8 -96.9 -1.4 -98.5 -4.95 -101.05 -4.8 -101.7 -11.05 -105.5 M29.1 -83.7 Q37.0 -84.45 40.75 -79.85 32.6 -76.55 23.95 -71.65 L20.95 -68.8 20.9 -68.8 19.85 -68.85 Q18.5 -68.25 16.55 -64.7 -1.2 -42.6 -20.6 -37.95 -34.35 -13.8 -56.0 -1.95 L-65.65 12.6 -80.45 26.7 -89.25 37.7 -91.4 27.65 Q-70.5 10.25 -50.45 -23.35 L-60.65 3.3 -46.95 -26.05 Q-34.15 -27.7 -18.65 -47.95 L-20.6 -37.95 Q-5.7 -51.0 -12.2 -45.5 L-16.55 -41.65 -13.95 -51.6 Q-0.1 -56.1 13.75 -73.05 L20.1 -69.3 Q19.65 -69.0 19.85 -68.85 19.65 -69.0 20.1 -69.3 L20.95 -68.8 20.9 -68.8 20.95 -68.8 20.1 -69.3 20.4 -69.55 16.9 -75.5 29.1 -83.7 M-91.15 40.1 Q-94.05 43.8 -114.35 61.6 L-114.35 56.15 -111.4 53.15 Q-104.8 51.5 -97.45 38.85 -104.8 51.5 -111.4 53.15 L-112.0 53.25 -95.85 33.15 -95.0 34.4 -97.45 38.85 -94.25 35.55 -91.15 40.1 M-118.35 51.65 Q-121.1 49.75 -123.65 45.75 L-118.35 51.65 M23.95 -71.65 L20.4 -69.55 23.95 -71.65 M-92.55 33.8 L-91.85 37.0 -92.6 33.85 -92.55 33.8 M-14.25 -70.65 L-15.7 -69.25 -10.7 -89.0 -14.25 -70.65 M-60.65 3.3 L-56.0 -1.95 -60.65 3.3" fill="#ff3300" fill-rule="evenodd" stroke="none"/>
      <path d="M50.75 -87.15 Q49.05 -83.15 40.75 -79.85 37.0 -84.45 29.1 -83.7 19.75 -93.0 9.4 -99.3 L-0.95 -105.45 Q-5.6 -107.3 -11.05 -105.5 L-17.3 -109.3 Q-1.2 -116.1 20.55 -104.2 29.0 -99.55 38.3 -92.1 L38.3 -92.05 50.75 -87.15 M-89.25 37.7 L-91.15 40.1 -91.85 37.0 -91.15 40.1 -94.25 35.55 -95.0 34.4 -95.85 33.15 -93.35 30.1 -94.7 24.15 -99.95 0.85 -96.3 -3.95 -94.65 -6.85 -96.3 -3.95 -99.95 0.85 -94.7 24.15 Q-117.2 31.4 -130.4 44.7 L-137.2 43.6 Q-130.75 20.3 -109.1 13.85 L-102.45 -0.1 -94.65 -6.85 -89.55 -15.65 -81.05 -21.65 Q-70.05 -33.55 -55.8 -46.8 L-49.55 -55.5 -32.55 -71.3 -26.35 -73.35 -15.0 -82.9 -10.7 -89.0 -6.4 -95.1 -4.95 -101.05 -1.4 -98.5 Q2.05 -81.15 -14.25 -70.65 L-10.7 -89.0 -15.7 -69.25 -19.75 -53.25 Q-18.75 -61.45 -18.8 -66.25 L-18.85 -65.85 Q-40.7 -40.45 -45.85 -28.45 L-46.95 -26.05 -60.65 3.3 -50.45 -23.35 -47.1 -31.9 -46.95 -32.25 Q-59.5 -32.9 -94.3 6.75 L-94.3 7.8 Q-95.0 12.35 -93.95 16.1 L-91.4 27.65 -89.25 37.7 M7.95 -97.65 Q13.5 -92.25 11.45 -91.5 9.8 -95.0 7.95 -97.65 M-18.65 -47.95 L-13.95 -51.6 -16.55 -41.65 -20.6 -37.95 -18.65 -47.95 M20.1 -69.3 L13.75 -73.05 16.9 -75.5 20.4 -69.55 20.1 -69.3 M-92.55 33.8 L-93.35 30.1 -92.55 33.8 -93.3 30.9 -92.6 33.85 -91.85 37.0 -92.55 33.8 M-26.35 -73.35 L-29.65 -70.6 -47.1 -31.9 -29.65 -70.6 -26.35 -73.35 M-95.0 34.4 L-93.3 30.9 -95.0 34.4" fill="#ff9900" fill-rule="evenodd" stroke="none"/>
      <path d="M-0.95 -105.45 L9.4 -99.3 Q19.75 -93.0 29.1 -83.7 L16.9 -75.5 13.75 -73.05 Q-0.1 -56.1 -13.95 -51.6 L-18.65 -47.95 -14.25 -70.65 -18.65 -47.95 Q-34.15 -27.7 -46.95 -26.05 L-45.85 -28.45 Q-40.7 -40.45 -18.85 -65.85 L-18.8 -66.25 Q-18.75 -61.45 -19.75 -53.25 L-15.7 -69.25 -14.25 -70.65 Q2.05 -81.15 -1.4 -98.5 L0.8 -96.9 0.75 -96.85 0.95 -96.75 6.75 -92.55 -0.85 -99.75 11.45 -91.5 Q13.5 -92.25 7.95 -97.65 4.75 -100.8 -0.95 -105.45 M-123.65 45.75 L-130.4 44.7 Q-117.2 31.4 -94.7 24.15 L-93.35 30.1 -95.85 33.15 -112.0 53.25 Q-115.3 53.8 -118.35 51.65 L-123.65 45.75 M10.6 -77.9 L13.75 -73.05 10.6 -77.9 M-47.1 -31.9 L-50.45 -23.35 Q-70.5 10.25 -91.4 27.65 L-93.95 16.1 Q-95.0 12.35 -94.3 7.8 L-94.3 6.75 Q-59.5 -32.9 -46.95 -32.25 L-47.1 -31.9" fill="#4d2d00" fill-rule="evenodd" stroke="none"/>
      <path d="M40.75 -79.85 Q49.05 -83.15 50.75 -87.15 M-17.3 -109.3 L-11.05 -105.5 M40.75 -79.85 Q32.6 -76.55 23.95 -71.65 L20.95 -68.8 20.9 -68.8 19.85 -68.85 Q18.5 -68.25 16.55 -64.7 -1.2 -42.6 -20.6 -37.95 -34.35 -13.8 -56.0 -1.95 L-65.65 12.6 -80.45 26.7 -89.25 37.7 -91.15 40.1 Q-94.05 43.8 -114.35 61.6 L-114.35 56.15 -118.35 51.65 Q-121.1 49.75 -123.65 45.75 L-130.4 44.7 -137.2 43.6 Q-130.75 20.3 -109.1 13.85 L-102.45 -0.1 -94.65 -6.85 -89.55 -15.65 -81.05 -21.65 Q-70.05 -33.55 -55.8 -46.8 L-49.55 -55.5 -32.55 -71.3 -26.35 -73.35 -15.0 -82.9 -10.7 -89.0 -6.4 -95.1 -4.95 -101.05 -4.8 -101.7 -11.05 -105.5 M-14.25 -70.65 L-18.65 -47.95 -20.6 -37.95 -16.55 -41.65 M13.75 -73.05 L10.6 -77.9 M19.85 -68.85 Q19.65 -69.0 20.1 -69.3 L13.75 -73.05 M20.4 -69.55 L23.95 -71.65 M20.9 -68.8 L20.95 -68.8 20.1 -69.3 20.4 -69.55 M-94.65 -6.85 L-96.3 -3.95 -99.95 0.85 -94.7 24.15 -93.35 30.1 -92.55 33.8 -91.85 37.0 -91.15 40.1 M-97.45 38.85 Q-104.8 51.5 -111.4 53.15 M-47.1 -31.9 L-29.65 -70.6 -26.35 -73.35 M-10.7 -89.0 L-14.25 -70.65 M-47.1 -31.9 L-50.45 -23.35 -60.65 3.3 M-93.3 30.9 L-95.0 34.4 M-112.0 53.25 L-111.4 53.15 M-93.3 30.9 L-92.55 33.8 M-97.45 38.85 L-95.0 34.4 M-118.35 51.65 Q-115.3 53.8 -112.0 53.25 M-123.65 45.75 L-118.35 51.65 M-56.0 -1.95 L-60.65 3.3" fill="none" stroke="#0f0f0f" stroke-linecap="round" stroke-linejoin="round" stroke-opacity="0.3019608" stroke-width="1.0"/>
      <path d="M50.75 -87.15 L38.3 -92.05 38.3 -92.1 Q29.0 -99.55 20.55 -104.2 -1.2 -116.1 -17.3 -109.3" fill="none" stroke="#0f0f0f" stroke-linecap="round" stroke-linejoin="round" stroke-opacity="0.3019608" stroke-width="0.05"/>
    </g>
  </defs>
</svg>
