<?xml version="1.0" encoding="UTF-8" standalone="no"?>
<svg xmlns:xlink="http://www.w3.org/1999/xlink" height="600.0px" width="600.0px" xmlns="http://www.w3.org/2000/svg">
  <g transform="matrix(10.0, 0.0, 0.0, 10.0, 0.0, 0.0)">
    <use height="60.0" transform="matrix(1.0, 0.0, 0.0, 1.0, 0.0, 0.0)" width="60.0" xlink:href="#sprite0"/>
  </g>
  <defs>
    <g id="sprite0" transform="matrix(1.0, 0.0, 0.0, 1.0, 0.0, 0.0)">
      <use height="60.0" transform="matrix(1.0, 0.0, 0.0, 1.0, 0.0, 0.0)" width="60.0" xlink:href="#sprite1"/>
      <use height="52.15" transform="matrix(1.0, 0.0, 0.0, 1.0, 10.05, 3.85)" width="39.65" xlink:href="#shape1"/>
      <use height="40.1" transform="matrix(0.2926, 0.2561, -0.3112, 0.4389, 25.7742, 1.2139)" width="40.1" xlink:href="#sprite2"/>
      <use height="28.3" transform="matrix(1.0, 0.0, 0.0, 1.0, 20.45, 25.6)" width="27.65" xlink:href="#shape3"/>
      <use height="52.5" transform="matrix(0.2352, -0.0465, 0.0507, 0.2102, 16.4466, 40.5034)" width="52.5" xlink:href="#sprite3"/>
      <use height="52.5" transform="matrix(-0.1317, -0.1738, 0.1185, -0.1317, 38.1953, 33.1189)" width="52.5" xlink:href="#sprite3"/>
      <use height="45.6" transform="matrix(1.0, 0.0, 0.0, 1.0, 12.45, 8.75)" width="43.8" xlink:href="#shape5"/>
      <use height="335.55" transform="matrix(0.1037, 0.0, 0.0, 0.1152, 17.6736, 11.0694)" width="237.7" xlink:href="#sprite4"/>
      <use height="46.05" transform="matrix(1.0, 0.0, 0.0, 1.0, 14.45, 6.8)" width="32.9" xlink:href="#shape7"/>
      <use height="52.5" transform="matrix(0.265, 0.3497, -0.1937, 0.2152, 33.2295, 2.4195)" width="52.5" xlink:href="#sprite3"/>
      <use height="52.5" transform="matrix(0.3059, 0.4038, -0.2754, 0.306, 21.6985, 20.0687)" width="52.5" xlink:href="#sprite3"/>
      <use height="46.95" transform="matrix(1.0, 0.0, 0.0, 1.0, 15.4, 4.25)" width="29.35" xlink:href="#shape8"/>
    </g>
    <g id="sprite1" transform="matrix(1.0, 0.0, 0.0, 1.0, 0.0, 0.0)">
      <use height="60.0" transform="matrix(1.0, 0.0, 0.0, 1.0, 0.0, 0.0)" width="60.0" xlink:href="#shape0"/>
    </g>
    <g id="shape0" transform="matrix(1.0, 0.0, 0.0, 1.0, 0.0, 0.0)">
      <path d="M60.0 0.0 L60.0 60.0 0.0 60.0 0.0 0.0 60.0 0.0" fill="#ffba2e" fill-opacity="0.0" fill-rule="evenodd" stroke="none"/>
    </g>
    <g id="shape1" transform="matrix(1.0, 0.0, 0.0, 1.0, -10.05, -3.85)">
      <path d="M47.7 36.15 Q47.7 43.55 42.45 48.8 37.25 54.0 29.9 54.0 22.5 54.0 17.25 48.8 12.05 43.55 12.05 36.15 12.05 28.8 17.75 17.0 22.05 7.85 27.5 6.2 L30.7 5.85 Q38.0 6.5 42.9 17.7 47.7 28.8 47.7 36.15 Z" fill="none" stroke="#4ea0ab" stroke-linecap="round" stroke-linejoin="round" stroke-width="4.0"/>
      <path d="M42.45 48.8 Q37.25 54.0 29.9 54.0 22.5 54.0 17.25 48.8 12.05 43.55 12.05 36.15 12.05 28.8 17.75 17.0 22.05 7.85 27.5 6.2 L30.7 5.85 Q38.0 6.5 42.9 17.7 47.7 28.8 47.7 36.15 47.7 43.55 42.45 48.8" fill="url(#gradient0)" fill-rule="evenodd" stroke="none"/>
      <path d="M41.15 32.35 L42.35 32.4 Q44.3 33.1 45.25 35.2 46.45 37.9 46.0 40.9 45.55 43.7 44.0 45.95 42.45 48.3 40.25 49.85 38.0 51.45 35.35 52.1 L30.35 52.75 25.15 52.2 Q22.6 51.55 20.3 50.2 18.05 48.9 16.3 46.75 L15.2 45.35 Q14.15 43.9 14.55 42.2 14.6 42.0 14.75 41.95 15.9 41.45 16.95 42.35 L19.55 43.5 Q22.05 44.4 24.65 44.15 27.3 43.9 29.5 42.35 31.7 40.75 33.45 38.5 35.15 36.3 37.15 34.45 38.9 32.85 41.15 32.35" fill="#146485" fill-rule="evenodd" stroke="none"/>
    </g>
    <linearGradient gradientTransform="matrix(0.0, 0.0294, -0.0218, 0.0, 29.8, 29.95)" gradientUnits="userSpaceOnUse" id="gradient0" spreadMethod="pad" x1="-819.2" x2="819.2">
      <stop offset="0.32941176470588235" stop-color="#9df7bb"/>
      <stop offset="0.9529411764705882" stop-color="#38638a"/>
    </linearGradient>
    <g id="sprite2" transform="matrix(1.0, 0.0, 0.0, 1.0, 20.05, 20.05)">
      <use height="40.1" transform="matrix(1.0, 0.0, 0.0, 1.0, -20.05, -20.05)" width="40.1" xlink:href="#shape2"/>
    </g>
    <g id="shape2" transform="matrix(1.0, 0.0, 0.0, 1.0, 20.05, 20.05)">
      <path d="M14.15 -14.2 Q20.05 -8.3 20.05 0.0 20.05 8.3 14.15 14.15 8.3 20.05 0.0 20.05 -8.3 20.05 -14.2 14.15 -20.05 8.3 -20.05 0.0 -20.05 -8.3 -14.2 -14.2 -8.3 -20.05 0.0 -20.05 8.3 -20.05 14.15 -14.2" fill="url(#gradient1)" fill-rule="evenodd" stroke="none"/>
    </g>
    <radialGradient cx="0" cy="0" gradientTransform="matrix(0.0246, 0.0, 0.0, 0.0246, 0.0, 0.0)" gradientUnits="userSpaceOnUse" id="gradient1" r="819.2" spreadMethod="pad">
      <stop offset="0.6352941176470588" stop-color="#fbf1bf" stop-opacity="0.7019608"/>
      <stop offset="1.0" stop-color="#fbf1bf" stop-opacity="0.050980393"/>
    </radialGradient>
    <g id="shape3" transform="matrix(1.0, 0.0, 0.0, 1.0, -20.45, -25.6)">
      <path d="M48.1 35.75 Q47.75 41.2 44.9 45.6 42.15 49.65 37.45 52.3 34.15 54.15 29.25 53.85 24.4 53.55 21.35 51.4 20.7 51.0 20.5 50.3 20.25 49.55 20.9 49.3 27.65 47.0 34.75 39.25 41.35 31.95 41.8 27.35 42.05 25.35 43.05 25.65 44.05 25.9 45.25 27.75 48.35 32.1 48.1 35.75" fill="url(#gradient2)" fill-rule="evenodd" stroke="none"/>
    </g>
    <linearGradient gradientTransform="matrix(0.0064, 0.0071, -0.0139, 0.0154, 36.7, 43.25)" gradientUnits="userSpaceOnUse" id="gradient2" spreadMethod="pad" x1="-819.2" x2="819.2">
      <stop offset="0.3137254901960784" stop-color="#6499b8" stop-opacity="0.047058824"/>
      <stop offset="0.9098039215686274" stop-color="#6499b8"/>
    </linearGradient>
    <g id="sprite3" transform="matrix(1.0, 0.0, 0.0, 1.0, 26.25, 26.25)">
      <use height="52.5" transform="matrix(1.0, 0.0, 0.0, 1.0, -26.25, -26.25)" width="52.5" xlink:href="#shape4"/>
    </g>
    <g id="shape4" transform="matrix(1.0, 0.0, 0.0, 1.0, 26.25, 26.25)">
      <path d="M18.55 18.55 Q10.85 26.25 0.0 26.25 -10.85 26.25 -18.55 18.55 -26.25 10.85 -26.25 0.0 -26.25 -10.85 -18.55 -18.55 -10.85 -26.25 0.0 -26.25 10.85 -26.25 18.55 -18.55 26.25 -10.85 26.25 0.0 26.25 10.85 18.55 18.55" fill="url(#gradient3)" fill-rule="evenodd" stroke="none"/>
    </g>
    <radialGradient cx="0" cy="0" gradientTransform="matrix(0.0323, 0.0, 0.0, 0.0323, 0.0, 0.0)" gradientUnits="userSpaceOnUse" id="gradient3" r="819.2" spreadMethod="pad">
      <stop offset="0.2549019607843137" stop-color="#ffcc00"/>
      <stop offset="1.0" stop-color="#ffc900" stop-opacity="0.0"/>
    </radialGradient>
    <g id="shape5" transform="matrix(1.0, 0.0, 0.0, 1.0, -12.45, -8.75)">
      <path d="M23.2 9.05 L24.25 8.95 24.65 12.3 Q24.85 15.2 22.65 24.6 20.45 33.9 17.65 36.15 14.85 38.4 14.55 38.8 L14.0 39.15 Q12.9 38.85 12.55 36.3 12.2 33.7 12.9 30.55 13.85 26.0 15.45 21.65 17.25 17.0 19.6 13.0 21.2 10.3 23.2 9.05" fill="url(#gradient4)" fill-rule="evenodd" stroke="none"/>
      <path d="M47.25 30.55 Q47.9 33.7 47.55 36.3 47.2 38.85 46.1 39.15 45.9 39.2 45.55 38.8 L42.5 36.15 Q39.65 33.9 37.45 24.6 35.25 15.2 35.45 12.3 L35.9 8.95 36.9 9.05 Q38.95 10.3 40.5 13.0 42.85 17.0 44.65 21.65 46.3 26.0 47.25 30.55" fill="url(#gradient5)" fill-rule="evenodd" stroke="none"/>
      <path d="M25.65 12.25 Q26.25 12.6 26.35 13.65 26.35 14.7 25.8 15.7 L25.55 16.15 24.45 17.25 23.0 17.35 Q22.4 16.95 22.35 15.9 22.3 14.9 22.8 13.8 23.4 12.75 24.25 12.35 L25.65 12.25 M22.55 18.1 Q22.8 18.3 22.85 18.85 L22.6 19.8 22.0 20.55 21.25 20.6 20.95 19.95 Q20.9 19.45 21.2 18.9 L21.85 18.15 22.55 18.1" fill="#ffffff" fill-rule="evenodd" stroke="none"/>
      <path d="M41.85 39.75 Q39.75 42.05 36.7 42.05 33.75 42.05 31.65 39.75 29.45 37.35 29.45 34.05 29.45 30.7 31.65 28.3 33.75 26.0 36.7 26.0 39.75 26.0 41.85 28.3 44.0 30.7 44.0 34.05 44.0 37.35 41.85 39.75" fill="url(#gradient6)" fill-rule="evenodd" stroke="none"/>
      <path d="M32.0 11.8 Q32.0 12.9 31.35 13.65 30.65 14.4 29.7 14.4 28.75 14.4 28.1 13.65 27.35 12.9 27.35 11.8 27.35 10.75 28.1 10.0 28.75 9.25 29.7 9.25 30.65 9.25 31.35 10.0 32.0 10.75 32.0 11.8" fill="url(#gradient7)" fill-rule="evenodd" stroke="none"/>
      <path d="M18.2 26.4 Q20.3 26.4 21.7 28.0 23.15 29.55 23.15 31.8 23.15 34.05 21.7 35.65 20.3 37.2 18.2 37.2 16.25 37.2 14.85 35.65 13.4 34.05 13.4 31.8 13.4 29.55 14.85 28.0 16.25 26.4 18.2 26.4" fill="url(#gradient8)" fill-rule="evenodd" stroke="none"/>
      <path d="M21.7 17.3 L21.7 17.25 Q22.45 18.8 20.7 18.6 L19.7 18.6 17.8 17.3 18.2 17.3 20.5 17.7 21.4 17.65 Q21.8 17.55 21.7 17.3 M23.3 15.8 Q23.3 16.15 23.6 16.45 24.35 17.0 26.55 17.5 L24.6 17.7 23.8 17.2 Q23.25 16.8 23.2 16.25 L23.3 15.8 M21.35 16.65 L20.05 15.25 21.75 15.75 Q22.8 15.85 22.9 15.1 L23.0 15.2 Q23.4 16.95 21.95 16.7 L21.35 16.65 M22.6 18.55 L22.95 19.15 25.6 20.85 25.85 20.9 25.85 20.95 24.3 20.8 24.05 20.8 23.95 20.8 23.9 20.75 23.0 19.95 Q22.4 19.25 22.6 18.55 M20.6 20.15 L20.75 19.75 Q21.4 21.55 18.55 21.6 L17.35 20.65 17.75 20.65 Q20.05 20.7 20.6 20.15 M17.6 24.9 L15.45 24.1 Q17.3 24.35 18.6 24.1 19.85 23.9 19.85 23.25 20.45 24.8 18.35 24.8 L17.6 24.9 M15.3 27.2 L15.15 27.1 16.25 27.15 Q17.55 27.15 18.9 26.45 L18.95 26.45 18.95 26.3 19.05 26.0 Q19.55 27.1 18.65 27.6 L16.5 28.1 15.3 27.2 M16.25 31.75 Q15.7 31.3 15.05 31.0 17.1 30.55 17.6 30.05 L17.65 30.0 17.75 29.4 17.85 29.55 Q18.5 31.1 16.25 31.75 M19.55 28.35 L20.05 28.85 Q20.9 29.45 23.05 30.5 L23.35 30.7 21.75 30.8 21.3 30.8 20.25 29.95 Q19.55 29.05 19.55 28.35 M20.55 24.55 L20.6 25.15 20.8 25.5 23.45 27.6 22.1 27.55 21.5 27.55 20.7 26.6 20.35 25.25 20.55 24.55 M21.7 21.85 L21.85 21.9 24.2 24.05 23.15 24.05 22.95 24.1 21.9 22.85 Q21.4 22.1 21.5 21.45 L21.7 21.85 M25.4 21.45 L25.6 21.45 26.15 21.45 25.4 21.45 M14.55 41.85 Q15.75 41.35 16.4 40.65 L17.2 39.85 17.2 39.55 Q17.55 40.75 17.15 41.05 L16.2 41.75 14.55 41.85 M16.2 38.85 L14.0 38.3 Q16.95 37.7 17.6 37.1 L17.8 36.6 Q18.4 38.15 16.2 38.85 M14.5 34.75 L15.8 34.35 Q17.0 33.95 17.4 33.55 L17.7 33.2 Q18.1 34.65 16.15 35.35 15.5 34.9 14.5 34.75 M19.1 31.5 Q18.95 31.8 19.1 32.15 L19.4 32.4 Q20.35 33.35 22.7 34.1 L20.95 34.4 20.8 34.4 19.75 33.55 Q18.95 32.75 18.95 32.0 18.95 31.7 19.1 31.5 M19.9 45.45 Q20.1 46.05 19.95 46.6 19.45 46.45 19.15 46.75 L19.75 45.8 19.85 45.45 19.85 45.3 19.9 45.45 M22.0 46.9 L22.15 47.15 21.2 46.5 Q20.7 46.05 20.65 45.35 L20.9 45.6 Q21.7 46.15 23.8 46.8 L22.1 46.95 22.0 46.9 M29.6 54.25 L29.8 54.35 29.7 54.3 29.6 54.25 M19.85 42.45 L19.9 42.45 20.15 42.7 Q20.9 43.2 23.4 43.5 22.1 43.75 21.4 44.15 L21.3 44.2 20.55 43.65 Q19.95 43.1 19.85 42.45 M17.3 44.6 L16.5 44.6 17.85 43.05 18.0 42.75 18.0 42.65 18.05 42.8 Q18.35 43.8 17.7 44.5 L17.3 44.6 M19.2 39.5 L19.6 39.8 22.8 40.55 Q22.3 40.55 20.95 41.1 19.6 40.6 19.2 39.5 M19.05 35.75 L19.25 36.0 Q20.2 36.95 22.45 37.6 L21.05 38.1 Q20.4 37.9 19.75 37.25 18.9 36.45 18.85 35.7 18.8 35.3 19.05 35.1 18.8 35.35 19.05 35.75" fill="url(#gradient9)" fill-rule="evenodd" stroke="none"/>
      <path d="M26.0 10.45 Q25.35 11.6 25.4 12.2 L26.05 12.85 Q25.7 12.8 24.9 13.3 24.05 13.8 24.25 14.15 L25.0 14.9 24.25 15.2 Q23.75 15.45 23.5 15.95 23.3 16.4 23.45 16.5 L23.65 17.1 23.75 17.25 24.45 17.65 24.15 17.65 Q22.95 17.7 22.65 18.3 L22.6 18.45 Q22.4 19.3 22.85 19.9 L23.85 20.65 23.9 20.75 23.05 20.65 Q21.85 20.55 21.5 21.35 21.35 22.1 21.95 22.8 L22.9 23.95 21.85 24.05 Q20.85 24.15 20.55 24.6 20.35 24.75 20.4 25.25 20.35 25.8 20.7 26.55 L21.45 27.55 19.9 27.8 Q19.35 28.0 19.5 28.3 19.5 29.1 20.2 29.9 L21.3 30.75 Q19.4 30.9 19.05 31.4 L18.95 31.9 Q18.9 32.65 19.75 33.55 L20.75 34.4 Q19.45 34.7 19.05 35.1 18.75 35.25 18.75 35.55 18.75 36.45 19.75 37.2 20.3 37.8 21.05 37.95 19.2 38.65 19.05 39.15 L19.2 39.5 Q19.65 40.55 20.9 41.0 L20.7 41.1 Q20.2 41.35 19.95 41.65 19.7 41.8 19.8 42.15 L19.85 42.4 19.8 42.4 Q19.95 43.1 20.45 43.6 L21.25 44.05 20.6 44.75 20.65 45.3 Q20.6 45.9 21.15 46.4 L22.05 47.05 22.15 47.3 22.55 47.85 24.0 50.2 22.75 49.1 20.05 46.7 19.9 46.65 Q20.05 45.9 19.8 45.4 L19.8 45.3 Q19.8 44.3 17.65 44.45 18.35 43.75 18.0 42.75 L18.0 42.6 Q18.0 41.8 16.15 41.7 L17.1 41.0 Q17.5 40.7 17.2 39.5 L17.15 39.3 Q17.0 39.0 16.15 38.8 18.5 38.05 17.7 36.6 L17.6 36.35 Q17.0 35.6 16.2 35.2 18.05 34.6 17.6 33.2 L17.65 33.05 17.6 33.0 17.35 32.7 16.25 31.7 Q18.5 31.1 17.75 29.45 L17.75 29.3 17.5 29.1 16.5 28.1 Q17.65 28.05 18.6 27.5 19.55 27.05 18.9 25.9 L18.95 25.85 Q18.75 25.4 17.6 24.8 L18.25 24.75 Q20.4 24.7 19.8 23.2 20.05 23.2 19.35 22.5 L18.45 21.6 Q21.35 21.4 20.75 19.7 20.7 19.15 19.75 18.45 L20.65 18.55 Q22.45 18.8 21.8 17.25 L21.55 16.9 21.35 16.55 22.85 15.75 22.9 15.45 22.1 14.1 22.65 14.2 23.7 13.95 Q24.3 13.75 22.95 12.35 24.4 12.7 24.7 12.15 L26.0 10.25 26.0 10.45" fill="url(#gradient10)" fill-rule="evenodd" stroke="none"/>
      <path d="M26.35 12.1 L25.95 12.35 Q25.55 12.35 25.55 11.95 25.55 11.35 26.05 11.25 26.5 11.15 26.5 11.7 L26.35 12.1 M23.9 11.6 Q24.45 11.6 24.45 12.05 24.45 12.45 24.05 12.45 23.35 12.45 23.35 12.0 23.35 11.6 23.9 11.6 M26.1 15.8 Q26.1 16.4 25.05 16.4 L24.3 16.15 24.15 15.85 Q24.15 15.55 24.3 15.5 L24.85 15.45 25.5 15.35 Q26.1 15.35 26.1 15.8 M25.7 14.2 L25.05 14.35 Q24.65 14.35 24.65 13.9 24.65 13.35 25.5 13.35 26.1 13.35 26.1 13.8 L25.7 14.2 M23.05 13.7 Q22.45 13.7 22.45 13.2 22.45 12.7 22.95 12.75 23.4 12.8 23.4 13.3 23.4 13.7 23.05 13.7 M21.95 15.35 L21.4 15.1 21.2 14.7 Q21.2 14.2 21.8 14.4 22.35 14.6 22.35 14.95 22.35 15.35 21.95 15.35 M20.85 17.4 Q20.55 17.4 20.05 16.95 L19.55 16.4 Q19.55 16.0 20.0 16.0 20.45 16.0 21.25 17.0 21.25 17.4 20.85 17.4 M23.0 18.6 Q23.0 18.05 24.6 18.05 25.5 18.05 25.4 18.65 L25.3 19.05 24.5 19.2 23.4 19.0 23.0 18.6 M22.45 24.3 Q24.1 24.3 24.1 25.0 24.1 25.45 23.05 25.45 L21.4 25.3 Q21.0 25.15 21.0 24.8 21.0 24.55 21.2 24.45 L22.45 24.3 M24.1 22.2 L22.75 21.85 22.05 21.35 Q22.05 20.9 23.15 20.9 24.7 20.9 24.7 21.7 24.7 22.2 24.1 22.2 M19.05 19.45 L18.65 18.95 Q18.65 18.55 19.15 18.55 19.55 18.55 19.95 18.95 L20.25 19.4 Q20.25 19.85 19.85 19.85 19.5 19.85 19.05 19.45 M18.8 23.3 Q18.3 23.3 17.9 22.8 17.55 22.4 17.55 22.15 17.55 21.4 18.4 21.9 19.2 22.45 19.2 22.85 19.2 23.3 18.8 23.3 M18.15 26.25 Q17.5 26.25 17.1 25.95 L16.75 25.4 Q16.75 25.0 17.25 25.0 17.95 25.0 18.5 25.8 18.5 26.25 18.15 26.25 M16.85 30.0 L16.1 29.45 15.75 28.8 Q15.75 28.05 16.5 28.45 17.25 28.9 17.25 29.6 L16.85 30.0 M17.1 32.95 Q17.1 33.4 16.7 33.4 16.25 33.4 15.7 33.05 L15.2 32.55 Q15.2 32.15 15.85 32.15 16.5 32.15 16.85 32.5 L17.1 32.95 M16.8 36.0 L17.3 36.6 16.85 37.05 15.65 36.7 15.15 36.2 Q15.15 35.55 15.65 35.55 16.2 35.55 16.8 36.0 M20.15 34.85 L21.1 34.55 Q22.25 34.55 22.25 35.25 22.25 35.95 20.55 35.95 19.4 35.95 19.4 35.45 19.4 35.15 20.15 34.85 M18.1 44.9 Q19.4 44.9 19.4 45.45 L19.35 45.7 Q19.15 46.25 17.65 46.25 16.85 46.3 16.8 45.7 L16.8 45.6 Q16.9 45.15 17.4 45.0 L18.1 44.9 M17.6 42.65 L17.45 43.0 16.25 43.3 Q15.35 43.3 15.25 42.9 L15.25 42.75 15.3 42.55 15.7 42.25 16.4 42.15 Q17.6 42.05 17.6 42.65 M15.55 39.0 L15.65 39.05 Q16.6 39.15 16.6 39.65 L16.6 39.95 Q16.45 40.25 15.9 40.25 L15.0 40.0 14.5 39.55 14.5 39.4 14.6 39.25 Q14.8 38.95 15.55 39.0 M23.5 28.55 Q23.5 29.2 22.65 29.2 L21.15 28.9 Q19.95 28.55 19.95 28.3 19.95 27.8 21.4 27.8 23.5 27.8 23.5 28.55 M23.1 31.75 L22.9 32.3 22.2 32.6 20.55 32.35 Q19.45 32.05 19.45 31.75 19.45 31.15 22.15 31.15 L23.1 31.4 23.1 31.75 M21.85 38.1 Q22.45 38.1 22.45 38.65 22.45 39.0 21.65 39.3 L20.3 39.55 Q19.7 39.55 19.7 39.1 19.7 38.8 20.7 38.45 L21.85 38.1 M22.55 40.85 Q22.9 40.85 23.1 41.15 L23.25 41.55 Q23.25 42.3 21.3 42.45 L20.4 42.45 20.2 42.1 Q20.2 41.7 20.9 41.3 21.65 40.85 22.55 40.85 M23.35 44.0 Q23.9 44.85 23.5 45.05 L22.4 45.3 21.6 45.25 21.45 44.85 Q21.45 44.6 21.95 44.4 L22.1 44.35 22.35 44.25 23.35 44.0" fill="url(#gradient11)" fill-rule="evenodd" stroke="none"/>
      <path d="M45.3 17.6 L45.1 17.75 Q44.95 17.95 45.05 18.2 45.45 18.95 46.9 19.5 48.45 20.15 49.0 19.75 L49.45 19.3 49.55 20.15 Q49.45 20.85 48.85 21.4 L48.15 21.65 47.0 21.3 45.85 20.65 45.85 20.7 Q46.65 22.55 48.0 23.2 L49.15 23.5 48.9 23.65 Q48.75 23.8 48.95 24.15 49.25 24.9 50.45 25.45 L52.15 26.2 53.55 27.75 Q54.25 28.55 55.2 27.95 55.95 27.4 55.95 26.6 56.75 28.8 55.5 29.95 54.1 31.2 52.45 29.4 50.75 27.55 50.0 28.05 49.75 28.25 50.0 29.45 L50.5 30.8 51.25 31.45 51.0 31.6 Q50.4 32.0 50.6 32.45 L51.6 33.7 Q52.3 34.25 52.5 34.95 L53.4 36.0 54.6 36.1 Q55.05 35.8 55.05 35.1 L55.05 34.7 55.2 35.15 Q55.85 36.85 54.6 37.8 53.4 38.65 52.5 37.1 L51.2 34.9 Q50.4 36.55 50.7 37.6 51.0 38.65 51.4 39.15 L51.7 39.55 51.4 39.45 50.95 39.45 Q50.1 40.05 50.5 40.9 L51.0 41.45 51.75 41.55 Q52.4 41.1 52.15 40.15 L52.35 41.45 Q52.3 42.35 51.3 42.95 50.3 43.55 49.6 42.0 49.25 41.3 48.95 38.45 49.05 30.35 44.05 17.45 L45.3 17.6 M50.45 36.0 L50.45 36.15 50.5 36.05 50.45 36.0" fill="#70b8b5" fill-rule="evenodd" stroke="none"/>
      <path d="M49.45 19.3 L49.0 19.75 Q48.45 20.15 46.9 19.5 45.45 18.95 45.05 18.2 44.95 17.95 45.1 17.75 L45.3 17.6 46.6 17.55 Q48.65 17.5 49.4 19.2 L49.45 19.3" fill="url(#gradient12)" fill-rule="evenodd" stroke="none"/>
      <path d="M55.95 26.6 Q55.95 27.4 55.2 27.95 54.25 28.55 53.55 27.75 L52.15 26.2 50.45 25.45 Q49.25 24.9 48.95 24.15 48.75 23.8 48.9 23.65 L49.15 23.5 51.75 23.55 Q54.65 23.65 55.8 26.15 L55.95 26.6" fill="url(#gradient13)" fill-rule="evenodd" stroke="none"/>
      <path d="M55.05 34.7 L55.05 35.1 Q55.05 35.8 54.6 36.1 L53.4 36.0 52.5 34.95 Q52.3 34.25 51.6 33.7 L50.6 32.45 Q50.4 32.0 51.0 31.6 L51.25 31.45 51.7 31.55 Q52.1 31.65 52.6 31.9 L53.0 32.15 53.65 32.6 54.15 33.25 Q54.7 33.8 55.05 34.7" fill="url(#gradient14)" fill-rule="evenodd" stroke="none"/>
      <path d="M52.15 40.15 Q52.4 41.1 51.75 41.55 L51.0 41.45 50.5 40.9 Q50.1 40.05 50.95 39.45 L51.4 39.45 51.7 39.55 52.05 40.1 52.15 40.15" fill="url(#gradient15)" fill-rule="evenodd" stroke="none"/>
    </g>
    <linearGradient gradientTransform="matrix(-0.005, 0.0018, -0.0061, 0.0186, 17.8, 25.2)" gradientUnits="userSpaceOnUse" id="gradient4" spreadMethod="pad" x1="-819.2" x2="819.2">
      <stop offset="0.3137254901960784" stop-color="#c7dfa3" stop-opacity="0.047058824"/>
      <stop offset="0.9098039215686274" stop-color="#c7dfa3" stop-opacity="0.8"/>
    </linearGradient>
    <linearGradient gradientTransform="matrix(0.005, 0.0018, 0.0061, 0.0186, 42.3, 25.2)" gradientUnits="userSpaceOnUse" id="gradient5" spreadMethod="pad" x1="-819.2" x2="819.2">
      <stop offset="0.3137254901960784" stop-color="#c7dfa3" stop-opacity="0.047058824"/>
      <stop offset="0.9098039215686274" stop-color="#c7dfa3" stop-opacity="0.8"/>
    </linearGradient>
    <radialGradient cx="0" cy="0" gradientTransform="matrix(0.009, 0.0, 0.0, 0.01, 36.7, 34.05)" gradientUnits="userSpaceOnUse" id="gradient6" r="819.2" spreadMethod="pad">
      <stop offset="0.3333333333333333" stop-color="#ffffff"/>
      <stop offset="0.4470588235294118" stop-color="#ccffd1"/>
      <stop offset="1.0" stop-color="#ccffdd" stop-opacity="0.0"/>
    </radialGradient>
    <radialGradient cx="0" cy="0" gradientTransform="matrix(0.0029, 0.0, 0.0, 0.0032, 29.7, 11.8)" gradientUnits="userSpaceOnUse" id="gradient7" r="819.2" spreadMethod="pad">
      <stop offset="0.3333333333333333" stop-color="#ffffff"/>
      <stop offset="0.4470588235294118" stop-color="#ccffd1"/>
      <stop offset="1.0" stop-color="#ccffdd" stop-opacity="0.0"/>
    </radialGradient>
    <radialGradient cx="0" cy="0" gradientTransform="matrix(0.006, 0.0, 0.0, 0.0067, 18.2, 31.8)" gradientUnits="userSpaceOnUse" id="gradient8" r="819.2" spreadMethod="pad">
      <stop offset="0.3333333333333333" stop-color="#ffffff"/>
      <stop offset="0.4470588235294118" stop-color="#ccffd1"/>
      <stop offset="1.0" stop-color="#ccffdd" stop-opacity="0.0"/>
    </radialGradient>
    <linearGradient gradientTransform="matrix(2.0E-4, 0.0138, -0.0015, 0.0, 22.45, 33.0)" gradientUnits="userSpaceOnUse" id="gradient9" spreadMethod="pad" x1="-819.2" x2="819.2">
      <stop offset="0.0" stop-color="#70b8b5"/>
      <stop offset="1.0" stop-color="#174756"/>
    </linearGradient>
    <linearGradient gradientTransform="matrix(4.0E-4, 0.0171, 0.0064, -1.0E-4, 21.15, 31.45)" gradientUnits="userSpaceOnUse" id="gradient10" spreadMethod="pad" x1="-819.2" x2="819.2">
      <stop offset="0.0" stop-color="#2e7e9f"/>
      <stop offset="1.0" stop-color="#203a43"/>
    </linearGradient>
    <linearGradient gradientTransform="matrix(-0.0034, 0.0142, 0.0011, 3.0E-4, 10.35, 30.1)" gradientUnits="userSpaceOnUse" id="gradient11" spreadMethod="pad" x1="-819.2" x2="819.2">
      <stop offset="0.0" stop-color="#ffffff"/>
      <stop offset="1.0" stop-color="#ffffff" stop-opacity="0.3019608"/>
    </linearGradient>
    <radialGradient cx="0" cy="0" fx="-1497.6000000000001" fy="0" gradientTransform="matrix(-0.0037, 0.0025, 0.0021, 0.0047, 47.65, 18.75)" gradientUnits="userSpaceOnUse" id="gradient12" r="819.2" spreadMethod="pad">
      <stop offset="0.0" stop-color="#ffffff"/>
      <stop offset="0.24313725490196078" stop-color="#bbffe1"/>
      <stop offset="0.5843137254901961" stop-color="#85ffee"/>
      <stop offset="1.0" stop-color="#70b8b5"/>
    </radialGradient>
    <radialGradient cx="0" cy="0" gradientTransform="matrix(-0.0061, 0.0042, 0.0035, 0.0078, 54.15, 25.5)" gradientUnits="userSpaceOnUse" id="gradient13" r="819.2" spreadMethod="pad">
      <stop offset="0.0" stop-color="#ffffff"/>
      <stop offset="0.24313725490196078" stop-color="#bbffe1"/>
      <stop offset="0.5843137254901961" stop-color="#85ffee"/>
      <stop offset="1.0" stop-color="#70b8b5"/>
    </radialGradient>
    <radialGradient cx="0" cy="0" gradientTransform="matrix(-0.0049, 0.0033, 0.0028, 0.0061, 54.2, 34.75)" gradientUnits="userSpaceOnUse" id="gradient14" r="819.2" spreadMethod="pad">
      <stop offset="0.0" stop-color="#ffffff"/>
      <stop offset="0.24313725490196078" stop-color="#bbffe1"/>
      <stop offset="0.5843137254901961" stop-color="#85ffee"/>
      <stop offset="1.0" stop-color="#70b8b5"/>
    </radialGradient>
    <radialGradient cx="0" cy="0" gradientTransform="matrix(-0.0023, 0.0016, 0.0013, 0.0029, 51.6, 40.85)" gradientUnits="userSpaceOnUse" id="gradient15" r="819.2" spreadMethod="pad">
      <stop offset="0.0" stop-color="#ffffff"/>
      <stop offset="0.24313725490196078" stop-color="#bbffe1"/>
      <stop offset="0.5843137254901961" stop-color="#85ffee"/>
      <stop offset="1.0" stop-color="#70b8b5"/>
    </radialGradient>
    <g id="sprite4" transform="matrix(1.0, 0.0, 0.0, 1.0, 118.85, 167.75)">
      <use height="335.55" transform="matrix(1.0, 0.0, 0.0, 1.0, -118.85, -167.75)" width="237.7" xlink:href="#shape6"/>
    </g>
    <g id="shape6" transform="matrix(1.0, 0.0, 0.0, 1.0, 118.85, 167.75)">
      <path d="M75.6 -112.55 Q73.3 -109.95 70.1 -110.0 66.9 -110.05 64.45 -112.65 62.05 -115.3 61.95 -118.8 61.8 -122.35 64.1 -124.95 66.4 -127.55 69.7 -127.5 72.9 -127.5 75.3 -124.85 77.75 -122.25 77.85 -118.7 77.9 -115.15 75.6 -112.55" fill="#ffffff" fill-rule="evenodd" stroke="none"/>
      <path d="M33.15 -71.15 Q31.35 -70.55 29.85 -71.45 28.35 -72.3 27.9 -74.2 27.5 -76.1 28.4 -77.8 29.3 -79.45 31.1 -80.05 L34.35 -79.8 Q35.85 -78.9 36.25 -77.0 36.7 -75.1 35.8 -73.45 34.9 -71.75 33.15 -71.15" fill="#ffffff" fill-rule="evenodd" stroke="none"/>
      <path d="M53.85 -150.8 Q50.6 -149.7 47.8 -151.35 45.05 -152.95 44.25 -156.45 43.45 -159.95 45.15 -163.05 46.85 -166.2 50.1 -167.3 53.4 -168.4 56.2 -166.7 59.0 -165.1 59.8 -161.6 60.6 -158.1 58.85 -155.0 57.15 -151.9 53.85 -150.8" fill="#ffffff" fill-rule="evenodd" stroke="none"/>
      <path d="M0.4 -105.7 Q-1.35 -105.1 -2.85 -106.0 -4.35 -106.85 -4.75 -108.75 -5.2 -110.6 -4.3 -112.3 -3.35 -114.0 -1.6 -114.6 0.15 -115.15 1.6 -114.25 3.15 -113.35 3.6 -111.5 4.0 -109.6 3.05 -107.95 2.15 -106.25 0.4 -105.7" fill="#ffffff" fill-rule="evenodd" stroke="none"/>
      <path d="M10.85 -154.35 Q9.1 -153.75 7.6 -154.65 6.1 -155.5 5.7 -157.4 5.25 -159.25 6.15 -160.95 7.1 -162.65 8.85 -163.25 10.6 -163.8 12.05 -162.9 13.6 -162.0 14.05 -160.15 14.45 -158.25 13.5 -156.6 12.6 -154.9 10.85 -154.35" fill="#ffffff" fill-rule="evenodd" stroke="none"/>
      <path d="M-5.85 -148.9 Q-7.6 -148.3 -9.1 -149.2 -10.6 -150.05 -11.0 -151.95 -11.45 -153.8 -10.55 -155.5 -9.6 -157.2 -7.85 -157.8 -6.1 -158.35 -4.65 -157.45 -3.1 -156.55 -2.65 -154.7 -2.25 -152.8 -3.2 -151.15 -4.1 -149.45 -5.85 -148.9" fill="#ffffff" fill-rule="evenodd" stroke="none"/>
      <path d="M24.2 -60.75 L22.5 -60.95 Q21.75 -61.5 21.5 -62.55 21.25 -63.65 21.7 -64.55 22.15 -65.5 23.05 -65.8 23.9 -66.1 24.65 -65.55 25.4 -65.05 25.65 -63.95 25.9 -62.9 25.45 -61.95 25.05 -61.05 24.2 -60.75" fill="#ffffff" fill-rule="evenodd" stroke="none"/>
      <path d="M18.95 4.6 Q16.7 5.35 14.9 4.25 13.05 3.15 12.5 0.8 11.95 -1.6 13.1 -3.7 14.2 -5.8 16.45 -6.55 18.55 -7.25 20.4 -6.15 22.4 -5.1 22.95 -2.7 23.5 -0.35 22.2 1.8 21.05 3.9 18.95 4.6" fill="#ffffff" fill-rule="evenodd" stroke="none"/>
      <path d="M32.3 -7.85 Q30.25 -7.2 28.55 -8.2 26.9 -9.2 26.4 -11.35 25.9 -13.5 26.95 -15.35 27.95 -17.25 30.0 -17.9 31.9 -18.55 33.6 -17.55 35.35 -16.6 35.85 -14.45 36.35 -12.3 35.2 -10.4 34.2 -8.5 32.3 -7.85" fill="#ffffff" fill-rule="evenodd" stroke="none"/>
      <path d="M-48.3 3.15 Q-45.6 4.75 -44.8 8.1 -44.05 11.45 -45.75 14.4 -47.3 17.5 -50.45 18.55 -53.55 19.6 -56.35 17.9 -58.95 16.4 -59.7 13.05 -60.5 9.7 -58.9 6.65 -57.15 3.7 -54.05 2.65 -50.9 1.6 -48.3 3.15" fill="#ffffff" fill-rule="evenodd" stroke="none"/>
      <path d="M-0.65 -86.4 Q-1.85 -86.0 -3.0 -86.65 -3.9 -87.2 -4.2 -88.5 -4.5 -89.75 -3.95 -90.95 -3.25 -92.05 -2.05 -92.45 L0.05 -92.3 Q1.15 -91.6 1.45 -90.35 1.75 -89.05 1.0 -88.0 0.5 -86.8 -0.65 -86.4" fill="#ffffff" fill-rule="evenodd" stroke="none"/>
      <path d="M-0.65 -63.55 L-2.25 -63.7 Q-3.0 -64.1 -3.25 -65.05 -3.45 -66.05 -3.0 -66.85 -2.55 -67.7 -1.65 -68.0 L0.0 -67.85 Q0.75 -67.45 0.95 -66.45 1.2 -65.5 0.75 -64.7 0.25 -63.85 -0.65 -63.55" fill="#ffffff" fill-rule="evenodd" stroke="none"/>
      <path d="M18.05 -99.0 Q14.9 -97.95 12.1 -99.55 9.5 -101.1 8.75 -104.4 8.0 -107.75 9.55 -110.8 11.3 -113.8 14.45 -114.85 17.55 -115.85 20.15 -114.3 22.95 -112.7 23.7 -109.35 24.45 -106.05 22.7 -103.05 21.15 -100.0 18.05 -99.0" fill="#ffffff" fill-rule="evenodd" stroke="none"/>
      <path d="M36.8 -142.2 Q36.55 -143.5 37.05 -144.65 37.8 -145.75 39.0 -146.15 L41.1 -146.0 Q42.25 -145.35 42.5 -144.05 42.8 -142.8 42.1 -141.7 41.55 -140.5 40.35 -140.1 39.15 -139.7 38.05 -140.35 37.1 -140.95 36.8 -142.2" fill="#ffffff" fill-rule="evenodd" stroke="none"/>
      <path d="M11.3 26.2 Q8.8 27.05 6.55 25.75 4.5 24.55 3.9 21.85 3.3 19.15 4.5 16.7 5.9 14.35 8.4 13.5 10.95 12.65 13.0 13.85 15.25 15.15 15.85 17.85 16.45 20.55 15.05 22.9 13.85 25.35 11.3 26.2" fill="#ffffff" fill-rule="evenodd" stroke="none"/>
      <path d="M-23.2 61.3 Q-26.75 62.5 -30.1 60.45 -33.25 58.65 -34.15 54.8 -35.0 51.0 -33.1 47.3 -31.0 43.75 -27.45 42.55 -23.85 41.35 -20.7 43.2 -17.4 45.15 -16.55 48.95 -15.65 52.8 -17.7 56.35 -19.6 60.1 -23.2 61.3" fill="#ffffff" fill-rule="evenodd" stroke="none"/>
      <path d="M-24.95 -13.45 Q-26.0 -13.1 -26.9 -13.65 -27.85 -14.2 -28.1 -15.3 -28.35 -16.4 -27.8 -17.45 -27.2 -18.5 -26.15 -18.85 -25.1 -19.15 -24.2 -18.6 -23.3 -18.05 -23.05 -16.95 -22.8 -15.85 -23.3 -14.8 -23.9 -13.75 -24.95 -13.45" fill="#ffffff" fill-rule="evenodd" stroke="none"/>
      <path d="M18.55 18.8 L16.15 18.6 Q15.05 17.95 14.7 16.5 14.4 15.05 15.1 13.8 15.75 12.55 17.05 12.1 L19.55 12.3 Q20.65 12.95 20.95 14.4 21.3 15.85 20.6 17.1 19.9 18.35 18.55 18.8" fill="#ffffff" fill-rule="evenodd" stroke="none"/>
      <path d="M-95.9 160.25 Q-95.4 162.45 -96.65 164.6 -97.75 166.85 -99.8 167.55 -101.9 168.2 -103.95 167.0 -105.85 165.9 -106.35 163.7 -106.85 161.45 -105.75 159.2 -104.45 157.1 -102.35 156.45 -100.3 155.75 -98.45 156.8 -96.4 158.0 -95.9 160.25" fill="#ffffff" fill-rule="evenodd" stroke="none"/>
      <path d="M-74.65 77.45 Q-75.45 73.95 -73.65 70.65 -71.85 67.3 -68.55 66.25 -65.3 65.15 -62.3 66.9 -59.35 68.6 -58.55 72.1 -57.75 75.6 -59.55 78.95 -61.4 82.3 -64.65 83.4 -67.95 84.45 -70.9 82.7 -73.85 80.95 -74.65 77.45" fill="#ffffff" fill-rule="evenodd" stroke="none"/>
      <path d="M-15.9 -24.2 Q-16.35 -26.1 -15.5 -27.95 -14.45 -29.65 -12.65 -30.25 L-9.4 -30.0 Q-7.7 -29.0 -7.25 -27.1 -6.85 -25.2 -7.9 -23.5 -8.8 -21.65 -10.6 -21.05 -12.4 -20.45 -14.0 -21.45 -15.5 -22.3 -15.9 -24.2" fill="#ffffff" fill-rule="evenodd" stroke="none"/>
      <path d="M42.8 -67.35 L45.25 -67.15 Q46.35 -66.5 46.65 -65.1 47.0 -63.65 46.3 -62.4 45.65 -61.15 44.35 -60.7 43.0 -60.25 41.85 -60.9 40.75 -61.55 40.4 -63.0 40.1 -64.4 40.8 -65.65 41.45 -66.9 42.8 -67.35" fill="#ffffff" fill-rule="evenodd" stroke="none"/>
      <path d="M89.1 -96.1 Q87.55 -94.35 85.4 -94.35 83.25 -94.4 81.6 -96.2 79.95 -98.0 79.9 -100.35 79.85 -102.75 81.4 -104.5 82.9 -106.15 85.05 -106.15 87.25 -106.2 88.9 -104.4 90.55 -102.6 90.55 -100.15 90.6 -97.75 89.1 -96.1" fill="#ffffff" fill-rule="evenodd" stroke="none"/>
      <path d="M-65.25 -23.15 L-67.2 -23.35 Q-68.15 -23.9 -68.4 -25.0 -68.65 -26.1 -68.1 -27.15 -67.5 -28.2 -66.45 -28.55 L-64.5 -28.3 Q-63.6 -27.75 -63.35 -26.65 -63.1 -25.55 -63.6 -24.5 -64.2 -23.45 -65.25 -23.15" fill="#ffffff" fill-rule="evenodd" stroke="none"/>
      <path d="M-70.45 20.5 Q-72.7 21.25 -74.5 20.15 -76.35 19.05 -76.9 16.7 -77.45 14.3 -76.3 12.2 -75.2 10.1 -72.95 9.35 -70.85 8.65 -69.0 9.75 -67.0 10.8 -66.45 13.2 -65.9 15.55 -67.2 17.7 -68.35 19.8 -70.45 20.5" fill="#ffffff" fill-rule="evenodd" stroke="none"/>
      <path d="M-87.05 13.65 Q-90.2 14.7 -93.0 13.1 -95.6 11.55 -96.35 8.25 -97.1 4.9 -95.55 1.85 -93.8 -1.15 -90.65 -2.2 -87.55 -3.2 -84.95 -1.65 -82.15 -0.05 -81.4 3.3 -80.65 6.6 -82.4 9.6 -83.95 12.65 -87.05 13.65" fill="#ffffff" fill-rule="evenodd" stroke="none"/>
      <path d="M75.05 -45.05 Q72.8 -44.3 71.0 -45.4 69.15 -46.5 68.6 -48.85 68.05 -51.25 69.2 -53.35 70.3 -55.45 72.55 -56.2 74.65 -56.9 76.5 -55.8 78.5 -54.75 79.05 -52.35 79.6 -50.0 78.3 -47.85 77.15 -45.75 75.05 -45.05" fill="#ffffff" fill-rule="evenodd" stroke="none"/>
      <path d="M74.55 31.65 Q72.05 32.5 69.8 31.2 67.75 30.0 67.15 27.3 66.55 24.6 67.75 22.15 69.15 19.8 71.65 18.95 74.2 18.1 76.25 19.3 78.5 20.6 79.1 23.3 79.7 26.0 78.3 28.35 77.1 30.8 74.55 31.65" fill="#ffffff" fill-rule="evenodd" stroke="none"/>
      <path d="M81.8 24.25 L79.4 24.05 Q78.3 23.4 77.95 21.95 77.65 20.5 78.35 19.25 79.0 18.0 80.3 17.55 81.65 17.1 82.8 17.75 83.9 18.4 84.2 19.85 84.55 21.3 83.85 22.55 83.15 23.8 81.8 24.25" fill="#ffffff" fill-rule="evenodd" stroke="none"/>
      <path d="M74.4 -44.85 Q72.15 -44.1 70.35 -45.2 68.5 -46.3 67.95 -48.65 67.4 -51.05 68.55 -53.15 69.65 -55.25 71.9 -56.0 74.0 -56.7 75.85 -55.6 77.85 -54.55 78.4 -52.15 78.95 -49.8 77.65 -47.65 76.5 -45.55 74.4 -44.85" fill="#ffffff" fill-rule="evenodd" stroke="none"/>
      <path d="M114.7 -20.35 Q112.45 -19.6 110.65 -20.7 108.8 -21.8 108.25 -24.15 107.7 -26.55 108.85 -28.65 109.95 -30.75 112.2 -31.5 114.3 -32.2 116.15 -31.1 118.15 -30.05 118.7 -27.65 119.25 -25.3 117.95 -23.15 116.8 -21.05 114.7 -20.35" fill="#ffffff" fill-rule="evenodd" stroke="none"/>
      <path d="M86.0 -31.5 L88.45 -31.3 Q89.55 -30.65 89.85 -29.25 90.2 -27.8 89.5 -26.55 88.85 -25.3 87.55 -24.85 86.2 -24.4 85.05 -25.05 83.95 -25.7 83.6 -27.15 83.3 -28.55 84.0 -29.8 84.65 -31.05 86.0 -31.5" fill="#ffffff" fill-rule="evenodd" stroke="none"/>
      <path d="M-15.2 80.4 Q-17.45 81.15 -19.25 80.05 -21.1 78.95 -21.65 76.6 -22.2 74.2 -21.05 72.1 -19.95 70.0 -17.7 69.25 -15.6 68.55 -13.75 69.65 -11.75 70.7 -11.2 73.1 -10.65 75.45 -11.95 77.6 -13.1 79.7 -15.2 80.4" fill="#ffffff" fill-rule="evenodd" stroke="none"/>
      <path d="M44.05 46.4 Q42.3 47.0 40.8 46.1 39.3 45.25 38.9 43.35 38.45 41.5 39.35 39.8 40.3 38.1 42.05 37.5 43.8 36.95 45.25 37.85 46.8 38.75 47.25 40.6 47.65 42.5 46.7 44.15 45.8 45.85 44.05 46.4" fill="#ffffff" fill-rule="evenodd" stroke="none"/>
      <path d="M-108.25 106.15 Q-107.75 108.35 -109.0 110.5 -110.1 112.75 -112.15 113.45 -114.25 114.1 -116.3 112.9 -118.2 111.8 -118.7 109.6 -119.2 107.35 -118.1 105.1 -116.8 103.0 -114.7 102.35 -112.65 101.65 -110.8 102.7 -108.75 103.9 -108.25 106.15" fill="#ffffff" fill-rule="evenodd" stroke="none"/>
      <path d="M-88.5 114.3 Q-90.3 114.9 -91.8 114.0 -93.3 113.15 -93.75 111.25 -94.15 109.35 -93.25 107.65 -92.35 106.0 -90.55 105.4 -88.8 104.8 -87.3 105.65 -85.8 106.55 -85.4 108.45 -84.95 110.35 -85.85 112.0 -86.75 113.7 -88.5 114.3" fill="#ffffff" fill-rule="evenodd" stroke="none"/>
      <path d="M-97.4 124.7 Q-98.3 125.0 -99.1 124.5 -99.85 123.95 -100.1 122.9 -100.35 121.8 -99.9 120.9 -99.45 119.95 -98.55 119.65 -97.7 119.35 -96.95 119.9 -96.2 120.4 -95.95 121.5 -95.7 122.55 -96.15 123.5 -96.55 124.4 -97.4 124.7" fill="#ffffff" fill-rule="evenodd" stroke="none"/>
      <path d="M-78.85 118.1 Q-77.55 117.65 -76.4 118.3 -75.3 118.95 -75.0 120.35 -74.65 121.8 -75.35 123.05 -76.0 124.3 -77.3 124.75 L-79.8 124.55 Q-80.9 123.9 -81.25 122.45 -81.55 121.05 -80.85 119.8 -80.2 118.55 -78.85 118.1" fill="#ffffff" fill-rule="evenodd" stroke="none"/>
      <path d="M82.6 71.6 Q79.7 72.6 77.2 71.15 74.7 69.65 74.0 66.55 73.3 63.4 74.8 60.65 76.35 57.85 79.25 56.85 82.2 55.9 84.65 57.4 87.15 58.8 87.85 61.95 88.55 65.05 87.05 67.9 85.55 70.65 82.6 71.6" fill="#ffffff" fill-rule="evenodd" stroke="none"/>
      <path d="M45.0 124.35 L43.05 124.15 Q42.1 123.6 41.85 122.5 41.6 121.4 42.15 120.35 42.75 119.3 43.8 118.95 44.85 118.65 45.75 119.2 46.65 119.75 46.9 120.85 47.15 121.95 46.65 123.0 46.05 124.05 45.0 124.35" fill="#ffffff" fill-rule="evenodd" stroke="none"/>
      <path d="M53.9 113.6 Q53.45 111.7 54.3 109.85 55.35 108.15 57.15 107.55 58.95 106.95 60.4 107.8 62.1 108.8 62.55 110.7 62.95 112.6 61.9 114.3 61.0 116.15 59.2 116.75 57.4 117.35 55.8 116.35 54.3 115.5 53.9 113.6" fill="#ffffff" fill-rule="evenodd" stroke="none"/>
      <path d="M43.35 112.15 Q41.1 112.9 39.3 111.8 37.45 110.7 36.9 108.35 36.35 105.95 37.5 103.85 38.6 101.75 40.85 101.0 42.95 100.3 44.8 101.4 46.8 102.45 47.35 104.85 47.9 107.2 46.6 109.35 45.45 111.45 43.35 112.15" fill="#ffffff" fill-rule="evenodd" stroke="none"/>
    </g>
    <g id="shape7" transform="matrix(1.0, 0.0, 0.0, 1.0, -14.45, -6.8)">
      <path d="M33.65 12.25 L33.75 12.1 Q34.05 11.55 34.65 11.6 L34.75 11.6 35.05 11.7 35.1 11.65 35.2 11.75 36.15 12.65 37.75 14.7 38.1 14.75 38.25 14.8 39.5 14.95 39.8 15.05 39.85 15.0 40.3 15.15 40.4 15.15 40.75 15.35 40.95 15.45 41.65 16.05 41.5 17.0 40.8 18.4 40.4 19.1 41.2 20.8 41.8 22.55 41.95 23.35 Q42.15 24.5 41.65 24.6 L41.2 24.55 40.1 24.0 39.1 23.45 38.25 22.8 37.75 23.45 36.3 25.5 Q35.4 26.7 34.65 26.9 33.8 27.2 33.35 26.55 L32.95 25.35 32.6 23.4 32.4 21.0 31.3 20.85 29.55 20.6 Q28.6 20.4 28.55 20.0 28.45 19.55 29.0 18.9 L28.95 18.9 29.0 18.85 30.4 17.55 31.8 16.6 32.95 15.95 33.65 12.25" fill="url(#gradient16)" fill-rule="evenodd" stroke="none"/>
      <path d="M43.65 24.8 L43.65 24.7 44.25 24.6 44.3 24.6 44.45 24.75 44.5 24.7 44.5 24.75 44.9 25.35 45.5 26.7 45.65 26.8 45.7 26.8 46.35 27.05 46.5 27.2 46.55 27.15 46.75 27.3 46.8 27.35 47.0 27.45 47.1 27.6 47.35 28.0 47.15 28.45 46.55 29.1 46.25 29.45 46.45 30.45 46.55 31.5 46.45 31.95 Q46.4 32.55 46.15 32.6 L45.9 32.5 45.4 32.0 44.95 31.55 44.55 31.1 44.2 31.4 43.15 32.25 Q42.5 32.8 42.05 32.75 41.55 32.8 41.4 32.4 L41.35 31.7 41.45 30.6 41.7 29.3 41.1 29.05 40.2 28.7 Q39.7 28.45 39.75 28.2 39.75 28.0 40.15 27.7 L40.2 27.65 Q40.5 27.4 41.1 27.2 L42.05 26.9 42.7 26.7 43.65 24.8" fill="url(#gradient17)" fill-rule="evenodd" stroke="none"/>
      <path d="M41.85 40.2 L44.45 40.35 Q46.4 39.85 46.1 42.0 42.05 52.05 30.3 52.85 18.9 52.4 14.65 43.95 14.2 42.8 14.85 42.85 L15.55 43.0 15.7 43.05 Q26.85 48.3 32.9 40.95 36.8 35.3 36.85 24.75 37.1 13.35 32.9 6.8 35.3 7.6 37.55 9.75 36.35 10.25 36.55 12.9 36.7 15.55 39.45 20.6 43.0 27.0 41.6 37.3 41.1 39.7 41.85 40.2" fill="url(#gradient18)" fill-rule="evenodd" stroke="none"/>
      <path d="M41.05 48.7 Q38.8 50.55 35.55 51.05 32.3 51.4 31.0 50.1 29.7 48.75 30.1 46.4 30.45 44.05 32.55 41.2 35.0 37.8 39.5 36.25 41.85 35.45 42.85 35.9 43.75 36.35 43.6 38.9 43.45 41.45 41.3 43.7 39.2 45.95 36.5 46.75 33.8 47.55 34.25 45.5 34.7 43.45 35.95 41.95 37.1 40.5 38.65 40.4 40.1 40.35 40.0 41.15 39.85 42.05 38.1 43.45 39.25 42.2 38.5 41.9 37.75 41.65 36.55 42.85 35.4 44.15 35.6 44.9 35.75 45.6 36.75 45.5 39.0 45.3 40.65 42.35 42.05 40.0 41.95 38.85 L41.45 37.7 39.25 37.65 Q37.4 38.15 35.5 39.6 33.65 41.0 32.7 42.7 30.4 46.65 31.7 48.15 33.0 49.55 36.15 49.25 39.25 48.95 41.35 47.35 L44.15 44.3 Q43.35 46.8 41.05 48.7" fill="#9cfef7" fill-opacity="0.5019608" fill-rule="evenodd" stroke="none"/>
    </g>
    <linearGradient gradientTransform="matrix(0.0075, 0.0028, 0.003, -0.0081, 35.9, 19.6)" gradientUnits="userSpaceOnUse" id="gradient16" spreadMethod="pad" x1="-819.2" x2="819.2">
      <stop offset="0.0" stop-color="#2f799e" stop-opacity="0.101960786"/>
      <stop offset="1.0" stop-color="#2d789e"/>
    </linearGradient>
    <linearGradient gradientTransform="matrix(0.0036, 0.0025, 0.0028, -0.0039, 43.75, 29.05)" gradientUnits="userSpaceOnUse" id="gradient17" spreadMethod="pad" x1="-819.2" x2="819.2">
      <stop offset="0.0" stop-color="#2f799e" stop-opacity="0.101960786"/>
      <stop offset="1.0" stop-color="#2d789e"/>
    </linearGradient>
    <linearGradient gradientTransform="matrix(0.0073, 0.0178, -0.026, 0.0106, 34.0, 34.95)" gradientUnits="userSpaceOnUse" id="gradient18" spreadMethod="pad" x1="-819.2" x2="819.2">
      <stop offset="0.0" stop-color="#70b8b5" stop-opacity="0.5019608"/>
      <stop offset="1.0" stop-color="#074085" stop-opacity="0.5019608"/>
    </linearGradient>
    <g id="shape8" transform="matrix(1.0, 0.0, 0.0, 1.0, -15.4, -4.25)">
      <path d="M44.2 44.55 Q43.6 45.75 42.65 46.8 L41.0 48.25 40.25 47.85 Q40.2 47.2 40.8 45.9 41.4 44.7 42.35 43.6 43.25 42.55 43.95 42.25 L44.75 42.6 Q44.85 43.25 44.2 44.55 M39.8 49.0 L39.25 49.85 38.25 50.7 Q37.7 51.15 37.35 51.2 L37.0 50.95 Q37.05 50.65 37.45 50.1 37.9 49.6 38.5 49.2 L39.45 48.7 39.8 49.0" fill="#ffffff" fill-rule="evenodd" stroke="none"/>
      <path d="M26.5 6.05 Q24.1 7.05 21.75 9.45 L19.8 11.6 18.5 13.3 Q16.95 15.45 15.4 18.25 16.6 15.5 18.9 11.6 23.05 5.35 27.45 4.45 29.7 3.8 31.95 5.3 L27.45 5.65 26.5 6.05" fill="#7eedbf" fill-rule="evenodd" stroke="none"/>
    </g>
  </defs>
</svg>
