<?xml version="1.0" encoding="UTF-8" standalone="no"?>
<svg xmlns:xlink="http://www.w3.org/1999/xlink" height="440.0px" width="440.0px" xmlns="http://www.w3.org/2000/svg">
  <g transform="matrix(10.0, 0.0, 0.0, 10.0, 0.0, 0.0)">
    <use height="44.0" transform="matrix(0.9091, 0.0, 0.0, 0.9091, 2.0, 2.0)" width="44.0" xlink:href="#sprite0"/>
  </g>
  <defs>
    <g id="sprite0" transform="matrix(1.0, 0.0, 0.0, 1.0, 0.0, 0.0)">
      <use height="44.0" transform="matrix(1.0, 0.0, 0.0, 1.0, 0.0, 0.0)" width="44.0" xlink:href="#shape0"/>
    </g>
    <g id="shape0" transform="matrix(1.0, 0.0, 0.0, 1.0, 0.0, 0.0)">
      <path d="M44.0 44.0 L0.0 44.0 0.0 0.0 44.0 0.0 44.0 44.0" fill="#43adca" fill-opacity="0.0" fill-rule="evenodd" stroke="none"/>
      <path d="M39.55 5.35 L39.85 5.65 31.15 14.3 30.7 13.8 39.55 5.35" fill="#ae8051" fill-rule="evenodd" stroke="none"/>
      <path d="M30.7 13.8 L30.3 13.5 39.05 5.35 39.55 5.35 30.7 13.8" fill="#c19d79" fill-rule="evenodd" stroke="none"/>
      <path d="M39.85 5.65 Q40.05 5.85 39.9 6.3 L35.85 10.0 31.45 14.55 31.15 14.3 39.85 5.65" fill="#6b4f32" fill-rule="evenodd" stroke="none"/>
      <path d="M39.55 5.35 L39.85 5.65 Q40.05 5.85 39.9 6.3 L35.85 10.0 31.45 14.55 M30.3 13.5 L39.05 5.35 39.55 5.35 Z" fill="none" stroke="#000000" stroke-linecap="round" stroke-linejoin="round" stroke-opacity="0.3019608" stroke-width="0.05"/>
      <path d="M29.15 16.3 Q30.6 17.05 30.45 18.25 26.9 20.3 23.95 18.4 L23.85 18.3 23.8 18.1 23.8 18.0 Q28.65 19.0 29.15 16.3" fill="#86623e" fill-rule="evenodd" stroke="none"/>
      <path d="M33.35 11.75 L33.3 11.75 33.3 11.65 33.35 11.75 33.3 11.65 33.4 11.75 33.35 11.75 M24.65 20.75 L24.45 20.5 Q23.05 19.2 22.65 17.25 L22.55 16.6 Q24.55 14.15 27.75 12.95 30.45 12.75 32.15 15.3 L32.3 15.6 Q33.45 17.4 32.85 19.0 L32.75 18.95 Q31.9 18.65 31.25 17.85 L31.2 17.8 31.2 17.75 31.15 17.6 Q31.1 16.75 30.35 16.2 L30.3 16.15 29.9 15.9 29.95 15.85 30.3 16.15 29.95 15.85 Q28.45 14.55 26.85 14.75 26.1 14.9 25.4 15.4 22.7 16.75 23.65 17.65 L23.75 17.85 23.8 18.0 23.8 18.1 23.85 18.3 23.85 18.4 Q23.9 19.65 24.65 20.75 M28.7 14.3 L26.85 14.75 28.7 14.3" fill="#ae8051" fill-rule="evenodd" stroke="none"/>
      <path d="M35.0 19.05 L34.85 19.4 Q33.15 22.35 29.85 22.2 L28.05 21.75 27.4 21.35 Q30.45 21.75 32.75 18.95 L32.85 19.0 35.0 19.05 M26.8 20.55 L27.1 21.05 26.4 20.5 26.8 20.55" fill="#6b4f32" fill-rule="evenodd" stroke="none"/>
      <path d="M25.15 12.6 Q29.15 10.45 33.55 12.2 L33.65 12.0 33.9 12.35 Q36.2 15.75 35.0 19.05 L32.85 19.0 Q33.45 17.4 32.3 15.6 L32.15 15.3 Q30.45 12.75 27.75 12.95 24.55 14.15 22.55 16.6 22.4 15.4 22.75 14.4 L23.05 13.75 23.2 13.9 Q23.95 13.1 24.75 12.95 L24.85 13.0 25.15 12.6 M24.5 14.05 Q24.6 13.5 24.85 13.0 24.6 13.5 24.5 14.05" fill="#bc956d" fill-rule="evenodd" stroke="none"/>
      <path d="M33.65 12.0 L33.55 12.2 Q29.15 10.45 25.15 12.6 L26.05 11.65 25.15 12.6 24.85 13.0 24.75 12.95 Q23.95 13.1 23.2 13.9 L23.05 13.75 Q23.95 12.05 26.05 11.65 L26.95 11.0 Q29.8 9.55 33.3 11.65 L33.3 11.75 33.35 11.75 33.65 12.0" fill="#ceb195" fill-rule="evenodd" stroke="none"/>
      <path d="M31.2 17.75 L31.2 17.8 Q31.2 18.75 30.2 19.5 29.2 20.35 27.65 20.55 L26.8 20.55 26.4 20.5 Q24.6 19.55 23.95 18.4 26.9 20.3 30.45 18.25 30.6 17.05 29.15 16.3 26.25 15.85 23.75 17.85 L23.65 17.65 Q23.85 17.0 24.55 16.4 25.6 15.55 27.15 15.45 L29.2 15.65 29.9 15.9 30.3 16.15 30.35 16.2 Q31.1 16.75 31.15 17.6 L31.2 17.75" fill="#6f5033" fill-rule="evenodd" stroke="none"/>
      <path d="M23.75 17.85 Q26.25 15.85 29.15 16.3 28.65 19.0 23.8 18.0 L23.75 17.85" fill="#9d7348" fill-rule="evenodd" stroke="none"/>
      <path d="M31.2 17.75 L31.2 17.8 31.25 17.85 Q31.9 18.65 32.75 18.95 30.45 21.75 27.4 21.35 L27.1 21.05 26.8 20.55 27.65 20.55 Q29.2 20.35 30.2 19.5 31.2 18.75 31.2 17.8 L31.2 17.75 M29.9 15.9 L29.2 15.65 27.15 15.45 Q25.6 15.55 24.55 16.4 23.85 17.0 23.65 17.65 22.7 16.75 25.4 15.4 26.1 14.9 26.85 14.75 28.45 14.55 29.95 15.85 L29.9 15.9" fill="#4b3623" fill-rule="evenodd" stroke="none"/>
      <path d="M28.05 21.75 Q26.1 21.9 24.65 20.75 23.9 19.65 23.85 18.4 L23.85 18.3 23.95 18.4 Q24.6 19.55 26.4 20.5 L27.1 21.05 27.4 21.35 28.05 21.75" fill="#574028" fill-rule="evenodd" stroke="none"/>
      <path d="M33.65 12.0 L33.35 11.75 M33.3 11.65 Q29.8 9.55 26.95 11.0 L26.05 11.65 25.15 12.6 24.85 13.0 Q24.6 13.5 24.5 14.05 M33.3 11.65 L33.35 11.75 M33.3 11.65 L33.4 11.75 M33.65 12.0 L33.9 12.35 Q36.2 15.75 35.0 19.05 L34.85 19.4 Q33.15 22.35 29.85 22.2 L28.05 21.75 27.4 21.35 M26.8 20.55 L27.1 21.05 27.4 21.35 M30.35 16.2 L30.3 16.15 29.95 15.85 Q28.45 14.55 26.85 14.75" fill="none" stroke="#000000" stroke-linecap="round" stroke-linejoin="round" stroke-opacity="0.3019608" stroke-width="0.05"/>
      <path d="M28.05 21.75 Q26.1 21.9 24.65 20.75 L24.45 20.5 Q23.05 19.2 22.65 17.25 L22.55 16.6 Q22.4 15.4 22.75 14.4 L23.05 13.75 Q23.95 12.05 26.05 11.65 M31.2 17.75 L31.2 17.8 Q31.2 18.75 30.2 19.5 29.2 20.35 27.65 20.55 L26.8 20.55 M31.2 17.75 L31.15 17.6 Q31.1 16.75 30.35 16.2 M30.3 16.15 L29.9 15.9 29.2 15.65 27.15 15.45 Q25.6 15.55 24.55 16.4 23.85 17.0 23.65 17.65 L23.75 17.85 M23.95 18.4 Q24.6 19.55 26.4 20.5 L26.8 20.55 M26.85 14.75 Q26.1 14.9 25.4 15.4 22.7 16.75 23.65 17.65 M26.85 14.75 L28.7 14.3 M23.8 18.0 L23.75 17.85 M23.85 18.3 L23.95 18.4 M23.8 18.0 L23.8 18.1 M26.4 20.5 L27.1 21.05" fill="none" stroke="#000000" stroke-linecap="round" stroke-linejoin="round" stroke-opacity="0.3019608" stroke-width="0.05"/>
      <path d="M6.25 36.4 L25.7 18.4 26.05 18.4 26.2 18.45 26.25 18.45 26.3 18.5 7.3 36.85 7.25 36.75 6.25 36.4 M25.05 18.45 L24.95 18.5 25.0 18.45 25.05 18.45" fill="#ae8051" fill-rule="evenodd" stroke="none"/>
      <path d="M25.7 18.4 L25.05 18.45 25.3 18.35 25.75 18.35 26.05 18.4 25.7 18.4 25.75 18.35 25.7 18.4 M26.65 18.75 L26.6 19.6 22.15 24.35 Q17.1 29.65 11.8 35.5 L9.95 37.55 8.05 39.65 Q8.45 38.55 7.85 37.75 L26.65 18.75" fill="#6b4f32" fill-rule="evenodd" stroke="none"/>
      <path d="M5.05 36.5 L6.25 36.4 7.25 36.75 7.3 36.85 26.3 18.5 26.35 18.5 26.5 18.6 26.55 18.65 26.6 18.65 26.65 18.75 26.6 18.65 26.65 18.75 7.85 37.75 Q8.45 38.55 8.05 39.65 5.25 39.55 4.85 36.65 L5.05 36.5" fill="#8f6943" fill-rule="evenodd" stroke="none"/>
      <path d="M24.05 19.45 L24.55 19.0 24.6 18.9 24.95 18.5 25.05 18.45 25.7 18.4 6.25 36.4 5.05 36.5 22.35 20.95 24.05 19.45" fill="#c19d79" fill-rule="evenodd" stroke="none"/>
      <path d="M24.55 19.0 L24.05 19.45 M22.35 20.95 L5.05 36.5 4.85 36.65 Q5.25 39.55 8.05 39.65 L9.95 37.55 11.8 35.5 Q17.1 29.65 22.15 24.35 L26.6 19.6" fill="none" stroke="#000000" stroke-linecap="round" stroke-linejoin="round" stroke-opacity="0.3019608" stroke-width="0.05"/>
      <path d="M24.05 19.45 L22.35 20.95 M25.7 18.4 L25.05 18.45 24.95 18.5 24.6 18.9 24.55 19.0 M24.6 18.9 L24.05 19.45 M26.3 18.5 L26.25 18.45 26.2 18.45 26.05 18.4 25.7 18.4 M25.75 18.35 L25.3 18.35 25.05 18.45 25.0 18.45 24.95 18.5 M26.6 18.65 L26.55 18.65 26.5 18.6 26.35 18.5 M26.05 18.4 L25.75 18.35 M26.65 18.75 L26.6 18.65 26.65 18.75 M26.25 18.45 L26.05 18.4 M26.6 19.6 L26.65 18.75" fill="none" stroke="#000000" stroke-linecap="round" stroke-linejoin="round" stroke-opacity="0.3019608" stroke-width="0.05"/>
      <path d="M26.35 18.5 L26.3 18.5 M25.7 18.4 L25.75 18.35" fill="none" stroke="#000000" stroke-linecap="round" stroke-linejoin="round" stroke-opacity="0.3019608" stroke-width="0.25"/>
      <path d="M26.45 19.95 L20.1 26.3 18.15 24.7 20.05 23.3 Q19.25 23.75 21.8 21.5 L24.65 18.9 24.7 18.85 25.05 18.5 25.15 18.45 25.3 18.3 25.2 18.45 26.15 18.5 Q26.75 18.7 26.45 19.95" fill="url(#gradient0)" fill-rule="evenodd" stroke="none"/>
    </g>
    <linearGradient gradientTransform="matrix(-0.0028, 0.0021, -0.0011, -0.0015, 22.7, 21.55)" gradientUnits="userSpaceOnUse" id="gradient0" spreadMethod="pad" x1="-819.2" x2="819.2">
      <stop offset="0.0" stop-color="#000000" stop-opacity="0.5019608"/>
      <stop offset="1.0" stop-color="#000000" stop-opacity="0.0"/>
    </linearGradient>
  </defs>
</svg>
