<?xml version="1.0" encoding="UTF-8" standalone="no"?>
<svg xmlns:xlink="http://www.w3.org/1999/xlink" height="440.0px" width="440.0px" xmlns="http://www.w3.org/2000/svg">
  <g transform="matrix(10.0, 0.0, 0.0, 10.0, 0.0, 0.0)">
    <use height="44.0" transform="matrix(0.9091, 0.0, 0.0, 0.9091, 2.0, 2.0)" width="44.0" xlink:href="#sprite0"/>
  </g>
  <defs>
    <g id="sprite0" transform="matrix(1.0, 0.0, 0.0, 1.0, 0.0, 0.0)">
      <use height="44.0" transform="matrix(1.0, 0.0, 0.0, 1.0, 0.0, 0.0)" width="44.0" xlink:href="#shape0"/>
    </g>
    <g id="shape0" transform="matrix(1.0, 0.0, 0.0, 1.0, 0.0, 0.0)">
      <path d="M44.0 44.0 L0.0 44.0 0.0 0.0 44.0 0.0 44.0 44.0" fill="#43adca" fill-opacity="0.0" fill-rule="evenodd" stroke="none"/>
      <path d="M29.4 14.55 L29.55 14.1 29.45 15.05 29.4 14.55" fill="#876843" fill-rule="evenodd" stroke="none"/>
      <path d="M29.6 13.9 L29.65 13.75 29.6 13.9" fill="#695034" fill-rule="evenodd" stroke="none"/>
      <path d="M35.5 14.85 L37.15 14.0 36.8 14.5 Q34.95 15.1 34.25 16.05 34.3 16.65 31.1 17.65 L29.95 19.6 Q28.45 22.3 27.15 25.55 L27.1 25.6 26.85 26.15 Q26.2 27.05 22.75 27.45 20.5 26.85 19.5 29.15 L19.4 29.3 19.25 29.4 18.8 30.1 18.35 30.6 Q15.65 34.0 12.2 36.9 L12.1 37.1 9.4 40.15 Q8.45 40.45 6.55 39.55 L12.15 35.95 13.3 34.85 12.25 35.1 17.6 30.85 19.15 27.55 19.4 28.45 Q19.8 27.55 20.55 26.6 L20.7 26.7 23.6 26.85 26.2 25.95 29.4 19.55 30.5 17.3 Q30.8 17.0 30.6 16.4 30.95 17.05 33.55 15.75 L35.5 14.85 M31.35 15.45 L30.2 16.75 30.05 13.7 30.95 14.25 31.35 15.45 M21.35 25.9 L21.1 26.05 21.05 25.8 Q20.75 24.35 19.95 24.1 L20.1 24.05 20.2 24.2 20.15 24.05 20.35 23.95 20.8 24.0 Q20.95 24.65 22.0 25.0 L22.25 24.95 22.1 25.25 22.0 25.4 22.05 25.4 22.1 25.45 21.35 25.9 M13.1 33.45 L13.3 33.3 9.75 36.2 7.9 36.9 Q8.0 36.65 7.35 36.75 L13.1 33.45" fill="#c22648" fill-rule="evenodd" stroke="none"/>
      <path d="M31.45 15.6 L30.85 16.3 Q33.05 15.85 35.5 14.85 L33.55 15.75 Q30.95 17.05 30.6 16.4 30.8 17.0 30.5 17.3 L29.4 19.55 26.2 25.95 23.6 26.85 20.7 26.7 20.55 26.6 Q19.8 27.55 19.4 28.45 L19.15 27.55 17.6 30.85 12.25 35.1 13.3 34.85 12.15 35.95 6.55 39.55 Q7.4 38.7 6.9 37.5 9.85 36.75 11.55 35.5 L9.75 36.2 13.3 33.3 13.1 33.45 17.3 29.75 12.45 34.85 Q15.05 32.85 17.15 30.9 L17.7 29.3 17.3 29.75 18.9 25.85 Q18.2 26.2 18.75 23.9 L18.75 23.8 Q19.3 23.1 19.65 23.35 L20.1 24.05 19.95 24.1 Q20.75 24.35 21.05 25.8 L21.1 26.05 21.35 25.9 22.5 26.3 25.2 25.85 26.0 24.8 26.1 24.75 26.15 24.55 29.7 17.9 30.15 17.25 29.6 13.9 29.8 13.55 30.05 13.7 30.2 16.75 31.35 15.45 31.45 15.6 M19.6 22.35 Q20.1 22.3 20.85 23.35 20.75 23.7 20.8 24.0 L20.35 23.95 20.15 24.05 20.2 23.7 19.6 22.35" fill="#de5c77" fill-rule="evenodd" stroke="none"/>
      <path d="M35.5 14.85 Q33.05 15.85 30.85 16.3 L31.45 15.6 Q33.65 15.3 37.25 13.15 37.7 12.95 37.15 14.0 L35.5 14.85 M30.05 13.7 L29.8 13.55 29.6 13.9 29.65 13.75 29.6 13.9 29.55 14.1 29.4 14.55 29.1 13.3 29.55 12.85 29.75 12.8 Q30.15 12.8 30.6 13.35 L30.8 14.05 30.95 14.25 30.05 13.7 M29.7 17.9 L26.15 24.55 25.3 24.35 29.7 17.9 M26.0 24.8 L25.2 25.85 22.5 26.3 21.35 25.9 22.1 25.45 22.25 25.5 Q22.95 25.8 24.15 25.5 21.35 25.5 26.0 24.8 M18.9 25.85 L17.3 29.75 17.7 29.3 17.15 30.9 Q15.05 32.85 12.45 34.85 L17.3 29.75 13.1 33.45 9.3 34.85 7.35 36.75 7.15 36.75 Q7.4 34.8 10.25 33.9 12.4 33.2 15.3 30.3 L17.6 27.9 18.9 25.85" fill="#ea9dad" fill-rule="evenodd" stroke="none"/>
      <path d="M29.6 13.9 L30.15 17.25 29.7 17.9 25.3 24.35 26.15 24.55 26.1 24.75 26.0 24.8 Q21.35 25.5 24.15 25.5 22.95 25.8 22.25 25.5 L22.1 25.45 22.05 25.4 22.0 25.4 22.1 25.25 22.25 24.95 Q23.85 24.95 25.45 23.25 L25.65 23.05 26.35 22.0 27.95 19.5 28.85 17.55 Q29.25 16.15 28.75 13.9 L29.1 13.3 29.4 14.55 29.45 15.05 29.55 14.1 29.6 13.9 M20.1 24.05 L19.65 23.35 Q19.3 23.1 18.75 23.8 L19.5 22.4 19.6 22.35 20.2 23.7 20.15 24.05 20.2 24.2 20.1 24.05 M18.75 23.9 Q18.2 26.2 18.9 25.85 L17.6 27.9 15.3 30.3 Q12.4 33.2 10.25 33.9 7.4 34.8 7.15 36.75 L7.35 36.75 9.3 34.85 13.1 33.45 7.35 36.75 Q8.0 36.65 7.9 36.9 L9.75 36.2 11.55 35.5 Q9.85 36.75 6.9 37.5 7.4 38.7 6.55 39.55 L6.4 39.5 6.45 39.4 Q6.2 36.7 7.15 34.85 L7.3 34.8 Q8.5 33.95 11.05 33.1 12.35 32.6 14.6 30.25 L17.95 26.4 18.0 26.25 18.65 24.05 18.75 23.9" fill="#efbac6" fill-rule="evenodd" stroke="none"/>
      <path d="M37.15 14.0 Q37.7 12.95 37.25 13.15 33.65 15.3 31.45 15.6 L31.35 15.45 M37.15 14.0 L36.8 14.5 Q34.95 15.1 34.25 16.05 34.3 16.65 31.1 17.65 L29.95 19.6 Q28.45 22.3 27.15 25.55 L27.1 25.6 26.85 26.15 Q26.2 27.05 22.75 27.45 20.5 26.85 19.5 29.15 L19.4 29.3 19.25 29.4 18.8 30.1 18.35 30.6 Q15.65 34.0 12.2 36.9 L12.1 37.1 9.4 40.15 Q8.45 40.45 6.55 39.55 L6.4 39.5 6.45 39.4 Q6.2 36.7 7.15 34.85 L7.3 34.8 Q8.5 33.95 11.05 33.1 12.35 32.6 14.6 30.25 L17.95 26.4 18.0 26.25 18.65 24.05 M30.95 14.25 L31.35 15.45 M29.1 13.3 L29.55 12.85 29.75 12.8 Q30.15 12.8 30.6 13.35 L30.8 14.05 30.95 14.25 M29.1 13.3 L28.75 13.9 Q29.25 16.15 28.85 17.55 L27.95 19.5 26.35 22.0 25.65 23.05 25.45 23.25 Q23.85 24.95 22.25 24.95 M20.8 24.0 Q20.75 23.7 20.85 23.35 20.1 22.3 19.6 22.35 M20.8 24.0 Q20.95 24.65 22.0 25.0 L22.25 24.95 M18.75 23.8 L19.5 22.4 19.6 22.35" fill="none" stroke="#000000" stroke-linecap="round" stroke-linejoin="round" stroke-opacity="0.3019608" stroke-width="0.25"/>
      <path d="M34.9 7.95 L34.8 7.5 Q34.85 6.95 35.35 6.6 L35.4 6.6 Q35.6 6.4 35.9 6.35 L36.95 7.35 37.0 7.45 37.1 8.8 36.45 8.85 35.25 8.4 34.9 7.95 M30.35 7.4 L30.15 7.4 29.4 6.9 Q29.5 6.8 29.5 6.85 L30.9 6.1 31.95 5.65 Q31.85 6.6 30.35 7.4 M28.3 9.95 L29.1 9.75 29.6 9.95 Q29.9 10.95 28.35 11.75 L28.1 11.55 Q27.85 11.2 27.9 10.75 27.95 10.3 28.25 10.05 L28.3 9.95 M32.65 10.0 L32.5 9.8 32.3 9.3 32.6 8.8 Q32.8 8.65 33.1 8.65 L33.35 8.8 Q33.6 9.55 32.65 10.0 M34.75 11.75 L34.75 11.7 Q34.75 11.35 35.0 11.05 35.25 10.75 35.6 10.75 L36.1 10.95 34.75 11.75" fill="#d9df8a" fill-rule="evenodd" stroke="none"/>
      <path d="M37.7 8.5 L37.65 8.5 37.1 8.8 37.0 7.45 37.7 8.5 M36.1 10.95 L36.25 11.05 36.45 11.75 36.25 12.45 35.65 12.65 Q35.25 12.7 35.05 12.35 34.75 12.1 34.75 11.75 L36.1 10.95 M32.5 6.35 L31.9 7.05 Q31.35 7.5 30.55 7.4 L30.35 7.4 Q31.85 6.6 31.95 5.65 L32.65 5.5 32.55 5.95 32.5 6.35 M29.6 9.95 L29.8 10.15 Q30.1 10.5 30.05 10.95 L29.65 11.65 28.9 11.9 28.6 11.85 28.35 11.75 Q29.9 10.95 29.6 9.95 M33.65 9.0 L33.75 9.4 33.5 9.9 Q33.25 10.15 33.0 10.1 L32.65 10.0 Q33.6 9.55 33.35 8.8 L33.6 8.9 33.65 9.0" fill="#afb933" fill-rule="evenodd" stroke="none"/>
      <path d="M29.35 12.7 L29.2 12.7 28.6 11.85 28.9 11.9 29.65 11.65 30.05 10.95 Q30.1 10.5 29.8 10.15 L29.6 9.95 29.1 9.75 28.3 9.95 Q28.35 8.95 30.15 7.4 L30.35 7.4 30.55 7.4 Q31.35 7.5 31.9 7.05 L32.5 6.35 35.4 6.6 35.35 6.6 Q34.85 6.95 34.8 7.5 L34.9 7.95 33.65 9.0 33.6 8.9 33.35 8.8 33.1 8.65 Q32.8 8.65 32.6 8.8 L32.3 9.3 32.5 9.8 32.65 10.0 29.35 12.7 M29.4 6.9 L29.35 6.9 29.4 6.9" fill="#c53525" fill-rule="evenodd" stroke="none"/>
      <path d="M29.2 12.7 L28.2 12.65 Q27.15 11.7 27.2 10.5 27.25 9.0 28.95 7.3 L29.35 6.9 29.4 6.9 30.15 7.4 Q28.35 8.95 28.3 9.95 L28.25 10.05 Q27.95 10.3 27.9 10.75 27.85 11.2 28.1 11.55 L28.35 11.75 28.6 11.85 29.2 12.7 M35.4 6.6 L32.5 6.35 32.55 5.95 32.65 5.5 32.95 5.4 Q34.65 5.3 35.9 6.35 35.6 6.4 35.4 6.6" fill="#e27569" fill-rule="evenodd" stroke="none"/>
      <path d="M37.1 8.8 Q37.05 10.05 36.1 10.95 L35.6 10.75 Q35.25 10.75 35.0 11.05 34.75 11.35 34.75 11.7 L34.75 11.75 Q32.7 12.65 29.35 12.7 L32.65 10.0 33.0 10.1 Q33.25 10.15 33.5 9.9 L33.75 9.4 33.65 9.0 34.9 7.95 35.25 8.4 36.45 8.85 37.1 8.8" fill="#b02e21" fill-rule="evenodd" stroke="none"/>
      <path d="M37.7 8.5 Q38.45 9.8 38.4 10.85 38.4 12.35 36.7 13.4 L35.35 13.95 32.65 14.25 30.05 13.7 Q29.3 13.45 28.75 13.05 L28.65 13.0 28.2 12.65 29.2 12.7 29.35 12.7 Q32.7 12.65 34.75 11.75 34.75 12.1 35.05 12.35 35.25 12.7 35.65 12.65 L36.25 12.45 36.45 11.75 36.25 11.05 36.1 10.95 Q37.05 10.05 37.1 8.8 L37.65 8.5 37.7 8.5" fill="#99281c" fill-rule="evenodd" stroke="none"/>
      <path d="M30.05 13.7 L32.65 14.25 35.35 13.95 35.35 14.0 Q35.35 14.6 34.5 14.95 L32.6 15.25 Q31.5 15.2 30.75 14.8 30.0 14.35 30.05 13.8 L30.05 13.7" fill="#89962c" fill-rule="evenodd" stroke="none"/>
      <path d="M37.7 8.5 L37.65 8.5" fill="none" stroke="#000000" stroke-linecap="round" stroke-linejoin="round" stroke-width="0.05"/>
      <path d="M35.35 13.95 L36.7 13.4 Q38.4 12.35 38.4 10.85 38.45 9.8 37.7 8.5 M28.2 12.65 L28.65 13.0 28.75 13.05 Q29.3 13.45 30.05 13.7 L32.65 14.25 35.35 13.95 35.35 14.0 Q35.35 14.6 34.5 14.95 L32.6 15.25 Q31.5 15.2 30.75 14.8 30.0 14.35 30.05 13.8 L30.05 13.7 M32.5 6.35 L31.9 7.05 Q31.35 7.5 30.55 7.4 L30.35 7.4 30.15 7.4 M28.3 9.95 L29.1 9.75 29.6 9.95 29.8 10.15 Q30.1 10.5 30.05 10.95 L29.65 11.65 28.9 11.9 28.6 11.85 M35.9 6.35 Q34.65 5.3 32.95 5.4 L32.65 5.5 32.55 5.95 32.5 6.35 M33.65 9.0 L33.75 9.4 33.5 9.9 Q33.25 10.15 33.0 10.1 L32.65 10.0 32.5 9.8 32.3 9.3 32.6 8.8 Q32.8 8.65 33.1 8.65 L33.35 8.8 33.6 8.9 33.65 9.0 M35.9 6.35 L36.95 7.35 37.0 7.45 37.7 8.5 M31.95 5.65 L32.65 5.5 M29.4 6.9 L30.15 7.4 M29.4 6.9 L29.35 6.9 28.95 7.3 Q27.25 9.0 27.2 10.5 27.15 11.7 28.2 12.65 M29.4 6.9 L29.35 6.9 M31.95 5.65 L30.9 6.1 29.5 6.85 M28.3 9.95 L28.25 10.05 Q27.95 10.3 27.9 10.75 27.85 11.2 28.1 11.55 L28.35 11.75 28.6 11.85" fill="none" stroke="#000000" stroke-linecap="round" stroke-linejoin="round" stroke-opacity="0.3019608" stroke-width="0.25"/>
      <path d="M27.9 14.95 L28.45 15.55 28.15 15.85 27.35 16.05 27.05 15.95 26.8 15.75 Q26.65 15.45 26.8 15.1 L27.0 14.75 27.85 14.9 27.9 14.95 M24.5 17.25 L24.4 17.3 23.9 17.3 23.9 17.25 Q24.0 16.85 24.35 16.4 L24.7 15.8 Q25.0 16.3 24.5 17.25 M24.4 19.2 L24.7 18.85 25.05 18.8 Q25.55 19.2 25.0 20.1 L24.85 20.1 24.45 19.8 Q24.3 19.55 24.4 19.3 L24.4 19.2 M26.55 17.8 L26.5 17.75 26.2 17.55 26.2 17.2 26.35 16.95 26.55 16.9 Q26.9 17.2 26.55 17.8 M28.3 17.9 L28.15 17.45 Q28.2 17.2 28.4 17.1 L28.65 17.0 28.3 17.9" fill="#d9df8a" fill-rule="evenodd" stroke="none"/>
      <path d="M28.65 15.2 L28.6 15.25 28.45 15.55 27.9 14.95 28.65 15.2 M25.0 15.45 L25.1 15.7 25.25 16.0 25.2 16.55 24.65 17.15 24.5 17.25 Q25.0 16.3 24.7 15.8 L25.0 15.45 M28.65 17.0 L28.8 17.0 29.15 17.35 29.25 17.75 29.05 18.05 28.6 18.15 28.3 17.9 28.65 17.0 M25.05 18.8 L25.2 18.85 25.65 19.15 25.65 19.65 25.35 20.05 25.2 20.15 25.0 20.1 Q25.55 19.2 25.05 18.8 M26.55 16.9 L26.7 16.9 26.75 16.9 27.0 17.1 27.0 17.45 26.8 17.7 26.55 17.8 Q26.9 17.2 26.55 16.9" fill="#afb933" fill-rule="evenodd" stroke="none"/>
      <path d="M25.25 16.0 Q25.5 15.45 26.8 15.1 26.65 15.45 26.8 15.75 L27.05 15.95 26.75 16.9 26.7 16.9 26.55 16.9 26.35 16.95 26.2 17.2 26.2 17.55 26.5 17.75 26.55 17.8 25.85 20.25 25.75 20.3 25.2 20.15 25.35 20.05 25.65 19.65 25.65 19.15 25.2 18.85 25.05 18.8 24.7 18.85 24.4 19.2 Q24.05 18.7 24.4 17.3 L24.5 17.25 24.65 17.15 25.2 16.55 25.25 16.0 M23.85 17.35 L23.9 17.3 23.85 17.35" fill="#c53525" fill-rule="evenodd" stroke="none"/>
      <path d="M27.0 14.75 L26.8 15.1 Q25.5 15.45 25.25 16.0 L25.1 15.7 25.0 15.45 25.2 15.3 Q25.95 14.7 27.0 14.75 M25.75 20.3 L25.3 20.65 Q24.4 20.55 24.05 19.9 23.55 19.15 23.75 17.7 L23.85 17.35 23.9 17.3 24.4 17.3 Q24.05 18.7 24.4 19.2 L24.4 19.3 Q24.3 19.55 24.45 19.8 L24.85 20.1 25.0 20.1 25.2 20.15 25.75 20.3" fill="#e27569" fill-rule="evenodd" stroke="none"/>
      <path d="M27.05 15.95 L27.35 16.05 28.15 15.85 28.45 15.55 Q28.8 16.25 28.65 17.0 L28.4 17.1 Q28.2 17.2 28.15 17.45 L28.3 17.9 Q27.55 19.1 25.85 20.25 L26.55 17.8 26.8 17.7 27.0 17.45 27.0 17.1 26.75 16.9 27.05 15.95" fill="#b02e21" fill-rule="evenodd" stroke="none"/>
      <path d="M28.6 15.25 L28.65 15.2 29.85 16.15 Q30.35 16.95 29.8 18.0 L29.35 18.8 28.1 19.9 26.55 20.55 25.7 20.65 25.65 20.7 25.3 20.65 25.75 20.3 25.85 20.25 Q27.55 19.1 28.3 17.9 L28.6 18.15 29.05 18.05 29.25 17.75 29.15 17.35 28.8 17.0 28.65 17.0 Q28.8 16.25 28.45 15.55 L28.6 15.25" fill="#99281c" fill-rule="evenodd" stroke="none"/>
      <path d="M26.55 20.55 L28.1 19.9 29.35 18.8 29.35 18.85 Q29.6 19.15 29.25 19.65 L28.45 20.45 27.35 20.85 Q26.75 20.9 26.6 20.6 L26.55 20.55" fill="#89962c" fill-rule="evenodd" stroke="none"/>
      <path d="M28.6 15.25 L28.65 15.2" fill="none" stroke="#000000" stroke-linecap="round" stroke-linejoin="round" stroke-width="0.05"/>
      <path d="M28.65 15.2 L27.9 14.95 M29.35 18.8 L29.8 18.0 Q30.35 16.95 29.85 16.15 L28.65 15.2 M27.0 14.75 Q25.95 14.7 25.2 15.3 L25.0 15.45 25.1 15.7 25.25 16.0 25.2 16.55 24.65 17.15 24.5 17.25 24.4 17.3 M25.3 20.65 L25.65 20.7 25.7 20.65 26.55 20.55 28.1 19.9 29.35 18.8 29.35 18.85 Q29.6 19.15 29.25 19.65 L28.45 20.45 27.35 20.85 Q26.75 20.9 26.6 20.6 L26.55 20.55 M27.0 14.75 L27.85 14.9 27.9 14.95 M24.4 19.2 L24.7 18.85 25.05 18.8 25.2 18.85 25.65 19.15 25.65 19.65 25.35 20.05 25.2 20.15 M24.7 15.8 L25.0 15.45 M26.55 17.8 L26.5 17.75 26.2 17.55 26.2 17.2 26.35 16.95 26.55 16.9 26.7 16.9 26.75 16.9 27.0 17.1 27.0 17.45 26.8 17.7 26.55 17.8 M25.3 20.65 Q24.4 20.55 24.05 19.9 23.55 19.15 23.75 17.7 L23.85 17.35 23.9 17.3 23.85 17.35 M23.9 17.25 Q24.0 16.85 24.35 16.4 L24.7 15.8 M23.9 17.3 L24.4 17.3 M24.4 19.2 L24.4 19.3 Q24.3 19.55 24.45 19.8 L24.85 20.1 25.0 20.1 25.2 20.15" fill="none" stroke="#000000" stroke-linecap="round" stroke-linejoin="round" stroke-opacity="0.3019608" stroke-width="0.25"/>
      <path d="M20.7 33.45 L19.95 32.85 20.25 32.5 Q20.6 32.15 21.05 32.15 L21.45 32.1 21.7 32.3 21.9 33.0 21.85 33.0 21.75 33.4 20.8 33.45 20.7 33.45 M23.85 30.1 L23.95 30.0 24.55 29.9 24.5 29.95 24.2 31.0 23.95 31.7 Q23.5 31.2 23.85 30.1 M23.5 27.9 L23.3 28.4 22.9 28.5 Q22.25 28.2 22.6 27.1 L22.8 27.1 Q23.15 27.1 23.35 27.35 L23.5 27.9 M21.45 30.05 L21.65 30.05 21.95 30.2 22.1 30.6 21.9 30.9 21.7 31.0 Q21.25 30.7 21.45 30.05 M19.55 30.3 L19.6 30.3 19.85 30.75 19.7 31.2 19.4 31.3 19.55 30.3" fill="#d9df8a" fill-rule="evenodd" stroke="none"/>
      <path d="M19.85 33.3 L19.85 33.25 19.95 32.85 20.7 33.45 19.85 33.3 M23.7 32.2 L23.55 31.9 23.35 31.7 23.25 31.05 Q23.3 30.55 23.7 30.2 L23.85 30.1 Q23.5 31.2 23.95 31.7 L23.7 32.2 M19.4 31.3 L19.25 31.35 Q18.95 31.3 18.8 31.1 L18.55 30.7 18.7 30.3 Q18.85 30.1 19.15 30.15 L19.55 30.3 19.4 31.3 M22.9 28.5 L22.75 28.55 Q22.4 28.5 22.2 28.3 L22.05 27.75 Q22.05 27.5 22.3 27.3 L22.4 27.15 22.6 27.1 Q22.25 28.2 22.9 28.5 M21.7 31.0 L21.55 31.05 21.5 31.0 21.2 30.85 21.1 30.5 Q21.1 30.3 21.25 30.15 L21.45 30.05 Q21.25 30.7 21.7 31.0" fill="#afb933" fill-rule="evenodd" stroke="none"/>
      <path d="M23.35 31.7 Q23.2 32.3 21.85 33.0 L21.9 33.0 21.7 32.3 21.45 32.1 21.5 31.0 21.55 31.05 21.7 31.0 21.9 30.9 22.1 30.6 21.95 30.2 21.65 30.05 21.45 30.05 21.65 27.1 21.75 27.05 22.4 27.15 22.3 27.3 Q22.05 27.5 22.05 27.75 L22.2 28.3 Q22.4 28.5 22.75 28.55 L22.9 28.5 23.3 28.4 23.5 27.9 Q24.0 28.45 23.95 30.0 L23.85 30.1 23.7 30.2 Q23.3 30.55 23.25 31.05 L23.35 31.7 M24.55 29.85 L24.55 29.9 24.55 29.85" fill="#c53525" fill-rule="evenodd" stroke="none"/>
      <path d="M21.75 33.4 L21.85 33.0 Q23.2 32.3 23.35 31.7 L23.55 31.9 23.7 32.2 23.6 32.35 Q22.85 33.2 21.75 33.4 M21.75 27.05 L22.2 26.55 Q23.15 26.5 23.75 27.1 24.5 27.8 24.55 29.45 L24.55 29.85 24.55 29.9 23.95 30.0 Q24.0 28.45 23.5 27.9 L23.35 27.35 Q23.15 27.1 22.8 27.1 L22.6 27.1 22.4 27.15 21.75 27.05" fill="#e27569" fill-rule="evenodd" stroke="none"/>
      <path d="M21.45 32.1 L21.05 32.15 Q20.6 32.15 20.25 32.5 L19.95 32.85 Q19.4 32.2 19.4 31.3 L19.7 31.2 19.85 30.75 19.6 30.3 19.55 30.3 Q20.1 28.85 21.65 27.1 L21.45 30.05 21.25 30.15 Q21.1 30.3 21.1 30.5 L21.2 30.85 21.5 31.0 21.45 32.1" fill="#b02e21" fill-rule="evenodd" stroke="none"/>
      <path d="M19.85 33.25 L19.85 33.3 Q18.8 33.05 18.3 32.5 17.6 31.8 17.85 30.5 L18.2 29.55 Q18.6 28.75 19.3 28.05 L20.8 27.0 Q21.3 26.75 21.75 26.65 L21.85 26.6 22.2 26.55 21.75 27.05 21.65 27.1 Q20.1 28.85 19.55 30.3 L19.15 30.15 Q18.85 30.1 18.7 30.3 L18.55 30.7 18.8 31.1 Q18.95 31.3 19.25 31.35 L19.4 31.3 Q19.4 32.2 19.95 32.85 L19.85 33.25" fill="#99281c" fill-rule="evenodd" stroke="none"/>
      <path d="M20.8 27.0 L19.3 28.05 Q18.6 28.75 18.2 29.55 L18.15 29.5 Q17.9 29.2 18.1 28.65 18.3 28.05 18.8 27.6 19.35 27.0 19.95 26.85 L20.8 26.95 20.8 27.0" fill="#89962c" fill-rule="evenodd" stroke="none"/>
      <path d="M19.85 33.25 L19.85 33.3" fill="none" stroke="#000000" stroke-linecap="round" stroke-linejoin="round" stroke-width="0.05"/>
      <path d="M19.85 33.3 L20.7 33.45 M18.2 29.55 L17.85 30.5 Q17.6 31.8 18.3 32.5 18.8 33.05 19.85 33.3 M21.75 33.4 Q22.85 33.2 23.6 32.35 L23.7 32.2 23.55 31.9 23.35 31.7 23.25 31.05 Q23.3 30.55 23.7 30.2 L23.85 30.1 23.95 30.0 M22.2 26.55 L21.85 26.6 21.75 26.65 Q21.3 26.75 20.8 27.0 L19.3 28.05 Q18.6 28.75 18.2 29.55 L18.15 29.5 Q17.9 29.2 18.1 28.65 18.3 28.05 18.8 27.6 19.35 27.0 19.95 26.85 L20.8 26.95 20.8 27.0 M21.75 33.4 L20.8 33.45 20.7 33.45 M23.5 27.9 L23.3 28.4 22.9 28.5 22.75 28.55 Q22.4 28.5 22.2 28.3 L22.05 27.75 Q22.05 27.5 22.3 27.3 L22.4 27.15 M23.95 31.7 L23.7 32.2 M21.45 30.05 L21.65 30.05 21.95 30.2 22.1 30.6 21.9 30.9 21.7 31.0 21.55 31.05 21.5 31.0 21.2 30.85 21.1 30.5 Q21.1 30.3 21.25 30.15 L21.45 30.05 M22.2 26.55 Q23.15 26.5 23.75 27.1 24.5 27.8 24.55 29.45 L24.55 29.85 24.55 29.9 24.55 29.85 M24.5 29.95 L24.2 31.0 23.95 31.7 M24.55 29.9 L23.95 30.0 M23.5 27.9 L23.35 27.35 Q23.15 27.1 22.8 27.1 L22.6 27.1 22.4 27.15" fill="none" stroke="#000000" stroke-linecap="round" stroke-linejoin="round" stroke-opacity="0.3019608" stroke-width="0.25"/>
    </g>
  </defs>
</svg>
