<?xml version="1.0" encoding="UTF-8" standalone="no"?>
<svg xmlns:xlink="http://www.w3.org/1999/xlink" height="440.0px" width="440.0px" xmlns="http://www.w3.org/2000/svg">
  <g transform="matrix(10.0, 0.0, 0.0, 10.0, 0.0, 0.0)">
    <use height="44.0" transform="matrix(1.0, 0.0, 0.0, 1.0, 0.0, 0.0)" width="44.0" xlink:href="#shape0"/>
  </g>
  <defs>
    <g id="shape0" transform="matrix(1.0, 0.0, 0.0, 1.0, 0.0, 0.0)">
      <path d="M44.0 44.0 L0.0 44.0 0.0 0.0 44.0 0.0 44.0 44.0" fill="#43adca" fill-opacity="0.0" fill-rule="evenodd" stroke="none"/>
      <path d="M29.35 20.65 L29.65 20.4 Q29.85 21.25 30.6 21.15 L30.8 21.15 31.45 21.55 31.65 22.55 Q31.65 23.05 31.25 23.45 L30.55 23.85 Q30.1 23.85 29.85 23.4 29.6 23.0 29.7 22.45 L29.7 22.15 29.75 22.1 Q29.9 21.05 29.35 20.65" fill="url(#gradient0)" fill-rule="evenodd" stroke="none"/>
      <path d="M29.65 20.4 Q29.85 21.25 30.6 21.15 L30.8 21.15 31.45 21.55 31.65 22.55 Q31.65 23.05 31.25 23.45 L30.55 23.85 Q30.1 23.85 29.85 23.4 29.6 23.0 29.7 22.45 L29.7 22.15 29.75 22.1 Q29.9 21.05 29.35 20.65" fill="none" stroke="url(#gradient1)" stroke-linecap="round" stroke-linejoin="round" stroke-width="0.25"/>
      <path d="M30.25 21.65 Q30.45 21.4 30.75 21.4 L31.2 21.75 31.3 22.4 31.05 23.05 30.55 23.25 30.1 22.95 30.0 22.25 30.25 21.65" fill="url(#gradient2)" fill-rule="evenodd" stroke="none"/>
      <path d="M31.15 21.9 L31.3 22.35 31.2 22.85 30.8 23.15 30.4 23.05 30.2 22.6 30.35 22.1 Q30.5 21.9 30.75 21.85 L31.15 21.9" fill="#ffffff" fill-rule="evenodd" stroke="none"/>
      <path d="M18.05 21.05 Q18.0 20.95 18.2 20.95 18.35 21.55 18.85 21.45 L19.0 21.4 Q19.3 21.45 19.45 21.7 L19.6 22.4 19.3 23.05 18.8 23.3 18.35 23.0 18.2 22.35 18.25 22.15 18.3 22.1 Q18.35 21.35 18.05 21.05" fill="url(#gradient3)" fill-rule="evenodd" stroke="none"/>
      <path d="M18.2 20.95 Q18.35 21.55 18.85 21.45 L19.0 21.4 Q19.3 21.45 19.45 21.7 L19.6 22.4 19.3 23.05 18.8 23.3 18.35 23.0 18.2 22.35 18.25 22.15 18.3 22.1 Q18.35 21.35 18.05 21.05" fill="none" stroke="url(#gradient4)" stroke-linecap="round" stroke-linejoin="round" stroke-width="0.25"/>
      <path d="M18.55 21.8 Q18.7 21.65 18.9 21.65 L19.2 21.9 19.3 22.35 19.1 22.8 18.8 22.95 Q18.55 22.9 18.45 22.7 L18.4 22.25 Q18.4 22.0 18.55 21.8" fill="url(#gradient5)" fill-rule="evenodd" stroke="none"/>
      <path d="M19.2 22.0 L19.3 22.3 19.2 22.65 18.9 22.85 18.65 22.8 18.55 22.5 18.65 22.15 18.9 21.95 19.2 22.0" fill="#ffffff" fill-rule="evenodd" stroke="none"/>
      <path d="M31.3 21.7 Q30.6 22.55 29.45 23.0 L27.45 23.05 Q24.4 22.55 23.7 20.25 23.3 19.0 23.45 17.85 L24.2 17.3 26.85 17.2 27.1 17.35 27.15 17.35 27.35 17.5 Q28.65 19.15 27.95 20.35 L27.45 20.55 Q26.0 20.7 25.75 18.75 25.85 17.7 26.5 17.45 L26.45 17.45 Q25.65 17.6 25.45 18.4 L25.35 18.8 Q25.6 20.8 27.05 21.0 L27.4 20.95 Q28.65 20.55 28.8 19.65 28.95 18.75 28.0 17.25 26.85 16.1 25.65 16.15 L24.45 16.45 23.75 16.9 23.7 16.95 Q22.35 17.8 20.85 19.05 13.65 25.05 3.0 39.95 L2.35 40.85 1.9 40.3 Q1.4 39.55 1.5 39.15 L1.65 38.65 1.8 38.4 2.0 38.1 Q11.55 24.75 22.8 14.45 25.05 12.3 27.6 13.45 30.95 15.35 31.5 19.3 31.65 20.7 31.3 21.7 M26.85 17.2 L26.45 17.45 26.85 17.2 M3.7 41.25 L3.7 41.2 3.7 41.25" fill="url(#gradient6)" fill-rule="evenodd" stroke="none"/>
      <path d="M26.45 17.45 L26.5 17.45 Q25.85 17.7 25.75 18.75 26.0 20.7 27.45 20.55 L27.95 20.35 Q28.65 19.15 27.35 17.5 L27.15 17.35 27.1 17.35 26.85 17.2 24.2 17.3 23.45 17.85 Q23.3 19.0 23.7 20.25 24.4 22.55 27.45 23.05 L29.45 23.0 Q30.6 22.55 31.3 21.7 30.55 23.65 27.85 24.15 23.9 23.55 23.2 21.25 22.65 19.6 23.1 18.15 L23.65 16.95 23.7 16.95 23.75 16.9 24.45 16.45 25.65 16.15 Q26.85 16.1 28.0 17.25 28.95 18.75 28.8 19.65 28.65 20.55 27.4 20.95 L27.05 21.0 Q25.6 20.8 25.35 18.8 L25.45 18.4 Q25.65 17.6 26.45 17.45" fill="#bbda71" fill-rule="evenodd" stroke="none"/>
      <path d="M23.7 16.95 L23.65 16.95 Q12.2 27.15 3.7 41.15 L3.7 41.2 3.7 41.25 3.0 41.15 2.35 40.85 3.0 39.95 Q13.65 25.05 20.85 19.05 22.35 17.8 23.7 16.95" fill="url(#gradient7)" fill-rule="evenodd" stroke="none"/>
      <path d="M26.45 17.45 Q25.65 17.6 25.45 18.4 L25.35 18.8 Q25.6 20.8 27.05 21.0 L27.4 20.95 Q28.65 20.55 28.8 19.65 28.95 18.75 28.0 17.25 26.85 16.1 25.65 16.15 L24.45 16.45 23.75 16.9 23.7 16.95 M23.65 16.95 L23.1 18.15 Q22.65 19.6 23.2 21.25 23.9 23.55 27.85 24.15 30.55 23.65 31.3 21.7 31.65 20.7 31.5 19.3 30.95 15.35 27.6 13.45 25.05 12.3 22.8 14.45 11.55 24.75 2.0 38.1 L1.8 38.4 1.65 38.65 1.5 39.15 Q1.4 39.55 1.9 40.3 L2.35 40.85 M26.45 17.45 L26.85 17.2 M3.7 41.2 L3.7 41.15 Q12.2 27.15 23.65 16.95 M3.7 41.25 L3.0 41.15 2.35 40.85 M3.7 41.2 L3.7 41.25" fill="none" stroke="#000000" stroke-linecap="round" stroke-linejoin="round" stroke-opacity="0.3019608" stroke-width="0.05"/>
      <path d="M23.65 17.05 Q16.55 23.4 10.6 31.2 L9.75 32.3 9.6 32.5 8.8 33.65 6.7 36.6 Q6.45 37.65 5.5 38.5 L5.5 38.45 3.8 41.15 3.8 41.25 3.1 41.15 2.45 40.85 2.0 40.3 Q1.5 39.55 1.6 39.15 L1.75 38.65 1.9 38.4 2.1 38.1 3.35 36.4 Q3.4 34.8 4.35 34.3 L5.05 34.15 7.35 31.2 7.1 31.2 Q7.1 30.0 7.9 29.65 7.9 28.8 8.65 28.65 L9.45 28.65 Q15.8 20.95 22.9 14.45 25.15 12.3 27.7 13.45 31.05 15.35 31.6 19.3 31.75 20.7 31.4 21.7 30.65 23.65 27.95 24.15 24.0 23.55 23.3 21.25 22.75 19.6 23.2 18.15 L23.75 17.0 23.75 16.95 23.65 17.05 Z" fill="none" stroke="#000000" stroke-linecap="round" stroke-linejoin="round" stroke-opacity="0.2" stroke-width="0.5"/>
      <path d="M29.35 17.05 L30.85 16.9 Q31.45 16.4 31.65 15.35 L31.7 15.25 31.8 14.6 Q32.35 12.0 34.3 10.55 36.25 9.15 38.45 9.7 40.65 10.3 41.75 12.55 42.9 14.85 42.35 17.45 41.75 20.1 39.8 21.5 37.85 22.95 35.7 22.35 33.5 21.8 32.35 19.5 L32.1 18.85 Q31.3 17.2 29.65 18.7 29.25 18.6 29.2 18.0 29.1 17.3 29.35 17.05" fill="url(#gradient8)" fill-rule="evenodd" stroke="none"/>
      <path d="M29.35 17.05 L30.85 16.9 Q31.45 16.4 31.65 15.35 L31.7 15.25 31.8 14.6 Q32.35 12.0 34.3 10.55 36.25 9.15 38.45 9.7 40.65 10.3 41.75 12.55 42.9 14.85 42.35 17.45 41.75 20.1 39.8 21.5 37.85 22.95 35.7 22.35 33.5 21.8 32.35 19.5 L32.1 18.85 Q31.3 17.2 29.65 18.7" fill="none" stroke="url(#gradient9)" stroke-linecap="round" stroke-linejoin="round" stroke-width="0.25"/>
      <path d="M40.25 13.6 Q40.95 15.05 40.6 16.8 40.15 18.55 38.8 19.5 37.5 20.5 36.05 20.15 34.55 19.8 33.85 18.35 33.1 16.85 33.5 15.1 33.95 13.4 35.25 12.4 36.6 11.45 38.05 11.75 39.5 12.1 40.25 13.6" fill="url(#gradient10)" fill-rule="evenodd" stroke="none"/>
      <path d="M35.6 12.95 L35.65 13.9 35.15 14.6 34.3 14.75 33.7 14.05 Q33.5 13.6 33.6 13.1 L34.15 12.4 34.95 12.3 35.6 12.95" fill="#82ad33" fill-opacity="0.7529412" fill-rule="evenodd" stroke="none"/>
      <path d="M38.5 12.35 L38.45 12.6 38.3 12.7 38.1 12.65 38.0 12.4 38.1 12.2 Q38.15 12.1 38.3 12.1 L38.45 12.15 38.5 12.35" fill="#a7bf57" fill-rule="evenodd" stroke="none"/>
      <path d="M35.35 20.3 L35.3 20.55 35.15 20.65 34.95 20.6 34.85 20.35 34.95 20.15 35.15 20.05 35.3 20.1 35.35 20.3" fill="#82ad33" fill-opacity="0.5019608" fill-rule="evenodd" stroke="none"/>
      <path d="M35.75 15.55 L35.6 15.5 35.45 15.65 35.45 15.9 35.5 16.0 35.7 16.05 35.85 15.95 35.9 15.75 35.75 15.55" fill="#ffffff" fill-opacity="0.5019608" fill-rule="evenodd" stroke="none"/>
      <path d="M41.7 16.75 Q41.6 18.3 40.8 19.45 39.95 20.55 38.8 20.65 37.6 20.8 36.8 19.8 35.95 18.75 36.05 17.2 36.05 15.75 36.9 14.6 37.75 13.4 38.95 13.3 40.05 13.2 40.9 14.25 41.7 15.2 41.7 16.75" fill="#ffffff" fill-rule="evenodd" stroke="none"/>
      <path d="M36.6 12.2 L36.45 12.2 36.35 12.3 36.3 12.45 36.4 12.55 36.55 12.55 36.65 12.45 36.65 12.3 36.6 12.2" fill="#ffffff" fill-rule="evenodd" stroke="none"/>
      <path d="M34.25 15.45 L33.9 15.4 33.65 15.65 33.65 16.1 33.8 16.45 34.15 16.45 34.45 16.2 34.5 15.8 34.25 15.45" fill="#ffffff" fill-opacity="0.7529412" fill-rule="evenodd" stroke="none"/>
      <path d="M19.25 19.6 Q18.55 18.0 16.8 18.15 L16.5 18.2 15.5 18.1 Q14.1 17.7 13.6 16.3 13.05 14.85 13.65 13.15 14.25 11.4 15.65 10.45 17.0 9.5 18.4 9.85 19.75 10.25 20.3 11.7 20.85 13.1 20.25 14.85 L20.1 15.25 19.95 15.55 Q19.2 17.55 19.85 19.0 L19.7 19.7 Q19.45 19.95 19.25 19.6" fill="url(#gradient11)" fill-rule="evenodd" stroke="none"/>
      <path d="M19.25 19.6 Q18.55 18.0 16.8 18.15 L16.5 18.2 15.5 18.1 Q14.1 17.7 13.6 16.3 13.05 14.85 13.65 13.15 14.25 11.4 15.65 10.45 17.0 9.5 18.4 9.85 19.75 10.25 20.3 11.7 20.85 13.1 20.25 14.85 L20.1 15.25 19.95 15.55 Q19.2 17.55 19.85 19.0" fill="none" stroke="url(#gradient12)" stroke-linecap="round" stroke-linejoin="round" stroke-width="0.25"/>
      <path d="M18.2 15.85 Q17.45 16.6 16.55 16.6 15.6 16.65 15.05 15.85 14.5 15.1 14.65 13.95 14.75 12.85 15.5 12.1 16.3 11.3 17.2 11.3 18.15 11.3 18.7 12.05 19.25 12.85 19.1 13.95 19.0 15.05 18.2 15.85" fill="url(#gradient13)" fill-rule="evenodd" stroke="none"/>
      <path d="M15.05 13.9 L15.45 13.7 Q15.7 13.75 15.75 13.9 L15.85 14.35 15.55 14.75 15.2 14.9 14.85 14.75 14.8 14.3 Q14.85 14.05 15.05 13.9" fill="#82ad33" fill-opacity="0.7529412" fill-rule="evenodd" stroke="none"/>
      <path d="M17.75 17.15 L17.8 16.9 17.7 16.8 17.45 16.75 17.3 16.9 17.25 17.15 17.4 17.35 17.6 17.35 17.75 17.15" fill="#a7bf57" fill-rule="evenodd" stroke="none"/>
      <path d="M16.9 13.1 L16.75 13.05 16.7 12.9 Q16.65 12.75 16.75 12.7 L16.95 12.55 17.1 12.6 17.15 12.8 17.05 13.0 16.9 13.1" fill="#ffffff" fill-opacity="0.5019608" fill-rule="evenodd" stroke="none"/>
      <path d="M16.05 16.65 L15.9 16.65 15.85 16.5 15.9 16.35 16.0 16.3 16.15 16.3 16.2 16.45 16.15 16.6 16.05 16.65" fill="#ffffff" fill-rule="evenodd" stroke="none"/>
      <path d="M15.6 12.6 L15.25 12.5 15.1 12.15 15.3 11.75 15.65 11.5 15.95 11.6 16.05 11.95 15.9 12.35 15.6 12.6" fill="#ffffff" fill-opacity="0.7529412" fill-rule="evenodd" stroke="none"/>
      <path d="M17.85 12.1 Q18.5 11.65 19.05 11.8 19.7 12.0 19.9 12.7 L19.85 14.35 Q19.5 15.3 18.85 15.75 18.25 16.25 17.65 16.1 17.0 15.9 16.75 15.15 16.6 14.4 16.9 13.5 17.2 12.6 17.85 12.1" fill="#ffffff" fill-rule="evenodd" stroke="none"/>
      <path d="M24.7 14.6 Q24.65 13.45 23.8 13.35 L23.55 13.25 22.9 12.5 Q22.75 11.9 22.95 11.25 23.1 10.65 23.55 10.35 L24.5 10.2 Q25.0 10.4 25.15 11.0 L25.1 12.2 25.0 12.45 Q24.55 13.7 25.05 14.45 L24.7 14.6" fill="url(#gradient14)" fill-rule="evenodd" stroke="none"/>
      <path d="M24.7 14.6 Q24.65 13.45 23.8 13.35 L23.55 13.25 22.9 12.5 Q22.75 11.9 22.95 11.25 23.1 10.65 23.55 10.35 L24.5 10.2 Q25.0 10.4 25.15 11.0 L25.1 12.2 25.0 12.45 Q24.55 13.7 25.05 14.45" fill="none" stroke="url(#gradient15)" stroke-linecap="round" stroke-linejoin="round" stroke-width="1.5"/>
      <path d="M24.45 12.4 L23.95 12.6 23.5 12.3 23.35 11.6 23.65 11.0 Q23.85 10.75 24.15 10.75 24.45 10.75 24.6 11.05 L24.75 11.75 24.45 12.4" fill="url(#gradient16)" fill-rule="evenodd" stroke="none"/>
      <path d="M24.4 10.25 L24.45 10.5 24.4 10.7 24.25 10.8 24.05 10.75 24.0 10.6 24.1 10.35 Q24.1 10.25 24.25 10.25 L24.4 10.25" fill="#a7bf57" fill-rule="evenodd" stroke="none"/>
      <path d="M23.05 12.0 L22.95 12.1 22.95 12.25 23.0 12.35 23.15 12.3 23.25 12.25 23.25 12.05 23.15 12.0 23.05 12.0" fill="#ffffff" fill-rule="evenodd" stroke="none"/>
      <path d="M24.1 11.05 L24.5 11.0 24.75 11.4 24.75 12.0 24.45 12.5 24.0 12.55 23.75 12.2 23.8 11.6 Q23.85 11.25 24.1 11.05" fill="#ffffff" fill-rule="evenodd" stroke="none"/>
      <path d="M27.05 22.9 L27.25 22.5 27.7 22.55 Q27.75 23.8 28.55 24.3 L28.6 24.3 Q29.3 24.5 29.6 25.25 29.9 26.0 29.55 26.85 29.25 27.6 28.55 28.0 L27.1 28.2 Q26.45 27.95 26.15 27.2 25.85 26.45 26.15 25.65 26.45 24.95 27.05 24.55 27.6 23.8 27.05 22.9" fill="url(#gradient17)" fill-rule="evenodd" stroke="none"/>
      <path d="M27.05 24.55 Q27.6 23.8 27.05 22.9" fill="none" stroke="url(#gradient18)" stroke-linecap="round" stroke-linejoin="round" stroke-width="1.5"/>
      <path d="M27.7 22.55 Q27.75 23.8 28.55 24.3 L28.6 24.3 Q29.3 24.5 29.6 25.25 29.9 26.0 29.55 26.85 29.25 27.6 28.55 28.0 L27.1 28.2 Q26.45 27.95 26.15 27.2 25.85 26.45 26.15 25.65 26.45 24.95 27.05 24.55 Z" fill="none" stroke="url(#gradient19)" stroke-linecap="round" stroke-linejoin="round" stroke-width="0.25"/>
      <path d="M27.65 24.9 L28.45 25.05 28.9 25.85 28.7 26.8 27.95 27.35 27.1 27.2 Q26.75 26.9 26.7 26.45 26.65 25.95 26.95 25.5 L27.65 24.9" fill="url(#gradient20)" fill-rule="evenodd" stroke="none"/>
      <path d="M28.35 24.55 L28.45 24.8 28.35 25.0 28.15 25.1 27.95 25.05 27.85 24.9 27.95 24.65 28.15 24.55 28.35 24.55" fill="#a7bf57" fill-rule="evenodd" stroke="none"/>
      <path d="M26.7 26.25 L26.6 26.35 26.6 26.5 26.7 26.6 26.85 26.55 26.95 26.5 26.95 26.3 26.85 26.25 26.7 26.25" fill="#ffffff" fill-rule="evenodd" stroke="none"/>
      <path d="M28.4 25.15 L29.05 25.35 Q29.35 25.65 29.25 26.05 L28.95 26.85 28.25 27.25 27.6 27.1 Q27.35 26.85 27.4 26.4 27.45 26.0 27.75 25.6 28.05 25.25 28.4 25.15" fill="#ffffff" fill-rule="evenodd" stroke="none"/>
      <path d="M27.7 14.05 Q29.1 10.95 28.15 9.3 L27.9 8.85 27.5 8.0 Q27.05 6.5 27.6 4.9 28.1 3.2 29.3 2.4 30.5 1.6 31.7 2.1 32.85 2.55 33.3 4.05 33.8 5.6 33.25 7.25 32.75 8.95 31.55 9.75 L31.05 10.0 31.0 10.05 Q28.6 11.45 28.4 14.25 27.9 14.65 27.7 14.05" fill="url(#gradient21)" fill-rule="evenodd" stroke="none"/>
      <path d="M27.7 14.05 Q29.1 10.95 28.15 9.3 L27.9 8.85 27.5 8.0 Q27.05 6.5 27.6 4.9 28.1 3.2 29.3 2.4 30.5 1.6 31.7 2.1 32.85 2.55 33.3 4.05 33.8 5.6 33.25 7.25 32.75 8.95 31.55 9.75 L31.05 10.0 31.0 10.05 Q28.6 11.45 28.4 14.25" fill="none" stroke="url(#gradient22)" stroke-linecap="round" stroke-linejoin="round" stroke-width="0.25"/>
      <path d="M31.25 3.2 Q31.95 3.55 32.2 4.5 32.45 5.5 32.1 6.55 31.75 7.6 31.0 8.1 30.25 8.65 29.55 8.3 28.85 8.0 28.6 7.0 28.35 6.05 28.7 5.0 29.05 3.95 29.8 3.4 L31.25 3.2" fill="url(#gradient23)" fill-rule="evenodd" stroke="none"/>
      <path d="M29.95 4.5 L29.95 4.9 29.75 5.15 29.45 5.15 29.3 4.85 29.3 4.5 29.5 4.25 29.8 4.25 29.95 4.5" fill="#86b83c" fill-opacity="0.7529412" fill-rule="evenodd" stroke="none"/>
      <path d="M32.5 4.45 L32.45 4.7 32.25 4.8 32.1 4.65 32.1 4.45 32.15 4.25 32.35 4.15 32.5 4.25 32.5 4.45" fill="#a7bf57" fill-rule="evenodd" stroke="none"/>
      <path d="M29.85 7.3 L29.7 7.25 29.5 7.4 29.5 7.6 29.55 7.8 29.75 7.85 29.85 7.7 29.9 7.5 29.85 7.3" fill="#ffffff" fill-opacity="0.5019608" fill-rule="evenodd" stroke="none"/>
      <path d="M30.95 4.05 L30.8 4.05 30.75 4.1 30.7 4.25 30.75 4.4 30.85 4.4 30.95 4.35 31.0 4.2 30.95 4.05" fill="#ffffff" fill-rule="evenodd" stroke="none"/>
      <path d="M28.65 6.95 L28.35 6.85 Q28.15 6.9 28.1 7.1 L28.0 7.5 Q28.0 7.75 28.15 7.85 L28.45 7.95 28.7 7.7 28.8 7.3 28.65 6.95" fill="#ffffff" fill-opacity="0.7529412" fill-rule="evenodd" stroke="none"/>
      <path d="M31.2 4.7 Q31.85 4.5 32.35 4.85 32.9 5.2 33.0 5.95 33.15 6.75 32.8 7.5 32.4 8.2 31.8 8.4 L30.6 8.3 Q30.1 7.95 30.0 7.15 29.9 6.4 30.25 5.7 30.6 4.95 31.2 4.7" fill="#ffffff" fill-rule="evenodd" stroke="none"/>
      <path d="M13.1 25.2 Q12.8 24.15 11.95 24.3 L11.7 24.35 Q11.2 24.3 10.9 23.85 10.6 23.35 10.7 22.7 10.8 22.05 11.15 21.6 11.55 21.15 12.05 21.2 L12.85 21.7 Q13.1 22.15 13.0 22.8 L13.0 23.1 Q12.8 24.4 13.4 24.9 L13.1 25.2" fill="url(#gradient24)" fill-rule="evenodd" stroke="none"/>
      <path d="M13.1 25.2 Q12.8 24.15 11.95 24.3 L11.7 24.35 Q11.2 24.3 10.9 23.85 10.6 23.35 10.7 22.7 10.8 22.05 11.15 21.6 11.55 21.15 12.05 21.2 L12.85 21.7 Q13.1 22.15 13.0 22.8 L13.0 23.1 Q12.8 24.4 13.4 24.9" fill="none" stroke="url(#gradient25)" stroke-linecap="round" stroke-linejoin="round" stroke-width="0.25"/>
      <path d="M12.25 23.4 L11.75 23.6 11.3 23.3 Q11.15 23.0 11.15 22.6 L11.45 22.0 Q11.65 21.75 11.95 21.75 12.25 21.75 12.4 22.05 L12.55 22.75 12.25 23.4" fill="url(#gradient26)" fill-rule="evenodd" stroke="none"/>
      <path d="M12.8 22.25 L12.5 21.95 Q12.25 21.95 12.1 22.15 11.9 22.35 11.8 22.7 L11.85 23.25 12.15 23.5 12.55 23.35 12.85 22.8 12.8 22.25" fill="#ffffff" fill-rule="evenodd" stroke="none"/>
      <path d="M12.8 27.0 Q13.35 27.55 13.9 27.0 L13.95 26.95 14.15 26.8 14.9 26.7 Q15.3 26.85 15.45 27.35 L15.4 28.35 14.85 29.15 14.1 29.25 13.55 28.65 13.55 28.35 13.5 28.3 Q13.3 27.35 12.6 27.35 12.55 27.2 12.8 27.0" fill="url(#gradient27)" fill-rule="evenodd" stroke="none"/>
      <path d="M12.8 27.0 Q13.35 27.55 13.9 27.0 L13.95 26.95 14.15 26.8 14.9 26.7 Q15.3 26.85 15.45 27.35 L15.4 28.35 14.85 29.15 14.1 29.25 13.55 28.65 13.55 28.35 13.5 28.3 Q13.3 27.35 12.6 27.35" fill="none" stroke="url(#gradient28)" stroke-linecap="round" stroke-linejoin="round" stroke-width="0.25"/>
      <path d="M13.9 27.95 L14.1 27.4 Q14.3 27.15 14.55 27.15 L14.95 27.45 15.1 28.0 14.85 28.5 14.4 28.7 14.0 28.45 13.9 27.95" fill="url(#gradient29)" fill-rule="evenodd" stroke="none"/>
      <path d="M14.75 27.45 L15.1 27.55 15.3 27.95 15.2 28.55 14.8 28.9 14.45 28.85 14.25 28.4 Q14.25 28.15 14.4 27.85 L14.75 27.45" fill="#ffffff" fill-rule="evenodd" stroke="none"/>
      <path d="M4.35 36.15 L5.55 34.25 Q6.05 34.5 6.35 35.4 L5.3 37.2 Q5.05 36.3 4.35 36.15" fill="#df9d71" fill-rule="evenodd" stroke="none"/>
      <path d="M9.65 28.75 L10.3 29.7 9.35 31.4 Q9.15 30.6 8.75 30.2 L9.65 28.75" fill="#d98a55" fill-rule="evenodd" stroke="none"/>
      <path d="M8.45 32.9 Q8.3 32.05 7.85 31.55 L8.75 30.2 Q9.15 30.6 9.35 31.4 L8.45 32.9" fill="#d3783a" fill-rule="evenodd" stroke="none"/>
      <path d="M4.35 36.15 Q3.75 36.1 3.25 36.5 3.25 34.8 4.25 34.3 L5.55 34.25 4.35 36.15" fill="#e9bc9e" fill-rule="evenodd" stroke="none"/>
      <path d="M7.85 31.55 Q7.55 31.15 7.0 31.2 7.0 30.0 7.8 29.65 8.35 29.8 8.75 30.2 L7.85 31.55" fill="#db9160" fill-rule="evenodd" stroke="none"/>
      <path d="M7.8 29.65 Q7.8 28.8 8.55 28.65 L9.65 28.75 8.75 30.2 Q8.35 29.8 7.8 29.65" fill="#e7b18f" fill-rule="evenodd" stroke="none"/>
      <path d="M6.35 35.4 L6.65 36.3 Q6.5 37.55 5.4 38.5 L5.3 37.2 6.35 35.4" fill="#d57d44" fill-rule="evenodd" stroke="none"/>
      <path d="M9.5 32.4 Q9.45 33.4 8.6 33.65 L8.45 32.9 9.35 31.4 9.5 32.4" fill="#b56028" fill-rule="evenodd" stroke="none"/>
      <path d="M10.3 29.7 L10.5 30.6 Q10.65 31.65 9.5 32.4 L9.35 31.4 10.3 29.7" fill="#d17436" fill-rule="evenodd" stroke="none"/>
      <path d="M10.3 29.7 L10.5 30.6 Q10.65 31.65 9.5 32.4 9.45 33.4 8.6 33.65 L8.45 32.9 Q8.3 32.05 7.85 31.55 7.55 31.15 7.0 31.2 7.0 30.0 7.8 29.65 7.8 28.8 8.55 28.65 L9.65 28.75 10.3 29.7 M9.35 31.4 L9.5 32.4 M7.8 29.65 Q8.35 29.8 8.75 30.2 M5.55 34.25 L4.25 34.3 Q3.25 34.8 3.25 36.5 3.75 36.1 4.35 36.15 M5.55 34.25 Q6.05 34.5 6.35 35.4 L6.65 36.3 Q6.5 37.55 5.4 38.5 L5.3 37.2 Q5.05 36.3 4.35 36.15 M9.35 31.4 Q9.15 30.6 8.75 30.2" fill="none" stroke="#000000" stroke-linecap="round" stroke-linejoin="round" stroke-opacity="0.3019608" stroke-width="0.05"/>
    </g>
    <linearGradient gradientTransform="matrix(8.0E-4, 0.0017, -0.0011, 0.001, 30.7, 22.4)" gradientUnits="userSpaceOnUse" id="gradient0" spreadMethod="pad" x1="-819.2" x2="819.2">
      <stop offset="0.0" stop-color="#eaed68"/>
      <stop offset="1.0" stop-color="#e7ed68" stop-opacity="0.0"/>
    </linearGradient>
    <linearGradient gradientTransform="matrix(2.0E-4, 2.0E-4, -0.0011, 0.0013, 30.1, 21.05)" gradientUnits="userSpaceOnUse" id="gradient1" spreadMethod="pad" x1="-819.2" x2="819.2">
      <stop offset="0.0" stop-color="#000000" stop-opacity="0.3019608"/>
      <stop offset="1.0" stop-color="#ffffff"/>
    </linearGradient>
    <linearGradient gradientTransform="matrix(-4.0E-4, -0.0014, 8.0E-4, -5.0E-4, 30.8, 21.85)" gradientUnits="userSpaceOnUse" id="gradient2" spreadMethod="pad" x1="-819.2" x2="819.2">
      <stop offset="0.0" stop-color="#b8d64a"/>
      <stop offset="1.0" stop-color="#cfe36a" stop-opacity="0.0"/>
    </linearGradient>
    <linearGradient gradientTransform="matrix(5.0E-4, 0.0012, -7.0E-4, 7.0E-4, 18.9, 22.35)" gradientUnits="userSpaceOnUse" id="gradient3" spreadMethod="pad" x1="-819.2" x2="819.2">
      <stop offset="0.0" stop-color="#eaed68"/>
      <stop offset="1.0" stop-color="#e7ed68" stop-opacity="0.0"/>
    </linearGradient>
    <linearGradient gradientTransform="matrix(1.0E-4, 2.0E-4, -8.0E-4, 9.0E-4, 18.5, 21.4)" gradientUnits="userSpaceOnUse" id="gradient4" spreadMethod="pad" x1="-819.2" x2="819.2">
      <stop offset="0.0" stop-color="#000000" stop-opacity="0.3019608"/>
      <stop offset="1.0" stop-color="#ffffff"/>
    </linearGradient>
    <linearGradient gradientTransform="matrix(-2.0E-4, -0.001, 5.0E-4, -3.0E-4, 18.9, 21.95)" gradientUnits="userSpaceOnUse" id="gradient5" spreadMethod="pad" x1="-819.2" x2="819.2">
      <stop offset="0.0" stop-color="#b8d64a"/>
      <stop offset="1.0" stop-color="#cfe36a" stop-opacity="0.0"/>
    </linearGradient>
    <linearGradient gradientTransform="matrix(0.0087, -0.0076, 0.0177, 0.0257, 24.85, 52.0)" gradientUnits="userSpaceOnUse" id="gradient6" spreadMethod="pad" x1="-819.2" x2="819.2">
      <stop offset="0.19215686274509805" stop-color="#80c37d"/>
      <stop offset="1.0" stop-color="#eaed68"/>
    </linearGradient>
    <linearGradient gradientTransform="matrix(0.009, -0.0097, 0.0013, 0.0012, 18.4, 23.2)" gradientUnits="userSpaceOnUse" id="gradient7" spreadMethod="pad" x1="-819.2" x2="819.2">
      <stop offset="0.19215686274509805" stop-color="#80c37d"/>
      <stop offset="1.0" stop-color="#eaed68"/>
    </linearGradient>
    <linearGradient gradientTransform="matrix(0.0063, -0.0028, 0.0022, 0.0074, 36.7, 15.8)" gradientUnits="userSpaceOnUse" id="gradient8" spreadMethod="pad" x1="-819.2" x2="819.2">
      <stop offset="0.0" stop-color="#eaed68"/>
      <stop offset="1.0" stop-color="#e7ed68" stop-opacity="0.0"/>
    </linearGradient>
    <linearGradient gradientTransform="matrix(0.0013, -4.0E-4, 0.0017, 0.0093, 31.45, 19.6)" gradientUnits="userSpaceOnUse" id="gradient9" spreadMethod="pad" x1="-819.2" x2="819.2">
      <stop offset="0.0" stop-color="#000000" stop-opacity="0.22352941"/>
      <stop offset="1.0" stop-color="#ffffff"/>
    </linearGradient>
    <linearGradient gradientTransform="matrix(-0.0054, 0.0016, -9.0E-4, -0.0051, 34.2, 15.75)" gradientUnits="userSpaceOnUse" id="gradient10" spreadMethod="pad" x1="-819.2" x2="819.2">
      <stop offset="0.0" stop-color="#afce4d"/>
      <stop offset="1.0" stop-color="#cfe36a" stop-opacity="0.0"/>
    </linearGradient>
    <linearGradient gradientTransform="matrix(-0.0025, -0.0049, 0.115, -0.0947, 20.05, 12.45)" gradientUnits="userSpaceOnUse" id="gradient11" spreadMethod="pad" x1="-819.2" x2="819.2">
      <stop offset="0.0" stop-color="#eaed68"/>
      <stop offset="1.0" stop-color="#e7ed68" stop-opacity="0.0"/>
    </linearGradient>
    <linearGradient gradientTransform="matrix(-3.0E-4, -6.0E-4, 0.004, -0.0033, 19.3, 18.35)" gradientUnits="userSpaceOnUse" id="gradient12" spreadMethod="pad" x1="-819.2" x2="819.2">
      <stop offset="0.0" stop-color="#000000" stop-opacity="0.3019608"/>
      <stop offset="1.0" stop-color="#ffffff"/>
    </linearGradient>
    <linearGradient gradientTransform="matrix(0.0012, 0.004, -0.0026, 0.0016, 16.45, 15.35)" gradientUnits="userSpaceOnUse" id="gradient13" spreadMethod="pad" x1="-819.2" x2="819.2">
      <stop offset="0.0" stop-color="#b8d64a"/>
      <stop offset="1.0" stop-color="#cfe36a" stop-opacity="0.0"/>
    </linearGradient>
    <linearGradient gradientTransform="matrix(-5.0E-4, -0.0016, 0.1047, -0.0672, 50.0, -4.55)" gradientUnits="userSpaceOnUse" id="gradient14" spreadMethod="pad" x1="-819.2" x2="819.2">
      <stop offset="0.0" stop-color="#eaed68"/>
      <stop offset="1.0" stop-color="#e7ed68" stop-opacity="0.0"/>
    </linearGradient>
    <linearGradient gradientTransform="matrix(-2.0E-4, -6.0E-4, 0.0014, -0.001, 24.6, 13.95)" gradientUnits="userSpaceOnUse" id="gradient15" spreadMethod="pad" x1="-819.2" x2="819.2">
      <stop offset="0.0" stop-color="#000000" stop-opacity="0.3019608"/>
      <stop offset="1.0" stop-color="#ffffff"/>
    </linearGradient>
    <linearGradient gradientTransform="matrix(4.0E-4, 0.0014, -8.0E-4, 5.0E-4, 23.9, 12.15)" gradientUnits="userSpaceOnUse" id="gradient16" spreadMethod="pad" x1="-819.2" x2="819.2">
      <stop offset="0.0" stop-color="#b8d64a"/>
      <stop offset="1.0" stop-color="#cfe36a" stop-opacity="0.0"/>
    </linearGradient>
    <linearGradient gradientTransform="matrix(5.0E-4, 0.0021, -0.0022, 9.0E-4, 27.9, 26.05)" gradientUnits="userSpaceOnUse" id="gradient17" spreadMethod="pad" x1="-819.2" x2="819.2">
      <stop offset="0.0" stop-color="#eaed68"/>
      <stop offset="1.0" stop-color="#e7ed68" stop-opacity="0.0"/>
    </linearGradient>
    <linearGradient gradientTransform="matrix(2.0E-4, 5.0E-4, -0.0022, 0.0012, 27.25, 23.9)" gradientUnits="userSpaceOnUse" id="gradient18" spreadMethod="pad" x1="-819.2" x2="819.2">
      <stop offset="0.0" stop-color="#000000" stop-opacity="0.3019608"/>
      <stop offset="1.0" stop-color="#ffffff"/>
    </linearGradient>
    <linearGradient gradientTransform="matrix(2.0E-4, 5.0E-4, -0.0022, 0.0012, 27.25, 23.9)" gradientUnits="userSpaceOnUse" id="gradient19" spreadMethod="pad" x1="-819.2" x2="819.2">
      <stop offset="0.0" stop-color="#000000" stop-opacity="0.3019608"/>
      <stop offset="1.0" stop-color="#ffffff"/>
    </linearGradient>
    <linearGradient gradientTransform="matrix(-8.0E-4, -0.0018, -0.0012, 8.0E-4, 27.3, 25.9)" gradientUnits="userSpaceOnUse" id="gradient20" spreadMethod="pad" x1="-819.2" x2="819.2">
      <stop offset="0.0" stop-color="#b8d64a"/>
      <stop offset="1.0" stop-color="#cfe36a" stop-opacity="0.0"/>
    </linearGradient>
    <linearGradient gradientTransform="matrix(0.0021, -0.0062, 0.0053, 0.0025, 42.3, 13.0)" gradientUnits="userSpaceOnUse" id="gradient21" spreadMethod="pad" x1="-819.2" x2="819.2">
      <stop offset="0.0" stop-color="#eaed68"/>
      <stop offset="1.0" stop-color="#e7ed68" stop-opacity="0.0"/>
    </linearGradient>
    <linearGradient gradientTransform="matrix(3.0E-4, -0.0017, 0.0046, 9.0E-4, 28.55, 11.75)" gradientUnits="userSpaceOnUse" id="gradient22" spreadMethod="pad" x1="-819.2" x2="819.2">
      <stop offset="0.0" stop-color="#000000" stop-opacity="0.3019608"/>
      <stop offset="1.0" stop-color="#ffffff"/>
    </linearGradient>
    <linearGradient gradientTransform="matrix(-0.002, 0.0032, -0.0017, -0.0019, 29.05, 7.0)" gradientUnits="userSpaceOnUse" id="gradient23" spreadMethod="pad" x1="-819.2" x2="819.2">
      <stop offset="0.0" stop-color="#afce4d"/>
      <stop offset="1.0" stop-color="#cfe36a" stop-opacity="0.0"/>
    </linearGradient>
    <linearGradient gradientTransform="matrix(-9.0E-4, -0.0021, 0.0013, -0.0011, 12.05, 23.1)" gradientUnits="userSpaceOnUse" id="gradient24" spreadMethod="pad" x1="-819.2" x2="819.2">
      <stop offset="0.0" stop-color="#dde76a"/>
      <stop offset="1.0" stop-color="#d9e86a" stop-opacity="0.0"/>
    </linearGradient>
    <linearGradient gradientTransform="matrix(-2.0E-4, -4.0E-4, 0.0013, -0.0014, 12.75, 24.75)" gradientUnits="userSpaceOnUse" id="gradient25" spreadMethod="pad" x1="-819.2" x2="819.2">
      <stop offset="0.0" stop-color="#000000" stop-opacity="0.3019608"/>
      <stop offset="1.0" stop-color="#ffffff"/>
    </linearGradient>
    <linearGradient gradientTransform="matrix(4.0E-4, 0.0014, -8.0E-4, 5.0E-4, 11.7, 23.15)" gradientUnits="userSpaceOnUse" id="gradient26" spreadMethod="pad" x1="-819.2" x2="819.2">
      <stop offset="0.0" stop-color="#b8d64a"/>
      <stop offset="1.0" stop-color="#cfe36a" stop-opacity="0.0"/>
    </linearGradient>
    <linearGradient gradientTransform="matrix(0.0012, 8.0E-4, -6.0E-4, 0.0015, 14.3, 27.9)" gradientUnits="userSpaceOnUse" id="gradient27" spreadMethod="pad" x1="-819.2" x2="819.2">
      <stop offset="0.0" stop-color="#d6e56b"/>
      <stop offset="1.0" stop-color="#d4e46c" stop-opacity="0.0"/>
    </linearGradient>
    <linearGradient gradientTransform="matrix(3.0E-4, 3.0E-4, -0.001, 0.0019, 13.1, 28.0)" gradientUnits="userSpaceOnUse" id="gradient28" spreadMethod="pad" x1="-819.2" x2="819.2">
      <stop offset="0.0" stop-color="#000000" stop-opacity="0.3019608"/>
      <stop offset="1.0" stop-color="#ffffff"/>
    </linearGradient>
    <linearGradient gradientTransform="matrix(-9.0E-4, -4.0E-4, 3.0E-4, -9.0E-4, 14.35, 27.6)" gradientUnits="userSpaceOnUse" id="gradient29" spreadMethod="pad" x1="-819.2" x2="819.2">
      <stop offset="0.0" stop-color="#8cc236"/>
      <stop offset="1.0" stop-color="#c3dd6f" stop-opacity="0.0"/>
    </linearGradient>
  </defs>
</svg>
