<?xml version="1.0" encoding="UTF-8" standalone="no"?>
<svg xmlns:xlink="http://www.w3.org/1999/xlink" height="440.0px" width="440.0px" xmlns="http://www.w3.org/2000/svg">
  <g transform="matrix(10.0, 0.0, 0.0, 10.0, 0.0, 0.0)">
    <use height="44.0" transform="matrix(0.9091, 0.0, 0.0, 0.9091, 2.0, 2.0)" width="44.0" xlink:href="#sprite0"/>
  </g>
  <defs>
    <g id="sprite0" transform="matrix(1.0, 0.0, 0.0, 1.0, 0.0, 0.0)">
      <use height="44.0" transform="matrix(1.0, 0.0, 0.0, 1.0, 0.0, 0.0)" width="44.0" xlink:href="#shape0"/>
      <use height="27.6" transform="matrix(-0.0817, -0.0817, 0.0531, -0.0531, 20.8552, 25.6212)" width="14.4" xlink:href="#shape1"/>
      <use height="17.75" transform="matrix(-0.0817, -0.0817, 0.0531, -0.0531, 17.8597, 29.0373)" width="17.1" xlink:href="#shape2"/>
      <use height="17.75" transform="matrix(-0.0817, -0.0817, 0.0531, -0.0531, 18.3597, 28.5373)" width="17.1" xlink:href="#shape2"/>
      <use height="17.75" transform="matrix(-0.0817, -0.0817, 0.0531, -0.0531, 18.8597, 28.0373)" width="17.1" xlink:href="#shape2"/>
      <use height="17.75" transform="matrix(-0.0817, -0.0817, 0.0531, -0.0531, 19.3597, 27.5373)" width="17.1" xlink:href="#shape2"/>
      <use height="17.75" transform="matrix(0.0073, 0.0688, 0.0863, 0.027, 19.2942, 24.4134)" width="17.1" xlink:href="#shape2"/>
      <use height="17.75" transform="matrix(0.0073, 0.0688, 0.0863, 0.027, 19.5942, 24.7134)" width="17.1" xlink:href="#shape2"/>
      <use height="17.75" transform="matrix(0.0073, 0.0688, 0.0863, 0.027, 18.9442, 24.0634)" width="17.1" xlink:href="#shape2"/>
      <use height="17.75" transform="matrix(-0.0817, -0.0817, 0.0531, -0.0531, 19.7097, 26.9873)" width="17.1" xlink:href="#shape2"/>
      <use height="17.75" transform="matrix(-0.0817, -0.0817, 0.0531, -0.0531, 20.2097, 26.4873)" width="17.1" xlink:href="#shape2"/>
      <use height="20.1" transform="matrix(-0.0771, -0.0771, 0.0771, -0.0771, 17.6541, 29.6453)" width="23.95" xlink:href="#shape3"/>
      <use height="27.6" transform="matrix(-0.0817, -0.0817, 0.0531, -0.0531, 15.9552, 30.7212)" width="14.4" xlink:href="#shape1"/>
      <use height="17.75" transform="matrix(-0.0817, -0.0817, 0.0531, -0.0531, 12.7597, 34.0873)" width="17.1" xlink:href="#shape2"/>
      <use height="17.75" transform="matrix(-0.0817, -0.0817, 0.0531, -0.0531, 13.2597, 33.5873)" width="17.1" xlink:href="#shape2"/>
      <use height="17.75" transform="matrix(-0.0817, -0.0817, 0.0531, -0.0531, 13.7597, 33.0873)" width="17.1" xlink:href="#shape2"/>
      <use height="17.75" transform="matrix(-0.0817, -0.0817, 0.0531, -0.0531, 14.2597, 32.5873)" width="17.1" xlink:href="#shape2"/>
      <use height="17.75" transform="matrix(0.0073, 0.0688, 0.0863, 0.027, 14.1942, 29.4634)" width="17.1" xlink:href="#shape2"/>
      <use height="17.75" transform="matrix(0.0073, 0.0688, 0.0863, 0.027, 14.4942, 29.7634)" width="17.1" xlink:href="#shape2"/>
      <use height="17.75" transform="matrix(0.0073, 0.0688, 0.0863, 0.027, 13.8442, 29.1134)" width="17.1" xlink:href="#shape2"/>
      <use height="17.75" transform="matrix(-0.0817, -0.0817, 0.0531, -0.0531, 14.6097, 32.0373)" width="17.1" xlink:href="#shape2"/>
      <use height="17.75" transform="matrix(-0.0817, -0.0817, 0.0531, -0.0531, 15.1097, 31.5373)" width="17.1" xlink:href="#shape2"/>
      <use height="20.1" transform="matrix(-0.0771, -0.0771, 0.0771, -0.0771, 12.6541, 34.6953)" width="23.95" xlink:href="#shape3"/>
      <use height="5.85" transform="matrix(1.0, 0.0, 0.0, 1.0, 13.45, 26.4)" width="5.85" xlink:href="#shape4"/>
      <use height="11.15" transform="matrix(0.1105, 0.1555, -0.2521, 0.1791, 7.7603, 36.0642)" width="17.85" xlink:href="#shape5"/>
      <use height="27.25" transform="matrix(1.0, 0.0, 0.0, 1.0, 4.2, 13.2)" width="27.95" xlink:href="#shape6"/>
      <use height="27.6" transform="matrix(0.0817, 0.0817, -0.0531, 0.0531, 23.0948, 21.0788)" width="14.4" xlink:href="#shape1"/>
      <use height="17.75" transform="matrix(0.0817, 0.0817, -0.0531, 0.0531, 26.1903, 17.6627)" width="17.1" xlink:href="#shape2"/>
      <use height="17.75" transform="matrix(0.0817, 0.0817, -0.0531, 0.0531, 25.6903, 18.1627)" width="17.1" xlink:href="#shape2"/>
      <use height="17.75" transform="matrix(0.0817, 0.0817, -0.0531, 0.0531, 25.1903, 18.6627)" width="17.1" xlink:href="#shape2"/>
      <use height="17.75" transform="matrix(0.0817, 0.0817, -0.0531, 0.0531, 24.6903, 19.1627)" width="17.1" xlink:href="#shape2"/>
      <use height="17.75" transform="matrix(-0.0073, -0.0688, -0.0863, -0.027, 24.7558, 22.2866)" width="17.1" xlink:href="#shape2"/>
      <use height="17.75" transform="matrix(-0.0073, -0.0688, -0.0863, -0.027, 24.4558, 21.9866)" width="17.1" xlink:href="#shape2"/>
      <use height="17.75" transform="matrix(-0.0073, -0.0688, -0.0863, -0.027, 25.1058, 22.6366)" width="17.1" xlink:href="#shape2"/>
      <use height="17.75" transform="matrix(0.0817, 0.0817, -0.0531, 0.0531, 24.3403, 19.7127)" width="17.1" xlink:href="#shape2"/>
      <use height="17.75" transform="matrix(0.0817, 0.0817, -0.0531, 0.0531, 23.8403, 20.2127)" width="17.1" xlink:href="#shape2"/>
      <use height="20.1" transform="matrix(0.0771, 0.0771, -0.0771, 0.0771, 26.2959, 17.1047)" width="23.95" xlink:href="#shape3"/>
      <use height="27.6" transform="matrix(0.0817, 0.0817, -0.0531, 0.0531, 28.1448, 16.0288)" width="14.4" xlink:href="#shape1"/>
      <use height="17.75" transform="matrix(0.0817, 0.0817, -0.0531, 0.0531, 31.1903, 12.6627)" width="17.1" xlink:href="#shape2"/>
      <use height="17.75" transform="matrix(0.0817, 0.0817, -0.0531, 0.0531, 30.6903, 13.1627)" width="17.1" xlink:href="#shape2"/>
      <use height="17.75" transform="matrix(0.0817, 0.0817, -0.0531, 0.0531, 30.1903, 13.6627)" width="17.1" xlink:href="#shape2"/>
      <use height="17.75" transform="matrix(0.0817, 0.0817, -0.0531, 0.0531, 29.6903, 14.1627)" width="17.1" xlink:href="#shape2"/>
      <use height="17.75" transform="matrix(-0.0073, -0.0688, -0.0863, -0.027, 29.7558, 17.2866)" width="17.1" xlink:href="#shape2"/>
      <use height="17.75" transform="matrix(-0.0073, -0.0688, -0.0863, -0.027, 29.4558, 16.9866)" width="17.1" xlink:href="#shape2"/>
      <use height="17.75" transform="matrix(-0.0073, -0.0688, -0.0863, -0.027, 30.1058, 17.6366)" width="17.1" xlink:href="#shape2"/>
      <use height="17.75" transform="matrix(0.0817, 0.0817, -0.0531, 0.0531, 29.3403, 14.7127)" width="17.1" xlink:href="#shape2"/>
      <use height="17.75" transform="matrix(0.0817, 0.0817, -0.0531, 0.0531, 28.8403, 15.2127)" width="17.1" xlink:href="#shape2"/>
      <use height="20.1" transform="matrix(0.0771, 0.0771, -0.0771, 0.0771, 31.2959, 12.1047)" width="23.95" xlink:href="#shape3"/>
      <use height="5.85" transform="matrix(1.0, 0.0, 0.0, 1.0, 24.8, 14.55)" width="5.8" xlink:href="#shape7"/>
      <use height="11.15" transform="matrix(0.1432, 0.2015, -0.3266, 0.2321, 37.8813, 4.9587)" width="17.85" xlink:href="#shape5"/>
      <use height="13.1" transform="matrix(1.0, 0.0, 0.0, 1.0, 29.0, 3.05)" width="11.75" xlink:href="#shape8"/>
    </g>
    <g id="shape0" transform="matrix(1.0, 0.0, 0.0, 1.0, 0.0, 0.0)">
      <path d="M44.0 44.0 L0.0 44.0 0.0 0.0 44.0 0.0 44.0 44.0" fill="#43adca" fill-opacity="0.0" fill-rule="evenodd" stroke="none"/>
      <path d="M21.4 23.15 L22.2 23.95 22.35 23.8 22.2 23.95 21.4 23.15 M22.45 23.8 L22.2 24.05 21.2 23.05 21.45 22.8 21.95 23.3 22.45 23.8" fill="#423737" fill-rule="evenodd" stroke="none"/>
      <path d="M22.6 22.65 L22.95 24.3 22.45 23.8 21.95 23.3 22.6 22.65 M22.85 24.2 L22.55 22.8 22.0 23.35 22.55 22.8 22.85 24.2" fill="#9e8b8b" fill-rule="evenodd" stroke="none"/>
      <path d="M21.45 22.8 L20.95 22.3 22.6 22.65 21.95 23.3 21.45 22.8" fill="#665555" fill-rule="evenodd" stroke="none"/>
      <path d="M22.35 23.8 L22.2 23.95 21.4 23.15" fill="none" stroke="#9e8b8b" stroke-linecap="round" stroke-linejoin="round" stroke-width="0.05"/>
      <path d="M22.6 22.65 L22.95 24.3 22.45 23.8 22.2 24.05 21.2 23.05 21.45 22.8 20.95 22.3 22.6 22.65 21.95 23.3 22.45 23.8 M21.95 23.3 L21.45 22.8" fill="none" stroke="#000000" stroke-linecap="round" stroke-linejoin="round" stroke-opacity="0.2509804" stroke-width="0.05"/>
      <path d="M22.0 23.35 L22.55 22.8 22.85 24.2" fill="none" stroke="#c5baba" stroke-linecap="round" stroke-linejoin="round" stroke-width="0.05"/>
      <path d="M21.7 25.0 L21.85 25.05 19.4 26.85 18.2 26.3 15.45 28.3 17.95 25.8 19.45 25.7 21.7 25.0 M20.7 23.4 L19.4 24.7 18.25 25.2 20.7 23.4" fill="#391515" fill-rule="evenodd" stroke="none"/>
      <path d="M15.45 28.3 L15.0 27.95 16.45 25.9 20.7 23.4 18.25 25.2 19.4 24.7 21.7 25.0 19.45 25.7 17.95 25.8 15.45 28.3" fill="#712929" fill-rule="evenodd" stroke="none"/>
      <path d="M21.7 25.0 L19.45 25.7 17.95 25.8 15.45 28.3 M20.7 23.4 L18.25 25.2 19.4 24.7" fill="none" stroke="#c5baba" stroke-linecap="round" stroke-linejoin="round" stroke-width="0.05"/>
      <path d="M13.45 33.15 L13.5 33.3 15.3 30.85 14.75 29.65 16.75 26.9 14.25 29.4 14.15 30.9 13.45 33.15 M11.85 32.15 L13.15 30.85 13.65 29.7 11.85 32.15" fill="#391515" fill-rule="evenodd" stroke="none"/>
      <path d="M16.75 26.9 L16.4 26.45 14.35 27.9 11.85 32.15 13.65 29.7 13.15 30.85 13.45 33.15 14.15 30.9 14.25 29.4 16.75 26.9" fill="#712929" fill-rule="evenodd" stroke="none"/>
      <path d="M13.45 33.15 L14.15 30.9 14.25 29.4 16.75 26.9 M11.85 32.15 L13.65 29.7 13.15 30.85" fill="none" stroke="#c5baba" stroke-linecap="round" stroke-linejoin="round" stroke-width="0.05"/>
      <path d="M20.4 23.65 L20.35 23.5 18.55 25.95 19.1 27.15 17.1 29.9 19.6 27.4 19.7 25.9 20.4 23.65 M22.0 24.65 L20.7 25.95 20.2 27.1 22.0 24.65" fill="#391515" fill-rule="evenodd" stroke="none"/>
      <path d="M17.1 29.9 L17.45 30.35 19.5 28.9 22.0 24.65 20.2 27.1 20.7 25.95 20.4 23.65 19.7 25.9 19.6 27.4 17.1 29.9" fill="#712929" fill-rule="evenodd" stroke="none"/>
      <path d="M20.4 23.65 L19.7 25.9 19.6 27.4 17.1 29.9 M22.0 24.65 L20.2 27.1 20.7 25.95" fill="none" stroke="#c5baba" stroke-linecap="round" stroke-linejoin="round" stroke-width="0.05"/>
      <path d="M12.2 31.85 L12.05 31.8 14.5 30.0 15.7 30.55 18.45 28.55 15.95 31.05 14.45 31.15 12.2 31.85 M13.2 33.45 L14.5 32.15 15.65 31.65 13.2 33.45" fill="#391515" fill-rule="evenodd" stroke="none"/>
      <path d="M18.45 28.55 L18.9 28.9 17.45 30.95 13.2 33.45 15.65 31.65 14.5 32.15 12.2 31.85 14.45 31.15 15.95 31.05 18.45 28.55" fill="#712929" fill-rule="evenodd" stroke="none"/>
      <path d="M12.2 31.85 L14.45 31.15 15.95 31.05 18.45 28.55 M13.2 33.45 L15.65 31.65 14.5 32.15" fill="none" stroke="#c5baba" stroke-linecap="round" stroke-linejoin="round" stroke-width="0.05"/>
    </g>
    <g id="shape1" transform="matrix(1.0, 0.0, 0.0, 1.0, 7.2, 13.8)">
      <path d="M0.85 13.8 L-0.85 13.8 -7.2 13.8 -7.2 -13.8 0.85 -13.8 0.85 13.8 M-0.85 -11.15 L-0.85 13.8 -0.85 -11.15" fill="#655959" fill-rule="evenodd" stroke="none"/>
      <path d="M0.85 -13.8 L7.2 -13.8 7.2 13.8 0.85 13.8 0.85 -13.8" fill="#2a2323" fill-rule="evenodd" stroke="none"/>
      <path d="M-0.85 13.8 L-0.85 -11.15" fill="none" stroke="#7f7878" stroke-linecap="round" stroke-linejoin="round" stroke-width="0.05"/>
    </g>
    <g id="shape2" transform="matrix(1.0, 0.0, 0.0, 1.0, 8.55, 9.2)">
      <path d="M7.45 -9.2 L7.55 -9.2 7.55 -7.45 Q5.25 -6.35 2.8 -5.5 0.25 -4.65 -1.6 -3.5 1.05 -5.7 4.15 -7.4 L7.45 -9.2 M5.65 -4.4 L6.05 -3.65 Q5.45 -2.85 3.85 -2.15 -0.65 -0.05 -4.2 2.6 L-3.1 0.9 -1.7 -1.0 Q-1.6 -0.75 -1.3 -0.9 2.15 -2.4 5.65 -4.4" fill="#87481c" fill-rule="evenodd" stroke="none"/>
      <path d="M7.55 -7.45 L8.55 -4.45 7.45 -1.7 -7.45 6.35 -7.45 5.0 -3.2 -0.25 -7.45 1.6 -7.45 0.0 5.05 -9.2 7.45 -9.2 4.15 -7.4 Q1.05 -5.7 -1.6 -3.5 0.25 -4.65 2.8 -5.5 5.25 -6.35 7.55 -7.45 M5.65 -4.4 Q2.15 -2.4 -1.3 -0.9 -1.6 -0.75 -1.7 -1.0 L-3.1 0.9 -4.2 2.6 Q-0.65 -0.05 3.85 -2.15 5.45 -2.85 6.05 -3.65 L5.65 -4.4" fill="#5c1e15" fill-rule="evenodd" stroke="none"/>
      <path d="M7.45 -1.7 L-6.45 8.55 -7.45 7.95 -7.45 6.35 7.45 -1.7 M-7.45 5.0 L-8.55 3.65 -7.45 1.6 -3.2 -0.25 -7.45 5.0" fill="#310f0b" fill-rule="evenodd" stroke="none"/>
      <path d="M7.45 -1.7 L-6.45 8.55 M-7.45 0.0 L5.05 -9.2" fill="none" stroke="#000000" stroke-linecap="round" stroke-linejoin="round" stroke-opacity="0.2509804" stroke-width="0.05"/>
    </g>
    <g id="shape3" transform="matrix(1.0, 0.0, 0.0, 1.0, 12.0, 10.0)">
      <path d="M1.35 10.1 L-1.4 10.1 -10.4 10.1 -10.25 8.65 -10.3 8.5 -12.0 8.5 Q-8.9 -0.5 -12.0 -8.25 -10.95 -8.8 -10.4 -10.0 L1.35 -10.0 Q-1.4 0.1 1.35 10.1 M-1.4 -8.1 L-1.4 10.1 -1.4 -8.1" fill="#b66868" fill-rule="evenodd" stroke="none"/>
      <path d="M1.35 -10.0 L10.5 -10.0 Q10.65 -8.95 11.95 -8.55 9.5 -1.7 11.95 5.15 11.55 5.4 11.4 5.9 L10.9 6.1 10.75 6.9 10.6 7.65 10.05 7.9 10.0 8.05 9.6 10.0 9.55 10.1 1.35 10.1 Q-1.4 0.1 1.35 -10.0" fill="#712929" fill-rule="evenodd" stroke="none"/>
      <path d="M-1.4 10.1 L-1.4 -8.1" fill="none" stroke="#d58d8d" stroke-linecap="round" stroke-linejoin="round" stroke-width="0.05"/>
    </g>
    <g id="shape4" transform="matrix(1.0, 0.0, 0.0, 1.0, -13.45, -26.4)">
      <path d="M15.3 26.45 L15.35 26.4 16.2 27.55 15.95 28.15 16.9 29.45 15.65 28.25 15.65 27.55 15.3 26.45 M14.6 26.95 L15.15 27.6 15.45 28.1 14.6 26.95" fill="#391515" fill-rule="evenodd" stroke="none"/>
      <path d="M16.9 29.45 L16.7 29.7 15.75 28.95 14.6 26.95 15.45 28.1 15.15 27.6 15.3 26.45 15.65 27.55 15.65 28.25 16.9 29.45" fill="#712929" fill-rule="evenodd" stroke="none"/>
      <path d="M15.3 26.45 L15.65 27.55 15.65 28.25 16.9 29.45 M14.6 26.95 L15.45 28.1 15.15 27.6" fill="none" stroke="#c5baba" stroke-linecap="round" stroke-linejoin="round" stroke-width="0.05"/>
      <path d="M19.25 30.4 L19.3 30.35 18.15 29.5 17.55 29.75 16.25 28.8 17.45 30.05 18.15 30.05 19.25 30.4 M18.75 31.1 L18.1 30.55 17.6 30.25 18.75 31.1" fill="#391515" fill-rule="evenodd" stroke="none"/>
      <path d="M16.25 28.8 L16.0 29.0 16.75 29.95 18.75 31.1 17.6 30.25 18.1 30.55 19.25 30.4 18.15 30.05 17.45 30.05 16.25 28.8" fill="#712929" fill-rule="evenodd" stroke="none"/>
      <path d="M19.25 30.4 L18.15 30.05 17.45 30.05 16.25 28.8 M18.75 31.1 L17.6 30.25 18.1 30.55" fill="none" stroke="#c5baba" stroke-linecap="round" stroke-linejoin="round" stroke-width="0.05"/>
      <path d="M13.5 28.2 L13.45 28.25 14.6 29.1 15.2 28.85 16.5 29.8 15.3 28.55 14.6 28.55 13.5 28.2 M14.0 27.5 L14.65 28.05 15.15 28.35 14.0 27.5" fill="#391515" fill-rule="evenodd" stroke="none"/>
      <path d="M16.5 29.8 L16.75 29.6 16.0 28.65 14.0 27.5 15.15 28.35 14.65 28.05 13.5 28.2 14.6 28.55 15.3 28.55 16.5 29.8" fill="#712929" fill-rule="evenodd" stroke="none"/>
      <path d="M13.5 28.2 L14.6 28.55 15.3 28.55 16.5 29.8 M14.0 27.5 L15.15 28.35 14.65 28.05" fill="none" stroke="#c5baba" stroke-linecap="round" stroke-linejoin="round" stroke-width="0.05"/>
      <path d="M17.45 32.2 L17.4 32.25 16.55 31.1 16.8 30.5 15.85 29.2 17.1 30.4 17.1 31.1 17.45 32.2 M18.15 31.7 L17.6 31.05 17.3 30.55 18.15 31.7" fill="#391515" fill-rule="evenodd" stroke="none"/>
      <path d="M15.85 29.2 L16.05 28.95 17.0 29.7 18.15 31.7 17.3 30.55 17.6 31.05 17.45 32.2 17.1 31.1 17.1 30.4 15.85 29.2" fill="#712929" fill-rule="evenodd" stroke="none"/>
      <path d="M17.45 32.2 L17.1 31.1 17.1 30.4 15.85 29.2 M18.15 31.7 L17.3 30.55 17.6 31.05" fill="none" stroke="#c5baba" stroke-linecap="round" stroke-linejoin="round" stroke-width="0.05"/>
    </g>
    <g id="shape5" transform="matrix(1.0, 0.0, 0.0, 1.0, 8.95, 5.55)">
      <path d="M3.75 -1.75 L1.65 -2.6 Q-0.35 -3.15 -1.7 -4.0 0.55 -4.95 3.55 -3.95 8.7 -2.25 4.35 0.55 L4.6 0.6 4.1 0.55 Q2.7 0.4 1.7 -0.25 L2.5 -0.85 Q3.3 -1.25 3.75 -1.75 M1.55 3.85 L1.05 3.85 Q-0.05 3.4 0.45 2.65 1.25 2.05 2.45 2.35 L2.85 2.8 Q2.7 3.7 1.55 3.85" fill="#fdfdbd" fill-rule="evenodd" stroke="none"/>
      <path d="M3.75 -1.75 Q3.3 -1.25 2.5 -0.85 L1.7 -0.25 Q2.7 0.4 4.1 0.55 L4.6 0.6 4.35 0.55 Q8.7 -2.25 3.55 -3.95 0.55 -4.95 -1.7 -4.0 -0.35 -3.15 1.65 -2.6 L3.75 -1.75 M6.3 3.95 Q3.7 5.6 0.0 5.6 -3.7 5.6 -6.3 3.95 -8.95 2.3 -8.95 0.0 -8.95 -2.3 -6.3 -3.9 -3.7 -5.55 0.0 -5.55 3.7 -5.55 6.3 -3.9 8.9 -2.3 8.9 0.0 8.9 2.3 6.3 3.95 M1.55 3.85 Q2.7 3.7 2.85 2.8 L2.45 2.35 Q1.25 2.05 0.45 2.65 -0.05 3.4 1.05 3.85 L1.55 3.85" fill="url(#gradient0)" fill-rule="evenodd" stroke="none"/>
      <path d="M6.3 3.95 Q3.7 5.6 0.0 5.6 -3.7 5.6 -6.3 3.95 -8.95 2.3 -8.95 0.0 -8.95 -2.3 -6.3 -3.9 -3.7 -5.55 0.0 -5.55 3.7 -5.55 6.3 -3.9 8.9 -2.3 8.9 0.0 8.9 2.3 6.3 3.95 Z" fill="none" stroke="#a17960" stroke-linecap="round" stroke-linejoin="round" stroke-width="0.05"/>
    </g>
    <radialGradient cx="0" cy="0" gradientTransform="matrix(-0.0179, 0.0, 0.0, -0.0112, 3.45, 2.8)" gradientUnits="userSpaceOnUse" id="gradient0" r="819.2" spreadMethod="pad">
      <stop offset="0.0" stop-color="#d8da87"/>
      <stop offset="0.48627450980392156" stop-color="#b7ad8e"/>
      <stop offset="1.0" stop-color="#af897e"/>
    </radialGradient>
    <g id="shape6" transform="matrix(1.0, 0.0, 0.0, 1.0, -4.2, -13.2)">
      <path d="M9.35 37.85 Q9.25 38.45 8.75 38.8 L7.75 39.05 6.8 38.5 Q6.5 38.05 6.65 37.5 6.75 36.95 7.2 36.55 7.75 36.25 8.25 36.3 L9.15 36.85 Q9.5 37.3 9.35 37.85" fill="url(#gradient1)" fill-rule="evenodd" stroke="none"/>
      <path d="M9.85 36.6 Q9.5 37.8 8.5 38.9 7.45 39.95 6.3 40.3 5.15 40.65 4.6 40.05 4.0 39.5 4.3 38.3 4.6 37.15 5.65 36.1 6.7 35.05 7.8 34.7 9.0 34.35 9.6 34.95 10.15 35.5 9.85 36.6" fill="url(#gradient2)" fill-rule="evenodd" stroke="none"/>
      <path d="M10.35 30.7 L10.35 30.55 11.3 31.9 11.05 32.6 12.15 34.15 10.7 32.75 10.7 31.95 10.35 30.7 M9.4 31.25 L10.15 31.95 10.4 32.55 9.4 31.25" fill="#391515" fill-rule="evenodd" stroke="none"/>
      <path d="M12.15 34.15 L11.9 34.35 10.8 33.55 9.4 31.25 10.4 32.55 10.15 31.95 10.35 30.7 10.7 31.95 10.7 32.75 12.15 34.15" fill="#712929" fill-rule="evenodd" stroke="none"/>
      <path d="M10.35 30.7 L10.7 31.95 10.7 32.75 12.15 34.15 M9.4 31.25 L10.4 32.55 10.15 31.95" fill="none" stroke="#c5baba" stroke-linecap="round" stroke-linejoin="round" stroke-width="0.05"/>
      <path d="M14.9 35.3 L15.05 35.3 13.7 34.35 13.0 34.6 11.45 33.5 12.85 34.95 13.65 34.95 14.9 35.3 M14.35 36.25 L13.65 35.5 13.05 35.25 14.35 36.25" fill="#391515" fill-rule="evenodd" stroke="none"/>
      <path d="M11.45 33.5 L11.25 33.75 12.05 34.85 14.35 36.25 13.05 35.25 13.65 35.5 14.9 35.3 13.65 34.95 12.85 34.95 11.45 33.5" fill="#712929" fill-rule="evenodd" stroke="none"/>
      <path d="M14.9 35.3 L13.65 34.95 12.85 34.95 11.45 33.5 M14.35 36.25 L13.05 35.25 13.65 35.5" fill="none" stroke="#c5baba" stroke-linecap="round" stroke-linejoin="round" stroke-width="0.05"/>
      <path d="M11.1 31.4 L11.1 31.25 11.8 32.25 11.6 32.75 12.4 33.8 11.35 32.8 11.35 32.25 11.1 31.4 M10.45 31.75 L11.0 32.25 11.15 32.7 10.45 31.75" fill="#391515" fill-rule="evenodd" stroke="none"/>
      <path d="M12.4 33.8 L12.25 33.95 11.45 33.4 10.45 31.75 11.15 32.7 11.0 32.25 11.1 31.4 11.35 32.25 11.35 32.8 12.4 33.8" fill="#712929" fill-rule="evenodd" stroke="none"/>
      <path d="M11.1 31.4 L11.35 32.25 11.35 32.8 12.4 33.8 M10.45 31.75 L11.15 32.7 11.0 32.25" fill="none" stroke="#c5baba" stroke-linecap="round" stroke-linejoin="round" stroke-width="0.05"/>
      <path d="M14.25 34.55 L14.4 34.55 13.4 33.85 12.9 34.05 11.85 33.25 12.85 34.3 13.4 34.3 14.25 34.55 M13.9 35.2 L13.4 34.65 12.95 34.5 13.9 35.2" fill="#391515" fill-rule="evenodd" stroke="none"/>
      <path d="M11.85 33.25 L11.7 33.4 12.25 34.2 13.9 35.2 12.95 34.5 13.4 34.65 14.25 34.55 13.4 34.3 12.85 34.3 11.85 33.25" fill="#712929" fill-rule="evenodd" stroke="none"/>
      <path d="M14.25 34.55 L13.4 34.3 12.85 34.3 11.85 33.25 M13.9 35.2 L12.95 34.5 13.4 34.65" fill="none" stroke="#c5baba" stroke-linecap="round" stroke-linejoin="round" stroke-width="0.05"/>
      <path d="M11.45 33.4 L12.05 33.6 12.25 34.2 12.05 34.8 11.45 35.0 10.9 34.75 10.65 34.2 Q10.7 33.85 10.9 33.65 11.15 33.4 11.45 33.4" fill="url(#gradient3)" fill-rule="evenodd" stroke="none"/>
      <path d="M11.45 33.4 L12.05 33.6 12.25 34.2 12.05 34.8 11.45 35.0 10.9 34.75 10.65 34.2 Q10.7 33.85 10.9 33.65 11.15 33.4 11.45 33.4 Z" fill="none" stroke="#c5baba" stroke-linecap="round" stroke-linejoin="round" stroke-width="0.05"/>
      <path d="M13.05 34.75 L13.2 34.75 11.85 35.7 11.15 35.45 9.6 36.55 11.0 35.1 11.8 35.1 13.05 34.75 M12.5 33.8 L11.8 34.55 11.2 34.8 12.5 33.8" fill="#391515" fill-rule="evenodd" stroke="none"/>
      <path d="M9.6 36.55 L9.4 36.3 10.2 35.2 12.5 33.8 11.2 34.8 11.8 34.55 13.05 34.75 11.8 35.1 11.0 35.1 9.6 36.55" fill="#712929" fill-rule="evenodd" stroke="none"/>
      <path d="M13.05 34.75 L11.8 35.1 11.0 35.1 9.6 36.55 M12.5 33.8 L11.2 34.8 11.8 34.55" fill="none" stroke="#c5baba" stroke-linecap="round" stroke-linejoin="round" stroke-width="0.05"/>
      <path d="M8.5 39.25 L8.5 39.4 9.45 38.05 9.2 37.35 10.3 35.8 8.85 37.2 8.85 38.0 8.5 39.25 M7.55 38.7 L8.3 38.0 8.55 37.4 7.55 38.7" fill="#391515" fill-rule="evenodd" stroke="none"/>
      <path d="M10.3 35.8 L10.05 35.6 8.95 36.4 7.55 38.7 8.55 37.4 8.3 38.0 8.5 39.25 8.85 38.0 8.85 37.2 10.3 35.8" fill="#712929" fill-rule="evenodd" stroke="none"/>
      <path d="M8.5 39.25 L8.85 38.0 8.85 37.2 10.3 35.8 M7.55 38.7 L8.55 37.4 8.3 38.0" fill="none" stroke="#c5baba" stroke-linecap="round" stroke-linejoin="round" stroke-width="0.05"/>
      <path d="M10.95 32.6 L10.95 32.45 10.0 33.8 10.25 34.5 9.15 36.05 10.6 34.65 10.6 33.85 10.95 32.6 M11.9 33.15 L11.15 33.85 10.9 34.45 11.9 33.15" fill="#391515" fill-rule="evenodd" stroke="none"/>
      <path d="M9.15 36.05 L9.4 36.25 10.5 35.45 11.9 33.15 10.9 34.45 11.15 33.85 10.95 32.6 10.6 33.85 10.6 34.65 9.15 36.05" fill="#712929" fill-rule="evenodd" stroke="none"/>
      <path d="M10.95 32.6 L10.6 33.85 10.6 34.65 9.15 36.05 M11.9 33.15 L10.9 34.45 11.15 33.85" fill="none" stroke="#c5baba" stroke-linecap="round" stroke-linejoin="round" stroke-width="0.05"/>
      <path d="M6.4 37.2 L6.25 37.2 7.6 36.25 8.3 36.5 9.85 35.4 8.45 36.85 7.65 36.85 6.4 37.2 M6.95 38.15 L7.65 37.4 8.25 37.15 6.95 38.15" fill="#391515" fill-rule="evenodd" stroke="none"/>
      <path d="M9.85 35.4 L10.05 35.65 9.25 36.75 Q8.1 37.4 6.95 38.15 L8.25 37.15 7.65 37.4 6.4 37.2 7.65 36.85 8.45 36.85 9.85 35.4" fill="#712929" fill-rule="evenodd" stroke="none"/>
      <path d="M6.4 37.2 L7.65 36.85 8.45 36.85 9.85 35.4 M6.95 38.15 L8.25 37.15 7.65 37.4" fill="none" stroke="#c5baba" stroke-linecap="round" stroke-linejoin="round" stroke-width="0.05"/>
      <path d="M22.5 23.5 L21.7 22.7 21.55 22.85 21.7 22.7 22.5 23.5 M21.45 22.85 L21.7 22.6 22.7 23.6 22.45 23.85 21.95 23.35 21.45 22.85" fill="#423737" fill-rule="evenodd" stroke="none"/>
      <path d="M21.3 24.0 L20.95 22.35 21.45 22.85 21.95 23.35 21.3 24.0 M21.05 22.45 L21.35 23.85 21.9 23.3 21.35 23.85 21.05 22.45" fill="#9e8b8b" fill-rule="evenodd" stroke="none"/>
      <path d="M22.45 23.85 L22.95 24.35 21.3 24.0 21.95 23.35 22.45 23.85" fill="#665555" fill-rule="evenodd" stroke="none"/>
      <path d="M21.55 22.85 L21.7 22.7 22.5 23.5" fill="none" stroke="#9e8b8b" stroke-linecap="round" stroke-linejoin="round" stroke-width="0.05"/>
      <path d="M21.3 24.0 L20.95 22.35 21.45 22.85 21.7 22.6 22.7 23.6 22.45 23.85 22.95 24.35 21.3 24.0 21.95 23.35 21.45 22.85 M21.95 23.35 L22.45 23.85" fill="none" stroke="#000000" stroke-linecap="round" stroke-linejoin="round" stroke-opacity="0.2509804" stroke-width="0.05"/>
      <path d="M21.9 23.3 L21.35 23.85 21.05 22.45" fill="none" stroke="#c5baba" stroke-linecap="round" stroke-linejoin="round" stroke-width="0.05"/>
      <path d="M22.3 21.8 L22.15 21.75 24.6 19.95 25.8 20.5 28.55 18.5 26.05 21.0 24.55 21.1 22.3 21.8 M23.3 23.4 L24.6 22.1 25.75 21.6 23.3 23.4" fill="#391515" fill-rule="evenodd" stroke="none"/>
      <path d="M28.55 18.5 L29.0 18.85 27.55 20.9 23.3 23.4 25.75 21.6 24.6 22.1 22.3 21.8 24.55 21.1 26.05 21.0 28.55 18.5" fill="#712929" fill-rule="evenodd" stroke="none"/>
      <path d="M22.3 21.8 L24.55 21.1 26.05 21.0 28.55 18.5 M23.3 23.4 L25.75 21.6 24.6 22.1" fill="none" stroke="#c5baba" stroke-linecap="round" stroke-linejoin="round" stroke-width="0.05"/>
      <path d="M30.55 13.55 L30.5 13.4 28.7 15.85 29.25 17.05 27.25 19.8 29.75 17.3 29.85 15.8 30.55 13.55 M32.15 14.55 L30.85 15.85 30.35 17.0 32.15 14.55" fill="#391515" fill-rule="evenodd" stroke="none"/>
      <path d="M27.25 19.8 L27.6 20.25 29.65 18.8 32.15 14.55 30.35 17.0 30.85 15.85 30.55 13.55 29.85 15.8 29.75 17.3 27.25 19.8" fill="#712929" fill-rule="evenodd" stroke="none"/>
      <path d="M30.55 13.55 L29.85 15.8 29.75 17.3 27.25 19.8 M32.15 14.55 L30.35 17.0 30.85 15.85" fill="none" stroke="#c5baba" stroke-linecap="round" stroke-linejoin="round" stroke-width="0.05"/>
      <path d="M23.55 23.1 L23.6 23.25 25.4 20.8 24.85 19.6 26.85 16.85 24.35 19.35 24.25 20.85 23.55 23.1 M21.95 22.1 L23.25 20.8 23.75 19.65 21.95 22.1" fill="#391515" fill-rule="evenodd" stroke="none"/>
      <path d="M26.85 16.85 L26.5 16.4 24.45 17.85 21.95 22.1 23.75 19.65 23.25 20.8 23.55 23.1 24.25 20.85 24.35 19.35 26.85 16.85" fill="#712929" fill-rule="evenodd" stroke="none"/>
      <path d="M23.55 23.1 L24.25 20.85 24.35 19.35 26.85 16.85 M21.95 22.1 L23.75 19.65 23.25 20.8" fill="none" stroke="#c5baba" stroke-linecap="round" stroke-linejoin="round" stroke-width="0.05"/>
      <path d="M31.85 14.8 L32.0 14.85 29.55 16.65 28.35 16.1 25.6 18.1 28.1 15.6 29.6 15.5 31.85 14.8 M30.85 13.2 L29.55 14.5 28.4 15.0 30.85 13.2" fill="#391515" fill-rule="evenodd" stroke="none"/>
      <path d="M25.6 18.1 L25.15 17.75 26.6 15.7 30.85 13.2 28.4 15.0 29.55 14.5 31.85 14.8 29.6 15.5 28.1 15.6 25.6 18.1" fill="#712929" fill-rule="evenodd" stroke="none"/>
      <path d="M31.85 14.8 L29.6 15.5 28.1 15.6 25.6 18.1 M30.85 13.2 L28.4 15.0 29.55 14.5" fill="none" stroke="#c5baba" stroke-linecap="round" stroke-linejoin="round" stroke-width="0.05"/>
    </g>
    <radialGradient cx="0" cy="0" gradientTransform="matrix(0.001, 0.0014, -0.0015, 0.001, 8.0, 37.7)" gradientUnits="userSpaceOnUse" id="gradient1" r="819.2" spreadMethod="pad">
      <stop offset="0.0" stop-color="#ffffff"/>
      <stop offset="0.24313725490196078" stop-color="#ffffff"/>
      <stop offset="0.26666666666666666" stop-color="#ffffff" stop-opacity="0.56078434"/>
      <stop offset="0.9333333333333333" stop-color="#ffffff" stop-opacity="0.0"/>
    </radialGradient>
    <radialGradient cx="0" cy="0" gradientTransform="matrix(0.0039, -0.004, 0.0022, 0.0022, 7.1, 37.5)" gradientUnits="userSpaceOnUse" id="gradient2" r="819.2" spreadMethod="pad">
      <stop offset="0.0" stop-color="#ffffde" stop-opacity="0.52156866"/>
      <stop offset="0.4117647058823529" stop-color="#ffffcc" stop-opacity="0.0"/>
    </radialGradient>
    <radialGradient cx="0" cy="0" gradientTransform="matrix(-0.0011, -0.0011, 0.0011, -0.0011, 11.1, 34.35)" gradientUnits="userSpaceOnUse" id="gradient3" r="819.2" spreadMethod="pad">
      <stop offset="0.0" stop-color="#b4a69a"/>
      <stop offset="0.4627450980392157" stop-color="#dbe7db"/>
      <stop offset="1.0" stop-color="#b7aca0"/>
    </radialGradient>
    <g id="shape7" transform="matrix(1.0, 0.0, 0.0, 1.0, -24.8, -14.55)">
      <path d="M28.7 20.35 L28.65 20.4 27.8 19.25 28.05 18.65 27.1 17.35 28.35 18.55 28.35 19.25 28.7 20.35 M29.4 19.85 L28.85 19.2 28.55 18.7 29.4 19.85" fill="#391515" fill-rule="evenodd" stroke="none"/>
      <path d="M27.1 17.35 L27.3 17.1 28.25 17.85 29.4 19.85 28.55 18.7 28.85 19.2 28.7 20.35 28.35 19.25 28.35 18.55 27.1 17.35" fill="#712929" fill-rule="evenodd" stroke="none"/>
      <path d="M28.7 20.35 L28.35 19.25 28.35 18.55 27.1 17.35 M29.4 19.85 L28.55 18.7 28.85 19.2" fill="none" stroke="#c5baba" stroke-linecap="round" stroke-linejoin="round" stroke-width="0.05"/>
      <path d="M24.85 16.4 L24.8 16.45 25.95 17.3 26.55 17.05 27.85 18.0 26.65 16.75 25.95 16.75 24.85 16.4 M25.35 15.7 L26.0 16.25 26.5 16.55 25.35 15.7" fill="#391515" fill-rule="evenodd" stroke="none"/>
      <path d="M27.85 18.0 L28.1 17.8 27.35 16.85 25.35 15.7 26.5 16.55 26.0 16.25 24.85 16.4 25.95 16.75 26.65 16.75 27.85 18.0" fill="#712929" fill-rule="evenodd" stroke="none"/>
      <path d="M24.85 16.4 L25.95 16.75 26.65 16.75 27.85 18.0 M25.35 15.7 L26.5 16.55 26.0 16.25" fill="none" stroke="#c5baba" stroke-linecap="round" stroke-linejoin="round" stroke-width="0.05"/>
      <path d="M30.55 18.55 L30.6 18.5 29.45 17.65 28.85 17.9 27.55 16.95 28.75 18.2 29.45 18.2 30.55 18.55 M30.05 19.25 L29.4 18.7 28.9 18.4 30.05 19.25" fill="#391515" fill-rule="evenodd" stroke="none"/>
      <path d="M27.55 16.95 L27.3 17.15 28.05 18.1 30.05 19.25 28.9 18.4 29.4 18.7 30.55 18.55 29.45 18.2 28.75 18.2 27.55 16.95" fill="#712929" fill-rule="evenodd" stroke="none"/>
      <path d="M30.55 18.55 L29.45 18.2 28.75 18.2 27.55 16.95 M30.05 19.25 L28.9 18.4 29.4 18.7" fill="none" stroke="#c5baba" stroke-linecap="round" stroke-linejoin="round" stroke-width="0.05"/>
      <path d="M26.55 14.6 L26.6 14.55 27.45 15.7 27.2 16.3 28.15 17.6 26.9 16.4 26.9 15.7 26.55 14.6 M25.85 15.1 L26.4 15.75 26.7 16.25 25.85 15.1" fill="#391515" fill-rule="evenodd" stroke="none"/>
      <path d="M28.15 17.6 L27.95 17.85 27.0 17.1 25.85 15.1 26.7 16.25 26.4 15.75 26.55 14.6 26.9 15.7 26.9 16.4 28.15 17.6" fill="#712929" fill-rule="evenodd" stroke="none"/>
      <path d="M26.55 14.6 L26.9 15.7 26.9 16.4 28.15 17.6 M25.85 15.1 L26.7 16.25 26.4 15.75" fill="none" stroke="#c5baba" stroke-linecap="round" stroke-linejoin="round" stroke-width="0.05"/>
    </g>
    <g id="shape8" transform="matrix(1.0, 0.0, 0.0, 1.0, -29.0, -3.05)">
      <path d="M40.05 7.35 Q39.9 8.1 39.25 8.55 38.65 9.0 37.9 8.85 37.15 8.75 36.75 8.2 36.3 7.6 36.5 6.85 36.6 6.15 37.25 5.7 37.95 5.25 38.65 5.3 39.35 5.45 39.8 6.0 40.2 6.65 40.05 7.35" fill="url(#gradient4)" fill-rule="evenodd" stroke="none"/>
      <path d="M40.6 5.75 Q40.15 7.2 38.8 8.6 37.5 10.0 36.0 10.45 34.55 10.9 33.75 10.15 33.0 9.35 33.4 7.9 33.85 6.45 35.2 5.0 36.5 3.65 37.95 3.2 39.45 2.8 40.25 3.55 41.0 4.25 40.6 5.75" fill="url(#gradient5)" fill-rule="evenodd" stroke="none"/>
      <path d="M33.65 16.0 L33.65 16.15 32.7 14.8 32.95 14.1 31.85 12.55 33.3 13.95 33.3 14.75 33.65 16.0 M34.6 15.45 L33.85 14.75 33.6 14.15 34.6 15.45" fill="#391515" fill-rule="evenodd" stroke="none"/>
      <path d="M31.85 12.55 L32.1 12.35 33.2 13.15 34.6 15.45 33.6 14.15 33.85 14.75 33.65 16.0 33.3 14.75 33.3 13.95 31.85 12.55" fill="#712929" fill-rule="evenodd" stroke="none"/>
      <path d="M33.65 16.0 L33.3 14.75 33.3 13.95 31.85 12.55 M34.6 15.45 L33.6 14.15 33.85 14.75" fill="none" stroke="#c5baba" stroke-linecap="round" stroke-linejoin="round" stroke-width="0.05"/>
      <path d="M29.15 11.5 L29.0 11.5 30.35 12.45 31.05 12.2 32.6 13.3 31.2 11.85 30.4 11.85 29.15 11.5 M29.7 10.55 L30.4 11.3 31.0 11.55 29.7 10.55" fill="#391515" fill-rule="evenodd" stroke="none"/>
      <path d="M32.6 13.3 L32.8 13.05 32.0 11.95 29.7 10.55 31.0 11.55 30.4 11.3 29.15 11.5 30.4 11.85 31.2 11.85 32.6 13.3" fill="#712929" fill-rule="evenodd" stroke="none"/>
      <path d="M29.15 11.5 L30.4 11.85 31.2 11.85 32.6 13.3 M29.7 10.55 L31.0 11.55 30.4 11.3" fill="none" stroke="#c5baba" stroke-linecap="round" stroke-linejoin="round" stroke-width="0.05"/>
      <path d="M32.95 15.35 L32.95 15.5 32.25 14.5 32.45 14.0 31.65 12.95 32.7 13.95 32.7 14.5 32.95 15.35 M33.6 15.0 L33.05 14.5 32.9 14.05 33.6 15.0" fill="#391515" fill-rule="evenodd" stroke="none"/>
      <path d="M31.65 12.95 L31.8 12.8 32.6 13.35 33.6 15.0 32.9 14.05 33.05 14.5 32.95 15.35 32.7 14.5 32.7 13.95 31.65 12.95" fill="#712929" fill-rule="evenodd" stroke="none"/>
      <path d="M32.95 15.35 L32.7 14.5 32.7 13.95 31.65 12.95 M33.6 15.0 L32.9 14.05 33.05 14.5" fill="none" stroke="#c5baba" stroke-linecap="round" stroke-linejoin="round" stroke-width="0.05"/>
      <path d="M29.75 12.15 L29.6 12.15 30.6 12.85 31.1 12.65 32.15 13.45 31.15 12.4 30.6 12.4 29.75 12.15 M30.1 11.5 L30.6 12.05 31.05 12.2 30.1 11.5" fill="#391515" fill-rule="evenodd" stroke="none"/>
      <path d="M32.15 13.45 L32.3 13.3 31.75 12.5 30.1 11.5 31.05 12.2 30.6 12.05 29.75 12.15 30.6 12.4 31.15 12.4 32.15 13.45" fill="#712929" fill-rule="evenodd" stroke="none"/>
      <path d="M29.75 12.15 L30.6 12.4 31.15 12.4 32.15 13.45 M30.1 11.5 L31.05 12.2 30.6 12.05" fill="none" stroke="#c5baba" stroke-linecap="round" stroke-linejoin="round" stroke-width="0.05"/>
      <path d="M32.6 13.35 L32.0 13.15 Q31.75 12.9 31.8 12.55 31.75 12.2 32.0 11.95 L32.6 11.75 Q32.9 11.75 33.15 12.0 L33.4 12.55 33.15 13.1 32.6 13.35" fill="url(#gradient6)" fill-rule="evenodd" stroke="none"/>
      <path d="M32.6 13.35 L32.0 13.15 Q31.75 12.9 31.8 12.55 31.75 12.2 32.0 11.95 L32.6 11.75 Q32.9 11.75 33.15 12.0 L33.4 12.55 33.15 13.1 32.6 13.35 Z" fill="none" stroke="#c5baba" stroke-linecap="round" stroke-linejoin="round" stroke-width="0.05"/>
      <path d="M31.0 12.05 L30.85 12.05 32.2 11.1 32.9 11.35 34.45 10.25 33.05 11.7 32.25 11.7 31.0 12.05 M31.55 13.0 L32.25 12.25 32.85 12.0 31.55 13.0" fill="#391515" fill-rule="evenodd" stroke="none"/>
      <path d="M34.45 10.25 L34.65 10.5 33.85 11.6 31.55 13.0 32.85 12.0 32.25 12.25 31.0 12.05 32.25 11.7 33.05 11.7 34.45 10.25" fill="#712929" fill-rule="evenodd" stroke="none"/>
      <path d="M31.0 12.05 L32.25 11.7 33.05 11.7 34.45 10.25 M31.55 13.0 L32.85 12.0 32.25 12.25" fill="none" stroke="#c5baba" stroke-linecap="round" stroke-linejoin="round" stroke-width="0.05"/>
      <path d="M35.5 7.5 L35.5 7.35 34.55 8.7 34.8 9.4 33.7 10.95 35.15 9.55 35.15 8.75 35.5 7.5 M36.45 8.05 L35.7 8.75 35.45 9.35 36.45 8.05" fill="#391515" fill-rule="evenodd" stroke="none"/>
      <path d="M33.7 10.95 L33.95 11.15 35.05 10.35 36.45 8.05 35.45 9.35 35.7 8.75 35.5 7.5 35.15 8.75 35.15 9.55 33.7 10.95" fill="#712929" fill-rule="evenodd" stroke="none"/>
      <path d="M35.5 7.5 L35.15 8.75 35.15 9.55 33.7 10.95 M36.45 8.05 L35.45 9.35 35.7 8.75" fill="none" stroke="#c5baba" stroke-linecap="round" stroke-linejoin="round" stroke-width="0.05"/>
      <path d="M33.1 14.15 L33.1 14.3 34.05 12.95 33.8 12.25 34.9 10.7 33.45 12.1 33.45 12.9 33.1 14.15 M32.15 13.6 L32.9 12.9 33.15 12.3 32.15 13.6" fill="#391515" fill-rule="evenodd" stroke="none"/>
      <path d="M34.9 10.7 L34.65 10.5 33.55 11.3 32.15 13.6 33.15 12.3 32.9 12.9 33.1 14.15 33.45 12.9 33.45 12.1 34.9 10.7" fill="#712929" fill-rule="evenodd" stroke="none"/>
      <path d="M33.1 14.15 L33.45 12.9 33.45 12.1 34.9 10.7 M32.15 13.6 L33.15 12.3 32.9 12.9" fill="none" stroke="#c5baba" stroke-linecap="round" stroke-linejoin="round" stroke-width="0.05"/>
      <path d="M37.6 9.55 L37.75 9.55 36.4 10.5 35.7 10.25 34.15 11.35 35.55 9.9 36.35 9.9 37.6 9.55 M37.05 8.6 L36.35 9.35 35.75 9.6 37.05 8.6" fill="#391515" fill-rule="evenodd" stroke="none"/>
      <path d="M34.15 11.35 L33.95 11.1 34.75 10.0 37.05 8.6 35.75 9.6 36.35 9.35 37.6 9.55 36.35 9.9 35.55 9.9 34.15 11.35" fill="#712929" fill-rule="evenodd" stroke="none"/>
      <path d="M37.6 9.55 L36.35 9.9 35.55 9.9 34.15 11.35 M37.05 8.6 L35.75 9.6 36.35 9.35" fill="none" stroke="#c5baba" stroke-linecap="round" stroke-linejoin="round" stroke-width="0.05"/>
    </g>
    <radialGradient cx="0" cy="0" gradientTransform="matrix(0.0013, 0.0018, -0.0019, 0.0014, 38.3, 7.15)" gradientUnits="userSpaceOnUse" id="gradient4" r="819.2" spreadMethod="pad">
      <stop offset="0.0" stop-color="#ffffff"/>
      <stop offset="0.24313725490196078" stop-color="#ffffff"/>
      <stop offset="0.26666666666666666" stop-color="#ffffff" stop-opacity="0.56078434"/>
      <stop offset="0.9333333333333333" stop-color="#ffffff" stop-opacity="0.0"/>
    </radialGradient>
    <radialGradient cx="0" cy="0" gradientTransform="matrix(0.0051, -0.0052, 0.0029, 0.0028, 37.0, 6.85)" gradientUnits="userSpaceOnUse" id="gradient5" r="819.2" spreadMethod="pad">
      <stop offset="0.0" stop-color="#ffffde" stop-opacity="0.52156866"/>
      <stop offset="0.4117647058823529" stop-color="#ffffcc" stop-opacity="0.0"/>
    </radialGradient>
    <radialGradient cx="0" cy="0" gradientTransform="matrix(0.0011, 0.0011, -0.0011, 0.0011, 32.95, 12.4)" gradientUnits="userSpaceOnUse" id="gradient6" r="819.2" spreadMethod="pad">
      <stop offset="0.0" stop-color="#b4a69a"/>
      <stop offset="0.4627450980392157" stop-color="#dbe7db"/>
      <stop offset="1.0" stop-color="#b7aca0"/>
    </radialGradient>
  </defs>
</svg>
