<?xml version="1.0" encoding="UTF-8" standalone="no"?>
<svg xmlns:xlink="http://www.w3.org/1999/xlink" height="440.0px" width="440.0px" xmlns="http://www.w3.org/2000/svg">
  <g transform="matrix(10.0, 0.0, 0.0, 10.0, 0.0, 0.0)">
    <use height="44.0" transform="matrix(1.0, 0.0, 0.0, 1.0, 0.0, 0.0)" width="44.0" xlink:href="#shape0"/>
  </g>
  <defs>
    <g id="shape0" transform="matrix(1.0, 0.0, 0.0, 1.0, 0.0, 0.0)">
      <path d="M44.0 44.0 L0.0 44.0 0.0 0.0 44.0 0.0 44.0 44.0" fill="#43adca" fill-opacity="0.0" fill-rule="evenodd" stroke="none"/>
      <path d="M40.65 3.45 L41.4 2.95 40.65 3.45 39.2 2.95 38.15 3.3 Q37.95 1.55 40.95 2.55 37.95 1.55 38.15 3.3 L38.25 3.65 38.45 4.0 37.65 4.2 38.45 4.0 Q39.0 4.85 39.85 4.9 L41.1 4.5 Q41.65 3.95 40.65 3.45 M40.0 5.85 L39.85 4.9 40.0 5.85 38.65 5.5 Q37.95 5.1 37.65 4.2 L37.35 2.65 37.35 2.6 Q37.6 1.95 38.4 1.65 40.05 1.8 40.95 2.55 L41.4 2.95 Q41.9 3.65 42.05 4.6 42.1 5.3 41.4 5.65 L41.3 5.7 41.2 5.7 40.0 5.85 M39.6 2.8 L39.2 2.95 39.6 2.8" fill="#c6ad8c" fill-rule="evenodd" stroke="none"/>
      <path d="M17.6 24.85 L17.25 25.2 17.15 25.15 17.15 25.3 Q16.35 24.45 16.1 23.85 L16.75 23.2 17.0 24.05 17.05 24.1 17.6 24.85" fill="#604d2d" fill-rule="evenodd" stroke="none"/>
      <path d="M41.2 5.7 L41.3 5.7 41.2 5.75 41.2 5.7 M37.65 4.2 Q37.95 5.1 38.65 5.5 L17.75 25.0 17.65 24.85 17.6 24.85 17.05 24.1 17.0 24.05 20.8 20.45 20.95 20.3 20.9 20.3 27.3 14.0 37.65 4.2 M29.1 13.85 L27.8 15.1 Q27.3 14.8 27.3 14.0 27.3 14.8 27.8 15.1 L29.1 13.85 M27.8 15.1 L17.6 24.85 27.8 15.1" fill="#84693e" fill-rule="evenodd" stroke="none"/>
      <path d="M6.25 32.75 L6.7 32.3 Q6.7 33.05 6.85 33.65 7.15 34.9 8.05 35.45 L8.55 35.7 7.9 36.35 7.35 36.15 8.05 35.45 7.35 36.15 Q6.35 35.6 6.15 34.35 6.05 33.65 6.25 32.75 M10.45 28.4 L11.15 27.65 Q10.85 28.65 10.9 29.45 11.0 30.7 12.15 31.4 L11.45 32.05 12.15 31.4 12.7 31.6 12.0 32.3 11.45 32.05 Q10.45 31.4 10.3 30.05 L10.9 29.45 10.3 30.05 10.45 28.4 M17.25 25.2 L18.5 25.9 18.65 25.95 18.95 26.0 Q19.4 26.4 18.75 26.6 18.3 26.7 17.35 26.25 L15.4 28.1 Q15.15 28.35 15.2 28.55 L15.05 28.45 14.1 27.75 Q13.65 27.2 13.4 26.45 13.8 24.9 15.3 24.65 L16.15 25.55 16.15 25.5 16.2 25.65 16.2 25.4 16.25 25.4 16.3 25.5 17.15 25.3 17.15 25.15 17.25 25.2 M15.5 28.65 L15.7 28.75 15.65 28.7 15.5 28.65 M16.1 25.6 L14.75 26.0 15.95 25.75 16.1 25.6 M16.3 25.5 L16.25 25.4 16.3 25.5" fill="#b33e2d" fill-rule="evenodd" stroke="none"/>
      <path d="M18.5 25.9 L19.8 24.8 Q20.0 25.4 19.7 25.75 19.45 26.05 18.95 26.0 L18.65 25.95 18.5 25.9 M16.1 23.85 L16.05 23.85 Q15.75 23.1 16.05 22.75 16.4 22.35 17.15 22.5 L17.35 22.55 16.75 23.2 16.1 23.85" fill="#4a1b13" fill-rule="evenodd" stroke="none"/>
      <path d="M4.3 39.95 L4.2 39.9 3.7 39.6 3.65 39.55 3.9 38.75 3.8 38.7 3.1 37.75 3.1 37.3 4.05 36.8 4.45 37.65 4.8 38.05 5.2 38.8 4.8 39.3 4.3 39.95 M16.15 25.5 L15.95 25.1 16.25 25.4 16.2 25.4 16.15 25.5 M13.9 31.9 L13.2 32.6 12.0 32.3 12.7 31.6 13.9 31.9 M9.85 36.0 L9.3 36.55 8.7 36.5 7.9 36.35 8.55 35.7 9.85 36.0 M15.2 28.55 L15.5 28.65 15.35 28.65 15.2 28.55 M16.1 25.6 L15.95 25.75 14.75 26.0 16.1 25.6 M3.9 38.75 L4.8 39.3 3.9 38.75 M3.8 38.7 L3.1 37.3 3.8 38.7" fill="#8b3023" fill-rule="evenodd" stroke="none"/>
      <path d="M17.15 28.9 L17.05 29.35 17.6 29.6 Q18.1 29.8 18.5 30.15 L19.2 30.7 19.85 31.65 19.9 31.7 19.95 31.85 20.1 32.2 19.8 31.95 19.7 32.45 19.5 31.95 18.95 32.25 19.3 31.65 19.1 31.3 18.6 30.55 17.75 29.95 16.95 29.65 16.85 30.9 16.55 30.55 16.65 29.6 16.35 29.7 16.25 29.55 16.1 29.35 16.15 29.3 16.1 29.3 16.0 29.3 15.65 28.85 16.0 29.3 15.2 29.1 Q15.6 29.05 15.65 28.85 L15.65 28.7 15.7 28.75 16.45 28.9 16.95 28.95 17.0 28.95 17.15 28.9 M14.6 37.05 L14.9 37.15 Q16.55 37.6 17.65 38.55 L18.4 39.3 18.6 39.65 Q19.0 40.4 18.85 40.8 L18.65 41.1 18.3 40.5 18.3 40.35 Q18.4 39.75 16.7 38.55 L16.4 38.35 16.25 38.25 Q15.95 38.0 14.45 37.5 L14.6 37.05 M14.0 37.3 L11.45 37.15 8.7 37.15 9.15 36.7 12.05 36.7 14.1 36.95 14.0 37.3 M8.5 37.3 Q9.0 38.0 8.35 38.05 L8.3 38.1 7.7 38.2 7.65 38.2 7.8 38.6 8.2 39.45 8.3 39.75 9.2 40.4 8.2 40.45 8.0 41.1 7.85 40.55 7.0 40.8 7.55 40.1 7.45 39.4 7.3 38.55 7.25 38.4 7.25 38.25 6.6 38.2 Q7.15 37.85 6.95 37.4 L7.25 37.45 8.4 37.45 8.45 37.4 8.5 37.3 M17.6 29.6 Q17.95 29.8 17.75 29.95 17.95 29.8 17.6 29.6 M16.95 29.65 L16.75 29.55 16.95 29.45 17.05 29.35 16.95 29.45 16.75 29.55 16.95 29.65 M16.45 28.9 Q16.6 29.15 16.15 29.3 16.6 29.15 16.45 28.9 M19.2 30.7 Q19.35 31.3 19.1 31.3 19.35 31.3 19.2 30.7 M18.6 30.55 Q18.75 30.5 18.5 30.15 18.75 30.5 18.6 30.55 M16.75 29.55 L16.65 29.6 16.75 29.55 M17.65 38.55 Q17.0 38.15 16.7 38.55 17.0 38.15 17.65 38.55 M18.3 40.35 Q18.7 40.45 18.85 40.8 18.7 40.45 18.3 40.35 M12.05 36.7 Q11.35 36.9 11.45 37.15 11.35 36.9 12.05 36.7 M7.25 38.25 L7.5 38.2 7.65 38.2 7.5 38.2 7.25 38.25 M7.8 38.6 L7.3 38.55 7.8 38.6 M7.25 37.45 Q7.5 38.05 8.3 38.1 7.5 38.05 7.25 37.45 M7.45 39.4 L8.2 39.45 7.45 39.4" fill="#896a29" fill-rule="evenodd" stroke="none"/>
      <path d="M13.15 27.15 Q13.5 28.1 14.25 28.65 L14.65 28.9 12.15 31.4 Q11.0 30.7 10.9 29.45 L13.15 27.15 M10.3 30.05 Q10.45 31.4 11.45 32.05 L8.05 35.45 Q7.15 34.9 6.85 33.65 L10.3 30.05 M14.95 30.9 L14.9 30.9 14.6 31.2 14.1 30.7 14.4 30.4 14.95 30.9 14.4 30.4 14.1 30.7 14.6 31.2 14.9 30.9 14.6 31.2 14.2 31.5 13.55 30.95 14.7 29.8 15.45 30.4 14.95 30.9 M12.45 29.95 L12.05 29.55 12.4 29.2 13.2 30.0 12.45 30.7 11.2 29.3 12.55 28.15 13.35 29.0 12.55 28.15 11.2 29.3 12.45 30.7 13.2 30.0 12.4 29.2 12.05 29.55 12.45 29.95 M7.35 36.15 L6.25 37.25 6.25 37.2 5.85 37.0 5.4 36.6 5.0 35.55 6.15 34.35 Q6.35 35.6 7.35 36.15" fill="#edbe9e" fill-rule="evenodd" stroke="none"/>
      <path d="M16.85 30.9 L16.55 32.05 15.75 34.45 14.8 36.6 14.6 37.05 14.45 37.5 Q14.1 38.45 14.2 39.15 14.4 40.7 16.65 40.85 L17.15 40.9 17.25 40.9 Q18.25 40.85 18.3 40.5 L18.65 41.1 16.05 41.3 14.7 40.85 Q13.05 40.5 13.7 38.2 L14.0 37.3 14.1 36.95 14.6 35.8 15.5 34.05 15.65 33.75 16.4 31.35 16.55 30.55 16.85 30.9 M4.3 35.1 L4.4 34.65 4.55 34.15 Q4.7 33.75 4.95 33.8 L5.15 33.9 5.1 33.95 5.0 35.0 5.0 35.55 5.4 36.6 5.85 37.0 Q5.65 37.3 5.85 37.65 5.65 37.3 5.85 37.0 L6.25 37.2 6.25 37.25 6.85 37.4 6.95 37.4 Q7.15 37.85 6.6 38.2 L6.4 38.2 5.85 37.65 6.4 38.2 5.6 38.0 5.5 37.95 4.7 37.4 4.5 37.1 4.6 36.0 4.5 37.1 4.3 36.5 4.3 35.1 M12.8 25.9 Q12.85 25.4 13.15 25.4 L13.25 25.95 13.4 26.45 Q13.65 27.2 14.1 27.75 13.9 28.25 14.25 28.65 13.9 28.25 14.1 27.75 L15.05 28.45 15.2 28.55 15.35 28.65 15.5 28.65 15.65 28.7 15.65 28.85 Q15.6 29.05 15.2 29.1 L15.1 29.1 15.1 29.05 14.65 28.9 14.25 28.65 Q13.5 28.1 13.15 27.15 L13.05 27.05 12.95 26.6 12.8 25.9 M12.95 26.6 Q13.0 25.9 13.25 25.95 13.0 25.9 12.95 26.6 M15.05 28.45 L14.65 28.9 15.05 28.45 M16.55 32.05 Q16.4 32.2 16.4 31.35 16.4 32.2 16.55 32.05 M15.75 34.45 Q15.5 34.5 15.65 33.75 15.5 34.5 15.75 34.45 M14.8 36.6 Q14.5 36.6 14.6 35.8 14.5 36.6 14.8 36.6 M16.05 41.3 Q16.75 41.3 16.65 40.85 16.75 41.3 16.05 41.3 M14.2 39.15 Q13.7 39.15 13.7 38.2 13.7 39.15 14.2 39.15 M4.6 36.0 L5.0 35.55 4.6 36.0 Q4.65 35.2 5.0 35.0 4.65 35.2 4.6 36.0 M5.85 37.65 L5.6 38.0 5.85 37.65 6.25 37.25 5.85 37.65" fill="#b18936" fill-rule="evenodd" stroke="none"/>
      <path d="M11.55 27.55 L11.9 27.55 12.1 27.85 11.65 28.15 11.35 27.75 11.55 27.55" fill="#faefe7" fill-rule="evenodd" stroke="none"/>
      <path d="M7.25 38.4 L6.65 38.95 Q5.45 38.6 4.8 38.05 L4.45 37.65 4.05 36.8 Q3.9 36.15 4.1 35.35 L4.1 35.3 4.3 35.1 4.3 36.5 4.5 37.1 4.7 37.4 5.5 37.95 5.6 38.0 6.4 38.2 6.6 38.2 7.25 38.25 7.25 38.4 M4.3 36.5 L4.05 36.8 4.3 36.5" fill="#6c261c" fill-rule="evenodd" stroke="none"/>
      <path d="M20.1 24.5 L20.45 25.35 Q20.3 26.3 19.8 26.8 L19.7 26.9 Q18.3 27.65 17.45 28.75 L17.4 28.75 17.15 28.9 17.0 28.95 16.95 28.95 16.45 28.9 15.7 28.75 15.5 28.65 15.2 28.55 Q15.15 28.35 15.4 28.1 L17.35 26.25 Q18.3 26.7 18.75 26.6 19.4 26.4 18.95 26.0 19.45 26.05 19.7 25.75 20.0 25.4 19.8 24.8 L20.1 24.5 M6.65 38.95 L6.35 39.3 6.35 39.35 Q6.9 40.3 6.1 40.3 L5.95 40.3 4.3 39.95 4.8 39.3 5.2 38.8 4.8 38.05 Q5.45 38.6 6.65 38.95" fill="#75271d" fill-rule="evenodd" stroke="none"/>
      <path d="M3.65 39.55 Q3.0 39.05 2.65 38.15 2.35 37.45 2.3 36.55 L2.3 36.5 Q2.45 35.4 3.7 35.8 L4.1 35.35 Q3.9 36.15 4.05 36.8 L3.1 37.3 3.1 37.75 3.8 38.7 3.9 38.75 3.65 39.55 M13.15 25.4 L13.15 25.15 13.2 25.1 13.4 24.55 13.6 24.35 Q14.8 23.5 15.65 22.15 16.0 21.75 16.6 21.9 L16.65 21.9 17.65 22.3 17.35 22.55 17.15 22.5 Q16.4 22.35 16.05 22.75 15.75 23.1 16.05 23.85 L16.1 23.85 Q16.35 24.45 17.15 25.3 L16.3 25.5 16.25 25.4 15.95 25.1 16.15 25.5 16.2 25.4 16.2 25.65 16.15 25.5 16.15 25.55 15.3 24.65 Q13.8 24.9 13.4 26.45 L13.25 25.95 13.15 25.4" fill="#d86d63" fill-rule="evenodd" stroke="none"/>
      <path d="M5.15 33.9 L6.25 32.75 Q6.05 33.65 6.15 34.35 L5.0 35.55 5.0 35.0 5.1 33.95 5.15 33.9 M6.7 32.3 L10.45 28.4 10.3 30.05 6.85 33.65 Q6.7 33.05 6.7 32.3 M11.15 27.65 L12.55 26.2 12.8 25.9 12.95 26.6 13.05 27.05 13.15 27.15 10.9 29.45 Q10.85 28.65 11.15 27.65 M12.45 27.25 L12.1 26.9 11.55 27.55 12.1 26.9 12.45 27.25 M11.55 27.55 L11.35 27.75 11.65 28.15 12.1 27.85 11.9 27.55 11.55 27.55" fill="#f8dccb" fill-rule="evenodd" stroke="none"/>
      <path d="M8.7 37.15 L8.5 37.3 8.45 37.4 8.4 37.45 7.25 37.45 6.95 37.4 6.85 37.4 6.25 37.25 7.35 36.15 7.9 36.35 8.7 36.5 9.3 36.55 9.15 36.7 8.7 37.15 M14.6 31.2 L13.9 31.9 12.7 31.6 12.15 31.4 14.65 28.9 15.1 29.05 15.1 29.1 15.2 29.1 16.0 29.3 16.1 29.3 16.1 29.35 16.25 29.55 15.45 30.4 14.7 29.8 13.55 30.95 14.2 31.5 14.6 31.2 M13.2 32.6 L9.85 36.0 8.55 35.7 8.05 35.45 11.45 32.05 12.0 32.3 13.2 32.6" fill="#bf9980" fill-rule="evenodd" stroke="none"/>
      <path d="M40.0 5.85 L41.2 5.7 41.2 5.75 40.3 6.5 34.15 11.95 20.1 24.5 19.8 24.8 18.5 25.9 17.25 25.2 17.6 24.85 17.65 24.85 17.75 25.0 38.65 5.5 40.0 5.85 38.15 7.5 40.0 5.85 M33.05 11.65 L36.5 8.35 33.05 11.65 Q33.45 12.15 34.15 11.95 33.45 12.15 33.05 11.65 L30.9 13.75 33.05 11.65" fill="#5c492b" fill-rule="evenodd" stroke="none"/>
      <path d="M37.35 2.65 L37.65 4.2 27.3 14.0 20.9 20.3 20.8 20.45 17.0 24.05 16.75 23.2 17.35 22.55 17.65 22.3 20.2 19.55 37.35 2.65 M20.2 19.55 Q20.3 20.3 20.9 20.3 20.3 20.3 20.2 19.55" fill="#ac8853" fill-rule="evenodd" stroke="none"/>
      <path d="M40.65 3.45 Q41.65 3.95 41.1 4.5 L39.85 4.9 39.8 4.4 39.85 4.9 Q39.0 4.85 38.45 4.0 L38.25 3.65 38.15 3.3 39.2 2.95 40.65 3.45 M39.0 3.85 L38.45 4.0 39.0 3.85" fill="#9e8970" fill-rule="evenodd" stroke="none"/>
      <path d="M41.4 2.95 L40.65 3.45 Q41.65 3.95 41.1 4.5 L39.85 4.9 40.0 5.85 41.2 5.7 41.3 5.7 41.4 5.65 Q42.1 5.3 42.05 4.6 41.9 3.65 41.4 2.95 L40.95 2.55 Q37.95 1.55 38.15 3.3 M40.65 3.45 L39.2 2.95 M40.95 2.55 Q40.05 1.8 38.4 1.65 37.6 1.95 37.35 2.6 L37.35 2.65 37.65 4.2 38.45 4.0 38.25 3.65 38.15 3.3 M41.2 5.75 L41.3 5.7 M41.2 5.75 L40.3 6.5 34.15 11.95 20.1 24.5 20.45 25.35 Q20.3 26.3 19.8 26.8 M17.4 28.75 L17.15 28.9 17.05 29.35 17.6 29.6 Q18.1 29.8 18.5 30.15 L19.2 30.7 19.85 31.65 19.9 31.7 19.95 31.85 20.1 32.2 19.8 31.95 19.7 32.45 19.5 31.95 18.95 32.25 19.3 31.65 19.1 31.3 18.6 30.55 17.75 29.95 16.95 29.65 16.85 30.9 16.55 32.05 15.75 34.45 14.8 36.6 14.6 37.05 14.9 37.15 Q16.55 37.6 17.65 38.55 L18.4 39.3 18.6 39.65 Q19.0 40.4 18.85 40.8 L18.65 41.1 16.05 41.3 14.7 40.85 Q13.05 40.5 13.7 38.2 L14.0 37.3 11.45 37.15 8.7 37.15 8.5 37.3 Q9.0 38.0 8.35 38.05 L8.3 38.1 7.7 38.2 M7.65 38.2 L7.8 38.6 8.2 39.45 8.3 39.75 9.2 40.4 8.2 40.45 8.0 41.1 7.85 40.55 7.0 40.8 7.55 40.1 7.45 39.4 7.3 38.55 7.25 38.4 6.65 38.95 6.35 39.3 6.35 39.35 Q6.9 40.3 6.1 40.3 M2.3 36.5 Q2.45 35.4 3.7 35.8 L4.1 35.35 M4.1 35.3 L4.3 35.1 M4.4 34.65 L4.55 34.15 Q4.7 33.75 4.95 33.8 M5.15 33.9 L6.25 32.75 6.7 32.3 10.45 28.4 11.15 27.65 12.55 26.2 12.8 25.9 Q12.85 25.4 13.15 25.4 M13.2 25.1 L13.4 24.55 M15.65 22.15 Q16.0 21.75 16.6 21.9 L16.65 21.9 17.65 22.3 20.2 19.55 37.35 2.65 M39.85 4.9 L39.8 4.4 M38.65 5.5 L40.0 5.85 38.15 7.5 M38.45 4.0 L39.0 3.85 M37.65 4.2 Q37.95 5.1 38.65 5.5 M17.6 24.85 L17.25 25.2 M18.5 25.9 L19.8 24.8 20.1 24.5 M38.45 4.0 Q39.0 4.85 39.85 4.9 M34.15 11.95 Q33.45 12.15 33.05 11.65 L30.9 13.75 M36.5 8.35 L33.05 11.65 M27.3 14.0 Q27.3 14.8 27.8 15.1 L29.1 13.85 M17.35 22.55 L17.65 22.3 M13.25 25.95 Q13.0 25.9 12.95 26.6 M14.25 28.65 Q13.9 28.25 14.1 27.75 M14.9 30.9 L14.95 30.9 M14.9 30.9 L14.6 31.2 13.9 31.9 13.2 32.6 9.85 36.0 9.3 36.55 9.15 36.7 12.05 36.7 14.1 36.95 14.6 35.8 15.5 34.05 15.65 33.75 16.4 31.35 16.55 30.55 16.65 29.6 16.35 29.7 16.25 29.55 15.45 30.4 14.95 30.9 M8.05 35.45 L8.55 35.7 9.85 36.0 M20.9 20.3 L20.95 20.3 20.8 20.45 20.9 20.3 Q20.3 20.3 20.2 19.55 M17.0 24.05 L17.05 24.1 M17.6 24.85 L27.8 15.1 M16.75 23.2 L16.1 23.85 M17.35 22.55 L16.75 23.2 M17.0 28.95 L17.15 28.9 M15.65 28.85 L16.0 29.3 M16.15 29.3 Q16.6 29.15 16.45 28.9 M17.05 29.35 L16.95 29.45 16.75 29.55 16.95 29.65 M17.75 29.95 Q17.95 29.8 17.6 29.6 M16.15 29.3 L16.1 29.35 16.25 29.55 M16.4 31.35 Q16.4 32.2 16.55 32.05 M16.65 29.6 L16.75 29.55 M18.5 30.15 Q18.75 30.5 18.6 30.55 M19.1 31.3 Q19.35 31.3 19.2 30.7 M27.3 14.0 L20.9 20.3 M15.65 33.75 Q15.5 34.5 15.75 34.45 M16.7 38.55 Q17.0 38.15 17.65 38.55 M14.45 37.5 Q14.1 38.45 14.2 39.15 14.4 40.7 16.65 40.85 L17.15 40.9 17.25 40.9 Q18.25 40.85 18.3 40.5 L18.3 40.35 Q18.4 39.75 16.7 38.55 L16.4 38.35 16.25 38.25 Q15.95 38.0 14.45 37.5 L14.6 37.05 M18.85 40.8 Q18.7 40.45 18.3 40.35 M16.65 40.85 Q16.75 41.3 16.05 41.3 M14.6 35.8 Q14.5 36.6 14.8 36.6 M9.3 36.55 L8.7 36.5 7.9 36.35 7.35 36.15 Q6.35 35.6 6.15 34.35 M8.45 37.4 L8.5 37.3 M13.7 38.2 Q13.7 39.15 14.2 39.15 M11.45 37.15 Q11.35 36.9 12.05 36.7 M8.7 37.15 L9.15 36.7 M14.1 36.95 L14.0 37.3 M4.6 36.0 L4.5 37.1 M5.85 37.65 Q5.65 37.3 5.85 37.0 M5.85 37.65 L6.4 38.2 M5.0 35.0 Q4.65 35.2 4.6 36.0 M8.05 35.45 Q7.15 34.9 6.85 33.65 6.7 33.05 6.7 32.3 M3.9 38.75 L3.8 38.7 3.1 37.75 3.1 37.3 M4.8 39.3 L3.9 38.75 M7.25 38.4 L7.25 38.25 M8.3 38.1 Q7.5 38.05 7.25 37.45 M7.3 38.55 L7.8 38.6 M8.2 39.45 L7.45 39.4 M6.25 32.75 Q6.05 33.65 6.15 34.35" fill="none" stroke="#000000" stroke-linecap="round" stroke-linejoin="round" stroke-opacity="0.4" stroke-width="0.05"/>
      <path d="M19.8 26.8 L19.7 26.9 Q18.3 27.65 17.45 28.75 L17.4 28.75 M7.7 38.2 L7.65 38.2 7.5 38.2 7.25 38.25 6.6 38.2 M6.1 40.3 L5.95 40.3 4.3 39.95 M4.2 39.9 L3.7 39.6 M3.65 39.55 Q3.0 39.05 2.65 38.15 2.35 37.45 2.3 36.55 L2.3 36.5 M4.3 35.1 L4.4 34.65 M4.95 33.8 L5.15 33.9 M13.15 25.4 L13.15 25.15 13.2 25.1 M13.4 24.55 L13.6 24.35 Q14.8 23.5 15.65 22.15 M17.25 25.2 L18.5 25.9 M13.15 25.4 L13.25 25.95 13.4 26.45 M17.15 25.3 Q16.35 24.45 16.1 23.85 L16.05 23.85 Q15.75 23.1 16.05 22.75 16.4 22.35 17.15 22.5 L17.35 22.55 M12.95 26.6 L13.05 27.05 M13.15 27.15 Q13.5 28.1 14.25 28.65 M14.1 27.75 Q13.65 27.2 13.4 26.45 M12.95 26.6 L12.8 25.9 M10.3 30.05 Q10.45 31.4 11.45 32.05 M12.15 31.4 Q11.0 30.7 10.9 29.45 10.85 28.65 11.15 27.65 M10.3 30.05 L10.45 28.4 M12.0 32.3 L13.2 32.6 M12.0 32.3 L11.45 32.05 M12.7 31.6 L12.15 31.4 M14.65 28.9 L14.25 28.65 M13.9 31.9 L12.7 31.6 M18.95 26.0 L18.65 25.95 18.5 25.9 M19.8 24.8 Q20.0 25.4 19.7 25.75 19.45 26.05 18.95 26.0 M15.2 28.55 L15.5 28.65 15.65 28.7 15.7 28.75 16.45 28.9 16.95 28.95 17.0 28.95 M17.25 25.2 L17.15 25.15 17.15 25.3 M14.1 27.75 L15.05 28.45 15.2 28.55 M16.0 29.3 L16.1 29.3 16.15 29.3 M15.1 29.05 L14.65 28.9 M15.2 29.1 L15.1 29.1 M16.0 29.3 L15.2 29.1 M6.25 37.25 L6.85 37.4 6.95 37.4 7.25 37.45 8.4 37.45 8.45 37.4 M5.0 35.0 L5.1 33.95 5.15 33.9 M5.85 37.0 L5.4 36.6 5.0 35.55 5.0 35.0 M4.5 37.1 L4.7 37.4 5.5 37.95 5.6 38.0 M5.85 37.0 L6.25 37.2 6.25 37.25 M6.4 38.2 L6.6 38.2 M4.3 35.1 L4.3 36.5 4.5 37.1 M6.4 38.2 L5.6 38.0" fill="none" stroke="#000000" stroke-linecap="round" stroke-linejoin="round" stroke-opacity="0.4" stroke-width="0.05"/>
      <path d="M11.55 27.55 L12.1 26.9 12.45 27.25 M11.55 27.55 L11.9 27.55 12.1 27.85 11.65 28.15 11.35 27.75 11.55 27.55 M14.95 30.9 L14.4 30.4 14.1 30.7 14.6 31.2 14.9 30.9 M13.35 29.0 L12.55 28.15 11.2 29.3 12.45 30.7 13.2 30.0 12.4 29.2 12.05 29.55 12.45 29.95 M14.6 31.2 L14.2 31.5 13.55 30.95 14.7 29.8 15.45 30.4" fill="none" stroke="#000000" stroke-linecap="round" stroke-linejoin="round" stroke-opacity="0.4" stroke-width="1.0"/>
      <path d="M4.3 39.95 L4.2 39.9 M3.7 39.6 L3.65 39.55 M15.95 25.1 L16.25 25.4 16.3 25.5 M4.05 36.8 L4.3 36.5 M4.45 37.65 L4.8 38.05 M3.9 38.75 L3.65 39.55 M3.1 37.3 L3.8 38.7 M5.2 38.8 L4.8 39.3" fill="none" stroke="#8e3d33" stroke-linecap="round" stroke-linejoin="round" stroke-width="0.05"/>
      <path d="M38.15 3.3 L39.2 2.95 39.6 2.8 M13.05 27.05 L13.15 27.15 M11.45 32.05 L12.15 31.4 M10.9 29.45 L10.3 30.05 M14.65 28.9 L15.05 28.45 M5.0 35.55 L4.6 36.0 M5.6 38.0 L5.85 37.65 M6.25 37.25 L5.85 37.65 M8.05 35.45 L7.35 36.15" fill="none" stroke="#000000" stroke-linecap="round" stroke-linejoin="round" stroke-opacity="0.3019608" stroke-width="0.05"/>
    </g>
  </defs>
</svg>
