<?xml version="1.0" encoding="UTF-8" standalone="no"?>
<svg xmlns:xlink="http://www.w3.org/1999/xlink" height="440.0px" width="440.0px" xmlns="http://www.w3.org/2000/svg">
  <g transform="matrix(10.0, 0.0, 0.0, 10.0, 0.0, 0.0)">
    <use height="44.0" transform="matrix(0.9091, 0.0, 0.0, 0.9091, 2.0, 2.0)" width="44.0" xlink:href="#sprite0"/>
  </g>
  <defs>
    <g id="sprite0" transform="matrix(1.0, 0.0, 0.0, 1.0, 0.0, 0.0)">
      <use height="44.0" transform="matrix(1.0, 0.0, 0.0, 1.0, 0.0, 0.0)" width="44.0" xlink:href="#shape0"/>
    </g>
    <g id="shape0" transform="matrix(1.0, 0.0, 0.0, 1.0, 0.0, 0.0)">
      <path d="M44.0 44.0 L0.0 44.0 0.0 0.0 44.0 0.0 44.0 44.0" fill="#43adca" fill-opacity="0.0" fill-rule="evenodd" stroke="none"/>
      <path d="M23.95 18.35 L23.85 17.85 24.05 17.25 25.8 15.55 26.1 15.55 26.15 15.55 26.3 15.65 24.8 17.15 Q25.45 16.65 26.6 17.55 L27.15 16.95 27.0 17.7 26.75 18.7 26.2 17.85 25.65 17.55 24.6 17.65 23.95 18.35 M31.8 9.7 L32.05 9.45 32.55 9.35 29.6 12.35 29.35 12.2 31.8 9.7 M33.95 7.55 L35.3 6.2 35.75 6.2 34.55 7.4 33.95 7.55 M36.95 7.25 L37.7 6.55 37.0 7.3 36.95 7.25 M34.3 9.85 L34.4 10.15 31.25 13.7 30.95 13.15 34.3 9.85" fill="#caa96c" fill-rule="evenodd" stroke="none"/>
      <path d="M35.75 6.2 Q37.0 6.1 37.7 6.55 L38.0 8.85 37.0 7.3 37.7 6.55 36.95 7.25 34.55 7.4 35.75 6.2 M34.95 14.5 L33.7 15.8 Q34.2 12.95 33.55 12.3 32.55 12.45 31.9 17.7 L29.5 20.3 Q30.95 16.75 31.25 13.7 L34.4 10.15 34.5 10.4 Q35.7 12.85 34.95 14.5 M22.25 26.2 L22.15 26.95 21.25 27.75 Q21.9 24.95 21.15 23.65 20.65 22.9 19.35 22.7 L19.8 22.3 20.3 22.15 21.05 22.15 21.1 22.15 22.1 22.6 22.15 23.8 22.2 25.7 22.25 26.2 M18.1 24.4 L18.1 23.95 18.75 23.3 Q19.7 23.25 19.55 23.95 L19.4 23.95 18.5 24.0 18.1 24.4 M32.55 9.35 Q33.3 9.35 34.3 9.85 L30.95 13.15 29.6 12.35 32.55 9.35 M26.3 15.65 Q27.05 16.2 27.15 16.95 L26.6 17.55 Q25.45 16.65 24.8 17.15 L26.3 15.65 M26.1 15.55 L26.15 15.55 26.1 15.55" fill="#ac863e" fill-rule="evenodd" stroke="none"/>
      <path d="M25.8 15.55 L31.8 9.7 29.35 12.2 29.6 12.35 26.3 15.65 26.15 15.55 26.1 15.55 25.8 15.55 M32.05 9.45 L33.95 7.55 34.55 7.4 32.55 9.35 32.05 9.45 M36.95 7.25 L37.0 7.3 34.45 10.1 34.4 10.15 34.3 9.85 36.95 7.25 M30.95 13.15 L31.25 13.7 26.85 18.55 27.0 17.7 27.15 16.95 30.95 13.15" fill="#c79a5c" fill-rule="evenodd" stroke="none"/>
      <path d="M38.0 8.85 L37.55 11.7 34.95 14.5 Q35.7 12.85 34.5 10.4 L34.45 10.1 37.0 7.3 38.0 8.85 M33.7 15.8 L31.9 17.7 Q32.55 12.45 33.55 12.3 34.2 12.95 33.7 15.8 M29.5 20.3 L27.3 22.6 26.85 22.95 25.8 22.8 26.65 21.9 Q27.0 21.25 26.8 20.75 L26.15 20.05 26.75 19.5 26.75 18.7 27.0 17.7 26.85 18.55 31.25 13.7 Q30.95 16.75 29.5 20.3 M21.25 27.75 L20.35 28.55 19.65 28.75 20.25 28.25 20.4 27.6 20.4 27.3 20.3 25.5 20.25 24.45 20.0 24.15 19.55 23.95 Q19.7 23.25 18.75 23.3 L19.35 22.7 Q20.65 22.9 21.15 23.65 21.9 24.95 21.25 27.75 M34.55 7.4 L36.95 7.25 34.3 9.85 Q33.3 9.35 32.55 9.35 L34.55 7.4 M29.6 12.35 L30.95 13.15 27.15 16.95 Q27.05 16.2 26.3 15.65 L29.6 12.35" fill="#ae7d3c" fill-rule="evenodd" stroke="none"/>
      <path d="M11.1 35.45 L10.7 34.8 11.65 33.9 20.3 25.5 20.4 27.3 Q16.05 31.9 12.2 34.2 L11.9 34.85 11.9 34.8 11.6 34.6 11.5 34.6 11.35 34.65 11.35 34.7 Q11.25 34.75 11.3 34.9 L11.45 35.2 11.1 35.45 M8.6 36.9 L8.55 36.9 8.5 36.45 8.15 35.9 Q12.4 31.7 14.8 28.55 L19.4 23.95 19.55 23.95 20.0 24.15 20.25 24.45 8.6 36.9 M26.15 20.05 L26.8 20.75 22.2 25.7 22.15 23.8 26.15 20.05 M24.25 19.0 Q23.6 20.6 22.1 22.6 L21.1 22.15 24.25 19.0 M7.6 35.55 L7.75 35.6 Q7.5 36.8 6.7 37.35 L6.65 37.3 6.3 37.1 7.6 35.55" fill="#9a8b50" fill-rule="evenodd" stroke="none"/>
      <path d="M25.8 22.8 L22.25 26.2 22.2 25.7 26.8 20.75 Q27.0 21.25 26.65 21.9 L25.8 22.8 M19.65 28.75 L12.6 35.55 12.7 34.95 Q12.65 34.55 12.25 34.25 L12.2 34.2 Q16.05 31.9 20.4 27.3 L20.4 27.6 20.25 28.25 19.65 28.75 M10.7 34.8 L8.6 36.9 20.25 24.45 20.3 25.5 11.65 33.9 10.7 34.8 M8.55 36.9 L7.05 38.4 7.05 37.95 6.7 37.35 Q7.5 36.8 7.75 35.6 L7.6 35.55 8.2 34.85 8.25 34.9 7.45 31.75 8.5 31.05 8.7 31.55 9.9 32.7 10.45 32.95 10.5 32.9 14.8 28.55 Q12.4 31.7 8.15 35.9 L8.5 36.45 8.55 36.9 M5.5 37.75 L5.45 37.6 Q5.3 37.25 5.5 37.1 L5.55 37.05 5.85 36.95 6.0 36.95 6.3 37.1 6.65 37.3 6.7 37.35 6.45 37.65 6.1 37.45 6.05 37.45 5.9 37.5 Q5.8 37.6 5.85 37.75 L5.9 37.85 5.5 37.75 M26.75 18.7 L26.75 19.5 26.15 20.05 22.15 23.8 22.1 22.6 Q23.6 20.6 24.25 19.0 L25.65 17.55 26.2 17.85 26.75 18.7 M9.25 33.35 L9.85 33.5 8.3 32.0 8.45 32.5 8.85 33.75 9.25 33.35 M8.85 33.75 L9.1 34.15 8.85 33.75" fill="#988252" fill-rule="evenodd" stroke="none"/>
      <path d="M12.6 35.55 L12.55 35.65 11.85 35.85 11.15 35.45 11.1 35.45 11.45 35.2 11.8 35.35 12.0 35.35 12.05 35.3 12.1 35.25 12.05 35.05 11.9 34.85 12.2 34.2 12.25 34.25 Q12.65 34.55 12.7 34.95 L12.6 35.55 M7.0 38.45 L7.0 38.5 6.9 38.55 6.5 38.6 5.85 38.2 5.5 37.75 5.9 37.85 6.0 38.05 6.35 38.25 6.55 38.2 6.6 38.15 6.6 38.1 6.6 37.9 6.45 37.65 6.7 37.35 7.05 37.95 7.05 38.4 7.0 38.4 7.0 38.45 M7.85 34.7 L7.2 31.7 8.1 31.05 8.5 31.05 7.45 31.75 8.25 34.9 8.2 34.85 7.85 34.7 M9.25 33.35 L8.45 32.5 8.3 32.0 9.85 33.5 9.25 33.35" fill="#867248" fill-rule="evenodd" stroke="none"/>
      <path d="M11.45 35.2 L11.3 34.9 Q11.25 34.75 11.35 34.7 L11.35 34.65 11.5 34.6 11.6 34.6 11.9 34.8 11.9 34.85 12.05 35.05 12.1 35.25 12.05 35.3 12.0 35.35 11.8 35.35 11.45 35.2 M5.9 37.85 L5.85 37.75 Q5.8 37.6 5.9 37.5 L6.05 37.45 6.1 37.45 6.45 37.65 6.6 37.9 6.6 38.1 6.6 38.15 6.55 38.2 6.35 38.25 6.0 38.05 5.9 37.85" fill="#000000" fill-rule="evenodd" stroke="none"/>
      <path d="M20.3 22.15 L23.95 18.35 24.6 17.65 24.25 19.0 21.1 22.15 21.05 22.15 20.3 22.15" fill="#bcaf7e" fill-rule="evenodd" stroke="none"/>
      <path d="M7.05 35.5 L7.85 34.7 8.2 34.85 7.6 35.55 7.45 35.5 7.25 35.45 7.05 35.5 M9.9 32.7 L16.5 26.05 14.8 28.55 10.5 32.9 10.45 32.95 9.9 32.7 M25.65 17.55 L24.25 19.0 24.6 17.65 25.65 17.55" fill="#bba380" fill-rule="evenodd" stroke="none"/>
      <path d="M5.55 37.05 L7.05 35.5 7.25 35.45 7.45 35.5 7.6 35.55 6.3 37.1 6.0 36.95 5.85 36.95 5.55 37.05 M16.5 26.05 L18.1 24.4 18.5 24.0 19.4 23.95 14.8 28.55 16.5 26.05" fill="#b4a56d" fill-rule="evenodd" stroke="none"/>
      <path d="M35.75 6.2 Q37.0 6.1 37.7 6.55 L38.0 8.85 37.55 11.7 34.95 14.5 33.7 15.8 31.9 17.7 29.5 20.3 27.3 22.6 26.85 22.95 25.8 22.8 22.25 26.2 22.15 26.95 21.25 27.75 20.35 28.55 19.65 28.75 12.6 35.55 M10.7 34.8 L8.6 36.9 M8.55 36.9 L7.05 38.4 7.0 38.4 M7.0 38.45 L7.0 38.5 6.9 38.55 M7.85 34.7 L7.2 31.7 8.1 31.05 8.5 31.05 8.7 31.55 9.9 32.7 10.45 32.95 10.5 32.9 M18.1 24.4 L18.1 23.95 18.75 23.3 19.35 22.7 19.8 22.3 20.3 22.15 21.05 22.15 M23.95 18.35 L23.85 17.85 24.05 17.25 25.8 15.55 31.8 9.7 32.05 9.45 33.95 7.55 35.3 6.2 35.75 6.2 M36.95 7.25 L37.7 6.55 M34.4 10.15 L34.45 10.1 M29.35 12.2 L31.8 9.7 M26.75 18.7 L26.75 19.5 26.15 20.05 26.8 20.75 Q27.0 21.25 26.65 21.9 L25.8 22.8 M26.75 18.7 L26.2 17.85 25.65 17.55 M22.1 22.6 L22.15 23.8 26.15 20.05 M24.6 17.65 L25.65 17.55 M18.5 24.0 L19.4 23.95 19.55 23.95 20.0 24.15 20.25 24.45 20.3 25.5 20.4 27.3 20.4 27.6 20.25 28.25 19.65 28.75 M22.2 25.7 L22.25 26.2 M22.1 22.6 L21.1 22.15 M22.2 25.7 L22.15 23.8 M20.3 25.5 L11.65 33.9 10.7 34.8 M8.45 32.5 L9.25 33.35 M8.45 32.5 L8.85 33.75 M9.1 34.15 L8.85 33.75" fill="none" stroke="#000000" stroke-linecap="round" stroke-linejoin="round" stroke-opacity="0.32941177" stroke-width="0.05"/>
      <path d="M8.6 36.9 L8.55 36.9 M34.55 7.4 L36.95 7.25 M37.0 7.3 L38.0 8.85 M37.0 7.3 L36.95 7.25 M34.3 9.85 L34.4 10.15 M33.95 7.55 L34.55 7.4 M32.55 9.35 Q33.3 9.35 34.3 9.85 M30.95 13.15 L31.25 13.7 Q30.95 16.75 29.5 20.3 M34.5 10.4 L34.4 10.15 M34.45 10.1 L34.5 10.4 Q35.7 12.85 34.95 14.5 M32.55 9.35 L32.05 9.45 M29.6 12.35 L29.35 12.2 M30.95 13.15 L29.6 12.35 M26.3 15.65 Q27.05 16.2 27.15 16.95 L27.0 17.7 26.75 18.7 M33.7 15.8 Q34.2 12.95 33.55 12.3 32.55 12.45 31.9 17.7 M24.25 19.0 Q23.6 20.6 22.1 22.6 M25.8 15.55 L26.1 15.55 26.15 15.55 26.3 15.65 M19.55 23.95 Q19.7 23.25 18.75 23.3 M24.25 19.0 L24.6 17.65 M19.35 22.7 Q20.65 22.9 21.15 23.65 21.9 24.95 21.25 27.75 M14.8 28.55 L16.5 26.05 M14.8 28.55 Q12.4 31.7 8.15 35.9 M11.9 34.85 L12.2 34.2 Q16.05 31.9 20.4 27.3 M11.45 35.2 L11.1 35.45 M9.25 33.35 L9.85 33.5 M8.25 34.9 L8.2 34.85 7.85 34.7 M7.75 35.6 Q7.5 36.8 6.7 37.35 M6.45 37.65 L6.7 37.35 M5.5 37.75 L5.9 37.85 M20.25 24.45 L8.6 36.9 M26.8 20.75 L22.2 25.7" fill="none" stroke="#2d0000" stroke-linecap="round" stroke-linejoin="round" stroke-opacity="0.3019608" stroke-width="0.05"/>
      <path d="M12.6 35.55 L12.55 35.65 11.85 35.85 11.15 35.45 11.1 35.45 10.7 34.8 M7.05 38.4 L7.0 38.45 M7.0 38.5 L6.9 38.55 6.5 38.6 5.85 38.2 5.5 37.75 5.45 37.6 Q5.3 37.25 5.5 37.1 L5.55 37.05 7.05 35.5 7.85 34.7 M9.9 32.7 L16.5 26.05 18.1 24.4 18.5 24.0 M20.3 22.15 L23.95 18.35 M24.6 17.65 L23.95 18.35 M8.85 33.75 L9.25 33.35 M7.0 38.4 L7.0 38.45" fill="none" stroke="#000000" stroke-linecap="round" stroke-linejoin="round" stroke-opacity="0.32941177" stroke-width="0.05"/>
      <path d="M21.05 22.15 L21.1 22.15" fill="none" stroke="#000000" stroke-linecap="round" stroke-linejoin="round" stroke-opacity="0.3019608" stroke-width="0.05"/>
      <path d="M38.0 8.85 L37.55 11.7 33.55 15.95 32.45 15.35 29.25 18.8 29.15 20.7 27.3 22.6 26.85 22.95 25.8 22.8 22.25 26.2 22.25 26.25 22.15 26.95 20.35 28.55 19.65 28.75 12.6 35.55 12.55 35.65 11.85 35.85 11.15 35.45 11.1 35.45 10.7 34.8 8.6 36.9 8.55 36.9 7.05 38.4 7.0 38.4 6.9 38.55 6.5 38.6 5.85 38.2 5.5 37.75 5.45 37.6 Q5.3 37.25 5.5 37.1 L5.55 37.05 5.85 36.95 6.0 36.95 6.65 37.3 6.7 37.35 6.9 37.6 20.25 24.45 21.25 24.1 Q22.0 23.5 22.1 22.7 L26.75 18.7 26.8 18.4 27.25 18.8 27.25 18.1 31.2 13.75 31.25 13.75 31.25 13.7 34.4 10.2 34.45 10.2 34.5 10.4 34.45 10.1 37.7 6.55 38.0 8.85 M36.45 20.7 L36.5 22.85 31.45 24.5 31.4 22.7 32.2 22.2 36.45 20.7 M11.9 34.85 L11.95 34.8 11.9 34.8 11.9 34.85" fill="#000000" fill-opacity="0.4" fill-rule="evenodd" stroke="none"/>
      <path d="M29.8 18.5 Q31.65 16.15 30.8 15.55 L31.6 14.75 Q33.5 15.75 34.7 17.1 L33.45 18.0 32.05 16.8 33.45 18.0 Q33.45 18.95 32.25 19.5 L31.95 19.05 31.2 20.0 29.8 18.5 M29.45 18.9 L30.85 20.35 30.75 20.45 30.7 22.6 29.8 21.25 29.45 18.9" fill="#9a8b50" fill-rule="evenodd" stroke="none"/>
      <path d="M29.8 18.5 L29.75 18.55 28.7 17.9 30.8 15.55 Q31.65 16.15 29.8 18.5 M34.7 17.1 Q36.1 18.65 36.5 20.7 L36.55 22.75 31.45 24.55 30.7 22.6 30.75 20.45 30.85 20.35 31.35 22.55 31.35 22.8 31.35 22.9 31.45 24.55 31.35 22.9 32.25 22.25 31.95 22.05 31.8 21.95 31.2 20.0 31.95 19.05 32.25 19.5 Q33.45 18.95 33.45 18.0 L34.7 17.1 M29.8 21.25 Q29.2 20.6 28.45 20.45 L28.4 18.25 29.45 18.9 29.8 21.25 M34.8 21.35 Q34.5 19.3 33.45 18.0 34.5 19.3 34.8 21.35" fill="#988252" fill-rule="evenodd" stroke="none"/>
      <path d="M28.7 17.9 L29.75 18.55 29.45 18.9 28.4 18.25 28.4 18.2 28.7 17.9 M30.85 20.35 L31.2 20.0 31.8 21.95 31.95 22.05 31.35 22.8 31.35 22.55 30.85 20.35 M31.35 22.9 L31.35 22.8 31.95 22.05 32.25 22.25 31.35 22.9" fill="#b6a278" fill-rule="evenodd" stroke="none"/>
      <path d="M29.75 18.55 L29.8 18.5 31.2 20.0 30.85 20.35 29.45 18.9 29.75 18.55" fill="#b4a56d" fill-rule="evenodd" stroke="none"/>
      <path d="M30.8 15.55 L28.7 17.9 M28.4 18.25 L28.4 18.2 28.7 17.9 M30.8 15.55 L31.6 14.75 Q33.5 15.75 34.7 17.1 36.1 18.65 36.5 20.7 L36.55 22.75 31.45 24.55 30.7 22.6 29.8 21.25 Q29.2 20.6 28.45 20.45 L28.4 18.25 M33.45 18.0 L32.05 16.8 M31.95 19.05 L32.25 19.5 M33.45 18.0 Q34.5 19.3 34.8 21.35 M31.45 24.55 L31.35 22.9 31.35 22.8 31.35 22.55 M31.95 22.05 L31.35 22.8 M31.35 22.9 L32.25 22.25" fill="none" stroke="#000000" stroke-linecap="round" stroke-linejoin="round" stroke-opacity="0.3019608" stroke-width="0.05"/>
      <path d="M29.75 18.55 L29.8 18.5 Q31.65 16.15 30.8 15.55 M29.75 18.55 L29.45 18.9 29.8 21.25 M30.85 20.35 L31.2 20.0 31.95 19.05 M33.45 18.0 L34.7 17.1 M30.85 20.35 L30.75 20.45 30.7 22.6 M32.25 19.5 Q33.45 18.95 33.45 18.0" fill="none" stroke="#2d0000" stroke-linecap="round" stroke-linejoin="round" stroke-opacity="0.3019608" stroke-width="0.05"/>
      <path d="M31.7 14.85 L28.45 18.25 29.5 18.95 Q30.4 19.65 30.85 20.5 31.4 21.45 31.45 23.1 L32.3 22.25 33.2 22.0 Q33.05 20.55 32.35 19.5 L32.0 19.1 31.05 18.2 Q32.0 18.15 32.1 16.8 L33.5 18.05 Q34.6 19.35 34.85 21.35 L36.55 20.75 36.65 22.8 31.5 24.6 30.8 22.65 29.9 21.3 28.85 20.6 28.4 21.1 28.25 17.95 31.7 14.25 31.7 14.85" fill="#000000" fill-opacity="0.2509804" fill-rule="evenodd" stroke="none"/>
    </g>
  </defs>
</svg>
