<?xml version="1.0" encoding="UTF-8" standalone="no"?>
<svg xmlns:xlink="http://www.w3.org/1999/xlink" height="440.0px" width="440.0px" xmlns="http://www.w3.org/2000/svg">
  <g transform="matrix(10.0, 0.0, 0.0, 10.0, 0.0, 0.0)">
    <use height="44.0" transform="matrix(1.0, 0.0, 0.0, 1.0, 0.0, 0.0)" width="44.0" xlink:href="#shape0"/>
    <use height="44.0" transform="matrix(0.5156, -0.1432, 0.1432, 0.5156, 15.3353, 18.3069)" width="42.65" xlink:href="#sprite0"/>
  </g>
  <defs>
    <g id="shape0" transform="matrix(1.0, 0.0, 0.0, 1.0, 0.0, 0.0)">
      <path d="M44.0 44.0 L0.0 44.0 0.0 0.0 44.0 0.0 44.0 44.0" fill="#43adca" fill-opacity="0.0" fill-rule="evenodd" stroke="none"/>
      <path d="M39.7 1.05 L38.1 2.85 34.35 4.65 34.45 4.75 34.4 4.8 34.25 4.8 34.2 4.9 Q32.2 6.05 25.0 13.3 24.3 14.25 23.3 16.6 22.4 18.55 20.35 19.65 L20.15 19.5 Q22.1 18.3 23.05 16.4 24.05 14.05 24.85 13.25 32.6 5.35 34.1 4.5 38.25 2.25 39.7 1.05" fill="#e9f2f3" fill-rule="evenodd" stroke="none"/>
      <path d="M38.1 2.85 L39.7 1.05 Q38.65 2.55 36.65 6.85 35.9 8.4 28.75 16.75 L25.75 18.85 Q23.9 19.95 22.85 22.0 L22.6 21.7 22.85 21.25 Q23.8 19.55 25.5 18.65 L28.6 16.7 Q35.8 8.3 36.45 6.7 37.35 4.25 38.1 2.85 M34.2 4.9 L34.25 4.8 34.4 4.8 34.45 4.75 Q34.65 4.6 34.8 4.6 L35.1 4.65 35.2 4.9 34.9 5.35 34.35 5.7 33.25 6.0 Q32.65 6.15 33.4 5.5 L34.2 4.9 M30.6 8.05 Q34.3 5.55 33.6 6.8 L26.15 15.05 Q23.05 18.25 25.1 13.95 L30.6 8.05" fill="#cfe4e4" fill-rule="evenodd" stroke="none"/>
      <path d="M20.35 19.65 Q22.4 18.55 23.3 16.6 24.3 14.25 25.0 13.3 32.2 6.05 34.2 4.9 L33.4 5.5 Q32.65 6.15 33.25 6.0 L34.35 5.7 34.9 5.35 35.2 4.9 35.1 4.65 34.8 4.6 Q34.65 4.6 34.45 4.75 L34.35 4.65 38.1 2.85 21.55 20.8 20.75 19.95 20.55 19.85 20.35 19.65 M30.6 8.05 L25.1 13.95 Q23.05 18.25 26.15 15.05 L33.6 6.8 Q34.3 5.55 30.6 8.05 M14.3 22.65 L15.3 23.65 14.8 24.0 13.9 23.05 14.3 22.65 M18.0 22.45 L17.3 21.85 19.3 20.1 20.2 20.5 18.35 22.6 18.0 22.4 18.0 22.45" fill="#acd1d2" fill-rule="evenodd" stroke="none"/>
      <path d="M38.1 2.85 Q37.35 4.25 36.45 6.7 35.8 8.3 28.6 16.7 L25.5 18.65 Q23.8 19.55 22.85 21.25 L22.6 21.7 22.2 21.4 21.55 20.8 38.1 2.85 M36.4 5.9 L36.15 5.8 Q35.9 5.85 35.7 6.1 35.55 6.35 35.55 6.75 35.35 7.15 35.3 7.75 35.25 8.45 35.8 7.7 L36.35 6.5 36.5 6.2 36.4 5.9 M26.75 15.5 Q23.85 19.0 27.85 16.6 L33.4 10.65 Q35.65 6.8 34.4 7.7 L26.75 15.5 M17.95 25.25 L17.8 25.1 17.85 25.05 15.95 23.45 15.75 23.15 16.1 22.85 18.5 24.45 17.95 25.25 M20.55 19.85 L20.35 19.75 20.35 19.65 20.55 19.85 M21.05 31.3 L21.3 31.6 21.3 32.05 21.25 32.1 Q21.35 32.45 21.05 32.85 L20.9 32.85 20.65 33.05 20.25 33.15 19.45 33.0 19.25 32.3 Q19.2 32.15 19.3 32.05 19.3 31.75 19.6 31.55 19.9 31.15 20.3 31.2 L20.35 31.1 20.45 31.1 20.5 31.1 21.05 31.2 21.05 31.3 M20.3 31.2 L20.45 31.1 20.3 31.2" fill="#509396" fill-rule="evenodd" stroke="none"/>
      <path d="M36.4 5.9 L36.5 6.2 36.35 6.5 35.8 7.7 Q35.25 8.45 35.3 7.75 35.35 7.15 35.55 6.75 35.55 6.35 35.7 6.1 35.9 5.85 36.15 5.8 L36.4 5.9 M26.75 15.5 L34.4 7.7 Q35.65 6.8 33.4 10.65 L27.85 16.6 Q23.85 19.0 26.75 15.5 M15.5 23.85 L19.3 26.55 16.65 25.65 15.6 24.55 15.15 24.25 15.5 23.85 M20.2 20.5 L22.1 21.7 19.85 24.05 18.35 22.6 20.2 20.5 M7.2 39.7 L6.7 40.3 5.15 39.7 3.9 38.55 3.15 37.05 3.2 36.9 4.3 37.85 4.2 37.9 4.75 38.3 4.85 38.3 5.0 38.45 7.2 39.7 M8.7 33.2 L8.75 33.25 8.65 33.2 8.7 33.2 M9.05 32.95 L9.0 33.0 8.95 32.9 9.05 32.95" fill="#61a9a9" fill-rule="evenodd" stroke="none"/>
      <path d="M6.3 34.5 L6.55 34.15 7.0 34.6 7.15 34.7 7.1 34.7 Q6.9 34.75 7.0 34.9 6.9 35.0 6.95 35.15 L6.3 34.5 M8.0 32.6 L8.3 32.15 8.5 32.5 8.8 32.7 8.8 32.8 8.65 32.75 8.6 32.95 8.5 33.1 8.0 32.6 M9.7 30.65 L9.95 30.35 10.35 30.7 12.0 32.3 11.75 32.65 10.45 31.4 10.6 31.25 10.65 31.2 10.6 31.1 10.55 31.05 10.55 30.9 10.5 30.9 10.3 30.9 10.25 31.0 10.15 31.15 9.7 30.65 M11.4 28.85 L11.7 28.4 12.0 28.7 12.2 28.9 11.95 28.95 11.95 29.15 11.85 29.25 11.4 28.85 M13.8 30.4 L13.5 30.7 12.1 29.45 Q12.1 29.35 12.2 29.4 L12.35 29.35 12.35 29.25 12.4 29.1 13.8 30.4 M12.3 29.05 L12.4 29.1 12.25 29.1 12.3 29.05 M8.7 33.2 L8.9 33.2 8.95 33.25 9.0 33.1 9.0 33.0 9.05 32.95 10.35 34.05 9.95 34.45 9.8 34.35 8.75 33.25 8.7 33.2 M8.55 36.0 L8.15 36.25 7.0 35.2 7.15 35.15 7.25 35.1 7.3 35.15 7.35 35.0 7.35 34.9 8.55 36.0" fill="#cb1b1b" fill-rule="evenodd" stroke="none"/>
      <path d="M12.4 29.1 L12.35 29.25 12.35 29.35 12.2 29.4 Q12.1 29.35 12.1 29.45 L11.85 29.25 11.95 29.15 11.95 28.95 12.2 28.9 12.25 29.05 12.3 29.05 12.25 29.1 12.4 29.1 M10.15 31.15 L10.25 31.0 10.3 30.9 10.5 30.9 10.55 30.9 10.55 31.05 10.6 31.1 10.65 31.2 10.6 31.25 10.45 31.4 10.15 31.15 M9.0 33.0 L9.0 33.1 8.95 33.25 8.9 33.2 8.7 33.2 8.65 33.2 8.5 33.1 8.6 32.95 8.65 32.75 8.8 32.8 8.8 32.7 8.85 32.75 8.95 32.9 9.0 33.0 M6.95 35.15 Q6.9 35.0 7.0 34.9 6.9 34.75 7.1 34.7 L7.15 34.7 7.35 34.9 7.35 35.0 7.3 35.15 7.25 35.1 7.15 35.15 7.0 35.2 6.95 35.15" fill="#ff7b35" fill-rule="evenodd" stroke="none"/>
      <path d="M14.95 29.4 L13.8 30.4 12.4 29.1 12.3 29.05 12.25 29.05 12.2 28.9 12.0 28.7 Q12.95 27.35 14.95 29.4 M11.6 32.85 L10.35 34.05 9.05 32.95 8.95 32.9 8.85 32.75 8.8 32.7 8.5 32.5 Q9.4 30.9 11.6 32.85 M12.0 32.3 L10.35 30.7 Q11.25 29.1 13.35 31.05 L12.0 32.3 M9.8 34.35 L9.95 34.45 Q9.55 35.45 8.55 36.0 L7.35 34.9 7.15 34.7 7.0 34.6 Q7.4 32.8 9.8 34.35 M8.1 36.4 L7.4 37.2 5.9 35.8 Q5.8 34.55 8.1 36.4" fill="#8f5345" fill-rule="evenodd" stroke="none"/>
      <path d="M22.6 21.7 L22.85 22.0 23.65 22.8 21.15 25.4 20.1 24.4 20.1 24.3 19.85 24.05 22.1 21.7 22.2 21.4 22.6 21.7 M19.3 26.55 L19.75 27.0 17.95 25.25 18.5 24.45 20.6 25.95 20.8 26.15 20.7 26.25 20.3 26.55 19.95 27.1 20.1 27.15 20.45 27.45 20.6 27.55 19.8 28.5 18.05 27.0 16.65 25.65 19.3 26.55 M19.95 27.1 L19.75 27.0 19.95 27.1" fill="#3c6f6f" fill-rule="evenodd" stroke="none"/>
      <path d="M17.4 23.05 L18.0 22.45 18.0 22.4 18.35 22.6 19.85 24.05 20.1 24.3 20.1 24.4 19.5 24.9 18.65 24.2 18.45 23.95 17.4 23.05" fill="#152626" fill-rule="evenodd" stroke="none"/>
      <path d="M20.7 26.25 L21.45 26.8 Q22.25 27.55 22.1 28.7 L22.05 28.8 21.8 29.65 21.8 29.9 21.5 30.4 21.1 31.1 21.05 31.3 21.05 31.2 20.5 31.1 20.45 31.1 20.95 29.95 21.35 28.85 Q21.55 27.75 20.6 26.95 L20.3 26.55 20.7 26.25" fill="#356262" fill-rule="evenodd" stroke="none"/>
      <path d="M17.2 27.9 L17.25 28.5 17.25 28.35 16.4 27.7 16.35 27.75 16.4 27.65 16.4 27.7 16.4 27.65 14.25 25.7 14.75 25.6 17.2 27.9" fill="#6f4335" fill-rule="evenodd" stroke="none"/>
      <path d="M18.05 27.0 Q17.4 27.1 17.2 27.9 L14.75 25.6 Q15.6 25.45 15.6 24.55 L16.65 25.65 18.05 27.0" fill="#452b21" fill-rule="evenodd" stroke="none"/>
      <path d="M15.3 23.65 L15.5 23.85 15.15 24.25 14.8 24.0 15.3 23.65" fill="#c4dcdf" fill-rule="evenodd" stroke="none"/>
      <path d="M17.25 28.5 Q17.1 29.25 16.5 29.3 L14.15 27.25 14.05 27.1 13.95 27.05 13.35 26.6 13.5 26.2 17.25 28.35 17.25 28.5 M4.4 36.95 Q5.45 36.85 5.45 35.8 L6.55 36.9 Q4.85 36.5 6.0 38.4 L5.25 37.75 4.75 37.35 4.4 36.95" fill="#512e26" fill-rule="evenodd" stroke="none"/>
      <path d="M16.5 29.3 L16.05 29.65 15.25 28.9 13.9 27.6 13.75 27.5 13.65 27.4 13.1 26.9 13.35 26.6 13.95 27.05 14.05 27.1 14.15 27.25 16.5 29.3" fill="#710f10" fill-rule="evenodd" stroke="none"/>
      <path d="M16.05 29.65 Q15.7 30.7 14.65 31.2 L13.8 30.4 14.95 29.4 15.25 28.9 16.05 29.65 M14.4 31.5 Q13.95 32.6 12.9 33.05 L12.0 32.3 13.35 31.05 13.5 30.7 14.4 31.5 M12.6 33.45 Q12.2 34.4 11.15 34.85 L10.35 34.05 11.6 32.85 11.75 32.65 12.6 33.45 M10.7 35.15 Q10.45 36.35 9.35 36.65 L8.55 36.0 Q9.55 35.45 9.95 34.45 L10.7 35.15 M8.95 37.0 Q8.8 37.55 8.25 37.85 L7.4 37.2 8.1 36.4 8.15 36.25 8.95 37.0" fill="#5b352d" fill-rule="evenodd" stroke="none"/>
      <path d="M14.65 31.2 L14.4 31.5 13.5 30.7 13.8 30.4 14.65 31.2 M12.9 33.05 L12.6 33.45 11.75 32.65 12.0 32.3 12.9 33.05 M11.15 34.85 L10.7 35.15 9.95 34.45 10.35 34.05 11.15 34.85 M9.35 36.65 L8.95 37.0 8.15 36.25 8.55 36.0 9.35 36.65" fill="#8e1313" fill-rule="evenodd" stroke="none"/>
      <path d="M4.75 37.35 L5.25 37.75 4.85 38.3 4.75 38.3 4.2 37.9 4.3 37.85 4.75 37.35" fill="#b9f4e7" fill-rule="evenodd" stroke="none"/>
      <path d="M8.25 37.85 L7.8 37.95 6.55 36.9 5.45 35.8 5.5 35.4 5.9 35.8 7.4 37.2 8.25 37.85" fill="#000000" fill-rule="evenodd" stroke="none"/>
      <path d="M20.15 19.5 L20.35 19.65 20.35 19.75 20.55 19.85 20.75 19.95 21.55 20.8 22.2 21.4 22.1 21.7 20.2 20.5 19.3 20.1 17.3 21.85 16.85 21.4 19.3 18.7 19.9 19.35 20.1 19.55 20.15 19.5 M14.3 22.65 L14.7 22.15 15.4 22.8 15.75 23.15 15.4 22.8 16.2 21.9 17.4 23.05 18.45 23.95 18.65 24.2 19.5 24.9 20.6 25.95 18.5 24.45 16.1 22.85 15.75 23.15 15.95 23.45 17.85 25.05 17.8 25.1 17.95 25.25 19.75 27.0 19.3 26.55 15.5 23.85 15.3 23.65 14.3 22.65 M6.7 39.05 L7.3 39.7 7.2 39.7 5.0 38.45 4.85 38.3 5.25 37.75 6.0 38.4 6.7 39.05 M3.2 36.9 L3.7 36.3 4.4 36.95 4.75 37.35 4.3 37.85 3.2 36.9" fill="#e9f3ed" fill-rule="evenodd" stroke="none"/>
      <path d="M5.5 35.4 Q5.5 34.75 6.3 34.5 L6.95 35.15 7.0 35.2 8.15 36.25 8.1 36.4 Q5.8 34.55 5.9 35.8 L5.5 35.4 M6.55 34.15 Q6.9 33.2 8.0 32.6 L8.5 33.1 8.65 33.2 8.75 33.25 9.8 34.35 Q7.4 32.8 7.0 34.6 L6.55 34.15 M8.3 32.15 Q8.7 31.15 9.7 30.65 L10.15 31.15 10.45 31.4 11.75 32.65 11.6 32.85 Q9.4 30.9 8.5 32.5 L8.3 32.15 M9.95 30.35 Q10.45 29.25 11.4 28.85 L11.85 29.25 12.1 29.45 13.5 30.7 13.35 31.05 Q11.25 29.1 10.35 30.7 L9.95 30.35 M11.7 28.4 Q11.95 27.35 13.1 26.9 L13.65 27.4 13.75 27.5 13.9 27.6 15.25 28.9 14.95 29.4 Q12.95 27.35 12.0 28.7 L11.7 28.4 M13.5 26.2 Q13.55 25.7 14.25 25.7 L16.4 27.65 16.35 27.75 16.4 27.7 17.25 28.35 13.5 26.2" fill="#d0a79d" fill-rule="evenodd" stroke="none"/>
      <path d="M7.8 37.95 Q6.85 38.2 6.7 39.05 L6.0 38.4 Q4.85 36.5 6.55 36.9 L7.8 37.95" fill="#361e19" fill-rule="evenodd" stroke="none"/>
      <path d="M39.7 1.05 Q38.25 2.25 34.1 4.5 32.6 5.35 24.85 13.25 24.05 14.05 23.05 16.4 22.1 18.3 20.15 19.5 L20.35 19.65 20.55 19.85 20.35 19.75 20.35 19.65 M22.6 21.7 L22.85 22.0 Q23.9 19.95 25.75 18.85 L28.75 16.75 Q35.9 8.4 36.65 6.85 38.65 2.55 39.7 1.05 M15.4 22.8 L14.7 22.15 14.3 22.65 M19.75 27.0 L17.95 25.25 17.8 25.1 M17.85 25.05 L15.95 23.45 15.75 23.15 15.4 22.8 16.2 21.9 17.4 23.05 M18.0 22.45 L17.3 21.85 16.85 21.4 19.3 18.7 19.9 19.35 20.15 19.5 20.1 19.55 19.9 19.35 M18.35 22.6 L18.0 22.4 18.0 22.45 M20.6 25.95 L19.5 24.9 18.65 24.2 M18.45 23.95 L17.4 23.05 M22.2 21.4 L21.55 20.8 20.75 19.95 20.55 19.85 M19.85 24.05 L18.35 22.6 M20.1 24.4 L20.1 24.3 19.85 24.05 M22.85 22.0 L23.65 22.8 21.15 25.4 20.1 24.4 M22.6 21.7 L22.2 21.4 M20.7 26.25 L21.45 26.8 Q22.25 27.55 22.1 28.7 L22.05 28.8 21.8 29.65 21.8 29.9 21.5 30.4 21.1 31.1 21.05 31.3 21.3 31.6 21.3 32.05 21.25 32.1 Q21.35 32.45 21.05 32.85 L20.9 32.85 20.65 33.05 20.25 33.15 19.45 33.0 19.25 32.3 Q19.2 32.15 19.3 32.05 19.3 31.75 19.6 31.55 19.9 31.15 20.3 31.2 L20.35 31.1 20.45 31.1 20.95 29.95 21.35 28.85 Q21.55 27.75 20.6 26.95 L20.3 26.55 19.95 27.1 20.1 27.15 M20.45 27.45 L20.6 27.55 19.8 28.5 18.05 27.0 Q17.4 27.1 17.2 27.9 L14.75 25.6 Q15.6 25.45 15.6 24.55 L15.15 24.25 14.8 24.0 13.9 23.05 14.3 22.65 M17.25 28.5 Q17.1 29.25 16.5 29.3 L16.05 29.65 Q15.7 30.7 14.65 31.2 L14.4 31.5 Q13.95 32.6 12.9 33.05 L12.6 33.45 Q12.2 34.4 11.15 34.85 L10.7 35.15 Q10.45 36.35 9.35 36.65 L8.95 37.0 Q8.8 37.55 8.25 37.85 M7.8 37.95 Q6.85 38.2 6.7 39.05 L7.3 39.7 7.2 39.7 6.7 40.3 5.15 39.7 3.9 38.55 3.15 37.05 3.2 36.9 3.7 36.3 4.4 36.95 Q5.45 36.85 5.45 35.8 M5.5 35.4 Q5.5 34.75 6.3 34.5 L6.55 34.15 Q6.9 33.2 8.0 32.6 L8.3 32.15 Q8.7 31.15 9.7 30.65 L9.95 30.35 Q10.45 29.25 11.4 28.85 L11.7 28.4 Q11.95 27.35 13.1 26.9 L13.35 26.6 13.5 26.2 Q13.55 25.7 14.25 25.7 M20.7 26.25 L20.3 26.55 M20.6 25.95 L20.8 26.15 20.7 26.25 M19.75 27.0 L19.95 27.1 M16.4 27.65 L16.35 27.75 16.4 27.7 16.4 27.65 14.25 25.7 M17.25 28.35 L17.25 28.5 M18.05 27.0 L16.65 25.65 15.6 24.55 M16.4 27.7 L17.25 28.35 M20.45 31.1 L20.5 31.1 21.05 31.2 21.05 31.3 M20.45 31.1 L20.3 31.2 M5.9 35.8 L5.5 35.4 M4.75 37.35 L5.25 37.75 6.0 38.4 M6.55 36.9 L5.45 35.8 M4.4 36.95 L4.75 37.35 M7.4 37.2 L8.25 37.85 M7.8 37.95 L6.55 36.9 M7.4 37.2 L5.9 35.8 M6.7 39.05 L6.0 38.4" fill="none" stroke="#000000" stroke-linecap="round" stroke-linejoin="round" stroke-opacity="0.3137255" stroke-width="0.5"/>
      <path d="M38.1 2.85 L39.7 1.05 M21.55 20.8 L38.1 2.85" fill="none" stroke="#ffffff" stroke-linecap="round" stroke-linejoin="round" stroke-opacity="0.3019608" stroke-width="0.5"/>
      <path d="M20.15 31.7 L20.05 31.5 Q20.0 31.35 20.1 31.25 L20.35 31.15 20.6 31.2 20.65 31.45 20.55 31.65 20.35 31.8 20.15 31.7" fill="#f1f7f8" fill-rule="evenodd" stroke="none"/>
      <path d="M32.85 16.55 Q29.6 19.05 26.35 19.45 23.15 19.9 21.85 18.05 20.5 16.25 21.9 13.25 23.35 10.25 26.65 7.9 29.95 5.5 33.25 5.05 36.5 4.65 37.75 6.45 39.1 8.3 37.7 11.2 36.2 14.2 32.85 16.55" fill="url(#gradient0)" fill-rule="evenodd" stroke="none"/>
    </g>
    <radialGradient cx="0" cy="0" gradientTransform="matrix(0.0126, -0.0092, 0.0049, 0.0069, 29.85, 12.3)" gradientUnits="userSpaceOnUse" id="gradient0" r="819.2" spreadMethod="pad">
      <stop offset="0.0" stop-color="#ffffde" stop-opacity="0.52156866"/>
      <stop offset="0.4117647058823529" stop-color="#ffffcc" stop-opacity="0.0"/>
    </radialGradient>
    <g id="sprite0" transform="matrix(1.0, 0.0, 0.0, 1.0, 0.25, 0.25)">
      <use height="44.0" transform="matrix(1.0, 0.0, 0.0, 1.0, -0.25, -0.25)" width="42.65" xlink:href="#shape1"/>
    </g>
    <g id="shape1" transform="matrix(1.0, 0.0, 0.0, 1.0, 0.25, 0.25)">
      <path d="M31.7 7.65 Q35.9 4.95 35.0 6.3 L26.55 15.4 Q22.95 18.95 25.35 14.2 L31.7 7.65 M36.05 4.0 L36.5 3.9 36.8 3.95 36.95 4.25 36.6 4.65 35.95 5.1 34.75 5.35 Q34.05 5.4 34.85 4.8 35.75 4.1 36.05 4.0 M40.25 1.9 L42.15 0.0 Q40.85 1.65 38.6 6.45 37.75 8.3 29.45 17.45 28.5 18.4 25.95 19.75 23.95 20.95 22.7 23.2 L22.4 22.95 22.7 22.4 Q23.75 20.45 25.65 19.5 28.35 18.2 29.2 17.3 37.6 8.05 38.35 6.25 L40.25 1.9" fill="#98a8a8" fill-rule="evenodd" stroke="none"/>
      <path d="M31.7 7.65 L25.35 14.2 Q22.95 18.95 26.55 15.4 L35.0 6.3 Q35.9 4.95 31.7 7.65 M36.05 4.0 Q35.75 4.1 34.85 4.8 34.05 5.4 34.75 5.35 L35.95 5.1 36.6 4.65 36.95 4.25 36.8 3.95 36.5 3.9 36.05 4.0 36.0 3.9 40.25 1.9 21.15 21.75 20.25 20.85 20.05 20.75 19.9 20.5 Q22.2 19.25 23.2 17.15 24.4 14.4 25.2 13.45 34.1 4.8 36.0 3.95 L36.05 4.0 M13.5 25.25 L12.4 24.05 12.9 23.6 14.0 24.75 13.5 25.25 M17.1 23.5 L16.35 22.75 18.65 20.9 19.7 21.35 17.5 23.7 17.15 23.45 17.1 23.5" fill="#7e9a9b" fill-rule="evenodd" stroke="none"/>
      <path d="M36.05 4.0 L36.0 3.95 36.0 3.9 36.05 4.0 M19.9 20.5 L20.05 20.75 19.85 20.55 19.9 20.5 M21.15 21.75 L40.25 1.9 38.35 6.25 Q37.6 8.05 29.2 17.3 28.35 18.2 25.65 19.5 23.75 20.45 22.7 22.4 L22.4 22.95 21.95 22.6 21.15 21.75 M37.55 5.6 L37.25 6.3 37.0 7.45 Q36.9 8.25 37.55 7.35 L38.3 6.2 38.4 5.65 38.3 5.35 38.0 5.3 Q37.8 5.35 37.55 5.6 M20.45 33.8 L20.5 33.8 20.7 34.1 20.8 34.6 20.75 34.65 20.4 35.45 20.3 35.55 20.0 35.8 19.5 35.9 18.65 35.7 Q18.35 35.35 18.35 34.85 L18.45 34.55 18.8 34.0 Q19.15 33.6 19.6 33.6 L19.6 33.5 19.65 33.5 19.9 33.5 20.4 33.7 20.45 33.8 M27.2 16.0 Q23.85 19.85 28.4 17.25 L34.8 10.65 Q37.4 6.3 36.0 7.3 L27.2 16.0 M16.85 26.45 L14.8 24.6 14.5 24.25 15.0 23.9 17.6 25.8 17.05 26.75 16.9 26.55 16.85 26.45 M19.6 33.6 L19.65 33.5 19.6 33.6" fill="#3b6c6e" fill-rule="evenodd" stroke="none"/>
      <path d="M36.0 3.95 Q34.1 4.8 25.2 13.45 24.4 14.4 23.2 17.15 22.2 19.25 19.9 20.5 L19.65 20.2 Q21.85 18.95 22.95 16.9 24.2 14.2 25.05 13.25 33.95 4.6 35.7 3.65 40.5 1.25 42.15 0.0 L40.25 1.9 36.0 3.9 36.0 3.95" fill="#acb2b3" fill-rule="evenodd" stroke="none"/>
      <path d="M37.55 5.6 Q37.8 5.35 38.0 5.3 L38.3 5.35 38.4 5.65 38.3 6.2 37.55 7.35 Q36.9 8.25 37.0 7.45 L37.25 6.3 37.55 5.6 M4.6 42.9 L3.95 43.5 2.25 42.7 0.85 41.3 0.0 39.6 0.05 39.55 1.3 40.6 1.25 40.65 1.75 41.15 1.85 41.05 2.05 41.3 4.6 42.9 M14.25 25.9 L13.85 25.5 14.25 25.1 14.35 25.05 18.45 28.25 15.55 27.15 14.25 25.9 M27.2 16.0 L36.0 7.3 Q37.4 6.3 34.8 10.65 L28.4 17.25 Q23.85 19.85 27.2 16.0 M12.55 28.75 L12.6 28.85 12.6 28.9 12.55 28.75 M12.25 29.2 L12.3 29.25 12.3 29.3 12.25 29.2 M21.9 22.85 L19.2 25.4 17.5 23.7 19.7 21.35 21.9 22.85 M6.45 34.95 L6.5 34.9 6.6 35.0 6.45 34.95 M6.75 35.2 L6.7 35.15 6.7 35.1 6.75 35.2 M6.45 35.55 L6.4 35.6 6.3 35.5 6.45 35.55" fill="#477c7c" fill-rule="evenodd" stroke="none"/>
      <path d="M20.05 20.75 L20.25 20.85 21.15 21.75 21.95 22.6 21.9 22.85 19.7 21.35 18.65 20.9 16.35 22.75 15.8 22.3 18.7 19.35 19.35 20.05 19.55 20.3 19.65 20.2 19.9 20.5 19.85 20.55 20.05 20.75 M18.8 26.45 L20.05 27.6 17.6 25.8 15.0 23.9 14.5 24.25 14.8 24.6 16.85 26.45 16.9 26.55 17.05 26.75 19.3 28.9 19.4 29.0 18.45 28.25 14.35 25.05 14.0 24.8 14.0 24.75 12.9 23.6 13.35 23.1 14.1 23.8 15.1 22.9 16.45 24.15 17.6 25.3 17.75 25.55 18.8 26.45 M4.0 42.05 L4.7 42.8 4.6 42.9 2.05 41.3 1.85 41.05 2.35 40.5 3.15 41.3 4.0 42.05 M0.05 39.55 L0.6 38.85 1.35 39.65 1.8 40.0 1.3 40.6 0.05 39.55 M14.1 23.8 L14.5 24.25 14.1 23.8" fill="#acb3ae" fill-rule="evenodd" stroke="none"/>
      <path d="M13.85 25.5 L13.5 25.25 14.0 24.75 14.0 24.8 14.35 25.05 14.25 25.1 13.85 25.5" fill="#90a2a4" fill-rule="evenodd" stroke="none"/>
      <path d="M16.15 29.7 L16.2 30.4 16.1 30.3 15.25 29.45 15.1 29.55 15.15 29.4 12.75 27.1 13.3 27.05 16.15 29.7 M15.25 29.45 L15.15 29.4 15.25 29.45" fill="#513127" fill-rule="evenodd" stroke="none"/>
      <path d="M17.15 28.7 Q16.4 28.8 16.15 29.7 L13.3 27.05 Q14.3 27.0 14.25 25.9 L15.55 27.15 17.15 28.7" fill="#321f18" fill-rule="evenodd" stroke="none"/>
      <path d="M2.65 37.85 Q2.65 37.05 3.55 36.85 L4.3 37.65 4.35 37.65 5.75 38.95 5.65 39.05 Q3.1 36.9 3.1 38.3 L2.65 37.85 M3.95 36.45 Q4.3 35.35 5.5 34.75 L6.15 35.35 6.3 35.5 6.4 35.6 7.6 36.75 Q4.95 35.05 4.5 37.0 L3.95 36.45 M5.9 34.3 Q6.4 33.15 7.5 32.6 L8.1 33.2 8.35 33.45 9.8 34.9 9.65 35.15 Q7.15 32.9 6.2 34.6 L5.9 34.3 M7.9 32.2 Q8.4 30.95 9.5 30.55 L10.1 31.1 Q10.05 31.3 10.3 31.35 L11.85 32.85 11.7 33.15 Q9.3 30.95 8.35 32.65 L7.9 32.2 M9.85 30.2 Q10.2 28.9 11.45 28.4 L12.1 29.05 12.25 29.2 12.3 29.3 13.85 30.8 13.6 31.4 Q11.3 28.95 10.2 30.55 L9.85 30.2 M11.9 27.75 Q12.05 27.15 12.75 27.1 L15.15 29.4 15.1 29.55 15.25 29.45 16.1 30.3 11.9 27.75" fill="#997b73" fill-rule="evenodd" stroke="none"/>
      <path d="M3.55 36.85 L3.95 36.45 4.5 37.0 4.55 37.05 4.45 37.05 4.3 37.3 4.3 37.65 3.55 36.85 M5.5 34.75 L5.9 34.3 6.2 34.6 6.5 34.9 6.45 34.95 6.25 34.95 6.2 35.15 6.15 35.35 5.5 34.75 M7.5 32.6 L7.9 32.2 8.35 32.65 10.2 34.55 9.8 34.9 8.35 33.45 8.5 33.35 8.55 33.2 8.65 33.05 8.6 33.05 8.5 32.95 8.4 32.85 8.2 32.85 8.1 33.1 8.1 33.2 7.5 32.6 M9.5 30.55 L9.85 30.2 10.2 30.55 10.35 30.7 10.2 30.75 10.05 30.95 10.1 31.1 9.5 30.55 M10.3 31.35 L10.45 31.25 10.55 31.25 10.55 31.1 10.6 30.95 10.55 30.95 10.55 30.9 10.6 30.95 12.25 32.5 11.85 32.85 10.3 31.35 M6.4 35.6 L6.45 35.55 6.55 35.45 6.65 35.5 6.7 35.35 6.75 35.2 8.2 36.55 7.8 36.9 7.6 36.75 6.4 35.6 M6.15 38.55 L5.75 38.95 4.35 37.65 4.5 37.7 4.7 37.65 4.75 37.6 4.8 37.45 4.8 37.35 6.15 38.55" fill="#951313" fill-rule="evenodd" stroke="none"/>
      <path d="M10.1 31.1 L10.05 30.95 10.2 30.75 10.35 30.7 10.55 30.9 10.55 30.95 10.6 30.95 10.55 31.1 10.55 31.25 10.45 31.25 10.3 31.35 Q10.05 31.3 10.1 31.1 M8.1 33.2 L8.1 33.1 8.2 32.85 8.4 32.85 8.5 32.95 8.6 33.05 8.65 33.05 8.55 33.2 8.5 33.35 8.35 33.45 8.1 33.2 M6.15 35.35 L6.2 35.15 6.25 34.95 6.45 34.95 6.6 35.0 6.7 35.1 6.7 35.15 6.75 35.2 6.7 35.35 6.65 35.5 6.55 35.45 6.45 35.55 6.3 35.5 6.15 35.35 M4.8 37.35 L4.8 37.45 4.75 37.6 4.7 37.65 4.5 37.7 4.35 37.65 4.3 37.65 4.3 37.3 4.45 37.05 4.55 37.05 4.8 37.35" fill="#bc5a27" fill-rule="evenodd" stroke="none"/>
      <path d="M16.2 30.4 Q15.95 31.25 15.3 31.3 L12.6 28.85 12.55 28.75 12.5 28.7 12.4 28.65 11.8 28.1 11.9 27.75 16.1 30.3 16.2 30.4 M1.35 39.65 Q2.6 39.55 2.6 38.3 L3.9 39.55 Q1.9 39.1 3.15 41.3 L2.35 40.5 1.8 40.0 1.35 39.65" fill="#3b211c" fill-rule="evenodd" stroke="none"/>
      <path d="M15.3 31.3 L14.85 31.75 13.85 30.8 12.3 29.3 12.3 29.25 12.25 29.2 12.1 29.05 11.45 28.4 11.8 28.1 12.4 28.65 12.5 28.7 12.55 28.75 12.6 28.9 12.6 28.85 15.3 31.3" fill="#530b0b" fill-rule="evenodd" stroke="none"/>
      <path d="M10.55 30.9 L10.35 30.7 10.2 30.55 Q11.3 28.95 13.6 31.4 L12.25 32.5 10.6 30.95 10.55 30.9 M10.2 34.55 L8.35 32.65 Q9.3 30.95 11.7 33.15 11.1 34.15 10.2 34.55 M6.5 34.9 L6.2 34.6 Q7.15 32.9 9.65 35.15 9.0 36.1 8.2 36.55 L6.75 35.2 6.7 35.1 6.6 35.0 6.5 34.9 M7.6 36.75 L7.8 36.9 Q7.25 38.0 6.15 38.55 L4.8 37.35 4.55 37.05 4.5 37.0 Q4.95 35.05 7.6 36.75 M3.1 38.3 Q3.1 36.9 5.65 39.05 L4.85 39.9 3.1 38.3" fill="#693d32" fill-rule="evenodd" stroke="none"/>
      <path d="M14.85 31.75 Q14.4 32.9 13.15 33.4 L12.25 32.5 13.6 31.4 13.85 30.8 14.85 31.75 M12.8 33.75 Q12.35 35.0 11.1 35.45 L10.2 34.55 Q11.1 34.15 11.7 33.15 L11.85 32.85 12.8 33.75 M10.75 35.85 Q10.35 37.0 9.15 37.45 L8.2 36.55 Q9.0 36.1 9.65 35.15 L9.8 34.9 10.75 35.85 M8.7 37.8 Q8.35 39.05 7.1 39.45 L6.15 38.55 Q7.25 38.0 7.8 36.9 L8.7 37.8 M6.65 39.85 L5.7 40.8 4.85 39.9 5.65 39.05 5.75 38.95 6.65 39.85" fill="#432721" fill-rule="evenodd" stroke="none"/>
      <path d="M13.15 33.4 L12.8 33.75 11.85 32.85 12.25 32.5 13.15 33.4 M11.1 35.45 L10.75 35.85 9.8 34.9 10.2 34.55 11.1 35.45 M9.15 37.45 L8.7 37.8 7.8 36.9 8.2 36.55 9.15 37.45 M7.1 39.45 L6.65 39.85 5.75 38.95 6.15 38.55 7.1 39.45" fill="#680e0e" fill-rule="evenodd" stroke="none"/>
      <path d="M22.7 23.2 L23.6 24.1 20.7 27.05 19.5 25.85 19.55 25.75 19.2 25.4 21.9 22.85 21.95 22.6 22.4 22.95 22.7 23.2 M20.05 27.6 L20.25 27.8 20.2 27.95 19.7 28.4 19.3 28.9 17.05 26.75 17.6 25.8 20.05 27.6 M19.4 29.0 L19.85 29.45 20.05 29.55 19.1 30.5 17.15 28.7 15.55 27.15 18.45 28.25 19.4 29.0" fill="#2c5151" fill-rule="evenodd" stroke="none"/>
      <path d="M19.5 25.85 L18.8 26.45 17.75 25.55 17.6 25.3 16.45 24.15 17.1 23.5 17.15 23.45 17.5 23.7 19.2 25.4 19.55 25.75 19.5 25.85" fill="#0f1c1c" fill-rule="evenodd" stroke="none"/>
      <path d="M20.2 27.95 L21.0 28.65 Q21.85 29.45 21.65 30.8 L21.65 30.95 21.4 31.9 21.3 32.2 21.0 32.85 20.6 33.55 20.45 33.8 20.4 33.7 19.9 33.5 19.65 33.5 20.4 32.15 20.8 31.1 Q21.05 29.75 20.0 28.7 L19.7 28.4 20.2 27.95" fill="#274848" fill-rule="evenodd" stroke="none"/>
      <path d="M5.7 40.8 L5.25 40.85 3.9 39.55 2.6 38.3 2.65 37.85 3.1 38.3 4.85 39.9 5.7 40.8" fill="#000000" fill-rule="evenodd" stroke="none"/>
      <path d="M5.25 40.85 Q4.2 41.05 4.0 42.05 L3.15 41.3 Q1.9 39.1 3.9 39.55 L5.25 40.85" fill="#271612" fill-rule="evenodd" stroke="none"/>
      <path d="M2.35 40.5 L1.85 41.05 1.75 41.15 1.25 40.65 1.3 40.6 1.8 40.0 2.35 40.5" fill="#88b4aa" fill-rule="evenodd" stroke="none"/>
      <path d="M19.9 20.5 L20.05 20.75 20.25 20.85 21.15 21.75 21.95 22.6 M42.15 0.0 Q40.5 1.25 35.7 3.65 33.95 4.6 25.05 13.25 24.2 14.2 22.95 16.9 21.85 18.95 19.65 20.2 L19.9 20.5 19.85 20.55 20.05 20.75 M42.15 0.0 Q40.85 1.65 38.6 6.45 37.75 8.3 29.45 17.45 28.5 18.4 25.95 19.75 23.95 20.95 22.7 23.2 L23.6 24.1 20.7 27.05 19.5 25.85 M18.8 26.45 L20.05 27.6 20.25 27.8 20.2 27.95 21.0 28.65 Q21.85 29.45 21.65 30.8 L21.65 30.95 21.4 31.9 21.3 32.2 21.0 32.85 20.6 33.55 20.45 33.8 20.5 33.8 20.7 34.1 20.8 34.6 20.75 34.65 20.4 35.45 20.3 35.55 20.0 35.8 19.5 35.9 18.65 35.7 Q18.35 35.35 18.35 34.85 L18.45 34.55 18.8 34.0 Q19.15 33.6 19.6 33.6 L19.6 33.5 19.65 33.5 20.4 32.15 20.8 31.1 Q21.05 29.75 20.0 28.7 L19.7 28.4 19.3 28.9 19.4 29.0 M19.85 29.45 L20.05 29.55 19.1 30.5 17.15 28.7 Q16.4 28.8 16.15 29.7 L13.3 27.05 Q14.3 27.0 14.25 25.9 L13.85 25.5 13.5 25.25 12.4 24.05 12.9 23.6 13.35 23.1 14.1 23.8 15.1 22.9 16.45 24.15 M16.2 30.4 Q15.95 31.25 15.3 31.3 L14.85 31.75 Q14.4 32.9 13.15 33.4 L12.8 33.75 Q12.35 35.0 11.1 35.45 L10.75 35.85 Q10.35 37.0 9.15 37.45 L8.7 37.8 Q8.35 39.05 7.1 39.45 L6.65 39.85 5.7 40.8 M5.25 40.85 Q4.2 41.05 4.0 42.05 L4.7 42.8 4.6 42.9 3.95 43.5 2.25 42.7 0.85 41.3 0.0 39.6 0.05 39.55 0.6 38.85 1.35 39.65 Q2.6 39.55 2.6 38.3 M2.65 37.85 Q2.65 37.05 3.55 36.85 L3.95 36.45 Q4.3 35.35 5.5 34.75 L5.9 34.3 Q6.4 33.15 7.5 32.6 L7.9 32.2 Q8.4 30.95 9.5 30.55 L9.85 30.2 Q10.2 28.9 11.45 28.4 L11.8 28.1 11.9 27.75 Q12.05 27.15 12.75 27.1 M17.1 23.5 L16.35 22.75 15.8 22.3 18.7 19.35 19.35 20.05 19.65 20.2 19.55 20.3 19.35 20.05 M16.85 26.45 L14.8 24.6 14.5 24.25 14.1 23.8 M16.1 30.3 L15.25 29.45 15.1 29.55 15.15 29.4 12.75 27.1 M22.7 23.2 L22.4 22.95 21.95 22.6 M19.2 25.4 L19.55 25.75 19.5 25.85 M17.5 23.7 L17.15 23.45 17.1 23.5 M17.05 26.75 L16.9 26.55 M17.6 25.3 L16.45 24.15 M17.5 23.7 L19.2 25.4 M17.75 25.55 L18.8 26.45 M20.2 27.95 L19.7 28.4 M16.2 30.4 L16.1 30.3 M19.3 28.9 L17.05 26.75 M17.15 28.7 L15.55 27.15 14.25 25.9 M15.15 29.4 L15.25 29.45 M20.45 33.8 L20.4 33.7 19.9 33.5 19.65 33.5 19.6 33.6 M2.65 37.85 L3.1 38.3 4.85 39.9 5.7 40.8 M4.0 42.05 L3.15 41.3 2.35 40.5 1.8 40.0 1.35 39.65 M3.9 39.55 L2.6 38.3 M3.9 39.55 L5.25 40.85" fill="none" stroke="#000000" stroke-linecap="round" stroke-linejoin="round" stroke-opacity="0.3137255" stroke-width="0.5"/>
      <path d="M21.15 21.75 L40.25 1.9 42.15 0.0" fill="none" stroke="#bcbcbc" stroke-linecap="round" stroke-linejoin="round" stroke-opacity="0.3019608" stroke-width="0.5"/>
      <path d="M19.45 34.2 L19.3 34.0 Q19.3 33.8 19.45 33.7 19.5 33.6 19.7 33.6 L19.95 33.7 20.1 33.95 19.95 34.2 19.7 34.35 19.45 34.2" fill="#b1b6b7" fill-rule="evenodd" stroke="none"/>
      <path d="M34.2 17.3 Q30.45 19.95 26.75 20.35 23.05 20.7 21.6 18.6 20.1 16.45 21.7 13.1 23.45 9.75 27.25 7.2 31.1 4.55 34.75 4.15 38.45 3.8 39.9 5.95 41.45 8.1 39.75 11.35 38.0 14.75 34.2 17.3" fill="url(#gradient1)" fill-rule="evenodd" stroke="none"/>
    </g>
    <radialGradient cx="0" cy="0" gradientTransform="matrix(0.0145, -0.01, 0.0055, 0.008, 30.8, 12.25)" gradientUnits="userSpaceOnUse" id="gradient1" r="819.2" spreadMethod="pad">
      <stop offset="0.0" stop-color="#bcbca3" stop-opacity="0.52156866"/>
      <stop offset="0.4117647058823529" stop-color="#bcbc96" stop-opacity="0.0"/>
    </radialGradient>
  </defs>
</svg>
