<?xml version="1.0" encoding="UTF-8" standalone="no"?>
<svg xmlns:xlink="http://www.w3.org/1999/xlink" height="440.0px" width="440.0px" xmlns="http://www.w3.org/2000/svg">
  <g transform="matrix(10.0, 0.0, 0.0, 10.0, 0.0, 0.0)">
    <use height="44.0" transform="matrix(1.0, 0.0, 0.0, 1.0, 0.0, 0.0)" width="44.0" xlink:href="#shape0"/>
    <use height="20.95" transform="matrix(-0.2214, 0.0546, 0.1505, 0.2359, 19.0, 27.1)" width="24.45" xlink:href="#sprite0"/>
    <use height="4.25" transform="matrix(1.0, 0.0, 0.0, 1.0, 1.45, 35.75)" width="5.5" xlink:href="#shape2"/>
    <use height="20.95" transform="matrix(-0.2023, 0.0499, 0.1376, 0.2156, 7.05, 35.45)" width="24.45" xlink:href="#sprite0"/>
    <use height="27.2" transform="matrix(1.0, 0.0, 0.0, 1.0, 12.45, 2.15)" width="26.75" xlink:href="#shape3"/>
    <use height="5.05" transform="matrix(0.2675, -0.6995, -0.7011, 0.4751, 37.3815, 5.807)" width="4.45" xlink:href="#sprite1"/>
    <use height="20.95" transform="matrix(-0.4403, -0.0898, -0.0029, 0.3789, 41.9, 3.55)" width="24.45" xlink:href="#sprite0"/>
    <use height="20.95" transform="matrix(0.1407, -0.0841, -0.171, -0.1724, 27.05, 20.05)" width="24.45" xlink:href="#sprite0"/>
    <use height="34.55" transform="matrix(1.0, 0.0, 0.0, 1.0, 16.6, 7.6)" width="25.9" xlink:href="#sprite2"/>
  </g>
  <defs>
    <g id="shape0" transform="matrix(1.0, 0.0, 0.0, 1.0, 0.0, 0.0)">
      <path d="M44.0 44.0 L0.0 44.0 0.0 0.0 44.0 0.0 44.0 44.0" fill="#43adca" fill-opacity="0.0" fill-rule="evenodd" stroke="none"/>
      <path d="M12.5 31.35 Q12.7 30.7 11.5 30.0 L11.25 30.4 12.5 31.35 M7.45 36.05 Q7.7 35.5 6.25 34.45 L6.2 34.45 Q5.9 34.65 5.95 34.95 L7.45 36.05 M8.5 34.8 Q8.8 34.0 7.55 33.2 L7.15 33.75 8.5 34.8 M10.1 31.2 L11.45 32.3 Q11.75 31.55 10.55 30.7 10.1 30.85 10.1 31.2 M8.65 32.35 L9.7 33.2 Q10.1 32.35 9.2 31.7 8.7 31.85 8.65 32.35 M5.05 35.7 Q4.2 36.2 4.2 36.95 L5.5 37.8 Q6.6 36.75 5.05 35.7" fill="#8f5345" fill-rule="evenodd" stroke="none"/>
      <path d="M14.6 30.4 L15.05 30.2 13.35 29.0 13.35 28.95 13.05 29.15 12.8 29.25 14.6 30.4" fill="#452b21" fill-rule="evenodd" stroke="none"/>
      <path d="M13.3 30.75 L13.65 30.7 13.8 30.7 11.8 28.3 11.45 28.05 Q10.95 28.2 11.25 28.9 L11.15 29.05 11.85 29.65 12.05 29.85 13.3 30.75 M10.9 29.25 L10.6 29.2 Q10.45 29.4 10.45 29.55 L10.45 29.85 10.95 30.2 11.25 30.4 11.5 30.0 11.8 30.0 11.6 29.8 10.9 29.25 M10.15 30.05 L10.1 30.1 10.0 30.1 9.55 30.15 Q9.25 30.35 9.35 30.75 L9.85 31.05 10.1 31.2 Q10.1 30.85 10.55 30.7 L10.65 30.65 10.85 30.65 10.7 30.5 10.15 30.05 M8.95 31.15 L8.55 31.35 8.4 31.45 Q8.05 31.7 8.0 32.05 L8.55 32.25 8.65 32.35 Q8.7 31.85 9.2 31.7 L9.5 31.65 9.4 31.55 9.35 31.5 8.95 31.15 M7.4 32.65 L6.7 33.0 6.5 33.35 7.0 33.65 7.15 33.75 7.55 33.2 7.9 33.05 7.8 32.95 7.4 32.65 M5.9 33.8 L5.35 33.95 5.05 34.4 5.7 34.8 5.75 34.8 5.95 34.95 Q5.9 34.65 6.2 34.45 L6.25 34.45 6.5 34.35 6.4 34.25 5.9 33.8 M4.6 34.8 L3.6 35.15 3.25 35.95 Q3.8 36.55 4.25 36.25 L4.45 35.95 Q4.75 35.65 5.35 35.45 L4.7 34.9 4.6 34.8" fill="#5b352d" fill-rule="evenodd" stroke="none"/>
      <path d="M13.35 28.95 L11.6 27.65 11.45 28.05 11.8 28.3 12.85 29.15 12.8 29.25 13.05 29.15 13.35 28.95 M5.05 35.7 L5.45 35.5 5.35 35.45 Q4.75 35.65 4.45 35.95 L4.25 36.25 Q3.8 36.55 3.25 35.95 L3.4 36.1 4.1 36.85 4.2 36.95 Q4.2 36.2 5.05 35.7" fill="#442522" fill-rule="evenodd" stroke="none"/>
      <path d="M3.9 37.3 Q4.45 37.75 5.15 38.05 L5.5 37.8 4.2 36.95 Q4.0 36.9 3.9 37.3 M7.55 36.9 L7.9 36.4 7.45 36.05 5.95 34.95 5.45 35.5 7.1 36.65 7.55 36.9 M8.4 35.6 L8.35 35.6 8.45 35.5 8.9 35.1 8.5 34.8 7.15 33.75 6.5 34.35 Q7.3 35.1 8.4 35.6 M9.5 34.2 L10.15 33.5 9.7 33.2 8.65 32.35 8.25 32.7 7.9 33.05 Q8.55 33.6 9.5 34.2 M11.05 32.65 L11.45 32.3 10.1 31.2 9.5 31.65 Q10.15 32.3 11.05 32.65 M12.25 31.65 L12.45 31.4 12.5 31.4 12.5 31.35 11.25 30.4 10.85 30.65 12.25 31.65" fill="#8e1313" fill-rule="evenodd" stroke="none"/>
      <path d="M10.45 29.85 L10.4 29.85 10.15 30.05 10.7 30.5 10.85 30.65 11.25 30.4 10.95 30.2 10.45 29.85 M9.35 30.75 L8.95 31.15 9.35 31.5 9.4 31.55 9.5 31.65 10.1 31.2 9.85 31.05 9.35 30.75 M8.0 32.05 L7.4 32.65 7.8 32.95 7.9 33.05 8.25 32.7 8.65 32.35 8.55 32.25 8.0 32.05 M6.5 33.35 Q6.3 33.65 5.9 33.8 L6.4 34.25 6.5 34.35 7.15 33.75 7.0 33.65 6.5 33.35 M5.05 34.4 L4.65 34.75 4.6 34.8 4.7 34.9 5.35 35.45 5.45 35.5 5.95 34.95 5.75 34.8 5.7 34.8 5.05 34.4 M3.25 35.95 L3.1 36.0 2.8 36.05 3.9 37.3 Q4.0 36.9 4.2 36.95 L4.1 36.85 3.4 36.1 3.25 35.95" fill="#771111" fill-rule="evenodd" stroke="none"/>
      <path d="M12.5 31.4 L12.7 31.35 13.2 31.15 13.15 30.9 11.8 30.0 11.5 30.0 Q12.7 30.7 12.5 31.35 L12.5 31.4 M13.8 30.7 Q14.35 30.8 14.6 30.4 L12.8 29.25 12.85 29.15 11.8 28.3 13.8 30.7 M6.6 38.3 Q6.75 37.9 7.35 37.8 L7.55 36.9 7.1 36.65 5.45 35.5 5.05 35.7 Q6.6 36.75 5.5 37.8 L6.6 38.3 M7.9 36.4 L8.3 36.1 Q8.2 35.9 8.4 35.6 7.3 35.1 6.5 34.35 L6.25 34.45 Q7.7 35.5 7.45 36.05 L7.9 36.4 M8.9 35.1 L9.2 34.85 9.5 34.2 Q8.55 33.6 7.9 33.05 L7.55 33.2 Q8.8 34.0 8.5 34.8 L8.9 35.1 M10.15 33.5 Q10.45 33.45 10.75 33.2 L11.05 32.65 Q10.15 32.3 9.5 31.65 L9.2 31.7 Q10.1 32.35 9.7 33.2 L10.15 33.5 M11.45 32.3 Q11.9 32.3 12.15 32.1 L12.25 31.65 10.85 30.65 10.65 30.65 10.55 30.7 Q11.75 31.55 11.45 32.3" fill="#d0a79d" fill-rule="evenodd" stroke="none"/>
      <path d="M5.15 38.05 Q5.8 38.45 6.55 38.65 6.5 38.45 6.6 38.3 L5.5 37.8 5.15 38.05" fill="#9c1616" fill-rule="evenodd" stroke="none"/>
      <path d="M13.15 30.9 L13.3 30.75 12.05 29.85 11.8 30.0 13.15 30.9" fill="#7e1212" fill-rule="evenodd" stroke="none"/>
      <path d="M11.15 29.05 L10.9 29.25 11.6 29.8 11.8 30.0 12.05 29.85 11.85 29.65 11.15 29.05" fill="#701010" fill-rule="evenodd" stroke="none"/>
      <path d="M12.5 31.4 L12.7 31.35 13.2 31.15 13.15 30.9 13.3 30.75 13.65 30.7 13.8 30.7 Q14.35 30.8 14.6 30.4 L15.05 30.2 13.35 29.0 M3.25 35.95 L3.1 36.0 2.8 36.05 3.9 37.3 Q4.45 37.75 5.15 38.05 5.8 38.45 6.55 38.65 6.5 38.45 6.6 38.3 6.75 37.9 7.35 37.8 L7.55 36.9 7.9 36.4 8.3 36.1 Q8.2 35.9 8.4 35.6 L8.35 35.6 8.45 35.5 8.9 35.1 9.2 34.85 9.5 34.2 10.15 33.5 Q10.45 33.45 10.75 33.2 L11.05 32.65 11.45 32.3 Q11.9 32.3 12.15 32.1 L12.25 31.65 12.45 31.4 12.5 31.4 M12.8 29.25 L14.6 30.4" fill="none" stroke="#8f726b" stroke-linecap="round" stroke-linejoin="round" stroke-opacity="0.7019608" stroke-width="0.4"/>
      <path d="M11.6 27.65 L11.45 28.05 Q10.95 28.2 11.25 28.9 L11.15 29.05 10.9 29.25 10.6 29.2 Q10.45 29.4 10.45 29.55 L10.45 29.85 10.4 29.85 10.15 30.05 10.1 30.1 10.0 30.1 9.55 30.15 Q9.25 30.35 9.35 30.75 L8.95 31.15 8.55 31.35 8.4 31.45 Q8.05 31.7 8.0 32.05 L7.4 32.65 6.7 33.0 6.5 33.35 Q6.3 33.65 5.9 33.8 L5.35 33.95 5.05 34.4 4.65 34.75 4.6 34.8 3.6 35.15 3.25 35.95 M11.8 28.3 L11.45 28.05 M11.8 28.3 L12.85 29.15 12.8 29.25" fill="none" stroke="#9f8482" stroke-linecap="round" stroke-linejoin="round" stroke-opacity="0.7019608" stroke-width="0.4"/>
      <path d="M5.7 37.95 L5.5 38.0 5.4 38.2 5.55 38.25 5.7 38.15 5.8 37.95 5.7 37.95" fill="#df2020" fill-rule="evenodd" stroke="none"/>
      <path d="M7.15 36.3 L7.05 36.55 7.15 36.6 7.45 36.3 Q7.65 36.05 7.4 36.05 L7.15 36.3" fill="#df2020" fill-rule="evenodd" stroke="none"/>
      <path d="M7.95 35.35 L8.15 35.45 8.5 35.05 Q8.8 34.7 8.5 34.75 L7.95 35.35" fill="#df2020" fill-rule="evenodd" stroke="none"/>
      <path d="M9.2 33.9 L9.35 34.0 9.8 33.6 Q10.1 33.25 9.85 33.3 L9.2 33.9" fill="#df2020" fill-rule="evenodd" stroke="none"/>
      <path d="M11.0 31.95 L10.55 32.35 10.75 32.4 11.0 32.2 11.05 31.95 11.0 31.95" fill="#df2020" fill-rule="evenodd" stroke="none"/>
      <path d="M11.9 30.95 L11.7 31.25 11.8 31.25 12.0 31.15 11.95 30.9 11.9 30.95" fill="#df2020" fill-rule="evenodd" stroke="none"/>
      <path d="M12.5 30.25 L12.4 30.35 12.45 30.4 12.5 30.45 12.6 30.3 12.5 30.25" fill="#7e1212" fill-rule="evenodd" stroke="none"/>
      <path d="M11.45 26.0 Q10.85 25.2 11.75 24.4 9.95 25.0 11.0 26.35 13.7 29.15 17.45 30.95 L14.55 28.65 14.5 28.65 12.5 27.05 11.45 26.0" fill="#444444" fill-rule="evenodd" stroke="none"/>
      <path d="M16.8 31.4 L17.6 31.8 Q19.3 32.0 18.9 29.75 L18.9 29.65 Q17.9 30.55 16.85 30.1 L14.5 28.65 14.55 28.65 17.45 30.95 17.45 31.0 Q17.35 31.3 16.8 31.4" fill="#c8c8c8" fill-rule="evenodd" stroke="none"/>
      <path d="M11.75 24.4 L11.8 24.35 11.9 24.3 11.8 24.25 11.3 24.25 Q9.75 24.3 9.25 24.8 L9.3 24.8 9.1 25.35 9.2 25.5 9.3 25.6 10.6 26.85 13.35 28.95 13.35 29.0 15.1 30.2 16.05 30.9 16.8 31.4 Q17.35 31.3 17.45 31.0 L17.45 30.95 Q13.7 29.15 11.0 26.35 9.95 25.0 11.75 24.4" fill="#2e2e2e" fill-rule="evenodd" stroke="none"/>
      <path d="M16.85 30.1 L16.2 29.2 12.55 26.4 11.45 26.0 12.5 27.05 14.5 28.65 16.85 30.1" fill="#000000" fill-rule="evenodd" stroke="none"/>
      <path d="M15.1 30.2 L16.05 30.9 16.8 31.4" fill="none" stroke="#666666" stroke-linecap="round" stroke-linejoin="round" stroke-opacity="0.7019608" stroke-width="0.5"/>
      <path d="M16.8 31.4 L17.6 31.8 Q19.3 32.0 18.9 29.75 L18.9 29.65 Q17.9 30.55 16.85 30.1 L16.2 29.2 12.55 26.4 11.45 26.0 Q10.85 25.2 11.75 24.4 L11.8 24.35 11.9 24.3 11.8 24.25 11.3 24.25 Q9.75 24.3 9.25 24.8 M9.3 24.8 L9.1 25.35 9.2 25.5 9.3 25.6 10.6 26.85 13.35 28.95 13.35 29.0 15.1 30.2 M14.55 28.65 L14.5 28.65 16.85 30.1 M14.5 28.65 L12.5 27.05 11.45 26.0" fill="none" stroke="#000000" stroke-linecap="round" stroke-linejoin="round" stroke-opacity="0.3137255" stroke-width="0.5"/>
    </g>
    <g id="sprite0" transform="matrix(1.0, 0.0, 0.0, 1.0, 0.0, 0.0)">
      <use height="20.95" transform="matrix(1.0, 0.0, 0.0, 1.0, 0.0, 0.0)" width="24.45" xlink:href="#shape1"/>
    </g>
    <g id="shape1" transform="matrix(1.0, 0.0, 0.0, 1.0, 0.0, 0.0)">
      <path d="M14.85 11.4 Q15.8 11.6 16.25 12.45 16.85 13.3 16.6 14.35 16.4 15.3 15.55 15.9 14.65 16.4 13.65 16.2 12.65 15.9 12.1 15.1 11.6 14.2 11.8 13.2 12.1 12.2 12.9 11.65 13.8 11.15 14.85 11.4" fill="#ffffff" fill-opacity="0.5882353" fill-rule="evenodd" stroke="none"/>
      <path d="M14.85 11.4 Q13.8 11.15 12.9 11.65 12.1 12.2 11.8 13.2 11.6 14.2 12.1 15.1 12.65 15.9 13.65 16.2 14.65 16.4 15.55 15.9 16.4 15.3 16.6 14.35 16.85 13.3 16.25 12.45 15.8 11.6 14.85 11.4 M18.2 11.35 L20.15 11.25 18.75 12.55 Q19.05 13.8 18.8 15.05 18.5 16.35 17.65 17.3 L19.1 20.95 16.55 18.25 Q14.8 19.3 12.8 18.85 10.8 18.35 9.75 16.65 9.05 15.5 8.95 14.3 7.75 12.35 4.85 11.5 8.3 12.45 9.7 11.4 10.3 10.4 11.35 9.75 13.1 8.75 15.1 9.15 16.95 9.5 18.1 11.15 L18.2 11.35" fill="#ffffff" fill-opacity="0.1764706" fill-rule="evenodd" stroke="none"/>
      <path d="M15.4 13.55 L18.1 17.55 13.35 14.65 7.05 18.5 12.75 13.55 0.0 0.0 14.25 12.25 24.45 5.95 15.4 13.55" fill="#ffffff" fill-opacity="0.5882353" fill-rule="evenodd" stroke="none"/>
    </g>
    <g id="shape2" transform="matrix(1.0, 0.0, 0.0, 1.0, -1.45, -35.75)">
      <path d="M2.95 38.65 Q3.35 39.2 4.3 39.15 L5.15 38.9 5.55 39.25 Q5.65 39.65 5.4 39.7 L5.55 39.7 Q6.3 39.45 6.05 39.0 5.45 39.0 4.1 37.4 L3.95 37.25 Q3.0 37.9 2.95 38.65" fill="#2f2f2f" fill-rule="evenodd" stroke="none"/>
      <path d="M3.95 37.25 L2.8 36.1 Q1.4 35.65 1.75 37.0 1.95 36.8 2.3 36.85 L2.8 37.15 2.6 37.9 2.95 38.65 Q3.0 37.9 3.95 37.25" fill="#000000" fill-rule="evenodd" stroke="none"/>
      <path d="M5.55 39.7 Q7.15 39.9 6.55 38.7 5.15 38.25 4.1 37.4 5.45 39.0 6.05 39.0 6.3 39.45 5.55 39.7" fill="#aaaaaa" fill-rule="evenodd" stroke="none"/>
      <path d="M3.95 37.25 L2.8 36.1 Q1.4 35.65 1.75 37.0 1.95 36.8 2.3 36.85 L2.8 37.15 2.6 37.9 2.95 38.65 Q3.35 39.2 4.3 39.15 L5.15 38.9 5.55 39.25 Q5.65 39.65 5.4 39.7 L5.55 39.7 Q7.15 39.9 6.55 38.7 5.15 38.25 4.1 37.4 L3.95 37.25 Z" fill="none" stroke="#000000" stroke-linecap="round" stroke-linejoin="round" stroke-opacity="0.3137255" stroke-width="0.5"/>
    </g>
    <g id="shape3" transform="matrix(1.0, 0.0, 0.0, 1.0, -12.45, -2.15)">
      <path d="M32.2 6.7 Q35.75 3.95 36.75 4.1 L37.0 4.2 37.15 4.35 36.95 4.95 36.85 5.15 Q36.1 7.1 35.2 8.45 34.6 9.45 33.3 10.05 31.25 11.0 30.75 12.75 30.7 14.65 28.8 15.8 25.9 16.5 25.35 18.8 24.65 21.5 23.2 21.8 21.8 22.3 21.2 22.85 19.65 24.3 19.65 25.45 L19.65 25.6 18.95 26.1 15.35 28.5 14.2 28.55 Q13.75 28.35 14.05 27.5 14.3 26.7 15.1 25.35 L16.0 23.95 16.5 23.2 18.9 20.1 19.7 19.85 Q21.7 19.35 22.3 17.05 22.45 16.05 23.05 15.4 L23.4 15.0 Q24.0 14.5 24.85 14.1 27.15 13.6 27.85 11.6 28.0 10.55 28.5 9.85 L30.0 8.45 32.2 6.7" fill="url(#gradient0)" fill-rule="evenodd" stroke="none"/>
      <path d="M31.8 8.5 L32.45 8.2 Q34.4 7.4 35.35 6.5 36.35 5.65 36.95 4.3 L36.65 4.45 34.45 5.25 33.65 5.65 33.75 5.5 38.75 2.45 38.7 2.7 38.0 4.0 35.95 7.15 35.85 7.25 Q34.65 8.35 33.15 8.95 31.3 9.8 30.9 11.75 31.4 13.75 28.65 14.9 25.7 15.75 25.25 18.25 24.8 20.7 22.75 21.4 21.2 21.9 20.6 22.5 18.95 24.05 18.9 25.25 18.95 27.1 16.35 28.7 L15.85 29.05 15.1 28.55 Q14.95 28.3 15.65 27.85 18.25 26.25 18.2 24.4 L18.25 23.7 Q18.5 22.45 19.45 21.8 20.5 20.85 22.0 20.55 23.55 20.2 24.25 17.35 24.9 14.85 27.9 14.1 30.3 12.8 30.2 10.95 30.5 9.35 31.8 8.6 L31.8 8.5" fill="#ffcc33" fill-rule="evenodd" stroke="none"/>
      <path d="M15.85 29.05 L16.35 28.7 Q18.95 27.1 18.9 25.25 18.95 24.05 20.6 22.5 21.2 21.9 22.75 21.4 24.8 20.7 25.25 18.25 25.7 15.75 28.65 14.9 31.4 13.75 30.9 11.75 31.3 9.8 33.15 8.95 34.65 8.35 35.85 7.25 L35.95 7.15 38.0 4.0 38.7 2.7 38.75 2.45 38.8 2.45 38.85 2.45 38.95 2.4 38.9 2.5 38.45 3.65 38.35 3.9 36.6 7.45 Q35.9 8.45 34.65 9.05 32.4 10.05 31.85 11.95 31.8 14.0 29.65 15.2 26.65 16.0 26.0 18.45 25.35 21.35 23.8 21.7 22.3 22.2 21.65 22.8 20.05 24.3 20.0 25.55 20.0 27.35 16.7 28.75 L16.0 29.1 15.85 29.05" fill="#fee7b4" fill-rule="evenodd" stroke="none"/>
      <path d="M33.65 5.65 L34.45 5.25 Q32.95 7.1 31.35 7.75 29.75 8.35 29.35 10.85 28.95 13.35 25.95 13.75 23.45 14.5 23.1 17.0 22.8 19.45 20.1 20.05 17.35 20.7 17.05 23.25 17.0 25.75 15.3 26.05 L14.1 26.15 Q13.1 26.4 12.9 26.75 L12.55 26.5 Q13.55 25.95 14.15 25.85 16.05 25.45 16.7 23.05 17.2 20.25 20.05 19.5 22.25 18.95 22.8 16.55 23.2 14.3 25.5 13.45 27.95 12.85 28.7 10.75 29.25 8.1 31.7 7.15 32.55 6.9 33.65 5.65" fill="#eeab11" fill-rule="evenodd" stroke="none"/>
      <path d="M36.65 4.45 L36.95 4.3 Q36.35 5.65 35.35 6.5 34.4 7.4 32.45 8.2 L31.8 8.5 Q35.65 5.95 36.65 4.45 M18.25 23.7 L18.2 24.4 Q18.25 26.25 15.65 27.85 14.95 28.3 15.1 28.55 L13.4 27.15 Q17.3 27.75 18.25 23.7" fill="#987134" fill-rule="evenodd" stroke="none"/>
      <path d="M36.65 4.45 Q35.65 5.95 31.8 8.5 L31.8 8.6 Q30.5 9.35 30.2 10.95 30.3 12.8 27.9 14.1 24.9 14.85 24.25 17.35 23.55 20.2 22.0 20.55 20.5 20.85 19.45 21.8 18.5 22.45 18.25 23.7 17.3 27.75 13.4 27.15 L12.9 26.75 Q13.1 26.4 14.1 26.15 L15.3 26.05 Q17.0 25.75 17.05 23.25 17.35 20.7 20.1 20.05 22.8 19.45 23.1 17.0 23.45 14.5 25.95 13.75 28.95 13.35 29.35 10.85 29.75 8.35 31.35 7.75 32.95 7.1 34.45 5.25 L36.65 4.45" fill="#d86c01" fill-rule="evenodd" stroke="none"/>
      <path d="M38.95 2.4 L38.9 2.5" fill="none" stroke="#cc9900" stroke-linecap="round" stroke-linejoin="round" stroke-opacity="0.7019608" stroke-width="0.5"/>
      <path d="M38.7 2.7 L38.75 2.45 38.8 2.45" fill="none" stroke="#ffffa2" stroke-linecap="round" stroke-linejoin="round" stroke-opacity="0.7019608" stroke-width="0.5"/>
      <path d="M15.85 29.05 L16.35 28.7 Q18.95 27.1 18.9 25.25 18.95 24.05 20.6 22.5 21.2 21.9 22.75 21.4 24.8 20.7 25.25 18.25 25.7 15.75 28.65 14.9 31.4 13.75 30.9 11.75 31.3 9.8 33.15 8.95 34.65 8.35 35.85 7.25 L35.95 7.15 38.0 4.0 38.7 2.7" fill="none" stroke="#ffffff" stroke-linecap="round" stroke-linejoin="round" stroke-opacity="0.73333335" stroke-width="0.6000000000000001"/>
      <path d="M36.65 4.45 Q35.65 5.95 31.8 8.5 L31.8 8.6 Q30.5 9.35 30.2 10.95 30.3 12.8 27.9 14.1 24.9 14.85 24.25 17.35 23.55 20.2 22.0 20.55 20.5 20.85 19.45 21.8 18.5 22.45 18.25 23.7 L18.2 24.4 Q18.25 26.25 15.65 27.85 14.95 28.3 15.1 28.55" fill="none" stroke="#987134" stroke-linecap="round" stroke-linejoin="round" stroke-width="0.05"/>
      <path d="M15.1 28.55 L15.85 29.05 M38.75 2.45 L33.75 5.5 33.65 5.65 M38.9 2.5 L38.45 3.65 38.35 3.9 36.6 7.45 Q35.9 8.45 34.65 9.05 32.4 10.05 31.85 11.95 31.8 14.0 29.65 15.2 26.65 16.0 26.0 18.45 25.35 21.35 23.8 21.7 22.3 22.2 21.65 22.8 20.05 24.3 20.0 25.55 20.0 27.35 16.7 28.75 L16.0 29.1 15.85 29.05 M12.9 26.75 L12.55 26.5 Q13.55 25.95 14.15 25.85 16.05 25.45 16.7 23.05 17.2 20.25 20.05 19.5 22.25 18.95 22.8 16.55 23.2 14.3 25.5 13.45 27.95 12.85 28.7 10.75 29.25 8.1 31.7 7.15 32.55 6.9 33.65 5.65 M12.9 26.75 L13.4 27.15 15.1 28.55" fill="none" stroke="#17170c" stroke-linecap="round" stroke-linejoin="round" stroke-opacity="0.2509804" stroke-width="0.25"/>
      <path d="M37.2 4.9 Q36.55 4.8 35.8 5.35 34.95 5.95 34.45 6.8 34.0 7.6 34.1 8.3 34.2 8.95 34.85 9.0 35.5 9.1 36.35 8.55 L37.65 7.1 Q38.15 6.25 38.0 5.65 37.9 4.95 37.2 4.9" fill="url(#gradient1)" fill-rule="evenodd" stroke="none"/>
      <path d="M16.35 27.9 Q16.4 28.6 17.05 28.65 17.7 28.7 18.6 28.1 L20.1 26.65 Q20.65 25.8 20.6 25.1 20.6 24.4 20.0 24.4 19.3 24.3 18.4 24.9 17.5 25.45 16.95 26.35 16.35 27.2 16.35 27.9" fill="url(#gradient2)" fill-rule="evenodd" stroke="none"/>
    </g>
    <radialGradient cx="0" cy="0" gradientTransform="matrix(0.0154, -0.0164, -0.0028, -0.0021, 25.6, 16.45)" gradientUnits="userSpaceOnUse" id="gradient0" r="819.2" spreadMethod="pad">
      <stop offset="0.0" stop-color="#f9fede"/>
      <stop offset="1.0" stop-color="#ffffff" stop-opacity="0.0"/>
    </radialGradient>
    <radialGradient cx="0" cy="0" gradientTransform="matrix(-4.0E-4, -0.002, -0.0025, 0.0017, 36.05, 6.95)" gradientUnits="userSpaceOnUse" id="gradient1" r="819.2" spreadMethod="pad">
      <stop offset="0.0" stop-color="#ffffff"/>
      <stop offset="0.24313725490196078" stop-color="#ffffff"/>
      <stop offset="0.26666666666666666" stop-color="#ffffff" stop-opacity="0.56078434"/>
      <stop offset="0.9333333333333333" stop-color="#ffffff" stop-opacity="0.0"/>
    </radialGradient>
    <radialGradient cx="0" cy="0" gradientTransform="matrix(-1.0E-4, -0.002, -0.0027, 0.0018, 18.5, 26.45)" gradientUnits="userSpaceOnUse" id="gradient2" r="819.2" spreadMethod="pad">
      <stop offset="0.0" stop-color="#ffffff"/>
      <stop offset="0.24313725490196078" stop-color="#ffffff"/>
      <stop offset="0.26666666666666666" stop-color="#ffffff" stop-opacity="0.56078434"/>
      <stop offset="0.9333333333333333" stop-color="#ffffff" stop-opacity="0.0"/>
    </radialGradient>
    <g id="sprite1" transform="matrix(1.0, 0.0, 0.0, 1.0, 2.9, 2.15)">
      <use height="5.05" transform="matrix(1.0, 0.0, 0.0, 1.0, -2.9, -2.15)" width="4.45" xlink:href="#shape4"/>
    </g>
    <g id="shape4" transform="matrix(1.0, 0.0, 0.0, 1.0, 2.9, 2.15)">
      <path d="M1.4 -1.75 L1.5 -1.55 1.5 -1.35 1.55 -1.3 1.5 -1.25 1.5 -0.95 1.45 -0.95 1.45 -0.85 1.35 -0.35 1.15 1.3 1.1 1.5 1.15 1.65 1.0 2.35 0.95 2.6 1.0 2.75 0.0 2.9 Q-1.2 2.9 -2.05 2.05 -2.9 1.2 -2.9 0.05 L-2.6 -0.2 Q-2.35 -0.2 -2.35 -0.3 -1.9 -0.45 -1.9 -0.55 L-1.75 -0.65 -1.45 -0.85 -1.45 -0.95 Q-1.3 -0.9 -1.3 -1.0 L-1.05 -1.15 -0.9 -1.2 -0.7 -1.35 -0.65 -1.3 -0.6 -1.45 -0.4 -1.55 Q-0.2 -1.55 0.3 -1.9 L0.65 -2.15 1.05 -2.05 1.15 -2.05 1.25 -2.0 1.5 -1.75 1.4 -1.75" fill="url(#gradient3)" fill-rule="evenodd" stroke="none"/>
    </g>
    <radialGradient cx="0" cy="0" gradientTransform="matrix(0.0036, 0.0, 0.0, 0.0036, 0.0, 0.0)" gradientUnits="userSpaceOnUse" id="gradient3" r="819.2" spreadMethod="pad">
      <stop offset="0.0" stop-color="#ffffff"/>
      <stop offset="1.0" stop-color="#ffffff" stop-opacity="0.0"/>
    </radialGradient>
    <g id="sprite2" transform="matrix(1.0, 0.0, 0.0, 1.0, 0.25, 0.25)">
      <use height="11.95" transform="matrix(1.0, 0.0, 0.0, 1.0, 0.6, 20.4)" width="11.5" xlink:href="#shape5"/>
      <use height="20.95" transform="matrix(-0.1548, 0.0769, 0.1502, 0.1497, 11.3, 21.55)" width="24.45" xlink:href="#sprite0"/>
      <use height="2.75" transform="matrix(1.0, 0.0, 0.0, 1.0, -0.25, 30.65)" width="4.7" xlink:href="#shape6"/>
      <use height="20.95" transform="matrix(-0.1415, 0.0703, 0.1373, 0.1369, 3.9, 29.7)" width="24.45" xlink:href="#sprite0"/>
      <use height="24.1" transform="matrix(1.0, 0.0, 0.0, 1.0, 6.3, -0.25)" width="15.95" xlink:href="#shape7"/>
      <use height="5.05" transform="matrix(0.0828, -0.5617, -0.4406, 0.4671, 21.4073, 2.8247)" width="4.45" xlink:href="#sprite1"/>
      <use height="20.95" transform="matrix(-0.3407, 0.006, 0.0603, 0.2809, 24.4, 0.35)" width="24.45" xlink:href="#sprite0"/>
      <use height="20.95" transform="matrix(0.0903, -0.0854, -0.1549, -0.0994, 16.1, 15.0)" width="24.45" xlink:href="#sprite0"/>
    </g>
    <g id="shape5" transform="matrix(1.0, 0.0, 0.0, 1.0, -0.6, -20.4)">
      <path d="M7.15 25.8 Q7.25 25.3 6.25 25.0 L6.05 25.25 7.15 25.8 M4.2 30.1 Q4.3 29.65 3.1 29.1 L3.05 29.1 2.9 29.55 4.2 30.1 M4.8 28.95 Q4.9 28.4 3.85 28.0 3.6 28.2 3.6 28.45 L4.8 28.95 M5.4 26.1 Q6.0 26.3 6.6 26.65 6.65 26.05 5.65 25.6 5.35 25.85 5.4 26.1 M4.5 27.15 L4.5 27.2 5.4 27.6 Q5.6 26.95 4.85 26.6 4.5 26.8 4.5 27.15 M2.4 30.2 Q1.85 30.75 2.0 31.3 L3.1 31.7 Q3.75 30.75 2.4 30.2" fill="#6f4035" fill-rule="evenodd" stroke="none"/>
      <path d="M8.55 24.75 L8.9 24.5 7.45 23.9 7.25 24.1 7.05 24.15 8.55 24.75" fill="#352119" fill-rule="evenodd" stroke="none"/>
      <path d="M7.7 25.2 L7.95 25.1 8.05 25.1 6.15 23.7 5.85 23.55 Q5.5 23.7 5.85 24.2 L5.8 24.35 6.45 24.65 6.6 24.75 7.7 25.2 M5.7 24.45 L5.4 24.55 5.4 24.85 5.45 25.0 5.85 25.2 6.05 25.25 6.25 25.0 6.45 24.9 6.25 24.8 5.7 24.45 M5.2 25.2 L5.2 25.25 5.15 25.25 4.8 25.35 Q4.65 25.55 4.75 25.9 L5.2 26.0 5.4 26.1 Q5.35 25.85 5.65 25.6 L5.7 25.6 5.85 25.5 5.7 25.45 5.2 25.2 M4.55 26.2 L4.25 26.4 4.15 26.5 Q3.9 26.8 3.95 27.05 L4.45 27.1 4.5 27.15 Q4.5 26.8 4.85 26.6 L5.0 26.55 4.9 26.45 4.55 26.2 M3.65 27.55 L3.15 27.95 3.05 28.25 3.5 28.4 3.6 28.45 Q3.6 28.2 3.85 28.0 L4.05 27.8 3.95 27.8 3.65 27.55 M2.65 28.7 L2.3 28.9 2.2 29.3 2.7 29.5 2.75 29.5 2.9 29.55 3.05 29.1 3.1 29.1 3.25 29.0 3.2 28.95 2.65 28.7 M1.9 29.65 L1.25 30.05 1.1 30.75 1.85 30.8 1.95 30.5 2.55 30.0 2.0 29.7 1.9 29.65" fill="#472923" fill-rule="evenodd" stroke="none"/>
      <path d="M7.45 23.9 Q6.65 23.5 5.9 23.2 L5.85 23.5 5.85 23.55 6.15 23.7 7.05 24.1 7.05 24.15 7.25 24.1 7.45 23.9 M2.4 30.2 L2.65 30.05 2.55 30.0 1.95 30.5 1.85 30.8 1.1 30.75 1.2 30.75 1.85 31.25 2.0 31.3 Q1.85 30.75 2.4 30.2" fill="#351c1a" fill-rule="evenodd" stroke="none"/>
      <path d="M1.8 31.6 L2.85 31.95 3.1 31.7 2.0 31.3 Q1.85 31.25 1.8 31.6 M4.45 30.7 L4.6 30.35 4.2 30.1 2.9 29.55 2.65 30.05 4.05 30.6 4.45 30.7 M4.85 29.6 L4.9 29.5 5.1 29.15 4.8 28.95 3.6 28.45 3.25 29.0 4.85 29.6 M5.45 28.4 L5.75 27.8 5.4 27.6 4.5 27.2 4.5 27.15 4.25 27.5 4.05 27.8 5.45 28.4 M6.3 27.0 L6.6 26.65 Q6.0 26.3 5.4 26.1 L5.0 26.55 Q5.6 26.85 6.3 27.0 M7.1 26.0 L7.15 25.85 7.2 25.85 7.15 25.8 6.05 25.25 5.85 25.5 7.1 26.0" fill="#6e0e0e" fill-rule="evenodd" stroke="none"/>
      <path d="M5.45 25.0 L5.4 25.0 5.2 25.2 5.7 25.45 5.85 25.5 6.05 25.25 5.85 25.2 5.45 25.0 M4.75 25.9 L4.55 26.2 4.9 26.45 5.0 26.55 5.4 26.1 5.2 26.0 4.75 25.9 M3.95 27.05 L3.65 27.55 3.95 27.8 4.05 27.8 4.25 27.5 4.5 27.15 4.45 27.1 3.95 27.05 M3.05 28.25 L2.65 28.7 3.2 28.95 3.25 29.0 3.6 28.45 3.5 28.4 3.05 28.25 M2.2 29.3 L1.95 29.55 1.9 29.65 2.0 29.7 2.55 30.0 2.65 30.05 2.9 29.55 2.75 29.5 2.7 29.5 2.2 29.3 M1.1 30.75 L1.0 30.8 0.8 30.85 1.8 31.6 Q1.85 31.25 2.0 31.3 L1.85 31.25 1.2 30.75 1.1 30.75" fill="#5c0d0d" fill-rule="evenodd" stroke="none"/>
      <path d="M7.2 25.85 Q7.2 25.75 7.35 25.75 L7.65 25.55 7.6 25.35 6.45 24.9 6.25 25.0 Q7.25 25.3 7.15 25.8 L7.2 25.85 M8.05 25.1 L8.55 24.75 7.05 24.15 7.05 24.1 6.15 23.7 8.05 25.1 M3.95 31.9 Q4.0 31.6 4.45 31.4 L4.45 30.7 4.05 30.6 2.65 30.05 2.4 30.2 Q3.75 30.75 3.1 31.7 L3.95 31.9 M4.6 30.35 L4.85 30.0 4.85 29.6 3.25 29.0 3.1 29.1 Q4.3 29.65 4.2 30.1 L4.6 30.35 M5.1 29.15 L5.35 28.95 5.45 28.4 4.05 27.8 3.85 28.0 Q4.9 28.4 4.8 28.95 L5.1 29.15 M5.75 27.8 L6.2 27.45 6.3 27.0 Q5.6 26.85 5.0 26.55 L4.85 26.6 Q5.6 26.95 5.4 27.6 L5.75 27.8 M6.6 26.65 L7.0 26.35 7.05 26.1 7.1 26.0 5.85 25.5 5.7 25.6 5.65 25.6 Q6.65 26.05 6.6 26.65" fill="#a2827a" fill-rule="evenodd" stroke="none"/>
      <path d="M2.85 31.95 L3.95 32.15 3.95 31.9 3.1 31.7 2.85 31.95" fill="#791111" fill-rule="evenodd" stroke="none"/>
      <path d="M7.6 25.35 L7.7 25.2 6.6 24.75 6.45 24.9 7.6 25.35" fill="#620e0e" fill-rule="evenodd" stroke="none"/>
      <path d="M5.8 24.35 L5.7 24.45 6.25 24.8 6.45 24.9 6.6 24.75 6.45 24.65 5.8 24.35" fill="#570c0c" fill-rule="evenodd" stroke="none"/>
      <path d="M7.2 25.85 Q7.2 25.75 7.35 25.75 L7.65 25.55 7.6 25.35 7.7 25.2 7.95 25.1 8.05 25.1 8.55 24.75 8.9 24.5 7.45 23.9 M1.1 30.75 L1.0 30.8 0.8 30.85 1.8 31.6 2.85 31.95 3.95 32.15 3.95 31.9 Q4.0 31.6 4.45 31.4 L4.45 30.7 4.6 30.35 4.85 30.0 4.85 29.6 4.9 29.5 5.1 29.15 5.35 28.95 5.45 28.4 5.75 27.8 6.2 27.45 6.3 27.0 6.6 26.65 7.0 26.35 7.05 26.1 7.1 26.0 7.15 25.85 7.2 25.85 M7.05 24.15 L8.55 24.75" fill="none" stroke="#6f5953" stroke-linecap="round" stroke-linejoin="round" stroke-opacity="0.7019608" stroke-width="0.4"/>
      <path d="M5.9 23.2 L5.85 23.5 5.85 23.55 Q5.5 23.7 5.85 24.2 L5.8 24.35 5.7 24.45 5.4 24.55 5.4 24.85 5.45 25.0 5.4 25.0 5.2 25.2 5.2 25.25 5.15 25.25 4.8 25.35 Q4.65 25.55 4.75 25.9 L4.55 26.2 4.25 26.4 4.15 26.5 Q3.9 26.8 3.95 27.05 L3.65 27.55 3.15 27.95 3.05 28.25 2.65 28.7 2.3 28.9 2.2 29.3 1.95 29.55 1.9 29.65 1.25 30.05 1.1 30.75 M6.15 23.7 L5.85 23.55 M6.15 23.7 L7.05 24.1 7.05 24.15" fill="none" stroke="#7c6765" stroke-linecap="round" stroke-linejoin="round" stroke-opacity="0.7019608" stroke-width="0.4"/>
      <path d="M3.25 31.75 L3.15 31.9 3.05 32.0 3.2 32.05 3.3 31.95 3.3 31.8 3.25 31.75" fill="#ae1919" fill-rule="evenodd" stroke="none"/>
      <path d="M4.05 30.35 L3.95 30.5 4.1 30.5 4.25 30.3 Q4.4 30.1 4.2 30.15 L4.05 30.35" fill="#ae1919" fill-rule="evenodd" stroke="none"/>
      <path d="M4.5 29.5 L4.65 29.55 4.85 29.2 Q5.0 28.9 4.8 28.95 L4.5 29.5" fill="#ae1919" fill-rule="evenodd" stroke="none"/>
      <path d="M5.15 28.25 L5.3 28.25 5.55 27.9 Q5.7 27.6 5.5 27.7 L5.15 28.25" fill="#ae1919" fill-rule="evenodd" stroke="none"/>
      <path d="M6.2 26.45 L5.9 26.85 6.05 26.9 6.25 26.7 6.25 26.5 6.2 26.45" fill="#ae1919" fill-rule="evenodd" stroke="none"/>
      <path d="M6.65 25.55 L6.55 25.8 6.65 25.85 6.8 25.7 6.7 25.55 6.65 25.55" fill="#ae1919" fill-rule="evenodd" stroke="none"/>
      <path d="M7.0 24.95 L6.95 25.05 6.95 25.1 7.05 25.1 7.1 25.0 7.0 24.95" fill="#620e0e" fill-rule="evenodd" stroke="none"/>
      <path d="M5.5 22.0 Q5.0 21.5 5.5 20.75 4.25 21.55 5.25 22.3 7.7 24.0 10.75 24.7 L8.3 23.45 8.2 23.45 6.45 22.6 5.5 22.0" fill="#353535" fill-rule="evenodd" stroke="none"/>
      <path d="M10.35 25.1 L11.05 25.25 Q12.3 25.15 11.65 23.5 L11.65 23.45 Q11.1 24.3 10.2 24.1 L8.2 23.45 8.3 23.45 10.75 24.7 10.85 24.65 10.8 24.7 10.35 25.1" fill="#9c9c9c" fill-rule="evenodd" stroke="none"/>
      <path d="M5.5 20.75 L5.6 20.65 5.5 20.65 5.15 20.75 Q4.0 21.0 3.75 21.45 3.6 21.7 3.7 21.9 L3.75 22.0 3.85 22.05 5.0 22.8 7.45 23.9 8.95 24.55 9.75 24.85 10.35 25.1 10.8 24.7 10.85 24.65 10.75 24.7 Q7.7 24.0 5.25 22.3 4.25 21.55 5.5 20.75" fill="#232323" fill-rule="evenodd" stroke="none"/>
      <path d="M10.2 24.1 L9.55 23.6 6.4 22.15 5.5 22.0 6.45 22.6 8.2 23.45 10.2 24.1" fill="#000000" fill-rule="evenodd" stroke="none"/>
      <path d="M8.95 24.55 L9.75 24.85 10.35 25.1" fill="none" stroke="#4f4f4f" stroke-linecap="round" stroke-linejoin="round" stroke-opacity="0.7019608" stroke-width="0.5"/>
      <path d="M10.35 25.1 L11.05 25.25 Q12.3 25.15 11.65 23.5 L11.65 23.45 Q11.1 24.3 10.2 24.1 L9.55 23.6 6.4 22.15 5.5 22.0 Q5.0 21.5 5.5 20.75 L5.6 20.65 5.5 20.65 5.15 20.75 Q4.0 21.0 3.75 21.45 3.6 21.7 3.7 21.9 L3.75 22.0 3.85 22.05 5.0 22.8 7.45 23.9 8.95 24.55 M8.3 23.45 L8.2 23.45 10.2 24.1 M8.2 23.45 L6.45 22.6 5.5 22.0" fill="none" stroke="#000000" stroke-linecap="round" stroke-linejoin="round" stroke-opacity="0.3137255" stroke-width="0.5"/>
    </g>
    <g id="shape6" transform="matrix(1.0, 0.0, 0.0, 1.0, 0.25, -30.65)">
      <path d="M1.35 32.8 L2.4 32.9 3.0 32.6 3.35 32.8 3.3 33.15 3.4 33.15 Q3.9 32.85 3.65 32.55 3.25 32.55 2.0 31.65 L1.85 31.6 Q1.25 32.2 1.35 32.8" fill="#242424" fill-rule="evenodd" stroke="none"/>
      <path d="M1.85 31.6 L0.75 30.9 Q-0.3 30.75 0.15 31.75 L0.5 31.55 0.95 31.7 0.95 32.25 1.35 32.8 Q1.25 32.2 1.85 31.6" fill="#000000" fill-rule="evenodd" stroke="none"/>
      <path d="M3.4 33.15 Q4.6 33.0 4.0 32.2 2.9 32.1 2.0 31.65 3.25 32.55 3.65 32.55 3.9 32.85 3.4 33.15" fill="#848484" fill-rule="evenodd" stroke="none"/>
      <path d="M1.85 31.6 L0.75 30.9 Q-0.3 30.75 0.15 31.75 L0.5 31.55 0.95 31.7 0.95 32.25 1.35 32.8 2.4 32.9 3.0 32.6 3.35 32.8 3.3 33.15 3.4 33.15 Q4.6 33.0 4.0 32.2 2.9 32.1 2.0 31.65 L1.85 31.6 Z" fill="none" stroke="#000000" stroke-linecap="round" stroke-linejoin="round" stroke-opacity="0.3137255" stroke-width="0.5"/>
    </g>
    <g id="shape7" transform="matrix(1.0, 0.0, 0.0, 1.0, -6.3, 0.25)">
      <path d="M17.7 4.3 Q19.85 1.65 20.6 1.6 L20.85 1.65 20.95 1.75 20.9 2.25 20.9 2.4 20.2 5.1 Q19.9 5.95 19.1 6.6 17.7 7.6 17.65 9.0 17.9 10.4 16.65 11.55 14.65 12.6 14.6 14.4 14.55 16.5 13.55 16.95 12.55 17.55 12.2 18.05 11.3 19.4 11.5 20.25 L11.5 20.35 11.1 20.85 8.85 23.25 8.0 23.45 Q7.6 23.35 7.65 22.65 L8.05 20.9 8.55 19.7 8.8 19.1 10.05 16.4 10.6 16.05 Q12.0 15.4 12.05 13.6 12.05 12.8 12.4 12.25 L12.5 11.9 13.45 10.95 Q15.1 10.25 15.3 8.6 15.25 7.85 15.45 7.2 L16.35 5.95 17.7 4.3" fill="url(#gradient4)" fill-rule="evenodd" stroke="none"/>
      <path d="M17.7 5.7 L18.15 5.35 19.95 3.65 Q20.55 2.8 20.8 1.8 L20.65 1.85 19.1 2.85 18.55 3.25 18.65 3.15 21.85 0.1 21.85 0.25 21.55 1.35 Q21.15 2.95 20.55 4.05 L20.5 4.1 18.75 5.8 Q17.55 6.7 17.6 8.25 18.25 9.7 16.4 10.95 14.35 12.1 14.45 14.0 14.5 15.85 13.1 16.75 12.05 17.35 11.7 17.9 10.75 19.35 10.9 20.2 11.25 21.6 9.55 23.15 L9.3 23.55 8.6 23.3 Q8.5 23.15 8.95 22.7 10.55 21.1 10.25 19.7 L10.15 19.2 Q10.15 18.2 10.75 17.55 11.4 16.75 12.45 16.25 13.55 15.75 13.55 13.5 13.65 11.55 15.7 10.45 17.3 9.1 16.9 7.75 16.85 6.55 17.7 5.75 L17.7 5.7" fill="#c79f27" fill-rule="evenodd" stroke="none"/>
      <path d="M9.3 23.55 L9.55 23.15 Q11.25 21.6 10.9 20.2 10.75 19.35 11.7 17.9 12.05 17.35 13.1 16.75 14.5 15.85 14.45 14.0 14.35 12.1 16.4 10.95 18.25 9.7 17.6 8.25 17.55 6.7 18.75 5.8 L20.5 4.1 20.55 4.05 Q21.15 2.95 21.55 1.35 L21.85 0.25 21.85 0.1 21.85 0.05 21.9 0.05 22.0 0.0 21.95 0.1 21.85 1.0 21.8 1.2 21.05 4.15 Q20.75 5.0 19.9 5.65 18.4 6.75 18.3 8.25 18.6 9.75 17.2 11.0 15.15 12.1 15.05 14.0 15.0 16.3 13.95 16.8 12.9 17.4 12.55 17.95 11.6 19.35 11.75 20.25 12.05 21.6 9.9 23.15 L9.4 23.55 9.3 23.55" fill="#c6b48c" fill-rule="evenodd" stroke="none"/>
      <path d="M18.55 3.25 L19.1 2.85 Q18.3 4.5 17.25 5.25 16.15 5.9 16.25 7.9 16.4 9.75 14.2 10.6 12.5 11.5 12.65 13.4 12.8 15.3 10.95 16.15 9.0 17.1 9.25 19.05 9.6 20.9 8.4 21.4 L7.5 21.7 6.7 22.35 6.4 22.2 Q7.05 21.65 7.5 21.45 8.85 20.85 8.95 18.95 8.85 16.8 10.8 15.75 12.3 15.0 12.3 13.15 12.3 11.45 13.85 10.4 15.55 9.55 15.75 7.9 15.75 5.8 17.4 4.75 18.0 4.4 18.55 3.25" fill="#b9850d" fill-rule="evenodd" stroke="none"/>
      <path d="M20.65 1.85 L20.8 1.8 Q20.55 2.8 19.95 3.65 L18.15 5.35 17.7 5.7 Q20.15 3.2 20.65 1.85 M10.15 19.2 L10.25 19.7 Q10.55 21.1 8.95 22.7 8.5 23.15 8.6 23.3 L7.1 22.55 Q10.15 22.3 10.15 19.2" fill="#765828" fill-rule="evenodd" stroke="none"/>
      <path d="M20.65 1.85 Q20.15 3.2 17.7 5.7 L17.7 5.75 Q16.85 6.55 16.9 7.75 17.3 9.1 15.7 10.45 13.65 11.55 13.55 13.5 13.55 15.75 12.45 16.25 11.4 16.75 10.75 17.55 10.15 18.2 10.15 19.2 10.15 22.3 7.1 22.55 L6.7 22.35 7.5 21.7 8.4 21.4 Q9.6 20.9 9.25 19.05 9.0 17.1 10.95 16.15 12.8 15.3 12.65 13.4 12.5 11.5 14.2 10.6 16.4 9.75 16.25 7.9 16.15 5.9 17.25 5.25 18.3 4.5 19.1 2.85 L20.65 1.85" fill="#a85400" fill-rule="evenodd" stroke="none"/>
      <path d="M22.0 0.0 L21.95 0.1" fill="none" stroke="#9f7700" stroke-linecap="round" stroke-linejoin="round" stroke-opacity="0.7019608" stroke-width="0.5"/>
      <path d="M21.85 0.25 L21.85 0.1 21.85 0.05" fill="none" stroke="#c7c77e" stroke-linecap="round" stroke-linejoin="round" stroke-opacity="0.7019608" stroke-width="0.5"/>
      <path d="M9.3 23.55 L9.55 23.15 Q11.25 21.6 10.9 20.2 10.75 19.35 11.7 17.9 12.05 17.35 13.1 16.75 14.5 15.85 14.45 14.0 14.35 12.1 16.4 10.95 18.25 9.7 17.6 8.25 17.55 6.7 18.75 5.8 L20.5 4.1 20.55 4.05 Q21.15 2.95 21.55 1.35 L21.85 0.25" fill="none" stroke="#c7c7c7" stroke-linecap="round" stroke-linejoin="round" stroke-opacity="0.73333335" stroke-width="0.6000000000000001"/>
      <path d="M20.65 1.85 Q20.15 3.2 17.7 5.7 L17.7 5.75 Q16.85 6.55 16.9 7.75 17.3 9.1 15.7 10.45 13.65 11.55 13.55 13.5 13.55 15.75 12.45 16.25 11.4 16.75 10.75 17.55 10.15 18.2 10.15 19.2 L10.25 19.7 Q10.55 21.1 8.95 22.7 8.5 23.15 8.6 23.3" fill="none" stroke="#765828" stroke-linecap="round" stroke-linejoin="round" stroke-width="0.05"/>
      <path d="M8.6 23.3 L9.3 23.55 M21.85 0.1 L18.65 3.15 18.55 3.25 M21.95 0.1 L21.85 1.0 21.8 1.2 21.05 4.15 Q20.75 5.0 19.9 5.65 18.4 6.75 18.3 8.25 18.6 9.75 17.2 11.0 15.15 12.1 15.05 14.0 15.0 16.3 13.95 16.8 12.9 17.4 12.55 17.95 11.6 19.35 11.75 20.25 12.05 21.6 9.9 23.15 L9.4 23.55 9.3 23.55 M6.7 22.35 L6.4 22.2 Q7.05 21.65 7.5 21.45 8.85 20.85 8.95 18.95 8.85 16.8 10.8 15.75 12.3 15.0 12.3 13.15 12.3 11.45 13.85 10.4 15.55 9.55 15.75 7.9 15.75 5.8 17.4 4.75 18.0 4.4 18.55 3.25 M6.7 22.35 L7.1 22.55 M8.6 23.3 L7.1 22.55" fill="none" stroke="#111109" stroke-linecap="round" stroke-linejoin="round" stroke-opacity="0.2509804" stroke-width="0.25"/>
      <path d="M21.1 2.15 Q20.6 2.15 20.05 2.7 19.55 3.25 19.35 4.0 19.15 4.7 19.35 5.15 19.55 5.65 20.05 5.6 L21.0 4.95 21.8 3.7 21.8 2.55 Q21.6 2.05 21.1 2.15" fill="url(#gradient5)" fill-rule="evenodd" stroke="none"/>
      <path d="M9.55 22.6 Q9.65 23.1 10.15 23.0 10.6 23.0 11.2 22.4 L12.05 21.05 12.2 19.85 Q12.1 19.35 11.6 19.4 11.1 19.45 10.5 20.0 10.0 20.6 9.65 21.35 9.4 22.1 9.55 22.6" fill="url(#gradient6)" fill-rule="evenodd" stroke="none"/>
    </g>
    <radialGradient cx="0" cy="0" gradientTransform="matrix(0.0087, -0.0147, -0.0024, -0.0011, 14.45, 12.6)" gradientUnits="userSpaceOnUse" id="gradient4" r="819.2" spreadMethod="pad">
      <stop offset="0.0" stop-color="#c2c6ad"/>
      <stop offset="1.0" stop-color="#c7c7c7" stop-opacity="0.0"/>
    </radialGradient>
    <radialGradient cx="0" cy="0" gradientTransform="matrix(-6.0E-4, -0.0014, -0.0016, 0.0017, 20.55, 3.85)" gradientUnits="userSpaceOnUse" id="gradient5" r="819.2" spreadMethod="pad">
      <stop offset="0.0" stop-color="#c7c7c7"/>
      <stop offset="0.24313725490196078" stop-color="#c7c7c7"/>
      <stop offset="0.26666666666666666" stop-color="#c7c7c7" stop-opacity="0.56078434"/>
      <stop offset="0.9333333333333333" stop-color="#c7c7c7" stop-opacity="0.0"/>
    </radialGradient>
    <radialGradient cx="0" cy="0" gradientTransform="matrix(-4.0E-4, -0.0015, -0.0017, 0.0018, 10.85, 21.2)" gradientUnits="userSpaceOnUse" id="gradient6" r="819.2" spreadMethod="pad">
      <stop offset="0.0" stop-color="#c7c7c7"/>
      <stop offset="0.24313725490196078" stop-color="#c7c7c7"/>
      <stop offset="0.26666666666666666" stop-color="#c7c7c7" stop-opacity="0.56078434"/>
      <stop offset="0.9333333333333333" stop-color="#c7c7c7" stop-opacity="0.0"/>
    </radialGradient>
  </defs>
</svg>
