<?xml version="1.0" encoding="UTF-8" standalone="no"?>
<svg xmlns:xlink="http://www.w3.org/1999/xlink" height="440.0px" width="440.0px" xmlns="http://www.w3.org/2000/svg">
  <g transform="matrix(10.0, 0.0, 0.0, 10.0, 0.0, 0.0)">
    <use height="44.0" transform="matrix(0.9091, 0.0, 0.0, 0.9091, 2.0, 2.0)" width="44.0" xlink:href="#sprite0"/>
  </g>
  <defs>
    <g id="sprite0" transform="matrix(1.0, 0.0, 0.0, 1.0, 0.0, 0.0)">
      <use height="44.0" transform="matrix(1.0, 0.0, 0.0, 1.0, 0.0, 0.0)" width="44.0" xlink:href="#shape0"/>
      <use height="44.15" transform="matrix(0.5699, 0.0, 0.0, 0.5699, 11.993, 12.836)" width="48.45" xlink:href="#sprite1"/>
    </g>
    <g id="shape0" transform="matrix(1.0, 0.0, 0.0, 1.0, 0.0, 0.0)">
      <path d="M44.0 44.0 L0.0 44.0 0.0 0.0 44.0 0.0 44.0 44.0" fill="#43adca" fill-opacity="0.0" fill-rule="evenodd" stroke="none"/>
      <path d="M27.2 6.9 L29.3 3.9 28.95 4.6 27.85 7.45 26.05 12.6 25.3 15.15 24.95 16.4 24.5 18.2 Q23.05 18.55 21.45 19.7 L24.3 17.6 24.55 16.45 25.4 12.65 Q26.1 9.95 27.15 7.0 L27.2 6.9" fill="#febe5f" fill-rule="evenodd" stroke="none"/>
      <path d="M26.05 7.05 L28.4 4.65 29.45 3.5 29.3 3.9 27.2 6.9 26.25 8.15 25.25 9.1 25.9 7.2 25.9 7.15 26.05 7.05 M16.05 18.2 Q17.15 15.25 17.3 12.85 L18.25 12.35 18.85 12.1 18.8 13.2 18.8 13.25 18.35 13.5 17.9 13.7 Q17.85 15.35 16.05 18.2 M21.95 10.2 L22.0 10.15 23.6 9.0 23.05 10.8 21.65 11.7 21.95 10.2" fill="#feeeb4" fill-rule="evenodd" stroke="none"/>
      <path d="M26.25 8.15 L27.2 6.9 27.15 7.0 Q26.1 9.95 25.4 12.65 L24.55 16.45 24.3 17.6 21.45 19.7 21.2 19.85 20.1 20.65 Q21.15 18.8 23.6 17.65 L23.8 16.5 Q24.1 14.7 24.7 12.75 L26.25 8.15" fill="#db9200" fill-rule="evenodd" stroke="none"/>
      <path d="M25.25 9.1 L26.25 8.15 22.0 14.15 22.5 12.95 22.9 11.9 23.15 10.7 25.2 9.15 25.25 9.1 M25.2 9.15 L22.9 11.9 25.2 9.15 M18.8 13.25 L20.7 12.2 21.65 11.7 21.45 13.1 21.4 13.35 20.65 16.05 19.45 17.75 17.5 19.55 17.65 19.2 Q18.25 17.8 18.55 15.35 L18.6 14.8 18.8 13.25 M18.6 14.8 L21.4 13.35 18.6 14.8" fill="#fee378" fill-rule="evenodd" stroke="none"/>
      <path d="M25.9 7.2 L25.25 9.1 25.2 9.15 23.15 10.7 23.05 10.8 23.6 9.0 25.9 7.2 M18.85 12.1 L20.6 11.05 21.95 10.2 21.65 11.7 20.7 12.2 18.8 13.25 18.8 13.2 18.85 12.1" fill="#fef7de" fill-rule="evenodd" stroke="none"/>
      <path d="M5.85 34.75 L5.55 34.2 5.75 33.95 5.95 34.2 Q6.75 34.95 6.5 35.0 L5.95 34.8 5.85 34.75 M5.75 33.85 L5.4 33.35 5.65 32.85 5.7 32.9 5.9 33.15 6.75 34.1 6.8 34.15 6.75 34.2 Q7.05 34.7 6.45 34.35 L6.15 34.15 5.9 34.0 5.75 33.85 M14.85 20.8 L15.15 20.2 16.05 18.2 Q17.85 15.35 17.9 13.7 L18.35 13.5 18.8 13.25 18.6 14.8 18.55 15.35 Q18.25 17.8 17.65 19.2 L17.5 19.55 17.15 19.8 17.0 19.9 14.9 20.8 14.85 20.8 M23.05 10.8 L23.15 10.7 22.9 11.9 22.5 12.95 22.0 14.15 20.65 16.05 21.4 13.35 21.45 13.1 21.65 11.7 23.05 10.8 M22.9 11.9 L21.4 13.35 22.9 11.9 M18.6 14.8 L17.85 15.25 18.6 14.8 M15.15 20.2 L14.9 20.8 15.15 20.2" fill="#ffcc00" fill-rule="evenodd" stroke="none"/>
      <path d="M19.5 21.2 L17.8 22.85 17.8 21.85 Q18.0 20.35 19.2 18.1 L20.1 16.9 23.25 12.9 Q24.35 11.65 24.3 12.2 L24.25 12.8 Q24.05 15.1 23.25 16.6 L22.6 17.45 22.55 17.6 Q20.65 19.55 19.5 21.2 M9.25 35.35 L8.95 35.85 8.35 35.65 8.1 35.95 7.25 35.75 6.8 35.55 6.7 35.45 6.6 35.4 6.3 35.2 6.05 34.95 5.85 34.75 5.95 34.8 6.5 35.0 Q6.75 34.95 5.95 34.2 L5.75 33.95 5.75 33.85 5.9 34.0 6.15 34.15 6.45 34.35 Q7.05 34.7 6.75 34.2 L6.8 34.2 7.25 34.5 8.05 35.0 9.25 35.35 M8.35 35.65 L7.4 35.25 6.4 34.55 5.9 34.0 6.4 34.55 7.4 35.25 8.35 35.65" fill="#965c00" fill-rule="evenodd" stroke="none"/>
      <path d="M20.1 20.65 L19.5 21.2 Q20.65 19.55 22.55 17.6 L22.6 17.45 23.25 16.6 Q24.05 15.1 24.25 12.8 L24.3 12.2 Q24.35 11.65 23.25 12.9 L20.1 16.9 19.2 18.1 19.45 17.75 20.65 16.05 22.0 14.15 26.25 8.15 24.7 12.75 Q24.1 14.7 23.8 16.5 L23.6 17.65 Q21.15 18.8 20.1 20.65" fill="#bf7f00" fill-rule="evenodd" stroke="none"/>
      <path d="M9.15 33.8 L9.25 35.35 8.05 35.0 7.25 34.5 6.8 34.2 7.25 34.3 8.35 34.75 8.2 33.15 8.2 33.0 8.65 33.2 8.75 33.45 9.15 33.55 9.15 33.8 M19.2 18.1 Q18.0 20.35 17.8 21.85 L14.3 26.2 13.45 27.3 10.95 30.45 14.1 25.2 14.35 24.85 17.0 19.9 17.15 19.8 17.5 19.55 19.45 17.75 19.2 18.1 M8.65 33.2 L8.2 33.15 8.65 33.2" fill="#777a5f" fill-rule="evenodd" stroke="none"/>
      <path d="M17.8 22.85 Q13.85 26.95 11.75 30.1 L9.15 33.8 9.15 33.55 8.75 33.45 8.85 33.35 10.15 31.8 13.45 27.3 14.3 26.2 17.8 21.85 17.8 22.85 M7.5 32.45 L7.55 32.45 7.6 32.45 7.35 32.45 9.75 29.3 13.65 23.0 Q13.0 25.45 11.55 28.05 L11.3 28.4 10.0 30.1 7.8 32.65 7.75 32.75 7.65 32.55 7.55 32.7 5.95 33.15 5.7 32.9 7.0 32.55 7.5 32.45 M7.65 32.55 L7.7 32.55 7.6 32.45 7.65 32.55" fill="#cbcca7" fill-rule="evenodd" stroke="none"/>
      <path d="M14.7 21.15 L14.85 20.8 14.9 20.8 17.0 19.9 14.35 24.85 14.1 25.2 Q12.25 28.15 10.05 30.75 L8.15 32.9 7.95 33.05 8.05 33.1 6.75 34.1 5.9 33.15 5.95 33.15 7.55 32.7 7.65 32.55 7.75 32.75 7.8 32.65 10.0 30.1 11.3 28.4 11.55 28.05 Q14.15 24.5 15.8 20.95 L14.7 21.15 M7.95 33.05 L7.95 32.7 7.75 32.75 7.95 32.7 7.95 33.05" fill="#e9e8da" fill-rule="evenodd" stroke="none"/>
      <path d="M13.65 23.0 L14.7 21.15 15.8 20.95 Q14.15 24.5 11.55 28.05 13.0 25.45 13.65 23.0" fill="#a6a889" fill-rule="evenodd" stroke="none"/>
      <path d="M14.1 25.2 L10.95 30.45 13.45 27.3 10.15 31.8 8.85 33.35 8.75 33.45 8.65 33.2 8.2 33.0 8.2 33.15 8.35 34.75 7.25 34.3 6.8 34.2 6.8 34.15 6.75 34.1 8.05 33.1 7.95 33.05 8.15 32.9 10.05 30.75 Q12.25 28.15 14.1 25.2 M8.2 33.15 L8.05 33.1 8.2 33.15" fill="#9ea17d" fill-rule="evenodd" stroke="none"/>
      <path d="M7.6 32.45 L7.7 32.55 7.65 32.55 7.6 32.45" fill="#ffffff" fill-rule="evenodd" stroke="none"/>
      <path d="M5.65 32.85 L7.0 32.55 5.7 32.9 5.95 33.15 5.9 33.15 5.7 32.9 5.65 32.85" fill="#2d2d2d" fill-rule="evenodd" stroke="none"/>
      <path d="M5.0 37.65 L5.05 37.2 5.1 35.6 5.05 35.2 5.8 35.05 Q5.7 35.25 5.9 35.5 L5.45 35.45 5.45 35.55 5.55 36.9 5.0 37.65" fill="#fee6a0" fill-rule="evenodd" stroke="none"/>
      <path d="M5.55 36.9 L5.45 35.55 5.45 35.45 5.9 35.5 5.9 35.55 6.1 36.05 5.55 36.9" fill="#ffcc33" fill-rule="evenodd" stroke="none"/>
      <path d="M6.1 36.05 L5.9 35.55 5.9 35.5 6.3 35.2 6.6 35.4 6.1 36.05" fill="#f8ba01" fill-rule="evenodd" stroke="none"/>
      <path d="M5.8 35.05 L6.05 34.95 6.3 35.2 5.9 35.5 Q5.7 35.25 5.8 35.05" fill="#fdd35b" fill-rule="evenodd" stroke="none"/>
      <path d="M6.8 34.15 L6.8 34.2 6.75 34.2 6.8 34.15" fill="#3f6167" fill-rule="evenodd" stroke="none"/>
      <path d="M7.25 35.75 Q7.05 36.25 7.35 36.8 L6.85 36.9 6.45 36.6 6.9 36.5 Q6.6 36.05 6.8 35.55 L7.25 35.75 M6.1 36.05 L6.6 35.4 6.7 35.45 6.15 36.15 6.1 36.05" fill="#a97e01" fill-rule="evenodd" stroke="none"/>
      <path d="M6.7 35.45 L6.8 35.55 Q6.6 36.05 6.9 36.5 L6.45 36.6 6.15 36.15 6.7 35.45" fill="#d39e01" fill-rule="evenodd" stroke="none"/>
      <path d="M6.85 36.9 Q6.05 37.0 5.45 37.45 L5.0 37.65 5.55 36.9 6.1 36.05 6.15 36.15 5.75 36.8 6.45 36.6 6.85 36.9" fill="#cd9a01" fill-rule="evenodd" stroke="none"/>
      <path d="M6.15 36.15 L6.45 36.6 5.75 36.8 6.15 36.15" fill="#fec210" fill-rule="evenodd" stroke="none"/>
      <path d="M29.3 3.9 L29.45 3.5 28.4 4.65 26.05 7.05 M29.3 3.9 L28.95 4.6 27.85 7.45 26.05 12.6 25.3 15.15 24.95 16.4 24.5 18.2 Q23.05 18.55 21.45 19.7 M21.2 19.85 L20.1 20.65 19.5 21.2 17.8 22.85 Q13.85 26.95 11.75 30.1 L9.15 33.8 M7.6 32.45 L7.35 32.45 9.75 29.3 13.65 23.0 14.7 21.15 14.85 20.8 14.9 20.8 15.15 20.2 16.05 18.2 Q17.15 15.25 17.3 12.85 L18.25 12.35 18.85 12.1 20.6 11.05 21.95 10.2 M22.0 10.15 L23.6 9.0 25.9 7.2 M19.2 18.1 L19.45 17.75 M8.75 33.45 L9.15 33.55 9.15 33.8 M7.95 33.05 L8.05 33.1 8.2 33.15 8.65 33.2 8.75 33.45 M7.75 32.75 L7.95 32.7 7.95 33.05 M7.6 32.45 L7.65 32.55 7.75 32.75" fill="none" stroke="#000000" stroke-linecap="round" stroke-linejoin="round" stroke-opacity="0.2" stroke-width="0.45"/>
      <path d="M26.25 8.15 L27.2 6.9 29.3 3.9 M19.45 17.75 L20.65 16.05 22.0 14.15 26.25 8.15" fill="none" stroke="#ffffff" stroke-linecap="round" stroke-linejoin="round" stroke-opacity="0.4" stroke-width="0.45"/>
      <path d="M22.9 11.9 L25.2 9.15 M21.4 13.35 L22.9 11.9 M21.4 13.35 L18.6 14.8 M17.85 15.25 L18.6 14.8" fill="none" stroke="#ffffff" stroke-linecap="round" stroke-linejoin="round" stroke-opacity="0.37254903" stroke-width="0.75"/>
      <path d="M9.15 33.8 L9.25 35.35 8.95 35.85 8.35 35.65 8.1 35.95 7.25 35.75 Q7.05 36.25 7.35 36.8 L6.85 36.9 Q6.05 37.0 5.45 37.45 L5.0 37.65 5.05 37.2 5.1 35.6 5.05 35.2 5.8 35.05 6.05 34.95 5.85 34.75 5.55 34.2 5.75 33.95 5.75 33.85 5.4 33.35 5.65 32.85 7.0 32.55 7.5 32.45 M19.2 18.1 Q18.0 20.35 17.8 21.85 L17.8 22.85 M17.5 19.55 L19.45 17.75 M17.0 19.9 L14.9 20.8 M6.8 34.2 L7.25 34.5 8.05 35.0 9.25 35.35 M6.8 34.2 L6.8 34.15 6.75 34.1 M5.9 33.15 L6.75 34.1 M5.95 33.15 L5.7 32.9 5.9 33.15 M5.65 32.85 L5.7 32.9 7.0 32.55 M5.75 33.85 L5.9 34.0 6.4 34.55 7.4 35.25 8.35 35.65 M6.6 35.4 L6.3 35.2 M6.05 34.95 L6.3 35.2 M6.7 35.45 L6.6 35.4 M6.8 35.55 L6.7 35.45 M6.8 35.55 L7.25 35.75" fill="none" stroke="#000000" stroke-linecap="round" stroke-linejoin="round" stroke-opacity="0.2" stroke-width="0.25"/>
      <path d="M9.95 30.4 L10.4 30.0 Q14.7 25.4 16.15 20.5 16.55 19.0 15.95 19.5 13.25 24.95 9.45 29.05 8.8 30.45 9.95 30.4" fill="url(#gradient0)" fill-rule="evenodd" stroke="none"/>
      <path d="M11.45 22.6 Q10.55 22.4 9.65 23.15 11.15 20.7 15.55 22.85 L15.65 22.95 16.0 23.2 13.75 22.8 12.85 22.6 Q12.0 22.45 11.45 22.6" fill="#fee378" fill-rule="evenodd" stroke="none"/>
      <path d="M18.05 27.9 L17.65 28.85 Q17.9 27.25 16.55 25.75 L14.6 25.5 Q16.0 25.45 13.85 23.35 L12.8 23.15 12.75 23.1 11.7 22.65 11.45 22.6 Q12.0 22.45 12.85 22.6 L13.75 22.8 14.5 22.95 Q16.05 23.75 16.7 24.6 17.9 26.5 18.05 27.9 M13.85 23.35 Q15.85 23.9 16.55 25.75 15.85 23.9 13.85 23.35" fill="#bf7f00" fill-rule="evenodd" stroke="none"/>
      <path d="M14.6 25.5 Q13.0 24.9 12.8 23.15 L13.85 23.35 Q16.0 25.45 14.6 25.5" fill="#db9200" fill-rule="evenodd" stroke="none"/>
      <path d="M16.0 23.2 Q18.7 25.35 18.05 27.9 17.9 26.5 16.7 24.6 16.05 23.75 14.5 22.95 L13.75 22.8 16.0 23.2" fill="#ffcc00" fill-rule="evenodd" stroke="none"/>
      <path d="M11.45 22.6 Q10.55 22.4 9.65 23.15 11.15 20.7 15.55 22.85 L15.65 22.95 16.0 23.2 Q18.7 25.35 18.05 27.9 L17.65 28.85 Q17.9 27.25 16.55 25.75 L14.6 25.5 Q13.0 24.9 12.8 23.15 L12.75 23.1 11.7 22.65 11.45 22.6" fill="none" stroke="#000000" stroke-linecap="round" stroke-linejoin="round" stroke-opacity="0.2" stroke-width="0.5"/>
      <path d="M13.85 23.35 L12.8 23.15 M16.55 25.75 Q15.85 23.9 13.85 23.35" fill="none" stroke="#ffffff" stroke-linecap="round" stroke-linejoin="round" stroke-opacity="0.2" stroke-width="0.5"/>
    </g>
    <radialGradient cx="0" cy="0" gradientTransform="matrix(6.0E-4, 0.0029, 0.0031, -0.0041, 13.25, 25.35)" gradientUnits="userSpaceOnUse" id="gradient0" r="819.2" spreadMethod="pad">
      <stop offset="0.0" stop-color="#ffffff" stop-opacity="0.4117647"/>
      <stop offset="1.0" stop-color="#ffffff" stop-opacity="0.0"/>
    </radialGradient>
    <g id="sprite1" transform="matrix(1.0, 0.0, 0.0, 1.0, 0.1, 0.2)">
      <use height="44.15" transform="matrix(1.0, 0.0, 0.0, 1.0, -0.1, -0.2)" width="48.45" xlink:href="#shape1"/>
    </g>
    <g id="shape1" transform="matrix(1.0, 0.0, 0.0, 1.0, 0.1, 0.2)">
      <path d="M47.75 0.6 L47.0 1.5 44.35 5.5 40.05 12.65 38.1 16.3 37.15 18.05 35.8 20.75 Q33.7 20.75 31.05 21.85 L35.75 19.75 36.45 18.0 39.0 12.55 Q40.95 8.7 43.45 4.6 L43.5 4.55 43.6 4.45 47.75 0.6" fill="#d09b4d" fill-rule="evenodd" stroke="none"/>
      <path d="M41.8 4.25 L46.15 1.4 48.15 0.0 47.75 0.6 43.6 4.45 43.5 4.55 41.75 6.05 39.9 7.15 41.5 4.4 41.5 4.35 41.8 4.25 M22.95 17.95 Q25.6 13.85 26.65 10.25 L28.2 9.8 29.2 9.55 28.75 11.3 28.75 11.35 28.0 11.6 27.25 11.75 Q26.7 14.2 22.95 17.95 M34.6 7.7 L34.7 7.65 Q36.15 7.1 37.45 6.4 L36.05 8.95 33.65 9.9 34.6 7.7" fill="#d0c393" fill-rule="evenodd" stroke="none"/>
      <path d="M31.05 21.85 L30.7 22.0 30.3 22.1 28.4 23.0 Q30.55 20.55 34.65 19.6 L35.35 17.9 Q36.35 15.3 37.95 12.45 L41.75 6.05 43.5 4.55 43.45 4.6 Q40.95 8.7 39.0 12.55 L36.45 18.0 35.75 19.75 31.05 21.85" fill="#b37700" fill-rule="evenodd" stroke="none"/>
      <path d="M29.2 9.55 L32.3 8.55 34.6 7.7 33.65 9.9 32.1 10.4 28.75 11.35 28.75 11.3 29.2 9.55 M37.45 6.4 L41.5 4.4 39.9 7.15 39.8 7.25 36.25 8.85 36.05 8.95 37.45 6.4" fill="#d0cab6" fill-rule="evenodd" stroke="none"/>
      <path d="M2.2 39.7 L1.9 38.85 2.25 38.45 2.5 38.9 Q3.5 40.4 3.05 40.3 L2.35 39.9 2.2 39.7 M2.35 38.35 L1.95 37.45 2.55 36.8 2.6 36.9 2.8 37.35 3.75 39.0 3.85 39.15 3.8 39.2 Q4.05 40.0 3.15 39.3 L2.8 38.95 2.45 38.65 2.35 38.35 M20.35 21.5 L20.85 20.9 22.95 17.95 Q26.7 14.2 27.25 11.75 L28.0 11.6 28.75 11.35 28.0 13.65 27.7 14.45 Q26.4 18.1 25.1 20.05 L24.75 20.5 24.15 20.75 23.85 20.85 Q22.0 21.6 20.4 21.5 L20.35 21.5 M36.05 8.95 L36.25 8.85 35.45 10.6 32.7 12.35 35.45 10.6 34.55 12.1 33.35 13.75 30.7 16.2 Q31.8 14.6 32.7 12.35 L32.9 11.9 33.65 9.9 36.05 8.95 M28.0 13.65 L26.7 14.05 28.0 13.65 M20.85 20.9 L20.4 21.5 20.85 20.9" fill="#d1a700" fill-rule="evenodd" stroke="none"/>
      <path d="M36.25 8.85 L39.8 7.25 39.9 7.15 41.75 6.05 33.35 13.75 34.55 12.1 35.45 10.6 36.25 8.85 M39.8 7.25 L35.45 10.6 39.8 7.25 M30.7 16.2 L28.3 18.35 24.75 20.5 25.1 20.05 Q26.4 18.1 27.7 14.45 L28.0 13.65 28.75 11.35 32.1 10.4 33.65 9.9 32.9 11.9 32.7 12.35 28.0 13.65 32.7 12.35 Q31.8 14.6 30.7 16.2" fill="#d0ba62" fill-rule="evenodd" stroke="none"/>
      <path d="M27.25 23.65 L24.15 25.6 24.5 24.0 Q25.2 21.85 27.85 18.9 L29.6 17.3 35.7 12.2 Q37.7 10.7 37.45 11.6 L37.25 12.35 Q36.15 15.8 34.45 17.8 L33.15 18.95 33.05 19.15 Q29.5 21.45 27.25 23.65 M7.2 41.8 L6.55 42.4 5.7 41.9 5.25 42.3 3.95 41.75 3.35 41.25 3.25 41.15 3.1 40.95 2.75 40.65 2.4 40.1 2.2 39.7 2.35 39.9 3.05 40.3 Q3.5 40.4 2.5 38.9 L2.25 38.45 2.35 38.35 2.45 38.65 2.8 38.95 3.15 39.3 Q4.05 40.0 3.8 39.2 L3.9 39.2 4.4 39.8 5.5 40.75 7.2 41.8 M5.7 41.9 L4.4 40.95 3.1 39.65 2.45 38.65 3.1 39.65 4.4 40.95 5.7 41.9" fill="#7b4b00" fill-rule="evenodd" stroke="none"/>
      <path d="M28.4 23.0 L27.25 23.65 Q29.5 21.45 33.05 19.15 L33.15 18.95 34.45 17.8 Q36.15 15.8 37.25 12.35 L37.45 11.6 Q37.7 10.7 35.7 12.2 L29.6 17.3 27.85 18.9 28.3 18.35 30.7 16.2 33.35 13.75 41.75 6.05 37.95 12.45 Q36.35 15.3 35.35 17.9 L34.65 19.6 Q30.55 20.55 28.4 23.0" fill="#9c6800" fill-rule="evenodd" stroke="none"/>
      <path d="M7.5 39.4 L7.2 41.8 5.5 40.75 4.4 39.8 3.9 39.2 4.4 39.55 5.95 40.5 6.3 38.1 6.35 37.85 6.9 38.3 7.0 38.7 7.55 39.0 7.5 39.4 M28.3 18.35 L27.85 18.9 Q25.2 21.85 24.5 24.0 L17.8 29.6 16.2 30.95 11.35 34.9 17.85 27.9 18.25 27.45 Q21.2 24.4 23.85 20.85 L24.15 20.75 24.75 20.5 28.3 18.35 M6.9 38.3 L6.3 38.1 6.9 38.3" fill="#61644d" fill-rule="evenodd" stroke="none"/>
      <path d="M20.0 21.95 L20.35 21.5 20.4 21.5 Q22.0 21.6 23.85 20.85 21.2 24.4 18.25 27.45 L17.85 27.9 Q14.05 31.8 9.75 35.1 L6.2 37.7 5.9 37.9 5.95 37.35 5.7 37.3 5.95 37.35 5.9 37.9 6.15 38.0 3.75 39.0 2.8 37.35 2.85 37.3 5.45 37.2 5.65 37.0 5.7 37.3 5.85 37.15 9.9 34.05 12.5 31.9 13.1 31.4 Q18.05 27.0 21.7 22.05 L20.0 21.95" fill="#bfbeb2" fill-rule="evenodd" stroke="none"/>
      <path d="M17.85 24.45 L20.0 21.95 21.7 22.05 Q18.05 27.0 13.1 31.4 16.1 28.0 17.85 24.45" fill="#888970" fill-rule="evenodd" stroke="none"/>
      <path d="M24.15 25.6 Q16.85 30.55 12.6 34.55 L7.5 39.4 7.55 39.0 7.0 38.7 7.25 38.65 9.6 36.7 16.2 30.95 17.8 29.6 24.5 24.0 24.15 25.6 M5.25 36.8 L9.8 32.75 Q14.05 28.9 17.85 24.45 16.1 28.0 13.1 31.4 L12.5 31.9 9.9 34.05 5.85 37.15 5.7 37.3 5.65 37.0 5.45 37.2 2.85 37.3 2.6 36.9 4.65 36.85 5.45 36.8 5.55 36.85 5.6 36.8 5.65 37.0 5.7 37.0 5.6 36.8 5.45 36.8 5.25 36.8" fill="#a6a788" fill-rule="evenodd" stroke="none"/>
      <path d="M5.65 37.0 L5.6 36.8 5.7 37.0 5.65 37.0" fill="#d1d1d1" fill-rule="evenodd" stroke="none"/>
      <path d="M17.85 27.9 L11.35 34.9 16.2 30.95 9.6 36.7 7.25 38.65 7.0 38.7 6.9 38.3 6.35 37.85 6.3 38.1 5.95 40.5 4.4 39.55 3.9 39.2 3.85 39.15 3.75 39.0 6.15 38.0 5.9 37.9 6.2 37.7 9.75 35.1 Q14.05 31.8 17.85 27.9 M6.3 38.1 L6.15 38.0 6.3 38.1" fill="#818466" fill-rule="evenodd" stroke="none"/>
      <path d="M2.55 36.8 L4.65 36.8 4.65 36.85 2.6 36.9 2.85 37.3 2.8 37.35 2.6 36.9 2.55 36.8" fill="#242424" fill-rule="evenodd" stroke="none"/>
      <path d="M3.85 39.15 L3.9 39.2 3.8 39.2 3.85 39.15" fill="#334f54" fill-rule="evenodd" stroke="none"/>
      <path d="M2.0 40.9 L2.75 40.65 3.1 40.95 2.15 41.8 1.95 41.0 2.0 40.9" fill="#cb9800" fill-rule="evenodd" stroke="none"/>
      <path d="M1.95 40.25 L2.4 40.1 2.75 40.65 2.0 40.9 1.95 40.25" fill="#cfad4a" fill-rule="evenodd" stroke="none"/>
      <path d="M2.0 40.9 L1.95 41.0 2.15 41.8 0.95 42.9 1.35 40.9 1.35 40.7 2.0 40.9" fill="#d1a729" fill-rule="evenodd" stroke="none"/>
      <path d="M0.0 43.85 L0.2 43.2 0.8 40.85 0.85 40.2 1.95 40.25 2.0 40.9 1.35 40.7 1.35 40.9 0.95 42.9 0.0 43.85" fill="#d0bc83" fill-rule="evenodd" stroke="none"/>
      <path d="M2.55 42.75 L2.2 42.0 3.25 41.15 3.35 41.25 Q2.95 41.95 3.2 42.75 L2.55 42.75" fill="#ad8100" fill-rule="evenodd" stroke="none"/>
      <path d="M2.2 42.0 L2.55 42.75 1.3 42.8 2.2 42.0" fill="#d09f0d" fill-rule="evenodd" stroke="none"/>
      <path d="M3.0 43.3 Q1.75 43.25 0.75 43.7 L0.0 43.85 0.95 42.9 2.15 41.8 2.2 42.0 1.3 42.8 2.55 42.75 3.0 43.3" fill="#a87e00" fill-rule="evenodd" stroke="none"/>
      <path d="M3.95 41.75 Q3.5 42.45 3.8 43.35 L3.0 43.3 2.55 42.75 3.2 42.75 Q2.95 41.95 3.35 41.25 L3.95 41.75 M2.15 41.8 L3.1 40.95 3.25 41.15 2.2 42.0 2.15 41.8" fill="#8a6700" fill-rule="evenodd" stroke="none"/>
      <path d="M41.8 4.25 L46.15 1.4 48.15 0.0 47.75 0.6 47.0 1.5 44.35 5.5 40.05 12.65 38.1 16.3 37.15 18.05 35.8 20.75 Q33.7 20.75 31.05 21.85 L30.7 22.0 M30.3 22.1 L28.4 23.0 27.25 23.65 24.15 25.6 Q16.85 30.55 12.6 34.55 L7.5 39.4 M5.25 36.8 L9.8 32.75 Q14.05 28.9 17.85 24.45 L20.0 21.95 20.35 21.5 20.4 21.5 20.85 20.9 22.95 17.95 Q25.6 13.85 26.65 10.25 L28.2 9.8 29.2 9.55 32.3 8.55 34.6 7.7 M34.7 7.65 Q36.15 7.1 37.45 6.4 L41.5 4.4 M28.3 18.35 L27.85 18.9 M5.65 37.0 L5.7 37.3 5.95 37.35 5.9 37.9 6.15 38.0 6.3 38.1 6.9 38.3 7.0 38.7 7.55 39.0 7.5 39.4 M5.65 37.0 L5.6 36.8 5.45 36.8 5.25 36.8" fill="none" stroke="#000000" stroke-linecap="round" stroke-linejoin="round" stroke-opacity="0.2" stroke-width="0.45"/>
      <path d="M43.5 4.55 L43.6 4.45 47.75 0.6 M43.5 4.55 L41.75 6.05 33.35 13.75 30.7 16.2 28.3 18.35" fill="none" stroke="#d1d1d1" stroke-linecap="round" stroke-linejoin="round" stroke-opacity="0.4" stroke-width="0.45"/>
      <path d="M35.45 10.6 L39.8 7.25 M32.7 12.35 L35.45 10.6 M26.7 14.05 L28.0 13.65 M32.7 12.35 L28.0 13.65" fill="none" stroke="#d1d1d1" stroke-linecap="round" stroke-linejoin="round" stroke-opacity="0.37254903" stroke-width="0.75"/>
      <path d="M7.5 39.4 L7.2 41.8 6.55 42.4 5.7 41.9 5.25 42.3 3.95 41.75 Q3.5 42.45 3.8 43.35 L3.0 43.3 Q1.75 43.25 0.75 43.7 L0.0 43.85 0.2 43.2 0.8 40.85 0.85 40.2 1.95 40.25 2.4 40.1 2.2 39.7 1.9 38.85 2.25 38.45 2.35 38.35 1.95 37.45 2.55 36.8 4.65 36.8 5.25 36.8 M24.75 20.5 L28.3 18.35 M24.5 24.0 Q25.2 21.85 27.85 18.9 M20.4 21.5 Q22.0 21.6 23.85 20.85 M24.5 24.0 L24.15 25.6 M4.65 36.85 L2.6 36.9 2.85 37.3 M3.9 39.2 L4.4 39.8 5.5 40.75 7.2 41.8 M3.85 39.15 L3.9 39.2 M2.45 38.65 L3.1 39.65 4.4 40.95 5.7 41.9 M3.85 39.15 L3.75 39.0 2.8 37.35 2.6 36.9 2.55 36.8 M2.35 38.35 L2.45 38.65 M3.1 40.95 L2.75 40.65 2.4 40.1 M3.35 41.25 L3.25 41.15 3.1 40.95 M3.35 41.25 L3.95 41.75" fill="none" stroke="#000000" stroke-linecap="round" stroke-linejoin="round" stroke-opacity="0.2" stroke-width="0.25"/>
      <path d="M9.85 34.45 L10.65 34.0 Q18.75 28.4 22.5 21.45 23.55 19.3 22.55 19.95 16.65 27.2 9.6 32.25 8.15 34.25 9.85 34.45" fill="url(#gradient1)" fill-rule="evenodd" stroke="none"/>
      <path d="M14.65 23.1 Q13.3 22.55 11.7 23.35 14.8 20.15 20.75 24.9 L20.85 25.0 21.4 25.55 18.05 24.15 16.75 23.55 Q15.5 23.05 14.65 23.1" fill="#d0ba62" fill-rule="evenodd" stroke="none"/>
      <path d="M22.85 33.35 L21.95 34.65 Q22.9 32.3 21.35 29.55 L18.5 28.5 Q20.6 28.9 18.0 25.0 17.3 24.65 16.45 24.4 L16.45 24.35 15.05 23.3 14.65 23.1 Q15.5 23.05 16.75 23.55 L18.05 24.15 19.05 24.65 Q21.25 26.35 21.9 27.9 23.1 31.15 22.85 33.35 M18.0 25.0 Q20.9 26.5 21.35 29.55 20.9 26.5 18.0 25.0" fill="#9c6800" fill-rule="evenodd" stroke="none"/>
      <path d="M18.5 28.5 Q16.25 27.15 16.45 24.4 17.3 24.65 18.0 25.0 20.6 28.9 18.5 28.5" fill="#b37700" fill-rule="evenodd" stroke="none"/>
      <path d="M21.4 25.55 Q24.75 29.65 22.85 33.35 23.1 31.15 21.9 27.9 21.25 26.35 19.05 24.65 L18.05 24.15 21.4 25.55" fill="#d1a700" fill-rule="evenodd" stroke="none"/>
      <path d="M14.65 23.1 Q13.3 22.55 11.7 23.35 14.8 20.15 20.75 24.9 L20.85 25.0 21.4 25.55 Q24.75 29.65 22.85 33.35 L21.95 34.65 Q22.9 32.3 21.35 29.55 L18.5 28.5 Q16.25 27.15 16.45 24.4 L16.45 24.35 15.05 23.3 14.65 23.1" fill="none" stroke="#000000" stroke-linecap="round" stroke-linejoin="round" stroke-opacity="0.2" stroke-width="0.5"/>
      <path d="M18.0 25.0 Q17.3 24.65 16.45 24.4 M21.35 29.55 Q20.9 26.5 18.0 25.0" fill="none" stroke="#d1d1d1" stroke-linecap="round" stroke-linejoin="round" stroke-opacity="0.2" stroke-width="0.5"/>
    </g>
    <radialGradient cx="0" cy="0" gradientTransform="matrix(0.0, 0.0046, 0.0061, -0.0051, 16.55, 27.85)" gradientUnits="userSpaceOnUse" id="gradient1" r="819.2" spreadMethod="pad">
      <stop offset="0.0" stop-color="#d1d1d1" stop-opacity="0.4117647"/>
      <stop offset="1.0" stop-color="#d1d1d1" stop-opacity="0.0"/>
    </radialGradient>
  </defs>
</svg>
