<?xml version="1.0" encoding="UTF-8" standalone="no"?>
<svg xmlns:xlink="http://www.w3.org/1999/xlink" height="440.0px" width="440.0px" xmlns="http://www.w3.org/2000/svg">
  <g transform="matrix(10.0, 0.0, 0.0, 10.0, 0.0, 0.0)">
    <use height="44.0" transform="matrix(1.0, 0.0, 0.0, 1.0, 0.0, 0.0)" width="44.0" xlink:href="#shape0"/>
  </g>
  <defs>
    <g id="shape0" transform="matrix(1.0, 0.0, 0.0, 1.0, 0.0, 0.0)">
      <path d="M44.0 44.0 L0.0 44.0 0.0 0.0 44.0 0.0 44.0 44.0" fill="#33cc33" fill-opacity="0.0" fill-rule="evenodd" stroke="none"/>
      <path d="M2.7 35.7 L2.5 35.85 Q1.4 38.25 1.9 39.9 L1.95 40.0 2.15 39.85 3.05 38.8 Q2.35 37.85 2.7 35.7" fill="#c3bc8d" fill-rule="evenodd" stroke="none"/>
      <path d="M7.2 33.6 L8.75 33.85 Q9.9 34.1 10.4 34.8 11.2 35.85 10.5 37.8 11.55 35.5 10.45 34.1 L9.9 33.6 Q6.9 32.25 4.3 34.15 6.25 33.05 6.65 36.35 L6.6 34.6 Q6.35 33.7 7.2 33.6" fill="#ffffd5" fill-rule="evenodd" stroke="none"/>
      <path d="M7.2 33.6 Q6.35 33.7 6.6 34.6 L6.65 36.35 6.65 36.6 7.9 36.7 9.25 36.3 Q9.8 35.0 7.2 33.6" fill="#ada67e" fill-rule="evenodd" stroke="none"/>
      <path d="M1.95 40.0 L6.55 39.95 7.55 38.4 Q5.65 39.35 2.15 39.85 L1.95 40.0" fill="#6b6545" fill-rule="evenodd" stroke="none"/>
      <path d="M6.65 36.35 Q6.25 33.05 4.3 34.15 L4.2 34.2 2.75 35.55 2.7 35.7 Q2.35 37.85 3.05 38.8 4.4 39.2 6.55 36.7 L6.65 36.6 6.65 36.35 M4.05 36.05 L4.1 36.6 4.1 37.3 Q4.45 38.35 3.85 38.5 3.4 38.6 3.15 38.25 L3.1 37.65 3.1 36.85 3.1 36.55 3.1 36.15 Q3.25 35.85 3.65 35.85 L4.05 36.05" fill="#8c8360" fill-rule="evenodd" stroke="none"/>
      <path d="M10.4 34.8 Q9.9 34.1 8.75 33.85 L7.2 33.6 Q9.8 35.0 9.25 36.3 10.05 35.8 10.4 34.8" fill="#baaf7c" fill-rule="evenodd" stroke="none"/>
      <path d="M4.05 36.05 L3.65 35.85 Q3.25 35.85 3.1 36.15 L3.1 36.55 3.1 36.85 3.1 37.65 3.15 38.25 Q3.4 38.6 3.85 38.5 4.45 38.35 4.1 37.3 L4.1 36.6 4.05 36.05" fill="#757055" fill-rule="evenodd" stroke="none"/>
      <path d="M10.5 37.8 Q11.2 35.85 10.4 34.8 10.05 35.8 9.25 36.3 L7.9 36.7 Q9.3 37.1 10.45 37.8 L10.5 37.8" fill="#756e4c" fill-rule="evenodd" stroke="none"/>
      <path d="M6.55 39.95 Q8.4 39.75 10.3 38.25 L10.3 38.15 10.45 38.1 10.65 37.95 10.45 37.8 Q9.3 37.1 7.9 36.7 L6.65 36.6 6.55 36.7 Q4.4 39.2 3.05 38.8 L2.15 39.85 Q5.65 39.35 7.55 38.4 L6.55 39.95 M10.3 38.15 L10.45 37.8 10.3 38.15" fill="#57533e" fill-rule="evenodd" stroke="none"/>
      <path d="M4.3 34.15 Q6.9 32.25 9.9 33.6 L10.45 34.1 Q11.55 35.5 10.5 37.8 M2.7 35.7 L2.5 35.85 Q1.4 38.25 1.9 39.9 L1.95 40.0 6.55 39.95 Q8.4 39.75 10.3 38.25 L10.25 38.35 10.25 38.5 10.55 38.1 10.45 38.1 10.3 38.15 M10.45 37.8 L10.5 37.8 M4.3 34.15 L4.2 34.2 2.75 35.55 2.7 35.7 M10.45 37.8 L10.3 38.15 M10.3 38.25 L10.45 38.1" fill="none" stroke="#000000" stroke-linecap="round" stroke-linejoin="round" stroke-opacity="0.3019608" stroke-width="0.4"/>
      <path d="M6.65 36.35 Q6.25 33.05 4.3 34.15 M2.7 35.7 Q2.35 37.85 3.05 38.8 L2.15 39.85 1.95 40.0 M6.65 36.6 L6.65 36.35 M3.05 38.8 Q4.4 39.2 6.55 36.7 L6.65 36.6 M7.9 36.7 Q9.3 37.1 10.45 37.8" fill="none" stroke="#000000" stroke-linecap="round" stroke-linejoin="round" stroke-opacity="0.101960786" stroke-width="0.4"/>
      <path d="M13.85 30.55 L14.1 30.8 Q16.5 33.8 16.9 36.4 L16.9 36.65 16.6 36.4 15.25 35.25 Q15.35 33.6 13.85 30.55" fill="#c3bc8d" fill-rule="evenodd" stroke="none"/>
      <path d="M8.55 29.15 Q7.7 29.35 7.2 30.1 6.3 30.95 6.2 32.1 6.0 33.9 7.8 36.5 5.5 33.5 5.8 31.05 L6.0 30.2 Q8.05 27.05 11.5 28.9 9.15 28.0 10.55 33.0 9.95 31.8 9.7 30.4 9.4 29.0 8.55 29.15" fill="#ffffd5" fill-rule="evenodd" stroke="none"/>
      <path d="M8.55 29.15 Q9.4 29.0 9.7 30.4 9.95 31.8 10.55 33.0 L10.65 33.3 Q10.0 33.5 9.6 33.9 L8.1 33.85 Q6.85 32.2 8.55 29.15" fill="#ada67e" fill-rule="evenodd" stroke="none"/>
      <path d="M16.9 36.65 Q14.4 37.8 12.6 38.2 L10.85 36.3 Q13.15 37.05 16.6 36.4 L16.9 36.65" fill="#6b6545" fill-rule="evenodd" stroke="none"/>
      <path d="M10.55 33.0 Q9.15 28.0 11.5 28.9 L11.6 28.95 Q12.9 29.6 13.75 30.45 L13.85 30.55 Q15.35 33.6 15.25 35.25 14.2 36.25 10.85 33.45 L10.65 33.3 10.55 33.0 M12.8 31.6 L13.1 32.45 13.45 33.4 Q13.7 35.1 14.35 35.1 14.85 35.1 14.85 34.5 L14.55 33.55 14.15 32.45 13.95 32.0 13.75 31.45 Q13.45 31.0 13.1 31.15 12.8 31.25 12.8 31.6" fill="#8c8360" fill-rule="evenodd" stroke="none"/>
      <path d="M6.2 32.1 Q6.3 30.95 7.2 30.1 7.7 29.35 8.55 29.15 6.85 32.2 8.1 33.85 7.1 33.45 6.2 32.1" fill="#baaf7c" fill-rule="evenodd" stroke="none"/>
      <path d="M12.8 31.6 Q12.8 31.25 13.1 31.15 13.45 31.0 13.75 31.45 L13.95 32.0 14.15 32.45 14.55 33.55 14.85 34.5 Q14.85 35.1 14.35 35.1 13.7 35.1 13.45 33.4 L13.1 32.45 12.8 31.6" fill="#757055" fill-rule="evenodd" stroke="none"/>
      <path d="M7.8 36.5 Q6.0 33.9 6.2 32.1 7.1 33.45 8.1 33.85 L9.6 33.9 Q8.5 35.0 7.8 36.5" fill="#756e4c" fill-rule="evenodd" stroke="none"/>
      <path d="M12.6 38.2 Q10.8 38.6 8.2 37.1 L8.15 37.0 8.0 37.0 7.7 36.8 7.8 36.5 Q8.5 35.0 9.6 33.9 10.0 33.5 10.65 33.3 L10.85 33.45 Q14.2 36.25 15.25 35.25 L16.6 36.4 Q13.15 37.05 10.85 36.3 L12.6 38.2 M8.15 37.0 L7.8 36.5 8.15 37.0" fill="#57533e" fill-rule="evenodd" stroke="none"/>
      <path d="M11.5 28.9 Q8.05 27.05 6.0 30.2 L5.8 31.05 Q5.5 33.5 7.8 36.5 L8.15 37.0 M11.5 28.9 L11.6 28.95 Q12.9 29.6 13.75 30.45 L13.85 30.55 14.1 30.8 Q16.5 33.8 16.9 36.4 L16.9 36.65 Q14.4 37.8 12.6 38.2 10.8 38.6 8.2 37.1 L8.25 37.2 8.4 37.45 7.9 37.0 8.0 37.0 8.15 37.0 M8.2 37.1 L8.0 37.0" fill="none" stroke="#000000" stroke-linecap="round" stroke-linejoin="round" stroke-opacity="0.3019608" stroke-width="0.4"/>
      <path d="M10.55 33.0 Q9.15 28.0 11.5 28.9 M10.65 33.3 L10.55 33.0 M15.25 35.25 Q14.2 36.25 10.85 33.45 L10.65 33.3 M9.6 33.9 Q8.5 35.0 7.8 36.5 M16.9 36.65 L16.6 36.4 15.25 35.25 Q15.35 33.6 13.85 30.55" fill="none" stroke="#000000" stroke-linecap="round" stroke-linejoin="round" stroke-opacity="0.101960786" stroke-width="0.4"/>
      <path d="M8.4 26.65 Q7.2 24.35 8.1 21.65 5.9 19.95 11.8 20.9 13.1 22.7 14.85 24.0 L19.05 29.3 Q10.75 20.15 10.3 21.45 9.15 24.65 10.0 29.35 L8.4 26.65" fill="#ffffd5" fill-rule="evenodd" stroke="none"/>
      <path d="M5.65 25.0 Q4.7 21.95 5.65 20.75 L9.95 31.7 Q10.85 34.25 9.7 33.6 L8.65 32.45 Q6.75 28.3 5.8 25.5 L5.65 25.0" fill="#6b6545" fill-rule="evenodd" stroke="none"/>
      <path d="M19.05 29.3 L23.0 34.3 23.15 34.7 Q23.5 36.05 22.1 37.15 L21.55 37.5 21.4 37.6 18.15 38.3 Q21.7 37.8 20.05 37.0 L18.75 37.15 Q14.35 35.1 11.95 31.6 L11.55 31.3 Q10.9 30.75 10.0 29.35 9.15 24.65 10.3 21.45 10.75 20.15 19.05 29.3 M23.15 34.7 Q22.7 36.65 20.05 37.0 22.7 36.65 23.15 34.7 M21.4 34.65 L21.5 34.25 Q21.5 33.5 21.15 33.15 20.65 31.25 18.4 29.95 17.25 29.3 16.4 29.4 15.65 29.55 15.55 30.3 L14.85 30.45 Q14.4 30.45 13.65 29.9 L12.65 28.95 Q11.9 28.05 11.45 28.3 11.1 28.55 11.1 29.0 11.1 29.6 12.2 30.5 L13.95 31.65 14.0 32.0 14.6 32.7 Q14.85 33.45 16.1 34.25 L16.5 34.5 17.3 35.6 Q18.35 36.7 19.35 36.7 20.25 36.7 20.4 36.35 L20.55 35.75 21.3 35.35 21.4 34.75 21.4 34.65" fill="#baaf7c" fill-rule="evenodd" stroke="none"/>
      <path d="M5.65 20.75 Q7.4 24.9 8.4 26.65 L10.0 29.35 Q10.9 30.75 11.55 31.3 L11.95 31.6 Q14.35 35.1 18.75 37.15 L20.05 37.0 Q21.7 37.8 18.15 38.3 L16.3 38.0 16.1 38.0 Q12.85 36.7 9.7 33.6 10.85 34.25 9.95 31.7 L5.65 20.75" fill="#57533e" fill-rule="evenodd" stroke="none"/>
      <path d="M21.4 34.65 L21.4 34.75 21.3 35.35 20.55 35.75 20.4 36.35 Q20.25 36.7 19.35 36.7 18.35 36.7 17.3 35.6 L16.5 34.5 Q17.95 35.25 19.25 35.25 L20.4 35.2 21.1 35.0 21.15 34.95 21.4 34.65 M14.6 32.7 L14.0 32.0 13.95 31.65 14.6 31.9 Q14.45 32.3 14.6 32.7" fill="#ada67e" fill-rule="evenodd" stroke="none"/>
      <path d="M5.65 25.0 Q4.35 21.2 5.1 20.25 L5.0 20.2 Q6.3 19.3 10.95 19.6 L11.0 19.7 11.8 20.9 Q5.9 19.95 8.1 21.65 7.2 24.35 8.4 26.65 7.4 24.9 5.65 20.75 4.7 21.95 5.65 25.0" fill="#ebe2cf" fill-rule="evenodd" stroke="none"/>
      <path d="M13.95 31.65 L12.2 30.5 Q11.1 29.6 11.1 29.0 11.1 28.55 11.45 28.3 11.9 28.05 12.65 28.95 L13.65 29.9 Q14.4 30.45 14.85 30.45 L15.55 30.3 Q15.65 29.55 16.4 29.4 17.25 29.3 18.4 29.95 20.65 31.25 21.15 33.15 21.5 33.5 21.5 34.25 L21.4 34.65 21.15 34.95 21.1 35.0 20.4 35.2 19.25 35.25 Q17.95 35.25 16.5 34.5 L16.1 34.25 Q14.85 33.45 14.6 32.7 14.45 32.3 14.6 31.9 L13.95 31.65" fill="#736947" fill-rule="evenodd" stroke="none"/>
      <path d="M11.8 20.9 L11.0 19.7 10.95 19.6 Q6.3 19.3 5.0 20.2 L5.1 20.25 Q4.35 21.2 5.65 25.0 M11.8 20.9 Q13.1 22.7 14.85 24.0 L19.05 29.3 23.0 34.3 23.15 34.7 Q23.5 36.05 22.1 37.15 L21.55 37.5 21.4 37.6 18.15 38.3 16.3 38.0 16.1 38.0 Q12.85 36.7 9.7 33.6 L8.65 32.45 Q6.75 28.3 5.8 25.5 M18.75 37.15 L20.05 37.0 Q22.7 36.65 23.15 34.7" fill="none" stroke="#000000" stroke-linecap="round" stroke-linejoin="round" stroke-opacity="0.3019608" stroke-width="0.4"/>
      <path d="M5.65 20.75 Q7.4 24.9 8.4 26.65 L10.0 29.35 Q10.9 30.75 11.55 31.3 L11.95 31.6 Q14.35 35.1 18.75 37.15" fill="none" stroke="#ffffff" stroke-linecap="round" stroke-linejoin="round" stroke-opacity="0.3019608" stroke-width="0.75"/>
      <path d="M20.2 24.55 L20.25 24.7 Q19.85 27.1 17.8 28.55 L17.6 28.65 17.5 28.45 17.15 27.3 Q18.85 26.6 20.2 24.55" fill="#c3bc8d" fill-rule="evenodd" stroke="none"/>
      <path d="M16.0 21.7 L13.7 21.6 Q11.9 21.65 10.75 22.15 8.75 22.95 8.2 24.95 8.6 22.55 11.25 21.5 L12.3 21.2 Q17.2 20.55 19.05 22.55 L19.3 22.75 19.0 22.6 Q17.4 21.65 14.4 24.35 L15.9 22.75 Q17.0 21.95 16.0 21.7" fill="#ffffd5" fill-rule="evenodd" stroke="none"/>
      <path d="M16.0 21.7 Q17.0 21.95 15.9 22.75 L14.4 24.35 14.2 24.55 12.5 24.4 Q11.55 24.2 11.05 23.75 11.3 22.5 16.0 21.7" fill="#ada67e" fill-rule="evenodd" stroke="none"/>
      <path d="M14.4 24.35 Q17.4 21.65 19.0 22.6 16.8 25.1 14.9 26.05 14.5 25.5 14.25 24.7 L14.2 24.55 14.4 24.35" fill="#8c8360" fill-rule="evenodd" stroke="none"/>
      <path d="M10.75 22.15 Q11.9 21.65 13.7 21.6 L16.0 21.7 Q11.3 22.5 11.05 23.75 10.4 23.2 10.75 22.15" fill="#baaf7c" fill-rule="evenodd" stroke="none"/>
      <path d="M19.25 24.9 L18.95 25.25 18.65 25.55 18.1 26.25 17.45 26.8 16.35 26.95 Q15.7 26.7 17.05 25.7 L17.6 25.1 18.1 24.6 18.85 24.5 Q19.3 24.55 19.25 24.9" fill="#757055" fill-rule="evenodd" stroke="none"/>
      <path d="M8.2 24.95 Q8.75 22.95 10.75 22.15 10.4 23.2 11.05 23.75 11.55 24.2 12.5 24.4 10.15 24.5 9.15 26.85 7.85 25.9 8.05 25.45 L8.1 25.25 8.2 24.95" fill="#756e4c" fill-rule="evenodd" stroke="none"/>
      <path d="M17.6 28.65 Q16.45 29.4 12.9 29.4 L9.9 27.45 Q8.5 26.15 11.55 26.0 12.4 25.95 17.5 28.45 L17.6 28.65" fill="#4f4a33" fill-rule="evenodd" stroke="none"/>
      <path d="M19.0 22.6 L19.3 22.75 19.4 22.85 Q20.1 23.65 20.2 24.4 L20.2 24.55 Q18.85 26.6 17.15 27.3 15.7 27.4 14.9 26.05 16.8 25.1 19.0 22.6 M19.25 24.9 Q19.3 24.55 18.85 24.5 L18.1 24.6 17.6 25.1 17.05 25.7 Q15.7 26.7 16.35 26.95 L17.45 26.8 18.1 26.25 18.65 25.55 18.95 25.25 19.25 24.9" fill="#70684d" fill-rule="evenodd" stroke="none"/>
      <path d="M12.5 24.4 L14.2 24.55 14.25 24.7 Q14.5 25.5 14.9 26.05 15.7 27.4 17.15 27.3 L17.5 28.45 Q12.4 25.95 11.55 26.0 8.5 26.15 9.9 27.45 L9.15 26.85 Q10.15 24.5 12.5 24.4" fill="#615a42" fill-rule="evenodd" stroke="none"/>
      <path d="M19.3 22.75 L19.05 22.55 Q17.2 20.55 12.3 21.2 L11.25 21.5 Q8.6 22.55 8.2 24.95 M9.15 26.85 Q7.85 25.9 8.05 25.45 L8.1 25.25 8.2 24.95 M19.3 22.75 L19.4 22.85 Q20.1 23.65 20.2 24.4 L20.2 24.55 20.25 24.7 Q19.85 27.1 17.8 28.55 L17.6 28.65 Q16.45 29.4 12.9 29.4 L9.9 27.45 9.15 26.85" fill="none" stroke="#000000" stroke-linecap="round" stroke-linejoin="round" stroke-opacity="0.3019608" stroke-width="0.4"/>
      <path d="M14.4 24.35 Q17.4 21.65 19.0 22.6 L19.3 22.75 M14.2 24.55 L14.4 24.35 M9.15 26.85 Q10.15 24.5 12.5 24.4 M17.15 27.3 L17.5 28.45 17.6 28.65 M14.2 24.55 L14.25 24.7 Q14.5 25.5 14.9 26.05 15.7 27.4 17.15 27.3 18.85 26.6 20.2 24.55" fill="none" stroke="#000000" stroke-linecap="round" stroke-linejoin="round" stroke-opacity="0.101960786" stroke-width="0.4"/>
      <path d="M15.55 31.1 L15.5 31.1 15.45 31.05 15.6 30.95 15.55 31.1 M14.2 23.3 L14.25 23.4 Q14.2 24.95 15.15 26.2 L15.45 31.05 Q14.0 27.15 14.2 23.3" fill="#c3bc8d" fill-rule="evenodd" stroke="none"/>
      <path d="M39.9 3.2 Q41.5 3.2 40.15 5.9 39.3 8.55 38.2 10.5 L37.9 10.95 37.8 11.1 35.25 13.5 Q39.6 6.5 39.3 5.35 L39.25 5.25 Q38.8 4.25 39.0 4.7 38.4 4.0 37.15 3.9 34.4 3.75 28.4 7.1 32.2 4.8 35.45 3.6 L39.65 3.15 39.9 3.2 M38.3 10.65 L40.4 6.7 40.5 8.75 Q39.9 8.55 38.3 10.65 M40.55 11.6 L40.6 12.35 39.85 14.8 40.55 11.6" fill="#ffffd5" fill-rule="evenodd" stroke="none"/>
      <path d="M31.9 15.8 L32.75 13.3 Q33.45 10.9 33.25 10.65 L32.95 9.6 Q34.55 8.05 35.0 6.35 35.5 6.0 35.3 5.65 L35.1 5.5 35.05 5.35 Q37.5 4.25 39.3 5.35 39.6 6.5 35.25 13.5 L31.9 15.8 M28.85 11.95 L28.7 12.4 Q27.65 15.3 28.6 16.5 L29.55 16.65 30.3 16.25 Q30.8 15.9 31.2 16.05 L31.45 16.1 Q27.8 18.45 27.95 17.55 26.55 15.25 27.75 12.15 L28.2 11.0 28.25 11.0 29.05 10.1 Q28.25 11.3 28.7 11.85 L28.85 11.95" fill="#ada67e" fill-rule="evenodd" stroke="none"/>
      <path d="M23.1 20.4 Q18.85 24.9 15.2 26.25 L15.15 26.2 Q14.2 24.95 14.25 23.4 L14.2 23.3 Q15.15 20.6 16.95 18.0 L20.85 15.25 23.3 13.0 Q20.75 17.9 18.05 20.7 L19.15 19.65 18.7 20.15 Q17.2 21.9 16.9 22.85 L16.3 23.4 16.85 23.25 17.0 23.5 17.2 23.95 17.2 24.15 Q16.95 24.55 17.15 24.75 L18.0 24.6 18.75 24.0 20.85 22.1 21.15 21.9 21.3 21.75 21.6 21.5 22.3 20.9 23.1 20.4 M21.85 17.1 L22.0 17.0 21.9 17.05 21.85 17.1" fill="#b5ae84" fill-rule="evenodd" stroke="none"/>
      <path d="M23.9 19.9 L23.1 20.4 22.3 20.9 Q23.6 19.55 24.45 17.5 25.45 15.2 23.65 16.4 L23.55 16.4 Q23.1 16.25 21.9 17.05 L22.0 17.0 21.85 17.1 21.4 17.5 Q20.5 18.2 19.15 19.65 L18.05 20.7 Q20.75 17.9 23.3 13.0 L27.95 7.55 28.0 7.4 28.35 7.95 Q27.9 12.05 24.05 19.7 L23.9 19.9 M27.5 10.0 Q27.15 9.55 26.45 10.15 25.95 10.55 24.85 12.3 23.6 14.45 24.1 15.15 L24.65 15.2 25.15 14.9 26.7 12.9 Q28.05 10.7 27.5 10.0 M16.9 22.85 L16.85 23.25 16.3 23.4 16.9 22.85" fill="#a69e72" fill-rule="evenodd" stroke="none"/>
      <path d="M39.9 3.2 L41.1 3.3 Q41.85 3.45 41.2 6.95 L41.25 7.15 Q41.65 7.9 41.75 9.4 L41.7 9.45 40.6 12.35 40.55 11.6 Q41.05 8.95 40.5 8.75 L40.4 6.7 38.3 10.65 38.2 10.5 Q39.3 8.55 40.15 5.9 41.5 3.2 39.9 3.2" fill="#ffffe6" fill-rule="evenodd" stroke="none"/>
      <path d="M37.15 3.9 Q38.4 4.0 39.0 4.7 38.8 4.25 39.25 5.25 L39.3 5.35 Q37.5 4.25 35.05 5.35 L34.8 5.1 Q34.25 4.95 33.0 5.95 L30.35 8.45 29.05 10.1 28.25 11.0 29.5 8.25 Q32.7 5.0 37.15 3.9" fill="#c4ba88" fill-rule="evenodd" stroke="none"/>
      <path d="M24.1 19.65 L23.9 19.9 24.05 19.7 Q27.9 12.05 28.35 7.95 L28.0 7.4 28.1 7.35 28.4 7.1 Q34.4 3.75 37.15 3.9 32.7 5.0 29.5 8.25 L28.25 11.0 28.2 11.0 27.75 12.15 25.3 17.3 24.1 19.65" fill="#ebe2cf" fill-rule="evenodd" stroke="none"/>
      <path d="M27.95 17.55 L25.8 20.35 Q22.3 23.55 24.35 19.6 L24.1 19.65 25.3 17.3 27.75 12.15 Q26.55 15.25 27.95 17.55" fill="#9c946b" fill-rule="evenodd" stroke="none"/>
      <path d="M15.2 26.25 Q15.7 27.15 16.55 27.1 17.45 27.0 18.15 26.5 21.3 24.05 22.5 23.5 17.6 28.2 15.6 30.95 L15.45 31.05 15.15 26.2 15.2 26.25" fill="#736e53" fill-rule="evenodd" stroke="none"/>
      <path d="M21.85 17.1 L21.9 17.05 Q23.1 16.25 23.55 16.4 L23.65 16.4 23.3 16.7 21.85 18.3 21.75 18.35 21.25 18.9 21.25 18.95 Q19.6 21.0 19.9 21.8 L19.2 22.5 17.9 23.45 17.45 23.9 17.2 24.15 17.2 23.95 17.0 23.5 16.85 23.25 16.9 22.85 Q17.2 21.9 18.7 20.15 L19.15 19.65 Q20.5 18.2 21.4 17.5 L21.85 17.1" fill="#a89a79" fill-rule="evenodd" stroke="none"/>
      <path d="M35.25 13.5 L30.5 17.25 22.5 23.5 Q21.3 24.05 18.15 26.5 17.45 27.0 16.55 27.1 15.7 27.15 15.2 26.25 18.85 24.9 23.1 20.4 L23.9 19.9 24.1 19.65 24.35 19.6 Q22.3 23.55 25.8 20.35 L27.95 17.55 Q27.8 18.45 31.45 16.1 L31.8 15.9 31.9 15.8 35.25 13.5" fill="#8c8360" fill-rule="evenodd" stroke="none"/>
      <path d="M21.25 18.9 L21.75 18.35 21.85 18.3 21.25 18.9" fill="#a39a70" fill-rule="evenodd" stroke="none"/>
      <path d="M23.65 16.4 Q25.45 15.2 24.45 17.5 23.6 19.55 22.3 20.9 L21.6 21.5 21.3 21.75 21.15 21.9 20.85 22.1 18.75 24.0 18.0 24.6 17.15 24.75 Q16.95 24.55 17.2 24.15 L17.45 23.9 17.9 23.45 19.2 22.5 19.9 21.8 Q19.6 21.0 21.25 18.95 L21.25 18.9 21.85 18.3 23.3 16.7 23.65 16.4" fill="#968e67" fill-rule="evenodd" stroke="none"/>
      <path d="M32.95 9.6 L32.7 8.5 Q32.45 7.5 31.3 8.4 29.85 9.55 28.85 11.95 L28.7 11.85 Q28.25 11.3 29.05 10.1 L30.35 8.45 33.0 5.95 Q34.25 4.95 34.8 5.1 L35.05 5.35 35.1 5.5 35.3 5.65 Q35.5 6.0 35.0 6.35 34.55 8.05 32.95 9.6 M27.5 10.0 Q28.05 10.7 26.7 12.9 L25.15 14.9 24.65 15.2 24.1 15.15 Q23.6 14.45 24.85 12.3 25.95 10.55 26.45 10.15 27.15 9.55 27.5 10.0" fill="#baaf7c" fill-rule="evenodd" stroke="none"/>
      <path d="M32.95 9.6 L33.25 10.65 Q33.45 10.9 32.75 13.3 L31.9 15.8 31.8 15.9 31.45 16.1 31.2 16.05 Q30.8 15.9 30.3 16.25 L29.55 16.65 28.6 16.5 Q27.65 15.3 28.7 12.4 L28.85 11.95 Q29.85 9.55 31.3 8.4 32.45 7.5 32.7 8.5 L32.95 9.6" fill="#99976a" fill-rule="evenodd" stroke="none"/>
      <path d="M38.2 10.5 L38.3 10.65 Q39.9 8.55 40.5 8.75 41.05 8.95 40.55 11.6 L39.85 14.8 39.8 14.9 39.8 15.0 36.85 17.95 34.9 19.05 37.65 16.9 36.55 16.85 36.3 16.95 34.65 17.4 33.45 16.95 30.5 17.25 35.25 13.5 37.8 11.1 37.9 10.95 38.2 10.5" fill="#757055" fill-rule="evenodd" stroke="none"/>
      <path d="M34.9 19.05 L34.8 19.25 32.15 22.9 Q29.85 25.65 19.85 30.65 18.3 31.55 15.55 31.1 L15.6 30.95 Q28.2 19.45 36.3 16.95 L36.55 16.85 37.65 16.9 34.9 19.05 M29.5 20.65 Q28.55 20.85 25.2 23.25 L21.8 25.85 19.75 27.75 Q17.85 29.6 18.05 29.85 18.55 30.5 21.25 28.8 L23.95 26.9 28.15 23.3 Q31.65 20.1 29.5 20.65" fill="#6b6545" fill-rule="evenodd" stroke="none"/>
      <path d="M30.5 17.25 L33.45 16.95 34.65 17.4 36.3 16.95 Q28.2 19.45 15.6 30.95 17.6 28.2 22.5 23.5 L30.5 17.25" fill="#70684d" fill-rule="evenodd" stroke="none"/>
      <path d="M29.5 20.65 Q31.65 20.1 28.15 23.3 L23.95 26.9 21.25 28.8 Q18.55 30.5 18.05 29.85 17.85 29.6 19.75 27.75 L21.8 25.85 25.2 23.25 Q28.55 20.85 29.5 20.65" fill="#8a7e63" fill-rule="evenodd" stroke="none"/>
      <path d="M40.6 12.35 L41.7 9.45 41.75 9.4 Q41.65 7.9 41.25 7.15 L41.2 6.95 Q41.85 3.45 41.1 3.3 L39.9 3.2 39.65 3.15 35.45 3.6 Q32.2 4.8 28.4 7.1 M38.2 10.5 L38.3 10.65 M40.5 8.75 Q41.05 8.95 40.55 11.6 M40.6 12.35 L39.85 14.8 39.8 14.9 39.8 15.0 36.85 17.95 34.9 19.05 34.8 19.25 32.15 22.9 Q29.85 25.65 19.85 30.65 18.3 31.55 15.55 31.1 L15.5 31.1 15.45 31.05 Q14.0 27.15 14.2 23.3 L14.25 23.4 Q14.2 24.95 15.15 26.2 L15.2 26.25 M40.5 8.75 Q39.9 8.55 38.3 10.65 M38.2 10.5 L37.9 10.95 37.8 11.1 35.25 13.5 M39.85 14.8 L40.55 11.6 M23.3 13.0 L27.95 7.55 28.0 7.4 28.1 7.35 28.4 7.1 M23.3 13.0 L20.85 15.25 16.95 18.0 Q15.15 20.6 14.2 23.3 M15.55 31.1 L15.6 30.95 M15.45 31.05 L15.15 26.2" fill="none" stroke="#000000" stroke-linecap="round" stroke-linejoin="round" stroke-opacity="0.3019608" stroke-width="0.4"/>
      <path d="M15.45 31.05 L15.2 31.25 M15.6 30.95 L15.45 31.05" fill="none" stroke="#00ff00" stroke-linecap="round" stroke-linejoin="round" stroke-width="0.05"/>
      <path d="M15.2 26.25 Q15.7 27.15 16.55 27.1 17.45 27.0 18.15 26.5 21.3 24.05 22.5 23.5 L30.5 17.25 M15.6 30.95 Q17.6 28.2 22.5 23.5" fill="none" stroke="#000000" stroke-linecap="round" stroke-linejoin="round" stroke-opacity="0.101960786" stroke-width="0.4"/>
      <path d="M22.2 23.5 L22.0 23.95 Q17.7 27.9 15.55 31.1 13.95 27.2 14.25 23.6 14.8 21.0 16.8 18.05 22.5 14.75 28.1 7.55 28.75 10.35 22.2 23.5" fill="url(#gradient0)" fill-rule="evenodd" stroke="none"/>
    </g>
    <linearGradient gradientTransform="matrix(0.01, -0.0142, 0.0054, 4.0E-4, 20.7, 19.25)" gradientUnits="userSpaceOnUse" id="gradient0" spreadMethod="pad" x1="-819.2" x2="819.2">
      <stop offset="0.0" stop-color="#000000" stop-opacity="0.0"/>
      <stop offset="1.0" stop-color="#423c2b" stop-opacity="0.47058824"/>
    </linearGradient>
  </defs>
</svg>
