<?xml version="1.0" encoding="UTF-8" standalone="no"?>
<svg xmlns:xlink="http://www.w3.org/1999/xlink" height="440.0px" width="440.0px" xmlns="http://www.w3.org/2000/svg">
  <g transform="matrix(10.0, 0.0, 0.0, 10.0, 0.0, 0.0)">
    <use height="44.0" transform="matrix(1.0, 0.0, 0.0, 1.0, 0.0, 0.0)" width="44.0" xlink:href="#shape0"/>
  </g>
  <defs>
    <g id="shape0" transform="matrix(1.0, 0.0, 0.0, 1.0, 0.0, 0.0)">
      <path d="M44.0 44.0 L0.0 44.0 0.0 0.0 44.0 0.0 44.0 44.0" fill="#33cc33" fill-opacity="0.0" fill-rule="evenodd" stroke="none"/>
      <path d="M4.85 34.25 L4.3 33.45 4.5 32.8 5.35 33.25 7.35 36.65 7.5 36.95 6.65 37.05 6.6 36.95 4.85 34.25 M14.85 29.05 L14.45 28.5 14.45 27.05 14.5 27.05 16.6 29.9 16.2 30.7 16.1 30.85 15.15 29.5 15.3 29.35 15.15 29.5 14.85 29.05" fill="#eddc65" fill-rule="evenodd" stroke="none"/>
      <path d="M14.5 27.05 L15.55 27.25 19.3 33.9 16.2 30.7 16.6 29.9 14.5 27.05 M10.85 40.25 L10.45 41.2 7.35 36.65 5.35 33.25 5.75 33.45 Q7.7 37.15 10.85 40.25" fill="#e3ae33" fill-rule="evenodd" stroke="none"/>
      <path d="M5.7 40.2 Q4.7 39.85 4.05 38.6 3.3 37.2 3.9 35.75 L5.85 37.55 Q4.95 38.55 5.7 40.2 M15.15 29.5 L16.1 30.85 16.25 31.05 Q11.9 32.05 8.55 36.75 L7.4 34.85 Q8.0 34.95 12.65 32.2 L15.15 29.5" fill="#4e4378" fill-rule="evenodd" stroke="none"/>
      <path d="M17.15 32.4 Q12.85 32.8 10.2 39.25 L8.55 36.75 Q11.9 32.05 16.25 31.05 L17.15 32.4 M8.35 39.65 L7.0 40.2 5.7 40.2 Q4.95 38.55 5.85 37.55 L6.3 37.1 6.6 36.95 6.65 37.05 8.35 39.65" fill="#27223c" fill-rule="evenodd" stroke="none"/>
      <path d="M17.1 5.0 Q19.6 4.0 22.45 4.05 L24.7 4.2 24.55 4.8 Q23.4 4.6 23.4 5.3 L23.5 5.5 24.3 5.75 24.15 6.2 Q20.85 4.8 16.35 5.4 L17.1 5.0 M37.85 10.3 L37.35 8.05 38.1 9.0 38.2 9.2 38.65 10.0 40.1 12.9 40.7 14.85 Q41.85 19.35 40.1 23.4 L39.9 23.75 39.9 20.8 40.2 19.45 39.9 18.65 39.6 17.9 39.75 16.7 39.8 16.3 40.2 17.35 39.8 16.3 38.8 13.75 38.5 12.9 37.9 10.3 37.85 10.3 M26.7 7.75 L27.95 8.6 Q30.95 10.75 31.45 12.6 L30.2 13.0 30.15 12.9 Q29.4 10.1 26.95 7.95 L26.7 7.75 M21.0 32.55 L17.85 27.85 19.8 27.55 19.9 27.5 Q23.2 26.75 25.65 24.9 L25.75 25.0 Q25.2 25.2 25.2 25.9 L25.25 26.1 Q25.45 26.45 26.0 26.45 L26.8 26.25 27.1 26.45 27.9 26.65 28.35 26.6 29.3 27.25 Q26.4 29.65 21.0 32.55 M24.1 27.05 L24.1 26.95 24.0 26.85 23.4 26.85 Q23.05 26.85 22.0 27.35 20.95 27.8 20.95 27.95 L20.95 28.15 21.45 28.15 21.9 28.1 Q20.95 28.95 20.95 30.0 L21.0 30.3 Q21.15 30.6 21.8 30.6 23.45 30.6 25.15 29.3 L25.35 29.2 26.15 28.8 Q27.1 28.25 27.1 27.7 27.1 26.65 25.9 26.95 L25.3 26.95 24.1 27.05" fill="#a8b9a8" fill-rule="evenodd" stroke="none"/>
      <path d="M22.45 4.05 L24.85 3.75 26.95 3.65 26.9 3.75 28.75 4.5 30.4 4.8 30.85 4.5 Q31.25 4.5 32.65 5.35 L34.3 6.15 34.55 6.35 34.65 6.45 34.65 8.65 35.3 9.4 35.1 9.7 35.25 9.95 35.8 10.3 36.3 10.55 37.0 10.65 37.4 10.65 37.5 10.35 37.5 10.3 38.5 12.9 37.5 10.3 37.45 10.25 37.45 10.2 37.85 10.3 37.9 10.3 38.5 12.9 38.55 12.95 38.65 13.55 38.8 13.75 39.8 16.3 39.75 16.7 39.6 17.9 39.9 18.65 40.2 19.45 39.9 20.8 Q39.6 21.65 39.6 22.3 L39.5 23.25 37.1 26.55 36.8 26.45 36.8 26.15 Q36.8 25.75 37.3 25.0 L38.1 23.9 37.85 23.75 37.8 23.4 39.0 17.4 39.2 16.25 38.85 15.2 38.35 13.95 37.05 20.7 32.55 25.4 34.55 20.7 34.1 15.35 Q34.05 13.5 33.55 11.9 32.75 9.25 30.8 7.25 29.85 6.25 28.55 5.45 L28.0 5.1 27.5 4.8 24.7 4.2 22.45 4.05 M36.7 13.2 L36.85 13.0 Q36.85 12.55 35.55 11.7 34.25 10.8 34.25 11.85 34.25 12.25 34.65 12.65 35.25 13.25 36.25 13.25 L36.7 13.2 M38.55 22.9 L38.7 22.65 38.6 22.65 38.55 22.85 38.55 22.9" fill="#667865" fill-rule="evenodd" stroke="none"/>
      <path d="M25.65 24.9 L27.3 23.4 27.65 23.05 29.15 20.9 29.4 21.1 Q28.45 21.7 28.4 23.55 28.0 23.65 28.0 24.05 L28.0 24.3 28.3 24.5 28.5 24.5 Q28.75 25.25 29.3 25.25 30.1 25.25 30.65 24.1 L31.1 22.65 32.3 23.8 Q31.5 25.4 29.3 27.25 L28.35 26.6 28.55 26.5 28.55 26.25 28.85 26.35 28.8 26.6 29.2 26.85 Q29.6 26.85 29.6 26.45 29.6 25.75 27.4 25.1 L25.75 25.0 25.65 24.9 M29.75 21.45 L30.55 22.2 30.55 22.4 30.5 22.65 30.15 22.2 Q29.95 21.9 29.15 21.9 L29.15 21.8 29.75 21.45" fill="#828f82" fill-rule="evenodd" stroke="none"/>
      <path d="M27.95 8.6 L29.15 8.05 28.4 7.3 Q28.4 6.55 29.6 7.3 L30.05 7.65 30.8 7.25 Q32.75 9.25 33.55 11.9 L31.45 12.6 Q30.95 10.75 27.95 8.6 M24.55 4.8 L24.65 4.8 Q25.9 5.0 26.1 5.6 L25.85 5.85 24.65 5.75 24.3 5.75 23.5 5.5 23.4 5.3 Q23.4 4.6 24.55 4.8 M33.45 15.0 L33.15 15.05 32.75 14.75 32.75 14.55 Q32.75 14.0 33.15 14.2 33.55 14.35 33.55 14.65 L33.45 15.0 M36.7 13.2 L36.25 13.25 Q35.25 13.25 34.65 12.65 34.25 12.25 34.25 11.85 34.25 10.8 35.55 11.7 36.85 12.55 36.85 13.0 L36.7 13.2 M29.15 20.9 L30.05 18.95 33.25 20.85 32.55 23.1 32.3 23.8 31.1 22.65 31.1 22.5 Q31.1 20.5 29.75 20.9 L29.4 21.1 29.15 20.9 M32.65 19.45 L32.65 19.7 32.45 19.8 32.15 19.5 Q32.15 19.15 32.65 19.25 L32.65 19.45 M29.75 21.45 Q30.05 21.35 30.3 21.6 L30.55 22.2 29.75 21.45 M21.9 28.1 L21.45 28.15 20.95 28.15 20.95 27.95 Q20.95 27.8 22.0 27.35 23.05 26.85 23.4 26.85 L24.0 26.85 24.1 26.95 24.1 27.05 24.1 27.1 23.0 27.7 21.9 28.1" fill="#5d6b5d" fill-rule="evenodd" stroke="none"/>
      <path d="M31.95 16.65 L32.55 17.5 Q33.1 17.5 33.35 16.9 L34.05 17.0 33.85 18.6 33.25 20.85 30.05 18.95 30.5 16.45 30.8 16.5 30.9 16.7 31.2 16.9 Q31.45 16.9 31.45 16.75 L31.45 16.6 31.95 16.65 M32.65 19.45 L32.65 19.25 Q32.15 19.15 32.15 19.5 L32.45 19.8 32.65 19.7 32.65 19.45" fill="#819280" fill-rule="evenodd" stroke="none"/>
      <path d="M31.45 12.6 L33.55 11.9 Q34.05 13.5 34.1 15.35 L34.05 17.0 33.35 16.9 33.55 15.55 33.7 14.4 33.25 12.9 Q32.75 11.7 32.05 12.85 31.45 13.85 31.45 14.5 L31.75 16.05 31.95 16.65 31.45 16.6 31.45 16.35 31.35 15.85 Q31.15 15.9 30.9 16.15 L30.75 16.45 30.8 16.5 30.5 16.45 30.5 15.5 30.2 13.0 31.45 12.6 M32.5 13.8 L32.55 13.55 32.75 13.85 32.5 13.8" fill="#93a18b" fill-rule="evenodd" stroke="none"/>
      <path d="M26.95 3.65 L27.3 3.3 Q27.75 2.95 28.3 2.95 30.15 2.95 32.65 4.35 L34.9 5.8 34.85 6.05 34.45 6.15 34.3 6.15 32.65 5.35 Q31.25 4.5 30.85 4.5 L30.4 4.8 28.75 4.5 26.9 3.75 26.95 3.65 M35.3 9.4 L36.3 9.5 37.45 10.2 37.45 10.25 37.5 10.3 37.5 10.35 37.4 10.65 37.0 10.65 36.3 10.55 35.8 10.3 35.25 9.95 35.1 9.7 35.3 9.4 M30.8 7.25 L30.05 7.65 29.6 7.3 Q28.4 6.55 28.4 7.3 L29.15 8.05 27.95 8.6 26.7 7.75 24.95 6.6 28.55 5.45 Q29.85 6.25 30.8 7.25" fill="#a4b09c" fill-rule="evenodd" stroke="none"/>
      <path d="M28.55 5.45 L24.95 6.6 24.15 6.2 24.3 5.75 24.65 5.75 25.85 5.85 26.1 5.6 Q25.9 5.0 24.65 4.8 L24.55 4.8 24.7 4.2 27.5 4.8 28.0 5.1 28.55 5.45" fill="#6b836b" fill-rule="evenodd" stroke="none"/>
      <path d="M39.0 17.4 L38.85 15.2 39.2 16.25 39.0 17.4 M38.55 22.9 L38.55 22.85 38.6 22.65 38.7 22.65 38.55 22.9" fill="#8f9e8f" fill-rule="evenodd" stroke="none"/>
      <path d="M28.35 26.6 L27.9 26.65 27.1 26.45 26.8 26.25 26.0 26.45 Q25.45 26.45 25.25 26.1 L25.2 25.9 Q25.2 25.2 25.75 25.0 L27.4 25.1 Q29.6 25.75 29.6 26.45 29.6 26.85 29.2 26.85 L28.8 26.6 28.85 26.35 28.55 26.25 28.55 26.5 28.35 26.6 M24.1 27.05 L25.3 26.95 25.9 26.95 25.15 27.2 Q23.1 28.05 23.1 28.8 L23.2 29.1 24.0 29.4 25.35 29.2 25.15 29.3 Q23.45 30.6 21.8 30.6 21.15 30.6 21.0 30.3 L20.95 30.0 Q20.95 28.95 21.9 28.1 L23.0 27.7 24.1 27.1 24.1 27.05" fill="#7e8f7e" fill-rule="evenodd" stroke="none"/>
      <path d="M25.9 26.95 Q27.1 26.65 27.1 27.7 27.1 28.25 26.15 28.8 L25.35 29.2 24.0 29.4 23.2 29.1 23.1 28.8 Q23.1 28.05 25.15 27.2 L25.9 26.95" fill="#8d9c8d" fill-rule="evenodd" stroke="none"/>
      <path d="M30.55 22.2 L30.3 21.6 Q30.05 21.35 29.75 21.45 L29.15 21.8 29.15 21.9 Q29.95 21.9 30.15 22.2 L30.5 22.65 30.55 22.4 30.55 22.2 M29.4 21.1 L29.75 20.9 Q31.1 20.5 31.1 22.5 L31.1 22.65 30.65 24.1 Q30.1 25.25 29.3 25.25 28.75 25.25 28.5 24.5 L28.3 24.5 28.0 24.3 28.0 24.05 Q28.0 23.65 28.4 23.55 28.45 21.7 29.4 21.1" fill="#959e94" fill-rule="evenodd" stroke="none"/>
      <path d="M31.95 16.65 L31.75 16.05 31.45 14.5 Q31.45 13.85 32.05 12.85 32.75 11.7 33.25 12.9 L33.7 14.4 33.55 15.55 33.35 16.9 Q33.1 17.5 32.55 17.5 L31.95 16.65 M30.8 16.5 L30.75 16.45 30.9 16.15 Q31.15 15.9 31.35 15.85 L31.45 16.35 31.45 16.6 31.45 16.75 Q31.45 16.9 31.2 16.9 L30.9 16.7 30.8 16.5 M33.45 15.0 L33.55 14.65 Q33.55 14.35 33.15 14.2 32.75 14.0 32.75 14.55 L32.75 14.75 33.15 15.05 33.45 15.0 M32.5 13.8 L32.75 13.85 32.55 13.55 32.5 13.8" fill="#86947c" fill-rule="evenodd" stroke="none"/>
      <path d="M38.8 13.75 L38.65 13.55 38.55 12.95 38.5 12.9 38.8 13.75 M37.85 23.75 L38.1 23.9 37.3 25.0 Q36.8 25.75 36.8 26.15 L36.8 26.45 37.1 26.55 39.5 23.25 39.6 22.3 Q39.6 21.65 39.9 20.8 L39.9 23.75 Q38.7 26.3 36.4 28.65 L33.7 28.05 34.9 30.0 31.95 32.25 31.45 32.6 30.95 32.8 Q27.8 34.1 27.1 36.9 L25.45 35.7 Q28.2 31.8 32.95 29.5 L32.9 27.0 33.95 27.9 Q36.6 26.4 37.85 23.75" fill="#798579" fill-rule="evenodd" stroke="none"/>
      <path d="M17.1 5.0 Q19.1 3.95 20.95 3.25 24.65 2.0 28.0 2.35 30.95 2.65 33.5 4.4 34.9 5.25 36.1 6.55 L34.9 8.7 37.35 8.05 37.85 10.3 37.45 10.2 36.3 9.5 35.3 9.4 34.65 8.65 34.65 6.45 34.55 6.35 34.3 6.15 34.45 6.15 34.85 6.05 34.9 5.8 32.65 4.35 Q30.15 2.95 28.3 2.95 27.75 2.95 27.3 3.3 L26.95 3.65 24.85 3.75 22.45 4.05 Q19.6 4.0 17.1 5.0" fill="#ffffff" fill-rule="evenodd" stroke="none"/>
      <path d="M34.05 17.0 L34.1 15.35 34.55 20.7 32.55 25.4 37.05 20.7 38.35 13.95 38.85 15.2 39.0 17.4 37.8 23.4 37.85 23.75 Q36.6 26.4 33.95 27.9 L32.9 27.0 32.95 29.5 Q28.2 31.8 25.45 35.7 L21.0 32.55 Q26.4 29.65 29.3 27.25 31.5 25.4 32.3 23.8 L32.55 23.1 33.25 20.85 33.85 18.6 34.05 17.0" fill="#3c453c" fill-rule="evenodd" stroke="none"/>
      <path d="M15.55 27.25 L16.15 27.35 19.65 32.55 19.3 33.9 15.55 27.25 M10.45 41.2 L9.15 40.95 8.35 39.65 6.65 37.05 7.5 36.95 7.35 36.65 10.45 41.2" fill="#a35e0b" fill-rule="evenodd" stroke="none"/>
      <path d="M4.5 32.8 L4.65 32.25 4.8 32.25 5.95 32.6 6.3 33.1 7.15 34.5 7.4 34.85 8.55 36.75 10.2 39.25 10.85 40.25 Q7.7 37.15 5.75 33.45 L5.35 33.25 4.5 32.8 M19.3 33.9 L18.1 33.7 17.15 32.4 16.25 31.05 16.1 30.85 16.2 30.7 19.3 33.9 M6.15 33.65 L5.75 33.45 6.15 33.65" fill="#fbf2e1" fill-rule="evenodd" stroke="none"/>
      <path d="M6.3 33.1 L7.0 33.2 Q11.55 33.4 14.85 29.05 L15.15 29.5 12.65 32.2 Q8.0 34.95 7.4 34.85 L7.15 34.5 7.2 34.2 7.15 34.5 6.3 33.1" fill="#afa8ce" fill-rule="evenodd" stroke="none"/>
      <path d="M3.9 35.75 Q4.2 35.0 4.85 34.25 L6.6 36.95 6.3 37.1 5.85 37.55 3.9 35.75" fill="#383057" fill-rule="evenodd" stroke="none"/>
      <path d="M37.35 8.05 L34.9 8.7 36.1 6.55 Q34.9 5.25 33.5 4.4 30.95 2.65 28.0 2.35 24.65 2.0 20.95 3.25 19.1 3.95 17.1 5.0 L16.35 5.4 Q20.85 4.8 24.15 6.2 L24.95 6.6 26.7 7.75 M37.35 8.05 L38.1 9.0 38.2 9.2 38.65 10.0 40.1 12.9 40.7 14.85 Q41.85 19.35 40.1 23.4 L39.9 23.75 Q38.7 26.3 36.4 28.65 L33.7 28.05 34.9 30.0 31.95 32.25 31.45 32.6 30.95 32.8 Q27.8 34.1 27.1 36.9 L25.45 35.7 21.0 32.55 M30.2 13.0 L30.15 12.9 Q29.4 10.1 26.95 7.95 L26.7 7.75 M30.2 13.0 L30.5 15.5 30.5 16.45 M17.85 27.85 L19.8 27.55 19.9 27.5 Q23.2 26.75 25.65 24.9 L27.3 23.4 27.65 23.05 29.15 20.9 30.05 18.95 30.5 16.45 M16.35 5.4 L16.1 5.55 M4.85 34.25 L4.3 33.45 4.5 32.8 4.65 32.25 4.8 32.25 5.95 32.6 6.3 33.1 7.0 33.2 Q11.55 33.4 14.85 29.05 L14.45 28.5 14.45 27.05 14.5 27.05 15.55 27.25 16.15 27.35 M19.65 32.55 L19.3 33.9 18.1 33.7 17.15 32.4 Q12.85 32.8 10.2 39.25 L10.85 40.25 10.45 41.2 9.15 40.95 8.35 39.65 7.0 40.2 5.7 40.2 Q4.7 39.85 4.05 38.6 3.3 37.2 3.9 35.75 4.2 35.0 4.85 34.25 L6.6 36.95 6.65 37.05 8.35 39.65 M14.85 29.05 L15.15 29.5 16.1 30.85 M17.15 32.4 L16.25 31.05 16.1 30.85 M8.55 36.75 L10.2 39.25 M7.4 34.85 L8.55 36.75 M6.3 33.1 L7.15 34.5" fill="none" stroke="#000000" stroke-linecap="round" stroke-linejoin="round" stroke-opacity="0.3019608" stroke-width="0.4"/>
      <path d="M17.1 5.0 Q19.6 4.0 22.45 4.05 M39.9 23.75 L39.9 26.0 M30.8 7.25 Q29.85 6.25 28.55 5.45 L28.0 5.1 27.5 4.8 24.7 4.2 22.45 4.05 M33.55 11.9 Q32.75 9.25 30.8 7.25 M34.05 17.0 L34.1 15.35 Q34.05 13.5 33.55 11.9 M38.5 12.9 L37.5 10.3 M37.45 10.2 L37.45 10.25 M39.8 16.3 L40.2 17.35 M39.8 16.3 L38.8 13.75 38.5 12.9 M39.9 20.8 L39.9 23.75 M33.25 20.85 L33.85 18.6 34.05 17.0 M32.3 23.8 L32.55 23.1 33.25 20.85 M29.3 27.25 Q31.5 25.4 32.3 23.8 M4.5 32.8 L4.3 32.7 M5.75 33.45 L6.15 33.65 M29.3 27.25 Q26.4 29.65 21.0 32.55" fill="none" stroke="#ffffff" stroke-linecap="round" stroke-linejoin="round" stroke-opacity="0.57254905" stroke-width="0.5"/>
      <path d="M15.15 29.5 L15.3 29.35 M15.15 29.5 L12.65 32.2 Q8.0 34.95 7.4 34.85 M7.15 34.5 L7.4 34.85 M7.15 34.5 L7.2 34.2" fill="none" stroke="#ffffff" stroke-linecap="round" stroke-linejoin="round" stroke-opacity="0.5921569" stroke-width="0.5"/>
      <path d="M14.15 24.05 L14.25 24.05 16.2 26.6 15.4 26.5 13.65 23.95 14.15 24.05 M19.2 32.0 L15.4 26.5 16.2 26.6 19.5 31.15 19.2 32.0" fill="#e3ae33" fill-rule="evenodd" stroke="none"/>
      <path d="M21.45 33.3 L22.4 34.7 22.45 34.7 Q24.3 39.3 19.0 41.5 21.6 38.55 21.5 33.8 L21.45 33.3" fill="#dea118" fill-rule="evenodd" stroke="none"/>
      <path d="M14.25 24.05 L15.1 24.15 21.45 33.3 21.5 33.8 21.35 33.6 20.85 32.9 19.5 31.15 16.2 26.6 14.25 24.05 M16.4 26.65 L16.2 26.6 16.4 26.65" fill="#fbf2e1" fill-rule="evenodd" stroke="none"/>
      <path d="M17.6 41.9 L17.35 42.0 17.1 42.1 16.95 42.1 15.3 42.5 15.0 42.1 14.75 41.75 Q16.35 41.6 17.55 40.5 18.5 39.85 19.0 38.85 20.1 37.75 20.35 36.45 20.75 35.5 20.55 34.2 L20.85 32.9 21.35 33.6 Q19.55 41.15 17.6 41.9" fill="#baab50" fill-rule="evenodd" stroke="none"/>
      <path d="M19.0 41.5 L17.6 41.9 Q19.55 41.15 21.35 33.6 L21.5 33.8 Q21.6 38.55 19.0 41.5" fill="#b57f05" fill-rule="evenodd" stroke="none"/>
      <path d="M20.55 34.2 L20.5 33.85 19.2 32.0 19.5 31.15 20.85 32.9 20.55 34.2" fill="#a35e0b" fill-rule="evenodd" stroke="none"/>
      <path d="M14.25 24.05 L15.1 24.15 21.45 33.3 22.4 34.7 22.45 34.7 Q24.3 39.3 19.0 41.5 L17.6 41.9 M16.95 42.1 L15.3 42.5 15.0 42.1 M19.2 32.0 L15.4 26.5 13.65 23.95 14.15 24.05 M19.2 32.0 L20.5 33.85 20.55 34.2 Q20.75 35.5 20.35 36.45 20.1 37.75 19.0 38.85 18.5 39.85 17.55 40.5 16.35 41.6 14.75 41.75 L15.0 42.1" fill="none" stroke="#000000" stroke-linecap="round" stroke-linejoin="round" stroke-opacity="0.3019608" stroke-width="0.4"/>
      <path d="M14.15 24.05 L14.25 24.05 16.2 26.6 16.4 26.65 M17.6 41.9 L17.35 42.0 17.1 42.1 16.95 42.1 M15.0 42.1 L14.7 42.2 M20.55 34.2 L20.85 32.9 19.5 31.15 M16.2 26.6 L15.4 26.5 M16.2 26.6 L19.5 31.15 M21.35 33.6 L21.5 33.8 M20.85 32.9 L21.35 33.6" fill="none" stroke="#ffffff" stroke-linecap="round" stroke-linejoin="round" stroke-opacity="0.57254905" stroke-width="0.5"/>
      <path d="M27.55 28.6 L28.25 28.4 Q34.45 25.55 32.85 19.4 32.15 17.5 31.3 17.75 30.15 23.45 24.8 26.0 24.75 27.6 27.55 28.6" fill="url(#gradient0)" fill-rule="evenodd" stroke="none"/>
      <path d="M39.7 11.25 Q40.95 16.85 38.9 23.5 37.05 30.15 33.05 34.1 29.15 38.05 25.4 36.95 21.6 35.85 20.35 30.4 19.2 24.85 21.15 18.25 23.15 11.55 27.1 7.6 31.1 3.7 34.8 4.8 38.6 5.9 39.7 11.25" fill="url(#gradient1)" fill-rule="evenodd" stroke="none"/>
    </g>
    <radialGradient cx="0" cy="0" gradientTransform="matrix(0.0048, 0.0051, 0.0037, -0.0031, 30.65, 24.1)" gradientUnits="userSpaceOnUse" id="gradient0" r="819.2" spreadMethod="pad">
      <stop offset="0.0" stop-color="#ffffff" stop-opacity="0.4117647"/>
      <stop offset="1.0" stop-color="#ffffff" stop-opacity="0.0"/>
    </radialGradient>
    <radialGradient cx="0" cy="0" gradientTransform="matrix(0.0075, -0.0254, 0.0141, 0.0042, 30.15, 20.9)" gradientUnits="userSpaceOnUse" id="gradient1" r="819.2" spreadMethod="pad">
      <stop offset="0.0" stop-color="#ffffde" stop-opacity="0.52156866"/>
      <stop offset="0.4117647058823529" stop-color="#ffffcc" stop-opacity="0.0"/>
    </radialGradient>
  </defs>
</svg>
