<?xml version="1.0" encoding="UTF-8" standalone="no"?>
<svg xmlns:xlink="http://www.w3.org/1999/xlink" height="440.0px" width="440.0px" xmlns="http://www.w3.org/2000/svg">
  <g transform="matrix(10.0, 0.0, 0.0, 10.0, 0.0, 0.0)">
    <use height="44.0" transform="matrix(1.0, 0.0, 0.0, 1.0, 0.0, 0.0)" width="44.0" xlink:href="#shape0"/>
    <use height="4.85" transform="matrix(0.6653, 0.2998, -0.0299, 0.6772, 13.5581, 18.5152)" width="4.45" xlink:href="#sprite0"/>
    <use height="4.85" transform="matrix(0.1263, 0.6446, -0.3817, -0.0671, 17.1384, 18.4929)" width="4.45" xlink:href="#sprite0"/>
    <use height="4.85" transform="matrix(-0.362, -0.0636, -0.0685, -0.3496, 15.7608, 24.029)" width="4.45" xlink:href="#sprite0"/>
    <use height="4.85" transform="matrix(0.5386, 0.2427, -0.0232, 0.5267, 16.5209, 16.152)" width="4.45" xlink:href="#sprite0"/>
    <use height="4.85" transform="matrix(0.4745, 0.2138, -0.0129, 0.2926, 17.4372, 18.4274)" width="4.45" xlink:href="#sprite0"/>
    <use height="4.85" transform="matrix(0.5593, 0.4095, -0.118, 0.3384, 18.3528, 15.187)" width="4.45" xlink:href="#sprite0"/>
    <use height="4.85" transform="matrix(-0.4216, 0.0563, -0.1325, -0.3182, 21.0455, 15.9397)" width="4.45" xlink:href="#sprite0"/>
    <use height="4.85" transform="matrix(-0.5729, -0.1007, -0.0841, -0.4295, 27.0123, 15.7023)" width="4.45" xlink:href="#sprite0"/>
    <use height="4.85" transform="matrix(0.4745, 0.2138, -0.0129, 0.2926, 26.3872, 14.5774)" width="4.45" xlink:href="#sprite0"/>
    <use height="4.85" transform="matrix(0.3163, 0.1425, -0.0185, 0.419, 26.8984, 12.6309)" width="4.45" xlink:href="#sprite0"/>
    <use height="4.85" transform="matrix(-0.5729, -0.1007, -0.0841, -0.4295, 30.5123, 16.1023)" width="4.45" xlink:href="#sprite0"/>
    <use height="4.85" transform="matrix(-0.532, -0.0935, -0.0805, -0.4108, 32.3136, 15.0916)" width="4.45" xlink:href="#sprite0"/>
    <use height="4.85" transform="matrix(-0.5861, -0.2641, 0.0175, -0.3975, 24.4973, 16.385)" width="4.45" xlink:href="#sprite0"/>
    <use height="4.85" transform="matrix(-0.4528, -0.3315, 0.0869, -0.2491, 26.2876, 17.3772)" width="4.45" xlink:href="#sprite0"/>
    <use height="4.85" transform="matrix(0.3018, 0.221, -0.1244, 0.3567, 23.7345, 15.4078)" width="4.45" xlink:href="#sprite0"/>
    <use height="4.85" transform="matrix(-0.362, -0.0636, -0.0685, -0.3496, 20.5108, 19.529)" width="4.45" xlink:href="#sprite0"/>
    <use height="4.85" transform="matrix(0.6653, 0.2998, -0.0299, 0.6772, 20.4581, 14.1652)" width="4.45" xlink:href="#sprite0"/>
    <use height="4.85" transform="matrix(-0.2668, -0.2844, 0.2218, -0.2701, 29.1047, 14.474)" width="4.45" xlink:href="#sprite0"/>
    <use height="28.95" transform="matrix(1.0, 0.0, 0.0, 1.0, 1.75, 13.45)" width="25.85" xlink:href="#shape2"/>
  </g>
  <defs>
    <g id="shape0" transform="matrix(1.0, 0.0, 0.0, 1.0, 0.0, 0.0)">
      <path d="M44.0 44.0 L0.0 44.0 0.0 0.0 44.0 0.0 44.0 44.0" fill="#33cc33" fill-opacity="0.0" fill-rule="evenodd" stroke="none"/>
      <path d="M34.3 19.4 L34.25 19.45 33.1 19.35 32.05 16.05 34.3 19.4 M14.2 22.8 L14.0 22.05 14.7 21.15 14.6 21.55 14.6 21.8 14.9 22.05 15.0 22.05 14.2 22.8 M38.85 5.4 L40.35 2.75 39.55 8.95 34.85 13.5 Q32.25 15.65 28.7 15.85 25.8 16.1 21.8 17.4 L20.05 18.05 19.95 18.1 21.3 17.3 23.6 16.45 24.85 15.85 22.15 15.75 Q19.75 16.6 18.0 17.9 17.3 18.35 16.45 19.2 18.5 17.05 20.25 15.95 L20.5 15.9 26.0 14.5 Q29.25 14.5 31.7 13.7 L31.8 14.0 Q31.95 14.6 32.3 14.6 32.95 14.65 34.1 13.8 L35.65 12.35 37.05 11.2 Q37.85 10.5 37.9 9.9 L37.85 9.4 37.95 9.4 38.4 8.95 38.6 8.4 Q38.6 7.8 38.15 8.1 37.65 8.4 37.6 8.95 L37.65 9.1 37.4 9.05 Q38.3 7.5 38.85 5.4 M18.55 18.95 L16.85 20.35 18.4 18.85 18.55 18.95" fill="#546554" fill-rule="evenodd" stroke="none"/>
      <path d="M32.45 20.05 L26.35 20.3 25.85 16.85 Q29.15 16.1 32.05 16.05 L32.45 20.05 M37.4 9.05 L37.65 9.1 37.6 8.95 Q37.65 8.4 38.15 8.1 38.6 7.8 38.6 8.4 L38.4 8.95 37.95 9.4 37.85 9.4 37.9 9.9 Q37.85 10.5 37.05 11.2 L35.65 12.35 34.1 13.8 Q32.95 14.65 32.3 14.6 31.95 14.6 31.8 14.0 L31.7 13.7 31.7 13.45 Q31.7 13.15 33.4 11.95 L35.25 10.75 36.95 9.25 37.4 9.05 M31.5 18.6 L31.55 18.35 Q31.6 17.1 29.65 17.0 27.65 16.85 27.6 17.7 L28.15 18.4 Q28.9 19.1 30.0 19.15 L30.75 19.1 30.9 19.15 Q31.6 19.15 31.6 18.75 L31.5 18.6 M22.1 18.6 L22.35 18.45 Q22.85 18.4 22.85 18.85 L22.45 19.65 22.25 19.7 Q21.8 19.65 21.85 19.05 21.85 18.65 22.1 18.6 M21.9 20.05 Q21.9 20.45 21.5 20.4 L21.2 20.25 21.15 20.0 Q21.2 19.55 21.55 19.55 21.95 19.65 21.9 20.05 M20.8 19.2 Q21.1 19.25 21.1 19.75 19.05 22.8 17.7 22.75 17.2 22.75 17.1 22.2 L17.1 21.7 Q17.1 20.8 18.6 19.95 L18.15 20.6 18.2 21.0 Q18.3 21.35 18.75 21.35 20.8 20.05 20.8 19.35 L20.8 19.2" fill="#7e8f7e" fill-rule="evenodd" stroke="none"/>
      <path d="M40.55 10.9 L39.9 11.95 Q39.85 11.0 38.95 11.4 38.0 11.8 38.0 12.55 L38.0 12.95 38.75 13.35 39.1 13.3 38.6 14.2 38.1 13.9 Q37.95 13.55 37.1 13.2 L36.75 13.05 36.3 12.8 39.6 9.45 40.55 10.9 M38.75 14.7 L39.05 15.2 38.15 14.65 37.55 15.9 Q37.6 14.1 36.15 15.0 34.6 15.95 34.6 17.05 L34.7 17.7 Q34.95 18.3 35.3 18.3 L35.75 18.2 34.3 19.4 32.05 16.05 33.1 19.35 32.45 20.05 32.05 16.05 35.9 13.15 36.15 12.95 36.3 13.05 36.15 13.35 36.9 13.9 37.8 14.3 38.0 14.25 38.0 14.2 38.75 14.7 M22.75 20.6 L21.95 20.8 Q16.7 22.75 15.65 26.6 L14.5 23.7 Q17.2 20.05 20.7 18.2 L21.9 17.8 22.1 18.6 Q21.85 18.65 21.85 19.05 21.8 19.65 22.25 19.7 L22.45 19.65 22.75 20.6 M14.0 22.05 L13.8 21.35 13.55 20.5 19.85 14.8 Q26.15 14.35 31.6 11.85 33.9 10.7 35.8 8.95 32.55 12.45 26.0 14.5 L20.5 15.9 20.25 15.95 Q18.5 17.05 16.45 19.2 L15.95 19.65 14.7 21.15 14.0 22.05 M21.9 20.05 Q21.95 19.65 21.55 19.55 21.2 19.55 21.15 20.0 L21.2 20.25 21.5 20.4 Q21.9 20.45 21.9 20.05 M20.8 19.2 L20.3 18.85 Q19.85 18.85 18.95 19.6 L18.6 19.95 Q17.1 20.8 17.1 21.7 L17.1 22.2 Q17.2 22.75 17.7 22.75 19.05 22.8 21.1 19.75 21.1 19.25 20.8 19.2" fill="#a8b9a8" fill-rule="evenodd" stroke="none"/>
      <path d="M16.45 19.2 Q17.3 18.35 18.0 17.9 19.75 16.6 22.15 15.75 L24.85 15.85 23.6 16.45 21.3 17.3 19.95 18.1 19.8 18.2 18.65 19.0 18.55 18.95 18.4 18.85 16.85 20.35 16.65 20.45 15.0 22.05 14.9 22.05 14.6 21.8 14.6 21.55 14.7 21.15 15.95 19.65 16.45 19.2" fill="#667865" fill-rule="evenodd" stroke="none"/>
      <path d="M35.8 8.95 Q37.5 7.4 38.85 5.4 38.3 7.5 37.4 9.05 L36.95 9.25 35.25 10.75 33.4 11.95 Q31.7 13.15 31.7 13.45 L31.7 13.7 Q29.25 14.5 26.0 14.5 32.55 12.45 35.8 8.95" fill="#6d786d" fill-rule="evenodd" stroke="none"/>
      <path d="M39.9 11.95 L39.9 12.15 39.65 12.85 39.1 13.3 38.75 13.35 38.0 12.95 38.0 12.55 Q38.0 11.8 38.95 11.4 39.85 11.0 39.9 11.95 M36.75 13.05 L37.1 13.2 Q37.95 13.55 38.1 13.9 L38.1 14.0 38.0 14.2 38.0 14.25 37.8 14.3 36.9 13.9 36.15 13.35 36.3 13.05 36.75 13.05 M35.75 18.2 L35.3 18.3 Q34.95 18.3 34.7 17.7 L34.6 17.05 Q34.6 15.95 36.15 15.0 37.6 14.1 37.55 15.9 L36.7 17.25 35.75 18.2 M30.75 19.1 L30.0 19.15 Q28.9 19.1 28.15 18.4 L27.6 17.7 Q27.65 16.85 29.65 17.0 31.6 17.1 31.55 18.35 L31.5 18.6 30.55 18.2 29.5 18.3 29.8 18.7 Q30.15 19.05 30.75 19.1 M18.6 19.95 L18.95 19.6 Q19.85 18.85 20.3 18.85 L20.8 19.2 20.8 19.35 Q20.8 20.05 18.75 21.35 18.3 21.35 18.2 21.0 L18.15 20.6 18.6 19.95" fill="#8d9c8d" fill-rule="evenodd" stroke="none"/>
      <path d="M40.6 2.05 L40.65 2.55 40.55 4.55 Q40.35 7.15 39.6 9.45 L36.3 12.8 36.75 13.05 36.3 13.05 36.15 12.95 35.9 13.15 32.05 16.05 Q29.15 16.1 25.85 16.85 L26.35 20.3 Q25.75 19.9 25.1 20.05 L25.2 16.95 Q23.6 17.3 21.9 17.8 L20.7 18.2 Q17.2 20.05 14.5 23.7 L14.2 22.8 15.0 22.05 16.65 20.45 16.85 20.35 18.55 18.95 18.65 19.0 19.8 18.2 19.95 18.1 20.05 18.05 21.8 17.4 Q25.8 16.1 28.7 15.85 32.25 15.65 34.85 13.5 L39.55 8.95 40.35 2.75 40.6 2.05 M38.6 14.2 L39.45 14.75 38.75 14.7 38.0 14.2 38.1 14.0 38.1 13.9 38.6 14.2" fill="#e4e8e3" fill-rule="evenodd" stroke="none"/>
      <path d="M25.1 20.05 L22.75 20.6 22.45 19.65 22.85 18.85 Q22.85 18.4 22.35 18.45 L22.1 18.6 21.9 17.8 Q23.6 17.3 25.2 16.95 L25.1 20.05" fill="#828f82" fill-rule="evenodd" stroke="none"/>
      <path d="M31.5 18.6 L31.6 18.75 Q31.6 19.15 30.9 19.15 L30.75 19.1 Q30.15 19.05 29.8 18.7 L29.5 18.3 30.55 18.2 31.5 18.6" fill="#dfe3df" fill-rule="evenodd" stroke="none"/>
      <path d="M40.6 2.05 Q42.55 8.9 41.7 11.0 L41.5 11.5 Q40.9 11.3 41.0 11.7 L41.2 11.95 39.45 14.75 38.6 14.2 39.1 13.3 39.65 12.85 39.9 12.15 39.9 11.95 40.55 10.9 40.55 4.55 40.65 2.55 40.6 2.05 M39.05 15.2 Q36.8 18.2 34.3 19.4 L35.75 18.2 36.7 17.25 37.55 15.9 38.15 14.65 39.05 15.2" fill="#ffffff" fill-rule="evenodd" stroke="none"/>
      <path d="M39.45 14.75 L41.2 11.95 41.0 11.7 Q40.9 11.3 41.5 11.5 L41.7 11.0 Q42.55 8.9 40.6 2.05 M39.45 14.75 L38.75 14.7 39.05 15.2 Q36.8 18.2 34.3 19.4 L34.25 19.45 33.1 19.35 32.45 20.05 26.35 20.3 Q25.75 19.9 25.1 20.05 L22.75 20.6 21.95 20.8 Q16.7 22.75 15.65 26.6 L14.5 23.7 14.2 22.8 14.0 22.05 13.8 21.35 13.55 20.5 19.85 14.8 Q26.15 14.35 31.6 11.85 33.9 10.7 35.8 8.95 37.5 7.4 38.85 5.4 L40.35 2.75 40.6 2.05" fill="none" stroke="#000000" stroke-linecap="round" stroke-linejoin="round" stroke-opacity="0.3019608" stroke-width="0.4"/>
      <path d="M32.7 19.15 L33.45 18.8 Q40.9 14.25 42.1 7.8 42.35 5.8 41.4 6.3 37.65 12.8 31.3 16.9 30.5 18.7 32.7 19.15" fill="url(#gradient0)" fill-rule="evenodd" stroke="none"/>
      <path d="M16.6 20.95 L17.15 20.35 Q23.25 15.45 29.0 16.85 30.65 17.4 30.0 18.1 23.4 18.9 18.05 23.15 16.35 23.2 16.6 20.95" fill="url(#gradient1)" fill-rule="evenodd" stroke="none"/>
      <path d="M36.7 2.35 L36.85 2.35 42.0 2.25 42.0 18.2 Q42.0 18.9 42.9 19.8 L43.45 20.3 43.1 20.5 Q37.3 24.6 31.55 25.2 25.8 25.75 23.55 22.45 21.25 19.15 23.8 14.05 26.4 8.9 32.3 4.95 34.5 3.4 36.7 2.35" fill="url(#gradient2)" fill-rule="evenodd" stroke="none"/>
      <path d="M42.75 3.55 L42.65 10.7 Q42.5 14.7 42.8 18.65 L42.9 19.9 Q40.9 21.95 38.3 23.8 32.45 27.85 26.75 28.5 21.0 29.0 18.7 25.7 16.45 22.45 19.0 17.3 21.6 12.15 27.5 8.2 33.25 4.1 39.05 3.5 41.15 3.25 42.75 3.55" fill="url(#gradient3)" fill-rule="evenodd" stroke="none"/>
    </g>
    <radialGradient cx="0" cy="0" gradientTransform="matrix(0.0024, 0.0046, 0.0051, -0.0043, 37.9, 13.4)" gradientUnits="userSpaceOnUse" id="gradient0" r="819.2" spreadMethod="pad">
      <stop offset="0.0" stop-color="#ffffff" stop-opacity="0.4117647"/>
      <stop offset="1.0" stop-color="#ffffff" stop-opacity="0.0"/>
    </radialGradient>
    <radialGradient cx="0" cy="0" gradientTransform="matrix(-0.0031, -0.0039, 0.0052, -0.0029, 22.95, 18.5)" gradientUnits="userSpaceOnUse" id="gradient1" r="819.2" spreadMethod="pad">
      <stop offset="0.0" stop-color="#ffffff" stop-opacity="0.4117647"/>
      <stop offset="1.0" stop-color="#ffffff" stop-opacity="0.0"/>
    </radialGradient>
    <radialGradient cx="0" cy="0" gradientTransform="matrix(0.0223, -0.0155, -0.0086, -0.0124, 37.7, 12.65)" gradientUnits="userSpaceOnUse" id="gradient2" r="819.2" spreadMethod="pad">
      <stop offset="0.0" stop-color="#ffffde" stop-opacity="0.19215687"/>
      <stop offset="0.4117647058823529" stop-color="#ffffcc" stop-opacity="0.0"/>
    </radialGradient>
    <radialGradient cx="0" cy="0" gradientTransform="matrix(0.0223, -0.0155, -0.0086, -0.0124, 32.85, 15.9)" gradientUnits="userSpaceOnUse" id="gradient3" r="819.2" spreadMethod="pad">
      <stop offset="0.0" stop-color="#ffffde" stop-opacity="0.19215687"/>
      <stop offset="0.4117647058823529" stop-color="#ffffcc" stop-opacity="0.0"/>
    </radialGradient>
    <g id="sprite0" transform="matrix(1.0, 0.0, 0.0, 1.0, 2.2, 2.4)">
      <use height="4.85" transform="matrix(1.0, 0.0, 0.0, 1.0, -2.2, -2.4)" width="4.45" xlink:href="#shape1"/>
    </g>
    <g id="shape1" transform="matrix(1.0, 0.0, 0.0, 1.0, 2.2, 2.4)">
      <path d="M-1.1 -1.45 L0.3 -0.85 0.1 -0.05 0.7 -0.85 1.45 0.0 0.6 1.45 -0.4 2.0 0.5 0.6 -1.6 2.15 Q-2.15 1.75 -2.05 1.2 L-2.05 0.05 -1.1 -1.45" fill="#796c3c" fill-rule="evenodd" stroke="none"/>
      <path d="M0.6 1.45 L1.45 0.0 0.7 -0.85 0.1 -0.05 0.3 -0.85 -1.1 -1.45 -0.35 -2.25 Q1.25 -2.3 2.1 -0.6 1.65 0.65 0.6 1.45 M-1.6 2.15 L0.5 0.6 -0.4 2.0 -1.35 2.3 -1.6 2.15" fill="#66402d" fill-rule="evenodd" stroke="none"/>
      <path d="M0.6 1.45 Q1.65 0.65 2.1 -0.6 1.25 -2.3 -0.35 -2.25 L-1.1 -1.45 -2.05 0.05 -2.05 1.2 Q-2.15 1.75 -1.6 2.15 M-0.4 2.0 L0.6 1.45 M-0.4 2.0 L-1.35 2.3 -1.6 2.15" fill="none" stroke="#000000" stroke-linecap="round" stroke-linejoin="round" stroke-opacity="0.3019608" stroke-width="0.30000000000000004"/>
    </g>
    <g id="shape2" transform="matrix(1.0, 0.0, 0.0, 1.0, -1.75, -13.45)">
      <path d="M26.75 13.45 L26.0 13.5 Q18.35 14.65 14.75 19.2 13.75 20.6 14.7 20.6 20.3 16.8 26.95 15.65 28.3 14.6 26.75 13.45" fill="url(#gradient4)" fill-rule="evenodd" stroke="none"/>
      <path d="M10.75 16.9 L11.25 18.35 12.25 20.35 12.7 19.1 11.55 18.2 10.75 16.9 M2.95 34.6 Q1.7 37.75 2.0 40.9 2.2 38.7 3.35 36.25 L3.2 37.8 4.2 36.0 4.7 36.3 Q5.0 36.7 5.0 37.6 L5.3 37.35 5.4 36.8 Q4.55 33.85 3.85 34.0 3.3 33.6 2.95 34.6" fill="#000000" fill-rule="evenodd" stroke="none"/>
      <path d="M12.95 18.5 L11.85 17.55 Q10.7 16.25 10.65 15.05 L10.75 16.9 11.55 18.2 12.7 19.1 12.95 18.5 M2.0 40.9 L1.95 41.05 Q2.8 38.65 4.7 36.3 L4.2 36.0 3.2 37.8 3.35 36.25 Q2.2 38.7 2.0 40.9" fill="#999999" fill-rule="evenodd" stroke="none"/>
      <path d="M14.65 22.1 L14.05 23.25 14.5 24.6 15.15 24.0 14.65 22.1 M13.8 22.3 L14.5 21.35 14.3 20.35 14.25 19.9 13.4 21.25 13.8 22.3 M13.9 18.5 L13.15 17.95 12.95 18.5 12.7 19.1 13.05 20.15 13.9 18.5 M13.65 33.1 L15.0 32.25 15.6 31.65 15.45 30.95 13.65 33.1 M16.1 31.05 Q16.55 30.25 16.55 29.0 L15.65 28.05 15.9 28.8 15.8 29.95 16.1 31.05 M16.2 27.35 L15.35 24.9 14.8 25.65 15.35 27.2 16.2 27.35" fill="#e7d083" fill-rule="evenodd" stroke="none"/>
      <path d="M14.05 23.25 L13.8 22.3 13.4 21.25 13.05 20.15 12.7 19.1 12.25 20.35 12.2 20.9 12.9 22.6 Q12.95 24.25 14.7 27.1 L15.2 28.3 13.55 23.2 14.65 24.95 14.5 24.6 14.05 23.25" fill="#9f8f5a" fill-rule="evenodd" stroke="none"/>
      <path d="M12.5 23.6 L12.2 23.85 12.0 24.0 10.25 24.75 Q9.0 25.9 7.8 26.35 7.0 27.6 6.1 27.85 5.8 28.65 4.75 29.3 L2.65 33.5 Q3.55 32.75 4.25 33.15 L4.7 31.45 5.3 30.85 Q5.9 29.15 6.7 29.4 L6.1 27.85 6.7 29.4 6.95 29.05 Q7.8 27.75 8.45 28.0 9.25 26.4 10.4 26.7 11.55 25.0 12.45 25.8 12.7 25.3 13.1 25.2 L12.5 23.6 M12.45 25.8 L12.2 23.85 12.45 25.8 M10.25 24.75 L10.4 26.7 10.25 24.75 M7.8 26.35 L8.45 28.0 7.8 26.35 M4.75 29.3 L5.3 30.85 4.75 29.3" fill="#993300" fill-rule="evenodd" stroke="none"/>
      <path d="M12.9 22.6 Q12.9 23.1 12.5 23.6 L13.1 25.2 Q12.7 25.3 12.45 25.8 11.55 25.0 10.4 26.7 L10.5 27.65 10.4 26.7 Q9.25 26.4 8.45 28.0 L8.75 28.6 10.5 27.65 10.65 27.5 Q11.05 26.65 12.5 26.6 L12.6 27.75 Q13.7 26.6 14.7 27.1 12.95 24.25 12.9 22.6 M2.65 33.5 L2.95 34.6 Q3.3 33.6 3.85 34.0 4.55 33.85 5.4 36.8 L5.3 37.35 5.55 37.95 5.85 37.85 Q6.85 37.25 5.15 33.75 L5.55 31.65 5.3 30.85 5.55 31.65 Q6.0 30.6 7.1 30.15 7.7 29.15 8.75 28.6 L8.45 28.0 Q7.8 27.75 6.95 29.05 L6.7 29.4 Q5.9 29.15 5.3 30.85 L4.7 31.45 4.25 33.15 Q3.55 32.75 2.65 33.5 M12.45 25.8 L12.5 26.6 12.45 25.8 M7.1 30.15 L6.7 29.4 7.1 30.15" fill="#5f1f00" fill-rule="evenodd" stroke="none"/>
      <path d="M14.65 22.1 L14.5 21.35 13.8 22.3 14.05 23.25 14.65 22.1 M14.25 19.9 L14.15 18.75 13.9 18.5 13.05 20.15 13.4 21.25 14.25 19.9 M15.6 31.65 L16.05 31.1 16.1 31.05 15.8 29.95 15.45 30.95 15.6 31.65 M16.55 29.0 L16.4 27.85 16.2 27.35 15.35 27.2 15.65 28.05 16.55 29.0 M15.35 24.9 L15.15 24.0 14.5 24.6 14.65 24.95 14.8 25.65 15.35 24.9" fill="#f2e7bf" fill-rule="evenodd" stroke="none"/>
      <path d="M15.2 28.3 Q15.65 29.7 14.95 30.75 L14.15 31.9 13.65 33.1 15.45 30.95 15.8 29.95 15.9 28.8 15.65 28.05 15.35 27.2 14.8 25.65 14.65 24.95 13.55 23.2 15.2 28.3" fill="#70643f" fill-rule="evenodd" stroke="none"/>
      <path d="M5.85 37.85 L6.35 37.65 Q6.9 36.65 6.2 34.9 5.4 33.1 5.8 32.4 6.3 30.75 7.4 30.95 8.05 29.1 9.15 29.6 9.55 28.25 10.55 28.7 11.7 26.85 12.6 27.75 L12.5 26.6 Q11.05 26.65 10.65 27.5 L10.5 27.65 10.55 28.7 10.5 27.65 8.75 28.6 9.15 29.6 8.75 28.6 Q7.7 29.15 7.1 30.15 L7.4 30.95 7.1 30.15 Q6.0 30.6 5.55 31.65 L5.15 33.75 Q6.85 37.25 5.85 37.85 M5.8 32.4 L5.55 31.65 5.8 32.4" fill="#db5c29" fill-rule="evenodd" stroke="none"/>
      <path d="M1.95 41.05 L2.15 42.2 Q2.75 39.05 5.0 37.6 5.0 36.7 4.7 36.3 2.8 38.65 1.95 41.05" fill="#f2f2f2" fill-rule="evenodd" stroke="none"/>
      <path d="M14.65 22.1 L14.05 23.25 M13.8 22.3 L14.5 21.35 M13.4 21.25 L14.25 19.9 M13.9 18.5 L13.05 20.15 M15.6 31.65 L15.45 30.95 M16.1 31.05 L15.8 29.95 M14.5 24.6 L15.15 24.0 M16.2 27.35 L15.35 27.2 M14.8 25.65 L15.35 24.9 M15.65 28.05 L16.55 29.0" fill="none" stroke="#513600" stroke-linecap="round" stroke-linejoin="round" stroke-opacity="0.1882353" stroke-width="0.05"/>
      <path d="M14.5 21.35 L14.65 22.1 M14.5 21.35 L14.3 20.35 14.25 19.9 14.15 18.75 13.9 18.5 13.15 17.95 12.95 18.5 11.85 17.55 Q10.7 16.25 10.65 15.05 L10.75 16.9 11.25 18.35 12.25 20.35 12.2 20.9 12.9 22.6 Q12.9 23.1 12.5 23.6 L12.2 23.85 12.0 24.0 10.25 24.75 Q9.0 25.9 7.8 26.35 7.0 27.6 6.1 27.85 5.8 28.65 4.75 29.3 L2.65 33.5 2.95 34.6 Q1.7 37.75 2.0 40.9 L1.95 41.05 2.15 42.2 Q2.75 39.05 5.0 37.6 L5.3 37.35 5.55 37.95 5.85 37.85 6.35 37.65 Q6.9 36.65 6.2 34.9 5.4 33.1 5.8 32.4 6.3 30.75 7.4 30.95 8.05 29.1 9.15 29.6 9.55 28.25 10.55 28.7 11.7 26.85 12.6 27.75 13.7 26.6 14.7 27.1 L15.2 28.3 Q15.65 29.7 14.95 30.75 L14.15 31.9 13.65 33.1 15.0 32.25 15.6 31.65 16.05 31.1 16.1 31.05 Q16.55 30.25 16.55 29.0 L16.4 27.85 16.2 27.35 15.35 24.9 15.15 24.0 14.65 22.1 M12.7 19.1 L12.25 20.35 M12.7 19.1 L12.95 18.5 M12.9 22.6 Q12.95 24.25 14.7 27.1 M5.3 37.35 L5.4 36.8 Q4.55 33.85 3.85 34.0 3.3 33.6 2.95 34.6" fill="none" stroke="#000000" stroke-linecap="round" stroke-linejoin="round" stroke-opacity="0.4" stroke-width="0.4"/>
      <path d="M12.5 26.6 L12.6 27.75 M12.5 26.6 L12.45 25.8 M12.2 23.85 L12.45 25.8 M10.4 26.7 L10.25 24.75 M10.5 27.65 L10.55 28.7 M9.15 29.6 L8.75 28.6 M10.5 27.65 L10.4 26.7 M8.45 28.0 L7.8 26.35 M8.45 28.0 L8.75 28.6 M7.1 30.15 L7.4 30.95 M5.3 30.85 L5.55 31.65 5.8 32.4 M6.7 29.4 L7.1 30.15 M6.1 27.85 L6.7 29.4 M5.3 30.85 L4.75 29.3" fill="none" stroke="#ffffff" stroke-linecap="round" stroke-linejoin="round" stroke-opacity="0.2" stroke-width="0.4"/>
      <path d="M14.75 22.85 L14.95 23.25 Q16.5 27.35 16.35 30.6 16.25 31.5 16.0 31.05 15.55 27.1 14.2 23.45 14.15 22.45 14.75 22.85" fill="url(#gradient5)" fill-rule="evenodd" stroke="none"/>
    </g>
    <radialGradient cx="0" cy="0" gradientTransform="matrix(1.0E-4, -0.0043, -0.0057, 0.0017, 20.4, 16.2)" gradientUnits="userSpaceOnUse" id="gradient4" r="819.2" spreadMethod="pad">
      <stop offset="0.0" stop-color="#ffffff" stop-opacity="0.4117647"/>
      <stop offset="1.0" stop-color="#ffffff" stop-opacity="0.0"/>
    </radialGradient>
    <radialGradient cx="0" cy="0" gradientTransform="matrix(9.0E-4, -0.0014, 0.001, 0.0033, 15.65, 26.9)" gradientUnits="userSpaceOnUse" id="gradient5" r="819.2" spreadMethod="pad">
      <stop offset="0.0" stop-color="#ffffff" stop-opacity="0.4117647"/>
      <stop offset="1.0" stop-color="#ffffff" stop-opacity="0.0"/>
    </radialGradient>
  </defs>
</svg>
