<?xml version="1.0" encoding="UTF-8" standalone="no"?>
<svg xmlns:xlink="http://www.w3.org/1999/xlink" height="440.0px" width="440.0px" xmlns="http://www.w3.org/2000/svg">
  <g transform="matrix(10.0, 0.0, 0.0, 10.0, 0.0, 0.0)">
    <use height="44.0" transform="matrix(1.0, 0.0, 0.0, 1.0, 0.0, 0.0)" width="44.0" xlink:href="#shape0"/>
  </g>
  <defs>
    <g id="shape0" transform="matrix(1.0, 0.0, 0.0, 1.0, 0.0, 0.0)">
      <path d="M44.0 44.0 L0.0 44.0 0.0 0.0 44.0 0.0 44.0 44.0" fill="#33cc33" fill-opacity="0.0" fill-rule="evenodd" stroke="none"/>
      <path d="M28.75 10.55 L30.1 10.5 30.0 10.65 29.65 12.3 28.9 10.65 28.75 10.55 M33.45 11.55 L34.25 12.05 34.1 12.2 33.25 13.1 33.45 11.75 33.45 11.55 M37.6 15.25 L38.0 15.85 37.75 15.85 37.15 15.85 37.5 15.45 37.6 15.25" fill="#a1d5e0" fill-rule="evenodd" stroke="none"/>
      <path d="M16.2 30.1 L15.85 30.65 15.8 30.75 15.4 31.25 15.25 31.4 15.15 31.4 14.75 31.05 14.3 30.55 Q14.7 30.65 15.15 30.25 L15.95 29.4 Q16.35 29.85 16.2 30.1" fill="#806914" fill-rule="evenodd" stroke="none"/>
      <path d="M19.6 29.95 Q18.35 29.1 17.1 29.3 L16.2 29.65 15.95 29.4 Q18.05 28.45 19.65 29.9 L19.6 29.95" fill="#ffffff" fill-rule="evenodd" stroke="none"/>
      <path d="M14.65 28.15 Q16.05 26.85 18.15 28.3 L19.65 29.9 Q18.05 28.45 15.95 29.4 L15.55 29.05 14.65 28.15" fill="#153a3e" fill-rule="evenodd" stroke="none"/>
      <path d="M6.25 37.25 L7.0 36.75 7.3 36.55 7.4 36.7 7.5 36.85 6.7 37.6 6.65 37.4 6.25 37.25 M7.2 36.15 L7.95 35.65 8.1 35.4 8.1 35.45 8.2 35.55 8.25 35.65 8.3 35.75 7.65 36.25 7.2 36.15 M8.05 35.1 L8.6 34.6 8.9 34.3 9.0 34.5 9.05 34.55 9.1 34.7 8.55 35.25 8.45 35.15 8.05 35.1 M8.8 33.9 L9.5 33.3 9.7 33.05 9.9 33.4 9.0 34.1 8.8 33.9 M9.65 32.7 L10.2 32.1 10.4 31.95 10.55 32.0 10.6 32.05 10.6 32.1 10.15 32.85 10.0 32.7 9.65 32.7 M10.95 30.5 L11.3 30.0 11.5 29.8 11.7 29.9 11.25 30.5 10.95 30.5 M11.35 29.6 L11.95 28.7 12.2 28.95 11.85 29.6 11.8 29.55 11.35 29.6" fill="#b793db" fill-rule="evenodd" stroke="none"/>
      <path d="M6.3 39.2 L6.25 39.15 6.45 39.05 6.3 39.2" fill="#e7d030" fill-rule="evenodd" stroke="none"/>
      <path d="M7.25 40.0 L7.3 39.8 7.3 39.95 7.25 40.0" fill="#ceac22" fill-rule="evenodd" stroke="none"/>
      <path d="M13.55 27.1 L13.4 26.0 Q12.8 21.65 9.05 17.4 10.65 17.75 12.4 16.75 L12.6 17.3 Q12.85 18.2 13.7 18.65 14.45 19.2 15.35 19.1 16.1 18.9 16.45 18.15 16.85 17.35 16.5 16.4 16.15 15.5 15.35 15.0 L14.9 14.75 15.1 14.55 15.1 14.5 Q16.8 12.7 18.6 9.85 L18.75 9.6 19.65 10.6 Q20.5 11.15 21.3 10.95 22.1 10.85 22.5 10.05 22.8 9.25 22.5 8.35 22.15 7.45 21.35 6.85 L20.9 6.65 20.6 6.55 20.8 6.3 Q22.6 4.15 25.65 3.45 L27.0 3.3 27.3 3.25 Q27.05 3.85 27.15 4.45 L27.35 4.95 27.55 5.4 28.45 6.4 Q29.25 6.95 30.1 6.8 30.9 6.55 31.2 5.8 31.55 5.05 31.25 4.15 L31.1 3.85 31.5 3.95 Q32.85 4.5 34.25 5.4 36.4 6.8 37.85 8.7 L38.15 9.05 37.45 9.1 Q36.65 9.25 36.3 10.0 36.05 10.6 36.15 11.25 L36.3 11.75 36.5 12.1 Q36.85 12.8 37.45 13.15 38.25 13.7 39.1 13.55 L40.15 12.75 40.3 13.1 40.3 13.15 Q42.1 18.05 40.25 22.25 39.2 24.5 37.35 25.9 38.8 20.3 35.45 17.25 30.85 13.45 25.8 18.45 23.8 20.7 22.5 22.8 20.15 26.65 20.0 30.3 L19.6 29.95 19.65 29.9 18.15 28.3 Q16.05 26.85 14.65 28.15 L14.45 27.95 15.1 27.5 Q16.35 26.95 17.9 28.05 16.4 24.35 18.5 21.0 15.9 23.5 9.85 18.15 13.55 22.55 13.7 27.2 L13.55 27.1 M37.5 8.7 Q35.05 5.75 31.65 4.5 L31.65 5.25 Q31.6 6.25 30.9 6.7 30.25 7.15 29.6 7.1 L29.15 7.0 28.6 6.8 27.5 5.8 27.5 5.75 Q26.85 4.85 26.85 3.85 L26.9 3.6 Q23.4 3.75 21.05 6.35 L22.05 7.15 Q22.8 8.0 22.9 9.0 22.95 9.85 22.6 10.4 L22.4 10.7 21.95 11.1 20.8 11.25 20.75 11.25 Q19.7 11.15 19.0 10.35 L18.75 10.05 Q17.15 12.75 15.3 14.65 L15.7 14.95 16.5 15.85 Q17.05 16.8 16.85 17.85 16.75 18.55 16.25 19.05 L15.9 19.2 15.45 19.4 14.15 19.25 Q13.15 18.85 12.6 17.9 L12.25 17.1 Q11.15 17.85 9.55 17.65 15.65 23.25 18.5 20.95 L18.85 20.6 24.6 12.95 Q26.6 10.9 28.75 10.55 L28.9 10.65 Q26.75 11.0 24.7 13.1 L18.65 21.1 Q16.75 24.35 18.1 28.05 L19.65 29.7 Q20.3 24.75 23.5 20.7 26.05 17.05 29.3 15.6 32.0 14.85 33.85 15.85 35.8 16.8 37.15 18.85 38.35 20.95 38.05 23.5 L37.75 24.75 Q39.15 21.75 38.95 19.15 38.65 17.35 37.75 15.85 L38.0 15.85 Q40.5 20.0 37.7 25.25 38.65 24.5 39.6 23.15 42.1 18.35 40.05 13.35 39.75 13.7 39.2 13.85 38.25 14.0 37.35 13.4 36.65 12.95 36.3 12.2 L36.1 11.75 35.9 11.2 Q35.8 10.5 36.05 9.85 36.5 9.0 37.4 8.75 L37.5 8.75 37.5 8.7 M30.1 10.5 Q31.7 10.55 33.45 11.55 L33.45 11.75 32.35 11.15 Q31.15 10.65 30.0 10.65 L30.1 10.5 M34.25 12.05 L34.45 12.3 Q36.5 13.65 37.6 15.25 L37.5 15.45 Q36.3 13.65 34.1 12.2 L34.25 12.05" fill="url(#gradient0)" fill-rule="evenodd" stroke="none"/>
      <path d="M28.75 10.55 Q26.6 10.9 24.6 12.95 L18.85 20.6 18.5 20.95 Q15.65 23.25 9.55 17.65 11.15 17.85 12.25 17.1 L12.6 17.9 Q13.15 18.85 14.15 19.25 L15.45 19.4 15.9 19.2 16.25 19.05 Q16.75 18.55 16.85 17.85 17.05 16.8 16.5 15.85 L15.7 14.95 15.3 14.65 Q17.15 12.75 18.75 10.05 L19.0 10.35 Q19.7 11.15 20.75 11.25 L20.8 11.25 21.95 11.1 22.4 10.7 22.6 10.4 Q22.95 9.85 22.9 9.0 22.8 8.0 22.05 7.15 L21.05 6.35 Q23.4 3.75 26.9 3.6 L26.85 3.85 Q26.85 4.85 27.5 5.75 L27.5 5.8 28.6 6.8 29.15 7.0 29.6 7.1 Q30.25 7.15 30.9 6.7 31.6 6.25 31.65 5.25 L31.65 4.5 Q35.05 5.75 37.5 8.7 L37.4 8.75 Q36.5 9.0 36.05 9.85 35.8 10.5 35.9 11.2 L36.1 11.75 36.3 12.2 Q36.65 12.95 37.35 13.4 38.25 14.0 39.2 13.85 39.75 13.7 40.05 13.35 42.1 18.35 39.6 23.15 38.65 24.5 37.7 25.25 40.5 20.0 38.0 15.85 L37.6 15.25 Q36.5 13.65 34.45 12.3 L34.25 12.05 33.45 11.55 Q31.7 10.55 30.1 10.5 L28.75 10.55" fill="url(#gradient1)" fill-rule="evenodd" stroke="none"/>
      <path d="M30.0 10.65 Q31.15 10.65 32.35 11.15 L33.45 11.75 33.25 13.1 34.1 12.2 Q36.3 13.65 37.5 15.45 L37.15 15.85 37.75 15.85 Q38.65 17.35 38.95 19.15 39.15 21.75 37.75 24.75 L38.05 23.5 Q38.35 20.95 37.15 18.85 35.8 16.8 33.85 15.85 32.0 14.85 29.3 15.6 26.05 17.05 23.5 20.7 20.3 24.75 19.65 29.7 L18.1 28.05 Q16.75 24.35 18.65 21.1 L24.7 13.1 Q26.75 11.0 28.9 10.65 L29.65 12.3 30.0 10.65" fill="url(#gradient2)" fill-rule="evenodd" stroke="none"/>
      <path d="M13.7 27.2 Q13.55 22.55 9.85 18.15 15.9 23.5 18.5 21.0 16.4 24.35 17.9 28.05 16.35 26.95 15.1 27.5 L14.45 27.95 13.7 27.2" fill="url(#gradient3)" fill-rule="evenodd" stroke="none"/>
      <path d="M16.2 29.65 L16.25 29.7 16.2 30.1 Q16.35 29.85 15.95 29.4 L16.2 29.65 M2.45 31.35 Q2.4 31.05 2.6 30.9 L3.5 31.05 Q5.85 28.3 9.05 26.2 L11.95 26.85 12.55 26.8 12.6 26.65 13.05 26.55 13.55 27.1 13.7 27.2 14.45 27.95 14.65 28.15 15.55 29.05 Q14.2 27.75 12.95 27.1 12.75 26.9 12.45 27.35 L9.65 26.65 8.6 26.8 Q6.0 28.65 3.55 31.2 L2.95 31.05 Q3.1 31.5 2.45 31.35" fill="url(#gradient4)" fill-rule="evenodd" stroke="none"/>
      <path d="M12.05 28.5 L11.75 28.25 9.3 27.65 Q6.4 28.8 3.65 31.5 2.9 32.0 2.45 31.35 3.1 31.5 2.95 31.05 L3.55 31.2 Q6.0 28.65 8.6 26.8 L9.65 26.65 12.45 27.35 Q12.75 26.9 12.95 27.1 14.2 27.75 15.55 29.05 L15.95 29.4 15.15 30.25 Q14.7 30.65 14.3 30.55 L12.6 29.0 12.05 28.5" fill="url(#gradient5)" fill-rule="evenodd" stroke="none"/>
      <path d="M14.75 31.05 L14.45 31.5 13.75 32.55 13.35 32.7 12.6 33.85 12.25 33.9 11.85 34.6 11.5 34.85 11.2 35.5 10.9 35.7 10.5 36.65 10.0 36.9 9.7 37.85 9.3 38.15 8.95 39.35 8.5 39.5 8.25 39.8 8.0 40.6 7.8 40.65 7.9 40.45 Q7.25 38.9 6.4 37.65 L6.3 37.85 6.2 37.35 6.25 37.25 6.65 37.4 6.7 37.6 Q7.6 38.7 8.0 40.05 L8.3 39.1 Q8.15 38.1 7.5 36.85 L7.4 36.7 7.3 36.55 7.0 36.75 7.2 36.15 7.65 36.25 Q8.55 37.55 8.85 39.0 L9.1 37.85 8.3 35.75 8.25 35.65 8.2 35.55 8.1 35.45 8.1 35.4 7.95 35.65 8.05 35.1 8.45 35.15 8.55 35.25 Q9.35 36.35 9.55 37.6 L9.8 36.6 Q9.65 35.7 9.1 34.7 L9.05 34.55 9.0 34.5 8.9 34.3 8.6 34.6 8.8 33.9 9.0 34.1 Q9.9 35.15 10.3 36.45 L10.65 35.4 9.9 33.4 9.7 33.05 9.5 33.3 9.65 32.7 10.0 32.7 10.15 32.85 Q11.0 33.8 11.2 35.2 L11.4 34.45 Q11.35 33.1 10.6 32.1 L10.6 32.05 10.55 32.0 10.4 31.95 10.2 32.1 10.3 31.55 10.9 30.9 10.95 30.5 11.25 30.5 Q12.25 31.55 12.7 33.2 L13.15 32.45 Q12.8 31.05 11.7 29.9 L11.5 29.8 11.3 30.0 11.35 29.6 11.8 29.55 11.85 29.6 Q13.0 30.75 13.7 32.25 L14.15 31.7 Q13.5 30.1 12.2 28.95 L11.95 28.7 12.05 28.5 12.6 29.0 14.3 30.55 14.75 31.05 M10.9 30.9 L11.05 30.75 11.15 30.9 11.25 31.05 11.15 30.9 11.05 30.75 10.9 30.9 M14.45 31.5 L14.35 31.35 Q13.6 30.0 12.6 29.0 13.6 30.0 14.35 31.35 L14.45 31.5 M13.35 32.7 L13.5 32.4 Q12.8 30.9 11.7 29.9 12.8 30.9 13.5 32.4 L13.35 32.7 M11.35 31.15 L11.25 30.95 11.25 31.05 10.55 31.65 Q11.6 32.7 11.9 34.1 L12.25 33.55 Q12.0 32.35 11.35 31.15 12.15 32.1 12.55 33.55 L12.25 33.9 12.55 33.55 Q12.15 32.1 11.35 31.15 M11.5 34.85 L11.7 34.5 Q11.35 32.95 10.6 32.05 11.35 32.95 11.7 34.5 L11.5 34.85 M10.9 35.7 L11.05 35.4 Q10.6 34.0 9.7 33.05 10.6 34.0 11.05 35.4 L10.9 35.7 M8.5 39.5 L8.65 39.15 7.5 36.85 8.65 39.15 8.5 39.5 M8.25 35.65 Q9.0 36.55 9.35 37.9 L9.3 38.15 9.35 37.9 Q9.0 36.55 8.25 35.65 M10.0 36.9 L10.15 36.7 Q9.75 35.4 9.05 34.55 9.75 35.4 10.15 36.7 L10.0 36.9" fill="url(#gradient6)" fill-rule="evenodd" stroke="none"/>
      <path d="M11.25 30.5 L11.7 29.9 Q12.8 31.05 13.15 32.45 L12.7 33.2 Q12.25 31.55 11.25 30.5 M11.85 29.6 L12.2 28.95 Q13.5 30.1 14.15 31.7 L13.7 32.25 Q13.0 30.75 11.85 29.6 M11.25 31.05 L11.25 30.95 11.35 31.15 11.25 31.05 11.35 31.15 Q12.0 32.35 12.25 33.55 L11.9 34.1 Q11.6 32.7 10.55 31.65 L11.25 31.05 M10.15 32.85 L10.6 32.1 Q11.35 33.1 11.4 34.45 L11.2 35.2 Q11.0 33.8 10.15 32.85 M9.9 33.4 L10.65 35.4 10.3 36.45 Q9.9 35.15 9.0 34.1 L9.9 33.4 M8.55 35.25 L9.1 34.7 Q9.65 35.7 9.8 36.6 L9.55 37.6 Q9.35 36.35 8.55 35.25 M8.3 35.75 L9.1 37.85 8.85 39.0 Q8.55 37.55 7.65 36.25 L8.3 35.75 M7.5 36.85 Q8.15 38.1 8.3 39.1 L8.0 40.05 Q7.6 38.7 6.7 37.6 L7.5 36.85" fill="url(#gradient7)" fill-rule="evenodd" stroke="none"/>
      <path d="M5.5 40.0 Q5.2 39.4 5.3 38.8 L6.25 37.9 6.55 38.6 Q6.1 38.75 5.6 39.3 L5.5 40.0" fill="url(#gradient8)" fill-rule="evenodd" stroke="none"/>
      <path d="M7.7 40.75 L7.5 41.05 Q6.9 41.35 5.9 40.65 L5.5 40.0 5.6 39.3 Q6.1 38.75 6.55 38.6 L6.85 39.05 6.5 39.05 6.45 39.05 6.25 39.15 6.15 39.35 6.2 39.8 6.5 40.25 7.0 40.25 7.25 40.0 7.3 39.95 7.7 40.75" fill="url(#gradient9)" fill-rule="evenodd" stroke="none"/>
      <path d="M7.25 40.0 L7.0 40.25 6.5 40.25 6.2 39.8 6.15 39.35 6.25 39.15 6.3 39.2 6.3 39.65 6.55 39.95 6.95 40.0 7.2 39.7 7.2 39.5 7.2 39.45 7.3 39.8 7.25 40.0" fill="url(#gradient10)" fill-rule="evenodd" stroke="none"/>
      <path d="M13.55 27.1 L13.4 26.0 Q12.8 21.65 9.05 17.4 10.65 17.75 12.4 16.75 L12.6 17.3 Q12.85 18.2 13.7 18.65 14.45 19.2 15.35 19.1 16.1 18.9 16.45 18.15 16.85 17.35 16.5 16.4 16.15 15.5 15.35 15.0 L14.9 14.75 15.1 14.55 15.1 14.5 Q16.8 12.7 18.6 9.85 L18.75 9.6 19.65 10.6 Q20.5 11.15 21.3 10.95 22.1 10.85 22.5 10.05 22.8 9.25 22.5 8.35 22.15 7.45 21.35 6.85 L20.9 6.65 20.6 6.55 20.8 6.3 Q22.6 4.15 25.65 3.45 L27.0 3.3 27.3 3.25 Q27.05 3.85 27.15 4.45 L27.35 4.95 27.55 5.4 28.45 6.4 Q29.25 6.95 30.1 6.8 30.9 6.55 31.2 5.8 31.55 5.05 31.25 4.15 L31.1 3.85 31.5 3.95 Q32.85 4.5 34.25 5.4 36.4 6.8 37.85 8.7 L38.15 9.05 37.45 9.1 Q36.65 9.25 36.3 10.0 36.05 10.6 36.15 11.25 L36.3 11.75 36.5 12.1 Q36.85 12.8 37.45 13.15 38.25 13.7 39.1 13.55 L40.15 12.75 40.3 13.1 40.3 13.15 Q42.1 18.05 40.25 22.25 39.2 24.5 37.35 25.9 38.8 20.3 35.45 17.25 30.85 13.45 25.8 18.45 23.8 20.7 22.5 22.8 20.15 26.65 20.0 30.3 L19.6 29.95 Q18.35 29.1 17.1 29.3 L16.2 29.65 16.25 29.7 16.2 30.1 15.85 30.65 15.8 30.75 15.4 31.25 15.25 31.4 15.15 31.4 14.75 31.05 14.45 31.5 13.75 32.55 13.35 32.7 12.6 33.85 12.25 33.9 11.85 34.6 11.5 34.85 11.2 35.5 10.9 35.7 10.5 36.65 10.0 36.9 9.7 37.85 9.3 38.15 8.95 39.35 8.5 39.5 8.25 39.8 8.0 40.6 7.8 40.65 7.7 40.75 7.5 41.05 Q6.9 41.35 5.9 40.65 L5.5 40.0 Q5.2 39.4 5.3 38.8 L6.25 37.9 6.3 37.85 6.2 37.35 6.25 37.25 7.0 36.75 7.2 36.15 7.95 35.65 8.05 35.1 8.6 34.6 8.8 33.9 9.5 33.3 9.65 32.7 10.2 32.1 10.3 31.55 10.9 30.9 10.95 30.5 11.3 30.0 11.35 29.6 11.95 28.7 12.05 28.5 11.75 28.25 9.3 27.65 Q6.4 28.8 3.65 31.5 2.9 32.0 2.45 31.35 2.4 31.05 2.6 30.9 L3.5 31.05 Q5.85 28.3 9.05 26.2 L11.95 26.85 12.55 26.8 12.6 26.65 13.05 26.55 13.55 27.1 13.7 27.2 14.45 27.95 14.65 28.15 15.55 29.05 M15.95 29.4 L16.2 29.65 M15.95 29.4 L15.55 29.05 M12.6 29.0 L12.05 28.5 M11.7 29.9 L11.5 29.8 11.3 30.0 M11.25 31.05 L11.15 30.9 11.05 30.75 10.9 30.9 M14.3 30.55 L14.75 31.05 M14.3 30.55 L12.6 29.0 Q13.6 30.0 14.35 31.35 L14.45 31.5 M11.7 29.9 Q12.8 30.9 13.5 32.4 L13.35 32.7 M11.35 31.15 Q12.15 32.1 12.55 33.55 L12.25 33.9 M11.35 31.15 L11.25 31.05 M10.6 32.05 L10.55 32.0 10.4 31.95 10.2 32.1 M10.6 32.05 Q11.35 32.95 11.7 34.5 L11.5 34.85 M9.7 33.05 Q10.6 34.0 11.05 35.4 L10.9 35.7 M9.7 33.05 L9.5 33.3 M7.5 36.85 L7.4 36.7 7.3 36.55 7.0 36.75 M9.05 34.55 L9.0 34.5 8.9 34.3 8.6 34.6 M8.25 35.65 L8.2 35.55 8.1 35.45 8.1 35.4 7.95 35.65 M9.3 38.15 L9.35 37.9 Q9.0 36.55 8.25 35.65 M7.5 36.85 L8.65 39.15 8.5 39.5 M7.8 40.65 L7.9 40.45 Q7.25 38.9 6.4 37.65 L6.3 37.85 M9.05 34.55 Q9.75 35.4 10.15 36.7 L10.0 36.9" fill="none" stroke="#000000" stroke-linecap="round" stroke-linejoin="round" stroke-opacity="0.2" stroke-width="0.25"/>
      <path d="M30.0 10.65 Q31.15 10.65 32.35 11.15 L33.45 11.75 33.25 13.1 34.1 12.2 Q36.3 13.65 37.5 15.45 L37.15 15.85 37.75 15.85 Q38.65 17.35 38.95 19.15 39.15 21.75 37.75 24.75 L38.05 23.5 Q38.35 20.95 37.15 18.85 35.8 16.8 33.85 15.85 32.0 14.85 29.3 15.6 26.05 17.05 23.5 20.7 20.3 24.75 19.65 29.7 L18.1 28.05 Q16.75 24.35 18.65 21.1 L24.7 13.1 Q26.75 11.0 28.9 10.65 L29.65 12.3 30.0 10.65 30.1 10.5 M28.9 10.65 L28.75 10.55" fill="none" stroke="#ffffff" stroke-linecap="round" stroke-linejoin="round" stroke-opacity="0.4117647" stroke-width="1.0"/>
      <path d="M7.2 39.5 L7.2 39.7 6.95 40.0 6.55 39.95 6.3 39.65 6.3 39.2 6.45 39.05 6.5 39.05 6.85 39.05 6.9 39.05 7.05 39.2 7.05 39.3 7.1 39.4 7.2 39.5" fill="none" stroke="#000000" stroke-linecap="round" stroke-linejoin="round" stroke-opacity="0.4" stroke-width="0.05"/>
      <path d="M14.6 30.15 Q14.0 32.65 12.2 35.1 10.35 37.85 8.6 38.75 L5.95 38.85 Q5.0 37.85 5.55 35.35 6.3 32.75 8.0 30.4 9.7 27.95 11.5 26.8 L14.25 26.75 Q15.25 27.7 14.6 30.15" fill="url(#gradient11)" fill-rule="evenodd" stroke="none"/>
      <path d="M27.75 5.3 Q31.0 3.1 31.45 4.8 31.95 6.4 30.0 10.5 27.7 15.05 23.9 19.8 20.2 24.6 17.15 26.65 14.1 28.8 13.7 27.1 12.85 25.6 15.15 21.15 17.2 17.0 20.9 12.35 24.65 7.6 27.75 5.3" fill="url(#gradient12)" fill-rule="evenodd" stroke="none"/>
      <path d="M37.25 24.2 Q37.0 21.3 37.45 17.75 37.9 14.1 38.95 11.9 40.0 9.65 40.9 10.2 42.0 10.45 42.3 13.3 42.6 15.9 42.15 19.45 41.6 23.05 40.6 25.35 39.5 27.7 38.6 27.2 37.65 26.8 37.25 24.2" fill="url(#gradient13)" fill-rule="evenodd" stroke="none"/>
      <path d="M8.95 27.75 Q7.8 28.9 6.2 29.9 4.6 31.0 3.45 31.35 2.3 31.7 2.3 31.2 2.15 30.7 3.25 29.6 L5.85 27.5 Q7.5 26.5 8.7 26.1 L9.95 26.2 Q9.95 26.75 8.95 27.75" fill="url(#gradient14)" fill-rule="evenodd" stroke="none"/>
      <path d="M13.1 26.25 Q13.65 25.85 13.95 26.25 14.25 26.65 14.15 27.45 L13.55 29.25 12.45 30.45 11.6 30.4 Q11.3 30.0 11.4 29.15 11.55 28.35 12.05 27.5 12.5 26.6 13.1 26.25" fill="url(#gradient15)" fill-rule="evenodd" stroke="none"/>
    </g>
    <linearGradient gradientTransform="matrix(0.0071, -0.0052, 0.0093, 0.0127, 20.05, 22.65)" gradientUnits="userSpaceOnUse" id="gradient0" spreadMethod="pad" x1="-819.2" x2="819.2">
      <stop offset="0.0" stop-color="#ffffff"/>
      <stop offset="1.0" stop-color="#c4dde3"/>
    </linearGradient>
    <linearGradient gradientTransform="matrix(-0.012, 0.0089, -0.0091, -0.0124, 25.5, 18.55)" gradientUnits="userSpaceOnUse" id="gradient1" spreadMethod="pad" x1="-819.2" x2="819.2">
      <stop offset="0.0" stop-color="#94cfdc"/>
      <stop offset="1.0" stop-color="#ffffff"/>
    </linearGradient>
    <linearGradient gradientTransform="matrix(-0.0103, 0.006, -0.0055, -0.0088, 26.9, 21.25)" gradientUnits="userSpaceOnUse" id="gradient2" spreadMethod="pad" x1="-819.2" x2="819.2">
      <stop offset="0.0" stop-color="#284e6b"/>
      <stop offset="1.0" stop-color="#338c9f"/>
    </linearGradient>
    <linearGradient gradientTransform="matrix(1.0E-4, -0.0027, 0.0053, 0.0014, 14.0, 23.8)" gradientUnits="userSpaceOnUse" id="gradient3" spreadMethod="pad" x1="-819.2" x2="819.2">
      <stop offset="0.0" stop-color="#68bcce"/>
      <stop offset="1.0" stop-color="#b4c0c2"/>
    </linearGradient>
    <linearGradient gradientTransform="matrix(0.0083, -0.0027, 0.0016, 0.0036, 9.6, 29.35)" gradientUnits="userSpaceOnUse" id="gradient4" spreadMethod="pad" x1="-819.2" x2="819.2">
      <stop offset="0.0" stop-color="#f9f4e3"/>
      <stop offset="1.0" stop-color="#f2cf00"/>
    </linearGradient>
    <linearGradient gradientTransform="matrix(0.0038, 0.0021, -0.0017, 0.0052, 11.2, 31.25)" gradientUnits="userSpaceOnUse" id="gradient5" spreadMethod="pad" x1="-819.2" x2="819.2">
      <stop offset="0.0" stop-color="#ceac22"/>
      <stop offset="0.5882352941176471" stop-color="#e8cc65"/>
      <stop offset="1.0" stop-color="#a88400"/>
    </linearGradient>
    <linearGradient gradientTransform="matrix(-0.0035, 0.0049, -0.0018, -0.0016, 10.4, 34.15)" gradientUnits="userSpaceOnUse" id="gradient6" spreadMethod="pad" x1="-819.2" x2="819.2">
      <stop offset="0.0" stop-color="#663399"/>
      <stop offset="1.0" stop-color="#331a26"/>
    </linearGradient>
    <linearGradient gradientTransform="matrix(-0.0035, 0.0049, -0.0014, -0.0013, 10.2, 34.5)" gradientUnits="userSpaceOnUse" id="gradient7" spreadMethod="pad" x1="-819.2" x2="819.2">
      <stop offset="0.0" stop-color="#945fc9"/>
      <stop offset="1.0" stop-color="#773c59"/>
    </linearGradient>
    <linearGradient gradientTransform="matrix(4.0E-4, -6.0E-4, 4.0E-4, 4.0E-4, 6.0, 38.6)" gradientUnits="userSpaceOnUse" id="gradient8" spreadMethod="pad" x1="-819.2" x2="819.2">
      <stop offset="0.0" stop-color="#e7d030"/>
      <stop offset="1.0" stop-color="#f9f4e3"/>
    </linearGradient>
    <linearGradient gradientTransform="matrix(0.0017, 9.0E-4, -4.0E-4, 0.0013, 7.15, 40.15)" gradientUnits="userSpaceOnUse" id="gradient9" spreadMethod="pad" x1="-819.2" x2="819.2">
      <stop offset="0.0" stop-color="#ceac22"/>
      <stop offset="0.3764705882352941" stop-color="#685717"/>
      <stop offset="0.9725490196078431" stop-color="#e9da9e"/>
    </linearGradient>
    <linearGradient gradientTransform="matrix(4.0E-4, -5.0E-4, 6.0E-4, 5.0E-4, 6.7, 39.7)" gradientUnits="userSpaceOnUse" id="gradient10" spreadMethod="pad" x1="-819.2" x2="819.2">
      <stop offset="0.0" stop-color="#e7d030"/>
      <stop offset="1.0" stop-color="#f9f4e3"/>
    </linearGradient>
    <radialGradient cx="0" cy="0" gradientTransform="matrix(0.0066, -0.0096, 0.0034, 0.0037, 10.1, 32.7)" gradientUnits="userSpaceOnUse" id="gradient11" r="819.2" spreadMethod="pad">
      <stop offset="0.0" stop-color="#ffd6d6" stop-opacity="0.62352943"/>
      <stop offset="0.4117647058823529" stop-color="#ffffcc" stop-opacity="0.0"/>
    </radialGradient>
    <radialGradient cx="0" cy="0" gradientTransform="matrix(0.0024, 0.006, -0.0141, 0.0178, 22.5, 16.0)" gradientUnits="userSpaceOnUse" id="gradient12" r="819.2" spreadMethod="pad">
      <stop offset="0.0" stop-color="#ffffff" stop-opacity="0.62352943"/>
      <stop offset="0.4117647058823529" stop-color="#ffffcc" stop-opacity="0.0"/>
    </radialGradient>
    <radialGradient cx="0" cy="0" gradientTransform="matrix(-0.0037, -0.0014, 0.0019, -0.0135, 39.75, 18.65)" gradientUnits="userSpaceOnUse" id="gradient13" r="819.2" spreadMethod="pad">
      <stop offset="0.0" stop-color="#ffffff" stop-opacity="0.62352943"/>
      <stop offset="0.4117647058823529" stop-color="#ffffcc" stop-opacity="0.0"/>
    </radialGradient>
    <radialGradient cx="0" cy="0" gradientTransform="matrix(3.0E-4, 0.0019, -0.0061, 0.004, 6.05, 28.75)" gradientUnits="userSpaceOnUse" id="gradient14" r="819.2" spreadMethod="pad">
      <stop offset="0.0" stop-color="#ffffff" stop-opacity="0.62352943"/>
      <stop offset="0.4117647058823529" stop-color="#ffffcc" stop-opacity="0.0"/>
    </radialGradient>
    <radialGradient cx="0" cy="0" gradientTransform="matrix(0.0012, 0.0014, -0.0018, 0.0033, 12.8, 28.35)" gradientUnits="userSpaceOnUse" id="gradient15" r="819.2" spreadMethod="pad">
      <stop offset="0.0" stop-color="#ffffff" stop-opacity="0.62352943"/>
      <stop offset="0.4117647058823529" stop-color="#ffffcc" stop-opacity="0.0"/>
    </radialGradient>
  </defs>
</svg>
