<?xml version="1.0" encoding="UTF-8" standalone="no"?>
<svg xmlns:xlink="http://www.w3.org/1999/xlink" height="440.0px" width="440.0px" xmlns="http://www.w3.org/2000/svg">
  <g transform="matrix(10.0, 0.0, 0.0, 10.0, 0.0, 0.0)">
    <use height="44.0" transform="matrix(1.0, 0.0, 0.0, 1.0, 0.0, 0.0)" width="44.0" xlink:href="#shape0"/>
    <use height="118.65" transform="matrix(0.0642, 0.0, 0.0, 0.0642, 10.8293, 25.7032)" width="118.65" xlink:href="#shape1"/>
  </g>
  <defs>
    <g id="shape0" transform="matrix(1.0, 0.0, 0.0, 1.0, 0.0, 0.0)">
      <path d="M44.0 44.0 L0.0 44.0 0.0 0.0 44.0 0.0 44.0 44.0" fill="#33cc33" fill-opacity="0.0" fill-rule="evenodd" stroke="none"/>
      <path d="M31.7 3.4 L34.95 3.25 35.2 4.35 35.45 5.45 35.45 5.6 32.2 5.85 32.15 5.95 31.7 3.4 M40.5 6.3 L41.35 7.5 40.15 7.95 39.45 7.2 40.5 6.3 M40.15 10.95 L40.9 12.85 38.9 12.45 39.2 11.2 39.25 11.1 40.15 10.95" fill="#fff5cc" fill-rule="evenodd" stroke="none"/>
      <path d="M41.25 3.1 L40.5 6.3 39.45 7.2 39.25 6.95 39.3 5.25 41.25 3.1 M41.35 7.5 L40.15 10.95 39.25 11.1 40.15 7.95 41.35 7.5 M34.8 19.9 L33.85 20.3 31.85 22.2 31.05 21.75 29.7 20.9 30.1 20.95 31.55 20.2 31.95 20.9 34.8 19.9 M23.7 31.8 L22.6 35.1 19.35 32.85 21.45 30.8 21.55 30.85 22.5 31.25 23.7 31.8 M9.2 29.25 L10.05 28.4 10.15 28.4 11.5 28.0 11.05 30.1 9.2 29.25 M11.05 20.15 L14.8 17.55 14.75 18.7 11.85 20.75 11.8 20.9 11.05 20.15 M15.3 15.85 L18.3 14.85 18.6 15.45 18.85 15.75 17.35 18.15 16.25 17.4 15.3 15.85" fill="#ffea99" fill-rule="evenodd" stroke="none"/>
      <path d="M39.2 7.2 L39.25 6.95 39.45 7.2 39.2 7.2 39.45 7.2 39.1 7.25 39.2 7.2 M39.2 11.2 L38.5 8.5 39.1 7.25 39.45 7.2 40.15 7.95 39.25 11.1 39.2 11.2" fill="#a89a64" fill-rule="evenodd" stroke="none"/>
      <path d="M35.2 4.35 L36.9 3.25 35.45 5.45 35.2 4.35 M36.15 18.55 L34.8 19.9 31.95 20.9 31.55 20.2 31.8 20.15 32.05 19.8 33.95 18.4 36.15 18.55 M32.15 23.9 L27.9 26.45 26.85 25.4 28.9 23.7 32.15 23.9 M22.6 35.1 L18.1 34.85 18.6 34.05 19.35 32.85 22.6 35.1 M10.0 31.1 L9.2 29.25 11.05 30.1 10.85 30.8 10.9 31.65 10.8 31.75 10.0 31.1 M14.8 17.55 L15.3 15.85 16.25 17.4 14.75 18.7 14.8 17.55 M21.2 14.55 L21.55 11.3 22.8 13.15 22.0 15.65 21.55 15.15 21.2 14.55 M30.95 4.65 L31.7 3.4 32.15 5.95 32.45 7.15 31.35 6.35 30.95 4.65" fill="#998c5b" fill-rule="evenodd" stroke="none"/>
      <path d="M36.7 7.3 L36.8 7.2 36.7 7.3 35.95 7.25 36.8 7.2 36.85 7.3 36.7 7.3 M33.65 10.35 L33.7 10.25 34.5 10.25 33.65 10.35 M36.2 7.65 L36.45 7.65 32.85 10.45 36.2 7.65" fill="#a69a77" fill-rule="evenodd" stroke="none"/>
      <path d="M30.2 12.5 L29.7 13.0 30.55 12.2 32.85 10.45 33.65 10.35 29.5 13.15 28.95 13.5 29.0 13.35 30.2 12.5 M39.1 7.25 L38.35 7.25 39.2 7.2 39.1 7.25 M26.9 8.9 L26.85 8.9 26.9 8.8 26.9 8.9 M29.7 13.0 L29.5 13.15 29.7 13.0 M11.7 28.05 L12.5 28.25 12.4 28.4 11.65 28.05 11.55 28.05 11.5 28.0 11.15 24.35 11.6 28.0 11.7 28.05 M11.5 28.0 L11.6 28.0 11.5 28.0" fill="#998f6e" fill-rule="evenodd" stroke="none"/>
      <path d="M36.85 7.3 L36.8 7.2 37.2 7.25 37.5 7.25 39.2 7.2 38.35 7.25 37.35 7.3 37.15 7.3 36.85 7.3 M37.5 7.25 L38.35 7.25 37.5 7.25 M14.3 20.3 L17.7 21.15 13.95 20.3 14.3 20.3" fill="#b0a169" fill-rule="evenodd" stroke="none"/>
      <path d="M36.7 7.3 L36.85 7.3 37.15 7.3 37.35 7.3 36.45 7.65 36.2 7.65 35.15 7.8 30.55 12.2 29.7 13.0 30.2 12.5 35.05 7.25 35.45 5.6 35.95 7.25 36.7 7.3 36.2 7.65 36.7 7.3 M23.55 19.7 L24.35 20.2 25.9 19.25 24.55 20.6 23.9 26.75 23.95 23.8 24.0 20.8 23.65 20.05 23.6 19.75 23.55 19.7 M12.5 28.25 L15.8 28.8 17.5 27.55 16.1 29.6 15.4 32.75 15.3 33.45 15.05 34.55 15.05 33.45 15.2 32.6 15.4 29.65 12.4 28.4 12.5 28.25" fill="#756b46" fill-rule="evenodd" stroke="none"/>
      <path d="M31.85 22.2 L32.0 22.25 32.15 23.9 28.9 23.7 31.05 21.75 31.85 22.2 M18.1 34.85 L15.05 34.55 13.3 34.4 11.25 36.8 10.3 36.9 9.6 38.0 7.65 39.05 8.1 40.3 7.35 40.65 6.45 40.35 6.35 40.35 6.45 40.35 6.35 40.35 6.95 38.7 9.5 36.5 11.95 34.45 12.05 34.15 15.05 33.45 15.05 34.55 15.3 33.45 16.55 33.2 18.6 34.05 18.1 34.85 M5.2 37.1 L6.15 35.15 6.75 35.1 6.85 34.2 10.0 31.1 10.8 31.75 7.65 35.5 6.75 35.1 7.65 35.5 5.5 37.95 5.2 37.1 M10.05 28.4 L10.15 28.35 10.15 28.4 10.05 28.4 M18.3 14.85 L18.9 14.35 21.2 14.55 21.55 15.15 18.65 15.35 18.6 15.45 18.3 14.85 M26.65 7.6 L26.5 6.3 30.95 4.65 31.35 6.35 31.2 6.5 27.85 8.3 27.25 7.35 27.15 7.15 26.6 6.5 26.65 7.6 M26.5 6.3 L27.15 7.15 26.5 6.3 M10.3 36.9 L9.5 36.5 10.3 36.9" fill="#e0cd86" fill-rule="evenodd" stroke="none"/>
      <path d="M25.95 7.9 L26.65 7.6 26.65 8.8 25.95 7.9 M31.2 6.5 L31.35 6.35 32.45 7.15 28.85 11.6 28.2 8.8 27.85 8.3 26.6 6.5 27.15 7.15 27.25 7.35 27.85 8.3 31.2 6.5 M26.85 8.9 L26.9 8.9 27.8 9.0 28.6 11.8 27.6 11.35 27.65 11.65 22.85 13.0 26.85 8.9 M21.55 15.15 L22.0 15.65 23.55 19.7 23.6 19.75 23.55 19.8 21.35 16.05 19.9 16.1 19.35 16.65 21.1 17.1 17.1 19.8 14.3 20.3 13.95 20.3 17.7 21.15 21.2 21.85 20.85 21.9 20.75 21.9 12.7 25.3 12.9 22.5 12.75 22.3 12.05 20.95 14.75 18.7 16.25 17.4 17.35 18.15 18.85 15.75 18.6 15.45 18.65 15.35 21.55 15.15 M28.15 23.65 L31.05 21.75 28.9 23.7 28.15 23.65 M33.95 18.4 L32.05 19.8 36.3 15.65 33.95 18.4" fill="#c9b878" fill-rule="evenodd" stroke="none"/>
      <path d="M11.55 28.05 L11.65 28.05 11.6 28.35 11.55 28.05" fill="#82774e" fill-rule="evenodd" stroke="none"/>
      <path d="M10.9 31.65 L11.0 31.75 10.8 31.75 10.9 31.65 M5.5 37.95 L5.5 38.0 5.45 38.0 5.5 37.95" fill="#a19574" fill-rule="evenodd" stroke="none"/>
      <path d="M23.65 20.05 L23.55 19.8 23.6 19.75 23.65 20.05" fill="#ccbf93" fill-rule="evenodd" stroke="none"/>
      <path d="M7.35 40.65 L7.5 41.35 7.0 42.15 5.3 42.95 2.05 42.4 1.6 39.15 2.35 37.5 4.45 36.9 5.2 37.1 5.5 37.95 5.45 38.0 3.45 38.35 2.7 39.55 2.85 41.6 5.7 42.1 6.45 40.45 6.35 40.35 6.45 40.35 7.35 40.65 M6.45 40.45 L6.45 40.35 6.45 40.45" fill="#fae596" fill-rule="evenodd" stroke="none"/>
      <path d="M36.9 3.25 L41.25 3.1 39.3 5.25 35.45 5.6 35.45 5.45 36.9 3.25" fill="url(#gradient0)" fill-rule="evenodd" stroke="none"/>
      <path d="M40.9 12.85 L37.2 15.85 36.3 15.65 38.9 12.45 40.9 12.85" fill="url(#gradient1)" fill-rule="evenodd" stroke="none"/>
      <path d="M37.5 7.25 L37.2 7.25 36.8 7.2 35.95 7.25 35.45 5.6 39.3 5.25 39.25 6.95 39.2 7.2 37.5 7.25" fill="url(#gradient2)" fill-rule="evenodd" stroke="none"/>
      <path d="M32.15 5.95 L32.2 5.85 35.45 5.6 35.05 7.25 32.45 7.15 32.15 5.95" fill="url(#gradient3)" fill-rule="evenodd" stroke="none"/>
      <path d="M30.55 12.2 L35.15 7.8 36.2 7.65 32.85 10.45 30.55 12.2" fill="url(#gradient4)" fill-rule="evenodd" stroke="none"/>
      <path d="M35.05 7.25 L30.2 12.5 29.0 13.35 28.95 13.5 29.5 13.15 33.65 10.35 34.5 10.25 35.15 10.2 35.55 10.15 36.85 10.05 37.1 9.95 38.9 12.45 37.5 12.85 36.15 14.85 32.6 17.65 26.9 18.3 28.55 14.4 26.1 19.6 24.25 15.6 24.5 12.85 27.7 11.85 27.65 11.65 27.6 11.35 28.6 11.8 27.8 9.0 26.9 8.9 26.9 8.8 26.85 8.9 26.65 8.8 26.65 7.6 26.6 6.5 27.85 8.3 28.2 8.8 28.85 11.6 32.45 7.15 35.05 7.25" fill="url(#gradient5)" fill-rule="evenodd" stroke="none"/>
      <path d="M37.35 7.3 L38.35 7.25 39.1 7.25 38.5 8.5 39.2 11.2 38.9 12.45 37.1 9.95 36.85 10.05 35.55 10.15 35.15 10.2 34.5 10.25 33.7 10.25 33.65 10.35 32.85 10.45 36.45 7.65 37.35 7.3" fill="url(#gradient6)" fill-rule="evenodd" stroke="none"/>
      <path d="M21.55 11.3 L25.95 7.9 26.65 8.8 26.85 8.9 22.85 13.0 22.8 13.15 21.55 11.3" fill="url(#gradient7)" fill-rule="evenodd" stroke="none"/>
      <path d="M26.1 19.6 L28.55 14.4 26.9 18.3 25.0 22.7 24.7 23.05 24.85 22.45 26.1 19.6" fill="url(#gradient8)" fill-rule="evenodd" stroke="none"/>
      <path d="M22.85 13.0 L27.65 11.65 27.7 11.85 24.5 12.85 24.25 15.6 26.1 19.6 25.9 19.25 23.35 15.9 23.1 13.55 22.0 15.65 22.8 13.15 22.85 13.0" fill="url(#gradient9)" fill-rule="evenodd" stroke="none"/>
      <path d="M26.9 18.3 L32.6 17.65 36.15 14.85 37.5 12.85 38.9 12.45 36.3 15.65 32.55 18.1 26.9 18.3" fill="url(#gradient10)" fill-rule="evenodd" stroke="none"/>
      <path d="M23.9 26.75 L24.7 23.05 25.0 22.7 26.9 18.3 32.55 18.1 36.3 15.65 32.05 19.8 31.8 20.15 31.55 20.2 30.1 20.95 29.7 20.9 31.05 21.75 28.15 23.65 27.85 23.75 26.75 23.65 24.9 26.25 23.45 27.35 22.85 25.95 22.6 25.15 23.95 23.8 23.9 26.75" fill="url(#gradient11)" fill-rule="evenodd" stroke="none"/>
      <path d="M37.2 15.85 L36.15 18.55 33.95 18.4 36.3 15.65 37.2 15.85" fill="url(#gradient12)" fill-rule="evenodd" stroke="none"/>
      <path d="M23.0 27.6 L22.0 25.3 22.85 25.95 23.45 27.35 24.9 26.25 26.75 23.65 27.85 23.75 28.15 23.65 28.9 23.7 26.85 25.4 22.5 31.25 21.55 30.85 21.45 30.8 19.35 32.85 18.6 34.05 16.55 33.2 18.45 33.35 18.65 32.1 21.1 30.1 19.55 28.85 20.95 29.5 21.75 28.85 22.35 30.45 23.75 28.45 23.0 27.6" fill="url(#gradient13)" fill-rule="evenodd" stroke="none"/>
      <path d="M27.9 26.45 L23.7 31.8 22.5 31.25 26.85 25.4 27.9 26.45" fill="url(#gradient14)" fill-rule="evenodd" stroke="none"/>
      <path d="M23.65 20.05 L24.0 20.8 23.95 23.8 22.6 25.15 22.85 25.95 22.0 25.3 23.0 27.6 18.05 27.05 17.5 27.55 15.8 28.8 12.5 28.25 12.75 22.45 12.9 22.5 12.7 25.3 20.75 21.9 20.85 21.9 21.2 21.85 17.7 21.15 14.3 20.3 17.1 19.8 21.1 17.1 19.35 16.65 19.9 16.1 21.35 16.05 23.55 19.8 23.65 20.05" fill="url(#gradient15)" fill-rule="evenodd" stroke="none"/>
      <path d="M22.0 15.65 L23.1 13.55 23.35 15.9 25.9 19.25 24.35 20.2 23.55 19.7 22.0 15.65" fill="url(#gradient16)" fill-rule="evenodd" stroke="none"/>
      <path d="M14.75 18.7 L12.05 20.95 12.75 22.3 12.75 22.45 11.7 28.05 11.6 28.0 11.15 24.35 11.0 23.1 11.8 20.9 11.85 20.75 14.75 18.7" fill="url(#gradient17)" fill-rule="evenodd" stroke="none"/>
      <path d="M10.15 28.35 L9.1 23.55 11.05 20.15 11.8 20.9 11.0 23.1 11.15 24.35 11.5 28.0 10.15 28.4 10.15 28.35" fill="url(#gradient18)" fill-rule="evenodd" stroke="none"/>
      <path d="M12.75 22.45 L12.5 28.25 11.7 28.05 12.75 22.45" fill="url(#gradient19)" fill-rule="evenodd" stroke="none"/>
      <path d="M11.5 28.0 L11.55 28.05 11.6 28.35 11.65 28.05 12.4 28.4 10.85 30.8 11.05 30.1 11.5 28.0" fill="url(#gradient20)" fill-rule="evenodd" stroke="none"/>
      <path d="M12.4 28.4 L15.4 29.65 15.2 32.6 13.1 31.75 12.05 34.15 11.95 34.45 11.0 31.75 10.9 31.65 10.85 30.8 12.4 28.4" fill="url(#gradient21)" fill-rule="evenodd" stroke="none"/>
      <path d="M11.0 31.75 L11.95 34.45 9.5 36.5 7.65 35.5 10.8 31.75 11.0 31.75" fill="url(#gradient22)" fill-rule="evenodd" stroke="none"/>
      <path d="M15.2 32.6 L15.05 33.45 12.05 34.15 13.1 31.75 15.2 32.6" fill="url(#gradient23)" fill-rule="evenodd" stroke="none"/>
      <path d="M25.9 19.25 L26.1 19.6 24.85 22.45 24.7 23.05 23.9 26.75 24.55 20.6 25.9 19.25" fill="url(#gradient24)" fill-rule="evenodd" stroke="none"/>
      <path d="M17.5 27.55 L18.05 27.05 23.0 27.6 23.75 28.45 22.35 30.45 21.75 28.85 20.95 29.5 19.55 28.85 21.1 30.1 18.65 32.1 18.45 33.35 16.55 33.2 15.4 32.75 16.1 29.6 17.5 27.55" fill="url(#gradient25)" fill-rule="evenodd" stroke="none"/>
      <path d="M15.3 33.45 L15.4 32.75 16.55 33.2 15.3 33.45" fill="url(#gradient26)" fill-rule="evenodd" stroke="none"/>
      <path d="M5.5 38.0 L5.5 37.95 7.65 35.5 9.5 36.5 6.95 38.7 6.35 40.35 5.5 38.0" fill="url(#gradient27)" fill-rule="evenodd" stroke="none"/>
      <path d="M5.5 38.0 L6.35 40.35 6.45 40.45 5.7 42.1 2.85 41.6 2.7 39.55 3.45 38.35 5.45 38.0 5.5 38.0" fill="url(#gradient28)" fill-rule="evenodd" stroke="none"/>
      <path d="M31.7 3.4 L34.95 3.25 M35.2 4.35 L36.9 3.25 41.25 3.1 40.5 6.3 41.35 7.5 40.15 10.95 40.9 12.85 37.2 15.85 36.15 18.55 34.8 19.9 33.85 20.3 31.85 22.2 32.0 22.25 32.15 23.9 27.9 26.45 23.7 31.8 22.6 35.1 M18.1 34.85 L15.05 34.55 13.3 34.4 11.25 36.8 10.3 36.9 9.6 38.0 7.65 39.05 8.1 40.3 7.35 40.65 7.5 41.35 7.0 42.15 5.3 42.95 M1.6 39.15 L2.35 37.5 4.45 36.9 5.2 37.1 6.15 35.15 6.75 35.1 6.85 34.2 10.0 31.1 9.2 29.25 10.05 28.4 10.15 28.35 9.1 23.55 11.05 20.15 14.8 17.55 15.3 15.85 18.3 14.85 18.9 14.35 21.2 14.55 21.55 11.3 25.95 7.9 26.65 7.6 26.5 6.3 30.95 4.65 31.7 3.4 32.15 5.95 32.45 7.15 M35.45 5.6 L35.45 5.45 M36.8 7.2 L36.7 7.3 36.85 7.3 37.15 7.3 M36.8 7.2 L37.2 7.25 37.5 7.25 M35.45 5.6 L35.95 7.25 M36.7 7.3 L35.95 7.25 M38.35 7.25 L37.5 7.25 M35.45 5.6 L35.05 7.25 30.2 12.5 29.7 13.0 30.55 12.2 35.15 7.8 36.2 7.65 36.7 7.3 M32.85 10.45 L33.65 10.35 34.5 10.25 35.15 10.2 35.55 10.15 36.85 10.05 M39.1 7.25 L38.35 7.25 M39.45 7.2 L39.25 6.95 M36.45 7.65 L36.2 7.65 32.85 10.45 M36.45 7.65 L37.35 7.3 M39.45 7.2 L39.1 7.25 M40.15 7.95 L41.35 7.5 M39.45 7.2 L40.15 7.95 39.25 11.1 40.15 10.95 M40.5 6.3 L39.45 7.2 M31.2 6.5 L31.35 6.35 30.95 4.65 M27.15 7.15 L26.5 6.3 M27.15 7.15 L27.25 7.35 27.85 8.3 28.2 8.8 M29.5 13.15 L29.7 13.0 M21.55 11.3 L22.8 13.15 M23.55 19.7 L24.35 20.2 25.9 19.25 24.55 20.6 23.9 26.75 M23.95 23.8 L24.0 20.8 23.65 20.05 23.55 19.8 M12.5 28.25 L15.8 28.8 17.5 27.55 18.05 27.05 23.0 27.6 M23.95 23.8 L23.9 26.75 M27.85 23.75 L28.15 23.65 28.9 23.7 32.15 23.9 M36.3 15.65 L37.2 15.85 M33.95 18.4 L36.15 18.55 M18.6 15.45 L18.85 15.75 M12.75 22.3 L12.9 22.5 M18.6 15.45 L18.3 14.85 M15.3 15.85 L16.25 17.4 M11.8 20.9 L11.85 20.75 14.75 18.7 14.8 17.55 M11.0 23.1 L11.8 20.9 11.05 20.15 M11.7 28.05 L12.5 28.25 M12.4 28.4 L15.4 29.65 15.2 32.6 15.05 33.45 15.05 34.55 15.3 33.45 15.4 32.75 16.1 29.6 17.5 27.55 M11.7 28.05 L11.6 28.0 11.5 28.0 11.55 28.05 11.65 28.05 12.4 28.4 M10.9 31.65 L11.0 31.75 11.95 34.45 M10.15 28.4 L11.5 28.0 M10.15 28.4 L10.05 28.4 M9.2 29.25 L11.05 30.1 M10.8 31.75 L11.0 31.75 M10.8 31.75 L10.0 31.1 M9.5 36.5 L10.3 36.9 M6.75 35.1 L7.65 35.5 M5.5 37.95 L5.2 37.1 M5.5 37.95 L5.5 38.0 6.35 40.35 6.45 40.35 7.35 40.65 M9.5 36.5 L7.65 35.5 M3.45 38.35 L2.7 39.55 2.85 41.6 5.7 42.1 M6.35 40.35 L6.45 40.35 6.45 40.45" fill="none" stroke="#6f6144" stroke-linecap="round" stroke-linejoin="round" stroke-opacity="0.3019608" stroke-width="0.05"/>
      <path d="M39.2 7.2 L39.45 7.2" fill="none" stroke="#706145" stroke-linecap="round" stroke-linejoin="round" stroke-opacity="0.53333336" stroke-width="0.05"/>
      <path d="M30.9 6.5 L31.55 5.15 31.7 6.2 30.9 6.5 M28.5 7.25 L29.2 7.1 27.55 7.75 27.1 5.85 28.5 7.25 M37.95 9.3 L39.15 10.2 38.05 10.8 37.95 9.3 M23.7 14.2 L26.95 19.9 25.95 15.35 28.55 15.7 28.1 16.15 28.55 15.75 28.55 16.05 36.7 15.1 Q34.25 21.1 31.95 20.0 L30.6 19.4 31.2 20.45 31.1 21.85 27.65 24.35 26.6 23.3 24.0 24.05 26.35 23.8 26.85 25.2 21.6 28.55 18.45 27.25 16.3 32.6 15.1 30.05 11.8 28.55 10.9 29.95 11.05 24.55 11.4 23.1 13.15 22.45 22.5 21.45 16.35 19.75 18.05 19.6 19.8 17.15 19.3 16.65 20.85 17.1 19.7 16.0 20.8 15.3 25.05 21.0 22.8 15.1 23.7 14.2" fill="#000000" fill-opacity="0.2" fill-rule="evenodd" stroke="none"/>
      <path d="M2.55 39.3 L3.45 37.55 5.95 36.8 10.35 31.6 12.65 34.05 7.85 38.2 6.9 41.0 5.05 41.9 3.2 41.45 2.55 39.3" fill="url(#gradient29)" fill-rule="evenodd" stroke="none"/>
    </g>
    <linearGradient gradientTransform="matrix(-0.0036, 0.001, -4.0E-4, -0.0015, 36.55, 4.7)" gradientUnits="userSpaceOnUse" id="gradient0" spreadMethod="pad" x1="-819.2" x2="819.2">
      <stop offset="0.0" stop-color="#ffea99"/>
      <stop offset="1.0" stop-color="#998c5b"/>
    </linearGradient>
    <linearGradient gradientTransform="matrix(0.0017, -0.0017, 7.0E-4, 7.0E-4, 38.45, 14.1)" gradientUnits="userSpaceOnUse" id="gradient1" spreadMethod="pad" x1="-819.2" x2="819.2">
      <stop offset="0.0" stop-color="#ffea99"/>
      <stop offset="1.0" stop-color="#998c5b"/>
    </linearGradient>
    <linearGradient gradientTransform="matrix(0.0026, -0.0015, 0.001, 0.0017, 38.55, 5.65)" gradientUnits="userSpaceOnUse" id="gradient2" spreadMethod="pad" x1="-819.2" x2="819.2">
      <stop offset="0.0" stop-color="#ffea99"/>
      <stop offset="1.0" stop-color="#998c5b"/>
    </linearGradient>
    <linearGradient gradientTransform="matrix(-0.0028, 0.0035, -0.0014, -0.0011, 31.45, 9.3)" gradientUnits="userSpaceOnUse" id="gradient3" spreadMethod="pad" x1="-819.2" x2="819.2">
      <stop offset="0.0" stop-color="#ffea99"/>
      <stop offset="1.0" stop-color="#998c5b"/>
    </linearGradient>
    <linearGradient gradientTransform="matrix(-0.0026, 0.0026, -4.0E-4, -4.0E-4, 32.4, 10.95)" gradientUnits="userSpaceOnUse" id="gradient4" spreadMethod="pad" x1="-819.2" x2="819.2">
      <stop offset="0.0" stop-color="#ffea99"/>
      <stop offset="1.0" stop-color="#998c5b"/>
    </linearGradient>
    <linearGradient gradientTransform="matrix(-0.0068, 0.0082, -0.0062, -0.0052, 28.05, 15.15)" gradientUnits="userSpaceOnUse" id="gradient5" spreadMethod="pad" x1="-819.2" x2="819.2">
      <stop offset="0.0" stop-color="#ffea99"/>
      <stop offset="1.0" stop-color="#998c5b"/>
    </linearGradient>
    <linearGradient gradientTransform="matrix(9.0E-4, 0.0034, -0.0041, 0.0011, 36.6, 11.2)" gradientUnits="userSpaceOnUse" id="gradient6" spreadMethod="pad" x1="-819.2" x2="819.2">
      <stop offset="0.0" stop-color="#ffea99"/>
      <stop offset="1.0" stop-color="#998c5b"/>
    </linearGradient>
    <linearGradient gradientTransform="matrix(-0.002, 0.002, -0.001, -0.001, 23.3, 11.1)" gradientUnits="userSpaceOnUse" id="gradient7" spreadMethod="pad" x1="-819.2" x2="819.2">
      <stop offset="0.0" stop-color="#ffea99"/>
      <stop offset="1.0" stop-color="#998c5b"/>
    </linearGradient>
    <linearGradient gradientTransform="matrix(0.0017, -0.003, 6.0E-4, 3.0E-4, 26.2, 19.55)" gradientUnits="userSpaceOnUse" id="gradient8" spreadMethod="pad" x1="-819.2" x2="819.2">
      <stop offset="0.0" stop-color="#ffea99"/>
      <stop offset="1.0" stop-color="#998c5b"/>
    </linearGradient>
    <linearGradient gradientTransform="matrix(0.0037, 0.0, 0.0, 0.0048, 27.0, 15.65)" gradientUnits="userSpaceOnUse" id="gradient9" spreadMethod="pad" x1="-819.2" x2="819.2">
      <stop offset="0.0" stop-color="#ffea99"/>
      <stop offset="1.0" stop-color="#998c5b"/>
    </linearGradient>
    <linearGradient gradientTransform="matrix(-0.0034, 0.0034, -0.0021, -0.0021, 33.05, 15.5)" gradientUnits="userSpaceOnUse" id="gradient10" spreadMethod="pad" x1="-819.2" x2="819.2">
      <stop offset="0.0" stop-color="#ffea99"/>
      <stop offset="1.0" stop-color="#998c5b"/>
    </linearGradient>
    <linearGradient gradientTransform="matrix(-0.005, 0.005, -0.0024, -0.0024, 22.65, 26.4)" gradientUnits="userSpaceOnUse" id="gradient11" spreadMethod="pad" x1="-819.2" x2="819.2">
      <stop offset="0.0" stop-color="#ffea99"/>
      <stop offset="1.0" stop-color="#998c5b"/>
    </linearGradient>
    <linearGradient gradientTransform="matrix(-4.0E-4, 0.0016, -0.0015, -4.0E-4, 35.6, 17.0)" gradientUnits="userSpaceOnUse" id="gradient12" spreadMethod="pad" x1="-819.2" x2="819.2">
      <stop offset="0.0" stop-color="#ffea99"/>
      <stop offset="1.0" stop-color="#998c5b"/>
    </linearGradient>
    <linearGradient gradientTransform="matrix(-0.0022, 0.0039, -0.0031, -0.0018, 22.65, 28.45)" gradientUnits="userSpaceOnUse" id="gradient13" spreadMethod="pad" x1="-819.2" x2="819.2">
      <stop offset="0.0" stop-color="#ffea99"/>
      <stop offset="1.0" stop-color="#998c5b"/>
    </linearGradient>
    <linearGradient gradientTransform="matrix(0.001, 0.001, -0.0031, 0.0031, 25.15, 28.75)" gradientUnits="userSpaceOnUse" id="gradient14" spreadMethod="pad" x1="-819.2" x2="819.2">
      <stop offset="0.0" stop-color="#ffea99"/>
      <stop offset="1.0" stop-color="#998c5b"/>
    </linearGradient>
    <linearGradient gradientTransform="matrix(-0.004, 0.0088, -0.0063, -0.0029, 17.25, 26.25)" gradientUnits="userSpaceOnUse" id="gradient15" spreadMethod="pad" x1="-819.2" x2="819.2">
      <stop offset="0.0" stop-color="#ffea99"/>
      <stop offset="1.0" stop-color="#998c5b"/>
    </linearGradient>
    <linearGradient gradientTransform="matrix(-0.0011, -0.0041, 0.0016, -4.0E-4, 23.45, 15.85)" gradientUnits="userSpaceOnUse" id="gradient16" spreadMethod="pad" x1="-819.2" x2="819.2">
      <stop offset="0.0" stop-color="#ffea99"/>
      <stop offset="1.0" stop-color="#998c5b"/>
    </linearGradient>
    <linearGradient gradientTransform="matrix(0.0, -0.0021, 0.0023, 0.0, 12.85, 24.6)" gradientUnits="userSpaceOnUse" id="gradient17" spreadMethod="pad" x1="-819.2" x2="819.2">
      <stop offset="0.0" stop-color="#ffea99"/>
      <stop offset="1.0" stop-color="#998c5b"/>
    </linearGradient>
    <linearGradient gradientTransform="matrix(4.0E-4, 0.0031, -0.0019, 2.0E-4, 10.9, 26.2)" gradientUnits="userSpaceOnUse" id="gradient18" spreadMethod="pad" x1="-819.2" x2="819.2">
      <stop offset="0.0" stop-color="#ffea99"/>
      <stop offset="1.0" stop-color="#998c5b"/>
    </linearGradient>
    <linearGradient gradientTransform="matrix(0.001, -0.0036, 7.0E-4, 2.0E-4, 12.9, 24.2)" gradientUnits="userSpaceOnUse" id="gradient19" spreadMethod="pad" x1="-819.2" x2="819.2">
      <stop offset="0.0" stop-color="#ffea99"/>
      <stop offset="1.0" stop-color="#998c5b"/>
    </linearGradient>
    <linearGradient gradientTransform="matrix(-0.0016, 0.0028, -5.0E-4, -3.0E-4, 10.15, 31.35)" gradientUnits="userSpaceOnUse" id="gradient20" spreadMethod="pad" x1="-819.2" x2="819.2">
      <stop offset="0.0" stop-color="#ffea99"/>
      <stop offset="1.0" stop-color="#998c5b"/>
    </linearGradient>
    <linearGradient gradientTransform="matrix(0.0043, -0.0043, 0.0021, 0.0021, 15.7, 28.6)" gradientUnits="userSpaceOnUse" id="gradient21" spreadMethod="pad" x1="-819.2" x2="819.2">
      <stop offset="0.0" stop-color="#ffea99"/>
      <stop offset="1.0" stop-color="#998c5b"/>
    </linearGradient>
    <linearGradient gradientTransform="matrix(0.0014, -0.0014, 0.0012, 0.0012, 10.65, 33.8)" gradientUnits="userSpaceOnUse" id="gradient22" spreadMethod="pad" x1="-819.2" x2="819.2">
      <stop offset="0.0" stop-color="#ffea99"/>
      <stop offset="1.0" stop-color="#998c5b"/>
    </linearGradient>
    <linearGradient gradientTransform="matrix(-0.0021, 0.0012, -8.0E-4, -0.0013, 12.55, 33.5)" gradientUnits="userSpaceOnUse" id="gradient23" spreadMethod="pad" x1="-819.2" x2="819.2">
      <stop offset="0.0" stop-color="#ffea99"/>
      <stop offset="1.0" stop-color="#998c5b"/>
    </linearGradient>
    <linearGradient gradientTransform="matrix(-0.0013, 0.0049, -7.0E-4, -2.0E-4, 24.15, 24.7)" gradientUnits="userSpaceOnUse" id="gradient24" spreadMethod="pad" x1="-819.2" x2="819.2">
      <stop offset="0.0" stop-color="#ffea99"/>
      <stop offset="1.0" stop-color="#998c5b"/>
    </linearGradient>
    <linearGradient gradientTransform="matrix(0.0042, -0.006, 0.0029, 0.002, 22.0, 26.15)" gradientUnits="userSpaceOnUse" id="gradient25" spreadMethod="pad" x1="-819.2" x2="819.2">
      <stop offset="0.0" stop-color="#ffea99"/>
      <stop offset="1.0" stop-color="#998c5b"/>
    </linearGradient>
    <linearGradient gradientTransform="matrix(0.0015, -0.0015, 5.0E-4, 5.0E-4, 16.8, 32.05)" gradientUnits="userSpaceOnUse" id="gradient26" spreadMethod="pad" x1="-819.2" x2="819.2">
      <stop offset="0.0" stop-color="#ffea99"/>
      <stop offset="1.0" stop-color="#998c5b"/>
    </linearGradient>
    <linearGradient gradientTransform="matrix(0.0014, -0.0014, 0.0011, 0.0011, 7.85, 37.15)" gradientUnits="userSpaceOnUse" id="gradient27" spreadMethod="pad" x1="-819.2" x2="819.2">
      <stop offset="0.0" stop-color="#ffea99"/>
      <stop offset="1.0" stop-color="#998c5b"/>
    </linearGradient>
    <linearGradient gradientTransform="matrix(0.0019, -0.0019, 0.0018, 0.0018, 5.35, 39.45)" gradientUnits="userSpaceOnUse" id="gradient28" spreadMethod="pad" x1="-819.2" x2="819.2">
      <stop offset="0.0" stop-color="#ffea99"/>
      <stop offset="1.0" stop-color="#998c5b"/>
    </linearGradient>
    <linearGradient gradientTransform="matrix(0.0021, 0.0021, -0.0055, 0.0055, 7.1, 37.35)" gradientUnits="userSpaceOnUse" id="gradient29" spreadMethod="pad" x1="-819.2" x2="819.2">
      <stop offset="0.0" stop-color="#000000" stop-opacity="0.0"/>
      <stop offset="1.0" stop-color="#000000"/>
    </linearGradient>
    <g id="shape1" transform="matrix(1.0, 0.0, 0.0, 1.0, 12.0, 10.85)">
      <path d="M85.7 -4.5 L85.65 -4.3 84.85 -4.5 85.7 -4.5" fill="#41354d" fill-rule="evenodd" stroke="none"/>
      <path d="M-3.4 79.05 L-3.95 78.1 -3.7 78.05 -3.4 79.05" fill="#f7dc91" fill-rule="evenodd" stroke="none"/>
      <path d="M-3.95 78.1 L-3.7 78.05 -3.95 78.1" fill="#554564" fill-rule="evenodd" stroke="none"/>
      <path d="M-3.7 78.05 L-3.4 79.05 -3.7 78.05" fill="#9e810c" fill-rule="evenodd" stroke="none"/>
      <path d="M-3.95 78.1 Q-16.2 56.85 -9.85 33.15 -3.5 9.5 17.7 -2.75 38.95 -15.05 62.6 -8.7 86.3 -2.35 98.55 18.9 102.1 25.0 104.1 31.3 91.65 9.5 68.05 1.0 44.3 -7.5 22.6 6.2 0.8 19.95 -3.85 41.45 -8.35 62.45 -3.7 78.05 L-3.95 78.1" fill="#ffea99" fill-rule="evenodd" stroke="none"/>
      <path d="M104.1 31.3 Q109.0 46.95 104.5 63.8 98.15 87.5 76.9 99.75 55.65 112.0 31.95 105.65 8.8 99.45 -3.4 79.05 L-3.7 78.05 Q-8.35 62.45 -3.85 41.45 0.8 19.95 22.6 6.2 44.3 -7.5 68.05 1.0 91.65 9.5 104.1 31.3" fill="#998c5b" fill-rule="evenodd" stroke="none"/>
      <path d="M-3.95 78.1 Q-16.2 56.85 -9.85 33.15 -3.5 9.5 17.7 -2.75 38.95 -15.05 62.6 -8.7 86.3 -2.35 98.55 18.9 102.1 25.0 104.1 31.3 109.0 46.95 104.5 63.8 98.15 87.5 76.9 99.75 55.65 112.0 31.95 105.65 8.8 99.45 -3.4 79.05 L-3.95 78.1 Z" fill="none" stroke="#000000" stroke-linecap="round" stroke-linejoin="round" stroke-opacity="0.15294118" stroke-width="0.05"/>
      <path d="M90.45 62.1 Q85.6 80.3 69.3 89.8 57.4 96.6 44.6 95.9 L44.35 95.9 Q39.6 95.65 34.7 94.35 16.45 89.45 7.05 73.15 3.05 66.25 1.6 59.1 -0.35 49.15 2.45 38.55 3.55 34.45 5.3 30.85 11.0 18.2 23.7 10.9 30.35 7.0 37.3 5.55 47.4 3.4 58.25 6.3 76.45 11.15 85.95 27.55 93.25 40.25 92.0 54.05 91.55 58.0 90.45 62.1" fill="#ad8d5e" fill-rule="evenodd" stroke="none"/>
      <path d="M90.45 62.1 Q85.6 80.3 69.3 89.8 57.4 96.6 44.6 95.9 L44.35 95.9 Q39.6 95.65 34.7 94.35 16.45 89.45 7.05 73.15 3.05 66.25 1.6 59.1 -0.35 49.15 2.45 38.55 3.55 34.45 5.3 30.85 11.0 18.2 23.7 10.9 30.35 7.0 37.3 5.55 47.4 3.4 58.25 6.3 76.45 11.15 85.95 27.55 93.25 40.25 92.0 54.05 91.55 58.0 90.45 62.1 Z" fill="none" stroke="#000000" stroke-linecap="round" stroke-linejoin="round" stroke-opacity="0.15294118" stroke-width="0.05"/>
      <path d="M7.25 64.65 Q3.95 51.9 17.1 52.4 30.25 52.9 43.45 52.9 L71.75 54.2 Q86.8 55.45 82.0 66.55 77.2 77.65 66.95 83.75 56.65 89.85 43.45 89.85 30.25 89.85 20.4 83.65 10.55 77.4 7.25 64.65" fill="#faf7f3" fill-rule="evenodd" stroke="none"/>
      <path d="M7.25 64.65 Q3.95 51.9 17.1 52.4 30.25 52.9 43.45 52.9 L71.75 54.2 Q86.8 55.45 82.0 66.55 77.2 77.65 66.95 83.75 56.65 89.85 43.45 89.85 30.25 89.85 20.4 83.65 10.55 77.4 7.25 64.65 Z" fill="none" stroke="#000000" stroke-linecap="round" stroke-linejoin="round" stroke-opacity="0.15294118" stroke-width="0.05"/>
      <path d="M55.85 54.35 Q57.55 57.3 56.7 60.65 55.8 63.95 52.8 65.7 49.85 67.4 46.55 66.5 43.25 65.65 41.5 62.65 39.8 59.65 40.7 56.35 41.55 53.0 44.55 51.3 47.5 49.6 50.8 50.45 54.1 51.35 55.85 54.35" fill="#000000" fill-rule="evenodd" stroke="none"/>
      <path d="M55.85 54.35 Q57.55 57.3 56.7 60.65 55.8 63.95 52.8 65.7 49.85 67.4 46.55 66.5 43.25 65.65 41.5 62.65 39.8 59.65 40.7 56.35 41.55 53.0 44.55 51.3 47.5 49.6 50.8 50.45 54.1 51.35 55.85 54.35 Z" fill="none" stroke="#000000" stroke-linecap="round" stroke-linejoin="round" stroke-opacity="0.15294118" stroke-width="0.05"/>
      <path d="M84.15 30.6 Q93.0 45.9 88.4 63.0 83.85 80.05 68.5 88.95 53.15 97.8 36.1 93.2 19.0 88.65 10.15 73.3 7.55 68.9 6.1 64.35 14.95 79.1 31.7 83.6 48.75 88.15 64.1 79.35 79.5 70.5 84.05 53.4 87.35 41.2 83.75 29.9 L84.15 30.6" fill="#000000" fill-opacity="0.19215687" fill-rule="evenodd" stroke="none"/>
      <path d="M28.45 45.4 Q35.15 45.4 39.85 48.5 44.55 51.7 44.55 56.15 44.6 60.6 39.85 63.75 35.15 66.95 28.45 66.9 21.8 66.95 17.0 63.75 12.25 60.65 12.3 56.15 12.25 51.7 17.0 48.5 21.75 45.45 28.45 45.4" fill="#ffffff" fill-rule="evenodd" stroke="none"/>
      <path d="M8.75 31.9 L9.05 31.0 Q14.7 16.15 30.15 9.2 45.75 2.45 61.95 7.65 71.35 10.65 77.8 16.75 82.4 21.1 75.8 21.85 69.2 22.55 53.55 25.0 37.9 27.45 15.9 34.2 L8.75 31.9" fill="#ffea99" fill-rule="evenodd" stroke="none"/>
      <path d="M95.95 61.8 Q97.25 63.9 97.1 67.9 96.9 71.9 93.35 73.3 89.75 74.65 79.25 69.45 68.8 64.2 55.7 59.4 42.4 54.65 28.65 51.0 14.3 47.35 -0.15 44.35 -1.15 44.1 -1.65 43.4 -7.25 35.35 3.4 31.2 10.1 17.7 23.85 10.2 37.35 2.8 53.3 3.7 68.8 4.9 80.65 14.0 93.6 23.85 96.85 39.0 99.3 50.5 95.95 61.8 94.6 60.0 92.6 58.9 L91.6 58.45 92.6 58.9 Q94.6 60.0 95.95 61.8 M8.75 31.9 L5.45 31.15 3.4 31.2 5.45 31.15 8.75 31.9 15.9 34.2 Q37.9 27.45 53.55 25.0 69.2 22.55 75.8 21.85 82.4 21.1 77.8 16.75 71.35 10.65 61.95 7.65 45.75 2.45 30.15 9.2 14.7 16.15 9.05 31.0 L8.75 31.9" fill="#998c5b" fill-rule="evenodd" stroke="none"/>
      <path d="M3.4 31.2 Q-7.25 35.35 -1.65 43.4 -1.15 44.1 -0.15 44.35 14.3 47.35 28.65 51.0 42.4 54.65 55.7 59.4 68.8 64.2 79.25 69.45 89.75 74.65 93.35 73.3 96.9 71.9 97.1 67.9 97.25 63.9 95.95 61.8 94.6 60.0 92.6 58.9 L91.6 58.45 M95.95 61.8 Q99.3 50.5 96.85 39.0 93.6 23.85 80.65 14.0 68.8 4.9 53.3 3.7 37.35 2.8 23.85 10.2 10.1 17.7 3.4 31.2 L5.45 31.15 8.75 31.9 M15.9 34.2 L8.75 31.9" fill="none" stroke="#000000" stroke-linecap="round" stroke-linejoin="round" stroke-opacity="0.15294118" stroke-width="0.05"/>
      <path d="M3.3 33.55 Q3.95 31.75 27.6 39.9 51.3 48.15 50.85 49.4 L50.15 50.75 49.65 50.8 30.3 44.8 Q11.15 38.65 4.55 35.25 L2.95 34.45 3.3 33.55" fill="#ffea99" fill-rule="evenodd" stroke="none"/>
      <path d="M3.3 33.55 Q3.95 31.75 27.6 39.9 51.3 48.15 50.85 49.4 L50.15 50.75 49.65 50.8 30.3 44.8 Q11.15 38.65 4.55 35.25 L2.95 34.45 3.3 33.55 Z" fill="none" stroke="#000000" stroke-linecap="round" stroke-linejoin="round" stroke-opacity="0.15294118" stroke-width="0.05"/>
      <path d="M42.25 17.7 Q40.75 19.6 36.55 19.6 33.0 19.6 31.95 17.6 L31.55 15.4 Q31.55 13.5 33.35 12.05 35.0 10.75 37.3 10.45 43.05 9.75 43.05 14.75 43.05 16.65 42.25 17.7" fill="#f0cc3b" fill-rule="evenodd" stroke="none"/>
      <path d="M42.25 17.7 Q40.75 19.6 36.55 19.6 33.0 19.6 31.95 17.6 L31.55 15.4 Q31.55 13.5 33.35 12.05 35.0 10.75 37.3 10.45 43.05 9.75 43.05 14.75 43.05 16.65 42.25 17.7 Z" fill="none" stroke="#000000" stroke-linecap="round" stroke-linejoin="round" stroke-opacity="0.15294118" stroke-width="0.05"/>
    </g>
  </defs>
</svg>
