<?xml version="1.0" encoding="UTF-8" standalone="no"?>
<svg xmlns:xlink="http://www.w3.org/1999/xlink" height="440.0px" width="440.0px" xmlns="http://www.w3.org/2000/svg">
  <g transform="matrix(10.0, 0.0, 0.0, 10.0, 0.0, 0.0)">
    <use height="44.0" transform="matrix(1.0, 0.0, 0.0, 1.0, 0.0, 0.0)" width="44.0" xlink:href="#shape0"/>
    <use height="0.0" transform="matrix(0.1129, 0.1129, -0.4486, 0.4486, 28.35, 14.1)" width="0.0" xlink:href="#sprite0"/>
    <use height="6.2" transform="matrix(1.0, 0.0, 0.0, 1.0, 10.9, 25.75)" width="6.2" xlink:href="#shape1"/>
  </g>
  <defs>
    <g id="shape0" transform="matrix(1.0, 0.0, 0.0, 1.0, 0.0, 0.0)">
      <path d="M44.0 44.0 L0.0 44.0 0.0 0.0 44.0 0.0 44.0 44.0" fill="#33cc33" fill-opacity="0.0" fill-rule="evenodd" stroke="none"/>
      <path d="M14.05 25.4 Q17.6 19.4 27.3 11.7 26.3 13.35 26.8 12.9 31.55 9.2 35.9 6.65 L37.7 5.6 35.9 7.3 Q27.4 15.3 25.4 18.5 25.1 18.9 27.1 18.05 21.85 24.35 17.7 28.4 L16.3 28.65 16.95 28.0 20.3 24.15 22.55 21.6 22.85 21.25 23.0 21.05 Q24.3 19.55 23.85 19.6 L23.8 19.6 23.8 19.65 22.8 19.95 Q26.05 15.95 30.55 11.55 L27.15 14.25 26.9 14.4 26.75 14.5 26.1 14.65 Q24.8 15.5 23.45 16.9 L23.4 16.95 21.95 18.5 21.5 19.0 21.6 18.35 Q21.5 18.0 20.6 19.0 L19.55 20.2 18.2 21.75 17.4 22.6 15.9 24.25 14.1 26.5 14.05 26.5 14.05 25.4 M18.9 28.25 L22.2 24.75 20.5 27.05 Q19.0 28.45 18.45 32.8 L18.35 32.85 18.2 32.2 18.05 31.5 18.9 28.25 M17.4 19.35 L14.05 23.8 14.0 23.9 10.95 25.05 9.9 24.9 9.85 24.85 9.75 24.7 9.9 24.9 9.75 24.7 Q13.8 23.65 15.15 21.7 L17.4 19.35 M10.95 25.05 L9.75 24.7 10.95 25.05" fill="#666666" fill-rule="evenodd" stroke="none"/>
      <path d="M18.2 21.75 L19.55 20.2 20.6 19.0 Q21.5 18.0 21.6 18.35 L21.5 19.0 21.95 18.5 23.4 16.95 22.2 19.7 20.9 21.2 20.65 21.4 20.55 21.6 19.45 22.85 18.55 23.85 18.5 23.4 18.2 21.85 18.2 21.75 M21.45 19.05 L21.45 19.2 21.5 19.0 21.45 19.2 21.45 19.05 21.5 19.0 21.45 19.05 M19.55 20.2 Q21.35 18.25 21.6 18.35 21.35 18.25 19.55 20.2" fill="#bdbdbd" fill-rule="evenodd" stroke="none"/>
      <path d="M15.9 24.25 L17.4 22.6 18.2 21.75 18.2 21.85 18.5 23.4 18.55 23.85 18.2 24.25 18.1 24.35 17.85 24.35 17.75 24.35 16.1 24.3 16.0 24.3 15.9 24.25 M23.4 16.95 L23.45 16.9 Q24.8 15.5 26.1 14.65 L26.75 14.5 26.25 14.7 26.75 14.5 26.3 14.95 22.2 19.7 23.4 16.95 M22.55 21.6 L20.3 24.15 20.25 24.1 19.55 23.0 20.55 21.85 22.55 21.6 M16.95 28.0 L16.3 28.65 16.25 28.65 16.3 28.65 16.25 28.7 16.25 28.65 16.45 27.2 16.25 27.3 16.55 26.9 16.55 26.8 16.7 27.4 16.55 26.9 16.7 27.4 16.9 27.8 16.95 28.0 M23.45 16.9 L26.25 14.7 23.45 16.9 M17.75 24.45 L17.6 24.6 17.7 24.45 17.75 24.35 17.75 24.45 17.7 24.45 17.75 24.45 M16.0 24.3 L17.4 22.6 16.0 24.3" fill="#cccccc" fill-rule="evenodd" stroke="none"/>
      <path d="M26.75 14.5 L26.9 14.4 27.15 14.25 30.55 11.55 Q26.05 15.95 22.8 19.95 L23.8 19.65 23.8 19.6 23.85 19.6 Q24.3 19.55 23.0 21.05 L22.85 21.25 22.7 21.25 20.55 21.6 20.65 21.4 20.9 21.2 22.2 19.7 26.3 14.95 26.75 14.5 M20.65 21.4 L22.7 21.25 20.65 21.4" fill="#d6d6d6" fill-rule="evenodd" stroke="none"/>
      <path d="M14.05 26.5 L14.1 26.5 14.05 26.55 14.05 26.5" fill="#999999" fill-opacity="0.6901961" fill-rule="evenodd" stroke="none"/>
      <path d="M22.85 21.25 L22.55 21.6 20.55 21.85 19.55 23.0 19.45 22.85 20.55 21.6 22.7 21.25 22.85 21.25 M17.75 24.35 L17.85 24.35 18.1 24.35 16.55 26.8 16.55 26.9 16.25 27.3 15.6 27.45 15.75 27.15 16.05 26.75 17.35 24.95 17.6 24.6 17.75 24.45 17.75 24.35 M17.85 24.35 L17.75 24.45 17.85 24.35" fill="#999999" fill-rule="evenodd" stroke="none"/>
      <path d="M20.3 24.15 L16.95 28.0 16.9 27.8 16.7 27.4 16.55 26.8 18.1 24.35 18.2 24.25 18.55 23.85 19.45 22.85 19.55 23.0 20.25 24.1 20.3 24.15 M18.2 24.25 L19.45 22.9 18.2 24.25 M19.45 22.9 L20.25 24.1 19.45 22.9" fill="#dddddd" fill-rule="evenodd" stroke="none"/>
      <path d="M14.1 26.5 L15.9 24.25 16.0 24.3 16.1 24.3 17.75 24.35 17.7 24.45 17.6 24.6 17.35 24.95 16.05 26.75 15.75 27.15 15.6 27.45 14.35 27.4 13.85 26.9 13.95 26.8 14.0 26.7 14.05 26.65 16.0 24.3 14.05 26.65 14.05 26.55 14.1 26.5 M17.7 24.45 L17.25 24.45 16.1 24.3 17.25 24.45 17.7 24.45 M17.25 24.45 L17.35 24.95 17.25 24.45 M16.05 26.75 L15.05 27.1 14.35 27.4 15.05 27.1 16.05 26.75 M15.05 27.1 L15.75 27.15 15.05 27.1" fill="#d9d9d9" fill-rule="evenodd" stroke="none"/>
      <path d="M17.7 28.4 L18.9 28.25 18.05 31.5 17.25 31.55 18.05 31.5 18.2 32.2 18.3 32.8 18.2 32.2 18.35 32.85 18.3 32.8 17.25 31.55 17.2 31.3 16.3 28.8 16.25 28.7 16.3 28.8 13.15 31.7 14.4 31.85 11.2 32.45 16.25 28.7 16.3 28.65 17.7 28.4 M14.0 24.05 L14.05 25.4 14.05 26.5 11.2 25.95 11.1 25.85 11.0 25.85 10.95 25.05 11.0 25.85 9.9 24.9 10.95 25.05 14.0 23.9 14.0 24.05 M13.95 26.8 L13.85 26.9 11.0 32.3 11.0 32.35 10.95 32.45 11.15 27.75 11.3 30.0 13.95 26.8" fill="#575757" fill-rule="evenodd" stroke="none"/>
      <path d="M17.2 31.3 L17.25 31.55 Q14.65 32.4 12.2 34.0 L9.95 33.65 9.9 33.7 9.65 33.95 9.9 33.7 12.2 34.05 9.85 36.0 9.3 36.45 7.7 36.1 6.7 37.0 7.7 36.1 9.2 36.5 7.15 38.8 6.35 38.55 7.1 38.8 6.5 39.4 6.5 39.45 4.2 39.7 4.6 39.25 4.7 39.15 4.95 38.95 4.7 39.15 6.4 37.35 6.5 37.25 6.7 37.0 8.25 35.5 8.7 34.95 8.85 34.8 9.45 34.15 8.95 34.7 8.85 34.8 8.95 34.7 9.65 33.95 10.95 32.5 10.8 32.65 10.95 32.45 10.95 32.5 11.0 32.45 11.1 32.4 11.15 32.45 11.15 32.5 11.2 32.45 14.4 31.85 17.2 31.3 M6.35 39.85 L2.4 41.65 2.55 41.35 3.95 39.8 4.0 39.8 4.0 39.85 6.35 39.85 M6.35 38.55 L5.6 38.35 6.35 38.55 M4.95 38.95 L5.6 38.35 4.95 38.95" fill="#333333" fill-rule="evenodd" stroke="none"/>
      <path d="M11.0 25.85 L11.1 25.85 11.2 25.95 11.15 27.75 10.95 32.45 10.8 32.65 10.95 32.5 9.65 33.95 9.45 34.15 9.65 33.95 8.95 34.7 9.45 34.15 8.85 34.8 8.3 35.3 8.45 35.1 8.65 34.85 9.1 34.25 8.65 34.85 8.45 35.1 8.3 35.3 8.85 34.8 8.7 34.95 8.25 35.5 6.7 37.0 6.65 37.1 6.5 37.25 6.4 37.3 6.85 36.7 6.4 37.3 6.5 37.25 6.65 37.1 6.7 37.0 6.5 37.25 6.4 37.35 4.7 39.15 4.6 39.25 4.2 39.7 6.5 39.45 6.5 39.55 6.45 39.8 6.35 39.85 4.0 39.85 4.0 39.8 4.15 39.7 4.2 39.65 4.2 39.6 4.85 38.85 4.95 38.85 6.8 36.75 6.85 36.7 9.1 34.25 10.0 33.3 10.1 30.1 9.5 31.3 9.35 31.5 9.35 31.2 9.35 31.5 7.25 34.5 7.25 34.25 7.25 34.5 7.25 34.55 7.2 34.3 7.25 34.55 6.25 35.7 5.15 36.8 5.1 36.8 5.1 36.6 5.1 36.8 4.6 37.25 4.4 37.4 4.35 37.75 4.25 38.8 4.25 39.2 4.2 39.6 4.25 38.8 4.35 37.3 4.4 37.3 5.1 36.6 6.25 35.4 7.2 34.3 7.25 34.25 9.35 31.2 Q10.85 28.55 11.0 25.85 M12.2 34.0 L12.2 34.05 9.9 33.7 9.95 33.65 12.2 34.0 M9.3 36.45 L9.2 36.5 7.7 36.1 9.3 36.45 M7.15 38.8 L7.1 38.8 6.35 38.55 7.15 38.8 M2.55 41.35 L3.9 37.7 3.95 39.8 2.55 41.35 M11.1 32.4 L11.0 32.45 10.95 32.5 10.95 32.45 11.0 32.35 11.1 32.4 M11.0 32.45 L10.95 32.45 11.0 32.45 M8.25 35.35 L8.3 35.3 8.25 35.35 8.25 35.5 8.25 35.35 M5.1 36.6 L5.15 36.8 5.1 36.6 M4.75 39.0 L4.85 38.85 4.75 39.0 4.95 38.85 4.75 39.0 4.6 39.2 4.7 39.15 4.6 39.2 4.6 39.25 4.6 39.2 4.75 39.0 M4.4 37.3 L4.35 37.75 4.4 37.3 M6.35 37.35 L6.4 37.35 6.35 37.35 6.3 37.35 6.4 37.3 6.3 37.35 6.35 37.35 6.4 37.3 6.8 36.75 6.4 37.3 6.35 37.35 M4.2 39.65 L4.2 39.7 4.2 39.65 M4.2 39.7 L6.5 39.55 4.2 39.7 M8.3 35.3 L8.7 34.95 8.3 35.3" fill="#404040" fill-rule="evenodd" stroke="none"/>
      <path d="M3.9 37.7 L3.95 37.4 4.35 37.3 4.25 38.8 4.2 39.6 4.2 39.65 4.15 39.7 4.0 39.8 3.95 39.8 4.15 39.7 3.95 39.8 3.9 37.7" fill="#595959" fill-rule="evenodd" stroke="none"/>
      <path d="M17.7 28.4 Q21.85 24.35 27.1 18.05 25.1 18.9 25.4 18.5 27.4 15.3 35.9 7.3 L37.7 5.6 35.9 6.65 Q31.55 9.2 26.8 12.9 26.3 13.35 27.3 11.7 17.6 19.4 14.05 25.4 L14.0 24.05 14.05 23.85 14.05 23.8 17.4 19.35 Q22.4 14.15 25.8 11.85 L29.9 9.1 Q30.6 8.7 28.45 11.1 32.2 8.0 35.9 5.9 38.7 4.25 41.45 3.1 L38.9 5.5 35.9 8.25 Q30.8 13.1 27.0 17.35 27.65 16.9 28.7 16.4 27.85 18.75 22.2 24.7 L22.2 24.75 18.9 28.25 17.7 28.4" fill="url(#gradient0)" fill-rule="evenodd" stroke="none"/>
      <path d="M15.6 27.45 L16.25 27.3 16.45 27.2 16.25 28.65 16.25 28.7 11.2 32.45 11.15 32.5 11.15 32.45 11.1 32.4 11.0 32.35 11.0 32.3 13.85 26.9 14.35 27.4 15.6 27.45" fill="url(#gradient1)" fill-rule="evenodd" stroke="none"/>
      <path d="M16.3 28.8 L17.2 31.3 14.4 31.85 13.15 31.7 16.3 28.8" fill="url(#gradient2)" fill-rule="evenodd" stroke="none"/>
      <path d="M11.2 25.95 L14.05 26.5 14.05 26.55 14.05 26.65 14.0 26.7 13.95 26.8 11.3 30.0 11.15 27.75 11.2 25.95 M9.35 31.5 L9.5 31.3 10.1 30.1 10.0 33.3 9.1 34.25 6.85 36.7 6.8 36.75 4.95 38.85 4.85 38.85 4.2 39.6 4.25 39.2 4.25 38.8 4.35 37.75 4.4 37.4 4.6 37.25 5.1 36.8 5.15 36.8 6.25 35.7 7.25 34.55 7.25 34.5 9.35 31.5" fill="url(#gradient3)" fill-rule="evenodd" stroke="none"/>
      <path d="M17.7 28.4 L18.9 28.25 22.2 24.75 22.2 24.7 Q27.85 18.75 28.7 16.4 27.65 16.9 27.0 17.35 30.8 13.1 35.9 8.25 L38.9 5.5 41.45 3.1 Q38.7 4.25 35.9 5.9 32.2 8.0 28.45 11.1 30.6 8.7 29.9 9.1 L25.8 11.85 Q22.4 14.15 17.4 19.35 L14.05 23.8 14.05 23.85 14.0 24.05 14.05 25.4 14.05 26.5 14.05 26.55 14.1 26.5 15.9 24.25 17.4 22.6 18.2 21.75 M23.45 16.9 Q24.8 15.5 26.1 14.65 L26.75 14.5 26.9 14.4 M27.15 14.25 L30.55 11.55 Q26.05 15.95 22.8 19.95 M23.8 19.65 L23.8 19.6 23.85 19.6 Q24.3 19.55 23.0 21.05 L22.85 21.25 22.55 21.6 20.3 24.15 16.95 28.0 16.3 28.65 17.7 28.4 M9.75 24.7 L9.85 24.85 M9.9 24.9 L9.75 24.7 Q13.8 23.65 15.15 21.7 L17.4 19.35 M14.0 24.05 L14.0 23.9 14.05 23.8 M10.95 25.05 L11.0 25.85 11.1 25.85 11.2 25.95 14.05 26.5 M16.25 28.65 L16.3 28.65 16.25 28.7 16.3 28.8 17.2 31.3 17.25 31.55 18.05 31.5 M16.25 28.7 L16.25 28.65 M11.0 25.85 Q10.85 28.55 9.35 31.2 L7.25 34.25 M12.2 34.0 L12.2 34.05 9.85 36.0 9.3 36.45 9.2 36.5 7.15 38.8 7.1 38.8 6.5 39.4 6.5 39.45 6.5 39.55 6.45 39.8 M6.35 39.85 L2.4 41.65 2.3 41.65 M2.55 41.35 L3.9 37.7 3.95 37.4 4.35 37.3 4.4 37.3 5.1 36.6 6.25 35.4 7.2 34.3 7.25 34.25 M12.2 34.0 Q14.65 32.4 17.25 31.55 L18.3 32.8 18.2 32.2 18.05 31.5 M22.2 24.75 L20.5 27.05 Q19.0 28.45 18.45 32.8 L18.35 32.85 18.3 32.8 M2.55 41.35 L2.4 41.65 M9.9 24.9 L11.0 25.85 M9.75 24.7 L10.95 25.05" fill="none" stroke="#000000" stroke-linecap="round" stroke-linejoin="round" stroke-opacity="0.2" stroke-width="0.05"/>
      <path d="M19.55 20.2 L20.6 19.0 Q21.5 18.0 21.6 18.35 L21.5 19.0 21.45 19.2 21.45 19.05 M14.05 26.65 L14.0 26.7 13.95 26.8 13.85 26.9 M10.95 32.5 L10.8 32.65 10.95 32.45 11.0 32.35 M10.95 32.5 L10.95 32.45 11.0 32.45" fill="none" stroke="#000000" stroke-linecap="round" stroke-linejoin="round" stroke-opacity="0.2" stroke-width="1.0"/>
      <path d="M26.9 14.4 L27.15 14.25 M26.75 14.5 L26.25 14.7 M21.45 19.05 L21.5 19.0" fill="none" stroke="#ffffff" stroke-linecap="round" stroke-linejoin="round" stroke-opacity="0.48235294" stroke-width="1.0"/>
      <path d="M22.2 19.7 L26.3 14.95 M19.45 22.9 L18.2 24.25" fill="none" stroke="#ffffff" stroke-linecap="round" stroke-linejoin="round" stroke-opacity="0.32156864" stroke-width="1.0"/>
      <path d="M17.35 24.95 L17.25 24.45 M13.85 26.9 L14.35 27.4 M15.75 27.15 L15.05 27.1" fill="none" stroke="#ffffff" stroke-linecap="round" stroke-linejoin="round" stroke-opacity="0.4" stroke-width="1.0"/>
      <path d="M9.35 31.2 L9.35 31.5 M12.2 34.05 L9.9 33.7 M7.2 34.3 L7.25 34.55 M5.1 36.6 L5.1 36.8 M5.6 38.35 L6.35 38.55 7.1 38.8 M7.7 36.1 L9.2 36.5" fill="none" stroke="#ffffff" stroke-linecap="round" stroke-linejoin="round" stroke-opacity="0.101960786" stroke-width="1.0"/>
      <path d="M9.1 34.25 L8.65 34.85 8.45 35.1 8.3 35.3 8.85 34.8 8.95 34.7 9.45 34.15 M7.25 34.25 L7.25 34.5 M9.9 33.7 L9.95 33.65 12.2 34.0 M7.7 36.1 L9.3 36.45 M8.3 35.3 L8.25 35.35 M5.15 36.8 L5.1 36.6 M4.35 37.75 L4.25 38.8 4.25 39.2 M4.85 38.85 L4.75 39.0 M4.95 38.95 L4.7 39.15 4.6 39.2 M4.2 39.7 L6.5 39.45 M4.35 37.75 L4.4 37.3 M6.7 37.0 L6.5 37.25 6.4 37.35 6.35 37.35 M6.4 37.3 L6.8 36.75 M6.4 37.3 L6.35 37.35 M6.35 38.55 L7.15 38.8 M4.2 39.7 L4.2 39.65" fill="none" stroke="#000000" stroke-linecap="round" stroke-linejoin="round" stroke-opacity="0.4509804" stroke-width="0.05"/>
      <path d="M8.85 34.8 L9.45 34.15 9.65 33.95 9.9 33.7 M8.85 34.8 L8.7 34.95 8.3 35.3 M6.7 37.0 L7.7 36.1 M8.25 35.35 L8.25 35.5 M4.75 39.0 L4.95 38.85 M4.7 39.15 L4.6 39.25 M4.2 39.6 L4.25 38.8 4.35 37.3 M6.85 36.7 L6.4 37.3 6.5 37.25 6.65 37.1 6.7 37.0 M4.6 39.2 L4.6 39.25 M6.35 37.35 L6.3 37.35 6.4 37.3 M5.6 38.35 L4.95 38.95 M6.5 39.55 L4.2 39.7 M4.75 39.0 L4.6 39.2" fill="none" stroke="#ffffff" stroke-linecap="round" stroke-linejoin="round" stroke-opacity="0.101960786" stroke-width="0.05"/>
      <path d="M6.45 39.8 L6.35 39.85 M2.3 41.65 L2.55 41.35 M4.2 39.65 L4.15 39.7 M4.0 39.8 L4.0 39.85 M4.2 39.65 L4.2 39.6 M3.95 39.8 L2.55 41.35 M3.95 39.8 L4.15 39.7" fill="none" stroke="#000000" stroke-linecap="round" stroke-linejoin="round" stroke-opacity="0.101960786" stroke-width="1.0"/>
      <path d="M18.2 21.75 L19.55 20.2 M21.5 19.0 L21.95 18.5 23.4 16.95 M26.25 14.7 L23.45 16.9 M17.4 22.6 L16.0 24.3 14.05 26.65 M21.6 18.35 Q21.35 18.25 19.55 20.2" fill="none" stroke="#ffffff" stroke-linecap="round" stroke-linejoin="round" stroke-opacity="0.48235294" stroke-width="1.0"/>
      <path d="M22.8 19.95 L23.8 19.65 M20.9 21.2 L22.2 19.7 M22.7 21.25 L20.65 21.4 M18.5 23.4 L18.2 21.85 M17.7 24.45 L17.75 24.45 17.85 24.35 M16.1 24.3 L17.25 24.45 17.7 24.45 M16.55 26.9 L16.7 27.4 16.9 27.8 M20.25 24.1 L19.45 22.9" fill="none" stroke="#ffffff" stroke-linecap="round" stroke-linejoin="round" stroke-opacity="0.32156864" stroke-width="1.0"/>
      <path d="M14.35 27.4 L15.05 27.1 16.05 26.75" fill="none" stroke="#ffffff" stroke-linecap="round" stroke-linejoin="round" stroke-opacity="0.4" stroke-width="1.0"/>
    </g>
    <radialGradient cx="0" cy="0" gradientTransform="matrix(0.0169, 0.0169, -0.0169, 0.0169, 27.9, 11.7)" gradientUnits="userSpaceOnUse" id="gradient0" r="819.2" spreadMethod="pad">
      <stop offset="0.0" stop-color="#ffffff"/>
      <stop offset="1.0" stop-color="#999999"/>
    </radialGradient>
    <linearGradient gradientTransform="matrix(-0.0022, 0.0023, -0.0033, -0.0031, 13.25, 29.2)" gradientUnits="userSpaceOnUse" id="gradient1" spreadMethod="pad" x1="-819.2" x2="819.2">
      <stop offset="0.0" stop-color="#000000" stop-opacity="0.0"/>
      <stop offset="1.0" stop-color="#000000" stop-opacity="0.5137255"/>
    </linearGradient>
    <linearGradient gradientTransform="matrix(-9.0E-4, 3.0E-4, -9.0E-4, -0.0025, 16.1, 30.85)" gradientUnits="userSpaceOnUse" id="gradient2" spreadMethod="pad" x1="-819.2" x2="819.2">
      <stop offset="0.0" stop-color="#4a4a4a"/>
      <stop offset="1.0" stop-color="#666666"/>
    </linearGradient>
    <linearGradient gradientTransform="matrix(-2.0E-4, 7.0E-4, -0.0027, -6.0E-4, 12.0, 26.75)" gradientUnits="userSpaceOnUse" id="gradient3" spreadMethod="pad" x1="-819.2" x2="819.2">
      <stop offset="0.0" stop-color="#4a4a4a"/>
      <stop offset="1.0" stop-color="#666666"/>
    </linearGradient>
    <g id="shape1" transform="matrix(1.0, 0.0, 0.0, 1.0, -10.9, -25.75)">
      <path d="M12.0 31.2 L11.85 31.05 12.0 31.2" fill="#421515" fill-rule="evenodd" stroke="none"/>
      <path d="M16.4 26.85 L16.5 26.85 16.4 26.85 M11.85 31.05 L11.8 31.05 11.85 31.0 11.9 31.05 11.85 31.05 11.9 31.05 11.85 31.05" fill="#f0c20f" fill-rule="evenodd" stroke="none"/>
      <path d="M16.55 27.05 L16.65 27.2 16.75 27.35 16.7 27.35 16.65 27.2 16.55 27.05" fill="#e65800" fill-rule="evenodd" stroke="none"/>
      <path d="M11.8 31.05 Q10.9 30.1 10.9 28.85 10.9 27.55 11.8 26.65 12.75 25.75 14.0 25.75 15.3 25.75 16.2 26.65 L16.4 26.85 16.35 26.85 16.3 26.85 Q15.5 26.3 14.5 26.3 13.25 26.3 12.35 27.2 11.4 28.1 11.4 29.4 11.4 30.3 11.85 31.0 L11.8 31.05 M16.6 30.55 L16.2 31.05 14.8 31.85 14.8 31.65 16.1 30.9 16.4 30.5 16.6 30.55" fill="#cccccc" fill-rule="evenodd" stroke="none"/>
      <path d="M16.75 27.35 L17.0 27.9 17.1 28.85 Q17.1 29.8 16.6 30.55 L16.4 30.5 Q17.0 29.7 17.0 28.7 L16.9 27.9 16.7 27.35 16.75 27.35 M14.8 31.85 L14.0 31.95 Q12.85 31.95 12.0 31.2 12.85 31.8 13.9 31.8 L14.8 31.65 14.8 31.85 M11.85 31.0 Q11.4 30.3 11.4 29.4 11.4 28.1 12.35 27.2 13.25 26.3 14.5 26.3 15.5 26.3 16.3 26.85 13.05 26.75 12.15 28.65 11.7 29.85 11.9 31.05 L11.85 31.0" fill="#8d8d8d" fill-rule="evenodd" stroke="none"/>
      <path d="M16.4 26.85 L16.45 26.9 16.55 27.0 16.55 27.05 16.65 27.2 16.7 27.35 16.9 27.9 17.0 28.7 Q17.0 29.7 16.4 30.5 L16.1 30.9 14.8 31.65 13.9 31.8 Q12.85 31.8 12.0 31.2 L11.85 31.05 11.9 31.05 11.85 31.05 11.9 31.05 Q11.7 29.85 12.15 28.65 13.05 26.75 16.3 26.85 L16.35 26.85 16.4 26.85" fill="#3b3b3b" fill-rule="evenodd" stroke="none"/>
      <path d="M11.8 31.05 Q10.9 30.1 10.9 28.85 10.9 27.55 11.8 26.65 12.75 25.75 14.0 25.75 15.3 25.75 16.2 26.65 L16.4 26.85 16.45 26.9 16.55 27.0 16.55 27.05 16.65 27.2 16.75 27.35 17.0 27.9 17.1 28.85 Q17.1 29.8 16.6 30.55 L16.2 31.05 14.8 31.85 14.0 31.95 Q12.85 31.95 12.0 31.2 L11.85 31.05 11.8 31.05 Z" fill="none" stroke="#000000" stroke-linecap="round" stroke-linejoin="round" stroke-opacity="0.15294118" stroke-width="0.05"/>
      <path d="M12.85 26.8 L13.95 26.55 Q14.9 26.55 15.65 27.25 16.15 27.8 16.3 28.5 L16.3 28.95 Q16.3 29.9 15.65 30.6 L14.45 31.25 13.95 31.3 Q12.95 31.3 12.25 30.6 L11.8 30.0 11.55 28.95 11.6 28.5 Q11.7 27.8 12.25 27.25 L12.85 26.8 12.95 26.8 12.85 26.8" fill="url(#gradient4)" fill-rule="evenodd" stroke="none"/>
      <path d="M12.85 26.8 L13.95 26.55 Q14.9 26.55 15.65 27.25 16.15 27.8 16.3 28.5 L16.3 28.95 Q16.3 29.9 15.65 30.6 L14.45 31.25 13.95 31.3 Q12.95 31.3 12.25 30.6 L11.8 30.0 11.55 28.95 11.6 28.5 Q11.7 27.8 12.25 27.25 L12.85 26.8 12.95 26.8" fill="none" stroke="#000000" stroke-linecap="round" stroke-linejoin="round" stroke-opacity="0.15294118" stroke-width="0.05"/>
      <path d="M14.65 29.15 L14.45 29.65 13.95 29.85 Q13.7 29.85 13.5 29.65 L13.3 29.15 13.5 28.7 13.95 28.5 14.45 28.7 14.65 29.15" fill="#000000" fill-rule="evenodd" stroke="none"/>
      <path d="M14.65 29.15 L14.45 29.65 13.95 29.85 Q13.7 29.85 13.5 29.65 L13.3 29.15 13.5 28.7 13.95 28.5 14.45 28.7 14.65 29.15 Z" fill="none" stroke="#000000" stroke-linecap="round" stroke-linejoin="round" stroke-opacity="0.15294118" stroke-width="0.05"/>
      <path d="M13.45 29.1 L13.55 29.45 13.45 29.8 13.1 29.95 12.75 29.8 12.6 29.45 12.75 29.1 Q12.85 28.95 13.1 28.95 13.3 28.95 13.45 29.1" fill="#ffffff" fill-rule="evenodd" stroke="none"/>
      <path d="M13.45 29.1 L13.55 29.45 13.45 29.8 13.1 29.95 12.75 29.8 12.6 29.45 12.75 29.1 Q12.85 28.95 13.1 28.95 13.3 28.95 13.45 29.1 Z" fill="none" stroke="#000000" stroke-linecap="round" stroke-linejoin="round" stroke-opacity="0.15294118" stroke-width="0.05"/>
      <path d="M16.3 27.9 L16.3 27.95 16.45 28.35 16.4 29.6 16.45 29.95 16.25 30.25 15.55 30.05 14.35 29.5 14.15 29.4 12.95 29.0 11.5 28.65 11.45 28.6 11.35 28.3 14.4 29.1 Q14.4 28.7 13.2 28.35 14.85 27.65 16.3 27.9" fill="#666666" fill-rule="evenodd" stroke="none"/>
      <path d="M15.1 26.85 L14.65 26.6 14.4 26.55 13.05 26.7 Q12.25 27.1 11.95 27.9 L11.95 27.95 12.3 28.1 14.25 27.55 14.4 27.55 15.1 27.45 15.35 27.4 Q15.7 27.35 15.45 27.1 L15.1 26.85 M11.35 28.3 L11.7 27.9 Q12.0 27.15 12.7 26.75 13.4 26.35 14.2 26.4 L14.4 26.4 15.1 26.65 15.6 26.95 16.15 27.6 16.3 27.9 Q14.85 27.65 13.2 28.35 14.4 28.7 14.4 29.1 L11.35 28.3" fill="#787878" fill-rule="evenodd" stroke="none"/>
      <path d="M15.1 26.85 L15.45 27.1 Q15.7 27.35 15.35 27.4 L15.1 27.45 14.4 27.55 14.25 27.55 12.3 28.1 11.95 27.95 11.95 27.9 Q12.25 27.1 13.05 26.7 L14.4 26.55 14.65 26.6 15.1 26.85" fill="#cccccc" fill-rule="evenodd" stroke="none"/>
      <path d="M11.35 28.3 L11.7 27.9 Q12.0 27.15 12.7 26.75 13.4 26.35 14.2 26.4 L14.4 26.4 15.1 26.65 15.6 26.95 16.15 27.6 16.3 27.9 16.3 27.95 16.45 28.35 16.4 29.6 16.45 29.95 16.25 30.25 15.55 30.05 14.35 29.5 14.15 29.4 12.95 29.0 11.5 28.65 11.45 28.6 11.35 28.3 Z" fill="none" stroke="#000000" stroke-linecap="round" stroke-linejoin="round" stroke-opacity="0.15294118" stroke-width="0.05"/>
      <path d="M13.4 28.65 L12.05 28.25 11.65 28.15 11.65 28.1 12.9 28.45 13.75 28.8 13.4 28.65" fill="#cccccc" fill-rule="evenodd" stroke="none"/>
      <path d="M13.4 28.65 L12.05 28.25 11.65 28.15 11.65 28.1 12.9 28.45 13.75 28.8 13.4 28.65 Z" fill="none" stroke="#000000" stroke-linecap="round" stroke-linejoin="round" stroke-opacity="0.15294118" stroke-width="0.05"/>
    </g>
    <radialGradient cx="0" cy="0" gradientTransform="matrix(0.0029, 0.0, 0.0, 0.0029, 13.95, 28.5)" gradientUnits="userSpaceOnUse" id="gradient4" r="819.2" spreadMethod="pad">
      <stop offset="0.5725490196078431" stop-color="#e3dede"/>
      <stop offset="1.0" stop-color="#999999"/>
    </radialGradient>
  </defs>
</svg>
