<?xml version="1.0" encoding="UTF-8" standalone="no"?>
<svg xmlns:xlink="http://www.w3.org/1999/xlink" height="440.0px" width="440.0px" xmlns="http://www.w3.org/2000/svg">
  <g transform="matrix(10.0, 0.0, 0.0, 10.0, 0.0, 0.0)">
    <use height="44.0" transform="matrix(1.0, 0.0, 0.0, 1.0, 0.0, 0.0)" width="44.0" xlink:href="#shape0"/>
    <use height="13.0" transform="matrix(-0.2858, -0.3248, -0.5199, 0.425, 16.1727, 34.6956)" width="5.75" xlink:href="#sprite0"/>
    <use height="11.95" transform="matrix(-0.2858, -0.3248, -0.5199, 0.425, 17.1441, 36.8491)" width="8.95" xlink:href="#sprite1"/>
    <use height="8.9" transform="matrix(-0.2858, -0.3248, -0.5199, 0.425, 18.3645, 38.3688)" width="13.3" xlink:href="#sprite2"/>
    <use height="13.0" transform="matrix(-0.6251, -6.0E-4, 0.0355, 0.7598, 18.4134, 30.6627)" width="5.75" xlink:href="#sprite0"/>
    <use height="11.95" transform="matrix(-0.6251, -6.0E-4, 0.0355, 0.7598, 21.6831, 31.4815)" width="8.95" xlink:href="#sprite1"/>
    <use height="8.9" transform="matrix(-0.6251, -6.0E-4, 0.0355, 0.7598, 24.5491, 31.6225)" width="13.3" xlink:href="#sprite2"/>
    <use height="6.65" transform="matrix(-0.6251, -6.0E-4, 0.0355, 0.7598, 25.8088, 29.7469)" width="15.6" xlink:href="#sprite3"/>
    <use height="40.45" transform="matrix(1.0, 0.0, 0.0, 1.0, 2.4, 0.9)" width="39.25" xlink:href="#shape5"/>
    <use height="13.0" transform="matrix(0.2671, 0.3407, -0.5134, 0.4335, 11.7992, 28.8771)" width="5.75" xlink:href="#sprite0"/>
    <use height="11.95" transform="matrix(0.2671, 0.3407, -0.5134, 0.4335, 9.8394, 27.5704)" width="8.95" xlink:href="#sprite1"/>
    <use height="8.9" transform="matrix(0.2671, 0.3407, -0.5134, 0.4335, 8.5583, 26.005)" width="13.3" xlink:href="#sprite2"/>
    <use height="12.7" transform="matrix(1.0, 0.0, 0.0, 1.0, 3.35, 29.4)" width="12.45" xlink:href="#shape6"/>
    <use height="13.0" transform="matrix(-0.1141, 0.615, -0.7409, -0.1742, 16.1525, 27.4183)" width="5.75" xlink:href="#sprite0"/>
    <use height="11.95" transform="matrix(-0.1141, 0.615, -0.7409, -0.1742, 15.9275, 24.0385)" width="8.95" xlink:href="#sprite1"/>
    <use height="8.9" transform="matrix(-0.1141, 0.615, -0.7409, -0.1742, 16.3557, 21.1857)" width="13.3" xlink:href="#sprite2"/>
    <use height="6.65" transform="matrix(-0.1141, 0.615, -0.7409, -0.1742, 18.3848, 20.2781)" width="15.6" xlink:href="#sprite3"/>
    <use height="41.15" transform="matrix(1.0, 0.0, 0.0, 1.0, 2.15, 0.95)" width="39.45" xlink:href="#shape7"/>
  </g>
  <defs>
    <g id="shape0" transform="matrix(1.0, 0.0, 0.0, 1.0, 0.0, 0.0)">
      <path d="M44.0 44.0 L0.0 44.0 0.0 0.0 44.0 0.0 44.0 44.0" fill="#33cc33" fill-opacity="0.0" fill-rule="evenodd" stroke="none"/>
    </g>
    <g id="sprite0" transform="matrix(1.0, 0.0, 0.0, 1.0, 2.95, 6.5)">
      <use height="13.0" transform="matrix(1.0, 0.0, 0.0, 1.0, -2.95, -6.5)" width="5.75" xlink:href="#shape1"/>
    </g>
    <g id="shape1" transform="matrix(1.0, 0.0, 0.0, 1.0, 2.95, 6.5)">
      <path d="M-2.6 4.9 L-2.7 3.85 -0.45 -4.75 Q0.15 -6.7 0.95 -6.1 1.95 -5.55 2.5 -2.6 2.7 -1.25 2.3 1.45 L1.7 4.3 Q2.25 1.1 0.15 0.7 -1.75 1.55 -2.6 4.9" fill="#aba19b" fill-rule="evenodd" stroke="none"/>
      <path d="M-2.6 4.9 Q-1.75 1.55 0.15 0.7 2.25 1.1 1.7 4.3 L0.4 5.7 Q-0.75 6.55 -1.7 6.1 -2.4 5.65 -2.6 4.9" fill="#cdc1ba" fill-rule="evenodd" stroke="none"/>
      <path d="M1.7 4.3 L2.3 1.45 Q2.7 -1.25 2.5 -2.6 1.95 -5.55 0.95 -6.1 0.15 -6.7 -0.45 -4.75 L-2.7 3.85 -2.6 4.9 M1.7 4.3 L0.4 5.7 Q-0.75 6.55 -1.7 6.1 -2.4 5.65 -2.6 4.9" fill="none" stroke="#000000" stroke-linecap="round" stroke-linejoin="round" stroke-opacity="0.3019608" stroke-width="0.5"/>
    </g>
    <g id="sprite1" transform="matrix(1.0, 0.0, 0.0, 1.0, 4.55, 5.95)">
      <use height="11.95" transform="matrix(1.0, 0.0, 0.0, 1.0, -4.55, -5.95)" width="8.95" xlink:href="#shape2"/>
    </g>
    <g id="shape2" transform="matrix(1.0, 0.0, 0.0, 1.0, 4.55, 5.95)">
      <path d="M-1.0 -1.15 Q0.85 -2.85 2.35 -4.65 3.8 -6.35 4.1 -5.25 4.35 -4.8 3.75 -2.35 L2.9 0.4 Q2.85 -0.9 2.4 -1.4 L-1.0 -1.15" fill="#aba19b" fill-rule="evenodd" stroke="none"/>
      <path d="M2.9 0.4 L1.2 2.95 -0.3 4.75 Q1.45 2.0 0.65 0.65 L-4.2 3.55 -2.95 1.55 -1.0 -1.15 2.4 -1.4 Q2.85 -0.9 2.9 0.4" fill="#cdc1ba" fill-rule="evenodd" stroke="none"/>
      <path d="M-0.3 4.75 Q-1.35 5.55 -2.25 5.7 -3.65 6.0 -4.1 5.0 -4.4 4.35 -4.2 3.55 L0.65 0.65 Q1.45 2.0 -0.3 4.75" fill="#f6f3f1" fill-rule="evenodd" stroke="none"/>
      <path d="M-1.0 -1.15 Q0.85 -2.85 2.35 -4.65 3.8 -6.35 4.1 -5.25 4.35 -4.8 3.75 -2.35 L2.9 0.4 1.2 2.95 -0.3 4.75 Q-1.35 5.55 -2.25 5.7 -3.65 6.0 -4.1 5.0 -4.4 4.35 -4.2 3.55 L-2.95 1.55 -1.0 -1.15 Z" fill="none" stroke="#000000" stroke-linecap="round" stroke-linejoin="round" stroke-opacity="0.3019608" stroke-width="0.5"/>
    </g>
    <g id="sprite2" transform="matrix(1.0, 0.0, 0.0, 1.0, 6.65, 4.45)">
      <use height="8.9" transform="matrix(1.0, 0.0, 0.0, 1.0, -6.65, -4.45)" width="13.3" xlink:href="#shape3"/>
    </g>
    <g id="shape3" transform="matrix(1.0, 0.0, 0.0, 1.0, 6.65, 4.45)">
      <path d="M3.2 0.35 Q3.85 -0.9 3.7 -2.15 L0.2 -2.5 Q2.5 -3.0 4.75 -3.95 6.85 -4.7 6.25 -3.3 5.8 -1.95 3.2 0.35" fill="#aba19b" fill-rule="evenodd" stroke="none"/>
      <path d="M0.2 -2.5 L3.7 -2.15 Q3.85 -0.9 3.2 0.35 L-1.05 3.25 Q0.9 1.45 1.85 -0.55 -1.9 0.7 -5.5 0.5 L-4.1 -0.75 0.2 -2.5" fill="#cdc1ba" fill-rule="evenodd" stroke="none"/>
      <path d="M-5.5 0.5 Q-1.9 0.7 1.85 -0.55 0.9 1.45 -1.05 3.25 L-2.55 3.95 -5.75 3.8 Q-6.75 3.2 -6.25 1.8 L-5.5 0.5" fill="#f6f3f1" fill-rule="evenodd" stroke="none"/>
      <path d="M3.2 0.35 Q5.8 -1.95 6.25 -3.3 6.85 -4.7 4.75 -3.95 2.5 -3.0 0.2 -2.5 L-4.1 -0.75 -5.5 0.5 -6.25 1.8 Q-6.75 3.2 -5.75 3.8 L-2.55 3.95 -1.05 3.25 3.2 0.35 Z" fill="none" stroke="#000000" stroke-linecap="round" stroke-linejoin="round" stroke-opacity="0.3019608" stroke-width="0.5"/>
    </g>
    <g id="sprite3" transform="matrix(1.0, 0.0, 0.0, 1.0, 7.8, 3.3)">
      <use height="6.65" transform="matrix(1.0, 0.0, 0.0, 1.0, -7.8, -3.3)" width="15.6" xlink:href="#shape4"/>
    </g>
    <g id="shape4" transform="matrix(1.0, 0.0, 0.0, 1.0, 7.8, 3.3)">
      <path d="M0.45 0.3 L0.2 1.0 -1.7 0.9 Q-2.25 0.45 -1.65 0.25 L0.45 0.3" fill="#5c3e12" fill-rule="evenodd" stroke="none"/>
      <path d="M0.45 0.3 L4.3 -0.05 4.2 0.65 0.2 1.0 0.45 0.3" fill="#4d320f" fill-rule="evenodd" stroke="none"/>
      <path d="M7.55 -0.85 Q7.6 -0.55 7.25 -0.1 L4.2 0.65 4.3 -0.05 Q5.95 -0.3 7.55 -0.85" fill="#36220a" fill-rule="evenodd" stroke="none"/>
      <path d="M3.95 -1.8 L6.1 -1.55 Q7.35 -1.3 7.55 -0.85 5.95 -0.3 4.3 -0.05 L3.95 -1.8 M7.25 -0.1 Q5.2 1.45 3.4 2.0 L4.2 0.65 7.25 -0.1" fill="#aba19b" fill-rule="evenodd" stroke="none"/>
      <path d="M0.45 -2.55 L3.95 -1.8 4.3 -0.05 0.45 0.3 Q0.85 -1.0 0.45 -2.55 M3.4 2.0 L1.15 2.55 -1.55 3.05 Q-0.3 2.1 0.2 1.0 L4.2 0.65 3.4 2.0" fill="#cdc1ba" fill-rule="evenodd" stroke="none"/>
      <path d="M-1.55 3.05 L-4.55 2.9 Q-6.95 2.4 -7.35 0.95 -8.0 -0.25 -6.75 -1.5 -5.55 -2.9 -3.55 -3.05 L0.45 -2.55 Q0.85 -1.0 0.45 0.3 L-1.65 0.25 Q-2.25 0.45 -1.7 0.9 L0.2 1.0 Q-0.3 2.1 -1.55 3.05" fill="#f6f3f1" fill-rule="evenodd" stroke="none"/>
      <path d="M0.45 -2.55 L3.95 -1.8 6.1 -1.55 Q7.35 -1.3 7.55 -0.85 7.6 -0.55 7.25 -0.1 5.2 1.45 3.4 2.0 L1.15 2.55 -1.55 3.05 -4.55 2.9 Q-6.95 2.4 -7.35 0.95 -8.0 -0.25 -6.75 -1.5 -5.55 -2.9 -3.55 -3.05 L0.45 -2.55 Z" fill="none" stroke="#000000" stroke-linecap="round" stroke-linejoin="round" stroke-opacity="0.3019608" stroke-width="0.5"/>
      <path d="M-4.9 -1.3 Q-4.25 -1.3 -3.45 -0.35 L-2.95 0.3 Q-3.2 0.3 -3.6 0.65 -4.5 1.3 -5.1 1.35 L-6.05 1.1 Q-6.4 0.75 -6.35 0.2 -6.35 -0.4 -5.9 -0.85 -5.5 -1.3 -4.9 -1.3" fill="#5c3e12" fill-rule="evenodd" stroke="none"/>
      <path d="M-4.9 -1.3 Q-4.25 -1.3 -3.45 -0.35 L-2.95 0.3 Q-3.2 0.3 -3.6 0.65 -4.5 1.3 -5.1 1.35 L-6.05 1.1 Q-6.4 0.75 -6.35 0.2 -6.35 -0.4 -5.9 -0.85 -5.5 -1.3 -4.9 -1.3 Z" fill="none" stroke="#000000" stroke-linecap="round" stroke-linejoin="round" stroke-opacity="0.3019608" stroke-width="0.5"/>
    </g>
    <g id="shape5" transform="matrix(1.0, 0.0, 0.0, 1.0, -2.4, -0.9)">
      <path d="M27.0 20.05 L27.0 20.0 27.2 19.75 27.0 20.05" fill="#ebe1be" fill-rule="evenodd" stroke="none"/>
      <path d="M28.65 19.5 L27.75 20.55 25.85 22.0 28.65 19.5" fill="#ece1bd" fill-rule="evenodd" stroke="none"/>
      <path d="M34.4 15.75 L34.35 15.9 32.9 17.4 Q32.65 17.5 32.75 17.1 L34.25 15.75 34.4 15.75" fill="#9c8c65" fill-rule="evenodd" stroke="none"/>
      <path d="M31.25 16.0 L31.15 15.75 Q36.45 10.1 35.75 11.9 L34.4 13.8 Q33.15 15.3 32.55 15.6 L32.6 15.5 32.65 15.4 33.55 14.4 34.55 13.1 34.55 13.05 Q34.95 12.1 33.75 13.15 32.55 14.25 32.25 14.95 L32.3 15.2 32.15 15.3 32.1 15.25 32.0 15.25 31.65 15.55 31.65 15.75 31.4 15.85 31.25 16.0" fill="#f0ead2" fill-rule="evenodd" stroke="none"/>
      <path d="M32.85 13.05 Q33.15 12.9 33.0 13.2 L32.35 14.05 32.4 14.2 29.95 16.7 29.45 17.2 30.0 16.9 31.15 16.15 31.25 16.0 31.4 15.85 31.65 15.75 31.65 15.55 32.0 15.25 32.1 15.25 32.15 15.3 32.3 15.2 32.25 14.95 Q32.55 14.25 33.75 13.15 34.95 12.1 34.55 13.05 L34.55 13.1 33.55 14.4 32.65 15.4 32.6 15.5 32.55 15.6 32.4 15.85 31.95 16.2 31.7 16.45 31.45 16.8 30.2 18.0 28.8 19.2 26.85 20.5 26.4 20.55 26.55 20.25 25.5 21.15 25.4 21.1 25.4 21.0 26.4 19.8 27.45 18.9 27.45 18.8 27.95 18.25 28.15 18.1 30.45 15.7 30.65 15.45 31.35 14.7 32.1 13.7 32.35 13.4 32.6 13.2 32.85 13.05 M27.0 20.05 L27.2 19.75 27.0 20.0 27.0 20.05" fill="#f7f4d7" fill-rule="evenodd" stroke="none"/>
      <path d="M40.95 8.0 Q41.85 4.8 40.15 7.05 41.65 1.9 39.05 5.9 37.65 8.6 32.85 13.05 L32.6 13.2 33.75 11.85 36.0 9.15 Q37.75 7.0 39.55 1.2 41.65 5.2 41.3 6.7 L40.75 8.7 40.45 9.4 40.95 8.0" fill="#faf9d6" fill-rule="evenodd" stroke="none"/>
      <path d="M30.55 20.65 L29.85 21.3 27.9 22.95 23.95 26.3 17.0 31.5 16.4 30.75 19.85 28.3 Q19.8 28.65 20.1 28.5 L22.2 26.8 23.55 25.7 30.55 20.65" fill="#b58c4a" fill-rule="evenodd" stroke="none"/>
      <path d="M24.75 24.75 L23.55 25.7 22.2 26.8 20.1 28.5 Q19.8 28.65 19.85 28.3 L20.0 27.8 Q20.45 26.6 23.25 24.6 L24.3 23.9 23.85 24.3 23.9 24.55 24.25 24.8 24.75 24.75" fill="#916c2f" fill-rule="evenodd" stroke="none"/>
      <path d="M39.75 9.15 L39.75 9.3 38.7 10.95 38.6 11.25 37.75 12.2 Q36.95 13.1 36.85 13.35 L35.85 14.7 35.45 14.95 Q35.1 15.15 35.05 15.25 L34.4 15.75 34.25 15.75 34.25 15.55 34.4 15.3 34.7 14.9 35.25 14.5 35.9 13.75 37.05 12.45 37.25 12.15 38.6 10.5 39.3 9.45 Q39.65 9.0 39.75 9.15" fill="#876c36" fill-rule="evenodd" stroke="none"/>
      <path d="M31.2 18.0 L31.95 17.35 32.15 17.1 34.55 14.65 36.25 12.85 39.3 8.95 40.25 7.2 Q41.25 5.6 40.95 7.4 L39.75 9.15 Q39.65 9.0 39.3 9.45 L38.6 10.5 37.25 12.15 37.05 12.45 31.2 18.0" fill="#ebd16e" fill-rule="evenodd" stroke="none"/>
      <path d="M40.95 8.0 L40.95 7.4 Q41.25 5.6 40.25 7.2 L39.3 8.95 36.25 12.85 34.55 14.65 32.15 17.1 31.95 17.35 31.2 18.0 30.55 18.6 25.85 22.35 Q19.75 26.9 16.1 30.3 L15.55 29.7 14.85 29.2 17.95 27.3 Q22.45 24.5 28.65 19.5 L29.85 18.5 Q37.05 12.15 40.15 7.05 41.85 4.8 40.95 8.0 M28.65 19.5 L25.85 22.0 27.75 20.55 28.65 19.5" fill="#916928" fill-rule="evenodd" stroke="none"/>
      <path d="M40.15 7.05 Q37.05 12.15 29.85 18.5 L28.65 19.5 Q22.45 24.5 17.95 27.3 L14.85 29.2 14.25 28.95 17.6 26.65 Q22.55 23.1 26.4 19.6 L28.55 17.4 31.35 14.7 30.65 15.45 30.45 15.7 28.15 18.1 27.95 18.25 27.45 18.8 27.45 18.9 26.4 19.8 25.4 21.0 25.4 21.1 25.5 21.15 26.55 20.25 26.4 20.55 26.85 20.5 28.8 19.2 30.2 18.0 31.45 16.8 31.7 16.45 31.95 16.2 32.4 15.85 32.55 15.6 Q33.15 15.3 34.4 13.8 L35.75 11.9 Q36.45 10.1 31.15 15.75 L31.25 16.0 31.15 16.15 30.0 16.9 29.45 17.2 29.95 16.7 32.4 14.2 32.35 14.05 33.0 13.2 Q33.15 12.9 32.85 13.05 37.65 8.6 39.05 5.9 41.65 1.9 40.15 7.05" fill="#f5d847" fill-rule="evenodd" stroke="none"/>
      <path d="M40.95 7.4 L40.95 8.0 40.45 9.4 39.9 10.3 Q37.65 13.4 34.45 16.75 L30.55 20.65 23.55 25.7 24.75 24.75 25.25 24.25 26.15 23.25 Q26.4 22.45 25.8 22.8 25.4 23.0 25.05 23.3 L24.55 23.8 24.35 23.85 24.3 23.9 23.25 24.6 Q20.45 26.6 20.0 27.8 L19.85 28.3 16.4 30.75 16.15 30.3 16.1 30.3 Q19.75 26.9 25.85 22.35 L30.55 18.6 31.2 18.0 37.05 12.45 35.9 13.75 35.25 14.5 34.7 14.9 34.4 15.3 34.25 15.55 34.25 15.75 32.75 17.1 Q32.65 17.5 32.9 17.4 L34.35 15.9 34.4 15.75 35.05 15.25 Q35.1 15.15 35.45 14.95 L35.85 14.7 36.85 13.35 Q36.95 13.1 37.75 12.2 L38.6 11.25 38.7 10.95 39.75 9.3 39.75 9.15 40.95 7.4 M32.45 17.7 L32.1 17.95 Q31.95 17.8 30.55 18.9 L29.05 20.4 28.35 21.1 28.35 21.2 28.45 21.25 28.25 21.55 28.15 21.8 28.4 21.85 Q29.25 21.55 30.65 20.1 L31.1 19.7 32.6 18.1 Q32.75 17.6 32.45 17.7" fill="#c78741" fill-rule="evenodd" stroke="none"/>
      <path d="M32.45 17.7 Q32.75 17.6 32.6 18.1 L31.1 19.7 30.65 20.1 Q29.25 21.55 28.4 21.85 L28.15 21.8 28.25 21.55 28.45 21.25 28.35 21.2 28.35 21.1 29.05 20.4 30.55 18.9 Q31.95 17.8 32.1 17.95 L32.45 17.7 M24.3 23.9 L24.35 23.85 24.55 23.8 25.05 23.3 Q25.4 23.0 25.8 22.8 26.4 22.45 26.15 23.25 L25.25 24.25 24.75 24.75 24.25 24.8 23.9 24.55 23.85 24.3 24.3 23.9" fill="#ab7c20" fill-rule="evenodd" stroke="none"/>
      <path d="M32.6 13.2 L33.75 11.85 36.0 9.15 Q37.75 7.0 39.55 1.2 41.65 5.2 41.3 6.7 L40.75 8.7 40.45 9.4 39.9 10.3 Q37.65 13.4 34.45 16.75 L30.55 20.65 29.85 21.3 27.9 22.95 23.95 26.3 17.0 31.5 M31.35 14.7 L28.55 17.4 26.4 19.6 Q22.55 23.1 17.6 26.65 L14.25 28.95 M32.6 13.2 L32.35 13.4 32.1 13.7 31.35 14.7" fill="none" stroke="#000000" stroke-linecap="round" stroke-linejoin="round" stroke-opacity="0.3019608" stroke-width="0.6000000000000001"/>
      <path d="M40.15 7.05 Q37.05 12.15 29.85 18.5 L28.65 19.5 M14.85 29.2 L15.55 29.7 16.1 30.3 M40.25 7.2 Q41.25 5.6 40.95 7.4 M17.0 31.5 L16.4 30.75 16.15 30.3 16.1 30.3" fill="none" stroke="#ffffff" stroke-linecap="round" stroke-linejoin="round" stroke-opacity="0.2" stroke-width="0.4"/>
      <path d="M12.4 34.8 L12.25 34.75 12.35 34.7 12.4 34.8" fill="#c4dcdf" fill-rule="evenodd" stroke="none"/>
      <path d="M13.15 35.8 L13.0 35.8 13.0 35.75 12.9 35.7 12.4 34.8 13.15 35.8" fill="#858585" fill-rule="evenodd" stroke="none"/>
      <path d="M11.3 35.65 L11.3 35.75 11.2 35.9 11.1 35.9 10.8 36.2 10.0 36.95 9.95 36.95 8.55 38.1 7.8 38.65 5.95 40.05 4.3 41.05 4.0 40.75 10.65 35.55 11.05 35.5 11.1 35.5 11.3 35.65" fill="#944f0a" fill-rule="evenodd" stroke="none"/>
      <path d="M10.7 33.75 L11.85 35.2 11.8 35.3 11.45 35.55 11.3 35.65 11.1 35.5 11.05 35.5 10.8 35.35 10.15 35.15 10.1 35.1 8.55 36.15 7.4 36.85 5.95 38.05 5.05 38.8 5.4 39.0 5.4 39.25 5.4 39.0 5.6 39.05 5.4 39.25 4.45 39.35 Q4.0 39.7 3.65 40.4 L3.2 39.45 10.05 33.95 10.6 33.6 10.7 33.75 M7.9 37.35 Q6.85 37.7 7.4 36.85 L8.2 37.0 8.5 36.95 8.8 36.95 8.55 37.05 7.9 37.35" fill="#4e2905" fill-rule="evenodd" stroke="none"/>
      <path d="M10.55 32.45 L10.6 32.55 10.7 33.75 10.6 33.6 10.05 33.95 Q9.3 34.35 8.55 34.85 9.9 33.75 9.55 32.5 L10.55 32.45" fill="#6d3a07" fill-rule="evenodd" stroke="none"/>
      <path d="M12.25 34.75 L12.4 34.8 12.9 35.7 13.0 35.75 13.0 35.8 13.15 35.8 13.05 36.45 12.0 36.35 10.8 36.45 10.0 36.95 10.8 36.2 11.1 35.9 11.2 35.9 11.3 35.75 11.3 35.65 11.45 35.55 11.8 35.3 11.85 35.2 10.7 33.75 10.6 32.55 10.55 32.45 11.7 33.95 12.25 34.75" fill="#9d540b" fill-rule="evenodd" stroke="none"/>
      <path d="M3.65 40.4 Q4.0 39.7 4.45 39.35 L5.4 39.25 Q4.25 39.65 3.65 40.4 M5.4 39.0 L5.05 38.8 5.95 38.05 7.4 36.85 8.55 36.15 10.1 35.1 10.15 35.15 10.8 35.35 11.05 35.5 10.65 35.55 Q9.0 35.9 8.2 37.0 L7.4 36.85 Q6.85 37.7 7.9 37.35 5.85 38.15 5.4 39.0" fill="#f2d794" fill-rule="evenodd" stroke="none"/>
      <path d="M7.9 37.35 L8.55 37.05 8.8 36.95 8.5 36.95 8.2 37.0 Q9.0 35.9 10.65 35.55 L4.0 40.75 3.65 40.4 Q4.25 39.65 5.4 39.25 L5.6 39.05 5.4 39.0 Q5.85 38.15 7.9 37.35" fill="#5e3606" fill-rule="evenodd" stroke="none"/>
      <path d="M10.05 33.95 L3.2 39.45 3.0 39.1 5.95 36.65 6.1 36.45 7.35 35.6 8.35 34.9 8.55 34.85 Q9.3 34.35 10.05 33.95" fill="#dea240" fill-rule="evenodd" stroke="none"/>
      <path d="M12.25 34.75 L11.7 33.95 10.55 32.45 M11.3 35.65 L11.3 35.75 11.2 35.9 11.1 35.9 10.8 36.2 10.0 36.95 10.8 36.45 12.0 36.35 13.05 36.45 13.15 35.8 M12.4 34.8 L12.35 34.7 M12.4 34.8 L13.15 35.8 M3.2 39.45 L3.65 40.4 4.0 40.75 4.3 41.05 5.95 40.05 7.8 38.65 8.55 38.1 9.95 36.95 10.0 36.95 M5.4 39.25 L5.4 39.0 M11.05 35.5 L11.1 35.5 M8.55 34.85 Q9.9 33.75 9.55 32.5 L10.55 32.45 M8.35 34.9 L7.35 35.6 6.1 36.45 5.95 36.65 3.0 39.1 3.2 39.45 2.9 39.7" fill="none" stroke="#000000" stroke-linecap="round" stroke-linejoin="round" stroke-opacity="0.3019608" stroke-width="0.4"/>
      <path d="M10.75 34.15 L10.3 34.25 Q5.85 35.85 3.85 38.85 3.35 39.75 3.9 39.6 7.05 36.75 11.0 35.35 11.7 34.55 10.75 34.15" fill="url(#gradient0)" fill-rule="evenodd" stroke="none"/>
      <path d="M4.35 40.65 L4.05 39.75 3.35 39.1 Q2.95 38.9 2.65 39.1 2.35 39.3 2.4 39.75 L2.7 40.65 3.4 41.3 4.05 41.25 4.35 40.65" fill="#242424" fill-rule="evenodd" stroke="none"/>
      <path d="M4.35 40.65 L4.05 39.75 3.35 39.1 Q2.95 38.9 2.65 39.1 2.35 39.3 2.4 39.75 L2.7 40.65 3.4 41.3 4.05 41.25 4.35 40.65 Z" fill="none" stroke="#3d3d3d" stroke-linecap="round" stroke-linejoin="round" stroke-width="0.05"/>
    </g>
    <radialGradient cx="0" cy="0" gradientTransform="matrix(-2.0E-4, -0.0024, -0.0033, 0.0017, 7.1, 36.5)" gradientUnits="userSpaceOnUse" id="gradient0" r="819.2" spreadMethod="pad">
      <stop offset="0.0" stop-color="#ffffff" stop-opacity="0.4117647"/>
      <stop offset="1.0" stop-color="#ffffff" stop-opacity="0.0"/>
    </radialGradient>
    <g id="shape6" transform="matrix(1.0, 0.0, 0.0, 1.0, -3.35, -29.4)">
      <path d="M6.6 37.65 L6.5 37.6 6.55 37.6 6.6 37.65" fill="#c55c18" fill-rule="evenodd" stroke="none"/>
      <path d="M6.5 37.6 L6.55 37.5 6.55 37.6 6.5 37.6" fill="#ebd877" fill-rule="evenodd" stroke="none"/>
      <path d="M6.85 37.4 L9.75 34.2 12.95 32.25 7.15 37.3 6.85 37.4" fill="#f8eecb" fill-rule="evenodd" stroke="none"/>
      <path d="M12.95 32.25 L9.75 34.2 6.85 37.4 6.55 37.6 6.55 37.5 Q7.4 35.4 9.3 33.4 L12.15 31.7 7.5 32.25 3.6 34.05 Q4.8 32.05 7.5 30.25 L10.85 30.25 12.25 31.6 12.3 31.65 12.95 32.25 13.65 32.9 11.55 34.9 7.15 37.3 12.95 32.25 M13.95 33.2 L15.5 34.7 15.55 37.05 Q14.0 40.05 11.45 41.85 L13.25 37.3 13.95 33.2" fill="#f5d847" fill-rule="evenodd" stroke="none"/>
      <path d="M6.85 37.4 L7.15 37.3 11.55 34.9 13.65 32.9 13.95 33.2 13.25 37.3 11.45 41.85 12.15 38.7 12.2 35.9 Q9.75 37.35 6.6 37.65 L6.55 37.6 6.85 37.4 M9.3 33.4 L7.2 33.3 3.6 34.05 7.5 32.25 12.15 31.7 9.3 33.4" fill="#c78741" fill-rule="evenodd" stroke="none"/>
      <path d="M12.95 32.25 L13.65 32.9 13.95 33.2 15.5 34.7 15.55 37.05 Q14.0 40.05 11.45 41.85 L12.15 38.7 12.2 35.9 Q9.75 37.35 6.6 37.65 M6.5 37.6 L6.55 37.5 Q7.4 35.4 9.3 33.4 L7.2 33.3 3.6 34.05 Q4.8 32.05 7.5 30.25 L10.85 30.25 12.25 31.6 12.3 31.65 12.95 32.25 Z" fill="none" stroke="#000000" stroke-linecap="round" stroke-linejoin="round" stroke-opacity="0.3019608" stroke-width="0.5"/>
      <path d="M13.9 33.3 L14.15 33.2 11.35 29.4 11.2 29.7 13.9 33.3" fill="#242424" fill-opacity="0.14117648" fill-rule="evenodd" stroke="none"/>
      <path d="M11.2 29.7 L11.1 29.85 9.35 29.6 10.85 31.6 Q9.35 33.0 11.15 32.0 L11.95 33.05 11.95 33.1 12.65 34.05 13.15 33.6 13.3 33.6 13.9 33.3 11.2 29.7" fill="#2b2b2b" fill-opacity="0.2509804" fill-rule="evenodd" stroke="none"/>
    </g>
    <g id="shape7" transform="matrix(1.0, 0.0, 0.0, 1.0, -2.15, -0.95)">
      <path d="M17.05 31.65 Q15.2 31.3 14.95 29.35 20.05 26.05 20.15 27.9 L18.55 30.25 18.5 30.35 18.45 30.45 17.05 31.65" fill="#ada576" fill-rule="evenodd" stroke="none"/>
      <path d="M11.75 30.75 L11.55 31.05 Q11.3 31.5 11.35 31.65 L11.4 31.7 12.0 31.7 10.8 32.7 11.0 33.1 Q11.0 34.5 12.25 34.65 L12.6 34.85 13.9 33.85 Q13.6 34.45 13.75 34.6 L14.35 34.5 14.65 34.3 13.45 35.45 13.4 35.45 13.3 35.35 11.75 35.45 11.7 35.45 11.65 35.55 10.55 34.25 10.1 33.45 10.55 31.9 10.45 31.9 11.75 30.75 M14.3 29.5 L14.3 29.35 14.2 29.25 16.6 27.8 14.85 29.05 14.3 29.5 M16.45 32.1 L17.05 31.65 18.45 30.45 16.65 32.4 16.6 32.15 16.45 32.1" fill="#eadbc4" fill-rule="evenodd" stroke="none"/>
      <path d="M14.3 29.5 L14.85 29.05 Q14.85 29.5 14.95 29.35 15.2 31.3 17.05 31.65 L16.45 32.1 15.95 32.2 14.8 33.0 13.9 33.85 12.6 34.85 12.25 34.65 Q11.0 34.5 11.0 33.1 L10.8 32.7 12.0 31.7 13.15 30.9 14.15 29.95 14.3 29.5 M10.55 34.25 L10.05 33.55 10.1 33.45 10.55 34.25" fill="#cdc098" fill-rule="evenodd" stroke="none"/>
      <path d="M14.2 29.25 L13.65 29.35 12.5 30.1 11.75 30.75 10.45 31.9 Q11.1 29.5 11.95 29.45 L16.6 27.8 14.2 29.25 M18.45 30.45 L16.0 34.4 Q15.85 35.15 13.45 35.45 L14.65 34.3 15.5 33.75 16.45 32.8 16.65 32.4 18.45 30.45" fill="#83795c" fill-rule="evenodd" stroke="none"/>
      <path d="M11.75 30.75 L12.5 30.1 13.65 29.35 14.2 29.25 14.3 29.35 14.3 29.5 Q12.75 30.1 11.35 31.65 11.3 31.5 11.55 31.05 L11.75 30.75 M16.65 32.4 L16.45 32.8 15.5 33.75 14.65 34.3 14.35 34.5 13.75 34.6 Q15.45 33.65 16.6 32.15 L16.65 32.4" fill="#645c46" fill-rule="evenodd" stroke="none"/>
      <path d="M14.95 29.35 Q14.85 29.5 14.85 29.05 L16.6 27.8 19.2 26.9 Q20.5 26.7 20.15 27.9 20.05 26.05 14.95 29.35" fill="#d1c7a3" fill-rule="evenodd" stroke="none"/>
      <path d="M11.35 31.65 Q12.75 30.1 14.3 29.5 L14.15 29.95 13.15 30.9 12.0 31.7 11.4 31.7 11.35 31.65 M13.9 33.85 L14.8 33.0 15.95 32.2 16.45 32.1 16.6 32.15 Q15.45 33.65 13.75 34.6 13.6 34.45 13.9 33.85" fill="#383327" fill-rule="evenodd" stroke="none"/>
      <path d="M11.7 35.45 L11.65 35.55" fill="none" stroke="#69604b" stroke-linecap="round" stroke-linejoin="round" stroke-width="0.25"/>
      <path d="M16.6 27.8 L11.95 29.45 Q11.1 29.5 10.45 31.9 M16.6 27.8 L19.2 26.9 Q20.5 26.7 20.15 27.9 L18.55 30.25 18.5 30.35 18.45 30.45 16.0 34.4 Q15.85 35.15 13.45 35.45 L13.4 35.45 13.3 35.35 11.75 35.45 M11.65 35.55 L10.55 34.25 M10.1 33.45 L10.55 31.9 10.45 31.9 M10.1 33.45 L10.55 34.25" fill="none" stroke="#000000" stroke-linecap="round" stroke-linejoin="round" stroke-opacity="0.3019608" stroke-width="0.4"/>
      <path d="M14.2 29.25 L13.65 29.35 12.5 30.1 11.75 30.75 11.55 31.05 Q11.3 31.5 11.35 31.65 M14.3 29.35 L14.2 29.25 M16.65 32.4 L16.45 32.8 15.5 33.75 14.65 34.3 M16.6 32.15 L16.65 32.4 M16.45 32.1 L16.6 32.15 M13.75 34.6 L14.35 34.5 14.65 34.3 M13.75 34.6 Q13.6 34.45 13.9 33.85 M12.0 31.7 L11.4 31.7 11.35 31.65" fill="none" stroke="#000000" stroke-linecap="round" stroke-linejoin="round" stroke-opacity="0.3019608" stroke-width="0.25"/>
      <path d="M14.3 29.5 L14.3 29.35 M14.3 29.5 L14.15 29.95 13.15 30.9 12.0 31.7 M13.9 33.85 L14.8 33.0 15.95 32.2 16.45 32.1" fill="none" stroke="#ffffff" stroke-linecap="round" stroke-linejoin="round" stroke-opacity="0.4" stroke-width="0.25"/>
      <path d="M12.35 29.25 L19.3 26.9 19.35 26.9 19.5 26.85 Q20.2 26.8 20.05 27.9 18.3 30.3 16.4 33.65 L17.15 31.65 Q14.8 31.3 14.8 29.3 L12.35 29.25" fill="url(#gradient1)" fill-rule="evenodd" stroke="none"/>
      <path d="M15.1 31.8 L16.05 34.9 Q15.15 35.55 13.55 35.5 L11.7 35.6 10.15 33.45 Q10.45 31.8 11.4 29.8 13.0 31.9 15.1 31.8" fill="url(#gradient2)" fill-rule="evenodd" stroke="none"/>
      <path d="M19.6 28.3 Q17.2 31.6 13.3 34.45 L12.95 34.7 Q12.3 34.6 13.15 33.65 16.55 31.15 19.8 27.6 20.25 27.3 19.6 28.3" fill="url(#gradient3)" fill-rule="evenodd" stroke="none"/>
      <path d="M40.75 8.7 L40.45 9.4 39.9 10.3 Q37.65 13.4 34.45 16.75 L30.55 20.65 29.85 21.3 27.9 22.95 23.95 26.3 18.5 30.4 18.45 30.45 18.15 30.95 18.55 30.9 20.65 30.3 23.15 29.95 Q24.4 30.05 25.2 31.1 26.05 32.05 25.7 32.95 25.5 34.05 24.0 34.45 L23.25 34.6 24.0 35.4 24.5 36.35 Q24.85 37.45 24.3 37.9 L22.3 38.0 21.3 37.45 21.0 37.25 21.85 38.7 21.8 39.8 Q21.55 40.55 20.65 40.35 L19.4 39.6 18.65 38.65 18.6 39.3 18.05 40.25 Q17.5 40.6 16.75 39.95 L15.9 38.85 15.5 37.15 15.45 37.25 15.7 39.15 15.45 40.1 15.0 40.9 Q14.45 41.65 13.8 41.55 13.15 41.6 12.9 40.7 L11.45 41.85 11.6 41.25 11.3 41.4 Q10.7 41.65 10.45 41.05 10.25 40.7 10.4 40.0 L10.8 39.0 10.7 39.05 10.15 39.45 9.3 39.65 Q8.75 39.55 8.9 38.75 L9.2 37.8 9.95 36.95 8.55 38.1 7.8 38.65 5.95 40.05 4.3 41.05 4.05 41.25 3.4 41.3 2.7 40.65 2.4 39.75 Q2.35 39.3 2.65 39.1 L3.1 39.0 5.3 37.2 6.1 36.5 6.1 36.45 6.25 36.4 7.1 35.8 7.15 35.75 7.2 35.7 7.3 35.65 7.35 35.6 7.7 35.4 8.15 34.8 7.5 35.15 6.4 35.3 Q5.7 35.3 5.65 34.75 5.7 34.35 6.05 33.9 L6.55 33.45 5.55 33.65 3.6 34.05 4.25 33.15 Q4.1 32.85 4.35 32.45 L5.1 31.8 5.75 31.6 6.15 31.25 6.1 31.25 5.3 31.05 Q4.4 30.5 4.55 29.9 4.6 29.3 5.5 28.85 L6.35 28.55 7.35 28.45 8.6 28.85 7.6 28.4 6.75 27.35 Q6.25 26.5 6.7 26.0 7.05 25.6 7.65 25.65 L8.4 25.8 7.55 24.75 Q7.05 24.0 7.05 23.4 6.95 22.5 7.75 22.45 L8.85 22.6 10.2 23.75 10.0 23.3 9.65 22.25 Q9.5 20.75 10.15 20.3 L11.65 20.35 12.6 21.0 13.15 21.85 13.4 21.2 Q14.05 19.85 15.2 19.85 16.15 19.65 16.9 20.6 17.85 21.6 17.7 22.85 L16.9 25.25 15.95 27.25 15.65 28.0 17.6 26.65 Q22.55 23.1 26.4 19.6 L28.55 17.4 31.35 14.7 32.1 13.7 32.35 13.4 32.6 13.2 33.75 11.85 36.0 9.15 Q37.75 7.0 39.55 1.2 41.65 5.2 41.3 6.7 L41.1 7.45 40.95 8.0 40.75 8.7 M11.1 29.85 L10.5 29.8 9.4 29.15 9.7 29.25 11.2 29.75 11.1 29.85" fill="none" stroke="#000000" stroke-linecap="round" stroke-linejoin="round" stroke-opacity="0.4509804" stroke-width="0.5"/>
      <path d="M32.4 12.9 L24.65 5.05 31.4 13.65 27.6 16.5 31.7 14.35 34.4 16.2 33.0 13.7 39.05 9.3 Q35.75 11.05 32.4 12.9" fill="#fcf3d8" fill-opacity="0.7921569" fill-rule="evenodd" stroke="none"/>
      <path d="M29.75 12.3 L26.8 12.25 Q28.55 12.9 29.1 14.0 29.05 14.8 29.4 15.45 29.95 16.5 31.1 16.8 L33.4 16.55 34.75 18.4 34.15 16.05 35.05 14.75 35.2 13.25 36.15 12.4 34.9 12.4 34.9 12.3 Q34.25 11.4 33.15 11.0 31.95 10.75 30.9 11.35 30.15 11.7 29.75 12.3 M33.8 14.2 Q33.55 14.85 33.05 15.1 L31.8 15.25 Q31.2 15.1 31.0 14.6 30.7 14.05 30.9 13.45 31.1 12.9 31.7 12.55 32.3 12.15 32.9 12.35 33.4 12.55 33.7 13.1 33.95 13.65 33.8 14.2" fill="#fcf3d8" fill-opacity="0.3019608" fill-rule="evenodd" stroke="none"/>
      <path d="M33.8 14.2 Q33.95 13.65 33.7 13.1 33.4 12.55 32.9 12.35 32.3 12.15 31.7 12.55 31.1 12.9 30.9 13.45 30.7 14.05 31.0 14.6 31.2 15.1 31.8 15.25 L33.05 15.1 Q33.55 14.85 33.8 14.2" fill="#fcf3d8" fill-opacity="0.84313726" fill-rule="evenodd" stroke="none"/>
    </g>
    <radialGradient cx="0" cy="0" gradientTransform="matrix(0.0064, 0.0, 0.0, 0.0064, 17.65, 28.25)" gradientUnits="userSpaceOnUse" id="gradient1" r="819.2" spreadMethod="pad">
      <stop offset="0.0" stop-color="#ffffff"/>
      <stop offset="1.0" stop-color="#ffffff" stop-opacity="0.0"/>
    </radialGradient>
    <radialGradient cx="0" cy="0" gradientTransform="matrix(0.0084, 0.0, 0.0, 0.0084, 10.45, 37.0)" gradientUnits="userSpaceOnUse" id="gradient2" r="819.2" spreadMethod="pad">
      <stop offset="0.0" stop-color="#000000" stop-opacity="0.77254903"/>
      <stop offset="1.0" stop-color="#000000" stop-opacity="0.0"/>
    </radialGradient>
    <radialGradient cx="0" cy="0" gradientTransform="matrix(-6.0E-4, 0.0021, 0.003, -0.0025, 16.45, 31.45)" gradientUnits="userSpaceOnUse" id="gradient3" r="819.2" spreadMethod="pad">
      <stop offset="0.0" stop-color="#ffffff" stop-opacity="0.7137255"/>
      <stop offset="1.0" stop-color="#ffffff" stop-opacity="0.0"/>
    </radialGradient>
  </defs>
</svg>
