<?xml version="1.0" encoding="UTF-8" standalone="no"?>
<svg xmlns:xlink="http://www.w3.org/1999/xlink" height="520.0px" width="520.0px" xmlns="http://www.w3.org/2000/svg">
  <g transform="matrix(10.0, 0.0, 0.0, 10.0, 0.0, 0.0)">
    <use height="52.0" transform="matrix(1.0, 0.0, 0.0, 1.0, 0.0, 0.0)" width="52.0" xlink:href="#shape0"/>
    <use height="136.85" transform="matrix(0.0601, 0.031, -0.1053, 0.106, 40.0727, 7.5757)" width="148.25" xlink:href="#sprite0"/>
    <use height="136.85" transform="matrix(0.0657, 0.0339, -0.0545, 0.0549, 19.0114, 23.8383)" width="148.25" xlink:href="#sprite0"/>
    <use height="136.85" transform="matrix(0.0456, 0.0286, -0.1144, 0.0975, 40.4853, 10.3114)" width="148.25" xlink:href="#sprite0"/>
  </g>
  <defs>
    <g id="shape0" transform="matrix(1.0, 0.0, 0.0, 1.0, 0.0, 0.0)">
      <path d="M52.0 0.0 L52.0 52.0 0.0 52.0 0.0 0.0 52.0 0.0" fill="#795fa9" fill-opacity="0.0" fill-rule="evenodd" stroke="none"/>
      <path d="M44.05 4.95 L44.45 5.45 Q45.6 7.0 46.25 8.8 47.25 11.0 47.65 13.65 39.75 21.85 28.55 30.05 L28.7 30.75 Q28.85 32.0 28.45 32.9 28.55 35.2 27.2 36.85 L26.5 37.55 26.1 38.05 Q25.0 39.35 23.45 39.8 22.05 40.75 20.05 40.65 L18.85 40.5 17.75 40.3 16.8 40.0 Q14.65 41.1 13.05 42.6 11.15 44.4 10.1 46.8 L10.1 47.35 Q10.0 48.0 9.15 47.9 8.35 47.8 7.3 46.95 6.25 46.15 5.6 45.05 4.95 44.05 5.05 43.35 5.2 42.7 6.0 42.8 L6.15 42.85 Q8.8 41.95 11.3 38.65 L13.0 36.25 12.85 35.9 Q12.45 35.2 12.2 34.5 L11.95 33.5 Q11.4 30.6 12.95 28.7 L13.4 28.2 13.95 27.4 14.4 26.95 15.0 26.1 Q16.65 24.05 19.65 24.15 L21.25 24.4 23.25 24.5 Q33.4 15.25 40.8 6.7 L40.85 6.65 40.95 6.55 43.15 3.9 44.05 4.95 M28.45 32.9 L28.3 31.8 27.95 30.5 27.6 29.65 26.55 27.95 26.5 27.85 25.15 26.5 24.75 26.15 24.05 25.65 Q22.7 24.75 21.25 24.4 M28.55 30.05 L28.25 29.15 27.25 27.35 27.15 27.2 26.85 26.85 Q25.65 25.55 24.25 24.9 L23.9 24.7 23.25 24.5 M26.5 37.55 Q27.75 35.65 27.25 33.0 27.0 31.55 26.3 30.3 L25.35 28.95 25.1 28.65 24.45 28.05 24.2 27.8 Q21.65 25.6 18.65 25.5 16.05 25.4 14.4 26.95 M18.85 40.5 Q20.05 40.55 20.9 39.8 22.15 38.75 21.9 36.75 21.7 35.35 20.95 34.1 L20.05 32.85 Q18.45 31.05 16.45 30.5 14.45 29.95 13.25 31.0 12.05 32.05 12.3 34.05 L12.4 34.7 12.85 35.9 M13.4 28.2 Q14.9 26.8 17.35 26.85 20.15 27.0 22.55 29.1 23.55 29.95 24.2 30.95 25.15 32.4 25.5 34.05 26.05 36.9 24.45 38.85 L23.45 39.8 M13.0 36.25 L13.5 35.55 13.5 35.5 13.65 35.25 Q14.3 34.25 15.45 34.65 16.2 34.9 17.2 35.8 19.05 37.9 17.95 39.4 L17.65 39.55 16.8 40.0 M27.25 27.35 Q35.55 20.35 43.65 12.55" fill="none" stroke="#000000" stroke-linecap="round" stroke-linejoin="round" stroke-opacity="0.3019608" stroke-width="1.0"/>
      <path d="M40.85 6.65 L40.95 6.5 40.95 6.55 40.85 6.65" fill="#abbac1" fill-rule="evenodd" stroke="none"/>
      <path d="M40.95 6.55 L43.15 3.9 44.05 4.95 40.6 8.5 31.7 17.95 31.7 17.9 31.65 17.95 31.3 18.25 23.95 25.15 22.9 24.8 Q33.25 15.4 40.8 6.7 L40.85 6.65 40.95 6.55 M46.25 8.8 Q47.25 11.0 47.65 13.65 39.25 22.4 27.1 31.1 L26.5 30.4 Q35.9 23.9 43.55 16.6 L43.75 16.45 46.1 14.15 Q47.25 12.75 46.25 8.8" fill="#ffffff" fill-rule="evenodd" stroke="none"/>
      <path d="M26.5 30.4 L24.75 29.6 24.7 29.45 23.95 25.15 31.3 18.25 31.65 17.95 31.65 18.0 Q29.75 21.95 31.0 23.35 L25.65 28.7 Q34.75 21.15 43.65 12.55 41.6 17.95 43.75 16.45 L43.55 16.6 Q35.9 23.9 26.5 30.4 M25.65 28.7 L25.6 28.75 24.7 29.45 25.6 28.75 25.65 28.7" fill="#9095a7" fill-rule="evenodd" stroke="none"/>
      <path d="M44.05 4.95 L44.45 5.45 Q45.6 7.0 46.25 8.8 47.25 12.75 46.1 14.15 L43.75 16.45 Q41.6 17.95 43.65 12.55 34.75 21.15 25.65 28.7 L31.0 23.35 39.85 13.7 40.6 8.5 44.05 4.95" fill="#d8e1e9" fill-rule="evenodd" stroke="none"/>
      <path d="M40.6 8.5 L39.85 13.7 31.0 23.35 Q29.75 21.95 31.65 18.0 L31.65 17.95 31.7 17.9 31.7 17.95 40.6 8.5" fill="#a6bdc6" fill-rule="evenodd" stroke="none"/>
      <path d="M40.95 6.55 L43.15 3.9 44.05 4.95 44.45 5.45 Q45.6 7.0 46.25 8.8 47.25 11.0 47.65 13.65 39.25 22.4 27.1 31.1 M22.9 24.8 Q33.25 15.4 40.8 6.7 L40.85 6.65 M40.95 6.55 L40.85 6.65" fill="none" stroke="#000000" stroke-linecap="round" stroke-linejoin="round" stroke-opacity="0.4" stroke-width="1.5"/>
      <path d="M25.65 28.7 Q34.75 21.15 43.65 12.55 M24.7 29.45 L25.6 28.75 25.65 28.7" fill="none" stroke="#000000" stroke-linecap="round" stroke-linejoin="round" stroke-opacity="0.3019608" stroke-width="1.5"/>
      <path d="M23.85 24.7 Q25.45 25.35 26.85 26.85 28.4 28.7 28.7 30.75 28.85 32.0 28.4 32.9 L28.3 31.8 Q27.7 28.75 25.15 26.5 L24.75 26.15 23.85 24.7" fill="#b19741" fill-rule="evenodd" stroke="none"/>
      <path d="M25.1 28.65 Q25.25 27.4 24.75 26.15 L25.15 26.5 Q27.7 28.75 28.3 31.8 L28.4 32.9 Q28.5 35.2 27.15 36.85 L26.5 37.55 Q27.75 35.65 27.25 33.0 26.8 30.6 25.1 28.65 M23.4 39.8 Q22.05 40.75 20.05 40.6 L18.8 40.5 Q20.05 40.55 20.9 39.8 22.1 38.75 21.9 36.75 21.7 35.35 20.9 34.1 L24.2 30.95 Q25.15 32.4 25.5 34.05 26.0 36.9 24.4 38.85 L23.4 39.8" fill="#560000" fill-rule="evenodd" stroke="none"/>
      <path d="M26.5 37.55 L26.1 38.05 Q25.0 39.35 23.4 39.8 L24.4 38.85 Q26.0 36.9 25.5 34.05 25.15 32.4 24.2 30.95 L24.2 30.9 Q24.9 29.75 25.1 28.65 26.8 30.6 27.25 33.0 27.75 35.65 26.5 37.55 M18.8 40.5 L17.7 40.3 Q15.8 39.75 14.15 37.95 13.3 36.95 12.8 35.9 L12.35 34.65 Q15.8 38.05 20.9 34.1 21.7 35.35 21.9 36.75 22.1 38.75 20.9 39.8 20.05 40.55 18.8 40.5" fill="#d8ca7c" fill-rule="evenodd" stroke="none"/>
      <path d="M14.4 26.95 L14.95 26.05 Q16.65 24.05 19.65 24.15 L21.25 24.4 Q23.1 24.85 24.75 26.15 25.25 27.4 25.1 28.65 L24.2 27.8 Q21.65 25.6 18.65 25.5 16.0 25.4 14.4 26.95 M12.8 35.9 L12.2 34.45 11.9 33.45 Q11.35 30.6 12.9 28.7 L13.35 28.2 Q14.9 26.8 17.35 26.85 20.1 27.0 22.55 29.1 23.55 29.95 24.2 30.95 L20.9 34.1 20.0 32.85 Q18.4 31.05 16.45 30.5 14.45 29.95 13.25 31.0 12.0 32.0 12.25 34.05 L12.35 34.65 12.8 35.9" fill="#780101" fill-rule="evenodd" stroke="none"/>
      <path d="M14.4 26.95 Q16.0 25.4 18.65 25.5 21.65 25.6 24.2 27.8 L25.1 28.65 Q24.9 29.75 24.2 30.9 L24.2 30.95 Q23.55 29.95 22.55 29.1 20.1 27.0 17.35 26.85 14.9 26.8 13.35 28.2 L13.95 27.4 14.4 26.95 M24.75 26.15 Q23.1 24.85 21.25 24.4 L23.2 24.5 23.85 24.7 24.75 26.15 M12.35 34.65 L12.25 34.05 Q12.0 32.0 13.25 31.0 14.45 29.95 16.45 30.5 18.4 31.05 20.0 32.85 L20.9 34.1 Q15.8 38.05 12.35 34.65" fill="#fbf1bf" fill-rule="evenodd" stroke="none"/>
      <path d="M21.25 24.4 L19.65 24.15 Q16.65 24.05 14.95 26.05 L14.4 26.95 Q16.0 25.4 18.65 25.5 21.65 25.6 24.2 27.8 L25.1 28.65 M24.75 26.15 Q23.1 24.85 21.25 24.4 L23.2 24.5 23.85 24.7 Q25.45 25.35 26.85 26.85 28.4 28.7 28.7 30.75 28.85 32.0 28.4 32.9 28.5 35.2 27.15 36.85 L26.5 37.55 26.1 38.05 Q25.0 39.35 23.4 39.8 22.05 40.75 20.05 40.6 L18.8 40.5 17.7 40.3 Q15.8 39.75 14.15 37.95 13.3 36.95 12.8 35.9 L12.2 34.45 11.9 33.45 Q11.35 30.6 12.9 28.7 L13.35 28.2 13.95 27.4 14.4 26.95 M24.75 26.15 L25.15 26.5 Q27.7 28.75 28.3 31.8 L28.4 32.9 M20.9 34.1 L20.0 32.85 Q18.4 31.05 16.45 30.5 14.45 29.95 13.25 31.0 12.0 32.0 12.25 34.05 L12.35 34.65 M24.2 30.95 Q23.55 29.95 22.55 29.1 20.1 27.0 17.35 26.85 14.9 26.8 13.35 28.2 M12.8 35.9 L12.35 34.65 M24.2 30.95 Q25.15 32.4 25.5 34.05 26.0 36.9 24.4 38.85 L23.4 39.8 M26.5 37.55 Q27.75 35.65 27.25 33.0 26.8 30.6 25.1 28.65 M18.8 40.5 Q20.05 40.55 20.9 39.8 22.1 38.75 21.9 36.75 21.7 35.35 20.9 34.1" fill="none" stroke="#000000" stroke-linecap="square" stroke-linejoin="miter" stroke-miterlimit="10.0" stroke-opacity="0.3019608" stroke-width="0.05"/>
      <path d="M18.7 38.75 Q18.95 37.95 18.4 36.75 17.85 35.65 16.8 34.8 15.7 33.95 14.8 33.9 13.8 33.9 13.55 34.65 13.35 35.45 13.95 36.65 14.5 37.85 15.55 38.65 16.65 39.5 17.55 39.5 18.5 39.55 18.7 38.75" fill="#403304" fill-opacity="0.3019608" fill-rule="evenodd" stroke="none"/>
      <path d="M15.4 34.6 L12.05 39.15 Q11.7 42.55 13.05 42.6 15.05 40.7 17.9 39.4 19.0 37.9 17.25 35.75 16.2 34.85 15.4 34.6" fill="#6e5229" fill-rule="evenodd" stroke="none"/>
      <path d="M12.05 39.15 L10.55 40.8 Q8.4 43.1 6.1 44.55 7.0 46.55 8.55 47.65 L9.9 47.25 Q10.95 44.6 13.05 42.6 11.7 42.55 12.05 39.15" fill="#50361f" fill-rule="evenodd" stroke="none"/>
      <path d="M11.3 38.65 Q12.1 38.4 12.05 39.15 L15.4 34.6 Q14.25 34.2 13.65 35.2 L11.3 38.65" fill="#a08545" fill-rule="evenodd" stroke="none"/>
      <path d="M12.05 39.15 Q12.1 38.4 11.3 38.65 8.55 42.3 5.55 42.95 5.75 43.8 6.1 44.55 8.4 43.1 10.55 40.8 L12.05 39.15" fill="#7d6735" fill-rule="evenodd" stroke="none"/>
      <path d="M11.3 38.65 L13.65 35.2 M6.1 44.55 Q5.75 43.8 5.55 42.95 8.55 42.3 11.3 38.65 M17.9 39.4 Q15.05 40.7 13.05 42.6 M9.9 47.25 Q10.95 44.6 13.05 42.6 M6.1 44.55 Q7.0 46.55 8.55 47.65" fill="none" stroke="#000000" stroke-linecap="square" stroke-linejoin="miter" stroke-miterlimit="10.0" stroke-opacity="0.3019608" stroke-width="0.05"/>
      <path d="M13.65 35.2 Q14.25 34.2 15.4 34.6 16.2 34.85 17.25 35.75 19.0 37.9 17.9 39.4" fill="none" stroke="#000000" stroke-linecap="round" stroke-linejoin="round" stroke-opacity="0.3019608" stroke-width="0.05"/>
      <path d="M9.15 47.85 Q10.0 48.0 10.1 47.3 10.2 46.65 9.55 45.55 8.9 44.55 7.85 43.7 6.8 42.9 6.0 42.75 5.15 42.65 5.05 43.3 4.95 44.0 5.6 45.05 6.3 46.15 7.35 46.95 8.4 47.8 9.15 47.85" fill="#6e5229" fill-rule="evenodd" stroke="none"/>
      <path d="M9.15 47.85 Q10.0 48.0 10.1 47.3 10.2 46.65 9.55 45.55 8.9 44.55 7.85 43.7 6.8 42.9 6.0 42.75 5.15 42.65 5.05 43.3 4.95 44.0 5.6 45.05 6.3 46.15 7.35 46.95 8.4 47.8 9.15 47.85 Z" fill="none" stroke="#000000" stroke-linecap="square" stroke-linejoin="miter" stroke-miterlimit="10.0" stroke-opacity="0.3019608" stroke-width="0.05"/>
      <path d="M8.3 47.25 Q8.85 47.3 8.95 46.85 L8.55 45.7 7.45 44.4 Q6.75 43.85 6.15 43.8 5.65 43.7 5.6 44.15 5.5 44.6 5.9 45.35 L7.1 46.6 8.3 47.25" fill="#50361f" fill-rule="evenodd" stroke="none"/>
    </g>
    <g id="sprite0" transform="matrix(1.0, 0.0, 0.0, 1.0, 73.5, 65.0)">
      <use height="136.85" transform="matrix(1.0, 0.0, 0.0, 1.0, -73.5, -65.0)" width="148.25" xlink:href="#shape1"/>
    </g>
    <g id="shape1" transform="matrix(1.0, 0.0, 0.0, 1.0, 73.5, 65.0)">
      <path d="M36.65 -54.65 Q60.05 -42.0 69.75 -17.95 80.55 8.9 68.0 34.1 55.45 59.35 26.8 68.2 -1.8 77.05 -29.7 64.3 -57.6 51.6 -68.45 24.75 -79.3 -2.05 -66.75 -27.25 L-66.7 -27.3 Q-54.1 -52.5 -25.5 -61.4 3.1 -70.2 31.0 -57.5 L36.65 -54.65" fill="url(#gradient0)" fill-rule="evenodd" stroke="none"/>
    </g>
    <radialGradient cx="0" cy="0" gradientTransform="matrix(0.0914, 0.0, 0.0, 0.0914, 0.6, 3.4)" gradientUnits="userSpaceOnUse" id="gradient0" r="819.2" spreadMethod="pad">
      <stop offset="0.0" stop-color="#ffffff"/>
      <stop offset="1.0" stop-color="#ffffff" stop-opacity="0.0"/>
    </radialGradient>
  </defs>
</svg>
