<?xml version="1.0" encoding="UTF-8" standalone="no"?>
<svg xmlns:xlink="http://www.w3.org/1999/xlink" height="520.0px" width="520.0px" xmlns="http://www.w3.org/2000/svg">
  <g transform="matrix(10.0, 0.0, 0.0, 10.0, 0.0, 0.0)">
    <use height="52.0" transform="matrix(1.0, 0.0, 0.0, 1.0, 0.0, 0.0)" width="52.0" xlink:href="#shape0"/>
    <use height="81.5" transform="matrix(-0.1596, 0.0099, 0.0099, 0.1596, 20.6, 29.45)" width="81.5" xlink:href="#sprite0"/>
    <use height="81.5" transform="matrix(-0.1596, 0.0099, 0.0099, 0.1596, 49.15, 2.65)" width="81.5" xlink:href="#sprite0"/>
    <use height="48.0" transform="matrix(1.0, 0.0, 0.0, 1.0, 1.7, 2.05)" width="47.95" xlink:href="#shape2"/>
  </g>
  <defs>
    <g id="shape0" transform="matrix(1.0, 0.0, 0.0, 1.0, 0.0, 0.0)">
      <path d="M52.0 0.0 L52.0 52.0 0.0 52.0 0.0 0.0 52.0 0.0" fill="#795fa9" fill-opacity="0.0" fill-rule="evenodd" stroke="none"/>
      <path d="M2.6 47.1 L10.3 38.25 11.1 39.9 7.25 44.6 4.35 47.4 2.6 47.1" fill="#888f2f" fill-rule="evenodd" stroke="none"/>
      <path d="M2.25 49.45 L2.6 47.1 4.35 47.4 3.35 48.4 2.25 49.45" fill="#767b26" fill-rule="evenodd" stroke="none"/>
      <path d="M10.3 38.25 L12.7 35.4 16.65 35.05 16.65 35.1 13.0 38.7 11.1 39.9 10.3 38.25 M13.45 41.5 L4.7 49.15 4.6 49.15 4.25 47.5 3.35 48.4 4.35 47.4 7.25 44.6 11.9 40.55 13.45 41.5" fill="#525409" fill-rule="evenodd" stroke="none"/>
      <path d="M11.1 39.9 L13.0 38.7 11.9 40.55 7.25 44.6 11.1 39.9" fill="#d4db70" fill-rule="evenodd" stroke="none"/>
      <path d="M4.6 49.15 L2.2 49.55 2.25 49.45 3.35 48.4 4.25 47.5 4.6 49.15" fill="#3f4107" fill-rule="evenodd" stroke="none"/>
      <path d="M16.65 35.1 L16.3 38.95 13.45 41.5 11.9 40.55 13.0 38.7 16.65 35.1" fill="#444608" fill-rule="evenodd" stroke="none"/>
      <path d="M10.3 38.25 L12.7 35.4 16.65 35.05 16.65 35.1 16.3 38.95 13.45 41.5 4.7 49.15 4.6 49.15 2.2 49.55 2.25 49.45 2.6 47.1 10.3 38.25 Z" fill="none" stroke="#000000" stroke-linecap="round" stroke-linejoin="round" stroke-opacity="0.29803923" stroke-width="0.1"/>
      <path d="M9.4 33.2 Q10.1 32.65 11.8 33.5 13.6 34.4 15.45 36.3 17.35 38.15 18.2 39.9 19.1 41.65 18.5 42.25 L18.4 42.4 16.1 41.5 12.8 39.1 Q10.8 36.9 10.0 34.95 L9.4 33.2" fill="#a09657" fill-rule="evenodd" stroke="none"/>
      <path d="M9.4 33.2 Q9.15 31.75 9.5 30.45 L9.8 29.6 Q16.9 35.1 22.3 42.05 L21.5 42.4 Q20.0 42.75 18.4 42.4 L18.5 42.25 Q19.1 41.65 18.2 39.9 17.35 38.15 15.45 36.3 13.6 34.4 11.8 33.5 10.1 32.65 9.4 33.2" fill="#746b31" fill-rule="evenodd" stroke="none"/>
      <path d="M18.4 42.4 Q20.0 42.75 21.5 42.4 L22.3 42.05 Q16.9 35.1 9.8 29.6 L9.5 30.45 Q9.15 31.75 9.4 33.2 M18.4 42.4 L16.1 41.5 12.8 39.1 Q10.8 36.9 10.0 34.95 L9.4 33.2" fill="none" stroke="#000000" stroke-linecap="round" stroke-linejoin="round" stroke-opacity="0.29803923" stroke-width="1.0"/>
      <path d="M17.8 37.1 L17.65 37.25 17.6 37.2 17.8 37.1" fill="#b59b5a" fill-rule="evenodd" stroke="none"/>
      <path d="M35.1 8.15 L35.55 7.75 35.9 7.6 Q39.55 6.25 42.7 5.85 L46.0 5.7 36.1 15.65 Q34.0 16.05 35.1 8.15 M24.05 19.35 Q28.25 14.7 32.8 10.35 34.6 10.95 32.2 19.55 L23.95 27.85 24.05 19.35" fill="#e0d9c7" fill-rule="evenodd" stroke="none"/>
      <path d="M36.1 15.65 L46.0 5.7 Q46.05 7.95 45.5 10.45 39.4 15.9 36.1 15.65 M32.2 19.55 Q31.45 22.7 37.2 18.55 44.1 12.2 43.85 16.35 38.3 22.3 32.45 27.7 L23.95 27.85 32.2 19.55" fill="#aea89b" fill-rule="evenodd" stroke="none"/>
      <path d="M45.5 10.45 Q44.95 13.25 43.85 16.35 44.1 12.2 37.2 18.55 31.45 22.7 32.2 19.55 L36.1 15.65 Q39.4 15.9 45.5 10.45" fill="#726c61" fill-rule="evenodd" stroke="none"/>
      <path d="M35.1 8.15 Q34.0 16.05 36.1 15.65 L32.2 19.55 Q34.6 10.95 32.8 10.35 L35.1 8.15 M17.4 26.1 L18.35 26.05 Q18.55 27.2 18.25 28.2 L17.0 30.25 Q17.9 28.9 17.4 26.1" fill="#a6a093" fill-rule="evenodd" stroke="none"/>
      <path d="M46.0 5.7 L42.7 5.85 Q39.55 6.25 35.9 7.6 L35.55 7.75 35.1 8.15 32.8 10.35 Q28.25 14.7 24.05 19.35 L22.8 20.8 20.25 23.75 18.35 26.05 17.4 26.1 Q20.55 22.05 24.1 18.15 27.45 14.4 31.2 10.75 L35.25 6.95 49.15 2.55 46.0 5.7" fill="#f2edda" fill-rule="evenodd" stroke="none"/>
      <path d="M25.6 33.55 L25.7 34.35 Q22.9 33.85 21.6 34.75 23.25 33.25 25.6 33.55" fill="#6f695e" fill-rule="evenodd" stroke="none"/>
      <path d="M43.85 16.35 L44.75 16.4 41.0 20.5 33.65 27.7 32.95 28.3 25.7 34.35 25.6 33.55 31.65 28.4 Q32.0 28.0 32.45 27.7 38.3 22.3 43.85 16.35" fill="#d5cebc" fill-rule="evenodd" stroke="none"/>
      <path d="M18.35 26.05 L20.25 23.75 22.8 20.8 24.05 19.35 23.95 27.85 17.95 33.9 Q20.2 30.1 20.6 26.5 18.1 33.0 14.6 34.15 11.9 33.25 11.4 30.95 14.85 31.9 16.4 30.9 L17.0 30.25 18.25 28.2 Q18.55 27.2 18.35 26.05" fill="#d0c9b7" fill-rule="evenodd" stroke="none"/>
      <path d="M46.0 5.7 L49.15 2.55 44.75 16.4 43.85 16.35 Q44.95 13.25 45.5 10.45 46.05 7.95 46.0 5.7" fill="#9a9486" fill-rule="evenodd" stroke="none"/>
      <path d="M32.45 27.7 Q32.0 28.0 31.65 28.4 L25.6 33.55 Q23.25 33.25 21.6 34.75 21.1 35.05 20.8 35.65 19.9 37.15 20.85 40.4 18.35 39.75 17.65 37.25 L17.8 37.1 Q18.3 33.85 25.05 30.9 21.25 31.45 17.95 33.9 L23.95 27.85 32.45 27.7" fill="#a39d8e" fill-rule="evenodd" stroke="none"/>
      <path d="M17.95 33.9 Q21.25 31.45 25.05 30.9 18.3 33.85 17.8 37.1 L17.6 37.2 15.2 36.65 14.6 34.15 Q18.1 33.0 20.6 26.5 20.2 30.1 17.95 33.9" fill="#262214" fill-rule="evenodd" stroke="none"/>
      <path d="M49.15 2.55 L35.25 6.95 31.2 10.75 Q27.45 14.4 24.1 18.15 20.55 22.05 17.4 26.1 17.9 28.9 17.0 30.25 L16.4 30.9 Q14.85 31.9 11.4 30.95 11.9 33.25 14.6 34.15 18.1 33.0 20.6 26.5 20.2 30.1 17.95 33.9 21.25 31.45 25.05 30.9 18.3 33.85 17.8 37.1 L17.65 37.25 Q18.35 39.75 20.85 40.4 19.9 37.15 20.8 35.65 21.1 35.05 21.6 34.75 22.9 33.85 25.7 34.35 L32.95 28.3 33.65 27.7 41.0 20.5 44.75 16.4 49.15 2.55 M17.6 37.2 L17.8 37.1 M17.6 37.2 L17.65 37.25 M14.6 34.15 L15.2 36.65 17.6 37.2" fill="none" stroke="#000000" stroke-linecap="round" stroke-linejoin="round" stroke-opacity="0.29803923" stroke-width="1.0"/>
      <path d="M7.15 24.15 L6.85 24.05 6.3 23.85 6.2 23.0 7.15 24.15 M9.25 28.85 Q9.85 29.85 11.05 30.45 L10.0 30.3 9.45 30.45 9.25 28.85" fill="#ffffff" fill-rule="evenodd" stroke="none"/>
      <path d="M6.3 23.85 L6.85 24.05 9.25 28.85 9.45 30.45 Q8.1 33.6 9.45 37.3 L8.1 34.5 Q8.15 33.45 7.8 31.95 L6.5 27.1 6.5 27.0 6.45 26.65 6.35 24.55 6.3 23.85" fill="#f5dc84" fill-rule="evenodd" stroke="none"/>
      <path d="M11.05 30.45 L11.0 30.45 11.05 30.5 12.05 30.9 Q11.2 31.05 10.55 31.55 9.05 32.9 9.45 37.3 8.1 33.6 9.45 30.45 L10.0 30.3 11.05 30.45" fill="#c4a746" fill-rule="evenodd" stroke="none"/>
      <path d="M6.85 24.05 L7.15 24.15 10.7 28.9 12.0 30.9 12.05 30.9 11.05 30.5 11.0 30.45 11.05 30.45 Q9.85 29.85 9.25 28.85 L6.85 24.05" fill="#ffefb8" fill-rule="evenodd" stroke="none"/>
      <path d="M8.1 34.5 Q7.2 32.2 6.8 29.65 L6.5 27.1 7.8 31.95 Q8.15 33.45 8.1 34.5" fill="#e7cc6e" fill-rule="evenodd" stroke="none"/>
      <path d="M7.15 24.15 L6.2 23.0 6.3 23.85 M12.05 30.9 L12.0 30.9 10.7 28.9 7.15 24.15 M6.5 27.1 L6.5 27.0 6.45 26.65 6.35 24.55 6.3 23.85 M8.1 34.5 Q7.2 32.2 6.8 29.65 L6.5 27.1 M8.1 34.5 L9.45 37.3 M12.05 30.9 Q11.2 31.05 10.55 31.55 9.05 32.9 9.45 37.3" fill="none" stroke="#000000" stroke-linecap="round" stroke-linejoin="round" stroke-opacity="0.29803923" stroke-width="1.0"/>
      <path d="M18.95 33.0 L28.25 22.55 25.5 21.5 Q29.6 21.35 30.5 15.75 L31.2 19.1 45.45 6.25 32.95 20.7 36.1 21.35 Q30.45 22.2 30.4 26.35 L29.45 23.7 18.95 33.0" fill="#262214" fill-rule="evenodd" stroke="none"/>
      <path d="M27.95 45.7 L27.75 45.2 27.65 44.85 28.85 45.85 27.95 45.7 M23.0 42.8 L21.35 42.6 21.5 42.0 21.35 41.0 Q21.95 42.25 23.0 42.8" fill="#ffffff" fill-rule="evenodd" stroke="none"/>
      <path d="M27.95 45.7 L27.25 45.65 25.15 45.55 24.85 45.55 24.75 45.55 19.9 44.3 17.3 43.95 Q15.9 43.4 14.5 42.65 18.2 44.0 21.35 42.6 L23.0 42.8 Q25.5 43.9 27.75 45.2 L27.95 45.7" fill="#f5dc84" fill-rule="evenodd" stroke="none"/>
      <path d="M21.35 42.6 Q18.2 44.0 14.5 42.65 18.9 43.0 20.25 41.45 20.8 40.85 20.9 40.0 L21.35 41.0 21.5 42.0 21.35 42.6" fill="#c4a746" fill-rule="evenodd" stroke="none"/>
      <path d="M27.75 45.2 Q25.5 43.9 23.0 42.8 21.95 42.25 21.35 41.0 L20.9 40.0 20.95 40.05 22.85 41.3 27.65 44.85 27.75 45.2" fill="#ffefb8" fill-rule="evenodd" stroke="none"/>
      <path d="M17.3 43.95 L19.9 44.3 24.75 45.55 22.15 45.25 Q19.65 44.85 17.3 43.95" fill="#e7cc6e" fill-rule="evenodd" stroke="none"/>
      <path d="M24.75 45.55 L24.85 45.55 25.15 45.55 27.25 45.65 27.95 45.7 28.85 45.85 27.65 44.85 22.85 41.3 20.95 40.05 20.9 40.0 Q20.8 40.85 20.25 41.45 18.9 43.0 14.5 42.65 15.9 43.4 17.3 43.95 M24.75 45.55 L22.15 45.25 Q19.65 44.85 17.3 43.95" fill="none" stroke="#000000" stroke-linecap="round" stroke-linejoin="round" stroke-opacity="0.29803923" stroke-width="1.0"/>
      <path d="M12.85 38.9 L12.6 37.2 14.05 36.45 15.25 37.6 14.5 39.15 12.85 38.9 M17.5 39.15 L17.75 40.45 16.55 41.05 15.65 40.1 16.25 39.0 17.5 39.15 M12.45 34.15 L12.7 35.45 11.5 36.0 10.6 35.1 11.2 33.95 12.45 34.15" fill="#000000" fill-opacity="0.2" fill-rule="evenodd" stroke="none"/>
      <path d="M11.05 34.35 Q12.4 34.2 12.3 35.55 L12.0 35.75 Q11.05 35.45 10.95 34.65 L11.05 34.35 M12.75 37.1 L12.75 37.05 13.4 36.7 Q14.9 36.8 15.0 38.25 L14.65 39.0 14.65 38.95 Q13.0 38.6 12.75 37.1 M16.1 39.35 Q17.55 39.15 17.35 40.6 L17.1 40.7 Q16.05 40.55 16.0 39.65 L16.1 39.35" fill="#e0e0e0" fill-rule="evenodd" stroke="none"/>
      <path d="M11.05 34.35 L11.35 33.8 12.6 34.0 12.85 35.3 12.3 35.55 Q12.4 34.2 11.05 34.35 M15.0 38.25 Q14.9 36.8 13.4 36.7 L14.2 36.3 15.4 37.45 15.0 38.25 M16.1 39.35 L16.4 38.85 17.65 39.0 17.9 40.3 17.35 40.6 Q17.55 39.15 16.1 39.35" fill="#ffffff" fill-rule="evenodd" stroke="none"/>
      <path d="M12.0 35.75 L11.65 35.85 10.75 34.95 10.95 34.65 Q11.05 35.45 12.0 35.75 M12.75 37.1 Q13.0 38.6 14.65 38.95 L13.0 38.75 12.75 37.1 M17.1 40.7 L16.7 40.9 15.8 39.95 16.0 39.65 Q16.05 40.55 17.1 40.7" fill="#a3a2a2" fill-rule="evenodd" stroke="none"/>
      <path d="M12.3 35.55 L12.85 35.3 12.6 34.0 11.35 33.8 11.05 34.35 M12.3 35.55 L12.0 35.75 11.65 35.85 10.75 34.95 10.95 34.65 11.05 34.35 M13.4 36.7 L12.75 37.05 12.75 37.1 13.0 38.75 14.65 38.95 14.65 39.0 15.0 38.25 M13.4 36.7 L14.2 36.3 15.4 37.45 15.0 38.25 M17.35 40.6 L17.9 40.3 17.65 39.0 16.4 38.85 16.1 39.35 M17.35 40.6 L17.1 40.7 16.7 40.9 15.8 39.95 16.0 39.65 16.1 39.35" fill="none" stroke="#000000" stroke-linecap="round" stroke-linejoin="round" stroke-opacity="0.29803923" stroke-width="1.0"/>
    </g>
    <g id="sprite0" transform="matrix(1.0, 0.0, 0.0, 1.0, 0.0, 0.0)">
      <use height="26.7" transform="matrix(0.0042, -1.3515, 1.3935, 0.02, 22.09, 56.0263)" width="26.7" xlink:href="#sprite1"/>
      <use height="26.7" transform="matrix(0.0095, -3.0486, 0.372, 0.0053, 36.507, 81.3775)" width="26.7" xlink:href="#sprite1"/>
      <use height="26.7" transform="matrix(3.0486, 0.0095, -0.0053, 0.372, 0.1225, 31.607)" width="26.7" xlink:href="#sprite1"/>
    </g>
    <g id="sprite1" transform="matrix(1.0, 0.0, 0.0, 1.0, 13.35, 13.35)">
      <use height="26.7" transform="matrix(1.0, 0.0, 0.0, 1.0, -13.35, -13.35)" width="26.7" xlink:href="#shape1"/>
    </g>
    <g id="shape1" transform="matrix(1.0, 0.0, 0.0, 1.0, 13.35, 13.35)">
      <path d="M9.3 -9.85 Q13.35 -5.8 13.35 0.0 13.35 5.8 9.3 9.3 5.8 13.35 0.0 13.35 -5.8 13.35 -9.85 9.3 -13.35 5.8 -13.35 0.0 -13.35 -5.8 -9.85 -9.85 -5.8 -13.35 0.0 -13.35 5.8 -13.35 9.3 -9.85" fill="url(#gradient0)" fill-rule="evenodd" stroke="none"/>
    </g>
    <radialGradient cx="0" cy="0" gradientTransform="matrix(0.0213, 0.0, 0.0, 0.0213, 0.0, 0.0)" gradientUnits="userSpaceOnUse" id="gradient0" r="819.2" spreadMethod="pad">
      <stop offset="0.19607843137254902" stop-color="#fee3bc" stop-opacity="0.3254902"/>
      <stop offset="0.5019607843137255" stop-color="#fee3bc" stop-opacity="0.050980393"/>
      <stop offset="0.7607843137254902" stop-color="#ffe3bd" stop-opacity="0.0"/>
    </radialGradient>
    <g id="shape2" transform="matrix(1.0, 0.0, 0.0, 1.0, -1.7, -2.05)">
      <path d="M4.7 49.15 L14.55 40.55 16.1 41.5 18.4 42.4 18.55 42.45 14.5 42.65 Q15.9 43.4 17.3 43.95 19.65 44.85 22.15 45.25 L24.75 45.55 24.85 45.55 25.15 45.55 27.25 45.65 27.95 45.7 28.85 45.85 27.65 44.85 22.85 41.3 20.95 40.05 20.9 40.0 20.85 40.3 20.8 40.2 Q19.95 37.1 20.8 35.65 21.1 35.05 21.6 34.75 22.9 33.85 25.7 34.35 L32.95 28.3 33.65 27.7 41.0 20.5 44.75 16.4 49.15 2.55 35.25 6.95 31.2 10.75 Q27.45 14.4 24.1 18.15 20.55 22.05 17.4 26.1 17.9 28.9 17.0 30.25 L16.4 30.9 11.65 31.0 12.05 30.9 12.0 30.9 10.7 28.9 7.15 24.15 6.2 23.0 6.3 23.85 6.35 24.55 6.45 26.65 6.5 27.0 6.5 27.1 6.8 29.65 Q7.2 32.2 8.1 34.5 L9.45 37.3 Q9.25 35.1 9.55 33.7 L10.0 34.95 11.25 37.15 2.6 47.1 2.25 49.45 2.2 49.55 4.6 49.15 4.7 49.15 Z" fill="none" stroke="#000000" stroke-linecap="round" stroke-linejoin="round" stroke-opacity="0.29803923" stroke-width="1.0"/>
    </g>
  </defs>
</svg>
