<?xml version="1.0" encoding="UTF-8" standalone="no"?>
<svg xmlns:xlink="http://www.w3.org/1999/xlink" height="440.0px" width="440.0px" xmlns="http://www.w3.org/2000/svg">
  <g transform="matrix(10.0, 0.0, 0.0, 10.0, 0.0, 0.0)">
    <use height="44.0" transform="matrix(1.0, 0.0, 0.0, 1.0, 0.0, 0.0)" width="44.0" xlink:href="#shape0"/>
    <use height="72.9" transform="matrix(0.495, 0.0, 0.0, 0.495, 3.6707, 3.801)" width="75.35" xlink:href="#shape1"/>
  </g>
  <defs>
    <g id="shape0" transform="matrix(1.0, 0.0, 0.0, 1.0, 0.0, 0.0)">
      <path d="M44.0 44.0 L0.0 44.0 0.0 0.0 44.0 0.0 44.0 44.0" fill="#33cc33" fill-opacity="0.0" fill-rule="evenodd" stroke="none"/>
    </g>
    <g id="shape1" transform="matrix(1.0, 0.0, 0.0, 1.0, -0.85, 0.2)">
      <path d="M57.75 44.45 L54.05 44.05 Q42.0 35.9 32.5 25.1 L36.5 25.55 36.55 25.5 36.5 25.55 32.5 25.1 29.3 24.7 28.0 17.0 33.35 6.85 39.7 2.15 42.2 0.3 49.3 1.15 49.35 1.2 49.75 3.55 49.95 4.6 50.65 8.9 50.6 8.9 49.75 10.55 43.75 5.55 49.75 10.55 48.35 13.3 45.35 19.0 43.05 20.7 43.0 20.75 36.55 25.5 37.6 26.4 57.75 44.45 M43.75 5.55 L44.3 5.3 44.6 4.8 44.45 4.4 42.9 4.15 42.25 4.25 41.85 4.75 42.0 5.2 Q42.3 5.6 43.1 5.6 L43.75 5.55 M39.7 2.15 L42.25 4.25 39.7 2.15 M42.45 10.6 Q43.25 10.6 43.25 10.0 43.25 9.55 42.5 9.15 41.7 8.8 41.7 9.8 L41.75 10.2 Q41.9 10.6 42.45 10.6 M40.9 10.3 L40.75 9.9 Q40.4 9.55 39.9 9.65 L38.95 9.55 37.25 8.55 35.9 7.55 Q34.75 6.7 34.4 6.7 33.65 6.7 33.65 7.25 33.65 7.6 36.35 9.55 L38.1 10.9 39.6 11.75 Q40.25 11.75 40.2 11.05 L40.6 10.65 40.9 10.3" fill="#302925" fill-rule="evenodd" stroke="none"/>
      <path d="M49.35 1.2 L70.7 20.1 70.9 21.1 Q51.15 2.9 49.75 3.55 L49.35 1.2 M50.6 8.9 L72.05 27.85 71.55 28.8 Q59.75 16.3 49.75 10.55 L50.6 8.9 M58.75 30.7 L50.45 23.4 50.4 23.35 45.35 19.0 48.35 13.3 Q46.35 17.35 47.75 19.4 L58.75 30.7 M37.6 26.4 L36.55 25.5 43.0 20.75 37.6 26.4" fill="#bea588" fill-rule="evenodd" stroke="none"/>
      <path d="M57.5 18.75 L57.85 18.75 57.9 18.85 57.7 18.85 57.6 18.8 57.5 18.75 M59.7 19.25 L60.45 19.65 60.8 19.95 60.85 20.0 59.7 19.25 M42.25 4.25 L42.9 4.15 44.45 4.4 44.6 4.8 44.3 5.3 43.75 5.55 43.1 5.6 Q42.3 5.6 42.0 5.2 L41.85 4.75 42.25 4.25" fill="#443c35" fill-rule="evenodd" stroke="none"/>
      <path d="M60.85 20.0 L61.3 20.45 63.0 21.9 64.05 22.95 66.55 24.85 Q68.4 26.45 68.4 27.3 68.45 27.95 67.85 27.95 L66.65 27.5 65.6 27.05 65.6 27.0 65.1 25.65 64.4 24.3 61.8 21.55 Q59.95 19.95 57.7 18.85 L57.9 18.85 57.85 18.75 57.8 18.65 Q57.8 18.1 58.5 18.1 59.15 18.1 59.15 18.65 L59.0 19.0 59.7 19.25 60.85 20.0 M55.15 24.2 L55.05 24.4 Q55.05 24.9 57.35 27.35 L58.05 27.85 56.7 27.15 Q54.35 26.1 54.35 24.9 54.35 24.3 55.15 24.15 L55.15 24.2 M61.55 14.75 Q61.55 13.8 60.85 13.8 L60.35 14.05 59.35 13.55 Q58.45 13.25 58.45 14.1 L58.8 14.95 Q59.25 15.75 59.95 15.75 61.55 15.75 61.55 14.75 M70.9 21.1 L70.95 21.5 71.0 21.75 72.05 27.85 50.6 8.9 50.65 8.9 49.95 4.6 49.75 3.55 Q51.15 2.9 70.9 21.1 M40.9 10.3 L40.6 10.65 40.2 11.05 Q40.25 11.75 39.6 11.75 L38.1 10.9 36.35 9.55 Q33.65 7.6 33.65 7.25 33.65 6.7 34.4 6.7 34.75 6.7 35.9 7.55 L37.25 8.55 38.95 9.55 39.9 9.65 Q40.4 9.55 40.75 9.9 L40.9 10.3 M42.45 10.6 Q41.9 10.6 41.75 10.2 L41.7 9.8 Q41.7 8.8 42.5 9.15 43.25 9.55 43.25 10.0 43.25 10.6 42.45 10.6 M50.3 15.75 L50.45 15.75 Q50.75 15.75 50.9 15.9 L50.3 15.75 M55.75 35.85 L55.8 35.5 55.65 35.0 55.85 35.2 56.45 36.0 56.15 36.05 56.0 35.9 55.75 35.85 M53.0 14.55 Q53.0 15.15 52.35 15.15 51.8 15.15 51.4 14.6 L51.05 14.05 Q51.05 13.5 51.8 13.5 52.7 13.5 53.0 14.55 M51.15 35.7 L50.95 36.05 50.85 36.25 49.45 35.2 47.55 33.65 Q46.7 32.85 46.7 32.2 L46.9 31.7 47.1 31.65 47.65 32.0 50.55 33.75 50.7 34.2 51.2 35.1 Q51.05 35.2 51.05 35.55 L51.15 35.7 M43.45 30.05 L43.0 30.25 Q42.55 30.25 41.2 29.4 L39.5 28.1 38.8 27.05 38.75 25.95 Q38.75 25.05 39.75 25.25 L40.3 25.4 40.1 25.9 40.1 26.15 40.1 26.3 40.15 26.4 40.2 26.7 40.45 27.1 40.9 28.2 Q41.95 30.05 43.25 30.05 L43.45 30.05 M69.25 30.4 L68.7 30.1 68.6 29.8 Q68.6 29.25 69.3 29.1 69.95 28.9 69.95 29.75 69.95 30.4 69.25 30.4 M60.75 29.25 L60.6 29.2 60.8 29.25 60.75 29.25 M66.5 33.35 L66.35 33.15 66.3 33.05 66.5 33.35" fill="#6d5f54" fill-rule="evenodd" stroke="none"/>
      <path d="M62.3 41.2 L57.9 44.5 57.75 44.45 62.3 41.2" fill="#8e8e8e" fill-rule="evenodd" stroke="none"/>
      <path d="M50.75 43.65 L50.7 43.65 50.75 43.65" fill="#929292" fill-rule="evenodd" stroke="none"/>
      <path d="M65.6 27.05 L66.65 27.5 67.85 27.95 Q68.45 27.95 68.4 27.3 68.4 26.45 66.55 24.85 L64.05 22.95 63.0 21.9 61.3 20.45 60.85 20.0 60.8 19.95 60.45 19.65 59.7 19.25 59.0 19.0 59.15 18.65 Q59.15 18.1 58.5 18.1 57.8 18.1 57.8 18.65 L57.85 18.75 57.5 18.75 Q55.45 17.85 54.1 18.4 52.95 18.8 52.95 19.6 L53.4 20.65 54.25 21.8 55.1 22.85 55.25 23.05 Q54.7 23.15 54.7 23.55 L55.15 24.15 Q54.35 24.3 54.35 24.9 54.35 26.1 56.7 27.15 L58.05 27.85 57.35 27.35 Q55.05 24.9 55.05 24.4 L55.15 24.2 55.55 23.65 55.55 23.4 56.1 24.05 57.15 25.15 58.8 26.2 60.95 27.4 Q62.65 28.4 62.9 28.4 63.65 28.4 63.75 27.9 L63.9 27.2 65.0 27.65 Q65.5 27.65 65.6 27.05 M71.55 28.8 L66.85 37.75 58.75 30.7 47.75 19.4 Q46.35 17.35 48.35 13.3 L49.75 10.55 Q59.75 16.3 71.55 28.8 M50.3 15.75 L50.1 15.75 Q49.5 15.75 49.15 16.2 48.9 16.5 48.9 16.9 L49.65 19.4 Q50.65 21.9 51.75 21.9 52.2 21.9 52.5 21.55 L52.75 21.05 52.2 20.25 52.7 19.85 52.75 19.5 Q52.25 16.55 50.9 15.9 50.75 15.75 50.45 15.75 L50.3 15.75 M53.0 14.55 Q52.7 13.5 51.8 13.5 51.05 13.5 51.05 14.05 L51.4 14.6 Q51.8 15.15 52.35 15.15 53.0 15.15 53.0 14.55 M60.75 29.25 L60.8 29.25 60.6 29.2 60.75 29.25 M69.25 30.4 Q69.95 30.4 69.95 29.75 69.95 28.9 69.3 29.1 68.6 29.25 68.6 29.8 L68.7 30.1 69.25 30.4 M66.5 33.35 Q66.1 33.65 66.1 33.9 L66.2 34.2 Q66.4 34.5 66.95 34.5 L68.55 33.6 Q69.6 32.6 69.6 31.75 L69.55 31.05 Q69.3 30.35 68.4 30.35 67.7 30.35 66.75 31.3 65.85 32.15 65.85 32.45 L66.05 32.85 66.3 33.05 66.35 33.15 66.5 33.35" fill="#a5968d" fill-rule="evenodd" stroke="none"/>
      <path d="M55.55 23.4 L55.55 23.65 55.15 24.2 55.15 24.15 54.7 23.55 Q54.7 23.15 55.25 23.05 L55.55 23.4 M61.55 14.75 Q61.55 15.75 59.95 15.75 59.25 15.75 58.8 14.95 L58.45 14.1 Q58.45 13.25 59.35 13.55 L60.35 14.05 60.85 13.8 Q61.55 13.8 61.55 14.75 M58.05 41.95 L57.8 41.7 57.95 41.7 58.45 41.6 58.45 41.9 58.05 41.95" fill="#72635a" fill-rule="evenodd" stroke="none"/>
      <path d="M56.05 33.0 L55.65 32.5 54.65 31.6 55.2 31.65 55.95 31.5 Q56.75 31.5 57.65 32.4 L57.7 32.5 58.65 32.8 59.45 33.3 60.4 35.15 60.1 36.0 59.85 36.55 59.3 36.65 58.7 36.55 59.45 37.3 60.0 38.0 60.2 38.6 60.5 38.55 Q61.0 38.55 61.1 39.2 L60.75 40.05 60.25 40.85 59.8 41.7 58.95 42.4 Q59.0 43.25 58.15 43.25 57.8 43.25 56.15 41.85 L53.8 39.85 Q50.75 37.35 50.75 36.5 L50.85 36.25 50.95 36.05 51.15 35.7 51.45 36.2 Q51.95 36.85 52.45 36.85 53.2 36.85 53.2 36.15 L52.55 35.45 52.8 35.2 Q54.2 36.35 55.0 36.35 L55.6 36.05 55.75 35.85 56.0 35.9 56.15 36.05 56.45 36.0 56.9 35.95 58.35 36.3 57.65 35.35 56.5 34.15 56.05 33.0 M42.1 26.7 L42.95 27.6 42.9 27.6 42.4 27.15 42.1 26.7 M40.1 26.15 L40.15 26.4 40.1 26.3 40.1 26.15 M40.45 27.1 L40.8 27.65 41.8 28.65 Q42.8 29.4 43.5 29.4 44.4 29.4 44.4 28.25 L45.0 28.8 44.7 28.9 44.45 29.7 43.45 30.05 43.25 30.05 Q41.95 30.05 40.9 28.2 L40.45 27.1 M58.05 41.95 L58.45 41.9 58.45 41.6 57.95 41.7 57.8 41.7 58.05 41.95" fill="#615249" fill-rule="evenodd" stroke="none"/>
      <path d="M44.05 21.7 Q44.95 21.7 44.95 22.3 L44.85 22.5 44.6 22.75 43.95 23.1 Q43.5 23.1 43.25 22.7 L43.1 22.3 Q43.1 21.7 44.05 21.7 M45.4 23.0 L45.75 22.8 Q46.55 22.5 46.55 23.3 L46.35 23.85 46.25 23.95 45.6 24.4 Q45.2 24.4 45.05 24.1 L44.95 23.8 Q44.95 23.3 45.4 23.0 M40.3 25.4 L40.3 25.1 40.05 24.35 Q40.05 23.8 40.45 23.65 L40.8 23.65 41.25 23.45 42.0 23.25 Q44.7 23.25 46.45 28.4 L46.45 28.6 48.15 28.25 Q48.2 28.7 48.55 29.25 L49.0 30.0 48.9 30.5 Q48.9 31.0 49.55 31.95 L50.85 33.4 52.7 35.1 52.8 35.2 52.55 35.45 53.2 36.15 Q53.2 36.85 52.45 36.85 51.95 36.85 51.45 36.2 L51.15 35.7 51.05 35.55 Q51.05 35.2 51.2 35.1 L50.7 34.2 50.55 33.75 47.65 32.0 47.1 31.65 46.0 30.75 Q45.55 30.3 45.55 29.6 L45.65 29.25 45.0 28.8 44.4 28.25 Q44.4 29.4 43.5 29.4 42.8 29.4 41.8 28.65 L40.8 27.65 40.45 27.1 40.2 26.7 40.15 26.4 40.1 26.15 40.1 25.9 40.3 25.4 M42.1 26.7 L42.4 27.15 42.9 27.6 42.95 27.6 42.1 26.7" fill="#574941" fill-rule="evenodd" stroke="none"/>
      <path d="M65.6 27.05 Q65.5 27.65 65.0 27.65 L63.9 27.2 63.75 27.9 Q63.65 28.4 62.9 28.4 62.65 28.4 60.95 27.4 L58.8 26.2 57.15 25.15 56.1 24.05 55.55 23.4 55.25 23.05 55.1 22.85 54.25 21.8 53.4 20.65 52.95 19.6 Q52.95 18.8 54.1 18.4 55.45 17.85 57.5 18.75 L57.6 18.8 57.7 18.85 Q59.95 19.95 61.8 21.55 L64.4 24.3 65.1 25.65 65.6 27.0 65.6 27.05 M50.9 15.9 Q52.25 16.55 52.75 19.5 L52.7 19.85 52.2 20.25 52.75 21.05 52.5 21.55 Q52.2 21.9 51.75 21.9 50.65 21.9 49.65 19.4 L48.9 16.9 Q48.9 16.5 49.15 16.2 49.5 15.75 50.1 15.75 L50.3 15.75 50.9 15.9 M66.3 33.05 L66.05 32.85 65.85 32.45 Q65.85 32.15 66.75 31.3 67.7 30.35 68.4 30.35 69.3 30.35 69.55 31.05 L69.6 31.75 Q69.6 32.6 68.55 33.6 L66.95 34.5 Q66.4 34.5 66.2 34.2 L66.1 33.9 Q66.1 33.65 66.5 33.35 L66.3 33.05" fill="#96877f" fill-rule="evenodd" stroke="none"/>
      <path d="M66.85 37.75 L66.75 37.95 63.7 40.2 59.85 36.55 60.1 36.0 60.4 35.15 59.45 33.3 58.65 32.8 57.7 32.5 57.65 32.4 Q56.75 31.5 55.95 31.5 L55.2 31.65 54.65 31.6 55.65 32.5 56.05 33.0 46.35 23.85 46.55 23.3 Q46.55 22.5 45.75 22.8 L45.4 23.0 44.85 22.5 44.95 22.3 Q44.95 21.7 44.05 21.7 L43.0 20.75 43.05 20.7 45.35 19.0 50.4 23.35 50.45 23.4 58.75 30.7 66.85 37.75" fill="#574a44" fill-rule="evenodd" stroke="none"/>
      <path d="M63.7 40.2 L62.3 41.2 57.75 44.45 37.6 26.4 43.0 20.75 44.05 21.7 Q43.1 21.7 43.1 22.3 L43.25 22.7 Q43.5 23.1 43.95 23.1 L44.6 22.75 44.85 22.5 45.4 23.0 Q44.95 23.3 44.95 23.8 L45.05 24.1 Q45.2 24.4 45.6 24.4 L46.25 23.95 46.35 23.85 56.05 33.0 56.5 34.15 57.65 35.35 58.35 36.3 56.9 35.95 56.45 36.0 55.85 35.2 55.65 35.0 55.8 35.5 55.75 35.85 55.6 36.05 55.0 36.35 Q54.2 36.35 52.8 35.2 L52.7 35.1 50.85 33.4 49.55 31.95 Q48.9 31.0 48.9 30.5 L49.0 30.0 48.55 29.25 Q48.2 28.7 48.15 28.25 L46.45 28.6 46.45 28.4 Q44.7 23.25 42.0 23.25 L41.25 23.45 40.8 23.65 40.45 23.65 Q40.05 23.8 40.05 24.35 L40.3 25.1 40.3 25.4 39.75 25.25 Q38.75 25.05 38.75 25.95 L38.8 27.05 39.5 28.1 41.2 29.4 Q42.55 30.25 43.0 30.25 L43.45 30.05 44.45 29.7 44.7 28.9 45.0 28.8 45.65 29.25 45.55 29.6 Q45.55 30.3 46.0 30.75 L47.1 31.65 46.9 31.7 46.7 32.2 Q46.7 32.85 47.55 33.65 L49.45 35.2 50.85 36.25 50.75 36.5 Q50.75 37.35 53.8 39.85 L56.15 41.85 Q57.8 43.25 58.15 43.25 59.0 43.25 58.95 42.4 L59.8 41.7 60.25 40.85 60.75 40.05 61.1 39.2 Q61.0 38.55 60.5 38.55 L60.2 38.6 60.0 38.0 59.45 37.3 58.7 36.55 59.3 36.65 59.85 36.55 63.7 40.2 M54.05 44.05 L50.75 43.65 50.7 43.65 36.9 31.45 36.75 31.3 29.25 24.7 29.3 24.7 32.5 25.1 Q42.0 35.9 54.05 44.05" fill="#695a51" fill-rule="evenodd" stroke="none"/>
      <path d="M36.75 31.3 L29.25 24.7" fill="none" stroke="#000000" stroke-linecap="round" stroke-linejoin="round" stroke-width="0.05"/>
      <path d="M70.9 21.1 L70.95 21.5 M71.0 21.75 L72.05 27.85 71.55 28.8 66.85 37.75 66.75 37.95 63.7 40.2 62.3 41.2 M57.9 44.5 L57.75 44.45 54.05 44.05 50.75 43.65 50.7 43.65 36.9 31.45 M29.3 24.7 L28.0 17.0 33.35 6.85 39.7 2.15 42.2 0.3 49.3 1.15 49.35 1.2 70.7 20.1 70.9 21.1 M49.95 4.6 L50.65 8.9 50.6 8.9 M49.75 10.55 L50.6 8.9 M45.35 19.0 L43.05 20.7 M45.35 19.0 L50.4 23.35 50.45 23.4 58.75 30.7 66.85 37.75 M48.35 13.3 L45.35 19.0 M49.75 10.55 L48.35 13.3 M50.75 43.65 L50.7 43.65 M57.75 44.45 L62.3 41.2 M36.55 25.5 L36.5 25.55 32.5 25.1 29.3 24.7 M43.0 20.75 L36.55 25.5 37.6 26.4 57.75 44.45" fill="none" stroke="#000000" stroke-linecap="round" stroke-linejoin="round" stroke-opacity="0.3019608" stroke-width="0.4"/>
      <path d="M43.75 5.55 L49.75 10.55 M42.25 4.25 L39.7 2.15" fill="none" stroke="#00ff00" stroke-linecap="round" stroke-linejoin="round" stroke-width="0.4"/>
      <path d="M50.6 8.9 L72.05 27.85" fill="none" stroke="#ffffff" stroke-linecap="round" stroke-linejoin="round" stroke-opacity="0.4" stroke-width="0.75"/>
      <path d="M3.1 67.5 L3.25 67.85 3.35 68.15 3.1 67.5" fill="#824f3e" fill-rule="evenodd" stroke="none"/>
      <path d="M4.05 69.05 L4.1 69.1 4.2 69.15 4.25 69.15 5.35 69.75 5.75 69.85 5.8 70.05 Q6.0 71.2 5.35 71.85 4.7 72.45 3.6 72.25 L3.5 72.25 2.25 71.35 1.6 70.5 1.3 70.0 1.35 70.0 1.95 70.15 Q3.05 70.45 3.65 69.8 L4.05 69.05" fill="#3c271e" fill-rule="evenodd" stroke="none"/>
      <path d="M1.35 70.0 L1.3 69.85 1.2 69.65 1.1 69.2 Q0.95 68.5 1.15 68.0 L1.5 67.5 Q2.05 66.95 2.9 67.05 L2.95 67.1 2.95 67.2 3.05 67.35 3.05 67.4 3.1 67.45 3.1 67.5 3.35 68.15 3.4 68.2 3.4 68.25 3.45 68.3 3.65 68.55 3.95 68.95 4.05 69.05 3.65 69.8 Q3.05 70.45 1.95 70.15 L1.35 70.0" fill="#5c3a2e" fill-rule="evenodd" stroke="none"/>
      <path d="M5.75 69.85 L6.0 69.95 6.25 70.0 6.3 70.0 6.4 70.25 Q6.55 71.4 5.9 72.05 5.3 72.7 4.2 72.45 L3.95 72.4 3.85 72.35 3.7 72.35 3.5 72.25 3.6 72.25 Q4.7 72.45 5.35 71.85 6.0 71.2 5.8 70.05 L5.75 69.85" fill="#301f18" fill-rule="evenodd" stroke="none"/>
      <path d="M1.35 70.0 L1.3 69.85 1.2 69.65 1.1 69.2 Q0.95 68.5 1.15 68.0 L1.5 67.5 Q2.05 66.95 2.9 67.05 L2.95 67.1 2.95 67.2 3.05 67.35 3.05 67.4 3.1 67.45 3.1 67.5 M3.35 68.15 L3.4 68.2 3.4 68.25 3.45 68.3 3.65 68.55 3.95 68.95 4.05 69.05 4.1 69.1 4.25 69.15 5.35 69.75 5.75 69.85 6.0 69.95 6.25 70.0 6.3 70.0 6.4 70.25 Q6.55 71.4 5.9 72.05 5.3 72.7 4.2 72.45 L3.95 72.4 3.85 72.35 3.7 72.35 3.5 72.25 2.25 71.35 1.6 70.5 1.3 70.0 1.35 70.0 M3.35 68.15 L3.1 67.5" fill="none" stroke="#000000" stroke-linecap="round" stroke-linejoin="round" stroke-opacity="0.3019608" stroke-width="0.4"/>
      <path d="M11.2 67.0 L34.8 42.5 30.95 45.1 35.55 40.45 35.9 40.85 37.6 42.8 Q32.7 46.15 29.15 50.15 L26.85 52.5 Q19.4 60.8 13.45 67.85 L11.2 67.0" fill="#563c2b" fill-rule="evenodd" stroke="none"/>
      <path d="M32.35 36.5 L32.9 37.2 33.15 37.55 33.3 37.65 33.35 37.7 6.35 65.1 3.65 64.0 8.25 60.05 Q18.65 50.75 32.35 36.5" fill="#6d4936" fill-rule="evenodd" stroke="none"/>
      <path d="M35.9 40.85 L41.5 36.05 40.25 39.9 37.6 42.8 35.9 40.85" fill="#442e22" fill-rule="evenodd" stroke="none"/>
      <path d="M33.35 37.6 Q34.2 37.65 36.3 34.4 L39.15 32.1 38.15 35.0 34.35 38.95 33.9 38.5 8.3 65.9 6.35 65.1 33.35 37.7 33.3 37.65 33.35 37.6" fill="#baa476" fill-rule="evenodd" stroke="none"/>
      <path d="M32.35 36.5 L36.55 32.2 37.05 31.5 37.5 31.0 37.85 30.85 39.6 30.7 40.15 30.75 Q41.7 31.0 45.8 33.7 L40.25 39.9 41.5 36.05 42.05 34.45 41.4 33.65 37.2 37.6 38.15 35.0 37.2 37.6 41.4 33.65 42.05 34.45 41.5 36.05 42.2 35.4 41.5 36.05 35.9 40.85 35.55 40.45 30.95 45.1 34.8 42.5 11.2 67.0 8.3 65.9 33.9 38.5 34.35 38.95 38.15 35.0 39.15 32.1 36.3 34.4 Q34.2 37.65 33.35 37.6 L33.15 37.55 32.9 37.2 32.35 36.5" fill="#302017" fill-rule="evenodd" stroke="none"/>
      <path d="M40.25 39.9 L45.8 33.7 Q41.7 31.0 40.15 30.75 L39.6 30.7 37.85 30.85 37.5 31.0 37.05 31.5 36.55 32.2 32.35 36.5 32.9 37.2 33.15 37.55 33.35 37.6 Q34.2 37.65 36.3 34.4 L39.15 32.1 38.15 35.0 37.2 37.6 41.4 33.65 42.05 34.45 41.5 36.05 42.2 35.4 M41.5 36.05 L40.25 39.9 37.6 42.8 Q32.7 46.15 29.15 50.15 L26.85 52.5 Q19.4 60.8 13.45 67.85 M8.3 65.9 L7.95 66.3 M3.65 64.0 L8.25 60.05 Q18.65 50.75 32.35 36.5" fill="none" stroke="#000000" stroke-linecap="round" stroke-linejoin="round" stroke-opacity="0.3019608" stroke-width="0.4"/>
      <path d="M5.5 64.5 L5.1 63.5 5.35 64.05 5.5 64.5 M6.8 66.05 L6.6 65.8 7.05 66.2 6.8 66.05" fill="#824f3e" fill-rule="evenodd" stroke="none"/>
      <path d="M2.2 67.75 L3.2 67.95 Q4.95 68.35 6.05 67.25 L6.8 66.05 7.05 66.2 7.1 66.25 8.95 67.25 9.55 67.4 9.65 67.8 Q10.0 69.6 8.9 70.7 7.85 71.8 6.0 71.4 L5.85 71.4 5.8 71.4 3.65 69.8 2.65 68.5 2.2 67.75" fill="#563c2b" fill-rule="evenodd" stroke="none"/>
      <path d="M5.1 63.5 L5.5 64.5 5.7 64.7 5.75 64.8 6.05 65.2 6.6 65.8 6.8 66.05 6.05 67.25 Q4.95 68.35 3.2 67.95 L2.2 67.75 2.2 67.7 2.15 67.4 1.95 67.05 1.8 66.3 1.85 66.3 Q1.55 65.15 1.95 64.35 L2.55 63.45 Q3.35 62.55 4.8 62.65 L4.85 62.75 4.85 62.9 5.0 63.15 5.0 63.25 5.05 63.45 5.1 63.5" fill="#694634" fill-rule="evenodd" stroke="none"/>
      <path d="M5.85 71.4 L6.0 71.4 Q7.85 71.8 8.9 70.7 10.0 69.6 9.65 67.8 L9.55 67.4 10.1 67.55 10.45 67.6 10.5 67.6 10.5 67.65 10.55 67.6 10.7 68.1 Q10.95 69.95 9.95 71.0 8.8 72.1 7.0 71.7 L6.5 71.6 6.4 71.55 6.25 71.55 6.15 71.5 5.85 71.4" fill="#3c271e" fill-rule="evenodd" stroke="none"/>
      <path d="M5.5 64.5 L5.1 63.5 5.0 63.25 5.0 63.15 4.85 62.9 4.85 62.75 4.8 62.65 Q3.35 62.55 2.55 63.45 L1.95 64.35 Q1.55 65.15 1.85 66.3 L1.8 66.3 1.95 67.05 2.15 67.4 2.2 67.7 2.2 67.75 M6.8 66.05 L6.6 65.8 6.05 65.2 5.75 64.8 5.7 64.7 5.5 64.5 M9.55 67.4 L8.95 67.25 7.1 66.25 7.05 66.2 6.8 66.05 M5.85 71.4 L6.15 71.5 6.25 71.55 6.4 71.55 6.5 71.6 7.0 71.7 Q8.8 72.1 9.95 71.0 10.95 69.95 10.7 68.1 L10.55 67.6 10.5 67.65 10.5 67.6 10.45 67.6 10.1 67.55 9.55 67.4 M5.85 71.4 L5.8 71.4 3.65 69.8 2.65 68.5 2.2 67.75" fill="none" stroke="#000000" stroke-linecap="round" stroke-linejoin="round" stroke-opacity="0.3019608" stroke-width="0.4"/>
      <path d="M17.5 59.9 Q14.65 57.35 14.65 56.9 14.55 56.15 16.55 57.8 14.25 54.65 14.7 53.7 L14.95 52.55 16.05 51.55 Q15.7 52.2 16.2 53.25 16.8 54.4 18.05 55.45 19.35 56.55 20.5 56.8 L21.1 56.9 19.95 57.4 17.3 57.4 19.05 58.3 17.5 59.9 M12.35 54.8 L12.5 56.1 14.65 59.0 13.05 58.8 12.95 58.7 12.55 58.65 Q12.8 57.05 12.2 55.9 L12.15 55.85 12.25 54.9 12.35 54.8 M9.0 58.15 L9.25 58.85 10.1 60.0 10.25 58.95 Q10.6 57.2 10.9 56.8 L12.0 58.45 Q12.5 59.15 12.1 60.55 L12.55 58.7 13.05 58.8 15.5 60.8 13.2 60.9 14.2 61.15 Q14.65 61.3 15.05 62.2 15.45 63.15 10.35 62.2 L13.4 64.35 13.6 65.2 Q9.85 65.5 8.8 64.55 L10.6 66.3 11.35 67.2 8.95 67.3 Q7.85 63.5 8.15 61.35 8.45 59.05 9.1 58.95 L8.95 58.25 9.0 58.15 M8.9 67.3 L7.55 67.4 7.05 67.05 Q5.85 65.95 5.2 64.8 4.7 63.7 4.85 62.95 L6.2 61.3 Q7.2 64.4 8.9 67.3" fill="#4d433a" fill-rule="evenodd" stroke="none"/>
      <path d="M14.95 52.55 L14.7 53.7 Q14.25 54.65 16.55 57.8 14.55 56.15 14.65 56.9 14.65 57.35 17.5 59.9 L14.65 59.0 12.5 56.1 12.35 54.8 14.95 52.55 M12.25 54.9 L12.15 55.85 12.2 55.9 Q12.8 57.05 12.55 58.65 L12.45 58.65 12.55 58.7 12.1 60.55 Q12.5 59.15 12.0 58.45 L10.9 56.8 Q10.6 57.2 10.25 58.95 L10.1 60.0 9.25 58.85 9.0 58.15 12.25 54.9 M8.95 67.3 L8.9 67.3 Q7.2 64.4 6.2 61.3 L8.95 58.25 9.1 58.95 Q8.45 59.05 8.15 61.35 7.85 63.5 8.95 67.3" fill="#5c5047" fill-rule="evenodd" stroke="none"/>
      <path d="M14.65 59.0 L17.5 59.9 19.05 58.3 17.3 57.4 19.95 57.4 21.1 56.9 21.65 56.8 19.8 59.65 19.35 60.4 18.75 61.25 Q16.3 64.15 10.8 68.4 L9.55 68.3 Q8.55 68.1 7.55 67.4 L8.9 67.3 8.95 67.3 11.35 67.2 10.6 66.3 8.8 64.55 Q9.85 65.5 13.6 65.2 L13.4 64.35 10.35 62.2 Q15.45 63.15 15.05 62.2 14.65 61.3 14.2 61.15 L13.2 60.9 15.5 60.8 13.05 58.8 12.55 58.7 12.45 58.65 12.55 58.65 12.95 58.7 13.05 58.8 14.65 59.0" fill="#362f29" fill-rule="evenodd" stroke="none"/>
      <path d="M14.95 52.55 L12.35 54.8 M21.1 56.9 L20.5 56.8 Q19.35 56.55 18.05 55.45 16.8 54.4 16.2 53.25 15.7 52.2 16.05 51.55 L14.95 52.55 M12.25 54.9 L9.0 58.15 M12.25 54.9 L12.35 54.8 M7.55 67.4 Q8.55 68.1 9.55 68.3 L10.8 68.4 Q16.3 64.15 18.75 61.25 L19.35 60.4 19.8 59.65 21.65 56.8 21.1 56.9 M8.95 58.25 L6.2 61.3 M8.95 58.25 L9.0 58.15 M7.55 67.4 L7.05 67.05 Q5.85 65.95 5.2 64.8 4.7 63.7 4.85 62.95 L6.2 61.3" fill="none" stroke="#000000" stroke-linecap="round" stroke-linejoin="round" stroke-width="0.05"/>
      <path d="M12.4 57.5 Q12.4 56.0 14.3 55.5 15.2 59.35 19.05 61.5 20.05 63.85 18.55 63.45 19.5 62.75 17.5 61.85 15.75 60.9 13.95 56.5 L15.35 60.3 14.2 59.2 12.4 57.5" fill="#4a3e2b" fill-rule="evenodd" stroke="none"/>
      <path d="M11.05 56.2 L12.4 57.5 14.2 59.2 15.45 61.9 12.4 59.3 Q11.35 59.3 12.95 62.25 L9.85 58.9 Q8.45 56.75 11.05 56.2" fill="#6e6554" fill-rule="evenodd" stroke="none"/>
      <path d="M11.05 56.2 Q12.05 52.65 14.05 53.55 14.1 54.6 14.3 55.5 12.4 56.0 12.4 57.5 L11.05 56.2 M13.35 62.6 L12.95 62.25 Q11.35 59.3 12.4 59.3 L15.45 61.9 14.2 59.2 15.35 60.3 13.95 56.5 Q15.75 60.9 17.5 61.85 16.15 62.9 13.35 62.6" fill="#878072" fill-rule="evenodd" stroke="none"/>
      <path d="M18.55 63.45 Q16.85 63.3 16.1 64.4 L13.35 62.6 Q16.15 62.9 17.5 61.85 19.5 62.75 18.55 63.45" fill="#918d88" fill-rule="evenodd" stroke="none"/>
      <path d="M14.3 55.5 Q14.1 54.6 14.05 53.55 12.05 52.65 11.05 56.2 M14.3 55.5 Q15.2 59.35 19.05 61.5 20.05 63.85 18.55 63.45 16.85 63.3 16.1 64.4 L13.35 62.6 12.95 62.25 9.85 58.9 Q8.45 56.75 11.05 56.2" fill="none" stroke="#000000" stroke-linecap="round" stroke-linejoin="round" stroke-opacity="0.3019608" stroke-width="0.4"/>
      <path d="M21.7 56.65 L21.7 56.8 21.75 57.6 21.7 56.65" fill="#d6c6a4" fill-rule="evenodd" stroke="none"/>
      <path d="M21.75 57.6 L21.75 58.85 21.75 57.6" fill="#947e57" fill-rule="evenodd" stroke="none"/>
      <path d="M21.75 57.6 L21.85 57.65 22.0 59.2 Q22.9 59.7 20.25 62.7 L19.3 62.2 Q15.75 60.15 13.7 54.3 13.65 53.6 13.95 53.35 L16.3 56.2 19.85 60.4 18.9 57.55 21.75 57.6 21.75 58.85 21.75 57.6" fill="#574933" fill-rule="evenodd" stroke="none"/>
      <path d="M21.7 56.65 L21.75 57.6 18.9 57.55 19.85 60.4 16.3 56.2 16.0 53.8 18.85 56.75 20.5 52.45 Q21.85 55.15 21.7 56.1 L21.7 56.65" fill="#7d7360" fill-rule="evenodd" stroke="none"/>
      <path d="M16.3 56.2 L13.95 53.35 Q14.55 51.55 17.85 51.0 16.85 53.1 20.5 52.45 L18.85 56.75 16.0 53.8 16.3 56.2" fill="#a69e8d" fill-rule="evenodd" stroke="none"/>
      <path d="M21.75 57.6 L21.7 56.8 21.7 56.65 21.75 57.6 21.75 58.85 21.75 57.6 M21.85 57.65 L21.7 56.8 M20.5 52.45 Q21.85 55.15 21.7 56.1 L21.7 56.65 M13.95 53.35 Q13.65 53.6 13.7 54.3 M19.3 62.2 L20.25 62.7 Q22.9 59.7 22.0 59.2 L21.85 57.65 M20.5 52.45 Q16.85 53.1 17.85 51.0 14.55 51.55 13.95 53.35" fill="none" stroke="#000000" stroke-linecap="round" stroke-linejoin="round" stroke-opacity="0.3019608" stroke-width="0.4"/>
      <path d="M10.7 61.05 L14.25 65.25 13.3 62.45 16.05 63.7 Q15.5 65.9 13.7 67.05 10.15 65.05 8.1 59.2 8.05 58.5 8.35 58.25 L10.7 61.05" fill="#423726" fill-rule="evenodd" stroke="none"/>
      <path d="M13.7 67.05 Q15.5 65.9 16.05 63.7 L13.3 62.45 14.25 65.25 10.7 61.05 10.4 58.7 13.25 61.65 12.8 60.35 Q13.9 62.75 16.1 63.65 L16.1 63.7 16.35 64.05 Q17.25 64.55 14.65 67.55 L13.7 67.05" fill="#7a705d" fill-rule="evenodd" stroke="none"/>
      <path d="M12.8 60.35 L13.25 61.65 10.4 58.7 10.7 61.05 8.35 58.25 Q8.95 56.4 11.2 55.45 11.25 58.0 12.8 60.35" fill="#a69e8d" fill-rule="evenodd" stroke="none"/>
      <path d="M13.7 67.05 L14.65 67.55 Q17.25 64.55 16.35 64.05 L16.1 63.7 16.1 63.65 M8.35 58.25 Q8.05 58.5 8.1 59.2 10.15 65.05 13.7 67.05 M8.35 58.25 Q8.95 56.4 11.2 55.45" fill="none" stroke="#000000" stroke-linecap="round" stroke-linejoin="round" stroke-opacity="0.3019608" stroke-width="0.4"/>
      <path d="M11.6 67.75 Q11.7 68.35 11.4 68.65 10.9 69.3 9.55 68.85 8.25 68.4 6.85 67.15 5.5 65.95 4.85 64.65 4.25 63.35 4.75 62.7 5.05 62.4 5.55 62.35" fill="none" stroke="#000000" stroke-linecap="round" stroke-linejoin="round" stroke-width="1.0"/>
      <path d="M39.25 3.0 L44.2 2.55 Q45.05 2.4 45.85 2.55 L43.4 2.85 42.2 3.0 Q41.2 3.15 41.0 3.4 40.45 4.0 40.45 4.35 40.45 5.25 42.25 5.25 L44.9 5.0 46.5 4.65 Q46.25 4.8 46.25 5.05 L46.4 5.4 Q46.7 5.75 47.3 5.75 L48.25 5.45 48.5 4.95 Q48.5 4.3 47.8 4.35 L46.8 4.5 Q47.15 4.3 48.05 3.95 L48.15 3.9 Q49.5 5.45 50.1 8.6 L50.35 7.4 50.6 8.85 33.55 5.25 34.7 3.85 39.25 3.0 M43.55 10.95 L45.25 11.8 45.95 11.65 46.35 11.8 Q46.4 11.2 46.95 11.25 47.55 11.3 47.55 11.9 L47.4 12.3 46.95 12.55 46.55 12.45 Q46.4 13.0 45.35 13.0 L43.85 12.5 42.35 11.85 41.1 11.25 40.85 10.7 Q40.85 10.1 41.5 10.1 42.1 10.1 43.55 10.95 M40.9 9.8 L38.65 9.15 Q37.4 8.65 37.4 8.0 37.4 7.75 37.7 7.35 38.05 6.85 38.4 6.85 38.75 6.85 43.9 8.6 L46.4 9.65 Q47.05 10.0 47.05 10.6 47.05 11.35 45.65 11.35 L43.6 10.75 40.9 9.8" fill="#6d5f54" fill-rule="evenodd" stroke="none"/>
      <path d="M49.2 1.1 L39.25 3.0 34.7 3.85 34.1 3.2 42.05 0.0 49.2 1.1 M45.85 2.55 L47.6 2.45 Q48.5 2.55 48.5 3.2 48.5 3.7 48.15 3.9 L48.05 3.95 Q47.15 4.3 46.8 4.5 L47.8 4.35 Q48.5 4.3 48.5 4.95 L48.25 5.45 47.3 5.75 Q46.7 5.75 46.4 5.4 L46.25 5.05 Q46.25 4.8 46.5 4.65 L44.9 5.0 42.25 5.25 Q40.45 5.25 40.45 4.35 40.45 4.0 41.0 3.4 41.2 3.15 42.2 3.0 L43.4 2.85 45.85 2.55" fill="#897469" fill-rule="evenodd" stroke="none"/>
      <path d="M40.9 9.8 L43.6 10.75 45.65 11.35 Q47.05 11.35 47.05 10.6 47.05 10.0 46.4 9.65 L43.9 8.6 Q38.75 6.85 38.4 6.85 38.05 6.85 37.7 7.35 37.4 7.75 37.4 8.0 37.4 8.65 38.65 9.15 L40.9 9.8 M43.55 10.95 Q42.1 10.1 41.5 10.1 40.85 10.1 40.85 10.7 L41.1 11.25 42.35 11.85 43.85 12.5 45.35 13.0 Q46.4 13.0 46.55 12.45 L46.95 12.55 47.4 12.3 47.55 11.9 Q47.55 11.3 46.95 11.25 46.4 11.2 46.35 11.8 L45.95 11.65 45.25 11.8 43.55 10.95 M49.85 10.9 L45.4 18.95 45.4 18.9 32.45 6.6 33.55 5.45 Q48.75 8.0 49.85 10.9" fill="#4d433a" fill-rule="evenodd" stroke="none"/>
      <path d="M29.45 24.0 L29.3 24.6 27.55 16.75 28.9 10.15 29.65 10.05 29.45 24.0" fill="#211d1b" fill-rule="evenodd" stroke="none"/>
      <path d="M49.2 1.1 L49.35 1.2 50.35 7.4 50.1 8.6 Q49.5 5.45 48.15 3.9 48.5 3.7 48.5 3.2 48.5 2.55 47.6 2.45 L45.85 2.55 Q45.05 2.4 44.2 2.55 L39.25 3.0 49.2 1.1 M49.85 10.9 Q48.75 8.0 33.55 5.45 L33.55 5.25 50.6 8.85 50.7 8.85 49.85 10.9" fill="#bea588" fill-rule="evenodd" stroke="none"/>
      <path d="M36.65 25.45 L29.3 24.7 29.45 24.0 29.65 10.05 31.05 8.3 36.65 25.45" fill="#241e1b" fill-rule="evenodd" stroke="none"/>
      <path d="M32.45 6.6 L45.4 18.9 36.65 25.45 31.05 8.3 32.45 6.6" fill="#332c27" fill-rule="evenodd" stroke="none"/>
      <path d="M49.35 1.2 L49.2 1.1 42.05 0.0 34.1 3.2 34.7 3.85 M45.4 18.9 L45.4 18.95 49.85 10.9 50.7 8.85 50.6 8.85 M33.55 5.45 L32.45 6.6 M45.4 18.9 L36.65 25.45 29.3 24.7 29.45 24.0 29.3 24.6 27.55 16.75 28.9 10.15 29.65 10.05 31.05 8.3 32.45 6.6 M33.55 5.25 L33.55 5.45 M29.45 24.0 L29.65 10.05 M31.05 8.3 L36.65 25.45" fill="none" stroke="#000000" stroke-linecap="round" stroke-linejoin="round" stroke-opacity="0.3019608" stroke-width="0.4"/>
      <path d="M50.6 8.85 L50.35 7.4 M34.7 3.85 L33.55 5.25" fill="none" stroke="#ffffff" stroke-linecap="round" stroke-linejoin="round" stroke-opacity="0.15294118" stroke-width="0.4"/>
      <path d="M34.7 3.85 L39.25 3.0 M32.45 6.6 L45.4 18.9 M50.6 8.85 L33.55 5.25" fill="none" stroke="#ffffff" stroke-linecap="round" stroke-linejoin="round" stroke-opacity="0.2627451" stroke-width="0.5"/>
      <path d="M55.65 13.45 L57.95 15.6 52.85 25.35 50.4 23.3 55.65 13.45" fill="#ff6633" fill-rule="evenodd" stroke="none"/>
      <path d="M57.95 15.6 L55.65 13.45 55.65 13.2 54.35 5.65 56.75 8.05 57.95 15.6" fill="#fe7a5a" fill-rule="evenodd" stroke="none"/>
      <path d="M50.4 23.3 L52.85 25.35 52.9 25.4 43.85 32.05 41.5 29.9 50.4 23.35 50.4 23.3" fill="#ba2501" fill-rule="evenodd" stroke="none"/>
      <path d="M41.5 29.9 L43.85 32.05 43.65 32.2 37.0 31.45 34.55 29.25 41.2 30.0 41.35 30.0 41.5 29.9" fill="#8f1d01" fill-rule="evenodd" stroke="none"/>
      <path d="M57.95 15.6 L56.75 8.05 54.35 5.65 55.65 13.2 55.65 13.45 50.4 23.3 M52.85 25.35 L57.95 15.6 M41.5 29.9 L50.4 23.35 50.4 23.3 M43.85 32.05 L41.5 29.9 41.35 30.0 41.2 30.0 34.55 29.25 37.0 31.45 43.65 32.2 43.85 32.05 52.9 25.4 52.85 25.35 M41.2 30.0 L41.5 29.9" fill="none" stroke="#000000" stroke-linecap="round" stroke-linejoin="round" stroke-opacity="0.3019608" stroke-width="0.25"/>
      <path d="M55.65 13.45 L57.95 15.6 M50.4 23.3 L52.85 25.35" fill="none" stroke="#ffffff" stroke-linecap="round" stroke-linejoin="round" stroke-opacity="0.3019608" stroke-width="0.25"/>
      <path d="M66.95 23.4 L69.25 25.55 64.15 35.3 61.7 33.25 66.95 23.4" fill="#ff6633" fill-rule="evenodd" stroke="none"/>
      <path d="M69.25 25.55 L66.95 23.4 66.95 23.15 65.65 15.6 68.05 18.0 69.25 25.55" fill="#fe7a5a" fill-rule="evenodd" stroke="none"/>
      <path d="M61.7 33.25 L64.15 35.3 64.2 35.35 55.15 42.0 52.8 39.85 61.7 33.3 61.7 33.25" fill="#ba2501" fill-rule="evenodd" stroke="none"/>
      <path d="M52.8 39.85 L55.15 42.0 54.95 42.15 48.3 41.4 45.85 39.2 52.5 39.95 52.65 39.95 52.8 39.85" fill="#8f1d01" fill-rule="evenodd" stroke="none"/>
      <path d="M69.25 25.55 L68.05 18.0 65.65 15.6 66.95 23.15 66.95 23.4 61.7 33.25 M64.15 35.3 L69.25 25.55 M52.8 39.85 L61.7 33.3 61.7 33.25 M52.5 39.95 L52.8 39.85 55.15 42.0 64.2 35.35 64.15 35.3 M52.8 39.85 L52.65 39.95 52.5 39.95 45.85 39.2 48.3 41.4 54.95 42.15 55.15 42.0" fill="none" stroke="#000000" stroke-linecap="round" stroke-linejoin="round" stroke-opacity="0.3019608" stroke-width="0.25"/>
      <path d="M66.95 23.4 L69.25 25.55 M61.7 33.25 L64.15 35.3" fill="none" stroke="#ffffff" stroke-linecap="round" stroke-linejoin="round" stroke-opacity="0.3019608" stroke-width="0.25"/>
      <path d="M6.85 62.75 Q6.85 61.25 8.8 60.75 9.65 64.6 13.55 66.8 14.5 69.05 13.05 68.65 13.95 67.95 12.0 67.1 10.2 66.15 8.45 61.75 L9.85 65.55 8.65 64.45 6.85 62.75" fill="#4f422e" fill-rule="evenodd" stroke="none"/>
      <path d="M8.55 58.85 Q8.6 59.8 8.8 60.75 6.85 61.25 6.85 62.75 L5.5 61.45 Q6.45 57.9 8.55 58.85 M7.8 67.8 L7.35 67.5 Q5.8 64.5 6.85 64.5 L9.9 67.15 8.65 64.45 9.85 65.55 8.45 61.75 Q10.2 66.15 12.0 67.1 10.65 68.1 7.8 67.8" fill="#9e9686" fill-rule="evenodd" stroke="none"/>
      <path d="M5.5 61.45 L6.85 62.75 8.65 64.45 9.9 67.15 6.85 64.5 Q5.8 64.5 7.35 67.5 L4.3 64.1 Q2.9 62.0 5.5 61.45" fill="#7a705d" fill-rule="evenodd" stroke="none"/>
      <path d="M13.05 68.65 Q11.35 68.5 10.55 69.65 9.25 69.1 7.8 67.8 10.65 68.1 12.0 67.1 13.95 67.95 13.05 68.65" fill="#b5b0aa" fill-rule="evenodd" stroke="none"/>
      <path d="M8.55 58.85 Q6.45 57.9 5.5 61.45 M13.55 66.8 Q14.5 69.05 13.05 68.65 11.35 68.5 10.55 69.65 9.25 69.1 7.8 67.8 L7.35 67.5 4.3 64.1 Q2.9 62.0 5.5 61.45" fill="none" stroke="#000000" stroke-linecap="round" stroke-linejoin="round" stroke-opacity="0.3019608" stroke-width="0.4"/>
      <path d="M37.05 3.45 L37.1 3.5 37.55 6.4 35.55 10.2 32.25 12.65 32.2 12.65 29.5 12.35 29.0 9.45 31.05 5.6 34.35 3.15 37.05 3.45" fill="#302925" fill-rule="evenodd" stroke="none"/>
      <path d="M37.05 3.45 L37.1 3.5 M37.55 6.4 L35.55 10.2 32.25 12.65 32.2 12.65 29.5 12.35 29.0 9.45 31.05 5.6 34.35 3.15" fill="none" stroke="#000000" stroke-linecap="round" stroke-linejoin="round" stroke-opacity="0.3019608" stroke-width="0.4"/>
      <path d="M37.1 3.5 L37.55 6.4 M34.35 3.15 L37.05 3.45 Z" fill="none" stroke="#ffffff" stroke-linecap="round" stroke-linejoin="round" stroke-opacity="0.4" stroke-width="0.4"/>
      <path d="M58.2 3.45 Q67.35 5.85 72.4 11.95 77.7 18.2 75.65 24.25 73.6 30.55 65.7 33.3 58.0 36.15 48.85 33.9 39.85 31.65 34.7 25.45 29.45 19.3 31.35 12.95 33.4 6.7 41.25 4.0 49.05 1.2 58.2 3.45" fill="url(#gradient0)" fill-rule="evenodd" stroke="none"/>
    </g>
    <radialGradient cx="0" cy="0" gradientTransform="matrix(0.0299, -0.0107, 0.0195, 0.0233, 53.6, 18.75)" gradientUnits="userSpaceOnUse" id="gradient0" r="819.2" spreadMethod="pad">
      <stop offset="0.0" stop-color="#ffffde" stop-opacity="0.3019608"/>
      <stop offset="0.4117647058823529" stop-color="#ffffcc" stop-opacity="0.0"/>
    </radialGradient>
  </defs>
</svg>
