<?xml version="1.0" encoding="UTF-8" standalone="no"?>
<svg xmlns:xlink="http://www.w3.org/1999/xlink" height="440.0px" width="440.0px" xmlns="http://www.w3.org/2000/svg">
  <g transform="matrix(10.0, 0.0, 0.0, 10.0, 0.0, 0.0)">
    <use height="44.0" transform="matrix(1.0, 0.0, 0.0, 1.0, 0.0, 0.0)" width="44.0" xlink:href="#shape0"/>
    <use height="81.45" transform="matrix(0.4916, 0.0, 0.0, 0.4916, 4.1517, 2.7008)" width="75.25" xlink:href="#shape1"/>
    <use height="8.7" transform="matrix(1.0, 0.0, 0.0, 1.0, 18.45, 21.3)" width="7.7" xlink:href="#shape2"/>
  </g>
  <defs>
    <g id="shape0" transform="matrix(1.0, 0.0, 0.0, 1.0, 0.0, 0.0)">
      <path d="M44.0 44.0 L0.0 44.0 0.0 0.0 44.0 0.0 44.0 44.0" fill="#33cc33" fill-opacity="0.0" fill-rule="evenodd" stroke="none"/>
    </g>
    <g id="shape1" transform="matrix(1.0, 0.0, 0.0, 1.0, 0.2, 0.1)">
      <path d="M26.6 43.05 Q28.1 40.8 30.9 40.8 34.85 39.6 36.4 42.65 36.9 43.65 36.75 44.4 L36.35 45.1 36.3 45.15 36.25 45.2 36.2 45.25 36.15 45.3 36.05 45.4 36.0 45.45 35.9 45.5 35.7 45.65 35.6 45.7 35.45 45.8 35.4 45.8 35.15 45.9 Q30.8 47.8 27.65 45.4 L26.75 44.6 Q26.05 43.9 26.6 43.05" fill="#a79e76" fill-rule="evenodd" stroke="none"/>
      <path d="M6.65 78.25 L6.8 79.0 Q6.85 80.2 6.05 80.75 5.2 81.3 3.85 81.1 2.45 80.9 1.5 79.9 0.5 78.9 0.2 77.95 L0.05 77.1 0.0 76.9 Q-0.15 75.3 0.85 74.5 1.25 74.1 1.85 74.0 L2.75 74.05 2.55 74.3 1.65 75.0 Q1.25 75.85 1.3 76.45 L1.35 76.65 1.45 77.1 1.5 77.25 1.7 77.8 2.3 78.7 3.05 79.35 Q3.6 79.75 4.3 79.95 L4.5 80.0 4.65 80.0 5.65 79.75 6.65 78.25" fill="#de941e" fill-rule="evenodd" stroke="none"/>
      <path d="M36.45 42.85 L37.2 43.1 17.1 64.45 22.3 57.95 36.45 42.85 M2.75 74.05 L32.5 41.55 33.9 42.0 22.95 53.85 1.45 77.1 1.35 76.65 1.3 76.45 Q1.25 75.85 1.65 75.0 L2.55 74.3 2.75 74.05" fill="#a15c3d" fill-rule="evenodd" stroke="none"/>
      <path d="M36.45 42.85 L22.3 57.95 6.85 74.5 22.95 53.85 33.9 42.0 36.45 42.85" fill="#663a26" fill-rule="evenodd" stroke="none"/>
      <path d="M3.05 79.35 L2.3 78.7 1.7 77.8 1.5 77.25 1.45 77.1 22.95 53.85 6.85 74.5 3.05 79.35" fill="#7d472f" fill-rule="evenodd" stroke="none"/>
      <path d="M22.3 57.95 L17.1 64.45 4.65 80.0 4.5 80.0 4.3 79.95 Q3.6 79.75 3.05 79.35 L6.85 74.5 22.3 57.95" fill="#73412b" fill-rule="evenodd" stroke="none"/>
      <path d="M17.1 64.45 L37.2 43.1 38.05 43.35 8.9 75.75 8.5 76.15 6.65 78.25 5.65 79.75 4.65 80.0 17.1 64.45" fill="#c58265" fill-rule="evenodd" stroke="none"/>
      <path d="M38.05 43.35 L8.9 75.75 M8.5 76.15 L6.65 78.25 6.8 79.0 Q6.85 80.2 6.05 80.75 5.2 81.3 3.85 81.1 2.45 80.9 1.5 79.9 0.5 78.9 0.2 77.95 L0.05 77.1 0.0 76.9 Q-0.15 75.3 0.85 74.5 1.25 74.1 1.85 74.0 L2.75 74.05 32.5 41.55 M4.65 80.0 L5.65 79.75 6.65 78.25 M3.05 79.35 L2.3 78.7 1.7 77.8 1.5 77.25 1.45 77.1 1.35 76.65 1.3 76.45 Q1.25 75.85 1.65 75.0 L2.55 74.3 2.75 74.05 M4.5 80.0 L4.3 79.95 Q3.6 79.75 3.05 79.35" fill="none" stroke="#000000" stroke-linecap="round" stroke-linejoin="round" stroke-opacity="0.3019608" stroke-width="0.4"/>
      <path d="M9.35 67.05 Q9.35 65.55 11.25 65.05 12.15 68.9 16.0 71.05 17.0 73.4 15.5 73.0 16.45 72.3 14.45 71.4 12.7 70.45 10.9 66.05 L12.3 69.85 11.15 68.75 9.35 67.05" fill="#4a3e2b" fill-rule="evenodd" stroke="none"/>
      <path d="M8.0 65.75 L9.35 67.05 11.15 68.75 12.4 71.45 9.35 68.85 Q8.3 68.85 9.9 71.8 L6.8 68.45 Q5.4 66.3 8.0 65.75" fill="#6e6554" fill-rule="evenodd" stroke="none"/>
      <path d="M8.0 65.75 Q9.0 62.2 11.0 63.1 L11.25 65.05 Q9.35 65.55 9.35 67.05 L8.0 65.75 M10.3 72.15 L9.9 71.8 Q8.3 68.85 9.35 68.85 L12.4 71.45 11.15 68.75 12.3 69.85 10.9 66.05 Q12.7 70.45 14.45 71.4 13.1 72.45 10.3 72.15" fill="#878072" fill-rule="evenodd" stroke="none"/>
      <path d="M15.5 73.0 Q13.8 72.85 13.05 73.95 11.75 73.4 10.3 72.15 13.1 72.45 14.45 71.4 16.45 72.3 15.5 73.0" fill="#918d88" fill-rule="evenodd" stroke="none"/>
      <path d="M11.25 65.05 L11.0 63.1 Q9.0 62.2 8.0 65.75 M11.25 65.05 Q12.15 68.9 16.0 71.05 17.0 73.4 15.5 73.0 13.8 72.85 13.05 73.95 11.75 73.4 10.3 72.15 L9.9 71.8 6.8 68.45 Q5.4 66.3 8.0 65.75" fill="none" stroke="#000000" stroke-linecap="round" stroke-linejoin="round" stroke-opacity="0.3019608" stroke-width="0.4"/>
      <path d="M18.65 66.2 L18.65 66.35 18.7 67.15 18.65 66.2" fill="#d6c6a4" fill-rule="evenodd" stroke="none"/>
      <path d="M18.7 67.15 L18.7 68.4 18.7 67.15" fill="#947e57" fill-rule="evenodd" stroke="none"/>
      <path d="M18.7 67.15 L18.8 67.2 18.95 68.75 Q19.85 69.25 17.2 72.25 L16.25 71.75 Q12.7 69.7 10.65 63.85 10.6 63.15 10.9 62.9 L13.25 65.75 16.8 69.95 15.85 67.1 18.7 67.15 18.7 68.4 18.7 67.15" fill="#574933" fill-rule="evenodd" stroke="none"/>
      <path d="M18.65 66.2 L18.7 67.15 15.85 67.1 16.8 69.95 13.25 65.75 12.95 63.35 15.8 66.3 17.45 62.0 Q18.8 64.7 18.65 65.65 L18.65 66.2" fill="#7d7360" fill-rule="evenodd" stroke="none"/>
      <path d="M13.25 65.75 L10.9 62.9 Q11.5 61.1 14.8 60.55 13.8 62.65 17.45 62.0 L15.8 66.3 12.95 63.35 13.25 65.75" fill="#a69e8d" fill-rule="evenodd" stroke="none"/>
      <path d="M18.7 67.15 L18.65 66.35 18.65 66.2 18.7 67.15 18.7 68.4 18.7 67.15 M18.8 67.2 L18.65 66.35 M17.45 62.0 Q18.8 64.7 18.65 65.65 L18.65 66.2 M10.9 62.9 Q10.6 63.15 10.65 63.85 M16.25 71.75 L17.2 72.25 Q19.85 69.25 18.95 68.75 L18.8 67.2 M17.45 62.0 Q13.8 62.65 14.8 60.55 11.5 61.1 10.9 62.9" fill="none" stroke="#000000" stroke-linecap="round" stroke-linejoin="round" stroke-opacity="0.3019608" stroke-width="0.4"/>
      <path d="M7.65 70.6 L11.2 74.8 10.25 72.0 13.0 73.25 Q12.45 75.45 10.65 76.6 7.1 74.6 5.05 68.75 5.0 68.05 5.3 67.8 L7.65 70.6" fill="#423726" fill-rule="evenodd" stroke="none"/>
      <path d="M10.65 76.6 Q12.45 75.45 13.0 73.25 L10.25 72.0 11.2 74.8 7.65 70.6 7.35 68.25 10.2 71.2 9.75 69.9 Q10.85 72.3 13.05 73.2 L13.05 73.25 13.3 73.6 Q14.2 74.1 11.6 77.1 L10.65 76.6" fill="#7a705d" fill-rule="evenodd" stroke="none"/>
      <path d="M9.75 69.9 L10.2 71.2 7.35 68.25 7.65 70.6 5.3 67.8 Q5.9 65.95 8.15 65.0 8.2 67.55 9.75 69.9" fill="#a69e8d" fill-rule="evenodd" stroke="none"/>
      <path d="M10.65 76.6 L11.6 77.1 Q14.2 74.1 13.3 73.6 L13.05 73.25 13.05 73.2 M5.3 67.8 Q5.0 68.05 5.05 68.75 7.1 74.6 10.65 76.6 M5.3 67.8 Q5.9 65.95 8.15 65.0" fill="none" stroke="#000000" stroke-linecap="round" stroke-linejoin="round" stroke-opacity="0.3019608" stroke-width="0.4"/>
      <path d="M3.8 72.3 Q3.8 70.8 5.75 70.3 6.6 74.15 10.5 76.35 11.45 78.6 10.0 78.2 10.9 77.5 8.95 76.65 7.15 75.7 5.4 71.3 L6.8 75.1 5.6 74.0 3.8 72.3" fill="#4f422e" fill-rule="evenodd" stroke="none"/>
      <path d="M3.8 72.3 L2.45 71.0 Q3.4 67.45 5.5 68.4 5.55 69.35 5.75 70.3 3.8 70.8 3.8 72.3 M2.95 78.85 Q2.8 74.05 3.8 74.05 L6.85 76.7 5.6 74.0 6.8 75.1 5.4 71.3 Q7.15 75.7 8.95 76.65 7.7 77.55 5.4 79.5 L4.95 79.85 2.95 79.2 2.95 79.0 2.95 78.85" fill="#9e9686" fill-rule="evenodd" stroke="none"/>
      <path d="M2.45 71.0 L3.8 72.3 5.6 74.0 6.85 76.7 3.8 74.05 Q2.8 74.05 2.95 78.85 2.0 78.25 0.9 75.0 -0.2 71.7 2.45 71.0" fill="#7a705d" fill-rule="evenodd" stroke="none"/>
      <path d="M5.4 79.5 Q7.7 77.55 8.95 76.65 10.9 77.5 10.0 78.2 8.3 78.05 7.5 79.2 6.45 78.75 5.4 79.5" fill="#b5b0aa" fill-rule="evenodd" stroke="none"/>
      <path d="M5.5 68.4 Q3.4 67.45 2.45 71.0 -0.2 71.7 0.9 75.0 2.0 78.25 2.95 78.85 L2.95 79.0 2.95 79.2 4.95 79.85 5.4 79.5 Q6.45 78.75 7.5 79.2 8.3 78.05 10.0 78.2 11.45 78.6 10.5 76.35" fill="none" stroke="#000000" stroke-linecap="round" stroke-linejoin="round" stroke-opacity="0.3019608" stroke-width="0.4"/>
      <path d="M45.15 19.15 Q45.5 18.95 46.1 18.9 L51.75 19.5 51.95 19.6 Q56.3 19.1 55.4 22.55 55.1 23.7 53.9 23.75 L50.8 23.6 50.05 23.05 46.35 20.1 45.15 19.15 M18.95 14.3 L18.3 20.7 18.2 21.5 11.75 30.35 9.75 33.1 8.65 29.85 9.8 25.0 18.95 14.3 M14.6 22.55 Q14.45 22.4 14.25 22.4 13.9 22.4 13.25 23.3 L12.6 24.35 12.1 25.4 11.35 26.0 Q11.0 26.1 11.0 26.4 L11.05 26.65 Q11.15 26.85 11.4 26.85 L12.0 26.65 12.2 26.9 12.35 27.3 12.35 27.65 12.75 27.95 Q13.55 27.95 15.15 24.95 16.35 22.35 16.35 21.8 16.35 21.25 15.95 21.25 15.55 21.25 15.1 21.8 L14.6 22.55 M27.75 44.25 L26.9 43.55 30.1 39.7 39.25 44.1 37.7 45.75 37.7 45.8 35.35 45.25 Q36.85 42.65 32.7 41.6 L29.55 42.05 Q28.2 42.35 27.9 43.6 L27.85 43.65 27.75 44.25" fill="#b3ae88" fill-rule="evenodd" stroke="none"/>
      <path d="M33.65 2.95 L33.75 3.3 33.7 3.1 33.6 2.9 33.65 2.95 M39.75 8.65 L40.75 9.4 39.35 8.55 39.75 8.65 M57.75 29.05 L58.15 28.05 58.35 23.75 63.35 27.55 63.85 27.2 66.25 25.45 68.05 26.85 71.45 31.65 74.15 40.45 73.15 41.3 61.75 32.2 62.5 32.1 61.75 32.2 58.7 29.75 57.75 29.05 M58.15 28.05 L58.1 28.85 58.15 28.05 M63.85 27.2 L63.85 27.9 63.35 27.55 63.85 27.9 63.85 27.2 M71.75 33.9 L63.85 27.9 71.75 33.9" fill="#cbcaad" fill-rule="evenodd" stroke="none"/>
      <path d="M73.15 41.3 L74.15 40.45 74.85 42.7 73.4 44.4 73.0 41.4 73.15 41.3 M35.75 9.3 L35.85 9.25 39.55 14.4 39.25 14.5 37.85 14.85 37.6 14.9 34.3 15.65 34.3 15.6 34.55 15.35 34.35 15.4 34.8 13.45 34.95 12.75 35.75 9.3 M36.85 12.6 L36.85 12.5 36.8 12.55 36.85 12.65 36.85 12.6 M15.6 37.7 L15.5 37.8 15.8 37.65 15.9 37.7 15.6 39.4 14.75 44.25 12.65 41.15 11.55 38.5 11.55 38.4 15.6 37.7" fill="#dddbcc" fill-rule="evenodd" stroke="none"/>
      <path d="M55.95 27.55 L56.0 27.5 56.0 27.6 55.95 27.55 M28.05 23.05 L28.0 23.0 28.05 22.95 28.05 23.05 M36.8 12.55 L36.85 12.5 36.85 12.6 36.8 12.55" fill="#ae9e99" fill-rule="evenodd" stroke="none"/>
      <path d="M35.0 6.9 L34.85 6.5 37.75 7.65 38.1 7.8 39.05 8.05 39.45 8.2 44.0 9.35 39.75 8.65 39.1 8.1 38.2 7.85 39.35 8.55 35.3 7.85 35.0 6.9 38.2 7.85 38.1 7.8 38.2 7.85 35.0 6.9 M41.95 16.65 L42.55 17.1 42.95 17.4 42.9 17.4 36.75 19.05 Q40.9 17.8 41.95 16.65 M55.45 65.85 Q55.55 61.4 54.45 57.1 56.3 61.3 56.65 64.4 L56.45 64.65 55.45 65.85 M39.35 8.55 L38.2 7.85 39.1 8.1 39.75 8.65 39.35 8.55 M39.45 8.2 L39.1 8.1 39.05 8.05 39.1 8.1 39.45 8.2 M43.9 52.25 L43.75 51.95 44.05 51.95 43.9 52.25" fill="#a79e76" fill-rule="evenodd" stroke="none"/>
      <path d="M23.25 29.0 L23.2 28.9 23.2 28.85 23.25 29.0" fill="#c2bfa3" fill-rule="evenodd" stroke="none"/>
      <path d="M28.05 23.05 L28.05 22.95 33.15 16.85 33.25 16.9 30.8 19.8 28.05 23.05" fill="#cccccc" fill-rule="evenodd" stroke="none"/>
      <path d="M24.4 27.45 L24.9 26.8 24.65 29.75 24.5 35.25 23.65 31.05 23.3 29.2 23.25 29.0 23.2 28.85 23.2 28.7 24.4 27.45" fill="#80785a" fill-rule="evenodd" stroke="none"/>
      <path d="M24.8 26.8 L24.4 27.45 23.2 28.7 23.1 28.8 22.65 24.45 24.8 26.8" fill="#4f4a38" fill-rule="evenodd" stroke="none"/>
      <path d="M38.5 23.95 L38.4 23.75 38.4 23.5 Q38.4 22.95 38.8 23.0 39.0 23.0 39.1 23.15 L39.2 23.5 Q39.2 24.05 38.8 24.05 L38.5 23.95 M56.45 46.25 L57.3 45.2 59.95 47.95 Q59.75 48.0 59.75 48.4 L59.75 48.65 60.2 48.95 60.55 48.55 65.65 53.7 56.45 64.65 56.65 64.4 Q56.3 61.3 54.45 57.1 55.55 61.4 55.45 65.85 L53.65 68.05 51.5 66.3 51.25 66.05 54.5 48.55 55.0 47.95 56.45 46.25 M32.1 31.95 L32.85 31.95 32.25 32.5 32.1 31.95 M33.7 24.4 Q34.6 25.1 34.7 25.5 L34.95 26.65 35.15 27.75 34.75 30.0 Q34.4 31.15 33.8 31.15 33.25 31.15 33.1 30.5 L32.8 29.4 Q32.65 29.05 32.65 28.5 L32.7 27.6 32.8 25.75 32.7 24.85 Q32.7 23.65 33.7 24.4 M24.65 29.75 L30.85 22.35 30.85 22.4 30.85 26.5 30.9 33.2 23.05 38.9 21.45 34.0 23.65 31.05 24.5 35.25 24.65 29.75 M29.45 32.5 L29.95 31.6 29.7 30.25 Q29.25 29.8 27.9 31.55 L26.5 33.15 Q26.15 33.65 26.15 34.5 26.15 34.95 26.55 34.95 27.95 34.95 28.6 33.4 L29.45 32.5 M21.3 47.75 L21.75 44.9 29.25 49.45 29.75 49.75 29.75 55.25 Q26.05 52.4 21.3 47.75 M59.75 55.95 L59.9 55.95 Q60.5 55.95 60.9 55.1 L61.2 53.55 Q61.2 51.75 60.9 50.85 59.65 48.15 58.65 48.15 57.4 48.15 56.95 49.6 L56.75 51.2 56.95 53.55 Q57.2 55.1 57.65 55.65 L57.7 55.9 57.95 57.9 Q58.2 59.45 58.7 59.45 L59.2 59.05 59.45 58.5 59.1 58.1 59.75 55.95 M58.8 56.1 L58.9 56.1 58.75 56.35 58.8 56.1" fill="#807e5d" fill-rule="evenodd" stroke="none"/>
      <path d="M54.5 48.55 L51.25 66.05 40.65 56.5 42.2 55.8 45.9 58.75 46.1 58.5 53.2 50.1 54.5 48.55 M15.6 39.4 L20.1 35.35 20.15 35.4 23.0 39.6 21.75 44.9 21.3 47.75 14.75 44.25 15.6 39.4" fill="#80785d" fill-rule="evenodd" stroke="none"/>
      <path d="M31.45 29.1 L32.1 31.95 32.25 32.5 32.15 32.55 31.3 32.95 23.65 39.4 22.8 44.85 29.25 49.45 21.75 44.9 23.0 39.6 23.1 39.1 23.05 38.9 30.9 33.2 30.85 26.5 31.45 29.1" fill="#57553f" fill-rule="evenodd" stroke="none"/>
      <path d="M29.75 49.75 L29.75 45.85 31.6 47.35 41.2 55.0 41.45 55.2 39.4 56.5 39.0 56.15 39.4 56.5 34.9 59.35 29.75 55.25 29.75 49.75" fill="#69644c" fill-rule="evenodd" stroke="none"/>
      <path d="M59.5 32.55 L59.75 32.65 70.2 48.25 65.65 53.7 60.55 48.55 60.55 48.45 Q60.55 47.95 60.15 47.9 L59.95 47.95 57.3 45.2 57.35 45.2 61.4 40.35 57.8 37.45 53.0 33.6 59.5 32.55 M59.15 44.8 Q58.75 44.8 58.75 45.2 58.75 45.8 59.45 46.65 L60.65 47.95 62.2 49.25 Q62.65 49.65 63.45 50.1 L64.35 50.5 Q65.25 50.5 65.3 50.05 65.25 49.5 65.35 49.25 L65.8 47.85 Q65.8 46.05 64.7 44.6 64.25 42.6 63.45 42.6 63.0 42.6 62.9 43.0 60.6 41.4 60.6 43.5 L60.8 44.85 60.8 45.15 59.95 45.15 59.15 44.8 M60.25 37.0 L60.4 37.6 Q60.65 38.25 61.1 38.25 62.0 38.25 62.0 37.7 L61.15 36.8 Q60.25 36.1 60.25 37.0 M62.5 44.6 L62.9 45.0 62.8 44.95 61.75 44.45 62.5 44.6" fill="#6b644e" fill-rule="evenodd" stroke="none"/>
      <path d="M39.1 23.15 L40.05 22.15 Q41.8 20.55 41.8 21.65 L41.6 22.05 40.9 22.5 41.35 22.95 40.75 24.4 40.15 25.15 39.5 25.6 Q39.05 25.6 39.05 25.15 L38.7 25.25 Q38.25 25.25 38.25 24.85 L38.5 23.95 38.8 24.05 Q39.2 24.05 39.2 23.5 L39.1 23.15 M50.45 25.25 L50.25 24.95 50.1 24.55 49.7 24.35 47.4 22.55 Q46.15 21.85 46.15 22.75 L46.55 23.2 Q46.05 23.15 46.05 23.65 46.05 24.6 50.95 28.0 L51.85 28.5 52.55 29.1 Q52.7 29.4 54.55 30.15 L55.45 31.05 55.65 31.75 Q55.8 32.25 56.4 32.25 56.9 32.25 56.9 31.8 L56.85 31.55 58.1 32.35 Q58.5 32.35 58.5 31.9 L59.1 32.3 59.5 32.55 53.0 33.6 50.85 31.85 43.35 25.85 46.4 21.45 57.75 29.1 57.55 29.65 57.75 29.1 58.7 29.75 61.75 32.2 60.25 32.45 60.3 32.15 Q60.3 31.4 57.55 29.65 L57.35 29.55 53.7 27.35 50.45 25.25 M33.7 24.4 Q33.95 23.0 34.15 22.8 34.4 22.5 35.6 22.5 L36.35 22.65 Q36.6 22.35 36.95 22.35 L37.55 23.15 37.95 24.4 38.3 26.35 37.9 27.6 Q37.4 28.55 36.9 28.55 L36.35 28.7 36.15 28.7 Q35.35 29.85 34.75 30.0 L35.15 27.75 34.95 26.65 34.7 25.5 Q34.6 25.1 33.7 24.4" fill="#737053" fill-rule="evenodd" stroke="none"/>
      <path d="M59.75 32.65 L59.8 32.65 60.25 32.45 61.75 32.2 73.15 41.3 73.0 41.4 73.4 44.4 70.2 48.25 59.75 32.65" fill="#5f6348" fill-rule="evenodd" stroke="none"/>
      <path d="M51.5 66.3 L53.65 68.05 51.6 70.45 49.05 70.6 34.9 59.35 39.4 56.5 51.5 66.3" fill="#706451" fill-rule="evenodd" stroke="none"/>
      <path d="M36.6 32.0 L32.25 37.15 30.1 39.7 26.9 43.55 27.75 44.25 29.75 45.85 29.75 49.75 29.25 49.45 22.8 44.85 23.65 39.4 31.3 32.95 32.15 32.55 32.25 32.5 32.85 31.95 36.6 32.0 M33.4 33.35 Q33.1 32.9 32.1 33.7 L30.2 35.5 Q29.45 35.5 28.75 36.75 28.15 37.75 28.15 38.2 L28.25 39.2 Q28.4 40.1 28.8 40.1 30.7 40.1 33.55 34.35 L33.4 33.35 M29.05 39.05 Q29.3 38.8 29.5 38.8 L29.05 39.1 29.05 39.05" fill="#5f664a" fill-rule="evenodd" stroke="none"/>
      <path d="M42.9 17.4 L45.15 19.15 46.35 20.1 43.35 24.3 42.55 25.25 42.4 25.1 40.95 26.85 36.6 32.0 32.85 31.95 32.1 31.95 31.45 29.1 32.2 20.9 32.25 20.3 34.55 18.3 36.3 16.75 40.7 15.65 41.95 16.65 Q40.9 17.8 36.75 19.05 L42.9 17.4 M38.5 23.95 L38.25 24.85 Q38.25 25.25 38.7 25.25 L39.05 25.15 Q39.05 25.6 39.5 25.6 L40.15 25.15 40.75 24.4 41.35 22.95 40.9 22.5 41.6 22.05 41.8 21.65 Q41.8 20.55 40.05 22.15 L39.1 23.15 Q39.0 23.0 38.8 23.0 38.4 22.95 38.4 23.5 L38.4 23.75 38.5 23.95 M34.75 30.0 Q35.35 29.85 36.15 28.7 L36.35 28.7 36.9 28.55 Q37.4 28.55 37.9 27.6 L38.3 26.35 37.95 24.4 37.55 23.15 36.95 22.35 Q36.6 22.35 36.35 22.65 L35.6 22.5 Q34.4 22.5 34.15 22.8 33.95 23.0 33.7 24.4 32.7 23.65 32.7 24.85 L32.8 25.75 32.7 27.6 32.65 28.5 Q32.65 29.05 32.8 29.4 L33.1 30.5 Q33.25 31.15 33.8 31.15 34.4 31.15 34.75 30.0 M33.4 33.35 L33.55 34.35 Q30.7 40.1 28.8 40.1 28.4 40.1 28.25 39.2 L28.15 38.2 Q28.15 37.75 28.75 36.75 29.45 35.5 30.2 35.5 L32.1 33.7 Q33.1 32.9 33.4 33.35 M29.45 32.5 L28.6 33.4 Q27.95 34.95 26.55 34.95 26.15 34.95 26.15 34.5 26.15 33.65 26.5 33.15 L27.9 31.55 Q29.25 29.8 29.7 30.25 L29.95 31.6 29.45 32.5 M29.05 39.05 L29.05 39.1 29.5 38.8 Q29.3 38.8 29.05 39.05" fill="#6b694e" fill-rule="evenodd" stroke="none"/>
      <path d="M39.25 14.5 L40.05 15.15 40.7 15.65 36.3 16.75 34.55 18.3 37.6 14.9 37.85 14.85 39.25 14.5 M32.2 20.9 L31.45 29.1 30.85 26.5 30.85 22.4 31.0 22.2 32.2 20.9" fill="#858261" fill-rule="evenodd" stroke="none"/>
      <path d="M50.8 23.6 L57.3 28.65 57.75 29.05 57.75 29.1 46.4 21.45 43.35 25.85 42.55 25.25 43.35 24.3 46.35 20.1 50.05 23.05 50.8 23.6 M57.75 29.1 L57.75 29.05 58.7 29.75 57.75 29.1" fill="#9d997b" fill-rule="evenodd" stroke="none"/>
      <path d="M21.45 34.0 L23.05 38.9 23.1 39.1 23.0 39.6 20.15 35.4 21.45 34.0" fill="#9d937b" fill-rule="evenodd" stroke="none"/>
      <path d="M60.55 48.55 L60.2 48.95 59.75 48.65 59.75 48.4 Q59.75 48.0 59.95 47.95 L60.15 47.9 Q60.55 47.95 60.55 48.45 L60.55 48.55 M59.15 44.8 L59.95 45.15 60.8 45.15 60.8 44.85 60.6 43.5 Q60.6 41.4 62.9 43.0 63.0 42.6 63.45 42.6 64.25 42.6 64.7 44.6 65.8 46.05 65.8 47.85 L65.35 49.25 Q65.25 49.5 65.3 50.05 65.25 50.5 64.35 50.5 L63.45 50.1 Q62.65 49.65 62.2 49.25 L60.65 47.95 59.45 46.65 Q58.75 45.8 58.75 45.2 58.75 44.8 59.15 44.8 M60.25 37.0 Q60.25 36.1 61.15 36.8 L62.0 37.7 Q62.0 38.25 61.1 38.25 60.65 38.25 60.4 37.6 L60.25 37.0 M62.5 44.6 L61.75 44.45 62.8 44.95 62.9 45.0 62.5 44.6" fill="#665e47" fill-rule="evenodd" stroke="none"/>
      <path d="M59.75 55.95 L59.1 58.1 59.45 58.5 59.2 59.05 58.7 59.45 Q58.2 59.45 57.95 57.9 L57.7 55.9 57.65 55.65 Q57.85 55.9 58.15 55.9 L58.7 55.65 58.7 55.2 59.0 55.65 Q59.2 55.9 59.75 55.95 M58.8 56.1 L58.75 56.35 58.9 56.1 58.8 56.1" fill="#7d7a56" fill-rule="evenodd" stroke="none"/>
      <path d="M50.45 25.25 L48.65 24.1 Q47.2 23.25 46.55 23.2 L46.15 22.75 Q46.15 21.85 47.4 22.55 L49.7 24.35 50.1 24.55 50.25 24.95 50.45 25.25 M54.55 30.15 L56.85 31.55 56.9 31.8 Q56.9 32.25 56.4 32.25 55.8 32.25 55.65 31.75 L55.45 31.05 54.55 30.15 M57.65 55.65 Q57.2 55.1 56.95 53.55 L56.75 51.2 56.95 49.6 Q57.4 48.15 58.65 48.15 59.65 48.15 60.9 50.85 61.2 51.75 61.2 53.55 L60.9 55.1 Q60.5 55.95 59.9 55.95 L59.75 55.95 Q59.2 55.9 59.0 55.65 L58.7 55.2 58.7 55.65 58.15 55.9 Q57.85 55.9 57.65 55.65" fill="#757250" fill-rule="evenodd" stroke="none"/>
      <path d="M46.55 23.2 Q47.2 23.25 48.65 24.1 L50.45 25.25 53.7 27.35 57.35 29.55 57.55 29.65 Q60.3 31.4 60.3 32.15 L60.25 32.45 59.8 32.65 59.75 32.65 59.5 32.55 59.1 32.3 58.5 31.9 Q58.5 32.35 58.1 32.35 L56.85 31.55 54.55 30.15 Q52.7 29.4 52.55 29.1 L51.85 28.5 50.95 28.0 Q46.05 24.6 46.05 23.65 46.05 23.15 46.55 23.2 M57.25 30.45 L57.55 29.65 57.25 30.45" fill="#807d61" fill-rule="evenodd" stroke="none"/>
      <path d="M51.25 66.05 L51.5 66.3 39.4 56.5 41.45 55.2 41.2 55.0 40.35 51.6 40.35 51.55 39.9 49.8 39.9 49.75 40.7 51.65 40.75 51.7 42.4 55.65 42.2 55.8 40.65 56.5 51.25 66.05 M41.45 55.2 L42.2 55.8 41.45 55.2" fill="#3d3b2e" fill-rule="evenodd" stroke="none"/>
      <path d="M39.95 43.3 L40.5 43.75 40.75 43.5 43.75 51.95 41.1 51.75 40.7 51.65 39.9 49.75 39.9 49.8 37.7 45.8 37.7 45.75 39.25 44.1 39.95 43.3" fill="#d9d3a5" fill-rule="evenodd" stroke="none"/>
      <path d="M32.25 37.15 L39.95 43.3 39.25 44.1 30.1 39.7 32.25 37.15" fill="#bfb991" fill-rule="evenodd" stroke="none"/>
      <path d="M14.6 22.55 L15.1 21.8 Q15.55 21.25 15.95 21.25 16.35 21.25 16.35 21.8 16.35 22.35 15.15 24.95 13.55 27.95 12.75 27.95 L12.35 27.65 12.35 27.3 12.2 26.9 12.0 26.65 11.4 26.85 Q11.15 26.85 11.05 26.65 L11.0 26.4 Q11.0 26.1 11.35 26.0 L12.1 25.4 12.6 24.35 13.25 23.3 Q13.9 22.4 14.25 22.4 14.45 22.4 14.6 22.55" fill="#9e9978" fill-rule="evenodd" stroke="none"/>
      <path d="M40.95 43.3 L41.9 42.2 43.85 43.6 44.05 43.75 40.95 43.3" fill="#ccc090" fill-rule="evenodd" stroke="none"/>
      <path d="M41.9 42.2 L49.9 32.95 55.25 38.8 54.65 39.1 54.65 39.45 54.2 39.9 52.75 41.2 50.6 37.6 43.85 43.6 41.9 42.2" fill="#7d7658" fill-rule="evenodd" stroke="none"/>
      <path d="M50.85 31.85 L53.0 33.6 57.8 37.45 55.25 38.8 49.9 32.95 50.85 31.85 M45.2 49.65 L47.4 49.65 47.15 46.2 51.15 42.6 52.45 49.25 53.2 50.1 46.1 58.5 43.9 52.25 44.05 51.95 45.2 49.65" fill="#524d3a" fill-rule="evenodd" stroke="none"/>
      <path d="M54.2 39.9 L54.65 39.45 54.65 39.1 55.25 38.8 57.8 37.45 61.4 40.35 57.35 45.2 57.3 45.2 56.45 46.25 54.2 39.9" fill="#544f3a" fill-rule="evenodd" stroke="none"/>
      <path d="M51.15 42.6 L51.25 42.55 52.75 41.2 54.2 39.9 56.45 46.25 55.0 47.95 54.5 48.55 53.2 50.1 52.45 49.25 51.15 42.6" fill="#4d4835" fill-rule="evenodd" stroke="none"/>
      <path d="M44.05 43.75 L43.85 43.6 50.6 37.6 52.75 41.2 51.25 42.55 51.15 42.6 47.15 46.2 47.4 49.65 45.2 49.65 47.05 45.95 44.05 43.75" fill="#5e5742" fill-rule="evenodd" stroke="none"/>
      <path d="M40.75 43.5 L40.85 43.4 40.95 43.3 44.05 43.75 47.05 45.95 45.2 49.65 44.05 51.95 43.75 51.95 40.75 43.5" fill="#736b51" fill-rule="evenodd" stroke="none"/>
      <path d="M35.35 45.25 L37.7 45.8 39.9 49.8 40.35 51.55 40.35 51.6 41.2 55.0 31.6 47.35 32.0 47.6 32.35 47.55 Q33.6 47.3 34.4 46.45 L35.35 45.25" fill="#524f3e" fill-rule="evenodd" stroke="none"/>
      <path d="M40.7 51.65 L41.1 51.75 43.75 51.95 43.9 52.25 46.1 58.5 45.9 58.75 42.2 55.8 42.4 55.65 40.75 51.7 40.7 51.65" fill="#595643" fill-rule="evenodd" stroke="none"/>
      <path d="M29.75 45.85 L27.75 44.25 27.85 43.65 27.9 43.6 Q28.2 42.35 29.55 42.05 L32.7 41.6 Q36.85 42.65 35.35 45.25 L34.4 46.45 Q33.6 47.3 32.35 47.55 L32.0 47.6 31.6 47.35 29.75 45.85" fill="#5c5641" fill-rule="evenodd" stroke="none"/>
      <path d="M34.1 0.2 L33.65 2.95 33.6 2.9 30.65 0.55 30.65 0.5 33.9 0.0 34.0 0.1 34.1 0.2 M34.55 18.3 L32.25 20.3 32.2 20.9 31.0 22.2 30.85 22.4 30.85 22.35 24.65 29.75 24.9 26.8 28.05 23.05 30.8 19.8 31.0 22.2 30.8 19.8 33.25 16.9 34.3 15.65 37.6 14.9 34.55 18.3 M23.65 31.05 L21.45 34.0 20.15 35.4 20.1 35.35 15.6 39.4 15.9 37.7 15.8 37.65 23.2 28.9 23.25 29.0 23.3 29.2 23.65 31.05" fill="#dedcce" fill-rule="evenodd" stroke="none"/>
      <path d="M33.75 3.3 L34.95 6.85 32.7 6.2 34.95 6.85 35.75 9.3 34.95 12.75 33.95 13.85 28.55 16.5 23.65 18.15 24.75 7.45 30.65 0.55 33.6 2.9 33.7 3.1 33.75 3.3 M30.4 9.6 L30.7 9.3 Q30.7 8.9 30.25 8.9 L29.95 9.0 29.7 7.75 29.6 7.0 Q29.5 6.55 29.1 6.55 28.65 6.55 28.2 7.55 L27.75 8.55 27.0 8.6 26.6 8.35 Q25.95 8.35 25.4 10.6 L24.95 13.0 25.15 14.2 Q25.55 15.35 26.5 15.35 L27.25 14.8 27.7 14.25 27.85 14.35 28.3 14.45 Q29.0 14.45 29.3 13.4 L29.7 11.9 29.95 10.65 29.95 9.95 30.4 9.6 M26.45 14.45 L26.35 14.35 26.8 13.5 26.9 13.75 26.45 14.45" fill="#cfc790" fill-rule="evenodd" stroke="none"/>
      <path d="M34.8 13.45 L34.35 15.4 33.15 16.85 28.05 22.95 28.0 23.0 24.8 26.8 22.65 24.45 23.1 28.8 21.75 30.4 15.5 25.8 19.1 21.1 28.55 16.5 33.95 13.85 34.8 13.45" fill="#a6987e" fill-rule="evenodd" stroke="none"/>
      <path d="M24.75 7.45 L23.65 18.15 18.3 20.7 18.95 14.3 24.75 7.45" fill="#b2b381" fill-rule="evenodd" stroke="none"/>
      <path d="M11.75 30.35 L15.5 25.8 21.75 30.4 15.6 37.7 11.55 38.4 9.75 33.1 11.75 30.35" fill="#969172" fill-rule="evenodd" stroke="none"/>
      <path d="M34.95 12.75 L34.8 13.45 33.95 13.85 34.95 12.75 M23.65 18.15 L28.55 16.5 19.1 21.1 15.5 25.8 11.75 30.35 18.2 21.5 18.3 20.7 23.65 18.15" fill="#4a4338" fill-rule="evenodd" stroke="none"/>
      <path d="M30.4 9.6 L29.95 9.95 29.95 10.65 29.7 11.9 29.3 13.4 Q29.0 14.45 28.3 14.45 L27.85 14.35 27.7 14.25 27.25 14.8 26.5 15.35 Q25.55 15.35 25.15 14.2 L24.95 13.0 25.4 10.6 Q25.95 8.35 26.6 8.35 L27.0 8.6 27.75 8.55 28.2 7.55 Q28.65 6.55 29.1 6.55 29.5 6.55 29.6 7.0 L29.7 7.75 29.95 9.0 30.25 8.9 Q30.7 8.9 30.7 9.3 L30.4 9.6 M26.45 14.45 L26.9 13.75 26.8 13.5 26.35 14.35 26.45 14.45" fill="#ded49a" fill-rule="evenodd" stroke="none"/>
      <path d="M40.75 9.4 L46.9 14.25 50.45 13.05 51.15 13.6 51.35 13.7 66.25 25.45 63.85 27.2 63.35 27.55 58.35 23.75 58.15 28.05 57.75 29.05 57.3 28.65 50.8 23.6 53.9 23.75 Q55.1 23.7 55.4 22.55 56.3 19.1 51.95 19.6 L51.75 19.5 46.1 18.9 Q45.5 18.95 45.15 19.15 L42.9 17.4 42.95 17.4 42.55 17.1 41.95 16.65 40.7 15.65 40.05 15.15 39.25 14.5 39.55 14.4 35.85 9.25 35.75 9.3 34.95 6.85 35.0 6.9 35.3 7.85 39.35 8.55 40.75 9.4 M56.85 22.6 L58.35 23.75 56.85 22.6 M51.6 17.95 L46.9 14.25 51.6 17.95 M55.95 27.55 L56.0 27.6 56.0 27.5 55.95 27.55" fill="#acb59a" fill-rule="evenodd" stroke="none"/>
      <path d="M50.45 13.05 L46.9 14.25 40.75 9.4 39.75 8.65 44.0 9.35 39.45 8.2 39.05 8.05 38.1 7.8 37.75 7.65 34.85 6.5 35.0 6.9 34.95 6.85 33.75 3.3 33.65 2.95 34.1 0.2 50.45 13.05" fill="#cccbc9" fill-rule="evenodd" stroke="none"/>
      <path d="M50.45 13.05 L34.1 0.2 M66.25 25.45 L51.35 13.7 51.15 13.6 50.45 13.05 M43.35 25.85 L50.85 31.85 53.0 33.6 57.8 37.45 M42.55 25.25 L43.35 25.85 M40.95 26.85 L36.6 32.0 32.25 37.15 39.95 43.3 40.5 43.75 40.75 43.5 40.85 43.4 M40.95 43.3 L41.9 42.2 49.9 32.95 50.85 31.85 M40.95 26.85 L42.4 25.1 42.55 25.25 M56.45 46.25 L57.3 45.2 M57.35 45.2 L61.4 40.35 57.8 37.45 M53.65 68.05 L55.45 65.85 Q55.55 61.4 54.45 57.1 56.3 61.3 56.65 64.4 L56.45 64.65 65.65 53.7 M53.2 50.1 L54.5 48.55 M56.45 46.25 L55.0 47.95 M74.15 40.45 L71.45 31.65 68.05 26.85 66.25 25.45 M73.15 41.3 L74.15 40.45 74.85 42.7 73.4 44.4 70.2 48.25 65.65 53.7 M73.4 44.4 L73.0 41.4 73.15 41.3 M35.75 9.3 L35.85 9.25 M39.55 14.4 L39.25 14.5 M24.75 7.45 L30.65 0.55 M24.75 7.45 L18.95 14.3 M9.75 33.1 L8.65 29.85 9.8 25.0 18.95 14.3 M15.6 37.7 L11.55 38.4 11.55 38.5 12.65 41.15 14.75 44.25 15.6 39.4 15.9 37.7 15.8 37.65 M11.55 38.4 L9.75 33.1 M23.2 28.9 L23.2 28.85 23.2 28.7 M29.75 45.85 L27.75 44.25 26.9 43.55 30.1 39.7 32.25 37.15 M29.75 45.85 L31.6 47.35 32.0 47.6 M14.75 44.25 L21.3 47.75 Q26.05 52.4 29.75 55.25 M34.9 59.35 L29.75 55.25 M41.45 55.2 L41.2 55.0 31.6 47.35 M46.1 58.5 L53.2 50.1 M42.2 55.8 L45.9 58.75 46.1 58.5 M42.2 55.8 L41.45 55.2 M56.45 64.65 L55.45 65.85 M34.9 59.35 L49.05 70.6 51.6 70.45 53.65 68.05" fill="none" stroke="#000000" stroke-linecap="round" stroke-linejoin="round" stroke-opacity="0.3019608" stroke-width="0.4"/>
      <path d="M41.95 16.65 Q40.9 17.8 36.75 19.05 L42.9 17.4 M24.65 29.75 L24.5 35.25 23.65 31.05 23.3 29.2 23.25 29.0 23.2 28.9 23.1 28.8 22.65 24.45 24.8 26.8 M23.25 29.0 L23.2 28.85 M24.9 26.8 L24.65 29.75" fill="none" stroke="#000000" stroke-linecap="round" stroke-linejoin="round" stroke-opacity="0.2" stroke-width="0.2"/>
      <path d="M33.75 3.3 L34.95 6.85 35.75 9.3 34.95 12.75 34.8 13.45 34.35 15.4 M42.9 17.4 L45.15 19.15 M50.8 23.6 L57.3 28.65 57.75 29.05 M40.7 15.65 L41.95 16.65 M46.35 20.1 L50.05 23.05 50.8 23.6 M46.35 20.1 L45.15 19.15 M58.7 29.75 L57.75 29.05 M73.15 41.3 L61.75 32.2 58.7 29.75 M33.7 3.1 L33.75 3.3 M35.85 9.25 L39.55 14.4 M39.25 14.5 L40.05 15.15 40.7 15.65 M34.3 15.65 L37.6 14.9 M37.85 14.85 L39.25 14.5 M24.9 26.8 L28.05 23.05 M33.25 16.9 L34.3 15.65 M30.8 19.8 L28.05 23.05 M30.8 19.8 L33.25 16.9 M15.8 37.65 L23.2 28.9" fill="none" stroke="#ffffff" stroke-linecap="round" stroke-linejoin="round" stroke-opacity="0.4" stroke-width="0.4"/>
      <path d="M42.55 25.25 L43.35 24.3 46.35 20.1 M53.0 33.6 L59.5 32.55 M42.55 25.25 L40.95 26.85 M57.3 45.2 L57.35 45.2 M55.0 47.95 L54.5 48.55 51.25 66.05 51.5 66.3 53.65 68.05 53.85 68.2 M65.65 53.7 L60.55 48.55 M59.95 47.95 L57.3 45.2 M61.75 32.2 L62.5 32.1 M65.65 53.7 L66.2 54.3 M61.75 32.2 L60.25 32.45 M59.75 32.65 L70.2 48.25 M34.45 59.6 L34.9 59.35 39.4 56.5 41.45 55.2 M39.4 56.5 L39.0 56.15 M39.4 56.5 L51.5 66.3" fill="none" stroke="#000000" stroke-linecap="round" stroke-linejoin="round" stroke-opacity="0.101960786" stroke-width="0.05"/>
      <path d="M31.0 22.2 L30.8 19.8" fill="none" stroke="#ffffff" stroke-linecap="round" stroke-linejoin="round" stroke-opacity="0.101960786" stroke-width="0.05"/>
      <path d="M33.65 2.95 L33.75 3.3" fill="none" stroke="#ff0000" stroke-linecap="round" stroke-linejoin="round" stroke-width="0.05"/>
      <path d="M34.1 0.2 L33.65 2.95 M34.1 0.2 L34.0 0.1 33.9 0.0 30.65 0.5 30.65 0.55 33.6 2.9 33.65 2.95" fill="none" stroke="#000000" stroke-linecap="round" stroke-linejoin="round" stroke-opacity="0.2" stroke-width="0.25"/>
      <path d="M40.75 9.4 L46.9 14.25 50.45 13.05 51.4 12.75 M34.95 6.85 L35.0 6.9 38.2 7.85 38.1 7.8 M37.75 7.65 L38.1 7.8 M39.75 8.65 L40.75 9.4 39.35 8.55 M57.75 29.05 L58.15 28.05 58.35 23.75 56.85 22.6 M57.55 29.65 L57.25 30.45 M46.9 14.25 L51.6 17.95 M57.55 29.65 L57.75 29.1 M58.1 28.85 L58.15 28.05 M57.75 29.05 L57.75 29.1 M63.35 27.55 L63.85 27.9 63.85 27.2 63.35 27.55 58.35 23.75 M66.25 25.45 L66.85 25.0 M66.25 25.45 L63.85 27.2 M63.85 27.9 L71.75 33.9 M34.95 6.85 L32.7 6.2 M39.75 8.65 L39.1 8.1 38.2 7.85 39.35 8.55 M39.05 8.05 L39.1 8.1 39.45 8.2 M28.55 16.5 L33.95 13.85 M34.8 13.45 L33.95 13.85 M11.75 30.35 L15.5 25.8 19.1 21.1 28.55 16.5" fill="none" stroke="#ffffff" stroke-linecap="round" stroke-linejoin="round" stroke-opacity="0.2" stroke-width="0.25"/>
      <path d="M33.6 45.25 Q32.75 44.7 32.4 43.6 L33.5 42.5 43.75 32.1 33.6 45.25" fill="#78442d" fill-rule="evenodd" stroke="none"/>
      <path d="M47.1 28.7 L47.75 29.2 45.95 31.9 38.9 42.55 36.3 45.6 33.6 45.25 43.75 32.1 47.1 28.7" fill="#613724" fill-rule="evenodd" stroke="none"/>
      <path d="M47.75 32.2 L38.9 42.55 45.95 31.9 47.75 32.2" fill="#a15c3d" fill-rule="evenodd" stroke="none"/>
      <path d="M42.95 29.65 L45.05 27.15 47.1 28.7 43.75 32.1 33.5 42.5 43.4 30.75 43.5 30.65 43.25 30.45 42.95 29.65" fill="#663a26" fill-rule="evenodd" stroke="none"/>
      <path d="M32.4 43.6 L32.15 42.15 42.95 29.65 43.25 30.45 43.5 30.65 43.4 30.75 33.5 42.5 32.4 43.6" fill="#ab6141" fill-rule="evenodd" stroke="none"/>
      <path d="M47.75 29.2 L49.3 30.35 47.75 32.2 45.95 31.9 47.75 29.2" fill="#693c27" fill-rule="evenodd" stroke="none"/>
      <path d="M49.3 30.35 L47.75 32.2 38.9 42.55 36.3 45.6 33.6 45.25 Q32.75 44.7 32.4 43.6 L32.15 42.15 42.95 29.65 45.05 27.15" fill="none" stroke="#000000" stroke-linecap="round" stroke-linejoin="round" stroke-opacity="0.3019608" stroke-width="0.4"/>
      <path d="M55.4 22.1 L55.2 22.75 Q54.75 23.25 53.8 23.05 52.8 22.8 51.85 22.0 50.9 21.2 50.55 20.25 50.2 19.35 50.65 18.85 50.85 18.55 51.25 18.5" fill="none" stroke="#000000" stroke-linecap="round" stroke-linejoin="round" stroke-width="1.0"/>
      <path d="M56.85 22.3 L56.5 22.35 55.45 22.2 55.25 22.1 55.4 22.15 55.55 22.2 56.4 22.25 56.85 22.2 56.85 22.3 M51.4 18.1 L51.25 17.6 51.35 17.65 51.4 18.1 M51.7 16.6 L51.7 16.65 51.7 16.6" fill="#f4b940" fill-rule="evenodd" stroke="none"/>
      <path d="M51.25 17.6 L51.35 17.0 51.4 16.95 51.5 16.8 51.7 16.65 51.7 16.6 51.8 16.5 54.1 16.4 Q55.4 16.9 56.55 18.05 57.65 19.15 57.95 20.35 L57.95 21.3 57.35 22.05 56.95 22.3 56.85 22.3 56.85 22.2 56.4 22.25 55.55 22.2 55.4 22.15 55.25 22.1 55.05 22.1 54.9 21.95 54.2 21.45 54.0 21.4 53.9 21.3 52.95 20.55 52.65 20.25 52.6 20.2 Q51.55 19.05 51.45 18.5 L51.4 18.1 51.35 17.65 51.25 17.6 M52.95 17.0 Q52.55 17.35 52.85 18.15 L54.05 19.7 Q54.9 20.45 55.8 20.75 L57.1 20.7 Q57.45 20.35 57.15 19.55 56.85 18.75 56.0 18.0 55.15 17.25 54.25 16.95 L52.95 17.0" fill="#4d433a" fill-rule="evenodd" stroke="none"/>
      <path d="M51.35 17.0 L51.25 17.6 51.4 18.1 51.45 18.5 Q51.55 19.05 52.6 20.2 L52.65 20.25 52.95 20.55 53.9 21.3 54.0 21.4 54.2 21.45 54.9 21.95 55.05 22.1 55.25 22.1 55.45 22.2 56.5 22.35 56.85 22.3 56.95 22.3 56.9 22.6 56.5 23.15 54.45 23.0 54.4 22.95 Q53.05 22.4 51.9 21.25 L50.7 19.65 50.4 19.0 50.35 18.8 Q49.95 17.6 50.6 17.2 50.9 16.95 51.35 17.0 M52.95 17.0 L54.25 16.95 Q55.15 17.25 56.0 18.0 56.85 18.75 57.15 19.55 57.45 20.35 57.1 20.7 L55.8 20.75 Q54.9 20.45 54.05 19.7 L52.85 18.15 Q52.55 17.35 52.95 17.0" fill="#7e6c61" fill-rule="evenodd" stroke="none"/>
      <path d="M51.25 17.6 L51.35 17.0 Q50.9 16.95 50.6 17.2 49.95 17.6 50.35 18.8 L50.4 19.0 50.7 19.65 51.9 21.25 Q53.05 22.4 54.4 22.95 L54.45 23.0 56.5 23.15 56.9 22.6 56.95 22.3 56.85 22.3 56.5 22.35 55.45 22.2 55.25 22.1 M51.4 18.1 L51.25 17.6 M51.7 16.6 L51.7 16.65 51.5 16.8 51.4 16.95 51.35 17.0 M51.7 16.6 L51.8 16.5 54.1 16.4 Q55.4 16.9 56.55 18.05 57.65 19.15 57.95 20.35 L57.95 21.3 57.35 22.05 56.95 22.3 M52.95 17.0 L54.25 16.95 Q55.15 17.25 56.0 18.0 56.85 18.75 57.15 19.55 57.45 20.35 57.1 20.7 L55.8 20.75 Q54.9 20.45 54.05 19.7 L52.85 18.15 Q52.55 17.35 52.95 17.0" fill="none" stroke="#54483a" stroke-linecap="round" stroke-linejoin="round" stroke-opacity="0.7019608" stroke-width="0.05"/>
      <path d="M51.0 31.95 L61.3 40.1 46.2 58.0 40.95 43.2 50.95 31.95 51.0 31.95" fill="url(#gradient0)" fill-rule="evenodd" stroke="none"/>
      <path d="M21.25 8.6 L27.45 8.85 53.7 7.9 57.3 7.55 57.65 9.6 Q58.9 18.9 53.65 28.35 48.55 37.95 39.85 42.3 31.25 46.65 23.95 43.2 16.7 39.75 15.2 30.55 14.0 21.35 19.25 11.9 L21.25 8.6" fill="url(#gradient1)" fill-rule="evenodd" stroke="none"/>
    </g>
    <linearGradient gradientTransform="matrix(0.0043, 0.0043, -0.0112, 0.0112, 48.5, 42.2)" gradientUnits="userSpaceOnUse" id="gradient0" spreadMethod="pad" x1="-819.2" x2="819.2">
      <stop offset="0.0" stop-color="#ffffff"/>
      <stop offset="0.01568627450980392" stop-color="#fafafa" stop-opacity="0.4"/>
      <stop offset="0.20784313725490197" stop-color="#b2afa1" stop-opacity="0.42745098"/>
      <stop offset="0.2235294117647059" stop-color="#aca899" stop-opacity="0.43137255"/>
      <stop offset="0.43137254901960786" stop-color="#000000" stop-opacity="0.22352941"/>
    </linearGradient>
    <radialGradient cx="0" cy="0" gradientTransform="matrix(0.0199, -0.0364, 0.0274, 0.0131, 36.55, 20.15)" gradientUnits="userSpaceOnUse" id="gradient1" r="819.2" spreadMethod="pad">
      <stop offset="0.0" stop-color="#ffffde" stop-opacity="0.52156866"/>
      <stop offset="0.4117647058823529" stop-color="#ffffcc" stop-opacity="0.0"/>
    </radialGradient>
    <g id="shape2" transform="matrix(1.0, 0.0, 0.0, 1.0, -18.45, -21.3)">
      <path d="M18.45 23.9 L20.55 21.3 24.0 24.15 26.15 30.0 18.45 23.9" fill="url(#gradient2)" fill-rule="evenodd" stroke="none"/>
    </g>
    <linearGradient gradientTransform="matrix(-0.0016, 0.0027, -0.0046, -0.0026, 22.1, 22.55)" gradientUnits="userSpaceOnUse" id="gradient2" spreadMethod="pad" x1="-819.2" x2="819.2">
      <stop offset="0.0" stop-color="#000000" stop-opacity="0.6627451"/>
      <stop offset="1.0" stop-color="#000000" stop-opacity="0.36078432"/>
    </linearGradient>
  </defs>
</svg>
