<?xml version="1.0" encoding="UTF-8" standalone="no"?>
<svg xmlns:xlink="http://www.w3.org/1999/xlink" height="440.0px" width="440.0px" xmlns="http://www.w3.org/2000/svg">
  <g transform="matrix(10.0, 0.0, 0.0, 10.0, 0.0, 0.0)">
    <use height="44.0" transform="matrix(1.0, 0.0, 0.0, 1.0, 0.0, 0.0)" width="44.0" xlink:href="#shape0"/>
  </g>
  <defs>
    <g id="shape0" transform="matrix(1.0, 0.0, 0.0, 1.0, 0.0, 0.0)">
      <path d="M44.0 44.0 L0.0 44.0 0.0 0.0 44.0 0.0 44.0 44.0" fill="#43adca" fill-opacity="0.0" fill-rule="evenodd" stroke="none"/>
      <path d="M26.65 10.25 L25.0 10.25 26.05 8.75 26.65 10.25" fill="#705721" fill-rule="evenodd" stroke="none"/>
      <path d="M26.65 10.25 L26.05 8.75 27.75 6.3 28.35 5.95 Q29.2 5.5 30.2 5.7 31.6 5.9 31.65 7.45 L30.8 9.3 Q30.0 9.65 29.25 10.25 30.0 9.65 30.8 9.3 L30.3 10.25 29.25 10.25 27.45 10.25 Q28.65 8.35 28.35 5.95 28.65 8.35 27.45 10.25 L26.65 10.25" fill="url(#gradient0)" fill-rule="evenodd" stroke="none"/>
      <path d="M26.05 8.75 L25.0 10.25 M30.8 9.3 L31.65 7.45 Q31.6 5.9 30.2 5.7 29.2 5.5 28.35 5.95 L27.75 6.3 26.05 8.75 M30.8 9.3 L30.3 10.25" fill="none" stroke="#000000" stroke-linecap="round" stroke-linejoin="round" stroke-opacity="0.3019608" stroke-width="0.5"/>
      <path d="M29.25 10.25 Q30.0 9.65 30.8 9.3 M28.35 5.95 Q28.65 8.35 27.45 10.25" fill="none" stroke="#000000" stroke-linecap="round" stroke-linejoin="round" stroke-opacity="0.15294118" stroke-width="0.30000000000000004"/>
      <path d="M36.3 10.05 Q36.5 9.9 36.75 10.05 38.05 10.45 38.15 13.6 L38.1 15.4 36.8 15.15 Q35.5 15.15 33.85 16.35 32.05 17.7 30.8 19.95 L31.05 18.9 31.75 16.75 Q32.6 14.05 33.85 12.25 L34.8 11.0 Q35.55 10.05 36.3 10.05 M30.0 25.0 L30.7 24.8 Q32.05 24.8 33.15 26.25 L32.75 26.85 30.2 28.15 30.0 26.15 30.0 25.0" fill="#8c6e2a" fill-rule="evenodd" stroke="none"/>
      <path d="M19.5 5.7 L22.55 6.9 22.6 7.55 20.05 6.55 19.5 5.7 M32.55 9.35 L36.3 10.05 Q35.55 10.05 34.8 11.0 L32.15 10.45 32.55 9.35" fill="#a48c40" fill-rule="evenodd" stroke="none"/>
      <path d="M31.75 16.75 L31.05 18.9 30.8 19.95 30.7 20.15 Q27.75 20.5 25.4 20.15 23.2 19.15 21.0 18.55 20.25 18.15 18.4 15.6 16.5 13.2 16.25 12.45 L31.75 16.75" fill="#6a531a" fill-rule="evenodd" stroke="none"/>
      <path d="M11.9 21.35 L11.9 21.25 11.95 21.3 11.9 21.35 M21.0 18.55 Q23.2 19.15 25.4 20.15 23.35 19.85 21.75 18.95 L21.0 18.55" fill="#513300" fill-rule="evenodd" stroke="none"/>
      <path d="M15.7 7.65 L15.75 7.45 Q17.45 4.8 18.65 5.3 19.05 5.3 19.25 5.6 L19.5 5.7 20.05 6.55 22.6 7.55 Q23.3 9.5 25.35 10.6 27.15 11.6 29.4 11.6 30.85 11.6 31.5 11.1 L32.15 10.45 34.8 11.0 33.85 12.25 Q32.6 14.05 31.75 16.75 L16.25 12.45 16.25 12.4 Q15.5 10.5 15.5 9.35 L15.7 7.65" fill="#786229" fill-rule="evenodd" stroke="none"/>
      <path d="M34.05 27.95 Q32.45 30.15 31.2 29.75 L31.05 29.7 Q30.5 29.3 30.2 28.2 L30.2 28.15 32.75 26.85 33.15 26.25 34.05 27.95" fill="#a48c40" fill-rule="evenodd" stroke="none"/>
      <path d="M12.3 17.15 Q13.0 13.6 13.6 12.2 L16.25 12.45 Q16.5 13.2 18.4 15.6 20.25 18.15 21.0 18.55 17.6 17.5 14.3 17.2 L12.3 17.15 M25.4 20.15 Q27.75 20.5 30.7 20.15 L30.25 22.6 Q27.85 21.15 25.4 20.15" fill="#594416" fill-rule="evenodd" stroke="none"/>
      <path d="M13.6 12.2 Q14.45 9.5 15.7 7.65 L15.5 9.35 Q15.5 10.5 16.25 12.4 L16.25 12.45 13.6 12.2 M22.6 7.55 L27.85 9.55 32.15 10.45 31.5 11.1 Q30.85 11.6 29.4 11.6 27.15 11.6 25.35 10.6 23.3 9.5 22.6 7.55" fill="#695523" fill-rule="evenodd" stroke="none"/>
      <path d="M22.55 6.9 L26.35 8.1 29.6 8.85 32.55 9.35 32.15 10.45 27.85 9.55 22.6 7.55 22.55 6.9" fill="#967e3a" fill-rule="evenodd" stroke="none"/>
      <path d="M38.1 15.4 L38.05 15.95 Q35.95 23.85 33.15 26.25 32.05 24.8 30.7 24.8 L30.0 25.0 Q30.05 23.8 30.25 22.6 L30.7 20.15 30.8 19.95 Q32.05 17.7 33.85 16.35 35.5 15.15 36.8 15.15 L38.1 15.4" fill="#7d6225" fill-rule="evenodd" stroke="none"/>
      <path d="M38.05 15.95 Q37.85 18.15 37.0 20.85 35.8 24.85 34.25 27.55 L34.05 27.95 33.15 26.25 Q35.95 23.85 38.05 15.95" fill="#917a38" fill-rule="evenodd" stroke="none"/>
      <path d="M26.9 28.1 Q23.35 26.85 19.95 26.15 19.45 25.15 16.55 23.5 14.3 22.25 11.95 21.3 L11.9 21.25 12.15 17.55 12.3 17.15 14.3 17.2 Q17.6 17.5 21.0 18.55 L21.75 18.95 Q23.35 19.85 25.4 20.15 27.85 21.15 30.25 22.6 30.05 23.8 30.0 25.0 29.4 25.2 28.7 25.95 L26.9 28.1" fill="#4d2f04" fill-rule="evenodd" stroke="none"/>
      <path d="M31.05 29.7 L29.1 28.9 26.9 28.1 28.7 25.95 Q29.4 25.2 30.0 25.0 L30.0 26.15 30.2 28.15 30.2 28.2 Q30.5 29.3 31.05 29.7 M19.95 26.15 Q16.5 25.25 13.2 24.95 L13.1 24.95 Q12.5 24.6 12.1 23.45 L11.9 21.35 11.95 21.3 Q14.3 22.25 16.55 23.5 19.45 25.15 19.95 26.15" fill="#5e3e0b" fill-rule="evenodd" stroke="none"/>
      <path d="M16.25 12.45 L16.25 12.4 Q15.5 10.5 15.5 9.35 L15.7 7.65 M22.55 6.9 L22.6 7.55 M32.15 10.45 L32.55 9.35 M32.15 10.45 L31.5 11.1 Q30.85 11.6 29.4 11.6 27.15 11.6 25.35 10.6 23.3 9.5 22.6 7.55 M30.8 19.95 Q32.05 17.7 33.85 16.35 35.5 15.15 36.8 15.15 L38.1 15.4 M16.25 12.45 Q16.5 13.2 18.4 15.6 20.25 18.15 21.0 18.55 M25.4 20.15 Q27.75 20.5 30.7 20.15 M30.0 25.0 L30.7 24.8 Q32.05 24.8 33.15 26.25 L34.05 27.95 M30.0 25.0 Q29.4 25.2 28.7 25.95 L26.9 28.1 M25.4 20.15 Q23.35 19.85 21.75 18.95 L21.0 18.55 M11.95 21.3 Q14.3 22.25 16.55 23.5 19.45 25.15 19.95 26.15 M11.9 21.25 L11.95 21.3" fill="none" stroke="#000000" stroke-linecap="round" stroke-linejoin="round" stroke-opacity="0.15294118" stroke-width="0.30000000000000004"/>
      <path d="M13.6 12.2 Q14.45 9.5 15.7 7.65 L15.75 7.45 Q17.45 4.8 18.65 5.3 19.05 5.3 19.25 5.6 L19.5 5.7 22.55 6.9 26.35 8.1 29.6 8.85 32.55 9.35 36.3 10.05 Q36.5 9.9 36.75 10.05 38.05 10.45 38.15 13.6 L38.1 15.4 38.05 15.95 Q37.85 18.15 37.0 20.85 35.8 24.85 34.25 27.55 L34.05 27.95 Q32.45 30.15 31.2 29.75 L31.05 29.7 29.1 28.9 26.9 28.1 Q23.35 26.85 19.95 26.15 16.5 25.25 13.2 24.95 L13.1 24.95 Q12.5 24.6 12.1 23.45 L11.9 21.35 11.9 21.25 12.15 17.55 M12.3 17.15 Q13.0 13.6 13.6 12.2 M34.8 11.0 Q35.55 10.05 36.3 10.05 M31.75 16.75 Q32.6 14.05 33.85 12.25 L34.8 11.0 M30.8 19.95 L31.05 18.9 31.75 16.75 M30.7 20.15 L30.8 19.95 M30.2 28.15 L30.0 26.15 30.0 25.0 Q30.05 23.8 30.25 22.6 L30.7 20.15 M30.2 28.2 Q30.5 29.3 31.05 29.7" fill="none" stroke="#000000" stroke-linecap="round" stroke-linejoin="round" stroke-opacity="0.3019608" stroke-width="0.30000000000000004"/>
      <path d="M15.7 7.65 L15.75 7.45 Q17.45 4.8 18.65 5.3 L20.05 6.55 34.8 11.0 33.85 12.25 Q32.6 14.05 31.75 16.75 L31.05 18.9 30.25 22.6 Q30.05 23.8 30.0 25.0 L30.0 26.15 30.2 28.15 30.2 28.2 Q30.5 29.3 31.05 29.7 L29.1 28.9 26.9 28.1 Q23.35 26.85 19.95 26.15 16.5 25.25 13.2 24.95 L13.1 24.95 Q12.5 24.6 12.1 23.45 L11.9 21.35 11.9 21.25 12.15 17.55 12.3 17.15 Q13.0 13.6 13.6 12.2 14.45 9.5 15.7 7.65" fill="url(#gradient1)" fill-rule="evenodd" stroke="none"/>
      <path d="M14.45 41.35 Q13.4 43.25 9.65 41.95 L9.45 41.8 9.35 41.75 13.9 38.25 Q15.05 39.4 14.45 41.35 M11.2 37.0 L11.9 37.05 12.7 37.35 9.35 41.75 9.2 41.75 Q8.95 40.6 9.25 39.4 9.8 37.75 11.15 37.05 L11.2 37.0" fill="#d9b560" fill-rule="evenodd" stroke="none"/>
      <path d="M15.85 38.6 L14.45 41.35 Q15.05 39.4 13.9 38.25 L15.45 34.05 12.7 37.35 11.9 37.05 11.2 37.0 12.35 34.85 Q12.95 33.3 12.4 32.15 L13.95 30.35 14.55 30.3 Q16.5 29.95 17.8 28.35 L18.3 29.35 Q16.9 31.05 16.7 31.85 15.85 35.6 15.85 38.6" fill="#8c6e2a" fill-rule="evenodd" stroke="none"/>
      <path d="M9.35 41.75 L12.7 37.35 15.45 34.05 13.9 38.25 9.35 41.75" fill="#644f09" fill-rule="evenodd" stroke="none"/>
      <path d="M18.8 32.1 L15.85 38.6 Q15.85 35.6 16.7 31.85 16.9 31.05 18.3 29.35 L18.8 32.1 M8.05 38.15 L12.4 32.15 Q12.95 33.3 12.35 34.85 L11.2 37.0 11.15 37.05 Q9.25 36.85 8.05 38.15 M13.95 30.35 L16.9 26.15 17.8 28.35 Q16.5 29.95 14.55 30.3 L13.95 30.35" fill="#705721" fill-rule="evenodd" stroke="none"/>
      <path d="M9.2 41.75 Q7.2 40.6 8.05 38.15 9.25 36.85 11.15 37.05 9.8 37.75 9.25 39.4 8.95 40.6 9.2 41.75" fill="#c9a658" fill-rule="evenodd" stroke="none"/>
      <path d="M16.9 26.15 L18.65 23.65 Q18.9 23.45 19.25 23.3 L21.05 23.05 Q22.45 23.25 22.55 24.8 L21.65 26.65 18.8 32.1 18.3 29.35 18.6 29.1 Q20.15 27.25 21.65 26.65 20.15 27.25 18.6 29.1 L18.3 29.35 17.8 28.35 16.9 26.15 M19.25 23.3 Q19.5 25.95 18.1 27.9 L17.8 28.35 18.1 27.9 Q19.5 25.95 19.25 23.3" fill="url(#gradient2)" fill-rule="evenodd" stroke="none"/>
      <path d="M16.9 26.15 L18.65 23.65 Q18.9 23.45 19.25 23.3 L21.05 23.05 Q22.45 23.25 22.55 24.8 L21.65 26.65 18.8 32.1 15.85 38.6 14.45 41.35 Q13.4 43.25 9.65 41.95 L9.45 41.8 9.35 41.75 M9.2 41.75 Q7.2 40.6 8.05 38.15 L12.4 32.15 13.95 30.35 16.9 26.15 M12.7 37.35 L11.9 37.05 11.2 37.0 11.15 37.05 M9.2 41.75 L9.35 41.75 M12.7 37.35 L15.45 34.05 M13.9 38.25 Q15.05 39.4 14.45 41.35 M8.05 38.15 Q9.25 36.85 11.15 37.05" fill="none" stroke="#000000" stroke-linecap="round" stroke-linejoin="round" stroke-opacity="0.3019608" stroke-width="0.5"/>
      <path d="M9.45 41.8 L9.2 41.75 M17.8 28.35 L18.1 27.9 Q19.5 25.95 19.25 23.3 M15.85 38.6 Q15.85 35.6 16.7 31.85 16.9 31.05 18.3 29.35 M17.8 28.35 Q16.5 29.95 14.55 30.3 L13.95 30.35 M21.65 26.65 Q20.15 27.25 18.6 29.1 L18.3 29.35 M11.15 37.05 Q9.8 37.75 9.25 39.4 8.95 40.6 9.2 41.75 M11.2 37.0 L12.35 34.85 Q12.95 33.3 12.4 32.15" fill="none" stroke="#000000" stroke-linecap="round" stroke-linejoin="round" stroke-opacity="0.15294118" stroke-width="0.30000000000000004"/>
      <path d="M15.05 32.7 L11.95 32.2 15.05 32.7 M17.4 32.65 L15.95 35.3 Q13.85 33.6 10.8 33.7 L11.3 32.3 11.95 32.2 11.8 31.55 Q12.2 30.95 12.85 30.5 14.6 30.3 17.4 32.65" fill="#8f3d05" fill-rule="evenodd" stroke="none"/>
      <path d="M15.95 35.3 L17.4 32.65 Q18.4 33.55 18.05 34.8 L16.9 37.9 Q17.35 36.55 15.95 35.3" fill="#cf7a12" fill-rule="evenodd" stroke="none"/>
      <path d="M11.95 32.2 L15.05 32.7 M17.4 32.65 Q14.6 30.3 12.85 30.5 12.2 30.95 11.8 31.55 L11.95 32.2 11.3 32.3 10.8 33.7 Q13.85 33.6 15.95 35.3 17.35 36.55 16.9 37.9 L18.05 34.8 Q18.4 33.55 17.4 32.65" fill="none" stroke="#000000" stroke-linecap="round" stroke-linejoin="round" stroke-opacity="0.3019608" stroke-width="0.30000000000000004"/>
      <path d="M31.65 7.45 Q31.6 5.9 30.2 5.7 29.2 5.5 28.35 5.95 L27.75 6.3 26.5 8.15 26.35 8.1 22.55 6.9 19.5 5.7 19.25 5.6 Q19.05 5.3 18.65 5.3 17.45 4.8 15.75 7.45 L15.7 7.65 Q14.45 9.5 13.6 12.2 13.0 13.6 12.3 17.15 L12.15 17.55 11.9 21.25 11.9 21.35 12.1 23.45 Q12.5 24.6 13.1 24.95 L13.2 24.95 17.35 25.55 13.95 30.35 13.8 30.55 12.85 30.5 Q12.2 30.95 11.8 31.55 L11.95 32.2 11.3 32.3 10.8 33.7 11.3 33.7 8.05 38.15 Q7.2 40.6 9.2 41.75 L9.35 41.75 9.45 41.8 9.65 41.95 Q13.4 43.25 14.45 41.35 L16.85 36.45 Q17.15 37.15 16.9 37.9 L18.05 34.8 18.1 33.7 21.7 26.55 Q24.25 27.15 26.9 28.1 L29.1 28.9 31.05 29.7 31.2 29.75 Q32.45 30.15 34.05 27.95 L34.25 27.55 Q35.8 24.85 37.0 20.85 37.85 18.15 38.05 15.95 L38.1 15.4 38.15 13.6 Q38.05 10.45 36.75 10.05 36.5 9.9 36.3 10.05 L32.55 9.35 30.9 9.1 31.65 7.45 Z" fill="none" stroke="#000000" stroke-linecap="round" stroke-linejoin="round" stroke-opacity="0.4509804" stroke-width="0.5"/>
      <path d="M18.9 8.2 L7.45 6.3 18.35 9.45 16.35 14.45 19.0 9.9 22.55 9.8 19.9 8.5 23.2 0.75 18.9 8.2" fill="#fcf3d8" fill-opacity="0.7921569" fill-rule="evenodd" stroke="none"/>
      <path d="M16.05 9.3 Q15.5 10.45 13.35 11.2 L16.45 11.3 Q16.8 12.0 17.5 12.4 L19.8 12.45 Q21.1 12.0 21.8 10.75 L24.05 11.45 22.15 9.8 Q22.45 9.05 22.35 8.05 L21.7 6.65 22.1 5.35 20.95 6.2 20.9 6.1 18.6 6.05 Q17.35 6.55 16.6 7.8 L16.05 9.3 M20.9 8.45 Q21.0 9.2 20.65 9.75 L19.6 10.65 18.45 10.6 Q17.9 10.25 17.8 9.65 17.65 9.0 18.05 8.3 18.4 7.6 19.05 7.4 L20.2 7.5 Q20.8 7.9 20.9 8.45" fill="#fcf3d8" fill-opacity="0.3019608" fill-rule="evenodd" stroke="none"/>
      <path d="M20.9 8.45 Q20.8 7.9 20.2 7.5 L19.05 7.4 Q18.4 7.6 18.05 8.3 17.65 9.0 17.8 9.65 17.9 10.25 18.45 10.6 L19.6 10.65 20.65 9.75 Q21.0 9.2 20.9 8.45" fill="#fcf3d8" fill-opacity="0.84313726" fill-rule="evenodd" stroke="none"/>
    </g>
    <linearGradient gradientTransform="matrix(0.0034, -0.0051, 0.003, 0.002, 31.4, 5.95)" gradientUnits="userSpaceOnUse" id="gradient0" spreadMethod="pad" x1="-819.2" x2="819.2">
      <stop offset="0.0" stop-color="#644f09"/>
      <stop offset="1.0" stop-color="#302504"/>
    </linearGradient>
    <linearGradient gradientTransform="matrix(-0.0011, 0.0085, -0.0148, -0.002, 21.6, 23.6)" gradientUnits="userSpaceOnUse" id="gradient1" spreadMethod="pad" x1="-819.2" x2="819.2">
      <stop offset="0.0" stop-color="#000000" stop-opacity="0.0"/>
      <stop offset="1.0" stop-color="#000000" stop-opacity="0.43137255"/>
    </linearGradient>
    <linearGradient gradientTransform="matrix(0.0034, -0.0051, 0.003, 0.002, 20.85, 25.25)" gradientUnits="userSpaceOnUse" id="gradient2" spreadMethod="pad" x1="-819.2" x2="819.2">
      <stop offset="0.0" stop-color="#644f09"/>
      <stop offset="1.0" stop-color="#302504"/>
    </linearGradient>
  </defs>
</svg>
