<?xml version="1.0" encoding="UTF-8" standalone="no"?>
<svg xmlns:xlink="http://www.w3.org/1999/xlink" height="440.0px" width="440.0px" xmlns="http://www.w3.org/2000/svg">
  <g transform="matrix(10.0, 0.0, 0.0, 10.0, 0.0, 0.0)">
    <use height="44.0" transform="matrix(1.0, 0.0, 0.0, 1.0, 0.0, 0.0)" width="44.0" xlink:href="#shape0"/>
    <use height="62.75" transform="matrix(-0.2054, -0.1947, 0.2014, -0.2126, 26.317, 18.9316)" width="12.15" xlink:href="#shape1"/>
    <use height="45.7" transform="matrix(-0.1218, -0.117, 0.0858, -0.0894, 22.4772, 28.1482)" width="34.35" xlink:href="#shape2"/>
    <use height="45.7" transform="matrix(0.1218, 0.117, 0.0858, -0.0894, 15.2996, 21.236)" width="34.35" xlink:href="#shape2"/>
    <use height="45.7" transform="matrix(-0.1218, -0.117, 0.0858, -0.0894, 34.6772, 14.9482)" width="34.35" xlink:href="#shape2"/>
    <use height="45.7" transform="matrix(0.1218, 0.117, 0.0858, -0.0894, 27.5996, 8.186)" width="34.35" xlink:href="#shape2"/>
    <use height="28.3" transform="matrix(1.0, 0.0, 0.0, 1.0, 4.65, 11.85)" width="26.05" xlink:href="#shape3"/>
  </g>
  <defs>
    <g id="shape0" transform="matrix(1.0, 0.0, 0.0, 1.0, 0.0, 0.0)">
      <path d="M44.0 44.0 L0.0 44.0 0.0 0.0 44.0 0.0 44.0 44.0" fill="#33cc33" fill-opacity="0.0" fill-rule="evenodd" stroke="none"/>
      <path d="M27.8 10.55 L27.55 10.5 28.95 10.8 29.3 10.65 32.5 9.35 32.8 9.7 33.15 9.95 31.95 13.25 31.85 13.55 32.15 14.85 32.1 14.7 30.8 11.8 32.8 9.7 30.8 11.8 27.8 10.55 M25.1 16.6 L25.05 16.6 25.1 16.6 M24.2 18.7 L25.75 17.25 26.3 17.8 26.45 18.5 26.55 19.0 26.8 20.3 24.7 19.25 24.2 18.7 M24.9 20.05 L25.5 20.15 25.4 21.05 24.9 20.05 M21.9 17.65 L22.75 17.5 22.95 18.1 21.9 17.65 M34.1 10.9 L34.6 11.3 34.7 12.8 34.1 10.9 M31.55 8.45 L29.85 8.0 29.55 7.95 31.1 7.95 31.55 8.45" fill="#412f18" fill-rule="evenodd" stroke="none"/>
      <path d="M23.8 16.4 L24.25 16.5 25.05 16.6 23.4 16.9 23.55 18.05 23.6 18.2 24.2 18.7 24.2 18.75 23.3 19.05 23.0 18.7 22.95 18.1 22.75 17.5 22.55 16.25 23.8 16.4 M24.2 18.7 L24.2 18.75 24.2 18.7" fill="#b98046" fill-rule="evenodd" stroke="none"/>
      <path d="M17.9 25.3 L18.25 25.6 18.0 25.85 17.75 25.5 17.75 25.45 17.35 25.2 Q17.45 25.05 17.6 25.0 L17.9 25.3" fill="#523a1e" fill-rule="evenodd" stroke="none"/>
      <path d="M31.85 13.55 L31.95 13.25 33.15 9.95 34.1 10.9 34.7 12.8 31.85 13.55 M34.3 12.65 L31.95 13.25 34.3 12.65" fill="url(#gradient0)" fill-rule="evenodd" stroke="none"/>
      <path d="M32.5 9.35 L29.3 10.65 28.95 10.8 29.55 7.95 29.85 8.0 31.55 8.45 32.5 9.35 M29.85 8.0 L29.3 10.65 29.85 8.0" fill="url(#gradient1)" fill-rule="evenodd" stroke="none"/>
      <path d="M27.2 15.55 L27.2 15.5 30.8 11.8 32.1 14.7 30.65 16.05 27.2 15.55" fill="url(#gradient2)" fill-rule="evenodd" stroke="none"/>
      <path d="M27.2 15.5 L26.55 12.05 27.8 10.55 30.8 11.8 27.2 15.5" fill="url(#gradient3)" fill-rule="evenodd" stroke="none"/>
      <path d="M26.6 14.1 L26.9 15.85 25.65 17.15 25.1 16.6 25.05 16.6 24.25 16.5 26.6 14.1" fill="url(#gradient4)" fill-rule="evenodd" stroke="none"/>
      <path d="M23.3 19.05 L23.65 19.35 17.9 25.3 17.6 25.0 17.25 24.6 17.0 22.55 21.8 19.6 21.9 17.65 22.95 18.1 23.0 18.7 23.3 19.05 M21.85 20.1 L17.5 23.05 17.65 24.45 17.5 23.05 21.85 20.1" fill="url(#gradient5)" fill-rule="evenodd" stroke="none"/>
      <path d="M23.65 19.35 L24.3 19.95 24.9 20.05 25.4 21.05 23.45 21.2 20.65 26.1 19.6 26.0 18.6 25.95 18.25 25.6 17.9 25.3 23.65 19.35 M18.6 25.5 L20.25 25.6 22.8 21.1 20.25 25.6 18.6 25.5" fill="url(#gradient6)" fill-rule="evenodd" stroke="none"/>
      <path d="M18.1 26.15 L17.55 26.0 17.15 25.55 16.85 25.15 17.05 25.1 17.35 25.2 17.75 25.45 17.75 25.5 18.0 25.85 18.1 26.15" fill="url(#gradient7)" fill-rule="evenodd" stroke="none"/>
      <path d="M24.9 20.05 L24.3 19.95 23.65 19.35 23.3 19.05 24.2 18.75 24.2 18.7 24.7 19.25 26.8 20.3 25.5 20.15 24.9 20.05" fill="#a6723f" fill-rule="evenodd" stroke="none"/>
      <path d="M25.05 16.6 L25.1 16.6 25.65 17.15 25.75 17.25 24.2 18.7 23.6 18.2 23.55 18.05 23.4 16.9 25.05 16.6" fill="#5e4322" fill-rule="evenodd" stroke="none"/>
      <path d="M26.6 14.1 L26.5 13.6 26.25 11.9 27.55 10.5 27.8 10.55 26.55 12.05 27.2 15.5 27.2 15.55 26.9 15.85 26.6 14.1" fill="url(#gradient8)" fill-rule="evenodd" stroke="none"/>
      <path d="M26.5 13.6 L26.6 14.1 24.25 16.5 23.8 16.4 26.5 13.6" fill="url(#gradient9)" fill-rule="evenodd" stroke="none"/>
      <path d="M25.75 17.25 L25.65 17.15 26.9 15.85 29.35 16.1 26.55 19.0 26.45 18.5 26.3 17.8 25.75 17.25 26.4 16.6 25.75 17.25 M28.55 16.3 L26.45 18.5 28.55 16.3" fill="url(#gradient10)" fill-rule="evenodd" stroke="none"/>
      <path d="M26.9 15.85 L27.2 15.55 30.65 16.05 32.1 14.7 32.15 14.85 30.85 16.25 29.35 16.1 26.9 15.85" fill="url(#gradient11)" fill-rule="evenodd" stroke="none"/>
      <path d="M26.5 13.6 L26.6 14.1 26.9 15.85 27.2 15.55 27.2 15.5 M27.8 10.55 L27.55 10.5 26.25 11.9 26.5 13.6 23.8 16.4 24.25 16.5 M22.75 17.5 L22.55 16.25 23.8 16.4 M23.55 18.05 L23.6 18.2 24.2 18.7 M25.75 17.25 L25.65 17.15 25.1 16.6 25.05 16.6 24.25 16.5 M23.65 19.35 L24.3 19.95 24.9 20.05 25.5 20.15 26.8 20.3 24.7 19.25 24.2 18.7 M23.3 19.05 L23.65 19.35 17.9 25.3 18.25 25.6 18.6 25.95 19.6 26.0 M23.45 21.2 L25.4 21.05 24.9 20.05 M26.45 18.5 L26.55 19.0 29.35 16.1 26.9 15.85 M25.75 17.25 L26.3 17.8 26.45 18.5 M21.9 17.65 L22.75 17.5 22.95 18.1 23.0 18.7 23.3 19.05 M22.95 18.1 L21.9 17.65 21.8 19.6 17.0 22.55 17.25 24.6 17.6 25.0 17.9 25.3 M25.4 21.05 L25.5 20.15 M18.1 26.15 L18.0 25.85 17.75 25.5 17.75 25.45 17.35 25.2 17.05 25.1 16.85 25.15 M17.6 25.0 Q17.45 25.05 17.35 25.2 M18.0 25.85 L18.25 25.6 M32.5 9.35 L29.3 10.65 28.95 10.8 27.55 10.5 M32.8 9.7 L30.8 11.8 32.1 14.7 32.15 14.85 31.85 13.55 31.95 13.25 33.15 9.95 M34.6 11.3 L34.7 12.8 31.85 13.55 M29.55 7.95 L29.85 8.0 31.55 8.45 M31.1 7.95 L29.55 7.95 28.95 10.8 M30.8 11.8 L27.8 10.55 M29.35 16.1 L30.85 16.25 32.15 14.85 M34.1 10.9 L34.7 12.8 M30.8 11.8 L27.2 15.5 M26.8 20.3 L26.55 19.0" fill="none" stroke="#000000" stroke-linecap="round" stroke-linejoin="round" stroke-opacity="0.2509804" stroke-width="0.05"/>
      <path d="M27.2 15.5 L26.55 12.05 27.8 10.55 M24.25 16.5 L26.6 14.1 M26.45 18.5 L28.55 16.3 M17.65 24.45 L17.5 23.05 21.85 20.1 M22.8 21.1 L20.25 25.6 18.6 25.5 M29.3 10.65 L29.85 8.0 M27.2 15.55 L30.65 16.05 32.1 14.7 M31.95 13.25 L34.3 12.65" fill="none" stroke="#e1cbb5" stroke-linecap="round" stroke-linejoin="round" stroke-width="0.05"/>
      <path d="M25.1 16.6 L25.05 16.6 23.4 16.9 23.55 18.05 M25.75 17.25 L26.4 16.6 M24.2 18.75 L24.2 18.7" fill="none" stroke="#000000" stroke-linecap="round" stroke-linejoin="round" stroke-opacity="0.2509804" stroke-width="0.25"/>
      <path d="M22.7 19.15 L24.1 20.45 21.85 22.75 20.4 21.35 22.7 19.15" fill="#52351b" fill-rule="evenodd" stroke="none"/>
      <path d="M22.7 19.15 L20.4 21.35 19.65 20.65 21.9 18.35 22.7 19.15" fill="#754a26" fill-rule="evenodd" stroke="none"/>
      <path d="M20.4 21.35 L21.85 22.75 24.1 20.45 22.7 19.15 M20.4 21.35 L19.65 20.65 21.9 18.35 22.7 19.15" fill="none" stroke="#000000" stroke-linecap="round" stroke-linejoin="round" stroke-opacity="0.2509804" stroke-width="0.05"/>
      <path d="M19.05 22.25 L21.2 24.3 19.55 26.0 17.4 23.95 19.05 22.25" fill="#52351b" fill-rule="evenodd" stroke="none"/>
      <path d="M19.05 22.25 L21.2 24.3 19.55 26.0 17.4 23.95 19.05 22.25 Z" fill="none" stroke="#000000" stroke-linecap="round" stroke-linejoin="round" stroke-opacity="0.2509804" stroke-width="0.05"/>
    </g>
    <radialGradient cx="0" cy="0" gradientTransform="matrix(-0.0048, -0.0046, 0.0034, -0.0035, 33.8, 9.95)" gradientUnits="userSpaceOnUse" id="gradient0" r="819.2" spreadMethod="pad">
      <stop offset="0.0" stop-color="#412f18"/>
      <stop offset="0.596078431372549" stop-color="#b98046"/>
    </radialGradient>
    <radialGradient cx="0" cy="0" gradientTransform="matrix(-0.0047, -0.0045, 0.0033, -0.0034, 32.5, 9.0)" gradientUnits="userSpaceOnUse" id="gradient1" r="819.2" spreadMethod="pad">
      <stop offset="0.0" stop-color="#412f18"/>
      <stop offset="0.596078431372549" stop-color="#b98046"/>
    </radialGradient>
    <radialGradient cx="0" cy="0" gradientTransform="matrix(-0.0059, -0.0057, 0.0042, -0.0043, 30.65, 12.6)" gradientUnits="userSpaceOnUse" id="gradient2" r="819.2" spreadMethod="pad">
      <stop offset="0.0" stop-color="#412f18"/>
      <stop offset="0.596078431372549" stop-color="#b98046"/>
    </radialGradient>
    <radialGradient cx="0" cy="0" gradientTransform="matrix(-0.0059, -0.0057, 0.0042, -0.0043, 29.95, 11.95)" gradientUnits="userSpaceOnUse" id="gradient3" r="819.2" spreadMethod="pad">
      <stop offset="0.0" stop-color="#412f18"/>
      <stop offset="0.596078431372549" stop-color="#b98046"/>
    </radialGradient>
    <radialGradient cx="0" cy="0" gradientTransform="matrix(-0.004, -0.0038, 0.0028, -0.0029, 26.75, 14.7)" gradientUnits="userSpaceOnUse" id="gradient4" r="819.2" spreadMethod="pad">
      <stop offset="0.0" stop-color="#412f18"/>
      <stop offset="0.596078431372549" stop-color="#b98046"/>
    </radialGradient>
    <radialGradient cx="0" cy="0" gradientTransform="matrix(-0.01, -0.0096, 0.007, -0.0073, 23.0, 18.65)" gradientUnits="userSpaceOnUse" id="gradient5" r="819.2" spreadMethod="pad">
      <stop offset="0.0" stop-color="#412f18"/>
      <stop offset="0.596078431372549" stop-color="#b98046"/>
    </radialGradient>
    <radialGradient cx="0" cy="0" gradientTransform="matrix(-0.0099, -0.0095, 0.007, -0.0073, 24.25, 19.95)" gradientUnits="userSpaceOnUse" id="gradient6" r="819.2" spreadMethod="pad">
      <stop offset="0.0" stop-color="#412f18"/>
      <stop offset="0.596078431372549" stop-color="#b98046"/>
    </radialGradient>
    <radialGradient cx="0" cy="0" gradientTransform="matrix(-0.0015, -0.0014, 0.0011, -0.0011, 16.95, 25.5)" gradientUnits="userSpaceOnUse" id="gradient7" r="819.2" spreadMethod="pad">
      <stop offset="0.0" stop-color="#412f18"/>
      <stop offset="0.596078431372549" stop-color="#b98046"/>
    </radialGradient>
    <radialGradient cx="0" cy="0" gradientTransform="matrix(-0.0059, -0.0057, 0.0042, -0.0043, 29.95, 11.95)" gradientUnits="userSpaceOnUse" id="gradient8" r="819.2" spreadMethod="pad">
      <stop offset="0.0" stop-color="#9e6e39"/>
      <stop offset="0.596078431372549" stop-color="#de9654"/>
    </radialGradient>
    <radialGradient cx="0" cy="0" gradientTransform="matrix(-0.004, -0.0038, 0.0028, -0.0029, 26.75, 14.7)" gradientUnits="userSpaceOnUse" id="gradient9" r="819.2" spreadMethod="pad">
      <stop offset="0.0" stop-color="#825d2f"/>
      <stop offset="0.596078431372549" stop-color="#de9954"/>
    </radialGradient>
    <radialGradient cx="0" cy="0" gradientTransform="matrix(-0.004, -0.0038, 0.0028, -0.0029, 28.85, 16.65)" gradientUnits="userSpaceOnUse" id="gradient10" r="819.2" spreadMethod="pad">
      <stop offset="0.0" stop-color="#412f18"/>
      <stop offset="0.596078431372549" stop-color="#7d562f"/>
    </radialGradient>
    <radialGradient cx="0" cy="0" gradientTransform="matrix(-0.0059, -0.0057, 0.0042, -0.0043, 30.65, 12.6)" gradientUnits="userSpaceOnUse" id="gradient11" r="819.2" spreadMethod="pad">
      <stop offset="0.0" stop-color="#412f18"/>
      <stop offset="0.596078431372549" stop-color="#694827"/>
    </radialGradient>
    <g id="shape1" transform="matrix(1.0, 0.0, 0.0, 1.0, 6.0, 31.35)">
      <path d="M-4.9 -7.55 L-5.05 -7.5 -5.05 -7.55 -4.9 -7.55" fill="#face3a" fill-rule="evenodd" stroke="none"/>
      <path d="M-4.1 -27.2 L-0.25 -31.1 2.75 -16.65 2.5 -16.2 1.25 -16.85 0.0 -17.5 1.25 -16.85 4.2 -11.85 3.4 -11.15 3.6 -10.9 -0.2 -1.4 0.45 0.75 2.45 -0.4 2.25 2.75 2.3 2.8 3.85 3.55 5.05 4.15 0.15 5.85 1.55 5.9 1.15 15.55 -1.45 14.35 -3.75 11.7 -3.75 9.15 -1.7 6.5 -3.2 5.25 -3.2 3.05 -0.2 1.55 -1.1 1.1 -3.6 -3.25 0.75 -8.95 -2.85 -7.55 -2.85 -17.5 0.0 -17.5 -3.5 -21.65 -4.1 -27.2 M3.4 -11.15 L0.75 -8.95 3.4 -11.15 M3.5 23.9 L1.95 25.35 2.0 25.45 1.0 25.85 -0.55 27.35 -4.0 25.05 1.65 22.6 3.5 23.9 M1.0 19.4 L0.0 19.15 -3.2 16.8 -3.2 15.85 1.7 15.85 1.0 19.4 M0.95 19.45 L1.65 22.55 -1.6 22.7 -3.3 21.8 -3.3 19.45 0.95 19.45 M0.15 5.85 L-1.7 6.5 0.15 5.85 M2.25 2.75 L-0.2 1.55 2.25 2.75" fill="#412f18" fill-rule="evenodd" stroke="none"/>
      <path d="M3.1 -28.25 L5.05 -26.3 5.05 -14.85 5.05 -12.6 5.05 -5.85 4.25 -4.7 4.25 -4.6 5.05 -3.85 5.05 4.15 5.05 11.5 Q4.9 12.25 4.9 13.15 L4.95 13.3 5.1 12.8 Q6.55 15.25 5.05 17.4 7.25 18.95 5.05 20.3 6.85 21.75 5.05 22.4 7.25 24.95 5.05 27.7 5.45 30.05 2.55 31.4 L0.25 31.4 Q-1.9 28.85 0.6 27.7 L1.95 27.7 2.9 26.5 2.0 25.45 1.95 25.35 3.5 23.9 5.05 22.4 3.1 21.85 4.1 21.1 3.1 19.85 5.05 20.3 3.1 19.85 3.4 16.6 1.8 15.85 3.4 15.1 3.35 5.9 1.55 5.9 0.15 5.85 5.05 4.15 3.85 3.55 4.0 -3.65 1.9 -2.0 4.75 -9.5 3.6 -10.9 3.4 -11.15 4.2 -11.85 1.25 -16.85 2.5 -16.2 2.75 -16.65 4.85 -21.45 3.1 -28.25 M-5.05 7.6 L-5.05 -0.9 -5.05 -1.75 -3.8 -3.4 -4.15 -4.75 -4.9 -7.55 -5.05 -7.55 -5.05 -10.35 -5.05 -20.1 -5.05 -26.3 -4.1 -27.2 -3.5 -21.65 0.0 -17.5 -2.85 -17.5 -2.85 -7.55 0.75 -8.95 -3.6 -3.25 -1.1 1.1 -5.05 -0.9 -1.1 1.1 -0.2 1.55 -3.2 3.05 -3.2 5.25 -1.7 6.5 -5.05 7.6 M5.05 -14.85 L2.5 -16.2 5.05 -14.85 M4.2 -11.85 L5.05 -12.6 4.2 -11.85 M5.05 17.4 L3.4 16.6 5.05 17.4 M4.5 14.8 L4.95 13.3 4.5 14.8 M1.7 15.85 L1.7 15.8 1.8 15.85 1.7 15.85 M5.05 27.7 L1.95 27.7 5.05 27.7 M1.0 19.4 L1.15 19.45 1.0 19.45 1.0 19.4 M1.65 22.55 L1.75 22.55 1.65 22.6 1.65 22.55 M0.0 -17.5 L-5.05 -20.1 0.0 -17.5 M-4.15 -4.75 L0.75 -8.95 -4.15 -4.75" fill="#b98046" fill-rule="evenodd" stroke="none"/>
      <path d="M1.15 -30.2 L3.1 -28.25 4.85 -21.45 2.75 -16.65 -0.25 -31.1 -0.15 -31.2 0.0 -31.35 1.15 -30.2 M3.6 -10.9 L4.75 -9.5 1.9 -2.0 4.0 -3.65 3.85 3.55 2.3 2.8 2.25 2.75 2.45 -0.4 0.45 0.75 -0.2 -1.4 3.6 -10.9 M1.55 5.9 L3.35 5.9 3.4 15.1 1.8 15.85 3.4 16.6 3.1 19.85 4.1 21.1 3.1 21.85 5.05 22.4 3.5 23.9 1.65 22.6 1.75 22.55 1.65 22.55 0.95 19.45 1.0 19.45 1.15 19.45 1.0 19.4 1.7 15.85 1.8 15.85 1.7 15.8 1.15 15.55 1.55 5.9 M2.0 25.45 L2.9 26.5 1.95 27.7 0.6 27.7 0.0 27.7 -0.55 27.35 1.0 25.85 2.0 25.45 M3.1 19.85 L1.15 19.45 3.1 19.85 M5.05 22.4 L1.75 22.55 5.05 22.4" fill="#614523" fill-rule="evenodd" stroke="none"/>
      <path d="M0.25 31.4 L-2.15 31.4 Q-5.15 30.8 -5.05 27.7 -6.45 25.2 -5.05 22.85 -6.9 20.95 -5.05 18.0 -6.45 15.35 -4.7 13.05 L-4.6 13.1 -4.7 12.85 -4.7 12.8 -5.05 10.95 -5.05 7.6 -1.7 6.5 -3.75 9.15 -3.75 11.7 -1.45 14.35 1.15 15.55 1.7 15.8 1.7 15.85 -3.2 15.85 -3.2 16.8 0.0 19.15 1.0 19.4 1.0 19.45 0.95 19.45 -3.3 19.45 -3.3 21.8 -1.6 22.7 -5.05 22.85 -1.6 22.7 1.65 22.55 1.65 22.6 -4.0 25.05 -0.55 27.35 0.0 27.7 0.6 27.7 Q-1.9 28.85 0.25 31.4 M-4.7 12.85 L-1.45 14.35 -4.7 12.85 M-5.05 18.0 L0.0 19.15 -5.05 18.0 M-5.05 27.7 L0.0 27.7 -5.05 27.7" fill="#966739" fill-rule="evenodd" stroke="none"/>
      <path d="M-5.05 -10.35 L-5.05 -20.1 -5.05 -26.3 -4.1 -27.2 -0.25 -31.1 M-0.15 -31.2 L0.0 -31.35 1.15 -30.2" fill="none" stroke="#4f0000" stroke-linecap="round" stroke-linejoin="round" stroke-opacity="0.2509804" stroke-width="0.05"/>
      <path d="M1.15 -30.2 L3.1 -28.25 5.05 -26.3 5.05 -14.85 5.05 -12.6 5.05 -5.85 4.25 -4.7 4.25 -4.6 5.05 -3.85 5.05 4.15 5.05 11.5 Q4.9 12.25 4.9 13.15 L4.95 13.3 5.1 12.8 Q6.55 15.25 5.05 17.4 7.25 18.95 5.05 20.3 6.85 21.75 5.05 22.4 7.25 24.95 5.05 27.7 5.45 30.05 2.55 31.4 L0.25 31.4 -2.15 31.4 Q-5.15 30.8 -5.05 27.7 -6.45 25.2 -5.05 22.85 -6.9 20.95 -5.05 18.0 -6.45 15.35 -4.7 13.05 L-4.75 13.05 -4.7 12.85 -4.7 12.8 -5.05 10.95 -5.05 7.6 -5.05 -0.9 -5.05 -1.75 -3.8 -3.4 -4.15 -4.75 -4.9 -7.55 -5.05 -7.5 -5.05 -7.55 -5.05 -10.35 M1.25 -16.85 L0.0 -17.5 M0.75 -8.95 L3.4 -11.15 4.2 -11.85 M1.25 -16.85 L2.5 -16.2 5.05 -14.85 M3.85 3.55 L5.05 4.15 0.15 5.85 M1.8 15.85 L3.4 16.6 5.05 17.4 M5.05 -12.6 L4.2 -11.85 M2.3 2.8 L3.85 3.55 M4.95 13.3 L4.5 14.8 M1.7 15.8 L1.15 15.55 -1.45 14.35 -4.7 12.85 -4.6 13.1 -4.7 13.05 -4.7 12.85 M1.8 15.85 L1.7 15.8 M5.05 20.3 L3.1 19.85 M1.95 27.7 L5.05 27.7 M1.0 19.4 L0.0 19.15 -5.05 18.0 M1.15 19.45 L1.0 19.4 M1.15 19.45 L3.1 19.85 M1.65 22.55 L1.75 22.55 5.05 22.4 M0.0 27.7 L0.6 27.7 1.95 27.7 M-5.05 -20.1 L0.0 -17.5 M-1.7 6.5 L0.15 5.85 M-1.1 1.1 L-0.2 1.55 2.25 2.75 M-1.7 6.5 L-5.05 7.6 M-5.05 22.85 L-1.6 22.7 1.65 22.55 M0.75 -8.95 L-4.15 -4.75 M-5.05 -0.9 L-1.1 1.1 M0.0 27.7 L-5.05 27.7" fill="none" stroke="#4f0000" stroke-linecap="round" stroke-linejoin="round" stroke-opacity="0.2509804" stroke-width="0.05"/>
      <path d="M-0.25 -31.1 L-0.15 -31.2 M2.25 2.75 L2.3 2.8 M1.7 15.8 L1.7 15.85 M1.0 19.4 L1.0 19.45 M1.65 22.55 L1.65 22.6" fill="none" stroke="#000000" stroke-linecap="round" stroke-linejoin="round" stroke-opacity="0.2509804" stroke-width="0.25"/>
    </g>
    <g id="shape2" transform="matrix(1.0, 0.0, 0.0, 1.0, 17.15, 22.85)">
      <path d="M5.75 -21.15 L7.3 -16.3 4.95 -9.65 1.45 -5.85 5.75 -17.2 5.75 -21.15" fill="#6c4b24" fill-rule="evenodd" stroke="none"/>
      <path d="M-11.2 4.95 L-9.8 4.95 -13.4 8.55 -11.2 4.95" fill="#23230c" fill-rule="evenodd" stroke="none"/>
      <path d="M17.2 0.85 L17.2 1.85 12.15 6.9 12.15 22.85 9.9 14.95 2.4 6.5 0.05 8.65 -4.5 8.65 -8.4 17.85 -8.25 9.35 -14.95 12.45 -17.15 12.45 -16.85 11.35 -15.85 11.35 -9.35 8.1 -4.4 2.35 -8.15 0.4 -4.1 -1.5 3.15 -1.5 9.45 -5.65 12.2 -2.25 17.2 0.85 M-4.5 8.65 L-2.7 4.4 -8.25 9.35 -2.7 4.4 0.2 4.4 -2.7 4.4 -4.5 8.65" fill="#52351b" fill-rule="evenodd" stroke="none"/>
      <path d="M2.8 -22.15 L2.0 -22.4 2.8 -22.15" fill="#ffffff" fill-rule="evenodd" stroke="none"/>
      <path d="M2.0 -22.4 L2.8 -22.15 3.8 -21.8 5.75 -21.15 5.75 -17.2 1.45 -5.85 4.95 -9.65 11.55 -9.65 Q12.0 -8.65 12.85 -7.8 14.6 -6.05 17.2 -6.0 L17.2 0.85 12.2 -2.25 9.45 -5.65 3.15 -1.5 -4.1 -1.5 -8.15 0.4 -4.4 2.35 -9.35 8.1 -15.85 11.35 -12.8 0.1 -13.95 -2.85 -10.5 -8.1 -13.75 -5.7 -11.1 -12.55 -6.1 -15.95 -6.05 -15.85 Q-5.45 -15.85 -5.05 -16.2 L-4.7 -16.65 -4.35 -17.4 2.0 -22.4 M1.05 -14.35 L0.5 -15.35 1.05 -14.35 M0.65 -15.85 L-0.5 -15.85 -1.45 -16.65 -4.7 -16.65 -1.45 -16.65 -0.5 -15.85 0.65 -15.85 M0.5 -15.35 L-0.95 -15.35 -2.0 -16.2 -5.05 -16.2 -2.0 -16.2 -0.95 -15.35 0.5 -15.35 M-1.6 -10.3 L-7.75 -8.25 -10.8 -5.85 -10.8 0.9 Q-7.55 -5.75 -1.6 -10.3 M-11.2 4.95 L-13.4 8.55 -9.8 4.95 -11.2 4.95 M0.05 -14.5 L-0.95 -15.35 0.05 -14.5" fill="url(#gradient12)" fill-rule="evenodd" stroke="none"/>
      <path d="M-4.75 -18.65 L0.75 -22.85 2.0 -22.4 -4.35 -17.4 -4.75 -18.65" fill="url(#gradient13)" fill-rule="evenodd" stroke="none"/>
      <path d="M-16.85 11.35 L-14.1 0.65 -15.75 -3.0 -15.65 -3.2 -12.6 -12.7 -6.95 -17.0 -6.1 -15.95 -11.1 -12.55 -13.75 -5.7 -10.5 -8.1 -13.95 -2.85 -12.8 0.1 -15.85 11.35 -16.85 11.35" fill="url(#gradient14)" fill-rule="evenodd" stroke="none"/>
      <path d="M-1.6 -10.3 Q-7.55 -5.75 -10.8 0.9 L-10.8 -5.85 -7.75 -8.25 -1.6 -10.3" fill="url(#gradient15)" fill-rule="evenodd" stroke="none"/>
      <path d="M-4.75 -18.65 L-4.35 -17.4 M-6.95 -17.0 L-6.1 -15.95 -6.05 -15.85 Q-5.45 -15.85 -5.05 -16.2 L-4.7 -16.65 -4.35 -17.4 M-5.05 -16.2 L-2.0 -16.2 -0.95 -15.35 0.5 -15.35 M-0.95 -15.35 L0.05 -14.5" fill="none" stroke="#a48c66" stroke-linecap="round" stroke-linejoin="round" stroke-width="0.05"/>
      <path d="M0.5 -15.35 L1.05 -14.35 M-4.7 -16.65 L-1.45 -16.65 -0.5 -15.85 0.65 -15.85" fill="none" stroke="#dcb996" stroke-linecap="round" stroke-linejoin="round" stroke-width="0.05"/>
      <path d="M2.8 -22.15 L2.0 -22.4 0.75 -22.85 -4.75 -18.65 M3.8 -21.8 L5.75 -21.15 7.3 -16.3 4.95 -9.65 11.55 -9.65 M17.2 -6.0 L17.2 0.85 17.2 1.85 12.15 6.9 12.15 22.85 9.9 14.95 2.4 6.5 0.05 8.65 -4.5 8.65 -8.4 17.85 -8.25 9.35 -14.95 12.45 -17.15 12.45 -16.85 11.35 -14.1 0.65 -15.75 -3.0 -15.65 -3.2 -12.6 -12.7 -6.95 -17.0 M-1.6 -10.3 Q-7.55 -5.75 -10.8 0.9 L-10.8 -5.85 -7.75 -8.25 -1.6 -10.3 M-8.25 9.35 L-2.7 4.4 0.2 4.4 M-2.7 4.4 L-4.5 8.65 M-11.2 4.95 L-9.8 4.95 -13.4 8.55 -11.2 4.95" fill="none" stroke="#000000" stroke-linecap="round" stroke-linejoin="round" stroke-opacity="0.2509804" stroke-width="0.05"/>
      <path d="M11.55 -9.65 Q12.0 -8.65 12.85 -7.8 14.6 -6.05 17.2 -6.0" fill="none" stroke="#000000" stroke-linecap="round" stroke-linejoin="round" stroke-opacity="0.2509804" stroke-width="0.05"/>
    </g>
    <radialGradient cx="0" cy="0" gradientTransform="matrix(0.0419, 0.0, 0.0, 0.0419, 15.75, -2.05)" gradientUnits="userSpaceOnUse" id="gradient12" r="819.2" spreadMethod="pad">
      <stop offset="0.0" stop-color="#52351b"/>
      <stop offset="1.0" stop-color="#9b6b33"/>
    </radialGradient>
    <radialGradient cx="0" cy="0" gradientTransform="matrix(0.0094, 0.0, 0.0, 0.0094, -4.75, -18.65)" gradientUnits="userSpaceOnUse" id="gradient13" r="819.2" spreadMethod="pad">
      <stop offset="0.0" stop-color="#ffffff"/>
      <stop offset="1.0" stop-color="#9b6b33"/>
    </radialGradient>
    <radialGradient cx="0" cy="0" gradientTransform="matrix(0.0358, 0.0, 0.0, 0.0358, -6.1, -15.95)" gradientUnits="userSpaceOnUse" id="gradient14" r="819.2" spreadMethod="pad">
      <stop offset="0.0" stop-color="#ffffff"/>
      <stop offset="1.0" stop-color="#9b6b33"/>
    </radialGradient>
    <radialGradient cx="0" cy="0" gradientTransform="matrix(0.0121, 0.0, 0.0, 0.0121, -9.5, -4.25)" gradientUnits="userSpaceOnUse" id="gradient15" r="819.2" spreadMethod="pad">
      <stop offset="0.0" stop-color="#ffdc66"/>
      <stop offset="1.0" stop-color="#a22626"/>
    </radialGradient>
    <g id="shape3" transform="matrix(1.0, 0.0, 0.0, 1.0, -4.65, -11.85)">
      <path d="M14.9 22.0 L14.95 22.0 15.25 23.1 14.9 22.0 M15.6 24.15 L15.95 24.95 15.9 25.1 15.6 24.15 M5.75 32.45 L5.75 32.3 5.85 32.4 5.75 32.45 M13.0 23.65 L12.95 23.7 12.95 23.55 13.0 23.65 M15.9 26.3 L15.9 26.4 15.15 26.85 15.95 26.15 15.9 26.3 M15.05 26.95 L15.0 26.95 15.15 26.85 15.05 26.95" fill="#e8ded7" fill-rule="evenodd" stroke="none"/>
      <path d="M17.15 24.65 L17.65 24.65 17.35 25.0 17.2 24.9 17.15 24.65 M18.7 26.05 L19.0 25.65 19.1 26.25 18.7 26.05" fill="#6c6c6c" fill-rule="evenodd" stroke="none"/>
      <path d="M15.15 26.85 L15.9 26.4 15.05 26.95 15.15 26.85" fill="#b69987" fill-rule="evenodd" stroke="none"/>
      <path d="M17.1 24.65 L17.15 24.65 17.1 24.65" fill="#b7b7b7" fill-rule="evenodd" stroke="none"/>
      <path d="M11.75 27.55 L11.25 28.35 Q11.25 28.65 10.95 28.6 10.75 28.6 10.8 28.25 L11.25 27.1 11.85 26.35 Q12.3 26.05 12.2 26.75 12.25 27.15 11.75 27.55 M9.95 33.35 L10.0 33.35 9.4 34.25 Q8.85 34.3 9.35 34.35 L8.75 34.4 8.5 34.4 8.2 34.05 8.3 33.65 Q7.95 33.55 7.95 33.1 L8.05 32.45 Q8.15 31.8 8.4 31.25 8.75 30.3 9.5 29.4 10.9 27.65 10.85 29.3 L10.65 30.75 10.5 32.45 10.0 32.1 10.35 30.4 10.35 29.8 10.3 29.5 Q10.15 29.45 10.15 29.65 L9.5 29.9 Q8.6 30.8 8.55 32.15 L8.6 32.75 Q8.55 33.25 9.05 33.25 L9.55 33.1 9.85 33.15 9.75 33.05 9.85 33.05 9.95 33.15 9.95 33.35 M16.95 28.2 L17.05 28.25 16.95 28.3 16.95 28.25 16.95 28.2 M16.5 27.3 L16.3 26.7 16.4 27.0 16.45 27.15 16.55 27.3 16.5 27.3" fill="#999999" fill-rule="evenodd" stroke="none"/>
      <path d="M12.45 24.35 L12.95 23.7 12.45 24.35" fill="url(#gradient16)" fill-rule="evenodd" stroke="none"/>
      <path d="M22.85 29.05 L13.65 38.8 13.2 39.1 13.15 39.2 12.7 39.2 6.1 40.15 6.1 40.0 6.85 38.8 7.45 38.2 16.5 28.9 18.15 28.25 19.9 28.5 21.65 28.85 22.85 29.05 M13.35 32.8 L12.15 33.95 Q11.2 35.1 10.7 36.75 L10.65 37.25 11.0 37.4 11.6 37.5 11.7 37.5 13.05 36.15 Q14.2 34.85 14.4 33.85 15.1 31.45 13.35 32.8 M11.05 38.45 L10.85 38.65 10.8 38.95 11.1 39.1 11.5 39.05 11.85 38.75 Q11.9 38.4 11.4 38.3 L11.05 38.45" fill="url(#gradient17)" fill-rule="evenodd" stroke="none"/>
      <path d="M6.05 39.4 L5.85 34.65 5.8 34.35 5.8 33.75 5.8 33.1 14.4 22.3 14.6 22.95 15.4 25.65 15.35 25.45 10.5 32.45 10.65 30.75 10.85 29.3 Q10.9 27.65 9.5 29.4 8.75 30.3 8.4 31.25 7.8 31.05 7.25 32.1 L6.5 33.5 6.5 34.7 6.45 35.7 6.45 35.9 Q6.5 36.45 6.95 36.45 7.65 36.45 8.5 34.85 L8.6 34.6 9.25 34.4 6.05 39.4 M11.75 27.55 Q12.25 27.15 12.2 26.75 12.3 26.05 11.85 26.35 L11.25 27.1 10.8 28.25 Q10.75 28.6 10.95 28.6 11.25 28.65 11.25 28.35 L11.75 27.55" fill="url(#gradient18)" fill-rule="evenodd" stroke="none"/>
      <path d="M18.7 26.7 L18.1 27.65 16.45 26.7 17.45 26.85 17.75 26.35 17.75 26.2 18.7 26.7 M16.0 26.2 L16.15 26.1 16.35 26.75 18.05 27.65 22.55 28.55 22.85 29.05 21.65 28.85 19.9 28.5 18.15 28.25 16.5 28.9 7.45 38.2 16.35 27.75 16.3 27.6 Q16.15 27.25 15.0 26.95 L15.05 26.95 15.9 26.4 15.9 26.3 16.1 26.3 16.15 26.25 16.1 26.25 16.15 26.2 16.05 26.2 16.0 26.2 M16.5 27.3 L16.55 27.3 16.45 27.15 16.4 27.0 16.3 26.7 16.5 27.3 M16.95 28.2 L16.95 28.25 16.95 28.3 17.05 28.25 16.95 28.2" fill="#4d4d4d" fill-rule="evenodd" stroke="none"/>
      <path d="M15.95 25.15 L15.95 25.1 16.05 24.9 16.3 25.6 17.1 24.65 17.15 24.65 17.2 24.9 17.35 25.0 17.6 25.4 18.45 25.95 18.7 26.05 19.1 26.25 18.7 26.7 17.75 26.2 17.75 26.35 17.45 26.85 16.45 26.7 16.4 26.65 16.25 26.15 16.25 26.1 16.0 25.7 15.9 25.35 15.9 25.2 15.95 25.15 M10.5 32.45 L9.95 33.35 9.95 33.15 9.85 33.05 9.75 33.05 9.85 33.15 9.55 33.1 9.05 33.25 Q8.55 33.25 8.6 32.75 L8.55 32.15 Q8.6 30.8 9.5 29.9 L10.15 29.65 Q10.15 29.45 10.3 29.5 L10.35 29.8 10.35 30.4 10.0 32.1 10.5 32.45 M15.0 26.95 Q16.15 27.25 16.3 27.6 L16.35 27.75 7.45 38.2 6.85 38.8 9.65 34.45 15.0 26.95" fill="#cccccc" fill-rule="evenodd" stroke="none"/>
      <path d="M14.9 22.0 L15.25 23.1 15.4 23.65 15.5 23.95 15.6 24.15 15.9 25.1 15.9 25.2 15.9 25.35 16.0 25.7 16.0 26.2 16.05 26.2 16.15 26.2 16.1 26.25 16.15 26.25 16.1 26.3 15.9 26.3 15.95 26.15 15.15 26.85 15.0 26.95 9.65 34.45 6.85 38.8 6.1 40.0 6.05 39.4 9.25 34.4 8.6 34.6 9.35 34.35 Q8.85 34.3 9.4 34.25 L10.0 33.35 9.95 33.35 10.5 32.45 15.35 25.45 15.4 25.65 14.6 22.95 14.4 22.3 5.8 33.1 5.75 32.5 5.75 32.45 5.85 32.4 12.45 24.35 12.95 23.7 13.0 23.65 14.35 22.0 14.9 22.0" fill="#e6e6e6" fill-rule="evenodd" stroke="none"/>
      <path d="M13.35 32.8 Q15.1 31.45 14.4 33.85 14.2 34.85 13.05 36.15 L11.7 37.5 11.6 37.5 11.0 37.4 10.65 37.25 10.7 36.75 Q11.2 35.1 12.15 33.95 L13.35 32.8 M11.05 38.45 L11.4 38.3 Q11.9 38.4 11.85 38.75 L11.5 39.05 11.1 39.1 10.8 38.95 10.85 38.65 11.05 38.45" fill="#666666" fill-rule="evenodd" stroke="none"/>
      <path d="M9.35 34.35 L8.6 34.6 8.5 34.85 Q7.65 36.45 6.95 36.45 6.5 36.45 6.45 35.9 L6.45 35.7 6.5 34.7 6.5 33.5 7.25 32.1 Q7.8 31.05 8.4 31.25 8.15 31.8 8.05 32.45 L7.95 33.1 Q7.95 33.55 8.3 33.65 L8.2 34.05 8.5 34.4 8.75 34.4 9.35 34.35" fill="#8c8c8c" fill-rule="evenodd" stroke="none"/>
      <path d="M15.95 25.1 L16.05 24.9 16.3 25.6 17.1 24.65 17.15 24.65 17.65 24.65 17.35 25.0 M18.7 26.05 L19.0 25.65 19.1 26.25 18.7 26.7 18.1 27.65 M16.25 26.15 L16.25 26.1 M17.15 24.65 L17.1 24.65" fill="none" stroke="#000000" stroke-linecap="round" stroke-linejoin="round" stroke-opacity="0.33333334" stroke-width="0.25"/>
      <path d="M5.8 34.35 L5.8 33.75 M12.95 23.7 L12.5 23.35 M14.6 22.95 L15.4 25.65 15.35 25.45 10.5 32.45 M15.9 26.4 L15.9 26.3 15.95 26.15 15.15 26.85 15.0 26.95 9.65 34.45 M15.9 26.4 L15.05 26.95 15.0 26.95" fill="none" stroke="#a17960" stroke-linecap="round" stroke-linejoin="round" stroke-opacity="0.2509804" stroke-width="0.05"/>
      <path d="M17.35 25.0 L17.6 25.4 18.45 25.95 M18.1 27.65 L16.45 26.7 16.4 26.65 M17.35 25.0 L17.2 24.9 17.15 24.65" fill="none" stroke="#000000" stroke-linecap="round" stroke-linejoin="round" stroke-opacity="0.3019608" stroke-width="0.4"/>
      <path d="M15.05 26.95 L15.15 26.85" fill="none" stroke="#69513b" stroke-linecap="round" stroke-linejoin="round" stroke-width="0.05"/>
      <path d="M14.9 22.0 L15.25 23.1 15.4 23.65 15.5 23.95 15.6 24.15 M15.9 25.1 L15.95 25.15 M22.55 28.55 L22.85 29.05 13.65 38.8 13.2 39.1 13.15 39.2 M5.85 34.65 L5.8 34.35 M5.8 33.75 L5.8 33.1 5.75 32.5 M5.85 32.4 L12.45 24.35 M14.9 22.0 L14.35 22.0 13.0 23.65 12.95 23.7 12.45 24.35 M15.9 25.1 L15.6 24.15 M5.85 32.4 L5.75 32.45" fill="none" stroke="#1b4d7e" stroke-linecap="round" stroke-linejoin="round" stroke-opacity="0.4" stroke-width="0.05"/>
      <path d="M15.4 26.45 Q15.15 28.95 13.5 31.6 11.85 34.15 9.6 35.3 7.4 36.5 5.95 35.5 4.5 34.55 4.65 32.05 4.95 29.55 6.6 26.95 8.3 24.4 10.5 23.2 L14.15 23.1 Q15.65 23.95 15.4 26.45" fill="url(#gradient19)" fill-rule="evenodd" stroke="none"/>
      <path d="M16.95 26.6 L18.3 27.75 18.4 27.55 22.25 28.7 22.5 29.55 22.05 30.05 22.4 29.4 13.5 38.95 6.0 40.0 16.95 26.6" fill="url(#gradient20)" fill-rule="evenodd" stroke="none"/>
      <path d="M27.8 12.3 Q28.3 11.85 29.0 11.85 29.8 11.8 30.25 12.35 30.75 12.8 30.7 13.6 30.7 14.3 30.2 14.75 29.7 15.25 29.0 15.3 28.25 15.25 27.8 14.75 27.3 14.25 27.3 13.55 27.3 12.8 27.8 12.3" fill="#003c00" fill-rule="evenodd" stroke="none"/>
      <path d="M27.65 13.75 L27.65 13.55 27.65 13.25 27.7 13.0 28.1 12.45 Q28.4 12.15 28.8 12.1 L29.15 12.1 Q29.75 12.05 30.15 12.5 L30.2 12.55 30.35 12.7 30.5 13.05 30.15 13.65 29.85 13.9 29.65 14.05 29.15 14.3 28.45 14.25 Q28.0 14.1 27.65 13.75 M29.8 12.65 L29.4 12.6 29.35 12.6 29.3 12.85 Q29.5 13.25 29.9 13.05 L30.0 12.85 29.8 12.65 M28.6 12.85 L28.55 12.85 28.15 13.25 Q27.95 13.75 28.4 14.0 L28.95 13.95 28.8 13.8 28.6 13.7 28.55 13.55 Q28.7 13.35 29.0 13.35 L29.0 13.3 Q29.05 12.95 28.7 12.9 L28.65 12.85 28.6 12.85 28.8 12.8 28.5 12.85 28.6 12.85" fill="url(#gradient21)" fill-rule="evenodd" stroke="none"/>
      <path d="M30.5 13.05 L30.55 13.2 30.6 13.55 30.4 14.25 30.15 14.55 29.6 14.95 29.3 15.0 29.2 15.0 29.1 15.0 28.8 14.95 28.75 14.95 28.45 14.85 28.4 14.8 28.25 14.75 28.1 14.6 28.05 14.55 27.65 13.75 Q28.0 14.1 28.45 14.25 L29.15 14.3 29.65 14.05 29.85 13.9 30.15 13.65 30.5 13.05" fill="#159971" fill-rule="evenodd" stroke="none"/>
      <path d="M29.8 12.65 L30.0 12.85 29.9 13.05 Q29.5 13.25 29.3 12.85 L29.35 12.6 29.4 12.6 29.8 12.65 M28.6 12.85 L28.65 12.85 28.7 12.9 Q29.05 12.95 29.0 13.3 L29.0 13.35 Q28.7 13.35 28.55 13.55 L28.6 13.7 28.8 13.8 28.95 13.95 28.4 14.0 Q27.95 13.75 28.15 13.25 L28.55 12.85 28.6 12.85" fill="#ffffff" fill-rule="evenodd" stroke="none"/>
      <path d="M28.6 12.85 L28.5 12.85 28.8 12.8 28.6 12.85" fill="#7ceb8c" fill-rule="evenodd" stroke="none"/>
      <path d="M27.65 13.75 L27.65 13.55 27.65 13.25 27.7 13.0 28.1 12.45 Q28.4 12.15 28.8 12.1 L29.15 12.1 Q29.75 12.05 30.15 12.5 L30.2 12.55 30.35 12.7 30.5 13.05 30.55 13.2 30.6 13.55 30.4 14.25 30.15 14.55 29.6 14.95 29.3 15.0 29.2 15.0 29.1 15.0 28.8 14.95 28.75 14.95 28.45 14.85 28.4 14.8 28.25 14.75 28.1 14.6 28.05 14.55 27.65 13.75 Z" fill="none" stroke="#000000" stroke-linecap="round" stroke-linejoin="round" stroke-opacity="0.24313726" stroke-width="0.05"/>
      <path d="M30.3 12.55 Q30.6 13.05 30.3 13.25 L27.5 13.4 Q27.25 13.35 27.55 13.0 28.4 11.95 30.15 12.45 L30.3 12.55" fill="url(#gradient22)" fill-rule="evenodd" stroke="none"/>
    </g>
    <linearGradient gradientTransform="matrix(-0.0039, -0.0017, 0.005, -0.0113, 9.6, 29.95)" gradientUnits="userSpaceOnUse" id="gradient16" spreadMethod="pad" x1="-819.2" x2="819.2">
      <stop offset="0.027450980392156862" stop-color="#ae8e79"/>
      <stop offset="1.0" stop-color="#e2d8d1"/>
    </linearGradient>
    <linearGradient gradientTransform="matrix(-0.0025, -0.0023, 0.0053, -0.0057, 14.65, 34.0)" gradientUnits="userSpaceOnUse" id="gradient17" spreadMethod="pad" x1="-819.2" x2="819.2">
      <stop offset="0.00784313725490196" stop-color="#404040"/>
      <stop offset="1.0" stop-color="#999999"/>
    </linearGradient>
    <linearGradient gradientTransform="matrix(-0.0018, -0.0014, 0.0065, -0.0086, 10.4, 30.55)" gradientUnits="userSpaceOnUse" id="gradient18" spreadMethod="pad" x1="-819.2" x2="819.2">
      <stop offset="0.00784313725490196" stop-color="#bababa"/>
      <stop offset="1.0" stop-color="#d4d4d4"/>
    </linearGradient>
    <radialGradient cx="0" cy="0" gradientTransform="matrix(0.0065, -0.0098, 0.0055, 0.0036, 10.1, 29.25)" gradientUnits="userSpaceOnUse" id="gradient19" r="819.2" spreadMethod="pad">
      <stop offset="0.0" stop-color="#ffffde" stop-opacity="0.52156866"/>
      <stop offset="0.4117647058823529" stop-color="#ffffcc" stop-opacity="0.0"/>
    </radialGradient>
    <linearGradient gradientTransform="matrix(0.0023, 0.0014, -0.0031, 0.0049, 13.65, 32.7)" gradientUnits="userSpaceOnUse" id="gradient20" spreadMethod="pad" x1="-819.2" x2="819.2">
      <stop offset="0.0" stop-color="#000000" stop-opacity="0.5019608"/>
      <stop offset="1.0" stop-color="#000000" stop-opacity="0.0"/>
    </linearGradient>
    <radialGradient cx="0" cy="0" gradientTransform="matrix(0.0025, 0.0026, -0.0026, 0.0025, 27.75, 13.85)" gradientUnits="userSpaceOnUse" id="gradient21" r="819.2" spreadMethod="pad">
      <stop offset="0.0" stop-color="#159971"/>
      <stop offset="0.6039215686274509" stop-color="#93fe92"/>
      <stop offset="0.9882352941176471" stop-color="#f2fff2"/>
    </radialGradient>
    <radialGradient cx="0" cy="0" gradientTransform="matrix(1.0E-4, -0.0013, -0.0013, -1.0E-4, 28.8, 12.7)" gradientUnits="userSpaceOnUse" id="gradient22" r="819.2" spreadMethod="pad">
      <stop offset="0.0" stop-color="#ffffff" stop-opacity="0.7137255"/>
      <stop offset="1.0" stop-color="#ffffff" stop-opacity="0.0"/>
    </radialGradient>
  </defs>
</svg>
