<?xml version="1.0" encoding="UTF-8" standalone="no"?>
<svg xmlns:xlink="http://www.w3.org/1999/xlink" height="440.0px" width="440.0px" xmlns="http://www.w3.org/2000/svg">
  <g transform="matrix(10.0, 0.0, 0.0, 10.0, 0.0, 0.0)">
    <use height="44.0" transform="matrix(0.9091, 0.0, 0.0, 0.9091, 2.0, 2.0)" width="44.0" xlink:href="#sprite0"/>
  </g>
  <defs>
    <g id="sprite0" transform="matrix(1.0, 0.0, 0.0, 1.0, 0.0, 0.0)">
      <use height="44.0" transform="matrix(1.0, 0.0, 0.0, 1.0, 0.0, 0.0)" width="44.0" xlink:href="#shape0"/>
      <use height="29.45" transform="matrix(1.2604, 0.0, 0.0, 1.2604, 3.0, 3.45)" width="30.15" xlink:href="#sprite1"/>
    </g>
    <g id="shape0" transform="matrix(1.0, 0.0, 0.0, 1.0, 0.0, 0.0)">
      <path d="M44.0 44.0 L0.0 44.0 0.0 0.0 44.0 0.0 44.0 44.0" fill="#43adca" fill-opacity="0.0" fill-rule="evenodd" stroke="none"/>
    </g>
    <g id="sprite1" transform="matrix(1.0, 0.0, 0.0, 1.0, 0.0, 0.0)">
      <use height="29.45" transform="matrix(1.0, 0.0, 0.0, 1.0, 0.0, 0.0)" width="30.15" xlink:href="#sprite2"/>
    </g>
    <g id="sprite2" transform="matrix(1.0, 0.0, 0.0, 1.0, 7.8, 15.85)">
      <use height="29.45" transform="matrix(1.0, 0.0, 0.0, 1.0, -7.8, -15.85)" width="30.15" xlink:href="#shape1"/>
    </g>
    <g id="shape1" transform="matrix(1.0, 0.0, 0.0, 1.0, 7.8, 15.85)">
      <path d="M-3.2 -12.5 L-3.25 -12.35 -3.2 -12.1 -2.85 -11.05 -2.8 -10.95 -3.65 -10.4 -3.95 -10.1 Q-4.4 -10.65 -4.4 -11.5 L-4.4 -11.65 -4.0 -11.95 -3.2 -12.5 M-5.3 -10.65 L-4.95 -9.8 -4.65 -9.4 -5.35 -8.45 -6.05 -9.6 -5.3 -10.65 M13.2 -13.4 L12.0 -13.7 12.05 -14.05 12.3 -14.55 13.35 -15.75 14.2 -15.6 15.25 -15.25 14.75 -14.95 13.55 -13.9 13.2 -13.4 M11.05 -13.8 L10.05 -13.8 9.85 -13.8 9.7 -14.15 9.65 -14.65 9.85 -15.65 10.6 -15.75 10.75 -15.8 11.35 -15.85 Q11.0 -15.15 11.0 -14.45 L11.0 -14.35 11.05 -13.8 M4.15 -7.5 L4.15 -6.6 3.95 -6.55 3.55 -6.15 3.55 -7.1 3.9 -7.45 4.15 -7.5 M4.15 -5.95 L4.15 -5.1 Q3.7 -5.25 3.55 -4.7 L3.55 -5.35 3.85 -5.9 4.15 -5.95 M9.45 -2.6 L9.2 -2.6 9.4 -3.05 9.45 -3.15 9.5 -3.45 10.0 -3.45 9.85 -3.2 9.8 -3.15 9.45 -2.6 M8.15 -2.55 L7.3 -2.55 7.45 -2.9 7.55 -3.05 7.7 -3.3 8.6 -3.35 8.4 -3.1 8.4 -3.05 8.15 -2.55 M13.85 3.1 L14.15 4.0 14.6 4.6 13.4 5.3 13.05 5.45 13.0 5.5 12.8 5.15 12.85 4.3 12.9 3.7 13.85 3.1 M10.65 4.95 L10.7 5.0 10.65 5.2 10.55 6.15 10.75 6.65 9.2 7.65 8.9 6.8 9.1 5.9 9.15 5.8 10.2 5.2 10.65 4.95 M-3.0 3.55 L-2.6 3.85 -2.55 4.5 -2.65 5.1 -3.25 4.7 -3.0 3.55 M-2.5 -2.65 L-1.6 -2.75 -1.85 -2.35 -2.05 -2.05 -2.7 -2.0 -2.65 -2.3 -2.6 -2.55 -2.5 -2.65" fill="#efee5c" fill-rule="evenodd" stroke="none"/>
      <path d="M-2.0 -13.1 L-2.25 -12.35 -2.25 -12.25 -2.05 -11.45 -2.0 -11.35 -2.8 -10.95 -2.85 -11.05 -3.2 -12.1 -3.25 -12.35 -3.2 -12.5 -2.0 -13.1 M9.85 -13.8 L8.4 -13.55 Q8.25 -13.65 8.25 -13.9 L8.25 -14.05 Q8.25 -14.55 8.7 -15.35 L9.6 -15.6 9.85 -15.65 9.65 -14.65 9.7 -14.15 9.85 -13.8 M4.15 -6.6 L4.15 -5.95 3.85 -5.9 3.55 -5.35 3.55 -6.15 3.95 -6.55 4.15 -6.6 M7.3 -2.55 L6.65 -2.5 6.65 -2.6 6.7 -2.95 6.8 -3.25 7.7 -3.3 7.55 -3.05 7.45 -2.9 7.3 -2.55 M12.9 3.7 L12.85 4.3 12.8 5.15 13.0 5.5 11.45 6.3 11.4 5.15 11.45 4.95 11.55 4.5 12.9 3.7 M-1.9 4.35 L-1.75 4.4 -0.7 5.15 -0.65 5.4 -0.55 6.2 -0.55 6.5 -1.6 5.8 -1.6 5.7 -1.6 5.45 -1.75 4.9 -1.9 4.35 M-4.05 -2.55 L-3.25 -2.6 -3.3 -2.6 -3.55 -2.2 -3.6 -2.1 -3.6 -2.0 -3.6 -1.95 -4.35 -1.9 -4.3 -2.15 -4.1 -2.45 -4.05 -2.55" fill="#fbfbd0" fill-rule="evenodd" stroke="none"/>
      <path d="M-2.0 -11.35 L-2.05 -11.45 -2.25 -12.25 -2.25 -12.35 -2.0 -13.1 0.3 -13.6 1.7 -13.6 1.75 -13.55 1.8 -13.55 1.95 -13.55 2.9 -13.05 3.25 -12.7 Q2.75 -12.25 2.65 -11.65 L-1.75 -11.5 -2.0 -11.35 M-5.3 -10.65 L-4.4 -11.65 -4.4 -11.5 Q-4.4 -10.65 -3.95 -10.1 L-4.65 -9.4 -4.95 -9.8 -5.3 -10.65 M-6.05 -9.6 L-5.35 -8.45 Q-6.85 -6.15 -6.7 -2.55 -7.3 -2.65 -7.65 -1.9 L-7.7 -1.8 -7.7 -1.9 -7.8 -3.15 -7.55 -5.6 -7.1 -7.15 -6.95 -7.65 -6.05 -9.6" fill="url(#gradient0)" fill-rule="evenodd" stroke="none"/>
      <path d="M-2.8 -10.95 L-2.0 -11.35 -1.75 -11.5 2.65 -11.65 Q2.75 -12.25 3.25 -12.7 L4.1 -11.4 4.15 -11.55 4.35 -12.05 4.5 -12.35 5.1 -13.2 Q4.9 -12.4 5.5 -12.3 L7.5 -13.25 8.4 -13.55 9.85 -13.8 10.05 -13.8 11.05 -13.8 11.15 -13.8 12.0 -13.7 13.2 -13.4 13.9 -13.1 Q16.6 -11.7 17.35 -8.0 L17.05 -8.65 Q15.7 -11.2 13.45 -12.15 L13.05 -12.3 Q10.7 -13.1 7.65 -12.3 6.35 -12.05 5.55 -11.35 L4.55 -10.25 4.3 -9.8 4.1 -9.3 4.05 -9.3 3.6 -10.05 4.05 -9.3 4.1 -9.3 4.3 -9.8 4.55 -10.25 4.6 -5.45 4.6 -5.35 4.6 -3.1 5.1 -3.15 4.9 -2.85 Q4.85 -2.6 5.1 -2.45 L6.65 -2.5 7.3 -2.55 8.15 -2.55 9.2 -2.6 9.45 -2.6 17.9 -3.0 18.1 -3.3 18.0 -2.85 18.1 -3.3 18.15 -3.8 18.2 -4.0 18.15 -4.05 Q19.3 -5.3 20.5 -4.4 20.9 -7.35 18.85 -11.8 L18.2 -13.1 19.2 -11.75 19.75 -10.75 Q21.05 -8.1 21.15 -5.4 L21.05 -4.15 21.0 -4.0 20.85 -2.95 20.85 -2.9 Q20.15 -0.15 18.05 2.45 L17.55 3.0 14.6 5.1 14.55 5.1 12.95 6.05 12.3 6.4 11.5 6.85 10.75 7.3 Q9.95 7.75 9.2 8.3 6.95 9.95 5.3 12.05 L4.2 13.55 2.8 11.25 Q1.2 8.95 -0.75 7.2 L-1.75 6.35 -2.55 5.7 -2.75 5.6 -2.9 5.45 -3.4 5.1 -5.75 2.75 -7.1 0.5 Q-5.4 3.15 -3.25 4.7 L-2.65 5.1 -2.1 5.45 -1.85 5.55 -1.75 5.65 -1.6 5.8 -0.55 6.5 Q1.45 8.05 2.85 10.5 2.8 9.65 3.45 9.55 L3.6 9.8 4.15 10.6 4.2 10.5 4.3 10.35 4.15 -5.1 4.15 -5.95 4.15 -6.6 4.15 -7.5 4.15 -7.95 4.05 -8.35 Q3.9 -8.8 3.55 -8.8 L3.55 -10.0 3.55 -10.05 3.6 -10.05 3.55 -10.15 2.75 -10.8 0.75 -11.1 Q-1.65 -10.95 -3.3 -9.65 -4.9 -8.4 -5.75 -6.0 -6.45 -4.1 -6.35 -2.4 L-6.3 -2.0 -6.3 -1.95 -6.25 -1.6 -6.3 -1.95 -6.15 -1.8 -4.35 -1.9 -3.6 -1.95 -2.7 -2.0 -2.05 -2.05 3.55 -2.35 3.55 -2.05 -6.25 -1.55 -6.25 -1.6 Q-7.1 -2.3 -7.6 -1.1 L-7.7 -1.8 -7.65 -1.9 Q-7.3 -2.65 -6.7 -2.55 -6.85 -6.15 -5.35 -8.45 L-4.65 -9.4 -3.95 -10.1 -3.65 -10.4 -2.8 -10.95 M4.6 9.9 L4.3 10.35 4.6 9.9 4.85 9.6 Q4.65 10.4 5.7 10.95 6.75 9.05 9.2 7.65 L10.75 6.65 11.45 6.3 13.0 5.5 13.05 5.45 13.4 5.3 14.6 4.6 Q19.3 1.7 20.5 -3.3 19.25 -3.9 18.05 -2.8 L18.0 -2.85 7.2 -2.25 4.6 -2.15 4.6 9.9" fill="#e38902" fill-rule="evenodd" stroke="none"/>
      <path d="M-6.35 -2.4 Q-6.45 -4.1 -5.75 -6.0 -4.9 -8.4 -3.3 -9.65 -1.65 -10.95 0.75 -11.1 L2.75 -10.8 3.55 -10.15 3.55 -10.05 3.55 -10.0 Q-4.75 -10.45 -5.1 -2.5 L-6.35 -2.4 M4.55 -10.25 L5.55 -11.35 Q6.35 -12.05 7.65 -12.3 10.7 -13.1 13.05 -12.3 L13.45 -12.15 Q8.9 -12.75 5.45 -10.1 L5.45 -3.15 5.1 -3.15 4.6 -3.1 4.6 -5.35 4.6 -5.45 4.55 -10.25 M4.6 9.9 L4.6 -2.15 7.2 -2.25 18.0 -2.85 18.0 -2.8 17.85 -2.05 5.45 -1.35 Q5.75 3.95 5.5 8.85 L4.95 9.5 4.85 9.6 4.6 9.9" fill="#7d4500" fill-rule="evenodd" stroke="none"/>
      <path d="M17.35 -8.0 Q16.6 -11.7 13.9 -13.1 L13.2 -13.4 13.55 -13.9 14.75 -14.95 15.25 -15.25 15.65 -15.1 16.25 -14.75 16.4 -14.65 18.2 -13.1 18.85 -11.8 Q20.9 -7.35 20.5 -4.4 19.3 -5.3 18.15 -4.05 18.25 -6.05 17.35 -8.0 M12.0 -13.7 L11.15 -13.8 11.05 -13.8 11.0 -14.35 11.0 -14.45 Q11.0 -15.15 11.35 -15.85 L11.75 -15.85 12.7 -15.85 13.05 -15.8 13.35 -15.75 12.3 -14.55 12.05 -14.05 12.0 -13.7 M8.4 -13.55 L7.5 -13.25 5.5 -12.3 Q4.9 -12.4 5.1 -13.2 L5.3 -13.45 Q6.25 -14.6 7.8 -15.1 L8.3 -15.25 8.7 -15.35 Q8.25 -14.55 8.25 -14.05 L8.25 -13.9 Q8.25 -13.65 8.4 -13.55" fill="url(#gradient1)" fill-rule="evenodd" stroke="none"/>
      <path d="M3.25 -12.7 L2.9 -13.05 1.95 -13.55 3.6 -13.15 4.05 -12.85 4.2 -12.7 4.5 -12.35 4.35 -12.05 4.15 -11.55 4.1 -11.4 3.25 -12.7 M17.25 -14.65 L19.4 -12.9 20.3 -11.7 19.2 -11.75 18.2 -13.1 16.4 -14.65 17.25 -14.65" fill="#88661a" fill-rule="evenodd" stroke="none"/>
      <path d="M3.55 -10.05 L3.55 -10.15 3.6 -10.05 3.55 -10.05" fill="#d59604" fill-rule="evenodd" stroke="none"/>
      <path d="M-6.35 -2.4 L-5.1 -2.5 -4.05 -2.55 -4.1 -2.45 -4.3 -2.15 -4.35 -1.9 -6.15 -1.8 -6.3 -1.95 -6.3 -2.0 -6.35 -2.4 M3.55 -8.8 Q3.9 -8.8 4.05 -8.35 L4.15 -7.95 4.15 -7.5 3.9 -7.45 3.55 -7.1 3.55 -8.8 M4.15 -5.1 L4.3 10.35 4.2 10.5 4.15 10.6 3.6 9.8 3.6 4.95 3.55 -0.5 3.55 -2.05 3.55 -2.35 -2.05 -2.05 -1.85 -2.35 -1.6 -2.75 3.55 -3.05 3.55 -4.7 Q3.7 -5.25 4.15 -5.1 M-3.6 -1.95 L-3.6 -2.0 -3.6 -2.1 -3.55 -2.2 -3.3 -2.6 -3.25 -2.6 -2.5 -2.65 -2.6 -2.55 -2.65 -2.3 -2.7 -2.0 -3.6 -1.95" fill="url(#gradient2)" fill-rule="evenodd" stroke="none"/>
      <path d="M-5.1 -2.5 Q-4.75 -10.45 3.55 -10.0 L3.55 -8.8 3.55 -7.1 3.55 -6.15 3.55 -5.35 3.55 -4.7 3.55 -3.05 -1.6 -2.75 -2.5 -2.65 -3.25 -2.6 -4.05 -2.55 -5.1 -2.5 M13.45 -12.15 Q15.7 -11.2 17.05 -8.65 L17.35 -8.0 Q18.25 -6.05 18.15 -4.05 L18.2 -4.0 10.0 -3.45 9.5 -3.45 8.6 -3.35 7.7 -3.3 6.8 -3.25 5.45 -3.15 5.45 -10.1 Q8.9 -12.75 13.45 -12.15 M17.85 -2.05 Q17.15 0.05 15.3 2.1 L13.85 3.1 12.9 3.7 11.55 4.5 10.95 4.8 10.7 4.9 10.65 4.95 10.2 5.2 9.15 5.8 Q7.05 7.15 5.5 8.85 5.75 3.95 5.45 -1.35 L17.85 -2.05" fill="#b06100" fill-rule="evenodd" stroke="none"/>
      <path d="M17.25 -14.65 L16.4 -14.65 16.25 -14.75 15.65 -15.1 15.25 -15.25 14.2 -15.6 15.7 -15.35 16.25 -15.15 17.25 -14.65 M19.2 -11.75 L20.3 -11.7 20.95 -10.6 Q22.25 -7.9 22.35 -5.2 L22.25 -4.1 22.25 -4.0 22.05 -2.75 Q21.4 -0.05 19.4 2.45 L18.05 2.45 Q20.15 -0.15 20.85 -2.9 L20.85 -2.95 21.0 -4.0 21.05 -4.15 21.15 -5.4 Q21.05 -8.1 19.75 -10.75 L19.2 -11.75" fill="#66481b" fill-rule="evenodd" stroke="none"/>
      <path d="M20.85 -2.95 L20.85 -2.9 20.85 -2.95 M18.05 -2.8 L18.0 -2.8 18.0 -2.85 18.05 -2.8" fill="#a3a3a3" fill-rule="evenodd" stroke="none"/>
      <path d="M18.1 -3.3 L17.9 -3.0 9.45 -2.6 9.8 -3.15 9.85 -3.2 10.0 -3.45 18.2 -4.0 18.15 -3.8 18.1 -3.3 M9.2 -2.6 L8.15 -2.55 8.4 -3.05 8.4 -3.1 8.6 -3.35 9.5 -3.45 9.45 -3.15 9.4 -3.05 9.2 -2.6 M6.65 -2.5 L5.1 -2.45 Q4.85 -2.6 4.9 -2.85 L5.1 -3.15 5.45 -3.15 6.8 -3.25 6.7 -2.95 6.65 -2.6 6.65 -2.5" fill="url(#gradient3)" fill-rule="evenodd" stroke="none"/>
      <path d="M18.0 -2.8 L18.05 -2.8 Q19.25 -3.9 20.5 -3.3 19.3 1.7 14.6 4.6 L14.15 4.0 13.85 3.1 15.3 2.1 Q17.15 0.05 17.85 -2.05 L18.0 -2.8 M11.55 4.5 L11.45 4.95 11.4 5.15 11.45 6.3 10.75 6.65 10.55 6.15 10.65 5.2 10.7 5.0 10.65 4.95 10.7 4.9 10.95 4.8 11.55 4.5 M9.15 5.8 L9.1 5.9 8.9 6.8 9.2 7.65 Q6.75 9.05 5.7 10.95 4.65 10.4 4.85 9.6 L4.95 9.5 5.5 8.85 Q7.05 7.15 9.15 5.8" fill="url(#gradient4)" fill-rule="evenodd" stroke="none"/>
      <path d="M19.4 2.45 L18.75 3.2 16.1 5.1 15.0 5.75 Q14.25 6.2 13.45 6.6 L13.25 6.7 11.95 7.45 11.35 7.8 9.75 8.95 Q7.9 10.4 6.5 12.2 L5.6 13.4 4.2 13.55 5.3 12.05 Q6.95 9.95 9.2 8.3 9.95 7.75 10.75 7.3 L11.5 6.85 12.3 6.4 12.95 6.05 14.55 5.1 14.6 5.1 17.55 3.0 18.05 2.45 19.4 2.45" fill="#422e11" fill-rule="evenodd" stroke="none"/>
      <path d="M3.55 -0.5 Q2.95 -1.4 -0.7 -1.4 -4.4 -1.45 -4.9 -0.7 -5.75 -0.1 -4.75 2.0 -5.75 0.55 -6.15 -0.9 L-6.25 -1.55 3.55 -2.05 3.55 -0.5 M1.55 7.2 Q3.15 7.95 3.35 6.55 L3.6 4.95 3.6 9.8 3.45 9.55 3.4 9.5 1.55 7.2" fill="#8a1202" fill-rule="evenodd" stroke="none"/>
      <path d="M-4.75 2.0 Q-5.75 -0.1 -4.9 -0.7 -4.4 -1.45 -0.7 -1.4 2.95 -1.4 3.55 -0.5 L3.6 4.95 3.35 6.55 Q3.15 7.95 1.55 7.2 L-0.4 5.4 -0.7 5.15 -1.75 4.4 -1.9 4.35 -1.9 4.3 -2.6 3.85 -3.0 3.55 -3.05 3.5 -4.65 2.1 -4.7 2.1 -4.75 2.0 M0.5 0.6 Q1.0 0.45 1.0 0.05 1.0 -0.5 0.15 -0.8 L-1.65 -0.9 Q-2.7 -0.8 -3.45 -0.35 -4.3 0.1 -4.3 0.75 L-4.15 1.4 Q-3.9 2.0 -3.25 2.0 -2.65 2.0 -1.95 1.55 L-1.1 0.95 0.5 0.6" fill="#d11c04" fill-rule="evenodd" stroke="none"/>
      <path d="M0.5 0.6 L-1.1 0.95 -1.95 1.55 Q-2.65 2.0 -3.25 2.0 -3.9 2.0 -4.15 1.4 L-4.3 0.75 Q-4.3 0.1 -3.45 -0.35 -2.7 -0.8 -1.65 -0.9 L0.15 -0.8 Q1.0 -0.5 1.0 0.05 1.0 0.45 0.5 0.6" fill="#ff2305" fill-rule="evenodd" stroke="none"/>
      <path d="M-7.1 0.5 L-7.6 -1.1 Q-7.1 -2.3 -6.25 -1.6 L-6.25 -1.55 -6.15 -0.9 Q-5.75 0.55 -4.75 2.0 L-4.7 2.1 -4.65 2.1 -3.05 3.5 -3.0 3.55 -3.25 4.7 Q-5.4 3.15 -7.1 0.5 M-2.6 3.85 L-1.9 4.3 -1.9 4.35 -1.75 4.9 -1.6 5.45 -1.6 5.7 -1.6 5.8 -1.75 5.65 -1.85 5.55 -2.1 5.45 -2.65 5.1 -2.55 4.5 -2.6 3.85 M-0.7 5.15 L-0.4 5.4 1.55 7.2 3.4 9.5 3.45 9.55 Q2.8 9.65 2.85 10.5 1.45 8.05 -0.55 6.5 L-0.55 6.2 -0.65 5.4 -0.7 5.15" fill="url(#gradient5)" fill-rule="evenodd" stroke="none"/>
      <path d="M4.2 13.55 L4.2 13.6 4.2 13.55" fill="#a97a0e" fill-rule="evenodd" stroke="none"/>
      <path d="M-2.0 -13.1 L-3.2 -12.5 M3.25 -12.7 L2.9 -13.05 1.95 -13.55 1.8 -13.55 1.75 -13.55 1.7 -13.6 0.3 -13.6 -2.0 -13.1 M-5.3 -10.65 L-4.4 -11.65 -4.0 -11.95 -3.2 -12.5 M-5.3 -10.65 L-6.05 -9.6 M-7.7 -1.8 L-7.7 -1.9 -7.8 -3.15 -7.55 -5.6 -7.1 -7.15 -6.95 -7.65 -6.05 -9.6 M3.55 -10.15 L2.75 -10.8 0.75 -11.1 Q-1.65 -10.95 -3.3 -9.65 -4.9 -8.4 -5.75 -6.0 -6.45 -4.1 -6.35 -2.4 L-5.1 -2.5 M3.55 -10.15 L3.6 -10.05 4.05 -9.3 4.1 -9.3 4.3 -9.8 4.55 -10.25 5.55 -11.35 Q6.35 -12.05 7.65 -12.3 10.7 -13.1 13.05 -12.3 L13.45 -12.15 Q15.7 -11.2 17.05 -8.65 L17.35 -8.0 Q18.25 -6.05 18.15 -4.05 L18.2 -4.0 10.0 -3.45 M5.1 -13.2 L4.5 -12.35 4.35 -12.05 4.15 -11.55 4.1 -11.4 3.25 -12.7 M11.35 -15.85 L10.75 -15.8 10.6 -15.75 9.85 -15.65 9.6 -15.6 8.7 -15.35 8.3 -15.25 7.8 -15.1 Q6.25 -14.6 5.3 -13.45 L5.1 -13.2 M4.5 -12.35 L4.2 -12.7 4.05 -12.85 3.6 -13.15 1.95 -13.55 M4.3 10.35 L4.6 9.9 4.6 -2.15 7.2 -2.25 18.0 -2.85 18.1 -3.3 M5.1 -3.15 L4.6 -3.1 4.6 -5.35 M4.6 -5.45 L4.55 -10.25 M3.55 -10.0 L3.55 -8.8 3.55 -7.1 3.55 -6.15 3.55 -5.35 3.55 -4.7 M20.3 -11.7 L19.4 -12.9 17.25 -14.65 M16.4 -14.65 L18.2 -13.1 19.2 -11.75 M20.3 -11.7 L20.95 -10.6 Q22.25 -7.9 22.35 -5.2 L22.25 -4.1 22.25 -4.0 22.05 -2.75 Q21.4 -0.05 19.4 2.45 L18.75 3.2 16.1 5.1 15.0 5.75 Q14.25 6.2 13.45 6.6 L13.25 6.7 11.95 7.45 11.35 7.8 9.75 8.95 Q7.9 10.4 6.5 12.2 L5.6 13.4 4.2 13.55 4.2 13.6 4.2 13.55 2.8 11.25 Q1.2 8.95 -0.75 7.2 L-1.75 6.35 -2.55 5.7 -2.75 5.6 -2.9 5.45 -3.4 5.1 -5.75 2.75 -7.1 0.5 -7.6 -1.1 -7.7 -1.8 M13.35 -15.75 L13.05 -15.8 12.7 -15.85 11.75 -15.85 11.35 -15.85 M13.35 -15.75 L14.2 -15.6 15.7 -15.35 16.25 -15.15 17.25 -14.65 M15.25 -15.25 L14.2 -15.6 M16.4 -14.65 L16.25 -14.75 15.65 -15.1 15.25 -15.25 M20.85 -2.95 L21.0 -4.0 21.05 -4.15 21.15 -5.4 Q21.05 -8.1 19.75 -10.75 L19.2 -11.75 M20.85 -2.9 L20.85 -2.95 M20.85 -2.9 Q20.15 -0.15 18.05 2.45 M18.2 -4.0 L18.15 -3.8 18.1 -3.3 M18.05 -2.8 L18.0 -2.85 18.0 -2.8 17.85 -2.05 Q17.15 0.05 15.3 2.1 L13.85 3.1 12.9 3.7 11.55 4.5 10.95 4.8 10.7 4.9 10.65 4.95 10.2 5.2 9.15 5.8 Q7.05 7.15 5.5 8.85 L4.95 9.5 4.85 9.6 4.6 9.9 M20.5 -3.3 Q19.25 -3.9 18.05 -2.8 M4.2 13.55 L5.3 12.05 Q6.95 9.95 9.2 8.3 9.95 7.75 10.75 7.3 L11.5 6.85 12.3 6.4 12.95 6.05 14.55 5.1 14.6 5.1 17.55 3.0 18.05 2.45 M9.5 -3.45 L10.0 -3.45 M8.6 -3.35 L9.5 -3.45 M6.8 -3.25 L7.7 -3.3 8.6 -3.35 M5.1 -3.15 L5.45 -3.15 6.8 -3.25 M-4.75 2.0 L-4.7 2.1 -4.65 2.1 -3.05 3.5 M-3.0 3.55 L-2.6 3.85 -1.9 4.3 M-1.9 4.35 L-1.75 4.4 -0.7 5.15 -0.4 5.4 1.55 7.2 M3.6 4.95 L3.55 -0.5 3.55 -2.05 -6.25 -1.55 -6.15 -0.9 Q-5.75 0.55 -4.75 2.0 M3.4 9.5 L1.55 7.2 M3.6 9.8 L3.45 9.55 M3.6 4.95 L3.6 9.8 4.15 10.6 4.2 10.5 4.3 10.35 M-3.25 -2.6 L-4.05 -2.55 -5.1 -2.5 M-3.25 -2.6 L-2.5 -2.65 -1.6 -2.75 3.55 -3.05 3.55 -4.7 M-6.3 -1.95 L-6.3 -2.0 -6.35 -2.4 M-6.25 -1.6 L-6.3 -1.95 M-6.25 -1.55 L-6.25 -1.6 Q-7.1 -2.3 -7.6 -1.1" fill="none" stroke="#000000" stroke-linecap="round" stroke-linejoin="round" stroke-opacity="0.3019608" stroke-width="0.05"/>
    </g>
    <linearGradient gradientTransform="matrix(0.0, 0.0071, -0.0067, 0.0, -2.25, -7.4)" gradientUnits="userSpaceOnUse" id="gradient0" spreadMethod="pad" x1="-819.2" x2="819.2">
      <stop offset="0.0" stop-color="#ffcf2b"/>
      <stop offset="1.0" stop-color="#f49302"/>
    </linearGradient>
    <linearGradient gradientTransform="matrix(0.0052, 0.0114, -0.0067, 0.003, 14.9, -6.05)" gradientUnits="userSpaceOnUse" id="gradient1" spreadMethod="pad" x1="-819.2" x2="819.2">
      <stop offset="0.0" stop-color="#ffcf2b"/>
      <stop offset="1.0" stop-color="#f49302"/>
    </linearGradient>
    <linearGradient gradientTransform="matrix(0.0, 0.0096, -0.0065, 0.0, -1.0, 0.9)" gradientUnits="userSpaceOnUse" id="gradient2" spreadMethod="pad" x1="-819.2" x2="819.2">
      <stop offset="0.0" stop-color="#ffcf2b"/>
      <stop offset="1.0" stop-color="#f49302"/>
    </linearGradient>
    <linearGradient gradientTransform="matrix(-6.0E-4, 0.0023, -0.0074, -0.002, 10.8, -0.3)" gradientUnits="userSpaceOnUse" id="gradient3" spreadMethod="pad" x1="-819.2" x2="819.2">
      <stop offset="0.0" stop-color="#ffcf2b"/>
      <stop offset="1.0" stop-color="#f49302"/>
    </linearGradient>
    <linearGradient gradientTransform="matrix(-0.001, 0.0066, -0.008, -0.0012, 12.05, 6.45)" gradientUnits="userSpaceOnUse" id="gradient4" spreadMethod="pad" x1="-819.2" x2="819.2">
      <stop offset="0.0" stop-color="#ffcf2b"/>
      <stop offset="1.0" stop-color="#f49302"/>
    </linearGradient>
    <linearGradient gradientTransform="matrix(0.0, 0.0064, -0.0067, 0.0, -2.05, 4.15)" gradientUnits="userSpaceOnUse" id="gradient5" spreadMethod="pad" x1="-819.2" x2="819.2">
      <stop offset="0.0" stop-color="#ffcf2b"/>
      <stop offset="1.0" stop-color="#f49302"/>
    </linearGradient>
  </defs>
</svg>
