<?xml version="1.0" encoding="UTF-8" standalone="no"?>
<svg xmlns:xlink="http://www.w3.org/1999/xlink" height="440.0px" width="440.0px" xmlns="http://www.w3.org/2000/svg">
  <g transform="matrix(10.0, 0.0, 0.0, 10.0, 0.0, 0.0)">
    <use height="44.0" transform="matrix(0.9091, 0.0, 0.0, 0.9091, 2.0, 2.0)" width="44.0" xlink:href="#sprite0"/>
  </g>
  <defs>
    <g id="sprite0" transform="matrix(1.0, 0.0, 0.0, 1.0, 0.0, 0.0)">
      <use height="44.0" transform="matrix(1.0, 0.0, 0.0, 1.0, 0.0, 0.0)" width="44.0" xlink:href="#shape0"/>
      <use height="27.25" transform="matrix(1.3945, 0.0, 0.0, 1.3945, 7.45, 3.0)" width="20.9" xlink:href="#sprite1"/>
    </g>
    <g id="shape0" transform="matrix(1.0, 0.0, 0.0, 1.0, 0.0, 0.0)">
      <path d="M44.0 44.0 L0.0 44.0 0.0 0.0 44.0 0.0 44.0 44.0" fill="#43adca" fill-opacity="0.0" fill-rule="evenodd" stroke="none"/>
    </g>
    <g id="sprite1" transform="matrix(1.0, 0.0, 0.0, 1.0, 0.0, 0.0)">
      <use height="27.25" transform="matrix(1.0, 0.0, 0.0, 1.0, 0.0, 0.0)" width="20.9" xlink:href="#sprite2"/>
    </g>
    <g id="sprite2" transform="matrix(1.0, 0.0, 0.0, 1.0, 7.15, 16.6)">
      <use height="27.25" transform="matrix(1.0, 0.0, 0.0, 1.0, -7.15, -16.6)" width="20.9" xlink:href="#shape1"/>
    </g>
    <g id="shape1" transform="matrix(1.0, 0.0, 0.0, 1.0, 7.15, 16.6)">
      <path d="M12.65 -11.0 L12.6 -10.95 12.6 -10.9 12.8 -10.8 12.0 -10.7 11.8 -10.9 11.75 -10.95 12.65 -11.0 M13.35 -9.9 L13.35 -9.85 13.35 -9.45 13.2 -9.05 13.35 -8.95 12.6 -8.85 12.3 -9.0 12.3 -9.05 12.5 -9.8 12.45 -9.85 13.35 -9.9 M13.7 -8.35 L13.75 -8.2 13.7 -8.05 13.45 -7.7 13.4 -7.7 13.5 -6.95 12.7 -6.9 12.55 -7.65 12.85 -8.25 12.85 -8.4 13.7 -8.35 M13.65 -3.85 Q13.7 -1.0 13.2 2.6 L12.6 5.1 Q11.3 8.3 7.9 9.65 L4.2 10.25 7.05 9.6 Q10.45 8.35 11.7 5.15 12.25 4.0 12.35 2.65 L12.65 -0.15 12.85 -3.65 13.65 -3.85 M13.2 -9.05 L12.3 -9.05 13.2 -9.05 M13.45 -7.7 L12.55 -7.65 13.45 -7.7" fill="#658383" fill-rule="evenodd" stroke="none"/>
      <path d="M12.0 -10.7 L12.8 -10.8 12.85 -10.75 13.25 -10.05 13.35 -9.9 12.45 -9.85 12.5 -9.85 12.4 -10.05 12.0 -10.65 12.0 -10.7 M13.35 -8.95 L13.45 -8.85 13.5 -8.8 13.7 -8.6 13.7 -8.35 12.85 -8.4 12.85 -8.45 12.6 -8.85 13.35 -8.95 M-0.9 9.25 L-0.95 9.2 -0.9 9.25 M-7.0 -1.6 L-6.95 -2.25 -4.95 -1.6 -5.0 -1.3 -4.95 -0.95 -6.45 -1.4 -7.0 -1.6 M5.95 -16.35 L6.55 -16.45 6.35 -15.6 5.4 -11.6 4.9 -11.65 5.75 -15.7 5.95 -16.35 M8.0 -7.45 L12.55 -7.65 12.7 -6.9 8.95 -6.85 9.2 -4.6 9.15 -4.5 Q9.3 -0.25 9.0 2.85 L8.65 4.5 8.25 5.35 Q7.55 7.1 6.6 7.75 4.9 8.9 2.85 8.5 L2.55 6.75 2.85 8.5 Q2.35 9.1 2.0 8.8 1.4 9.1 1.0 8.5 L1.1 6.7 1.0 8.5 Q-0.25 8.15 -2.9 5.85 L-3.8 4.85 -4.2 4.1 Q-5.1 2.25 -4.7 1.1 -4.1 3.4 -2.0 5.45 L-1.95 5.5 -1.35 5.9 -1.25 6.0 1.1 6.7 2.0 6.75 2.0 8.8 2.0 6.75 2.55 6.75 4.35 6.3 4.55 6.25 4.6 6.2 Q4.7 6.1 4.9 6.1 7.55 4.7 8.05 1.55 L8.25 0.3 8.25 -0.15 8.5 -3.8 8.2 -6.6 8.15 -6.7 8.1 -6.9 8.05 -7.1 8.0 -7.25 8.0 -7.45 M0.5 -9.75 L0.65 -11.75 0.9 -10.0 0.5 -9.75" fill="#849f9f" fill-rule="evenodd" stroke="none"/>
      <path d="M11.75 -10.95 L11.8 -10.9 12.0 -10.7 12.0 -10.65 7.7 -8.5 7.65 -8.7 11.15 -10.6 10.6 -12.0 9.2 -14.35 8.35 -15.2 8.0 -15.4 6.35 -15.6 6.55 -16.45 7.6 -16.45 7.65 -16.45 8.15 -16.3 Q9.55 -15.75 10.4 -14.2 L10.6 -14.0 11.5 -11.75 11.75 -10.95 M-6.7 1.55 L-6.9 0.45 -6.9 0.25 -7.0 -1.6 -6.45 -1.4 -6.65 0.15 -6.65 0.5 -6.7 1.55 M-7.05 -2.95 L-6.9 -3.2 -6.75 -3.35 -4.85 -2.35 -4.85 -2.2 -7.05 -2.95 M-6.6 -4.45 L-6.45 -4.6 -6.25 -4.8 -5.45 -6.1 Q-1.8 -11.65 1.5 -14.2 L4.75 -16.05 Q5.4 -16.95 5.95 -16.35 L5.75 -15.7 Q5.35 -15.95 4.65 -15.4 L4.6 -15.0 Q3.7 -14.75 2.65 -13.9 0.55 -12.45 -2.1 -9.25 L-4.9 -5.55 -5.7 -4.25 -4.6 -3.1 -4.65 -2.9 -4.75 -2.75 -4.75 -2.7 -6.6 -4.45 M7.85 -8.0 L12.3 -9.0 12.6 -8.85 12.85 -8.45 11.2 -8.25 7.9 -7.75 7.85 -8.0 M11.8 -10.9 L11.15 -10.6 11.8 -10.9 M4.75 -16.05 L4.65 -15.4 4.75 -16.05 M-6.25 -4.8 L-5.7 -4.25 -6.25 -4.8" fill="#e7edea" fill-rule="evenodd" stroke="none"/>
      <path d="M12.65 -11.0 L11.75 -10.95 11.5 -11.75 10.6 -14.0 10.4 -14.2 Q9.55 -15.75 8.15 -16.3 L7.65 -16.45 8.8 -16.4 9.0 -16.3 Q10.35 -15.75 11.25 -14.25 L11.45 -13.95 12.45 -11.55 12.65 -11.0 M13.5 -6.95 L13.55 -6.85 13.65 -3.85 12.85 -3.65 12.8 -5.4 12.7 -6.9 13.5 -6.95" fill="#81a8a8" fill-rule="evenodd" stroke="none"/>
      <path d="M4.2 10.25 L3.9 10.3 3.05 10.25 Q2.55 11.05 1.95 10.15 1.3 10.65 0.8 9.85 L-0.9 9.25 -0.95 9.2 -1.0 9.15 -2.05 8.7 -3.2 7.75 -3.95 6.9 -4.0 6.85 Q-6.05 4.4 -6.7 1.55 L-6.65 0.5 -6.65 0.15 -6.45 -1.4 -4.95 -0.95 -4.85 0.15 -4.7 1.1 Q-5.1 2.25 -4.2 4.1 L-3.8 4.85 -2.9 5.85 Q-0.25 8.15 1.0 8.5 1.4 9.1 2.0 8.8 2.35 9.1 2.85 8.5 4.9 8.9 6.6 7.75 7.55 7.1 8.25 5.35 L8.65 4.5 9.0 2.85 Q9.3 -0.25 9.15 -4.5 L9.2 -4.6 8.95 -6.85 12.7 -6.9 12.8 -5.4 12.85 -3.65 12.65 -0.15 12.35 2.65 Q12.25 4.0 11.7 5.15 10.45 8.35 7.05 9.6 L4.2 10.25 M-6.95 -2.25 L-7.15 -2.8 -7.05 -2.95 -4.85 -2.2 -4.9 -2.0 -4.9 -1.9 -4.95 -1.6 -6.95 -2.25 M-6.75 -3.35 L-6.8 -4.1 -6.6 -4.45 -4.75 -2.7 -4.85 -2.35 -6.75 -3.35 M12.5 -9.85 L12.45 -9.85 12.5 -9.8 12.3 -9.05 12.3 -9.0 7.85 -8.0 7.7 -8.5 12.0 -10.65 12.4 -10.05 12.5 -9.85 M12.85 -8.4 L12.85 -8.25 12.55 -7.65 8.0 -7.45 7.9 -7.75 11.2 -8.25 12.85 -8.45 12.85 -8.4 M0.5 -9.75 L0.45 -9.6 Q-1.5 -8.0 -3.65 -4.8 L-3.85 -4.55 -4.1 -4.1 -4.6 -3.1 -5.7 -4.25 -4.9 -5.55 -2.1 -9.25 Q0.55 -12.45 2.65 -13.9 3.7 -14.75 4.6 -15.0 L4.15 -11.6 4.6 -15.0 4.65 -15.4 Q5.35 -15.95 5.75 -15.7 L4.9 -11.65 4.15 -11.6 Q2.6 -11.4 0.95 -10.05 L0.9 -10.0 0.65 -11.75 0.5 -9.75 M7.3 -9.55 L7.2 -9.85 Q6.55 -11.15 5.45 -11.6 L5.4 -11.6 6.35 -15.6 8.0 -15.4 8.35 -15.2 9.2 -14.35 10.6 -12.0 11.15 -10.6 7.65 -8.7 7.3 -9.55 M9.95 -3.7 L10.0 -3.7 9.95 -3.7 M0.8 9.85 L1.0 8.5 0.8 9.85 M3.05 10.25 L2.85 8.5 3.05 10.25 M1.95 10.15 L2.0 8.8 1.95 10.15" fill="#cfdada" fill-rule="evenodd" stroke="none"/>
      <path d="M6.35 -9.7 L5.85 -10.5 5.7 -10.6 4.45 -11.05 3.5 -11.1 2.8 -10.95 1.5 -10.1 1.45 -10.1 0.65 -9.45 -0.65 -8.05 -1.8 -6.45 -2.2 -5.95 -2.8 -5.0 -3.25 -4.4 -3.65 -4.8 Q-1.5 -8.0 0.45 -9.6 L0.5 -9.75 0.9 -10.0 0.95 -10.05 Q2.6 -11.4 4.15 -11.6 L4.9 -11.65 5.4 -11.6 5.45 -11.6 Q6.55 -11.15 7.2 -9.85 L7.3 -9.55 7.55 -6.9 7.55 -5.6 6.9 -5.7 6.9 -5.8 6.95 -5.95 6.85 -7.4 6.7 -8.55 6.65 -8.85 6.35 -9.7" fill="#7ccaff" fill-rule="evenodd" stroke="none"/>
      <path d="M6.35 -9.7 L6.35 -9.6 Q5.75 -8.55 4.3 -7.9 L2.5 -7.3 Q0.15 -7.1 -0.45 -7.75 L-0.6 -7.95 -0.65 -8.05 0.65 -9.45 1.45 -10.1 1.5 -10.1 Q1.65 -9.95 1.8 -9.95 L2.9 -9.8 4.2 -9.85 Q5.2 -10.0 5.65 -10.45 L5.7 -10.6 5.85 -10.5 6.35 -9.7" fill="#e0f1ff" fill-rule="evenodd" stroke="none"/>
      <path d="M-0.65 -8.05 L-0.6 -7.95 -0.45 -7.75 Q0.15 -7.1 2.5 -7.3 L4.3 -7.9 Q5.75 -8.55 6.35 -9.6 L6.35 -9.7 6.65 -8.85 6.65 -8.8 Q6.05 -6.7 4.25 -5.5 L3.65 -5.1 2.9 -4.8 2.35 -4.65 Q-0.85 -4.3 -1.6 -5.7 L-1.75 -6.05 -1.8 -6.45 -0.65 -8.05" fill="#c9e8ff" fill-rule="evenodd" stroke="none"/>
      <path d="M-1.8 -6.45 L-1.75 -6.05 -1.6 -5.7 Q-0.85 -4.3 2.35 -4.65 L2.9 -4.8 3.65 -5.1 4.25 -5.5 Q6.05 -6.7 6.65 -8.8 L6.65 -8.85 6.7 -8.55 6.85 -7.4 Q5.75 -4.65 3.75 -3.4 L2.1 -2.65 -0.05 -2.3 -0.9 -2.35 Q-2.6 -3.05 -2.8 -4.45 L-2.85 -4.5 -2.8 -5.0 -2.2 -5.95 -1.8 -6.45" fill="#b5e0ff" fill-rule="evenodd" stroke="none"/>
      <path d="M5.7 -10.6 L5.65 -10.45 Q5.2 -10.0 4.2 -9.85 L2.9 -9.8 1.8 -9.95 Q1.65 -9.95 1.5 -10.1 L2.8 -10.95 3.5 -11.1 4.45 -11.05 5.7 -10.6" fill="#ffffff" fill-rule="evenodd" stroke="none"/>
      <path d="M7.7 -8.5 L7.85 -8.0 7.9 -7.75 8.0 -7.45 8.0 -7.25 8.05 -7.1 8.1 -6.9 8.15 -6.7 8.2 -6.6 8.5 -3.8 8.25 -0.15 8.25 0.3 8.05 1.55 Q7.55 4.7 4.9 6.1 4.7 6.1 4.6 6.2 L4.55 6.25 4.35 6.3 2.55 6.75 2.0 6.75 1.1 6.7 -1.25 6.0 -1.35 5.9 -1.95 5.5 -2.0 5.45 Q-4.1 3.4 -4.7 1.1 L-4.85 0.15 -4.95 -0.95 -5.0 -1.3 -4.95 -1.6 -4.9 -1.9 -3.45 -0.25 Q-2.45 0.6 0.05 1.4 2.55 2.2 4.55 0.6 6.5 -1.05 7.1 -3.2 L7.55 -5.6 7.55 -6.9 7.3 -9.55 7.65 -8.7 7.7 -8.5 M7.55 0.9 L7.6 -0.15 7.55 -0.35 7.5 -2.5 6.25 -0.5 4.35 1.85 2.7 2.3 -0.5 1.9 Q-2.2 1.45 -3.5 0.7 L-4.5 0.05 -4.1 1.35 -4.05 1.55 -3.8 2.2 -3.5 3.05 -3.45 3.2 -1.75 4.95 Q1.7 7.0 4.55 5.75 6.7 4.8 7.25 3.05 L7.5 1.75 7.55 0.9" fill="#0293bd" fill-rule="evenodd" stroke="none"/>
      <path d="M6.85 -7.4 L6.95 -5.95 6.9 -5.8 6.9 -5.7 6.85 -5.0 6.8 -4.6 6.75 -4.5 Q6.5 -3.8 5.25 -2.3 L5.15 -2.25 3.8 -1.0 Q3.1 -0.5 2.55 -0.45 0.45 -0.25 -1.65 -0.95 -3.7 -1.55 -3.9 -2.75 L-3.75 -3.65 -3.25 -4.4 -2.8 -5.0 -2.85 -4.5 -2.8 -4.45 Q-2.6 -3.05 -0.9 -2.35 L-0.05 -2.3 2.1 -2.65 3.75 -3.4 Q5.75 -4.65 6.85 -7.4" fill="#a6d9ff" fill-rule="evenodd" stroke="none"/>
      <path d="M-4.6 -3.1 L-4.1 -4.1 -3.85 -4.55 -3.65 -4.8 -3.25 -4.4 -3.75 -3.65 -3.9 -2.75 Q-3.7 -1.55 -1.65 -0.95 0.45 -0.25 2.55 -0.45 3.1 -0.5 3.8 -1.0 L5.15 -2.25 5.25 -2.3 Q6.5 -3.8 6.75 -4.5 L6.8 -4.6 6.85 -5.0 6.9 -5.7 7.55 -5.6 7.1 -3.2 Q6.5 -1.05 4.55 0.6 2.55 2.2 0.05 1.4 -2.45 0.6 -3.45 -0.25 L-4.9 -1.9 -4.9 -2.0 -4.85 -2.2 -4.85 -2.35 -4.75 -2.7 -4.75 -2.75 -4.65 -2.9 -4.6 -3.1" fill="#61d4fc" fill-rule="evenodd" stroke="none"/>
      <path d="M9.95 -3.7 L10.0 -3.7 9.95 -3.7" fill="#12ccf3" fill-rule="evenodd" stroke="none"/>
      <path d="M-4.05 1.55 L-4.1 1.35 -4.5 0.05 -3.5 0.7 Q-2.2 1.45 -0.5 1.9 L2.7 2.3 4.35 1.85 6.25 -0.5 7.5 -2.5 7.55 -0.35 7.6 -0.15 Q5.55 4.4 0.75 3.55 -0.95 3.2 -2.8 2.25 L-4.05 1.55" fill="#029ad1" fill-rule="evenodd" stroke="none"/>
      <path d="M7.6 -0.15 L7.55 0.9 Q5.15 6.1 0.55 4.8 -1.05 4.35 -2.7 3.1 L-3.8 2.2 -4.05 1.55 -2.8 2.25 Q-0.95 3.2 0.75 3.55 5.55 4.4 7.6 -0.15" fill="#02a6e0" fill-rule="evenodd" stroke="none"/>
      <path d="M7.55 0.9 L7.5 1.75 Q4.8 6.9 0.35 5.5 -1.15 5.05 -2.65 3.85 L-3.45 3.2 -3.5 3.05 -3.8 2.2 -2.7 3.1 Q-1.05 4.35 0.55 4.8 5.15 6.1 7.55 0.9" fill="#02aeeb" fill-rule="evenodd" stroke="none"/>
      <path d="M7.5 1.75 L7.25 3.05 Q6.7 4.8 4.55 5.75 1.7 7.0 -1.75 4.95 L-3.45 3.2 -2.65 3.85 Q-1.15 5.05 0.35 5.5 4.8 6.9 7.5 1.75" fill="#02b9fa" fill-rule="evenodd" stroke="none"/>
      <path d="M12.8 -10.8 L12.6 -10.9 12.6 -10.95 12.65 -11.0 11.75 -10.95 11.8 -10.9 12.0 -10.7 M12.8 -10.8 L12.85 -10.75 13.25 -10.05 13.35 -9.9 13.35 -9.85 13.35 -9.45 13.2 -9.05 13.35 -8.95 13.45 -8.85 13.5 -8.8 13.7 -8.6 13.7 -8.35 13.75 -8.2 13.7 -8.05 13.45 -7.7 13.4 -7.7 13.5 -6.95 13.55 -6.85 13.65 -3.85 Q13.7 -1.0 13.2 2.6 L12.6 5.1 Q11.3 8.3 7.9 9.65 L4.2 10.25 3.9 10.3 3.05 10.25 Q2.55 11.05 1.95 10.15 1.3 10.65 0.8 9.85 L-0.9 9.25 -0.95 9.2 -1.0 9.15 -2.05 8.7 -3.2 7.75 -3.95 6.9 -4.0 6.85 Q-6.05 4.4 -6.7 1.55 L-6.9 0.45 -6.9 0.25 -7.0 -1.6 -6.95 -2.25 -7.15 -2.8 -7.05 -2.95 -6.9 -3.2 -6.75 -3.35 -6.8 -4.1 -6.6 -4.45 -6.45 -4.6 -6.25 -4.8 -5.45 -6.1 Q-1.8 -11.65 1.5 -14.2 L4.75 -16.05 Q5.4 -16.95 5.95 -16.35 L6.55 -16.45 7.6 -16.45 7.65 -16.45 8.8 -16.4 9.0 -16.3 Q10.35 -15.75 11.25 -14.25 L11.45 -13.95 12.45 -11.55 12.65 -11.0 M12.0 -10.65 L12.0 -10.7 M7.65 -16.45 L8.15 -16.3 Q9.55 -15.75 10.4 -14.2 L10.6 -14.0 11.5 -11.75 11.75 -10.95 M12.5 -9.85 L12.4 -10.05 12.0 -10.65 M7.7 -8.5 L7.85 -8.0 12.3 -9.0 12.3 -9.05 12.5 -9.8 12.45 -9.85 M12.6 -8.85 L12.3 -9.0 M12.3 -9.05 L13.2 -9.05 M12.55 -7.65 L12.85 -8.25 12.85 -8.4 12.85 -8.45 M7.9 -7.75 L8.0 -7.45 12.55 -7.65 13.45 -7.7 M12.7 -6.9 L12.55 -7.65 M12.7 -6.9 L12.8 -5.4 12.85 -3.65 12.65 -0.15 12.35 2.65 Q12.25 4.0 11.7 5.15 10.45 8.35 7.05 9.6 L4.2 10.25 M12.6 -8.85 L12.85 -8.45 M0.65 -11.75 L0.9 -10.0 M0.95 -10.05 Q2.6 -11.4 4.15 -11.6 L4.6 -15.0 M-5.7 -4.25 L-4.6 -3.1 -4.1 -4.1 -3.85 -4.55 -3.65 -4.8 Q-1.5 -8.0 0.45 -9.6 M0.5 -9.75 L0.9 -10.0 M7.3 -9.55 L7.2 -9.85 Q6.55 -11.15 5.45 -11.6 L5.4 -11.6 4.9 -11.65 4.15 -11.6 M11.15 -10.6 L11.8 -10.9 M4.65 -15.4 L4.6 -15.0 M4.9 -11.65 L5.75 -15.7 5.95 -16.35 M4.65 -15.4 L4.75 -16.05 M7.65 -8.7 L7.7 -8.5 M7.3 -9.55 L7.65 -8.7 11.15 -10.6 M8.0 -7.45 L8.0 -7.25 M8.05 -7.1 L8.1 -6.9 8.15 -6.7 8.2 -6.6 8.5 -3.8 8.25 -0.15 8.25 0.3 8.05 1.55 Q7.55 4.7 4.9 6.1 4.7 6.1 4.6 6.2 L4.55 6.25 4.35 6.3 2.55 6.75 2.85 8.5 3.05 10.25 M7.85 -8.0 L7.9 -7.75 M2.0 6.75 L1.1 6.7 1.0 8.5 0.8 9.85 M2.0 8.8 L2.0 6.75 2.55 6.75 M-4.75 -2.75 L-4.65 -2.9 -4.6 -3.1 M-4.9 -1.9 L-4.9 -2.0 -4.85 -2.2 -4.85 -2.35 -6.75 -3.35 M-4.85 -2.35 L-4.75 -2.7 M-4.95 -0.95 L-5.0 -1.3 -4.95 -1.6 -6.95 -2.25 M-4.7 1.1 L-4.85 0.15 -4.95 -0.95 M-4.95 -1.6 L-4.9 -1.9 M-5.7 -4.25 L-6.25 -4.8 M1.1 6.7 L-1.25 6.0 -1.35 5.9 -1.95 5.5 -2.0 5.45 Q-4.1 3.4 -4.7 1.1 M2.0 8.8 L1.95 10.15" fill="none" stroke="#000000" stroke-linecap="round" stroke-linejoin="round" stroke-opacity="0.3019608" stroke-width="0.05"/>
      <path d="M6.25 -7.75 Q6.0 -7.25 5.6 -7.2 5.15 -7.15 4.8 -7.55 4.45 -7.95 4.35 -8.5 L4.5 -9.5 Q4.75 -9.9 5.2 -9.95 L5.95 -9.7 Q6.35 -9.3 6.4 -8.75 6.5 -8.2 6.25 -7.75" fill="#ffffff" fill-rule="evenodd" stroke="none"/>
      <path d="M5.35 -6.25 Q5.2 -5.9 4.9 -5.9 4.6 -5.85 4.35 -6.1 L4.05 -6.85 4.15 -7.55 4.6 -7.95 5.15 -7.7 5.45 -7.0 5.35 -6.25" fill="#ffffff" fill-rule="evenodd" stroke="none"/>
      <path d="M6.55 -5.4 L6.25 -5.2 Q6.05 -5.15 5.95 -5.35 L5.75 -5.85 5.8 -6.4 6.1 -6.65 6.4 -6.45 6.6 -6.0 6.55 -5.4" fill="#ffffff" fill-rule="evenodd" stroke="none"/>
      <path d="M-0.95 -9.55 L-0.9 -9.5 -0.75 -9.4 -0.7 -9.35 -0.7 -9.3 -0.65 -9.2 -0.6 -9.2 -0.6 -9.15 -0.55 -9.1 -0.5 -9.05 -0.3 -8.6 -0.2 -7.95 -0.15 -7.85 -0.15 -7.6 Q-0.1 -6.95 -0.8 -6.55 L-0.85 -6.45 -0.9 -6.45 -0.9 -6.4 -1.4 -6.2 -1.55 -6.2 -1.75 -6.1 -2.45 -6.05 -2.5 -6.05 -2.65 -6.1 -2.7 -6.1 Q-3.3 -6.25 -3.6 -6.6 L-3.7 -6.8 -3.8 -7.0 -3.8 -7.05 -3.75 -7.1 -3.8 -7.15 -3.8 -7.2 -3.8 -7.3 -3.8 -7.35 -3.7 -7.6 -3.65 -7.7 -3.6 -7.75 -2.75 -8.95 -2.7 -9.0 -2.65 -9.1 -2.6 -9.1 -1.8 -9.65 -1.65 -9.65 -1.5 -9.75 -0.95 -9.55" fill="#849f9f" fill-rule="evenodd" stroke="none"/>
      <path d="M11.55 -2.95 L11.6 -2.9 11.75 -2.8 11.8 -2.75 11.8 -2.7 11.85 -2.6 11.9 -2.6 11.9 -2.55 11.95 -2.5 12.0 -2.45 12.2 -2.0 12.3 -1.35 12.35 -1.25 12.35 -1.0 Q12.4 -0.35 11.7 0.05 L11.65 0.15 11.6 0.15 11.6 0.2 11.1 0.4 10.95 0.4 10.75 0.5 10.05 0.55 10.0 0.55 9.85 0.5 9.8 0.5 Q9.2 0.35 8.9 0.0 L8.8 -0.2 8.7 -0.4 8.7 -0.45 8.75 -0.5 8.7 -0.55 8.7 -0.6 8.7 -0.7 8.7 -0.75 8.8 -1.0 8.85 -1.1 8.9 -1.15 9.75 -2.35 9.8 -2.4 9.85 -2.5 9.9 -2.5 10.7 -3.05 10.85 -3.05 11.0 -3.15 11.55 -2.95" fill="#849f9f" fill-rule="evenodd" stroke="none"/>
      <path d="M-0.8 4.65 L-0.75 4.7 -0.65 4.85 -0.6 4.9 -0.6 4.95 -0.6 5.0 -0.55 5.0 -0.55 5.05 -0.5 5.1 -0.5 5.15 -0.3 5.6 -0.25 6.25 -0.2 6.35 -0.25 6.6 Q-0.2 7.25 -0.8 7.65 L-0.85 7.75 -0.9 7.8 -1.25 8.0 -1.35 8.05 -1.55 8.1 -2.1 8.2 -2.15 8.2 -2.3 8.2 -3.05 7.65 -3.1 7.5 -3.15 7.3 -3.15 7.25 -3.15 7.2 -3.15 7.15 -3.15 7.1 -3.15 7.0 -3.15 6.95 -3.05 6.7 -3.0 6.6 -3.0 6.55 -2.25 5.35 -2.25 5.3 -2.2 5.2 -2.15 5.2 -1.5 4.6 -1.4 4.6 -1.25 4.5 -0.8 4.65" fill="#849f9f" fill-rule="evenodd" stroke="none"/>
      <path d="M-2.85 7.25 L-3.1 7.05 -3.15 6.9 -3.15 6.85 -3.2 6.65 -3.25 6.4 -3.4 6.1 -3.4 6.05 -3.35 5.95 -3.3 5.95 -3.05 6.3 -2.95 6.65 -2.85 7.25" fill="#e0f1ff" fill-rule="evenodd" stroke="none"/>
      <path d="M-2.7 7.4 L-2.85 7.25 -2.95 6.65 -3.05 6.3 -3.3 5.95 -3.35 5.95 -3.25 5.85 -2.85 6.2 -2.8 6.3 -2.7 6.45 -2.65 6.55 Q-2.5 7.15 -2.65 7.35 L-2.65 7.4 -2.7 7.4" fill="#c9e8ff" fill-rule="evenodd" stroke="none"/>
      <path d="M-2.45 7.75 L-3.1 7.1 -3.15 7.05 -3.15 7.0 -3.45 6.4 -3.45 6.3 -3.45 6.2 -3.4 5.8 -3.4 5.75 -3.1 5.65 -3.0 5.55 -3.0 5.7 -3.15 5.8 -3.2 5.85 -3.25 5.85 -3.35 5.95 -3.4 6.05 -3.4 6.1 -3.4 6.35 -3.35 6.55 -3.3 6.7 -3.15 6.9 -3.1 7.05 -2.85 7.25 -2.7 7.4 -2.6 7.5 -2.5 7.6 -2.4 7.65 -2.45 7.75" fill="#7ccaff" fill-rule="evenodd" stroke="none"/>
      <path d="M-2.5 7.6 L-2.6 7.5 -2.7 7.4 -2.65 7.4 -2.65 7.35 Q-2.5 7.15 -2.65 6.55 L-2.7 6.45 -2.8 6.3 -2.85 6.2 -3.25 5.85 -3.2 5.85 -3.15 5.8 Q-2.8 5.9 -2.6 6.25 L-2.45 6.55 -2.35 6.9 -2.3 7.1 Q-2.3 7.5 -2.45 7.55 L-2.5 7.6" fill="#b5e0ff" fill-rule="evenodd" stroke="none"/>
      <path d="M-3.15 6.9 L-3.3 6.7 -3.35 6.55 -3.4 6.35 -3.4 6.1 -3.25 6.4 -3.2 6.65 -3.15 6.85 -3.15 6.9" fill="#ffffff" fill-rule="evenodd" stroke="none"/>
      <path d="M-3.0 5.55 L-3.1 5.65 -3.4 5.75 -3.3 5.7 -3.3 5.65 -3.25 5.6 -3.2 5.6 -3.2 5.55 -3.15 5.55 -3.1 5.55 -3.1 5.5 -2.85 5.35 -2.5 5.25 -2.45 5.25 -2.35 5.25 Q-2.0 5.2 -1.75 5.7 L-1.7 5.75 -1.7 5.8 -1.6 6.1 -1.55 6.25 -1.5 6.4 -1.5 6.9 -1.5 7.05 -1.85 7.75 -1.9 7.8 -2.0 7.85 -2.05 7.85 -2.1 7.85 -2.0 7.55 -2.0 6.8 -2.3 5.95 Q-2.5 5.6 -2.75 5.6 L-3.0 5.55 M-2.4 5.35 L-2.45 5.35 -2.65 5.5 -2.45 5.65 -2.15 5.95 -2.05 6.25 -1.95 6.9 -1.9 7.5 -1.95 7.75 -1.85 7.6 -1.8 7.6 -1.75 7.55 -1.7 7.4 -1.65 7.4 -1.55 7.0 -1.75 5.75 -2.15 5.35 -2.3 5.35 -2.4 5.35" fill="#0293bd" fill-rule="evenodd" stroke="none"/>
      <path d="M-2.4 7.65 L-2.5 7.6 -2.45 7.55 Q-2.3 7.5 -2.3 7.1 L-2.35 6.9 -2.45 6.55 -2.6 6.25 Q-2.8 5.9 -3.15 5.8 L-3.0 5.7 -2.9 5.7 -2.85 5.7 -2.6 5.95 -2.55 5.95 -2.35 6.15 -2.3 6.35 Q-2.15 6.75 -2.15 7.2 L-2.25 7.7 -2.35 7.7 -2.4 7.65" fill="#a6d9ff" fill-rule="evenodd" stroke="none"/>
      <path d="M-2.45 7.75 L-2.4 7.65 -2.35 7.7 -2.25 7.7 -2.15 7.2 Q-2.15 6.75 -2.3 6.35 L-2.35 6.15 -2.55 5.95 -2.6 5.95 -2.85 5.7 -2.9 5.7 -3.0 5.7 -3.0 5.55 -2.75 5.6 Q-2.5 5.6 -2.3 5.95 L-2.0 6.8 -2.0 7.55 -2.1 7.85 -2.15 7.85 -2.2 7.85 -2.25 7.9 -2.35 7.8 -2.45 7.75" fill="#61d4fc" fill-rule="evenodd" stroke="none"/>
      <path d="M-2.4 5.35 L-2.3 5.35 Q-1.65 5.65 -1.65 6.6 L-1.65 7.2 -1.65 7.4 -1.7 7.4 -1.75 7.55 -1.75 7.25 -1.7 6.55 Q-1.8 5.65 -2.4 5.35" fill="#02aeeb" fill-rule="evenodd" stroke="none"/>
      <path d="M-2.45 5.35 L-2.4 5.35 Q-1.8 5.65 -1.7 6.55 L-1.75 7.25 -1.75 7.55 -1.8 7.6 -1.8 7.35 -1.85 6.55 Q-1.95 5.6 -2.45 5.35" fill="#02a6e0" fill-rule="evenodd" stroke="none"/>
      <path d="M-1.8 7.6 L-1.85 7.6 -1.95 7.75 -1.9 7.5 -1.95 6.9 -2.05 6.25 -2.15 5.95 -2.45 5.65 -2.65 5.5 -2.45 5.35 Q-1.95 5.6 -1.85 6.55 L-1.8 7.35 -1.8 7.6" fill="#029ad1" fill-rule="evenodd" stroke="none"/>
      <path d="M-2.3 5.35 L-2.15 5.35 -1.75 5.75 -1.55 7.0 -1.65 7.4 -1.65 7.2 -1.65 6.6 Q-1.65 5.65 -2.3 5.35" fill="#02b9fa" fill-rule="evenodd" stroke="none"/>
      <path d="M-3.2 5.85 L-3.1 5.95 -3.1 6.15 -3.2 6.25 -3.25 6.25 -3.35 6.15 -3.35 5.95 -3.3 5.85 -3.2 5.85" fill="#ffffff" fill-rule="evenodd" stroke="none"/>
      <path d="M-3.0 6.0 L-3.0 6.1 -2.95 6.2 -3.0 6.25 -3.1 6.3 -3.15 6.2 -3.15 6.1 -3.05 6.0 -3.0 6.0" fill="#ffffff" fill-rule="evenodd" stroke="none"/>
      <path d="M-3.0 5.8 L-2.95 5.8 -2.95 5.9 -3.0 5.95 -3.05 5.95 -3.1 5.9 -3.1 5.85 -3.05 5.75 -3.0 5.8" fill="#ffffff" fill-rule="evenodd" stroke="none"/>
      <path d="M-0.35 -10.25 L-0.35 -10.2 -1.0 -9.95 -1.45 -9.85 -2.2 -10.05 -2.25 -10.1 -2.25 -10.15 -1.85 -10.35 -1.6 -10.5 -1.55 -10.45 -1.25 -10.4 -0.95 -10.35 -0.5 -10.45 -0.45 -10.45 -0.35 -10.25" fill="#e0f1ff" fill-rule="evenodd" stroke="none"/>
      <path d="M-2.25 -10.15 L-2.25 -10.1 -2.2 -10.05 -1.45 -9.85 -1.0 -9.95 -0.35 -10.2 -0.35 -10.25 -0.35 -10.05 Q-0.6 -9.6 -1.15 -9.4 L-1.25 -9.35 -1.5 -9.3 -1.65 -9.25 Q-2.5 -9.25 -2.6 -9.6 L-2.6 -9.7 -2.6 -9.8 -2.25 -10.15" fill="#c9e8ff" fill-rule="evenodd" stroke="none"/>
      <path d="M-0.35 -10.25 L-0.45 -10.45 -0.5 -10.45 -0.85 -10.65 -1.05 -10.65 -1.2 -10.65 -1.6 -10.5 -1.85 -10.35 -2.25 -10.15 -2.6 -9.8 -2.75 -9.7 -2.95 -9.5 -3.1 -9.35 -3.15 -9.5 -1.9 -10.45 -1.75 -10.5 -0.85 -10.75 -0.7 -10.75 -0.5 -10.75 -0.15 -10.25 -0.15 -10.2 -0.25 -9.55 -0.3 -9.3 -0.45 -9.35 -0.4 -9.35 -0.4 -9.4 -0.35 -9.7 -0.35 -10.0 -0.35 -10.05 -0.35 -10.25" fill="#7ccaff" fill-rule="evenodd" stroke="none"/>
      <path d="M-2.6 -9.8 L-2.6 -9.7 -2.6 -9.6 Q-2.5 -9.25 -1.65 -9.25 L-1.5 -9.3 -1.25 -9.35 -1.15 -9.4 Q-0.6 -9.6 -0.35 -10.05 L-0.35 -10.0 -0.35 -9.7 Q-0.8 -9.15 -1.35 -8.95 L-1.85 -8.8 -2.4 -8.8 -2.6 -8.85 Q-3.0 -9.05 -3.0 -9.4 L-2.95 -9.5 -2.75 -9.7 -2.6 -9.8" fill="#b5e0ff" fill-rule="evenodd" stroke="none"/>
      <path d="M-0.5 -10.45 L-0.95 -10.35 -1.25 -10.4 -1.55 -10.45 -1.6 -10.5 -1.2 -10.65 -1.05 -10.65 -0.85 -10.65 -0.5 -10.45" fill="#ffffff" fill-rule="evenodd" stroke="none"/>
      <path d="M-0.15 -10.2 L-0.1 -10.0 -0.1 -9.95 -0.1 -9.8 -0.05 -9.75 -0.1 -9.7 -0.1 -9.65 -0.05 -9.6 -0.1 -9.55 -0.05 -9.55 -0.1 -8.9 -0.35 -8.1 -0.4 -7.95 -0.5 -7.65 Q-0.75 -7.0 -1.5 -6.8 L-1.55 -6.75 -1.6 -6.75 -1.65 -6.75 -2.1 -6.7 -2.3 -6.7 -2.5 -6.75 -3.05 -7.0 -3.1 -7.0 -3.2 -7.15 Q-3.7 -7.65 -3.7 -8.2 L-3.7 -8.45 -3.7 -8.7 -3.65 -8.75 -3.65 -8.8 -3.6 -8.9 -3.35 -8.45 Q-3.15 -8.2 -2.5 -7.95 L-1.35 -8.0 -0.5 -8.75 -0.3 -9.3 -0.25 -9.55 -0.15 -10.2 M-0.5 -8.05 L-0.5 -8.1 -0.45 -8.6 -0.85 -8.2 -1.45 -7.75 -1.85 -7.7 -2.65 -7.9 -3.4 -8.25 -3.6 -8.45 -3.55 -8.1 -3.6 -8.05 -3.55 -7.95 -3.5 -7.7 -3.15 -7.25 Q-2.35 -6.65 -1.55 -6.85 -0.95 -7.0 -0.8 -7.35 L-0.6 -7.65 -0.6 -7.85 -0.5 -8.05" fill="#0293bd" fill-rule="evenodd" stroke="none"/>
      <path d="M-3.1 -9.35 L-2.95 -9.5 -3.0 -9.4 Q-3.0 -9.05 -2.6 -8.85 L-2.4 -8.8 -1.85 -8.8 -1.35 -8.95 Q-0.8 -9.15 -0.35 -9.7 L-0.4 -9.4 -0.4 -9.35 -0.45 -9.35 -0.5 -9.2 -0.5 -9.1 -0.55 -9.1 -1.0 -8.65 -1.05 -8.65 Q-1.25 -8.45 -1.45 -8.4 L-1.8 -8.35 -2.85 -8.55 -3.35 -9.05 -3.25 -9.25 -3.1 -9.35" fill="#a6d9ff" fill-rule="evenodd" stroke="none"/>
      <path d="M-3.15 -9.5 L-3.1 -9.35 -3.25 -9.25 -3.35 -9.05 -2.85 -8.55 -1.8 -8.35 -1.45 -8.4 Q-1.25 -8.45 -1.05 -8.65 L-1.0 -8.65 -0.55 -9.1 -0.5 -9.1 -0.5 -9.2 -0.45 -9.35 -0.3 -9.3 -0.5 -8.75 -1.35 -8.0 -2.5 -7.95 Q-3.15 -8.2 -3.35 -8.45 L-3.6 -8.9 -3.6 -8.95 -3.55 -9.0 -3.55 -9.05 -3.55 -9.1 -3.5 -9.15 -3.3 -9.35 -3.25 -9.45 -3.15 -9.5" fill="#61d4fc" fill-rule="evenodd" stroke="none"/>
      <path d="M-0.6 -7.85 L-0.6 -7.65 Q-1.55 -6.6 -2.65 -7.05 L-3.3 -7.5 -3.5 -7.7 -3.55 -7.95 -3.3 -7.7 -2.55 -7.2 Q-1.45 -6.75 -0.6 -7.85" fill="#02aeeb" fill-rule="evenodd" stroke="none"/>
      <path d="M-0.5 -8.05 L-0.6 -7.85 Q-1.45 -6.75 -2.55 -7.2 L-3.3 -7.7 -3.55 -7.95 -3.6 -8.05 -3.25 -7.9 Q-2.9 -7.6 -2.45 -7.5 -1.25 -7.15 -0.5 -8.05" fill="#02a6e0" fill-rule="evenodd" stroke="none"/>
      <path d="M-3.6 -8.05 L-3.55 -8.1 -3.6 -8.45 -3.4 -8.25 -2.65 -7.9 -1.85 -7.7 -1.45 -7.75 -0.85 -8.2 -0.45 -8.6 -0.5 -8.1 -0.5 -8.05 Q-1.25 -7.15 -2.45 -7.5 -2.9 -7.6 -3.25 -7.9 L-3.6 -8.05" fill="#029ad1" fill-rule="evenodd" stroke="none"/>
      <path d="M-0.6 -7.65 L-0.8 -7.35 Q-0.95 -7.0 -1.55 -6.85 -2.35 -6.65 -3.15 -7.25 L-3.5 -7.7 -3.3 -7.5 -2.65 -7.05 Q-1.55 -6.6 -0.6 -7.65" fill="#02b9fa" fill-rule="evenodd" stroke="none"/>
      <path d="M-0.5 -9.8 L-0.7 -9.75 -0.9 -9.8 -0.9 -10.05 -0.85 -10.25 -0.65 -10.35 -0.45 -10.25 -0.4 -10.05 -0.5 -9.8" fill="#ffffff" fill-rule="evenodd" stroke="none"/>
      <path d="M-0.85 -9.45 L-0.95 -9.4 -1.1 -9.45 -1.1 -9.6 -1.05 -9.8 -0.9 -9.85 -0.8 -9.8 -0.75 -9.6 -0.85 -9.45" fill="#ffffff" fill-rule="evenodd" stroke="none"/>
      <path d="M-0.55 -9.35 L-0.65 -9.3 -0.75 -9.35 -0.7 -9.45 -0.7 -9.55 -0.6 -9.6 -0.5 -9.55 -0.5 -9.45 -0.55 -9.35" fill="#ffffff" fill-rule="evenodd" stroke="none"/>
      <path d="M-0.65 -8.05 L0.65 -9.45 1.45 -10.1 1.5 -10.1 Q1.65 -9.95 1.8 -9.95 L2.9 -9.8 4.2 -9.85 Q5.2 -10.0 5.65 -10.45 L5.7 -10.6 5.85 -10.5 6.35 -9.7 6.35 -9.6 Q5.75 -8.55 4.3 -7.9 L2.5 -7.3 Q0.15 -7.1 -0.45 -7.75 L-0.6 -7.95 -0.65 -8.05" fill="#e0f1ff" fill-rule="evenodd" stroke="none"/>
      <path d="M-1.8 -6.45 L-0.65 -8.05 -0.6 -7.95 -0.45 -7.75 Q0.15 -7.1 2.5 -7.3 L4.3 -7.9 Q5.75 -8.55 6.35 -9.6 L6.35 -9.7 6.65 -8.85 6.65 -8.8 Q6.05 -6.7 4.25 -5.5 L3.65 -5.1 2.9 -4.8 2.35 -4.65 Q-0.85 -4.3 -1.6 -5.7 L-1.75 -6.05 -1.8 -6.45" fill="#c9e8ff" fill-rule="evenodd" stroke="none"/>
      <path d="M-3.65 -4.8 Q-1.5 -8.0 0.45 -9.6 L0.5 -9.75 0.9 -10.0 0.95 -10.05 Q2.6 -11.4 4.15 -11.6 L4.9 -11.65 5.4 -11.6 5.45 -11.6 Q6.55 -11.15 7.2 -9.85 L7.3 -9.55 7.55 -6.9 7.55 -5.6 6.9 -5.7 6.9 -5.8 6.95 -5.95 6.85 -7.4 6.7 -8.55 6.65 -8.85 6.35 -9.7 5.85 -10.5 5.7 -10.6 4.45 -11.05 3.5 -11.1 2.8 -10.95 1.5 -10.1 1.45 -10.1 0.65 -9.45 -0.65 -8.05 -1.8 -6.45 -2.2 -5.95 -2.8 -5.0 -3.25 -4.4 -3.65 -4.8" fill="#7ccaff" fill-rule="evenodd" stroke="none"/>
      <path d="M-2.8 -5.0 L-2.2 -5.95 -1.8 -6.45 -1.75 -6.05 -1.6 -5.7 Q-0.85 -4.3 2.35 -4.65 L2.9 -4.8 3.65 -5.1 4.25 -5.5 Q6.05 -6.7 6.65 -8.8 L6.65 -8.85 6.7 -8.55 6.85 -7.4 Q5.75 -4.65 3.75 -3.4 L2.1 -2.65 -0.05 -2.3 -0.9 -2.35 Q-2.6 -3.05 -2.8 -4.45 L-2.85 -4.5 -2.8 -5.0" fill="#b5e0ff" fill-rule="evenodd" stroke="none"/>
      <path d="M1.5 -10.1 L2.8 -10.95 3.5 -11.1 4.45 -11.05 5.7 -10.6 5.65 -10.45 Q5.2 -10.0 4.2 -9.85 L2.9 -9.8 1.8 -9.95 Q1.65 -9.95 1.5 -10.1" fill="#ffffff" fill-rule="evenodd" stroke="none"/>
      <path d="M7.55 -5.6 L7.55 -6.9 7.3 -9.55 7.65 -8.7 7.7 -8.5 7.85 -8.0 7.9 -7.75 8.0 -7.45 8.0 -7.25 8.05 -7.1 8.1 -6.9 8.15 -6.7 8.2 -6.6 8.5 -3.8 8.25 -0.15 8.25 0.3 8.05 1.55 Q7.55 4.7 4.9 6.1 4.7 6.1 4.6 6.2 L4.55 6.25 4.35 6.3 2.55 6.75 2.0 6.75 1.1 6.7 -1.25 6.0 -1.35 5.9 -1.95 5.5 -2.0 5.45 Q-4.1 3.4 -4.7 1.1 L-4.85 0.15 -4.95 -0.95 -5.0 -1.3 -4.95 -1.6 -4.9 -1.9 -3.45 -0.25 Q-2.45 0.6 0.05 1.4 2.55 2.2 4.55 0.6 6.5 -1.05 7.1 -3.2 L7.55 -5.6 M7.6 -0.15 L7.55 -0.35 7.5 -2.5 6.25 -0.5 4.35 1.85 2.7 2.3 -0.5 1.9 Q-2.2 1.45 -3.5 0.7 L-4.5 0.05 -4.1 1.35 -4.05 1.55 -3.8 2.2 -3.5 3.05 -3.45 3.2 -1.75 4.95 Q1.7 7.0 4.55 5.75 6.7 4.8 7.25 3.05 L7.5 1.75 7.55 0.9 7.6 -0.15" fill="#0293bd" fill-rule="evenodd" stroke="none"/>
      <path d="M-3.25 -4.4 L-2.8 -5.0 -2.85 -4.5 -2.8 -4.45 Q-2.6 -3.05 -0.9 -2.35 L-0.05 -2.3 2.1 -2.65 3.75 -3.4 Q5.75 -4.65 6.85 -7.4 L6.95 -5.95 6.9 -5.8 6.9 -5.7 6.85 -5.0 6.8 -4.6 6.75 -4.5 Q6.5 -3.8 5.25 -2.3 L5.15 -2.25 3.8 -1.0 Q3.1 -0.5 2.55 -0.45 0.45 -0.25 -1.65 -0.95 -3.7 -1.55 -3.9 -2.75 L-3.75 -3.65 -3.25 -4.4" fill="#a6d9ff" fill-rule="evenodd" stroke="none"/>
      <path d="M-3.65 -4.8 L-3.25 -4.4 -3.75 -3.65 -3.9 -2.75 Q-3.7 -1.55 -1.65 -0.95 0.45 -0.25 2.55 -0.45 3.1 -0.5 3.8 -1.0 L5.15 -2.25 5.25 -2.3 Q6.5 -3.8 6.75 -4.5 L6.8 -4.6 6.85 -5.0 6.9 -5.7 7.55 -5.6 7.1 -3.2 Q6.5 -1.05 4.55 0.6 2.55 2.2 0.05 1.4 -2.45 0.6 -3.45 -0.25 L-4.9 -1.9 -4.9 -2.0 -4.85 -2.2 -4.85 -2.35 -4.75 -2.7 -4.75 -2.75 -4.65 -2.9 -4.6 -3.1 -4.1 -4.1 -3.85 -4.55 -3.65 -4.8" fill="#61d4fc" fill-rule="evenodd" stroke="none"/>
      <path d="M7.55 0.9 L7.5 1.75 Q4.8 6.9 0.35 5.5 -1.15 5.05 -2.65 3.85 L-3.45 3.2 -3.5 3.05 -3.8 2.2 -2.7 3.1 Q-1.05 4.35 0.55 4.8 5.15 6.1 7.55 0.9" fill="#02aeeb" fill-rule="evenodd" stroke="none"/>
      <path d="M7.6 -0.15 L7.55 0.9 Q5.15 6.1 0.55 4.8 -1.05 4.35 -2.7 3.1 L-3.8 2.2 -4.05 1.55 -2.8 2.25 Q-0.95 3.2 0.75 3.55 5.55 4.4 7.6 -0.15" fill="#02a6e0" fill-rule="evenodd" stroke="none"/>
      <path d="M-4.05 1.55 L-4.1 1.35 -4.5 0.05 -3.5 0.7 Q-2.2 1.45 -0.5 1.9 L2.7 2.3 4.35 1.85 6.25 -0.5 7.5 -2.5 7.55 -0.35 7.6 -0.15 Q5.55 4.4 0.75 3.55 -0.95 3.2 -2.8 2.25 L-4.05 1.55" fill="#029ad1" fill-rule="evenodd" stroke="none"/>
      <path d="M7.5 1.75 L7.25 3.05 Q6.7 4.8 4.55 5.75 1.7 7.0 -1.75 4.95 L-3.45 3.2 -2.65 3.85 Q-1.15 5.05 0.35 5.5 4.8 6.9 7.5 1.75" fill="#02b9fa" fill-rule="evenodd" stroke="none"/>
      <path d="M6.25 -7.75 Q6.0 -7.25 5.6 -7.2 5.15 -7.15 4.8 -7.55 4.45 -7.95 4.35 -8.5 L4.5 -9.5 Q4.75 -9.9 5.2 -9.95 L5.95 -9.7 Q6.35 -9.3 6.4 -8.75 6.5 -8.2 6.25 -7.75" fill="#ffffff" fill-rule="evenodd" stroke="none"/>
      <path d="M5.35 -6.25 Q5.2 -5.9 4.9 -5.9 4.6 -5.85 4.35 -6.1 L4.05 -6.85 4.15 -7.55 4.6 -7.95 5.15 -7.7 5.45 -7.0 5.35 -6.25" fill="#ffffff" fill-rule="evenodd" stroke="none"/>
      <path d="M6.55 -5.4 L6.25 -5.2 Q6.05 -5.15 5.95 -5.35 L5.75 -5.85 5.8 -6.4 6.1 -6.65 6.4 -6.45 6.6 -6.0 6.55 -5.4" fill="#ffffff" fill-rule="evenodd" stroke="none"/>
      <path d="M11.35 -3.85 L10.9 -3.35 10.45 -3.1 9.65 -2.95 9.6 -3.0 9.6 -2.95 9.9 -3.35 10.0 -3.55 10.05 -3.55 10.1 -3.5 10.4 -3.55 10.75 -3.7 11.1 -3.9 11.15 -4.0 11.2 -3.95 11.35 -3.85" fill="#e0f1ff" fill-rule="evenodd" stroke="none"/>
      <path d="M9.6 -2.95 L9.6 -3.0 9.65 -2.95 10.45 -3.1 10.9 -3.35 11.35 -3.85 11.5 -3.75 11.0 -2.95 10.9 -2.85 10.7 -2.7 10.55 -2.6 9.45 -2.5 9.35 -2.5 9.3 -2.6 9.6 -2.95" fill="#c9e8ff" fill-rule="evenodd" stroke="none"/>
      <path d="M11.35 -3.85 L11.2 -3.95 11.15 -4.0 10.8 -3.95 10.55 -3.9 Q10.45 -3.8 10.35 -3.8 L10.05 -3.55 10.0 -3.55 9.9 -3.35 9.6 -2.95 9.3 -2.6 9.3 -2.5 9.15 -2.25 9.05 -2.1 8.95 -2.15 9.8 -3.35 9.8 -3.4 9.85 -3.45 9.9 -3.5 10.7 -4.05 10.85 -4.05 11.0 -4.15 11.05 -4.15 11.55 -3.95 11.6 -3.95 11.8 -3.45 11.85 -3.25 11.7 -3.2 11.7 -3.25 11.6 -3.5 11.55 -3.7 11.5 -3.75 11.35 -3.85" fill="#7ccaff" fill-rule="evenodd" stroke="none"/>
      <path d="M9.3 -2.6 L9.35 -2.5 9.45 -2.5 10.55 -2.6 10.7 -2.7 10.9 -2.85 11.0 -2.95 11.5 -3.75 11.55 -3.7 11.6 -3.5 10.95 -2.5 10.55 -2.25 10.0 -2.0 9.75 -1.95 Q9.25 -1.95 9.15 -2.15 L9.15 -2.25 9.3 -2.5 9.3 -2.6" fill="#b5e0ff" fill-rule="evenodd" stroke="none"/>
      <path d="M11.15 -4.0 L11.1 -3.9 10.75 -3.7 10.4 -3.55 10.1 -3.5 10.05 -3.55 10.35 -3.8 Q10.45 -3.8 10.55 -3.9 L10.8 -3.95 11.15 -4.0" fill="#ffffff" fill-rule="evenodd" stroke="none"/>
      <path d="M11.6 -3.95 L11.75 -3.8 11.8 -3.75 11.85 -3.65 11.9 -3.65 11.9 -3.6 11.95 -3.6 11.95 -3.55 11.95 -3.5 12.0 -3.5 12.0 -3.45 12.2 -3.0 12.35 -2.3 12.35 -2.25 12.35 -2.0 Q12.4 -1.4 11.7 -0.95 L11.65 -0.9 11.6 -0.9 11.55 -0.85 11.1 -0.65 10.95 -0.6 10.7 -0.5 10.05 -0.45 10.0 -0.45 9.85 -0.45 9.85 -0.5 Q9.2 -0.65 8.9 -1.0 L8.8 -1.2 8.75 -1.35 8.75 -1.4 8.75 -1.45 8.75 -1.5 9.2 -1.35 10.2 -1.4 Q10.9 -1.45 11.35 -1.9 L11.9 -2.75 11.85 -3.25 11.8 -3.45 11.6 -3.95 M12.2 -1.95 L12.2 -2.1 12.15 -2.25 12.15 -2.3 12.0 -2.7 11.8 -2.25 11.35 -1.65 Q11.25 -1.5 10.95 -1.45 L10.05 -1.2 9.2 -1.15 8.9 -1.2 9.05 -1.05 9.1 -1.0 9.25 -0.9 9.35 -0.8 9.35 -0.75 9.9 -0.55 Q10.95 -0.55 11.6 -1.0 L12.2 -1.65 12.2 -1.95" fill="#0293bd" fill-rule="evenodd" stroke="none"/>
      <path d="M9.05 -2.1 L9.15 -2.25 9.15 -2.15 Q9.25 -1.95 9.75 -1.95 L10.0 -2.0 10.55 -2.25 10.95 -2.5 11.6 -3.5 11.7 -3.25 11.7 -3.2 11.7 -3.1 11.75 -3.0 11.4 -2.45 11.1 -2.1 10.8 -1.9 9.65 -1.6 8.95 -1.75 8.95 -1.95 9.05 -2.1" fill="#a6d9ff" fill-rule="evenodd" stroke="none"/>
      <path d="M8.95 -2.15 L9.05 -2.1 8.95 -1.95 8.95 -1.75 9.65 -1.6 10.8 -1.9 11.1 -2.1 11.4 -2.45 11.75 -3.0 11.7 -3.1 11.7 -3.2 11.85 -3.25 11.9 -2.75 11.35 -1.9 Q10.9 -1.45 10.2 -1.4 L9.2 -1.35 8.75 -1.5 8.75 -1.55 8.7 -1.6 8.7 -1.7 8.7 -1.75 8.75 -1.8 8.85 -2.0 8.9 -2.1 8.95 -2.15" fill="#61d4fc" fill-rule="evenodd" stroke="none"/>
      <path d="M12.2 -2.1 L12.2 -1.95 Q11.7 -0.75 10.45 -0.7 L9.6 -0.7 9.35 -0.75 9.35 -0.8 9.25 -0.9 9.55 -0.85 10.5 -0.8 Q11.8 -0.95 12.2 -2.1" fill="#02aeeb" fill-rule="evenodd" stroke="none"/>
      <path d="M9.25 -0.9 L9.1 -1.0 9.5 -1.0 10.5 -1.05 Q11.85 -1.3 12.15 -2.25 L12.2 -2.1 Q11.8 -0.95 10.5 -0.8 L9.55 -0.85 9.25 -0.9" fill="#02a6e0" fill-rule="evenodd" stroke="none"/>
      <path d="M9.1 -1.0 L9.05 -1.05 8.9 -1.2 9.2 -1.15 10.05 -1.2 10.95 -1.45 Q11.25 -1.5 11.35 -1.65 L11.8 -2.25 12.0 -2.7 12.15 -2.3 12.15 -2.25 Q11.85 -1.3 10.5 -1.05 L9.5 -1.0 9.1 -1.0" fill="#029ad1" fill-rule="evenodd" stroke="none"/>
      <path d="M12.2 -1.95 L12.2 -1.65 11.6 -1.0 Q10.95 -0.55 9.9 -0.55 L9.35 -0.75 9.6 -0.7 10.45 -0.7 Q11.7 -0.75 12.2 -1.95" fill="#02b9fa" fill-rule="evenodd" stroke="none"/>
      <path d="M11.45 -3.5 L11.3 -3.4 11.1 -3.35 10.95 -3.55 10.95 -3.7 11.05 -3.85 11.3 -3.85 11.5 -3.75 11.45 -3.5" fill="#ffffff" fill-rule="evenodd" stroke="none"/>
      <path d="M11.25 -3.3 L11.15 -3.15 11.0 -3.15 10.9 -3.25 10.85 -3.35 11.0 -3.45 11.1 -3.5 11.3 -3.4 11.25 -3.3" fill="#ffffff" fill-rule="evenodd" stroke="none"/>
      <path d="M11.6 -3.2 L11.5 -3.15 11.45 -3.15 11.35 -3.2 11.35 -3.35 11.4 -3.35 11.5 -3.4 11.55 -3.3 11.6 -3.2" fill="#ffffff" fill-rule="evenodd" stroke="none"/>
    </g>
  </defs>
</svg>
