<?xml version="1.0" encoding="UTF-8" standalone="no"?>
<svg xmlns:xlink="http://www.w3.org/1999/xlink" height="440.0px" width="440.0px" xmlns="http://www.w3.org/2000/svg">
  <g transform="matrix(10.0, 0.0, 0.0, 10.0, 0.0, 0.0)">
    <use height="44.0" transform="matrix(0.9091, 0.0, 0.0, 0.9091, 2.0, 2.0)" width="44.0" xlink:href="#sprite0"/>
  </g>
  <defs>
    <g id="sprite0" transform="matrix(1.0, 0.0, 0.0, 1.0, 0.0, 0.0)">
      <use height="44.0" transform="matrix(1.0, 0.0, 0.0, 1.0, 0.0, 0.0)" width="44.0" xlink:href="#shape0"/>
      <use height="37.25" transform="matrix(1.0201, 0.0, 0.0, 1.0201, 9.25, 3.0)" width="25.05" xlink:href="#sprite1"/>
    </g>
    <g id="shape0" transform="matrix(1.0, 0.0, 0.0, 1.0, 0.0, 0.0)">
      <path d="M44.0 44.0 L0.0 44.0 0.0 0.0 44.0 0.0 44.0 44.0" fill="#43adca" fill-opacity="0.0" fill-rule="evenodd" stroke="none"/>
    </g>
    <g id="sprite1" transform="matrix(1.0, 0.0, 0.0, 1.0, 0.0, 0.0)">
      <use height="37.25" transform="matrix(1.0, 0.0, 0.0, 1.0, 0.0, 0.0)" width="25.05" xlink:href="#sprite2"/>
    </g>
    <g id="sprite2" transform="matrix(1.0, 0.0, 0.0, 1.0, 9.25, 17.45)">
      <use height="37.25" transform="matrix(1.0, 0.0, 0.0, 1.0, -9.25, -17.45)" width="25.05" xlink:href="#shape1"/>
    </g>
    <g id="shape1" transform="matrix(1.0, 0.0, 0.0, 1.0, 9.25, 17.45)">
      <path d="M10.4 6.35 L9.3 6.3 9.4 4.7 9.4 4.6 10.5 4.6 10.5 4.95 10.4 6.35 M4.0 6.0 L0.35 5.5 0.3 5.45 -1.8 5.25 -1.9 5.2 -2.35 5.05 -2.1 4.9 0.2 3.9 0.4 3.65 0.45 3.55 3.05 4.0 4.9 4.3 4.0 6.0 M-4.75 4.9 L-8.35 4.45 -8.35 4.0 -8.25 3.3 Q-8.25 2.7 -8.4 2.2 L-6.3 2.5 -6.35 2.55 Q-6.3 2.55 -6.2 2.65 L-4.05 2.8 -4.1 2.95 -4.25 3.15 -4.75 4.9" fill="#664500" fill-rule="evenodd" stroke="none"/>
      <path d="M13.5 4.35 L13.55 4.35 13.6 4.4 13.5 4.35 13.6 4.4 13.1 4.75 13.1 4.8 10.5 4.6 9.4 4.6 4.9 4.3 3.05 4.0 0.45 3.55 0.15 3.45 -4.05 2.8 -6.2 2.65 Q-6.3 2.55 -6.35 2.55 L-6.3 2.5 -8.4 2.2 -9.15 2.05 -8.9 1.55 -7.1 1.8 -7.0 1.85 0.95 2.95 2.85 3.25 5.35 3.55 13.5 4.35 M-6.2 2.65 L-6.3 2.5 -6.2 2.65" fill="#513600" fill-rule="evenodd" stroke="none"/>
      <path d="M13.5 6.4 L10.4 6.35 10.5 4.95 10.5 4.6 13.1 4.8 13.5 6.4 M9.3 6.3 L4.0 6.0 4.9 4.3 9.4 4.6 9.4 4.7 9.3 6.3 M-1.9 5.2 L-4.75 4.9 -4.25 3.15 -4.1 2.95 -4.05 2.8 0.15 3.45 0.45 3.55 0.4 3.65 0.2 3.9 -2.1 4.9 -2.35 5.05 -1.9 5.2 M-8.35 4.45 L-9.25 4.35 -9.15 2.05 -8.4 2.2 Q-8.25 2.7 -8.25 3.3 L-8.35 4.0 -8.35 4.45" fill="#996600" fill-rule="evenodd" stroke="none"/>
      <path d="M13.6 4.4 L14.05 5.9 13.5 6.4 13.1 4.8 13.1 4.75 13.6 4.4" fill="#cc8800" fill-rule="evenodd" stroke="none"/>
      <path d="M13.6 4.4 L13.55 4.35 13.5 4.35 13.6 4.4 14.05 5.9 13.5 6.4 10.4 6.35 9.3 6.3 4.0 6.0 0.35 5.5 M0.3 5.45 L-1.8 5.25 -1.9 5.2 -4.75 4.9 -8.35 4.45 -9.25 4.35 -9.15 2.05 -8.9 1.55 -7.1 1.8 -7.0 1.85 0.95 2.95 2.85 3.25 5.35 3.55 13.5 4.35 M10.5 4.6 L9.4 4.6 4.9 4.3 3.05 4.0 0.45 3.55 0.15 3.45 -4.05 2.8 -6.2 2.65 Q-6.3 2.55 -6.35 2.55 M13.6 4.4 L13.1 4.75 13.1 4.8 13.5 6.4 M13.1 4.8 L10.5 4.6 M-6.3 2.5 L-8.4 2.2 M-6.3 2.5 L-6.2 2.65 M-9.15 2.05 L-8.4 2.2" fill="none" stroke="#000000" stroke-linecap="round" stroke-linejoin="round" stroke-opacity="0.2" stroke-width="0.05"/>
      <path d="M14.8 -7.15 L12.4 -5.2 11.3 -4.35 6.4 -0.2 6.35 -0.65 13.95 -7.15 14.8 -7.15" fill="#513600" fill-rule="evenodd" stroke="none"/>
      <path d="M12.4 -5.2 L13.1 -4.8 14.2 -3.8 12.75 -2.7 12.3 -3.2 11.3 -4.35 12.4 -5.2 M6.4 2.35 L4.75 3.65 4.4 2.05 5.45 1.75 Q5.45 1.65 5.6 1.65 L5.65 1.55 5.9 1.4 6.55 0.65 6.5 0.75 6.5 0.95 6.5 1.2 6.35 1.8 6.4 2.35 M4.3 1.45 L4.25 1.0 6.35 -0.65 6.4 -0.2 4.3 1.45" fill="#664500" fill-rule="evenodd" stroke="none"/>
      <path d="M14.8 -7.15 L15.8 -5.0 14.2 -3.8 13.1 -4.8 12.4 -5.2 14.8 -7.15 M12.75 -2.7 L6.4 2.35 6.35 1.8 6.5 1.2 6.5 0.95 6.5 0.75 6.55 0.65 5.9 1.4 5.65 1.55 5.6 1.65 Q5.45 1.65 5.45 1.75 L4.4 2.05 4.3 1.45 6.4 -0.2 11.3 -4.35 12.3 -3.2 12.75 -2.7" fill="#996600" fill-rule="evenodd" stroke="none"/>
      <path d="M14.2 -3.8 L15.8 -5.0 14.8 -7.15 12.4 -5.2 M14.2 -3.8 L12.75 -2.7 6.4 2.35 4.75 3.65 M4.25 1.0 L6.35 -0.65 13.95 -7.15 14.8 -7.15 M11.3 -4.35 L12.4 -5.2 M6.4 -0.2 L11.3 -4.35 M4.3 1.45 L6.4 -0.2" fill="none" stroke="#000000" stroke-linecap="round" stroke-linejoin="round" stroke-opacity="0.2" stroke-width="0.05"/>
      <path d="M11.35 8.45 L6.1 4.95 6.55 3.5 12.1 7.05 11.55 8.0 11.35 8.45 M-6.5 -5.0 L-7.75 -6.25 -6.75 -7.3 -5.85 -6.45 -6.1 -6.0 Q-6.5 -5.55 -6.5 -5.0" fill="#996600" fill-rule="evenodd" stroke="none"/>
      <path d="M12.45 9.05 L11.35 8.45 11.55 8.0 12.1 7.05 12.95 7.65 12.9 7.9 12.45 9.05 M6.1 4.95 L4.1 3.55 2.9 2.55 2.4 2.2 1.95 2.0 -1.15 -0.5 -2.35 -1.45 -4.25 -2.95 -5.0 -3.65 -6.5 -5.0 Q-6.5 -5.55 -6.1 -6.0 L-5.85 -6.45 -1.9 -3.0 1.25 -0.55 6.55 3.5 6.1 4.95" fill="#664500" fill-rule="evenodd" stroke="none"/>
      <path d="M-6.75 -7.3 L-6.3 -7.6 -1.65 -3.65 -0.65 -2.8 0.0 -2.25 1.95 -0.7 3.3 0.35 6.8 2.95 14.3 7.9 13.6 7.95 Q13.5 8.15 12.95 7.65 13.5 8.15 13.6 7.95 L13.05 9.45 12.45 9.05 12.9 7.9 12.95 7.65 12.1 7.05 6.55 3.5 1.25 -0.55 -1.9 -3.0 -5.85 -6.45 -6.75 -7.3" fill="#513600" fill-rule="evenodd" stroke="none"/>
      <path d="M14.3 7.9 L13.65 9.45 13.1 9.5 13.05 9.45 13.6 7.95 14.3 7.9" fill="#cc8800" fill-rule="evenodd" stroke="none"/>
      <path d="M-6.75 -7.3 L-6.3 -7.6 -1.65 -3.65 -0.65 -2.8 0.0 -2.25 1.95 -0.7 3.3 0.35 6.8 2.95 14.3 7.9 13.65 9.45 13.1 9.5 13.05 9.45 12.45 9.05 11.35 8.45 6.1 4.95 4.1 3.55 2.9 2.55 2.4 2.2 1.95 2.0 -1.15 -0.5 -2.35 -1.45 -4.25 -2.95 -5.0 -3.65 -6.5 -5.0 -7.75 -6.25 -6.75 -7.3 -5.85 -6.45 -1.9 -3.0 1.25 -0.55 6.55 3.5 12.1 7.05 12.95 7.65 Q13.5 8.15 13.6 7.95 L14.3 7.9 M13.05 9.45 L13.6 7.95" fill="none" stroke="#000000" stroke-linecap="round" stroke-linejoin="round" stroke-opacity="0.2" stroke-width="0.05"/>
      <path d="M6.85 -17.45 L6.85 -17.4 6.8 -17.4 6.85 -17.4 6.8 -17.35 6.3 -17.0 Q3.85 -14.35 2.55 -11.05 L4.0 -11.6 Q5.25 -11.85 7.3 -11.15 L7.4 -11.1 Q8.95 -10.55 10.05 -9.05 L10.7 -8.15 Q12.95 -4.5 11.95 2.8 11.6 7.35 9.85 10.55 L9.3 11.55 9.25 11.6 9.2 11.6 9.4 10.3 9.5 8.85 9.5 7.9 8.8 8.55 6.65 10.15 6.45 10.25 4.55 10.9 Q0.2 12.1 -0.9 15.85 L-1.0 16.15 Q-1.35 17.7 -1.1 19.8 L-1.15 19.75 -1.55 18.7 Q-1.85 17.25 -1.45 15.75 L-1.35 15.25 Q-0.55 12.9 1.35 11.55 3.0 10.4 4.85 9.7 6.15 9.2 7.2 8.05 L8.35 6.6 8.7 5.45 Q8.85 3.65 8.45 1.85 L8.85 2.45 9.45 3.75 9.75 4.6 Q10.45 1.75 9.75 -1.0 9.25 -2.8 8.15 -4.15 L6.3 -5.65 4.45 -6.35 2.8 -6.25 3.45 -7.45 5.05 -9.25 5.8 -10.35 4.95 -9.95 Q2.55 -8.85 0.7 -6.8 -1.15 -4.7 -2.2 -1.9 -3.25 0.7 -3.65 3.45 L-4.2 8.75 -3.8 14.4 -3.95 14.55 Q-4.7 11.65 -4.85 8.8 -5.05 4.8 -4.1 0.8 -3.6 -1.55 -2.5 -4.05 L-2.45 -4.15 -1.9 -5.4 -0.8 -7.65 -0.75 -7.75 Q2.45 -13.65 6.3 -17.0 L6.8 -17.4 6.85 -17.45 M-3.75 14.55 L-3.95 14.55 -3.8 14.4 -3.75 14.55 M4.85 3.75 Q4.15 3.15 3.35 3.0 L2.15 3.0 0.95 3.35 Q1.65 2.15 2.65 1.3 L2.9 1.15 3.5 1.6 3.65 1.7 Q4.5 2.5 4.85 3.75 M-6.15 8.5 Q-7.9 3.6 -6.8 -4.85 L-6.6 -2.0 Q-6.4 -1.0 -5.8 -1.8 L-3.15 -6.75 -4.6 -3.95 -5.4 -2.15 Q-6.2 -0.2 -6.4 1.85 L-6.9 -0.4 Q-7.1 1.7 -6.9 3.85 L-6.15 8.5" fill="#d20202" fill-rule="evenodd" stroke="none"/>
      <path d="M6.85 -17.4 L6.85 -17.35 6.8 -17.35 6.85 -17.35 Q5.8 -15.75 5.65 -13.05 6.05 -11.95 7.3 -11.15 5.25 -11.85 4.0 -11.6 L2.55 -11.05 Q3.85 -14.35 6.3 -17.0 L6.8 -17.35 6.85 -17.4 M-1.55 18.7 Q-2.05 17.05 -2.05 15.4 -2.05 13.7 -1.5 12.0 L-0.75 10.1 Q0.0 8.5 1.2 6.85 L1.8 6.05 Q1.6 7.2 1.8 7.9 2.3 9.15 4.35 8.2 6.25 7.05 6.75 4.6 L6.85 4.35 6.9 3.6 Q6.75 0.65 5.8 0.0 L5.75 -0.05 Q4.75 -0.65 2.9 1.15 L2.65 1.3 Q1.65 2.15 0.95 3.35 L2.15 3.0 3.35 3.0 Q4.15 3.15 4.85 3.75 L4.9 3.8 4.95 3.95 4.65 3.9 Q3.4 3.7 2.0 4.25 L1.85 4.25 1.85 4.3 0.85 4.8 0.4 5.7 0.35 5.85 -1.15 9.35 -2.0 11.75 -2.75 12.45 -3.45 14.45 -3.5 14.55 -3.75 14.55 -3.8 14.4 -4.2 8.75 -3.65 3.45 Q-3.25 0.7 -2.2 -1.9 -1.15 -4.7 0.7 -6.8 2.55 -8.85 4.95 -9.95 L5.8 -10.35 5.05 -9.25 3.45 -7.45 2.8 -6.25 4.45 -6.35 6.3 -5.65 8.15 -4.15 Q9.25 -2.8 9.75 -1.0 10.45 1.75 9.75 4.6 L9.45 3.75 8.85 2.45 8.45 1.85 Q8.85 3.65 8.7 5.45 L8.35 6.6 7.2 8.05 Q6.15 9.2 4.85 9.7 3.0 10.4 1.35 11.55 -0.55 12.9 -1.35 15.25 L-1.45 15.75 Q-1.85 17.25 -1.55 18.7 M1.8 -0.2 Q1.4 -1.8 0.25 -2.35 1.4 -1.8 1.8 -0.2 M2.25 -1.05 Q2.15 -2.45 1.1 -3.15 2.15 -2.45 2.25 -1.05 M3.0 -1.8 Q3.1 -3.35 2.2 -4.1 3.1 -3.35 3.0 -1.8 M3.65 -2.35 Q4.0 -3.4 3.45 -4.45 4.0 -3.4 3.65 -2.35 M4.65 3.9 L4.9 3.8 4.65 3.9 M-6.0 9.0 L-6.05 8.95 -6.15 8.5 -6.9 3.85 Q-7.1 1.7 -6.9 -0.4 L-6.4 1.85 Q-6.2 -0.2 -5.4 -2.15 L-4.6 -3.95 -3.15 -6.75 -2.8 -7.4 -2.6 -7.7 -2.5 -7.8 -1.3 -9.85 -1.2 -9.95 -1.25 -9.85 -4.0 -3.95 Q-6.95 3.45 -6.0 9.0 M-1.25 -9.85 L-1.3 -9.85 -1.25 -9.85 M-3.55 9.95 Q-2.75 9.4 -3.35 7.3 L-3.55 9.95 M1.3 0.95 Q0.7 -0.7 -0.6 -1.15 0.7 -0.7 1.3 0.95" fill="#990000" fill-rule="evenodd" stroke="none"/>
      <path d="M6.85 -17.35 L7.6 -17.35 Q6.55 -15.8 6.4 -13.15 6.8 -12.1 8.05 -11.3 14.25 -8.5 12.7 2.65 12.35 7.2 10.6 10.4 L10.0 11.45 9.3 11.55 9.85 10.55 Q11.6 7.35 11.95 2.8 12.95 -4.5 10.7 -8.15 L10.05 -9.05 Q8.95 -10.55 7.4 -11.1 L7.3 -11.15 Q6.05 -11.95 5.65 -13.05 5.8 -15.75 6.85 -17.35 M7.4 10.3 Q6.5 10.75 5.45 11.0 1.1 12.2 0.0 15.95 L-0.1 16.25 Q-0.4 17.65 -0.25 19.5 L-1.1 19.8 Q-1.35 17.7 -1.0 16.15 L-0.9 15.85 Q0.2 12.1 4.55 10.9 L6.45 10.25 6.65 10.15 7.4 10.3 M-1.5 12.0 L-2.1 12.55 -2.65 14.2 -3.45 14.45 -2.75 12.45 -2.0 11.75 -1.15 9.35 0.35 5.85 1.15 5.7 Q0.15 7.7 -0.5 9.45 L-0.75 10.1 -1.5 12.0 M-1.2 -9.95 L-0.45 -9.8 Q-2.15 -6.8 -3.25 -4.0 L-4.0 -3.95 -1.25 -9.85 -1.2 -9.95" fill="#cfa44e" fill-rule="evenodd" stroke="none"/>
      <path d="M-3.55 9.95 L-3.35 7.3 Q-2.75 9.4 -3.55 9.95" fill="#9e7d3c" fill-rule="evenodd" stroke="none"/>
      <path d="M9.5 8.85 L7.4 10.3 6.65 10.15 8.8 8.55 9.5 7.9 9.5 8.85 M2.9 1.15 Q4.75 -0.65 5.75 -0.05 L5.8 0.0 Q4.75 0.3 3.95 1.05 L3.9 1.1 2.9 1.15 3.9 1.1 4.0 1.1 Q5.15 2.25 5.5 3.45 L4.9 3.8 4.85 3.75 Q4.5 2.5 3.65 1.7 L3.5 1.6 2.9 1.15 M1.85 4.3 L1.15 5.7 0.35 5.85 0.4 5.7 0.85 4.8 1.85 4.3 M-3.25 -4.0 Q-6.2 3.25 -5.1 8.85 L-6.0 9.0 Q-6.95 3.45 -4.0 -3.95 L-3.25 -4.0" fill="#a3813e" fill-rule="evenodd" stroke="none"/>
      <path d="M6.3 -17.0 Q3.85 -14.35 2.55 -11.05 L4.0 -11.6 Q5.25 -11.85 7.3 -11.15 M-3.8 14.4 L-4.2 8.75 -3.65 3.45 Q-3.25 0.7 -2.2 -1.9 -1.15 -4.7 0.7 -6.8 2.55 -8.85 4.95 -9.95 L5.8 -10.35 5.05 -9.25 3.45 -7.45 2.8 -6.25 4.45 -6.35 6.3 -5.65 8.15 -4.15 Q9.25 -2.8 9.75 -1.0 10.45 1.75 9.75 4.6 L9.45 3.75 8.85 2.45 8.45 1.85 Q8.85 3.65 8.7 5.45 L8.35 6.6 7.2 8.05 Q6.15 9.2 4.85 9.7 3.0 10.4 1.35 11.55 -0.55 12.9 -1.35 15.25 L-1.45 15.75 Q-1.85 17.25 -1.55 18.7 M4.85 3.75 Q4.15 3.15 3.35 3.0 L2.15 3.0 0.95 3.35 Q1.65 2.15 2.65 1.3 L2.9 1.15 M-3.15 -6.75 L-4.6 -3.95 -5.4 -2.15 Q-6.2 -0.2 -6.4 1.85 L-6.9 -0.4 Q-7.1 1.7 -6.9 3.85 L-6.15 8.5 M-3.75 14.55 L-3.8 14.4" fill="none" stroke="#ffff00" stroke-linecap="round" stroke-linejoin="round" stroke-opacity="0.4" stroke-width="0.05"/>
      <path d="M6.85 -17.45 L6.8 -17.4 6.85 -17.4 6.85 -17.35 7.6 -17.35 Q6.55 -15.8 6.4 -13.15 6.8 -12.1 8.05 -11.3 14.25 -8.5 12.7 2.65 12.35 7.2 10.6 10.4 L10.0 11.45 9.3 11.55 9.25 11.6 M9.2 11.6 L9.4 10.3 9.5 8.85 7.4 10.3 Q6.5 10.75 5.45 11.0 1.1 12.2 0.0 15.95 L-0.1 16.25 Q-0.4 17.65 -0.25 19.5 L-1.1 19.8 -1.15 19.75 -1.55 18.7 Q-2.05 17.05 -2.05 15.4 -2.05 13.7 -1.5 12.0 L-2.1 12.55 -2.65 14.2 -3.45 14.45 -3.5 14.55 -3.75 14.55 -3.95 14.55 Q-4.7 11.65 -4.85 8.8 -5.05 4.8 -4.1 0.8 -3.6 -1.55 -2.5 -4.05 M-2.45 -4.15 L-1.9 -5.4 -0.8 -7.65 -0.75 -7.75 Q2.45 -13.65 6.3 -17.0 L6.8 -17.4 M6.8 -17.35 L6.85 -17.35 Q5.8 -15.75 5.65 -13.05 6.05 -11.95 7.3 -11.15 L7.4 -11.1 Q8.95 -10.55 10.05 -9.05 L10.7 -8.15 Q12.95 -4.5 11.95 2.8 11.6 7.35 9.85 10.55 L9.3 11.55 M6.85 -17.4 L6.8 -17.35 6.3 -17.0 M3.45 -4.45 Q4.0 -3.4 3.65 -2.35 M2.2 -4.1 Q3.1 -3.35 3.0 -1.8 M1.1 -3.15 Q2.15 -2.45 2.25 -1.05 M0.25 -2.35 Q1.4 -1.8 1.8 -0.2 M5.8 0.0 L5.75 -0.05 Q4.75 -0.65 2.9 1.15 L3.9 1.1 M3.95 1.05 Q4.75 0.3 5.8 0.0 6.75 0.65 6.9 3.6 L6.85 4.35 6.75 4.6 Q6.25 7.05 4.35 8.2 2.3 9.15 1.8 7.9 1.6 7.2 1.8 6.05 L1.2 6.85 Q0.0 8.5 -0.75 10.1 L-1.5 12.0 M3.95 1.05 L4.0 1.1 Q5.15 2.25 5.5 3.45 L4.9 3.8 4.95 3.95 4.65 3.9 Q3.4 3.7 2.0 4.25 L1.85 4.3 1.15 5.7 Q0.15 7.7 -0.5 9.45 L-0.75 10.1 M2.9 1.15 L3.5 1.6 M3.65 1.7 Q4.5 2.5 4.85 3.75 L4.9 3.8 4.65 3.9 M4.0 1.1 L3.9 1.1 M1.85 4.3 L0.85 4.8 0.4 5.7 0.35 5.85 -1.15 9.35 -2.0 11.75 -2.75 12.45 -3.45 14.45 M2.0 4.25 L1.85 4.25 1.85 4.3 M6.65 10.15 L8.8 8.55 9.5 7.9 9.5 8.85 M-1.1 19.8 Q-1.35 17.7 -1.0 16.15 L-0.9 15.85 Q0.2 12.1 4.55 10.9 L6.45 10.25 6.65 10.15 M-1.2 -9.95 L-0.45 -9.8 Q-2.15 -6.8 -3.25 -4.0 -6.2 3.25 -5.1 8.85 L-6.0 9.0 -6.05 8.95 -6.15 8.5 Q-7.9 3.6 -6.8 -4.85 L-6.6 -2.0 Q-6.4 -1.0 -5.8 -1.8 L-3.15 -6.75 -2.8 -7.4 M-2.6 -7.7 L-2.5 -7.8 -1.3 -9.85 -1.2 -9.95 -1.25 -9.85 -4.0 -3.95 M-1.3 -9.85 L-1.25 -9.85 M-6.0 9.0 Q-6.95 3.45 -4.0 -3.95 M-3.55 9.95 Q-2.75 9.4 -3.35 7.3 L-3.55 9.95 M-3.8 14.4 L-3.95 14.55 M-0.6 -1.15 Q0.7 -0.7 1.3 0.95" fill="none" stroke="#000000" stroke-linecap="round" stroke-linejoin="round" stroke-opacity="0.2" stroke-width="0.05"/>
      <path d="M8.2 -0.9 L8.2 -1.15 8.4 -1.25 8.55 -1.2 8.65 -1.0 8.6 -0.85 8.5 -0.7 Q8.4 -0.7 8.25 -0.8 L8.2 -0.9 M11.5 -3.3 L11.45 -3.1 11.3 -3.0 11.15 -3.05 11.05 -3.25 11.1 -3.45 11.2 -3.5 11.4 -3.5 11.5 -3.3 M10.55 7.25 L10.35 7.2 10.25 7.05 10.3 6.8 10.45 6.75 10.65 6.75 10.7 6.95 10.7 7.15 10.55 7.25 M7.95 5.45 L8.0 5.65 8.0 5.8 7.85 5.9 7.7 5.85 7.6 5.7 7.65 5.5 7.75 5.35 7.95 5.45 M3.05 3.1 L2.85 3.0 2.75 2.85 2.8 2.65 2.95 2.55 3.15 2.6 3.2 2.75 3.2 2.95 3.05 3.1 M-2.15 -2.8 L-2.0 -2.85 -1.85 -2.85 -1.7 -2.65 -1.8 -2.45 -1.95 -2.35 -2.1 -2.4 -2.15 -2.6 -2.15 -2.8 M-6.8 3.65 L-6.75 3.45 -6.65 3.35 -6.45 3.4 -6.4 3.6 -6.4 3.75 -6.55 3.85 -6.7 3.8 -6.8 3.65" fill="#999999" fill-rule="evenodd" stroke="none"/>
      <path d="M8.2 -0.9 L8.2 -1.15 8.4 -1.25 8.55 -1.2 8.65 -1.0 8.6 -0.85 8.5 -0.7 Q8.4 -0.7 8.25 -0.8 L8.2 -0.9" fill="none" stroke="url(#gradient0)" stroke-linecap="round" stroke-linejoin="round" stroke-width="0.05"/>
      <path d="M-6.8 3.65 L-6.75 3.45 -6.65 3.35 -6.45 3.4 -6.4 3.6 -6.4 3.75 -6.55 3.85 -6.7 3.8 -6.8 3.65" fill="none" stroke="url(#gradient1)" stroke-linecap="round" stroke-linejoin="round" stroke-width="0.05"/>
      <path d="M-2.15 -2.8 L-2.0 -2.85 -1.85 -2.85 -1.7 -2.65 -1.8 -2.45 -1.95 -2.35 -2.1 -2.4 -2.15 -2.6 -2.15 -2.8" fill="none" stroke="url(#gradient2)" stroke-linecap="round" stroke-linejoin="round" stroke-width="0.05"/>
      <path d="M3.05 3.1 L2.85 3.0 2.75 2.85 2.8 2.65 2.95 2.55 3.15 2.6 3.2 2.75 3.2 2.95 3.05 3.1" fill="none" stroke="url(#gradient3)" stroke-linecap="round" stroke-linejoin="round" stroke-width="0.05"/>
      <path d="M11.5 -3.3 L11.45 -3.1 11.3 -3.0 11.15 -3.05 11.05 -3.25 11.1 -3.45 11.2 -3.5 11.4 -3.5 11.5 -3.3" fill="none" stroke="url(#gradient4)" stroke-linecap="round" stroke-linejoin="round" stroke-width="0.05"/>
      <path d="M7.95 5.45 L8.0 5.65 8.0 5.8 7.85 5.9 7.7 5.85 7.6 5.7 7.65 5.5 7.75 5.35 7.95 5.45" fill="none" stroke="url(#gradient5)" stroke-linecap="round" stroke-linejoin="round" stroke-width="0.05"/>
      <path d="M10.55 7.25 L10.35 7.2 10.25 7.05 10.3 6.8 10.45 6.75 10.65 6.75 10.7 6.95 10.7 7.15 10.55 7.25" fill="none" stroke="url(#gradient6)" stroke-linecap="round" stroke-linejoin="round" stroke-width="0.05"/>
    </g>
    <linearGradient gradientTransform="matrix(4.0E-4, -1.0E-4, 1.0E-4, 4.0E-4, 8.45, -0.95)" gradientUnits="userSpaceOnUse" id="gradient0" spreadMethod="pad" x1="-819.2" x2="819.2">
      <stop offset="0.0" stop-color="#000000" stop-opacity="0.4"/>
      <stop offset="1.0" stop-color="#14130f"/>
    </linearGradient>
    <linearGradient gradientTransform="matrix(4.0E-4, -1.0E-4, 1.0E-4, 4.0E-4, -6.6, 3.6)" gradientUnits="userSpaceOnUse" id="gradient1" spreadMethod="pad" x1="-819.2" x2="819.2">
      <stop offset="0.0" stop-color="#000000" stop-opacity="0.4"/>
      <stop offset="1.0" stop-color="#14130f"/>
    </linearGradient>
    <linearGradient gradientTransform="matrix(4.0E-4, -1.0E-4, 1.0E-4, 4.0E-4, -1.95, -2.6)" gradientUnits="userSpaceOnUse" id="gradient2" spreadMethod="pad" x1="-819.2" x2="819.2">
      <stop offset="0.0" stop-color="#000000" stop-opacity="0.4"/>
      <stop offset="1.0" stop-color="#14130f"/>
    </linearGradient>
    <linearGradient gradientTransform="matrix(4.0E-4, -1.0E-4, 1.0E-4, 4.0E-4, 3.0, 2.8)" gradientUnits="userSpaceOnUse" id="gradient3" spreadMethod="pad" x1="-819.2" x2="819.2">
      <stop offset="0.0" stop-color="#000000" stop-opacity="0.4"/>
      <stop offset="1.0" stop-color="#14130f"/>
    </linearGradient>
    <linearGradient gradientTransform="matrix(4.0E-4, -1.0E-4, 1.0E-4, 4.0E-4, 11.25, -3.25)" gradientUnits="userSpaceOnUse" id="gradient4" spreadMethod="pad" x1="-819.2" x2="819.2">
      <stop offset="0.0" stop-color="#000000" stop-opacity="0.4"/>
      <stop offset="1.0" stop-color="#14130f"/>
    </linearGradient>
    <linearGradient gradientTransform="matrix(4.0E-4, -1.0E-4, 1.0E-4, 4.0E-4, 7.8, 5.65)" gradientUnits="userSpaceOnUse" id="gradient5" spreadMethod="pad" x1="-819.2" x2="819.2">
      <stop offset="0.0" stop-color="#000000" stop-opacity="0.4"/>
      <stop offset="1.0" stop-color="#14130f"/>
    </linearGradient>
    <linearGradient gradientTransform="matrix(4.0E-4, -1.0E-4, 1.0E-4, 4.0E-4, 10.5, 7.0)" gradientUnits="userSpaceOnUse" id="gradient6" spreadMethod="pad" x1="-819.2" x2="819.2">
      <stop offset="0.0" stop-color="#000000" stop-opacity="0.4"/>
      <stop offset="1.0" stop-color="#14130f"/>
    </linearGradient>
  </defs>
</svg>
