<?xml version="1.0" encoding="UTF-8" standalone="no"?>
<svg xmlns:xlink="http://www.w3.org/1999/xlink" height="440.0px" width="440.0px" xmlns="http://www.w3.org/2000/svg">
  <g transform="matrix(10.0, 0.0, 0.0, 10.0, 0.0, 0.0)">
    <use height="44.0" transform="matrix(0.9091, 0.0, 0.0, 0.9091, 2.0, 2.0)" width="44.0" xlink:href="#sprite0"/>
  </g>
  <defs>
    <g id="sprite0" transform="matrix(1.0, 0.0, 0.0, 1.0, 0.0, 0.0)">
      <use height="44.0" transform="matrix(1.0, 0.0, 0.0, 1.0, 0.0, 0.0)" width="44.0" xlink:href="#shape0"/>
      <use height="33.7" transform="matrix(1.1276, 0.0, 0.0, 1.1276, 11.45, 3.0)" width="18.7" xlink:href="#sprite1"/>
    </g>
    <g id="shape0" transform="matrix(1.0, 0.0, 0.0, 1.0, 0.0, 0.0)">
      <path d="M44.0 44.0 L0.0 44.0 0.0 0.0 44.0 0.0 44.0 44.0" fill="#43adca" fill-opacity="0.0" fill-rule="evenodd" stroke="none"/>
    </g>
    <g id="sprite1" transform="matrix(1.0, 0.0, 0.0, 1.0, 0.0, 0.0)">
      <use height="33.7" transform="matrix(1.0, 0.0, 0.0, 1.0, 0.0, 0.0)" width="18.7" xlink:href="#sprite2"/>
    </g>
    <g id="sprite2" transform="matrix(1.0, 0.0, 0.0, 1.0, 3.95, 20.55)">
      <use height="33.7" transform="matrix(1.0, 0.0, 0.0, 1.0, -3.95, -20.55)" width="18.7" xlink:href="#shape1"/>
    </g>
    <g id="shape1" transform="matrix(1.0, 0.0, 0.0, 1.0, 3.95, 20.55)">
      <path d="M0.6 -16.5 L2.0 -19.25 Q-0.7 -18.2 -2.75 -13.95 L0.6 -16.5" fill="#435203" fill-rule="evenodd" stroke="none"/>
      <path d="M0.6 -16.5 L-2.75 -13.95 Q-0.7 -18.2 2.0 -19.25" fill="none" stroke="#000000" stroke-linecap="round" stroke-linejoin="round" stroke-opacity="0.3019608" stroke-width="0.05"/>
      <path d="M13.75 -12.35 Q15.15 -8.3 14.6 -3.05 L13.45 -8.9 13.75 -12.35" fill="#435203" fill-rule="evenodd" stroke="none"/>
      <path d="M13.45 -8.9 L14.6 -3.05 Q15.15 -8.3 13.75 -12.35" fill="none" stroke="#000000" stroke-linecap="round" stroke-linejoin="round" stroke-opacity="0.3019608" stroke-width="0.05"/>
      <path d="M-2.3 2.05 Q-2.6 -5.95 -0.85 -9.2 -0.9 -5.3 -2.3 2.05" fill="#2d4806" fill-rule="evenodd" stroke="none"/>
      <path d="M-2.3 2.05 Q-2.6 -5.95 -0.85 -9.2 -0.9 -5.3 -2.3 2.05 Z" fill="none" stroke="#000000" stroke-linecap="round" stroke-linejoin="round" stroke-opacity="0.3019608" stroke-width="0.05"/>
      <path d="M-3.95 -0.1 Q-2.05 -8.45 -0.05 -11.7 -1.1 -7.7 -3.95 -0.1" fill="#2d4806" fill-rule="evenodd" stroke="none"/>
      <path d="M-3.95 -0.1 Q-2.05 -8.45 -0.05 -11.7 -1.1 -7.7 -3.95 -0.1 Z" fill="none" stroke="#000000" stroke-linecap="round" stroke-linejoin="round" stroke-opacity="0.3019608" stroke-width="0.05"/>
      <path d="M10.6 4.6 Q11.15 3.55 11.4 4.85 L10.65 10.1 10.6 4.6" fill="#596f04" fill-rule="evenodd" stroke="none"/>
      <path d="M11.4 4.85 Q11.15 3.55 10.6 4.6 10.65 0.8 11.0 -1.5 11.7 1.0 11.4 4.85" fill="#435203" fill-rule="evenodd" stroke="none"/>
      <path d="M10.6 4.6 L10.65 10.1 11.4 4.85 Q11.7 1.0 11.0 -1.5 10.65 0.8 10.6 4.6 Z" fill="none" stroke="#000000" stroke-linecap="round" stroke-linejoin="round" stroke-opacity="0.3019608" stroke-width="0.05"/>
      <path d="M12.75 3.85 L13.15 9.0 12.35 4.1 Q12.55 3.0 12.75 3.85" fill="#596f04" fill-rule="evenodd" stroke="none"/>
      <path d="M12.75 3.85 Q12.55 3.0 12.35 4.1 11.5 -1.25 11.2 -4.3 12.15 -1.35 12.75 3.85" fill="#435203" fill-rule="evenodd" stroke="none"/>
      <path d="M12.35 4.1 L13.15 9.0 12.75 3.85 M12.35 4.1 Q11.5 -1.25 11.2 -4.3 12.15 -1.35 12.75 3.85" fill="none" stroke="#000000" stroke-linecap="round" stroke-linejoin="round" stroke-opacity="0.3019608" stroke-width="0.05"/>
      <path d="M10.75 -13.8 L11.15 -14.15 11.5 -14.5 11.7 -14.5 11.1 -13.65 10.75 -13.8" fill="#ca0202" fill-rule="evenodd" stroke="none"/>
      <path d="M10.75 -13.8 L11.1 -13.65 10.65 -11.15 10.6 -13.65 10.75 -13.8 M10.65 3.25 L9.95 3.75 9.9 3.75 9.75 2.4 9.55 4.0 9.15 4.25 8.15 7.85 7.65 8.7 Q6.85 8.45 6.8 4.75 L6.8 4.2 7.2 3.1 Q7.65 1.9 7.65 0.45 L7.65 -1.2 7.6 -1.55 7.15 -2.95 7.35 -4.75 7.35 -4.8 7.7 -5.3 Q7.9 -4.05 8.35 -4.0 9.5 -4.8 9.45 -5.25 9.85 -7.5 10.75 -7.75 L11.1 -7.8 Q11.55 -7.7 11.7 -7.05 L11.25 -5.5 10.35 -3.4 10.75 -7.75 10.35 -3.4 9.2 -0.55 10.25 -2.5 11.75 -4.9 Q12.05 -3.85 12.0 -1.55 L12.05 -1.0 12.05 -0.9 12.0 -0.55 11.75 1.25 10.65 3.25 M7.2 9.45 L6.5 10.75 6.15 10.55 Q6.85 8.85 7.2 9.45 M9.85 1.45 L10.25 -2.5 9.85 1.45 M8.7 -3.4 L8.45 -3.2 8.3 -2.4 8.25 -1.45 8.3 -0.55 Q8.4 -0.25 8.55 -0.95 L8.8 -2.2 8.8 -3.05 8.7 -3.4" fill="#a03111" fill-rule="evenodd" stroke="none"/>
      <path d="M7.65 8.7 L7.2 9.45 Q6.85 8.85 6.15 10.55 L5.85 10.35 6.4 8.8 6.7 7.75 6.7 6.6 6.8 4.75 Q6.85 8.45 7.65 8.7 M3.15 12.8 L2.6 12.4 2.9 11.05 3.15 12.8 M12.05 -1.0 L12.05 -0.9 12.05 -1.0 M3.6 -15.5 L3.9 -15.3 4.0 -15.25 4.45 -13.45 3.5 -15.05 3.6 -15.5 M8.7 -3.4 L8.8 -3.05 8.8 -2.2 8.55 -0.95 Q8.4 -0.25 8.3 -0.55 L8.25 -1.45 8.3 -2.4 8.45 -3.2 8.7 -3.4 M5.65 0.05 L5.85 -0.7 6.1 -1.85 6.4 -1.25 6.35 1.0 6.3 1.75 6.25 2.35 Q5.65 5.25 5.55 3.65 5.45 2.1 5.65 0.25 L5.65 0.05" fill="#836d27" fill-rule="evenodd" stroke="none"/>
      <path d="M11.1 -13.65 L11.7 -14.5 12.6 -14.6 13.15 -14.4 12.15 -13.2 11.1 -13.65 M0.75 -19.8 L2.15 -20.35 1.85 -18.8 Q1.35 -19.9 0.75 -19.8 M3.9 -15.85 L4.25 -16.3 5.4 -15.9 3.9 -15.3 3.6 -15.5 3.9 -15.85" fill="#d8ca7c" fill-rule="evenodd" stroke="none"/>
      <path d="M13.15 -14.4 L13.85 -13.6 12.75 -11.95 12.15 -13.2 13.15 -14.4 M2.15 -20.35 L2.4 -20.55 3.85 -16.45 2.7 -16.1 1.85 -18.8 2.15 -20.35 M5.4 -15.9 L6.4 -12.45 5.6 -11.95 4.85 -11.65 4.45 -13.45 4.0 -15.25 3.9 -15.3 5.4 -15.9 M7.35 -13.45 L7.4 -13.55 7.6 -13.7 8.05 -14.15 10.0 -13.1 9.5 -12.9 8.4 -12.75 7.75 -13.2 8.25 -13.4 7.75 -13.2 7.4 -13.45 7.35 -13.45" fill="#b19741" fill-rule="evenodd" stroke="none"/>
      <path d="M13.85 -13.6 L13.9 -13.5 Q14.15 -10.65 13.8 -6.6 L13.7 -5.1 12.6 0.1 12.1 0.75 12.05 -0.9 12.05 -1.0 12.15 -1.6 12.55 -5.6 12.75 -9.55 12.75 -11.95 13.85 -13.6 M6.15 10.55 L5.2 11.8 3.75 13.15 5.55 10.15 6.4 8.8 5.85 10.35 6.15 10.55 M0.9 3.7 L-0.15 4.15 0.15 3.9 0.5 3.55 0.9 3.6 0.9 3.7 M3.85 -16.45 L3.9 -15.85 3.6 -15.5 3.5 -15.05 3.25 -14.2 2.75 -14.85 2.8 -16.0 2.8 -16.05 2.7 -16.1 3.85 -16.45" fill="#64431c" fill-rule="evenodd" stroke="none"/>
      <path d="M2.65 -12.2 L2.45 -11.5 1.8 -11.65 1.55 -11.5 1.45 -11.3 0.65 -9.2 0.55 -8.85 -0.2 -8.35 Q-0.9 -8.85 -0.65 -11.2 L-0.7 -11.5 -0.65 -11.6 -0.6 -11.85 Q-0.05 -13.5 1.05 -13.95 1.9 -14.25 2.7 -13.65 L2.65 -12.2 M8.2 -10.0 L8.4 -12.75 9.5 -12.9 8.75 -12.55 8.2 -10.0" fill="#6f5122" fill-rule="evenodd" stroke="none"/>
      <path d="M13.7 -5.1 L13.1 -0.65 11.9 1.7 10.65 3.25 11.75 1.25 12.1 0.75 11.75 1.25 12.0 -0.55 12.05 -0.9 12.1 0.75 12.6 0.1 13.1 -0.65 12.6 0.1 13.7 -5.1 M9.95 3.75 L9.9 3.95 9.85 4.15 9.05 6.6 8.15 7.85 9.15 4.25 9.55 4.0 9.9 3.75 9.95 3.75" fill="#560000" fill-rule="evenodd" stroke="none"/>
      <path d="M3.75 13.15 L3.6 13.05 3.15 12.8 2.9 11.05 2.85 10.75 2.85 10.7 2.6 9.4 2.95 6.2 1.85 2.6 3.35 -2.75 3.1 -7.55 3.95 -9.1 4.0 -8.9 3.55 -5.85 4.3 -8.2 4.8 -6.05 4.95 -2.6 Q4.9 -1.85 5.2 -1.35 L5.05 1.1 5.4 -1.05 5.4 -1.0 5.45 -1.35 5.65 -1.85 Q6.25 -3.5 6.85 -3.9 L7.35 -4.75 7.15 -2.95 6.85 -0.2 6.8 4.2 6.8 4.75 6.7 6.6 5.55 10.15 3.75 13.15 M5.65 0.05 L5.65 0.25 Q5.45 2.1 5.55 3.65 5.65 5.25 6.25 2.35 L6.3 1.75 6.35 1.0 6.4 -1.25 6.1 -1.85 5.85 -0.7 5.65 0.05 M3.4 5.7 L3.45 4.75 3.4 5.7 M4.7 3.25 L4.4 4.15 4.3 5.85 4.4 4.15 4.7 3.25 M3.6 13.05 L3.7 11.2 3.6 13.05" fill="#d7d02c" fill-rule="evenodd" stroke="none"/>
      <path d="M-1.3 -0.25 L-2.05 -5.0 Q-2.2 -7.7 -1.9 -8.5 L-1.75 -6.7 -1.7 -9.75 Q-1.05 -12.95 -0.5 -13.45 L-0.65 -11.6 -0.7 -11.5 -0.65 -11.2 Q-0.9 -8.85 -0.2 -8.35 L0.55 -8.85 0.65 -9.2 1.45 -11.3 0.95 -2.6 0.45 -0.35 -0.3 1.15 Q-0.75 1.45 -1.3 -0.25 M1.35 -4.8 L1.55 -3.2 Q1.65 -2.1 0.9 -1.1 L1.05 -2.2 1.05 -2.7 1.25 -4.7 1.25 -5.0 1.35 -4.8" fill="#686e11" fill-rule="evenodd" stroke="none"/>
      <path d="M2.6 12.4 L0.95 5.5 0.9 3.7 0.9 3.6 0.8 0.15 0.9 -1.1 Q1.65 -2.1 1.55 -3.2 L1.35 -4.8 1.6 -6.75 1.35 -4.8 1.25 -5.0 1.6 -6.75 2.15 -10.5 2.4 -11.35 2.6 -11.1 3.95 -9.1 3.1 -7.55 3.35 -2.75 1.85 2.6 2.95 6.2 2.6 9.4 2.85 10.7 2.85 10.75 2.9 11.05 2.6 12.4 M6.4 -12.45 L7.35 -13.45 7.4 -13.45 7.3 -12.8 Q7.15 -10.05 5.9 -8.95 5.45 -9.5 5.5 -10.45 L5.6 -11.95 6.4 -12.45" fill="#bbaf2a" fill-rule="evenodd" stroke="none"/>
      <path d="M2.85 10.7 L2.85 10.75 2.85 10.7" fill="#eae17a" fill-rule="evenodd" stroke="none"/>
      <path d="M3.25 -14.2 L3.25 -14.15 2.65 -12.2 2.7 -13.65 2.75 -14.85 3.25 -14.2 M0.8 0.15 L0.9 3.6 0.5 3.55 0.7 1.6 0.8 0.15 M6.7 6.6 L6.7 7.75 6.4 8.8 5.55 10.15 6.7 6.6" fill="#382510" fill-rule="evenodd" stroke="none"/>
      <path d="M-0.2 -19.4 L0.75 -19.8 Q1.35 -19.9 1.85 -18.8 L2.7 -16.1 2.8 -16.05 2.8 -16.0 2.75 -14.85 2.7 -13.65 Q1.9 -14.25 1.05 -13.95 -0.05 -13.5 -0.6 -11.85 L-0.65 -11.6 -0.5 -13.45 -0.4 -14.35 -0.25 -16.45 -0.15 -16.5 Q0.0 -17.35 0.0 -18.3 0.05 -18.95 -0.2 -19.4 M3.25 -14.15 L3.25 -14.2 3.5 -15.05 4.45 -13.45 4.85 -11.65 4.85 -11.5 4.5 -10.1 3.95 -9.1 2.6 -11.1 2.4 -11.35 2.45 -11.5 2.65 -12.2 3.25 -14.15 M5.2 -1.35 L5.4 -1.05 5.05 1.1 5.2 -1.35" fill="#755c24" fill-rule="evenodd" stroke="none"/>
      <path d="M10.35 -3.4 L11.25 -5.5 11.7 -7.05 11.75 -4.9 10.25 -2.5 9.2 -0.55 10.35 -3.4 10.25 -2.5 10.35 -3.4" fill="#922910" fill-rule="evenodd" stroke="none"/>
      <path d="M0.15 3.9 L0.7 1.6 0.5 3.55 0.15 3.9" fill="#978e24" fill-rule="evenodd" stroke="none"/>
      <path d="M-2.05 -9.7 L-1.7 -11.95 -1.7 -12.05 -1.7 -12.0 -1.7 -9.75 -1.75 -6.7 -1.9 -8.5 -2.05 -9.7" fill="#60600f" fill-rule="evenodd" stroke="none"/>
      <path d="M7.15 -2.95 L7.6 -1.55 7.65 -1.2 7.65 0.45 Q7.65 1.9 7.2 3.1 L6.8 4.2 6.85 -0.2 7.15 -2.95" fill="#b97a1d" fill-rule="evenodd" stroke="none"/>
      <path d="M10.0 -13.1 L10.6 -13.65 10.65 -11.15 11.1 -13.65 12.15 -13.2 12.75 -11.95 12.75 -9.55 12.55 -5.6 12.15 -1.6 12.05 -1.0 12.0 -1.55 Q12.05 -3.85 11.75 -4.9 L11.7 -7.05 Q11.55 -7.7 11.1 -7.8 L10.75 -7.75 Q9.85 -7.5 9.45 -5.25 9.5 -4.8 8.35 -4.0 7.9 -4.05 7.7 -5.3 L7.35 -4.8 8.2 -10.0 8.75 -12.55 9.5 -12.9 10.0 -13.1 M10.85 -9.05 L10.75 -7.75 10.85 -9.05" fill="url(#gradient0)" fill-rule="evenodd" stroke="none"/>
      <path d="M3.95 -9.1 L4.5 -10.1 4.85 -11.5 4.85 -11.65 5.6 -11.95 5.5 -10.45 Q5.45 -9.5 5.9 -8.95 7.15 -10.05 7.3 -12.8 L7.4 -13.45 7.75 -13.2 8.4 -12.75 8.2 -10.0 7.35 -4.8 7.35 -4.75 6.85 -3.9 Q6.25 -3.5 5.65 -1.85 L5.45 -1.35 5.4 -1.0 5.4 -1.05 5.2 -1.35 Q4.9 -1.85 4.95 -2.6 L4.8 -6.05 4.3 -8.2 4.25 -8.45 4.0 -8.9 3.95 -9.1 M6.5 -5.35 L6.9 -7.35 7.05 -9.05 7.75 -13.2 7.05 -9.05 6.9 -7.35 6.5 -5.35" fill="url(#gradient1)" fill-rule="evenodd" stroke="none"/>
      <path d="M9.9 3.75 L9.55 4.0 9.75 2.4 9.9 3.75" fill="#796124" fill-rule="evenodd" stroke="none"/>
      <path d="M4.0 -8.9 L4.25 -8.45 4.3 -8.2 3.55 -5.85 4.0 -8.9" fill="#7d6525" fill-rule="evenodd" stroke="none"/>
      <path d="M-1.7 -12.05 L-1.65 -12.05 -1.7 -12.0 -1.7 -12.05" fill="#bbaf2b" fill-rule="evenodd" stroke="none"/>
      <path d="M-2.05 -5.0 L-2.35 -7.25 -2.05 -9.7 -1.9 -8.5 Q-2.2 -7.7 -2.05 -5.0 M-1.7 -12.05 L-1.1 -15.55 -0.3 -19.4 -0.2 -19.4 Q0.05 -18.95 0.0 -18.3 0.0 -17.35 -0.15 -16.5 L-0.25 -16.45 -0.4 -14.35 -0.5 -13.45 Q-1.05 -12.95 -1.7 -9.75 L-1.7 -12.0 -1.65 -12.05 -1.7 -12.05" fill="#94a707" fill-rule="evenodd" stroke="none"/>
      <path d="M-0.15 4.15 L-0.2 4.25 -1.2 0.0 -1.3 -0.25 Q-0.75 1.45 -0.3 1.15 L0.45 -0.35 0.95 -2.6 1.45 -11.3 1.55 -11.5 1.8 -11.65 2.45 -11.5 2.4 -11.35 2.15 -10.5 1.6 -6.75 1.25 -5.0 1.25 -4.7 1.05 -2.7 1.05 -2.2 0.9 -1.1 0.8 0.15 0.7 1.6 0.15 3.9 -0.15 4.15" fill="#695c1b" fill-rule="evenodd" stroke="none"/>
      <path d="M11.7 -14.5 L11.5 -14.5 11.15 -14.15 10.75 -13.8 M11.7 -14.5 L12.6 -14.6 13.15 -14.4 13.85 -13.6 13.9 -13.5 Q14.15 -10.65 13.8 -6.6 M13.7 -5.1 L13.1 -0.65 11.9 1.7 10.65 3.25 9.95 3.75 9.9 3.95 M9.85 4.15 L9.05 6.6 8.15 7.85 7.65 8.7 7.2 9.45 6.5 10.75 6.15 10.55 5.2 11.8 3.75 13.15 3.6 13.05 3.15 12.8 2.6 12.4 0.95 5.5 0.9 3.7 -0.15 4.15 -0.2 4.25 -1.2 0.0 -1.3 -0.25 -2.05 -5.0 -2.35 -7.25 -2.05 -9.7 -1.7 -11.95 -1.7 -12.05 -1.1 -15.55 -0.3 -19.4 -0.2 -19.4 0.75 -19.8 2.15 -20.35 2.4 -20.55 3.85 -16.45 3.9 -15.85 4.25 -16.3 5.4 -15.9 6.4 -12.45 7.35 -13.45 7.4 -13.55 M7.6 -13.7 L8.05 -14.15 10.0 -13.1 10.6 -13.65 10.75 -13.8 M12.55 -5.6 L12.75 -9.55 12.75 -11.95 M12.6 0.1 L12.1 0.75 11.75 1.25 10.65 3.25 M13.1 -0.65 L12.6 0.1 M9.55 4.0 L9.9 3.75 9.95 3.75 M9.55 4.0 L9.15 4.25 M11.75 1.25 L12.0 -0.55 M3.9 -15.85 L3.6 -15.5 3.5 -15.05 3.25 -14.2 M3.25 -14.15 L2.65 -12.2 2.45 -11.5 2.4 -11.35 2.15 -10.5 1.6 -6.75 1.25 -5.0 1.25 -4.7 1.05 -2.7 M4.85 -11.5 L4.85 -11.65 M2.7 -16.1 L2.8 -16.05 2.8 -16.0 M0.9 -1.1 L0.8 0.15 0.9 3.6 0.9 3.7 M2.85 10.7 L2.85 10.75 2.9 11.05 3.15 12.8 M7.35 -4.75 L7.35 -4.8 8.2 -10.0 M10.0 -13.1 L9.5 -12.9 8.75 -12.55 8.2 -10.0 M5.6 -11.95 L4.85 -11.65 M6.4 -12.45 L5.6 -11.95 M7.15 -2.95 L6.85 -0.2 6.8 4.2 6.8 4.75 6.7 6.6 6.7 7.75 6.4 8.8 5.85 10.35 6.15 10.55 M7.35 -4.75 L7.15 -2.95 M1.05 -2.2 L0.9 -1.1 M0.15 3.9 L0.5 3.55 0.7 1.6 0.8 0.15 M0.5 3.55 L0.9 3.6 M-0.15 4.15 L0.15 3.9 M5.55 10.15 L6.4 8.8 M5.55 10.15 L6.7 6.6 M3.75 13.15 L5.55 10.15 M2.6 12.4 L2.9 11.05" fill="none" stroke="#382510" stroke-linecap="round" stroke-linejoin="round" stroke-opacity="0.5019608" stroke-width="0.05"/>
      <path d="M10.35 -3.4 L10.25 -2.5 9.85 1.45 M10.75 -7.75 L10.35 -3.4 M10.75 -7.75 L10.85 -9.05 M9.75 2.4 L9.55 4.0 M1.6 -6.75 L1.35 -4.8 M7.75 -13.2 L7.05 -9.05 6.9 -7.35 6.5 -5.35 M7.75 -13.2 L8.25 -13.4 M1.05 -2.7 L1.05 -2.2 M4.3 5.85 L4.4 4.15 4.7 3.25 M3.45 4.75 L3.4 5.7 M3.7 11.2 L3.6 13.05" fill="none" stroke="#382510" stroke-linecap="round" stroke-linejoin="round" stroke-opacity="0.3019608" stroke-width="0.05"/>
      <path d="M-0.5 -13.45 L-0.4 -14.35" fill="none" stroke="#000000" stroke-linecap="round" stroke-linejoin="round" stroke-opacity="0.2509804" stroke-width="0.05"/>
      <path d="M5.9 -9.75 L5.05 -4.45 3.5 -5.55 4.45 -10.6 M3.5 -5.55 L3.0 -1.45 M4.55 -1.2 L5.05 -4.45" fill="none" stroke="#382510" stroke-linecap="round" stroke-linejoin="round" stroke-opacity="0.3019608" stroke-width="0.05"/>
      <path d="M5.05 7.95 L4.85 7.5 4.75 6.95 Q4.75 6.65 4.95 6.5 L5.25 6.5 5.5 6.9 5.6 7.5 5.4 7.9 5.05 7.95 M4.05 2.1 L4.2 3.3 3.8 4.2 Q3.5 4.45 3.15 4.2 L2.6 3.35 Q2.4 2.7 2.5 2.1 2.55 1.45 2.85 1.25 L3.5 1.2 4.05 2.1 M2.75 6.0 L2.45 6.0 2.4 5.95 2.35 6.15 2.15 6.15 2.05 5.95 2.0 5.65 2.1 5.4 2.2 5.35 2.2 5.2 Q2.2 4.9 2.4 4.85 L2.6 4.85 2.85 5.2 2.85 5.65 2.75 6.0 M2.5 9.2 L2.45 8.95 2.55 8.8 2.65 8.8 2.75 8.95 2.8 9.2 2.7 9.35 2.6 9.4 2.5 9.2" fill="#b97a1d" fill-rule="evenodd" stroke="none"/>
    </g>
    <linearGradient gradientTransform="matrix(-0.0033, -0.0055, 0.0035, -0.0041, 10.8, -7.25)" gradientUnits="userSpaceOnUse" id="gradient0" spreadMethod="pad" x1="-819.2" x2="819.2">
      <stop offset="0.0" stop-color="#755c24"/>
      <stop offset="0.9882352941176471" stop-color="#836d27"/>
    </linearGradient>
    <linearGradient gradientTransform="matrix(3.0E-4, -0.0042, 0.0025, 7.0E-4, 5.9, -7.4)" gradientUnits="userSpaceOnUse" id="gradient1" spreadMethod="pad" x1="-819.2" x2="819.2">
      <stop offset="0.0" stop-color="#755c24"/>
      <stop offset="0.9882352941176471" stop-color="#836d27"/>
    </linearGradient>
  </defs>
</svg>
