<?xml version="1.0" encoding="UTF-8" standalone="no"?>
<svg xmlns:xlink="http://www.w3.org/1999/xlink" height="520.0px" width="520.0px" xmlns="http://www.w3.org/2000/svg">
  <g transform="matrix(10.0, 0.0, 0.0, 10.0, 0.0, 0.0)">
    <use height="52.0" transform="matrix(1.0, 0.0, 0.0, 1.0, 0.0, 0.0)" width="52.0" xlink:href="#shape0"/>
    <use height="37.7" transform="matrix(-0.0537, 0.0774, -0.1681, -0.0601, 36.1, 21.35)" width="37.7" xlink:href="#sprite0"/>
    <use height="37.7" transform="matrix(0.3358, 0.1948, -0.3714, 0.2079, 30.95, 7.0)" width="37.7" xlink:href="#sprite0"/>
    <use height="37.7" transform="matrix(-0.3216, 0.4757, -0.1922, -0.1115, 44.85, 23.5)" width="37.7" xlink:href="#sprite0"/>
    <use height="37.7" transform="matrix(0.2386, 0.1765, -0.4137, 0.466, 20.0, 5.1)" width="37.7" xlink:href="#sprite0"/>
    <use height="20.95" transform="matrix(-0.0623, 0.2364, -0.3353, -0.0405, 18.2, 16.6)" width="24.45" xlink:href="#sprite1"/>
    <use height="20.95" transform="matrix(-0.2104, 0.3915, -0.5635, -0.1673, 43.95, 19.25)" width="24.45" xlink:href="#sprite1"/>
  </g>
  <defs>
    <g id="shape0" transform="matrix(1.0, 0.0, 0.0, 1.0, 0.0, 0.0)">
      <path d="M52.0 52.0 L0.0 52.0 0.0 0.0 52.0 0.0 52.0 52.0" fill="#515151" fill-opacity="0.0" fill-rule="evenodd" stroke="none"/>
      <path d="M43.7 13.95 L48.5 11.2 44.8 16.6 44.7 16.65 42.4 17.15 42.15 17.2 42.2 17.15 43.35 14.1 43.6 14.0 43.7 13.95 43.6 14.0 43.35 14.1 42.2 17.15 42.15 17.2 42.4 17.15 44.7 16.65 Q45.0 22.5 42.6 27.85 38.15 37.3 25.0 45.15 L24.4 46.25 19.4 48.6 22.15 45.55 Q30.05 34.15 24.6 33.7 27.1 27.15 17.15 35.25 L16.9 36.7 10.9 42.1 14.05 34.95 15.6 34.15 Q20.1 23.0 15.1 27.05 13.1 22.7 5.35 32.9 L3.85 35.45 4.45 30.75 5.2 30.0 Q8.1 17.15 14.9 10.85 18.8 7.4 23.9 6.05 L23.9 5.95 27.4 1.45 26.8 4.45 27.3 4.1 32.15 2.45 29.35 6.5 Q33.25 3.8 36.7 2.2 36.4 3.95 35.35 5.85 36.7 4.2 39.85 2.4 L40.5 1.55 Q39.9 5.0 38.75 6.8 40.2 5.25 41.85 4.55 41.7 8.2 40.5 12.6 L43.4 8.9 43.7 13.95 M26.65 5.25 L26.8 4.45 26.65 5.25 M26.4 6.15 L26.45 5.85 26.4 6.15 26.9 7.4 26.4 6.15 26.35 6.35 24.15 8.3 Q17.6 19.35 15.1 27.05 16.3 19.05 24.15 8.0 L23.9 6.05 24.15 8.0 Q16.3 19.05 15.1 27.05 17.6 19.35 24.15 8.3 L26.35 6.35 26.4 6.15 M26.9 7.4 L26.95 7.5 26.95 7.45 26.9 7.4 M5.2 30.0 L6.05 29.15 6.25 31.45 5.35 32.9 6.25 31.45 6.05 29.15 5.2 30.0 M17.2 33.35 L15.6 34.15 17.2 33.35 28.1 18.5 28.05 18.5 28.7 14.7 31.25 12.45 28.7 14.7 28.05 18.5 28.1 18.5 28.25 18.4 31.3 16.65 31.9 15.4 32.8 13.45 31.9 15.4 31.3 16.65 28.25 18.4 28.1 18.5 17.2 33.35 17.55 33.15 17.15 35.25 17.55 33.15 17.2 33.35 M42.4 17.15 Q32.95 29.5 24.6 33.7 32.2 28.2 42.2 17.15 32.2 28.2 24.6 33.7 32.95 29.5 42.4 17.15 M25.0 45.15 L25.6 44.05 22.95 44.65 22.15 45.55 22.95 44.65 25.6 44.05 25.0 45.15 M39.6 14.0 L41.4 13.95 39.6 14.0 M42.95 14.0 L43.6 14.0 42.95 14.0 M31.9 15.4 L33.05 15.0 31.9 15.4 M24.15 8.0 L24.15 8.3 24.15 8.0 M27.35 8.6 L26.95 7.5 27.35 8.6" fill="#000000" fill-rule="evenodd" stroke="none"/>
      <path d="M44.7 16.65 L44.8 16.6 48.5 11.2 43.7 13.95 43.6 14.0 43.35 14.1 42.2 17.15 42.15 17.2 42.4 17.15 44.7 16.65 Q45.0 22.5 42.6 27.85 38.15 37.3 25.0 45.15 L24.4 46.25 19.4 48.6 22.15 45.55 Q30.05 34.15 24.6 33.7 27.1 27.15 17.15 35.25 L16.9 36.7 10.9 42.1 14.05 34.95 15.6 34.15 Q20.1 23.0 15.1 27.05 13.1 22.7 5.35 32.9 L3.85 35.45 4.45 30.75 5.2 30.0 Q8.1 17.15 14.9 10.85 18.8 7.4 23.9 6.05 L23.9 5.95 27.4 1.45 26.8 4.45 27.3 4.1 32.15 2.45 29.35 6.5 Q33.25 3.8 36.7 2.2 36.4 3.95 35.35 5.85 36.7 4.2 39.85 2.4 L40.5 1.55 Q39.9 5.0 38.75 6.8 40.2 5.25 41.85 4.55 41.7 8.2 40.5 12.6 L43.4 8.9 43.7 13.95 M26.9 7.4 L26.4 6.15 26.35 6.35 24.15 8.3 Q17.6 19.35 15.1 27.05 16.3 19.05 24.15 8.0 L23.9 6.05 M26.45 5.85 L26.4 6.15 M26.8 4.45 L26.65 5.25 M26.9 7.4 L26.95 7.5 27.35 8.6 M24.15 8.3 L24.15 8.0 M31.25 12.45 L28.7 14.7 28.05 18.5 28.1 18.5 28.25 18.4 31.3 16.65 31.9 15.4 32.8 13.45 M33.05 15.0 L31.9 15.4 M43.6 14.0 L42.95 14.0 M41.4 13.95 L39.6 14.0 M22.15 45.55 L22.95 44.65 25.6 44.05 25.0 45.15 M42.2 17.15 Q32.2 28.2 24.6 33.7 32.95 29.5 42.4 17.15 M28.1 18.5 L17.2 33.35 17.55 33.15 17.15 35.25 M15.6 34.15 L17.2 33.35 M5.35 32.9 L6.25 31.45 6.05 29.15 5.2 30.0" fill="none" stroke="#000000" stroke-linecap="round" stroke-linejoin="round" stroke-opacity="0.3019608" stroke-width="1.0"/>
      <path d="M27.1 7.5 L27.0 7.45 27.05 7.6 27.1 7.5 Z" fill="none" stroke="#000000" stroke-linecap="round" stroke-linejoin="round" stroke-opacity="0.3019608" stroke-width="1.0"/>
      <path d="M40.45 1.55 Q39.9 5.0 38.8 6.8 40.25 5.25 41.9 4.55 41.7 8.2 40.5 12.6 L43.45 8.9 43.7 13.9 Q43.7 15.1 41.9 15.5 L40.55 15.1 Q39.6 15.75 37.3 15.9 37.75 16.35 37.45 16.45 L32.8 16.65 29.25 17.0 Q29.9 14.65 40.45 1.55" fill="#241917" fill-rule="evenodd" stroke="none"/>
      <path d="M32.6 15.7 Q36.75 10.2 41.15 6.1 40.65 11.25 39.2 15.3 L32.6 15.7" fill="#614c37" fill-rule="evenodd" stroke="none"/>
      <path d="M41.4 13.9 Q41.6 12.5 43.15 9.7 43.25 12.65 42.65 15.45 41.65 15.1 41.4 13.9" fill="#614c37" fill-rule="evenodd" stroke="none"/>
      <path d="M29.85 15.75 Q32.6 10.9 39.2 3.0 36.7 9.45 33.7 12.5 30.75 15.55 29.85 15.75" fill="#614c37" fill-rule="evenodd" stroke="none"/>
      <path d="M23.0 46.35 Q21.85 46.9 20.7 47.55 30.5 34.2 24.65 33.7 33.55 29.25 43.55 15.6 37.35 26.15 31.3 31.5 33.4 38.35 23.0 46.35" fill="#7d4a35" fill-rule="evenodd" stroke="none"/>
      <path d="M43.55 15.6 L43.5 15.7 44.05 14.65 43.55 15.6" fill="#653d2c" fill-rule="evenodd" stroke="none"/>
      <path d="M43.0 16.2 L43.5 15.7 43.55 15.6 Q45.1 20.9 42.6 27.85 37.9 38.05 23.0 46.35 33.4 38.35 31.3 31.5 37.35 26.15 43.55 15.6 L43.0 16.2" fill="#cc6024" fill-rule="evenodd" stroke="none"/>
      <path d="M44.05 14.65 L44.35 14.05 Q45.55 21.3 42.6 27.85 45.1 20.9 43.55 15.6 L44.05 14.65" fill="#de6928" fill-rule="evenodd" stroke="none"/>
      <path d="M43.0 16.2 L43.55 15.6 Q33.55 29.25 24.65 33.7 32.55 27.95 43.0 16.2" fill="#3d241a" fill-rule="evenodd" stroke="none"/>
      <path d="M43.5 15.7 L43.0 16.2 42.55 16.7 Q33.35 25.85 28.55 28.15 23.2 28.5 18.4 33.3 L26.75 20.65 Q32.85 14.6 43.5 15.7" fill="#853f17" fill-rule="evenodd" stroke="none"/>
      <path d="M26.75 20.65 L18.4 33.3 Q23.2 28.5 28.55 28.15 33.35 25.85 42.55 16.7 L43.0 16.2 Q32.55 27.95 24.65 33.7 27.6 26.05 13.4 38.4 L29.55 16.45 26.75 20.65" fill="#543123" fill-rule="evenodd" stroke="none"/>
      <path d="M43.5 15.7 Q32.85 14.6 26.75 20.65 L29.55 16.45 29.6 16.4 Q35.25 13.4 44.35 14.05 L44.05 14.65 43.5 15.7" fill="#b55520" fill-rule="evenodd" stroke="none"/>
      <path d="M43.0 16.2 L43.5 15.7 44.05 14.65 44.35 14.05 Q35.25 13.4 29.6 16.4 L29.55 16.45 M42.55 16.7 L43.0 16.2 43.55 15.6 44.05 14.65 M42.6 27.85 Q45.55 21.3 44.35 14.05 M42.6 27.85 Q37.9 38.05 23.0 46.35 21.85 46.9 20.7 47.55 30.5 34.2 24.65 33.7 27.6 26.05 13.4 38.4 L29.55 16.45 M24.65 33.7 Q33.55 29.25 43.55 15.6 M43.0 16.2 Q32.55 27.95 24.65 33.7" fill="none" stroke="#000000" stroke-linecap="round" stroke-linejoin="round" stroke-opacity="0.3019608" stroke-width="0.05"/>
      <path d="M25.55 44.05 L24.45 46.25 19.4 48.6 22.95 44.65 25.55 44.05" fill="#707778" fill-rule="evenodd" stroke="none"/>
      <path d="M25.55 44.05 L24.45 46.25 19.4 48.6 22.95 44.65 25.55 44.05 Z" fill="none" stroke="#000000" stroke-linecap="round" stroke-linejoin="round" stroke-opacity="0.3019608" stroke-width="0.05"/>
      <path d="M23.1 44.95 L24.65 44.65 23.95 45.9 20.65 47.7 23.1 44.95" fill="#a3a9a9" fill-rule="evenodd" stroke="none"/>
      <path d="M31.15 21.5 Q27.45 22.55 23.0 27.9 33.5 26.3 39.15 17.8 34.95 20.55 31.15 21.5" fill="#8a563c" fill-rule="evenodd" stroke="none"/>
      <path d="M36.65 29.05 Q34.45 30.9 33.1 36.15 39.95 31.8 41.0 23.9 39.0 27.2 36.65 29.05" fill="#e38f62" fill-rule="evenodd" stroke="none"/>
      <path d="M42.15 17.2 L44.8 16.6 48.5 11.2 Q46.0 12.6 43.4 14.1 L42.15 17.2" fill="#707778" fill-rule="evenodd" stroke="none"/>
      <path d="M42.15 17.2 L44.8 16.6 48.5 11.2 Q46.0 12.6 43.4 14.1 L42.15 17.2 Z" fill="none" stroke="#000000" stroke-linecap="round" stroke-linejoin="round" stroke-opacity="0.3019608" stroke-width="0.05"/>
      <path d="M43.75 14.4 L43.05 16.25 44.55 15.85 47.2 12.4 43.75 14.4" fill="#a3a9a9" fill-rule="evenodd" stroke="none"/>
      <path d="M39.95 2.3 Q36.75 4.15 35.35 5.85 36.45 3.95 36.7 2.2 33.3 3.8 29.4 6.5 L32.15 2.45 27.35 4.1 Q26.15 4.6 26.25 6.4 26.35 6.9 27.0 7.45 26.6 8.55 27.0 10.7 26.5 10.4 26.45 10.7 L27.5 15.1 Q28.05 16.75 28.1 18.35 30.15 16.9 39.95 2.3" fill="#241917" fill-rule="evenodd" stroke="none"/>
      <path d="M28.45 14.85 Q32.6 9.0 35.4 3.45 30.6 5.9 27.15 8.75 27.25 11.05 28.45 14.85" fill="#614c37" fill-rule="evenodd" stroke="none"/>
      <path d="M28.0 6.1 Q29.3 5.4 31.5 2.9 28.65 3.95 26.2 5.5 26.8 6.35 28.0 6.1" fill="#614c37" fill-rule="evenodd" stroke="none"/>
      <path d="M29.1 17.35 Q33.0 13.0 38.9 4.0 33.35 8.75 31.2 12.6 29.05 16.45 29.1 17.35" fill="#614c37" fill-rule="evenodd" stroke="none"/>
      <path d="M4.8 32.0 L4.45 34.15 Q13.0 22.45 15.05 27.05 16.35 18.55 25.1 6.65 17.9 14.65 15.05 21.0 8.65 21.3 4.8 32.0" fill="#7d4a35" fill-rule="evenodd" stroke="none"/>
      <path d="M25.1 6.65 L25.05 6.7 25.75 5.95 25.1 6.65" fill="#653d2c" fill-rule="evenodd" stroke="none"/>
      <path d="M24.75 7.25 L25.05 6.7 25.1 6.65 Q20.1 6.95 14.9 10.85 7.6 17.65 4.8 32.0 8.65 21.3 15.05 21.0 17.9 14.65 25.1 6.65 L24.75 7.25" fill="#cc6024" fill-rule="evenodd" stroke="none"/>
      <path d="M25.75 5.95 L26.15 5.55 Q19.65 6.65 14.9 10.85 20.1 6.95 25.1 6.65 L25.75 5.95" fill="#de6928" fill-rule="evenodd" stroke="none"/>
      <path d="M24.75 7.25 L25.1 6.65 Q16.35 18.55 15.05 27.05 17.7 19.0 24.75 7.25" fill="#3d241a" fill-rule="evenodd" stroke="none"/>
      <path d="M25.05 6.7 L24.75 7.25 24.45 7.75 Q19.3 17.75 18.7 22.3 19.9 26.7 17.2 31.9 L25.55 21.55 Q29.0 14.9 25.05 6.7" fill="#853f17" fill-rule="evenodd" stroke="none"/>
      <path d="M25.55 21.55 L17.2 31.9 Q19.9 26.7 18.7 22.3 19.3 17.75 24.45 7.75 L24.75 7.25 Q17.7 19.0 15.05 27.05 20.75 22.45 14.25 37.35 L28.35 18.15 25.55 21.55" fill="#543123" fill-rule="evenodd" stroke="none"/>
      <path d="M25.05 6.7 Q29.0 14.9 25.55 21.55 L28.35 18.15 28.4 18.1 Q29.35 12.65 26.15 5.55 L25.75 5.95 25.05 6.7" fill="#b55520" fill-rule="evenodd" stroke="none"/>
      <path d="M24.75 7.25 L25.05 6.7 25.75 5.95 26.15 5.55 Q29.35 12.65 28.4 18.1 L28.35 18.15 M24.45 7.75 L24.75 7.25 25.1 6.65 25.75 5.95 M14.9 10.85 Q19.65 6.65 26.15 5.55 M14.9 10.85 Q7.6 17.65 4.8 32.0 L4.45 34.15 Q13.0 22.45 15.05 27.05 20.75 22.45 14.25 37.35 L28.35 18.15 M15.05 27.05 Q16.35 18.55 25.1 6.65 M24.75 7.25 Q17.7 19.0 15.05 27.05" fill="none" stroke="#000000" stroke-linecap="round" stroke-linejoin="round" stroke-opacity="0.3019608" stroke-width="0.05"/>
      <path d="M6.0 29.15 L4.45 30.75 3.9 35.45 6.25 31.45 6.0 29.15" fill="#707778" fill-rule="evenodd" stroke="none"/>
      <path d="M6.0 29.15 L4.45 30.75 3.9 35.45 6.25 31.45 6.0 29.15 Z" fill="none" stroke="#000000" stroke-linecap="round" stroke-linejoin="round" stroke-opacity="0.3019608" stroke-width="0.05"/>
      <path d="M5.95 31.45 L5.75 30.15 4.85 31.05 4.3 34.2 5.95 31.45" fill="#a3a9a9" fill-rule="evenodd" stroke="none"/>
      <path d="M23.45 18.3 Q23.65 21.6 20.3 26.7 18.65 17.8 24.3 10.85 23.15 15.0 23.45 18.3" fill="#8a563c" fill-rule="evenodd" stroke="none"/>
      <path d="M15.55 15.95 Q14.65 18.3 10.55 20.9 12.35 14.15 18.7 11.05 16.5 13.6 15.55 15.95" fill="#e38f62" fill-rule="evenodd" stroke="none"/>
      <path d="M24.15 8.3 L23.9 5.95 27.45 1.45 26.45 6.35 24.15 8.3" fill="#707778" fill-rule="evenodd" stroke="none"/>
      <path d="M24.15 8.3 L23.9 5.95 27.45 1.45 26.45 6.35 24.15 8.3 Z" fill="none" stroke="#000000" stroke-linecap="round" stroke-linejoin="round" stroke-opacity="0.3019608" stroke-width="0.05"/>
      <path d="M26.05 6.2 L24.7 7.3 24.6 5.95 26.75 2.8 26.05 6.2" fill="#a3a9a9" fill-rule="evenodd" stroke="none"/>
      <path d="M28.1 18.5 L31.35 16.65 34.6 9.45 28.75 14.7 28.1 18.5" fill="#707778" fill-rule="evenodd" stroke="none"/>
      <path d="M28.1 18.5 L31.35 16.65 34.6 9.45 28.75 14.7 28.1 18.5 Z" fill="none" stroke="#000000" stroke-linecap="round" stroke-linejoin="round" stroke-opacity="0.3019608" stroke-width="0.05"/>
      <path d="M29.25 14.85 L28.9 17.05 30.75 16.05 33.3 11.3 29.25 14.85" fill="#a3a9a9" fill-rule="evenodd" stroke="none"/>
      <path d="M17.6 33.15 L16.85 36.7 10.9 42.1 14.05 34.95 17.6 33.15" fill="#707778" fill-rule="evenodd" stroke="none"/>
      <path d="M17.6 33.15 L16.85 36.7 10.9 42.1 14.05 34.95 17.6 33.15 Z" fill="none" stroke="#000000" stroke-linecap="round" stroke-linejoin="round" stroke-opacity="0.3019608" stroke-width="0.05"/>
      <path d="M14.5 35.4 L16.5 34.35 16.15 36.35 12.3 40.25 14.5 35.4" fill="#a3a9a9" fill-rule="evenodd" stroke="none"/>
    </g>
    <g id="sprite0" transform="matrix(1.0, 0.0, 0.0, 1.0, 0.0, 0.0)">
      <use height="37.7" transform="matrix(1.0, 0.0, 0.0, 1.0, 0.0, 0.0)" width="37.7" xlink:href="#shape1"/>
    </g>
    <g id="shape1" transform="matrix(1.0, 0.0, 0.0, 1.0, 0.0, 0.0)">
      <path d="M32.15 32.15 Q26.65 37.7 18.85 37.7 11.05 37.7 5.5 32.15 0.0 26.65 0.0 18.85 0.0 11.05 5.5 5.5 11.05 0.0 18.85 0.0 26.65 0.0 32.15 5.5 37.7 11.05 37.7 18.85 37.7 26.65 32.15 32.15" fill="url(#gradient0)" fill-rule="evenodd" stroke="none"/>
    </g>
    <radialGradient cx="0" cy="0" gradientTransform="matrix(0.0244, 0.0, 0.0, 0.0244, 18.85, 18.85)" gradientUnits="userSpaceOnUse" id="gradient0" r="819.2" spreadMethod="pad">
      <stop offset="0.0" stop-color="#ffffcc"/>
      <stop offset="1.0" stop-color="#ffffcc" stop-opacity="0.0"/>
    </radialGradient>
    <g id="sprite1" transform="matrix(1.0, 0.0, 0.0, 1.0, 0.0, 0.0)">
      <use height="20.95" transform="matrix(1.0, 0.0, 0.0, 1.0, 0.0, 0.0)" width="24.45" xlink:href="#shape2"/>
    </g>
    <g id="shape2" transform="matrix(1.0, 0.0, 0.0, 1.0, 0.0, 0.0)">
      <path d="M14.85 11.4 Q15.8 11.6 16.25 12.45 16.85 13.3 16.6 14.35 16.4 15.3 15.55 15.9 14.65 16.4 13.65 16.2 12.65 15.9 12.1 15.1 11.6 14.2 11.8 13.2 12.1 12.2 12.9 11.65 13.8 11.15 14.85 11.4" fill="#ffffff" fill-opacity="0.5882353" fill-rule="evenodd" stroke="none"/>
      <path d="M18.2 11.35 L20.15 11.25 18.75 12.55 Q19.05 13.8 18.8 15.05 18.5 16.35 17.65 17.3 L19.1 20.95 16.55 18.25 Q14.8 19.3 12.8 18.85 10.8 18.35 9.75 16.65 9.05 15.5 8.95 14.3 7.75 12.35 4.85 11.5 8.3 12.45 9.7 11.4 10.3 10.4 11.35 9.75 13.1 8.75 15.1 9.15 16.95 9.5 18.1 11.15 L18.2 11.35 M14.85 11.4 Q13.8 11.15 12.9 11.65 12.1 12.2 11.8 13.2 11.6 14.2 12.1 15.1 12.65 15.9 13.65 16.2 14.65 16.4 15.55 15.9 16.4 15.3 16.6 14.35 16.85 13.3 16.25 12.45 15.8 11.6 14.85 11.4" fill="#ffffff" fill-opacity="0.1764706" fill-rule="evenodd" stroke="none"/>
      <path d="M15.4 13.55 L18.1 17.55 13.35 14.65 7.05 18.5 12.75 13.55 0.0 0.0 14.25 12.25 24.45 5.95 15.4 13.55" fill="#ffffff" fill-opacity="0.5882353" fill-rule="evenodd" stroke="none"/>
    </g>
  </defs>
</svg>
