<?xml version="1.0" encoding="UTF-8" standalone="no"?>
<svg xmlns:xlink="http://www.w3.org/1999/xlink" height="440.0px" width="440.0px" xmlns="http://www.w3.org/2000/svg">
  <g transform="matrix(10.0, 0.0, 0.0, 10.0, 0.0, 0.0)">
    <use height="44.0" transform="matrix(1.0, 0.0, 0.0, 1.0, 0.0, 0.0)" width="44.0" xlink:href="#shape0"/>
    <use height="38.45" transform="matrix(-0.4338, 0.3983, 0.3518, 0.1774, 33.6271, 13.5241)" width="34.5" xlink:href="#sprite0"/>
    <use height="20.4" transform="matrix(1.0, 0.0, 0.0, 1.0, 22.3, 5.15)" width="18.1" xlink:href="#shape2"/>
  </g>
  <defs>
    <g id="shape0" transform="matrix(1.0, 0.0, 0.0, 1.0, 0.0, 0.0)">
      <path d="M44.0 44.0 L0.0 44.0 0.0 0.0 44.0 0.0 44.0 44.0" fill="#43adca" fill-opacity="0.0" fill-rule="evenodd" stroke="none"/>
      <path d="M17.85 31.65 Q14.25 32.2 10.4 31.75 L8.6 31.4 8.0 31.15 5.75 29.65 3.65 25.9 3.35 25.45 Q2.5 22.65 3.0 19.95 L3.25 18.65 Q4.85 14.85 7.45 11.65 L8.55 10.45 Q12.85 6.85 17.1 5.3 L19.65 4.65 24.35 3.9 27.7 4.25 Q29.95 4.9 31.5 6.75 33.0 8.65 33.4 9.85 L39.05 19.5 39.05 19.7 39.05 21.9 39.0 21.95 38.8 22.5 37.85 24.8 37.8 24.95 37.5 25.6 37.25 26.05 36.5 27.2 35.4 28.75 33.6 30.85 Q33.55 30.85 33.45 30.95 30.7 33.35 27.4 35.35 L27.0 35.55 23.2 37.6 20.85 38.0 Q17.5 38.45 14.0 38.05 L13.1 37.9 12.55 37.8 12.15 37.75 9.4 36.0 9.25 35.9 5.75 29.65 M6.5 18.25 L6.15 20.1 6.15 20.45 Q6.05 22.05 6.6 23.65 7.4 25.35 10.1 26.8 L10.2 26.8 10.35 26.95 11.55 27.1 18.7 26.8 Q23.55 25.05 26.5 21.65 28.1 20.05 29.1 18.3 L30.2 16.1 29.3 15.95 27.1 16.05 Q25.35 16.1 23.65 16.7 21.95 17.15 21.65 17.35 19.9 18.05 18.2 19.1 L15.45 21.2 Q12.9 23.85 11.55 27.1 M39.05 19.5 L39.15 19.7 Q40.3 21.75 39.7 23.95 L39.55 24.45 38.7 26.7 38.45 27.2 38.25 27.6 Q37.35 29.45 36.0 31.1 L34.35 33.0 33.95 33.4 Q30.8 36.0 27.1 38.1 L24.35 39.55 14.75 39.85 13.85 39.7 Q10.55 38.0 9.4 36.05 L9.25 35.9" fill="none" stroke="#000000" stroke-linecap="round" stroke-linejoin="round" stroke-opacity="0.3019608" stroke-width="0.5"/>
      <path d="M32.9 17.1 L33.45 15.85 34.4 17.65 32.4 21.05 31.8 22.0 31.65 22.3 31.0 20.3 32.9 17.1 M38.7 26.7 L38.45 27.2 38.25 27.6 Q37.35 29.45 36.0 31.1 L35.4 28.75 36.5 27.2 37.25 26.05 37.5 25.6 37.8 24.95 37.85 24.8 38.7 26.7 M14.75 39.85 L13.85 39.7 Q10.55 38.0 9.4 36.05 L12.15 37.75 12.55 37.8 13.1 37.9 14.75 39.85 M8.25 34.2 L8.2 33.95 7.1 32.15 8.65 32.9 9.35 33.05 Q12.0 35.05 11.55 36.3 9.0 35.25 8.25 34.2 M3.0 19.95 L3.25 18.65 Q4.85 14.85 7.45 11.65 L8.55 10.45 Q12.85 6.85 17.1 5.3 L19.65 4.65 Q17.65 6.05 17.4 7.75 15.35 8.5 13.3 9.9 12.0 10.7 10.65 11.85 L9.45 13.3 Q7.7 15.6 6.5 18.25 L6.15 20.1 6.15 20.45 6.0 20.4 5.9 20.95 5.45 21.55 Q4.05 22.65 3.6 21.15 L3.5 20.5 3.5 20.05 3.0 19.95 M32.15 23.95 L33.55 22.1 34.4 20.4 Q35.15 23.5 36.95 24.7 35.55 27.3 33.25 29.9 33.4 25.25 32.15 23.95" fill="#ffcc00" fill-rule="evenodd" stroke="none"/>
      <path d="M13.3 9.9 L11.15 12.8 Q8.25 15.65 6.15 20.1 L6.5 18.25 Q7.7 15.6 9.45 13.3 L10.65 11.85 Q12.0 10.7 13.3 9.9" fill="#ca8d02" fill-rule="evenodd" stroke="none"/>
      <path d="M33.45 15.85 L33.9 14.45 35.05 16.4 35.35 15.65 35.35 13.25 36.2 14.7 36.15 16.45 35.8 17.55 Q37.7 17.9 38.25 21.65 37.8 23.2 36.95 24.7 35.15 23.5 34.4 20.4 L35.1 18.95 35.8 17.55 35.5 17.1 35.4 16.85 35.3 16.75 35.05 16.4 34.4 17.65 33.45 15.85 M39.7 23.95 L39.55 24.45 38.7 26.7 37.85 24.8 38.8 22.5 39.7 23.95 M36.0 31.1 L34.35 33.0 33.95 33.4 Q30.8 36.0 27.1 38.1 26.65 37.7 27.4 35.35 30.7 33.35 33.45 30.95 33.55 30.85 33.6 30.85 L35.4 28.75 36.0 31.1 M31.65 22.3 L29.95 24.45 Q25.4 28.45 19.55 31.25 L18.75 29.45 Q24.85 26.8 28.75 22.95 L31.0 20.3 31.65 22.3 M32.15 23.95 Q33.4 25.25 33.25 29.9 L30.8 32.4 26.65 34.9 Q22.45 35.45 24.65 31.15 L29.4 26.8 30.55 25.9 31.1 25.35 31.45 24.85 31.5 24.8 32.15 23.95" fill="#ebb029" fill-rule="evenodd" stroke="none"/>
      <path d="M22.45 6.7 L26.65 14.85 Q24.25 15.05 21.3 16.35 L21.3 16.25 17.4 7.75 22.45 6.7" fill="#bb6906" fill-rule="evenodd" stroke="none"/>
      <path d="M17.4 7.75 L21.3 16.25 19.85 17.0 17.55 18.3 15.1 19.95 11.15 12.8 13.3 9.9 Q15.35 8.5 17.4 7.75" fill="#9c5105" fill-rule="evenodd" stroke="none"/>
      <path d="M39.15 19.7 Q40.3 21.75 39.7 23.95 L38.8 22.5 39.0 21.95 39.05 21.9 39.05 19.7 39.15 19.7" fill="#ffff2f" fill-rule="evenodd" stroke="none"/>
      <path d="M5.75 29.65 L4.2 26.9 Q5.7 28.95 9.9 29.95 L9.95 29.95 18.75 29.45 19.55 31.25 17.85 31.65 Q14.25 32.2 10.4 31.75 L8.6 31.4 8.0 31.15 5.75 29.65" fill="#ab6d0a" fill-rule="evenodd" stroke="none"/>
      <path d="M9.25 35.9 L8.25 34.2 Q9.0 35.25 11.55 36.3 L12.7 36.65 Q18.1 37.8 20.15 37.45 L20.55 37.4 22.3 37.0 Q24.45 36.2 26.65 34.9 L30.8 32.4 33.25 29.9 Q35.55 27.3 36.95 24.7 37.8 23.2 38.25 21.65 L38.8 22.5 37.85 24.8 37.8 24.95 37.5 25.6 37.25 26.05 36.5 27.2 35.4 28.75 33.6 30.85 Q33.55 30.85 33.45 30.95 30.7 33.35 27.4 35.35 L27.0 35.55 23.2 37.6 20.85 38.0 Q17.5 38.45 14.0 38.05 L13.1 37.9 12.55 37.8 12.15 37.75 9.4 36.05 9.4 36.0 9.25 35.9 M7.1 32.15 L5.75 29.65 8.0 31.15 8.6 31.4 10.4 31.75 Q14.25 32.2 17.85 31.65 L19.55 31.25 Q25.4 28.45 29.95 24.45 L31.65 22.3 31.8 22.0 32.4 21.05 34.4 17.65 35.05 16.4 35.3 16.75 35.4 16.85 35.5 17.1 35.8 17.55 35.1 18.95 34.4 20.4 33.55 22.1 32.15 23.95 31.5 24.8 31.45 24.85 31.1 25.35 30.55 25.9 29.4 26.8 Q25.25 30.2 20.05 32.7 L17.9 33.1 Q14.25 33.7 10.45 33.2 L9.35 33.05 8.65 32.9 7.1 32.15" fill="#784a20" fill-rule="evenodd" stroke="none"/>
      <path d="M24.35 3.9 L27.7 4.25 Q29.95 4.9 31.5 6.75 33.0 8.65 33.4 9.85 34.2 11.95 33.9 14.45 L33.45 15.85 32.9 17.1 Q32.8 17.0 31.15 18.1 L30.7 18.15 Q32.35 14.9 31.45 11.5 L31.45 11.35 Q31.4 10.65 30.55 9.3 28.55 6.15 25.9 5.55 L22.75 5.5 22.7 5.1 Q22.95 4.35 24.35 3.9" fill="#fcde7b" fill-rule="evenodd" stroke="none"/>
      <path d="M24.35 3.9 Q22.95 4.35 22.7 5.1 L22.75 5.5 25.9 5.55 Q28.55 6.15 30.55 9.3 31.4 10.65 31.45 11.35 L31.45 11.5 Q32.35 14.9 30.7 18.15 30.2 18.1 30.1 17.45 L30.2 16.5 30.15 16.5 30.2 16.1 30.5 15.45 30.55 15.0 30.55 14.95 Q30.8 13.5 30.5 12.25 30.15 10.8 29.35 9.65 27.65 7.35 24.8 6.55 L23.25 6.55 22.45 6.7 17.4 7.75 Q17.65 6.05 19.65 4.65 L24.35 3.9" fill="#edca49" fill-rule="evenodd" stroke="none"/>
      <path d="M30.7 18.15 L31.15 18.1 Q32.8 17.0 32.9 17.1 L31.0 20.3 28.75 22.95 Q24.85 26.8 18.75 29.45 L18.7 26.8 Q23.55 25.05 26.5 21.65 28.1 20.05 29.1 18.3 L30.2 16.1 30.15 16.5 30.2 16.5 30.1 17.45 Q30.2 18.1 30.7 18.15 M33.9 14.45 Q34.2 11.95 33.4 9.85 L35.35 13.25 35.35 15.65 35.05 16.4 33.9 14.45 M36.2 14.7 L39.05 19.5 39.05 19.7 39.05 21.9 39.0 21.95 38.8 22.5 38.25 21.65 Q37.7 17.9 35.8 17.55 L36.15 16.45 36.2 14.7" fill="#fff12e" fill-rule="evenodd" stroke="none"/>
      <path d="M4.2 26.9 L3.65 25.9 3.35 25.45 Q2.5 22.65 3.0 19.95 L3.5 20.05 3.5 20.5 3.6 21.15 Q4.05 22.65 5.45 21.55 L5.9 20.95 6.0 20.4 6.15 20.45 Q6.05 22.05 6.6 23.65 7.4 25.35 10.1 26.8 L10.2 26.8 10.35 26.95 11.55 27.1 18.7 26.8 18.75 29.45 9.95 29.95 9.9 29.95 Q5.7 28.95 4.2 26.9" fill="#fbda59" fill-rule="evenodd" stroke="none"/>
      <path d="M22.45 6.7 L23.25 6.55 24.8 6.55 Q27.65 7.35 29.35 9.65 30.15 10.8 30.5 12.25 30.8 13.5 30.55 14.95 L30.55 15.0 30.5 15.45 30.2 16.1 29.3 15.95 27.1 16.05 Q25.35 16.1 23.65 16.7 21.95 17.15 21.65 17.35 19.9 18.05 18.2 19.1 L17.55 18.3 19.85 17.0 21.3 16.25 21.3 16.35 Q24.25 15.05 26.65 14.85 L22.45 6.7" fill="url(#gradient0)" fill-rule="evenodd" stroke="none"/>
      <path d="M18.2 19.1 L15.45 21.2 Q12.9 23.85 11.55 27.1 L10.35 26.95 10.2 26.8 10.1 26.8 Q7.4 25.35 6.6 23.65 6.05 22.05 6.15 20.45 L6.15 20.1 Q8.25 15.65 11.15 12.8 L15.1 19.95 17.55 18.3 18.2 19.1" fill="url(#gradient1)" fill-rule="evenodd" stroke="none"/>
      <path d="M27.1 38.1 L24.35 39.55 14.75 39.85 13.1 37.9 14.0 38.05 Q17.5 38.45 20.85 38.0 L23.2 37.6 27.0 35.55 27.4 35.35 Q26.65 37.7 27.1 38.1 M26.65 34.9 Q24.45 36.2 22.3 37.0 L20.55 37.4 20.15 37.45 Q18.1 37.8 12.7 36.65 L11.55 36.3 Q12.0 35.05 9.35 33.05 L10.45 33.2 Q14.25 33.7 17.9 33.1 L20.05 32.7 Q25.25 30.2 29.4 26.8 L24.65 31.15 Q22.45 35.45 26.65 34.9" fill="url(#gradient2)" fill-rule="evenodd" stroke="none"/>
      <path d="M17.85 31.65 Q14.25 32.2 10.4 31.75 L8.6 31.4 8.0 31.15 5.75 29.65 M38.8 22.5 L39.0 21.95 M39.05 21.9 L39.05 19.7 M38.8 22.5 L37.85 24.8 M6.5 18.25 L6.15 20.1 6.15 20.45 Q6.05 22.05 6.6 23.65 7.4 25.35 10.1 26.8 L10.2 26.8 10.35 26.95 11.55 27.1 M27.4 35.35 L27.0 35.55 23.2 37.6 20.85 38.0 Q17.5 38.45 14.0 38.05 L13.1 37.9 12.55 37.8 12.15 37.75 9.4 36.05 M35.4 28.75 L36.5 27.2 37.25 26.05 37.5 25.6 37.8 24.95 37.85 24.8 M27.4 35.35 Q30.7 33.35 33.45 30.95 33.55 30.85 33.6 30.85 L35.4 28.75" fill="none" stroke="#000000" stroke-linecap="round" stroke-linejoin="round" stroke-opacity="0.3019608" stroke-width="0.5"/>
      <path d="M33.4 9.85 Q33.0 8.65 31.5 6.75 29.95 4.9 27.7 4.25 L24.35 3.9 M33.4 9.85 L35.35 13.25 36.2 14.7 39.05 19.5 39.15 19.7 Q40.3 21.75 39.7 23.95 L39.55 24.45 38.7 26.7 38.45 27.2 38.25 27.6 Q37.35 29.45 36.0 31.1 L34.35 33.0 33.95 33.4 Q30.8 36.0 27.1 38.1 L24.35 39.55 14.75 39.85 13.85 39.7 Q10.55 38.0 9.4 36.05 L9.25 35.9 8.25 34.2 M8.2 33.95 L7.1 32.15 5.75 29.65 4.2 26.9 3.65 25.9 3.35 25.45 Q2.5 22.65 3.0 19.95 L3.25 18.65 Q4.85 14.85 7.45 11.65 L8.55 10.45 Q12.85 6.85 17.1 5.3 L19.65 4.65 24.35 3.9 M30.2 16.1 L29.3 15.95 27.1 16.05 Q25.35 16.1 23.65 16.7 21.95 17.15 21.65 17.35 19.9 18.05 18.2 19.1 L15.45 21.2 Q12.9 23.85 11.55 27.1 L18.7 26.8 Q23.55 25.05 26.5 21.65 28.1 20.05 29.1 18.3 L30.2 16.1 M39.0 21.95 L39.05 21.9 M39.05 19.7 L39.05 19.5 M9.4 36.05 L9.4 36.0 9.25 35.9" fill="none" stroke="#000000" stroke-linecap="round" stroke-linejoin="round" stroke-opacity="0.4509804" stroke-width="0.5"/>
    </g>
    <linearGradient gradientTransform="matrix(0.006, 4.0E-4, 5.0E-4, -0.0077, 30.15, 14.15)" gradientUnits="userSpaceOnUse" id="gradient0" spreadMethod="pad" x1="-819.2" x2="819.2">
      <stop offset="0.0" stop-color="#ca8d02"/>
      <stop offset="1.0" stop-color="#996601"/>
    </linearGradient>
    <linearGradient gradientTransform="matrix(-0.0036, 0.0038, 0.0064, 0.006, 10.3, 22.35)" gradientUnits="userSpaceOnUse" id="gradient1" spreadMethod="pad" x1="-819.2" x2="819.2">
      <stop offset="0.0" stop-color="#8d4803"/>
      <stop offset="1.0" stop-color="#5e2f01"/>
    </linearGradient>
    <linearGradient gradientTransform="matrix(-0.0078, 0.0051, 0.0035, 0.0054, 16.35, 33.2)" gradientUnits="userSpaceOnUse" id="gradient2" spreadMethod="pad" x1="-819.2" x2="819.2">
      <stop offset="0.0392156862745098" stop-color="#c2780b"/>
      <stop offset="1.0" stop-color="#8a5508"/>
    </linearGradient>
    <g id="sprite0" transform="matrix(1.0, 0.0, 0.0, 1.0, 17.25, 19.2)">
      <use height="38.45" transform="matrix(1.0, 0.0, 0.0, 1.0, -17.25, -19.2)" width="34.5" xlink:href="#shape1"/>
    </g>
    <g id="shape1" transform="matrix(1.0, 0.0, 0.0, 1.0, 17.25, 19.2)">
      <path d="M12.2 -6.25 Q17.25 1.25 17.25 8.4 17.25 15.55 12.2 18.15 7.15 20.75 0.0 17.3 -7.15 13.8 -12.2 6.3 -17.25 -1.2 -17.25 -8.35 -17.25 -15.5 -12.2 -18.1 -7.15 -20.7 0.0 -17.2 7.15 -13.75 12.2 -6.25" fill="url(#gradient3)" fill-rule="evenodd" stroke="none"/>
    </g>
    <radialGradient cx="0" cy="0" gradientTransform="matrix(0.0219, 0.0106, 0.0, 0.0219, 0.0, 0.05)" gradientUnits="userSpaceOnUse" id="gradient3" r="819.2" spreadMethod="pad">
      <stop offset="0.0" stop-color="#ffffff"/>
      <stop offset="1.0" stop-color="#ffffff" stop-opacity="0.0"/>
    </radialGradient>
    <g id="shape2" transform="matrix(1.0, 0.0, 0.0, 1.0, -22.3, -5.15)">
      <path d="M31.7 17.35 L40.4 5.15 33.2 18.3 38.7 21.85 32.9 19.35 29.75 22.4 31.1 18.65 22.3 13.3 31.7 17.35" fill="#fcf3d8" fill-opacity="0.7921569" fill-rule="evenodd" stroke="none"/>
      <path d="M35.1 16.15 Q36.4 16.85 38.95 15.7 36.85 16.8 36.25 18.5 L36.2 20.65 Q35.65 22.2 34.15 22.8 32.65 23.5 31.1 22.8 L29.65 25.55 30.1 22.15 Q29.25 21.5 28.65 20.35 28.1 19.3 28.15 18.3 L26.75 17.3 28.4 17.1 28.4 16.95 Q29.05 15.5 30.4 14.85 L33.5 14.95 35.1 16.15 M30.15 19.5 Q30.6 20.4 31.35 20.65 L32.95 20.7 Q33.7 20.35 33.95 19.65 34.2 18.75 33.85 17.95 33.45 17.2 32.6 16.8 L31.0 16.7 Q30.3 17.05 30.05 17.9 29.85 18.75 30.15 19.5" fill="#fcf3d8" fill-opacity="0.3019608" fill-rule="evenodd" stroke="none"/>
      <path d="M30.15 19.5 Q29.85 18.75 30.05 17.9 30.3 17.05 31.0 16.7 L32.6 16.8 Q33.45 17.2 33.85 17.95 34.2 18.75 33.95 19.65 33.7 20.35 32.95 20.7 L31.35 20.65 Q30.6 20.4 30.15 19.5" fill="#fcf3d8" fill-opacity="0.84313726" fill-rule="evenodd" stroke="none"/>
    </g>
  </defs>
</svg>
