<?xml version="1.0" encoding="UTF-8" standalone="no"?>
<svg xmlns:xlink="http://www.w3.org/1999/xlink" height="440.0px" width="440.0px" xmlns="http://www.w3.org/2000/svg">
  <g transform="matrix(10.0, 0.0, 0.0, 10.0, 0.0, 0.0)">
    <use height="44.0" transform="matrix(1.0, 0.0, 0.0, 1.0, 0.0, 0.0)" width="44.0" xlink:href="#shape0"/>
  </g>
  <defs>
    <g id="shape0" transform="matrix(1.0, 0.0, 0.0, 1.0, 0.0, 0.0)">
      <path d="M44.0 44.0 L0.0 44.0 0.0 0.0 44.0 0.0 44.0 44.0" fill="#33cc33" fill-opacity="0.0" fill-rule="evenodd" stroke="none"/>
      <path d="M32.85 32.9 L32.8 32.9 32.8 32.85 32.85 32.9" fill="#faed7c" fill-rule="evenodd" stroke="none"/>
      <path d="M32.4 33.0 L32.3 33.05 32.3 33.0 32.4 33.0" fill="#fcb738" fill-rule="evenodd" stroke="none"/>
      <path d="M28.15 15.1 Q26.8 13.45 25.65 12.7 L28.8 10.85 Q30.1 11.65 31.5 13.4 L32.8 15.15 30.25 16.6 28.15 15.1 M37.1 25.7 L37.3 26.75 37.3 27.45 37.2 29.05 33.8 30.55 33.9 28.45 33.7 27.4 33.65 27.05 Q35.35 26.3 37.1 25.7 M22.95 14.05 Q24.05 14.8 25.2 16.25 L26.5 18.05 27.0 18.75 Q25.9 19.45 24.9 20.2 23.15 20.0 21.15 18.1 L20.0 16.7 18.9 15.75 22.95 14.05 M30.75 28.25 L30.8 28.6 31.0 29.65 30.9 31.9 30.9 32.0 27.35 33.9 27.2 32.25 26.8 30.15 30.75 28.25" fill="#c1cfd5" fill-rule="evenodd" stroke="none"/>
      <path d="M30.1 17.95 L29.55 17.05 29.4 16.85 28.15 15.1 30.25 16.6 30.1 17.95 M25.35 25.4 L24.75 24.0 23.35 21.35 Q22.4 19.55 21.15 18.1 23.15 20.0 24.9 20.2 24.5 21.6 25.35 25.4" fill="#d1dee0" fill-rule="evenodd" stroke="none"/>
      <path d="M22.8 12.05 L23.0 12.0 23.65 12.0 Q24.5 12.0 25.4 12.55 L25.65 12.7 Q26.8 13.45 28.15 15.1 L29.4 16.85 29.55 17.05 30.1 17.95 31.8 21.25 32.2 22.15 32.3 22.3 33.35 25.6 31.25 24.25 31.2 24.1 30.9 23.2 30.8 23.1 30.4 22.15 28.15 18.0 28.15 17.95 28.0 17.75 26.7 16.0 24.2 13.6 24.05 13.5 24.0 13.5 Q23.1 12.9 22.25 12.9 L21.3 12.8 22.8 12.05" fill="#a2b8bd" fill-rule="evenodd" stroke="none"/>
      <path d="M22.8 12.05 L21.3 12.8 20.7 13.15 20.75 13.15 Q21.6 13.15 22.5 13.75 L22.95 14.05 18.9 15.75 Q17.95 14.95 17.05 14.65 L16.9 14.65 Q16.05 14.45 15.35 14.65 L22.8 12.05 M33.35 25.6 L32.3 22.3 32.2 22.15 31.8 21.25 30.1 17.95 30.25 16.6 32.8 15.15 Q34.15 17.15 35.2 19.55 L35.6 20.45 35.7 20.6 Q36.75 23.35 37.1 25.7 35.35 26.3 33.65 27.05 L33.35 25.6 M25.65 12.7 L25.4 12.55 Q24.5 12.0 23.65 12.0 L23.0 12.0 26.2 10.4 27.05 10.3 Q27.9 10.3 28.8 10.85 L25.65 12.7 M37.2 29.05 Q37.3 29.8 37.0 30.3 L36.25 31.05 36.2 31.15 35.4 31.9 32.85 32.9 32.8 32.85 32.85 32.75 33.6 32.0 Q33.9 31.5 33.8 30.75 L33.8 30.55 37.2 29.05 M30.6 34.15 L26.25 36.9 27.0 36.0 27.15 35.5 27.35 33.9 30.9 32.0 30.7 33.15 29.95 33.95 29.9 34.05 29.35 34.55 30.6 34.15 M27.0 18.75 L28.9 22.4 29.3 23.35 29.4 23.45 Q30.35 26.05 30.75 28.25 L26.8 30.15 25.35 25.4 Q24.5 21.6 24.9 20.2 25.9 19.45 27.0 18.75" fill="#6b8f98" fill-rule="evenodd" stroke="none"/>
      <path d="M31.25 24.25 L33.35 25.6 33.65 27.05 33.7 27.4 33.9 28.45 33.8 30.55 33.8 30.75 Q33.9 31.5 33.6 32.0 L32.85 32.75 32.8 32.85 32.8 32.9 32.4 33.0 32.3 33.0 32.4 31.65 32.4 31.5 32.45 31.25 32.5 29.4 32.3 28.35 32.2 28.0 32.15 27.65 31.25 24.25 M26.25 36.9 L24.8 37.35 24.0 37.2 22.85 36.6 Q20.95 35.3 18.55 31.65 L16.65 28.7 Q13.2 21.1 13.75 17.4 13.9 16.4 14.3 15.7 L14.45 15.5 Q14.8 15.0 15.35 14.65 16.05 14.45 16.9 14.65 L17.05 14.65 Q17.95 14.95 18.9 15.75 L20.0 16.7 21.15 18.1 Q22.4 19.55 23.35 21.35 L24.75 24.0 25.35 25.4 26.8 30.15 27.2 32.25 27.35 33.9 27.15 35.5 27.0 36.0 26.25 36.9 M22.85 22.2 L22.65 21.9 21.25 19.9 20.2 18.75 Q18.2 16.6 16.55 17.15 13.65 18.9 17.05 27.15 L17.55 28.3 18.2 29.35 19.2 30.9 20.95 33.25 Q23.5 36.1 25.25 34.9 26.4 34.05 26.0 31.2 L25.95 30.55 25.4 28.2 24.05 24.6 22.85 22.2 M18.55 31.65 L19.2 30.9 18.55 31.65" fill="#87a4ad" fill-rule="evenodd" stroke="none"/>
      <path d="M25.4 28.2 L25.95 30.55 26.0 31.2 Q26.4 34.05 25.25 34.9 23.5 36.1 20.95 33.25 L19.2 30.9 25.4 28.2" fill="#63848f" fill-rule="evenodd" stroke="none"/>
      <path d="M21.3 12.8 L22.25 12.9 Q23.1 12.9 24.0 13.5 L24.05 13.5 24.2 13.6 26.7 16.0 28.0 17.75 28.15 17.95 28.15 18.0 30.4 22.15 30.8 23.1 30.9 23.2 31.2 24.1 31.25 24.25 32.15 27.65 32.2 28.0 32.3 28.35 32.5 29.4 32.45 31.25 32.4 31.5 32.4 31.65 32.3 33.0 32.3 33.05 30.6 34.15 29.35 34.55 29.9 34.05 29.95 33.95 30.7 33.15 30.9 32.0 30.9 31.9 31.0 29.65 30.8 28.6 30.75 28.25 Q30.35 26.05 29.4 23.45 L29.3 23.35 28.9 22.4 27.0 18.75 26.5 18.05 25.2 16.25 Q24.05 14.8 22.95 14.05 L22.5 13.75 Q21.6 13.15 20.75 13.15 L20.7 13.15 21.3 12.8 M22.85 22.2 L24.05 24.6 25.4 28.2 19.2 30.9 18.2 29.35 Q19.0 24.25 22.85 22.2" fill="#486166" fill-rule="evenodd" stroke="none"/>
      <path d="M16.55 17.15 Q18.2 16.6 20.2 18.75 L21.25 19.9 22.65 21.9 22.85 22.2 Q19.0 24.25 18.2 29.35 L17.55 28.3 17.05 27.15 Q13.65 18.9 16.55 17.15" fill="#324347" fill-rule="evenodd" stroke="none"/>
      <path d="M23.0 12.0 L22.8 12.05 M23.0 12.0 L26.2 10.4 27.05 10.3 Q27.9 10.3 28.8 10.85 30.1 11.65 31.5 13.4 L32.8 15.15 Q34.15 17.15 35.2 19.55 L35.6 20.45 35.7 20.6 Q36.75 23.35 37.1 25.7 L37.3 26.75 37.3 27.45 37.2 29.05 Q37.3 29.8 37.0 30.3 L36.25 31.05 36.2 31.15 35.4 31.9 32.85 32.9 32.8 32.9 32.4 33.0 32.3 33.05 30.6 34.15 26.25 36.9 24.8 37.35 24.0 37.2 22.85 36.6 Q20.95 35.3 18.55 31.65 L16.65 28.7 Q13.2 21.1 13.75 17.4 13.9 16.4 14.3 15.7 L14.45 15.5 Q14.8 15.0 15.35 14.65 L22.8 12.05 M19.2 30.9 L18.55 31.65 M17.55 28.3 L17.05 27.15 Q13.65 18.9 16.55 17.15 M25.4 28.2 L19.2 30.9" fill="none" stroke="#000000" stroke-linecap="round" stroke-linejoin="round" stroke-opacity="0.2" stroke-width="0.05"/>
      <path d="M21.95 15.9 L24.25 14.2 Q25.1 13.8 26.1 13.55 28.55 12.95 30.55 13.5 32.6 14.15 33.05 15.6 33.45 17.0 32.05 18.45 31.05 19.5 29.4 20.15 L27.4 17.0 26.2 17.35 28.1 20.55 Q25.8 21.1 23.6 20.55 21.4 20.0 21.1 18.55 20.8 17.05 21.95 15.9" fill="#252316" fill-opacity="0.3019608" fill-rule="evenodd" stroke="none"/>
      <path d="M27.0 17.15 L26.8 16.95 26.5 16.9 26.25 16.55 Q26.75 16.6 27.0 17.15 M20.15 19.9 L19.95 19.7 19.75 19.45 19.7 19.45 19.8 19.0 20.15 19.9 M15.05 22.5 L14.9 22.25 14.85 22.2 Q15.35 21.5 15.05 22.5 M14.35 22.9 L14.1 22.65 13.9 22.55 13.95 22.05 14.35 22.9" fill="#608286" fill-rule="evenodd" stroke="none"/>
      <path d="M22.8 10.75 Q23.05 11.5 22.3 11.75 L21.1 11.7 Q21.8 11.85 21.9 11.0 L22.8 10.75" fill="#5c302e" fill-rule="evenodd" stroke="none"/>
      <path d="M30.3 12.15 L30.35 12.1 30.35 12.15 30.3 12.15" fill="#cddadc" fill-rule="evenodd" stroke="none"/>
      <path d="M6.1 25.95 L6.05 25.95 5.65 26.45 Q5.75 25.9 6.1 25.55 L6.1 25.95" fill="#2b3c3c" fill-rule="evenodd" stroke="none"/>
      <path d="M20.3 13.95 L21.4 13.65 23.0 13.15 24.3 12.9 26.0 12.7 27.35 12.55 28.65 12.35 30.3 12.15 30.35 12.15 31.0 12.8 32.1 14.55 32.45 15.1 27.0 17.15 Q26.75 16.6 26.25 16.55 L26.5 16.9 26.6 17.3 Q23.4 18.4 20.15 19.9 L19.8 19.0 19.7 19.45 19.5 20.2 15.05 22.5 Q15.35 21.5 14.85 22.2 L14.8 22.2 14.6 22.75 14.35 22.95 14.35 22.9 13.95 22.05 13.9 22.55 13.9 23.15 13.55 23.35 13.05 22.75 Q12.45 21.95 12.55 20.65 12.65 19.35 13.2 18.2 L14.35 16.6 14.45 16.6 14.7 16.45 15.55 16.0 16.95 15.4 18.8 14.85 Q18.2 15.45 18.1 16.55 L18.15 16.85 Q18.6 17.85 19.5 17.85 L23.25 17.25 24.4 16.6 24.95 16.15 Q25.75 15.4 25.55 14.25 L25.35 13.75 Q24.7 13.1 23.9 13.55 23.45 13.8 23.35 14.4 L23.35 14.55 Q23.5 15.0 23.9 14.95 L23.75 14.55 Q24.05 14.15 24.4 14.2 24.75 14.2 24.75 14.75 24.75 15.4 24.15 15.75 L23.9 15.9 21.65 15.95 20.85 15.6 Q20.15 15.15 20.3 13.95" fill="#94a707" fill-rule="evenodd" stroke="none"/>
      <path d="M20.05 12.45 L20.7 12.3 22.25 11.8 22.35 11.8 24.05 11.15 25.65 10.55 26.75 10.15 Q27.65 10.3 28.5 10.75 L30.35 12.1 30.3 12.15 28.65 12.35 27.35 12.55 26.0 12.7 24.3 12.9 23.0 13.15 21.4 13.65 20.3 13.95 24.2 11.9 20.05 12.45 M13.55 23.35 Q10.85 23.8 8.35 25.7 L8.3 24.8 8.15 23.5 Q7.95 22.6 8.9 20.95 L9.0 20.75 8.05 21.5 8.1 21.15 Q8.3 19.9 9.05 19.05 9.75 18.2 10.65 17.7 L10.9 17.55 9.25 20.2 14.35 16.6 13.2 18.2 Q12.65 19.35 12.55 20.65 12.45 21.95 13.05 22.75 L13.55 23.35" fill="#596f04" fill-rule="evenodd" stroke="none"/>
      <path d="M26.75 10.15 L25.65 10.55 24.05 11.15 22.35 11.8 22.25 11.8 20.7 12.3 20.05 12.45 20.0 12.45 Q19.5 12.45 19.55 11.8 L19.7 11.65 21.05 11.25 21.9 11.0 Q21.8 11.85 21.1 11.7 L22.3 11.75 Q23.05 11.5 22.8 10.75 L24.65 10.2 25.55 10.05 26.75 10.15 M8.35 25.7 Q7.2 25.85 6.15 26.3 L6.1 25.95 6.1 25.55 8.9 20.95 Q7.95 22.6 8.15 23.5 L8.3 24.8 8.35 25.7 M4.55 25.7 Q5.1 24.1 5.9 22.65 7.0 20.6 8.3 18.9 9.65 17.15 11.15 15.85 12.7 14.55 14.35 13.65 15.9 12.8 17.5 12.35 L17.65 12.25 18.25 12.1 18.25 12.25 17.7 12.55 15.5 13.7 13.35 14.85 12.65 15.35 10.95 17.5 10.9 17.55 10.65 17.7 Q9.75 18.2 9.05 19.05 8.3 19.9 8.1 21.15 L8.05 21.5 Q6.8 22.3 4.55 25.7" fill="#305807" fill-rule="evenodd" stroke="none"/>
      <path d="M5.65 26.45 L5.65 26.55 Q4.65 27.0 3.85 27.75 L4.1 27.0 4.55 25.7 Q6.8 22.3 8.05 21.5 L9.0 20.75 8.9 20.95 6.1 25.55 Q5.75 25.9 5.65 26.45" fill="#bdd60a" fill-rule="evenodd" stroke="none"/>
      <path d="M20.3 13.95 Q20.15 15.15 20.85 15.6 L21.65 15.95 23.9 15.9 24.15 15.75 Q24.75 15.4 24.75 14.75 24.75 14.2 24.4 14.2 24.05 14.15 23.75 14.55 L23.9 14.95 Q23.5 15.0 23.35 14.55 L23.35 14.4 Q23.45 13.8 23.9 13.55 24.7 13.1 25.35 13.75 L25.55 14.25 Q25.75 15.4 24.95 16.15 L24.4 16.6 23.25 17.25 19.5 17.85 Q18.6 17.85 18.15 16.85 L18.1 16.55 Q18.2 15.45 18.8 14.85 L16.95 15.4 15.55 16.0 14.7 16.45 14.7 16.35 16.85 15.1 20.3 13.95" fill="#ffa004" fill-rule="evenodd" stroke="none"/>
      <path d="M20.0 12.45 L20.05 12.45 24.2 11.9 20.3 13.95 16.85 15.1 14.7 16.35 14.7 16.45 14.45 16.6 14.35 16.6 9.25 20.2 10.9 17.55 10.95 17.5 20.0 12.45" fill="#c16100" fill-rule="evenodd" stroke="none"/>
      <path d="M19.7 11.65 L19.55 11.8 Q19.5 12.45 20.0 12.45 L10.95 17.5 12.65 15.35 13.35 14.85 15.5 13.7 17.7 12.55 18.25 12.25 18.25 12.1 19.7 11.65" fill="#963807" fill-rule="evenodd" stroke="none"/>
      <path d="M26.75 10.15 L25.55 10.05 24.65 10.2 22.8 10.75 M21.9 11.0 L21.05 11.25 19.7 11.65 M30.35 12.1 L28.5 10.75 Q27.65 10.3 26.75 10.15 M21.9 11.0 L22.8 10.75 M30.35 12.15 L30.3 12.15 M30.35 12.1 L30.35 12.15 31.0 12.8 32.1 14.55 32.45 15.1 27.0 17.15 26.8 16.95 26.5 16.9 26.6 17.3 Q23.4 18.4 20.15 19.9 L19.95 19.7 19.75 19.45 19.7 19.45 19.5 20.2 15.05 22.5 14.9 22.25 14.85 22.2 14.8 22.2 14.6 22.75 14.35 22.95 14.35 22.9 14.1 22.65 13.9 22.55 13.9 23.15 13.55 23.35 Q10.85 23.8 8.35 25.7 7.2 25.85 6.15 26.3 L6.1 25.95 M6.05 25.95 L5.65 26.45 5.65 26.55 Q4.65 27.0 3.85 27.75 L4.1 27.0 4.55 25.7 Q5.1 24.1 5.9 22.65 7.0 20.6 8.3 18.9 9.65 17.15 11.15 15.85 12.7 14.55 14.35 13.65 15.9 12.8 17.5 12.35 L17.65 12.25 18.25 12.1 19.7 11.65 M27.0 17.15 Q26.75 16.6 26.25 16.55 L26.5 16.9 M15.05 22.5 Q15.35 21.5 14.85 22.2 M14.35 22.9 L13.95 22.05 13.9 22.55 M6.1 25.55 L6.1 25.95 M6.1 25.55 Q5.75 25.9 5.65 26.45" fill="none" stroke="#000000" stroke-linecap="round" stroke-linejoin="round" stroke-opacity="0.2" stroke-width="0.05"/>
    </g>
  </defs>
</svg>
