<?xml version="1.0" encoding="UTF-8" standalone="no"?>
<svg xmlns:xlink="http://www.w3.org/1999/xlink" height="440.0px" width="440.0px" xmlns="http://www.w3.org/2000/svg">
  <g transform="matrix(10.0, 0.0, 0.0, 10.0, 0.0, 0.0)">
    <use height="44.0" transform="matrix(1.0, 0.0, 0.0, 1.0, 0.0, 0.0)" width="44.0" xlink:href="#shape0"/>
  </g>
  <defs>
    <g id="shape0" transform="matrix(1.0, 0.0, 0.0, 1.0, 0.0, 0.0)">
      <path d="M44.0 44.0 L0.0 44.0 0.0 0.0 44.0 0.0 44.0 44.0" fill="#33cc33" fill-opacity="0.0" fill-rule="evenodd" stroke="none"/>
      <path d="M23.4 11.45 L22.95 11.4 19.95 11.65 19.7 11.7 19.2 11.8 16.95 12.45 Q12.8 13.9 10.2 17.55 L8.4 20.5 Q6.95 24.05 7.65 27.95 8.7 33.55 13.7 36.75 18.7 39.95 24.7 38.9 30.8 37.75 34.25 33.0 37.8 28.2 36.75 22.55 35.95 18.05 32.45 15.1 L32.15 14.9 30.75 13.8 30.0 13.3 Q27.05 11.65 23.65 11.45 L23.4 11.45 19.35 5.35 19.2 5.4 19.2 5.45 22.95 11.4 M29.15 14.95 L26.2 17.1 25.35 17.5 25.15 17.55 22.4 18.3 21.5 18.45 21.4 18.5 18.8 18.55 13.65 17.75 Q12.85 17.6 12.5 17.3 11.9 16.8 12.8 15.9 13.65 15.0 15.95 13.7 L17.05 13.35 19.6 12.7 23.55 12.4 24.1 12.45 25.0 12.65 Q26.4 12.95 26.55 13.65 26.7 14.3 25.55 14.9 L24.95 15.1 24.55 15.3 21.2 16.35 20.45 16.5 Q17.7 16.95 18.65 15.1 M29.55 24.15 Q30.0 26.6 28.25 28.7 27.15 30.1 25.4 30.85 L25.05 31.0 23.6 31.35 19.7 31.15 18.25 30.5 Q16.95 29.8 16.2 28.7 15.7 27.95 15.45 26.9 L15.4 26.75 Q15.25 25.8 15.4 24.95 L16.2 23.85 Q17.2 22.7 18.45 21.9 19.2 21.45 20.1 21.15 20.85 20.85 21.75 20.7 L25.9 20.8 28.0 21.65 28.75 22.1 Q29.35 23.1 29.55 24.15 M20.1 21.15 L22.0 25.1 22.7 24.5 25.65 23.8 26.4 24.1 25.9 20.8 M26.4 24.1 L26.0 24.65 23.4 25.3 23.05 25.4 23.0 25.4 22.0 25.1 M19.2 5.4 L19.2 5.35 19.15 5.4 19.2 5.45 M19.15 5.4 L16.9 6.1 16.85 6.1 16.7 6.2 16.45 6.3 16.5 6.35 16.95 12.1 16.9 12.1 16.95 12.45 M23.4 25.3 L23.0 25.4" fill="none" stroke="#000000" stroke-linecap="round" stroke-linejoin="round" stroke-opacity="0.2" stroke-width="0.05"/>
      <path d="M31.95 14.95 L32.1 14.9 32.45 15.1 31.95 14.95" fill="#444444" fill-rule="evenodd" stroke="none"/>
      <path d="M9.6 24.7 Q9.5 26.9 10.35 30.05 8.3 28.05 8.3 25.2 8.4 22.3 11.2 20.6 9.9 22.45 9.6 24.7" fill="#ffff2f" fill-rule="evenodd" stroke="none"/>
      <path d="M18.65 15.1 Q17.1 18.15 25.5 14.9 26.7 14.3 26.5 13.65 26.4 12.95 25.0 12.65 21.5 11.7 15.9 13.7 9.95 17.0 13.65 17.75 9.95 17.0 15.9 13.7 21.5 11.7 25.0 12.65 26.4 12.95 26.5 13.65 26.7 14.3 25.5 14.9 17.1 18.15 18.65 15.1 M29.1 14.95 L26.2 17.1 Q24.4 17.95 22.4 18.3 18.55 19.0 13.65 17.75 10.95 18.55 8.4 20.5 9.1 19.0 10.15 17.55 13.65 12.75 19.7 11.7 L19.9 11.65 23.65 11.45 Q27.05 11.65 30.0 13.3 L30.7 13.8 Q31.5 14.3 32.1 14.9 L31.95 14.95 Q30.6 14.55 29.1 14.95" fill="#ecaa26" fill-rule="evenodd" stroke="none"/>
      <path d="M29.45 24.2 Q29.3 23.1 28.7 22.25 L27.9 21.7 Q25.1 20.1 21.65 20.8 18.1 21.4 16.1 23.9 L15.3 25.0 Q15.1 25.85 15.3 26.8 15.75 29.3 18.1 30.6 20.6 31.95 23.5 31.4 L25.35 30.85 Q27.05 30.15 28.15 28.75 29.9 26.7 29.45 24.2 M13.65 17.75 Q18.55 19.0 22.4 18.3 24.4 17.95 26.2 17.1 L29.1 14.95 Q30.6 14.55 31.95 14.95 L32.45 15.1 Q35.9 18.05 36.7 22.55 37.75 28.2 34.25 33.0 30.75 37.75 24.7 38.9 18.7 39.95 13.7 36.75 8.7 33.55 7.65 27.95 6.9 24.05 8.4 20.5 10.95 18.55 13.65 17.75 M9.6 24.7 Q9.9 22.45 11.2 20.6 8.4 22.3 8.3 25.2 8.3 28.05 10.35 30.05 9.5 26.9 9.6 24.7" fill="url(#gradient0)" fill-rule="evenodd" stroke="none"/>
      <path d="M13.65 17.75 Q9.95 17.0 15.9 13.7 21.5 11.7 25.0 12.65 26.4 12.95 26.5 13.65 26.7 14.3 25.5 14.9 17.1 18.15 18.65 15.1 M13.65 17.75 Q18.55 19.0 22.4 18.3 24.4 17.95 26.2 17.1 L29.1 14.95 M32.1 14.9 Q31.5 14.3 30.7 13.8 L30.0 13.3 Q27.05 11.65 23.65 11.45 L19.9 11.65 19.7 11.7 Q13.65 12.75 10.15 17.55 9.1 19.0 8.4 20.5 M32.45 15.1 L32.1 14.9 M32.45 15.1 Q35.9 18.05 36.7 22.55 37.75 28.2 34.25 33.0 30.75 37.75 24.7 38.9 18.7 39.95 13.7 36.75 8.7 33.55 7.65 27.95 6.9 24.05 8.4 20.5" fill="none" stroke="#000000" stroke-linecap="round" stroke-linejoin="round" stroke-opacity="0.2" stroke-width="0.05"/>
      <path d="M25.4 30.85 Q27.1 30.1 28.25 28.7 30.0 26.6 29.5 24.15 29.3 23.1 28.7 22.1 30.9 23.7 31.3 26.15 31.75 28.55 30.5 30.65 L28.55 30.0 29.4 32.05 27.1 33.8 Q27.9 31.9 25.4 30.85" fill="#ac9c46" fill-rule="evenodd" stroke="none"/>
      <path d="M19.7 31.15 L23.55 31.35 25.4 30.85 Q27.9 31.9 27.1 33.8 25.8 34.45 24.3 34.7 L23.1 34.9 Q20.15 33.5 19.7 31.15 M30.5 30.65 L31.05 32.75 29.4 32.05 28.55 30.0 30.5 30.65" fill="#9c8941" fill-rule="evenodd" stroke="none"/>
      <path d="M15.4 24.95 Q15.25 25.8 15.4 26.75 L15.45 26.9 Q15.7 27.95 16.2 28.7 15.85 30.15 18.35 33.9 L18.0 33.75 Q15.15 32.15 14.65 29.3 14.25 26.95 15.4 24.95" fill="#6b622c" fill-rule="evenodd" stroke="none"/>
      <path d="M16.2 28.7 Q16.9 29.8 18.25 30.5 L19.7 31.15 Q20.15 33.5 23.1 34.9 20.55 35.1 18.35 33.9 15.85 30.15 16.2 28.7" fill="#7e6f34" fill-rule="evenodd" stroke="none"/>
      <path d="M28.7 22.1 L27.95 21.65 Q25.2 20.1 21.7 20.7 18.25 21.35 16.15 23.85 15.7 24.35 15.4 24.95 15.25 25.8 15.4 26.75 L15.45 26.9 Q15.7 27.95 16.2 28.7 16.9 29.8 18.25 30.5 L19.7 31.15 23.55 31.35 25.4 30.85 Q27.1 30.1 28.25 28.7 30.0 26.6 29.5 24.15 29.3 23.1 28.7 22.1 Z" fill="none" stroke="#000000" stroke-linecap="round" stroke-linejoin="round" stroke-opacity="0.2" stroke-width="0.05"/>
      <path d="M21.6 16.5 L20.7 17.0 Q19.3 17.65 17.3 17.85 L13.8 17.7 Q12.3 17.5 12.1 16.85 12.05 16.25 13.1 15.7 L13.1 16.05 Q13.15 16.7 14.8 16.95 L18.7 17.1 21.6 16.5" fill="#ffcc00" fill-rule="evenodd" stroke="none"/>
      <path d="M28.5 18.5 Q27.85 20.3 26.1 20.85 24.4 21.4 22.9 20.85 21.3 20.25 20.45 18.05 19.55 15.85 20.1 13.65 20.55 11.45 21.75 11.3 L24.95 11.5 Q26.9 11.85 28.05 14.3 29.15 16.7 28.5 18.5" fill="#2b231a" fill-opacity="0.17254902" fill-rule="evenodd" stroke="none"/>
      <path d="M23.35 25.3 L23.05 25.4 23.0 25.4 23.35 25.3" fill="#8d0136" fill-rule="evenodd" stroke="none"/>
      <path d="M21.6 19.1 L21.6 19.15 21.55 19.1 21.55 19.05 21.6 19.1" fill="#b10148" fill-rule="evenodd" stroke="none"/>
      <path d="M19.9 13.6 Q20.5 14.3 21.7 13.95 20.6 14.4 21.6 19.1 L21.55 19.05 Q19.85 14.6 18.7 14.95 19.85 14.4 19.9 13.6" fill="#80e126" fill-rule="evenodd" stroke="none"/>
      <path d="M24.15 13.8 L24.6 13.25 24.15 13.8 22.45 13.75 21.7 13.95 Q20.5 14.3 19.9 13.6 L16.9 6.15 16.9 6.1 19.1 5.4 19.15 5.45 23.9 12.95 24.6 13.25 23.9 12.95 19.15 5.45 19.2 5.4 19.3 5.35 24.6 13.25 26.0 21.65 25.5 19.15 25.5 19.1 24.15 13.8 M21.6 19.1 L21.65 19.25 21.65 19.3 21.7 19.45 21.7 19.4 22.7 24.5 22.0 25.1 17.35 15.7 17.35 15.65 17.3 15.55 18.7 14.95 Q19.85 14.6 21.55 19.05 L21.55 19.1 21.6 19.15 21.6 19.1" fill="#859306" fill-rule="evenodd" stroke="none"/>
      <path d="M24.15 13.8 L25.5 19.1 25.5 19.15 26.0 21.65 26.4 24.1 25.65 23.8 22.7 24.5 21.7 19.4 21.7 19.45 21.65 19.3 21.65 19.25 21.6 19.1 Q20.6 14.4 21.7 13.95 L22.45 13.75 24.15 13.8" fill="#6f7a05" fill-rule="evenodd" stroke="none"/>
      <path d="M22.0 25.1 L22.7 24.5 25.65 23.8 26.4 24.1 25.95 24.65 23.35 25.3 23.0 25.4 22.0 25.1" fill="#515904" fill-rule="evenodd" stroke="none"/>
      <path d="M16.9 6.15 L19.9 13.6 Q19.85 14.4 18.7 14.95 L17.3 15.55 16.5 6.35 16.45 6.3 16.7 6.2 16.85 6.1 16.9 6.15" fill="#9abb11" fill-rule="evenodd" stroke="none"/>
      <path d="M24.6 13.25 L24.15 13.8 25.5 19.1 25.5 19.15 26.0 21.65 24.6 13.25 23.9 12.95 19.15 5.45 19.1 5.4 16.9 6.1 M18.7 14.95 L17.3 15.55 17.35 15.65 17.35 15.7 22.0 25.1 22.7 24.5 25.65 23.8 26.4 24.1 26.0 21.65 M26.4 24.1 L25.95 24.65 23.35 25.3 23.05 25.4 23.0 25.4 22.0 25.1 M16.9 6.15 L16.85 6.1 16.7 6.2 16.45 6.3 16.5 6.35 17.3 15.55 M16.85 6.1 L16.9 6.1 M19.2 5.4 L19.15 5.35 19.1 5.4 M19.15 5.45 L19.2 5.4 19.3 5.35 24.6 13.25 M23.35 25.3 L23.0 25.4" fill="none" stroke="#000000" stroke-linecap="round" stroke-linejoin="round" stroke-opacity="0.2" stroke-width="0.05"/>
    </g>
    <linearGradient gradientTransform="matrix(0.018, 1.0E-4, -1.0E-4, 0.0149, 22.15, 26.9)" gradientUnits="userSpaceOnUse" id="gradient0" spreadMethod="pad" x1="-819.2" x2="819.2">
      <stop offset="0.0" stop-color="#eab131"/>
      <stop offset="1.0" stop-color="#f49302"/>
    </linearGradient>
  </defs>
</svg>
