<?xml version="1.0" encoding="UTF-8" standalone="no"?>
<svg xmlns:xlink="http://www.w3.org/1999/xlink" height="440.0px" width="440.0px" xmlns="http://www.w3.org/2000/svg">
  <g transform="matrix(10.0, 0.0, 0.0, 10.0, 0.0, 0.0)">
    <use height="44.0" transform="matrix(1.0, 0.0, 0.0, 1.0, 0.0, 0.0)" width="44.0" xlink:href="#shape0"/>
  </g>
  <defs>
    <g id="shape0" transform="matrix(1.0, 0.0, 0.0, 1.0, 0.0, 0.0)">
      <path d="M44.0 44.0 L0.0 44.0 0.0 0.0 44.0 0.0 44.0 44.0" fill="#43adca" fill-opacity="0.0" fill-rule="evenodd" stroke="none"/>
      <path d="M35.15 18.7 L39.85 16.4 42.0 13.15 42.5 12.95 42.4 13.25 41.55 16.7 37.1 20.95 36.4 20.15 35.15 18.7" fill="#b19741" fill-rule="evenodd" stroke="none"/>
      <path d="M42.0 13.15 L39.85 16.4 35.15 18.7 34.7 18.05 34.95 15.6 35.05 15.6 36.6 15.25 35.05 14.0 35.15 13.3 39.3 14.45 42.0 13.15" fill="#c1a257" fill-rule="evenodd" stroke="none"/>
      <path d="M36.4 20.15 L37.1 20.95 41.55 16.7 42.4 13.25 42.5 12.95 42.0 13.15 39.3 14.45 35.15 13.3 35.05 14.0 36.6 15.25 35.05 15.6" fill="none" stroke="#382510" stroke-linecap="round" stroke-linejoin="round" stroke-opacity="0.5019608" stroke-width="0.6000000000000001"/>
      <path d="M12.9 12.65 L16.4 12.35 Q22.55 12.6 27.0 17.05 28.5 18.55 29.55 20.3 31.55 23.6 31.65 27.6 L31.65 29.9 Q31.2 28.25 29.8 26.95 25.85 26.1 22.95 23.2 20.1 20.35 18.3 15.45 16.05 13.6 12.9 12.65" fill="#b80101" fill-rule="evenodd" stroke="none"/>
      <path d="M10.05 16.1 Q8.1 17.35 5.95 19.9 6.4 16.95 8.85 15.2 L14.4 15.05 Q12.15 15.0 10.05 16.1" fill="#fc1b1b" fill-rule="evenodd" stroke="none"/>
      <path d="M31.65 29.9 Q31.1 34.55 27.7 37.95 23.55 42.1 17.4 41.85 11.25 41.7 6.8 37.25 2.35 32.8 2.15 26.6 1.95 20.5 6.1 16.35 9.0 13.45 12.9 12.65 16.05 13.6 18.3 15.45 20.1 20.35 22.95 23.2 25.85 26.1 29.8 26.95 31.2 28.25 31.65 29.9 M10.05 16.1 Q12.15 15.0 14.4 15.05 L8.85 15.2 Q6.4 16.95 5.95 19.9 8.1 17.35 10.05 16.1 M22.1 32.65 Q22.9 31.85 23.3 30.85 L23.25 29.9 Q22.95 26.6 20.35 24.0 17.8 21.45 14.45 21.1 L13.15 21.1 Q12.3 21.45 11.6 22.15 9.75 24.0 10.05 26.8 10.3 29.65 12.45 31.8 L14.0 33.05 Q15.55 34.1 17.5 34.25 20.25 34.5 22.1 32.65" fill="url(#gradient0)" fill-rule="evenodd" stroke="none"/>
      <path d="M31.65 29.9 Q31.1 34.55 27.7 37.95 23.55 42.1 17.4 41.85 11.25 41.7 6.8 37.25 2.35 32.8 2.15 26.6 1.95 20.5 6.1 16.35 9.0 13.45 12.9 12.65 L16.4 12.35 Q22.55 12.6 27.0 17.05 28.5 18.55 29.55 20.3 31.55 23.6 31.65 27.6 L31.65 29.9 Z" fill="none" stroke="#382510" stroke-linecap="round" stroke-linejoin="round" stroke-opacity="0.5019608" stroke-width="1.0"/>
      <path d="M12.5 36.15 Q11.2 35.45 10.05 34.3 L9.25 33.4 Q8.75 30.1 10.35 28.3 10.95 30.2 12.5 31.75 L14.05 33.0 Q14.6 35.75 12.5 36.15" fill="#ffcc00" fill-rule="evenodd" stroke="none"/>
      <path d="M23.35 30.8 Q23.25 33.5 21.5 35.55 19.7 37.55 15.3 37.15 13.8 36.85 12.5 36.15 14.6 35.75 14.05 33.0 15.65 34.0 17.5 34.15 20.3 34.45 22.15 32.6 22.95 31.8 23.35 30.8" fill="#ffefaf" fill-rule="evenodd" stroke="none"/>
      <path d="M7.2 28.85 L7.15 28.4 Q6.85 25.1 9.05 22.9 10.75 21.2 13.15 21.0 L11.65 22.1 11.5 22.25 10.4 23.95 Q9.0 24.45 7.2 28.85" fill="#bb6906" fill-rule="evenodd" stroke="none"/>
      <path d="M7.2 28.85 Q9.0 24.45 10.4 23.95 9.95 25.2 10.1 26.75 L10.35 28.3 Q8.75 30.1 9.25 33.4 7.6 31.35 7.2 28.85" fill="#cd9f07" fill-rule="evenodd" stroke="none"/>
      <path d="M10.4 23.95 L11.5 22.25 11.65 22.1 13.15 21.0 14.55 21.0 Q17.9 21.35 20.45 23.9 23.05 26.5 23.35 29.8 L23.35 30.8 Q22.95 31.8 22.15 32.6 20.3 34.45 17.5 34.15 15.65 34.0 14.05 33.0 L12.5 31.75 Q10.95 30.2 10.35 28.3 L10.1 26.75 Q9.95 25.2 10.4 23.95 Z" fill="none" stroke="#382510" stroke-linecap="round" stroke-linejoin="round" stroke-opacity="0.5019608" stroke-width="1.0"/>
      <path d="M16.95 13.4 Q17.6 12.75 19.2 13.65 18.95 13.7 18.75 13.9 18.0 14.65 19.05 16.9 20.1 19.25 22.3 21.85 23.95 23.8 25.55 25.0 L24.15 24.3 Q22.2 23.15 20.15 20.8 18.15 18.4 17.2 16.25 16.25 14.1 16.95 13.4" fill="#fc1b1b" fill-rule="evenodd" stroke="none"/>
      <path d="M30.95 23.95 Q29.75 25.15 27.4 24.4 24.95 23.65 22.7 21.4 20.45 19.15 19.7 16.7 18.95 14.35 20.15 13.15 21.3 12.0 23.7 12.7 26.15 13.45 28.4 15.7 30.65 17.95 31.4 20.4 32.1 22.8 30.95 23.95" fill="#3d3518" fill-rule="evenodd" stroke="none"/>
      <path d="M30.95 23.95 Q29.75 25.15 27.4 24.4 24.95 23.65 22.7 21.4 20.45 19.15 19.7 16.7 18.95 14.35 20.15 13.15 21.3 12.0 23.7 12.7 26.15 13.45 28.4 15.7 30.65 17.95 31.4 20.4 32.1 22.8 30.95 23.95 Z" fill="none" stroke="#382510" stroke-linecap="round" stroke-linejoin="round" stroke-opacity="0.3019608" stroke-width="0.6000000000000001"/>
      <path d="M36.65 10.4 Q37.25 11.6 37.7 13.35 38.5 16.55 38.2 18.35 L37.5 22.35 36.8 25.55 36.0 25.65 Q37.55 19.6 36.65 10.4 M18.25 5.7 L18.35 5.4 30.55 5.4 Q31.95 7.5 31.35 11.0 30.8 14.55 28.2 17.25 L25.65 19.1 20.05 12.4 21.15 10.6 19.3 10.45 18.25 5.7" fill="#fc1b1b" fill-rule="evenodd" stroke="none"/>
      <path d="M36.65 10.4 Q37.55 19.6 36.0 25.65 L35.85 25.7 34.3 25.95 31.4 25.55 31.6 18.65 29.5 23.45 28.9 24.55 Q26.55 22.8 24.65 20.7 28.35 19.9 30.75 16.3 34.2 11.25 32.3 6.05 L31.65 5.4 32.7 5.35 35.15 7.8 36.65 10.2 36.65 10.4" fill="#b80101" fill-rule="evenodd" stroke="none"/>
      <path d="M31.4 25.55 L29.5 23.45 31.6 18.65 31.4 25.55" fill="#6b622c" fill-rule="evenodd" stroke="none"/>
      <path d="M24.65 20.7 L23.75 19.6 23.15 18.8 Q20.45 15.3 18.2 11.65 L17.3 7.55 18.25 5.7 19.3 10.45 21.15 10.6 20.05 12.4 25.65 19.1 28.2 17.25 Q30.8 14.55 31.35 11.0 31.95 7.5 30.55 5.4 L31.2 5.35 31.65 5.4 32.3 6.05 Q34.2 11.25 30.75 16.3 28.35 19.9 24.65 20.7" fill="#ca0202" fill-rule="evenodd" stroke="none"/>
      <path d="M36.0 25.65 L36.8 25.55 37.5 22.35 38.2 18.35 Q38.5 16.55 37.7 13.35 37.25 11.6 36.65 10.4 M35.85 25.7 L34.3 25.95 31.4 25.55 29.5 23.45 28.9 24.55 Q26.55 22.8 24.65 20.7 L23.75 19.6 23.15 18.8 Q20.45 15.3 18.2 11.65 L17.3 7.55 18.25 5.7 M18.35 5.4 L30.55 5.4 31.2 5.35 M31.65 5.4 L32.7 5.35 35.15 7.8 36.65 10.2 36.65 10.4" fill="none" stroke="#382510" stroke-linecap="round" stroke-linejoin="round" stroke-opacity="0.5019608" stroke-width="1.0"/>
      <path d="M29.5 23.45 L31.6 18.65 31.4 25.55" fill="none" stroke="#382510" stroke-linecap="round" stroke-linejoin="round" stroke-opacity="0.3019608" stroke-width="0.6000000000000001"/>
      <path d="M37.05 14.4 L37.3 14.35 37.95 14.5 Q38.45 16.9 38.2 18.35 L37.5 22.35 37.55 22.5 36.75 21.9 36.6 21.75 Q37.8 18.05 37.05 14.4 M30.15 15.3 Q30.55 16.6 28.95 18.0 27.4 19.35 26.0 19.15 24.6 18.95 23.65 17.6 22.65 16.2 22.45 14.8 22.35 13.4 23.25 12.5 24.15 11.6 25.5 11.75 26.95 11.9 28.35 12.9 29.75 14.0 30.15 15.3" fill="#d5d5d5" fill-rule="evenodd" stroke="none"/>
      <path d="M24.55 6.5 Q24.65 7.4 24.05 8.0 23.45 8.6 22.5 8.55 21.6 8.45 20.85 7.7 20.1 6.95 19.95 6.0 L20.05 5.3 24.2 5.45 24.55 6.5" fill="#ffffff" fill-rule="evenodd" stroke="none"/>
      <path d="M29.85 7.5 L28.95 8.1 27.9 8.05 27.35 7.6 Q27.25 7.3 27.65 6.9 27.95 6.6 28.5 6.45 L29.6 6.35 30.1 6.85 29.85 7.5" fill="#e1e1e1" fill-rule="evenodd" stroke="none"/>
      <path d="M36.6 21.75 L36.55 21.6 Q35.8 20.45 35.6 18.75 35.35 17.0 35.9 15.75 36.3 14.65 37.05 14.4 37.8 18.05 36.6 21.75 M36.5 12.65 L35.95 14.3 Q35.3 14.95 34.7 14.95 34.15 14.9 33.8 14.25 33.35 13.5 33.45 12.5 33.55 11.5 34.2 10.85 34.65 10.2 35.2 10.25 35.85 10.2 36.35 10.9 36.6 11.65 36.5 12.65" fill="#a09176" fill-rule="evenodd" stroke="none"/>
      <path d="M27.15 10.1 L28.45 5.2 31.05 1.7 31.4 1.55 30.2 5.05 31.75 9.1 31.1 9.35 29.75 7.8 29.45 9.5 29.45 9.6 27.15 10.1" fill="#b19741" fill-rule="evenodd" stroke="none"/>
      <path d="M27.15 10.1 L25.0 8.55 24.15 7.9 27.65 3.2 28.45 5.2 27.15 10.1" fill="#d8ca7c" fill-rule="evenodd" stroke="none"/>
      <path d="M28.45 5.2 L27.65 3.2 27.8 2.95 31.05 1.7 28.45 5.2" fill="#fbf1bf" fill-rule="evenodd" stroke="none"/>
      <path d="M27.65 3.2 L24.15 7.9 25.0 8.55 M29.45 9.5 L29.75 7.8 31.1 9.35 31.75 9.1 30.2 5.05 31.4 1.55 31.05 1.7 27.8 2.95 27.65 3.2 Z" fill="none" stroke="#382510" stroke-linecap="round" stroke-linejoin="round" stroke-opacity="0.5019608" stroke-width="0.6000000000000001"/>
    </g>
    <linearGradient gradientTransform="matrix(0.0132, 0.0132, -0.0101, 0.0101, 15.1, 28.85)" gradientUnits="userSpaceOnUse" id="gradient0" spreadMethod="pad" x1="-819.2" x2="819.2">
      <stop offset="0.615686274509804" stop-color="#980101"/>
      <stop offset="1.0" stop-color="#5c0101"/>
    </linearGradient>
  </defs>
</svg>
