<?xml version="1.0" encoding="UTF-8" standalone="no"?>
<svg xmlns:xlink="http://www.w3.org/1999/xlink" height="440.0px" width="440.0px" xmlns="http://www.w3.org/2000/svg">
  <g transform="matrix(10.0, 0.0, 0.0, 10.0, 0.0, 0.0)">
    <use height="44.0" transform="matrix(0.9091, 0.0, 0.0, 0.9091, 2.0, 2.0)" width="44.0" xlink:href="#sprite0"/>
  </g>
  <defs>
    <g id="sprite0" transform="matrix(1.0, 0.0, 0.0, 1.0, 0.0, 0.0)">
      <use height="44.0" transform="matrix(1.0, 0.0, 0.0, 1.0, 0.0, 0.0)" width="44.0" xlink:href="#shape0"/>
      <use height="78.7" transform="matrix(0.4714, 0.0, 0.0, 0.4828, 5.4493, 2.9896)" width="70.2" xlink:href="#sprite1"/>
    </g>
    <g id="shape0" transform="matrix(1.0, 0.0, 0.0, 1.0, 0.0, 0.0)">
      <path d="M44.0 44.0 L0.0 44.0 0.0 0.0 44.0 0.0 44.0 44.0" fill="#43adca" fill-opacity="0.0" fill-rule="evenodd" stroke="none"/>
    </g>
    <g id="sprite1" transform="matrix(1.0, 0.0, 0.0, 1.0, 0.85, 0.85)">
      <use height="78.7" transform="matrix(1.0, 0.0, 0.0, 1.0, -0.85, -0.85)" width="70.2" xlink:href="#shape1"/>
    </g>
    <g id="shape1" transform="matrix(1.0, 0.0, 0.0, 1.0, 0.85, 0.85)">
      <path d="M18.4 4.25 L19.35 3.7 Q21.8 2.35 24.45 1.5 28.0 0.35 31.95 0.1 L34.25 0.0 37.55 0.15 Q40.65 0.45 43.6 1.35 46.2 2.15 48.65 3.45 52.7 5.55 56.3 9.0 L58.45 11.25 60.1 13.25 Q62.3 16.05 63.95 19.15 L64.9 21.1 66.65 25.65 66.8 26.2 Q68.2 30.85 68.45 36.1 L68.5 38.5 68.5 39.3 Q68.45 42.55 68.0 45.6 67.3 49.9 65.8 53.85 L64.9 55.9 63.3 59.05 Q61.85 61.55 60.0 63.9 L58.45 65.7 55.75 68.5 Q52.05 71.9 47.85 73.95 44.4 75.6 40.65 76.4 L34.25 77.0 33.55 77.0 Q26.3 76.85 20.2 73.75 L16.75 71.7 14.95 70.4 12.85 68.6 10.0 65.7 8.05 63.35 5.5 59.6 Q4.2 57.4 3.2 55.05 1.75 51.65 1.0 47.95 L0.4 44.45 0.35 44.25 Q0.0 41.6 0.0 38.8 L0.0 38.5 Q0.0 35.8 0.3 33.3 L0.35 32.65 Q0.95 28.25 2.85 24.2 3.7 20.3 5.9 16.8 L6.45 16.15 6.5 16.1 6.7 15.6 Q7.35 14.3 9.45 11.95 L10.0 11.25 12.35 8.85 12.85 8.35 Q15.5 5.95 18.4 4.25 M23.75 26.85 Q24.9 24.45 26.6 22.4 28.6 19.95 30.9 18.4 33.65 19.6 35.65 21.85 38.6 25.0 40.15 28.95 L40.8 30.9 41.25 32.4 Q42.35 36.9 42.0 41.55 41.65 46.95 39.35 51.5 36.85 56.5 32.3 59.4 L33.6 60.25 31.45 59.15 Q29.4 57.85 27.65 55.95 L26.6 54.8 Q25.0 52.85 23.9 50.7 21.1 45.35 21.1 38.6 L21.1 38.25 Q21.2 31.9 23.75 26.85" fill="none" stroke="#0e3425" stroke-linecap="round" stroke-linejoin="round" stroke-width="1.75"/>
      <path d="M35.6 14.4 Q39.3 12.9 43.15 13.4 48.75 14.15 52.7 18.55 56.3 22.55 58.15 27.8 59.85 32.6 59.8 37.85 59.7 43.5 57.8 48.8 55.7 54.4 51.45 58.4 47.05 62.4 41.25 62.45 36.4 62.45 32.3 59.4 36.85 56.5 39.35 51.5 41.65 46.95 42.0 41.55 42.4 36.15 40.8 30.9 39.3 25.8 35.65 21.85 33.35 19.3 30.2 18.15 L35.6 14.4" fill="url(#gradient0)" fill-rule="evenodd" stroke="none"/>
      <path d="M13.3 16.2 L13.35 15.95" fill="none" stroke="#448463" stroke-linecap="round" stroke-linejoin="round" stroke-opacity="0.27058825" stroke-width="0.5"/>
      <path d="M9.45 11.95 L10.0 11.25 12.35 8.85 12.85 8.35 Q15.5 5.95 18.4 4.25 19.25 4.7 19.35 5.7 19.7 8.3 17.05 9.7 15.1 10.8 12.85 11.25 L11.75 11.4 9.45 11.95" fill="url(#gradient1)" fill-rule="evenodd" stroke="none"/>
      <path d="M37.55 0.15 Q40.65 0.45 43.6 1.35 46.2 2.15 48.65 3.45 52.7 5.55 56.3 9.0 L56.15 9.2 Q54.15 12.05 51.75 11.95 52.1 13.85 51.4 15.5 L47.7 13.2 Q44.9 11.9 41.8 11.6 41.0 9.95 39.4 9.55 37.55 9.1 35.6 10.1 34.1 10.9 34.15 12.2 31.25 13.0 28.7 14.75 27.7 13.35 28.2 11.45 L28.25 11.3 Q28.8 9.4 30.0 7.8 30.9 6.6 32.05 5.7 33.35 4.75 34.8 4.3 36.55 3.8 38.25 3.85 38.3 1.85 37.55 0.15 M66.8 26.2 Q68.2 30.85 68.45 36.1 66.25 36.35 65.15 34.3 66.4 32.2 66.8 29.85 67.15 28.05 66.8 26.2 M65.8 53.85 L64.9 55.9 63.3 59.05 Q62.4 58.05 61.05 57.45 L61.0 57.45 Q62.0 56.1 63.5 55.1 L63.9 54.85 65.8 53.85 M60.0 63.9 L58.45 65.7 55.75 68.5 Q52.05 71.9 47.85 73.95 44.4 75.6 40.65 76.4 L41.1 75.4 Q41.3 74.55 41.05 73.8 L40.05 72.15 39.3 71.4 Q39.85 69.95 42.1 69.2 L45.45 68.25 46.2 68.1 46.05 67.8 45.8 67.55 45.3 67.25 Q45.75 66.7 46.0 65.05 L46.1 64.35 Q49.75 63.05 52.85 60.2 L54.4 58.65 56.75 60.05 Q57.95 60.85 58.85 62.0 L60.0 63.9 M33.55 77.0 Q26.3 76.85 20.2 73.75 19.65 72.35 22.05 71.6 L25.0 70.95 Q26.9 70.75 28.7 71.0 30.45 71.25 31.7 72.3 33.55 73.9 33.65 76.0 L33.55 77.0 M8.05 63.35 L5.5 59.6 6.65 58.7 7.15 58.25 Q7.35 60.35 7.9 62.75 L8.05 63.35 M3.2 55.05 Q1.75 51.65 1.0 47.95 L0.4 44.45 1.25 44.95 Q3.5 46.45 4.65 48.8 5.35 50.2 4.9 51.85 4.5 53.6 3.3 54.95 L3.2 55.05 M0.0 38.8 L0.0 38.5 Q0.0 35.8 0.3 33.3 L0.35 33.3 3.15 32.55 4.9 31.95 5.6 31.65 6.7 31.15 Q8.8 30.2 10.15 28.65 L11.35 30.25 12.85 31.5 15.35 31.85 16.05 33.25 17.3 34.95 17.1 38.45 17.2 40.75 13.55 40.4 12.85 40.2 11.4 39.5 11.2 39.9 Q10.05 42.3 8.3 43.2 L8.2 43.1 Q7.05 41.45 5.3 40.4 4.45 39.9 3.5 39.55 L1.8 39.1 0.35 38.85 0.0 38.8 M2.85 24.2 Q3.7 20.3 5.9 16.8 L6.45 16.15 6.55 16.1 Q6.9 15.85 7.45 15.7 L7.85 15.6 7.25 15.85 9.95 14.95 12.85 14.5 14.75 14.25 14.3 15.45 12.85 16.15 Q11.65 16.85 10.65 17.85 9.1 19.4 8.55 21.35 7.1 22.9 5.2 23.7 3.7 24.4 2.85 24.2 M7.25 15.85 L6.55 16.1 7.25 15.85 M14.45 19.25 Q15.1 21.35 16.35 22.95 14.75 24.6 14.7 27.05 13.5 26.65 12.85 25.9 12.0 24.9 11.95 23.2 11.9 21.3 12.85 20.25 13.45 19.55 14.45 19.25 M5.85 34.75 L5.3 35.1 Q3.0 36.8 3.5 39.55 3.0 36.8 5.3 35.1 L5.85 34.75 Q5.05 33.45 4.9 31.95 5.05 33.45 5.85 34.75 L6.25 34.55 5.85 34.75 6.15 35.2 Q7.7 37.35 9.8 39.05 L10.7 39.7 9.8 39.05 Q7.7 37.35 6.15 35.2 L5.85 34.75 M10.5 49.75 L10.7 49.65 12.85 48.7 13.35 48.35 16.0 45.85 17.45 43.4 Q18.05 47.65 19.75 51.35 L16.35 51.2 16.15 51.15 Q13.85 50.65 12.85 48.7 13.85 50.65 16.15 51.15 L16.35 51.2 Q15.35 51.65 14.7 54.7 L14.1 57.95 13.9 59.9 12.85 59.7 Q11.0 59.15 9.35 57.95 L8.35 56.9 9.2 55.5 Q10.2 53.75 10.4 51.75 L10.5 49.75 M22.3 55.8 L23.65 57.55 Q25.55 59.85 27.7 61.5 L26.35 62.65 Q24.9 64.1 24.95 65.9 L23.2 66.1 Q21.95 66.4 20.75 67.0 L20.1 65.1 Q19.45 62.5 19.95 59.8 20.4 57.35 22.3 55.8 M47.7 13.2 L48.05 11.9 Q48.3 10.4 47.6 9.15 46.6 7.35 44.8 6.1 43.7 5.3 42.5 4.8 L40.1 4.05 38.25 3.85 40.1 4.05 42.5 4.8 Q43.55 3.1 43.6 1.35 43.55 3.1 42.5 4.8 43.7 5.3 44.8 6.1 46.6 7.35 47.6 9.15 48.3 10.4 48.05 11.9 L47.7 13.2 M48.65 3.45 Q48.2 5.2 49.4 6.95 50.85 8.9 51.55 11.1 L51.75 11.95 51.55 11.1 Q50.85 8.9 49.4 6.95 48.2 5.2 48.65 3.45 M55.75 68.5 L53.85 68.0 49.5 67.65 46.2 68.1 49.5 67.65 53.85 68.0 55.75 68.5 M53.4 67.55 Q54.35 64.75 53.4 61.85 L52.85 60.2 53.4 61.85 Q54.35 64.75 53.4 67.55 M47.85 73.95 L46.2 73.15 Q43.25 72.15 41.05 73.8 43.25 72.15 46.2 73.15 L47.85 73.95" fill="url(#gradient2)" fill-rule="evenodd" stroke="none"/>
      <path d="M18.4 4.25 L19.35 3.7 Q21.8 2.35 24.45 1.5 26.05 2.3 26.3 4.0 L26.3 5.1 Q26.05 7.75 24.3 9.5 L23.25 10.55 19.8 12.75 19.0 13.15 Q16.95 13.95 14.75 14.25 L12.85 14.5 9.95 14.95 7.25 15.85 7.85 15.6 7.45 15.7 Q6.9 15.85 6.55 16.1 L6.45 16.15 6.7 15.6 Q7.35 14.3 9.45 11.95 L11.75 11.4 12.85 11.25 Q15.1 10.8 17.05 9.7 19.7 8.3 19.35 5.7 19.25 4.7 18.4 4.25" fill="url(#gradient3)" fill-rule="evenodd" stroke="none"/>
      <path d="M14.75 14.25 Q16.95 13.95 19.0 13.15 17.9 15.95 20.15 18.25 21.4 19.6 23.05 20.15 21.55 22.05 20.45 24.2 L19.65 25.85 Q18.15 25.05 17.05 23.8 L16.35 22.95 Q15.1 21.35 14.45 19.25 L14.4 19.1 Q13.7 16.95 14.3 15.45 L14.75 14.25" fill="url(#gradient4)" fill-rule="evenodd" stroke="none"/>
      <path d="M66.65 25.65 L66.8 26.2 Q67.15 28.05 66.8 29.85 66.4 32.2 65.15 34.3 L65.05 34.4 63.25 36.45 61.9 37.2 Q61.8 34.4 61.3 31.85 60.55 28.15 58.95 24.9 60.35 27.15 63.2 26.75 65.1 26.5 66.65 25.65 M40.65 76.4 L34.25 77.0 33.55 77.0 33.65 76.0 Q33.55 73.9 31.7 72.3 30.45 71.25 28.7 71.0 26.9 70.75 25.0 70.95 L22.05 71.6 Q19.65 72.35 20.2 73.75 L16.75 71.7 Q16.75 70.6 17.45 69.55 18.25 68.4 19.45 67.65 L20.75 67.0 Q21.95 66.4 23.2 66.1 L24.95 65.9 Q24.9 64.1 26.35 62.65 L27.7 61.5 Q29.8 63.05 32.1 64.05 30.8 65.0 30.05 66.6 L32.2 67.35 Q34.5 68.4 36.75 69.6 L39.3 71.4 40.05 72.15 41.05 73.8 Q41.3 74.55 41.1 75.4 L40.65 76.4 M14.95 70.4 L12.85 68.6 10.0 65.7 8.05 63.35 7.9 62.75 Q7.35 60.35 7.15 58.25 L6.65 58.7 5.5 59.6 Q4.2 57.4 3.2 55.05 L3.3 54.95 Q4.5 53.6 4.9 51.85 5.35 50.2 4.65 48.8 3.5 46.45 1.25 44.95 L0.4 44.45 0.35 44.25 Q0.0 41.6 0.0 38.8 L0.35 38.85 1.8 39.1 3.5 39.55 Q4.45 39.9 5.3 40.4 7.05 41.45 8.2 43.1 L8.3 43.2 Q10.05 42.3 11.2 39.9 L11.4 39.5 12.85 40.2 13.55 40.4 17.2 40.75 17.45 43.4 16.0 45.85 13.35 48.35 12.85 48.7 10.7 49.65 10.5 49.75 10.1 47.3 Q9.55 45.05 8.3 43.2 9.55 45.05 10.1 47.3 L10.5 49.75 10.4 51.75 Q10.2 53.75 9.2 55.5 L8.35 56.9 9.35 57.95 Q11.0 59.15 12.85 59.7 L13.9 59.9 Q13.75 61.2 13.75 62.55 13.75 65.3 14.3 68.0 L14.95 70.4 M14.3 15.45 Q13.7 16.95 14.4 19.1 L14.45 19.25 Q13.45 19.55 12.85 20.25 11.9 21.3 11.95 23.2 12.0 24.9 12.85 25.9 13.5 26.65 14.7 27.05 L14.7 27.2 14.9 30.25 Q15.05 31.1 15.35 31.85 L12.85 31.5 11.35 30.25 10.15 28.65 8.75 25.75 Q8.0 23.6 8.55 21.4 L8.55 21.35 Q9.1 19.4 10.65 17.85 11.65 16.85 12.85 16.15 L14.3 15.45 M41.8 11.6 L39.5 11.45 Q36.7 11.45 34.15 12.2 34.1 10.9 35.6 10.1 37.55 9.1 39.4 9.55 41.0 9.95 41.8 11.6 M61.3 31.85 L61.55 31.5 Q63.45 29.55 63.1 27.3 63.45 29.55 61.55 31.5 L61.3 31.85 M30.05 66.6 L27.55 66.0 24.95 65.9 27.55 66.0 30.05 66.6 M7.15 58.25 L8.35 56.9 7.15 58.25" fill="url(#gradient5)" fill-rule="evenodd" stroke="none"/>
      <path d="M16.35 22.95 L17.05 23.8 Q18.15 25.05 19.65 25.85 17.75 30.05 17.3 34.95 L16.05 33.25 15.35 31.85 Q15.05 31.1 14.9 30.25 L14.7 27.2 14.7 27.05 Q14.75 24.6 16.35 22.95" fill="url(#gradient6)" fill-rule="evenodd" stroke="none"/>
      <path d="M56.3 9.0 L58.45 11.25 60.1 13.25 Q59.4 15.7 56.7 15.25 L56.55 14.8 Q55.9 12.95 54.85 11.3 55.9 12.95 56.55 14.8 L56.7 15.25 57.25 18.0 57.35 19.15 Q58.8 21.35 61.5 20.5 L63.95 19.15 64.9 21.1 66.65 25.65 Q65.1 26.5 63.2 26.75 60.35 27.15 58.95 24.9 L57.3 22.0 55.35 19.35 Q53.5 17.1 51.4 15.5 52.1 13.85 51.75 11.95 54.15 12.05 56.15 9.2 L56.3 9.0 M68.45 36.1 L68.5 38.5 68.5 39.3 Q67.3 39.8 66.2 39.7 63.35 39.5 63.25 36.45 L65.05 34.4 65.15 34.3 Q66.25 36.35 68.45 36.1 M68.0 45.6 Q67.3 49.9 65.8 53.85 L63.9 54.85 63.5 55.1 Q62.7 52.5 61.1 50.55 L60.05 49.5 Q61.1 46.6 61.55 43.4 62.15 44.45 63.55 45.0 L65.3 45.5 67.95 45.6 68.0 45.6 M63.3 59.05 Q61.85 61.55 60.0 63.9 L58.85 62.0 Q57.95 60.85 56.75 60.05 L54.4 58.65 55.35 57.55 56.4 56.25 57.75 56.4 Q59.4 56.75 61.0 57.45 L61.05 57.45 Q62.4 58.05 63.3 59.05 M16.75 71.7 L14.95 70.4 14.3 68.0 Q13.75 65.3 13.75 62.55 13.75 61.2 13.9 59.9 L14.1 57.95 14.7 54.7 Q15.35 51.65 16.35 51.2 L19.75 51.35 Q20.8 53.7 22.3 55.8 20.4 57.35 19.95 59.8 19.45 62.5 20.1 65.1 L20.75 67.0 19.45 67.65 Q18.25 68.4 17.45 69.55 16.75 70.6 16.75 71.7 M0.3 33.3 L0.35 32.65 Q0.95 28.25 2.85 24.2 3.7 24.4 5.2 23.7 7.1 22.9 8.55 21.35 L8.55 21.4 Q8.0 23.6 8.75 25.75 L10.15 28.65 Q8.8 30.2 6.7 31.15 L5.6 31.65 4.9 31.95 3.15 32.55 0.35 33.3 0.3 33.3 M32.1 64.05 Q35.55 65.45 39.5 65.45 43.0 65.45 46.1 64.35 L46.0 65.05 Q45.75 66.7 45.3 67.25 L45.8 67.55 46.05 67.8 46.2 68.1 45.45 68.25 42.1 69.2 Q39.85 69.95 39.3 71.4 L36.75 69.6 Q34.5 68.4 32.2 67.35 L30.05 66.6 Q30.8 65.0 32.1 64.05 M57.35 19.15 L57.3 21.8 57.3 22.0 57.3 21.8 57.35 19.15 M65.3 45.5 L64.85 46.65 Q63.65 48.95 61.75 50.7 63.65 48.95 64.85 46.65 L65.3 45.5 M45.3 67.25 Q44.8 67.0 44.3 66.9 L39.15 66.6 Q36.3 66.9 35.1 68.45 36.3 66.9 39.15 66.6 L44.3 66.9 Q44.8 67.0 45.3 67.25" fill="url(#gradient7)" fill-rule="evenodd" stroke="none"/>
      <path d="M19.65 25.85 L20.45 24.2 Q21.55 22.05 23.05 20.15 L23.65 19.35 Q26.0 16.55 28.7 14.75 31.25 13.0 34.15 12.2 36.7 11.45 39.5 11.45 L41.8 11.6 Q44.9 11.9 47.7 13.2 L51.4 15.5 Q53.5 17.1 55.35 19.35 L57.3 22.0 58.95 24.9 Q60.55 28.15 61.3 31.85 61.8 34.4 61.9 37.2 L61.9 38.45 Q61.9 41.0 61.55 43.4 61.1 46.6 60.05 49.5 58.7 53.1 56.4 56.25 L55.35 57.55 54.4 58.65 52.85 60.2 Q49.75 63.05 46.1 64.35 43.0 65.45 39.5 65.45 35.55 65.45 32.1 64.05 29.8 63.05 27.7 61.5 25.55 59.85 23.65 57.55 L22.3 55.8 Q20.8 53.7 19.75 51.35 18.05 47.65 17.45 43.4 L17.2 40.75 17.1 38.45 17.3 34.95 Q17.75 30.05 19.65 25.85 M51.2 20.25 Q46.3 15.7 39.9 15.7 35.2 15.7 31.35 18.15 L31.15 18.25 Q28.7 19.85 26.6 22.4 24.9 24.45 23.75 26.85 21.2 31.9 21.1 38.25 L21.1 38.6 Q21.1 45.35 23.9 50.7 25.0 52.85 26.6 54.8 L27.65 55.95 Q29.4 57.85 31.45 59.15 35.25 61.5 39.9 61.5 47.7 61.5 53.2 54.8 58.7 48.1 58.7 38.6 L58.7 38.05 58.4 34.1 Q57.35 27.45 53.2 22.4 L51.2 20.25" fill="url(#gradient8)" fill-rule="evenodd" stroke="none"/>
      <path d="M60.1 13.25 Q62.3 16.05 63.95 19.15 L61.5 20.5 Q58.8 21.35 57.35 19.15 L57.25 18.0 56.7 15.25 Q59.4 15.7 60.1 13.25 M68.5 39.3 Q68.45 42.55 68.0 45.6 L67.95 45.6 65.3 45.5 63.55 45.0 Q62.15 44.45 61.55 43.4 61.9 41.0 61.9 38.45 L61.9 37.2 63.25 36.45 Q63.35 39.5 66.2 39.7 67.3 39.8 68.5 39.3 M56.4 56.25 Q58.7 53.1 60.05 49.5 L61.1 50.55 Q62.7 52.5 63.5 55.1 62.0 56.1 61.0 57.45 59.4 56.75 57.75 56.4 L56.4 56.25" fill="url(#gradient9)" fill-rule="evenodd" stroke="none"/>
      <path d="M31.95 0.1 L34.25 0.0 37.55 0.15 Q38.3 1.85 38.25 3.85 36.55 3.8 34.8 4.3 33.35 4.75 32.05 5.7 30.9 6.6 30.0 7.8 28.8 9.4 28.25 11.3 L26.95 11.75 Q24.6 12.45 23.25 10.55 L24.3 9.5 Q26.05 7.75 26.3 5.1 L26.3 4.0 Q29.05 3.6 30.9 1.8 L31.95 0.1" fill="url(#gradient10)" fill-rule="evenodd" stroke="none"/>
      <path d="M24.45 1.5 Q28.0 0.35 31.95 0.1 L30.9 1.8 Q29.05 3.6 26.3 4.0 26.05 2.3 24.45 1.5" fill="url(#gradient11)" fill-rule="evenodd" stroke="none"/>
      <path d="M19.0 13.15 L19.8 12.75 23.25 10.55 Q24.6 12.45 26.95 11.75 L28.25 11.3 28.2 11.45 Q27.7 13.35 28.7 14.75 26.0 16.55 23.65 19.35 L23.05 20.15 Q21.4 19.6 20.15 18.25 17.9 15.95 19.0 13.15" fill="url(#gradient12)" fill-rule="evenodd" stroke="none"/>
      <path d="M9.45 11.95 L11.75 11.4 12.85 11.25 Q15.1 10.8 17.05 9.7 19.7 8.3 19.35 5.7 19.25 4.7 18.4 4.25 M6.55 16.1 L7.25 15.85 9.95 14.95 12.85 14.5 14.75 14.25 14.3 15.45 Q13.7 16.95 14.4 19.1 L14.45 19.25 Q15.1 21.35 16.35 22.95 L17.05 23.8 Q18.15 25.05 19.65 25.85 M14.75 14.25 Q16.95 13.95 19.0 13.15 L19.8 12.75 23.25 10.55 24.3 9.5 Q26.05 7.75 26.3 5.1 L26.3 4.0 Q26.05 2.3 24.45 1.5 M23.05 20.15 Q21.4 19.6 20.15 18.25 17.9 15.95 19.0 13.15 M14.3 15.45 L12.85 16.15 Q11.65 16.85 10.65 17.85 9.1 19.4 8.55 21.35 L8.55 21.4 Q8.0 23.6 8.75 25.75 L10.15 28.65 11.35 30.25 12.85 31.5 15.35 31.85 Q15.05 31.1 14.9 30.25 L14.7 27.2 14.7 27.05 Q13.5 26.65 12.85 25.9 12.0 24.9 11.95 23.2 11.9 21.3 12.85 20.25 13.45 19.55 14.45 19.25 M16.35 22.95 Q14.75 24.6 14.7 27.05 M15.35 31.85 L16.05 33.25 17.3 34.95 M2.85 24.2 Q3.7 24.4 5.2 23.7 7.1 22.9 8.55 21.35 M4.9 31.95 L3.15 32.55 0.35 33.3 0.3 33.3 M10.15 28.65 Q8.8 30.2 6.7 31.15 L5.6 31.65 4.9 31.95 Q5.05 33.45 5.85 34.75 L6.25 34.55 M5.85 34.75 L6.15 35.2 Q7.7 37.35 9.8 39.05 L10.7 39.7 M3.5 39.55 Q3.0 36.8 5.3 35.1 L5.85 34.75 M0.0 38.8 L0.35 38.85 1.8 39.1 3.5 39.55 Q4.45 39.9 5.3 40.4 7.05 41.45 8.2 43.1 L8.3 43.2 Q10.05 42.3 11.2 39.9 L11.4 39.5 12.85 40.2 13.55 40.4 17.2 40.75 M0.4 44.45 L1.25 44.95 Q3.5 46.45 4.65 48.8 5.35 50.2 4.9 51.85 4.5 53.6 3.3 54.95 L3.2 55.05 M10.5 49.75 L10.7 49.65 12.85 48.7 13.35 48.35 16.0 45.85 17.45 43.4 M38.25 3.85 L40.1 4.05 42.5 4.8 Q43.55 3.1 43.6 1.35 M51.75 11.95 L51.55 11.1 Q50.85 8.9 49.4 6.95 48.2 5.2 48.65 3.45 M42.5 4.8 Q43.7 5.3 44.8 6.1 46.6 7.35 47.6 9.15 48.3 10.4 48.05 11.9 L47.7 13.2 M54.85 11.3 Q55.9 12.95 56.55 14.8 L56.7 15.25 Q59.4 15.7 60.1 13.25 M51.75 11.95 Q54.15 12.05 56.15 9.2 L56.3 9.0 M56.7 15.25 L57.25 18.0 57.35 19.15 Q58.8 21.35 61.5 20.5 L63.95 19.15 M51.4 15.5 Q52.1 13.85 51.75 11.95 M26.3 4.0 Q29.05 3.6 30.9 1.8 L31.95 0.1 M28.25 11.3 Q28.8 9.4 30.0 7.8 30.9 6.6 32.05 5.7 33.35 4.75 34.8 4.3 36.55 3.8 38.25 3.85 38.3 1.85 37.55 0.15 M23.25 10.55 Q24.6 12.45 26.95 11.75 L28.25 11.3 28.2 11.45 Q27.7 13.35 28.7 14.75 M41.8 11.6 Q41.0 9.95 39.4 9.55 37.55 9.1 35.6 10.1 34.1 10.9 34.15 12.2 M57.3 22.0 L57.3 21.8 57.35 19.15 M65.15 34.3 Q66.4 32.2 66.8 29.85 67.15 28.05 66.8 26.2 M58.95 24.9 Q60.35 27.15 63.2 26.75 65.1 26.5 66.65 25.65 M63.1 27.3 Q63.45 29.55 61.55 31.5 L61.3 31.85 M63.25 36.45 L65.05 34.4 65.15 34.3 Q66.25 36.35 68.45 36.1 M61.9 37.2 L63.25 36.45 Q63.35 39.5 66.2 39.7 67.3 39.8 68.5 39.3 M61.55 43.4 Q62.15 44.45 63.55 45.0 L65.3 45.5 67.95 45.6 68.0 45.6 M63.5 55.1 L63.9 54.85 65.8 53.85 M61.0 57.45 L61.05 57.45 Q62.4 58.05 63.3 59.05 M61.0 57.45 Q62.0 56.1 63.5 55.1 62.7 52.5 61.1 50.55 L60.05 49.5 M61.75 50.7 Q63.65 48.95 64.85 46.65 L65.3 45.5 M56.4 56.25 L57.75 56.4 Q59.4 56.75 61.0 57.45 M46.1 64.35 L46.0 65.05 Q45.75 66.7 45.3 67.25 L45.8 67.55 46.05 67.8 46.2 68.1 49.5 67.65 53.85 68.0 55.75 68.5 M39.3 71.4 Q39.85 69.95 42.1 69.2 L45.45 68.25 46.2 68.1 M35.1 68.45 Q36.3 66.9 39.15 66.6 L44.3 66.9 Q44.8 67.0 45.3 67.25 M52.85 60.2 L53.4 61.85 Q54.35 64.75 53.4 67.55 M54.4 58.65 L56.75 60.05 Q57.95 60.85 58.85 62.0 L60.0 63.9 M24.95 65.9 L27.55 66.0 30.05 66.6 Q30.8 65.0 32.1 64.05 M16.75 71.7 Q16.75 70.6 17.45 69.55 18.25 68.4 19.45 67.65 L20.75 67.0 20.1 65.1 Q19.45 62.5 19.95 59.8 20.4 57.35 22.3 55.8 M20.75 67.0 Q21.95 66.4 23.2 66.1 L24.95 65.9 Q24.9 64.1 26.35 62.65 L27.7 61.5 M30.05 66.6 L32.2 67.35 Q34.5 68.4 36.75 69.6 L39.3 71.4 40.05 72.15 41.05 73.8 Q43.25 72.15 46.2 73.15 L47.85 73.95 M20.2 73.75 Q19.65 72.35 22.05 71.6 L25.0 70.95 Q26.9 70.75 28.7 71.0 30.45 71.25 31.7 72.3 33.55 73.9 33.65 76.0 L33.55 77.0 M41.05 73.8 Q41.3 74.55 41.1 75.4 L40.65 76.4 M12.85 48.7 Q13.85 50.65 16.15 51.15 L16.35 51.2 19.75 51.35 M8.3 43.2 Q9.55 45.05 10.1 47.3 L10.5 49.75 10.4 51.75 Q10.2 53.75 9.2 55.5 L8.35 56.9 9.35 57.95 Q11.0 59.15 12.85 59.7 L13.9 59.9 14.1 57.95 14.7 54.7 Q15.35 51.65 16.35 51.2 M8.35 56.9 L7.15 58.25 Q7.35 60.35 7.9 62.75 L8.05 63.35 M7.15 58.25 L6.65 58.7 5.5 59.6 M13.9 59.9 Q13.75 61.2 13.75 62.55 13.75 65.3 14.3 68.0 L14.95 70.4" fill="none" stroke="#238156" stroke-linecap="round" stroke-linejoin="round" stroke-opacity="0.6313726" stroke-width="0.5"/>
      <path d="M17.35 17.45 Q17.25 19.4 16.2 21.45 15.05 23.5 13.6 24.45 12.1 25.4 11.2 24.7 10.2 23.95 10.3 22.0 10.45 20.0 11.6 17.95 12.7 15.85 14.15 14.9 15.6 13.95 16.55 14.75 17.45 15.45 17.35 17.45" fill="#ffffff" fill-opacity="0.9137255" fill-rule="evenodd" stroke="none"/>
      <path d="M60.9 32.9 L60.9 32.85 61.2 33.25 60.9 32.9" fill="#ffffff" fill-opacity="0.87058824" fill-rule="evenodd" stroke="none"/>
      <path d="M3.45 37.2 Q3.55 19.6 16.45 9.3 24.55 2.7 34.35 2.55 L35.9 2.45 Q25.95 5.25 18.4 13.25 10.35 21.7 8.2 32.65 7.9 34.15 7.75 35.7 L7.45 39.9 Q7.05 55.45 17.4 67.0 3.2 55.9 3.45 37.2" fill="#e0f8f0" fill-opacity="0.57254905" fill-rule="evenodd" stroke="none"/>
      <path d="M61.65 42.65 Q62.15 34.15 60.5 29.7 58.5 22.85 53.2 16.35 64.5 26.4 63.75 41.05 63.15 54.8 52.3 61.75 45.5 66.1 37.5 65.35 L36.25 65.25 42.35 64.8 Q47.95 64.45 54.55 57.75 61.1 51.1 61.65 42.65" fill="#017878" fill-opacity="0.5019608" fill-rule="evenodd" stroke="none"/>
    </g>
    <linearGradient gradientTransform="matrix(-0.002, -0.0198, 0.029, -0.0047, 44.35, 39.3)" gradientUnits="userSpaceOnUse" id="gradient0" spreadMethod="pad" x1="-819.2" x2="819.2">
      <stop offset="0.0" stop-color="#20775c"/>
      <stop offset="1.0" stop-color="#66983d"/>
    </linearGradient>
    <linearGradient gradientTransform="matrix(0.0418, 0.0, 0.0, 0.047, 34.25, 38.5)" gradientUnits="userSpaceOnUse" id="gradient1" spreadMethod="pad" x1="-819.2" x2="819.2">
      <stop offset="0.14901960784313725" stop-color="#49cda5"/>
      <stop offset="0.6549019607843137" stop-color="#a7d94a"/>
    </linearGradient>
    <linearGradient gradientTransform="matrix(0.0418, 0.0, 0.0, 0.047, 34.25, 38.5)" gradientUnits="userSpaceOnUse" id="gradient2" spreadMethod="pad" x1="-819.2" x2="819.2">
      <stop offset="0.0" stop-color="#2fb093"/>
      <stop offset="1.0" stop-color="#a7d94a"/>
    </linearGradient>
    <linearGradient gradientTransform="matrix(0.0418, 0.0, 0.0, 0.047, 34.25, 38.5)" gradientUnits="userSpaceOnUse" id="gradient3" spreadMethod="pad" x1="-819.2" x2="819.2">
      <stop offset="0.0" stop-color="#49cda5"/>
      <stop offset="0.5058823529411764" stop-color="#a7d94a"/>
    </linearGradient>
    <linearGradient gradientTransform="matrix(0.0418, 0.0, 0.0, 0.047, 34.25, 38.5)" gradientUnits="userSpaceOnUse" id="gradient4" spreadMethod="pad" x1="-819.2" x2="819.2">
      <stop offset="0.20392156862745098" stop-color="#49cda5"/>
      <stop offset="0.7607843137254902" stop-color="#a7d94a"/>
    </linearGradient>
    <linearGradient gradientTransform="matrix(0.0418, 0.0, 0.0, 0.047, 34.25, 38.5)" gradientUnits="userSpaceOnUse" id="gradient5" spreadMethod="pad" x1="-819.2" x2="819.2">
      <stop offset="0.0" stop-color="#49cda5"/>
      <stop offset="0.5843137254901961" stop-color="#a7d94a"/>
    </linearGradient>
    <linearGradient gradientTransform="matrix(0.0418, 0.0, 0.0, 0.047, 34.25, 38.5)" gradientUnits="userSpaceOnUse" id="gradient6" spreadMethod="pad" x1="-819.2" x2="819.2">
      <stop offset="0.0" stop-color="#49cda5"/>
      <stop offset="0.48627450980392156" stop-color="#a7d94a"/>
    </linearGradient>
    <linearGradient gradientTransform="matrix(0.0418, 0.0, 0.0, 0.047, 34.25, 38.5)" gradientUnits="userSpaceOnUse" id="gradient7" spreadMethod="pad" x1="-819.2" x2="819.2">
      <stop offset="0.0" stop-color="#49cda5"/>
      <stop offset="0.23529411764705882" stop-color="#4fcd9f"/>
      <stop offset="0.6196078431372549" stop-color="#a7d94a"/>
    </linearGradient>
    <linearGradient gradientTransform="matrix(0.0273, 0.0, 0.0, 0.033, 39.5, 38.45)" gradientUnits="userSpaceOnUse" id="gradient8" spreadMethod="pad" x1="-819.2" x2="819.2">
      <stop offset="0.0" stop-color="#a8e38e"/>
      <stop offset="0.984313725490196" stop-color="#e1f0b9"/>
      <stop offset="1.0" stop-color="#a7d94a"/>
    </linearGradient>
    <linearGradient gradientTransform="matrix(0.0418, 0.0, 0.0, 0.047, 34.25, 38.5)" gradientUnits="userSpaceOnUse" id="gradient9" spreadMethod="pad" x1="-819.2" x2="819.2">
      <stop offset="0.47843137254901963" stop-color="#4acc9b"/>
      <stop offset="1.0" stop-color="#93d98c"/>
    </linearGradient>
    <linearGradient gradientTransform="matrix(0.0418, 0.0, 0.0, 0.047, 34.25, 38.5)" gradientUnits="userSpaceOnUse" id="gradient10" spreadMethod="pad" x1="-819.2" x2="819.2">
      <stop offset="0.3058823529411765" stop-color="#49cda5"/>
      <stop offset="1.0" stop-color="#a7d94a"/>
    </linearGradient>
    <linearGradient gradientTransform="matrix(0.0418, 0.0, 0.0, 0.047, 34.25, 38.5)" gradientUnits="userSpaceOnUse" id="gradient11" spreadMethod="pad" x1="-819.2" x2="819.2">
      <stop offset="0.0" stop-color="#49cda5"/>
      <stop offset="1.0" stop-color="#a7d94a"/>
    </linearGradient>
    <linearGradient gradientTransform="matrix(0.0418, 0.0, 0.0, 0.047, 34.25, 38.5)" gradientUnits="userSpaceOnUse" id="gradient12" spreadMethod="pad" x1="-819.2" x2="819.2">
      <stop offset="0.14901960784313725" stop-color="#49cda5"/>
      <stop offset="0.6549019607843137" stop-color="#a7d94a"/>
      <stop offset="0.7607843137254902" stop-color="#a7d94a"/>
    </linearGradient>
  </defs>
</svg>
