<?xml version="1.0" encoding="UTF-8" standalone="no"?>
<svg xmlns:xlink="http://www.w3.org/1999/xlink" height="600.0px" width="600.0px" xmlns="http://www.w3.org/2000/svg">
  <g transform="matrix(10.0, 0.0, 0.0, 10.0, 0.0, 0.0)">
    <use height="60.0" transform="matrix(1.0, 0.0, 0.0, 1.0, 0.0, 0.0)" width="60.0" xlink:href="#sprite0"/>
  </g>
  <defs>
    <g id="sprite0" transform="matrix(1.0, 0.0, 0.0, 1.0, 0.0, 0.0)">
      <use height="60.0" transform="matrix(1.0, 0.0, 0.0, 1.0, 0.0, 0.0)" width="60.0" xlink:href="#sprite1"/>
      <use height="50.4" transform="matrix(1.0, 0.0, 0.0, 1.0, 7.2, 4.35)" width="46.2" xlink:href="#shape1"/>
    </g>
    <g id="sprite1" transform="matrix(1.0, 0.0, 0.0, 1.0, 0.0, 0.0)">
      <use height="60.0" transform="matrix(1.0, 0.0, 0.0, 1.0, 0.0, 0.0)" width="60.0" xlink:href="#shape0"/>
    </g>
    <g id="shape0" transform="matrix(1.0, 0.0, 0.0, 1.0, 0.0, 0.0)">
      <path d="M60.0 0.0 L60.0 60.0 0.0 60.0 0.0 0.0 60.0 0.0" fill="#ffba2e" fill-opacity="0.0" fill-rule="evenodd" stroke="none"/>
    </g>
    <g id="shape1" transform="matrix(1.0, 0.0, 0.0, 1.0, -7.2, -4.35)">
      <path d="M43.3 22.55 L41.25 23.15 Q37.85 24.15 34.9 25.8 L37.6 20.65 38.6 17.85 Q39.7 18.9 40.6 20.45 L42.0 21.8 43.3 22.55 M33.25 15.7 L27.3 20.3 Q25.05 20.7 24.8 19.6 27.5 18.25 30.1 15.05 L32.15 15.7 33.25 15.7 M18.5 21.55 Q19.55 24.9 16.15 21.95 L16.65 21.6 Q18.1 20.6 18.45 21.45 L18.45 21.55 18.5 21.55" fill="#cab502" fill-rule="evenodd" stroke="none"/>
      <path d="M38.6 17.85 L37.6 20.65 34.9 25.8 Q37.85 24.15 41.25 23.15 L43.3 22.55 Q45.75 24.15 46.95 26.25 L38.65 32.05 Q37.2 30.15 35.35 28.4 L33.1 26.45 Q32.0 25.6 30.95 24.9 32.3 23.4 30.45 21.6 29.05 21.15 27.2 22.85 L25.6 22.3 23.65 21.85 22.85 21.65 18.6 21.5 18.5 21.35 28.65 14.5 28.85 14.5 Q30.15 14.65 30.1 15.05 27.5 18.25 24.8 19.6 25.05 20.7 27.3 20.3 L33.25 15.7 Q36.45 15.95 38.6 17.85" fill="#805600" fill-rule="evenodd" stroke="none"/>
      <path d="M38.65 32.05 L46.95 26.25 Q48.2 28.3 48.4 30.75 L48.95 32.4 49.4 33.85 Q49.8 33.55 50.75 35.9 51.45 38.15 48.5 42.85 46.8 47.25 46.2 47.75 L39.95 51.85 40.4 51.25 Q44.15 47.4 42.7 40.7 L42.6 40.15 42.55 39.85 41.9 37.9 41.7 37.5 41.0 35.85 41.3 34.85 Q41.55 33.5 40.35 33.35 L39.55 33.35 38.65 32.05" fill="url(#gradient0)" fill-rule="evenodd" stroke="none"/>
      <path d="M18.6 21.5 L22.85 21.65 23.65 21.85 25.6 22.3 27.2 22.85 Q28.65 25.35 30.95 24.9 32.0 25.6 33.1 26.45 L35.35 28.4 Q37.2 30.15 38.65 32.05 L35.2 34.9 Q34.05 32.95 32.25 31.25 28.65 27.85 24.45 27.05 L24.05 27.05 23.5 27.0 18.6 21.5 M39.55 33.35 L40.35 33.35 Q41.55 33.5 41.3 34.85 L41.0 35.85 Q39.15 37.15 38.75 35.45 37.7 34.5 39.55 33.35 M41.95 42.65 Q41.7 42.95 41.25 43.05 L39.35 42.85 Q38.35 42.4 37.75 41.65 L37.3 40.7 Q37.15 40.35 37.3 40.0 37.4 39.15 38.25 38.85 L40.15 39.1 Q41.2 39.5 41.85 40.4 L42.0 40.7 41.95 42.65 M11.0 26.35 Q11.85 26.15 12.7 26.65 13.8 27.05 14.45 27.95 15.1 28.85 14.95 29.7 14.7 30.45 13.85 30.7 L11.95 30.55 Q10.9 30.1 10.25 29.25 L10.05 28.8 11.0 26.35" fill="#bdad36" fill-rule="evenodd" stroke="none"/>
      <path d="M41.7 37.5 L41.9 37.9 41.75 37.9 41.7 37.5 M18.5 21.5 L18.5 21.55 18.45 21.55 18.5 21.5" fill="#dfd596" fill-rule="evenodd" stroke="none"/>
      <path d="M39.55 33.35 Q37.7 34.5 38.75 35.45 39.15 37.15 41.0 35.85 L41.7 37.5 41.75 37.9 42.0 40.7 41.85 40.4 Q41.2 39.5 40.15 39.1 L38.25 38.85 Q37.4 39.15 37.3 40.0 37.15 40.35 37.3 40.7 L37.75 41.65 Q38.35 42.4 39.35 42.85 L41.25 43.05 Q41.7 42.95 41.95 42.65 41.25 47.9 40.15 51.2 L39.95 51.85 Q38.3 53.2 36.15 53.8 35.0 52.85 34.15 52.8 32.9 52.75 32.3 54.25 L29.9 54.05 Q23.25 52.8 17.4 47.2 L15.2 44.9 Q11.3 40.25 10.1 35.05 9.35 31.55 10.05 28.8 L10.25 29.25 Q10.9 30.1 11.95 30.55 L13.85 30.7 Q14.7 30.45 14.95 29.7 15.1 28.85 14.45 27.95 13.8 27.05 12.7 26.65 11.85 26.15 11.0 26.35 L11.05 26.15 11.4 25.7 11.6 25.4 12.4 24.4 Q13.95 22.75 16.15 21.95 19.55 24.9 18.5 21.55 L18.5 21.5 18.6 21.5 23.5 27.0 Q19.4 26.55 17.0 29.05 15.5 30.65 15.2 32.75 14.9 34.3 15.25 36.15 15.65 38.1 16.6 39.8 L16.55 39.9 17.15 42.1 17.8 42.7 19.1 43.95 Q19.75 44.5 20.1 45.45 L20.65 46.45 21.8 47.55 Q22.6 48.0 23.7 48.3 L23.8 48.35 26.6 48.8 26.65 48.8 29.7 48.55 Q33.0 48.65 35.1 46.4 L36.4 44.65 36.5 44.35 Q37.15 42.75 37.0 40.7 L36.85 39.25 36.05 36.6 35.2 34.9 38.65 32.05 39.55 33.35 M28.65 48.45 L26.2 48.0 28.15 48.35 28.65 48.45" fill="#fffa45" fill-rule="evenodd" stroke="none"/>
      <path d="M41.9 37.9 L42.55 39.85 42.6 40.15 42.7 40.7 Q44.15 47.4 40.4 51.25 L40.15 51.2 Q41.25 47.9 41.95 42.65 L42.0 40.7 41.75 37.9 41.9 37.9 M16.6 39.8 L16.95 39.75 17.25 39.8 18.45 40.5 18.9 41.7 18.9 41.8 Q19.1 42.45 19.55 42.8 L20.65 43.6 Q21.85 44.25 23.1 45.25 L25.3 46.95 26.2 48.0 28.65 48.45 29.95 48.5 29.7 48.55 26.65 48.8 26.6 48.8 23.8 48.35 23.7 48.3 Q22.6 48.0 21.8 47.55 L20.65 46.45 20.1 45.45 Q19.75 44.5 19.1 43.95 L17.8 42.7 17.15 42.1 16.55 39.9 16.6 39.8 M28.65 48.45 L29.7 48.55 28.65 48.45" fill="#fefdab" fill-rule="evenodd" stroke="none"/>
      <path d="M28.65 14.5 L18.5 21.35 18.6 21.5 18.5 21.5 18.45 21.55 18.45 21.45 Q18.1 20.6 16.65 21.6 L16.15 21.95 Q13.95 22.75 12.4 24.4 L11.6 25.4 14.3 20.9 Q16.5 17.65 16.85 17.65 L17.9 17.6 20.2 16.8 Q23.8 13.65 25.65 14.0 L28.65 14.5" fill="url(#gradient1)" fill-rule="evenodd" stroke="none"/>
      <path d="M27.2 22.85 Q29.05 21.15 30.45 21.6 32.3 23.4 30.95 24.9 28.65 25.35 27.2 22.85" fill="#948600" fill-rule="evenodd" stroke="none"/>
      <path d="M16.6 39.8 Q15.65 38.1 15.25 36.15 14.9 34.3 15.2 32.75 15.5 30.65 17.0 29.05 19.4 26.55 23.5 27.0 L24.05 27.05 24.45 27.05 24.65 28.45 Q24.95 30.25 25.8 31.9 L25.95 32.05 26.0 32.1 27.55 34.3 18.9 41.7 18.45 40.5 17.25 39.8 16.95 39.75 16.6 39.8" fill="#ffd233" fill-rule="evenodd" stroke="none"/>
      <path d="M18.9 41.7 L27.55 34.3 Q29.95 37.4 33.3 39.2 L35.55 40.25 35.85 40.4 37.0 40.7 Q37.15 42.75 36.5 44.35 L36.4 44.65 35.1 46.4 Q33.0 48.65 29.7 48.55 L29.95 48.5 28.65 48.45 28.15 48.35 26.2 48.0 25.3 46.95 23.1 45.25 Q21.85 44.25 20.65 43.6 L19.55 42.8 Q19.1 42.45 18.9 41.8 L18.9 41.7" fill="#fefd89" fill-rule="evenodd" stroke="none"/>
      <path d="M40.4 51.25 L39.95 51.85 40.15 51.2 40.4 51.25" fill="#f4c300" fill-rule="evenodd" stroke="none"/>
      <path d="M43.3 22.55 L42.0 21.8 40.6 20.45 Q39.7 18.9 38.6 17.85 36.45 15.95 33.25 15.7 M30.1 15.05 Q30.15 14.65 28.85 14.5 L28.65 14.5 M46.95 26.25 Q45.75 24.15 43.3 22.55 M39.95 51.85 L46.2 47.75 Q46.8 47.25 48.5 42.85 51.45 38.15 50.75 35.9 49.8 33.55 49.4 33.85 L48.95 32.4 48.4 30.75 Q48.2 28.3 46.95 26.25 M11.6 25.4 L14.3 20.9 Q16.5 17.65 16.85 17.65 L17.9 17.6 20.2 16.8 Q23.8 13.65 25.65 14.0 L28.65 14.5 M30.1 15.05 L32.15 15.7 33.25 15.7 M11.6 25.4 L11.4 25.7 11.05 26.15 11.0 26.35 M10.05 28.8 Q9.35 31.55 10.1 35.05 11.3 40.25 15.2 44.9 L17.4 47.2 Q23.25 52.8 29.9 54.05 L32.3 54.25 Q32.9 52.75 34.15 52.8 35.0 52.85 36.15 53.8 38.3 53.2 39.95 51.85 M10.05 28.8 L11.0 26.35" fill="none" stroke="#000000" stroke-linecap="round" stroke-linejoin="round" stroke-opacity="0.2" stroke-width="0.05"/>
      <path d="M18.6 21.5 L22.85 21.65 23.65 21.85 25.6 22.3 27.2 22.85 M30.95 24.9 Q32.0 25.6 33.1 26.45 L35.35 28.4 Q37.2 30.15 38.65 32.05 L39.55 33.35 M18.6 21.5 L18.5 21.5" fill="none" stroke="#000000" stroke-linecap="round" stroke-linejoin="round" stroke-opacity="0.15294118" stroke-width="0.05"/>
      <path d="M23.5 27.0 Q19.4 26.55 17.0 29.05 15.5 30.65 15.2 32.75 14.9 34.3 15.25 36.15 15.65 38.1 16.6 39.8 L16.95 39.75 M27.55 34.3 L26.0 32.1 25.95 32.05 25.8 31.9 Q24.95 30.25 24.65 28.45 L24.45 27.05 24.05 27.05 M29.7 48.55 L28.65 48.45 28.15 48.35 26.2 48.0 M24.45 27.05 Q28.65 27.85 32.25 31.25 34.05 32.95 35.2 34.9 L36.05 36.6 36.85 39.25 37.0 40.7 Q37.15 42.75 36.5 44.35 M36.4 44.65 L35.1 46.4 Q33.0 48.65 29.7 48.55 M37.0 40.7 L35.85 40.4 35.55 40.25 33.3 39.2 Q29.95 37.4 27.55 34.3" fill="none" stroke="#000000" stroke-linecap="round" stroke-linejoin="round" stroke-opacity="0.15294118" stroke-width="0.05"/>
      <path d="M36.5 44.35 L36.4 44.65" fill="none" stroke="#000000" stroke-linecap="round" stroke-linejoin="round" stroke-opacity="0.3019608" stroke-width="0.05"/>
      <path d="M48.15 37.0 Q47.8 36.85 47.6 36.3 L47.25 35.2 47.6 34.5 48.15 34.45 48.85 35.2 49.05 36.25 Q49.1 36.85 48.75 37.1 48.5 37.35 48.15 37.0 M44.3 28.4 Q45.1 28.8 45.55 29.85 46.0 30.85 45.9 32.05 45.85 33.1 45.2 33.65 L43.9 33.8 Q43.15 33.4 42.7 32.35 42.25 31.3 42.35 30.15 42.5 29.0 43.0 28.55 43.65 28.0 44.3 28.4 M46.3 44.7 L45.5 44.85 Q45.2 44.55 45.25 43.75 45.2 43.15 45.45 42.5 45.75 41.85 46.2 41.65 L46.9 41.7 47.25 42.55 Q47.3 43.2 46.95 43.85 L46.3 44.7" fill="#a79926" fill-rule="evenodd" stroke="none"/>
      <path d="M42.85 9.1 L43.5 9.7 46.0 12.8 Q46.75 13.3 48.3 14.7 L50.25 15.7 47.3 16.75 46.3 17.25 Q44.25 17.95 42.4 18.9 40.4 19.85 40.65 20.0 38.35 21.1 36.35 22.45 L38.25 18.55 Q38.4 18.7 41.6 13.45 L42.65 9.75 42.85 9.1 M47.85 24.4 L46.95 25.1 46.45 25.45 46.45 25.4 46.9 25.1 47.85 24.4 M29.9 5.8 L33.05 6.55 34.75 6.5 30.65 10.1 30.65 10.05 28.65 11.7 24.45 15.0 Q21.15 15.8 20.7 14.25 L24.1 11.5 Q27.9 8.55 29.9 5.8 M11.45 17.7 Q13.3 22.6 7.95 18.55 L8.75 18.0 Q10.8 16.3 11.4 17.7 L11.45 17.7" fill="#cab502" fill-rule="evenodd" stroke="none"/>
      <path d="M42.85 9.1 L42.65 9.75 41.6 13.45 Q38.4 18.7 38.25 18.55 L35.35 16.65 Q34.25 16.7 32.1 15.7 L32.1 15.6 Q32.4 14.7 32.9 14.1 L33.15 13.85 32.5 13.5 28.85 11.75 30.65 10.1 34.75 6.5 Q39.4 6.5 42.85 9.1 M40.65 20.0 Q40.4 19.85 42.4 18.9 44.25 17.95 46.3 17.25 L47.3 16.75 50.25 15.7 Q51.35 16.25 52.15 16.9 L47.45 20.35 45.8 21.1 Q43.65 21.9 43.25 21.6 L40.65 20.0 M21.3 7.55 L21.5 7.4 24.45 4.85 27.95 5.15 Q29.9 5.2 29.9 5.8 27.9 8.55 24.1 11.5 L22.6 10.85 22.2 10.85 21.5 10.8 Q20.5 10.6 20.4 9.95 L18.1 10.25 21.3 7.55" fill="url(#gradient2)" fill-rule="evenodd" stroke="none"/>
      <path d="M38.25 18.55 L36.35 22.45 Q38.35 21.1 40.65 20.0 L43.25 21.6 Q43.65 21.9 45.8 21.1 L47.45 20.35 46.8 20.85 46.15 21.25 38.35 26.75 Q37.75 26.75 37.2 26.25 L34.55 24.35 33.75 23.55 31.3 22.0 31.65 21.95 30.35 21.5 22.1 18.1 19.15 17.65 18.05 17.4 11.45 17.6 11.45 17.7 11.4 17.7 Q10.8 16.3 8.75 18.0 L7.95 18.55 7.75 18.7 7.7 18.55 7.7 18.5 17.15 10.85 21.3 7.55 18.1 10.25 20.4 9.95 Q20.5 10.6 21.5 10.8 L22.2 10.85 22.6 10.85 24.1 11.5 20.7 14.25 Q21.15 15.8 24.45 15.0 L28.65 11.7 30.65 10.05 30.65 10.1 28.85 11.75 32.5 13.5 32.9 14.1 Q32.4 14.7 32.1 15.6 L32.1 15.7 Q34.25 16.7 35.35 16.65 L38.25 18.55" fill="url(#gradient3)" fill-rule="evenodd" stroke="none"/>
      <path d="M52.15 16.9 L52.3 16.75 49.25 23.25 47.85 24.4 46.9 25.1 46.45 25.4 42.85 28.1 35.9 33.25 38.35 26.75 46.15 21.25 46.8 20.85 47.05 20.7 47.45 20.35 52.15 16.9" fill="#ffd233" fill-rule="evenodd" stroke="none"/>
      <path d="M35.9 33.25 L35.55 33.35 35.15 32.95 32.9 30.8 32.5 30.45 31.65 29.8 30.75 29.15 29.3 28.2 Q26.4 26.5 23.3 25.75 L22.2 25.55 20.85 25.35 20.2 25.4 17.9 25.35 Q16.0 25.4 14.35 26.05 13.3 26.4 12.35 27.05 L7.75 18.7 7.95 18.55 Q13.3 22.6 11.45 17.7 L11.45 17.6 18.05 17.4 19.15 17.65 22.1 18.1 30.35 21.5 31.3 22.0 33.75 23.55 34.55 24.35 37.2 26.25 Q37.75 26.75 38.35 26.75 L35.9 33.25" fill="#fffa45" fill-rule="evenodd" stroke="none"/>
      <path d="M31.65 21.95 L31.3 22.0 30.35 21.5 31.65 21.95" fill="#ebd400" fill-rule="evenodd" stroke="none"/>
      <path d="M50.25 15.7 L48.3 14.7 Q46.75 13.3 46.0 12.8 L43.5 9.7 42.85 9.1 M50.25 15.7 Q51.35 16.25 52.15 16.9 L52.3 16.75 49.25 23.25 47.85 24.4 46.95 25.1 M42.85 28.1 L35.9 33.25 35.55 33.35 M12.35 27.05 L7.75 18.7 7.7 18.55 M7.7 18.5 L17.15 10.85 M21.5 7.4 L24.45 4.85 27.95 5.15 Q29.9 5.2 29.9 5.8 L33.05 6.55 34.75 6.5 Q39.4 6.5 42.85 9.1 M47.45 20.35 L52.15 16.9 M47.05 20.7 L46.8 20.85 46.15 21.25 M47.45 20.35 L46.8 20.85 M46.9 25.1 L47.85 24.4" fill="none" stroke="#000000" stroke-linecap="round" stroke-linejoin="round" stroke-opacity="0.2" stroke-width="0.05"/>
      <path d="M46.95 25.1 L46.45 25.45 M46.45 25.4 L42.85 28.1 M46.45 25.4 L46.9 25.1" fill="none" stroke="#010101" stroke-linecap="round" stroke-linejoin="round" stroke-opacity="0.0" stroke-width="0.05"/>
      <path d="M30.35 21.5 L22.1 18.1 19.15 17.65 18.05 17.4 11.45 17.6 M31.65 21.95 L30.35 21.5 31.3 22.0 33.75 23.55 34.55 24.35 37.2 26.25 Q37.75 26.75 38.35 26.75" fill="none" stroke="#000000" stroke-linecap="round" stroke-linejoin="round" stroke-opacity="0.15294118" stroke-width="0.05"/>
      <path d="M35.55 33.35 L35.15 32.95 32.9 30.8 32.5 30.45 31.65 29.8 M29.3 28.2 Q26.4 26.5 23.3 25.75 L22.2 25.55 M14.35 26.05 Q13.3 26.4 12.35 27.05" fill="none" stroke="#000000" stroke-linecap="round" stroke-linejoin="round" stroke-opacity="0.3019608" stroke-width="0.05"/>
      <path d="M31.65 29.8 L30.75 29.15 29.3 28.2 M22.2 25.55 L20.85 25.35 20.2 25.4 17.9 25.35 Q16.0 25.4 14.35 26.05" fill="none" stroke="#000000" stroke-linecap="round" stroke-linejoin="round" stroke-opacity="0.15294118" stroke-width="0.05"/>
      <path d="M46.15 21.25 L38.35 26.75" fill="none" stroke="#000000" stroke-linecap="round" stroke-linejoin="round" stroke-opacity="0.101960786" stroke-width="0.05"/>
      <path d="M38.25 18.55 Q38.4 18.7 41.6 13.45 L42.65 9.75 42.85 9.1 43.5 9.7 46.0 12.8 Q46.75 13.3 48.3 14.7 L50.25 15.7 47.3 16.75 46.3 17.25 Q44.25 17.95 42.4 18.9 40.4 19.85 40.65 20.0 38.35 21.1 36.35 22.45 L38.25 18.55 M34.75 6.5 L30.65 10.1 29.2 11.35 28.7 11.7 28.65 11.7 24.45 15.0 Q21.15 15.8 20.7 14.25 L24.1 11.5 Q27.9 8.55 29.9 5.8 L33.05 6.55 34.75 6.5" fill="#6b4800" fill-rule="evenodd" stroke="none"/>
      <path d="M42.85 9.1 L42.65 9.75 41.6 13.45 Q38.4 18.7 38.25 18.55 L35.35 16.65 Q34.25 16.7 32.1 15.7 L32.1 15.6 Q32.4 14.7 32.9 14.1 L32.5 13.5 29.2 11.35 30.65 10.1 34.75 6.5 Q39.4 6.5 42.85 9.1 M40.65 20.0 Q40.4 19.85 42.4 18.9 44.25 17.95 46.3 17.25 L47.3 16.75 50.25 15.7 51.65 16.4 44.5 21.55 43.25 21.6 40.65 20.0 M38.75 27.35 L38.35 27.45 38.3 27.45 Q37.5 27.45 36.8 26.8 L34.2 24.95 34.1 24.8 33.25 24.1 Q32.2 23.3 31.3 22.85 L31.15 22.8 Q30.6 22.3 30.2 22.2 L30.1 22.15 Q23.05 19.15 21.95 18.85 L22.0 18.85 19.1 18.35 18.95 18.35 17.9 18.1 11.6 18.3 11.2 18.2 10.8 17.95 10.6 17.75 Q10.05 17.85 9.25 18.55 L8.7 18.7 Q8.4 18.7 8.3 18.5 L8.15 18.35 8.1 18.2 8.05 17.95 Q8.05 17.65 8.35 17.45 9.5 16.4 10.4 16.35 L10.45 16.35 Q11.25 16.25 11.85 16.75 14.6 16.35 18.1 16.7 L18.15 16.7 19.25 16.95 22.3 17.4 22.35 17.45 30.65 20.85 31.95 21.55 32.0 21.6 34.15 22.95 34.2 23.05 35.0 23.75 37.7 25.75 38.25 26.05 38.35 26.05 38.8 26.25 38.95 26.4 39.05 26.75 38.8 27.2 38.75 27.35 M17.15 10.85 L21.5 7.4 24.45 4.85 27.95 5.15 Q29.9 5.2 29.9 5.8 27.9 8.55 24.1 11.5 L22.6 10.85 22.2 10.85 21.5 10.8 Q20.5 10.6 20.4 9.95 19.2 10.05 17.15 10.85" fill="#956500" fill-rule="evenodd" stroke="none"/>
      <path d="M38.25 18.55 L36.35 22.45 Q38.35 21.1 40.65 20.0 L43.25 21.6 44.5 21.55 38.25 26.05 37.7 25.75 35.0 23.75 34.2 23.05 34.15 22.95 32.0 21.6 31.95 21.55 30.65 20.85 22.35 17.45 22.3 17.4 19.25 16.95 18.15 16.7 18.1 16.7 Q14.6 16.35 11.85 16.75 11.25 16.25 10.45 16.35 L17.15 10.85 Q19.2 10.05 20.4 9.95 20.5 10.6 21.5 10.8 L22.2 10.85 22.6 10.85 24.1 11.5 20.7 14.25 Q21.15 15.8 24.45 15.0 L28.65 11.7 28.7 11.7 29.2 11.35 32.5 13.5 32.9 14.1 Q32.4 14.7 32.1 15.6 L32.1 15.7 Q34.25 16.7 35.35 16.65 L38.25 18.55" fill="#805600" fill-rule="evenodd" stroke="none"/>
      <path d="M44.5 21.55 L51.65 16.4 51.7 16.35 52.3 16.25 52.7 16.55 Q52.95 16.7 52.85 17.05 L52.6 17.45 38.75 27.35 38.8 27.2 39.05 26.75 38.95 26.4 38.8 26.25 38.35 26.05 38.25 26.05 44.5 21.55" fill="#5b3e00" fill-rule="evenodd" stroke="none"/>
      <path d="M8.15 18.35 L7.95 18.55 7.75 18.7 7.7 18.55 7.7 18.5 7.8 18.4 8.1 18.2 8.15 18.35" fill="url(#gradient4)" fill-rule="evenodd" stroke="none"/>
      <path d="M50.25 15.7 L48.3 14.7 Q46.75 13.3 46.0 12.8 L43.5 9.7 42.85 9.1 Q39.4 6.5 34.75 6.5 M51.65 16.4 L50.25 15.7 M7.75 18.7 L7.7 18.55 M7.7 18.5 L7.8 18.4 8.1 18.2 M10.45 16.35 L17.15 10.85 M21.5 7.4 L24.45 4.85 27.95 5.15 Q29.9 5.2 29.9 5.8" fill="none" stroke="#000000" stroke-linecap="round" stroke-linejoin="round" stroke-opacity="0.2" stroke-width="0.05"/>
      <path d="M35.45 13.25 L34.55 13.55 33.55 13.25 Q33.2 12.95 33.2 12.55 33.2 12.1 33.55 11.85 33.95 11.55 34.55 11.55 35.1 11.55 35.45 11.85 L35.9 12.55 35.45 13.25" fill="#6b4800" fill-rule="evenodd" stroke="none"/>
      <path d="M34.3 19.95 L33.4 20.25 32.4 19.95 Q32.05 19.65 32.05 19.25 32.05 18.8 32.4 18.55 32.8 18.25 33.4 18.25 33.95 18.25 34.3 18.55 34.75 18.8 34.75 19.25 L34.3 19.95" fill="#6b4800" fill-rule="evenodd" stroke="none"/>
      <path d="M18.1 14.5 L17.3 15.05 16.2 15.0 Q15.85 14.85 15.75 14.4 15.6 14.0 15.85 13.65 16.2 13.2 16.75 13.1 L17.75 13.15 18.35 13.7 Q18.45 14.15 18.1 14.5" fill="#6b4800" fill-rule="evenodd" stroke="none"/>
      <path d="M20.75 23.05 Q19.45 23.8 18.95 22.6 18.25 20.7 19.85 19.7 23.7 21.25 20.75 23.05" fill="#cab502" fill-rule="evenodd" stroke="none"/>
      <path d="M28.7 26.65 Q28.05 27.05 27.4 26.35 25.95 24.5 27.85 23.5 31.6 24.6 28.7 26.65" fill="#cab502" fill-rule="evenodd" stroke="none"/>
      <path d="M46.95 26.25 Q48.2 28.3 48.4 30.75 L48.95 32.4 49.4 33.85 Q49.8 33.55 50.75 35.9 51.45 38.15 48.5 42.85 46.8 47.25 46.2 47.75 L39.95 51.85 Q38.3 53.2 36.15 53.8 35.0 52.85 34.15 52.8 32.9 52.75 32.3 54.25 L29.9 54.05 Q23.25 52.8 17.4 47.2 L15.2 44.9 Q11.3 40.25 10.1 35.05 9.35 31.55 10.05 28.8 L11.0 26.35 11.05 26.15 11.4 25.7 11.55 25.55 7.75 18.7 7.7 18.55 7.7 18.5 7.8 18.4 7.95 18.35 8.1 18.2 8.05 17.95 Q8.05 17.65 8.35 17.45 9.45 16.45 10.35 16.35 L10.4 16.3 24.45 4.85 27.95 5.15 Q29.9 5.2 29.9 5.8 L33.05 6.55 34.75 6.5 Q39.4 6.5 42.85 9.1 L43.5 9.7 46.0 12.8 Q46.75 13.3 48.3 14.7 L50.25 15.7 51.65 16.4 51.7 16.35 52.3 16.25 52.7 16.55 Q52.95 16.7 52.85 17.05 L52.6 17.45 51.65 18.15 49.25 23.25 46.45 25.45 46.95 26.25 M37.0 40.7 L35.85 40.4 35.55 40.25 33.3 39.2 Q29.95 37.4 27.55 34.3 L26.0 32.1 25.95 32.05 25.8 31.9 Q24.95 30.25 24.65 28.45 L24.45 27.05 Q28.65 27.85 32.25 31.25 34.05 32.95 35.2 34.9 L36.05 36.6 36.85 39.25 37.0 40.7" fill="none" stroke="#000000" stroke-linecap="round" stroke-linejoin="round" stroke-opacity="0.29803923" stroke-width="1.0"/>
    </g>
    <linearGradient gradientTransform="matrix(0.0183, 0.0175, 0.0143, -0.0149, 43.75, 32.35)" gradientUnits="userSpaceOnUse" id="gradient0" spreadMethod="pad" x1="-819.2" x2="819.2">
      <stop offset="0.33725490196078434" stop-color="#956500"/>
      <stop offset="0.8" stop-color="#ffd233"/>
    </linearGradient>
    <linearGradient gradientTransform="matrix(0.0186, 0.0178, 0.0143, -0.0149, 36.9, 26.8)" gradientUnits="userSpaceOnUse" id="gradient1" spreadMethod="pad" x1="-819.2" x2="819.2">
      <stop offset="0.0" stop-color="#ffffff"/>
      <stop offset="0.33725490196078434" stop-color="#ffff00"/>
      <stop offset="0.8" stop-color="#ba9501"/>
    </linearGradient>
    <linearGradient gradientTransform="matrix(0.0295, 0.0247, 0.0198, -0.0237, 41.15, 22.65)" gradientUnits="userSpaceOnUse" id="gradient2" spreadMethod="pad" x1="-819.2" x2="819.2">
      <stop offset="0.0" stop-color="#ffffff"/>
      <stop offset="0.33725490196078434" stop-color="#ffff00"/>
      <stop offset="0.8" stop-color="#ba9501"/>
    </linearGradient>
    <linearGradient gradientTransform="matrix(0.0295, 0.0247, 0.0198, -0.0237, 39.4, 23.7)" gradientUnits="userSpaceOnUse" id="gradient3" spreadMethod="pad" x1="-819.2" x2="819.2">
      <stop offset="0.0" stop-color="#ffffff"/>
      <stop offset="0.33725490196078434" stop-color="#ffff00"/>
      <stop offset="0.8" stop-color="#ba9501"/>
    </linearGradient>
    <linearGradient gradientTransform="matrix(0.0295, 0.0247, 0.0198, -0.0237, 39.4, 23.7)" gradientUnits="userSpaceOnUse" id="gradient4" spreadMethod="pad" x1="-819.2" x2="819.2">
      <stop offset="0.0" stop-color="#ffffff"/>
      <stop offset="0.33725490196078434" stop-color="#ffff00"/>
      <stop offset="0.8" stop-color="#ba9501"/>
    </linearGradient>
  </defs>
</svg>
