<?xml version="1.0" encoding="UTF-8" standalone="no"?>
<svg xmlns:xlink="http://www.w3.org/1999/xlink" height="440.0px" width="440.0px" xmlns="http://www.w3.org/2000/svg">
  <g transform="matrix(10.0, 0.0, 0.0, 10.0, 0.0, 0.0)">
    <use height="44.0" transform="matrix(0.9091, 0.0, 0.0, 0.9091, 2.0, 2.0)" width="44.0" xlink:href="#sprite0"/>
  </g>
  <defs>
    <g id="sprite0" transform="matrix(1.0, 0.0, 0.0, 1.0, 0.0, 0.0)">
      <use height="44.0" transform="matrix(1.0, 0.0, 0.0, 1.0, 0.0, 0.0)" width="44.0" xlink:href="#shape0"/>
      <use height="77.45" transform="matrix(0.4881, 0.0, 0.0, 0.4817, 3.0059, 3.3592)" width="77.85" xlink:href="#sprite1"/>
    </g>
    <g id="shape0" transform="matrix(1.0, 0.0, 0.0, 1.0, 0.0, 0.0)">
      <path d="M44.0 44.0 L0.0 44.0 0.0 0.0 44.0 0.0 44.0 44.0" fill="#43adca" fill-opacity="0.0" fill-rule="evenodd" stroke="none"/>
    </g>
    <g id="sprite1" transform="matrix(1.0, 0.0, 0.0, 1.0, 0.5, 0.5)">
      <use height="77.45" transform="matrix(1.0, 0.0, 0.0, 1.0, -0.5, -0.5)" width="77.85" xlink:href="#sprite2"/>
    </g>
    <g id="sprite2" transform="matrix(1.0, 0.0, 0.0, 1.0, 38.9, 38.7)">
      <use height="77.45" transform="matrix(1.0, 0.0, 0.0, 1.0, -38.9, -38.7)" width="77.85" xlink:href="#shape1"/>
      <use height="57.5" transform="matrix(0.4212, 0.0, 0.0, 0.4212, 1.5908, -27.4092)" width="57.5" xlink:href="#sprite3"/>
    </g>
    <g id="shape1" transform="matrix(1.0, 0.0, 0.0, 1.0, 38.9, 38.7)">
      <path d="M8.7 -34.95 L13.1 -36.7 29.2 -29.1 29.2 -26.2 18.25 -17.8 11.1 -17.95 -0.7 -24.3 -0.85 -27.9 8.7 -34.95" fill="url(#gradient0)" fill-rule="evenodd" stroke="none"/>
      <path d="M29.2 -29.1 L33.1 -23.4 30.2 -25.5 17.3 -15.3 16.3 -12.65 11.1 -17.95 18.25 -17.8 29.2 -26.2 29.2 -29.1 M-0.85 -27.9 L-0.7 -24.3 -2.55 -23.9 -4.4 -23.5 -0.85 -27.9" fill="#bcc790" fill-rule="evenodd" stroke="none"/>
      <path d="M-32.5 -16.9 Q-26.5 -27.65 -17.1 -33.5 -4.3 -42.15 8.7 -34.95 L-0.85 -27.9 -4.4 -23.5 -5.45 -24.75 Q-9.3 -27.65 -13.95 -27.9 -16.75 -28.05 -20.75 -26.25 -25.7 -24.2 -30.8 -18.8 L-31.6 -17.9 -32.5 -16.9" fill="#ffffff" fill-rule="evenodd" stroke="none"/>
      <path d="M16.5 26.55 Q-8.55 49.75 -29.25 26.9 -42.85 7.8 -36.25 -8.9 -34.6 -13.2 -32.5 -16.9 L-31.6 -17.9 -30.8 -18.8 Q-25.7 -24.2 -20.75 -26.25 -16.75 -28.05 -13.95 -27.9 -9.3 -27.65 -5.45 -24.75 L-4.4 -23.5 -4.4 -18.95 Q-9.65 -22.55 -13.75 -22.8 L-16.4 -22.65 -17.7 -22.3 -18.55 -22.05 -20.4 -21.4 -22.5 -20.45 Q-25.1 -19.15 -27.15 -17.15 -32.95 -11.55 -34.9 -0.6 -35.15 5.35 -34.1 9.9 -32.5 16.65 -28.65 22.2 -24.1 28.8 -15.5 32.35 -6.65 35.95 1.25 33.2 6.65 31.3 11.6 26.35 L11.9 26.05 12.95 24.95 13.0 24.95 16.5 26.55" fill="#757560" fill-rule="evenodd" stroke="none"/>
      <path d="M33.1 -23.4 L38.45 -8.7 36.65 -4.85 23.75 2.95 22.55 2.95 22.55 7.1 20.2 26.15 17.5 27.0 21.1 7.5 21.1 3.0 14.95 -11.45 10.7 -16.15 -2.55 -23.9 -0.7 -24.3 11.1 -17.95 16.3 -12.65 17.3 -15.3 30.2 -25.5 33.1 -23.4 M22.55 2.95 L16.3 -12.65 22.55 2.95" fill="#636f35" fill-rule="evenodd" stroke="none"/>
      <path d="M17.5 27.0 L16.5 26.55 13.0 24.95 12.95 24.95 10.9 24.0 7.5 22.45 7.25 16.8 Q5.65 -2.4 -5.2 -11.95 L-4.4 -18.95 -4.4 -23.5 -2.55 -23.9 10.7 -16.15 14.95 -11.45 21.1 3.0 21.1 7.5 17.5 27.0" fill="#48502c" fill-rule="evenodd" stroke="none"/>
      <path d="M-18.55 -22.05 Q-21.05 -17.45 -21.8 -10.9 -21.9 -5.6 -21.1 -1.05 -20.15 6.7 -16.3 12.25 -11.75 18.85 -3.15 22.4 3.3 25.0 9.25 24.25 L10.9 24.0 3.55 28.6 1.25 33.2 Q-6.65 35.95 -15.5 32.35 -24.1 28.8 -28.65 22.2 -32.5 16.65 -34.1 9.9 -35.15 5.35 -34.9 -0.6 -32.95 -11.55 -27.15 -17.15 -25.1 -19.15 -22.5 -20.45 L-20.4 -21.4 -18.55 -22.05" fill="url(#gradient1)" fill-rule="evenodd" stroke="none"/>
      <path d="M38.45 -8.7 L38.45 -5.0 24.8 4.05 22.55 7.1 22.55 2.95 23.75 2.95 36.65 -4.85 38.45 -8.7" fill="#9aab5c" fill-rule="evenodd" stroke="none"/>
      <path d="M38.45 -5.0 L32.35 14.55 20.2 26.15 22.55 7.1 24.8 4.05 38.45 -5.0" fill="#313619" fill-rule="evenodd" stroke="none"/>
      <path d="M10.9 24.0 L12.95 24.95 11.9 26.05 11.6 26.35 Q6.65 31.3 1.25 33.2 L3.55 28.6 10.9 24.0" fill="url(#gradient2)" fill-rule="evenodd" stroke="none"/>
      <path d="M8.7 -34.95 L13.1 -36.7 29.2 -29.1 33.1 -23.4 38.45 -8.7 38.45 -5.0 32.35 14.55 20.2 26.15 17.5 27.0 16.5 26.55 Q-8.55 49.75 -29.25 26.9 -42.85 7.8 -36.25 -8.9 -34.6 -13.2 -32.5 -16.9 -26.5 -27.65 -17.1 -33.5 -4.3 -42.15 8.7 -34.95 L-0.85 -27.9 M-5.45 -24.75 L-4.4 -23.5 -0.85 -27.9 M-4.4 -23.5 L-4.4 -18.95 -5.2 -11.95 Q5.65 -2.4 7.25 16.8 L7.5 22.45 10.9 24.0 12.95 24.95 13.0 24.95 16.5 26.55 M-4.4 -18.95 Q-9.65 -22.55 -13.75 -22.8 L-16.4 -22.65 -17.7 -22.3 -18.55 -22.05 -20.4 -21.4 M11.9 26.05 L12.95 24.95 M-32.5 -16.9 L-31.6 -17.9 -30.8 -18.8" fill="none" stroke="#000000" stroke-linecap="round" stroke-linejoin="round" stroke-opacity="0.30980393" stroke-width="1.0"/>
      <path d="M-0.7 -24.3 L11.1 -17.95 16.3 -12.65 17.3 -15.3 30.2 -25.5 M-30.8 -18.8 Q-25.7 -24.2 -20.75 -26.25 -16.75 -28.05 -13.95 -27.9 -9.3 -27.65 -5.45 -24.75 M1.25 33.2 Q6.65 31.3 11.6 26.35 L11.9 26.05 M-20.4 -21.4 L-22.5 -20.45 Q-25.1 -19.15 -27.15 -17.15 -32.95 -11.55 -34.9 -0.6 -35.15 5.35 -34.1 9.9 -32.5 16.65 -28.65 22.2 -24.1 28.8 -15.5 32.35 -6.65 35.95 1.25 33.2 M36.65 -4.85 L23.75 2.95 22.55 2.95 22.55 7.1 20.2 26.15 M16.3 -12.65 L22.55 2.95" fill="none" stroke="#ffffff" stroke-linecap="round" stroke-linejoin="round" stroke-opacity="0.43137255" stroke-width="1.0"/>
      <path d="M-18.55 -22.05 Q-21.05 -17.45 -21.8 -10.9 -21.9 -5.6 -21.1 -1.05 -20.15 6.7 -16.3 12.25 -11.75 18.85 -3.15 22.4 3.3 25.0 9.25 24.25 L10.9 24.0" fill="none" stroke="#000000" stroke-linecap="round" stroke-linejoin="round" stroke-opacity="0.30980393" stroke-width="1.0"/>
    </g>
    <linearGradient gradientTransform="matrix(0.0, 0.0074, -0.0183, 0.0, 14.2, -27.75)" gradientUnits="userSpaceOnUse" id="gradient0" spreadMethod="pad" x1="-819.2" x2="819.2">
      <stop offset="0.0" stop-color="#c6ce9f"/>
      <stop offset="1.0" stop-color="#9aab5c"/>
    </linearGradient>
    <linearGradient gradientTransform="matrix(-0.0076, -0.0223, 0.0228, -0.0078, -14.9, 4.5)" gradientUnits="userSpaceOnUse" id="gradient1" spreadMethod="pad" x1="-819.2" x2="819.2">
      <stop offset="0.0" stop-color="#ffffff"/>
      <stop offset="0.9882352941176471" stop-color="#b3b3a2"/>
    </linearGradient>
    <linearGradient gradientTransform="matrix(0.0025, -0.0014, 0.0011, 0.0019, 5.8, 29.0)" gradientUnits="userSpaceOnUse" id="gradient2" spreadMethod="pad" x1="-819.2" x2="819.2">
      <stop offset="0.0" stop-color="#ffffff"/>
      <stop offset="0.9882352941176471" stop-color="#b3b3a2"/>
    </linearGradient>
    <g id="sprite3" transform="matrix(1.0, 0.0, 0.0, 1.0, 28.75, 28.75)">
      <use height="57.5" transform="matrix(1.0, 0.0, 0.0, 1.0, -28.75, -28.75)" width="57.5" xlink:href="#shape2"/>
    </g>
    <g id="shape2" transform="matrix(1.0, 0.0, 0.0, 1.0, 28.75, 28.75)">
      <path d="M28.75 0.0 Q28.75 11.9 20.3 20.3 11.9 28.75 0.0 28.75 -11.9 28.75 -20.35 20.3 -28.75 11.9 -28.75 0.0 -28.75 -11.9 -20.35 -20.35 -11.9 -28.75 0.0 -28.75 11.9 -28.75 20.3 -20.35 28.75 -11.9 28.75 0.0" fill="#ffffff" fill-opacity="0.0627451" fill-rule="evenodd" stroke="none"/>
      <path d="M22.15 0.0 Q22.15 9.2 15.6 15.65 9.15 22.2 -0.05 22.2 -9.25 22.2 -15.75 15.65 -22.25 9.2 -22.25 0.0 -22.25 -9.2 -15.75 -15.7 -9.25 -22.2 -0.05 -22.2 9.15 -22.2 15.6 -15.7 22.15 -9.2 22.15 0.0" fill="#ffffff" fill-opacity="0.0627451" fill-rule="evenodd" stroke="none"/>
      <path d="M16.0 0.65 Q16.0 7.45 11.2 12.2 6.4 17.0 -0.35 17.0 -7.1 17.0 -11.9 12.2 -16.7 7.45 -16.7 0.65 -16.7 -6.1 -11.9 -10.9 -7.1 -15.7 -0.35 -15.7 6.4 -15.7 11.2 -10.9 16.0 -6.1 16.0 0.65" fill="#ffffff" fill-opacity="0.0627451" fill-rule="evenodd" stroke="none"/>
      <path d="M12.25 0.7 Q12.25 5.95 8.55 9.6 4.85 13.35 -0.35 13.35 -5.6 13.35 -9.3 9.6 -13.0 5.95 -13.0 0.7 -13.0 -4.5 -9.3 -8.2 -5.6 -11.9 -0.35 -11.9 4.85 -11.9 8.55 -8.2 12.25 -4.5 12.25 0.7" fill="#ffffff" fill-opacity="0.0627451" fill-rule="evenodd" stroke="none"/>
      <path d="M8.05 -0.2 Q8.05 3.55 5.4 6.2 2.75 8.85 -1.0 8.85 -4.7 8.85 -7.35 6.2 -10.0 3.55 -10.0 -0.2 -10.0 -3.95 -7.35 -6.6 -4.7 -9.2 -1.0 -9.2 2.75 -9.2 5.4 -6.6 8.05 -3.95 8.05 -0.2" fill="#ffffff" fill-opacity="0.0627451" fill-rule="evenodd" stroke="none"/>
      <path d="M5.9 -0.25 Q5.9 2.65 3.85 4.7 1.85 6.75 -1.05 6.75 -3.95 6.75 -6.0 4.7 -8.0 2.65 -8.0 -0.25 -8.0 -3.1 -6.0 -5.15 -3.95 -7.2 -1.05 -7.2 1.85 -7.2 3.85 -5.15 5.9 -3.1 5.9 -0.25" fill="#ffffff" fill-opacity="0.0627451" fill-rule="evenodd" stroke="none"/>
      <path d="M4.05 -0.05 Q4.05 2.1 2.5 3.6 1.0 5.1 -1.1 5.1 -3.25 5.1 -4.75 3.6 -6.25 2.1 -6.25 -0.05 -6.25 -2.15 -4.75 -3.65 -3.25 -5.15 -1.1 -5.15 1.0 -5.15 2.5 -3.65 4.05 -2.15 4.05 -0.05" fill="#ffffff" fill-opacity="0.0627451" fill-rule="evenodd" stroke="none"/>
      <path d="M2.85 0.0 Q2.85 1.65 1.7 2.8 0.55 4.0 -1.1 4.0 -2.75 4.0 -3.9 2.8 -5.1 1.65 -5.1 0.0 -5.1 -1.6 -3.9 -2.8 -2.75 -3.95 -1.1 -3.95 0.55 -3.95 1.7 -2.8 2.85 -1.6 2.85 0.0" fill="#ffffff" fill-opacity="0.0627451" fill-rule="evenodd" stroke="none"/>
      <path d="M1.4 0.35 Q1.4 1.1 0.8 1.7 0.25 2.2 -0.55 2.25 -1.35 2.2 -1.9 1.7 -2.45 1.1 -2.45 0.35 -2.45 -0.5 -1.9 -1.05 -1.35 -1.65 -0.55 -1.65 0.25 -1.65 0.8 -1.05 1.4 -0.5 1.4 0.35" fill="#ffffff" fill-opacity="0.31764707" fill-rule="evenodd" stroke="none"/>
    </g>
  </defs>
</svg>
