<?xml version="1.0" encoding="UTF-8" standalone="no"?>
<svg xmlns:xlink="http://www.w3.org/1999/xlink" height="440.0px" width="440.0px" xmlns="http://www.w3.org/2000/svg">
  <g transform="matrix(10.0, 0.0, 0.0, 10.0, 0.0, 0.0)">
    <use height="44.0" transform="matrix(0.9091, 0.0, 0.0, 0.9091, 2.0, 2.0)" width="44.0" xlink:href="#sprite0"/>
  </g>
  <defs>
    <g id="sprite0" transform="matrix(1.0, 0.0, 0.0, 1.0, 0.0, 0.0)">
      <use height="44.0" transform="matrix(1.0, 0.0, 0.0, 1.0, 0.0, 0.0)" width="44.0" xlink:href="#shape0"/>
      <use height="93.4" transform="matrix(0.2709, 0.0, 0.0, 0.2696, 3.0365, 9.4056)" width="140.25" xlink:href="#sprite1"/>
    </g>
    <g id="shape0" transform="matrix(1.0, 0.0, 0.0, 1.0, 0.0, 0.0)">
      <path d="M44.0 44.0 L0.0 44.0 0.0 0.0 44.0 0.0 44.0 44.0" fill="#43adca" fill-opacity="0.0" fill-rule="evenodd" stroke="none"/>
    </g>
    <g id="sprite1" transform="matrix(1.0, 0.0, 0.0, 1.0, 0.05, 0.35)">
      <use height="78.2" transform="matrix(1.0, 0.0, 0.0, 1.0, 18.2, -0.1)" width="102.95" xlink:href="#shape1"/>
      <use height="19.0" transform="matrix(-1.1383, 0.5008, 0.8579, 0.9739, 91.528, 44.4525)" width="37.4" xlink:href="#sprite2"/>
      <use height="19.0" transform="matrix(-0.9699, 0.7783, 1.0808, 0.7187, 117.7889, 26.1503)" width="37.4" xlink:href="#sprite2"/>
      <use height="25.3" transform="matrix(0.7091, -0.2804, 0.975, 0.705, -0.0709, 75.228)" width="83.8" xlink:href="#sprite3"/>
      <use height="19.0" transform="matrix(1.0, 0.0, 0.0, 0.992, 14.45, 59.4508)" width="37.4" xlink:href="#sprite2"/>
      <use height="19.0" transform="matrix(-1.1383, 0.5008, 0.8579, 0.9739, 107.478, 29.7025)" width="37.4" xlink:href="#sprite2"/>
      <use height="19.0" transform="matrix(-0.9498, 0.8059, 1.22, 0.764, 117.023, 9.593)" width="37.4" xlink:href="#sprite2"/>
      <use height="88.45" transform="matrix(1.0, 0.0, 0.0, 1.0, 14.2, -0.35)" width="124.45" xlink:href="#shape4"/>
    </g>
    <g id="shape1" transform="matrix(1.0, 0.0, 0.0, 1.0, -18.2, 0.1)">
      <path d="M106.3 4.5 Q107.6 6.1 106.9 8.5 107.6 6.1 106.3 4.5 M61.25 22.35 Q61.75 20.95 60.8 17.5 87.15 4.95 111.8 0.0 L121.05 21.25 120.85 23.05 111.05 4.0 Q111.75 15.0 98.55 26.0 74.35 46.2 42.8 56.0 33.2 58.2 24.55 55.45 L21.3 54.25 26.35 65.85 21.05 59.25 18.3 52.5 Q21.3 48.85 24.55 45.45 37.75 31.55 54.55 21.25 L58.05 22.75 53.45 26.3 34.25 40.9 32.55 42.95 Q27.05 49.7 28.35 53.1 33.2 53.8 41.55 51.25 46.15 49.85 51.75 47.5 63.7 42.45 80.3 33.0 L92.2 24.35 97.9 19.65 Q105.6 12.8 106.9 8.5 103.5 6.4 96.15 7.9 L91.8 9.0 74.6 16.5 61.25 22.35 M25.05 52.0 Q26.4 52.8 28.35 53.1 26.4 52.8 25.05 52.0" fill="#faf5f3" fill-rule="evenodd" stroke="none"/>
      <path d="M26.35 65.85 L21.3 54.25 24.55 55.45 Q33.2 58.2 42.8 56.0 74.35 46.2 98.55 26.0 111.75 15.0 111.05 4.0 L120.85 23.05 Q119.55 30.2 111.8 39.5 L70.8 66.25 Q50.65 76.65 36.05 78.0 L26.35 65.85" fill="#efe4d6" fill-rule="evenodd" stroke="none"/>
      <path d="M61.25 22.35 L74.6 16.5 91.8 9.0 96.15 7.9 97.9 19.65 92.2 24.35 Q86.65 26.25 81.7 28.25 L74.6 16.5 77.95 29.85 Q72.3 32.35 67.6 35.05 L61.25 22.35 M51.75 47.5 Q46.15 49.85 41.55 51.25 L32.55 42.95 34.25 40.9 53.45 26.3 62.05 38.55 Q55.8 42.8 51.75 47.5" fill="#e3d0b9" fill-rule="evenodd" stroke="none"/>
      <path d="M96.15 7.9 Q103.5 6.4 106.9 8.5 105.6 12.8 97.9 19.65 L96.15 7.9 M41.55 51.25 Q33.2 53.8 28.35 53.1 27.05 49.7 32.55 42.95 L41.55 51.25 M58.05 22.75 Q60.65 24.0 61.25 22.35 L67.6 35.05 62.05 38.55 53.45 26.3 58.05 22.75 M81.7 28.25 L77.95 29.85 74.6 16.5 81.7 28.25" fill="#dbc2a4" fill-rule="evenodd" stroke="none"/>
      <path d="M106.9 8.5 Q107.6 6.1 106.3 4.5 M120.85 23.05 L121.05 21.25 111.8 0.0 Q87.15 4.95 60.8 17.5 61.75 20.95 61.25 22.35 M91.8 9.0 L96.15 7.9 Q103.5 6.4 106.9 8.5 105.6 12.8 97.9 19.65 L92.2 24.35 80.3 33.0 Q63.7 42.45 51.75 47.5 46.15 49.85 41.55 51.25 33.2 53.8 28.35 53.1 26.4 52.8 25.05 52.0 M120.85 23.05 Q119.55 30.2 111.8 39.5 L70.8 66.25 Q50.65 76.65 36.05 78.0 L26.35 65.85 21.05 59.25 18.3 52.5 Q21.3 48.85 24.55 45.45 37.75 31.55 54.55 21.25 L58.05 22.75 Q60.65 24.0 61.25 22.35 M81.7 28.25 L77.95 29.85 Q72.3 32.35 67.6 35.05 L62.05 38.55 Q55.8 42.8 51.75 47.5 M81.7 28.25 Q86.65 26.25 92.2 24.35 M34.25 40.9 L32.55 42.95 M28.35 53.1 Q27.05 49.7 32.55 42.95" fill="none" stroke="#000000" stroke-linecap="round" stroke-linejoin="round" stroke-opacity="0.4" stroke-width="0.2"/>
    </g>
    <g id="sprite2" transform="matrix(1.0, 0.0, 0.0, 1.0, 0.1, 0.1)">
      <use height="19.0" transform="matrix(1.0, 0.0, 0.0, 1.0, -0.1, -0.1)" width="37.4" xlink:href="#shape2"/>
    </g>
    <g id="shape2" transform="matrix(1.0, 0.0, 0.0, 1.0, 0.1, 0.1)">
      <path d="M37.2 2.05 L35.8 7.8 35.35 10.45 Q34.15 15.65 31.6 18.4 L24.05 18.4 23.9 9.85 25.15 15.0 30.5 3.4 Q33.95 3.2 37.2 2.05 M21.75 12.3 L21.75 11.9 18.2 18.8 15.0 18.0 17.6 7.3 12.3 12.35 13.25 1.9 16.3 2.25 17.3 5.05 18.25 2.3 19.75 2.25 20.6 2.25 22.55 2.75 22.6 4.7 21.75 12.3" fill="#efe4d6" fill-rule="evenodd" stroke="none"/>
      <path d="M30.5 3.4 L25.15 15.0 23.9 9.85 24.05 18.4 21.4 18.4 21.7 12.55 21.75 12.3 22.6 4.7 22.55 2.75 30.5 3.4 M15.0 18.0 Q10.1 16.95 4.8 17.1 L0.0 17.4 Q3.2 14.6 5.65 11.55 8.15 8.4 9.8 5.0 L4.8 9.35 0.8 11.8 Q5.45 7.05 7.0 0.0 10.15 1.3 13.25 1.9 L12.3 12.35 17.6 7.3 15.0 18.0 M16.3 2.25 L18.25 2.3 17.3 5.05 16.3 2.25" fill="#faf5f3" fill-rule="evenodd" stroke="none"/>
      <path d="M24.05 18.4 L31.6 18.4 Q34.15 15.65 35.35 10.45 L35.8 7.8 37.2 2.05 M24.05 18.4 L21.4 18.4 21.7 12.55 M21.75 12.3 L21.75 11.9 18.2 18.8 15.0 18.0 Q10.1 16.95 4.8 17.1 L0.0 17.4 Q3.2 14.6 5.65 11.55 8.15 8.4 9.8 5.0 L4.8 9.35 0.8 11.8 Q5.45 7.05 7.0 0.0" fill="none" stroke="#000000" stroke-linecap="round" stroke-linejoin="round" stroke-opacity="0.4" stroke-width="0.2"/>
    </g>
    <g id="sprite3" transform="matrix(1.0, 0.0, 0.0, 1.0, 0.1, 0.0)">
      <use height="25.3" transform="matrix(1.0, 0.0, 0.0, 1.0, -0.1, 0.0)" width="83.8" xlink:href="#shape3"/>
    </g>
    <g id="shape3" transform="matrix(1.0, 0.0, 0.0, 1.0, 0.1, 0.0)">
      <path d="M77.15 0.4 L83.6 0.4 Q80.6 6.8 76.7 12.4 72.8 18.0 68.05 22.8 L69.2 14.6 Q64.45 22.25 59.0 25.2 50.55 23.25 38.8 25.2 L46.8 19.6 32.8 24.0 30.55 23.6 Q49.95 15.8 62.85 4.7 L49.7 24.2 Q64.3 17.35 74.35 7.4 L71.2 14.55 71.55 14.45 77.15 0.4 M37.6 15.6 Q29.85 17.9 21.15 18.75 L10.0 19.2 7.1 18.5 Q40.85 11.25 49.05 0.8 L56.4 0.8 51.6 6.4 51.5 6.2 37.8 15.85 37.6 15.6" fill="#efe4d6" fill-rule="evenodd" stroke="none"/>
      <path d="M51.6 6.4 L61.6 0.0 65.6 0.4 77.15 0.4 71.55 14.45 71.2 14.55 74.35 7.4 Q64.3 17.35 49.7 24.2 L62.85 4.7 Q49.95 15.8 30.55 23.6 26.5 23.1 20.65 23.55 L15.6 24.0 19.65 22.45 19.95 22.35 Q28.75 19.0 37.6 15.6 L37.8 15.85 51.5 6.2 51.6 6.4 M7.1 18.5 L0.0 16.8 Q14.7 16.3 28.8 9.6 38.95 5.95 45.2 0.8 L49.05 0.8 Q40.85 11.25 7.1 18.5" fill="#faf5f3" fill-rule="evenodd" stroke="none"/>
      <path d="M83.6 0.4 Q80.6 6.8 76.7 12.4 72.8 18.0 68.05 22.8 L69.2 14.6 Q64.45 22.25 59.0 25.2 50.55 23.25 38.8 25.2 L46.8 19.6 32.8 24.0 30.55 23.6 Q26.5 23.1 20.65 23.55 L15.6 24.0 19.65 22.45 M19.95 22.35 Q28.75 19.0 37.6 15.6 29.85 17.9 21.15 18.75 L10.0 19.2 7.1 18.5 0.0 16.8 Q14.7 16.3 28.8 9.6 38.95 5.95 45.2 0.8" fill="none" stroke="#000000" stroke-linecap="round" stroke-linejoin="round" stroke-opacity="0.4" stroke-width="0.2"/>
    </g>
    <g id="shape4" transform="matrix(1.0, 0.0, 0.0, 1.0, -14.2, 0.35)">
      <path d="M125.8 23.1 Q131.8 23.5 138.3 23.05 135.6 24.8 133.35 26.65 128.35 30.7 125.0 35.25 L129.75 35.4 124.1 36.6 122.7 38.75 116.3 37.5 113.7 37.55 Q119.0 38.7 124.8 39.0 130.5 39.3 136.6 38.8 L131.65 42.35 Q126.3 46.35 122.7 50.9 L120.45 53.95 110.35 51.95 110.05 52.15 110.3 52.2 116.95 56.15 107.05 64.1 101.25 63.45 100.7 63.65 Q94.55 66.15 89.9 69.65 L86.95 72.0 76.95 67.1 77.3 67.5 77.55 67.65 82.95 73.2 71.35 78.3 Q68.95 77.7 66.4 76.4 58.5 77.45 52.05 82.05 L52.3 75.9 46.65 82.9 44.65 83.3 Q41.3 84.05 37.6 86.0 36.05 86.8 34.45 87.75 L35.85 85.55 35.95 85.35 40.55 77.8 39.8 77.8 Q37.05 80.3 33.3 82.45 29.9 84.35 25.8 85.95 L16.4 87.05 Q24.35 83.5 28.15 77.15 L19.35 76.5 14.55 76.8 Q17.75 74.05 20.2 71.0 22.7 67.9 24.35 64.5 22.1 66.9 19.35 68.85 L15.35 71.25 Q19.9 66.65 21.5 59.8 L21.05 59.25 18.3 52.5 Q21.3 48.85 24.55 45.45 37.75 31.55 54.55 21.25 L58.05 22.75 Q60.65 24.0 61.25 22.35 61.75 20.95 60.8 17.5 87.15 4.95 111.8 0.0 L119.8 18.35 Q125.2 19.5 130.7 19.4 L123.9 20.75 121.0 21.15 121.05 21.25 120.9 22.65 125.8 23.1 M77.95 29.85 L81.7 28.25 Q86.65 26.25 92.2 24.35 L80.3 33.0 Q63.7 42.45 51.75 47.5 55.8 42.8 62.05 38.55 L67.6 35.05 Q72.3 32.35 77.95 29.85" fill="none" stroke="#000000" stroke-linecap="round" stroke-linejoin="round" stroke-opacity="0.4" stroke-width="0.7000000000000001"/>
    </g>
  </defs>
</svg>
