<?xml version="1.0" encoding="UTF-8" standalone="no"?>
<svg xmlns:xlink="http://www.w3.org/1999/xlink" height="440.0px" width="440.0px" xmlns="http://www.w3.org/2000/svg">
  <g transform="matrix(10.0, 0.0, 0.0, 10.0, 0.0, 0.0)">
    <use height="44.0" transform="matrix(1.0, 0.0, 0.0, 1.0, 0.0, 0.0)" width="44.0" xlink:href="#shape0"/>
    <use height="125.0" transform="matrix(0.3035, 0.0, 0.0, 0.304, 6.7697, 3.0196)" width="100.3" xlink:href="#sprite0"/>
  </g>
  <defs>
    <g id="shape0" transform="matrix(1.0, 0.0, 0.0, 1.0, 0.0, 0.0)">
      <path d="M44.0 44.0 L0.0 44.0 0.0 0.0 44.0 0.0 44.0 44.0" fill="#43adca" fill-opacity="0.0" fill-rule="evenodd" stroke="none"/>
    </g>
    <g id="sprite0" transform="matrix(1.0, 0.0, 0.0, 1.0, 0.1, 0.1)">
      <use height="39.0" transform="matrix(-0.1294, 0.0684, 0.1093, 0.1733, 63.0, 101.7)" width="43.5" xlink:href="#sprite1"/>
      <use height="52.45" transform="matrix(1.0, 0.0, 0.0, 1.0, 15.65, 72.45)" width="47.35" xlink:href="#shape2"/>
      <use height="39.0" transform="matrix(-0.1294, 0.0684, 0.1093, 0.1733, 14.0, 97.65)" width="43.5" xlink:href="#sprite1"/>
      <use height="39.0" transform="matrix(-0.1294, 0.0684, 0.1093, 0.1733, 63.0, 85.15)" width="43.5" xlink:href="#sprite1"/>
      <use height="39.0" transform="matrix(-0.3116, 0.0, 0.0, 0.2852, 29.55, 79.85)" width="43.5" xlink:href="#sprite1"/>
      <use height="118.85" transform="matrix(1.0, 0.0, 0.0, 1.0, -0.1, -0.1)" width="100.3" xlink:href="#shape3"/>
      <use height="39.0" transform="matrix(-0.405, 0.0, 0.0, 0.3708, 61.45, 69.8)" width="43.5" xlink:href="#sprite1"/>
      <use height="42.6" transform="matrix(1.0, 0.0, 0.0, 1.0, 6.85, 47.8)" width="7.3" xlink:href="#shape4"/>
      <use height="39.0" transform="matrix(-0.5918, -0.1452, -0.1433, 0.4896, 45.5, 51.75)" width="43.5" xlink:href="#sprite1"/>
      <use height="81.9" transform="matrix(1.0, 0.0, 0.0, 1.0, 1.6, 35.5)" width="75.8" xlink:href="#shape5"/>
    </g>
    <g id="sprite1" transform="matrix(1.0, 0.0, 0.0, 1.0, 0.0, 0.0)">
      <use height="39.0" transform="matrix(1.0, 0.0, 0.0, 1.0, 0.0, 0.0)" width="43.5" xlink:href="#shape1"/>
    </g>
    <g id="shape1" transform="matrix(1.0, 0.0, 0.0, 1.0, 0.0, 0.0)">
      <path d="M36.65 22.65 Q37.2 24.65 39.25 24.65 42.05 24.65 42.05 19.95 42.05 15.4 39.3 15.9 36.5 16.4 36.5 20.65 L36.65 22.65 M37.7 10.5 Q37.7 6.9 32.15 4.25 26.6 1.55 26.6 5.95 26.6 6.3 30.55 9.8 34.45 13.3 34.9 13.3 36.35 13.3 37.1 12.35 37.7 11.55 37.7 10.5 M37.1 5.7 Q43.5 11.4 43.5 19.5 43.5 27.6 37.1 33.3 30.75 39.0 21.75 39.0 12.75 39.0 6.35 33.3 0.0 27.6 0.0 19.5 0.0 11.4 6.35 5.7 12.75 0.0 21.75 0.0 30.75 0.0 37.1 5.7" fill="#d06a6a" fill-opacity="0.48235294" fill-rule="evenodd" stroke="none"/>
      <path d="M37.7 10.5 Q37.7 11.55 37.1 12.35 36.35 13.3 34.9 13.3 34.45 13.3 30.55 9.8 26.6 6.3 26.6 5.95 26.6 1.55 32.15 4.25 37.7 6.9 37.7 10.5 M36.65 22.65 L36.5 20.65 Q36.5 16.4 39.3 15.9 42.05 15.4 42.05 19.95 42.05 24.65 39.25 24.65 37.2 24.65 36.65 22.65" fill="#e6bbbb" fill-opacity="0.48235294" fill-rule="evenodd" stroke="none"/>
    </g>
    <g id="shape2" transform="matrix(1.0, 0.0, 0.0, 1.0, -15.65, -72.45)">
      <path d="M18.85 85.1 Q22.2 78.6 28.75 75.2 L29.7 74.75 Q32.75 77.05 32.05 80.3 L31.7 80.5 Q24.85 84.05 21.45 90.95 L21.2 91.5 Q19.5 90.3 18.85 85.1 M35.0 72.95 L35.1 72.95 35.05 72.95 35.0 72.95 M26.7 110.5 Q28.85 112.25 31.7 113.3 L35.8 114.2 Q39.05 116.85 38.95 119.45 L38.7 119.45 Q36.65 119.3 34.65 118.55 31.6 117.5 29.25 115.45 L26.7 110.5 M41.0 113.75 Q42.95 113.25 44.9 112.25 47.6 110.75 49.6 108.65 L52.6 113.85 Q50.6 116.0 47.8 117.45 L45.35 118.55 45.2 118.6 Q41.25 116.75 41.0 113.75" fill="#ffcc00" fill-rule="evenodd" stroke="none"/>
      <path d="M29.7 74.75 Q32.35 73.45 35.0 72.95 L35.05 72.95 Q33.7 76.15 38.5 78.1 L37.55 78.3 Q34.85 78.9 32.05 80.3 32.75 77.05 29.7 74.75 M35.8 114.2 L41.0 113.75 Q41.25 116.75 45.2 118.6 42.1 119.7 38.95 119.45 39.05 116.85 35.8 114.2" fill="#fee892" fill-rule="evenodd" stroke="none"/>
      <path d="M62.6 103.75 Q62.25 106.1 61.4 108.5 59.6 113.6 56.3 117.25 L52.6 113.85 Q55.25 111.2 56.6 107.35 L56.8 106.8 57.55 104.4 62.6 103.75 M21.2 91.5 L21.45 90.95 Q24.85 84.05 31.7 80.5 L32.05 80.3 Q34.85 78.9 37.55 78.3 L38.5 78.1 41.35 77.8 Q44.95 77.8 48.6 79.05 51.3 80.0 53.5 81.5 L50.25 85.4 Q48.65 84.4 46.8 83.75 40.1 81.4 33.65 84.85 28.25 87.7 25.6 93.05 L21.2 91.5" fill="#8f7301" fill-rule="evenodd" stroke="none"/>
      <path d="M35.1 72.95 Q40.3 71.9 45.65 73.75 46.85 74.15 47.9 74.7 52.95 78.9 53.5 81.5 51.3 80.0 48.6 79.05 44.95 77.8 41.35 77.8 L38.5 78.1 Q33.7 76.15 35.05 72.95 L35.1 72.95" fill="#fedc56" fill-rule="evenodd" stroke="none"/>
      <path d="M47.9 74.7 Q53.55 77.4 56.75 83.0 L57.15 83.8 58.9 87.1 58.15 86.0 Q56.15 83.35 53.5 81.5 52.95 78.9 47.9 74.7 M21.45 113.55 L19.1 109.4 18.55 108.4 17.75 106.65 Q15.3 101.1 15.85 95.3 L18.65 103.7 Q18.75 105.7 19.25 107.65 19.7 109.5 20.4 111.35 L20.65 111.95 21.45 113.55 M24.55 108.35 L26.7 110.5 29.25 115.45 Q26.6 113.1 25.0 109.45 L24.55 108.35 M49.6 108.65 Q52.45 105.75 53.95 101.6 L54.85 98.0 Q56.4 100.45 57.55 104.4 L56.8 106.8 56.6 107.35 Q55.25 111.2 52.6 113.85 L49.6 108.65" fill="#dbaf02" fill-rule="evenodd" stroke="none"/>
      <path d="M58.9 87.1 L59.0 87.25 60.7 90.3 60.85 90.7 Q63.65 97.05 62.6 103.75 L57.55 104.4 57.9 101.9 Q58.35 97.3 56.45 92.85 55.4 90.55 53.95 88.75 55.4 90.55 56.45 92.85 58.35 97.3 57.9 101.9 55.6 99.65 55.05 95.8 55.25 92.2 53.95 88.75 52.4 86.8 50.25 85.4 L53.5 81.5 Q56.15 83.35 58.15 86.0 L58.9 87.1 M26.05 119.6 Q23.75 117.55 22.1 114.75 L21.45 113.55 20.65 111.95 20.4 111.35 Q19.7 109.5 19.25 107.65 18.75 105.7 18.65 103.7 L18.65 101.15 Q15.75 94.8 16.65 90.7 L17.2 88.8 18.85 85.1 Q19.5 90.3 21.2 91.5 20.6 92.7 20.15 94.05 18.9 97.65 18.65 101.15 18.9 97.65 20.15 94.05 20.6 92.7 21.2 91.5 L25.6 93.05 24.6 95.5 Q22.85 100.5 23.7 105.3 L24.55 108.35 25.0 109.45 Q26.6 113.1 29.25 115.45 L26.05 119.6" fill="#b18e01" fill-rule="evenodd" stroke="none"/>
      <path d="M15.85 95.3 Q16.0 93.0 16.65 90.7 15.75 94.8 18.65 101.15 L18.65 103.7 15.85 95.3 M55.05 95.8 Q55.6 99.65 57.9 101.9 L57.55 104.4 Q56.4 100.45 54.85 98.0 L55.05 95.8" fill="#4b3d01" fill-rule="evenodd" stroke="none"/>
      <path d="M56.3 117.25 Q53.6 120.15 49.8 122.15 41.45 126.6 32.95 123.6 29.0 122.2 26.1 119.6 L26.05 119.6 29.25 115.45 Q31.6 117.5 34.65 118.55 36.65 119.3 38.7 119.45 L38.95 119.45 Q42.1 119.7 45.2 118.6 L45.35 118.55 47.8 117.45 Q50.6 116.0 52.6 113.85 L56.3 117.25" fill="#c19a02" fill-rule="evenodd" stroke="none"/>
      <path d="M18.85 85.1 Q22.2 78.6 28.75 75.2 L29.7 74.75 Q32.35 73.45 35.0 72.95 M35.1 72.95 Q40.3 71.9 45.65 73.75 46.85 74.15 47.9 74.7 53.55 77.4 56.75 83.0 L57.15 83.8 58.9 87.1 59.0 87.25 60.7 90.3 60.85 90.7 Q63.65 97.05 62.6 103.75 62.25 106.1 61.4 108.5 59.6 113.6 56.3 117.25 53.6 120.15 49.8 122.15 41.45 126.6 32.95 123.6 29.0 122.2 26.1 119.6 M26.05 119.6 Q23.75 117.55 22.1 114.75 L21.45 113.55 19.1 109.4 18.55 108.4 17.75 106.65 Q15.3 101.1 15.85 95.3 16.0 93.0 16.65 90.7 L17.2 88.8 18.85 85.1 M53.95 88.75 Q55.25 92.2 55.05 95.8 M50.25 85.4 Q48.65 84.4 46.8 83.75 40.1 81.4 33.65 84.85 28.25 87.7 25.6 93.05 L24.6 95.5 Q22.85 100.5 23.7 105.3 L24.55 108.35 26.7 110.5 Q28.85 112.25 31.7 113.3 L35.8 114.2 41.0 113.75 Q42.95 113.25 44.9 112.25 47.6 110.75 49.6 108.65 52.45 105.75 53.95 101.6 L54.85 98.0 55.05 95.8 M50.25 85.4 Q52.4 86.8 53.95 88.75" fill="none" stroke="#000000" stroke-linecap="round" stroke-linejoin="round" stroke-opacity="0.4" stroke-width="0.2"/>
      <path d="M21.2 91.5 L21.45 90.95 Q24.85 84.05 31.7 80.5 L32.05 80.3 M38.5 78.1 L41.35 77.8 Q44.95 77.8 48.6 79.05 51.3 80.0 53.5 81.5 56.15 83.35 58.15 86.0 L58.9 87.1 M38.5 78.1 L37.55 78.3 Q34.85 78.9 32.05 80.3 M35.05 72.95 L35.0 72.95 M57.9 101.9 Q58.35 97.3 56.45 92.85 55.4 90.55 53.95 88.75 M57.9 101.9 L57.55 104.4 M52.6 113.85 Q55.25 111.2 56.6 107.35 L56.8 106.8 57.55 104.4 M38.95 119.45 L38.7 119.45 Q36.65 119.3 34.65 118.55 31.6 117.5 29.25 115.45 M38.95 119.45 Q42.1 119.7 45.2 118.6 M24.55 108.35 L25.0 109.45 Q26.6 113.1 29.25 115.45 M52.6 113.85 Q50.6 116.0 47.8 117.45 L45.35 118.55 45.2 118.6 M21.2 91.5 Q20.6 92.7 20.15 94.05 18.9 97.65 18.65 101.15 L18.65 103.7 Q18.75 105.7 19.25 107.65 19.7 109.5 20.4 111.35 L20.65 111.95 21.45 113.55" fill="none" stroke="#ffff99" stroke-linecap="round" stroke-linejoin="round" stroke-opacity="0.5803922" stroke-width="0.2"/>
    </g>
    <g id="shape3" transform="matrix(1.0, 0.0, 0.0, 1.0, 0.1, 0.1)">
      <path d="M16.85 39.15 L17.75 38.35 Q18.45 27.1 16.1 14.65 12.7 0.3 14.7 0.05 16.75 -0.6 18.45 12.3 20.15 25.2 24.4 33.15 L25.55 35.15 25.6 35.15 Q29.25 40.7 34.8 43.45 29.25 40.7 25.6 35.15 28.55 34.05 31.9 33.85 L35.15 33.85 Q34.6 25.9 29.6 15.65 28.05 12.9 27.3 9.45 28.2 7.7 32.1 15.25 40.0 30.15 49.4 37.65 53.9 39.75 57.8 42.65 L60.65 44.95 61.85 46.05 Q64.4 52.85 58.35 59.65 L62.4 57.4 Q59.15 64.2 59.9 70.35 58.1 83.0 48.0 86.7 L46.15 85.7 46.1 85.7 Q41.6 83.75 36.1 85.85 32.7 86.75 29.3 86.55 16.6 86.25 5.1 54.45 5.75 42.05 3.1 26.55 1.75 21.35 3.1 20.45 4.25 19.7 5.4 25.55 6.8 33.35 9.65 38.35 L11.15 40.6 13.45 43.1 Q15.05 40.9 16.85 39.15 M74.5 60.9 Q78.7 62.3 91.25 50.2 87.9 60.2 78.9 65.45 73.95 66.45 74.5 60.9 M43.0 35.85 Q38.7 34.3 35.15 33.85 38.7 34.3 43.0 35.85 M15.3 53.05 Q17.2 45.95 17.75 38.35 17.2 45.95 15.3 53.05 M10.4 48.15 Q11.8 45.4 13.45 43.1 11.8 45.4 10.4 48.15 M54.3 61.25 L58.35 59.65 54.3 61.25" fill="url(#gradient0)" fill-rule="evenodd" stroke="none"/>
      <path d="M24.4 33.15 Q24.85 26.8 22.4 19.55 20.85 15.8 21.7 14.45 22.85 13.4 24.3 19.05 26.45 28.65 31.9 33.85 28.55 34.05 25.6 35.15 L25.5 35.0 25.55 35.15 24.4 33.15" fill="url(#gradient1)" fill-rule="evenodd" stroke="none"/>
      <path d="M9.65 38.35 Q9.85 29.85 8.3 17.95 7.75 13.45 8.3 12.75 9.35 11.8 10.0 17.35 11.55 27.05 14.35 33.9 8.95 29.0 11.15 40.6 L9.65 38.35" fill="url(#gradient2)" fill-rule="evenodd" stroke="none"/>
      <path d="M36.1 85.85 Q29.45 89.8 25.9 97.05 L25.35 97.7 25.3 97.8 Q24.65 98.4 23.9 98.8 19.5 100.95 11.15 93.4 6.15 88.85 4.55 80.2 2.75 70.55 5.0 55.75 L5.1 54.45 Q16.6 86.25 29.3 86.55 32.7 86.75 36.1 85.85" fill="url(#gradient3)" fill-rule="evenodd" stroke="none"/>
      <path d="M14.35 33.9 L16.85 39.15 Q15.05 40.9 13.45 43.1 L11.15 40.6 Q8.95 29.0 14.35 33.9" fill="url(#gradient4)" fill-rule="evenodd" stroke="none"/>
      <path d="M67.95 53.05 Q75.8 45.9 81.8 33.55 85.65 26.0 86.3 26.75 87.85 27.6 84.2 34.75 77.85 47.45 73.35 60.05 73.8 60.65 74.5 60.9 73.95 66.45 78.9 65.45 87.9 60.2 91.25 50.2 L93.6 47.85 Q99.1 42.1 99.8 42.85 101.3 43.35 95.7 49.15 82.9 64.2 78.65 74.05 79.3 79.5 77.0 87.25 L75.8 89.95 Q71.1 98.95 61.3 102.15 54.75 104.0 53.3 100.45 52.95 99.6 52.9 98.45 53.85 92.6 50.9 89.25 49.5 87.7 48.0 86.7 58.1 83.0 59.9 70.35 59.15 64.2 62.4 57.4 L64.2 56.15 67.95 53.05 M70.1 69.75 Q71.55 64.9 73.35 60.05 71.55 64.9 70.1 69.75 M77.8 70.45 Q78.4 72.1 78.65 74.05 78.4 72.1 77.8 70.45" fill="url(#gradient5)" fill-rule="evenodd" stroke="none"/>
      <path d="M62.4 36.6 L65.8 30.45 Q68.35 23.6 69.7 23.45 71.1 23.9 68.7 29.85 63.65 41.4 65.2 49.55 L61.85 46.05 60.65 44.95 Q66.55 36.8 62.4 36.6" fill="url(#gradient6)" fill-rule="evenodd" stroke="none"/>
      <path d="M57.8 42.65 Q60.3 39.8 62.4 36.6 66.55 36.8 60.65 44.95 L57.8 42.65" fill="url(#gradient7)" fill-rule="evenodd" stroke="none"/>
      <path d="M65.2 49.55 L67.95 53.05 64.2 56.15 62.4 57.4 58.35 59.65 Q64.4 52.85 61.85 46.05 L65.2 49.55" fill="url(#gradient8)" fill-rule="evenodd" stroke="none"/>
      <path d="M75.8 89.95 Q81.1 92.75 77.9 104.65 72.9 118.75 60.3 118.65 50.65 117.65 49.6 108.65 49.65 104.85 53.3 100.45 54.75 104.0 61.3 102.15 71.1 98.95 75.8 89.95" fill="url(#gradient9)" fill-rule="evenodd" stroke="none"/>
      <path d="M25.3 97.8 Q30.3 102.7 29.1 108.65 25.65 118.5 16.6 117.15 2.5 111.6 0.5 99.1 -1.5 86.65 4.55 80.2 6.15 88.85 11.15 93.4 19.5 100.95 23.9 98.8 24.65 98.4 25.3 97.8" fill="url(#gradient10)" fill-rule="evenodd" stroke="none"/>
      <path d="M9.65 38.35 Q9.85 29.85 8.3 17.95 7.75 13.45 8.3 12.75 9.35 11.8 10.0 17.35 11.55 27.05 14.35 33.9 L16.85 39.15 17.75 38.35 Q18.45 27.1 16.1 14.65 12.7 0.3 14.7 0.05 16.75 -0.6 18.45 12.3 20.15 25.2 24.4 33.15 24.85 26.8 22.4 19.55 20.85 15.8 21.7 14.45 22.85 13.4 24.3 19.05 26.45 28.65 31.9 33.85 L35.15 33.85 Q34.6 25.9 29.6 15.65 28.05 12.9 27.3 9.45 28.2 7.7 32.1 15.25 40.0 30.15 49.4 37.65 53.9 39.75 57.8 42.65 60.3 39.8 62.4 36.6 L65.8 30.45 Q68.35 23.6 69.7 23.45 71.1 23.9 68.7 29.85 63.65 41.4 65.2 49.55 L67.95 53.05 Q75.8 45.9 81.8 33.55 85.65 26.0 86.3 26.75 87.85 27.6 84.2 34.75 77.85 47.45 73.35 60.05 73.8 60.65 74.5 60.9 78.7 62.3 91.25 50.2 L93.6 47.85 Q99.1 42.1 99.8 42.85 101.3 43.35 95.7 49.15 82.9 64.2 78.65 74.05 79.3 79.5 77.0 87.25 L75.8 89.95 Q81.1 92.75 77.9 104.65 72.9 118.75 60.3 118.65 50.65 117.65 49.6 108.65 49.65 104.85 53.3 100.45 52.95 99.6 52.9 98.45 53.85 92.6 50.9 89.25 49.5 87.7 48.0 86.7 L46.15 85.7 M46.1 85.7 Q41.6 83.75 36.1 85.85 29.45 89.8 25.9 97.05 L25.35 97.7 25.3 97.8 Q30.3 102.7 29.1 108.65 25.65 118.5 16.6 117.15 2.5 111.6 0.5 99.1 -1.5 86.65 4.55 80.2 2.75 70.55 5.0 55.75 L5.1 54.45 Q5.75 42.05 3.1 26.55 1.75 21.35 3.1 20.45 4.25 19.7 5.4 25.55 6.8 33.35 9.65 38.35 L11.15 40.6 13.45 43.1 Q15.05 40.9 16.85 39.15 M35.15 33.85 Q38.7 34.3 43.0 35.85 M25.55 35.15 L25.6 35.15 25.5 35.0 25.55 35.15 24.4 33.15 M13.45 43.1 Q11.8 45.4 10.4 48.15 M25.6 35.15 Q29.25 40.7 34.8 43.45 M17.75 38.35 Q17.2 45.95 15.3 53.05 M25.6 35.15 Q28.55 34.05 31.9 33.85 M57.8 42.65 L60.65 44.95 61.85 46.05 65.2 49.55 M62.4 57.4 L64.2 56.15 67.95 53.05 M62.4 57.4 L58.35 59.65 54.3 61.25 M73.35 60.05 Q71.55 64.9 70.1 69.75 M75.8 89.95 Q71.1 98.95 61.3 102.15 54.75 104.0 53.3 100.45 M25.3 97.8 Q24.65 98.4 23.9 98.8 19.5 100.95 11.15 93.4 6.15 88.85 4.55 80.2 M78.65 74.05 Q78.4 72.1 77.8 70.45" fill="none" stroke="#333333" stroke-linecap="round" stroke-linejoin="round" stroke-opacity="0.4" stroke-width="0.2"/>
      <path d="M46.15 85.7 L46.1 85.7" fill="none" stroke="#ff3399" stroke-linecap="round" stroke-linejoin="round" stroke-width="0.2"/>
    </g>
    <linearGradient gradientTransform="matrix(-0.0324, -0.0118, 0.0191, -0.0524, 32.0, 54.85)" gradientUnits="userSpaceOnUse" id="gradient0" spreadMethod="pad" x1="-819.2" x2="819.2">
      <stop offset="0.06666666666666667" stop-color="#ff0b0b" stop-opacity="0.7019608"/>
      <stop offset="0.5137254901960784" stop-color="#f56b58" stop-opacity="0.7019608"/>
      <stop offset="1.0" stop-color="#fbe7d9" stop-opacity="0.6509804"/>
    </linearGradient>
    <linearGradient gradientTransform="matrix(-0.0059, -0.0134, 0.0037, -0.0016, 29.0, 33.3)" gradientUnits="userSpaceOnUse" id="gradient1" spreadMethod="pad" x1="-819.2" x2="819.2">
      <stop offset="0.06666666666666667" stop-color="#ff0b0b" stop-opacity="0.7019608"/>
      <stop offset="0.5137254901960784" stop-color="#f56b58" stop-opacity="0.7019608"/>
      <stop offset="1.0" stop-color="#fbe7d9" stop-opacity="0.6509804"/>
    </linearGradient>
    <linearGradient gradientTransform="matrix(-0.0035, -0.0158, 0.0041, -9.0E-4, 13.3, 40.75)" gradientUnits="userSpaceOnUse" id="gradient2" spreadMethod="pad" x1="-819.2" x2="819.2">
      <stop offset="0.06666666666666667" stop-color="#ff0b0b" stop-opacity="0.7019608"/>
      <stop offset="0.5137254901960784" stop-color="#f56b58" stop-opacity="0.7019608"/>
      <stop offset="1.0" stop-color="#fbe7d9" stop-opacity="0.6509804"/>
    </linearGradient>
    <linearGradient gradientTransform="matrix(-0.0134, -0.0092, 0.0101, -0.0146, 18.55, 81.4)" gradientUnits="userSpaceOnUse" id="gradient3" spreadMethod="pad" x1="-819.2" x2="819.2">
      <stop offset="0.06666666666666667" stop-color="#65d8f3" stop-opacity="0.7019608"/>
      <stop offset="0.5137254901960784" stop-color="#87d6f2" stop-opacity="0.7019608"/>
      <stop offset="1.0" stop-color="#d5ebf5" stop-opacity="0.6509804"/>
    </linearGradient>
    <linearGradient gradientTransform="matrix(-0.0015, -0.0055, 0.0034, -9.0E-4, 12.9, 35.75)" gradientUnits="userSpaceOnUse" id="gradient4" spreadMethod="pad" x1="-819.2" x2="819.2">
      <stop offset="0.06666666666666667" stop-color="#65d8f3" stop-opacity="0.7019608"/>
      <stop offset="0.5137254901960784" stop-color="#87d6f2" stop-opacity="0.7019608"/>
      <stop offset="1.0" stop-color="#d5ebf5" stop-opacity="0.6509804"/>
    </linearGradient>
    <linearGradient gradientTransform="matrix(0.0048, -0.0258, 0.026, 0.0048, 71.95, 76.6)" gradientUnits="userSpaceOnUse" id="gradient5" spreadMethod="pad" x1="-819.2" x2="819.2">
      <stop offset="0.06666666666666667" stop-color="#65d8f3" stop-opacity="0.7019608"/>
      <stop offset="0.5137254901960784" stop-color="#87d6f2" stop-opacity="0.7019608"/>
      <stop offset="1.0" stop-color="#d5ebf5" stop-opacity="0.6509804"/>
    </linearGradient>
    <linearGradient gradientTransform="matrix(6.0E-4, -0.0059, 0.0045, 5.0E-4, 64.75, 41.0)" gradientUnits="userSpaceOnUse" id="gradient6" spreadMethod="pad" x1="-819.2" x2="819.2">
      <stop offset="0.06666666666666667" stop-color="#65d8f3" stop-opacity="0.7019608"/>
      <stop offset="0.5137254901960784" stop-color="#87d6f2" stop-opacity="0.7019608"/>
      <stop offset="1.0" stop-color="#d5ebf5" stop-opacity="0.6509804"/>
    </linearGradient>
    <linearGradient gradientTransform="matrix(0.0018, -0.0123, 0.0058, 9.0E-4, 63.95, 33.85)" gradientUnits="userSpaceOnUse" id="gradient7" spreadMethod="pad" x1="-819.2" x2="819.2">
      <stop offset="0.06666666666666667" stop-color="#ff0b0b" stop-opacity="0.7019608"/>
      <stop offset="0.5137254901960784" stop-color="#f56b58" stop-opacity="0.7019608"/>
      <stop offset="1.0" stop-color="#fbe7d9" stop-opacity="0.6509804"/>
    </linearGradient>
    <linearGradient gradientTransform="matrix(0.0027, -0.0102, 0.0045, 0.0012, 65.8, 46.15)" gradientUnits="userSpaceOnUse" id="gradient8" spreadMethod="pad" x1="-819.2" x2="819.2">
      <stop offset="0.06666666666666667" stop-color="#65d8f3" stop-opacity="0.7019608"/>
      <stop offset="0.5137254901960784" stop-color="#87d6f2" stop-opacity="0.7019608"/>
      <stop offset="1.0" stop-color="#d5ebf5" stop-opacity="0.6509804"/>
    </linearGradient>
    <linearGradient gradientTransform="matrix(-0.0093, 0.0025, -0.0039, -0.0144, 64.65, 105.55)" gradientUnits="userSpaceOnUse" id="gradient9" spreadMethod="pad" x1="-819.2" x2="819.2">
      <stop offset="0.06666666666666667" stop-color="#e6ba73" stop-opacity="0.7019608"/>
      <stop offset="0.5058823529411764" stop-color="#f8ddb1" stop-opacity="0.7019608"/>
      <stop offset="1.0" stop-color="#fef4e0" stop-opacity="0.6509804"/>
    </linearGradient>
    <linearGradient gradientTransform="matrix(-0.0172, -0.0099, 0.008, -0.014, 11.65, 99.55)" gradientUnits="userSpaceOnUse" id="gradient10" spreadMethod="pad" x1="-819.2" x2="819.2">
      <stop offset="0.06666666666666667" stop-color="#59be3a" stop-opacity="0.7019608"/>
      <stop offset="0.5137254901960784" stop-color="#baf57c" stop-opacity="0.7019608"/>
      <stop offset="1.0" stop-color="#d2f4d6" stop-opacity="0.6509804"/>
    </linearGradient>
    <g id="shape4" transform="matrix(1.0, 0.0, 0.0, 1.0, -6.85, -47.8)">
      <path d="M11.25 49.0 Q6.45 60.1 6.9 74.25 8.7 77.6 10.4 74.25 9.85 64.7 14.15 51.5 14.15 45.65 11.25 49.0 M13.9 86.85 Q11.95 83.1 11.0 79.3 8.55 76.95 7.75 80.4 8.15 85.45 10.4 88.95 14.6 92.65 13.9 86.85" fill="#ffffff" fill-opacity="0.48235294" fill-rule="evenodd" stroke="none"/>
    </g>
    <g id="shape5" transform="matrix(1.0, 0.0, 0.0, 1.0, -1.6, -35.5)">
      <path d="M2.2 88.3 Q0.15 98.6 5.25 107.25 8.4 108.15 9.35 104.9 5.65 99.2 6.4 87.95 4.55 84.2 2.2 88.3 M17.45 110.6 Q13.95 109.45 11.65 107.7 8.0 107.9 8.2 110.65 10.25 113.55 14.0 114.3 20.15 113.75 17.45 110.6" fill="#ffffff" fill-opacity="0.48235294" fill-rule="evenodd" stroke="none"/>
      <path d="M51.15 104.65 Q49.95 110.35 53.8 114.45 56.1 114.65 56.7 112.8 53.9 110.15 54.15 104.05 52.7 102.25 51.15 104.65 M62.7 115.05 Q60.2 114.8 58.45 114.1 55.85 114.55 56.05 116.0 57.6 117.35 60.35 117.35 64.7 116.5 62.7 115.05" fill="#ffffff" fill-opacity="0.48235294" fill-rule="evenodd" stroke="none"/>
      <path d="M58.9 100.25 Q68.6 98.1 74.35 88.7 73.95 84.7 70.75 85.1 67.1 91.7 57.05 95.65 54.4 99.3 58.9 100.25 M72.7 73.45 Q73.0 77.9 72.35 81.25 73.8 85.3 76.15 83.95 77.95 80.35 77.2 75.8 74.45 69.1 72.7 73.45" fill="#ffffff" fill-opacity="0.48235294" fill-rule="evenodd" stroke="none"/>
      <path d="M64.35 51.8 Q58.05 44.15 46.35 38.9 42.6 38.8 44.35 41.3 52.4 44.65 60.65 52.8 65.4 55.15 64.35 51.8 M32.2 38.75 Q36.35 38.9 39.9 39.7 43.25 38.95 40.85 37.05 36.6 35.35 32.45 35.5 27.1 36.95 32.2 38.75" fill="#ffffff" fill-opacity="0.48235294" fill-rule="evenodd" stroke="none"/>
      <path d="M8.05 87.75 L8.15 88.15 7.7 87.35 7.85 87.5 8.05 87.75 M26.75 102.55 L26.75 102.5 27.0 102.35 Q28.9 104.35 28.9 106.7 28.9 108.4 28.3 109.8 L26.35 113.0 24.85 114.7 22.3 116.15 Q20.25 116.95 17.9 117.05 L16.1 116.25 15.95 116.15 16.5 116.15 Q22.9 116.15 25.75 111.95 27.6 109.25 27.6 105.85 L27.55 104.35 26.75 102.55 M52.3 102.25 L52.95 102.85 52.65 103.8 52.3 105.65 52.15 105.95 51.8 107.1 Q51.8 108.35 52.4 109.7 53.0 112.0 55.0 114.1 L56.75 115.6 56.6 115.75 59.1 117.35 59.1 117.4 58.55 117.3 56.0 116.25 Q53.65 115.25 53.25 114.85 52.0 113.6 51.05 111.75 50.0 109.85 50.0 108.65 L50.2 105.7 50.75 104.4 52.0 102.6 52.3 102.25 M55.1 95.05 L54.9 95.85 54.5 97.6 Q54.5 100.35 59.5 100.35 64.05 100.35 68.7 97.2 L67.2 98.5 Q65.35 100.0 60.35 101.8 L60.2 101.85 57.7 101.95 Q55.3 101.95 54.05 100.9 L54.0 100.85 Q53.4 100.15 53.4 99.15 L53.8 95.65 Q53.8 89.8 49.1 86.9 48.1 86.15 46.9 85.7 L44.45 85.05 41.0 84.4 Q37.25 84.45 33.5 87.15 31.0 88.95 28.9 91.55 27.0 93.75 25.9 95.9 L24.3 98.1 23.55 98.65 22.2 98.85 Q19.85 98.85 15.85 96.6 L13.05 94.5 10.3 91.75 8.9 89.45 11.85 92.2 Q14.55 94.3 17.35 95.1 L17.65 95.25 Q20.0 96.35 22.2 96.35 L23.9 96.05 25.75 93.85 28.7 89.45 Q30.15 87.5 32.8 85.75 36.3 83.45 39.9 83.2 54.0 82.75 55.1 95.05" fill="#ffffff" fill-opacity="0.49019608" fill-rule="evenodd" stroke="none"/>
    </g>
  </defs>
</svg>
