<?xml version="1.0" encoding="UTF-8" standalone="no"?>
<svg xmlns:xlink="http://www.w3.org/1999/xlink" height="440.0px" width="440.0px" xmlns="http://www.w3.org/2000/svg">
  <g transform="matrix(10.0, 0.0, 0.0, 10.0, 0.0, 0.0)">
    <use height="44.0" transform="matrix(1.0, 0.0, 0.0, 1.0, 0.0, 0.0)" width="44.0" xlink:href="#shape0"/>
    <use height="56.0" transform="matrix(0.2221, -0.1789, 0.1107, 0.1374, 12.7184, 14.8529)" width="56.0" xlink:href="#sprite0"/>
    <use height="34.75" transform="matrix(1.0, 0.0, 0.0, 1.0, 1.85, 4.55)" width="37.55" xlink:href="#shape2"/>
  </g>
  <defs>
    <g id="shape0" transform="matrix(1.0, 0.0, 0.0, 1.0, 0.0, 0.0)">
      <path d="M44.0 44.0 L0.0 44.0 0.0 0.0 44.0 0.0 44.0 44.0" fill="#43adca" fill-opacity="0.0" fill-rule="evenodd" stroke="none"/>
      <path d="M35.3 7.55 L32.75 9.95 31.35 8.7 Q29.4 7.4 28.35 7.0 L30.35 5.0 Q33.15 5.5 35.3 7.55 M24.25 6.4 L24.45 6.35 Q26.25 6.2 28.2 6.9 L28.35 7.0 25.1 9.9 Q26.1 10.3 28.05 11.6 L29.45 12.8 32.75 9.95 Q33.85 11.1 34.85 12.9 L34.85 12.95 34.9 13.0 35.1 13.3 31.85 16.3 31.6 15.9 31.55 15.85 31.55 15.8 Q30.5 13.95 29.45 12.8 L25.7 15.7 Q26.8 16.85 27.85 18.7 L27.85 18.75 27.9 18.8 28.1 19.15 24.2 21.7 24.15 21.65 24.15 21.6 Q23.05 19.6 21.85 18.4 L25.7 15.7 24.35 14.5 21.4 12.8 17.4 15.55 17.5 15.6 Q18.55 16.0 20.65 17.4 L21.85 18.4 18.0 20.9 16.65 19.7 Q14.6 18.35 13.6 17.95 L17.4 15.55 13.75 15.05 12.55 15.25 17.55 12.15 Q19.3 12.0 21.2 12.7 L21.4 12.8 25.1 9.9 24.9 9.8 Q23.05 9.15 21.3 9.25 L24.25 6.4" fill="#fe56dd" fill-rule="evenodd" stroke="none"/>
      <path d="M30.35 5.0 L28.35 7.0 Q29.4 7.4 31.35 8.7 L32.75 9.95 35.3 7.55 35.9 8.15 37.6 10.5 35.1 13.3 34.9 13.0 34.85 12.95 34.85 12.9 Q33.85 11.1 32.75 9.95 L29.45 12.8 28.05 11.6 Q26.1 10.3 25.1 9.9 L28.35 7.0 28.2 6.9 Q26.25 6.2 24.45 6.35 L24.25 6.4 25.1 5.35 Q26.6 4.8 28.3 4.8 L30.35 5.0 M8.1 17.65 L12.15 15.45 12.55 15.25 13.75 15.05 17.4 15.55 13.6 17.95 13.5 17.9 Q11.55 17.2 9.75 17.35 L8.1 17.65 M17.55 12.15 L18.6 11.4 21.3 9.25 Q23.05 9.15 24.9 9.8 L25.1 9.9 21.4 12.8 21.2 12.7 Q19.3 12.0 17.55 12.15 M28.1 19.15 L27.9 18.8 27.85 18.75 27.85 18.7 Q26.8 16.85 25.7 15.7 L29.45 12.8 Q30.5 13.95 31.55 15.8 L31.55 15.85 31.6 15.9 31.85 16.3 28.1 19.15 M21.85 18.4 L20.65 17.4 Q18.55 16.0 17.5 15.6 L17.4 15.55 21.4 12.8 24.35 14.5 25.7 15.7 21.85 18.4 Q23.05 19.6 24.15 21.6 L24.15 21.65 24.2 21.7 20.15 23.9 Q19.1 22.05 18.0 20.9 L21.85 18.4" fill="#2e2e2e" fill-rule="evenodd" stroke="none"/>
      <path d="M35.1 13.3 L37.6 10.5 38.65 13.0 35.85 14.9 35.1 13.3 M38.95 18.65 L38.25 21.1 35.9 22.65 36.05 22.25 36.4 20.3 33.15 22.5 32.85 24.8 29.15 27.7 29.45 25.05 25.75 27.75 25.75 27.45 Q25.75 25.4 25.35 24.15 L24.65 22.55 20.85 25.2 20.15 23.95 20.15 23.9 24.2 21.7 24.65 22.55 28.5 19.95 29.05 21.25 Q29.45 22.5 29.45 24.55 L29.45 25.05 33.15 22.5 33.15 21.65 Q33.15 19.6 32.75 18.35 L32.35 17.3 35.85 14.9 36.05 15.45 Q36.45 16.7 36.45 18.75 L36.4 20.3 38.95 18.65 M25.35 30.95 L19.45 36.55 Q20.45 35.45 21.05 33.9 21.65 32.85 21.75 30.7 L25.75 27.75 25.35 30.95 M28.1 19.15 L31.85 16.3 32.35 17.3 28.5 19.95 28.1 19.15" fill="#000000" fill-rule="evenodd" stroke="none"/>
      <path d="M38.65 13.0 Q39.1 14.65 39.1 16.5 L38.95 18.65 36.4 20.3 36.45 18.75 Q36.45 16.7 36.05 15.45 L35.85 14.9 32.35 17.3 32.75 18.35 Q33.15 19.6 33.15 21.65 L33.15 22.5 29.45 25.05 29.45 24.55 Q29.45 22.5 29.05 21.25 L28.5 19.95 24.65 22.55 24.2 21.7 28.1 19.15 28.5 19.95 32.35 17.3 31.85 16.3 35.1 13.3 35.85 14.9 38.65 13.0 M35.9 22.65 L32.85 24.8 33.15 22.5 36.4 20.3 36.05 22.25 35.9 22.65 M29.15 27.7 L28.55 28.2 25.35 30.95 25.75 27.75 21.75 30.7 21.75 29.75 Q21.75 27.7 21.35 26.45 L20.85 25.2 24.65 22.55 25.35 24.15 Q25.75 25.4 25.75 27.45 L25.75 27.75 29.45 25.05 29.15 27.7" fill="#a6388b" fill-rule="evenodd" stroke="none"/>
      <path d="M19.45 36.55 L17.6 37.95 Q14.25 39.9 10.2 38.35 6.25 36.85 3.95 32.8 1.6 28.75 2.2 24.45 L3.05 21.95 Q3.45 21.05 3.75 20.75 5.4 18.9 6.3 18.4 7.15 17.9 8.1 17.65 L9.75 17.35 Q11.55 17.2 13.5 17.9 L13.6 17.95 Q14.6 18.35 16.65 19.7 L18.0 20.9 Q19.1 22.05 20.15 23.9 L20.15 23.95 20.85 25.2 21.35 26.45 Q21.75 27.7 21.75 29.75 L21.75 30.7 Q21.65 32.85 21.05 33.9 20.45 35.45 19.45 36.55 M19.8 30.9 Q20.15 28.55 19.3 26.25 L19.2 25.95 18.45 24.45 Q17.65 23.0 16.5 22.0 L16.35 21.85 16.25 21.8 Q14.95 20.55 13.25 20.0 L11.0 19.45 Q9.05 19.25 7.35 20.25 L7.0 20.5 Q5.5 21.45 4.8 22.95 L4.75 23.2 Q4.3 24.1 4.0 25.3 3.5 28.65 5.4 31.95 L6.75 33.85 Q8.25 35.55 10.3 36.4 L10.5 36.55 Q13.85 37.7 16.55 36.15 18.75 34.9 19.5 32.45 L19.75 31.25 19.8 30.9" fill="#d94ab6" fill-rule="evenodd" stroke="none"/>
      <path d="M9.4 32.4 L8.9 31.9 Q6.1 28.95 6.1 24.25 6.1 23.1 6.5 21.8 L7.0 20.5 7.35 20.25 Q9.05 19.25 11.0 19.45 L13.25 20.0 Q14.95 20.55 16.25 21.8 L16.35 21.85 16.5 22.0 Q17.65 23.0 18.45 24.45 L19.2 25.95 19.3 26.25 Q20.15 28.55 19.8 30.9 L18.55 31.0 Q15.75 31.0 13.75 29.75 L13.1 29.25 Q10.6 27.3 10.6 23.9 10.6 23.0 10.75 22.6 10.5 22.85 10.1 23.95 9.5 25.5 9.5 27.25 9.5 29.75 10.85 31.5 L11.05 31.75 14.0 34.25 13.5 34.25 Q11.45 34.3 9.4 32.4" fill="url(#gradient0)" fill-rule="evenodd" stroke="none"/>
      <path d="M7.0 20.5 L6.5 21.8 Q6.1 23.1 6.1 24.25 6.1 28.95 8.9 31.9 L9.4 32.4 Q6.8 31.55 6.75 33.85 L5.4 31.95 Q3.5 28.65 4.0 25.3 4.3 24.1 4.75 23.2 L4.8 22.95 Q5.5 21.45 7.0 20.5 M10.85 31.5 Q9.5 29.75 9.5 27.25 9.5 25.5 10.1 23.95 10.5 22.85 10.75 22.6 10.6 23.0 10.6 23.9 10.6 27.3 13.1 29.25 L13.75 29.75 Q11.45 29.25 10.85 31.5" fill="#4f1a40" fill-rule="evenodd" stroke="none"/>
      <path d="M9.4 32.4 Q11.45 34.3 13.5 34.25 L14.0 34.25 11.05 31.75 10.85 31.5 Q11.45 29.25 13.75 29.75 15.75 31.0 18.55 31.0 L19.8 30.9 19.75 31.25 19.5 32.45 Q18.75 34.9 16.55 36.15 13.85 37.7 10.5 36.55 L10.3 36.4 Q8.25 35.55 6.75 33.85 6.8 31.55 9.4 32.4" fill="url(#gradient1)" fill-rule="evenodd" stroke="none"/>
      <path d="M35.6 7.35 L35.45 7.7 35.1 7.85 34.75 7.7 34.6 7.35 Q34.6 7.15 34.75 7.0 34.9 6.85 35.1 6.85 L35.45 7.0 35.6 7.35 M32.25 5.35 L32.6 5.2 Q32.8 5.2 32.95 5.35 L33.1 5.7 32.95 6.05 32.6 6.2 32.25 6.05 32.1 5.7 32.25 5.35 M30.05 5.25 L29.7 5.4 Q29.5 5.4 29.35 5.25 L29.2 4.9 29.35 4.55 Q29.5 4.4 29.7 4.4 L30.05 4.55 30.2 4.9 30.05 5.25 M37.5 10.15 L37.15 10.3 36.8 10.15 36.65 9.8 36.8 9.45 37.15 9.3 37.5 9.45 37.65 9.8 37.5 10.15 M38.2 12.35 Q38.35 12.2 38.55 12.2 38.75 12.2 38.9 12.35 L39.05 12.7 38.9 13.05 38.55 13.2 38.2 13.05 38.05 12.7 Q38.05 12.5 38.2 12.35 M27.0 4.6 L27.15 4.95 27.0 5.3 26.65 5.45 26.3 5.3 26.15 4.95 26.3 4.6 26.65 4.45 27.0 4.6 M23.8 6.15 Q23.95 6.0 24.15 6.0 L24.5 6.15 24.65 6.5 24.5 6.85 24.15 7.0 23.8 6.85 23.65 6.5 Q23.65 6.3 23.8 6.15 M22.7 8.45 L22.55 8.8 22.2 8.95 21.85 8.8 21.7 8.45 Q21.7 8.25 21.85 8.1 22.0 7.95 22.2 7.95 22.4 7.95 22.55 8.1 L22.7 8.45 M20.45 10.35 L20.3 10.7 19.95 10.85 19.6 10.7 19.45 10.35 Q19.45 10.15 19.6 10.0 19.75 9.85 19.95 9.85 L20.3 10.0 20.45 10.35 M21.1 24.65 L21.25 25.0 21.1 25.35 20.75 25.5 20.4 25.35 20.25 25.0 Q20.25 24.8 20.4 24.65 20.55 24.5 20.75 24.5 20.95 24.5 21.1 24.65 M38.75 15.25 L39.1 15.1 39.45 15.25 39.6 15.6 39.45 15.95 39.1 16.1 38.75 15.95 38.6 15.6 38.75 15.25 M38.6 18.2 Q38.75 18.05 38.95 18.05 L39.3 18.2 39.45 18.55 39.3 18.9 38.95 19.05 38.6 18.9 38.45 18.55 38.6 18.2 M30.35 26.1 L30.7 25.95 31.05 26.1 31.2 26.45 31.05 26.8 30.7 26.95 30.35 26.8 30.2 26.45 30.35 26.1 M33.4 24.35 L33.55 24.7 33.4 25.05 33.05 25.2 32.7 25.05 32.55 24.7 32.7 24.35 Q32.85 24.2 33.05 24.2 33.25 24.2 33.4 24.35 M38.3 20.95 L38.45 21.3 38.3 21.65 37.95 21.8 37.6 21.65 37.45 21.3 Q37.45 21.1 37.6 20.95 37.75 20.8 37.95 20.8 38.15 20.8 38.3 20.95 M35.15 22.6 L35.5 22.45 35.85 22.6 36.0 22.95 35.85 23.3 35.5 23.45 35.15 23.3 35.0 22.95 35.15 22.6 M17.1 11.9 Q17.25 11.75 17.45 11.75 L17.8 11.9 17.95 12.25 17.8 12.6 17.45 12.75 17.1 12.6 16.95 12.25 17.1 11.9 M15.65 13.7 L15.5 14.05 15.15 14.2 14.8 14.05 14.65 13.7 Q14.65 13.5 14.8 13.35 14.95 13.2 15.15 13.2 L15.5 13.35 15.65 13.7 M9.2 16.55 Q9.35 16.4 9.55 16.4 L9.9 16.55 10.05 16.9 9.9 17.25 9.55 17.4 9.2 17.25 9.05 16.9 9.2 16.55 M8.3 17.2 L8.35 17.15 Q8.5 17.0 8.7 17.0 L9.05 17.15 9.2 17.5 9.05 17.85 8.7 18.0 8.5 17.95 8.45 18.0 8.1 18.15 7.75 18.0 7.6 17.65 Q7.6 17.45 7.75 17.3 7.9 17.15 8.1 17.15 L8.3 17.2 M5.2 18.6 Q5.35 18.45 5.55 18.45 L5.9 18.6 6.05 18.95 5.9 19.3 5.55 19.45 Q5.35 19.45 5.2 19.3 L5.05 18.95 5.2 18.6 M4.1 20.95 L3.95 21.3 3.6 21.45 3.25 21.3 3.1 20.95 Q3.1 20.75 3.25 20.6 3.4 20.45 3.6 20.45 L3.95 20.6 4.1 20.95 M2.4 23.15 L2.75 23.3 2.9 23.65 2.75 24.0 2.4 24.15 Q2.2 24.15 2.05 24.0 L1.9 23.65 2.05 23.3 Q2.2 23.15 2.4 23.15 M2.45 26.3 L2.6 26.65 2.45 27.0 2.1 27.15 1.75 27.0 1.6 26.65 Q1.6 26.45 1.75 26.3 1.9 26.15 2.1 26.15 L2.45 26.3 M14.95 18.35 L14.8 18.7 14.45 18.85 14.1 18.7 13.95 18.35 Q13.95 18.15 14.1 18.0 14.25 17.85 14.45 17.85 14.65 17.85 14.8 18.0 L14.95 18.35 M16.75 19.7 Q16.9 19.55 17.1 19.55 L17.45 19.7 17.6 20.05 17.45 20.4 17.1 20.55 Q16.9 20.55 16.75 20.4 L16.6 20.05 16.75 19.7 M12.9 14.9 L13.05 15.25 12.9 15.6 12.55 15.75 12.5 15.8 12.15 15.95 11.8 15.8 11.65 15.45 Q11.65 15.25 11.8 15.1 11.95 14.95 12.15 14.95 L12.2 14.9 Q12.35 14.75 12.55 14.75 L12.9 14.9 M12.0 17.05 L12.15 17.4 12.0 17.75 11.65 17.9 11.3 17.75 11.15 17.4 11.3 17.05 Q11.45 16.9 11.65 16.9 L12.0 17.05 M19.45 21.9 L19.6 22.25 19.45 22.6 19.1 22.75 18.75 22.6 18.6 22.25 18.75 21.9 Q18.9 21.75 19.1 21.75 L19.45 21.9 M13.4 38.55 Q13.6 38.55 13.75 38.7 L13.9 39.05 13.75 39.4 13.4 39.55 13.05 39.4 12.9 39.05 Q12.9 38.85 13.05 38.7 13.2 38.55 13.4 38.55 M10.05 38.1 Q10.2 37.95 10.4 37.95 10.6 37.95 10.75 38.1 L10.9 38.45 10.75 38.8 10.4 38.95 10.05 38.8 9.9 38.45 Q9.9 38.25 10.05 38.1 M16.7 38.2 L16.85 38.55 16.7 38.9 16.35 39.05 16.0 38.9 15.85 38.55 Q15.85 38.35 16.0 38.2 16.15 38.05 16.35 38.05 16.55 38.05 16.7 38.2 M19.2 36.1 Q19.35 35.95 19.55 35.95 L19.9 36.1 20.05 36.45 19.9 36.8 19.85 36.85 19.8 36.9 19.5 37.05 19.4 37.2 19.05 37.35 18.7 37.2 18.55 36.85 Q18.55 36.65 18.7 36.5 18.85 36.35 19.0 36.35 L19.1 36.2 19.15 36.15 19.2 36.1 M2.6 29.15 Q2.8 29.15 2.95 29.3 L3.1 29.65 2.95 30.0 2.6 30.15 2.25 30.0 2.1 29.65 2.25 29.3 Q2.4 29.15 2.6 29.15 M3.5 32.25 Q3.65 32.1 3.85 32.1 L4.2 32.25 4.35 32.6 4.2 32.95 3.85 33.1 3.5 32.95 3.35 32.6 3.5 32.25 M5.9 34.7 L6.05 35.05 5.9 35.4 5.55 35.55 Q5.35 35.55 5.2 35.4 L5.05 35.05 5.2 34.7 Q5.35 34.55 5.55 34.55 L5.9 34.7 M7.45 36.75 Q7.6 36.6 7.8 36.6 L8.15 36.75 8.3 37.1 8.15 37.45 7.8 37.6 7.45 37.45 7.3 37.1 Q7.3 36.9 7.45 36.75 M28.7 28.05 L28.85 28.4 28.7 28.75 28.35 28.9 28.0 28.75 27.85 28.4 Q27.85 28.2 28.0 28.05 28.15 27.9 28.35 27.9 L28.7 28.05 M25.6 30.0 Q25.75 29.85 25.95 29.85 26.15 29.85 26.3 30.0 L26.45 30.35 26.3 30.7 25.95 30.85 25.6 30.7 25.45 30.35 Q25.45 30.15 25.6 30.0 M21.35 27.85 Q21.5 27.7 21.7 27.7 L22.05 27.85 22.2 28.2 22.05 28.55 21.7 28.7 21.35 28.55 21.2 28.2 21.35 27.85 M22.1 30.85 L22.25 31.2 22.1 31.55 21.75 31.7 21.4 31.55 21.25 31.2 Q21.25 31.0 21.4 30.85 21.55 30.7 21.75 30.7 21.95 30.7 22.1 30.85 M23.35 32.05 Q23.5 31.9 23.7 31.9 23.9 31.9 24.05 32.05 L24.2 32.4 24.05 32.75 23.7 32.9 23.35 32.75 23.2 32.4 Q23.2 32.2 23.35 32.05 M21.45 34.0 L21.8 34.15 21.95 34.5 21.8 34.85 21.45 35.0 21.1 34.85 20.95 34.5 20.6 34.35 20.45 34.0 20.6 33.65 Q20.75 33.5 20.95 33.5 L21.3 33.65 21.45 34.0" fill="#000000" fill-opacity="0.4" fill-rule="evenodd" stroke="none"/>
      <path d="M39.15 16.5 L39.0 18.65 38.3 21.1 35.95 22.65 32.9 24.8 29.2 27.7 28.6 28.2 Q27.0 29.5 25.4 30.95 L19.5 36.55 Q20.5 35.45 21.1 33.9 21.7 32.85 21.8 30.7 L21.8 29.75 Q21.8 27.7 21.4 26.45 L20.9 25.2 20.2 23.95 20.2 23.9 24.25 21.7 28.15 19.15 31.9 16.3 35.15 13.3 37.65 10.5 38.7 13.0 Q39.15 14.65 39.15 16.5" fill="url(#gradient2)" fill-rule="evenodd" stroke="none"/>
    </g>
    <linearGradient gradientTransform="matrix(0.0017, 0.0037, -0.0069, 0.0031, 13.35, 27.95)" gradientUnits="userSpaceOnUse" id="gradient0" spreadMethod="pad" x1="-819.2" x2="819.2">
      <stop offset="0.0" stop-color="#331028"/>
      <stop offset="1.0" stop-color="#170711"/>
    </linearGradient>
    <linearGradient gradientTransform="matrix(-0.005, -0.0046, 0.0046, -0.005, 10.6, 29.9)" gradientUnits="userSpaceOnUse" id="gradient1" spreadMethod="pad" x1="-819.2" x2="819.2">
      <stop offset="0.0" stop-color="#802b6b"/>
      <stop offset="1.0" stop-color="#bf419b"/>
    </linearGradient>
    <linearGradient gradientTransform="matrix(0.0011, 0.0016, -0.015, 0.0099, 27.85, 22.35)" gradientUnits="userSpaceOnUse" id="gradient2" spreadMethod="pad" x1="-819.2" x2="819.2">
      <stop offset="0.0" stop-color="#000000" stop-opacity="0.3019608"/>
      <stop offset="1.0" stop-color="#170710" stop-opacity="0.0"/>
    </linearGradient>
    <g id="sprite0" transform="matrix(1.0, 0.0, 0.0, 1.0, 42.35, 39.1)">
      <use height="56.0" transform="matrix(1.0, 0.0, 0.0, 1.0, -42.35, -39.1)" width="56.0" xlink:href="#shape1"/>
    </g>
    <g id="shape1" transform="matrix(1.0, 0.0, 0.0, 1.0, 42.35, 39.1)">
      <path d="M13.65 -11.1 Q13.65 0.5 5.45 8.7 -2.75 16.9 -14.35 16.9 -25.95 16.9 -34.15 8.7 -42.35 0.5 -42.35 -11.1 -42.35 -22.7 -34.15 -30.9 -25.95 -39.1 -14.35 -39.1 -2.75 -39.1 5.45 -30.9 13.65 -22.7 13.65 -11.1" fill="url(#gradient3)" fill-rule="evenodd" stroke="none"/>
    </g>
    <radialGradient cx="0" cy="0" gradientTransform="matrix(0.0349, 0.0, 0.0, 0.0349, -14.35, -11.1)" gradientUnits="userSpaceOnUse" id="gradient3" r="819.2" spreadMethod="pad">
      <stop offset="0.0" stop-color="#ffee69" stop-opacity="0.8"/>
      <stop offset="1.0" stop-color="#fef18a" stop-opacity="0.0"/>
    </radialGradient>
    <g id="shape2" transform="matrix(1.0, 0.0, 0.0, 1.0, -1.85, -4.55)">
      <path d="M37.65 10.5 L38.7 13.0 Q39.15 14.65 39.15 16.5 L39.0 18.65 38.3 21.1 35.95 22.65 32.9 24.8 29.2 27.7 28.6 28.2 Q27.0 29.5 25.4 30.95 L19.5 36.55 19.8 36.2 19.45 36.55 17.6 37.95 Q14.25 39.9 10.2 38.35 6.25 36.85 3.95 32.8 1.6 28.75 2.2 24.45 L3.05 21.95 Q3.45 21.05 3.75 20.75 5.4 18.9 6.3 18.4 7.15 17.9 8.1 17.65 L12.15 15.45 12.55 15.25 17.55 12.15 18.6 11.4 21.3 9.25 24.25 6.4 25.1 5.35 Q26.6 4.8 28.3 4.8 L30.35 5.0 Q33.15 5.5 35.3 7.55 L35.9 8.15 37.6 10.5 37.65 10.55 37.65 10.5 Z" fill="none" stroke="#000000" stroke-linecap="round" stroke-linejoin="round" stroke-opacity="0.3019608" stroke-width="0.5"/>
    </g>
  </defs>
</svg>
