<?xml version="1.0" encoding="UTF-8" standalone="no"?>
<svg xmlns:xlink="http://www.w3.org/1999/xlink" height="440.0px" width="440.0px" xmlns="http://www.w3.org/2000/svg">
  <g transform="matrix(10.0, 0.0, 0.0, 10.0, 0.0, 0.0)">
    <use height="44.0" transform="matrix(1.0, 0.0, 0.0, 1.0, 0.0, 0.0)" width="44.0" xlink:href="#shape0"/>
    <use height="120.3" transform="matrix(0.3129, 0.0, 0.0, 0.3129, 4.2563, 3.8457)" width="118.8" xlink:href="#sprite0"/>
  </g>
  <defs>
    <g id="shape0" transform="matrix(1.0, 0.0, 0.0, 1.0, 0.0, 0.0)">
      <path d="M44.0 44.0 L0.0 44.0 0.0 0.0 44.0 0.0 44.0 44.0" fill="#43adca" fill-opacity="0.0" fill-rule="evenodd" stroke="none"/>
    </g>
    <g id="sprite0" transform="matrix(1.0, 0.0, 0.0, 1.0, 62.15, 65.7)">
      <use height="120.3" transform="matrix(1.0, 0.0, 0.0, 1.0, -62.15, -65.7)" width="118.8" xlink:href="#shape1"/>
    </g>
    <g id="shape1" transform="matrix(1.0, 0.0, 0.0, 1.0, 62.15, 65.7)">
      <path d="M-27.75 48.7 L-40.1 41.2 -40.2 41.15 -48.6 36.0 Q-57.95 26.75 -55.65 9.0 -54.7 1.25 -51.7 -6.3 L-45.85 -2.95 Q-47.65 3.6 -48.2 10.2 -47.25 3.8 -45.0 -2.45 L-36.05 2.75 -28.0 8.6 -28.05 8.7 Q-29.3 14.45 -29.45 20.3 L-29.4 23.65 Q-29.2 27.55 -28.5 31.0 -27.9 33.85 -26.9 36.4 L-26.7 36.95 -25.7 39.15 -25.6 39.35 -25.3 39.9 -24.75 40.85 -24.15 41.85 -23.55 42.75 -21.1 45.75 -21.45 46.05 -24.7 43.1 -25.5 42.25 Q-29.6 37.75 -32.05 31.95 -33.5 28.7 -34.45 25.0 L-35.15 21.85 -35.85 16.75 -36.45 20.3 -36.75 23.65 Q-37.0 27.55 -36.65 31.0 -36.05 37.1 -33.45 41.85 L-32.9 42.75 -30.65 45.9 -27.75 48.7 M-7.55 -53.35 L-7.4 -53.4 -7.55 -53.3 -7.55 -53.35" fill="#7ca6b3" fill-rule="evenodd" stroke="none"/>
      <path d="M-7.55 -53.3 L-6.7 -47.75 -11.85 -44.8 Q-22.75 -37.8 -32.05 -25.8 -40.8 -14.45 -45.0 -2.45 -47.25 3.8 -48.2 10.2 -47.65 3.6 -45.85 -2.95 -42.3 -15.85 -33.8 -28.35 -25.9 -40.0 -16.45 -47.45 -12.15 -50.8 -7.55 -53.3" fill="#465e66" fill-rule="evenodd" stroke="none"/>
      <path d="M-24.85 -1.55 L-18.85 2.3 -20.45 5.7 -27.45 6.2 Q-26.4 2.3 -24.85 -1.55 M-28.0 8.6 L-28.0 8.65 -20.45 5.75 Q-21.5 8.2 -22.2 10.7 -23.5 15.1 -23.9 19.6 -24.4 25.45 -23.15 30.2 -22.15 33.7 -20.25 36.5 L-20.0 36.8 -18.3 38.9 -17.05 40.15 -21.1 45.75 -23.55 42.75 -24.15 41.85 -24.75 40.85 -25.3 39.9 -25.6 39.35 -25.7 39.15 -26.7 36.95 -26.9 36.4 Q-27.9 33.85 -28.5 31.0 -29.2 27.55 -29.4 23.65 L-29.45 20.3 Q-29.3 14.45 -28.05 8.7 L-28.0 8.6" fill="#49626b" fill-rule="evenodd" stroke="none"/>
      <path d="M42.85 -43.8 L43.1 -43.65 45.8 -41.95 46.4 -41.45 Q58.2 -32.5 55.7 -12.95 54.25 -1.55 48.4 9.65 53.8 -1.25 55.2 -12.0 57.8 -31.75 45.55 -39.75 L44.95 -40.2 42.1 -41.7 41.85 -41.8 37.4 -43.15 31.6 -43.7 25.7 -43.2 18.5 -41.35 13.95 -39.65 13.6 -39.5 11.0 -38.3 10.65 -38.1 10.75 -38.0 5.6 -35.1 4.3 -36.9 3.7 -37.35 4.25 -37.7 Q8.4 -40.45 12.9 -42.4 L12.8 -42.55 13.15 -42.7 15.65 -43.7 15.95 -43.8 20.35 -45.15 27.3 -46.45 Q30.2 -46.75 32.95 -46.5 L38.55 -45.5 Q40.75 -44.85 42.85 -43.8 M-24.6 -2.15 Q-21.3 -10.1 -15.75 -17.95 -9.4 -26.85 -1.95 -33.1 L-0.6 -34.2 -0.45 -34.35 0.0 -34.65 1.95 -36.15 2.0 -36.2 4.05 -34.1 -2.65 -29.2 -3.1 -28.85 -3.25 -28.7 -4.65 -27.45 Q-12.4 -20.6 -19.0 -11.2 -22.15 -6.7 -24.6 -2.15" fill="#698d99" fill-rule="evenodd" stroke="none"/>
      <path d="M-51.7 -6.3 Q-47.15 -17.9 -37.95 -29.2 -28.4 -40.9 -17.45 -48.0 L-16.45 -47.45 Q-25.9 -40.0 -33.8 -28.35 -42.3 -15.85 -45.85 -2.95 L-51.7 -6.3 M-11.85 -44.8 L-6.9 -41.95 -6.9 -41.9 1.95 -36.15 0.0 -34.65 -0.45 -34.35 -0.6 -34.2 -1.95 -33.1 Q-9.4 -26.85 -15.75 -17.95 -21.3 -10.1 -24.6 -2.15 L-24.85 -1.55 Q-26.4 2.3 -27.45 6.2 L-27.5 6.4 -42.4 -1.1 -36.05 2.75 -45.0 -2.45 Q-40.8 -14.45 -32.05 -25.8 -22.75 -37.8 -11.85 -44.8" fill="#83b0bf" fill-rule="evenodd" stroke="none"/>
      <path d="M-6.7 -47.75 Q-3.4 -49.45 0.0 -50.75 L3.0 -51.8 Q9.4 -53.9 15.2 -54.05 L21.15 -53.7 Q26.25 -53.0 30.8 -50.6 L42.85 -43.8 Q40.75 -44.85 38.55 -45.5 L32.95 -46.5 Q30.2 -46.75 27.3 -46.45 L20.35 -45.15 15.95 -43.8 15.65 -43.7 13.15 -42.7 12.8 -42.55 12.9 -42.4 Q8.4 -40.45 4.25 -37.7 L3.7 -37.35 -6.9 -41.95 -11.85 -44.8 -6.7 -47.75 M-17.45 -48.0 Q-12.65 -51.15 -7.55 -53.35 L-7.55 -53.3 Q-12.15 -50.8 -16.45 -47.45 L-17.45 -48.0" fill="#8cbacc" fill-rule="evenodd" stroke="none"/>
      <path d="M40.9 0.75 Q42.05 -3.05 42.5 -6.85 43.0 -10.55 42.75 -13.75 42.4 -17.9 40.85 -21.15 42.5 -18.85 43.4 -15.9 44.7 -11.5 44.15 -5.7 L44.0 -4.35 Q42.95 4.1 38.45 12.4 35.55 17.8 31.2 23.1 24.7 31.15 17.2 36.05 L15.25 37.3 Q11.2 39.7 6.85 41.2 2.85 42.65 -0.65 43.2 -6.5 43.95 -11.1 42.1 L-15.4 39.6 -17.45 37.6 -18.9 35.65 -19.1 35.35 -19.85 33.95 -18.95 35.1 -16.9 37.1 -12.6 39.6 Q-8.0 41.45 -2.15 40.7 1.35 40.15 5.35 38.7 L9.75 36.9 Q12.8 35.45 15.7 33.55 L16.75 32.85 17.1 32.65 19.35 30.95 Q24.8 26.65 29.7 20.6 33.7 15.75 36.5 10.8 39.3 5.8 40.9 0.75" fill="#698a99" fill-rule="evenodd" stroke="none"/>
      <path d="M-6.9 -41.95 L3.7 -37.35 4.3 -36.9 5.6 -35.1 5.6 -27.05 4.05 -34.1 2.0 -36.2 1.95 -36.15 -6.9 -41.9 -6.9 -41.95" fill="url(#gradient0)" fill-rule="evenodd" stroke="none"/>
      <path d="M48.4 9.65 Q46.0 14.2 42.9 18.75 L37.75 25.5 Q33.0 31.35 27.85 36.05 16.6 46.35 3.5 51.05 -9.7 55.85 -19.45 53.05 L-21.7 52.25 Q-24.7 50.5 -27.75 48.7 L-30.65 45.9 -32.9 42.75 -33.45 41.85 Q-36.05 37.1 -36.65 31.0 -37.0 27.55 -36.75 23.65 L-36.45 20.3 -35.85 16.75 -35.15 21.85 -34.45 25.0 Q-33.5 28.7 -32.05 31.95 -29.6 37.75 -25.5 42.25 L-24.7 43.1 -21.45 46.05 -21.1 45.75 -17.05 40.15 -18.3 38.9 -20.0 36.8 -20.25 36.5 Q-22.15 33.7 -23.15 30.2 -24.4 25.45 -23.9 19.6 -23.5 15.1 -22.2 10.7 -21.5 8.2 -20.45 5.75 L-28.0 8.65 -28.0 8.6 -36.05 2.75 -42.4 -1.1 -27.5 6.4 -27.45 6.2 -20.45 5.7 -18.85 2.3 -24.85 -1.55 -24.6 -2.15 Q-22.15 -6.7 -19.0 -11.2 -12.4 -20.6 -4.65 -27.45 L-3.25 -28.7 -3.1 -28.85 -2.65 -29.2 4.05 -34.1 5.6 -27.05 5.6 -35.1 10.75 -38.0 10.65 -38.1 11.0 -38.3 13.6 -39.5 13.95 -39.65 18.5 -41.35 25.7 -43.2 31.6 -43.7 37.4 -43.15 41.85 -41.8 42.1 -41.7 44.95 -40.2 45.55 -39.75 Q57.8 -31.75 55.2 -12.0 53.8 -1.25 48.4 9.65 M40.85 -21.15 Q39.35 -24.2 36.75 -26.45 L35.9 -27.1 35.5 -27.45 33.35 -28.8 Q30.15 -30.4 26.35 -30.75 L26.15 -30.75 22.3 -30.65 21.75 -30.6 15.25 -29.15 14.05 -28.75 Q9.85 -27.2 5.9 -24.85 L4.6 -24.05 4.3 -23.85 4.15 -23.75 Q-3.7 -18.7 -10.5 -10.35 L-11.45 -9.15 -11.8 -8.65 -16.15 -2.4 -18.75 2.4 Q-20.75 6.6 -21.9 10.9 -22.7 13.85 -23.1 16.85 -23.8 22.4 -22.9 26.9 -22.2 30.2 -20.6 32.85 L-20.4 33.15 -19.85 33.95 -19.1 35.35 -18.9 35.65 -17.45 37.6 -15.4 39.6 -11.1 42.1 Q-6.5 43.95 -0.65 43.2 2.85 42.65 6.85 41.2 11.2 39.7 15.25 37.3 L17.2 36.05 Q24.7 31.15 31.2 23.1 35.55 17.8 38.45 12.4 42.95 4.1 44.0 -4.35 L44.15 -5.7 Q44.7 -11.5 43.4 -15.9 42.5 -18.85 40.85 -21.15" fill="url(#gradient1)" fill-rule="evenodd" stroke="none"/>
      <path d="M-5.4 20.05 L-5.2 20.25 -4.5 20.95 Q-2.15 23.2 1.4 25.25 3.75 26.55 6.25 27.6 L1.35 28.35 -0.65 27.25 Q-5.3 24.6 -7.9 21.55 L-6.55 20.8 -5.7 20.25 -5.4 20.05 M-20.3 26.4 L-15.75 25.1 -13.1 27.85 -20.3 26.4" fill="#de8d1f" fill-rule="evenodd" stroke="none"/>
      <path d="M21.75 -30.6 L22.3 -30.65 26.15 -30.75 26.35 -30.75 Q30.15 -30.4 33.35 -28.8 L35.5 -27.45 35.9 -27.1 36.75 -26.45 Q39.35 -24.2 40.85 -21.15 42.4 -17.9 42.75 -13.75 43.0 -10.55 42.5 -6.85 42.05 -3.05 40.9 0.75 38.15 5.45 34.9 9.55 23.05 24.3 6.25 27.6 3.75 26.55 1.4 25.25 -2.15 23.2 -4.5 20.95 L-5.2 20.25 -5.4 20.05 Q2.4 15.05 9.1 6.75 L12.25 2.65 Q20.4 -8.85 21.9 -20.7 L22.25 -25.1 22.15 -27.95 21.8 -30.3 21.75 -30.6 M-15.75 25.1 L-15.25 24.9 Q-11.45 23.55 -7.9 21.55 -5.3 24.6 -0.65 27.25 L1.35 28.35 Q-2.8 28.7 -7.25 28.45 L-9.3 28.3 -13.1 27.85 -15.75 25.1" fill="url(#gradient2)" fill-rule="evenodd" stroke="none"/>
      <path d="M-19.85 33.95 L-20.4 33.15 -20.6 32.85 Q-22.2 30.2 -22.9 26.9 L-21.75 26.7 -20.7 26.5 -20.3 26.4 -13.1 27.85 -8.15 31.25 Q-0.3 35.7 9.75 36.9 L5.35 38.7 Q1.35 40.15 -2.15 40.7 -8.0 41.45 -12.6 39.6 L-16.9 37.1 -18.95 35.1 -19.85 33.95 M1.35 28.35 L6.25 27.6 Q12.25 30.05 19.35 30.95 L17.1 32.65 16.75 32.85 Q8.25 31.75 1.35 28.35" fill="#f79c22" fill-rule="evenodd" stroke="none"/>
      <path d="M-13.1 27.85 L-9.3 28.3 -7.25 28.45 Q-2.8 28.7 1.35 28.35 8.25 31.75 16.75 32.85 L15.7 33.55 Q12.8 35.45 9.75 36.9 -0.3 35.7 -8.15 31.25 L-13.1 27.85" fill="url(#gradient3)" fill-rule="evenodd" stroke="none"/>
      <path d="M6.25 27.6 Q23.05 24.3 34.9 9.55 38.15 5.45 40.9 0.75 39.3 5.8 36.5 10.8 33.7 15.75 29.7 20.6 24.8 26.65 19.35 30.95 12.25 30.05 6.25 27.6" fill="url(#gradient4)" fill-rule="evenodd" stroke="none"/>
      <path d="M-40.1 41.2 L-40.2 41.15" fill="none" stroke="#ff0000" stroke-linecap="round" stroke-linejoin="round" stroke-width="0.05"/>
      <path d="M-35.7 16.95 L-35.75 14.95 Q-35.4 20.0 -34.85 23.0 -32.5 36.1 -22.65 44.9 L-25.05 48.65 -27.75 45.7 -28.45 44.8 Q-31.95 40.05 -33.75 33.95 -34.75 30.5 -35.3 26.6 L-35.65 23.25 Q-35.85 20.25 -35.7 16.95" fill="#000000" fill-opacity="0.3019608" fill-rule="evenodd" stroke="none"/>
      <path d="M20.9 -30.05 L20.4 -30.4 Q23.45 -30.85 28.95 -30.3 33.9 -29.85 41.05 -21.25 42.35 -16.05 41.35 -8.1 40.25 0.8 35.35 9.55 32.55 14.5 28.55 19.35 22.05 27.4 14.55 32.3 11.65 34.2 8.6 35.65 L4.2 37.45 Q0.2 38.9 -3.3 39.45 -9.15 40.2 -13.75 38.35 L-18.05 35.85 -20.1 33.85 -21.0 32.7 -21.35 31.95 -21.75 30.55 -22.85 27.05 -22.4 27.2 -16.4 25.6 -15.9 25.4 Q-2.3 20.55 8.45 7.25 L11.6 3.15 Q19.75 -8.35 21.25 -20.2 21.8 -24.1 21.5 -27.45 L21.15 -29.8 20.9 -30.05" fill="url(#gradient5)" fill-rule="evenodd" stroke="none"/>
      <path d="M21.35 -29.8 L21.1 -30.05 20.6 -30.4 Q23.65 -30.85 29.15 -30.3 34.1 -29.85 41.25 -21.25 42.55 -16.05 41.55 -8.1 40.45 0.8 35.55 9.55 32.75 14.5 28.75 19.35 22.25 27.4 14.75 32.3 11.85 34.2 8.8 35.65 L4.4 37.45 Q0.4 38.9 -3.1 39.45 -8.95 40.2 -13.55 38.35 L-17.85 35.85 -19.9 33.85 -20.8 32.7 -21.15 31.95 -21.55 30.55 -22.65 27.05 -22.2 27.2 -16.2 25.6 -15.7 25.4 Q-2.1 20.55 8.65 7.25 L11.8 3.15 Q19.95 -8.35 21.45 -20.2 22.0 -24.1 21.7 -27.45 L21.35 -29.8" fill="url(#gradient6)" fill-rule="evenodd" stroke="none"/>
      <path d="M6.0 -48.35 Q5.5 -50.55 7.1 -52.35 8.8 -54.1 11.6 -54.4 14.55 -54.75 16.85 -53.35 19.15 -52.0 19.65 -49.8 20.2 -47.55 18.55 -45.75 16.9 -43.95 14.0 -43.7 11.1 -43.4 8.8 -44.7 6.4 -46.05 6.0 -48.35" fill="#4f2d0b" fill-opacity="0.4509804" fill-rule="evenodd" stroke="none"/>
      <path d="M11.8 -53.25 Q14.2 -53.5 16.0 -52.45 17.95 -51.35 18.3 -49.5 18.75 -47.75 17.35 -46.25 16.1 -44.85 13.75 -44.6 11.45 -44.3 9.55 -45.4 7.6 -46.5 7.25 -48.3 6.85 -50.1 8.15 -51.55 9.5 -53.0 11.8 -53.25" fill="#683c0f" fill-rule="evenodd" stroke="none"/>
      <path d="M11.8 -53.25 Q14.2 -53.5 16.0 -52.45 17.95 -51.35 18.3 -49.5 18.75 -47.75 17.35 -46.25 16.1 -44.85 13.75 -44.6 11.45 -44.3 9.55 -45.4 7.6 -46.5 7.25 -48.3 6.85 -50.1 8.15 -51.55 9.5 -53.0 11.8 -53.25 Z" fill="none" stroke="#000000" stroke-linecap="round" stroke-linejoin="round" stroke-opacity="0.3019608" stroke-width="0.05"/>
      <path d="M12.1 -49.4 Q13.0 -50.6 14.4 -51.05 L16.8 -51.0 Q17.85 -50.45 17.95 -49.3 18.1 -48.15 17.15 -46.95 16.25 -45.8 14.95 -45.35 13.5 -44.9 12.45 -45.35 11.45 -45.9 11.35 -47.1 11.2 -48.25 12.1 -49.4" fill="#a55e17" fill-rule="evenodd" stroke="none"/>
      <path d="M16.8 -49.4 Q16.9 -48.85 16.55 -48.3 16.25 -47.65 15.65 -47.35 15.1 -47.0 14.55 -47.1 14.05 -47.2 13.95 -47.7 13.8 -48.2 14.15 -48.8 L15.05 -49.75 16.15 -50.0 Q16.65 -49.9 16.8 -49.4" fill="#ffcc00" fill-rule="evenodd" stroke="none"/>
      <path d="M-46.7 14.65 Q-48.75 13.9 -49.65 11.6 -50.5 9.2 -49.7 6.7 -48.9 4.05 -46.85 2.85 -44.8 1.7 -42.75 2.45 -40.6 3.25 -39.7 5.65 -38.85 7.95 -39.7 10.5 -40.5 13.1 -42.5 14.35 -44.6 15.55 -46.7 14.65" fill="#4f2d0b" fill-opacity="0.4509804" fill-rule="evenodd" stroke="none"/>
      <path d="M-48.65 7.15 Q-47.95 5.05 -46.35 4.1 -44.7 3.05 -43.05 3.8 -41.3 4.4 -40.6 6.35 -39.85 8.2 -40.5 10.25 -41.15 12.3 -42.85 13.3 -44.5 14.35 -46.2 13.6 -47.9 13.0 -48.6 11.1 -49.3 9.2 -48.65 7.15" fill="#683c0f" fill-rule="evenodd" stroke="none"/>
      <path d="M-48.65 7.15 Q-47.95 5.05 -46.35 4.1 -44.7 3.05 -43.05 3.8 -41.3 4.4 -40.6 6.35 -39.85 8.2 -40.5 10.25 -41.15 12.3 -42.85 13.3 -44.5 14.35 -46.2 13.6 -47.9 13.0 -48.6 11.1 -49.3 9.2 -48.65 7.15 Z" fill="none" stroke="#000000" stroke-linecap="round" stroke-linejoin="round" stroke-opacity="0.3019608" stroke-width="0.05"/>
      <path d="M-45.25 8.95 Q-45.9 7.55 -45.8 6.2 -45.6 4.75 -44.8 4.15 -43.95 3.6 -42.9 4.15 -41.8 4.7 -41.2 6.1 -40.55 7.45 -40.7 8.8 -40.8 10.25 -41.6 10.85 -42.5 11.4 -43.5 10.85 -44.55 10.3 -45.25 8.95" fill="#a55e17" fill-rule="evenodd" stroke="none"/>
      <path d="M-43.5 5.1 Q-43.05 5.25 -42.7 5.85 -42.3 6.45 -42.2 7.1 -42.15 7.8 -42.45 8.2 -42.7 8.55 -43.2 8.35 L-44.0 7.6 -44.5 6.35 Q-44.55 5.6 -44.25 5.25 -44.0 4.9 -43.5 5.1" fill="#ffcc00" fill-rule="evenodd" stroke="none"/>
      <path d="M-15.45 1.45 L-9.7 4.95" fill="none" stroke="url(#gradient7)" stroke-linecap="round" stroke-linejoin="round" stroke-width="0.05"/>
      <path d="M-42.65 -13.1 Q-42.55 -10.2 -41.9 -7.7 -40.85 -5.25 -39.1 -3.1 -34.0 -0.65 -27.75 -1.85 L-25.8 -2.35 Q-21.3 -3.8 -17.5 -6.85 -20.55 1.55 -22.15 11.25 L-22.5 13.65 -29.35 17.8 -31.85 17.75 -32.15 17.75 -37.6 17.0 -42.6 15.2 -43.25 14.9 Q-46.95 13.25 -50.05 10.85 L-52.7 8.65 -53.95 7.45 -55.1 6.4 Q-53.55 -3.35 -42.15 -17.9 -42.6 -15.55 -42.65 -13.1" fill="#000000" fill-opacity="0.3019608" fill-rule="evenodd" stroke="none"/>
      <path d="M-39.4 -16.2 Q-40.05 -18.7 -40.15 -21.6 -40.05 -29.45 -34.1 -36.25 -28.15 -43.05 -19.9 -44.8 -15.25 -45.75 -11.75 -44.85 -10.75 -42.35 -10.75 -39.3 -11.05 -31.6 -17.0 -24.8 -22.95 -18.0 -31.0 -16.1 -35.45 -15.2 -39.4 -16.2" fill="#1a2426" fill-rule="evenodd" stroke="none"/>
      <path d="M-11.75 -44.85 L-11.6 -44.7 Q-10.0 -44.35 -8.65 -43.65 -4.9 -39.7 -5.0 -33.55 -5.25 -25.85 -11.2 -19.05 -17.15 -12.25 -25.25 -10.35 -31.5 -9.15 -36.6 -11.6 -38.35 -13.75 -39.4 -16.2 -35.45 -15.2 -31.0 -16.1 -22.95 -18.0 -17.0 -24.8 -11.05 -31.6 -10.75 -39.3 -10.75 -42.35 -11.75 -44.85" fill="#11181a" fill-rule="evenodd" stroke="none"/>
      <path d="M-38.85 -13.0 L-39.25 -13.3 Q-41.85 -15.25 -43.25 -17.7 -44.9 -20.9 -44.8 -25.05 L-44.6 -28.3 -39.65 -26.55 Q-40.1 -24.1 -40.15 -21.6 -40.05 -18.7 -39.4 -16.2 -38.35 -13.75 -36.6 -11.6 L-38.15 -12.5 -38.85 -13.0" fill="#779aa2" fill-rule="evenodd" stroke="none"/>
      <path d="M8.0 -26.8 Q5.3 -19.15 -0.55 -12.05 L-0.6 -11.95 -0.65 -11.95 Q-7.05 -4.25 -14.85 0.0 L-14.95 0.05 -16.25 0.8 Q-20.9 3.05 -25.95 4.25 -34.45 6.1 -41.7 4.45 L-45.15 3.15 Q-46.35 2.55 -47.65 1.85 L-50.1 0.0 -51.45 -1.05 Q-56.1 -5.05 -58.35 -10.45 -60.45 -15.65 -60.4 -22.1 -60.4 -29.45 -57.4 -36.5 -54.85 -42.15 -50.4 -47.5 L-49.35 -48.75 Q-38.6 -61.05 -23.5 -64.35 L-18.7 -65.05 Q-11.7 -65.65 -5.8 -63.6 L-8.05 -63.5 -11.65 -62.95 Q-23.0 -60.5 -31.1 -51.25 L-31.9 -50.3 -34.6 -46.65 Q-38.45 -44.5 -41.55 -40.8 L-41.8 -40.45 Q-46.1 -35.15 -46.8 -29.3 L-46.85 -26.05 Q-46.8 -21.9 -45.0 -18.7 -43.5 -16.25 -40.85 -14.3 L-38.85 -13.0 -38.15 -12.5 -36.6 -11.6 Q-31.5 -9.15 -25.25 -10.35 L-23.3 -10.85 Q-18.75 -10.25 -13.5 -11.4 -9.7 -12.3 -6.2 -14.0 L-5.25 -14.55 -5.15 -14.6 Q0.7 -17.8 5.5 -23.6 L5.55 -23.6 5.6 -23.65 8.0 -26.8" fill="#61838c" fill-rule="evenodd" stroke="none"/>
      <path d="M12.15 -33.4 L12.4 -35.95 12.45 -37.35 Q12.4 -42.45 10.85 -46.75 9.3 -51.55 6.0 -55.45 5.25 -56.6 4.1 -57.45 L1.85 -59.45 6.65 -55.95 7.4 -55.25 7.7 -55.05 8.65 -54.1 Q11.3 -51.45 13.05 -48.8 L13.75 -47.65 15.55 -43.85 15.6 -43.65 Q17.15 -39.35 17.25 -33.75 L16.8 -28.75 12.15 -33.4" fill="#8cb2bd" fill-rule="evenodd" stroke="none"/>
      <path d="M-17.05 -48.35 Q-14.65 -47.85 -12.6 -46.55 L-11.0 -45.7 -10.85 -45.55 -8.65 -43.65 -11.4 -44.65 -11.6 -44.7 -11.75 -44.85 -11.9 -44.85 Q-15.35 -45.75 -19.9 -44.8 -28.15 -43.05 -34.1 -36.25 L-34.3 -36.0 Q-37.65 -32.1 -39.2 -27.8 L-39.65 -26.55 -44.6 -28.3 Q-43.7 -34.15 -39.15 -39.45 L-38.9 -39.8 -37.4 -41.35 Q-31.95 -46.8 -24.55 -48.25 -20.5 -49.1 -17.1 -48.35 L-17.05 -48.35" fill="#8cbacc" fill-rule="evenodd" stroke="none"/>
      <path d="M-34.6 -46.65 Q-31.35 -48.5 -27.55 -49.25 -21.65 -50.5 -17.05 -48.35 L-17.1 -48.35 Q-20.5 -49.1 -24.55 -48.25 -31.95 -46.8 -37.4 -41.35 L-38.9 -39.8 -39.15 -39.45 Q-43.7 -34.15 -44.6 -28.3 L-44.8 -25.05 Q-44.9 -20.9 -43.25 -17.7 -41.85 -15.25 -39.25 -13.3 L-38.85 -13.0 -40.85 -14.3 Q-43.5 -16.25 -45.0 -18.7 -46.8 -21.9 -46.85 -26.05 L-46.8 -29.3 Q-46.1 -35.15 -41.8 -40.45 L-41.55 -40.8 Q-38.45 -44.5 -34.6 -46.65" fill="#4e6773" fill-rule="evenodd" stroke="none"/>
      <path d="M-41.7 4.45 Q-33.9 6.75 -24.45 4.9 -19.35 3.85 -14.7 1.65 L-13.35 1.0 -13.25 0.95 -9.25 4.95 -10.4 5.5 Q-14.85 7.5 -19.65 8.5 L-29.35 9.25 -29.65 9.25 -35.1 8.5 -40.1 6.7 -40.75 6.4 Q-44.45 4.75 -47.55 2.35 L-50.2 0.15 -51.45 -1.05 -50.1 0.0 -47.65 1.85 Q-46.35 2.55 -45.15 3.15 L-41.7 4.45" fill="#304047" fill-rule="evenodd" stroke="none"/>
      <path d="M-13.25 0.95 Q-6.8 -2.45 -1.2 -8.05 L3.0 -3.85 Q-2.7 1.7 -9.25 4.95 L-13.25 0.95" fill="#3b4e59" fill-rule="evenodd" stroke="none"/>
      <path d="M8.0 -26.8 Q9.4 -30.95 9.9 -35.3 L10.15 -39.3 Q10.0 -44.45 8.35 -48.8 6.7 -53.65 3.35 -57.6 L1.4 -59.55 0.45 -60.45 1.8 -59.5 1.85 -59.45 4.1 -57.45 Q5.25 -56.6 6.0 -55.45 9.3 -51.55 10.85 -46.75 12.4 -42.45 12.45 -37.35 L12.4 -35.95 12.15 -33.4 11.05 -28.15 Q8.45 -19.0 1.25 -10.75 L1.2 -10.65 1.15 -10.65 -1.2 -8.05 Q-6.8 -2.45 -13.25 0.95 L-13.35 1.0 -14.7 1.65 Q-19.35 3.85 -24.45 4.9 -33.9 6.75 -41.7 4.45 -34.45 6.1 -25.95 4.25 -20.9 3.05 -16.25 0.8 L-14.95 0.05 -14.85 0.0 Q-7.05 -4.25 -0.65 -11.95 L-0.6 -11.95 -0.55 -12.05 Q5.3 -19.15 8.0 -26.8" fill="#91bac7" fill-rule="evenodd" stroke="none"/>
      <path d="M0.45 -60.45 L1.4 -59.55 3.35 -57.6 Q6.7 -53.65 8.35 -48.8 10.0 -44.45 10.15 -39.3 L9.9 -35.3 Q9.4 -30.95 8.0 -26.8 L5.6 -23.65 5.55 -23.6 5.5 -23.6 Q0.7 -17.8 -5.15 -14.6 L-5.25 -14.55 -6.2 -14.0 Q-9.7 -12.3 -13.5 -11.4 -18.75 -10.25 -23.3 -10.85 -16.45 -13.05 -11.2 -19.05 L-10.95 -19.3 Q-5.25 -26.0 -5.15 -33.35 L-5.0 -33.55 Q-4.9 -39.7 -8.65 -43.65 L-10.85 -45.55 -11.0 -45.7 -12.6 -46.55 Q-14.65 -47.85 -17.05 -48.35 -21.65 -50.5 -27.55 -49.25 -31.35 -48.5 -34.6 -46.65 L-31.9 -50.3 -31.1 -51.25 Q-23.0 -60.5 -11.65 -62.95 L-8.05 -63.5 -5.8 -63.6 Q-2.55 -62.45 0.45 -60.45" fill="#698e99" fill-rule="evenodd" stroke="none"/>
      <path d="M1.2 -10.65 L1.25 -10.75 Q8.45 -19.0 11.05 -28.15 L15.6 -23.65 Q12.9 -15.0 6.05 -7.15 L5.45 -6.4 1.2 -10.65" fill="#7898a3" fill-rule="evenodd" stroke="none"/>
      <path d="M11.05 -28.15 L12.15 -33.4 16.8 -28.75 15.6 -23.65 11.05 -28.15" fill="#84a6b3" fill-rule="evenodd" stroke="none"/>
      <path d="M-1.2 -8.05 L1.15 -10.65 1.2 -10.65 5.45 -6.4 3.0 -3.85 -1.2 -8.05" fill="#445866" fill-rule="evenodd" stroke="none"/>
      <path d="M11.0 -42.05 Q13.45 -28.65 4.55 -15.7 -4.3 -2.75 -19.5 2.25 -33.85 7.55 -46.5 1.05 -58.75 -4.6 -61.6 -17.8 -64.15 -31.35 -55.15 -44.0 -46.8 -57.25 -31.6 -62.75 -15.9 -68.1 -3.8 -61.75 8.6 -55.95 11.0 -42.05" fill="url(#gradient8)" fill-rule="evenodd" stroke="none"/>
      <path d="M-26.2 -9.95 Q-31.3 -10.5 -34.2 -13.85 L-34.95 -14.7 Q-37.5 -18.7 -36.2 -24.35 -35.35 -31.15 -30.0 -35.5 -24.55 -39.7 -17.85 -40.4 -12.9 -40.8 -9.25 -38.35 L-7.4 -36.65 Q-5.75 -34.25 -5.0 -31.3 L-5.2 -27.3 Q-7.15 -21.0 -13.15 -15.95 -18.75 -10.6 -26.2 -9.95" fill="#e3faee" fill-rule="evenodd" stroke="none"/>
      <path d="M-26.2 -9.95 Q-31.9 -10.05 -35.45 -12.4 L-37.45 -14.5 Q-41.7 -18.9 -39.9 -26.2 -38.85 -33.8 -32.95 -38.5 -26.65 -43.4 -19.5 -43.7 -12.45 -44.3 -7.7 -39.85 L-6.75 -38.6 Q-5.1 -35.85 -5.0 -31.3 -5.75 -34.25 -7.4 -36.65 L-9.25 -38.35 Q-12.9 -40.8 -17.85 -40.4 -24.55 -39.7 -30.0 -35.5 -35.35 -31.15 -36.2 -24.35 -37.5 -18.7 -34.95 -14.7 L-34.2 -13.85 Q-31.3 -10.5 -26.2 -9.95" fill="#bff2d3" fill-rule="evenodd" stroke="none"/>
      <path d="M-24.2 -18.95 Q-24.2 -20.9 -22.2 -23.75 -20.05 -26.5 -17.5 -28.65 -14.7 -30.55 -12.7 -30.7 -10.5 -30.7 -10.55 -28.75 -11.3 -26.7 -13.15 -23.95 -15.4 -20.95 -17.65 -19.2 -20.5 -17.05 -22.55 -16.9 -24.65 -16.8 -24.2 -18.95" fill="#ffffff" fill-rule="evenodd" stroke="none"/>
      <path d="M3.85 -28.15 Q0.4 -16.45 -10.4 -8.7 -21.3 -1.05 -33.35 -1.8 -45.3 -2.5 -51.35 -11.15 -57.4 -19.85 -54.0 -31.55 -50.55 -43.2 -39.6 -50.85 -28.75 -58.6 -16.8 -57.9 -4.75 -57.2 1.3 -48.45 7.3 -39.8 3.85 -28.15 Z" fill="none" stroke="url(#gradient9)" stroke-linecap="round" stroke-linejoin="round" stroke-width="3.0"/>
      <path d="M2.8 -28.2 Q-0.8 -16.7 -11.35 -9.1 -22.0 -1.55 -33.55 -2.3 -44.95 -3.0 -50.55 -11.5 -56.1 -20.05 -52.55 -31.55 -48.95 -43.0 -38.25 -50.5 -27.65 -58.1 -16.2 -57.4 -4.7 -56.75 0.9 -48.15 6.4 -39.65 2.8 -28.2 Z" fill="none" stroke="url(#gradient10)" stroke-linecap="round" stroke-linejoin="round" stroke-width="1.0"/>
      <path d="M7.4 -55.25 L7.7 -55.05 8.65 -54.1 9.3 -53.4 15.2 -54.05 21.15 -53.7 Q26.25 -53.0 30.8 -50.6 L42.85 -43.8 43.1 -43.65 45.8 -41.95 46.4 -41.45 Q58.2 -32.5 55.7 -12.95 54.25 -1.55 48.4 9.65 46.0 14.2 42.9 18.75 L37.75 25.5 Q33.0 31.35 27.85 36.05 16.6 46.35 3.5 51.05 -9.7 55.85 -19.45 53.05 L-21.7 52.25 -40.1 41.2 -40.2 41.15 -48.6 36.0 Q-57.95 26.75 -55.65 9.0 -54.95 3.15 -53.05 -2.55 -56.5 -6.05 -58.35 -10.45 -60.45 -15.65 -60.4 -22.1 -60.4 -29.45 -57.4 -36.5 -54.85 -42.15 -50.4 -47.5 L-49.35 -48.75 Q-38.6 -61.05 -23.5 -64.35 L-18.7 -65.05 Q-11.7 -65.65 -5.8 -63.6 -2.55 -62.45 0.45 -60.45 L1.8 -59.5 1.85 -59.45 6.65 -55.95 7.4 -55.25 Z" fill="none" stroke="#000000" stroke-linecap="round" stroke-linejoin="round" stroke-opacity="0.3019608" stroke-width="1.0"/>
    </g>
    <linearGradient gradientTransform="matrix(1.0, 0.0, 0.0, 1.0, -313.65, -640.75)" gradientUnits="userSpaceOnUse" id="gradient0" spreadMethod="pad" x1="-819.2" x2="819.2">
      <stop offset="0.0" stop-color="#465e66"/>
      <stop offset="1.0" stop-color="#232e32"/>
    </linearGradient>
    <linearGradient gradientTransform="matrix(-0.0084, 0.1021, -0.0611, -0.0051, -20.0, 63.9)" gradientUnits="userSpaceOnUse" id="gradient1" spreadMethod="pad" x1="-819.2" x2="819.2">
      <stop offset="0.0" stop-color="#465e66"/>
      <stop offset="1.0" stop-color="#202b2f"/>
    </linearGradient>
    <linearGradient gradientTransform="matrix(0.0131, -0.0262, 0.0227, 0.0114, 10.0, 1.55)" gradientUnits="userSpaceOnUse" id="gradient2" spreadMethod="pad" x1="-819.2" x2="819.2">
      <stop offset="0.0" stop-color="#a55e17"/>
      <stop offset="1.0" stop-color="#341e07"/>
    </linearGradient>
    <linearGradient gradientTransform="matrix(0.0131, -0.0262, 0.0227, 0.0114, 10.0, 1.55)" gradientUnits="userSpaceOnUse" id="gradient3" spreadMethod="pad" x1="-819.2" x2="819.2">
      <stop offset="0.0" stop-color="#bf6d1a"/>
      <stop offset="1.0" stop-color="#341e07"/>
    </linearGradient>
    <linearGradient gradientTransform="matrix(0.0131, -0.0262, 0.0227, 0.0114, 10.0, 1.55)" gradientUnits="userSpaceOnUse" id="gradient4" spreadMethod="pad" x1="-819.2" x2="819.2">
      <stop offset="0.0" stop-color="#ba6a1a"/>
      <stop offset="1.0" stop-color="#341e07"/>
    </linearGradient>
    <linearGradient gradientTransform="matrix(-0.0137, 0.0224, -0.0372, -0.0228, 17.15, -19.7)" gradientUnits="userSpaceOnUse" id="gradient5" spreadMethod="pad" x1="-819.2" x2="819.2">
      <stop offset="0.0" stop-color="#1a2226"/>
      <stop offset="1.0" stop-color="#1a2126" stop-opacity="0.0"/>
    </linearGradient>
    <linearGradient gradientTransform="matrix(0.0278, -0.0219, 0.0269, 0.0342, 0.95, 35.85)" gradientUnits="userSpaceOnUse" id="gradient6" spreadMethod="pad" x1="-819.2" x2="819.2">
      <stop offset="0.0" stop-color="#ffcc00"/>
      <stop offset="1.0" stop-color="#ffcc00" stop-opacity="0.0"/>
    </linearGradient>
    <linearGradient gradientTransform="matrix(0.0035, 0.0, 0.0, 0.0021, -12.6, 3.2)" gradientUnits="userSpaceOnUse" id="gradient7" spreadMethod="pad" x1="-819.2" x2="819.2">
      <stop offset="0.00784313725490196" stop-color="#de8d1f" stop-opacity="0.0"/>
      <stop offset="0.5019607843137255" stop-color="#de8d1f"/>
      <stop offset="1.0" stop-color="#de8d1f"/>
    </linearGradient>
    <radialGradient cx="0" cy="0" gradientTransform="matrix(-0.0371, -0.0178, -0.0263, 0.0387, -25.05, -30.15)" gradientUnits="userSpaceOnUse" id="gradient8" r="819.2" spreadMethod="pad">
      <stop offset="0.43137254901960786" stop-color="#66ffff" stop-opacity="0.52156866"/>
      <stop offset="1.0" stop-color="#66ffff" stop-opacity="0.0"/>
    </radialGradient>
    <linearGradient gradientTransform="matrix(0.0321, -0.018, 0.0168, 0.0299, -22.55, -31.1)" gradientUnits="userSpaceOnUse" id="gradient9" spreadMethod="pad" x1="-819.2" x2="819.2">
      <stop offset="0.0" stop-color="#de8d1f"/>
      <stop offset="1.0" stop-color="#ffcc00"/>
    </linearGradient>
    <linearGradient gradientTransform="matrix(0.0396, -0.0364, 0.022, 0.0252, -41.0, -15.05)" gradientUnits="userSpaceOnUse" id="gradient10" spreadMethod="pad" x1="-819.2" x2="819.2">
      <stop offset="0.0" stop-color="#683c0f"/>
      <stop offset="1.0" stop-color="#693c0e" stop-opacity="0.0"/>
    </linearGradient>
  </defs>
</svg>
