<?xml version="1.0" encoding="UTF-8" standalone="no"?>
<svg xmlns:xlink="http://www.w3.org/1999/xlink" height="440.0px" width="440.0px" xmlns="http://www.w3.org/2000/svg">
  <g transform="matrix(10.0, 0.0, 0.0, 10.0, 0.0, 0.0)">
    <use height="44.0" transform="matrix(1.0, 0.0, 0.0, 1.0, 0.0, 0.0)" width="44.0" xlink:href="#shape0"/>
    <use height="33.15" transform="matrix(1.0681, 0.0, 0.0, 1.0, 4.2364, 7.7)" width="35.25" xlink:href="#sprite0"/>
    <use height="33.55" transform="matrix(1.0, 0.0, 0.0, 1.0, 3.6, 3.4)" width="36.3" xlink:href="#shape2"/>
    <use height="65.0" transform="matrix(0.2997, 0.1607, -0.1073, 0.215, 6.9961, 16.4422)" width="65.0" xlink:href="#sprite1"/>
    <use height="37.95" transform="matrix(1.0, 0.0, 0.0, 1.0, 3.35, 3.15)" width="38.75" xlink:href="#shape4"/>
  </g>
  <defs>
    <g id="shape0" transform="matrix(1.0, 0.0, 0.0, 1.0, 0.0, 0.0)">
      <path d="M44.0 44.0 L0.0 44.0 0.0 0.0 44.0 0.0 44.0 44.0" fill="#43adca" fill-opacity="0.0" fill-rule="evenodd" stroke="none"/>
    </g>
    <g id="sprite0" transform="matrix(1.0, 0.0, 0.0, 1.0, 0.2, 0.0)">
      <use height="33.15" transform="matrix(1.0, 0.0, 0.0, 1.0, -0.2, 0.0)" width="35.25" xlink:href="#shape1"/>
    </g>
    <g id="shape1" transform="matrix(1.0, 0.0, 0.0, 1.0, 0.2, 0.0)">
      <path d="M27.55 6.15 Q27.0 6.7 26.75 7.35 26.6 7.85 26.6 8.4 26.6 9.7 27.55 10.65 L28.75 11.4 29.8 11.55 Q31.1 11.55 31.95 10.65 L32.0 10.65 32.35 10.2 Q32.95 9.4 32.95 8.4 32.95 7.1 32.0 6.15 31.1 5.25 29.8 5.25 28.95 5.25 28.25 5.6 L28.15 5.7 Q27.8 5.85 27.55 6.15" fill="url(#gradient0)" fill-rule="evenodd" stroke="none"/>
      <path d="M27.55 6.15 Q27.0 6.7 26.75 7.35 26.6 7.85 26.6 8.4 26.6 9.7 27.55 10.65 L28.75 11.4 29.8 11.55 Q31.1 11.55 31.95 10.65 L32.0 10.65 32.35 10.2 Q32.95 9.4 32.95 8.4 32.95 7.1 32.0 6.15 31.1 5.25 29.8 5.25 28.95 5.25 28.25 5.6 L28.15 5.7 Q27.8 5.85 27.55 6.15 Z" fill="none" stroke="#000000" stroke-linecap="round" stroke-linejoin="round" stroke-opacity="0.3019608" stroke-width="0.05"/>
      <path d="M30.65 7.85 Q30.9 8.15 31.25 8.15 L31.95 7.85 32.25 7.2 31.95 6.5 31.25 6.25 30.65 6.5 Q30.3 6.85 30.3 7.2 30.3 7.6 30.65 7.85" fill="#8b938f" fill-opacity="0.5921569" fill-rule="evenodd" stroke="none"/>
      <path d="M29.8 9.85 Q29.4 10.05 29.1 10.35 28.5 10.95 28.25 11.75 28.1 12.25 28.1 12.85 28.1 14.3 29.1 15.3 29.7 15.9 30.45 16.15 L31.55 16.35 Q33.0 16.35 34.0 15.35 L34.05 15.3 34.4 14.8 Q35.05 13.95 35.05 12.85 35.05 11.4 34.05 10.35 33.0 9.35 31.55 9.35 30.6 9.35 29.9 9.8 L29.8 9.85" fill="url(#gradient1)" fill-rule="evenodd" stroke="none"/>
      <path d="M29.8 9.85 Q29.4 10.05 29.1 10.35 28.5 10.95 28.25 11.75 28.1 12.25 28.1 12.85 28.1 14.3 29.1 15.3 29.7 15.9 30.45 16.15 L31.55 16.35 Q33.0 16.35 34.0 15.35 L34.05 15.3 34.4 14.8 Q35.05 13.95 35.05 12.85 35.05 11.4 34.05 10.35 33.0 9.35 31.55 9.35 30.6 9.35 29.9 9.8 L29.8 9.85 Z" fill="none" stroke="#000000" stroke-linecap="round" stroke-linejoin="round" stroke-opacity="0.3019608" stroke-width="0.05"/>
      <path d="M33.65 11.15 L33.2 11.0 32.6 11.2 Q32.35 11.45 32.35 11.85 L32.6 12.4 Q32.85 12.65 33.2 12.65 L33.75 12.4 34.05 11.85 Q34.1 11.4 33.65 11.15" fill="#8b938f" fill-opacity="0.5921569" fill-rule="evenodd" stroke="none"/>
      <path d="M21.45 25.85 Q20.9 26.45 20.65 27.15 L20.45 28.25 Q20.45 29.65 21.45 30.7 22.05 31.25 22.8 31.45 L23.85 31.65 Q25.25 31.65 26.2 30.7 L26.25 30.7 26.65 30.2 Q27.25 29.35 27.25 28.25 27.25 26.85 26.25 25.85 25.25 24.9 23.85 24.9 22.95 24.9 22.2 25.3 L22.1 25.4 Q21.75 25.55 21.45 25.85" fill="url(#gradient2)" fill-rule="evenodd" stroke="none"/>
      <path d="M21.45 25.85 Q20.9 26.45 20.65 27.15 L20.45 28.25 Q20.45 29.65 21.45 30.7 22.05 31.25 22.8 31.45 L23.85 31.65 Q25.25 31.65 26.2 30.7 L26.25 30.7 26.65 30.2 Q27.25 29.35 27.25 28.25 27.25 26.85 26.25 25.85 25.25 24.9 23.85 24.9 22.95 24.9 22.2 25.3 L22.1 25.4 Q21.75 25.55 21.45 25.85 Z" fill="none" stroke="#000000" stroke-linecap="round" stroke-linejoin="round" stroke-opacity="0.3019608" stroke-width="0.05"/>
      <path d="M24.8 27.7 Q25.05 28.0 25.45 28.0 L26.2 27.7 26.5 27.0 26.2 26.25 25.45 26.0 Q25.05 26.0 24.8 26.25 24.45 26.6 24.45 27.0 24.45 27.4 24.8 27.7" fill="#8b938f" fill-opacity="0.5921569" fill-rule="evenodd" stroke="none"/>
      <path d="M24.4 1.75 Q24.05 1.9 23.8 2.2 23.2 2.75 22.95 3.5 22.8 4.0 22.8 4.55 22.8 5.9 23.8 6.85 L25.0 7.65 26.1 7.8 Q27.45 7.8 28.35 6.9 L28.4 6.85 28.75 6.35 Q29.35 5.6 29.35 4.55 29.35 3.2 28.4 2.2 27.45 1.25 26.1 1.25 25.2 1.25 24.5 1.7 L24.4 1.75" fill="url(#gradient3)" fill-rule="evenodd" stroke="none"/>
      <path d="M24.4 1.75 Q24.05 1.9 23.8 2.2 23.2 2.75 22.95 3.5 22.8 4.0 22.8 4.55 22.8 5.9 23.8 6.85 L25.0 7.65 26.1 7.8 Q27.45 7.8 28.35 6.9 L28.4 6.85 28.75 6.35 Q29.35 5.6 29.35 4.55 29.35 3.2 28.4 2.2 27.45 1.25 26.1 1.25 25.2 1.25 24.5 1.7 L24.4 1.75 Z" fill="none" stroke="#000000" stroke-linecap="round" stroke-linejoin="round" stroke-opacity="0.3019608" stroke-width="0.05"/>
      <path d="M28.0 3.0 L27.55 2.85 27.0 3.05 26.8 3.65 27.0 4.15 Q27.25 4.45 27.55 4.45 L28.1 4.15 28.35 3.65 Q28.4 3.25 28.0 3.0" fill="#8b938f" fill-opacity="0.5921569" fill-rule="evenodd" stroke="none"/>
      <path d="M18.65 0.95 Q18.1 1.5 17.85 2.15 17.7 2.65 17.7 3.2 17.7 4.5 18.65 5.45 L19.85 6.2 20.9 6.35 Q22.2 6.35 23.05 5.45 L23.1 5.45 23.45 5.0 Q24.05 4.2 24.05 3.2 24.05 1.9 23.1 0.95 22.2 0.05 20.9 0.05 20.05 0.05 19.35 0.4 L19.25 0.5 18.65 0.95" fill="url(#gradient4)" fill-rule="evenodd" stroke="none"/>
      <path d="M18.65 0.95 Q18.1 1.5 17.85 2.15 17.7 2.65 17.7 3.2 17.7 4.5 18.65 5.45 L19.85 6.2 20.9 6.35 Q22.2 6.35 23.05 5.45 L23.1 5.45 23.45 5.0 Q24.05 4.2 24.05 3.2 24.05 1.9 23.1 0.95 22.2 0.05 20.9 0.05 20.05 0.05 19.35 0.4 L19.25 0.5 18.65 0.95 Z" fill="none" stroke="#000000" stroke-linecap="round" stroke-linejoin="round" stroke-opacity="0.3019608" stroke-width="0.05"/>
      <path d="M21.75 2.65 Q22.0 2.95 22.35 2.95 L23.05 2.65 23.35 2.0 23.05 1.3 22.35 1.05 Q22.0 1.05 21.75 1.3 21.4 1.65 21.4 2.0 21.4 2.4 21.75 2.65" fill="#8b938f" fill-opacity="0.5921569" fill-rule="evenodd" stroke="none"/>
      <path d="M14.4 0.5 L13.8 0.95 Q13.2 1.5 12.95 2.25 12.8 2.75 12.8 3.3 12.8 4.65 13.8 5.6 L15.0 6.4 16.1 6.55 Q17.45 6.55 18.35 5.65 L18.4 5.6 18.75 5.1 Q19.35 4.35 19.35 3.3 19.35 1.95 18.4 0.95 17.45 0.0 16.1 0.0 15.2 0.0 14.5 0.45 L14.4 0.5" fill="url(#gradient5)" fill-rule="evenodd" stroke="none"/>
      <path d="M14.4 0.5 L13.8 0.95 Q13.2 1.5 12.95 2.25 12.8 2.75 12.8 3.3 12.8 4.65 13.8 5.6 L15.0 6.4 16.1 6.55 Q17.45 6.55 18.35 5.65 L18.4 5.6 18.75 5.1 Q19.35 4.35 19.35 3.3 19.35 1.95 18.4 0.95 17.45 0.0 16.1 0.0 15.2 0.0 14.5 0.45 L14.4 0.5 Z" fill="none" stroke="#000000" stroke-linecap="round" stroke-linejoin="round" stroke-opacity="0.3019608" stroke-width="0.05"/>
      <path d="M18.0 1.75 L17.55 1.6 Q17.25 1.6 17.0 1.8 L16.8 2.4 17.0 2.9 17.55 3.2 18.1 2.9 18.35 2.4 18.0 1.75" fill="#8b938f" fill-opacity="0.5921569" fill-rule="evenodd" stroke="none"/>
      <path d="M8.55 2.2 L7.75 3.4 Q7.6 3.9 7.6 4.45 7.6 5.75 8.55 6.7 L9.75 7.45 10.8 7.6 Q12.1 7.6 12.95 6.7 L13.0 6.7 13.35 6.25 Q13.95 5.45 13.95 4.45 13.95 3.15 13.0 2.2 12.1 1.3 10.8 1.3 9.95 1.3 9.25 1.65 L9.15 1.75 8.55 2.2" fill="url(#gradient6)" fill-rule="evenodd" stroke="none"/>
      <path d="M8.55 2.2 L7.75 3.4 Q7.6 3.9 7.6 4.45 7.6 5.75 8.55 6.7 L9.75 7.45 10.8 7.6 Q12.1 7.6 12.95 6.7 L13.0 6.7 13.35 6.25 Q13.95 5.45 13.95 4.45 13.95 3.15 13.0 2.2 12.1 1.3 10.8 1.3 9.95 1.3 9.25 1.65 L9.15 1.75 8.55 2.2 Z" fill="none" stroke="#000000" stroke-linecap="round" stroke-linejoin="round" stroke-opacity="0.3019608" stroke-width="0.05"/>
      <path d="M11.65 3.9 Q11.9 4.2 12.25 4.2 L12.95 3.9 13.25 3.25 12.95 2.55 12.25 2.3 Q11.9 2.3 11.65 2.55 11.3 2.9 11.3 3.25 11.3 3.65 11.65 3.9" fill="#8b938f" fill-opacity="0.5921569" fill-rule="evenodd" stroke="none"/>
      <path d="M4.3 3.3 Q3.95 3.45 3.7 3.75 3.1 4.3 2.85 5.05 2.7 5.55 2.7 6.1 2.7 7.45 3.7 8.4 L4.9 9.2 6.0 9.35 Q7.35 9.35 8.25 8.45 L8.3 8.4 8.65 7.9 Q9.25 7.15 9.25 6.1 9.25 4.75 8.3 3.75 7.35 2.8 6.0 2.8 5.1 2.8 4.4 3.25 L4.3 3.3" fill="url(#gradient7)" fill-rule="evenodd" stroke="none"/>
      <path d="M4.3 3.3 Q3.95 3.45 3.7 3.75 3.1 4.3 2.85 5.05 2.7 5.55 2.7 6.1 2.7 7.45 3.7 8.4 L4.9 9.2 6.0 9.35 Q7.35 9.35 8.25 8.45 L8.3 8.4 8.65 7.9 Q9.25 7.15 9.25 6.1 9.25 4.75 8.3 3.75 7.35 2.8 6.0 2.8 5.1 2.8 4.4 3.25 L4.3 3.3 Z" fill="none" stroke="#000000" stroke-linecap="round" stroke-linejoin="round" stroke-opacity="0.3019608" stroke-width="0.05"/>
      <path d="M7.95 4.5 L7.5 4.35 Q7.2 4.35 6.95 4.55 L6.75 5.15 6.95 5.65 Q7.2 5.95 7.5 5.95 L8.05 5.65 8.3 5.15 Q8.35 4.75 7.95 4.5" fill="#8b938f" fill-opacity="0.5921569" fill-rule="evenodd" stroke="none"/>
      <path d="M0.95 8.7 Q0.4 9.25 0.15 9.9 0.0 10.4 0.0 10.95 0.0 12.25 0.95 13.2 1.45 13.7 2.15 13.95 L3.2 14.1 Q4.5 14.1 5.35 13.2 L5.4 13.2 5.75 12.75 Q6.35 11.95 6.35 10.95 6.35 9.65 5.4 8.7 4.5 7.8 3.2 7.8 L1.65 8.15 1.55 8.25 0.95 8.7" fill="url(#gradient8)" fill-rule="evenodd" stroke="none"/>
      <path d="M0.95 8.7 Q0.4 9.25 0.15 9.9 0.0 10.4 0.0 10.95 0.0 12.25 0.95 13.2 1.45 13.7 2.15 13.95 L3.2 14.1 Q4.5 14.1 5.35 13.2 L5.4 13.2 5.75 12.75 Q6.35 11.95 6.35 10.95 6.35 9.65 5.4 8.7 4.5 7.8 3.2 7.8 L1.65 8.15 1.55 8.25 0.95 8.7 Z" fill="none" stroke="#000000" stroke-linecap="round" stroke-linejoin="round" stroke-opacity="0.3019608" stroke-width="0.05"/>
      <path d="M4.05 10.4 Q4.3 10.7 4.65 10.7 L5.35 10.4 5.65 9.75 5.35 9.05 Q5.05 8.8 4.65 8.8 4.3 8.8 4.05 9.05 3.7 9.4 3.7 9.75 3.7 10.15 4.05 10.4" fill="#8b938f" fill-opacity="0.5921569" fill-rule="evenodd" stroke="none"/>
      <path d="M1.4 13.4 L0.8 13.85 Q0.2 14.4 -0.05 15.15 L-0.2 16.2 Q-0.2 17.55 0.8 18.5 L2.0 19.3 3.1 19.45 Q4.45 19.45 5.35 18.55 L5.4 18.5 5.75 18.0 Q6.35 17.25 6.35 16.2 6.35 14.85 5.4 13.85 4.45 12.9 3.1 12.9 2.2 12.9 1.5 13.35 L1.4 13.4" fill="url(#gradient9)" fill-rule="evenodd" stroke="none"/>
      <path d="M1.4 13.4 L0.8 13.85 Q0.2 14.4 -0.05 15.15 L-0.2 16.2 Q-0.2 17.55 0.8 18.5 L2.0 19.3 3.1 19.45 Q4.45 19.45 5.35 18.55 L5.4 18.5 5.75 18.0 Q6.35 17.25 6.35 16.2 6.35 14.85 5.4 13.85 4.45 12.9 3.1 12.9 2.2 12.9 1.5 13.35 L1.4 13.4 Z" fill="none" stroke="#000000" stroke-linecap="round" stroke-linejoin="round" stroke-opacity="0.3019608" stroke-width="0.05"/>
      <path d="M5.0 14.6 L4.55 14.45 4.0 14.65 3.8 15.25 4.0 15.75 Q4.25 16.05 4.55 16.05 L5.1 15.75 5.35 15.25 5.0 14.6" fill="#8b938f" fill-opacity="0.5921569" fill-rule="evenodd" stroke="none"/>
      <path d="M2.2 19.5 Q1.65 20.05 1.4 20.7 1.25 21.2 1.25 21.75 1.25 23.05 2.2 24.0 2.7 24.5 3.4 24.75 L4.45 24.9 Q5.75 24.9 6.6 24.0 L6.65 24.0 7.0 23.55 Q7.6 22.75 7.6 21.75 7.6 20.45 6.65 19.5 5.75 18.6 4.45 18.6 3.6 18.6 2.9 18.95 L2.8 19.05 Q2.45 19.2 2.2 19.5" fill="url(#gradient10)" fill-rule="evenodd" stroke="none"/>
      <path d="M2.2 19.5 Q1.65 20.05 1.4 20.7 1.25 21.2 1.25 21.75 1.25 23.05 2.2 24.0 2.7 24.5 3.4 24.75 L4.45 24.9 Q5.75 24.9 6.6 24.0 L6.65 24.0 7.0 23.55 Q7.6 22.75 7.6 21.75 7.6 20.45 6.65 19.5 5.75 18.6 4.45 18.6 3.6 18.6 2.9 18.95 L2.8 19.05 Q2.45 19.2 2.2 19.5 Z" fill="none" stroke="#000000" stroke-linecap="round" stroke-linejoin="round" stroke-opacity="0.3019608" stroke-width="0.05"/>
      <path d="M5.3 21.2 Q5.55 21.5 5.9 21.5 L6.6 21.2 6.9 20.55 6.6 19.85 Q6.3 19.6 5.9 19.6 L5.3 19.85 Q4.95 20.2 4.95 20.55 4.95 20.95 5.3 21.2" fill="#8b938f" fill-opacity="0.5921569" fill-rule="evenodd" stroke="none"/>
      <path d="M5.65 23.1 Q5.3 23.25 5.05 23.55 4.45 24.1 4.2 24.85 4.05 25.35 4.05 25.9 4.05 27.25 5.05 28.2 L6.25 29.0 7.35 29.15 Q8.7 29.15 9.6 28.25 L9.65 28.2 10.0 27.7 Q10.6 26.95 10.6 25.9 10.6 24.55 9.65 23.55 8.7 22.6 7.35 22.6 6.45 22.6 5.75 23.05 L5.65 23.1" fill="url(#gradient11)" fill-rule="evenodd" stroke="none"/>
      <path d="M5.65 23.1 Q5.3 23.25 5.05 23.55 4.45 24.1 4.2 24.85 4.05 25.35 4.05 25.9 4.05 27.25 5.05 28.2 L6.25 29.0 7.35 29.15 Q8.7 29.15 9.6 28.25 L9.65 28.2 10.0 27.7 Q10.6 26.95 10.6 25.9 10.6 24.55 9.65 23.55 8.7 22.6 7.35 22.6 6.45 22.6 5.75 23.05 L5.65 23.1 Z" fill="none" stroke="#000000" stroke-linecap="round" stroke-linejoin="round" stroke-opacity="0.3019608" stroke-width="0.05"/>
      <path d="M9.25 24.35 L8.8 24.2 8.25 24.4 8.05 25.0 8.25 25.5 8.8 25.8 9.35 25.5 9.6 25.0 Q9.65 24.6 9.25 24.35" fill="#8b938f" fill-opacity="0.5921569" fill-rule="evenodd" stroke="none"/>
      <path d="M10.2 26.25 Q9.65 26.8 9.4 27.45 L9.25 28.5 Q9.25 29.8 10.2 30.75 10.7 31.25 11.4 31.5 L12.45 31.65 Q13.75 31.65 14.6 30.75 L14.65 30.75 15.0 30.3 Q15.6 29.5 15.6 28.5 15.6 27.2 14.65 26.25 13.75 25.35 12.45 25.35 L10.9 25.7 10.8 25.8 10.2 26.25" fill="url(#gradient12)" fill-rule="evenodd" stroke="none"/>
      <path d="M10.2 26.25 Q9.65 26.8 9.4 27.45 L9.25 28.5 Q9.25 29.8 10.2 30.75 10.7 31.25 11.4 31.5 L12.45 31.65 Q13.75 31.65 14.6 30.75 L14.65 30.75 15.0 30.3 Q15.6 29.5 15.6 28.5 15.6 27.2 14.65 26.25 13.75 25.35 12.45 25.35 L10.9 25.7 10.8 25.8 10.2 26.25 Z" fill="none" stroke="#000000" stroke-linecap="round" stroke-linejoin="round" stroke-opacity="0.3019608" stroke-width="0.05"/>
      <path d="M13.3 27.95 Q13.55 28.25 13.9 28.25 L14.6 27.95 14.9 27.3 14.6 26.6 Q14.3 26.35 13.9 26.35 13.55 26.35 13.3 26.6 12.95 26.95 12.95 27.3 12.95 27.7 13.3 27.95" fill="#8b938f" fill-opacity="0.5921569" fill-rule="evenodd" stroke="none"/>
      <path d="M16.4 27.1 L15.8 27.55 Q15.2 28.1 14.95 28.85 14.8 29.35 14.8 29.9 14.8 31.25 15.8 32.2 L17.0 33.0 18.1 33.15 Q19.45 33.15 20.35 32.25 L20.4 32.2 20.75 31.7 Q21.35 30.95 21.35 29.9 21.35 28.55 20.4 27.55 19.45 26.6 18.1 26.6 17.2 26.6 16.5 27.05 L16.4 27.1" fill="url(#gradient13)" fill-rule="evenodd" stroke="none"/>
      <path d="M16.4 27.1 L15.8 27.55 Q15.2 28.1 14.95 28.85 14.8 29.35 14.8 29.9 14.8 31.25 15.8 32.2 L17.0 33.0 18.1 33.15 Q19.45 33.15 20.35 32.25 L20.4 32.2 20.75 31.7 Q21.35 30.95 21.35 29.9 21.35 28.55 20.4 27.55 19.45 26.6 18.1 26.6 17.2 26.6 16.5 27.05 L16.4 27.1 Z" fill="none" stroke="#000000" stroke-linecap="round" stroke-linejoin="round" stroke-opacity="0.3019608" stroke-width="0.05"/>
      <path d="M20.05 28.3 L19.6 28.15 19.05 28.35 18.85 28.95 19.05 29.45 19.6 29.75 20.15 29.45 20.4 28.95 Q20.45 28.55 20.05 28.3" fill="#8b938f" fill-opacity="0.5921569" fill-rule="evenodd" stroke="none"/>
      <path d="M26.95 22.0 Q26.6 22.15 26.35 22.45 25.75 23.0 25.5 23.75 L25.35 24.8 Q25.35 26.15 26.35 27.1 L27.55 27.9 28.65 28.05 Q30.0 28.05 30.9 27.15 L30.95 27.1 31.3 26.6 Q31.9 25.85 31.9 24.8 31.9 23.45 30.95 22.45 30.0 21.5 28.65 21.5 27.75 21.5 27.05 21.95 L26.95 22.0" fill="url(#gradient14)" fill-rule="evenodd" stroke="none"/>
      <path d="M26.95 22.0 Q26.6 22.15 26.35 22.45 25.75 23.0 25.5 23.75 L25.35 24.8 Q25.35 26.15 26.35 27.1 L27.55 27.9 28.65 28.05 Q30.0 28.05 30.9 27.15 L30.95 27.1 31.3 26.6 Q31.9 25.85 31.9 24.8 31.9 23.45 30.95 22.45 30.0 21.5 28.65 21.5 27.75 21.5 27.05 21.95 L26.95 22.0 Z" fill="none" stroke="#000000" stroke-linecap="round" stroke-linejoin="round" stroke-opacity="0.3019608" stroke-width="0.05"/>
      <path d="M30.6 23.2 L30.15 23.05 29.6 23.25 29.4 23.85 29.6 24.35 30.15 24.65 30.7 24.35 30.95 23.85 Q31.0 23.45 30.6 23.2" fill="#8b938f" fill-opacity="0.5921569" fill-rule="evenodd" stroke="none"/>
      <path d="M29.1 16.8 Q28.55 17.4 28.3 18.1 L28.1 19.2 Q28.1 20.6 29.1 21.65 29.7 22.2 30.45 22.4 L31.5 22.6 Q32.9 22.6 33.85 21.65 L33.9 21.65 34.3 21.15 Q34.9 20.3 34.9 19.2 34.9 17.8 33.9 16.8 32.9 15.85 31.5 15.85 L29.85 16.25 29.75 16.35 Q29.4 16.5 29.1 16.8" fill="url(#gradient15)" fill-rule="evenodd" stroke="none"/>
      <path d="M29.1 16.8 Q28.55 17.4 28.3 18.1 L28.1 19.2 Q28.1 20.6 29.1 21.65 29.7 22.2 30.45 22.4 L31.5 22.6 Q32.9 22.6 33.85 21.65 L33.9 21.65 34.3 21.15 Q34.9 20.3 34.9 19.2 34.9 17.8 33.9 16.8 32.9 15.85 31.5 15.85 L29.85 16.25 29.75 16.35 Q29.4 16.5 29.1 16.8 Z" fill="none" stroke="#000000" stroke-linecap="round" stroke-linejoin="round" stroke-opacity="0.3019608" stroke-width="0.05"/>
      <path d="M32.45 18.65 Q32.7 18.95 33.1 18.95 L33.85 18.65 34.15 17.95 33.85 17.2 33.1 16.95 Q32.7 16.95 32.45 17.2 32.1 17.55 32.1 17.95 32.1 18.35 32.45 18.65" fill="#8b938f" fill-opacity="0.5921569" fill-rule="evenodd" stroke="none"/>
    </g>
    <radialGradient cx="0" cy="0" fx="-1552.0" fy="0" gradientTransform="matrix(-0.0048, 0.0, 0.0, 0.0048, 30.65, 7.5)" gradientUnits="userSpaceOnUse" id="gradient0" r="819.2" spreadMethod="pad">
      <stop offset="0.0" stop-color="#2b753b"/>
      <stop offset="0.49411764705882355" stop-color="#1c6a27"/>
      <stop offset="0.788235294117647" stop-color="#114823"/>
      <stop offset="1.0" stop-color="#08230f"/>
    </radialGradient>
    <radialGradient cx="0" cy="0" gradientTransform="matrix(-0.0053, 0.0, 0.0, 0.0053, 32.5, 11.85)" gradientUnits="userSpaceOnUse" id="gradient1" r="819.2" spreadMethod="pad">
      <stop offset="0.0" stop-color="#393f75"/>
      <stop offset="0.49411764705882355" stop-color="#292f6a"/>
      <stop offset="0.788235294117647" stop-color="#181b48"/>
      <stop offset="1.0" stop-color="#0f1123"/>
    </radialGradient>
    <radialGradient cx="0" cy="0" fx="-1552.0" fy="0" gradientTransform="matrix(-0.0052, 0.0, 0.0, 0.0052, 24.8, 27.3)" gradientUnits="userSpaceOnUse" id="gradient2" r="819.2" spreadMethod="pad">
      <stop offset="0.0" stop-color="#2b753b"/>
      <stop offset="0.49411764705882355" stop-color="#1c6a27"/>
      <stop offset="0.788235294117647" stop-color="#114823"/>
      <stop offset="1.0" stop-color="#08230f"/>
    </radialGradient>
    <radialGradient cx="0" cy="0" gradientTransform="matrix(-0.005, 0.0, 0.0, 0.005, 26.95, 3.6)" gradientUnits="userSpaceOnUse" id="gradient3" r="819.2" spreadMethod="pad">
      <stop offset="0.0" stop-color="#393f75"/>
      <stop offset="0.49411764705882355" stop-color="#292f6a"/>
      <stop offset="0.788235294117647" stop-color="#181b48"/>
      <stop offset="1.0" stop-color="#0f1123"/>
    </radialGradient>
    <radialGradient cx="0" cy="0" fx="-1552.0" fy="0" gradientTransform="matrix(-0.0048, 0.0, 0.0, 0.0048, 21.75, 2.3)" gradientUnits="userSpaceOnUse" id="gradient4" r="819.2" spreadMethod="pad">
      <stop offset="0.0" stop-color="#2b753b"/>
      <stop offset="0.49411764705882355" stop-color="#1c6a27"/>
      <stop offset="0.788235294117647" stop-color="#114823"/>
      <stop offset="1.0" stop-color="#08230f"/>
    </radialGradient>
    <radialGradient cx="0" cy="0" gradientTransform="matrix(-0.005, 0.0, 0.0, 0.005, 16.95, 2.35)" gradientUnits="userSpaceOnUse" id="gradient5" r="819.2" spreadMethod="pad">
      <stop offset="0.0" stop-color="#393f75"/>
      <stop offset="0.49411764705882355" stop-color="#292f6a"/>
      <stop offset="0.788235294117647" stop-color="#181b48"/>
      <stop offset="1.0" stop-color="#0f1123"/>
    </radialGradient>
    <radialGradient cx="0" cy="0" fx="-1552.0" fy="0" gradientTransform="matrix(-0.0048, 0.0, 0.0, 0.0048, 11.65, 3.55)" gradientUnits="userSpaceOnUse" id="gradient6" r="819.2" spreadMethod="pad">
      <stop offset="0.0" stop-color="#2b753b"/>
      <stop offset="0.49411764705882355" stop-color="#1c6a27"/>
      <stop offset="0.788235294117647" stop-color="#114823"/>
      <stop offset="1.0" stop-color="#08230f"/>
    </radialGradient>
    <radialGradient cx="0" cy="0" gradientTransform="matrix(-0.005, 0.0, 0.0, 0.005, 6.85, 5.15)" gradientUnits="userSpaceOnUse" id="gradient7" r="819.2" spreadMethod="pad">
      <stop offset="0.0" stop-color="#393f75"/>
      <stop offset="0.49411764705882355" stop-color="#292f6a"/>
      <stop offset="0.788235294117647" stop-color="#181b48"/>
      <stop offset="1.0" stop-color="#0f1123"/>
    </radialGradient>
    <radialGradient cx="0" cy="0" fx="-1552.0" fy="0" gradientTransform="matrix(-0.0048, 0.0, 0.0, 0.0048, 4.05, 10.05)" gradientUnits="userSpaceOnUse" id="gradient8" r="819.2" spreadMethod="pad">
      <stop offset="0.0" stop-color="#2b753b"/>
      <stop offset="0.49411764705882355" stop-color="#1c6a27"/>
      <stop offset="0.788235294117647" stop-color="#114823"/>
      <stop offset="1.0" stop-color="#08230f"/>
    </radialGradient>
    <radialGradient cx="0" cy="0" gradientTransform="matrix(-0.005, 0.0, 0.0, 0.005, 3.95, 15.25)" gradientUnits="userSpaceOnUse" id="gradient9" r="819.2" spreadMethod="pad">
      <stop offset="0.0" stop-color="#393f75"/>
      <stop offset="0.49411764705882355" stop-color="#292f6a"/>
      <stop offset="0.788235294117647" stop-color="#181b48"/>
      <stop offset="1.0" stop-color="#0f1123"/>
    </radialGradient>
    <radialGradient cx="0" cy="0" fx="-1552.0" fy="0" gradientTransform="matrix(-0.0048, 0.0, 0.0, 0.0048, 5.3, 20.85)" gradientUnits="userSpaceOnUse" id="gradient10" r="819.2" spreadMethod="pad">
      <stop offset="0.0" stop-color="#2b753b"/>
      <stop offset="0.49411764705882355" stop-color="#1c6a27"/>
      <stop offset="0.788235294117647" stop-color="#114823"/>
      <stop offset="1.0" stop-color="#08230f"/>
    </radialGradient>
    <radialGradient cx="0" cy="0" gradientTransform="matrix(-0.005, 0.0, 0.0, 0.005, 8.2, 24.95)" gradientUnits="userSpaceOnUse" id="gradient11" r="819.2" spreadMethod="pad">
      <stop offset="0.0" stop-color="#393f75"/>
      <stop offset="0.49411764705882355" stop-color="#292f6a"/>
      <stop offset="0.788235294117647" stop-color="#181b48"/>
      <stop offset="1.0" stop-color="#0f1123"/>
    </radialGradient>
    <radialGradient cx="0" cy="0" fx="-1552.0" fy="0" gradientTransform="matrix(-0.0048, 0.0, 0.0, 0.0048, 13.3, 27.6)" gradientUnits="userSpaceOnUse" id="gradient12" r="819.2" spreadMethod="pad">
      <stop offset="0.0" stop-color="#2b753b"/>
      <stop offset="0.49411764705882355" stop-color="#1c6a27"/>
      <stop offset="0.788235294117647" stop-color="#114823"/>
      <stop offset="1.0" stop-color="#08230f"/>
    </radialGradient>
    <radialGradient cx="0" cy="0" gradientTransform="matrix(-0.005, 0.0, 0.0, 0.005, 18.95, 28.95)" gradientUnits="userSpaceOnUse" id="gradient13" r="819.2" spreadMethod="pad">
      <stop offset="0.0" stop-color="#393f75"/>
      <stop offset="0.49411764705882355" stop-color="#292f6a"/>
      <stop offset="0.788235294117647" stop-color="#181b48"/>
      <stop offset="1.0" stop-color="#0f1123"/>
    </radialGradient>
    <radialGradient cx="0" cy="0" gradientTransform="matrix(-0.005, 0.0, 0.0, 0.005, 29.5, 23.85)" gradientUnits="userSpaceOnUse" id="gradient14" r="819.2" spreadMethod="pad">
      <stop offset="0.0" stop-color="#393f75"/>
      <stop offset="0.49411764705882355" stop-color="#292f6a"/>
      <stop offset="0.788235294117647" stop-color="#181b48"/>
      <stop offset="1.0" stop-color="#0f1123"/>
    </radialGradient>
    <radialGradient cx="0" cy="0" fx="-1552.0" fy="0" gradientTransform="matrix(-0.0052, 0.0, 0.0, 0.0052, 32.45, 18.25)" gradientUnits="userSpaceOnUse" id="gradient15" r="819.2" spreadMethod="pad">
      <stop offset="0.0" stop-color="#2b753b"/>
      <stop offset="0.49411764705882355" stop-color="#1c6a27"/>
      <stop offset="0.788235294117647" stop-color="#114823"/>
      <stop offset="1.0" stop-color="#08230f"/>
    </radialGradient>
    <g id="shape2" transform="matrix(1.0, 0.0, 0.0, 1.0, -3.6, -3.4)">
      <path d="M12.35 9.55 L13.15 10.75 13.3 11.8 Q13.3 13.1 12.35 14.05 L11.15 14.8 10.1 14.95 Q8.8 14.95 7.95 14.05 L7.9 14.05 7.55 13.6 Q6.95 12.8 6.95 11.8 6.95 10.5 7.9 9.55 8.8 8.65 10.1 8.65 10.95 8.65 11.65 9.0 L11.75 9.1 12.35 9.55" fill="url(#gradient16)" fill-rule="evenodd" stroke="none"/>
      <path d="M12.35 9.55 L13.15 10.75 13.3 11.8 Q13.3 13.1 12.35 14.05 L11.15 14.8 10.1 14.95 Q8.8 14.95 7.95 14.05 L7.9 14.05 7.55 13.6 Q6.95 12.8 6.95 11.8 6.95 10.5 7.9 9.55 8.8 8.65 10.1 8.65 10.95 8.65 11.65 9.0 L11.75 9.1 12.35 9.55 Z" fill="none" stroke="#000000" stroke-linecap="round" stroke-linejoin="round" stroke-opacity="0.3019608" stroke-width="0.05"/>
      <path d="M9.25 11.25 Q9.0 11.55 8.65 11.55 L7.95 11.25 Q7.65 11.0 7.65 10.6 7.65 10.25 7.95 9.9 8.25 9.65 8.65 9.65 L9.25 9.9 9.6 10.6 9.25 11.25" fill="#f2fff9" fill-opacity="0.5921569" fill-rule="evenodd" stroke="none"/>
      <path d="M8.85 13.25 L9.55 13.75 10.4 15.15 10.55 16.25 Q10.55 17.7 9.55 18.7 8.95 19.3 8.2 19.55 L7.1 19.75 Q5.65 19.75 4.65 18.75 L4.6 18.7 4.25 18.2 Q3.6 17.35 3.6 16.25 3.6 14.8 4.6 13.75 5.65 12.75 7.1 12.75 8.05 12.75 8.75 13.2 L8.85 13.25" fill="url(#gradient17)" fill-rule="evenodd" stroke="none"/>
      <path d="M8.85 13.25 L9.55 13.75 10.4 15.15 10.55 16.25 Q10.55 17.7 9.55 18.7 8.95 19.3 8.2 19.55 L7.1 19.75 Q5.65 19.75 4.65 18.75 L4.6 18.7 4.25 18.2 Q3.6 17.35 3.6 16.25 3.6 14.8 4.6 13.75 5.65 12.75 7.1 12.75 8.05 12.75 8.75 13.2 L8.85 13.25 Z" fill="none" stroke="#000000" stroke-linecap="round" stroke-linejoin="round" stroke-opacity="0.3019608" stroke-width="0.05"/>
      <path d="M5.0 14.55 L5.45 14.4 6.05 14.6 6.3 15.25 6.05 15.8 5.45 16.05 Q5.15 16.05 4.9 15.8 L4.6 15.25 Q4.55 14.8 5.0 14.55" fill="#f2fff9" fill-opacity="0.5921569" fill-rule="evenodd" stroke="none"/>
      <path d="M11.5 19.7 Q12.25 20.4 12.55 21.3 L12.75 22.65 Q12.75 24.4 11.5 25.65 10.8 26.35 9.9 26.65 L8.55 26.85 Q6.8 26.85 5.65 25.65 L5.6 25.65 5.1 25.05 Q4.35 24.0 4.35 22.65 4.35 20.95 5.6 19.7 6.8 18.5 8.55 18.5 L10.6 18.95 10.7 19.1 11.5 19.7" fill="url(#gradient18)" fill-rule="evenodd" stroke="none"/>
      <path d="M11.5 19.7 Q12.25 20.4 12.55 21.3 L12.75 22.65 Q12.75 24.4 11.5 25.65 10.8 26.35 9.9 26.65 L8.55 26.85 Q6.8 26.85 5.65 25.65 L5.6 25.65 5.1 25.05 Q4.35 24.0 4.35 22.65 4.35 20.95 5.6 19.7 6.8 18.5 8.55 18.5 L10.6 18.95 10.7 19.1 11.5 19.7 Z" fill="none" stroke="#000000" stroke-linecap="round" stroke-linejoin="round" stroke-opacity="0.3019608" stroke-width="0.05"/>
      <path d="M7.4 21.95 Q7.05 22.35 6.6 22.35 6.05 22.35 5.65 21.95 5.3 21.6 5.3 21.1 5.3 20.6 5.65 20.15 6.05 19.85 6.6 19.85 7.05 19.85 7.4 20.15 7.85 20.6 7.85 21.1 L7.4 21.95" fill="#f2fff9" fill-opacity="0.5921569" fill-rule="evenodd" stroke="none"/>
      <path d="M17.7 23.55 L19.05 24.6 Q20.25 25.7 20.75 27.25 L21.05 29.4 Q21.05 32.25 19.05 34.25 17.9 35.45 16.45 35.95 L14.2 36.25 Q11.4 36.25 9.45 34.35 L9.4 34.25 8.6 33.25 Q7.35 31.65 7.35 29.4 7.35 26.6 9.4 24.6 11.4 22.6 14.2 22.6 16.05 22.6 17.55 23.45 L17.7 23.55" fill="url(#gradient19)" fill-rule="evenodd" stroke="none"/>
      <path d="M17.7 23.55 L19.05 24.6 Q20.25 25.7 20.75 27.25 L21.05 29.4 Q21.05 32.25 19.05 34.25 17.9 35.45 16.45 35.95 L14.2 36.25 Q11.4 36.25 9.45 34.35 L9.4 34.25 8.6 33.25 Q7.35 31.65 7.35 29.4 7.35 26.6 9.4 24.6 11.4 22.6 14.2 22.6 16.05 22.6 17.55 23.45 L17.7 23.55 Z" fill="none" stroke="#000000" stroke-linecap="round" stroke-linejoin="round" stroke-opacity="0.3019608" stroke-width="0.05"/>
      <path d="M12.4 26.05 Q12.85 26.55 12.85 27.25 12.85 27.95 12.4 28.35 11.9 28.9 11.2 28.9 10.6 28.9 10.05 28.35 9.55 27.95 9.55 27.25 L9.6 26.85 9.25 26.55 9.0 26.0 9.25 25.4 Q9.45 25.15 9.85 25.15 10.15 25.15 10.45 25.4 L10.65 25.65 11.2 25.6 Q11.9 25.6 12.4 26.05" fill="#f2fff9" fill-opacity="0.5921569" fill-rule="evenodd" stroke="none"/>
      <path d="M25.55 29.8 L26.6 31.4 26.8 32.75 Q26.8 34.5 25.55 35.75 24.85 36.45 23.95 36.75 L22.6 36.95 Q20.85 36.95 19.7 35.75 L19.65 35.75 19.15 35.15 Q18.4 34.1 18.4 32.75 18.4 31.05 19.65 29.8 20.85 28.6 22.6 28.6 23.75 28.6 24.65 29.05 L24.75 29.2 25.55 29.8" fill="url(#gradient20)" fill-rule="evenodd" stroke="none"/>
      <path d="M25.55 29.8 L26.6 31.4 26.8 32.75 Q26.8 34.5 25.55 35.75 24.85 36.45 23.95 36.75 L22.6 36.95 Q20.85 36.95 19.7 35.75 L19.65 35.75 19.15 35.15 Q18.4 34.1 18.4 32.75 18.4 31.05 19.65 29.8 20.85 28.6 22.6 28.6 23.75 28.6 24.65 29.05 L24.75 29.2 25.55 29.8 Z" fill="none" stroke="#000000" stroke-linecap="round" stroke-linejoin="round" stroke-opacity="0.3019608" stroke-width="0.05"/>
      <path d="M21.45 32.05 Q21.1 32.45 20.65 32.45 20.1 32.45 19.7 32.05 19.35 31.7 19.35 31.2 19.35 30.7 19.7 30.25 20.1 29.95 20.65 29.95 21.1 29.95 21.45 30.25 L21.9 31.2 Q21.9 31.7 21.45 32.05" fill="#f2fff9" fill-opacity="0.5921569" fill-rule="evenodd" stroke="none"/>
      <path d="M15.5 5.15 L16.1 5.6 Q16.7 6.15 16.95 6.9 L17.1 7.95 Q17.1 9.3 16.1 10.25 L14.9 11.05 13.8 11.2 Q12.45 11.2 11.55 10.3 L11.5 10.25 11.15 9.75 Q10.55 9.0 10.55 7.95 10.55 6.6 11.5 5.6 12.45 4.65 13.8 4.65 14.7 4.65 15.4 5.1 L15.5 5.15" fill="url(#gradient21)" fill-rule="evenodd" stroke="none"/>
      <path d="M15.5 5.15 L16.1 5.6 Q16.7 6.15 16.95 6.9 L17.1 7.95 Q17.1 9.3 16.1 10.25 L14.9 11.05 13.8 11.2 Q12.45 11.2 11.55 10.3 L11.5 10.25 11.15 9.75 Q10.55 9.0 10.55 7.95 10.55 6.6 11.5 5.6 12.45 4.65 13.8 4.65 14.7 4.65 15.4 5.1 L15.5 5.15 Z" fill="none" stroke="#000000" stroke-linecap="round" stroke-linejoin="round" stroke-opacity="0.3019608" stroke-width="0.05"/>
      <path d="M11.9 6.4 L12.35 6.25 12.9 6.45 13.1 7.05 12.9 7.55 12.35 7.85 Q12.05 7.85 11.8 7.55 L11.55 7.05 Q11.5 6.65 11.9 6.4" fill="#f2fff9" fill-opacity="0.5921569" fill-rule="evenodd" stroke="none"/>
      <path d="M21.25 4.35 L22.05 5.55 22.2 6.6 Q22.2 7.9 21.25 8.85 L20.05 9.6 19.0 9.75 Q17.7 9.75 16.85 8.85 L16.8 8.85 16.45 8.4 Q15.85 7.6 15.85 6.6 15.85 5.3 16.8 4.35 17.7 3.45 19.0 3.45 L20.55 3.8 20.65 3.9 21.25 4.35" fill="url(#gradient22)" fill-rule="evenodd" stroke="none"/>
      <path d="M21.25 4.35 L22.05 5.55 22.2 6.6 Q22.2 7.9 21.25 8.85 L20.05 9.6 19.0 9.75 Q17.7 9.75 16.85 8.85 L16.8 8.85 16.45 8.4 Q15.85 7.6 15.85 6.6 15.85 5.3 16.8 4.35 17.7 3.45 19.0 3.45 L20.55 3.8 20.65 3.9 21.25 4.35 Z" fill="none" stroke="#000000" stroke-linecap="round" stroke-linejoin="round" stroke-opacity="0.3019608" stroke-width="0.05"/>
      <path d="M18.15 6.05 Q17.9 6.35 17.55 6.35 L16.85 6.05 Q16.55 5.8 16.55 5.4 L16.85 4.7 17.55 4.45 Q17.9 4.45 18.15 4.7 L18.5 5.4 18.15 6.05" fill="#f2fff9" fill-opacity="0.5921569" fill-rule="evenodd" stroke="none"/>
      <path d="M25.5 3.9 L26.1 4.35 Q26.7 4.9 26.95 5.65 L27.1 6.7 Q27.1 8.05 26.1 9.0 L24.9 9.8 23.8 9.95 Q22.45 9.95 21.55 9.05 L21.5 9.0 21.15 8.5 Q20.55 7.75 20.55 6.7 20.55 5.35 21.5 4.35 22.45 3.4 23.8 3.4 24.7 3.4 25.4 3.85 L25.5 3.9" fill="url(#gradient23)" fill-rule="evenodd" stroke="none"/>
      <path d="M25.5 3.9 L26.1 4.35 Q26.7 4.9 26.95 5.65 L27.1 6.7 Q27.1 8.05 26.1 9.0 L24.9 9.8 23.8 9.95 Q22.45 9.95 21.55 9.05 L21.5 9.0 21.15 8.5 Q20.55 7.75 20.55 6.7 20.55 5.35 21.5 4.35 22.45 3.4 23.8 3.4 24.7 3.4 25.4 3.85 L25.5 3.9 Z" fill="none" stroke="#000000" stroke-linecap="round" stroke-linejoin="round" stroke-opacity="0.3019608" stroke-width="0.05"/>
      <path d="M21.9 5.15 Q22.15 5.0 22.35 5.0 L22.9 5.2 23.1 5.8 22.9 6.3 22.35 6.6 21.8 6.3 21.55 5.8 Q21.5 5.4 21.9 5.15" fill="#f2fff9" fill-opacity="0.5921569" fill-rule="evenodd" stroke="none"/>
      <path d="M31.35 5.6 L32.15 6.8 32.3 7.85 Q32.3 9.15 31.35 10.1 L30.15 10.85 29.1 11.0 Q27.8 11.0 26.95 10.1 L26.9 10.1 26.55 9.65 Q25.95 8.85 25.95 7.85 25.95 6.55 26.9 5.6 27.8 4.7 29.1 4.7 29.95 4.7 30.65 5.05 L30.75 5.15 31.35 5.6" fill="url(#gradient24)" fill-rule="evenodd" stroke="none"/>
      <path d="M31.35 5.6 L32.15 6.8 32.3 7.85 Q32.3 9.15 31.35 10.1 L30.15 10.85 29.1 11.0 Q27.8 11.0 26.95 10.1 L26.9 10.1 26.55 9.65 Q25.95 8.85 25.95 7.85 25.95 6.55 26.9 5.6 27.8 4.7 29.1 4.7 29.95 4.7 30.65 5.05 L30.75 5.15 31.35 5.6 Z" fill="none" stroke="#000000" stroke-linecap="round" stroke-linejoin="round" stroke-opacity="0.3019608" stroke-width="0.05"/>
      <path d="M28.25 7.3 Q28.0 7.6 27.65 7.6 27.25 7.6 26.95 7.3 26.65 7.05 26.65 6.65 26.65 6.3 26.95 5.95 27.25 5.7 27.65 5.7 28.0 5.7 28.25 5.95 L28.6 6.65 28.25 7.3" fill="#f2fff9" fill-opacity="0.5921569" fill-rule="evenodd" stroke="none"/>
      <path d="M35.6 6.7 L36.2 7.15 Q36.8 7.7 37.05 8.45 L37.2 9.5 Q37.2 10.85 36.2 11.8 L35.0 12.6 33.9 12.75 Q32.55 12.75 31.65 11.85 L31.6 11.8 31.25 11.3 Q30.65 10.55 30.65 9.5 30.65 8.15 31.6 7.15 32.55 6.2 33.9 6.2 34.8 6.2 35.5 6.65 L35.6 6.7" fill="url(#gradient25)" fill-rule="evenodd" stroke="none"/>
      <path d="M35.6 6.7 L36.2 7.15 Q36.8 7.7 37.05 8.45 L37.2 9.5 Q37.2 10.85 36.2 11.8 L35.0 12.6 33.9 12.75 Q32.55 12.75 31.65 11.85 L31.6 11.8 31.25 11.3 Q30.65 10.55 30.65 9.5 30.65 8.15 31.6 7.15 32.55 6.2 33.9 6.2 34.8 6.2 35.5 6.65 L35.6 6.7 Z" fill="none" stroke="#000000" stroke-linecap="round" stroke-linejoin="round" stroke-opacity="0.3019608" stroke-width="0.05"/>
      <path d="M31.95 7.9 Q32.2 7.75 32.4 7.75 L32.95 7.95 33.15 8.55 32.95 9.05 Q32.7 9.35 32.4 9.35 L31.85 9.05 31.6 8.55 Q31.55 8.15 31.95 7.9" fill="#f2fff9" fill-opacity="0.5921569" fill-rule="evenodd" stroke="none"/>
      <path d="M38.95 10.9 L39.75 12.1 39.9 13.15 Q39.9 14.45 38.95 15.4 L37.75 16.15 36.7 16.3 Q35.4 16.3 34.55 15.4 L34.5 15.4 34.15 14.95 Q33.55 14.15 33.55 13.15 33.55 11.85 34.5 10.9 35.4 10.0 36.7 10.0 37.55 10.0 38.25 10.35 L38.35 10.45 Q38.7 10.6 38.95 10.9" fill="url(#gradient26)" fill-rule="evenodd" stroke="none"/>
      <path d="M38.95 10.9 L39.75 12.1 39.9 13.15 Q39.9 14.45 38.95 15.4 L37.75 16.15 36.7 16.3 Q35.4 16.3 34.55 15.4 L34.5 15.4 34.15 14.95 Q33.55 14.15 33.55 13.15 33.55 11.85 34.5 10.9 35.4 10.0 36.7 10.0 37.55 10.0 38.25 10.35 L38.35 10.45 Q38.7 10.6 38.95 10.9 Z" fill="none" stroke="#000000" stroke-linecap="round" stroke-linejoin="round" stroke-opacity="0.3019608" stroke-width="0.05"/>
      <path d="M35.85 12.6 Q35.6 12.9 35.25 12.9 L34.55 12.6 Q34.25 12.35 34.25 11.95 34.25 11.6 34.55 11.25 34.85 11.0 35.25 11.0 35.6 11.0 35.85 11.25 L36.2 11.95 35.85 12.6" fill="#f2fff9" fill-opacity="0.5921569" fill-rule="evenodd" stroke="none"/>
      <path d="M38.3 15.45 L38.9 15.9 Q39.5 16.45 39.75 17.2 L39.9 18.25 Q39.9 19.6 38.9 20.55 L37.7 21.35 36.6 21.5 Q35.25 21.5 34.35 20.6 L34.3 20.55 33.95 20.05 Q33.35 19.3 33.35 18.25 33.35 16.9 34.3 15.9 35.25 14.95 36.6 14.95 37.5 14.95 38.2 15.4 L38.3 15.45" fill="url(#gradient27)" fill-rule="evenodd" stroke="none"/>
      <path d="M38.3 15.45 L38.9 15.9 Q39.5 16.45 39.75 17.2 L39.9 18.25 Q39.9 19.6 38.9 20.55 L37.7 21.35 36.6 21.5 Q35.25 21.5 34.35 20.6 L34.3 20.55 33.95 20.05 Q33.35 19.3 33.35 18.25 33.35 16.9 34.3 15.9 35.25 14.95 36.6 14.95 37.5 14.95 38.2 15.4 L38.3 15.45 Z" fill="none" stroke="#000000" stroke-linecap="round" stroke-linejoin="round" stroke-opacity="0.3019608" stroke-width="0.05"/>
      <path d="M34.7 16.65 L35.15 16.5 35.7 16.7 35.9 17.3 35.7 17.8 35.15 18.1 34.6 17.8 34.35 17.3 Q34.3 16.9 34.7 16.65" fill="#f2fff9" fill-opacity="0.5921569" fill-rule="evenodd" stroke="none"/>
      <path d="M38.95 20.6 L39.75 21.8 39.9 22.85 Q39.9 24.15 38.95 25.1 L37.75 25.85 36.7 26.0 Q35.4 26.0 34.55 25.1 L34.5 25.1 34.15 24.65 Q33.55 23.85 33.55 22.85 33.55 21.55 34.5 20.6 35.4 19.7 36.7 19.7 37.55 19.7 38.25 20.05 L38.35 20.15 Q38.7 20.3 38.95 20.6" fill="url(#gradient28)" fill-rule="evenodd" stroke="none"/>
      <path d="M38.95 20.6 L39.75 21.8 39.9 22.85 Q39.9 24.15 38.95 25.1 L37.75 25.85 36.7 26.0 Q35.4 26.0 34.55 25.1 L34.5 25.1 34.15 24.65 Q33.55 23.85 33.55 22.85 33.55 21.55 34.5 20.6 35.4 19.7 36.7 19.7 37.55 19.7 38.25 20.05 L38.35 20.15 Q38.7 20.3 38.95 20.6 Z" fill="none" stroke="#000000" stroke-linecap="round" stroke-linejoin="round" stroke-opacity="0.3019608" stroke-width="0.05"/>
      <path d="M35.85 22.3 Q35.6 22.6 35.25 22.6 L34.55 22.3 Q34.25 22.05 34.25 21.65 34.25 21.3 34.55 20.95 34.85 20.7 35.25 20.7 35.6 20.7 35.85 20.95 L36.2 21.65 35.85 22.3" fill="#f2fff9" fill-opacity="0.5921569" fill-rule="evenodd" stroke="none"/>
      <path d="M38.3 23.95 L38.9 24.4 Q39.5 24.95 39.75 25.7 L39.9 26.75 Q39.9 28.1 38.9 29.05 L37.7 29.85 36.6 30.0 Q35.25 30.0 34.35 29.1 L34.3 29.05 33.95 28.55 Q33.35 27.8 33.35 26.75 33.35 25.4 34.3 24.4 35.25 23.45 36.6 23.45 37.5 23.45 38.2 23.9 L38.3 23.95" fill="url(#gradient29)" fill-rule="evenodd" stroke="none"/>
      <path d="M38.3 23.95 L38.9 24.4 Q39.5 24.95 39.75 25.7 L39.9 26.75 Q39.9 28.1 38.9 29.05 L37.7 29.85 36.6 30.0 Q35.25 30.0 34.35 29.1 L34.3 29.05 33.95 28.55 Q33.35 27.8 33.35 26.75 33.35 25.4 34.3 24.4 35.25 23.45 36.6 23.45 37.5 23.45 38.2 23.9 L38.3 23.95 Z" fill="none" stroke="#000000" stroke-linecap="round" stroke-linejoin="round" stroke-opacity="0.3019608" stroke-width="0.05"/>
      <path d="M34.7 25.2 L35.15 25.05 35.7 25.25 35.9 25.85 35.7 26.35 35.15 26.65 34.6 26.35 34.35 25.85 Q34.3 25.45 34.7 25.2" fill="#f2fff9" fill-opacity="0.5921569" fill-rule="evenodd" stroke="none"/>
      <path d="M36.25 27.8 L37.05 29.0 37.2 30.05 Q37.2 31.35 36.25 32.3 L35.05 33.05 34.0 33.2 Q32.7 33.2 31.85 32.3 L31.8 32.3 31.45 31.85 Q30.85 31.05 30.85 30.05 30.85 28.75 31.8 27.8 32.7 26.9 34.0 26.9 34.85 26.9 35.55 27.25 L35.65 27.35 36.25 27.8" fill="url(#gradient30)" fill-rule="evenodd" stroke="none"/>
      <path d="M36.25 27.8 L37.05 29.0 37.2 30.05 Q37.2 31.35 36.25 32.3 L35.05 33.05 34.0 33.2 Q32.7 33.2 31.85 32.3 L31.8 32.3 31.45 31.85 Q30.85 31.05 30.85 30.05 30.85 28.75 31.8 27.8 32.7 26.9 34.0 26.9 34.85 26.9 35.55 27.25 L35.65 27.35 36.25 27.8 Z" fill="none" stroke="#000000" stroke-linecap="round" stroke-linejoin="round" stroke-opacity="0.3019608" stroke-width="0.05"/>
      <path d="M33.15 29.5 Q32.9 29.8 32.55 29.8 L31.85 29.5 Q31.55 29.25 31.55 28.85 31.55 28.5 31.85 28.15 32.15 27.9 32.55 27.9 32.9 27.9 33.15 28.15 L33.5 28.85 33.15 29.5" fill="#f2fff9" fill-opacity="0.5921569" fill-rule="evenodd" stroke="none"/>
      <path d="M31.05 30.15 L31.65 30.6 Q32.25 31.15 32.5 31.9 L32.65 32.95 Q32.65 34.3 31.65 35.25 L30.45 36.05 29.35 36.2 Q28.0 36.2 27.1 35.3 L27.05 35.25 26.7 34.75 Q26.1 34.0 26.1 32.95 26.1 31.6 27.05 30.6 28.0 29.65 29.35 29.65 30.25 29.65 30.95 30.1 L31.05 30.15" fill="url(#gradient31)" fill-rule="evenodd" stroke="none"/>
      <path d="M31.05 30.15 L31.65 30.6 Q32.25 31.15 32.5 31.9 L32.65 32.95 Q32.65 34.3 31.65 35.25 L30.45 36.05 29.35 36.2 Q28.0 36.2 27.1 35.3 L27.05 35.25 26.7 34.75 Q26.1 34.0 26.1 32.95 26.1 31.6 27.05 30.6 28.0 29.65 29.35 29.65 30.25 29.65 30.95 30.1 L31.05 30.15 Z" fill="none" stroke="#000000" stroke-linecap="round" stroke-linejoin="round" stroke-opacity="0.3019608" stroke-width="0.05"/>
      <path d="M27.4 31.35 Q27.65 31.2 27.85 31.2 L28.4 31.4 28.6 32.0 28.4 32.5 27.85 32.8 Q27.55 32.8 27.3 32.5 L27.05 32.0 Q27.0 31.6 27.4 31.35" fill="#f2fff9" fill-opacity="0.5921569" fill-rule="evenodd" stroke="none"/>
      <path d="M11.45 26.8 Q11.45 26.2 11.1 25.8 10.65 25.45 10.1 25.4 9.5 25.45 9.1 25.85 8.75 26.25 8.7 26.8 8.75 27.35 9.15 27.75 9.55 28.2 10.1 28.2 10.65 28.15 11.05 27.8 11.5 27.35 11.45 26.8 M11.05 24.0 Q11.65 24.2 12.2 24.75 13.0 25.5 13.0 26.65 13.0 27.8 12.2 28.6 L13.4 30.35 11.6 29.1 10.25 29.45 8.9 29.1 7.95 29.7 8.25 28.65 8.2 28.55 Q7.45 27.8 7.45 26.65 7.5 25.5 8.3 24.75 8.75 24.3 9.35 24.05 10.05 23.45 10.05 21.4 10.15 23.1 11.05 24.0" fill="#fcf3d8" fill-opacity="0.3019608" fill-rule="evenodd" stroke="none"/>
      <path d="M11.45 26.8 Q11.5 27.35 11.05 27.8 10.65 28.15 10.1 28.2 9.55 28.2 9.15 27.75 8.75 27.35 8.7 26.8 8.75 26.25 9.1 25.85 9.5 25.45 10.1 25.4 10.65 25.45 11.1 25.8 11.45 26.2 11.45 26.8" fill="#fcf3d8" fill-opacity="0.8" fill-rule="evenodd" stroke="none"/>
      <path d="M9.1 26.65 L4.25 17.4 10.0 26.0 13.4 23.55 10.55 26.5 11.5 29.4 9.7 27.45 4.4 31.4 9.1 26.65" fill="#fcf3d8" fill-opacity="0.7019608" fill-rule="evenodd" stroke="none"/>
    </g>
    <radialGradient cx="0" cy="0" fx="-1552.0" fy="0" gradientTransform="matrix(0.0048, 0.0, 0.0, 0.0048, 9.25, 10.9)" gradientUnits="userSpaceOnUse" id="gradient16" r="819.2" spreadMethod="pad">
      <stop offset="0.0" stop-color="#4bcc67"/>
      <stop offset="0.49411764705882355" stop-color="#31b845"/>
      <stop offset="0.788235294117647" stop-color="#1f7d3e"/>
      <stop offset="1.0" stop-color="#0e3d1a"/>
    </radialGradient>
    <radialGradient cx="0" cy="0" gradientTransform="matrix(0.0053, 0.0, 0.0, 0.0053, 6.15, 15.25)" gradientUnits="userSpaceOnUse" id="gradient17" r="819.2" spreadMethod="pad">
      <stop offset="0.0" stop-color="#646ecc"/>
      <stop offset="0.49411764705882355" stop-color="#4752b8"/>
      <stop offset="0.788235294117647" stop-color="#2a307d"/>
      <stop offset="1.0" stop-color="#1b1e3d"/>
    </radialGradient>
    <radialGradient cx="0" cy="0" fx="-1552.0" fy="0" gradientTransform="matrix(0.0064, 0.0, 0.0, 0.0064, 7.4, 21.45)" gradientUnits="userSpaceOnUse" id="gradient18" r="819.2" spreadMethod="pad">
      <stop offset="0.0" stop-color="#4bcc67"/>
      <stop offset="0.49411764705882355" stop-color="#31b845"/>
      <stop offset="0.788235294117647" stop-color="#1f7d3e"/>
      <stop offset="1.0" stop-color="#0e3d1a"/>
    </radialGradient>
    <radialGradient cx="0" cy="0" gradientTransform="matrix(0.0104, 0.0, 0.0, 0.0104, 12.35, 27.5)" gradientUnits="userSpaceOnUse" id="gradient19" r="819.2" spreadMethod="pad">
      <stop offset="0.0" stop-color="#646ecc"/>
      <stop offset="0.49411764705882355" stop-color="#4752b8"/>
      <stop offset="0.788235294117647" stop-color="#2a307d"/>
      <stop offset="1.0" stop-color="#1b1e3d"/>
    </radialGradient>
    <radialGradient cx="0" cy="0" fx="-1552.0" fy="0" gradientTransform="matrix(0.0064, 0.0, 0.0, 0.0064, 21.45, 31.55)" gradientUnits="userSpaceOnUse" id="gradient20" r="819.2" spreadMethod="pad">
      <stop offset="0.0" stop-color="#4bcc67"/>
      <stop offset="0.49411764705882355" stop-color="#31b845"/>
      <stop offset="0.788235294117647" stop-color="#1f7d3e"/>
      <stop offset="1.0" stop-color="#0e3d1a"/>
    </radialGradient>
    <radialGradient cx="0" cy="0" gradientTransform="matrix(0.005, 0.0, 0.0, 0.005, 12.95, 7.0)" gradientUnits="userSpaceOnUse" id="gradient21" r="819.2" spreadMethod="pad">
      <stop offset="0.0" stop-color="#646ecc"/>
      <stop offset="0.49411764705882355" stop-color="#4752b8"/>
      <stop offset="0.788235294117647" stop-color="#2a307d"/>
      <stop offset="1.0" stop-color="#1b1e3d"/>
    </radialGradient>
    <radialGradient cx="0" cy="0" fx="-1552.0" fy="0" gradientTransform="matrix(0.0048, 0.0, 0.0, 0.0048, 18.15, 5.7)" gradientUnits="userSpaceOnUse" id="gradient22" r="819.2" spreadMethod="pad">
      <stop offset="0.0" stop-color="#4bcc67"/>
      <stop offset="0.49411764705882355" stop-color="#31b845"/>
      <stop offset="0.788235294117647" stop-color="#1f7d3e"/>
      <stop offset="1.0" stop-color="#0e3d1a"/>
    </radialGradient>
    <radialGradient cx="0" cy="0" gradientTransform="matrix(0.005, 0.0, 0.0, 0.005, 22.95, 5.75)" gradientUnits="userSpaceOnUse" id="gradient23" r="819.2" spreadMethod="pad">
      <stop offset="0.0" stop-color="#646ecc"/>
      <stop offset="0.49411764705882355" stop-color="#4752b8"/>
      <stop offset="0.788235294117647" stop-color="#2a307d"/>
      <stop offset="1.0" stop-color="#1b1e3d"/>
    </radialGradient>
    <radialGradient cx="0" cy="0" fx="-1552.0" fy="0" gradientTransform="matrix(0.0048, 0.0, 0.0, 0.0048, 28.25, 6.95)" gradientUnits="userSpaceOnUse" id="gradient24" r="819.2" spreadMethod="pad">
      <stop offset="0.0" stop-color="#4bcc67"/>
      <stop offset="0.49411764705882355" stop-color="#31b845"/>
      <stop offset="0.788235294117647" stop-color="#1f7d3e"/>
      <stop offset="1.0" stop-color="#0e3d1a"/>
    </radialGradient>
    <radialGradient cx="0" cy="0" gradientTransform="matrix(0.005, 0.0, 0.0, 0.005, 33.05, 8.55)" gradientUnits="userSpaceOnUse" id="gradient25" r="819.2" spreadMethod="pad">
      <stop offset="0.0" stop-color="#646ecc"/>
      <stop offset="0.49411764705882355" stop-color="#4752b8"/>
      <stop offset="0.788235294117647" stop-color="#2a307d"/>
      <stop offset="1.0" stop-color="#1b1e3d"/>
    </radialGradient>
    <radialGradient cx="0" cy="0" fx="-1552.0" fy="0" gradientTransform="matrix(0.0048, 0.0, 0.0, 0.0048, 35.85, 12.25)" gradientUnits="userSpaceOnUse" id="gradient26" r="819.2" spreadMethod="pad">
      <stop offset="0.0" stop-color="#4bcc67"/>
      <stop offset="0.49411764705882355" stop-color="#31b845"/>
      <stop offset="0.788235294117647" stop-color="#1f7d3e"/>
      <stop offset="1.0" stop-color="#0e3d1a"/>
    </radialGradient>
    <radialGradient cx="0" cy="0" gradientTransform="matrix(0.005, 0.0, 0.0, 0.005, 35.75, 17.3)" gradientUnits="userSpaceOnUse" id="gradient27" r="819.2" spreadMethod="pad">
      <stop offset="0.0" stop-color="#646ecc"/>
      <stop offset="0.49411764705882355" stop-color="#4752b8"/>
      <stop offset="0.788235294117647" stop-color="#2a307d"/>
      <stop offset="1.0" stop-color="#1b1e3d"/>
    </radialGradient>
    <radialGradient cx="0" cy="0" fx="-1552.0" fy="0" gradientTransform="matrix(0.0048, 0.0, 0.0, 0.0048, 35.85, 21.95)" gradientUnits="userSpaceOnUse" id="gradient28" r="819.2" spreadMethod="pad">
      <stop offset="0.0" stop-color="#4bcc67"/>
      <stop offset="0.49411764705882355" stop-color="#31b845"/>
      <stop offset="0.788235294117647" stop-color="#1f7d3e"/>
      <stop offset="1.0" stop-color="#0e3d1a"/>
    </radialGradient>
    <radialGradient cx="0" cy="0" gradientTransform="matrix(0.005, 0.0, 0.0, 0.005, 35.75, 25.8)" gradientUnits="userSpaceOnUse" id="gradient29" r="819.2" spreadMethod="pad">
      <stop offset="0.0" stop-color="#646ecc"/>
      <stop offset="0.49411764705882355" stop-color="#4752b8"/>
      <stop offset="0.788235294117647" stop-color="#2a307d"/>
      <stop offset="1.0" stop-color="#1b1e3d"/>
    </radialGradient>
    <radialGradient cx="0" cy="0" fx="-1552.0" fy="0" gradientTransform="matrix(0.0048, 0.0, 0.0, 0.0048, 33.15, 29.15)" gradientUnits="userSpaceOnUse" id="gradient30" r="819.2" spreadMethod="pad">
      <stop offset="0.0" stop-color="#4bcc67"/>
      <stop offset="0.49411764705882355" stop-color="#31b845"/>
      <stop offset="0.788235294117647" stop-color="#1f7d3e"/>
      <stop offset="1.0" stop-color="#0e3d1a"/>
    </radialGradient>
    <radialGradient cx="0" cy="0" gradientTransform="matrix(0.005, 0.0, 0.0, 0.005, 28.5, 32.0)" gradientUnits="userSpaceOnUse" id="gradient31" r="819.2" spreadMethod="pad">
      <stop offset="0.0" stop-color="#646ecc"/>
      <stop offset="0.49411764705882355" stop-color="#4752b8"/>
      <stop offset="0.788235294117647" stop-color="#2a307d"/>
      <stop offset="1.0" stop-color="#1b1e3d"/>
    </radialGradient>
    <g id="sprite1" transform="matrix(1.0, 0.0, 0.0, 1.0, 32.5, 32.5)">
      <use height="65.0" transform="matrix(1.0, 0.0, 0.0, 1.0, -32.5, -32.5)" width="65.0" xlink:href="#shape3"/>
    </g>
    <g id="shape3" transform="matrix(1.0, 0.0, 0.0, 1.0, 32.5, 32.5)">
      <path d="M22.95 -23.0 Q32.5 -13.45 32.5 0.0 32.5 13.45 22.95 22.95 13.45 32.5 0.0 32.5 -13.45 32.5 -23.0 22.95 -32.5 13.45 -32.5 0.0 -32.5 -13.45 -23.0 -23.0 -13.45 -32.5 0.0 -32.5 13.45 -32.5 22.95 -23.0" fill="url(#gradient32)" fill-rule="evenodd" stroke="none"/>
    </g>
    <radialGradient cx="0" cy="0" gradientTransform="matrix(0.0406, 0.0, 0.0, 0.0406, 0.0, 0.0)" gradientUnits="userSpaceOnUse" id="gradient32" r="819.2" spreadMethod="pad">
      <stop offset="0.0" stop-color="#fff5a5"/>
      <stop offset="1.0" stop-color="#f5ad4e" stop-opacity="0.0"/>
    </radialGradient>
    <g id="shape4" transform="matrix(1.0, 0.0, 0.0, 1.0, -3.35, -3.15)">
      <path d="M41.2 22.5 Q41.85 21.65 41.85 20.55 41.85 19.1 40.75 18.05 L39.8 17.4 39.75 17.2 39.55 16.7 39.6 16.1 39.35 14.9 Q39.9 14.15 39.9 13.15 L39.75 12.1 38.95 10.9 Q38.7 10.6 38.35 10.45 L38.25 10.35 37.15 10.05 37.2 9.5 37.05 8.45 Q36.8 7.7 36.2 7.15 L35.6 6.7 35.5 6.65 Q34.8 6.2 33.9 6.2 32.9 6.2 32.15 6.75 31.85 6.1 31.35 5.6 L30.75 5.15 30.65 5.05 Q29.95 4.7 29.1 4.7 27.8 4.7 26.95 5.6 L26.1 4.35 25.5 3.9 25.4 3.85 Q24.7 3.4 23.8 3.4 22.45 3.4 21.5 4.35 L21.4 4.5 21.25 4.35 20.65 3.9 20.55 3.8 19.0 3.45 Q17.7 3.45 16.8 4.35 16.25 4.9 16.05 5.55 L15.5 5.15 15.4 5.1 Q14.7 4.65 13.8 4.65 12.45 4.65 11.5 5.6 10.55 6.6 10.55 7.95 L10.65 8.7 10.1 8.65 Q8.8 8.65 7.9 9.55 6.95 10.5 6.95 11.8 L7.1 12.75 Q5.65 12.75 4.6 13.75 3.6 14.8 3.6 16.25 3.6 17.35 4.25 18.2 L4.45 18.55 4.45 18.65 Q4.45 19.65 5.05 20.4 4.35 21.4 4.35 22.65 L4.4 23.1 Q4.25 23.45 4.25 23.9 4.25 25.25 5.3 26.2 L6.6 27.0 6.95 27.1 6.8 27.2 5.95 28.4 Q5.8 28.9 5.8 29.45 5.8 30.75 6.8 31.7 L8.1 32.45 8.6 33.25 8.8 33.55 8.8 33.6 Q8.8 34.95 9.85 35.9 L11.15 36.7 12.3 36.85 Q13.45 36.85 14.35 36.25 14.35 37.5 15.35 38.45 L16.65 39.2 17.75 39.35 Q19.15 39.35 20.05 38.45 L20.1 38.45 20.3 38.25 Q20.5 39.2 21.3 39.9 L22.6 40.7 23.75 40.85 Q25.2 40.85 26.2 39.95 L26.2 39.9 26.6 39.4 27.2 38.25 27.35 38.4 Q28.0 38.95 28.75 39.15 L29.95 39.35 Q31.45 39.35 32.45 38.4 L32.9 37.9 Q33.55 37.05 33.55 35.95 L33.5 35.45 33.9 35.6 35.05 35.75 Q36.5 35.75 37.5 34.85 L37.5 34.8 37.9 34.3 Q38.55 33.55 38.55 32.5 38.55 31.25 37.65 30.3 L38.1 30.3 Q39.6 30.3 40.6 29.35 L41.05 28.85 Q41.7 28.0 41.7 26.9 41.7 25.5 40.6 24.5 L39.75 23.9 39.8 23.75 40.75 23.05 40.75 23.0 41.2 22.5 M26.75 14.05 Q28.1 14.05 28.95 13.25 L29.85 14.55 31.15 15.35 32.3 15.5 32.9 15.45 32.85 16.1 Q32.85 17.05 33.4 17.8 L33.35 18.25 Q33.35 19.3 33.95 20.05 L34.3 20.55 34.35 20.6 34.4 20.65 34.4 20.7 Q33.55 21.6 33.55 22.85 33.55 23.8 34.15 24.6 33.35 25.55 33.35 26.75 L33.35 26.95 Q32.45 27.15 31.8 27.8 30.85 28.75 30.85 30.05 30.2 29.65 29.35 29.65 28.0 29.65 27.05 30.6 L26.55 31.25 Q26.25 30.45 25.55 29.8 L24.75 29.2 24.65 29.05 Q23.75 28.6 22.6 28.6 L21.05 28.9 20.75 27.25 Q20.25 25.7 19.05 24.6 L17.7 23.55 17.55 23.45 Q16.05 22.6 14.2 22.6 L12.75 22.75 12.75 22.65 12.55 21.3 Q12.25 20.4 11.5 19.7 L11.15 19.35 11.2 18.65 Q11.2 17.75 10.75 17.05 L10.85 17.05 Q12.3 17.05 13.3 16.15 L13.3 16.1 13.7 15.6 14.15 14.85 14.85 15.15 15.95 15.3 Q17.35 15.3 18.25 14.4 L18.3 14.4 18.7 13.95 19.1 13.25 19.2 13.3 20.5 14.1 21.65 14.25 Q23.1 14.25 24.1 13.35 L24.1 13.3 24.3 13.1 24.35 13.15 Q24.9 13.65 25.65 13.9 L26.75 14.05" fill="none" stroke="#000000" stroke-linecap="round" stroke-linejoin="round" stroke-opacity="0.4509804" stroke-width="0.5"/>
    </g>
  </defs>
</svg>
