<?xml version="1.0" encoding="UTF-8" standalone="no"?>
<svg xmlns:xlink="http://www.w3.org/1999/xlink" height="440.0px" width="440.0px" xmlns="http://www.w3.org/2000/svg">
  <g transform="matrix(10.0, 0.0, 0.0, 10.0, 0.0, 0.0)">
    <use height="44.0" transform="matrix(1.0, 0.0, 0.0, 1.0, 0.0, 0.0)" width="44.0" xlink:href="#shape0"/>
    <use height="38.45" transform="matrix(0.1799, -0.2176, -0.3847, -0.3505, 36.5827, 27.2832)" width="34.5" xlink:href="#sprite0"/>
    <use height="38.45" transform="matrix(0.0594, -0.17, -0.5094, 0.0988, 29.0572, 37.735)" width="34.5" xlink:href="#sprite0"/>
    <use height="40.4" transform="matrix(1.0, 0.0, 0.0, 1.0, 1.5, 2.3)" width="40.65" xlink:href="#shape2"/>
  </g>
  <defs>
    <g id="shape0" transform="matrix(1.0, 0.0, 0.0, 1.0, 0.0, 0.0)">
      <path d="M44.0 44.0 L0.0 44.0 0.0 0.0 44.0 0.0 44.0 44.0" fill="#43adca" fill-opacity="0.0" fill-rule="evenodd" stroke="none"/>
      <path d="M17.7 31.45 L17.55 31.45 17.4 31.3 17.55 31.35 17.7 31.45 M17.1 31.15 L17.25 31.2 17.2 31.2 17.3 31.2 17.25 31.2 17.3 31.2 17.4 31.3 17.1 31.15" fill="#cc8926" fill-rule="evenodd" stroke="none"/>
      <path d="M17.1 31.15 L17.15 31.15 17.2 31.2 17.25 31.2 17.1 31.15" fill="#f49302" fill-rule="evenodd" stroke="none"/>
      <path d="M30.3 20.25 L28.95 18.9 Q23.95 14.1 17.55 14.1 14.6 14.1 12.15 15.05 13.45 11.35 11.15 11.1 L15.95 7.9 Q26.95 5.65 35.9 13.65 L36.1 13.9 36.1 13.95 Q35.65 16.15 36.6 19.2 33.4 17.95 30.3 20.25" fill="#333333" fill-rule="evenodd" stroke="none"/>
      <path d="M3.4 25.75 L3.35 24.3 Q3.35 20.8 4.8 17.55 6.1 14.7 8.8 11.55 L8.95 11.35 Q11.85 9.25 15.8 7.9 L15.95 7.85 15.95 7.9 11.15 11.1 Q13.45 11.35 12.15 15.05 L10.75 15.7 Q8.45 16.9 6.4 19.0 3.5 22.05 3.4 25.75 M34.7 29.75 L34.7 29.6 Q34.05 24.5 30.3 20.25 33.4 17.95 36.6 19.2 35.65 16.15 36.1 13.95 39.3 18.2 40.4 23.05 38.15 29.4 34.7 29.75" fill="#1a1a1a" fill-rule="evenodd" stroke="none"/>
      <path d="M40.6 22.4 L40.7 23.35 40.7 24.3 Q40.7 26.8 40.2 28.9 38.95 33.5 35.25 37.1 32.9 39.4 30.3 40.6 L31.65 39.45 Q33.1 37.9 33.9 36.1 34.95 33.7 34.8 30.85 L34.7 29.85 34.7 29.75 Q38.15 29.4 40.4 23.05 L40.6 22.4" fill="#050505" fill-rule="evenodd" stroke="none"/>
      <path d="M10.2 18.05 Q9.0 18.75 8.05 19.8 4.0 24.15 6.3 30.15 7.4 32.95 8.85 34.95 10.4 37.05 12.5 38.2 14.6 39.4 17.25 40.05 L21.1 40.75 21.6 40.85 24.65 40.75 Q27.8 40.35 30.05 38.0 31.6 36.4 32.25 34.3 L32.55 32.6 Q32.75 31.1 32.55 29.4 32.05 24.4 27.45 19.95 25.35 17.8 22.9 16.8 20.6 15.85 17.75 15.85 13.3 15.85 10.2 18.05 M30.3 40.6 Q26.55 42.45 22.05 42.45 L20.0 42.35 Q16.95 42.0 14.25 40.85 11.25 39.55 8.8 37.1 3.85 32.4 3.4 25.75 3.5 22.05 6.4 19.0 8.45 16.9 10.75 15.7 L12.15 15.05 Q14.6 14.1 17.55 14.1 23.95 14.1 28.95 18.9 L30.3 20.25 Q34.05 24.5 34.7 29.6 L34.7 29.75 34.7 29.85 34.8 30.85 Q34.95 33.7 33.9 36.1 33.1 37.9 31.65 39.45 L30.3 40.6 M17.7 6.7 L19.35 6.45 22.05 6.3 Q26.8 6.3 30.7 8.3 L32.6 9.45 35.25 11.55 35.4 11.65 36.45 12.8 36.1 13.9 35.9 13.65 Q26.95 5.65 15.95 7.9 L15.95 7.85 17.7 6.7" fill="#545454" fill-rule="evenodd" stroke="none"/>
      <path d="M8.95 11.35 Q12.2 7.7 17.7 6.7 L15.95 7.85 15.8 7.9 Q11.85 9.25 8.95 11.35 M36.45 12.8 Q40.1 16.95 40.6 22.4 L40.4 23.05 Q39.3 18.2 36.1 13.95 L36.1 13.9 36.45 12.8" fill="#424242" fill-rule="evenodd" stroke="none"/>
      <path d="M17.55 31.45 L17.45 31.55 17.1 31.15 17.4 31.3 17.55 31.45" fill="#a84609" fill-rule="evenodd" stroke="none"/>
      <path d="M8.85 34.95 Q7.4 32.95 6.3 30.15 4.0 24.15 8.05 19.8 9.0 18.75 10.2 18.05 9.8 20.35 10.9 23.05 L11.85 25.25 Q8.15 27.05 8.85 34.95" fill="url(#gradient0)" fill-rule="evenodd" stroke="none"/>
      <path d="M17.25 40.05 Q14.6 39.4 12.5 38.2 10.4 37.05 8.85 34.95 8.15 27.05 11.85 25.25 12.75 27.0 13.8 28.3 11.65 34.55 17.25 40.05" fill="#b57c0a" fill-rule="evenodd" stroke="none"/>
      <path d="M17.1 31.15 L17.15 31.15 17.1 31.15" fill="#f7be1f" fill-rule="evenodd" stroke="none"/>
      <path d="M32.55 32.6 L32.25 34.3 Q27.75 36.1 22.55 34.8 L22.35 34.8 Q19.4 33.75 17.45 31.55 L17.55 31.45 17.7 31.45 17.7 31.5 Q20.95 33.25 26.2 33.85 29.9 34.2 32.55 32.6 M24.65 40.75 L21.6 40.85 21.1 40.75 Q22.9 39.6 26.15 35.75 L24.65 40.75" fill="#d6a10c" fill-rule="evenodd" stroke="none"/>
      <path d="M32.25 34.3 Q31.6 36.4 30.05 38.0 27.8 40.35 24.65 40.75 L26.15 35.75 Q22.9 39.6 21.1 40.75 L17.25 40.05 Q11.65 34.55 13.8 28.3 L15.55 30.0 17.15 31.15 17.1 31.15 17.45 31.55 Q19.4 33.75 22.35 34.8 L22.55 34.8 Q27.75 36.1 32.25 34.3" fill="url(#gradient1)" fill-rule="evenodd" stroke="none"/>
      <path d="M19.35 6.45 L22.05 6.3 Q26.8 6.3 30.7 8.3 L32.6 9.45 35.25 11.55 35.4 11.65" fill="none" stroke="#000000" stroke-linecap="round" stroke-linejoin="round" stroke-opacity="0.3019608" stroke-width="0.8"/>
      <path d="M10.2 18.05 Q13.3 15.85 17.75 15.85 20.6 15.85 22.9 16.8 25.35 17.8 27.45 19.95 32.05 24.4 32.55 29.4 32.75 31.1 32.55 32.6 29.9 34.2 26.2 33.85 20.95 33.25 17.7 31.5 L17.7 31.45 17.55 31.35 17.4 31.3 17.55 31.45 M11.85 25.25 L10.9 23.05 Q9.8 20.35 10.2 18.05 M30.3 40.6 Q26.55 42.45 22.05 42.45 L20.0 42.35 Q16.95 42.0 14.25 40.85 11.25 39.55 8.8 37.1 3.85 32.4 3.4 25.75 L3.35 24.3 Q3.35 20.8 4.8 17.55 6.1 14.7 8.8 11.55 L8.95 11.35 Q12.2 7.7 17.7 6.7 L19.35 6.45 M35.4 11.65 L36.45 12.8 Q40.1 16.95 40.6 22.4 L40.7 23.35 40.7 24.3 Q40.7 26.8 40.2 28.9 38.95 33.5 35.25 37.1 32.9 39.4 30.3 40.6 L31.65 39.45 Q33.1 37.9 33.9 36.1 34.95 33.7 34.8 30.85 L34.7 29.85 M13.8 28.3 Q12.75 27.0 11.85 25.25 M17.15 31.15 L15.55 30.0 13.8 28.3 M17.1 31.15 L17.25 31.2 17.2 31.2 17.15 31.15 M17.3 31.2 L17.25 31.2 M17.4 31.3 L17.3 31.2 M17.4 31.3 L17.1 31.15" fill="none" stroke="#000000" stroke-linecap="round" stroke-linejoin="round" stroke-opacity="0.3019608" stroke-width="1.0"/>
      <path d="M33.5 14.9 L34.65 16.95 Q35.25 17.9 31.6 17.9 29.85 17.9 29.1 16.2 28.3 14.45 29.55 14.1 L31.8 13.8 Q32.85 13.8 33.5 14.9" fill="#f2cc3e" fill-opacity="0.5019608" fill-rule="evenodd" stroke="none"/>
      <path d="M30.95 14.35 L31.75 14.4 Q32.4 14.6 32.4 15.05 32.4 16.15 30.8 16.15 30.0 16.15 29.7 15.4 29.35 14.6 29.85 14.45 L30.95 14.35" fill="#f2cc3e" fill-opacity="0.5019608" fill-rule="evenodd" stroke="none"/>
      <path d="M34.15 26.25 Q33.7 23.7 34.6 23.7 35.55 23.65 36.1 24.15 L36.9 24.65 Q37.2 24.75 37.05 27.3 37.0 29.75 35.75 29.25 34.6 28.75 34.15 26.25" fill="#f2cc3e" fill-opacity="0.5019608" fill-rule="evenodd" stroke="none"/>
      <path d="M34.6 25.45 Q34.45 24.4 34.8 24.4 35.2 24.35 35.45 24.6 L35.75 24.8 35.85 25.9 Q35.8 26.95 35.3 26.7 34.8 26.5 34.6 25.45" fill="#f2cc3e" fill-opacity="0.5019608" fill-rule="evenodd" stroke="none"/>
      <path d="M7.65 14.4 Q8.55 13.1 8.95 13.5 9.4 13.85 9.45 14.3 L9.55 14.9 8.5 16.05 Q7.35 17.1 7.1 16.35 6.8 15.65 7.65 14.4" fill="#f2cc3e" fill-opacity="0.5019608" fill-rule="evenodd" stroke="none"/>
      <path d="M8.25 14.35 Q8.65 13.85 8.8 14.0 L9.0 14.3 9.05 14.55 8.6 15.1 8.0 15.2 Q7.9 14.9 8.25 14.35" fill="#f2cc3e" fill-opacity="0.5019608" fill-rule="evenodd" stroke="none"/>
      <path d="M38.75 19.05 Q39.0 19.15 39.25 20.5 39.45 21.9 38.35 21.9 37.2 21.9 36.9 20.75 36.55 19.5 37.15 19.2 37.65 18.9 38.05 18.9 L38.75 19.05" fill="#f2cc3e" fill-opacity="0.5019608" fill-rule="evenodd" stroke="none"/>
      <path d="M38.3 19.75 Q38.3 20.55 37.65 20.55 37.3 20.55 37.2 20.0 37.05 19.45 37.25 19.35 L37.7 19.25 38.05 19.3 38.3 19.75" fill="#f2cc3e" fill-opacity="0.5019608" fill-rule="evenodd" stroke="none"/>
      <path d="M15.0 11.4 Q11.65 11.1 12.55 10.25 13.35 9.25 14.55 8.85 15.7 8.45 15.9 8.25 16.3 7.95 19.1 8.9 21.8 9.7 20.05 10.8 18.3 11.8 15.0 11.4" fill="#f2cc3e" fill-opacity="0.5019608" fill-rule="evenodd" stroke="none"/>
      <path d="M16.3 9.55 Q17.5 9.9 16.7 10.35 L14.6 10.6 Q13.2 10.5 13.6 10.1 L14.4 9.55 15.0 9.25 16.3 9.55" fill="#f2cc3e" fill-opacity="0.5019608" fill-rule="evenodd" stroke="none"/>
      <path d="M16.35 10.5 Q15.55 10.45 15.75 10.25 L16.25 9.9 16.6 9.75 17.35 9.9 Q18.05 10.1 17.6 10.35 L16.35 10.5" fill="#f2cc3e" fill-opacity="0.5019608" fill-rule="evenodd" stroke="none"/>
      <path d="M36.15 32.55 Q37.1 30.7 37.35 31.1 37.7 31.5 37.7 32.1 L37.7 32.8 36.65 34.55 Q35.5 36.15 35.35 35.25 35.2 34.35 36.15 32.55" fill="#f2cc3e" fill-opacity="0.5019608" fill-rule="evenodd" stroke="none"/>
      <path d="M36.2 31.75 Q36.6 30.9 36.75 31.15 36.95 31.35 36.95 31.7 L37.0 32.05 36.55 32.8 Q36.1 33.45 35.95 33.0 35.85 32.5 36.2 31.75" fill="#f2cc3e" fill-opacity="0.5019608" fill-rule="evenodd" stroke="none"/>
      <path d="M11.75 13.5 L12.0 14.25 Q12.25 14.85 11.45 14.85 11.05 14.85 10.9 14.25 10.7 13.6 11.05 13.45 L11.55 13.3 11.75 13.5" fill="#f2cc3e" fill-opacity="0.5019608" fill-rule="evenodd" stroke="none"/>
      <path d="M11.55 13.9 Q11.55 14.3 11.2 14.3 L10.95 14.0 10.95 13.65 11.2 13.6 11.4 13.65 11.55 13.9" fill="#f2cc3e" fill-opacity="0.5019608" fill-rule="evenodd" stroke="none"/>
      <path d="M35.7 18.4 L35.95 19.15 Q36.2 19.75 35.4 19.75 35.0 19.75 34.85 19.15 34.65 18.5 35.0 18.35 L35.5 18.2 35.7 18.4" fill="#f2cc3e" fill-opacity="0.5019608" fill-rule="evenodd" stroke="none"/>
      <path d="M35.65 18.7 Q35.65 19.1 35.3 19.1 L35.05 18.8 35.05 18.45 35.3 18.4 35.5 18.45 35.65 18.7" fill="#f2cc3e" fill-opacity="0.5019608" fill-rule="evenodd" stroke="none"/>
      <path d="M38.45 28.9 L38.7 29.65 Q38.95 30.25 38.15 30.25 37.75 30.25 37.6 29.65 37.4 29.0 37.75 28.85 L38.25 28.7 38.45 28.9" fill="#f2cc3e" fill-opacity="0.5019608" fill-rule="evenodd" stroke="none"/>
      <path d="M38.4 29.3 Q38.4 29.7 38.05 29.7 L37.8 29.4 37.8 29.05 38.05 29.0 38.25 29.05 38.4 29.3" fill="#f2cc3e" fill-opacity="0.5019608" fill-rule="evenodd" stroke="none"/>
      <path d="M31.45 39.3 L32.15 39.3 30.05 40.45 31.45 39.3" fill="#666666" fill-opacity="0.5019608" fill-rule="evenodd" stroke="none"/>
      <path d="M31.45 39.3 Q32.9 37.8 33.7 35.95 L34.2 34.55 Q35.0 34.3 35.65 33.35 36.45 32.05 36.9 31.8 L37.8 31.2 38.75 28.75 Q39.4 26.4 37.35 24.15 35.3 21.9 34.8 23.15 L33.1 22.9 31.8 23.6 Q30.85 24.0 31.1 24.95 L30.55 23.95 Q31.1 23.45 32.05 23.15 32.9 22.8 33.1 22.8 L33.55 22.7 33.25 22.85 35.15 22.55 36.2 22.65 Q35.0 22.05 34.2 19.65 35.45 21.9 36.35 22.25 L40.5 21.9 41.15 21.75 41.15 22.05 38.45 22.8 37.4 23.35 Q38.9 24.75 39.45 28.15 39.45 29.7 37.05 32.95 35.6 35.0 35.0 37.05 L32.15 39.3 31.45 39.3 M36.25 12.65 L38.35 15.65 Q36.7 12.8 35.4 15.55 34.35 17.7 34.15 18.75 34.0 18.35 34.0 17.95 33.9 17.15 34.5 16.5 L35.55 14.45 36.25 12.65 M4.15 18.6 L4.5 17.55 7.2 17.55 7.35 17.55 7.55 17.6 Q6.05 17.55 4.15 18.6 M24.4 17.55 Q24.1 16.95 24.1 15.85 L23.95 14.9 26.05 16.9 Q27.9 18.5 28.1 19.05 L29.5 21.75 30.3 23.45 Q29.05 21.55 27.2 19.8 26.15 18.7 25.05 17.95 L24.4 17.55 M32.4 9.3 L34.3 10.75 Q26.2 9.0 28.7 9.3 31.15 9.6 32.15 9.25 L32.3 9.25 32.4 9.3 M7.35 12.95 L7.5 12.7 8.0 12.15 9.4 12.85 7.35 12.95 M16.5 12.8 Q18.35 12.85 19.8 12.2 21.85 11.25 21.85 9.45 21.85 8.2 20.5 6.25 L21.85 6.15 23.85 6.25 23.65 6.45 Q23.05 7.05 23.05 7.65 23.05 9.5 20.25 12.35 18.35 14.2 18.4 15.2 L16.15 13.6 9.25 11.4 9.45 11.4 9.45 10.05 Q10.1 10.3 11.2 10.85 14.7 12.65 16.5 12.8" fill="#c9c9c9" fill-opacity="0.11372549" fill-rule="evenodd" stroke="none"/>
    </g>
    <linearGradient gradientTransform="matrix(-0.0031, -0.0076, 0.0095, -0.004, 8.3, 23.85)" gradientUnits="userSpaceOnUse" id="gradient0" spreadMethod="pad" x1="-819.2" x2="819.2">
      <stop offset="0.0" stop-color="#996909"/>
      <stop offset="1.0" stop-color="#755006"/>
    </linearGradient>
    <linearGradient gradientTransform="matrix(0.0118, -0.0032, 0.002, 0.0073, 24.95, 34.45)" gradientUnits="userSpaceOnUse" id="gradient1" spreadMethod="pad" x1="-819.2" x2="819.2">
      <stop offset="0.0" stop-color="#f7be1f"/>
      <stop offset="0.4470588235294118" stop-color="#ffe378"/>
      <stop offset="1.0" stop-color="#f7be1f"/>
    </linearGradient>
    <g id="sprite0" transform="matrix(1.0, 0.0, 0.0, 1.0, 17.25, 19.2)">
      <use height="38.45" transform="matrix(1.0, 0.0, 0.0, 1.0, -17.25, -19.2)" width="34.5" xlink:href="#shape1"/>
    </g>
    <g id="shape1" transform="matrix(1.0, 0.0, 0.0, 1.0, 17.25, 19.2)">
      <path d="M12.2 -6.25 Q17.25 1.25 17.25 8.4 17.25 15.55 12.2 18.15 7.15 20.75 0.0 17.3 -7.15 13.8 -12.2 6.3 -17.25 -1.2 -17.25 -8.35 -17.25 -15.5 -12.2 -18.1 -7.15 -20.7 0.0 -17.2 7.15 -13.75 12.2 -6.25" fill="url(#gradient2)" fill-rule="evenodd" stroke="none"/>
    </g>
    <radialGradient cx="0" cy="0" gradientTransform="matrix(0.0219, 0.0106, 0.0, 0.0219, 0.0, 0.05)" gradientUnits="userSpaceOnUse" id="gradient2" r="819.2" spreadMethod="pad">
      <stop offset="0.0" stop-color="#fff6d1"/>
      <stop offset="1.0" stop-color="#ffffff" stop-opacity="0.0"/>
    </radialGradient>
    <g id="shape2" transform="matrix(1.0, 0.0, 0.0, 1.0, -1.5, -2.3)">
      <path d="M4.75 22.25 L3.75 20.6 Q2.85 19.1 3.95 18.15 4.5 20.0 5.25 21.25 L5.5 21.6 4.8 22.35 4.75 22.25" fill="#633318" fill-rule="evenodd" stroke="none"/>
      <path d="M4.5 16.15 L5.15 15.6 Q5.15 17.45 6.2 18.8 L6.9 19.85 7.05 19.95 7.3 20.4 7.3 20.45 7.3 20.4 7.35 20.5 7.3 20.45 6.55 19.6 6.6 20.15 6.65 20.3 6.9 21.15 6.85 21.25 6.9 21.15 6.9 21.2 6.95 21.25 6.95 21.3 6.9 21.3 6.9 21.25 6.85 21.25 6.9 21.2 6.85 21.25 6.4 20.65 5.85 19.8 5.8 19.8 5.5 19.2 5.45 19.1 4.5 16.15" fill="#361c0d" fill-rule="evenodd" stroke="none"/>
      <path d="M4.5 16.15 L5.45 19.1 5.5 19.2 5.8 19.8 5.85 19.8 6.4 20.65 6.85 21.25 Q6.55 21.8 6.75 21.55 L6.9 21.3 6.75 21.55 Q6.55 21.8 6.85 21.25 L6.9 21.25 6.9 21.3 6.95 21.3 6.95 21.25 7.25 20.65 7.3 20.65 7.35 20.5 7.25 20.65 7.35 20.5 7.3 20.65 7.25 20.65 6.95 21.25 6.9 21.2 6.9 21.15 6.65 20.3 6.6 20.15 6.55 19.6 7.3 20.45 7.35 20.5 7.3 20.4 7.05 19.95 6.9 19.85 7.1 19.9 7.15 19.95 7.4 20.3 7.35 20.5 Q7.15 22.2 6.15 23.3 L5.6 23.85 Q4.75 23.45 4.4 22.85 L4.4 22.8 4.25 22.55 3.5 20.55 Q2.9 18.75 4.5 16.15 M4.75 22.25 L4.8 22.35 5.5 21.6 5.25 21.25 Q4.5 20.0 3.95 18.15 2.85 19.1 3.75 20.6 L4.75 22.25 M7.4 20.3 L7.3 20.4 7.4 20.3 M7.3 20.45 L7.3 20.65 6.95 21.1 7.15 20.75 6.9 21.15 7.15 20.75 6.95 21.1 7.3 20.65 7.3 20.45 M6.9 21.2 L6.95 21.1 6.9 21.15 6.95 21.1 6.9 21.2" fill="#4f2812" fill-rule="evenodd" stroke="none"/>
      <path d="M6.9 19.85 L6.2 18.8 Q5.15 17.45 5.15 15.6 L4.5 16.15 5.45 19.1 M5.5 19.2 L5.8 19.8 5.85 19.8 M6.85 21.25 L6.9 21.15 7.15 20.75 6.95 21.1 7.3 20.65 7.3 20.45 7.3 20.4 7.05 19.95 6.9 19.85 M7.35 20.5 Q7.15 22.2 6.15 23.3 L5.6 23.85 M4.25 22.55 L3.5 20.55 Q2.9 18.75 4.5 16.15 M7.35 20.5 L7.3 20.4 7.4 20.3 M7.25 20.65 L7.35 20.5 7.3 20.65 7.25 20.65 6.95 21.25 6.95 21.3 6.9 21.3 6.75 21.55 Q6.55 21.8 6.85 21.25 M6.9 21.2 L6.85 21.25 M6.9 21.15 L6.95 21.1 6.9 21.2" fill="none" stroke="#000000" stroke-linecap="round" stroke-linejoin="round" stroke-opacity="0.3019608" stroke-width="0.25"/>
      <path d="M13.45 12.4 Q17.1 12.9 23.05 10.55 L23.2 10.5 23.65 10.3 Q23.5 10.8 24.25 11.0 L25.8 11.55 Q25.95 11.7 25.3 12.15 L23.3 12.1 21.65 11.95 18.6 13.1 15.2 13.75 Q14.75 14.0 16.15 14.05 L18.05 14.05 16.15 14.2 Q12.8 14.25 13.45 12.4" fill="#633318" fill-rule="evenodd" stroke="none"/>
      <path d="M22.05 10.85 L22.95 10.55 22.35 10.75 22.05 10.85 M13.45 12.4 L14.1 11.9 Q16.0 12.6 21.7 10.95 21.75 10.9 21.8 11.0 L23.05 10.55 Q17.1 12.9 13.45 12.4" fill="#361c0d" fill-rule="evenodd" stroke="none"/>
      <path d="M25.3 12.15 L24.85 12.4 18.05 14.05 16.15 14.05 Q14.75 14.0 15.2 13.75 L18.6 13.1 21.65 11.95 23.3 12.1 25.3 12.15" fill="#472410" fill-rule="evenodd" stroke="none"/>
      <path d="M22.05 10.85 L22.35 10.75 22.95 10.55 22.05 10.85 21.75 10.9 22.35 10.75 22.8 10.65 23.65 10.3 22.95 10.55 M21.65 10.95 L21.7 10.95 21.75 10.9 21.65 10.95 22.05 10.85 M23.05 10.55 L21.8 11.0 Q21.75 10.9 21.7 10.95 16.0 12.6 14.1 11.9 L13.45 12.4 Q17.1 12.9 23.05 10.55 L23.2 10.5 23.65 10.3 Q23.5 10.8 24.25 11.0 L25.8 11.55 Q25.95 11.7 25.3 12.15 L24.85 12.4 18.05 14.05 16.15 14.2 Q12.8 14.25 13.45 12.4 M21.8 11.0 Q22.35 10.75 22.8 10.65 L23.05 10.55" fill="none" stroke="#000000" stroke-linecap="round" stroke-linejoin="round" stroke-opacity="0.3019608" stroke-width="0.25"/>
      <path d="M8.7 19.05 L8.6 18.95 Q7.8 13.4 9.45 11.15 L11.8 8.95 Q13.45 7.45 13.8 8.1 11.95 10.45 11.4 12.25 10.95 13.7 10.9 16.4 L9.55 18.4 8.7 19.05" fill="#633318" fill-rule="evenodd" stroke="none"/>
      <path d="M18.3 6.0 L18.6 6.6 Q16.65 8.7 15.4 11.95 14.1 15.2 15.0 16.55 L16.2 16.5 15.5 17.8 14.65 18.75 Q11.85 16.35 14.2 10.85 15.35 8.0 18.3 6.0" fill="#361c0d" fill-rule="evenodd" stroke="none"/>
      <path d="M18.3 6.0 Q15.35 8.0 14.2 10.85 11.85 16.35 14.65 18.75 13.75 19.6 11.95 20.05 10.1 20.5 8.7 19.05 L9.55 18.4 10.9 16.4 Q10.95 13.7 11.4 12.25 11.95 10.45 13.8 8.1 13.45 7.45 11.8 8.95 L9.45 11.15 Q10.3 9.95 11.3 8.9 15.25 5.1 18.3 6.0" fill="#4f2812" fill-rule="evenodd" stroke="none"/>
      <path d="M14.65 18.75 L15.5 17.8 16.2 16.5 15.0 16.55 Q14.1 15.2 15.4 11.95 16.65 8.7 18.6 6.6 L18.3 6.0 Q15.35 8.0 14.2 10.85 11.85 16.35 14.65 18.75 13.75 19.6 11.95 20.05 10.1 20.5 8.7 19.05 L8.6 18.95 Q7.8 13.4 9.45 11.15 10.3 9.95 11.3 8.9 15.25 5.1 18.3 6.0" fill="none" stroke="#000000" stroke-linecap="round" stroke-linejoin="round" stroke-opacity="0.3019608" stroke-width="0.25"/>
      <path d="M13.45 8.25 L13.45 9.1 12.95 9.9 12.15 10.1 11.45 9.5 Q11.2 9.05 11.3 8.65 11.45 8.15 11.95 7.85 L12.8 7.75 Q13.3 7.85 13.45 8.25" fill="#e0b60e" fill-rule="evenodd" stroke="none"/>
      <path d="M13.45 8.25 L13.45 9.1 12.95 9.9 12.15 10.1 11.45 9.5 Q11.2 9.05 11.3 8.65 11.45 8.15 11.95 7.85 L12.8 7.75 Q13.3 7.85 13.45 8.25 Z" fill="none" stroke="#000000" stroke-linecap="round" stroke-linejoin="round" stroke-opacity="0.3019608" stroke-width="0.05"/>
      <path d="M12.35 9.7 L12.65 9.3 12.95 8.65 13.15 8.45 13.3 8.8 13.15 9.5 12.65 9.9 12.15 9.85 12.35 9.7" fill="#ba7f0a" fill-rule="evenodd" stroke="none"/>
      <path d="M12.15 7.9 L12.4 8.15 12.4 8.55 12.15 8.8 11.85 8.7 11.6 8.45 11.6 8.15 Q11.7 8.0 11.85 8.0 L12.15 7.9" fill="#fae9a7" fill-rule="evenodd" stroke="none"/>
      <path d="M21.75 13.9 Q21.55 14.2 22.0 14.85 L22.95 16.25 Q23.0 16.55 22.5 16.5 L21.2 15.25 20.1 14.2 17.9 13.4 15.55 11.95 Q15.25 12.0 16.15 12.8 L17.4 13.9 16.15 12.95 Q13.95 11.05 14.65 9.8 17.0 12.4 21.3 13.75 L21.4 13.8 21.75 13.9" fill="#633318" fill-rule="evenodd" stroke="none"/>
      <path d="M21.25 13.7 L20.85 13.5 20.6 13.4 21.25 13.7 M14.65 9.8 L15.15 9.7 Q16.3 11.5 20.35 13.3 L20.4 13.45 21.3 13.75 Q17.0 12.4 14.65 9.8" fill="#361c0d" fill-rule="evenodd" stroke="none"/>
      <path d="M22.5 16.5 L22.15 16.4 Q19.35 15.25 17.4 13.9 L16.15 12.8 Q15.25 12.0 15.55 11.95 L17.9 13.4 20.1 14.2 21.2 15.25 22.5 16.5" fill="#472410" fill-rule="evenodd" stroke="none"/>
      <path d="M21.25 13.7 L20.6 13.4 20.85 13.5 21.25 13.7 21.75 13.9 Q21.55 14.2 22.0 14.85 L22.95 16.25 Q23.0 16.55 22.5 16.5 L22.15 16.4 Q19.35 15.25 17.4 13.9 L16.15 12.95 Q13.95 11.05 14.65 9.8 L15.15 9.7 Q16.3 11.5 20.35 13.3 L20.35 13.25 20.6 13.4 20.35 13.35 20.85 13.5 21.15 13.65 21.75 13.9 21.4 13.8 21.3 13.75 Q17.0 12.4 14.65 9.8 M21.3 13.75 L20.4 13.45 20.35 13.3 20.35 13.35 20.35 13.25 M20.4 13.45 L21.15 13.65 21.3 13.75" fill="none" stroke="#000000" stroke-linecap="round" stroke-linejoin="round" stroke-opacity="0.3019608" stroke-width="0.25"/>
      <path d="M20.45 15.0 L20.55 14.3 Q21.3 11.2 24.6 9.65 L29.6 7.2 29.9 7.35 30.1 8.0 27.75 10.95 Q25.4 14.05 25.4 16.35 21.85 16.15 20.45 15.0" fill="#633318" fill-rule="evenodd" stroke="none"/>
      <path d="M34.3 9.7 L34.15 10.7 Q30.35 11.45 26.55 19.8 L27.45 20.9 25.2 20.2 Q27.8 11.4 34.3 9.7" fill="#361c0d" fill-rule="evenodd" stroke="none"/>
      <path d="M34.3 9.7 Q27.8 11.4 25.2 20.2 L19.85 17.05 20.45 15.0 Q21.85 16.15 25.4 16.35 25.4 14.05 27.75 10.95 L30.1 8.0 29.9 7.35 29.6 7.2 Q32.55 7.0 34.3 9.7" fill="#4f2812" fill-rule="evenodd" stroke="none"/>
      <path d="M25.2 20.2 L27.45 20.9 26.55 19.8 Q30.35 11.45 34.15 10.7 L34.3 9.7 Q27.8 11.4 25.2 20.2 L19.85 17.05 20.45 15.0 20.55 14.3 Q21.3 11.2 24.6 9.65 L29.6 7.2 Q32.55 7.0 34.3 9.7" fill="none" stroke="#000000" stroke-linecap="round" stroke-linejoin="round" stroke-opacity="0.3019608" stroke-width="0.25"/>
      <path d="M29.7 8.8 L29.3 9.55 28.55 10.0 Q28.1 10.25 27.7 9.85 27.4 9.45 27.4 9.0 27.35 8.5 27.6 8.2 28.0 7.8 28.6 7.75 29.05 7.7 29.35 8.05 29.8 8.4 29.7 8.8" fill="#e0b60e" fill-rule="evenodd" stroke="none"/>
      <path d="M29.7 8.8 L29.3 9.55 28.55 10.0 Q28.1 10.25 27.7 9.85 27.4 9.45 27.4 9.0 27.35 8.5 27.6 8.2 28.0 7.8 28.6 7.75 29.05 7.7 29.35 8.05 29.8 8.4 29.7 8.8 Z" fill="none" stroke="#000000" stroke-linecap="round" stroke-linejoin="round" stroke-opacity="0.3019608" stroke-width="0.05"/>
      <path d="M28.1 9.6 L28.55 9.4 29.1 8.9 29.35 8.85 29.35 9.25 28.9 9.75 28.25 9.9 27.85 9.65 28.1 9.6" fill="#ba7f0a" fill-rule="evenodd" stroke="none"/>
      <path d="M28.7 7.9 L28.85 8.2 28.65 8.55 28.3 8.7 28.1 8.45 27.95 8.15 28.1 7.85 28.4 7.85 28.7 7.9" fill="#fae9a7" fill-rule="evenodd" stroke="none"/>
      <path d="M27.15 14.25 Q29.35 16.75 34.2 18.0 L34.35 18.05 34.65 18.1 Q34.35 18.4 34.75 19.0 L35.5 20.35 Q35.55 20.55 34.95 20.6 L33.7 19.45 32.6 18.4 30.2 17.7 27.7 16.4 Q27.3 16.4 28.15 17.15 L29.45 18.2 28.15 17.3 Q25.95 15.55 27.15 14.25" fill="#633318" fill-rule="evenodd" stroke="none"/>
      <path d="M33.45 17.7 L34.15 17.9 33.7 17.8 33.45 17.7 M27.15 14.25 L27.8 14.2 Q28.75 15.9 33.1 17.55 L33.15 17.7 34.2 18.0 Q29.35 16.75 27.15 14.25" fill="#361c0d" fill-rule="evenodd" stroke="none"/>
      <path d="M34.95 20.6 L34.55 20.55 Q31.45 19.45 29.45 18.2 L28.15 17.15 Q27.3 16.4 27.7 16.4 L30.2 17.7 32.6 18.4 33.7 19.45 34.95 20.6" fill="#472410" fill-rule="evenodd" stroke="none"/>
      <path d="M33.45 17.7 L33.7 17.8 34.15 17.9 33.45 17.7 33.15 17.55 33.7 17.8 34.05 17.9 34.65 18.1 34.15 17.9 M33.15 17.55 L33.1 17.55 33.15 17.55 33.45 17.7 M34.2 18.0 L33.15 17.7 33.1 17.55 Q28.75 15.9 27.8 14.2 L27.15 14.25 Q29.35 16.75 34.2 18.0 L34.35 18.05 34.65 18.1 Q34.35 18.4 34.75 19.0 L35.5 20.35 Q35.55 20.55 34.95 20.6 L34.55 20.55 Q31.45 19.45 29.45 18.2 L28.15 17.3 Q25.95 15.55 27.15 14.25 M33.15 17.7 L34.05 17.9 34.2 18.0" fill="none" stroke="#000000" stroke-linecap="round" stroke-linejoin="round" stroke-opacity="0.3019608" stroke-width="0.25"/>
      <path d="M40.15 17.35 Q39.05 17.85 39.05 18.0 L38.65 18.65 Q37.0 19.15 35.3 19.75 31.85 21.1 30.1 22.95 L27.65 21.35 Q27.35 20.9 27.35 20.5 L29.15 18.75 36.35 17.3 Q39.5 16.85 40.15 17.35" fill="#633318" fill-rule="evenodd" stroke="none"/>
      <path d="M29.0 25.75 Q35.0 20.2 41.7 22.15 L41.25 23.1 Q36.05 21.4 31.05 25.35 L31.65 26.5 30.15 26.5 29.0 25.75" fill="#361c0d" fill-rule="evenodd" stroke="none"/>
      <path d="M40.15 17.35 Q42.5 18.6 41.7 22.15 35.0 20.2 29.0 25.75 L27.65 21.35 30.1 22.95 Q31.85 21.1 35.3 19.75 37.0 19.15 38.65 18.65 L39.05 18.0 Q39.05 17.85 40.15 17.35" fill="#4f2812" fill-rule="evenodd" stroke="none"/>
      <path d="M41.7 22.15 Q42.5 18.6 40.15 17.35 39.5 16.85 36.35 17.3 L29.15 18.75 27.35 20.5 Q27.35 20.9 27.65 21.35 L29.0 25.75 Q35.0 20.2 41.7 22.15 L41.25 23.1 Q36.05 21.4 31.05 25.35 L31.65 26.5 30.15 26.5 29.0 25.75" fill="none" stroke="#000000" stroke-linecap="round" stroke-linejoin="round" stroke-opacity="0.3019608" stroke-width="0.25"/>
      <path d="M8.7 14.25 L7.6 13.25 9.2 13.3 9.3 13.25 Q9.8 12.85 10.3 12.9 10.9 12.95 11.2 13.35 L11.3 13.65 12.5 13.55 11.4 13.95 11.4 14.35 10.85 15.3 10.4 15.55 10.25 16.0 9.95 15.6 9.8 15.6 Q9.25 15.55 8.95 15.1 8.65 14.7 8.7 14.25" fill="#994009" fill-opacity="0.36078432" fill-rule="evenodd" stroke="none"/>
      <path d="M11.45 13.15 Q11.65 13.75 11.45 14.4 L10.7 15.6 Q10.25 16.1 9.5 15.9 8.85 15.6 8.5 15.0 8.1 14.35 8.25 13.75 8.5 13.0 9.2 12.55 L10.5 12.4 Q11.2 12.55 11.45 13.15" fill="#e0b60e" fill-rule="evenodd" stroke="none"/>
      <path d="M11.45 13.15 Q11.65 13.75 11.45 14.4 L10.7 15.6 Q10.25 16.1 9.5 15.9 8.85 15.6 8.5 15.0 8.1 14.35 8.25 13.75 8.5 13.0 9.2 12.55 L10.5 12.4 Q11.2 12.55 11.45 13.15 Z" fill="none" stroke="#000000" stroke-linecap="round" stroke-linejoin="round" stroke-opacity="0.3019608" stroke-width="0.05"/>
      <path d="M9.8 15.3 L10.25 14.7 10.7 13.75 11.0 13.45 11.2 13.95 11.0 15.0 10.25 15.6 9.5 15.55 9.8 15.3" fill="#ba7f0a" fill-rule="evenodd" stroke="none"/>
      <path d="M9.5 12.65 L9.9 13.0 9.9 13.6 9.5 13.95 9.05 13.8 8.7 13.45 8.7 13.0 9.05 12.8 9.5 12.65" fill="#fae9a7" fill-rule="evenodd" stroke="none"/>
      <path d="M23.0 13.85 L21.9 12.85 23.5 12.9 23.6 12.85 Q24.1 12.45 24.6 12.5 25.2 12.55 25.5 12.95 L25.6 13.25 26.8 13.15 25.7 13.55 25.7 13.95 25.15 14.9 24.7 15.15 24.55 15.6 24.25 15.2 24.1 15.2 Q23.55 15.15 23.25 14.7 22.95 14.3 23.0 13.85" fill="#994009" fill-opacity="0.36078432" fill-rule="evenodd" stroke="none"/>
      <path d="M25.7 12.8 Q25.9 13.4 25.7 14.1 L24.95 15.3 Q24.5 15.8 23.75 15.6 L22.7 14.7 Q22.3 14.0 22.45 13.4 22.7 12.65 23.45 12.2 L24.7 12.05 Q25.45 12.2 25.7 12.8" fill="#e0b60e" fill-rule="evenodd" stroke="none"/>
      <path d="M25.7 12.8 Q25.9 13.4 25.7 14.1 L24.95 15.3 Q24.5 15.8 23.75 15.6 L22.7 14.7 Q22.3 14.0 22.45 13.4 22.7 12.65 23.45 12.2 L24.7 12.05 Q25.45 12.2 25.7 12.8 Z" fill="none" stroke="#000000" stroke-linecap="round" stroke-linejoin="round" stroke-opacity="0.3019608" stroke-width="0.05"/>
      <path d="M24.05 15.0 L24.5 14.4 24.95 13.4 25.25 13.1 25.45 13.65 25.25 14.7 24.5 15.3 23.75 15.2 24.05 15.0" fill="#ba7f0a" fill-rule="evenodd" stroke="none"/>
      <path d="M23.75 12.3 L24.1 12.65 24.1 13.25 23.75 13.65 23.3 13.5 22.9 13.1 22.9 12.65 Q23.05 12.45 23.3 12.45 L23.75 12.3" fill="#fae9a7" fill-rule="evenodd" stroke="none"/>
      <path d="M34.6 18.6 L34.9 17.05 35.65 18.5 35.75 18.55 36.55 19.25 36.6 20.3 36.4 20.55 37.1 21.45 36.15 20.75 35.75 20.95 Q35.3 21.15 34.7 20.95 L34.25 20.7 33.8 20.75 34.0 20.3 33.9 20.15 Q33.7 19.7 33.95 19.2 34.1 18.75 34.6 18.6" fill="#994009" fill-opacity="0.36078432" fill-rule="evenodd" stroke="none"/>
      <path d="M34.35 20.45 L35.3 21.2 36.7 21.35 Q37.35 21.3 37.65 20.6 37.8 19.9 37.55 19.25 37.25 18.55 36.7 18.35 L35.2 18.4 Q34.55 18.65 34.3 19.25 34.05 19.95 34.35 20.45" fill="#e0b60e" fill-rule="evenodd" stroke="none"/>
      <path d="M34.35 20.45 L35.3 21.2 36.7 21.35 Q37.35 21.3 37.65 20.6 37.8 19.9 37.55 19.25 37.25 18.55 36.7 18.35 L35.2 18.4 Q34.55 18.65 34.3 19.25 34.05 19.95 34.35 20.45 Z" fill="none" stroke="#000000" stroke-linecap="round" stroke-linejoin="round" stroke-opacity="0.3019608" stroke-width="0.05"/>
      <path d="M36.95 20.5 L36.25 20.5 35.25 20.25 34.8 20.3 35.15 20.8 36.05 21.2 Q36.65 21.3 36.95 21.0 L37.35 20.35 36.95 20.5" fill="#ba7f0a" fill-rule="evenodd" stroke="none"/>
      <path d="M35.1 18.65 L35.1 19.15 35.6 19.5 36.15 19.45 36.25 19.0 36.2 18.55 35.85 18.25 Q35.6 18.25 35.45 18.4 L35.1 18.65" fill="#fae9a7" fill-rule="evenodd" stroke="none"/>
      <path d="M37.0 18.75 L41.05 19.6 36.95 19.25 36.85 21.05 36.7 19.3 35.5 18.85 36.6 18.75 36.75 15.9 37.0 18.75" fill="#fcf3d8" fill-opacity="0.7921569" fill-rule="evenodd" stroke="none"/>
      <path d="M37.75 19.5 L38.4 20.4 Q37.8 20.0 37.35 20.05 L36.8 20.3 Q36.35 20.3 36.0 20.0 35.65 19.7 35.6 19.25 L34.75 19.15 35.6 18.9 35.9 18.35 36.3 17.95 36.35 17.5 36.6 17.9 36.65 17.9 37.4 18.1 37.8 18.9 37.75 19.5 M36.25 18.65 L36.15 19.05 36.35 19.45 36.75 19.55 Q37.0 19.55 37.15 19.35 L37.25 18.95 37.05 18.55 Q36.85 18.35 36.65 18.4 L36.25 18.65" fill="#fcf3d8" fill-opacity="0.3019608" fill-rule="evenodd" stroke="none"/>
      <path d="M36.25 18.65 L36.65 18.4 Q36.85 18.35 37.05 18.55 L37.25 18.95 37.15 19.35 Q37.0 19.55 36.75 19.55 L36.35 19.45 36.15 19.05 36.25 18.65" fill="#fcf3d8" fill-opacity="0.84313726" fill-rule="evenodd" stroke="none"/>
      <path d="M41.25 23.1 L41.7 22.15 Q42.5 18.6 40.15 17.35 L39.25 17.1 Q38.2 14.8 36.45 12.8 L35.4 11.65 35.25 11.55 34.15 10.6 34.3 9.7 Q32.55 7.0 29.6 7.2 L29.0 7.55 Q26.5 6.6 23.75 6.4 L23.85 6.25 21.85 6.15 20.5 6.25 20.6 6.35 19.35 6.45 18.6 6.55 18.3 6.0 Q15.8 5.25 12.65 7.7 L11.95 7.85 Q11.45 8.15 11.3 8.65 L11.3 8.95 10.3 10.05 8.8 11.55 Q7.6 12.15 6.45 14.05 5.3 15.95 5.4 16.25 5.15 16.15 5.15 15.6 L4.5 16.15 Q2.9 18.75 3.5 20.55 L3.7 21.05 Q3.35 22.65 3.35 24.3 L3.4 25.75 Q3.85 32.4 8.8 37.1 11.25 39.55 14.25 40.85 16.95 42.0 20.0 42.35 L22.05 42.45 Q26.55 42.45 30.3 40.6 L31.3 40.1 Q33.35 38.95 35.25 37.1 38.95 33.5 40.2 28.9 40.7 26.8 40.7 24.3 L40.7 23.35 40.65 22.95 41.25 23.1 M27.4 20.85 L26.55 19.8 26.75 19.35 27.2 19.8 27.65 20.25 27.35 20.5 27.4 20.85 M27.65 21.35 L29.0 25.75 30.15 26.5 31.65 26.5 31.05 25.35 31.35 25.15 Q32.35 27.2 32.55 29.4 32.75 31.1 32.55 32.6 29.9 34.2 26.2 33.85 20.95 33.25 17.7 31.5 L17.7 31.45 17.55 31.35 17.4 31.3 17.3 31.2 17.25 31.2 17.2 31.2 17.15 31.15 15.55 30.0 13.8 28.3 Q12.75 27.0 11.85 25.25 L10.9 23.05 Q10.25 21.45 10.15 20.0 L11.95 20.05 Q13.75 19.6 14.65 18.75 L15.5 17.8 16.2 16.5 15.0 16.55 14.8 16.15 17.75 15.85 20.15 16.05 19.85 17.05 25.2 20.2 27.45 20.9 27.65 21.35" fill="none" stroke="#000000" stroke-linecap="round" stroke-linejoin="round" stroke-opacity="0.4509804" stroke-width="0.5"/>
      <path d="M8.5 11.45 L13.6 2.35 9.6 11.95 13.85 13.6 9.55 12.65 7.55 15.05 8.15 12.4 1.5 9.9 8.5 11.45" fill="#fcf3d8" fill-opacity="0.7921569" fill-rule="evenodd" stroke="none"/>
      <path d="M10.85 10.25 Q11.75 10.5 13.45 9.5 12.1 10.5 11.8 11.7 L11.95 13.1 Q11.7 14.15 10.75 14.75 9.75 15.35 8.55 15.1 L7.8 17.1 7.8 14.8 Q7.15 14.5 6.6 13.8 6.15 13.15 6.1 12.5 L5.0 12.0 6.2 11.7 6.15 11.6 Q6.5 10.55 7.35 9.95 8.4 9.45 9.55 9.65 10.3 9.85 10.85 10.25 M7.6 13.05 L8.55 13.7 9.65 13.5 Q10.15 13.2 10.25 12.7 10.4 12.05 10.05 11.6 9.75 11.15 9.05 11.0 L7.95 11.1 Q7.5 11.4 7.4 12.0 7.35 12.6 7.6 13.05" fill="#fcf3d8" fill-opacity="0.3019608" fill-rule="evenodd" stroke="none"/>
      <path d="M7.6 13.05 Q7.35 12.6 7.4 12.0 7.5 11.4 7.95 11.1 L9.05 11.0 Q9.75 11.15 10.05 11.6 10.4 12.05 10.25 12.7 10.15 13.2 9.65 13.5 L8.55 13.7 7.6 13.05" fill="#fcf3d8" fill-opacity="0.84313726" fill-rule="evenodd" stroke="none"/>
      <path d="M28.0 7.5 L30.95 2.3 28.6 7.75 31.05 8.7 28.6 8.15 27.45 9.55 27.8 8.05 24.0 6.6 28.0 7.5" fill="#fcf3d8" fill-opacity="0.7921569" fill-rule="evenodd" stroke="none"/>
      <path d="M29.3 6.8 Q29.85 7.0 30.9 6.4 30.0 6.95 29.9 7.6 L29.95 8.45 Q29.85 9.05 29.3 9.4 L28.0 9.6 27.55 10.75 27.55 9.4 26.9 8.85 26.55 8.1 25.95 7.8 26.65 7.65 26.6 7.6 Q26.8 7.0 27.35 6.65 L28.6 6.5 29.3 6.8 M27.45 8.45 L28.0 8.8 28.65 8.7 29.0 8.2 28.9 7.6 28.35 7.25 27.7 7.3 27.35 7.8 27.45 8.45" fill="#fcf3d8" fill-opacity="0.3019608" fill-rule="evenodd" stroke="none"/>
      <path d="M27.45 8.45 L27.35 7.8 27.7 7.3 28.35 7.25 28.9 7.6 29.0 8.2 28.65 8.7 28.0 8.8 27.45 8.45" fill="#fcf3d8" fill-opacity="0.84313726" fill-rule="evenodd" stroke="none"/>
    </g>
  </defs>
</svg>
