<?xml version="1.0" encoding="UTF-8" standalone="no"?>
<svg xmlns:xlink="http://www.w3.org/1999/xlink" height="440.0px" width="440.0px" xmlns="http://www.w3.org/2000/svg">
  <g transform="matrix(10.0, 0.0, 0.0, 10.0, 0.0, 0.0)">
    <use height="44.0" transform="matrix(1.0, 0.0, 0.0, 1.0, 0.0, 0.0)" width="44.0" xlink:href="#shape0"/>
    <use height="25.85" transform="matrix(1.0739, -0.0569, 0.0569, 1.0739, 6.3178, 13.4155)" width="27.0" xlink:href="#sprite0"/>
    <use height="22.65" transform="matrix(1.0, 0.0, 0.0, 1.0, 11.3, 16.25)" width="25.2" xlink:href="#shape2"/>
    <use height="35.1" transform="matrix(0.7801, 0.0372, -0.0372, 0.7801, 8.2327, 12.135)" width="36.25" xlink:href="#sprite1"/>
    <use height="21.9" transform="matrix(1.0, 0.0, 0.0, 1.0, 6.55, 5.5)" width="30.9" xlink:href="#shape4"/>
    <use height="1.3" transform="matrix(-1.6219, -8.5345, 10.5901, -1.9678, 8.9428, 16.9)" width="1.3" xlink:href="#sprite2"/>
    <use height="22.8" transform="matrix(1.0, 0.0, 0.0, 1.0, 5.15, 10.7)" width="28.7" xlink:href="#shape6"/>
  </g>
  <defs>
    <g id="shape0" transform="matrix(1.0, 0.0, 0.0, 1.0, 0.0, 0.0)">
      <path d="M44.0 44.0 L0.0 44.0 0.0 0.0 44.0 0.0 44.0 44.0 M27.4 11.0 Q26.2 8.9 24.15 7.65 22.25 6.55 20.1 6.35 L19.1 6.35 18.85 6.35 17.4 6.65 17.05 6.3 15.9 6.25 15.35 7.0 15.3 7.05 13.65 7.65 13.6 7.65 10.05 10.0 9.65 9.9 9.5 9.9 9.4 10.65 9.35 10.7 8.7 11.6 8.6 11.7 8.65 11.65 8.45 12.0 8.4 12.1 8.2 12.4 8.15 12.8 8.25 13.1 8.0 13.6 7.6 14.75 7.45 15.3 Q7.15 16.75 7.4 18.3 L7.6 19.05 Q8.1 20.5 9.45 21.25 L10.05 21.45 11.0 21.65 12.35 21.65 13.0 21.45 13.35 21.2 13.5 21.0 14.0 20.3 14.2 19.6 14.15 19.25 13.8 19.05 13.3 19.3 13.1 19.3 13.0 19.1 13.05 18.25 13.25 18.3 13.45 18.25 13.6 18.1 13.95 18.15 14.25 18.05 14.1 17.6 15.3 16.4 15.55 16.7 15.95 17.0 16.4 17.35 Q17.9 18.15 19.6 18.05 L19.8 18.45 20.4 18.35 20.75 18.95 21.0 19.8 20.9 19.9 Q20.55 20.55 21.2 20.7 L21.1 21.15 21.0 21.5 20.45 21.9 20.4 21.95 20.05 22.0 19.1 22.1 19.0 22.25 Q19.1 23.3 19.8 24.1 20.6 25.25 21.8 25.95 L22.25 26.1 Q23.05 26.55 23.95 26.65 L26.8 26.15 27.5 25.85 27.85 25.65 28.45 25.15 30.05 23.0 30.45 21.9 30.7 20.05 30.6 19.3 30.85 19.15 30.8 17.65 30.6 16.6 Q30.25 15.05 29.3 13.7 L28.95 13.3 28.6 12.9 28.15 12.45 28.4 11.45 27.9 10.9 27.4 11.0" fill="#43adca" fill-opacity="0.0" fill-rule="evenodd" stroke="none"/>
    </g>
    <g id="sprite0" transform="matrix(1.0, 0.0, 0.0, 1.0, 13.5, 12.9)">
      <use height="25.85" transform="matrix(1.0, 0.0, 0.0, 1.0, -13.5, -12.9)" width="27.0" xlink:href="#shape1"/>
    </g>
    <g id="shape1" transform="matrix(1.0, 0.0, 0.0, 1.0, 13.5, 12.9)">
      <path d="M6.1 -11.25 L6.25 -11.4 Q6.45 -11.35 6.6 -11.25 L6.1 -11.25" fill="#444444" fill-rule="evenodd" stroke="none"/>
      <path d="M6.2 -11.4 L6.25 -11.4 6.1 -11.25 6.2 -11.4" fill="url(#gradient0)" fill-rule="evenodd" stroke="none"/>
      <path d="M6.2 -11.4 L6.1 -11.25 6.6 -11.25 Q9.35 -9.95 11.05 -7.55 L12.05 -5.75 13.1 -2.7 12.9 -3.05 Q11.55 -6.05 8.8 -7.55 L8.4 -7.7 6.6 -8.5 5.9 -8.7 0.75 -8.85 -2.0 -7.95 -2.2 -7.85 Q-6.6 -5.8 -8.25 -1.45 L-8.95 1.15 Q-9.35 4.1 -8.05 6.95 L-7.1 8.5 Q-5.2 11.25 -1.7 12.4 L-0.5 12.7 -4.75 12.05 -6.8 11.2 Q-10.35 9.4 -12.1 5.8 -13.6 2.5 -13.15 -0.9 L-12.3 -3.9 Q-10.4 -8.9 -5.35 -11.25 L-5.15 -11.35 Q-3.55 -12.15 -1.95 -12.4 L4.0 -12.25 4.8 -12.0 6.2 -11.4" fill="#d4c59c" fill-rule="evenodd" stroke="none"/>
      <path d="M13.1 -2.7 Q13.65 0.55 12.35 3.95 10.4 8.95 5.35 11.3 2.45 12.65 -0.5 12.7 L-1.7 12.4 Q-5.2 11.25 -7.1 8.5 L-8.05 6.95 Q-9.35 4.1 -8.95 1.15 L-8.25 -1.45 Q-6.6 -5.8 -2.2 -7.85 L-2.0 -7.95 0.75 -8.85 5.9 -8.7 6.6 -8.5 8.4 -7.7 8.8 -7.55 Q11.55 -6.05 12.9 -3.05 L13.1 -2.7 M4.95 -4.15 L4.15 -4.45 Q1.3 -5.15 -1.55 -3.75 -4.45 -2.4 -5.65 0.2 L-6.05 1.4 -5.6 2.95 Q-4.7 5.05 -2.3 5.65 0.2 6.2 2.6 5.1 L4.05 4.15 Q5.35 3.15 6.05 1.7 7.05 -0.55 6.05 -2.6 5.65 -3.55 4.95 -4.15" fill="#bfa66a" fill-rule="evenodd" stroke="none"/>
      <path d="M6.25 -11.4 L6.2 -11.4 M6.25 -11.4 Q6.45 -11.35 6.6 -11.25 9.35 -9.95 11.05 -7.55 L12.05 -5.75 13.1 -2.7 Q13.65 0.55 12.35 3.95 10.4 8.95 5.35 11.3 2.45 12.65 -0.5 12.7 L-4.75 12.05 -6.8 11.2 Q-10.35 9.4 -12.1 5.8 -13.6 2.5 -13.15 -0.9 L-12.3 -3.9 Q-10.4 -8.9 -5.35 -11.25 L-5.15 -11.35 Q-3.55 -12.15 -1.95 -12.4 L4.0 -12.25 4.8 -12.0 6.2 -11.4" fill="none" stroke="#000000" stroke-linecap="round" stroke-linejoin="round" stroke-opacity="0.3019608" stroke-width="0.5"/>
      <path d="M-10.75 -1.55 Q-11.4 -4.1 -10.05 -6.25 -8.5 -8.4 -5.55 -8.35 -7.5 -7.65 -8.75 -6.05 -9.9 -4.4 -10.75 -1.55" fill="#ebe2cf" fill-rule="evenodd" stroke="none"/>
      <path d="M4.9 -4.3 Q7.2 -3.4 8.15 -1.35 9.05 0.55 8.45 2.75 L6.6 2.6 7.85 4.2 6.2 6.3 Q6.45 4.4 4.05 4.05 5.4 3.05 6.05 1.55 7.05 -0.7 6.1 -2.75 L4.9 -4.3" fill="#eae3d9" fill-rule="evenodd" stroke="none"/>
      <path d="M4.05 4.05 Q6.45 4.4 6.2 6.3 L4.0 7.75 2.95 8.15 Q0.1 7.6 -0.85 5.7 0.8 5.8 2.6 5.0 L4.05 4.05" fill="#aaa080" fill-rule="evenodd" stroke="none"/>
      <path d="M-6.05 1.25 L-5.65 2.85 -5.55 3.0 Q-5.1 3.85 -4.45 4.35 -4.45 5.7 -1.35 8.4 L-1.7 8.35 Q-4.6 7.65 -5.7 5.25 -6.6 3.35 -6.05 1.25" fill="#71684a" fill-rule="evenodd" stroke="none"/>
      <path d="M7.85 4.2 L6.6 2.6 8.45 2.75 9.45 4.45 7.85 4.2 M-4.45 4.35 Q-3.6 5.15 -2.25 5.5 L-0.85 5.7 Q0.1 7.6 2.95 8.15 L-1.35 8.4 Q-4.45 5.7 -4.45 4.35" fill="#8e8566" fill-rule="evenodd" stroke="none"/>
      <path d="M4.9 -4.3 L6.1 -2.75 Q7.05 -0.7 6.05 1.55 5.4 3.05 4.05 4.05 M4.9 -4.3 L4.15 -4.6 Q1.35 -5.3 -1.5 -3.9 -4.4 -2.5 -5.65 0.15 L-6.05 1.25 -5.65 2.85 -5.55 3.0 Q-5.1 3.85 -4.45 4.35 -3.6 5.15 -2.25 5.5 L-0.85 5.7 Q0.8 5.8 2.6 5.0 L4.05 4.05" fill="none" stroke="#382510" stroke-linecap="round" stroke-linejoin="round" stroke-opacity="0.3019608" stroke-width="1.0"/>
    </g>
    <linearGradient gradientTransform="matrix(0.0083, -0.004, 0.0017, 0.0035, -7.6, -6.7)" gradientUnits="userSpaceOnUse" id="gradient0" spreadMethod="pad" x1="-819.2" x2="819.2">
      <stop offset="0.0" stop-color="#534226"/>
      <stop offset="1.0" stop-color="#3a2e1b"/>
    </linearGradient>
    <g id="shape2" transform="matrix(1.0, 0.0, 0.0, 1.0, -11.3, -16.25)">
      <path d="M13.75 35.0 L13.3 34.7 12.2 33.65 12.05 32.8 12.1 32.8 12.05 32.65 12.05 32.8 12.0 32.8 12.0 32.55 12.1 32.15 12.15 32.1 13.6 33.3 13.8 33.45 13.75 35.0" fill="#472916" fill-rule="evenodd" stroke="none"/>
      <path d="M13.8 33.45 L13.6 33.3 12.15 32.1 12.15 32.05 Q12.2 31.9 12.35 31.9 13.25 31.85 13.95 32.35 14.75 32.95 14.7 33.95 L13.8 33.45" fill="#3a2212" fill-rule="evenodd" stroke="none"/>
      <path d="M13.75 35.0 L13.8 33.45 14.7 33.95 14.7 34.0 14.95 34.4 14.75 35.15 13.75 35.0" fill="#27160c" fill-rule="evenodd" stroke="none"/>
      <path d="M11.3 22.4 L11.55 21.9 12.35 20.6 13.1 20.3 13.1 20.4 13.25 20.25 13.1 20.3 13.35 20.2 13.75 20.2 13.85 20.2 12.95 21.95 12.85 22.2 11.3 22.4" fill="#472916" fill-rule="evenodd" stroke="none"/>
      <path d="M12.85 22.2 L12.95 21.95 13.85 20.2 14.1 20.4 Q14.35 21.3 13.95 22.05 13.5 22.95 12.5 23.1 L12.85 22.2" fill="#3a2212" fill-rule="evenodd" stroke="none"/>
      <path d="M11.3 22.4 L12.85 22.2 12.5 23.1 12.45 23.15 12.15 23.5 11.35 23.45 11.3 22.4" fill="#27160c" fill-rule="evenodd" stroke="none"/>
      <path d="M16.0 29.05 L15.9 29.1 Q15.25 28.25 15.2 27.65 L15.4 27.0 15.7 27.7 16.0 29.05" fill="#27160c" fill-rule="evenodd" stroke="none"/>
      <path d="M16.0 29.05 L15.7 27.7 16.65 26.75 16.8 27.55 16.8 27.85 16.7 28.05 16.45 28.55 16.0 29.05" fill="#472916" fill-rule="evenodd" stroke="none"/>
      <path d="M15.7 27.7 L15.4 27.0 15.4 26.95 15.5 26.75 Q15.8 26.1 16.05 25.9 L16.65 26.65 16.65 26.75 15.7 27.7" fill="#54311b" fill-rule="evenodd" stroke="none"/>
      <path d="M33.9 31.75 L33.95 31.8 Q33.9 32.85 33.55 33.35 L33.0 33.7 33.25 33.05 33.9 31.75" fill="#27160c" fill-rule="evenodd" stroke="none"/>
      <path d="M33.9 31.75 L33.25 33.05 31.9 33.05 Q31.95 32.75 32.3 32.4 L32.5 32.15 32.75 32.05 33.25 31.85 33.9 31.75" fill="#472916" fill-rule="evenodd" stroke="none"/>
      <path d="M33.25 33.05 L33.0 33.7 32.9 33.7 32.75 33.85 31.75 34.15 31.85 33.15 31.9 33.05 33.25 33.05" fill="#54311b" fill-rule="evenodd" stroke="none"/>
      <path d="M14.45 37.35 L14.35 37.3 Q14.95 36.1 15.6 35.75 L16.35 35.6 15.75 36.25 14.45 37.35" fill="#27160c" fill-rule="evenodd" stroke="none"/>
      <path d="M14.45 37.35 L15.75 36.25 17.35 36.9 16.55 37.45 16.15 37.55 15.85 37.6 15.2 37.55 14.45 37.35" fill="#472916" fill-rule="evenodd" stroke="none"/>
      <path d="M15.75 36.25 L16.35 35.6 16.45 35.65 16.75 35.6 17.95 35.75 17.4 36.75 17.35 36.9 15.75 36.25" fill="#3a2212" fill-rule="evenodd" stroke="none"/>
      <path d="M34.2 16.35 Q34.95 16.75 35.65 18.5 L35.7 18.75 35.7 20.0 35.05 18.95 34.2 16.35" fill="#472916" fill-rule="evenodd" stroke="none"/>
      <path d="M34.2 16.35 L35.05 18.95 34.3 17.5 33.6 16.3 33.7 16.25 34.05 16.3 34.2 16.35" fill="#54311b" fill-rule="evenodd" stroke="none"/>
      <path d="M35.05 18.95 L35.7 20.0 35.6 20.05 34.85 19.5 Q34.5 19.25 34.05 19.3 L34.3 17.5 35.05 18.95" fill="#27160c" fill-rule="evenodd" stroke="none"/>
      <path d="M34.05 19.3 L33.9 18.4 33.55 16.3 33.6 16.3 34.3 17.5 34.05 19.3" fill="#3a2212" fill-rule="evenodd" stroke="none"/>
      <path d="M36.5 25.65 L36.5 25.75 34.9 25.45 34.5 25.0 35.2 25.15 36.5 25.65" fill="#27160c" fill-rule="evenodd" stroke="none"/>
      <path d="M36.5 25.65 L35.2 25.15 35.0 23.75 35.75 24.15 35.95 24.35 36.1 24.5 36.35 25.05 36.5 25.65" fill="#472916" fill-rule="evenodd" stroke="none"/>
      <path d="M35.2 25.15 L34.5 25.0 34.45 24.9 34.35 24.7 33.95 23.75 34.9 23.75 35.0 23.75 35.2 25.15" fill="#54311b" fill-rule="evenodd" stroke="none"/>
      <path d="M22.3 38.15 L24.8 37.2 Q24.45 37.95 22.75 38.75 L22.45 38.8 21.25 38.85 22.3 38.15" fill="#472916" fill-rule="evenodd" stroke="none"/>
      <path d="M24.85 36.55 L24.9 36.65 24.85 37.0 24.8 37.2 22.3 38.15 23.65 37.3 24.85 36.55" fill="#54311b" fill-rule="evenodd" stroke="none"/>
      <path d="M23.65 37.3 L22.3 38.15 21.25 38.85 21.2 38.75 Q21.25 38.5 21.65 37.95 L21.85 37.15 23.65 37.3" fill="#27160c" fill-rule="evenodd" stroke="none"/>
      <path d="M24.85 36.55 L23.65 37.3 21.85 37.15 22.8 36.95 24.85 36.5 24.85 36.55" fill="#3a2212" fill-rule="evenodd" stroke="none"/>
    </g>
    <g id="sprite1" transform="matrix(1.0, 0.0, 0.0, 1.0, 18.1, 17.55)">
      <use height="35.1" transform="matrix(1.0, 0.0, 0.0, 1.0, -18.1, -17.55)" width="36.25" xlink:href="#shape3"/>
    </g>
    <g id="shape3" transform="matrix(1.0, 0.0, 0.0, 1.0, 18.1, 17.55)">
      <path d="M6.95 -16.45 L7.5 -16.3 Q11.4 -14.95 14.1 -11.9 L15.7 -9.55 Q16.85 -7.55 17.6 -5.5 18.8 -1.15 17.45 3.7 15.5 10.8 8.9 14.75 5.1 17.0 1.05 17.45 L-4.85 17.15 -7.75 16.3 Q-12.9 14.35 -15.8 9.6 -18.3 5.3 -18.1 0.55 -18.0 -1.5 -17.4 -3.65 -15.5 -10.75 -8.9 -14.65 L-8.6 -14.85 Q-6.55 -16.15 -4.35 -16.75 -0.35 -17.95 3.8 -17.35 L4.95 -17.1 6.9 -16.45 6.95 -16.45 M5.1 -6.65 Q1.1 -7.25 -2.6 -4.95 -5.45 -3.25 -6.9 -0.75 L-7.4 -0.2 -7.35 0.2 -7.7 1.05 -8.0 1.95 -8.1 2.6 Q-8.55 5.45 -7.1 7.95 -5.2 11.1 -1.25 11.7 L-0.7 11.75 Q2.35 12.1 5.15 10.75 L6.55 10.0 9.35 7.75 Q10.6 6.35 11.3 4.65 L13.55 4.8 11.95 2.6 Q12.55 -0.45 11.0 -3.05 9.35 -5.7 6.15 -6.6 L5.9 -6.5 5.1 -6.65" fill="url(#gradient1)" fill-rule="evenodd" stroke="none"/>
    </g>
    <linearGradient gradientTransform="matrix(-0.0081, -0.0137, 0.0184, -0.011, 3.0, 1.9)" gradientUnits="userSpaceOnUse" id="gradient1" spreadMethod="pad" x1="-819.2" x2="819.2">
      <stop offset="0.0" stop-color="#534226"/>
      <stop offset="1.0" stop-color="#544226" stop-opacity="0.0"/>
    </linearGradient>
    <g id="shape4" transform="matrix(1.0, 0.0, 0.0, 1.0, -6.55, -5.5)">
      <path d="M30.1 10.85 L30.4 10.45 Q30.75 10.15 31.35 10.0 L33.3 10.2 Q34.0 10.4 34.3 10.95 34.65 12.8 32.15 13.85 L31.85 14.0 31.6 14.15 30.9 12.45 30.1 10.85 M28.75 9.05 Q29.1 9.1 29.35 9.4 29.9 9.9 29.95 10.6 L28.75 9.05 M31.7 14.65 Q33.6 14.9 32.55 17.75 L32.4 17.95 32.15 18.2 Q32.2 16.45 31.7 14.65" fill="#ffffff" fill-rule="evenodd" stroke="none"/>
      <path d="M34.3 10.95 L34.65 11.75 Q34.75 12.35 34.3 13.1 L33.65 14.1 33.65 14.2 Q34.1 13.95 34.55 13.85 35.7 13.6 35.95 14.7 36.15 15.8 35.75 16.15 L35.4 16.4 35.9 16.6 36.85 16.55 37.2 16.15 36.6 17.25 Q35.95 18.1 35.1 18.3 34.15 18.5 33.45 17.75 L33.9 19.0 Q34.15 20.0 33.35 21.05 32.65 22.0 31.65 22.25 L31.35 22.3 Q32.1 20.3 32.15 18.2 L31.85 18.45 30.25 18.95 Q29.0 19.2 25.05 14.1 L25.55 11.9 26.45 9.85 26.65 9.5 26.8 9.35 27.05 9.1 27.55 9.0 28.75 9.05 29.95 10.6 29.85 10.95 29.9 11.05 30.1 10.85 30.9 12.45 31.6 14.15 31.85 14.0 32.15 13.85 Q34.65 12.8 34.3 10.95 M31.7 14.65 L31.6 14.15 Q30.3 14.6 30.3 14.7 L31.3 14.65 31.7 14.65 Q32.2 16.45 32.15 18.2 L32.4 17.95 32.55 17.75 Q33.6 14.9 31.7 14.65" fill="#dad3c7" fill-rule="evenodd" stroke="none"/>
      <path d="M31.35 22.3 L29.9 22.3 28.4 21.6 Q27.5 21.05 26.4 19.05 25.3 17.3 25.1 16.35 24.9 15.25 25.05 14.1 29.0 19.2 30.25 18.95 L31.85 18.45 32.15 18.2 Q32.1 20.3 31.35 22.3 M31.7 14.65 L31.3 14.65 30.3 14.7 Q30.3 14.6 31.6 14.15 L31.7 14.65" fill="#b8a994" fill-rule="evenodd" stroke="none"/>
      <path d="M30.1 10.85 L30.4 10.45 Q30.75 10.15 31.35 10.0 L33.3 10.2 Q34.0 10.4 34.3 10.95 L34.65 11.75 Q34.75 12.35 34.3 13.1 L33.65 14.1 33.65 14.2 Q34.1 13.95 34.55 13.85 35.7 13.6 35.95 14.7 36.15 15.8 35.75 16.15 L35.4 16.4 35.9 16.6 36.85 16.55 37.2 16.15 36.6 17.25 Q35.95 18.1 35.1 18.3 34.15 18.5 33.45 17.75 L33.9 19.0 Q34.15 20.0 33.35 21.05 32.65 22.0 31.65 22.25 L31.35 22.3 29.9 22.3 28.4 21.6 Q27.5 21.05 26.4 19.05 25.3 17.3 25.1 16.35 24.9 15.25 25.05 14.1 L25.55 11.9 26.45 9.85 26.65 9.5 26.8 9.35 27.05 9.1 27.55 9.0 28.75 9.05 Q29.1 9.1 29.35 9.4 29.9 9.9 29.95 10.6" fill="none" stroke="#2e1a0c" stroke-linecap="round" stroke-linejoin="round" stroke-opacity="0.2" stroke-width="0.5"/>
      <path d="M22.3 8.3 L23.75 8.25 Q22.25 6.75 20.2 7.1 L22.3 8.3 M24.6 8.85 L24.4 9.1 24.4 9.4 24.65 9.55 24.95 9.55 25.15 9.3 25.15 9.0 Q25.0 8.85 24.85 8.8 L24.6 8.85 M27.8 12.1 L27.55 11.9 26.5 12.2 Q24.15 12.7 22.35 14.2 L21.0 14.35 Q22.35 12.6 24.05 11.2 22.15 11.75 20.65 13.05 L20.85 12.6 19.75 14.05 17.55 13.75 Q16.4 13.3 15.95 12.15 L15.75 11.55 16.05 10.55 17.15 8.45 19.1 6.35 20.1 6.35 Q22.25 6.55 24.15 7.65 26.2 8.9 27.4 11.0 L27.9 10.9 28.4 11.45 28.15 12.45 27.8 12.1" fill="url(#gradient2)" fill-rule="evenodd" stroke="none"/>
      <path d="M24.6 8.85 L24.85 8.8 Q25.0 8.85 25.15 9.0 L25.15 9.3 24.95 9.55 24.65 9.55 24.4 9.4 24.4 9.1 24.6 8.85 M22.3 8.3 L20.2 7.1 Q22.25 6.75 23.75 8.25 L22.3 8.3" fill="#d16a14" fill-rule="evenodd" stroke="none"/>
      <path d="M26.5 12.2 L27.55 11.9 27.8 12.1 Q26.4 12.75 25.15 13.6 L23.0 15.35 22.5 15.95 21.95 15.3 23.6 13.8 Q25.0 12.8 26.5 12.2 M25.25 14.1 L22.9 16.3 22.5 15.95 25.25 14.1" fill="#e09d43" fill-rule="evenodd" stroke="none"/>
      <path d="M29.1 14.95 Q30.35 15.8 29.5 16.7 28.6 15.9 28.65 14.85 L29.1 14.95" fill="#d97116" fill-rule="evenodd" stroke="none"/>
      <path d="M29.1 14.95 L28.65 14.85 Q28.6 15.9 29.5 16.7 30.35 15.8 29.1 14.95 M28.95 13.3 L27.05 14.25 29.3 13.7 Q30.25 15.05 30.6 16.6 L30.8 17.65 28.5 19.3 28.05 19.5 Q27.1 18.9 26.5 19.95 L26.45 20.05 24.6 20.5 Q24.85 19.75 24.6 19.05 24.15 17.4 22.9 16.3 L25.25 14.1 28.6 12.9 28.95 13.3 M13.6 7.65 L13.65 7.65 15.3 7.05 15.35 7.05 Q14.25 8.55 13.9 10.3 L13.75 12.95 13.45 13.4 13.0 12.0 10.85 13.4 10.3 11.85 Q10.45 13.4 11.0 14.9 11.55 16.35 12.65 17.6 L11.95 17.1 11.55 16.65 10.9 15.75 Q10.1 14.55 9.8 12.95 9.55 11.4 9.65 9.9 L10.05 10.0 13.6 7.65" fill="url(#gradient3)" fill-rule="evenodd" stroke="none"/>
      <path d="M29.3 13.7 L27.05 14.25 28.95 13.3 29.3 13.7" fill="#973101" fill-rule="evenodd" stroke="none"/>
      <path d="M27.8 12.1 L28.15 12.45 28.6 12.9 25.25 14.1 22.5 15.95 22.9 16.3 Q21.55 17.5 20.75 18.95 L20.4 18.35 19.8 18.45 19.6 18.05 20.5 16.4 Q21.3 15.2 22.35 14.2 24.15 12.7 26.5 12.2 25.0 12.8 23.6 13.8 L21.95 15.3 22.5 15.95 23.0 15.35 25.15 13.6 Q26.4 12.75 27.8 12.1 M21.95 15.3 L20.2 17.85 20.4 18.35 20.2 17.85 21.95 15.3" fill="#d2721b" fill-rule="evenodd" stroke="none"/>
      <path d="M15.75 11.55 L15.95 12.15 Q16.4 13.3 17.55 13.75 L19.75 14.05 20.85 12.6 20.65 13.05 Q22.15 11.75 24.05 11.2 22.35 12.6 21.0 14.35 L22.35 14.2 Q21.3 15.2 20.5 16.4 L19.6 18.05 Q17.9 18.15 16.4 17.35 L15.95 17.0 15.55 16.7 15.4 15.65 15.4 13.4 15.75 11.55" fill="#a04f12" fill-rule="evenodd" stroke="none"/>
      <path d="M22.9 16.3 Q24.15 17.4 24.6 19.05 24.85 19.75 24.6 20.5 L24.7 21.1 21.2 20.7 Q20.55 20.55 20.9 19.9 L21.0 19.8 20.75 18.95 Q21.55 17.5 22.9 16.3 M20.05 22.0 Q19.35 23.1 19.8 24.1 19.1 23.3 19.0 22.25 L19.1 22.1 20.05 22.0 M21.8 25.95 L21.25 25.15 Q20.6 24.05 20.45 22.8 L20.45 21.9 21.0 21.5 21.8 21.85 Q23.3 22.45 25.0 22.65 L25.05 22.9 Q25.45 23.95 25.3 25.05 L23.4 24.2 Q22.05 23.3 21.0 22.05 L20.85 22.2 Q21.35 23.45 22.35 24.35 23.5 25.35 25.05 25.7 L24.15 26.6 23.95 26.65 Q23.05 26.55 22.25 26.1 L21.8 25.95 M13.9 10.3 L14.65 10.85 15.4 11.2 Q14.9 12.7 15.0 14.3 L15.3 16.4 14.1 17.6 14.25 18.05 13.95 18.15 12.85 17.05 Q11.6 15.55 10.85 13.4 L13.0 12.0 13.45 13.4 13.75 12.95 13.9 10.3" fill="#9d501a" fill-rule="evenodd" stroke="none"/>
      <path d="M24.6 20.5 L26.45 20.05 Q26.4 20.4 26.85 20.65 L24.7 21.1 24.6 20.5 M28.05 19.5 L28.5 19.3 30.8 17.65 30.85 19.15 30.6 19.3 Q29.3 20.05 28.1 20.05 L28.05 19.5" fill="#eeae4d" fill-rule="evenodd" stroke="none"/>
      <path d="M21.0 21.5 L21.1 21.15 23.95 21.45 27.05 21.35 29.6 20.55 30.7 20.05 30.45 21.9 27.45 22.65 25.0 22.65 Q23.3 22.45 21.8 21.85 L21.0 21.5 M21.25 25.15 Q20.1 23.85 20.35 22.15 L20.4 21.95 20.45 21.9 20.45 22.8 Q20.6 24.05 21.25 25.15 M8.0 13.6 L8.6 14.65 Q10.1 16.85 12.45 17.9 L13.25 18.3 13.05 18.25 12.3 18.0 Q9.7 16.95 7.6 14.75 L8.0 13.6" fill="#f6bf58" fill-rule="evenodd" stroke="none"/>
      <path d="M26.45 20.05 L26.5 19.95 Q27.1 18.9 28.05 19.5 L28.1 20.05 Q29.3 20.05 30.6 19.3 L30.7 20.05 29.6 20.55 27.05 21.35 23.95 21.45 21.1 21.15 21.2 20.7 24.7 21.1 26.85 20.65 Q26.4 20.4 26.45 20.05" fill="#f09b2e" fill-rule="evenodd" stroke="none"/>
      <path d="M25.05 25.7 Q23.5 25.35 22.35 24.35 21.35 23.45 20.85 22.2 L21.0 22.05 Q22.05 23.3 23.4 24.2 L25.3 25.05 27.85 25.65 27.5 25.85 25.05 25.7 M10.05 21.45 Q10.15 19.6 11.85 19.0 L12.45 19.05 13.0 19.1 13.1 19.3 12.6 19.5 Q12.0 20.55 12.35 21.65 L11.0 21.65 10.05 21.45 M13.35 21.2 L13.0 21.45 Q12.65 21.2 12.7 20.2 L13.1 19.3 12.95 19.85 Q12.95 20.55 13.35 21.2" fill="#d67318" fill-rule="evenodd" stroke="none"/>
      <path d="M20.4 21.95 L20.35 22.15 Q20.1 23.85 21.25 25.15 L21.8 25.95 Q20.6 25.25 19.8 24.1 19.35 23.1 20.05 22.0 L20.4 21.95 M12.3 18.0 L13.05 18.25 13.0 19.1 12.45 19.05 11.85 19.0 Q10.15 19.6 10.05 21.45 L9.45 21.25 Q8.1 20.5 7.6 19.05 L7.4 18.3 Q7.25 17.2 7.9 16.1 L8.1 15.85 11.1 17.6 12.3 18.0 M13.1 19.3 L13.3 19.3 13.8 19.05 14.15 19.25 14.2 19.6 14.0 20.3 13.5 21.0 13.35 21.2 Q12.95 20.55 12.95 19.85 L13.1 19.3 12.7 20.2 Q12.65 21.2 13.0 21.45 L12.35 21.65 Q12.0 20.55 12.6 19.5 L13.1 19.3" fill="#b75c16" fill-rule="evenodd" stroke="none"/>
      <path d="M25.3 25.05 Q25.45 23.95 25.05 22.9 L25.0 22.65 27.45 22.65 30.45 21.9 30.05 23.0 28.45 25.15 27.85 25.65 25.3 25.05 M27.5 25.85 L26.8 26.15 23.95 26.65 24.15 26.6 25.05 25.7 27.5 25.85 M15.3 7.05 L15.35 7.0 15.35 7.05 15.3 7.05 M9.35 10.7 L9.4 10.65 Q9.15 12.3 9.7 13.9 10.25 15.5 11.55 16.65 L10.35 15.75 Q9.05 14.6 8.25 13.1 L8.15 12.8 8.2 12.4 8.4 12.1 8.45 12.0 8.65 11.65 8.6 11.7 8.7 11.6 8.65 11.65 8.7 11.6 9.35 10.7 M8.1 15.85 L7.9 16.1 Q7.25 17.2 7.4 18.3 7.15 16.75 7.45 15.3 L8.1 15.85" fill="url(#gradient4)" fill-rule="evenodd" stroke="none"/>
      <path d="M15.4 11.2 L14.65 10.85 13.9 10.3 Q14.25 8.55 15.35 7.05 L15.35 7.0 15.9 6.25 17.05 6.3 17.4 6.65 18.85 6.35 Q17.75 7.4 16.85 8.65 15.95 9.85 15.4 11.2 M17.1 6.7 L17.4 6.65 17.1 6.7 Q16.5 7.05 15.85 7.35 16.5 7.05 17.1 6.7" fill="#e08623" fill-rule="evenodd" stroke="none"/>
      <path d="M19.1 6.35 L17.15 8.45 16.05 10.55 15.75 11.55 15.4 13.4 15.4 15.65 15.55 16.7 15.3 16.4 15.0 14.3 Q14.9 12.7 15.4 11.2 15.95 9.85 16.85 8.65 17.75 7.4 18.85 6.35 L19.1 6.35" fill="#ecaa49" fill-rule="evenodd" stroke="none"/>
      <path d="M9.4 10.65 L9.5 9.9 9.65 9.9 Q9.55 11.4 9.8 12.95 10.1 14.55 10.9 15.75 L11.55 16.65 Q10.25 15.5 9.7 13.9 9.15 12.3 9.4 10.65 M13.25 18.3 L12.45 17.9 Q10.1 16.85 8.6 14.65 L8.0 13.6 8.25 13.1 Q9.05 14.6 10.35 15.75 L11.55 16.65 11.95 17.1 12.65 17.6 13.6 18.1 12.65 17.6 Q11.55 16.35 11.0 14.9 10.45 13.4 10.3 11.85 L10.85 13.4 Q11.6 15.55 12.85 17.05 L13.95 18.15 13.6 18.1 13.45 18.25 13.25 18.3 M7.6 14.75 Q9.7 16.95 12.3 18.0 L11.1 17.6 8.1 15.85 7.45 15.3 7.6 14.75" fill="#f19f31" fill-rule="evenodd" stroke="none"/>
      <path d="M26.5 12.2 L27.55 11.9 27.8 12.1 28.15 12.45 28.4 11.45 27.9 10.9 27.4 11.0 Q26.2 8.9 24.15 7.65 22.25 6.55 20.1 6.35 L19.1 6.35 M26.5 12.2 Q25.0 12.8 23.6 13.8 L21.95 15.3 M28.95 13.3 L28.6 12.9 28.15 12.45 M26.45 20.05 L26.5 19.95 Q27.1 18.9 28.05 19.5 M30.8 17.65 L30.6 16.6 Q30.25 15.05 29.3 13.7 L28.95 13.3 M19.6 18.05 L19.8 18.45 20.4 18.35 20.2 17.85 21.95 15.3 M20.75 18.95 L21.0 19.8 20.9 19.9 Q20.55 20.55 21.2 20.7 L24.7 21.1 M21.0 21.5 L21.1 21.15 21.2 20.7 M20.4 21.95 L20.05 22.0 M19.8 24.1 Q20.6 25.25 21.8 25.95 M20.45 21.9 L20.4 21.95 M21.0 21.5 L20.45 21.9 M26.45 20.05 Q26.4 20.4 26.85 20.65 L24.7 21.1 M30.6 19.3 Q29.3 20.05 28.1 20.05 L28.05 19.5 M20.75 18.95 L20.4 18.35 M30.8 17.65 L30.85 19.15 30.6 19.3 30.7 20.05 30.45 21.9 30.05 23.0 28.45 25.15 27.85 25.65 27.5 25.85 26.8 26.15 23.95 26.65 Q23.05 26.55 22.25 26.1 L21.8 25.95 M18.85 6.35 L17.4 6.65 17.1 6.7 M13.65 7.65 L15.3 7.05 15.35 7.0 15.9 6.25 17.05 6.3 17.4 6.65 M18.85 6.35 L19.1 6.35 M15.35 7.05 L15.35 7.0 M13.9 10.3 Q14.25 8.55 15.35 7.05 M9.4 10.65 Q9.15 12.3 9.7 13.9 10.25 15.5 11.55 16.65 L10.35 15.75 Q9.05 14.6 8.25 13.1 L8.0 13.6 7.6 14.75 M8.65 11.65 L8.7 11.6 9.35 10.7 M8.25 13.1 L8.15 12.8 8.2 12.4 8.4 12.1 8.45 12.0 8.65 11.65 M13.05 18.25 L13.25 18.3 13.45 18.25 13.6 18.1 12.65 17.6 11.95 17.1 11.55 16.65 M7.4 18.3 L7.6 19.05 Q8.1 20.5 9.45 21.25 L10.05 21.45 M13.0 19.1 L13.05 18.25 M7.45 15.3 L7.6 14.75 M7.4 18.3 Q7.15 16.75 7.45 15.3 M15.55 16.7 L15.3 16.4 14.1 17.6 14.25 18.05 13.95 18.15 13.6 18.1 M19.6 18.05 Q17.9 18.15 16.4 17.35 L15.95 17.0 15.55 16.7 M13.75 12.95 L13.9 10.3 M13.1 19.3 L13.3 19.3 13.8 19.05 14.15 19.25 14.2 19.6 14.0 20.3 13.5 21.0 13.35 21.2 13.0 21.45 12.35 21.65 11.0 21.65 10.05 21.45 M13.0 19.1 L13.1 19.3 M19.8 24.1 Q19.1 23.3 19.0 22.25 L19.1 22.1 20.05 22.0" fill="none" stroke="#000000" stroke-linecap="round" stroke-linejoin="round" stroke-opacity="0.3019608" stroke-width="1.5"/>
      <path d="M17.1 6.7 Q16.5 7.05 15.85 7.35" fill="none" stroke="#332720" stroke-linecap="round" stroke-linejoin="round" stroke-opacity="0.2509804" stroke-width="1.5"/>
      <path d="M9.4 10.65 L9.5 9.9 9.65 9.9 10.05 10.0 13.6 7.65 M9.35 10.7 L9.4 10.65" fill="none" stroke="#000000" stroke-linecap="round" stroke-linejoin="round" stroke-opacity="0.3019608" stroke-width="0.05"/>
      <path d="M13.1 19.3 L12.6 19.5" fill="none" stroke="#332720" stroke-linecap="round" stroke-linejoin="round" stroke-opacity="0.49803922" stroke-width="1.5"/>
    </g>
    <linearGradient gradientTransform="matrix(-0.0028, 0.0077, -0.1097, -0.0411, 3.15, 7.2)" gradientUnits="userSpaceOnUse" id="gradient2" spreadMethod="pad" x1="-819.2" x2="819.2">
      <stop offset="0.0" stop-color="#de8935"/>
      <stop offset="1.0" stop-color="#e17d1b"/>
    </linearGradient>
    <linearGradient gradientTransform="matrix(0.1122, 0.0342, -0.0341, 0.1142, 20.6, 12.85)" gradientUnits="userSpaceOnUse" id="gradient3" spreadMethod="pad" x1="-819.2" x2="819.2">
      <stop offset="0.0" stop-color="#de8935"/>
      <stop offset="1.0" stop-color="#e17d1b"/>
    </linearGradient>
    <linearGradient gradientTransform="matrix(-0.0028, 0.0077, -0.1097, -0.0411, 3.15, 7.2)" gradientUnits="userSpaceOnUse" id="gradient4" spreadMethod="pad" x1="-819.2" x2="819.2">
      <stop offset="0.0" stop-color="#b53802"/>
      <stop offset="1.0" stop-color="#e17d1b"/>
    </linearGradient>
    <g id="sprite2" transform="matrix(1.0, 0.0, 0.0, 1.0, 0.7, 0.75)">
      <use height="2.3" transform="matrix(0.5652, 0.0, 0.0, 0.5652, -0.7, -0.75)" width="2.3" xlink:href="#sprite3"/>
    </g>
    <g id="sprite3" transform="matrix(1.0, 0.0, 0.0, 1.0, 1.15, 1.15)">
      <use height="2.3" transform="matrix(1.0, 0.0, 0.0, 1.0, -1.15, -1.15)" width="2.3" xlink:href="#shape5"/>
    </g>
    <g id="shape5" transform="matrix(1.0, 0.0, 0.0, 1.0, 1.15, 1.15)">
      <path d="M0.8 0.8 Q0.5 1.15 0.0 1.15 -0.5 1.15 -0.85 0.8 L-1.15 0.0 -0.85 -0.85 Q-0.5 -1.15 0.0 -1.15 L0.8 -0.85 1.15 0.0 Q1.15 0.5 0.8 0.8" fill="url(#gradient5)" fill-rule="evenodd" stroke="none"/>
    </g>
    <radialGradient cx="0" cy="0" gradientTransform="matrix(0.0018, 0.0, 0.0, 0.0018, 0.0, 0.0)" gradientUnits="userSpaceOnUse" id="gradient5" r="819.2" spreadMethod="pad">
      <stop offset="0.0" stop-color="#fee3bc" stop-opacity="0.49803922"/>
      <stop offset="0.5372549019607843" stop-color="#ffe3bd" stop-opacity="0.0"/>
    </radialGradient>
    <g id="shape6" transform="matrix(1.0, 0.0, 0.0, 1.0, -5.15, -10.7)">
      <path d="M11.4 33.05 L10.85 32.7 Q10.35 32.25 10.2 31.65 L10.05 30.65 9.95 29.7 Q9.65 30.0 9.05 30.1 7.8 30.4 6.75 29.55 5.95 28.85 5.55 27.75 5.1 26.35 6.1 25.25 7.05 24.35 8.65 24.25 L8.7 24.25 8.65 24.2 8.5 23.95 8.0 23.15 Q7.5 21.5 8.0 20.45 8.55 19.35 9.95 19.05 L10.55 18.9 11.05 19.15 10.7 18.65 Q10.25 17.25 11.25 15.95 12.2 14.7 13.9 14.3 L16.95 14.5 17.4 14.9 Q18.7 16.8 15.85 20.4 L16.7 20.7 Q17.45 21.25 16.7 22.4 L15.3 23.3 Q13.85 24.05 13.2 22.9 L13.5 23.85 Q13.6 25.0 12.3 25.55 L12.9 25.75 Q13.5 26.1 13.4 26.9 L13.0 27.65 Q12.35 28.3 11.35 28.05 L11.1 29.35 12.1 31.9 Q12.6 33.15 11.4 33.05" fill="#ffffff" fill-rule="evenodd" stroke="none"/>
      <path d="M16.95 14.5 L17.35 14.7 Q19.0 15.6 19.2 17.8 19.45 17.55 19.95 17.45 L21.45 17.75 Q22.25 18.2 22.4 18.65 22.8 19.7 22.25 20.85 21.75 21.95 20.95 22.15 L20.3 22.05 20.15 22.05 20.2 22.1 20.75 22.95 Q21.1 24.05 20.45 25.0 19.9 25.85 19.05 26.0 L17.75 25.75 16.4 25.35 17.1 25.9 17.75 26.8 Q17.95 27.55 17.4 28.2 16.75 28.9 15.9 29.05 L14.85 28.9 13.75 28.85 Q12.8 29.05 12.85 31.05 12.95 33.05 12.25 33.2 L11.4 33.05 Q12.6 33.15 12.1 31.9 L11.1 29.35 11.35 28.05 Q12.35 28.3 13.0 27.65 L13.4 26.9 Q13.5 26.1 12.9 25.75 L12.3 25.55 Q13.6 25.0 13.5 23.85 L13.2 22.9 Q13.85 24.05 15.3 23.3 L16.7 22.4 Q17.45 21.25 16.7 20.7 L15.85 20.4 Q18.7 16.8 17.4 14.9 L16.95 14.5" fill="#dad3c7" fill-rule="evenodd" stroke="none"/>
      <path d="M16.95 14.5 L17.35 14.7 Q19.0 15.6 19.2 17.8 19.45 17.55 19.95 17.45 L21.45 17.75 Q22.25 18.2 22.4 18.65 22.8 19.7 22.25 20.85 21.75 21.95 20.95 22.15 L20.3 22.05 20.15 22.05 20.2 22.1 20.75 22.95 Q21.1 24.05 20.45 25.0 19.9 25.85 19.05 26.0 L17.75 25.75 16.4 25.35 17.1 25.9 17.75 26.8 Q17.95 27.55 17.4 28.2 16.75 28.9 15.9 29.05 L14.85 28.9 13.75 28.85 Q12.8 29.05 12.85 31.05 12.95 33.05 12.25 33.2 L11.4 33.05 10.85 32.7 Q10.35 32.25 10.2 31.65 L10.05 30.65 9.95 29.7 Q9.65 30.0 9.05 30.1 7.8 30.4 6.75 29.55 5.95 28.85 5.55 27.75 5.1 26.35 6.1 25.25 7.05 24.35 8.65 24.25 L8.7 24.25 8.65 24.2 8.5 23.95 8.0 23.15 Q7.5 21.5 8.0 20.45 8.55 19.35 9.95 19.05 L10.55 18.9 11.05 19.15 10.7 18.65 Q10.25 17.25 11.25 15.95 12.2 14.7 13.9 14.3 L16.95 14.5 Z" fill="none" stroke="#2e1a0c" stroke-linecap="round" stroke-linejoin="round" stroke-opacity="0.2" stroke-width="0.5"/>
      <path d="M13.9 19.3 L12.8 19.3" fill="none" stroke="#ff6666" stroke-linecap="round" stroke-linejoin="round" stroke-width="1.0"/>
      <path d="M10.45 28.05 L10.6 26.95" fill="none" stroke="#ff6666" stroke-linecap="round" stroke-linejoin="round" stroke-width="1.0"/>
      <path d="M13.0 21.55 L13.75 22.35" fill="none" stroke="#66cccc" stroke-linecap="round" stroke-linejoin="round" stroke-width="1.0"/>
      <path d="M16.75 17.4 L15.75 17.8" fill="none" stroke="#ffcc00" stroke-linecap="round" stroke-linejoin="round" stroke-width="1.0"/>
      <path d="M17.9 22.85 L17.8 21.75" fill="none" stroke="#ff6666" stroke-linecap="round" stroke-linejoin="round" stroke-width="1.0"/>
      <path d="M9.15 21.65 L10.0 22.35" fill="none" stroke="#ffcc00" stroke-linecap="round" stroke-linejoin="round" stroke-width="1.0"/>
      <path d="M33.35 13.45 L32.35 13.85" fill="none" stroke="#ffcc00" stroke-linecap="round" stroke-linejoin="round" stroke-width="1.0"/>
      <path d="M28.55 12.3 L28.45 11.2" fill="none" stroke="#ff6666" stroke-linecap="round" stroke-linejoin="round" stroke-width="1.0"/>
      <path d="M32.35 15.65 L33.1 16.45" fill="none" stroke="#66cccc" stroke-linecap="round" stroke-linejoin="round" stroke-width="1.0"/>
      <path d="M31.8 20.8 L31.95 19.7" fill="none" stroke="#ff6666" stroke-linecap="round" stroke-linejoin="round" stroke-width="1.0"/>
      <path d="M6.6 30.1 L7.35 30.9" fill="none" stroke="#66cccc" stroke-linecap="round" stroke-linejoin="round" stroke-width="1.0"/>
    </g>
  </defs>
</svg>
