<?xml version="1.0" encoding="UTF-8" standalone="no"?>
<svg xmlns:xlink="http://www.w3.org/1999/xlink" height="440.0px" width="440.0px" xmlns="http://www.w3.org/2000/svg">
  <g transform="matrix(10.0, 0.0, 0.0, 10.0, 0.0, 0.0)">
    <use height="44.0" transform="matrix(1.0, 0.0, 0.0, 1.0, 0.0, 0.0)" width="44.0" xlink:href="#shape0"/>
    <use height="23.35" transform="matrix(0.4181, 0.0, 0.0, 0.4181, 5.8803, 16.1791)" width="56.3" xlink:href="#sprite0"/>
    <use height="43.35" transform="matrix(0.4181, 0.0, 0.0, 0.4181, 3.9072, 14.798)" width="71.0" xlink:href="#sprite1"/>
    <use height="21.0" transform="matrix(1.0, 0.0, 0.0, 1.0, 30.65, 3.2)" width="10.45" xlink:href="#shape5"/>
    <use height="41.15" transform="matrix(0.278, 0.0, 0.0, 0.278, 32.5753, 3.2241)" width="28.3" xlink:href="#sprite3"/>
    <use height="10.4" transform="matrix(1.0, 0.0, 0.0, 1.0, 24.9, 18.35)" width="10.5" xlink:href="#shape7"/>
    <use height="20.35" transform="matrix(0.4181, 0.0, 0.0, 0.4181, 24.6771, 19.2562)" width="20.25" xlink:href="#sprite4"/>
    <use height="8.4" transform="matrix(1.0, 0.0, 0.0, 1.0, 25.5, 19.9)" width="5.3" xlink:href="#shape9"/>
    <use height="22.55" transform="matrix(0.4181, 0.0, 0.0, 0.4181, 24.8963, 19.3463)" width="22.55" xlink:href="#sprite5"/>
    <use height="39.6" transform="matrix(1.0, 0.0, 0.0, 1.0, 3.65, 2.95)" width="37.7" xlink:href="#shape11"/>
  </g>
  <defs>
    <g id="shape0" transform="matrix(1.0, 0.0, 0.0, 1.0, 0.0, 0.0)">
      <path d="M44.0 44.0 L0.0 44.0 0.0 0.0 44.0 0.0 44.0 44.0" fill="#43adca" fill-opacity="0.0" fill-rule="evenodd" stroke="none"/>
    </g>
    <g id="sprite0" transform="matrix(1.0, 0.0, 0.0, 1.0, 28.15, 11.65)">
      <use height="23.35" transform="matrix(1.0, 0.0, 0.0, 1.0, -28.15, -11.65)" width="56.3" xlink:href="#shape1"/>
    </g>
    <g id="shape1" transform="matrix(1.0, 0.0, 0.0, 1.0, 28.15, 11.65)">
      <path d="M-19.95 0.6 Q-11.65 -4.2 0.0 -7.8 11.65 -11.4 19.9 -11.65 27.2 -11.9 28.05 -9.35 L28.1 -9.1 28.15 -8.65 Q28.15 -5.9 22.2 -1.95 L20.0 -0.6 Q13.15 0.25 4.85 2.75 -7.1 6.3 -16.0 11.45 L-17.95 11.6 -19.95 11.7 Q-26.45 11.85 -27.85 9.9 L-28.1 9.3 -28.15 8.7 Q-28.15 5.45 -19.95 0.6" fill="url(#gradient0)" fill-rule="evenodd" stroke="none"/>
    </g>
    <linearGradient gradientTransform="matrix(0.0298, -0.0172, 0.0071, 0.0123, -9.85, 4.2)" gradientUnits="userSpaceOnUse" id="gradient0" spreadMethod="pad" x1="-819.2" x2="819.2">
      <stop offset="0.0" stop-color="#453627"/>
      <stop offset="1.0" stop-color="#453627" stop-opacity="0.0"/>
    </linearGradient>
    <g id="sprite1" transform="matrix(1.0, 0.0, 0.0, 1.0, 35.5, 21.65)">
      <use height="43.35" transform="matrix(1.0, 0.0, 0.0, 1.0, -35.5, -21.65)" width="71.0" xlink:href="#shape2"/>
      <use height="25.5" transform="matrix(1.0, 0.0, 0.0, 1.0, -34.15, -4.85)" width="58.9" xlink:href="#sprite2"/>
      <use height="27.9" transform="matrix(1.0, 0.0, 0.0, 1.0, -31.4, -19.4)" width="54.25" xlink:href="#shape4"/>
    </g>
    <g id="shape2" transform="matrix(1.0, 0.0, 0.0, 1.0, 35.5, 21.65)">
      <path d="M30.5 -16.7 Q30.5 -12.8 23.5 -7.8 L20.85 -6.05 19.5 -5.2 Q11.6 -0.5 1.25 2.95 L-1.5 3.85 -2.5 4.15 Q-9.25 6.15 -15.0 7.1 L-21.1 7.8 -23.5 7.9 -25.85 7.85 Q-33.5 7.55 -35.1 4.65 L-35.4 3.8 -35.4 3.7 -35.5 2.95 Q-35.5 -1.6 -25.85 -7.7 -16.15 -13.8 -2.5 -17.85 9.1 -21.35 17.9 -21.6 L20.85 -21.6 Q29.4 -21.3 30.4 -17.65 L30.45 -17.35 30.5 -16.7 M-18.35 4.65 Q-11.4 3.8 -2.35 1.1 9.3 -2.55 17.55 -7.35 L17.65 -7.4 18.5 -7.9 19.85 -8.75 Q24.3 -11.7 25.45 -14.0 26.5 -15.4 26.5 -16.55 L26.45 -17.0 26.4 -17.25 Q25.55 -19.8 18.25 -19.55 10.0 -19.3 -1.65 -15.7 -13.3 -12.1 -21.6 -7.3 -28.05 -3.5 -29.4 -0.65 -30.5 0.7 -30.5 1.9 L-30.45 2.5 -30.2 3.1 Q-28.8 5.05 -22.3 4.9 L-20.3 4.8 -18.35 4.65" fill="#fee689" fill-rule="evenodd" stroke="none"/>
      <path d="M19.6 -4.85 L20.35 -5.3 21.75 -6.2 24.4 -8.05 Q29.95 -12.1 31.15 -15.35 L35.5 -2.7 Q35.3 1.8 25.85 7.75 L24.65 8.5 19.6 -4.85 M-18.35 4.65 L-20.3 4.8 -22.3 4.9 Q-28.8 5.05 -30.2 3.1 L-30.45 2.5 -30.5 1.9 Q-30.5 0.7 -29.4 -0.65 -27.55 -3.1 -22.3 -6.2 -14.0 -11.0 -2.35 -14.6 9.3 -18.2 17.55 -18.45 24.85 -18.7 25.7 -16.15 L25.75 -15.9 25.8 -15.45 25.45 -14.0 Q24.3 -11.7 19.85 -8.75 L18.5 -7.9 17.65 -7.4 Q10.8 -6.55 2.5 -4.05 -9.45 -0.5 -18.35 4.65" fill="#9e6e1f" fill-rule="evenodd" stroke="none"/>
      <path d="M-14.7 8.0 L-14.65 8.0 Q-8.85 6.9 -2.0 4.7 L-1.3 4.45 1.45 3.5 6.15 16.8 3.25 17.75 2.5 17.95 Q-4.3 19.95 -10.15 20.9 L-14.7 8.0 M-15.9 21.55 L-20.85 21.65 Q-24.9 21.5 -27.25 20.65 -29.25 19.85 -30.0 18.6 L-30.45 17.4 -34.15 7.2 Q-33.2 7.95 -31.5 8.45 L-25.7 9.1 -23.3 9.05 -20.85 8.9 -20.65 8.9 -15.9 21.55" fill="#ffcc00" fill-rule="evenodd" stroke="none"/>
      <path d="M1.45 3.5 L1.85 3.35 4.4 2.4 Q11.6 -0.35 17.55 -3.65 L19.6 -4.85 24.65 8.5 22.5 9.75 Q16.45 13.1 9.1 15.8 L6.15 16.8 1.45 3.5" fill="#d69432" fill-rule="evenodd" stroke="none"/>
      <path d="M-15.0 7.1 L-14.7 8.0 -10.15 20.9 -15.9 21.55 -20.65 8.9 -21.1 7.8 -15.0 7.1 M-29.4 -0.65 Q-28.05 -3.5 -21.6 -7.3 -13.3 -12.1 -1.65 -15.7 10.0 -19.3 18.25 -19.55 25.55 -19.8 26.4 -17.25 L26.45 -17.0 26.5 -16.55 Q26.5 -15.4 25.45 -14.0 L25.8 -15.45 25.75 -15.9 25.7 -16.15 Q24.85 -18.7 17.55 -18.45 9.3 -18.2 -2.35 -14.6 -14.0 -11.0 -22.3 -6.2 -27.55 -3.1 -29.4 -0.65" fill="#fff2c4" fill-rule="evenodd" stroke="none"/>
      <path d="M19.6 -4.85 L17.55 -3.65 Q11.6 -0.35 4.4 2.4 L1.85 3.35 1.45 3.5 -1.3 4.45 -2.0 4.7 Q-8.85 6.9 -14.65 8.0 L-14.7 8.0 -15.0 7.1 Q-9.25 6.15 -2.5 4.15 L-1.5 3.85 1.25 2.95 Q11.6 -0.5 19.5 -5.2 L20.85 -6.05 23.5 -7.8 Q30.5 -12.8 30.5 -16.7 L30.7 -16.75 31.15 -15.35 Q29.95 -12.1 24.4 -8.05 L21.75 -6.2 20.35 -5.3 19.6 -4.85 M-34.15 7.2 L-35.1 4.65 Q-33.5 7.55 -25.85 7.85 L-23.5 7.9 -21.1 7.8 -20.65 8.9 -20.85 8.9 -23.3 9.05 -25.7 9.1 -31.5 8.45 Q-33.2 7.95 -34.15 7.2" fill="#feeeb4" fill-rule="evenodd" stroke="none"/>
      <path d="M31.15 -15.35 L30.7 -16.75 30.5 -16.7 M6.15 16.8 L9.1 15.8 Q16.45 13.1 22.5 9.75 L24.65 8.5 M17.65 -7.4 L17.55 -7.35 Q9.3 -2.55 -2.35 1.1 -11.4 3.8 -18.35 4.65 M17.65 -7.4 Q10.8 -6.55 2.5 -4.05 -9.45 -0.5 -18.35 4.65 M-35.1 4.65 L-35.4 3.8 -35.4 3.7 -35.5 2.95 Q-35.5 -1.6 -25.85 -7.7 -16.15 -13.8 -2.5 -17.85 9.1 -21.35 17.9 -21.6 L20.85 -21.6 Q29.4 -21.3 30.4 -17.65 L30.45 -17.35 30.5 -16.7 M25.45 -14.0 L25.8 -15.45 25.75 -15.9 25.7 -16.15 Q24.85 -18.7 17.55 -18.45 9.3 -18.2 -2.35 -14.6 -14.0 -11.0 -22.3 -6.2 -27.55 -3.1 -29.4 -0.65 M31.15 -15.35 L35.5 -2.7 Q35.3 1.8 25.85 7.75 L24.65 8.5 M6.15 16.8 L3.25 17.75 2.5 17.95 Q-4.3 19.95 -10.15 20.9 L-15.9 21.55 -20.85 21.65 Q-24.9 21.5 -27.25 20.65 -29.25 19.85 -30.0 18.6 L-30.45 17.4 -34.15 7.2 -35.1 4.65" fill="none" stroke="#000000" stroke-linecap="round" stroke-linejoin="round" stroke-opacity="0.2" stroke-width="0.05"/>
    </g>
    <g id="sprite2" transform="matrix(1.0, 0.0, 0.0, 1.0, 36.55, 15.45)">
      <use height="25.5" transform="matrix(1.0, 0.0, 0.0, 1.0, -36.55, -15.45)" width="58.9" xlink:href="#shape3"/>
    </g>
    <g id="shape3" transform="matrix(1.0, 0.0, 0.0, 1.0, 36.55, 15.45)">
      <path d="M3.75 6.2 L0.85 7.15 Q2.2 -1.15 -3.7 -6.15 L-0.95 -7.1 3.75 6.2" fill="#fde935" fill-opacity="0.49803922" fill-rule="evenodd" stroke="none"/>
      <path d="M20.2 -0.85 Q20.3 -9.15 15.25 -14.25 L17.3 -15.45 22.35 -2.1 20.2 -0.85 M-0.95 -7.1 L-0.55 -7.25 2.0 -8.2 Q1.1 0.7 6.7 5.2 L3.75 6.2 -0.95 -7.1" fill="#fce535" fill-opacity="0.34901962" fill-rule="evenodd" stroke="none"/>
      <path d="M-33.9 -2.15 Q-33.7 4.35 -29.65 10.05 -31.65 9.25 -32.4 8.0 L-32.85 6.8 -36.55 -3.4 Q-35.6 -2.65 -33.9 -2.15" fill="#fef8e1" fill-opacity="0.34901962" fill-rule="evenodd" stroke="none"/>
    </g>
    <g id="shape4" transform="matrix(1.0, 0.0, 0.0, 1.0, 31.4, 19.4)">
      <path d="M22.85 -18.1 L20.85 -17.8 17.85 -18.5 20.75 -19.4 22.85 -18.1 M-22.0 7.8 L-27.25 8.5 -31.4 6.95 -26.25 6.95 -22.0 7.8 M-5.6 -12.9 L-10.25 -11.95 -5.8 -14.45 1.75 -15.8 -5.6 -12.9 M7.4 1.2 L0.85 4.75 -5.05 5.55 -0.9 3.25 7.4 1.2" fill="#ffffff" fill-rule="evenodd" stroke="none"/>
      <path d="M9.45 -1.55 L13.15 -1.55 13.15 3.3 11.4 -0.5 9.45 -1.55" fill="#9e6e1f" fill-rule="evenodd" stroke="none"/>
    </g>
    <g id="shape5" transform="matrix(1.0, 0.0, 0.0, 1.0, -30.65, -3.2)">
      <path d="M32.45 3.2 L32.5 3.2 32.55 3.2 32.45 3.2 32.55 3.2 32.6 3.2 32.6 3.25 33.1 3.8 Q34.2 5.45 34.6 8.45 L34.65 8.55 33.4 13.0 32.1 16.9 31.85 17.35 31.4 18.35 31.05 19.05 30.7 19.6 30.7 19.65 30.7 19.6 30.65 18.65 30.7 19.6 30.7 19.65 30.65 18.65 30.85 11.9 31.45 7.5 32.35 4.25 32.45 3.2 M32.4 13.95 L32.15 16.15 33.0 13.55 Q34.7 7.7 33.4 5.25 33.1 5.6 32.85 6.75 L32.7 8.1 32.75 8.15 Q32.85 10.15 32.4 13.95" fill="#cc3500" fill-rule="evenodd" stroke="none"/>
      <path d="M32.6 3.2 L32.8 3.3 33.2 3.45 33.6 3.65 37.45 7.15 38.2 8.05 38.2 8.1 36.55 12.55 Q35.25 15.85 34.7 17.5 L33.85 19.55 33.25 20.45 33.15 20.55 33.5 20.3 Q33.85 20.1 34.25 19.95 L38.55 16.65 40.55 14.7 40.8 15.75 Q40.15 17.85 39.5 18.95 L39.35 19.2 39.0 19.75 38.45 20.5 Q37.05 22.3 35.4 23.3 L35.0 23.5 34.75 23.6 33.35 24.2 30.85 21.6 30.7 19.65 30.7 19.6 31.05 19.05 31.4 18.35 31.85 17.35 32.1 16.9 33.4 13.0 34.65 8.55 34.6 8.45 Q34.2 5.45 33.1 3.8 L32.6 3.25 32.6 3.2" fill="#992f00" fill-rule="evenodd" stroke="none"/>
      <path d="M37.6 22.85 L37.05 23.1 37.0 23.15 36.95 23.15 35.15 23.5 35.0 23.5 35.15 23.5 35.0 23.5 35.4 23.3 Q37.05 22.3 38.45 20.5 37.2 22.45 37.55 22.8 L37.6 22.85 M32.4 13.95 Q32.85 10.15 32.75 8.15 L32.7 8.1 32.85 6.75 Q33.1 5.6 33.4 5.25 34.7 7.7 33.0 13.55 L32.15 16.15 32.4 13.95 M36.0 16.5 Q36.3 17.05 37.8 15.35 L36.35 17.35 34.15 19.85 33.5 20.3 33.15 20.55 33.25 20.45 33.85 19.55 34.7 17.5 Q35.25 15.85 36.55 12.55 L38.2 8.1 37.15 11.2 36.15 14.35 Q35.75 16.1 36.0 16.5" fill="#732300" fill-rule="evenodd" stroke="none"/>
      <path d="M39.2 12.05 L39.25 12.2 39.35 12.6 Q39.75 13.75 40.55 14.65 L40.55 14.7 38.55 16.65 34.25 19.95 Q33.85 20.1 33.5 20.3 L34.15 19.85 36.35 17.35 37.8 15.35 Q36.3 17.05 36.0 16.5 L38.2 13.35 38.8 12.55 39.2 12.05" fill="#a62f00" fill-rule="evenodd" stroke="none"/>
      <path d="M38.2 8.1 Q38.9 9.25 39.0 10.55 L39.15 11.9 39.2 12.05 38.8 12.55 38.2 13.35 36.0 16.5 Q35.75 16.1 36.15 14.35 L37.15 11.2 38.2 8.1 M40.8 15.75 L41.0 16.5 Q41.3 18.65 40.65 20.15 L39.1 21.85 37.6 22.85 37.55 22.8 Q37.2 22.45 38.45 20.5 L39.0 19.75 39.35 19.2 39.5 18.95 Q40.15 17.85 40.8 15.75" fill="#8c2800" fill-rule="evenodd" stroke="none"/>
      <path d="M32.45 3.2 L32.55 3.2 32.6 3.2 32.8 3.3 33.2 3.45 33.6 3.6 36.55 6.3 36.6 6.3 37.45 7.15 38.2 8.05 38.2 8.1 Q38.9 9.25 39.0 10.55 L39.15 11.9 39.2 12.05 39.25 12.2 39.35 12.6 Q39.75 13.75 40.55 14.65 L40.55 14.7 40.8 15.75 41.0 16.5 Q41.3 18.65 40.65 20.15 L39.1 21.85 37.6 22.85 37.05 23.1 37.0 23.15 36.95 23.15 35.15 23.5 M35.0 23.5 L34.75 23.6 33.35 24.2 30.85 21.6 30.7 19.65 M30.65 18.65 L30.85 11.9 31.45 7.5 32.35 4.25 32.45 3.2 M30.65 18.65 L30.7 19.6 30.7 19.65 M35.0 23.5 L35.15 23.5" fill="none" stroke="#000000" stroke-linecap="round" stroke-linejoin="round" stroke-opacity="0.3019608" stroke-width="0.05"/>
      <path d="M31.4 18.35 L31.85 17.35 32.1 16.9 33.4 13.0 34.65 8.55 34.6 8.45 Q34.2 5.45 33.1 3.8 L32.6 3.25" fill="none" stroke="#000000" stroke-linecap="round" stroke-linejoin="round" stroke-opacity="0.101960786" stroke-width="0.05"/>
    </g>
    <g id="sprite3" transform="matrix(1.0, 0.0, 0.0, 1.0, 14.3, 20.6)">
      <use height="41.15" transform="matrix(1.0, 0.0, 0.0, 1.0, -14.3, -20.6)" width="28.3" xlink:href="#shape6"/>
    </g>
    <g id="shape6" transform="matrix(1.0, 0.0, 0.0, 1.0, 14.3, 20.6)">
      <path d="M9.7 17.2 L8.05 12.95 Q6.0 8.65 3.05 5.45 0.25 2.75 -1.25 1.7 -2.85 0.6 -7.0 -1.2 L-8.8 -8.35 Q-10.9 -16.0 -12.55 -18.45 L-14.3 -20.6 Q-11.35 -19.65 -2.45 -11.35 L5.85 -3.25 Q8.75 2.6 9.35 10.7 L11.0 14.65 Q12.85 18.85 14.0 20.55 L9.7 17.2" fill="#ff714f" fill-opacity="0.48235294" fill-rule="evenodd" stroke="none"/>
    </g>
    <g id="shape7" transform="matrix(1.0, 0.0, 0.0, 1.0, -24.9, -18.35)">
      <path d="M32.55 18.75 L33.85 19.6 34.0 19.75 34.15 19.9 33.5 20.35 Q33.85 20.2 34.25 20.0 35.4 21.3 35.4 23.1 L35.4 23.35 35.0 23.55 34.75 23.65 33.35 24.25 30.85 21.7 30.7 19.7 30.7 19.65 30.65 18.7 30.65 18.35 30.8 18.35 31.4 18.45 32.55 18.75" fill="#000000" fill-opacity="0.2509804" fill-rule="evenodd" stroke="none"/>
      <path d="M26.85 21.2 Q26.45 22.15 26.85 23.0 27.25 23.8 28.25 24.1 L30.25 23.9 Q31.25 23.4 31.7 22.5 32.1 21.6 31.7 20.75 31.35 19.9 30.35 19.65 L28.3 19.85 Q27.3 20.3 26.85 21.2 M27.7 19.75 L27.85 19.7 29.6 19.35 29.65 19.35 29.75 19.35 31.5 19.7 32.95 20.75 Q34.35 22.15 34.35 24.05 34.35 26.0 32.95 27.4 31.55 28.75 29.65 28.75 27.75 28.75 26.35 27.45 L26.3 27.4 Q24.9 26.0 24.9 24.05 24.9 22.15 26.3 20.75 26.95 20.1 27.7 19.75" fill="#f0e7df" fill-rule="evenodd" stroke="none"/>
      <path d="M26.85 21.2 Q27.3 20.3 28.3 19.85 L30.35 19.65 Q31.35 19.9 31.7 20.75 32.1 21.6 31.7 22.5 31.25 23.4 30.25 23.9 L28.25 24.1 Q27.25 23.8 26.85 23.0 26.45 22.15 26.85 21.2" fill="#faf1e8" fill-rule="evenodd" stroke="none"/>
      <path d="M27.7 19.75 Q26.95 20.1 26.3 20.75 24.9 22.15 24.9 24.05 24.9 26.0 26.3 27.4 L26.35 27.45 Q27.75 28.75 29.65 28.75 31.55 28.75 32.95 27.4 34.35 26.0 34.35 24.05 34.35 22.15 32.95 20.75 L31.5 19.7 29.75 19.35 29.65 19.35 29.6 19.35 27.85 19.7 27.7 19.75 Z" fill="none" stroke="#000000" stroke-linecap="round" stroke-linejoin="round" stroke-opacity="0.2" stroke-width="0.05"/>
    </g>
    <g id="sprite4" transform="matrix(1.0, 0.0, 0.0, 1.0, 10.1, 10.15)">
      <use height="20.35" transform="matrix(1.0, 0.0, 0.0, 1.0, -10.1, -10.15)" width="20.25" xlink:href="#shape8"/>
    </g>
    <g id="shape8" transform="matrix(1.0, 0.0, 0.0, 1.0, 10.1, 10.15)">
      <path d="M5.65 -9.25 Q7.15 -8.55 8.25 -7.15 10.75 -4.1 10.0 0.05 9.15 4.3 5.5 7.3 2.05 10.2 -2.35 10.2 -4.8 10.15 -6.65 9.25 L-6.8 9.1 Q-10.1 5.8 -10.1 1.15 -10.1 -3.5 -6.8 -6.85 -5.25 -8.35 -3.45 -9.15 L-3.0 -9.35 Q-1.1 -10.15 1.15 -10.15 L1.2 -10.15 1.45 -10.15 Q3.7 -10.1 5.65 -9.25" fill="url(#gradient1)" fill-rule="evenodd" stroke="none"/>
    </g>
    <radialGradient cx="0" cy="0" gradientTransform="matrix(0.0143, 0.0, 0.0, 0.0143, -2.4, -7.15)" gradientUnits="userSpaceOnUse" id="gradient1" r="819.2" spreadMethod="pad">
      <stop offset="0.0" stop-color="#dff4f4"/>
      <stop offset="1.0" stop-color="#dff4f4" stop-opacity="0.0"/>
    </radialGradient>
    <g id="shape9" transform="matrix(1.0, 0.0, 0.0, 1.0, -25.5, -19.9)">
      <path d="M25.65 23.85 Q25.95 23.35 26.75 23.6 27.45 23.85 28.25 24.65 L29.5 26.45 Q29.85 27.45 29.55 27.95 29.25 28.45 28.5 28.2 27.75 27.95 26.9 27.1 26.1 26.25 25.75 25.3 25.35 24.35 25.65 23.85" fill="#574e47" fill-rule="evenodd" stroke="none"/>
      <path d="M29.65 20.35 L29.65 20.95 29.1 21.45 28.4 21.5 27.9 21.1 Q27.75 20.85 27.9 20.5 L28.45 20.0 29.15 19.95 29.65 20.35" fill="#ffffff" fill-rule="evenodd" stroke="none"/>
      <path d="M29.75 21.85 L29.75 22.2 29.45 22.55 29.0 22.55 28.65 22.3 Q28.6 22.15 28.7 21.95 28.75 21.7 29.0 21.6 L29.45 21.6 Q29.7 21.65 29.75 21.85" fill="#ffffff" fill-rule="evenodd" stroke="none"/>
      <path d="M30.75 23.9 L30.75 24.25 30.45 24.6 30.0 24.6 29.65 24.35 Q29.6 24.2 29.7 24.0 L30.0 23.65 30.45 23.65 Q30.7 23.7 30.75 23.9" fill="#ffffff" fill-rule="evenodd" stroke="none"/>
    </g>
    <g id="sprite5" transform="matrix(1.0, 0.0, 0.0, 1.0, 11.25, 11.25)">
      <use height="22.55" transform="matrix(1.0, 0.0, 0.0, 1.0, -11.25, -11.25)" width="22.55" xlink:href="#shape10"/>
    </g>
    <g id="shape10" transform="matrix(1.0, 0.0, 0.0, 1.0, 11.25, 11.25)">
      <path d="M7.95 8.0 Q4.7 11.3 0.05 11.3 -4.5 11.3 -7.8 8.15 L-7.95 8.0 Q-11.25 4.7 -11.25 0.05 -11.25 -4.6 -7.95 -7.95 -6.4 -9.45 -4.6 -10.25 L-4.15 -10.45 Q-2.25 -11.25 0.0 -11.25 L0.05 -11.25 0.3 -11.25 Q2.55 -11.2 4.5 -10.35 6.35 -9.55 7.95 -7.95 11.3 -4.6 11.3 0.05 11.3 4.7 7.95 8.0" fill="url(#gradient2)" fill-rule="evenodd" stroke="none"/>
    </g>
    <radialGradient cx="0" cy="0" gradientTransform="matrix(0.0272, 0.0, 0.0, 0.0272, 4.05, 12.2)" gradientUnits="userSpaceOnUse" id="gradient2" r="819.2" spreadMethod="pad">
      <stop offset="0.0" stop-color="#253838"/>
      <stop offset="1.0" stop-color="#243838" stop-opacity="0.0"/>
    </radialGradient>
    <g id="shape11" transform="matrix(1.0, 0.0, 0.0, 1.0, -3.65, -2.95)">
      <path d="M11.65 25.35 L14.35 25.6 19.0 25.1 19.15 25.1 Q19.8 25.7 19.7 27.15 L19.4 28.7 Q17.45 29.1 14.0 27.0 L11.65 25.35 M28.9 27.0 L29.2 27.3 30.25 27.4 Q29.4 28.9 26.9 35.75 L24.55 42.3 23.8 41.5 25.45 32.85 25.35 32.95 25.4 32.9 Q26.8 29.75 28.15 28.0 L28.9 27.0 M20.3 39.85 Q18.4 40.3 16.3 39.4 L15.8 39.1 16.9 37.55 Q19.0 34.75 22.15 32.7 L23.45 32.1 Q25.5 31.4 25.35 33.05 L22.15 37.45 20.3 39.85" fill="#8c2e00" fill-rule="evenodd" stroke="none"/>
      <path d="M12.1 34.05 Q11.8 32.05 11.65 29.55 L11.6 25.35 11.65 25.35 14.0 27.0 Q17.45 29.1 19.4 28.7 L19.7 27.15 Q19.8 25.7 19.15 25.1 21.45 24.45 23.7 24.25 L24.6 24.7 25.95 25.75 Q27.05 28.75 19.3 31.8 L13.85 33.55 12.1 34.05 M25.35 32.95 L25.45 32.85 25.3 33.2 25.35 32.95" fill="#992f00" fill-rule="evenodd" stroke="none"/>
      <path d="M23.7 24.25 L25.0 24.25 27.35 24.35 27.4 24.45 Q27.1 26.3 25.4 28.65 21.6 33.95 12.85 37.2 12.4 35.85 12.1 34.05 L13.85 33.55 19.3 31.8 Q27.05 28.75 25.95 25.75 L24.6 24.7 23.7 24.25 M22.5 40.4 Q21.25 39.6 20.3 39.85 L22.15 37.45 25.35 33.05 25.3 33.2 22.5 40.4" fill="#a62f00" fill-rule="evenodd" stroke="none"/>
      <path d="M27.4 24.45 L28.4 25.05 28.9 25.75 28.95 25.85 29.0 25.95 28.3 26.6 27.45 27.65 26.35 28.95 25.8 29.55 25.6 29.85 Q24.3 31.3 22.7 32.35 L21.4 33.1 21.8 32.9 22.15 32.7 Q19.0 34.75 16.9 37.55 L15.8 39.1 12.9 37.25 12.85 37.2 Q21.6 33.95 25.4 28.65 27.1 26.3 27.4 24.45" fill="#802700" fill-rule="evenodd" stroke="none"/>
      <path d="M29.0 25.95 L29.05 25.85 29.0 25.95 Q29.15 26.4 28.9 26.95 L28.9 27.0 28.15 28.0 Q26.8 29.75 25.4 32.9 L25.35 32.95 25.3 33.2 25.35 33.05 Q25.5 31.4 23.45 32.1 L22.15 32.7 21.8 32.9 21.4 33.1 22.7 32.35 Q24.3 31.3 25.6 29.85 L25.8 29.55 26.35 28.95 27.45 27.65 28.3 26.6 29.0 25.95" fill="#732300" fill-rule="evenodd" stroke="none"/>
      <path d="M23.8 41.5 L22.5 40.4 25.3 33.2 25.45 32.85 23.8 41.5" fill="#942d00" fill-rule="evenodd" stroke="none"/>
      <path d="M12.1 34.05 Q11.8 32.05 11.65 29.55 L11.6 25.35 11.65 25.35 14.35 25.6 19.0 25.1 19.15 25.1 Q21.45 24.45 23.7 24.25 L25.0 24.25 27.35 24.35 27.4 24.45 28.4 25.05 28.9 25.75 28.95 25.85 29.0 25.95 29.05 25.85 29.0 25.95 Q29.15 26.4 28.9 26.95 L28.9 27.0 29.2 27.3 30.25 27.4 Q29.4 28.9 26.9 35.75 L24.55 42.3 23.8 41.5 22.5 40.4 Q21.25 39.6 20.3 39.85 18.4 40.3 16.3 39.4 L15.8 39.1 12.9 37.25 12.85 37.2 Q12.4 35.85 12.1 34.05" fill="none" stroke="#000000" stroke-linecap="round" stroke-linejoin="round" stroke-opacity="0.3019608" stroke-width="0.05"/>
      <path d="M27.4 24.45 Q27.1 26.3 25.4 28.65 21.6 33.95 12.85 37.2 M20.3 39.85 L22.15 37.45 25.35 33.05" fill="none" stroke="#000000" stroke-linecap="round" stroke-linejoin="round" stroke-opacity="0.101960786" stroke-width="0.05"/>
      <path d="M40.55 14.7 L40.55 14.65 40.1 14.05 39.6 13.0 39.2 12.05 39.15 11.9 39.0 10.55 Q38.9 9.4 38.35 8.35 L38.2 8.05 37.45 7.15 33.6 3.65 33.25 3.5 33.2 3.45 32.85 3.35 32.8 3.3 32.65 3.2 32.6 3.2 32.45 3.2 32.35 4.25 31.45 7.5 30.75 15.55 Q29.75 14.9 27.45 14.8 L26.25 14.8 Q22.55 14.9 17.7 16.4 12.0 18.1 7.95 20.65 3.9 23.2 3.9 25.1 L3.95 25.4 3.95 25.45 4.05 25.8 4.5 26.95 4.45 26.9 6.0 31.15 6.2 31.65 Q6.5 32.15 7.35 32.5 L10.05 32.9 11.95 32.9 12.1 34.05 Q12.4 35.85 12.85 37.2 L12.9 37.25 16.3 39.4 Q18.4 40.3 20.3 39.85 21.25 39.6 22.5 40.4 L23.8 41.5 24.55 42.3 26.9 35.75 29.6 28.8 Q31.1 28.8 32.25 28.0 L32.95 27.4 Q34.35 26.0 34.35 24.05 L34.35 23.85 34.75 23.65 35.0 23.55 35.1 23.5 35.15 23.5 36.95 23.15 37.0 23.15 37.05 23.1 37.6 22.85 39.1 21.85 40.65 20.15 Q41.3 18.65 41.0 16.5 L40.55 14.7 M25.95 20.8 L23.05 21.3 19.8 22.15 19.65 22.2 Q15.3 23.5 11.85 25.4 L13.05 25.5 17.75 24.3 Q22.4 22.85 25.75 21.0 L25.95 20.8 M11.6 25.5 L11.1 25.8 11.6 25.75 11.6 25.5" fill="none" stroke="#000000" stroke-linecap="round" stroke-linejoin="round" stroke-opacity="0.3019608" stroke-width="0.5"/>
    </g>
  </defs>
</svg>
