<?xml version="1.0" encoding="UTF-8" standalone="no"?>
<svg xmlns:xlink="http://www.w3.org/1999/xlink" height="440.0px" width="440.0px" xmlns="http://www.w3.org/2000/svg">
  <g transform="matrix(10.0, 0.0, 0.0, 10.0, 0.0, 0.0)">
    <use height="44.0" transform="matrix(1.0, 0.0, 0.0, 1.0, 0.0, 0.0)" width="44.0" xlink:href="#shape0"/>
    <use height="15.35" transform="matrix(0.3119, 0.0, 0.0, 0.3119, 8.25, 2.4)" width="19.7" xlink:href="#sprite0"/>
    <use height="42.25" transform="matrix(1.0, 0.0, 0.0, 1.0, 6.9, 0.9)" width="31.1" xlink:href="#shape2"/>
  </g>
  <defs>
    <g id="shape0" transform="matrix(1.0, 0.0, 0.0, 1.0, 0.0, 0.0)">
      <path d="M44.0 44.0 L0.0 44.0 0.0 0.0 44.0 0.0 44.0 44.0" fill="#43adca" fill-opacity="0.0" fill-rule="evenodd" stroke="none"/>
      <path d="M34.6 11.95 L34.85 11.6 Q35.8 12.25 35.45 13.1 35.35 12.45 34.65 12.15 L34.6 12.15 34.45 12.1 34.6 11.95 M35.1 13.6 L35.35 14.45 Q35.15 15.65 34.05 15.65 L33.8 14.5 33.9 14.3 Q34.75 14.2 35.1 13.6 M35.6 16.0 L35.7 16.8 Q35.2 18.6 34.35 18.95 L34.35 18.5 Q35.3 17.5 35.6 16.0 M35.85 19.35 L35.75 21.1 35.6 22.85 35.6 22.9 34.85 24.65 34.75 24.75 34.65 24.9 32.95 26.5 33.2 25.7 33.25 25.6 34.9 23.95 34.95 23.85 35.85 19.35 M35.2 24.9 L34.9 26.2 34.65 26.85 Q34.15 28.2 33.15 29.2 32.75 28.8 32.0 28.8 L32.2 28.35 Q32.75 28.35 33.15 28.75 L34.45 25.6 35.2 24.9 M32.8 30.4 L33.5 30.35 37.35 30.8 Q38.3 32.9 36.9 33.65 36.25 32.95 34.75 32.4 L33.15 31.9 33.1 31.25 32.8 30.4 M31.9 33.45 Q32.0 34.85 30.7 35.05 L29.5 35.05 29.05 37.05 28.25 37.55 28.15 37.6 28.1 37.75 28.1 37.6 27.55 38.1 27.45 38.15 Q26.6 38.65 26.05 39.75 L26.2 39.1 26.25 39.0 Q26.6 38.05 27.5 37.55 L28.3 37.15 29.0 34.75 29.05 34.7 29.6 34.7 29.5 35.05 29.6 34.7 29.75 34.05 29.2 34.05 Q28.7 34.2 28.05 34.9 L27.8 35.4 Q25.5 36.75 22.65 37.1 L24.0 36.1 24.0 36.05 24.1 36.05 24.15 36.05 28.2 34.15 28.55 33.9 28.45 34.1 29.3 33.65 29.55 32.9 29.95 33.05 30.3 33.3 Q29.1 31.35 31.1 31.7 L31.4 32.05 Q32.0 32.85 31.9 33.45 M28.9 37.65 Q28.25 39.95 28.6 41.95 29.3 43.05 27.05 42.85 26.2 42.9 25.8 42.35 26.15 41.35 27.55 41.65 L28.05 38.2 28.05 38.1 28.9 37.65 M21.15 37.2 L20.35 37.25 18.95 37.15 17.7 37.05 16.55 36.7 15.55 36.3 15.2 36.05 14.75 35.65 16.15 36.1 16.25 36.1 16.35 36.1 22.2 36.5 22.3 36.4 Q23.65 35.7 24.2 34.8 L24.3 34.8 24.6 34.75 24.0 35.65 23.8 35.8 23.25 36.3 23.15 36.35 Q22.35 37.05 21.15 37.2 M13.3 34.85 L13.15 34.75 12.85 34.45 13.8 34.75 13.85 34.75 14.75 35.0 19.25 34.7 19.4 34.75 Q19.05 35.15 18.25 35.35 L17.6 35.4 16.0 35.5 14.35 35.35 13.3 34.85 M11.85 33.3 L11.45 32.7 11.35 32.55 11.35 32.5 10.75 31.45 11.35 32.5 Q10.3 31.9 9.3 32.5 L9.85 31.05 10.2 31.25 10.75 31.45 11.65 31.65 Q10.8 31.1 10.75 30.4 12.0 30.9 13.1 30.4 L13.9 28.95 Q14.65 29.3 14.2 30.35 L14.15 30.5 13.45 31.35 13.95 32.0 14.35 32.55 Q13.65 33.5 11.85 33.3 M11.45 35.9 L11.5 36.1 Q11.55 36.55 10.9 36.65 8.85 36.55 8.4 35.0 9.4 34.45 10.4 34.8 L10.9 35.0 11.45 35.9 M32.0 9.65 L32.35 10.2 32.3 10.4 31.95 11.2 31.1 10.4 Q29.9 9.25 28.45 8.55 L26.95 7.95 25.9 6.7 26.85 6.45 28.25 7.95 Q30.35 8.0 32.0 9.65 M12.6 21.4 L12.45 21.8 12.4 21.95 12.4 22.0 Q12.15 23.15 12.5 24.35 L12.55 24.55 12.7 24.95 12.75 25.1 Q13.05 25.8 13.0 26.45 L12.9 27.05 Q12.45 27.75 11.7 27.85 L11.35 27.85 10.75 27.7 Q10.5 26.75 12.1 26.2 L11.65 24.1 Q11.65 22.5 12.25 21.55 L11.6 20.05 11.7 19.75 Q12.85 19.35 13.35 18.2 L13.95 18.7 13.8 18.9 Q13.0 20.1 12.6 21.4 M16.0 31.0 L19.35 30.5 Q20.55 31.95 18.7 32.95 L17.7 33.0 Q16.2 32.35 16.0 31.0 M32.45 17.15 L31.9 16.75 Q32.45 15.8 33.15 15.9 L32.45 17.15 M13.45 31.35 Q12.75 31.8 11.65 31.65 12.75 31.8 13.45 31.35 M34.75 24.75 L34.65 24.85 34.65 24.9 34.65 24.85 34.75 24.75 M34.75 32.4 L34.6 31.8 34.75 32.4 M34.45 31.45 Q34.4 30.95 33.5 30.35 34.4 30.95 34.45 31.45 M28.05 34.9 L28.45 34.1 28.05 34.9 M29.95 33.05 L29.75 34.05 29.95 33.05 M28.6 41.95 L27.55 41.65 28.6 41.95 M30.7 34.1 L30.3 33.3 30.7 34.1" fill="#653d01" fill-rule="evenodd" stroke="none"/>
      <path d="M33.2 7.75 Q34.9 7.5 35.15 9.0 35.45 10.4 34.85 11.6 L34.6 11.95 34.65 10.65 Q34.35 9.75 33.45 9.45 33.7 8.45 33.2 7.75 M35.45 15.05 L35.6 16.0 Q35.3 17.5 34.35 18.5 L34.15 16.3 34.1 16.0 34.1 15.95 Q35.1 16.45 35.45 15.05 M32.9 30.3 L32.8 30.4 32.75 30.25 32.9 30.3 M33.15 31.9 L32.95 32.8 Q32.7 33.65 31.9 33.45 32.0 32.85 31.4 32.05 32.05 30.05 33.1 31.25 L33.15 31.9 M25.8 42.35 Q25.75 41.4 25.95 40.35 26.6 38.95 27.95 38.25 L28.05 38.2 27.55 41.65 Q26.15 41.35 25.8 42.35 M26.25 39.0 Q26.65 37.6 27.4 36.15 L27.5 35.95 Q28.1 35.0 29.0 34.75 L28.3 37.15 27.5 37.55 Q26.6 38.05 26.25 39.0 M8.4 35.0 L9.1 33.05 10.7 33.1 10.9 35.0 10.4 34.8 Q9.4 34.45 8.4 35.0 M9.85 31.05 L9.3 30.65 Q8.55 29.9 8.7 28.8 L10.6 30.15 9.85 31.05 M8.25 25.9 L8.0 25.6 9.75 22.0 10.7 18.25 10.8 18.15 Q11.15 17.5 11.45 18.25 L11.15 19.1 Q9.25 23.05 9.7 26.3 L9.7 25.9 Q9.8 24.5 11.4 20.5 L11.8 21.6 Q10.95 23.75 11.8 25.9 11.05 26.65 9.7 26.4 L9.75 26.9 10.0 27.45 8.85 26.55 8.25 25.9 M9.5 16.95 Q9.4 16.25 9.8 15.5 L10.6 14.4 10.65 14.5 11.05 15.3 9.5 16.95 M24.3 5.3 L24.95 4.15 26.5 4.75 27.9 4.75 Q30.5 5.55 31.6 6.85 L31.65 6.9 32.2 7.95 Q33.0 9.45 32.35 9.9 L32.35 10.2 32.0 9.65 31.75 9.3 31.2 8.35 Q30.2 7.25 29.2 6.8 L29.05 6.7 29.2 6.8 Q30.2 7.25 31.2 8.35 L31.75 9.3 Q30.7 7.85 28.4 7.6 L27.4 6.4 29.05 6.7 Q29.0 5.95 27.0 5.4 L25.6 6.4 24.3 5.3 M27.5 5.05 L27.0 5.4 27.5 5.05 M13.45 26.5 Q14.2 26.75 14.25 27.75 L13.6 28.8 12.2 29.95 11.65 29.9 Q12.35 29.4 12.3 28.7 L11.8 28.2 Q13.1 27.95 13.45 27.1 L13.45 26.5 M19.75 34.8 L23.05 34.9 24.2 34.8 Q23.65 35.7 22.3 36.4 L22.2 36.5 16.35 36.1 Q18.15 36.05 19.25 35.4 L19.75 34.8 M26.95 34.05 Q26.35 32.65 27.55 31.55 28.85 30.7 29.8 30.75 L30.2 30.85 30.3 30.95 Q28.2 31.45 29.05 32.85 L26.95 34.05 M32.2 28.35 L32.8 26.9 34.45 25.6 33.15 28.75 Q32.75 28.35 32.2 28.35 M34.15 16.4 Q34.15 18.5 33.4 20.0 L33.0 19.95 Q33.05 17.1 34.15 16.4 M31.6 16.45 Q31.2 15.85 31.25 15.0 L32.7 14.0 32.55 13.35 Q33.7 13.4 34.45 12.6 35.1 12.8 33.9 14.3 L33.8 14.5 33.75 14.55 33.7 14.55 33.65 14.6 31.6 16.45 M33.7 14.55 L33.75 14.35 33.8 14.5 33.75 14.35 33.7 14.55 M33.9 14.3 L33.75 14.35 Q33.0 14.5 32.7 14.0 33.0 14.5 33.75 14.35 L33.9 14.3 M9.7 26.4 L9.7 26.3 9.7 26.4" fill="#985b01" fill-rule="evenodd" stroke="none"/>
      <path d="M21.3 3.8 L23.0 4.5 24.3 5.3 25.6 6.4 25.85 6.65 25.9 6.7 26.95 7.95 Q24.0 5.15 22.65 5.7 L22.45 5.8 22.1 5.65 21.8 5.5 21.7 5.45 21.55 5.35 21.25 5.25 Q20.75 4.55 21.3 3.8 M26.2 18.65 L25.85 18.95 Q23.55 20.85 20.5 20.85 L19.25 20.8 18.05 20.6 Q16.95 19.1 18.05 17.4 L20.15 18.0 20.25 19.2 Q21.75 20.6 26.2 18.65" fill="#ae8b04" fill-rule="evenodd" stroke="none"/>
      <path d="M20.25 4.95 L21.25 5.25 21.55 5.35 21.7 5.45 21.8 5.5 22.1 5.65 22.45 5.8 24.0 7.1 24.35 7.5 23.25 8.65 22.7 7.55 22.6 7.5 22.55 7.45 22.05 7.05 21.95 6.95 21.7 6.5 21.7 5.45 Q16.35 4.05 13.7 8.25 12.3 11.75 15.4 14.95 L16.25 15.5 Q17.65 14.75 18.7 13.7 L18.8 14.05 19.15 14.5 19.9 15.15 19.95 15.2 20.35 16.7 Q21.75 16.6 23.1 15.9 26.15 14.25 25.85 10.4 L26.0 11.85 Q26.0 14.5 24.0 16.1 22.35 17.5 20.1 17.5 L19.2 17.45 17.5 17.1 17.0 16.9 15.95 16.35 14.4 15.05 Q13.4 14.05 12.9 12.85 L12.75 12.4 Q12.4 11.45 12.4 10.35 12.4 7.75 14.4 6.05 16.4 4.45 19.2 4.75 L19.3 4.75 20.25 4.95 M22.3 9.65 L21.65 10.5 21.45 10.5 21.35 10.5 20.9 10.45 20.85 10.45 21.3 9.05 21.65 9.4 22.05 9.65 22.3 9.65" fill="#752402" fill-rule="evenodd" stroke="none"/>
      <path d="M21.7 6.5 L21.55 6.3 21.55 7.05 21.1 7.45 21.1 7.55 Q20.9 8.45 21.3 9.05 L20.85 10.45 20.5 10.45 Q18.7 10.65 18.6 12.4 L18.7 13.7 Q17.65 14.75 16.25 15.5 L15.4 14.95 Q12.3 11.75 13.7 8.25 16.35 4.05 21.7 5.45 L21.7 6.5 M19.15 7.7 Q20.0 6.9 19.45 6.15 18.85 5.45 17.35 5.85 13.9 7.15 14.45 10.65 14.95 11.95 16.1 12.1 L17.0 12.35 Q17.75 12.4 18.05 11.4 18.4 10.7 17.5 10.0 L17.45 9.95 17.2 9.8 17.8 8.75 18.35 9.6 18.4 9.65 19.25 9.85 Q20.2 9.85 19.6 8.3 L19.55 8.15 19.15 7.7" fill="#d24002" fill-rule="evenodd" stroke="none"/>
      <path d="M23.25 8.65 L23.25 8.75 23.1 9.1 21.75 9.2 Q21.95 8.7 21.65 8.35 21.5 7.4 22.55 7.45 L22.6 7.5 22.7 7.55 23.25 8.65 M22.9 10.75 L24.0 11.1 Q25.7 11.7 24.2 12.75 L24.0 12.8 Q22.85 13.3 22.7 14.45 21.9 15.5 21.1 15.5 20.55 15.55 19.95 15.2 L19.9 15.15 Q19.15 14.3 19.15 13.15 L20.15 13.25 Q21.0 11.65 22.85 11.7 23.5 11.35 22.9 10.75 M19.55 8.15 L19.6 8.3 Q20.2 9.85 19.25 9.85 18.6 9.45 18.3 8.75 18.6 7.9 19.55 8.15 M15.7 10.95 L16.0 10.75 17.3 10.7 Q17.8 10.35 17.5 10.0 18.4 10.7 18.05 11.4 17.75 12.4 17.0 12.35 15.8 11.8 15.7 10.95" fill="#000000" fill-rule="evenodd" stroke="none"/>
      <path d="M18.65 3.35 L19.25 3.4 20.25 3.55 Q20.95 4.25 20.25 4.95 L19.3 4.75 Q20.15 4.2 18.75 3.4 L18.65 3.35 M14.8 4.55 L15.0 4.8 Q15.2 5.2 14.3 5.7 12.55 6.8 11.8 9.4 11.2 9.7 11.0 9.4 L11.8 7.7 Q13.0 5.7 14.8 4.55 M15.95 16.35 L17.0 16.9 Q17.4 18.6 15.25 19.55 L14.35 19.0 Q16.1 18.5 15.95 16.35" fill="#fedf67" fill-rule="evenodd" stroke="none"/>
      <path d="M22.45 5.8 L22.65 5.7 Q24.0 6.3 24.75 7.05 26.25 8.8 26.55 10.0 L26.9 11.4 Q26.95 12.85 26.3 14.25 L26.05 14.8 25.85 15.15 25.45 15.75 24.35 16.95 23.75 17.5 Q22.5 18.0 20.7 18.1 L20.15 18.0 18.05 17.4 17.5 17.1 19.2 17.45 20.1 17.5 Q22.35 17.5 24.0 16.1 26.0 14.5 26.0 11.85 L25.85 10.4 Q25.45 8.85 24.35 7.5 L24.0 7.1 22.45 5.8 M10.7 12.0 Q11.5 11.35 12.75 12.4 L12.9 12.85 Q13.4 14.05 14.4 15.05 L15.95 16.35 Q16.1 18.5 14.35 19.0 L14.15 18.85 Q11.4 16.2 10.7 12.55 L10.7 12.0" fill="#fdd535" fill-rule="evenodd" stroke="none"/>
      <path d="M22.65 5.7 Q24.0 5.15 26.95 7.95 28.6 10.35 28.6 13.1 28.6 16.45 26.2 18.65 21.75 20.6 20.25 19.2 L20.15 18.0 20.7 18.1 Q22.5 18.0 23.75 17.5 22.95 19.35 24.7 18.65 26.9 17.15 27.7 14.9 28.45 12.95 27.9 11.05 27.35 9.3 26.75 10.15 L26.9 11.4 26.55 10.0 Q26.25 8.8 24.75 7.05 24.0 6.3 22.65 5.7" fill="#e1b504" fill-rule="evenodd" stroke="none"/>
      <path d="M10.6 14.4 L10.1 12.8 9.95 11.1 Q9.95 7.5 12.65 5.2 15.2 3.15 18.65 3.35 L18.75 3.4 Q17.35 3.35 16.2 3.85 15.45 4.1 14.8 4.55 L13.9 4.65 Q11.4 6.3 10.9 8.95 L11.0 9.4 Q10.65 10.6 10.7 12.0 L10.7 12.55 Q11.4 16.2 14.15 18.85 L13.95 18.7 13.35 18.2 12.65 17.5 12.0 16.7 11.4 15.9 11.05 15.3 10.65 14.5 10.6 14.4 M23.75 17.5 L24.35 16.95 25.45 15.75 25.85 15.15 26.05 14.8 26.3 14.25 Q26.95 12.85 26.9 11.4 27.2 13.05 26.75 14.15 26.25 15.55 25.3 16.5 24.7 17.15 23.75 17.5" fill="#fefd9a" fill-rule="evenodd" stroke="none"/>
      <path d="M26.9 11.4 L26.75 10.15 Q27.35 9.3 27.9 11.05 28.45 12.95 27.7 14.9 26.9 17.15 24.7 18.65 22.95 19.35 23.75 17.5 24.7 17.15 25.3 16.5 26.25 15.55 26.75 14.15 27.2 13.05 26.9 11.4" fill="#e0c666" fill-rule="evenodd" stroke="none"/>
      <path d="M16.1 12.1 Q14.95 11.95 14.45 10.65 13.9 7.15 17.35 5.85 18.85 5.45 19.45 6.15 20.0 6.9 19.15 7.7 L18.8 7.55 18.75 7.55 18.4 7.5 17.85 6.85 17.85 7.8 Q17.65 8.3 17.8 8.75 L17.2 9.8 16.6 9.6 16.55 9.6 15.65 9.65 14.45 9.4 15.2 10.1 15.2 10.75 Q15.25 11.4 15.75 11.9 L16.1 12.1" fill="#fc6525" fill-rule="evenodd" stroke="none"/>
      <path d="M14.8 4.55 Q15.45 4.1 16.2 3.85 17.35 3.35 18.75 3.4 20.15 4.2 19.3 4.75 L19.2 4.75 Q16.4 4.45 14.4 6.05 12.4 7.75 12.4 10.35 12.4 11.45 12.75 12.4 11.5 11.35 10.7 12.0 10.65 10.6 11.0 9.4 11.2 9.7 11.8 9.4 12.55 6.8 14.3 5.7 15.2 5.2 15.0 4.8 L14.8 4.55" fill="#ffcc00" fill-rule="evenodd" stroke="none"/>
      <path d="M11.0 9.4 L10.9 8.95 Q11.4 6.3 13.9 4.65 L14.8 4.55 Q13.0 5.7 11.8 7.7 L11.0 9.4" fill="#ffffff" fill-rule="evenodd" stroke="none"/>
      <path d="M24.35 7.5 Q25.45 8.85 25.85 10.4 26.15 14.25 23.1 15.9 21.75 16.6 20.35 16.7 L19.95 15.2 Q20.55 15.55 21.1 15.5 21.9 15.5 22.7 14.45 22.85 13.3 24.0 12.8 L24.2 12.75 Q25.7 11.7 24.0 11.1 L22.9 10.75 21.8 10.55 21.65 10.5 22.3 9.65 Q22.8 9.6 23.1 9.1 L23.25 8.75 23.25 8.65 24.35 7.5" fill="#a73403" fill-rule="evenodd" stroke="none"/>
      <path d="M35.45 13.1 L35.1 13.6 Q34.75 14.2 33.9 14.3 35.1 12.8 34.45 12.6 33.7 13.4 32.55 13.35 L32.6 13.05 33.25 12.85 34.2 12.3 34.45 12.1 34.6 12.15 34.65 12.15 Q35.35 12.45 35.45 13.1 M35.35 14.45 L35.45 15.05 Q35.1 16.45 34.1 15.95 L34.05 15.65 Q35.15 15.65 35.35 14.45 M34.65 26.85 L33.55 29.35 33.4 29.6 32.9 30.3 32.75 30.25 32.55 29.85 Q32.1 29.55 31.7 29.5 L32.0 28.8 Q32.75 28.8 33.15 29.2 34.15 28.2 34.65 26.85 M15.55 36.3 L15.0 36.05 13.3 34.85 14.35 35.35 14.6 35.6 14.75 35.65 15.2 36.05 15.55 36.3 M12.85 34.45 L12.0 33.5 11.85 33.3 Q13.65 33.5 14.35 32.55 L15.05 33.15 Q14.35 33.75 13.2 33.7 L13.8 34.75 12.85 34.45 M11.45 32.7 L11.25 33.95 11.25 34.75 11.45 35.9 10.9 35.0 10.7 33.1 9.1 33.05 9.3 32.5 Q10.3 31.9 11.35 32.5 L11.35 32.55 11.45 32.7 M9.8 17.65 L9.5 16.95 11.05 15.3 11.4 15.9 11.3 16.0 9.8 17.65 M31.75 9.3 L32.0 9.65 Q30.35 8.0 28.25 7.95 L26.85 6.45 27.4 6.4 28.4 7.6 Q30.7 7.85 31.75 9.3 M15.75 19.8 Q15.35 20.8 14.55 21.4 13.5 22.2 12.6 21.4 13.0 20.1 13.8 18.9 L13.95 18.7 14.15 18.85 14.35 19.0 15.25 19.55 15.75 19.8 M13.6 28.8 L13.9 28.95 13.1 30.4 Q12.0 30.9 10.75 30.4 10.8 31.1 11.65 31.65 L10.75 31.45 10.2 31.25 9.85 31.05 10.6 30.15 8.7 28.8 Q9.7 29.45 10.8 29.75 L10.9 29.75 11.65 29.9 12.2 29.95 13.6 28.8 M14.15 30.5 L16.0 31.0 Q16.2 32.35 17.7 33.0 15.75 33.0 13.95 32.0 L13.45 31.35 14.15 30.5 M31.9 16.75 L31.6 16.45 33.65 14.6 33.15 15.9 Q32.45 15.8 31.9 16.75 M11.45 18.25 L11.45 18.2 12.0 16.7 12.65 17.5 13.35 18.2 Q12.85 19.35 11.7 19.75 L11.15 19.1 11.45 18.25 M11.6 20.05 L12.25 21.55 Q11.65 22.5 11.65 24.1 L12.1 26.2 Q10.5 26.75 10.75 27.7 L10.0 27.45 9.75 26.9 9.7 26.4 Q11.05 26.65 11.8 25.9 10.95 23.75 11.8 21.6 L11.4 20.5 11.6 20.05 M30.85 31.45 L31.1 31.7 Q29.1 31.35 30.3 33.3 L29.95 33.05 29.55 32.9 29.05 32.85 Q28.2 31.45 30.3 30.95 L30.85 31.45" fill="#3a2301" fill-rule="evenodd" stroke="none"/>
      <path d="M35.6 22.9 L35.2 24.9 34.45 25.6 32.8 26.9 32.95 26.5 34.65 24.9 34.75 24.75 34.85 24.65 35.6 22.9 M29.05 37.05 L28.9 37.65 28.05 38.1 27.95 38.25 Q26.6 38.95 25.95 40.35 L26.05 39.75 Q26.6 38.65 27.45 38.15 L27.55 38.1 28.1 37.6 28.1 37.75 28.15 37.6 28.25 37.55 29.05 37.05 M27.5 35.95 L27.8 35.4 28.05 34.9 Q28.7 34.2 29.2 34.05 L29.75 34.05 29.6 34.7 29.05 34.7 29.0 34.75 Q28.1 35.0 27.5 35.95 M19.4 34.75 L19.75 34.8 19.25 35.4 Q18.15 36.05 16.35 36.1 L16.25 36.1 16.15 36.1 14.75 35.65 14.6 35.6 14.35 35.35 16.0 35.5 17.6 35.4 18.25 35.35 Q19.05 35.15 19.4 34.75" fill="#ba7001" fill-rule="evenodd" stroke="none"/>
      <path d="M21.65 10.5 L21.8 10.55 22.9 10.75 Q23.5 11.35 22.85 11.7 21.0 11.65 20.15 13.25 L19.15 13.15 Q19.0 10.75 21.35 10.5 L21.45 10.5 21.65 10.5 M22.05 7.05 L22.55 7.45 Q21.5 7.4 21.65 8.35 21.95 8.7 21.75 9.2 21.35 8.75 21.2 8.1 21.35 7.3 22.05 7.05 M16.55 9.6 L16.6 9.6 17.2 9.8 17.45 9.95 17.5 10.0 Q17.8 10.35 17.3 10.7 L16.0 10.75 15.7 10.95 15.7 10.9 Q15.35 9.8 16.55 9.6 M18.75 7.55 L18.8 7.55 19.15 7.7 19.55 8.15 Q18.6 7.9 18.3 8.75 L17.95 8.3 Q17.9 7.75 18.75 7.55" fill="#2b2b2b" fill-rule="evenodd" stroke="none"/>
      <path d="M20.25 3.55 L21.25 3.8 21.3 3.8 Q20.75 4.55 21.25 5.25 L20.25 4.95 Q20.95 4.25 20.25 3.55 M18.05 20.6 Q16.8 20.35 15.75 19.8 L15.25 19.55 Q17.4 18.6 17.0 16.9 L17.5 17.1 18.05 17.4 Q16.95 19.1 18.05 20.6" fill="#7c6403" fill-rule="evenodd" stroke="none"/>
      <path d="M35.8 17.9 L35.85 18.65 35.85 19.35 34.95 23.85 34.9 23.95 33.25 25.6 33.85 23.15 Q34.05 23.9 34.65 23.15 35.35 21.85 35.25 20.7 L35.2 20.6 Q34.75 19.4 34.2 20.7 L34.3 19.7 34.3 19.4 Q35.2 19.0 35.8 17.9 M7.15 27.55 Q7.05 26.25 8.25 25.9 L8.85 26.55 10.0 27.45 10.75 27.7 11.35 27.85 11.65 28.3 Q11.85 28.8 11.6 29.15 9.4 28.95 7.15 27.55 M7.55 24.6 Q7.3 23.8 7.4 22.9 L7.7 21.35 Q7.65 22.65 8.75 22.25 10.35 19.25 8.9 18.9 L9.8 17.65 11.3 16.0 Q10.0 17.45 9.95 19.9 9.25 23.75 7.55 24.6 M25.15 3.95 Q26.3 2.7 28.2 3.65 29.95 4.55 30.95 5.8 29.85 5.1 28.8 4.75 L26.55 4.4 Q26.1 4.0 25.15 3.95 M32.7 10.2 L33.2 10.1 Q34.4 10.0 34.2 12.3 L33.25 12.85 Q31.55 12.85 31.85 12.0 L32.65 11.75 Q33.4 10.95 32.7 10.2 M15.05 33.15 Q16.7 34.4 19.25 34.7 L14.75 35.0 13.85 34.75 13.8 34.75 13.2 33.7 Q14.35 33.75 15.05 33.15 M25.1 34.65 L26.95 34.05 29.05 32.85 28.55 33.9 29.05 32.85 29.55 32.9 29.3 33.65 28.45 34.1 28.55 33.9 28.2 34.15 24.15 36.05 25.1 34.65 M29.8 30.75 Q30.45 29.2 31.7 29.5 32.1 29.55 32.55 29.85 L32.75 30.25 Q31.0 29.65 30.85 31.45 L30.3 30.95 30.2 30.85 29.8 30.75 M32.5 19.8 Q31.85 19.4 31.55 18.5 L32.45 17.15 33.15 15.9 33.65 14.6 33.7 14.55 33.75 14.55 32.5 19.8" fill="#db8402" fill-rule="evenodd" stroke="none"/>
      <path d="M22.65 37.1 L21.15 37.2 Q22.35 37.05 23.15 36.35 L23.25 36.3 23.8 35.8 24.0 35.65 24.6 34.75 25.1 34.65 24.15 36.05 24.1 36.05 24.0 36.05 24.0 36.1 22.65 37.1" fill="#fd9b0b" fill-rule="evenodd" stroke="none"/>
      <path d="M35.7 16.8 L35.8 17.85 35.8 17.9 Q35.2 19.0 34.3 19.4 L34.35 18.95 Q35.2 18.6 35.7 16.8 M7.7 21.35 Q8.05 20.2 8.9 18.9 10.35 19.25 8.75 22.25 7.65 22.65 7.7 21.35 M32.3 10.4 L32.7 10.2 Q33.4 10.95 32.65 11.75 L31.85 12.0 Q31.55 12.85 33.25 12.85 L32.6 13.05 31.05 12.95 Q30.65 12.85 30.6 11.8 L30.6 11.75 Q30.6 10.75 31.1 10.4 L31.95 11.2 32.3 10.4 M33.85 23.15 L34.2 20.7 Q34.75 19.4 35.2 20.6 L35.25 20.7 Q35.35 21.85 34.65 23.15 34.05 23.9 33.85 23.15" fill="#fcb347" fill-rule="evenodd" stroke="none"/>
      <path d="M33.2 7.75 Q33.7 8.45 33.45 9.45 34.35 9.75 34.65 10.65 L34.6 11.95 34.45 12.1 34.2 12.3 Q34.4 10.0 33.2 10.1 L32.7 10.2 32.3 10.4 32.35 10.2 32.35 9.9 Q33.0 9.45 32.2 7.95 L33.2 7.75 M8.7 28.8 L7.15 27.55 Q9.4 28.95 11.6 29.15 11.85 28.8 11.65 28.3 L11.35 27.85 11.7 27.85 Q12.45 27.75 12.9 27.05 L13.0 26.45 13.45 26.5 13.45 27.1 Q13.1 27.95 11.8 28.2 L12.3 28.7 Q12.35 29.4 11.65 29.9 L10.9 29.75 10.8 29.75 Q9.7 29.45 8.7 28.8 M8.0 25.6 L7.55 24.6 Q9.25 23.75 9.95 19.9 10.0 17.45 11.3 16.0 L11.4 15.9 12.0 16.7 11.45 18.2 11.45 18.25 Q11.15 17.5 10.8 18.15 L10.7 18.25 9.75 22.0 8.0 25.6 M24.95 4.15 L25.15 3.95 Q26.1 4.0 26.55 4.4 L28.8 4.75 Q29.85 5.1 30.95 5.8 L31.5 6.7 31.6 6.85 Q30.5 5.55 27.9 4.75 L26.5 4.75 24.95 4.15 M34.15 16.3 L34.15 16.4 Q33.05 17.1 33.0 19.95 L32.5 19.8 33.75 14.55 33.8 14.5 34.05 15.65 34.1 15.95 34.1 16.0 34.15 16.3 M32.75 30.25 L32.8 30.4 33.1 31.25 Q32.05 30.05 31.4 32.05 L31.1 31.7 30.85 31.45 Q31.0 29.65 32.75 30.25" fill="#6b4103" fill-rule="evenodd" stroke="none"/>
      <path d="M23.1 9.1 Q22.8 9.6 22.3 9.65 L22.05 9.65 21.65 9.4 21.3 9.05 Q20.9 8.45 21.1 7.55 L21.1 7.45 21.55 7.05 21.55 6.3 21.7 6.5 21.95 6.95 22.05 7.05 Q21.35 7.3 21.2 8.1 21.35 8.75 21.75 9.2 L23.1 9.1 M18.7 13.7 L18.6 12.4 Q18.7 10.65 20.5 10.45 L20.85 10.45 20.9 10.45 21.35 10.5 Q19.0 10.75 19.15 13.15 19.15 14.3 19.9 15.15 L19.15 14.5 18.8 14.05 18.7 13.7 M16.1 12.1 L15.75 11.9 Q15.25 11.4 15.2 10.75 L15.2 10.1 14.45 9.4 15.65 9.65 16.55 9.6 Q15.35 9.8 15.7 10.9 L15.7 10.95 Q15.8 11.8 17.0 12.35 L16.1 12.1 M17.8 8.75 Q17.65 8.3 17.85 7.8 L17.85 6.85 18.4 7.5 18.75 7.55 Q17.9 7.75 17.95 8.3 L18.3 8.75 Q18.6 9.45 19.25 9.85 L18.4 9.65 18.35 9.6 17.8 8.75" fill="#595959" fill-rule="evenodd" stroke="none"/>
      <path d="M34.85 11.6 Q35.45 10.4 35.15 9.0 34.9 7.5 33.2 7.75 M34.6 11.95 L34.85 11.6 Q35.8 12.25 35.45 13.1 L35.1 13.6 35.35 14.45 35.45 15.05 35.6 16.0 35.7 16.8 35.8 17.85 35.8 17.9 35.85 18.65 35.85 19.35 35.75 21.1 35.6 22.85 35.6 22.9 35.2 24.9 34.9 26.2 34.65 26.85 33.55 29.35 33.4 29.6 32.9 30.3 32.8 30.4 33.5 30.35 37.35 30.8 Q38.3 32.9 36.9 33.65 36.25 32.95 34.75 32.4 L33.15 31.9 32.95 32.8 Q32.7 33.65 31.9 33.45 32.0 34.85 30.7 35.05 L29.5 35.05 29.05 37.05 28.9 37.65 Q28.25 39.95 28.6 41.95 29.3 43.05 27.05 42.85 26.2 42.9 25.8 42.35 25.75 41.4 25.95 40.35 L26.05 39.75 26.2 39.1 M26.25 39.0 Q26.65 37.6 27.4 36.15 L27.5 35.95 27.8 35.4 Q25.5 36.75 22.65 37.1 L21.15 37.2 20.35 37.25 18.95 37.15 17.7 37.05 16.55 36.7 15.55 36.3 15.0 36.05 13.3 34.85 13.15 34.75 12.85 34.45 12.0 33.5 11.85 33.3 11.45 32.7 11.25 33.95 11.25 34.75 11.45 35.9 11.5 36.1 Q11.55 36.55 10.9 36.65 8.85 36.55 8.4 35.0 L9.1 33.05 9.3 32.5 9.85 31.05 9.3 30.65 Q8.55 29.9 8.7 28.8 L7.15 27.55 Q7.05 26.25 8.25 25.9 L8.0 25.6 7.55 24.6 Q7.3 23.8 7.4 22.9 L7.7 21.35 Q8.05 20.2 8.9 18.9 L9.8 17.65 9.5 16.95 Q9.4 16.25 9.8 15.5 L10.6 14.4 10.1 12.8 9.95 11.1 Q9.95 7.5 12.65 5.2 15.2 3.15 18.65 3.35 L19.25 3.4 20.25 3.55 21.25 3.8 M21.3 3.8 L23.0 4.5 24.3 5.3 24.95 4.15 25.15 3.95 Q26.3 2.7 28.2 3.65 29.95 4.55 30.95 5.8 L31.5 6.7 31.6 6.85 31.65 6.9 32.2 7.95 33.2 7.75 M32.0 9.65 L32.35 10.2 32.35 9.9 Q33.0 9.45 32.2 7.95 M34.2 12.3 L34.45 12.1 34.6 11.95 M32.35 10.2 L32.3 10.4 31.95 11.2 31.1 10.4 Q30.6 10.75 30.6 11.75 L30.6 11.8 Q30.65 12.85 31.05 12.95 L32.6 13.05 33.25 12.85 M31.75 9.3 L32.0 9.65 M26.85 6.45 L25.9 6.7 26.95 7.95 28.45 8.55 Q29.9 9.25 31.1 10.4 M29.05 6.7 L29.2 6.8 Q30.2 7.25 31.2 8.35 L31.75 9.3 M27.4 6.4 L26.85 6.45 M27.0 5.4 L27.5 5.05 M20.25 4.95 L21.25 5.25 21.55 5.35 21.7 5.45 21.8 5.5 22.1 5.65 22.45 5.8 24.0 7.1 24.35 7.5 Q25.45 8.85 25.85 10.4 L26.0 11.85 Q26.0 14.5 24.0 16.1 22.35 17.5 20.1 17.5 L19.2 17.45 17.5 17.1 M26.95 7.95 Q28.6 10.35 28.6 13.1 28.6 16.45 26.2 18.65 L25.85 18.95 Q23.55 20.85 20.5 20.85 L19.25 20.8 18.05 20.6 Q16.8 20.35 15.75 19.8 15.35 20.8 14.55 21.4 13.5 22.2 12.6 21.4 L12.45 21.8 12.4 21.95 M12.4 22.0 Q12.15 23.15 12.5 24.35 L12.55 24.55 12.7 24.95 12.75 25.1 Q13.05 25.8 13.0 26.45 L13.45 26.5 Q14.2 26.75 14.25 27.75 L13.6 28.8 13.9 28.95 Q14.65 29.3 14.2 30.35 L14.15 30.5 16.0 31.0 19.35 30.5 Q20.55 31.95 18.7 32.95 L17.7 33.0 Q15.75 33.0 13.95 32.0 L14.35 32.55 15.05 33.15 Q16.7 34.4 19.25 34.7 L19.4 34.75 19.75 34.8 23.05 34.9 24.2 34.8 M24.3 34.8 L24.6 34.75 25.1 34.65 26.95 34.05 Q26.35 32.65 27.55 31.55 28.85 30.7 29.8 30.75 30.45 29.2 31.7 29.5 L32.0 28.8 32.2 28.35 32.8 26.9 32.95 26.5 33.2 25.7 33.25 25.6 33.85 23.15 34.2 20.7 34.3 19.7 34.3 19.4 34.35 18.95 34.35 18.5 34.15 16.3 34.15 16.4 Q34.15 18.5 33.4 20.0 L33.0 19.95 32.5 19.8 Q31.85 19.4 31.55 18.5 L32.45 17.15 31.9 16.75 31.6 16.45 Q31.2 15.85 31.25 15.0 L32.7 14.0 32.55 13.35 32.6 13.05 M23.25 8.65 L23.25 8.75 23.1 9.1 Q22.8 9.6 22.3 9.65 L22.05 9.65 21.65 9.4 21.3 9.05 Q20.9 8.45 21.1 7.55 M21.65 10.5 L21.8 10.55 22.9 10.75 24.0 11.1 Q25.7 11.7 24.2 12.75 L24.0 12.8 Q22.85 13.3 22.7 14.45 21.9 15.5 21.1 15.5 20.55 15.55 19.95 15.2 L19.9 15.15 19.15 14.5 18.8 14.05 18.7 13.7 18.6 12.4 Q18.7 10.65 20.5 10.45 L20.85 10.45 M21.7 6.5 L21.95 6.95 22.05 7.05 22.55 7.45 22.6 7.5 22.7 7.55 23.25 8.65 M21.1 7.45 L21.55 7.05 21.55 6.3 21.7 6.5 M21.45 10.5 L21.65 10.5 M21.35 10.5 L20.9 10.45 20.85 10.45 M25.6 6.4 L25.85 6.65 25.9 6.7 M27.4 6.4 L29.05 6.7 Q29.0 5.95 27.0 5.4 L25.6 6.4 24.3 5.3 M33.7 14.55 L33.65 14.6 33.15 15.9 32.45 17.15 M33.8 14.5 L33.75 14.35 33.7 14.55 M33.8 14.5 L34.05 15.65 M32.7 14.0 Q33.0 14.5 33.75 14.35 L33.9 14.3 M35.1 13.6 Q34.75 14.2 33.9 14.3 M34.1 15.95 L34.05 15.65 M34.1 15.95 L34.1 16.0 34.15 16.3 M34.35 18.95 Q35.2 18.6 35.7 16.8 M35.6 22.9 L34.85 24.65 34.75 24.75 34.65 24.9 32.95 26.5 M34.2 12.3 L33.25 12.85 M19.3 4.75 L20.25 4.95 M12.75 12.4 Q12.4 11.45 12.4 10.35 12.4 7.75 14.4 6.05 16.4 4.45 19.2 4.75 L19.3 4.75 M16.1 12.1 L15.75 11.9 Q15.25 11.4 15.2 10.75 L15.2 10.1 14.45 9.4 15.65 9.65 16.55 9.6 M16.6 9.6 L17.2 9.8 M17.8 8.75 Q17.65 8.3 17.85 7.8 L17.85 6.85 18.4 7.5 18.75 7.55 M18.8 7.55 L19.15 7.7 19.55 8.15 19.6 8.3 Q20.2 9.85 19.25 9.85 L18.4 9.65 18.35 9.6 17.8 8.75 M12.75 12.4 L12.9 12.85 Q13.4 14.05 14.4 15.05 L15.95 16.35 17.0 16.9 17.5 17.1 M17.5 10.0 L17.45 9.95 17.2 9.8 M17.5 10.0 Q18.4 10.7 18.05 11.4 17.75 12.4 17.0 12.35 L16.1 12.1 M11.05 15.3 L10.65 14.5 10.6 14.4 M11.45 18.2 L12.0 16.7 11.4 15.9 11.3 16.0 9.8 17.65 M13.35 18.2 L12.65 17.5 12.0 16.7 M11.4 15.9 L11.05 15.3 M13.95 18.7 L13.8 18.9 Q13.0 20.1 12.6 21.4 M14.15 18.85 L13.95 18.7 13.35 18.2 Q12.85 19.35 11.7 19.75 L11.6 20.05 11.4 20.5 Q9.8 24.5 9.7 25.9 L9.7 26.3 9.7 26.4 9.75 26.9 10.0 27.45 10.75 27.7 11.35 27.85 11.7 27.85 Q12.45 27.75 12.9 27.05 L13.0 26.45 M14.35 19.0 L14.15 18.85 M11.15 19.1 L11.7 19.75 M15.25 19.55 L15.75 19.8 M11.45 18.25 L11.15 19.1 Q9.25 23.05 9.7 26.3 M14.35 19.0 L15.25 19.55 M11.65 29.9 L12.2 29.95 13.6 28.8 M8.7 28.8 Q9.7 29.45 10.8 29.75 L10.9 29.75 11.65 29.9 M14.15 30.5 L13.45 31.35 13.95 32.0 M10.75 31.45 L11.35 32.5 11.35 32.55 11.45 32.7 M9.85 31.05 L10.2 31.25 10.75 31.45 11.65 31.65 Q12.75 31.8 13.45 31.35 M10.9 35.0 L11.45 35.9 M8.4 35.0 Q9.4 34.45 10.4 34.8 L10.9 35.0 M13.3 34.85 L14.35 35.35 16.0 35.5 M17.6 35.4 L18.25 35.35 Q19.05 35.15 19.4 34.75 M8.25 25.9 L8.85 26.55 10.0 27.45 M34.65 24.9 L34.65 24.85 34.75 24.75 M32.75 30.25 L32.8 30.4 33.1 31.25 33.15 31.9 M31.7 29.5 Q32.1 29.55 32.55 29.85 L32.75 30.25 M30.85 31.45 L31.1 31.7 31.4 32.05 Q32.0 32.85 31.9 33.45 M34.6 31.8 L34.75 32.4 M33.5 30.35 Q34.4 30.95 34.45 31.45 M30.3 30.95 L30.2 30.85 29.8 30.75 M23.8 35.8 L24.0 35.65 24.6 34.75 M30.3 30.95 L30.85 31.45 M29.55 32.9 L29.95 33.05 30.3 33.3 30.7 34.1 M29.05 32.85 L28.55 33.9 28.45 34.1 28.05 34.9 27.8 35.4 M29.55 32.9 L29.05 32.85 26.95 34.05 M29.6 34.7 L29.75 34.05 29.2 34.05 Q28.7 34.2 28.05 34.9 M29.5 35.05 L29.6 34.7 M29.75 34.05 L29.95 33.05 M27.55 38.1 L27.45 38.15 Q26.6 38.65 26.05 39.75 M25.8 42.35 Q26.15 41.35 27.55 41.65 L28.6 41.95 M21.15 37.2 Q22.35 37.05 23.15 36.35 M29.05 37.05 L28.25 37.55" fill="none" stroke="#000000" stroke-linecap="round" stroke-linejoin="round" stroke-opacity="0.2509804" stroke-width="0.05"/>
      <path d="M17.1 3.5 Q17.75 4.85 16.9 6.5 16.0 8.1 14.1 9.0 12.3 9.9 10.55 9.55 8.8 9.2 8.15 7.75 7.55 6.35 8.45 4.75 9.35 3.15 11.15 2.25 13.0 1.4 14.8 1.7 16.5 2.1 17.1 3.5" fill="url(#gradient0)" fill-rule="evenodd" stroke="none"/>
    </g>
    <radialGradient cx="0" cy="0" gradientTransform="matrix(-0.0071, 0.0034, -0.0023, -0.0053, 12.65, 5.65)" gradientUnits="userSpaceOnUse" id="gradient0" r="819.2" spreadMethod="pad">
      <stop offset="0.0" stop-color="#ffffde" stop-opacity="0.52156866"/>
      <stop offset="0.4117647058823529" stop-color="#ffffcc" stop-opacity="0.0"/>
    </radialGradient>
    <g id="sprite0" transform="matrix(1.0, 0.0, 0.0, 1.0, 0.0, 0.0)">
      <use height="15.35" transform="matrix(1.0, 0.0, 0.0, 1.0, 0.0, 0.0)" width="19.7" xlink:href="#shape1"/>
    </g>
    <g id="shape1" transform="matrix(1.0, 0.0, 0.0, 1.0, 0.0, 0.0)">
      <path d="M13.55 8.2 L0.0 4.55 12.95 9.7 10.55 15.35 13.7 10.25 17.9 10.6 14.75 8.8 18.7 0.0 13.55 8.2" fill="#fcf3d8" fill-opacity="0.39607844" fill-rule="evenodd" stroke="none"/>
      <path d="M10.25 9.3 Q9.6 10.5 7.0 11.1 9.3 10.7 10.6 11.6 11.05 12.5 11.9 13.05 13.15 13.85 14.6 13.45 16.25 13.05 17.05 11.7 L19.7 12.8 17.45 10.65 Q17.8 9.75 17.65 8.6 17.45 7.5 16.9 6.85 L17.4 5.35 16.0 6.2 15.95 6.05 Q14.65 5.35 13.2 5.65 11.75 6.15 10.85 7.5 10.35 8.35 10.25 9.3 M15.95 8.85 Q16.1 9.7 15.65 10.3 15.2 11.1 14.45 11.25 13.7 11.45 13.1 11.05 12.35 10.6 12.25 9.85 12.15 9.05 12.6 8.3 13.0 7.55 13.8 7.3 14.45 7.2 15.15 7.6 15.8 8.1 15.95 8.85" fill="#fcf3d8" fill-opacity="0.14901961" fill-rule="evenodd" stroke="none"/>
      <path d="M15.95 8.85 Q15.8 8.1 15.15 7.6 14.45 7.2 13.8 7.3 13.0 7.55 12.6 8.3 12.15 9.05 12.25 9.85 12.35 10.6 13.1 11.05 13.7 11.45 14.45 11.25 15.2 11.1 15.65 10.3 16.1 9.7 15.95 8.85" fill="#fcf3d8" fill-opacity="0.41960785" fill-rule="evenodd" stroke="none"/>
    </g>
    <g id="shape2" transform="matrix(1.0, 0.0, 0.0, 1.0, -6.9, -0.9)">
      <path d="M28.7 6.55 Q30.9 8.1 31.0 11.4 31.1 14.6 29.0 17.6 26.9 20.55 23.9 21.65 20.95 22.55 18.75 20.9 16.5 19.35 16.45 16.15 16.5 12.85 18.5 9.9 20.6 6.95 23.6 5.9 26.55 4.9 28.7 6.55" fill="url(#gradient1)" fill-rule="evenodd" stroke="none"/>
      <path d="M18.75 1.3 Q21.7 0.3 23.85 1.95 26.05 3.5 26.15 6.8 26.25 10.0 24.15 13.0 22.05 15.95 19.05 17.05 16.05 17.95 13.9 16.3 11.65 14.75 11.6 11.5 11.6 8.25 13.65 5.3 15.75 2.35 18.75 1.3" fill="url(#gradient2)" fill-rule="evenodd" stroke="none"/>
      <path d="M22.7 5.75 Q23.35 7.15 22.5 8.8 21.6 10.4 19.75 11.3 17.9 12.15 16.1 11.85 14.4 11.45 13.8 10.05 13.1 8.65 14.0 7.05 14.9 5.45 16.75 4.55 18.6 3.7 20.4 4.0 22.1 4.35 22.7 5.75" fill="url(#gradient3)" fill-rule="evenodd" stroke="none"/>
      <path d="M31.65 6.9 L31.6 6.85 31.5 6.7 30.95 5.8 Q29.95 4.55 28.2 3.65 26.3 2.7 25.15 3.95 L24.95 4.15 24.3 5.3 23.0 4.5 21.3 3.8 21.25 3.8 20.25 3.55 19.25 3.4 18.65 3.35 Q15.2 3.15 12.65 5.2 9.95 7.5 9.95 11.1 L10.1 12.8 10.6 14.4 9.8 15.5 Q9.4 16.25 9.5 16.95 L9.8 17.65 8.9 18.9 Q8.05 20.2 7.7 21.35 L7.4 22.9 Q7.3 23.8 7.55 24.6 L8.0 25.6 8.25 25.9 Q7.05 26.25 7.15 27.55 L8.7 28.8 Q8.55 29.9 9.3 30.65 L9.85 31.05 8.4 35.0 Q8.85 36.55 10.9 36.65 11.55 36.55 11.5 36.1 L11.45 35.9 11.25 34.75 11.25 33.95 11.45 32.7 11.85 33.3 12.0 33.5 12.85 34.45 13.15 34.75 13.3 34.85 15.0 36.05 15.55 36.3 16.55 36.7 17.7 37.05 18.95 37.15 20.35 37.25 21.15 37.2 22.65 37.1 Q25.5 36.75 27.8 35.4 L27.5 35.95 27.4 36.15 Q26.65 37.6 26.25 39.0 L26.2 39.1 26.05 39.75 25.95 40.35 Q25.75 41.4 25.8 42.35 26.2 42.9 27.05 42.85 29.3 43.05 28.6 41.95 28.25 39.95 28.9 37.65 L29.05 37.05 29.5 35.05 30.7 35.05 Q32.0 34.85 31.9 33.45 32.7 33.65 32.95 32.8 L33.15 31.9 34.75 32.4 Q36.25 32.95 36.9 33.65 38.3 32.9 37.35 30.8 L33.5 30.35 32.8 30.4 32.9 30.3 33.4 29.6 33.55 29.35 34.65 26.85 34.9 26.2 35.2 24.9 35.6 22.9 35.6 22.85 35.75 21.1 35.85 19.35 35.85 18.65 35.8 17.9 35.8 17.85 35.7 16.8 35.6 16.0 35.45 15.05 35.35 14.45 35.1 13.6 35.45 13.1 Q35.8 12.25 34.85 11.6 35.45 10.4 35.15 9.0 34.9 7.5 33.2 7.75 L32.2 7.95 31.65 6.9 M30.6 11.8 Q30.65 12.85 31.05 12.95 L32.6 13.05 32.55 13.35 32.7 14.0 31.25 15.0 Q31.2 15.85 31.6 16.45 L31.9 16.75 32.45 17.15 31.55 18.5 Q31.85 19.4 32.5 19.8 L33.0 19.95 33.4 20.0 Q34.15 18.5 34.15 16.4 L34.15 16.3 34.35 18.5 34.35 18.95 34.3 19.4 34.3 19.7 34.2 20.7 33.85 23.15 33.25 25.6 33.2 25.7 32.95 26.5 32.8 26.9 32.2 28.35 32.0 28.8 31.7 29.5 Q30.45 29.2 29.8 30.75 28.85 30.7 27.55 31.55 26.35 32.65 26.95 34.05 L25.1 34.65 24.6 34.75 24.3 34.8 24.2 34.8 23.05 34.9 19.75 34.8 19.4 34.75 19.25 34.7 Q16.7 34.4 15.05 33.15 L14.35 32.55 13.95 32.0 Q15.75 33.0 17.7 33.0 L18.7 32.95 Q20.55 31.95 19.35 30.5 L16.0 31.0 14.15 30.5 14.2 30.35 Q14.65 29.3 13.9 28.95 L13.6 28.8 14.25 27.75 Q14.2 26.75 13.45 26.5 L13.0 26.45 Q13.05 25.8 12.75 25.1 L12.7 24.95 12.55 24.55 12.5 24.35 Q12.15 23.15 12.4 22.0 L12.4 21.95 12.45 21.8 12.6 21.4 Q13.5 22.2 14.55 21.4 15.35 20.8 15.75 19.8 16.8 20.35 18.05 20.6 L19.25 20.8 20.5 20.85 Q23.55 20.85 25.85 18.95 L26.2 18.65 Q28.6 16.45 28.6 13.1 28.6 10.35 26.95 7.95 L28.45 8.55 Q29.9 9.25 31.1 10.4 30.6 10.75 30.6 11.75 L30.6 11.8 M27.4 6.4 L29.05 6.7 Q29.0 5.95 27.0 5.4 L25.6 6.4 25.85 6.65 25.9 6.7 26.85 6.45 27.4 6.4 M11.4 20.5 Q9.8 24.5 9.7 25.9 L9.7 26.3 Q9.25 23.05 11.15 19.1 L11.7 19.75 11.6 20.05 11.4 20.5 M28.05 38.1 L27.95 38.25 28.05 38.2 28.05 38.1" fill="none" stroke="#000000" stroke-linecap="round" stroke-linejoin="round" stroke-opacity="0.3019608" stroke-width="0.5"/>
    </g>
    <radialGradient cx="0" cy="0" gradientTransform="matrix(-0.0079, 0.0114, -0.0083, -0.0061, 23.75, 13.7)" gradientUnits="userSpaceOnUse" id="gradient1" r="819.2" spreadMethod="pad">
      <stop offset="0.0" stop-color="#ffffde" stop-opacity="0.3529412"/>
      <stop offset="0.4117647058823529" stop-color="#ffffcc" stop-opacity="0.0"/>
    </radialGradient>
    <radialGradient cx="0" cy="0" gradientTransform="matrix(-0.0079, 0.0114, -0.0083, -0.0061, 18.9, 9.1)" gradientUnits="userSpaceOnUse" id="gradient2" r="819.2" spreadMethod="pad">
      <stop offset="0.0" stop-color="#ffffde" stop-opacity="0.3529412"/>
      <stop offset="0.4117647058823529" stop-color="#ffffcc" stop-opacity="0.0"/>
    </radialGradient>
    <radialGradient cx="0" cy="0" gradientTransform="matrix(-0.0071, 0.0034, -0.0023, -0.0053, 18.25, 7.9)" gradientUnits="userSpaceOnUse" id="gradient3" r="819.2" spreadMethod="pad">
      <stop offset="0.0" stop-color="#ffffde" stop-opacity="0.52156866"/>
      <stop offset="0.4117647058823529" stop-color="#ffffcc" stop-opacity="0.0"/>
    </radialGradient>
  </defs>
</svg>
