<?xml version="1.0" encoding="UTF-8" standalone="no"?>
<svg xmlns:xlink="http://www.w3.org/1999/xlink" height="440.0px" width="440.0px" xmlns="http://www.w3.org/2000/svg">
  <g transform="matrix(10.0, 0.0, 0.0, 10.0, 0.0, 0.0)">
    <use height="44.0" transform="matrix(1.0, 0.0, 0.0, 1.0, 0.0, 0.0)" width="44.0" xlink:href="#shape0"/>
    <use height="29.2" transform="matrix(0.7665, 0.0, 0.0, 0.7665, 3.2671, 13.6971)" width="50.8" xlink:href="#sprite0"/>
    <use height="32.5" transform="matrix(0.4377, -0.253, 0.1909, 0.3225, 0.0, 13.55)" width="32.5" xlink:href="#sprite1"/>
    <use height="32.3" transform="matrix(1.0, 0.0, 0.0, 1.0, 1.75, 6.15)" width="40.75" xlink:href="#shape3"/>
  </g>
  <defs>
    <g id="shape0" transform="matrix(1.0, 0.0, 0.0, 1.0, 0.0, 0.0)">
      <path d="M44.0 44.0 L0.0 44.0 0.0 0.0 44.0 0.0 44.0 44.0" fill="#43adca" fill-opacity="0.0" fill-rule="evenodd" stroke="none"/>
      <path d="M37.8 20.35 L37.1 20.2 Q34.85 20.2 33.3 21.6 L32.4 22.6 Q31.45 23.95 31.2 25.6 L30.55 25.0 29.7 24.25 Q27.8 22.65 25.25 21.3 L27.45 18.25 27.8 17.65 29.65 13.95 Q34.3 16.65 37.4 19.8 L37.8 20.35 M33.15 27.65 L34.8 26.9 35.8 26.65 37.0 26.45 Q39.0 26.45 40.3 27.25 L40.6 27.45 Q41.9 28.5 42.0 30.4 41.7 31.55 41.0 32.6 39.4 35.0 36.45 35.7 L34.1 36.05 Q35.0 34.65 35.0 33.1 L35.0 32.75 34.9 31.65 Q34.6 30.4 33.85 29.25 33.2 28.25 32.5 27.8 L33.2 27.8 33.3 27.75 33.15 27.65 M24.9 34.85 Q21.7 33.9 18.2 32.25 18.3 30.2 18.9 28.45 19.75 26.2 21.5 24.5 L22.1 24.8 Q24.55 26.05 26.8 26.75 L26.9 26.8 27.25 28.4 Q27.25 29.55 26.75 30.95 26.2 32.7 24.9 34.85 M13.5 29.45 L11.5 28.1 11.45 28.05 Q9.25 26.35 7.6 24.55 7.8 23.4 8.4 22.4 L9.35 21.0 Q11.1 19.05 13.25 18.85 L13.8 18.85 14.0 19.1 14.4 19.5 15.9 20.85 15.95 20.95 17.75 22.3 Q16.45 22.5 15.05 24.85 L14.25 26.4 Q13.6 27.95 13.5 29.45 M4.35 19.95 L3.75 18.5 Q3.25 17.0 3.4 15.6 L3.55 14.65 Q3.9 12.85 5.3 11.3 L5.45 11.1 6.75 10.15 7.0 9.95 10.15 10.45 Q13.05 11.45 13.15 14.2 13.2 15.45 12.7 17.15 L12.5 17.1 12.2 16.1 Q7.55 14.0 5.45 17.15 L4.8 18.3 Q4.45 19.05 4.35 19.95 M15.8 9.0 Q18.9 9.4 22.3 10.6 L22.7 10.75 23.2 11.6 23.4 12.9 23.1 15.4 22.55 16.65 Q21.8 18.15 20.45 18.95 17.5 17.75 14.8 17.4 15.85 16.75 16.5 15.3 L17.05 13.8 17.2 12.35 Q17.2 9.85 15.8 9.0" fill="#ffffff" fill-rule="evenodd" stroke="none"/>
      <path d="M38.25 20.8 L39.0 21.7 39.65 22.5 Q40.75 24.0 41.35 25.35 42.55 28.05 42.0 30.4 41.9 28.5 40.6 27.45 L40.3 27.25 Q39.0 26.45 37.0 26.45 L35.8 26.65 34.8 26.9 33.15 27.65 31.95 26.4 31.9 26.4 31.2 25.6 Q31.45 23.95 32.4 22.6 L33.3 21.6 Q34.85 20.2 37.1 20.2 L37.8 20.35 38.25 20.75 38.2 20.75 38.25 20.8 M34.1 36.05 L30.5 35.95 24.9 34.85 Q26.2 32.7 26.75 30.95 27.25 29.55 27.25 28.4 L26.9 26.8 30.25 27.6 30.95 27.7 32.5 27.8 Q33.2 28.25 33.85 29.25 34.6 30.4 34.9 31.65 L35.0 32.75 35.0 33.1 Q35.0 34.65 34.1 36.05 M18.2 32.25 L17.85 32.05 17.85 32.0 17.5 31.85 13.5 29.45 Q13.6 27.95 14.25 26.4 L15.05 24.85 Q16.45 22.5 17.75 22.3 L21.5 24.5 Q19.75 26.2 18.9 28.45 18.3 30.2 18.2 32.25 M7.6 24.55 L7.15 24.05 Q5.3 21.85 4.35 19.95 4.45 19.05 4.8 18.3 L5.45 17.15 Q7.55 14.0 12.2 16.1 L12.5 17.1 13.0 17.85 13.8 18.85 13.25 18.85 Q11.1 19.05 9.35 21.0 L8.4 22.4 Q7.8 23.4 7.6 24.55 M7.0 9.95 L7.55 9.7 Q10.2 8.45 14.9 8.9 L14.95 8.9 15.1 8.9 15.8 9.0 Q17.2 9.85 17.2 12.35 L17.05 13.8 16.5 15.3 Q15.85 16.75 14.8 17.4 L14.25 17.3 14.1 17.3 12.7 17.15 Q13.2 15.45 13.15 14.2 13.05 11.45 10.15 10.45 L7.0 9.95 M22.7 10.75 Q25.1 11.65 27.6 12.95 L29.65 13.95 27.8 17.65 27.45 18.25 25.25 21.3 23.8 20.45 23.75 20.4 20.45 18.95 Q21.8 18.15 22.55 16.65 L23.1 15.4 23.4 12.9 23.2 11.6 22.7 10.75" fill="#b80101" fill-rule="evenodd" stroke="none"/>
      <path d="M38.25 20.8 L38.2 20.75 38.25 20.75 38.25 20.8" fill="#000000" fill-rule="evenodd" stroke="none"/>
      <path d="M42.0 30.4 Q42.55 28.05 41.35 25.35 40.75 24.0 39.65 22.5 L39.0 21.7 38.25 20.8 M38.25 20.75 L37.8 20.35 M42.0 30.4 Q41.7 31.55 41.0 32.6 39.4 35.0 36.45 35.7 L34.1 36.05 30.5 35.95 24.9 34.85 Q21.7 33.9 18.2 32.25 L17.85 32.05 17.85 32.0 17.5 31.85 13.5 29.45 11.5 28.1 11.45 28.05 Q9.25 26.35 7.6 24.55 L7.15 24.05 Q5.3 21.85 4.35 19.95 L3.75 18.5 Q3.25 17.0 3.4 15.6 L3.55 14.65 Q3.9 12.85 5.3 11.3 L5.45 11.1 6.75 10.15 7.0 9.95 7.55 9.7 Q10.2 8.45 14.9 8.9 L14.95 8.9 15.1 8.9 15.8 9.0 Q18.9 9.4 22.3 10.6 L22.7 10.75 Q25.1 11.65 27.6 12.95 L29.65 13.95 Q34.3 16.65 37.4 19.8 L37.8 20.35 M25.25 21.3 Q27.8 22.65 29.7 24.25 L30.55 25.0 31.2 25.6 M20.45 18.95 L23.75 20.4 23.8 20.45 25.25 21.3 M26.9 26.8 L26.8 26.75 Q24.55 26.05 22.1 24.8 L21.5 24.5 M26.9 26.8 L30.25 27.6 30.95 27.7 32.5 27.8 33.2 27.8 33.3 27.75 33.15 27.65 M13.8 18.85 L13.0 17.85 12.5 17.1 M12.7 17.15 Q13.2 15.45 13.15 14.2 13.05 11.45 10.15 10.45 L7.0 9.95 M12.7 17.15 L14.1 17.3 14.25 17.3 14.8 17.4 Q17.5 17.75 20.45 18.95 M13.8 18.85 L14.0 19.1 14.4 19.5 15.9 20.85 15.95 20.95 17.75 22.3 21.5 24.5" fill="none" stroke="#000000" stroke-linecap="round" stroke-linejoin="round" stroke-opacity="0.2" stroke-width="0.05"/>
    </g>
    <g id="sprite0" transform="matrix(1.0, 0.0, 0.0, 1.0, 27.05, 18.4)">
      <use height="29.2" transform="matrix(1.0, 0.0, 0.0, 1.0, -27.05, -18.4)" width="50.8" xlink:href="#shape1"/>
    </g>
    <g id="shape1" transform="matrix(1.0, 0.0, 0.0, 1.0, 27.05, 18.4)">
      <path d="M20.4 -7.0 Q21.9 -5.05 22.65 -3.2 24.25 0.25 23.55 3.35 23.15 4.9 22.2 6.3 20.15 9.4 16.3 10.3 L13.15 10.75 8.45 10.65 Q4.95 10.35 1.1 9.2 -3.05 8.0 -7.65 5.8 L-8.1 5.55 -8.15 5.5 -8.55 5.3 -13.8 2.15 -16.4 0.4 -16.5 0.25 Q-19.35 -1.95 -21.5 -4.25 L-22.1 -5.0 Q-24.55 -7.85 -25.8 -10.35 L-26.55 -12.2 Q-27.25 -14.25 -27.0 -16.05 L-26.85 -17.25 -26.65 -15.8 -25.2 -12.4 -22.25 -8.75 -20.5 -7.1 Q-17.3 -4.25 -12.8 -1.9 -10.0 -0.45 -6.7 0.85 L1.6 3.55 3.55 4.05 Q10.05 5.5 14.25 5.05 20.55 4.25 21.25 -0.75 L21.35 -1.3 Q21.5 -3.75 20.4 -7.0 M2.6 -14.4 Q8.9 -11.25 12.6 -7.55 16.35 -3.8 15.3 -1.6 14.6 -0.2 12.05 0.0 11.45 -0.45 10.2 -1.85 L10.15 -1.85 Q6.35 -6.2 -0.4 -9.55 L-0.45 -9.6 Q-7.2 -13.1 -12.95 -13.65 L-13.05 -13.65 -15.1 -13.95 Q-15.9 -15.55 -15.3 -16.7 -14.25 -18.9 -9.0 -18.25 -3.7 -17.55 2.6 -14.4" fill="#331f01" fill-rule="evenodd" stroke="none"/>
    </g>
    <g id="sprite1" transform="matrix(1.0, 0.0, 0.0, 1.0, 0.0, 0.0)">
      <use height="32.5" transform="matrix(1.0, 0.0, 0.0, 1.0, 0.0, 0.0)" width="32.5" xlink:href="#shape2"/>
    </g>
    <g id="shape2" transform="matrix(1.0, 0.0, 0.0, 1.0, 0.0, 0.0)">
      <path d="M4.75 27.75 Q0.0 23.0 0.0 16.25 0.0 9.5 4.75 4.75 9.5 0.0 16.25 0.0 23.0 0.0 27.75 4.75 32.5 9.5 32.5 16.25 32.5 23.0 27.75 27.75 23.0 32.5 16.25 32.5 9.5 32.5 4.75 27.75" fill="url(#gradient0)" fill-rule="evenodd" stroke="none"/>
    </g>
    <radialGradient cx="0" cy="0" gradientTransform="matrix(0.0203, 0.0, 0.0, 0.0203, 16.25, 16.25)" gradientUnits="userSpaceOnUse" id="gradient0" r="819.2" spreadMethod="pad">
      <stop offset="0.0" stop-color="#fbce6a"/>
      <stop offset="1.0" stop-color="#fbce6a" stop-opacity="0.0"/>
    </radialGradient>
    <g id="shape3" transform="matrix(1.0, 0.0, 0.0, 1.0, -1.75, -6.15)">
      <path d="M4.6 15.3 Q5.45 14.65 6.45 14.15 9.05 12.75 11.2 12.9 L11.35 12.95 Q12.15 12.95 12.75 13.3 L12.8 13.3 Q13.45 13.55 13.8 13.9 L13.9 13.95 14.45 14.8 Q14.5 15.15 14.2 15.1 L11.95 15.3 Q9.75 15.65 8.8 16.45 L7.2 17.65 Q5.95 17.6 5.25 17.0 4.3 16.2 4.6 15.3" fill="#ffca33" fill-rule="evenodd" stroke="none"/>
      <path d="M7.2 17.65 L8.8 16.45 Q9.75 15.65 11.95 15.3 L14.2 15.1 Q14.5 15.15 14.45 14.8 L13.9 13.95 14.0 14.0 Q15.7 15.3 14.45 17.7 L14.2 18.2 14.2 18.0 Q14.4 17.3 13.9 16.95 13.1 16.25 11.4 16.95 L10.85 17.2 10.8 17.25 10.45 17.35 8.0 17.65 7.2 17.65" fill="#cc9411" fill-rule="evenodd" stroke="none"/>
      <path d="M14.2 18.2 L13.85 18.75 Q13.8 18.9 13.5 18.35 L12.35 17.05 10.8 17.25 10.85 17.2 11.4 16.95 Q13.1 16.25 13.9 16.95 14.4 17.3 14.2 18.0 L14.2 18.2" fill="#8c6101" fill-rule="evenodd" stroke="none"/>
      <path d="M10.45 17.35 L10.25 17.45 9.05 18.05 8.85 18.2 8.55 18.35 7.45 19.2 6.95 19.65 6.3 20.35 Q5.75 20.55 5.3 21.1 L4.9 21.9 Q4.75 22.45 5.05 22.7 L5.9 22.85 6.15 22.85 6.3 23.05 5.2 23.25 Q2.8 23.0 2.05 20.65 1.5 19.15 2.75 17.3 2.5 18.25 3.25 18.85 4.2 19.65 5.65 18.65 L7.2 17.65 8.0 17.65 10.45 17.35" fill="#b88410" fill-rule="evenodd" stroke="none"/>
      <path d="M6.3 20.35 L5.55 21.25 5.85 22.2 6.15 22.85 5.9 22.85 5.05 22.7 Q4.75 22.45 4.9 21.9 L5.3 21.1 Q5.75 20.55 6.3 20.35" fill="#7a5401" fill-rule="evenodd" stroke="none"/>
      <path d="M4.6 15.3 Q4.3 16.2 5.25 17.0 5.95 17.6 7.2 17.65 L5.65 18.65 Q4.2 19.65 3.25 18.85 2.5 18.25 2.75 17.3 L3.1 16.75 4.6 15.3" fill="#e3a314" fill-rule="evenodd" stroke="none"/>
      <path d="M13.9 13.95 L13.8 13.9 Q13.45 13.55 12.8 13.3 L12.75 13.3 Q12.15 12.95 11.35 12.95 L11.2 12.9 Q9.05 12.75 6.45 14.15 5.45 14.65 4.6 15.3 M13.9 13.95 L14.0 14.0 Q15.7 15.3 14.45 17.7 L14.2 18.2 13.85 18.75 Q13.8 18.9 13.5 18.35 L12.35 17.05 10.8 17.25 10.45 17.35 10.25 17.45 9.05 18.05 8.85 18.2 8.55 18.35 7.45 19.2 6.95 19.65 6.3 20.35 5.55 21.25 5.85 22.2 6.15 22.85 6.3 23.05 5.2 23.25 Q2.8 23.0 2.05 20.65 1.5 19.15 2.75 17.3 L3.1 16.75 4.6 15.3" fill="none" stroke="#000000" stroke-linecap="round" stroke-linejoin="round" stroke-opacity="0.3019608" stroke-width="0.05"/>
      <path d="M13.8 14.6 L13.8 14.65 Q10.95 15.1 8.65 14.05 8.45 14.0 8.85 13.85 L13.4 13.75 Q13.95 14.05 13.8 14.6" fill="#ffffff" fill-rule="evenodd" stroke="none"/>
      <path d="M28.05 18.5 Q27.95 19.4 29.05 20.0 L31.1 20.25 32.3 18.7 Q33.0 17.8 35.05 16.95 L37.2 16.3 Q37.45 16.25 37.3 16.0 37.2 15.55 36.7 15.3 L36.7 15.25 36.65 15.25 36.55 15.2 35.5 14.85 35.4 14.85 34.05 14.8 33.85 14.75 Q31.8 15.1 29.65 17.0 L28.05 18.5" fill="#ffca33" fill-rule="evenodd" stroke="none"/>
      <path d="M34.05 19.25 L34.4 19.1 34.45 19.0 34.9 18.65 Q36.3 17.65 37.2 18.15 37.85 18.45 37.8 19.15 L37.85 19.35 37.95 18.8 Q38.65 16.15 36.75 15.3 L36.7 15.3 Q37.2 15.55 37.3 16.0 37.45 16.25 37.2 16.3 L35.05 16.95 Q33.0 17.8 32.3 18.7 L31.1 20.25 31.8 20.1 34.05 19.25" fill="#cc9411" fill-rule="evenodd" stroke="none"/>
      <path d="M34.4 19.1 L35.8 18.65 37.15 19.65 Q37.5 20.1 37.55 19.95 L37.85 19.35 37.8 19.15 Q37.85 18.45 37.2 18.15 36.3 17.65 34.9 18.65 L34.45 19.0 34.4 19.1" fill="#8c6101" fill-rule="evenodd" stroke="none"/>
      <path d="M31.1 20.25 L29.7 21.55 Q28.6 22.75 27.5 22.25 26.7 21.8 26.75 20.85 25.95 22.85 26.7 24.25 27.95 26.35 30.2 26.1 L31.25 25.7 31.1 25.55 30.85 25.55 Q30.15 25.75 30.0 25.55 29.7 25.4 29.7 24.85 L29.9 24.0 30.7 23.05 31.2 22.2 31.5 21.7 32.45 20.7 32.75 20.45 32.85 20.25 33.85 19.4 34.05 19.25 31.8 20.1 31.1 20.25" fill="#b88410" fill-rule="evenodd" stroke="none"/>
      <path d="M31.1 25.55 L30.65 24.95 30.2 24.1 30.7 23.05 29.9 24.0 29.7 24.85 Q29.7 25.4 30.0 25.55 30.15 25.75 30.85 25.55 L31.1 25.55" fill="#7a5401" fill-rule="evenodd" stroke="none"/>
      <path d="M28.05 18.5 Q27.35 19.4 26.95 20.2 L26.75 20.85 Q26.7 21.8 27.5 22.25 28.6 22.75 29.7 21.55 L31.1 20.25 29.05 20.0 Q27.95 19.4 28.05 18.5" fill="#e3a314" fill-rule="evenodd" stroke="none"/>
      <path d="M26.75 20.85 L26.95 20.2 Q27.35 19.4 28.05 18.5 M26.75 20.85 Q25.95 22.85 26.7 24.25 27.95 26.35 30.2 26.1 L31.25 25.7 31.1 25.55 30.65 24.95 30.2 24.1 30.7 23.05 31.2 22.2 31.5 21.7 32.45 20.7 32.75 20.45 32.85 20.25 33.85 19.4 34.05 19.25 34.4 19.1 35.8 18.65 37.15 19.65 Q37.5 20.1 37.55 19.95 L37.85 19.35 37.95 18.8 Q38.65 16.15 36.75 15.3 L36.7 15.3 36.7 15.25 36.65 15.25 36.55 15.2 35.5 14.85 35.4 14.85 34.05 14.8 33.85 14.75 Q31.8 15.1 29.65 17.0 L28.05 18.5" fill="none" stroke="#000000" stroke-linecap="round" stroke-linejoin="round" stroke-opacity="0.3019608" stroke-width="0.05"/>
      <path d="M36.65 15.9 Q36.7 15.35 36.1 15.15 33.75 14.85 31.9 16.15 L31.65 16.45 Q34.0 16.95 36.65 15.95 L36.65 15.9" fill="#ffffff" fill-rule="evenodd" stroke="none"/>
      <path d="M37.35 33.35 L37.35 31.3 Q37.1 28.55 35.8 26.9 L35.7 26.85 34.6 25.9 Q34.05 25.5 33.55 25.35 L33.45 25.35 Q32.85 25.2 32.45 25.35 32.1 25.45 32.3 25.7 L33.4 27.55 Q34.25 29.45 34.1 30.6 L34.0 32.5 Q34.7 33.45 35.6 33.7 36.8 34.05 37.35 33.35" fill="#ffca33" fill-rule="evenodd" stroke="none"/>
      <path d="M34.0 32.5 L34.1 30.6 Q34.25 29.45 33.4 27.55 L32.3 25.7 Q32.1 25.45 32.45 25.35 32.85 25.2 33.45 25.35 L33.35 25.3 Q31.35 24.6 30.0 26.8 L29.7 27.25 29.85 27.15 Q30.35 26.65 30.95 26.85 32.0 27.15 32.3 28.8 L32.4 29.4 32.35 29.4 32.5 29.8 33.55 31.9 Q33.7 32.3 34.0 32.5" fill="#cc9411" fill-rule="evenodd" stroke="none"/>
      <path d="M29.7 27.25 L29.45 27.8 29.95 27.9 31.7 28.15 32.35 29.4 32.4 29.4 32.3 28.8 Q32.0 27.15 30.95 26.85 30.35 26.65 29.85 27.15 L29.7 27.25" fill="#8c6101" fill-rule="evenodd" stroke="none"/>
      <path d="M32.5 29.8 L32.55 30.0 32.65 31.25 32.65 31.45 32.65 31.8 32.55 33.1 32.45 33.7 32.3 34.6 32.15 35.7 31.7 36.4 Q31.3 36.85 30.95 36.7 L30.35 36.15 30.2 35.95 30.0 35.95 30.4 36.9 Q31.95 38.6 34.3 38.1 35.85 37.75 36.7 35.8 36.05 36.45 35.15 36.25 33.95 35.85 34.0 34.25 L34.0 32.5 Q33.7 32.3 33.55 31.9 L32.5 29.8" fill="#b88410" fill-rule="evenodd" stroke="none"/>
      <path d="M32.3 34.6 L31.9 35.6 30.9 35.8 30.2 35.95 30.35 36.15 30.95 36.7 Q31.3 36.85 31.7 36.4 L32.15 35.7 32.3 34.6" fill="#7a5401" fill-rule="evenodd" stroke="none"/>
      <path d="M37.35 33.35 Q36.8 34.05 35.6 33.7 34.7 33.45 34.0 32.5 L34.0 34.25 Q33.95 35.85 35.15 36.25 36.05 36.45 36.7 35.8 L36.95 35.25 37.35 33.35" fill="#e3a314" fill-rule="evenodd" stroke="none"/>
      <path d="M33.45 25.35 L33.55 25.35 Q34.05 25.5 34.6 25.9 L35.7 26.85 35.8 26.9 Q37.1 28.55 37.35 31.3 L37.35 33.35 M33.45 25.35 L33.35 25.3 Q31.35 24.6 30.0 26.8 L29.7 27.25 29.45 27.8 29.95 27.9 31.7 28.15 32.35 29.4 32.5 29.8 32.55 30.0 32.65 31.25 32.65 31.45 32.65 31.8 32.55 33.1 32.45 33.7 32.3 34.6 31.9 35.6 30.9 35.8 30.2 35.95 30.0 35.95 30.4 36.9 Q31.95 38.6 34.3 38.1 35.85 37.75 36.7 35.8 L36.95 35.25 37.35 33.35" fill="none" stroke="#000000" stroke-linecap="round" stroke-linejoin="round" stroke-opacity="0.3019608" stroke-width="0.05"/>
      <path d="M32.95 25.75 Q34.1 28.25 36.2 29.55 L36.25 29.2 Q35.8 27.0 33.85 25.6 33.35 25.35 32.95 25.75" fill="#ffffff" fill-rule="evenodd" stroke="none"/>
      <path d="M23.6 15.05 L23.65 12.85 Q23.5 10.0 22.25 8.3 L22.15 8.2 21.2 7.25 21.1 7.15 20.05 6.7 19.95 6.6 19.0 6.65 Q18.65 6.75 18.85 7.0 L19.9 8.95 Q20.75 11.0 20.55 12.15 L20.35 14.15 Q21.1 15.1 21.9 15.4 23.1 15.75 23.6 15.05" fill="#ffca33" fill-rule="evenodd" stroke="none"/>
      <path d="M20.35 14.15 L20.55 12.15 Q20.75 11.0 19.9 8.95 L18.85 7.0 Q18.65 6.75 19.0 6.65 L19.95 6.6 19.9 6.6 Q17.95 5.85 16.6 8.25 L16.3 8.65 16.4 8.55 Q16.95 8.05 17.5 8.2 18.5 8.55 18.8 10.3 L18.85 10.85 18.85 10.9 18.9 11.35 19.9 13.5 20.35 14.15" fill="#cc9411" fill-rule="evenodd" stroke="none"/>
      <path d="M16.3 8.65 L16.0 9.25 16.55 9.4 18.2 9.6 18.85 10.9 18.85 10.85 18.8 10.3 Q18.5 8.55 17.5 8.2 16.95 8.05 16.4 8.55 L16.3 8.65" fill="#8c6101" fill-rule="evenodd" stroke="none"/>
      <path d="M18.9 11.35 L18.95 11.5 19.1 12.85 19.1 13.05 19.1 13.4 18.95 14.75 18.8 15.4 18.6 16.3 18.45 17.55 18.0 18.3 Q17.6 18.7 17.3 18.6 L16.7 17.95 16.55 17.75 16.3 17.8 16.7 18.8 Q18.2 20.6 20.55 20.0 22.05 19.6 22.9 17.6 22.3 18.3 21.4 18.05 20.3 17.65 20.35 15.95 L20.35 14.15 19.9 13.5 18.9 11.35" fill="#b88410" fill-rule="evenodd" stroke="none"/>
      <path d="M18.6 16.3 L18.25 17.4 17.25 17.7 16.55 17.75 16.7 17.95 17.3 18.6 Q17.6 18.7 18.0 18.3 L18.45 17.55 18.6 16.3" fill="#7a5401" fill-rule="evenodd" stroke="none"/>
      <path d="M23.6 15.05 Q23.1 15.75 21.9 15.4 21.1 15.1 20.35 14.15 L20.35 15.95 Q20.3 17.65 21.4 18.05 22.3 18.3 22.9 17.6 L23.25 17.0 23.6 15.05" fill="#e3a314" fill-rule="evenodd" stroke="none"/>
      <path d="M19.95 6.6 L20.05 6.7 21.1 7.15 21.2 7.25 22.15 8.2 22.25 8.3 Q23.5 10.0 23.65 12.85 L23.6 15.05 M19.95 6.6 L19.9 6.6 Q17.95 5.85 16.6 8.25 L16.3 8.65 16.0 9.25 16.55 9.4 18.2 9.6 18.85 10.9 18.9 11.35 18.95 11.5 19.1 12.85 19.1 13.05 19.1 13.4 18.95 14.75 18.8 15.4 18.6 16.3 18.25 17.4 17.25 17.7 16.55 17.75 16.3 17.8 16.7 18.8 Q18.2 20.6 20.55 20.0 22.05 19.6 22.9 17.6 L23.25 17.0 23.6 15.05" fill="none" stroke="#000000" stroke-linecap="round" stroke-linejoin="round" stroke-opacity="0.3019608" stroke-width="0.05"/>
      <path d="M19.5 7.1 L19.5 7.15 Q20.6 9.75 22.65 11.05 L22.7 10.7 Q22.3 8.4 20.4 7.0 L19.5 7.1" fill="#ffffff" fill-rule="evenodd" stroke="none"/>
      <path d="M20.1 20.25 L21.15 20.6 Q21.5 20.8 21.2 21.1 20.85 21.15 19.2 22.85 17.45 24.85 17.2 26.1 L16.65 28.35 Q15.45 29.15 14.3 29.15 L13.6 29.1 Q12.7 28.9 12.4 28.2 L13.15 25.85 13.6 24.95 Q14.85 22.55 16.65 21.35 L16.8 21.3 Q17.55 20.8 18.35 20.55 L18.45 20.55 19.85 20.25 20.1 20.25" fill="#ffca33" fill-rule="evenodd" stroke="none"/>
      <path d="M16.65 28.35 L17.2 26.1 Q17.45 24.85 19.2 22.85 20.85 21.15 21.2 21.1 21.5 20.8 21.15 20.6 L20.1 20.25 Q21.3 20.25 22.1 20.8 23.0 21.55 23.4 23.2 L23.5 23.5 23.45 23.55 Q23.05 22.85 22.35 22.85 L22.1 22.9 Q20.9 23.1 19.95 24.75 L19.65 25.25 19.7 25.35 19.5 25.75 19.35 25.85 19.3 25.95 18.7 27.35 18.6 27.55 18.45 27.95 Q18.2 28.55 18.05 29.5 L17.95 30.2 17.9 31.25 Q17.55 31.9 17.55 32.7 17.55 33.2 17.85 33.65 18.1 34.25 18.5 34.25 L19.55 33.7 19.75 33.55 20.05 33.65 19.15 34.6 Q16.75 36.05 14.2 34.6 L13.6 34.2 Q12.5 33.25 12.25 31.25 12.7 32.05 13.6 32.2 L13.9 32.2 Q15.45 32.2 16.0 30.35 L16.65 28.35" fill="#cc9411" fill-rule="evenodd" stroke="none"/>
      <path d="M19.7 25.35 L19.65 25.25 19.95 24.75 Q20.9 23.1 22.1 22.9 L22.35 22.85 Q23.05 22.85 23.45 23.55 L23.55 23.75 23.7 25.5 22.2 24.85 22.1 24.8 20.95 24.1 19.7 25.35" fill="#8c6101" fill-rule="evenodd" stroke="none"/>
      <path d="M19.75 33.55 L19.55 33.7 18.5 34.25 Q18.1 34.25 17.85 33.65 17.55 33.2 17.55 32.7 17.55 31.9 17.9 31.25 L17.9 32.6 18.95 33.2 19.75 33.55" fill="#7a5401" fill-rule="evenodd" stroke="none"/>
      <path d="M16.65 28.35 L16.0 30.35 Q15.45 32.2 13.9 32.2 L13.6 32.2 Q12.7 32.05 12.25 31.25 L12.15 30.55 Q12.15 29.4 12.4 28.2 12.7 28.9 13.6 29.1 L14.3 29.15 Q15.45 29.15 16.65 28.35" fill="#e3a314" fill-rule="evenodd" stroke="none"/>
      <path d="M12.25 31.25 Q12.5 33.25 13.6 34.2 L14.2 34.6 Q16.75 36.05 19.15 34.6 L20.05 33.65 19.75 33.55 M17.9 31.25 L17.95 30.2 18.05 29.5 Q18.2 28.55 18.45 27.95 L18.6 27.55 18.7 27.35 19.3 25.95 19.35 25.85 19.5 25.75 19.7 25.35 M23.5 23.5 L23.4 23.2 Q23.0 21.55 22.1 20.8 21.3 20.25 20.1 20.25 L19.85 20.25 18.45 20.55 18.35 20.55 Q17.55 20.8 16.8 21.3 L16.65 21.35 Q14.85 22.55 13.6 24.95 L13.15 25.85 12.4 28.2 M23.55 23.75 L23.5 23.5 M23.55 23.75 L23.7 25.5 22.2 24.85 22.1 24.8 20.95 24.1 19.7 25.35 M17.9 31.25 L17.9 32.6 18.95 33.2 19.75 33.55 M12.25 31.25 L12.15 30.55 Q12.15 29.4 12.4 28.2" fill="none" stroke="#000000" stroke-linecap="round" stroke-linejoin="round" stroke-opacity="0.3019608" stroke-width="0.05"/>
      <path d="M20.35 21.05 Q18.05 23.55 15.1 24.3 14.9 24.35 15.15 23.9 16.55 21.5 19.3 20.6 20.05 20.5 20.35 21.05" fill="#ffffff" fill-rule="evenodd" stroke="none"/>
      <path d="M8.75 31.8 Q7.7 29.5 8.55 27.05 9.45 24.6 11.75 23.5 L16.5 23.3 Q18.95 24.25 20.0 26.55 21.1 28.85 20.2 31.25 19.35 33.7 17.0 34.75 L12.25 35.0 Q9.85 34.1 8.75 31.8" fill="#ffca33" fill-rule="evenodd" stroke="none"/>
      <path d="M7.15 32.9 Q5.8 30.0 6.95 27.05 8.1 23.95 10.95 22.65 13.85 21.3 16.85 22.35 19.9 23.45 21.25 26.35 22.6 29.2 21.5 32.25 20.45 35.3 17.55 36.65 14.65 38.0 11.6 36.95 8.55 35.8 7.15 32.9" fill="#af7b03" fill-rule="evenodd" stroke="none"/>
      <path d="M7.15 32.9 Q5.8 30.0 6.95 27.05 8.1 23.95 10.95 22.65 13.85 21.3 16.85 22.35 19.9 23.45 21.25 26.35 22.6 29.2 21.5 32.25 20.45 35.3 17.55 36.65 14.65 38.0 11.6 36.95 8.55 35.8 7.15 32.9 Z" fill="none" stroke="#000000" stroke-linecap="round" stroke-linejoin="round" stroke-opacity="0.3019608" stroke-width="0.05"/>
      <path d="M11.7 22.75 L17.3 22.95 Q19.85 24.2 21.05 26.9 22.2 29.65 21.2 32.35 20.2 35.1 17.6 36.3 L12.3 36.55 Q9.55 35.55 8.35 32.95 7.1 30.3 8.1 27.6 9.1 24.85 11.7 22.75" fill="#c98d03" fill-rule="evenodd" stroke="none"/>
      <path d="M10.4 24.45 Q12.65 23.15 15.35 24.15 18.0 25.15 19.55 28.0 21.05 30.85 19.65 33.1 18.45 35.0 16.1 33.7 15.95 35.9 14.65 36.5 13.3 37.15 11.05 36.45 8.75 35.75 7.65 33.45 6.6 31.15 7.35 28.45 8.1 25.75 10.4 24.45" fill="#ffcc33" fill-rule="evenodd" stroke="none"/>
      <path d="M17.85 31.25 Q18.6 30.5 19.4 30.5 20.25 30.45 20.65 31.1 21.1 31.75 20.85 32.75 20.65 33.7 19.9 34.45 19.2 35.2 18.35 35.25 17.55 35.25 17.1 34.6 16.7 33.95 16.9 33.0 17.15 32.0 17.85 31.25" fill="#a97601" fill-rule="evenodd" stroke="none"/>
      <path d="M17.45 31.3 Q18.0 30.7 18.65 30.65 19.3 30.6 19.65 31.2 20.0 31.7 19.85 32.5 19.65 33.25 19.05 33.85 18.45 34.45 17.8 34.5 17.15 34.55 16.85 33.95 16.45 33.45 16.65 32.7 16.8 31.9 17.45 31.3" fill="#432f01" fill-rule="evenodd" stroke="none"/>
      <path d="M8.45 25.05 Q8.95 24.4 9.35 24.4 9.7 24.4 9.7 25.05 L9.25 26.65 8.35 28.2 7.45 28.85 Q7.05 28.85 7.1 28.2 7.1 27.55 7.5 26.65 7.9 25.7 8.45 25.05" fill="#a97601" fill-rule="evenodd" stroke="none"/>
      <path d="M8.3 24.75 Q8.7 24.25 9.0 24.25 9.25 24.25 9.3 24.75 L8.95 26.0 8.2 27.3 7.5 27.8 Q7.2 27.8 7.2 27.3 7.2 26.7 7.5 25.95 L8.3 24.75" fill="#432f01" fill-rule="evenodd" stroke="none"/>
      <path d="M8.45 27.7 L8.9 26.95 Q10.95 32.7 17.0 32.4 L16.85 33.35 Q10.75 33.55 8.45 27.7" fill="#432f01" fill-rule="evenodd" stroke="none"/>
      <path d="M16.85 33.35 L16.75 33.95 Q10.45 34.15 8.25 28.1 L8.45 27.7 Q10.75 33.55 16.85 33.35" fill="#a97601" fill-rule="evenodd" stroke="none"/>
      <path d="M8.45 27.7 Q10.75 33.55 16.85 33.35" fill="none" stroke="#332720" stroke-linecap="round" stroke-linejoin="round" stroke-opacity="0.3019608" stroke-width="0.05"/>
      <path d="M9.4 35.0 Q9.15 35.1 8.75 34.7 L8.0 33.5 7.6 32.25 Q7.5 31.65 7.75 31.55 7.95 31.45 8.25 32.45 8.5 33.45 8.95 33.75 L9.45 34.5 Q9.6 34.9 9.4 35.0" fill="#ffffcc" fill-rule="evenodd" stroke="none"/>
      <path d="M13.45 33.65 L15.05 33.85 Q13.95 36.2 11.05 36.65 L10.5 36.35 Q12.7 36.0 13.45 33.65" fill="#c98d03" fill-rule="evenodd" stroke="none"/>
      <path d="M7.2 9.45 Q10.15 7.7 13.15 8.05 14.9 8.2 16.05 9.05 L16.25 9.05 16.4 8.65 16.65 8.2 Q18.05 5.85 20.0 6.6 L20.0 6.65 20.05 6.65 20.2 6.65 21.15 7.15 21.25 7.25 22.3 8.2 22.35 8.3 Q23.15 9.4 23.55 11.05 25.6 11.8 27.75 12.95 L27.7 12.9 27.75 12.9 29.75 13.95 32.05 15.35 Q33.05 14.85 33.95 14.7 L34.1 14.75 35.5 14.8 35.6 14.8 36.65 15.15 36.75 15.2 36.8 15.2 36.8 15.25 36.85 15.2 Q38.75 16.15 38.05 18.8 L37.9 19.3 37.7 19.9 37.65 19.95 37.9 20.3 38.35 20.75 38.35 20.8 39.15 21.7 39.75 22.5 39.95 22.8 40.1 22.95 41.45 25.35 42.25 28.6 42.15 30.35 Q41.85 31.55 41.1 32.6 40.3 33.85 39.15 34.6 L36.95 35.5 36.8 35.8 Q35.95 37.7 34.4 38.0 32.0 38.65 30.45 36.9 L30.05 35.95 30.1 35.95 24.9 34.85 21.0 33.5 Q19.85 35.65 17.65 36.65 L11.65 36.9 10.6 36.4 Q8.4 35.25 7.25 32.9 5.95 30.0 7.05 27.05 7.45 25.95 8.1 25.1 L7.6 24.55 7.15 23.95 6.4 23.05 5.3 23.2 Q2.9 22.95 2.15 20.6 1.65 19.25 2.7 17.6 2.2 15.85 3.1 13.8 4.25 11.15 7.2 9.45 Z" fill="none" stroke="#000000" stroke-linecap="round" stroke-linejoin="round" stroke-opacity="0.3019608" stroke-width="0.5"/>
    </g>
  </defs>
</svg>
