<?xml version="1.0" encoding="UTF-8" standalone="no"?>
<svg xmlns:xlink="http://www.w3.org/1999/xlink" height="520.0px" width="520.0px" xmlns="http://www.w3.org/2000/svg">
  <g transform="matrix(10.0, 0.0, 0.0, 10.0, 0.0, 0.0)">
    <use height="52.0" transform="matrix(1.0, 0.0, 0.0, 1.0, 0.0, 0.0)" width="52.0" xlink:href="#shape0"/>
    <use height="52.0" transform="matrix(1.0, 0.0, 0.0, 1.0, 0.0, 0.0)" width="52.0" xlink:href="#sprite0"/>
  </g>
  <defs>
    <g id="shape0" transform="matrix(1.0, 0.0, 0.0, 1.0, 0.0, 0.0)">
      <path d="M52.0 0.0 L52.0 52.0 0.0 52.0 0.0 0.0 52.0 0.0" fill="#33cc33" fill-opacity="0.0" fill-rule="evenodd" stroke="none"/>
    </g>
    <g id="sprite0" transform="matrix(1.0, 0.0, 0.0, 1.0, 0.0, 0.0)">
      <use height="52.0" transform="matrix(1.0, 0.0, 0.0, 1.0, 0.0, 0.0)" width="52.0" xlink:href="#sprite1"/>
      <use height="45.85" transform="matrix(1.0, 0.0, 0.0, 1.0, 2.4, 3.2)" width="47.25" xlink:href="#shape2"/>
      <use height="44.7" transform="matrix(0.8058, 0.0, 0.0, 0.8058, 2.8, 3.5)" width="57.5" xlink:href="#sprite2"/>
    </g>
    <g id="sprite1" transform="matrix(1.0, 0.0, 0.0, 1.0, 0.0, 0.0)">
      <use height="52.0" transform="matrix(1.0, 0.0, 0.0, 1.0, 0.0, 0.0)" width="52.0" xlink:href="#shape1"/>
    </g>
    <g id="shape1" transform="matrix(1.0, 0.0, 0.0, 1.0, 0.0, 0.0)">
      <path d="M0.0 0.0 L52.0 0.0 52.0 52.0 0.0 52.0 0.0 0.0" fill="#ffba2e" fill-opacity="0.0" fill-rule="evenodd" stroke="none"/>
    </g>
    <g id="shape2" transform="matrix(1.0, 0.0, 0.0, 1.0, -2.4, -3.2)">
      <path d="M36.15 27.15 Q37.05 30.25 36.9 33.45 L36.55 36.1 Q36.15 38.6 35.15 40.6 L33.8 42.85 32.7 44.15 32.05 44.85 29.5 46.65 29.15 46.8 28.3 47.3 27.7 47.5 25.1 48.35 24.9 48.35 Q21.05 49.05 16.75 47.5 11.65 45.7 8.2 41.55 L6.65 39.4 6.8 39.3 Q2.8 32.5 4.05 25.2 4.6 22.7 5.5 20.8 6.3 19.15 7.45 17.75 L7.8 17.45 10.9 14.8 11.25 14.65 Q12.35 14.0 13.55 13.6 15.05 13.05 16.6 12.8 L17.3 12.75 Q20.2 12.55 23.2 13.55 L23.9 13.8 Q29.0 15.65 32.55 19.85 L32.55 19.9 34.0 22.05 Q35.4 24.55 36.15 27.15 M29.05 24.1 L28.65 23.4 28.5 23.3 28.15 22.8 Q25.7 19.65 22.0 18.35 L21.7 18.3 15.7 18.0 Q14.55 18.35 13.5 18.95 L12.75 19.4 12.05 20.0 Q9.35 22.2 8.6 26.1 7.75 31.0 10.4 35.65 L11.1 36.7 12.05 37.95 Q14.6 41.55 18.6 43.0 22.75 44.5 26.45 42.7 L26.55 42.65 27.25 42.3 Q28.9 41.35 30.1 39.95 31.55 38.0 31.95 35.25 L32.2 33.35 Q32.35 30.75 31.4 28.2 L30.2 25.75 29.9 25.15 29.45 24.5 29.1 24.05 29.05 24.1" fill="#332b23" fill-rule="evenodd" stroke="none"/>
      <path d="M44.1 23.8 L44.3 23.45 44.3 23.4 44.5 24.4 44.6 24.85 Q45.1 28.4 44.45 31.85 43.95 34.65 42.85 36.9 L42.25 37.95 41.25 39.45 39.8 41.15 38.95 41.85 36.8 43.3 34.15 44.55 28.65 47.15 29.15 46.8 29.5 46.65 32.05 44.85 32.7 44.15 33.8 42.85 35.15 40.6 Q36.15 38.6 36.55 36.1 L36.9 33.45 Q37.05 30.25 36.15 27.15 36.35 27.0 36.55 27.0 41.7 25.25 44.1 23.8" fill="#26201a" fill-rule="evenodd" stroke="none"/>
      <path d="M21.0 5.5 L21.45 5.5 20.05 5.9 24.5 5.95 Q28.35 6.1 33.05 8.85 L33.2 9.0 Q37.75 11.6 40.55 14.95 40.3 14.35 41.15 15.75 L41.65 16.6 Q43.55 19.95 44.1 23.8 41.7 25.25 36.55 27.0 36.35 27.0 36.15 27.15 35.4 24.55 34.0 22.05 L32.55 19.9 32.55 19.85 Q29.0 14.95 23.65 12.85 L23.1 12.7 Q19.65 11.45 16.45 11.7 L15.75 11.7 Q14.2 11.95 12.75 12.5 11.55 12.95 10.4 13.55 L10.1 13.8 Q8.9 14.55 6.95 16.35 L7.85 15.35 Q13.4 8.95 16.05 7.4 17.45 6.6 19.05 6.05 L19.35 5.95 21.0 5.5" fill="#524638" fill-rule="evenodd" stroke="none"/>
      <path d="M21.45 5.5 L21.5 5.45 Q25.6 4.55 29.1 5.95 32.55 7.45 35.15 9.35 L35.5 9.6 Q38.0 11.5 40.55 14.95 37.75 11.6 33.2 9.0 L33.05 8.85 Q28.35 6.1 24.5 5.95 L20.05 5.9 21.45 5.5 M6.95 16.35 Q8.9 14.55 10.1 13.8 L10.4 13.55 Q11.55 12.95 12.75 12.5 14.2 11.95 15.75 11.7 L16.45 11.7 Q19.65 11.45 23.1 12.7 L23.65 12.85 Q29.0 14.95 32.55 19.85 29.0 15.65 23.9 13.8 L23.2 13.55 Q20.2 12.55 17.3 12.75 L16.6 12.8 Q15.05 13.05 13.55 13.6 12.35 14.0 11.25 14.65 L10.9 14.8 7.8 17.45 7.45 17.75 Q6.3 19.15 5.5 20.8 4.6 22.7 4.05 25.2 2.8 32.5 6.8 39.3 L6.65 39.4 5.95 38.2 Q1.95 31.35 3.2 24.1 3.75 21.65 4.7 19.65 5.45 18.1 6.6 16.7 L6.95 16.35 M29.05 24.1 L29.1 24.05 29.45 24.5 29.9 25.15 30.2 25.75 31.4 28.2 Q32.35 30.75 32.2 33.35 L31.95 35.25 Q31.55 38.0 30.1 39.95 28.9 41.35 27.25 42.3 L26.55 42.65 26.45 42.7 Q22.75 44.5 18.6 43.0 14.6 41.55 12.05 37.95 14.35 40.65 17.75 41.85 21.95 43.4 25.65 41.6 L25.75 41.6 26.4 41.25 Q28.1 40.25 29.25 38.8 30.7 36.9 31.15 34.15 L31.35 33.15 Q31.65 30.1 30.55 27.1 L29.4 24.6 29.05 24.1" fill="#826d58" fill-rule="evenodd" stroke="none"/>
      <path d="M44.3 23.4 L44.3 23.45 44.1 23.8 Q43.55 19.95 41.65 16.6 L41.15 15.75 Q40.3 14.35 40.55 14.95 38.0 11.5 35.5 9.6 L35.15 9.35 Q32.55 7.45 29.1 5.95 25.6 4.55 21.5 5.45 L21.45 5.5 21.0 5.5 Q31.2 2.9 35.7 4.6 42.45 7.0 46.3 13.6 L47.95 17.1 44.6 22.9 44.3 23.4 M12.05 37.95 L11.1 36.7 Q11.8 32.2 23.55 26.55 L23.65 26.75 24.35 27.8 25.25 29.05 Q27.6 31.8 31.0 33.0 L31.35 33.15 31.15 34.15 Q30.7 36.9 29.25 38.8 28.1 40.25 26.4 41.25 L25.75 41.6 25.65 41.6 Q21.95 43.4 17.75 41.85 14.35 40.65 12.05 37.95" fill="#473c31" fill-rule="evenodd" stroke="none"/>
      <path d="M44.3 23.4 L44.6 22.9 47.95 17.1 Q49.35 20.9 49.1 24.85 L48.8 27.2 Q48.05 31.6 42.25 38.3 L41.25 39.45 42.25 37.95 42.85 36.9 Q43.95 34.65 44.45 31.85 45.1 28.4 44.6 24.85 L44.5 24.4 44.3 23.4 M11.1 36.7 L10.4 35.65 Q7.75 31.0 8.6 26.1 9.35 22.2 12.05 20.0 L12.75 19.4 13.5 18.95 Q14.55 18.35 15.7 18.0 L21.7 18.3 Q21.25 22.55 23.55 26.55 11.8 32.2 11.1 36.7" fill="#14100d" fill-rule="evenodd" stroke="none"/>
      <path d="M47.95 17.1 L46.3 13.6 Q42.45 7.0 35.7 4.6 31.2 2.9 21.0 5.5 L19.35 5.95 19.05 6.05 Q17.45 6.6 16.05 7.4 13.4 8.95 7.85 15.35 L6.95 16.35 6.6 16.7 Q5.45 18.1 4.7 19.65 3.75 21.65 3.2 24.1 1.95 31.35 5.95 38.2 L6.65 39.4 8.2 41.55 Q11.65 45.7 16.75 47.5 21.05 49.05 24.9 48.35 L25.1 48.35 27.7 47.5 28.3 47.3 29.15 46.8 28.65 47.15 34.15 44.55 36.8 43.3 38.95 41.85 39.8 41.15 41.25 39.45 42.25 38.3 Q48.05 31.6 48.8 27.2 L49.1 24.85 Q49.35 20.9 47.95 17.1 M21.7 18.3 L22.0 18.35 Q25.7 19.65 28.15 22.8 L28.5 23.3 28.65 23.4 29.05 24.1 M21.7 18.3 Q21.25 22.55 23.55 26.55 L23.65 26.75 24.35 27.8 25.25 29.05 Q27.6 31.8 31.0 33.0 L31.35 33.15 Q31.65 30.1 30.55 27.1 L29.4 24.6 29.05 24.1" fill="none" stroke="#000000" stroke-linecap="round" stroke-linejoin="round" stroke-opacity="0.3019608" stroke-width="1.0"/>
      <path d="M38.95 9.75 L38.8 9.95 38.4 9.8 Q38.35 9.5 38.55 9.5 38.85 9.45 38.95 9.75 M41.45 9.5 L41.65 9.2 Q41.9 9.15 41.95 9.45 L41.85 9.65 41.45 9.5 M34.3 11.75 L34.45 11.35 Q34.8 11.2 34.85 11.55 L34.7 11.8 34.3 11.75 M30.6 14.1 Q30.85 13.8 31.1 14.0 L31.1 14.3 Q30.8 14.65 30.6 14.45 30.45 14.25 30.6 14.1" fill="#826d58" fill-rule="evenodd" stroke="none"/>
      <path d="M35.1 11.95 L35.05 12.2 34.35 12.7 33.65 12.85 33.2 12.4 33.4 11.8 33.6 11.55 33.6 11.95 34.0 12.25 34.75 12.25 35.1 11.95 M39.1 10.15 L39.0 10.4 38.5 10.7 37.95 10.65 37.6 10.15 37.7 9.65 37.95 9.45 37.85 9.75 38.15 10.2 38.8 10.35 39.1 10.15 M42.1 9.85 L42.1 10.1 41.55 10.4 41.0 10.3 40.65 9.85 Q40.55 9.55 40.7 9.35 L40.95 9.1 Q40.85 9.25 40.9 9.45 L41.25 9.9 41.85 10.05 42.1 9.85 M31.5 14.25 L31.55 14.5 31.2 15.3 30.65 15.7 30.05 15.65 29.85 15.0 29.9 14.65 30.05 14.95 30.7 15.1 31.3 14.65 31.5 14.25" fill="#14110d" fill-rule="evenodd" stroke="none"/>
      <path d="M33.6 11.55 L34.0 11.2 34.75 11.15 Q35.1 11.2 35.2 11.55 L35.1 11.95 34.75 12.25 34.0 12.25 33.6 11.95 33.6 11.55 M38.95 9.75 Q38.85 9.45 38.55 9.5 38.35 9.5 38.4 9.8 L38.8 9.95 38.95 9.75 M37.95 9.45 L38.2 9.3 38.8 9.4 39.15 9.8 39.1 10.15 38.8 10.35 38.15 10.2 37.85 9.75 37.95 9.45 M40.95 9.1 L41.25 9.0 41.9 9.05 42.15 9.5 42.1 9.85 41.85 10.05 41.25 9.9 40.9 9.45 Q40.85 9.25 40.95 9.1 M30.6 14.1 Q30.45 14.25 30.6 14.45 30.8 14.65 31.1 14.3 L31.1 14.0 Q30.85 13.8 30.6 14.1 M34.3 11.75 L34.7 11.8 34.85 11.55 Q34.8 11.2 34.45 11.35 L34.3 11.75 M41.45 9.5 L41.85 9.65 41.95 9.45 Q41.9 9.15 41.65 9.2 L41.45 9.5 M29.9 14.65 L30.1 14.2 Q30.4 13.85 30.75 13.75 31.1 13.65 31.3 13.9 L31.5 14.25 31.3 14.65 30.7 15.1 30.05 14.95 29.9 14.65" fill="#2b241d" fill-rule="evenodd" stroke="none"/>
      <path d="M33.6 11.55 L34.0 11.2 34.75 11.15 Q35.1 11.2 35.2 11.55 L35.1 11.95 35.05 12.2 34.35 12.7 33.65 12.85 33.2 12.4 33.4 11.8 33.6 11.55 M37.95 9.45 L38.2 9.3 38.8 9.4 39.15 9.8 39.1 10.15 39.0 10.4 38.5 10.7 37.95 10.65 37.6 10.15 37.7 9.65 37.95 9.45 M40.95 9.1 L41.25 9.0 41.9 9.05 42.15 9.5 42.1 9.85 42.1 10.1 41.55 10.4 41.0 10.3 40.65 9.85 Q40.55 9.55 40.7 9.35 L40.95 9.1 M29.9 14.65 L30.1 14.2 Q30.4 13.85 30.75 13.75 31.1 13.65 31.3 13.9 L31.5 14.25 31.55 14.5 31.2 15.3 30.65 15.7 30.05 15.65 29.85 15.0 29.9 14.65 M27.15 21.7 L29.65 17.05 Q30.45 16.0 33.15 14.4 35.85 12.75 37.8 11.85 L44.85 11.3" fill="none" stroke="#000000" stroke-linecap="round" stroke-linejoin="round" stroke-opacity="0.3019608" stroke-width="0.05"/>
      <path d="M34.85 5.1 L34.95 5.6 Q35.05 7.25 32.35 8.8 29.6 10.3 25.65 10.8 L18.75 10.5 Q17.4 10.1 16.7 9.6 L16.6 9.05 Q16.4 7.4 19.15 5.95 21.9 4.4 25.9 3.9 L32.75 4.2 Q34.05 4.55 34.85 5.1 M33.85 23.15 L33.65 22.8 Q32.7 20.8 34.05 18.35 35.35 15.95 38.15 14.55 41.05 13.15 43.7 13.6 45.3 13.85 46.3 14.75 L46.45 15.1 Q47.4 17.1 46.05 19.45 44.75 21.85 41.9 23.25 39.05 24.65 36.4 24.2 34.85 24.0 33.85 23.15 M36.3 41.55 L36.2 41.2 Q36.0 39.45 37.75 36.65 39.35 33.75 41.95 31.45 44.6 29.2 46.65 28.75 L47.85 28.8 47.9 29.2 Q48.1 30.9 46.45 33.75 44.75 36.65 42.15 38.95 39.5 41.2 37.55 41.6 L36.3 41.55" fill="#980101" fill-rule="evenodd" stroke="none"/>
      <path d="M16.7 9.6 Q17.4 10.1 18.75 10.5 L25.65 10.8 Q29.6 10.3 32.35 8.8 35.05 7.25 34.95 5.6 L34.85 5.1 Q35.7 5.75 35.8 6.6 35.9 8.25 33.2 9.8 30.45 11.3 26.5 11.8 L19.6 11.5 Q17.2 10.8 16.7 9.6 M46.3 14.75 L47.3 16.1 Q48.25 18.1 46.85 20.45 45.6 22.85 42.7 24.25 39.9 25.65 37.25 25.25 34.85 24.85 33.85 23.15 34.85 24.0 36.4 24.2 39.05 24.65 41.9 23.25 44.75 21.85 46.05 19.45 47.4 17.1 46.45 15.1 L46.3 14.75 M47.85 28.8 Q48.6 29.1 48.75 30.2 48.95 31.9 47.3 34.8 45.6 37.65 43.0 39.95 40.35 42.25 38.4 42.6 36.6 42.9 36.3 41.55 L37.55 41.6 Q39.5 41.2 42.15 38.95 44.75 36.65 46.45 33.75 48.1 30.9 47.9 29.2 L47.85 28.8" fill="#610101" fill-rule="evenodd" stroke="none"/>
      <path d="M16.7 9.6 Q17.2 10.8 19.6 11.5 L26.5 11.8 Q30.45 11.3 33.2 9.8 35.9 8.25 35.8 6.6 35.7 5.75 34.85 5.1 34.05 4.55 32.75 4.2 L25.9 3.9 Q21.9 4.4 19.15 5.95 16.4 7.4 16.6 9.05 L16.7 9.6 M33.85 23.15 L33.65 22.8 Q32.7 20.8 34.05 18.35 35.35 15.95 38.15 14.55 41.05 13.15 43.7 13.6 45.3 13.85 46.3 14.75 L47.3 16.1 Q48.25 18.1 46.85 20.45 45.6 22.85 42.7 24.25 39.9 25.65 37.25 25.25 34.85 24.85 33.85 23.15 M36.3 41.55 L36.2 41.2 Q36.0 39.45 37.75 36.65 39.35 33.75 41.95 31.45 44.6 29.2 46.65 28.75 L47.85 28.8 Q48.6 29.1 48.75 30.2 48.95 31.9 47.3 34.8 45.6 37.65 43.0 39.95 40.35 42.25 38.4 42.6 36.6 42.9 36.3 41.55" fill="none" stroke="#000000" stroke-linecap="round" stroke-linejoin="round" stroke-opacity="0.3019608" stroke-width="1.0"/>
      <path d="M25.5 4.1 L29.4 4.3 Q31.05 4.7 31.05 5.65 31.15 6.55 29.65 7.4 28.1 8.25 25.9 8.5 L22.05 8.35 Q20.4 7.9 20.35 7.0 20.3 6.1 21.8 5.25 23.35 4.4 25.5 4.1 M45.15 16.45 Q45.65 17.55 44.9 18.9 44.15 20.25 42.55 21.05 41.0 21.85 39.5 21.55 38.05 21.35 37.55 20.25 36.95 19.05 37.7 17.75 38.45 16.4 40.0 15.6 41.6 14.85 43.1 15.1 44.6 15.3 45.15 16.45 M46.2 34.3 Q45.2 35.85 43.75 37.1 42.3 38.4 41.25 38.6 40.05 38.85 40.0 37.9 39.85 36.85 40.85 35.25 41.75 33.7 43.2 32.4 44.65 31.15 45.8 30.95 46.85 30.7 46.95 31.7 47.05 32.65 46.2 34.3" fill="#610101" fill-rule="evenodd" stroke="none"/>
      <path d="M22.25 5.6 Q23.8 4.75 25.95 4.45 L29.85 4.6 Q31.5 5.05 31.5 6.0 31.6 6.9 30.05 7.75 28.55 8.6 26.35 8.85 L22.5 8.7 Q20.85 8.25 20.8 7.3 20.75 6.4 22.25 5.6 M23.05 5.5 Q21.75 6.2 21.85 7.0 21.9 7.7 23.2 8.1 L26.5 8.25 Q28.35 8.05 29.65 7.3 30.9 6.6 30.85 5.8 30.75 5.1 29.4 4.75 L26.2 4.55 Q24.3 4.75 23.05 5.5" fill="#dad967" fill-rule="evenodd" stroke="none"/>
      <path d="M23.05 5.5 Q24.3 4.75 26.2 4.55 L29.4 4.75 Q30.75 5.1 30.85 5.8 30.9 6.6 29.65 7.3 28.35 8.05 26.5 8.25 L23.2 8.1 Q21.9 7.7 21.85 7.0 21.75 6.2 23.05 5.5" fill="#ffffff" fill-rule="evenodd" stroke="none"/>
      <path d="M43.15 20.95 Q44.5 20.25 45.1 19.15 45.75 18.05 45.3 17.1 44.85 16.15 43.6 15.9 42.4 15.7 41.05 16.4 39.7 17.05 39.1 18.15 38.45 19.3 38.9 20.25 39.35 21.2 40.6 21.35 41.8 21.6 43.15 20.95 M45.65 17.1 Q46.15 18.2 45.4 19.55 44.65 20.9 43.05 21.7 41.5 22.5 40.0 22.2 38.55 22.0 38.05 20.85 37.45 19.7 38.2 18.35 38.95 17.05 40.55 16.25 42.1 15.45 43.6 15.7 45.1 15.9 45.65 17.1" fill="#dad967" fill-rule="evenodd" stroke="none"/>
      <path d="M43.15 20.95 Q41.8 21.6 40.6 21.35 39.35 21.2 38.9 20.25 38.45 19.3 39.1 18.15 39.7 17.05 41.05 16.4 42.4 15.7 43.6 15.9 44.85 16.15 45.3 17.1 45.75 18.05 45.1 19.15 44.5 20.25 43.15 20.95" fill="#ffffff" fill-rule="evenodd" stroke="none"/>
      <path d="M46.2 31.85 Q45.3 32.05 44.1 33.1 42.85 34.15 42.05 35.45 41.25 36.8 41.3 37.65 41.45 38.45 42.4 38.25 43.35 38.1 44.55 37.05 L46.5 34.6 Q47.35 33.3 47.2 32.45 47.1 31.65 46.2 31.85 M46.3 31.65 Q47.35 31.4 47.45 32.35 47.55 33.3 46.7 34.95 L44.25 37.8 Q42.75 39.1 41.75 39.3 40.55 39.5 40.5 38.55 40.35 37.55 41.3 35.95 42.25 34.35 43.7 33.1 45.15 31.85 46.3 31.65" fill="#dad967" fill-rule="evenodd" stroke="none"/>
      <path d="M46.2 31.85 Q47.1 31.65 47.2 32.45 47.35 33.3 46.5 34.6 L44.55 37.05 Q43.35 38.1 42.4 38.25 41.45 38.45 41.3 37.65 41.25 36.8 42.05 35.45 42.85 34.15 44.1 33.1 45.3 32.05 46.2 31.85" fill="#ffffff" fill-rule="evenodd" stroke="none"/>
    </g>
    <g id="sprite2" transform="matrix(1.0, 0.0, 0.0, 1.0, 0.0, 0.0)">
      <use height="44.7" transform="matrix(1.0, 0.0, 0.0, 1.0, 0.0, 0.0)" width="57.5" xlink:href="#shape3"/>
    </g>
    <g id="shape3" transform="matrix(1.0, 0.0, 0.0, 1.0, 0.0, 0.0)">
      <path d="M34.55 0.05 L41.0 0.85 Q57.45 9.3 57.5 25.6 48.05 22.65 40.35 28.9 L36.9 31.5 39.4 35.0 36.65 31.65 35.0 32.8 Q34.9 29.8 34.45 29.0 31.95 21.45 25.15 19.15 18.4 16.8 14.55 18.65 10.75 20.55 9.35 23.15 7.8 25.8 7.45 27.75 7.05 29.75 7.25 32.95 7.5 36.2 8.55 37.8 L10.25 40.6 11.45 41.8 Q8.05 42.95 5.0 44.7 -8.9 24.55 15.65 5.15 25.7 -0.55 34.55 0.05" fill="url(#gradient0)" fill-rule="evenodd" stroke="none"/>
    </g>
    <radialGradient cx="0" cy="0" gradientTransform="matrix(-0.0131, -0.0227, 0.039, -0.0225, 24.95, 9.45)" gradientUnits="userSpaceOnUse" id="gradient0" r="819.2" spreadMethod="pad">
      <stop offset="0.0" stop-color="#ffcc66"/>
      <stop offset="1.0" stop-color="#ffcc66" stop-opacity="0.0"/>
    </radialGradient>
  </defs>
</svg>
