<?xml version="1.0" encoding="UTF-8" standalone="no"?>
<svg xmlns:xlink="http://www.w3.org/1999/xlink" height="520.0px" width="520.0px" xmlns="http://www.w3.org/2000/svg">
  <g transform="matrix(10.0, 0.0, 0.0, 10.0, 0.0, 0.0)">
    <use height="55.15" transform="matrix(1.0, 0.0, 0.0, 1.0, -4.5, -3.15)" width="56.5" xlink:href="#sprite0"/>
  </g>
  <defs>
    <g id="sprite0" transform="matrix(1.0, 0.0, 0.0, 1.0, 4.5, 3.15)">
      <use height="52.0" transform="matrix(1.0, 0.0, 0.0, 1.0, 0.0, 0.0)" width="52.0" xlink:href="#sprite1"/>
      <use height="47.6" transform="matrix(1.0, 0.0, 0.0, 1.0, 2.9, 1.95)" width="46.1" xlink:href="#shape1"/>
      <clipPath id="clipPath0" transform="matrix(1.0, 0.0, 0.0, 1.0, 4.5, 3.15)">
        <use height="46.6" transform="matrix(1.0, 0.0, 0.0, 1.0, 3.4, 2.45)" width="45.1" xlink:href="#shape2"/>
      </clipPath>
      <g clip-path="url(#clipPath0)">
        <use height="37.0" transform="matrix(-0.9004, -0.0265, -0.2828, 1.2241, 39.3, -2.15)" width="37.0" xlink:href="#sprite2"/>
      </g>
    </g>
    <g id="sprite1" transform="matrix(1.0, 0.0, 0.0, 1.0, 0.0, 0.0)">
      <use height="52.0" transform="matrix(1.0, 0.0, 0.0, 1.0, 0.0, 0.0)" width="52.0" xlink:href="#shape0"/>
    </g>
    <g id="shape0" transform="matrix(1.0, 0.0, 0.0, 1.0, 0.0, 0.0)">
      <path d="M0.0 0.0 L52.0 0.0 52.0 52.0 0.0 52.0 0.0 0.0" fill="#ffba2e" fill-opacity="0.0" fill-rule="evenodd" stroke="none"/>
    </g>
    <g id="shape1" transform="matrix(1.0, 0.0, 0.0, 1.0, -2.9, -1.95)">
      <path d="M14.35 7.55 L16.45 11.55 19.75 17.9 18.7 18.05 17.45 17.0 14.35 7.55" fill="#2e393d" fill-rule="evenodd" stroke="none"/>
      <path d="M20.65 16.2 L20.85 16.85 20.8 17.15 16.45 11.55 14.35 7.55 20.65 16.2" fill="#3f4f52" fill-rule="evenodd" stroke="none"/>
      <path d="M16.45 11.55 L20.8 17.15 19.9 17.9 19.75 17.9 16.45 11.55" fill="#5c7678" fill-rule="evenodd" stroke="none"/>
      <path d="M20.65 16.2 L14.35 7.55 M17.45 17.0 L14.35 7.55" fill="none" stroke="#000000" stroke-linecap="round" stroke-linejoin="round" stroke-opacity="0.3019608" stroke-width="0.05"/>
      <path d="M32.25 14.45 Q34.1 15.0 35.75 16.3 38.3 18.25 38.4 20.7 38.5 23.15 35.05 24.4 31.65 25.65 28.6 25.35 L28.55 25.35 Q25.5 25.25 23.55 23.35 L22.65 22.25 Q23.75 22.2 25.65 21.4 28.1 20.35 30.6 17.05 31.75 15.65 32.25 14.45" fill="#542b01" fill-rule="evenodd" stroke="none"/>
      <path d="M22.65 22.25 Q22.2 21.5 22.05 20.75 21.4 19.75 21.8 18.4 22.35 16.65 24.35 15.45 25.45 14.7 26.65 14.45 L28.35 14.05 30.05 14.0 32.25 14.45 Q31.75 15.65 30.6 17.05 28.1 20.35 25.65 21.4 23.75 22.2 22.65 22.25" fill="#c76103" fill-rule="evenodd" stroke="none"/>
      <path d="M32.25 14.45 Q34.1 15.0 35.75 16.3 38.3 18.25 38.4 20.7 38.5 23.15 35.05 24.4 31.65 25.65 28.6 25.35 L28.55 25.35 Q25.5 25.25 23.55 23.35 L22.65 22.25 Q22.2 21.5 22.05 20.75 21.4 19.75 21.8 18.4 22.35 16.65 24.35 15.45 25.45 14.7 26.65 14.45 L28.35 14.05 30.05 14.0 32.25 14.45 Z" fill="none" stroke="#000000" stroke-linecap="round" stroke-linejoin="round" stroke-opacity="0.3019608" stroke-width="0.05"/>
      <path d="M19.6 2.45 L21.1 8.15 23.65 17.85 Q25.0 17.45 25.85 16.65 L19.6 2.45" fill="#2e393d" fill-rule="evenodd" stroke="none"/>
      <path d="M21.1 8.15 L19.6 2.45 21.3 18.2 21.8 18.2 21.1 8.15" fill="#3f4f52" fill-rule="evenodd" stroke="none"/>
      <path d="M21.1 8.15 L21.8 18.2 23.65 17.85 21.1 8.15" fill="#5c7678" fill-rule="evenodd" stroke="none"/>
      <path d="M21.3 18.2 L19.6 2.45 25.85 16.65" fill="none" stroke="#000000" stroke-linecap="round" stroke-linejoin="round" stroke-opacity="0.3019608" stroke-width="0.05"/>
      <path d="M7.1 22.55 L11.6 23.2 18.7 24.3 18.15 25.2 Q17.75 25.6 16.55 25.65 L7.1 22.55" fill="#2e393d" fill-rule="evenodd" stroke="none"/>
      <path d="M17.85 22.6 L18.5 22.8 18.7 23.0 11.6 23.2 7.1 22.55 17.85 22.6" fill="#3f4f52" fill-rule="evenodd" stroke="none"/>
      <path d="M11.6 23.2 L18.7 23.0 Q18.95 23.45 18.75 24.15 L18.7 24.3 11.6 23.2" fill="#5c7678" fill-rule="evenodd" stroke="none"/>
      <path d="M17.85 22.6 L7.1 22.55 M16.55 25.65 L7.1 22.55" fill="none" stroke="#000000" stroke-linecap="round" stroke-linejoin="round" stroke-opacity="0.3019608" stroke-width="0.05"/>
      <path d="M22.6 17.7 L23.5 16.5 23.35 16.15 23.45 15.9 Q19.45 16.0 17.2 18.65 14.9 21.25 16.1 21.45 L18.55 21.5 Q19.8 21.3 22.6 17.7 M28.15 15.45 Q25.75 14.85 23.95 16.9 22.2 18.85 21.95 21.95 21.85 23.3 22.2 24.7 22.55 26.25 23.3 27.3 24.1 29.75 25.55 32.2 L26.35 33.2 26.4 33.4 26.35 33.8 25.95 35.4 25.35 36.9 Q25.05 37.7 24.15 37.9 L22.4 37.95 Q19.3 37.7 16.45 36.15 15.4 35.55 14.6 34.8 L14.5 34.5 Q13.65 32.7 13.35 31.15 L12.95 27.4 Q14.35 13.35 29.65 15.45 L30.45 15.6 29.45 15.45 28.2 15.45 28.15 15.45 M22.95 26.25 L22.85 25.95 22.4 24.35 22.4 23.45 22.35 22.45 22.45 22.3 Q22.35 23.55 22.65 25.05 L22.95 26.25 M24.25 17.15 L24.65 16.65 Q25.3 16.1 26.3 15.85 L24.5 16.85 24.25 17.15 M37.05 30.65 Q36.8 29.6 36.9 28.1 37.0 26.7 38.05 26.05 L40.1 25.65 Q41.35 25.75 42.7 26.35 L44.55 27.55 45.0 28.35 45.65 29.55 44.95 28.35 44.9 28.45 45.35 29.1 45.55 29.7 46.35 32.55 Q47.25 35.55 47.05 38.2 L46.35 39.65 45.25 41.35 45.3 41.35 46.2 40.65 45.45 41.45 44.5 42.15 43.3 42.6 Q43.35 40.8 42.5 38.5 41.0 34.2 37.05 30.65 M48.0 40.15 L47.95 40.15 48.0 40.15" fill="#71684a" fill-rule="evenodd" stroke="none"/>
      <path d="M22.6 17.7 Q19.8 21.3 18.55 21.5 L16.1 21.45 Q14.9 21.25 17.2 18.65 19.45 16.0 23.45 15.9 L23.35 16.15 23.5 16.5 22.6 17.7 M20.95 16.65 Q20.05 17.0 20.0 17.55 19.95 18.0 20.7 18.05 21.75 18.15 21.85 17.2 21.9 16.4 20.95 16.65 M28.15 15.45 L28.2 15.45 29.45 15.45 30.45 15.6 29.65 15.45 30.45 15.6 30.6 15.65 31.15 15.75 32.6 16.2 Q37.95 18.2 42.45 23.4 47.05 28.7 48.15 34.35 L48.45 36.65 48.5 37.05 48.5 37.5 48.4 38.45 48.0 40.15 47.95 40.15 47.6 40.9 46.95 41.9 46.35 42.5 44.55 43.6 44.1 43.7 44.0 43.75 42.1 44.0 40.25 43.75 38.8 43.35 38.15 43.15 Q34.7 41.9 31.55 39.2 L30.3 38.05 28.35 36.0 26.4 33.4 26.35 33.2 25.55 32.2 Q24.1 29.75 23.3 27.3 L23.3 27.25 22.95 26.25 22.65 25.05 Q22.35 23.55 22.45 22.3 L22.85 20.45 23.45 18.6 24.25 17.15 24.5 16.85 26.3 15.85 28.25 15.45 28.15 15.45 M39.3 21.25 L38.4 20.45 Q35.75 18.35 32.9 17.3 31.3 16.75 30.0 16.65 L28.8 16.6 Q26.95 16.65 25.6 17.75 L25.4 17.95 Q24.3 18.9 23.9 20.3 L23.85 20.45 23.65 21.0 23.45 22.7 23.45 23.75 23.5 23.75 23.55 24.45 23.7 25.45 Q24.75 30.55 28.95 35.45 33.05 40.3 37.95 42.05 39.9 42.8 41.55 42.85 L43.3 42.6 44.5 42.15 45.45 41.45 46.2 40.65 47.15 39.45 47.5 37.45 Q47.7 35.0 47.2 33.1 46.75 31.5 45.65 29.55 L45.0 28.35 44.55 27.55 41.9 23.9 41.25 23.2 39.3 21.25 M23.4 27.4 L23.35 27.4 23.4 27.45 23.4 27.4" fill="#9c8d6b" fill-rule="evenodd" stroke="none"/>
      <path d="M20.95 16.65 Q21.9 16.4 21.85 17.2 21.75 18.15 20.7 18.05 19.95 18.0 20.0 17.55 20.05 17.0 20.95 16.65" fill="#fee9d6" fill-rule="evenodd" stroke="none"/>
      <path d="M14.6 34.8 Q15.4 35.55 16.45 36.15 19.3 37.7 22.4 37.95 L24.15 37.9 Q25.05 37.7 25.35 36.9 L25.95 35.4 26.35 33.8 26.4 33.4 28.35 36.0 30.3 38.05 31.55 39.2 Q34.7 41.9 38.15 43.15 L38.8 43.35 37.35 43.1 34.55 42.35 31.95 41.6 29.4 41.0 Q27.9 40.85 26.7 41.4 25.15 42.0 25.05 43.35 24.95 44.2 25.35 45.2 18.45 41.3 15.45 36.35 L14.6 34.8 M25.5 24.65 L31.15 25.0 Q34.5 25.25 36.4 24.9 39.4 24.25 39.55 22.15 L39.4 21.4 39.3 21.25 41.25 23.2 41.9 23.9 44.55 27.55 42.7 26.35 Q41.35 25.75 40.1 25.65 L38.05 26.05 Q37.0 26.7 36.9 28.1 36.8 29.6 37.05 30.65 L35.55 29.35 Q33.25 27.5 30.75 26.3 28.2 25.05 25.5 24.65" fill="#5b523e" fill-rule="evenodd" stroke="none"/>
      <path d="M38.55 21.7 L38.55 21.6 38.35 21.9 38.55 21.7 M39.3 21.25 L39.4 21.4 39.55 22.15 Q39.4 24.25 36.4 24.9 34.5 25.25 31.15 25.0 L25.5 24.65 24.85 24.55 23.55 24.45 23.5 23.75 28.3 24.35 Q25.1 23.05 25.7 22.85 29.7 17.6 34.55 19.05 L36.95 19.95 35.45 19.05 Q31.85 17.05 29.1 17.15 26.35 17.25 25.6 17.75 26.95 16.65 28.8 16.6 L30.0 16.65 Q31.3 16.75 32.9 17.3 35.75 18.35 38.4 20.45 L39.3 21.25 M25.35 45.2 Q24.95 44.2 25.05 43.35 25.15 42.0 26.7 41.4 27.9 40.85 29.4 41.0 L31.95 41.6 34.55 42.35 37.35 43.1 38.8 43.35 40.25 43.75 42.1 44.0 44.0 43.75 44.1 43.7 44.55 43.6 46.35 42.5 46.95 41.9 47.6 40.9 47.9 40.35 48.0 40.15 48.4 38.45 Q47.45 47.65 40.75 48.85 34.05 49.95 25.65 45.3 L25.35 45.2 M46.5 43.05 L46.45 43.5 46.5 43.25 46.5 43.05 Q43.7 45.8 37.6 43.85 39.2 45.35 38.25 46.4 37.3 47.45 35.15 47.4 L31.1 46.65 29.05 46.0 28.35 45.95 32.45 47.5 37.6 48.4 Q41.05 48.7 43.5 47.4 45.85 46.05 46.5 43.05" fill="#463e31" fill-rule="evenodd" stroke="none"/>
      <path d="M38.55 21.7 L38.35 21.9 38.55 21.6 38.55 21.7 M46.5 43.05 L46.5 43.25 46.45 43.5 46.5 43.05" fill="#2e271f" fill-rule="evenodd" stroke="none"/>
      <path d="M23.3 27.3 Q22.55 26.25 22.2 24.7 21.85 23.3 21.95 21.95 22.2 18.85 23.95 16.9 25.75 14.85 28.15 15.45 L28.25 15.45 26.3 15.85 Q25.3 16.1 24.65 16.65 L24.25 17.15 23.45 18.6 22.85 20.45 22.45 22.3 22.35 22.45 22.4 23.45 22.4 24.35 22.85 25.95 22.95 26.25 23.3 27.25 23.3 27.3 M23.4 27.4 L23.4 27.45 23.35 27.4 23.4 27.4 M46.2 40.65 L45.3 41.35 45.25 41.35 46.35 39.65 47.05 38.2 Q47.25 35.55 46.35 32.55 L45.55 29.7 45.35 29.1 44.9 28.45 44.95 28.35 45.65 29.55 Q46.75 31.5 47.2 33.1 47.7 35.0 47.5 37.45 L47.15 39.45 46.2 40.65" fill="#e6d2c1" fill-rule="evenodd" stroke="none"/>
      <path d="M23.5 23.75 L23.45 23.75 23.5 23.75 M46.5 43.05 Q45.85 46.05 43.5 47.4 41.05 48.7 37.6 48.4 L32.45 47.5 28.35 45.95 29.05 46.0 31.1 46.65 35.15 47.4 Q37.3 47.45 38.25 46.4 39.2 45.35 37.6 43.85 43.7 45.8 46.5 43.05" fill="#1c1712" fill-rule="evenodd" stroke="none"/>
      <path d="M25.6 17.75 Q26.35 17.25 29.1 17.15 31.85 17.05 35.45 19.05 L36.95 19.95 34.55 19.05 Q29.7 17.6 25.7 22.85 25.1 23.05 28.3 24.35 L23.5 23.75 23.45 23.75 23.45 22.7 23.65 21.0 23.85 20.45 23.9 20.3 Q24.3 18.9 25.4 17.95 L25.6 17.75" fill="#29221b" fill-rule="evenodd" stroke="none"/>
      <path d="M29.65 15.45 Q14.35 13.35 12.95 27.4 L13.35 31.15 Q13.65 32.7 14.5 34.5 L14.6 34.8 M25.35 45.2 Q18.45 41.3 15.45 36.35 L14.6 34.8 M25.5 24.65 Q28.2 25.05 30.75 26.3 33.25 27.5 35.55 29.35 L37.05 30.65 M48.4 38.45 L48.5 37.5 48.5 37.05 48.45 36.65 48.15 34.35 Q47.05 28.7 42.45 23.4 37.95 18.2 32.6 16.2 L31.15 15.75 30.6 15.65 30.45 15.6 29.65 15.45 M43.3 42.6 L41.55 42.85 Q39.9 42.8 37.95 42.05 33.05 40.3 28.95 35.45 24.75 30.55 23.7 25.45 L23.55 24.45 M43.3 42.6 Q43.35 40.8 42.5 38.5 41.0 34.2 37.05 30.65" fill="none" stroke="#000000" stroke-linecap="butt" stroke-linejoin="round" stroke-opacity="0.3019608" stroke-width="0.05"/>
      <path d="M48.4 38.45 Q47.45 47.65 40.75 48.85 34.05 49.95 25.65 45.3 L25.35 45.2" fill="none" stroke="#000000" stroke-linecap="round" stroke-linejoin="round" stroke-opacity="0.3019608" stroke-width="0.05"/>
      <path d="M14.1 30.55 Q15.4 31.8 16.85 31.95 18.3 32.05 19.2 31.0 20.0 30.1 20.2 28.8 L20.1 26.5 20.05 25.7 20.1 25.75 20.5 27.2 20.85 28.15 20.95 28.35 21.65 30.15 21.9 32.25 Q21.65 33.3 20.1 34.05 L16.55 34.25 Q15.2 33.8 14.1 30.55" fill="#974d02" fill-rule="evenodd" stroke="none"/>
      <path d="M24.15 14.2 Q22.0 14.95 21.1 16.05 20.0 17.25 19.5 19.8 18.95 22.35 19.05 23.1 19.15 23.9 17.55 25.6 15.95 27.35 14.2 25.6 12.55 23.9 13.1 21.5 L13.1 21.35 Q13.85 18.55 16.25 16.3 19.9 13.0 24.15 14.2 M20.25 15.5 L21.15 14.7 Q21.25 14.0 19.85 14.55 18.4 15.2 18.35 15.65 L18.35 15.85 18.7 16.1 Q19.3 16.15 20.25 15.5" fill="#f27b04" fill-rule="evenodd" stroke="none"/>
      <path d="M20.25 15.5 Q19.3 16.15 18.7 16.1 L18.35 15.85 18.35 15.65 Q18.4 15.2 19.85 14.55 21.25 14.0 21.15 14.7 L20.25 15.5" fill="#fee9d6" fill-rule="evenodd" stroke="none"/>
      <path d="M13.1 21.5 Q12.55 23.9 14.2 25.6 15.95 27.35 17.55 25.6 19.15 23.9 19.05 23.1 18.95 22.35 19.5 19.8 20.0 17.25 21.1 16.05 22.0 14.95 24.15 14.2 25.35 14.45 26.6 15.1 L24.9 15.35 Q23.75 15.6 22.8 16.4 21.75 17.1 21.1 18.55 20.35 20.1 19.95 22.5 L19.9 24.3 19.95 24.45 20.0 25.15 20.1 25.75 20.05 25.7 20.1 26.5 20.2 28.8 Q20.0 30.1 19.2 31.0 18.3 32.05 16.85 31.95 15.4 31.8 14.1 30.55 13.55 29.05 13.15 27.1 L12.9 25.85 Q12.55 23.5 13.1 21.5 M25.8 15.0 L25.8 15.05 25.85 15.0 25.8 15.0" fill="#c76103" fill-rule="evenodd" stroke="none"/>
      <path d="M13.1 21.5 Q12.55 23.5 12.9 25.85 L13.15 27.1 Q13.55 29.05 14.1 30.55 M20.1 25.75 L20.0 25.15 19.95 24.45 19.9 24.3 19.95 22.5 Q20.35 20.1 21.1 18.55 21.75 17.1 22.8 16.4 23.75 15.6 24.9 15.35 L26.6 15.1 Q25.35 14.45 24.15 14.2 19.9 13.0 16.25 16.3 13.85 18.55 13.1 21.35 L13.1 21.5 M20.1 25.75 L20.5 27.2 20.85 28.15 20.95 28.35 21.65 30.15 21.9 32.25 Q21.65 33.3 20.1 34.05 L16.55 34.25 Q15.2 33.8 14.1 30.55" fill="none" stroke="#000000" stroke-linecap="butt" stroke-linejoin="round" stroke-opacity="0.3019608" stroke-width="0.05"/>
      <path d="M4.8 25.85 L9.25 26.15 16.45 26.5 16.05 27.4 Q15.7 27.85 14.45 28.0 L4.8 25.85" fill="#2e393d" fill-rule="evenodd" stroke="none"/>
      <path d="M15.45 24.85 L16.05 24.95 16.3 25.2 9.25 26.15 4.8 25.85 15.45 24.85" fill="#3f4f52" fill-rule="evenodd" stroke="none"/>
      <path d="M9.25 26.15 L16.3 25.2 Q16.65 25.6 16.45 26.3 L16.45 26.5 9.25 26.15" fill="#5c7678" fill-rule="evenodd" stroke="none"/>
      <path d="M15.45 24.85 L4.8 25.85 M14.45 28.0 L4.8 25.85" fill="none" stroke="#000000" stroke-linecap="round" stroke-linejoin="round" stroke-opacity="0.3019608" stroke-width="0.05"/>
      <path d="M4.45 32.55 L9.7 31.05 18.0 28.65 Q18.4 29.4 18.4 29.9 18.4 30.6 17.15 31.25 L4.45 32.55" fill="#2e393d" fill-rule="evenodd" stroke="none"/>
      <path d="M15.45 27.1 L16.35 27.05 16.75 27.15 9.7 31.05 4.45 32.55 15.45 27.1" fill="#3f4f52" fill-rule="evenodd" stroke="none"/>
      <path d="M9.7 31.05 L16.75 27.15 Q17.45 27.5 17.9 28.45 L18.0 28.65 9.7 31.05" fill="#5c7678" fill-rule="evenodd" stroke="none"/>
      <path d="M15.45 27.1 L4.45 32.55 M17.15 31.25 L4.45 32.55" fill="none" stroke="#000000" stroke-linecap="round" stroke-linejoin="round" stroke-opacity="0.3019608" stroke-width="0.05"/>
      <path d="M3.4 9.1 L8.6 13.15 16.85 19.6 16.0 20.4 Q15.35 20.7 13.9 19.85 L3.4 9.1" fill="#2e393d" fill-rule="evenodd" stroke="none"/>
      <path d="M16.4 16.75 L17.15 17.45 17.25 17.95 8.6 13.15 3.4 9.1 16.4 16.75" fill="#3f4f52" fill-rule="evenodd" stroke="none"/>
      <path d="M8.6 13.15 L17.25 17.95 Q17.5 18.65 17.0 19.4 L16.85 19.6 8.6 13.15" fill="#5c7678" fill-rule="evenodd" stroke="none"/>
      <path d="M16.4 16.75 L3.4 9.1 M13.9 19.85 L3.4 9.1" fill="none" stroke="#000000" stroke-linecap="round" stroke-linejoin="round" stroke-opacity="0.3019608" stroke-width="0.05"/>
      <path d="M7.45 17.55 L11.6 19.4 18.15 22.25 17.45 23.0 Q16.95 23.3 15.8 23.0 L7.45 17.55" fill="#2e393d" fill-rule="evenodd" stroke="none"/>
      <path d="M17.8 20.35 L18.35 20.7 18.5 21.0 11.6 19.4 7.45 17.55 17.8 20.35" fill="#3f4f52" fill-rule="evenodd" stroke="none"/>
      <path d="M11.6 19.4 L18.5 21.0 Q18.65 21.45 18.25 22.1 L18.15 22.25 11.6 19.4" fill="#5c7678" fill-rule="evenodd" stroke="none"/>
      <path d="M17.8 20.35 L7.45 17.55 M15.8 23.0 L7.45 17.55" fill="none" stroke="#000000" stroke-linecap="round" stroke-linejoin="round" stroke-opacity="0.3019608" stroke-width="0.05"/>
      <path d="M27.5 38.45 L27.5 38.4 Q26.7 35.45 24.05 32.65 21.4 29.85 18.8 30.6 16.25 31.3 15.1 34.2 13.95 36.95 14.85 39.95 L15.6 41.55 Q22.85 44.95 27.5 38.45" fill="#974d02" fill-rule="evenodd" stroke="none"/>
      <path d="M27.5 38.45 Q22.85 44.95 15.6 41.55 16.55 43.3 18.3 44.6 20.75 46.4 23.3 46.05 26.0 45.7 27.25 43.5 28.5 41.2 27.5 38.45" fill="#291501" fill-rule="evenodd" stroke="none"/>
      <path d="M15.6 41.55 L14.85 39.95 Q13.95 36.95 15.1 34.2 16.25 31.3 18.8 30.6 21.4 29.85 24.05 32.65 26.7 35.45 27.5 38.4 L27.5 38.45 M15.6 41.55 Q16.55 43.3 18.3 44.6 20.75 46.4 23.3 46.05 26.0 45.7 27.25 43.5 28.5 41.2 27.5 38.45" fill="none" stroke="#000000" stroke-linecap="round" stroke-linejoin="round" stroke-opacity="0.3019608" stroke-width="0.05"/>
      <path d="M25.3 41.45 Q26.25 43.55 25.45 44.95 24.65 46.4 22.6 46.35 20.6 46.3 18.55 44.8 16.45 43.3 15.5 41.2 14.6 39.1 15.4 37.65 16.2 36.25 18.2 36.3 20.25 36.35 22.35 37.85 24.4 39.35 25.3 41.45" fill="#542b01" fill-rule="evenodd" stroke="none"/>
      <path d="M25.3 41.45 Q26.25 43.55 25.45 44.95 24.65 46.4 22.6 46.35 20.6 46.3 18.55 44.8 16.45 43.3 15.5 41.2 14.6 39.1 15.4 37.65 16.2 36.25 18.2 36.3 20.25 36.35 22.35 37.85 24.4 39.35 25.3 41.45 Z" fill="none" stroke="#000000" stroke-linecap="round" stroke-linejoin="round" stroke-opacity="0.3019608" stroke-width="0.05"/>
      <path d="M25.0 40.8 Q25.8 42.6 25.15 43.8 24.5 45.0 22.8 44.9 21.15 44.9 19.4 43.65 17.7 42.4 16.85 40.65 16.1 38.9 16.75 37.7 17.4 36.5 19.05 36.55 20.85 36.6 22.55 37.85 24.3 39.1 25.0 40.8" fill="#fbf1bf" fill-rule="evenodd" stroke="none"/>
      <path d="M25.0 40.8 Q25.8 42.6 25.15 43.8 24.5 45.0 22.8 44.9 21.15 44.9 19.4 43.65 17.7 42.4 16.85 40.65 16.1 38.9 16.75 37.7 17.4 36.5 19.05 36.55 20.85 36.6 22.55 37.85 24.3 39.1 25.0 40.8 Z" fill="none" stroke="#000000" stroke-linecap="round" stroke-linejoin="round" stroke-opacity="0.3019608" stroke-width="0.05"/>
      <path d="M15.35 34.05 Q16.45 31.85 18.85 31.7 20.85 31.5 22.85 32.65 L22.25 34.9 Q18.95 33.0 16.95 34.4 15.05 35.85 14.8 36.5 14.75 35.8 14.95 35.1 L15.35 34.05 M23.7 33.3 L25.55 35.3 26.3 36.6 23.4 34.95 23.7 33.3" fill="#f27b04" fill-rule="evenodd" stroke="none"/>
      <path d="M23.8 40.55 Q24.4 41.8 23.95 42.65 23.45 43.5 22.25 43.45 21.05 43.45 19.85 42.55 18.65 41.65 18.1 40.45 17.55 39.2 18.05 38.35 18.5 37.5 19.65 37.55 20.9 37.55 22.1 38.45 23.3 39.35 23.8 40.55" fill="#ffffff" fill-rule="evenodd" stroke="none"/>
      <path d="M21.55 33.0 Q16.15 30.7 15.05 35.5 16.15 32.6 21.8 33.75 L21.55 33.0" fill="#fee9d6" fill-rule="evenodd" stroke="none"/>
      <path d="M25.8 14.7 L26.65 14.45 28.35 14.05 30.05 14.0 32.25 14.45 Q34.1 15.0 35.75 16.3 37.55 17.65 38.15 19.3 40.4 21.0 42.45 23.4 47.05 28.7 48.15 34.35 L48.45 36.65 48.5 37.05 48.5 37.5 48.4 38.45 48.15 40.2 Q46.8 47.75 40.75 48.85 34.05 49.95 25.65 45.3 L25.6 45.3 24.95 45.6 Q24.1 46.4 22.6 46.35 20.6 46.3 18.55 44.8 L17.85 44.25 16.9 43.35 15.6 41.55 14.85 39.95 Q14.1 37.45 14.8 35.15 L14.6 34.8 14.5 34.5 Q13.8 33.0 13.45 31.65 L4.45 32.55 13.0 28.3 13.0 27.7 4.8 25.85 12.85 25.1 12.8 24.45 7.1 22.55 12.9 22.6 13.1 21.5 13.1 21.35 13.15 21.25 7.45 17.55 13.15 19.1 3.4 9.1 16.05 16.55 16.25 16.3 17.0 15.7 14.35 7.55 19.35 14.35 20.85 14.0 19.6 2.45 24.85 14.4 25.8 14.7 M24.85 24.55 L23.55 24.45 23.7 25.45 Q24.75 30.55 28.95 35.45 33.05 40.3 37.95 42.05 39.9 42.8 41.55 42.85 L43.3 42.6 Q43.35 40.8 42.5 38.5 41.0 34.2 37.05 30.65 L35.55 29.35 Q33.25 27.5 30.75 26.3 29.6 25.75 28.45 25.35 L25.5 24.7 25.35 24.6 24.85 24.55" fill="none" stroke="#000000" stroke-linecap="round" stroke-linejoin="round" stroke-opacity="0.3019608" stroke-width="1.0"/>
    </g>
    <g id="shape2" transform="matrix(1.0, 0.0, 0.0, 1.0, -3.4, -2.45)">
      <path d="M43.3 42.6 Q43.35 40.8 42.5 38.5 41.0 34.2 37.05 30.65 L35.55 29.35 Q33.25 27.5 30.75 26.3 29.6 25.75 28.45 25.35 26.7 25.25 25.35 24.6 L24.85 24.55 23.55 24.45 23.7 25.45 Q24.75 30.55 28.95 35.45 33.05 40.3 37.95 42.05 39.9 42.8 41.55 42.85 L43.3 42.6 M47.6 40.9 L47.9 40.35 48.0 40.15 47.95 40.15 47.6 40.9 M48.15 34.35 L48.45 36.65 48.5 37.05 48.5 37.5 48.4 38.45 Q47.45 47.65 40.75 48.85 34.05 49.95 25.65 45.3 L25.6 45.3 24.95 45.6 Q24.1 46.4 22.6 46.35 20.6 46.3 18.55 44.8 L17.85 44.25 16.9 43.35 15.6 41.55 14.85 39.95 Q14.1 37.45 14.8 35.15 L14.6 34.8 14.5 34.5 Q13.8 32.95 13.45 31.65 L4.45 32.55 13.0 28.3 13.0 27.7 4.8 25.85 12.85 25.1 12.8 24.45 7.1 22.55 12.9 22.6 13.1 21.5 13.1 21.35 13.15 21.25 7.45 17.55 13.15 19.1 3.4 9.1 16.05 16.55 16.25 16.3 17.05 15.7 14.35 7.55 19.35 14.35 20.85 14.0 19.6 2.45 24.85 14.4 25.8 14.7 26.65 14.45 28.35 14.05 30.05 14.0 32.25 14.45 Q34.1 15.0 35.75 16.3 37.55 17.65 38.15 19.3 40.4 21.0 42.45 23.4 47.05 28.7 48.15 34.35" fill="#ff0000" fill-rule="evenodd" stroke="none"/>
    </g>
    <g id="sprite2" transform="matrix(1.0, 0.0, 0.0, 1.0, 0.0, 0.0)">
      <use height="37.0" transform="matrix(1.0, 0.0, 0.0, 1.0, 0.0, 0.0)" width="37.0" xlink:href="#shape3"/>
    </g>
    <g id="shape3" transform="matrix(1.0, 0.0, 0.0, 1.0, 0.0, 0.0)">
      <path d="M5.4 31.55 Q0.0 26.15 0.0 18.5 0.0 10.85 5.4 5.4 10.85 0.0 18.5 0.0 26.15 0.0 31.55 5.4 37.0 10.85 37.0 18.5 37.0 26.15 31.55 31.55 26.15 37.0 18.5 37.0 10.85 37.0 5.4 31.55" fill="url(#gradient0)" fill-rule="evenodd" stroke="none"/>
    </g>
    <radialGradient cx="0" cy="0" gradientTransform="matrix(0.0238, 0.0, 0.0, 0.0238, 18.5, 18.5)" gradientUnits="userSpaceOnUse" id="gradient0" r="819.2" spreadMethod="pad">
      <stop offset="0.0" stop-color="#ffffcc"/>
      <stop offset="1.0" stop-color="#ffffcc" stop-opacity="0.0"/>
    </radialGradient>
  </defs>
</svg>
