<?xml version="1.0" encoding="UTF-8" standalone="no"?>
<svg xmlns:xlink="http://www.w3.org/1999/xlink" height="520.0px" width="520.0px" xmlns="http://www.w3.org/2000/svg">
  <g transform="matrix(10.0, 0.0, 0.0, 10.0, 0.0, 0.0)">
    <use height="52.0" transform="matrix(1.0, 0.0, 0.0, 1.0, 0.0, 0.0)" width="52.0" xlink:href="#sprite0"/>
  </g>
  <defs>
    <g id="sprite0" transform="matrix(1.0, 0.0, 0.0, 1.0, 0.0, 0.0)">
      <use height="52.0" transform="matrix(1.0, 0.0, 0.0, 1.0, 0.0, 0.0)" width="52.0" xlink:href="#sprite1"/>
      <use height="38.0" transform="matrix(1.0, 0.0, 0.0, 1.0, 4.45, 6.9)" width="42.65" xlink:href="#shape1"/>
      <use height="37.0" transform="matrix(0.2812, 0.1437, -0.1437, 0.2812, 10.15, 18.05)" width="37.0" xlink:href="#sprite2"/>
      <use height="39.0" transform="matrix(1.0, 0.0, 0.0, 1.0, 3.95, 6.4)" width="43.65" xlink:href="#shape3"/>
    </g>
    <g id="sprite1" transform="matrix(1.0, 0.0, 0.0, 1.0, 0.0, 0.0)">
      <use height="52.0" transform="matrix(1.0, 0.0, 0.0, 1.0, 0.0, 0.0)" width="52.0" xlink:href="#shape0"/>
    </g>
    <g id="shape0" transform="matrix(1.0, 0.0, 0.0, 1.0, 0.0, 0.0)">
      <path d="M0.0 0.0 L52.0 0.0 52.0 52.0 0.0 52.0 0.0 0.0" fill="#ffba2e" fill-opacity="0.0" fill-rule="evenodd" stroke="none"/>
    </g>
    <g id="shape1" transform="matrix(1.0, 0.0, 0.0, 1.0, -4.45, -6.9)">
      <path d="M39.6 38.7 Q39.25 38.05 39.4 37.35 39.6 36.65 40.15 36.25 40.65 35.75 41.25 35.9 41.9 36.05 42.25 36.7 42.55 37.3 42.35 38.0 L41.7 39.15 Q41.1 39.6 40.45 39.45 39.85 39.3 39.6 38.7" fill="#8f4701" fill-rule="evenodd" stroke="none"/>
      <path d="M39.6 38.7 Q39.85 39.3 40.45 39.45 41.1 39.6 41.7 39.15 L42.35 38.0 Q42.55 37.3 42.25 36.7 41.9 36.05 41.25 35.9 40.65 35.75 40.15 36.25 39.6 36.65 39.4 37.35 39.25 38.05 39.6 38.7 Z" fill="none" stroke="#000000" stroke-linecap="round" stroke-linejoin="round" stroke-opacity="0.3019608" stroke-width="0.05"/>
      <path d="M38.85 38.55 Q38.5 37.9 38.65 37.2 38.85 36.5 39.4 36.1 39.9 35.6 40.5 35.75 41.15 35.9 41.55 36.55 41.85 37.15 41.65 37.85 L41.0 39.0 Q40.35 39.45 39.7 39.3 39.1 39.15 38.85 38.55" fill="#c16102" fill-rule="evenodd" stroke="none"/>
      <path d="M38.85 38.55 Q39.1 39.15 39.7 39.3 40.35 39.45 41.0 39.0 L41.65 37.85 Q41.85 37.15 41.55 36.55 41.15 35.9 40.5 35.75 39.9 35.6 39.4 36.1 38.85 36.5 38.65 37.2 38.5 37.9 38.85 38.55 Z" fill="none" stroke="#000000" stroke-linecap="round" stroke-linejoin="round" stroke-opacity="0.3019608" stroke-width="0.05"/>
      <path d="M9.25 18.25 L8.55 18.15 Q7.85 18.35 7.5 18.95 7.15 19.5 7.3 20.25 L7.6 21.2 7.9 21.45 Q8.35 21.9 9.0 21.65 9.65 21.5 10.05 21.0 10.35 20.3 10.25 19.5 10.15 18.85 9.7 18.45 L9.25 18.25" fill="#c16102" fill-rule="evenodd" stroke="none"/>
      <path d="M9.25 18.25 L9.1 18.0 Q8.5 17.55 7.9 17.65 7.25 17.9 6.95 18.5 6.55 19.05 6.6 19.8 6.75 20.55 7.3 21.0 L7.6 21.2 7.3 20.25 Q7.15 19.5 7.5 18.95 7.85 18.35 8.55 18.15 L9.25 18.25" fill="#fd8002" fill-rule="evenodd" stroke="none"/>
      <path d="M7.6 21.2 L7.3 21.0 Q6.75 20.55 6.6 19.8 6.55 19.05 6.95 18.5 7.25 17.9 7.9 17.65 8.5 17.55 9.1 18.0 L9.25 18.25 8.55 18.15 Q7.85 18.35 7.5 18.95 7.15 19.5 7.3 20.25 L7.6 21.2 7.9 21.45 Q8.35 21.9 9.0 21.65 9.65 21.5 10.05 21.0 10.35 20.3 10.25 19.5 10.15 18.85 9.7 18.45 L9.25 18.25" fill="none" stroke="#000000" stroke-linecap="round" stroke-linejoin="round" stroke-opacity="0.3019608" stroke-width="0.05"/>
      <path d="M23.25 23.95 L25.45 19.6 28.35 20.95 Q34.05 23.85 37.2 27.85 L34.95 32.15 Q31.85 28.15 26.15 25.25 24.7 24.5 23.25 23.95 M23.6 43.55 Q20.85 42.65 18.0 41.2 13.95 39.15 11.05 36.65 L8.95 34.7 11.25 30.25 13.3 32.2 Q16.2 34.7 20.25 36.75 23.1 38.2 25.85 39.1 L23.6 43.55" fill="#975b02" fill-rule="evenodd" stroke="none"/>
      <path d="M25.45 19.6 L23.25 23.95 Q18.85 22.2 14.8 22.15 12.05 22.1 10.3 22.9 L9.7 23.25 9.65 22.9 Q9.65 22.35 9.8 21.85 L9.95 21.3 10.05 21.0 10.15 20.8 Q11.7 17.75 17.0 17.8 21.05 17.85 25.45 19.6 M41.6 37.4 L40.25 40.15 39.6 41.45 Q37.75 45.0 31.4 44.9 L28.1 44.65 23.6 43.55 25.85 39.1 30.35 40.25 33.7 40.45 36.75 40.25 Q38.85 39.85 40.15 38.9 L41.6 37.4" fill="#7d4b02" fill-rule="evenodd" stroke="none"/>
      <path d="M37.2 27.85 Q34.05 23.85 28.35 20.95 L25.45 19.6 Q21.05 17.85 17.0 17.8 11.7 17.75 10.15 20.8 L10.05 21.0 9.95 21.3 9.8 21.85 Q9.65 22.35 9.65 22.9 L9.7 23.25 Q9.8 25.3 11.6 27.75 L11.8 28.05 11.75 28.1 12.35 28.9 Q15.45 33.2 21.5 36.25 27.5 39.35 32.85 39.4 36.15 39.4 38.05 38.25 L38.25 38.05 39.55 36.8 39.7 36.4 Q41.2 33.5 38.3 29.45 L37.5 28.3 37.2 27.85 M40.5 29.25 L40.7 29.55 Q43.45 33.85 41.85 37.0 L41.6 37.4 40.15 38.9 Q38.85 39.85 36.75 40.25 L33.7 40.45 30.35 40.25 25.85 39.1 Q23.1 38.2 20.25 36.75 16.2 34.7 13.3 32.2 L11.25 30.25 9.45 28.05 9.15 27.7 8.25 26.4 8.35 26.3 Q7.5 24.4 7.5 22.75 7.5 22.15 7.65 21.6 L7.95 20.6 7.9 20.6 8.05 20.25 Q9.9 16.7 16.2 16.8 22.5 16.85 29.6 20.45 36.75 24.1 40.45 29.2 L40.5 29.25" fill="#d27e02" fill-rule="evenodd" stroke="none"/>
      <path d="M7.4 19.75 L7.25 20.05 7.35 19.75 7.4 19.75" fill="#736951" fill-rule="evenodd" stroke="none"/>
      <path d="M7.4 19.75 L7.35 19.75 7.5 19.45 Q9.3 15.85 15.65 15.95 21.95 15.95 29.05 19.6 36.2 23.25 39.9 28.35 L40.5 29.25 40.45 29.2 Q36.75 24.1 29.6 20.45 22.5 16.85 16.2 16.8 9.9 16.7 8.05 20.25 L7.9 20.6 7.95 20.6 7.65 21.6 Q7.5 22.15 7.5 22.75 7.5 24.4 8.35 26.3 L8.25 26.4 7.75 25.45 Q6.9 23.55 6.9 21.9 6.9 21.3 7.05 20.75 L7.4 19.75 M38.3 29.45 Q41.2 33.5 39.7 36.4 L39.55 36.8 38.25 38.05 38.05 38.25 Q36.15 39.4 32.85 39.4 27.5 39.35 21.5 36.25 15.45 33.2 12.35 28.9 L11.75 28.1 11.8 28.05 Q14.9 32.35 20.95 35.45 26.95 38.5 32.3 38.55 35.55 38.5 37.45 37.4 L37.7 37.2 38.95 35.95 39.15 35.6 Q40.5 32.95 38.3 29.45" fill="#fcad3a" fill-rule="evenodd" stroke="none"/>
      <path d="M34.95 32.15 L37.2 27.85 37.5 28.3 38.3 29.45 Q40.5 32.95 39.15 35.6 L38.95 35.95 37.7 37.2 37.45 37.4 Q37.25 35.2 35.3 32.65 L34.95 32.15 M8.95 34.7 L7.15 32.5 Q3.4 27.45 5.25 23.9 L7.25 20.05 7.05 20.75 Q6.9 21.3 6.9 21.9 6.9 23.55 7.75 25.45 L8.25 26.4 9.15 27.7 9.45 28.05 11.25 30.25 8.95 34.7" fill="#af6a03" fill-rule="evenodd" stroke="none"/>
      <path d="M23.25 23.95 Q24.7 24.5 26.15 25.25 31.85 28.15 34.95 32.15 M9.7 23.25 L10.3 22.9 Q12.05 22.1 14.8 22.15 18.85 22.2 23.25 23.95 M7.35 19.75 L7.5 19.45 Q9.3 15.85 15.65 15.95 21.95 15.95 29.05 19.6 36.2 23.25 39.9 28.35 L40.5 29.25 40.7 29.55 Q43.45 33.85 41.85 37.0 L41.6 37.4 40.25 40.15 39.6 41.45 Q37.75 45.0 31.4 44.9 L28.1 44.65 23.6 43.55 Q20.85 42.65 18.0 41.2 13.95 39.15 11.05 36.65 L8.95 34.7 7.15 32.5 Q3.4 27.45 5.25 23.9 L7.25 20.05 M11.8 28.05 L11.6 27.75 Q9.8 25.3 9.7 23.25 M11.8 28.05 Q14.9 32.35 20.95 35.45 26.95 38.5 32.3 38.55 35.55 38.5 37.45 37.4 37.25 35.2 35.3 32.65 L34.95 32.15" fill="none" stroke="#000000" stroke-linecap="round" stroke-linejoin="round" stroke-opacity="0.3019608" stroke-width="0.05"/>
      <path d="M37.25 43.05 L37.6 42.7 37.8 42.2 37.6 41.75 37.2 41.8 36.75 42.1 36.65 42.65 Q36.65 42.95 36.8 43.05 L37.25 43.05" fill="#fd8002" fill-rule="evenodd" stroke="none"/>
      <path d="M37.95 42.05 Q38.0 41.7 37.7 41.5 37.45 41.35 37.1 41.5 L36.45 42.1 Q36.25 42.45 36.2 42.9 L36.4 43.4 37.05 43.5 37.65 42.9 37.95 42.05 M37.25 43.05 L36.8 43.05 Q36.65 42.95 36.65 42.65 L36.75 42.1 37.2 41.8 37.6 41.75 37.8 42.2 37.6 42.7 37.25 43.05" fill="#d96d02" fill-rule="evenodd" stroke="none"/>
      <path d="M37.95 42.05 L37.65 42.9 37.05 43.5 36.4 43.4 36.2 42.9 Q36.25 42.45 36.45 42.1 L37.1 41.5 Q37.45 41.35 37.7 41.5 38.0 41.7 37.95 42.05 M35.65 44.05 L35.85 44.25 36.85 44.15 37.85 43.35 Q38.25 42.75 38.25 42.05 38.25 41.4 37.85 41.1 L37.55 41.05 36.9 41.2 35.95 42.1 Q35.55 42.7 35.5 43.3 35.5 43.75 35.65 44.05" fill="#a35201" fill-rule="evenodd" stroke="none"/>
      <path d="M35.65 44.05 Q35.5 43.75 35.5 43.3 35.55 42.7 35.95 42.1 L36.9 41.2 37.55 41.05 37.4 40.8 36.4 40.85 Q35.85 41.15 35.45 41.75 35.05 42.4 35.0 42.95 35.0 43.65 35.4 43.9 L35.65 44.05" fill="#824101" fill-rule="evenodd" stroke="none"/>
      <path d="M37.55 41.05 L37.85 41.1 Q38.25 41.4 38.25 42.05 38.25 42.75 37.85 43.35 L36.85 44.15 35.85 44.25 35.65 44.05 Q35.5 43.75 35.5 43.3 35.55 42.7 35.95 42.1 L36.9 41.2 37.55 41.05 37.4 40.8 36.4 40.85 Q35.85 41.15 35.45 41.75 35.05 42.4 35.0 42.95 35.0 43.65 35.4 43.9 L35.65 44.05" fill="none" stroke="#000000" stroke-linecap="round" stroke-linejoin="round" stroke-opacity="0.3019608" stroke-width="0.05"/>
      <path d="M5.1 28.0 Q5.2 28.7 5.7 28.9 L6.7 28.75 Q7.25 28.45 7.45 27.75 7.7 27.05 7.55 26.35 L6.9 25.45 Q6.4 25.25 5.95 25.6 5.4 26.0 5.15 26.7 4.95 27.4 5.1 28.0" fill="#ba5e01" fill-rule="evenodd" stroke="none"/>
      <path d="M5.1 28.0 Q5.2 28.7 5.7 28.9 L6.7 28.75 Q7.25 28.45 7.45 27.75 7.7 27.05 7.55 26.35 L6.9 25.45 Q6.4 25.25 5.95 25.6 5.4 26.0 5.15 26.7 4.95 27.4 5.1 28.0 Z" fill="none" stroke="#000000" stroke-linecap="round" stroke-linejoin="round" stroke-opacity="0.3019608" stroke-width="0.05"/>
      <path d="M4.5 27.65 Q4.6 28.35 5.1 28.55 L6.1 28.4 Q6.65 28.1 6.85 27.4 7.1 26.7 6.95 26.0 6.75 25.35 6.3 25.1 5.8 24.9 5.35 25.25 4.8 25.65 4.55 26.35 4.35 27.05 4.5 27.65" fill="#fd8002" fill-rule="evenodd" stroke="none"/>
      <path d="M4.5 27.65 Q4.6 28.35 5.1 28.55 L6.1 28.4 Q6.65 28.1 6.85 27.4 7.1 26.7 6.95 26.0 6.75 25.35 6.3 25.1 5.8 24.9 5.35 25.25 4.8 25.65 4.55 26.35 4.35 27.05 4.5 27.65 Z" fill="none" stroke="#000000" stroke-linecap="round" stroke-linejoin="round" stroke-opacity="0.3019608" stroke-width="0.05"/>
      <path d="M5.0 27.25 Q5.1 27.7 5.4 27.8 L6.05 27.7 6.5 27.05 6.6 26.15 6.15 25.6 5.55 25.7 5.05 26.4 Q4.9 26.85 5.0 27.25" fill="#fea64e" fill-rule="evenodd" stroke="none"/>
      <path d="M5.1 26.7 L5.35 27.1 5.85 27.05 6.15 26.6 6.15 26.05 5.85 25.7 5.4 25.7 Q5.15 25.85 5.05 26.15 L5.1 26.7" fill="#fdcc9b" fill-rule="evenodd" stroke="none"/>
      <path d="M26.3 40.9 L25.9 40.45 25.3 40.45 24.9 40.9 Q24.75 41.15 24.85 41.5 L25.3 41.85 25.85 41.95 26.3 41.55 26.3 40.9" fill="#fea64e" fill-rule="evenodd" stroke="none"/>
      <path d="M25.15 40.2 Q24.65 40.4 24.45 40.85 24.3 41.25 24.5 41.85 24.6 42.25 25.05 42.45 L25.95 42.6 26.6 42.1 Q26.8 41.6 26.6 41.05 L25.9 40.2 Q25.45 40.0 25.15 40.2 M26.3 40.9 L26.3 41.55 25.85 41.95 25.3 41.85 24.85 41.5 Q24.75 41.15 24.9 40.9 L25.3 40.45 25.9 40.45 26.3 40.9" fill="#d16902" fill-rule="evenodd" stroke="none"/>
      <path d="M25.15 40.2 Q25.45 40.0 25.9 40.2 L26.6 41.05 Q26.8 41.6 26.6 42.1 L25.95 42.6 25.05 42.45 Q24.6 42.25 24.5 41.85 24.3 41.25 24.45 40.85 24.65 40.4 25.15 40.2 M23.9 42.3 Q24.05 43.1 24.75 43.45 L26.15 43.4 Q26.65 43.1 26.95 42.35 L27.1 40.95 Q26.8 40.2 26.15 39.9 L24.85 39.85 Q24.15 40.25 23.9 40.9 23.6 41.65 23.9 42.3" fill="#a14d01" fill-rule="evenodd" stroke="none"/>
      <path d="M23.9 42.3 Q24.05 43.1 24.75 43.45 L26.15 43.4 Q26.65 43.1 26.95 42.35 L27.1 40.95 Q26.8 40.2 26.15 39.9 L24.85 39.85 Q24.15 40.25 23.9 40.9 23.6 41.65 23.9 42.3 Z" fill="none" stroke="#000000" stroke-linecap="round" stroke-linejoin="round" stroke-opacity="0.3019608" stroke-width="0.05"/>
      <path d="M14.15 34.35 L14.55 34.8 14.55 35.45 14.1 35.85 13.55 35.75 13.1 35.35 Q13.0 35.0 13.15 34.75 L13.55 34.3 14.15 34.35 M13.4 34.05 Q12.9 34.3 12.7 34.75 12.55 35.15 12.75 35.7 12.85 36.1 13.3 36.3 L14.2 36.45 14.85 36.0 Q15.05 35.5 14.85 34.9 L14.15 34.05 Q13.7 33.85 13.4 34.05" fill="#fd8002" fill-rule="evenodd" stroke="none"/>
      <path d="M14.15 34.35 L13.55 34.3 13.15 34.75 Q13.0 35.0 13.1 35.35 L13.55 35.75 14.1 35.85 14.55 35.45 14.55 34.8 14.15 34.35" fill="#fea64e" fill-rule="evenodd" stroke="none"/>
      <path d="M13.1 33.75 Q12.4 34.15 12.15 34.8 11.85 35.55 12.15 36.2 12.3 37.0 13.0 37.35 L14.4 37.25 15.2 36.25 15.35 34.8 Q15.05 34.1 14.4 33.8 L13.1 33.75 M13.4 34.05 Q13.7 33.85 14.15 34.05 L14.85 34.9 Q15.05 35.5 14.85 36.0 L14.2 36.45 13.3 36.3 Q12.85 36.1 12.75 35.7 12.55 35.15 12.7 34.75 12.9 34.3 13.4 34.05" fill="#cf6802" fill-rule="evenodd" stroke="none"/>
      <path d="M13.1 33.75 Q12.4 34.15 12.15 34.8 11.85 35.55 12.15 36.2 12.3 37.0 13.0 37.35 L14.4 37.25 15.2 36.25 15.35 34.8 Q15.05 34.1 14.4 33.8 L13.1 33.75 Z" fill="none" stroke="#000000" stroke-linecap="round" stroke-linejoin="round" stroke-opacity="0.3019608" stroke-width="0.05"/>
      <path d="M11.15 15.05 L11.25 14.95 11.15 15.15 11.15 15.05" fill="#c16102" fill-rule="evenodd" stroke="none"/>
      <path d="M11.1 15.35 L11.15 15.05 11.15 15.15 11.1 15.35" fill="#fd8002" fill-rule="evenodd" stroke="none"/>
      <path d="M15.25 22.85 L15.25 22.8 15.3 22.8 15.25 22.85" fill="#fcad3a" fill-rule="evenodd" stroke="none"/>
      <path d="M11.15 15.05 L11.25 14.7 11.3 14.75 11.25 14.95 11.15 15.05" fill="#736951" fill-rule="evenodd" stroke="none"/>
      <path d="M43.45 31.35 L42.05 34.05 41.4 35.35 Q39.55 38.95 33.55 39.05 L30.4 38.9 26.15 37.85 28.45 33.4 Q30.6 34.1 32.7 34.4 L35.85 34.55 38.8 34.25 Q40.8 33.8 42.05 32.85 L43.45 31.35 M13.4 18.2 L13.35 17.75 13.55 16.75 13.75 16.2 13.8 15.9 13.95 15.7 Q15.45 12.65 20.5 12.55 24.4 12.5 28.55 14.1 L26.3 18.45 Q22.15 16.85 18.3 16.9 15.7 16.9 14.05 17.8 L13.4 18.2" fill="#4d220a" fill-rule="evenodd" stroke="none"/>
      <path d="M42.6 23.2 L42.65 23.25 42.8 23.55 Q45.25 27.8 43.7 30.9 L43.45 31.35 42.05 32.85 Q40.8 33.8 38.8 34.25 L35.85 34.55 32.7 34.4 Q30.6 34.1 28.45 33.4 25.8 32.6 23.1 31.25 19.35 29.3 16.6 26.9 L14.7 25.0 12.4 29.5 10.75 27.4 Q9.8 26.0 9.2 24.7 7.85 21.4 9.15 18.85 L10.85 15.65 11.15 15.05 11.1 15.35 10.95 15.75 10.8 16.85 Q10.75 18.45 11.45 20.25 L11.55 20.35 11.95 21.25 12.05 21.15 11.6 19.95 11.55 19.5 Q11.25 18.55 11.3 17.7 L11.45 16.55 11.55 16.25 11.85 15.55 11.8 15.55 11.95 15.25 Q12.5 14.15 13.55 13.35 15.7 11.65 19.8 11.55 25.8 11.4 32.45 14.8 39.2 18.25 42.6 23.2 M38.15 27.65 L40.35 23.3 39.75 22.4 39.5 21.95 Q36.65 18.1 31.25 15.35 29.9 14.65 28.55 14.1 24.4 12.5 20.5 12.55 15.45 12.65 13.95 15.7 L13.8 15.9 13.75 16.2 13.55 16.75 13.35 17.75 13.4 18.2 Q13.45 20.2 15.15 22.6 L15.25 22.8 15.25 22.85 15.8 23.65 Q18.65 27.85 24.35 30.75 30.0 33.65 35.05 33.45 38.2 33.4 40.0 32.25 L40.3 32.05 Q41.05 31.55 41.45 30.75 L41.65 30.4 Q42.6 28.55 41.9 26.25 L41.85 25.95 40.55 23.55 Q41.45 25.2 41.65 26.65 41.9 28.2 41.2 29.6 L41.0 29.95 39.7 31.2 39.5 31.45 39.4 30.85 Q39.2 29.35 38.15 27.65" fill="#994516" fill-rule="evenodd" stroke="none"/>
      <path d="M26.15 37.85 Q23.55 37.05 20.85 35.7 17.1 33.75 14.3 31.35 L12.4 29.5 14.7 25.0 16.6 26.9 Q19.35 29.3 23.1 31.25 25.8 32.6 28.45 33.4 L26.15 37.85 M28.55 14.1 Q29.9 14.65 31.25 15.35 36.65 18.1 39.5 21.95 L39.75 22.4 40.35 23.3 38.15 27.65 37.55 26.75 37.25 26.35 Q34.45 22.45 29.05 19.7 L26.3 18.45 28.55 14.1" fill="#6e300e" fill-rule="evenodd" stroke="none"/>
      <path d="M11.25 14.7 L11.45 14.4 12.3 13.2 12.7 12.75 Q14.9 10.8 19.3 10.7 25.3 10.55 31.95 14.0 38.65 17.4 42.1 22.35 L42.6 23.2 Q39.2 18.25 32.45 14.8 25.8 11.4 19.8 11.55 15.7 11.65 13.55 13.35 12.5 14.15 11.95 15.25 L11.8 15.55 11.85 15.55 11.55 16.25 11.45 16.55 11.3 17.7 Q11.25 18.55 11.55 19.5 L11.6 19.95 12.05 21.15 11.95 21.25 11.55 20.35 11.45 20.25 Q10.75 18.45 10.8 16.85 L10.95 15.75 11.1 15.35 11.15 15.15 11.25 14.95 11.3 14.75 11.25 14.7 M39.5 31.45 L39.7 31.2 41.0 29.95 41.2 29.6 Q41.9 28.2 41.65 26.65 41.45 25.2 40.55 23.55 L41.85 25.95 41.9 26.25 Q42.6 28.55 41.65 30.4 L41.45 30.75 Q41.05 31.55 40.3 32.05 L40.0 32.25 Q38.2 33.4 35.05 33.45 30.0 33.65 24.35 30.75 18.65 27.85 15.8 23.65 L15.25 22.85 15.3 22.8 Q18.2 27.0 23.85 29.9 29.5 32.75 34.5 32.65 37.7 32.6 39.5 31.45" fill="#d6601e" fill-rule="evenodd" stroke="none"/>
      <path d="M11.15 15.05 L11.15 15.15" fill="none" stroke="#000000" stroke-linecap="round" stroke-linejoin="round" stroke-opacity="0.3019608" stroke-width="0.05"/>
      <path d="M42.65 23.25 L42.8 23.55 Q45.25 27.8 43.7 30.9 L43.45 31.35 42.05 34.05 41.4 35.35 Q39.55 38.95 33.55 39.05 L30.4 38.9 26.15 37.85 Q23.55 37.05 20.85 35.7 17.1 33.75 14.3 31.35 L12.4 29.5 10.75 27.4 Q9.8 26.0 9.2 24.7 7.85 21.4 9.15 18.85 L10.85 15.65 11.15 15.05 M11.25 14.7 L11.45 14.4 12.3 13.2 12.7 12.75 Q14.9 10.8 19.3 10.7 25.3 10.55 31.95 14.0 38.65 17.4 42.1 22.35 L42.6 23.2 M38.15 27.65 Q39.2 29.35 39.4 30.85 L39.5 31.45 Q37.7 32.6 34.5 32.65 29.5 32.75 23.85 29.9 18.2 27.0 15.3 22.8 M15.25 22.8 L15.15 22.6 Q13.45 20.2 13.4 18.2 L14.05 17.8 Q15.7 16.9 18.3 16.9 22.15 16.85 26.3 18.45 L29.05 19.7 Q34.45 22.45 37.25 26.35 L37.55 26.75 38.15 27.65" fill="none" stroke="#000000" stroke-linecap="round" stroke-linejoin="round" stroke-opacity="0.3019608" stroke-width="0.05"/>
      <path d="M44.25 29.65 Q43.9 29.0 44.05 28.3 44.25 27.6 44.8 27.2 45.3 26.7 45.9 26.85 46.55 27.0 46.9 27.65 47.2 28.25 47.0 28.95 46.85 29.65 46.35 30.1 45.75 30.55 45.1 30.4 44.5 30.25 44.25 29.65" fill="#8f4701" fill-rule="evenodd" stroke="none"/>
      <path d="M44.25 29.65 Q44.5 30.25 45.1 30.4 45.75 30.55 46.35 30.1 46.85 29.65 47.0 28.95 47.2 28.25 46.9 27.65 46.55 27.0 45.9 26.85 45.3 26.7 44.8 27.2 44.25 27.6 44.05 28.3 43.9 29.0 44.25 29.65 Z" fill="none" stroke="#000000" stroke-linecap="round" stroke-linejoin="round" stroke-opacity="0.3019608" stroke-width="0.05"/>
      <path d="M43.5 29.5 Q43.15 28.85 43.3 28.15 43.5 27.45 44.05 27.05 44.55 26.55 45.15 26.7 45.8 26.85 46.2 27.5 46.5 28.1 46.3 28.8 L45.65 29.95 Q45.0 30.4 44.35 30.25 43.75 30.1 43.5 29.5" fill="#c16102" fill-rule="evenodd" stroke="none"/>
      <path d="M43.5 29.5 Q43.75 30.1 44.35 30.25 45.0 30.4 45.65 29.95 L46.3 28.8 Q46.5 28.1 46.2 27.5 45.8 26.85 45.15 26.7 44.55 26.55 44.05 27.05 43.5 27.45 43.3 28.15 43.15 28.85 43.5 29.5 Z" fill="none" stroke="#000000" stroke-linecap="round" stroke-linejoin="round" stroke-opacity="0.3019608" stroke-width="0.05"/>
      <path d="M12.25 12.15 L12.55 12.4 Q13.0 12.85 13.65 12.6 14.3 12.45 14.7 11.95 15.0 11.25 14.9 10.45 14.8 9.8 14.35 9.4 L13.9 9.2 13.2 9.1 Q12.5 9.3 12.15 9.9 11.8 10.45 11.95 11.2 L12.25 12.15" fill="#c16102" fill-rule="evenodd" stroke="none"/>
      <path d="M12.25 12.15 L11.95 11.2 Q11.8 10.45 12.15 9.9 12.5 9.3 13.2 9.1 L13.9 9.2 13.75 8.95 Q13.15 8.5 12.55 8.6 11.9 8.85 11.6 9.45 11.2 10.0 11.25 10.75 11.4 11.5 11.95 11.95 L12.25 12.15" fill="#fd8002" fill-rule="evenodd" stroke="none"/>
      <path d="M13.9 9.2 L14.35 9.4 Q14.8 9.8 14.9 10.45 15.0 11.25 14.7 11.95 14.3 12.45 13.65 12.6 13.0 12.85 12.55 12.4 L12.25 12.15 11.95 11.2 Q11.8 10.45 12.15 9.9 12.5 9.3 13.2 9.1 L13.9 9.2 13.75 8.95 Q13.15 8.5 12.55 8.6 11.9 8.85 11.6 9.45 11.2 10.0 11.25 10.75 11.4 11.5 11.95 11.95 L12.25 12.15" fill="none" stroke="#000000" stroke-linecap="round" stroke-linejoin="round" stroke-opacity="0.3019608" stroke-width="0.05"/>
      <path d="M27.85 14.9 L30.05 10.55 Q31.5 11.15 32.95 11.9 38.65 14.8 41.8 18.8 L39.55 23.1 Q36.45 19.1 30.75 16.2 L27.85 14.9 M28.2 34.5 Q25.45 33.6 22.6 32.15 18.55 30.1 15.65 27.6 L13.55 25.65 15.85 21.2 17.9 23.15 Q20.8 25.65 24.85 27.7 27.7 29.15 30.45 30.05 L28.2 34.5" fill="#975b02" fill-rule="evenodd" stroke="none"/>
      <path d="M30.05 10.55 L27.85 14.9 Q23.45 13.15 19.4 13.1 16.65 13.05 14.9 13.85 14.55 14.0 14.3 14.2 L14.25 13.85 Q14.25 13.3 14.4 12.8 L14.55 12.25 14.65 11.95 14.75 11.75 Q16.3 8.7 21.6 8.75 25.65 8.8 30.05 10.55 M46.2 28.35 L44.85 31.1 44.2 32.4 Q42.35 35.95 36.0 35.85 L32.7 35.6 28.2 34.5 30.45 30.05 34.95 31.2 38.3 31.4 41.35 31.2 Q43.45 30.8 44.75 29.85 L46.2 28.35" fill="#7d4b02" fill-rule="evenodd" stroke="none"/>
      <path d="M41.8 18.8 Q38.65 14.8 32.95 11.9 31.5 11.15 30.05 10.55 25.65 8.8 21.6 8.75 16.3 8.7 14.75 11.75 L14.65 11.95 14.55 12.25 14.4 12.8 Q14.25 13.3 14.25 13.85 L14.3 14.2 Q14.4 16.25 16.2 18.7 L16.4 19.0 16.35 19.05 16.95 19.85 Q20.05 24.15 26.1 27.2 32.1 30.3 37.45 30.35 40.75 30.35 42.65 29.2 L42.85 29.0 44.15 27.75 44.3 27.35 Q45.8 24.45 42.9 20.4 L42.1 19.25 41.8 18.8 M45.1 20.2 L45.3 20.5 Q48.05 24.8 46.45 27.95 L46.2 28.35 44.75 29.85 Q43.45 30.8 41.35 31.2 L38.3 31.4 34.95 31.2 30.45 30.05 Q27.7 29.15 24.85 27.7 20.8 25.65 17.9 23.15 L15.85 21.2 14.05 19.0 13.75 18.65 12.85 17.35 12.95 17.25 Q12.1 15.35 12.1 13.7 12.1 13.1 12.25 12.55 L12.55 11.55 12.5 11.55 12.65 11.2 Q14.5 7.65 20.8 7.75 27.1 7.8 34.2 11.4 41.35 15.05 45.05 20.15 L45.1 20.2" fill="#d27e02" fill-rule="evenodd" stroke="none"/>
      <path d="M12.0 10.7 L11.85 11.0 11.95 10.7 12.0 10.7" fill="#736951" fill-rule="evenodd" stroke="none"/>
      <path d="M12.0 10.7 L11.95 10.7 12.1 10.4 Q13.9 6.8 20.25 6.9 26.55 6.9 33.65 10.55 40.8 14.2 44.5 19.3 L45.1 20.2 45.05 20.15 Q41.35 15.05 34.2 11.4 27.1 7.8 20.8 7.75 14.5 7.65 12.65 11.2 L12.5 11.55 12.55 11.55 12.25 12.55 Q12.1 13.1 12.1 13.7 12.1 15.35 12.95 17.25 L12.85 17.35 12.35 16.4 Q11.5 14.5 11.5 12.85 L11.65 11.7 12.0 10.7 M42.9 20.4 Q45.8 24.45 44.3 27.35 L44.15 27.75 42.85 29.0 42.65 29.2 Q40.75 30.35 37.45 30.35 32.1 30.3 26.1 27.2 20.05 24.15 16.95 19.85 L16.35 19.05 16.4 19.0 Q19.5 23.3 25.55 26.4 31.55 29.45 36.9 29.5 40.15 29.45 42.05 28.35 L42.3 28.15 43.55 26.9 43.75 26.55 Q45.1 23.9 42.9 20.4" fill="#fcad3a" fill-rule="evenodd" stroke="none"/>
      <path d="M39.55 23.1 L41.8 18.8 42.1 19.25 42.9 20.4 Q45.1 23.9 43.75 26.55 L43.55 26.9 42.3 28.15 42.05 28.35 Q41.85 26.15 39.9 23.6 L39.55 23.1 M13.55 25.65 L11.75 23.45 Q8.0 18.4 9.85 14.85 L11.85 11.0 11.65 11.7 11.5 12.85 Q11.5 14.5 12.35 16.4 L12.85 17.35 13.75 18.65 14.05 19.0 15.85 21.2 13.55 25.65" fill="#af6a03" fill-rule="evenodd" stroke="none"/>
      <path d="M27.85 14.9 L30.75 16.2 Q36.45 19.1 39.55 23.1 L39.9 23.6 Q41.85 26.15 42.05 28.35 40.15 29.45 36.9 29.5 31.55 29.45 25.55 26.4 19.5 23.3 16.4 19.0 L16.2 18.7 Q14.4 16.25 14.3 14.2 14.55 14.0 14.9 13.85 16.65 13.05 19.4 13.1 23.45 13.15 27.85 14.9 M11.95 10.7 L12.1 10.4 Q13.9 6.8 20.25 6.9 26.55 6.9 33.65 10.55 40.8 14.2 44.5 19.3 L45.1 20.2 45.3 20.5 Q48.05 24.8 46.45 27.95 L46.2 28.35 44.85 31.1 44.2 32.4 Q42.35 35.95 36.0 35.85 L32.7 35.6 28.2 34.5 Q25.45 33.6 22.6 32.15 18.55 30.1 15.65 27.6 L13.55 25.65 11.75 23.45 Q8.0 18.4 9.85 14.85 L11.85 11.0" fill="none" stroke="#000000" stroke-linecap="round" stroke-linejoin="round" stroke-opacity="0.3019608" stroke-width="0.05"/>
      <path d="M41.85 34.0 L42.2 33.65 42.4 33.15 Q42.4 32.8 42.2 32.7 L41.8 32.75 41.35 33.05 41.25 33.6 Q41.25 33.9 41.4 34.0 L41.85 34.0" fill="#fd8002" fill-rule="evenodd" stroke="none"/>
      <path d="M41.85 34.0 L41.4 34.0 Q41.25 33.9 41.25 33.6 L41.35 33.05 41.8 32.75 42.2 32.7 Q42.4 32.8 42.4 33.15 L42.2 33.65 41.85 34.0 M42.55 33.0 Q42.6 32.65 42.3 32.45 42.05 32.3 41.7 32.45 L41.05 33.05 Q40.85 33.4 40.8 33.85 L41.0 34.35 41.65 34.45 42.25 33.85 42.55 33.0" fill="#d96d02" fill-rule="evenodd" stroke="none"/>
      <path d="M40.25 35.0 L40.45 35.2 41.45 35.1 42.45 34.3 Q42.85 33.7 42.85 33.0 42.85 32.35 42.45 32.05 L42.15 32.0 Q41.9 31.9 41.5 32.15 40.95 32.45 40.55 33.05 40.15 33.65 40.1 34.25 L40.25 35.0 M42.55 33.0 L42.25 33.85 41.65 34.45 41.0 34.35 40.8 33.85 Q40.85 33.4 41.05 33.05 L41.7 32.45 Q42.05 32.3 42.3 32.45 42.6 32.65 42.55 33.0" fill="#a35201" fill-rule="evenodd" stroke="none"/>
      <path d="M40.25 35.0 L40.1 34.25 Q40.15 33.65 40.55 33.05 40.95 32.45 41.5 32.15 41.9 31.9 42.15 32.0 L42.0 31.75 41.0 31.8 Q40.45 32.1 40.05 32.7 39.65 33.35 39.6 33.9 39.6 34.6 40.0 34.85 L40.25 35.0" fill="#824101" fill-rule="evenodd" stroke="none"/>
      <path d="M42.15 32.0 L42.45 32.05 Q42.85 32.35 42.85 33.0 42.85 33.7 42.45 34.3 L41.45 35.1 40.45 35.2 40.25 35.0 40.1 34.25 Q40.15 33.65 40.55 33.05 40.95 32.45 41.5 32.15 41.9 31.9 42.15 32.0 L42.0 31.75 41.0 31.8 Q40.45 32.1 40.05 32.7 39.65 33.35 39.6 33.9 39.6 34.6 40.0 34.85 L40.25 35.0" fill="none" stroke="#000000" stroke-linecap="round" stroke-linejoin="round" stroke-opacity="0.3019608" stroke-width="0.05"/>
      <path d="M9.75 18.95 Q9.85 19.65 10.35 19.85 L11.35 19.7 Q11.9 19.4 12.1 18.7 12.35 18.0 12.2 17.3 L11.55 16.4 Q11.05 16.2 10.6 16.55 10.05 16.95 9.8 17.65 9.6 18.35 9.75 18.95" fill="#ba5e01" fill-rule="evenodd" stroke="none"/>
      <path d="M9.75 18.95 Q9.85 19.65 10.35 19.85 L11.35 19.7 Q11.9 19.4 12.1 18.7 12.35 18.0 12.2 17.3 L11.55 16.4 Q11.05 16.2 10.6 16.55 10.05 16.95 9.8 17.65 9.6 18.35 9.75 18.95 Z" fill="none" stroke="#000000" stroke-linecap="round" stroke-linejoin="round" stroke-opacity="0.3019608" stroke-width="0.05"/>
      <path d="M9.15 18.6 Q9.25 19.3 9.75 19.5 L10.75 19.35 Q11.3 19.05 11.5 18.35 11.75 17.65 11.6 16.95 L10.95 16.05 Q10.45 15.85 10.0 16.2 9.45 16.6 9.2 17.3 9.0 18.0 9.15 18.6" fill="#fd8002" fill-rule="evenodd" stroke="none"/>
      <path d="M9.15 18.6 Q9.25 19.3 9.75 19.5 L10.75 19.35 Q11.3 19.05 11.5 18.35 11.75 17.65 11.6 16.95 L10.95 16.05 Q10.45 15.85 10.0 16.2 9.45 16.6 9.2 17.3 9.0 18.0 9.15 18.6 Z" fill="none" stroke="#000000" stroke-linecap="round" stroke-linejoin="round" stroke-opacity="0.3019608" stroke-width="0.05"/>
      <path d="M9.65 18.15 L10.05 18.7 10.7 18.6 11.15 17.95 11.25 17.05 10.8 16.5 10.2 16.6 9.7 17.3 Q9.55 17.75 9.65 18.15" fill="#fea64e" fill-rule="evenodd" stroke="none"/>
      <path d="M9.75 17.65 Q9.8 17.95 10.0 18.05 L10.5 18.0 10.8 17.55 10.8 17.0 10.5 16.65 10.05 16.65 9.7 17.1 9.75 17.65" fill="#fdcc9b" fill-rule="evenodd" stroke="none"/>
      <path d="M30.5 31.35 L29.9 31.35 29.5 31.8 Q29.35 32.05 29.45 32.4 L29.9 32.75 30.45 32.85 30.9 32.45 30.9 31.8 30.5 31.35" fill="#fea64e" fill-rule="evenodd" stroke="none"/>
      <path d="M30.5 31.35 L30.9 31.8 30.9 32.45 30.45 32.85 29.9 32.75 29.45 32.4 Q29.35 32.05 29.5 31.8 L29.9 31.35 30.5 31.35 M29.75 31.1 Q29.25 31.3 29.05 31.75 28.9 32.15 29.1 32.75 29.2 33.15 29.65 33.35 L30.55 33.5 31.2 33.0 Q31.4 32.5 31.2 31.95 L30.5 31.1 Q30.05 30.9 29.75 31.1" fill="#d16902" fill-rule="evenodd" stroke="none"/>
      <path d="M29.75 31.1 Q30.05 30.9 30.5 31.1 L31.2 31.95 Q31.4 32.5 31.2 33.0 L30.55 33.5 29.65 33.35 Q29.2 33.15 29.1 32.75 28.9 32.15 29.05 31.75 29.25 31.3 29.75 31.1 M28.5 33.2 Q28.65 34.0 29.35 34.35 L30.75 34.3 Q31.25 34.0 31.55 33.25 31.8 32.6 31.7 31.85 31.4 31.1 30.75 30.8 L29.45 30.75 Q28.75 31.15 28.5 31.8 28.2 32.55 28.5 33.2" fill="#a14d01" fill-rule="evenodd" stroke="none"/>
      <path d="M28.5 33.2 Q28.65 34.0 29.35 34.35 L30.75 34.3 Q31.25 34.0 31.55 33.25 31.8 32.6 31.7 31.85 31.4 31.1 30.75 30.8 L29.45 30.75 Q28.75 31.15 28.5 31.8 28.2 32.55 28.5 33.2 Z" fill="none" stroke="#000000" stroke-linecap="round" stroke-linejoin="round" stroke-opacity="0.3019608" stroke-width="0.05"/>
      <path d="M18.05 25.0 Q17.55 25.25 17.35 25.7 17.2 26.1 17.4 26.65 17.5 27.05 17.95 27.25 L18.85 27.4 Q19.3 27.4 19.5 26.95 19.7 26.45 19.5 25.85 L18.8 25.0 Q18.35 24.8 18.05 25.0 M18.8 25.3 L19.2 25.75 19.2 26.4 18.75 26.8 18.2 26.7 17.75 26.3 Q17.65 25.95 17.8 25.7 L18.2 25.25 18.8 25.3" fill="#fd8002" fill-rule="evenodd" stroke="none"/>
      <path d="M18.8 25.3 L18.2 25.25 17.8 25.7 Q17.65 25.95 17.75 26.3 L18.2 26.7 18.75 26.8 19.2 26.4 19.2 25.75 18.8 25.3" fill="#fea64e" fill-rule="evenodd" stroke="none"/>
      <path d="M18.05 25.0 Q18.35 24.8 18.8 25.0 L19.5 25.85 Q19.7 26.45 19.5 26.95 19.3 27.4 18.85 27.4 L17.95 27.25 Q17.5 27.05 17.4 26.65 17.2 26.1 17.35 25.7 17.55 25.25 18.05 25.0 M17.75 24.7 Q17.05 25.1 16.8 25.75 16.5 26.5 16.8 27.15 16.95 27.95 17.65 28.3 L19.05 28.2 Q19.55 27.95 19.85 27.2 20.1 26.55 20.0 25.75 19.7 25.05 19.05 24.75 L17.75 24.7" fill="#cf6802" fill-rule="evenodd" stroke="none"/>
      <path d="M17.75 24.7 Q17.05 25.1 16.8 25.75 16.5 26.5 16.8 27.15 16.95 27.95 17.65 28.3 L19.05 28.2 Q19.55 27.95 19.85 27.2 20.1 26.55 20.0 25.75 19.7 25.05 19.05 24.75 L17.75 24.7 Z" fill="none" stroke="#000000" stroke-linecap="round" stroke-linejoin="round" stroke-opacity="0.3019608" stroke-width="0.05"/>
      <path d="M16.95 22.85 L16.85 22.7 16.9 22.9 16.95 22.85" fill="#79829f" fill-rule="evenodd" stroke="none"/>
      <path d="M13.5 30.5 Q14.65 29.6 15.0 27.55 15.3 25.6 14.45 23.7 13.75 21.75 12.3 21.05 11.0 20.5 9.8 21.35 L9.2 21.95 Q8.4 22.8 8.1 24.3 7.7 26.2 8.5 28.15 9.3 30.1 10.8 30.75 L13.4 30.6 13.5 30.5 M10.45 24.55 L10.45 23.55 Q10.55 22.35 11.15 21.9 11.8 21.35 12.65 21.9 13.55 22.55 14.0 23.85 14.55 25.25 14.4 26.5 14.4 27.75 13.8 28.35 L12.35 28.25 12.3 28.15 Q11.45 27.65 10.95 26.25 10.55 25.4 10.45 24.55" fill="#78929c" fill-rule="evenodd" stroke="none"/>
      <path d="M10.45 24.55 Q10.55 25.4 10.95 26.25 11.45 27.65 12.3 28.15 L12.35 28.25 13.8 28.35 Q14.4 27.75 14.4 26.5 14.55 25.25 14.0 23.85 13.55 22.55 12.65 21.9 11.8 21.35 11.15 21.9 10.55 22.35 10.45 23.55 L10.45 24.55" fill="#9dc6b6" fill-rule="evenodd" stroke="none"/>
      <path d="M13.5 30.5 L13.4 30.6 10.8 30.75 Q9.3 30.1 8.5 28.15 7.7 26.2 8.1 24.3 8.4 22.8 9.2 21.95 L9.8 21.35 Q11.0 20.5 12.3 21.05 13.75 21.75 14.45 23.7 15.3 25.6 15.0 27.55 14.65 29.6 13.5 30.5 M14.0 31.25 Q15.3 30.1 15.85 28.2 16.45 25.65 15.7 23.3 14.8 21.1 13.1 20.15 11.35 19.4 9.7 20.5 L8.75 21.15 Q7.75 22.3 7.2 24.1 6.6 26.45 7.3 28.85 8.15 31.1 9.95 31.95 11.75 32.85 13.5 31.65 L14.0 31.25" fill="#3c4a4f" fill-rule="evenodd" stroke="none"/>
      <path d="M7.7 32.4 Q8.75 33.95 10.4 34.75 L11.85 35.15 Q13.35 35.35 14.85 34.2 L15.0 34.05 15.1 33.95 Q18.0 28.25 16.9 22.9 L16.85 22.7 Q13.5 18.7 10.35 18.4 L10.15 18.45 8.85 19.2 8.8 19.2 8.45 19.55 Q7.6 20.35 7.05 21.45 5.85 27.9 7.7 32.4 M14.0 31.25 L13.5 31.65 Q11.75 32.85 9.95 31.95 8.15 31.1 7.3 28.85 6.6 26.45 7.2 24.1 7.75 22.3 8.75 21.15 L9.7 20.5 Q11.35 19.4 13.1 20.15 14.8 21.1 15.7 23.3 16.45 25.65 15.85 28.2 15.3 30.1 14.0 31.25" fill="#963807" fill-rule="evenodd" stroke="none"/>
      <path d="M7.05 21.45 L6.15 24.15 Q5.55 27.4 6.75 30.65 L7.7 32.4 Q5.85 27.9 7.05 21.45" fill="#6c2206" fill-rule="evenodd" stroke="none"/>
      <path d="M15.1 33.95 Q16.45 32.85 17.1 31.0 L17.6 29.2 Q18.15 26.0 16.95 22.85 L16.9 22.9 Q18.0 28.25 15.1 33.95 M16.85 22.7 Q15.9 20.9 14.85 19.8 L14.4 19.35 14.35 19.4 14.0 19.05 13.85 18.95 13.65 18.75 13.35 18.65 12.7 18.35 10.35 18.4 Q13.5 18.7 16.85 22.7" fill="#c16100" fill-rule="evenodd" stroke="none"/>
      <path d="M7.7 32.4 Q8.75 33.95 10.4 34.75 L11.85 35.15 Q13.35 35.35 14.85 34.2 L15.0 34.05 15.1 33.95 Q16.45 32.85 17.1 31.0 L17.6 29.2 Q18.15 26.0 16.95 22.85 L16.85 22.7 Q15.9 20.9 14.85 19.8 L14.4 19.35 14.0 19.05 13.85 18.95 13.65 18.75 13.35 18.65 12.7 18.35 10.35 18.4 10.15 18.45 8.85 19.2 8.8 19.2 8.45 19.55 Q7.6 20.35 7.05 21.45 L6.15 24.15 Q5.55 27.4 6.75 30.65 L7.7 32.4 M14.0 31.25 Q15.3 30.1 15.85 28.2 16.45 25.65 15.7 23.3 14.8 21.1 13.1 20.15 11.35 19.4 9.7 20.5 L8.75 21.15 Q7.75 22.3 7.2 24.1 6.6 26.45 7.3 28.85 8.15 31.1 9.95 31.95 11.75 32.85 13.5 31.65 L14.0 31.25" fill="none" stroke="#000000" stroke-linecap="round" stroke-linejoin="round" stroke-opacity="0.36862746" stroke-width="0.05"/>
    </g>
    <g id="sprite2" transform="matrix(1.0, 0.0, 0.0, 1.0, 0.0, 0.0)">
      <use height="37.0" transform="matrix(1.0, 0.0, 0.0, 1.0, 0.0, 0.0)" width="37.0" xlink:href="#shape2"/>
    </g>
    <g id="shape2" transform="matrix(1.0, 0.0, 0.0, 1.0, 0.0, 0.0)">
      <path d="M5.4 31.55 Q0.0 26.15 0.0 18.5 0.0 10.85 5.4 5.4 10.85 0.0 18.5 0.0 26.15 0.0 31.55 5.4 37.0 10.85 37.0 18.5 37.0 26.15 31.55 31.55 26.15 37.0 18.5 37.0 10.85 37.0 5.4 31.55" fill="url(#gradient0)" fill-rule="evenodd" stroke="none"/>
    </g>
    <radialGradient cx="0" cy="0" gradientTransform="matrix(0.0238, 0.0, 0.0, 0.0238, 18.5, 18.5)" gradientUnits="userSpaceOnUse" id="gradient0" r="819.2" spreadMethod="pad">
      <stop offset="0.0" stop-color="#ffffcc"/>
      <stop offset="1.0" stop-color="#ffffcc" stop-opacity="0.0"/>
    </radialGradient>
    <g id="shape3" transform="matrix(1.0, 0.0, 0.0, 1.0, -3.95, -6.4)">
      <path d="M25.55 26.4 Q22.45 24.8 20.15 22.95 21.65 23.3 23.25 23.95 24.7 24.5 26.15 25.25 29.25 26.85 31.65 28.8 28.65 28.0 25.55 26.4 M13.4 8.75 Q15.6 6.85 20.25 6.9 26.55 6.9 33.65 10.55 40.8 14.2 44.5 19.3 L45.1 20.2 45.3 20.5 Q47.8 24.4 46.7 27.35 L46.9 27.65 Q47.2 28.25 47.0 28.95 46.85 29.65 46.35 30.1 45.8 30.5 45.2 30.45 L44.85 31.1 44.2 32.4 Q43.6 33.6 42.45 34.4 L42.1 36.45 42.25 36.7 Q42.55 37.3 42.35 38.0 L41.7 39.15 40.6 39.5 40.25 40.15 39.6 41.45 Q38.95 42.7 37.75 43.5 L36.85 44.15 36.0 44.35 31.4 44.9 28.1 44.65 23.6 43.55 Q20.85 42.65 18.0 41.2 13.95 39.15 11.05 36.65 L8.95 34.7 7.15 32.5 Q5.55 30.35 5.0 28.5 4.6 28.25 4.5 27.65 4.35 27.05 4.55 26.35 L4.65 26.15 Q4.7 24.95 5.25 23.9 L6.95 20.65 6.6 19.8 Q6.55 19.05 6.95 18.5 7.25 17.9 7.9 17.65 L8.8 17.8 9.15 17.55 9.2 17.3 9.25 17.2 Q9.3 15.95 9.85 14.85 L11.6 11.55 11.25 10.75 Q11.2 10.0 11.6 9.45 11.9 8.85 12.55 8.6 L13.4 8.75" fill="none" stroke="#000000" stroke-linecap="round" stroke-linejoin="round" stroke-opacity="0.3019608" stroke-width="1.0"/>
      <path d="M30.05 10.55 Q31.5 11.15 32.95 11.9 38.65 14.8 41.8 18.8 L42.1 19.25 42.9 20.4 Q44.9 23.6 43.95 26.15 L43.75 26.55 43.55 26.9 42.3 28.15 42.2 28.3 42.05 28.35 41.6 28.6 40.4 29.05 40.35 29.05 38.3 29.45 36.9 29.5 36.35 29.5 31.65 28.75 Q29.25 26.85 26.15 25.25 24.7 24.5 23.25 23.95 21.65 23.3 20.15 22.95 17.9 21.1 16.4 19.0 L16.2 18.7 15.65 17.85 15.05 16.85 14.7 15.95 14.4 15.0 14.3 14.2 14.25 13.85 Q14.25 13.3 14.4 12.8 L14.55 12.25 14.6 12.1 14.65 11.95 14.75 11.75 14.8 11.65 14.9 11.45 Q16.55 8.7 21.6 8.75 25.65 8.8 30.05 10.55" fill="#000000" fill-opacity="0.3019608" fill-rule="evenodd" stroke="none"/>
    </g>
  </defs>
</svg>
