<?xml version="1.0" encoding="UTF-8" standalone="no"?>
<svg xmlns:xlink="http://www.w3.org/1999/xlink" height="520.0px" width="520.0px" xmlns="http://www.w3.org/2000/svg">
  <g transform="matrix(10.0, 0.0, 0.0, 10.0, 0.0, 0.0)">
    <use height="52.0" transform="matrix(1.0, 0.0, 0.0, 1.0, 0.0, 0.0)" width="52.0" xlink:href="#sprite0"/>
  </g>
  <defs>
    <g id="sprite0" transform="matrix(1.0, 0.0, 0.0, 1.0, 0.0, 0.0)">
      <use height="52.0" transform="matrix(1.0, 0.0, 0.0, 1.0, 0.0, 0.0)" width="52.0" xlink:href="#sprite1"/>
      <use height="43.6" transform="matrix(1.0, 0.0, 0.0, 1.0, 4.45, 4.35)" width="43.75" xlink:href="#shape1"/>
    </g>
    <g id="sprite1" transform="matrix(1.0, 0.0, 0.0, 1.0, 0.0, 0.0)">
      <use height="52.0" transform="matrix(1.0, 0.0, 0.0, 1.0, 0.0, 0.0)" width="52.0" xlink:href="#shape0"/>
    </g>
    <g id="shape0" transform="matrix(1.0, 0.0, 0.0, 1.0, 0.0, 0.0)">
      <path d="M52.0 0.0 L52.0 52.0 0.0 52.0 0.0 0.0 52.0 0.0" fill="#ffba2e" fill-opacity="0.0" fill-rule="evenodd" stroke="none"/>
    </g>
    <g id="shape1" transform="matrix(1.0, 0.0, 0.0, 1.0, -4.45, -4.35)">
      <path d="M46.7 24.2 L45.75 21.7 Q43.15 15.6 39.0 13.75 39.7 12.7 39.35 11.3 43.95 15.6 45.75 20.6 46.4 22.35 46.7 24.2" fill="#dcede7" fill-opacity="0.6" fill-rule="evenodd" stroke="none"/>
      <path d="M36.3 8.55 Q38.7 9.7 40.55 11.3 42.25 12.7 43.6 14.5 L43.6 14.6 44.2 15.4 Q45.5 17.25 46.35 19.45 L46.7 20.55 Q47.5 23.1 47.7 25.6 47.8 27.45 47.5 29.25 L47.45 29.6 Q46.85 32.95 45.1 36.15 L43.55 38.6 Q41.0 42.1 37.25 44.35 35.1 45.6 32.55 46.35 27.3 48.05 22.35 47.15 L18.55 46.1 18.25 46.0 Q17.25 45.6 16.35 45.05 L16.15 45.05 15.95 44.9 Q8.4 40.95 5.95 33.0 4.65 29.1 5.0 25.3 L5.35 23.35 5.85 21.35 5.95 21.15 6.15 20.4 6.45 19.8 6.65 19.15 7.45 17.45 8.0 16.35 Q10.0 13.2 12.9 11.0 L13.05 10.9 Q13.9 10.2 14.85 9.65 15.35 9.2 15.95 8.95 17.7 8.0 19.75 7.35 L20.05 7.25 20.55 7.15 20.75 7.0 Q26.3 5.45 31.6 6.85 34.0 7.45 36.3 8.55 M36.0 24.15 L36.05 24.4 Q36.4 25.95 36.25 27.3 36.1 29.15 34.95 31.05 L33.55 32.8 33.5 32.9 Q31.6 34.75 28.75 35.7 L26.0 36.2 25.95 36.2 Q23.35 36.45 20.9 35.35 L20.35 35.1 Q17.4 33.4 16.35 30.25 15.7 28.7 15.9 27.15 L16.4 26.3 Q17.95 23.5 21.2 21.75 25.6 19.45 30.55 20.4 33.1 20.85 35.05 22.2 L36.0 24.15" fill="none" stroke="#000000" stroke-linecap="round" stroke-linejoin="round" stroke-opacity="0.3019608" stroke-width="1.0"/>
      <path d="M6.45 19.8 L6.65 19.8 6.15 20.4 6.45 19.8" fill="#444444" fill-rule="evenodd" stroke="none"/>
      <path d="M25.95 36.35 L25.95 36.2 26.0 36.2 25.95 36.35" fill="#89948f" fill-rule="evenodd" stroke="none"/>
      <path d="M33.55 32.8 L33.6 33.0 33.5 32.9 33.55 32.8" fill="#586661" fill-rule="evenodd" stroke="none"/>
      <path d="M47.7 27.2 L47.55 27.15 47.7 25.6 47.7 27.2 M43.6 14.6 L44.2 15.4 43.95 15.1 43.9 15.0 43.8 14.9 43.6 14.6" fill="#875e0c" fill-rule="evenodd" stroke="none"/>
      <path d="M43.8 14.9 L43.6 14.65 43.6 14.6 43.8 14.9" fill="#b37c10" fill-rule="evenodd" stroke="none"/>
      <path d="M15.7 27.5 Q15.7 28.9 16.1 30.25 17.15 33.5 20.35 35.1 L20.9 35.35 Q23.35 36.45 25.95 36.2 L25.95 36.35 Q23.6 39.25 25.95 41.2 L25.95 41.3 24.5 41.15 23.9 41.0 21.75 40.4 19.55 39.35 Q17.65 38.2 16.45 36.4 13.95 32.7 15.4 28.4 L15.7 27.5 M37.55 13.0 Q35.8 11.3 34.0 10.1 29.2 8.25 23.2 8.3 L26.4 7.95 32.1 8.4 Q39.35 9.75 43.6 14.65 L43.8 14.9 43.9 15.0 43.95 15.1 44.85 17.1 Q45.3 18.45 45.3 19.9 L44.85 19.2 Q42.1 15.1 37.55 13.0" fill="#f0f0c0" fill-rule="evenodd" stroke="none"/>
      <path d="M25.95 41.2 Q23.6 39.25 25.95 36.35 L26.0 36.2 28.75 35.7 Q31.6 34.75 33.5 32.9 L33.6 33.0 Q34.45 36.25 31.85 39.95 L30.15 40.6 25.95 41.2" fill="#dedea4" fill-rule="evenodd" stroke="none"/>
      <path d="M47.55 27.15 Q47.45 24.8 46.6 22.55 L45.3 19.9 Q45.3 18.45 44.85 17.1 L43.95 15.1 44.2 15.4 Q45.5 17.25 46.35 19.45 L46.7 20.55 Q47.5 23.1 47.7 25.6 L47.55 27.15 M37.55 13.0 Q35.15 11.95 32.35 11.4 L26.7 10.95 Q21.4 11.1 16.55 13.7 13.95 15.0 11.95 16.8 L9.75 19.15 9.55 19.45 Q8.55 20.7 7.75 22.25 L6.75 24.9 Q5.6 28.3 6.0 31.6 L6.15 32.7 6.1 32.7 Q5.3 30.7 5.15 28.6 4.95 26.45 5.4 24.25 L5.75 23.15 6.0 22.25 6.8 20.0 7.0 19.5 Q7.75 17.95 8.8 16.6 L9.05 16.35 11.3 13.9 Q13.35 12.1 16.0 10.75 18.0 9.7 20.1 9.0 L23.2 8.3 Q29.2 8.25 34.0 10.1 35.8 11.3 37.55 13.0 M36.25 27.3 L36.55 27.6 Q37.7 29.55 37.15 35.6 35.15 38.6 31.85 39.95 34.45 36.25 33.6 33.0 L33.55 32.8 34.95 31.05 Q36.1 29.15 36.25 27.3" fill="#c4c491" fill-rule="evenodd" stroke="none"/>
      <path d="M35.05 22.2 Q36.2 22.95 37.15 24.0 L37.95 25.4 38.65 26.95 Q40.0 31.15 37.55 35.1 L37.15 35.6 Q37.7 29.55 36.55 27.6 L36.25 27.3 Q36.4 25.95 36.05 24.4 L36.0 24.15 35.05 22.2" fill="#9e9e75" fill-rule="evenodd" stroke="none"/>
      <path d="M20.35 35.1 Q17.15 33.5 16.1 30.25 15.7 28.9 15.7 27.5 L15.9 27.15 Q15.7 28.7 16.35 30.25 17.4 33.4 20.35 35.1 M25.95 41.3 L25.95 41.2 30.15 40.6 31.85 39.95 Q35.15 38.6 37.15 35.6 L37.55 35.1 Q40.0 31.15 38.65 26.95 L37.95 25.4 37.15 24.0 37.9 25.05 38.15 25.35 38.9 26.85 Q40.05 29.7 39.05 33.0 37.65 37.3 33.2 39.65 L31.95 40.3 30.2 40.85 26.0 41.3 25.95 41.3" fill="#ffffff" fill-rule="evenodd" stroke="none"/>
      <path d="M19.75 7.35 L20.05 7.25 20.55 7.15 19.75 7.35" fill="url(#gradient0)" fill-rule="evenodd" stroke="none"/>
      <path d="M11.75 25.35 Q12.4 23.95 13.35 22.8 15.45 20.15 18.9 18.35 21.4 17.0 24.05 16.45 27.8 15.65 31.85 16.45 38.65 17.75 42.05 22.85 45.4 27.85 43.75 33.7 L43.65 33.9 Q42.7 36.75 40.8 39.05 38.75 41.35 35.6 43.0 31.5 45.15 27.2 45.35 L22.7 44.95 Q19.9 44.4 17.75 43.3 15.65 42.2 14.05 40.6 L12.4 38.55 Q9.0 33.4 10.85 27.5 L11.75 25.35 M15.9 27.15 L15.7 27.5 15.4 28.4 Q13.95 32.7 16.45 36.4 17.65 38.2 19.55 39.35 L21.75 40.4 23.9 41.0 24.5 41.15 25.95 41.3 26.0 41.3 30.2 40.85 31.95 40.3 33.2 39.65 Q37.65 37.3 39.05 33.0 40.05 29.7 38.9 26.85 L38.15 25.35 37.9 25.05 37.15 24.0 Q36.2 22.95 35.05 22.2 33.1 20.85 30.55 20.4 25.6 19.45 21.2 21.75 17.95 23.5 16.4 26.3 L15.9 27.15" fill="#151812" fill-rule="evenodd" stroke="none"/>
      <path d="M45.3 19.9 Q45.25 21.35 44.7 22.95 41.4 16.8 37.55 13.0 42.1 15.1 44.85 19.2 L45.3 19.9 M23.2 8.3 L19.7 8.45 15.95 8.95 Q17.7 8.0 19.75 7.35 L20.55 7.15 20.75 7.0 Q26.3 5.45 31.6 6.85 34.0 7.45 36.3 8.55 38.7 9.7 40.55 11.3 42.25 12.7 43.6 14.5 L43.6 14.6 43.6 14.65 Q39.35 9.75 32.1 8.4 L26.4 7.95 23.2 8.3" fill="#404936" fill-rule="evenodd" stroke="none"/>
      <path d="M6.45 19.8 L6.65 19.15 7.45 17.45 8.0 16.35 Q10.0 13.2 12.9 11.0 L13.05 10.9 Q13.9 10.2 14.85 9.65 15.35 9.2 15.95 8.95 L19.7 8.45 23.2 8.3 20.1 9.0 Q18.0 9.7 16.0 10.75 13.35 12.1 11.3 13.9 L9.05 16.35 8.8 16.6 Q7.75 17.95 7.0 19.5 L6.8 20.0 6.0 22.25 5.75 23.15 5.4 24.25 Q4.95 26.45 5.15 28.6 5.3 30.7 6.1 32.7 L6.15 32.7 6.0 31.6 Q5.6 28.3 6.75 24.9 L7.75 22.25 Q8.55 20.7 9.55 19.45 L9.75 19.15 11.95 16.8 Q13.95 15.0 16.55 13.7 21.4 11.1 26.7 10.95 L32.35 11.4 Q35.15 11.95 37.55 13.0 41.4 16.8 44.7 22.95 45.25 21.35 45.3 19.9 L46.6 22.55 Q47.45 24.8 47.55 27.15 L47.7 27.2 47.5 29.25 47.45 29.6 Q46.85 32.95 45.1 36.15 L43.55 38.6 Q41.0 42.1 37.25 44.35 35.1 45.6 32.55 46.35 27.3 48.05 22.35 47.15 L19.3 46.3 18.25 46.0 Q17.25 45.6 16.35 45.05 L16.15 45.05 15.95 44.9 Q8.4 40.95 5.95 33.0 5.2 30.75 5.0 28.55 4.85 26.9 5.0 25.3 L5.35 23.35 5.85 21.35 5.95 21.15 6.15 20.4 6.65 19.8 6.45 19.8 M10.05 23.4 L11.75 25.35 10.05 23.4 M11.75 25.35 L10.85 27.5 Q9.0 33.4 12.4 38.55 L14.05 40.6 Q15.65 42.2 17.75 43.3 19.9 44.4 22.7 44.95 L27.2 45.35 Q31.5 45.15 35.6 43.0 38.75 41.35 40.8 39.05 42.7 36.75 43.65 33.9 L43.75 33.7 Q45.4 27.85 42.05 22.85 38.65 17.75 31.85 16.45 27.8 15.65 24.05 16.45 21.4 17.0 18.9 18.35 15.45 20.15 13.35 22.8 12.4 23.95 11.75 25.35 M12.0 21.25 L13.35 22.8 12.0 21.25" fill="#2e3825" fill-rule="evenodd" stroke="none"/>
      <path d="M11.75 25.35 L10.85 27.5 Q9.0 33.4 12.4 38.55 L14.05 40.6 Q15.65 42.2 17.75 43.3 19.9 44.4 22.7 44.95 L27.2 45.35 Q31.5 45.15 35.6 43.0 38.75 41.35 40.8 39.05 42.7 36.75 43.65 33.9 L43.75 33.7 Q45.4 27.85 42.05 22.85 38.65 17.75 31.85 16.45 27.8 15.65 24.05 16.45 21.4 17.0 18.9 18.35 15.45 20.15 13.35 22.8 12.4 23.95 11.75 25.35 M15.9 27.15 L15.7 27.5 15.4 28.4 Q13.95 32.7 16.45 36.4 17.65 38.2 19.55 39.35 L21.75 40.4 23.9 41.0 24.5 41.15 25.95 41.3 M35.05 22.2 Q33.1 20.85 30.55 20.4 25.6 19.45 21.2 21.75 17.95 23.5 16.4 26.3 L15.9 27.15 M37.15 24.0 Q36.2 22.95 35.05 22.2 M37.15 24.0 L37.9 25.05 38.15 25.35 38.9 26.85 Q40.05 29.7 39.05 33.0 37.65 37.3 33.2 39.65 L31.95 40.3 30.2 40.85 26.0 41.3 25.95 41.3" fill="none" stroke="#382510" stroke-linecap="round" stroke-linejoin="round" stroke-opacity="0.22352941" stroke-width="0.05"/>
      <path d="M15.95 8.95 Q15.35 9.2 14.85 9.65 13.9 10.2 13.05 10.9 L12.9 11.0 Q10.0 13.2 8.0 16.35 L7.45 17.45 6.65 19.15 6.45 19.8 M6.15 20.4 L5.95 21.15 M5.35 23.35 L5.0 25.3 Q4.85 26.9 5.0 28.55 5.2 30.75 5.95 33.0 8.4 40.95 15.95 44.9 M16.15 45.05 L16.35 45.05 Q17.25 45.6 18.25 46.0 L19.3 46.3 M22.35 47.15 Q27.3 48.05 32.55 46.35 35.1 45.6 37.25 44.35 41.0 42.1 43.55 38.6 L45.1 36.15 Q46.85 32.95 47.45 29.6 L47.5 29.25 47.7 27.2 M15.95 8.95 Q17.7 8.0 19.75 7.35 L20.05 7.25 20.55 7.15 20.75 7.0 Q26.3 5.45 31.6 6.85 34.0 7.45 36.3 8.55 38.7 9.7 40.55 11.3 42.25 12.7 43.6 14.5 L43.6 14.6 44.2 15.4 Q45.5 17.25 46.35 19.45 L46.7 20.55 Q47.5 23.1 47.7 25.6 L47.7 27.2 M6.15 20.4 L6.45 19.8 M15.7 27.5 Q15.7 28.9 16.1 30.25 17.15 33.5 20.35 35.1 M25.95 36.2 Q23.35 36.45 20.9 35.35 L20.35 35.1 M35.05 22.2 L36.0 24.15 36.05 24.4 Q36.4 25.95 36.25 27.3 M33.5 32.9 Q31.6 34.75 28.75 35.7 L26.0 36.2 M33.5 32.9 L33.55 32.8 34.95 31.05 Q36.1 29.15 36.25 27.3 M25.95 36.2 L26.0 36.2" fill="none" stroke="#382510" stroke-linecap="round" stroke-linejoin="round" stroke-opacity="0.3019608" stroke-width="0.05"/>
      <path d="M11.75 25.35 L10.05 23.4 M13.35 22.8 L12.0 21.25" fill="none" stroke="#130f12" stroke-linecap="round" stroke-linejoin="round" stroke-opacity="0.3019608" stroke-width="0.05"/>
      <path d="M15.95 44.9 L16.15 45.05 M19.3 46.3 L22.35 47.15 M18.25 46.0 L16.15 45.05" fill="none" stroke="#382510" stroke-linecap="round" stroke-linejoin="round" stroke-opacity="0.101960786" stroke-width="0.05"/>
      <path d="M34.65 10.15 Q34.0 10.0 33.5 10.4 32.95 10.8 32.85 11.5 32.75 12.15 33.15 12.65 33.55 13.25 34.2 13.3 L35.35 13.05 Q35.9 12.65 35.95 12.0 36.1 11.3 35.75 10.75 L34.65 10.15" fill="#ffffff" fill-rule="evenodd" stroke="none"/>
      <path d="M32.65 9.25 L31.5 8.7 32.0 9.8 Q31.55 10.5 31.4 11.3 31.3 12.2 31.6 13.0 L29.85 14.85 32.0 13.8 Q32.8 14.9 34.1 15.15 35.35 15.35 36.4 14.6 37.1 14.1 37.45 13.4 38.6 12.5 40.55 12.7 38.25 12.4 37.7 11.4 L37.1 10.0 Q36.3 8.9 35.05 8.7 33.85 8.45 32.75 9.15 L32.65 9.25 M34.65 10.15 L35.75 10.75 Q36.1 11.3 35.95 12.0 35.9 12.65 35.35 13.05 L34.2 13.3 Q33.55 13.25 33.15 12.65 32.75 12.15 32.85 11.5 32.95 10.8 33.5 10.4 34.0 10.0 34.65 10.15" fill="#ffffff" fill-opacity="0.3019608" fill-rule="evenodd" stroke="none"/>
      <path d="M33.8 11.25 L31.2 13.0 34.75 12.45 37.55 16.4 35.35 11.95 46.1 6.9 34.75 10.8 30.25 4.35 33.8 11.25" fill="#ffffff" fill-rule="evenodd" stroke="none"/>
    </g>
    <radialGradient cx="0" cy="0" gradientTransform="matrix(-0.0397, 0.021, 0.0216, 0.0409, 30.0, 10.65)" gradientUnits="userSpaceOnUse" id="gradient0" r="819.2" spreadMethod="pad">
      <stop offset="0.0" stop-color="#949f9b"/>
      <stop offset="0.8705882352941177" stop-color="#4f5957"/>
      <stop offset="1.0" stop-color="#2d3835"/>
    </radialGradient>
  </defs>
</svg>
